Processing appass_1.mid...

Track 0: Sonate Nr. 23 Op. 57
Track 1: Piano right
Note ON: Time 2160, Note Name: C4, Velocity: 35
Note OFF: Time 2760, Note Name: C4
Note ON: Time 2760, Note Name: G#3, Velocity: 31
Note OFF: Time 2880, Note Name: G#3
Note ON: Time 2880, Note Name: F3, Velocity: 28
Note OFF: Time 5040, Note Name: F3
Note ON: Time 5040, Note Name: G#3, Velocity: 35
Note OFF: Time 5640, Note Name: G#3
Note ON: Time 5640, Note Name: C4, Velocity: 30
Note OFF: Time 5760, Note Name: C4
Note ON: Time 5760, Note Name: F4, Velocity: 35
Note OFF: Time 6480, Note Name: F4
Note ON: Time 6480, Note Name: G#4, Velocity: 35
Note OFF: Time 7080, Note Name: G#4
Note ON: Time 7080, Note Name: C5, Velocity: 30
Note OFF: Time 7200, Note Name: C5
Note ON: Time 7200, Note Name: F5, Velocity: 35
Note OFF: Time 7910, Note Name: F5
Note ON: Time 7920, Note Name: F4, Velocity: 33
Note OFF: Time 8640, Note Name: F4
Note ON: Time 8640, Note Name: C5, Velocity: 35
Note OFF: Time 9840, Note Name: C5
Note ON: Time 9840, Note Name: D5, Velocity: 33
Note OFF: Time 10020, Note Name: D5
Note ON: Time 10020, Note Name: C5, Velocity: 31
Note OFF: Time 10080, Note Name: C5
Note ON: Time 10080, Note Name: D5, Velocity: 32
Note OFF: Time 10160, Note Name: D5
Note ON: Time 10160, Note Name: E5, Velocity: 28
Note OFF: Time 10240, Note Name: E5
Note ON: Time 10240, Note Name: D5, Velocity: 32
Note OFF: Time 10320, Note Name: D5
Note ON: Time 10320, Note Name: E5, Velocity: 28
Note OFF: Time 10400, Note Name: E5
Note ON: Time 10400, Note Name: D5, Velocity: 32
Note OFF: Time 10480, Note Name: D5
Note ON: Time 10480, Note Name: E5, Velocity: 29
Note OFF: Time 10560, Note Name: E5
Note ON: Time 10560, Note Name: D5, Velocity: 32
Note OFF: Time 10640, Note Name: D5
Note ON: Time 10640, Note Name: E5, Velocity: 28
Note OFF: Time 10720, Note Name: E5
Note ON: Time 10720, Note Name: D5, Velocity: 31
Note OFF: Time 10800, Note Name: D5
Note ON: Time 10800, Note Name: E5, Velocity: 29
Note OFF: Time 10880, Note Name: E5
Note ON: Time 10880, Note Name: D5, Velocity: 27
Note OFF: Time 10960, Note Name: D5
Note ON: Time 10960, Note Name: E5, Velocity: 32
Note OFF: Time 11040, Note Name: E5
Note ON: Time 11040, Note Name: D5, Velocity: 27
Note OFF: Time 11160, Note Name: D5
Note ON: Time 11160, Note Name: C5, Velocity: 28
Note OFF: Time 11280, Note Name: C5
Note ON: Time 11280, Note Name: E5, Velocity: 31
Note OFF: Time 11400, Note Name: E5
Note ON: Time 11400, Note Name: D5, Velocity: 28
Note OFF: Time 11520, Note Name: D5
Note ON: Time 11520, Note Name: C5, Velocity: 35
Note OFF: Time 12000, Note Name: C5
Note ON: Time 13680, Note Name: C#4, Velocity: 35
Note OFF: Time 14280, Note Name: C#4
Note ON: Time 14280, Note Name: A#3, Velocity: 31
Note OFF: Time 14400, Note Name: A#3
Note ON: Time 14400, Note Name: F#3, Velocity: 28
Note OFF: Time 16560, Note Name: F#3
Note ON: Time 16560, Note Name: A#3, Velocity: 35
Note OFF: Time 17160, Note Name: A#3
Note ON: Time 17160, Note Name: C#4, Velocity: 30
Note OFF: Time 17280, Note Name: C#4
Note ON: Time 17280, Note Name: F#4, Velocity: 35
Note OFF: Time 18000, Note Name: F#4
Note ON: Time 18000, Note Name: A#4, Velocity: 35
Note OFF: Time 18600, Note Name: A#4
Note ON: Time 18600, Note Name: C#5, Velocity: 30
Note OFF: Time 18720, Note Name: C#5
Note ON: Time 18720, Note Name: F#5, Velocity: 34
Note OFF: Time 19440, Note Name: F#5
Note ON: Time 19440, Note Name: F#4, Velocity: 33
Note OFF: Time 20160, Note Name: F#4
Note ON: Time 20160, Note Name: C#5, Velocity: 35
Note OFF: Time 21360, Note Name: C#5
Note ON: Time 21360, Note Name: D#5, Velocity: 32
Note OFF: Time 21540, Note Name: D#5
Note ON: Time 21540, Note Name: C#5, Velocity: 31
Note OFF: Time 21600, Note Name: C#5
Note ON: Time 21600, Note Name: D#5, Velocity: 30
Note OFF: Time 21680, Note Name: D#5
Note ON: Time 21680, Note Name: F5, Velocity: 27
Note OFF: Time 21760, Note Name: F5
Note ON: Time 21760, Note Name: D#5, Velocity: 30
Note OFF: Time 21840, Note Name: D#5
Note ON: Time 21840, Note Name: F5, Velocity: 27
Note OFF: Time 21920, Note Name: F5
Note ON: Time 21920, Note Name: D#5, Velocity: 30
Note OFF: Time 22000, Note Name: D#5
Note ON: Time 22000, Note Name: F5, Velocity: 27
Note OFF: Time 22080, Note Name: F5
Note ON: Time 22080, Note Name: D#5, Velocity: 29
Note OFF: Time 22160, Note Name: D#5
Note ON: Time 22160, Note Name: F5, Velocity: 27
Note OFF: Time 22240, Note Name: F5
Note ON: Time 22240, Note Name: D#5, Velocity: 29
Note OFF: Time 22320, Note Name: D#5
Note ON: Time 22320, Note Name: F5, Velocity: 28
Note OFF: Time 22400, Note Name: F5
Note ON: Time 22400, Note Name: D#5, Velocity: 30
Note OFF: Time 22480, Note Name: D#5
Note ON: Time 22480, Note Name: F5, Velocity: 28
Note OFF: Time 22560, Note Name: F5
Note ON: Time 22560, Note Name: D#5, Velocity: 26
Note OFF: Time 22680, Note Name: D#5
Note ON: Time 22680, Note Name: C#5, Velocity: 28
Note OFF: Time 22800, Note Name: C#5
Note ON: Time 22800, Note Name: F5, Velocity: 31
Note OFF: Time 22920, Note Name: F5
Note ON: Time 22920, Note Name: D#5, Velocity: 29
Note OFF: Time 23040, Note Name: D#5
Note ON: Time 23040, Note Name: C#5, Velocity: 35
Note OFF: Time 23520, Note Name: C#5
Note ON: Time 25920, Note Name: C5, Velocity: 35
Note OFF: Time 27120, Note Name: C5
Note ON: Time 27120, Note Name: D5, Velocity: 42
Note OFF: Time 27300, Note Name: D5
Note ON: Time 27300, Note Name: C5, Velocity: 38
Note OFF: Time 27360, Note Name: C5
Note ON: Time 27360, Note Name: D5, Velocity: 43
Note OFF: Time 27440, Note Name: D5
Note ON: Time 27440, Note Name: E5, Velocity: 35
Note OFF: Time 27520, Note Name: E5
Note ON: Time 27520, Note Name: D5, Velocity: 40
Note OFF: Time 27600, Note Name: D5
Note ON: Time 27600, Note Name: E5, Velocity: 36
Note OFF: Time 27680, Note Name: E5
Note ON: Time 27680, Note Name: D5, Velocity: 39
Note OFF: Time 27760, Note Name: D5
Note ON: Time 27760, Note Name: E5, Velocity: 36
Note OFF: Time 27840, Note Name: E5
Note ON: Time 27840, Note Name: D5, Velocity: 41
Note OFF: Time 27920, Note Name: D5
Note ON: Time 27920, Note Name: E5, Velocity: 37
Note OFF: Time 28000, Note Name: E5
Note ON: Time 28000, Note Name: D5, Velocity: 40
Note OFF: Time 28080, Note Name: D5
Note ON: Time 28080, Note Name: E5, Velocity: 35
Note OFF: Time 28160, Note Name: E5
Note ON: Time 28160, Note Name: D5, Velocity: 31
Note OFF: Time 28240, Note Name: D5
Note ON: Time 28240, Note Name: E5, Velocity: 37
Note OFF: Time 28320, Note Name: E5
Note ON: Time 28320, Note Name: D5, Velocity: 33
Note OFF: Time 28440, Note Name: D5
Note ON: Time 28440, Note Name: C5, Velocity: 33
Note OFF: Time 28560, Note Name: C5
Note ON: Time 28560, Note Name: E5, Velocity: 37
Note OFF: Time 28680, Note Name: E5
Note ON: Time 28680, Note Name: D5, Velocity: 33
Note OFF: Time 28800, Note Name: D5
Note ON: Time 28800, Note Name: C5, Velocity: 35
Note OFF: Time 29280, Note Name: C5
Note ON: Time 31680, Note Name: E5, Velocity: 35
Note OFF: Time 32880, Note Name: E5
Note ON: Time 32880, Note Name: F5, Velocity: 38
Note OFF: Time 33120, Note Name: F5
Note ON: Time 33120, Note Name: F5, Velocity: 39
Note OFF: Time 33200, Note Name: F5
Note ON: Time 33200, Note Name: G5, Velocity: 34
Note OFF: Time 33280, Note Name: G5
Note ON: Time 33280, Note Name: F5, Velocity: 39
Note OFF: Time 33360, Note Name: F5
Note ON: Time 33360, Note Name: G5, Velocity: 35
Note OFF: Time 33440, Note Name: G5
Note ON: Time 33440, Note Name: F5, Velocity: 39
Note OFF: Time 33520, Note Name: F5
Note ON: Time 33520, Note Name: G5, Velocity: 35
Note OFF: Time 33600, Note Name: G5
Note ON: Time 33600, Note Name: F5, Velocity: 39
Note OFF: Time 33680, Note Name: F5
Note ON: Time 33680, Note Name: G5, Velocity: 35
Note OFF: Time 33760, Note Name: G5
Note ON: Time 33760, Note Name: F5, Velocity: 39
Note OFF: Time 33840, Note Name: F5
Note ON: Time 33840, Note Name: G5, Velocity: 36
Note OFF: Time 33920, Note Name: G5
Note ON: Time 33920, Note Name: F5, Velocity: 33
Note OFF: Time 34000, Note Name: F5
Note ON: Time 34000, Note Name: G5, Velocity: 39
Note OFF: Time 34080, Note Name: G5
Note ON: Time 34080, Note Name: F5, Velocity: 33
Note OFF: Time 34200, Note Name: F5
Note ON: Time 34200, Note Name: E5, Velocity: 34
Note OFF: Time 34320, Note Name: E5
Note ON: Time 34320, Note Name: G5, Velocity: 40
Note OFF: Time 34440, Note Name: G5
Note ON: Time 34440, Note Name: F5, Velocity: 35
Note OFF: Time 34560, Note Name: F5
Note ON: Time 34560, Note Name: E5, Velocity: 35
Note OFF: Time 35040, Note Name: E5
Note ON: Time 36720, Note Name: E5, Velocity: 35
Note ON: Time 36720, Note Name: G5, Velocity: 35
Note OFF: Time 36960, Note Name: G5
Note OFF: Time 36960, Note Name: E5
Note ON: Time 36960, Note Name: G5, Velocity: 31
Note ON: Time 36960, Note Name: E5, Velocity: 31
Note OFF: Time 37200, Note Name: E5
Note OFF: Time 37200, Note Name: G5
Note ON: Time 37200, Note Name: E5, Velocity: 35
Note ON: Time 37200, Note Name: G5, Velocity: 35
Note OFF: Time 37440, Note Name: G5
Note OFF: Time 37440, Note Name: E5
Note ON: Time 37440, Note Name: G5, Velocity: 35
Note ON: Time 37440, Note Name: A#5, Velocity: 35
Note OFF: Time 37920, Note Name: A#5
Note OFF: Time 37920, Note Name: G5
Note ON: Time 39600, Note Name: A#5, Velocity: 83
Note ON: Time 39600, Note Name: G5, Velocity: 83
Note OFF: Time 39840, Note Name: G5
Note OFF: Time 39840, Note Name: A#5
Note ON: Time 39840, Note Name: A#5, Velocity: 77
Note ON: Time 39840, Note Name: G5, Velocity: 77
Note OFF: Time 40080, Note Name: G5
Note OFF: Time 40080, Note Name: A#5
Note ON: Time 40080, Note Name: G5, Velocity: 83
Note ON: Time 40080, Note Name: A#5, Velocity: 83
Note OFF: Time 40320, Note Name: A#5
Note OFF: Time 40320, Note Name: G5
Note ON: Time 40320, Note Name: E6, Velocity: 85
Note OFF: Time 40440, Note Name: E6
Note ON: Time 40440, Note Name: A#5, Velocity: 76
Note OFF: Time 40560, Note Name: A#5
Note ON: Time 40560, Note Name: G6, Velocity: 85
Note OFF: Time 40680, Note Name: G6
Note ON: Time 40680, Note Name: E6, Velocity: 75
Note OFF: Time 40800, Note Name: E6
Note ON: Time 40800, Note Name: A#6, Velocity: 85
Note OFF: Time 40920, Note Name: A#6
Note ON: Time 40920, Note Name: G6, Velocity: 76
Note OFF: Time 41040, Note Name: G6
Note ON: Time 41040, Note Name: E6, Velocity: 85
Note OFF: Time 41160, Note Name: E6
Note ON: Time 41160, Note Name: G6, Velocity: 76
Note OFF: Time 41280, Note Name: G6
Note ON: Time 41280, Note Name: A#5, Velocity: 83
Note OFF: Time 41400, Note Name: A#5
Note ON: Time 41400, Note Name: E6, Velocity: 75
Note OFF: Time 41520, Note Name: E6
Note ON: Time 41520, Note Name: G5, Velocity: 83
Note OFF: Time 41640, Note Name: G5
Note ON: Time 41640, Note Name: A#5, Velocity: 74
Note OFF: Time 41760, Note Name: A#5
Note ON: Time 41760, Note Name: E5, Velocity: 81
Note OFF: Time 41880, Note Name: E5
Note ON: Time 41880, Note Name: G5, Velocity: 74
Note OFF: Time 42000, Note Name: G5
Note ON: Time 42000, Note Name: A#4, Velocity: 81
Note OFF: Time 42120, Note Name: A#4
Note ON: Time 42120, Note Name: E5, Velocity: 71
Note OFF: Time 42240, Note Name: E5
Note ON: Time 42240, Note Name: G4, Velocity: 80
Note OFF: Time 42360, Note Name: G4
Note ON: Time 42360, Note Name: A#4, Velocity: 73
Note OFF: Time 42480, Note Name: A#4
Note ON: Time 42480, Note Name: E4, Velocity: 80
Note OFF: Time 42600, Note Name: E4
Note ON: Time 42600, Note Name: G4, Velocity: 70
Note OFF: Time 42720, Note Name: G4
Note ON: Time 42720, Note Name: A#3, Velocity: 79
Note OFF: Time 42840, Note Name: A#3
Note ON: Time 42840, Note Name: E4, Velocity: 71
Note OFF: Time 42960, Note Name: E4
Note ON: Time 48240, Note Name: C4, Velocity: 35
Note OFF: Time 48840, Note Name: C4
Note ON: Time 48840, Note Name: G#3, Velocity: 31
Note OFF: Time 48960, Note Name: G#3
Note ON: Time 48960, Note Name: F3, Velocity: 103
Note OFF: Time 49200, Note Name: F3
Note ON: Time 49200, Note Name: C4, Velocity: 85
Note ON: Time 49200, Note Name: F4, Velocity: 101
Note ON: Time 49200, Note Name: G#3, Velocity: 75
Note ON: Time 49200, Note Name: F3, Velocity: 75
Note OFF: Time 49675, Note Name: F3
Note OFF: Time 49675, Note Name: C4
Note OFF: Time 49675, Note Name: F4
Note OFF: Time 49675, Note Name: G#3
Note ON: Time 49680, Note Name: C4, Velocity: 72
Note ON: Time 49680, Note Name: G#3, Velocity: 72
Note ON: Time 49680, Note Name: F4, Velocity: 81
Note ON: Time 49680, Note Name: G#4, Velocity: 96
Note OFF: Time 50155, Note Name: G#4
Note OFF: Time 50155, Note Name: C4
Note OFF: Time 50155, Note Name: G#3
Note OFF: Time 50155, Note Name: F4
Note ON: Time 50160, Note Name: C4, Velocity: 71
Note ON: Time 50160, Note Name: C5, Velocity: 96
Note ON: Time 50160, Note Name: F4, Velocity: 71
Note ON: Time 50160, Note Name: G#4, Velocity: 79
Note OFF: Time 50635, Note Name: G#4
Note OFF: Time 50635, Note Name: C4
Note OFF: Time 50635, Note Name: C5
Note OFF: Time 50635, Note Name: F4
Note ON: Time 50640, Note Name: C5, Velocity: 80
Note ON: Time 50640, Note Name: F5, Velocity: 95
Note ON: Time 50640, Note Name: F4, Velocity: 72
Note ON: Time 50640, Note Name: G#4, Velocity: 72
Note OFF: Time 51115, Note Name: G#4
Note OFF: Time 51115, Note Name: C5
Note OFF: Time 51115, Note Name: F5
Note OFF: Time 51115, Note Name: F4
Note ON: Time 51120, Note Name: F5, Velocity: 86
Note ON: Time 51120, Note Name: G#4, Velocity: 76
Note ON: Time 51120, Note Name: C5, Velocity: 76
Note ON: Time 51120, Note Name: G#5, Velocity: 103
Note OFF: Time 51595, Note Name: G#5
Note OFF: Time 51595, Note Name: F5
Note OFF: Time 51595, Note Name: G#4
Note OFF: Time 51595, Note Name: C5
Note ON: Time 51600, Note Name: F5, Velocity: 78
Note ON: Time 51600, Note Name: C6, Velocity: 94
Note ON: Time 51600, Note Name: G#5, Velocity: 78
Note ON: Time 51600, Note Name: C5, Velocity: 71
Note OFF: Time 51838, Note Name: C5
Note OFF: Time 51838, Note Name: F5
Note OFF: Time 51838, Note Name: C6
Note OFF: Time 51838, Note Name: G#5
Note ON: Time 51840, Note Name: F6, Velocity: 103
Note ON: Time 51840, Note Name: F5, Velocity: 76
Note ON: Time 51840, Note Name: C6, Velocity: 86
Note ON: Time 51840, Note Name: G#5, Velocity: 86
Note OFF: Time 54000, Note Name: G#5
Note OFF: Time 54000, Note Name: F6
Note OFF: Time 54000, Note Name: F5
Note OFF: Time 54000, Note Name: C6
Note ON: Time 54000, Note Name: G#3, Velocity: 41
Note OFF: Time 54600, Note Name: G#3
Note ON: Time 54600, Note Name: C4, Velocity: 35
Note OFF: Time 54720, Note Name: C4
Note ON: Time 54720, Note Name: F4, Velocity: 39
Note OFF: Time 55440, Note Name: F4
Note ON: Time 55440, Note Name: G#4, Velocity: 41
Note OFF: Time 56040, Note Name: G#4
Note ON: Time 56040, Note Name: C5, Velocity: 36
Note OFF: Time 56160, Note Name: C5
Note ON: Time 56160, Note Name: F5, Velocity: 39
Note OFF: Time 56875, Note Name: F5
Note ON: Time 56880, Note Name: F4, Velocity: 39
Note OFF: Time 57600, Note Name: F4
Note ON: Time 57600, Note Name: C4, Velocity: 103
Note OFF: Time 57840, Note Name: C4
Note ON: Time 57840, Note Name: C4, Velocity: 85
Note ON: Time 57840, Note Name: E4, Velocity: 101
Note OFF: Time 58315, Note Name: E4
Note OFF: Time 58315, Note Name: C4
Note ON: Time 58320, Note Name: E4, Velocity: 81
Note ON: Time 58320, Note Name: G4, Velocity: 96
Note ON: Time 58320, Note Name: C4, Velocity: 72
Note OFF: Time 58795, Note Name: C4
Note OFF: Time 58795, Note Name: G4
Note OFF: Time 58795, Note Name: E4
Note ON: Time 58800, Note Name: C5, Velocity: 96
Note ON: Time 58800, Note Name: E4, Velocity: 71
Note ON: Time 58800, Note Name: G4, Velocity: 79
Note OFF: Time 59275, Note Name: G4
Note OFF: Time 59275, Note Name: E4
Note OFF: Time 59275, Note Name: C5
Note ON: Time 59280, Note Name: E5, Velocity: 95
Note ON: Time 59280, Note Name: G4, Velocity: 72
Note ON: Time 59280, Note Name: C5, Velocity: 80
Note OFF: Time 59755, Note Name: C5
Note OFF: Time 59755, Note Name: G4
Note OFF: Time 59755, Note Name: E5
Note ON: Time 59760, Note Name: G5, Velocity: 103
Note ON: Time 59760, Note Name: C5, Velocity: 76
Note ON: Time 59760, Note Name: E5, Velocity: 86
Note OFF: Time 60235, Note Name: E5
Note OFF: Time 60235, Note Name: C5
Note OFF: Time 60235, Note Name: G5
Note ON: Time 60240, Note Name: C6, Velocity: 94
Note ON: Time 60240, Note Name: E5, Velocity: 78
Note ON: Time 60240, Note Name: G5, Velocity: 78
Note OFF: Time 60478, Note Name: G5
Note OFF: Time 60478, Note Name: E5
Note OFF: Time 60478, Note Name: C6
Note ON: Time 60480, Note Name: C5, Velocity: 41
Note OFF: Time 61680, Note Name: C5
Note ON: Time 61680, Note Name: D5, Velocity: 45
Note OFF: Time 61920, Note Name: D5
Note ON: Time 61920, Note Name: D5, Velocity: 39
Note OFF: Time 62000, Note Name: D5
Note ON: Time 62000, Note Name: E5, Velocity: 35
Note ON: Time 62080, Note Name: D5, Velocity: 39
Note OFF: Time 62120, Note Name: E5
Note OFF: Time 62160, Note Name: D5
Note ON: Time 62160, Note Name: E5, Velocity: 36
Note OFF: Time 62240, Note Name: E5
Note ON: Time 62240, Note Name: D5, Velocity: 38
Note OFF: Time 62320, Note Name: D5
Note ON: Time 62320, Note Name: E5, Velocity: 36
Note OFF: Time 62400, Note Name: E5
Note ON: Time 62400, Note Name: D5, Velocity: 38
Note OFF: Time 62480, Note Name: D5
Note ON: Time 62480, Note Name: E5, Velocity: 36
Note OFF: Time 62560, Note Name: E5
Note ON: Time 62560, Note Name: D5, Velocity: 39
Note OFF: Time 62640, Note Name: D5
Note ON: Time 62640, Note Name: E5, Velocity: 37
Note OFF: Time 62720, Note Name: E5
Note ON: Time 62720, Note Name: D5, Velocity: 35
Note OFF: Time 62800, Note Name: D5
Note ON: Time 62800, Note Name: E5, Velocity: 39
Note OFF: Time 62880, Note Name: E5
Note ON: Time 62880, Note Name: D5, Velocity: 35
Note OFF: Time 63000, Note Name: D5
Note ON: Time 63000, Note Name: C5, Velocity: 36
Note OFF: Time 63120, Note Name: C5
Note ON: Time 63120, Note Name: E5, Velocity: 41
Note OFF: Time 63240, Note Name: E5
Note ON: Time 63240, Note Name: D5, Velocity: 38
Note OFF: Time 63360, Note Name: D5
Note ON: Time 63360, Note Name: C4, Velocity: 103
Note OFF: Time 63598, Note Name: C4
Note ON: Time 63600, Note Name: C4, Velocity: 85
Note ON: Time 63600, Note Name: E4, Velocity: 101
Note OFF: Time 64075, Note Name: E4
Note OFF: Time 64075, Note Name: C4
Note ON: Time 64080, Note Name: C4, Velocity: 72
Note ON: Time 64080, Note Name: E4, Velocity: 81
Note ON: Time 64080, Note Name: G4, Velocity: 96
Note OFF: Time 64555, Note Name: G4
Note OFF: Time 64555, Note Name: E4
Note OFF: Time 64555, Note Name: C4
Note ON: Time 64560, Note Name: E4, Velocity: 71
Note ON: Time 64560, Note Name: G4, Velocity: 79
Note ON: Time 64560, Note Name: C5, Velocity: 96
Note OFF: Time 65035, Note Name: C5
Note OFF: Time 65035, Note Name: G4
Note OFF: Time 65035, Note Name: E4
Note ON: Time 65040, Note Name: G4, Velocity: 72
Note ON: Time 65040, Note Name: C5, Velocity: 80
Note ON: Time 65040, Note Name: E5, Velocity: 95
Note OFF: Time 65515, Note Name: E5
Note OFF: Time 65515, Note Name: C5
Note OFF: Time 65515, Note Name: G4
Note ON: Time 65520, Note Name: C5, Velocity: 76
Note ON: Time 65520, Note Name: E5, Velocity: 86
Note ON: Time 65520, Note Name: G5, Velocity: 103
Note OFF: Time 65995, Note Name: G5
Note OFF: Time 65995, Note Name: E5
Note OFF: Time 65995, Note Name: C5
Note ON: Time 66000, Note Name: E5, Velocity: 78
Note ON: Time 66000, Note Name: C6, Velocity: 94
Note ON: Time 66000, Note Name: G5, Velocity: 78
Note OFF: Time 66238, Note Name: G5
Note OFF: Time 66238, Note Name: C6
Note OFF: Time 66238, Note Name: E5
Note ON: Time 66240, Note Name: C5, Velocity: 48
Note OFF: Time 67440, Note Name: C5
Note ON: Time 67440, Note Name: C#5, Velocity: 52
Note OFF: Time 67620, Note Name: C#5
Note ON: Time 67620, Note Name: C5, Velocity: 48
Note OFF: Time 67680, Note Name: C5
Note ON: Time 67680, Note Name: C#5, Velocity: 46
Note OFF: Time 67760, Note Name: C#5
Note ON: Time 67760, Note Name: D#5, Velocity: 41
Note OFF: Time 67840, Note Name: D#5
Note ON: Time 67840, Note Name: C#5, Velocity: 46
Note OFF: Time 67920, Note Name: C#5
Note ON: Time 67920, Note Name: D#5, Velocity: 41
Note OFF: Time 68000, Note Name: D#5
Note ON: Time 68000, Note Name: C#5, Velocity: 44
Note OFF: Time 68080, Note Name: C#5
Note ON: Time 68080, Note Name: D#5, Velocity: 41
Note OFF: Time 68160, Note Name: D#5
Note ON: Time 68160, Note Name: C#5, Velocity: 46
Note OFF: Time 68240, Note Name: C#5
Note ON: Time 68240, Note Name: D#5, Velocity: 42
Note OFF: Time 68320, Note Name: D#5
Note ON: Time 68320, Note Name: C#5, Velocity: 46
Note OFF: Time 68400, Note Name: C#5
Note ON: Time 68400, Note Name: D#5, Velocity: 43
Note OFF: Time 68520, Note Name: D#5
Note ON: Time 68520, Note Name: C#5, Velocity: 40
Note OFF: Time 68640, Note Name: C#5
Note ON: Time 68640, Note Name: D#5, Velocity: 46
Note OFF: Time 68760, Note Name: D#5
Note ON: Time 68760, Note Name: C#5, Velocity: 42
Note OFF: Time 68880, Note Name: C#5
Note ON: Time 68880, Note Name: C5, Velocity: 48
Note OFF: Time 69000, Note Name: C5
Note ON: Time 69000, Note Name: C#5, Velocity: 44
Note OFF: Time 69120, Note Name: C#5
Note ON: Time 69120, Note Name: G5, Velocity: 58
Note ON: Time 69120, Note Name: A#5, Velocity: 58
Note OFF: Time 69840, Note Name: A#5
Note OFF: Time 69840, Note Name: G5
Note ON: Time 72000, Note Name: B5, Velocity: 56
Note ON: Time 72000, Note Name: G#5, Velocity: 56
Note OFF: Time 72720, Note Name: G#5
Note OFF: Time 72720, Note Name: B5
Note ON: Time 74880, Note Name: E6, Velocity: 75
Note ON: Time 74880, Note Name: G#5, Velocity: 75
Note ON: Time 74880, Note Name: B5, Velocity: 75
Note OFF: Time 77760, Note Name: B5
Note OFF: Time 77760, Note Name: G#5
Note OFF: Time 77760, Note Name: E6
Note ON: Time 77760, Note Name: A#5, Velocity: 52
Note ON: Time 77760, Note Name: D#6, Velocity: 52
Note ON: Time 77760, Note Name: G5, Velocity: 52
Note OFF: Time 78240, Note Name: G5
Note OFF: Time 78240, Note Name: D#6
Note OFF: Time 78240, Note Name: A#5
Note ON: Time 79920, Note Name: G5, Velocity: 56
Note ON: Time 79920, Note Name: A#5, Velocity: 56
Note OFF: Time 80520, Note Name: A#5
Note OFF: Time 80520, Note Name: G5
Note ON: Time 80520, Note Name: A#5, Velocity: 52
Note ON: Time 80520, Note Name: G5, Velocity: 52
Note OFF: Time 80640, Note Name: G5
Note OFF: Time 80640, Note Name: A#5
Note ON: Time 80640, Note Name: B5, Velocity: 58
Note ON: Time 80640, Note Name: G#5, Velocity: 58
Note OFF: Time 81120, Note Name: G#5
Note OFF: Time 81120, Note Name: B5
Note ON: Time 81120, Note Name: G5, Velocity: 52
Note ON: Time 81120, Note Name: A#5, Velocity: 52
Note OFF: Time 81360, Note Name: A#5
Note OFF: Time 81360, Note Name: G5
Note ON: Time 81840, Note Name: A#4, Velocity: 50
Note ON: Time 81840, Note Name: G4, Velocity: 50
Note OFF: Time 82080, Note Name: G4
Note OFF: Time 82080, Note Name: A#4
Note ON: Time 82560, Note Name: A#3, Velocity: 49
Note ON: Time 82560, Note Name: G3, Velocity: 49
Note OFF: Time 82800, Note Name: G3
Note OFF: Time 82800, Note Name: A#3
Note ON: Time 83400, Note Name: G5, Velocity: 58
Note ON: Time 83400, Note Name: A#5, Velocity: 58
Note OFF: Time 83520, Note Name: A#5
Note OFF: Time 83520, Note Name: G5
Note ON: Time 83520, Note Name: C#6, Velocity: 61
Note ON: Time 83520, Note Name: A#5, Velocity: 61
Note OFF: Time 84000, Note Name: A#5
Note OFF: Time 84000, Note Name: C#6
Note ON: Time 84000, Note Name: B5, Velocity: 52
Note ON: Time 84000, Note Name: G#5, Velocity: 52
Note OFF: Time 84240, Note Name: G#5
Note OFF: Time 84240, Note Name: B5
Note ON: Time 84720, Note Name: B4, Velocity: 49
Note ON: Time 84720, Note Name: G#4, Velocity: 49
Note OFF: Time 84960, Note Name: G#4
Note OFF: Time 84960, Note Name: B4
Note ON: Time 85440, Note Name: B3, Velocity: 47
Note ON: Time 85440, Note Name: G#3, Velocity: 47
Note OFF: Time 85675, Note Name: G#3
Note OFF: Time 85675, Note Name: B3
Note ON: Time 86280, Note Name: G#5, Velocity: 52
Note ON: Time 86280, Note Name: B5, Velocity: 52
Note OFF: Time 86400, Note Name: B5
Note OFF: Time 86400, Note Name: G#5
Note ON: Time 86400, Note Name: G#5, Velocity: 75
Note ON: Time 86400, Note Name: E6, Velocity: 75
Note ON: Time 86400, Note Name: B5, Velocity: 75
Note OFF: Time 89280, Note Name: B5
Note OFF: Time 89280, Note Name: E6
Note OFF: Time 89280, Note Name: G#5
Note ON: Time 89280, Note Name: G5, Velocity: 61
Note ON: Time 89280, Note Name: D#6, Velocity: 61
Note ON: Time 89280, Note Name: A#5, Velocity: 61
Note OFF: Time 89760, Note Name: A#5
Note OFF: Time 89760, Note Name: D#6
Note OFF: Time 89760, Note Name: G5
Note ON: Time 90720, Note Name: D#5, Velocity: 52
Note ON: Time 90720, Note Name: F#4, Velocity: 52
Note ON: Time 90720, Note Name: A4, Velocity: 52
Note OFF: Time 92160, Note Name: A4
Note OFF: Time 92160, Note Name: F#4
Note OFF: Time 92160, Note Name: D#5
Note ON: Time 92160, Note Name: D5, Velocity: 52
Note ON: Time 92160, Note Name: F4, Velocity: 52
Note ON: Time 92160, Note Name: G#4, Velocity: 52
Note OFF: Time 92640, Note Name: G#4
Note OFF: Time 92640, Note Name: F4
Note OFF: Time 92640, Note Name: D5
Note ON: Time 93600, Note Name: C#5, Velocity: 46
Note ON: Time 93600, Note Name: E4, Velocity: 46
Note ON: Time 93600, Note Name: G4, Velocity: 46
Note OFF: Time 94080, Note Name: G4
Note OFF: Time 94080, Note Name: E4
Note OFF: Time 94080, Note Name: C#5
Note ON: Time 95040, Note Name: C#5, Velocity: 41
Note ON: Time 95040, Note Name: D#4, Velocity: 41
Note ON: Time 95040, Note Name: G4, Velocity: 41
Note OFF: Time 95760, Note Name: G4
Note OFF: Time 95760, Note Name: D#4
Note OFF: Time 95760, Note Name: C#5
Note ON: Time 102960, Note Name: C4, Velocity: 44
Note OFF: Time 103560, Note Name: C4
Note ON: Time 103560, Note Name: D#4, Velocity: 40
Note OFF: Time 103680, Note Name: D#4
Note ON: Time 103680, Note Name: G#3, Velocity: 38
Note ON: Time 103680, Note Name: G#4, Velocity: 41
Note OFF: Time 104400, Note Name: G#4
Note OFF: Time 104400, Note Name: G#3
Note ON: Time 104400, Note Name: C5, Velocity: 44
Note ON: Time 104400, Note Name: C4, Velocity: 40
Note OFF: Time 105000, Note Name: C4
Note OFF: Time 105000, Note Name: C5
Note ON: Time 105000, Note Name: G#3, Velocity: 36
Note ON: Time 105000, Note Name: G#4, Velocity: 39
Note OFF: Time 105120, Note Name: G#4
Note OFF: Time 105120, Note Name: G#3
Note ON: Time 105120, Note Name: G4, Velocity: 41
Note ON: Time 105120, Note Name: G3, Velocity: 38
Note OFF: Time 105840, Note Name: G3
Note OFF: Time 105840, Note Name: G4
Note ON: Time 105840, Note Name: A#3, Velocity: 40
Note ON: Time 105840, Note Name: A#4, Velocity: 44
Note OFF: Time 106440, Note Name: A#4
Note OFF: Time 106440, Note Name: A#3
Note ON: Time 106440, Note Name: G3, Velocity: 36
Note ON: Time 106440, Note Name: G4, Velocity: 39
Note OFF: Time 106560, Note Name: G4
Note OFF: Time 106560, Note Name: G3
Note ON: Time 106560, Note Name: G#4, Velocity: 41
Note ON: Time 106560, Note Name: G#3, Velocity: 38
Note OFF: Time 107280, Note Name: G#3
Note OFF: Time 107280, Note Name: G#4
Note ON: Time 107280, Note Name: D#4, Velocity: 40
Note OFF: Time 108720, Note Name: D#4
Note ON: Time 108720, Note Name: F4, Velocity: 44
Note OFF: Time 109320, Note Name: F4
Note ON: Time 109320, Note Name: C#4, Velocity: 40
Note OFF: Time 109440, Note Name: C#4
Note ON: Time 109440, Note Name: C4, Velocity: 44
Note OFF: Time 110160, Note Name: C4
Note ON: Time 110160, Note Name: D#4, Velocity: 44
Note OFF: Time 110760, Note Name: D#4
Note ON: Time 110760, Note Name: C4, Velocity: 39
Note OFF: Time 110880, Note Name: C4
Note ON: Time 110880, Note Name: A#3, Velocity: 44
Note OFF: Time 111600, Note Name: A#3
Note ON: Time 111600, Note Name: D#4, Velocity: 44
Note OFF: Time 112200, Note Name: D#4
Note ON: Time 112200, Note Name: C#4, Velocity: 39
Note OFF: Time 112320, Note Name: C#4
Note ON: Time 112320, Note Name: C4, Velocity: 42
Note OFF: Time 113040, Note Name: C4
Note ON: Time 113040, Note Name: D#4, Velocity: 42
Note OFF: Time 114480, Note Name: D#4
Note ON: Time 114480, Note Name: C5, Velocity: 55
Note OFF: Time 115080, Note Name: C5
Note ON: Time 115080, Note Name: D#5, Velocity: 53
Note OFF: Time 115200, Note Name: D#5
Note ON: Time 115200, Note Name: G#5, Velocity: 56
Note ON: Time 115200, Note Name: G#4, Velocity: 51
Note OFF: Time 115920, Note Name: G#4
Note OFF: Time 115920, Note Name: G#5
Note ON: Time 115920, Note Name: C5, Velocity: 57
Note ON: Time 115920, Note Name: C6, Velocity: 62
Note OFF: Time 116520, Note Name: C6
Note OFF: Time 116520, Note Name: C5
Note ON: Time 116520, Note Name: G#5, Velocity: 58
Note ON: Time 116520, Note Name: G#4, Velocity: 53
Note OFF: Time 116640, Note Name: G#4
Note OFF: Time 116640, Note Name: G#5
Note ON: Time 116640, Note Name: G4, Velocity: 57
Note ON: Time 116640, Note Name: G5, Velocity: 61
Note OFF: Time 117360, Note Name: G5
Note OFF: Time 117360, Note Name: G4
Note ON: Time 117360, Note Name: A#4, Velocity: 62
Note ON: Time 117360, Note Name: A#5, Velocity: 68
Note OFF: Time 117960, Note Name: A#5
Note OFF: Time 117960, Note Name: A#4
Note ON: Time 117960, Note Name: G5, Velocity: 63
Note ON: Time 117960, Note Name: G4, Velocity: 58
Note OFF: Time 118080, Note Name: G4
Note OFF: Time 118080, Note Name: G5
Note ON: Time 118080, Note Name: G#4, Velocity: 51
Note ON: Time 118080, Note Name: G#5, Velocity: 57
Note OFF: Time 118800, Note Name: G#5
Note OFF: Time 118800, Note Name: G#4
Note ON: Time 118800, Note Name: D#4, Velocity: 45
Note ON: Time 118800, Note Name: D#5, Velocity: 52
Note OFF: Time 120960, Note Name: D#5
Note OFF: Time 120960, Note Name: D#4
Note ON: Time 120960, Note Name: E5, Velocity: 85
Note ON: Time 120960, Note Name: E4, Velocity: 72
Note OFF: Time 121680, Note Name: E4
Note OFF: Time 121680, Note Name: E5
Note ON: Time 121680, Note Name: C#4, Velocity: 69
Note ON: Time 121680, Note Name: C#5, Velocity: 81
Note OFF: Time 123840, Note Name: C#5
Note OFF: Time 123840, Note Name: C#4
Note ON: Time 123840, Note Name: B4, Velocity: 58
Note OFF: Time 126000, Note Name: B4
Note ON: Time 126000, Note Name: A#4, Velocity: 51
Note OFF: Time 126480, Note Name: A#4
Note ON: Time 126480, Note Name: G#4, Velocity: 49
Note OFF: Time 126660, Note Name: G#4
Note ON: Time 126660, Note Name: A4, Velocity: 38
Note OFF: Time 126720, Note Name: A4
Note ON: Time 126720, Note Name: A#4, Velocity: 44
Note OFF: Time 126840, Note Name: A#4
Note ON: Time 126840, Note Name: B4, Velocity: 38
Note OFF: Time 126960, Note Name: B4
Note ON: Time 126960, Note Name: A#4, Velocity: 46
Note OFF: Time 127080, Note Name: A#4
Note ON: Time 127080, Note Name: B4, Velocity: 40
Note OFF: Time 127200, Note Name: B4
Note ON: Time 127200, Note Name: A#4, Velocity: 47
Note OFF: Time 127320, Note Name: A#4
Note ON: Time 127320, Note Name: B4, Velocity: 40
Note OFF: Time 127440, Note Name: B4
Note ON: Time 127440, Note Name: A#4, Velocity: 48
Note OFF: Time 127560, Note Name: A#4
Note ON: Time 127560, Note Name: B4, Velocity: 41
Note OFF: Time 127680, Note Name: B4
Note ON: Time 127680, Note Name: A#4, Velocity: 49
Note OFF: Time 127800, Note Name: A#4
Note ON: Time 127800, Note Name: B4, Velocity: 42
Note OFF: Time 127920, Note Name: B4
Note ON: Time 127920, Note Name: A#4, Velocity: 50
Note OFF: Time 128040, Note Name: A#4
Note ON: Time 128040, Note Name: B4, Velocity: 42
Note OFF: Time 128160, Note Name: B4
Note ON: Time 128160, Note Name: A#4, Velocity: 51
Note OFF: Time 128280, Note Name: A#4
Note ON: Time 128280, Note Name: B4, Velocity: 44
Note OFF: Time 128400, Note Name: B4
Note ON: Time 128400, Note Name: A#4, Velocity: 51
Note OFF: Time 128520, Note Name: A#4
Note ON: Time 128520, Note Name: B4, Velocity: 45
Note OFF: Time 128640, Note Name: B4
Note ON: Time 128640, Note Name: A#4, Velocity: 52
Note OFF: Time 128760, Note Name: A#4
Note ON: Time 128760, Note Name: B4, Velocity: 46
Note OFF: Time 128880, Note Name: B4
Note ON: Time 128880, Note Name: A#4, Velocity: 53
Note OFF: Time 129000, Note Name: A#4
Note ON: Time 129000, Note Name: B4, Velocity: 48
Note OFF: Time 129120, Note Name: B4
Note ON: Time 129120, Note Name: A#4, Velocity: 55
Note OFF: Time 129240, Note Name: A#4
Note ON: Time 129240, Note Name: B4, Velocity: 48
Note OFF: Time 129360, Note Name: B4
Note ON: Time 129360, Note Name: A#4, Velocity: 56
Note OFF: Time 129480, Note Name: A#4
Note ON: Time 129480, Note Name: B4, Velocity: 48
Note OFF: Time 129600, Note Name: B4
Note ON: Time 129600, Note Name: E5, Velocity: 46
Note OFF: Time 129720, Note Name: E5
Note ON: Time 129720, Note Name: D#5, Velocity: 39
Note OFF: Time 129840, Note Name: D#5
Note ON: Time 129840, Note Name: E5, Velocity: 46
Note OFF: Time 129960, Note Name: E5
Note ON: Time 129960, Note Name: D#5, Velocity: 40
Note OFF: Time 130080, Note Name: D#5
Note ON: Time 130080, Note Name: E5, Velocity: 48
Note OFF: Time 130200, Note Name: E5
Note ON: Time 130200, Note Name: D#5, Velocity: 41
Note OFF: Time 130320, Note Name: D#5
Note ON: Time 130320, Note Name: E5, Velocity: 50
Note OFF: Time 130440, Note Name: E5
Note ON: Time 130440, Note Name: D#5, Velocity: 44
Note OFF: Time 130560, Note Name: D#5
Note ON: Time 130560, Note Name: E5, Velocity: 51
Note OFF: Time 130680, Note Name: E5
Note ON: Time 130680, Note Name: D#5, Velocity: 45
Note OFF: Time 130800, Note Name: D#5
Note ON: Time 130800, Note Name: E5, Velocity: 53
Note OFF: Time 130920, Note Name: E5
Note ON: Time 130920, Note Name: D#5, Velocity: 47
Note OFF: Time 131040, Note Name: D#5
Note ON: Time 131040, Note Name: E5, Velocity: 56
Note OFF: Time 131160, Note Name: E5
Note ON: Time 131160, Note Name: D#5, Velocity: 48
Note OFF: Time 131280, Note Name: D#5
Note ON: Time 131280, Note Name: E5, Velocity: 56
Note OFF: Time 131400, Note Name: E5
Note ON: Time 131400, Note Name: D#5, Velocity: 47
Note OFF: Time 131520, Note Name: D#5
Note ON: Time 131520, Note Name: E5, Velocity: 56
Note OFF: Time 131640, Note Name: E5
Note ON: Time 131640, Note Name: D#5, Velocity: 48
Note OFF: Time 131760, Note Name: D#5
Note ON: Time 131760, Note Name: E5, Velocity: 56
Note OFF: Time 131880, Note Name: E5
Note ON: Time 131880, Note Name: D#5, Velocity: 49
Note OFF: Time 132000, Note Name: D#5
Note ON: Time 132000, Note Name: E5, Velocity: 56
Note OFF: Time 132120, Note Name: E5
Note ON: Time 132120, Note Name: D#5, Velocity: 49
Note OFF: Time 132240, Note Name: D#5
Note ON: Time 132240, Note Name: D5, Velocity: 56
Note OFF: Time 132360, Note Name: D5
Note ON: Time 132360, Note Name: D#5, Velocity: 48
Note OFF: Time 132480, Note Name: D#5
Note ON: Time 132480, Note Name: E6, Velocity: 55
Note OFF: Time 132600, Note Name: E6
Note ON: Time 132600, Note Name: D#6, Velocity: 46
Note OFF: Time 132720, Note Name: D#6
Note ON: Time 132720, Note Name: E6, Velocity: 55
Note OFF: Time 132840, Note Name: E6
Note ON: Time 132840, Note Name: D#6, Velocity: 48
Note OFF: Time 132960, Note Name: D#6
Note ON: Time 132960, Note Name: E6, Velocity: 57
Note OFF: Time 133080, Note Name: E6
Note ON: Time 133080, Note Name: D#6, Velocity: 50
Note OFF: Time 133200, Note Name: D#6
Note ON: Time 133200, Note Name: E6, Velocity: 60
Note OFF: Time 133320, Note Name: E6
Note ON: Time 133320, Note Name: D#6, Velocity: 51
Note OFF: Time 133440, Note Name: D#6
Note ON: Time 133440, Note Name: E6, Velocity: 62
Note OFF: Time 133560, Note Name: E6
Note ON: Time 133560, Note Name: D#6, Velocity: 52
Note OFF: Time 133680, Note Name: D#6
Note ON: Time 133680, Note Name: E6, Velocity: 63
Note OFF: Time 133800, Note Name: E6
Note ON: Time 133800, Note Name: D#6, Velocity: 55
Note OFF: Time 133920, Note Name: D#6
Note ON: Time 133920, Note Name: E6, Velocity: 67
Note OFF: Time 134040, Note Name: E6
Note ON: Time 134040, Note Name: D#6, Velocity: 56
Note OFF: Time 134160, Note Name: D#6
Note ON: Time 134160, Note Name: E6, Velocity: 68
Note OFF: Time 134280, Note Name: E6
Note ON: Time 134280, Note Name: D#6, Velocity: 57
Note OFF: Time 134400, Note Name: D#6
Note ON: Time 134400, Note Name: E6, Velocity: 67
Note OFF: Time 134520, Note Name: E6
Note ON: Time 134520, Note Name: D#6, Velocity: 56
Note OFF: Time 134640, Note Name: D#6
Note ON: Time 134640, Note Name: E6, Velocity: 67
Note OFF: Time 134760, Note Name: E6
Note ON: Time 134760, Note Name: D#6, Velocity: 58
Note OFF: Time 134880, Note Name: D#6
Note ON: Time 134880, Note Name: E6, Velocity: 67
Note OFF: Time 135000, Note Name: E6
Note ON: Time 135000, Note Name: D#6, Velocity: 58
Note OFF: Time 135120, Note Name: D#6
Note ON: Time 135120, Note Name: D6, Velocity: 67
Note OFF: Time 135240, Note Name: D6
Note ON: Time 135240, Note Name: D#6, Velocity: 56
Note OFF: Time 135360, Note Name: D#6
Note ON: Time 135360, Note Name: E6, Velocity: 64
Note OFF: Time 135600, Note Name: E6
Note ON: Time 135600, Note Name: D#6, Velocity: 55
Note OFF: Time 135840, Note Name: D#6
Note ON: Time 135840, Note Name: C#6, Velocity: 48
Note OFF: Time 136080, Note Name: C#6
Note ON: Time 136080, Note Name: B5, Velocity: 49
Note OFF: Time 136320, Note Name: B5
Note ON: Time 136320, Note Name: A#5, Velocity: 48
Note OFF: Time 136560, Note Name: A#5
Note ON: Time 136560, Note Name: G#5, Velocity: 48
Note OFF: Time 136800, Note Name: G#5
Note ON: Time 136800, Note Name: G5, Velocity: 49
Note OFF: Time 137040, Note Name: G5
Note ON: Time 137040, Note Name: F#5, Velocity: 47
Note OFF: Time 137280, Note Name: F#5
Note ON: Time 137280, Note Name: E5, Velocity: 47
Note OFF: Time 137520, Note Name: E5
Note ON: Time 137520, Note Name: D#5, Velocity: 48
Note OFF: Time 137760, Note Name: D#5
Note ON: Time 137760, Note Name: C#5, Velocity: 48
Note OFF: Time 138000, Note Name: C#5
Note ON: Time 138000, Note Name: B4, Velocity: 45
Note OFF: Time 138240, Note Name: B4
Note ON: Time 138240, Note Name: A#4, Velocity: 48
Note OFF: Time 138480, Note Name: A#4
Note ON: Time 138480, Note Name: G#4, Velocity: 44
Note OFF: Time 138720, Note Name: G#4
Note ON: Time 138720, Note Name: G4, Velocity: 44
Note OFF: Time 138960, Note Name: G4
Note ON: Time 138960, Note Name: F#4, Velocity: 45
Note OFF: Time 139200, Note Name: F#4
Note ON: Time 139200, Note Name: E4, Velocity: 45
Note OFF: Time 139440, Note Name: E4
Note ON: Time 139440, Note Name: D#4, Velocity: 45
Note OFF: Time 139680, Note Name: D#4
Note ON: Time 139680, Note Name: C#4, Velocity: 45
Note OFF: Time 139920, Note Name: C#4
Note ON: Time 146880, Note Name: G#3, Velocity: 83
Note OFF: Time 147000, Note Name: G#3
Note ON: Time 147000, Note Name: D#3, Velocity: 66
Note OFF: Time 147120, Note Name: D#3
Note ON: Time 147120, Note Name: B2, Velocity: 66
Note OFF: Time 147240, Note Name: B2
Note ON: Time 147240, Note Name: D#3, Velocity: 66
Note OFF: Time 147360, Note Name: D#3
Note ON: Time 147360, Note Name: G#3, Velocity: 80
Note OFF: Time 147480, Note Name: G#3
Note ON: Time 147480, Note Name: D#3, Velocity: 64
Note OFF: Time 147600, Note Name: D#3
Note ON: Time 147600, Note Name: B3, Velocity: 84
Note OFF: Time 147720, Note Name: B3
Note ON: Time 147720, Note Name: D#3, Velocity: 66
Note OFF: Time 147840, Note Name: D#3
Note ON: Time 147840, Note Name: A#3, Velocity: 83
Note OFF: Time 147960, Note Name: A#3
Note ON: Time 147960, Note Name: D#3, Velocity: 66
Note OFF: Time 148080, Note Name: D#3
Note ON: Time 148080, Note Name: G#3, Velocity: 81
Note OFF: Time 148200, Note Name: G#3
Note ON: Time 148200, Note Name: D#3, Velocity: 66
Note OFF: Time 148320, Note Name: D#3
Note ON: Time 148320, Note Name: G#3, Velocity: 83
Note OFF: Time 148440, Note Name: G#3
Note ON: Time 148440, Note Name: D#3, Velocity: 63
Note OFF: Time 148560, Note Name: D#3
Note ON: Time 148560, Note Name: B2, Velocity: 63
Note OFF: Time 148680, Note Name: B2
Note ON: Time 148680, Note Name: D#3, Velocity: 63
Note OFF: Time 148800, Note Name: D#3
Note ON: Time 148800, Note Name: G#3, Velocity: 79
Note OFF: Time 148920, Note Name: G#3
Note ON: Time 148920, Note Name: D#3, Velocity: 62
Note OFF: Time 149040, Note Name: D#3
Note ON: Time 149040, Note Name: B3, Velocity: 83
Note OFF: Time 149160, Note Name: B3
Note ON: Time 149160, Note Name: D#3, Velocity: 63
Note OFF: Time 149280, Note Name: D#3
Note ON: Time 149280, Note Name: A#3, Velocity: 80
Note OFF: Time 149400, Note Name: A#3
Note ON: Time 149400, Note Name: D#3, Velocity: 66
Note OFF: Time 149520, Note Name: D#3
Note ON: Time 149520, Note Name: G#3, Velocity: 80
Note OFF: Time 149640, Note Name: G#3
Note ON: Time 149640, Note Name: D#3, Velocity: 64
Note OFF: Time 149760, Note Name: D#3
Note ON: Time 149760, Note Name: E4, Velocity: 83
Note OFF: Time 149880, Note Name: E4
Note ON: Time 149880, Note Name: B3, Velocity: 66
Note OFF: Time 150000, Note Name: B3
Note ON: Time 150000, Note Name: G#3, Velocity: 66
Note OFF: Time 150120, Note Name: G#3
Note ON: Time 150120, Note Name: B3, Velocity: 66
Note OFF: Time 150240, Note Name: B3
Note ON: Time 150240, Note Name: E4, Velocity: 80
Note OFF: Time 150360, Note Name: E4
Note ON: Time 150360, Note Name: B3, Velocity: 64
Note OFF: Time 150480, Note Name: B3
Note ON: Time 150480, Note Name: G#4, Velocity: 84
Note OFF: Time 150600, Note Name: G#4
Note ON: Time 150600, Note Name: B3, Velocity: 66
Note OFF: Time 150720, Note Name: B3
Note ON: Time 150720, Note Name: F#4, Velocity: 83
Note OFF: Time 150840, Note Name: F#4
Note ON: Time 150840, Note Name: B3, Velocity: 66
Note OFF: Time 150960, Note Name: B3
Note ON: Time 150960, Note Name: E4, Velocity: 81
Note OFF: Time 151080, Note Name: E4
Note ON: Time 151080, Note Name: B3, Velocity: 66
Note OFF: Time 151200, Note Name: B3
Note ON: Time 151200, Note Name: E4, Velocity: 83
Note OFF: Time 151320, Note Name: E4
Note ON: Time 151320, Note Name: B3, Velocity: 63
Note OFF: Time 151440, Note Name: B3
Note ON: Time 151440, Note Name: G#3, Velocity: 63
Note OFF: Time 151560, Note Name: G#3
Note ON: Time 151560, Note Name: B3, Velocity: 63
Note OFF: Time 151680, Note Name: B3
Note ON: Time 151680, Note Name: E4, Velocity: 80
Note OFF: Time 151800, Note Name: E4
Note ON: Time 151800, Note Name: B3, Velocity: 62
Note OFF: Time 151920, Note Name: B3
Note ON: Time 151920, Note Name: G#4, Velocity: 83
Note OFF: Time 152040, Note Name: G#4
Note ON: Time 152040, Note Name: B3, Velocity: 63
Note OFF: Time 152160, Note Name: B3
Note ON: Time 152160, Note Name: F#4, Velocity: 80
Note OFF: Time 152280, Note Name: F#4
Note ON: Time 152280, Note Name: B3, Velocity: 66
Note OFF: Time 152400, Note Name: B3
Note ON: Time 152400, Note Name: E4, Velocity: 80
Note OFF: Time 152520, Note Name: E4
Note ON: Time 152520, Note Name: B3, Velocity: 64
Note OFF: Time 152640, Note Name: B3
Note ON: Time 152640, Note Name: C#5, Velocity: 92
Note OFF: Time 152760, Note Name: C#5
Note ON: Time 152760, Note Name: E5, Velocity: 67
Note OFF: Time 152880, Note Name: E5
Note ON: Time 152880, Note Name: C#5, Velocity: 77
Note OFF: Time 153000, Note Name: C#5
Note ON: Time 153000, Note Name: E5, Velocity: 67
Note OFF: Time 153120, Note Name: E5
Note ON: Time 153120, Note Name: C#5, Velocity: 74
Note OFF: Time 153240, Note Name: C#5
Note ON: Time 153240, Note Name: E5, Velocity: 67
Note OFF: Time 153360, Note Name: E5
Note ON: Time 153360, Note Name: C#5, Velocity: 73
Note OFF: Time 153480, Note Name: C#5
Note ON: Time 153480, Note Name: E5, Velocity: 67
Note OFF: Time 153600, Note Name: E5
Note ON: Time 153600, Note Name: C#5, Velocity: 73
Note OFF: Time 153720, Note Name: C#5
Note ON: Time 153720, Note Name: E5, Velocity: 67
Note OFF: Time 153840, Note Name: E5
Note ON: Time 153840, Note Name: C#5, Velocity: 73
Note OFF: Time 153960, Note Name: C#5
Note ON: Time 153960, Note Name: E5, Velocity: 67
Note OFF: Time 154080, Note Name: E5
Note ON: Time 154080, Note Name: C#5, Velocity: 73
Note OFF: Time 154200, Note Name: C#5
Note ON: Time 154200, Note Name: E5, Velocity: 67
Note OFF: Time 154320, Note Name: E5
Note ON: Time 154320, Note Name: C#5, Velocity: 73
Note OFF: Time 154440, Note Name: C#5
Note ON: Time 154440, Note Name: E5, Velocity: 67
Note OFF: Time 154560, Note Name: E5
Note ON: Time 154560, Note Name: C#5, Velocity: 72
Note OFF: Time 154680, Note Name: C#5
Note ON: Time 154680, Note Name: E5, Velocity: 67
Note OFF: Time 154800, Note Name: E5
Note ON: Time 154800, Note Name: C#5, Velocity: 95
Note OFF: Time 154920, Note Name: C#5
Note ON: Time 154920, Note Name: E5, Velocity: 78
Note OFF: Time 155040, Note Name: E5
Note ON: Time 155040, Note Name: A#4, Velocity: 89
Note OFF: Time 155160, Note Name: A#4
Note ON: Time 155160, Note Name: C#5, Velocity: 78
Note OFF: Time 155280, Note Name: C#5
Note ON: Time 155280, Note Name: G4, Velocity: 84
Note OFF: Time 155400, Note Name: G4
Note ON: Time 155400, Note Name: A#4, Velocity: 77
Note OFF: Time 155520, Note Name: A#4
Note ON: Time 155520, Note Name: E4, Velocity: 82
Note OFF: Time 155640, Note Name: E4
Note ON: Time 155640, Note Name: G4, Velocity: 70
Note OFF: Time 155760, Note Name: G4
Note ON: Time 155760, Note Name: C#4, Velocity: 81
Note OFF: Time 155880, Note Name: C#4
Note ON: Time 155880, Note Name: E4, Velocity: 71
Note OFF: Time 156000, Note Name: E4
Note ON: Time 156000, Note Name: A#3, Velocity: 82
Note OFF: Time 156120, Note Name: A#3
Note ON: Time 156120, Note Name: C#4, Velocity: 68
Note OFF: Time 156240, Note Name: C#4
Note ON: Time 156240, Note Name: G#3, Velocity: 81
Note OFF: Time 156360, Note Name: G#3
Note ON: Time 156360, Note Name: A#3, Velocity: 70
Note OFF: Time 156480, Note Name: A#3
Note ON: Time 156480, Note Name: C#4, Velocity: 80
Note OFF: Time 156600, Note Name: C#4
Note ON: Time 156600, Note Name: A#3, Velocity: 70
Note OFF: Time 156720, Note Name: A#3
Note ON: Time 156720, Note Name: G#3, Velocity: 80
Note OFF: Time 156840, Note Name: G#3
Note ON: Time 156840, Note Name: A#3, Velocity: 69
Note OFF: Time 156960, Note Name: A#3
Note ON: Time 157080, Note Name: G#3, Velocity: 70
Note OFF: Time 157200, Note Name: G#3
Note ON: Time 157200, Note Name: C#4, Velocity: 80
Note OFF: Time 157320, Note Name: C#4
Note ON: Time 157320, Note Name: A#3, Velocity: 69
Note OFF: Time 157440, Note Name: A#3
Note ON: Time 157440, Note Name: G#3, Velocity: 77
Note OFF: Time 157560, Note Name: G#3
Note ON: Time 157560, Note Name: C#4, Velocity: 70
Note OFF: Time 157680, Note Name: C#4
Note ON: Time 157800, Note Name: G3, Velocity: 69
Note OFF: Time 157920, Note Name: G3
Note ON: Time 157920, Note Name: C#4, Velocity: 80
Note OFF: Time 158040, Note Name: C#4
Note ON: Time 158040, Note Name: A#3, Velocity: 69
Note OFF: Time 158160, Note Name: A#3
Note ON: Time 158160, Note Name: G3, Velocity: 78
Note OFF: Time 158280, Note Name: G3
Note ON: Time 158280, Note Name: C#4, Velocity: 69
Note OFF: Time 158400, Note Name: C#4
Note ON: Time 158400, Note Name: G#4, Velocity: 83
Note OFF: Time 158520, Note Name: G#4
Note ON: Time 158520, Note Name: D#4, Velocity: 66
Note OFF: Time 158640, Note Name: D#4
Note ON: Time 158640, Note Name: B3, Velocity: 66
Note OFF: Time 158760, Note Name: B3
Note ON: Time 158760, Note Name: D#4, Velocity: 66
Note OFF: Time 158880, Note Name: D#4
Note ON: Time 158880, Note Name: G#4, Velocity: 80
Note OFF: Time 159000, Note Name: G#4
Note ON: Time 159000, Note Name: D#4, Velocity: 64
Note OFF: Time 159120, Note Name: D#4
Note ON: Time 159120, Note Name: B4, Velocity: 84
Note OFF: Time 159240, Note Name: B4
Note ON: Time 159240, Note Name: D#4, Velocity: 66
Note OFF: Time 159360, Note Name: D#4
Note ON: Time 159360, Note Name: A#4, Velocity: 83
Note OFF: Time 159480, Note Name: A#4
Note ON: Time 159480, Note Name: D#4, Velocity: 66
Note OFF: Time 159600, Note Name: D#4
Note ON: Time 159600, Note Name: G#4, Velocity: 81
Note OFF: Time 159720, Note Name: G#4
Note ON: Time 159720, Note Name: D#4, Velocity: 66
Note OFF: Time 159840, Note Name: D#4
Note ON: Time 159840, Note Name: G#4, Velocity: 83
Note OFF: Time 159960, Note Name: G#4
Note ON: Time 159960, Note Name: D#4, Velocity: 63
Note OFF: Time 160080, Note Name: D#4
Note ON: Time 160080, Note Name: B3, Velocity: 63
Note OFF: Time 160200, Note Name: B3
Note ON: Time 160200, Note Name: D#4, Velocity: 63
Note OFF: Time 160320, Note Name: D#4
Note ON: Time 160320, Note Name: G#4, Velocity: 80
Note OFF: Time 160440, Note Name: G#4
Note ON: Time 160440, Note Name: D#4, Velocity: 62
Note OFF: Time 160560, Note Name: D#4
Note ON: Time 160560, Note Name: B4, Velocity: 83
Note OFF: Time 160680, Note Name: B4
Note ON: Time 160680, Note Name: D#4, Velocity: 63
Note OFF: Time 160800, Note Name: D#4
Note ON: Time 160800, Note Name: A#4, Velocity: 80
Note OFF: Time 160920, Note Name: A#4
Note ON: Time 160920, Note Name: D#4, Velocity: 66
Note OFF: Time 161040, Note Name: D#4
Note ON: Time 161040, Note Name: G#4, Velocity: 80
Note OFF: Time 161160, Note Name: G#4
Note ON: Time 161160, Note Name: D#4, Velocity: 64
Note OFF: Time 161280, Note Name: D#4
Note ON: Time 161280, Note Name: E5, Velocity: 83
Note OFF: Time 161400, Note Name: E5
Note ON: Time 161400, Note Name: B4, Velocity: 66
Note OFF: Time 161520, Note Name: B4
Note ON: Time 161520, Note Name: G#4, Velocity: 66
Note OFF: Time 161640, Note Name: G#4
Note ON: Time 161640, Note Name: B4, Velocity: 66
Note OFF: Time 161760, Note Name: B4
Note ON: Time 161760, Note Name: E5, Velocity: 80
Note OFF: Time 161880, Note Name: E5
Note ON: Time 161880, Note Name: B4, Velocity: 64
Note OFF: Time 162000, Note Name: B4
Note ON: Time 162000, Note Name: G#5, Velocity: 84
Note OFF: Time 162120, Note Name: G#5
Note ON: Time 162120, Note Name: B4, Velocity: 66
Note OFF: Time 162240, Note Name: B4
Note ON: Time 162240, Note Name: F#5, Velocity: 83
Note OFF: Time 162360, Note Name: F#5
Note ON: Time 162360, Note Name: B4, Velocity: 66
Note OFF: Time 162480, Note Name: B4
Note ON: Time 162480, Note Name: E5, Velocity: 81
Note OFF: Time 162600, Note Name: E5
Note ON: Time 162600, Note Name: B4, Velocity: 66
Note OFF: Time 162720, Note Name: B4
Note ON: Time 162720, Note Name: E5, Velocity: 83
Note OFF: Time 162840, Note Name: E5
Note ON: Time 162840, Note Name: B4, Velocity: 63
Note OFF: Time 162960, Note Name: B4
Note ON: Time 162960, Note Name: G#4, Velocity: 63
Note OFF: Time 163080, Note Name: G#4
Note ON: Time 163080, Note Name: B4, Velocity: 63
Note OFF: Time 163200, Note Name: B4
Note ON: Time 163200, Note Name: E5, Velocity: 80
Note OFF: Time 163320, Note Name: E5
Note ON: Time 163320, Note Name: B4, Velocity: 62
Note OFF: Time 163440, Note Name: B4
Note ON: Time 163440, Note Name: G#5, Velocity: 83
Note OFF: Time 163560, Note Name: G#5
Note ON: Time 163560, Note Name: B4, Velocity: 63
Note OFF: Time 163680, Note Name: B4
Note ON: Time 163680, Note Name: F#5, Velocity: 80
Note OFF: Time 163800, Note Name: F#5
Note ON: Time 163800, Note Name: B4, Velocity: 66
Note OFF: Time 163920, Note Name: B4
Note ON: Time 163920, Note Name: E5, Velocity: 80
Note OFF: Time 164040, Note Name: E5
Note ON: Time 164040, Note Name: B4, Velocity: 64
Note OFF: Time 164160, Note Name: B4
Note ON: Time 164160, Note Name: C#6, Velocity: 94
Note OFF: Time 164280, Note Name: C#6
Note ON: Time 164280, Note Name: E6, Velocity: 77
Note OFF: Time 164400, Note Name: E6
Note ON: Time 164400, Note Name: C#6, Velocity: 78
Note OFF: Time 164520, Note Name: C#6
Note ON: Time 164520, Note Name: E6, Velocity: 69
Note OFF: Time 164640, Note Name: E6
Note ON: Time 164640, Note Name: C#6, Velocity: 75
Note OFF: Time 164760, Note Name: C#6
Note ON: Time 164760, Note Name: E6, Velocity: 69
Note OFF: Time 164880, Note Name: E6
Note ON: Time 164880, Note Name: C#6, Velocity: 75
Note OFF: Time 165000, Note Name: C#6
Note ON: Time 165000, Note Name: E6, Velocity: 69
Note OFF: Time 165120, Note Name: E6
Note ON: Time 165120, Note Name: C#6, Velocity: 74
Note OFF: Time 165240, Note Name: C#6
Note ON: Time 165240, Note Name: E6, Velocity: 69
Note OFF: Time 165360, Note Name: E6
Note ON: Time 165360, Note Name: C#6, Velocity: 71
Note OFF: Time 165480, Note Name: C#6
Note ON: Time 165480, Note Name: E6, Velocity: 69
Note OFF: Time 165600, Note Name: E6
Note ON: Time 165600, Note Name: C#6, Velocity: 71
Note OFF: Time 165720, Note Name: C#6
Note ON: Time 165720, Note Name: E6, Velocity: 69
Note OFF: Time 165840, Note Name: E6
Note ON: Time 165840, Note Name: C#6, Velocity: 71
Note OFF: Time 165960, Note Name: C#6
Note ON: Time 165960, Note Name: E6, Velocity: 69
Note OFF: Time 166080, Note Name: E6
Note ON: Time 166080, Note Name: C#6, Velocity: 73
Note OFF: Time 166200, Note Name: C#6
Note ON: Time 166200, Note Name: E6, Velocity: 69
Note OFF: Time 166320, Note Name: E6
Note ON: Time 166320, Note Name: C#6, Velocity: 76
Note OFF: Time 166440, Note Name: C#6
Note ON: Time 166440, Note Name: E6, Velocity: 69
Note OFF: Time 166560, Note Name: E6
Note ON: Time 166560, Note Name: C#6, Velocity: 77
Note OFF: Time 166680, Note Name: C#6
Note ON: Time 166680, Note Name: E6, Velocity: 69
Note OFF: Time 166800, Note Name: E6
Note ON: Time 166800, Note Name: C#6, Velocity: 77
Note OFF: Time 166920, Note Name: C#6
Note ON: Time 166920, Note Name: E6, Velocity: 69
Note OFF: Time 167040, Note Name: E6
Note ON: Time 167040, Note Name: C#6, Velocity: 82
Note OFF: Time 167160, Note Name: C#6
Note ON: Time 167160, Note Name: E6, Velocity: 70
Note OFF: Time 167280, Note Name: E6
Note ON: Time 167280, Note Name: A#5, Velocity: 81
Note OFF: Time 167400, Note Name: A#5
Note ON: Time 167400, Note Name: C#6, Velocity: 71
Note OFF: Time 167520, Note Name: C#6
Note ON: Time 167520, Note Name: G#5, Velocity: 82
Note OFF: Time 167640, Note Name: G#5
Note ON: Time 167640, Note Name: A#5, Velocity: 68
Note OFF: Time 167760, Note Name: A#5
Note ON: Time 167760, Note Name: G#5, Velocity: 81
Note OFF: Time 167880, Note Name: G#5
Note ON: Time 167880, Note Name: A#5, Velocity: 70
Note OFF: Time 168000, Note Name: A#5
Note ON: Time 168000, Note Name: C#6, Velocity: 80
Note OFF: Time 168120, Note Name: C#6
Note ON: Time 168120, Note Name: A#5, Velocity: 70
Note OFF: Time 168240, Note Name: A#5
Note ON: Time 168240, Note Name: G#5, Velocity: 80
Note OFF: Time 168360, Note Name: G#5
Note ON: Time 168360, Note Name: A#5, Velocity: 69
Note OFF: Time 168480, Note Name: A#5
Note ON: Time 168600, Note Name: G#5, Velocity: 72
Note OFF: Time 168720, Note Name: G#5
Note ON: Time 168720, Note Name: C#6, Velocity: 77
Note OFF: Time 168840, Note Name: C#6
Note ON: Time 168840, Note Name: A#5, Velocity: 70
Note OFF: Time 168960, Note Name: A#5
Note ON: Time 168960, Note Name: G#5, Velocity: 74
Note OFF: Time 169080, Note Name: G#5
Note ON: Time 169080, Note Name: C#6, Velocity: 69
Note OFF: Time 169200, Note Name: C#6
Note ON: Time 169320, Note Name: G5, Velocity: 67
Note OFF: Time 169440, Note Name: G5
Note ON: Time 169440, Note Name: C#6, Velocity: 71
Note OFF: Time 169560, Note Name: C#6
Note ON: Time 169560, Note Name: A#5, Velocity: 64
Note OFF: Time 169680, Note Name: A#5
Note ON: Time 169680, Note Name: G5, Velocity: 68
Note OFF: Time 169800, Note Name: G5
Note ON: Time 169800, Note Name: C#6, Velocity: 62
Note OFF: Time 169920, Note Name: C#6
Note ON: Time 170040, Note Name: E5, Velocity: 72
Note OFF: Time 170160, Note Name: E5
Note ON: Time 170160, Note Name: C#6, Velocity: 78
Note OFF: Time 170280, Note Name: C#6
Note ON: Time 170280, Note Name: A#5, Velocity: 70
Note OFF: Time 170400, Note Name: A#5
Note ON: Time 170400, Note Name: E5, Velocity: 77
Note OFF: Time 170520, Note Name: E5
Note ON: Time 170520, Note Name: C#6, Velocity: 69
Note OFF: Time 170640, Note Name: C#6
Note ON: Time 170760, Note Name: D#5, Velocity: 67
Note OFF: Time 170880, Note Name: D#5
Note ON: Time 170880, Note Name: C#6, Velocity: 74
Note OFF: Time 171000, Note Name: C#6
Note ON: Time 171000, Note Name: A#5, Velocity: 64
Note OFF: Time 171120, Note Name: A#5
Note ON: Time 171120, Note Name: D#5, Velocity: 70
Note OFF: Time 171240, Note Name: D#5
Note ON: Time 171240, Note Name: C#6, Velocity: 62
Note OFF: Time 171360, Note Name: C#6
Note ON: Time 171480, Note Name: G#5, Velocity: 72
Note OFF: Time 171600, Note Name: G#5
Note ON: Time 171600, Note Name: C#6, Velocity: 78
Note OFF: Time 171720, Note Name: C#6
Note ON: Time 171720, Note Name: A#5, Velocity: 70
Note OFF: Time 171840, Note Name: A#5
Note ON: Time 171840, Note Name: G#5, Velocity: 76
Note OFF: Time 171960, Note Name: G#5
Note ON: Time 171960, Note Name: C#6, Velocity: 69
Note OFF: Time 172080, Note Name: C#6
Note ON: Time 172200, Note Name: G5, Velocity: 67
Note OFF: Time 172320, Note Name: G5
Note ON: Time 172320, Note Name: C#6, Velocity: 73
Note OFF: Time 172440, Note Name: C#6
Note ON: Time 172440, Note Name: A#5, Velocity: 64
Note OFF: Time 172560, Note Name: A#5
Note ON: Time 172560, Note Name: G5, Velocity: 70
Note OFF: Time 172680, Note Name: G5
Note ON: Time 172680, Note Name: C#6, Velocity: 62
Note OFF: Time 172800, Note Name: C#6
Note ON: Time 173160, Note Name: B5, Velocity: 79
Note OFF: Time 173280, Note Name: B5
Note ON: Time 173280, Note Name: D6, Velocity: 83
Note OFF: Time 173400, Note Name: D6
Note ON: Time 173400, Note Name: F6, Velocity: 74
Note OFF: Time 173520, Note Name: F6
Note ON: Time 173520, Note Name: G#6, Velocity: 85
Note OFF: Time 173640, Note Name: G#6
Note ON: Time 173640, Note Name: F6, Velocity: 81
Note OFF: Time 173760, Note Name: F6
Note ON: Time 173760, Note Name: D6, Velocity: 86
Note OFF: Time 173880, Note Name: D6
Note ON: Time 173880, Note Name: B6, Velocity: 83
Note OFF: Time 174000, Note Name: B6
Note ON: Time 174000, Note Name: A#6, Velocity: 86
Note OFF: Time 174120, Note Name: A#6
Note ON: Time 174120, Note Name: G#6, Velocity: 78
Note OFF: Time 174240, Note Name: G#6
Note ON: Time 174240, Note Name: G6, Velocity: 83
Note OFF: Time 174360, Note Name: G6
Note ON: Time 174360, Note Name: A#6, Velocity: 81
Note OFF: Time 174480, Note Name: A#6
Note ON: Time 174480, Note Name: G#6, Velocity: 84
Note OFF: Time 174600, Note Name: G#6
Note ON: Time 174600, Note Name: G6, Velocity: 82
Note OFF: Time 174720, Note Name: G6
Note ON: Time 174720, Note Name: E6, Velocity: 81
Note OFF: Time 174840, Note Name: E6
Note ON: Time 174840, Note Name: D#6, Velocity: 74
Note OFF: Time 174960, Note Name: D#6
Note ON: Time 174960, Note Name: C#6, Velocity: 78
Note OFF: Time 175080, Note Name: C#6
Note ON: Time 175080, Note Name: E6, Velocity: 75
Note OFF: Time 175200, Note Name: E6
Note ON: Time 175200, Note Name: D#6, Velocity: 74
Note OFF: Time 175320, Note Name: D#6
Note ON: Time 175320, Note Name: C#6, Velocity: 72
Note OFF: Time 175440, Note Name: C#6
Note ON: Time 175440, Note Name: B5, Velocity: 71
Note OFF: Time 175560, Note Name: B5
Note ON: Time 175560, Note Name: A#5, Velocity: 66
Note OFF: Time 175680, Note Name: A#5
Note ON: Time 175800, Note Name: G#5, Velocity: 42
Note OFF: Time 175920, Note Name: G#5
Note ON: Time 175920, Note Name: B5, Velocity: 45
Note OFF: Time 176040, Note Name: B5
Note ON: Time 176040, Note Name: D#6, Velocity: 47
Note OFF: Time 176160, Note Name: D#6
Note ON: Time 176160, Note Name: G#6, Velocity: 49
Note OFF: Time 176280, Note Name: G#6
Note ON: Time 176280, Note Name: G#5, Velocity: 45
Note OFF: Time 176400, Note Name: G#5
Note ON: Time 176760, Note Name: G#6, Velocity: 49
Note OFF: Time 176880, Note Name: G#6
Note ON: Time 176880, Note Name: G#5, Velocity: 45
Note OFF: Time 177000, Note Name: G#5
Note ON: Time 177000, Note Name: G#6, Velocity: 49
Note OFF: Time 177120, Note Name: G#6
Note ON: Time 177480, Note Name: G#6, Velocity: 48
Note OFF: Time 177600, Note Name: G#6
Note ON: Time 177600, Note Name: G#5, Velocity: 45
Note OFF: Time 177720, Note Name: G#5
Note ON: Time 177720, Note Name: G#6, Velocity: 48
Note OFF: Time 177840, Note Name: G#6
Note ON: Time 178200, Note Name: G6, Velocity: 48
Note OFF: Time 178320, Note Name: G6
Note ON: Time 178320, Note Name: G5, Velocity: 45
Note OFF: Time 178440, Note Name: G5
Note ON: Time 178440, Note Name: G6, Velocity: 49
Note OFF: Time 178560, Note Name: G6
Note ON: Time 178680, Note Name: G#5, Velocity: 42
Note OFF: Time 178800, Note Name: G#5
Note ON: Time 178800, Note Name: B5, Velocity: 45
Note OFF: Time 178920, Note Name: B5
Note ON: Time 178920, Note Name: D#6, Velocity: 47
Note OFF: Time 179040, Note Name: D#6
Note ON: Time 179040, Note Name: G#6, Velocity: 49
Note OFF: Time 179160, Note Name: G#6
Note ON: Time 179160, Note Name: G#5, Velocity: 45
Note OFF: Time 179280, Note Name: G#5
Note ON: Time 179640, Note Name: G#5, Velocity: 49
Note OFF: Time 179760, Note Name: G#5
Note ON: Time 179760, Note Name: G#4, Velocity: 45
Note OFF: Time 179880, Note Name: G#4
Note ON: Time 179880, Note Name: G#5, Velocity: 49
Note OFF: Time 180000, Note Name: G#5
Note ON: Time 180360, Note Name: G#5, Velocity: 48
Note OFF: Time 180480, Note Name: G#5
Note ON: Time 180480, Note Name: G#4, Velocity: 45
Note OFF: Time 180600, Note Name: G#4
Note ON: Time 180600, Note Name: G#5, Velocity: 48
Note OFF: Time 180720, Note Name: G#5
Note ON: Time 181080, Note Name: G5, Velocity: 48
Note OFF: Time 181200, Note Name: G5
Note ON: Time 181200, Note Name: G4, Velocity: 45
Note OFF: Time 181320, Note Name: G4
Note ON: Time 181320, Note Name: G5, Velocity: 49
Note OFF: Time 181440, Note Name: G5
Note ON: Time 181560, Note Name: G#5, Velocity: 42
Note OFF: Time 181680, Note Name: G#5
Note ON: Time 181680, Note Name: B5, Velocity: 45
Note OFF: Time 181800, Note Name: B5
Note ON: Time 181800, Note Name: D#6, Velocity: 47
Note OFF: Time 181920, Note Name: D#6
Note ON: Time 181920, Note Name: G#6, Velocity: 49
Note OFF: Time 182040, Note Name: G#6
Note ON: Time 182040, Note Name: G#5, Velocity: 45
Note OFF: Time 182160, Note Name: G#5
Note ON: Time 182520, Note Name: G#6, Velocity: 49
Note OFF: Time 182640, Note Name: G#6
Note ON: Time 182640, Note Name: G#5, Velocity: 45
Note OFF: Time 182760, Note Name: G#5
Note ON: Time 182760, Note Name: G#6, Velocity: 49
Note OFF: Time 182880, Note Name: G#6
Note ON: Time 183240, Note Name: G#6, Velocity: 48
Note OFF: Time 183360, Note Name: G#6
Note ON: Time 183360, Note Name: G#5, Velocity: 45
Note OFF: Time 183480, Note Name: G#5
Note ON: Time 183480, Note Name: G#6, Velocity: 48
Note OFF: Time 183600, Note Name: G#6
Note ON: Time 183960, Note Name: G6, Velocity: 48
Note OFF: Time 184080, Note Name: G6
Note ON: Time 184080, Note Name: G5, Velocity: 45
Note OFF: Time 184200, Note Name: G5
Note ON: Time 184200, Note Name: G6, Velocity: 49
Note OFF: Time 184320, Note Name: G6
Note ON: Time 184320, Note Name: G#6, Velocity: 48
Note OFF: Time 184440, Note Name: G#6
Note ON: Time 184440, Note Name: D#6, Velocity: 45
Note OFF: Time 184560, Note Name: D#6
Note ON: Time 184560, Note Name: B5, Velocity: 44
Note OFF: Time 184680, Note Name: B5
Note ON: Time 184680, Note Name: D#6, Velocity: 39
Note OFF: Time 184800, Note Name: D#6
Note ON: Time 184800, Note Name: G#6, Velocity: 42
Note OFF: Time 184920, Note Name: G#6
Note ON: Time 184920, Note Name: D#6, Velocity: 39
Note OFF: Time 185040, Note Name: D#6
Note ON: Time 185040, Note Name: B5, Velocity: 46
Note OFF: Time 185160, Note Name: B5
Note ON: Time 185160, Note Name: D#6, Velocity: 41
Note OFF: Time 185280, Note Name: D#6
Note ON: Time 185280, Note Name: G#6, Velocity: 41
Note OFF: Time 185400, Note Name: G#6
Note ON: Time 185400, Note Name: D#6, Velocity: 37
Note OFF: Time 185520, Note Name: D#6
Note ON: Time 185520, Note Name: B5, Velocity: 40
Note OFF: Time 185640, Note Name: B5
Note ON: Time 185640, Note Name: D#6, Velocity: 36
Note OFF: Time 185760, Note Name: D#6
Note ON: Time 185760, Note Name: G#6, Velocity: 42
Note OFF: Time 185880, Note Name: G#6
Note ON: Time 185880, Note Name: D#6, Velocity: 39
Note OFF: Time 186000, Note Name: D#6
Note ON: Time 186000, Note Name: B5, Velocity: 39
Note OFF: Time 186120, Note Name: B5
Note ON: Time 186120, Note Name: D#6, Velocity: 35
Note OFF: Time 186240, Note Name: D#6
Note ON: Time 186240, Note Name: G#6, Velocity: 38
Note OFF: Time 186360, Note Name: G#6
Note ON: Time 186360, Note Name: D#6, Velocity: 34
Note OFF: Time 186480, Note Name: D#6
Note ON: Time 186480, Note Name: G#6, Velocity: 39
Note OFF: Time 186600, Note Name: G#6
Note ON: Time 186600, Note Name: D#6, Velocity: 35
Note OFF: Time 186720, Note Name: D#6
Note ON: Time 186720, Note Name: G#6, Velocity: 37
Note OFF: Time 186840, Note Name: G#6
Note ON: Time 186840, Note Name: D#6, Velocity: 31
Note OFF: Time 186960, Note Name: D#6
Note ON: Time 186960, Note Name: G#6, Velocity: 36
Note OFF: Time 187080, Note Name: G#6
Note ON: Time 187080, Note Name: D#6, Velocity: 30
Note OFF: Time 187200, Note Name: D#6
Note ON: Time 187200, Note Name: G#6, Velocity: 33
Note OFF: Time 189360, Note Name: G#6
Note ON: Time 189360, Note Name: B3, Velocity: 35
Note OFF: Time 189960, Note Name: B3
Note ON: Time 189960, Note Name: G#3, Velocity: 31
Note OFF: Time 190080, Note Name: G#3
Note ON: Time 190080, Note Name: D#3, Velocity: 28
Note OFF: Time 192240, Note Name: D#3
Note ON: Time 192240, Note Name: B3, Velocity: 35
Note OFF: Time 192840, Note Name: B3
Note ON: Time 192840, Note Name: G#3, Velocity: 31
Note OFF: Time 192960, Note Name: G#3
Note ON: Time 192960, Note Name: E3, Velocity: 28
Note OFF: Time 195120, Note Name: E3
Note ON: Time 195120, Note Name: G#3, Velocity: 35
Note OFF: Time 195720, Note Name: G#3
Note ON: Time 195720, Note Name: B3, Velocity: 30
Note OFF: Time 195840, Note Name: B3
Note ON: Time 195840, Note Name: E4, Velocity: 35
Note OFF: Time 196560, Note Name: E4
Note ON: Time 196560, Note Name: G#4, Velocity: 36
Note OFF: Time 197160, Note Name: G#4
Note ON: Time 197160, Note Name: B4, Velocity: 31
Note OFF: Time 197280, Note Name: B4
Note ON: Time 197280, Note Name: E5, Velocity: 36
Note OFF: Time 197995, Note Name: E5
Note ON: Time 198000, Note Name: E4, Velocity: 34
Note OFF: Time 198720, Note Name: E4
Note ON: Time 198720, Note Name: B4, Velocity: 35
Note OFF: Time 199920, Note Name: B4
Note ON: Time 199920, Note Name: C#5, Velocity: 33
Note OFF: Time 200100, Note Name: C#5
Note ON: Time 200100, Note Name: B4, Velocity: 34
Note OFF: Time 200160, Note Name: B4
Note ON: Time 200160, Note Name: C#5, Velocity: 31
Note OFF: Time 200240, Note Name: C#5
Note ON: Time 200240, Note Name: D#5, Velocity: 27
Note OFF: Time 200320, Note Name: D#5
Note ON: Time 200320, Note Name: C#5, Velocity: 31
Note OFF: Time 200400, Note Name: C#5
Note ON: Time 200400, Note Name: D#5, Velocity: 27
Note OFF: Time 200480, Note Name: D#5
Note ON: Time 200480, Note Name: C#5, Velocity: 31
Note OFF: Time 200560, Note Name: C#5
Note ON: Time 200560, Note Name: D#5, Velocity: 28
Note OFF: Time 200640, Note Name: D#5
Note ON: Time 200640, Note Name: C#5, Velocity: 31
Note OFF: Time 200720, Note Name: C#5
Note ON: Time 200720, Note Name: D#5, Velocity: 27
Note OFF: Time 200800, Note Name: D#5
Note ON: Time 200800, Note Name: C#5, Velocity: 31
Note OFF: Time 200880, Note Name: C#5
Note ON: Time 200880, Note Name: D#5, Velocity: 28
Note OFF: Time 200960, Note Name: D#5
Note ON: Time 200960, Note Name: C#5, Velocity: 26
Note OFF: Time 201040, Note Name: C#5
Note ON: Time 201040, Note Name: D#5, Velocity: 31
Note OFF: Time 201120, Note Name: D#5
Note ON: Time 201120, Note Name: C#5, Velocity: 26
Note OFF: Time 201240, Note Name: C#5
Note ON: Time 201240, Note Name: B4, Velocity: 30
Note OFF: Time 201360, Note Name: B4
Note ON: Time 201360, Note Name: D#5, Velocity: 35
Note OFF: Time 201480, Note Name: D#5
Note ON: Time 201480, Note Name: C#5, Velocity: 31
Note OFF: Time 201600, Note Name: C#5
Note ON: Time 201600, Note Name: B4, Velocity: 35
Note OFF: Time 202080, Note Name: B4
Note ON: Time 204480, Note Name: F#5, Velocity: 35
Note OFF: Time 205680, Note Name: F#5
Note ON: Time 205680, Note Name: G#5, Velocity: 35
Note OFF: Time 205920, Note Name: G#5
Note ON: Time 205920, Note Name: F5, Velocity: 35
Note ON: Time 205920, Note Name: G#5, Velocity: 44
Note OFF: Time 206000, Note Name: G#5
Note ON: Time 206000, Note Name: A5, Velocity: 35
Note OFF: Time 206080, Note Name: A5
Note ON: Time 206080, Note Name: G#5, Velocity: 40
Note OFF: Time 206160, Note Name: G#5
Note ON: Time 206160, Note Name: A5, Velocity: 36
Note OFF: Time 206240, Note Name: A5
Note ON: Time 206240, Note Name: G#5, Velocity: 39
Note OFF: Time 206320, Note Name: G#5
Note ON: Time 206320, Note Name: A5, Velocity: 36
Note OFF: Time 206400, Note Name: A5
Note ON: Time 206400, Note Name: G#5, Velocity: 38
Note OFF: Time 206480, Note Name: G#5
Note ON: Time 206480, Note Name: A5, Velocity: 34
Note OFF: Time 206560, Note Name: A5
Note ON: Time 206560, Note Name: G#5, Velocity: 37
Note OFF: Time 206640, Note Name: G#5
Note ON: Time 206640, Note Name: A5, Velocity: 35
Note OFF: Time 206720, Note Name: A5
Note ON: Time 206720, Note Name: G#5, Velocity: 31
Note OFF: Time 206800, Note Name: G#5
Note ON: Time 206800, Note Name: A5, Velocity: 36
Note OFF: Time 206880, Note Name: A5
Note ON: Time 206880, Note Name: G#5, Velocity: 33
Note OFF: Time 207000, Note Name: G#5
Note ON: Time 207000, Note Name: F#5, Velocity: 33
Note OFF: Time 207120, Note Name: F#5
Note ON: Time 207120, Note Name: A5, Velocity: 37
Note OFF: Time 207240, Note Name: A5
Note ON: Time 207240, Note Name: G#5, Velocity: 33
Note OFF: Time 207360, Note Name: G#5
Note OFF: Time 207360, Note Name: F5
Note ON: Time 207360, Note Name: F#5, Velocity: 35
Note OFF: Time 207840, Note Name: F#5
Note ON: Time 210240, Note Name: E4, Velocity: 35
Note OFF: Time 211440, Note Name: E4
Note ON: Time 211440, Note Name: F#4, Velocity: 35
Note OFF: Time 211680, Note Name: F#4
Note ON: Time 211680, Note Name: D#4, Velocity: 35
Note ON: Time 211680, Note Name: F#4, Velocity: 44
Note OFF: Time 211760, Note Name: F#4
Note ON: Time 211760, Note Name: G#4, Velocity: 35
Note OFF: Time 211840, Note Name: G#4
Note ON: Time 211840, Note Name: F#4, Velocity: 40
Note OFF: Time 211920, Note Name: F#4
Note ON: Time 211920, Note Name: G#4, Velocity: 36
Note OFF: Time 212000, Note Name: G#4
Note ON: Time 212000, Note Name: F#4, Velocity: 39
Note OFF: Time 212080, Note Name: F#4
Note ON: Time 212080, Note Name: G#4, Velocity: 36
Note OFF: Time 212160, Note Name: G#4
Note ON: Time 212160, Note Name: F#4, Velocity: 39
Note OFF: Time 212240, Note Name: F#4
Note ON: Time 212240, Note Name: G#4, Velocity: 35
Note OFF: Time 212320, Note Name: G#4
Note ON: Time 212320, Note Name: F#4, Velocity: 39
Note OFF: Time 212400, Note Name: F#4
Note ON: Time 212400, Note Name: G#4, Velocity: 35
Note OFF: Time 212480, Note Name: G#4
Note ON: Time 212480, Note Name: F#4, Velocity: 31
Note OFF: Time 212560, Note Name: F#4
Note ON: Time 212560, Note Name: G#4, Velocity: 36
Note OFF: Time 212640, Note Name: G#4
Note ON: Time 212640, Note Name: F#4, Velocity: 33
Note OFF: Time 212760, Note Name: F#4
Note ON: Time 212760, Note Name: E4, Velocity: 33
Note OFF: Time 212880, Note Name: E4
Note ON: Time 212880, Note Name: G#4, Velocity: 37
Note OFF: Time 213000, Note Name: G#4
Note ON: Time 213000, Note Name: F#4, Velocity: 33
Note OFF: Time 213120, Note Name: F#4
Note OFF: Time 213120, Note Name: D#4
Note ON: Time 213120, Note Name: E4, Velocity: 35
Note OFF: Time 213840, Note Name: E4
Note ON: Time 213840, Note Name: A3, Velocity: 45
Note ON: Time 213840, Note Name: C#4, Velocity: 45
Note ON: Time 213840, Note Name: A4, Velocity: 53
Note OFF: Time 215280, Note Name: A4
Note OFF: Time 215280, Note Name: C#4
Note OFF: Time 215280, Note Name: A3
Note ON: Time 215280, Note Name: A3, Velocity: 36
Note ON: Time 215280, Note Name: C#4, Velocity: 36
Note ON: Time 215280, Note Name: F#4, Velocity: 44
Note OFF: Time 215880, Note Name: F#4
Note ON: Time 215880, Note Name: G#4, Velocity: 39
Note OFF: Time 216000, Note Name: G#4
Note OFF: Time 216000, Note Name: C#4
Note OFF: Time 216000, Note Name: A3
Note ON: Time 216000, Note Name: E4, Velocity: 42
Note ON: Time 216000, Note Name: G#3, Velocity: 35
Note ON: Time 216000, Note Name: B3, Velocity: 35
Note OFF: Time 217440, Note Name: B3
Note OFF: Time 217440, Note Name: G#3
Note OFF: Time 217440, Note Name: E4
Note ON: Time 217440, Note Name: D#4, Velocity: 36
Note ON: Time 217440, Note Name: A3, Velocity: 30
Note ON: Time 217440, Note Name: F#3, Velocity: 30
Note OFF: Time 218880, Note Name: F#3
Note OFF: Time 218880, Note Name: A3
Note OFF: Time 218880, Note Name: D#4
Note ON: Time 218880, Note Name: E5, Velocity: 35
Note OFF: Time 220080, Note Name: E5
Note ON: Time 220080, Note Name: F#5, Velocity: 35
Note OFF: Time 220320, Note Name: F#5
Note ON: Time 220320, Note Name: F#5, Velocity: 36
Note ON: Time 220320, Note Name: D#5, Velocity: 29
Note OFF: Time 220400, Note Name: F#5
Note ON: Time 220400, Note Name: G#5, Velocity: 33
Note OFF: Time 220480, Note Name: G#5
Note ON: Time 220480, Note Name: F#5, Velocity: 36
Note OFF: Time 220560, Note Name: F#5
Note ON: Time 220560, Note Name: G#5, Velocity: 34
Note OFF: Time 220640, Note Name: G#5
Note ON: Time 220640, Note Name: F#5, Velocity: 36
Note OFF: Time 220720, Note Name: F#5
Note ON: Time 220720, Note Name: G#5, Velocity: 34
Note OFF: Time 220800, Note Name: G#5
Note ON: Time 220800, Note Name: F#5, Velocity: 36
Note OFF: Time 220880, Note Name: F#5
Note ON: Time 220880, Note Name: G#5, Velocity: 32
Note OFF: Time 220960, Note Name: G#5
Note ON: Time 220960, Note Name: F#5, Velocity: 36
Note OFF: Time 221040, Note Name: F#5
Note ON: Time 221040, Note Name: G#5, Velocity: 33
Note OFF: Time 221120, Note Name: G#5
Note ON: Time 221120, Note Name: F#5, Velocity: 30
Note OFF: Time 221200, Note Name: F#5
Note ON: Time 221200, Note Name: G#5, Velocity: 34
Note OFF: Time 221280, Note Name: G#5
Note ON: Time 221280, Note Name: F#5, Velocity: 31
Note OFF: Time 221400, Note Name: F#5
Note ON: Time 221400, Note Name: E5, Velocity: 33
Note OFF: Time 221520, Note Name: E5
Note ON: Time 221520, Note Name: G#5, Velocity: 37
Note OFF: Time 221640, Note Name: G#5
Note ON: Time 221640, Note Name: F#5, Velocity: 33
Note OFF: Time 221760, Note Name: F#5
Note OFF: Time 221760, Note Name: D#5
Note ON: Time 221760, Note Name: E5, Velocity: 35
Note OFF: Time 222480, Note Name: E5
Note ON: Time 222480, Note Name: A4, Velocity: 45
Note ON: Time 222480, Note Name: C#5, Velocity: 45
Note ON: Time 222480, Note Name: A5, Velocity: 53
Note OFF: Time 223920, Note Name: A5
Note OFF: Time 223920, Note Name: C#5
Note OFF: Time 223920, Note Name: A4
Note ON: Time 223920, Note Name: A4, Velocity: 36
Note ON: Time 223920, Note Name: C#5, Velocity: 36
Note ON: Time 223920, Note Name: F#5, Velocity: 44
Note OFF: Time 224520, Note Name: F#5
Note ON: Time 224520, Note Name: G#5, Velocity: 39
Note OFF: Time 224640, Note Name: G#5
Note OFF: Time 224640, Note Name: C#5
Note OFF: Time 224640, Note Name: A4
Note ON: Time 224640, Note Name: G#4, Velocity: 35
Note ON: Time 224640, Note Name: E5, Velocity: 42
Note ON: Time 224640, Note Name: B4, Velocity: 35
Note OFF: Time 226080, Note Name: B4
Note OFF: Time 226080, Note Name: E5
Note OFF: Time 226080, Note Name: G#4
Note ON: Time 226080, Note Name: D#5, Velocity: 36
Note ON: Time 226080, Note Name: A4, Velocity: 30
Note ON: Time 226080, Note Name: F#4, Velocity: 30
Note OFF: Time 226560, Note Name: F#4
Note OFF: Time 226560, Note Name: A4
Note OFF: Time 226560, Note Name: D#5
Note ON: Time 227520, Note Name: B4, Velocity: 70
Note OFF: Time 227640, Note Name: B4
Note ON: Time 227640, Note Name: G4, Velocity: 61
Note OFF: Time 227760, Note Name: G4
Note ON: Time 227760, Note Name: B4, Velocity: 70
Note OFF: Time 227880, Note Name: B4
Note ON: Time 227880, Note Name: G4, Velocity: 60
Note OFF: Time 228000, Note Name: G4
Note ON: Time 228000, Note Name: B4, Velocity: 70
Note OFF: Time 228120, Note Name: B4
Note ON: Time 228120, Note Name: G4, Velocity: 61
Note OFF: Time 228240, Note Name: G4
Note ON: Time 228240, Note Name: B4, Velocity: 70
Note OFF: Time 228360, Note Name: B4
Note ON: Time 228360, Note Name: G4, Velocity: 60
Note OFF: Time 228480, Note Name: G4
Note ON: Time 228480, Note Name: B4, Velocity: 70
Note OFF: Time 228600, Note Name: B4
Note ON: Time 228600, Note Name: G4, Velocity: 60
Note OFF: Time 228720, Note Name: G4
Note ON: Time 228720, Note Name: B4, Velocity: 70
Note OFF: Time 228840, Note Name: B4
Note ON: Time 228840, Note Name: G4, Velocity: 59
Note OFF: Time 228960, Note Name: G4
Note ON: Time 228960, Note Name: B4, Velocity: 70
Note OFF: Time 229080, Note Name: B4
Note ON: Time 229080, Note Name: G4, Velocity: 61
Note OFF: Time 229200, Note Name: G4
Note ON: Time 229200, Note Name: B4, Velocity: 70
Note OFF: Time 229320, Note Name: B4
Note ON: Time 229320, Note Name: G4, Velocity: 60
Note OFF: Time 229440, Note Name: G4
Note ON: Time 229440, Note Name: B4, Velocity: 70
Note OFF: Time 229560, Note Name: B4
Note ON: Time 229560, Note Name: G4, Velocity: 61
Note OFF: Time 229680, Note Name: G4
Note ON: Time 229680, Note Name: B4, Velocity: 70
Note OFF: Time 229800, Note Name: B4
Note ON: Time 229800, Note Name: G4, Velocity: 60
Note OFF: Time 229920, Note Name: G4
Note ON: Time 229920, Note Name: B4, Velocity: 70
Note OFF: Time 230040, Note Name: B4
Note ON: Time 230040, Note Name: G4, Velocity: 60
Note OFF: Time 230160, Note Name: G4
Note ON: Time 230160, Note Name: B4, Velocity: 70
Note OFF: Time 230280, Note Name: B4
Note ON: Time 230280, Note Name: G4, Velocity: 59
Note OFF: Time 230400, Note Name: G4
Note ON: Time 230400, Note Name: B4, Velocity: 70
Note OFF: Time 230520, Note Name: B4
Note ON: Time 230520, Note Name: G4, Velocity: 61
Note OFF: Time 230640, Note Name: G4
Note ON: Time 230640, Note Name: B4, Velocity: 70
Note OFF: Time 230760, Note Name: B4
Note ON: Time 230760, Note Name: G4, Velocity: 60
Note OFF: Time 230880, Note Name: G4
Note ON: Time 230880, Note Name: B4, Velocity: 70
Note OFF: Time 231000, Note Name: B4
Note ON: Time 231000, Note Name: G4, Velocity: 61
Note OFF: Time 231120, Note Name: G4
Note ON: Time 231120, Note Name: B4, Velocity: 70
Note OFF: Time 231240, Note Name: B4
Note ON: Time 231240, Note Name: G4, Velocity: 60
Note OFF: Time 231360, Note Name: G4
Note ON: Time 231360, Note Name: B4, Velocity: 70
Note OFF: Time 231480, Note Name: B4
Note ON: Time 231480, Note Name: G4, Velocity: 60
Note OFF: Time 231600, Note Name: G4
Note ON: Time 231600, Note Name: B4, Velocity: 70
Note OFF: Time 231720, Note Name: B4
Note ON: Time 231720, Note Name: G4, Velocity: 59
Note OFF: Time 231840, Note Name: G4
Note ON: Time 231840, Note Name: B4, Velocity: 70
Note OFF: Time 231960, Note Name: B4
Note ON: Time 231960, Note Name: G4, Velocity: 61
Note OFF: Time 232080, Note Name: G4
Note ON: Time 232080, Note Name: B4, Velocity: 70
Note OFF: Time 232200, Note Name: B4
Note ON: Time 232200, Note Name: G4, Velocity: 60
Note OFF: Time 232320, Note Name: G4
Note ON: Time 232320, Note Name: B4, Velocity: 70
Note OFF: Time 232440, Note Name: B4
Note ON: Time 232440, Note Name: G4, Velocity: 61
Note OFF: Time 232560, Note Name: G4
Note ON: Time 232560, Note Name: B4, Velocity: 70
Note OFF: Time 232680, Note Name: B4
Note ON: Time 232680, Note Name: G4, Velocity: 60
Note OFF: Time 232800, Note Name: G4
Note ON: Time 232800, Note Name: B4, Velocity: 70
Note OFF: Time 232920, Note Name: B4
Note ON: Time 232920, Note Name: G4, Velocity: 60
Note OFF: Time 233040, Note Name: G4
Note ON: Time 233040, Note Name: B4, Velocity: 70
Note OFF: Time 233160, Note Name: B4
Note ON: Time 233160, Note Name: G4, Velocity: 59
Note OFF: Time 233280, Note Name: G4
Note ON: Time 233280, Note Name: F4, Velocity: 83
Note OFF: Time 233424, Note Name: F4
Note ON: Time 233424, Note Name: G4, Velocity: 67
Note OFF: Time 233568, Note Name: G4
Note ON: Time 233568, Note Name: B4, Velocity: 70
Note OFF: Time 233712, Note Name: B4
Note ON: Time 233712, Note Name: G4, Velocity: 68
Note OFF: Time 233856, Note Name: G4
Note ON: Time 233856, Note Name: F4, Velocity: 68
Note OFF: Time 234000, Note Name: F4
Note ON: Time 234000, Note Name: D4, Velocity: 81
Note OFF: Time 234144, Note Name: D4
Note ON: Time 234144, Note Name: F4, Velocity: 67
Note OFF: Time 234288, Note Name: F4
Note ON: Time 234288, Note Name: G4, Velocity: 70
Note OFF: Time 234432, Note Name: G4
Note ON: Time 234432, Note Name: F4, Velocity: 68
Note OFF: Time 234576, Note Name: F4
Note ON: Time 234576, Note Name: D4, Velocity: 68
Note OFF: Time 234720, Note Name: D4
Note ON: Time 234720, Note Name: B3, Velocity: 77
Note OFF: Time 234864, Note Name: B3
Note ON: Time 234864, Note Name: D4, Velocity: 62
Note OFF: Time 235008, Note Name: D4
Note ON: Time 235008, Note Name: F4, Velocity: 67
Note OFF: Time 235152, Note Name: F4
Note ON: Time 235152, Note Name: D4, Velocity: 63
Note OFF: Time 235296, Note Name: D4
Note ON: Time 235296, Note Name: B3, Velocity: 63
Note OFF: Time 235440, Note Name: B3
Note ON: Time 235440, Note Name: B4, Velocity: 89
Note OFF: Time 236040, Note Name: B4
Note ON: Time 236040, Note Name: D5, Velocity: 80
Note OFF: Time 236160, Note Name: D5
Note ON: Time 236160, Note Name: G5, Velocity: 89
Note OFF: Time 236880, Note Name: G5
Note ON: Time 236880, Note Name: B5, Velocity: 91
Note OFF: Time 237480, Note Name: B5
Note ON: Time 237480, Note Name: D6, Velocity: 80
Note OFF: Time 237600, Note Name: D6
Note ON: Time 237600, Note Name: G5, Velocity: 82
Note ON: Time 237600, Note Name: G6, Velocity: 90
Note OFF: Time 238320, Note Name: G6
Note OFF: Time 238320, Note Name: G5
Note ON: Time 238320, Note Name: G6, Velocity: 86
Note ON: Time 238320, Note Name: G5, Velocity: 79
Note OFF: Time 239040, Note Name: G5
Note OFF: Time 239040, Note Name: G6
Note ON: Time 239040, Note Name: G5, Velocity: 91
Note ON: Time 239040, Note Name: G6, Velocity: 91
Note OFF: Time 239184, Note Name: G6
Note OFF: Time 239184, Note Name: G5
Note ON: Time 239184, Note Name: D#6, Velocity: 73
Note OFF: Time 239328, Note Name: D#6
Note ON: Time 239328, Note Name: G6, Velocity: 77
Note OFF: Time 239472, Note Name: G6
Note ON: Time 239472, Note Name: D#6, Velocity: 74
Note OFF: Time 239616, Note Name: D#6
Note ON: Time 239616, Note Name: C6, Velocity: 74
Note OFF: Time 239760, Note Name: C6
Note ON: Time 239760, Note Name: G5, Velocity: 91
Note OFF: Time 239904, Note Name: G5
Note ON: Time 239904, Note Name: C6, Velocity: 73
Note OFF: Time 240048, Note Name: C6
Note ON: Time 240048, Note Name: D#6, Velocity: 77
Note OFF: Time 240192, Note Name: D#6
Note ON: Time 240192, Note Name: C6, Velocity: 74
Note OFF: Time 240336, Note Name: C6
Note ON: Time 240336, Note Name: G5, Velocity: 74
Note OFF: Time 240480, Note Name: G5
Note ON: Time 240480, Note Name: D#5, Velocity: 91
Note OFF: Time 240624, Note Name: D#5
Note ON: Time 240624, Note Name: G5, Velocity: 73
Note OFF: Time 240768, Note Name: G5
Note ON: Time 240768, Note Name: C6, Velocity: 77
Note OFF: Time 240912, Note Name: C6
Note ON: Time 240912, Note Name: G5, Velocity: 74
Note OFF: Time 241056, Note Name: G5
Note ON: Time 241056, Note Name: D#5, Velocity: 74
Note OFF: Time 241200, Note Name: D#5
Note ON: Time 241200, Note Name: C5, Velocity: 91
Note OFF: Time 241344, Note Name: C5
Note ON: Time 241344, Note Name: D#5, Velocity: 73
Note OFF: Time 241488, Note Name: D#5
Note ON: Time 241488, Note Name: G5, Velocity: 77
Note OFF: Time 241632, Note Name: G5
Note ON: Time 241632, Note Name: D#5, Velocity: 74
Note OFF: Time 241776, Note Name: D#5
Note ON: Time 241776, Note Name: C5, Velocity: 74
Note OFF: Time 241920, Note Name: C5
Note ON: Time 241920, Note Name: G4, Velocity: 91
Note OFF: Time 242064, Note Name: G4
Note ON: Time 242064, Note Name: C5, Velocity: 73
Note OFF: Time 242208, Note Name: C5
Note ON: Time 242208, Note Name: D#5, Velocity: 77
Note OFF: Time 242352, Note Name: D#5
Note ON: Time 242352, Note Name: C5, Velocity: 74
Note OFF: Time 242496, Note Name: C5
Note ON: Time 242496, Note Name: G4, Velocity: 74
Note OFF: Time 242640, Note Name: G4
Note ON: Time 242640, Note Name: D#4, Velocity: 91
Note OFF: Time 242784, Note Name: D#4
Note ON: Time 242784, Note Name: G4, Velocity: 73
Note OFF: Time 242928, Note Name: G4
Note ON: Time 242928, Note Name: C5, Velocity: 77
Note OFF: Time 243072, Note Name: C5
Note ON: Time 243072, Note Name: G4, Velocity: 74
Note OFF: Time 243216, Note Name: G4
Note ON: Time 243216, Note Name: D#4, Velocity: 74
Note OFF: Time 243360, Note Name: D#4
Note ON: Time 243360, Note Name: D#4, Velocity: 91
Note OFF: Time 243504, Note Name: D#4
Note ON: Time 243504, Note Name: G4, Velocity: 73
Note OFF: Time 243648, Note Name: G4
Note ON: Time 243648, Note Name: C5, Velocity: 77
Note OFF: Time 243792, Note Name: C5
Note ON: Time 243792, Note Name: G4, Velocity: 74
Note OFF: Time 243936, Note Name: G4
Note ON: Time 243936, Note Name: D#4, Velocity: 74
Note OFF: Time 244080, Note Name: D#4
Note ON: Time 244080, Note Name: D#4, Velocity: 91
Note OFF: Time 244224, Note Name: D#4
Note ON: Time 244224, Note Name: G4, Velocity: 73
Note OFF: Time 244368, Note Name: G4
Note ON: Time 244368, Note Name: C5, Velocity: 77
Note OFF: Time 244512, Note Name: C5
Note ON: Time 244512, Note Name: G4, Velocity: 74
Note OFF: Time 244656, Note Name: G4
Note ON: Time 244656, Note Name: D#4, Velocity: 74
Note OFF: Time 244800, Note Name: D#4
Note ON: Time 244800, Note Name: C#4, Velocity: 83
Note OFF: Time 244944, Note Name: C#4
Note ON: Time 244944, Note Name: D#4, Velocity: 67
Note OFF: Time 245088, Note Name: D#4
Note ON: Time 245088, Note Name: G4, Velocity: 70
Note OFF: Time 245232, Note Name: G4
Note ON: Time 245232, Note Name: D#4, Velocity: 68
Note OFF: Time 245376, Note Name: D#4
Note ON: Time 245376, Note Name: C#4, Velocity: 68
Note OFF: Time 245520, Note Name: C#4
Note ON: Time 245520, Note Name: A#3, Velocity: 81
Note OFF: Time 245664, Note Name: A#3
Note ON: Time 245664, Note Name: C#4, Velocity: 67
Note OFF: Time 245808, Note Name: C#4
Note ON: Time 245808, Note Name: D#4, Velocity: 70
Note OFF: Time 245952, Note Name: D#4
Note ON: Time 245952, Note Name: C#4, Velocity: 68
Note OFF: Time 246096, Note Name: C#4
Note ON: Time 246096, Note Name: A#3, Velocity: 68
Note OFF: Time 246240, Note Name: A#3
Note ON: Time 246240, Note Name: G3, Velocity: 77
Note OFF: Time 246384, Note Name: G3
Note ON: Time 246384, Note Name: A#3, Velocity: 62
Note OFF: Time 246528, Note Name: A#3
Note ON: Time 246528, Note Name: C#4, Velocity: 67
Note OFF: Time 246672, Note Name: C#4
Note ON: Time 246672, Note Name: A#3, Velocity: 63
Note OFF: Time 246816, Note Name: A#3
Note ON: Time 246816, Note Name: G3, Velocity: 63
Note OFF: Time 246960, Note Name: G3
Note ON: Time 246960, Note Name: G4, Velocity: 89
Note OFF: Time 247560, Note Name: G4
Note ON: Time 247560, Note Name: A#4, Velocity: 80
Note OFF: Time 247680, Note Name: A#4
Note ON: Time 247680, Note Name: D#5, Velocity: 89
Note OFF: Time 248400, Note Name: D#5
Note ON: Time 248400, Note Name: G5, Velocity: 91
Note OFF: Time 249000, Note Name: G5
Note ON: Time 249000, Note Name: A#5, Velocity: 80
Note OFF: Time 249120, Note Name: A#5
Note ON: Time 249120, Note Name: D#5, Velocity: 82
Note ON: Time 249120, Note Name: D#6, Velocity: 90
Note OFF: Time 249840, Note Name: D#6
Note OFF: Time 249840, Note Name: D#5
Note ON: Time 249840, Note Name: D#5, Velocity: 79
Note ON: Time 249840, Note Name: D#6, Velocity: 86
Note OFF: Time 250560, Note Name: D#6
Note OFF: Time 250560, Note Name: D#5
Note ON: Time 250560, Note Name: D#6, Velocity: 100
Note OFF: Time 250704, Note Name: D#6
Note ON: Time 250704, Note Name: G#6, Velocity: 80
Note OFF: Time 250848, Note Name: G#6
Note ON: Time 250848, Note Name: C7, Velocity: 83
Note OFF: Time 250992, Note Name: C7
Note ON: Time 250992, Note Name: G#6, Velocity: 81
Note OFF: Time 251136, Note Name: G#6
Note ON: Time 251136, Note Name: D#6, Velocity: 80
Note OFF: Time 251280, Note Name: D#6
Note ON: Time 251280, Note Name: C6, Velocity: 97
Note OFF: Time 251424, Note Name: C6
Note ON: Time 251424, Note Name: D#6, Velocity: 78
Note OFF: Time 251568, Note Name: D#6
Note ON: Time 251568, Note Name: G#6, Velocity: 81
Note OFF: Time 251712, Note Name: G#6
Note ON: Time 251712, Note Name: D#6, Velocity: 79
Note OFF: Time 251856, Note Name: D#6
Note ON: Time 251856, Note Name: C6, Velocity: 75
Note OFF: Time 252000, Note Name: C6
Note ON: Time 252000, Note Name: G#5, Velocity: 95
Note OFF: Time 252144, Note Name: G#5
Note ON: Time 252144, Note Name: C6, Velocity: 77
Note OFF: Time 252288, Note Name: C6
Note ON: Time 252288, Note Name: D#6, Velocity: 79
Note OFF: Time 252432, Note Name: D#6
Note ON: Time 252432, Note Name: C6, Velocity: 77
Note OFF: Time 252576, Note Name: C6
Note ON: Time 252576, Note Name: G#5, Velocity: 77
Note OFF: Time 252720, Note Name: G#5
Note ON: Time 252720, Note Name: D#5, Velocity: 93
Note OFF: Time 252864, Note Name: D#5
Note ON: Time 252864, Note Name: G#5, Velocity: 74
Note OFF: Time 253008, Note Name: G#5
Note ON: Time 253008, Note Name: C6, Velocity: 78
Note OFF: Time 253152, Note Name: C6
Note ON: Time 253152, Note Name: G#5, Velocity: 74
Note OFF: Time 253296, Note Name: G#5
Note ON: Time 253296, Note Name: D#5, Velocity: 74
Note OFF: Time 253440, Note Name: D#5
Note ON: Time 253440, Note Name: C5, Velocity: 91
Note OFF: Time 253584, Note Name: C5
Note ON: Time 253584, Note Name: D#5, Velocity: 73
Note OFF: Time 253728, Note Name: D#5
Note ON: Time 253728, Note Name: G#5, Velocity: 77
Note OFF: Time 253872, Note Name: G#5
Note ON: Time 253872, Note Name: D#5, Velocity: 74
Note OFF: Time 254016, Note Name: D#5
Note ON: Time 254016, Note Name: C5, Velocity: 74
Note OFF: Time 254160, Note Name: C5
Note ON: Time 254160, Note Name: G#4, Velocity: 91
Note OFF: Time 254304, Note Name: G#4
Note ON: Time 254304, Note Name: C5, Velocity: 73
Note OFF: Time 254448, Note Name: C5
Note ON: Time 254448, Note Name: D#5, Velocity: 77
Note OFF: Time 254592, Note Name: D#5
Note ON: Time 254592, Note Name: C5, Velocity: 74
Note OFF: Time 254736, Note Name: C5
Note ON: Time 254736, Note Name: G#4, Velocity: 74
Note OFF: Time 254880, Note Name: G#4
Note ON: Time 254880, Note Name: D#4, Velocity: 91
Note OFF: Time 255024, Note Name: D#4
Note ON: Time 255024, Note Name: G#4, Velocity: 73
Note OFF: Time 255168, Note Name: G#4
Note ON: Time 255168, Note Name: C5, Velocity: 77
Note OFF: Time 255312, Note Name: C5
Note ON: Time 255312, Note Name: G#4, Velocity: 74
Note OFF: Time 255456, Note Name: G#4
Note ON: Time 255456, Note Name: D#4, Velocity: 74
Note OFF: Time 255600, Note Name: D#4
Note ON: Time 255600, Note Name: C4, Velocity: 91
Note OFF: Time 255744, Note Name: C4
Note ON: Time 255744, Note Name: D#4, Velocity: 73
Note OFF: Time 255888, Note Name: D#4
Note ON: Time 255888, Note Name: G#4, Velocity: 77
Note OFF: Time 256032, Note Name: G#4
Note ON: Time 256032, Note Name: D#4, Velocity: 74
Note OFF: Time 256176, Note Name: D#4
Note ON: Time 256176, Note Name: C4, Velocity: 74
Note OFF: Time 256320, Note Name: C4
Note ON: Time 256320, Note Name: F#4, Velocity: 83
Note OFF: Time 258480, Note Name: F#4
Note ON: Time 258480, Note Name: C5, Velocity: 89
Note OFF: Time 259080, Note Name: C5
Note ON: Time 259080, Note Name: D#5, Velocity: 85
Note OFF: Time 259200, Note Name: D#5
Note ON: Time 259200, Note Name: F#5, Velocity: 92
Note OFF: Time 259920, Note Name: F#5
Note ON: Time 259920, Note Name: C6, Velocity: 95
Note OFF: Time 260520, Note Name: C6
Note ON: Time 260520, Note Name: D#6, Velocity: 84
Note OFF: Time 260640, Note Name: D#6
Note ON: Time 260640, Note Name: F#6, Velocity: 96
Note OFF: Time 261360, Note Name: F#6
Note ON: Time 261360, Note Name: F#6, Velocity: 93
Note OFF: Time 262080, Note Name: F#6
Note ON: Time 262080, Note Name: F#6, Velocity: 105
Note OFF: Time 263040, Note Name: F#6
Note ON: Time 263040, Note Name: F#6, Velocity: 77
Note OFF: Time 263160, Note Name: F#6
Note ON: Time 263160, Note Name: D#6, Velocity: 76
Note OFF: Time 263280, Note Name: D#6
Note ON: Time 263280, Note Name: C6, Velocity: 75
Note OFF: Time 263400, Note Name: C6
Note ON: Time 263400, Note Name: F#5, Velocity: 75
Note OFF: Time 263520, Note Name: F#5
Note ON: Time 263520, Note Name: F#6, Velocity: 103
Note OFF: Time 264480, Note Name: F#6
Note ON: Time 264480, Note Name: F#5, Velocity: 77
Note OFF: Time 264600, Note Name: F#5
Note ON: Time 264600, Note Name: D#5, Velocity: 76
Note OFF: Time 264720, Note Name: D#5
Note ON: Time 264720, Note Name: C5, Velocity: 75
Note OFF: Time 264840, Note Name: C5
Note ON: Time 264840, Note Name: F#4, Velocity: 75
Note OFF: Time 264960, Note Name: F#4
Note ON: Time 264960, Note Name: F#5, Velocity: 94
Note OFF: Time 265920, Note Name: F#5
Note ON: Time 265920, Note Name: F#4, Velocity: 72
Note OFF: Time 266040, Note Name: F#4
Note ON: Time 266040, Note Name: D#4, Velocity: 71
Note OFF: Time 266160, Note Name: D#4
Note ON: Time 266160, Note Name: C4, Velocity: 69
Note OFF: Time 266280, Note Name: C4
Note ON: Time 266280, Note Name: F#3, Velocity: 69
Note OFF: Time 266400, Note Name: F#3
Note ON: Time 266400, Note Name: F#4, Velocity: 91
Note OFF: Time 266640, Note Name: F#4
Note ON: Time 266640, Note Name: F#4, Velocity: 74
Note OFF: Time 266760, Note Name: F#4
Note ON: Time 266760, Note Name: D#4, Velocity: 70
Note OFF: Time 266880, Note Name: D#4
Note ON: Time 266880, Note Name: C4, Velocity: 70
Note OFF: Time 267000, Note Name: C4
Note ON: Time 267000, Note Name: F#3, Velocity: 69
Note OFF: Time 267120, Note Name: F#3
Note ON: Time 267120, Note Name: F#4, Velocity: 89
Note OFF: Time 267360, Note Name: F#4
Note ON: Time 267360, Note Name: F#4, Velocity: 74
Note OFF: Time 267480, Note Name: F#4
Note ON: Time 267480, Note Name: D#4, Velocity: 72
Note OFF: Time 267600, Note Name: D#4
Note ON: Time 267600, Note Name: C4, Velocity: 72
Note OFF: Time 267720, Note Name: C4
Note ON: Time 267720, Note Name: F#3, Velocity: 71
Note OFF: Time 267840, Note Name: F#3
Note ON: Time 267840, Note Name: F#4, Velocity: 84
Note OFF: Time 268560, Note Name: F#4
Note ON: Time 270720, Note Name: D#4, Velocity: 58
Note ON: Time 270720, Note Name: C4, Velocity: 58
Note OFF: Time 271440, Note Name: C4
Note OFF: Time 271440, Note Name: D#4
Note ON: Time 272160, Note Name: C5, Velocity: 59
Note ON: Time 272160, Note Name: D#5, Velocity: 59
Note OFF: Time 272880, Note Name: D#5
Note OFF: Time 272880, Note Name: C5
Note ON: Time 273600, Note Name: F4, Velocity: 55
Note ON: Time 273600, Note Name: C#4, Velocity: 55
Note OFF: Time 274320, Note Name: C#4
Note OFF: Time 274320, Note Name: F4
Note ON: Time 275040, Note Name: C#5, Velocity: 58
Note ON: Time 275040, Note Name: F5, Velocity: 58
Note OFF: Time 275760, Note Name: F5
Note OFF: Time 275760, Note Name: C#5
Note ON: Time 276480, Note Name: C#4, Velocity: 61
Note ON: Time 276480, Note Name: A#4, Velocity: 61
Note ON: Time 276480, Note Name: F4, Velocity: 61
Note OFF: Time 279360, Note Name: F4
Note OFF: Time 279360, Note Name: A#4
Note OFF: Time 279360, Note Name: C#4
Note ON: Time 279360, Note Name: C4, Velocity: 52
Note ON: Time 279360, Note Name: D#4, Velocity: 52
Note ON: Time 279360, Note Name: G#4, Velocity: 52
Note OFF: Time 279840, Note Name: G#4
Note OFF: Time 279840, Note Name: D#4
Note OFF: Time 279840, Note Name: C4
Note ON: Time 281520, Note Name: C4, Velocity: 55
Note ON: Time 281520, Note Name: D#4, Velocity: 55
Note OFF: Time 282120, Note Name: D#4
Note OFF: Time 282120, Note Name: C4
Note ON: Time 282120, Note Name: C4, Velocity: 50
Note ON: Time 282120, Note Name: D#4, Velocity: 50
Note OFF: Time 282240, Note Name: D#4
Note OFF: Time 282240, Note Name: C4
Note ON: Time 282240, Note Name: C#4, Velocity: 55
Note ON: Time 282240, Note Name: F4, Velocity: 55
Note OFF: Time 282720, Note Name: F4
Note OFF: Time 282720, Note Name: C#4
Note ON: Time 282720, Note Name: C4, Velocity: 50
Note ON: Time 282720, Note Name: D#4, Velocity: 50
Note OFF: Time 282960, Note Name: D#4
Note OFF: Time 282960, Note Name: C4
Note ON: Time 283440, Note Name: C5, Velocity: 58
Note ON: Time 283440, Note Name: D#5, Velocity: 58
Note OFF: Time 283680, Note Name: D#5
Note OFF: Time 283680, Note Name: C5
Note ON: Time 284160, Note Name: D#6, Velocity: 56
Note ON: Time 284160, Note Name: C6, Velocity: 56
Note OFF: Time 284400, Note Name: C6
Note OFF: Time 284400, Note Name: D#6
Note ON: Time 285000, Note Name: C4, Velocity: 53
Note ON: Time 285000, Note Name: D#4, Velocity: 53
Note OFF: Time 285120, Note Name: D#4
Note OFF: Time 285120, Note Name: C4
Note ON: Time 285120, Note Name: D#4, Velocity: 57
Note ON: Time 285120, Note Name: F#4, Velocity: 57
Note OFF: Time 285600, Note Name: F#4
Note OFF: Time 285600, Note Name: D#4
Note ON: Time 285600, Note Name: F4, Velocity: 52
Note ON: Time 285600, Note Name: C#4, Velocity: 52
Note OFF: Time 285840, Note Name: C#4
Note OFF: Time 285840, Note Name: F4
Note ON: Time 286320, Note Name: C#5, Velocity: 60
Note ON: Time 286320, Note Name: F5, Velocity: 60
Note OFF: Time 286560, Note Name: F5
Note OFF: Time 286560, Note Name: C#5
Note ON: Time 287040, Note Name: F6, Velocity: 56
Note ON: Time 287040, Note Name: C#6, Velocity: 56
Note OFF: Time 287275, Note Name: C#6
Note OFF: Time 287275, Note Name: F6
Note ON: Time 287880, Note Name: F4, Velocity: 52
Note ON: Time 287880, Note Name: C#4, Velocity: 52
Note OFF: Time 288000, Note Name: C#4
Note OFF: Time 288000, Note Name: F4
Note ON: Time 288000, Note Name: C#4, Velocity: 61
Note ON: Time 288000, Note Name: F4, Velocity: 61
Note ON: Time 288000, Note Name: A#4, Velocity: 61
Note OFF: Time 290880, Note Name: A#4
Note OFF: Time 290880, Note Name: F4
Note OFF: Time 290880, Note Name: C#4
Note ON: Time 290880, Note Name: C4, Velocity: 56
Note ON: Time 290880, Note Name: D#4, Velocity: 56
Note ON: Time 290880, Note Name: G#4, Velocity: 56
Note OFF: Time 291360, Note Name: G#4
Note OFF: Time 291360, Note Name: D#4
Note OFF: Time 291360, Note Name: C4
Note ON: Time 292320, Note Name: C#4, Velocity: 52
Note ON: Time 292320, Note Name: E4, Velocity: 52
Note ON: Time 292320, Note Name: A4, Velocity: 52
Note OFF: Time 293760, Note Name: A4
Note OFF: Time 293760, Note Name: E4
Note OFF: Time 293760, Note Name: C#4
Note ON: Time 293760, Note Name: C4, Velocity: 57
Note ON: Time 293760, Note Name: G#4, Velocity: 57
Note ON: Time 293760, Note Name: D#4, Velocity: 57
Note OFF: Time 294240, Note Name: D#4
Note OFF: Time 294240, Note Name: G#4
Note OFF: Time 294240, Note Name: C4
Note ON: Time 295200, Note Name: C#5, Velocity: 58
Note ON: Time 295200, Note Name: A5, Velocity: 58
Note ON: Time 295200, Note Name: E5, Velocity: 58
Note OFF: Time 296640, Note Name: E5
Note OFF: Time 296640, Note Name: A5
Note OFF: Time 296640, Note Name: C#5
Note ON: Time 296640, Note Name: D#5, Velocity: 56
Note ON: Time 296640, Note Name: G#5, Velocity: 56
Note ON: Time 296640, Note Name: C5, Velocity: 56
Note OFF: Time 297120, Note Name: C5
Note OFF: Time 297120, Note Name: G#5
Note OFF: Time 297120, Note Name: D#5
Note ON: Time 298080, Note Name: D4, Velocity: 46
Note ON: Time 298080, Note Name: B3, Velocity: 46
Note ON: Time 298080, Note Name: G#4, Velocity: 46
Note OFF: Time 298560, Note Name: G#4
Note OFF: Time 298560, Note Name: B3
Note OFF: Time 298560, Note Name: D4
Note ON: Time 299520, Note Name: C#4, Velocity: 44
Note ON: Time 299520, Note Name: A#3, Velocity: 44
Note ON: Time 299520, Note Name: G4, Velocity: 44
Note OFF: Time 300000, Note Name: G4
Note OFF: Time 300000, Note Name: A#3
Note OFF: Time 300000, Note Name: C#4
Note ON: Time 300960, Note Name: A3, Velocity: 39
Note ON: Time 300960, Note Name: C4, Velocity: 39
Note ON: Time 300960, Note Name: F#4, Velocity: 39
Note OFF: Time 301440, Note Name: F#4
Note OFF: Time 301440, Note Name: C4
Note OFF: Time 301440, Note Name: A3
Note ON: Time 302400, Note Name: F#4, Velocity: 47
Note ON: Time 302400, Note Name: C4, Velocity: 47
Note ON: Time 302400, Note Name: G#3, Velocity: 47
Note OFF: Time 302880, Note Name: G#3
Note OFF: Time 302880, Note Name: C4
Note OFF: Time 302880, Note Name: F#4
Note ON: Time 303840, Note Name: D#5, Velocity: 67
Note OFF: Time 304080, Note Name: D#5
Note ON: Time 304080, Note Name: F5, Velocity: 61
Note OFF: Time 304320, Note Name: F5
Note ON: Time 304320, Note Name: D#5, Velocity: 59
Note OFF: Time 304560, Note Name: D#5
Note ON: Time 304560, Note Name: C#5, Velocity: 69
Note OFF: Time 304800, Note Name: C#5
Note ON: Time 304800, Note Name: D#5, Velocity: 66
Note OFF: Time 305040, Note Name: D#5
Note ON: Time 305040, Note Name: C#5, Velocity: 64
Note OFF: Time 305280, Note Name: C#5
Note ON: Time 305280, Note Name: C5, Velocity: 70
Note OFF: Time 305520, Note Name: C5
Note ON: Time 305520, Note Name: F#5, Velocity: 66
Note OFF: Time 305760, Note Name: F#5
Note ON: Time 306720, Note Name: F#5, Velocity: 73
Note OFF: Time 306960, Note Name: F#5
Note ON: Time 306960, Note Name: G#5, Velocity: 70
Note OFF: Time 307200, Note Name: G#5
Note ON: Time 307200, Note Name: F#5, Velocity: 70
Note OFF: Time 307440, Note Name: F#5
Note ON: Time 307440, Note Name: F5, Velocity: 74
Note OFF: Time 307680, Note Name: F5
Note ON: Time 307680, Note Name: F#5, Velocity: 71
Note OFF: Time 307920, Note Name: F#5
Note ON: Time 307920, Note Name: F5, Velocity: 68
Note OFF: Time 308160, Note Name: F5
Note ON: Time 308160, Note Name: D#5, Velocity: 81
Note OFF: Time 308400, Note Name: D#5
Note ON: Time 308400, Note Name: D#6, Velocity: 72
Note OFF: Time 308640, Note Name: D#6
Note ON: Time 309600, Note Name: D#6, Velocity: 83
Note OFF: Time 309840, Note Name: D#6
Note ON: Time 309840, Note Name: F6, Velocity: 77
Note OFF: Time 310080, Note Name: F6
Note ON: Time 310080, Note Name: D#6, Velocity: 73
Note OFF: Time 310320, Note Name: D#6
Note ON: Time 310320, Note Name: C#6, Velocity: 77
Note OFF: Time 310560, Note Name: C#6
Note ON: Time 310560, Note Name: D#6, Velocity: 75
Note OFF: Time 310800, Note Name: D#6
Note ON: Time 310800, Note Name: C#6, Velocity: 73
Note OFF: Time 311040, Note Name: C#6
Note ON: Time 311040, Note Name: C6, Velocity: 76
Note OFF: Time 311280, Note Name: C6
Note ON: Time 311280, Note Name: C#6, Velocity: 75
Note OFF: Time 311520, Note Name: C#6
Note ON: Time 311520, Note Name: C6, Velocity: 72
Note OFF: Time 311760, Note Name: C6
Note ON: Time 311760, Note Name: A#5, Velocity: 76
Note OFF: Time 312000, Note Name: A#5
Note ON: Time 312000, Note Name: C6, Velocity: 73
Note OFF: Time 312240, Note Name: C6
Note ON: Time 312240, Note Name: A#5, Velocity: 69
Note OFF: Time 312480, Note Name: A#5
Note ON: Time 312480, Note Name: G#5, Velocity: 74
Note OFF: Time 312720, Note Name: G#5
Note ON: Time 312720, Note Name: A#5, Velocity: 70
Note OFF: Time 312960, Note Name: A#5
Note ON: Time 312960, Note Name: G#5, Velocity: 67
Note OFF: Time 313200, Note Name: G#5
Note ON: Time 313200, Note Name: F#5, Velocity: 72
Note OFF: Time 313440, Note Name: F#5
Note ON: Time 313440, Note Name: G#5, Velocity: 66
Note OFF: Time 313680, Note Name: G#5
Note ON: Time 313680, Note Name: F#5, Velocity: 63
Note OFF: Time 313920, Note Name: F#5
Note ON: Time 313920, Note Name: F5, Velocity: 73
Note OFF: Time 314400, Note Name: F5
Note ON: Time 316080, Note Name: F4, Velocity: 55
Note ON: Time 316080, Note Name: F3, Velocity: 44
Note OFF: Time 316680, Note Name: F3
Note OFF: Time 316680, Note Name: F4
Note ON: Time 316680, Note Name: G#4, Velocity: 49
Note ON: Time 316680, Note Name: G#3, Velocity: 39
Note OFF: Time 316800, Note Name: G#3
Note OFF: Time 316800, Note Name: G#4
Note ON: Time 316800, Note Name: C#5, Velocity: 53
Note ON: Time 316800, Note Name: C#4, Velocity: 49
Note OFF: Time 317520, Note Name: C#4
Note OFF: Time 317520, Note Name: C#5
Note ON: Time 317520, Note Name: F5, Velocity: 57
Note ON: Time 317520, Note Name: F4, Velocity: 52
Note OFF: Time 318120, Note Name: F4
Note OFF: Time 318120, Note Name: F5
Note ON: Time 318120, Note Name: C#5, Velocity: 50
Note ON: Time 318120, Note Name: C#4, Velocity: 46
Note OFF: Time 318240, Note Name: C#4
Note OFF: Time 318240, Note Name: C#5
Note ON: Time 318240, Note Name: C5, Velocity: 53
Note ON: Time 318240, Note Name: C4, Velocity: 49
Note OFF: Time 318960, Note Name: C4
Note OFF: Time 318960, Note Name: C5
Note ON: Time 318960, Note Name: D#4, Velocity: 52
Note ON: Time 318960, Note Name: D#5, Velocity: 57
Note OFF: Time 319560, Note Name: D#5
Note OFF: Time 319560, Note Name: D#4
Note ON: Time 319560, Note Name: C4, Velocity: 46
Note ON: Time 319560, Note Name: C5, Velocity: 50
Note OFF: Time 319680, Note Name: C5
Note OFF: Time 319680, Note Name: C4
Note ON: Time 319680, Note Name: C#5, Velocity: 53
Note ON: Time 319680, Note Name: C#4, Velocity: 49
Note OFF: Time 320400, Note Name: C#4
Note OFF: Time 320400, Note Name: C#5
Note ON: Time 320400, Note Name: G#3, Velocity: 52
Note ON: Time 320400, Note Name: G#4, Velocity: 52
Note OFF: Time 321840, Note Name: G#4
Note OFF: Time 321840, Note Name: G#3
Note ON: Time 321840, Note Name: A#3, Velocity: 52
Note ON: Time 321840, Note Name: A#4, Velocity: 57
Note OFF: Time 322440, Note Name: A#4
Note OFF: Time 322440, Note Name: A#3
Note ON: Time 322440, Note Name: F#4, Velocity: 53
Note OFF: Time 322560, Note Name: F#4
Note ON: Time 322560, Note Name: F4, Velocity: 59
Note OFF: Time 323280, Note Name: F4
Note ON: Time 323280, Note Name: G#4, Velocity: 61
Note OFF: Time 323880, Note Name: G#4
Note ON: Time 323880, Note Name: F4, Velocity: 55
Note OFF: Time 324000, Note Name: F4
Note ON: Time 324000, Note Name: D#4, Velocity: 63
Note OFF: Time 324720, Note Name: D#4
Note ON: Time 324720, Note Name: F#4, Velocity: 66
Note OFF: Time 325320, Note Name: F#4
Note ON: Time 325320, Note Name: D#4, Velocity: 59
Note OFF: Time 325440, Note Name: D#4
Note ON: Time 325440, Note Name: C4, Velocity: 72
Note OFF: Time 326160, Note Name: C4
Note ON: Time 326160, Note Name: F4, Velocity: 63
Note OFF: Time 327600, Note Name: F4
Note ON: Time 327600, Note Name: C#5, Velocity: 60
Note ON: Time 327600, Note Name: C#4, Velocity: 56
Note OFF: Time 328200, Note Name: C#4
Note OFF: Time 328200, Note Name: C#5
Note ON: Time 328200, Note Name: F5, Velocity: 58
Note ON: Time 328200, Note Name: F4, Velocity: 53
Note OFF: Time 328320, Note Name: F4
Note OFF: Time 328320, Note Name: F5
Note ON: Time 328320, Note Name: A#5, Velocity: 60
Note ON: Time 328320, Note Name: A#4, Velocity: 51
Note OFF: Time 329040, Note Name: A#4
Note OFF: Time 329040, Note Name: A#5
Note ON: Time 329040, Note Name: C#6, Velocity: 62
Note ON: Time 329040, Note Name: C#5, Velocity: 57
Note OFF: Time 329640, Note Name: C#5
Note OFF: Time 329640, Note Name: C#6
Note ON: Time 329640, Note Name: A#4, Velocity: 53
Note ON: Time 329640, Note Name: A#5, Velocity: 58
Note OFF: Time 329760, Note Name: A#5
Note OFF: Time 329760, Note Name: A#4
Note ON: Time 329760, Note Name: A5, Velocity: 61
Note ON: Time 329760, Note Name: A4, Velocity: 57
Note OFF: Time 330480, Note Name: A4
Note OFF: Time 330480, Note Name: A5
Note ON: Time 330480, Note Name: C5, Velocity: 59
Note ON: Time 330480, Note Name: C6, Velocity: 65
Note OFF: Time 331080, Note Name: C6
Note OFF: Time 331080, Note Name: C5
Note ON: Time 331080, Note Name: A4, Velocity: 58
Note ON: Time 331080, Note Name: A5, Velocity: 63
Note OFF: Time 331200, Note Name: A5
Note OFF: Time 331200, Note Name: A4
Note ON: Time 331200, Note Name: A#4, Velocity: 51
Note ON: Time 331200, Note Name: A#5, Velocity: 57
Note OFF: Time 331920, Note Name: A#5
Note OFF: Time 331920, Note Name: A#4
Note ON: Time 331920, Note Name: F5, Velocity: 52
Note ON: Time 331920, Note Name: F4, Velocity: 52
Note OFF: Time 333360, Note Name: F4
Note OFF: Time 333360, Note Name: F5
Note ON: Time 333360, Note Name: F#5, Velocity: 68
Note ON: Time 333360, Note Name: F#4, Velocity: 62
Note OFF: Time 333960, Note Name: F#5
Note ON: Time 333960, Note Name: D#5, Velocity: 63
Note OFF: Time 334080, Note Name: D#5
Note OFF: Time 334080, Note Name: F#4
Note ON: Time 334080, Note Name: C#5, Velocity: 70
Note OFF: Time 334800, Note Name: C#5
Note ON: Time 334800, Note Name: F5, Velocity: 67
Note OFF: Time 335400, Note Name: F5
Note ON: Time 335400, Note Name: C#5, Velocity: 61
Note OFF: Time 335520, Note Name: C#5
Note ON: Time 335520, Note Name: C5, Velocity: 70
Note OFF: Time 336240, Note Name: C5
Note ON: Time 336240, Note Name: D#5, Velocity: 71
Note OFF: Time 336840, Note Name: D#5
Note ON: Time 336840, Note Name: C5, Velocity: 67
Note OFF: Time 336960, Note Name: C5
Note ON: Time 336960, Note Name: A#4, Velocity: 78
Note OFF: Time 337680, Note Name: A#4
Note ON: Time 337680, Note Name: C#5, Velocity: 73
Note OFF: Time 339120, Note Name: C#5
Note ON: Time 339120, Note Name: A#4, Velocity: 73
Note ON: Time 339120, Note Name: A#5, Velocity: 79
Note OFF: Time 339720, Note Name: A#5
Note OFF: Time 339720, Note Name: A#4
Note ON: Time 339720, Note Name: C#6, Velocity: 75
Note ON: Time 339720, Note Name: C#5, Velocity: 69
Note OFF: Time 339840, Note Name: C#5
Note OFF: Time 339840, Note Name: C#6
Note ON: Time 339840, Note Name: F#5, Velocity: 71
Note ON: Time 339840, Note Name: F#6, Velocity: 80
Note OFF: Time 340560, Note Name: F#6
Note OFF: Time 340560, Note Name: F#5
Note ON: Time 340560, Note Name: A#5, Velocity: 74
Note ON: Time 340560, Note Name: A#6, Velocity: 81
Note OFF: Time 341160, Note Name: A#6
Note OFF: Time 341160, Note Name: A#5
Note ON: Time 341160, Note Name: F#6, Velocity: 75
Note ON: Time 341160, Note Name: F#5, Velocity: 69
Note OFF: Time 341280, Note Name: F#5
Note OFF: Time 341280, Note Name: F#6
Note ON: Time 341280, Note Name: F5, Velocity: 74
Note ON: Time 341280, Note Name: F6, Velocity: 80
Note OFF: Time 342000, Note Name: F6
Note OFF: Time 342000, Note Name: F5
Note ON: Time 342000, Note Name: G#5, Velocity: 77
Note ON: Time 342000, Note Name: G#6, Velocity: 85
Note OFF: Time 342600, Note Name: G#6
Note OFF: Time 342600, Note Name: G#5
Note ON: Time 342600, Note Name: F5, Velocity: 75
Note ON: Time 342600, Note Name: F6, Velocity: 82
Note OFF: Time 342720, Note Name: F6
Note OFF: Time 342720, Note Name: F5
Note ON: Time 342720, Note Name: F#5, Velocity: 80
Note ON: Time 342720, Note Name: F#6, Velocity: 89
Note OFF: Time 343440, Note Name: F#6
Note OFF: Time 343440, Note Name: F#5
Note ON: Time 343440, Note Name: C#5, Velocity: 68
Note ON: Time 343440, Note Name: C#6, Velocity: 81
Note OFF: Time 345600, Note Name: C#6
Note OFF: Time 345600, Note Name: C#5
Note ON: Time 345600, Note Name: F#6, Velocity: 89
Note ON: Time 345600, Note Name: F#5, Velocity: 80
Note OFF: Time 346320, Note Name: F#5
Note OFF: Time 346320, Note Name: F#6
Note ON: Time 346320, Note Name: D6, Velocity: 83
Note ON: Time 346320, Note Name: D5, Velocity: 70
Note OFF: Time 348480, Note Name: D5
Note OFF: Time 348480, Note Name: D6
Note ON: Time 348480, Note Name: G5, Velocity: 96
Note ON: Time 348480, Note Name: G6, Velocity: 96
Note OFF: Time 349200, Note Name: G6
Note OFF: Time 349200, Note Name: G5
Note ON: Time 349200, Note Name: D5, Velocity: 74
Note ON: Time 349200, Note Name: D6, Velocity: 89
Note OFF: Time 351360, Note Name: D6
Note OFF: Time 351360, Note Name: D5
Note ON: Time 351360, Note Name: G5, Velocity: 102
Note ON: Time 351360, Note Name: G6, Velocity: 102
Note OFF: Time 352080, Note Name: G6
Note OFF: Time 352080, Note Name: G5
Note ON: Time 352080, Note Name: E6, Velocity: 94
Note ON: Time 352080, Note Name: E5, Velocity: 80
Note OFF: Time 354240, Note Name: E5
Note OFF: Time 354240, Note Name: E6
Note ON: Time 354960, Note Name: G5, Velocity: 75
Note ON: Time 355080, Note Name: A#5, Velocity: 71
Note ON: Time 355200, Note Name: C#6, Velocity: 70
Note OFF: Time 355320, Note Name: C#6
Note ON: Time 355320, Note Name: E6, Velocity: 70
Note OFF: Time 355440, Note Name: A#5
Note ON: Time 355440, Note Name: G6, Velocity: 73
Note OFF: Time 355560, Note Name: G6
Note OFF: Time 355560, Note Name: E6
Note OFF: Time 355560, Note Name: G5
Note ON: Time 355560, Note Name: G5, Velocity: 71
Note OFF: Time 355680, Note Name: G5
Note ON: Time 356400, Note Name: G5, Velocity: 77
Note ON: Time 356520, Note Name: A#5, Velocity: 72
Note ON: Time 356640, Note Name: C#6, Velocity: 72
Note OFF: Time 356760, Note Name: C#6
Note ON: Time 356760, Note Name: E6, Velocity: 70
Note OFF: Time 356880, Note Name: A#5
Note ON: Time 356880, Note Name: G6, Velocity: 74
Note OFF: Time 357000, Note Name: G6
Note OFF: Time 357000, Note Name: E6
Note OFF: Time 357000, Note Name: G5
Note ON: Time 357000, Note Name: G5, Velocity: 72
Note OFF: Time 357120, Note Name: G5
Note ON: Time 357840, Note Name: G5, Velocity: 77
Note ON: Time 357960, Note Name: A#5, Velocity: 71
Note ON: Time 358080, Note Name: C#6, Velocity: 71
Note OFF: Time 358200, Note Name: C#6
Note ON: Time 358200, Note Name: E6, Velocity: 70
Note OFF: Time 358320, Note Name: A#5
Note ON: Time 358320, Note Name: G6, Velocity: 76
Note OFF: Time 358440, Note Name: G6
Note OFF: Time 358440, Note Name: E6
Note OFF: Time 358440, Note Name: G5
Note ON: Time 358440, Note Name: G5, Velocity: 71
Note OFF: Time 358560, Note Name: G5
Note ON: Time 359280, Note Name: G5, Velocity: 77
Note ON: Time 359400, Note Name: A#5, Velocity: 71
Note ON: Time 359520, Note Name: C#6, Velocity: 73
Note OFF: Time 359640, Note Name: C#6
Note ON: Time 359640, Note Name: E6, Velocity: 70
Note OFF: Time 359760, Note Name: A#5
Note ON: Time 359760, Note Name: G6, Velocity: 76
Note OFF: Time 359880, Note Name: G6
Note OFF: Time 359880, Note Name: E6
Note OFF: Time 359880, Note Name: G5
Note ON: Time 359880, Note Name: G5, Velocity: 71
Note OFF: Time 360000, Note Name: G5
Note ON: Time 360240, Note Name: A#5, Velocity: 77
Note ON: Time 360360, Note Name: C#6, Velocity: 71
Note ON: Time 360480, Note Name: E6, Velocity: 74
Note OFF: Time 360600, Note Name: E6
Note ON: Time 360600, Note Name: G6, Velocity: 70
Note OFF: Time 360720, Note Name: G6
Note OFF: Time 360720, Note Name: C#6
Note OFF: Time 360720, Note Name: A#5
Note ON: Time 360960, Note Name: C#6, Velocity: 77
Note ON: Time 361080, Note Name: E6, Velocity: 72
Note ON: Time 361200, Note Name: G6, Velocity: 74
Note OFF: Time 361320, Note Name: G6
Note ON: Time 361320, Note Name: A#6, Velocity: 70
Note OFF: Time 361440, Note Name: A#6
Note OFF: Time 361440, Note Name: E6
Note OFF: Time 361440, Note Name: C#6
Note ON: Time 361800, Note Name: E6, Velocity: 73
Note OFF: Time 361920, Note Name: E6
Note ON: Time 361920, Note Name: G6, Velocity: 74
Note OFF: Time 362040, Note Name: G6
Note ON: Time 362040, Note Name: A#6, Velocity: 73
Note OFF: Time 362160, Note Name: A#6
Note ON: Time 362520, Note Name: E6, Velocity: 73
Note OFF: Time 362640, Note Name: E6
Note ON: Time 362640, Note Name: G6, Velocity: 74
Note OFF: Time 362760, Note Name: G6
Note ON: Time 362760, Note Name: A#6, Velocity: 73
Note OFF: Time 362880, Note Name: A#6
Note ON: Time 363120, Note Name: E6, Velocity: 77
Note OFF: Time 363240, Note Name: E6
Note ON: Time 363240, Note Name: G6, Velocity: 75
Note OFF: Time 363360, Note Name: G6
Note ON: Time 363360, Note Name: A#6, Velocity: 74
Note OFF: Time 363600, Note Name: A#6
Note ON: Time 363840, Note Name: C#6, Velocity: 77
Note OFF: Time 363960, Note Name: C#6
Note ON: Time 363960, Note Name: E6, Velocity: 75
Note OFF: Time 364080, Note Name: E6
Note ON: Time 364080, Note Name: G6, Velocity: 74
Note OFF: Time 364320, Note Name: G6
Note ON: Time 364560, Note Name: A#5, Velocity: 77
Note OFF: Time 364680, Note Name: A#5
Note ON: Time 364680, Note Name: C#6, Velocity: 75
Note OFF: Time 364800, Note Name: C#6
Note ON: Time 364800, Note Name: E6, Velocity: 74
Note OFF: Time 365040, Note Name: E6
Note ON: Time 365280, Note Name: G5, Velocity: 77
Note OFF: Time 365400, Note Name: G5
Note ON: Time 365400, Note Name: A#5, Velocity: 75
Note OFF: Time 365520, Note Name: A#5
Note ON: Time 365520, Note Name: C#6, Velocity: 74
Note OFF: Time 365760, Note Name: C#6
Note ON: Time 366000, Note Name: E5, Velocity: 77
Note OFF: Time 366120, Note Name: E5
Note ON: Time 366120, Note Name: G5, Velocity: 72
Note OFF: Time 366240, Note Name: G5
Note ON: Time 366240, Note Name: A#5, Velocity: 74
Note OFF: Time 366480, Note Name: A#5
Note ON: Time 366720, Note Name: C#5, Velocity: 77
Note OFF: Time 366840, Note Name: C#5
Note ON: Time 366840, Note Name: E5, Velocity: 75
Note OFF: Time 366960, Note Name: E5
Note ON: Time 366960, Note Name: G5, Velocity: 74
Note OFF: Time 367200, Note Name: G5
Note ON: Time 367440, Note Name: A#4, Velocity: 77
Note OFF: Time 367560, Note Name: A#4
Note ON: Time 367560, Note Name: C#5, Velocity: 75
Note OFF: Time 367680, Note Name: C#5
Note ON: Time 367680, Note Name: E5, Velocity: 74
Note OFF: Time 367920, Note Name: E5
Note ON: Time 368160, Note Name: G4, Velocity: 77
Note OFF: Time 368280, Note Name: G4
Note ON: Time 368280, Note Name: A#4, Velocity: 75
Note OFF: Time 368400, Note Name: A#4
Note ON: Time 368400, Note Name: C#5, Velocity: 74
Note OFF: Time 368640, Note Name: C#5
Note ON: Time 368880, Note Name: E4, Velocity: 72
Note OFF: Time 369000, Note Name: E4
Note ON: Time 369000, Note Name: G4, Velocity: 71
Note OFF: Time 369120, Note Name: G4
Note ON: Time 369120, Note Name: A#4, Velocity: 70
Note OFF: Time 369360, Note Name: A#4
Note ON: Time 369600, Note Name: C#4, Velocity: 72
Note OFF: Time 369720, Note Name: C#4
Note ON: Time 369720, Note Name: E4, Velocity: 71
Note OFF: Time 369840, Note Name: E4
Note ON: Time 369840, Note Name: G4, Velocity: 70
Note OFF: Time 370080, Note Name: G4
Note ON: Time 370320, Note Name: A#3, Velocity: 72
Note OFF: Time 370440, Note Name: A#3
Note ON: Time 370440, Note Name: C#4, Velocity: 71
Note OFF: Time 370560, Note Name: C#4
Note ON: Time 370560, Note Name: E4, Velocity: 70
Note OFF: Time 370800, Note Name: E4
Note ON: Time 371040, Note Name: G3, Velocity: 72
Note OFF: Time 371160, Note Name: G3
Note ON: Time 371160, Note Name: A#3, Velocity: 71
Note OFF: Time 371280, Note Name: A#3
Note ON: Time 371280, Note Name: C#4, Velocity: 70
Note OFF: Time 371520, Note Name: C#4
Note ON: Time 371760, Note Name: E3, Velocity: 72
Note OFF: Time 371880, Note Name: E3
Note ON: Time 371880, Note Name: G3, Velocity: 71
Note OFF: Time 372000, Note Name: G3
Note ON: Time 372000, Note Name: A#3, Velocity: 70
Note OFF: Time 372240, Note Name: A#3
Note ON: Time 372480, Note Name: C#3, Velocity: 72
Note OFF: Time 372600, Note Name: C#3
Note ON: Time 372600, Note Name: E3, Velocity: 71
Note OFF: Time 372720, Note Name: E3
Note ON: Time 372720, Note Name: G3, Velocity: 70
Note OFF: Time 372960, Note Name: G3
Note ON: Time 373200, Note Name: A#2, Velocity: 72
Note OFF: Time 373320, Note Name: A#2
Note ON: Time 373320, Note Name: C#3, Velocity: 71
Note OFF: Time 373440, Note Name: C#3
Note ON: Time 373440, Note Name: E3, Velocity: 70
Note OFF: Time 373680, Note Name: E3
Note ON: Time 373920, Note Name: G2, Velocity: 72
Note OFF: Time 374040, Note Name: G2
Note ON: Time 374040, Note Name: A#2, Velocity: 71
Note OFF: Time 374160, Note Name: A#2
Note ON: Time 374160, Note Name: C#3, Velocity: 70
Note OFF: Time 374400, Note Name: C#3
Note ON: Time 374400, Note Name: A#2, Velocity: 71
Note ON: Time 374400, Note Name: G2, Velocity: 71
Note OFF: Time 374520, Note Name: G2
Note OFF: Time 374520, Note Name: A#2
Note ON: Time 374520, Note Name: E3, Velocity: 63
Note OFF: Time 374640, Note Name: E3
Note ON: Time 374640, Note Name: A#2, Velocity: 71
Note ON: Time 374640, Note Name: G2, Velocity: 71
Note OFF: Time 374760, Note Name: G2
Note OFF: Time 374760, Note Name: A#2
Note ON: Time 374760, Note Name: E3, Velocity: 63
Note OFF: Time 374880, Note Name: E3
Note ON: Time 374880, Note Name: A#2, Velocity: 71
Note ON: Time 374880, Note Name: G2, Velocity: 71
Note OFF: Time 375000, Note Name: G2
Note OFF: Time 375000, Note Name: A#2
Note ON: Time 375000, Note Name: E3, Velocity: 63
Note OFF: Time 375120, Note Name: E3
Note ON: Time 375120, Note Name: A#2, Velocity: 71
Note ON: Time 375120, Note Name: G2, Velocity: 71
Note OFF: Time 375240, Note Name: G2
Note OFF: Time 375240, Note Name: A#2
Note ON: Time 375240, Note Name: E3, Velocity: 63
Note OFF: Time 375360, Note Name: E3
Note ON: Time 375360, Note Name: A#2, Velocity: 71
Note ON: Time 375360, Note Name: G2, Velocity: 71
Note OFF: Time 375480, Note Name: G2
Note OFF: Time 375480, Note Name: A#2
Note ON: Time 375480, Note Name: E3, Velocity: 63
Note OFF: Time 375600, Note Name: E3
Note ON: Time 375600, Note Name: G2, Velocity: 71
Note ON: Time 375600, Note Name: A#2, Velocity: 71
Note OFF: Time 375720, Note Name: A#2
Note OFF: Time 375720, Note Name: G2
Note ON: Time 375720, Note Name: E3, Velocity: 63
Note OFF: Time 375840, Note Name: E3
Note ON: Time 375840, Note Name: A#2, Velocity: 71
Note ON: Time 375840, Note Name: G2, Velocity: 71
Note OFF: Time 375960, Note Name: G2
Note OFF: Time 375960, Note Name: A#2
Note ON: Time 375960, Note Name: E3, Velocity: 63
Note OFF: Time 376080, Note Name: E3
Note ON: Time 376080, Note Name: G2, Velocity: 71
Note ON: Time 376080, Note Name: A#2, Velocity: 71
Note OFF: Time 376200, Note Name: A#2
Note OFF: Time 376200, Note Name: G2
Note ON: Time 376200, Note Name: E3, Velocity: 63
Note OFF: Time 376320, Note Name: E3
Note ON: Time 376320, Note Name: A#2, Velocity: 71
Note ON: Time 376320, Note Name: G2, Velocity: 71
Note OFF: Time 376440, Note Name: G2
Note OFF: Time 376440, Note Name: A#2
Note ON: Time 376440, Note Name: E3, Velocity: 63
Note OFF: Time 376560, Note Name: E3
Note ON: Time 376560, Note Name: A#2, Velocity: 71
Note ON: Time 376560, Note Name: G2, Velocity: 71
Note OFF: Time 376680, Note Name: G2
Note OFF: Time 376680, Note Name: A#2
Note ON: Time 376680, Note Name: E3, Velocity: 63
Note OFF: Time 376800, Note Name: E3
Note ON: Time 376800, Note Name: A#2, Velocity: 71
Note ON: Time 376800, Note Name: G2, Velocity: 71
Note OFF: Time 376920, Note Name: G2
Note OFF: Time 376920, Note Name: A#2
Note ON: Time 376920, Note Name: E3, Velocity: 63
Note OFF: Time 377040, Note Name: E3
Note ON: Time 377040, Note Name: G2, Velocity: 71
Note ON: Time 377040, Note Name: A#2, Velocity: 71
Note OFF: Time 377160, Note Name: A#2
Note OFF: Time 377160, Note Name: G2
Note ON: Time 377160, Note Name: E3, Velocity: 63
Note OFF: Time 377280, Note Name: E3
Note ON: Time 377280, Note Name: G2, Velocity: 71
Note ON: Time 377280, Note Name: A#2, Velocity: 71
Note OFF: Time 377400, Note Name: A#2
Note OFF: Time 377400, Note Name: G2
Note ON: Time 377400, Note Name: E3, Velocity: 63
Note OFF: Time 377520, Note Name: E3
Note ON: Time 377520, Note Name: A#2, Velocity: 71
Note ON: Time 377520, Note Name: G2, Velocity: 71
Note OFF: Time 377640, Note Name: G2
Note OFF: Time 377640, Note Name: A#2
Note ON: Time 377640, Note Name: E3, Velocity: 63
Note OFF: Time 377760, Note Name: E3
Note ON: Time 377760, Note Name: G2, Velocity: 71
Note ON: Time 377760, Note Name: A#2, Velocity: 71
Note OFF: Time 377880, Note Name: A#2
Note OFF: Time 377880, Note Name: G2
Note ON: Time 377880, Note Name: E3, Velocity: 63
Note OFF: Time 378000, Note Name: E3
Note ON: Time 378000, Note Name: G2, Velocity: 71
Note ON: Time 378000, Note Name: A#2, Velocity: 71
Note OFF: Time 378120, Note Name: A#2
Note OFF: Time 378120, Note Name: G2
Note ON: Time 378120, Note Name: E3, Velocity: 63
Note OFF: Time 378240, Note Name: E3
Note ON: Time 378240, Note Name: A#2, Velocity: 71
Note ON: Time 378240, Note Name: G2, Velocity: 71
Note OFF: Time 378360, Note Name: G2
Note OFF: Time 378360, Note Name: A#2
Note ON: Time 378360, Note Name: E3, Velocity: 63
Note OFF: Time 378480, Note Name: E3
Note ON: Time 378480, Note Name: G2, Velocity: 71
Note ON: Time 378480, Note Name: A#2, Velocity: 71
Note OFF: Time 378600, Note Name: A#2
Note OFF: Time 378600, Note Name: G2
Note ON: Time 378600, Note Name: E3, Velocity: 63
Note OFF: Time 378720, Note Name: E3
Note ON: Time 378720, Note Name: G2, Velocity: 71
Note ON: Time 378720, Note Name: A#2, Velocity: 71
Note OFF: Time 378840, Note Name: A#2
Note OFF: Time 378840, Note Name: G2
Note ON: Time 378840, Note Name: E3, Velocity: 63
Note OFF: Time 378960, Note Name: E3
Note ON: Time 378960, Note Name: G2, Velocity: 71
Note ON: Time 378960, Note Name: A#2, Velocity: 71
Note OFF: Time 379080, Note Name: A#2
Note OFF: Time 379080, Note Name: G2
Note ON: Time 379080, Note Name: E3, Velocity: 63
Note OFF: Time 379200, Note Name: E3
Note ON: Time 379200, Note Name: G2, Velocity: 71
Note ON: Time 379200, Note Name: A#2, Velocity: 71
Note OFF: Time 379320, Note Name: A#2
Note OFF: Time 379320, Note Name: G2
Note ON: Time 379320, Note Name: E3, Velocity: 63
Note OFF: Time 379440, Note Name: E3
Note ON: Time 379440, Note Name: A#2, Velocity: 71
Note ON: Time 379440, Note Name: G2, Velocity: 71
Note OFF: Time 379560, Note Name: G2
Note OFF: Time 379560, Note Name: A#2
Note ON: Time 379560, Note Name: E3, Velocity: 63
Note OFF: Time 379680, Note Name: E3
Note ON: Time 379680, Note Name: G2, Velocity: 71
Note ON: Time 379680, Note Name: A#2, Velocity: 71
Note OFF: Time 379800, Note Name: A#2
Note OFF: Time 379800, Note Name: G2
Note ON: Time 379800, Note Name: E3, Velocity: 63
Note OFF: Time 379920, Note Name: E3
Note ON: Time 379920, Note Name: A#2, Velocity: 71
Note ON: Time 379920, Note Name: G2, Velocity: 71
Note OFF: Time 380040, Note Name: G2
Note OFF: Time 380040, Note Name: A#2
Note ON: Time 380040, Note Name: E3, Velocity: 63
Note OFF: Time 380160, Note Name: E3
Note ON: Time 380160, Note Name: A#2, Velocity: 71
Note ON: Time 380160, Note Name: G2, Velocity: 71
Note OFF: Time 380280, Note Name: G2
Note OFF: Time 380280, Note Name: A#2
Note ON: Time 380280, Note Name: E3, Velocity: 63
Note OFF: Time 380400, Note Name: E3
Note ON: Time 380400, Note Name: G2, Velocity: 71
Note ON: Time 380400, Note Name: A#2, Velocity: 71
Note OFF: Time 380520, Note Name: A#2
Note OFF: Time 380520, Note Name: G2
Note ON: Time 380520, Note Name: E3, Velocity: 63
Note OFF: Time 380640, Note Name: E3
Note ON: Time 380640, Note Name: G2, Velocity: 71
Note ON: Time 380640, Note Name: A#2, Velocity: 71
Note OFF: Time 380760, Note Name: A#2
Note OFF: Time 380760, Note Name: G2
Note ON: Time 380760, Note Name: E3, Velocity: 63
Note OFF: Time 380880, Note Name: E3
Note ON: Time 380880, Note Name: A#2, Velocity: 71
Note ON: Time 380880, Note Name: G2, Velocity: 71
Note OFF: Time 381000, Note Name: G2
Note OFF: Time 381000, Note Name: A#2
Note ON: Time 381000, Note Name: E3, Velocity: 63
Note OFF: Time 381120, Note Name: E3
Note ON: Time 381120, Note Name: G2, Velocity: 71
Note ON: Time 381120, Note Name: A#2, Velocity: 71
Note OFF: Time 381240, Note Name: A#2
Note OFF: Time 381240, Note Name: G2
Note ON: Time 381240, Note Name: E3, Velocity: 63
Note OFF: Time 381360, Note Name: E3
Note ON: Time 381360, Note Name: A#2, Velocity: 71
Note ON: Time 381360, Note Name: G2, Velocity: 71
Note OFF: Time 381480, Note Name: G2
Note OFF: Time 381480, Note Name: A#2
Note ON: Time 381480, Note Name: E3, Velocity: 63
Note OFF: Time 381600, Note Name: E3
Note ON: Time 381600, Note Name: A#2, Velocity: 71
Note ON: Time 381600, Note Name: G2, Velocity: 71
Note OFF: Time 381720, Note Name: G2
Note OFF: Time 381720, Note Name: A#2
Note ON: Time 381720, Note Name: E3, Velocity: 63
Note OFF: Time 381840, Note Name: E3
Note ON: Time 381840, Note Name: G2, Velocity: 71
Note ON: Time 381840, Note Name: A#2, Velocity: 71
Note OFF: Time 381960, Note Name: A#2
Note OFF: Time 381960, Note Name: G2
Note ON: Time 381960, Note Name: E3, Velocity: 63
Note OFF: Time 382080, Note Name: E3
Note ON: Time 382080, Note Name: G2, Velocity: 71
Note ON: Time 382080, Note Name: A#2, Velocity: 71
Note OFF: Time 382200, Note Name: A#2
Note OFF: Time 382200, Note Name: G2
Note ON: Time 382200, Note Name: E3, Velocity: 63
Note OFF: Time 382320, Note Name: E3
Note ON: Time 382320, Note Name: A#2, Velocity: 71
Note ON: Time 382320, Note Name: G2, Velocity: 71
Note OFF: Time 382440, Note Name: G2
Note OFF: Time 382440, Note Name: A#2
Note ON: Time 382440, Note Name: E3, Velocity: 63
Note OFF: Time 382560, Note Name: E3
Note ON: Time 382560, Note Name: G2, Velocity: 71
Note ON: Time 382560, Note Name: A#2, Velocity: 71
Note OFF: Time 382680, Note Name: A#2
Note OFF: Time 382680, Note Name: G2
Note ON: Time 382680, Note Name: E3, Velocity: 63
Note OFF: Time 382800, Note Name: E3
Note ON: Time 382800, Note Name: G2, Velocity: 71
Note ON: Time 382800, Note Name: A#2, Velocity: 71
Note OFF: Time 382920, Note Name: A#2
Note OFF: Time 382920, Note Name: G2
Note ON: Time 382920, Note Name: E3, Velocity: 63
Note OFF: Time 383040, Note Name: E3
Note ON: Time 383040, Note Name: G2, Velocity: 71
Note ON: Time 383040, Note Name: A#2, Velocity: 71
Note OFF: Time 383160, Note Name: A#2
Note OFF: Time 383160, Note Name: G2
Note ON: Time 383160, Note Name: E3, Velocity: 63
Note OFF: Time 383280, Note Name: E3
Note ON: Time 383280, Note Name: G2, Velocity: 71
Note ON: Time 383280, Note Name: A#2, Velocity: 71
Note OFF: Time 383400, Note Name: A#2
Note OFF: Time 383400, Note Name: G2
Note ON: Time 383400, Note Name: E3, Velocity: 63
Note OFF: Time 383520, Note Name: E3
Note ON: Time 383520, Note Name: G2, Velocity: 71
Note ON: Time 383520, Note Name: A#2, Velocity: 71
Note OFF: Time 383640, Note Name: A#2
Note OFF: Time 383640, Note Name: G2
Note ON: Time 383640, Note Name: E3, Velocity: 63
Note OFF: Time 383760, Note Name: E3
Note ON: Time 383760, Note Name: A#2, Velocity: 71
Note ON: Time 383760, Note Name: G2, Velocity: 71
Note OFF: Time 383880, Note Name: G2
Note OFF: Time 383880, Note Name: A#2
Note ON: Time 383880, Note Name: E3, Velocity: 63
Note OFF: Time 384000, Note Name: E3
Note ON: Time 384000, Note Name: G2, Velocity: 71
Note ON: Time 384000, Note Name: A#2, Velocity: 71
Note OFF: Time 384120, Note Name: A#2
Note OFF: Time 384120, Note Name: G2
Note ON: Time 384120, Note Name: E3, Velocity: 63
Note OFF: Time 384240, Note Name: E3
Note ON: Time 384240, Note Name: A#2, Velocity: 71
Note ON: Time 384240, Note Name: G2, Velocity: 71
Note OFF: Time 384360, Note Name: G2
Note OFF: Time 384360, Note Name: A#2
Note ON: Time 384360, Note Name: E3, Velocity: 63
Note OFF: Time 384480, Note Name: E3
Note ON: Time 384480, Note Name: A#2, Velocity: 71
Note ON: Time 384480, Note Name: G2, Velocity: 71
Note OFF: Time 384600, Note Name: G2
Note OFF: Time 384600, Note Name: A#2
Note ON: Time 384600, Note Name: E3, Velocity: 63
Note OFF: Time 384720, Note Name: E3
Note ON: Time 384720, Note Name: G2, Velocity: 71
Note ON: Time 384720, Note Name: A#2, Velocity: 71
Note OFF: Time 384840, Note Name: A#2
Note OFF: Time 384840, Note Name: G2
Note ON: Time 384840, Note Name: E3, Velocity: 63
Note OFF: Time 384960, Note Name: E3
Note ON: Time 384960, Note Name: G2, Velocity: 71
Note ON: Time 384960, Note Name: A#2, Velocity: 71
Note OFF: Time 385080, Note Name: A#2
Note OFF: Time 385080, Note Name: G2
Note ON: Time 385080, Note Name: E3, Velocity: 63
Note OFF: Time 385200, Note Name: E3
Note ON: Time 385200, Note Name: G2, Velocity: 71
Note ON: Time 385200, Note Name: A#2, Velocity: 71
Note OFF: Time 385320, Note Name: A#2
Note OFF: Time 385320, Note Name: G2
Note ON: Time 385320, Note Name: E3, Velocity: 63
Note OFF: Time 385440, Note Name: E3
Note ON: Time 385440, Note Name: A#2, Velocity: 71
Note ON: Time 385440, Note Name: G2, Velocity: 71
Note OFF: Time 385560, Note Name: G2
Note OFF: Time 385560, Note Name: A#2
Note ON: Time 385560, Note Name: E3, Velocity: 63
Note OFF: Time 385680, Note Name: E3
Note ON: Time 385680, Note Name: G2, Velocity: 71
Note ON: Time 385680, Note Name: A#2, Velocity: 71
Note OFF: Time 385800, Note Name: A#2
Note OFF: Time 385800, Note Name: G2
Note ON: Time 385800, Note Name: E3, Velocity: 63
Note OFF: Time 385920, Note Name: E3
Note ON: Time 385920, Note Name: G2, Velocity: 65
Note ON: Time 385920, Note Name: E3, Velocity: 65
Note ON: Time 385920, Note Name: A#2, Velocity: 65
Note OFF: Time 386400, Note Name: A#2
Note OFF: Time 386400, Note Name: E3
Note OFF: Time 386400, Note Name: G2
Note ON: Time 390960, Note Name: C3, Velocity: 27
Note ON: Time 390960, Note Name: C4, Velocity: 35
Note OFF: Time 391560, Note Name: C4
Note OFF: Time 391560, Note Name: C3
Note ON: Time 391560, Note Name: G#3, Velocity: 31
Note ON: Time 391560, Note Name: G#2, Velocity: 25
Note OFF: Time 391680, Note Name: G#2
Note OFF: Time 391680, Note Name: G#3
Note ON: Time 391680, Note Name: F2, Velocity: 22
Note ON: Time 391680, Note Name: F3, Velocity: 28
Note OFF: Time 393840, Note Name: F3
Note OFF: Time 393840, Note Name: F2
Note ON: Time 393840, Note Name: G#3, Velocity: 35
Note ON: Time 393840, Note Name: G#2, Velocity: 27
Note OFF: Time 394440, Note Name: G#2
Note OFF: Time 394440, Note Name: G#3
Note ON: Time 394440, Note Name: C3, Velocity: 24
Note ON: Time 394440, Note Name: C4, Velocity: 30
Note OFF: Time 394560, Note Name: C4
Note OFF: Time 394560, Note Name: C3
Note ON: Time 394560, Note Name: F4, Velocity: 35
Note ON: Time 394560, Note Name: F3, Velocity: 27
Note OFF: Time 395280, Note Name: F3
Note OFF: Time 395280, Note Name: F4
Note ON: Time 395280, Note Name: G#4, Velocity: 36
Note ON: Time 395280, Note Name: G#3, Velocity: 28
Note OFF: Time 395880, Note Name: G#3
Note OFF: Time 395880, Note Name: G#4
Note ON: Time 395880, Note Name: C5, Velocity: 31
Note ON: Time 395880, Note Name: C4, Velocity: 25
Note OFF: Time 396000, Note Name: C4
Note OFF: Time 396000, Note Name: C5
Note ON: Time 396000, Note Name: F5, Velocity: 40
Note ON: Time 396000, Note Name: F4, Velocity: 31
Note OFF: Time 396715, Note Name: F4
Note OFF: Time 396715, Note Name: F5
Note ON: Time 396720, Note Name: F4, Velocity: 33
Note ON: Time 396720, Note Name: F3, Velocity: 26
Note OFF: Time 397440, Note Name: F3
Note OFF: Time 397440, Note Name: F4
Note ON: Time 397440, Note Name: G4, Velocity: 26
Note ON: Time 397440, Note Name: E4, Velocity: 26
Note ON: Time 397440, Note Name: C5, Velocity: 35
Note OFF: Time 398640, Note Name: C5
Note ON: Time 398640, Note Name: D5, Velocity: 33
Note OFF: Time 398880, Note Name: D5
Note OFF: Time 398880, Note Name: E4
Note OFF: Time 398880, Note Name: G4
Note ON: Time 398880, Note Name: F4, Velocity: 26
Note ON: Time 398880, Note Name: B4, Velocity: 26
Note ON: Time 398880, Note Name: D5, Velocity: 33
Note OFF: Time 398960, Note Name: D5
Note ON: Time 398960, Note Name: E5, Velocity: 29
Note OFF: Time 399040, Note Name: E5
Note ON: Time 399040, Note Name: D5, Velocity: 33
Note OFF: Time 399120, Note Name: D5
Note ON: Time 399120, Note Name: E5, Velocity: 29
Note OFF: Time 399200, Note Name: E5
Note ON: Time 399200, Note Name: D5, Velocity: 33
Note OFF: Time 399280, Note Name: D5
Note ON: Time 399280, Note Name: E5, Velocity: 30
Note OFF: Time 399360, Note Name: E5
Note ON: Time 399360, Note Name: D5, Velocity: 33
Note OFF: Time 399440, Note Name: D5
Note ON: Time 399440, Note Name: E5, Velocity: 29
Note OFF: Time 399520, Note Name: E5
Note ON: Time 399520, Note Name: D5, Velocity: 33
Note OFF: Time 399600, Note Name: D5
Note ON: Time 399600, Note Name: E5, Velocity: 30
Note OFF: Time 399680, Note Name: E5
Note ON: Time 399680, Note Name: D5, Velocity: 28
Note OFF: Time 399760, Note Name: D5
Note ON: Time 399760, Note Name: E5, Velocity: 33
Note OFF: Time 399840, Note Name: E5
Note ON: Time 399840, Note Name: D5, Velocity: 28
Note OFF: Time 399960, Note Name: D5
Note ON: Time 399960, Note Name: C5, Velocity: 30
Note OFF: Time 400080, Note Name: C5
Note ON: Time 400080, Note Name: E5, Velocity: 35
Note OFF: Time 400200, Note Name: E5
Note ON: Time 400200, Note Name: D5, Velocity: 31
Note OFF: Time 400320, Note Name: D5
Note OFF: Time 400320, Note Name: B4
Note OFF: Time 400320, Note Name: F4
Note ON: Time 400320, Note Name: C5, Velocity: 35
Note ON: Time 400320, Note Name: E4, Velocity: 19
Note ON: Time 400320, Note Name: G4, Velocity: 22
Note OFF: Time 400800, Note Name: G4
Note OFF: Time 400800, Note Name: E4
Note OFF: Time 400800, Note Name: C5
Note ON: Time 402480, Note Name: C#4, Velocity: 35
Note ON: Time 402480, Note Name: C#3, Velocity: 27
Note OFF: Time 403080, Note Name: C#3
Note OFF: Time 403080, Note Name: C#4
Note ON: Time 403080, Note Name: A#3, Velocity: 31
Note ON: Time 403080, Note Name: A#2, Velocity: 25
Note OFF: Time 403200, Note Name: A#2
Note OFF: Time 403200, Note Name: A#3
Note ON: Time 403200, Note Name: F#3, Velocity: 28
Note ON: Time 403200, Note Name: F#2, Velocity: 22
Note OFF: Time 405360, Note Name: F#2
Note OFF: Time 405360, Note Name: F#3
Note ON: Time 405360, Note Name: A#2, Velocity: 27
Note ON: Time 405360, Note Name: A#3, Velocity: 35
Note OFF: Time 405960, Note Name: A#3
Note OFF: Time 405960, Note Name: A#2
Note ON: Time 405960, Note Name: C#4, Velocity: 30
Note ON: Time 405960, Note Name: C#3, Velocity: 24
Note OFF: Time 406080, Note Name: C#3
Note OFF: Time 406080, Note Name: C#4
Note ON: Time 406080, Note Name: F#3, Velocity: 27
Note ON: Time 406080, Note Name: F#4, Velocity: 35
Note OFF: Time 406800, Note Name: F#4
Note OFF: Time 406800, Note Name: F#3
Note ON: Time 406800, Note Name: A#4, Velocity: 36
Note ON: Time 406800, Note Name: A#3, Velocity: 28
Note OFF: Time 407400, Note Name: A#3
Note OFF: Time 407400, Note Name: A#4
Note ON: Time 407400, Note Name: C#4, Velocity: 25
Note ON: Time 407400, Note Name: C#5, Velocity: 31
Note OFF: Time 407520, Note Name: C#5
Note OFF: Time 407520, Note Name: C#4
Note ON: Time 407520, Note Name: F#5, Velocity: 40
Note ON: Time 407520, Note Name: F#4, Velocity: 31
Note OFF: Time 408240, Note Name: F#4
Note OFF: Time 408240, Note Name: F#5
Note ON: Time 408240, Note Name: F#3, Velocity: 26
Note ON: Time 408240, Note Name: F#4, Velocity: 33
Note OFF: Time 408960, Note Name: F#4
Note OFF: Time 408960, Note Name: F#3
Note ON: Time 408960, Note Name: F4, Velocity: 26
Note ON: Time 408960, Note Name: G#4, Velocity: 26
Note ON: Time 408960, Note Name: C#5, Velocity: 35
Note OFF: Time 410160, Note Name: C#5
Note ON: Time 410160, Note Name: D#5, Velocity: 33
Note OFF: Time 410400, Note Name: D#5
Note OFF: Time 410400, Note Name: G#4
Note OFF: Time 410400, Note Name: F4
Note ON: Time 410400, Note Name: D#5, Velocity: 28
Note ON: Time 410400, Note Name: F#4, Velocity: 26
Note ON: Time 410400, Note Name: C5, Velocity: 26
Note OFF: Time 410480, Note Name: D#5
Note ON: Time 410480, Note Name: F5, Velocity: 25
Note OFF: Time 410560, Note Name: F5
Note ON: Time 410560, Note Name: D#5, Velocity: 28
Note OFF: Time 410640, Note Name: D#5
Note ON: Time 410640, Note Name: F5, Velocity: 25
Note OFF: Time 410720, Note Name: F5
Note ON: Time 410720, Note Name: D#5, Velocity: 28
Note OFF: Time 410800, Note Name: D#5
Note ON: Time 410800, Note Name: F5, Velocity: 25
Note OFF: Time 410880, Note Name: F5
Note ON: Time 410880, Note Name: D#5, Velocity: 29
Note OFF: Time 410960, Note Name: D#5
Note ON: Time 410960, Note Name: F5, Velocity: 25
Note OFF: Time 411040, Note Name: F5
Note ON: Time 411040, Note Name: D#5, Velocity: 29
Note OFF: Time 411120, Note Name: D#5
Note ON: Time 411120, Note Name: F5, Velocity: 26
Note OFF: Time 411200, Note Name: F5
Note ON: Time 411200, Note Name: D#5, Velocity: 29
Note OFF: Time 411280, Note Name: D#5
Note ON: Time 411280, Note Name: F5, Velocity: 27
Note OFF: Time 411360, Note Name: F5
Note ON: Time 411360, Note Name: D#5, Velocity: 24
Note OFF: Time 411480, Note Name: D#5
Note ON: Time 411480, Note Name: C#5, Velocity: 30
Note OFF: Time 411600, Note Name: C#5
Note ON: Time 411600, Note Name: F5, Velocity: 35
Note OFF: Time 411720, Note Name: F5
Note ON: Time 411720, Note Name: D#5, Velocity: 31
Note OFF: Time 411840, Note Name: D#5
Note OFF: Time 411840, Note Name: C5
Note OFF: Time 411840, Note Name: F#4
Note ON: Time 411840, Note Name: C#5, Velocity: 35
Note ON: Time 411840, Note Name: F4, Velocity: 19
Note ON: Time 411840, Note Name: G#4, Velocity: 22
Note OFF: Time 412320, Note Name: G#4
Note OFF: Time 412320, Note Name: F4
Note OFF: Time 412320, Note Name: C#5
Note ON: Time 414720, Note Name: C5, Velocity: 35
Note OFF: Time 415920, Note Name: C5
Note ON: Time 415920, Note Name: D5, Velocity: 38
Note OFF: Time 416100, Note Name: D5
Note ON: Time 416100, Note Name: C5, Velocity: 38
Note OFF: Time 416160, Note Name: C5
Note ON: Time 416160, Note Name: D5, Velocity: 37
Note OFF: Time 416240, Note Name: D5
Note ON: Time 416240, Note Name: E5, Velocity: 32
Note OFF: Time 416320, Note Name: E5
Note ON: Time 416320, Note Name: D5, Velocity: 37
Note OFF: Time 416400, Note Name: D5
Note ON: Time 416400, Note Name: E5, Velocity: 33
Note OFF: Time 416480, Note Name: E5
Note ON: Time 416480, Note Name: D5, Velocity: 37
Note OFF: Time 416560, Note Name: D5
Note ON: Time 416560, Note Name: E5, Velocity: 33
Note OFF: Time 416640, Note Name: E5
Note ON: Time 416640, Note Name: D5, Velocity: 37
Note OFF: Time 416720, Note Name: D5
Note ON: Time 416720, Note Name: E5, Velocity: 33
Note OFF: Time 416800, Note Name: E5
Note ON: Time 416800, Note Name: D5, Velocity: 37
Note OFF: Time 416880, Note Name: D5
Note ON: Time 416880, Note Name: E5, Velocity: 34
Note OFF: Time 416960, Note Name: E5
Note ON: Time 416960, Note Name: D5, Velocity: 31
Note OFF: Time 417040, Note Name: D5
Note ON: Time 417040, Note Name: E5, Velocity: 37
Note OFF: Time 417120, Note Name: E5
Note ON: Time 417120, Note Name: D5, Velocity: 31
Note OFF: Time 417240, Note Name: D5
Note ON: Time 417240, Note Name: C5, Velocity: 34
Note OFF: Time 417360, Note Name: C5
Note ON: Time 417360, Note Name: E5, Velocity: 40
Note OFF: Time 417480, Note Name: E5
Note ON: Time 417480, Note Name: D5, Velocity: 35
Note OFF: Time 417600, Note Name: D5
Note ON: Time 417600, Note Name: C5, Velocity: 35
Note OFF: Time 418080, Note Name: C5
Note ON: Time 420480, Note Name: E5, Velocity: 40
Note OFF: Time 421680, Note Name: E5
Note ON: Time 421680, Note Name: F5, Velocity: 38
Note OFF: Time 421860, Note Name: F5
Note ON: Time 421860, Note Name: E5, Velocity: 38
Note OFF: Time 421920, Note Name: E5
Note ON: Time 421920, Note Name: F5, Velocity: 37
Note OFF: Time 422000, Note Name: F5
Note ON: Time 422000, Note Name: G5, Velocity: 32
Note OFF: Time 422080, Note Name: G5
Note ON: Time 422080, Note Name: F5, Velocity: 37
Note OFF: Time 422160, Note Name: F5
Note ON: Time 422160, Note Name: G5, Velocity: 33
Note OFF: Time 422240, Note Name: G5
Note ON: Time 422240, Note Name: F5, Velocity: 37
Note OFF: Time 422320, Note Name: F5
Note ON: Time 422320, Note Name: G5, Velocity: 33
Note OFF: Time 422400, Note Name: G5
Note ON: Time 422400, Note Name: F5, Velocity: 37
Note OFF: Time 422480, Note Name: F5
Note ON: Time 422480, Note Name: G5, Velocity: 33
Note OFF: Time 422560, Note Name: G5
Note ON: Time 422560, Note Name: F5, Velocity: 37
Note OFF: Time 422640, Note Name: F5
Note ON: Time 422640, Note Name: G5, Velocity: 34
Note OFF: Time 422720, Note Name: G5
Note ON: Time 422720, Note Name: F5, Velocity: 31
Note OFF: Time 422800, Note Name: F5
Note ON: Time 422800, Note Name: G5, Velocity: 37
Note OFF: Time 422880, Note Name: G5
Note ON: Time 422880, Note Name: F5, Velocity: 31
Note OFF: Time 423000, Note Name: F5
Note ON: Time 423000, Note Name: E5, Velocity: 34
Note OFF: Time 423120, Note Name: E5
Note ON: Time 423120, Note Name: G5, Velocity: 40
Note OFF: Time 423240, Note Name: G5
Note ON: Time 423240, Note Name: F5, Velocity: 35
Note OFF: Time 423360, Note Name: F5
Note ON: Time 423360, Note Name: E5, Velocity: 35
Note OFF: Time 423840, Note Name: E5
Note ON: Time 425520, Note Name: E5, Velocity: 35
Note ON: Time 425520, Note Name: G5, Velocity: 35
Note OFF: Time 425760, Note Name: G5
Note OFF: Time 425760, Note Name: E5
Note ON: Time 425760, Note Name: E5, Velocity: 31
Note ON: Time 425760, Note Name: G5, Velocity: 31
Note OFF: Time 426000, Note Name: G5
Note OFF: Time 426000, Note Name: E5
Note ON: Time 426000, Note Name: G5, Velocity: 35
Note ON: Time 426000, Note Name: E5, Velocity: 35
Note OFF: Time 426240, Note Name: E5
Note OFF: Time 426240, Note Name: G5
Note ON: Time 426240, Note Name: A#5, Velocity: 35
Note ON: Time 426240, Note Name: G5, Velocity: 35
Note OFF: Time 426720, Note Name: G5
Note OFF: Time 426720, Note Name: A#5
Note ON: Time 428400, Note Name: G5, Velocity: 66
Note ON: Time 428400, Note Name: A#5, Velocity: 66
Note OFF: Time 428640, Note Name: A#5
Note OFF: Time 428640, Note Name: G5
Note ON: Time 428640, Note Name: G5, Velocity: 62
Note ON: Time 428640, Note Name: A#5, Velocity: 62
Note OFF: Time 428880, Note Name: A#5
Note OFF: Time 428880, Note Name: G5
Note ON: Time 428880, Note Name: A#5, Velocity: 68
Note ON: Time 428880, Note Name: G5, Velocity: 68
Note OFF: Time 429120, Note Name: G5
Note OFF: Time 429120, Note Name: A#5
Note ON: Time 429120, Note Name: E6, Velocity: 71
Note OFF: Time 429240, Note Name: E6
Note ON: Time 429240, Note Name: A#5, Velocity: 64
Note OFF: Time 429360, Note Name: A#5
Note ON: Time 429360, Note Name: G6, Velocity: 72
Note OFF: Time 429480, Note Name: G6
Note ON: Time 429480, Note Name: E6, Velocity: 64
Note OFF: Time 429600, Note Name: E6
Note ON: Time 429600, Note Name: A#6, Velocity: 73
Note OFF: Time 429720, Note Name: A#6
Note ON: Time 429720, Note Name: G6, Velocity: 66
Note OFF: Time 429840, Note Name: G6
Note ON: Time 429840, Note Name: E6, Velocity: 74
Note OFF: Time 429960, Note Name: E6
Note ON: Time 429960, Note Name: G6, Velocity: 67
Note OFF: Time 430080, Note Name: G6
Note ON: Time 430080, Note Name: A#5, Velocity: 74
Note OFF: Time 430200, Note Name: A#5
Note ON: Time 430200, Note Name: E6, Velocity: 68
Note OFF: Time 430320, Note Name: E6
Note ON: Time 430320, Note Name: G5, Velocity: 75
Note OFF: Time 430440, Note Name: G5
Note ON: Time 430440, Note Name: A#5, Velocity: 68
Note OFF: Time 430560, Note Name: A#5
Note ON: Time 430560, Note Name: E5, Velocity: 75
Note OFF: Time 430680, Note Name: E5
Note ON: Time 430680, Note Name: G5, Velocity: 69
Note OFF: Time 430800, Note Name: G5
Note ON: Time 430800, Note Name: A#4, Velocity: 76
Note OFF: Time 430920, Note Name: A#4
Note ON: Time 430920, Note Name: E5, Velocity: 67
Note OFF: Time 431040, Note Name: E5
Note ON: Time 431040, Note Name: G4, Velocity: 76
Note OFF: Time 431160, Note Name: G4
Note ON: Time 431160, Note Name: A#4, Velocity: 70
Note OFF: Time 431280, Note Name: A#4
Note ON: Time 431280, Note Name: E4, Velocity: 77
Note OFF: Time 431400, Note Name: E4
Note ON: Time 431400, Note Name: G4, Velocity: 68
Note OFF: Time 431520, Note Name: G4
Note ON: Time 431520, Note Name: A#3, Velocity: 78
Note OFF: Time 431640, Note Name: A#3
Note ON: Time 431640, Note Name: E4, Velocity: 71
Note OFF: Time 431760, Note Name: E4
Note ON: Time 437040, Note Name: C4, Velocity: 35
Note OFF: Time 437640, Note Name: C4
Note ON: Time 437640, Note Name: A3, Velocity: 31
Note OFF: Time 437760, Note Name: A3
Note ON: Time 437760, Note Name: F3, Velocity: 103
Note OFF: Time 437998, Note Name: F3
Note ON: Time 438000, Note Name: A3, Velocity: 75
Note ON: Time 438000, Note Name: F3, Velocity: 75
Note ON: Time 438000, Note Name: C4, Velocity: 85
Note ON: Time 438000, Note Name: F4, Velocity: 101
Note OFF: Time 438475, Note Name: F4
Note OFF: Time 438475, Note Name: A3
Note OFF: Time 438475, Note Name: F3
Note OFF: Time 438475, Note Name: C4
Note ON: Time 438480, Note Name: C4, Velocity: 72
Note ON: Time 438480, Note Name: F4, Velocity: 81
Note ON: Time 438480, Note Name: A4, Velocity: 96
Note ON: Time 438480, Note Name: A3, Velocity: 72
Note OFF: Time 438955, Note Name: A3
Note OFF: Time 438955, Note Name: C4
Note OFF: Time 438955, Note Name: F4
Note OFF: Time 438955, Note Name: A4
Note ON: Time 438960, Note Name: C4, Velocity: 71
Note ON: Time 438960, Note Name: F4, Velocity: 71
Note ON: Time 438960, Note Name: C5, Velocity: 96
Note ON: Time 438960, Note Name: A4, Velocity: 79
Note OFF: Time 439435, Note Name: A4
Note OFF: Time 439435, Note Name: C4
Note OFF: Time 439435, Note Name: F4
Note OFF: Time 439435, Note Name: C5
Note ON: Time 439440, Note Name: A4, Velocity: 72
Note ON: Time 439440, Note Name: F5, Velocity: 95
Note ON: Time 439440, Note Name: C5, Velocity: 80
Note ON: Time 439440, Note Name: F4, Velocity: 72
Note OFF: Time 439915, Note Name: F4
Note OFF: Time 439915, Note Name: A4
Note OFF: Time 439915, Note Name: F5
Note OFF: Time 439915, Note Name: C5
Note ON: Time 439920, Note Name: F5, Velocity: 86
Note ON: Time 439920, Note Name: A4, Velocity: 76
Note ON: Time 439920, Note Name: C5, Velocity: 76
Note ON: Time 439920, Note Name: A5, Velocity: 103
Note OFF: Time 440395, Note Name: A5
Note OFF: Time 440395, Note Name: F5
Note OFF: Time 440395, Note Name: A4
Note OFF: Time 440395, Note Name: C5
Note ON: Time 440400, Note Name: F5, Velocity: 78
Note ON: Time 440400, Note Name: C6, Velocity: 94
Note ON: Time 440400, Note Name: C5, Velocity: 71
Note ON: Time 440400, Note Name: A5, Velocity: 78
Note OFF: Time 440638, Note Name: A5
Note OFF: Time 440638, Note Name: F5
Note OFF: Time 440638, Note Name: C6
Note OFF: Time 440638, Note Name: C5
Note ON: Time 440640, Note Name: A5, Velocity: 86
Note ON: Time 440640, Note Name: C6, Velocity: 86
Note ON: Time 440640, Note Name: F6, Velocity: 103
Note ON: Time 440640, Note Name: F5, Velocity: 76
Note OFF: Time 442800, Note Name: F5
Note OFF: Time 442800, Note Name: A5
Note OFF: Time 442800, Note Name: C6
Note OFF: Time 442800, Note Name: F6
Note ON: Time 442800, Note Name: A3, Velocity: 41
Note OFF: Time 443400, Note Name: A3
Note ON: Time 443400, Note Name: C4, Velocity: 35
Note OFF: Time 443520, Note Name: C4
Note ON: Time 443520, Note Name: F4, Velocity: 40
Note OFF: Time 444240, Note Name: F4
Note ON: Time 444240, Note Name: A4, Velocity: 43
Note OFF: Time 444840, Note Name: A4
Note ON: Time 444840, Note Name: C5, Velocity: 37
Note OFF: Time 444960, Note Name: C5
Note ON: Time 444960, Note Name: F5, Velocity: 40
Note OFF: Time 445675, Note Name: F5
Note ON: Time 445680, Note Name: F4, Velocity: 40
Note OFF: Time 446400, Note Name: F4
Note ON: Time 446400, Note Name: C4, Velocity: 103
Note OFF: Time 446638, Note Name: C4
Note ON: Time 446640, Note Name: C4, Velocity: 85
Note ON: Time 446640, Note Name: E4, Velocity: 101
Note OFF: Time 447115, Note Name: E4
Note OFF: Time 447115, Note Name: C4
Note ON: Time 447120, Note Name: C4, Velocity: 72
Note ON: Time 447120, Note Name: G4, Velocity: 96
Note ON: Time 447120, Note Name: E4, Velocity: 81
Note OFF: Time 447595, Note Name: E4
Note OFF: Time 447595, Note Name: G4
Note OFF: Time 447595, Note Name: C4
Note ON: Time 447600, Note Name: G4, Velocity: 81
Note ON: Time 447600, Note Name: C5, Velocity: 98
Note ON: Time 447600, Note Name: E4, Velocity: 72
Note OFF: Time 448075, Note Name: E4
Note OFF: Time 448075, Note Name: C5
Note OFF: Time 448075, Note Name: G4
Note ON: Time 448080, Note Name: E5, Velocity: 95
Note ON: Time 448080, Note Name: G4, Velocity: 72
Note ON: Time 448080, Note Name: C5, Velocity: 80
Note OFF: Time 448555, Note Name: C5
Note OFF: Time 448555, Note Name: G4
Note OFF: Time 448555, Note Name: E5
Note ON: Time 448560, Note Name: G5, Velocity: 103
Note ON: Time 448560, Note Name: C5, Velocity: 76
Note ON: Time 448560, Note Name: E5, Velocity: 86
Note OFF: Time 449035, Note Name: E5
Note OFF: Time 449035, Note Name: C5
Note OFF: Time 449035, Note Name: G5
Note ON: Time 449040, Note Name: C6, Velocity: 94
Note ON: Time 449040, Note Name: E5, Velocity: 78
Note ON: Time 449040, Note Name: G5, Velocity: 78
Note OFF: Time 449278, Note Name: G5
Note OFF: Time 449278, Note Name: E5
Note OFF: Time 449278, Note Name: C6
Note ON: Time 449280, Note Name: C5, Velocity: 41
Note OFF: Time 450480, Note Name: C5
Note ON: Time 450480, Note Name: D5, Velocity: 45
Note OFF: Time 450720, Note Name: D5
Note ON: Time 450720, Note Name: D5, Velocity: 38
Note OFF: Time 450800, Note Name: D5
Note ON: Time 450800, Note Name: E5, Velocity: 35
Note ON: Time 450880, Note Name: D5, Velocity: 38
Note OFF: Time 450920, Note Name: E5
Note OFF: Time 450960, Note Name: D5
Note ON: Time 450960, Note Name: E5, Velocity: 36
Note OFF: Time 451040, Note Name: E5
Note ON: Time 451040, Note Name: D5, Velocity: 39
Note OFF: Time 451120, Note Name: D5
Note ON: Time 451120, Note Name: E5, Velocity: 36
Note OFF: Time 451200, Note Name: E5
Note ON: Time 451200, Note Name: D5, Velocity: 38
Note OFF: Time 451280, Note Name: D5
Note ON: Time 451280, Note Name: E5, Velocity: 36
Note OFF: Time 451360, Note Name: E5
Note ON: Time 451360, Note Name: D5, Velocity: 39
Note OFF: Time 451440, Note Name: D5
Note ON: Time 451440, Note Name: E5, Velocity: 37
Note OFF: Time 451520, Note Name: E5
Note ON: Time 451520, Note Name: D5, Velocity: 35
Note OFF: Time 451600, Note Name: D5
Note ON: Time 451600, Note Name: E5, Velocity: 39
Note OFF: Time 451680, Note Name: E5
Note ON: Time 451680, Note Name: D5, Velocity: 35
Note OFF: Time 451800, Note Name: D5
Note ON: Time 451800, Note Name: C5, Velocity: 36
Note OFF: Time 451920, Note Name: C5
Note ON: Time 451920, Note Name: E5, Velocity: 41
Note OFF: Time 452040, Note Name: E5
Note ON: Time 452040, Note Name: D5, Velocity: 38
Note OFF: Time 452160, Note Name: D5
Note ON: Time 452160, Note Name: C4, Velocity: 103
Note OFF: Time 452398, Note Name: C4
Note ON: Time 452400, Note Name: E4, Velocity: 101
Note ON: Time 452400, Note Name: C4, Velocity: 85
Note OFF: Time 452875, Note Name: C4
Note OFF: Time 452875, Note Name: E4
Note ON: Time 452880, Note Name: E4, Velocity: 81
Note ON: Time 452880, Note Name: G4, Velocity: 96
Note ON: Time 452880, Note Name: C4, Velocity: 72
Note OFF: Time 453355, Note Name: C4
Note OFF: Time 453355, Note Name: G4
Note OFF: Time 453355, Note Name: E4
Note ON: Time 453360, Note Name: C5, Velocity: 98
Note ON: Time 453360, Note Name: E4, Velocity: 72
Note ON: Time 453360, Note Name: G4, Velocity: 81
Note OFF: Time 453835, Note Name: G4
Note OFF: Time 453835, Note Name: E4
Note OFF: Time 453835, Note Name: C5
Note ON: Time 453840, Note Name: E5, Velocity: 95
Note ON: Time 453840, Note Name: G4, Velocity: 72
Note ON: Time 453840, Note Name: C5, Velocity: 80
Note OFF: Time 454315, Note Name: C5
Note OFF: Time 454315, Note Name: G4
Note OFF: Time 454315, Note Name: E5
Note ON: Time 454320, Note Name: G5, Velocity: 103
Note ON: Time 454320, Note Name: C5, Velocity: 76
Note ON: Time 454320, Note Name: E5, Velocity: 86
Note OFF: Time 454795, Note Name: E5
Note OFF: Time 454795, Note Name: C5
Note OFF: Time 454795, Note Name: G5
Note ON: Time 454800, Note Name: E5, Velocity: 78
Note ON: Time 454800, Note Name: C6, Velocity: 94
Note ON: Time 454800, Note Name: G5, Velocity: 78
Note OFF: Time 455038, Note Name: G5
Note OFF: Time 455038, Note Name: C6
Note OFF: Time 455038, Note Name: E5
Note ON: Time 455040, Note Name: C5, Velocity: 41
Note OFF: Time 456240, Note Name: C5
Note ON: Time 456240, Note Name: D5, Velocity: 45
Note OFF: Time 456480, Note Name: D5
Note ON: Time 456480, Note Name: D5, Velocity: 44
Note OFF: Time 456560, Note Name: D5
Note ON: Time 456560, Note Name: E5, Velocity: 39
Note OFF: Time 456640, Note Name: E5
Note ON: Time 456640, Note Name: D5, Velocity: 42
Note OFF: Time 456720, Note Name: D5
Note ON: Time 456720, Note Name: E5, Velocity: 37
Note OFF: Time 456800, Note Name: E5
Note ON: Time 456800, Note Name: D5, Velocity: 41
Note OFF: Time 456880, Note Name: D5
Note ON: Time 456880, Note Name: E5, Velocity: 36
Note OFF: Time 456960, Note Name: E5
Note ON: Time 456960, Note Name: D5, Velocity: 40
Note OFF: Time 457040, Note Name: D5
Note ON: Time 457040, Note Name: E5, Velocity: 37
Note OFF: Time 457120, Note Name: E5
Note ON: Time 457120, Note Name: D5, Velocity: 41
Note OFF: Time 457200, Note Name: D5
Note ON: Time 457200, Note Name: E5, Velocity: 38
Note OFF: Time 457320, Note Name: E5
Note ON: Time 457320, Note Name: D5, Velocity: 37
Note OFF: Time 457440, Note Name: D5
Note ON: Time 457440, Note Name: E5, Velocity: 42
Note OFF: Time 457560, Note Name: E5
Note ON: Time 457560, Note Name: D5, Velocity: 41
Note OFF: Time 457680, Note Name: D5
Note ON: Time 457680, Note Name: C5, Velocity: 48
Note OFF: Time 457800, Note Name: C5
Note ON: Time 457800, Note Name: D5, Velocity: 44
Note OFF: Time 457920, Note Name: D5
Note ON: Time 457920, Note Name: G3, Velocity: 81
Note ON: Time 457920, Note Name: E4, Velocity: 103
Note ON: Time 457920, Note Name: A#3, Velocity: 81
Note OFF: Time 458158, Note Name: A#3
Note OFF: Time 458158, Note Name: E4
Note OFF: Time 458158, Note Name: G3
Note ON: Time 458160, Note Name: E4, Velocity: 85
Note ON: Time 458160, Note Name: A#3, Velocity: 85
Note ON: Time 458160, Note Name: G4, Velocity: 101
Note OFF: Time 458635, Note Name: G4
Note OFF: Time 458635, Note Name: A#3
Note OFF: Time 458635, Note Name: E4
Note ON: Time 458640, Note Name: G4, Velocity: 81
Note ON: Time 458640, Note Name: A#4, Velocity: 96
Note ON: Time 458640, Note Name: E4, Velocity: 72
Note OFF: Time 459115, Note Name: E4
Note OFF: Time 459115, Note Name: A#4
Note OFF: Time 459115, Note Name: G4
Note ON: Time 459120, Note Name: A#4, Velocity: 85
Note ON: Time 459120, Note Name: E5, Velocity: 101
Note ON: Time 459120, Note Name: G4, Velocity: 75
Note OFF: Time 459595, Note Name: G4
Note OFF: Time 459595, Note Name: E5
Note OFF: Time 459595, Note Name: A#4
Note ON: Time 459600, Note Name: A#4, Velocity: 72
Note ON: Time 459600, Note Name: G5, Velocity: 95
Note ON: Time 459600, Note Name: E5, Velocity: 80
Note OFF: Time 460075, Note Name: E5
Note OFF: Time 460075, Note Name: G5
Note OFF: Time 460075, Note Name: A#4
Note ON: Time 460080, Note Name: E5, Velocity: 76
Note ON: Time 460080, Note Name: A#5, Velocity: 103
Note ON: Time 460080, Note Name: G5, Velocity: 86
Note OFF: Time 460555, Note Name: G5
Note OFF: Time 460555, Note Name: A#5
Note OFF: Time 460555, Note Name: E5
Note ON: Time 460560, Note Name: G5, Velocity: 78
Note ON: Time 460560, Note Name: E6, Velocity: 94
Note ON: Time 460560, Note Name: A#5, Velocity: 78
Note OFF: Time 460798, Note Name: A#5
Note OFF: Time 460798, Note Name: E6
Note OFF: Time 460798, Note Name: G5
Note ON: Time 460800, Note Name: E5, Velocity: 48
Note OFF: Time 462000, Note Name: E5
Note ON: Time 462000, Note Name: F5, Velocity: 52
Note OFF: Time 462240, Note Name: F5
Note ON: Time 462240, Note Name: F5, Velocity: 46
Note OFF: Time 462320, Note Name: F5
Note ON: Time 462320, Note Name: G5, Velocity: 41
Note OFF: Time 462400, Note Name: G5
Note ON: Time 462400, Note Name: F5, Velocity: 46
Note OFF: Time 462480, Note Name: F5
Note ON: Time 462480, Note Name: G5, Velocity: 41
Note OFF: Time 462560, Note Name: G5
Note ON: Time 462560, Note Name: F5, Velocity: 46
Note OFF: Time 462640, Note Name: F5
Note ON: Time 462640, Note Name: G5, Velocity: 41
Note OFF: Time 462720, Note Name: G5
Note ON: Time 462720, Note Name: F5, Velocity: 46
Note OFF: Time 462800, Note Name: F5
Note ON: Time 462800, Note Name: G5, Velocity: 42
Note OFF: Time 462880, Note Name: G5
Note ON: Time 462880, Note Name: F5, Velocity: 46
Note OFF: Time 462960, Note Name: F5
Note ON: Time 462960, Note Name: G5, Velocity: 43
Note OFF: Time 463080, Note Name: G5
Note ON: Time 463080, Note Name: F5, Velocity: 40
Note OFF: Time 463200, Note Name: F5
Note ON: Time 463200, Note Name: G5, Velocity: 46
Note OFF: Time 463320, Note Name: G5
Note ON: Time 463320, Note Name: F5, Velocity: 42
Note OFF: Time 463440, Note Name: F5
Note ON: Time 463440, Note Name: E5, Velocity: 48
Note OFF: Time 463560, Note Name: E5
Note ON: Time 463560, Note Name: F5, Velocity: 44
Note OFF: Time 463680, Note Name: F5
Note ON: Time 463680, Note Name: G4, Velocity: 103
Note ON: Time 463680, Note Name: E4, Velocity: 81
Note OFF: Time 463918, Note Name: E4
Note OFF: Time 463918, Note Name: G4
Note ON: Time 463920, Note Name: E5, Velocity: 101
Note ON: Time 463920, Note Name: C#5, Velocity: 85
Note OFF: Time 464395, Note Name: C#5
Note OFF: Time 464395, Note Name: E5
Note ON: Time 464400, Note Name: E5, Velocity: 81
Note ON: Time 464400, Note Name: G5, Velocity: 96
Note OFF: Time 464875, Note Name: G5
Note OFF: Time 464875, Note Name: E5
Note ON: Time 464880, Note Name: A#5, Velocity: 101
Note ON: Time 464880, Note Name: G5, Velocity: 85
Note OFF: Time 465355, Note Name: G5
Note OFF: Time 465355, Note Name: A#5
Note ON: Time 465360, Note Name: A#5, Velocity: 80
Note ON: Time 465360, Note Name: C#6, Velocity: 95
Note OFF: Time 465835, Note Name: C#6
Note OFF: Time 465835, Note Name: A#5
Note ON: Time 465840, Note Name: C#6, Velocity: 86
Note ON: Time 465840, Note Name: E6, Velocity: 103
Note OFF: Time 466315, Note Name: E6
Note OFF: Time 466315, Note Name: C#6
Note ON: Time 466320, Note Name: E6, Velocity: 78
Note ON: Time 466320, Note Name: G6, Velocity: 94
Note OFF: Time 466558, Note Name: G6
Note OFF: Time 466558, Note Name: E6
Note ON: Time 466560, Note Name: G5, Velocity: 79
Note ON: Time 466560, Note Name: E5, Velocity: 59
Note OFF: Time 467760, Note Name: G5
Note ON: Time 467760, Note Name: G#5, Velocity: 87
Note OFF: Time 468000, Note Name: G#5
Note OFF: Time 468000, Note Name: E5
Note ON: Time 468000, Note Name: F5, Velocity: 64
Note ON: Time 468000, Note Name: G#5, Velocity: 76
Note OFF: Time 468120, Note Name: G#5
Note ON: Time 468120, Note Name: A#5, Velocity: 68
Note OFF: Time 468240, Note Name: A#5
Note ON: Time 468240, Note Name: G#5, Velocity: 76
Note OFF: Time 468360, Note Name: G#5
Note ON: Time 468360, Note Name: A#5, Velocity: 68
Note OFF: Time 468480, Note Name: A#5
Note ON: Time 468480, Note Name: G#5, Velocity: 76
Note OFF: Time 468600, Note Name: G#5
Note ON: Time 468600, Note Name: A#5, Velocity: 68
Note OFF: Time 468720, Note Name: A#5
Note ON: Time 468720, Note Name: G#5, Velocity: 76
Note OFF: Time 468840, Note Name: G#5
Note ON: Time 468840, Note Name: A#5, Velocity: 67
Note OFF: Time 468960, Note Name: A#5
Note ON: Time 468960, Note Name: G#5, Velocity: 67
Note OFF: Time 469080, Note Name: G#5
Note ON: Time 469080, Note Name: G5, Velocity: 70
Note OFF: Time 469200, Note Name: G5
Note ON: Time 469200, Note Name: A#5, Velocity: 79
Note OFF: Time 469320, Note Name: A#5
Note ON: Time 469320, Note Name: G#5, Velocity: 73
Note OFF: Time 469440, Note Name: G#5
Note OFF: Time 469440, Note Name: F5
Note ON: Time 469440, Note Name: E5, Velocity: 58
Note ON: Time 469440, Note Name: G5, Velocity: 58
Note OFF: Time 470160, Note Name: G5
Note OFF: Time 470160, Note Name: E5
Note ON: Time 472320, Note Name: F5, Velocity: 56
Note ON: Time 472320, Note Name: G#5, Velocity: 56
Note OFF: Time 473040, Note Name: G#5
Note OFF: Time 473040, Note Name: F5
Note ON: Time 475200, Note Name: G#5, Velocity: 75
Note ON: Time 475200, Note Name: F5, Velocity: 75
Note ON: Time 475200, Note Name: C#6, Velocity: 75
Note OFF: Time 478080, Note Name: C#6
Note OFF: Time 478080, Note Name: F5
Note OFF: Time 478080, Note Name: G#5
Note ON: Time 478080, Note Name: G5, Velocity: 52
Note ON: Time 478080, Note Name: E5, Velocity: 52
Note ON: Time 478080, Note Name: C6, Velocity: 52
Note OFF: Time 478560, Note Name: C6
Note OFF: Time 478560, Note Name: E5
Note OFF: Time 478560, Note Name: G5
Note ON: Time 480240, Note Name: E5, Velocity: 56
Note ON: Time 480240, Note Name: G5, Velocity: 56
Note OFF: Time 480840, Note Name: G5
Note OFF: Time 480840, Note Name: E5
Note ON: Time 480840, Note Name: G5, Velocity: 52
Note ON: Time 480840, Note Name: E5, Velocity: 52
Note OFF: Time 480960, Note Name: E5
Note OFF: Time 480960, Note Name: G5
Note ON: Time 480960, Note Name: G#5, Velocity: 58
Note ON: Time 480960, Note Name: F5, Velocity: 58
Note OFF: Time 481440, Note Name: F5
Note OFF: Time 481440, Note Name: G#5
Note ON: Time 481440, Note Name: G5, Velocity: 52
Note ON: Time 481440, Note Name: E5, Velocity: 52
Note OFF: Time 481680, Note Name: E5
Note OFF: Time 481680, Note Name: G5
Note ON: Time 482160, Note Name: G4, Velocity: 50
Note ON: Time 482160, Note Name: E4, Velocity: 50
Note OFF: Time 482400, Note Name: E4
Note OFF: Time 482400, Note Name: G4
Note ON: Time 482880, Note Name: G3, Velocity: 49
Note ON: Time 482880, Note Name: E3, Velocity: 49
Note OFF: Time 483120, Note Name: E3
Note OFF: Time 483120, Note Name: G3
Note ON: Time 483720, Note Name: G5, Velocity: 58
Note ON: Time 483720, Note Name: E5, Velocity: 58
Note OFF: Time 483840, Note Name: E5
Note OFF: Time 483840, Note Name: G5
Note ON: Time 483840, Note Name: A#5, Velocity: 61
Note ON: Time 483840, Note Name: G5, Velocity: 61
Note OFF: Time 484320, Note Name: G5
Note OFF: Time 484320, Note Name: A#5
Note ON: Time 484320, Note Name: F5, Velocity: 52
Note ON: Time 484320, Note Name: G#5, Velocity: 52
Note OFF: Time 484560, Note Name: G#5
Note OFF: Time 484560, Note Name: F5
Note ON: Time 485040, Note Name: F4, Velocity: 49
Note ON: Time 485040, Note Name: G#4, Velocity: 49
Note OFF: Time 485280, Note Name: G#4
Note OFF: Time 485280, Note Name: F4
Note ON: Time 485760, Note Name: F3, Velocity: 47
Note ON: Time 485760, Note Name: G#3, Velocity: 47
Note OFF: Time 485995, Note Name: G#3
Note OFF: Time 485995, Note Name: F3
Note ON: Time 486600, Note Name: F5, Velocity: 52
Note ON: Time 486600, Note Name: G#5, Velocity: 52
Note OFF: Time 486720, Note Name: G#5
Note OFF: Time 486720, Note Name: F5
Note ON: Time 486720, Note Name: G#5, Velocity: 75
Note ON: Time 486720, Note Name: F5, Velocity: 75
Note ON: Time 486720, Note Name: C#6, Velocity: 75
Note OFF: Time 489600, Note Name: C#6
Note OFF: Time 489600, Note Name: F5
Note OFF: Time 489600, Note Name: G#5
Note ON: Time 489600, Note Name: G5, Velocity: 61
Note ON: Time 489600, Note Name: E5, Velocity: 61
Note ON: Time 489600, Note Name: C6, Velocity: 61
Note OFF: Time 490080, Note Name: C6
Note OFF: Time 490080, Note Name: E5
Note OFF: Time 490080, Note Name: G5
Note ON: Time 491040, Note Name: F#4, Velocity: 52
Note ON: Time 491040, Note Name: D#4, Velocity: 52
Note ON: Time 491040, Note Name: C5, Velocity: 52
Note OFF: Time 492480, Note Name: C5
Note OFF: Time 492480, Note Name: D#4
Note OFF: Time 492480, Note Name: F#4
Note ON: Time 492480, Note Name: F4, Velocity: 52
Note ON: Time 492480, Note Name: B4, Velocity: 52
Note ON: Time 492480, Note Name: D4, Velocity: 52
Note OFF: Time 492960, Note Name: D4
Note OFF: Time 492960, Note Name: B4
Note OFF: Time 492960, Note Name: F4
Note ON: Time 493920, Note Name: C#4, Velocity: 46
Note ON: Time 493920, Note Name: A#4, Velocity: 46
Note ON: Time 493920, Note Name: F4, Velocity: 46
Note OFF: Time 494400, Note Name: F4
Note OFF: Time 494400, Note Name: A#4
Note OFF: Time 494400, Note Name: C#4
Note ON: Time 495360, Note Name: C4, Velocity: 41
Note ON: Time 495360, Note Name: G#4, Velocity: 41
Note ON: Time 495360, Note Name: F4, Velocity: 41
Note OFF: Time 496080, Note Name: F4
Note OFF: Time 496080, Note Name: G#4
Note OFF: Time 496080, Note Name: C4
Note ON: Time 503280, Note Name: A3, Velocity: 44
Note OFF: Time 503880, Note Name: A3
Note ON: Time 503880, Note Name: C4, Velocity: 40
Note OFF: Time 504000, Note Name: C4
Note ON: Time 504000, Note Name: F3, Velocity: 38
Note ON: Time 504000, Note Name: F4, Velocity: 41
Note OFF: Time 504720, Note Name: F4
Note OFF: Time 504720, Note Name: F3
Note ON: Time 504720, Note Name: A3, Velocity: 40
Note ON: Time 504720, Note Name: A4, Velocity: 44
Note OFF: Time 505320, Note Name: A4
Note OFF: Time 505320, Note Name: A3
Note ON: Time 505320, Note Name: F4, Velocity: 39
Note ON: Time 505320, Note Name: F3, Velocity: 36
Note OFF: Time 505440, Note Name: F3
Note OFF: Time 505440, Note Name: F4
Note ON: Time 505440, Note Name: E4, Velocity: 41
Note ON: Time 505440, Note Name: E3, Velocity: 38
Note OFF: Time 506160, Note Name: E3
Note OFF: Time 506160, Note Name: E4
Note ON: Time 506160, Note Name: G4, Velocity: 44
Note ON: Time 506160, Note Name: G3, Velocity: 40
Note OFF: Time 506760, Note Name: G3
Note OFF: Time 506760, Note Name: G4
Note ON: Time 506760, Note Name: E4, Velocity: 39
Note ON: Time 506760, Note Name: E3, Velocity: 36
Note OFF: Time 506880, Note Name: E3
Note OFF: Time 506880, Note Name: E4
Note ON: Time 506880, Note Name: F3, Velocity: 38
Note ON: Time 506880, Note Name: F4, Velocity: 41
Note OFF: Time 507600, Note Name: F4
Note OFF: Time 507600, Note Name: F3
Note ON: Time 507600, Note Name: C4, Velocity: 40
Note OFF: Time 509040, Note Name: C4
Note ON: Time 509040, Note Name: D4, Velocity: 44
Note OFF: Time 509640, Note Name: D4
Note ON: Time 509640, Note Name: A#3, Velocity: 40
Note OFF: Time 509760, Note Name: A#3
Note ON: Time 509760, Note Name: A3, Velocity: 44
Note OFF: Time 510480, Note Name: A3
Note ON: Time 510480, Note Name: C4, Velocity: 44
Note OFF: Time 511080, Note Name: C4
Note ON: Time 511080, Note Name: A3, Velocity: 39
Note OFF: Time 511200, Note Name: A3
Note ON: Time 511200, Note Name: G3, Velocity: 44
Note OFF: Time 511920, Note Name: G3
Note ON: Time 511920, Note Name: C4, Velocity: 44
Note OFF: Time 512520, Note Name: C4
Note ON: Time 512520, Note Name: A#3, Velocity: 39
Note OFF: Time 512640, Note Name: A#3
Note ON: Time 512640, Note Name: A3, Velocity: 42
Note OFF: Time 513360, Note Name: A3
Note ON: Time 513360, Note Name: C4, Velocity: 42
Note OFF: Time 514800, Note Name: C4
Note ON: Time 514800, Note Name: A4, Velocity: 55
Note OFF: Time 515400, Note Name: A4
Note ON: Time 515400, Note Name: C5, Velocity: 53
Note OFF: Time 515520, Note Name: C5
Note ON: Time 515520, Note Name: F4, Velocity: 51
Note ON: Time 515520, Note Name: F5, Velocity: 56
Note OFF: Time 516240, Note Name: F5
Note OFF: Time 516240, Note Name: F4
Note ON: Time 516240, Note Name: A5, Velocity: 62
Note ON: Time 516240, Note Name: A4, Velocity: 57
Note OFF: Time 516840, Note Name: A4
Note OFF: Time 516840, Note Name: A5
Note ON: Time 516840, Note Name: F5, Velocity: 58
Note ON: Time 516840, Note Name: F4, Velocity: 53
Note OFF: Time 516960, Note Name: F4
Note OFF: Time 516960, Note Name: F5
Note ON: Time 516960, Note Name: E5, Velocity: 61
Note ON: Time 516960, Note Name: E4, Velocity: 57
Note OFF: Time 517680, Note Name: E4
Note OFF: Time 517680, Note Name: E5
Note ON: Time 517680, Note Name: G5, Velocity: 68
Note ON: Time 517680, Note Name: G4, Velocity: 62
Note OFF: Time 518280, Note Name: G4
Note OFF: Time 518280, Note Name: G5
Note ON: Time 518280, Note Name: E5, Velocity: 63
Note ON: Time 518280, Note Name: E4, Velocity: 58
Note OFF: Time 518400, Note Name: E4
Note OFF: Time 518400, Note Name: E5
Note ON: Time 518400, Note Name: F5, Velocity: 57
Note ON: Time 518400, Note Name: F4, Velocity: 51
Note OFF: Time 519120, Note Name: F4
Note OFF: Time 519120, Note Name: F5
Note ON: Time 519120, Note Name: C4, Velocity: 48
Note ON: Time 519120, Note Name: C5, Velocity: 52
Note OFF: Time 521280, Note Name: C5
Note OFF: Time 521280, Note Name: C4
Note ON: Time 521280, Note Name: C#4, Velocity: 72
Note ON: Time 521280, Note Name: C#5, Velocity: 85
Note OFF: Time 522000, Note Name: C#5
Note OFF: Time 522000, Note Name: C#4
Note ON: Time 522000, Note Name: A#3, Velocity: 69
Note ON: Time 522000, Note Name: A#4, Velocity: 81
Note OFF: Time 524160, Note Name: A#4
Note OFF: Time 524160, Note Name: A#3
Note ON: Time 524160, Note Name: G#4, Velocity: 58
Note OFF: Time 526320, Note Name: G#4
Note ON: Time 526320, Note Name: G4, Velocity: 51
Note OFF: Time 526800, Note Name: G4
Note ON: Time 526800, Note Name: F4, Velocity: 49
Note OFF: Time 527040, Note Name: F4
Note ON: Time 527040, Note Name: G4, Velocity: 46
Note OFF: Time 527160, Note Name: G4
Note ON: Time 527160, Note Name: G#4, Velocity: 39
Note OFF: Time 527280, Note Name: G#4
Note ON: Time 527280, Note Name: G4, Velocity: 46
Note OFF: Time 527400, Note Name: G4
Note ON: Time 527400, Note Name: G#4, Velocity: 40
Note OFF: Time 527520, Note Name: G#4
Note ON: Time 527520, Note Name: G4, Velocity: 47
Note OFF: Time 527640, Note Name: G4
Note ON: Time 527640, Note Name: G#4, Velocity: 40
Note OFF: Time 527760, Note Name: G#4
Note ON: Time 527760, Note Name: G4, Velocity: 48
Note OFF: Time 527880, Note Name: G4
Note ON: Time 527880, Note Name: G#4, Velocity: 41
Note OFF: Time 528000, Note Name: G#4
Note ON: Time 528000, Note Name: G4, Velocity: 49
Note OFF: Time 528120, Note Name: G4
Note ON: Time 528120, Note Name: G#4, Velocity: 42
Note OFF: Time 528240, Note Name: G#4
Note ON: Time 528240, Note Name: G4, Velocity: 50
Note OFF: Time 528360, Note Name: G4
Note ON: Time 528360, Note Name: G#4, Velocity: 42
Note OFF: Time 528480, Note Name: G#4
Note ON: Time 528480, Note Name: G4, Velocity: 51
Note OFF: Time 528600, Note Name: G4
Note ON: Time 528600, Note Name: G#4, Velocity: 44
Note OFF: Time 528720, Note Name: G#4
Note ON: Time 528720, Note Name: G4, Velocity: 51
Note OFF: Time 528840, Note Name: G4
Note ON: Time 528840, Note Name: G#4, Velocity: 45
Note OFF: Time 528960, Note Name: G#4
Note ON: Time 528960, Note Name: G4, Velocity: 52
Note OFF: Time 529080, Note Name: G4
Note ON: Time 529080, Note Name: G#4, Velocity: 46
Note OFF: Time 529200, Note Name: G#4
Note ON: Time 529200, Note Name: G4, Velocity: 53
Note OFF: Time 529320, Note Name: G4
Note ON: Time 529320, Note Name: G#4, Velocity: 48
Note OFF: Time 529440, Note Name: G#4
Note ON: Time 529440, Note Name: G4, Velocity: 55
Note OFF: Time 529560, Note Name: G4
Note ON: Time 529560, Note Name: G#4, Velocity: 48
Note OFF: Time 529680, Note Name: G#4
Note ON: Time 529680, Note Name: G4, Velocity: 56
Note OFF: Time 529800, Note Name: G4
Note ON: Time 529800, Note Name: G#4, Velocity: 48
Note OFF: Time 529920, Note Name: G#4
Note ON: Time 529920, Note Name: C#5, Velocity: 46
Note OFF: Time 530040, Note Name: C#5
Note ON: Time 530040, Note Name: C5, Velocity: 39
Note OFF: Time 530160, Note Name: C5
Note ON: Time 530160, Note Name: C#5, Velocity: 46
Note OFF: Time 530280, Note Name: C#5
Note ON: Time 530280, Note Name: C5, Velocity: 40
Note OFF: Time 530400, Note Name: C5
Note ON: Time 530400, Note Name: C#5, Velocity: 48
Note OFF: Time 530520, Note Name: C#5
Note ON: Time 530520, Note Name: C5, Velocity: 41
Note OFF: Time 530640, Note Name: C5
Note ON: Time 530640, Note Name: C#5, Velocity: 50
Note OFF: Time 530760, Note Name: C#5
Note ON: Time 530760, Note Name: C5, Velocity: 44
Note OFF: Time 530880, Note Name: C5
Note ON: Time 530880, Note Name: C#5, Velocity: 51
Note OFF: Time 531000, Note Name: C#5
Note ON: Time 531000, Note Name: C5, Velocity: 45
Note OFF: Time 531120, Note Name: C5
Note ON: Time 531120, Note Name: C#5, Velocity: 53
Note OFF: Time 531240, Note Name: C#5
Note ON: Time 531240, Note Name: C5, Velocity: 47
Note OFF: Time 531360, Note Name: C5
Note ON: Time 531360, Note Name: C#5, Velocity: 56
Note OFF: Time 531480, Note Name: C#5
Note ON: Time 531480, Note Name: C5, Velocity: 48
Note OFF: Time 531600, Note Name: C5
Note ON: Time 531600, Note Name: C#5, Velocity: 56
Note OFF: Time 531720, Note Name: C#5
Note ON: Time 531720, Note Name: C5, Velocity: 47
Note OFF: Time 531840, Note Name: C5
Note ON: Time 531840, Note Name: C#5, Velocity: 56
Note OFF: Time 531960, Note Name: C#5
Note ON: Time 531960, Note Name: C5, Velocity: 48
Note OFF: Time 532080, Note Name: C5
Note ON: Time 532080, Note Name: C#5, Velocity: 56
Note OFF: Time 532200, Note Name: C#5
Note ON: Time 532200, Note Name: C5, Velocity: 49
Note OFF: Time 532320, Note Name: C5
Note ON: Time 532320, Note Name: C#5, Velocity: 56
Note OFF: Time 532440, Note Name: C#5
Note ON: Time 532440, Note Name: C5, Velocity: 49
Note OFF: Time 532560, Note Name: C5
Note ON: Time 532560, Note Name: B4, Velocity: 56
Note OFF: Time 532680, Note Name: B4
Note ON: Time 532680, Note Name: C5, Velocity: 48
Note OFF: Time 532800, Note Name: C5
Note ON: Time 532800, Note Name: C#6, Velocity: 49
Note OFF: Time 532920, Note Name: C#6
Note ON: Time 532920, Note Name: C6, Velocity: 41
Note OFF: Time 533040, Note Name: C6
Note ON: Time 533040, Note Name: C#6, Velocity: 49
Note OFF: Time 533160, Note Name: C#6
Note ON: Time 533160, Note Name: C6, Velocity: 43
Note OFF: Time 533280, Note Name: C6
Note ON: Time 533280, Note Name: C#6, Velocity: 51
Note OFF: Time 533400, Note Name: C#6
Note ON: Time 533400, Note Name: C6, Velocity: 45
Note OFF: Time 533520, Note Name: C6
Note ON: Time 533520, Note Name: C#6, Velocity: 54
Note OFF: Time 533640, Note Name: C#6
Note ON: Time 533640, Note Name: C6, Velocity: 45
Note OFF: Time 533760, Note Name: C6
Note ON: Time 533760, Note Name: C#6, Velocity: 55
Note OFF: Time 533880, Note Name: C#6
Note ON: Time 533880, Note Name: C6, Velocity: 46
Note OFF: Time 534000, Note Name: C6
Note ON: Time 534000, Note Name: C#6, Velocity: 56
Note OFF: Time 534120, Note Name: C#6
Note ON: Time 534120, Note Name: C6, Velocity: 49
Note OFF: Time 534240, Note Name: C6
Note ON: Time 534240, Note Name: C#6, Velocity: 60
Note OFF: Time 534360, Note Name: C#6
Note ON: Time 534360, Note Name: C6, Velocity: 49
Note OFF: Time 534480, Note Name: C6
Note ON: Time 534480, Note Name: C#6, Velocity: 58
Note OFF: Time 534600, Note Name: C#6
Note ON: Time 534600, Note Name: C6, Velocity: 48
Note OFF: Time 534720, Note Name: C6
Note ON: Time 534720, Note Name: C#6, Velocity: 55
Note OFF: Time 534840, Note Name: C#6
Note ON: Time 534840, Note Name: C6, Velocity: 45
Note OFF: Time 534960, Note Name: C6
Note ON: Time 534960, Note Name: C#6, Velocity: 54
Note OFF: Time 535080, Note Name: C#6
Note ON: Time 535080, Note Name: C6, Velocity: 45
Note OFF: Time 535200, Note Name: C6
Note ON: Time 535200, Note Name: C#6, Velocity: 52
Note OFF: Time 535320, Note Name: C#6
Note ON: Time 535320, Note Name: C6, Velocity: 44
Note OFF: Time 535440, Note Name: C6
Note ON: Time 535440, Note Name: B5, Velocity: 50
Note OFF: Time 535560, Note Name: B5
Note ON: Time 535560, Note Name: C6, Velocity: 40
Note OFF: Time 535680, Note Name: C6
Note ON: Time 535680, Note Name: C#6, Velocity: 47
Note OFF: Time 535920, Note Name: C#6
Note ON: Time 535920, Note Name: C6, Velocity: 47
Note OFF: Time 536160, Note Name: C6
Note ON: Time 536160, Note Name: A#5, Velocity: 45
Note OFF: Time 536400, Note Name: A#5
Note ON: Time 536400, Note Name: G#5, Velocity: 42
Note OFF: Time 536640, Note Name: G#5
Note ON: Time 536640, Note Name: G5, Velocity: 43
Note OFF: Time 536880, Note Name: G5
Note ON: Time 536880, Note Name: F#5, Velocity: 42
Note OFF: Time 537120, Note Name: F#5
Note ON: Time 537120, Note Name: F5, Velocity: 42
Note OFF: Time 537360, Note Name: F5
Note ON: Time 537360, Note Name: E5, Velocity: 42
Note OFF: Time 537600, Note Name: E5
Note ON: Time 537600, Note Name: D#5, Velocity: 42
Note OFF: Time 537840, Note Name: D#5
Note ON: Time 537840, Note Name: C#5, Velocity: 42
Note OFF: Time 538080, Note Name: C#5
Note ON: Time 538080, Note Name: C5, Velocity: 41
Note OFF: Time 538320, Note Name: C5
Note ON: Time 538320, Note Name: A#4, Velocity: 41
Note OFF: Time 538560, Note Name: A#4
Note ON: Time 538560, Note Name: G#4, Velocity: 41
Note OFF: Time 538800, Note Name: G#4
Note ON: Time 538800, Note Name: G4, Velocity: 39
Note OFF: Time 539040, Note Name: G4
Note ON: Time 539040, Note Name: F#4, Velocity: 39
Note OFF: Time 539280, Note Name: F#4
Note ON: Time 539280, Note Name: F4, Velocity: 38
Note OFF: Time 539520, Note Name: F4
Note ON: Time 539520, Note Name: E4, Velocity: 37
Note OFF: Time 539760, Note Name: E4
Note ON: Time 539760, Note Name: D#4, Velocity: 36
Note OFF: Time 540000, Note Name: D#4
Note ON: Time 540000, Note Name: C#4, Velocity: 36
Note OFF: Time 540240, Note Name: C#4
Note ON: Time 540240, Note Name: C4, Velocity: 36
Note OFF: Time 540480, Note Name: C4
Note ON: Time 540480, Note Name: A#3, Velocity: 35
Note OFF: Time 540720, Note Name: A#3
Note ON: Time 547200, Note Name: F3, Velocity: 83
Note OFF: Time 547320, Note Name: F3
Note ON: Time 547320, Note Name: C3, Velocity: 66
Note OFF: Time 547440, Note Name: C3
Note ON: Time 547440, Note Name: G#2, Velocity: 66
Note OFF: Time 547560, Note Name: G#2
Note ON: Time 547560, Note Name: C3, Velocity: 66
Note OFF: Time 547680, Note Name: C3
Note ON: Time 547680, Note Name: F3, Velocity: 72
Note OFF: Time 547800, Note Name: F3
Note ON: Time 547800, Note Name: C3, Velocity: 64
Note OFF: Time 547920, Note Name: C3
Note ON: Time 547920, Note Name: G#3, Velocity: 84
Note OFF: Time 548040, Note Name: G#3
Note ON: Time 548040, Note Name: C3, Velocity: 66
Note OFF: Time 548160, Note Name: C3
Note ON: Time 548160, Note Name: G3, Velocity: 83
Note OFF: Time 548280, Note Name: G3
Note ON: Time 548280, Note Name: C3, Velocity: 66
Note OFF: Time 548400, Note Name: C3
Note ON: Time 548400, Note Name: F3, Velocity: 81
Note OFF: Time 548520, Note Name: F3
Note ON: Time 548520, Note Name: C3, Velocity: 66
Note OFF: Time 548640, Note Name: C3
Note ON: Time 548640, Note Name: F3, Velocity: 83
Note OFF: Time 548760, Note Name: F3
Note ON: Time 548760, Note Name: C3, Velocity: 63
Note OFF: Time 548880, Note Name: C3
Note ON: Time 548880, Note Name: G#2, Velocity: 63
Note OFF: Time 549000, Note Name: G#2
Note ON: Time 549000, Note Name: C3, Velocity: 63
Note OFF: Time 549120, Note Name: C3
Note ON: Time 549120, Note Name: F3, Velocity: 66
Note OFF: Time 549240, Note Name: F3
Note ON: Time 549240, Note Name: C3, Velocity: 62
Note OFF: Time 549360, Note Name: C3
Note ON: Time 549360, Note Name: G#3, Velocity: 83
Note OFF: Time 549480, Note Name: G#3
Note ON: Time 549480, Note Name: C3, Velocity: 63
Note OFF: Time 549600, Note Name: C3
Note ON: Time 549600, Note Name: G3, Velocity: 80
Note OFF: Time 549720, Note Name: G3
Note ON: Time 549720, Note Name: C3, Velocity: 66
Note OFF: Time 549840, Note Name: C3
Note ON: Time 549840, Note Name: F3, Velocity: 80
Note OFF: Time 549960, Note Name: F3
Note ON: Time 549960, Note Name: C3, Velocity: 64
Note OFF: Time 550080, Note Name: C3
Note ON: Time 550080, Note Name: C#4, Velocity: 83
Note OFF: Time 550200, Note Name: C#4
Note ON: Time 550200, Note Name: G#3, Velocity: 66
Note OFF: Time 550320, Note Name: G#3
Note ON: Time 550320, Note Name: F3, Velocity: 66
Note OFF: Time 550440, Note Name: F3
Note ON: Time 550440, Note Name: G#3, Velocity: 66
Note OFF: Time 550560, Note Name: G#3
Note ON: Time 550560, Note Name: C#4, Velocity: 77
Note OFF: Time 550680, Note Name: C#4
Note ON: Time 550680, Note Name: G#3, Velocity: 64
Note OFF: Time 550800, Note Name: G#3
Note ON: Time 550800, Note Name: F4, Velocity: 84
Note OFF: Time 550920, Note Name: F4
Note ON: Time 550920, Note Name: G#3, Velocity: 66
Note OFF: Time 551040, Note Name: G#3
Note ON: Time 551040, Note Name: D#4, Velocity: 83
Note OFF: Time 551160, Note Name: D#4
Note ON: Time 551160, Note Name: G#3, Velocity: 66
Note OFF: Time 551280, Note Name: G#3
Note ON: Time 551280, Note Name: C#4, Velocity: 81
Note OFF: Time 551400, Note Name: C#4
Note ON: Time 551400, Note Name: G#3, Velocity: 66
Note OFF: Time 551520, Note Name: G#3
Note ON: Time 551520, Note Name: C#4, Velocity: 83
Note OFF: Time 551640, Note Name: C#4
Note ON: Time 551640, Note Name: G#3, Velocity: 63
Note OFF: Time 551760, Note Name: G#3
Note ON: Time 551760, Note Name: F3, Velocity: 63
Note OFF: Time 551880, Note Name: F3
Note ON: Time 551880, Note Name: G#3, Velocity: 63
Note OFF: Time 552000, Note Name: G#3
Note ON: Time 552000, Note Name: C#4, Velocity: 75
Note OFF: Time 552120, Note Name: C#4
Note ON: Time 552120, Note Name: G#3, Velocity: 62
Note OFF: Time 552240, Note Name: G#3
Note ON: Time 552240, Note Name: F4, Velocity: 83
Note OFF: Time 552360, Note Name: F4
Note ON: Time 552360, Note Name: G#3, Velocity: 63
Note OFF: Time 552480, Note Name: G#3
Note ON: Time 552480, Note Name: D#4, Velocity: 80
Note OFF: Time 552600, Note Name: D#4
Note ON: Time 552600, Note Name: G#3, Velocity: 66
Note OFF: Time 552720, Note Name: G#3
Note ON: Time 552720, Note Name: C#4, Velocity: 80
Note OFF: Time 552840, Note Name: C#4
Note ON: Time 552840, Note Name: G#3, Velocity: 64
Note OFF: Time 552960, Note Name: G#3
Note ON: Time 552960, Note Name: A#4, Velocity: 93
Note OFF: Time 553080, Note Name: A#4
Note ON: Time 553080, Note Name: C#5, Velocity: 74
Note OFF: Time 553200, Note Name: C#5
Note ON: Time 553200, Note Name: A#4, Velocity: 76
Note OFF: Time 553320, Note Name: A#4
Note ON: Time 553320, Note Name: C#5, Velocity: 67
Note OFF: Time 553440, Note Name: C#5
Note ON: Time 553440, Note Name: A#4, Velocity: 72
Note OFF: Time 553560, Note Name: A#4
Note ON: Time 553560, Note Name: C#5, Velocity: 67
Note OFF: Time 553680, Note Name: C#5
Note ON: Time 553680, Note Name: A#4, Velocity: 72
Note OFF: Time 553800, Note Name: A#4
Note ON: Time 553800, Note Name: C#5, Velocity: 67
Note OFF: Time 553920, Note Name: C#5
Note ON: Time 553920, Note Name: A#4, Velocity: 72
Note OFF: Time 554040, Note Name: A#4
Note ON: Time 554040, Note Name: C#5, Velocity: 67
Note OFF: Time 554160, Note Name: C#5
Note ON: Time 554160, Note Name: A#4, Velocity: 72
Note OFF: Time 554280, Note Name: A#4
Note ON: Time 554280, Note Name: C#5, Velocity: 67
Note OFF: Time 554400, Note Name: C#5
Note ON: Time 554400, Note Name: A#4, Velocity: 76
Note OFF: Time 554520, Note Name: A#4
Note ON: Time 554520, Note Name: C#5, Velocity: 67
Note OFF: Time 554640, Note Name: C#5
Note ON: Time 554640, Note Name: A#4, Velocity: 76
Note OFF: Time 554760, Note Name: A#4
Note ON: Time 554760, Note Name: C#5, Velocity: 67
Note OFF: Time 554880, Note Name: C#5
Note ON: Time 554880, Note Name: A#4, Velocity: 76
Note OFF: Time 555000, Note Name: A#4
Note ON: Time 555000, Note Name: C#5, Velocity: 67
Note OFF: Time 555120, Note Name: C#5
Note ON: Time 555120, Note Name: A#4, Velocity: 95
Note OFF: Time 555240, Note Name: A#4
Note ON: Time 555240, Note Name: C#5, Velocity: 78
Note OFF: Time 555360, Note Name: C#5
Note ON: Time 555360, Note Name: G4, Velocity: 89
Note OFF: Time 555480, Note Name: G4
Note ON: Time 555480, Note Name: A#4, Velocity: 78
Note OFF: Time 555600, Note Name: A#4
Note ON: Time 555600, Note Name: E4, Velocity: 84
Note OFF: Time 555720, Note Name: E4
Note ON: Time 555720, Note Name: G4, Velocity: 77
Note OFF: Time 555840, Note Name: G4
Note ON: Time 555840, Note Name: C#4, Velocity: 82
Note OFF: Time 555960, Note Name: C#4
Note ON: Time 555960, Note Name: E4, Velocity: 70
Note OFF: Time 556080, Note Name: E4
Note ON: Time 556080, Note Name: A#3, Velocity: 81
Note OFF: Time 556200, Note Name: A#3
Note ON: Time 556200, Note Name: C#4, Velocity: 71
Note OFF: Time 556320, Note Name: C#4
Note ON: Time 556320, Note Name: G3, Velocity: 82
Note OFF: Time 556440, Note Name: G3
Note ON: Time 556440, Note Name: A#3, Velocity: 68
Note OFF: Time 556560, Note Name: A#3
Note ON: Time 556560, Note Name: F3, Velocity: 81
Note OFF: Time 556680, Note Name: F3
Note ON: Time 556680, Note Name: G3, Velocity: 70
Note OFF: Time 556800, Note Name: G3
Note ON: Time 556800, Note Name: A#3, Velocity: 80
Note OFF: Time 556920, Note Name: A#3
Note ON: Time 556920, Note Name: G3, Velocity: 70
Note OFF: Time 557040, Note Name: G3
Note ON: Time 557040, Note Name: F3, Velocity: 80
Note OFF: Time 557160, Note Name: F3
Note ON: Time 557160, Note Name: G3, Velocity: 69
Note OFF: Time 557280, Note Name: G3
Note ON: Time 557400, Note Name: F3, Velocity: 70
Note OFF: Time 557520, Note Name: F3
Note ON: Time 557520, Note Name: A#3, Velocity: 80
Note OFF: Time 557640, Note Name: A#3
Note ON: Time 557640, Note Name: G3, Velocity: 69
Note OFF: Time 557760, Note Name: G3
Note ON: Time 557760, Note Name: F3, Velocity: 77
Note OFF: Time 557880, Note Name: F3
Note ON: Time 557880, Note Name: A#3, Velocity: 70
Note OFF: Time 558000, Note Name: A#3
Note ON: Time 558120, Note Name: E3, Velocity: 69
Note OFF: Time 558240, Note Name: E3
Note ON: Time 558240, Note Name: A#3, Velocity: 80
Note OFF: Time 558360, Note Name: A#3
Note ON: Time 558360, Note Name: G3, Velocity: 69
Note OFF: Time 558480, Note Name: G3
Note ON: Time 558480, Note Name: E3, Velocity: 78
Note OFF: Time 558600, Note Name: E3
Note ON: Time 558600, Note Name: A#3, Velocity: 69
Note OFF: Time 558720, Note Name: A#3
Note ON: Time 558720, Note Name: F4, Velocity: 83
Note OFF: Time 558840, Note Name: F4
Note ON: Time 558840, Note Name: C4, Velocity: 66
Note OFF: Time 558960, Note Name: C4
Note ON: Time 558960, Note Name: G#3, Velocity: 66
Note OFF: Time 559080, Note Name: G#3
Note ON: Time 559080, Note Name: C4, Velocity: 66
Note OFF: Time 559200, Note Name: C4
Note ON: Time 559200, Note Name: F4, Velocity: 80
Note OFF: Time 559320, Note Name: F4
Note ON: Time 559320, Note Name: C4, Velocity: 64
Note OFF: Time 559440, Note Name: C4
Note ON: Time 559440, Note Name: G#4, Velocity: 84
Note OFF: Time 559560, Note Name: G#4
Note ON: Time 559560, Note Name: C4, Velocity: 66
Note OFF: Time 559680, Note Name: C4
Note ON: Time 559680, Note Name: G4, Velocity: 83
Note OFF: Time 559800, Note Name: G4
Note ON: Time 559800, Note Name: C4, Velocity: 66
Note OFF: Time 559920, Note Name: C4
Note ON: Time 559920, Note Name: F4, Velocity: 81
Note OFF: Time 560040, Note Name: F4
Note ON: Time 560040, Note Name: C4, Velocity: 66
Note OFF: Time 560160, Note Name: C4
Note ON: Time 560160, Note Name: F4, Velocity: 83
Note OFF: Time 560280, Note Name: F4
Note ON: Time 560280, Note Name: C4, Velocity: 63
Note OFF: Time 560400, Note Name: C4
Note ON: Time 560400, Note Name: G#3, Velocity: 63
Note OFF: Time 560520, Note Name: G#3
Note ON: Time 560520, Note Name: C4, Velocity: 63
Note OFF: Time 560640, Note Name: C4
Note ON: Time 560640, Note Name: F4, Velocity: 80
Note OFF: Time 560760, Note Name: F4
Note ON: Time 560760, Note Name: C4, Velocity: 62
Note OFF: Time 560880, Note Name: C4
Note ON: Time 560880, Note Name: G#4, Velocity: 83
Note OFF: Time 561000, Note Name: G#4
Note ON: Time 561000, Note Name: C4, Velocity: 63
Note OFF: Time 561120, Note Name: C4
Note ON: Time 561120, Note Name: G4, Velocity: 80
Note OFF: Time 561240, Note Name: G4
Note ON: Time 561240, Note Name: C4, Velocity: 66
Note OFF: Time 561360, Note Name: C4
Note ON: Time 561360, Note Name: F4, Velocity: 80
Note OFF: Time 561480, Note Name: F4
Note ON: Time 561480, Note Name: C4, Velocity: 64
Note OFF: Time 561600, Note Name: C4
Note ON: Time 561600, Note Name: C#5, Velocity: 83
Note OFF: Time 561720, Note Name: C#5
Note ON: Time 561720, Note Name: G#4, Velocity: 66
Note OFF: Time 561840, Note Name: G#4
Note ON: Time 561840, Note Name: F4, Velocity: 66
Note OFF: Time 561960, Note Name: F4
Note ON: Time 561960, Note Name: G#4, Velocity: 66
Note OFF: Time 562080, Note Name: G#4
Note ON: Time 562080, Note Name: C#5, Velocity: 80
Note OFF: Time 562200, Note Name: C#5
Note ON: Time 562200, Note Name: G#4, Velocity: 64
Note OFF: Time 562320, Note Name: G#4
Note ON: Time 562320, Note Name: F5, Velocity: 84
Note OFF: Time 562440, Note Name: F5
Note ON: Time 562440, Note Name: G#4, Velocity: 66
Note OFF: Time 562560, Note Name: G#4
Note ON: Time 562560, Note Name: D#5, Velocity: 83
Note OFF: Time 562680, Note Name: D#5
Note ON: Time 562680, Note Name: G#4, Velocity: 66
Note OFF: Time 562800, Note Name: G#4
Note ON: Time 562800, Note Name: C#5, Velocity: 81
Note OFF: Time 562920, Note Name: C#5
Note ON: Time 562920, Note Name: G#4, Velocity: 66
Note OFF: Time 563040, Note Name: G#4
Note ON: Time 563040, Note Name: C#5, Velocity: 83
Note OFF: Time 563160, Note Name: C#5
Note ON: Time 563160, Note Name: G#4, Velocity: 63
Note OFF: Time 563280, Note Name: G#4
Note ON: Time 563280, Note Name: F4, Velocity: 63
Note OFF: Time 563400, Note Name: F4
Note ON: Time 563400, Note Name: G#4, Velocity: 63
Note OFF: Time 563520, Note Name: G#4
Note ON: Time 563520, Note Name: C#5, Velocity: 80
Note OFF: Time 563640, Note Name: C#5
Note ON: Time 563640, Note Name: G#4, Velocity: 62
Note OFF: Time 563760, Note Name: G#4
Note ON: Time 563760, Note Name: F5, Velocity: 83
Note OFF: Time 563880, Note Name: F5
Note ON: Time 563880, Note Name: G#4, Velocity: 63
Note OFF: Time 564000, Note Name: G#4
Note ON: Time 564000, Note Name: D#5, Velocity: 80
Note OFF: Time 564120, Note Name: D#5
Note ON: Time 564120, Note Name: G#4, Velocity: 66
Note OFF: Time 564240, Note Name: G#4
Note ON: Time 564240, Note Name: C#5, Velocity: 80
Note OFF: Time 564360, Note Name: C#5
Note ON: Time 564360, Note Name: G#4, Velocity: 64
Note OFF: Time 564480, Note Name: G#4
Note ON: Time 564480, Note Name: A#5, Velocity: 93
Note OFF: Time 564600, Note Name: A#5
Note ON: Time 564600, Note Name: C#6, Velocity: 75
Note OFF: Time 564720, Note Name: C#6
Note ON: Time 564720, Note Name: A#5, Velocity: 80
Note OFF: Time 564840, Note Name: A#5
Note ON: Time 564840, Note Name: C#6, Velocity: 69
Note OFF: Time 564960, Note Name: C#6
Note ON: Time 564960, Note Name: A#5, Velocity: 77
Note OFF: Time 565080, Note Name: A#5
Note ON: Time 565080, Note Name: C#6, Velocity: 69
Note OFF: Time 565200, Note Name: C#6
Note ON: Time 565200, Note Name: A#5, Velocity: 78
Note OFF: Time 565320, Note Name: A#5
Note ON: Time 565320, Note Name: C#6, Velocity: 69
Note OFF: Time 565440, Note Name: C#6
Note ON: Time 565440, Note Name: A#5, Velocity: 74
Note OFF: Time 565560, Note Name: A#5
Note ON: Time 565560, Note Name: C#6, Velocity: 69
Note OFF: Time 565680, Note Name: C#6
Note ON: Time 565680, Note Name: A#5, Velocity: 74
Note OFF: Time 565800, Note Name: A#5
Note ON: Time 565800, Note Name: C#6, Velocity: 69
Note OFF: Time 565920, Note Name: C#6
Note ON: Time 565920, Note Name: A#5, Velocity: 74
Note OFF: Time 566040, Note Name: A#5
Note ON: Time 566040, Note Name: C#6, Velocity: 69
Note OFF: Time 566160, Note Name: C#6
Note ON: Time 566160, Note Name: A#5, Velocity: 74
Note OFF: Time 566280, Note Name: A#5
Note ON: Time 566280, Note Name: C#6, Velocity: 69
Note OFF: Time 566400, Note Name: C#6
Note ON: Time 566400, Note Name: A#5, Velocity: 74
Note OFF: Time 566520, Note Name: A#5
Note ON: Time 566520, Note Name: C#6, Velocity: 69
Note OFF: Time 566640, Note Name: C#6
Note ON: Time 566640, Note Name: A#5, Velocity: 75
Note OFF: Time 566760, Note Name: A#5
Note ON: Time 566760, Note Name: C#6, Velocity: 69
Note OFF: Time 566880, Note Name: C#6
Note ON: Time 566880, Note Name: A#5, Velocity: 77
Note OFF: Time 567000, Note Name: A#5
Note ON: Time 567000, Note Name: C#6, Velocity: 69
Note OFF: Time 567120, Note Name: C#6
Note ON: Time 567120, Note Name: A#5, Velocity: 77
Note OFF: Time 567240, Note Name: A#5
Note ON: Time 567240, Note Name: C#6, Velocity: 69
Note OFF: Time 567360, Note Name: C#6
Note ON: Time 567360, Note Name: A#5, Velocity: 82
Note OFF: Time 567480, Note Name: A#5
Note ON: Time 567480, Note Name: C#6, Velocity: 70
Note OFF: Time 567600, Note Name: C#6
Note ON: Time 567600, Note Name: G5, Velocity: 81
Note OFF: Time 567720, Note Name: G5
Note ON: Time 567720, Note Name: A#5, Velocity: 71
Note OFF: Time 567840, Note Name: A#5
Note ON: Time 567840, Note Name: F5, Velocity: 82
Note OFF: Time 567960, Note Name: F5
Note ON: Time 567960, Note Name: G5, Velocity: 68
Note OFF: Time 568080, Note Name: G5
Note ON: Time 568080, Note Name: F5, Velocity: 81
Note OFF: Time 568200, Note Name: F5
Note ON: Time 568200, Note Name: G5, Velocity: 70
Note OFF: Time 568320, Note Name: G5
Note ON: Time 568320, Note Name: A#5, Velocity: 80
Note OFF: Time 568440, Note Name: A#5
Note ON: Time 568440, Note Name: G5, Velocity: 70
Note OFF: Time 568560, Note Name: G5
Note ON: Time 568560, Note Name: F5, Velocity: 80
Note OFF: Time 568680, Note Name: F5
Note ON: Time 568680, Note Name: G5, Velocity: 69
Note OFF: Time 568800, Note Name: G5
Note ON: Time 568920, Note Name: F5, Velocity: 72
Note OFF: Time 569040, Note Name: F5
Note ON: Time 569040, Note Name: A#5, Velocity: 82
Note OFF: Time 569160, Note Name: A#5
Note ON: Time 569160, Note Name: G5, Velocity: 70
Note OFF: Time 569280, Note Name: G5
Note ON: Time 569280, Note Name: F5, Velocity: 77
Note OFF: Time 569400, Note Name: F5
Note ON: Time 569400, Note Name: A#5, Velocity: 69
Note OFF: Time 569520, Note Name: A#5
Note ON: Time 569640, Note Name: E5, Velocity: 67
Note OFF: Time 569760, Note Name: E5
Note ON: Time 569760, Note Name: A#5, Velocity: 75
Note OFF: Time 569880, Note Name: A#5
Note ON: Time 569880, Note Name: G5, Velocity: 64
Note OFF: Time 570000, Note Name: G5
Note ON: Time 570000, Note Name: E5, Velocity: 72
Note OFF: Time 570120, Note Name: E5
Note ON: Time 570120, Note Name: A#5, Velocity: 62
Note OFF: Time 570240, Note Name: A#5
Note ON: Time 570360, Note Name: C#5, Velocity: 72
Note OFF: Time 570480, Note Name: C#5
Note ON: Time 570480, Note Name: A#5, Velocity: 82
Note OFF: Time 570600, Note Name: A#5
Note ON: Time 570600, Note Name: G5, Velocity: 70
Note OFF: Time 570720, Note Name: G5
Note ON: Time 570720, Note Name: C#5, Velocity: 77
Note OFF: Time 570840, Note Name: C#5
Note ON: Time 570840, Note Name: A#5, Velocity: 69
Note OFF: Time 570960, Note Name: A#5
Note ON: Time 571080, Note Name: C5, Velocity: 67
Note OFF: Time 571200, Note Name: C5
Note ON: Time 571200, Note Name: A#5, Velocity: 75
Note OFF: Time 571320, Note Name: A#5
Note ON: Time 571320, Note Name: G5, Velocity: 64
Note OFF: Time 571440, Note Name: G5
Note ON: Time 571440, Note Name: C5, Velocity: 72
Note OFF: Time 571560, Note Name: C5
Note ON: Time 571560, Note Name: A#5, Velocity: 62
Note OFF: Time 571680, Note Name: A#5
Note ON: Time 571800, Note Name: F5, Velocity: 72
Note OFF: Time 571920, Note Name: F5
Note ON: Time 571920, Note Name: A#5, Velocity: 82
Note OFF: Time 572040, Note Name: A#5
Note ON: Time 572040, Note Name: G5, Velocity: 70
Note OFF: Time 572160, Note Name: G5
Note ON: Time 572160, Note Name: F5, Velocity: 77
Note OFF: Time 572280, Note Name: F5
Note ON: Time 572280, Note Name: A#5, Velocity: 69
Note OFF: Time 572400, Note Name: A#5
Note ON: Time 572520, Note Name: E5, Velocity: 67
Note OFF: Time 572640, Note Name: E5
Note ON: Time 572640, Note Name: A#5, Velocity: 75
Note OFF: Time 572760, Note Name: A#5
Note ON: Time 572760, Note Name: G5, Velocity: 64
Note OFF: Time 572880, Note Name: G5
Note ON: Time 572880, Note Name: E5, Velocity: 72
Note OFF: Time 573000, Note Name: E5
Note ON: Time 573000, Note Name: A#5, Velocity: 62
Note OFF: Time 573120, Note Name: A#5
Note ON: Time 573600, Note Name: B5, Velocity: 83
Note OFF: Time 573720, Note Name: B5
Note ON: Time 573720, Note Name: D6, Velocity: 79
Note OFF: Time 573840, Note Name: D6
Note ON: Time 573840, Note Name: F6, Velocity: 87
Note OFF: Time 573960, Note Name: F6
Note ON: Time 573960, Note Name: D6, Velocity: 79
Note OFF: Time 574080, Note Name: D6
Note ON: Time 574080, Note Name: B5, Velocity: 86
Note OFF: Time 574200, Note Name: B5
Note ON: Time 574200, Note Name: G#6, Velocity: 83
Note OFF: Time 574320, Note Name: G#6
Note ON: Time 574320, Note Name: G6, Velocity: 84
Note OFF: Time 574440, Note Name: G6
Note ON: Time 574440, Note Name: F6, Velocity: 79
Note OFF: Time 574560, Note Name: F6
Note ON: Time 574560, Note Name: E6, Velocity: 79
Note OFF: Time 574680, Note Name: E6
Note ON: Time 574680, Note Name: G6, Velocity: 74
Note OFF: Time 574800, Note Name: G6
Note ON: Time 574800, Note Name: F6, Velocity: 79
Note OFF: Time 574920, Note Name: F6
Note ON: Time 574920, Note Name: E6, Velocity: 72
Note OFF: Time 575040, Note Name: E6
Note ON: Time 575040, Note Name: C#6, Velocity: 73
Note OFF: Time 575160, Note Name: C#6
Note ON: Time 575160, Note Name: C6, Velocity: 72
Note OFF: Time 575280, Note Name: C6
Note ON: Time 575280, Note Name: A#5, Velocity: 78
Note OFF: Time 575400, Note Name: A#5
Note ON: Time 575400, Note Name: C#6, Velocity: 73
Note OFF: Time 575520, Note Name: C#6
Note ON: Time 575520, Note Name: C6, Velocity: 75
Note OFF: Time 575640, Note Name: C6
Note ON: Time 575640, Note Name: A#5, Velocity: 72
Note OFF: Time 575760, Note Name: A#5
Note ON: Time 575760, Note Name: G#5, Velocity: 71
Note OFF: Time 575880, Note Name: G#5
Note ON: Time 575880, Note Name: G5, Velocity: 70
Note OFF: Time 576000, Note Name: G5
Note ON: Time 576120, Note Name: F5, Velocity: 39
Note OFF: Time 576240, Note Name: F5
Note ON: Time 576240, Note Name: G#5, Velocity: 41
Note OFF: Time 576360, Note Name: G#5
Note ON: Time 576360, Note Name: C6, Velocity: 43
Note OFF: Time 576480, Note Name: C6
Note ON: Time 576480, Note Name: F6, Velocity: 45
Note OFF: Time 576600, Note Name: F6
Note ON: Time 576600, Note Name: F5, Velocity: 41
Note OFF: Time 576720, Note Name: F5
Note ON: Time 577080, Note Name: F6, Velocity: 45
Note OFF: Time 577200, Note Name: F6
Note ON: Time 577200, Note Name: F5, Velocity: 41
Note OFF: Time 577320, Note Name: F5
Note ON: Time 577320, Note Name: F6, Velocity: 45
Note OFF: Time 577440, Note Name: F6
Note ON: Time 577800, Note Name: F6, Velocity: 44
Note OFF: Time 577920, Note Name: F6
Note ON: Time 577920, Note Name: F5, Velocity: 41
Note OFF: Time 578040, Note Name: F5
Note ON: Time 578040, Note Name: F6, Velocity: 44
Note OFF: Time 578160, Note Name: F6
Note ON: Time 578520, Note Name: E6, Velocity: 44
Note OFF: Time 578640, Note Name: E6
Note ON: Time 578640, Note Name: E5, Velocity: 41
Note OFF: Time 578760, Note Name: E5
Note ON: Time 578760, Note Name: E6, Velocity: 45
Note OFF: Time 578880, Note Name: E6
Note ON: Time 579000, Note Name: F5, Velocity: 39
Note OFF: Time 579120, Note Name: F5
Note ON: Time 579120, Note Name: G#5, Velocity: 41
Note OFF: Time 579240, Note Name: G#5
Note ON: Time 579240, Note Name: C6, Velocity: 43
Note OFF: Time 579360, Note Name: C6
Note ON: Time 579360, Note Name: F6, Velocity: 45
Note OFF: Time 579480, Note Name: F6
Note ON: Time 579480, Note Name: F5, Velocity: 41
Note OFF: Time 579600, Note Name: F5
Note ON: Time 579960, Note Name: F5, Velocity: 45
Note OFF: Time 580080, Note Name: F5
Note ON: Time 580080, Note Name: F4, Velocity: 41
Note OFF: Time 580200, Note Name: F4
Note ON: Time 580200, Note Name: F5, Velocity: 45
Note OFF: Time 580320, Note Name: F5
Note ON: Time 580680, Note Name: F5, Velocity: 44
Note OFF: Time 580800, Note Name: F5
Note ON: Time 580800, Note Name: F4, Velocity: 41
Note OFF: Time 580920, Note Name: F4
Note ON: Time 580920, Note Name: F5, Velocity: 44
Note OFF: Time 581040, Note Name: F5
Note ON: Time 581400, Note Name: E5, Velocity: 44
Note OFF: Time 581520, Note Name: E5
Note ON: Time 581520, Note Name: E4, Velocity: 41
Note OFF: Time 581640, Note Name: E4
Note ON: Time 581640, Note Name: E5, Velocity: 45
Note OFF: Time 581760, Note Name: E5
Note ON: Time 581880, Note Name: F5, Velocity: 39
Note OFF: Time 582000, Note Name: F5
Note ON: Time 582000, Note Name: G#5, Velocity: 41
Note OFF: Time 582120, Note Name: G#5
Note ON: Time 582120, Note Name: C6, Velocity: 43
Note OFF: Time 582240, Note Name: C6
Note ON: Time 582240, Note Name: F6, Velocity: 45
Note OFF: Time 582360, Note Name: F6
Note ON: Time 582360, Note Name: F5, Velocity: 41
Note OFF: Time 582480, Note Name: F5
Note ON: Time 582840, Note Name: F6, Velocity: 45
Note OFF: Time 582960, Note Name: F6
Note ON: Time 582960, Note Name: F5, Velocity: 41
Note OFF: Time 583080, Note Name: F5
Note ON: Time 583080, Note Name: F6, Velocity: 45
Note OFF: Time 583200, Note Name: F6
Note ON: Time 583560, Note Name: F6, Velocity: 44
Note OFF: Time 583680, Note Name: F6
Note ON: Time 583680, Note Name: F5, Velocity: 41
Note OFF: Time 583800, Note Name: F5
Note ON: Time 583800, Note Name: F6, Velocity: 44
Note OFF: Time 583920, Note Name: F6
Note ON: Time 584280, Note Name: E6, Velocity: 44
Note OFF: Time 584400, Note Name: E6
Note ON: Time 584400, Note Name: E5, Velocity: 41
Note OFF: Time 584520, Note Name: E5
Note ON: Time 584520, Note Name: E6, Velocity: 45
Note OFF: Time 584640, Note Name: E6
Note ON: Time 584640, Note Name: F6, Velocity: 44
Note OFF: Time 584760, Note Name: F6
Note ON: Time 584760, Note Name: C6, Velocity: 41
Note OFF: Time 584880, Note Name: C6
Note ON: Time 584880, Note Name: G#5, Velocity: 40
Note OFF: Time 585000, Note Name: G#5
Note ON: Time 585000, Note Name: C6, Velocity: 36
Note OFF: Time 585120, Note Name: C6
Note ON: Time 585120, Note Name: F6, Velocity: 39
Note OFF: Time 585240, Note Name: F6
Note ON: Time 585240, Note Name: C6, Velocity: 36
Note OFF: Time 585360, Note Name: C6
Note ON: Time 585360, Note Name: G#5, Velocity: 42
Note OFF: Time 585480, Note Name: G#5
Note ON: Time 585480, Note Name: C6, Velocity: 38
Note OFF: Time 585600, Note Name: C6
Note ON: Time 585600, Note Name: F6, Velocity: 38
Note OFF: Time 585720, Note Name: F6
Note ON: Time 585720, Note Name: C6, Velocity: 34
Note OFF: Time 585840, Note Name: C6
Note ON: Time 585840, Note Name: G#5, Velocity: 37
Note OFF: Time 585960, Note Name: G#5
Note ON: Time 585960, Note Name: C6, Velocity: 33
Note OFF: Time 586080, Note Name: C6
Note ON: Time 586080, Note Name: F6, Velocity: 39
Note OFF: Time 586200, Note Name: F6
Note ON: Time 586200, Note Name: C6, Velocity: 36
Note OFF: Time 586320, Note Name: C6
Note ON: Time 586320, Note Name: G#5, Velocity: 36
Note OFF: Time 586440, Note Name: G#5
Note ON: Time 586440, Note Name: C6, Velocity: 32
Note OFF: Time 586560, Note Name: C6
Note ON: Time 586560, Note Name: F6, Velocity: 35
Note OFF: Time 586680, Note Name: F6
Note ON: Time 586680, Note Name: C6, Velocity: 31
Note OFF: Time 586800, Note Name: C6
Note ON: Time 586800, Note Name: F6, Velocity: 36
Note OFF: Time 586920, Note Name: F6
Note ON: Time 586920, Note Name: C6, Velocity: 34
Note OFF: Time 587040, Note Name: C6
Note ON: Time 587040, Note Name: F6, Velocity: 34
Note OFF: Time 587160, Note Name: F6
Note ON: Time 587160, Note Name: C6, Velocity: 30
Note OFF: Time 587280, Note Name: C6
Note ON: Time 587280, Note Name: F6, Velocity: 33
Note OFF: Time 587400, Note Name: F6
Note ON: Time 587400, Note Name: C6, Velocity: 30
Note OFF: Time 587520, Note Name: C6
Note ON: Time 587520, Note Name: F6, Velocity: 38
Note OFF: Time 587640, Note Name: F6
Note ON: Time 587640, Note Name: C6, Velocity: 30
Note OFF: Time 587760, Note Name: C6
Note ON: Time 587760, Note Name: G#5, Velocity: 37
Note OFF: Time 587880, Note Name: G#5
Note ON: Time 587880, Note Name: C6, Velocity: 30
Note OFF: Time 588000, Note Name: C6
Note ON: Time 588000, Note Name: F6, Velocity: 33
Note OFF: Time 588120, Note Name: F6
Note ON: Time 588120, Note Name: C6, Velocity: 30
Note OFF: Time 588240, Note Name: C6
Note ON: Time 588240, Note Name: G#5, Velocity: 36
Note OFF: Time 588360, Note Name: G#5
Note ON: Time 588360, Note Name: C6, Velocity: 30
Note OFF: Time 588480, Note Name: C6
Note ON: Time 588480, Note Name: F6, Velocity: 35
Note OFF: Time 588600, Note Name: F6
Note ON: Time 588600, Note Name: C6, Velocity: 30
Note OFF: Time 588720, Note Name: C6
Note ON: Time 588720, Note Name: G#5, Velocity: 31
Note OFF: Time 588840, Note Name: G#5
Note ON: Time 588840, Note Name: C6, Velocity: 30
Note OFF: Time 588960, Note Name: C6
Note ON: Time 588960, Note Name: F6, Velocity: 38
Note OFF: Time 589080, Note Name: F6
Note ON: Time 589080, Note Name: C6, Velocity: 30
Note OFF: Time 589200, Note Name: C6
Note ON: Time 589200, Note Name: G#5, Velocity: 33
Note OFF: Time 589320, Note Name: G#5
Note ON: Time 589320, Note Name: C6, Velocity: 29
Note OFF: Time 589440, Note Name: C6
Note ON: Time 589440, Note Name: F6, Velocity: 33
Note OFF: Time 589560, Note Name: F6
Note ON: Time 589560, Note Name: C6, Velocity: 28
Note OFF: Time 589680, Note Name: C6
Note ON: Time 589680, Note Name: F6, Velocity: 37
Note OFF: Time 589800, Note Name: F6
Note ON: Time 589800, Note Name: C6, Velocity: 33
Note OFF: Time 589920, Note Name: C6
Note ON: Time 589920, Note Name: G#5, Velocity: 34
Note OFF: Time 590040, Note Name: G#5
Note ON: Time 590040, Note Name: C6, Velocity: 29
Note OFF: Time 590160, Note Name: C6
Note ON: Time 590160, Note Name: F6, Velocity: 33
Note OFF: Time 590280, Note Name: F6
Note ON: Time 590280, Note Name: C6, Velocity: 29
Note OFF: Time 590400, Note Name: C6
Note ON: Time 590400, Note Name: F6, Velocity: 38
Note OFF: Time 590520, Note Name: F6
Note ON: Time 590520, Note Name: C6, Velocity: 30
Note OFF: Time 590640, Note Name: C6
Note ON: Time 590640, Note Name: G#5, Velocity: 37
Note OFF: Time 590760, Note Name: G#5
Note ON: Time 590760, Note Name: C6, Velocity: 30
Note OFF: Time 590880, Note Name: C6
Note ON: Time 590880, Note Name: F6, Velocity: 33
Note OFF: Time 591000, Note Name: F6
Note ON: Time 591000, Note Name: C6, Velocity: 30
Note OFF: Time 591120, Note Name: C6
Note ON: Time 591120, Note Name: F6, Velocity: 36
Note OFF: Time 591240, Note Name: F6
Note ON: Time 591240, Note Name: C6, Velocity: 30
Note OFF: Time 591360, Note Name: C6
Note ON: Time 591360, Note Name: G#5, Velocity: 35
Note OFF: Time 591480, Note Name: G#5
Note ON: Time 591480, Note Name: C6, Velocity: 30
Note OFF: Time 591600, Note Name: C6
Note ON: Time 591600, Note Name: F6, Velocity: 31
Note OFF: Time 591720, Note Name: F6
Note ON: Time 591720, Note Name: C6, Velocity: 30
Note OFF: Time 591840, Note Name: C6
Note ON: Time 591840, Note Name: F6, Velocity: 38
Note OFF: Time 591960, Note Name: F6
Note ON: Time 591960, Note Name: C6, Velocity: 30
Note OFF: Time 592080, Note Name: C6
Note ON: Time 592080, Note Name: G#5, Velocity: 33
Note OFF: Time 592200, Note Name: G#5
Note ON: Time 592200, Note Name: C6, Velocity: 29
Note OFF: Time 592320, Note Name: C6
Note ON: Time 592320, Note Name: F6, Velocity: 33
Note OFF: Time 592440, Note Name: F6
Note ON: Time 592440, Note Name: C6, Velocity: 28
Note OFF: Time 592560, Note Name: C6
Note ON: Time 592560, Note Name: F6, Velocity: 37
Note OFF: Time 592680, Note Name: F6
Note ON: Time 592680, Note Name: C6, Velocity: 33
Note OFF: Time 592800, Note Name: C6
Note ON: Time 592800, Note Name: G#5, Velocity: 34
Note OFF: Time 592920, Note Name: G#5
Note ON: Time 592920, Note Name: C6, Velocity: 29
Note OFF: Time 593040, Note Name: C6
Note ON: Time 593040, Note Name: F6, Velocity: 33
Note OFF: Time 593160, Note Name: F6
Note ON: Time 593160, Note Name: C6, Velocity: 29
Note OFF: Time 593280, Note Name: C6
Note ON: Time 593280, Note Name: D#6, Velocity: 38
Note OFF: Time 593400, Note Name: D#6
Note ON: Time 593400, Note Name: C6, Velocity: 30
Note OFF: Time 593520, Note Name: C6
Note ON: Time 593520, Note Name: G#5, Velocity: 37
Note OFF: Time 593640, Note Name: G#5
Note ON: Time 593640, Note Name: C6, Velocity: 30
Note OFF: Time 593760, Note Name: C6
Note ON: Time 593760, Note Name: D#6, Velocity: 33
Note OFF: Time 593880, Note Name: D#6
Note ON: Time 593880, Note Name: C6, Velocity: 30
Note OFF: Time 594000, Note Name: C6
Note ON: Time 594000, Note Name: G#5, Velocity: 36
Note OFF: Time 594120, Note Name: G#5
Note ON: Time 594120, Note Name: C6, Velocity: 30
Note OFF: Time 594240, Note Name: C6
Note ON: Time 594240, Note Name: D#6, Velocity: 35
Note OFF: Time 594360, Note Name: D#6
Note ON: Time 594360, Note Name: C6, Velocity: 30
Note OFF: Time 594480, Note Name: C6
Note ON: Time 594480, Note Name: G#5, Velocity: 31
Note OFF: Time 594600, Note Name: G#5
Note ON: Time 594600, Note Name: C6, Velocity: 30
Note OFF: Time 594720, Note Name: C6
Note ON: Time 594720, Note Name: D#6, Velocity: 38
Note OFF: Time 594840, Note Name: D#6
Note ON: Time 594840, Note Name: C6, Velocity: 30
Note OFF: Time 594960, Note Name: C6
Note ON: Time 594960, Note Name: G#5, Velocity: 33
Note OFF: Time 595080, Note Name: G#5
Note ON: Time 595080, Note Name: C6, Velocity: 29
Note OFF: Time 595200, Note Name: C6
Note ON: Time 595200, Note Name: D#6, Velocity: 33
Note OFF: Time 595320, Note Name: D#6
Note ON: Time 595320, Note Name: C6, Velocity: 28
Note OFF: Time 595440, Note Name: C6
Note ON: Time 595440, Note Name: D#6, Velocity: 37
Note OFF: Time 595560, Note Name: D#6
Note ON: Time 595560, Note Name: C6, Velocity: 33
Note OFF: Time 595680, Note Name: C6
Note ON: Time 595680, Note Name: G#5, Velocity: 34
Note OFF: Time 595800, Note Name: G#5
Note ON: Time 595800, Note Name: C6, Velocity: 29
Note OFF: Time 595920, Note Name: C6
Note ON: Time 595920, Note Name: D#6, Velocity: 33
Note OFF: Time 596040, Note Name: D#6
Note ON: Time 596040, Note Name: C6, Velocity: 29
Note OFF: Time 596160, Note Name: C6
Note ON: Time 596160, Note Name: D#6, Velocity: 38
Note OFF: Time 596280, Note Name: D#6
Note ON: Time 596280, Note Name: C6, Velocity: 30
Note OFF: Time 596400, Note Name: C6
Note ON: Time 596400, Note Name: G#5, Velocity: 37
Note OFF: Time 596520, Note Name: G#5
Note ON: Time 596520, Note Name: C6, Velocity: 30
Note OFF: Time 596640, Note Name: C6
Note ON: Time 596640, Note Name: D#6, Velocity: 33
Note OFF: Time 596760, Note Name: D#6
Note ON: Time 596760, Note Name: C6, Velocity: 30
Note OFF: Time 596880, Note Name: C6
Note ON: Time 596880, Note Name: D#6, Velocity: 36
Note OFF: Time 597000, Note Name: D#6
Note ON: Time 597000, Note Name: C6, Velocity: 30
Note OFF: Time 597120, Note Name: C6
Note ON: Time 597120, Note Name: G#5, Velocity: 35
Note OFF: Time 597240, Note Name: G#5
Note ON: Time 597240, Note Name: C6, Velocity: 30
Note OFF: Time 597360, Note Name: C6
Note ON: Time 597360, Note Name: D#6, Velocity: 31
Note OFF: Time 597480, Note Name: D#6
Note ON: Time 597480, Note Name: C6, Velocity: 30
Note OFF: Time 597600, Note Name: C6
Note ON: Time 597600, Note Name: D#6, Velocity: 38
Note OFF: Time 597720, Note Name: D#6
Note ON: Time 597720, Note Name: C6, Velocity: 30
Note OFF: Time 597840, Note Name: C6
Note ON: Time 597840, Note Name: G#5, Velocity: 33
Note OFF: Time 597960, Note Name: G#5
Note ON: Time 597960, Note Name: C6, Velocity: 29
Note OFF: Time 598080, Note Name: C6
Note ON: Time 598080, Note Name: D#6, Velocity: 33
Note OFF: Time 598200, Note Name: D#6
Note ON: Time 598200, Note Name: C6, Velocity: 28
Note OFF: Time 598320, Note Name: C6
Note ON: Time 598320, Note Name: D#6, Velocity: 37
Note OFF: Time 598440, Note Name: D#6
Note ON: Time 598440, Note Name: C6, Velocity: 33
Note OFF: Time 598560, Note Name: C6
Note ON: Time 598560, Note Name: G#5, Velocity: 34
Note OFF: Time 598680, Note Name: G#5
Note ON: Time 598680, Note Name: C6, Velocity: 29
Note OFF: Time 598800, Note Name: C6
Note ON: Time 598800, Note Name: D#6, Velocity: 33
Note OFF: Time 598920, Note Name: D#6
Note ON: Time 598920, Note Name: C6, Velocity: 29
Note OFF: Time 599040, Note Name: C6
Note ON: Time 599040, Note Name: F6, Velocity: 38
Note OFF: Time 599160, Note Name: F6
Note ON: Time 599160, Note Name: C#6, Velocity: 30
Note OFF: Time 599280, Note Name: C#6
Note ON: Time 599280, Note Name: G#5, Velocity: 37
Note OFF: Time 599400, Note Name: G#5
Note ON: Time 599400, Note Name: C#6, Velocity: 30
Note OFF: Time 599520, Note Name: C#6
Note ON: Time 599520, Note Name: F6, Velocity: 33
Note OFF: Time 599640, Note Name: F6
Note ON: Time 599640, Note Name: C#6, Velocity: 31
Note OFF: Time 599760, Note Name: C#6
Note ON: Time 599760, Note Name: F6, Velocity: 37
Note OFF: Time 599880, Note Name: F6
Note ON: Time 599880, Note Name: C#6, Velocity: 30
Note OFF: Time 600000, Note Name: C#6
Note ON: Time 600000, Note Name: G#5, Velocity: 36
Note OFF: Time 600120, Note Name: G#5
Note ON: Time 600120, Note Name: C#6, Velocity: 31
Note OFF: Time 600240, Note Name: C#6
Note ON: Time 600240, Note Name: F6, Velocity: 34
Note OFF: Time 600360, Note Name: F6
Note ON: Time 600360, Note Name: C#6, Velocity: 33
Note OFF: Time 600480, Note Name: C#6
Note ON: Time 600480, Note Name: F6, Velocity: 40
Note OFF: Time 600600, Note Name: F6
Note ON: Time 600600, Note Name: C#6, Velocity: 33
Note OFF: Time 600720, Note Name: C#6
Note ON: Time 600720, Note Name: G#5, Velocity: 35
Note OFF: Time 600840, Note Name: G#5
Note ON: Time 600840, Note Name: C#6, Velocity: 31
Note OFF: Time 600960, Note Name: C#6
Note ON: Time 600960, Note Name: F6, Velocity: 35
Note OFF: Time 601080, Note Name: F6
Note ON: Time 601080, Note Name: C#6, Velocity: 30
Note OFF: Time 601200, Note Name: C#6
Note ON: Time 601200, Note Name: F6, Velocity: 40
Note OFF: Time 601320, Note Name: F6
Note ON: Time 601320, Note Name: C#6, Velocity: 36
Note OFF: Time 601440, Note Name: C#6
Note ON: Time 601440, Note Name: G#5, Velocity: 37
Note OFF: Time 601560, Note Name: G#5
Note ON: Time 601560, Note Name: C#6, Velocity: 33
Note OFF: Time 601680, Note Name: C#6
Note ON: Time 601680, Note Name: F6, Velocity: 36
Note OFF: Time 601800, Note Name: F6
Note ON: Time 601800, Note Name: C#6, Velocity: 33
Note OFF: Time 601920, Note Name: C#6
Note ON: Time 601920, Note Name: F#6, Velocity: 40
Note OFF: Time 602040, Note Name: F#6
Note ON: Time 602040, Note Name: C6, Velocity: 35
Note OFF: Time 602160, Note Name: C6
Note ON: Time 602160, Note Name: G#5, Velocity: 40
Note OFF: Time 602280, Note Name: G#5
Note ON: Time 602280, Note Name: C6, Velocity: 35
Note OFF: Time 602400, Note Name: C6
Note ON: Time 602400, Note Name: F#6, Velocity: 37
Note OFF: Time 602520, Note Name: F#6
Note ON: Time 602520, Note Name: C6, Velocity: 36
Note OFF: Time 602640, Note Name: C6
Note ON: Time 602640, Note Name: F#6, Velocity: 42
Note OFF: Time 602760, Note Name: F#6
Note ON: Time 602760, Note Name: C6, Velocity: 35
Note OFF: Time 602880, Note Name: C6
Note ON: Time 602880, Note Name: G#5, Velocity: 41
Note OFF: Time 603000, Note Name: G#5
Note ON: Time 603000, Note Name: C6, Velocity: 37
Note OFF: Time 603120, Note Name: C6
Note ON: Time 603120, Note Name: F#6, Velocity: 38
Note OFF: Time 603240, Note Name: F#6
Note ON: Time 603240, Note Name: C6, Velocity: 37
Note OFF: Time 603360, Note Name: C6
Note ON: Time 603360, Note Name: F#6, Velocity: 44
Note OFF: Time 603480, Note Name: F#6
Note ON: Time 603480, Note Name: C6, Velocity: 36
Note OFF: Time 603600, Note Name: C6
Note ON: Time 603600, Note Name: G#5, Velocity: 44
Note OFF: Time 603720, Note Name: G#5
Note ON: Time 603720, Note Name: C6, Velocity: 38
Note OFF: Time 603840, Note Name: C6
Note ON: Time 603840, Note Name: F#6, Velocity: 39
Note OFF: Time 603960, Note Name: F#6
Note ON: Time 603960, Note Name: C6, Velocity: 38
Note OFF: Time 604080, Note Name: C6
Note ON: Time 604080, Note Name: F#6, Velocity: 45
Note OFF: Time 604200, Note Name: F#6
Note ON: Time 604200, Note Name: D#6, Velocity: 38
Note OFF: Time 604320, Note Name: D#6
Note ON: Time 604320, Note Name: G#5, Velocity: 44
Note OFF: Time 604440, Note Name: G#5
Note ON: Time 604440, Note Name: D#6, Velocity: 39
Note OFF: Time 604560, Note Name: D#6
Note ON: Time 604560, Note Name: F#6, Velocity: 39
Note OFF: Time 604680, Note Name: F#6
Note ON: Time 604680, Note Name: D#6, Velocity: 39
Note OFF: Time 604800, Note Name: D#6
Note ON: Time 604800, Note Name: F6, Velocity: 55
Note OFF: Time 605280, Note Name: F6
Note ON: Time 606960, Note Name: F5, Velocity: 62
Note OFF: Time 607560, Note Name: F5
Note ON: Time 607560, Note Name: G#5, Velocity: 57
Note OFF: Time 607680, Note Name: G#5
Note ON: Time 607680, Note Name: C#6, Velocity: 66
Note OFF: Time 608400, Note Name: C#6
Note ON: Time 608400, Note Name: F6, Velocity: 62
Note OFF: Time 609000, Note Name: F6
Note ON: Time 609000, Note Name: C#6, Velocity: 55
Note OFF: Time 609120, Note Name: C#6
Note ON: Time 609120, Note Name: C6, Velocity: 63
Note OFF: Time 609840, Note Name: C6
Note ON: Time 609840, Note Name: D#6, Velocity: 66
Note OFF: Time 610440, Note Name: D#6
Note ON: Time 610440, Note Name: C6, Velocity: 55
Note OFF: Time 610560, Note Name: C6
Note ON: Time 610560, Note Name: C#6, Velocity: 66
Note OFF: Time 611280, Note Name: C#6
Note ON: Time 611280, Note Name: G#5, Velocity: 59
Note OFF: Time 612720, Note Name: G#5
Note ON: Time 612720, Note Name: F5, Velocity: 68
Note OFF: Time 613320, Note Name: F5
Note ON: Time 613320, Note Name: G#5, Velocity: 62
Note OFF: Time 613440, Note Name: G#5
Note ON: Time 613440, Note Name: C#6, Velocity: 71
Note OFF: Time 614160, Note Name: C#6
Note ON: Time 614160, Note Name: F6, Velocity: 74
Note OFF: Time 614760, Note Name: F6
Note ON: Time 614760, Note Name: C#6, Velocity: 64
Note OFF: Time 614880, Note Name: C#6
Note ON: Time 614880, Note Name: C6, Velocity: 75
Note OFF: Time 615600, Note Name: C6
Note ON: Time 615600, Note Name: D#6, Velocity: 80
Note OFF: Time 616200, Note Name: D#6
Note ON: Time 616200, Note Name: C6, Velocity: 71
Note OFF: Time 616320, Note Name: C6
Note ON: Time 616320, Note Name: B5, Velocity: 85
Note OFF: Time 617040, Note Name: B5
Note ON: Time 617040, Note Name: D6, Velocity: 95
Note OFF: Time 618480, Note Name: D6
Note ON: Time 618480, Note Name: D6, Velocity: 84
Note OFF: Time 619080, Note Name: D6
Note ON: Time 619080, Note Name: B5, Velocity: 79
Note OFF: Time 619200, Note Name: B5
Note ON: Time 619200, Note Name: C6, Velocity: 85
Note OFF: Time 619920, Note Name: C6
Note ON: Time 619920, Note Name: E6, Velocity: 97
Note OFF: Time 621360, Note Name: E6
Note ON: Time 621360, Note Name: G6, Velocity: 84
Note ON: Time 621360, Note Name: G5, Velocity: 71
Note OFF: Time 621960, Note Name: G5
Note OFF: Time 621960, Note Name: G6
Note ON: Time 621960, Note Name: F5, Velocity: 67
Note ON: Time 621960, Note Name: F6, Velocity: 79
Note OFF: Time 622080, Note Name: F6
Note OFF: Time 622080, Note Name: F5
Note ON: Time 622080, Note Name: E6, Velocity: 85
Note ON: Time 622080, Note Name: E5, Velocity: 72
Note OFF: Time 622800, Note Name: E5
Note OFF: Time 622800, Note Name: E6
Note ON: Time 622800, Note Name: G5, Velocity: 79
Note ON: Time 622800, Note Name: G6, Velocity: 93
Note OFF: Time 624240, Note Name: G6
Note OFF: Time 624240, Note Name: G5
Note ON: Time 624240, Note Name: G5, Velocity: 74
Note ON: Time 624240, Note Name: G6, Velocity: 88
Note OFF: Time 624840, Note Name: G6
Note OFF: Time 624840, Note Name: G5
Note ON: Time 624840, Note Name: E5, Velocity: 70
Note ON: Time 624840, Note Name: E6, Velocity: 82
Note OFF: Time 624960, Note Name: E6
Note OFF: Time 624960, Note Name: E5
Note ON: Time 624960, Note Name: F6, Velocity: 89
Note ON: Time 624960, Note Name: F5, Velocity: 75
Note OFF: Time 625680, Note Name: F5
Note OFF: Time 625680, Note Name: F6
Note ON: Time 625680, Note Name: G#6, Velocity: 96
Note ON: Time 625680, Note Name: G#5, Velocity: 81
Note OFF: Time 627120, Note Name: G#5
Note OFF: Time 627120, Note Name: G#6
Note ON: Time 627120, Note Name: G#6, Velocity: 88
Note ON: Time 627120, Note Name: G#5, Velocity: 74
Note OFF: Time 627720, Note Name: G#5
Note OFF: Time 627720, Note Name: G#6
Note ON: Time 627720, Note Name: F6, Velocity: 82
Note ON: Time 627720, Note Name: F5, Velocity: 70
Note OFF: Time 627840, Note Name: F5
Note OFF: Time 627840, Note Name: F6
Note ON: Time 627960, Note Name: C#4, Velocity: 80
Note OFF: Time 628080, Note Name: C#4
Note ON: Time 628080, Note Name: A#3, Velocity: 77
Note OFF: Time 628200, Note Name: A#3
Note ON: Time 628200, Note Name: F#4, Velocity: 72
Note OFF: Time 628320, Note Name: F#4
Note ON: Time 628680, Note Name: F#4, Velocity: 75
Note OFF: Time 628800, Note Name: F#4
Note ON: Time 628800, Note Name: C#4, Velocity: 78
Note OFF: Time 628920, Note Name: C#4
Note ON: Time 628920, Note Name: A#4, Velocity: 73
Note OFF: Time 629040, Note Name: A#4
Note ON: Time 629400, Note Name: A#4, Velocity: 74
Note OFF: Time 629520, Note Name: A#4
Note ON: Time 629520, Note Name: F#4, Velocity: 80
Note OFF: Time 629640, Note Name: F#4
Note ON: Time 629640, Note Name: C#5, Velocity: 74
Note OFF: Time 629760, Note Name: C#5
Note ON: Time 630120, Note Name: C#5, Velocity: 75
Note OFF: Time 630240, Note Name: C#5
Note ON: Time 630240, Note Name: A#4, Velocity: 80
Note OFF: Time 630360, Note Name: A#4
Note ON: Time 630360, Note Name: F#5, Velocity: 72
Note OFF: Time 630480, Note Name: F#5
Note ON: Time 630840, Note Name: F#5, Velocity: 74
Note OFF: Time 630960, Note Name: F#5
Note ON: Time 630960, Note Name: C#5, Velocity: 77
Note OFF: Time 631080, Note Name: C#5
Note ON: Time 631080, Note Name: A#5, Velocity: 72
Note OFF: Time 631200, Note Name: A#5
Note ON: Time 631560, Note Name: A#5, Velocity: 71
Note OFF: Time 631680, Note Name: A#5
Note ON: Time 631680, Note Name: F#5, Velocity: 75
Note OFF: Time 631800, Note Name: F#5
Note ON: Time 631800, Note Name: C#6, Velocity: 73
Note OFF: Time 631920, Note Name: C#6
Note ON: Time 632280, Note Name: C#6, Velocity: 74
Note OFF: Time 632400, Note Name: C#6
Note ON: Time 632400, Note Name: A#5, Velocity: 80
Note OFF: Time 632520, Note Name: A#5
Note ON: Time 632520, Note Name: F#6, Velocity: 74
Note OFF: Time 632640, Note Name: F#6
Note ON: Time 633120, Note Name: F#6, Velocity: 82
Note OFF: Time 633240, Note Name: F#6
Note ON: Time 633240, Note Name: C#6, Velocity: 79
Note OFF: Time 633360, Note Name: C#6
Note ON: Time 633360, Note Name: A#6, Velocity: 84
Note OFF: Time 633600, Note Name: A#6
Note ON: Time 633720, Note Name: D#4, Velocity: 80
Note OFF: Time 633840, Note Name: D#4
Note ON: Time 633840, Note Name: C4, Velocity: 77
Note OFF: Time 633960, Note Name: C4
Note ON: Time 633960, Note Name: A4, Velocity: 72
Note OFF: Time 634080, Note Name: A4
Note ON: Time 634440, Note Name: A4, Velocity: 75
Note OFF: Time 634560, Note Name: A4
Note ON: Time 634560, Note Name: D#4, Velocity: 78
Note OFF: Time 634680, Note Name: D#4
Note ON: Time 634680, Note Name: C5, Velocity: 73
Note OFF: Time 634800, Note Name: C5
Note ON: Time 635160, Note Name: C5, Velocity: 74
Note OFF: Time 635280, Note Name: C5
Note ON: Time 635280, Note Name: A4, Velocity: 80
Note OFF: Time 635400, Note Name: A4
Note ON: Time 635400, Note Name: D#5, Velocity: 74
Note OFF: Time 635520, Note Name: D#5
Note ON: Time 635880, Note Name: D#5, Velocity: 75
Note OFF: Time 636000, Note Name: D#5
Note ON: Time 636000, Note Name: C5, Velocity: 80
Note OFF: Time 636120, Note Name: C5
Note ON: Time 636120, Note Name: A5, Velocity: 72
Note OFF: Time 636240, Note Name: A5
Note ON: Time 636600, Note Name: A5, Velocity: 75
Note OFF: Time 636720, Note Name: A5
Note ON: Time 636720, Note Name: D#5, Velocity: 77
Note OFF: Time 636840, Note Name: D#5
Note ON: Time 636840, Note Name: C6, Velocity: 72
Note OFF: Time 636960, Note Name: C6
Note ON: Time 637320, Note Name: C6, Velocity: 71
Note OFF: Time 637440, Note Name: C6
Note ON: Time 637440, Note Name: A5, Velocity: 75
Note OFF: Time 637560, Note Name: A5
Note ON: Time 637560, Note Name: D#6, Velocity: 73
Note OFF: Time 637680, Note Name: D#6
Note ON: Time 638040, Note Name: D#6, Velocity: 74
Note OFF: Time 638160, Note Name: D#6
Note ON: Time 638160, Note Name: C6, Velocity: 80
Note OFF: Time 638280, Note Name: C6
Note ON: Time 638280, Note Name: A6, Velocity: 74
Note OFF: Time 638400, Note Name: A6
Note ON: Time 638880, Note Name: A6, Velocity: 83
Note OFF: Time 639000, Note Name: A6
Note ON: Time 639000, Note Name: D#6, Velocity: 77
Note OFF: Time 639120, Note Name: D#6
Note ON: Time 639120, Note Name: C7, Velocity: 83
Note OFF: Time 639360, Note Name: C7
Note ON: Time 639480, Note Name: F4, Velocity: 74
Note OFF: Time 639600, Note Name: F4
Note ON: Time 639600, Note Name: C#4, Velocity: 77
Note OFF: Time 639720, Note Name: C#4
Note ON: Time 639720, Note Name: A#4, Velocity: 72
Note OFF: Time 639840, Note Name: A#4
Note ON: Time 640320, Note Name: A#4, Velocity: 75
Note OFF: Time 640440, Note Name: A#4
Note ON: Time 640440, Note Name: F4, Velocity: 72
Note OFF: Time 640560, Note Name: F4
Note ON: Time 640560, Note Name: C#5, Velocity: 73
Note OFF: Time 640800, Note Name: C#5
Note ON: Time 640920, Note Name: G4, Velocity: 75
Note OFF: Time 641040, Note Name: G4
Note ON: Time 641040, Note Name: E4, Velocity: 77
Note OFF: Time 641160, Note Name: E4
Note ON: Time 641160, Note Name: C5, Velocity: 72
Note OFF: Time 641280, Note Name: C5
Note ON: Time 641760, Note Name: C5, Velocity: 75
Note OFF: Time 641880, Note Name: C5
Note ON: Time 641880, Note Name: G4, Velocity: 72
Note OFF: Time 642000, Note Name: G4
Note ON: Time 642000, Note Name: E5, Velocity: 73
Note OFF: Time 642240, Note Name: E5
Note ON: Time 642360, Note Name: G#4, Velocity: 73
Note OFF: Time 642480, Note Name: G#4
Note ON: Time 642480, Note Name: F4, Velocity: 77
Note OFF: Time 642600, Note Name: F4
Note ON: Time 642600, Note Name: C#5, Velocity: 72
Note OFF: Time 642720, Note Name: C#5
Note ON: Time 643200, Note Name: C#5, Velocity: 75
Note OFF: Time 643320, Note Name: C#5
Note ON: Time 643320, Note Name: G#4, Velocity: 71
Note OFF: Time 643440, Note Name: G#4
Note ON: Time 643440, Note Name: F5, Velocity: 73
Note OFF: Time 643680, Note Name: F5
Note ON: Time 643800, Note Name: A#4, Velocity: 80
Note OFF: Time 643920, Note Name: A#4
Note ON: Time 643920, Note Name: G4, Velocity: 77
Note OFF: Time 644040, Note Name: G4
Note ON: Time 644040, Note Name: E5, Velocity: 72
Note OFF: Time 644160, Note Name: E5
Note ON: Time 644640, Note Name: E5, Velocity: 75
Note OFF: Time 644760, Note Name: E5
Note ON: Time 644760, Note Name: A#4, Velocity: 73
Note OFF: Time 644880, Note Name: A#4
Note ON: Time 644880, Note Name: G5, Velocity: 73
Note OFF: Time 645120, Note Name: G5
Note ON: Time 645240, Note Name: C5, Velocity: 64
Note OFF: Time 645360, Note Name: C5
Note ON: Time 645360, Note Name: G#4, Velocity: 69
Note OFF: Time 645480, Note Name: G#4
Note ON: Time 645480, Note Name: F5, Velocity: 64
Note OFF: Time 645600, Note Name: F5
Note ON: Time 645960, Note Name: C#5, Velocity: 64
Note OFF: Time 646080, Note Name: C#5
Note ON: Time 646080, Note Name: A#4, Velocity: 69
Note OFF: Time 646200, Note Name: A#4
Note ON: Time 646200, Note Name: G5, Velocity: 67
Note OFF: Time 646320, Note Name: G5
Note ON: Time 646680, Note Name: D#5, Velocity: 69
Note OFF: Time 646800, Note Name: D#5
Note ON: Time 646800, Note Name: C5, Velocity: 73
Note OFF: Time 646920, Note Name: C5
Note ON: Time 646920, Note Name: A5, Velocity: 69
Note OFF: Time 647040, Note Name: A5
Note ON: Time 647400, Note Name: F5, Velocity: 71
Note OFF: Time 647520, Note Name: F5
Note ON: Time 647520, Note Name: C#5, Velocity: 68
Note OFF: Time 647640, Note Name: C#5
Note ON: Time 647640, Note Name: A#5, Velocity: 70
Note OFF: Time 647760, Note Name: A#5
Note ON: Time 648120, Note Name: G5, Velocity: 71
Note OFF: Time 648240, Note Name: G5
Note ON: Time 648240, Note Name: E5, Velocity: 73
Note OFF: Time 648360, Note Name: E5
Note ON: Time 648360, Note Name: C6, Velocity: 70
Note OFF: Time 648480, Note Name: C6
Note ON: Time 648840, Note Name: G#5, Velocity: 69
Note OFF: Time 648960, Note Name: G#5
Note ON: Time 648960, Note Name: F5, Velocity: 73
Note OFF: Time 649080, Note Name: F5
Note ON: Time 649080, Note Name: C#6, Velocity: 72
Note OFF: Time 649200, Note Name: C#6
Note ON: Time 649560, Note Name: A#5, Velocity: 74
Note OFF: Time 649680, Note Name: A#5
Note ON: Time 649680, Note Name: G5, Velocity: 78
Note OFF: Time 649800, Note Name: G5
Note ON: Time 649800, Note Name: E6, Velocity: 74
Note OFF: Time 649920, Note Name: E6
Note ON: Time 650280, Note Name: C6, Velocity: 75
Note OFF: Time 650400, Note Name: C6
Note ON: Time 650400, Note Name: G#5, Velocity: 77
Note OFF: Time 650520, Note Name: G#5
Note ON: Time 650520, Note Name: F6, Velocity: 75
Note OFF: Time 650640, Note Name: F6
Note ON: Time 651000, Note Name: C#6, Velocity: 78
Note OFF: Time 651120, Note Name: C#6
Note ON: Time 651120, Note Name: A#5, Velocity: 79
Note OFF: Time 651240, Note Name: A#5
Note ON: Time 651240, Note Name: G6, Velocity: 74
Note OFF: Time 651360, Note Name: G6
Note ON: Time 651720, Note Name: D#6, Velocity: 74
Note OFF: Time 651840, Note Name: D#6
Note ON: Time 651840, Note Name: C6, Velocity: 79
Note OFF: Time 651960, Note Name: C6
Note ON: Time 651960, Note Name: A6, Velocity: 74
Note OFF: Time 652080, Note Name: A6
Note ON: Time 652440, Note Name: F6, Velocity: 79
Note OFF: Time 652560, Note Name: F6
Note ON: Time 652560, Note Name: C#6, Velocity: 80
Note OFF: Time 652680, Note Name: C#6
Note ON: Time 652680, Note Name: A#6, Velocity: 79
Note OFF: Time 652800, Note Name: A#6
Note ON: Time 653160, Note Name: F6, Velocity: 81
Note OFF: Time 653280, Note Name: F6
Note ON: Time 653280, Note Name: C#6, Velocity: 83
Note OFF: Time 653400, Note Name: C#6
Note ON: Time 653400, Note Name: A#6, Velocity: 80
Note OFF: Time 653520, Note Name: A#6
Note ON: Time 654120, Note Name: F6, Velocity: 78
Note OFF: Time 654240, Note Name: F6
Note ON: Time 654240, Note Name: C#6, Velocity: 82
Note OFF: Time 654360, Note Name: C#6
Note ON: Time 654360, Note Name: A#6, Velocity: 79
Note OFF: Time 654480, Note Name: A#6
Note ON: Time 654480, Note Name: F6, Velocity: 89
Note OFF: Time 654600, Note Name: F6
Note ON: Time 654600, Note Name: C#6, Velocity: 83
Note OFF: Time 654720, Note Name: C#6
Note ON: Time 654720, Note Name: A#5, Velocity: 78
Note OFF: Time 654840, Note Name: A#5
Note ON: Time 654840, Note Name: F5, Velocity: 78
Note OFF: Time 654960, Note Name: F5
Note ON: Time 654960, Note Name: C#5, Velocity: 82
Note OFF: Time 655080, Note Name: C#5
Note ON: Time 655080, Note Name: A#5, Velocity: 79
Note OFF: Time 655200, Note Name: A#5
Note ON: Time 655200, Note Name: F5, Velocity: 86
Note OFF: Time 655320, Note Name: F5
Note ON: Time 655320, Note Name: C#5, Velocity: 82
Note OFF: Time 655440, Note Name: C#5
Note ON: Time 655440, Note Name: A#4, Velocity: 80
Note OFF: Time 655560, Note Name: A#4
Note ON: Time 655560, Note Name: F4, Velocity: 74
Note OFF: Time 655680, Note Name: F4
Note ON: Time 655680, Note Name: C#4, Velocity: 78
Note OFF: Time 655800, Note Name: C#4
Note ON: Time 655800, Note Name: A#4, Velocity: 73
Note OFF: Time 655920, Note Name: A#4
Note ON: Time 655920, Note Name: F4, Velocity: 81
Note OFF: Time 656040, Note Name: F4
Note ON: Time 656040, Note Name: C#4, Velocity: 78
Note OFF: Time 656160, Note Name: C#4
Note ON: Time 657360, Note Name: C#4, Velocity: 80
Note OFF: Time 657480, Note Name: C#4
Note ON: Time 657480, Note Name: F4, Velocity: 75
Note OFF: Time 657600, Note Name: F4
Note ON: Time 657600, Note Name: A#4, Velocity: 75
Note OFF: Time 657720, Note Name: A#4
Note ON: Time 657720, Note Name: C#5, Velocity: 75
Note OFF: Time 657840, Note Name: C#5
Note ON: Time 657840, Note Name: F5, Velocity: 79
Note OFF: Time 657960, Note Name: F5
Note ON: Time 657960, Note Name: C#5, Velocity: 73
Note OFF: Time 658080, Note Name: C#5
Note ON: Time 658080, Note Name: A#4, Velocity: 80
Note OFF: Time 658200, Note Name: A#4
Note ON: Time 658200, Note Name: C#5, Velocity: 74
Note OFF: Time 658320, Note Name: C#5
Note ON: Time 658320, Note Name: F5, Velocity: 79
Note OFF: Time 658440, Note Name: F5
Note ON: Time 658440, Note Name: A#5, Velocity: 74
Note OFF: Time 658560, Note Name: A#5
Note ON: Time 658560, Note Name: C#6, Velocity: 82
Note OFF: Time 658680, Note Name: C#6
Note ON: Time 658680, Note Name: A#5, Velocity: 75
Note OFF: Time 658800, Note Name: A#5
Note ON: Time 658800, Note Name: F6, Velocity: 83
Note OFF: Time 658920, Note Name: F6
Note ON: Time 658920, Note Name: C#6, Velocity: 78
Note OFF: Time 659040, Note Name: C#6
Note ON: Time 659040, Note Name: A#6, Velocity: 83
Note OFF: Time 659160, Note Name: A#6
Note ON: Time 659160, Note Name: F6, Velocity: 78
Note OFF: Time 659280, Note Name: F6
Note ON: Time 659280, Note Name: C#6, Velocity: 80
Note OFF: Time 659400, Note Name: C#6
Note ON: Time 659400, Note Name: A#5, Velocity: 75
Note OFF: Time 659520, Note Name: A#5
Note ON: Time 659880, Note Name: G#6, Velocity: 78
Note OFF: Time 660000, Note Name: G#6
Note ON: Time 660000, Note Name: F6, Velocity: 85
Note OFF: Time 660120, Note Name: F6
Note ON: Time 660120, Note Name: B6, Velocity: 81
Note OFF: Time 660240, Note Name: B6
Note ON: Time 660240, Note Name: G#6, Velocity: 92
Note OFF: Time 660360, Note Name: G#6
Note ON: Time 660360, Note Name: F6, Velocity: 80
Note OFF: Time 660480, Note Name: F6
Note ON: Time 660480, Note Name: D6, Velocity: 81
Note OFF: Time 660600, Note Name: D6
Note ON: Time 660600, Note Name: B5, Velocity: 77
Note OFF: Time 660720, Note Name: B5
Note ON: Time 660720, Note Name: G#5, Velocity: 81
Note OFF: Time 660840, Note Name: G#5
Note ON: Time 660840, Note Name: F5, Velocity: 79
Note OFF: Time 660960, Note Name: F5
Note ON: Time 660960, Note Name: B5, Velocity: 85
Note OFF: Time 661080, Note Name: B5
Note ON: Time 661080, Note Name: G#5, Velocity: 82
Note OFF: Time 661200, Note Name: G#5
Note ON: Time 661200, Note Name: F5, Velocity: 78
Note OFF: Time 661320, Note Name: F5
Note ON: Time 661320, Note Name: D5, Velocity: 74
Note OFF: Time 661440, Note Name: D5
Note ON: Time 661440, Note Name: B4, Velocity: 75
Note OFF: Time 661560, Note Name: B4
Note ON: Time 661560, Note Name: G#4, Velocity: 73
Note OFF: Time 661680, Note Name: G#4
Note ON: Time 661680, Note Name: D5, Velocity: 81
Note OFF: Time 661800, Note Name: D5
Note ON: Time 661800, Note Name: B4, Velocity: 78
Note OFF: Time 661920, Note Name: B4
Note ON: Time 661920, Note Name: G#4, Velocity: 74
Note OFF: Time 662040, Note Name: G#4
Note ON: Time 662040, Note Name: F4, Velocity: 74
Note OFF: Time 662160, Note Name: F4
Note ON: Time 662160, Note Name: D4, Velocity: 74
Note OFF: Time 662280, Note Name: D4
Note ON: Time 662280, Note Name: B3, Velocity: 74
Note OFF: Time 662400, Note Name: B3
Note ON: Time 662400, Note Name: G#4, Velocity: 79
Note OFF: Time 662520, Note Name: G#4
Note ON: Time 662520, Note Name: F4, Velocity: 71
Note OFF: Time 662640, Note Name: F4
Note ON: Time 662640, Note Name: D4, Velocity: 74
Note OFF: Time 662760, Note Name: D4
Note ON: Time 663840, Note Name: D4, Velocity: 80
Note OFF: Time 663960, Note Name: D4
Note ON: Time 663960, Note Name: F4, Velocity: 74
Note OFF: Time 664080, Note Name: F4
Note ON: Time 664080, Note Name: G#4, Velocity: 79
Note OFF: Time 664200, Note Name: G#4
Note ON: Time 664200, Note Name: B4, Velocity: 74
Note OFF: Time 664320, Note Name: B4
Note ON: Time 664320, Note Name: D5, Velocity: 82
Note OFF: Time 664440, Note Name: D5
Note ON: Time 664440, Note Name: F5, Velocity: 75
Note OFF: Time 664560, Note Name: F5
Note ON: Time 664560, Note Name: G#5, Velocity: 83
Note OFF: Time 664680, Note Name: G#5
Note ON: Time 664680, Note Name: B5, Velocity: 78
Note OFF: Time 664800, Note Name: B5
Note ON: Time 664800, Note Name: D6, Velocity: 83
Note OFF: Time 664920, Note Name: D6
Note ON: Time 664920, Note Name: F6, Velocity: 78
Note OFF: Time 665040, Note Name: F6
Note ON: Time 665040, Note Name: G#6, Velocity: 80
Note OFF: Time 665160, Note Name: G#6
Note ON: Time 665160, Note Name: B6, Velocity: 75
Note OFF: Time 665280, Note Name: B6
Note ON: Time 665640, Note Name: G#6, Velocity: 78
Note OFF: Time 665760, Note Name: G#6
Note ON: Time 665760, Note Name: F6, Velocity: 82
Note OFF: Time 665880, Note Name: F6
Note ON: Time 665880, Note Name: C7, Velocity: 79
Note OFF: Time 666000, Note Name: C7
Note ON: Time 666000, Note Name: G#6, Velocity: 92
Note OFF: Time 666120, Note Name: G#6
Note ON: Time 666120, Note Name: F6, Velocity: 83
Note OFF: Time 666240, Note Name: F6
Note ON: Time 666240, Note Name: C6, Velocity: 82
Note OFF: Time 666360, Note Name: C6
Note ON: Time 666360, Note Name: G#5, Velocity: 78
Note OFF: Time 666480, Note Name: G#5
Note ON: Time 666480, Note Name: F5, Velocity: 82
Note OFF: Time 666600, Note Name: F5
Note ON: Time 666600, Note Name: C6, Velocity: 79
Note OFF: Time 666720, Note Name: C6
Note ON: Time 666720, Note Name: G#5, Velocity: 86
Note OFF: Time 666840, Note Name: G#5
Note ON: Time 666840, Note Name: F5, Velocity: 82
Note OFF: Time 666960, Note Name: F5
Note ON: Time 666960, Note Name: C5, Velocity: 80
Note OFF: Time 667080, Note Name: C5
Note ON: Time 667080, Note Name: G#4, Velocity: 74
Note OFF: Time 667200, Note Name: G#4
Note ON: Time 667200, Note Name: F4, Velocity: 78
Note OFF: Time 667320, Note Name: F4
Note ON: Time 667320, Note Name: C5, Velocity: 73
Note OFF: Time 667440, Note Name: C5
Note ON: Time 667440, Note Name: G#4, Velocity: 81
Note OFF: Time 667560, Note Name: G#4
Note ON: Time 667560, Note Name: F4, Velocity: 78
Note OFF: Time 667680, Note Name: F4
Note ON: Time 669600, Note Name: F4, Velocity: 80
Note OFF: Time 669720, Note Name: F4
Note ON: Time 669720, Note Name: G#4, Velocity: 74
Note OFF: Time 669840, Note Name: G#4
Note ON: Time 669840, Note Name: C5, Velocity: 79
Note OFF: Time 669960, Note Name: C5
Note ON: Time 669960, Note Name: F5, Velocity: 74
Note OFF: Time 670080, Note Name: F5
Note ON: Time 670080, Note Name: G#5, Velocity: 78
Note OFF: Time 670200, Note Name: G#5
Note ON: Time 670200, Note Name: C6, Velocity: 75
Note OFF: Time 670320, Note Name: C6
Note ON: Time 670320, Note Name: F6, Velocity: 83
Note OFF: Time 670440, Note Name: F6
Note ON: Time 670440, Note Name: G#6, Velocity: 78
Note OFF: Time 670560, Note Name: G#6
Note ON: Time 670560, Note Name: C7, Velocity: 83
Note OFF: Time 670680, Note Name: C7
Note ON: Time 670680, Note Name: G#6, Velocity: 78
Note OFF: Time 670800, Note Name: G#6
Note ON: Time 670800, Note Name: F6, Velocity: 80
Note OFF: Time 670920, Note Name: F6
Note ON: Time 670920, Note Name: C6, Velocity: 75
Note OFF: Time 671040, Note Name: C6
Note ON: Time 671400, Note Name: G6, Velocity: 72
Note OFF: Time 671520, Note Name: G6
Note ON: Time 671520, Note Name: E6, Velocity: 77
Note OFF: Time 671640, Note Name: E6
Note ON: Time 671640, Note Name: A#6, Velocity: 73
Note OFF: Time 671760, Note Name: A#6
Note ON: Time 671760, Note Name: G6, Velocity: 78
Note OFF: Time 671880, Note Name: G6
Note ON: Time 671880, Note Name: E6, Velocity: 77
Note OFF: Time 672000, Note Name: E6
Note ON: Time 672000, Note Name: C6, Velocity: 74
Note OFF: Time 672120, Note Name: C6
Note ON: Time 672120, Note Name: A#5, Velocity: 72
Note OFF: Time 672240, Note Name: A#5
Note ON: Time 672240, Note Name: G5, Velocity: 77
Note OFF: Time 672360, Note Name: G5
Note ON: Time 672360, Note Name: E5, Velocity: 73
Note OFF: Time 672480, Note Name: E5
Note ON: Time 672480, Note Name: C5, Velocity: 78
Note OFF: Time 672600, Note Name: C5
Note ON: Time 672600, Note Name: A#4, Velocity: 75
Note OFF: Time 672720, Note Name: A#4
Note ON: Time 672720, Note Name: G4, Velocity: 71
Note OFF: Time 672840, Note Name: G4
Note ON: Time 672840, Note Name: E4, Velocity: 70
Note OFF: Time 672960, Note Name: E4
Note ON: Time 674880, Note Name: C4, Velocity: 71
Note OFF: Time 675000, Note Name: C4
Note ON: Time 675000, Note Name: E4, Velocity: 71
Note OFF: Time 675120, Note Name: E4
Note ON: Time 675120, Note Name: G4, Velocity: 73
Note OFF: Time 675240, Note Name: G4
Note ON: Time 675240, Note Name: A#4, Velocity: 69
Note OFF: Time 675360, Note Name: A#4
Note ON: Time 675360, Note Name: C5, Velocity: 73
Note OFF: Time 675480, Note Name: C5
Note ON: Time 675480, Note Name: E5, Velocity: 66
Note OFF: Time 675600, Note Name: E5
Note ON: Time 675600, Note Name: G5, Velocity: 70
Note OFF: Time 675720, Note Name: G5
Note ON: Time 675720, Note Name: E5, Velocity: 66
Note OFF: Time 675840, Note Name: E5
Note ON: Time 675840, Note Name: C5, Velocity: 70
Note OFF: Time 675960, Note Name: C5
Note ON: Time 675960, Note Name: E5, Velocity: 66
Note OFF: Time 676080, Note Name: E5
Note ON: Time 676080, Note Name: G5, Velocity: 70
Note OFF: Time 676200, Note Name: G5
Note ON: Time 676200, Note Name: E5, Velocity: 60
Note OFF: Time 676320, Note Name: E5
Note ON: Time 676320, Note Name: A#5, Velocity: 65
Note OFF: Time 676440, Note Name: A#5
Note ON: Time 676440, Note Name: G5, Velocity: 58
Note OFF: Time 676560, Note Name: G5
Note ON: Time 676560, Note Name: E5, Velocity: 63
Note OFF: Time 676680, Note Name: E5
Note ON: Time 676680, Note Name: G5, Velocity: 56
Note OFF: Time 676800, Note Name: G5
Note ON: Time 676800, Note Name: A#5, Velocity: 57
Note OFF: Time 677280, Note Name: A#5
Note ON: Time 678960, Note Name: G5, Velocity: 46
Note ON: Time 678960, Note Name: E5, Velocity: 46
Note OFF: Time 679200, Note Name: E5
Note OFF: Time 679200, Note Name: G5
Note ON: Time 679200, Note Name: E5, Velocity: 42
Note ON: Time 679200, Note Name: G5, Velocity: 42
Note OFF: Time 679440, Note Name: G5
Note OFF: Time 679440, Note Name: E5
Note ON: Time 679440, Note Name: E5, Velocity: 46
Note ON: Time 679440, Note Name: G5, Velocity: 46
Note OFF: Time 679680, Note Name: G5
Note OFF: Time 679680, Note Name: E5
Note ON: Time 679680, Note Name: A#5, Velocity: 46
Note ON: Time 679680, Note Name: G5, Velocity: 46
Note OFF: Time 680160, Note Name: G5
Note OFF: Time 680160, Note Name: A#5
Note ON: Time 681840, Note Name: E4, Velocity: 39
Note ON: Time 681840, Note Name: G4, Velocity: 39
Note OFF: Time 682080, Note Name: G4
Note OFF: Time 682080, Note Name: E4
Note ON: Time 682080, Note Name: E4, Velocity: 37
Note ON: Time 682080, Note Name: G4, Velocity: 37
Note OFF: Time 682320, Note Name: G4
Note OFF: Time 682320, Note Name: E4
Note ON: Time 682320, Note Name: G4, Velocity: 37
Note ON: Time 682320, Note Name: E4, Velocity: 37
Note OFF: Time 682560, Note Name: E4
Note OFF: Time 682560, Note Name: G4
Note ON: Time 682560, Note Name: G4, Velocity: 41
Note ON: Time 682560, Note Name: A#4, Velocity: 41
Note OFF: Time 683040, Note Name: A#4
Note OFF: Time 683040, Note Name: G4
Note ON: Time 686160, Note Name: A#4, Velocity: 32
Note ON: Time 686160, Note Name: G4, Velocity: 32
Note ON: Time 686160, Note Name: E5, Velocity: 32
Note OFF: Time 686400, Note Name: E5
Note OFF: Time 686400, Note Name: G4
Note OFF: Time 686400, Note Name: A#4
Note ON: Time 686400, Note Name: E5, Velocity: 36
Note ON: Time 686400, Note Name: A#4, Velocity: 36
Note ON: Time 686400, Note Name: G4, Velocity: 36
Note OFF: Time 686640, Note Name: G4
Note OFF: Time 686640, Note Name: A#4
Note OFF: Time 686640, Note Name: E5
Note ON: Time 686640, Note Name: E5, Velocity: 39
Note ON: Time 686640, Note Name: G4, Velocity: 39
Note ON: Time 686640, Note Name: A#4, Velocity: 39
Note OFF: Time 686880, Note Name: A#4
Note OFF: Time 686880, Note Name: G4
Note OFF: Time 686880, Note Name: E5
Note ON: Time 686880, Note Name: E5, Velocity: 43
Note ON: Time 686880, Note Name: A#4, Velocity: 43
Note ON: Time 686880, Note Name: G4, Velocity: 43
Note OFF: Time 687600, Note Name: G4
Note OFF: Time 687600, Note Name: A#4
Note OFF: Time 687600, Note Name: E5
Note ON: Time 687600, Note Name: C6, Velocity: 87
Note ON: Time 687600, Note Name: A#5, Velocity: 87
Note ON: Time 687600, Note Name: G5, Velocity: 87
Note ON: Time 687600, Note Name: E5, Velocity: 87
Note ON: Time 687600, Note Name: E6, Velocity: 102
Note OFF: Time 687840, Note Name: E6
Note OFF: Time 687840, Note Name: G5
Note OFF: Time 687840, Note Name: C6
Note OFF: Time 687840, Note Name: A#5
Note OFF: Time 687840, Note Name: E5
Note ON: Time 687840, Note Name: E5, Velocity: 78
Note ON: Time 687840, Note Name: C6, Velocity: 78
Note ON: Time 687840, Note Name: G5, Velocity: 78
Note ON: Time 687840, Note Name: E6, Velocity: 93
Note ON: Time 687840, Note Name: A#5, Velocity: 78
Note OFF: Time 688080, Note Name: A#5
Note OFF: Time 688080, Note Name: G5
Note OFF: Time 688080, Note Name: E5
Note OFF: Time 688080, Note Name: C6
Note OFF: Time 688080, Note Name: E6
Note ON: Time 688080, Note Name: G5, Velocity: 78
Note ON: Time 688080, Note Name: E5, Velocity: 78
Note ON: Time 688080, Note Name: A#5, Velocity: 78
Note ON: Time 688080, Note Name: C6, Velocity: 78
Note ON: Time 688080, Note Name: E6, Velocity: 93
Note OFF: Time 688320, Note Name: E6
Note OFF: Time 688320, Note Name: A#5
Note OFF: Time 688320, Note Name: G5
Note OFF: Time 688320, Note Name: E5
Note OFF: Time 688320, Note Name: C6
Note ON: Time 688320, Note Name: C6, Velocity: 87
Note ON: Time 688320, Note Name: G#5, Velocity: 87
Note ON: Time 688320, Note Name: F6, Velocity: 102
Note ON: Time 688320, Note Name: F5, Velocity: 87
Note OFF: Time 688800, Note Name: F5
Note OFF: Time 688800, Note Name: C6
Note OFF: Time 688800, Note Name: G#5
Note OFF: Time 688800, Note Name: F6
Note ON: Time 690480, Note Name: G#4, Velocity: 66
Note OFF: Time 691080, Note Name: G#4
Note ON: Time 691080, Note Name: C5, Velocity: 58
Note OFF: Time 691200, Note Name: C5
Note ON: Time 691200, Note Name: F5, Velocity: 63
Note OFF: Time 691920, Note Name: F5
Note ON: Time 691920, Note Name: G#5, Velocity: 68
Note OFF: Time 692520, Note Name: G#5
Note ON: Time 692520, Note Name: F5, Velocity: 60
Note OFF: Time 692640, Note Name: F5
Note ON: Time 692640, Note Name: E5, Velocity: 63
Note OFF: Time 693360, Note Name: E5
Note ON: Time 693360, Note Name: G5, Velocity: 68
Note OFF: Time 693960, Note Name: G5
Note ON: Time 693960, Note Name: E5, Velocity: 60
Note OFF: Time 694080, Note Name: E5
Note ON: Time 694080, Note Name: F5, Velocity: 63
Note OFF: Time 694800, Note Name: F5
Note ON: Time 694800, Note Name: C5, Velocity: 62
Note OFF: Time 696240, Note Name: C5
Note ON: Time 696240, Note Name: G#5, Velocity: 71
Note ON: Time 696240, Note Name: G#4, Velocity: 60
Note OFF: Time 696840, Note Name: G#4
Note OFF: Time 696840, Note Name: G#5
Note ON: Time 696840, Note Name: C6, Velocity: 62
Note ON: Time 696840, Note Name: C5, Velocity: 52
Note OFF: Time 696960, Note Name: C5
Note OFF: Time 696960, Note Name: C6
Note ON: Time 696960, Note Name: F5, Velocity: 61
Note ON: Time 696960, Note Name: F6, Velocity: 73
Note OFF: Time 697680, Note Name: F6
Note OFF: Time 697680, Note Name: F5
Note ON: Time 697680, Note Name: G#6, Velocity: 78
Note ON: Time 697680, Note Name: G#5, Velocity: 65
Note OFF: Time 698280, Note Name: G#5
Note OFF: Time 698280, Note Name: G#6
Note ON: Time 698280, Note Name: F6, Velocity: 71
Note ON: Time 698280, Note Name: F5, Velocity: 59
Note OFF: Time 698400, Note Name: F5
Note OFF: Time 698400, Note Name: F6
Note ON: Time 698400, Note Name: E6, Velocity: 76
Note ON: Time 698400, Note Name: E5, Velocity: 64
Note OFF: Time 699120, Note Name: E5
Note OFF: Time 699120, Note Name: E6
Note ON: Time 699120, Note Name: G6, Velocity: 82
Note ON: Time 699120, Note Name: G5, Velocity: 68
Note OFF: Time 699720, Note Name: G5
Note OFF: Time 699720, Note Name: G6
Note ON: Time 699720, Note Name: E6, Velocity: 77
Note ON: Time 699720, Note Name: E5, Velocity: 65
Note OFF: Time 699840, Note Name: E5
Note OFF: Time 699840, Note Name: E6
Note ON: Time 699840, Note Name: F#6, Velocity: 99
Note ON: Time 699840, Note Name: F#5, Velocity: 82
Note OFF: Time 700560, Note Name: F#5
Note OFF: Time 700560, Note Name: F#6
Note ON: Time 700560, Note Name: C5, Velocity: 63
Note ON: Time 700560, Note Name: C6, Velocity: 79
Note OFF: Time 702000, Note Name: C6
Note OFF: Time 702000, Note Name: C5
Note ON: Time 702000, Note Name: D#5, Velocity: 70
Note ON: Time 702000, Note Name: D#6, Velocity: 84
Note OFF: Time 702600, Note Name: D#6
Note OFF: Time 702600, Note Name: D#5
Note ON: Time 702600, Note Name: C5, Velocity: 66
Note ON: Time 702600, Note Name: C6, Velocity: 78
Note OFF: Time 702720, Note Name: C6
Note OFF: Time 702720, Note Name: C5
Note ON: Time 702720, Note Name: F6, Velocity: 99
Note ON: Time 702720, Note Name: F5, Velocity: 82
Note OFF: Time 703440, Note Name: F5
Note OFF: Time 703440, Note Name: F6
Note ON: Time 703440, Note Name: A#4, Velocity: 63
Note ON: Time 703440, Note Name: A#5, Velocity: 79
Note OFF: Time 704880, Note Name: A#5
Note OFF: Time 704880, Note Name: A#4
Note ON: Time 704880, Note Name: C#5, Velocity: 70
Note ON: Time 704880, Note Name: C#6, Velocity: 84
Note OFF: Time 705480, Note Name: C#6
Note OFF: Time 705480, Note Name: C#5
Note ON: Time 705480, Note Name: A#5, Velocity: 78
Note ON: Time 705480, Note Name: A#4, Velocity: 66
Note OFF: Time 705600, Note Name: A#4
Note OFF: Time 705600, Note Name: A#5
Note ON: Time 705600, Note Name: G#4, Velocity: 75
Note ON: Time 705600, Note Name: G#5, Velocity: 90
Note OFF: Time 706320, Note Name: G#5
Note OFF: Time 706320, Note Name: G#4
Note ON: Time 706320, Note Name: C6, Velocity: 84
Note ON: Time 706320, Note Name: C5, Velocity: 70
Note OFF: Time 706920, Note Name: C5
Note OFF: Time 706920, Note Name: C6
Note ON: Time 706920, Note Name: G#5, Velocity: 78
Note ON: Time 706920, Note Name: G#4, Velocity: 66
Note OFF: Time 707040, Note Name: G#4
Note OFF: Time 707040, Note Name: G#5
Note ON: Time 707040, Note Name: G5, Velocity: 90
Note ON: Time 707040, Note Name: G4, Velocity: 75
Note OFF: Time 707760, Note Name: G4
Note OFF: Time 707760, Note Name: G5
Note ON: Time 707760, Note Name: G5, Velocity: 77
Note ON: Time 707760, Note Name: G6, Velocity: 92
Note OFF: Time 708360, Note Name: G6
Note OFF: Time 708360, Note Name: G5
Note ON: Time 708360, Note Name: E5, Velocity: 72
Note ON: Time 708360, Note Name: E6, Velocity: 85
Note ON: Time 708460, Note Name: F#5, Velocity: 84
Note ON: Time 708460, Note Name: F#6, Velocity: 103
Note OFF: Time 708480, Note Name: E6
Note OFF: Time 708480, Note Name: E5
Note OFF: Time 709180, Note Name: F#5
Note OFF: Time 709180, Note Name: F#6
Note ON: Time 709200, Note Name: C5, Velocity: 69
Note ON: Time 709200, Note Name: C6, Velocity: 86
Note OFF: Time 710640, Note Name: C6
Note OFF: Time 710640, Note Name: C5
Note ON: Time 710640, Note Name: D#6, Velocity: 92
Note ON: Time 710640, Note Name: D#5, Velocity: 77
Note OFF: Time 711240, Note Name: D#5
Note OFF: Time 711240, Note Name: D#6
Note ON: Time 711240, Note Name: C5, Velocity: 72
Note ON: Time 711240, Note Name: C6, Velocity: 85
Note OFF: Time 711360, Note Name: C6
Note OFF: Time 711360, Note Name: C5
Note ON: Time 711360, Note Name: F6, Velocity: 103
Note ON: Time 711360, Note Name: F5, Velocity: 84
Note OFF: Time 712080, Note Name: F5
Note OFF: Time 712080, Note Name: F6
Note ON: Time 712080, Note Name: A#5, Velocity: 86
Note ON: Time 712080, Note Name: A#4, Velocity: 69
Note OFF: Time 713520, Note Name: A#4
Note OFF: Time 713520, Note Name: A#5
Note ON: Time 713520, Note Name: C#5, Velocity: 77
Note ON: Time 713520, Note Name: C#6, Velocity: 92
Note OFF: Time 714120, Note Name: C#6
Note OFF: Time 714120, Note Name: C#5
Note ON: Time 714120, Note Name: A#4, Velocity: 72
Note ON: Time 714120, Note Name: A#5, Velocity: 85
Note OFF: Time 714240, Note Name: A#5
Note OFF: Time 714240, Note Name: A#4
Note ON: Time 714240, Note Name: G#4, Velocity: 82
Note ON: Time 714240, Note Name: G#5, Velocity: 99
Note OFF: Time 714960, Note Name: G#5
Note OFF: Time 714960, Note Name: G#4
Note ON: Time 714960, Note Name: C6, Velocity: 92
Note ON: Time 714960, Note Name: C5, Velocity: 77
Note OFF: Time 715560, Note Name: C5
Note OFF: Time 715560, Note Name: C6
Note ON: Time 715560, Note Name: G#5, Velocity: 85
Note ON: Time 715560, Note Name: G#4, Velocity: 72
Note OFF: Time 715680, Note Name: G#4
Note OFF: Time 715680, Note Name: G#5
Note ON: Time 715680, Note Name: G5, Velocity: 99
Note ON: Time 715680, Note Name: G4, Velocity: 82
Note OFF: Time 716400, Note Name: G4
Note OFF: Time 716400, Note Name: G5
Note ON: Time 716400, Note Name: C6, Velocity: 101
Note ON: Time 716400, Note Name: C5, Velocity: 84
Note OFF: Time 716880, Note Name: C5
Note OFF: Time 716880, Note Name: C6
Note ON: Time 716880, Note Name: C6, Velocity: 95
Note ON: Time 716880, Note Name: C5, Velocity: 80
Note OFF: Time 717120, Note Name: C5
Note OFF: Time 717120, Note Name: C6
Note ON: Time 717120, Note Name: C6, Velocity: 105
Note ON: Time 717120, Note Name: C5, Velocity: 87
Note OFF: Time 717360, Note Name: C5
Note OFF: Time 717360, Note Name: C6
Note ON: Time 717360, Note Name: F4, Velocity: 59
Note ON: Time 717360, Note Name: C4, Velocity: 59
Note ON: Time 717360, Note Name: C5, Velocity: 79
Note ON: Time 717360, Note Name: G#4, Velocity: 66
Note OFF: Time 717580, Note Name: G#4
Note OFF: Time 717580, Note Name: F4
Note OFF: Time 717580, Note Name: C4
Note OFF: Time 717580, Note Name: C5
Note ON: Time 717600, Note Name: G#4, Velocity: 66
Note ON: Time 717600, Note Name: C5, Velocity: 79
Note ON: Time 717600, Note Name: C4, Velocity: 59
Note ON: Time 717600, Note Name: F4, Velocity: 59
Note OFF: Time 717820, Note Name: F4
Note OFF: Time 717820, Note Name: G#4
Note OFF: Time 717820, Note Name: C5
Note OFF: Time 717820, Note Name: C4
Note ON: Time 717840, Note Name: G#4, Velocity: 69
Note ON: Time 717840, Note Name: F4, Velocity: 62
Note ON: Time 717840, Note Name: C5, Velocity: 84
Note ON: Time 717840, Note Name: C4, Velocity: 62
Note OFF: Time 718560, Note Name: C4
Note OFF: Time 718560, Note Name: G#4
Note OFF: Time 718560, Note Name: F4
Note OFF: Time 718560, Note Name: C5
Note ON: Time 718800, Note Name: C4, Velocity: 59
Note ON: Time 718800, Note Name: C5, Velocity: 79
Note ON: Time 718800, Note Name: E4, Velocity: 66
Note ON: Time 718800, Note Name: G4, Velocity: 66
Note OFF: Time 719020, Note Name: G4
Note OFF: Time 719020, Note Name: C4
Note OFF: Time 719020, Note Name: C5
Note OFF: Time 719020, Note Name: E4
Note ON: Time 719040, Note Name: C5, Velocity: 79
Note ON: Time 719040, Note Name: C4, Velocity: 59
Note ON: Time 719040, Note Name: E4, Velocity: 66
Note ON: Time 719040, Note Name: G4, Velocity: 66
Note OFF: Time 719260, Note Name: G4
Note OFF: Time 719260, Note Name: C5
Note OFF: Time 719260, Note Name: C4
Note OFF: Time 719260, Note Name: E4
Note ON: Time 719280, Note Name: C5, Velocity: 84
Note ON: Time 719280, Note Name: A#4, Velocity: 69
Note ON: Time 719280, Note Name: G4, Velocity: 62
Note ON: Time 719280, Note Name: C4, Velocity: 62
Note OFF: Time 720000, Note Name: C4
Note OFF: Time 720000, Note Name: C5
Note OFF: Time 720000, Note Name: A#4
Note OFF: Time 720000, Note Name: G4
Note ON: Time 720240, Note Name: G#4, Velocity: 66
Note ON: Time 720240, Note Name: C4, Velocity: 59
Note ON: Time 720240, Note Name: F4, Velocity: 59
Note ON: Time 720240, Note Name: C5, Velocity: 79
Note OFF: Time 720460, Note Name: C5
Note OFF: Time 720460, Note Name: G#4
Note OFF: Time 720460, Note Name: C4
Note OFF: Time 720460, Note Name: F4
Note ON: Time 720480, Note Name: G#4, Velocity: 66
Note ON: Time 720480, Note Name: C5, Velocity: 79
Note ON: Time 720480, Note Name: C4, Velocity: 59
Note ON: Time 720480, Note Name: F4, Velocity: 59
Note OFF: Time 720700, Note Name: F4
Note OFF: Time 720700, Note Name: G#4
Note OFF: Time 720700, Note Name: C5
Note OFF: Time 720700, Note Name: C4
Note ON: Time 720720, Note Name: C4, Velocity: 62
Note ON: Time 720720, Note Name: G#4, Velocity: 69
Note ON: Time 720720, Note Name: F4, Velocity: 62
Note ON: Time 720720, Note Name: C5, Velocity: 84
Note OFF: Time 721440, Note Name: C5
Note OFF: Time 721440, Note Name: C4
Note OFF: Time 721440, Note Name: G#4
Note OFF: Time 721440, Note Name: F4
Note ON: Time 721680, Note Name: E4, Velocity: 66
Note ON: Time 721680, Note Name: C4, Velocity: 59
Note ON: Time 721680, Note Name: C5, Velocity: 79
Note ON: Time 721680, Note Name: G4, Velocity: 66
Note OFF: Time 721900, Note Name: G4
Note OFF: Time 721900, Note Name: E4
Note OFF: Time 721900, Note Name: C4
Note OFF: Time 721900, Note Name: C5
Note ON: Time 721920, Note Name: E4, Velocity: 66
Note ON: Time 721920, Note Name: G4, Velocity: 66
Note ON: Time 721920, Note Name: C4, Velocity: 59
Note ON: Time 721920, Note Name: C5, Velocity: 79
Note OFF: Time 722140, Note Name: C5
Note OFF: Time 722140, Note Name: E4
Note OFF: Time 722140, Note Name: G4
Note OFF: Time 722140, Note Name: C4
Note ON: Time 722160, Note Name: C5, Velocity: 84
Note ON: Time 722160, Note Name: G4, Velocity: 62
Note ON: Time 722160, Note Name: A#4, Velocity: 69
Note ON: Time 722160, Note Name: C4, Velocity: 62
Note OFF: Time 722880, Note Name: C4
Note OFF: Time 722880, Note Name: C5
Note OFF: Time 722880, Note Name: G4
Note OFF: Time 722880, Note Name: A#4
Note ON: Time 723120, Note Name: F4, Velocity: 65
Note ON: Time 723120, Note Name: C4, Velocity: 65
Note ON: Time 723120, Note Name: C5, Velocity: 77
Note ON: Time 723120, Note Name: G#4, Velocity: 65
Note OFF: Time 723340, Note Name: G#4
Note OFF: Time 723340, Note Name: F4
Note OFF: Time 723340, Note Name: C4
Note OFF: Time 723340, Note Name: C5
Note ON: Time 723600, Note Name: F4, Velocity: 73
Note ON: Time 723600, Note Name: C#4, Velocity: 73
Note ON: Time 723600, Note Name: C#5, Velocity: 85
Note ON: Time 723600, Note Name: G4, Velocity: 73
Note OFF: Time 723820, Note Name: G4
Note OFF: Time 723820, Note Name: F4
Note OFF: Time 723820, Note Name: C#4
Note OFF: Time 723820, Note Name: C#5
Note ON: Time 724080, Note Name: C#4, Velocity: 65
Note ON: Time 724080, Note Name: F4, Velocity: 65
Note ON: Time 724080, Note Name: G4, Velocity: 65
Note ON: Time 724080, Note Name: C#5, Velocity: 77
Note OFF: Time 724300, Note Name: C#5
Note OFF: Time 724300, Note Name: C#4
Note OFF: Time 724300, Note Name: F4
Note OFF: Time 724300, Note Name: G4
Note ON: Time 724560, Note Name: C4, Velocity: 69
Note ON: Time 724560, Note Name: C5, Velocity: 83
Note ON: Time 724560, Note Name: G#4, Velocity: 69
Note ON: Time 724560, Note Name: F4, Velocity: 69
Note OFF: Time 724780, Note Name: F4
Note OFF: Time 724780, Note Name: C4
Note OFF: Time 724780, Note Name: C5
Note OFF: Time 724780, Note Name: G#4
Note ON: Time 725040, Note Name: C4, Velocity: 70
Note ON: Time 725040, Note Name: E4, Velocity: 70
Note ON: Time 725040, Note Name: C5, Velocity: 82
Note ON: Time 725040, Note Name: G4, Velocity: 70
Note OFF: Time 725260, Note Name: G4
Note OFF: Time 725260, Note Name: C4
Note OFF: Time 725260, Note Name: E4
Note OFF: Time 725260, Note Name: C5
Note ON: Time 725520, Note Name: E4, Velocity: 59
Note ON: Time 725520, Note Name: G4, Velocity: 59
Note ON: Time 725520, Note Name: C4, Velocity: 59
Note ON: Time 725520, Note Name: C5, Velocity: 71
Note OFF: Time 725740, Note Name: C5
Note OFF: Time 725740, Note Name: E4
Note OFF: Time 725740, Note Name: G4
Note OFF: Time 725740, Note Name: C4
Note ON: Time 725760, Note Name: F4, Velocity: 76
Note ON: Time 725760, Note Name: G#4, Velocity: 76
Note ON: Time 725760, Note Name: C4, Velocity: 76
Note ON: Time 725760, Note Name: C5, Velocity: 92
Note OFF: Time 726000, Note Name: C5
Note OFF: Time 726000, Note Name: F4
Note OFF: Time 726000, Note Name: G#4
Note OFF: Time 726000, Note Name: C4
Note ON: Time 726000, Note Name: F3, Velocity: 59
Note ON: Time 726000, Note Name: C3, Velocity: 59
Note ON: Time 726000, Note Name: G#3, Velocity: 66
Note ON: Time 726000, Note Name: C4, Velocity: 79
Note OFF: Time 726220, Note Name: C4
Note OFF: Time 726220, Note Name: F3
Note OFF: Time 726220, Note Name: C3
Note OFF: Time 726220, Note Name: G#3
Note ON: Time 726240, Note Name: C3, Velocity: 59
Note ON: Time 726240, Note Name: C4, Velocity: 79
Note ON: Time 726240, Note Name: G#3, Velocity: 66
Note ON: Time 726240, Note Name: F3, Velocity: 59
Note OFF: Time 726460, Note Name: F3
Note OFF: Time 726460, Note Name: C3
Note OFF: Time 726460, Note Name: C4
Note OFF: Time 726460, Note Name: G#3
Note ON: Time 726480, Note Name: C3, Velocity: 62
Note ON: Time 726480, Note Name: F3, Velocity: 62
Note ON: Time 726480, Note Name: C4, Velocity: 84
Note ON: Time 726480, Note Name: G#3, Velocity: 69
Note OFF: Time 727200, Note Name: G#3
Note OFF: Time 727200, Note Name: C3
Note OFF: Time 727200, Note Name: F3
Note OFF: Time 727200, Note Name: C4
Note ON: Time 727440, Note Name: C3, Velocity: 59
Note ON: Time 727440, Note Name: G3, Velocity: 66
Note ON: Time 727440, Note Name: C4, Velocity: 79
Note ON: Time 727440, Note Name: E3, Velocity: 66
Note OFF: Time 727660, Note Name: E3
Note OFF: Time 727660, Note Name: C3
Note OFF: Time 727660, Note Name: G3
Note OFF: Time 727660, Note Name: C4
Note ON: Time 727680, Note Name: G3, Velocity: 66
Note ON: Time 727680, Note Name: E3, Velocity: 66
Note ON: Time 727680, Note Name: C3, Velocity: 59
Note ON: Time 727680, Note Name: C4, Velocity: 79
Note OFF: Time 727900, Note Name: C4
Note OFF: Time 727900, Note Name: G3
Note OFF: Time 727900, Note Name: E3
Note OFF: Time 727900, Note Name: C3
Note ON: Time 727920, Note Name: G3, Velocity: 62
Note ON: Time 727920, Note Name: A#3, Velocity: 69
Note ON: Time 727920, Note Name: C4, Velocity: 84
Note ON: Time 727920, Note Name: C3, Velocity: 62
Note OFF: Time 728640, Note Name: C3
Note OFF: Time 728640, Note Name: G3
Note OFF: Time 728640, Note Name: A#3
Note OFF: Time 728640, Note Name: C4
Note ON: Time 728880, Note Name: C3, Velocity: 59
Note ON: Time 728880, Note Name: F3, Velocity: 59
Note ON: Time 728880, Note Name: G#3, Velocity: 66
Note ON: Time 728880, Note Name: C4, Velocity: 79
Note OFF: Time 729100, Note Name: C4
Note OFF: Time 729100, Note Name: C3
Note OFF: Time 729100, Note Name: F3
Note OFF: Time 729100, Note Name: G#3
Note ON: Time 729120, Note Name: C3, Velocity: 59
Note ON: Time 729120, Note Name: G#3, Velocity: 66
Note ON: Time 729120, Note Name: C4, Velocity: 79
Note ON: Time 729120, Note Name: F3, Velocity: 59
Note OFF: Time 729340, Note Name: F3
Note OFF: Time 729340, Note Name: C3
Note OFF: Time 729340, Note Name: G#3
Note OFF: Time 729340, Note Name: C4
Note ON: Time 729360, Note Name: F3, Velocity: 62
Note ON: Time 729360, Note Name: C3, Velocity: 62
Note ON: Time 729360, Note Name: G#3, Velocity: 69
Note ON: Time 729360, Note Name: C4, Velocity: 84
Note OFF: Time 730080, Note Name: C4
Note OFF: Time 730080, Note Name: F3
Note OFF: Time 730080, Note Name: C3
Note OFF: Time 730080, Note Name: G#3
Note ON: Time 730320, Note Name: E3, Velocity: 66
Note ON: Time 730320, Note Name: G3, Velocity: 66
Note ON: Time 730320, Note Name: C3, Velocity: 59
Note ON: Time 730320, Note Name: C4, Velocity: 79
Note OFF: Time 730540, Note Name: C4
Note OFF: Time 730540, Note Name: E3
Note OFF: Time 730540, Note Name: G3
Note OFF: Time 730540, Note Name: C3
Note ON: Time 730560, Note Name: G3, Velocity: 66
Note ON: Time 730560, Note Name: C4, Velocity: 79
Note ON: Time 730560, Note Name: E3, Velocity: 66
Note ON: Time 730560, Note Name: C3, Velocity: 59
Note OFF: Time 730780, Note Name: C3
Note OFF: Time 730780, Note Name: G3
Note OFF: Time 730780, Note Name: C4
Note OFF: Time 730780, Note Name: E3
Note ON: Time 730800, Note Name: A#3, Velocity: 69
Note ON: Time 730800, Note Name: C3, Velocity: 62
Note ON: Time 730800, Note Name: G3, Velocity: 62
Note ON: Time 730800, Note Name: C4, Velocity: 84
Note OFF: Time 731520, Note Name: C4
Note OFF: Time 731520, Note Name: A#3
Note OFF: Time 731520, Note Name: C3
Note OFF: Time 731520, Note Name: G3
Note ON: Time 731760, Note Name: F3, Velocity: 63
Note ON: Time 731760, Note Name: G#3, Velocity: 63
Note ON: Time 731760, Note Name: C4, Velocity: 81
Note ON: Time 731760, Note Name: C3, Velocity: 63
Note OFF: Time 731980, Note Name: C3
Note OFF: Time 731980, Note Name: F3
Note OFF: Time 731980, Note Name: G#3
Note OFF: Time 731980, Note Name: C4
Note ON: Time 732240, Note Name: C#3, Velocity: 69
Note ON: Time 732240, Note Name: C#4, Velocity: 89
Note ON: Time 732240, Note Name: G3, Velocity: 69
Note ON: Time 732240, Note Name: F3, Velocity: 69
Note OFF: Time 732460, Note Name: F3
Note OFF: Time 732460, Note Name: C#3
Note OFF: Time 732460, Note Name: C#4
Note OFF: Time 732460, Note Name: G3
Note ON: Time 732720, Note Name: C#3, Velocity: 63
Note ON: Time 732720, Note Name: F3, Velocity: 63
Note ON: Time 732720, Note Name: G3, Velocity: 63
Note ON: Time 732720, Note Name: C#4, Velocity: 81
Note OFF: Time 732940, Note Name: C#4
Note OFF: Time 732940, Note Name: C#3
Note OFF: Time 732940, Note Name: F3
Note OFF: Time 732940, Note Name: G3
Note ON: Time 733200, Note Name: G#3, Velocity: 66
Note ON: Time 733200, Note Name: C4, Velocity: 87
Note ON: Time 733200, Note Name: C3, Velocity: 66
Note ON: Time 733200, Note Name: F3, Velocity: 66
Note OFF: Time 733420, Note Name: F3
Note OFF: Time 733420, Note Name: G#3
Note OFF: Time 733420, Note Name: C4
Note OFF: Time 733420, Note Name: C3
Note ON: Time 733680, Note Name: G3, Velocity: 66
Note ON: Time 733680, Note Name: E3, Velocity: 66
Note ON: Time 733680, Note Name: C4, Velocity: 87
Note ON: Time 733680, Note Name: C3, Velocity: 66
Note OFF: Time 733900, Note Name: C3
Note OFF: Time 733900, Note Name: G3
Note OFF: Time 733900, Note Name: E3
Note OFF: Time 733900, Note Name: C4
Note ON: Time 734160, Note Name: E3, Velocity: 63
Note ON: Time 734160, Note Name: G3, Velocity: 63
Note ON: Time 734160, Note Name: C3, Velocity: 63
Note ON: Time 734160, Note Name: C4, Velocity: 81
Note OFF: Time 734380, Note Name: C4
Note OFF: Time 734380, Note Name: E3
Note OFF: Time 734380, Note Name: G3
Note OFF: Time 734380, Note Name: C3
Note ON: Time 734640, Note Name: G#4, Velocity: 63
Note ON: Time 734640, Note Name: C5, Velocity: 81
Note ON: Time 734640, Note Name: F4, Velocity: 63
Note ON: Time 734640, Note Name: C4, Velocity: 63
Note OFF: Time 734860, Note Name: C4
Note OFF: Time 734860, Note Name: G#4
Note OFF: Time 734860, Note Name: C5
Note OFF: Time 734860, Note Name: F4
Note ON: Time 735120, Note Name: F4, Velocity: 69
Note ON: Time 735120, Note Name: C#4, Velocity: 69
Note ON: Time 735120, Note Name: C#5, Velocity: 89
Note ON: Time 735120, Note Name: G4, Velocity: 69
Note OFF: Time 735340, Note Name: G4
Note OFF: Time 735340, Note Name: F4
Note OFF: Time 735340, Note Name: C#4
Note OFF: Time 735340, Note Name: C#5
Note ON: Time 735600, Note Name: F4, Velocity: 63
Note ON: Time 735600, Note Name: C#4, Velocity: 63
Note ON: Time 735600, Note Name: G4, Velocity: 63
Note ON: Time 735600, Note Name: C#5, Velocity: 81
Note OFF: Time 735820, Note Name: C#5
Note OFF: Time 735820, Note Name: F4
Note OFF: Time 735820, Note Name: C#4
Note OFF: Time 735820, Note Name: G4
Note ON: Time 736080, Note Name: C5, Velocity: 87
Note ON: Time 736080, Note Name: F4, Velocity: 66
Note ON: Time 736080, Note Name: C4, Velocity: 66
Note ON: Time 736080, Note Name: G#4, Velocity: 66
Note OFF: Time 736300, Note Name: G#4
Note OFF: Time 736300, Note Name: C5
Note OFF: Time 736300, Note Name: F4
Note OFF: Time 736300, Note Name: C4
Note ON: Time 736560, Note Name: C4, Velocity: 66
Note ON: Time 736560, Note Name: E4, Velocity: 66
Note ON: Time 736560, Note Name: C5, Velocity: 87
Note ON: Time 736560, Note Name: G4, Velocity: 66
Note OFF: Time 736780, Note Name: G4
Note OFF: Time 736780, Note Name: C4
Note OFF: Time 736780, Note Name: E4
Note OFF: Time 736780, Note Name: C5
Note ON: Time 737040, Note Name: E4, Velocity: 63
Note ON: Time 737040, Note Name: G4, Velocity: 63
Note ON: Time 737040, Note Name: C4, Velocity: 63
Note ON: Time 737040, Note Name: C5, Velocity: 81
Note OFF: Time 737260, Note Name: C5
Note OFF: Time 737260, Note Name: E4
Note OFF: Time 737260, Note Name: G4
Note OFF: Time 737260, Note Name: C4
Note ON: Time 737520, Note Name: G#5, Velocity: 72
Note ON: Time 737520, Note Name: C6, Velocity: 93
Note ON: Time 737520, Note Name: F5, Velocity: 72
Note ON: Time 737520, Note Name: C5, Velocity: 72
Note OFF: Time 737740, Note Name: C5
Note OFF: Time 737740, Note Name: G#5
Note OFF: Time 737740, Note Name: C6
Note OFF: Time 737740, Note Name: F5
Note ON: Time 738000, Note Name: G5, Velocity: 79
Note ON: Time 738000, Note Name: C#5, Velocity: 79
Note ON: Time 738000, Note Name: F5, Velocity: 79
Note ON: Time 738000, Note Name: C#6, Velocity: 101
Note OFF: Time 738220, Note Name: C#6
Note OFF: Time 738220, Note Name: G5
Note OFF: Time 738220, Note Name: C#5
Note OFF: Time 738220, Note Name: F5
Note ON: Time 738480, Note Name: C#6, Velocity: 93
Note ON: Time 738480, Note Name: C#5, Velocity: 72
Note ON: Time 738480, Note Name: F5, Velocity: 72
Note ON: Time 738480, Note Name: G5, Velocity: 72
Note OFF: Time 738700, Note Name: G5
Note OFF: Time 738700, Note Name: C#6
Note OFF: Time 738700, Note Name: C#5
Note OFF: Time 738700, Note Name: F5
Note ON: Time 738960, Note Name: C6, Velocity: 99
Note ON: Time 738960, Note Name: G#5, Velocity: 76
Note ON: Time 738960, Note Name: F5, Velocity: 76
Note ON: Time 738960, Note Name: C5, Velocity: 76
Note OFF: Time 739180, Note Name: C5
Note OFF: Time 739180, Note Name: C6
Note OFF: Time 739180, Note Name: G#5
Note OFF: Time 739180, Note Name: F5
Note ON: Time 739440, Note Name: C6, Velocity: 99
Note ON: Time 739440, Note Name: C5, Velocity: 75
Note ON: Time 739440, Note Name: E5, Velocity: 75
Note ON: Time 739440, Note Name: G5, Velocity: 75
Note OFF: Time 739660, Note Name: G5
Note OFF: Time 739660, Note Name: C6
Note OFF: Time 739660, Note Name: C5
Note OFF: Time 739660, Note Name: E5
Note ON: Time 739920, Note Name: C6, Velocity: 93
Note ON: Time 739920, Note Name: E5, Velocity: 72
Note ON: Time 739920, Note Name: C5, Velocity: 72
Note ON: Time 739920, Note Name: G5, Velocity: 72
Note OFF: Time 740140, Note Name: G5
Note OFF: Time 740140, Note Name: C6
Note OFF: Time 740140, Note Name: E5
Note OFF: Time 740140, Note Name: C5
Note ON: Time 740160, Note Name: C4, Velocity: 64
Note OFF: Time 740280, Note Name: C4
Note ON: Time 740280, Note Name: G#3, Velocity: 55
Note OFF: Time 740400, Note Name: G#3
Note ON: Time 740400, Note Name: C4, Velocity: 59
Note OFF: Time 740520, Note Name: C4
Note ON: Time 740520, Note Name: G#3, Velocity: 50
Note OFF: Time 740640, Note Name: G#3
Note ON: Time 740640, Note Name: C4, Velocity: 55
Note OFF: Time 740760, Note Name: C4
Note ON: Time 740760, Note Name: G#3, Velocity: 48
Note OFF: Time 740880, Note Name: G#3
Note ON: Time 740880, Note Name: C4, Velocity: 43
Note OFF: Time 741000, Note Name: C4
Note ON: Time 741000, Note Name: G#3, Velocity: 37
Note OFF: Time 741120, Note Name: G#3
Note ON: Time 741120, Note Name: C4, Velocity: 43
Note OFF: Time 741240, Note Name: C4
Note ON: Time 741240, Note Name: G#3, Velocity: 37
Note OFF: Time 741360, Note Name: G#3
Note ON: Time 741360, Note Name: C4, Velocity: 43
Note OFF: Time 741480, Note Name: C4
Note ON: Time 741480, Note Name: G#3, Velocity: 36
Note OFF: Time 741600, Note Name: G#3
Note ON: Time 741600, Note Name: C4, Velocity: 43
Note OFF: Time 741720, Note Name: C4
Note ON: Time 741720, Note Name: G#3, Velocity: 36
Note OFF: Time 741840, Note Name: G#3
Note ON: Time 741840, Note Name: C4, Velocity: 42
Note OFF: Time 741960, Note Name: C4
Note ON: Time 741960, Note Name: G#3, Velocity: 36
Note OFF: Time 742080, Note Name: G#3
Note ON: Time 742080, Note Name: C4, Velocity: 42
Note OFF: Time 742200, Note Name: C4
Note ON: Time 742200, Note Name: G#3, Velocity: 35
Note OFF: Time 742320, Note Name: G#3
Note ON: Time 742320, Note Name: C4, Velocity: 42
Note OFF: Time 742440, Note Name: C4
Note ON: Time 742440, Note Name: G#3, Velocity: 35
Note OFF: Time 742560, Note Name: G#3
Note ON: Time 742560, Note Name: C4, Velocity: 41
Note OFF: Time 742680, Note Name: C4
Note ON: Time 742680, Note Name: G#3, Velocity: 35
Note OFF: Time 742800, Note Name: G#3
Note ON: Time 742800, Note Name: C4, Velocity: 41
Note OFF: Time 742920, Note Name: C4
Note ON: Time 742920, Note Name: G#3, Velocity: 35
Note OFF: Time 743040, Note Name: G#3
Note ON: Time 743040, Note Name: C4, Velocity: 41
Note OFF: Time 743160, Note Name: C4
Note ON: Time 743160, Note Name: G#3, Velocity: 35
Note OFF: Time 743280, Note Name: G#3
Note ON: Time 743280, Note Name: C4, Velocity: 41
Note OFF: Time 743400, Note Name: C4
Note ON: Time 743400, Note Name: G#3, Velocity: 34
Note OFF: Time 743520, Note Name: G#3
Note ON: Time 743520, Note Name: C4, Velocity: 40
Note OFF: Time 743640, Note Name: C4
Note ON: Time 743640, Note Name: G#3, Velocity: 34
Note OFF: Time 743760, Note Name: G#3
Note ON: Time 743760, Note Name: C4, Velocity: 40
Note OFF: Time 743880, Note Name: C4
Note ON: Time 743880, Note Name: G#3, Velocity: 34
Note OFF: Time 744000, Note Name: G#3
Note ON: Time 744000, Note Name: C4, Velocity: 40
Note OFF: Time 744120, Note Name: C4
Note ON: Time 744120, Note Name: G#3, Velocity: 33
Note OFF: Time 744240, Note Name: G#3
Note ON: Time 744240, Note Name: C4, Velocity: 40
Note OFF: Time 744360, Note Name: C4
Note ON: Time 744360, Note Name: G#3, Velocity: 33
Note OFF: Time 744480, Note Name: G#3
Note ON: Time 744480, Note Name: C4, Velocity: 40
Note OFF: Time 744600, Note Name: C4
Note ON: Time 744600, Note Name: G#3, Velocity: 33
Note OFF: Time 744720, Note Name: G#3
Note ON: Time 744720, Note Name: C4, Velocity: 39
Note OFF: Time 744840, Note Name: C4
Note ON: Time 744840, Note Name: G#3, Velocity: 33
Note OFF: Time 744960, Note Name: G#3
Note ON: Time 744960, Note Name: C4, Velocity: 39
Note OFF: Time 745080, Note Name: C4
Note ON: Time 745080, Note Name: G#3, Velocity: 33
Note OFF: Time 745200, Note Name: G#3
Note ON: Time 745200, Note Name: C4, Velocity: 39
Note OFF: Time 745320, Note Name: C4
Note ON: Time 745320, Note Name: G#3, Velocity: 32
Note OFF: Time 745440, Note Name: G#3
Note ON: Time 745440, Note Name: C4, Velocity: 38
Note OFF: Time 745560, Note Name: C4
Note ON: Time 745560, Note Name: G#3, Velocity: 32
Note OFF: Time 745680, Note Name: G#3
Note ON: Time 745680, Note Name: C4, Velocity: 38
Note OFF: Time 745800, Note Name: C4
Note ON: Time 745800, Note Name: G#3, Velocity: 32
Note OFF: Time 745920, Note Name: G#3
Note ON: Time 745920, Note Name: C4, Velocity: 38
Note OFF: Time 746040, Note Name: C4
Note ON: Time 746040, Note Name: G#3, Velocity: 32
Note OFF: Time 746160, Note Name: G#3
Note ON: Time 746160, Note Name: C4, Velocity: 37
Note OFF: Time 746280, Note Name: C4
Note ON: Time 746280, Note Name: G#3, Velocity: 31
Note OFF: Time 746400, Note Name: G#3
Note ON: Time 746400, Note Name: C4, Velocity: 37
Note OFF: Time 746520, Note Name: C4
Note ON: Time 746520, Note Name: G#3, Velocity: 31
Note OFF: Time 746640, Note Name: G#3
Note ON: Time 746640, Note Name: C5, Velocity: 37
Note OFF: Time 746760, Note Name: C5
Note ON: Time 746760, Note Name: G#4, Velocity: 31
Note OFF: Time 746880, Note Name: G#4
Note ON: Time 746880, Note Name: C5, Velocity: 37
Note OFF: Time 747000, Note Name: C5
Note ON: Time 747000, Note Name: G#4, Velocity: 31
Note OFF: Time 747120, Note Name: G#4
Note ON: Time 747120, Note Name: C5, Velocity: 36
Note OFF: Time 747240, Note Name: C5
Note ON: Time 747240, Note Name: G#4, Velocity: 31
Note OFF: Time 747360, Note Name: G#4
Note ON: Time 747360, Note Name: C5, Velocity: 36
Note OFF: Time 747480, Note Name: C5
Note ON: Time 747480, Note Name: G#4, Velocity: 30
Note OFF: Time 747600, Note Name: G#4
Note ON: Time 747600, Note Name: C5, Velocity: 36
Note OFF: Time 747720, Note Name: C5
Note ON: Time 747720, Note Name: G#4, Velocity: 30
Note OFF: Time 747840, Note Name: G#4
Note ON: Time 747840, Note Name: C5, Velocity: 35
Note OFF: Time 747960, Note Name: C5
Note ON: Time 747960, Note Name: G#4, Velocity: 30
Note OFF: Time 748080, Note Name: G#4
Note ON: Time 748080, Note Name: C5, Velocity: 35
Note OFF: Time 748200, Note Name: C5
Note ON: Time 748200, Note Name: G#4, Velocity: 30
Note OFF: Time 748320, Note Name: G#4
Note ON: Time 748320, Note Name: C5, Velocity: 35
Note OFF: Time 748440, Note Name: C5
Note ON: Time 748440, Note Name: G#4, Velocity: 30
Note OFF: Time 748560, Note Name: G#4
Note ON: Time 748560, Note Name: C5, Velocity: 34
Note OFF: Time 748680, Note Name: C5
Note ON: Time 748680, Note Name: G#4, Velocity: 29
Note OFF: Time 748800, Note Name: G#4
Note ON: Time 748800, Note Name: C5, Velocity: 34
Note OFF: Time 748920, Note Name: C5
Note ON: Time 748920, Note Name: G#4, Velocity: 29
Note OFF: Time 749040, Note Name: G#4
Note ON: Time 749040, Note Name: C5, Velocity: 34
Note OFF: Time 749160, Note Name: C5
Note ON: Time 749160, Note Name: G#4, Velocity: 28
Note OFF: Time 749280, Note Name: G#4
Note ON: Time 749280, Note Name: C5, Velocity: 33
Note OFF: Time 749400, Note Name: C5
Note ON: Time 749400, Note Name: G#4, Velocity: 27
Note OFF: Time 749520, Note Name: G#4
Note ON: Time 749520, Note Name: C5, Velocity: 33
Note OFF: Time 749640, Note Name: C5
Note ON: Time 749640, Note Name: G#4, Velocity: 27
Note OFF: Time 749760, Note Name: G#4
Note ON: Time 749760, Note Name: C5, Velocity: 32
Note OFF: Time 749880, Note Name: C5
Note ON: Time 749880, Note Name: G#4, Velocity: 27
Note OFF: Time 750000, Note Name: G#4
Note ON: Time 750000, Note Name: C5, Velocity: 31
Note OFF: Time 750120, Note Name: C5
Note ON: Time 750120, Note Name: G#4, Velocity: 26
Note OFF: Time 750240, Note Name: G#4
Note ON: Time 750240, Note Name: C5, Velocity: 31
Note OFF: Time 750360, Note Name: C5
Note ON: Time 750360, Note Name: G#4, Velocity: 26
Note OFF: Time 750480, Note Name: G#4
Note ON: Time 750480, Note Name: C5, Velocity: 31
Note OFF: Time 750600, Note Name: C5
Note ON: Time 750600, Note Name: G#4, Velocity: 25
Note OFF: Time 750720, Note Name: G#4
Note ON: Time 750720, Note Name: C5, Velocity: 30
Note OFF: Time 750840, Note Name: C5
Note ON: Time 750840, Note Name: G#4, Velocity: 25
Note OFF: Time 750960, Note Name: G#4
Note ON: Time 750960, Note Name: C5, Velocity: 29
Note OFF: Time 751080, Note Name: C5
Note ON: Time 751080, Note Name: G#4, Velocity: 25
Note OFF: Time 751200, Note Name: G#4
Note ON: Time 751200, Note Name: C5, Velocity: 29
Note OFF: Time 751320, Note Name: C5
Note ON: Time 751320, Note Name: G#4, Velocity: 24
Note OFF: Time 751440, Note Name: G#4
Note ON: Time 751440, Note Name: C5, Velocity: 29
Note OFF: Time 751560, Note Name: C5
Note ON: Time 751560, Note Name: G#4, Velocity: 24
Note OFF: Time 751680, Note Name: G#4
Note ON: Time 751680, Note Name: C5, Velocity: 28
Note OFF: Time 751800, Note Name: C5
Note ON: Time 751800, Note Name: G#4, Velocity: 23
Note OFF: Time 751920, Note Name: G#4
Note ON: Time 751920, Note Name: C5, Velocity: 27
Note OFF: Time 752040, Note Name: C5
Note ON: Time 752040, Note Name: G#4, Velocity: 23
Note OFF: Time 752160, Note Name: G#4
Note ON: Time 752160, Note Name: C5, Velocity: 26
Note OFF: Time 752280, Note Name: C5
Note ON: Time 752280, Note Name: G#4, Velocity: 22
Note OFF: Time 752400, Note Name: G#4
Note ON: Time 752400, Note Name: C5, Velocity: 26
Note OFF: Time 752520, Note Name: C5
Note ON: Time 752520, Note Name: G#4, Velocity: 22
Note OFF: Time 752640, Note Name: G#4
Note ON: Time 752640, Note Name: C5, Velocity: 25
Note OFF: Time 752760, Note Name: C5
Note ON: Time 752760, Note Name: G#4, Velocity: 21
Note OFF: Time 752880, Note Name: G#4
Note ON: Time 752880, Note Name: C5, Velocity: 24
Note OFF: Time 753000, Note Name: C5
Note ON: Time 753000, Note Name: G#4, Velocity: 20
Note OFF: Time 753120, Note Name: G#4
Note ON: Time 753120, Note Name: C5, Velocity: 23
Note OFF: Time 753240, Note Name: C5
Note ON: Time 753240, Note Name: G#4, Velocity: 20
Note OFF: Time 753360, Note Name: G#4
Note ON: Time 753360, Note Name: C5, Velocity: 23
Note OFF: Time 753480, Note Name: C5
Note ON: Time 753480, Note Name: G#4, Velocity: 19
Note OFF: Time 753600, Note Name: G#4
Note ON: Time 753600, Note Name: C5, Velocity: 22
Note OFF: Time 753720, Note Name: C5
Note ON: Time 753720, Note Name: G#4, Velocity: 18
Note OFF: Time 753840, Note Name: G#4
Note ON: Time 753840, Note Name: C5, Velocity: 21
Note OFF: Time 753960, Note Name: C5
Note ON: Time 753960, Note Name: G#4, Velocity: 18
Note OFF: Time 754080, Note Name: G#4
Note ON: Time 754080, Note Name: C5, Velocity: 21
Note OFF: Time 754200, Note Name: C5
Note ON: Time 754200, Note Name: G#4, Velocity: 17
Note OFF: Time 754320, Note Name: G#4
Note ON: Time 754320, Note Name: C5, Velocity: 20
Note OFF: Time 754440, Note Name: C5
Note ON: Time 754440, Note Name: G#4, Velocity: 17
Note OFF: Time 754560, Note Name: G#4
Note ON: Time 754560, Note Name: C5, Velocity: 18
Note ON: Time 754560, Note Name: G#4, Velocity: 15
Note OFF: Time 757440, Note Name: G#4
Note OFF: Time 757440, Note Name: C5
Track 2: Piano left
Note ON: Time 2160, Note Name: C2, Velocity: 27
Note OFF: Time 2760, Note Name: C2
Note ON: Time 2760, Note Name: G#1, Velocity: 25
Note OFF: Time 2880, Note Name: G#1
Note ON: Time 2880, Note Name: F1, Velocity: 22
Note OFF: Time 5040, Note Name: F1
Note ON: Time 5040, Note Name: G#1, Velocity: 27
Note OFF: Time 5640, Note Name: G#1
Note ON: Time 5640, Note Name: C2, Velocity: 24
Note OFF: Time 5760, Note Name: C2
Note ON: Time 5760, Note Name: F2, Velocity: 27
Note OFF: Time 6480, Note Name: F2
Note ON: Time 6480, Note Name: G#2, Velocity: 27
Note OFF: Time 7080, Note Name: G#2
Note ON: Time 7080, Note Name: C3, Velocity: 24
Note OFF: Time 7200, Note Name: C3
Note ON: Time 7200, Note Name: F3, Velocity: 27
Note OFF: Time 7910, Note Name: F3
Note ON: Time 7920, Note Name: G#3, Velocity: 26
Note OFF: Time 8640, Note Name: G#3
Note ON: Time 8640, Note Name: G3, Velocity: 26
Note ON: Time 8640, Note Name: C4, Velocity: 26
Note ON: Time 8640, Note Name: E3, Velocity: 26
Note OFF: Time 10080, Note Name: E3
Note OFF: Time 10080, Note Name: C4
Note OFF: Time 10080, Note Name: G3
Note ON: Time 10080, Note Name: F3, Velocity: 26
Note ON: Time 10080, Note Name: B3, Velocity: 26
Note ON: Time 10080, Note Name: G#3, Velocity: 26
Note OFF: Time 11520, Note Name: G#3
Note OFF: Time 11520, Note Name: B3
Note OFF: Time 11520, Note Name: F3
Note ON: Time 11520, Note Name: G3, Velocity: 22
Note ON: Time 11520, Note Name: E3, Velocity: 19
Note ON: Time 11520, Note Name: C4, Velocity: 26
Note OFF: Time 12000, Note Name: C4
Note OFF: Time 12000, Note Name: E3
Note OFF: Time 12000, Note Name: G3
Note ON: Time 13680, Note Name: C#2, Velocity: 27
Note OFF: Time 14280, Note Name: C#2
Note ON: Time 14280, Note Name: A#1, Velocity: 25
Note OFF: Time 14400, Note Name: A#1
Note ON: Time 14400, Note Name: F#1, Velocity: 22
Note OFF: Time 16560, Note Name: F#1
Note ON: Time 16560, Note Name: A#1, Velocity: 27
Note OFF: Time 17160, Note Name: A#1
Note ON: Time 17160, Note Name: C#2, Velocity: 24
Note OFF: Time 17280, Note Name: C#2
Note ON: Time 17280, Note Name: F#2, Velocity: 27
Note OFF: Time 18000, Note Name: F#2
Note ON: Time 18000, Note Name: A#2, Velocity: 27
Note OFF: Time 18600, Note Name: A#2
Note ON: Time 18600, Note Name: C#3, Velocity: 24
Note OFF: Time 18720, Note Name: C#3
Note ON: Time 18720, Note Name: F#3, Velocity: 29
Note OFF: Time 19440, Note Name: F#3
Note ON: Time 19440, Note Name: A#3, Velocity: 26
Note OFF: Time 20160, Note Name: A#3
Note ON: Time 20160, Note Name: F3, Velocity: 26
Note ON: Time 20160, Note Name: C#4, Velocity: 26
Note ON: Time 20160, Note Name: G#3, Velocity: 26
Note OFF: Time 21600, Note Name: G#3
Note OFF: Time 21600, Note Name: C#4
Note OFF: Time 21600, Note Name: F3
Note ON: Time 21600, Note Name: A3, Velocity: 26
Note ON: Time 21600, Note Name: C4, Velocity: 26
Note ON: Time 21600, Note Name: F#3, Velocity: 26
Note OFF: Time 23040, Note Name: F#3
Note OFF: Time 23040, Note Name: C4
Note OFF: Time 23040, Note Name: A3
Note ON: Time 23040, Note Name: F3, Velocity: 19
Note ON: Time 23040, Note Name: G#3, Velocity: 22
Note ON: Time 23040, Note Name: C#4, Velocity: 26
Note OFF: Time 23520, Note Name: C#4
Note OFF: Time 23520, Note Name: G#3
Note OFF: Time 23520, Note Name: F3
Note ON: Time 25920, Note Name: G4, Velocity: 26
Note ON: Time 25920, Note Name: E4, Velocity: 26
Note OFF: Time 27360, Note Name: E4
Note OFF: Time 27360, Note Name: G4
Note ON: Time 27360, Note Name: G#4, Velocity: 26
Note ON: Time 27360, Note Name: B4, Velocity: 26
Note ON: Time 27360, Note Name: F4, Velocity: 26
Note OFF: Time 28800, Note Name: F4
Note OFF: Time 28800, Note Name: B4
Note OFF: Time 28800, Note Name: G#4
Note ON: Time 28800, Note Name: E4, Velocity: 22
Note ON: Time 28800, Note Name: G4, Velocity: 26
Note OFF: Time 29280, Note Name: G4
Note OFF: Time 29280, Note Name: E4
Note ON: Time 29520, Note Name: C#2, Velocity: 27
Note OFF: Time 29640, Note Name: C#2
Note ON: Time 29760, Note Name: C#2, Velocity: 26
Note OFF: Time 29880, Note Name: C#2
Note ON: Time 30000, Note Name: C#2, Velocity: 26
Note OFF: Time 30120, Note Name: C#2
Note ON: Time 30240, Note Name: C2, Velocity: 26
Note OFF: Time 30480, Note Name: C2
Note ON: Time 31680, Note Name: G4, Velocity: 26
Note ON: Time 31680, Note Name: C#5, Velocity: 26
Note ON: Time 31680, Note Name: A#4, Velocity: 26
Note OFF: Time 33120, Note Name: A#4
Note OFF: Time 33120, Note Name: C#5
Note OFF: Time 33120, Note Name: G4
Note ON: Time 33120, Note Name: A#4, Velocity: 26
Note ON: Time 33120, Note Name: C#5, Velocity: 26
Note ON: Time 33120, Note Name: G#4, Velocity: 26
Note OFF: Time 34560, Note Name: G#4
Note OFF: Time 34560, Note Name: C#5
Note OFF: Time 34560, Note Name: A#4
Note ON: Time 34560, Note Name: G4, Velocity: 22
Note ON: Time 34560, Note Name: A#4, Velocity: 22
Note ON: Time 34560, Note Name: C#5, Velocity: 26
Note OFF: Time 35040, Note Name: C#5
Note OFF: Time 35040, Note Name: A#4
Note OFF: Time 35040, Note Name: G4
Note ON: Time 35280, Note Name: C#2, Velocity: 27
Note OFF: Time 35400, Note Name: C#2
Note ON: Time 35520, Note Name: C#2, Velocity: 26
Note OFF: Time 35640, Note Name: C#2
Note ON: Time 35760, Note Name: C#2, Velocity: 26
Note OFF: Time 35880, Note Name: C#2
Note ON: Time 36000, Note Name: C2, Velocity: 26
Note OFF: Time 36240, Note Name: C2
Note ON: Time 38160, Note Name: C#2, Velocity: 27
Note OFF: Time 38400, Note Name: C#2
Note ON: Time 38400, Note Name: C#2, Velocity: 26
Note OFF: Time 38640, Note Name: C#2
Note ON: Time 38640, Note Name: C#2, Velocity: 26
Note OFF: Time 38880, Note Name: C#2
Note ON: Time 38880, Note Name: C2, Velocity: 26
Note OFF: Time 39360, Note Name: C2
Note ON: Time 42960, Note Name: G3, Velocity: 75
Note OFF: Time 43080, Note Name: G3
Note ON: Time 43080, Note Name: A#3, Velocity: 63
Note OFF: Time 43200, Note Name: A#3
Note ON: Time 43200, Note Name: E3, Velocity: 75
Note OFF: Time 43320, Note Name: E3
Note ON: Time 43320, Note Name: G3, Velocity: 64
Note OFF: Time 43440, Note Name: G3
Note ON: Time 43440, Note Name: A#2, Velocity: 75
Note OFF: Time 43560, Note Name: A#2
Note ON: Time 43560, Note Name: E3, Velocity: 60
Note OFF: Time 43680, Note Name: E3
Note ON: Time 43680, Note Name: G1, Velocity: 73
Note OFF: Time 43800, Note Name: G1
Note ON: Time 43800, Note Name: A#1, Velocity: 67
Note OFF: Time 43920, Note Name: A#1
Note ON: Time 43920, Note Name: E2, Velocity: 77
Note OFF: Time 44040, Note Name: E2
Note ON: Time 44040, Note Name: G2, Velocity: 67
Note OFF: Time 44160, Note Name: G2
Note ON: Time 44160, Note Name: A#2, Velocity: 77
Note OFF: Time 44280, Note Name: A#2
Note ON: Time 44280, Note Name: C#3, Velocity: 67
Note OFF: Time 44400, Note Name: C#3
Note ON: Time 44400, Note Name: E3, Velocity: 82
Note OFF: Time 44520, Note Name: E3
Note ON: Time 44520, Note Name: G3, Velocity: 73
Note OFF: Time 44640, Note Name: G3
Note ON: Time 44640, Note Name: A#3, Velocity: 89
Note OFF: Time 44880, Note Name: A#3
Note ON: Time 45360, Note Name: F2, Velocity: 72
Note ON: Time 45360, Note Name: F1, Velocity: 72
Note ON: Time 45360, Note Name: G#3, Velocity: 86
Note ON: Time 45360, Note Name: C#4, Velocity: 86
Note ON: Time 45360, Note Name: C#3, Velocity: 86
Note OFF: Time 45600, Note Name: C#3
Note OFF: Time 45600, Note Name: G#3
Note OFF: Time 45600, Note Name: F2
Note OFF: Time 45600, Note Name: F1
Note OFF: Time 45600, Note Name: C#4
Note ON: Time 46080, Note Name: E2, Velocity: 40
Note ON: Time 46080, Note Name: E3, Velocity: 48
Note ON: Time 46080, Note Name: C3, Velocity: 40
Note ON: Time 46080, Note Name: C4, Velocity: 48
Note ON: Time 46080, Note Name: G3, Velocity: 48
Note OFF: Time 48180, Note Name: G3
Note OFF: Time 48180, Note Name: C3
Note OFF: Time 48180, Note Name: E2
Note OFF: Time 48180, Note Name: E3
Note OFF: Time 48180, Note Name: C4
Note ON: Time 48240, Note Name: C2, Velocity: 27
Note OFF: Time 48840, Note Name: C2
Note ON: Time 48840, Note Name: G#1, Velocity: 25
Note OFF: Time 48960, Note Name: G#1
Note ON: Time 48960, Note Name: F1, Velocity: 81
Note OFF: Time 49200, Note Name: F1
Note ON: Time 49440, Note Name: G#1, Velocity: 61
Note ON: Time 49440, Note Name: F1, Velocity: 61
Note ON: Time 49440, Note Name: F2, Velocity: 81
Note ON: Time 49440, Note Name: C2, Velocity: 69
Note OFF: Time 49915, Note Name: C2
Note OFF: Time 49915, Note Name: G#1
Note OFF: Time 49915, Note Name: F1
Note OFF: Time 49915, Note Name: F2
Note ON: Time 49920, Note Name: G#1, Velocity: 57
Note ON: Time 49920, Note Name: C2, Velocity: 64
Note ON: Time 49920, Note Name: F2, Velocity: 76
Note ON: Time 49920, Note Name: F1, Velocity: 57
Note OFF: Time 50395, Note Name: F1
Note OFF: Time 50395, Note Name: G#1
Note OFF: Time 50395, Note Name: C2
Note OFF: Time 50395, Note Name: F2
Note ON: Time 50400, Note Name: G#1, Velocity: 55
Note ON: Time 50400, Note Name: C2, Velocity: 63
Note ON: Time 50400, Note Name: F2, Velocity: 73
Note ON: Time 50400, Note Name: F1, Velocity: 55
Note OFF: Time 50875, Note Name: F1
Note OFF: Time 50875, Note Name: G#1
Note OFF: Time 50875, Note Name: C2
Note OFF: Time 50875, Note Name: F2
Note ON: Time 50880, Note Name: G#1, Velocity: 61
Note ON: Time 50880, Note Name: F1, Velocity: 61
Note ON: Time 50880, Note Name: F2, Velocity: 81
Note ON: Time 50880, Note Name: C2, Velocity: 69
Note OFF: Time 51355, Note Name: C2
Note OFF: Time 51355, Note Name: G#1
Note OFF: Time 51355, Note Name: F1
Note OFF: Time 51355, Note Name: F2
Note ON: Time 51360, Note Name: G#1, Velocity: 55
Note ON: Time 51360, Note Name: C2, Velocity: 63
Note ON: Time 51360, Note Name: F2, Velocity: 73
Note ON: Time 51360, Note Name: F1, Velocity: 55
Note OFF: Time 51835, Note Name: F1
Note OFF: Time 51835, Note Name: G#1
Note OFF: Time 51835, Note Name: C2
Note OFF: Time 51835, Note Name: F2
Note ON: Time 51840, Note Name: F1, Velocity: 61
Note ON: Time 51840, Note Name: C2, Velocity: 69
Note ON: Time 51840, Note Name: F2, Velocity: 81
Note ON: Time 51840, Note Name: G#1, Velocity: 61
Note OFF: Time 54000, Note Name: G#1
Note OFF: Time 54000, Note Name: F1
Note OFF: Time 54000, Note Name: C2
Note OFF: Time 54000, Note Name: F2
Note ON: Time 54000, Note Name: G#1, Velocity: 33
Note OFF: Time 54600, Note Name: G#1
Note ON: Time 54600, Note Name: C2, Velocity: 28
Note OFF: Time 54720, Note Name: C2
Note ON: Time 54720, Note Name: F2, Velocity: 33
Note OFF: Time 55440, Note Name: F2
Note ON: Time 55440, Note Name: G#2, Velocity: 33
Note OFF: Time 56040, Note Name: G#2
Note ON: Time 56040, Note Name: C3, Velocity: 28
Note OFF: Time 56160, Note Name: C3
Note ON: Time 56160, Note Name: F3, Velocity: 33
Note OFF: Time 56875, Note Name: F3
Note ON: Time 56880, Note Name: F2, Velocity: 30
Note OFF: Time 57600, Note Name: F2
Note ON: Time 57600, Note Name: G3, Velocity: 81
Note ON: Time 57600, Note Name: E3, Velocity: 81
Note OFF: Time 57840, Note Name: E3
Note OFF: Time 57840, Note Name: G3
Note ON: Time 57840, Note Name: G3, Velocity: 75
Note ON: Time 58080, Note Name: G2, Velocity: 69
Note ON: Time 58080, Note Name: C3, Velocity: 81
Note ON: Time 58080, Note Name: E2, Velocity: 61
Note OFF: Time 58315, Note Name: G3
Note OFF: Time 58555, Note Name: G2
Note OFF: Time 58555, Note Name: C3
Note OFF: Time 58555, Note Name: E2
Note ON: Time 58560, Note Name: E2, Velocity: 57
Note ON: Time 58560, Note Name: C3, Velocity: 76
Note ON: Time 58560, Note Name: G2, Velocity: 64
Note OFF: Time 59035, Note Name: G2
Note OFF: Time 59035, Note Name: C3
Note OFF: Time 59035, Note Name: E2
Note ON: Time 59040, Note Name: G2, Velocity: 63
Note ON: Time 59040, Note Name: E2, Velocity: 55
Note ON: Time 59040, Note Name: C3, Velocity: 73
Note OFF: Time 59515, Note Name: C3
Note OFF: Time 59515, Note Name: E2
Note OFF: Time 59515, Note Name: G2
Note ON: Time 59520, Note Name: E2, Velocity: 61
Note ON: Time 59520, Note Name: C3, Velocity: 81
Note ON: Time 59520, Note Name: G2, Velocity: 69
Note OFF: Time 59995, Note Name: G2
Note OFF: Time 59995, Note Name: C3
Note OFF: Time 59995, Note Name: E2
Note ON: Time 60000, Note Name: G2, Velocity: 63
Note ON: Time 60000, Note Name: C3, Velocity: 73
Note ON: Time 60000, Note Name: E2, Velocity: 55
Note OFF: Time 60475, Note Name: E2
Note OFF: Time 60475, Note Name: C3
Note OFF: Time 60475, Note Name: G2
Note ON: Time 60480, Note Name: G4, Velocity: 30
Note ON: Time 60480, Note Name: E4, Velocity: 30
Note OFF: Time 61920, Note Name: E4
Note OFF: Time 61920, Note Name: G4
Note ON: Time 61920, Note Name: G#4, Velocity: 30
Note ON: Time 61920, Note Name: B4, Velocity: 30
Note ON: Time 61920, Note Name: F4, Velocity: 30
Note OFF: Time 63360, Note Name: F4
Note OFF: Time 63360, Note Name: B4
Note OFF: Time 63360, Note Name: G#4
Note ON: Time 63360, Note Name: G3, Velocity: 81
Note ON: Time 63360, Note Name: E3, Velocity: 81
Note OFF: Time 63598, Note Name: E3
Note OFF: Time 63598, Note Name: G3
Note ON: Time 63600, Note Name: G3, Velocity: 75
Note ON: Time 63840, Note Name: G2, Velocity: 69
Note ON: Time 63840, Note Name: C3, Velocity: 81
Note ON: Time 63840, Note Name: E2, Velocity: 61
Note OFF: Time 64075, Note Name: G3
Note OFF: Time 64315, Note Name: G2
Note OFF: Time 64315, Note Name: C3
Note OFF: Time 64315, Note Name: E2
Note ON: Time 64320, Note Name: E2, Velocity: 57
Note ON: Time 64320, Note Name: C3, Velocity: 76
Note ON: Time 64320, Note Name: G2, Velocity: 64
Note OFF: Time 64795, Note Name: G2
Note OFF: Time 64795, Note Name: C3
Note OFF: Time 64795, Note Name: E2
Note ON: Time 64800, Note Name: G2, Velocity: 63
Note ON: Time 64800, Note Name: E2, Velocity: 55
Note ON: Time 64800, Note Name: C3, Velocity: 73
Note OFF: Time 65275, Note Name: C3
Note OFF: Time 65275, Note Name: E2
Note OFF: Time 65275, Note Name: G2
Note ON: Time 65280, Note Name: E2, Velocity: 61
Note ON: Time 65280, Note Name: C3, Velocity: 81
Note ON: Time 65280, Note Name: G2, Velocity: 69
Note OFF: Time 65755, Note Name: G2
Note OFF: Time 65755, Note Name: C3
Note OFF: Time 65755, Note Name: E2
Note ON: Time 65760, Note Name: G2, Velocity: 63
Note ON: Time 65760, Note Name: C3, Velocity: 73
Note ON: Time 65760, Note Name: E2, Velocity: 55
Note OFF: Time 66235, Note Name: E2
Note OFF: Time 66235, Note Name: C3
Note OFF: Time 66235, Note Name: G2
Note ON: Time 66240, Note Name: G4, Velocity: 36
Note ON: Time 66240, Note Name: E4, Velocity: 36
Note OFF: Time 67680, Note Name: E4
Note OFF: Time 67680, Note Name: G4
Note ON: Time 67680, Note Name: G4, Velocity: 36
Note ON: Time 67680, Note Name: D#4, Velocity: 36
Note OFF: Time 69360, Note Name: D#4
Note OFF: Time 69360, Note Name: G4
Note ON: Time 69360, Note Name: D#5, Velocity: 36
Note OFF: Time 69580, Note Name: D#5
Note ON: Time 69600, Note Name: D#5, Velocity: 36
Note OFF: Time 69820, Note Name: D#5
Note ON: Time 69840, Note Name: D#5, Velocity: 39
Note OFF: Time 70060, Note Name: D#5
Note ON: Time 70080, Note Name: D#5, Velocity: 37
Note OFF: Time 70300, Note Name: D#5
Note ON: Time 70320, Note Name: D#5, Velocity: 36
Note OFF: Time 70540, Note Name: D#5
Note ON: Time 70560, Note Name: D#5, Velocity: 39
Note OFF: Time 70780, Note Name: D#5
Note ON: Time 70800, Note Name: D#5, Velocity: 35
Note OFF: Time 71020, Note Name: D#5
Note ON: Time 71040, Note Name: D#5, Velocity: 35
Note OFF: Time 71260, Note Name: D#5
Note ON: Time 71280, Note Name: D#5, Velocity: 39
Note OFF: Time 71500, Note Name: D#5
Note ON: Time 71520, Note Name: D#5, Velocity: 36
Note OFF: Time 71740, Note Name: D#5
Note ON: Time 71760, Note Name: D#5, Velocity: 36
Note OFF: Time 71980, Note Name: D#5
Note ON: Time 72240, Note Name: D#5, Velocity: 38
Note OFF: Time 72460, Note Name: D#5
Note ON: Time 72480, Note Name: D#5, Velocity: 38
Note OFF: Time 72700, Note Name: D#5
Note ON: Time 72720, Note Name: B4, Velocity: 39
Note ON: Time 72720, Note Name: G#4, Velocity: 39
Note OFF: Time 72960, Note Name: G#4
Note OFF: Time 72960, Note Name: B4
Note ON: Time 72960, Note Name: D#5, Velocity: 37
Note OFF: Time 73180, Note Name: D#5
Note ON: Time 73200, Note Name: D#5, Velocity: 37
Note OFF: Time 73420, Note Name: D#5
Note ON: Time 73440, Note Name: D#5, Velocity: 41
Note OFF: Time 73660, Note Name: D#5
Note ON: Time 73680, Note Name: D#5, Velocity: 37
Note OFF: Time 73900, Note Name: D#5
Note ON: Time 73920, Note Name: D#5, Velocity: 38
Note OFF: Time 74140, Note Name: D#5
Note ON: Time 74160, Note Name: D#5, Velocity: 46
Note OFF: Time 74380, Note Name: D#5
Note ON: Time 74400, Note Name: D#5, Velocity: 40
Note OFF: Time 74620, Note Name: D#5
Note ON: Time 74640, Note Name: D#5, Velocity: 40
Note OFF: Time 74860, Note Name: D#5
Note ON: Time 75120, Note Name: D#5, Velocity: 38
Note OFF: Time 75340, Note Name: D#5
Note ON: Time 75360, Note Name: D#5, Velocity: 38
Note OFF: Time 75580, Note Name: D#5
Note ON: Time 75600, Note Name: G#4, Velocity: 40
Note ON: Time 75600, Note Name: B4, Velocity: 40
Note OFF: Time 75840, Note Name: B4
Note OFF: Time 75840, Note Name: G#4
Note ON: Time 75840, Note Name: D#5, Velocity: 37
Note OFF: Time 76060, Note Name: D#5
Note ON: Time 76080, Note Name: D#5, Velocity: 37
Note OFF: Time 76300, Note Name: D#5
Note ON: Time 76320, Note Name: G#4, Velocity: 37
Note ON: Time 76320, Note Name: B4, Velocity: 37
Note OFF: Time 76560, Note Name: B4
Note OFF: Time 76560, Note Name: G#4
Note ON: Time 76560, Note Name: D#5, Velocity: 37
Note OFF: Time 76780, Note Name: D#5
Note ON: Time 76800, Note Name: D#5, Velocity: 37
Note OFF: Time 77020, Note Name: D#5
Note ON: Time 77040, Note Name: G#4, Velocity: 37
Note ON: Time 77040, Note Name: B4, Velocity: 37
Note OFF: Time 77280, Note Name: B4
Note OFF: Time 77280, Note Name: G#4
Note ON: Time 77280, Note Name: D#5, Velocity: 37
Note OFF: Time 77500, Note Name: D#5
Note ON: Time 77520, Note Name: D#5, Velocity: 37
Note OFF: Time 77740, Note Name: D#5
Note ON: Time 77760, Note Name: G4, Velocity: 39
Note ON: Time 77760, Note Name: A#4, Velocity: 39
Note OFF: Time 78000, Note Name: A#4
Note OFF: Time 78000, Note Name: G4
Note ON: Time 78000, Note Name: D#4, Velocity: 37
Note OFF: Time 78220, Note Name: D#4
Note ON: Time 78240, Note Name: D#4, Velocity: 37
Note OFF: Time 78460, Note Name: D#4
Note ON: Time 78480, Note Name: D#4, Velocity: 38
Note OFF: Time 78700, Note Name: D#4
Note ON: Time 78720, Note Name: D#4, Velocity: 37
Note OFF: Time 78940, Note Name: D#4
Note ON: Time 78960, Note Name: D#4, Velocity: 37
Note OFF: Time 79180, Note Name: D#4
Note ON: Time 79200, Note Name: D#4, Velocity: 37
Note OFF: Time 79420, Note Name: D#4
Note ON: Time 79440, Note Name: D#4, Velocity: 37
Note OFF: Time 79660, Note Name: D#4
Note ON: Time 79680, Note Name: D#4, Velocity: 37
Note OFF: Time 79900, Note Name: D#4
Note ON: Time 79920, Note Name: D#4, Velocity: 38
Note OFF: Time 80140, Note Name: D#4
Note ON: Time 80160, Note Name: D#4, Velocity: 37
Note OFF: Time 80380, Note Name: D#4
Note ON: Time 80400, Note Name: D#4, Velocity: 37
Note OFF: Time 80620, Note Name: D#4
Note ON: Time 80640, Note Name: D#4, Velocity: 39
Note OFF: Time 80860, Note Name: D#4
Note ON: Time 80880, Note Name: D#4, Velocity: 37
Note OFF: Time 81100, Note Name: D#4
Note ON: Time 81120, Note Name: D#4, Velocity: 37
Note OFF: Time 81340, Note Name: D#4
Note ON: Time 81360, Note Name: D#4, Velocity: 38
Note OFF: Time 81580, Note Name: D#4
Note ON: Time 81600, Note Name: D#4, Velocity: 37
Note OFF: Time 81820, Note Name: D#4
Note ON: Time 81840, Note Name: D#4, Velocity: 37
Note OFF: Time 82060, Note Name: D#4
Note ON: Time 82080, Note Name: D#4, Velocity: 38
Note OFF: Time 82300, Note Name: D#4
Note ON: Time 82320, Note Name: D#4, Velocity: 39
Note OFF: Time 82540, Note Name: D#4
Note ON: Time 82560, Note Name: D#4, Velocity: 37
Note OFF: Time 82780, Note Name: D#4
Note ON: Time 82800, Note Name: A#3, Velocity: 44
Note ON: Time 82800, Note Name: C#4, Velocity: 44
Note OFF: Time 83040, Note Name: C#4
Note OFF: Time 83040, Note Name: A#3
Note ON: Time 83040, Note Name: D#4, Velocity: 37
Note OFF: Time 83260, Note Name: D#4
Note ON: Time 83280, Note Name: D#4, Velocity: 37
Note OFF: Time 83500, Note Name: D#4
Note ON: Time 83520, Note Name: D#4, Velocity: 39
Note OFF: Time 83740, Note Name: D#4
Note ON: Time 83760, Note Name: D#4, Velocity: 37
Note OFF: Time 83980, Note Name: D#4
Note ON: Time 84000, Note Name: D#4, Velocity: 37
Note OFF: Time 84220, Note Name: D#4
Note ON: Time 84240, Note Name: D#4, Velocity: 37
Note OFF: Time 84460, Note Name: D#4
Note ON: Time 84480, Note Name: D#4, Velocity: 37
Note OFF: Time 84700, Note Name: D#4
Note ON: Time 84720, Note Name: D#4, Velocity: 37
Note OFF: Time 84940, Note Name: D#4
Note ON: Time 84960, Note Name: D#4, Velocity: 38
Note OFF: Time 85180, Note Name: D#4
Note ON: Time 85200, Note Name: D#4, Velocity: 37
Note OFF: Time 85420, Note Name: D#4
Note ON: Time 85440, Note Name: D#4, Velocity: 37
Note OFF: Time 85660, Note Name: D#4
Note ON: Time 85680, Note Name: B3, Velocity: 48
Note ON: Time 85680, Note Name: G#3, Velocity: 44
Note OFF: Time 85920, Note Name: G#3
Note OFF: Time 85920, Note Name: B3
Note ON: Time 85920, Note Name: D#4, Velocity: 37
Note OFF: Time 86140, Note Name: D#4
Note ON: Time 86160, Note Name: D#4, Velocity: 37
Note OFF: Time 86380, Note Name: D#4
Note ON: Time 86640, Note Name: D#4, Velocity: 38
Note OFF: Time 86860, Note Name: D#4
Note ON: Time 86880, Note Name: D#4, Velocity: 38
Note OFF: Time 87100, Note Name: D#4
Note ON: Time 87120, Note Name: G#3, Velocity: 40
Note ON: Time 87120, Note Name: B3, Velocity: 40
Note OFF: Time 87360, Note Name: B3
Note OFF: Time 87360, Note Name: G#3
Note ON: Time 87360, Note Name: D#4, Velocity: 37
Note OFF: Time 87580, Note Name: D#4
Note ON: Time 87600, Note Name: D#4, Velocity: 37
Note OFF: Time 87820, Note Name: D#4
Note ON: Time 87840, Note Name: B3, Velocity: 37
Note ON: Time 87840, Note Name: G#3, Velocity: 37
Note OFF: Time 88080, Note Name: G#3
Note OFF: Time 88080, Note Name: B3
Note ON: Time 88080, Note Name: D#4, Velocity: 37
Note OFF: Time 88300, Note Name: D#4
Note ON: Time 88320, Note Name: D#4, Velocity: 37
Note OFF: Time 88540, Note Name: D#4
Note ON: Time 88560, Note Name: B3, Velocity: 36
Note ON: Time 88560, Note Name: G#3, Velocity: 36
Note OFF: Time 88800, Note Name: G#3
Note OFF: Time 88800, Note Name: B3
Note ON: Time 88800, Note Name: D#4, Velocity: 37
Note OFF: Time 89020, Note Name: D#4
Note ON: Time 89040, Note Name: D#4, Velocity: 37
Note OFF: Time 89260, Note Name: D#4
Note ON: Time 89520, Note Name: D#4, Velocity: 38
Note OFF: Time 89740, Note Name: D#4
Note ON: Time 89760, Note Name: D#4, Velocity: 38
Note OFF: Time 89980, Note Name: D#4
Note ON: Time 90000, Note Name: A#3, Velocity: 40
Note ON: Time 90000, Note Name: G3, Velocity: 40
Note OFF: Time 90240, Note Name: G3
Note OFF: Time 90240, Note Name: A#3
Note ON: Time 90240, Note Name: D#4, Velocity: 37
Note OFF: Time 90460, Note Name: D#4
Note ON: Time 90480, Note Name: D#4, Velocity: 37
Note OFF: Time 90700, Note Name: D#4
Note ON: Time 90960, Note Name: D#4, Velocity: 37
Note OFF: Time 91180, Note Name: D#4
Note ON: Time 91200, Note Name: D#4, Velocity: 37
Note OFF: Time 91420, Note Name: D#4
Note ON: Time 91440, Note Name: F#3, Velocity: 36
Note ON: Time 91440, Note Name: A3, Velocity: 36
Note OFF: Time 91680, Note Name: A3
Note OFF: Time 91680, Note Name: F#3
Note ON: Time 91680, Note Name: D#4, Velocity: 37
Note OFF: Time 91900, Note Name: D#4
Note ON: Time 91920, Note Name: D#4, Velocity: 37
Note OFF: Time 92140, Note Name: D#4
Note ON: Time 92400, Note Name: D#4, Velocity: 37
Note OFF: Time 92620, Note Name: D#4
Note ON: Time 92640, Note Name: D#4, Velocity: 36
Note OFF: Time 92860, Note Name: D#4
Note ON: Time 92880, Note Name: G#3, Velocity: 38
Note ON: Time 92880, Note Name: F3, Velocity: 38
Note OFF: Time 93120, Note Name: F3
Note OFF: Time 93120, Note Name: G#3
Note ON: Time 93120, Note Name: D#4, Velocity: 34
Note OFF: Time 93340, Note Name: D#4
Note ON: Time 93360, Note Name: D#4, Velocity: 34
Note OFF: Time 93580, Note Name: D#4
Note ON: Time 93840, Note Name: D#4, Velocity: 32
Note OFF: Time 94060, Note Name: D#4
Note ON: Time 94080, Note Name: D#4, Velocity: 32
Note OFF: Time 94300, Note Name: D#4
Note ON: Time 94320, Note Name: E3, Velocity: 30
Note ON: Time 94320, Note Name: G3, Velocity: 30
Note OFF: Time 94560, Note Name: G3
Note OFF: Time 94560, Note Name: E3
Note ON: Time 94560, Note Name: D#4, Velocity: 31
Note OFF: Time 94780, Note Name: D#4
Note ON: Time 94800, Note Name: D#4, Velocity: 30
Note OFF: Time 95020, Note Name: D#4
Note ON: Time 95280, Note Name: D#3, Velocity: 25
Note OFF: Time 95500, Note Name: D#3
Note ON: Time 95520, Note Name: D#3, Velocity: 26
Note OFF: Time 95740, Note Name: D#3
Note ON: Time 95760, Note Name: D#3, Velocity: 28
Note OFF: Time 95980, Note Name: D#3
Note ON: Time 96000, Note Name: D#3, Velocity: 26
Note OFF: Time 96220, Note Name: D#3
Note ON: Time 96240, Note Name: D#3, Velocity: 26
Note OFF: Time 96460, Note Name: D#3
Note ON: Time 96480, Note Name: D#3, Velocity: 28
Note OFF: Time 96700, Note Name: D#3
Note ON: Time 96720, Note Name: D#3, Velocity: 26
Note OFF: Time 96940, Note Name: D#3
Note ON: Time 96960, Note Name: D#3, Velocity: 26
Note OFF: Time 97180, Note Name: D#3
Note ON: Time 97200, Note Name: D#3, Velocity: 28
Note OFF: Time 97420, Note Name: D#3
Note ON: Time 97440, Note Name: D#3, Velocity: 26
Note OFF: Time 97660, Note Name: D#3
Note ON: Time 97680, Note Name: D#3, Velocity: 27
Note OFF: Time 97900, Note Name: D#3
Note ON: Time 97920, Note Name: A#3, Velocity: 41
Note ON: Time 97920, Note Name: C#4, Velocity: 41
Note ON: Time 97920, Note Name: G3, Velocity: 41
Note ON: Time 98160, Note Name: D#2, Velocity: 25
Note OFF: Time 98380, Note Name: D#2
Note ON: Time 98400, Note Name: D#2, Velocity: 26
Note OFF: Time 98620, Note Name: D#2
Note OFF: Time 98640, Note Name: G3
Note OFF: Time 98640, Note Name: C#4
Note OFF: Time 98640, Note Name: A#3
Note ON: Time 98640, Note Name: D#2, Velocity: 28
Note OFF: Time 98860, Note Name: D#2
Note ON: Time 98880, Note Name: D#2, Velocity: 26
Note OFF: Time 99100, Note Name: D#2
Note ON: Time 99120, Note Name: D#2, Velocity: 26
Note OFF: Time 99340, Note Name: D#2
Note ON: Time 99360, Note Name: D#2, Velocity: 28
Note OFF: Time 99580, Note Name: D#2
Note ON: Time 99600, Note Name: D#2, Velocity: 26
Note OFF: Time 99820, Note Name: D#2
Note ON: Time 99840, Note Name: D#2, Velocity: 26
Note OFF: Time 100060, Note Name: D#2
Note ON: Time 100080, Note Name: D#2, Velocity: 28
Note OFF: Time 100300, Note Name: D#2
Note ON: Time 100320, Note Name: D#2, Velocity: 26
Note OFF: Time 100540, Note Name: D#2
Note ON: Time 100560, Note Name: D#2, Velocity: 27
Note OFF: Time 100780, Note Name: D#2
Note ON: Time 100800, Note Name: G#1, Velocity: 28
Note OFF: Time 101040, Note Name: G#1
Note ON: Time 101040, Note Name: G#2, Velocity: 25
Note ON: Time 101040, Note Name: C2, Velocity: 20
Note ON: Time 101040, Note Name: D#2, Velocity: 20
Note OFF: Time 101280, Note Name: D#2
Note OFF: Time 101280, Note Name: C2
Note OFF: Time 101280, Note Name: G#2
Note ON: Time 101280, Note Name: G#1, Velocity: 26
Note OFF: Time 101520, Note Name: G#1
Note ON: Time 101520, Note Name: G#2, Velocity: 28
Note ON: Time 101520, Note Name: C2, Velocity: 22
Note ON: Time 101520, Note Name: D#2, Velocity: 22
Note OFF: Time 101760, Note Name: D#2
Note OFF: Time 101760, Note Name: C2
Note OFF: Time 101760, Note Name: G#2
Note ON: Time 101760, Note Name: G#1, Velocity: 26
Note OFF: Time 102000, Note Name: G#1
Note ON: Time 102000, Note Name: G#2, Velocity: 26
Note ON: Time 102000, Note Name: C2, Velocity: 20
Note ON: Time 102000, Note Name: D#2, Velocity: 20
Note OFF: Time 102240, Note Name: D#2
Note OFF: Time 102240, Note Name: C2
Note OFF: Time 102240, Note Name: G#2
Note ON: Time 102240, Note Name: G#1, Velocity: 28
Note OFF: Time 102480, Note Name: G#1
Note ON: Time 102480, Note Name: G#2, Velocity: 26
Note ON: Time 102480, Note Name: D#2, Velocity: 20
Note ON: Time 102480, Note Name: C2, Velocity: 20
Note OFF: Time 102720, Note Name: C2
Note OFF: Time 102720, Note Name: D#2
Note OFF: Time 102720, Note Name: G#2
Note ON: Time 102720, Note Name: G#1, Velocity: 26
Note OFF: Time 102960, Note Name: G#1
Note ON: Time 102960, Note Name: C2, Velocity: 22
Note ON: Time 102960, Note Name: C3, Velocity: 40
Note ON: Time 102960, Note Name: G#2, Velocity: 28
Note ON: Time 102960, Note Name: D#2, Velocity: 22
Note OFF: Time 103200, Note Name: D#2
Note OFF: Time 103200, Note Name: G#2
Note OFF: Time 103200, Note Name: C2
Note ON: Time 103200, Note Name: G#1, Velocity: 26
Note OFF: Time 103440, Note Name: G#1
Note ON: Time 103440, Note Name: C2, Velocity: 21
Note ON: Time 103440, Note Name: D#2, Velocity: 21
Note ON: Time 103440, Note Name: G#2, Velocity: 27
Note OFF: Time 103560, Note Name: C3
Note ON: Time 103560, Note Name: D#3, Velocity: 37
Note OFF: Time 103680, Note Name: D#3
Note OFF: Time 103680, Note Name: G#2
Note OFF: Time 103680, Note Name: D#2
Note OFF: Time 103680, Note Name: C2
Note ON: Time 103680, Note Name: G#1, Velocity: 28
Note OFF: Time 103920, Note Name: G#1
Note ON: Time 103920, Note Name: G#2, Velocity: 25
Note ON: Time 103920, Note Name: C2, Velocity: 20
Note ON: Time 103920, Note Name: D#2, Velocity: 20
Note OFF: Time 104160, Note Name: D#2
Note OFF: Time 104160, Note Name: C2
Note OFF: Time 104160, Note Name: G#2
Note ON: Time 104160, Note Name: G#1, Velocity: 26
Note OFF: Time 104400, Note Name: G#1
Note ON: Time 104400, Note Name: G#2, Velocity: 28
Note ON: Time 104400, Note Name: C2, Velocity: 22
Note ON: Time 104400, Note Name: D#2, Velocity: 22
Note OFF: Time 104640, Note Name: D#2
Note OFF: Time 104640, Note Name: C2
Note OFF: Time 104640, Note Name: G#2
Note ON: Time 104640, Note Name: G#1, Velocity: 26
Note OFF: Time 104880, Note Name: G#1
Note ON: Time 104880, Note Name: C2, Velocity: 20
Note ON: Time 104880, Note Name: D#2, Velocity: 20
Note ON: Time 104880, Note Name: G#2, Velocity: 26
Note OFF: Time 105120, Note Name: G#2
Note OFF: Time 105120, Note Name: D#2
Note OFF: Time 105120, Note Name: C2
Note ON: Time 105120, Note Name: A#1, Velocity: 28
Note OFF: Time 105360, Note Name: A#1
Note ON: Time 105360, Note Name: A#2, Velocity: 26
Note ON: Time 105360, Note Name: D#2, Velocity: 20
Note ON: Time 105360, Note Name: C#2, Velocity: 20
Note OFF: Time 105600, Note Name: C#2
Note OFF: Time 105600, Note Name: D#2
Note OFF: Time 105600, Note Name: A#2
Note ON: Time 105600, Note Name: A#1, Velocity: 26
Note OFF: Time 105840, Note Name: A#1
Note ON: Time 105840, Note Name: D#2, Velocity: 22
Note ON: Time 105840, Note Name: A#2, Velocity: 28
Note ON: Time 105840, Note Name: C#2, Velocity: 22
Note OFF: Time 106080, Note Name: C#2
Note OFF: Time 106080, Note Name: A#2
Note OFF: Time 106080, Note Name: D#2
Note ON: Time 106080, Note Name: A#1, Velocity: 26
Note OFF: Time 106320, Note Name: A#1
Note ON: Time 106320, Note Name: C#2, Velocity: 21
Note ON: Time 106320, Note Name: A#2, Velocity: 27
Note ON: Time 106320, Note Name: D#2, Velocity: 21
Note OFF: Time 106560, Note Name: D#2
Note OFF: Time 106560, Note Name: A#2
Note OFF: Time 106560, Note Name: C#2
Note ON: Time 106560, Note Name: C2, Velocity: 28
Note OFF: Time 106800, Note Name: C2
Note ON: Time 106800, Note Name: D#2, Velocity: 20
Note ON: Time 106800, Note Name: G#2, Velocity: 20
Note ON: Time 106800, Note Name: C3, Velocity: 25
Note OFF: Time 107040, Note Name: C3
Note OFF: Time 107040, Note Name: G#2
Note OFF: Time 107040, Note Name: D#2
Note ON: Time 107040, Note Name: C2, Velocity: 26
Note OFF: Time 107280, Note Name: C2
Note ON: Time 107280, Note Name: D#2, Velocity: 22
Note ON: Time 107280, Note Name: D#3, Velocity: 40
Note ON: Time 107280, Note Name: G#2, Velocity: 22
Note ON: Time 107280, Note Name: C3, Velocity: 28
Note OFF: Time 107520, Note Name: C3
Note OFF: Time 107520, Note Name: G#2
Note OFF: Time 107520, Note Name: D#2
Note ON: Time 107520, Note Name: C2, Velocity: 26
Note OFF: Time 107760, Note Name: C2
Note ON: Time 107760, Note Name: G#2, Velocity: 20
Note ON: Time 107760, Note Name: C3, Velocity: 26
Note ON: Time 107760, Note Name: D#2, Velocity: 20
Note OFF: Time 108000, Note Name: D#2
Note OFF: Time 108000, Note Name: C3
Note OFF: Time 108000, Note Name: G#2
Note ON: Time 108000, Note Name: C2, Velocity: 28
Note OFF: Time 108240, Note Name: C2
Note ON: Time 108240, Note Name: D#2, Velocity: 20
Note ON: Time 108240, Note Name: G#2, Velocity: 20
Note ON: Time 108240, Note Name: C3, Velocity: 26
Note OFF: Time 108480, Note Name: C3
Note OFF: Time 108480, Note Name: G#2
Note OFF: Time 108480, Note Name: D#2
Note ON: Time 108480, Note Name: C2, Velocity: 26
Note OFF: Time 108720, Note Name: C2
Note OFF: Time 108720, Note Name: D#3
Note ON: Time 108720, Note Name: F3, Velocity: 40
Note ON: Time 108720, Note Name: G#2, Velocity: 28
Note OFF: Time 108960, Note Name: G#2
Note ON: Time 108960, Note Name: C#2, Velocity: 26
Note OFF: Time 109200, Note Name: C#2
Note ON: Time 109200, Note Name: G#2, Velocity: 27
Note OFF: Time 109320, Note Name: F3
Note ON: Time 109320, Note Name: C#3, Velocity: 37
Note OFF: Time 109440, Note Name: C#3
Note OFF: Time 109440, Note Name: G#2
Note ON: Time 109440, Note Name: C3, Velocity: 40
Note ON: Time 109440, Note Name: D#2, Velocity: 28
Note OFF: Time 109680, Note Name: D#2
Note ON: Time 109680, Note Name: G#2, Velocity: 25
Note OFF: Time 109920, Note Name: G#2
Note ON: Time 109920, Note Name: D#2, Velocity: 26
Note OFF: Time 110160, Note Name: D#2
Note OFF: Time 110160, Note Name: C3
Note ON: Time 110160, Note Name: G#2, Velocity: 28
Note ON: Time 110160, Note Name: D#3, Velocity: 40
Note OFF: Time 110400, Note Name: G#2
Note ON: Time 110400, Note Name: D#2, Velocity: 25
Note OFF: Time 110640, Note Name: D#2
Note ON: Time 110640, Note Name: G#2, Velocity: 25
Note OFF: Time 110760, Note Name: D#3
Note ON: Time 110760, Note Name: C3, Velocity: 36
Note OFF: Time 110880, Note Name: C3
Note OFF: Time 110880, Note Name: G#2
Note ON: Time 110880, Note Name: A#2, Velocity: 40
Note ON: Time 110880, Note Name: D#2, Velocity: 28
Note OFF: Time 111120, Note Name: D#2
Note ON: Time 111120, Note Name: G2, Velocity: 25
Note OFF: Time 111360, Note Name: G2
Note ON: Time 111360, Note Name: D#2, Velocity: 25
Note OFF: Time 111600, Note Name: D#2
Note OFF: Time 111600, Note Name: A#2
Note ON: Time 111600, Note Name: D#3, Velocity: 40
Note ON: Time 111600, Note Name: G2, Velocity: 28
Note OFF: Time 111840, Note Name: G2
Note ON: Time 111840, Note Name: D#2, Velocity: 25
Note OFF: Time 112080, Note Name: D#2
Note ON: Time 112080, Note Name: G2, Velocity: 25
Note OFF: Time 112200, Note Name: D#3
Note ON: Time 112200, Note Name: C#3, Velocity: 36
Note OFF: Time 112320, Note Name: C#3
Note OFF: Time 112320, Note Name: G2
Note ON: Time 112320, Note Name: G#2, Velocity: 28
Note OFF: Time 112560, Note Name: G#2
Note ON: Time 112560, Note Name: G#3, Velocity: 25
Note ON: Time 112560, Note Name: C3, Velocity: 20
Note ON: Time 112560, Note Name: D#3, Velocity: 20
Note OFF: Time 112800, Note Name: D#3
Note OFF: Time 112800, Note Name: C3
Note OFF: Time 112800, Note Name: G#3
Note ON: Time 112800, Note Name: G#2, Velocity: 27
Note OFF: Time 113040, Note Name: G#2
Note ON: Time 113040, Note Name: G#3, Velocity: 29
Note ON: Time 113040, Note Name: C3, Velocity: 23
Note ON: Time 113040, Note Name: D#3, Velocity: 23
Note OFF: Time 113280, Note Name: D#3
Note OFF: Time 113280, Note Name: C3
Note OFF: Time 113280, Note Name: G#3
Note ON: Time 113280, Note Name: G#2, Velocity: 28
Note OFF: Time 113520, Note Name: G#2
Note ON: Time 113520, Note Name: G#3, Velocity: 29
Note ON: Time 113520, Note Name: C3, Velocity: 22
Note ON: Time 113520, Note Name: D#3, Velocity: 22
Note OFF: Time 113760, Note Name: D#3
Note OFF: Time 113760, Note Name: C3
Note OFF: Time 113760, Note Name: G#3
Note ON: Time 113760, Note Name: G#2, Velocity: 32
Note OFF: Time 114000, Note Name: G#2
Note ON: Time 114000, Note Name: G#3, Velocity: 31
Note ON: Time 114000, Note Name: D#3, Velocity: 24
Note ON: Time 114000, Note Name: C3, Velocity: 24
Note OFF: Time 114240, Note Name: C3
Note OFF: Time 114240, Note Name: D#3
Note OFF: Time 114240, Note Name: G#3
Note ON: Time 114240, Note Name: G#2, Velocity: 31
Note OFF: Time 114480, Note Name: G#2
Note ON: Time 114480, Note Name: C3, Velocity: 27
Note ON: Time 114480, Note Name: D#3, Velocity: 27
Note ON: Time 114480, Note Name: G#3, Velocity: 35
Note ON: Time 114480, Note Name: C4, Velocity: 51
Note OFF: Time 114720, Note Name: G#3
Note OFF: Time 114720, Note Name: C3
Note OFF: Time 114720, Note Name: D#3
Note ON: Time 114720, Note Name: G#2, Velocity: 33
Note OFF: Time 114960, Note Name: G#2
Note ON: Time 114960, Note Name: C3, Velocity: 27
Note ON: Time 114960, Note Name: D#3, Velocity: 27
Note ON: Time 114960, Note Name: G#3, Velocity: 34
Note OFF: Time 115080, Note Name: C4
Note ON: Time 115080, Note Name: D#4, Velocity: 49
Note OFF: Time 115200, Note Name: D#4
Note OFF: Time 115200, Note Name: G#3
Note OFF: Time 115200, Note Name: D#3
Note OFF: Time 115200, Note Name: C3
Note ON: Time 115200, Note Name: G#2, Velocity: 37
Note OFF: Time 115440, Note Name: G#2
Note ON: Time 115440, Note Name: G#3, Velocity: 34
Note ON: Time 115440, Note Name: D#3, Velocity: 27
Note ON: Time 115440, Note Name: C3, Velocity: 27
Note OFF: Time 115680, Note Name: C3
Note OFF: Time 115680, Note Name: D#3
Note OFF: Time 115680, Note Name: G#3
Note ON: Time 115680, Note Name: G#2, Velocity: 36
Note OFF: Time 115920, Note Name: G#2
Note ON: Time 115920, Note Name: G#3, Velocity: 39
Note ON: Time 115920, Note Name: D#3, Velocity: 30
Note ON: Time 115920, Note Name: C3, Velocity: 30
Note OFF: Time 116160, Note Name: C3
Note OFF: Time 116160, Note Name: D#3
Note OFF: Time 116160, Note Name: G#3
Note ON: Time 116160, Note Name: G#2, Velocity: 37
Note OFF: Time 116400, Note Name: G#2
Note ON: Time 116400, Note Name: C3, Velocity: 29
Note ON: Time 116400, Note Name: G#3, Velocity: 38
Note ON: Time 116400, Note Name: D#3, Velocity: 29
Note OFF: Time 116640, Note Name: D#3
Note OFF: Time 116640, Note Name: G#3
Note OFF: Time 116640, Note Name: C3
Note ON: Time 116640, Note Name: A#2, Velocity: 40
Note OFF: Time 116880, Note Name: A#2
Note ON: Time 116880, Note Name: A#3, Velocity: 38
Note ON: Time 116880, Note Name: D#3, Velocity: 29
Note ON: Time 116880, Note Name: C#3, Velocity: 29
Note OFF: Time 117120, Note Name: C#3
Note OFF: Time 117120, Note Name: D#3
Note OFF: Time 117120, Note Name: A#3
Note ON: Time 117120, Note Name: A#2, Velocity: 39
Note OFF: Time 117360, Note Name: A#2
Note ON: Time 117360, Note Name: D#3, Velocity: 34
Note ON: Time 117360, Note Name: A#3, Velocity: 42
Note ON: Time 117360, Note Name: C#3, Velocity: 34
Note OFF: Time 117600, Note Name: C#3
Note OFF: Time 117600, Note Name: A#3
Note OFF: Time 117600, Note Name: D#3
Note ON: Time 117600, Note Name: A#2, Velocity: 40
Note OFF: Time 117840, Note Name: A#2
Note ON: Time 117840, Note Name: C#3, Velocity: 33
Note ON: Time 117840, Note Name: A#3, Velocity: 42
Note ON: Time 117840, Note Name: D#3, Velocity: 33
Note OFF: Time 118080, Note Name: D#3
Note OFF: Time 118080, Note Name: A#3
Note OFF: Time 118080, Note Name: C#3
Note ON: Time 118080, Note Name: C4, Velocity: 36
Note ON: Time 118080, Note Name: D#3, Velocity: 28
Note ON: Time 118080, Note Name: C3, Velocity: 28
Note ON: Time 118080, Note Name: G#3, Velocity: 36
Note OFF: Time 120960, Note Name: G#3
Note OFF: Time 120960, Note Name: C4
Note OFF: Time 120960, Note Name: D#3
Note OFF: Time 120960, Note Name: C3
Note ON: Time 120960, Note Name: G#3, Velocity: 59
Note ON: Time 120960, Note Name: C#3, Velocity: 50
Note ON: Time 120960, Note Name: E3, Velocity: 50
Note OFF: Time 121680, Note Name: G#3
Note ON: Time 121680, Note Name: A3, Velocity: 57
Note OFF: Time 123840, Note Name: A3
Note OFF: Time 123840, Note Name: E3
Note OFF: Time 123840, Note Name: C#3
Note ON: Time 123840, Note Name: G#3, Velocity: 36
Note ON: Time 123840, Note Name: D#3, Velocity: 28
Note ON: Time 123840, Note Name: B3, Velocity: 36
Note OFF: Time 126720, Note Name: B3
Note OFF: Time 126720, Note Name: D#3
Note OFF: Time 126720, Note Name: G#3
Note ON: Time 126720, Note Name: G3, Velocity: 31
Note ON: Time 126720, Note Name: C#4, Velocity: 31
Note ON: Time 126720, Note Name: D#3, Velocity: 25
Note OFF: Time 129600, Note Name: D#3
Note OFF: Time 129600, Note Name: C#4
Note OFF: Time 129600, Note Name: G3
Note ON: Time 139920, Note Name: B3, Velocity: 44
Note OFF: Time 140160, Note Name: B3
Note ON: Time 140160, Note Name: A#3, Velocity: 42
Note OFF: Time 140400, Note Name: A#3
Note ON: Time 140400, Note Name: G#3, Velocity: 42
Note OFF: Time 140640, Note Name: G#3
Note ON: Time 140640, Note Name: G3, Velocity: 41
Note OFF: Time 140880, Note Name: G3
Note ON: Time 140880, Note Name: F#3, Velocity: 39
Note OFF: Time 141120, Note Name: F#3
Note ON: Time 141120, Note Name: E3, Velocity: 42
Note OFF: Time 141360, Note Name: E3
Note ON: Time 141360, Note Name: D#3, Velocity: 41
Note OFF: Time 141600, Note Name: D#3
Note ON: Time 141600, Note Name: C#3, Velocity: 41
Note OFF: Time 141840, Note Name: C#3
Note ON: Time 141840, Note Name: B2, Velocity: 40
Note OFF: Time 142080, Note Name: B2
Note ON: Time 142080, Note Name: A#2, Velocity: 39
Note OFF: Time 142320, Note Name: A#2
Note ON: Time 142320, Note Name: G#2, Velocity: 39
Note OFF: Time 142560, Note Name: G#2
Note ON: Time 142560, Note Name: G2, Velocity: 42
Note OFF: Time 142800, Note Name: G2
Note ON: Time 142800, Note Name: F#2, Velocity: 41
Note OFF: Time 143040, Note Name: F#2
Note ON: Time 143040, Note Name: F2, Velocity: 41
Note OFF: Time 143280, Note Name: F2
Note ON: Time 143280, Note Name: D#2, Velocity: 41
Note OFF: Time 143520, Note Name: D#2
Note ON: Time 143520, Note Name: C#2, Velocity: 41
Note OFF: Time 143760, Note Name: C#2
Note ON: Time 143760, Note Name: B1, Velocity: 41
Note OFF: Time 144000, Note Name: B1
Note ON: Time 144000, Note Name: A#1, Velocity: 42
Note OFF: Time 144240, Note Name: A#1
Note ON: Time 144240, Note Name: B1, Velocity: 42
Note OFF: Time 144480, Note Name: B1
Note ON: Time 144480, Note Name: C#2, Velocity: 42
Note OFF: Time 144720, Note Name: C#2
Note ON: Time 144720, Note Name: D#2, Velocity: 42
Note OFF: Time 144960, Note Name: D#2
Note ON: Time 144960, Note Name: E2, Velocity: 41
Note OFF: Time 145200, Note Name: E2
Note ON: Time 145200, Note Name: D#2, Velocity: 39
Note OFF: Time 145440, Note Name: D#2
Note ON: Time 145440, Note Name: C#2, Velocity: 42
Note OFF: Time 145680, Note Name: C#2
Note ON: Time 145680, Note Name: B1, Velocity: 40
Note OFF: Time 145920, Note Name: B1
Note ON: Time 145920, Note Name: A#1, Velocity: 40
Note OFF: Time 146160, Note Name: A#1
Note ON: Time 146160, Note Name: D#2, Velocity: 45
Note OFF: Time 146400, Note Name: D#2
Note ON: Time 146400, Note Name: C#2, Velocity: 42
Note OFF: Time 146640, Note Name: C#2
Note ON: Time 146640, Note Name: D#2, Velocity: 40
Note OFF: Time 146880, Note Name: D#2
Note ON: Time 146880, Note Name: G#1, Velocity: 64
Note OFF: Time 147000, Note Name: G#1
Note ON: Time 147000, Note Name: D#2, Velocity: 52
Note OFF: Time 147120, Note Name: D#2
Note ON: Time 147120, Note Name: G#2, Velocity: 52
Note OFF: Time 147240, Note Name: G#2
Note ON: Time 147240, Note Name: D#2, Velocity: 52
Note OFF: Time 147360, Note Name: D#2
Note ON: Time 147360, Note Name: G#1, Velocity: 58
Note OFF: Time 147480, Note Name: G#1
Note ON: Time 147480, Note Name: D#2, Velocity: 51
Note OFF: Time 147600, Note Name: D#2
Note ON: Time 147600, Note Name: G#1, Velocity: 68
Note OFF: Time 147720, Note Name: G#1
Note ON: Time 147720, Note Name: D#2, Velocity: 52
Note OFF: Time 147840, Note Name: D#2
Note ON: Time 147840, Note Name: G#1, Velocity: 64
Note OFF: Time 147960, Note Name: G#1
Note ON: Time 147960, Note Name: D#2, Velocity: 52
Note OFF: Time 148080, Note Name: D#2
Note ON: Time 148080, Note Name: G#1, Velocity: 62
Note OFF: Time 148200, Note Name: G#1
Note ON: Time 148200, Note Name: D#2, Velocity: 52
Note OFF: Time 148320, Note Name: D#2
Note ON: Time 148320, Note Name: G#1, Velocity: 64
Note OFF: Time 148440, Note Name: G#1
Note ON: Time 148440, Note Name: D#2, Velocity: 52
Note OFF: Time 148560, Note Name: D#2
Note ON: Time 148560, Note Name: G#2, Velocity: 52
Note OFF: Time 148680, Note Name: G#2
Note ON: Time 148680, Note Name: D#2, Velocity: 52
Note OFF: Time 148800, Note Name: D#2
Note ON: Time 148800, Note Name: G#1, Velocity: 58
Note OFF: Time 148920, Note Name: G#1
Note ON: Time 148920, Note Name: D#2, Velocity: 51
Note OFF: Time 149040, Note Name: D#2
Note ON: Time 149040, Note Name: G#1, Velocity: 68
Note OFF: Time 149160, Note Name: G#1
Note ON: Time 149160, Note Name: D#2, Velocity: 52
Note OFF: Time 149280, Note Name: D#2
Note ON: Time 149280, Note Name: G#1, Velocity: 64
Note OFF: Time 149400, Note Name: G#1
Note ON: Time 149400, Note Name: D#2, Velocity: 52
Note OFF: Time 149520, Note Name: D#2
Note ON: Time 149520, Note Name: G#1, Velocity: 62
Note OFF: Time 149640, Note Name: G#1
Note ON: Time 149640, Note Name: D#2, Velocity: 52
Note OFF: Time 149760, Note Name: D#2
Note ON: Time 149760, Note Name: G#1, Velocity: 64
Note OFF: Time 149880, Note Name: G#1
Note ON: Time 149880, Note Name: E2, Velocity: 52
Note OFF: Time 150000, Note Name: E2
Note ON: Time 150000, Note Name: G#2, Velocity: 52
Note OFF: Time 150120, Note Name: G#2
Note ON: Time 150120, Note Name: E2, Velocity: 52
Note OFF: Time 150240, Note Name: E2
Note ON: Time 150240, Note Name: G#1, Velocity: 58
Note OFF: Time 150360, Note Name: G#1
Note ON: Time 150360, Note Name: E2, Velocity: 51
Note OFF: Time 150480, Note Name: E2
Note ON: Time 150480, Note Name: G#1, Velocity: 68
Note OFF: Time 150600, Note Name: G#1
Note ON: Time 150600, Note Name: E2, Velocity: 52
Note OFF: Time 150720, Note Name: E2
Note ON: Time 150720, Note Name: G#1, Velocity: 64
Note OFF: Time 150840, Note Name: G#1
Note ON: Time 150840, Note Name: E2, Velocity: 52
Note OFF: Time 150960, Note Name: E2
Note ON: Time 150960, Note Name: G#1, Velocity: 62
Note OFF: Time 151080, Note Name: G#1
Note ON: Time 151080, Note Name: E2, Velocity: 52
Note OFF: Time 151200, Note Name: E2
Note ON: Time 151200, Note Name: G#1, Velocity: 64
Note OFF: Time 151320, Note Name: G#1
Note ON: Time 151320, Note Name: E2, Velocity: 52
Note OFF: Time 151440, Note Name: E2
Note ON: Time 151440, Note Name: G#2, Velocity: 52
Note OFF: Time 151560, Note Name: G#2
Note ON: Time 151560, Note Name: E2, Velocity: 52
Note OFF: Time 151680, Note Name: E2
Note ON: Time 151680, Note Name: G#1, Velocity: 58
Note OFF: Time 151800, Note Name: G#1
Note ON: Time 151800, Note Name: E2, Velocity: 51
Note OFF: Time 151920, Note Name: E2
Note ON: Time 151920, Note Name: G#1, Velocity: 68
Note OFF: Time 152040, Note Name: G#1
Note ON: Time 152040, Note Name: E2, Velocity: 52
Note OFF: Time 152160, Note Name: E2
Note ON: Time 152160, Note Name: G#1, Velocity: 64
Note OFF: Time 152280, Note Name: G#1
Note ON: Time 152280, Note Name: E2, Velocity: 52
Note OFF: Time 152400, Note Name: E2
Note ON: Time 152400, Note Name: G#1, Velocity: 62
Note OFF: Time 152520, Note Name: G#1
Note ON: Time 152520, Note Name: E2, Velocity: 52
Note OFF: Time 152640, Note Name: E2
Note ON: Time 152640, Note Name: A1, Velocity: 90
Note ON: Time 152640, Note Name: A2, Velocity: 106
Note OFF: Time 154800, Note Name: A2
Note OFF: Time 154800, Note Name: A1
Note ON: Time 154800, Note Name: A#2, Velocity: 88
Note ON: Time 154800, Note Name: A#1, Velocity: 74
Note OFF: Time 155040, Note Name: A#1
Note OFF: Time 155040, Note Name: A#2
Note ON: Time 155040, Note Name: C#2, Velocity: 72
Note OFF: Time 155280, Note Name: C#2
Note ON: Time 155280, Note Name: E2, Velocity: 82
Note OFF: Time 155520, Note Name: E2
Note ON: Time 155520, Note Name: G2, Velocity: 95
Note OFF: Time 155760, Note Name: G2
Note ON: Time 155760, Note Name: A#2, Velocity: 82
Note OFF: Time 156000, Note Name: A#2
Note ON: Time 156000, Note Name: C#3, Velocity: 82
Note OFF: Time 156240, Note Name: C#3
Note ON: Time 156240, Note Name: E3, Velocity: 85
Note OFF: Time 156470, Note Name: E3
Note ON: Time 156480, Note Name: E3, Velocity: 83
Note OFF: Time 156710, Note Name: E3
Note ON: Time 156720, Note Name: E3, Velocity: 83
Note OFF: Time 156950, Note Name: E3
Note ON: Time 156960, Note Name: E3, Velocity: 97
Note OFF: Time 157680, Note Name: E3
Note ON: Time 157680, Note Name: D#3, Velocity: 89
Note OFF: Time 158400, Note Name: D#3
Note ON: Time 158400, Note Name: G#2, Velocity: 64
Note OFF: Time 158520, Note Name: G#2
Note ON: Time 158520, Note Name: D#3, Velocity: 52
Note OFF: Time 158640, Note Name: D#3
Note ON: Time 158640, Note Name: G#3, Velocity: 52
Note OFF: Time 158760, Note Name: G#3
Note ON: Time 158760, Note Name: D#3, Velocity: 52
Note OFF: Time 158880, Note Name: D#3
Note ON: Time 158880, Note Name: G#2, Velocity: 58
Note OFF: Time 159000, Note Name: G#2
Note ON: Time 159000, Note Name: D#3, Velocity: 51
Note OFF: Time 159120, Note Name: D#3
Note ON: Time 159120, Note Name: G#2, Velocity: 68
Note OFF: Time 159240, Note Name: G#2
Note ON: Time 159240, Note Name: D#3, Velocity: 52
Note OFF: Time 159360, Note Name: D#3
Note ON: Time 159360, Note Name: G#2, Velocity: 64
Note OFF: Time 159480, Note Name: G#2
Note ON: Time 159480, Note Name: D#3, Velocity: 52
Note OFF: Time 159600, Note Name: D#3
Note ON: Time 159600, Note Name: G#2, Velocity: 62
Note OFF: Time 159720, Note Name: G#2
Note ON: Time 159720, Note Name: D#3, Velocity: 52
Note OFF: Time 159840, Note Name: D#3
Note ON: Time 159840, Note Name: G#2, Velocity: 64
Note OFF: Time 159960, Note Name: G#2
Note ON: Time 159960, Note Name: D#3, Velocity: 52
Note OFF: Time 160080, Note Name: D#3
Note ON: Time 160080, Note Name: G#3, Velocity: 52
Note OFF: Time 160200, Note Name: G#3
Note ON: Time 160200, Note Name: D#3, Velocity: 52
Note OFF: Time 160320, Note Name: D#3
Note ON: Time 160320, Note Name: G#2, Velocity: 58
Note OFF: Time 160440, Note Name: G#2
Note ON: Time 160440, Note Name: D#3, Velocity: 51
Note OFF: Time 160560, Note Name: D#3
Note ON: Time 160560, Note Name: G#2, Velocity: 68
Note OFF: Time 160680, Note Name: G#2
Note ON: Time 160680, Note Name: D#3, Velocity: 52
Note OFF: Time 160800, Note Name: D#3
Note ON: Time 160800, Note Name: G#2, Velocity: 64
Note OFF: Time 160920, Note Name: G#2
Note ON: Time 160920, Note Name: D#3, Velocity: 52
Note OFF: Time 161040, Note Name: D#3
Note ON: Time 161040, Note Name: G#2, Velocity: 62
Note OFF: Time 161160, Note Name: G#2
Note ON: Time 161160, Note Name: D#3, Velocity: 52
Note OFF: Time 161280, Note Name: D#3
Note ON: Time 161280, Note Name: G#2, Velocity: 64
Note OFF: Time 161400, Note Name: G#2
Note ON: Time 161400, Note Name: E3, Velocity: 52
Note OFF: Time 161520, Note Name: E3
Note ON: Time 161520, Note Name: G#3, Velocity: 52
Note OFF: Time 161640, Note Name: G#3
Note ON: Time 161640, Note Name: E3, Velocity: 52
Note OFF: Time 161760, Note Name: E3
Note ON: Time 161760, Note Name: G#2, Velocity: 58
Note OFF: Time 161880, Note Name: G#2
Note ON: Time 161880, Note Name: E3, Velocity: 51
Note OFF: Time 162000, Note Name: E3
Note ON: Time 162000, Note Name: G#2, Velocity: 68
Note OFF: Time 162120, Note Name: G#2
Note ON: Time 162120, Note Name: E3, Velocity: 52
Note OFF: Time 162240, Note Name: E3
Note ON: Time 162240, Note Name: G#2, Velocity: 64
Note OFF: Time 162360, Note Name: G#2
Note ON: Time 162360, Note Name: E3, Velocity: 52
Note OFF: Time 162480, Note Name: E3
Note ON: Time 162480, Note Name: G#2, Velocity: 62
Note OFF: Time 162600, Note Name: G#2
Note ON: Time 162600, Note Name: E3, Velocity: 52
Note OFF: Time 162720, Note Name: E3
Note ON: Time 162720, Note Name: G#2, Velocity: 64
Note OFF: Time 162840, Note Name: G#2
Note ON: Time 162840, Note Name: E3, Velocity: 52
Note OFF: Time 162960, Note Name: E3
Note ON: Time 162960, Note Name: G#3, Velocity: 52
Note OFF: Time 163080, Note Name: G#3
Note ON: Time 163080, Note Name: E3, Velocity: 52
Note OFF: Time 163200, Note Name: E3
Note ON: Time 163200, Note Name: G#2, Velocity: 58
Note OFF: Time 163320, Note Name: G#2
Note ON: Time 163320, Note Name: E3, Velocity: 51
Note OFF: Time 163440, Note Name: E3
Note ON: Time 163440, Note Name: G#2, Velocity: 68
Note OFF: Time 163560, Note Name: G#2
Note ON: Time 163560, Note Name: E3, Velocity: 52
Note OFF: Time 163680, Note Name: E3
Note ON: Time 163680, Note Name: G#2, Velocity: 64
Note OFF: Time 163800, Note Name: G#2
Note ON: Time 163800, Note Name: E3, Velocity: 52
Note OFF: Time 163920, Note Name: E3
Note ON: Time 163920, Note Name: G#2, Velocity: 62
Note OFF: Time 164040, Note Name: G#2
Note ON: Time 164040, Note Name: E3, Velocity: 52
Note OFF: Time 164160, Note Name: E3
Note ON: Time 164160, Note Name: A3, Velocity: 106
Note ON: Time 164160, Note Name: A2, Velocity: 90
Note OFF: Time 166320, Note Name: A2
Note OFF: Time 166320, Note Name: A3
Note ON: Time 166320, Note Name: A#2, Velocity: 59
Note ON: Time 166320, Note Name: A#3, Velocity: 88
Note OFF: Time 166560, Note Name: A#3
Note OFF: Time 166560, Note Name: A#2
Note ON: Time 166560, Note Name: C#4, Velocity: 72
Note ON: Time 166560, Note Name: C#3, Velocity: 58
Note OFF: Time 166800, Note Name: C#3
Note OFF: Time 166800, Note Name: C#4
Note ON: Time 166800, Note Name: E4, Velocity: 82
Note ON: Time 166800, Note Name: E3, Velocity: 63
Note OFF: Time 167040, Note Name: E3
Note OFF: Time 167040, Note Name: E4
Note ON: Time 167040, Note Name: G4, Velocity: 95
Note ON: Time 167040, Note Name: G3, Velocity: 75
Note OFF: Time 167280, Note Name: G3
Note OFF: Time 167280, Note Name: G4
Note ON: Time 167280, Note Name: A#4, Velocity: 82
Note ON: Time 167280, Note Name: A#3, Velocity: 63
Note OFF: Time 167520, Note Name: A#3
Note OFF: Time 167520, Note Name: A#4
Note ON: Time 167520, Note Name: C#5, Velocity: 82
Note ON: Time 167520, Note Name: C#4, Velocity: 63
Note OFF: Time 167760, Note Name: C#4
Note OFF: Time 167760, Note Name: C#5
Note ON: Time 167760, Note Name: E4, Velocity: 68
Note ON: Time 167760, Note Name: E5, Velocity: 85
Note OFF: Time 167990, Note Name: E5
Note OFF: Time 167990, Note Name: E4
Note ON: Time 168000, Note Name: E5, Velocity: 83
Note ON: Time 168000, Note Name: E4, Velocity: 64
Note OFF: Time 168230, Note Name: E4
Note OFF: Time 168230, Note Name: E5
Note ON: Time 168240, Note Name: E5, Velocity: 83
Note ON: Time 168240, Note Name: E4, Velocity: 64
Note OFF: Time 168470, Note Name: E4
Note OFF: Time 168470, Note Name: E5
Note ON: Time 168480, Note Name: E4, Velocity: 80
Note ON: Time 168480, Note Name: E5, Velocity: 102
Note OFF: Time 169200, Note Name: E5
Note OFF: Time 169200, Note Name: E4
Note ON: Time 169200, Note Name: D#5, Velocity: 86
Note ON: Time 169200, Note Name: D#4, Velocity: 69
Note OFF: Time 169920, Note Name: D#4
Note OFF: Time 169920, Note Name: D#5
Note ON: Time 169920, Note Name: G#4, Velocity: 102
Note OFF: Time 170640, Note Name: G#4
Note ON: Time 170640, Note Name: G4, Velocity: 86
Note OFF: Time 171360, Note Name: G4
Note ON: Time 171360, Note Name: E5, Velocity: 102
Note OFF: Time 172080, Note Name: E5
Note ON: Time 172080, Note Name: D#5, Velocity: 86
Note OFF: Time 172800, Note Name: D#5
Note ON: Time 172800, Note Name: D5, Velocity: 97
Note ON: Time 172920, Note Name: F5, Velocity: 91
Note ON: Time 173040, Note Name: G#5, Velocity: 97
Note OFF: Time 174240, Note Name: G#5
Note OFF: Time 174240, Note Name: F5
Note OFF: Time 174240, Note Name: D5
Note ON: Time 174240, Note Name: D#5, Velocity: 85
Note ON: Time 174360, Note Name: G5, Velocity: 77
Note OFF: Time 175680, Note Name: G5
Note OFF: Time 175680, Note Name: D#5
Note ON: Time 175680, Note Name: G#4, Velocity: 45
Note ON: Time 175680, Note Name: B4, Velocity: 45
Note OFF: Time 176400, Note Name: B4
Note OFF: Time 176400, Note Name: G#4
Note ON: Time 176400, Note Name: C#5, Velocity: 44
Note ON: Time 176400, Note Name: E5, Velocity: 44
Note OFF: Time 177120, Note Name: E5
Note OFF: Time 177120, Note Name: C#5
Note ON: Time 177120, Note Name: B4, Velocity: 45
Note ON: Time 177120, Note Name: D#5, Velocity: 45
Note OFF: Time 177840, Note Name: D#5
Note OFF: Time 177840, Note Name: B4
Note ON: Time 177840, Note Name: D#5, Velocity: 60
Note ON: Time 177840, Note Name: A#4, Velocity: 60
Note ON: Time 177840, Note Name: C#5, Velocity: 60
Note OFF: Time 178560, Note Name: C#5
Note OFF: Time 178560, Note Name: A#4
Note OFF: Time 178560, Note Name: D#5
Note ON: Time 178560, Note Name: G#4, Velocity: 45
Note ON: Time 178560, Note Name: B4, Velocity: 45
Note OFF: Time 179280, Note Name: B4
Note OFF: Time 179280, Note Name: G#4
Note ON: Time 179280, Note Name: C#4, Velocity: 44
Note ON: Time 179280, Note Name: E4, Velocity: 44
Note OFF: Time 180000, Note Name: E4
Note OFF: Time 180000, Note Name: C#4
Note ON: Time 180000, Note Name: B3, Velocity: 45
Note ON: Time 180000, Note Name: D#4, Velocity: 45
Note OFF: Time 180720, Note Name: D#4
Note OFF: Time 180720, Note Name: B3
Note ON: Time 180720, Note Name: A#3, Velocity: 60
Note ON: Time 180720, Note Name: C#4, Velocity: 60
Note ON: Time 180720, Note Name: D#4, Velocity: 60
Note OFF: Time 181440, Note Name: D#4
Note OFF: Time 181440, Note Name: C#4
Note OFF: Time 181440, Note Name: A#3
Note ON: Time 181440, Note Name: B3, Velocity: 45
Note ON: Time 181440, Note Name: G#3, Velocity: 45
Note OFF: Time 182160, Note Name: G#3
Note OFF: Time 182160, Note Name: B3
Note ON: Time 182160, Note Name: E3, Velocity: 44
Note ON: Time 182160, Note Name: C#3, Velocity: 44
Note OFF: Time 182880, Note Name: C#3
Note OFF: Time 182880, Note Name: E3
Note ON: Time 182880, Note Name: D#3, Velocity: 45
Note ON: Time 182880, Note Name: B2, Velocity: 45
Note OFF: Time 183600, Note Name: B2
Note OFF: Time 183600, Note Name: D#3
Note ON: Time 183600, Note Name: D#3, Velocity: 60
Note ON: Time 183600, Note Name: C#3, Velocity: 60
Note ON: Time 183600, Note Name: A#2, Velocity: 60
Note OFF: Time 184320, Note Name: A#2
Note OFF: Time 184320, Note Name: C#3
Note OFF: Time 184320, Note Name: D#3
Note ON: Time 184320, Note Name: G#2, Velocity: 48
Note OFF: Time 185760, Note Name: G#2
Note ON: Time 185760, Note Name: D#2, Velocity: 38
Note OFF: Time 186480, Note Name: D#2
Note ON: Time 186480, Note Name: B1, Velocity: 30
Note OFF: Time 187200, Note Name: B1
Note ON: Time 187200, Note Name: G#1, Velocity: 27
Note OFF: Time 189360, Note Name: G#1
Note ON: Time 189360, Note Name: B2, Velocity: 27
Note OFF: Time 189960, Note Name: B2
Note ON: Time 189960, Note Name: G#2, Velocity: 25
Note OFF: Time 190080, Note Name: G#2
Note ON: Time 190080, Note Name: D#2, Velocity: 22
Note OFF: Time 192240, Note Name: D#2
Note ON: Time 192240, Note Name: B2, Velocity: 27
Note OFF: Time 192840, Note Name: B2
Note ON: Time 192840, Note Name: G#2, Velocity: 25
Note OFF: Time 192960, Note Name: G#2
Note ON: Time 192960, Note Name: E2, Velocity: 22
Note OFF: Time 195120, Note Name: E2
Note ON: Time 195120, Note Name: G#2, Velocity: 27
Note OFF: Time 195720, Note Name: G#2
Note ON: Time 195720, Note Name: B2, Velocity: 24
Note OFF: Time 195840, Note Name: B2
Note ON: Time 195840, Note Name: E3, Velocity: 27
Note OFF: Time 196560, Note Name: E3
Note ON: Time 196560, Note Name: G#3, Velocity: 28
Note OFF: Time 197160, Note Name: G#3
Note ON: Time 197160, Note Name: B3, Velocity: 25
Note OFF: Time 197280, Note Name: B3
Note ON: Time 197280, Note Name: E4, Velocity: 28
Note OFF: Time 197995, Note Name: E4
Note ON: Time 198000, Note Name: E3, Velocity: 27
Note OFF: Time 198720, Note Name: E3
Note ON: Time 198720, Note Name: F#3, Velocity: 26
Note ON: Time 198720, Note Name: D#3, Velocity: 26
Note ON: Time 198720, Note Name: B3, Velocity: 26
Note OFF: Time 200160, Note Name: B3
Note OFF: Time 200160, Note Name: D#3
Note OFF: Time 200160, Note Name: F#3
Note ON: Time 200160, Note Name: E3, Velocity: 26
Note ON: Time 200160, Note Name: A#3, Velocity: 26
Note ON: Time 200160, Note Name: G3, Velocity: 26
Note OFF: Time 201600, Note Name: G3
Note OFF: Time 201600, Note Name: A#3
Note OFF: Time 201600, Note Name: E3
Note ON: Time 201600, Note Name: F#3, Velocity: 22
Note ON: Time 201600, Note Name: D#3, Velocity: 19
Note ON: Time 201600, Note Name: B3, Velocity: 26
Note OFF: Time 202080, Note Name: B3
Note OFF: Time 202080, Note Name: D#3
Note OFF: Time 202080, Note Name: F#3
Note ON: Time 204480, Note Name: C#5, Velocity: 26
Note ON: Time 204480, Note Name: A4, Velocity: 26
Note OFF: Time 205920, Note Name: A4
Note OFF: Time 205920, Note Name: C#5
Note ON: Time 205920, Note Name: B4, Velocity: 28
Note ON: Time 205920, Note Name: D5, Velocity: 28
Note OFF: Time 207360, Note Name: D5
Note OFF: Time 207360, Note Name: B4
Note ON: Time 207360, Note Name: A4, Velocity: 22
Note ON: Time 207360, Note Name: C#5, Velocity: 26
Note OFF: Time 207840, Note Name: C#5
Note OFF: Time 207840, Note Name: A4
Note ON: Time 210240, Note Name: B3, Velocity: 26
Note ON: Time 210240, Note Name: G#3, Velocity: 26
Note OFF: Time 211680, Note Name: G#3
Note OFF: Time 211680, Note Name: B3
Note ON: Time 211680, Note Name: A3, Velocity: 28
Note ON: Time 211680, Note Name: C4, Velocity: 28
Note OFF: Time 213120, Note Name: C4
Note OFF: Time 213120, Note Name: A3
Note ON: Time 213120, Note Name: G#3, Velocity: 22
Note ON: Time 213120, Note Name: B3, Velocity: 26
Note OFF: Time 213840, Note Name: B3
Note OFF: Time 213840, Note Name: G#3
Note ON: Time 213840, Note Name: F#2, Velocity: 44
Note OFF: Time 215280, Note Name: F#2
Note ON: Time 215280, Note Name: A2, Velocity: 40
Note OFF: Time 216000, Note Name: A2
Note ON: Time 216000, Note Name: B2, Velocity: 35
Note OFF: Time 217440, Note Name: B2
Note ON: Time 217440, Note Name: B1, Velocity: 30
Note OFF: Time 218880, Note Name: B1
Note ON: Time 218880, Note Name: B4, Velocity: 26
Note ON: Time 218880, Note Name: G#4, Velocity: 26
Note OFF: Time 220320, Note Name: G#4
Note OFF: Time 220320, Note Name: B4
Note ON: Time 220320, Note Name: A4, Velocity: 28
Note ON: Time 220320, Note Name: C5, Velocity: 28
Note OFF: Time 221760, Note Name: C5
Note OFF: Time 221760, Note Name: A4
Note ON: Time 221760, Note Name: G#4, Velocity: 22
Note ON: Time 221760, Note Name: B4, Velocity: 26
Note OFF: Time 222480, Note Name: B4
Note OFF: Time 222480, Note Name: G#4
Note ON: Time 222480, Note Name: F#4, Velocity: 44
Note ON: Time 222480, Note Name: F#3, Velocity: 38
Note OFF: Time 223920, Note Name: F#3
Note OFF: Time 223920, Note Name: F#4
Note ON: Time 223920, Note Name: A3, Velocity: 40
Note OFF: Time 224640, Note Name: A3
Note ON: Time 224640, Note Name: B3, Velocity: 35
Note OFF: Time 226080, Note Name: B3
Note ON: Time 226080, Note Name: B2, Velocity: 30
Note OFF: Time 226560, Note Name: B2
Note ON: Time 226800, Note Name: B2, Velocity: 83
Note OFF: Time 227400, Note Name: B2
Note ON: Time 227400, Note Name: G2, Velocity: 75
Note OFF: Time 227520, Note Name: G2
Note ON: Time 227520, Note Name: E2, Velocity: 80
Note OFF: Time 229680, Note Name: E2
Note ON: Time 229680, Note Name: G2, Velocity: 81
Note OFF: Time 230280, Note Name: G2
Note ON: Time 230280, Note Name: B2, Velocity: 73
Note OFF: Time 230400, Note Name: B2
Note ON: Time 230400, Note Name: E3, Velocity: 81
Note OFF: Time 231120, Note Name: E3
Note ON: Time 231120, Note Name: G3, Velocity: 83
Note OFF: Time 231720, Note Name: G3
Note ON: Time 231720, Note Name: B3, Velocity: 73
Note OFF: Time 231840, Note Name: B3
Note ON: Time 231840, Note Name: E4, Velocity: 82
Note OFF: Time 232560, Note Name: E4
Note ON: Time 232560, Note Name: E4, Velocity: 79
Note OFF: Time 233280, Note Name: E4
Note ON: Time 235440, Note Name: G3, Velocity: 70
Note OFF: Time 235584, Note Name: G3
Note ON: Time 235584, Note Name: B3, Velocity: 59
Note OFF: Time 235728, Note Name: B3
Note ON: Time 235728, Note Name: D4, Velocity: 62
Note OFF: Time 235872, Note Name: D4
Note ON: Time 235872, Note Name: B3, Velocity: 60
Note OFF: Time 236016, Note Name: B3
Note ON: Time 236016, Note Name: G3, Velocity: 60
Note OFF: Time 236160, Note Name: G3
Note ON: Time 236160, Note Name: F3, Velocity: 70
Note OFF: Time 236304, Note Name: F3
Note ON: Time 236304, Note Name: G3, Velocity: 59
Note OFF: Time 236448, Note Name: G3
Note ON: Time 236448, Note Name: B3, Velocity: 62
Note OFF: Time 236592, Note Name: B3
Note ON: Time 236592, Note Name: G3, Velocity: 60
Note OFF: Time 236736, Note Name: G3
Note ON: Time 236736, Note Name: F3, Velocity: 60
Note OFF: Time 236880, Note Name: F3
Note ON: Time 236880, Note Name: D3, Velocity: 70
Note OFF: Time 237024, Note Name: D3
Note ON: Time 237024, Note Name: F3, Velocity: 59
Note OFF: Time 237168, Note Name: F3
Note ON: Time 237168, Note Name: G3, Velocity: 62
Note OFF: Time 237312, Note Name: G3
Note ON: Time 237312, Note Name: F3, Velocity: 60
Note OFF: Time 237456, Note Name: F3
Note ON: Time 237456, Note Name: D3, Velocity: 60
Note OFF: Time 237600, Note Name: D3
Note ON: Time 237600, Note Name: B2, Velocity: 70
Note OFF: Time 237720, Note Name: B2
Note ON: Time 237720, Note Name: D3, Velocity: 59
Note OFF: Time 237840, Note Name: D3
Note ON: Time 237840, Note Name: F3, Velocity: 60
Note OFF: Time 237960, Note Name: F3
Note ON: Time 237960, Note Name: D3, Velocity: 66
Note OFF: Time 238080, Note Name: D3
Note ON: Time 238080, Note Name: B2, Velocity: 59
Note OFF: Time 238200, Note Name: B2
Note ON: Time 238200, Note Name: G2, Velocity: 60
Note OFF: Time 238320, Note Name: G2
Note ON: Time 238320, Note Name: F2, Velocity: 70
Note OFF: Time 238440, Note Name: F2
Note ON: Time 238440, Note Name: G2, Velocity: 60
Note OFF: Time 238560, Note Name: G2
Note ON: Time 238560, Note Name: B2, Velocity: 60
Note OFF: Time 238680, Note Name: B2
Note ON: Time 238680, Note Name: G2, Velocity: 66
Note OFF: Time 238800, Note Name: G2
Note ON: Time 238800, Note Name: F2, Velocity: 66
Note OFF: Time 238920, Note Name: F2
Note ON: Time 238920, Note Name: D2, Velocity: 60
Note OFF: Time 239040, Note Name: D2
Note ON: Time 239040, Note Name: C2, Velocity: 80
Note OFF: Time 241200, Note Name: C2
Note ON: Time 241200, Note Name: D#2, Velocity: 81
Note OFF: Time 241800, Note Name: D#2
Note ON: Time 241800, Note Name: G2, Velocity: 73
Note OFF: Time 241920, Note Name: G2
Note ON: Time 241920, Note Name: C3, Velocity: 81
Note OFF: Time 242640, Note Name: C3
Note ON: Time 242640, Note Name: D#3, Velocity: 83
Note OFF: Time 243240, Note Name: D#3
Note ON: Time 243240, Note Name: G3, Velocity: 73
Note OFF: Time 243360, Note Name: G3
Note ON: Time 243360, Note Name: C4, Velocity: 82
Note OFF: Time 244080, Note Name: C4
Note ON: Time 244080, Note Name: C4, Velocity: 79
Note OFF: Time 244800, Note Name: C4
Note ON: Time 246960, Note Name: D#3, Velocity: 70
Note OFF: Time 247104, Note Name: D#3
Note ON: Time 247104, Note Name: G3, Velocity: 59
Note OFF: Time 247248, Note Name: G3
Note ON: Time 247248, Note Name: A#3, Velocity: 62
Note OFF: Time 247392, Note Name: A#3
Note ON: Time 247392, Note Name: G3, Velocity: 60
Note OFF: Time 247536, Note Name: G3
Note ON: Time 247536, Note Name: D#3, Velocity: 60
Note OFF: Time 247680, Note Name: D#3
Note ON: Time 247680, Note Name: C#3, Velocity: 70
Note OFF: Time 247824, Note Name: C#3
Note ON: Time 247824, Note Name: D#3, Velocity: 59
Note OFF: Time 247968, Note Name: D#3
Note ON: Time 247968, Note Name: G3, Velocity: 62
Note OFF: Time 248112, Note Name: G3
Note ON: Time 248112, Note Name: D#3, Velocity: 60
Note OFF: Time 248256, Note Name: D#3
Note ON: Time 248256, Note Name: C#3, Velocity: 60
Note OFF: Time 248400, Note Name: C#3
Note ON: Time 248400, Note Name: A#2, Velocity: 70
Note OFF: Time 248544, Note Name: A#2
Note ON: Time 248544, Note Name: C#3, Velocity: 59
Note OFF: Time 248688, Note Name: C#3
Note ON: Time 248688, Note Name: D#3, Velocity: 62
Note OFF: Time 248832, Note Name: D#3
Note ON: Time 248832, Note Name: C#3, Velocity: 60
Note OFF: Time 248976, Note Name: C#3
Note ON: Time 248976, Note Name: A#2, Velocity: 60
Note OFF: Time 249120, Note Name: A#2
Note ON: Time 249120, Note Name: G2, Velocity: 70
Note OFF: Time 249240, Note Name: G2
Note ON: Time 249240, Note Name: A#2, Velocity: 59
Note OFF: Time 249360, Note Name: A#2
Note ON: Time 249360, Note Name: C#3, Velocity: 60
Note OFF: Time 249480, Note Name: C#3
Note ON: Time 249480, Note Name: A#2, Velocity: 66
Note OFF: Time 249600, Note Name: A#2
Note ON: Time 249600, Note Name: G2, Velocity: 59
Note OFF: Time 249720, Note Name: G2
Note ON: Time 249720, Note Name: D#2, Velocity: 60
Note OFF: Time 249840, Note Name: D#2
Note ON: Time 249840, Note Name: C#2, Velocity: 70
Note OFF: Time 249960, Note Name: C#2
Note ON: Time 249960, Note Name: D#2, Velocity: 60
Note OFF: Time 250080, Note Name: D#2
Note ON: Time 250080, Note Name: G2, Velocity: 60
Note OFF: Time 250200, Note Name: G2
Note ON: Time 250200, Note Name: D#2, Velocity: 66
Note OFF: Time 250320, Note Name: D#2
Note ON: Time 250320, Note Name: C#2, Velocity: 66
Note OFF: Time 250440, Note Name: C#2
Note ON: Time 250440, Note Name: A#1, Velocity: 60
Note OFF: Time 250560, Note Name: A#1
Note ON: Time 250560, Note Name: G#1, Velocity: 80
Note OFF: Time 252720, Note Name: G#1
Note ON: Time 252720, Note Name: C2, Velocity: 81
Note OFF: Time 253320, Note Name: C2
Note ON: Time 253320, Note Name: D#2, Velocity: 73
Note OFF: Time 253440, Note Name: D#2
Note ON: Time 253440, Note Name: G#2, Velocity: 81
Note OFF: Time 254160, Note Name: G#2
Note ON: Time 254160, Note Name: C3, Velocity: 83
Note OFF: Time 254760, Note Name: C3
Note ON: Time 254760, Note Name: D#3, Velocity: 73
Note OFF: Time 254880, Note Name: D#3
Note ON: Time 254880, Note Name: G#3, Velocity: 82
Note OFF: Time 255600, Note Name: G#3
Note ON: Time 255600, Note Name: G#3, Velocity: 79
Note OFF: Time 256320, Note Name: G#3
Note ON: Time 256320, Note Name: A3, Velocity: 83
Note OFF: Time 256464, Note Name: A3
Note ON: Time 256464, Note Name: C4, Velocity: 67
Note OFF: Time 256608, Note Name: C4
Note ON: Time 256608, Note Name: D#4, Velocity: 70
Note OFF: Time 256752, Note Name: D#4
Note ON: Time 256752, Note Name: C4, Velocity: 68
Note OFF: Time 256896, Note Name: C4
Note ON: Time 256896, Note Name: A3, Velocity: 68
Note OFF: Time 257040, Note Name: A3
Note ON: Time 257040, Note Name: F#3, Velocity: 81
Note OFF: Time 257184, Note Name: F#3
Note ON: Time 257184, Note Name: A3, Velocity: 67
Note OFF: Time 257328, Note Name: A3
Note ON: Time 257328, Note Name: C4, Velocity: 70
Note OFF: Time 257472, Note Name: C4
Note ON: Time 257472, Note Name: A3, Velocity: 68
Note OFF: Time 257616, Note Name: A3
Note ON: Time 257616, Note Name: F#3, Velocity: 68
Note OFF: Time 257760, Note Name: F#3
Note ON: Time 257760, Note Name: D#3, Velocity: 77
Note OFF: Time 257904, Note Name: D#3
Note ON: Time 257904, Note Name: F#3, Velocity: 62
Note OFF: Time 258048, Note Name: F#3
Note ON: Time 258048, Note Name: A3, Velocity: 67
Note OFF: Time 258192, Note Name: A3
Note ON: Time 258192, Note Name: F#3, Velocity: 63
Note OFF: Time 258336, Note Name: F#3
Note ON: Time 258336, Note Name: D#3, Velocity: 63
Note OFF: Time 258480, Note Name: D#3
Note ON: Time 258480, Note Name: C3, Velocity: 70
Note OFF: Time 258624, Note Name: C3
Note ON: Time 258624, Note Name: D#3, Velocity: 59
Note OFF: Time 258768, Note Name: D#3
Note ON: Time 258768, Note Name: F#3, Velocity: 62
Note OFF: Time 258912, Note Name: F#3
Note ON: Time 258912, Note Name: D#3, Velocity: 60
Note OFF: Time 259056, Note Name: D#3
Note ON: Time 259056, Note Name: C3, Velocity: 60
Note OFF: Time 259200, Note Name: C3
Note ON: Time 259200, Note Name: A2, Velocity: 70
Note OFF: Time 259344, Note Name: A2
Note ON: Time 259344, Note Name: C3, Velocity: 59
Note OFF: Time 259488, Note Name: C3
Note ON: Time 259488, Note Name: D#3, Velocity: 62
Note OFF: Time 259632, Note Name: D#3
Note ON: Time 259632, Note Name: C3, Velocity: 60
Note OFF: Time 259776, Note Name: C3
Note ON: Time 259776, Note Name: A2, Velocity: 60
Note OFF: Time 259920, Note Name: A2
Note ON: Time 259920, Note Name: F#2, Velocity: 70
Note OFF: Time 260064, Note Name: F#2
Note ON: Time 260064, Note Name: A2, Velocity: 59
Note OFF: Time 260208, Note Name: A2
Note ON: Time 260208, Note Name: C3, Velocity: 62
Note OFF: Time 260352, Note Name: C3
Note ON: Time 260352, Note Name: A2, Velocity: 60
Note OFF: Time 260496, Note Name: A2
Note ON: Time 260496, Note Name: F#2, Velocity: 60
Note OFF: Time 260640, Note Name: F#2
Note ON: Time 260640, Note Name: D#2, Velocity: 70
Note OFF: Time 260760, Note Name: D#2
Note ON: Time 260760, Note Name: F#2, Velocity: 59
Note OFF: Time 260880, Note Name: F#2
Note ON: Time 260880, Note Name: A2, Velocity: 60
Note OFF: Time 261000, Note Name: A2
Note ON: Time 261000, Note Name: F#2, Velocity: 66
Note OFF: Time 261120, Note Name: F#2
Note ON: Time 261120, Note Name: D#2, Velocity: 59
Note OFF: Time 261240, Note Name: D#2
Note ON: Time 261240, Note Name: C2, Velocity: 60
Note OFF: Time 261360, Note Name: C2
Note ON: Time 261360, Note Name: A1, Velocity: 70
Note OFF: Time 261480, Note Name: A1
Note ON: Time 261480, Note Name: C2, Velocity: 60
Note OFF: Time 261600, Note Name: C2
Note ON: Time 261600, Note Name: D#2, Velocity: 60
Note OFF: Time 261720, Note Name: D#2
Note ON: Time 261720, Note Name: F#2, Velocity: 66
Note OFF: Time 261840, Note Name: F#2
Note ON: Time 261840, Note Name: D#2, Velocity: 66
Note OFF: Time 261960, Note Name: D#2
Note ON: Time 261960, Note Name: C2, Velocity: 60
Note OFF: Time 262080, Note Name: C2
Note ON: Time 262080, Note Name: G#1, Velocity: 70
Note OFF: Time 262200, Note Name: G#1
Note ON: Time 262200, Note Name: C2, Velocity: 60
Note OFF: Time 262320, Note Name: C2
Note ON: Time 262320, Note Name: D#2, Velocity: 60
Note OFF: Time 262440, Note Name: D#2
Note ON: Time 262440, Note Name: F#2, Velocity: 66
Note OFF: Time 262560, Note Name: F#2
Note ON: Time 262560, Note Name: D#2, Velocity: 66
Note OFF: Time 262680, Note Name: D#2
Note ON: Time 262680, Note Name: C2, Velocity: 60
Note OFF: Time 262800, Note Name: C2
Note ON: Time 262800, Note Name: A1, Velocity: 70
Note OFF: Time 262920, Note Name: A1
Note ON: Time 262920, Note Name: C2, Velocity: 60
Note OFF: Time 263040, Note Name: C2
Note ON: Time 263040, Note Name: D#2, Velocity: 60
Note OFF: Time 263160, Note Name: D#2
Note ON: Time 263160, Note Name: F#2, Velocity: 66
Note OFF: Time 263280, Note Name: F#2
Note ON: Time 263280, Note Name: D#2, Velocity: 66
Note OFF: Time 263400, Note Name: D#2
Note ON: Time 263400, Note Name: C2, Velocity: 60
Note OFF: Time 263520, Note Name: C2
Note ON: Time 263520, Note Name: G#1, Velocity: 70
Note OFF: Time 263640, Note Name: G#1
Note ON: Time 263640, Note Name: C2, Velocity: 60
Note OFF: Time 263760, Note Name: C2
Note ON: Time 263760, Note Name: D#2, Velocity: 60
Note OFF: Time 263880, Note Name: D#2
Note ON: Time 263880, Note Name: F#2, Velocity: 66
Note OFF: Time 264000, Note Name: F#2
Note ON: Time 264000, Note Name: D#2, Velocity: 66
Note OFF: Time 264120, Note Name: D#2
Note ON: Time 264120, Note Name: C2, Velocity: 60
Note OFF: Time 264240, Note Name: C2
Note ON: Time 264240, Note Name: A1, Velocity: 70
Note OFF: Time 264360, Note Name: A1
Note ON: Time 264360, Note Name: C2, Velocity: 60
Note OFF: Time 264480, Note Name: C2
Note ON: Time 264480, Note Name: D#2, Velocity: 60
Note OFF: Time 264600, Note Name: D#2
Note ON: Time 264600, Note Name: F#2, Velocity: 66
Note OFF: Time 264720, Note Name: F#2
Note ON: Time 264720, Note Name: D#2, Velocity: 66
Note OFF: Time 264840, Note Name: D#2
Note ON: Time 264840, Note Name: C2, Velocity: 60
Note OFF: Time 264960, Note Name: C2
Note ON: Time 264960, Note Name: G#1, Velocity: 70
Note OFF: Time 265080, Note Name: G#1
Note ON: Time 265080, Note Name: C2, Velocity: 60
Note OFF: Time 265200, Note Name: C2
Note ON: Time 265200, Note Name: D#2, Velocity: 60
Note OFF: Time 265320, Note Name: D#2
Note ON: Time 265320, Note Name: F#2, Velocity: 60
Note OFF: Time 265440, Note Name: F#2
Note ON: Time 265440, Note Name: D#2, Velocity: 66
Note OFF: Time 265560, Note Name: D#2
Note ON: Time 265560, Note Name: C2, Velocity: 60
Note OFF: Time 265680, Note Name: C2
Note ON: Time 265680, Note Name: A1, Velocity: 70
Note OFF: Time 265800, Note Name: A1
Note ON: Time 265800, Note Name: C2, Velocity: 60
Note OFF: Time 265920, Note Name: C2
Note ON: Time 265920, Note Name: D#2, Velocity: 60
Note OFF: Time 266040, Note Name: D#2
Note ON: Time 266040, Note Name: F#2, Velocity: 61
Note OFF: Time 266160, Note Name: F#2
Note ON: Time 266160, Note Name: D#2, Velocity: 66
Note OFF: Time 266280, Note Name: D#2
Note ON: Time 266280, Note Name: C2, Velocity: 60
Note OFF: Time 266400, Note Name: C2
Note ON: Time 266400, Note Name: G#1, Velocity: 70
Note OFF: Time 266520, Note Name: G#1
Note ON: Time 266520, Note Name: C2, Velocity: 60
Note OFF: Time 266640, Note Name: C2
Note ON: Time 266640, Note Name: D#2, Velocity: 60
Note OFF: Time 266760, Note Name: D#2
Note ON: Time 266760, Note Name: F#2, Velocity: 61
Note OFF: Time 266880, Note Name: F#2
Note ON: Time 266880, Note Name: D#2, Velocity: 66
Note OFF: Time 267000, Note Name: D#2
Note ON: Time 267000, Note Name: C2, Velocity: 60
Note OFF: Time 267120, Note Name: C2
Note ON: Time 267120, Note Name: A1, Velocity: 70
Note OFF: Time 267240, Note Name: A1
Note ON: Time 267240, Note Name: C2, Velocity: 60
Note OFF: Time 267360, Note Name: C2
Note ON: Time 267360, Note Name: D#2, Velocity: 60
Note OFF: Time 267480, Note Name: D#2
Note ON: Time 267480, Note Name: F#2, Velocity: 60
Note OFF: Time 267600, Note Name: F#2
Note ON: Time 267600, Note Name: D#2, Velocity: 66
Note OFF: Time 267720, Note Name: D#2
Note ON: Time 267720, Note Name: C2, Velocity: 60
Note OFF: Time 267840, Note Name: C2
Note ON: Time 267840, Note Name: G#1, Velocity: 60
Note ON: Time 267840, Note Name: G#2, Velocity: 60
Note OFF: Time 268080, Note Name: G#2
Note OFF: Time 268080, Note Name: G#1
Note ON: Time 268080, Note Name: G#3, Velocity: 36
Note OFF: Time 268300, Note Name: G#3
Note ON: Time 268320, Note Name: G#3, Velocity: 36
Note OFF: Time 268540, Note Name: G#3
Note ON: Time 268560, Note Name: G#3, Velocity: 39
Note OFF: Time 268780, Note Name: G#3
Note ON: Time 268800, Note Name: G#3, Velocity: 37
Note OFF: Time 269020, Note Name: G#3
Note ON: Time 269040, Note Name: G#3, Velocity: 36
Note OFF: Time 269260, Note Name: G#3
Note ON: Time 269280, Note Name: G#3, Velocity: 39
Note OFF: Time 269500, Note Name: G#3
Note ON: Time 269520, Note Name: G#3, Velocity: 35
Note OFF: Time 269740, Note Name: G#3
Note ON: Time 269760, Note Name: G#3, Velocity: 35
Note OFF: Time 269980, Note Name: G#3
Note ON: Time 270000, Note Name: G#3, Velocity: 39
Note OFF: Time 270220, Note Name: G#3
Note ON: Time 270240, Note Name: G#3, Velocity: 36
Note OFF: Time 270460, Note Name: G#3
Note ON: Time 270480, Note Name: G#3, Velocity: 36
Note OFF: Time 270700, Note Name: G#3
Note ON: Time 270960, Note Name: G#3, Velocity: 36
Note OFF: Time 271180, Note Name: G#3
Note ON: Time 271200, Note Name: G#3, Velocity: 36
Note OFF: Time 271420, Note Name: G#3
Note ON: Time 271440, Note Name: G#3, Velocity: 39
Note OFF: Time 271660, Note Name: G#3
Note ON: Time 271680, Note Name: G#3, Velocity: 37
Note OFF: Time 271900, Note Name: G#3
Note ON: Time 271920, Note Name: G#3, Velocity: 36
Note OFF: Time 272140, Note Name: G#3
Note ON: Time 272160, Note Name: F#3, Velocity: 39
Note OFF: Time 272400, Note Name: F#3
Note ON: Time 272400, Note Name: G#3, Velocity: 35
Note OFF: Time 272620, Note Name: G#3
Note ON: Time 272640, Note Name: G#3, Velocity: 35
Note OFF: Time 272860, Note Name: G#3
Note ON: Time 272880, Note Name: G#3, Velocity: 39
Note OFF: Time 273100, Note Name: G#3
Note ON: Time 273120, Note Name: G#3, Velocity: 36
Note OFF: Time 273340, Note Name: G#3
Note ON: Time 273360, Note Name: G#3, Velocity: 36
Note OFF: Time 273580, Note Name: G#3
Note ON: Time 273840, Note Name: G#3, Velocity: 36
Note OFF: Time 274060, Note Name: G#3
Note ON: Time 274080, Note Name: G#3, Velocity: 36
Note OFF: Time 274300, Note Name: G#3
Note ON: Time 274320, Note Name: G#3, Velocity: 39
Note OFF: Time 274540, Note Name: G#3
Note ON: Time 274560, Note Name: G#3, Velocity: 37
Note OFF: Time 274780, Note Name: G#3
Note ON: Time 274800, Note Name: G#3, Velocity: 36
Note OFF: Time 275020, Note Name: G#3
Note ON: Time 275040, Note Name: F3, Velocity: 39
Note OFF: Time 275280, Note Name: F3
Note ON: Time 275280, Note Name: G#3, Velocity: 35
Note OFF: Time 275500, Note Name: G#3
Note ON: Time 275520, Note Name: G#3, Velocity: 35
Note OFF: Time 275740, Note Name: G#3
Note ON: Time 275760, Note Name: G#3, Velocity: 39
Note OFF: Time 275980, Note Name: G#3
Note ON: Time 276000, Note Name: G#3, Velocity: 36
Note OFF: Time 276220, Note Name: G#3
Note ON: Time 276240, Note Name: G#3, Velocity: 36
Note OFF: Time 276460, Note Name: G#3
Note ON: Time 276720, Note Name: G#3, Velocity: 38
Note OFF: Time 276940, Note Name: G#3
Note ON: Time 276960, Note Name: G#3, Velocity: 38
Note OFF: Time 277180, Note Name: G#3
Note ON: Time 277200, Note Name: F3, Velocity: 40
Note ON: Time 277200, Note Name: C#3, Velocity: 40
Note OFF: Time 277440, Note Name: C#3
Note OFF: Time 277440, Note Name: F3
Note ON: Time 277440, Note Name: G#3, Velocity: 37
Note OFF: Time 277660, Note Name: G#3
Note ON: Time 277680, Note Name: G#3, Velocity: 37
Note OFF: Time 277900, Note Name: G#3
Note ON: Time 277920, Note Name: C#3, Velocity: 37
Note ON: Time 277920, Note Name: F3, Velocity: 37
Note OFF: Time 278160, Note Name: F3
Note OFF: Time 278160, Note Name: C#3
Note ON: Time 278160, Note Name: G#3, Velocity: 37
Note OFF: Time 278380, Note Name: G#3
Note ON: Time 278400, Note Name: G#3, Velocity: 37
Note OFF: Time 278620, Note Name: G#3
Note ON: Time 278640, Note Name: C#3, Velocity: 37
Note ON: Time 278640, Note Name: F3, Velocity: 37
Note OFF: Time 278880, Note Name: F3
Note OFF: Time 278880, Note Name: C#3
Note ON: Time 278880, Note Name: G#3, Velocity: 37
Note OFF: Time 279100, Note Name: G#3
Note ON: Time 279120, Note Name: G#3, Velocity: 37
Note OFF: Time 279340, Note Name: G#3
Note ON: Time 279360, Note Name: C3, Velocity: 39
Note ON: Time 279360, Note Name: D#3, Velocity: 39
Note OFF: Time 279600, Note Name: D#3
Note OFF: Time 279600, Note Name: C3
Note ON: Time 279600, Note Name: G#3, Velocity: 37
Note OFF: Time 279820, Note Name: G#3
Note ON: Time 279840, Note Name: G#3, Velocity: 37
Note OFF: Time 280060, Note Name: G#3
Note ON: Time 280080, Note Name: G#3, Velocity: 38
Note OFF: Time 280300, Note Name: G#3
Note ON: Time 280320, Note Name: G#3, Velocity: 37
Note OFF: Time 280540, Note Name: G#3
Note ON: Time 280560, Note Name: G#3, Velocity: 37
Note OFF: Time 280780, Note Name: G#3
Note ON: Time 280800, Note Name: G#3, Velocity: 37
Note OFF: Time 281020, Note Name: G#3
Note ON: Time 281040, Note Name: G#3, Velocity: 37
Note OFF: Time 281260, Note Name: G#3
Note ON: Time 281280, Note Name: G#3, Velocity: 37
Note OFF: Time 281500, Note Name: G#3
Note ON: Time 281520, Note Name: G#3, Velocity: 38
Note OFF: Time 281740, Note Name: G#3
Note ON: Time 281760, Note Name: G#3, Velocity: 37
Note OFF: Time 281980, Note Name: G#3
Note ON: Time 282000, Note Name: G#3, Velocity: 37
Note OFF: Time 282220, Note Name: G#3
Note ON: Time 282240, Note Name: G#3, Velocity: 39
Note OFF: Time 282460, Note Name: G#3
Note ON: Time 282480, Note Name: G#3, Velocity: 37
Note OFF: Time 282700, Note Name: G#3
Note ON: Time 282720, Note Name: G#3, Velocity: 37
Note OFF: Time 282940, Note Name: G#3
Note ON: Time 282960, Note Name: G#3, Velocity: 38
Note OFF: Time 283180, Note Name: G#3
Note ON: Time 283200, Note Name: G#3, Velocity: 37
Note OFF: Time 283420, Note Name: G#3
Note ON: Time 283440, Note Name: G#3, Velocity: 37
Note OFF: Time 283660, Note Name: G#3
Note ON: Time 283680, Note Name: G#3, Velocity: 38
Note OFF: Time 283900, Note Name: G#3
Note ON: Time 283920, Note Name: G#3, Velocity: 39
Note OFF: Time 284140, Note Name: G#3
Note ON: Time 284400, Note Name: F#3, Velocity: 44
Note ON: Time 284400, Note Name: D#3, Velocity: 44
Note OFF: Time 284640, Note Name: D#3
Note OFF: Time 284640, Note Name: F#3
Note ON: Time 284640, Note Name: G#3, Velocity: 37
Note OFF: Time 284860, Note Name: G#3
Note ON: Time 284880, Note Name: G#3, Velocity: 37
Note OFF: Time 285100, Note Name: G#3
Note ON: Time 285120, Note Name: G#3, Velocity: 39
Note OFF: Time 285340, Note Name: G#3
Note ON: Time 285360, Note Name: G#3, Velocity: 37
Note OFF: Time 285580, Note Name: G#3
Note ON: Time 285600, Note Name: G#3, Velocity: 37
Note OFF: Time 285820, Note Name: G#3
Note ON: Time 285840, Note Name: G#3, Velocity: 37
Note OFF: Time 286060, Note Name: G#3
Note ON: Time 286080, Note Name: G#3, Velocity: 37
Note OFF: Time 286300, Note Name: G#3
Note ON: Time 286320, Note Name: G#3, Velocity: 37
Note OFF: Time 286540, Note Name: G#3
Note ON: Time 286560, Note Name: G#3, Velocity: 38
Note OFF: Time 286780, Note Name: G#3
Note ON: Time 286800, Note Name: G#3, Velocity: 37
Note OFF: Time 287020, Note Name: G#3
Note ON: Time 287040, Note Name: G#3, Velocity: 37
Note OFF: Time 287260, Note Name: G#3
Note ON: Time 287280, Note Name: C#3, Velocity: 44
Note ON: Time 287280, Note Name: F3, Velocity: 48
Note OFF: Time 287520, Note Name: F3
Note OFF: Time 287520, Note Name: C#3
Note ON: Time 287520, Note Name: G#3, Velocity: 37
Note OFF: Time 287740, Note Name: G#3
Note ON: Time 287760, Note Name: G#3, Velocity: 37
Note OFF: Time 287980, Note Name: G#3
Note ON: Time 288240, Note Name: G#3, Velocity: 38
Note OFF: Time 288460, Note Name: G#3
Note ON: Time 288480, Note Name: G#3, Velocity: 38
Note OFF: Time 288700, Note Name: G#3
Note ON: Time 288720, Note Name: F3, Velocity: 40
Note ON: Time 288720, Note Name: C#3, Velocity: 40
Note OFF: Time 288960, Note Name: C#3
Note OFF: Time 288960, Note Name: F3
Note ON: Time 288960, Note Name: G#3, Velocity: 37
Note OFF: Time 289180, Note Name: G#3
Note ON: Time 289200, Note Name: G#3, Velocity: 37
Note OFF: Time 289420, Note Name: G#3
Note ON: Time 289440, Note Name: C#3, Velocity: 37
Note ON: Time 289440, Note Name: F3, Velocity: 37
Note OFF: Time 289680, Note Name: F3
Note OFF: Time 289680, Note Name: C#3
Note ON: Time 289680, Note Name: G#3, Velocity: 37
Note OFF: Time 289900, Note Name: G#3
Note ON: Time 289920, Note Name: G#3, Velocity: 37
Note OFF: Time 290140, Note Name: G#3
Note ON: Time 290160, Note Name: C#3, Velocity: 36
Note ON: Time 290160, Note Name: F3, Velocity: 36
Note OFF: Time 290400, Note Name: F3
Note OFF: Time 290400, Note Name: C#3
Note ON: Time 290400, Note Name: G#3, Velocity: 37
Note OFF: Time 290620, Note Name: G#3
Note ON: Time 290640, Note Name: G#3, Velocity: 37
Note OFF: Time 290860, Note Name: G#3
Note ON: Time 291120, Note Name: G#3, Velocity: 38
Note OFF: Time 291340, Note Name: G#3
Note ON: Time 291360, Note Name: G#3, Velocity: 38
Note OFF: Time 291580, Note Name: G#3
Note ON: Time 291600, Note Name: D#3, Velocity: 40
Note ON: Time 291600, Note Name: C3, Velocity: 40
Note OFF: Time 291840, Note Name: C3
Note OFF: Time 291840, Note Name: D#3
Note ON: Time 291840, Note Name: G#3, Velocity: 37
Note OFF: Time 292060, Note Name: G#3
Note ON: Time 292080, Note Name: G#3, Velocity: 37
Note OFF: Time 292300, Note Name: G#3
Note ON: Time 292560, Note Name: G#3, Velocity: 37
Note OFF: Time 292780, Note Name: G#3
Note ON: Time 292800, Note Name: G#3, Velocity: 37
Note OFF: Time 293020, Note Name: G#3
Note ON: Time 293040, Note Name: C#3, Velocity: 36
Note ON: Time 293040, Note Name: E3, Velocity: 36
Note OFF: Time 293280, Note Name: E3
Note OFF: Time 293280, Note Name: C#3
Note ON: Time 293280, Note Name: G#3, Velocity: 37
Note OFF: Time 293500, Note Name: G#3
Note ON: Time 293520, Note Name: G#3, Velocity: 37
Note OFF: Time 293740, Note Name: G#3
Note ON: Time 294000, Note Name: G#3, Velocity: 38
Note OFF: Time 294220, Note Name: G#3
Note ON: Time 294240, Note Name: G#3, Velocity: 38
Note OFF: Time 294460, Note Name: G#3
Note ON: Time 294480, Note Name: D#3, Velocity: 40
Note ON: Time 294480, Note Name: C3, Velocity: 40
Note OFF: Time 294720, Note Name: C3
Note OFF: Time 294720, Note Name: D#3
Note ON: Time 294720, Note Name: G#3, Velocity: 37
Note OFF: Time 294940, Note Name: G#3
Note ON: Time 294960, Note Name: G#3, Velocity: 37
Note OFF: Time 295180, Note Name: G#3
Note ON: Time 295440, Note Name: G#3, Velocity: 37
Note OFF: Time 295660, Note Name: G#3
Note ON: Time 295680, Note Name: G#3, Velocity: 37
Note OFF: Time 295900, Note Name: G#3
Note ON: Time 295920, Note Name: C#3, Velocity: 36
Note ON: Time 295920, Note Name: E3, Velocity: 36
Note OFF: Time 296160, Note Name: E3
Note OFF: Time 296160, Note Name: C#3
Note ON: Time 296160, Note Name: G#3, Velocity: 37
Note OFF: Time 296380, Note Name: G#3
Note ON: Time 296400, Note Name: G#3, Velocity: 37
Note OFF: Time 296620, Note Name: G#3
Note ON: Time 296880, Note Name: G#3, Velocity: 37
Note OFF: Time 297100, Note Name: G#3
Note ON: Time 297120, Note Name: G#3, Velocity: 36
Note OFF: Time 297340, Note Name: G#3
Note ON: Time 297360, Note Name: D#3, Velocity: 38
Note ON: Time 297360, Note Name: C3, Velocity: 38
Note OFF: Time 297600, Note Name: C3
Note OFF: Time 297600, Note Name: D#3
Note ON: Time 297600, Note Name: G#3, Velocity: 34
Note OFF: Time 297820, Note Name: G#3
Note ON: Time 297840, Note Name: G#3, Velocity: 34
Note OFF: Time 298060, Note Name: G#3
Note ON: Time 298320, Note Name: G#3, Velocity: 32
Note OFF: Time 298540, Note Name: G#3
Note ON: Time 298560, Note Name: G#3, Velocity: 32
Note OFF: Time 298780, Note Name: G#3
Note ON: Time 298800, Note Name: B2, Velocity: 30
Note ON: Time 298800, Note Name: D3, Velocity: 30
Note OFF: Time 299040, Note Name: D3
Note OFF: Time 299040, Note Name: B2
Note ON: Time 299040, Note Name: G#3, Velocity: 31
Note OFF: Time 299260, Note Name: G#3
Note ON: Time 299280, Note Name: G#3, Velocity: 30
Note OFF: Time 299500, Note Name: G#3
Note ON: Time 299760, Note Name: G#3, Velocity: 31
Note OFF: Time 299980, Note Name: G#3
Note ON: Time 300000, Note Name: G#3, Velocity: 30
Note OFF: Time 300220, Note Name: G#3
Note ON: Time 300240, Note Name: C#3, Velocity: 32
Note ON: Time 300240, Note Name: A#2, Velocity: 32
Note OFF: Time 300480, Note Name: A#2
Note OFF: Time 300480, Note Name: C#3
Note ON: Time 300480, Note Name: G#3, Velocity: 28
Note OFF: Time 300700, Note Name: G#3
Note ON: Time 300720, Note Name: G#3, Velocity: 28
Note OFF: Time 300940, Note Name: G#3
Note ON: Time 301200, Note Name: G#3, Velocity: 27
Note OFF: Time 301420, Note Name: G#3
Note ON: Time 301440, Note Name: G#3, Velocity: 27
Note OFF: Time 301660, Note Name: G#3
Note ON: Time 301680, Note Name: C3, Velocity: 25
Note ON: Time 301680, Note Name: A2, Velocity: 25
Note OFF: Time 301920, Note Name: A2
Note OFF: Time 301920, Note Name: C3
Note ON: Time 301920, Note Name: G#3, Velocity: 26
Note OFF: Time 302140, Note Name: G#3
Note ON: Time 302160, Note Name: G#3, Velocity: 25
Note OFF: Time 302380, Note Name: G#3
Note ON: Time 302640, Note Name: G#2, Velocity: 44
Note ON: Time 302880, Note Name: G2, Velocity: 39
Note OFF: Time 303120, Note Name: G2
Note OFF: Time 303120, Note Name: G#2
Note ON: Time 303120, Note Name: G#2, Velocity: 44
Note ON: Time 303360, Note Name: A#2, Velocity: 41
Note OFF: Time 303600, Note Name: A#2
Note OFF: Time 303600, Note Name: G#2
Note ON: Time 303600, Note Name: G#2, Velocity: 45
Note ON: Time 303840, Note Name: F#2, Velocity: 41
Note OFF: Time 304080, Note Name: F#2
Note OFF: Time 304080, Note Name: G#2
Note ON: Time 304080, Note Name: G#2, Velocity: 41
Note ON: Time 304320, Note Name: F#2, Velocity: 48
Note OFF: Time 304560, Note Name: F#2
Note ON: Time 304560, Note Name: F2, Velocity: 42
Note OFF: Time 304800, Note Name: F2
Note ON: Time 304800, Note Name: F#2, Velocity: 42
Note OFF: Time 305040, Note Name: F#2
Note ON: Time 305040, Note Name: F2, Velocity: 47
Note OFF: Time 305280, Note Name: F2
Note OFF: Time 305280, Note Name: G#2
Note ON: Time 305280, Note Name: D#2, Velocity: 55
Note OFF: Time 305520, Note Name: D#2
Note ON: Time 305520, Note Name: G#2, Velocity: 48
Note ON: Time 305760, Note Name: G2, Velocity: 42
Note OFF: Time 306000, Note Name: G2
Note OFF: Time 306000, Note Name: G#2
Note ON: Time 306000, Note Name: G#2, Velocity: 48
Note ON: Time 306240, Note Name: A#2, Velocity: 45
Note OFF: Time 306480, Note Name: A#2
Note OFF: Time 306480, Note Name: G#2
Note ON: Time 306480, Note Name: G#2, Velocity: 49
Note ON: Time 306720, Note Name: D#2, Velocity: 46
Note OFF: Time 306960, Note Name: D#2
Note ON: Time 306960, Note Name: F2, Velocity: 46
Note OFF: Time 307200, Note Name: F2
Note ON: Time 307200, Note Name: D#2, Velocity: 50
Note OFF: Time 307440, Note Name: D#2
Note ON: Time 307440, Note Name: C#2, Velocity: 47
Note OFF: Time 307680, Note Name: C#2
Note ON: Time 307680, Note Name: D#2, Velocity: 47
Note OFF: Time 307920, Note Name: D#2
Note ON: Time 307920, Note Name: C#2, Velocity: 51
Note OFF: Time 308160, Note Name: C#2
Note OFF: Time 308160, Note Name: G#2
Note ON: Time 308160, Note Name: C2, Velocity: 57
Note OFF: Time 308400, Note Name: C2
Note ON: Time 308400, Note Name: G#2, Velocity: 52
Note ON: Time 308640, Note Name: G2, Velocity: 47
Note OFF: Time 308880, Note Name: G2
Note OFF: Time 308880, Note Name: G#2
Note ON: Time 308880, Note Name: G#2, Velocity: 52
Note ON: Time 309120, Note Name: A#2, Velocity: 49
Note OFF: Time 309360, Note Name: A#2
Note OFF: Time 309360, Note Name: G#2
Note ON: Time 309360, Note Name: G#2, Velocity: 53
Note ON: Time 309600, Note Name: C2, Velocity: 50
Note OFF: Time 309840, Note Name: C2
Note ON: Time 309840, Note Name: C#2, Velocity: 50
Note OFF: Time 310080, Note Name: C#2
Note ON: Time 310080, Note Name: C2, Velocity: 54
Note OFF: Time 310320, Note Name: C2
Note ON: Time 310320, Note Name: A#1, Velocity: 50
Note OFF: Time 310560, Note Name: A#1
Note ON: Time 310560, Note Name: C2, Velocity: 51
Note OFF: Time 310800, Note Name: C2
Note ON: Time 310800, Note Name: A#1, Velocity: 51
Note OFF: Time 311040, Note Name: A#1
Note OFF: Time 311040, Note Name: G#2
Note ON: Time 311040, Note Name: G#1, Velocity: 55
Note OFF: Time 311280, Note Name: G#1
Note ON: Time 311280, Note Name: G1, Velocity: 49
Note OFF: Time 311520, Note Name: G1
Note ON: Time 311520, Note Name: G#1, Velocity: 49
Note OFF: Time 311760, Note Name: G#1
Note ON: Time 311760, Note Name: A#1, Velocity: 53
Note OFF: Time 312000, Note Name: A#1
Note ON: Time 312000, Note Name: G#1, Velocity: 46
Note OFF: Time 312240, Note Name: G#1
Note ON: Time 312240, Note Name: A#1, Velocity: 45
Note OFF: Time 312480, Note Name: A#1
Note ON: Time 312480, Note Name: B1, Velocity: 50
Note OFF: Time 312720, Note Name: B1
Note ON: Time 312720, Note Name: A#1, Velocity: 44
Note OFF: Time 312960, Note Name: A#1
Note ON: Time 312960, Note Name: B1, Velocity: 42
Note OFF: Time 313200, Note Name: B1
Note ON: Time 313200, Note Name: C2, Velocity: 47
Note OFF: Time 313440, Note Name: C2
Note ON: Time 313440, Note Name: B1, Velocity: 40
Note OFF: Time 313680, Note Name: B1
Note ON: Time 313680, Note Name: C2, Velocity: 40
Note OFF: Time 313920, Note Name: C2
Note ON: Time 313920, Note Name: C#2, Velocity: 36
Note OFF: Time 314160, Note Name: C#2
Note ON: Time 314160, Note Name: C#3, Velocity: 32
Note ON: Time 314160, Note Name: F2, Velocity: 26
Note ON: Time 314160, Note Name: G#2, Velocity: 26
Note OFF: Time 314400, Note Name: G#2
Note OFF: Time 314400, Note Name: F2
Note OFF: Time 314400, Note Name: C#3
Note ON: Time 314400, Note Name: C#2, Velocity: 33
Note OFF: Time 314640, Note Name: C#2
Note ON: Time 314640, Note Name: C#3, Velocity: 36
Note ON: Time 314640, Note Name: F2, Velocity: 28
Note ON: Time 314640, Note Name: G#2, Velocity: 28
Note OFF: Time 314880, Note Name: G#2
Note OFF: Time 314880, Note Name: F2
Note OFF: Time 314880, Note Name: C#3
Note ON: Time 314880, Note Name: C#2, Velocity: 33
Note OFF: Time 315120, Note Name: C#2
Note ON: Time 315120, Note Name: C#3, Velocity: 33
Note ON: Time 315120, Note Name: G#2, Velocity: 26
Note ON: Time 315120, Note Name: F2, Velocity: 26
Note OFF: Time 315360, Note Name: F2
Note OFF: Time 315360, Note Name: G#2
Note OFF: Time 315360, Note Name: C#3
Note ON: Time 315360, Note Name: C#2, Velocity: 36
Note OFF: Time 315600, Note Name: C#2
Note ON: Time 315600, Note Name: C#3, Velocity: 33
Note ON: Time 315600, Note Name: F2, Velocity: 26
Note ON: Time 315600, Note Name: G#2, Velocity: 26
Note OFF: Time 315840, Note Name: G#2
Note OFF: Time 315840, Note Name: F2
Note OFF: Time 315840, Note Name: C#3
Note ON: Time 315840, Note Name: C#2, Velocity: 33
Note OFF: Time 316080, Note Name: C#2
Note ON: Time 316080, Note Name: G#2, Velocity: 28
Note ON: Time 316080, Note Name: F2, Velocity: 28
Note ON: Time 316080, Note Name: C#3, Velocity: 36
Note OFF: Time 316320, Note Name: C#3
Note OFF: Time 316320, Note Name: F2
Note OFF: Time 316320, Note Name: G#2
Note ON: Time 316320, Note Name: C#2, Velocity: 33
Note OFF: Time 316560, Note Name: C#2
Note ON: Time 316560, Note Name: C#3, Velocity: 35
Note ON: Time 316560, Note Name: F2, Velocity: 27
Note ON: Time 316560, Note Name: G#2, Velocity: 27
Note OFF: Time 316800, Note Name: G#2
Note OFF: Time 316800, Note Name: F2
Note OFF: Time 316800, Note Name: C#3
Note ON: Time 316800, Note Name: C#2, Velocity: 36
Note OFF: Time 317040, Note Name: C#2
Note ON: Time 317040, Note Name: C#3, Velocity: 32
Note ON: Time 317040, Note Name: G#2, Velocity: 26
Note ON: Time 317040, Note Name: F2, Velocity: 26
Note OFF: Time 317280, Note Name: F2
Note OFF: Time 317280, Note Name: G#2
Note OFF: Time 317280, Note Name: C#3
Note ON: Time 317280, Note Name: C#2, Velocity: 33
Note OFF: Time 317520, Note Name: C#2
Note ON: Time 317520, Note Name: C#3, Velocity: 36
Note ON: Time 317520, Note Name: G#2, Velocity: 28
Note ON: Time 317520, Note Name: F2, Velocity: 28
Note OFF: Time 317760, Note Name: F2
Note OFF: Time 317760, Note Name: G#2
Note OFF: Time 317760, Note Name: C#3
Note ON: Time 317760, Note Name: C#2, Velocity: 33
Note OFF: Time 318000, Note Name: C#2
Note ON: Time 318000, Note Name: F2, Velocity: 26
Note ON: Time 318000, Note Name: C#3, Velocity: 33
Note ON: Time 318000, Note Name: G#2, Velocity: 26
Note OFF: Time 318240, Note Name: G#2
Note OFF: Time 318240, Note Name: C#3
Note OFF: Time 318240, Note Name: F2
Note ON: Time 318240, Note Name: D#2, Velocity: 36
Note OFF: Time 318480, Note Name: D#2
Note ON: Time 318480, Note Name: D#3, Velocity: 33
Note ON: Time 318480, Note Name: F#2, Velocity: 26
Note ON: Time 318480, Note Name: G#2, Velocity: 26
Note OFF: Time 318720, Note Name: G#2
Note OFF: Time 318720, Note Name: F#2
Note OFF: Time 318720, Note Name: D#3
Note ON: Time 318720, Note Name: D#2, Velocity: 33
Note OFF: Time 318960, Note Name: D#2
Note ON: Time 318960, Note Name: G#2, Velocity: 28
Note ON: Time 318960, Note Name: F#2, Velocity: 28
Note ON: Time 318960, Note Name: D#3, Velocity: 36
Note OFF: Time 319200, Note Name: D#3
Note OFF: Time 319200, Note Name: F#2
Note OFF: Time 319200, Note Name: G#2
Note ON: Time 319200, Note Name: D#2, Velocity: 33
Note OFF: Time 319440, Note Name: D#2
Note ON: Time 319440, Note Name: F#2, Velocity: 27
Note ON: Time 319440, Note Name: G#2, Velocity: 27
Note ON: Time 319440, Note Name: D#3, Velocity: 35
Note OFF: Time 319680, Note Name: D#3
Note OFF: Time 319680, Note Name: G#2
Note OFF: Time 319680, Note Name: F#2
Note ON: Time 319680, Note Name: F2, Velocity: 36
Note OFF: Time 319920, Note Name: F2
Note ON: Time 319920, Note Name: G#2, Velocity: 26
Note ON: Time 319920, Note Name: F3, Velocity: 32
Note ON: Time 319920, Note Name: C#3, Velocity: 26
Note OFF: Time 320160, Note Name: C#3
Note OFF: Time 320160, Note Name: F3
Note OFF: Time 320160, Note Name: G#2
Note ON: Time 320160, Note Name: F2, Velocity: 33
Note OFF: Time 320400, Note Name: F2
Note ON: Time 320400, Note Name: F3, Velocity: 36
Note ON: Time 320400, Note Name: C#3, Velocity: 28
Note ON: Time 320400, Note Name: G#2, Velocity: 28
Note OFF: Time 320640, Note Name: G#2
Note OFF: Time 320640, Note Name: C#3
Note OFF: Time 320640, Note Name: F3
Note ON: Time 320640, Note Name: F2, Velocity: 33
Note OFF: Time 320880, Note Name: F2
Note ON: Time 320880, Note Name: G#2, Velocity: 26
Note ON: Time 320880, Note Name: F3, Velocity: 33
Note ON: Time 320880, Note Name: C#3, Velocity: 26
Note OFF: Time 321120, Note Name: C#3
Note OFF: Time 321120, Note Name: F3
Note OFF: Time 321120, Note Name: G#2
Note ON: Time 321120, Note Name: F2, Velocity: 36
Note OFF: Time 321360, Note Name: F2
Note ON: Time 321360, Note Name: F3, Velocity: 33
Note ON: Time 321360, Note Name: G#2, Velocity: 26
Note ON: Time 321360, Note Name: C#3, Velocity: 26
Note OFF: Time 321600, Note Name: C#3
Note OFF: Time 321600, Note Name: G#2
Note OFF: Time 321600, Note Name: F3
Note ON: Time 321600, Note Name: F2, Velocity: 33
Note OFF: Time 321840, Note Name: F2
Note ON: Time 321840, Note Name: C#3, Velocity: 28
Note ON: Time 321840, Note Name: F#3, Velocity: 36
Note ON: Time 321840, Note Name: D#3, Velocity: 28
Note OFF: Time 322080, Note Name: D#3
Note OFF: Time 322080, Note Name: F#3
Note OFF: Time 322080, Note Name: C#3
Note ON: Time 322080, Note Name: F#2, Velocity: 33
Note OFF: Time 322320, Note Name: F#2
Note ON: Time 322320, Note Name: C#3, Velocity: 27
Note ON: Time 322320, Note Name: F#3, Velocity: 35
Note ON: Time 322320, Note Name: D#3, Velocity: 27
Note OFF: Time 322560, Note Name: D#3
Note OFF: Time 322560, Note Name: F#3
Note OFF: Time 322560, Note Name: C#3
Note ON: Time 322560, Note Name: G#2, Velocity: 37
Note OFF: Time 322800, Note Name: G#2
Note ON: Time 322800, Note Name: C#3, Velocity: 27
Note ON: Time 322800, Note Name: G#3, Velocity: 33
Note ON: Time 322800, Note Name: F3, Velocity: 27
Note OFF: Time 323040, Note Name: F3
Note OFF: Time 323040, Note Name: G#3
Note OFF: Time 323040, Note Name: C#3
Note ON: Time 323040, Note Name: G#2, Velocity: 34
Note OFF: Time 323280, Note Name: G#2
Note ON: Time 323280, Note Name: C#3, Velocity: 30
Note ON: Time 323280, Note Name: G#3, Velocity: 38
Note ON: Time 323280, Note Name: F3, Velocity: 30
Note OFF: Time 323520, Note Name: F3
Note OFF: Time 323520, Note Name: G#3
Note OFF: Time 323520, Note Name: C#3
Note ON: Time 323520, Note Name: G#2, Velocity: 34
Note OFF: Time 323760, Note Name: G#2
Note ON: Time 323760, Note Name: C#3, Velocity: 28
Note ON: Time 323760, Note Name: G#3, Velocity: 35
Note ON: Time 323760, Note Name: F3, Velocity: 28
Note OFF: Time 324000, Note Name: F3
Note OFF: Time 324000, Note Name: G#3
Note OFF: Time 324000, Note Name: C#3
Note ON: Time 324000, Note Name: G#2, Velocity: 40
Note OFF: Time 324240, Note Name: G#2
Note ON: Time 324240, Note Name: C3, Velocity: 29
Note ON: Time 324240, Note Name: G#3, Velocity: 36
Note ON: Time 324240, Note Name: D#3, Velocity: 29
Note OFF: Time 324480, Note Name: D#3
Note OFF: Time 324480, Note Name: G#3
Note OFF: Time 324480, Note Name: C3
Note ON: Time 324480, Note Name: G#2, Velocity: 36
Note OFF: Time 324720, Note Name: G#2
Note ON: Time 324720, Note Name: C3, Velocity: 32
Note ON: Time 324720, Note Name: G#3, Velocity: 41
Note ON: Time 324720, Note Name: D#3, Velocity: 32
Note OFF: Time 324960, Note Name: D#3
Note OFF: Time 324960, Note Name: G#3
Note OFF: Time 324960, Note Name: C3
Note ON: Time 324960, Note Name: G#2, Velocity: 37
Note OFF: Time 325200, Note Name: G#2
Note ON: Time 325200, Note Name: C3, Velocity: 30
Note ON: Time 325200, Note Name: G#3, Velocity: 37
Note ON: Time 325200, Note Name: D#3, Velocity: 30
Note OFF: Time 325440, Note Name: D#3
Note OFF: Time 325440, Note Name: G#3
Note OFF: Time 325440, Note Name: C3
Note ON: Time 325440, Note Name: A2, Velocity: 51
Note OFF: Time 325680, Note Name: A2
Note ON: Time 325680, Note Name: C3, Velocity: 33
Note ON: Time 325680, Note Name: F3, Velocity: 33
Note ON: Time 325680, Note Name: A3, Velocity: 41
Note OFF: Time 325920, Note Name: A3
Note OFF: Time 325920, Note Name: F3
Note OFF: Time 325920, Note Name: C3
Note ON: Time 325920, Note Name: A2, Velocity: 45
Note OFF: Time 326160, Note Name: A2
Note ON: Time 326160, Note Name: C3, Velocity: 29
Note ON: Time 326160, Note Name: F3, Velocity: 29
Note ON: Time 326160, Note Name: A3, Velocity: 38
Note OFF: Time 326400, Note Name: A3
Note OFF: Time 326400, Note Name: F3
Note OFF: Time 326400, Note Name: C3
Note ON: Time 326400, Note Name: A2, Velocity: 36
Note OFF: Time 326640, Note Name: A2
Note ON: Time 326640, Note Name: C3, Velocity: 28
Note ON: Time 326640, Note Name: F3, Velocity: 28
Note ON: Time 326640, Note Name: A3, Velocity: 38
Note OFF: Time 326880, Note Name: A3
Note OFF: Time 326880, Note Name: F3
Note OFF: Time 326880, Note Name: C3
Note ON: Time 326880, Note Name: A2, Velocity: 39
Note OFF: Time 327120, Note Name: A2
Note ON: Time 327120, Note Name: C3, Velocity: 28
Note ON: Time 327120, Note Name: F3, Velocity: 28
Note ON: Time 327120, Note Name: A3, Velocity: 36
Note OFF: Time 327360, Note Name: A3
Note OFF: Time 327360, Note Name: F3
Note OFF: Time 327360, Note Name: C3
Note ON: Time 327360, Note Name: A2, Velocity: 39
Note OFF: Time 327600, Note Name: A2
Note ON: Time 327600, Note Name: F3, Velocity: 27
Note ON: Time 327600, Note Name: A#3, Velocity: 35
Note ON: Time 327600, Note Name: C#3, Velocity: 27
Note OFF: Time 327840, Note Name: C#3
Note OFF: Time 327840, Note Name: A#3
Note OFF: Time 327840, Note Name: F3
Note ON: Time 327840, Note Name: A#2, Velocity: 33
Note OFF: Time 328080, Note Name: A#2
Note ON: Time 328080, Note Name: C#3, Velocity: 27
Note ON: Time 328080, Note Name: F3, Velocity: 27
Note ON: Time 328080, Note Name: A#3, Velocity: 34
Note OFF: Time 328320, Note Name: A#3
Note OFF: Time 328320, Note Name: F3
Note OFF: Time 328320, Note Name: C#3
Note ON: Time 328320, Note Name: A#2, Velocity: 37
Note OFF: Time 328560, Note Name: A#2
Note ON: Time 328560, Note Name: C#3, Velocity: 27
Note ON: Time 328560, Note Name: F3, Velocity: 27
Note ON: Time 328560, Note Name: A#3, Velocity: 34
Note OFF: Time 328800, Note Name: A#3
Note OFF: Time 328800, Note Name: F3
Note OFF: Time 328800, Note Name: C#3
Note ON: Time 328800, Note Name: A#2, Velocity: 36
Note OFF: Time 329040, Note Name: A#2
Note ON: Time 329040, Note Name: C#3, Velocity: 30
Note ON: Time 329040, Note Name: F3, Velocity: 30
Note ON: Time 329040, Note Name: A#3, Velocity: 39
Note OFF: Time 329280, Note Name: A#3
Note OFF: Time 329280, Note Name: F3
Note OFF: Time 329280, Note Name: C#3
Note ON: Time 329280, Note Name: A#2, Velocity: 37
Note OFF: Time 329520, Note Name: A#2
Note ON: Time 329520, Note Name: F3, Velocity: 29
Note ON: Time 329520, Note Name: A#3, Velocity: 38
Note ON: Time 329520, Note Name: C#3, Velocity: 29
Note OFF: Time 329760, Note Name: C#3
Note OFF: Time 329760, Note Name: A#3
Note OFF: Time 329760, Note Name: F3
Note ON: Time 329760, Note Name: C3, Velocity: 40
Note OFF: Time 330000, Note Name: C3
Note ON: Time 330000, Note Name: D#3, Velocity: 29
Note ON: Time 330000, Note Name: F3, Velocity: 29
Note ON: Time 330000, Note Name: C4, Velocity: 38
Note OFF: Time 330240, Note Name: C4
Note OFF: Time 330240, Note Name: F3
Note OFF: Time 330240, Note Name: D#3
Note ON: Time 330240, Note Name: C3, Velocity: 39
Note OFF: Time 330480, Note Name: C3
Note ON: Time 330480, Note Name: D#3, Velocity: 34
Note ON: Time 330480, Note Name: C4, Velocity: 42
Note ON: Time 330480, Note Name: F3, Velocity: 34
Note OFF: Time 330720, Note Name: F3
Note OFF: Time 330720, Note Name: C4
Note OFF: Time 330720, Note Name: D#3
Note ON: Time 330720, Note Name: C3, Velocity: 40
Note OFF: Time 330960, Note Name: C3
Note ON: Time 330960, Note Name: F3, Velocity: 33
Note ON: Time 330960, Note Name: C4, Velocity: 42
Note ON: Time 330960, Note Name: D#3, Velocity: 33
Note OFF: Time 331200, Note Name: D#3
Note OFF: Time 331200, Note Name: C4
Note OFF: Time 331200, Note Name: F3
Note ON: Time 331200, Note Name: C#3, Velocity: 37
Note OFF: Time 331440, Note Name: C#3
Note ON: Time 331440, Note Name: F3, Velocity: 27
Note ON: Time 331440, Note Name: A#3, Velocity: 27
Note ON: Time 331440, Note Name: C#4, Velocity: 34
Note OFF: Time 331680, Note Name: C#4
Note OFF: Time 331680, Note Name: A#3
Note OFF: Time 331680, Note Name: F3
Note ON: Time 331680, Note Name: C#3, Velocity: 36
Note OFF: Time 331920, Note Name: C#3
Note ON: Time 331920, Note Name: F3, Velocity: 30
Note ON: Time 331920, Note Name: A#3, Velocity: 30
Note ON: Time 331920, Note Name: C#4, Velocity: 39
Note OFF: Time 332160, Note Name: C#4
Note OFF: Time 332160, Note Name: A#3
Note OFF: Time 332160, Note Name: F3
Note ON: Time 332160, Note Name: C#3, Velocity: 37
Note OFF: Time 332400, Note Name: C#3
Note ON: Time 332400, Note Name: A#3, Velocity: 29
Note ON: Time 332400, Note Name: C#4, Velocity: 38
Note ON: Time 332400, Note Name: F3, Velocity: 29
Note OFF: Time 332640, Note Name: F3
Note OFF: Time 332640, Note Name: C#4
Note OFF: Time 332640, Note Name: A#3
Note ON: Time 332640, Note Name: C#3, Velocity: 40
Note OFF: Time 332880, Note Name: C#3
Note ON: Time 332880, Note Name: F3, Velocity: 29
Note ON: Time 332880, Note Name: A#3, Velocity: 29
Note ON: Time 332880, Note Name: C#4, Velocity: 38
Note OFF: Time 333120, Note Name: C#4
Note OFF: Time 333120, Note Name: A#3
Note OFF: Time 333120, Note Name: F3
Note ON: Time 333120, Note Name: C#3, Velocity: 39
Note OFF: Time 333360, Note Name: C#3
Note ON: Time 333360, Note Name: F#3, Velocity: 28
Note ON: Time 333360, Note Name: D#4, Velocity: 36
Note ON: Time 333360, Note Name: A#3, Velocity: 28
Note OFF: Time 333600, Note Name: A#3
Note OFF: Time 333600, Note Name: D#4
Note OFF: Time 333600, Note Name: F#3
Note ON: Time 333600, Note Name: D#3, Velocity: 33
Note OFF: Time 333840, Note Name: D#3
Note ON: Time 333840, Note Name: F#3, Velocity: 27
Note ON: Time 333840, Note Name: D#4, Velocity: 35
Note ON: Time 333840, Note Name: A#3, Velocity: 27
Note OFF: Time 334080, Note Name: A#3
Note OFF: Time 334080, Note Name: D#4
Note OFF: Time 334080, Note Name: F#3
Note ON: Time 334080, Note Name: F3, Velocity: 37
Note OFF: Time 334320, Note Name: F3
Note ON: Time 334320, Note Name: A#3, Velocity: 27
Note ON: Time 334320, Note Name: F4, Velocity: 33
Note ON: Time 334320, Note Name: C#4, Velocity: 27
Note OFF: Time 334560, Note Name: C#4
Note OFF: Time 334560, Note Name: F4
Note OFF: Time 334560, Note Name: A#3
Note ON: Time 334560, Note Name: F3, Velocity: 34
Note OFF: Time 334800, Note Name: F3
Note ON: Time 334800, Note Name: A#3, Velocity: 30
Note ON: Time 334800, Note Name: F4, Velocity: 38
Note ON: Time 334800, Note Name: C#4, Velocity: 30
Note OFF: Time 335040, Note Name: C#4
Note OFF: Time 335040, Note Name: F4
Note OFF: Time 335040, Note Name: A#3
Note ON: Time 335040, Note Name: F3, Velocity: 34
Note OFF: Time 335280, Note Name: F3
Note ON: Time 335280, Note Name: C#4, Velocity: 28
Note ON: Time 335280, Note Name: F4, Velocity: 35
Note ON: Time 335280, Note Name: A#3, Velocity: 28
Note OFF: Time 335520, Note Name: A#3
Note OFF: Time 335520, Note Name: F4
Note OFF: Time 335520, Note Name: C#4
Note ON: Time 335520, Note Name: F3, Velocity: 40
Note OFF: Time 335760, Note Name: F3
Note ON: Time 335760, Note Name: C4, Velocity: 29
Note ON: Time 335760, Note Name: A3, Velocity: 29
Note ON: Time 335760, Note Name: D#4, Velocity: 37
Note OFF: Time 336000, Note Name: D#4
Note OFF: Time 336000, Note Name: A3
Note OFF: Time 336000, Note Name: C4
Note ON: Time 336000, Note Name: F3, Velocity: 37
Note OFF: Time 336240, Note Name: F3
Note ON: Time 336240, Note Name: C4, Velocity: 33
Note ON: Time 336240, Note Name: A3, Velocity: 33
Note ON: Time 336240, Note Name: D#4, Velocity: 42
Note OFF: Time 336480, Note Name: D#4
Note OFF: Time 336480, Note Name: A3
Note OFF: Time 336480, Note Name: C4
Note ON: Time 336480, Note Name: F3, Velocity: 38
Note OFF: Time 336720, Note Name: F3
Note ON: Time 336720, Note Name: C4, Velocity: 31
Note ON: Time 336720, Note Name: A3, Velocity: 31
Note ON: Time 336720, Note Name: D#4, Velocity: 38
Note OFF: Time 336960, Note Name: D#4
Note OFF: Time 336960, Note Name: A3
Note OFF: Time 336960, Note Name: C4
Note ON: Time 336960, Note Name: F#3, Velocity: 53
Note OFF: Time 337200, Note Name: F#3
Note ON: Time 337200, Note Name: F#4, Velocity: 43
Note ON: Time 337200, Note Name: C#4, Velocity: 34
Note ON: Time 337200, Note Name: A#3, Velocity: 34
Note OFF: Time 337440, Note Name: A#3
Note OFF: Time 337440, Note Name: C#4
Note OFF: Time 337440, Note Name: F#4
Note ON: Time 337440, Note Name: F#3, Velocity: 47
Note OFF: Time 337680, Note Name: F#3
Note ON: Time 337680, Note Name: F#4, Velocity: 46
Note ON: Time 337680, Note Name: C#4, Velocity: 35
Note ON: Time 337680, Note Name: A#3, Velocity: 35
Note OFF: Time 337920, Note Name: A#3
Note OFF: Time 337920, Note Name: C#4
Note OFF: Time 337920, Note Name: F#4
Note ON: Time 337920, Note Name: F#3, Velocity: 43
Note OFF: Time 338160, Note Name: F#3
Note ON: Time 338160, Note Name: F#4, Velocity: 46
Note ON: Time 338160, Note Name: C#4, Velocity: 34
Note ON: Time 338160, Note Name: A#3, Velocity: 34
Note OFF: Time 338400, Note Name: A#3
Note OFF: Time 338400, Note Name: C#4
Note OFF: Time 338400, Note Name: F#4
Note ON: Time 338400, Note Name: F#3, Velocity: 47
Note OFF: Time 338640, Note Name: F#3
Note ON: Time 338640, Note Name: F#4, Velocity: 44
Note ON: Time 338640, Note Name: C#4, Velocity: 34
Note ON: Time 338640, Note Name: A#3, Velocity: 34
Note OFF: Time 338880, Note Name: A#3
Note OFF: Time 338880, Note Name: C#4
Note OFF: Time 338880, Note Name: F#4
Note ON: Time 338880, Note Name: F#3, Velocity: 47
Note OFF: Time 339120, Note Name: F#3
Note ON: Time 339120, Note Name: A#3, Velocity: 35
Note ON: Time 339120, Note Name: C#4, Velocity: 35
Note ON: Time 339120, Note Name: F#4, Velocity: 46
Note OFF: Time 339360, Note Name: F#4
Note OFF: Time 339360, Note Name: C#4
Note OFF: Time 339360, Note Name: A#3
Note ON: Time 339360, Note Name: F#3, Velocity: 42
Note OFF: Time 339600, Note Name: F#3
Note ON: Time 339600, Note Name: F#4, Velocity: 44
Note ON: Time 339600, Note Name: A#3, Velocity: 35
Note ON: Time 339600, Note Name: C#4, Velocity: 35
Note OFF: Time 339840, Note Name: C#4
Note OFF: Time 339840, Note Name: A#3
Note OFF: Time 339840, Note Name: F#4
Note ON: Time 339840, Note Name: F#3, Velocity: 48
Note OFF: Time 340080, Note Name: F#3
Note ON: Time 340080, Note Name: F#4, Velocity: 44
Note ON: Time 340080, Note Name: C#4, Velocity: 35
Note ON: Time 340080, Note Name: A#3, Velocity: 35
Note OFF: Time 340320, Note Name: A#3
Note OFF: Time 340320, Note Name: C#4
Note OFF: Time 340320, Note Name: F#4
Note ON: Time 340320, Note Name: F#3, Velocity: 47
Note OFF: Time 340560, Note Name: F#3
Note ON: Time 340560, Note Name: F#4, Velocity: 50
Note ON: Time 340560, Note Name: C#4, Velocity: 39
Note ON: Time 340560, Note Name: A#3, Velocity: 39
Note OFF: Time 340800, Note Name: A#3
Note OFF: Time 340800, Note Name: C#4
Note OFF: Time 340800, Note Name: F#4
Note ON: Time 340800, Note Name: F#3, Velocity: 48
Note OFF: Time 341040, Note Name: F#3
Note ON: Time 341040, Note Name: A#3, Velocity: 37
Note ON: Time 341040, Note Name: F#4, Velocity: 49
Note ON: Time 341040, Note Name: C#4, Velocity: 37
Note OFF: Time 341280, Note Name: C#4
Note OFF: Time 341280, Note Name: F#4
Note OFF: Time 341280, Note Name: A#3
Note ON: Time 341280, Note Name: G#3, Velocity: 52
Note OFF: Time 341520, Note Name: G#3
Note ON: Time 341520, Note Name: G#4, Velocity: 49
Note ON: Time 341520, Note Name: B3, Velocity: 37
Note ON: Time 341520, Note Name: C#4, Velocity: 37
Note OFF: Time 341760, Note Name: C#4
Note OFF: Time 341760, Note Name: B3
Note OFF: Time 341760, Note Name: G#4
Note ON: Time 341760, Note Name: G#3, Velocity: 50
Note OFF: Time 342000, Note Name: G#3
Note ON: Time 342000, Note Name: C#4, Velocity: 44
Note ON: Time 342000, Note Name: G#4, Velocity: 55
Note ON: Time 342000, Note Name: B3, Velocity: 44
Note OFF: Time 342240, Note Name: B3
Note OFF: Time 342240, Note Name: G#4
Note OFF: Time 342240, Note Name: C#4
Note ON: Time 342240, Note Name: G#3, Velocity: 52
Note OFF: Time 342480, Note Name: G#3
Note ON: Time 342480, Note Name: B3, Velocity: 42
Note ON: Time 342480, Note Name: G#4, Velocity: 55
Note ON: Time 342480, Note Name: C#4, Velocity: 42
Note OFF: Time 342720, Note Name: C#4
Note OFF: Time 342720, Note Name: G#4
Note OFF: Time 342720, Note Name: B3
Note ON: Time 342720, Note Name: A#3, Velocity: 48
Note OFF: Time 342960, Note Name: A#3
Note ON: Time 342960, Note Name: A#4, Velocity: 44
Note ON: Time 342960, Note Name: C#4, Velocity: 35
Note ON: Time 342960, Note Name: F#4, Velocity: 35
Note OFF: Time 343200, Note Name: F#4
Note OFF: Time 343200, Note Name: C#4
Note OFF: Time 343200, Note Name: A#4
Note ON: Time 343200, Note Name: A#3, Velocity: 47
Note OFF: Time 343440, Note Name: A#3
Note ON: Time 343440, Note Name: A#4, Velocity: 42
Note ON: Time 343440, Note Name: C#4, Velocity: 33
Note ON: Time 343440, Note Name: F#4, Velocity: 33
Note OFF: Time 343680, Note Name: F#4
Note OFF: Time 343680, Note Name: C#4
Note OFF: Time 343680, Note Name: A#4
Note ON: Time 343680, Note Name: A#3, Velocity: 40
Note OFF: Time 343920, Note Name: A#3
Note ON: Time 343920, Note Name: C#4, Velocity: 33
Note ON: Time 343920, Note Name: F#4, Velocity: 33
Note ON: Time 343920, Note Name: A#4, Velocity: 44
Note OFF: Time 344160, Note Name: A#4
Note OFF: Time 344160, Note Name: F#4
Note OFF: Time 344160, Note Name: C#4
Note ON: Time 344160, Note Name: A#3, Velocity: 50
Note OFF: Time 344400, Note Name: A#3
Note ON: Time 344400, Note Name: A#4, Velocity: 49
Note ON: Time 344400, Note Name: F#4, Velocity: 37
Note ON: Time 344400, Note Name: C#4, Velocity: 37
Note OFF: Time 344640, Note Name: C#4
Note OFF: Time 344640, Note Name: F#4
Note OFF: Time 344640, Note Name: A#4
Note ON: Time 344640, Note Name: A#3, Velocity: 52
Note OFF: Time 344880, Note Name: A#3
Note ON: Time 344880, Note Name: F#4, Velocity: 38
Note ON: Time 344880, Note Name: A#4, Velocity: 51
Note ON: Time 344880, Note Name: C#4, Velocity: 38
Note OFF: Time 345120, Note Name: C#4
Note OFF: Time 345120, Note Name: A#4
Note OFF: Time 345120, Note Name: F#4
Note ON: Time 345120, Note Name: A#3, Velocity: 48
Note OFF: Time 345360, Note Name: A#3
Note ON: Time 345360, Note Name: F#4, Velocity: 41
Note ON: Time 345360, Note Name: A#4, Velocity: 55
Note ON: Time 345360, Note Name: C#4, Velocity: 41
Note OFF: Time 345600, Note Name: C#4
Note OFF: Time 345600, Note Name: A#4
Note OFF: Time 345600, Note Name: F#4
Note ON: Time 345600, Note Name: B3, Velocity: 57
Note OFF: Time 345840, Note Name: B3
Note ON: Time 345840, Note Name: B4, Velocity: 44
Note ON: Time 345840, Note Name: D4, Velocity: 35
Note ON: Time 345840, Note Name: F#4, Velocity: 35
Note OFF: Time 346080, Note Name: F#4
Note OFF: Time 346080, Note Name: D4
Note OFF: Time 346080, Note Name: B4
Note ON: Time 346080, Note Name: B3, Velocity: 47
Note OFF: Time 346320, Note Name: B3
Note ON: Time 346320, Note Name: B4, Velocity: 42
Note ON: Time 346320, Note Name: D4, Velocity: 33
Note ON: Time 346320, Note Name: F#4, Velocity: 33
Note OFF: Time 346560, Note Name: F#4
Note OFF: Time 346560, Note Name: D4
Note OFF: Time 346560, Note Name: B4
Note ON: Time 346560, Note Name: B3, Velocity: 40
Note OFF: Time 346800, Note Name: B3
Note ON: Time 346800, Note Name: D4, Velocity: 33
Note ON: Time 346800, Note Name: F#4, Velocity: 33
Note ON: Time 346800, Note Name: B4, Velocity: 44
Note OFF: Time 347040, Note Name: B4
Note OFF: Time 347040, Note Name: F#4
Note OFF: Time 347040, Note Name: D4
Note ON: Time 347040, Note Name: B3, Velocity: 50
Note OFF: Time 347280, Note Name: B3
Note ON: Time 347280, Note Name: B4, Velocity: 49
Note ON: Time 347280, Note Name: F#4, Velocity: 37
Note ON: Time 347280, Note Name: D4, Velocity: 37
Note OFF: Time 347520, Note Name: D4
Note OFF: Time 347520, Note Name: F#4
Note OFF: Time 347520, Note Name: B4
Note ON: Time 347520, Note Name: B3, Velocity: 53
Note OFF: Time 347760, Note Name: B3
Note ON: Time 347760, Note Name: F#4, Velocity: 38
Note ON: Time 347760, Note Name: B4, Velocity: 52
Note ON: Time 347760, Note Name: D4, Velocity: 38
Note OFF: Time 348000, Note Name: D4
Note OFF: Time 348000, Note Name: B4
Note OFF: Time 348000, Note Name: F#4
Note ON: Time 348000, Note Name: B3, Velocity: 49
Note OFF: Time 348240, Note Name: B3
Note ON: Time 348240, Note Name: F#4, Velocity: 42
Note ON: Time 348240, Note Name: B4, Velocity: 56
Note ON: Time 348240, Note Name: D4, Velocity: 42
Note OFF: Time 348480, Note Name: D4
Note OFF: Time 348480, Note Name: B4
Note OFF: Time 348480, Note Name: F#4
Note ON: Time 348480, Note Name: B3, Velocity: 60
Note OFF: Time 348720, Note Name: B3
Note ON: Time 348720, Note Name: D4, Velocity: 36
Note ON: Time 348720, Note Name: G4, Velocity: 36
Note ON: Time 348720, Note Name: B4, Velocity: 46
Note OFF: Time 348960, Note Name: B4
Note OFF: Time 348960, Note Name: G4
Note OFF: Time 348960, Note Name: D4
Note ON: Time 348960, Note Name: B3, Velocity: 49
Note OFF: Time 349200, Note Name: B3
Note ON: Time 349200, Note Name: D4, Velocity: 34
Note ON: Time 349200, Note Name: G4, Velocity: 34
Note ON: Time 349200, Note Name: B4, Velocity: 45
Note OFF: Time 349440, Note Name: B4
Note OFF: Time 349440, Note Name: G4
Note OFF: Time 349440, Note Name: D4
Note ON: Time 349440, Note Name: B3, Velocity: 42
Note OFF: Time 349680, Note Name: B3
Note ON: Time 349680, Note Name: G4, Velocity: 35
Note ON: Time 349680, Note Name: B4, Velocity: 47
Note ON: Time 349680, Note Name: D4, Velocity: 35
Note OFF: Time 349920, Note Name: D4
Note OFF: Time 349920, Note Name: B4
Note OFF: Time 349920, Note Name: G4
Note ON: Time 349920, Note Name: B3, Velocity: 53
Note OFF: Time 350160, Note Name: B3
Note ON: Time 350160, Note Name: D4, Velocity: 39
Note ON: Time 350160, Note Name: G4, Velocity: 39
Note ON: Time 350160, Note Name: B4, Velocity: 51
Note OFF: Time 350400, Note Name: B4
Note OFF: Time 350400, Note Name: G4
Note OFF: Time 350400, Note Name: D4
Note ON: Time 350400, Note Name: B3, Velocity: 56
Note OFF: Time 350640, Note Name: B3
Note ON: Time 350640, Note Name: D4, Velocity: 40
Note ON: Time 350640, Note Name: B4, Velocity: 55
Note ON: Time 350640, Note Name: G4, Velocity: 40
Note OFF: Time 350880, Note Name: G4
Note OFF: Time 350880, Note Name: B4
Note OFF: Time 350880, Note Name: D4
Note ON: Time 350880, Note Name: B3, Velocity: 51
Note OFF: Time 351120, Note Name: B3
Note ON: Time 351120, Note Name: D4, Velocity: 44
Note ON: Time 351120, Note Name: B4, Velocity: 59
Note ON: Time 351120, Note Name: G4, Velocity: 44
Note OFF: Time 351360, Note Name: G4
Note OFF: Time 351360, Note Name: B4
Note OFF: Time 351360, Note Name: D4
Note ON: Time 351360, Note Name: C4, Velocity: 64
Note OFF: Time 351600, Note Name: C4
Note ON: Time 351600, Note Name: E4, Velocity: 38
Note ON: Time 351600, Note Name: G4, Velocity: 38
Note ON: Time 351600, Note Name: C5, Velocity: 48
Note OFF: Time 351840, Note Name: C5
Note OFF: Time 351840, Note Name: G4
Note OFF: Time 351840, Note Name: E4
Note ON: Time 351840, Note Name: C4, Velocity: 51
Note OFF: Time 352080, Note Name: C4
Note ON: Time 352080, Note Name: E4, Velocity: 37
Note ON: Time 352080, Note Name: G4, Velocity: 37
Note ON: Time 352080, Note Name: C5, Velocity: 48
Note OFF: Time 352320, Note Name: C5
Note OFF: Time 352320, Note Name: G4
Note OFF: Time 352320, Note Name: E4
Note ON: Time 352320, Note Name: C4, Velocity: 47
Note OFF: Time 352560, Note Name: C4
Note ON: Time 352560, Note Name: G4, Velocity: 37
Note ON: Time 352560, Note Name: C5, Velocity: 50
Note ON: Time 352560, Note Name: E4, Velocity: 37
Note OFF: Time 352800, Note Name: E4
Note OFF: Time 352800, Note Name: C5
Note OFF: Time 352800, Note Name: G4
Note ON: Time 352800, Note Name: C4, Velocity: 57
Note OFF: Time 353040, Note Name: C4
Note ON: Time 353040, Note Name: E4, Velocity: 41
Note ON: Time 353040, Note Name: G4, Velocity: 41
Note ON: Time 353040, Note Name: C5, Velocity: 55
Note OFF: Time 353280, Note Name: C5
Note OFF: Time 353280, Note Name: G4
Note OFF: Time 353280, Note Name: E4
Note ON: Time 353280, Note Name: C4, Velocity: 59
Note OFF: Time 353520, Note Name: C4
Note ON: Time 353520, Note Name: E4, Velocity: 44
Note ON: Time 353520, Note Name: C5, Velocity: 58
Note ON: Time 353520, Note Name: G4, Velocity: 44
Note OFF: Time 353760, Note Name: G4
Note OFF: Time 353760, Note Name: C5
Note OFF: Time 353760, Note Name: E4
Note ON: Time 353760, Note Name: C4, Velocity: 55
Note OFF: Time 354000, Note Name: C4
Note ON: Time 354000, Note Name: E4, Velocity: 47
Note ON: Time 354000, Note Name: C5, Velocity: 61
Note ON: Time 354000, Note Name: G4, Velocity: 47
Note OFF: Time 354240, Note Name: G4
Note OFF: Time 354240, Note Name: C5
Note OFF: Time 354240, Note Name: E4
Note ON: Time 354240, Note Name: C#4, Velocity: 102
Note ON: Time 354360, Note Name: E4, Velocity: 78
Note ON: Time 354480, Note Name: G4, Velocity: 78
Note ON: Time 354600, Note Name: A#4, Velocity: 78
Note ON: Time 354720, Note Name: C#5, Velocity: 78
Note OFF: Time 355680, Note Name: C#5
Note OFF: Time 355680, Note Name: G4
Note OFF: Time 355680, Note Name: C#4
Note OFF: Time 355680, Note Name: E4
Note OFF: Time 355680, Note Name: A#4
Note ON: Time 355680, Note Name: E4, Velocity: 101
Note ON: Time 355800, Note Name: G4, Velocity: 78
Note ON: Time 355920, Note Name: A#4, Velocity: 78
Note ON: Time 356040, Note Name: C#5, Velocity: 78
Note ON: Time 356160, Note Name: E5, Velocity: 79
Note OFF: Time 357120, Note Name: E5
Note OFF: Time 357120, Note Name: A#4
Note OFF: Time 357120, Note Name: E4
Note OFF: Time 357120, Note Name: G4
Note OFF: Time 357120, Note Name: C#5
Note ON: Time 357120, Note Name: G4, Velocity: 101
Note ON: Time 357240, Note Name: A#4, Velocity: 84
Note ON: Time 357360, Note Name: C#5, Velocity: 84
Note ON: Time 357480, Note Name: E5, Velocity: 84
Note OFF: Time 358560, Note Name: E5
Note OFF: Time 358560, Note Name: G4
Note OFF: Time 358560, Note Name: A#4
Note OFF: Time 358560, Note Name: C#5
Note ON: Time 358560, Note Name: A#4, Velocity: 100
Note ON: Time 358680, Note Name: C#5, Velocity: 84
Note ON: Time 358800, Note Name: E5, Velocity: 86
Note OFF: Time 360000, Note Name: E5
Note OFF: Time 360000, Note Name: C#5
Note OFF: Time 360000, Note Name: A#4
Note ON: Time 360000, Note Name: C#5, Velocity: 96
Note ON: Time 360120, Note Name: E5, Velocity: 84
Note ON: Time 360240, Note Name: G5, Velocity: 84
Note OFF: Time 360720, Note Name: G5
Note OFF: Time 360720, Note Name: E5
Note OFF: Time 360720, Note Name: C#5
Note ON: Time 360720, Note Name: E5, Velocity: 98
Note ON: Time 360840, Note Name: G5, Velocity: 84
Note ON: Time 360960, Note Name: A#5, Velocity: 84
Note OFF: Time 361440, Note Name: A#5
Note OFF: Time 361440, Note Name: G5
Note OFF: Time 361440, Note Name: E5
Note ON: Time 361440, Note Name: G5, Velocity: 100
Note OFF: Time 361560, Note Name: G5
Note ON: Time 361560, Note Name: A#5, Velocity: 84
Note OFF: Time 361680, Note Name: A#5
Note ON: Time 361680, Note Name: C#6, Velocity: 84
Note OFF: Time 361800, Note Name: C#6
Note ON: Time 362160, Note Name: A#5, Velocity: 100
Note OFF: Time 362280, Note Name: A#5
Note ON: Time 362280, Note Name: C#6, Velocity: 84
Note OFF: Time 362400, Note Name: C#6
Note ON: Time 362400, Note Name: E6, Velocity: 84
Note OFF: Time 362520, Note Name: E6
Note ON: Time 362880, Note Name: C#6, Velocity: 102
Note OFF: Time 363000, Note Name: C#6
Note ON: Time 363000, Note Name: E6, Velocity: 84
Note OFF: Time 363114, Note Name: E6
Note ON: Time 363600, Note Name: A#5, Velocity: 97
Note OFF: Time 363720, Note Name: A#5
Note ON: Time 363720, Note Name: C#6, Velocity: 84
Note OFF: Time 363834, Note Name: C#6
Note ON: Time 364320, Note Name: G5, Velocity: 96
Note OFF: Time 364440, Note Name: G5
Note ON: Time 364440, Note Name: A#5, Velocity: 84
Note OFF: Time 364554, Note Name: A#5
Note ON: Time 365040, Note Name: E5, Velocity: 96
Note OFF: Time 365160, Note Name: E5
Note ON: Time 365160, Note Name: G5, Velocity: 84
Note OFF: Time 365274, Note Name: G5
Note ON: Time 365760, Note Name: C#5, Velocity: 96
Note OFF: Time 365880, Note Name: C#5
Note ON: Time 365880, Note Name: E5, Velocity: 84
Note OFF: Time 365994, Note Name: E5
Note ON: Time 366480, Note Name: A#4, Velocity: 96
Note OFF: Time 366600, Note Name: A#4
Note ON: Time 366600, Note Name: C#5, Velocity: 84
Note OFF: Time 366714, Note Name: C#5
Note ON: Time 367200, Note Name: G4, Velocity: 96
Note OFF: Time 367320, Note Name: G4
Note ON: Time 367320, Note Name: A#4, Velocity: 84
Note OFF: Time 367434, Note Name: A#4
Note ON: Time 367920, Note Name: E4, Velocity: 96
Note OFF: Time 368040, Note Name: E4
Note ON: Time 368040, Note Name: G4, Velocity: 84
Note OFF: Time 368154, Note Name: G4
Note ON: Time 368640, Note Name: C#4, Velocity: 91
Note OFF: Time 368760, Note Name: C#4
Note ON: Time 368760, Note Name: E4, Velocity: 80
Note OFF: Time 368874, Note Name: E4
Note ON: Time 369360, Note Name: A#3, Velocity: 91
Note OFF: Time 369480, Note Name: A#3
Note ON: Time 369480, Note Name: C#4, Velocity: 80
Note OFF: Time 369594, Note Name: C#4
Note ON: Time 370080, Note Name: G3, Velocity: 91
Note OFF: Time 370200, Note Name: G3
Note ON: Time 370200, Note Name: A#3, Velocity: 80
Note OFF: Time 370314, Note Name: A#3
Note ON: Time 370800, Note Name: E3, Velocity: 91
Note OFF: Time 370920, Note Name: E3
Note ON: Time 370920, Note Name: G3, Velocity: 80
Note OFF: Time 371034, Note Name: G3
Note ON: Time 371520, Note Name: C#3, Velocity: 91
Note OFF: Time 371640, Note Name: C#3
Note ON: Time 371640, Note Name: E3, Velocity: 80
Note OFF: Time 371754, Note Name: E3
Note ON: Time 372240, Note Name: A#2, Velocity: 91
Note OFF: Time 372360, Note Name: A#2
Note ON: Time 372360, Note Name: C#3, Velocity: 80
Note OFF: Time 372474, Note Name: C#3
Note ON: Time 372960, Note Name: G2, Velocity: 91
Note OFF: Time 373080, Note Name: G2
Note ON: Time 373080, Note Name: A#2, Velocity: 80
Note OFF: Time 373194, Note Name: A#2
Note ON: Time 373680, Note Name: E2, Velocity: 91
Note OFF: Time 373800, Note Name: E2
Note ON: Time 373800, Note Name: G2, Velocity: 80
Note OFF: Time 373914, Note Name: G2
Note ON: Time 374400, Note Name: C#2, Velocity: 104
Note OFF: Time 374880, Note Name: C#2
Note ON: Time 375120, Note Name: C#5, Velocity: 106
Note OFF: Time 375360, Note Name: C#5
Note ON: Time 375360, Note Name: C#5, Velocity: 100
Note OFF: Time 375600, Note Name: C#5
Note ON: Time 375600, Note Name: C#5, Velocity: 100
Note OFF: Time 375840, Note Name: C#5
Note ON: Time 375840, Note Name: C#5, Velocity: 105
Note OFF: Time 376320, Note Name: C#5
Note ON: Time 376560, Note Name: C#2, Velocity: 98
Note OFF: Time 376800, Note Name: C#2
Note ON: Time 376800, Note Name: C#2, Velocity: 93
Note OFF: Time 377040, Note Name: C#2
Note ON: Time 377040, Note Name: C#2, Velocity: 93
Note OFF: Time 377280, Note Name: C#2
Note ON: Time 377280, Note Name: C#2, Velocity: 100
Note OFF: Time 377760, Note Name: C#2
Note ON: Time 378000, Note Name: C#5, Velocity: 106
Note OFF: Time 378240, Note Name: C#5
Note ON: Time 378240, Note Name: C#5, Velocity: 100
Note OFF: Time 378480, Note Name: C#5
Note ON: Time 378480, Note Name: C#5, Velocity: 100
Note OFF: Time 378720, Note Name: C#5
Note ON: Time 378720, Note Name: C#5, Velocity: 105
Note OFF: Time 379200, Note Name: C#5
Note ON: Time 379440, Note Name: C#2, Velocity: 98
Note OFF: Time 379680, Note Name: C#2
Note ON: Time 379680, Note Name: C#2, Velocity: 93
Note OFF: Time 379920, Note Name: C#2
Note ON: Time 379920, Note Name: C#2, Velocity: 93
Note OFF: Time 380160, Note Name: C#2
Note ON: Time 380160, Note Name: C2, Velocity: 100
Note OFF: Time 380640, Note Name: C2
Note ON: Time 380880, Note Name: C#5, Velocity: 106
Note OFF: Time 381120, Note Name: C#5
Note ON: Time 381120, Note Name: C#5, Velocity: 100
Note OFF: Time 381360, Note Name: C#5
Note ON: Time 381360, Note Name: C#5, Velocity: 100
Note OFF: Time 381600, Note Name: C#5
Note ON: Time 381600, Note Name: C5, Velocity: 105
Note OFF: Time 382080, Note Name: C5
Note ON: Time 382320, Note Name: C#2, Velocity: 98
Note OFF: Time 382560, Note Name: C#2
Note ON: Time 382560, Note Name: C#2, Velocity: 93
Note OFF: Time 382800, Note Name: C#2
Note ON: Time 382800, Note Name: C#2, Velocity: 93
Note OFF: Time 383040, Note Name: C#2
Note ON: Time 383040, Note Name: C2, Velocity: 100
Note OFF: Time 383520, Note Name: C2
Note ON: Time 383760, Note Name: C#5, Velocity: 106
Note OFF: Time 384000, Note Name: C#5
Note ON: Time 384000, Note Name: C#5, Velocity: 100
Note OFF: Time 384240, Note Name: C#5
Note ON: Time 384240, Note Name: C#5, Velocity: 100
Note OFF: Time 384480, Note Name: C#5
Note ON: Time 384480, Note Name: C5, Velocity: 105
Note OFF: Time 384960, Note Name: C5
Note ON: Time 385200, Note Name: C#2, Velocity: 110
Note OFF: Time 385440, Note Name: C#2
Note ON: Time 385440, Note Name: C#2, Velocity: 105
Note OFF: Time 385680, Note Name: C#2
Note ON: Time 385680, Note Name: C#2, Velocity: 105
Note OFF: Time 385920, Note Name: C#2
Note ON: Time 385920, Note Name: C2, Velocity: 59
Note OFF: Time 386140, Note Name: C2
Note ON: Time 386160, Note Name: C2, Velocity: 30
Note OFF: Time 386380, Note Name: C2
Note ON: Time 386400, Note Name: C2, Velocity: 30
Note OFF: Time 386620, Note Name: C2
Note ON: Time 386640, Note Name: C2, Velocity: 32
Note OFF: Time 386860, Note Name: C2
Note ON: Time 386880, Note Name: C2, Velocity: 27
Note OFF: Time 387100, Note Name: C2
Note ON: Time 387120, Note Name: C2, Velocity: 27
Note OFF: Time 387340, Note Name: C2
Note ON: Time 387360, Note Name: C2, Velocity: 30
Note OFF: Time 387580, Note Name: C2
Note ON: Time 387600, Note Name: C2, Velocity: 24
Note OFF: Time 387820, Note Name: C2
Note ON: Time 387840, Note Name: C2, Velocity: 24
Note OFF: Time 388060, Note Name: C2
Note ON: Time 388080, Note Name: C2, Velocity: 28
Note OFF: Time 388300, Note Name: C2
Note ON: Time 388320, Note Name: C2, Velocity: 22
Note OFF: Time 388540, Note Name: C2
Note ON: Time 388560, Note Name: C2, Velocity: 22
Note OFF: Time 388780, Note Name: C2
Note ON: Time 388800, Note Name: C2, Velocity: 24
Note OFF: Time 389020, Note Name: C2
Note ON: Time 389040, Note Name: C2, Velocity: 22
Note OFF: Time 389260, Note Name: C2
Note ON: Time 389280, Note Name: C2, Velocity: 22
Note OFF: Time 389500, Note Name: C2
Note ON: Time 389520, Note Name: C2, Velocity: 24
Note OFF: Time 389740, Note Name: C2
Note ON: Time 389760, Note Name: C2, Velocity: 20
Note OFF: Time 389980, Note Name: C2
Note ON: Time 390000, Note Name: C2, Velocity: 20
Note OFF: Time 390220, Note Name: C2
Note ON: Time 390240, Note Name: C2, Velocity: 23
Note OFF: Time 390460, Note Name: C2
Note ON: Time 390480, Note Name: C2, Velocity: 18
Note OFF: Time 390700, Note Name: C2
Note ON: Time 390720, Note Name: C2, Velocity: 23
Note OFF: Time 390940, Note Name: C2
Note ON: Time 390960, Note Name: C2, Velocity: 23
Note OFF: Time 391180, Note Name: C2
Note ON: Time 391200, Note Name: C2, Velocity: 20
Note OFF: Time 391420, Note Name: C2
Note ON: Time 391440, Note Name: C2, Velocity: 22
Note OFF: Time 391660, Note Name: C2
Note ON: Time 391680, Note Name: C2, Velocity: 23
Note OFF: Time 391900, Note Name: C2
Note ON: Time 391920, Note Name: C2, Velocity: 20
Note OFF: Time 392140, Note Name: C2
Note ON: Time 392160, Note Name: C2, Velocity: 22
Note OFF: Time 392380, Note Name: C2
Note ON: Time 392400, Note Name: C2, Velocity: 23
Note OFF: Time 392620, Note Name: C2
Note ON: Time 392640, Note Name: C2, Velocity: 20
Note OFF: Time 392860, Note Name: C2
Note ON: Time 392880, Note Name: C2, Velocity: 22
Note OFF: Time 393100, Note Name: C2
Note ON: Time 393120, Note Name: C2, Velocity: 23
Note OFF: Time 393340, Note Name: C2
Note ON: Time 393360, Note Name: C2, Velocity: 20
Note OFF: Time 393580, Note Name: C2
Note ON: Time 393600, Note Name: C2, Velocity: 22
Note OFF: Time 393820, Note Name: C2
Note ON: Time 393840, Note Name: C2, Velocity: 23
Note OFF: Time 394060, Note Name: C2
Note ON: Time 394080, Note Name: C2, Velocity: 20
Note OFF: Time 394300, Note Name: C2
Note ON: Time 394320, Note Name: C2, Velocity: 22
Note OFF: Time 394540, Note Name: C2
Note ON: Time 394560, Note Name: C2, Velocity: 23
Note OFF: Time 394780, Note Name: C2
Note ON: Time 394800, Note Name: C2, Velocity: 20
Note OFF: Time 395020, Note Name: C2
Note ON: Time 395040, Note Name: C2, Velocity: 22
Note OFF: Time 395260, Note Name: C2
Note ON: Time 395280, Note Name: C2, Velocity: 23
Note OFF: Time 395500, Note Name: C2
Note ON: Time 395520, Note Name: C2, Velocity: 20
Note OFF: Time 395740, Note Name: C2
Note ON: Time 395760, Note Name: C2, Velocity: 22
Note OFF: Time 395980, Note Name: C2
Note ON: Time 396000, Note Name: C2, Velocity: 23
Note OFF: Time 396220, Note Name: C2
Note ON: Time 396240, Note Name: C2, Velocity: 20
Note OFF: Time 396460, Note Name: C2
Note ON: Time 396480, Note Name: C2, Velocity: 22
Note OFF: Time 396700, Note Name: C2
Note ON: Time 396720, Note Name: C2, Velocity: 23
Note OFF: Time 396940, Note Name: C2
Note ON: Time 396960, Note Name: C2, Velocity: 20
Note OFF: Time 397180, Note Name: C2
Note ON: Time 397200, Note Name: C2, Velocity: 22
Note OFF: Time 397420, Note Name: C2
Note ON: Time 397440, Note Name: C2, Velocity: 23
Note OFF: Time 397660, Note Name: C2
Note ON: Time 397680, Note Name: C2, Velocity: 20
Note OFF: Time 397900, Note Name: C2
Note ON: Time 397920, Note Name: C2, Velocity: 22
Note OFF: Time 398140, Note Name: C2
Note ON: Time 398160, Note Name: C2, Velocity: 23
Note OFF: Time 398380, Note Name: C2
Note ON: Time 398400, Note Name: C2, Velocity: 20
Note OFF: Time 398620, Note Name: C2
Note ON: Time 398640, Note Name: C2, Velocity: 22
Note OFF: Time 398860, Note Name: C2
Note ON: Time 398880, Note Name: C2, Velocity: 23
Note OFF: Time 399100, Note Name: C2
Note ON: Time 399120, Note Name: C2, Velocity: 20
Note OFF: Time 399340, Note Name: C2
Note ON: Time 399360, Note Name: C2, Velocity: 22
Note OFF: Time 399580, Note Name: C2
Note ON: Time 399600, Note Name: C2, Velocity: 23
Note OFF: Time 399820, Note Name: C2
Note ON: Time 399840, Note Name: C2, Velocity: 20
Note OFF: Time 400060, Note Name: C2
Note ON: Time 400080, Note Name: C2, Velocity: 22
Note OFF: Time 400300, Note Name: C2
Note ON: Time 400320, Note Name: C2, Velocity: 23
Note OFF: Time 400540, Note Name: C2
Note ON: Time 400560, Note Name: C2, Velocity: 20
Note OFF: Time 400780, Note Name: C2
Note ON: Time 400800, Note Name: C2, Velocity: 22
Note OFF: Time 401020, Note Name: C2
Note ON: Time 401040, Note Name: C2, Velocity: 23
Note OFF: Time 401260, Note Name: C2
Note ON: Time 401280, Note Name: C2, Velocity: 20
Note OFF: Time 401500, Note Name: C2
Note ON: Time 401520, Note Name: C2, Velocity: 22
Note OFF: Time 401740, Note Name: C2
Note ON: Time 401760, Note Name: C2, Velocity: 23
Note OFF: Time 401980, Note Name: C2
Note ON: Time 402000, Note Name: C#2, Velocity: 20
Note OFF: Time 402220, Note Name: C#2
Note ON: Time 402240, Note Name: C#2, Velocity: 22
Note OFF: Time 402460, Note Name: C#2
Note ON: Time 402480, Note Name: C#2, Velocity: 23
Note OFF: Time 402700, Note Name: C#2
Note ON: Time 402720, Note Name: C#2, Velocity: 20
Note OFF: Time 402940, Note Name: C#2
Note ON: Time 402960, Note Name: C#2, Velocity: 22
Note OFF: Time 403180, Note Name: C#2
Note ON: Time 403200, Note Name: C#2, Velocity: 23
Note OFF: Time 403420, Note Name: C#2
Note ON: Time 403440, Note Name: C#2, Velocity: 20
Note OFF: Time 403660, Note Name: C#2
Note ON: Time 403680, Note Name: C#2, Velocity: 22
Note OFF: Time 403900, Note Name: C#2
Note ON: Time 403920, Note Name: C#2, Velocity: 23
Note OFF: Time 404140, Note Name: C#2
Note ON: Time 404160, Note Name: C#2, Velocity: 20
Note OFF: Time 404380, Note Name: C#2
Note ON: Time 404400, Note Name: C#2, Velocity: 22
Note OFF: Time 404620, Note Name: C#2
Note ON: Time 404640, Note Name: C#2, Velocity: 23
Note OFF: Time 404860, Note Name: C#2
Note ON: Time 404880, Note Name: C#2, Velocity: 20
Note OFF: Time 405100, Note Name: C#2
Note ON: Time 405120, Note Name: C#2, Velocity: 22
Note OFF: Time 405340, Note Name: C#2
Note ON: Time 405360, Note Name: C#2, Velocity: 23
Note OFF: Time 405580, Note Name: C#2
Note ON: Time 405600, Note Name: C#2, Velocity: 20
Note OFF: Time 405820, Note Name: C#2
Note ON: Time 405840, Note Name: C#2, Velocity: 22
Note OFF: Time 406060, Note Name: C#2
Note ON: Time 406080, Note Name: C#2, Velocity: 23
Note OFF: Time 406300, Note Name: C#2
Note ON: Time 406320, Note Name: C#2, Velocity: 20
Note OFF: Time 406540, Note Name: C#2
Note ON: Time 406560, Note Name: C#2, Velocity: 22
Note OFF: Time 406780, Note Name: C#2
Note ON: Time 406800, Note Name: C#2, Velocity: 23
Note OFF: Time 407020, Note Name: C#2
Note ON: Time 407040, Note Name: C#2, Velocity: 20
Note OFF: Time 407260, Note Name: C#2
Note ON: Time 407280, Note Name: C#2, Velocity: 22
Note OFF: Time 407500, Note Name: C#2
Note ON: Time 407520, Note Name: C#2, Velocity: 23
Note OFF: Time 407740, Note Name: C#2
Note ON: Time 407760, Note Name: C#2, Velocity: 20
Note OFF: Time 407980, Note Name: C#2
Note ON: Time 408000, Note Name: C#2, Velocity: 22
Note OFF: Time 408220, Note Name: C#2
Note ON: Time 408240, Note Name: C#2, Velocity: 23
Note OFF: Time 408460, Note Name: C#2
Note ON: Time 408480, Note Name: C#2, Velocity: 20
Note OFF: Time 408700, Note Name: C#2
Note ON: Time 408720, Note Name: C#2, Velocity: 22
Note OFF: Time 408940, Note Name: C#2
Note ON: Time 408960, Note Name: C#2, Velocity: 23
Note OFF: Time 409180, Note Name: C#2
Note ON: Time 409200, Note Name: C#2, Velocity: 20
Note OFF: Time 409420, Note Name: C#2
Note ON: Time 409440, Note Name: C#2, Velocity: 22
Note OFF: Time 409660, Note Name: C#2
Note ON: Time 409680, Note Name: C#2, Velocity: 23
Note OFF: Time 409900, Note Name: C#2
Note ON: Time 409920, Note Name: C#2, Velocity: 20
Note OFF: Time 410140, Note Name: C#2
Note ON: Time 410160, Note Name: C#2, Velocity: 22
Note OFF: Time 410380, Note Name: C#2
Note ON: Time 410400, Note Name: C#2, Velocity: 23
Note OFF: Time 410620, Note Name: C#2
Note ON: Time 410640, Note Name: C#2, Velocity: 20
Note OFF: Time 410860, Note Name: C#2
Note ON: Time 410880, Note Name: C#2, Velocity: 22
Note OFF: Time 411100, Note Name: C#2
Note ON: Time 411120, Note Name: C#2, Velocity: 23
Note OFF: Time 411340, Note Name: C#2
Note ON: Time 411360, Note Name: C#2, Velocity: 20
Note OFF: Time 411580, Note Name: C#2
Note ON: Time 411600, Note Name: C#2, Velocity: 22
Note OFF: Time 411820, Note Name: C#2
Note ON: Time 411840, Note Name: C#2, Velocity: 23
Note OFF: Time 412060, Note Name: C#2
Note ON: Time 412080, Note Name: F2, Velocity: 20
Note ON: Time 412080, Note Name: B1, Velocity: 15
Note OFF: Time 412300, Note Name: B1
Note OFF: Time 412300, Note Name: F2
Note ON: Time 412320, Note Name: F2, Velocity: 22
Note ON: Time 412320, Note Name: B1, Velocity: 16
Note OFF: Time 412540, Note Name: B1
Note OFF: Time 412540, Note Name: F2
Note ON: Time 412560, Note Name: F2, Velocity: 23
Note ON: Time 412560, Note Name: B1, Velocity: 17
Note OFF: Time 412780, Note Name: B1
Note OFF: Time 412780, Note Name: F2
Note ON: Time 412800, Note Name: F2, Velocity: 20
Note ON: Time 412800, Note Name: B1, Velocity: 15
Note OFF: Time 413020, Note Name: B1
Note OFF: Time 413020, Note Name: F2
Note ON: Time 413040, Note Name: F2, Velocity: 22
Note ON: Time 413040, Note Name: B1, Velocity: 16
Note OFF: Time 413260, Note Name: B1
Note OFF: Time 413260, Note Name: F2
Note ON: Time 413280, Note Name: F2, Velocity: 23
Note ON: Time 413280, Note Name: B1, Velocity: 17
Note OFF: Time 413500, Note Name: B1
Note OFF: Time 413500, Note Name: F2
Note ON: Time 413520, Note Name: B1, Velocity: 15
Note ON: Time 413520, Note Name: F2, Velocity: 20
Note OFF: Time 413740, Note Name: F2
Note OFF: Time 413740, Note Name: B1
Note ON: Time 413760, Note Name: B1, Velocity: 16
Note ON: Time 413760, Note Name: F2, Velocity: 22
Note OFF: Time 413980, Note Name: F2
Note OFF: Time 413980, Note Name: B1
Note ON: Time 414000, Note Name: B1, Velocity: 17
Note ON: Time 414000, Note Name: F2, Velocity: 23
Note OFF: Time 414220, Note Name: F2
Note OFF: Time 414220, Note Name: B1
Note ON: Time 414240, Note Name: B1, Velocity: 15
Note ON: Time 414240, Note Name: F2, Velocity: 20
Note OFF: Time 414460, Note Name: F2
Note OFF: Time 414460, Note Name: B1
Note ON: Time 414480, Note Name: B1, Velocity: 16
Note ON: Time 414480, Note Name: F2, Velocity: 22
Note OFF: Time 414700, Note Name: F2
Note OFF: Time 414700, Note Name: B1
Note ON: Time 414720, Note Name: E2, Velocity: 26
Note ON: Time 414960, Note Name: C2, Velocity: 20
Note OFF: Time 415180, Note Name: C2
Note ON: Time 415200, Note Name: C2, Velocity: 22
Note OFF: Time 415420, Note Name: C2
Note ON: Time 415440, Note Name: C2, Velocity: 23
Note OFF: Time 415660, Note Name: C2
Note ON: Time 415680, Note Name: C2, Velocity: 20
Note OFF: Time 415900, Note Name: C2
Note ON: Time 415920, Note Name: C2, Velocity: 22
Note OFF: Time 416140, Note Name: C2
Note OFF: Time 416160, Note Name: E2
Note ON: Time 416160, Note Name: F2, Velocity: 26
Note ON: Time 416400, Note Name: C2, Velocity: 20
Note OFF: Time 416620, Note Name: C2
Note ON: Time 416640, Note Name: C2, Velocity: 22
Note OFF: Time 416860, Note Name: C2
Note ON: Time 416880, Note Name: C2, Velocity: 23
Note OFF: Time 417100, Note Name: C2
Note ON: Time 417120, Note Name: C2, Velocity: 20
Note OFF: Time 417340, Note Name: C2
Note ON: Time 417360, Note Name: C2, Velocity: 22
Note OFF: Time 417580, Note Name: C2
Note OFF: Time 417600, Note Name: F2
Note ON: Time 417600, Note Name: E2, Velocity: 26
Note OFF: Time 417820, Note Name: E2
Note ON: Time 417840, Note Name: C2, Velocity: 20
Note OFF: Time 418060, Note Name: C2
Note ON: Time 418080, Note Name: C2, Velocity: 22
Note OFF: Time 418300, Note Name: C2
Note ON: Time 418320, Note Name: C#3, Velocity: 27
Note ON: Time 418320, Note Name: C2, Velocity: 23
Note OFF: Time 418540, Note Name: C2
Note OFF: Time 418540, Note Name: C#3
Note ON: Time 418560, Note Name: C2, Velocity: 20
Note ON: Time 418560, Note Name: C#3, Velocity: 26
Note OFF: Time 418780, Note Name: C#3
Note OFF: Time 418780, Note Name: C2
Note ON: Time 418800, Note Name: C#3, Velocity: 26
Note ON: Time 418800, Note Name: C2, Velocity: 22
Note OFF: Time 419020, Note Name: C2
Note OFF: Time 419020, Note Name: C#3
Note ON: Time 419040, Note Name: C3, Velocity: 26
Note ON: Time 419040, Note Name: C2, Velocity: 26
Note OFF: Time 419260, Note Name: C2
Note ON: Time 419280, Note Name: C2, Velocity: 20
Note OFF: Time 419500, Note Name: C2
Note OFF: Time 419520, Note Name: C3
Note ON: Time 419520, Note Name: C2, Velocity: 22
Note OFF: Time 419740, Note Name: C2
Note ON: Time 419760, Note Name: C2, Velocity: 23
Note OFF: Time 419980, Note Name: C2
Note ON: Time 420000, Note Name: C2, Velocity: 20
Note OFF: Time 420220, Note Name: C2
Note ON: Time 420240, Note Name: C2, Velocity: 22
Note OFF: Time 420460, Note Name: C2
Note ON: Time 420480, Note Name: G2, Velocity: 26
Note ON: Time 420720, Note Name: C2, Velocity: 20
Note OFF: Time 420940, Note Name: C2
Note ON: Time 420960, Note Name: C2, Velocity: 22
Note OFF: Time 421180, Note Name: C2
Note ON: Time 421200, Note Name: C2, Velocity: 23
Note OFF: Time 421420, Note Name: C2
Note ON: Time 421440, Note Name: C2, Velocity: 20
Note OFF: Time 421660, Note Name: C2
Note ON: Time 421680, Note Name: C2, Velocity: 22
Note OFF: Time 421900, Note Name: C2
Note OFF: Time 421920, Note Name: G2
Note ON: Time 421920, Note Name: G#2, Velocity: 26
Note ON: Time 422160, Note Name: C2, Velocity: 20
Note OFF: Time 422380, Note Name: C2
Note ON: Time 422400, Note Name: C2, Velocity: 22
Note OFF: Time 422620, Note Name: C2
Note ON: Time 422640, Note Name: C2, Velocity: 23
Note OFF: Time 422860, Note Name: C2
Note ON: Time 422880, Note Name: C2, Velocity: 20
Note OFF: Time 423100, Note Name: C2
Note ON: Time 423120, Note Name: C2, Velocity: 22
Note OFF: Time 423340, Note Name: C2
Note OFF: Time 423360, Note Name: G#2
Note ON: Time 423360, Note Name: G2, Velocity: 26
Note OFF: Time 423580, Note Name: G2
Note ON: Time 423600, Note Name: C2, Velocity: 20
Note OFF: Time 423820, Note Name: C2
Note ON: Time 423840, Note Name: C2, Velocity: 22
Note OFF: Time 424060, Note Name: C2
Note ON: Time 424080, Note Name: C2, Velocity: 23
Note ON: Time 424080, Note Name: C#3, Velocity: 27
Note OFF: Time 424300, Note Name: C#3
Note OFF: Time 424300, Note Name: C2
Note ON: Time 424320, Note Name: C#3, Velocity: 26
Note ON: Time 424320, Note Name: C2, Velocity: 20
Note OFF: Time 424540, Note Name: C2
Note OFF: Time 424540, Note Name: C#3
Note ON: Time 424560, Note Name: C#3, Velocity: 26
Note ON: Time 424560, Note Name: C2, Velocity: 22
Note OFF: Time 424780, Note Name: C2
Note OFF: Time 424780, Note Name: C#3
Note ON: Time 424800, Note Name: C3, Velocity: 26
Note ON: Time 424800, Note Name: C2, Velocity: 26
Note OFF: Time 425020, Note Name: C2
Note ON: Time 425040, Note Name: C2, Velocity: 20
Note OFF: Time 425260, Note Name: C2
Note OFF: Time 425280, Note Name: C3
Note ON: Time 425280, Note Name: C2, Velocity: 22
Note OFF: Time 425500, Note Name: C2
Note ON: Time 425520, Note Name: C2, Velocity: 23
Note OFF: Time 425740, Note Name: C2
Note ON: Time 425760, Note Name: C2, Velocity: 20
Note OFF: Time 425980, Note Name: C2
Note ON: Time 426000, Note Name: C2, Velocity: 22
Note OFF: Time 426220, Note Name: C2
Note ON: Time 426240, Note Name: C2, Velocity: 26
Note OFF: Time 426460, Note Name: C2
Note ON: Time 426480, Note Name: C2, Velocity: 20
Note OFF: Time 426700, Note Name: C2
Note ON: Time 426720, Note Name: C2, Velocity: 22
Note OFF: Time 426940, Note Name: C2
Note ON: Time 426960, Note Name: C#3, Velocity: 27
Note ON: Time 426960, Note Name: C2, Velocity: 23
Note OFF: Time 427180, Note Name: C2
Note OFF: Time 427180, Note Name: C#3
Note ON: Time 427200, Note Name: C2, Velocity: 20
Note ON: Time 427200, Note Name: C#3, Velocity: 26
Note OFF: Time 427420, Note Name: C#3
Note OFF: Time 427420, Note Name: C2
Note ON: Time 427440, Note Name: C2, Velocity: 22
Note ON: Time 427440, Note Name: C#3, Velocity: 26
Note OFF: Time 427660, Note Name: C#3
Note OFF: Time 427660, Note Name: C2
Note ON: Time 427680, Note Name: C3, Velocity: 26
Note ON: Time 427680, Note Name: C2, Velocity: 26
Note OFF: Time 427900, Note Name: C2
Note ON: Time 427920, Note Name: C2, Velocity: 20
Note OFF: Time 428140, Note Name: C2
Note OFF: Time 428160, Note Name: C3
Note ON: Time 428160, Note Name: C2, Velocity: 22
Note OFF: Time 428380, Note Name: C2
Note ON: Time 428400, Note Name: C2, Velocity: 43
Note OFF: Time 428620, Note Name: C2
Note ON: Time 428640, Note Name: C2, Velocity: 38
Note OFF: Time 428860, Note Name: C2
Note ON: Time 428880, Note Name: C2, Velocity: 41
Note OFF: Time 429100, Note Name: C2
Note ON: Time 429120, Note Name: C2, Velocity: 50
Note OFF: Time 429340, Note Name: C2
Note ON: Time 429360, Note Name: C2, Velocity: 40
Note OFF: Time 429580, Note Name: C2
Note ON: Time 429600, Note Name: C2, Velocity: 43
Note OFF: Time 429820, Note Name: C2
Note ON: Time 429840, Note Name: C2, Velocity: 47
Note OFF: Time 430060, Note Name: C2
Note ON: Time 430080, Note Name: C2, Velocity: 43
Note OFF: Time 430300, Note Name: C2
Note ON: Time 430320, Note Name: C2, Velocity: 45
Note OFF: Time 430540, Note Name: C2
Note ON: Time 430560, Note Name: C2, Velocity: 55
Note OFF: Time 430780, Note Name: C2
Note ON: Time 430800, Note Name: C2, Velocity: 45
Note OFF: Time 431020, Note Name: C2
Note ON: Time 431040, Note Name: C2, Velocity: 48
Note OFF: Time 431260, Note Name: C2
Note ON: Time 431280, Note Name: C2, Velocity: 52
Note OFF: Time 431500, Note Name: C2
Note ON: Time 431520, Note Name: C2, Velocity: 47
Note OFF: Time 431740, Note Name: C2
Note ON: Time 431760, Note Name: G3, Velocity: 75
Note ON: Time 431760, Note Name: C2, Velocity: 50
Note OFF: Time 431880, Note Name: G3
Note ON: Time 431880, Note Name: A#3, Velocity: 63
Note OFF: Time 431980, Note Name: C2
Note OFF: Time 432000, Note Name: A#3
Note ON: Time 432000, Note Name: C2, Velocity: 61
Note ON: Time 432000, Note Name: E3, Velocity: 76
Note OFF: Time 432120, Note Name: E3
Note ON: Time 432120, Note Name: G3, Velocity: 65
Note OFF: Time 432220, Note Name: C2
Note OFF: Time 432240, Note Name: G3
Note ON: Time 432240, Note Name: C2, Velocity: 49
Note ON: Time 432240, Note Name: A#2, Velocity: 77
Note OFF: Time 432360, Note Name: A#2
Note ON: Time 432360, Note Name: E3, Velocity: 62
Note OFF: Time 432460, Note Name: C2
Note OFF: Time 432480, Note Name: E3
Note ON: Time 432480, Note Name: G2, Velocity: 76
Note ON: Time 432480, Note Name: C2, Velocity: 52
Note OFF: Time 432600, Note Name: G2
Note ON: Time 432600, Note Name: A#2, Velocity: 69
Note OFF: Time 432700, Note Name: C2
Note OFF: Time 432720, Note Name: A#2
Note ON: Time 432720, Note Name: C2, Velocity: 57
Note ON: Time 432720, Note Name: C#3, Velocity: 80
Note OFF: Time 432840, Note Name: C#3
Note ON: Time 432840, Note Name: A#2, Velocity: 70
Note OFF: Time 432940, Note Name: C2
Note OFF: Time 432960, Note Name: A#2
Note ON: Time 432960, Note Name: E3, Velocity: 81
Note ON: Time 432960, Note Name: C2, Velocity: 51
Note OFF: Time 433080, Note Name: E3
Note ON: Time 433080, Note Name: C#3, Velocity: 71
Note OFF: Time 433180, Note Name: C2
Note OFF: Time 433200, Note Name: C#3
Note ON: Time 433200, Note Name: C2, Velocity: 54
Note ON: Time 433200, Note Name: G3, Velocity: 86
Note OFF: Time 433320, Note Name: G3
Note ON: Time 433320, Note Name: E3, Velocity: 78
Note OFF: Time 433420, Note Name: C2
Note OFF: Time 433440, Note Name: E3
Note ON: Time 433440, Note Name: A#3, Velocity: 94
Note ON: Time 433440, Note Name: G2, Velocity: 66
Note ON: Time 433440, Note Name: G1, Velocity: 61
Note OFF: Time 433680, Note Name: G1
Note OFF: Time 433680, Note Name: G2
Note OFF: Time 433680, Note Name: A#3
Note ON: Time 433680, Note Name: C2, Velocity: 58
Note OFF: Time 433920, Note Name: C2
Note ON: Time 433920, Note Name: C2, Velocity: 57
Note OFF: Time 434160, Note Name: C2
Note ON: Time 434160, Note Name: C#3, Velocity: 93
Note ON: Time 434160, Note Name: C#4, Velocity: 93
Note ON: Time 434160, Note Name: G#3, Velocity: 93
Note ON: Time 434160, Note Name: F2, Velocity: 68
Note ON: Time 434160, Note Name: F1, Velocity: 62
Note OFF: Time 434400, Note Name: F1
Note OFF: Time 434400, Note Name: G#3
Note OFF: Time 434400, Note Name: C#3
Note OFF: Time 434400, Note Name: C#4
Note OFF: Time 434400, Note Name: F2
Note ON: Time 434400, Note Name: C2, Velocity: 78
Note OFF: Time 434640, Note Name: C2
Note ON: Time 434640, Note Name: C2, Velocity: 66
Note OFF: Time 434880, Note Name: C2
Note ON: Time 434880, Note Name: E3, Velocity: 48
Note ON: Time 434880, Note Name: C2, Velocity: 40
Note ON: Time 434880, Note Name: C4, Velocity: 48
Note ON: Time 434880, Note Name: E2, Velocity: 40
Note ON: Time 434880, Note Name: G3, Velocity: 48
Note OFF: Time 436980, Note Name: G3
Note OFF: Time 436980, Note Name: C4
Note OFF: Time 436980, Note Name: E3
Note OFF: Time 436980, Note Name: C2
Note OFF: Time 436980, Note Name: E2
Note ON: Time 437040, Note Name: C2, Velocity: 27
Note OFF: Time 437640, Note Name: C2
Note ON: Time 437640, Note Name: A1, Velocity: 25
Note OFF: Time 437760, Note Name: A1
Note ON: Time 437760, Note Name: F1, Velocity: 81
Note OFF: Time 438000, Note Name: F1
Note ON: Time 438240, Note Name: A1, Velocity: 61
Note ON: Time 438240, Note Name: F1, Velocity: 61
Note ON: Time 438240, Note Name: F2, Velocity: 81
Note ON: Time 438240, Note Name: C2, Velocity: 69
Note OFF: Time 438715, Note Name: C2
Note OFF: Time 438715, Note Name: A1
Note OFF: Time 438715, Note Name: F1
Note OFF: Time 438715, Note Name: F2
Note ON: Time 438720, Note Name: A1, Velocity: 57
Note ON: Time 438720, Note Name: C2, Velocity: 64
Note ON: Time 438720, Note Name: F2, Velocity: 76
Note ON: Time 438720, Note Name: F1, Velocity: 57
Note OFF: Time 439195, Note Name: F1
Note OFF: Time 439195, Note Name: A1
Note OFF: Time 439195, Note Name: C2
Note OFF: Time 439195, Note Name: F2
Note ON: Time 439200, Note Name: A1, Velocity: 55
Note ON: Time 439200, Note Name: F1, Velocity: 55
Note ON: Time 439200, Note Name: F2, Velocity: 73
Note ON: Time 439200, Note Name: C2, Velocity: 63
Note OFF: Time 439675, Note Name: C2
Note OFF: Time 439675, Note Name: A1
Note OFF: Time 439675, Note Name: F1
Note OFF: Time 439675, Note Name: F2
Note ON: Time 439680, Note Name: A1, Velocity: 61
Note ON: Time 439680, Note Name: C2, Velocity: 69
Note ON: Time 439680, Note Name: F2, Velocity: 81
Note ON: Time 439680, Note Name: F1, Velocity: 61
Note OFF: Time 440155, Note Name: F1
Note OFF: Time 440155, Note Name: A1
Note OFF: Time 440155, Note Name: C2
Note OFF: Time 440155, Note Name: F2
Note ON: Time 440160, Note Name: A1, Velocity: 55
Note ON: Time 440160, Note Name: F1, Velocity: 55
Note ON: Time 440160, Note Name: F2, Velocity: 73
Note ON: Time 440160, Note Name: C2, Velocity: 63
Note OFF: Time 440635, Note Name: C2
Note OFF: Time 440635, Note Name: A1
Note OFF: Time 440635, Note Name: F1
Note OFF: Time 440635, Note Name: F2
Note ON: Time 440640, Note Name: F1, Velocity: 61
Note ON: Time 440640, Note Name: A1, Velocity: 61
Note ON: Time 440640, Note Name: C2, Velocity: 69
Note ON: Time 440640, Note Name: F2, Velocity: 81
Note OFF: Time 442800, Note Name: F2
Note OFF: Time 442800, Note Name: F1
Note OFF: Time 442800, Note Name: A1
Note OFF: Time 442800, Note Name: C2
Note ON: Time 442800, Note Name: A1, Velocity: 33
Note OFF: Time 443400, Note Name: A1
Note ON: Time 443400, Note Name: C2, Velocity: 28
Note OFF: Time 443520, Note Name: C2
Note ON: Time 443520, Note Name: F2, Velocity: 34
Note OFF: Time 444240, Note Name: F2
Note ON: Time 444240, Note Name: A2, Velocity: 34
Note OFF: Time 444840, Note Name: A2
Note ON: Time 444840, Note Name: C3, Velocity: 29
Note OFF: Time 444960, Note Name: C3
Note ON: Time 444960, Note Name: F3, Velocity: 34
Note OFF: Time 445675, Note Name: F3
Note ON: Time 445680, Note Name: F2, Velocity: 31
Note OFF: Time 446400, Note Name: F2
Note ON: Time 446400, Note Name: E3, Velocity: 81
Note ON: Time 446400, Note Name: G3, Velocity: 81
Note OFF: Time 446638, Note Name: G3
Note OFF: Time 446638, Note Name: E3
Note ON: Time 446640, Note Name: G3, Velocity: 75
Note ON: Time 446880, Note Name: E2, Velocity: 61
Note ON: Time 446880, Note Name: C3, Velocity: 81
Note ON: Time 446880, Note Name: G2, Velocity: 69
Note OFF: Time 447115, Note Name: G3
Note OFF: Time 447355, Note Name: E2
Note OFF: Time 447355, Note Name: C3
Note OFF: Time 447355, Note Name: G2
Note ON: Time 447360, Note Name: G2, Velocity: 64
Note ON: Time 447360, Note Name: E2, Velocity: 57
Note ON: Time 447360, Note Name: C3, Velocity: 76
Note OFF: Time 447835, Note Name: C3
Note OFF: Time 447835, Note Name: E2
Note OFF: Time 447835, Note Name: G2
Note ON: Time 447840, Note Name: E2, Velocity: 55
Note ON: Time 447840, Note Name: C3, Velocity: 73
Note ON: Time 447840, Note Name: G2, Velocity: 63
Note OFF: Time 448315, Note Name: G2
Note OFF: Time 448315, Note Name: C3
Note OFF: Time 448315, Note Name: E2
Note ON: Time 448320, Note Name: G2, Velocity: 69
Note ON: Time 448320, Note Name: C3, Velocity: 81
Note ON: Time 448320, Note Name: E2, Velocity: 61
Note OFF: Time 448795, Note Name: E2
Note OFF: Time 448795, Note Name: C3
Note OFF: Time 448795, Note Name: G2
Note ON: Time 448800, Note Name: E2, Velocity: 55
Note ON: Time 448800, Note Name: C3, Velocity: 73
Note ON: Time 448800, Note Name: G2, Velocity: 63
Note OFF: Time 449275, Note Name: G2
Note OFF: Time 449275, Note Name: C3
Note OFF: Time 449275, Note Name: E2
Note ON: Time 449280, Note Name: E4, Velocity: 30
Note ON: Time 449280, Note Name: G4, Velocity: 30
Note OFF: Time 450720, Note Name: G4
Note OFF: Time 450720, Note Name: E4
Note ON: Time 450720, Note Name: F4, Velocity: 30
Note ON: Time 450720, Note Name: B4, Velocity: 30
Note ON: Time 450720, Note Name: G#4, Velocity: 30
Note OFF: Time 452160, Note Name: G#4
Note OFF: Time 452160, Note Name: B4
Note OFF: Time 452160, Note Name: F4
Note ON: Time 452160, Note Name: G3, Velocity: 81
Note ON: Time 452160, Note Name: E3, Velocity: 81
Note OFF: Time 452398, Note Name: E3
Note OFF: Time 452398, Note Name: G3
Note ON: Time 452400, Note Name: G3, Velocity: 75
Note ON: Time 452640, Note Name: G2, Velocity: 69
Note ON: Time 452640, Note Name: E2, Velocity: 61
Note ON: Time 452640, Note Name: C3, Velocity: 81
Note OFF: Time 452875, Note Name: G3
Note OFF: Time 453115, Note Name: G2
Note OFF: Time 453115, Note Name: E2
Note OFF: Time 453115, Note Name: C3
Note ON: Time 453120, Note Name: E2, Velocity: 57
Note ON: Time 453120, Note Name: C3, Velocity: 76
Note ON: Time 453120, Note Name: G2, Velocity: 64
Note OFF: Time 453595, Note Name: G2
Note OFF: Time 453595, Note Name: C3
Note OFF: Time 453595, Note Name: E2
Note ON: Time 453600, Note Name: G2, Velocity: 63
Note ON: Time 453600, Note Name: C3, Velocity: 73
Note ON: Time 453600, Note Name: E2, Velocity: 55
Note OFF: Time 454075, Note Name: E2
Note OFF: Time 454075, Note Name: C3
Note OFF: Time 454075, Note Name: G2
Note ON: Time 454080, Note Name: E2, Velocity: 61
Note ON: Time 454080, Note Name: C3, Velocity: 81
Note ON: Time 454080, Note Name: G2, Velocity: 69
Note OFF: Time 454555, Note Name: G2
Note OFF: Time 454555, Note Name: C3
Note OFF: Time 454555, Note Name: E2
Note ON: Time 454560, Note Name: G2, Velocity: 63
Note ON: Time 454560, Note Name: C3, Velocity: 73
Note ON: Time 454560, Note Name: E2, Velocity: 55
Note OFF: Time 455035, Note Name: E2
Note OFF: Time 455035, Note Name: C3
Note OFF: Time 455035, Note Name: G2
Note ON: Time 455040, Note Name: G4, Velocity: 30
Note ON: Time 455040, Note Name: E4, Velocity: 30
Note OFF: Time 456480, Note Name: E4
Note OFF: Time 456480, Note Name: G4
Note ON: Time 456480, Note Name: G#4, Velocity: 29
Note ON: Time 456480, Note Name: F4, Velocity: 30
Note OFF: Time 457920, Note Name: F4
Note OFF: Time 457920, Note Name: G#4
Note ON: Time 458400, Note Name: G2, Velocity: 61
Note ON: Time 458400, Note Name: E3, Velocity: 81
Note ON: Time 458400, Note Name: A#2, Velocity: 69
Note OFF: Time 458875, Note Name: A#2
Note OFF: Time 458875, Note Name: E3
Note OFF: Time 458875, Note Name: G2
Note ON: Time 458880, Note Name: A#2, Velocity: 64
Note ON: Time 458880, Note Name: G2, Velocity: 57
Note ON: Time 458880, Note Name: E3, Velocity: 76
Note OFF: Time 459355, Note Name: E3
Note OFF: Time 459355, Note Name: G2
Note OFF: Time 459355, Note Name: A#2
Note ON: Time 459360, Note Name: G2, Velocity: 55
Note ON: Time 459360, Note Name: E3, Velocity: 73
Note ON: Time 459360, Note Name: A#2, Velocity: 63
Note OFF: Time 459835, Note Name: A#2
Note OFF: Time 459835, Note Name: E3
Note OFF: Time 459835, Note Name: G2
Note ON: Time 459840, Note Name: A#2, Velocity: 69
Note ON: Time 459840, Note Name: E3, Velocity: 81
Note ON: Time 459840, Note Name: G2, Velocity: 61
Note OFF: Time 460315, Note Name: G2
Note OFF: Time 460315, Note Name: E3
Note OFF: Time 460315, Note Name: A#2
Note ON: Time 460320, Note Name: G2, Velocity: 55
Note ON: Time 460320, Note Name: E3, Velocity: 73
Note ON: Time 460320, Note Name: A#2, Velocity: 63
Note OFF: Time 460795, Note Name: A#2
Note OFF: Time 460795, Note Name: E3
Note OFF: Time 460795, Note Name: G2
Note ON: Time 460800, Note Name: G4, Velocity: 36
Note ON: Time 460800, Note Name: A#4, Velocity: 36
Note OFF: Time 462240, Note Name: A#4
Note OFF: Time 462240, Note Name: G4
Note ON: Time 462240, Note Name: G#4, Velocity: 36
Note ON: Time 462240, Note Name: C5, Velocity: 36
Note OFF: Time 463680, Note Name: C5
Note OFF: Time 463680, Note Name: G#4
Note ON: Time 464160, Note Name: A#2, Velocity: 61
Note ON: Time 464160, Note Name: E3, Velocity: 69
Note ON: Time 464160, Note Name: G3, Velocity: 81
Note ON: Time 464160, Note Name: C#3, Velocity: 61
Note OFF: Time 464635, Note Name: C#3
Note OFF: Time 464635, Note Name: A#2
Note OFF: Time 464635, Note Name: E3
Note OFF: Time 464635, Note Name: G3
Note ON: Time 464640, Note Name: A#3, Velocity: 57
Note ON: Time 464640, Note Name: E4, Velocity: 64
Note ON: Time 464640, Note Name: C#4, Velocity: 57
Note ON: Time 464640, Note Name: G4, Velocity: 76
Note OFF: Time 465115, Note Name: G4
Note OFF: Time 465115, Note Name: A#3
Note OFF: Time 465115, Note Name: E4
Note OFF: Time 465115, Note Name: C#4
Note ON: Time 465120, Note Name: A#3, Velocity: 55
Note ON: Time 465120, Note Name: E4, Velocity: 63
Note ON: Time 465120, Note Name: G4, Velocity: 73
Note ON: Time 465120, Note Name: C#4, Velocity: 55
Note OFF: Time 465595, Note Name: C#4
Note OFF: Time 465595, Note Name: A#3
Note OFF: Time 465595, Note Name: E4
Note OFF: Time 465595, Note Name: G4
Note ON: Time 465600, Note Name: C#4, Velocity: 61
Note ON: Time 465600, Note Name: E4, Velocity: 69
Note ON: Time 465600, Note Name: G4, Velocity: 81
Note ON: Time 465600, Note Name: A#3, Velocity: 61
Note OFF: Time 466075, Note Name: A#3
Note OFF: Time 466075, Note Name: C#4
Note OFF: Time 466075, Note Name: E4
Note OFF: Time 466075, Note Name: G4
Note ON: Time 466080, Note Name: C#4, Velocity: 55
Note ON: Time 466080, Note Name: A#3, Velocity: 55
Note ON: Time 466080, Note Name: G4, Velocity: 73
Note ON: Time 466080, Note Name: E4, Velocity: 63
Note OFF: Time 466555, Note Name: E4
Note OFF: Time 466555, Note Name: C#4
Note OFF: Time 466555, Note Name: A#3
Note OFF: Time 466555, Note Name: G4
Note ON: Time 466560, Note Name: A#4, Velocity: 59
Note ON: Time 466560, Note Name: C#5, Velocity: 59
Note OFF: Time 468000, Note Name: C#5
Note OFF: Time 468000, Note Name: A#4
Note ON: Time 468000, Note Name: B4, Velocity: 59
Note ON: Time 468000, Note Name: D5, Velocity: 59
Note OFF: Time 469440, Note Name: D5
Note OFF: Time 469440, Note Name: B4
Note ON: Time 469440, Note Name: C4, Velocity: 39
Note OFF: Time 469680, Note Name: C4
Note ON: Time 469680, Note Name: C5, Velocity: 36
Note OFF: Time 469900, Note Name: C5
Note ON: Time 469920, Note Name: C5, Velocity: 36
Note OFF: Time 470140, Note Name: C5
Note ON: Time 470160, Note Name: C5, Velocity: 39
Note OFF: Time 470380, Note Name: C5
Note ON: Time 470400, Note Name: C5, Velocity: 37
Note OFF: Time 470620, Note Name: C5
Note ON: Time 470640, Note Name: C5, Velocity: 36
Note OFF: Time 470860, Note Name: C5
Note ON: Time 470880, Note Name: C5, Velocity: 39
Note OFF: Time 471100, Note Name: C5
Note ON: Time 471120, Note Name: C5, Velocity: 35
Note OFF: Time 471340, Note Name: C5
Note ON: Time 471360, Note Name: C5, Velocity: 35
Note OFF: Time 471580, Note Name: C5
Note ON: Time 471600, Note Name: C5, Velocity: 39
Note OFF: Time 471820, Note Name: C5
Note ON: Time 471840, Note Name: C5, Velocity: 36
Note OFF: Time 472060, Note Name: C5
Note ON: Time 472080, Note Name: C5, Velocity: 36
Note OFF: Time 472300, Note Name: C5
Note ON: Time 472560, Note Name: C5, Velocity: 38
Note OFF: Time 472780, Note Name: C5
Note ON: Time 472800, Note Name: C5, Velocity: 38
Note OFF: Time 473020, Note Name: C5
Note ON: Time 473040, Note Name: G#4, Velocity: 39
Note ON: Time 473040, Note Name: F4, Velocity: 39
Note OFF: Time 473280, Note Name: F4
Note OFF: Time 473280, Note Name: G#4
Note ON: Time 473280, Note Name: C5, Velocity: 37
Note OFF: Time 473500, Note Name: C5
Note ON: Time 473520, Note Name: C5, Velocity: 37
Note OFF: Time 473740, Note Name: C5
Note ON: Time 473760, Note Name: C5, Velocity: 41
Note OFF: Time 473980, Note Name: C5
Note ON: Time 474000, Note Name: C5, Velocity: 37
Note OFF: Time 474220, Note Name: C5
Note ON: Time 474240, Note Name: C5, Velocity: 38
Note OFF: Time 474460, Note Name: C5
Note ON: Time 474480, Note Name: C5, Velocity: 46
Note OFF: Time 474700, Note Name: C5
Note ON: Time 474720, Note Name: C5, Velocity: 40
Note OFF: Time 474940, Note Name: C5
Note ON: Time 474960, Note Name: C5, Velocity: 40
Note OFF: Time 475180, Note Name: C5
Note ON: Time 475440, Note Name: C5, Velocity: 38
Note OFF: Time 475660, Note Name: C5
Note ON: Time 475680, Note Name: C5, Velocity: 38
Note OFF: Time 475900, Note Name: C5
Note ON: Time 475920, Note Name: G#4, Velocity: 40
Note ON: Time 475920, Note Name: F4, Velocity: 40
Note OFF: Time 476160, Note Name: F4
Note OFF: Time 476160, Note Name: G#4
Note ON: Time 476160, Note Name: C5, Velocity: 37
Note OFF: Time 476380, Note Name: C5
Note ON: Time 476400, Note Name: C5, Velocity: 37
Note OFF: Time 476620, Note Name: C5
Note ON: Time 476640, Note Name: F4, Velocity: 37
Note ON: Time 476640, Note Name: G#4, Velocity: 37
Note OFF: Time 476880, Note Name: G#4
Note OFF: Time 476880, Note Name: F4
Note ON: Time 476880, Note Name: C5, Velocity: 37
Note OFF: Time 477100, Note Name: C5
Note ON: Time 477120, Note Name: C5, Velocity: 37
Note OFF: Time 477340, Note Name: C5
Note ON: Time 477360, Note Name: F4, Velocity: 37
Note ON: Time 477360, Note Name: G#4, Velocity: 37
Note OFF: Time 477600, Note Name: G#4
Note OFF: Time 477600, Note Name: F4
Note ON: Time 477600, Note Name: C5, Velocity: 37
Note OFF: Time 477820, Note Name: C5
Note ON: Time 477840, Note Name: C5, Velocity: 37
Note OFF: Time 478060, Note Name: C5
Note ON: Time 478080, Note Name: E4, Velocity: 39
Note ON: Time 478080, Note Name: G4, Velocity: 39
Note OFF: Time 478320, Note Name: G4
Note OFF: Time 478320, Note Name: E4
Note ON: Time 478320, Note Name: C4, Velocity: 37
Note OFF: Time 478540, Note Name: C4
Note ON: Time 478560, Note Name: C4, Velocity: 37
Note OFF: Time 478780, Note Name: C4
Note ON: Time 478800, Note Name: C4, Velocity: 38
Note OFF: Time 479020, Note Name: C4
Note ON: Time 479040, Note Name: C4, Velocity: 37
Note OFF: Time 479260, Note Name: C4
Note ON: Time 479280, Note Name: C4, Velocity: 37
Note OFF: Time 479500, Note Name: C4
Note ON: Time 479520, Note Name: C4, Velocity: 37
Note OFF: Time 479740, Note Name: C4
Note ON: Time 479760, Note Name: C4, Velocity: 37
Note OFF: Time 479980, Note Name: C4
Note ON: Time 480000, Note Name: C4, Velocity: 37
Note OFF: Time 480220, Note Name: C4
Note ON: Time 480240, Note Name: C4, Velocity: 38
Note OFF: Time 480460, Note Name: C4
Note ON: Time 480480, Note Name: C4, Velocity: 37
Note OFF: Time 480700, Note Name: C4
Note ON: Time 480720, Note Name: C4, Velocity: 37
Note OFF: Time 480940, Note Name: C4
Note ON: Time 480960, Note Name: C4, Velocity: 39
Note OFF: Time 481180, Note Name: C4
Note ON: Time 481200, Note Name: C4, Velocity: 37
Note OFF: Time 481420, Note Name: C4
Note ON: Time 481440, Note Name: C4, Velocity: 37
Note OFF: Time 481660, Note Name: C4
Note ON: Time 481680, Note Name: C4, Velocity: 38
Note OFF: Time 481900, Note Name: C4
Note ON: Time 481920, Note Name: C4, Velocity: 37
Note OFF: Time 482140, Note Name: C4
Note ON: Time 482160, Note Name: C4, Velocity: 37
Note OFF: Time 482380, Note Name: C4
Note ON: Time 482400, Note Name: C4, Velocity: 38
Note OFF: Time 482620, Note Name: C4
Note ON: Time 482640, Note Name: C4, Velocity: 39
Note OFF: Time 482860, Note Name: C4
Note ON: Time 482880, Note Name: C4, Velocity: 37
Note OFF: Time 483100, Note Name: C4
Note ON: Time 483120, Note Name: G3, Velocity: 44
Note ON: Time 483120, Note Name: A#3, Velocity: 44
Note OFF: Time 483360, Note Name: A#3
Note OFF: Time 483360, Note Name: G3
Note ON: Time 483360, Note Name: C4, Velocity: 37
Note OFF: Time 483580, Note Name: C4
Note ON: Time 483600, Note Name: C4, Velocity: 37
Note OFF: Time 483820, Note Name: C4
Note ON: Time 483840, Note Name: C4, Velocity: 39
Note OFF: Time 484060, Note Name: C4
Note ON: Time 484080, Note Name: C4, Velocity: 37
Note OFF: Time 484300, Note Name: C4
Note ON: Time 484320, Note Name: C4, Velocity: 37
Note OFF: Time 484540, Note Name: C4
Note ON: Time 484560, Note Name: C4, Velocity: 37
Note OFF: Time 484780, Note Name: C4
Note ON: Time 484800, Note Name: C4, Velocity: 37
Note OFF: Time 485020, Note Name: C4
Note ON: Time 485040, Note Name: C4, Velocity: 37
Note OFF: Time 485260, Note Name: C4
Note ON: Time 485280, Note Name: C4, Velocity: 38
Note OFF: Time 485500, Note Name: C4
Note ON: Time 485520, Note Name: C4, Velocity: 37
Note OFF: Time 485740, Note Name: C4
Note ON: Time 485760, Note Name: C4, Velocity: 37
Note OFF: Time 485980, Note Name: C4
Note ON: Time 486000, Note Name: G#3, Velocity: 48
Note ON: Time 486000, Note Name: F3, Velocity: 44
Note OFF: Time 486240, Note Name: F3
Note OFF: Time 486240, Note Name: G#3
Note ON: Time 486240, Note Name: C4, Velocity: 37
Note OFF: Time 486460, Note Name: C4
Note ON: Time 486480, Note Name: C4, Velocity: 37
Note OFF: Time 486700, Note Name: C4
Note ON: Time 486960, Note Name: C4, Velocity: 38
Note OFF: Time 487180, Note Name: C4
Note ON: Time 487200, Note Name: C4, Velocity: 38
Note OFF: Time 487420, Note Name: C4
Note ON: Time 487440, Note Name: F3, Velocity: 40
Note ON: Time 487440, Note Name: G#3, Velocity: 40
Note OFF: Time 487680, Note Name: G#3
Note OFF: Time 487680, Note Name: F3
Note ON: Time 487680, Note Name: C4, Velocity: 37
Note OFF: Time 487900, Note Name: C4
Note ON: Time 487920, Note Name: C4, Velocity: 37
Note OFF: Time 488140, Note Name: C4
Note ON: Time 488160, Note Name: G#3, Velocity: 37
Note ON: Time 488160, Note Name: F3, Velocity: 37
Note OFF: Time 488400, Note Name: F3
Note OFF: Time 488400, Note Name: G#3
Note ON: Time 488400, Note Name: C4, Velocity: 37
Note OFF: Time 488620, Note Name: C4
Note ON: Time 488640, Note Name: C4, Velocity: 37
Note OFF: Time 488860, Note Name: C4
Note ON: Time 488880, Note Name: G#3, Velocity: 36
Note ON: Time 488880, Note Name: F3, Velocity: 36
Note OFF: Time 489120, Note Name: F3
Note OFF: Time 489120, Note Name: G#3
Note ON: Time 489120, Note Name: C4, Velocity: 37
Note OFF: Time 489340, Note Name: C4
Note ON: Time 489360, Note Name: C4, Velocity: 37
Note OFF: Time 489580, Note Name: C4
Note ON: Time 489840, Note Name: C4, Velocity: 38
Note OFF: Time 490060, Note Name: C4
Note ON: Time 490080, Note Name: C4, Velocity: 38
Note OFF: Time 490300, Note Name: C4
Note ON: Time 490320, Note Name: E3, Velocity: 40
Note ON: Time 490320, Note Name: G3, Velocity: 40
Note OFF: Time 490560, Note Name: G3
Note OFF: Time 490560, Note Name: E3
Note ON: Time 490560, Note Name: C4, Velocity: 37
Note OFF: Time 490780, Note Name: C4
Note ON: Time 490800, Note Name: C4, Velocity: 37
Note OFF: Time 491020, Note Name: C4
Note ON: Time 491280, Note Name: C4, Velocity: 37
Note OFF: Time 491500, Note Name: C4
Note ON: Time 491520, Note Name: C4, Velocity: 37
Note OFF: Time 491740, Note Name: C4
Note ON: Time 491760, Note Name: F#3, Velocity: 36
Note ON: Time 491760, Note Name: D#3, Velocity: 36
Note OFF: Time 492000, Note Name: D#3
Note OFF: Time 492000, Note Name: F#3
Note ON: Time 492000, Note Name: C4, Velocity: 37
Note OFF: Time 492220, Note Name: C4
Note ON: Time 492240, Note Name: C4, Velocity: 37
Note OFF: Time 492460, Note Name: C4
Note ON: Time 492720, Note Name: C4, Velocity: 37
Note OFF: Time 492940, Note Name: C4
Note ON: Time 492960, Note Name: C4, Velocity: 36
Note OFF: Time 493180, Note Name: C4
Note ON: Time 493200, Note Name: D3, Velocity: 38
Note ON: Time 493200, Note Name: F3, Velocity: 38
Note OFF: Time 493440, Note Name: F3
Note OFF: Time 493440, Note Name: D3
Note ON: Time 493440, Note Name: C4, Velocity: 34
Note OFF: Time 493660, Note Name: C4
Note ON: Time 493680, Note Name: C4, Velocity: 34
Note OFF: Time 493900, Note Name: C4
Note ON: Time 494160, Note Name: C4, Velocity: 32
Note OFF: Time 494380, Note Name: C4
Note ON: Time 494400, Note Name: C4, Velocity: 32
Note OFF: Time 494620, Note Name: C4
Note ON: Time 494640, Note Name: F3, Velocity: 30
Note ON: Time 494640, Note Name: C#3, Velocity: 30
Note OFF: Time 494880, Note Name: C#3
Note OFF: Time 494880, Note Name: F3
Note ON: Time 494880, Note Name: C4, Velocity: 31
Note OFF: Time 495100, Note Name: C4
Note ON: Time 495120, Note Name: C4, Velocity: 30
Note OFF: Time 495340, Note Name: C4
Note ON: Time 495600, Note Name: C3, Velocity: 25
Note OFF: Time 495820, Note Name: C3
Note ON: Time 495840, Note Name: C3, Velocity: 26
Note OFF: Time 496060, Note Name: C3
Note ON: Time 496080, Note Name: C3, Velocity: 28
Note OFF: Time 496300, Note Name: C3
Note ON: Time 496320, Note Name: C3, Velocity: 26
Note OFF: Time 496540, Note Name: C3
Note ON: Time 496560, Note Name: C3, Velocity: 26
Note OFF: Time 496780, Note Name: C3
Note ON: Time 496800, Note Name: C3, Velocity: 28
Note OFF: Time 497020, Note Name: C3
Note ON: Time 497040, Note Name: C3, Velocity: 26
Note OFF: Time 497260, Note Name: C3
Note ON: Time 497280, Note Name: C3, Velocity: 26
Note OFF: Time 497500, Note Name: C3
Note ON: Time 497520, Note Name: C3, Velocity: 28
Note OFF: Time 497740, Note Name: C3
Note ON: Time 497760, Note Name: C3, Velocity: 26
Note OFF: Time 497980, Note Name: C3
Note ON: Time 498000, Note Name: C3, Velocity: 27
Note OFF: Time 498220, Note Name: C3
Note ON: Time 498240, Note Name: G3, Velocity: 41
Note ON: Time 498240, Note Name: A#2, Velocity: 41
Note ON: Time 498240, Note Name: E3, Velocity: 41
Note ON: Time 498240, Note Name: C3, Velocity: 41
Note ON: Time 498480, Note Name: C2, Velocity: 25
Note OFF: Time 498720, Note Name: C2
Note ON: Time 498720, Note Name: C2, Velocity: 26
Note OFF: Time 498960, Note Name: C2
Note OFF: Time 498960, Note Name: C3
Note OFF: Time 498960, Note Name: G3
Note OFF: Time 498960, Note Name: A#2
Note OFF: Time 498960, Note Name: E3
Note ON: Time 498960, Note Name: C2, Velocity: 28
Note OFF: Time 499200, Note Name: C2
Note ON: Time 499200, Note Name: C2, Velocity: 26
Note OFF: Time 499440, Note Name: C2
Note ON: Time 499440, Note Name: C2, Velocity: 26
Note OFF: Time 499680, Note Name: C2
Note ON: Time 499680, Note Name: C2, Velocity: 28
Note OFF: Time 499920, Note Name: C2
Note ON: Time 499920, Note Name: C2, Velocity: 26
Note OFF: Time 500160, Note Name: C2
Note ON: Time 500160, Note Name: C2, Velocity: 26
Note OFF: Time 500400, Note Name: C2
Note ON: Time 500400, Note Name: C2, Velocity: 28
Note OFF: Time 500640, Note Name: C2
Note ON: Time 500640, Note Name: C2, Velocity: 26
Note OFF: Time 500880, Note Name: C2
Note ON: Time 500880, Note Name: C2, Velocity: 27
Note OFF: Time 501120, Note Name: C2
Note ON: Time 501120, Note Name: F1, Velocity: 28
Note OFF: Time 501360, Note Name: F1
Note ON: Time 501360, Note Name: A1, Velocity: 20
Note ON: Time 501360, Note Name: C2, Velocity: 20
Note ON: Time 501360, Note Name: F2, Velocity: 25
Note OFF: Time 501600, Note Name: F2
Note OFF: Time 501600, Note Name: C2
Note OFF: Time 501600, Note Name: A1
Note ON: Time 501600, Note Name: F1, Velocity: 26
Note OFF: Time 501840, Note Name: F1
Note ON: Time 501840, Note Name: A1, Velocity: 22
Note ON: Time 501840, Note Name: C2, Velocity: 22
Note ON: Time 501840, Note Name: F2, Velocity: 28
Note OFF: Time 502080, Note Name: F2
Note OFF: Time 502080, Note Name: C2
Note OFF: Time 502080, Note Name: A1
Note ON: Time 502080, Note Name: F1, Velocity: 26
Note OFF: Time 502320, Note Name: F1
Note ON: Time 502320, Note Name: A1, Velocity: 20
Note ON: Time 502320, Note Name: C2, Velocity: 20
Note ON: Time 502320, Note Name: F2, Velocity: 26
Note OFF: Time 502560, Note Name: F2
Note OFF: Time 502560, Note Name: C2
Note OFF: Time 502560, Note Name: A1
Note ON: Time 502560, Note Name: F1, Velocity: 28
Note OFF: Time 502800, Note Name: F1
Note ON: Time 502800, Note Name: A1, Velocity: 20
Note ON: Time 502800, Note Name: C2, Velocity: 20
Note ON: Time 502800, Note Name: F2, Velocity: 26
Note OFF: Time 503040, Note Name: F2
Note OFF: Time 503040, Note Name: C2
Note OFF: Time 503040, Note Name: A1
Note ON: Time 503040, Note Name: F1, Velocity: 26
Note OFF: Time 503280, Note Name: F1
Note ON: Time 503280, Note Name: A2, Velocity: 40
Note ON: Time 503280, Note Name: C2, Velocity: 22
Note ON: Time 503280, Note Name: A1, Velocity: 22
Note ON: Time 503280, Note Name: F2, Velocity: 28
Note OFF: Time 503520, Note Name: F2
Note OFF: Time 503520, Note Name: A1
Note OFF: Time 503520, Note Name: C2
Note ON: Time 503520, Note Name: F1, Velocity: 26
Note OFF: Time 503760, Note Name: F1
Note ON: Time 503760, Note Name: F2, Velocity: 27
Note ON: Time 503760, Note Name: A1, Velocity: 21
Note ON: Time 503760, Note Name: C2, Velocity: 21
Note OFF: Time 503880, Note Name: A2
Note ON: Time 503880, Note Name: C3, Velocity: 37
Note OFF: Time 504000, Note Name: C3
Note OFF: Time 504000, Note Name: C2
Note OFF: Time 504000, Note Name: A1
Note OFF: Time 504000, Note Name: F2
Note ON: Time 504000, Note Name: F1, Velocity: 28
Note OFF: Time 504240, Note Name: F1
Note ON: Time 504240, Note Name: A1, Velocity: 20
Note ON: Time 504240, Note Name: C2, Velocity: 20
Note ON: Time 504240, Note Name: F2, Velocity: 25
Note OFF: Time 504480, Note Name: F2
Note OFF: Time 504480, Note Name: C2
Note OFF: Time 504480, Note Name: A1
Note ON: Time 504480, Note Name: F1, Velocity: 26
Note OFF: Time 504720, Note Name: F1
Note ON: Time 504720, Note Name: F2, Velocity: 28
Note ON: Time 504720, Note Name: C2, Velocity: 22
Note ON: Time 504720, Note Name: A1, Velocity: 22
Note OFF: Time 504960, Note Name: A1
Note OFF: Time 504960, Note Name: C2
Note OFF: Time 504960, Note Name: F2
Note ON: Time 504960, Note Name: F1, Velocity: 26
Note OFF: Time 505200, Note Name: F1
Note ON: Time 505200, Note Name: C2, Velocity: 20
Note ON: Time 505200, Note Name: F2, Velocity: 26
Note ON: Time 505200, Note Name: A1, Velocity: 20
Note OFF: Time 505440, Note Name: A1
Note OFF: Time 505440, Note Name: F2
Note OFF: Time 505440, Note Name: C2
Note ON: Time 505440, Note Name: G1, Velocity: 28
Note OFF: Time 505680, Note Name: G1
Note ON: Time 505680, Note Name: A#1, Velocity: 20
Note ON: Time 505680, Note Name: E2, Velocity: 20
Note ON: Time 505680, Note Name: G2, Velocity: 26
Note OFF: Time 505920, Note Name: G2
Note OFF: Time 505920, Note Name: E2
Note OFF: Time 505920, Note Name: A#1
Note ON: Time 505920, Note Name: G1, Velocity: 26
Note OFF: Time 506160, Note Name: G1
Note ON: Time 506160, Note Name: A#1, Velocity: 22
Note ON: Time 506160, Note Name: G2, Velocity: 28
Note ON: Time 506160, Note Name: E2, Velocity: 22
Note OFF: Time 506400, Note Name: E2
Note OFF: Time 506400, Note Name: G2
Note OFF: Time 506400, Note Name: A#1
Note ON: Time 506400, Note Name: G1, Velocity: 26
Note OFF: Time 506640, Note Name: G1
Note ON: Time 506640, Note Name: E2, Velocity: 21
Note ON: Time 506640, Note Name: G2, Velocity: 27
Note ON: Time 506640, Note Name: A#1, Velocity: 21
Note OFF: Time 506880, Note Name: A#1
Note OFF: Time 506880, Note Name: G2
Note OFF: Time 506880, Note Name: E2
Note ON: Time 506880, Note Name: A1, Velocity: 28
Note OFF: Time 507120, Note Name: A1
Note ON: Time 507120, Note Name: F2, Velocity: 20
Note ON: Time 507120, Note Name: A2, Velocity: 25
Note ON: Time 507120, Note Name: C2, Velocity: 20
Note OFF: Time 507360, Note Name: C2
Note OFF: Time 507360, Note Name: A2
Note OFF: Time 507360, Note Name: F2
Note ON: Time 507360, Note Name: A1, Velocity: 26
Note OFF: Time 507600, Note Name: A1
Note ON: Time 507600, Note Name: C3, Velocity: 40
Note ON: Time 507600, Note Name: A2, Velocity: 28
Note ON: Time 507600, Note Name: F2, Velocity: 22
Note ON: Time 507600, Note Name: C2, Velocity: 22
Note OFF: Time 507840, Note Name: C2
Note OFF: Time 507840, Note Name: F2
Note OFF: Time 507840, Note Name: A2
Note ON: Time 507840, Note Name: A1, Velocity: 26
Note OFF: Time 508080, Note Name: A1
Note ON: Time 508080, Note Name: C2, Velocity: 20
Note ON: Time 508080, Note Name: A2, Velocity: 26
Note ON: Time 508080, Note Name: F2, Velocity: 20
Note OFF: Time 508320, Note Name: F2
Note OFF: Time 508320, Note Name: A2
Note OFF: Time 508320, Note Name: C2
Note ON: Time 508320, Note Name: A1, Velocity: 28
Note OFF: Time 508560, Note Name: A1
Note ON: Time 508560, Note Name: A2, Velocity: 26
Note ON: Time 508560, Note Name: C2, Velocity: 20
Note ON: Time 508560, Note Name: F2, Velocity: 20
Note OFF: Time 508800, Note Name: F2
Note OFF: Time 508800, Note Name: C2
Note OFF: Time 508800, Note Name: A2
Note ON: Time 508800, Note Name: A1, Velocity: 26
Note OFF: Time 509040, Note Name: A1
Note OFF: Time 509040, Note Name: C3
Note ON: Time 509040, Note Name: F2, Velocity: 28
Note ON: Time 509040, Note Name: D3, Velocity: 40
Note OFF: Time 509280, Note Name: F2
Note ON: Time 509280, Note Name: A#1, Velocity: 26
Note OFF: Time 509520, Note Name: A#1
Note ON: Time 509520, Note Name: F2, Velocity: 27
Note OFF: Time 509640, Note Name: D3
Note ON: Time 509640, Note Name: A#2, Velocity: 37
Note OFF: Time 509760, Note Name: A#2
Note OFF: Time 509760, Note Name: F2
Note ON: Time 509760, Note Name: A2, Velocity: 40
Note ON: Time 509760, Note Name: C2, Velocity: 28
Note OFF: Time 510000, Note Name: C2
Note ON: Time 510000, Note Name: F2, Velocity: 25
Note OFF: Time 510240, Note Name: F2
Note ON: Time 510240, Note Name: C2, Velocity: 26
Note OFF: Time 510480, Note Name: C2
Note OFF: Time 510480, Note Name: A2
Note ON: Time 510480, Note Name: F2, Velocity: 28
Note ON: Time 510480, Note Name: C3, Velocity: 40
Note OFF: Time 510720, Note Name: F2
Note ON: Time 510720, Note Name: C2, Velocity: 25
Note OFF: Time 510960, Note Name: C2
Note ON: Time 510960, Note Name: F2, Velocity: 25
Note OFF: Time 511080, Note Name: C3
Note ON: Time 511080, Note Name: A2, Velocity: 36
Note OFF: Time 511200, Note Name: A2
Note OFF: Time 511200, Note Name: F2
Note ON: Time 511200, Note Name: G2, Velocity: 40
Note ON: Time 511200, Note Name: C2, Velocity: 28
Note OFF: Time 511440, Note Name: C2
Note ON: Time 511440, Note Name: E2, Velocity: 25
Note OFF: Time 511680, Note Name: E2
Note ON: Time 511680, Note Name: C2, Velocity: 25
Note OFF: Time 511920, Note Name: C2
Note OFF: Time 511920, Note Name: G2
Note ON: Time 511920, Note Name: C3, Velocity: 40
Note ON: Time 511920, Note Name: E2, Velocity: 28
Note OFF: Time 512160, Note Name: E2
Note ON: Time 512160, Note Name: C2, Velocity: 25
Note OFF: Time 512400, Note Name: C2
Note ON: Time 512400, Note Name: E2, Velocity: 25
Note OFF: Time 512520, Note Name: C3
Note ON: Time 512520, Note Name: A#2, Velocity: 36
Note OFF: Time 512640, Note Name: A#2
Note OFF: Time 512640, Note Name: E2
Note ON: Time 512640, Note Name: F2, Velocity: 28
Note OFF: Time 512880, Note Name: F2
Note ON: Time 512880, Note Name: A2, Velocity: 20
Note ON: Time 512880, Note Name: C3, Velocity: 20
Note ON: Time 512880, Note Name: F3, Velocity: 25
Note OFF: Time 513120, Note Name: F3
Note OFF: Time 513120, Note Name: C3
Note OFF: Time 513120, Note Name: A2
Note ON: Time 513120, Note Name: F2, Velocity: 27
Note OFF: Time 513360, Note Name: F2
Note ON: Time 513360, Note Name: A2, Velocity: 23
Note ON: Time 513360, Note Name: C3, Velocity: 23
Note ON: Time 513360, Note Name: F3, Velocity: 29
Note OFF: Time 513600, Note Name: F3
Note OFF: Time 513600, Note Name: C3
Note OFF: Time 513600, Note Name: A2
Note ON: Time 513600, Note Name: F2, Velocity: 28
Note OFF: Time 513840, Note Name: F2
Note ON: Time 513840, Note Name: A2, Velocity: 22
Note ON: Time 513840, Note Name: C3, Velocity: 22
Note ON: Time 513840, Note Name: F3, Velocity: 29
Note OFF: Time 514080, Note Name: F3
Note OFF: Time 514080, Note Name: C3
Note OFF: Time 514080, Note Name: A2
Note ON: Time 514080, Note Name: F2, Velocity: 32
Note OFF: Time 514320, Note Name: F2
Note ON: Time 514320, Note Name: A2, Velocity: 24
Note ON: Time 514320, Note Name: C3, Velocity: 24
Note ON: Time 514320, Note Name: F3, Velocity: 31
Note OFF: Time 514560, Note Name: F3
Note OFF: Time 514560, Note Name: C3
Note OFF: Time 514560, Note Name: A2
Note ON: Time 514560, Note Name: F2, Velocity: 31
Note OFF: Time 514800, Note Name: F2
Note ON: Time 514800, Note Name: A3, Velocity: 51
Note ON: Time 514800, Note Name: C3, Velocity: 27
Note ON: Time 514800, Note Name: A2, Velocity: 27
Note ON: Time 514800, Note Name: F3, Velocity: 35
Note OFF: Time 515040, Note Name: F3
Note OFF: Time 515040, Note Name: A2
Note OFF: Time 515040, Note Name: C3
Note ON: Time 515040, Note Name: F2, Velocity: 33
Note OFF: Time 515280, Note Name: F2
Note ON: Time 515280, Note Name: F3, Velocity: 34
Note ON: Time 515280, Note Name: A2, Velocity: 27
Note ON: Time 515280, Note Name: C3, Velocity: 27
Note OFF: Time 515400, Note Name: A3
Note ON: Time 515400, Note Name: C4, Velocity: 49
Note OFF: Time 515520, Note Name: C4
Note OFF: Time 515520, Note Name: C3
Note OFF: Time 515520, Note Name: A2
Note OFF: Time 515520, Note Name: F3
Note ON: Time 515520, Note Name: F2, Velocity: 37
Note OFF: Time 515760, Note Name: F2
Note ON: Time 515760, Note Name: A2, Velocity: 27
Note ON: Time 515760, Note Name: C3, Velocity: 27
Note ON: Time 515760, Note Name: F3, Velocity: 34
Note OFF: Time 516000, Note Name: F3
Note OFF: Time 516000, Note Name: C3
Note OFF: Time 516000, Note Name: A2
Note ON: Time 516000, Note Name: F2, Velocity: 36
Note OFF: Time 516240, Note Name: F2
Note ON: Time 516240, Note Name: A2, Velocity: 30
Note ON: Time 516240, Note Name: C3, Velocity: 30
Note ON: Time 516240, Note Name: F3, Velocity: 39
Note OFF: Time 516480, Note Name: F3
Note OFF: Time 516480, Note Name: C3
Note OFF: Time 516480, Note Name: A2
Note ON: Time 516480, Note Name: F2, Velocity: 37
Note OFF: Time 516720, Note Name: F2
Note ON: Time 516720, Note Name: C3, Velocity: 29
Note ON: Time 516720, Note Name: F3, Velocity: 38
Note ON: Time 516720, Note Name: A2, Velocity: 29
Note OFF: Time 516960, Note Name: A2
Note OFF: Time 516960, Note Name: F3
Note OFF: Time 516960, Note Name: C3
Note ON: Time 516960, Note Name: G2, Velocity: 40
Note OFF: Time 517200, Note Name: G2
Note ON: Time 517200, Note Name: A#2, Velocity: 29
Note ON: Time 517200, Note Name: C3, Velocity: 29
Note ON: Time 517200, Note Name: G3, Velocity: 38
Note OFF: Time 517440, Note Name: G3
Note OFF: Time 517440, Note Name: C3
Note OFF: Time 517440, Note Name: A#2
Note ON: Time 517440, Note Name: G2, Velocity: 39
Note OFF: Time 517680, Note Name: G2
Note ON: Time 517680, Note Name: A#2, Velocity: 34
Note ON: Time 517680, Note Name: G3, Velocity: 42
Note ON: Time 517680, Note Name: C3, Velocity: 34
Note OFF: Time 517920, Note Name: C3
Note OFF: Time 517920, Note Name: G3
Note OFF: Time 517920, Note Name: A#2
Note ON: Time 517920, Note Name: G2, Velocity: 40
Note OFF: Time 518160, Note Name: G2
Note ON: Time 518160, Note Name: C3, Velocity: 33
Note ON: Time 518160, Note Name: G3, Velocity: 42
Note ON: Time 518160, Note Name: A#2, Velocity: 33
Note OFF: Time 518400, Note Name: A#2
Note OFF: Time 518400, Note Name: G3
Note OFF: Time 518400, Note Name: C3
Note ON: Time 518400, Note Name: A3, Velocity: 36
Note ON: Time 518400, Note Name: C3, Velocity: 28
Note ON: Time 518400, Note Name: A2, Velocity: 28
Note ON: Time 518400, Note Name: F3, Velocity: 36
Note OFF: Time 521280, Note Name: F3
Note OFF: Time 521280, Note Name: A3
Note OFF: Time 521280, Note Name: C3
Note OFF: Time 521280, Note Name: A2
Note ON: Time 521280, Note Name: C#3, Velocity: 50
Note ON: Time 521280, Note Name: F3, Velocity: 59
Note ON: Time 521280, Note Name: A#2, Velocity: 50
Note OFF: Time 522000, Note Name: F3
Note ON: Time 522000, Note Name: F#3, Velocity: 57
Note OFF: Time 524160, Note Name: F#3
Note OFF: Time 524160, Note Name: A#2
Note OFF: Time 524160, Note Name: C#3
Note ON: Time 524160, Note Name: C3, Velocity: 28
Note ON: Time 524160, Note Name: G#3, Velocity: 36
Note ON: Time 524160, Note Name: F3, Velocity: 36
Note OFF: Time 527040, Note Name: F3
Note OFF: Time 527040, Note Name: G#3
Note OFF: Time 527040, Note Name: C3
Note ON: Time 527040, Note Name: C3, Velocity: 25
Note ON: Time 527040, Note Name: E3, Velocity: 31
Note ON: Time 527040, Note Name: A#3, Velocity: 31
Note OFF: Time 529920, Note Name: A#3
Note OFF: Time 529920, Note Name: E3
Note OFF: Time 529920, Note Name: C3
Note ON: Time 540720, Note Name: G#3, Velocity: 34
Note OFF: Time 540960, Note Name: G#3
Note ON: Time 540960, Note Name: G3, Velocity: 35
Note OFF: Time 541200, Note Name: G3
Note ON: Time 541200, Note Name: F#3, Velocity: 33
Note OFF: Time 541440, Note Name: F#3
Note ON: Time 541440, Note Name: F3, Velocity: 34
Note OFF: Time 541680, Note Name: F3
Note ON: Time 541680, Note Name: E3, Velocity: 33
Note OFF: Time 541920, Note Name: E3
Note ON: Time 541920, Note Name: D#3, Velocity: 33
Note OFF: Time 542160, Note Name: D#3
Note ON: Time 542160, Note Name: C#3, Velocity: 33
Note OFF: Time 542400, Note Name: C#3
Note ON: Time 542400, Note Name: C3, Velocity: 32
Note OFF: Time 542640, Note Name: C3
Note ON: Time 542640, Note Name: A#2, Velocity: 32
Note OFF: Time 542880, Note Name: A#2
Note ON: Time 542880, Note Name: G#2, Velocity: 34
Note OFF: Time 543120, Note Name: G#2
Note ON: Time 543120, Note Name: G2, Velocity: 33
Note OFF: Time 543360, Note Name: G2
Note ON: Time 543360, Note Name: F#2, Velocity: 33
Note OFF: Time 543600, Note Name: F#2
Note ON: Time 543600, Note Name: F2, Velocity: 33
Note OFF: Time 543840, Note Name: F2
Note ON: Time 543840, Note Name: E2, Velocity: 33
Note OFF: Time 544080, Note Name: E2
Note ON: Time 544080, Note Name: D#2, Velocity: 33
Note OFF: Time 544320, Note Name: D#2
Note ON: Time 544320, Note Name: C#2, Velocity: 34
Note OFF: Time 544560, Note Name: C#2
Note ON: Time 544560, Note Name: C2, Velocity: 34
Note OFF: Time 544800, Note Name: C2
Note ON: Time 544800, Note Name: A#1, Velocity: 34
Note OFF: Time 545040, Note Name: A#1
Note ON: Time 545040, Note Name: G#1, Velocity: 34
Note OFF: Time 545280, Note Name: G#1
Note ON: Time 545280, Note Name: G1, Velocity: 33
Note OFF: Time 545520, Note Name: G1
Note ON: Time 545520, Note Name: G#1, Velocity: 31
Note OFF: Time 545760, Note Name: G#1
Note ON: Time 545760, Note Name: A#1, Velocity: 34
Note OFF: Time 546000, Note Name: A#1
Note ON: Time 546000, Note Name: C2, Velocity: 33
Note OFF: Time 546240, Note Name: C2
Note ON: Time 546240, Note Name: B1, Velocity: 33
Note OFF: Time 546480, Note Name: B1
Note ON: Time 546480, Note Name: C2, Velocity: 36
Note OFF: Time 546720, Note Name: C2
Note ON: Time 546720, Note Name: B1, Velocity: 34
Note OFF: Time 546960, Note Name: B1
Note ON: Time 546960, Note Name: C2, Velocity: 33
Note OFF: Time 547200, Note Name: C2
Note ON: Time 547200, Note Name: F1, Velocity: 64
Note OFF: Time 547320, Note Name: F1
Note ON: Time 547320, Note Name: C2, Velocity: 52
Note OFF: Time 547440, Note Name: C2
Note ON: Time 547440, Note Name: F2, Velocity: 52
Note OFF: Time 547560, Note Name: F2
Note ON: Time 547560, Note Name: C2, Velocity: 52
Note OFF: Time 547680, Note Name: C2
Note ON: Time 547680, Note Name: F1, Velocity: 58
Note OFF: Time 547800, Note Name: F1
Note ON: Time 547800, Note Name: C2, Velocity: 51
Note OFF: Time 547920, Note Name: C2
Note ON: Time 547920, Note Name: F1, Velocity: 68
Note OFF: Time 548040, Note Name: F1
Note ON: Time 548040, Note Name: C2, Velocity: 52
Note OFF: Time 548160, Note Name: C2
Note ON: Time 548160, Note Name: F1, Velocity: 64
Note OFF: Time 548280, Note Name: F1
Note ON: Time 548280, Note Name: C2, Velocity: 52
Note OFF: Time 548400, Note Name: C2
Note ON: Time 548400, Note Name: F1, Velocity: 62
Note OFF: Time 548520, Note Name: F1
Note ON: Time 548520, Note Name: C2, Velocity: 52
Note OFF: Time 548640, Note Name: C2
Note ON: Time 548640, Note Name: F1, Velocity: 64
Note OFF: Time 548760, Note Name: F1
Note ON: Time 548760, Note Name: C2, Velocity: 52
Note OFF: Time 548880, Note Name: C2
Note ON: Time 548880, Note Name: F2, Velocity: 52
Note OFF: Time 549000, Note Name: F2
Note ON: Time 549000, Note Name: C2, Velocity: 52
Note OFF: Time 549120, Note Name: C2
Note ON: Time 549120, Note Name: F1, Velocity: 58
Note OFF: Time 549240, Note Name: F1
Note ON: Time 549240, Note Name: C2, Velocity: 51
Note OFF: Time 549360, Note Name: C2
Note ON: Time 549360, Note Name: F1, Velocity: 68
Note OFF: Time 549480, Note Name: F1
Note ON: Time 549480, Note Name: C2, Velocity: 52
Note OFF: Time 549600, Note Name: C2
Note ON: Time 549600, Note Name: F1, Velocity: 64
Note OFF: Time 549720, Note Name: F1
Note ON: Time 549720, Note Name: C2, Velocity: 52
Note OFF: Time 549840, Note Name: C2
Note ON: Time 549840, Note Name: F1, Velocity: 62
Note OFF: Time 549960, Note Name: F1
Note ON: Time 549960, Note Name: C2, Velocity: 52
Note OFF: Time 550080, Note Name: C2
Note ON: Time 550080, Note Name: F1, Velocity: 64
Note OFF: Time 550200, Note Name: F1
Note ON: Time 550200, Note Name: C#2, Velocity: 52
Note OFF: Time 550320, Note Name: C#2
Note ON: Time 550320, Note Name: F2, Velocity: 52
Note OFF: Time 550440, Note Name: F2
Note ON: Time 550440, Note Name: C#2, Velocity: 52
Note OFF: Time 550560, Note Name: C#2
Note ON: Time 550560, Note Name: F1, Velocity: 58
Note OFF: Time 550680, Note Name: F1
Note ON: Time 550680, Note Name: C#2, Velocity: 51
Note OFF: Time 550800, Note Name: C#2
Note ON: Time 550800, Note Name: F1, Velocity: 68
Note OFF: Time 550920, Note Name: F1
Note ON: Time 550920, Note Name: C#2, Velocity: 52
Note OFF: Time 551040, Note Name: C#2
Note ON: Time 551040, Note Name: F1, Velocity: 64
Note OFF: Time 551160, Note Name: F1
Note ON: Time 551160, Note Name: C#2, Velocity: 52
Note OFF: Time 551280, Note Name: C#2
Note ON: Time 551280, Note Name: F1, Velocity: 62
Note OFF: Time 551400, Note Name: F1
Note ON: Time 551400, Note Name: C#2, Velocity: 52
Note OFF: Time 551520, Note Name: C#2
Note ON: Time 551520, Note Name: F1, Velocity: 64
Note OFF: Time 551640, Note Name: F1
Note ON: Time 551640, Note Name: C#2, Velocity: 52
Note OFF: Time 551760, Note Name: C#2
Note ON: Time 551760, Note Name: F2, Velocity: 52
Note OFF: Time 551880, Note Name: F2
Note ON: Time 551880, Note Name: C#2, Velocity: 52
Note OFF: Time 552000, Note Name: C#2
Note ON: Time 552000, Note Name: F1, Velocity: 58
Note OFF: Time 552120, Note Name: F1
Note ON: Time 552120, Note Name: C#2, Velocity: 51
Note OFF: Time 552240, Note Name: C#2
Note ON: Time 552240, Note Name: F1, Velocity: 68
Note OFF: Time 552360, Note Name: F1
Note ON: Time 552360, Note Name: C#2, Velocity: 52
Note OFF: Time 552480, Note Name: C#2
Note ON: Time 552480, Note Name: F1, Velocity: 64
Note OFF: Time 552600, Note Name: F1
Note ON: Time 552600, Note Name: C#2, Velocity: 52
Note OFF: Time 552720, Note Name: C#2
Note ON: Time 552720, Note Name: F1, Velocity: 62
Note OFF: Time 552840, Note Name: F1
Note ON: Time 552840, Note Name: C#2, Velocity: 52
Note OFF: Time 552960, Note Name: C#2
Note ON: Time 552960, Note Name: F#2, Velocity: 107
Note ON: Time 552960, Note Name: F#1, Velocity: 91
Note OFF: Time 555120, Note Name: F#1
Note OFF: Time 555120, Note Name: F#2
Note ON: Time 555120, Note Name: G1, Velocity: 74
Note ON: Time 555120, Note Name: G2, Velocity: 88
Note OFF: Time 555360, Note Name: G2
Note OFF: Time 555360, Note Name: G1
Note ON: Time 555360, Note Name: A#1, Velocity: 72
Note OFF: Time 555600, Note Name: A#1
Note ON: Time 555600, Note Name: C#2, Velocity: 82
Note OFF: Time 555840, Note Name: C#2
Note ON: Time 555840, Note Name: E2, Velocity: 95
Note OFF: Time 556080, Note Name: E2
Note ON: Time 556080, Note Name: G2, Velocity: 82
Note OFF: Time 556320, Note Name: G2
Note ON: Time 556320, Note Name: A#2, Velocity: 82
Note OFF: Time 556560, Note Name: A#2
Note ON: Time 556560, Note Name: C#3, Velocity: 85
Note OFF: Time 556790, Note Name: C#3
Note ON: Time 556800, Note Name: C#3, Velocity: 83
Note OFF: Time 557030, Note Name: C#3
Note ON: Time 557040, Note Name: C#3, Velocity: 83
Note OFF: Time 557270, Note Name: C#3
Note ON: Time 557280, Note Name: C#3, Velocity: 97
Note OFF: Time 558000, Note Name: C#3
Note ON: Time 558000, Note Name: C3, Velocity: 89
Note OFF: Time 558720, Note Name: C3
Note ON: Time 558720, Note Name: F2, Velocity: 64
Note OFF: Time 558840, Note Name: F2
Note ON: Time 558840, Note Name: C3, Velocity: 52
Note OFF: Time 558960, Note Name: C3
Note ON: Time 558960, Note Name: F3, Velocity: 52
Note OFF: Time 559080, Note Name: F3
Note ON: Time 559080, Note Name: C3, Velocity: 52
Note OFF: Time 559200, Note Name: C3
Note ON: Time 559200, Note Name: F2, Velocity: 58
Note OFF: Time 559320, Note Name: F2
Note ON: Time 559320, Note Name: C3, Velocity: 51
Note OFF: Time 559440, Note Name: C3
Note ON: Time 559440, Note Name: F2, Velocity: 68
Note OFF: Time 559560, Note Name: F2
Note ON: Time 559560, Note Name: C3, Velocity: 52
Note OFF: Time 559680, Note Name: C3
Note ON: Time 559680, Note Name: F2, Velocity: 64
Note OFF: Time 559800, Note Name: F2
Note ON: Time 559800, Note Name: C3, Velocity: 52
Note OFF: Time 559920, Note Name: C3
Note ON: Time 559920, Note Name: F2, Velocity: 62
Note OFF: Time 560040, Note Name: F2
Note ON: Time 560040, Note Name: C3, Velocity: 52
Note OFF: Time 560160, Note Name: C3
Note ON: Time 560160, Note Name: F2, Velocity: 64
Note OFF: Time 560280, Note Name: F2
Note ON: Time 560280, Note Name: C3, Velocity: 52
Note OFF: Time 560400, Note Name: C3
Note ON: Time 560400, Note Name: F3, Velocity: 52
Note OFF: Time 560520, Note Name: F3
Note ON: Time 560520, Note Name: C3, Velocity: 52
Note OFF: Time 560640, Note Name: C3
Note ON: Time 560640, Note Name: F2, Velocity: 58
Note OFF: Time 560760, Note Name: F2
Note ON: Time 560760, Note Name: C3, Velocity: 51
Note OFF: Time 560880, Note Name: C3
Note ON: Time 560880, Note Name: F2, Velocity: 68
Note OFF: Time 561000, Note Name: F2
Note ON: Time 561000, Note Name: C3, Velocity: 52
Note OFF: Time 561120, Note Name: C3
Note ON: Time 561120, Note Name: F2, Velocity: 64
Note OFF: Time 561240, Note Name: F2
Note ON: Time 561240, Note Name: C3, Velocity: 52
Note OFF: Time 561360, Note Name: C3
Note ON: Time 561360, Note Name: F2, Velocity: 62
Note OFF: Time 561480, Note Name: F2
Note ON: Time 561480, Note Name: C3, Velocity: 52
Note OFF: Time 561600, Note Name: C3
Note ON: Time 561600, Note Name: F2, Velocity: 64
Note OFF: Time 561720, Note Name: F2
Note ON: Time 561720, Note Name: C#3, Velocity: 52
Note OFF: Time 561840, Note Name: C#3
Note ON: Time 561840, Note Name: F3, Velocity: 52
Note OFF: Time 561960, Note Name: F3
Note ON: Time 561960, Note Name: C#3, Velocity: 52
Note OFF: Time 562080, Note Name: C#3
Note ON: Time 562080, Note Name: F2, Velocity: 58
Note OFF: Time 562200, Note Name: F2
Note ON: Time 562200, Note Name: C#3, Velocity: 51
Note OFF: Time 562320, Note Name: C#3
Note ON: Time 562320, Note Name: F2, Velocity: 68
Note OFF: Time 562440, Note Name: F2
Note ON: Time 562440, Note Name: C#3, Velocity: 52
Note OFF: Time 562560, Note Name: C#3
Note ON: Time 562560, Note Name: F2, Velocity: 64
Note OFF: Time 562680, Note Name: F2
Note ON: Time 562680, Note Name: C#3, Velocity: 52
Note OFF: Time 562800, Note Name: C#3
Note ON: Time 562800, Note Name: F2, Velocity: 62
Note OFF: Time 562920, Note Name: F2
Note ON: Time 562920, Note Name: C#3, Velocity: 52
Note OFF: Time 563040, Note Name: C#3
Note ON: Time 563040, Note Name: F2, Velocity: 64
Note OFF: Time 563160, Note Name: F2
Note ON: Time 563160, Note Name: C#3, Velocity: 52
Note OFF: Time 563280, Note Name: C#3
Note ON: Time 563280, Note Name: F3, Velocity: 52
Note OFF: Time 563400, Note Name: F3
Note ON: Time 563400, Note Name: C#3, Velocity: 52
Note OFF: Time 563520, Note Name: C#3
Note ON: Time 563520, Note Name: F2, Velocity: 58
Note OFF: Time 563640, Note Name: F2
Note ON: Time 563640, Note Name: C#3, Velocity: 51
Note OFF: Time 563760, Note Name: C#3
Note ON: Time 563760, Note Name: F2, Velocity: 68
Note OFF: Time 563880, Note Name: F2
Note ON: Time 563880, Note Name: C#3, Velocity: 52
Note OFF: Time 564000, Note Name: C#3
Note ON: Time 564000, Note Name: F2, Velocity: 64
Note OFF: Time 564120, Note Name: F2
Note ON: Time 564120, Note Name: C#3, Velocity: 52
Note OFF: Time 564240, Note Name: C#3
Note ON: Time 564240, Note Name: F2, Velocity: 62
Note OFF: Time 564360, Note Name: F2
Note ON: Time 564360, Note Name: C#3, Velocity: 52
Note OFF: Time 564480, Note Name: C#3
Note ON: Time 564480, Note Name: F#2, Velocity: 90
Note ON: Time 564480, Note Name: F#3, Velocity: 106
Note OFF: Time 566640, Note Name: F#3
Note OFF: Time 566640, Note Name: F#2
Note ON: Time 566640, Note Name: G3, Velocity: 88
Note ON: Time 566640, Note Name: G2, Velocity: 59
Note OFF: Time 566880, Note Name: G2
Note OFF: Time 566880, Note Name: G3
Note ON: Time 566880, Note Name: A#2, Velocity: 58
Note ON: Time 566880, Note Name: A#3, Velocity: 72
Note OFF: Time 567120, Note Name: A#3
Note OFF: Time 567120, Note Name: A#2
Note ON: Time 567120, Note Name: C#3, Velocity: 63
Note ON: Time 567120, Note Name: C#4, Velocity: 82
Note OFF: Time 567360, Note Name: C#4
Note OFF: Time 567360, Note Name: C#3
Note ON: Time 567360, Note Name: E4, Velocity: 95
Note ON: Time 567360, Note Name: E3, Velocity: 75
Note OFF: Time 567600, Note Name: E3
Note OFF: Time 567600, Note Name: E4
Note ON: Time 567600, Note Name: G3, Velocity: 63
Note ON: Time 567600, Note Name: G4, Velocity: 82
Note OFF: Time 567840, Note Name: G4
Note OFF: Time 567840, Note Name: G3
Note ON: Time 567840, Note Name: A#3, Velocity: 63
Note ON: Time 567840, Note Name: A#4, Velocity: 82
Note OFF: Time 568080, Note Name: A#4
Note OFF: Time 568080, Note Name: A#3
Note ON: Time 568080, Note Name: C#5, Velocity: 85
Note ON: Time 568080, Note Name: C#4, Velocity: 68
Note OFF: Time 568310, Note Name: C#4
Note OFF: Time 568310, Note Name: C#5
Note ON: Time 568320, Note Name: C#4, Velocity: 64
Note ON: Time 568320, Note Name: C#5, Velocity: 83
Note OFF: Time 568550, Note Name: C#5
Note OFF: Time 568550, Note Name: C#4
Note ON: Time 568560, Note Name: C#4, Velocity: 64
Note ON: Time 568560, Note Name: C#5, Velocity: 83
Note OFF: Time 568790, Note Name: C#5
Note OFF: Time 568790, Note Name: C#4
Note ON: Time 568800, Note Name: C#5, Velocity: 102
Note ON: Time 568800, Note Name: C#4, Velocity: 80
Note OFF: Time 569520, Note Name: C#4
Note OFF: Time 569520, Note Name: C#5
Note ON: Time 569520, Note Name: C4, Velocity: 69
Note ON: Time 569520, Note Name: C5, Velocity: 86
Note OFF: Time 570240, Note Name: C5
Note OFF: Time 570240, Note Name: C4
Note ON: Time 570240, Note Name: F4, Velocity: 102
Note OFF: Time 570960, Note Name: F4
Note ON: Time 570960, Note Name: E4, Velocity: 86
Note OFF: Time 571680, Note Name: E4
Note ON: Time 571680, Note Name: C#5, Velocity: 102
Note OFF: Time 572400, Note Name: C#5
Note ON: Time 572400, Note Name: C5, Velocity: 86
Note OFF: Time 573120, Note Name: C5
Note ON: Time 573120, Note Name: B4, Velocity: 97
Note ON: Time 573240, Note Name: D5, Velocity: 91
Note ON: Time 573360, Note Name: F5, Velocity: 95
Note ON: Time 573480, Note Name: G#5, Velocity: 87
Note OFF: Time 574560, Note Name: G#5
Note OFF: Time 574560, Note Name: B4
Note OFF: Time 574560, Note Name: D5
Note OFF: Time 574560, Note Name: F5
Note ON: Time 574560, Note Name: C5, Velocity: 85
Note ON: Time 574680, Note Name: E5, Velocity: 77
Note ON: Time 574800, Note Name: G5, Velocity: 77
Note OFF: Time 576000, Note Name: G5
Note OFF: Time 576000, Note Name: E5
Note OFF: Time 576000, Note Name: C5
Note ON: Time 576000, Note Name: G#4, Velocity: 41
Note ON: Time 576000, Note Name: F4, Velocity: 41
Note OFF: Time 576720, Note Name: F4
Note OFF: Time 576720, Note Name: G#4
Note ON: Time 576720, Note Name: C#5, Velocity: 40
Note ON: Time 576720, Note Name: A#4, Velocity: 40
Note OFF: Time 577440, Note Name: A#4
Note OFF: Time 577440, Note Name: C#5
Note ON: Time 577440, Note Name: C5, Velocity: 41
Note ON: Time 577440, Note Name: G#4, Velocity: 41
Note OFF: Time 578160, Note Name: G#4
Note OFF: Time 578160, Note Name: C5
Note ON: Time 578160, Note Name: C5, Velocity: 55
Note ON: Time 578160, Note Name: A#4, Velocity: 55
Note ON: Time 578160, Note Name: G4, Velocity: 55
Note OFF: Time 578880, Note Name: G4
Note OFF: Time 578880, Note Name: A#4
Note OFF: Time 578880, Note Name: C5
Note ON: Time 578880, Note Name: F4, Velocity: 41
Note ON: Time 578880, Note Name: G#4, Velocity: 41
Note OFF: Time 579600, Note Name: G#4
Note OFF: Time 579600, Note Name: F4
Note ON: Time 579600, Note Name: A#3, Velocity: 40
Note ON: Time 579600, Note Name: C#4, Velocity: 40
Note OFF: Time 580320, Note Name: C#4
Note OFF: Time 580320, Note Name: A#3
Note ON: Time 580320, Note Name: G#3, Velocity: 41
Note ON: Time 580320, Note Name: C4, Velocity: 41
Note OFF: Time 581040, Note Name: C4
Note OFF: Time 581040, Note Name: G#3
Note ON: Time 581040, Note Name: C4, Velocity: 55
Note ON: Time 581040, Note Name: A#3, Velocity: 55
Note ON: Time 581040, Note Name: G3, Velocity: 55
Note OFF: Time 581760, Note Name: G3
Note OFF: Time 581760, Note Name: A#3
Note OFF: Time 581760, Note Name: C4
Note ON: Time 581760, Note Name: F3, Velocity: 41
Note ON: Time 581760, Note Name: G#3, Velocity: 41
Note OFF: Time 582480, Note Name: G#3
Note OFF: Time 582480, Note Name: F3
Note ON: Time 582480, Note Name: A#2, Velocity: 40
Note ON: Time 582480, Note Name: C#3, Velocity: 40
Note OFF: Time 583200, Note Name: C#3
Note OFF: Time 583200, Note Name: A#2
Note ON: Time 583200, Note Name: G#2, Velocity: 41
Note ON: Time 583200, Note Name: C3, Velocity: 41
Note OFF: Time 583920, Note Name: C3
Note OFF: Time 583920, Note Name: G#2
Note ON: Time 583920, Note Name: G2, Velocity: 55
Note ON: Time 583920, Note Name: A#2, Velocity: 55
Note ON: Time 583920, Note Name: C3, Velocity: 55
Note OFF: Time 584640, Note Name: C3
Note OFF: Time 584640, Note Name: A#2
Note OFF: Time 584640, Note Name: G2
Note ON: Time 584640, Note Name: F2, Velocity: 44
Note OFF: Time 586080, Note Name: F2
Note ON: Time 586080, Note Name: C2, Velocity: 36
Note OFF: Time 586800, Note Name: C2
Note ON: Time 586800, Note Name: G#1, Velocity: 30
Note OFF: Time 587520, Note Name: G#1
Note ON: Time 587520, Note Name: F1, Velocity: 24
Note OFF: Time 589680, Note Name: F1
Note ON: Time 589680, Note Name: G#1, Velocity: 29
Note OFF: Time 590280, Note Name: G#1
Note ON: Time 590280, Note Name: C2, Velocity: 26
Note OFF: Time 590400, Note Name: C2
Note ON: Time 590400, Note Name: F2, Velocity: 29
Note OFF: Time 591120, Note Name: F2
Note ON: Time 591120, Note Name: G#2, Velocity: 29
Note OFF: Time 591720, Note Name: G#2
Note ON: Time 591720, Note Name: C3, Velocity: 26
Note OFF: Time 591840, Note Name: C3
Note ON: Time 591840, Note Name: F3, Velocity: 29
Note OFF: Time 592560, Note Name: F3
Note ON: Time 592560, Note Name: F2, Velocity: 28
Note OFF: Time 593280, Note Name: F2
Note ON: Time 593280, Note Name: F#2, Velocity: 34
Note OFF: Time 595440, Note Name: F#2
Note ON: Time 595440, Note Name: C3, Velocity: 33
Note OFF: Time 596040, Note Name: C3
Note ON: Time 596040, Note Name: D#3, Velocity: 28
Note OFF: Time 596160, Note Name: D#3
Note ON: Time 596160, Note Name: F#3, Velocity: 33
Note OFF: Time 596880, Note Name: F#3
Note ON: Time 596880, Note Name: C4, Velocity: 33
Note OFF: Time 597480, Note Name: C4
Note ON: Time 597480, Note Name: D#4, Velocity: 28
Note OFF: Time 597600, Note Name: D#4
Note ON: Time 597600, Note Name: F#4, Velocity: 33
Note OFF: Time 598320, Note Name: F#4
Note ON: Time 598320, Note Name: F#3, Velocity: 30
Note OFF: Time 599040, Note Name: F#3
Note ON: Time 599040, Note Name: F3, Velocity: 33
Note OFF: Time 599760, Note Name: F3
Note ON: Time 599760, Note Name: G#3, Velocity: 34
Note OFF: Time 600360, Note Name: G#3
Note ON: Time 600360, Note Name: C#4, Velocity: 30
Note OFF: Time 600480, Note Name: C#4
Note ON: Time 600480, Note Name: F4, Velocity: 36
Note OFF: Time 601200, Note Name: F4
Note ON: Time 601200, Note Name: F3, Velocity: 35
Note OFF: Time 601920, Note Name: F3
Note ON: Time 601920, Note Name: D#3, Velocity: 40
Note OFF: Time 602520, Note Name: D#3
Note ON: Time 602520, Note Name: F#3, Velocity: 36
Note OFF: Time 602640, Note Name: F#3
Note ON: Time 602640, Note Name: G#3, Velocity: 42
Note OFF: Time 603240, Note Name: G#3
Note ON: Time 603240, Note Name: C4, Velocity: 38
Note OFF: Time 603360, Note Name: C4
Note ON: Time 603360, Note Name: D#4, Velocity: 44
Note OFF: Time 603960, Note Name: D#4
Note ON: Time 603960, Note Name: F#4, Velocity: 39
Note OFF: Time 604080, Note Name: F#4
Note ON: Time 604080, Note Name: G#4, Velocity: 47
Note OFF: Time 604680, Note Name: G#4
Note ON: Time 604680, Note Name: C5, Velocity: 42
Note OFF: Time 604800, Note Name: C5
Note ON: Time 604800, Note Name: C#4, Velocity: 33
Note OFF: Time 605040, Note Name: C#4
Note ON: Time 605040, Note Name: F4, Velocity: 24
Note ON: Time 605040, Note Name: G#4, Velocity: 24
Note ON: Time 605040, Note Name: C#5, Velocity: 30
Note OFF: Time 605280, Note Name: C#5
Note OFF: Time 605280, Note Name: G#4
Note OFF: Time 605280, Note Name: F4
Note ON: Time 605280, Note Name: C#4, Velocity: 31
Note OFF: Time 605520, Note Name: C#4
Note ON: Time 605520, Note Name: F4, Velocity: 26
Note ON: Time 605520, Note Name: G#4, Velocity: 26
Note ON: Time 605520, Note Name: C#5, Velocity: 33
Note OFF: Time 605760, Note Name: C#5
Note OFF: Time 605760, Note Name: G#4
Note OFF: Time 605760, Note Name: F4
Note ON: Time 605760, Note Name: C#4, Velocity: 31
Note OFF: Time 606000, Note Name: C#4
Note ON: Time 606000, Note Name: F4, Velocity: 24
Note ON: Time 606000, Note Name: G#4, Velocity: 24
Note ON: Time 606000, Note Name: C#5, Velocity: 31
Note OFF: Time 606240, Note Name: C#5
Note OFF: Time 606240, Note Name: G#4
Note OFF: Time 606240, Note Name: F4
Note ON: Time 606240, Note Name: C#4, Velocity: 33
Note OFF: Time 606480, Note Name: C#4
Note ON: Time 606480, Note Name: F4, Velocity: 24
Note ON: Time 606480, Note Name: G#4, Velocity: 24
Note ON: Time 606480, Note Name: C#5, Velocity: 31
Note OFF: Time 606720, Note Name: C#5
Note OFF: Time 606720, Note Name: G#4
Note OFF: Time 606720, Note Name: F4
Note ON: Time 606720, Note Name: C#4, Velocity: 31
Note OFF: Time 606960, Note Name: C#4
Note ON: Time 606960, Note Name: F4, Velocity: 26
Note ON: Time 606960, Note Name: C#5, Velocity: 33
Note ON: Time 606960, Note Name: G#4, Velocity: 26
Note OFF: Time 607200, Note Name: G#4
Note OFF: Time 607200, Note Name: C#5
Note OFF: Time 607200, Note Name: F4
Note ON: Time 607200, Note Name: C#4, Velocity: 31
Note OFF: Time 607440, Note Name: C#4
Note ON: Time 607440, Note Name: F4, Velocity: 25
Note ON: Time 607440, Note Name: G#4, Velocity: 25
Note ON: Time 607440, Note Name: C#5, Velocity: 32
Note OFF: Time 607680, Note Name: C#5
Note OFF: Time 607680, Note Name: G#4
Note OFF: Time 607680, Note Name: F4
Note ON: Time 607680, Note Name: C#4, Velocity: 33
Note OFF: Time 607920, Note Name: C#4
Note ON: Time 607920, Note Name: F4, Velocity: 24
Note ON: Time 607920, Note Name: G#4, Velocity: 24
Note ON: Time 607920, Note Name: C#5, Velocity: 30
Note OFF: Time 608160, Note Name: C#5
Note OFF: Time 608160, Note Name: G#4
Note OFF: Time 608160, Note Name: F4
Note ON: Time 608160, Note Name: C#4, Velocity: 31
Note OFF: Time 608400, Note Name: C#4
Note ON: Time 608400, Note Name: F4, Velocity: 26
Note ON: Time 608400, Note Name: G#4, Velocity: 26
Note ON: Time 608400, Note Name: C#5, Velocity: 33
Note OFF: Time 608640, Note Name: C#5
Note OFF: Time 608640, Note Name: G#4
Note OFF: Time 608640, Note Name: F4
Note ON: Time 608640, Note Name: C#4, Velocity: 31
Note OFF: Time 608880, Note Name: C#4
Note ON: Time 608880, Note Name: G#4, Velocity: 24
Note ON: Time 608880, Note Name: C#5, Velocity: 31
Note ON: Time 608880, Note Name: F4, Velocity: 24
Note OFF: Time 609120, Note Name: F4
Note OFF: Time 609120, Note Name: C#5
Note OFF: Time 609120, Note Name: G#4
Note ON: Time 609120, Note Name: D#4, Velocity: 33
Note OFF: Time 609360, Note Name: D#4
Note ON: Time 609360, Note Name: F#4, Velocity: 24
Note ON: Time 609360, Note Name: G#4, Velocity: 24
Note ON: Time 609360, Note Name: D#5, Velocity: 31
Note OFF: Time 609600, Note Name: D#5
Note OFF: Time 609600, Note Name: G#4
Note OFF: Time 609600, Note Name: F#4
Note ON: Time 609600, Note Name: D#4, Velocity: 31
Note OFF: Time 609840, Note Name: D#4
Note ON: Time 609840, Note Name: G#4, Velocity: 26
Note ON: Time 609840, Note Name: F#4, Velocity: 26
Note ON: Time 609840, Note Name: D#5, Velocity: 33
Note OFF: Time 610080, Note Name: D#5
Note OFF: Time 610080, Note Name: F#4
Note OFF: Time 610080, Note Name: G#4
Note ON: Time 610080, Note Name: D#4, Velocity: 31
Note OFF: Time 610320, Note Name: D#4
Note ON: Time 610320, Note Name: F#4, Velocity: 25
Note ON: Time 610320, Note Name: G#4, Velocity: 25
Note ON: Time 610320, Note Name: D#5, Velocity: 32
Note OFF: Time 610560, Note Name: D#5
Note OFF: Time 610560, Note Name: G#4
Note OFF: Time 610560, Note Name: F#4
Note ON: Time 610560, Note Name: F4, Velocity: 33
Note OFF: Time 610800, Note Name: F4
Note ON: Time 610800, Note Name: G#4, Velocity: 24
Note ON: Time 610800, Note Name: F5, Velocity: 30
Note ON: Time 610800, Note Name: C#5, Velocity: 24
Note OFF: Time 611040, Note Name: C#5
Note OFF: Time 611040, Note Name: F5
Note OFF: Time 611040, Note Name: G#4
Note ON: Time 611040, Note Name: F4, Velocity: 31
Note OFF: Time 611280, Note Name: F4
Note ON: Time 611280, Note Name: F5, Velocity: 33
Note ON: Time 611280, Note Name: C#5, Velocity: 26
Note ON: Time 611280, Note Name: G#4, Velocity: 26
Note OFF: Time 611520, Note Name: G#4
Note OFF: Time 611520, Note Name: C#5
Note OFF: Time 611520, Note Name: F5
Note ON: Time 611520, Note Name: F4, Velocity: 31
Note OFF: Time 611760, Note Name: F4
Note ON: Time 611760, Note Name: G#4, Velocity: 24
Note ON: Time 611760, Note Name: F5, Velocity: 31
Note ON: Time 611760, Note Name: C#5, Velocity: 24
Note OFF: Time 612000, Note Name: C#5
Note OFF: Time 612000, Note Name: F5
Note OFF: Time 612000, Note Name: G#4
Note ON: Time 612000, Note Name: F4, Velocity: 33
Note OFF: Time 612240, Note Name: F4
Note ON: Time 612240, Note Name: F5, Velocity: 31
Note ON: Time 612240, Note Name: G#4, Velocity: 24
Note ON: Time 612240, Note Name: C#5, Velocity: 24
Note OFF: Time 612480, Note Name: C#5
Note OFF: Time 612480, Note Name: G#4
Note OFF: Time 612480, Note Name: F5
Note ON: Time 612480, Note Name: F4, Velocity: 31
Note OFF: Time 612720, Note Name: F4
Note ON: Time 612720, Note Name: C#5, Velocity: 36
Note ON: Time 612720, Note Name: G#4, Velocity: 36
Note OFF: Time 612960, Note Name: G#4
Note OFF: Time 612960, Note Name: C#5
Note ON: Time 612960, Note Name: G#4, Velocity: 34
Note OFF: Time 613200, Note Name: G#4
Note ON: Time 613200, Note Name: G#4, Velocity: 35
Note ON: Time 613200, Note Name: C#5, Velocity: 35
Note OFF: Time 613440, Note Name: C#5
Note OFF: Time 613440, Note Name: G#4
Note ON: Time 613440, Note Name: F4, Velocity: 36
Note OFF: Time 613680, Note Name: F4
Note ON: Time 613680, Note Name: G#4, Velocity: 26
Note ON: Time 613680, Note Name: C#5, Velocity: 26
Note ON: Time 613680, Note Name: F5, Velocity: 33
Note OFF: Time 613920, Note Name: F5
Note OFF: Time 613920, Note Name: C#5
Note OFF: Time 613920, Note Name: G#4
Note ON: Time 613920, Note Name: F4, Velocity: 34
Note OFF: Time 614160, Note Name: F4
Note ON: Time 614160, Note Name: C#5, Velocity: 29
Note ON: Time 614160, Note Name: G#4, Velocity: 29
Note ON: Time 614160, Note Name: F5, Velocity: 37
Note OFF: Time 614400, Note Name: F5
Note OFF: Time 614400, Note Name: G#4
Note OFF: Time 614400, Note Name: C#5
Note ON: Time 614400, Note Name: F4, Velocity: 35
Note OFF: Time 614640, Note Name: F4
Note ON: Time 614640, Note Name: F5, Velocity: 36
Note ON: Time 614640, Note Name: C#5, Velocity: 27
Note ON: Time 614640, Note Name: G#4, Velocity: 27
Note OFF: Time 614880, Note Name: G#4
Note OFF: Time 614880, Note Name: C#5
Note OFF: Time 614880, Note Name: F5
Note ON: Time 614880, Note Name: F#4, Velocity: 39
Note OFF: Time 615120, Note Name: F#4
Note ON: Time 615120, Note Name: A4, Velocity: 28
Note ON: Time 615120, Note Name: D#5, Velocity: 37
Note ON: Time 615120, Note Name: C5, Velocity: 28
Note OFF: Time 615360, Note Name: C5
Note OFF: Time 615360, Note Name: D#5
Note OFF: Time 615360, Note Name: A4
Note ON: Time 615360, Note Name: F#4, Velocity: 38
Note OFF: Time 615600, Note Name: F#4
Note ON: Time 615600, Note Name: D#5, Velocity: 40
Note ON: Time 615600, Note Name: A4, Velocity: 40
Note ON: Time 615600, Note Name: C5, Velocity: 40
Note OFF: Time 615840, Note Name: C5
Note OFF: Time 615840, Note Name: A4
Note OFF: Time 615840, Note Name: D#5
Note ON: Time 615840, Note Name: F#4, Velocity: 38
Note OFF: Time 616080, Note Name: F#4
Note ON: Time 616080, Note Name: D#5, Velocity: 40
Note ON: Time 616080, Note Name: A4, Velocity: 40
Note ON: Time 616080, Note Name: C5, Velocity: 40
Note OFF: Time 616320, Note Name: C5
Note OFF: Time 616320, Note Name: A4
Note OFF: Time 616320, Note Name: D#5
Note ON: Time 616320, Note Name: F4, Velocity: 49
Note OFF: Time 616560, Note Name: F4
Note ON: Time 616560, Note Name: D5, Velocity: 39
Note ON: Time 616560, Note Name: B4, Velocity: 30
Note ON: Time 616560, Note Name: G#4, Velocity: 30
Note OFF: Time 616800, Note Name: G#4
Note OFF: Time 616800, Note Name: B4
Note OFF: Time 616800, Note Name: D5
Note ON: Time 616800, Note Name: F4, Velocity: 41
Note OFF: Time 617040, Note Name: F4
Note ON: Time 617040, Note Name: G#4, Velocity: 35
Note ON: Time 617040, Note Name: D5, Velocity: 44
Note ON: Time 617040, Note Name: B4, Velocity: 35
Note OFF: Time 617280, Note Name: B4
Note OFF: Time 617280, Note Name: D5
Note OFF: Time 617280, Note Name: G#4
Note ON: Time 617280, Note Name: F4, Velocity: 42
Note OFF: Time 617520, Note Name: F4
Note ON: Time 617520, Note Name: G#4, Velocity: 34
Note ON: Time 617520, Note Name: D5, Velocity: 44
Note ON: Time 617520, Note Name: B4, Velocity: 34
Note OFF: Time 617760, Note Name: B4
Note OFF: Time 617760, Note Name: D5
Note OFF: Time 617760, Note Name: G#4
Note ON: Time 617760, Note Name: F4, Velocity: 49
Note OFF: Time 618000, Note Name: F4
Note ON: Time 618000, Note Name: G#4, Velocity: 36
Note ON: Time 618000, Note Name: B4, Velocity: 36
Note ON: Time 618000, Note Name: D5, Velocity: 48
Note OFF: Time 618240, Note Name: D5
Note OFF: Time 618240, Note Name: B4
Note OFF: Time 618240, Note Name: G#4
Note ON: Time 618240, Note Name: F4, Velocity: 48
Note OFF: Time 618480, Note Name: F4
Note ON: Time 618480, Note Name: B4, Velocity: 41
Note ON: Time 618480, Note Name: G#4, Velocity: 41
Note ON: Time 618480, Note Name: D5, Velocity: 55
Note OFF: Time 618720, Note Name: D5
Note OFF: Time 618720, Note Name: G#4
Note OFF: Time 618720, Note Name: B4
Note ON: Time 618720, Note Name: F4, Velocity: 50
Note OFF: Time 618960, Note Name: F4
Note ON: Time 618960, Note Name: D5, Velocity: 52
Note ON: Time 618960, Note Name: G#4, Velocity: 41
Note ON: Time 618960, Note Name: B4, Velocity: 41
Note OFF: Time 619200, Note Name: B4
Note OFF: Time 619200, Note Name: G#4
Note OFF: Time 619200, Note Name: D5
Note ON: Time 619200, Note Name: E4, Velocity: 54
Note OFF: Time 619440, Note Name: E4
Note ON: Time 619440, Note Name: E5, Velocity: 47
Note ON: Time 619440, Note Name: C5, Velocity: 37
Note ON: Time 619440, Note Name: G4, Velocity: 37
Note OFF: Time 619680, Note Name: G4
Note OFF: Time 619680, Note Name: C5
Note OFF: Time 619680, Note Name: E5
Note ON: Time 619680, Note Name: E4, Velocity: 51
Note OFF: Time 619920, Note Name: E4
Note ON: Time 619920, Note Name: G4, Velocity: 42
Note ON: Time 619920, Note Name: E5, Velocity: 53
Note ON: Time 619920, Note Name: C5, Velocity: 42
Note OFF: Time 620160, Note Name: C5
Note OFF: Time 620160, Note Name: E5
Note OFF: Time 620160, Note Name: G4
Note ON: Time 620160, Note Name: E4, Velocity: 47
Note OFF: Time 620400, Note Name: E4
Note ON: Time 620400, Note Name: G4, Velocity: 41
Note ON: Time 620400, Note Name: E5, Velocity: 52
Note ON: Time 620400, Note Name: C5, Velocity: 41
Note OFF: Time 620640, Note Name: C5
Note OFF: Time 620640, Note Name: E5
Note OFF: Time 620640, Note Name: G4
Note ON: Time 620640, Note Name: E4, Velocity: 49
Note OFF: Time 620880, Note Name: E4
Note ON: Time 620880, Note Name: G4, Velocity: 43
Note ON: Time 620880, Note Name: C5, Velocity: 43
Note ON: Time 620880, Note Name: E5, Velocity: 54
Note OFF: Time 621120, Note Name: E5
Note OFF: Time 621120, Note Name: C5
Note OFF: Time 621120, Note Name: G4
Note ON: Time 621120, Note Name: E4, Velocity: 48
Note OFF: Time 621360, Note Name: E4
Note ON: Time 621360, Note Name: C5, Velocity: 41
Note ON: Time 621360, Note Name: G4, Velocity: 41
Note ON: Time 621360, Note Name: E5, Velocity: 55
Note OFF: Time 621600, Note Name: E5
Note OFF: Time 621600, Note Name: G4
Note OFF: Time 621600, Note Name: C5
Note ON: Time 621600, Note Name: E4, Velocity: 50
Note OFF: Time 621840, Note Name: E4
Note ON: Time 621840, Note Name: E5, Velocity: 52
Note ON: Time 621840, Note Name: G4, Velocity: 41
Note ON: Time 621840, Note Name: C5, Velocity: 41
Note OFF: Time 622080, Note Name: C5
Note OFF: Time 622080, Note Name: G4
Note OFF: Time 622080, Note Name: E5
Note ON: Time 622080, Note Name: A#3, Velocity: 54
Note OFF: Time 622320, Note Name: A#3
Note ON: Time 622320, Note Name: G4, Velocity: 47
Note ON: Time 622320, Note Name: E4, Velocity: 37
Note ON: Time 622320, Note Name: C#4, Velocity: 37
Note OFF: Time 622560, Note Name: C#4
Note OFF: Time 622560, Note Name: E4
Note OFF: Time 622560, Note Name: G4
Note ON: Time 622560, Note Name: A#3, Velocity: 51
Note OFF: Time 622800, Note Name: A#3
Note ON: Time 622800, Note Name: C#4, Velocity: 42
Note ON: Time 622800, Note Name: G4, Velocity: 53
Note ON: Time 622800, Note Name: E4, Velocity: 42
Note OFF: Time 623040, Note Name: E4
Note OFF: Time 623040, Note Name: G4
Note OFF: Time 623040, Note Name: C#4
Note ON: Time 623040, Note Name: A#3, Velocity: 47
Note OFF: Time 623280, Note Name: A#3
Note ON: Time 623280, Note Name: C#4, Velocity: 41
Note ON: Time 623280, Note Name: G4, Velocity: 52
Note ON: Time 623280, Note Name: E4, Velocity: 41
Note OFF: Time 623520, Note Name: E4
Note OFF: Time 623520, Note Name: G4
Note OFF: Time 623520, Note Name: C#4
Note ON: Time 623520, Note Name: A#3, Velocity: 49
Note OFF: Time 623760, Note Name: A#3
Note ON: Time 623760, Note Name: E4, Velocity: 43
Note ON: Time 623760, Note Name: G4, Velocity: 54
Note ON: Time 623760, Note Name: C#4, Velocity: 43
Note OFF: Time 624000, Note Name: C#4
Note OFF: Time 624000, Note Name: G4
Note OFF: Time 624000, Note Name: E4
Note ON: Time 624000, Note Name: A#3, Velocity: 48
Note OFF: Time 624240, Note Name: A#3
Note ON: Time 624240, Note Name: C#4, Velocity: 43
Note ON: Time 624240, Note Name: G4, Velocity: 57
Note ON: Time 624240, Note Name: E4, Velocity: 43
Note OFF: Time 624480, Note Name: E4
Note OFF: Time 624480, Note Name: G4
Note OFF: Time 624480, Note Name: C#4
Note ON: Time 624480, Note Name: A#3, Velocity: 52
Note OFF: Time 624720, Note Name: A#3
Note ON: Time 624720, Note Name: C#4, Velocity: 43
Note ON: Time 624720, Note Name: E4, Velocity: 43
Note ON: Time 624720, Note Name: G4, Velocity: 54
Note OFF: Time 624960, Note Name: G4
Note OFF: Time 624960, Note Name: E4
Note OFF: Time 624960, Note Name: C#4
Note ON: Time 624960, Note Name: G#3, Velocity: 56
Note OFF: Time 625200, Note Name: G#3
Note ON: Time 625200, Note Name: C4, Velocity: 38
Note ON: Time 625200, Note Name: F4, Velocity: 38
Note ON: Time 625200, Note Name: G#4, Velocity: 49
Note OFF: Time 625440, Note Name: G#4
Note OFF: Time 625440, Note Name: F4
Note OFF: Time 625440, Note Name: C4
Note ON: Time 625440, Note Name: G#3, Velocity: 53
Note OFF: Time 625680, Note Name: G#3
Note ON: Time 625680, Note Name: F4, Velocity: 44
Note ON: Time 625680, Note Name: G#4, Velocity: 55
Note ON: Time 625680, Note Name: C4, Velocity: 44
Note OFF: Time 625920, Note Name: C4
Note OFF: Time 625920, Note Name: G#4
Note OFF: Time 625920, Note Name: F4
Note ON: Time 625920, Note Name: G#3, Velocity: 49
Note OFF: Time 626160, Note Name: G#3
Note ON: Time 626160, Note Name: F4, Velocity: 43
Note ON: Time 626160, Note Name: G#4, Velocity: 54
Note ON: Time 626160, Note Name: C4, Velocity: 43
Note OFF: Time 626400, Note Name: C4
Note OFF: Time 626400, Note Name: G#4
Note OFF: Time 626400, Note Name: F4
Note ON: Time 626400, Note Name: G#3, Velocity: 51
Note OFF: Time 626640, Note Name: G#3
Note ON: Time 626640, Note Name: F4, Velocity: 45
Note ON: Time 626640, Note Name: G#4, Velocity: 56
Note ON: Time 626640, Note Name: C4, Velocity: 45
Note OFF: Time 626880, Note Name: C4
Note OFF: Time 626880, Note Name: G#4
Note OFF: Time 626880, Note Name: F4
Note ON: Time 626880, Note Name: G#3, Velocity: 50
Note OFF: Time 627120, Note Name: G#3
Note ON: Time 627120, Note Name: C4, Velocity: 43
Note ON: Time 627120, Note Name: G#4, Velocity: 57
Note ON: Time 627120, Note Name: F4, Velocity: 43
Note OFF: Time 627360, Note Name: F4
Note OFF: Time 627360, Note Name: G#4
Note OFF: Time 627360, Note Name: C4
Note ON: Time 627360, Note Name: G#3, Velocity: 52
Note OFF: Time 627600, Note Name: G#3
Note ON: Time 627600, Note Name: C4, Velocity: 43
Note ON: Time 627600, Note Name: F4, Velocity: 43
Note ON: Time 627600, Note Name: G#4, Velocity: 54
Note OFF: Time 627840, Note Name: G#4
Note OFF: Time 627840, Note Name: F4
Note OFF: Time 627840, Note Name: C4
Note ON: Time 627840, Note Name: A#1, Velocity: 101
Note ON: Time 627840, Note Name: A#2, Velocity: 101
Note OFF: Time 628080, Note Name: A#2
Note OFF: Time 628080, Note Name: A#1
Note ON: Time 628320, Note Name: C#3, Velocity: 75
Note OFF: Time 628440, Note Name: C#3
Note ON: Time 628440, Note Name: F#3, Velocity: 69
Note OFF: Time 628560, Note Name: F#3
Note ON: Time 628560, Note Name: A#3, Velocity: 86
Note OFF: Time 628800, Note Name: A#3
Note ON: Time 629040, Note Name: F#3, Velocity: 75
Note OFF: Time 629160, Note Name: F#3
Note ON: Time 629160, Note Name: A#3, Velocity: 73
Note OFF: Time 629280, Note Name: A#3
Note ON: Time 629280, Note Name: C#4, Velocity: 86
Note OFF: Time 629520, Note Name: C#4
Note ON: Time 629760, Note Name: A#3, Velocity: 78
Note OFF: Time 629880, Note Name: A#3
Note ON: Time 629880, Note Name: C#4, Velocity: 73
Note OFF: Time 630000, Note Name: C#4
Note ON: Time 630000, Note Name: F#4, Velocity: 84
Note OFF: Time 630240, Note Name: F#4
Note ON: Time 630480, Note Name: C#4, Velocity: 77
Note OFF: Time 630600, Note Name: C#4
Note ON: Time 630600, Note Name: F#4, Velocity: 71
Note OFF: Time 630720, Note Name: F#4
Note ON: Time 630720, Note Name: A#4, Velocity: 81
Note OFF: Time 630960, Note Name: A#4
Note ON: Time 631200, Note Name: F#4, Velocity: 75
Note OFF: Time 631320, Note Name: F#4
Note ON: Time 631320, Note Name: A#4, Velocity: 74
Note OFF: Time 631440, Note Name: A#4
Note ON: Time 631440, Note Name: C#5, Velocity: 81
Note OFF: Time 631680, Note Name: C#5
Note ON: Time 631920, Note Name: A#4, Velocity: 75
Note OFF: Time 632040, Note Name: A#4
Note ON: Time 632040, Note Name: C#5, Velocity: 73
Note OFF: Time 632160, Note Name: C#5
Note ON: Time 632160, Note Name: F#5, Velocity: 84
Note OFF: Time 632400, Note Name: F#5
Note ON: Time 632640, Note Name: C#5, Velocity: 75
Note OFF: Time 632760, Note Name: C#5
Note ON: Time 632760, Note Name: F#5, Velocity: 74
Note OFF: Time 632880, Note Name: F#5
Note ON: Time 632880, Note Name: A#5, Velocity: 83
Note OFF: Time 633120, Note Name: A#5
Note ON: Time 633600, Note Name: C3, Velocity: 101
Note ON: Time 633600, Note Name: C2, Velocity: 101
Note OFF: Time 633840, Note Name: C2
Note OFF: Time 633840, Note Name: C3
Note ON: Time 634080, Note Name: D#3, Velocity: 80
Note OFF: Time 634200, Note Name: D#3
Note ON: Time 634200, Note Name: A3, Velocity: 73
Note OFF: Time 634320, Note Name: A3
Note ON: Time 634320, Note Name: C4, Velocity: 89
Note OFF: Time 634560, Note Name: C4
Note ON: Time 634800, Note Name: A3, Velocity: 78
Note OFF: Time 634920, Note Name: A3
Note ON: Time 634920, Note Name: C4, Velocity: 73
Note OFF: Time 635040, Note Name: C4
Note ON: Time 635040, Note Name: D#4, Velocity: 86
Note OFF: Time 635280, Note Name: D#4
Note ON: Time 635520, Note Name: C4, Velocity: 78
Note OFF: Time 635640, Note Name: C4
Note ON: Time 635640, Note Name: D#4, Velocity: 73
Note OFF: Time 635760, Note Name: D#4
Note ON: Time 635760, Note Name: A4, Velocity: 84
Note OFF: Time 636000, Note Name: A4
Note ON: Time 636240, Note Name: D#4, Velocity: 77
Note OFF: Time 636360, Note Name: D#4
Note ON: Time 636360, Note Name: A4, Velocity: 71
Note OFF: Time 636480, Note Name: A4
Note ON: Time 636480, Note Name: C5, Velocity: 82
Note OFF: Time 636720, Note Name: C5
Note ON: Time 636960, Note Name: A4, Velocity: 75
Note OFF: Time 637080, Note Name: A4
Note ON: Time 637080, Note Name: C5, Velocity: 73
Note OFF: Time 637200, Note Name: C5
Note ON: Time 637200, Note Name: D#5, Velocity: 85
Note OFF: Time 637440, Note Name: D#5
Note ON: Time 637680, Note Name: C5, Velocity: 75
Note OFF: Time 637800, Note Name: C5
Note ON: Time 637800, Note Name: D#5, Velocity: 73
Note OFF: Time 637920, Note Name: D#5
Note ON: Time 637920, Note Name: A5, Velocity: 84
Note OFF: Time 638160, Note Name: A5
Note ON: Time 638400, Note Name: D#5, Velocity: 80
Note OFF: Time 638520, Note Name: D#5
Note ON: Time 638520, Note Name: A5, Velocity: 74
Note OFF: Time 638640, Note Name: A5
Note ON: Time 638640, Note Name: C6, Velocity: 85
Note OFF: Time 638880, Note Name: C6
Note ON: Time 639360, Note Name: C#2, Velocity: 101
Note ON: Time 639360, Note Name: C#3, Velocity: 101
Note OFF: Time 639600, Note Name: C#3
Note OFF: Time 639600, Note Name: C#2
Note ON: Time 639840, Note Name: F3, Velocity: 78
Note OFF: Time 639960, Note Name: F3
Note ON: Time 639960, Note Name: A#3, Velocity: 73
Note OFF: Time 640080, Note Name: A#3
Note ON: Time 640080, Note Name: C#4, Velocity: 84
Note OFF: Time 640320, Note Name: C#4
Note ON: Time 640800, Note Name: E3, Velocity: 101
Note ON: Time 640800, Note Name: E2, Velocity: 101
Note OFF: Time 641040, Note Name: E2
Note OFF: Time 641040, Note Name: E3
Note ON: Time 641280, Note Name: G3, Velocity: 80
Note OFF: Time 641400, Note Name: G3
Note ON: Time 641400, Note Name: C4, Velocity: 73
Note OFF: Time 641520, Note Name: C4
Note ON: Time 641520, Note Name: E4, Velocity: 82
Note OFF: Time 641760, Note Name: E4
Note ON: Time 642240, Note Name: F3, Velocity: 101
Note ON: Time 642240, Note Name: F2, Velocity: 101
Note OFF: Time 642480, Note Name: F2
Note OFF: Time 642480, Note Name: F3
Note ON: Time 642720, Note Name: G#3, Velocity: 80
Note OFF: Time 642840, Note Name: G#3
Note ON: Time 642840, Note Name: C#4, Velocity: 73
Note OFF: Time 642960, Note Name: C#4
Note ON: Time 642960, Note Name: F4, Velocity: 86
Note OFF: Time 643200, Note Name: F4
Note ON: Time 643680, Note Name: G2, Velocity: 101
Note ON: Time 643680, Note Name: G3, Velocity: 101
Note OFF: Time 643920, Note Name: G3
Note OFF: Time 643920, Note Name: G2
Note ON: Time 644160, Note Name: A#3, Velocity: 80
Note OFF: Time 644280, Note Name: A#3
Note ON: Time 644280, Note Name: E4, Velocity: 73
Note OFF: Time 644400, Note Name: E4
Note ON: Time 644400, Note Name: G4, Velocity: 86
Note OFF: Time 644640, Note Name: G4
Note ON: Time 645120, Note Name: G#2, Velocity: 75
Note OFF: Time 645360, Note Name: G#2
Note ON: Time 645600, Note Name: G#3, Velocity: 69
Note OFF: Time 645720, Note Name: G#3
Note ON: Time 645720, Note Name: C4, Velocity: 61
Note OFF: Time 645840, Note Name: C4
Note ON: Time 645840, Note Name: A#2, Velocity: 77
Note OFF: Time 646080, Note Name: A#2
Note ON: Time 646320, Note Name: A#3, Velocity: 69
Note OFF: Time 646440, Note Name: A#3
Note ON: Time 646440, Note Name: C#4, Velocity: 64
Note OFF: Time 646560, Note Name: C#4
Note ON: Time 646560, Note Name: C3, Velocity: 78
Note OFF: Time 646800, Note Name: C3
Note ON: Time 647040, Note Name: C4, Velocity: 71
Note OFF: Time 647160, Note Name: C4
Note ON: Time 647160, Note Name: D#4, Velocity: 67
Note OFF: Time 647280, Note Name: D#4
Note ON: Time 647280, Note Name: C#3, Velocity: 81
Note OFF: Time 647520, Note Name: C#3
Note ON: Time 647760, Note Name: C#4, Velocity: 77
Note OFF: Time 647880, Note Name: C#4
Note ON: Time 647880, Note Name: F4, Velocity: 71
Note OFF: Time 648000, Note Name: F4
Note ON: Time 648000, Note Name: E3, Velocity: 80
Note OFF: Time 648240, Note Name: E3
Note ON: Time 648480, Note Name: E4, Velocity: 77
Note OFF: Time 648600, Note Name: E4
Note ON: Time 648600, Note Name: G4, Velocity: 73
Note OFF: Time 648720, Note Name: G4
Note ON: Time 648720, Note Name: F3, Velocity: 83
Note OFF: Time 648960, Note Name: F3
Note ON: Time 649200, Note Name: F4, Velocity: 77
Note OFF: Time 649320, Note Name: F4
Note ON: Time 649320, Note Name: G#4, Velocity: 72
Note OFF: Time 649440, Note Name: G#4
Note ON: Time 649440, Note Name: G3, Velocity: 84
Note OFF: Time 649680, Note Name: G3
Note ON: Time 649920, Note Name: G4, Velocity: 78
Note OFF: Time 650040, Note Name: G4
Note ON: Time 650040, Note Name: A#4, Velocity: 74
Note OFF: Time 650160, Note Name: A#4
Note ON: Time 650160, Note Name: G#3, Velocity: 85
Note OFF: Time 650400, Note Name: G#3
Note ON: Time 650640, Note Name: G#4, Velocity: 77
Note OFF: Time 650760, Note Name: G#4
Note ON: Time 650760, Note Name: C5, Velocity: 73
Note OFF: Time 650880, Note Name: C5
Note ON: Time 650880, Note Name: A#3, Velocity: 86
Note OFF: Time 651120, Note Name: A#3
Note ON: Time 651360, Note Name: A#4, Velocity: 81
Note OFF: Time 651480, Note Name: A#4
Note ON: Time 651480, Note Name: C#5, Velocity: 77
Note OFF: Time 651600, Note Name: C#5
Note ON: Time 651600, Note Name: C4, Velocity: 89
Note OFF: Time 651840, Note Name: C4
Note ON: Time 652080, Note Name: C5, Velocity: 80
Note OFF: Time 652200, Note Name: C5
Note ON: Time 652200, Note Name: D#5, Velocity: 78
Note OFF: Time 652320, Note Name: D#5
Note ON: Time 652320, Note Name: C#4, Velocity: 89
Note OFF: Time 652560, Note Name: C#4
Note ON: Time 652800, Note Name: C#5, Velocity: 83
Note OFF: Time 652920, Note Name: C#5
Note ON: Time 652920, Note Name: F5, Velocity: 80
Note OFF: Time 653040, Note Name: F5
Note ON: Time 653040, Note Name: C#4, Velocity: 92
Note OFF: Time 653280, Note Name: C#4
Note ON: Time 653520, Note Name: C#5, Velocity: 84
Note OFF: Time 653640, Note Name: C#5
Note ON: Time 653640, Note Name: F5, Velocity: 80
Note OFF: Time 653760, Note Name: F5
Note ON: Time 653760, Note Name: F2, Velocity: 108
Note OFF: Time 653880, Note Name: F2
Note ON: Time 653880, Note Name: F3, Velocity: 100
Note OFF: Time 654000, Note Name: F3
Note ON: Time 654000, Note Name: G#3, Velocity: 92
Note OFF: Time 654120, Note Name: G#3
Note ON: Time 656160, Note Name: A#3, Velocity: 74
Note OFF: Time 656280, Note Name: A#3
Note ON: Time 656280, Note Name: F3, Velocity: 74
Note OFF: Time 656400, Note Name: F3
Note ON: Time 656400, Note Name: C#3, Velocity: 74
Note OFF: Time 656520, Note Name: C#3
Note ON: Time 656520, Note Name: A#3, Velocity: 74
Note OFF: Time 656640, Note Name: A#3
Note ON: Time 656640, Note Name: F3, Velocity: 79
Note OFF: Time 656760, Note Name: F3
Note ON: Time 656760, Note Name: C#3, Velocity: 71
Note OFF: Time 656880, Note Name: C#3
Note ON: Time 656880, Note Name: A#2, Velocity: 74
Note OFF: Time 657000, Note Name: A#2
Note ON: Time 657000, Note Name: C#3, Velocity: 71
Note OFF: Time 657120, Note Name: C#3
Note ON: Time 657120, Note Name: F3, Velocity: 74
Note OFF: Time 657240, Note Name: F3
Note ON: Time 657240, Note Name: A#3, Velocity: 72
Note OFF: Time 657360, Note Name: A#3
Note ON: Time 659520, Note Name: D4, Velocity: 105
Note OFF: Time 659640, Note Name: D4
Note ON: Time 659640, Note Name: D5, Velocity: 100
Note OFF: Time 659760, Note Name: D5
Note ON: Time 659760, Note Name: F5, Velocity: 92
Note OFF: Time 659880, Note Name: F5
Note ON: Time 662760, Note Name: B3, Velocity: 71
Note OFF: Time 662880, Note Name: B3
Note ON: Time 662880, Note Name: G#3, Velocity: 74
Note OFF: Time 663000, Note Name: G#3
Note ON: Time 663000, Note Name: F3, Velocity: 72
Note OFF: Time 663120, Note Name: F3
Note ON: Time 663120, Note Name: D3, Velocity: 80
Note OFF: Time 663240, Note Name: D3
Note ON: Time 663240, Note Name: B2, Velocity: 75
Note OFF: Time 663360, Note Name: B2
Note ON: Time 663360, Note Name: D3, Velocity: 75
Note OFF: Time 663480, Note Name: D3
Note ON: Time 663480, Note Name: F3, Velocity: 75
Note OFF: Time 663600, Note Name: F3
Note ON: Time 663600, Note Name: G#3, Velocity: 79
Note OFF: Time 663720, Note Name: G#3
Note ON: Time 663720, Note Name: B3, Velocity: 73
Note OFF: Time 663840, Note Name: B3
Note ON: Time 665280, Note Name: C2, Velocity: 125
Note OFF: Time 665520, Note Name: C2
Note ON: Time 667680, Note Name: C4, Velocity: 74
Note OFF: Time 667800, Note Name: C4
Note ON: Time 667800, Note Name: G#3, Velocity: 74
Note OFF: Time 667920, Note Name: G#3
Note ON: Time 667920, Note Name: F3, Velocity: 74
Note OFF: Time 668040, Note Name: F3
Note ON: Time 668040, Note Name: C4, Velocity: 74
Note OFF: Time 668160, Note Name: C4
Note ON: Time 668160, Note Name: G#3, Velocity: 79
Note OFF: Time 668280, Note Name: G#3
Note ON: Time 668280, Note Name: F3, Velocity: 71
Note OFF: Time 668400, Note Name: F3
Note ON: Time 668400, Note Name: C3, Velocity: 74
Note OFF: Time 668520, Note Name: C3
Note ON: Time 668520, Note Name: G#2, Velocity: 71
Note OFF: Time 668640, Note Name: G#2
Note ON: Time 668640, Note Name: F2, Velocity: 74
Note OFF: Time 668760, Note Name: F2
Note ON: Time 668760, Note Name: C2, Velocity: 72
Note OFF: Time 668880, Note Name: C2
Note ON: Time 668880, Note Name: F2, Velocity: 80
Note OFF: Time 669000, Note Name: F2
Note ON: Time 669000, Note Name: G#2, Velocity: 75
Note OFF: Time 669120, Note Name: G#2
Note ON: Time 669120, Note Name: C3, Velocity: 75
Note OFF: Time 669240, Note Name: C3
Note ON: Time 669240, Note Name: F3, Velocity: 75
Note OFF: Time 669360, Note Name: F3
Note ON: Time 669360, Note Name: G#3, Velocity: 79
Note OFF: Time 669480, Note Name: G#3
Note ON: Time 669480, Note Name: C4, Velocity: 73
Note OFF: Time 669600, Note Name: C4
Note ON: Time 671040, Note Name: C2, Velocity: 82
Note OFF: Time 671160, Note Name: C2
Note ON: Time 671160, Note Name: C3, Velocity: 72
Note OFF: Time 671280, Note Name: C3
Note ON: Time 671280, Note Name: E3, Velocity: 73
Note OFF: Time 671400, Note Name: E3
Note ON: Time 671400, Note Name: G3, Velocity: 74
Note OFF: Time 671520, Note Name: G3
Note ON: Time 671520, Note Name: A#3, Velocity: 74
Note OFF: Time 671760, Note Name: A#3
Note ON: Time 672960, Note Name: C4, Velocity: 73
Note OFF: Time 673080, Note Name: C4
Note ON: Time 673080, Note Name: A#3, Velocity: 69
Note OFF: Time 673200, Note Name: A#3
Note ON: Time 673200, Note Name: G3, Velocity: 74
Note OFF: Time 673320, Note Name: G3
Note ON: Time 673320, Note Name: E3, Velocity: 69
Note OFF: Time 673440, Note Name: E3
Note ON: Time 673440, Note Name: C3, Velocity: 71
Note OFF: Time 673560, Note Name: C3
Note ON: Time 673560, Note Name: A#2, Velocity: 70
Note OFF: Time 673680, Note Name: A#2
Note ON: Time 673680, Note Name: G2, Velocity: 70
Note OFF: Time 673800, Note Name: G2
Note ON: Time 673800, Note Name: E2, Velocity: 70
Note OFF: Time 673920, Note Name: E2
Note ON: Time 673920, Note Name: C2, Velocity: 75
Note OFF: Time 674040, Note Name: C2
Note ON: Time 674040, Note Name: E2, Velocity: 67
Note OFF: Time 674160, Note Name: E2
Note ON: Time 674160, Note Name: G2, Velocity: 70
Note OFF: Time 674280, Note Name: G2
Note ON: Time 674280, Note Name: A#2, Velocity: 67
Note OFF: Time 674400, Note Name: A#2
Note ON: Time 674400, Note Name: C3, Velocity: 70
Note OFF: Time 674520, Note Name: C3
Note ON: Time 674520, Note Name: E3, Velocity: 68
Note OFF: Time 674640, Note Name: E3
Note ON: Time 674640, Note Name: G3, Velocity: 76
Note OFF: Time 674760, Note Name: G3
Note ON: Time 674760, Note Name: A#3, Velocity: 71
Note OFF: Time 674880, Note Name: A#3
Note ON: Time 677520, Note Name: C#3, Velocity: 37
Note OFF: Time 677760, Note Name: C#3
Note ON: Time 677760, Note Name: C#3, Velocity: 35
Note OFF: Time 678000, Note Name: C#3
Note ON: Time 678000, Note Name: C#3, Velocity: 35
Note OFF: Time 678240, Note Name: C#3
Note ON: Time 678240, Note Name: C3, Velocity: 36
Note OFF: Time 678720, Note Name: C3
Note ON: Time 680400, Note Name: C#3, Velocity: 35
Note OFF: Time 680640, Note Name: C#3
Note ON: Time 680640, Note Name: C#3, Velocity: 33
Note OFF: Time 680880, Note Name: C#3
Note ON: Time 680880, Note Name: C#3, Velocity: 33
Note OFF: Time 681120, Note Name: C#3
Note ON: Time 681120, Note Name: C3, Velocity: 34
Note OFF: Time 681600, Note Name: C3
Note ON: Time 683280, Note Name: C#2, Velocity: 32
Note OFF: Time 683520, Note Name: C#2
Note ON: Time 683520, Note Name: C#2, Velocity: 30
Note OFF: Time 683760, Note Name: C#2
Note ON: Time 683760, Note Name: C#2, Velocity: 30
Note OFF: Time 684000, Note Name: C#2
Note ON: Time 684000, Note Name: C2, Velocity: 31
Note OFF: Time 684720, Note Name: C2
Note ON: Time 684720, Note Name: C#2, Velocity: 31
Note OFF: Time 684960, Note Name: C#2
Note ON: Time 684960, Note Name: C#2, Velocity: 29
Note OFF: Time 685200, Note Name: C#2
Note ON: Time 685200, Note Name: C#2, Velocity: 29
Note OFF: Time 685440, Note Name: C#2
Note ON: Time 685440, Note Name: C2, Velocity: 29
Note OFF: Time 686160, Note Name: C2
Note ON: Time 686160, Note Name: C#2, Velocity: 21
Note OFF: Time 686400, Note Name: C#2
Note ON: Time 686400, Note Name: C#2, Velocity: 24
Note OFF: Time 686640, Note Name: C#2
Note ON: Time 686640, Note Name: C#2, Velocity: 26
Note OFF: Time 686880, Note Name: C#2
Note ON: Time 686880, Note Name: C2, Velocity: 28
Note OFF: Time 687600, Note Name: C2
Note ON: Time 687600, Note Name: C2, Velocity: 70
Note ON: Time 687600, Note Name: C3, Velocity: 83
Note OFF: Time 687840, Note Name: C3
Note OFF: Time 687840, Note Name: C2
Note ON: Time 687840, Note Name: C3, Velocity: 78
Note ON: Time 687840, Note Name: C2, Velocity: 65
Note OFF: Time 688080, Note Name: C2
Note OFF: Time 688080, Note Name: C3
Note ON: Time 688080, Note Name: C3, Velocity: 78
Note ON: Time 688080, Note Name: C2, Velocity: 65
Note OFF: Time 688320, Note Name: C2
Note OFF: Time 688320, Note Name: C3
Note ON: Time 688320, Note Name: F1, Velocity: 71
Note ON: Time 688320, Note Name: F2, Velocity: 85
Note OFF: Time 688560, Note Name: F2
Note OFF: Time 688560, Note Name: F1
Note ON: Time 688560, Note Name: F4, Velocity: 30
Note ON: Time 688560, Note Name: C4, Velocity: 30
Note OFF: Time 688800, Note Name: C4
Note OFF: Time 688800, Note Name: F4
Note ON: Time 688800, Note Name: G#3, Velocity: 37
Note OFF: Time 689040, Note Name: G#3
Note ON: Time 689040, Note Name: F4, Velocity: 42
Note ON: Time 689040, Note Name: C4, Velocity: 32
Note OFF: Time 689280, Note Name: C4
Note OFF: Time 689280, Note Name: F4
Note ON: Time 689280, Note Name: G#3, Velocity: 37
Note OFF: Time 689520, Note Name: G#3
Note ON: Time 689520, Note Name: C4, Velocity: 30
Note ON: Time 689520, Note Name: F4, Velocity: 37
Note OFF: Time 689760, Note Name: F4
Note OFF: Time 689760, Note Name: C4
Note ON: Time 689760, Note Name: G#3, Velocity: 42
Note OFF: Time 690000, Note Name: G#3
Note ON: Time 690000, Note Name: F4, Velocity: 37
Note ON: Time 690000, Note Name: C4, Velocity: 30
Note OFF: Time 690240, Note Name: C4
Note OFF: Time 690240, Note Name: F4
Note ON: Time 690240, Note Name: G#3, Velocity: 37
Note OFF: Time 690480, Note Name: G#3
Note ON: Time 690480, Note Name: F4, Velocity: 42
Note ON: Time 690480, Note Name: C4, Velocity: 32
Note OFF: Time 690720, Note Name: C4
Note OFF: Time 690720, Note Name: F4
Note ON: Time 690720, Note Name: G#3, Velocity: 37
Note OFF: Time 690960, Note Name: G#3
Note ON: Time 690960, Note Name: F4, Velocity: 41
Note ON: Time 690960, Note Name: C4, Velocity: 31
Note OFF: Time 691200, Note Name: C4
Note OFF: Time 691200, Note Name: F4
Note ON: Time 691200, Note Name: G#3, Velocity: 42
Note OFF: Time 691440, Note Name: G#3
Note ON: Time 691440, Note Name: C4, Velocity: 30
Note ON: Time 691440, Note Name: F4, Velocity: 36
Note OFF: Time 691680, Note Name: F4
Note OFF: Time 691680, Note Name: C4
Note ON: Time 691680, Note Name: G#3, Velocity: 37
Note OFF: Time 691920, Note Name: G#3
Note ON: Time 691920, Note Name: F4, Velocity: 42
Note ON: Time 691920, Note Name: C4, Velocity: 32
Note OFF: Time 692160, Note Name: C4
Note OFF: Time 692160, Note Name: F4
Note ON: Time 692160, Note Name: G#3, Velocity: 37
Note OFF: Time 692400, Note Name: G#3
Note ON: Time 692400, Note Name: F4, Velocity: 37
Note ON: Time 692400, Note Name: C4, Velocity: 30
Note OFF: Time 692640, Note Name: C4
Note OFF: Time 692640, Note Name: F4
Note ON: Time 692640, Note Name: A#3, Velocity: 42
Note OFF: Time 692880, Note Name: A#3
Note ON: Time 692880, Note Name: G4, Velocity: 37
Note ON: Time 692880, Note Name: C4, Velocity: 30
Note OFF: Time 693120, Note Name: C4
Note OFF: Time 693120, Note Name: G4
Note ON: Time 693120, Note Name: A#3, Velocity: 37
Note OFF: Time 693360, Note Name: A#3
Note ON: Time 693360, Note Name: G4, Velocity: 42
Note ON: Time 693360, Note Name: C4, Velocity: 32
Note OFF: Time 693600, Note Name: C4
Note OFF: Time 693600, Note Name: G4
Note ON: Time 693600, Note Name: A#3, Velocity: 37
Note OFF: Time 693840, Note Name: A#3
Note ON: Time 693840, Note Name: G4, Velocity: 41
Note ON: Time 693840, Note Name: C4, Velocity: 31
Note OFF: Time 694080, Note Name: C4
Note OFF: Time 694080, Note Name: G4
Note ON: Time 694080, Note Name: G#3, Velocity: 42
Note OFF: Time 694320, Note Name: G#3
Note ON: Time 694320, Note Name: C4, Velocity: 30
Note ON: Time 694320, Note Name: F4, Velocity: 36
Note OFF: Time 694560, Note Name: F4
Note OFF: Time 694560, Note Name: C4
Note ON: Time 694560, Note Name: G#3, Velocity: 37
Note OFF: Time 694800, Note Name: G#3
Note ON: Time 694800, Note Name: C4, Velocity: 32
Note ON: Time 694800, Note Name: F4, Velocity: 42
Note OFF: Time 695040, Note Name: F4
Note OFF: Time 695040, Note Name: C4
Note ON: Time 695040, Note Name: G#3, Velocity: 37
Note OFF: Time 695280, Note Name: G#3
Note ON: Time 695280, Note Name: C4, Velocity: 30
Note ON: Time 695280, Note Name: F4, Velocity: 37
Note OFF: Time 695520, Note Name: F4
Note OFF: Time 695520, Note Name: C4
Note ON: Time 695520, Note Name: G#3, Velocity: 42
Note OFF: Time 695760, Note Name: G#3
Note ON: Time 695760, Note Name: C4, Velocity: 30
Note ON: Time 695760, Note Name: F4, Velocity: 37
Note OFF: Time 696000, Note Name: F4
Note OFF: Time 696000, Note Name: C4
Note ON: Time 696000, Note Name: G#3, Velocity: 42
Note OFF: Time 696240, Note Name: G#3
Note ON: Time 696240, Note Name: C4, Velocity: 34
Note ON: Time 696240, Note Name: F4, Velocity: 44
Note OFF: Time 696480, Note Name: F4
Note OFF: Time 696480, Note Name: C4
Note ON: Time 696480, Note Name: G#3, Velocity: 40
Note OFF: Time 696720, Note Name: G#3
Note ON: Time 696720, Note Name: C4, Velocity: 33
Note ON: Time 696720, Note Name: F4, Velocity: 44
Note OFF: Time 696960, Note Name: F4
Note OFF: Time 696960, Note Name: C4
Note ON: Time 696960, Note Name: G#3, Velocity: 46
Note OFF: Time 697200, Note Name: G#3
Note ON: Time 697200, Note Name: G#4, Velocity: 40
Note ON: Time 697200, Note Name: C4, Velocity: 34
Note ON: Time 697200, Note Name: F4, Velocity: 40
Note OFF: Time 697440, Note Name: F4
Note OFF: Time 697440, Note Name: C4
Note OFF: Time 697440, Note Name: G#4
Note ON: Time 697440, Note Name: G#3, Velocity: 42
Note OFF: Time 697680, Note Name: G#3
Note ON: Time 697680, Note Name: G#4, Velocity: 47
Note ON: Time 697680, Note Name: C4, Velocity: 36
Note ON: Time 697680, Note Name: F4, Velocity: 47
Note OFF: Time 697920, Note Name: F4
Note OFF: Time 697920, Note Name: C4
Note OFF: Time 697920, Note Name: G#4
Note ON: Time 697920, Note Name: G#3, Velocity: 43
Note OFF: Time 698160, Note Name: G#3
Note ON: Time 698160, Note Name: G#4, Velocity: 44
Note ON: Time 698160, Note Name: F4, Velocity: 44
Note ON: Time 698160, Note Name: C4, Velocity: 36
Note OFF: Time 698400, Note Name: C4
Note OFF: Time 698400, Note Name: F4
Note OFF: Time 698400, Note Name: G#4
Note ON: Time 698400, Note Name: A#3, Velocity: 49
Note OFF: Time 698640, Note Name: A#3
Note ON: Time 698640, Note Name: E4, Velocity: 36
Note ON: Time 698640, Note Name: C4, Velocity: 36
Note ON: Time 698640, Note Name: G4, Velocity: 45
Note OFF: Time 698880, Note Name: G4
Note OFF: Time 698880, Note Name: C4
Note OFF: Time 698880, Note Name: E4
Note ON: Time 698880, Note Name: A#3, Velocity: 46
Note OFF: Time 699120, Note Name: A#3
Note ON: Time 699120, Note Name: E4, Velocity: 39
Note ON: Time 699120, Note Name: G4, Velocity: 51
Note ON: Time 699120, Note Name: C4, Velocity: 39
Note OFF: Time 699360, Note Name: C4
Note OFF: Time 699360, Note Name: G4
Note OFF: Time 699360, Note Name: E4
Note ON: Time 699360, Note Name: A#3, Velocity: 47
Note OFF: Time 699600, Note Name: A#3
Note ON: Time 699600, Note Name: E4, Velocity: 38
Note ON: Time 699600, Note Name: G4, Velocity: 51
Note ON: Time 699600, Note Name: C4, Velocity: 38
Note OFF: Time 699840, Note Name: C4
Note OFF: Time 699840, Note Name: G4
Note OFF: Time 699840, Note Name: E4
Note ON: Time 699840, Note Name: A3, Velocity: 55
Note OFF: Time 700080, Note Name: A3
Note ON: Time 700080, Note Name: F#4, Velocity: 48
Note ON: Time 700080, Note Name: D#4, Velocity: 48
Note ON: Time 700080, Note Name: C4, Velocity: 39
Note OFF: Time 700320, Note Name: C4
Note OFF: Time 700320, Note Name: D#4
Note OFF: Time 700320, Note Name: F#4
Note ON: Time 700320, Note Name: A3, Velocity: 49
Note OFF: Time 700560, Note Name: A3
Note ON: Time 700560, Note Name: F#4, Velocity: 55
Note ON: Time 700560, Note Name: C4, Velocity: 41
Note ON: Time 700560, Note Name: D#4, Velocity: 55
Note OFF: Time 700800, Note Name: D#4
Note OFF: Time 700800, Note Name: C4
Note OFF: Time 700800, Note Name: F#4
Note ON: Time 700800, Note Name: A3, Velocity: 49
Note OFF: Time 701040, Note Name: A3
Note ON: Time 701040, Note Name: C4, Velocity: 39
Note ON: Time 701040, Note Name: D#4, Velocity: 49
Note ON: Time 701040, Note Name: F#4, Velocity: 49
Note OFF: Time 701280, Note Name: F#4
Note OFF: Time 701280, Note Name: D#4
Note OFF: Time 701280, Note Name: C4
Note ON: Time 701280, Note Name: A3, Velocity: 55
Note OFF: Time 701520, Note Name: A3
Note ON: Time 701520, Note Name: F#4, Velocity: 49
Note ON: Time 701520, Note Name: C4, Velocity: 39
Note ON: Time 701520, Note Name: D#4, Velocity: 49
Note OFF: Time 701760, Note Name: D#4
Note OFF: Time 701760, Note Name: C4
Note OFF: Time 701760, Note Name: F#4
Note ON: Time 701760, Note Name: A3, Velocity: 55
Note OFF: Time 702000, Note Name: A3
Note ON: Time 702000, Note Name: D#4, Velocity: 40
Note ON: Time 702000, Note Name: F#4, Velocity: 53
Note ON: Time 702000, Note Name: C4, Velocity: 40
Note OFF: Time 702240, Note Name: C4
Note OFF: Time 702240, Note Name: F#4
Note OFF: Time 702240, Note Name: D#4
Note ON: Time 702240, Note Name: A3, Velocity: 48
Note OFF: Time 702480, Note Name: A3
Note ON: Time 702480, Note Name: D#4, Velocity: 39
Note ON: Time 702480, Note Name: F#4, Velocity: 52
Note ON: Time 702480, Note Name: C4, Velocity: 39
Note OFF: Time 702720, Note Name: C4
Note OFF: Time 702720, Note Name: F#4
Note OFF: Time 702720, Note Name: D#4
Note ON: Time 702720, Note Name: A3, Velocity: 55
Note OFF: Time 702960, Note Name: A3
Note ON: Time 702960, Note Name: F4, Velocity: 48
Note ON: Time 702960, Note Name: D#4, Velocity: 48
Note ON: Time 702960, Note Name: C4, Velocity: 39
Note OFF: Time 703200, Note Name: C4
Note OFF: Time 703200, Note Name: D#4
Note OFF: Time 703200, Note Name: F4
Note ON: Time 703200, Note Name: A3, Velocity: 49
Note OFF: Time 703440, Note Name: A3
Note ON: Time 703440, Note Name: F4, Velocity: 55
Note ON: Time 703440, Note Name: C#4, Velocity: 55
Note OFF: Time 703680, Note Name: C#4
Note OFF: Time 703680, Note Name: F4
Note ON: Time 703680, Note Name: A#3, Velocity: 49
Note OFF: Time 703920, Note Name: A#3
Note ON: Time 703920, Note Name: C#4, Velocity: 49
Note ON: Time 703920, Note Name: F4, Velocity: 49
Note OFF: Time 704160, Note Name: F4
Note OFF: Time 704160, Note Name: C#4
Note ON: Time 704160, Note Name: A#3, Velocity: 55
Note OFF: Time 704400, Note Name: A#3
Note ON: Time 704400, Note Name: F4, Velocity: 49
Note ON: Time 704400, Note Name: C#4, Velocity: 49
Note OFF: Time 704640, Note Name: C#4
Note OFF: Time 704640, Note Name: F4
Note ON: Time 704640, Note Name: A#3, Velocity: 55
Note OFF: Time 704880, Note Name: A#3
Note ON: Time 704880, Note Name: G4, Velocity: 53
Note ON: Time 704880, Note Name: E4, Velocity: 40
Note OFF: Time 705120, Note Name: E4
Note OFF: Time 705120, Note Name: G4
Note ON: Time 705120, Note Name: A#3, Velocity: 48
Note OFF: Time 705360, Note Name: A#3
Note ON: Time 705360, Note Name: E4, Velocity: 39
Note ON: Time 705360, Note Name: G4, Velocity: 52
Note OFF: Time 705600, Note Name: G4
Note OFF: Time 705600, Note Name: E4
Note ON: Time 705600, Note Name: C3, Velocity: 55
Note OFF: Time 705840, Note Name: C3
Note ON: Time 705840, Note Name: F3, Velocity: 39
Note ON: Time 705840, Note Name: G#3, Velocity: 48
Note ON: Time 705840, Note Name: C4, Velocity: 48
Note OFF: Time 706080, Note Name: C4
Note OFF: Time 706080, Note Name: G#3
Note OFF: Time 706080, Note Name: F3
Note ON: Time 706080, Note Name: C3, Velocity: 49
Note OFF: Time 706320, Note Name: C3
Note ON: Time 706320, Note Name: G#3, Velocity: 40
Note ON: Time 706320, Note Name: C4, Velocity: 53
Note ON: Time 706320, Note Name: F3, Velocity: 40
Note OFF: Time 706560, Note Name: F3
Note OFF: Time 706560, Note Name: C4
Note OFF: Time 706560, Note Name: G#3
Note ON: Time 706560, Note Name: C3, Velocity: 48
Note OFF: Time 706800, Note Name: C3
Note ON: Time 706800, Note Name: G#3, Velocity: 39
Note ON: Time 706800, Note Name: F3, Velocity: 39
Note ON: Time 706800, Note Name: C4, Velocity: 52
Note OFF: Time 707040, Note Name: C4
Note OFF: Time 707040, Note Name: F3
Note OFF: Time 707040, Note Name: G#3
Note ON: Time 707040, Note Name: A#2, Velocity: 55
Note OFF: Time 707280, Note Name: A#2
Note ON: Time 707280, Note Name: C3, Velocity: 39
Note ON: Time 707280, Note Name: E3, Velocity: 48
Note ON: Time 707280, Note Name: G3, Velocity: 48
Note OFF: Time 707520, Note Name: G3
Note OFF: Time 707520, Note Name: E3
Note OFF: Time 707520, Note Name: C3
Note ON: Time 707520, Note Name: A#2, Velocity: 49
Note OFF: Time 707760, Note Name: A#2
Note ON: Time 707760, Note Name: E3, Velocity: 39
Note ON: Time 707760, Note Name: C3, Velocity: 39
Note ON: Time 707760, Note Name: G3, Velocity: 51
Note OFF: Time 708000, Note Name: G3
Note OFF: Time 708000, Note Name: C3
Note OFF: Time 708000, Note Name: E3
Note ON: Time 708000, Note Name: A#2, Velocity: 47
Note OFF: Time 708240, Note Name: A#2
Note ON: Time 708240, Note Name: G3, Velocity: 50
Note ON: Time 708240, Note Name: C3, Velocity: 38
Note ON: Time 708240, Note Name: E3, Velocity: 38
Note OFF: Time 708480, Note Name: E3
Note OFF: Time 708480, Note Name: C3
Note OFF: Time 708480, Note Name: G3
Note ON: Time 708480, Note Name: A2, Velocity: 53
Note OFF: Time 708720, Note Name: A2
Note ON: Time 708720, Note Name: D#3, Velocity: 38
Note ON: Time 708720, Note Name: A3, Velocity: 47
Note ON: Time 708720, Note Name: F#3, Velocity: 47
Note ON: Time 708940, Note Name: A2, Velocity: 48
Note OFF: Time 708960, Note Name: F#3
Note OFF: Time 708960, Note Name: D#3
Note OFF: Time 708960, Note Name: A3
Note OFF: Time 709180, Note Name: A2
Note ON: Time 709200, Note Name: D#3, Velocity: 53
Note ON: Time 709200, Note Name: A3, Velocity: 53
Note ON: Time 709200, Note Name: F#3, Velocity: 53
Note OFF: Time 709440, Note Name: F#3
Note OFF: Time 709440, Note Name: A3
Note OFF: Time 709440, Note Name: D#3
Note ON: Time 709440, Note Name: A2, Velocity: 48
Note OFF: Time 709680, Note Name: A2
Note ON: Time 709680, Note Name: D#3, Velocity: 48
Note ON: Time 709680, Note Name: A3, Velocity: 48
Note ON: Time 709680, Note Name: F#3, Velocity: 48
Note OFF: Time 709920, Note Name: F#3
Note OFF: Time 709920, Note Name: A3
Note OFF: Time 709920, Note Name: D#3
Note ON: Time 709920, Note Name: A2, Velocity: 53
Note OFF: Time 710160, Note Name: A2
Note ON: Time 710160, Note Name: D#3, Velocity: 48
Note ON: Time 710160, Note Name: A3, Velocity: 48
Note ON: Time 710160, Note Name: F#3, Velocity: 48
Note OFF: Time 710400, Note Name: F#3
Note OFF: Time 710400, Note Name: A3
Note OFF: Time 710400, Note Name: D#3
Note ON: Time 710400, Note Name: A2, Velocity: 53
Note OFF: Time 710640, Note Name: A2
Note ON: Time 710640, Note Name: F#3, Velocity: 45
Note ON: Time 710640, Note Name: A3, Velocity: 59
Note ON: Time 710640, Note Name: D#3, Velocity: 45
Note OFF: Time 710880, Note Name: D#3
Note OFF: Time 710880, Note Name: A3
Note OFF: Time 710880, Note Name: F#3
Note ON: Time 710880, Note Name: A2, Velocity: 49
Note OFF: Time 711120, Note Name: A2
Note ON: Time 711120, Note Name: F#3, Velocity: 39
Note ON: Time 711120, Note Name: A3, Velocity: 55
Note ON: Time 711120, Note Name: D#3, Velocity: 39
Note OFF: Time 711360, Note Name: D#3
Note OFF: Time 711360, Note Name: A3
Note OFF: Time 711360, Note Name: F#3
Note ON: Time 711360, Note Name: A2, Velocity: 57
Note OFF: Time 711600, Note Name: A2
Note ON: Time 711600, Note Name: A3, Velocity: 49
Note ON: Time 711600, Note Name: F3, Velocity: 49
Note ON: Time 711600, Note Name: D#3, Velocity: 39
Note OFF: Time 711840, Note Name: D#3
Note OFF: Time 711840, Note Name: F3
Note OFF: Time 711840, Note Name: A3
Note ON: Time 711840, Note Name: A2, Velocity: 49
Note OFF: Time 712080, Note Name: A2
Note ON: Time 712080, Note Name: C#3, Velocity: 57
Note ON: Time 712080, Note Name: F3, Velocity: 57
Note ON: Time 712080, Note Name: A#3, Velocity: 57
Note OFF: Time 712320, Note Name: A#3
Note OFF: Time 712320, Note Name: F3
Note OFF: Time 712320, Note Name: C#3
Note ON: Time 712320, Note Name: A#2, Velocity: 49
Note OFF: Time 712560, Note Name: A#2
Note ON: Time 712560, Note Name: C#3, Velocity: 49
Note ON: Time 712560, Note Name: F3, Velocity: 49
Note ON: Time 712560, Note Name: A#3, Velocity: 49
Note OFF: Time 712800, Note Name: A#3
Note OFF: Time 712800, Note Name: F3
Note OFF: Time 712800, Note Name: C#3
Note ON: Time 712800, Note Name: A#2, Velocity: 57
Note OFF: Time 713040, Note Name: A#2
Note ON: Time 713040, Note Name: C#3, Velocity: 49
Note ON: Time 713040, Note Name: F3, Velocity: 49
Note ON: Time 713040, Note Name: A#3, Velocity: 49
Note OFF: Time 713280, Note Name: A#3
Note OFF: Time 713280, Note Name: F3
Note OFF: Time 713280, Note Name: C#3
Note ON: Time 713280, Note Name: A#2, Velocity: 57
Note OFF: Time 713520, Note Name: A#2
Note ON: Time 713520, Note Name: G3, Velocity: 56
Note ON: Time 713520, Note Name: A#3, Velocity: 56
Note ON: Time 713520, Note Name: E3, Velocity: 40
Note OFF: Time 713760, Note Name: E3
Note OFF: Time 713760, Note Name: A#3
Note OFF: Time 713760, Note Name: G3
Note ON: Time 713760, Note Name: A#2, Velocity: 49
Note OFF: Time 714000, Note Name: A#2
Note ON: Time 714000, Note Name: E3, Velocity: 39
Note ON: Time 714000, Note Name: A#3, Velocity: 55
Note ON: Time 714000, Note Name: G3, Velocity: 55
Note OFF: Time 714240, Note Name: G3
Note OFF: Time 714240, Note Name: A#3
Note OFF: Time 714240, Note Name: E3
Note ON: Time 714240, Note Name: C3, Velocity: 57
Note OFF: Time 714480, Note Name: C3
Note ON: Time 714480, Note Name: C4, Velocity: 49
Note ON: Time 714480, Note Name: G#3, Velocity: 49
Note ON: Time 714480, Note Name: F3, Velocity: 39
Note OFF: Time 714720, Note Name: F3
Note OFF: Time 714720, Note Name: G#3
Note OFF: Time 714720, Note Name: C4
Note ON: Time 714720, Note Name: C3, Velocity: 49
Note OFF: Time 714960, Note Name: C3
Note ON: Time 714960, Note Name: F3, Velocity: 40
Note ON: Time 714960, Note Name: C4, Velocity: 56
Note ON: Time 714960, Note Name: G#3, Velocity: 40
Note OFF: Time 715200, Note Name: G#3
Note OFF: Time 715200, Note Name: C4
Note OFF: Time 715200, Note Name: F3
Note ON: Time 715200, Note Name: C3, Velocity: 49
Note OFF: Time 715440, Note Name: C3
Note ON: Time 715440, Note Name: F3, Velocity: 39
Note ON: Time 715440, Note Name: C4, Velocity: 55
Note ON: Time 715440, Note Name: G#3, Velocity: 39
Note OFF: Time 715680, Note Name: G#3
Note OFF: Time 715680, Note Name: C4
Note OFF: Time 715680, Note Name: F3
Note ON: Time 715680, Note Name: C3, Velocity: 57
Note OFF: Time 715920, Note Name: C3
Note ON: Time 715920, Note Name: C4, Velocity: 49
Note ON: Time 715920, Note Name: E3, Velocity: 49
Note ON: Time 715920, Note Name: G3, Velocity: 39
Note OFF: Time 716160, Note Name: G3
Note OFF: Time 716160, Note Name: E3
Note OFF: Time 716160, Note Name: C4
Note ON: Time 716160, Note Name: C3, Velocity: 49
Note OFF: Time 716400, Note Name: C3
Note ON: Time 716400, Note Name: C4, Velocity: 49
Note ON: Time 716400, Note Name: G3, Velocity: 37
Note ON: Time 716400, Note Name: E3, Velocity: 37
Note OFF: Time 716640, Note Name: E3
Note OFF: Time 716640, Note Name: G3
Note OFF: Time 716640, Note Name: C4
Note ON: Time 716640, Note Name: C3, Velocity: 44
Note OFF: Time 716880, Note Name: C3
Note ON: Time 716880, Note Name: C4, Velocity: 48
Note ON: Time 716880, Note Name: G3, Velocity: 36
Note ON: Time 716880, Note Name: E3, Velocity: 36
Note OFF: Time 717120, Note Name: E3
Note OFF: Time 717120, Note Name: G3
Note OFF: Time 717120, Note Name: C4
Note ON: Time 717120, Note Name: F2, Velocity: 63
Note ON: Time 717120, Note Name: C3, Velocity: 63
Note ON: Time 717120, Note Name: F3, Velocity: 75
Note ON: Time 717120, Note Name: G#2, Velocity: 63
Note OFF: Time 717600, Note Name: G#2
Note OFF: Time 717600, Note Name: F2
Note OFF: Time 717600, Note Name: C3
Note OFF: Time 717600, Note Name: F3
Note ON: Time 718080, Note Name: F3, Velocity: 79
Note ON: Time 718080, Note Name: G#3, Velocity: 79
Note OFF: Time 718300, Note Name: G#3
Note OFF: Time 718300, Note Name: F3
Note ON: Time 718320, Note Name: F3, Velocity: 76
Note ON: Time 718320, Note Name: G#3, Velocity: 76
Note OFF: Time 718540, Note Name: G#3
Note OFF: Time 718540, Note Name: F3
Note ON: Time 718560, Note Name: E3, Velocity: 80
Note ON: Time 718560, Note Name: G3, Velocity: 80
Note OFF: Time 719040, Note Name: G3
Note OFF: Time 719040, Note Name: E3
Note ON: Time 719520, Note Name: G3, Velocity: 79
Note ON: Time 719520, Note Name: A#3, Velocity: 79
Note OFF: Time 719740, Note Name: A#3
Note OFF: Time 719740, Note Name: G3
Note ON: Time 719760, Note Name: G3, Velocity: 76
Note ON: Time 719760, Note Name: A#3, Velocity: 76
Note OFF: Time 719980, Note Name: A#3
Note OFF: Time 719980, Note Name: G3
Note ON: Time 720000, Note Name: F3, Velocity: 80
Note ON: Time 720000, Note Name: G#3, Velocity: 80
Note OFF: Time 720480, Note Name: G#3
Note OFF: Time 720480, Note Name: F3
Note ON: Time 720960, Note Name: G#3, Velocity: 79
Note ON: Time 720960, Note Name: F3, Velocity: 79
Note OFF: Time 721180, Note Name: F3
Note OFF: Time 721180, Note Name: G#3
Note ON: Time 721200, Note Name: G#3, Velocity: 76
Note ON: Time 721200, Note Name: F3, Velocity: 76
Note OFF: Time 721420, Note Name: F3
Note OFF: Time 721420, Note Name: G#3
Note ON: Time 721440, Note Name: G3, Velocity: 80
Note ON: Time 721440, Note Name: E3, Velocity: 80
Note OFF: Time 721920, Note Name: E3
Note OFF: Time 721920, Note Name: G3
Note ON: Time 722400, Note Name: A#3, Velocity: 79
Note ON: Time 722400, Note Name: G3, Velocity: 79
Note OFF: Time 722620, Note Name: G3
Note OFF: Time 722620, Note Name: A#3
Note ON: Time 722640, Note Name: G3, Velocity: 76
Note ON: Time 722640, Note Name: A#3, Velocity: 76
Note OFF: Time 722860, Note Name: A#3
Note OFF: Time 722860, Note Name: G3
Note ON: Time 722880, Note Name: G#3, Velocity: 80
Note ON: Time 722880, Note Name: F3, Velocity: 66
Note OFF: Time 723100, Note Name: F3
Note OFF: Time 723100, Note Name: G#3
Note ON: Time 723360, Note Name: G#3, Velocity: 76
Note ON: Time 723360, Note Name: F3, Velocity: 63
Note OFF: Time 723580, Note Name: F3
Note OFF: Time 723580, Note Name: G#3
Note ON: Time 723840, Note Name: F3, Velocity: 59
Note ON: Time 723840, Note Name: A#2, Velocity: 59
Note ON: Time 723840, Note Name: G3, Velocity: 73
Note OFF: Time 724060, Note Name: G3
Note OFF: Time 724060, Note Name: A#2
Note OFF: Time 724060, Note Name: F3
Note ON: Time 724320, Note Name: F3, Velocity: 66
Note ON: Time 724320, Note Name: G#3, Velocity: 80
Note ON: Time 724320, Note Name: C3, Velocity: 66
Note OFF: Time 724540, Note Name: C3
Note OFF: Time 724540, Note Name: G#3
Note OFF: Time 724540, Note Name: F3
Note ON: Time 724800, Note Name: F3, Velocity: 63
Note ON: Time 724800, Note Name: G#3, Velocity: 76
Note ON: Time 724800, Note Name: C3, Velocity: 63
Note OFF: Time 725020, Note Name: C3
Note OFF: Time 725020, Note Name: G#3
Note OFF: Time 725020, Note Name: F3
Note ON: Time 725280, Note Name: C3, Velocity: 63
Note ON: Time 725280, Note Name: G3, Velocity: 76
Note ON: Time 725280, Note Name: E3, Velocity: 63
Note OFF: Time 725500, Note Name: E3
Note OFF: Time 725500, Note Name: G3
Note OFF: Time 725500, Note Name: C3
Note ON: Time 725760, Note Name: G#2, Velocity: 61
Note ON: Time 725760, Note Name: C3, Velocity: 61
Note ON: Time 725760, Note Name: F3, Velocity: 73
Note ON: Time 725760, Note Name: F2, Velocity: 61
Note OFF: Time 726240, Note Name: F2
Note OFF: Time 726240, Note Name: G#2
Note OFF: Time 726240, Note Name: C3
Note OFF: Time 726240, Note Name: F3
Note ON: Time 726720, Note Name: G#2, Velocity: 75
Note ON: Time 726720, Note Name: F2, Velocity: 75
Note OFF: Time 726940, Note Name: F2
Note OFF: Time 726940, Note Name: G#2
Note ON: Time 726960, Note Name: G#2, Velocity: 72
Note ON: Time 726960, Note Name: F2, Velocity: 72
Note OFF: Time 727180, Note Name: F2
Note OFF: Time 727180, Note Name: G#2
Note ON: Time 727200, Note Name: G2, Velocity: 76
Note ON: Time 727200, Note Name: E2, Velocity: 76
Note OFF: Time 727680, Note Name: E2
Note OFF: Time 727680, Note Name: G2
Note ON: Time 728160, Note Name: A#2, Velocity: 75
Note ON: Time 728160, Note Name: G2, Velocity: 75
Note OFF: Time 728380, Note Name: G2
Note OFF: Time 728380, Note Name: A#2
Note ON: Time 728400, Note Name: A#2, Velocity: 72
Note ON: Time 728400, Note Name: G2, Velocity: 72
Note OFF: Time 728620, Note Name: G2
Note OFF: Time 728620, Note Name: A#2
Note ON: Time 728640, Note Name: G#2, Velocity: 76
Note ON: Time 728640, Note Name: F2, Velocity: 76
Note OFF: Time 729120, Note Name: F2
Note OFF: Time 729120, Note Name: G#2
Note ON: Time 729600, Note Name: G#2, Velocity: 75
Note ON: Time 729600, Note Name: F2, Velocity: 75
Note OFF: Time 729820, Note Name: F2
Note OFF: Time 729820, Note Name: G#2
Note ON: Time 729840, Note Name: G#2, Velocity: 72
Note ON: Time 729840, Note Name: F2, Velocity: 72
Note OFF: Time 730060, Note Name: F2
Note OFF: Time 730060, Note Name: G#2
Note ON: Time 730080, Note Name: G2, Velocity: 76
Note ON: Time 730080, Note Name: E2, Velocity: 76
Note OFF: Time 730560, Note Name: E2
Note OFF: Time 730560, Note Name: G2
Note ON: Time 731040, Note Name: A#2, Velocity: 75
Note ON: Time 731040, Note Name: G2, Velocity: 75
Note OFF: Time 731260, Note Name: G2
Note OFF: Time 731260, Note Name: A#2
Note ON: Time 731280, Note Name: A#2, Velocity: 72
Note ON: Time 731280, Note Name: G2, Velocity: 72
Note OFF: Time 731500, Note Name: G2
Note OFF: Time 731500, Note Name: A#2
Note ON: Time 731520, Note Name: F2, Velocity: 66
Note ON: Time 731520, Note Name: G#2, Velocity: 79
Note OFF: Time 731740, Note Name: G#2
Note OFF: Time 731740, Note Name: F2
Note ON: Time 732000, Note Name: G#2, Velocity: 71
Note ON: Time 732000, Note Name: F2, Velocity: 59
Note OFF: Time 732220, Note Name: F2
Note OFF: Time 732220, Note Name: G#2
Note ON: Time 732480, Note Name: A#1, Velocity: 55
Note ON: Time 732480, Note Name: G2, Velocity: 66
Note ON: Time 732480, Note Name: F2, Velocity: 55
Note OFF: Time 732700, Note Name: F2
Note OFF: Time 732700, Note Name: G2
Note OFF: Time 732700, Note Name: A#1
Note ON: Time 732960, Note Name: G#2, Velocity: 75
Note ON: Time 732960, Note Name: C2, Velocity: 62
Note ON: Time 732960, Note Name: F2, Velocity: 62
Note OFF: Time 733180, Note Name: F2
Note OFF: Time 733180, Note Name: C2
Note OFF: Time 733180, Note Name: G#2
Note ON: Time 733440, Note Name: G#2, Velocity: 71
Note ON: Time 733440, Note Name: C2, Velocity: 59
Note ON: Time 733440, Note Name: F2, Velocity: 59
Note OFF: Time 733660, Note Name: F2
Note OFF: Time 733660, Note Name: C2
Note OFF: Time 733660, Note Name: G#2
Note ON: Time 733920, Note Name: E2, Velocity: 59
Note ON: Time 733920, Note Name: G2, Velocity: 71
Note ON: Time 733920, Note Name: C2, Velocity: 59
Note OFF: Time 734140, Note Name: C2
Note OFF: Time 734140, Note Name: G2
Note OFF: Time 734140, Note Name: E2
Note ON: Time 734400, Note Name: C2, Velocity: 62
Note ON: Time 734400, Note Name: F2, Velocity: 62
Note ON: Time 734400, Note Name: G#2, Velocity: 75
Note ON: Time 734400, Note Name: G#1, Velocity: 62
Note OFF: Time 734620, Note Name: G#1
Note OFF: Time 734620, Note Name: C2
Note OFF: Time 734620, Note Name: F2
Note OFF: Time 734620, Note Name: G#2
Note ON: Time 734880, Note Name: G#1, Velocity: 59
Note ON: Time 734880, Note Name: F2, Velocity: 59
Note ON: Time 734880, Note Name: C2, Velocity: 59
Note ON: Time 734880, Note Name: G#2, Velocity: 71
Note OFF: Time 735100, Note Name: G#2
Note OFF: Time 735100, Note Name: G#1
Note OFF: Time 735100, Note Name: F2
Note OFF: Time 735100, Note Name: C2
Note ON: Time 735360, Note Name: A#2, Velocity: 66
Note ON: Time 735360, Note Name: F2, Velocity: 55
Note ON: Time 735360, Note Name: G2, Velocity: 60
Note ON: Time 735360, Note Name: A#1, Velocity: 55
Note OFF: Time 735580, Note Name: A#1
Note OFF: Time 735580, Note Name: A#2
Note OFF: Time 735580, Note Name: F2
Note OFF: Time 735580, Note Name: G2
Note ON: Time 735840, Note Name: C3, Velocity: 75
Note ON: Time 735840, Note Name: G#2, Velocity: 69
Note ON: Time 735840, Note Name: F2, Velocity: 62
Note ON: Time 735840, Note Name: C2, Velocity: 62
Note OFF: Time 736060, Note Name: C2
Note OFF: Time 736060, Note Name: C3
Note OFF: Time 736060, Note Name: G#2
Note OFF: Time 736060, Note Name: F2
Note ON: Time 736320, Note Name: C3, Velocity: 71
Note ON: Time 736320, Note Name: F2, Velocity: 59
Note ON: Time 736320, Note Name: G#2, Velocity: 66
Note ON: Time 736320, Note Name: C2, Velocity: 59
Note OFF: Time 736540, Note Name: C2
Note OFF: Time 736540, Note Name: C3
Note OFF: Time 736540, Note Name: F2
Note OFF: Time 736540, Note Name: G#2
Note ON: Time 736800, Note Name: A#2, Velocity: 71
Note ON: Time 736800, Note Name: E2, Velocity: 59
Note ON: Time 736800, Note Name: G2, Velocity: 66
Note ON: Time 736800, Note Name: A#1, Velocity: 59
Note OFF: Time 737020, Note Name: A#1
Note OFF: Time 737020, Note Name: A#2
Note OFF: Time 737020, Note Name: E2
Note OFF: Time 737020, Note Name: G2
Note ON: Time 737280, Note Name: C2, Velocity: 65
Note ON: Time 737280, Note Name: F2, Velocity: 65
Note ON: Time 737280, Note Name: G#2, Velocity: 77
Note ON: Time 737280, Note Name: G#1, Velocity: 65
Note OFF: Time 737500, Note Name: G#1
Note OFF: Time 737500, Note Name: C2
Note OFF: Time 737500, Note Name: F2
Note OFF: Time 737500, Note Name: G#2
Note ON: Time 737760, Note Name: G#1, Velocity: 62
Note ON: Time 737760, Note Name: F2, Velocity: 62
Note ON: Time 737760, Note Name: C2, Velocity: 62
Note ON: Time 737760, Note Name: G#2, Velocity: 74
Note OFF: Time 737980, Note Name: G#2
Note OFF: Time 737980, Note Name: G#1
Note OFF: Time 737980, Note Name: F2
Note OFF: Time 737980, Note Name: C2
Note ON: Time 738240, Note Name: A#2, Velocity: 69
Note ON: Time 738240, Note Name: F2, Velocity: 57
Note ON: Time 738240, Note Name: G2, Velocity: 63
Note ON: Time 738240, Note Name: A#1, Velocity: 57
Note OFF: Time 738460, Note Name: A#1
Note OFF: Time 738460, Note Name: A#2
Note OFF: Time 738460, Note Name: F2
Note OFF: Time 738460, Note Name: G2
Note ON: Time 738720, Note Name: C3, Velocity: 77
Note ON: Time 738720, Note Name: F2, Velocity: 65
Note ON: Time 738720, Note Name: C2, Velocity: 65
Note ON: Time 738720, Note Name: G#2, Velocity: 72
Note OFF: Time 738940, Note Name: G#2
Note OFF: Time 738940, Note Name: C3
Note OFF: Time 738940, Note Name: F2
Note OFF: Time 738940, Note Name: C2
Note ON: Time 739200, Note Name: G#2, Velocity: 69
Note ON: Time 739200, Note Name: F2, Velocity: 62
Note ON: Time 739200, Note Name: C2, Velocity: 62
Note ON: Time 739200, Note Name: C3, Velocity: 74
Note OFF: Time 739420, Note Name: C3
Note OFF: Time 739420, Note Name: G#2
Note OFF: Time 739420, Note Name: F2
Note OFF: Time 739420, Note Name: C2
Note ON: Time 739680, Note Name: C2, Velocity: 62
Note ON: Time 739680, Note Name: C3, Velocity: 74
Note ON: Time 739680, Note Name: G2, Velocity: 69
Note ON: Time 739680, Note Name: E2, Velocity: 62
Note OFF: Time 739900, Note Name: E2
Note OFF: Time 739900, Note Name: C2
Note OFF: Time 739900, Note Name: C3
Note OFF: Time 739900, Note Name: G2
Note ON: Time 740160, Note Name: F1, Velocity: 82
Note ON: Time 740160, Note Name: F2, Velocity: 110
Note OFF: Time 740640, Note Name: F2
Note OFF: Time 740640, Note Name: F1
Note ON: Time 740880, Note Name: G#4, Velocity: 62
Note OFF: Time 741480, Note Name: G#4
Note ON: Time 741480, Note Name: C5, Velocity: 54
Note OFF: Time 741600, Note Name: C5
Note ON: Time 741600, Note Name: F5, Velocity: 59
Note OFF: Time 742320, Note Name: F5
Note ON: Time 742320, Note Name: G#5, Velocity: 60
Note OFF: Time 742920, Note Name: G#5
Note ON: Time 742920, Note Name: C6, Velocity: 52
Note OFF: Time 743040, Note Name: C6
Note ON: Time 743040, Note Name: F6, Velocity: 56
Note OFF: Time 743760, Note Name: F6
Note ON: Time 743760, Note Name: C6, Velocity: 58
Note OFF: Time 744360, Note Name: C6
Note ON: Time 744360, Note Name: G#5, Velocity: 50
Note OFF: Time 744480, Note Name: G#5
Note ON: Time 744480, Note Name: F5, Velocity: 54
Note OFF: Time 745200, Note Name: F5
Note ON: Time 745200, Note Name: C5, Velocity: 56
Note OFF: Time 745800, Note Name: C5
Note ON: Time 745800, Note Name: G#4, Velocity: 48
Note OFF: Time 745920, Note Name: G#4
Note ON: Time 745920, Note Name: F4, Velocity: 52
Note OFF: Time 746640, Note Name: F4
Note ON: Time 746640, Note Name: C4, Velocity: 47
Note OFF: Time 747240, Note Name: C4
Note ON: Time 747240, Note Name: G#3, Velocity: 41
Note OFF: Time 747360, Note Name: G#3
Note ON: Time 747360, Note Name: F3, Velocity: 44
Note OFF: Time 748080, Note Name: F3
Note ON: Time 748080, Note Name: C3, Velocity: 45
Note OFF: Time 748680, Note Name: C3
Note ON: Time 748680, Note Name: G#2, Velocity: 39
Note OFF: Time 748800, Note Name: G#2
Note ON: Time 748800, Note Name: F2, Velocity: 42
Note OFF: Time 749520, Note Name: F2
Note ON: Time 749520, Note Name: C2, Velocity: 38
Note OFF: Time 750120, Note Name: C2
Note ON: Time 750120, Note Name: G#1, Velocity: 27
Note OFF: Time 750240, Note Name: G#1
Note ON: Time 750240, Note Name: F1, Velocity: 28
Note OFF: Time 750960, Note Name: F1
Note ON: Time 750960, Note Name: F1, Velocity: 27
Note OFF: Time 751680, Note Name: F1
Note ON: Time 751680, Note Name: F1, Velocity: 27
Note OFF: Time 753120, Note Name: F1
Note ON: Time 753120, Note Name: F1, Velocity: 19
Note OFF: Time 754560, Note Name: F1
Note ON: Time 754560, Note Name: F1, Velocity: 12
Note OFF: Time 757440, Note Name: F1
Track 3: Pedal
Track 4: Beethoven: Sonate Op. 57 (Appassionata) 1. Satz
Track 5: Copyright  2001 by Bernd Krger
Track 6: http://www.piano-midi.de
Track 7: Edition: 2012-07-21
Track 8: Spur 8
Track 9: Spur 9
Track 10: Spur 10
