Processing appass_2.mid...

Track 0: Sonate Nr. 23 Op. 57
Track 1: Piano right
Note ON: Time 0, Note Name: C#3, Velocity: 39
Note ON: Time 0, Note Name: F3, Velocity: 39
Note ON: Time 0, Note Name: G#3, Velocity: 47
Note OFF: Time 480, Note Name: G#3
Note OFF: Time 480, Note Name: F3
Note OFF: Time 480, Note Name: C#3
Note ON: Time 480, Note Name: C#3, Velocity: 37
Note ON: Time 480, Note Name: A#3, Velocity: 44
Note ON: Time 480, Note Name: F#3, Velocity: 44
Note OFF: Time 960, Note Name: F#3
Note OFF: Time 960, Note Name: A#3
Note OFF: Time 960, Note Name: C#3
Note ON: Time 960, Note Name: C#3, Velocity: 37
Note ON: Time 960, Note Name: F3, Velocity: 37
Note ON: Time 960, Note Name: G#3, Velocity: 44
Note OFF: Time 1680, Note Name: G#3
Note OFF: Time 1680, Note Name: F3
Note OFF: Time 1680, Note Name: C#3
Note ON: Time 1680, Note Name: A#3, Velocity: 44
Note ON: Time 1680, Note Name: D#3, Velocity: 37
Note ON: Time 1680, Note Name: C#3, Velocity: 37
Note OFF: Time 1920, Note Name: C#3
Note OFF: Time 1920, Note Name: D#3
Note OFF: Time 1920, Note Name: A#3
Note ON: Time 1920, Note Name: C#3, Velocity: 39
Note ON: Time 1920, Note Name: D#3, Velocity: 39
Note ON: Time 1920, Note Name: G#3, Velocity: 47
Note OFF: Time 2400, Note Name: G#3
Note OFF: Time 2400, Note Name: D#3
Note OFF: Time 2400, Note Name: C#3
Note ON: Time 2400, Note Name: G#3, Velocity: 46
Note ON: Time 2400, Note Name: C3, Velocity: 38
Note ON: Time 2400, Note Name: D#3, Velocity: 38
Note OFF: Time 2880, Note Name: D#3
Note OFF: Time 2880, Note Name: C3
Note OFF: Time 2880, Note Name: G#3
Note ON: Time 2880, Note Name: C#3, Velocity: 39
Note ON: Time 2880, Note Name: F3, Velocity: 39
Note ON: Time 2880, Note Name: G#3, Velocity: 47
Note OFF: Time 3840, Note Name: G#3
Note OFF: Time 3840, Note Name: F3
Note OFF: Time 3840, Note Name: C#3
Note ON: Time 3840, Note Name: C#4, Velocity: 54
Note ON: Time 3840, Note Name: G#3, Velocity: 45
Note ON: Time 3840, Note Name: F3, Velocity: 45
Note OFF: Time 4320, Note Name: F3
Note OFF: Time 4320, Note Name: G#3
Note OFF: Time 4320, Note Name: C#4
Note ON: Time 4320, Note Name: F#3, Velocity: 47
Note ON: Time 4320, Note Name: A#3, Velocity: 47
Note ON: Time 4320, Note Name: C#4, Velocity: 56
Note OFF: Time 4800, Note Name: C#4
Note OFF: Time 4800, Note Name: A#3
Note OFF: Time 4800, Note Name: F#3
Note ON: Time 4800, Note Name: G#3, Velocity: 36
Note ON: Time 4800, Note Name: F3, Velocity: 36
Note ON: Time 4800, Note Name: C#4, Velocity: 44
Note OFF: Time 5520, Note Name: C#4
Note OFF: Time 5520, Note Name: F3
Note OFF: Time 5520, Note Name: G#3
Note ON: Time 5520, Note Name: E3, Velocity: 37
Note ON: Time 5520, Note Name: C#4, Velocity: 44
Note ON: Time 5520, Note Name: G3, Velocity: 37
Note OFF: Time 5760, Note Name: G3
Note OFF: Time 5760, Note Name: C#4
Note OFF: Time 5760, Note Name: E3
Note ON: Time 5760, Note Name: F#3, Velocity: 39
Note ON: Time 5760, Note Name: D#3, Velocity: 39
Note ON: Time 5760, Note Name: C#4, Velocity: 47
Note OFF: Time 6240, Note Name: C#4
Note OFF: Time 6240, Note Name: D#3
Note OFF: Time 6240, Note Name: F#3
Note ON: Time 6240, Note Name: D#3, Velocity: 37
Note ON: Time 6240, Note Name: C4, Velocity: 43
Note ON: Time 6240, Note Name: F#3, Velocity: 37
Note OFF: Time 6720, Note Name: F#3
Note OFF: Time 6720, Note Name: C4
Note OFF: Time 6720, Note Name: D#3
Note ON: Time 6720, Note Name: C#3, Velocity: 37
Note ON: Time 6720, Note Name: F3, Velocity: 37
Note ON: Time 6720, Note Name: C#4, Velocity: 43
Note OFF: Time 7440, Note Name: C#4
Note OFF: Time 7440, Note Name: F3
Note OFF: Time 7440, Note Name: C#3
Note ON: Time 7680, Note Name: C#3, Velocity: 39
Note ON: Time 7680, Note Name: F3, Velocity: 39
Note ON: Time 7680, Note Name: G#3, Velocity: 47
Note OFF: Time 8160, Note Name: G#3
Note OFF: Time 8160, Note Name: F3
Note OFF: Time 8160, Note Name: C#3
Note ON: Time 8160, Note Name: C#3, Velocity: 37
Note ON: Time 8160, Note Name: F#3, Velocity: 44
Note ON: Time 8160, Note Name: A#3, Velocity: 44
Note OFF: Time 8640, Note Name: A#3
Note OFF: Time 8640, Note Name: F#3
Note OFF: Time 8640, Note Name: C#3
Note ON: Time 8640, Note Name: C#3, Velocity: 37
Note ON: Time 8640, Note Name: F3, Velocity: 37
Note ON: Time 8640, Note Name: G#3, Velocity: 44
Note OFF: Time 9360, Note Name: G#3
Note OFF: Time 9360, Note Name: F3
Note OFF: Time 9360, Note Name: C#3
Note ON: Time 9360, Note Name: C#3, Velocity: 37
Note ON: Time 9360, Note Name: D#3, Velocity: 37
Note ON: Time 9360, Note Name: A#3, Velocity: 44
Note OFF: Time 9600, Note Name: A#3
Note OFF: Time 9600, Note Name: D#3
Note OFF: Time 9600, Note Name: C#3
Note ON: Time 9600, Note Name: C#3, Velocity: 39
Note ON: Time 9600, Note Name: D#3, Velocity: 39
Note ON: Time 9600, Note Name: G#3, Velocity: 47
Note OFF: Time 10080, Note Name: G#3
Note OFF: Time 10080, Note Name: D#3
Note OFF: Time 10080, Note Name: C#3
Note ON: Time 10080, Note Name: C3, Velocity: 38
Note ON: Time 10080, Note Name: D#3, Velocity: 38
Note ON: Time 10080, Note Name: G#3, Velocity: 46
Note OFF: Time 10560, Note Name: G#3
Note OFF: Time 10560, Note Name: D#3
Note OFF: Time 10560, Note Name: C3
Note ON: Time 10560, Note Name: C#3, Velocity: 39
Note ON: Time 10560, Note Name: F3, Velocity: 39
Note ON: Time 10560, Note Name: G#3, Velocity: 47
Note OFF: Time 11520, Note Name: G#3
Note OFF: Time 11520, Note Name: F3
Note OFF: Time 11520, Note Name: C#3
Note ON: Time 11520, Note Name: F3, Velocity: 45
Note ON: Time 11520, Note Name: G#3, Velocity: 45
Note ON: Time 11520, Note Name: C#4, Velocity: 54
Note OFF: Time 12000, Note Name: C#4
Note OFF: Time 12000, Note Name: G#3
Note OFF: Time 12000, Note Name: F3
Note ON: Time 12000, Note Name: F#3, Velocity: 47
Note ON: Time 12000, Note Name: A#3, Velocity: 47
Note ON: Time 12000, Note Name: C#4, Velocity: 56
Note OFF: Time 12480, Note Name: C#4
Note OFF: Time 12480, Note Name: A#3
Note OFF: Time 12480, Note Name: F#3
Note ON: Time 12480, Note Name: F3, Velocity: 34
Note ON: Time 12480, Note Name: G#3, Velocity: 34
Note ON: Time 12480, Note Name: C#4, Velocity: 41
Note OFF: Time 13200, Note Name: C#4
Note OFF: Time 13200, Note Name: G#3
Note OFF: Time 13200, Note Name: F3
Note ON: Time 13200, Note Name: E3, Velocity: 37
Note ON: Time 13200, Note Name: G3, Velocity: 37
Note ON: Time 13200, Note Name: C#4, Velocity: 44
Note OFF: Time 13440, Note Name: C#4
Note OFF: Time 13440, Note Name: G3
Note OFF: Time 13440, Note Name: E3
Note ON: Time 13440, Note Name: D#3, Velocity: 39
Note ON: Time 13440, Note Name: F#3, Velocity: 39
Note ON: Time 13440, Note Name: C#4, Velocity: 47
Note OFF: Time 13920, Note Name: C#4
Note OFF: Time 13920, Note Name: F#3
Note OFF: Time 13920, Note Name: D#3
Note ON: Time 13920, Note Name: D#3, Velocity: 37
Note ON: Time 13920, Note Name: F#3, Velocity: 37
Note ON: Time 13920, Note Name: C4, Velocity: 43
Note OFF: Time 14400, Note Name: C4
Note OFF: Time 14400, Note Name: F#3
Note OFF: Time 14400, Note Name: D#3
Note ON: Time 14400, Note Name: C#3, Velocity: 37
Note ON: Time 14400, Note Name: F3, Velocity: 37
Note ON: Time 14400, Note Name: C#4, Velocity: 43
Note OFF: Time 15120, Note Name: C#4
Note OFF: Time 15120, Note Name: F3
Note OFF: Time 15120, Note Name: C#3
Note ON: Time 15360, Note Name: C3, Velocity: 39
Note ON: Time 15360, Note Name: D#3, Velocity: 39
Note ON: Time 15360, Note Name: G#3, Velocity: 47
Note OFF: Time 15840, Note Name: G#3
Note OFF: Time 15840, Note Name: D#3
Note OFF: Time 15840, Note Name: C3
Note ON: Time 15840, Note Name: C3, Velocity: 37
Note ON: Time 15840, Note Name: F#3, Velocity: 44
Note ON: Time 15840, Note Name: G#3, Velocity: 44
Note OFF: Time 16260, Note Name: G#3
Note OFF: Time 16260, Note Name: F#3
Note OFF: Time 16260, Note Name: C3
Note ON: Time 16260, Note Name: C3, Velocity: 37
Note ON: Time 16260, Note Name: D#3, Velocity: 44
Note ON: Time 16260, Note Name: G#3, Velocity: 44
Note OFF: Time 16320, Note Name: G#3
Note OFF: Time 16320, Note Name: D#3
Note OFF: Time 16320, Note Name: C3
Note ON: Time 16320, Note Name: C#3, Velocity: 39
Note ON: Time 16320, Note Name: F3, Velocity: 39
Note ON: Time 16320, Note Name: G#3, Velocity: 47
Note OFF: Time 16680, Note Name: G#3
Note OFF: Time 16680, Note Name: F3
Note OFF: Time 16680, Note Name: C#3
Note ON: Time 16680, Note Name: F3, Velocity: 45
Note ON: Time 16680, Note Name: G#3, Velocity: 45
Note ON: Time 16680, Note Name: C#4, Velocity: 53
Note OFF: Time 16800, Note Name: C#4
Note OFF: Time 16800, Note Name: G#3
Note OFF: Time 16800, Note Name: F3
Note ON: Time 16800, Note Name: G#3, Velocity: 41
Note ON: Time 16800, Note Name: F#3, Velocity: 41
Note ON: Time 16800, Note Name: C4, Velocity: 49
Note OFF: Time 17040, Note Name: C4
Note OFF: Time 17040, Note Name: F#3
Note OFF: Time 17040, Note Name: G#3
Note ON: Time 17040, Note Name: F3, Velocity: 31
Note ON: Time 17040, Note Name: G#3, Velocity: 31
Note ON: Time 17040, Note Name: C#4, Velocity: 37
Note OFF: Time 17280, Note Name: C#4
Note OFF: Time 17280, Note Name: G#3
Note OFF: Time 17280, Note Name: F3
Note ON: Time 17280, Note Name: C3, Velocity: 39
Note ON: Time 17280, Note Name: D#3, Velocity: 39
Note ON: Time 17280, Note Name: G#3, Velocity: 47
Note OFF: Time 17760, Note Name: G#3
Note OFF: Time 17760, Note Name: D#3
Note OFF: Time 17760, Note Name: C3
Note ON: Time 17760, Note Name: C3, Velocity: 37
Note ON: Time 17760, Note Name: F#3, Velocity: 44
Note ON: Time 17760, Note Name: G#3, Velocity: 44
Note OFF: Time 18180, Note Name: G#3
Note OFF: Time 18180, Note Name: F#3
Note OFF: Time 18180, Note Name: C3
Note ON: Time 18180, Note Name: C3, Velocity: 37
Note ON: Time 18180, Note Name: D#3, Velocity: 44
Note ON: Time 18180, Note Name: G#3, Velocity: 44
Note OFF: Time 18240, Note Name: G#3
Note OFF: Time 18240, Note Name: D#3
Note OFF: Time 18240, Note Name: C3
Note ON: Time 18240, Note Name: C#3, Velocity: 39
Note ON: Time 18240, Note Name: F3, Velocity: 39
Note ON: Time 18240, Note Name: G#3, Velocity: 47
Note OFF: Time 18600, Note Name: G#3
Note OFF: Time 18600, Note Name: F3
Note OFF: Time 18600, Note Name: C#3
Note ON: Time 18600, Note Name: F3, Velocity: 45
Note ON: Time 18600, Note Name: G#3, Velocity: 45
Note ON: Time 18600, Note Name: F4, Velocity: 55
Note OFF: Time 18720, Note Name: F4
Note OFF: Time 18720, Note Name: G#3
Note OFF: Time 18720, Note Name: F3
Note ON: Time 18720, Note Name: G#3, Velocity: 45
Note ON: Time 18720, Note Name: F#3, Velocity: 45
Note ON: Time 18720, Note Name: F4, Velocity: 58
Note OFF: Time 18840, Note Name: F4
Note ON: Time 18840, Note Name: D#4, Velocity: 51
Note OFF: Time 18960, Note Name: D#4
Note OFF: Time 18960, Note Name: F#3
Note OFF: Time 18960, Note Name: G#3
Note ON: Time 18960, Note Name: F3, Velocity: 31
Note ON: Time 18960, Note Name: G#3, Velocity: 31
Note ON: Time 18960, Note Name: C#4, Velocity: 37
Note OFF: Time 19200, Note Name: C#4
Note OFF: Time 19200, Note Name: G#3
Note OFF: Time 19200, Note Name: F3
Note ON: Time 19200, Note Name: C3, Velocity: 46
Note ON: Time 19200, Note Name: D#3, Velocity: 46
Note ON: Time 19200, Note Name: G#3, Velocity: 56
Note OFF: Time 19680, Note Name: G#3
Note OFF: Time 19680, Note Name: D#3
Note OFF: Time 19680, Note Name: C3
Note ON: Time 19680, Note Name: C3, Velocity: 52
Note ON: Time 19680, Note Name: F#3, Velocity: 62
Note ON: Time 19680, Note Name: G#3, Velocity: 62
Note OFF: Time 20100, Note Name: G#3
Note OFF: Time 20100, Note Name: F#3
Note OFF: Time 20100, Note Name: C3
Note ON: Time 20100, Note Name: C3, Velocity: 57
Note ON: Time 20100, Note Name: D#3, Velocity: 68
Note ON: Time 20100, Note Name: G#3, Velocity: 68
Note OFF: Time 20160, Note Name: G#3
Note OFF: Time 20160, Note Name: D#3
Note OFF: Time 20160, Note Name: C3
Note ON: Time 20160, Note Name: G#3, Velocity: 70
Note ON: Time 20160, Note Name: C#4, Velocity: 70
Note ON: Time 20160, Note Name: G#4, Velocity: 87
Note OFF: Time 20520, Note Name: G#4
Note OFF: Time 20520, Note Name: C#4
Note OFF: Time 20520, Note Name: G#3
Note ON: Time 20520, Note Name: C#4, Velocity: 60
Note ON: Time 20520, Note Name: F4, Velocity: 60
Note ON: Time 20520, Note Name: G#4, Velocity: 72
Note OFF: Time 20640, Note Name: G#4
Note OFF: Time 20640, Note Name: F4
Note OFF: Time 20640, Note Name: C#4
Note ON: Time 20640, Note Name: D#4, Velocity: 61
Note ON: Time 20640, Note Name: C4, Velocity: 61
Note ON: Time 20640, Note Name: G#4, Velocity: 79
Note OFF: Time 20760, Note Name: G#4
Note ON: Time 20760, Note Name: F#4, Velocity: 66
Note OFF: Time 20880, Note Name: F#4
Note OFF: Time 20880, Note Name: C4
Note OFF: Time 20880, Note Name: D#4
Note ON: Time 20880, Note Name: G#3, Velocity: 44
Note ON: Time 20880, Note Name: C#4, Velocity: 44
Note ON: Time 20880, Note Name: F4, Velocity: 55
Note OFF: Time 21120, Note Name: F4
Note OFF: Time 21120, Note Name: C#4
Note OFF: Time 21120, Note Name: G#3
Note ON: Time 21120, Note Name: F#3, Velocity: 39
Note ON: Time 21120, Note Name: A#3, Velocity: 39
Note ON: Time 21120, Note Name: D#4, Velocity: 47
Note OFF: Time 21600, Note Name: D#4
Note OFF: Time 21600, Note Name: A#3
Note OFF: Time 21600, Note Name: F#3
Note ON: Time 21600, Note Name: C3, Velocity: 37
Note ON: Time 21600, Note Name: D#3, Velocity: 37
Note ON: Time 21600, Note Name: G#3, Velocity: 43
Note OFF: Time 22080, Note Name: G#3
Note OFF: Time 22080, Note Name: D#3
Note OFF: Time 22080, Note Name: C3
Note ON: Time 22080, Note Name: C#3, Velocity: 37
Note ON: Time 22080, Note Name: F3, Velocity: 37
Note ON: Time 22080, Note Name: C#4, Velocity: 43
Note OFF: Time 22800, Note Name: C#4
Note OFF: Time 22800, Note Name: F3
Note OFF: Time 22800, Note Name: C#3
Note ON: Time 23040, Note Name: C3, Velocity: 39
Note ON: Time 23040, Note Name: D#3, Velocity: 39
Note ON: Time 23040, Note Name: G#3, Velocity: 47
Note OFF: Time 23520, Note Name: G#3
Note OFF: Time 23520, Note Name: D#3
Note OFF: Time 23520, Note Name: C3
Note ON: Time 23520, Note Name: C3, Velocity: 37
Note ON: Time 23520, Note Name: F#3, Velocity: 44
Note ON: Time 23520, Note Name: G#3, Velocity: 44
Note OFF: Time 23940, Note Name: G#3
Note OFF: Time 23940, Note Name: F#3
Note OFF: Time 23940, Note Name: C3
Note ON: Time 23940, Note Name: C3, Velocity: 37
Note ON: Time 23940, Note Name: D#3, Velocity: 44
Note ON: Time 23940, Note Name: G#3, Velocity: 44
Note OFF: Time 24000, Note Name: G#3
Note OFF: Time 24000, Note Name: D#3
Note OFF: Time 24000, Note Name: C3
Note ON: Time 24000, Note Name: C#3, Velocity: 39
Note ON: Time 24000, Note Name: F3, Velocity: 39
Note ON: Time 24000, Note Name: G#3, Velocity: 47
Note OFF: Time 24360, Note Name: G#3
Note OFF: Time 24360, Note Name: F3
Note OFF: Time 24360, Note Name: C#3
Note ON: Time 24360, Note Name: F3, Velocity: 45
Note ON: Time 24360, Note Name: G#3, Velocity: 45
Note ON: Time 24360, Note Name: C#4, Velocity: 53
Note OFF: Time 24480, Note Name: C#4
Note OFF: Time 24480, Note Name: G#3
Note OFF: Time 24480, Note Name: F3
Note ON: Time 24480, Note Name: G#3, Velocity: 41
Note ON: Time 24480, Note Name: F#3, Velocity: 41
Note ON: Time 24480, Note Name: C4, Velocity: 49
Note OFF: Time 24720, Note Name: C4
Note OFF: Time 24720, Note Name: F#3
Note OFF: Time 24720, Note Name: G#3
Note ON: Time 24720, Note Name: F3, Velocity: 31
Note ON: Time 24720, Note Name: G#3, Velocity: 31
Note ON: Time 24720, Note Name: C#4, Velocity: 37
Note OFF: Time 24960, Note Name: C#4
Note OFF: Time 24960, Note Name: G#3
Note OFF: Time 24960, Note Name: F3
Note ON: Time 24960, Note Name: C3, Velocity: 39
Note ON: Time 24960, Note Name: D#3, Velocity: 39
Note ON: Time 24960, Note Name: G#3, Velocity: 47
Note OFF: Time 25440, Note Name: G#3
Note OFF: Time 25440, Note Name: D#3
Note OFF: Time 25440, Note Name: C3
Note ON: Time 25440, Note Name: C3, Velocity: 37
Note ON: Time 25440, Note Name: F#3, Velocity: 44
Note ON: Time 25440, Note Name: G#3, Velocity: 44
Note OFF: Time 25860, Note Name: G#3
Note OFF: Time 25860, Note Name: F#3
Note OFF: Time 25860, Note Name: C3
Note ON: Time 25860, Note Name: C3, Velocity: 37
Note ON: Time 25860, Note Name: D#3, Velocity: 44
Note ON: Time 25860, Note Name: G#3, Velocity: 44
Note OFF: Time 25920, Note Name: G#3
Note OFF: Time 25920, Note Name: D#3
Note OFF: Time 25920, Note Name: C3
Note ON: Time 25920, Note Name: C#3, Velocity: 39
Note ON: Time 25920, Note Name: F3, Velocity: 39
Note ON: Time 25920, Note Name: G#3, Velocity: 47
Note OFF: Time 26280, Note Name: G#3
Note OFF: Time 26280, Note Name: F3
Note OFF: Time 26280, Note Name: C#3
Note ON: Time 26280, Note Name: F3, Velocity: 45
Note ON: Time 26280, Note Name: G#3, Velocity: 45
Note ON: Time 26280, Note Name: F4, Velocity: 55
Note OFF: Time 26400, Note Name: F4
Note OFF: Time 26400, Note Name: G#3
Note OFF: Time 26400, Note Name: F3
Note ON: Time 26400, Note Name: G#3, Velocity: 45
Note ON: Time 26400, Note Name: F#3, Velocity: 45
Note ON: Time 26400, Note Name: F4, Velocity: 58
Note OFF: Time 26520, Note Name: F4
Note ON: Time 26520, Note Name: D#4, Velocity: 51
Note OFF: Time 26640, Note Name: D#4
Note OFF: Time 26640, Note Name: F#3
Note OFF: Time 26640, Note Name: G#3
Note ON: Time 26640, Note Name: F3, Velocity: 31
Note ON: Time 26640, Note Name: G#3, Velocity: 31
Note ON: Time 26640, Note Name: C#4, Velocity: 37
Note OFF: Time 26880, Note Name: C#4
Note OFF: Time 26880, Note Name: G#3
Note OFF: Time 26880, Note Name: F3
Note ON: Time 26880, Note Name: C3, Velocity: 46
Note ON: Time 26880, Note Name: D#3, Velocity: 46
Note ON: Time 26880, Note Name: G#3, Velocity: 56
Note OFF: Time 27360, Note Name: G#3
Note OFF: Time 27360, Note Name: D#3
Note OFF: Time 27360, Note Name: C3
Note ON: Time 27360, Note Name: C3, Velocity: 52
Note ON: Time 27360, Note Name: F#3, Velocity: 62
Note ON: Time 27360, Note Name: G#3, Velocity: 62
Note OFF: Time 27780, Note Name: G#3
Note OFF: Time 27780, Note Name: F#3
Note OFF: Time 27780, Note Name: C3
Note ON: Time 27780, Note Name: C3, Velocity: 57
Note ON: Time 27780, Note Name: D#3, Velocity: 68
Note ON: Time 27780, Note Name: G#3, Velocity: 68
Note OFF: Time 27840, Note Name: G#3
Note OFF: Time 27840, Note Name: D#3
Note OFF: Time 27840, Note Name: C3
Note ON: Time 27840, Note Name: G#3, Velocity: 70
Note ON: Time 27840, Note Name: C#4, Velocity: 70
Note ON: Time 27840, Note Name: G#4, Velocity: 87
Note OFF: Time 28200, Note Name: G#4
Note OFF: Time 28200, Note Name: C#4
Note OFF: Time 28200, Note Name: G#3
Note ON: Time 28200, Note Name: C#4, Velocity: 61
Note ON: Time 28200, Note Name: F4, Velocity: 61
Note ON: Time 28200, Note Name: G#4, Velocity: 73
Note OFF: Time 28320, Note Name: G#4
Note OFF: Time 28320, Note Name: F4
Note OFF: Time 28320, Note Name: C#4
Note ON: Time 28320, Note Name: D#4, Velocity: 61
Note ON: Time 28320, Note Name: C4, Velocity: 61
Note ON: Time 28320, Note Name: G#4, Velocity: 79
Note OFF: Time 28440, Note Name: G#4
Note ON: Time 28440, Note Name: F#4, Velocity: 66
Note OFF: Time 28560, Note Name: F#4
Note OFF: Time 28560, Note Name: C4
Note OFF: Time 28560, Note Name: D#4
Note ON: Time 28560, Note Name: G#3, Velocity: 44
Note ON: Time 28560, Note Name: C#4, Velocity: 44
Note ON: Time 28560, Note Name: F4, Velocity: 55
Note OFF: Time 28800, Note Name: F4
Note OFF: Time 28800, Note Name: C#4
Note OFF: Time 28800, Note Name: G#3
Note ON: Time 28800, Note Name: F#3, Velocity: 39
Note ON: Time 28800, Note Name: A#3, Velocity: 39
Note ON: Time 28800, Note Name: D#4, Velocity: 47
Note OFF: Time 29280, Note Name: D#4
Note OFF: Time 29280, Note Name: A#3
Note OFF: Time 29280, Note Name: F#3
Note ON: Time 29280, Note Name: C3, Velocity: 37
Note ON: Time 29280, Note Name: D#3, Velocity: 37
Note ON: Time 29280, Note Name: G#3, Velocity: 43
Note OFF: Time 29760, Note Name: G#3
Note OFF: Time 29760, Note Name: D#3
Note OFF: Time 29760, Note Name: C3
Note ON: Time 29760, Note Name: C#3, Velocity: 37
Note ON: Time 29760, Note Name: F3, Velocity: 37
Note ON: Time 29760, Note Name: C#4, Velocity: 43
Note OFF: Time 30480, Note Name: C#4
Note OFF: Time 30480, Note Name: F3
Note OFF: Time 30480, Note Name: C#3
Note ON: Time 30720, Note Name: C#3, Velocity: 39
Note ON: Time 30720, Note Name: F3, Velocity: 39
Note ON: Time 30720, Note Name: G#3, Velocity: 47
Note OFF: Time 30960, Note Name: G#3
Note OFF: Time 30960, Note Name: F3
Note OFF: Time 30960, Note Name: C#3
Note ON: Time 31200, Note Name: C#3, Velocity: 37
Note ON: Time 31200, Note Name: F#3, Velocity: 37
Note ON: Time 31200, Note Name: A#3, Velocity: 44
Note OFF: Time 31440, Note Name: A#3
Note OFF: Time 31440, Note Name: F#3
Note OFF: Time 31440, Note Name: C#3
Note ON: Time 31680, Note Name: C#3, Velocity: 39
Note ON: Time 31680, Note Name: F3, Velocity: 39
Note ON: Time 31680, Note Name: G#3, Velocity: 47
Note OFF: Time 31920, Note Name: G#3
Note OFF: Time 31920, Note Name: F3
Note OFF: Time 31920, Note Name: C#3
Note ON: Time 32160, Note Name: C#3, Velocity: 37
Note ON: Time 32160, Note Name: D#3, Velocity: 37
Note ON: Time 32160, Note Name: A#3, Velocity: 44
Note OFF: Time 32400, Note Name: A#3
Note OFF: Time 32400, Note Name: D#3
Note OFF: Time 32400, Note Name: C#3
Note ON: Time 32640, Note Name: C#3, Velocity: 39
Note ON: Time 32640, Note Name: D#3, Velocity: 39
Note ON: Time 32640, Note Name: G#3, Velocity: 47
Note OFF: Time 32880, Note Name: G#3
Note OFF: Time 32880, Note Name: D#3
Note OFF: Time 32880, Note Name: C#3
Note ON: Time 33120, Note Name: C3, Velocity: 38
Note ON: Time 33120, Note Name: D#3, Velocity: 38
Note ON: Time 33120, Note Name: G#3, Velocity: 46
Note OFF: Time 33360, Note Name: G#3
Note OFF: Time 33360, Note Name: D#3
Note OFF: Time 33360, Note Name: C3
Note ON: Time 33600, Note Name: F#3, Velocity: 38
Note OFF: Time 33720, Note Name: F#3
Note ON: Time 33840, Note Name: F3, Velocity: 37
Note OFF: Time 33960, Note Name: F3
Note ON: Time 34080, Note Name: D#3, Velocity: 36
Note OFF: Time 34200, Note Name: D#3
Note ON: Time 34320, Note Name: C#3, Velocity: 35
Note OFF: Time 34440, Note Name: C#3
Note ON: Time 34560, Note Name: F3, Velocity: 40
Note ON: Time 34560, Note Name: G#3, Velocity: 40
Note ON: Time 34560, Note Name: C#4, Velocity: 49
Note OFF: Time 34800, Note Name: C#4
Note OFF: Time 34800, Note Name: G#3
Note OFF: Time 34800, Note Name: F3
Note ON: Time 35040, Note Name: F#3, Velocity: 38
Note ON: Time 35040, Note Name: A#3, Velocity: 46
Note ON: Time 35040, Note Name: C#4, Velocity: 46
Note OFF: Time 35280, Note Name: C#4
Note OFF: Time 35280, Note Name: A#3
Note OFF: Time 35280, Note Name: F#3
Note ON: Time 35520, Note Name: F3, Velocity: 40
Note ON: Time 35520, Note Name: G#3, Velocity: 40
Note ON: Time 35520, Note Name: C#4, Velocity: 49
Note OFF: Time 35760, Note Name: C#4
Note OFF: Time 35760, Note Name: G#3
Note OFF: Time 35760, Note Name: F3
Note ON: Time 36000, Note Name: E3, Velocity: 38
Note ON: Time 36000, Note Name: G3, Velocity: 38
Note ON: Time 36000, Note Name: C#4, Velocity: 46
Note OFF: Time 36240, Note Name: C#4
Note OFF: Time 36240, Note Name: G3
Note OFF: Time 36240, Note Name: E3
Note ON: Time 36480, Note Name: D#3, Velocity: 39
Note ON: Time 36480, Note Name: F#3, Velocity: 39
Note ON: Time 36480, Note Name: C#4, Velocity: 47
Note OFF: Time 36720, Note Name: C#4
Note OFF: Time 36720, Note Name: F#3
Note OFF: Time 36720, Note Name: D#3
Note ON: Time 36960, Note Name: D#3, Velocity: 38
Note ON: Time 36960, Note Name: F#3, Velocity: 38
Note ON: Time 36960, Note Name: C4, Velocity: 46
Note OFF: Time 37200, Note Name: C4
Note OFF: Time 37200, Note Name: F#3
Note OFF: Time 37200, Note Name: D#3
Note ON: Time 37440, Note Name: C#3, Velocity: 35
Note ON: Time 37440, Note Name: F3, Velocity: 35
Note ON: Time 37440, Note Name: C#4, Velocity: 42
Note OFF: Time 37560, Note Name: C#4
Note OFF: Time 37560, Note Name: F3
Note OFF: Time 37560, Note Name: C#3
Note ON: Time 37680, Note Name: G#3, Velocity: 39
Note OFF: Time 37800, Note Name: G#3
Note ON: Time 37920, Note Name: F3, Velocity: 42
Note OFF: Time 38040, Note Name: F3
Note ON: Time 38160, Note Name: D#3, Velocity: 39
Note OFF: Time 38280, Note Name: D#3
Note ON: Time 38400, Note Name: C#3, Velocity: 39
Note ON: Time 38400, Note Name: F3, Velocity: 39
Note ON: Time 38400, Note Name: G#3, Velocity: 47
Note OFF: Time 38640, Note Name: G#3
Note OFF: Time 38640, Note Name: F3
Note OFF: Time 38640, Note Name: C#3
Note ON: Time 38880, Note Name: C#3, Velocity: 37
Note ON: Time 38880, Note Name: F#3, Velocity: 37
Note ON: Time 38880, Note Name: A#3, Velocity: 44
Note OFF: Time 39120, Note Name: A#3
Note OFF: Time 39120, Note Name: F#3
Note OFF: Time 39120, Note Name: C#3
Note ON: Time 39360, Note Name: C#3, Velocity: 39
Note ON: Time 39360, Note Name: F3, Velocity: 39
Note ON: Time 39360, Note Name: G#3, Velocity: 47
Note OFF: Time 39600, Note Name: G#3
Note OFF: Time 39600, Note Name: F3
Note OFF: Time 39600, Note Name: C#3
Note ON: Time 39840, Note Name: C#3, Velocity: 37
Note ON: Time 39840, Note Name: D#3, Velocity: 37
Note ON: Time 39840, Note Name: A#3, Velocity: 44
Note OFF: Time 40080, Note Name: A#3
Note OFF: Time 40080, Note Name: D#3
Note OFF: Time 40080, Note Name: C#3
Note ON: Time 40320, Note Name: C#3, Velocity: 39
Note ON: Time 40320, Note Name: D#3, Velocity: 39
Note ON: Time 40320, Note Name: G#3, Velocity: 47
Note OFF: Time 40560, Note Name: G#3
Note OFF: Time 40560, Note Name: D#3
Note OFF: Time 40560, Note Name: C#3
Note ON: Time 40800, Note Name: C3, Velocity: 38
Note ON: Time 40800, Note Name: D#3, Velocity: 38
Note ON: Time 40800, Note Name: G#3, Velocity: 46
Note OFF: Time 41040, Note Name: G#3
Note OFF: Time 41040, Note Name: D#3
Note OFF: Time 41040, Note Name: C3
Note ON: Time 41280, Note Name: F#3, Velocity: 39
Note OFF: Time 41400, Note Name: F#3
Note ON: Time 41520, Note Name: F3, Velocity: 38
Note OFF: Time 41640, Note Name: F3
Note ON: Time 41760, Note Name: D#3, Velocity: 38
Note OFF: Time 41880, Note Name: D#3
Note ON: Time 42000, Note Name: C#3, Velocity: 37
Note OFF: Time 42120, Note Name: C#3
Note ON: Time 42240, Note Name: F3, Velocity: 40
Note ON: Time 42240, Note Name: G#3, Velocity: 40
Note ON: Time 42240, Note Name: C#4, Velocity: 49
Note OFF: Time 42480, Note Name: C#4
Note OFF: Time 42480, Note Name: G#3
Note OFF: Time 42480, Note Name: F3
Note ON: Time 42720, Note Name: F#3, Velocity: 38
Note ON: Time 42720, Note Name: A#3, Velocity: 46
Note ON: Time 42720, Note Name: C#4, Velocity: 46
Note OFF: Time 42960, Note Name: C#4
Note OFF: Time 42960, Note Name: A#3
Note OFF: Time 42960, Note Name: F#3
Note ON: Time 43200, Note Name: F3, Velocity: 40
Note ON: Time 43200, Note Name: G#3, Velocity: 40
Note ON: Time 43200, Note Name: C#4, Velocity: 49
Note OFF: Time 43440, Note Name: C#4
Note OFF: Time 43440, Note Name: G#3
Note OFF: Time 43440, Note Name: F3
Note ON: Time 43680, Note Name: E3, Velocity: 38
Note ON: Time 43680, Note Name: G3, Velocity: 38
Note ON: Time 43680, Note Name: C#4, Velocity: 46
Note OFF: Time 43920, Note Name: C#4
Note OFF: Time 43920, Note Name: G3
Note OFF: Time 43920, Note Name: E3
Note ON: Time 44160, Note Name: D#3, Velocity: 39
Note ON: Time 44160, Note Name: F#3, Velocity: 39
Note ON: Time 44160, Note Name: C#4, Velocity: 47
Note OFF: Time 44400, Note Name: C#4
Note OFF: Time 44400, Note Name: F#3
Note OFF: Time 44400, Note Name: D#3
Note ON: Time 44640, Note Name: D#3, Velocity: 38
Note ON: Time 44640, Note Name: F#3, Velocity: 38
Note ON: Time 44640, Note Name: C4, Velocity: 46
Note OFF: Time 44880, Note Name: C4
Note OFF: Time 44880, Note Name: F#3
Note OFF: Time 44880, Note Name: D#3
Note ON: Time 45120, Note Name: C#3, Velocity: 35
Note ON: Time 45120, Note Name: F3, Velocity: 35
Note ON: Time 45120, Note Name: C#4, Velocity: 42
Note OFF: Time 45240, Note Name: C#4
Note OFF: Time 45240, Note Name: F3
Note OFF: Time 45240, Note Name: C#3
Note ON: Time 45360, Note Name: G#3, Velocity: 39
Note OFF: Time 45480, Note Name: G#3
Note ON: Time 45600, Note Name: F3, Velocity: 42
Note OFF: Time 45720, Note Name: F3
Note ON: Time 45840, Note Name: C#3, Velocity: 39
Note OFF: Time 45960, Note Name: C#3
Note ON: Time 46080, Note Name: C3, Velocity: 39
Note ON: Time 46080, Note Name: D#3, Velocity: 39
Note ON: Time 46080, Note Name: G#3, Velocity: 47
Note OFF: Time 46320, Note Name: G#3
Note OFF: Time 46320, Note Name: D#3
Note OFF: Time 46320, Note Name: C3
Note ON: Time 46560, Note Name: C3, Velocity: 38
Note ON: Time 46560, Note Name: D#3, Velocity: 38
Note ON: Time 46560, Note Name: G#3, Velocity: 46
Note OFF: Time 46800, Note Name: G#3
Note OFF: Time 46800, Note Name: D#3
Note OFF: Time 46800, Note Name: C3
Note ON: Time 47040, Note Name: C#3, Velocity: 42
Note ON: Time 47040, Note Name: F3, Velocity: 42
Note ON: Time 47040, Note Name: G#3, Velocity: 42
Note OFF: Time 47280, Note Name: G#3
Note OFF: Time 47280, Note Name: F3
Note OFF: Time 47280, Note Name: C#3
Note ON: Time 47280, Note Name: F3, Velocity: 45
Note OFF: Time 47400, Note Name: F3
Note ON: Time 47520, Note Name: F#3, Velocity: 52
Note OFF: Time 47640, Note Name: F#3
Note ON: Time 47760, Note Name: G#3, Velocity: 54
Note OFF: Time 47880, Note Name: G#3
Note ON: Time 48000, Note Name: C3, Velocity: 50
Note ON: Time 48000, Note Name: D#3, Velocity: 50
Note ON: Time 48000, Note Name: G#3, Velocity: 61
Note OFF: Time 48240, Note Name: G#3
Note OFF: Time 48240, Note Name: D#3
Note OFF: Time 48240, Note Name: C3
Note ON: Time 48480, Note Name: D#3, Velocity: 49
Note ON: Time 48480, Note Name: G#3, Velocity: 49
Note ON: Time 48480, Note Name: C4, Velocity: 60
Note OFF: Time 48720, Note Name: C4
Note OFF: Time 48720, Note Name: G#3
Note OFF: Time 48720, Note Name: D#3
Note ON: Time 48960, Note Name: F3, Velocity: 60
Note ON: Time 48960, Note Name: G#3, Velocity: 60
Note ON: Time 48960, Note Name: C#4, Velocity: 60
Note OFF: Time 49200, Note Name: C#4
Note OFF: Time 49200, Note Name: G#3
Note OFF: Time 49200, Note Name: F3
Note ON: Time 49200, Note Name: G#3, Velocity: 67
Note OFF: Time 49320, Note Name: G#3
Note ON: Time 49440, Note Name: C4, Velocity: 73
Note OFF: Time 49560, Note Name: C4
Note ON: Time 49680, Note Name: C#4, Velocity: 75
Note OFF: Time 49800, Note Name: C#4
Note ON: Time 49920, Note Name: C3, Velocity: 77
Note ON: Time 49920, Note Name: D#3, Velocity: 77
Note ON: Time 49920, Note Name: G#3, Velocity: 91
Note OFF: Time 50160, Note Name: G#3
Note OFF: Time 50160, Note Name: D#3
Note OFF: Time 50160, Note Name: C3
Note ON: Time 50400, Note Name: F#3, Velocity: 57
Note ON: Time 50400, Note Name: C4, Velocity: 57
Note ON: Time 50400, Note Name: D#4, Velocity: 84
Note OFF: Time 50640, Note Name: D#4
Note OFF: Time 50640, Note Name: C4
Note OFF: Time 50640, Note Name: F#3
Note ON: Time 50880, Note Name: F3, Velocity: 74
Note ON: Time 50880, Note Name: C#4, Velocity: 74
Note ON: Time 50880, Note Name: F4, Velocity: 89
Note OFF: Time 51120, Note Name: F4
Note OFF: Time 51120, Note Name: C#4
Note OFF: Time 51120, Note Name: F3
Note ON: Time 51120, Note Name: F4, Velocity: 73
Note ON: Time 51120, Note Name: F3, Velocity: 61
Note OFF: Time 51240, Note Name: F3
Note OFF: Time 51240, Note Name: F4
Note ON: Time 51360, Note Name: F#4, Velocity: 78
Note ON: Time 51360, Note Name: F#3, Velocity: 66
Note OFF: Time 51480, Note Name: F#3
Note OFF: Time 51480, Note Name: F#4
Note ON: Time 51600, Note Name: G#4, Velocity: 75
Note ON: Time 51600, Note Name: G#3, Velocity: 65
Note OFF: Time 51720, Note Name: G#3
Note OFF: Time 51720, Note Name: G#4
Note ON: Time 51840, Note Name: A#3, Velocity: 58
Note ON: Time 51840, Note Name: A#4, Velocity: 58
Note OFF: Time 52080, Note Name: A#4
Note OFF: Time 52080, Note Name: A#3
Note ON: Time 52320, Note Name: C3, Velocity: 38
Note ON: Time 52320, Note Name: D#3, Velocity: 38
Note ON: Time 52320, Note Name: G#3, Velocity: 46
Note OFF: Time 52560, Note Name: G#3
Note OFF: Time 52560, Note Name: D#3
Note OFF: Time 52560, Note Name: C3
Note ON: Time 52800, Note Name: F#3, Velocity: 40
Note OFF: Time 52920, Note Name: F#3
Note ON: Time 53040, Note Name: F3, Velocity: 39
Note OFF: Time 53160, Note Name: F3
Note ON: Time 53280, Note Name: D#3, Velocity: 38
Note OFF: Time 53400, Note Name: D#3
Note ON: Time 53520, Note Name: C#3, Velocity: 37
Note OFF: Time 53640, Note Name: C#3
Note ON: Time 53760, Note Name: C3, Velocity: 39
Note ON: Time 53760, Note Name: D#3, Velocity: 39
Note ON: Time 53760, Note Name: G#3, Velocity: 47
Note OFF: Time 54000, Note Name: G#3
Note OFF: Time 54000, Note Name: D#3
Note OFF: Time 54000, Note Name: C3
Note ON: Time 54240, Note Name: C3, Velocity: 38
Note ON: Time 54240, Note Name: D#3, Velocity: 38
Note ON: Time 54240, Note Name: G#3, Velocity: 46
Note OFF: Time 54480, Note Name: G#3
Note OFF: Time 54480, Note Name: D#3
Note OFF: Time 54480, Note Name: C3
Note ON: Time 54720, Note Name: C#3, Velocity: 42
Note ON: Time 54720, Note Name: F3, Velocity: 42
Note ON: Time 54720, Note Name: G#3, Velocity: 42
Note OFF: Time 54960, Note Name: G#3
Note OFF: Time 54960, Note Name: F3
Note OFF: Time 54960, Note Name: C#3
Note ON: Time 54960, Note Name: F3, Velocity: 45
Note OFF: Time 55080, Note Name: F3
Note ON: Time 55200, Note Name: F#3, Velocity: 52
Note OFF: Time 55320, Note Name: F#3
Note ON: Time 55440, Note Name: G#3, Velocity: 54
Note OFF: Time 55560, Note Name: G#3
Note ON: Time 55680, Note Name: C3, Velocity: 50
Note ON: Time 55680, Note Name: D#3, Velocity: 50
Note ON: Time 55680, Note Name: G#3, Velocity: 61
Note OFF: Time 55920, Note Name: G#3
Note OFF: Time 55920, Note Name: D#3
Note OFF: Time 55920, Note Name: C3
Note ON: Time 56160, Note Name: D#3, Velocity: 49
Note ON: Time 56160, Note Name: G#3, Velocity: 49
Note ON: Time 56160, Note Name: C4, Velocity: 60
Note OFF: Time 56400, Note Name: C4
Note OFF: Time 56400, Note Name: G#3
Note OFF: Time 56400, Note Name: D#3
Note ON: Time 56640, Note Name: F3, Velocity: 60
Note ON: Time 56640, Note Name: G#3, Velocity: 60
Note ON: Time 56640, Note Name: C#4, Velocity: 60
Note OFF: Time 56880, Note Name: C#4
Note OFF: Time 56880, Note Name: G#3
Note OFF: Time 56880, Note Name: F3
Note ON: Time 56880, Note Name: G#3, Velocity: 67
Note OFF: Time 57000, Note Name: G#3
Note ON: Time 57120, Note Name: C4, Velocity: 73
Note OFF: Time 57240, Note Name: C4
Note ON: Time 57360, Note Name: C#4, Velocity: 75
Note OFF: Time 57480, Note Name: C#4
Note ON: Time 57600, Note Name: C3, Velocity: 77
Note ON: Time 57600, Note Name: D#3, Velocity: 77
Note ON: Time 57600, Note Name: G#3, Velocity: 91
Note OFF: Time 57840, Note Name: G#3
Note OFF: Time 57840, Note Name: D#3
Note OFF: Time 57840, Note Name: C3
Note ON: Time 58080, Note Name: F#3, Velocity: 57
Note ON: Time 58080, Note Name: C4, Velocity: 57
Note ON: Time 58080, Note Name: D#4, Velocity: 84
Note OFF: Time 58320, Note Name: D#4
Note OFF: Time 58320, Note Name: C4
Note OFF: Time 58320, Note Name: F#3
Note ON: Time 58560, Note Name: F3, Velocity: 74
Note ON: Time 58560, Note Name: C#4, Velocity: 74
Note ON: Time 58560, Note Name: F4, Velocity: 89
Note OFF: Time 58800, Note Name: F4
Note OFF: Time 58800, Note Name: C#4
Note OFF: Time 58800, Note Name: F3
Note ON: Time 58800, Note Name: F4, Velocity: 73
Note ON: Time 58800, Note Name: F3, Velocity: 61
Note OFF: Time 58920, Note Name: F3
Note OFF: Time 58920, Note Name: F4
Note ON: Time 59040, Note Name: F#4, Velocity: 78
Note ON: Time 59040, Note Name: F#3, Velocity: 66
Note OFF: Time 59160, Note Name: F#3
Note OFF: Time 59160, Note Name: F#4
Note ON: Time 59280, Note Name: G#4, Velocity: 75
Note ON: Time 59280, Note Name: G#3, Velocity: 65
Note OFF: Time 59400, Note Name: G#3
Note OFF: Time 59400, Note Name: G#4
Note ON: Time 59520, Note Name: A#3, Velocity: 58
Note ON: Time 59520, Note Name: A#4, Velocity: 58
Note OFF: Time 59760, Note Name: A#4
Note OFF: Time 59760, Note Name: A#3
Note ON: Time 60000, Note Name: C3, Velocity: 38
Note ON: Time 60000, Note Name: D#3, Velocity: 38
Note ON: Time 60000, Note Name: G#3, Velocity: 46
Note OFF: Time 60240, Note Name: G#3
Note OFF: Time 60240, Note Name: D#3
Note OFF: Time 60240, Note Name: C3
Note ON: Time 60480, Note Name: F3, Velocity: 42
Note OFF: Time 60600, Note Name: F3
Note ON: Time 60720, Note Name: D#3, Velocity: 39
Note OFF: Time 60840, Note Name: D#3
Note ON: Time 60960, Note Name: C#3, Velocity: 37
Note OFF: Time 61080, Note Name: C#3
Note ON: Time 61440, Note Name: G#4, Velocity: 47
Note OFF: Time 61560, Note Name: G#4
Note ON: Time 61560, Note Name: F4, Velocity: 40
Note OFF: Time 61680, Note Name: F4
Note ON: Time 61680, Note Name: C#4, Velocity: 43
Note OFF: Time 61800, Note Name: C#4
Note ON: Time 61800, Note Name: G#4, Velocity: 39
Note OFF: Time 61920, Note Name: G#4
Note ON: Time 61920, Note Name: C#4, Velocity: 44
Note OFF: Time 62040, Note Name: C#4
Note ON: Time 62040, Note Name: A#4, Velocity: 40
Note OFF: Time 62160, Note Name: A#4
Note ON: Time 62160, Note Name: F#4, Velocity: 40
Note OFF: Time 62280, Note Name: F#4
Note ON: Time 62280, Note Name: C#4, Velocity: 38
Note OFF: Time 62400, Note Name: C#4
Note ON: Time 62400, Note Name: G#4, Velocity: 47
Note OFF: Time 62520, Note Name: G#4
Note ON: Time 62520, Note Name: F4, Velocity: 43
Note OFF: Time 62640, Note Name: F4
Note ON: Time 62640, Note Name: C#4, Velocity: 43
Note OFF: Time 62760, Note Name: C#4
Note ON: Time 62760, Note Name: G#4, Velocity: 44
Note OFF: Time 62880, Note Name: G#4
Note ON: Time 62880, Note Name: C#4, Velocity: 42
Note OFF: Time 63000, Note Name: C#4
Note ON: Time 63000, Note Name: G#4, Velocity: 39
Note OFF: Time 63120, Note Name: G#4
Note ON: Time 63120, Note Name: C#4, Velocity: 44
Note ON: Time 63120, Note Name: D#4, Velocity: 44
Note OFF: Time 63240, Note Name: D#4
Note OFF: Time 63240, Note Name: C#4
Note ON: Time 63240, Note Name: A#4, Velocity: 40
Note OFF: Time 63360, Note Name: A#4
Note ON: Time 63360, Note Name: G#4, Velocity: 47
Note OFF: Time 63480, Note Name: G#4
Note ON: Time 63480, Note Name: D#4, Velocity: 43
Note OFF: Time 63600, Note Name: D#4
Note ON: Time 63600, Note Name: C#4, Velocity: 40
Note OFF: Time 63720, Note Name: C#4
Note ON: Time 63720, Note Name: G#4, Velocity: 40
Note OFF: Time 63840, Note Name: G#4
Note ON: Time 63840, Note Name: C4, Velocity: 46
Note OFF: Time 63960, Note Name: C4
Note ON: Time 63960, Note Name: G#4, Velocity: 40
Note OFF: Time 64080, Note Name: G#4
Note ON: Time 64080, Note Name: D#4, Velocity: 43
Note OFF: Time 64200, Note Name: D#4
Note ON: Time 64200, Note Name: C4, Velocity: 43
Note OFF: Time 64320, Note Name: C4
Note ON: Time 64320, Note Name: G#4, Velocity: 47
Note OFF: Time 64440, Note Name: G#4
Note ON: Time 64440, Note Name: F4, Velocity: 44
Note OFF: Time 64560, Note Name: F4
Note ON: Time 64560, Note Name: C#4, Velocity: 43
Note OFF: Time 64680, Note Name: C#4
Note ON: Time 64680, Note Name: G#4, Velocity: 43
Note OFF: Time 64800, Note Name: G#4
Note ON: Time 64800, Note Name: F4, Velocity: 47
Note OFF: Time 64920, Note Name: F4
Note ON: Time 64920, Note Name: C#5, Velocity: 44
Note OFF: Time 65040, Note Name: C#5
Note ON: Time 65040, Note Name: G#4, Velocity: 41
Note OFF: Time 65160, Note Name: G#4
Note ON: Time 65160, Note Name: F4, Velocity: 38
Note OFF: Time 65280, Note Name: F4
Note ON: Time 65280, Note Name: C#5, Velocity: 47
Note OFF: Time 65400, Note Name: C#5
Note ON: Time 65400, Note Name: G#4, Velocity: 43
Note OFF: Time 65520, Note Name: G#4
Note ON: Time 65520, Note Name: F4, Velocity: 43
Note OFF: Time 65640, Note Name: F4
Note ON: Time 65640, Note Name: C#5, Velocity: 39
Note OFF: Time 65760, Note Name: C#5
Note ON: Time 65760, Note Name: F#4, Velocity: 64
Note OFF: Time 65880, Note Name: F#4
Note ON: Time 65880, Note Name: C#5, Velocity: 43
Note OFF: Time 66000, Note Name: C#5
Note ON: Time 66000, Note Name: A#4, Velocity: 47
Note OFF: Time 66120, Note Name: A#4
Note ON: Time 66120, Note Name: F#4, Velocity: 38
Note OFF: Time 66240, Note Name: F#4
Note ON: Time 66240, Note Name: C#5, Velocity: 47
Note OFF: Time 66360, Note Name: C#5
Note ON: Time 66360, Note Name: G#4, Velocity: 43
Note OFF: Time 66480, Note Name: G#4
Note ON: Time 66480, Note Name: F4, Velocity: 43
Note OFF: Time 66600, Note Name: F4
Note ON: Time 66600, Note Name: C#5, Velocity: 44
Note OFF: Time 66720, Note Name: C#5
Note ON: Time 66720, Note Name: F4, Velocity: 42
Note OFF: Time 66840, Note Name: F4
Note ON: Time 66840, Note Name: C#5, Velocity: 39
Note OFF: Time 66960, Note Name: C#5
Note ON: Time 66960, Note Name: E4, Velocity: 44
Note ON: Time 66960, Note Name: G4, Velocity: 44
Note OFF: Time 67080, Note Name: G4
Note OFF: Time 67080, Note Name: E4
Note ON: Time 67080, Note Name: C#5, Velocity: 40
Note OFF: Time 67200, Note Name: C#5
Note ON: Time 67200, Note Name: D#4, Velocity: 47
Note OFF: Time 67320, Note Name: D#4
Note ON: Time 67320, Note Name: C#5, Velocity: 43
Note OFF: Time 67440, Note Name: C#5
Note ON: Time 67440, Note Name: F#4, Velocity: 43
Note OFF: Time 67560, Note Name: F#4
Note ON: Time 67560, Note Name: D#4, Velocity: 39
Note OFF: Time 67680, Note Name: D#4
Note ON: Time 67680, Note Name: C5, Velocity: 46
Note OFF: Time 67800, Note Name: C5
Note ON: Time 67800, Note Name: F#4, Velocity: 43
Note OFF: Time 67920, Note Name: F#4
Note ON: Time 67920, Note Name: D#4, Velocity: 43
Note OFF: Time 68040, Note Name: D#4
Note ON: Time 68040, Note Name: C5, Velocity: 39
Note OFF: Time 68160, Note Name: C5
Note ON: Time 68160, Note Name: C#5, Velocity: 47
Note OFF: Time 68280, Note Name: C#5
Note ON: Time 68280, Note Name: G#4, Velocity: 44
Note OFF: Time 68400, Note Name: G#4
Note ON: Time 68400, Note Name: F4, Velocity: 43
Note OFF: Time 68520, Note Name: F4
Note ON: Time 68520, Note Name: C#5, Velocity: 43
Note OFF: Time 68640, Note Name: C#5
Note ON: Time 68640, Note Name: G#4, Velocity: 47
Note OFF: Time 68760, Note Name: G#4
Note ON: Time 68760, Note Name: F4, Velocity: 40
Note OFF: Time 68880, Note Name: F4
Note ON: Time 68880, Note Name: C#4, Velocity: 41
Note OFF: Time 69000, Note Name: C#4
Note ON: Time 69000, Note Name: G#4, Velocity: 38
Note OFF: Time 69120, Note Name: G#4
Note ON: Time 69120, Note Name: G#4, Velocity: 47
Note OFF: Time 69240, Note Name: G#4
Note ON: Time 69240, Note Name: F4, Velocity: 40
Note OFF: Time 69360, Note Name: F4
Note ON: Time 69360, Note Name: C#4, Velocity: 43
Note OFF: Time 69480, Note Name: C#4
Note ON: Time 69480, Note Name: G#4, Velocity: 39
Note OFF: Time 69600, Note Name: G#4
Note ON: Time 69600, Note Name: C#4, Velocity: 44
Note OFF: Time 69720, Note Name: C#4
Note ON: Time 69720, Note Name: A#4, Velocity: 40
Note OFF: Time 69840, Note Name: A#4
Note ON: Time 69840, Note Name: F#4, Velocity: 40
Note OFF: Time 69960, Note Name: F#4
Note ON: Time 69960, Note Name: C#4, Velocity: 38
Note OFF: Time 70080, Note Name: C#4
Note ON: Time 70080, Note Name: G#4, Velocity: 47
Note OFF: Time 70200, Note Name: G#4
Note ON: Time 70200, Note Name: F4, Velocity: 43
Note OFF: Time 70320, Note Name: F4
Note ON: Time 70320, Note Name: C#4, Velocity: 43
Note OFF: Time 70440, Note Name: C#4
Note ON: Time 70440, Note Name: G#4, Velocity: 44
Note OFF: Time 70560, Note Name: G#4
Note ON: Time 70560, Note Name: C#4, Velocity: 42
Note OFF: Time 70680, Note Name: C#4
Note ON: Time 70680, Note Name: G#4, Velocity: 39
Note OFF: Time 70800, Note Name: G#4
Note ON: Time 70800, Note Name: C#4, Velocity: 44
Note ON: Time 70800, Note Name: D#4, Velocity: 44
Note OFF: Time 70920, Note Name: D#4
Note OFF: Time 70920, Note Name: C#4
Note ON: Time 70920, Note Name: A#4, Velocity: 40
Note OFF: Time 71040, Note Name: A#4
Note ON: Time 71040, Note Name: G#4, Velocity: 47
Note OFF: Time 71160, Note Name: G#4
Note ON: Time 71160, Note Name: D#4, Velocity: 43
Note OFF: Time 71280, Note Name: D#4
Note ON: Time 71280, Note Name: C#4, Velocity: 40
Note OFF: Time 71400, Note Name: C#4
Note ON: Time 71400, Note Name: G#4, Velocity: 40
Note OFF: Time 71520, Note Name: G#4
Note ON: Time 71520, Note Name: C4, Velocity: 46
Note OFF: Time 71640, Note Name: C4
Note ON: Time 71640, Note Name: G#4, Velocity: 40
Note OFF: Time 71760, Note Name: G#4
Note ON: Time 71760, Note Name: D#4, Velocity: 43
Note OFF: Time 71880, Note Name: D#4
Note ON: Time 71880, Note Name: C4, Velocity: 43
Note OFF: Time 72000, Note Name: C4
Note ON: Time 72000, Note Name: G#4, Velocity: 47
Note OFF: Time 72120, Note Name: G#4
Note ON: Time 72120, Note Name: F4, Velocity: 44
Note OFF: Time 72240, Note Name: F4
Note ON: Time 72240, Note Name: C#4, Velocity: 43
Note OFF: Time 72360, Note Name: C#4
Note ON: Time 72360, Note Name: G#4, Velocity: 43
Note OFF: Time 72480, Note Name: G#4
Note ON: Time 72480, Note Name: F4, Velocity: 47
Note OFF: Time 72600, Note Name: F4
Note ON: Time 72600, Note Name: C#5, Velocity: 44
Note OFF: Time 72720, Note Name: C#5
Note ON: Time 72720, Note Name: G#4, Velocity: 41
Note OFF: Time 72840, Note Name: G#4
Note ON: Time 72840, Note Name: F4, Velocity: 38
Note OFF: Time 72960, Note Name: F4
Note ON: Time 72960, Note Name: C#5, Velocity: 47
Note OFF: Time 73080, Note Name: C#5
Note ON: Time 73080, Note Name: G#4, Velocity: 43
Note OFF: Time 73200, Note Name: G#4
Note ON: Time 73200, Note Name: F4, Velocity: 43
Note OFF: Time 73320, Note Name: F4
Note ON: Time 73320, Note Name: C#5, Velocity: 39
Note OFF: Time 73440, Note Name: C#5
Note ON: Time 73440, Note Name: F#4, Velocity: 59
Note OFF: Time 73560, Note Name: F#4
Note ON: Time 73560, Note Name: C#5, Velocity: 43
Note OFF: Time 73680, Note Name: C#5
Note ON: Time 73680, Note Name: A#4, Velocity: 47
Note OFF: Time 73800, Note Name: A#4
Note ON: Time 73800, Note Name: F#4, Velocity: 38
Note OFF: Time 73920, Note Name: F#4
Note ON: Time 73920, Note Name: C#5, Velocity: 47
Note OFF: Time 74040, Note Name: C#5
Note ON: Time 74040, Note Name: G#4, Velocity: 43
Note OFF: Time 74160, Note Name: G#4
Note ON: Time 74160, Note Name: F4, Velocity: 43
Note OFF: Time 74280, Note Name: F4
Note ON: Time 74280, Note Name: C#5, Velocity: 44
Note OFF: Time 74400, Note Name: C#5
Note ON: Time 74400, Note Name: F4, Velocity: 42
Note OFF: Time 74520, Note Name: F4
Note ON: Time 74520, Note Name: C#5, Velocity: 39
Note OFF: Time 74640, Note Name: C#5
Note ON: Time 74640, Note Name: E4, Velocity: 44
Note ON: Time 74640, Note Name: G4, Velocity: 44
Note OFF: Time 74760, Note Name: G4
Note OFF: Time 74760, Note Name: E4
Note ON: Time 74760, Note Name: C#5, Velocity: 40
Note OFF: Time 74880, Note Name: C#5
Note ON: Time 74880, Note Name: D#4, Velocity: 47
Note OFF: Time 75000, Note Name: D#4
Note ON: Time 75000, Note Name: C#5, Velocity: 43
Note OFF: Time 75120, Note Name: C#5
Note ON: Time 75120, Note Name: F#4, Velocity: 43
Note OFF: Time 75240, Note Name: F#4
Note ON: Time 75240, Note Name: D#4, Velocity: 39
Note OFF: Time 75360, Note Name: D#4
Note ON: Time 75360, Note Name: C5, Velocity: 46
Note OFF: Time 75480, Note Name: C5
Note ON: Time 75480, Note Name: F#4, Velocity: 43
Note OFF: Time 75600, Note Name: F#4
Note ON: Time 75600, Note Name: D#4, Velocity: 43
Note OFF: Time 75720, Note Name: D#4
Note ON: Time 75720, Note Name: C5, Velocity: 39
Note OFF: Time 75840, Note Name: C5
Note ON: Time 75840, Note Name: C#5, Velocity: 47
Note OFF: Time 75960, Note Name: C#5
Note ON: Time 75960, Note Name: G#4, Velocity: 44
Note OFF: Time 76080, Note Name: G#4
Note ON: Time 76080, Note Name: F4, Velocity: 43
Note OFF: Time 76200, Note Name: F4
Note ON: Time 76200, Note Name: C#5, Velocity: 43
Note OFF: Time 76320, Note Name: C#5
Note ON: Time 76320, Note Name: G#4, Velocity: 47
Note OFF: Time 76440, Note Name: G#4
Note ON: Time 76440, Note Name: F4, Velocity: 40
Note OFF: Time 76560, Note Name: F4
Note ON: Time 76560, Note Name: C#4, Velocity: 41
Note OFF: Time 76680, Note Name: C#4
Note ON: Time 76680, Note Name: G#4, Velocity: 38
Note OFF: Time 76800, Note Name: G#4
Note ON: Time 76800, Note Name: G#4, Velocity: 47
Note OFF: Time 76920, Note Name: G#4
Note ON: Time 76920, Note Name: D#4, Velocity: 40
Note OFF: Time 77040, Note Name: D#4
Note ON: Time 77040, Note Name: C4, Velocity: 43
Note OFF: Time 77160, Note Name: C4
Note ON: Time 77160, Note Name: G#4, Velocity: 39
Note OFF: Time 77280, Note Name: G#4
Note ON: Time 77280, Note Name: C4, Velocity: 44
Note OFF: Time 77400, Note Name: C4
Note ON: Time 77400, Note Name: G#4, Velocity: 40
Note OFF: Time 77520, Note Name: G#4
Note ON: Time 77520, Note Name: F#4, Velocity: 40
Note OFF: Time 77640, Note Name: F#4
Note ON: Time 77640, Note Name: C4, Velocity: 38
Note OFF: Time 77760, Note Name: C4
Note ON: Time 77760, Note Name: C#4, Velocity: 49
Note OFF: Time 77880, Note Name: C#4
Note ON: Time 77880, Note Name: F4, Velocity: 49
Note OFF: Time 78000, Note Name: F4
Note ON: Time 78000, Note Name: G#4, Velocity: 53
Note OFF: Time 78120, Note Name: G#4
Note ON: Time 78120, Note Name: C#5, Velocity: 57
Note OFF: Time 78240, Note Name: C#5
Note ON: Time 78240, Note Name: C5, Velocity: 62
Note OFF: Time 78360, Note Name: C5
Note ON: Time 78360, Note Name: F#4, Velocity: 49
Note OFF: Time 78480, Note Name: F#4
Note ON: Time 78480, Note Name: C#5, Velocity: 55
Note OFF: Time 78600, Note Name: C#5
Note ON: Time 78600, Note Name: F4, Velocity: 43
Note OFF: Time 78720, Note Name: F4
Note ON: Time 78720, Note Name: G#4, Velocity: 47
Note OFF: Time 78840, Note Name: G#4
Note ON: Time 78840, Note Name: D#4, Velocity: 40
Note OFF: Time 78960, Note Name: D#4
Note ON: Time 78960, Note Name: C4, Velocity: 43
Note OFF: Time 79080, Note Name: C4
Note ON: Time 79080, Note Name: G#4, Velocity: 39
Note OFF: Time 79200, Note Name: G#4
Note ON: Time 79200, Note Name: C4, Velocity: 44
Note OFF: Time 79320, Note Name: C4
Note ON: Time 79320, Note Name: G#4, Velocity: 40
Note OFF: Time 79440, Note Name: G#4
Note ON: Time 79440, Note Name: F#4, Velocity: 40
Note OFF: Time 79560, Note Name: F#4
Note ON: Time 79560, Note Name: C4, Velocity: 38
Note OFF: Time 79680, Note Name: C4
Note ON: Time 79680, Note Name: C#4, Velocity: 49
Note OFF: Time 79800, Note Name: C#4
Note ON: Time 79800, Note Name: F4, Velocity: 49
Note OFF: Time 79920, Note Name: F4
Note ON: Time 79920, Note Name: G#4, Velocity: 53
Note OFF: Time 80040, Note Name: G#4
Note ON: Time 80040, Note Name: F5, Velocity: 55
Note OFF: Time 80160, Note Name: F5
Note ON: Time 80160, Note Name: D#5, Velocity: 62
Note OFF: Time 80280, Note Name: D#5
Note ON: Time 80280, Note Name: F#4, Velocity: 49
Note OFF: Time 80400, Note Name: F#4
Note ON: Time 80400, Note Name: C#5, Velocity: 55
Note OFF: Time 80520, Note Name: C#5
Note ON: Time 80520, Note Name: F4, Velocity: 43
Note OFF: Time 80640, Note Name: F4
Note ON: Time 80640, Note Name: G#4, Velocity: 58
Note OFF: Time 80760, Note Name: G#4
Note ON: Time 80760, Note Name: D#4, Velocity: 50
Note OFF: Time 80880, Note Name: D#4
Note ON: Time 80880, Note Name: C4, Velocity: 58
Note OFF: Time 81000, Note Name: C4
Note ON: Time 81000, Note Name: G#4, Velocity: 53
Note OFF: Time 81120, Note Name: G#4
Note ON: Time 81120, Note Name: C4, Velocity: 67
Note OFF: Time 81240, Note Name: C4
Note ON: Time 81240, Note Name: G#4, Velocity: 62
Note OFF: Time 81360, Note Name: G#4
Note ON: Time 81360, Note Name: F#4, Velocity: 67
Note OFF: Time 81480, Note Name: F#4
Note ON: Time 81480, Note Name: C4, Velocity: 63
Note OFF: Time 81600, Note Name: C4
Note ON: Time 81720, Note Name: G#5, Velocity: 73
Note OFF: Time 81840, Note Name: G#5
Note ON: Time 81840, Note Name: G#4, Velocity: 74
Note OFF: Time 81960, Note Name: G#4
Note ON: Time 81960, Note Name: G#5, Velocity: 65
Note OFF: Time 82080, Note Name: G#5
Note ON: Time 82080, Note Name: F#5, Velocity: 70
Note OFF: Time 82200, Note Name: F#5
Note ON: Time 82200, Note Name: G#4, Velocity: 58
Note OFF: Time 82320, Note Name: G#4
Note ON: Time 82320, Note Name: F5, Velocity: 63
Note OFF: Time 82440, Note Name: F5
Note ON: Time 82440, Note Name: G#4, Velocity: 48
Note OFF: Time 82560, Note Name: G#4
Note ON: Time 82560, Note Name: D#5, Velocity: 47
Note OFF: Time 82680, Note Name: D#5
Note ON: Time 82680, Note Name: A#4, Velocity: 43
Note OFF: Time 82800, Note Name: A#4
Note ON: Time 82800, Note Name: F#4, Velocity: 43
Note OFF: Time 82920, Note Name: F#4
Note ON: Time 82920, Note Name: D#5, Velocity: 39
Note OFF: Time 83040, Note Name: D#5
Note ON: Time 83040, Note Name: G#4, Velocity: 46
Note OFF: Time 83160, Note Name: G#4
Note ON: Time 83160, Note Name: F#4, Velocity: 43
Note OFF: Time 83280, Note Name: F#4
Note ON: Time 83280, Note Name: D#4, Velocity: 43
Note OFF: Time 83400, Note Name: D#4
Note ON: Time 83400, Note Name: G#4, Velocity: 39
Note OFF: Time 83520, Note Name: G#4
Note ON: Time 83520, Note Name: F4, Velocity: 47
Note OFF: Time 83640, Note Name: F4
Note ON: Time 83640, Note Name: C#5, Velocity: 44
Note OFF: Time 83760, Note Name: C#5
Note ON: Time 83760, Note Name: G#4, Velocity: 43
Note OFF: Time 83880, Note Name: G#4
Note ON: Time 83880, Note Name: F4, Velocity: 43
Note OFF: Time 84000, Note Name: F4
Note ON: Time 84000, Note Name: C#4, Velocity: 47
Note OFF: Time 84120, Note Name: C#4
Note ON: Time 84480, Note Name: G#4, Velocity: 47
Note OFF: Time 84600, Note Name: G#4
Note ON: Time 84600, Note Name: D#4, Velocity: 40
Note OFF: Time 84720, Note Name: D#4
Note ON: Time 84720, Note Name: C4, Velocity: 43
Note OFF: Time 84840, Note Name: C4
Note ON: Time 84840, Note Name: G#4, Velocity: 39
Note OFF: Time 84960, Note Name: G#4
Note ON: Time 84960, Note Name: C4, Velocity: 44
Note OFF: Time 85080, Note Name: C4
Note ON: Time 85080, Note Name: G#4, Velocity: 40
Note OFF: Time 85200, Note Name: G#4
Note ON: Time 85200, Note Name: F#4, Velocity: 40
Note OFF: Time 85320, Note Name: F#4
Note ON: Time 85320, Note Name: C4, Velocity: 38
Note OFF: Time 85440, Note Name: C4
Note ON: Time 85440, Note Name: C#4, Velocity: 49
Note OFF: Time 85560, Note Name: C#4
Note ON: Time 85560, Note Name: F4, Velocity: 49
Note OFF: Time 85680, Note Name: F4
Note ON: Time 85680, Note Name: G#4, Velocity: 53
Note OFF: Time 85800, Note Name: G#4
Note ON: Time 85800, Note Name: C#5, Velocity: 57
Note OFF: Time 85920, Note Name: C#5
Note ON: Time 85920, Note Name: C5, Velocity: 62
Note OFF: Time 86040, Note Name: C5
Note ON: Time 86040, Note Name: F#4, Velocity: 49
Note OFF: Time 86160, Note Name: F#4
Note ON: Time 86160, Note Name: C#5, Velocity: 55
Note OFF: Time 86280, Note Name: C#5
Note ON: Time 86280, Note Name: F4, Velocity: 43
Note OFF: Time 86400, Note Name: F4
Note ON: Time 86400, Note Name: G#4, Velocity: 47
Note OFF: Time 86520, Note Name: G#4
Note ON: Time 86520, Note Name: D#4, Velocity: 40
Note OFF: Time 86640, Note Name: D#4
Note ON: Time 86640, Note Name: C4, Velocity: 43
Note OFF: Time 86760, Note Name: C4
Note ON: Time 86760, Note Name: G#4, Velocity: 39
Note OFF: Time 86880, Note Name: G#4
Note ON: Time 86880, Note Name: C4, Velocity: 44
Note OFF: Time 87000, Note Name: C4
Note ON: Time 87000, Note Name: G#4, Velocity: 40
Note OFF: Time 87120, Note Name: G#4
Note ON: Time 87120, Note Name: F#4, Velocity: 40
Note OFF: Time 87240, Note Name: F#4
Note ON: Time 87240, Note Name: C4, Velocity: 38
Note OFF: Time 87360, Note Name: C4
Note ON: Time 87360, Note Name: C#4, Velocity: 49
Note OFF: Time 87480, Note Name: C#4
Note ON: Time 87480, Note Name: F4, Velocity: 49
Note OFF: Time 87600, Note Name: F4
Note ON: Time 87600, Note Name: G#4, Velocity: 53
Note OFF: Time 87720, Note Name: G#4
Note ON: Time 87720, Note Name: F5, Velocity: 54
Note OFF: Time 87840, Note Name: F5
Note ON: Time 87840, Note Name: D#5, Velocity: 62
Note OFF: Time 87960, Note Name: D#5
Note ON: Time 87960, Note Name: F#4, Velocity: 49
Note OFF: Time 88080, Note Name: F#4
Note ON: Time 88080, Note Name: C#5, Velocity: 55
Note OFF: Time 88200, Note Name: C#5
Note ON: Time 88200, Note Name: F4, Velocity: 43
Note OFF: Time 88320, Note Name: F4
Note ON: Time 88320, Note Name: G#4, Velocity: 58
Note OFF: Time 88440, Note Name: G#4
Note ON: Time 88440, Note Name: D#4, Velocity: 50
Note OFF: Time 88560, Note Name: D#4
Note ON: Time 88560, Note Name: C4, Velocity: 58
Note OFF: Time 88680, Note Name: C4
Note ON: Time 88680, Note Name: G#4, Velocity: 53
Note OFF: Time 88800, Note Name: G#4
Note ON: Time 88800, Note Name: C4, Velocity: 67
Note OFF: Time 88920, Note Name: C4
Note ON: Time 88920, Note Name: G#4, Velocity: 62
Note OFF: Time 89040, Note Name: G#4
Note ON: Time 89040, Note Name: F#4, Velocity: 67
Note OFF: Time 89160, Note Name: F#4
Note ON: Time 89160, Note Name: C4, Velocity: 64
Note OFF: Time 89280, Note Name: C4
Note ON: Time 89400, Note Name: G#5, Velocity: 74
Note OFF: Time 89520, Note Name: G#5
Note ON: Time 89520, Note Name: G#4, Velocity: 74
Note OFF: Time 89640, Note Name: G#4
Note ON: Time 89640, Note Name: G#5, Velocity: 66
Note OFF: Time 89760, Note Name: G#5
Note ON: Time 89760, Note Name: F#5, Velocity: 73
Note OFF: Time 89880, Note Name: F#5
Note ON: Time 89880, Note Name: G#4, Velocity: 58
Note OFF: Time 90000, Note Name: G#4
Note ON: Time 90000, Note Name: F5, Velocity: 63
Note OFF: Time 90120, Note Name: F5
Note ON: Time 90120, Note Name: G#4, Velocity: 48
Note OFF: Time 90240, Note Name: G#4
Note ON: Time 90240, Note Name: D#5, Velocity: 47
Note OFF: Time 90360, Note Name: D#5
Note ON: Time 90360, Note Name: A#4, Velocity: 43
Note OFF: Time 90480, Note Name: A#4
Note ON: Time 90480, Note Name: F#4, Velocity: 43
Note OFF: Time 90600, Note Name: F#4
Note ON: Time 90600, Note Name: D#5, Velocity: 39
Note OFF: Time 90720, Note Name: D#5
Note ON: Time 90720, Note Name: G#4, Velocity: 46
Note OFF: Time 90840, Note Name: G#4
Note ON: Time 90840, Note Name: F#4, Velocity: 43
Note OFF: Time 90960, Note Name: F#4
Note ON: Time 90960, Note Name: D#4, Velocity: 43
Note OFF: Time 91080, Note Name: D#4
Note ON: Time 91080, Note Name: G#4, Velocity: 39
Note OFF: Time 91200, Note Name: G#4
Note ON: Time 91200, Note Name: F4, Velocity: 47
Note OFF: Time 91320, Note Name: F4
Note ON: Time 91320, Note Name: C#5, Velocity: 44
Note OFF: Time 91440, Note Name: C#5
Note ON: Time 91440, Note Name: G#4, Velocity: 43
Note OFF: Time 91560, Note Name: G#4
Note ON: Time 91560, Note Name: F4, Velocity: 43
Note OFF: Time 91680, Note Name: F4
Note ON: Time 91680, Note Name: C#4, Velocity: 47
Note OFF: Time 91800, Note Name: C#4
Note ON: Time 92400, Note Name: G#5, Velocity: 72
Note OFF: Time 92880, Note Name: G#5
Note ON: Time 92880, Note Name: A#5, Velocity: 74
Note OFF: Time 93360, Note Name: A#5
Note ON: Time 93360, Note Name: G#5, Velocity: 72
Note OFF: Time 93840, Note Name: G#5
Note ON: Time 93840, Note Name: C#5, Velocity: 65
Note ON: Time 93840, Note Name: D#5, Velocity: 65
Note ON: Time 93840, Note Name: A#5, Velocity: 77
Note OFF: Time 94080, Note Name: A#5
Note OFF: Time 94080, Note Name: D#5
Note OFF: Time 94080, Note Name: C#5
Note ON: Time 94080, Note Name: C#5, Velocity: 68
Note ON: Time 94080, Note Name: D#5, Velocity: 68
Note ON: Time 94080, Note Name: G#5, Velocity: 80
Note OFF: Time 94320, Note Name: G#5
Note OFF: Time 94320, Note Name: D#5
Note OFF: Time 94320, Note Name: C#5
Note ON: Time 94320, Note Name: C#5, Velocity: 65
Note ON: Time 94320, Note Name: D#5, Velocity: 65
Note ON: Time 94320, Note Name: G#5, Velocity: 77
Note OFF: Time 94560, Note Name: G#5
Note OFF: Time 94560, Note Name: D#5
Note OFF: Time 94560, Note Name: C#5
Note ON: Time 94560, Note Name: C5, Velocity: 69
Note ON: Time 94560, Note Name: D#5, Velocity: 69
Note ON: Time 94560, Note Name: G#5, Velocity: 81
Note OFF: Time 94800, Note Name: G#5
Note OFF: Time 94800, Note Name: D#5
Note OFF: Time 94800, Note Name: C5
Note ON: Time 94800, Note Name: C5, Velocity: 65
Note ON: Time 94800, Note Name: D#5, Velocity: 65
Note ON: Time 94800, Note Name: G#5, Velocity: 76
Note OFF: Time 95040, Note Name: G#5
Note OFF: Time 95040, Note Name: D#5
Note OFF: Time 95040, Note Name: C5
Note ON: Time 95040, Note Name: C#5, Velocity: 68
Note ON: Time 95040, Note Name: F5, Velocity: 68
Note ON: Time 95040, Note Name: G#5, Velocity: 80
Note OFF: Time 95280, Note Name: G#5
Note OFF: Time 95280, Note Name: F5
Note OFF: Time 95280, Note Name: C#5
Note ON: Time 96240, Note Name: C#6, Velocity: 72
Note ON: Time 96240, Note Name: G#5, Velocity: 60
Note OFF: Time 96720, Note Name: G#5
Note OFF: Time 96720, Note Name: C#6
Note ON: Time 96720, Note Name: C#6, Velocity: 73
Note ON: Time 96720, Note Name: A#5, Velocity: 61
Note OFF: Time 97200, Note Name: A#5
Note OFF: Time 97200, Note Name: C#6
Note ON: Time 97200, Note Name: C#6, Velocity: 74
Note ON: Time 97200, Note Name: G#5, Velocity: 63
Note OFF: Time 97680, Note Name: G#5
Note OFF: Time 97680, Note Name: C#6
Note ON: Time 97680, Note Name: C#5, Velocity: 65
Note ON: Time 97680, Note Name: G5, Velocity: 65
Note ON: Time 97680, Note Name: C#6, Velocity: 77
Note OFF: Time 97920, Note Name: C#6
Note OFF: Time 97920, Note Name: G5
Note OFF: Time 97920, Note Name: C#5
Note ON: Time 97920, Note Name: C#5, Velocity: 68
Note ON: Time 97920, Note Name: F#5, Velocity: 68
Note ON: Time 97920, Note Name: C#6, Velocity: 80
Note OFF: Time 98160, Note Name: C#6
Note OFF: Time 98160, Note Name: F#5
Note OFF: Time 98160, Note Name: C#5
Note ON: Time 98160, Note Name: C#5, Velocity: 65
Note ON: Time 98160, Note Name: F#5, Velocity: 65
Note ON: Time 98160, Note Name: C#6, Velocity: 77
Note OFF: Time 98400, Note Name: C#6
Note OFF: Time 98400, Note Name: F#5
Note OFF: Time 98400, Note Name: C#5
Note ON: Time 98400, Note Name: C5, Velocity: 69
Note ON: Time 98400, Note Name: F#5, Velocity: 69
Note ON: Time 98400, Note Name: C6, Velocity: 81
Note OFF: Time 98640, Note Name: C6
Note OFF: Time 98640, Note Name: F#5
Note OFF: Time 98640, Note Name: C5
Note ON: Time 98640, Note Name: C5, Velocity: 65
Note ON: Time 98640, Note Name: F#5, Velocity: 65
Note ON: Time 98640, Note Name: C6, Velocity: 76
Note OFF: Time 98880, Note Name: C6
Note OFF: Time 98880, Note Name: F#5
Note OFF: Time 98880, Note Name: C5
Note ON: Time 98880, Note Name: C#6, Velocity: 66
Note OFF: Time 98940, Note Name: C#6
Note ON: Time 98940, Note Name: D#6, Velocity: 57
Note OFF: Time 99000, Note Name: D#6
Note ON: Time 99000, Note Name: F6, Velocity: 59
Note OFF: Time 99060, Note Name: F6
Note ON: Time 99060, Note Name: C6, Velocity: 60
Note OFF: Time 99120, Note Name: C6
Note ON: Time 99120, Note Name: C#6, Velocity: 66
Note OFF: Time 99180, Note Name: C#6
Note ON: Time 99180, Note Name: G#5, Velocity: 56
Note OFF: Time 99240, Note Name: G#5
Note ON: Time 99240, Note Name: A#5, Velocity: 58
Note OFF: Time 99300, Note Name: A#5
Note ON: Time 99300, Note Name: F#5, Velocity: 57
Note OFF: Time 99360, Note Name: F#5
Note ON: Time 99360, Note Name: F5, Velocity: 51
Note OFF: Time 99420, Note Name: F5
Note ON: Time 99420, Note Name: G#5, Velocity: 54
Note OFF: Time 99480, Note Name: G#5
Note ON: Time 99480, Note Name: F#5, Velocity: 55
Note OFF: Time 99540, Note Name: F#5
Note ON: Time 99540, Note Name: D#5, Velocity: 56
Note OFF: Time 99600, Note Name: D#5
Note ON: Time 99600, Note Name: C#5, Velocity: 63
Note OFF: Time 99660, Note Name: C#5
Note ON: Time 99660, Note Name: F5, Velocity: 53
Note OFF: Time 99720, Note Name: F5
Note ON: Time 99720, Note Name: D#5, Velocity: 57
Note OFF: Time 99780, Note Name: D#5
Note ON: Time 99780, Note Name: C5, Velocity: 53
Note OFF: Time 99840, Note Name: C5
Note ON: Time 99840, Note Name: C#5, Velocity: 52
Note OFF: Time 99900, Note Name: C#5
Note ON: Time 99900, Note Name: D#5, Velocity: 46
Note OFF: Time 99960, Note Name: D#5
Note ON: Time 99960, Note Name: C#5, Velocity: 46
Note OFF: Time 100020, Note Name: C#5
Note ON: Time 100020, Note Name: C5, Velocity: 46
Note OFF: Time 100080, Note Name: C5
Note ON: Time 100080, Note Name: C#5, Velocity: 52
Note OFF: Time 100140, Note Name: C#5
Note ON: Time 100140, Note Name: G#5, Velocity: 46
Note OFF: Time 100200, Note Name: G#5
Note ON: Time 100200, Note Name: G5, Velocity: 46
Note OFF: Time 100260, Note Name: G5
Note ON: Time 100260, Note Name: G#5, Velocity: 46
Note OFF: Time 100320, Note Name: G#5
Note ON: Time 100320, Note Name: C#5, Velocity: 52
Note OFF: Time 100380, Note Name: C#5
Note ON: Time 100380, Note Name: D#5, Velocity: 45
Note OFF: Time 100440, Note Name: D#5
Note ON: Time 100440, Note Name: C#5, Velocity: 48
Note OFF: Time 100500, Note Name: C#5
Note ON: Time 100500, Note Name: C5, Velocity: 48
Note OFF: Time 100560, Note Name: C5
Note ON: Time 100560, Note Name: C#5, Velocity: 52
Note OFF: Time 100620, Note Name: C#5
Note ON: Time 100620, Note Name: A#5, Velocity: 48
Note OFF: Time 100680, Note Name: A#5
Note ON: Time 100680, Note Name: A5, Velocity: 48
Note OFF: Time 100740, Note Name: A5
Note ON: Time 100740, Note Name: A#5, Velocity: 48
Note OFF: Time 100800, Note Name: A#5
Note ON: Time 100800, Note Name: C#5, Velocity: 52
Note OFF: Time 100860, Note Name: C#5
Note ON: Time 100860, Note Name: D#5, Velocity: 48
Note OFF: Time 100920, Note Name: D#5
Note ON: Time 100920, Note Name: C#5, Velocity: 48
Note OFF: Time 100980, Note Name: C#5
Note ON: Time 100980, Note Name: C5, Velocity: 48
Note OFF: Time 101040, Note Name: C5
Note ON: Time 101040, Note Name: C#5, Velocity: 52
Note OFF: Time 101100, Note Name: C#5
Note ON: Time 101100, Note Name: G#5, Velocity: 48
Note OFF: Time 101160, Note Name: G#5
Note ON: Time 101160, Note Name: G5, Velocity: 48
Note OFF: Time 101220, Note Name: G5
Note ON: Time 101220, Note Name: G#5, Velocity: 48
Note OFF: Time 101280, Note Name: G#5
Note ON: Time 101280, Note Name: C#5, Velocity: 52
Note OFF: Time 101340, Note Name: C#5
Note ON: Time 101340, Note Name: G#5, Velocity: 48
Note OFF: Time 101400, Note Name: G#5
Note ON: Time 101400, Note Name: G5, Velocity: 48
Note OFF: Time 101460, Note Name: G5
Note ON: Time 101460, Note Name: G#5, Velocity: 48
Note OFF: Time 101520, Note Name: G#5
Note ON: Time 101520, Note Name: C#5, Velocity: 73
Note OFF: Time 101580, Note Name: C#5
Note ON: Time 101580, Note Name: A#5, Velocity: 63
Note OFF: Time 101640, Note Name: A#5
Note ON: Time 101640, Note Name: A5, Velocity: 63
Note OFF: Time 101700, Note Name: A5
Note ON: Time 101700, Note Name: A#5, Velocity: 63
Note OFF: Time 101760, Note Name: A#5
Note ON: Time 101760, Note Name: C#5, Velocity: 80
Note OFF: Time 101820, Note Name: C#5
Note ON: Time 101820, Note Name: G#5, Velocity: 66
Note OFF: Time 101880, Note Name: G#5
Note ON: Time 101880, Note Name: G5, Velocity: 67
Note OFF: Time 101940, Note Name: G5
Note ON: Time 101940, Note Name: G#5, Velocity: 67
Note OFF: Time 102000, Note Name: G#5
Note ON: Time 102000, Note Name: C#5, Velocity: 80
Note OFF: Time 102060, Note Name: C#5
Note ON: Time 102060, Note Name: G#5, Velocity: 66
Note OFF: Time 102120, Note Name: G#5
Note ON: Time 102120, Note Name: G5, Velocity: 66
Note OFF: Time 102180, Note Name: G5
Note ON: Time 102180, Note Name: G#5, Velocity: 66
Note OFF: Time 102240, Note Name: G#5
Note ON: Time 102240, Note Name: C5, Velocity: 83
Note OFF: Time 102300, Note Name: C5
Note ON: Time 102300, Note Name: G#5, Velocity: 67
Note OFF: Time 102360, Note Name: G#5
Note ON: Time 102360, Note Name: G5, Velocity: 67
Note OFF: Time 102420, Note Name: G5
Note ON: Time 102420, Note Name: G#5, Velocity: 67
Note OFF: Time 102480, Note Name: G#5
Note ON: Time 102480, Note Name: C5, Velocity: 81
Note OFF: Time 102540, Note Name: C5
Note ON: Time 102540, Note Name: G#5, Velocity: 63
Note OFF: Time 102600, Note Name: G#5
Note ON: Time 102600, Note Name: G5, Velocity: 63
Note OFF: Time 102660, Note Name: G5
Note ON: Time 102660, Note Name: G#5, Velocity: 63
Note OFF: Time 102720, Note Name: G#5
Note ON: Time 102720, Note Name: G#5, Velocity: 53
Note OFF: Time 102780, Note Name: G#5
Note ON: Time 102780, Note Name: F#5, Velocity: 54
Note OFF: Time 102840, Note Name: F#5
Note ON: Time 102840, Note Name: F5, Velocity: 55
Note OFF: Time 102900, Note Name: F5
Note ON: Time 102900, Note Name: D#5, Velocity: 56
Note OFF: Time 102960, Note Name: D#5
Note ON: Time 102960, Note Name: C#5, Velocity: 60
Note OFF: Time 103020, Note Name: C#5
Note ON: Time 103020, Note Name: D#5, Velocity: 56
Note OFF: Time 103080, Note Name: D#5
Note ON: Time 103080, Note Name: F5, Velocity: 58
Note OFF: Time 103140, Note Name: F5
Note ON: Time 103140, Note Name: F#5, Velocity: 57
Note OFF: Time 103200, Note Name: F#5
Note ON: Time 103200, Note Name: G#5, Velocity: 51
Note OFF: Time 103260, Note Name: G#5
Note ON: Time 103260, Note Name: F#5, Velocity: 54
Note OFF: Time 103320, Note Name: F#5
Note ON: Time 103320, Note Name: F5, Velocity: 55
Note OFF: Time 103380, Note Name: F5
Note ON: Time 103380, Note Name: F#5, Velocity: 56
Note OFF: Time 103440, Note Name: F#5
Note ON: Time 103440, Note Name: G#5, Velocity: 63
Note OFF: Time 103500, Note Name: G#5
Note ON: Time 103500, Note Name: A#5, Velocity: 53
Note OFF: Time 103560, Note Name: A#5
Note ON: Time 103560, Note Name: C6, Velocity: 57
Note OFF: Time 103620, Note Name: C6
Note ON: Time 103620, Note Name: C#6, Velocity: 53
Note OFF: Time 103680, Note Name: C#6
Note ON: Time 103680, Note Name: F5, Velocity: 52
Note OFF: Time 103740, Note Name: F5
Note ON: Time 103740, Note Name: F#5, Velocity: 46
Note OFF: Time 103800, Note Name: F#5
Note ON: Time 103800, Note Name: F5, Velocity: 46
Note OFF: Time 103860, Note Name: F5
Note ON: Time 103860, Note Name: E5, Velocity: 46
Note OFF: Time 103920, Note Name: E5
Note ON: Time 103920, Note Name: F5, Velocity: 52
Note OFF: Time 103980, Note Name: F5
Note ON: Time 103980, Note Name: C#6, Velocity: 46
Note OFF: Time 104040, Note Name: C#6
Note ON: Time 104040, Note Name: C6, Velocity: 46
Note OFF: Time 104100, Note Name: C6
Note ON: Time 104100, Note Name: C#6, Velocity: 46
Note OFF: Time 104160, Note Name: C#6
Note ON: Time 104160, Note Name: F#5, Velocity: 52
Note OFF: Time 104220, Note Name: F#5
Note ON: Time 104220, Note Name: G#5, Velocity: 45
Note OFF: Time 104280, Note Name: G#5
Note ON: Time 104280, Note Name: F#5, Velocity: 48
Note OFF: Time 104340, Note Name: F#5
Note ON: Time 104340, Note Name: F5, Velocity: 48
Note OFF: Time 104400, Note Name: F5
Note ON: Time 104400, Note Name: F#5, Velocity: 52
Note OFF: Time 104460, Note Name: F#5
Note ON: Time 104460, Note Name: C#6, Velocity: 48
Note OFF: Time 104520, Note Name: C#6
Note ON: Time 104520, Note Name: C6, Velocity: 48
Note OFF: Time 104580, Note Name: C6
Note ON: Time 104580, Note Name: C#6, Velocity: 48
Note OFF: Time 104640, Note Name: C#6
Note ON: Time 104640, Note Name: F5, Velocity: 52
Note OFF: Time 104700, Note Name: F5
Note ON: Time 104700, Note Name: F#5, Velocity: 48
Note OFF: Time 104760, Note Name: F#5
Note ON: Time 104760, Note Name: F5, Velocity: 48
Note OFF: Time 104820, Note Name: F5
Note ON: Time 104820, Note Name: E5, Velocity: 48
Note OFF: Time 104880, Note Name: E5
Note ON: Time 104880, Note Name: F5, Velocity: 52
Note OFF: Time 104940, Note Name: F5
Note ON: Time 104940, Note Name: C#6, Velocity: 48
Note OFF: Time 105000, Note Name: C#6
Note ON: Time 105000, Note Name: C6, Velocity: 48
Note OFF: Time 105060, Note Name: C6
Note ON: Time 105060, Note Name: C#6, Velocity: 48
Note OFF: Time 105120, Note Name: C#6
Note ON: Time 105120, Note Name: F5, Velocity: 52
Note OFF: Time 105180, Note Name: F5
Note ON: Time 105180, Note Name: C#6, Velocity: 48
Note OFF: Time 105240, Note Name: C#6
Note ON: Time 105240, Note Name: C6, Velocity: 48
Note OFF: Time 105300, Note Name: C6
Note ON: Time 105300, Note Name: C#6, Velocity: 48
Note OFF: Time 105360, Note Name: C#6
Note ON: Time 105360, Note Name: G5, Velocity: 73
Note ON: Time 105360, Note Name: E5, Velocity: 60
Note OFF: Time 105420, Note Name: E5
Note OFF: Time 105420, Note Name: G5
Note ON: Time 105420, Note Name: C#6, Velocity: 63
Note OFF: Time 105480, Note Name: C#6
Note ON: Time 105480, Note Name: C6, Velocity: 63
Note OFF: Time 105540, Note Name: C6
Note ON: Time 105540, Note Name: C#6, Velocity: 63
Note OFF: Time 105600, Note Name: C#6
Note ON: Time 105600, Note Name: F#5, Velocity: 80
Note ON: Time 105600, Note Name: D#5, Velocity: 66
Note OFF: Time 105660, Note Name: D#5
Note OFF: Time 105660, Note Name: F#5
Note ON: Time 105660, Note Name: C#6, Velocity: 66
Note OFF: Time 105720, Note Name: C#6
Note ON: Time 105720, Note Name: C6, Velocity: 66
Note OFF: Time 105780, Note Name: C6
Note ON: Time 105780, Note Name: C#6, Velocity: 66
Note OFF: Time 105840, Note Name: C#6
Note ON: Time 105840, Note Name: F#5, Velocity: 80
Note ON: Time 105840, Note Name: D#5, Velocity: 66
Note OFF: Time 105900, Note Name: D#5
Note OFF: Time 105900, Note Name: F#5
Note ON: Time 105900, Note Name: C#6, Velocity: 67
Note OFF: Time 105960, Note Name: C#6
Note ON: Time 105960, Note Name: C6, Velocity: 67
Note OFF: Time 106020, Note Name: C6
Note ON: Time 106020, Note Name: C#6, Velocity: 67
Note OFF: Time 106080, Note Name: C#6
Note ON: Time 106080, Note Name: F#5, Velocity: 83
Note ON: Time 106080, Note Name: D#5, Velocity: 68
Note OFF: Time 106140, Note Name: D#5
Note OFF: Time 106140, Note Name: F#5
Note ON: Time 106140, Note Name: C6, Velocity: 67
Note OFF: Time 106200, Note Name: C6
Note ON: Time 106200, Note Name: B5, Velocity: 67
Note OFF: Time 106260, Note Name: B5
Note ON: Time 106260, Note Name: C6, Velocity: 67
Note OFF: Time 106320, Note Name: C6
Note ON: Time 106320, Note Name: F#5, Velocity: 81
Note ON: Time 106320, Note Name: D#5, Velocity: 68
Note OFF: Time 106380, Note Name: D#5
Note OFF: Time 106380, Note Name: F#5
Note ON: Time 106380, Note Name: C6, Velocity: 67
Note OFF: Time 106440, Note Name: C6
Note ON: Time 106440, Note Name: B5, Velocity: 67
Note OFF: Time 106500, Note Name: B5
Note ON: Time 106500, Note Name: C6, Velocity: 67
Note OFF: Time 106560, Note Name: C6
Note ON: Time 106560, Note Name: C#5, Velocity: 74
Note ON: Time 106560, Note Name: F5, Velocity: 74
Note ON: Time 106560, Note Name: C#6, Velocity: 87
Note OFF: Time 106800, Note Name: C#6
Note OFF: Time 106800, Note Name: F5
Note OFF: Time 106800, Note Name: C#5
Note ON: Time 107760, Note Name: G#5, Velocity: 69
Note OFF: Time 108240, Note Name: G#5
Note ON: Time 108240, Note Name: G#5, Velocity: 59
Note OFF: Time 108480, Note Name: G#5
Note ON: Time 108480, Note Name: G#5, Velocity: 59
Note OFF: Time 108720, Note Name: G#5
Note ON: Time 108720, Note Name: G#5, Velocity: 55
Note OFF: Time 108960, Note Name: G#5
Note ON: Time 108960, Note Name: G#5, Velocity: 59
Note OFF: Time 109200, Note Name: G#5
Note ON: Time 109200, Note Name: G#5, Velocity: 56
Note OFF: Time 109440, Note Name: G#5
Note ON: Time 109680, Note Name: G#5, Velocity: 69
Note OFF: Time 110160, Note Name: G#5
Note ON: Time 110160, Note Name: G#5, Velocity: 57
Note OFF: Time 110400, Note Name: G#5
Note ON: Time 110400, Note Name: G#5, Velocity: 60
Note OFF: Time 110640, Note Name: G#5
Note ON: Time 110640, Note Name: G#5, Velocity: 56
Note OFF: Time 110880, Note Name: G#5
Note ON: Time 110880, Note Name: G#5, Velocity: 59
Note OFF: Time 111120, Note Name: G#5
Note ON: Time 111120, Note Name: G#5, Velocity: 56
Note OFF: Time 111360, Note Name: G#5
Note ON: Time 111600, Note Name: C6, Velocity: 67
Note OFF: Time 111840, Note Name: C6
Note ON: Time 111840, Note Name: B5, Velocity: 72
Note OFF: Time 112080, Note Name: B5
Note ON: Time 112080, Note Name: C6, Velocity: 70
Note OFF: Time 112320, Note Name: C6
Note ON: Time 112320, Note Name: C#6, Velocity: 77
Note OFF: Time 112560, Note Name: C#6
Note ON: Time 112560, Note Name: F6, Velocity: 75
Note OFF: Time 112800, Note Name: F6
Note ON: Time 112800, Note Name: D#6, Velocity: 86
Note OFF: Time 113040, Note Name: D#6
Note ON: Time 113040, Note Name: C#6, Velocity: 82
Note OFF: Time 113280, Note Name: C#6
Note ON: Time 113280, Note Name: F#6, Velocity: 94
Note OFF: Time 113760, Note Name: F#6
Note ON: Time 113760, Note Name: D#5, Velocity: 69
Note ON: Time 113760, Note Name: F#5, Velocity: 69
Note ON: Time 113760, Note Name: G#5, Velocity: 81
Note OFF: Time 114240, Note Name: G#5
Note OFF: Time 114240, Note Name: F#5
Note OFF: Time 114240, Note Name: D#5
Note ON: Time 114240, Note Name: F5, Velocity: 50
Note ON: Time 114240, Note Name: G#5, Velocity: 50
Note OFF: Time 114300, Note Name: G#5
Note OFF: Time 114300, Note Name: F5
Note ON: Time 114300, Note Name: A#5, Velocity: 45
Note OFF: Time 114360, Note Name: A#5
Note ON: Time 114360, Note Name: G#5, Velocity: 45
Note OFF: Time 114420, Note Name: G#5
Note ON: Time 114420, Note Name: F#5, Velocity: 44
Note OFF: Time 114480, Note Name: F#5
Note ON: Time 114480, Note Name: F5, Velocity: 41
Note OFF: Time 114540, Note Name: F5
Note ON: Time 114540, Note Name: F#5, Velocity: 45
Note OFF: Time 114600, Note Name: F#5
Note ON: Time 114600, Note Name: G#5, Velocity: 47
Note OFF: Time 114660, Note Name: G#5
Note ON: Time 114660, Note Name: A#5, Velocity: 50
Note OFF: Time 114720, Note Name: A#5
Note ON: Time 114720, Note Name: C6, Velocity: 52
Note OFF: Time 114780, Note Name: C6
Note ON: Time 114780, Note Name: C#6, Velocity: 50
Note OFF: Time 114840, Note Name: C#6
Note ON: Time 114840, Note Name: G#5, Velocity: 48
Note OFF: Time 114900, Note Name: G#5
Note ON: Time 114900, Note Name: F#5, Velocity: 49
Note OFF: Time 114960, Note Name: F#5
Note ON: Time 114960, Note Name: F5, Velocity: 50
Note OFF: Time 115020, Note Name: F5
Note ON: Time 115020, Note Name: G#5, Velocity: 45
Note OFF: Time 115080, Note Name: G#5
Note ON: Time 115080, Note Name: F5, Velocity: 46
Note OFF: Time 115140, Note Name: F5
Note ON: Time 115140, Note Name: C#5, Velocity: 46
Note OFF: Time 115200, Note Name: C#5
Note ON: Time 115200, Note Name: C5, Velocity: 55
Note OFF: Time 115260, Note Name: C5
Note ON: Time 115260, Note Name: G#5, Velocity: 42
Note OFF: Time 115320, Note Name: G#5
Note ON: Time 115320, Note Name: A#5, Velocity: 42
Note OFF: Time 115380, Note Name: A#5
Note ON: Time 115380, Note Name: G#5, Velocity: 42
Note OFF: Time 115440, Note Name: G#5
Note ON: Time 115440, Note Name: C6, Velocity: 51
Note OFF: Time 115500, Note Name: C6
Note ON: Time 115500, Note Name: G#5, Velocity: 42
Note OFF: Time 115560, Note Name: G#5
Note ON: Time 115560, Note Name: A#5, Velocity: 42
Note OFF: Time 115620, Note Name: A#5
Note ON: Time 115620, Note Name: G#5, Velocity: 42
Note OFF: Time 115680, Note Name: G#5
Note ON: Time 115680, Note Name: D#6, Velocity: 55
Note OFF: Time 115740, Note Name: D#6
Note ON: Time 115740, Note Name: G#5, Velocity: 41
Note OFF: Time 115800, Note Name: G#5
Note ON: Time 115800, Note Name: A#5, Velocity: 44
Note OFF: Time 115860, Note Name: A#5
Note ON: Time 115860, Note Name: G#5, Velocity: 44
Note OFF: Time 115920, Note Name: G#5
Note ON: Time 115920, Note Name: C6, Velocity: 48
Note OFF: Time 115980, Note Name: C6
Note ON: Time 115980, Note Name: G#5, Velocity: 44
Note OFF: Time 116040, Note Name: G#5
Note ON: Time 116040, Note Name: A#5, Velocity: 44
Note OFF: Time 116100, Note Name: A#5
Note ON: Time 116100, Note Name: G#5, Velocity: 44
Note OFF: Time 116160, Note Name: G#5
Note ON: Time 116160, Note Name: C#6, Velocity: 53
Note OFF: Time 116220, Note Name: C#6
Note ON: Time 116220, Note Name: G#5, Velocity: 44
Note OFF: Time 116280, Note Name: G#5
Note ON: Time 116280, Note Name: A#5, Velocity: 44
Note OFF: Time 116340, Note Name: A#5
Note ON: Time 116340, Note Name: G#5, Velocity: 44
Note OFF: Time 116400, Note Name: G#5
Note ON: Time 116400, Note Name: C#6, Velocity: 55
Note OFF: Time 116460, Note Name: C#6
Note ON: Time 116460, Note Name: G#5, Velocity: 44
Note OFF: Time 116520, Note Name: G#5
Note ON: Time 116520, Note Name: A#5, Velocity: 44
Note OFF: Time 116580, Note Name: A#5
Note ON: Time 116580, Note Name: G#5, Velocity: 44
Note OFF: Time 116640, Note Name: G#5
Note ON: Time 116640, Note Name: F#5, Velocity: 48
Note OFF: Time 116700, Note Name: F#5
Note ON: Time 116700, Note Name: G#5, Velocity: 44
Note OFF: Time 116760, Note Name: G#5
Note ON: Time 116760, Note Name: A#5, Velocity: 44
Note OFF: Time 116820, Note Name: A#5
Note ON: Time 116820, Note Name: G#5, Velocity: 44
Note OFF: Time 116880, Note Name: G#5
Note ON: Time 116880, Note Name: F5, Velocity: 48
Note OFF: Time 116940, Note Name: F5
Note ON: Time 116940, Note Name: G#5, Velocity: 45
Note OFF: Time 117000, Note Name: G#5
Note ON: Time 117000, Note Name: A#5, Velocity: 45
Note OFF: Time 117060, Note Name: A#5
Note ON: Time 117060, Note Name: G#5, Velocity: 45
Note OFF: Time 117120, Note Name: G#5
Note ON: Time 117120, Note Name: C5, Velocity: 55
Note OFF: Time 117180, Note Name: C5
Note ON: Time 117180, Note Name: G#5, Velocity: 42
Note OFF: Time 117240, Note Name: G#5
Note ON: Time 117240, Note Name: A#5, Velocity: 42
Note OFF: Time 117300, Note Name: A#5
Note ON: Time 117300, Note Name: G#5, Velocity: 42
Note OFF: Time 117360, Note Name: G#5
Note ON: Time 117360, Note Name: C6, Velocity: 51
Note OFF: Time 117420, Note Name: C6
Note ON: Time 117420, Note Name: G#5, Velocity: 42
Note OFF: Time 117480, Note Name: G#5
Note ON: Time 117480, Note Name: A#5, Velocity: 42
Note OFF: Time 117540, Note Name: A#5
Note ON: Time 117540, Note Name: G#5, Velocity: 42
Note OFF: Time 117600, Note Name: G#5
Note ON: Time 117600, Note Name: D#6, Velocity: 55
Note OFF: Time 117660, Note Name: D#6
Note ON: Time 117660, Note Name: G#5, Velocity: 41
Note OFF: Time 117720, Note Name: G#5
Note ON: Time 117720, Note Name: A#5, Velocity: 44
Note OFF: Time 117780, Note Name: A#5
Note ON: Time 117780, Note Name: G#5, Velocity: 44
Note OFF: Time 117840, Note Name: G#5
Note ON: Time 117840, Note Name: A#5, Velocity: 48
Note OFF: Time 117900, Note Name: A#5
Note ON: Time 117900, Note Name: G#5, Velocity: 44
Note OFF: Time 117960, Note Name: G#5
Note ON: Time 117960, Note Name: A#5, Velocity: 44
Note OFF: Time 118020, Note Name: A#5
Note ON: Time 118020, Note Name: G#5, Velocity: 44
Note OFF: Time 118080, Note Name: G#5
Note ON: Time 118080, Note Name: A#5, Velocity: 53
Note OFF: Time 118140, Note Name: A#5
Note ON: Time 118140, Note Name: G#5, Velocity: 44
Note OFF: Time 118200, Note Name: G#5
Note ON: Time 118200, Note Name: A#5, Velocity: 44
Note OFF: Time 118260, Note Name: A#5
Note ON: Time 118260, Note Name: G#5, Velocity: 44
Note OFF: Time 118320, Note Name: G#5
Note ON: Time 118320, Note Name: C#6, Velocity: 55
Note OFF: Time 118380, Note Name: C#6
Note ON: Time 118380, Note Name: G#5, Velocity: 44
Note OFF: Time 118440, Note Name: G#5
Note ON: Time 118440, Note Name: A#5, Velocity: 44
Note OFF: Time 118500, Note Name: A#5
Note ON: Time 118500, Note Name: G#5, Velocity: 44
Note OFF: Time 118560, Note Name: G#5
Note ON: Time 118560, Note Name: D#6, Velocity: 59
Note OFF: Time 118620, Note Name: D#6
Note ON: Time 118620, Note Name: G#5, Velocity: 47
Note OFF: Time 118680, Note Name: G#5
Note ON: Time 118680, Note Name: A#5, Velocity: 47
Note OFF: Time 118740, Note Name: A#5
Note ON: Time 118740, Note Name: G#5, Velocity: 44
Note OFF: Time 118800, Note Name: G#5
Note ON: Time 118800, Note Name: F6, Velocity: 57
Note OFF: Time 118860, Note Name: F6
Note ON: Time 118860, Note Name: G#5, Velocity: 47
Note OFF: Time 118920, Note Name: G#5
Note ON: Time 118920, Note Name: A#5, Velocity: 47
Note OFF: Time 118980, Note Name: A#5
Note ON: Time 118980, Note Name: G#5, Velocity: 48
Note OFF: Time 119040, Note Name: G#5
Note ON: Time 119040, Note Name: D#6, Velocity: 71
Note OFF: Time 119100, Note Name: D#6
Note ON: Time 119100, Note Name: C6, Velocity: 58
Note OFF: Time 119160, Note Name: C6
Note ON: Time 119160, Note Name: C#6, Velocity: 58
Note OFF: Time 119220, Note Name: C#6
Note ON: Time 119220, Note Name: C6, Velocity: 58
Note OFF: Time 119280, Note Name: C6
Note ON: Time 119280, Note Name: D#6, Velocity: 72
Note OFF: Time 119340, Note Name: D#6
Note ON: Time 119340, Note Name: C6, Velocity: 58
Note OFF: Time 119400, Note Name: C6
Note ON: Time 119400, Note Name: C#6, Velocity: 59
Note OFF: Time 119460, Note Name: C#6
Note ON: Time 119460, Note Name: C6, Velocity: 61
Note OFF: Time 119520, Note Name: C6
Note ON: Time 119520, Note Name: G#6, Velocity: 75
Note OFF: Time 119580, Note Name: G#6
Note ON: Time 119580, Note Name: C6, Velocity: 57
Note OFF: Time 119640, Note Name: C6
Note ON: Time 119640, Note Name: C#6, Velocity: 61
Note OFF: Time 119700, Note Name: C#6
Note ON: Time 119700, Note Name: C6, Velocity: 61
Note OFF: Time 119760, Note Name: C6
Note ON: Time 119760, Note Name: G#6, Velocity: 78
Note OFF: Time 119820, Note Name: G#6
Note ON: Time 119820, Note Name: C6, Velocity: 68
Note OFF: Time 119880, Note Name: C6
Note ON: Time 119880, Note Name: C#6, Velocity: 69
Note OFF: Time 119940, Note Name: C#6
Note ON: Time 119940, Note Name: C6, Velocity: 70
Note OFF: Time 120000, Note Name: C6
Note ON: Time 120000, Note Name: G#6, Velocity: 82
Note OFF: Time 120060, Note Name: G#6
Note ON: Time 120060, Note Name: C6, Velocity: 72
Note OFF: Time 120120, Note Name: C6
Note ON: Time 120120, Note Name: C#6, Velocity: 73
Note OFF: Time 120180, Note Name: C#6
Note ON: Time 120180, Note Name: C6, Velocity: 74
Note OFF: Time 120240, Note Name: C6
Note ON: Time 120240, Note Name: G#6, Velocity: 90
Note OFF: Time 120300, Note Name: G#6
Note ON: Time 120300, Note Name: C#6, Velocity: 78
Note OFF: Time 120360, Note Name: C#6
Note ON: Time 120360, Note Name: D#6, Velocity: 78
Note OFF: Time 120420, Note Name: D#6
Note ON: Time 120420, Note Name: C#6, Velocity: 80
Note OFF: Time 120480, Note Name: C#6
Note ON: Time 120480, Note Name: G#6, Velocity: 97
Note OFF: Time 120540, Note Name: G#6
Note ON: Time 120540, Note Name: D#6, Velocity: 81
Note OFF: Time 120600, Note Name: D#6
Note ON: Time 120600, Note Name: F6, Velocity: 82
Note OFF: Time 120660, Note Name: F6
Note ON: Time 120660, Note Name: D#6, Velocity: 84
Note OFF: Time 120720, Note Name: D#6
Note ON: Time 120720, Note Name: G#6, Velocity: 99
Note OFF: Time 120780, Note Name: G#6
Note ON: Time 120780, Note Name: F6, Velocity: 84
Note OFF: Time 120840, Note Name: F6
Note ON: Time 120840, Note Name: F#6, Velocity: 85
Note OFF: Time 120900, Note Name: F#6
Note ON: Time 120900, Note Name: F6, Velocity: 88
Note OFF: Time 120960, Note Name: F6
Note ON: Time 120960, Note Name: A#6, Velocity: 104
Note OFF: Time 121020, Note Name: A#6
Note ON: Time 121020, Note Name: F#6, Velocity: 92
Note OFF: Time 121080, Note Name: F#6
Note ON: Time 121080, Note Name: A#6, Velocity: 97
Note OFF: Time 121140, Note Name: A#6
Note ON: Time 121140, Note Name: G#6, Velocity: 86
Note OFF: Time 121200, Note Name: G#6
Note ON: Time 121200, Note Name: F#6, Velocity: 97
Note OFF: Time 121260, Note Name: F#6
Note ON: Time 121260, Note Name: F6, Velocity: 83
Note OFF: Time 121320, Note Name: F6
Note ON: Time 121320, Note Name: D#6, Velocity: 90
Note OFF: Time 121380, Note Name: D#6
Note ON: Time 121380, Note Name: C#6, Velocity: 78
Note OFF: Time 121440, Note Name: C#6
Note ON: Time 121440, Note Name: C6, Velocity: 86
Note OFF: Time 121500, Note Name: C6
Note ON: Time 121500, Note Name: A#5, Velocity: 79
Note OFF: Time 121560, Note Name: A#5
Note ON: Time 121560, Note Name: G#5, Velocity: 82
Note OFF: Time 121620, Note Name: G#5
Note ON: Time 121620, Note Name: F#5, Velocity: 75
Note OFF: Time 121680, Note Name: F#5
Note ON: Time 121680, Note Name: F5, Velocity: 79
Note OFF: Time 121740, Note Name: F5
Note ON: Time 121740, Note Name: D#5, Velocity: 72
Note OFF: Time 121800, Note Name: D#5
Note ON: Time 121800, Note Name: C#5, Velocity: 75
Note OFF: Time 121860, Note Name: C#5
Note ON: Time 121860, Note Name: C5, Velocity: 69
Note OFF: Time 121920, Note Name: C5
Note ON: Time 121920, Note Name: C#5, Velocity: 72
Note OFF: Time 121980, Note Name: C#5
Note ON: Time 121980, Note Name: A#4, Velocity: 70
Note OFF: Time 122040, Note Name: A#4
Note ON: Time 122040, Note Name: G#4, Velocity: 69
Note OFF: Time 122100, Note Name: G#4
Note ON: Time 122100, Note Name: F#4, Velocity: 67
Note OFF: Time 122160, Note Name: F#4
Note ON: Time 122160, Note Name: F4, Velocity: 64
Note OFF: Time 122220, Note Name: F4
Note ON: Time 122220, Note Name: D#4, Velocity: 63
Note OFF: Time 122280, Note Name: D#4
Note ON: Time 122280, Note Name: C#4, Velocity: 61
Note OFF: Time 122340, Note Name: C#4
Note ON: Time 122340, Note Name: C4, Velocity: 60
Note OFF: Time 122400, Note Name: C4
Note ON: Time 122880, Note Name: C#3, Velocity: 39
Note ON: Time 122880, Note Name: F3, Velocity: 39
Note ON: Time 122880, Note Name: G#3, Velocity: 47
Note OFF: Time 123360, Note Name: G#3
Note OFF: Time 123360, Note Name: F3
Note OFF: Time 123360, Note Name: C#3
Note ON: Time 123360, Note Name: C#3, Velocity: 37
Note ON: Time 123360, Note Name: F#3, Velocity: 44
Note ON: Time 123360, Note Name: A#3, Velocity: 44
Note OFF: Time 123840, Note Name: A#3
Note OFF: Time 123840, Note Name: F#3
Note OFF: Time 123840, Note Name: C#3
Note ON: Time 123840, Note Name: C#3, Velocity: 37
Note ON: Time 123840, Note Name: F3, Velocity: 37
Note ON: Time 123840, Note Name: G#3, Velocity: 44
Note OFF: Time 124560, Note Name: G#3
Note OFF: Time 124560, Note Name: F3
Note OFF: Time 124560, Note Name: C#3
Note ON: Time 124560, Note Name: C#4, Velocity: 37
Note ON: Time 124560, Note Name: D#4, Velocity: 37
Note ON: Time 124560, Note Name: A#4, Velocity: 44
Note OFF: Time 124800, Note Name: A#4
Note OFF: Time 124800, Note Name: D#4
Note OFF: Time 124800, Note Name: C#4
Note ON: Time 124800, Note Name: C#4, Velocity: 39
Note ON: Time 124800, Note Name: D#4, Velocity: 39
Note ON: Time 124800, Note Name: G#4, Velocity: 47
Note OFF: Time 125280, Note Name: G#4
Note OFF: Time 125280, Note Name: D#4
Note OFF: Time 125280, Note Name: C#4
Note ON: Time 125280, Note Name: C4, Velocity: 38
Note ON: Time 125280, Note Name: D#4, Velocity: 38
Note ON: Time 125280, Note Name: G#4, Velocity: 46
Note OFF: Time 125760, Note Name: G#4
Note OFF: Time 125760, Note Name: D#4
Note OFF: Time 125760, Note Name: C4
Note ON: Time 125760, Note Name: C#4, Velocity: 39
Note ON: Time 125760, Note Name: F4, Velocity: 39
Note ON: Time 125760, Note Name: G#4, Velocity: 47
Note OFF: Time 126000, Note Name: G#4
Note OFF: Time 126000, Note Name: F4
Note OFF: Time 126000, Note Name: C#4
Note ON: Time 126720, Note Name: F3, Velocity: 45
Note ON: Time 126720, Note Name: G#3, Velocity: 45
Note ON: Time 126720, Note Name: C#4, Velocity: 54
Note OFF: Time 127200, Note Name: C#4
Note OFF: Time 127200, Note Name: G#3
Note OFF: Time 127200, Note Name: F3
Note ON: Time 127200, Note Name: F#3, Velocity: 47
Note ON: Time 127200, Note Name: A#3, Velocity: 47
Note ON: Time 127200, Note Name: C#4, Velocity: 56
Note OFF: Time 127680, Note Name: C#4
Note OFF: Time 127680, Note Name: A#3
Note OFF: Time 127680, Note Name: F#3
Note ON: Time 127680, Note Name: F3, Velocity: 36
Note ON: Time 127680, Note Name: G#3, Velocity: 36
Note ON: Time 127680, Note Name: C#4, Velocity: 44
Note OFF: Time 128400, Note Name: C#4
Note OFF: Time 128400, Note Name: G#3
Note OFF: Time 128400, Note Name: F3
Note ON: Time 128400, Note Name: E4, Velocity: 37
Note ON: Time 128400, Note Name: G4, Velocity: 37
Note ON: Time 128400, Note Name: C#5, Velocity: 44
Note OFF: Time 128640, Note Name: C#5
Note OFF: Time 128640, Note Name: G4
Note OFF: Time 128640, Note Name: E4
Note ON: Time 128640, Note Name: D#4, Velocity: 39
Note ON: Time 128640, Note Name: F#4, Velocity: 39
Note ON: Time 128640, Note Name: C#5, Velocity: 47
Note OFF: Time 129120, Note Name: C#5
Note OFF: Time 129120, Note Name: F#4
Note OFF: Time 129120, Note Name: D#4
Note ON: Time 129120, Note Name: D#4, Velocity: 37
Note ON: Time 129120, Note Name: F#4, Velocity: 37
Note ON: Time 129120, Note Name: C5, Velocity: 43
Note OFF: Time 129600, Note Name: C5
Note OFF: Time 129600, Note Name: F#4
Note OFF: Time 129600, Note Name: D#4
Note ON: Time 129600, Note Name: C#4, Velocity: 37
Note ON: Time 129600, Note Name: F4, Velocity: 37
Note ON: Time 129600, Note Name: C#5, Velocity: 43
Note OFF: Time 129840, Note Name: C#5
Note OFF: Time 129840, Note Name: F4
Note OFF: Time 129840, Note Name: C#4
Note ON: Time 130560, Note Name: C3, Velocity: 39
Note ON: Time 130560, Note Name: D#3, Velocity: 39
Note ON: Time 130560, Note Name: G#3, Velocity: 47
Note OFF: Time 131040, Note Name: G#3
Note OFF: Time 131040, Note Name: D#3
Note OFF: Time 131040, Note Name: C3
Note ON: Time 131040, Note Name: C3, Velocity: 37
Note ON: Time 131040, Note Name: F#3, Velocity: 44
Note ON: Time 131040, Note Name: G#3, Velocity: 44
Note OFF: Time 131460, Note Name: G#3
Note OFF: Time 131460, Note Name: F#3
Note OFF: Time 131460, Note Name: C3
Note ON: Time 131460, Note Name: C3, Velocity: 37
Note ON: Time 131460, Note Name: D#3, Velocity: 44
Note ON: Time 131460, Note Name: G#3, Velocity: 44
Note OFF: Time 131520, Note Name: G#3
Note OFF: Time 131520, Note Name: D#3
Note OFF: Time 131520, Note Name: C3
Note ON: Time 131520, Note Name: C#3, Velocity: 39
Note ON: Time 131520, Note Name: F3, Velocity: 39
Note ON: Time 131520, Note Name: G#3, Velocity: 47
Note OFF: Time 131880, Note Name: G#3
Note OFF: Time 131880, Note Name: F3
Note OFF: Time 131880, Note Name: C#3
Note ON: Time 131880, Note Name: F4, Velocity: 45
Note ON: Time 131880, Note Name: G#4, Velocity: 45
Note ON: Time 131880, Note Name: C#5, Velocity: 53
Note OFF: Time 132000, Note Name: C#5
Note OFF: Time 132000, Note Name: G#4
Note OFF: Time 132000, Note Name: F4
Note ON: Time 132000, Note Name: G#4, Velocity: 41
Note ON: Time 132000, Note Name: F#4, Velocity: 41
Note ON: Time 132000, Note Name: C5, Velocity: 49
Note OFF: Time 132240, Note Name: C5
Note OFF: Time 132240, Note Name: F#4
Note OFF: Time 132240, Note Name: G#4
Note ON: Time 132240, Note Name: F4, Velocity: 31
Note ON: Time 132240, Note Name: G#4, Velocity: 31
Note ON: Time 132240, Note Name: C#5, Velocity: 37
Note OFF: Time 132480, Note Name: C#5
Note OFF: Time 132480, Note Name: G#4
Note OFF: Time 132480, Note Name: F4
Note ON: Time 132480, Note Name: C3, Velocity: 39
Note ON: Time 132480, Note Name: D#3, Velocity: 39
Note ON: Time 132480, Note Name: G#3, Velocity: 47
Note OFF: Time 132960, Note Name: G#3
Note OFF: Time 132960, Note Name: D#3
Note OFF: Time 132960, Note Name: C3
Note ON: Time 132960, Note Name: C3, Velocity: 37
Note ON: Time 132960, Note Name: F#3, Velocity: 44
Note ON: Time 132960, Note Name: G#3, Velocity: 44
Note OFF: Time 133380, Note Name: G#3
Note OFF: Time 133380, Note Name: F#3
Note OFF: Time 133380, Note Name: C3
Note ON: Time 133380, Note Name: C3, Velocity: 37
Note ON: Time 133380, Note Name: D#3, Velocity: 44
Note ON: Time 133380, Note Name: G#3, Velocity: 44
Note OFF: Time 133440, Note Name: G#3
Note OFF: Time 133440, Note Name: D#3
Note OFF: Time 133440, Note Name: C3
Note ON: Time 133440, Note Name: C#3, Velocity: 39
Note ON: Time 133440, Note Name: F3, Velocity: 39
Note ON: Time 133440, Note Name: G#3, Velocity: 47
Note OFF: Time 133800, Note Name: G#3
Note OFF: Time 133800, Note Name: F3
Note OFF: Time 133800, Note Name: C#3
Note ON: Time 133800, Note Name: F4, Velocity: 45
Note ON: Time 133800, Note Name: G#4, Velocity: 45
Note ON: Time 133800, Note Name: F5, Velocity: 55
Note OFF: Time 133920, Note Name: F5
Note OFF: Time 133920, Note Name: G#4
Note OFF: Time 133920, Note Name: F4
Note ON: Time 133920, Note Name: G#4, Velocity: 45
Note ON: Time 133920, Note Name: F#4, Velocity: 45
Note ON: Time 133920, Note Name: F5, Velocity: 58
Note OFF: Time 134040, Note Name: F5
Note ON: Time 134040, Note Name: D#5, Velocity: 51
Note OFF: Time 134160, Note Name: D#5
Note OFF: Time 134160, Note Name: F#4
Note OFF: Time 134160, Note Name: G#4
Note ON: Time 134160, Note Name: F4, Velocity: 31
Note ON: Time 134160, Note Name: G#4, Velocity: 31
Note ON: Time 134160, Note Name: C#5, Velocity: 37
Note OFF: Time 134400, Note Name: C#5
Note OFF: Time 134400, Note Name: G#4
Note OFF: Time 134400, Note Name: F4
Note ON: Time 134400, Note Name: C3, Velocity: 53
Note ON: Time 134400, Note Name: D#3, Velocity: 53
Note ON: Time 134400, Note Name: G#3, Velocity: 66
Note OFF: Time 134880, Note Name: G#3
Note OFF: Time 134880, Note Name: D#3
Note OFF: Time 134880, Note Name: C3
Note ON: Time 134880, Note Name: C3, Velocity: 61
Note ON: Time 134880, Note Name: F#3, Velocity: 72
Note ON: Time 134880, Note Name: G#3, Velocity: 72
Note OFF: Time 135300, Note Name: G#3
Note OFF: Time 135300, Note Name: F#3
Note OFF: Time 135300, Note Name: C3
Note ON: Time 135300, Note Name: C3, Velocity: 65
Note ON: Time 135300, Note Name: D#3, Velocity: 77
Note ON: Time 135300, Note Name: G#3, Velocity: 77
Note OFF: Time 135360, Note Name: G#3
Note OFF: Time 135360, Note Name: D#3
Note OFF: Time 135360, Note Name: C3
Note ON: Time 135360, Note Name: G#4, Velocity: 80
Note ON: Time 135360, Note Name: C#5, Velocity: 80
Note ON: Time 135360, Note Name: G#5, Velocity: 98
Note OFF: Time 135720, Note Name: G#5
Note OFF: Time 135720, Note Name: C#5
Note OFF: Time 135720, Note Name: G#4
Note ON: Time 135720, Note Name: C#5, Velocity: 70
Note ON: Time 135720, Note Name: F5, Velocity: 70
Note ON: Time 135720, Note Name: G#5, Velocity: 83
Note OFF: Time 135840, Note Name: G#5
Note OFF: Time 135840, Note Name: F5
Note OFF: Time 135840, Note Name: C#5
Note ON: Time 135840, Note Name: D#5, Velocity: 70
Note ON: Time 135840, Note Name: C5, Velocity: 70
Note ON: Time 135840, Note Name: G#5, Velocity: 87
Note OFF: Time 135960, Note Name: G#5
Note ON: Time 135960, Note Name: F#5, Velocity: 68
Note OFF: Time 136080, Note Name: F#5
Note OFF: Time 136080, Note Name: C5
Note OFF: Time 136080, Note Name: D#5
Note ON: Time 136080, Note Name: C#5, Velocity: 57
Note ON: Time 136080, Note Name: F5, Velocity: 71
Note OFF: Time 136320, Note Name: F5
Note OFF: Time 136320, Note Name: C#5
Note ON: Time 136320, Note Name: F#4, Velocity: 39
Note ON: Time 136320, Note Name: A#4, Velocity: 39
Note ON: Time 136320, Note Name: D#5, Velocity: 47
Note OFF: Time 136800, Note Name: D#5
Note OFF: Time 136800, Note Name: A#4
Note OFF: Time 136800, Note Name: F#4
Note ON: Time 136800, Note Name: D#4, Velocity: 37
Note ON: Time 136800, Note Name: G#4, Velocity: 43
Note OFF: Time 137280, Note Name: G#4
Note OFF: Time 137280, Note Name: D#4
Note ON: Time 137580, Note Name: C#4, Velocity: 30
Note ON: Time 137640, Note Name: E4, Velocity: 32
Note ON: Time 137700, Note Name: G4, Velocity: 34
Note ON: Time 137760, Note Name: C#5, Velocity: 38
Note OFF: Time 138240, Note Name: C#5
Note OFF: Time 138240, Note Name: C#4
Note OFF: Time 138240, Note Name: E4
Note OFF: Time 138240, Note Name: G4
Note ON: Time 138480, Note Name: C#6, Velocity: 102
Note ON: Time 138480, Note Name: G5, Velocity: 86
Note ON: Time 138480, Note Name: E5, Velocity: 86
Note ON: Time 138480, Note Name: C#5, Velocity: 86
Note OFF: Time 139200, Note Name: C#5
Note OFF: Time 139200, Note Name: C#6
Note OFF: Time 139200, Note Name: G5
Note OFF: Time 139200, Note Name: E5
Track 2: Piano left
Note ON: Time 0, Note Name: C#2, Velocity: 47
Note OFF: Time 480, Note Name: C#2
Note ON: Time 480, Note Name: F#1, Velocity: 35
Note OFF: Time 960, Note Name: F#1
Note ON: Time 960, Note Name: C#2, Velocity: 37
Note OFF: Time 1680, Note Name: C#2
Note ON: Time 1680, Note Name: F#1, Velocity: 35
Note OFF: Time 1920, Note Name: F#1
Note ON: Time 1920, Note Name: G#1, Velocity: 40
Note OFF: Time 2400, Note Name: G#1
Note ON: Time 2400, Note Name: G#2, Velocity: 40
Note OFF: Time 2820, Note Name: G#2
Note ON: Time 2820, Note Name: F#2, Velocity: 36
Note OFF: Time 2880, Note Name: F#2
Note ON: Time 2880, Note Name: F2, Velocity: 43
Note OFF: Time 3240, Note Name: F2
Note ON: Time 3240, Note Name: F#2, Velocity: 36
Note OFF: Time 3360, Note Name: F#2
Note ON: Time 3360, Note Name: G#2, Velocity: 41
Note OFF: Time 3540, Note Name: G#2
Note ON: Time 3540, Note Name: F#2, Velocity: 37
Note OFF: Time 3600, Note Name: F#2
Note ON: Time 3600, Note Name: F2, Velocity: 40
Note OFF: Time 3780, Note Name: F2
Note ON: Time 3780, Note Name: D#2, Velocity: 40
Note OFF: Time 3840, Note Name: D#2
Note ON: Time 3840, Note Name: C#2, Velocity: 39
Note ON: Time 3840, Note Name: C#3, Velocity: 46
Note OFF: Time 4320, Note Name: C#3
Note OFF: Time 4320, Note Name: C#2
Note ON: Time 4320, Note Name: F#2, Velocity: 48
Note ON: Time 4320, Note Name: F#1, Velocity: 40
Note OFF: Time 4800, Note Name: F#1
Note OFF: Time 4800, Note Name: F#2
Note ON: Time 4800, Note Name: C#2, Velocity: 27
Note ON: Time 4800, Note Name: C#3, Velocity: 32
Note OFF: Time 5520, Note Name: C#3
Note OFF: Time 5520, Note Name: C#2
Note ON: Time 5520, Note Name: A1, Velocity: 30
Note ON: Time 5520, Note Name: A2, Velocity: 36
Note OFF: Time 5760, Note Name: A2
Note OFF: Time 5760, Note Name: A1
Note ON: Time 5760, Note Name: G#1, Velocity: 31
Note ON: Time 5760, Note Name: G#2, Velocity: 37
Note OFF: Time 6240, Note Name: G#2
Note OFF: Time 6240, Note Name: G#1
Note ON: Time 6240, Note Name: G#2, Velocity: 34
Note OFF: Time 6900, Note Name: G#2
Note ON: Time 6900, Note Name: F#2, Velocity: 28
Note OFF: Time 6960, Note Name: F#2
Note ON: Time 6960, Note Name: F2, Velocity: 32
Note OFF: Time 7140, Note Name: F2
Note ON: Time 7140, Note Name: D#2, Velocity: 27
Note OFF: Time 7200, Note Name: D#2
Note ON: Time 7200, Note Name: C#2, Velocity: 27
Note OFF: Time 7440, Note Name: C#2
Note ON: Time 7680, Note Name: C#2, Velocity: 47
Note OFF: Time 8160, Note Name: C#2
Note ON: Time 8160, Note Name: F#1, Velocity: 35
Note OFF: Time 8640, Note Name: F#1
Note ON: Time 8640, Note Name: C#2, Velocity: 37
Note OFF: Time 9360, Note Name: C#2
Note ON: Time 9360, Note Name: F#1, Velocity: 35
Note OFF: Time 9600, Note Name: F#1
Note ON: Time 9600, Note Name: G#1, Velocity: 40
Note OFF: Time 10080, Note Name: G#1
Note ON: Time 10080, Note Name: G#2, Velocity: 40
Note OFF: Time 10500, Note Name: G#2
Note ON: Time 10500, Note Name: F#2, Velocity: 36
Note OFF: Time 10560, Note Name: F#2
Note ON: Time 10560, Note Name: F2, Velocity: 43
Note OFF: Time 10920, Note Name: F2
Note ON: Time 10920, Note Name: F#2, Velocity: 36
Note OFF: Time 11040, Note Name: F#2
Note ON: Time 11040, Note Name: G#2, Velocity: 41
Note OFF: Time 11220, Note Name: G#2
Note ON: Time 11220, Note Name: F#2, Velocity: 37
Note OFF: Time 11280, Note Name: F#2
Note ON: Time 11280, Note Name: F2, Velocity: 40
Note OFF: Time 11460, Note Name: F2
Note ON: Time 11460, Note Name: D#2, Velocity: 40
Note OFF: Time 11520, Note Name: D#2
Note ON: Time 11520, Note Name: C#2, Velocity: 39
Note ON: Time 11520, Note Name: C#3, Velocity: 46
Note OFF: Time 12000, Note Name: C#3
Note OFF: Time 12000, Note Name: C#2
Note ON: Time 12000, Note Name: F#1, Velocity: 40
Note ON: Time 12000, Note Name: F#2, Velocity: 48
Note OFF: Time 12480, Note Name: F#2
Note OFF: Time 12480, Note Name: F#1
Note ON: Time 12480, Note Name: C#2, Velocity: 25
Note ON: Time 12480, Note Name: C#3, Velocity: 30
Note OFF: Time 13200, Note Name: C#3
Note OFF: Time 13200, Note Name: C#2
Note ON: Time 13200, Note Name: A1, Velocity: 30
Note ON: Time 13200, Note Name: A2, Velocity: 36
Note OFF: Time 13440, Note Name: A2
Note OFF: Time 13440, Note Name: A1
Note ON: Time 13440, Note Name: G#1, Velocity: 31
Note ON: Time 13440, Note Name: G#2, Velocity: 37
Note OFF: Time 13920, Note Name: G#2
Note OFF: Time 13920, Note Name: G#1
Note ON: Time 13920, Note Name: G#2, Velocity: 34
Note OFF: Time 14580, Note Name: G#2
Note ON: Time 14580, Note Name: F#2, Velocity: 28
Note OFF: Time 14640, Note Name: F#2
Note ON: Time 14640, Note Name: F2, Velocity: 31
Note OFF: Time 14820, Note Name: F2
Note ON: Time 14820, Note Name: D#2, Velocity: 27
Note OFF: Time 14880, Note Name: D#2
Note ON: Time 14880, Note Name: C#2, Velocity: 27
Note OFF: Time 15120, Note Name: C#2
Note ON: Time 15360, Note Name: F#2, Velocity: 40
Note ON: Time 15360, Note Name: G#2, Velocity: 40
Note OFF: Time 15840, Note Name: G#2
Note OFF: Time 15840, Note Name: F#2
Note ON: Time 15840, Note Name: D#2, Velocity: 35
Note ON: Time 15840, Note Name: G#2, Velocity: 35
Note OFF: Time 16260, Note Name: G#2
Note OFF: Time 16260, Note Name: D#2
Note ON: Time 16260, Note Name: F#2, Velocity: 35
Note ON: Time 16260, Note Name: G#2, Velocity: 35
Note OFF: Time 16320, Note Name: G#2
Note OFF: Time 16320, Note Name: F#2
Note ON: Time 16320, Note Name: F2, Velocity: 33
Note ON: Time 16320, Note Name: G#2, Velocity: 39
Note OFF: Time 16680, Note Name: G#2
Note OFF: Time 16680, Note Name: F2
Note ON: Time 16680, Note Name: C#2, Velocity: 39
Note ON: Time 16680, Note Name: G#2, Velocity: 46
Note OFF: Time 16800, Note Name: G#2
Note OFF: Time 16800, Note Name: C#2
Note ON: Time 16800, Note Name: D#2, Velocity: 37
Note ON: Time 16800, Note Name: G#2, Velocity: 44
Note OFF: Time 17040, Note Name: G#2
Note OFF: Time 17040, Note Name: D#2
Note ON: Time 17040, Note Name: C#2, Velocity: 28
Note ON: Time 17040, Note Name: G#2, Velocity: 34
Note OFF: Time 17280, Note Name: G#2
Note OFF: Time 17280, Note Name: C#2
Note ON: Time 17280, Note Name: F#2, Velocity: 40
Note ON: Time 17280, Note Name: G#2, Velocity: 40
Note OFF: Time 17760, Note Name: G#2
Note OFF: Time 17760, Note Name: F#2
Note ON: Time 17760, Note Name: D#2, Velocity: 35
Note ON: Time 17760, Note Name: G#2, Velocity: 35
Note OFF: Time 18180, Note Name: G#2
Note OFF: Time 18180, Note Name: D#2
Note ON: Time 18180, Note Name: F#2, Velocity: 35
Note ON: Time 18180, Note Name: G#2, Velocity: 35
Note OFF: Time 18240, Note Name: G#2
Note OFF: Time 18240, Note Name: F#2
Note ON: Time 18240, Note Name: F2, Velocity: 33
Note ON: Time 18240, Note Name: G#2, Velocity: 39
Note OFF: Time 18600, Note Name: G#2
Note OFF: Time 18600, Note Name: F2
Note ON: Time 18600, Note Name: C#2, Velocity: 39
Note ON: Time 18600, Note Name: G#2, Velocity: 46
Note OFF: Time 18720, Note Name: G#2
Note OFF: Time 18720, Note Name: C#2
Note ON: Time 18720, Note Name: C2, Velocity: 37
Note ON: Time 18720, Note Name: G#2, Velocity: 44
Note OFF: Time 18960, Note Name: G#2
Note OFF: Time 18960, Note Name: C2
Note ON: Time 18960, Note Name: C#2, Velocity: 28
Note ON: Time 18960, Note Name: G#2, Velocity: 34
Note OFF: Time 19200, Note Name: G#2
Note OFF: Time 19200, Note Name: C#2
Note ON: Time 19200, Note Name: F#2, Velocity: 48
Note ON: Time 19200, Note Name: G#2, Velocity: 48
Note OFF: Time 19680, Note Name: G#2
Note OFF: Time 19680, Note Name: F#2
Note ON: Time 19680, Note Name: D#2, Velocity: 49
Note ON: Time 19680, Note Name: G#2, Velocity: 49
Note OFF: Time 20100, Note Name: G#2
Note OFF: Time 20100, Note Name: D#2
Note ON: Time 20100, Note Name: F#2, Velocity: 55
Note ON: Time 20100, Note Name: G#2, Velocity: 55
Note OFF: Time 20160, Note Name: G#2
Note OFF: Time 20160, Note Name: F#2
Note ON: Time 20160, Note Name: F2, Velocity: 73
Note ON: Time 20160, Note Name: F3, Velocity: 73
Note OFF: Time 20520, Note Name: F3
Note OFF: Time 20520, Note Name: F2
Note ON: Time 20520, Note Name: C#2, Velocity: 48
Note ON: Time 20520, Note Name: C#3, Velocity: 53
Note OFF: Time 20640, Note Name: C#3
Note OFF: Time 20640, Note Name: C#2
Note ON: Time 20640, Note Name: D#2, Velocity: 52
Note ON: Time 20640, Note Name: D#3, Velocity: 62
Note OFF: Time 20880, Note Name: D#3
Note OFF: Time 20880, Note Name: D#2
Note ON: Time 20880, Note Name: F2, Velocity: 36
Note ON: Time 20880, Note Name: F3, Velocity: 42
Note OFF: Time 21120, Note Name: F3
Note OFF: Time 21120, Note Name: F2
Note ON: Time 21120, Note Name: F#2, Velocity: 37
Note OFF: Time 21600, Note Name: F#2
Note ON: Time 21600, Note Name: G#2, Velocity: 34
Note OFF: Time 22260, Note Name: G#2
Note ON: Time 22260, Note Name: F#2, Velocity: 28
Note OFF: Time 22320, Note Name: F#2
Note ON: Time 22320, Note Name: F2, Velocity: 30
Note OFF: Time 22500, Note Name: F2
Note ON: Time 22500, Note Name: D#2, Velocity: 27
Note OFF: Time 22560, Note Name: D#2
Note ON: Time 22560, Note Name: C#2, Velocity: 26
Note OFF: Time 22800, Note Name: C#2
Note ON: Time 23040, Note Name: F#2, Velocity: 40
Note ON: Time 23040, Note Name: G#2, Velocity: 40
Note OFF: Time 23520, Note Name: G#2
Note OFF: Time 23520, Note Name: F#2
Note ON: Time 23520, Note Name: D#2, Velocity: 35
Note ON: Time 23520, Note Name: G#2, Velocity: 35
Note OFF: Time 23940, Note Name: G#2
Note OFF: Time 23940, Note Name: D#2
Note ON: Time 23940, Note Name: F#2, Velocity: 35
Note ON: Time 23940, Note Name: G#2, Velocity: 35
Note OFF: Time 24000, Note Name: G#2
Note OFF: Time 24000, Note Name: F#2
Note ON: Time 24000, Note Name: F2, Velocity: 33
Note ON: Time 24000, Note Name: G#2, Velocity: 39
Note OFF: Time 24360, Note Name: G#2
Note OFF: Time 24360, Note Name: F2
Note ON: Time 24360, Note Name: C#2, Velocity: 39
Note ON: Time 24360, Note Name: G#2, Velocity: 46
Note OFF: Time 24480, Note Name: G#2
Note OFF: Time 24480, Note Name: C#2
Note ON: Time 24480, Note Name: D#2, Velocity: 37
Note ON: Time 24480, Note Name: G#2, Velocity: 44
Note OFF: Time 24720, Note Name: G#2
Note OFF: Time 24720, Note Name: D#2
Note ON: Time 24720, Note Name: C#2, Velocity: 28
Note ON: Time 24720, Note Name: G#2, Velocity: 34
Note OFF: Time 24960, Note Name: G#2
Note OFF: Time 24960, Note Name: C#2
Note ON: Time 24960, Note Name: F#2, Velocity: 40
Note ON: Time 24960, Note Name: G#2, Velocity: 40
Note OFF: Time 25440, Note Name: G#2
Note OFF: Time 25440, Note Name: F#2
Note ON: Time 25440, Note Name: D#2, Velocity: 35
Note ON: Time 25440, Note Name: G#2, Velocity: 35
Note OFF: Time 25860, Note Name: G#2
Note OFF: Time 25860, Note Name: D#2
Note ON: Time 25860, Note Name: F#2, Velocity: 35
Note ON: Time 25860, Note Name: G#2, Velocity: 35
Note OFF: Time 25920, Note Name: G#2
Note OFF: Time 25920, Note Name: F#2
Note ON: Time 25920, Note Name: F2, Velocity: 33
Note ON: Time 25920, Note Name: G#2, Velocity: 39
Note OFF: Time 26280, Note Name: G#2
Note OFF: Time 26280, Note Name: F2
Note ON: Time 26280, Note Name: C#2, Velocity: 39
Note ON: Time 26280, Note Name: G#2, Velocity: 46
Note OFF: Time 26400, Note Name: G#2
Note OFF: Time 26400, Note Name: C#2
Note ON: Time 26400, Note Name: C2, Velocity: 37
Note ON: Time 26400, Note Name: G#2, Velocity: 44
Note OFF: Time 26640, Note Name: G#2
Note OFF: Time 26640, Note Name: C2
Note ON: Time 26640, Note Name: C#2, Velocity: 28
Note ON: Time 26640, Note Name: G#2, Velocity: 34
Note OFF: Time 26880, Note Name: G#2
Note OFF: Time 26880, Note Name: C#2
Note ON: Time 26880, Note Name: F#2, Velocity: 48
Note ON: Time 26880, Note Name: G#2, Velocity: 48
Note OFF: Time 27360, Note Name: G#2
Note OFF: Time 27360, Note Name: F#2
Note ON: Time 27360, Note Name: D#2, Velocity: 49
Note ON: Time 27360, Note Name: G#2, Velocity: 49
Note OFF: Time 27780, Note Name: G#2
Note OFF: Time 27780, Note Name: D#2
Note ON: Time 27780, Note Name: F#2, Velocity: 55
Note ON: Time 27780, Note Name: G#2, Velocity: 55
Note OFF: Time 27840, Note Name: G#2
Note OFF: Time 27840, Note Name: F#2
Note ON: Time 27840, Note Name: F2, Velocity: 73
Note ON: Time 27840, Note Name: F3, Velocity: 73
Note OFF: Time 28200, Note Name: F3
Note OFF: Time 28200, Note Name: F2
Note ON: Time 28200, Note Name: C#2, Velocity: 49
Note ON: Time 28200, Note Name: C#3, Velocity: 55
Note OFF: Time 28320, Note Name: C#3
Note OFF: Time 28320, Note Name: C#2
Note ON: Time 28320, Note Name: D#2, Velocity: 52
Note ON: Time 28320, Note Name: D#3, Velocity: 62
Note OFF: Time 28560, Note Name: D#3
Note OFF: Time 28560, Note Name: D#2
Note ON: Time 28560, Note Name: F2, Velocity: 36
Note ON: Time 28560, Note Name: F3, Velocity: 42
Note OFF: Time 28800, Note Name: F3
Note OFF: Time 28800, Note Name: F2
Note ON: Time 28800, Note Name: F#2, Velocity: 37
Note OFF: Time 29280, Note Name: F#2
Note ON: Time 29280, Note Name: G#2, Velocity: 34
Note OFF: Time 29940, Note Name: G#2
Note ON: Time 29940, Note Name: F#2, Velocity: 28
Note OFF: Time 30000, Note Name: F#2
Note ON: Time 30000, Note Name: F2, Velocity: 30
Note OFF: Time 30180, Note Name: F2
Note ON: Time 30180, Note Name: D#2, Velocity: 28
Note OFF: Time 30240, Note Name: D#2
Note ON: Time 30240, Note Name: C#2, Velocity: 26
Note OFF: Time 30480, Note Name: C#2
Note ON: Time 30960, Note Name: C#2, Velocity: 40
Note OFF: Time 31440, Note Name: C#2
Note ON: Time 31440, Note Name: F#1, Velocity: 31
Note OFF: Time 31920, Note Name: F#1
Note ON: Time 31920, Note Name: G#1, Velocity: 39
Note OFF: Time 32400, Note Name: G#1
Note ON: Time 32400, Note Name: G1, Velocity: 35
Note OFF: Time 32880, Note Name: G1
Note ON: Time 32880, Note Name: G#1, Velocity: 40
Note OFF: Time 33360, Note Name: G#1
Note ON: Time 33360, Note Name: F#2, Velocity: 38
Note OFF: Time 33720, Note Name: F#2
Note ON: Time 33720, Note Name: F2, Velocity: 31
Note OFF: Time 33960, Note Name: F2
Note ON: Time 33960, Note Name: D#2, Velocity: 29
Note OFF: Time 34200, Note Name: D#2
Note ON: Time 34200, Note Name: C#2, Velocity: 28
Note OFF: Time 34440, Note Name: C#2
Note ON: Time 34440, Note Name: C2, Velocity: 26
Note OFF: Time 34800, Note Name: C2
Note ON: Time 34800, Note Name: C#2, Velocity: 42
Note OFF: Time 35280, Note Name: C#2
Note ON: Time 35280, Note Name: F#2, Velocity: 32
Note OFF: Time 35760, Note Name: F#2
Note ON: Time 35760, Note Name: G#2, Velocity: 40
Note OFF: Time 36240, Note Name: G#2
Note ON: Time 36240, Note Name: A2, Velocity: 36
Note OFF: Time 36720, Note Name: A2
Note ON: Time 36720, Note Name: G#2, Velocity: 40
Note OFF: Time 37200, Note Name: G#2
Note ON: Time 37200, Note Name: G#1, Velocity: 38
Note OFF: Time 37560, Note Name: G#1
Note ON: Time 37560, Note Name: C#2, Velocity: 34
Note OFF: Time 37800, Note Name: C#2
Note ON: Time 37800, Note Name: G#2, Velocity: 30
Note OFF: Time 38040, Note Name: G#2
Note ON: Time 38040, Note Name: F2, Velocity: 34
Note OFF: Time 38280, Note Name: F2
Note ON: Time 38280, Note Name: D#2, Velocity: 31
Note OFF: Time 38640, Note Name: D#2
Note ON: Time 38640, Note Name: C#2, Velocity: 40
Note OFF: Time 39120, Note Name: C#2
Note ON: Time 39120, Note Name: F#1, Velocity: 31
Note OFF: Time 39600, Note Name: F#1
Note ON: Time 39600, Note Name: G#1, Velocity: 39
Note OFF: Time 40080, Note Name: G#1
Note ON: Time 40080, Note Name: G1, Velocity: 35
Note OFF: Time 40560, Note Name: G1
Note ON: Time 40560, Note Name: G#1, Velocity: 40
Note OFF: Time 41040, Note Name: G#1
Note ON: Time 41040, Note Name: F#2, Velocity: 38
Note OFF: Time 41400, Note Name: F#2
Note ON: Time 41400, Note Name: F2, Velocity: 31
Note OFF: Time 41640, Note Name: F2
Note ON: Time 41640, Note Name: D#2, Velocity: 30
Note OFF: Time 41880, Note Name: D#2
Note ON: Time 41880, Note Name: C#2, Velocity: 29
Note OFF: Time 42120, Note Name: C#2
Note ON: Time 42120, Note Name: C2, Velocity: 28
Note OFF: Time 42480, Note Name: C2
Note ON: Time 42480, Note Name: C#2, Velocity: 42
Note OFF: Time 42960, Note Name: C#2
Note ON: Time 42960, Note Name: F#2, Velocity: 32
Note OFF: Time 43440, Note Name: F#2
Note ON: Time 43440, Note Name: G#2, Velocity: 40
Note OFF: Time 43920, Note Name: G#2
Note ON: Time 43920, Note Name: A2, Velocity: 36
Note OFF: Time 44400, Note Name: A2
Note ON: Time 44400, Note Name: G#2, Velocity: 40
Note OFF: Time 44880, Note Name: G#2
Note ON: Time 44880, Note Name: G#1, Velocity: 38
Note OFF: Time 45240, Note Name: G#1
Note ON: Time 45240, Note Name: C#2, Velocity: 34
Note OFF: Time 45480, Note Name: C#2
Note ON: Time 45480, Note Name: G#2, Velocity: 30
Note OFF: Time 45720, Note Name: G#2
Note ON: Time 45720, Note Name: F2, Velocity: 34
Note OFF: Time 45960, Note Name: F2
Note ON: Time 45960, Note Name: C#2, Velocity: 31
Note OFF: Time 46080, Note Name: C#2
Note ON: Time 46320, Note Name: F#2, Velocity: 40
Note OFF: Time 46800, Note Name: F#2
Note ON: Time 46800, Note Name: F#4, Velocity: 57
Note OFF: Time 47160, Note Name: F#4
Note ON: Time 47160, Note Name: F4, Velocity: 38
Note OFF: Time 47280, Note Name: F4
Note ON: Time 47400, Note Name: C#3, Velocity: 38
Note OFF: Time 47520, Note Name: C#3
Note ON: Time 47640, Note Name: D#3, Velocity: 45
Note OFF: Time 47760, Note Name: D#3
Note ON: Time 47880, Note Name: F3, Velocity: 45
Note OFF: Time 48000, Note Name: F3
Note ON: Time 48240, Note Name: F#2, Velocity: 59
Note OFF: Time 48720, Note Name: F#2
Note ON: Time 48720, Note Name: G#4, Velocity: 63
Note ON: Time 48720, Note Name: F#4, Velocity: 52
Note OFF: Time 49080, Note Name: F#4
Note OFF: Time 49080, Note Name: G#4
Note ON: Time 49080, Note Name: F4, Velocity: 60
Note OFF: Time 49200, Note Name: F4
Note ON: Time 49320, Note Name: F3, Velocity: 55
Note ON: Time 49320, Note Name: C#3, Velocity: 45
Note OFF: Time 49440, Note Name: C#3
Note OFF: Time 49440, Note Name: F3
Note ON: Time 49560, Note Name: F#3, Velocity: 63
Note ON: Time 49560, Note Name: D#3, Velocity: 52
Note OFF: Time 49680, Note Name: D#3
Note OFF: Time 49680, Note Name: F#3
Note ON: Time 49800, Note Name: G#3, Velocity: 62
Note ON: Time 49800, Note Name: F3, Velocity: 51
Note OFF: Time 49918, Note Name: F3
Note OFF: Time 49918, Note Name: G#3
Note ON: Time 50160, Note Name: F#1, Velocity: 61
Note ON: Time 50160, Note Name: F#2, Velocity: 73
Note OFF: Time 50640, Note Name: F#2
Note OFF: Time 50640, Note Name: F#1
Note ON: Time 50640, Note Name: D#5, Velocity: 85
Note ON: Time 50640, Note Name: C5, Velocity: 58
Note OFF: Time 51000, Note Name: C5
Note OFF: Time 51000, Note Name: D#5
Note ON: Time 51000, Note Name: C#5, Velocity: 61
Note ON: Time 51000, Note Name: F5, Velocity: 72
Note OFF: Time 51120, Note Name: F5
Note OFF: Time 51120, Note Name: C#5
Note ON: Time 51240, Note Name: C#3, Velocity: 66
Note ON: Time 51240, Note Name: C#2, Velocity: 55
Note OFF: Time 51360, Note Name: C#2
Note OFF: Time 51360, Note Name: C#3
Note ON: Time 51480, Note Name: D#3, Velocity: 70
Note ON: Time 51480, Note Name: D#2, Velocity: 58
Note OFF: Time 51600, Note Name: D#2
Note OFF: Time 51600, Note Name: D#3
Note ON: Time 51720, Note Name: F3, Velocity: 66
Note ON: Time 51720, Note Name: F2, Velocity: 45
Note OFF: Time 52080, Note Name: F2
Note OFF: Time 52080, Note Name: F3
Note ON: Time 52080, Note Name: F#2, Velocity: 42
Note OFF: Time 52560, Note Name: F#2
Note ON: Time 52560, Note Name: G#2, Velocity: 38
Note OFF: Time 52920, Note Name: G#2
Note ON: Time 52920, Note Name: F#2, Velocity: 31
Note OFF: Time 53160, Note Name: F#2
Note ON: Time 53160, Note Name: F2, Velocity: 30
Note OFF: Time 53400, Note Name: F2
Note ON: Time 53400, Note Name: D#2, Velocity: 28
Note OFF: Time 53640, Note Name: D#2
Note ON: Time 53640, Note Name: C#2, Velocity: 27
Note OFF: Time 53760, Note Name: C#2
Note ON: Time 54000, Note Name: F#2, Velocity: 40
Note OFF: Time 54480, Note Name: F#2
Note ON: Time 54480, Note Name: F#4, Velocity: 57
Note OFF: Time 54840, Note Name: F#4
Note ON: Time 54840, Note Name: F4, Velocity: 38
Note OFF: Time 54960, Note Name: F4
Note ON: Time 55080, Note Name: C#3, Velocity: 38
Note OFF: Time 55200, Note Name: C#3
Note ON: Time 55320, Note Name: D#3, Velocity: 45
Note OFF: Time 55440, Note Name: D#3
Note ON: Time 55560, Note Name: F3, Velocity: 45
Note OFF: Time 55680, Note Name: F3
Note ON: Time 55920, Note Name: F#2, Velocity: 59
Note OFF: Time 56400, Note Name: F#2
Note ON: Time 56400, Note Name: G#4, Velocity: 63
Note ON: Time 56400, Note Name: F#4, Velocity: 52
Note OFF: Time 56760, Note Name: F#4
Note OFF: Time 56760, Note Name: G#4
Note ON: Time 56760, Note Name: F4, Velocity: 60
Note OFF: Time 56880, Note Name: F4
Note ON: Time 57000, Note Name: F3, Velocity: 55
Note ON: Time 57000, Note Name: C#3, Velocity: 45
Note OFF: Time 57120, Note Name: C#3
Note OFF: Time 57120, Note Name: F3
Note ON: Time 57240, Note Name: F#3, Velocity: 63
Note ON: Time 57240, Note Name: D#3, Velocity: 52
Note OFF: Time 57360, Note Name: D#3
Note OFF: Time 57360, Note Name: F#3
Note ON: Time 57480, Note Name: G#3, Velocity: 62
Note ON: Time 57480, Note Name: F3, Velocity: 51
Note OFF: Time 57598, Note Name: F3
Note OFF: Time 57598, Note Name: G#3
Note ON: Time 57840, Note Name: F#1, Velocity: 61
Note ON: Time 57840, Note Name: F#2, Velocity: 73
Note OFF: Time 58320, Note Name: F#2
Note OFF: Time 58320, Note Name: F#1
Note ON: Time 58320, Note Name: D#5, Velocity: 85
Note ON: Time 58320, Note Name: C5, Velocity: 58
Note OFF: Time 58680, Note Name: C5
Note OFF: Time 58680, Note Name: D#5
Note ON: Time 58680, Note Name: C#5, Velocity: 61
Note ON: Time 58680, Note Name: F5, Velocity: 72
Note OFF: Time 58800, Note Name: F5
Note OFF: Time 58800, Note Name: C#5
Note ON: Time 58920, Note Name: C#3, Velocity: 66
Note ON: Time 58920, Note Name: C#2, Velocity: 55
Note OFF: Time 59040, Note Name: C#2
Note OFF: Time 59040, Note Name: C#3
Note ON: Time 59160, Note Name: D#3, Velocity: 70
Note ON: Time 59160, Note Name: D#2, Velocity: 58
Note OFF: Time 59280, Note Name: D#2
Note OFF: Time 59280, Note Name: D#3
Note ON: Time 59400, Note Name: F3, Velocity: 66
Note ON: Time 59400, Note Name: F2, Velocity: 45
Note OFF: Time 59760, Note Name: F2
Note OFF: Time 59760, Note Name: F3
Note ON: Time 59760, Note Name: F#2, Velocity: 42
Note OFF: Time 60240, Note Name: F#2
Note ON: Time 60240, Note Name: G#2, Velocity: 38
Note OFF: Time 60600, Note Name: G#2
Note ON: Time 60600, Note Name: F2, Velocity: 30
Note OFF: Time 60840, Note Name: F2
Note ON: Time 60840, Note Name: D#2, Velocity: 27
Note OFF: Time 61200, Note Name: D#2
Note ON: Time 61200, Note Name: C#2, Velocity: 26
Note OFF: Time 61440, Note Name: C#2
Note ON: Time 61440, Note Name: C#3, Velocity: 51
Note OFF: Time 61920, Note Name: C#3
Note ON: Time 61920, Note Name: F#2, Velocity: 38
Note OFF: Time 62400, Note Name: F#2
Note ON: Time 62400, Note Name: C#3, Velocity: 42
Note OFF: Time 63120, Note Name: C#3
Note ON: Time 63120, Note Name: F#2, Velocity: 38
Note OFF: Time 63360, Note Name: F#2
Note ON: Time 63360, Note Name: G#2, Velocity: 44
Note OFF: Time 63840, Note Name: G#2
Note ON: Time 63840, Note Name: G#3, Velocity: 44
Note OFF: Time 64560, Note Name: G#3
Note ON: Time 64560, Note Name: F#3, Velocity: 39
Note OFF: Time 64680, Note Name: F#3
Note ON: Time 64680, Note Name: F3, Velocity: 39
Note OFF: Time 64800, Note Name: F3
Note ON: Time 64800, Note Name: D#3, Velocity: 41
Note OFF: Time 65040, Note Name: D#3
Note ON: Time 65040, Note Name: C#3, Velocity: 38
Note OFF: Time 65280, Note Name: C#3
Note ON: Time 65280, Note Name: C#4, Velocity: 51
Note OFF: Time 65760, Note Name: C#4
Note ON: Time 65760, Note Name: F#3, Velocity: 58
Note OFF: Time 66240, Note Name: F#3
Note ON: Time 66240, Note Name: C#4, Velocity: 42
Note OFF: Time 66960, Note Name: C#4
Note ON: Time 66960, Note Name: A3, Velocity: 38
Note OFF: Time 67200, Note Name: A3
Note ON: Time 67200, Note Name: G#3, Velocity: 44
Note OFF: Time 67680, Note Name: G#3
Note ON: Time 67680, Note Name: G#2, Velocity: 44
Note OFF: Time 68400, Note Name: G#2
Note ON: Time 68400, Note Name: C#2, Velocity: 36
Note OFF: Time 68520, Note Name: C#2
Note ON: Time 68520, Note Name: F2, Velocity: 36
Note OFF: Time 68640, Note Name: F2
Note ON: Time 68640, Note Name: G#2, Velocity: 38
Note OFF: Time 68760, Note Name: G#2
Note ON: Time 68760, Note Name: C#3, Velocity: 34
Note OFF: Time 68880, Note Name: C#3
Note ON: Time 68880, Note Name: F3, Velocity: 35
Note OFF: Time 69000, Note Name: F3
Note ON: Time 69000, Note Name: D#3, Velocity: 30
Note OFF: Time 69120, Note Name: D#3
Note ON: Time 69120, Note Name: C#3, Velocity: 51
Note OFF: Time 69600, Note Name: C#3
Note ON: Time 69600, Note Name: F#2, Velocity: 38
Note OFF: Time 70080, Note Name: F#2
Note ON: Time 70080, Note Name: C#3, Velocity: 42
Note OFF: Time 70800, Note Name: C#3
Note ON: Time 70800, Note Name: F#2, Velocity: 38
Note OFF: Time 71040, Note Name: F#2
Note ON: Time 71040, Note Name: G#2, Velocity: 44
Note OFF: Time 71520, Note Name: G#2
Note ON: Time 71520, Note Name: G#3, Velocity: 44
Note OFF: Time 72240, Note Name: G#3
Note ON: Time 72240, Note Name: F#3, Velocity: 39
Note OFF: Time 72360, Note Name: F#3
Note ON: Time 72360, Note Name: F3, Velocity: 39
Note OFF: Time 72480, Note Name: F3
Note ON: Time 72480, Note Name: D#3, Velocity: 41
Note OFF: Time 72720, Note Name: D#3
Note ON: Time 72720, Note Name: C#3, Velocity: 38
Note OFF: Time 72960, Note Name: C#3
Note ON: Time 72960, Note Name: C#4, Velocity: 51
Note OFF: Time 73440, Note Name: C#4
Note ON: Time 73440, Note Name: F#3, Velocity: 58
Note OFF: Time 73920, Note Name: F#3
Note ON: Time 73920, Note Name: C#4, Velocity: 42
Note OFF: Time 74640, Note Name: C#4
Note ON: Time 74640, Note Name: A3, Velocity: 38
Note OFF: Time 74880, Note Name: A3
Note ON: Time 74880, Note Name: G#3, Velocity: 44
Note OFF: Time 75360, Note Name: G#3
Note ON: Time 75360, Note Name: G#2, Velocity: 44
Note OFF: Time 76080, Note Name: G#2
Note ON: Time 76080, Note Name: C#3, Velocity: 36
Note OFF: Time 76200, Note Name: C#3
Note ON: Time 76200, Note Name: F3, Velocity: 36
Note OFF: Time 76320, Note Name: F3
Note ON: Time 76320, Note Name: F3, Velocity: 38
Note OFF: Time 76440, Note Name: F3
Note ON: Time 76440, Note Name: C#3, Velocity: 34
Note OFF: Time 76560, Note Name: C#3
Note ON: Time 76560, Note Name: F3, Velocity: 35
Note OFF: Time 76680, Note Name: F3
Note ON: Time 76680, Note Name: G#3, Velocity: 30
Note OFF: Time 76800, Note Name: G#3
Note ON: Time 76800, Note Name: G#3, Velocity: 51
Note ON: Time 76800, Note Name: F#3, Velocity: 51
Note OFF: Time 77280, Note Name: F#3
Note ON: Time 77280, Note Name: D#3, Velocity: 38
Note OFF: Time 77760, Note Name: D#3
Note OFF: Time 77760, Note Name: G#3
Note ON: Time 77760, Note Name: F3, Velocity: 38
Note ON: Time 77760, Note Name: G#3, Velocity: 46
Note OFF: Time 78000, Note Name: G#3
Note OFF: Time 78000, Note Name: F3
Note ON: Time 78000, Note Name: D#3, Velocity: 41
Note ON: Time 78000, Note Name: G#3, Velocity: 49
Note OFF: Time 78120, Note Name: G#3
Note OFF: Time 78120, Note Name: D#3
Note ON: Time 78120, Note Name: F3, Velocity: 45
Note ON: Time 78120, Note Name: G#3, Velocity: 54
Note OFF: Time 78240, Note Name: G#3
Note OFF: Time 78240, Note Name: F3
Note ON: Time 78240, Note Name: D#3, Velocity: 49
Note ON: Time 78240, Note Name: G#3, Velocity: 59
Note OFF: Time 78480, Note Name: G#3
Note OFF: Time 78480, Note Name: D#3
Note ON: Time 78480, Note Name: C#3, Velocity: 42
Note ON: Time 78480, Note Name: G#3, Velocity: 50
Note OFF: Time 78720, Note Name: G#3
Note OFF: Time 78720, Note Name: C#3
Note ON: Time 78720, Note Name: G#3, Velocity: 51
Note ON: Time 78720, Note Name: F#3, Velocity: 51
Note OFF: Time 79200, Note Name: F#3
Note ON: Time 79200, Note Name: D#3, Velocity: 38
Note OFF: Time 79680, Note Name: D#3
Note OFF: Time 79680, Note Name: G#3
Note ON: Time 79680, Note Name: F3, Velocity: 38
Note ON: Time 79680, Note Name: G#3, Velocity: 46
Note OFF: Time 79920, Note Name: G#3
Note OFF: Time 79920, Note Name: F3
Note ON: Time 79920, Note Name: D#3, Velocity: 41
Note ON: Time 79920, Note Name: G#3, Velocity: 49
Note OFF: Time 80040, Note Name: G#3
Note OFF: Time 80040, Note Name: D#3
Note ON: Time 80040, Note Name: C#3, Velocity: 45
Note ON: Time 80040, Note Name: G#3, Velocity: 54
Note OFF: Time 80160, Note Name: G#3
Note OFF: Time 80160, Note Name: C#3
Note ON: Time 80160, Note Name: C3, Velocity: 49
Note ON: Time 80160, Note Name: G#3, Velocity: 59
Note OFF: Time 80400, Note Name: G#3
Note OFF: Time 80400, Note Name: C3
Note ON: Time 80400, Note Name: C#3, Velocity: 42
Note ON: Time 80400, Note Name: G#3, Velocity: 50
Note OFF: Time 80640, Note Name: G#3
Note OFF: Time 80640, Note Name: C#3
Note ON: Time 80640, Note Name: G#3, Velocity: 58
Note ON: Time 80640, Note Name: F#3, Velocity: 58
Note OFF: Time 81120, Note Name: F#3
Note ON: Time 81120, Note Name: D#3, Velocity: 62
Note OFF: Time 81600, Note Name: D#3
Note OFF: Time 81600, Note Name: G#3
Note ON: Time 81600, Note Name: F3, Velocity: 59
Note ON: Time 81600, Note Name: G#3, Velocity: 59
Note ON: Time 81600, Note Name: C#4, Velocity: 73
Note OFF: Time 81840, Note Name: C#4
Note OFF: Time 81840, Note Name: G#3
Note OFF: Time 81840, Note Name: F3
Note ON: Time 81840, Note Name: F#3, Velocity: 55
Note ON: Time 81840, Note Name: D#3, Velocity: 55
Note ON: Time 81840, Note Name: C#4, Velocity: 65
Note OFF: Time 81960, Note Name: C#4
Note OFF: Time 81960, Note Name: D#3
Note OFF: Time 81960, Note Name: F#3
Note ON: Time 81960, Note Name: C#3, Velocity: 49
Note ON: Time 81960, Note Name: F3, Velocity: 49
Note ON: Time 81960, Note Name: C#4, Velocity: 59
Note OFF: Time 82080, Note Name: C#4
Note OFF: Time 82080, Note Name: F3
Note OFF: Time 82080, Note Name: C#3
Note ON: Time 82080, Note Name: F#3, Velocity: 56
Note ON: Time 82080, Note Name: D#3, Velocity: 56
Note ON: Time 82080, Note Name: C4, Velocity: 66
Note OFF: Time 82320, Note Name: C4
Note OFF: Time 82320, Note Name: D#3
Note OFF: Time 82320, Note Name: F#3
Note ON: Time 82320, Note Name: G#3, Velocity: 40
Note ON: Time 82320, Note Name: F3, Velocity: 40
Note ON: Time 82320, Note Name: C#4, Velocity: 58
Note OFF: Time 82560, Note Name: C#4
Note OFF: Time 82560, Note Name: F3
Note OFF: Time 82560, Note Name: G#3
Note ON: Time 82560, Note Name: F#3, Velocity: 34
Note ON: Time 82560, Note Name: A#3, Velocity: 34
Note ON: Time 82560, Note Name: D#4, Velocity: 40
Note OFF: Time 83040, Note Name: D#4
Note OFF: Time 83040, Note Name: A#3
Note OFF: Time 83040, Note Name: F#3
Note ON: Time 83040, Note Name: G#3, Velocity: 34
Note ON: Time 83040, Note Name: C4, Velocity: 40
Note OFF: Time 83520, Note Name: C4
Note OFF: Time 83520, Note Name: G#3
Note ON: Time 83520, Note Name: G#3, Velocity: 34
Note ON: Time 83520, Note Name: C#4, Velocity: 40
Note OFF: Time 83760, Note Name: C#4
Note OFF: Time 83760, Note Name: G#3
Note ON: Time 83760, Note Name: C#3, Velocity: 36
Note OFF: Time 83880, Note Name: C#3
Note ON: Time 83880, Note Name: D#3, Velocity: 36
Note OFF: Time 84000, Note Name: D#3
Note ON: Time 84000, Note Name: F3, Velocity: 38
Note OFF: Time 84120, Note Name: F3
Note ON: Time 84120, Note Name: C#3, Velocity: 28
Note ON: Time 84120, Note Name: G#3, Velocity: 34
Note OFF: Time 84240, Note Name: G#3
Note OFF: Time 84240, Note Name: C#3
Note ON: Time 84240, Note Name: D#3, Velocity: 29
Note ON: Time 84240, Note Name: G#3, Velocity: 35
Note OFF: Time 84360, Note Name: G#3
Note OFF: Time 84360, Note Name: D#3
Note ON: Time 84360, Note Name: F3, Velocity: 25
Note ON: Time 84360, Note Name: G#3, Velocity: 30
Note OFF: Time 84480, Note Name: G#3
Note OFF: Time 84480, Note Name: F3
Note ON: Time 84480, Note Name: G#3, Velocity: 51
Note ON: Time 84480, Note Name: F#3, Velocity: 51
Note OFF: Time 84960, Note Name: F#3
Note ON: Time 84960, Note Name: D#3, Velocity: 38
Note OFF: Time 85440, Note Name: D#3
Note OFF: Time 85440, Note Name: G#3
Note ON: Time 85440, Note Name: F3, Velocity: 38
Note ON: Time 85440, Note Name: G#3, Velocity: 46
Note OFF: Time 85680, Note Name: G#3
Note OFF: Time 85680, Note Name: F3
Note ON: Time 85680, Note Name: D#3, Velocity: 41
Note ON: Time 85680, Note Name: G#3, Velocity: 49
Note OFF: Time 85800, Note Name: G#3
Note OFF: Time 85800, Note Name: D#3
Note ON: Time 85800, Note Name: F3, Velocity: 45
Note ON: Time 85800, Note Name: G#3, Velocity: 54
Note OFF: Time 85920, Note Name: G#3
Note OFF: Time 85920, Note Name: F3
Note ON: Time 85920, Note Name: D#3, Velocity: 49
Note ON: Time 85920, Note Name: G#3, Velocity: 59
Note OFF: Time 86160, Note Name: G#3
Note OFF: Time 86160, Note Name: D#3
Note ON: Time 86160, Note Name: C#3, Velocity: 42
Note ON: Time 86160, Note Name: G#3, Velocity: 50
Note OFF: Time 86400, Note Name: G#3
Note OFF: Time 86400, Note Name: C#3
Note ON: Time 86400, Note Name: G#3, Velocity: 51
Note ON: Time 86400, Note Name: F#3, Velocity: 51
Note OFF: Time 86880, Note Name: F#3
Note ON: Time 86880, Note Name: D#3, Velocity: 38
Note OFF: Time 87360, Note Name: D#3
Note OFF: Time 87360, Note Name: G#3
Note ON: Time 87360, Note Name: F3, Velocity: 38
Note ON: Time 87360, Note Name: G#3, Velocity: 46
Note OFF: Time 87600, Note Name: G#3
Note OFF: Time 87600, Note Name: F3
Note ON: Time 87600, Note Name: D#3, Velocity: 41
Note ON: Time 87600, Note Name: G#3, Velocity: 49
Note OFF: Time 87720, Note Name: G#3
Note OFF: Time 87720, Note Name: D#3
Note ON: Time 87720, Note Name: C#3, Velocity: 45
Note ON: Time 87720, Note Name: G#3, Velocity: 54
Note OFF: Time 87840, Note Name: G#3
Note OFF: Time 87840, Note Name: C#3
Note ON: Time 87840, Note Name: C3, Velocity: 49
Note ON: Time 87840, Note Name: G#3, Velocity: 59
Note OFF: Time 88080, Note Name: G#3
Note OFF: Time 88080, Note Name: C3
Note ON: Time 88080, Note Name: C#3, Velocity: 42
Note ON: Time 88080, Note Name: G#3, Velocity: 50
Note OFF: Time 88320, Note Name: G#3
Note OFF: Time 88320, Note Name: C#3
Note ON: Time 88320, Note Name: G#3, Velocity: 58
Note ON: Time 88320, Note Name: F#3, Velocity: 58
Note OFF: Time 88800, Note Name: F#3
Note ON: Time 88800, Note Name: D#3, Velocity: 62
Note OFF: Time 89280, Note Name: D#3
Note OFF: Time 89280, Note Name: G#3
Note ON: Time 89280, Note Name: F3, Velocity: 59
Note ON: Time 89280, Note Name: G#3, Velocity: 59
Note ON: Time 89280, Note Name: C#4, Velocity: 73
Note OFF: Time 89520, Note Name: C#4
Note OFF: Time 89520, Note Name: G#3
Note OFF: Time 89520, Note Name: F3
Note ON: Time 89520, Note Name: F#3, Velocity: 55
Note ON: Time 89520, Note Name: D#3, Velocity: 55
Note ON: Time 89520, Note Name: C#4, Velocity: 65
Note OFF: Time 89640, Note Name: C#4
Note OFF: Time 89640, Note Name: D#3
Note OFF: Time 89640, Note Name: F#3
Note ON: Time 89640, Note Name: C#3, Velocity: 49
Note ON: Time 89640, Note Name: F3, Velocity: 49
Note ON: Time 89640, Note Name: C#4, Velocity: 59
Note OFF: Time 89760, Note Name: C#4
Note OFF: Time 89760, Note Name: F3
Note OFF: Time 89760, Note Name: C#3
Note ON: Time 89760, Note Name: F#3, Velocity: 56
Note ON: Time 89760, Note Name: D#3, Velocity: 56
Note ON: Time 89760, Note Name: C4, Velocity: 66
Note OFF: Time 90000, Note Name: C4
Note OFF: Time 90000, Note Name: D#3
Note OFF: Time 90000, Note Name: F#3
Note ON: Time 90000, Note Name: G#3, Velocity: 40
Note ON: Time 90000, Note Name: F3, Velocity: 40
Note ON: Time 90000, Note Name: C#4, Velocity: 58
Note OFF: Time 90240, Note Name: C#4
Note OFF: Time 90240, Note Name: F3
Note OFF: Time 90240, Note Name: G#3
Note ON: Time 90240, Note Name: F#3, Velocity: 34
Note ON: Time 90240, Note Name: A#3, Velocity: 34
Note ON: Time 90240, Note Name: D#4, Velocity: 40
Note OFF: Time 90720, Note Name: D#4
Note OFF: Time 90720, Note Name: A#3
Note OFF: Time 90720, Note Name: F#3
Note ON: Time 90720, Note Name: G#3, Velocity: 34
Note ON: Time 90720, Note Name: C4, Velocity: 40
Note OFF: Time 91200, Note Name: C4
Note OFF: Time 91200, Note Name: G#3
Note ON: Time 91200, Note Name: G#3, Velocity: 34
Note ON: Time 91200, Note Name: C#4, Velocity: 40
Note OFF: Time 91440, Note Name: C#4
Note OFF: Time 91440, Note Name: G#3
Note ON: Time 91440, Note Name: C#3, Velocity: 36
Note OFF: Time 91680, Note Name: C#3
Note ON: Time 91740, Note Name: G#4, Velocity: 40
Note OFF: Time 91800, Note Name: G#4
Note ON: Time 91800, Note Name: F4, Velocity: 37
Note OFF: Time 91860, Note Name: F4
Note ON: Time 91860, Note Name: G#4, Velocity: 37
Note OFF: Time 91920, Note Name: G#4
Note ON: Time 91920, Note Name: E4, Velocity: 40
Note OFF: Time 91980, Note Name: E4
Note ON: Time 91980, Note Name: G#4, Velocity: 37
Note OFF: Time 92040, Note Name: G#4
Note ON: Time 92040, Note Name: F4, Velocity: 37
Note OFF: Time 92100, Note Name: F4
Note ON: Time 92100, Note Name: G#4, Velocity: 37
Note OFF: Time 92160, Note Name: G#4
Note ON: Time 92160, Note Name: C#4, Velocity: 40
Note OFF: Time 92220, Note Name: C#4
Note ON: Time 92220, Note Name: G#4, Velocity: 36
Note OFF: Time 92280, Note Name: G#4
Note ON: Time 92280, Note Name: F4, Velocity: 36
Note OFF: Time 92340, Note Name: F4
Note ON: Time 92340, Note Name: G#4, Velocity: 36
Note OFF: Time 92400, Note Name: G#4
Note ON: Time 92400, Note Name: C#5, Velocity: 40
Note OFF: Time 92460, Note Name: C#5
Note ON: Time 92460, Note Name: G#4, Velocity: 36
Note OFF: Time 92520, Note Name: G#4
Note ON: Time 92520, Note Name: F4, Velocity: 36
Note OFF: Time 92580, Note Name: F4
Note ON: Time 92580, Note Name: G#4, Velocity: 36
Note OFF: Time 92640, Note Name: G#4
Note ON: Time 92640, Note Name: C#4, Velocity: 40
Note OFF: Time 92700, Note Name: C#4
Note ON: Time 92700, Note Name: A#4, Velocity: 35
Note OFF: Time 92760, Note Name: A#4
Note ON: Time 92760, Note Name: F#4, Velocity: 37
Note OFF: Time 92820, Note Name: F#4
Note ON: Time 92820, Note Name: A#4, Velocity: 37
Note OFF: Time 92880, Note Name: A#4
Note ON: Time 92880, Note Name: C#5, Velocity: 40
Note OFF: Time 92940, Note Name: C#5
Note ON: Time 92940, Note Name: A#4, Velocity: 37
Note OFF: Time 93000, Note Name: A#4
Note ON: Time 93000, Note Name: F#4, Velocity: 37
Note OFF: Time 93060, Note Name: F#4
Note ON: Time 93060, Note Name: A#4, Velocity: 37
Note OFF: Time 93120, Note Name: A#4
Note ON: Time 93120, Note Name: C#4, Velocity: 40
Note OFF: Time 93180, Note Name: C#4
Note ON: Time 93180, Note Name: G#4, Velocity: 37
Note OFF: Time 93240, Note Name: G#4
Note ON: Time 93240, Note Name: F4, Velocity: 37
Note OFF: Time 93300, Note Name: F4
Note ON: Time 93300, Note Name: G#4, Velocity: 37
Note OFF: Time 93360, Note Name: G#4
Note ON: Time 93360, Note Name: C#5, Velocity: 40
Note OFF: Time 93420, Note Name: C#5
Note ON: Time 93420, Note Name: G#4, Velocity: 37
Note OFF: Time 93480, Note Name: G#4
Note ON: Time 93480, Note Name: F4, Velocity: 37
Note OFF: Time 93540, Note Name: F4
Note ON: Time 93540, Note Name: G#4, Velocity: 37
Note OFF: Time 93600, Note Name: G#4
Note ON: Time 93600, Note Name: C#4, Velocity: 40
Note OFF: Time 93660, Note Name: C#4
Note ON: Time 93660, Note Name: G#4, Velocity: 37
Note OFF: Time 93720, Note Name: G#4
Note ON: Time 93720, Note Name: F4, Velocity: 37
Note OFF: Time 93780, Note Name: F4
Note ON: Time 93780, Note Name: G#4, Velocity: 37
Note OFF: Time 93840, Note Name: G#4
Note ON: Time 93840, Note Name: F#3, Velocity: 52
Note OFF: Time 93900, Note Name: F#3
Note ON: Time 93900, Note Name: F#4, Velocity: 46
Note OFF: Time 93960, Note Name: F#4
Note ON: Time 93960, Note Name: D#4, Velocity: 46
Note OFF: Time 94020, Note Name: D#4
Note ON: Time 94020, Note Name: F#4, Velocity: 46
Note OFF: Time 94080, Note Name: F#4
Note ON: Time 94080, Note Name: G#3, Velocity: 57
Note OFF: Time 94140, Note Name: G#3
Note ON: Time 94140, Note Name: F#4, Velocity: 46
Note OFF: Time 94200, Note Name: F#4
Note ON: Time 94200, Note Name: D#4, Velocity: 46
Note OFF: Time 94260, Note Name: D#4
Note ON: Time 94260, Note Name: F#4, Velocity: 46
Note OFF: Time 94320, Note Name: F#4
Note ON: Time 94320, Note Name: G#3, Velocity: 57
Note OFF: Time 94380, Note Name: G#3
Note ON: Time 94380, Note Name: F#4, Velocity: 46
Note OFF: Time 94440, Note Name: F#4
Note ON: Time 94440, Note Name: D#4, Velocity: 46
Note OFF: Time 94500, Note Name: D#4
Note ON: Time 94500, Note Name: F#4, Velocity: 46
Note OFF: Time 94560, Note Name: F#4
Note ON: Time 94560, Note Name: G#3, Velocity: 59
Note OFF: Time 94620, Note Name: G#3
Note ON: Time 94620, Note Name: F#4, Velocity: 46
Note OFF: Time 94680, Note Name: F#4
Note ON: Time 94680, Note Name: D#4, Velocity: 46
Note OFF: Time 94740, Note Name: D#4
Note ON: Time 94740, Note Name: F#4, Velocity: 46
Note OFF: Time 94800, Note Name: F#4
Note ON: Time 94800, Note Name: G#3, Velocity: 58
Note OFF: Time 94860, Note Name: G#3
Note ON: Time 94860, Note Name: F#4, Velocity: 46
Note OFF: Time 94920, Note Name: F#4
Note ON: Time 94920, Note Name: D#4, Velocity: 46
Note OFF: Time 94980, Note Name: D#4
Note ON: Time 94980, Note Name: F#4, Velocity: 46
Note OFF: Time 95040, Note Name: F#4
Note ON: Time 95040, Note Name: C#4, Velocity: 46
Note OFF: Time 95100, Note Name: C#4
Note ON: Time 95100, Note Name: D#4, Velocity: 47
Note OFF: Time 95160, Note Name: D#4
Note ON: Time 95160, Note Name: F4, Velocity: 48
Note OFF: Time 95220, Note Name: F4
Note ON: Time 95220, Note Name: F#4, Velocity: 49
Note OFF: Time 95280, Note Name: F#4
Note ON: Time 95280, Note Name: G#4, Velocity: 52
Note OFF: Time 95340, Note Name: G#4
Note ON: Time 95340, Note Name: A#4, Velocity: 49
Note OFF: Time 95400, Note Name: A#4
Note ON: Time 95400, Note Name: G#4, Velocity: 51
Note OFF: Time 95460, Note Name: G#4
Note ON: Time 95460, Note Name: F#4, Velocity: 50
Note OFF: Time 95520, Note Name: F#4
Note ON: Time 95520, Note Name: F4, Velocity: 45
Note OFF: Time 95580, Note Name: F4
Note ON: Time 95580, Note Name: F#4, Velocity: 47
Note OFF: Time 95640, Note Name: F#4
Note ON: Time 95640, Note Name: G#4, Velocity: 48
Note OFF: Time 95700, Note Name: G#4
Note ON: Time 95700, Note Name: A#4, Velocity: 49
Note OFF: Time 95760, Note Name: A#4
Note ON: Time 95760, Note Name: C5, Velocity: 54
Note OFF: Time 95820, Note Name: C5
Note ON: Time 95820, Note Name: C#5, Velocity: 46
Note OFF: Time 95880, Note Name: C#5
Note ON: Time 95880, Note Name: G#4, Velocity: 50
Note OFF: Time 95940, Note Name: G#4
Note ON: Time 95940, Note Name: F#4, Velocity: 46
Note OFF: Time 96000, Note Name: F#4
Note ON: Time 96000, Note Name: F4, Velocity: 40
Note OFF: Time 96060, Note Name: F4
Note ON: Time 96060, Note Name: C#5, Velocity: 36
Note OFF: Time 96120, Note Name: C#5
Note ON: Time 96120, Note Name: G#4, Velocity: 36
Note OFF: Time 96180, Note Name: G#4
Note ON: Time 96180, Note Name: C#5, Velocity: 36
Note OFF: Time 96240, Note Name: C#5
Note ON: Time 96240, Note Name: F5, Velocity: 40
Note OFF: Time 96300, Note Name: F5
Note ON: Time 96300, Note Name: C#5, Velocity: 36
Note OFF: Time 96360, Note Name: C#5
Note ON: Time 96360, Note Name: G#4, Velocity: 36
Note OFF: Time 96420, Note Name: G#4
Note ON: Time 96420, Note Name: C#5, Velocity: 36
Note OFF: Time 96480, Note Name: C#5
Note ON: Time 96480, Note Name: F#4, Velocity: 40
Note OFF: Time 96540, Note Name: F#4
Note ON: Time 96540, Note Name: C#5, Velocity: 35
Note OFF: Time 96600, Note Name: C#5
Note ON: Time 96600, Note Name: A#4, Velocity: 37
Note OFF: Time 96660, Note Name: A#4
Note ON: Time 96660, Note Name: C#5, Velocity: 37
Note OFF: Time 96720, Note Name: C#5
Note ON: Time 96720, Note Name: F#5, Velocity: 40
Note OFF: Time 96780, Note Name: F#5
Note ON: Time 96780, Note Name: C#5, Velocity: 37
Note OFF: Time 96840, Note Name: C#5
Note ON: Time 96840, Note Name: A#4, Velocity: 37
Note OFF: Time 96900, Note Name: A#4
Note ON: Time 96900, Note Name: C#5, Velocity: 37
Note OFF: Time 96960, Note Name: C#5
Note ON: Time 96960, Note Name: F4, Velocity: 40
Note OFF: Time 97020, Note Name: F4
Note ON: Time 97020, Note Name: C#5, Velocity: 37
Note OFF: Time 97080, Note Name: C#5
Note ON: Time 97080, Note Name: G#4, Velocity: 37
Note OFF: Time 97140, Note Name: G#4
Note ON: Time 97140, Note Name: C#5, Velocity: 37
Note OFF: Time 97200, Note Name: C#5
Note ON: Time 97200, Note Name: F5, Velocity: 40
Note OFF: Time 97260, Note Name: F5
Note ON: Time 97260, Note Name: C#5, Velocity: 37
Note OFF: Time 97320, Note Name: C#5
Note ON: Time 97320, Note Name: G#4, Velocity: 37
Note OFF: Time 97380, Note Name: G#4
Note ON: Time 97380, Note Name: C#5, Velocity: 37
Note OFF: Time 97440, Note Name: C#5
Note ON: Time 97440, Note Name: F4, Velocity: 40
Note OFF: Time 97500, Note Name: F4
Note ON: Time 97500, Note Name: C#5, Velocity: 37
Note OFF: Time 97560, Note Name: C#5
Note ON: Time 97560, Note Name: G#4, Velocity: 37
Note OFF: Time 97620, Note Name: G#4
Note ON: Time 97620, Note Name: C#5, Velocity: 37
Note OFF: Time 97680, Note Name: C#5
Note ON: Time 97680, Note Name: E4, Velocity: 52
Note OFF: Time 97740, Note Name: E4
Note ON: Time 97740, Note Name: A#4, Velocity: 46
Note OFF: Time 97800, Note Name: A#4
Note ON: Time 97800, Note Name: G4, Velocity: 46
Note OFF: Time 97860, Note Name: G4
Note ON: Time 97860, Note Name: A#4, Velocity: 46
Note OFF: Time 97920, Note Name: A#4
Note ON: Time 97920, Note Name: D#4, Velocity: 57
Note OFF: Time 97980, Note Name: D#4
Note ON: Time 97980, Note Name: A4, Velocity: 46
Note OFF: Time 98040, Note Name: A4
Note ON: Time 98040, Note Name: F#4, Velocity: 46
Note OFF: Time 98100, Note Name: F#4
Note ON: Time 98100, Note Name: A4, Velocity: 46
Note OFF: Time 98160, Note Name: A4
Note ON: Time 98160, Note Name: D#4, Velocity: 57
Note OFF: Time 98220, Note Name: D#4
Note ON: Time 98220, Note Name: A4, Velocity: 46
Note OFF: Time 98280, Note Name: A4
Note ON: Time 98280, Note Name: F#4, Velocity: 46
Note OFF: Time 98340, Note Name: F#4
Note ON: Time 98340, Note Name: A4, Velocity: 46
Note OFF: Time 98400, Note Name: A4
Note ON: Time 98400, Note Name: D#4, Velocity: 59
Note OFF: Time 98460, Note Name: D#4
Note ON: Time 98460, Note Name: G#4, Velocity: 46
Note OFF: Time 98520, Note Name: G#4
Note ON: Time 98520, Note Name: F#4, Velocity: 46
Note OFF: Time 98580, Note Name: F#4
Note ON: Time 98580, Note Name: G#4, Velocity: 46
Note OFF: Time 98640, Note Name: G#4
Note ON: Time 98640, Note Name: D#4, Velocity: 58
Note OFF: Time 98700, Note Name: D#4
Note ON: Time 98700, Note Name: G#4, Velocity: 46
Note OFF: Time 98760, Note Name: G#4
Note ON: Time 98760, Note Name: F#4, Velocity: 46
Note OFF: Time 98820, Note Name: F#4
Note ON: Time 98820, Note Name: G#4, Velocity: 46
Note OFF: Time 98880, Note Name: G#4
Note ON: Time 98880, Note Name: C#4, Velocity: 68
Note ON: Time 98880, Note Name: F4, Velocity: 68
Note ON: Time 98880, Note Name: G#4, Velocity: 80
Note OFF: Time 99120, Note Name: G#4
Note OFF: Time 99120, Note Name: F4
Note OFF: Time 99120, Note Name: C#4
Note ON: Time 100080, Note Name: C#4, Velocity: 52
Note ON: Time 100080, Note Name: G#4, Velocity: 62
Note ON: Time 100080, Note Name: F4, Velocity: 52
Note OFF: Time 100560, Note Name: F4
Note OFF: Time 100560, Note Name: G#4
Note OFF: Time 100560, Note Name: C#4
Note ON: Time 100560, Note Name: C#4, Velocity: 53
Note ON: Time 100560, Note Name: A#4, Velocity: 63
Note ON: Time 100560, Note Name: F#4, Velocity: 53
Note OFF: Time 101040, Note Name: F#4
Note OFF: Time 101040, Note Name: A#4
Note OFF: Time 101040, Note Name: C#4
Note ON: Time 101040, Note Name: C#4, Velocity: 54
Note ON: Time 101040, Note Name: G#4, Velocity: 63
Note ON: Time 101040, Note Name: F4, Velocity: 54
Note OFF: Time 101520, Note Name: F4
Note OFF: Time 101520, Note Name: G#4
Note OFF: Time 101520, Note Name: C#4
Note ON: Time 101520, Note Name: D#4, Velocity: 58
Note ON: Time 101520, Note Name: F#3, Velocity: 58
Note ON: Time 101520, Note Name: C#4, Velocity: 58
Note ON: Time 101520, Note Name: F#4, Velocity: 71
Note OFF: Time 101760, Note Name: F#4
Note OFF: Time 101760, Note Name: D#4
Note OFF: Time 101760, Note Name: F#3
Note OFF: Time 101760, Note Name: C#4
Note ON: Time 101760, Note Name: C#4, Velocity: 62
Note ON: Time 101760, Note Name: G#3, Velocity: 62
Note ON: Time 101760, Note Name: D#4, Velocity: 62
Note ON: Time 101760, Note Name: F#4, Velocity: 75
Note OFF: Time 102000, Note Name: F#4
Note OFF: Time 102000, Note Name: C#4
Note OFF: Time 102000, Note Name: G#3
Note OFF: Time 102000, Note Name: D#4
Note ON: Time 102000, Note Name: C#4, Velocity: 58
Note ON: Time 102000, Note Name: G#3, Velocity: 58
Note ON: Time 102000, Note Name: D#4, Velocity: 58
Note ON: Time 102000, Note Name: F#4, Velocity: 71
Note OFF: Time 102240, Note Name: F#4
Note OFF: Time 102240, Note Name: C#4
Note OFF: Time 102240, Note Name: G#3
Note OFF: Time 102240, Note Name: D#4
Note ON: Time 102240, Note Name: C4, Velocity: 55
Note ON: Time 102240, Note Name: G#3, Velocity: 54
Note ON: Time 102240, Note Name: D#4, Velocity: 60
Note ON: Time 102240, Note Name: F#4, Velocity: 73
Note OFF: Time 102480, Note Name: F#4
Note OFF: Time 102480, Note Name: C4
Note OFF: Time 102480, Note Name: G#3
Note OFF: Time 102480, Note Name: D#4
Note ON: Time 102480, Note Name: C4, Velocity: 53
Note ON: Time 102480, Note Name: G#3, Velocity: 52
Note ON: Time 102480, Note Name: D#4, Velocity: 57
Note ON: Time 102480, Note Name: F#4, Velocity: 67
Note OFF: Time 102720, Note Name: F#4
Note OFF: Time 102720, Note Name: C4
Note OFF: Time 102720, Note Name: G#3
Note OFF: Time 102720, Note Name: D#4
Note ON: Time 102720, Note Name: C#4, Velocity: 65
Note ON: Time 102720, Note Name: F4, Velocity: 76
Note OFF: Time 102960, Note Name: F4
Note OFF: Time 102960, Note Name: C#4
Note ON: Time 103920, Note Name: C#5, Velocity: 62
Note ON: Time 103920, Note Name: G#4, Velocity: 52
Note OFF: Time 104400, Note Name: G#4
Note OFF: Time 104400, Note Name: C#5
Note ON: Time 104400, Note Name: C#5, Velocity: 63
Note ON: Time 104400, Note Name: A#4, Velocity: 53
Note OFF: Time 104880, Note Name: A#4
Note OFF: Time 104880, Note Name: C#5
Note ON: Time 104880, Note Name: C#5, Velocity: 63
Note ON: Time 104880, Note Name: G#4, Velocity: 54
Note OFF: Time 105360, Note Name: G#4
Note OFF: Time 105360, Note Name: C#5
Note ON: Time 105360, Note Name: A4, Velocity: 71
Note OFF: Time 105600, Note Name: A4
Note ON: Time 105600, Note Name: G#4, Velocity: 75
Note OFF: Time 105840, Note Name: G#4
Note ON: Time 105840, Note Name: G#4, Velocity: 71
Note OFF: Time 106080, Note Name: G#4
Note ON: Time 106080, Note Name: G#3, Velocity: 76
Note OFF: Time 106320, Note Name: G#3
Note ON: Time 106320, Note Name: G#3, Velocity: 70
Note OFF: Time 106560, Note Name: G#3
Note ON: Time 106560, Note Name: G#3, Velocity: 54
Note OFF: Time 106620, Note Name: G#3
Note ON: Time 106620, Note Name: A#3, Velocity: 55
Note OFF: Time 106680, Note Name: A#3
Note ON: Time 106680, Note Name: C4, Velocity: 57
Note OFF: Time 106740, Note Name: C4
Note ON: Time 106740, Note Name: C#4, Velocity: 58
Note OFF: Time 106800, Note Name: C#4
Note ON: Time 106800, Note Name: C4, Velocity: 59
Note OFF: Time 106860, Note Name: C4
Note ON: Time 106860, Note Name: C#4, Velocity: 53
Note OFF: Time 106920, Note Name: C#4
Note ON: Time 106920, Note Name: D#4, Velocity: 56
Note OFF: Time 106980, Note Name: D#4
Note ON: Time 106980, Note Name: F4, Velocity: 53
Note OFF: Time 107040, Note Name: F4
Note ON: Time 107040, Note Name: D#4, Velocity: 48
Note OFF: Time 107100, Note Name: D#4
Note ON: Time 107100, Note Name: F4, Velocity: 49
Note OFF: Time 107160, Note Name: F4
Note ON: Time 107160, Note Name: F#4, Velocity: 50
Note OFF: Time 107220, Note Name: F#4
Note ON: Time 107220, Note Name: G#4, Velocity: 51
Note OFF: Time 107280, Note Name: G#4
Note ON: Time 107280, Note Name: A#4, Velocity: 54
Note OFF: Time 107340, Note Name: A#4
Note ON: Time 107340, Note Name: C5, Velocity: 46
Note OFF: Time 107400, Note Name: C5
Note ON: Time 107400, Note Name: C#5, Velocity: 50
Note OFF: Time 107460, Note Name: C#5
Note ON: Time 107460, Note Name: G#4, Velocity: 46
Note OFF: Time 107520, Note Name: G#4
Note ON: Time 107520, Note Name: F#4, Velocity: 40
Note OFF: Time 107580, Note Name: F#4
Note ON: Time 107580, Note Name: D#5, Velocity: 36
Note OFF: Time 107640, Note Name: D#5
Note ON: Time 107640, Note Name: C5, Velocity: 36
Note OFF: Time 107700, Note Name: C5
Note ON: Time 107700, Note Name: D#5, Velocity: 36
Note OFF: Time 107760, Note Name: D#5
Note ON: Time 107760, Note Name: B4, Velocity: 40
Note OFF: Time 107820, Note Name: B4
Note ON: Time 107820, Note Name: D#5, Velocity: 36
Note OFF: Time 107880, Note Name: D#5
Note ON: Time 107880, Note Name: C5, Velocity: 36
Note OFF: Time 107940, Note Name: C5
Note ON: Time 107940, Note Name: D#5, Velocity: 36
Note OFF: Time 108000, Note Name: D#5
Note ON: Time 108000, Note Name: F#5, Velocity: 57
Note OFF: Time 108060, Note Name: F#5
Note ON: Time 108060, Note Name: D#5, Velocity: 35
Note OFF: Time 108120, Note Name: D#5
Note ON: Time 108120, Note Name: C5, Velocity: 37
Note OFF: Time 108180, Note Name: C5
Note ON: Time 108180, Note Name: D#5, Velocity: 37
Note OFF: Time 108240, Note Name: D#5
Note ON: Time 108240, Note Name: F#4, Velocity: 40
Note OFF: Time 108300, Note Name: F#4
Note ON: Time 108300, Note Name: D#5, Velocity: 37
Note OFF: Time 108360, Note Name: D#5
Note ON: Time 108360, Note Name: C5, Velocity: 37
Note OFF: Time 108420, Note Name: C5
Note ON: Time 108420, Note Name: D#5, Velocity: 37
Note OFF: Time 108480, Note Name: D#5
Note ON: Time 108480, Note Name: F4, Velocity: 40
Note OFF: Time 108540, Note Name: F4
Note ON: Time 108540, Note Name: C#5, Velocity: 37
Note OFF: Time 108600, Note Name: C#5
Note ON: Time 108600, Note Name: G#4, Velocity: 37
Note OFF: Time 108660, Note Name: G#4
Note ON: Time 108660, Note Name: C#5, Velocity: 37
Note OFF: Time 108720, Note Name: C#5
Note ON: Time 108720, Note Name: F4, Velocity: 40
Note OFF: Time 108780, Note Name: F4
Note ON: Time 108780, Note Name: C#5, Velocity: 37
Note OFF: Time 108840, Note Name: C#5
Note ON: Time 108840, Note Name: G#4, Velocity: 37
Note OFF: Time 108900, Note Name: G#4
Note ON: Time 108900, Note Name: C#5, Velocity: 37
Note OFF: Time 108960, Note Name: C#5
Note ON: Time 108960, Note Name: D#4, Velocity: 40
Note OFF: Time 109020, Note Name: D#4
Note ON: Time 109020, Note Name: C5, Velocity: 37
Note OFF: Time 109080, Note Name: C5
Note ON: Time 109080, Note Name: F#4, Velocity: 37
Note OFF: Time 109140, Note Name: F#4
Note ON: Time 109140, Note Name: C5, Velocity: 37
Note OFF: Time 109200, Note Name: C5
Note ON: Time 109200, Note Name: C#4, Velocity: 40
Note OFF: Time 109260, Note Name: C#4
Note ON: Time 109260, Note Name: C#5, Velocity: 38
Note OFF: Time 109320, Note Name: C#5
Note ON: Time 109320, Note Name: F4, Velocity: 38
Note OFF: Time 109380, Note Name: F4
Note ON: Time 109380, Note Name: C#5, Velocity: 38
Note OFF: Time 109440, Note Name: C#5
Note ON: Time 109440, Note Name: F#4, Velocity: 40
Note OFF: Time 109500, Note Name: F#4
Note ON: Time 109500, Note Name: D#5, Velocity: 36
Note OFF: Time 109560, Note Name: D#5
Note ON: Time 109560, Note Name: C5, Velocity: 36
Note OFF: Time 109620, Note Name: C5
Note ON: Time 109620, Note Name: D#5, Velocity: 36
Note OFF: Time 109680, Note Name: D#5
Note ON: Time 109680, Note Name: B4, Velocity: 40
Note OFF: Time 109740, Note Name: B4
Note ON: Time 109740, Note Name: D#5, Velocity: 36
Note OFF: Time 109800, Note Name: D#5
Note ON: Time 109800, Note Name: C5, Velocity: 36
Note OFF: Time 109860, Note Name: C5
Note ON: Time 109860, Note Name: D#5, Velocity: 36
Note OFF: Time 109920, Note Name: D#5
Note ON: Time 109920, Note Name: F#5, Velocity: 58
Note OFF: Time 109980, Note Name: F#5
Note ON: Time 109980, Note Name: D#5, Velocity: 35
Note OFF: Time 110040, Note Name: D#5
Note ON: Time 110040, Note Name: C5, Velocity: 37
Note OFF: Time 110100, Note Name: C5
Note ON: Time 110100, Note Name: D#5, Velocity: 37
Note OFF: Time 110160, Note Name: D#5
Note ON: Time 110160, Note Name: F#4, Velocity: 40
Note OFF: Time 110220, Note Name: F#4
Note ON: Time 110220, Note Name: D#5, Velocity: 37
Note OFF: Time 110280, Note Name: D#5
Note ON: Time 110280, Note Name: C5, Velocity: 37
Note OFF: Time 110340, Note Name: C5
Note ON: Time 110340, Note Name: D#5, Velocity: 37
Note OFF: Time 110400, Note Name: D#5
Note ON: Time 110400, Note Name: F4, Velocity: 40
Note OFF: Time 110460, Note Name: F4
Note ON: Time 110460, Note Name: F5, Velocity: 37
Note OFF: Time 110520, Note Name: F5
Note ON: Time 110520, Note Name: C#5, Velocity: 37
Note OFF: Time 110580, Note Name: C#5
Note ON: Time 110580, Note Name: F5, Velocity: 37
Note OFF: Time 110640, Note Name: F5
Note ON: Time 110640, Note Name: G#4, Velocity: 40
Note OFF: Time 110700, Note Name: G#4
Note ON: Time 110700, Note Name: F5, Velocity: 37
Note OFF: Time 110760, Note Name: F5
Note ON: Time 110760, Note Name: C#5, Velocity: 37
Note OFF: Time 110820, Note Name: C#5
Note ON: Time 110820, Note Name: F5, Velocity: 37
Note OFF: Time 110880, Note Name: F5
Note ON: Time 110880, Note Name: F#4, Velocity: 40
Note OFF: Time 110940, Note Name: F#4
Note ON: Time 110940, Note Name: D#5, Velocity: 37
Note OFF: Time 111000, Note Name: D#5
Note ON: Time 111000, Note Name: C5, Velocity: 37
Note OFF: Time 111060, Note Name: C5
Note ON: Time 111060, Note Name: D#5, Velocity: 37
Note OFF: Time 111120, Note Name: D#5
Note ON: Time 111120, Note Name: F4, Velocity: 40
Note OFF: Time 111180, Note Name: F4
Note ON: Time 111180, Note Name: C#5, Velocity: 38
Note OFF: Time 111240, Note Name: C#5
Note ON: Time 111240, Note Name: G#4, Velocity: 38
Note OFF: Time 111300, Note Name: G#4
Note ON: Time 111300, Note Name: C#5, Velocity: 38
Note OFF: Time 111360, Note Name: C#5
Note ON: Time 111360, Note Name: C5, Velocity: 48
Note OFF: Time 111420, Note Name: C5
Note ON: Time 111420, Note Name: F#5, Velocity: 47
Note OFF: Time 111480, Note Name: F#5
Note ON: Time 111480, Note Name: D#5, Velocity: 47
Note OFF: Time 111540, Note Name: D#5
Note ON: Time 111540, Note Name: F#5, Velocity: 47
Note OFF: Time 111600, Note Name: F#5
Note ON: Time 111600, Note Name: G#5, Velocity: 53
Note OFF: Time 111660, Note Name: G#5
Note ON: Time 111660, Note Name: F#5, Velocity: 48
Note OFF: Time 111720, Note Name: F#5
Note ON: Time 111720, Note Name: D#5, Velocity: 48
Note OFF: Time 111780, Note Name: D#5
Note ON: Time 111780, Note Name: F#5, Velocity: 48
Note OFF: Time 111840, Note Name: F#5
Note ON: Time 111840, Note Name: G#5, Velocity: 55
Note OFF: Time 111900, Note Name: G#5
Note ON: Time 111900, Note Name: F#5, Velocity: 48
Note OFF: Time 111960, Note Name: F#5
Note ON: Time 111960, Note Name: D#5, Velocity: 50
Note OFF: Time 112020, Note Name: D#5
Note ON: Time 112020, Note Name: F#5, Velocity: 50
Note OFF: Time 112080, Note Name: F#5
Note ON: Time 112080, Note Name: G#5, Velocity: 56
Note OFF: Time 112140, Note Name: G#5
Note ON: Time 112140, Note Name: F#5, Velocity: 52
Note OFF: Time 112200, Note Name: F#5
Note ON: Time 112200, Note Name: D#5, Velocity: 52
Note OFF: Time 112260, Note Name: D#5
Note ON: Time 112260, Note Name: F#5, Velocity: 53
Note OFF: Time 112320, Note Name: F#5
Note ON: Time 112320, Note Name: F5, Velocity: 57
Note OFF: Time 112380, Note Name: F5
Note ON: Time 112380, Note Name: G#5, Velocity: 52
Note OFF: Time 112440, Note Name: G#5
Note ON: Time 112440, Note Name: F5, Velocity: 53
Note OFF: Time 112500, Note Name: F5
Note ON: Time 112500, Note Name: G#5, Velocity: 53
Note OFF: Time 112560, Note Name: G#5
Note ON: Time 112560, Note Name: C#6, Velocity: 60
Note OFF: Time 112620, Note Name: C#6
Note ON: Time 112620, Note Name: G#5, Velocity: 53
Note OFF: Time 112680, Note Name: G#5
Note ON: Time 112680, Note Name: C#6, Velocity: 55
Note OFF: Time 112740, Note Name: C#6
Note ON: Time 112740, Note Name: G#5, Velocity: 55
Note OFF: Time 112800, Note Name: G#5
Note ON: Time 112800, Note Name: C6, Velocity: 61
Note OFF: Time 112860, Note Name: C6
Note ON: Time 112860, Note Name: F#5, Velocity: 53
Note OFF: Time 112920, Note Name: F#5
Note ON: Time 112920, Note Name: C6, Velocity: 57
Note OFF: Time 112980, Note Name: C6
Note ON: Time 112980, Note Name: F#5, Velocity: 57
Note OFF: Time 113040, Note Name: F#5
Note ON: Time 113040, Note Name: F5, Velocity: 67
Note OFF: Time 113100, Note Name: F5
Note ON: Time 113100, Note Name: G#5, Velocity: 62
Note OFF: Time 113160, Note Name: G#5
Note ON: Time 113160, Note Name: F5, Velocity: 62
Note OFF: Time 113220, Note Name: F5
Note ON: Time 113220, Note Name: G#5, Velocity: 62
Note OFF: Time 113280, Note Name: G#5
Note ON: Time 113280, Note Name: A#5, Velocity: 81
Note OFF: Time 113340, Note Name: A#5
Note ON: Time 113340, Note Name: F#5, Velocity: 69
Note OFF: Time 113400, Note Name: F#5
Note ON: Time 113400, Note Name: A#5, Velocity: 74
Note OFF: Time 113460, Note Name: A#5
Note ON: Time 113460, Note Name: G#5, Velocity: 61
Note OFF: Time 113520, Note Name: G#5
Note ON: Time 113520, Note Name: F#5, Velocity: 68
Note OFF: Time 113580, Note Name: F#5
Note ON: Time 113580, Note Name: F5, Velocity: 60
Note OFF: Time 113640, Note Name: F5
Note ON: Time 113640, Note Name: D#5, Velocity: 63
Note OFF: Time 113700, Note Name: D#5
Note ON: Time 113700, Note Name: C#5, Velocity: 61
Note OFF: Time 113760, Note Name: C#5
Note ON: Time 113760, Note Name: C5, Velocity: 60
Note OFF: Time 113820, Note Name: C5
Note ON: Time 113820, Note Name: A#4, Velocity: 59
Note OFF: Time 113880, Note Name: A#4
Note ON: Time 113880, Note Name: G#4, Velocity: 57
Note OFF: Time 113940, Note Name: G#4
Note ON: Time 113940, Note Name: F#4, Velocity: 56
Note OFF: Time 114000, Note Name: F#4
Note ON: Time 114000, Note Name: F4, Velocity: 55
Note OFF: Time 114060, Note Name: F4
Note ON: Time 114060, Note Name: D#4, Velocity: 52
Note OFF: Time 114120, Note Name: D#4
Note ON: Time 114120, Note Name: C#4, Velocity: 51
Note OFF: Time 114180, Note Name: C#4
Note ON: Time 114180, Note Name: C4, Velocity: 49
Note OFF: Time 114240, Note Name: C4
Note ON: Time 114240, Note Name: C#4, Velocity: 55
Note OFF: Time 114480, Note Name: C#4
Note ON: Time 115440, Note Name: F#3, Velocity: 66
Note OFF: Time 115920, Note Name: F#3
Note ON: Time 115920, Note Name: F#4, Velocity: 55
Note ON: Time 115920, Note Name: G#4, Velocity: 55
Note ON: Time 115920, Note Name: D#5, Velocity: 66
Note OFF: Time 116400, Note Name: D#5
Note OFF: Time 116400, Note Name: G#4
Note OFF: Time 116400, Note Name: F#4
Note ON: Time 116400, Note Name: F4, Velocity: 49
Note ON: Time 116400, Note Name: G#4, Velocity: 49
Note ON: Time 116400, Note Name: C#5, Velocity: 58
Note OFF: Time 116520, Note Name: C#5
Note OFF: Time 116520, Note Name: G#4
Note OFF: Time 116520, Note Name: F4
Note ON: Time 116640, Note Name: D#4, Velocity: 46
Note ON: Time 116640, Note Name: G#4, Velocity: 46
Note ON: Time 116640, Note Name: C5, Velocity: 56
Note OFF: Time 116760, Note Name: C5
Note OFF: Time 116760, Note Name: G#4
Note OFF: Time 116760, Note Name: D#4
Note ON: Time 116880, Note Name: C#4, Velocity: 42
Note ON: Time 116880, Note Name: G#4, Velocity: 42
Note ON: Time 116880, Note Name: C#5, Velocity: 50
Note OFF: Time 117000, Note Name: C#5
Note OFF: Time 117000, Note Name: G#4
Note OFF: Time 117000, Note Name: C#4
Note ON: Time 117360, Note Name: F#3, Velocity: 66
Note OFF: Time 117840, Note Name: F#3
Note ON: Time 117840, Note Name: C5, Velocity: 55
Note ON: Time 117840, Note Name: D#5, Velocity: 55
Note ON: Time 117840, Note Name: F#5, Velocity: 66
Note OFF: Time 118320, Note Name: F#5
Note OFF: Time 118320, Note Name: D#5
Note OFF: Time 118320, Note Name: C5
Note ON: Time 118320, Note Name: G#4, Velocity: 42
Note ON: Time 118320, Note Name: C#5, Velocity: 42
Note ON: Time 118320, Note Name: F5, Velocity: 61
Note OFF: Time 118440, Note Name: F5
Note OFF: Time 118440, Note Name: C#5
Note OFF: Time 118440, Note Name: G#4
Note ON: Time 118560, Note Name: F#4, Velocity: 48
Note ON: Time 118560, Note Name: C5, Velocity: 48
Note ON: Time 118560, Note Name: D#5, Velocity: 58
Note OFF: Time 118680, Note Name: D#5
Note OFF: Time 118680, Note Name: C5
Note OFF: Time 118680, Note Name: F#4
Note ON: Time 118800, Note Name: F4, Velocity: 45
Note ON: Time 118800, Note Name: G#4, Velocity: 45
Note ON: Time 118800, Note Name: C#5, Velocity: 53
Note OFF: Time 118920, Note Name: C#5
Note OFF: Time 118920, Note Name: G#4
Note OFF: Time 118920, Note Name: F4
Note ON: Time 119280, Note Name: F#4, Velocity: 74
Note ON: Time 119280, Note Name: C5, Velocity: 74
Note ON: Time 119280, Note Name: D#5, Velocity: 74
Note OFF: Time 119760, Note Name: D#5
Note OFF: Time 119760, Note Name: C5
Note OFF: Time 119760, Note Name: F#4
Note ON: Time 119760, Note Name: D#5, Velocity: 68
Note ON: Time 119760, Note Name: F#5, Velocity: 68
Note ON: Time 119760, Note Name: G#5, Velocity: 81
Note OFF: Time 120240, Note Name: G#5
Note OFF: Time 120240, Note Name: F#5
Note OFF: Time 120240, Note Name: D#5
Note ON: Time 120240, Note Name: C#5, Velocity: 52
Note ON: Time 120240, Note Name: F5, Velocity: 52
Note ON: Time 120240, Note Name: G#5, Velocity: 75
Note OFF: Time 120360, Note Name: G#5
Note OFF: Time 120360, Note Name: F5
Note OFF: Time 120360, Note Name: C#5
Note ON: Time 120480, Note Name: C5, Velocity: 61
Note ON: Time 120480, Note Name: F#4, Velocity: 61
Note ON: Time 120480, Note Name: D#5, Velocity: 61
Note ON: Time 120480, Note Name: F#5, Velocity: 74
Note OFF: Time 120600, Note Name: F#5
Note OFF: Time 120600, Note Name: C5
Note OFF: Time 120600, Note Name: F#4
Note OFF: Time 120600, Note Name: D#5
Note ON: Time 120720, Note Name: G#4, Velocity: 60
Note ON: Time 120720, Note Name: F4, Velocity: 60
Note ON: Time 120720, Note Name: C#5, Velocity: 60
Note ON: Time 120720, Note Name: F5, Velocity: 72
Note OFF: Time 120840, Note Name: F5
Note OFF: Time 120840, Note Name: G#4
Note OFF: Time 120840, Note Name: F4
Note OFF: Time 120840, Note Name: C#5
Note ON: Time 121200, Note Name: D#4, Velocity: 68
Note ON: Time 121200, Note Name: F#4, Velocity: 68
Note ON: Time 121200, Note Name: A#4, Velocity: 68
Note ON: Time 121200, Note Name: C#5, Velocity: 81
Note OFF: Time 121320, Note Name: C#5
Note OFF: Time 121320, Note Name: D#4
Note OFF: Time 121320, Note Name: F#4
Note OFF: Time 121320, Note Name: A#4
Note ON: Time 121680, Note Name: G#3, Velocity: 69
Note ON: Time 121680, Note Name: C4, Velocity: 69
Note ON: Time 121680, Note Name: D#4, Velocity: 69
Note ON: Time 121680, Note Name: F#4, Velocity: 82
Note OFF: Time 121800, Note Name: F#4
Note OFF: Time 121800, Note Name: G#3
Note OFF: Time 121800, Note Name: C4
Note OFF: Time 121800, Note Name: D#4
Note ON: Time 122400, Note Name: A#3, Velocity: 54
Note OFF: Time 122460, Note Name: A#3
Note ON: Time 122460, Note Name: G#3, Velocity: 53
Note OFF: Time 122520, Note Name: G#3
Note ON: Time 122520, Note Name: F#3, Velocity: 51
Note OFF: Time 122580, Note Name: F#3
Note ON: Time 122580, Note Name: F3, Velocity: 50
Note OFF: Time 122640, Note Name: F3
Note ON: Time 122640, Note Name: D#3, Velocity: 48
Note OFF: Time 122700, Note Name: D#3
Note ON: Time 122700, Note Name: C#3, Velocity: 47
Note OFF: Time 122760, Note Name: C#3
Note ON: Time 122760, Note Name: G#2, Velocity: 45
Note OFF: Time 122820, Note Name: G#2
Note ON: Time 122820, Note Name: F2, Velocity: 44
Note OFF: Time 122880, Note Name: F2
Note ON: Time 122880, Note Name: C#2, Velocity: 47
Note OFF: Time 123360, Note Name: C#2
Note ON: Time 123360, Note Name: F#1, Velocity: 35
Note OFF: Time 123840, Note Name: F#1
Note ON: Time 123840, Note Name: C#2, Velocity: 37
Note OFF: Time 124560, Note Name: C#2
Note ON: Time 124560, Note Name: F#3, Velocity: 35
Note OFF: Time 124800, Note Name: F#3
Note ON: Time 124800, Note Name: G#3, Velocity: 40
Note OFF: Time 125400, Note Name: G#3
Note ON: Time 125400, Note Name: F#3, Velocity: 38
Note OFF: Time 125520, Note Name: F#3
Note ON: Time 125520, Note Name: F3, Velocity: 38
Note OFF: Time 125640, Note Name: F3
Note ON: Time 125640, Note Name: D#3, Velocity: 38
Note OFF: Time 125760, Note Name: D#3
Note ON: Time 125760, Note Name: C#3, Velocity: 40
Note OFF: Time 125880, Note Name: C#3
Note ON: Time 125880, Note Name: A#2, Velocity: 37
Note OFF: Time 126000, Note Name: A#2
Note ON: Time 126000, Note Name: G#2, Velocity: 37
Note OFF: Time 126120, Note Name: G#2
Note ON: Time 126120, Note Name: F#2, Velocity: 37
Note OFF: Time 126240, Note Name: F#2
Note ON: Time 126240, Note Name: F2, Velocity: 40
Note OFF: Time 126360, Note Name: F2
Note ON: Time 126360, Note Name: G#2, Velocity: 38
Note OFF: Time 126480, Note Name: G#2
Note ON: Time 126480, Note Name: F#2, Velocity: 38
Note OFF: Time 126600, Note Name: F#2
Note ON: Time 126600, Note Name: D#2, Velocity: 38
Note OFF: Time 126720, Note Name: D#2
Note ON: Time 126720, Note Name: C#2, Velocity: 39
Note ON: Time 126720, Note Name: C#3, Velocity: 46
Note OFF: Time 127200, Note Name: C#3
Note OFF: Time 127200, Note Name: C#2
Note ON: Time 127200, Note Name: F#1, Velocity: 40
Note ON: Time 127200, Note Name: F#2, Velocity: 48
Note OFF: Time 127680, Note Name: F#2
Note OFF: Time 127680, Note Name: F#1
Note ON: Time 127680, Note Name: C#2, Velocity: 27
Note ON: Time 127680, Note Name: C#3, Velocity: 32
Note OFF: Time 128400, Note Name: C#3
Note OFF: Time 128400, Note Name: C#2
Note ON: Time 128400, Note Name: A3, Velocity: 36
Note OFF: Time 128640, Note Name: A3
Note ON: Time 128640, Note Name: G#3, Velocity: 37
Note OFF: Time 129240, Note Name: G#3
Note ON: Time 129240, Note Name: F#3, Velocity: 37
Note OFF: Time 129360, Note Name: F#3
Note ON: Time 129360, Note Name: D#3, Velocity: 37
Note OFF: Time 129480, Note Name: D#3
Note ON: Time 129480, Note Name: C3, Velocity: 37
Note OFF: Time 129600, Note Name: C3
Note ON: Time 129600, Note Name: G#2, Velocity: 40
Note OFF: Time 129720, Note Name: G#2
Note ON: Time 129720, Note Name: F2, Velocity: 37
Note OFF: Time 129840, Note Name: F2
Note ON: Time 129840, Note Name: D#2, Velocity: 37
Note OFF: Time 129960, Note Name: D#2
Note ON: Time 129960, Note Name: C#2, Velocity: 37
Note OFF: Time 130080, Note Name: C#2
Note ON: Time 130080, Note Name: C2, Velocity: 40
Note OFF: Time 130200, Note Name: C2
Note ON: Time 130200, Note Name: C#2, Velocity: 37
Note OFF: Time 130320, Note Name: C#2
Note ON: Time 130320, Note Name: F2, Velocity: 37
Note OFF: Time 130440, Note Name: F2
Note ON: Time 130440, Note Name: C#2, Velocity: 37
Note OFF: Time 130560, Note Name: C#2
Note ON: Time 130560, Note Name: F#2, Velocity: 40
Note ON: Time 130560, Note Name: G#2, Velocity: 40
Note OFF: Time 131040, Note Name: G#2
Note OFF: Time 131040, Note Name: F#2
Note ON: Time 131040, Note Name: D#2, Velocity: 35
Note ON: Time 131040, Note Name: G#2, Velocity: 35
Note OFF: Time 131460, Note Name: G#2
Note OFF: Time 131460, Note Name: D#2
Note ON: Time 131460, Note Name: F#2, Velocity: 35
Note ON: Time 131460, Note Name: G#2, Velocity: 35
Note OFF: Time 131520, Note Name: G#2
Note OFF: Time 131520, Note Name: F#2
Note ON: Time 131520, Note Name: F2, Velocity: 33
Note ON: Time 131520, Note Name: G#2, Velocity: 39
Note OFF: Time 131880, Note Name: G#2
Note OFF: Time 131880, Note Name: F2
Note ON: Time 131880, Note Name: C#4, Velocity: 46
Note OFF: Time 132000, Note Name: C#4
Note ON: Time 132000, Note Name: D#4, Velocity: 44
Note OFF: Time 132240, Note Name: D#4
Note ON: Time 132240, Note Name: C#4, Velocity: 34
Note OFF: Time 132480, Note Name: C#4
Note ON: Time 132480, Note Name: F#2, Velocity: 40
Note ON: Time 132480, Note Name: G#2, Velocity: 40
Note OFF: Time 132960, Note Name: G#2
Note OFF: Time 132960, Note Name: F#2
Note ON: Time 132960, Note Name: D#2, Velocity: 35
Note ON: Time 132960, Note Name: G#2, Velocity: 35
Note OFF: Time 133380, Note Name: G#2
Note OFF: Time 133380, Note Name: D#2
Note ON: Time 133380, Note Name: F#2, Velocity: 35
Note ON: Time 133380, Note Name: G#2, Velocity: 35
Note OFF: Time 133440, Note Name: G#2
Note OFF: Time 133440, Note Name: F#2
Note ON: Time 133440, Note Name: F2, Velocity: 33
Note ON: Time 133440, Note Name: G#2, Velocity: 39
Note OFF: Time 133800, Note Name: G#2
Note OFF: Time 133800, Note Name: F2
Note ON: Time 133800, Note Name: C#4, Velocity: 46
Note OFF: Time 133920, Note Name: C#4
Note ON: Time 133920, Note Name: C4, Velocity: 44
Note OFF: Time 134160, Note Name: C4
Note ON: Time 134160, Note Name: C#4, Velocity: 34
Note OFF: Time 134400, Note Name: C#4
Note ON: Time 134400, Note Name: F#2, Velocity: 56
Note ON: Time 134400, Note Name: G#2, Velocity: 56
Note OFF: Time 134880, Note Name: G#2
Note OFF: Time 134880, Note Name: F#2
Note ON: Time 134880, Note Name: D#2, Velocity: 57
Note ON: Time 134880, Note Name: G#2, Velocity: 57
Note OFF: Time 135300, Note Name: G#2
Note OFF: Time 135300, Note Name: D#2
Note ON: Time 135300, Note Name: F#2, Velocity: 62
Note ON: Time 135300, Note Name: G#2, Velocity: 62
Note OFF: Time 135360, Note Name: G#2
Note OFF: Time 135360, Note Name: F#2
Note ON: Time 135360, Note Name: F4, Velocity: 82
Note OFF: Time 135720, Note Name: F4
Note ON: Time 135720, Note Name: C#4, Velocity: 56
Note ON: Time 135720, Note Name: F4, Velocity: 63
Note OFF: Time 135840, Note Name: F4
Note OFF: Time 135840, Note Name: C#4
Note ON: Time 135840, Note Name: D#4, Velocity: 59
Note ON: Time 135840, Note Name: F#4, Velocity: 71
Note OFF: Time 136080, Note Name: F#4
Note OFF: Time 136080, Note Name: D#4
Note ON: Time 136080, Note Name: F4, Velocity: 47
Note ON: Time 136080, Note Name: G#4, Velocity: 53
Note OFF: Time 136200, Note Name: G#4
Note OFF: Time 136200, Note Name: F4
Note ON: Time 136200, Note Name: C#4, Velocity: 37
Note ON: Time 136200, Note Name: F4, Velocity: 50
Note OFF: Time 136320, Note Name: F4
Note OFF: Time 136320, Note Name: C#4
Note ON: Time 136320, Note Name: F#3, Velocity: 37
Note ON: Time 136320, Note Name: A#3, Velocity: 37
Note OFF: Time 136800, Note Name: A#3
Note OFF: Time 136800, Note Name: F#3
Note ON: Time 136800, Note Name: C4, Velocity: 34
Note ON: Time 136800, Note Name: G#3, Velocity: 34
Note OFF: Time 137280, Note Name: G#3
Note OFF: Time 137280, Note Name: C4
Note ON: Time 137280, Note Name: A#2, Velocity: 27
Note ON: Time 137340, Note Name: C#3, Velocity: 28
Note ON: Time 137400, Note Name: E3, Velocity: 30
Note ON: Time 137460, Note Name: G3, Velocity: 31
Note ON: Time 137520, Note Name: A#3, Velocity: 34
Note OFF: Time 138240, Note Name: A#3
Note OFF: Time 138240, Note Name: E3
Note OFF: Time 138240, Note Name: A#2
Note OFF: Time 138240, Note Name: C#3
Note OFF: Time 138240, Note Name: G3
Note ON: Time 138240, Note Name: A#3, Velocity: 74
Note ON: Time 138300, Note Name: C#4, Velocity: 79
Note ON: Time 138360, Note Name: E4, Velocity: 82
Note ON: Time 138420, Note Name: G4, Velocity: 86
Note ON: Time 138480, Note Name: A#4, Velocity: 90
Note OFF: Time 139200, Note Name: A#4
Note OFF: Time 139200, Note Name: E4
Note OFF: Time 139200, Note Name: A#3
Note OFF: Time 139200, Note Name: C#4
Note OFF: Time 139200, Note Name: G4
Track 3: Pedal
Track 4: Beethoven: Sonate Op. 57 (Appassionata) 2. Satz
Track 5: Copyright  2001 by Bernd Krger
Track 6: http://www.piano-midi.de
Track 7: Edition: 2012-07-25
Track 8: Spur 8
Track 9: Spur 9
Track 10: Spur 10
