Processing appass_3.mid...

Track 0: Sonate Nr. 23 Op. 57
Track 1: Piano right
Note ON: Time 0, Note Name: E4, Velocity: 89
Note ON: Time 0, Note Name: C#5, Velocity: 105
Note OFF: Time 713, Note Name: C#5
Note OFF: Time 713, Note Name: E4
Note ON: Time 720, Note Name: E4, Velocity: 82
Note ON: Time 720, Note Name: C#5, Velocity: 97
Note OFF: Time 958, Note Name: C#5
Note OFF: Time 958, Note Name: E4
Note ON: Time 960, Note Name: C#5, Velocity: 105
Note ON: Time 960, Note Name: E4, Velocity: 89
Note OFF: Time 1673, Note Name: E4
Note OFF: Time 1673, Note Name: C#5
Note ON: Time 1680, Note Name: E4, Velocity: 82
Note ON: Time 1680, Note Name: C#5, Velocity: 98
Note OFF: Time 1918, Note Name: C#5
Note OFF: Time 1918, Note Name: E4
Note ON: Time 1920, Note Name: E4, Velocity: 89
Note ON: Time 1920, Note Name: C#5, Velocity: 105
Note OFF: Time 2277, Note Name: C#5
Note OFF: Time 2277, Note Name: E4
Note ON: Time 2280, Note Name: C#5, Velocity: 97
Note ON: Time 2280, Note Name: E4, Velocity: 82
Note OFF: Time 2399, Note Name: E4
Note OFF: Time 2399, Note Name: C#5
Note ON: Time 2400, Note Name: E4, Velocity: 89
Note ON: Time 2400, Note Name: C#5, Velocity: 105
Note OFF: Time 2757, Note Name: C#5
Note OFF: Time 2757, Note Name: E4
Note ON: Time 2760, Note Name: E4, Velocity: 81
Note ON: Time 2760, Note Name: C#5, Velocity: 96
Note OFF: Time 2879, Note Name: C#5
Note OFF: Time 2879, Note Name: E4
Note ON: Time 2880, Note Name: C#5, Velocity: 105
Note ON: Time 2880, Note Name: E4, Velocity: 89
Note OFF: Time 3237, Note Name: E4
Note OFF: Time 3237, Note Name: C#5
Note ON: Time 3240, Note Name: E4, Velocity: 82
Note ON: Time 3240, Note Name: C#5, Velocity: 97
Note OFF: Time 3359, Note Name: C#5
Note OFF: Time 3359, Note Name: E4
Note ON: Time 3360, Note Name: C#5, Velocity: 105
Note ON: Time 3360, Note Name: E4, Velocity: 89
Note OFF: Time 3717, Note Name: E4
Note OFF: Time 3717, Note Name: C#5
Note ON: Time 3720, Note Name: E4, Velocity: 82
Note ON: Time 3720, Note Name: C#5, Velocity: 97
Note OFF: Time 3839, Note Name: C#5
Note OFF: Time 3839, Note Name: E4
Note ON: Time 3840, Note Name: E4, Velocity: 89
Note ON: Time 3840, Note Name: C#5, Velocity: 105
Note OFF: Time 4320, Note Name: C#5
Note OFF: Time 4320, Note Name: E4
Note ON: Time 4560, Note Name: C#6, Velocity: 50
Note OFF: Time 4680, Note Name: C#6
Note ON: Time 4680, Note Name: C6, Velocity: 50
Note OFF: Time 4800, Note Name: C6
Note ON: Time 4800, Note Name: A#5, Velocity: 54
Note OFF: Time 4920, Note Name: A#5
Note ON: Time 4920, Note Name: C6, Velocity: 50
Note OFF: Time 5040, Note Name: C6
Note ON: Time 5040, Note Name: A#5, Velocity: 50
Note OFF: Time 5160, Note Name: A#5
Note ON: Time 5160, Note Name: G#5, Velocity: 50
Note OFF: Time 5280, Note Name: G#5
Note ON: Time 5280, Note Name: G5, Velocity: 54
Note OFF: Time 5400, Note Name: G5
Note ON: Time 5400, Note Name: G#5, Velocity: 50
Note OFF: Time 5520, Note Name: G#5
Note ON: Time 5520, Note Name: G5, Velocity: 50
Note OFF: Time 5640, Note Name: G5
Note ON: Time 5640, Note Name: F5, Velocity: 50
Note OFF: Time 5760, Note Name: F5
Note ON: Time 5760, Note Name: E5, Velocity: 54
Note OFF: Time 6240, Note Name: E5
Note ON: Time 6480, Note Name: C#5, Velocity: 50
Note OFF: Time 6600, Note Name: C#5
Note ON: Time 6600, Note Name: C5, Velocity: 50
Note OFF: Time 6720, Note Name: C5
Note ON: Time 6720, Note Name: A#4, Velocity: 53
Note OFF: Time 6840, Note Name: A#4
Note ON: Time 6840, Note Name: C5, Velocity: 50
Note OFF: Time 6960, Note Name: C5
Note ON: Time 6960, Note Name: A#4, Velocity: 50
Note OFF: Time 7080, Note Name: A#4
Note ON: Time 7080, Note Name: G#4, Velocity: 50
Note OFF: Time 7200, Note Name: G#4
Note ON: Time 7200, Note Name: G4, Velocity: 53
Note OFF: Time 7320, Note Name: G4
Note ON: Time 7320, Note Name: G#4, Velocity: 50
Note OFF: Time 7440, Note Name: G#4
Note ON: Time 7440, Note Name: G4, Velocity: 50
Note OFF: Time 7560, Note Name: G4
Note ON: Time 7560, Note Name: F4, Velocity: 50
Note OFF: Time 7680, Note Name: F4
Note ON: Time 7680, Note Name: E4, Velocity: 52
Note OFF: Time 8160, Note Name: E4
Note ON: Time 8400, Note Name: C#5, Velocity: 50
Note OFF: Time 8520, Note Name: C#5
Note ON: Time 8520, Note Name: C5, Velocity: 50
Note OFF: Time 8640, Note Name: C5
Note ON: Time 8640, Note Name: A#4, Velocity: 51
Note OFF: Time 8760, Note Name: A#4
Note ON: Time 8760, Note Name: C5, Velocity: 51
Note OFF: Time 8880, Note Name: C5
Note ON: Time 8880, Note Name: A#4, Velocity: 52
Note OFF: Time 9000, Note Name: A#4
Note ON: Time 9000, Note Name: G#4, Velocity: 52
Note OFF: Time 9120, Note Name: G#4
Note ON: Time 9120, Note Name: G4, Velocity: 53
Note OFF: Time 9240, Note Name: G4
Note ON: Time 9240, Note Name: G#4, Velocity: 54
Note OFF: Time 9360, Note Name: G#4
Note ON: Time 9360, Note Name: G4, Velocity: 54
Note OFF: Time 9480, Note Name: G4
Note ON: Time 9480, Note Name: F4, Velocity: 55
Note OFF: Time 9600, Note Name: F4
Note ON: Time 9600, Note Name: E4, Velocity: 55
Note OFF: Time 9720, Note Name: E4
Note ON: Time 9720, Note Name: F4, Velocity: 56
Note OFF: Time 9840, Note Name: F4
Note ON: Time 9840, Note Name: E4, Velocity: 57
Note OFF: Time 9960, Note Name: E4
Note ON: Time 9960, Note Name: C#4, Velocity: 57
Note OFF: Time 10080, Note Name: C#4
Note ON: Time 10080, Note Name: C4, Velocity: 58
Note OFF: Time 10200, Note Name: C4
Note ON: Time 10200, Note Name: C#4, Velocity: 61
Note OFF: Time 10320, Note Name: C#4
Note ON: Time 10320, Note Name: C4, Velocity: 62
Note OFF: Time 10440, Note Name: C4
Note ON: Time 10440, Note Name: B3, Velocity: 63
Note OFF: Time 10560, Note Name: B3
Note ON: Time 10560, Note Name: A#3, Velocity: 64
Note OFF: Time 10680, Note Name: A#3
Note ON: Time 10680, Note Name: C4, Velocity: 65
Note OFF: Time 10800, Note Name: C4
Note ON: Time 10800, Note Name: A#3, Velocity: 66
Note OFF: Time 10920, Note Name: A#3
Note ON: Time 10920, Note Name: G#3, Velocity: 67
Note OFF: Time 11040, Note Name: G#3
Note ON: Time 11040, Note Name: G3, Velocity: 68
Note OFF: Time 11160, Note Name: G3
Note ON: Time 11160, Note Name: G#3, Velocity: 69
Note OFF: Time 11280, Note Name: G#3
Note ON: Time 11280, Note Name: G3, Velocity: 70
Note OFF: Time 11400, Note Name: G3
Note ON: Time 11400, Note Name: F3, Velocity: 71
Note OFF: Time 11520, Note Name: F3
Note ON: Time 11520, Note Name: E3, Velocity: 73
Note OFF: Time 11640, Note Name: E3
Note ON: Time 11640, Note Name: F3, Velocity: 71
Note OFF: Time 11760, Note Name: F3
Note ON: Time 11760, Note Name: E3, Velocity: 72
Note OFF: Time 11880, Note Name: E3
Note ON: Time 11880, Note Name: C#3, Velocity: 71
Note OFF: Time 12000, Note Name: C#3
Note ON: Time 12000, Note Name: C3, Velocity: 75
Note ON: Time 12120, Note Name: C#3, Velocity: 75
Note OFF: Time 12130, Note Name: C3
Note ON: Time 12240, Note Name: C3, Velocity: 75
Note OFF: Time 12250, Note Name: C#3
Note ON: Time 12360, Note Name: B2, Velocity: 75
Note OFF: Time 12370, Note Name: C3
Note ON: Time 12480, Note Name: C3, Velocity: 75
Note OFF: Time 12490, Note Name: B2
Note ON: Time 12600, Note Name: C#3, Velocity: 75
Note OFF: Time 12610, Note Name: C3
Note ON: Time 12720, Note Name: C3, Velocity: 75
Note OFF: Time 12730, Note Name: C#3
Note ON: Time 12840, Note Name: B2, Velocity: 75
Note OFF: Time 12850, Note Name: C3
Note ON: Time 12960, Note Name: C3, Velocity: 75
Note OFF: Time 12970, Note Name: B2
Note ON: Time 13080, Note Name: C#3, Velocity: 75
Note OFF: Time 13090, Note Name: C3
Note ON: Time 13200, Note Name: C3, Velocity: 75
Note OFF: Time 13210, Note Name: C#3
Note ON: Time 13320, Note Name: B2, Velocity: 75
Note OFF: Time 13330, Note Name: C3
Note ON: Time 13440, Note Name: C3, Velocity: 75
Note OFF: Time 13450, Note Name: B2
Note ON: Time 13560, Note Name: C#3, Velocity: 75
Note OFF: Time 13570, Note Name: C3
Note ON: Time 13680, Note Name: C3, Velocity: 75
Note OFF: Time 13690, Note Name: C#3
Note ON: Time 13800, Note Name: B2, Velocity: 75
Note OFF: Time 13810, Note Name: C3
Note ON: Time 13920, Note Name: C3, Velocity: 75
Note OFF: Time 13930, Note Name: B2
Note ON: Time 14040, Note Name: C#3, Velocity: 75
Note OFF: Time 14050, Note Name: C3
Note ON: Time 14160, Note Name: C3, Velocity: 75
Note OFF: Time 14170, Note Name: C#3
Note ON: Time 14280, Note Name: B2, Velocity: 75
Note OFF: Time 14290, Note Name: C3
Note ON: Time 14400, Note Name: A#2, Velocity: 74
Note OFF: Time 14410, Note Name: B2
Note ON: Time 14520, Note Name: C3, Velocity: 74
Note OFF: Time 14530, Note Name: A#2
Note ON: Time 14640, Note Name: A#2, Velocity: 74
Note OFF: Time 14650, Note Name: C3
Note ON: Time 14760, Note Name: A2, Velocity: 74
Note OFF: Time 14770, Note Name: A#2
Note ON: Time 14880, Note Name: A#2, Velocity: 74
Note OFF: Time 14890, Note Name: A2
Note ON: Time 15000, Note Name: C3, Velocity: 74
Note OFF: Time 15010, Note Name: A#2
Note ON: Time 15120, Note Name: A#2, Velocity: 74
Note OFF: Time 15130, Note Name: C3
Note ON: Time 15240, Note Name: A2, Velocity: 74
Note OFF: Time 15250, Note Name: A#2
Note ON: Time 15360, Note Name: A#2, Velocity: 74
Note OFF: Time 15370, Note Name: A2
Note ON: Time 15480, Note Name: C3, Velocity: 74
Note OFF: Time 15490, Note Name: A#2
Note ON: Time 15600, Note Name: A#2, Velocity: 74
Note OFF: Time 15610, Note Name: C3
Note ON: Time 15720, Note Name: A2, Velocity: 74
Note OFF: Time 15730, Note Name: A#2
Note ON: Time 15840, Note Name: A#2, Velocity: 73
Note OFF: Time 15850, Note Name: A2
Note ON: Time 15960, Note Name: C3, Velocity: 73
Note OFF: Time 15970, Note Name: A#2
Note ON: Time 16080, Note Name: A#2, Velocity: 73
Note OFF: Time 16090, Note Name: C3
Note ON: Time 16200, Note Name: A2, Velocity: 73
Note OFF: Time 16210, Note Name: A#2
Note ON: Time 16320, Note Name: A#2, Velocity: 74
Note OFF: Time 16330, Note Name: A2
Note ON: Time 16440, Note Name: C3, Velocity: 72
Note OFF: Time 16450, Note Name: A#2
Note ON: Time 16560, Note Name: A#2, Velocity: 70
Note OFF: Time 16570, Note Name: C3
Note ON: Time 16680, Note Name: A2, Velocity: 68
Note OFF: Time 16690, Note Name: A#2
Note ON: Time 16800, Note Name: A#2, Velocity: 67
Note OFF: Time 16810, Note Name: A2
Note ON: Time 16920, Note Name: C3, Velocity: 65
Note OFF: Time 16930, Note Name: A#2
Note ON: Time 17040, Note Name: A#2, Velocity: 63
Note OFF: Time 17050, Note Name: C3
Note ON: Time 17160, Note Name: A2, Velocity: 61
Note OFF: Time 17170, Note Name: A#2
Note ON: Time 17280, Note Name: A#2, Velocity: 60
Note OFF: Time 17290, Note Name: A2
Note ON: Time 17400, Note Name: G2, Velocity: 58
Note OFF: Time 17410, Note Name: A#2
Note ON: Time 17520, Note Name: G#2, Velocity: 56
Note OFF: Time 17530, Note Name: G2
Note ON: Time 17640, Note Name: A#2, Velocity: 54
Note OFF: Time 17650, Note Name: G#2
Note ON: Time 17760, Note Name: C3, Velocity: 53
Note OFF: Time 17770, Note Name: A#2
Note ON: Time 17880, Note Name: A#2, Velocity: 51
Note OFF: Time 17890, Note Name: C3
Note ON: Time 18000, Note Name: G#2, Velocity: 49
Note OFF: Time 18010, Note Name: A#2
Note ON: Time 18120, Note Name: G2, Velocity: 47
Note OFF: Time 18130, Note Name: G#2
Note OFF: Time 18250, Note Name: G2
Note ON: Time 18360, Note Name: C3, Velocity: 40
Note OFF: Time 18480, Note Name: C3
Note ON: Time 18480, Note Name: F3, Velocity: 37
Note OFF: Time 18600, Note Name: F3
Note ON: Time 18600, Note Name: G#3, Velocity: 37
Note OFF: Time 18720, Note Name: G#3
Note ON: Time 18720, Note Name: C4, Velocity: 40
Note OFF: Time 18840, Note Name: C4
Note ON: Time 18840, Note Name: C#4, Velocity: 38
Note OFF: Time 18960, Note Name: C#4
Note ON: Time 18960, Note Name: C4, Velocity: 38
Note OFF: Time 19080, Note Name: C4
Note ON: Time 19080, Note Name: A#3, Velocity: 38
Note OFF: Time 19200, Note Name: A#3
Note ON: Time 19200, Note Name: G#3, Velocity: 40
Note OFF: Time 19320, Note Name: G#3
Note ON: Time 19320, Note Name: A#3, Velocity: 37
Note OFF: Time 19440, Note Name: A#3
Note ON: Time 19440, Note Name: G#3, Velocity: 37
Note OFF: Time 19560, Note Name: G#3
Note ON: Time 19560, Note Name: G3, Velocity: 37
Note OFF: Time 19680, Note Name: G3
Note ON: Time 19680, Note Name: F3, Velocity: 40
Note OFF: Time 19800, Note Name: F3
Note ON: Time 19800, Note Name: G3, Velocity: 37
Note OFF: Time 19920, Note Name: G3
Note ON: Time 19920, Note Name: G#3, Velocity: 37
Note OFF: Time 20040, Note Name: G#3
Note ON: Time 20040, Note Name: F3, Velocity: 37
Note OFF: Time 20160, Note Name: F3
Note ON: Time 20280, Note Name: C3, Velocity: 40
Note OFF: Time 20400, Note Name: C3
Note ON: Time 20400, Note Name: F3, Velocity: 37
Note OFF: Time 20520, Note Name: F3
Note ON: Time 20520, Note Name: G#3, Velocity: 37
Note OFF: Time 20640, Note Name: G#3
Note ON: Time 20640, Note Name: C4, Velocity: 40
Note OFF: Time 20760, Note Name: C4
Note ON: Time 20760, Note Name: C#4, Velocity: 38
Note OFF: Time 20880, Note Name: C#4
Note ON: Time 20880, Note Name: C4, Velocity: 38
Note OFF: Time 21000, Note Name: C4
Note ON: Time 21000, Note Name: A#3, Velocity: 38
Note OFF: Time 21120, Note Name: A#3
Note ON: Time 21120, Note Name: G#3, Velocity: 40
Note OFF: Time 21240, Note Name: G#3
Note ON: Time 21240, Note Name: A#3, Velocity: 37
Note OFF: Time 21360, Note Name: A#3
Note ON: Time 21360, Note Name: G#3, Velocity: 37
Note OFF: Time 21480, Note Name: G#3
Note ON: Time 21480, Note Name: G3, Velocity: 37
Note OFF: Time 21600, Note Name: G3
Note ON: Time 21600, Note Name: F3, Velocity: 40
Note OFF: Time 21720, Note Name: F3
Note ON: Time 21720, Note Name: G3, Velocity: 37
Note OFF: Time 21840, Note Name: G3
Note ON: Time 21840, Note Name: G#3, Velocity: 37
Note OFF: Time 21960, Note Name: G#3
Note ON: Time 21960, Note Name: F3, Velocity: 37
Note OFF: Time 22080, Note Name: F3
Note ON: Time 22200, Note Name: C#3, Velocity: 44
Note OFF: Time 22320, Note Name: C#3
Note ON: Time 22320, Note Name: F#3, Velocity: 40
Note OFF: Time 22440, Note Name: F#3
Note ON: Time 22440, Note Name: A#3, Velocity: 40
Note OFF: Time 22560, Note Name: A#3
Note ON: Time 22560, Note Name: C#4, Velocity: 44
Note OFF: Time 22680, Note Name: C#4
Note ON: Time 22680, Note Name: D#4, Velocity: 41
Note OFF: Time 22800, Note Name: D#4
Note ON: Time 22800, Note Name: C#4, Velocity: 41
Note OFF: Time 22920, Note Name: C#4
Note ON: Time 22920, Note Name: C4, Velocity: 41
Note OFF: Time 23040, Note Name: C4
Note ON: Time 23040, Note Name: A#3, Velocity: 44
Note OFF: Time 23160, Note Name: A#3
Note ON: Time 23160, Note Name: C4, Velocity: 40
Note OFF: Time 23280, Note Name: C4
Note ON: Time 23280, Note Name: A#3, Velocity: 40
Note OFF: Time 23400, Note Name: A#3
Note ON: Time 23400, Note Name: G#3, Velocity: 40
Note OFF: Time 23520, Note Name: G#3
Note ON: Time 23520, Note Name: F#3, Velocity: 44
Note OFF: Time 23640, Note Name: F#3
Note ON: Time 23640, Note Name: G#3, Velocity: 40
Note OFF: Time 23760, Note Name: G#3
Note ON: Time 23760, Note Name: F#3, Velocity: 40
Note OFF: Time 23880, Note Name: F#3
Note ON: Time 23880, Note Name: F3, Velocity: 40
Note OFF: Time 24000, Note Name: F3
Note ON: Time 24000, Note Name: E3, Velocity: 44
Note OFF: Time 24120, Note Name: E3
Note ON: Time 24120, Note Name: F3, Velocity: 40
Note OFF: Time 24240, Note Name: F3
Note ON: Time 24240, Note Name: G3, Velocity: 40
Note OFF: Time 24360, Note Name: G3
Note ON: Time 24360, Note Name: E3, Velocity: 40
Note OFF: Time 24480, Note Name: E3
Note ON: Time 24480, Note Name: F3, Velocity: 44
Note OFF: Time 24600, Note Name: F3
Note ON: Time 24600, Note Name: G3, Velocity: 40
Note OFF: Time 24720, Note Name: G3
Note ON: Time 24720, Note Name: G#3, Velocity: 40
Note OFF: Time 24840, Note Name: G#3
Note ON: Time 24840, Note Name: F3, Velocity: 40
Note OFF: Time 24960, Note Name: F3
Note ON: Time 24960, Note Name: G3, Velocity: 44
Note OFF: Time 25080, Note Name: G3
Note ON: Time 25080, Note Name: G#3, Velocity: 40
Note OFF: Time 25200, Note Name: G#3
Note ON: Time 25200, Note Name: A#3, Velocity: 40
Note OFF: Time 25320, Note Name: A#3
Note ON: Time 25320, Note Name: G3, Velocity: 40
Note OFF: Time 25440, Note Name: G3
Note ON: Time 25440, Note Name: E3, Velocity: 44
Note OFF: Time 25560, Note Name: E3
Note ON: Time 25560, Note Name: F3, Velocity: 37
Note OFF: Time 25680, Note Name: F3
Note ON: Time 25680, Note Name: G3, Velocity: 38
Note OFF: Time 25800, Note Name: G3
Note ON: Time 25800, Note Name: E3, Velocity: 40
Note OFF: Time 25920, Note Name: E3
Note ON: Time 25920, Note Name: F3, Velocity: 44
Note OFF: Time 26040, Note Name: F3
Note ON: Time 26040, Note Name: C3, Velocity: 40
Note OFF: Time 26160, Note Name: C3
Note ON: Time 26160, Note Name: F3, Velocity: 37
Note OFF: Time 26280, Note Name: F3
Note ON: Time 26280, Note Name: G#3, Velocity: 37
Note OFF: Time 26400, Note Name: G#3
Note ON: Time 26400, Note Name: C4, Velocity: 40
Note OFF: Time 26520, Note Name: C4
Note ON: Time 26520, Note Name: C#4, Velocity: 38
Note OFF: Time 26640, Note Name: C#4
Note ON: Time 26640, Note Name: C4, Velocity: 38
Note OFF: Time 26760, Note Name: C4
Note ON: Time 26760, Note Name: A#3, Velocity: 38
Note OFF: Time 26880, Note Name: A#3
Note ON: Time 26880, Note Name: G#3, Velocity: 40
Note OFF: Time 27000, Note Name: G#3
Note ON: Time 27000, Note Name: A#3, Velocity: 37
Note OFF: Time 27120, Note Name: A#3
Note ON: Time 27120, Note Name: G#3, Velocity: 37
Note OFF: Time 27240, Note Name: G#3
Note ON: Time 27240, Note Name: G3, Velocity: 37
Note OFF: Time 27360, Note Name: G3
Note ON: Time 27360, Note Name: F3, Velocity: 40
Note OFF: Time 27480, Note Name: F3
Note ON: Time 27480, Note Name: G3, Velocity: 37
Note OFF: Time 27600, Note Name: G3
Note ON: Time 27600, Note Name: G#3, Velocity: 37
Note OFF: Time 27720, Note Name: G#3
Note ON: Time 27720, Note Name: F3, Velocity: 37
Note OFF: Time 27840, Note Name: F3
Note ON: Time 27960, Note Name: C3, Velocity: 40
Note OFF: Time 28080, Note Name: C3
Note ON: Time 28080, Note Name: F3, Velocity: 37
Note OFF: Time 28200, Note Name: F3
Note ON: Time 28200, Note Name: G#3, Velocity: 37
Note OFF: Time 28320, Note Name: G#3
Note ON: Time 28320, Note Name: C4, Velocity: 40
Note OFF: Time 28440, Note Name: C4
Note ON: Time 28440, Note Name: C#4, Velocity: 38
Note OFF: Time 28560, Note Name: C#4
Note ON: Time 28560, Note Name: C4, Velocity: 38
Note OFF: Time 28680, Note Name: C4
Note ON: Time 28680, Note Name: A#3, Velocity: 38
Note OFF: Time 28800, Note Name: A#3
Note ON: Time 28800, Note Name: G#3, Velocity: 40
Note OFF: Time 28920, Note Name: G#3
Note ON: Time 28920, Note Name: A#3, Velocity: 37
Note OFF: Time 29040, Note Name: A#3
Note ON: Time 29040, Note Name: G#3, Velocity: 37
Note OFF: Time 29160, Note Name: G#3
Note ON: Time 29160, Note Name: G3, Velocity: 37
Note OFF: Time 29280, Note Name: G3
Note ON: Time 29280, Note Name: F3, Velocity: 40
Note OFF: Time 29400, Note Name: F3
Note ON: Time 29400, Note Name: G3, Velocity: 37
Note OFF: Time 29520, Note Name: G3
Note ON: Time 29520, Note Name: G#3, Velocity: 37
Note OFF: Time 29640, Note Name: G#3
Note ON: Time 29640, Note Name: F3, Velocity: 37
Note OFF: Time 29760, Note Name: F3
Note ON: Time 29880, Note Name: C#3, Velocity: 44
Note OFF: Time 30000, Note Name: C#3
Note ON: Time 30000, Note Name: F#3, Velocity: 40
Note OFF: Time 30120, Note Name: F#3
Note ON: Time 30120, Note Name: A#3, Velocity: 40
Note OFF: Time 30240, Note Name: A#3
Note ON: Time 30240, Note Name: C#4, Velocity: 44
Note OFF: Time 30360, Note Name: C#4
Note ON: Time 30360, Note Name: D#4, Velocity: 41
Note OFF: Time 30480, Note Name: D#4
Note ON: Time 30480, Note Name: C#4, Velocity: 41
Note OFF: Time 30600, Note Name: C#4
Note ON: Time 30600, Note Name: C4, Velocity: 41
Note OFF: Time 30720, Note Name: C4
Note ON: Time 30720, Note Name: A#3, Velocity: 44
Note OFF: Time 30840, Note Name: A#3
Note ON: Time 30840, Note Name: C4, Velocity: 40
Note OFF: Time 30960, Note Name: C4
Note ON: Time 30960, Note Name: A#3, Velocity: 40
Note OFF: Time 31080, Note Name: A#3
Note ON: Time 31080, Note Name: G#3, Velocity: 40
Note OFF: Time 31200, Note Name: G#3
Note ON: Time 31200, Note Name: F#3, Velocity: 44
Note OFF: Time 31320, Note Name: F#3
Note ON: Time 31320, Note Name: G#3, Velocity: 40
Note OFF: Time 31440, Note Name: G#3
Note ON: Time 31440, Note Name: F#3, Velocity: 40
Note OFF: Time 31560, Note Name: F#3
Note ON: Time 31560, Note Name: F3, Velocity: 40
Note OFF: Time 31680, Note Name: F3
Note ON: Time 31680, Note Name: E3, Velocity: 44
Note OFF: Time 31800, Note Name: E3
Note ON: Time 31800, Note Name: F3, Velocity: 40
Note OFF: Time 31920, Note Name: F3
Note ON: Time 31920, Note Name: G3, Velocity: 40
Note OFF: Time 32040, Note Name: G3
Note ON: Time 32040, Note Name: E3, Velocity: 40
Note OFF: Time 32160, Note Name: E3
Note ON: Time 32160, Note Name: F3, Velocity: 44
Note OFF: Time 32280, Note Name: F3
Note ON: Time 32280, Note Name: G3, Velocity: 40
Note OFF: Time 32400, Note Name: G3
Note ON: Time 32400, Note Name: G#3, Velocity: 40
Note OFF: Time 32520, Note Name: G#3
Note ON: Time 32520, Note Name: F3, Velocity: 40
Note OFF: Time 32640, Note Name: F3
Note ON: Time 32640, Note Name: G3, Velocity: 44
Note OFF: Time 32760, Note Name: G3
Note ON: Time 32760, Note Name: G#3, Velocity: 40
Note OFF: Time 32880, Note Name: G#3
Note ON: Time 32880, Note Name: A#3, Velocity: 40
Note OFF: Time 33000, Note Name: A#3
Note ON: Time 33000, Note Name: G3, Velocity: 40
Note OFF: Time 33120, Note Name: G3
Note ON: Time 33120, Note Name: E3, Velocity: 44
Note OFF: Time 33240, Note Name: E3
Note ON: Time 33240, Note Name: F3, Velocity: 37
Note OFF: Time 33360, Note Name: F3
Note ON: Time 33360, Note Name: G3, Velocity: 38
Note OFF: Time 33480, Note Name: G3
Note ON: Time 33480, Note Name: E3, Velocity: 40
Note OFF: Time 33600, Note Name: E3
Note ON: Time 33600, Note Name: F3, Velocity: 37
Note OFF: Time 33720, Note Name: F3
Note ON: Time 33720, Note Name: C4, Velocity: 38
Note OFF: Time 33840, Note Name: C4
Note ON: Time 33840, Note Name: F4, Velocity: 40
Note OFF: Time 33960, Note Name: F4
Note ON: Time 33960, Note Name: G#4, Velocity: 42
Note OFF: Time 34080, Note Name: G#4
Note ON: Time 34080, Note Name: C5, Velocity: 43
Note OFF: Time 34200, Note Name: C5
Note ON: Time 34200, Note Name: C4, Velocity: 45
Note OFF: Time 34320, Note Name: C4
Note ON: Time 34320, Note Name: F4, Velocity: 46
Note OFF: Time 34440, Note Name: F4
Note ON: Time 34440, Note Name: G#4, Velocity: 48
Note OFF: Time 34560, Note Name: G#4
Note ON: Time 34680, Note Name: C4, Velocity: 46
Note OFF: Time 34800, Note Name: C4
Note ON: Time 34800, Note Name: F4, Velocity: 47
Note OFF: Time 34920, Note Name: F4
Note ON: Time 34920, Note Name: G#4, Velocity: 49
Note OFF: Time 35040, Note Name: G#4
Note ON: Time 35040, Note Name: C5, Velocity: 50
Note OFF: Time 35160, Note Name: C5
Note ON: Time 35160, Note Name: C4, Velocity: 52
Note OFF: Time 35280, Note Name: C4
Note ON: Time 35280, Note Name: F4, Velocity: 53
Note OFF: Time 35400, Note Name: F4
Note ON: Time 35400, Note Name: G#4, Velocity: 38
Note OFF: Time 35520, Note Name: G#4
Note ON: Time 35640, Note Name: B3, Velocity: 51
Note OFF: Time 35760, Note Name: B3
Note ON: Time 35760, Note Name: D4, Velocity: 52
Note OFF: Time 35880, Note Name: D4
Note ON: Time 35880, Note Name: G#4, Velocity: 52
Note OFF: Time 36000, Note Name: G#4
Note ON: Time 36000, Note Name: B4, Velocity: 54
Note ON: Time 36120, Note Name: B3, Velocity: 52
Note OFF: Time 36240, Note Name: B3
Note ON: Time 36240, Note Name: D4, Velocity: 52
Note OFF: Time 36360, Note Name: D4
Note ON: Time 36360, Note Name: G#4, Velocity: 52
Note OFF: Time 36480, Note Name: G#4
Note OFF: Time 36480, Note Name: B4
Note ON: Time 36480, Note Name: B4, Velocity: 54
Note ON: Time 36600, Note Name: B3, Velocity: 52
Note OFF: Time 36720, Note Name: B3
Note ON: Time 36720, Note Name: E4, Velocity: 50
Note OFF: Time 36840, Note Name: E4
Note ON: Time 36840, Note Name: G4, Velocity: 49
Note OFF: Time 36960, Note Name: G4
Note OFF: Time 36960, Note Name: B4
Note ON: Time 36960, Note Name: C5, Velocity: 52
Note ON: Time 37080, Note Name: C4, Velocity: 46
Note OFF: Time 37200, Note Name: C4
Note ON: Time 37200, Note Name: E4, Velocity: 44
Note OFF: Time 37320, Note Name: E4
Note ON: Time 37320, Note Name: G4, Velocity: 38
Note OFF: Time 37440, Note Name: G4
Note OFF: Time 37440, Note Name: C5
Note ON: Time 37560, Note Name: C4, Velocity: 38
Note OFF: Time 37680, Note Name: C4
Note ON: Time 37680, Note Name: E4, Velocity: 40
Note OFF: Time 37800, Note Name: E4
Note ON: Time 37800, Note Name: G4, Velocity: 42
Note OFF: Time 37920, Note Name: G4
Note ON: Time 37920, Note Name: C5, Velocity: 43
Note OFF: Time 38040, Note Name: C5
Note ON: Time 38040, Note Name: C4, Velocity: 45
Note OFF: Time 38160, Note Name: C4
Note ON: Time 38160, Note Name: E4, Velocity: 46
Note OFF: Time 38280, Note Name: E4
Note ON: Time 38280, Note Name: G4, Velocity: 48
Note OFF: Time 38400, Note Name: G4
Note ON: Time 38520, Note Name: C4, Velocity: 46
Note OFF: Time 38640, Note Name: C4
Note ON: Time 38640, Note Name: E4, Velocity: 47
Note OFF: Time 38760, Note Name: E4
Note ON: Time 38760, Note Name: G4, Velocity: 49
Note OFF: Time 38880, Note Name: G4
Note ON: Time 38880, Note Name: C5, Velocity: 50
Note OFF: Time 39000, Note Name: C5
Note ON: Time 39000, Note Name: C4, Velocity: 52
Note OFF: Time 39120, Note Name: C4
Note ON: Time 39120, Note Name: E4, Velocity: 53
Note OFF: Time 39240, Note Name: E4
Note ON: Time 39240, Note Name: G4, Velocity: 38
Note OFF: Time 39360, Note Name: G4
Note ON: Time 39480, Note Name: C4, Velocity: 51
Note OFF: Time 39600, Note Name: C4
Note ON: Time 39600, Note Name: E4, Velocity: 52
Note OFF: Time 39720, Note Name: E4
Note ON: Time 39720, Note Name: G4, Velocity: 52
Note OFF: Time 39840, Note Name: G4
Note ON: Time 39840, Note Name: C5, Velocity: 54
Note ON: Time 39960, Note Name: C4, Velocity: 52
Note OFF: Time 40080, Note Name: C4
Note ON: Time 40080, Note Name: E4, Velocity: 52
Note OFF: Time 40200, Note Name: E4
Note ON: Time 40200, Note Name: G4, Velocity: 52
Note OFF: Time 40320, Note Name: G4
Note OFF: Time 40320, Note Name: C5
Note ON: Time 40320, Note Name: C5, Velocity: 53
Note ON: Time 40440, Note Name: C4, Velocity: 52
Note OFF: Time 40560, Note Name: C4
Note ON: Time 40560, Note Name: E4, Velocity: 50
Note OFF: Time 40680, Note Name: E4
Note ON: Time 40680, Note Name: G4, Velocity: 49
Note OFF: Time 40800, Note Name: G4
Note OFF: Time 40800, Note Name: C5
Note ON: Time 40800, Note Name: C5, Velocity: 47
Note ON: Time 40920, Note Name: C4, Velocity: 46
Note OFF: Time 41040, Note Name: C4
Note ON: Time 41040, Note Name: F4, Velocity: 44
Note OFF: Time 41160, Note Name: F4
Note ON: Time 41160, Note Name: G#4, Velocity: 38
Note OFF: Time 41280, Note Name: G#4
Note OFF: Time 41280, Note Name: C5
Note ON: Time 41400, Note Name: F4, Velocity: 38
Note OFF: Time 41520, Note Name: F4
Note ON: Time 41520, Note Name: A4, Velocity: 40
Note OFF: Time 41640, Note Name: A4
Note ON: Time 41640, Note Name: C5, Velocity: 42
Note OFF: Time 41760, Note Name: C5
Note ON: Time 41760, Note Name: F5, Velocity: 43
Note OFF: Time 41880, Note Name: F5
Note ON: Time 41880, Note Name: F4, Velocity: 45
Note OFF: Time 42000, Note Name: F4
Note ON: Time 42000, Note Name: A4, Velocity: 46
Note OFF: Time 42120, Note Name: A4
Note ON: Time 42120, Note Name: C5, Velocity: 48
Note OFF: Time 42240, Note Name: C5
Note ON: Time 42360, Note Name: F4, Velocity: 46
Note OFF: Time 42480, Note Name: F4
Note ON: Time 42480, Note Name: A4, Velocity: 47
Note OFF: Time 42600, Note Name: A4
Note ON: Time 42600, Note Name: C5, Velocity: 49
Note OFF: Time 42720, Note Name: C5
Note ON: Time 42720, Note Name: F5, Velocity: 50
Note OFF: Time 42840, Note Name: F5
Note ON: Time 42840, Note Name: F4, Velocity: 52
Note OFF: Time 42960, Note Name: F4
Note ON: Time 42960, Note Name: A4, Velocity: 53
Note OFF: Time 43080, Note Name: A4
Note ON: Time 43080, Note Name: C5, Velocity: 54
Note OFF: Time 43200, Note Name: C5
Note ON: Time 43320, Note Name: F4, Velocity: 50
Note OFF: Time 43440, Note Name: F4
Note ON: Time 43440, Note Name: A4, Velocity: 50
Note OFF: Time 43560, Note Name: A4
Note ON: Time 43560, Note Name: C5, Velocity: 50
Note OFF: Time 43680, Note Name: C5
Note ON: Time 43680, Note Name: F5, Velocity: 55
Note ON: Time 43800, Note Name: F4, Velocity: 53
Note OFF: Time 43920, Note Name: F4
Note ON: Time 43920, Note Name: A4, Velocity: 52
Note OFF: Time 44040, Note Name: A4
Note ON: Time 44040, Note Name: C5, Velocity: 52
Note OFF: Time 44160, Note Name: C5
Note OFF: Time 44160, Note Name: F5
Note ON: Time 44160, Note Name: F4, Velocity: 54
Note ON: Time 44160, Note Name: A4, Velocity: 54
Note OFF: Time 44280, Note Name: A4
Note OFF: Time 44280, Note Name: F4
Note ON: Time 44280, Note Name: F5, Velocity: 54
Note OFF: Time 44400, Note Name: F5
Note ON: Time 44400, Note Name: A#4, Velocity: 53
Note ON: Time 44400, Note Name: F4, Velocity: 53
Note OFF: Time 44520, Note Name: F4
Note OFF: Time 44520, Note Name: A#4
Note ON: Time 44520, Note Name: F5, Velocity: 52
Note OFF: Time 44640, Note Name: F5
Note ON: Time 44640, Note Name: C5, Velocity: 52
Note ON: Time 44640, Note Name: F4, Velocity: 52
Note OFF: Time 44760, Note Name: F4
Note OFF: Time 44760, Note Name: C5
Note ON: Time 44760, Note Name: F5, Velocity: 51
Note OFF: Time 44880, Note Name: F5
Note ON: Time 44880, Note Name: F4, Velocity: 50
Note ON: Time 44880, Note Name: C#5, Velocity: 50
Note OFF: Time 45000, Note Name: C#5
Note OFF: Time 45000, Note Name: F4
Note ON: Time 45000, Note Name: F5, Velocity: 50
Note OFF: Time 45120, Note Name: F5
Note ON: Time 45240, Note Name: C4, Velocity: 52
Note OFF: Time 45360, Note Name: C4
Note ON: Time 45360, Note Name: F4, Velocity: 49
Note OFF: Time 45480, Note Name: F4
Note ON: Time 45480, Note Name: G#4, Velocity: 50
Note OFF: Time 45600, Note Name: G#4
Note ON: Time 45600, Note Name: C5, Velocity: 56
Note ON: Time 45720, Note Name: C4, Velocity: 50
Note OFF: Time 45840, Note Name: C4
Note ON: Time 45840, Note Name: F4, Velocity: 50
Note OFF: Time 45960, Note Name: F4
Note ON: Time 45960, Note Name: G#4, Velocity: 50
Note OFF: Time 46080, Note Name: G#4
Note OFF: Time 46080, Note Name: C5
Note ON: Time 46080, Note Name: C5, Velocity: 56
Note ON: Time 46200, Note Name: C4, Velocity: 52
Note OFF: Time 46320, Note Name: C4
Note ON: Time 46320, Note Name: G4, Velocity: 52
Note OFF: Time 46440, Note Name: G4
Note ON: Time 46440, Note Name: A#4, Velocity: 52
Note OFF: Time 46560, Note Name: A#4
Note OFF: Time 46560, Note Name: C5
Note ON: Time 46560, Note Name: C5, Velocity: 56
Note ON: Time 46680, Note Name: C4, Velocity: 52
Note OFF: Time 46800, Note Name: C4
Note ON: Time 46800, Note Name: E4, Velocity: 52
Note OFF: Time 46920, Note Name: E4
Note ON: Time 46920, Note Name: G4, Velocity: 52
Note OFF: Time 47040, Note Name: G4
Note OFF: Time 47040, Note Name: C5
Note ON: Time 47040, Note Name: C4, Velocity: 59
Note ON: Time 47040, Note Name: C5, Velocity: 59
Note ON: Time 47040, Note Name: F4, Velocity: 59
Note ON: Time 47040, Note Name: G#4, Velocity: 59
Note OFF: Time 47520, Note Name: G#4
Note OFF: Time 47520, Note Name: C4
Note OFF: Time 47520, Note Name: C5
Note OFF: Time 47520, Note Name: F4
Note ON: Time 47880, Note Name: G#5, Velocity: 69
Note ON: Time 47880, Note Name: F5, Velocity: 69
Note OFF: Time 48000, Note Name: F5
Note OFF: Time 48000, Note Name: G#5
Note ON: Time 48000, Note Name: G#5, Velocity: 74
Note ON: Time 48000, Note Name: F5, Velocity: 74
Note OFF: Time 48480, Note Name: F5
Note OFF: Time 48480, Note Name: G#5
Note ON: Time 48840, Note Name: F5, Velocity: 70
Note ON: Time 48840, Note Name: G#5, Velocity: 70
Note OFF: Time 48960, Note Name: G#5
Note OFF: Time 48960, Note Name: F5
Note ON: Time 48960, Note Name: F5, Velocity: 75
Note ON: Time 48960, Note Name: G#5, Velocity: 75
Note OFF: Time 49920, Note Name: G#5
Note OFF: Time 49920, Note Name: F5
Note ON: Time 49920, Note Name: E5, Velocity: 68
Note ON: Time 49920, Note Name: G5, Velocity: 68
Note OFF: Time 50160, Note Name: G5
Note OFF: Time 50160, Note Name: E5
Note ON: Time 51720, Note Name: A#5, Velocity: 69
Note ON: Time 51720, Note Name: G5, Velocity: 69
Note OFF: Time 51840, Note Name: G5
Note OFF: Time 51840, Note Name: A#5
Note ON: Time 51840, Note Name: A#5, Velocity: 74
Note ON: Time 51840, Note Name: G5, Velocity: 74
Note OFF: Time 52320, Note Name: G5
Note OFF: Time 52320, Note Name: A#5
Note ON: Time 52680, Note Name: G5, Velocity: 70
Note ON: Time 52680, Note Name: A#5, Velocity: 70
Note OFF: Time 52800, Note Name: A#5
Note OFF: Time 52800, Note Name: G5
Note ON: Time 52800, Note Name: A#5, Velocity: 75
Note ON: Time 52800, Note Name: G5, Velocity: 75
Note OFF: Time 53760, Note Name: G5
Note OFF: Time 53760, Note Name: A#5
Note ON: Time 53760, Note Name: G#5, Velocity: 68
Note ON: Time 53760, Note Name: F5, Velocity: 68
Note OFF: Time 54000, Note Name: F5
Note OFF: Time 54000, Note Name: G#5
Note ON: Time 55560, Note Name: C6, Velocity: 82
Note ON: Time 55560, Note Name: D#6, Velocity: 82
Note OFF: Time 55680, Note Name: D#6
Note OFF: Time 55680, Note Name: C6
Note ON: Time 55680, Note Name: D#6, Velocity: 89
Note ON: Time 55680, Note Name: C6, Velocity: 89
Note OFF: Time 56160, Note Name: C6
Note OFF: Time 56160, Note Name: D#6
Note ON: Time 56520, Note Name: C6, Velocity: 84
Note ON: Time 56520, Note Name: D#6, Velocity: 84
Note OFF: Time 56640, Note Name: D#6
Note OFF: Time 56640, Note Name: C6
Note ON: Time 56640, Note Name: D#6, Velocity: 90
Note ON: Time 56640, Note Name: C6, Velocity: 90
Note OFF: Time 57840, Note Name: C6
Note OFF: Time 57840, Note Name: D#6
Note ON: Time 57840, Note Name: C#6, Velocity: 79
Note ON: Time 57840, Note Name: A#5, Velocity: 79
Note OFF: Time 58080, Note Name: A#5
Note OFF: Time 58080, Note Name: C#6
Note ON: Time 58080, Note Name: G#5, Velocity: 77
Note ON: Time 58080, Note Name: C6, Velocity: 77
Note OFF: Time 58320, Note Name: C6
Note OFF: Time 58320, Note Name: G#5
Note ON: Time 58320, Note Name: G5, Velocity: 73
Note ON: Time 58320, Note Name: A#5, Velocity: 73
Note OFF: Time 58560, Note Name: A#5
Note OFF: Time 58560, Note Name: G5
Note ON: Time 58560, Note Name: F5, Velocity: 82
Note ON: Time 58560, Note Name: G#5, Velocity: 82
Note OFF: Time 59040, Note Name: G#5
Note OFF: Time 59040, Note Name: F5
Note ON: Time 59400, Note Name: F5, Velocity: 79
Note ON: Time 59400, Note Name: F6, Velocity: 79
Note ON: Time 59400, Note Name: G#5, Velocity: 79
Note OFF: Time 59520, Note Name: G#5
Note OFF: Time 59520, Note Name: F6
Note OFF: Time 59520, Note Name: F5
Note ON: Time 59520, Note Name: G5, Velocity: 82
Note ON: Time 59520, Note Name: G6, Velocity: 82
Note ON: Time 59520, Note Name: A#5, Velocity: 82
Note OFF: Time 60000, Note Name: A#5
Note OFF: Time 60000, Note Name: G6
Note OFF: Time 60000, Note Name: G5
Note ON: Time 60360, Note Name: E5, Velocity: 79
Note ON: Time 60360, Note Name: E6, Velocity: 79
Note ON: Time 60360, Note Name: G5, Velocity: 79
Note OFF: Time 60480, Note Name: G5
Note OFF: Time 60480, Note Name: E6
Note OFF: Time 60480, Note Name: E5
Note ON: Time 60480, Note Name: F5, Velocity: 73
Note ON: Time 60480, Note Name: F6, Velocity: 73
Note ON: Time 60480, Note Name: G#5, Velocity: 73
Note OFF: Time 60600, Note Name: G#5
Note OFF: Time 60600, Note Name: F6
Note OFF: Time 60600, Note Name: F5
Note ON: Time 60600, Note Name: C5, Velocity: 61
Note OFF: Time 60720, Note Name: C5
Note ON: Time 60720, Note Name: F5, Velocity: 62
Note OFF: Time 60840, Note Name: F5
Note ON: Time 60840, Note Name: G#5, Velocity: 63
Note OFF: Time 60960, Note Name: G#5
Note ON: Time 60960, Note Name: C6, Velocity: 68
Note OFF: Time 61080, Note Name: C6
Note ON: Time 61080, Note Name: C#6, Velocity: 65
Note OFF: Time 61200, Note Name: C#6
Note ON: Time 61200, Note Name: C6, Velocity: 66
Note OFF: Time 61320, Note Name: C6
Note ON: Time 61320, Note Name: A#5, Velocity: 65
Note OFF: Time 61440, Note Name: A#5
Note ON: Time 61440, Note Name: G#5, Velocity: 68
Note OFF: Time 61560, Note Name: G#5
Note ON: Time 61560, Note Name: A#5, Velocity: 67
Note OFF: Time 61680, Note Name: A#5
Note ON: Time 61680, Note Name: G#5, Velocity: 66
Note OFF: Time 61800, Note Name: G#5
Note ON: Time 61800, Note Name: G5, Velocity: 65
Note OFF: Time 61920, Note Name: G5
Note ON: Time 61920, Note Name: F5, Velocity: 64
Note OFF: Time 62040, Note Name: F5
Note ON: Time 62040, Note Name: G5, Velocity: 63
Note OFF: Time 62160, Note Name: G5
Note ON: Time 62160, Note Name: G#5, Velocity: 63
Note OFF: Time 62280, Note Name: G#5
Note ON: Time 62280, Note Name: F5, Velocity: 62
Note OFF: Time 62400, Note Name: F5
Note ON: Time 62520, Note Name: C5, Velocity: 61
Note OFF: Time 62640, Note Name: C5
Note ON: Time 62640, Note Name: F5, Velocity: 62
Note OFF: Time 62760, Note Name: F5
Note ON: Time 62760, Note Name: G#5, Velocity: 63
Note OFF: Time 62880, Note Name: G#5
Note ON: Time 62880, Note Name: C6, Velocity: 68
Note OFF: Time 63000, Note Name: C6
Note ON: Time 63000, Note Name: C#6, Velocity: 65
Note OFF: Time 63120, Note Name: C#6
Note ON: Time 63120, Note Name: C6, Velocity: 66
Note OFF: Time 63240, Note Name: C6
Note ON: Time 63240, Note Name: A#5, Velocity: 65
Note OFF: Time 63360, Note Name: A#5
Note ON: Time 63360, Note Name: G#5, Velocity: 68
Note OFF: Time 63480, Note Name: G#5
Note ON: Time 63480, Note Name: A#5, Velocity: 67
Note OFF: Time 63600, Note Name: A#5
Note ON: Time 63600, Note Name: G#5, Velocity: 66
Note OFF: Time 63720, Note Name: G#5
Note ON: Time 63720, Note Name: G5, Velocity: 65
Note OFF: Time 63840, Note Name: G5
Note ON: Time 63840, Note Name: F5, Velocity: 64
Note OFF: Time 63960, Note Name: F5
Note ON: Time 63960, Note Name: G5, Velocity: 63
Note OFF: Time 64080, Note Name: G5
Note ON: Time 64080, Note Name: G#5, Velocity: 63
Note OFF: Time 64200, Note Name: G#5
Note ON: Time 64200, Note Name: F5, Velocity: 62
Note OFF: Time 64320, Note Name: F5
Note ON: Time 64440, Note Name: F5, Velocity: 64
Note OFF: Time 64560, Note Name: F5
Note ON: Time 64560, Note Name: B5, Velocity: 65
Note OFF: Time 64680, Note Name: B5
Note ON: Time 64680, Note Name: D6, Velocity: 66
Note OFF: Time 64800, Note Name: D6
Note ON: Time 64800, Note Name: F6, Velocity: 72
Note OFF: Time 64920, Note Name: F6
Note ON: Time 64920, Note Name: G6, Velocity: 69
Note OFF: Time 65040, Note Name: G6
Note ON: Time 65040, Note Name: F6, Velocity: 70
Note OFF: Time 65160, Note Name: F6
Note ON: Time 65160, Note Name: D#6, Velocity: 69
Note OFF: Time 65280, Note Name: D#6
Note ON: Time 65280, Note Name: D6, Velocity: 72
Note OFF: Time 65400, Note Name: D6
Note ON: Time 65400, Note Name: D#6, Velocity: 71
Note OFF: Time 65520, Note Name: D#6
Note ON: Time 65520, Note Name: D6, Velocity: 70
Note OFF: Time 65640, Note Name: D6
Note ON: Time 65640, Note Name: C6, Velocity: 69
Note OFF: Time 65760, Note Name: C6
Note ON: Time 65760, Note Name: B5, Velocity: 68
Note OFF: Time 65880, Note Name: B5
Note ON: Time 65880, Note Name: C6, Velocity: 67
Note OFF: Time 66000, Note Name: C6
Note ON: Time 66000, Note Name: D6, Velocity: 66
Note OFF: Time 66120, Note Name: D6
Note ON: Time 66120, Note Name: B5, Velocity: 65
Note OFF: Time 66240, Note Name: B5
Note ON: Time 66360, Note Name: F5, Velocity: 64
Note OFF: Time 66480, Note Name: F5
Note ON: Time 66480, Note Name: B5, Velocity: 65
Note OFF: Time 66600, Note Name: B5
Note ON: Time 66600, Note Name: D6, Velocity: 66
Note OFF: Time 66720, Note Name: D6
Note ON: Time 66720, Note Name: F6, Velocity: 72
Note OFF: Time 66840, Note Name: F6
Note ON: Time 66840, Note Name: G6, Velocity: 69
Note OFF: Time 66960, Note Name: G6
Note ON: Time 66960, Note Name: F6, Velocity: 70
Note OFF: Time 67080, Note Name: F6
Note ON: Time 67080, Note Name: D#6, Velocity: 69
Note OFF: Time 67200, Note Name: D#6
Note ON: Time 67200, Note Name: D6, Velocity: 72
Note OFF: Time 67320, Note Name: D6
Note ON: Time 67320, Note Name: D#6, Velocity: 71
Note OFF: Time 67440, Note Name: D#6
Note ON: Time 67440, Note Name: D6, Velocity: 70
Note OFF: Time 67560, Note Name: D6
Note ON: Time 67560, Note Name: C6, Velocity: 69
Note OFF: Time 67680, Note Name: C6
Note ON: Time 67680, Note Name: B5, Velocity: 68
Note OFF: Time 67800, Note Name: B5
Note ON: Time 67800, Note Name: C6, Velocity: 67
Note OFF: Time 67920, Note Name: C6
Note ON: Time 67920, Note Name: D6, Velocity: 66
Note OFF: Time 68040, Note Name: D6
Note ON: Time 68040, Note Name: B5, Velocity: 65
Note OFF: Time 68160, Note Name: B5
Note ON: Time 68280, Note Name: G5, Velocity: 67
Note OFF: Time 68400, Note Name: G5
Note ON: Time 68400, Note Name: C6, Velocity: 68
Note OFF: Time 68520, Note Name: C6
Note ON: Time 68520, Note Name: D#6, Velocity: 69
Note OFF: Time 68640, Note Name: D#6
Note ON: Time 68640, Note Name: G6, Velocity: 75
Note OFF: Time 68760, Note Name: G6
Note ON: Time 68760, Note Name: G#6, Velocity: 72
Note OFF: Time 68880, Note Name: G#6
Note ON: Time 68880, Note Name: G6, Velocity: 73
Note OFF: Time 69000, Note Name: G6
Note ON: Time 69000, Note Name: F6, Velocity: 72
Note OFF: Time 69120, Note Name: F6
Note ON: Time 69120, Note Name: D#6, Velocity: 75
Note OFF: Time 69240, Note Name: D#6
Note ON: Time 69240, Note Name: F6, Velocity: 74
Note OFF: Time 69360, Note Name: F6
Note ON: Time 69360, Note Name: D#6, Velocity: 73
Note OFF: Time 69480, Note Name: D#6
Note ON: Time 69480, Note Name: D6, Velocity: 72
Note OFF: Time 69600, Note Name: D6
Note ON: Time 69600, Note Name: C6, Velocity: 71
Note OFF: Time 69720, Note Name: C6
Note ON: Time 69720, Note Name: D6, Velocity: 70
Note OFF: Time 69840, Note Name: D6
Note ON: Time 69840, Note Name: D#6, Velocity: 69
Note OFF: Time 69960, Note Name: D#6
Note ON: Time 69960, Note Name: C6, Velocity: 68
Note OFF: Time 70080, Note Name: C6
Note ON: Time 70200, Note Name: G5, Velocity: 67
Note OFF: Time 70320, Note Name: G5
Note ON: Time 70320, Note Name: C6, Velocity: 68
Note OFF: Time 70440, Note Name: C6
Note ON: Time 70440, Note Name: D#6, Velocity: 69
Note OFF: Time 70560, Note Name: D#6
Note ON: Time 70560, Note Name: G6, Velocity: 76
Note OFF: Time 70680, Note Name: G6
Note ON: Time 70680, Note Name: G#6, Velocity: 74
Note OFF: Time 70800, Note Name: G#6
Note ON: Time 70800, Note Name: G6, Velocity: 75
Note OFF: Time 70920, Note Name: G6
Note ON: Time 70920, Note Name: F6, Velocity: 74
Note OFF: Time 71040, Note Name: F6
Note ON: Time 71040, Note Name: D#6, Velocity: 78
Note OFF: Time 71160, Note Name: D#6
Note ON: Time 71160, Note Name: F6, Velocity: 77
Note OFF: Time 71280, Note Name: F6
Note ON: Time 71280, Note Name: D#6, Velocity: 77
Note OFF: Time 71400, Note Name: D#6
Note ON: Time 71400, Note Name: D6, Velocity: 76
Note OFF: Time 71520, Note Name: D6
Note ON: Time 71520, Note Name: C6, Velocity: 75
Note OFF: Time 71640, Note Name: C6
Note ON: Time 71640, Note Name: D6, Velocity: 75
Note OFF: Time 71760, Note Name: D6
Note ON: Time 71760, Note Name: D#6, Velocity: 74
Note OFF: Time 71880, Note Name: D#6
Note ON: Time 71880, Note Name: C6, Velocity: 74
Note OFF: Time 72000, Note Name: C6
Note ON: Time 72120, Note Name: C#6, Velocity: 70
Note OFF: Time 72240, Note Name: C#6
Note ON: Time 72240, Note Name: D#6, Velocity: 73
Note OFF: Time 72360, Note Name: D#6
Note ON: Time 72360, Note Name: C#6, Velocity: 70
Note OFF: Time 72480, Note Name: C#6
Note ON: Time 72480, Note Name: D#6, Velocity: 65
Note OFF: Time 72600, Note Name: D#6
Note ON: Time 72600, Note Name: C#6, Velocity: 63
Note OFF: Time 72720, Note Name: C#6
Note ON: Time 72720, Note Name: C6, Velocity: 59
Note OFF: Time 72840, Note Name: C6
Note ON: Time 72840, Note Name: C#6, Velocity: 59
Note OFF: Time 72960, Note Name: C#6
Note ON: Time 73080, Note Name: B5, Velocity: 58
Note OFF: Time 73200, Note Name: B5
Note ON: Time 73200, Note Name: C6, Velocity: 60
Note OFF: Time 73320, Note Name: C6
Note ON: Time 73320, Note Name: B5, Velocity: 57
Note OFF: Time 73440, Note Name: B5
Note ON: Time 73560, Note Name: C6, Velocity: 57
Note OFF: Time 73680, Note Name: C6
Note ON: Time 73680, Note Name: D6, Velocity: 60
Note OFF: Time 73800, Note Name: D6
Note ON: Time 73800, Note Name: C6, Velocity: 56
Note OFF: Time 73920, Note Name: C6
Note ON: Time 74040, Note Name: C#6, Velocity: 70
Note OFF: Time 74160, Note Name: C#6
Note ON: Time 74160, Note Name: D#6, Velocity: 73
Note OFF: Time 74280, Note Name: D#6
Note ON: Time 74280, Note Name: C#6, Velocity: 70
Note OFF: Time 74400, Note Name: C#6
Note ON: Time 74400, Note Name: D#6, Velocity: 65
Note OFF: Time 74520, Note Name: D#6
Note ON: Time 74520, Note Name: C#6, Velocity: 63
Note OFF: Time 74640, Note Name: C#6
Note ON: Time 74640, Note Name: C6, Velocity: 59
Note OFF: Time 74760, Note Name: C6
Note ON: Time 74760, Note Name: C#6, Velocity: 59
Note OFF: Time 74880, Note Name: C#6
Note ON: Time 75000, Note Name: B5, Velocity: 58
Note OFF: Time 75120, Note Name: B5
Note ON: Time 75120, Note Name: C6, Velocity: 60
Note OFF: Time 75240, Note Name: C6
Note ON: Time 75240, Note Name: B5, Velocity: 57
Note OFF: Time 75360, Note Name: B5
Note ON: Time 75480, Note Name: C6, Velocity: 57
Note OFF: Time 75600, Note Name: C6
Note ON: Time 75600, Note Name: D6, Velocity: 60
Note OFF: Time 75720, Note Name: D6
Note ON: Time 75720, Note Name: C6, Velocity: 56
Note OFF: Time 75840, Note Name: C6
Note ON: Time 75960, Note Name: C#6, Velocity: 70
Note OFF: Time 76080, Note Name: C#6
Note ON: Time 76080, Note Name: D#6, Velocity: 73
Note OFF: Time 76200, Note Name: D#6
Note ON: Time 76200, Note Name: C#6, Velocity: 70
Note OFF: Time 76320, Note Name: C#6
Note ON: Time 76320, Note Name: D#6, Velocity: 73
Note OFF: Time 76440, Note Name: D#6
Note ON: Time 76440, Note Name: C#6, Velocity: 70
Note OFF: Time 76560, Note Name: C#6
Note ON: Time 76560, Note Name: C6, Velocity: 59
Note OFF: Time 76680, Note Name: C6
Note ON: Time 76680, Note Name: D6, Velocity: 59
Note OFF: Time 76800, Note Name: D6
Note ON: Time 76920, Note Name: B5, Velocity: 58
Note OFF: Time 77040, Note Name: B5
Note ON: Time 77040, Note Name: C6, Velocity: 60
Note OFF: Time 77160, Note Name: C6
Note ON: Time 77160, Note Name: B5, Velocity: 58
Note OFF: Time 77280, Note Name: B5
Note ON: Time 77400, Note Name: G#5, Velocity: 58
Note OFF: Time 77520, Note Name: G#5
Note ON: Time 77520, Note Name: A#5, Velocity: 61
Note OFF: Time 77640, Note Name: A#5
Note ON: Time 77640, Note Name: G#5, Velocity: 57
Note OFF: Time 77760, Note Name: G#5
Note ON: Time 77880, Note Name: G5, Velocity: 60
Note OFF: Time 78000, Note Name: G5
Note ON: Time 78000, Note Name: G#5, Velocity: 62
Note OFF: Time 78120, Note Name: G#5
Note ON: Time 78120, Note Name: G5, Velocity: 60
Note OFF: Time 78240, Note Name: G5
Note ON: Time 78360, Note Name: F#5, Velocity: 61
Note OFF: Time 78480, Note Name: F#5
Note ON: Time 78480, Note Name: G5, Velocity: 65
Note OFF: Time 78600, Note Name: G5
Note ON: Time 78600, Note Name: F#5, Velocity: 62
Note OFF: Time 78720, Note Name: F#5
Note ON: Time 78840, Note Name: F5, Velocity: 65
Note OFF: Time 78960, Note Name: F5
Note ON: Time 78960, Note Name: G5, Velocity: 67
Note OFF: Time 79080, Note Name: G5
Note ON: Time 79080, Note Name: F5, Velocity: 64
Note OFF: Time 79200, Note Name: F5
Note ON: Time 79320, Note Name: D#5, Velocity: 66
Note OFF: Time 79440, Note Name: D#5
Note ON: Time 79440, Note Name: F5, Velocity: 69
Note OFF: Time 79560, Note Name: F5
Note ON: Time 79560, Note Name: D#5, Velocity: 67
Note OFF: Time 79680, Note Name: D#5
Note ON: Time 79800, Note Name: D#5, Velocity: 67
Note OFF: Time 79920, Note Name: D#5
Note ON: Time 79920, Note Name: F5, Velocity: 70
Note OFF: Time 80040, Note Name: F5
Note ON: Time 80040, Note Name: D#5, Velocity: 68
Note OFF: Time 80160, Note Name: D#5
Note ON: Time 80280, Note Name: D5, Velocity: 66
Note OFF: Time 80400, Note Name: D5
Note ON: Time 80400, Note Name: D#5, Velocity: 69
Note OFF: Time 80520, Note Name: D#5
Note ON: Time 80520, Note Name: D5, Velocity: 64
Note OFF: Time 80640, Note Name: D5
Note ON: Time 80760, Note Name: C5, Velocity: 64
Note OFF: Time 80880, Note Name: C5
Note ON: Time 80880, Note Name: D5, Velocity: 65
Note OFF: Time 81000, Note Name: D5
Note ON: Time 81000, Note Name: C5, Velocity: 62
Note OFF: Time 81120, Note Name: C5
Note ON: Time 81240, Note Name: B4, Velocity: 60
Note OFF: Time 81360, Note Name: B4
Note ON: Time 81360, Note Name: C5, Velocity: 62
Note OFF: Time 81480, Note Name: C5
Note ON: Time 81480, Note Name: B4, Velocity: 57
Note OFF: Time 81600, Note Name: B4
Note ON: Time 81720, Note Name: G#4, Velocity: 66
Note OFF: Time 81840, Note Name: G#4
Note ON: Time 81840, Note Name: G#5, Velocity: 73
Note OFF: Time 81960, Note Name: G#5
Note ON: Time 81960, Note Name: G#4, Velocity: 59
Note OFF: Time 82080, Note Name: G#4
Note ON: Time 82080, Note Name: G#5, Velocity: 71
Note OFF: Time 82200, Note Name: G#5
Note ON: Time 82200, Note Name: G#4, Velocity: 58
Note OFF: Time 82320, Note Name: G#4
Note ON: Time 82320, Note Name: G#5, Velocity: 63
Note OFF: Time 82440, Note Name: G#5
Note ON: Time 82440, Note Name: G#4, Velocity: 59
Note OFF: Time 82560, Note Name: G#4
Note ON: Time 82680, Note Name: G#4, Velocity: 60
Note OFF: Time 82800, Note Name: G#4
Note ON: Time 82800, Note Name: G#5, Velocity: 71
Note OFF: Time 82920, Note Name: G#5
Note ON: Time 82920, Note Name: G5, Velocity: 66
Note OFF: Time 83040, Note Name: G5
Note ON: Time 83040, Note Name: F5, Velocity: 68
Note OFF: Time 83160, Note Name: F5
Note ON: Time 83160, Note Name: D#5, Velocity: 66
Note OFF: Time 83280, Note Name: D#5
Note ON: Time 83280, Note Name: D5, Velocity: 65
Note OFF: Time 83400, Note Name: D5
Note ON: Time 83400, Note Name: C5, Velocity: 58
Note OFF: Time 83520, Note Name: C5
Note ON: Time 83640, Note Name: G#5, Velocity: 68
Note OFF: Time 83760, Note Name: G#5
Note ON: Time 83760, Note Name: G#6, Velocity: 75
Note OFF: Time 83880, Note Name: G#6
Note ON: Time 83880, Note Name: G#5, Velocity: 67
Note OFF: Time 84000, Note Name: G#5
Note ON: Time 84000, Note Name: G#6, Velocity: 74
Note OFF: Time 84120, Note Name: G#6
Note ON: Time 84120, Note Name: G#5, Velocity: 67
Note OFF: Time 84240, Note Name: G#5
Note ON: Time 84240, Note Name: G#6, Velocity: 69
Note OFF: Time 84360, Note Name: G#6
Note ON: Time 84360, Note Name: G#5, Velocity: 60
Note OFF: Time 84480, Note Name: G#5
Note ON: Time 84600, Note Name: G#5, Velocity: 61
Note OFF: Time 84720, Note Name: G#5
Note ON: Time 84720, Note Name: G#6, Velocity: 73
Note OFF: Time 84840, Note Name: G#6
Note ON: Time 84840, Note Name: G6, Velocity: 66
Note OFF: Time 84960, Note Name: G6
Note ON: Time 84960, Note Name: F6, Velocity: 70
Note OFF: Time 85080, Note Name: F6
Note ON: Time 85080, Note Name: D#6, Velocity: 68
Note OFF: Time 85200, Note Name: D#6
Note ON: Time 85200, Note Name: D6, Velocity: 67
Note OFF: Time 85320, Note Name: D6
Note ON: Time 85320, Note Name: C6, Velocity: 65
Note OFF: Time 85440, Note Name: C6
Note ON: Time 85560, Note Name: G#4, Velocity: 66
Note OFF: Time 85680, Note Name: G#4
Note ON: Time 85680, Note Name: G#5, Velocity: 73
Note OFF: Time 85800, Note Name: G#5
Note ON: Time 85800, Note Name: G#4, Velocity: 66
Note OFF: Time 85920, Note Name: G#4
Note ON: Time 85920, Note Name: G#5, Velocity: 73
Note OFF: Time 86040, Note Name: G#5
Note ON: Time 86040, Note Name: G#4, Velocity: 66
Note OFF: Time 86160, Note Name: G#4
Note ON: Time 86160, Note Name: G#5, Velocity: 68
Note OFF: Time 86280, Note Name: G#5
Note ON: Time 86280, Note Name: G#4, Velocity: 61
Note OFF: Time 86400, Note Name: G#4
Note ON: Time 86520, Note Name: G#5, Velocity: 68
Note OFF: Time 86640, Note Name: G#5
Note ON: Time 86640, Note Name: G#4, Velocity: 60
Note OFF: Time 86760, Note Name: G#4
Note ON: Time 86760, Note Name: G#5, Velocity: 68
Note OFF: Time 86880, Note Name: G#5
Note ON: Time 87000, Note Name: G#6, Velocity: 78
Note OFF: Time 87120, Note Name: G#6
Note ON: Time 87120, Note Name: G#5, Velocity: 69
Note OFF: Time 87240, Note Name: G#5
Note ON: Time 87240, Note Name: G#6, Velocity: 75
Note OFF: Time 87360, Note Name: G#6
Note ON: Time 87480, Note Name: G6, Velocity: 78
Note OFF: Time 87600, Note Name: G6
Note ON: Time 87600, Note Name: G5, Velocity: 71
Note OFF: Time 87720, Note Name: G5
Note ON: Time 87720, Note Name: G6, Velocity: 74
Note OFF: Time 87840, Note Name: G6
Note ON: Time 87960, Note Name: F#6, Velocity: 75
Note OFF: Time 88080, Note Name: F#6
Note ON: Time 88080, Note Name: F#5, Velocity: 71
Note OFF: Time 88200, Note Name: F#5
Note ON: Time 88200, Note Name: F#6, Velocity: 74
Note OFF: Time 88320, Note Name: F#6
Note ON: Time 88440, Note Name: F6, Velocity: 78
Note OFF: Time 88560, Note Name: F6
Note ON: Time 88560, Note Name: F5, Velocity: 69
Note OFF: Time 88680, Note Name: F5
Note ON: Time 88680, Note Name: F6, Velocity: 74
Note OFF: Time 88800, Note Name: F6
Note ON: Time 88920, Note Name: D#6, Velocity: 77
Note OFF: Time 89040, Note Name: D#6
Note ON: Time 89040, Note Name: G5, Velocity: 71
Note ON: Time 89040, Note Name: D#5, Velocity: 71
Note OFF: Time 89160, Note Name: D#5
Note OFF: Time 89160, Note Name: G5
Note ON: Time 89160, Note Name: D#6, Velocity: 75
Note OFF: Time 89280, Note Name: D#6
Note ON: Time 89400, Note Name: D#6, Velocity: 75
Note OFF: Time 89520, Note Name: D#6
Note ON: Time 89520, Note Name: A5, Velocity: 68
Note ON: Time 89520, Note Name: D#5, Velocity: 68
Note OFF: Time 89640, Note Name: D#5
Note OFF: Time 89640, Note Name: A5
Note ON: Time 89640, Note Name: D#6, Velocity: 75
Note OFF: Time 89760, Note Name: D#6
Note ON: Time 89880, Note Name: D6, Velocity: 73
Note OFF: Time 90000, Note Name: D6
Note ON: Time 90000, Note Name: A5, Velocity: 66
Note ON: Time 90000, Note Name: D5, Velocity: 66
Note OFF: Time 90120, Note Name: D5
Note OFF: Time 90120, Note Name: A5
Note ON: Time 90120, Note Name: D6, Velocity: 73
Note OFF: Time 90240, Note Name: D6
Note ON: Time 90360, Note Name: C6, Velocity: 71
Note OFF: Time 90480, Note Name: C6
Note ON: Time 90480, Note Name: D#5, Velocity: 66
Note ON: Time 90480, Note Name: C5, Velocity: 66
Note OFF: Time 90600, Note Name: C5
Note OFF: Time 90600, Note Name: D#5
Note ON: Time 90600, Note Name: C6, Velocity: 71
Note OFF: Time 90720, Note Name: C6
Note ON: Time 90840, Note Name: B5, Velocity: 69
Note OFF: Time 90960, Note Name: B5
Note ON: Time 90960, Note Name: B4, Velocity: 62
Note ON: Time 90960, Note Name: D5, Velocity: 62
Note OFF: Time 91080, Note Name: D5
Note OFF: Time 91080, Note Name: B4
Note ON: Time 91080, Note Name: B5, Velocity: 64
Note OFF: Time 91200, Note Name: B5
Note ON: Time 91200, Note Name: G5, Velocity: 65
Note ON: Time 91200, Note Name: C6, Velocity: 77
Note ON: Time 91200, Note Name: D#5, Velocity: 65
Note ON: Time 91200, Note Name: C5, Velocity: 65
Note OFF: Time 91320, Note Name: C5
Note OFF: Time 91320, Note Name: G5
Note OFF: Time 91320, Note Name: C6
Note OFF: Time 91320, Note Name: D#5
Note ON: Time 91320, Note Name: G4, Velocity: 74
Note OFF: Time 91440, Note Name: G4
Note ON: Time 91440, Note Name: C5, Velocity: 76
Note OFF: Time 91560, Note Name: C5
Note ON: Time 91560, Note Name: D#5, Velocity: 78
Note OFF: Time 91680, Note Name: D#5
Note ON: Time 91680, Note Name: G5, Velocity: 80
Note OFF: Time 91800, Note Name: G5
Note ON: Time 91800, Note Name: G#5, Velocity: 76
Note OFF: Time 91920, Note Name: G#5
Note ON: Time 91920, Note Name: G5, Velocity: 76
Note OFF: Time 92040, Note Name: G5
Note ON: Time 92040, Note Name: F5, Velocity: 76
Note OFF: Time 92160, Note Name: F5
Note ON: Time 92160, Note Name: D#5, Velocity: 77
Note OFF: Time 92280, Note Name: D#5
Note ON: Time 92280, Note Name: F5, Velocity: 71
Note OFF: Time 92400, Note Name: F5
Note ON: Time 92400, Note Name: D#5, Velocity: 72
Note OFF: Time 92520, Note Name: D#5
Note ON: Time 92520, Note Name: D5, Velocity: 72
Note OFF: Time 92640, Note Name: D5
Note ON: Time 92640, Note Name: C5, Velocity: 78
Note OFF: Time 92760, Note Name: C5
Note ON: Time 92760, Note Name: A#4, Velocity: 73
Note OFF: Time 92880, Note Name: A#4
Note ON: Time 92880, Note Name: G#4, Velocity: 73
Note OFF: Time 93000, Note Name: G#4
Note ON: Time 93000, Note Name: G4, Velocity: 72
Note OFF: Time 93120, Note Name: G4
Note ON: Time 93120, Note Name: F4, Velocity: 75
Note OFF: Time 93240, Note Name: F4
Note ON: Time 93240, Note Name: D#4, Velocity: 70
Note OFF: Time 93360, Note Name: D#4
Note ON: Time 93360, Note Name: D4, Velocity: 70
Note OFF: Time 93480, Note Name: D4
Note ON: Time 93480, Note Name: C4, Velocity: 70
Note OFF: Time 93600, Note Name: C4
Note ON: Time 93600, Note Name: B3, Velocity: 73
Note OFF: Time 93840, Note Name: B3
Note ON: Time 93840, Note Name: D4, Velocity: 69
Note ON: Time 93840, Note Name: G3, Velocity: 69
Note ON: Time 93840, Note Name: B3, Velocity: 69
Note ON: Time 93840, Note Name: G4, Velocity: 82
Note OFF: Time 94020, Note Name: G4
Note OFF: Time 94020, Note Name: D4
Note OFF: Time 94020, Note Name: G3
Note OFF: Time 94020, Note Name: B3
Note ON: Time 94080, Note Name: B3, Velocity: 61
Note ON: Time 94080, Note Name: F4, Velocity: 73
Note ON: Time 94080, Note Name: G3, Velocity: 61
Note ON: Time 94080, Note Name: G4, Velocity: 73
Note OFF: Time 94260, Note Name: G4
Note OFF: Time 94260, Note Name: B3
Note OFF: Time 94260, Note Name: F4
Note OFF: Time 94260, Note Name: G3
Note ON: Time 94320, Note Name: B3, Velocity: 60
Note ON: Time 94320, Note Name: G3, Velocity: 60
Note ON: Time 94320, Note Name: F4, Velocity: 71
Note ON: Time 94320, Note Name: G4, Velocity: 71
Note OFF: Time 94500, Note Name: G4
Note OFF: Time 94500, Note Name: B3
Note OFF: Time 94500, Note Name: G3
Note OFF: Time 94500, Note Name: F4
Note ON: Time 94560, Note Name: G3, Velocity: 61
Note ON: Time 94560, Note Name: G4, Velocity: 72
Note ON: Time 94560, Note Name: B3, Velocity: 61
Note ON: Time 94560, Note Name: F4, Velocity: 72
Note OFF: Time 94740, Note Name: F4
Note OFF: Time 94740, Note Name: G3
Note OFF: Time 94740, Note Name: G4
Note OFF: Time 94740, Note Name: B3
Note ON: Time 94800, Note Name: F4, Velocity: 72
Note ON: Time 94800, Note Name: G4, Velocity: 72
Note ON: Time 94800, Note Name: G3, Velocity: 61
Note ON: Time 94800, Note Name: B3, Velocity: 61
Note OFF: Time 94980, Note Name: B3
Note OFF: Time 94980, Note Name: F4
Note OFF: Time 94980, Note Name: G4
Note OFF: Time 94980, Note Name: G3
Note ON: Time 95040, Note Name: D#4, Velocity: 77
Note ON: Time 95040, Note Name: G3, Velocity: 77
Note ON: Time 95040, Note Name: C4, Velocity: 77
Note ON: Time 95040, Note Name: G4, Velocity: 77
Note OFF: Time 95160, Note Name: G4
Note OFF: Time 95160, Note Name: D#4
Note OFF: Time 95160, Note Name: G3
Note OFF: Time 95160, Note Name: C4
Note ON: Time 95160, Note Name: G5, Velocity: 74
Note OFF: Time 95280, Note Name: G5
Note ON: Time 95280, Note Name: C6, Velocity: 76
Note OFF: Time 95400, Note Name: C6
Note ON: Time 95400, Note Name: D#6, Velocity: 78
Note OFF: Time 95520, Note Name: D#6
Note ON: Time 95520, Note Name: G6, Velocity: 80
Note OFF: Time 95640, Note Name: G6
Note ON: Time 95640, Note Name: G#6, Velocity: 76
Note OFF: Time 95760, Note Name: G#6
Note ON: Time 95760, Note Name: G6, Velocity: 76
Note OFF: Time 95880, Note Name: G6
Note ON: Time 95880, Note Name: F6, Velocity: 76
Note OFF: Time 96000, Note Name: F6
Note ON: Time 96000, Note Name: D#6, Velocity: 77
Note OFF: Time 96120, Note Name: D#6
Note ON: Time 96120, Note Name: F6, Velocity: 71
Note OFF: Time 96240, Note Name: F6
Note ON: Time 96240, Note Name: D#6, Velocity: 72
Note OFF: Time 96360, Note Name: D#6
Note ON: Time 96360, Note Name: D6, Velocity: 72
Note OFF: Time 96480, Note Name: D6
Note ON: Time 96480, Note Name: C6, Velocity: 78
Note OFF: Time 96600, Note Name: C6
Note ON: Time 96600, Note Name: A#5, Velocity: 73
Note OFF: Time 96720, Note Name: A#5
Note ON: Time 96720, Note Name: G#5, Velocity: 73
Note OFF: Time 96840, Note Name: G#5
Note ON: Time 96840, Note Name: G5, Velocity: 72
Note OFF: Time 96960, Note Name: G5
Note ON: Time 96960, Note Name: F5, Velocity: 75
Note OFF: Time 97080, Note Name: F5
Note ON: Time 97080, Note Name: D#5, Velocity: 70
Note OFF: Time 97200, Note Name: D#5
Note ON: Time 97200, Note Name: D5, Velocity: 70
Note OFF: Time 97320, Note Name: D5
Note ON: Time 97320, Note Name: C5, Velocity: 70
Note OFF: Time 97440, Note Name: C5
Note ON: Time 97440, Note Name: B4, Velocity: 73
Note OFF: Time 97680, Note Name: B4
Note ON: Time 97680, Note Name: B4, Velocity: 69
Note ON: Time 97680, Note Name: G5, Velocity: 82
Note ON: Time 97680, Note Name: D5, Velocity: 69
Note ON: Time 97680, Note Name: G4, Velocity: 58
Note OFF: Time 97860, Note Name: G4
Note OFF: Time 97860, Note Name: B4
Note OFF: Time 97860, Note Name: G5
Note OFF: Time 97860, Note Name: D5
Note ON: Time 97920, Note Name: G4, Velocity: 51
Note ON: Time 97920, Note Name: G5, Velocity: 73
Note ON: Time 97920, Note Name: B4, Velocity: 61
Note ON: Time 97920, Note Name: F5, Velocity: 73
Note OFF: Time 98100, Note Name: F5
Note OFF: Time 98100, Note Name: G4
Note OFF: Time 98100, Note Name: G5
Note OFF: Time 98100, Note Name: B4
Note ON: Time 98160, Note Name: F5, Velocity: 70
Note ON: Time 98160, Note Name: G4, Velocity: 50
Note ON: Time 98160, Note Name: B4, Velocity: 59
Note ON: Time 98160, Note Name: G5, Velocity: 70
Note OFF: Time 98340, Note Name: G5
Note OFF: Time 98340, Note Name: F5
Note OFF: Time 98340, Note Name: G4
Note OFF: Time 98340, Note Name: B4
Note ON: Time 98400, Note Name: B4, Velocity: 61
Note ON: Time 98400, Note Name: F5, Velocity: 73
Note ON: Time 98400, Note Name: G4, Velocity: 51
Note ON: Time 98400, Note Name: G5, Velocity: 73
Note OFF: Time 98580, Note Name: G5
Note OFF: Time 98580, Note Name: B4
Note OFF: Time 98580, Note Name: F5
Note OFF: Time 98580, Note Name: G4
Note ON: Time 98640, Note Name: B4, Velocity: 60
Note ON: Time 98640, Note Name: G4, Velocity: 51
Note ON: Time 98640, Note Name: F5, Velocity: 71
Note ON: Time 98640, Note Name: G5, Velocity: 71
Note OFF: Time 98820, Note Name: G5
Note OFF: Time 98820, Note Name: B4
Note OFF: Time 98820, Note Name: G4
Note OFF: Time 98820, Note Name: F5
Note ON: Time 98880, Note Name: G4, Velocity: 51
Note ON: Time 98880, Note Name: G5, Velocity: 73
Note ON: Time 98880, Note Name: C5, Velocity: 61
Note ON: Time 98880, Note Name: D#5, Velocity: 73
Note OFF: Time 99120, Note Name: D#5
Note OFF: Time 99120, Note Name: G4
Note OFF: Time 99120, Note Name: G5
Note OFF: Time 99120, Note Name: C5
Note ON: Time 99600, Note Name: D#6, Velocity: 69
Note ON: Time 99600, Note Name: G6, Velocity: 82
Note ON: Time 99600, Note Name: G5, Velocity: 58
Note ON: Time 99600, Note Name: C6, Velocity: 69
Note OFF: Time 99780, Note Name: C6
Note OFF: Time 99780, Note Name: D#6
Note OFF: Time 99780, Note Name: G6
Note OFF: Time 99780, Note Name: G5
Note ON: Time 99840, Note Name: F6, Velocity: 73
Note ON: Time 99840, Note Name: G5, Velocity: 51
Note ON: Time 99840, Note Name: B5, Velocity: 61
Note ON: Time 99840, Note Name: G6, Velocity: 73
Note OFF: Time 100020, Note Name: G6
Note OFF: Time 100020, Note Name: F6
Note OFF: Time 100020, Note Name: G5
Note OFF: Time 100020, Note Name: B5
Note ON: Time 100080, Note Name: B5, Velocity: 59
Note ON: Time 100080, Note Name: G6, Velocity: 70
Note ON: Time 100080, Note Name: F6, Velocity: 70
Note ON: Time 100080, Note Name: G5, Velocity: 50
Note OFF: Time 100260, Note Name: G5
Note OFF: Time 100260, Note Name: B5
Note OFF: Time 100260, Note Name: G6
Note OFF: Time 100260, Note Name: F6
Note ON: Time 100320, Note Name: G5, Velocity: 51
Note ON: Time 100320, Note Name: G6, Velocity: 73
Note ON: Time 100320, Note Name: F6, Velocity: 73
Note ON: Time 100320, Note Name: B5, Velocity: 61
Note OFF: Time 100500, Note Name: B5
Note OFF: Time 100500, Note Name: G5
Note OFF: Time 100500, Note Name: G6
Note OFF: Time 100500, Note Name: F6
Note ON: Time 100560, Note Name: B5, Velocity: 60
Note ON: Time 100560, Note Name: G6, Velocity: 71
Note ON: Time 100560, Note Name: F6, Velocity: 71
Note ON: Time 100560, Note Name: G5, Velocity: 51
Note OFF: Time 100740, Note Name: G5
Note OFF: Time 100740, Note Name: B5
Note OFF: Time 100740, Note Name: G6
Note OFF: Time 100740, Note Name: F6
Note ON: Time 100800, Note Name: G5, Velocity: 51
Note ON: Time 100800, Note Name: G6, Velocity: 73
Note ON: Time 100800, Note Name: C6, Velocity: 61
Note ON: Time 100800, Note Name: D#6, Velocity: 73
Note OFF: Time 100980, Note Name: D#6
Note OFF: Time 100980, Note Name: G5
Note OFF: Time 100980, Note Name: G6
Note OFF: Time 100980, Note Name: C6
Note ON: Time 101520, Note Name: D#5, Velocity: 69
Note ON: Time 101520, Note Name: G4, Velocity: 58
Note ON: Time 101520, Note Name: C5, Velocity: 69
Note ON: Time 101520, Note Name: G5, Velocity: 82
Note OFF: Time 101700, Note Name: G5
Note OFF: Time 101700, Note Name: D#5
Note OFF: Time 101700, Note Name: G4
Note OFF: Time 101700, Note Name: C5
Note ON: Time 101760, Note Name: B4, Velocity: 61
Note ON: Time 101760, Note Name: F5, Velocity: 73
Note ON: Time 101760, Note Name: G4, Velocity: 51
Note ON: Time 101760, Note Name: G5, Velocity: 73
Note OFF: Time 101940, Note Name: G5
Note OFF: Time 101940, Note Name: B4
Note OFF: Time 101940, Note Name: F5
Note OFF: Time 101940, Note Name: G4
Note ON: Time 102000, Note Name: B4, Velocity: 59
Note ON: Time 102000, Note Name: G4, Velocity: 50
Note ON: Time 102000, Note Name: F5, Velocity: 70
Note ON: Time 102000, Note Name: G5, Velocity: 70
Note OFF: Time 102180, Note Name: G5
Note OFF: Time 102180, Note Name: B4
Note OFF: Time 102180, Note Name: G4
Note OFF: Time 102180, Note Name: F5
Note ON: Time 102240, Note Name: G4, Velocity: 51
Note ON: Time 102240, Note Name: G5, Velocity: 73
Note ON: Time 102240, Note Name: B4, Velocity: 61
Note ON: Time 102240, Note Name: F5, Velocity: 73
Note OFF: Time 102420, Note Name: F5
Note OFF: Time 102420, Note Name: G4
Note OFF: Time 102420, Note Name: G5
Note OFF: Time 102420, Note Name: B4
Note ON: Time 102480, Note Name: F5, Velocity: 71
Note ON: Time 102480, Note Name: G5, Velocity: 71
Note ON: Time 102480, Note Name: G4, Velocity: 51
Note ON: Time 102480, Note Name: B4, Velocity: 60
Note OFF: Time 102660, Note Name: B4
Note OFF: Time 102660, Note Name: F5
Note OFF: Time 102660, Note Name: G5
Note OFF: Time 102660, Note Name: G4
Note ON: Time 102720, Note Name: D#5, Velocity: 61
Note ON: Time 102720, Note Name: G4, Velocity: 51
Note ON: Time 102720, Note Name: C5, Velocity: 61
Note ON: Time 102720, Note Name: G5, Velocity: 73
Note OFF: Time 102900, Note Name: G5
Note OFF: Time 102900, Note Name: D#5
Note OFF: Time 102900, Note Name: G4
Note OFF: Time 102900, Note Name: C5
Note ON: Time 103440, Note Name: D#5, Velocity: 69
Note ON: Time 103440, Note Name: C6, Velocity: 82
Note ON: Time 103440, Note Name: G5, Velocity: 69
Note ON: Time 103440, Note Name: C5, Velocity: 58
Note OFF: Time 103620, Note Name: C5
Note OFF: Time 103620, Note Name: D#5
Note OFF: Time 103620, Note Name: C6
Note OFF: Time 103620, Note Name: G5
Note ON: Time 103680, Note Name: C5, Velocity: 51
Note ON: Time 103680, Note Name: C6, Velocity: 73
Note ON: Time 103680, Note Name: E5, Velocity: 61
Note ON: Time 103680, Note Name: G5, Velocity: 61
Note OFF: Time 103860, Note Name: G5
Note OFF: Time 103860, Note Name: C5
Note OFF: Time 103860, Note Name: C6
Note OFF: Time 103860, Note Name: E5
Note ON: Time 103920, Note Name: C5, Velocity: 50
Note ON: Time 103920, Note Name: C6, Velocity: 70
Note ON: Time 103920, Note Name: E5, Velocity: 59
Note ON: Time 103920, Note Name: G5, Velocity: 59
Note OFF: Time 104100, Note Name: G5
Note OFF: Time 104100, Note Name: C5
Note OFF: Time 104100, Note Name: C6
Note OFF: Time 104100, Note Name: E5
Note ON: Time 104160, Note Name: G5, Velocity: 61
Note ON: Time 104160, Note Name: C6, Velocity: 73
Note ON: Time 104160, Note Name: E5, Velocity: 61
Note ON: Time 104160, Note Name: C5, Velocity: 51
Note OFF: Time 104340, Note Name: C5
Note OFF: Time 104340, Note Name: G5
Note OFF: Time 104340, Note Name: C6
Note OFF: Time 104340, Note Name: E5
Note ON: Time 104400, Note Name: E5, Velocity: 60
Note ON: Time 104400, Note Name: C5, Velocity: 51
Note ON: Time 104400, Note Name: C6, Velocity: 71
Note ON: Time 104400, Note Name: G5, Velocity: 60
Note OFF: Time 104580, Note Name: G5
Note OFF: Time 104580, Note Name: E5
Note OFF: Time 104580, Note Name: C5
Note OFF: Time 104580, Note Name: C6
Note ON: Time 104640, Note Name: F5, Velocity: 61
Note ON: Time 104640, Note Name: C6, Velocity: 73
Note ON: Time 104640, Note Name: G#5, Velocity: 61
Note ON: Time 104640, Note Name: C5, Velocity: 51
Note OFF: Time 104820, Note Name: C5
Note OFF: Time 104820, Note Name: F5
Note OFF: Time 104820, Note Name: C6
Note OFF: Time 104820, Note Name: G#5
Note ON: Time 105360, Note Name: C4, Velocity: 58
Note ON: Time 105360, Note Name: C5, Velocity: 82
Note ON: Time 105360, Note Name: F4, Velocity: 69
Note ON: Time 105360, Note Name: G#4, Velocity: 69
Note OFF: Time 105600, Note Name: G#4
Note OFF: Time 105600, Note Name: C4
Note OFF: Time 105600, Note Name: C5
Note OFF: Time 105600, Note Name: F4
Note ON: Time 105600, Note Name: A#4, Velocity: 73
Note ON: Time 105600, Note Name: C4, Velocity: 51
Note ON: Time 105600, Note Name: E4, Velocity: 61
Note ON: Time 105600, Note Name: C5, Velocity: 73
Note OFF: Time 105840, Note Name: C5
Note OFF: Time 105840, Note Name: A#4
Note OFF: Time 105840, Note Name: C4
Note OFF: Time 105840, Note Name: E4
Note ON: Time 105840, Note Name: E4, Velocity: 59
Note ON: Time 105840, Note Name: A#4, Velocity: 70
Note ON: Time 105840, Note Name: C4, Velocity: 50
Note ON: Time 105840, Note Name: C5, Velocity: 70
Note OFF: Time 106080, Note Name: C5
Note OFF: Time 106080, Note Name: E4
Note OFF: Time 106080, Note Name: A#4
Note OFF: Time 106080, Note Name: C4
Note ON: Time 106080, Note Name: E4, Velocity: 61
Note ON: Time 106080, Note Name: C4, Velocity: 51
Note ON: Time 106080, Note Name: A#4, Velocity: 73
Note ON: Time 106080, Note Name: C5, Velocity: 73
Note OFF: Time 106320, Note Name: C5
Note OFF: Time 106320, Note Name: E4
Note OFF: Time 106320, Note Name: C4
Note OFF: Time 106320, Note Name: A#4
Note ON: Time 106320, Note Name: C4, Velocity: 51
Note ON: Time 106320, Note Name: C5, Velocity: 71
Note ON: Time 106320, Note Name: E4, Velocity: 60
Note ON: Time 106320, Note Name: A#4, Velocity: 71
Note OFF: Time 106560, Note Name: A#4
Note OFF: Time 106560, Note Name: C4
Note OFF: Time 106560, Note Name: C5
Note OFF: Time 106560, Note Name: E4
Note ON: Time 106560, Note Name: A4, Velocity: 89
Note ON: Time 106560, Note Name: C5, Velocity: 89
Note ON: Time 106560, Note Name: C4, Velocity: 63
Note ON: Time 106560, Note Name: D#4, Velocity: 75
Note OFF: Time 106680, Note Name: D#4
Note OFF: Time 106680, Note Name: A4
Note OFF: Time 106680, Note Name: C5
Note OFF: Time 106680, Note Name: C4
Note ON: Time 106680, Note Name: A3, Velocity: 70
Note OFF: Time 106800, Note Name: A3
Note ON: Time 106800, Note Name: C4, Velocity: 71
Note OFF: Time 106920, Note Name: C4
Note ON: Time 106920, Note Name: D#4, Velocity: 72
Note OFF: Time 107040, Note Name: D#4
Note ON: Time 107040, Note Name: F#4, Velocity: 72
Note OFF: Time 107160, Note Name: F#4
Note ON: Time 107160, Note Name: A4, Velocity: 72
Note OFF: Time 107280, Note Name: A4
Note ON: Time 107280, Note Name: C5, Velocity: 73
Note OFF: Time 107400, Note Name: C5
Note ON: Time 107400, Note Name: D#5, Velocity: 74
Note OFF: Time 107520, Note Name: D#5
Note ON: Time 107520, Note Name: F#5, Velocity: 75
Note OFF: Time 107640, Note Name: F#5
Note ON: Time 107640, Note Name: A5, Velocity: 77
Note OFF: Time 107760, Note Name: A5
Note ON: Time 107760, Note Name: C6, Velocity: 79
Note OFF: Time 107880, Note Name: C6
Note ON: Time 107880, Note Name: D#6, Velocity: 81
Note OFF: Time 108000, Note Name: D#6
Note ON: Time 108000, Note Name: F#6, Velocity: 83
Note OFF: Time 108120, Note Name: F#6
Note ON: Time 108120, Note Name: D#6, Velocity: 83
Note OFF: Time 108240, Note Name: D#6
Note ON: Time 108240, Note Name: C6, Velocity: 82
Note OFF: Time 108360, Note Name: C6
Note ON: Time 108360, Note Name: A5, Velocity: 81
Note OFF: Time 108480, Note Name: A5
Note ON: Time 108480, Note Name: F#5, Velocity: 81
Note OFF: Time 108600, Note Name: F#5
Note ON: Time 108600, Note Name: D#5, Velocity: 80
Note OFF: Time 108720, Note Name: D#5
Note ON: Time 108720, Note Name: C5, Velocity: 79
Note OFF: Time 108840, Note Name: C5
Note ON: Time 108840, Note Name: A4, Velocity: 78
Note OFF: Time 108960, Note Name: A4
Note ON: Time 108960, Note Name: F#4, Velocity: 77
Note OFF: Time 109080, Note Name: F#4
Note ON: Time 109080, Note Name: D#4, Velocity: 76
Note OFF: Time 109200, Note Name: D#4
Note ON: Time 109200, Note Name: C4, Velocity: 75
Note OFF: Time 109320, Note Name: C4
Note ON: Time 112440, Note Name: A3, Velocity: 40
Note OFF: Time 112560, Note Name: A3
Note ON: Time 112560, Note Name: C4, Velocity: 37
Note OFF: Time 112680, Note Name: C4
Note ON: Time 112680, Note Name: D#4, Velocity: 37
Note OFF: Time 112800, Note Name: D#4
Note ON: Time 112800, Note Name: F#4, Velocity: 40
Note OFF: Time 112920, Note Name: F#4
Note ON: Time 112920, Note Name: G#4, Velocity: 38
Note OFF: Time 113040, Note Name: G#4
Note ON: Time 113040, Note Name: F#4, Velocity: 38
Note OFF: Time 113160, Note Name: F#4
Note ON: Time 113160, Note Name: F4, Velocity: 38
Note OFF: Time 113280, Note Name: F4
Note ON: Time 113280, Note Name: D#4, Velocity: 40
Note OFF: Time 113400, Note Name: D#4
Note ON: Time 113400, Note Name: F4, Velocity: 37
Note OFF: Time 113520, Note Name: F4
Note ON: Time 113520, Note Name: D#4, Velocity: 37
Note OFF: Time 113640, Note Name: D#4
Note ON: Time 113640, Note Name: C#4, Velocity: 37
Note OFF: Time 113760, Note Name: C#4
Note ON: Time 113760, Note Name: C4, Velocity: 40
Note OFF: Time 113880, Note Name: C4
Note ON: Time 113880, Note Name: C#4, Velocity: 37
Note OFF: Time 114000, Note Name: C#4
Note ON: Time 114000, Note Name: D#4, Velocity: 37
Note OFF: Time 114120, Note Name: D#4
Note ON: Time 114120, Note Name: C4, Velocity: 37
Note OFF: Time 114240, Note Name: C4
Note ON: Time 114360, Note Name: A3, Velocity: 40
Note OFF: Time 114480, Note Name: A3
Note ON: Time 114480, Note Name: C4, Velocity: 37
Note OFF: Time 114600, Note Name: C4
Note ON: Time 114600, Note Name: D#4, Velocity: 37
Note OFF: Time 114720, Note Name: D#4
Note ON: Time 114720, Note Name: F#4, Velocity: 40
Note OFF: Time 114840, Note Name: F#4
Note ON: Time 114840, Note Name: G#4, Velocity: 38
Note OFF: Time 114960, Note Name: G#4
Note ON: Time 114960, Note Name: F#4, Velocity: 38
Note OFF: Time 115080, Note Name: F#4
Note ON: Time 115080, Note Name: F4, Velocity: 38
Note OFF: Time 115200, Note Name: F4
Note ON: Time 115200, Note Name: D#4, Velocity: 40
Note OFF: Time 115320, Note Name: D#4
Note ON: Time 115320, Note Name: F4, Velocity: 37
Note OFF: Time 115440, Note Name: F4
Note ON: Time 115440, Note Name: D#4, Velocity: 37
Note OFF: Time 115560, Note Name: D#4
Note ON: Time 115560, Note Name: C#4, Velocity: 37
Note OFF: Time 115680, Note Name: C#4
Note ON: Time 115680, Note Name: C4, Velocity: 40
Note OFF: Time 115800, Note Name: C4
Note ON: Time 115800, Note Name: C#4, Velocity: 37
Note OFF: Time 115920, Note Name: C#4
Note ON: Time 115920, Note Name: D#4, Velocity: 37
Note OFF: Time 116040, Note Name: D#4
Note ON: Time 116040, Note Name: C4, Velocity: 37
Note OFF: Time 116160, Note Name: C4
Note ON: Time 116280, Note Name: A3, Velocity: 47
Note OFF: Time 116400, Note Name: A3
Note ON: Time 116400, Note Name: C4, Velocity: 49
Note OFF: Time 116520, Note Name: C4
Note ON: Time 116520, Note Name: D#4, Velocity: 50
Note OFF: Time 116640, Note Name: D#4
Note ON: Time 116640, Note Name: F#4, Velocity: 52
Note OFF: Time 116760, Note Name: F#4
Note ON: Time 116760, Note Name: G#4, Velocity: 54
Note OFF: Time 116880, Note Name: G#4
Note ON: Time 116880, Note Name: F#4, Velocity: 56
Note OFF: Time 117000, Note Name: F#4
Note ON: Time 117000, Note Name: F4, Velocity: 58
Note OFF: Time 117120, Note Name: F4
Note ON: Time 117120, Note Name: D#4, Velocity: 67
Note OFF: Time 117360, Note Name: D#4
Note ON: Time 117360, Note Name: D#4, Velocity: 47
Note OFF: Time 117480, Note Name: D#4
Note ON: Time 117480, Note Name: F4, Velocity: 49
Note OFF: Time 117600, Note Name: F4
Note ON: Time 117600, Note Name: F#4, Velocity: 52
Note OFF: Time 117720, Note Name: F#4
Note ON: Time 117720, Note Name: G#4, Velocity: 54
Note OFF: Time 117840, Note Name: G#4
Note ON: Time 117840, Note Name: F#4, Velocity: 56
Note OFF: Time 117960, Note Name: F#4
Note ON: Time 117960, Note Name: F4, Velocity: 59
Note OFF: Time 118080, Note Name: F4
Note ON: Time 118080, Note Name: D#4, Velocity: 67
Note OFF: Time 118320, Note Name: D#4
Note ON: Time 118320, Note Name: D#4, Velocity: 50
Note OFF: Time 118440, Note Name: D#4
Note ON: Time 118440, Note Name: F4, Velocity: 50
Note OFF: Time 118560, Note Name: F4
Note ON: Time 118560, Note Name: F#4, Velocity: 56
Note OFF: Time 118680, Note Name: F#4
Note ON: Time 118680, Note Name: G#4, Velocity: 49
Note OFF: Time 118800, Note Name: G#4
Note ON: Time 118800, Note Name: F#4, Velocity: 50
Note OFF: Time 118920, Note Name: F#4
Note ON: Time 118920, Note Name: F4, Velocity: 50
Note OFF: Time 119040, Note Name: F4
Note ON: Time 119040, Note Name: D#4, Velocity: 67
Note OFF: Time 119280, Note Name: D#4
Note ON: Time 119280, Note Name: F#4, Velocity: 56
Note ON: Time 119280, Note Name: F#5, Velocity: 56
Note OFF: Time 119520, Note Name: F#5
Note OFF: Time 119520, Note Name: F#4
Note ON: Time 119520, Note Name: F4, Velocity: 60
Note ON: Time 119520, Note Name: F5, Velocity: 60
Note OFF: Time 119760, Note Name: F5
Note OFF: Time 119760, Note Name: F4
Note ON: Time 119760, Note Name: A4, Velocity: 54
Note ON: Time 119760, Note Name: A5, Velocity: 54
Note OFF: Time 120000, Note Name: A5
Note OFF: Time 120000, Note Name: A4
Note ON: Time 120000, Note Name: A#5, Velocity: 56
Note ON: Time 120000, Note Name: A#4, Velocity: 56
Note OFF: Time 120120, Note Name: A#4
Note OFF: Time 120120, Note Name: A#5
Note ON: Time 120120, Note Name: F4, Velocity: 51
Note OFF: Time 120240, Note Name: F4
Note ON: Time 120240, Note Name: A#4, Velocity: 52
Note OFF: Time 120360, Note Name: A#4
Note ON: Time 120360, Note Name: C#5, Velocity: 53
Note OFF: Time 120480, Note Name: C#5
Note ON: Time 120480, Note Name: F5, Velocity: 57
Note OFF: Time 120600, Note Name: F5
Note ON: Time 120600, Note Name: F#5, Velocity: 55
Note OFF: Time 120720, Note Name: F#5
Note ON: Time 120720, Note Name: F5, Velocity: 56
Note OFF: Time 120840, Note Name: F5
Note ON: Time 120840, Note Name: D#5, Velocity: 55
Note OFF: Time 120960, Note Name: D#5
Note ON: Time 120960, Note Name: C#5, Velocity: 57
Note OFF: Time 121080, Note Name: C#5
Note ON: Time 121080, Note Name: D#5, Velocity: 56
Note OFF: Time 121200, Note Name: D#5
Note ON: Time 121200, Note Name: C#5, Velocity: 56
Note OFF: Time 121320, Note Name: C#5
Note ON: Time 121320, Note Name: C5, Velocity: 55
Note OFF: Time 121440, Note Name: C5
Note ON: Time 121440, Note Name: A#4, Velocity: 54
Note OFF: Time 121560, Note Name: A#4
Note ON: Time 121560, Note Name: C5, Velocity: 53
Note OFF: Time 121680, Note Name: C5
Note ON: Time 121680, Note Name: C#5, Velocity: 53
Note OFF: Time 121800, Note Name: C#5
Note ON: Time 121800, Note Name: A#4, Velocity: 52
Note OFF: Time 121920, Note Name: A#4
Note ON: Time 122040, Note Name: F4, Velocity: 51
Note OFF: Time 122160, Note Name: F4
Note ON: Time 122160, Note Name: A#4, Velocity: 52
Note OFF: Time 122280, Note Name: A#4
Note ON: Time 122280, Note Name: C#5, Velocity: 53
Note OFF: Time 122400, Note Name: C#5
Note ON: Time 122400, Note Name: F5, Velocity: 57
Note OFF: Time 122520, Note Name: F5
Note ON: Time 122520, Note Name: F#5, Velocity: 55
Note OFF: Time 122640, Note Name: F#5
Note ON: Time 122640, Note Name: F5, Velocity: 56
Note OFF: Time 122760, Note Name: F5
Note ON: Time 122760, Note Name: D#5, Velocity: 55
Note OFF: Time 122880, Note Name: D#5
Note ON: Time 122880, Note Name: C#5, Velocity: 57
Note OFF: Time 123000, Note Name: C#5
Note ON: Time 123000, Note Name: D#5, Velocity: 56
Note OFF: Time 123120, Note Name: D#5
Note ON: Time 123120, Note Name: C#5, Velocity: 56
Note OFF: Time 123240, Note Name: C#5
Note ON: Time 123240, Note Name: C5, Velocity: 55
Note OFF: Time 123360, Note Name: C5
Note ON: Time 123360, Note Name: A#4, Velocity: 54
Note OFF: Time 123480, Note Name: A#4
Note ON: Time 123480, Note Name: C5, Velocity: 53
Note OFF: Time 123600, Note Name: C5
Note ON: Time 123600, Note Name: C#5, Velocity: 53
Note OFF: Time 123720, Note Name: C#5
Note ON: Time 123720, Note Name: A#4, Velocity: 52
Note OFF: Time 123840, Note Name: A#4
Note ON: Time 123960, Note Name: F#4, Velocity: 51
Note OFF: Time 124080, Note Name: F#4
Note ON: Time 124080, Note Name: B4, Velocity: 53
Note OFF: Time 124200, Note Name: B4
Note ON: Time 124200, Note Name: D#5, Velocity: 54
Note OFF: Time 124320, Note Name: D#5
Note ON: Time 124320, Note Name: F#5, Velocity: 59
Note OFF: Time 124440, Note Name: F#5
Note ON: Time 124440, Note Name: G#5, Velocity: 58
Note OFF: Time 124560, Note Name: G#5
Note ON: Time 124560, Note Name: F#5, Velocity: 59
Note OFF: Time 124680, Note Name: F#5
Note ON: Time 124680, Note Name: F5, Velocity: 59
Note OFF: Time 124800, Note Name: F5
Note ON: Time 124800, Note Name: D#5, Velocity: 62
Note OFF: Time 124920, Note Name: D#5
Note ON: Time 124920, Note Name: F5, Velocity: 62
Note OFF: Time 125040, Note Name: F5
Note ON: Time 125040, Note Name: D#5, Velocity: 62
Note OFF: Time 125160, Note Name: D#5
Note ON: Time 125160, Note Name: C#5, Velocity: 62
Note OFF: Time 125280, Note Name: C#5
Note ON: Time 125280, Note Name: B4, Velocity: 62
Note OFF: Time 125400, Note Name: B4
Note ON: Time 125400, Note Name: C#5, Velocity: 61
Note OFF: Time 125520, Note Name: C#5
Note ON: Time 125520, Note Name: D#5, Velocity: 64
Note OFF: Time 125640, Note Name: D#5
Note ON: Time 125640, Note Name: B4, Velocity: 61
Note OFF: Time 125760, Note Name: B4
Note ON: Time 125760, Note Name: A#4, Velocity: 68
Note OFF: Time 125880, Note Name: A#4
Note ON: Time 125880, Note Name: C5, Velocity: 64
Note OFF: Time 126000, Note Name: C5
Note ON: Time 126000, Note Name: A#4, Velocity: 66
Note OFF: Time 126120, Note Name: A#4
Note ON: Time 126120, Note Name: A4, Velocity: 64
Note OFF: Time 126240, Note Name: A4
Note ON: Time 126240, Note Name: A#4, Velocity: 62
Note OFF: Time 126360, Note Name: A#4
Note ON: Time 126360, Note Name: C5, Velocity: 60
Note OFF: Time 126480, Note Name: C5
Note ON: Time 126480, Note Name: C#5, Velocity: 59
Note OFF: Time 126600, Note Name: C#5
Note ON: Time 126600, Note Name: A#4, Velocity: 58
Note OFF: Time 126720, Note Name: A#4
Note ON: Time 126720, Note Name: A4, Velocity: 62
Note OFF: Time 126840, Note Name: A4
Note ON: Time 126840, Note Name: A#4, Velocity: 61
Note OFF: Time 126960, Note Name: A#4
Note ON: Time 126960, Note Name: A4, Velocity: 60
Note OFF: Time 127080, Note Name: A4
Note ON: Time 127080, Note Name: G4, Velocity: 58
Note OFF: Time 127200, Note Name: G4
Note ON: Time 127200, Note Name: A4, Velocity: 56
Note OFF: Time 127320, Note Name: A4
Note ON: Time 127320, Note Name: A#4, Velocity: 55
Note OFF: Time 127440, Note Name: A#4
Note ON: Time 127440, Note Name: C5, Velocity: 54
Note OFF: Time 127560, Note Name: C5
Note ON: Time 127560, Note Name: A4, Velocity: 53
Note OFF: Time 127680, Note Name: A4
Note ON: Time 127680, Note Name: A#4, Velocity: 61
Note OFF: Time 127920, Note Name: A#4
Note ON: Time 127920, Note Name: A#4, Velocity: 57
Note OFF: Time 128040, Note Name: A#4
Note ON: Time 128040, Note Name: C#5, Velocity: 58
Note OFF: Time 128160, Note Name: C#5
Note ON: Time 128160, Note Name: F5, Velocity: 62
Note OFF: Time 128280, Note Name: F5
Note ON: Time 128280, Note Name: F#5, Velocity: 60
Note OFF: Time 128400, Note Name: F#5
Note ON: Time 128400, Note Name: F5, Velocity: 61
Note OFF: Time 128520, Note Name: F5
Note ON: Time 128520, Note Name: D#5, Velocity: 60
Note OFF: Time 128640, Note Name: D#5
Note ON: Time 128640, Note Name: C#5, Velocity: 62
Note OFF: Time 128760, Note Name: C#5
Note ON: Time 128760, Note Name: D#5, Velocity: 61
Note OFF: Time 128880, Note Name: D#5
Note ON: Time 128880, Note Name: C#5, Velocity: 61
Note OFF: Time 129000, Note Name: C#5
Note ON: Time 129000, Note Name: C5, Velocity: 60
Note OFF: Time 129120, Note Name: C5
Note ON: Time 129120, Note Name: A#5, Velocity: 69
Note ON: Time 129120, Note Name: A#4, Velocity: 69
Note OFF: Time 129240, Note Name: A#4
Note ON: Time 129240, Note Name: C5, Velocity: 58
Note OFF: Time 129360, Note Name: C5
Note OFF: Time 129360, Note Name: A#5
Note ON: Time 129360, Note Name: C#5, Velocity: 59
Note OFF: Time 129480, Note Name: C#5
Note ON: Time 129480, Note Name: A#4, Velocity: 58
Note OFF: Time 129600, Note Name: A#4
Note ON: Time 129600, Note Name: A5, Velocity: 71
Note OFF: Time 129840, Note Name: A5
Note ON: Time 129840, Note Name: A#4, Velocity: 60
Note OFF: Time 129960, Note Name: A#4
Note ON: Time 129960, Note Name: C#5, Velocity: 62
Note OFF: Time 130080, Note Name: C#5
Note ON: Time 130080, Note Name: A#5, Velocity: 69
Note ON: Time 130080, Note Name: F5, Velocity: 69
Note OFF: Time 130200, Note Name: F5
Note ON: Time 130200, Note Name: F#5, Velocity: 65
Note OFF: Time 130320, Note Name: F#5
Note OFF: Time 130320, Note Name: A#5
Note ON: Time 130320, Note Name: F5, Velocity: 67
Note OFF: Time 130440, Note Name: F5
Note ON: Time 130440, Note Name: D#5, Velocity: 66
Note OFF: Time 130560, Note Name: D#5
Note ON: Time 130560, Note Name: C#5, Velocity: 69
Note OFF: Time 130680, Note Name: C#5
Note ON: Time 130680, Note Name: D#5, Velocity: 68
Note OFF: Time 130800, Note Name: D#5
Note ON: Time 130800, Note Name: C#5, Velocity: 69
Note OFF: Time 130920, Note Name: C#5
Note ON: Time 130920, Note Name: C5, Velocity: 69
Note OFF: Time 131040, Note Name: C5
Note ON: Time 131040, Note Name: A#5, Velocity: 82
Note ON: Time 131040, Note Name: A#4, Velocity: 68
Note OFF: Time 131160, Note Name: A#4
Note ON: Time 131160, Note Name: C5, Velocity: 67
Note OFF: Time 131280, Note Name: C5
Note OFF: Time 131280, Note Name: A#5
Note ON: Time 131280, Note Name: C#5, Velocity: 68
Note OFF: Time 131400, Note Name: C#5
Note ON: Time 131400, Note Name: A#4, Velocity: 67
Note OFF: Time 131520, Note Name: A#4
Note ON: Time 131520, Note Name: B4, Velocity: 88
Note ON: Time 131520, Note Name: B5, Velocity: 88
Note OFF: Time 131640, Note Name: B5
Note OFF: Time 131640, Note Name: B4
Note ON: Time 131640, Note Name: F#5, Velocity: 74
Note OFF: Time 131760, Note Name: F#5
Note ON: Time 131760, Note Name: B5, Velocity: 76
Note OFF: Time 131880, Note Name: B5
Note ON: Time 131880, Note Name: D#6, Velocity: 78
Note OFF: Time 132000, Note Name: D#6
Note ON: Time 132000, Note Name: F#6, Velocity: 80
Note OFF: Time 132120, Note Name: F#6
Note ON: Time 132120, Note Name: G#6, Velocity: 76
Note OFF: Time 132240, Note Name: G#6
Note ON: Time 132240, Note Name: F#6, Velocity: 76
Note OFF: Time 132360, Note Name: F#6
Note ON: Time 132360, Note Name: F6, Velocity: 76
Note OFF: Time 132480, Note Name: F6
Note ON: Time 132480, Note Name: D#6, Velocity: 77
Note OFF: Time 132600, Note Name: D#6
Note ON: Time 132600, Note Name: F6, Velocity: 71
Note OFF: Time 132720, Note Name: F6
Note ON: Time 132720, Note Name: D#6, Velocity: 72
Note OFF: Time 132840, Note Name: D#6
Note ON: Time 132840, Note Name: C#6, Velocity: 72
Note OFF: Time 132960, Note Name: C#6
Note ON: Time 132960, Note Name: B5, Velocity: 78
Note OFF: Time 133080, Note Name: B5
Note ON: Time 133080, Note Name: C#6, Velocity: 73
Note OFF: Time 133200, Note Name: C#6
Note ON: Time 133200, Note Name: B5, Velocity: 73
Note OFF: Time 133320, Note Name: B5
Note ON: Time 133320, Note Name: A#5, Velocity: 72
Note OFF: Time 133440, Note Name: A#5
Note ON: Time 133440, Note Name: A5, Velocity: 77
Note OFF: Time 133560, Note Name: A5
Note ON: Time 133560, Note Name: C6, Velocity: 71
Note OFF: Time 133680, Note Name: C6
Note ON: Time 133680, Note Name: D#6, Velocity: 72
Note OFF: Time 133800, Note Name: D#6
Note ON: Time 133800, Note Name: C#6, Velocity: 72
Note OFF: Time 133920, Note Name: C#6
Note ON: Time 133920, Note Name: C6, Velocity: 78
Note OFF: Time 134040, Note Name: C6
Note ON: Time 134040, Note Name: C#6, Velocity: 73
Note OFF: Time 134160, Note Name: C#6
Note ON: Time 134160, Note Name: C6, Velocity: 73
Note OFF: Time 134280, Note Name: C6
Note ON: Time 134280, Note Name: A#5, Velocity: 72
Note OFF: Time 134400, Note Name: A#5
Note ON: Time 134400, Note Name: A5, Velocity: 77
Note OFF: Time 134520, Note Name: A5
Note ON: Time 134520, Note Name: A#5, Velocity: 71
Note OFF: Time 134640, Note Name: A#5
Note ON: Time 134640, Note Name: A5, Velocity: 72
Note OFF: Time 134760, Note Name: A5
Note ON: Time 134760, Note Name: F#5, Velocity: 72
Note OFF: Time 134880, Note Name: F#5
Note ON: Time 134880, Note Name: F5, Velocity: 74
Note OFF: Time 135000, Note Name: F5
Note ON: Time 135000, Note Name: D#5, Velocity: 71
Note OFF: Time 135120, Note Name: D#5
Note ON: Time 135120, Note Name: C#5, Velocity: 71
Note OFF: Time 135240, Note Name: C#5
Note ON: Time 135240, Note Name: C5, Velocity: 69
Note OFF: Time 135360, Note Name: C5
Note ON: Time 135360, Note Name: A#4, Velocity: 73
Note OFF: Time 135480, Note Name: A#4
Note ON: Time 135600, Note Name: F5, Velocity: 74
Note OFF: Time 136080, Note Name: F5
Note ON: Time 136080, Note Name: F5, Velocity: 61
Note OFF: Time 136200, Note Name: F5
Note ON: Time 136320, Note Name: F5, Velocity: 61
Note OFF: Time 136440, Note Name: F5
Note ON: Time 136560, Note Name: F#5, Velocity: 72
Note OFF: Time 137040, Note Name: F#5
Note ON: Time 137040, Note Name: F#5, Velocity: 60
Note OFF: Time 137160, Note Name: F#5
Note ON: Time 137280, Note Name: F#5, Velocity: 59
Note OFF: Time 137400, Note Name: F#5
Note ON: Time 137520, Note Name: F5, Velocity: 73
Note OFF: Time 138000, Note Name: F5
Note ON: Time 138000, Note Name: F5, Velocity: 63
Note OFF: Time 138120, Note Name: F5
Note ON: Time 138240, Note Name: F5, Velocity: 65
Note OFF: Time 138360, Note Name: F5
Note ON: Time 138480, Note Name: C5, Velocity: 61
Note OFF: Time 138600, Note Name: C5
Note ON: Time 138720, Note Name: C#5, Velocity: 61
Note OFF: Time 138840, Note Name: C#5
Note ON: Time 138960, Note Name: D#5, Velocity: 61
Note OFF: Time 139080, Note Name: D#5
Note ON: Time 139200, Note Name: C#5, Velocity: 65
Note OFF: Time 139320, Note Name: C#5
Note ON: Time 139440, Note Name: F6, Velocity: 80
Note ON: Time 139440, Note Name: F5, Velocity: 73
Note OFF: Time 139920, Note Name: F5
Note OFF: Time 139920, Note Name: F6
Note ON: Time 139920, Note Name: F6, Velocity: 74
Note ON: Time 139920, Note Name: F5, Velocity: 68
Note OFF: Time 140040, Note Name: F5
Note OFF: Time 140040, Note Name: F6
Note ON: Time 140160, Note Name: F6, Velocity: 74
Note ON: Time 140160, Note Name: F5, Velocity: 68
Note OFF: Time 140280, Note Name: F5
Note OFF: Time 140280, Note Name: F6
Note ON: Time 140400, Note Name: F#6, Velocity: 81
Note ON: Time 140400, Note Name: F#5, Velocity: 74
Note OFF: Time 140880, Note Name: F#5
Note OFF: Time 140880, Note Name: F#6
Note ON: Time 140880, Note Name: F#6, Velocity: 73
Note ON: Time 140880, Note Name: F#5, Velocity: 67
Note OFF: Time 141000, Note Name: F#5
Note OFF: Time 141000, Note Name: F#6
Note ON: Time 141120, Note Name: F#6, Velocity: 72
Note ON: Time 141120, Note Name: F#5, Velocity: 66
Note OFF: Time 141240, Note Name: F#5
Note OFF: Time 141240, Note Name: F#6
Note ON: Time 141360, Note Name: F6, Velocity: 82
Note ON: Time 141360, Note Name: F5, Velocity: 75
Note OFF: Time 141840, Note Name: F5
Note OFF: Time 141840, Note Name: F6
Note ON: Time 141840, Note Name: F6, Velocity: 77
Note ON: Time 141840, Note Name: F5, Velocity: 70
Note OFF: Time 141960, Note Name: F5
Note OFF: Time 141960, Note Name: F6
Note ON: Time 142080, Note Name: F6, Velocity: 80
Note ON: Time 142080, Note Name: F5, Velocity: 73
Note OFF: Time 142200, Note Name: F5
Note OFF: Time 142200, Note Name: F6
Note ON: Time 142320, Note Name: C6, Velocity: 74
Note ON: Time 142320, Note Name: C5, Velocity: 68
Note OFF: Time 142440, Note Name: C5
Note OFF: Time 142440, Note Name: C6
Note ON: Time 142560, Note Name: C#6, Velocity: 74
Note ON: Time 142560, Note Name: C#5, Velocity: 68
Note OFF: Time 142680, Note Name: C#5
Note OFF: Time 142680, Note Name: C#6
Note ON: Time 142800, Note Name: D#6, Velocity: 74
Note ON: Time 142800, Note Name: D#5, Velocity: 68
Note OFF: Time 142920, Note Name: D#5
Note OFF: Time 142920, Note Name: D#6
Note ON: Time 143040, Note Name: C#6, Velocity: 80
Note ON: Time 143040, Note Name: C#5, Velocity: 73
Note OFF: Time 143160, Note Name: C#5
Note OFF: Time 143160, Note Name: C#6
Note ON: Time 143280, Note Name: C5, Velocity: 72
Note OFF: Time 143760, Note Name: C5
Note ON: Time 143760, Note Name: C5, Velocity: 61
Note OFF: Time 143880, Note Name: C5
Note ON: Time 144000, Note Name: C5, Velocity: 61
Note OFF: Time 144120, Note Name: C5
Note ON: Time 144240, Note Name: B4, Velocity: 72
Note OFF: Time 144720, Note Name: B4
Note ON: Time 144720, Note Name: B4, Velocity: 60
Note OFF: Time 144840, Note Name: B4
Note ON: Time 144960, Note Name: B4, Velocity: 59
Note OFF: Time 145080, Note Name: B4
Note ON: Time 145200, Note Name: C5, Velocity: 71
Note OFF: Time 145680, Note Name: C5
Note ON: Time 145680, Note Name: C5, Velocity: 63
Note OFF: Time 145800, Note Name: C5
Note ON: Time 145920, Note Name: C5, Velocity: 65
Note OFF: Time 146040, Note Name: C5
Note ON: Time 146160, Note Name: G4, Velocity: 61
Note OFF: Time 146280, Note Name: G4
Note ON: Time 146400, Note Name: G#4, Velocity: 61
Note OFF: Time 146520, Note Name: G#4
Note ON: Time 146640, Note Name: A#4, Velocity: 61
Note OFF: Time 146760, Note Name: A#4
Note ON: Time 146880, Note Name: G#4, Velocity: 65
Note OFF: Time 147000, Note Name: G#4
Note ON: Time 147120, Note Name: C6, Velocity: 80
Note ON: Time 147120, Note Name: C5, Velocity: 73
Note OFF: Time 147600, Note Name: C5
Note OFF: Time 147600, Note Name: C6
Note ON: Time 147600, Note Name: C6, Velocity: 74
Note ON: Time 147600, Note Name: C5, Velocity: 68
Note OFF: Time 147720, Note Name: C5
Note OFF: Time 147720, Note Name: C6
Note ON: Time 147840, Note Name: C6, Velocity: 74
Note ON: Time 147840, Note Name: C5, Velocity: 68
Note OFF: Time 147960, Note Name: C5
Note OFF: Time 147960, Note Name: C6
Note ON: Time 148080, Note Name: B5, Velocity: 81
Note ON: Time 148080, Note Name: B4, Velocity: 74
Note OFF: Time 148560, Note Name: B4
Note OFF: Time 148560, Note Name: B5
Note ON: Time 148560, Note Name: B5, Velocity: 73
Note ON: Time 148560, Note Name: B4, Velocity: 67
Note OFF: Time 148680, Note Name: B4
Note OFF: Time 148680, Note Name: B5
Note ON: Time 148800, Note Name: B5, Velocity: 72
Note ON: Time 148800, Note Name: B4, Velocity: 66
Note OFF: Time 148920, Note Name: B4
Note OFF: Time 148920, Note Name: B5
Note ON: Time 149040, Note Name: C6, Velocity: 82
Note ON: Time 149040, Note Name: C5, Velocity: 75
Note OFF: Time 149520, Note Name: C5
Note OFF: Time 149520, Note Name: C6
Note ON: Time 149520, Note Name: C6, Velocity: 77
Note ON: Time 149520, Note Name: C5, Velocity: 70
Note OFF: Time 149640, Note Name: C5
Note OFF: Time 149640, Note Name: C6
Note ON: Time 149760, Note Name: C6, Velocity: 80
Note ON: Time 149760, Note Name: C5, Velocity: 73
Note OFF: Time 149880, Note Name: C5
Note OFF: Time 149880, Note Name: C6
Note ON: Time 150000, Note Name: G5, Velocity: 74
Note ON: Time 150000, Note Name: G4, Velocity: 68
Note OFF: Time 150120, Note Name: G4
Note OFF: Time 150120, Note Name: G5
Note ON: Time 150240, Note Name: G#5, Velocity: 74
Note ON: Time 150240, Note Name: G#4, Velocity: 68
Note OFF: Time 150360, Note Name: G#4
Note OFF: Time 150360, Note Name: G#5
Note ON: Time 150480, Note Name: A#5, Velocity: 74
Note ON: Time 150480, Note Name: A#4, Velocity: 68
Note OFF: Time 150600, Note Name: A#4
Note OFF: Time 150600, Note Name: A#5
Note ON: Time 150720, Note Name: G#5, Velocity: 80
Note ON: Time 150720, Note Name: G#4, Velocity: 73
Note OFF: Time 150840, Note Name: G#4
Note OFF: Time 150840, Note Name: G#5
Note ON: Time 150840, Note Name: C4, Velocity: 70
Note OFF: Time 150960, Note Name: C4
Note ON: Time 150960, Note Name: F4, Velocity: 72
Note OFF: Time 151080, Note Name: F4
Note ON: Time 151080, Note Name: G#4, Velocity: 74
Note OFF: Time 151200, Note Name: G#4
Note ON: Time 151200, Note Name: C5, Velocity: 76
Note OFF: Time 151320, Note Name: C5
Note ON: Time 151320, Note Name: C#5, Velocity: 72
Note OFF: Time 151440, Note Name: C#5
Note ON: Time 151440, Note Name: C5, Velocity: 72
Note OFF: Time 151560, Note Name: C5
Note ON: Time 151560, Note Name: A#4, Velocity: 72
Note OFF: Time 151680, Note Name: A#4
Note ON: Time 151680, Note Name: G#4, Velocity: 73
Note OFF: Time 151800, Note Name: G#4
Note ON: Time 151800, Note Name: A#4, Velocity: 67
Note OFF: Time 151920, Note Name: A#4
Note ON: Time 151920, Note Name: G#4, Velocity: 69
Note OFF: Time 152040, Note Name: G#4
Note ON: Time 152040, Note Name: G4, Velocity: 69
Note OFF: Time 152160, Note Name: G4
Note ON: Time 152160, Note Name: F4, Velocity: 75
Note OFF: Time 152280, Note Name: F4
Note ON: Time 152280, Note Name: G4, Velocity: 70
Note OFF: Time 152400, Note Name: G4
Note ON: Time 152400, Note Name: G#4, Velocity: 70
Note OFF: Time 152520, Note Name: G#4
Note ON: Time 152520, Note Name: F4, Velocity: 70
Note OFF: Time 152640, Note Name: F4
Note ON: Time 152640, Note Name: F#4, Velocity: 75
Note OFF: Time 152760, Note Name: F#4
Note ON: Time 152760, Note Name: C#4, Velocity: 72
Note OFF: Time 152880, Note Name: C#4
Note ON: Time 152880, Note Name: F#4, Velocity: 74
Note OFF: Time 153000, Note Name: F#4
Note ON: Time 153000, Note Name: A#4, Velocity: 76
Note OFF: Time 153120, Note Name: A#4
Note ON: Time 153120, Note Name: C#5, Velocity: 78
Note OFF: Time 153240, Note Name: C#5
Note ON: Time 153240, Note Name: D#5, Velocity: 75
Note OFF: Time 153360, Note Name: D#5
Note ON: Time 153360, Note Name: C#5, Velocity: 75
Note OFF: Time 153480, Note Name: C#5
Note ON: Time 153480, Note Name: C5, Velocity: 75
Note OFF: Time 153600, Note Name: C5
Note ON: Time 153600, Note Name: A#4, Velocity: 76
Note OFF: Time 153720, Note Name: A#4
Note ON: Time 153720, Note Name: C5, Velocity: 70
Note OFF: Time 153840, Note Name: C5
Note ON: Time 153840, Note Name: A#4, Velocity: 71
Note OFF: Time 153960, Note Name: A#4
Note ON: Time 153960, Note Name: G#4, Velocity: 71
Note OFF: Time 154080, Note Name: G#4
Note ON: Time 154080, Note Name: F#4, Velocity: 76
Note OFF: Time 154200, Note Name: F#4
Note ON: Time 154200, Note Name: G#4, Velocity: 73
Note OFF: Time 154320, Note Name: G#4
Note ON: Time 154320, Note Name: A#4, Velocity: 73
Note OFF: Time 154440, Note Name: A#4
Note ON: Time 154440, Note Name: F#4, Velocity: 72
Note OFF: Time 154560, Note Name: F#4
Note ON: Time 154560, Note Name: A4, Velocity: 77
Note OFF: Time 154680, Note Name: A4
Note ON: Time 154680, Note Name: D#4, Velocity: 74
Note OFF: Time 154800, Note Name: D#4
Note ON: Time 154800, Note Name: A4, Velocity: 76
Note OFF: Time 154920, Note Name: A4
Note ON: Time 154920, Note Name: C5, Velocity: 78
Note OFF: Time 155040, Note Name: C5
Note ON: Time 155040, Note Name: D#5, Velocity: 80
Note OFF: Time 155160, Note Name: D#5
Note ON: Time 155160, Note Name: F5, Velocity: 76
Note OFF: Time 155280, Note Name: F5
Note ON: Time 155280, Note Name: D#5, Velocity: 76
Note OFF: Time 155400, Note Name: D#5
Note ON: Time 155400, Note Name: C#5, Velocity: 77
Note OFF: Time 155520, Note Name: C#5
Note ON: Time 155520, Note Name: C5, Velocity: 78
Note OFF: Time 155640, Note Name: C5
Note ON: Time 155640, Note Name: C#5, Velocity: 72
Note OFF: Time 155760, Note Name: C#5
Note ON: Time 155760, Note Name: C5, Velocity: 73
Note OFF: Time 155880, Note Name: C5
Note ON: Time 155880, Note Name: A#4, Velocity: 73
Note OFF: Time 156000, Note Name: A#4
Note ON: Time 156000, Note Name: A4, Velocity: 80
Note OFF: Time 156120, Note Name: A4
Note ON: Time 156120, Note Name: A#4, Velocity: 75
Note OFF: Time 156240, Note Name: A#4
Note ON: Time 156240, Note Name: C5, Velocity: 75
Note OFF: Time 156360, Note Name: C5
Note ON: Time 156360, Note Name: A4, Velocity: 74
Note OFF: Time 156480, Note Name: A4
Note ON: Time 156480, Note Name: A#4, Velocity: 90
Note OFF: Time 156600, Note Name: A#4
Note ON: Time 156600, Note Name: F4, Velocity: 76
Note OFF: Time 156720, Note Name: F4
Note ON: Time 156720, Note Name: A#4, Velocity: 79
Note OFF: Time 156840, Note Name: A#4
Note ON: Time 156840, Note Name: C#5, Velocity: 82
Note OFF: Time 156960, Note Name: C#5
Note ON: Time 156960, Note Name: F5, Velocity: 83
Note OFF: Time 157080, Note Name: F5
Note ON: Time 157080, Note Name: F#5, Velocity: 83
Note OFF: Time 157200, Note Name: F#5
Note ON: Time 157200, Note Name: F5, Velocity: 82
Note OFF: Time 157320, Note Name: F5
Note ON: Time 157320, Note Name: D#5, Velocity: 82
Note OFF: Time 157440, Note Name: D#5
Note ON: Time 157440, Note Name: C#5, Velocity: 81
Note OFF: Time 157560, Note Name: C#5
Note ON: Time 157560, Note Name: C5, Velocity: 81
Note OFF: Time 157680, Note Name: C5
Note ON: Time 157680, Note Name: A#4, Velocity: 80
Note OFF: Time 157800, Note Name: A#4
Note ON: Time 157800, Note Name: G#4, Velocity: 80
Note OFF: Time 157920, Note Name: G#4
Note ON: Time 157920, Note Name: F#4, Velocity: 79
Note OFF: Time 158040, Note Name: F#4
Note ON: Time 158040, Note Name: F4, Velocity: 79
Note OFF: Time 158160, Note Name: F4
Note ON: Time 158160, Note Name: D#4, Velocity: 78
Note OFF: Time 158280, Note Name: D#4
Note ON: Time 158280, Note Name: C#4, Velocity: 78
Note OFF: Time 158400, Note Name: C#4
Note ON: Time 158400, Note Name: C4, Velocity: 77
Note OFF: Time 158520, Note Name: C4
Note ON: Time 158520, Note Name: A#3, Velocity: 77
Note OFF: Time 158640, Note Name: A#3
Note ON: Time 158640, Note Name: G#3, Velocity: 76
Note OFF: Time 158760, Note Name: G#3
Note ON: Time 158760, Note Name: F#3, Velocity: 76
Note OFF: Time 158880, Note Name: F#3
Note ON: Time 158880, Note Name: F3, Velocity: 73
Note OFF: Time 159000, Note Name: F3
Note ON: Time 159000, Note Name: D#3, Velocity: 73
Note OFF: Time 159120, Note Name: D#3
Note ON: Time 159120, Note Name: C#3, Velocity: 74
Note OFF: Time 159240, Note Name: C#3
Note ON: Time 159240, Note Name: C3, Velocity: 76
Note OFF: Time 159360, Note Name: C3
Note ON: Time 159360, Note Name: A#2, Velocity: 78
Note OFF: Time 159480, Note Name: A#2
Note ON: Time 159480, Note Name: C3, Velocity: 79
Note OFF: Time 159600, Note Name: C3
Note ON: Time 159600, Note Name: C#3, Velocity: 81
Note OFF: Time 159720, Note Name: C#3
Note ON: Time 159720, Note Name: A#2, Velocity: 82
Note OFF: Time 159840, Note Name: A#2
Note ON: Time 159840, Note Name: A#2, Velocity: 82
Note OFF: Time 160080, Note Name: A#2
Note ON: Time 160080, Note Name: B2, Velocity: 77
Note ON: Time 160080, Note Name: D3, Velocity: 77
Note ON: Time 160080, Note Name: F3, Velocity: 77
Note ON: Time 160080, Note Name: G#3, Velocity: 90
Note OFF: Time 160320, Note Name: G#3
Note OFF: Time 160320, Note Name: B2
Note OFF: Time 160320, Note Name: D3
Note OFF: Time 160320, Note Name: F3
Note ON: Time 160320, Note Name: C3, Velocity: 82
Note ON: Time 160320, Note Name: E3, Velocity: 82
Note ON: Time 160320, Note Name: G3, Velocity: 98
Note OFF: Time 160440, Note Name: G3
Note OFF: Time 160440, Note Name: E3
Note OFF: Time 160440, Note Name: C3
Note ON: Time 160440, Note Name: C3, Velocity: 66
Note ON: Time 160440, Note Name: C4, Velocity: 66
Note OFF: Time 160560, Note Name: C4
Note OFF: Time 160560, Note Name: C3
Note ON: Time 160680, Note Name: C4, Velocity: 66
Note ON: Time 160680, Note Name: C3, Velocity: 66
Note OFF: Time 160800, Note Name: C3
Note OFF: Time 160800, Note Name: C4
Note ON: Time 160920, Note Name: C4, Velocity: 66
Note ON: Time 160920, Note Name: C3, Velocity: 66
Note OFF: Time 161040, Note Name: C3
Note OFF: Time 161040, Note Name: C4
Note ON: Time 161160, Note Name: C4, Velocity: 66
Note ON: Time 161160, Note Name: C3, Velocity: 66
Note OFF: Time 161280, Note Name: C3
Note OFF: Time 161280, Note Name: C4
Note ON: Time 161400, Note Name: C4, Velocity: 66
Note ON: Time 161400, Note Name: C3, Velocity: 66
Note OFF: Time 161520, Note Name: C3
Note OFF: Time 161520, Note Name: C4
Note ON: Time 161640, Note Name: C4, Velocity: 66
Note ON: Time 161640, Note Name: C3, Velocity: 66
Note OFF: Time 161760, Note Name: C3
Note OFF: Time 161760, Note Name: C4
Note ON: Time 161880, Note Name: C4, Velocity: 66
Note ON: Time 161880, Note Name: C3, Velocity: 66
Note OFF: Time 162000, Note Name: C3
Note OFF: Time 162000, Note Name: C4
Note ON: Time 162120, Note Name: C4, Velocity: 66
Note ON: Time 162120, Note Name: C3, Velocity: 66
Note OFF: Time 162240, Note Name: C3
Note OFF: Time 162240, Note Name: C4
Note ON: Time 162360, Note Name: C4, Velocity: 64
Note ON: Time 162360, Note Name: C5, Velocity: 64
Note OFF: Time 162480, Note Name: C5
Note OFF: Time 162480, Note Name: C4
Note ON: Time 162600, Note Name: C4, Velocity: 64
Note ON: Time 162600, Note Name: C5, Velocity: 64
Note OFF: Time 162720, Note Name: C5
Note OFF: Time 162720, Note Name: C4
Note ON: Time 162840, Note Name: C4, Velocity: 65
Note ON: Time 162840, Note Name: C5, Velocity: 65
Note OFF: Time 162960, Note Name: C5
Note OFF: Time 162960, Note Name: C4
Note ON: Time 163080, Note Name: C4, Velocity: 66
Note ON: Time 163080, Note Name: C5, Velocity: 66
Note OFF: Time 163200, Note Name: C5
Note OFF: Time 163200, Note Name: C4
Note ON: Time 163320, Note Name: C4, Velocity: 64
Note ON: Time 163320, Note Name: C5, Velocity: 64
Note OFF: Time 163440, Note Name: C5
Note OFF: Time 163440, Note Name: C4
Note ON: Time 163560, Note Name: C4, Velocity: 64
Note ON: Time 163560, Note Name: C5, Velocity: 64
Note OFF: Time 163680, Note Name: C5
Note OFF: Time 163680, Note Name: C4
Note ON: Time 163800, Note Name: C4, Velocity: 65
Note ON: Time 163800, Note Name: C5, Velocity: 65
Note OFF: Time 163920, Note Name: C5
Note OFF: Time 163920, Note Name: C4
Note ON: Time 164040, Note Name: C4, Velocity: 66
Note ON: Time 164040, Note Name: C5, Velocity: 66
Note OFF: Time 164160, Note Name: C5
Note OFF: Time 164160, Note Name: C4
Note ON: Time 164280, Note Name: C5, Velocity: 67
Note ON: Time 164280, Note Name: C6, Velocity: 67
Note OFF: Time 164400, Note Name: C6
Note OFF: Time 164400, Note Name: C5
Note ON: Time 164520, Note Name: C5, Velocity: 68
Note ON: Time 164520, Note Name: C6, Velocity: 68
Note OFF: Time 164640, Note Name: C6
Note OFF: Time 164640, Note Name: C5
Note ON: Time 164760, Note Name: C5, Velocity: 69
Note ON: Time 164760, Note Name: C6, Velocity: 69
Note OFF: Time 164880, Note Name: C6
Note OFF: Time 164880, Note Name: C5
Note ON: Time 165000, Note Name: C5, Velocity: 70
Note ON: Time 165000, Note Name: C6, Velocity: 70
Note OFF: Time 165120, Note Name: C6
Note OFF: Time 165120, Note Name: C5
Note ON: Time 165240, Note Name: C5, Velocity: 71
Note ON: Time 165240, Note Name: C6, Velocity: 71
Note OFF: Time 165360, Note Name: C6
Note OFF: Time 165360, Note Name: C5
Note ON: Time 165480, Note Name: C5, Velocity: 72
Note ON: Time 165480, Note Name: C6, Velocity: 72
Note OFF: Time 165600, Note Name: C6
Note OFF: Time 165600, Note Name: C5
Note ON: Time 165720, Note Name: C5, Velocity: 73
Note ON: Time 165720, Note Name: C6, Velocity: 73
Note OFF: Time 165840, Note Name: C6
Note OFF: Time 165840, Note Name: C5
Note ON: Time 165960, Note Name: C5, Velocity: 74
Note ON: Time 165960, Note Name: C6, Velocity: 74
Note OFF: Time 166080, Note Name: C6
Note OFF: Time 166080, Note Name: C5
Note ON: Time 166200, Note Name: C6, Velocity: 75
Note ON: Time 166200, Note Name: C7, Velocity: 75
Note OFF: Time 166320, Note Name: C7
Note OFF: Time 166320, Note Name: C6
Note ON: Time 166440, Note Name: C6, Velocity: 76
Note ON: Time 166440, Note Name: C7, Velocity: 76
Note OFF: Time 166560, Note Name: C7
Note OFF: Time 166560, Note Name: C6
Note ON: Time 166680, Note Name: C6, Velocity: 78
Note ON: Time 166680, Note Name: C7, Velocity: 78
Note OFF: Time 166800, Note Name: C7
Note OFF: Time 166800, Note Name: C6
Note ON: Time 166920, Note Name: C6, Velocity: 81
Note ON: Time 166920, Note Name: C7, Velocity: 81
Note OFF: Time 167040, Note Name: C7
Note OFF: Time 167040, Note Name: C6
Note ON: Time 167160, Note Name: C6, Velocity: 82
Note ON: Time 167160, Note Name: C7, Velocity: 82
Note OFF: Time 167280, Note Name: C7
Note OFF: Time 167280, Note Name: C6
Note ON: Time 167400, Note Name: C6, Velocity: 84
Note ON: Time 167400, Note Name: C7, Velocity: 84
Note OFF: Time 167520, Note Name: C7
Note OFF: Time 167520, Note Name: C6
Note ON: Time 167640, Note Name: C6, Velocity: 86
Note ON: Time 167640, Note Name: C7, Velocity: 86
Note OFF: Time 167760, Note Name: C7
Note OFF: Time 167760, Note Name: C6
Note ON: Time 167880, Note Name: C6, Velocity: 88
Note ON: Time 167880, Note Name: C7, Velocity: 88
Note OFF: Time 168000, Note Name: C7
Note OFF: Time 168000, Note Name: C6
Note ON: Time 169080, Note Name: C#4, Velocity: 72
Note OFF: Time 169200, Note Name: C#4
Note ON: Time 169200, Note Name: F#4, Velocity: 75
Note OFF: Time 169320, Note Name: F#4
Note ON: Time 169320, Note Name: A#4, Velocity: 76
Note OFF: Time 169440, Note Name: A#4
Note ON: Time 169440, Note Name: C#5, Velocity: 88
Note OFF: Time 169560, Note Name: C#5
Note ON: Time 170040, Note Name: C#5, Velocity: 77
Note OFF: Time 170160, Note Name: C#5
Note ON: Time 170160, Note Name: F#5, Velocity: 79
Note OFF: Time 170280, Note Name: F#5
Note ON: Time 170280, Note Name: A#5, Velocity: 81
Note OFF: Time 170400, Note Name: A#5
Note ON: Time 170400, Note Name: C#6, Velocity: 89
Note OFF: Time 170640, Note Name: C#6
Note ON: Time 172320, Note Name: E4, Velocity: 89
Note OFF: Time 172440, Note Name: E4
Note ON: Time 172920, Note Name: E4, Velocity: 72
Note OFF: Time 173040, Note Name: E4
Note ON: Time 173040, Note Name: G4, Velocity: 75
Note OFF: Time 173160, Note Name: G4
Note ON: Time 173160, Note Name: A#4, Velocity: 76
Note OFF: Time 173280, Note Name: A#4
Note ON: Time 173280, Note Name: E5, Velocity: 87
Note OFF: Time 173400, Note Name: E5
Note ON: Time 173880, Note Name: E5, Velocity: 77
Note OFF: Time 174000, Note Name: E5
Note ON: Time 174000, Note Name: G5, Velocity: 79
Note OFF: Time 174120, Note Name: G5
Note ON: Time 174120, Note Name: A#5, Velocity: 81
Note OFF: Time 174240, Note Name: A#5
Note ON: Time 174240, Note Name: E6, Velocity: 93
Note OFF: Time 174480, Note Name: E6
Note ON: Time 176400, Note Name: C#4, Velocity: 51
Note OFF: Time 176520, Note Name: C#4
Note ON: Time 176520, Note Name: E4, Velocity: 53
Note OFF: Time 176640, Note Name: E4
Note ON: Time 176640, Note Name: G4, Velocity: 54
Note OFF: Time 176880, Note Name: G4
Note ON: Time 178080, Note Name: A#3, Velocity: 47
Note OFF: Time 178200, Note Name: A#3
Note ON: Time 178200, Note Name: C#4, Velocity: 51
Note OFF: Time 178320, Note Name: C#4
Note ON: Time 178320, Note Name: E4, Velocity: 48
Note OFF: Time 178440, Note Name: E4
Note ON: Time 178440, Note Name: G4, Velocity: 50
Note OFF: Time 178560, Note Name: G4
Note ON: Time 178560, Note Name: A#4, Velocity: 51
Note OFF: Time 178800, Note Name: A#4
Note ON: Time 180000, Note Name: C#4, Velocity: 44
Note OFF: Time 180120, Note Name: C#4
Note ON: Time 180120, Note Name: E4, Velocity: 48
Note OFF: Time 180240, Note Name: E4
Note ON: Time 180240, Note Name: G4, Velocity: 45
Note OFF: Time 180360, Note Name: G4
Note ON: Time 180360, Note Name: A#4, Velocity: 47
Note OFF: Time 180480, Note Name: A#4
Note ON: Time 180480, Note Name: C#5, Velocity: 48
Note OFF: Time 180720, Note Name: C#5
Note ON: Time 181920, Note Name: E4, Velocity: 41
Note OFF: Time 182040, Note Name: E4
Note ON: Time 182040, Note Name: G4, Velocity: 45
Note OFF: Time 182160, Note Name: G4
Note ON: Time 182160, Note Name: A#4, Velocity: 42
Note OFF: Time 182280, Note Name: A#4
Note ON: Time 182280, Note Name: C#5, Velocity: 44
Note OFF: Time 182400, Note Name: C#5
Note ON: Time 182400, Note Name: E5, Velocity: 45
Note OFF: Time 182640, Note Name: E5
Note ON: Time 184320, Note Name: C#4, Velocity: 35
Note OFF: Time 184560, Note Name: C#4
Note ON: Time 184560, Note Name: E4, Velocity: 36
Note OFF: Time 184800, Note Name: E4
Note ON: Time 184800, Note Name: G4, Velocity: 37
Note OFF: Time 185040, Note Name: G4
Note ON: Time 185040, Note Name: A#4, Velocity: 38
Note OFF: Time 185280, Note Name: A#4
Note ON: Time 185280, Note Name: C#5, Velocity: 39
Note OFF: Time 185520, Note Name: C#5
Note ON: Time 185520, Note Name: E5, Velocity: 40
Note OFF: Time 185760, Note Name: E5
Note ON: Time 185760, Note Name: G5, Velocity: 40
Note OFF: Time 186000, Note Name: G5
Note ON: Time 186000, Note Name: A#5, Velocity: 41
Note OFF: Time 186240, Note Name: A#5
Note ON: Time 186240, Note Name: C#6, Velocity: 42
Note OFF: Time 186480, Note Name: C#6
Note ON: Time 186480, Note Name: E6, Velocity: 43
Note OFF: Time 186720, Note Name: E6
Note ON: Time 186720, Note Name: G6, Velocity: 44
Note OFF: Time 186960, Note Name: G6
Note ON: Time 186960, Note Name: A#6, Velocity: 46
Note OFF: Time 187200, Note Name: A#6
Note ON: Time 187200, Note Name: G6, Velocity: 46
Note OFF: Time 187440, Note Name: G6
Note ON: Time 187440, Note Name: E6, Velocity: 45
Note OFF: Time 187680, Note Name: E6
Note ON: Time 187680, Note Name: C#6, Velocity: 45
Note OFF: Time 187920, Note Name: C#6
Note ON: Time 187920, Note Name: A#5, Velocity: 44
Note OFF: Time 188160, Note Name: A#5
Note ON: Time 188160, Note Name: G5, Velocity: 44
Note OFF: Time 188400, Note Name: G5
Note ON: Time 188400, Note Name: E5, Velocity: 43
Note OFF: Time 188640, Note Name: E5
Note ON: Time 188640, Note Name: C#5, Velocity: 43
Note OFF: Time 188880, Note Name: C#5
Note ON: Time 188880, Note Name: A#4, Velocity: 42
Note OFF: Time 189120, Note Name: A#4
Note ON: Time 189120, Note Name: G4, Velocity: 42
Note OFF: Time 189360, Note Name: G4
Note ON: Time 189360, Note Name: E4, Velocity: 41
Note OFF: Time 189600, Note Name: E4
Note ON: Time 189600, Note Name: C#4, Velocity: 40
Note OFF: Time 189840, Note Name: C#4
Note ON: Time 198720, Note Name: G3, Velocity: 34
Note ON: Time 198720, Note Name: A#3, Velocity: 34
Note ON: Time 198720, Note Name: C4, Velocity: 34
Note ON: Time 198720, Note Name: E4, Velocity: 34
Note OFF: Time 199440, Note Name: E4
Note OFF: Time 199440, Note Name: G3
Note OFF: Time 199440, Note Name: A#3
Note OFF: Time 199440, Note Name: C4
Note ON: Time 199680, Note Name: G4, Velocity: 34
Note ON: Time 199680, Note Name: A#4, Velocity: 34
Note ON: Time 199680, Note Name: C5, Velocity: 34
Note ON: Time 199680, Note Name: E5, Velocity: 34
Note OFF: Time 200400, Note Name: E5
Note OFF: Time 200400, Note Name: G4
Note OFF: Time 200400, Note Name: A#4
Note OFF: Time 200400, Note Name: C5
Note ON: Time 200640, Note Name: E6, Velocity: 34
Note ON: Time 200640, Note Name: C6, Velocity: 34
Note ON: Time 200640, Note Name: A#5, Velocity: 34
Note ON: Time 200640, Note Name: G5, Velocity: 34
Note OFF: Time 201360, Note Name: G5
Note OFF: Time 201360, Note Name: E6
Note OFF: Time 201360, Note Name: C6
Note OFF: Time 201360, Note Name: A#5
Note ON: Time 202680, Note Name: C3, Velocity: 40
Note OFF: Time 202800, Note Name: C3
Note ON: Time 202800, Note Name: F3, Velocity: 37
Note OFF: Time 202920, Note Name: F3
Note ON: Time 202920, Note Name: G#3, Velocity: 37
Note OFF: Time 203040, Note Name: G#3
Note ON: Time 203040, Note Name: C4, Velocity: 40
Note OFF: Time 203160, Note Name: C4
Note ON: Time 203160, Note Name: C#4, Velocity: 38
Note OFF: Time 203280, Note Name: C#4
Note ON: Time 203280, Note Name: C4, Velocity: 38
Note OFF: Time 203400, Note Name: C4
Note ON: Time 203400, Note Name: A#3, Velocity: 38
Note OFF: Time 203520, Note Name: A#3
Note ON: Time 203520, Note Name: G#3, Velocity: 40
Note OFF: Time 203640, Note Name: G#3
Note ON: Time 203640, Note Name: A#3, Velocity: 37
Note OFF: Time 203760, Note Name: A#3
Note ON: Time 203760, Note Name: G#3, Velocity: 37
Note OFF: Time 203880, Note Name: G#3
Note ON: Time 203880, Note Name: G3, Velocity: 37
Note OFF: Time 204000, Note Name: G3
Note ON: Time 204000, Note Name: F3, Velocity: 40
Note OFF: Time 204120, Note Name: F3
Note ON: Time 204120, Note Name: G3, Velocity: 37
Note OFF: Time 204240, Note Name: G3
Note ON: Time 204240, Note Name: G#3, Velocity: 37
Note OFF: Time 204360, Note Name: G#3
Note ON: Time 204360, Note Name: F3, Velocity: 37
Note OFF: Time 204480, Note Name: F3
Note ON: Time 204600, Note Name: C3, Velocity: 40
Note OFF: Time 204720, Note Name: C3
Note ON: Time 204720, Note Name: F3, Velocity: 37
Note OFF: Time 204840, Note Name: F3
Note ON: Time 204840, Note Name: G#3, Velocity: 37
Note OFF: Time 204960, Note Name: G#3
Note ON: Time 204960, Note Name: C4, Velocity: 40
Note OFF: Time 205080, Note Name: C4
Note ON: Time 205080, Note Name: C#4, Velocity: 38
Note OFF: Time 205200, Note Name: C#4
Note ON: Time 205200, Note Name: C4, Velocity: 38
Note OFF: Time 205320, Note Name: C4
Note ON: Time 205320, Note Name: A#3, Velocity: 38
Note OFF: Time 205440, Note Name: A#3
Note ON: Time 205440, Note Name: G#3, Velocity: 40
Note OFF: Time 205560, Note Name: G#3
Note ON: Time 205560, Note Name: A#3, Velocity: 37
Note OFF: Time 205680, Note Name: A#3
Note ON: Time 205680, Note Name: G#3, Velocity: 37
Note OFF: Time 205800, Note Name: G#3
Note ON: Time 205800, Note Name: G3, Velocity: 37
Note OFF: Time 205920, Note Name: G3
Note ON: Time 205920, Note Name: F3, Velocity: 40
Note OFF: Time 206040, Note Name: F3
Note ON: Time 206040, Note Name: G3, Velocity: 37
Note OFF: Time 206160, Note Name: G3
Note ON: Time 206160, Note Name: G#3, Velocity: 37
Note OFF: Time 206280, Note Name: G#3
Note ON: Time 206280, Note Name: F3, Velocity: 37
Note OFF: Time 206400, Note Name: F3
Note ON: Time 206520, Note Name: C#3, Velocity: 44
Note OFF: Time 206640, Note Name: C#3
Note ON: Time 206640, Note Name: F#3, Velocity: 40
Note OFF: Time 206760, Note Name: F#3
Note ON: Time 206760, Note Name: A#3, Velocity: 40
Note OFF: Time 206880, Note Name: A#3
Note ON: Time 206880, Note Name: C#4, Velocity: 44
Note OFF: Time 207000, Note Name: C#4
Note ON: Time 207000, Note Name: D#4, Velocity: 41
Note OFF: Time 207120, Note Name: D#4
Note ON: Time 207120, Note Name: C#4, Velocity: 41
Note OFF: Time 207240, Note Name: C#4
Note ON: Time 207240, Note Name: C4, Velocity: 41
Note OFF: Time 207360, Note Name: C4
Note ON: Time 207360, Note Name: A#3, Velocity: 44
Note OFF: Time 207480, Note Name: A#3
Note ON: Time 207480, Note Name: C4, Velocity: 40
Note OFF: Time 207600, Note Name: C4
Note ON: Time 207600, Note Name: A#3, Velocity: 40
Note OFF: Time 207720, Note Name: A#3
Note ON: Time 207720, Note Name: G#3, Velocity: 40
Note OFF: Time 207840, Note Name: G#3
Note ON: Time 207840, Note Name: F#3, Velocity: 44
Note OFF: Time 207960, Note Name: F#3
Note ON: Time 207960, Note Name: G#3, Velocity: 40
Note OFF: Time 208080, Note Name: G#3
Note ON: Time 208080, Note Name: F#3, Velocity: 40
Note OFF: Time 208200, Note Name: F#3
Note ON: Time 208200, Note Name: F3, Velocity: 40
Note OFF: Time 208320, Note Name: F3
Note ON: Time 208320, Note Name: E3, Velocity: 44
Note OFF: Time 208440, Note Name: E3
Note ON: Time 208440, Note Name: F3, Velocity: 40
Note OFF: Time 208560, Note Name: F3
Note ON: Time 208560, Note Name: G3, Velocity: 40
Note OFF: Time 208680, Note Name: G3
Note ON: Time 208680, Note Name: E3, Velocity: 40
Note OFF: Time 208800, Note Name: E3
Note ON: Time 208800, Note Name: F3, Velocity: 44
Note OFF: Time 208920, Note Name: F3
Note ON: Time 208920, Note Name: G3, Velocity: 40
Note OFF: Time 209040, Note Name: G3
Note ON: Time 209040, Note Name: G#3, Velocity: 40
Note OFF: Time 209160, Note Name: G#3
Note ON: Time 209160, Note Name: F3, Velocity: 40
Note OFF: Time 209280, Note Name: F3
Note ON: Time 209280, Note Name: G3, Velocity: 44
Note OFF: Time 209400, Note Name: G3
Note ON: Time 209400, Note Name: G#3, Velocity: 40
Note OFF: Time 209520, Note Name: G#3
Note ON: Time 209520, Note Name: A#3, Velocity: 40
Note OFF: Time 209640, Note Name: A#3
Note ON: Time 209640, Note Name: G3, Velocity: 40
Note OFF: Time 209760, Note Name: G3
Note ON: Time 209760, Note Name: E3, Velocity: 44
Note OFF: Time 209880, Note Name: E3
Note ON: Time 209880, Note Name: F3, Velocity: 37
Note OFF: Time 210000, Note Name: F3
Note ON: Time 210000, Note Name: G3, Velocity: 38
Note OFF: Time 210120, Note Name: G3
Note ON: Time 210120, Note Name: E3, Velocity: 40
Note OFF: Time 210240, Note Name: E3
Note ON: Time 210240, Note Name: F3, Velocity: 38
Note OFF: Time 210720, Note Name: F3
Note ON: Time 210960, Note Name: E4, Velocity: 57
Note OFF: Time 211080, Note Name: E4
Note ON: Time 211200, Note Name: F4, Velocity: 62
Note OFF: Time 211320, Note Name: F4
Note ON: Time 211440, Note Name: G4, Velocity: 57
Note OFF: Time 211560, Note Name: G4
Note ON: Time 211680, Note Name: G#4, Velocity: 62
Note OFF: Time 211800, Note Name: G#4
Note ON: Time 211920, Note Name: F4, Velocity: 59
Note OFF: Time 212040, Note Name: F4
Note ON: Time 212880, Note Name: E5, Velocity: 60
Note ON: Time 212880, Note Name: E4, Velocity: 52
Note OFF: Time 213000, Note Name: E4
Note OFF: Time 213000, Note Name: E5
Note ON: Time 213120, Note Name: F5, Velocity: 66
Note ON: Time 213120, Note Name: F4, Velocity: 57
Note OFF: Time 213240, Note Name: F4
Note OFF: Time 213240, Note Name: F5
Note ON: Time 213360, Note Name: G4, Velocity: 53
Note ON: Time 213360, Note Name: G5, Velocity: 63
Note OFF: Time 213480, Note Name: G5
Note OFF: Time 213480, Note Name: G4
Note ON: Time 213600, Note Name: G#4, Velocity: 57
Note ON: Time 213600, Note Name: G#5, Velocity: 68
Note OFF: Time 213720, Note Name: G#5
Note OFF: Time 213720, Note Name: G#4
Note ON: Time 213840, Note Name: F4, Velocity: 53
Note ON: Time 213840, Note Name: F5, Velocity: 63
Note OFF: Time 213960, Note Name: F5
Note OFF: Time 213960, Note Name: F4
Note ON: Time 214800, Note Name: F4, Velocity: 59
Note ON: Time 214800, Note Name: F5, Velocity: 71
Note OFF: Time 215040, Note Name: F5
Note OFF: Time 215040, Note Name: F4
Note ON: Time 215040, Note Name: F#4, Velocity: 63
Note ON: Time 215040, Note Name: F#5, Velocity: 77
Note OFF: Time 215280, Note Name: F#5
Note OFF: Time 215280, Note Name: F#4
Note ON: Time 215280, Note Name: A#4, Velocity: 66
Note ON: Time 215280, Note Name: A#5, Velocity: 79
Note OFF: Time 215520, Note Name: A#5
Note OFF: Time 215520, Note Name: A#4
Note ON: Time 215520, Note Name: C#5, Velocity: 69
Note ON: Time 215520, Note Name: C#6, Velocity: 81
Note OFF: Time 215640, Note Name: C#6
Note OFF: Time 215640, Note Name: C#5
Note ON: Time 215760, Note Name: C#5, Velocity: 66
Note ON: Time 215760, Note Name: C#6, Velocity: 79
Note OFF: Time 215880, Note Name: C#6
Note OFF: Time 215880, Note Name: C#5
Note ON: Time 216000, Note Name: C#5, Velocity: 71
Note ON: Time 216000, Note Name: C#6, Velocity: 83
Note OFF: Time 216480, Note Name: C#6
Note OFF: Time 216480, Note Name: C#5
Note ON: Time 216480, Note Name: C6, Velocity: 78
Note ON: Time 216480, Note Name: C5, Velocity: 64
Note OFF: Time 217440, Note Name: C5
Note OFF: Time 217440, Note Name: C6
Note ON: Time 217440, Note Name: E4, Velocity: 64
Note ON: Time 217440, Note Name: E5, Velocity: 64
Note OFF: Time 217920, Note Name: E5
Note OFF: Time 217920, Note Name: E4
Note ON: Time 217920, Note Name: F5, Velocity: 57
Note ON: Time 217920, Note Name: F4, Velocity: 57
Note OFF: Time 218040, Note Name: F4
Note OFF: Time 218040, Note Name: F5
Note ON: Time 218040, Note Name: C4, Velocity: 41
Note OFF: Time 218160, Note Name: C4
Note ON: Time 218160, Note Name: F4, Velocity: 44
Note OFF: Time 218280, Note Name: F4
Note ON: Time 218280, Note Name: G#4, Velocity: 46
Note OFF: Time 218400, Note Name: G#4
Note ON: Time 218400, Note Name: C5, Velocity: 43
Note OFF: Time 218520, Note Name: C5
Note ON: Time 218520, Note Name: C4, Velocity: 45
Note OFF: Time 218640, Note Name: C4
Note ON: Time 218640, Note Name: F4, Velocity: 46
Note OFF: Time 218760, Note Name: F4
Note ON: Time 218760, Note Name: G#4, Velocity: 48
Note OFF: Time 218880, Note Name: G#4
Note ON: Time 219000, Note Name: C4, Velocity: 46
Note OFF: Time 219120, Note Name: C4
Note ON: Time 219120, Note Name: F4, Velocity: 47
Note OFF: Time 219240, Note Name: F4
Note ON: Time 219240, Note Name: G#4, Velocity: 49
Note OFF: Time 219360, Note Name: G#4
Note ON: Time 219360, Note Name: C5, Velocity: 50
Note OFF: Time 219480, Note Name: C5
Note ON: Time 219480, Note Name: C4, Velocity: 52
Note OFF: Time 219600, Note Name: C4
Note ON: Time 219600, Note Name: F4, Velocity: 53
Note OFF: Time 219720, Note Name: F4
Note ON: Time 219720, Note Name: G#4, Velocity: 38
Note OFF: Time 219840, Note Name: G#4
Note ON: Time 219960, Note Name: B3, Velocity: 51
Note OFF: Time 220080, Note Name: B3
Note ON: Time 220080, Note Name: D4, Velocity: 52
Note OFF: Time 220200, Note Name: D4
Note ON: Time 220200, Note Name: G#4, Velocity: 52
Note OFF: Time 220320, Note Name: G#4
Note ON: Time 220320, Note Name: B4, Velocity: 54
Note ON: Time 220440, Note Name: B3, Velocity: 52
Note OFF: Time 220560, Note Name: B3
Note ON: Time 220560, Note Name: D4, Velocity: 52
Note OFF: Time 220680, Note Name: D4
Note ON: Time 220680, Note Name: G#4, Velocity: 52
Note OFF: Time 220800, Note Name: G#4
Note OFF: Time 220800, Note Name: B4
Note ON: Time 220800, Note Name: B4, Velocity: 54
Note ON: Time 220920, Note Name: B3, Velocity: 52
Note OFF: Time 221040, Note Name: B3
Note ON: Time 221040, Note Name: E4, Velocity: 50
Note OFF: Time 221160, Note Name: E4
Note ON: Time 221160, Note Name: G4, Velocity: 49
Note OFF: Time 221280, Note Name: G4
Note OFF: Time 221280, Note Name: B4
Note ON: Time 221280, Note Name: C5, Velocity: 52
Note ON: Time 221400, Note Name: C4, Velocity: 46
Note OFF: Time 221520, Note Name: C4
Note ON: Time 221520, Note Name: E4, Velocity: 44
Note OFF: Time 221640, Note Name: E4
Note ON: Time 221640, Note Name: G4, Velocity: 38
Note OFF: Time 221760, Note Name: G4
Note OFF: Time 221760, Note Name: C5
Note ON: Time 221880, Note Name: C4, Velocity: 38
Note OFF: Time 222000, Note Name: C4
Note ON: Time 222000, Note Name: E4, Velocity: 40
Note OFF: Time 222120, Note Name: E4
Note ON: Time 222120, Note Name: G4, Velocity: 42
Note OFF: Time 222240, Note Name: G4
Note ON: Time 222240, Note Name: C5, Velocity: 43
Note OFF: Time 222360, Note Name: C5
Note ON: Time 222360, Note Name: C4, Velocity: 45
Note OFF: Time 222480, Note Name: C4
Note ON: Time 222480, Note Name: E4, Velocity: 46
Note OFF: Time 222600, Note Name: E4
Note ON: Time 222600, Note Name: G4, Velocity: 48
Note OFF: Time 222720, Note Name: G4
Note ON: Time 222840, Note Name: C4, Velocity: 46
Note OFF: Time 222960, Note Name: C4
Note ON: Time 222960, Note Name: E4, Velocity: 47
Note OFF: Time 223080, Note Name: E4
Note ON: Time 223080, Note Name: G4, Velocity: 49
Note OFF: Time 223200, Note Name: G4
Note ON: Time 223200, Note Name: C5, Velocity: 50
Note OFF: Time 223320, Note Name: C5
Note ON: Time 223320, Note Name: C4, Velocity: 52
Note OFF: Time 223440, Note Name: C4
Note ON: Time 223440, Note Name: E4, Velocity: 53
Note OFF: Time 223560, Note Name: E4
Note ON: Time 223560, Note Name: G4, Velocity: 38
Note OFF: Time 223680, Note Name: G4
Note ON: Time 223800, Note Name: C4, Velocity: 51
Note OFF: Time 223920, Note Name: C4
Note ON: Time 223920, Note Name: E4, Velocity: 52
Note OFF: Time 224040, Note Name: E4
Note ON: Time 224040, Note Name: G4, Velocity: 52
Note OFF: Time 224160, Note Name: G4
Note ON: Time 224160, Note Name: C5, Velocity: 54
Note ON: Time 224280, Note Name: C4, Velocity: 52
Note OFF: Time 224400, Note Name: C4
Note ON: Time 224400, Note Name: E4, Velocity: 52
Note OFF: Time 224520, Note Name: E4
Note ON: Time 224520, Note Name: G4, Velocity: 52
Note OFF: Time 224640, Note Name: G4
Note OFF: Time 224640, Note Name: C5
Note ON: Time 224640, Note Name: C5, Velocity: 53
Note ON: Time 224760, Note Name: C4, Velocity: 52
Note OFF: Time 224880, Note Name: C4
Note ON: Time 224880, Note Name: E4, Velocity: 50
Note OFF: Time 225000, Note Name: E4
Note ON: Time 225000, Note Name: G4, Velocity: 49
Note OFF: Time 225120, Note Name: G4
Note OFF: Time 225120, Note Name: C5
Note ON: Time 225120, Note Name: C5, Velocity: 47
Note ON: Time 225240, Note Name: C4, Velocity: 46
Note OFF: Time 225360, Note Name: C4
Note ON: Time 225360, Note Name: F4, Velocity: 44
Note OFF: Time 225480, Note Name: F4
Note ON: Time 225480, Note Name: G#4, Velocity: 38
Note OFF: Time 225600, Note Name: G#4
Note OFF: Time 225600, Note Name: C5
Note ON: Time 225720, Note Name: F4, Velocity: 38
Note OFF: Time 225840, Note Name: F4
Note ON: Time 225840, Note Name: A4, Velocity: 40
Note OFF: Time 225960, Note Name: A4
Note ON: Time 225960, Note Name: C5, Velocity: 42
Note OFF: Time 226080, Note Name: C5
Note ON: Time 226080, Note Name: F5, Velocity: 43
Note OFF: Time 226200, Note Name: F5
Note ON: Time 226200, Note Name: F4, Velocity: 45
Note OFF: Time 226320, Note Name: F4
Note ON: Time 226320, Note Name: A4, Velocity: 46
Note OFF: Time 226440, Note Name: A4
Note ON: Time 226440, Note Name: C5, Velocity: 48
Note OFF: Time 226560, Note Name: C5
Note ON: Time 226680, Note Name: F4, Velocity: 46
Note OFF: Time 226800, Note Name: F4
Note ON: Time 226800, Note Name: A4, Velocity: 47
Note OFF: Time 226920, Note Name: A4
Note ON: Time 226920, Note Name: C5, Velocity: 49
Note OFF: Time 227040, Note Name: C5
Note ON: Time 227040, Note Name: F5, Velocity: 50
Note OFF: Time 227160, Note Name: F5
Note ON: Time 227160, Note Name: F4, Velocity: 52
Note OFF: Time 227280, Note Name: F4
Note ON: Time 227280, Note Name: A4, Velocity: 53
Note OFF: Time 227400, Note Name: A4
Note ON: Time 227400, Note Name: C5, Velocity: 54
Note OFF: Time 227520, Note Name: C5
Note ON: Time 227640, Note Name: F4, Velocity: 50
Note OFF: Time 227760, Note Name: F4
Note ON: Time 227760, Note Name: A4, Velocity: 50
Note OFF: Time 227880, Note Name: A4
Note ON: Time 227880, Note Name: C5, Velocity: 50
Note OFF: Time 228000, Note Name: C5
Note ON: Time 228000, Note Name: F5, Velocity: 55
Note ON: Time 228120, Note Name: F4, Velocity: 53
Note OFF: Time 228240, Note Name: F4
Note ON: Time 228240, Note Name: A4, Velocity: 52
Note OFF: Time 228360, Note Name: A4
Note ON: Time 228360, Note Name: C5, Velocity: 52
Note OFF: Time 228480, Note Name: C5
Note OFF: Time 228480, Note Name: F5
Note ON: Time 228480, Note Name: A4, Velocity: 54
Note ON: Time 228480, Note Name: F4, Velocity: 54
Note OFF: Time 228600, Note Name: F4
Note OFF: Time 228600, Note Name: A4
Note ON: Time 228600, Note Name: F5, Velocity: 54
Note OFF: Time 228720, Note Name: F5
Note ON: Time 228720, Note Name: F4, Velocity: 53
Note ON: Time 228720, Note Name: A#4, Velocity: 53
Note OFF: Time 228840, Note Name: A#4
Note OFF: Time 228840, Note Name: F4
Note ON: Time 228840, Note Name: F5, Velocity: 52
Note OFF: Time 228960, Note Name: F5
Note ON: Time 228960, Note Name: F4, Velocity: 52
Note ON: Time 228960, Note Name: C5, Velocity: 52
Note OFF: Time 229080, Note Name: C5
Note OFF: Time 229080, Note Name: F4
Note ON: Time 229080, Note Name: F5, Velocity: 51
Note OFF: Time 229200, Note Name: F5
Note ON: Time 229200, Note Name: C#5, Velocity: 50
Note ON: Time 229200, Note Name: F4, Velocity: 50
Note OFF: Time 229320, Note Name: F4
Note OFF: Time 229320, Note Name: C#5
Note ON: Time 229320, Note Name: F5, Velocity: 50
Note OFF: Time 229440, Note Name: F5
Note ON: Time 229560, Note Name: C4, Velocity: 52
Note OFF: Time 229680, Note Name: C4
Note ON: Time 229680, Note Name: F4, Velocity: 49
Note OFF: Time 229800, Note Name: F4
Note ON: Time 229800, Note Name: G#4, Velocity: 50
Note OFF: Time 229920, Note Name: G#4
Note ON: Time 229920, Note Name: C5, Velocity: 56
Note ON: Time 230040, Note Name: C4, Velocity: 50
Note OFF: Time 230160, Note Name: C4
Note ON: Time 230160, Note Name: F4, Velocity: 50
Note OFF: Time 230280, Note Name: F4
Note ON: Time 230280, Note Name: G#4, Velocity: 50
Note OFF: Time 230400, Note Name: G#4
Note OFF: Time 230400, Note Name: C5
Note ON: Time 230400, Note Name: C5, Velocity: 56
Note ON: Time 230520, Note Name: C4, Velocity: 52
Note OFF: Time 230640, Note Name: C4
Note ON: Time 230640, Note Name: G4, Velocity: 52
Note OFF: Time 230760, Note Name: G4
Note ON: Time 230760, Note Name: A#4, Velocity: 52
Note OFF: Time 230880, Note Name: A#4
Note OFF: Time 230880, Note Name: C5
Note ON: Time 230880, Note Name: C5, Velocity: 56
Note ON: Time 231000, Note Name: C4, Velocity: 52
Note OFF: Time 231120, Note Name: C4
Note ON: Time 231120, Note Name: E4, Velocity: 52
Note OFF: Time 231240, Note Name: E4
Note ON: Time 231240, Note Name: G4, Velocity: 52
Note OFF: Time 231360, Note Name: G4
Note OFF: Time 231360, Note Name: C5
Note ON: Time 231360, Note Name: C4, Velocity: 59
Note ON: Time 231360, Note Name: F4, Velocity: 59
Note ON: Time 231360, Note Name: G#4, Velocity: 59
Note ON: Time 231360, Note Name: C5, Velocity: 59
Note OFF: Time 231840, Note Name: C5
Note OFF: Time 231840, Note Name: C4
Note OFF: Time 231840, Note Name: F4
Note OFF: Time 231840, Note Name: G#4
Note ON: Time 232200, Note Name: G#5, Velocity: 69
Note ON: Time 232200, Note Name: F5, Velocity: 69
Note OFF: Time 232320, Note Name: F5
Note OFF: Time 232320, Note Name: G#5
Note ON: Time 232320, Note Name: G#5, Velocity: 74
Note ON: Time 232320, Note Name: F5, Velocity: 74
Note OFF: Time 232800, Note Name: F5
Note OFF: Time 232800, Note Name: G#5
Note ON: Time 233160, Note Name: G#5, Velocity: 70
Note ON: Time 233160, Note Name: F5, Velocity: 70
Note OFF: Time 233280, Note Name: F5
Note OFF: Time 233280, Note Name: G#5
Note ON: Time 233280, Note Name: G#5, Velocity: 75
Note ON: Time 233280, Note Name: F5, Velocity: 75
Note OFF: Time 234240, Note Name: F5
Note OFF: Time 234240, Note Name: G#5
Note ON: Time 234240, Note Name: G5, Velocity: 68
Note ON: Time 234240, Note Name: E5, Velocity: 68
Note OFF: Time 234480, Note Name: E5
Note OFF: Time 234480, Note Name: G5
Note ON: Time 236040, Note Name: A#5, Velocity: 75
Note ON: Time 236040, Note Name: G5, Velocity: 75
Note OFF: Time 236160, Note Name: G5
Note OFF: Time 236160, Note Name: A#5
Note ON: Time 236160, Note Name: A#5, Velocity: 81
Note ON: Time 236160, Note Name: G5, Velocity: 81
Note OFF: Time 236640, Note Name: G5
Note OFF: Time 236640, Note Name: A#5
Note ON: Time 237000, Note Name: A#5, Velocity: 77
Note ON: Time 237000, Note Name: G5, Velocity: 77
Note OFF: Time 237120, Note Name: G5
Note OFF: Time 237120, Note Name: A#5
Note ON: Time 237120, Note Name: A#5, Velocity: 82
Note ON: Time 237120, Note Name: G5, Velocity: 82
Note OFF: Time 238080, Note Name: G5
Note OFF: Time 238080, Note Name: A#5
Note ON: Time 238080, Note Name: G#5, Velocity: 74
Note ON: Time 238080, Note Name: F5, Velocity: 74
Note OFF: Time 238320, Note Name: F5
Note OFF: Time 238320, Note Name: G#5
Note ON: Time 239880, Note Name: D#6, Velocity: 82
Note ON: Time 239880, Note Name: C6, Velocity: 82
Note OFF: Time 240000, Note Name: C6
Note OFF: Time 240000, Note Name: D#6
Note ON: Time 240000, Note Name: D#6, Velocity: 89
Note ON: Time 240000, Note Name: C6, Velocity: 89
Note OFF: Time 240480, Note Name: C6
Note OFF: Time 240480, Note Name: D#6
Note ON: Time 240840, Note Name: D#6, Velocity: 84
Note ON: Time 240840, Note Name: C6, Velocity: 84
Note OFF: Time 240960, Note Name: C6
Note OFF: Time 240960, Note Name: D#6
Note ON: Time 240960, Note Name: D#6, Velocity: 90
Note ON: Time 240960, Note Name: C6, Velocity: 90
Note OFF: Time 242160, Note Name: C6
Note OFF: Time 242160, Note Name: D#6
Note ON: Time 242160, Note Name: C#6, Velocity: 79
Note ON: Time 242160, Note Name: A#5, Velocity: 79
Note OFF: Time 242400, Note Name: A#5
Note OFF: Time 242400, Note Name: C#6
Note ON: Time 242400, Note Name: C6, Velocity: 77
Note ON: Time 242400, Note Name: G#5, Velocity: 77
Note OFF: Time 242640, Note Name: G#5
Note OFF: Time 242640, Note Name: C6
Note ON: Time 242640, Note Name: A#5, Velocity: 73
Note ON: Time 242640, Note Name: G5, Velocity: 73
Note OFF: Time 242880, Note Name: G5
Note OFF: Time 242880, Note Name: A#5
Note ON: Time 242880, Note Name: G#5, Velocity: 82
Note ON: Time 242880, Note Name: F5, Velocity: 82
Note OFF: Time 243360, Note Name: F5
Note OFF: Time 243360, Note Name: G#5
Note ON: Time 243720, Note Name: F6, Velocity: 79
Note ON: Time 243720, Note Name: G#5, Velocity: 79
Note ON: Time 243720, Note Name: F5, Velocity: 79
Note OFF: Time 243840, Note Name: F5
Note OFF: Time 243840, Note Name: G#5
Note OFF: Time 243840, Note Name: F6
Note ON: Time 243840, Note Name: G6, Velocity: 82
Note ON: Time 243840, Note Name: A#5, Velocity: 82
Note ON: Time 243840, Note Name: G5, Velocity: 82
Note OFF: Time 244320, Note Name: G5
Note OFF: Time 244320, Note Name: A#5
Note OFF: Time 244320, Note Name: G6
Note ON: Time 244680, Note Name: E6, Velocity: 79
Note ON: Time 244680, Note Name: G5, Velocity: 79
Note ON: Time 244680, Note Name: E5, Velocity: 79
Note OFF: Time 244800, Note Name: E5
Note OFF: Time 244800, Note Name: G5
Note OFF: Time 244800, Note Name: E6
Note ON: Time 244800, Note Name: F6, Velocity: 73
Note ON: Time 244800, Note Name: G#5, Velocity: 73
Note ON: Time 244800, Note Name: F5, Velocity: 73
Note OFF: Time 244920, Note Name: F5
Note OFF: Time 244920, Note Name: G#5
Note OFF: Time 244920, Note Name: F6
Note ON: Time 244920, Note Name: C5, Velocity: 61
Note OFF: Time 245040, Note Name: C5
Note ON: Time 245040, Note Name: F5, Velocity: 62
Note OFF: Time 245160, Note Name: F5
Note ON: Time 245160, Note Name: G#5, Velocity: 63
Note OFF: Time 245280, Note Name: G#5
Note ON: Time 245280, Note Name: C6, Velocity: 68
Note OFF: Time 245400, Note Name: C6
Note ON: Time 245400, Note Name: C#6, Velocity: 65
Note OFF: Time 245520, Note Name: C#6
Note ON: Time 245520, Note Name: C6, Velocity: 66
Note OFF: Time 245640, Note Name: C6
Note ON: Time 245640, Note Name: A#5, Velocity: 65
Note OFF: Time 245760, Note Name: A#5
Note ON: Time 245760, Note Name: G#5, Velocity: 68
Note OFF: Time 245880, Note Name: G#5
Note ON: Time 245880, Note Name: A#5, Velocity: 67
Note OFF: Time 246000, Note Name: A#5
Note ON: Time 246000, Note Name: G#5, Velocity: 66
Note OFF: Time 246120, Note Name: G#5
Note ON: Time 246120, Note Name: G5, Velocity: 65
Note OFF: Time 246240, Note Name: G5
Note ON: Time 246240, Note Name: F5, Velocity: 64
Note OFF: Time 246360, Note Name: F5
Note ON: Time 246360, Note Name: G5, Velocity: 63
Note OFF: Time 246480, Note Name: G5
Note ON: Time 246480, Note Name: G#5, Velocity: 63
Note OFF: Time 246600, Note Name: G#5
Note ON: Time 246600, Note Name: F5, Velocity: 62
Note OFF: Time 246720, Note Name: F5
Note ON: Time 246840, Note Name: C5, Velocity: 61
Note OFF: Time 246960, Note Name: C5
Note ON: Time 246960, Note Name: F5, Velocity: 62
Note OFF: Time 247080, Note Name: F5
Note ON: Time 247080, Note Name: G#5, Velocity: 63
Note OFF: Time 247200, Note Name: G#5
Note ON: Time 247200, Note Name: C6, Velocity: 68
Note OFF: Time 247320, Note Name: C6
Note ON: Time 247320, Note Name: C#6, Velocity: 65
Note OFF: Time 247440, Note Name: C#6
Note ON: Time 247440, Note Name: C6, Velocity: 66
Note OFF: Time 247560, Note Name: C6
Note ON: Time 247560, Note Name: A#5, Velocity: 65
Note OFF: Time 247680, Note Name: A#5
Note ON: Time 247680, Note Name: G#5, Velocity: 68
Note OFF: Time 247800, Note Name: G#5
Note ON: Time 247800, Note Name: A#5, Velocity: 67
Note OFF: Time 247920, Note Name: A#5
Note ON: Time 247920, Note Name: G#5, Velocity: 66
Note OFF: Time 248040, Note Name: G#5
Note ON: Time 248040, Note Name: G5, Velocity: 65
Note OFF: Time 248160, Note Name: G5
Note ON: Time 248160, Note Name: F5, Velocity: 64
Note OFF: Time 248280, Note Name: F5
Note ON: Time 248280, Note Name: G5, Velocity: 63
Note OFF: Time 248400, Note Name: G5
Note ON: Time 248400, Note Name: G#5, Velocity: 63
Note OFF: Time 248520, Note Name: G#5
Note ON: Time 248520, Note Name: F5, Velocity: 62
Note OFF: Time 248640, Note Name: F5
Note ON: Time 248760, Note Name: F#5, Velocity: 64
Note OFF: Time 248880, Note Name: F#5
Note ON: Time 248880, Note Name: C6, Velocity: 65
Note OFF: Time 249000, Note Name: C6
Note ON: Time 249000, Note Name: D#6, Velocity: 66
Note OFF: Time 249120, Note Name: D#6
Note ON: Time 249120, Note Name: F#6, Velocity: 72
Note OFF: Time 249240, Note Name: F#6
Note ON: Time 249240, Note Name: G#6, Velocity: 69
Note OFF: Time 249360, Note Name: G#6
Note ON: Time 249360, Note Name: F#6, Velocity: 70
Note OFF: Time 249480, Note Name: F#6
Note ON: Time 249480, Note Name: F6, Velocity: 69
Note OFF: Time 249600, Note Name: F6
Note ON: Time 249600, Note Name: D#6, Velocity: 72
Note OFF: Time 249720, Note Name: D#6
Note ON: Time 249720, Note Name: F6, Velocity: 71
Note OFF: Time 249840, Note Name: F6
Note ON: Time 249840, Note Name: D#6, Velocity: 70
Note OFF: Time 249960, Note Name: D#6
Note ON: Time 249960, Note Name: C#6, Velocity: 69
Note OFF: Time 250080, Note Name: C#6
Note ON: Time 250080, Note Name: C6, Velocity: 68
Note OFF: Time 250200, Note Name: C6
Note ON: Time 250200, Note Name: C#6, Velocity: 67
Note OFF: Time 250320, Note Name: C#6
Note ON: Time 250320, Note Name: D#6, Velocity: 66
Note OFF: Time 250440, Note Name: D#6
Note ON: Time 250440, Note Name: C6, Velocity: 65
Note OFF: Time 250560, Note Name: C6
Note ON: Time 250680, Note Name: F#5, Velocity: 64
Note OFF: Time 250800, Note Name: F#5
Note ON: Time 250800, Note Name: C6, Velocity: 65
Note OFF: Time 250920, Note Name: C6
Note ON: Time 250920, Note Name: D#6, Velocity: 66
Note OFF: Time 251040, Note Name: D#6
Note ON: Time 251040, Note Name: F#6, Velocity: 72
Note OFF: Time 251160, Note Name: F#6
Note ON: Time 251160, Note Name: G#6, Velocity: 69
Note OFF: Time 251280, Note Name: G#6
Note ON: Time 251280, Note Name: F#6, Velocity: 70
Note OFF: Time 251400, Note Name: F#6
Note ON: Time 251400, Note Name: F6, Velocity: 69
Note OFF: Time 251520, Note Name: F6
Note ON: Time 251520, Note Name: D#6, Velocity: 72
Note OFF: Time 251640, Note Name: D#6
Note ON: Time 251640, Note Name: F6, Velocity: 71
Note OFF: Time 251760, Note Name: F6
Note ON: Time 251760, Note Name: D#6, Velocity: 70
Note OFF: Time 251880, Note Name: D#6
Note ON: Time 251880, Note Name: C#6, Velocity: 69
Note OFF: Time 252000, Note Name: C#6
Note ON: Time 252000, Note Name: C6, Velocity: 68
Note OFF: Time 252120, Note Name: C6
Note ON: Time 252120, Note Name: A#5, Velocity: 67
Note OFF: Time 252240, Note Name: A#5
Note ON: Time 252240, Note Name: G#5, Velocity: 66
Note OFF: Time 252360, Note Name: G#5
Note ON: Time 252360, Note Name: F#5, Velocity: 65
Note OFF: Time 252480, Note Name: F#5
Note ON: Time 252480, Note Name: F5, Velocity: 68
Note OFF: Time 252600, Note Name: F5
Note ON: Time 252600, Note Name: G#5, Velocity: 67
Note OFF: Time 252720, Note Name: G#5
Note ON: Time 252720, Note Name: C#6, Velocity: 68
Note OFF: Time 252840, Note Name: C#6
Note ON: Time 252840, Note Name: F6, Velocity: 69
Note OFF: Time 252960, Note Name: F6
Note ON: Time 252960, Note Name: G#6, Velocity: 75
Note OFF: Time 253080, Note Name: G#6
Note ON: Time 253080, Note Name: A#6, Velocity: 72
Note OFF: Time 253200, Note Name: A#6
Note ON: Time 253200, Note Name: G#6, Velocity: 73
Note OFF: Time 253320, Note Name: G#6
Note ON: Time 253320, Note Name: F#6, Velocity: 72
Note OFF: Time 253440, Note Name: F#6
Note ON: Time 253440, Note Name: F6, Velocity: 75
Note OFF: Time 253560, Note Name: F6
Note ON: Time 253560, Note Name: F#6, Velocity: 74
Note OFF: Time 253680, Note Name: F#6
Note ON: Time 253680, Note Name: F6, Velocity: 73
Note OFF: Time 253800, Note Name: F6
Note ON: Time 253800, Note Name: D#6, Velocity: 72
Note OFF: Time 253920, Note Name: D#6
Note ON: Time 253920, Note Name: C#6, Velocity: 71
Note OFF: Time 254040, Note Name: C#6
Note ON: Time 254040, Note Name: D#6, Velocity: 70
Note OFF: Time 254160, Note Name: D#6
Note ON: Time 254160, Note Name: F6, Velocity: 69
Note OFF: Time 254280, Note Name: F6
Note ON: Time 254280, Note Name: C#6, Velocity: 68
Note OFF: Time 254400, Note Name: C#6
Note ON: Time 254520, Note Name: G#5, Velocity: 67
Note OFF: Time 254640, Note Name: G#5
Note ON: Time 254640, Note Name: C#6, Velocity: 68
Note OFF: Time 254760, Note Name: C#6
Note ON: Time 254760, Note Name: F6, Velocity: 69
Note OFF: Time 254880, Note Name: F6
Note ON: Time 254880, Note Name: G#6, Velocity: 76
Note OFF: Time 255000, Note Name: G#6
Note ON: Time 255000, Note Name: A#6, Velocity: 74
Note OFF: Time 255120, Note Name: A#6
Note ON: Time 255120, Note Name: G#6, Velocity: 75
Note OFF: Time 255240, Note Name: G#6
Note ON: Time 255240, Note Name: F#6, Velocity: 74
Note OFF: Time 255360, Note Name: F#6
Note ON: Time 255360, Note Name: F6, Velocity: 78
Note OFF: Time 255480, Note Name: F6
Note ON: Time 255480, Note Name: F#6, Velocity: 77
Note OFF: Time 255600, Note Name: F#6
Note ON: Time 255600, Note Name: G#6, Velocity: 77
Note OFF: Time 255720, Note Name: G#6
Note ON: Time 255720, Note Name: F#6, Velocity: 76
Note OFF: Time 255840, Note Name: F#6
Note ON: Time 255840, Note Name: F6, Velocity: 75
Note OFF: Time 255960, Note Name: F6
Note ON: Time 255960, Note Name: F#6, Velocity: 75
Note OFF: Time 256080, Note Name: F#6
Note ON: Time 256080, Note Name: G#6, Velocity: 74
Note OFF: Time 256200, Note Name: G#6
Note ON: Time 256200, Note Name: F6, Velocity: 74
Note OFF: Time 256320, Note Name: F6
Note ON: Time 256440, Note Name: F#6, Velocity: 70
Note OFF: Time 256560, Note Name: F#6
Note ON: Time 256560, Note Name: G#6, Velocity: 73
Note OFF: Time 256680, Note Name: G#6
Note ON: Time 256680, Note Name: F#6, Velocity: 70
Note OFF: Time 256800, Note Name: F#6
Note ON: Time 256800, Note Name: G#6, Velocity: 65
Note OFF: Time 256920, Note Name: G#6
Note ON: Time 256920, Note Name: F#6, Velocity: 63
Note OFF: Time 257040, Note Name: F#6
Note ON: Time 257040, Note Name: F6, Velocity: 59
Note OFF: Time 257160, Note Name: F6
Note ON: Time 257160, Note Name: F#6, Velocity: 59
Note OFF: Time 257280, Note Name: F#6
Note ON: Time 257400, Note Name: E6, Velocity: 58
Note OFF: Time 257520, Note Name: E6
Note ON: Time 257520, Note Name: F6, Velocity: 60
Note OFF: Time 257640, Note Name: F6
Note ON: Time 257640, Note Name: E6, Velocity: 57
Note OFF: Time 257760, Note Name: E6
Note ON: Time 257880, Note Name: F6, Velocity: 57
Note OFF: Time 258000, Note Name: F6
Note ON: Time 258000, Note Name: G6, Velocity: 60
Note OFF: Time 258120, Note Name: G6
Note ON: Time 258120, Note Name: F6, Velocity: 56
Note OFF: Time 258240, Note Name: F6
Note ON: Time 258360, Note Name: F#6, Velocity: 70
Note OFF: Time 258480, Note Name: F#6
Note ON: Time 258480, Note Name: G#6, Velocity: 73
Note OFF: Time 258600, Note Name: G#6
Note ON: Time 258600, Note Name: F#6, Velocity: 70
Note OFF: Time 258720, Note Name: F#6
Note ON: Time 258720, Note Name: G#6, Velocity: 65
Note OFF: Time 258840, Note Name: G#6
Note ON: Time 258840, Note Name: F#6, Velocity: 63
Note OFF: Time 258960, Note Name: F#6
Note ON: Time 258960, Note Name: F6, Velocity: 59
Note OFF: Time 259080, Note Name: F6
Note ON: Time 259080, Note Name: F#6, Velocity: 59
Note OFF: Time 259200, Note Name: F#6
Note ON: Time 259320, Note Name: E6, Velocity: 58
Note OFF: Time 259440, Note Name: E6
Note ON: Time 259440, Note Name: F6, Velocity: 60
Note OFF: Time 259560, Note Name: F6
Note ON: Time 259560, Note Name: E6, Velocity: 57
Note OFF: Time 259680, Note Name: E6
Note ON: Time 259800, Note Name: F6, Velocity: 57
Note OFF: Time 259920, Note Name: F6
Note ON: Time 259920, Note Name: G6, Velocity: 60
Note OFF: Time 260040, Note Name: G6
Note ON: Time 260040, Note Name: F6, Velocity: 56
Note OFF: Time 260160, Note Name: F6
Note ON: Time 260280, Note Name: F#6, Velocity: 70
Note OFF: Time 260400, Note Name: F#6
Note ON: Time 260400, Note Name: G#6, Velocity: 73
Note OFF: Time 260520, Note Name: G#6
Note ON: Time 260520, Note Name: F#6, Velocity: 70
Note OFF: Time 260640, Note Name: F#6
Note ON: Time 260640, Note Name: G#6, Velocity: 73
Note OFF: Time 260760, Note Name: G#6
Note ON: Time 260760, Note Name: F#6, Velocity: 70
Note OFF: Time 260880, Note Name: F#6
Note ON: Time 260880, Note Name: F6, Velocity: 59
Note OFF: Time 261000, Note Name: F6
Note ON: Time 261000, Note Name: G6, Velocity: 59
Note OFF: Time 261120, Note Name: G6
Note ON: Time 261240, Note Name: E6, Velocity: 58
Note OFF: Time 261360, Note Name: E6
Note ON: Time 261360, Note Name: F6, Velocity: 60
Note OFF: Time 261480, Note Name: F6
Note ON: Time 261480, Note Name: E6, Velocity: 58
Note OFF: Time 261600, Note Name: E6
Note ON: Time 261720, Note Name: C#6, Velocity: 58
Note OFF: Time 261840, Note Name: C#6
Note ON: Time 261840, Note Name: D#6, Velocity: 61
Note OFF: Time 261960, Note Name: D#6
Note ON: Time 261960, Note Name: C#6, Velocity: 57
Note OFF: Time 262080, Note Name: C#6
Note ON: Time 262200, Note Name: C6, Velocity: 60
Note OFF: Time 262320, Note Name: C6
Note ON: Time 262320, Note Name: C#6, Velocity: 62
Note OFF: Time 262440, Note Name: C#6
Note ON: Time 262440, Note Name: C6, Velocity: 60
Note OFF: Time 262560, Note Name: C6
Note ON: Time 262680, Note Name: B5, Velocity: 61
Note OFF: Time 262800, Note Name: B5
Note ON: Time 262800, Note Name: C6, Velocity: 65
Note OFF: Time 262920, Note Name: C6
Note ON: Time 262920, Note Name: B5, Velocity: 62
Note OFF: Time 263040, Note Name: B5
Note ON: Time 263160, Note Name: A#5, Velocity: 65
Note OFF: Time 263280, Note Name: A#5
Note ON: Time 263280, Note Name: C6, Velocity: 67
Note OFF: Time 263400, Note Name: C6
Note ON: Time 263400, Note Name: A#5, Velocity: 64
Note OFF: Time 263520, Note Name: A#5
Note ON: Time 263640, Note Name: G#5, Velocity: 66
Note OFF: Time 263760, Note Name: G#5
Note ON: Time 263760, Note Name: A#5, Velocity: 69
Note OFF: Time 263880, Note Name: A#5
Note ON: Time 263880, Note Name: G#5, Velocity: 67
Note OFF: Time 264000, Note Name: G#5
Note ON: Time 264120, Note Name: G#5, Velocity: 67
Note OFF: Time 264240, Note Name: G#5
Note ON: Time 264240, Note Name: A#5, Velocity: 70
Note OFF: Time 264360, Note Name: A#5
Note ON: Time 264360, Note Name: G#5, Velocity: 68
Note OFF: Time 264480, Note Name: G#5
Note ON: Time 264600, Note Name: G5, Velocity: 66
Note OFF: Time 264720, Note Name: G5
Note ON: Time 264720, Note Name: G#5, Velocity: 69
Note OFF: Time 264840, Note Name: G#5
Note ON: Time 264840, Note Name: G5, Velocity: 64
Note OFF: Time 264960, Note Name: G5
Note ON: Time 265080, Note Name: F5, Velocity: 64
Note OFF: Time 265200, Note Name: F5
Note ON: Time 265200, Note Name: G5, Velocity: 65
Note OFF: Time 265320, Note Name: G5
Note ON: Time 265320, Note Name: F5, Velocity: 62
Note OFF: Time 265440, Note Name: F5
Note ON: Time 265560, Note Name: E5, Velocity: 60
Note OFF: Time 265680, Note Name: E5
Note ON: Time 265680, Note Name: F5, Velocity: 62
Note OFF: Time 265800, Note Name: F5
Note ON: Time 265800, Note Name: E5, Velocity: 57
Note OFF: Time 265920, Note Name: E5
Note ON: Time 266040, Note Name: C#4, Velocity: 66
Note OFF: Time 266160, Note Name: C#4
Note ON: Time 266160, Note Name: C#5, Velocity: 73
Note OFF: Time 266280, Note Name: C#5
Note ON: Time 266280, Note Name: C#4, Velocity: 59
Note OFF: Time 266400, Note Name: C#4
Note ON: Time 266400, Note Name: C#5, Velocity: 71
Note OFF: Time 266520, Note Name: C#5
Note ON: Time 266520, Note Name: C#4, Velocity: 58
Note OFF: Time 266640, Note Name: C#4
Note ON: Time 266640, Note Name: C#5, Velocity: 63
Note OFF: Time 266760, Note Name: C#5
Note ON: Time 266760, Note Name: C#4, Velocity: 59
Note OFF: Time 266880, Note Name: C#4
Note ON: Time 267000, Note Name: C#4, Velocity: 60
Note OFF: Time 267120, Note Name: C#4
Note ON: Time 267120, Note Name: C#5, Velocity: 71
Note OFF: Time 267240, Note Name: C#5
Note ON: Time 267240, Note Name: C5, Velocity: 66
Note OFF: Time 267360, Note Name: C5
Note ON: Time 267360, Note Name: A#4, Velocity: 68
Note OFF: Time 267480, Note Name: A#4
Note ON: Time 267480, Note Name: G#4, Velocity: 66
Note OFF: Time 267600, Note Name: G#4
Note ON: Time 267600, Note Name: G4, Velocity: 65
Note OFF: Time 267720, Note Name: G4
Note ON: Time 267720, Note Name: F4, Velocity: 58
Note OFF: Time 267840, Note Name: F4
Note ON: Time 267960, Note Name: C#5, Velocity: 68
Note OFF: Time 268080, Note Name: C#5
Note ON: Time 268080, Note Name: C#6, Velocity: 75
Note OFF: Time 268200, Note Name: C#6
Note ON: Time 268200, Note Name: C#5, Velocity: 67
Note OFF: Time 268320, Note Name: C#5
Note ON: Time 268320, Note Name: C#6, Velocity: 74
Note OFF: Time 268440, Note Name: C#6
Note ON: Time 268440, Note Name: C#5, Velocity: 67
Note OFF: Time 268560, Note Name: C#5
Note ON: Time 268560, Note Name: C#6, Velocity: 69
Note OFF: Time 268680, Note Name: C#6
Note ON: Time 268680, Note Name: C#5, Velocity: 60
Note OFF: Time 268800, Note Name: C#5
Note ON: Time 268920, Note Name: C#5, Velocity: 61
Note OFF: Time 269040, Note Name: C#5
Note ON: Time 269040, Note Name: C#6, Velocity: 73
Note OFF: Time 269160, Note Name: C#6
Note ON: Time 269160, Note Name: C6, Velocity: 66
Note OFF: Time 269280, Note Name: C6
Note ON: Time 269280, Note Name: A#5, Velocity: 70
Note OFF: Time 269400, Note Name: A#5
Note ON: Time 269400, Note Name: G#5, Velocity: 68
Note OFF: Time 269520, Note Name: G#5
Note ON: Time 269520, Note Name: G5, Velocity: 67
Note OFF: Time 269640, Note Name: G5
Note ON: Time 269640, Note Name: F5, Velocity: 65
Note OFF: Time 269760, Note Name: F5
Note ON: Time 269880, Note Name: C#4, Velocity: 66
Note OFF: Time 270000, Note Name: C#4
Note ON: Time 270000, Note Name: C#5, Velocity: 73
Note OFF: Time 270120, Note Name: C#5
Note ON: Time 270120, Note Name: C#4, Velocity: 66
Note OFF: Time 270240, Note Name: C#4
Note ON: Time 270240, Note Name: C#5, Velocity: 73
Note OFF: Time 270360, Note Name: C#5
Note ON: Time 270360, Note Name: C#4, Velocity: 66
Note OFF: Time 270480, Note Name: C#4
Note ON: Time 270480, Note Name: C#5, Velocity: 68
Note OFF: Time 270600, Note Name: C#5
Note ON: Time 270600, Note Name: C#4, Velocity: 61
Note OFF: Time 270720, Note Name: C#4
Note ON: Time 270840, Note Name: C#5, Velocity: 68
Note OFF: Time 270960, Note Name: C#5
Note ON: Time 270960, Note Name: C#4, Velocity: 60
Note OFF: Time 271080, Note Name: C#4
Note ON: Time 271080, Note Name: C#5, Velocity: 68
Note OFF: Time 271200, Note Name: C#5
Note ON: Time 271320, Note Name: C#6, Velocity: 78
Note OFF: Time 271440, Note Name: C#6
Note ON: Time 271440, Note Name: C#5, Velocity: 69
Note OFF: Time 271560, Note Name: C#5
Note ON: Time 271560, Note Name: C#6, Velocity: 75
Note OFF: Time 271680, Note Name: C#6
Note ON: Time 271800, Note Name: C6, Velocity: 76
Note OFF: Time 271920, Note Name: C6
Note ON: Time 271920, Note Name: C5, Velocity: 71
Note OFF: Time 272040, Note Name: C5
Note ON: Time 272040, Note Name: C6, Velocity: 75
Note OFF: Time 272160, Note Name: C6
Note ON: Time 272280, Note Name: B5, Velocity: 77
Note OFF: Time 272400, Note Name: B5
Note ON: Time 272400, Note Name: B4, Velocity: 71
Note OFF: Time 272520, Note Name: B4
Note ON: Time 272520, Note Name: B5, Velocity: 74
Note OFF: Time 272640, Note Name: B5
Note ON: Time 272760, Note Name: A#5, Velocity: 78
Note OFF: Time 272880, Note Name: A#5
Note ON: Time 272880, Note Name: A#4, Velocity: 69
Note OFF: Time 273000, Note Name: A#4
Note ON: Time 273000, Note Name: A#5, Velocity: 77
Note OFF: Time 273120, Note Name: A#5
Note ON: Time 273240, Note Name: G#5, Velocity: 77
Note OFF: Time 273360, Note Name: G#5
Note ON: Time 273360, Note Name: G#4, Velocity: 71
Note ON: Time 273360, Note Name: C5, Velocity: 71
Note OFF: Time 273480, Note Name: C5
Note OFF: Time 273480, Note Name: G#4
Note ON: Time 273480, Note Name: G#5, Velocity: 77
Note OFF: Time 273600, Note Name: G#5
Note ON: Time 273720, Note Name: G#5, Velocity: 75
Note OFF: Time 273840, Note Name: G#5
Note ON: Time 273840, Note Name: D5, Velocity: 68
Note ON: Time 273840, Note Name: G#4, Velocity: 68
Note OFF: Time 273960, Note Name: G#4
Note OFF: Time 273960, Note Name: D5
Note ON: Time 273960, Note Name: G#5, Velocity: 75
Note OFF: Time 274080, Note Name: G#5
Note ON: Time 274200, Note Name: G5, Velocity: 73
Note OFF: Time 274320, Note Name: G5
Note ON: Time 274320, Note Name: D5, Velocity: 66
Note ON: Time 274320, Note Name: G4, Velocity: 66
Note OFF: Time 274440, Note Name: G4
Note OFF: Time 274440, Note Name: D5
Note ON: Time 274440, Note Name: G5, Velocity: 73
Note OFF: Time 274560, Note Name: G5
Note ON: Time 274680, Note Name: F5, Velocity: 71
Note OFF: Time 274800, Note Name: F5
Note ON: Time 274800, Note Name: G#4, Velocity: 66
Note ON: Time 274800, Note Name: F4, Velocity: 66
Note OFF: Time 274920, Note Name: F4
Note OFF: Time 274920, Note Name: G#4
Note ON: Time 274920, Note Name: F5, Velocity: 71
Note OFF: Time 275040, Note Name: F5
Note ON: Time 275160, Note Name: E5, Velocity: 72
Note OFF: Time 275280, Note Name: E5
Note ON: Time 275280, Note Name: G4, Velocity: 66
Note ON: Time 275280, Note Name: E4, Velocity: 66
Note OFF: Time 275400, Note Name: E4
Note OFF: Time 275400, Note Name: G4
Note ON: Time 275400, Note Name: E5, Velocity: 69
Note OFF: Time 275520, Note Name: E5
Note ON: Time 275520, Note Name: F4, Velocity: 65
Note ON: Time 275520, Note Name: G#4, Velocity: 65
Note ON: Time 275520, Note Name: F5, Velocity: 77
Note OFF: Time 275640, Note Name: F5
Note OFF: Time 275640, Note Name: G#4
Note OFF: Time 275640, Note Name: F4
Note ON: Time 275640, Note Name: C4, Velocity: 74
Note OFF: Time 275760, Note Name: C4
Note ON: Time 275760, Note Name: F4, Velocity: 76
Note OFF: Time 275880, Note Name: F4
Note ON: Time 275880, Note Name: G#4, Velocity: 78
Note OFF: Time 276000, Note Name: G#4
Note ON: Time 276000, Note Name: C5, Velocity: 80
Note OFF: Time 276120, Note Name: C5
Note ON: Time 276120, Note Name: C#5, Velocity: 76
Note OFF: Time 276240, Note Name: C#5
Note ON: Time 276240, Note Name: C5, Velocity: 76
Note OFF: Time 276360, Note Name: C5
Note ON: Time 276360, Note Name: A#4, Velocity: 76
Note OFF: Time 276480, Note Name: A#4
Note ON: Time 276480, Note Name: G#4, Velocity: 77
Note OFF: Time 276600, Note Name: G#4
Note ON: Time 276600, Note Name: A#4, Velocity: 71
Note OFF: Time 276720, Note Name: A#4
Note ON: Time 276720, Note Name: G#4, Velocity: 72
Note OFF: Time 276840, Note Name: G#4
Note ON: Time 276840, Note Name: G4, Velocity: 72
Note OFF: Time 276960, Note Name: G4
Note ON: Time 276960, Note Name: F4, Velocity: 78
Note OFF: Time 277080, Note Name: F4
Note ON: Time 277080, Note Name: D#4, Velocity: 73
Note OFF: Time 277200, Note Name: D#4
Note ON: Time 277200, Note Name: C#4, Velocity: 73
Note OFF: Time 277320, Note Name: C#4
Note ON: Time 277320, Note Name: C4, Velocity: 72
Note OFF: Time 277440, Note Name: C4
Note ON: Time 277440, Note Name: A#3, Velocity: 75
Note OFF: Time 277560, Note Name: A#3
Note ON: Time 277560, Note Name: G#3, Velocity: 70
Note OFF: Time 277680, Note Name: G#3
Note ON: Time 277680, Note Name: F#3, Velocity: 70
Note OFF: Time 277800, Note Name: F#3
Note ON: Time 277800, Note Name: F3, Velocity: 70
Note OFF: Time 277920, Note Name: F3
Note ON: Time 277920, Note Name: E3, Velocity: 73
Note OFF: Time 278160, Note Name: E3
Note ON: Time 278160, Note Name: C3, Velocity: 69
Note ON: Time 278160, Note Name: E3, Velocity: 69
Note ON: Time 278160, Note Name: F#3, Velocity: 69
Note ON: Time 278160, Note Name: C4, Velocity: 82
Note OFF: Time 278340, Note Name: C4
Note OFF: Time 278340, Note Name: C3
Note OFF: Time 278340, Note Name: E3
Note OFF: Time 278340, Note Name: F#3
Note ON: Time 278400, Note Name: C3, Velocity: 61
Note ON: Time 278400, Note Name: E3, Velocity: 61
Note ON: Time 278400, Note Name: A#3, Velocity: 73
Note ON: Time 278400, Note Name: C4, Velocity: 73
Note OFF: Time 278580, Note Name: C4
Note OFF: Time 278580, Note Name: C3
Note OFF: Time 278580, Note Name: E3
Note OFF: Time 278580, Note Name: A#3
Note ON: Time 278640, Note Name: C3, Velocity: 60
Note ON: Time 278640, Note Name: E3, Velocity: 60
Note ON: Time 278640, Note Name: A#3, Velocity: 71
Note ON: Time 278640, Note Name: C4, Velocity: 71
Note OFF: Time 278820, Note Name: C4
Note OFF: Time 278820, Note Name: C3
Note OFF: Time 278820, Note Name: E3
Note OFF: Time 278820, Note Name: A#3
Note ON: Time 278880, Note Name: C3, Velocity: 61
Note ON: Time 278880, Note Name: E3, Velocity: 61
Note ON: Time 278880, Note Name: A#3, Velocity: 72
Note ON: Time 278880, Note Name: C4, Velocity: 72
Note OFF: Time 279060, Note Name: C4
Note OFF: Time 279060, Note Name: C3
Note OFF: Time 279060, Note Name: E3
Note OFF: Time 279060, Note Name: A#3
Note ON: Time 279120, Note Name: C3, Velocity: 61
Note ON: Time 279120, Note Name: E3, Velocity: 61
Note ON: Time 279120, Note Name: A#3, Velocity: 72
Note ON: Time 279120, Note Name: C4, Velocity: 72
Note OFF: Time 279300, Note Name: C4
Note OFF: Time 279300, Note Name: C3
Note OFF: Time 279300, Note Name: E3
Note OFF: Time 279300, Note Name: A#3
Note ON: Time 279360, Note Name: C3, Velocity: 77
Note ON: Time 279360, Note Name: F3, Velocity: 77
Note ON: Time 279360, Note Name: G#3, Velocity: 77
Note ON: Time 279360, Note Name: C4, Velocity: 77
Note OFF: Time 279480, Note Name: C4
Note OFF: Time 279480, Note Name: C3
Note OFF: Time 279480, Note Name: F3
Note OFF: Time 279480, Note Name: G#3
Note ON: Time 279480, Note Name: C5, Velocity: 74
Note OFF: Time 279600, Note Name: C5
Note ON: Time 279600, Note Name: F5, Velocity: 76
Note OFF: Time 279720, Note Name: F5
Note ON: Time 279720, Note Name: G#5, Velocity: 78
Note OFF: Time 279840, Note Name: G#5
Note ON: Time 279840, Note Name: C6, Velocity: 80
Note OFF: Time 279960, Note Name: C6
Note ON: Time 279960, Note Name: C#6, Velocity: 76
Note OFF: Time 280080, Note Name: C#6
Note ON: Time 280080, Note Name: C6, Velocity: 76
Note OFF: Time 280200, Note Name: C6
Note ON: Time 280200, Note Name: A#5, Velocity: 76
Note OFF: Time 280320, Note Name: A#5
Note ON: Time 280320, Note Name: G#5, Velocity: 77
Note OFF: Time 280440, Note Name: G#5
Note ON: Time 280440, Note Name: A#5, Velocity: 71
Note OFF: Time 280560, Note Name: A#5
Note ON: Time 280560, Note Name: G#5, Velocity: 72
Note OFF: Time 280680, Note Name: G#5
Note ON: Time 280680, Note Name: G5, Velocity: 72
Note OFF: Time 280800, Note Name: G5
Note ON: Time 280800, Note Name: F5, Velocity: 78
Note OFF: Time 280920, Note Name: F5
Note ON: Time 280920, Note Name: D#5, Velocity: 73
Note OFF: Time 281040, Note Name: D#5
Note ON: Time 281040, Note Name: C#5, Velocity: 73
Note OFF: Time 281160, Note Name: C#5
Note ON: Time 281160, Note Name: C5, Velocity: 72
Note OFF: Time 281280, Note Name: C5
Note ON: Time 281280, Note Name: A#4, Velocity: 75
Note OFF: Time 281400, Note Name: A#4
Note ON: Time 281400, Note Name: G#4, Velocity: 70
Note OFF: Time 281520, Note Name: G#4
Note ON: Time 281520, Note Name: G4, Velocity: 70
Note OFF: Time 281640, Note Name: G4
Note ON: Time 281640, Note Name: F4, Velocity: 70
Note OFF: Time 281760, Note Name: F4
Note ON: Time 281760, Note Name: E4, Velocity: 73
Note OFF: Time 282000, Note Name: E4
Note ON: Time 282000, Note Name: C4, Velocity: 58
Note ON: Time 282000, Note Name: E4, Velocity: 69
Note ON: Time 282000, Note Name: G4, Velocity: 69
Note ON: Time 282000, Note Name: C5, Velocity: 82
Note OFF: Time 282180, Note Name: C5
Note OFF: Time 282180, Note Name: C4
Note OFF: Time 282180, Note Name: E4
Note OFF: Time 282180, Note Name: G4
Note ON: Time 282240, Note Name: C4, Velocity: 51
Note ON: Time 282240, Note Name: E4, Velocity: 61
Note ON: Time 282240, Note Name: A#4, Velocity: 73
Note ON: Time 282240, Note Name: C5, Velocity: 73
Note OFF: Time 282420, Note Name: C5
Note OFF: Time 282420, Note Name: C4
Note OFF: Time 282420, Note Name: E4
Note OFF: Time 282420, Note Name: A#4
Note ON: Time 282480, Note Name: C4, Velocity: 50
Note ON: Time 282480, Note Name: E4, Velocity: 59
Note ON: Time 282480, Note Name: A#4, Velocity: 70
Note ON: Time 282480, Note Name: C5, Velocity: 70
Note OFF: Time 282660, Note Name: C5
Note OFF: Time 282660, Note Name: C4
Note OFF: Time 282660, Note Name: E4
Note OFF: Time 282660, Note Name: A#4
Note ON: Time 282720, Note Name: C4, Velocity: 51
Note ON: Time 282720, Note Name: E4, Velocity: 61
Note ON: Time 282720, Note Name: A#4, Velocity: 73
Note ON: Time 282720, Note Name: C5, Velocity: 73
Note OFF: Time 282900, Note Name: C5
Note OFF: Time 282900, Note Name: C4
Note OFF: Time 282900, Note Name: E4
Note OFF: Time 282900, Note Name: A#4
Note ON: Time 282960, Note Name: C4, Velocity: 51
Note ON: Time 282960, Note Name: E4, Velocity: 60
Note ON: Time 282960, Note Name: A#4, Velocity: 71
Note ON: Time 282960, Note Name: C5, Velocity: 71
Note OFF: Time 283140, Note Name: C5
Note OFF: Time 283140, Note Name: C4
Note OFF: Time 283140, Note Name: E4
Note OFF: Time 283140, Note Name: A#4
Note ON: Time 283200, Note Name: C4, Velocity: 51
Note ON: Time 283200, Note Name: F4, Velocity: 61
Note ON: Time 283200, Note Name: G#4, Velocity: 73
Note ON: Time 283200, Note Name: C5, Velocity: 73
Note OFF: Time 283440, Note Name: C5
Note OFF: Time 283440, Note Name: C4
Note OFF: Time 283440, Note Name: F4
Note OFF: Time 283440, Note Name: G#4
Note ON: Time 283920, Note Name: C5, Velocity: 63
Note ON: Time 283920, Note Name: F5, Velocity: 75
Note ON: Time 283920, Note Name: G#5, Velocity: 75
Note ON: Time 283920, Note Name: C6, Velocity: 90
Note OFF: Time 284100, Note Name: C6
Note OFF: Time 284100, Note Name: C5
Note OFF: Time 284100, Note Name: F5
Note OFF: Time 284100, Note Name: G#5
Note ON: Time 284160, Note Name: C5, Velocity: 56
Note ON: Time 284160, Note Name: E5, Velocity: 67
Note ON: Time 284160, Note Name: A#5, Velocity: 80
Note ON: Time 284160, Note Name: C6, Velocity: 80
Note OFF: Time 284340, Note Name: C6
Note OFF: Time 284340, Note Name: C5
Note OFF: Time 284340, Note Name: E5
Note OFF: Time 284340, Note Name: A#5
Note ON: Time 284400, Note Name: C5, Velocity: 55
Note ON: Time 284400, Note Name: E5, Velocity: 64
Note ON: Time 284400, Note Name: A#5, Velocity: 77
Note ON: Time 284400, Note Name: C6, Velocity: 77
Note OFF: Time 284580, Note Name: C6
Note OFF: Time 284580, Note Name: C5
Note OFF: Time 284580, Note Name: E5
Note OFF: Time 284580, Note Name: A#5
Note ON: Time 284640, Note Name: C5, Velocity: 56
Note ON: Time 284640, Note Name: E5, Velocity: 67
Note ON: Time 284640, Note Name: A#5, Velocity: 80
Note ON: Time 284640, Note Name: C6, Velocity: 80
Note OFF: Time 284820, Note Name: C6
Note OFF: Time 284820, Note Name: C5
Note OFF: Time 284820, Note Name: E5
Note OFF: Time 284820, Note Name: A#5
Note ON: Time 284880, Note Name: C5, Velocity: 56
Note ON: Time 284880, Note Name: E5, Velocity: 66
Note ON: Time 284880, Note Name: A#5, Velocity: 78
Note ON: Time 284880, Note Name: C6, Velocity: 78
Note OFF: Time 285060, Note Name: C6
Note OFF: Time 285060, Note Name: C5
Note OFF: Time 285060, Note Name: E5
Note OFF: Time 285060, Note Name: A#5
Note ON: Time 285120, Note Name: C5, Velocity: 56
Note ON: Time 285120, Note Name: F5, Velocity: 67
Note ON: Time 285120, Note Name: G#5, Velocity: 80
Note ON: Time 285120, Note Name: C6, Velocity: 80
Note OFF: Time 285300, Note Name: C6
Note OFF: Time 285300, Note Name: C5
Note OFF: Time 285300, Note Name: F5
Note OFF: Time 285300, Note Name: G#5
Note ON: Time 285840, Note Name: C4, Velocity: 58
Note ON: Time 285840, Note Name: F4, Velocity: 69
Note ON: Time 285840, Note Name: G#4, Velocity: 69
Note ON: Time 285840, Note Name: C5, Velocity: 82
Note OFF: Time 286020, Note Name: C5
Note OFF: Time 286020, Note Name: C4
Note OFF: Time 286020, Note Name: F4
Note OFF: Time 286020, Note Name: G#4
Note ON: Time 286080, Note Name: C4, Velocity: 51
Note ON: Time 286080, Note Name: E4, Velocity: 61
Note ON: Time 286080, Note Name: A#4, Velocity: 73
Note ON: Time 286080, Note Name: C5, Velocity: 73
Note OFF: Time 286260, Note Name: C5
Note OFF: Time 286260, Note Name: C4
Note OFF: Time 286260, Note Name: E4
Note OFF: Time 286260, Note Name: A#4
Note ON: Time 286320, Note Name: C4, Velocity: 50
Note ON: Time 286320, Note Name: E4, Velocity: 59
Note ON: Time 286320, Note Name: A#4, Velocity: 70
Note ON: Time 286320, Note Name: C5, Velocity: 70
Note OFF: Time 286500, Note Name: C5
Note OFF: Time 286500, Note Name: C4
Note OFF: Time 286500, Note Name: E4
Note OFF: Time 286500, Note Name: A#4
Note ON: Time 286560, Note Name: C4, Velocity: 51
Note ON: Time 286560, Note Name: E4, Velocity: 61
Note ON: Time 286560, Note Name: A#4, Velocity: 73
Note ON: Time 286560, Note Name: C5, Velocity: 73
Note OFF: Time 286740, Note Name: C5
Note OFF: Time 286740, Note Name: C4
Note OFF: Time 286740, Note Name: E4
Note OFF: Time 286740, Note Name: A#4
Note ON: Time 286800, Note Name: C4, Velocity: 51
Note ON: Time 286800, Note Name: E4, Velocity: 60
Note ON: Time 286800, Note Name: A#4, Velocity: 71
Note ON: Time 286800, Note Name: C5, Velocity: 71
Note OFF: Time 286980, Note Name: C5
Note OFF: Time 286980, Note Name: C4
Note OFF: Time 286980, Note Name: E4
Note OFF: Time 286980, Note Name: A#4
Note ON: Time 287040, Note Name: C4, Velocity: 56
Note ON: Time 287040, Note Name: F4, Velocity: 67
Note ON: Time 287040, Note Name: G#4, Velocity: 67
Note ON: Time 287040, Note Name: C5, Velocity: 80
Note OFF: Time 287220, Note Name: C5
Note OFF: Time 287220, Note Name: C4
Note OFF: Time 287220, Note Name: F4
Note OFF: Time 287220, Note Name: G#4
Note ON: Time 287280, Note Name: C5, Velocity: 70
Note ON: Time 287280, Note Name: F5, Velocity: 70
Note ON: Time 287280, Note Name: G#5, Velocity: 70
Note ON: Time 287280, Note Name: C6, Velocity: 84
Note OFF: Time 287460, Note Name: C6
Note OFF: Time 287460, Note Name: C5
Note OFF: Time 287460, Note Name: F5
Note OFF: Time 287460, Note Name: G#5
Note ON: Time 287520, Note Name: C5, Velocity: 74
Note ON: Time 287520, Note Name: F5, Velocity: 74
Note ON: Time 287520, Note Name: G#5, Velocity: 74
Note ON: Time 287520, Note Name: C6, Velocity: 90
Note OFF: Time 287700, Note Name: C6
Note OFF: Time 287700, Note Name: C5
Note OFF: Time 287700, Note Name: F5
Note OFF: Time 287700, Note Name: G#5
Note ON: Time 287760, Note Name: C5, Velocity: 73
Note ON: Time 287760, Note Name: F5, Velocity: 73
Note ON: Time 287760, Note Name: G#5, Velocity: 73
Note ON: Time 287760, Note Name: C6, Velocity: 88
Note OFF: Time 287940, Note Name: C6
Note OFF: Time 287940, Note Name: C5
Note OFF: Time 287940, Note Name: F5
Note OFF: Time 287940, Note Name: G#5
Note ON: Time 288000, Note Name: C5, Velocity: 64
Note ON: Time 288000, Note Name: E5, Velocity: 78
Note ON: Time 288000, Note Name: A#5, Velocity: 78
Note ON: Time 288000, Note Name: C6, Velocity: 93
Note OFF: Time 288180, Note Name: C6
Note OFF: Time 288180, Note Name: C5
Note OFF: Time 288180, Note Name: E5
Note OFF: Time 288180, Note Name: A#5
Note ON: Time 288240, Note Name: C5, Velocity: 64
Note ON: Time 288240, Note Name: E5, Velocity: 75
Note ON: Time 288240, Note Name: A#5, Velocity: 75
Note ON: Time 288240, Note Name: C6, Velocity: 91
Note OFF: Time 288420, Note Name: C6
Note OFF: Time 288420, Note Name: C5
Note OFF: Time 288420, Note Name: E5
Note OFF: Time 288420, Note Name: A#5
Note ON: Time 288480, Note Name: C5, Velocity: 68
Note ON: Time 288480, Note Name: E5, Velocity: 81
Note ON: Time 288480, Note Name: A#5, Velocity: 81
Note ON: Time 288480, Note Name: C6, Velocity: 97
Note OFF: Time 288660, Note Name: C6
Note OFF: Time 288660, Note Name: C5
Note OFF: Time 288660, Note Name: E5
Note OFF: Time 288660, Note Name: A#5
Note ON: Time 288720, Note Name: C5, Velocity: 69
Note ON: Time 288720, Note Name: E5, Velocity: 82
Note ON: Time 288720, Note Name: A#5, Velocity: 82
Note ON: Time 288720, Note Name: C6, Velocity: 96
Note OFF: Time 288900, Note Name: C6
Note OFF: Time 288900, Note Name: C5
Note OFF: Time 288900, Note Name: E5
Note OFF: Time 288900, Note Name: A#5
Note ON: Time 288960, Note Name: C5, Velocity: 72
Note ON: Time 288960, Note Name: D#5, Velocity: 85
Note ON: Time 288960, Note Name: A5, Velocity: 102
Note ON: Time 288960, Note Name: C6, Velocity: 102
Note OFF: Time 289080, Note Name: C6
Note OFF: Time 289080, Note Name: C5
Note OFF: Time 289080, Note Name: D#5
Note OFF: Time 289080, Note Name: A5
Note ON: Time 289080, Note Name: A3, Velocity: 70
Note OFF: Time 289200, Note Name: A3
Note ON: Time 289200, Note Name: C4, Velocity: 71
Note OFF: Time 289320, Note Name: C4
Note ON: Time 289320, Note Name: D#4, Velocity: 72
Note OFF: Time 289440, Note Name: D#4
Note ON: Time 289440, Note Name: F#4, Velocity: 72
Note OFF: Time 289560, Note Name: F#4
Note ON: Time 289560, Note Name: A4, Velocity: 72
Note OFF: Time 289680, Note Name: A4
Note ON: Time 289680, Note Name: C5, Velocity: 73
Note OFF: Time 289800, Note Name: C5
Note ON: Time 289800, Note Name: D#5, Velocity: 74
Note OFF: Time 289920, Note Name: D#5
Note ON: Time 289920, Note Name: F#5, Velocity: 75
Note OFF: Time 290040, Note Name: F#5
Note ON: Time 290040, Note Name: A5, Velocity: 77
Note OFF: Time 290160, Note Name: A5
Note ON: Time 290160, Note Name: C6, Velocity: 79
Note OFF: Time 290280, Note Name: C6
Note ON: Time 290280, Note Name: D#6, Velocity: 81
Note OFF: Time 290400, Note Name: D#6
Note ON: Time 290400, Note Name: F#6, Velocity: 83
Note OFF: Time 290520, Note Name: F#6
Note ON: Time 290520, Note Name: D#6, Velocity: 83
Note OFF: Time 290640, Note Name: D#6
Note ON: Time 290640, Note Name: C6, Velocity: 82
Note OFF: Time 290760, Note Name: C6
Note ON: Time 290760, Note Name: A5, Velocity: 81
Note OFF: Time 290880, Note Name: A5
Note ON: Time 290880, Note Name: F#5, Velocity: 81
Note OFF: Time 291000, Note Name: F#5
Note ON: Time 291000, Note Name: D#5, Velocity: 80
Note OFF: Time 291120, Note Name: D#5
Note ON: Time 291120, Note Name: C5, Velocity: 79
Note OFF: Time 291240, Note Name: C5
Note ON: Time 291240, Note Name: A4, Velocity: 78
Note OFF: Time 291360, Note Name: A4
Note ON: Time 291360, Note Name: F#4, Velocity: 77
Note OFF: Time 291480, Note Name: F#4
Note ON: Time 291480, Note Name: D#4, Velocity: 76
Note OFF: Time 291600, Note Name: D#4
Note ON: Time 291600, Note Name: C4, Velocity: 75
Note OFF: Time 291720, Note Name: C4
Note ON: Time 294840, Note Name: A3, Velocity: 40
Note OFF: Time 294960, Note Name: A3
Note ON: Time 294960, Note Name: C4, Velocity: 37
Note OFF: Time 295080, Note Name: C4
Note ON: Time 295080, Note Name: D#4, Velocity: 37
Note OFF: Time 295200, Note Name: D#4
Note ON: Time 295200, Note Name: F#4, Velocity: 40
Note OFF: Time 295320, Note Name: F#4
Note ON: Time 295320, Note Name: G#4, Velocity: 38
Note OFF: Time 295440, Note Name: G#4
Note ON: Time 295440, Note Name: F#4, Velocity: 38
Note OFF: Time 295560, Note Name: F#4
Note ON: Time 295560, Note Name: F4, Velocity: 38
Note OFF: Time 295680, Note Name: F4
Note ON: Time 295680, Note Name: D#4, Velocity: 40
Note OFF: Time 295800, Note Name: D#4
Note ON: Time 295800, Note Name: F4, Velocity: 37
Note OFF: Time 295920, Note Name: F4
Note ON: Time 295920, Note Name: D#4, Velocity: 37
Note OFF: Time 296040, Note Name: D#4
Note ON: Time 296040, Note Name: C#4, Velocity: 37
Note OFF: Time 296160, Note Name: C#4
Note ON: Time 296160, Note Name: C4, Velocity: 40
Note OFF: Time 296280, Note Name: C4
Note ON: Time 296280, Note Name: C#4, Velocity: 37
Note OFF: Time 296400, Note Name: C#4
Note ON: Time 296400, Note Name: D#4, Velocity: 37
Note OFF: Time 296520, Note Name: D#4
Note ON: Time 296520, Note Name: C4, Velocity: 37
Note OFF: Time 296640, Note Name: C4
Note ON: Time 296760, Note Name: A3, Velocity: 40
Note OFF: Time 296880, Note Name: A3
Note ON: Time 296880, Note Name: C4, Velocity: 37
Note OFF: Time 297000, Note Name: C4
Note ON: Time 297000, Note Name: D#4, Velocity: 37
Note OFF: Time 297120, Note Name: D#4
Note ON: Time 297120, Note Name: F#4, Velocity: 40
Note OFF: Time 297240, Note Name: F#4
Note ON: Time 297240, Note Name: G#4, Velocity: 38
Note OFF: Time 297360, Note Name: G#4
Note ON: Time 297360, Note Name: F#4, Velocity: 38
Note OFF: Time 297480, Note Name: F#4
Note ON: Time 297480, Note Name: F4, Velocity: 38
Note OFF: Time 297600, Note Name: F4
Note ON: Time 297600, Note Name: D#4, Velocity: 40
Note OFF: Time 297720, Note Name: D#4
Note ON: Time 297720, Note Name: F4, Velocity: 37
Note OFF: Time 297840, Note Name: F4
Note ON: Time 297840, Note Name: D#4, Velocity: 37
Note OFF: Time 297960, Note Name: D#4
Note ON: Time 297960, Note Name: C#4, Velocity: 37
Note OFF: Time 298080, Note Name: C#4
Note ON: Time 298080, Note Name: C4, Velocity: 40
Note OFF: Time 298200, Note Name: C4
Note ON: Time 298200, Note Name: C#4, Velocity: 37
Note OFF: Time 298320, Note Name: C#4
Note ON: Time 298320, Note Name: D#4, Velocity: 37
Note OFF: Time 298440, Note Name: D#4
Note ON: Time 298440, Note Name: C4, Velocity: 37
Note OFF: Time 298560, Note Name: C4
Note ON: Time 298680, Note Name: A3, Velocity: 47
Note OFF: Time 298800, Note Name: A3
Note ON: Time 298800, Note Name: C4, Velocity: 49
Note OFF: Time 298920, Note Name: C4
Note ON: Time 298920, Note Name: D#4, Velocity: 50
Note OFF: Time 299040, Note Name: D#4
Note ON: Time 299040, Note Name: F#4, Velocity: 52
Note OFF: Time 299160, Note Name: F#4
Note ON: Time 299160, Note Name: G#4, Velocity: 54
Note OFF: Time 299280, Note Name: G#4
Note ON: Time 299280, Note Name: F#4, Velocity: 56
Note OFF: Time 299400, Note Name: F#4
Note ON: Time 299400, Note Name: F4, Velocity: 58
Note OFF: Time 299520, Note Name: F4
Note ON: Time 299520, Note Name: D#4, Velocity: 67
Note OFF: Time 299760, Note Name: D#4
Note ON: Time 299760, Note Name: D#4, Velocity: 47
Note OFF: Time 299880, Note Name: D#4
Note ON: Time 299880, Note Name: F4, Velocity: 49
Note OFF: Time 300000, Note Name: F4
Note ON: Time 300000, Note Name: F#4, Velocity: 52
Note OFF: Time 300120, Note Name: F#4
Note ON: Time 300120, Note Name: G#4, Velocity: 54
Note OFF: Time 300240, Note Name: G#4
Note ON: Time 300240, Note Name: F#4, Velocity: 56
Note OFF: Time 300360, Note Name: F#4
Note ON: Time 300360, Note Name: F4, Velocity: 59
Note OFF: Time 300480, Note Name: F4
Note ON: Time 300480, Note Name: D#4, Velocity: 67
Note OFF: Time 300720, Note Name: D#4
Note ON: Time 300720, Note Name: D#4, Velocity: 50
Note OFF: Time 300840, Note Name: D#4
Note ON: Time 300840, Note Name: F4, Velocity: 50
Note OFF: Time 300960, Note Name: F4
Note ON: Time 300960, Note Name: F#4, Velocity: 56
Note OFF: Time 301080, Note Name: F#4
Note ON: Time 301080, Note Name: G#4, Velocity: 49
Note OFF: Time 301200, Note Name: G#4
Note ON: Time 301200, Note Name: F#4, Velocity: 50
Note OFF: Time 301320, Note Name: F#4
Note ON: Time 301320, Note Name: F4, Velocity: 50
Note OFF: Time 301440, Note Name: F4
Note ON: Time 301440, Note Name: D#4, Velocity: 67
Note OFF: Time 301680, Note Name: D#4
Note ON: Time 301680, Note Name: F#4, Velocity: 56
Note ON: Time 301680, Note Name: F#5, Velocity: 56
Note OFF: Time 301920, Note Name: F#5
Note OFF: Time 301920, Note Name: F#4
Note ON: Time 301920, Note Name: F4, Velocity: 60
Note ON: Time 301920, Note Name: F5, Velocity: 60
Note OFF: Time 302160, Note Name: F5
Note OFF: Time 302160, Note Name: F4
Note ON: Time 302160, Note Name: A4, Velocity: 54
Note ON: Time 302160, Note Name: A5, Velocity: 54
Note OFF: Time 302400, Note Name: A5
Note OFF: Time 302400, Note Name: A4
Note ON: Time 302400, Note Name: A#5, Velocity: 56
Note ON: Time 302400, Note Name: A#4, Velocity: 56
Note OFF: Time 302520, Note Name: A#4
Note OFF: Time 302520, Note Name: A#5
Note ON: Time 302520, Note Name: F4, Velocity: 51
Note OFF: Time 302640, Note Name: F4
Note ON: Time 302640, Note Name: A#4, Velocity: 52
Note OFF: Time 302760, Note Name: A#4
Note ON: Time 302760, Note Name: C#5, Velocity: 53
Note OFF: Time 302880, Note Name: C#5
Note ON: Time 302880, Note Name: F5, Velocity: 57
Note OFF: Time 303000, Note Name: F5
Note ON: Time 303000, Note Name: F#5, Velocity: 55
Note OFF: Time 303120, Note Name: F#5
Note ON: Time 303120, Note Name: F5, Velocity: 56
Note OFF: Time 303240, Note Name: F5
Note ON: Time 303240, Note Name: D#5, Velocity: 55
Note OFF: Time 303360, Note Name: D#5
Note ON: Time 303360, Note Name: C#5, Velocity: 57
Note OFF: Time 303480, Note Name: C#5
Note ON: Time 303480, Note Name: D#5, Velocity: 56
Note OFF: Time 303600, Note Name: D#5
Note ON: Time 303600, Note Name: C#5, Velocity: 56
Note OFF: Time 303720, Note Name: C#5
Note ON: Time 303720, Note Name: C5, Velocity: 55
Note OFF: Time 303840, Note Name: C5
Note ON: Time 303840, Note Name: A#4, Velocity: 54
Note OFF: Time 303960, Note Name: A#4
Note ON: Time 303960, Note Name: C5, Velocity: 53
Note OFF: Time 304080, Note Name: C5
Note ON: Time 304080, Note Name: C#5, Velocity: 53
Note OFF: Time 304200, Note Name: C#5
Note ON: Time 304200, Note Name: A#4, Velocity: 52
Note OFF: Time 304320, Note Name: A#4
Note ON: Time 304440, Note Name: F4, Velocity: 51
Note OFF: Time 304560, Note Name: F4
Note ON: Time 304560, Note Name: A#4, Velocity: 52
Note OFF: Time 304680, Note Name: A#4
Note ON: Time 304680, Note Name: C#5, Velocity: 53
Note OFF: Time 304800, Note Name: C#5
Note ON: Time 304800, Note Name: F5, Velocity: 57
Note OFF: Time 304920, Note Name: F5
Note ON: Time 304920, Note Name: F#5, Velocity: 55
Note OFF: Time 305040, Note Name: F#5
Note ON: Time 305040, Note Name: F5, Velocity: 56
Note OFF: Time 305160, Note Name: F5
Note ON: Time 305160, Note Name: D#5, Velocity: 55
Note OFF: Time 305280, Note Name: D#5
Note ON: Time 305280, Note Name: C#5, Velocity: 57
Note OFF: Time 305400, Note Name: C#5
Note ON: Time 305400, Note Name: D#5, Velocity: 56
Note OFF: Time 305520, Note Name: D#5
Note ON: Time 305520, Note Name: C#5, Velocity: 56
Note OFF: Time 305640, Note Name: C#5
Note ON: Time 305640, Note Name: C5, Velocity: 55
Note OFF: Time 305760, Note Name: C5
Note ON: Time 305760, Note Name: A#4, Velocity: 54
Note OFF: Time 305880, Note Name: A#4
Note ON: Time 305880, Note Name: C5, Velocity: 53
Note OFF: Time 306000, Note Name: C5
Note ON: Time 306000, Note Name: C#5, Velocity: 53
Note OFF: Time 306120, Note Name: C#5
Note ON: Time 306120, Note Name: A#4, Velocity: 52
Note OFF: Time 306240, Note Name: A#4
Note ON: Time 306360, Note Name: F#4, Velocity: 51
Note OFF: Time 306480, Note Name: F#4
Note ON: Time 306480, Note Name: B4, Velocity: 53
Note OFF: Time 306600, Note Name: B4
Note ON: Time 306600, Note Name: D#5, Velocity: 54
Note OFF: Time 306720, Note Name: D#5
Note ON: Time 306720, Note Name: F#5, Velocity: 59
Note OFF: Time 306840, Note Name: F#5
Note ON: Time 306840, Note Name: G#5, Velocity: 58
Note OFF: Time 306960, Note Name: G#5
Note ON: Time 306960, Note Name: F#5, Velocity: 59
Note OFF: Time 307080, Note Name: F#5
Note ON: Time 307080, Note Name: F5, Velocity: 59
Note OFF: Time 307200, Note Name: F5
Note ON: Time 307200, Note Name: D#5, Velocity: 62
Note OFF: Time 307320, Note Name: D#5
Note ON: Time 307320, Note Name: F5, Velocity: 62
Note OFF: Time 307440, Note Name: F5
Note ON: Time 307440, Note Name: D#5, Velocity: 62
Note OFF: Time 307560, Note Name: D#5
Note ON: Time 307560, Note Name: C#5, Velocity: 62
Note OFF: Time 307680, Note Name: C#5
Note ON: Time 307680, Note Name: B4, Velocity: 62
Note OFF: Time 307800, Note Name: B4
Note ON: Time 307800, Note Name: C#5, Velocity: 61
Note OFF: Time 307920, Note Name: C#5
Note ON: Time 307920, Note Name: D#5, Velocity: 64
Note OFF: Time 308040, Note Name: D#5
Note ON: Time 308040, Note Name: B4, Velocity: 61
Note OFF: Time 308160, Note Name: B4
Note ON: Time 308160, Note Name: A#4, Velocity: 68
Note OFF: Time 308280, Note Name: A#4
Note ON: Time 308280, Note Name: C5, Velocity: 64
Note OFF: Time 308400, Note Name: C5
Note ON: Time 308400, Note Name: A#4, Velocity: 66
Note OFF: Time 308520, Note Name: A#4
Note ON: Time 308520, Note Name: A4, Velocity: 64
Note OFF: Time 308640, Note Name: A4
Note ON: Time 308640, Note Name: A#4, Velocity: 62
Note OFF: Time 308760, Note Name: A#4
Note ON: Time 308760, Note Name: C5, Velocity: 60
Note OFF: Time 308880, Note Name: C5
Note ON: Time 308880, Note Name: C#5, Velocity: 59
Note OFF: Time 309000, Note Name: C#5
Note ON: Time 309000, Note Name: A#4, Velocity: 58
Note OFF: Time 309120, Note Name: A#4
Note ON: Time 309120, Note Name: A4, Velocity: 62
Note OFF: Time 309240, Note Name: A4
Note ON: Time 309240, Note Name: A#4, Velocity: 61
Note OFF: Time 309360, Note Name: A#4
Note ON: Time 309360, Note Name: A4, Velocity: 60
Note OFF: Time 309480, Note Name: A4
Note ON: Time 309480, Note Name: G4, Velocity: 58
Note OFF: Time 309600, Note Name: G4
Note ON: Time 309600, Note Name: A4, Velocity: 56
Note OFF: Time 309720, Note Name: A4
Note ON: Time 309720, Note Name: A#4, Velocity: 55
Note OFF: Time 309840, Note Name: A#4
Note ON: Time 309840, Note Name: C5, Velocity: 54
Note OFF: Time 309960, Note Name: C5
Note ON: Time 309960, Note Name: A4, Velocity: 53
Note OFF: Time 310080, Note Name: A4
Note ON: Time 310080, Note Name: A#4, Velocity: 61
Note OFF: Time 310320, Note Name: A#4
Note ON: Time 310320, Note Name: A#4, Velocity: 57
Note OFF: Time 310440, Note Name: A#4
Note ON: Time 310440, Note Name: C#5, Velocity: 58
Note OFF: Time 310560, Note Name: C#5
Note ON: Time 310560, Note Name: F5, Velocity: 62
Note OFF: Time 310680, Note Name: F5
Note ON: Time 310680, Note Name: F#5, Velocity: 60
Note OFF: Time 310800, Note Name: F#5
Note ON: Time 310800, Note Name: F5, Velocity: 61
Note OFF: Time 310920, Note Name: F5
Note ON: Time 310920, Note Name: D#5, Velocity: 61
Note OFF: Time 311040, Note Name: D#5
Note ON: Time 311040, Note Name: C#5, Velocity: 63
Note OFF: Time 311160, Note Name: C#5
Note ON: Time 311160, Note Name: D#5, Velocity: 62
Note OFF: Time 311280, Note Name: D#5
Note ON: Time 311280, Note Name: C#5, Velocity: 62
Note OFF: Time 311400, Note Name: C#5
Note ON: Time 311400, Note Name: C5, Velocity: 61
Note OFF: Time 311520, Note Name: C5
Note ON: Time 311520, Note Name: A#5, Velocity: 71
Note ON: Time 311520, Note Name: A#4, Velocity: 71
Note OFF: Time 311640, Note Name: A#4
Note ON: Time 311640, Note Name: C5, Velocity: 60
Note OFF: Time 311760, Note Name: C5
Note OFF: Time 311760, Note Name: A#5
Note ON: Time 311760, Note Name: C#5, Velocity: 61
Note OFF: Time 311880, Note Name: C#5
Note ON: Time 311880, Note Name: A#4, Velocity: 60
Note OFF: Time 312000, Note Name: A#4
Note ON: Time 312000, Note Name: A5, Velocity: 74
Note OFF: Time 312240, Note Name: A5
Note ON: Time 312240, Note Name: A#4, Velocity: 63
Note OFF: Time 312360, Note Name: A#4
Note ON: Time 312360, Note Name: C#5, Velocity: 65
Note OFF: Time 312480, Note Name: C#5
Note ON: Time 312480, Note Name: A#5, Velocity: 73
Note ON: Time 312480, Note Name: F5, Velocity: 73
Note OFF: Time 312600, Note Name: F5
Note ON: Time 312600, Note Name: F#5, Velocity: 68
Note OFF: Time 312720, Note Name: F#5
Note OFF: Time 312720, Note Name: A#5
Note ON: Time 312720, Note Name: F5, Velocity: 71
Note OFF: Time 312840, Note Name: F5
Note ON: Time 312840, Note Name: D#5, Velocity: 70
Note OFF: Time 312960, Note Name: D#5
Note ON: Time 312960, Note Name: C#5, Velocity: 73
Note OFF: Time 313080, Note Name: C#5
Note ON: Time 313080, Note Name: D#5, Velocity: 72
Note OFF: Time 313200, Note Name: D#5
Note ON: Time 313200, Note Name: C#5, Velocity: 74
Note OFF: Time 313320, Note Name: C#5
Note ON: Time 313320, Note Name: C5, Velocity: 74
Note OFF: Time 313440, Note Name: C5
Note ON: Time 313440, Note Name: A#5, Velocity: 88
Note ON: Time 313440, Note Name: A#4, Velocity: 73
Note OFF: Time 313560, Note Name: A#4
Note ON: Time 313560, Note Name: C5, Velocity: 73
Note OFF: Time 313680, Note Name: C5
Note OFF: Time 313680, Note Name: A#5
Note ON: Time 313680, Note Name: C#5, Velocity: 74
Note OFF: Time 313800, Note Name: C#5
Note ON: Time 313800, Note Name: A#4, Velocity: 73
Note OFF: Time 313920, Note Name: A#4
Note ON: Time 313920, Note Name: B4, Velocity: 88
Note ON: Time 313920, Note Name: B5, Velocity: 88
Note OFF: Time 314040, Note Name: B5
Note OFF: Time 314040, Note Name: B4
Note ON: Time 314040, Note Name: F#5, Velocity: 74
Note OFF: Time 314160, Note Name: F#5
Note ON: Time 314160, Note Name: B5, Velocity: 76
Note OFF: Time 314280, Note Name: B5
Note ON: Time 314280, Note Name: D#6, Velocity: 78
Note OFF: Time 314400, Note Name: D#6
Note ON: Time 314400, Note Name: F#6, Velocity: 80
Note OFF: Time 314520, Note Name: F#6
Note ON: Time 314520, Note Name: G#6, Velocity: 76
Note OFF: Time 314640, Note Name: G#6
Note ON: Time 314640, Note Name: F#6, Velocity: 76
Note OFF: Time 314760, Note Name: F#6
Note ON: Time 314760, Note Name: F6, Velocity: 76
Note OFF: Time 314880, Note Name: F6
Note ON: Time 314880, Note Name: D#6, Velocity: 77
Note OFF: Time 315000, Note Name: D#6
Note ON: Time 315000, Note Name: F6, Velocity: 71
Note OFF: Time 315120, Note Name: F6
Note ON: Time 315120, Note Name: D#6, Velocity: 72
Note OFF: Time 315240, Note Name: D#6
Note ON: Time 315240, Note Name: C#6, Velocity: 72
Note OFF: Time 315360, Note Name: C#6
Note ON: Time 315360, Note Name: B5, Velocity: 78
Note OFF: Time 315480, Note Name: B5
Note ON: Time 315480, Note Name: C#6, Velocity: 73
Note OFF: Time 315600, Note Name: C#6
Note ON: Time 315600, Note Name: B5, Velocity: 73
Note OFF: Time 315720, Note Name: B5
Note ON: Time 315720, Note Name: A#5, Velocity: 72
Note OFF: Time 315840, Note Name: A#5
Note ON: Time 315840, Note Name: A5, Velocity: 77
Note OFF: Time 315960, Note Name: A5
Note ON: Time 315960, Note Name: C6, Velocity: 71
Note OFF: Time 316080, Note Name: C6
Note ON: Time 316080, Note Name: D#6, Velocity: 72
Note OFF: Time 316200, Note Name: D#6
Note ON: Time 316200, Note Name: C#6, Velocity: 72
Note OFF: Time 316320, Note Name: C#6
Note ON: Time 316320, Note Name: C6, Velocity: 78
Note OFF: Time 316440, Note Name: C6
Note ON: Time 316440, Note Name: C#6, Velocity: 73
Note OFF: Time 316560, Note Name: C#6
Note ON: Time 316560, Note Name: C6, Velocity: 73
Note OFF: Time 316680, Note Name: C6
Note ON: Time 316680, Note Name: A#5, Velocity: 72
Note OFF: Time 316800, Note Name: A#5
Note ON: Time 316800, Note Name: A5, Velocity: 77
Note OFF: Time 316920, Note Name: A5
Note ON: Time 316920, Note Name: A#5, Velocity: 71
Note OFF: Time 317040, Note Name: A#5
Note ON: Time 317040, Note Name: A5, Velocity: 72
Note OFF: Time 317160, Note Name: A5
Note ON: Time 317160, Note Name: F#5, Velocity: 72
Note OFF: Time 317280, Note Name: F#5
Note ON: Time 317280, Note Name: F5, Velocity: 74
Note OFF: Time 317400, Note Name: F5
Note ON: Time 317400, Note Name: D#5, Velocity: 71
Note OFF: Time 317520, Note Name: D#5
Note ON: Time 317520, Note Name: C#5, Velocity: 71
Note OFF: Time 317640, Note Name: C#5
Note ON: Time 317640, Note Name: C5, Velocity: 69
Note OFF: Time 317760, Note Name: C5
Note ON: Time 317760, Note Name: A#4, Velocity: 73
Note OFF: Time 317880, Note Name: A#4
Note ON: Time 318000, Note Name: F5, Velocity: 74
Note OFF: Time 318480, Note Name: F5
Note ON: Time 318480, Note Name: F5, Velocity: 61
Note OFF: Time 318600, Note Name: F5
Note ON: Time 318720, Note Name: F5, Velocity: 61
Note OFF: Time 318840, Note Name: F5
Note ON: Time 318960, Note Name: F#5, Velocity: 72
Note OFF: Time 319440, Note Name: F#5
Note ON: Time 319440, Note Name: F#5, Velocity: 60
Note OFF: Time 319560, Note Name: F#5
Note ON: Time 319680, Note Name: F#5, Velocity: 59
Note OFF: Time 319800, Note Name: F#5
Note ON: Time 319920, Note Name: F5, Velocity: 73
Note OFF: Time 320400, Note Name: F5
Note ON: Time 320400, Note Name: F5, Velocity: 63
Note OFF: Time 320520, Note Name: F5
Note ON: Time 320640, Note Name: F5, Velocity: 65
Note OFF: Time 320760, Note Name: F5
Note ON: Time 320880, Note Name: C5, Velocity: 61
Note OFF: Time 321000, Note Name: C5
Note ON: Time 321120, Note Name: C#5, Velocity: 61
Note OFF: Time 321240, Note Name: C#5
Note ON: Time 321360, Note Name: D#5, Velocity: 61
Note OFF: Time 321480, Note Name: D#5
Note ON: Time 321600, Note Name: C#5, Velocity: 65
Note OFF: Time 321720, Note Name: C#5
Note ON: Time 321840, Note Name: F6, Velocity: 80
Note ON: Time 321840, Note Name: F5, Velocity: 73
Note OFF: Time 322320, Note Name: F5
Note OFF: Time 322320, Note Name: F6
Note ON: Time 322320, Note Name: F6, Velocity: 74
Note ON: Time 322320, Note Name: F5, Velocity: 68
Note OFF: Time 322440, Note Name: F5
Note OFF: Time 322440, Note Name: F6
Note ON: Time 322560, Note Name: F6, Velocity: 74
Note ON: Time 322560, Note Name: F5, Velocity: 68
Note OFF: Time 322680, Note Name: F5
Note OFF: Time 322680, Note Name: F6
Note ON: Time 322800, Note Name: F#6, Velocity: 81
Note ON: Time 322800, Note Name: F#5, Velocity: 74
Note OFF: Time 323280, Note Name: F#5
Note OFF: Time 323280, Note Name: F#6
Note ON: Time 323280, Note Name: F#6, Velocity: 73
Note ON: Time 323280, Note Name: F#5, Velocity: 67
Note OFF: Time 323400, Note Name: F#5
Note OFF: Time 323400, Note Name: F#6
Note ON: Time 323520, Note Name: F#6, Velocity: 72
Note ON: Time 323520, Note Name: F#5, Velocity: 66
Note OFF: Time 323640, Note Name: F#5
Note OFF: Time 323640, Note Name: F#6
Note ON: Time 323760, Note Name: F6, Velocity: 82
Note ON: Time 323760, Note Name: F5, Velocity: 75
Note OFF: Time 324240, Note Name: F5
Note OFF: Time 324240, Note Name: F6
Note ON: Time 324240, Note Name: F6, Velocity: 77
Note ON: Time 324240, Note Name: F5, Velocity: 70
Note OFF: Time 324360, Note Name: F5
Note OFF: Time 324360, Note Name: F6
Note ON: Time 324480, Note Name: F6, Velocity: 80
Note ON: Time 324480, Note Name: F5, Velocity: 73
Note OFF: Time 324600, Note Name: F5
Note OFF: Time 324600, Note Name: F6
Note ON: Time 324720, Note Name: C6, Velocity: 74
Note ON: Time 324720, Note Name: C5, Velocity: 68
Note OFF: Time 324840, Note Name: C5
Note OFF: Time 324840, Note Name: C6
Note ON: Time 324960, Note Name: C#6, Velocity: 74
Note ON: Time 324960, Note Name: C#5, Velocity: 68
Note OFF: Time 325080, Note Name: C#5
Note OFF: Time 325080, Note Name: C#6
Note ON: Time 325200, Note Name: D#6, Velocity: 74
Note ON: Time 325200, Note Name: D#5, Velocity: 68
Note OFF: Time 325320, Note Name: D#5
Note OFF: Time 325320, Note Name: D#6
Note ON: Time 325440, Note Name: C#6, Velocity: 80
Note ON: Time 325440, Note Name: C#5, Velocity: 73
Note OFF: Time 325560, Note Name: C#5
Note OFF: Time 325560, Note Name: C#6
Note ON: Time 325680, Note Name: C5, Velocity: 72
Note OFF: Time 326160, Note Name: C5
Note ON: Time 326160, Note Name: C5, Velocity: 61
Note OFF: Time 326280, Note Name: C5
Note ON: Time 326400, Note Name: C5, Velocity: 61
Note OFF: Time 326520, Note Name: C5
Note ON: Time 326640, Note Name: B4, Velocity: 72
Note OFF: Time 327120, Note Name: B4
Note ON: Time 327120, Note Name: B4, Velocity: 60
Note OFF: Time 327240, Note Name: B4
Note ON: Time 327360, Note Name: B4, Velocity: 59
Note OFF: Time 327480, Note Name: B4
Note ON: Time 327600, Note Name: C5, Velocity: 71
Note OFF: Time 328080, Note Name: C5
Note ON: Time 328080, Note Name: C5, Velocity: 63
Note OFF: Time 328200, Note Name: C5
Note ON: Time 328320, Note Name: C5, Velocity: 65
Note OFF: Time 328440, Note Name: C5
Note ON: Time 328560, Note Name: G4, Velocity: 61
Note OFF: Time 328680, Note Name: G4
Note ON: Time 328800, Note Name: G#4, Velocity: 61
Note OFF: Time 328920, Note Name: G#4
Note ON: Time 329040, Note Name: A#4, Velocity: 61
Note OFF: Time 329160, Note Name: A#4
Note ON: Time 329280, Note Name: G#4, Velocity: 65
Note OFF: Time 329400, Note Name: G#4
Note ON: Time 329520, Note Name: C6, Velocity: 80
Note ON: Time 329520, Note Name: C5, Velocity: 73
Note OFF: Time 330000, Note Name: C5
Note OFF: Time 330000, Note Name: C6
Note ON: Time 330000, Note Name: C6, Velocity: 74
Note ON: Time 330000, Note Name: C5, Velocity: 68
Note OFF: Time 330120, Note Name: C5
Note OFF: Time 330120, Note Name: C6
Note ON: Time 330240, Note Name: C6, Velocity: 74
Note ON: Time 330240, Note Name: C5, Velocity: 68
Note OFF: Time 330360, Note Name: C5
Note OFF: Time 330360, Note Name: C6
Note ON: Time 330480, Note Name: B5, Velocity: 81
Note ON: Time 330480, Note Name: B4, Velocity: 74
Note OFF: Time 330960, Note Name: B4
Note OFF: Time 330960, Note Name: B5
Note ON: Time 330960, Note Name: B5, Velocity: 73
Note ON: Time 330960, Note Name: B4, Velocity: 67
Note OFF: Time 331080, Note Name: B4
Note OFF: Time 331080, Note Name: B5
Note ON: Time 331200, Note Name: B5, Velocity: 72
Note ON: Time 331200, Note Name: B4, Velocity: 66
Note OFF: Time 331320, Note Name: B4
Note OFF: Time 331320, Note Name: B5
Note ON: Time 331440, Note Name: C6, Velocity: 82
Note ON: Time 331440, Note Name: C5, Velocity: 75
Note OFF: Time 331920, Note Name: C5
Note OFF: Time 331920, Note Name: C6
Note ON: Time 331920, Note Name: C6, Velocity: 77
Note ON: Time 331920, Note Name: C5, Velocity: 70
Note OFF: Time 332040, Note Name: C5
Note OFF: Time 332040, Note Name: C6
Note ON: Time 332160, Note Name: C6, Velocity: 80
Note ON: Time 332160, Note Name: C5, Velocity: 73
Note OFF: Time 332280, Note Name: C5
Note OFF: Time 332280, Note Name: C6
Note ON: Time 332400, Note Name: G5, Velocity: 74
Note ON: Time 332400, Note Name: G4, Velocity: 68
Note OFF: Time 332520, Note Name: G4
Note OFF: Time 332520, Note Name: G5
Note ON: Time 332640, Note Name: G#5, Velocity: 74
Note ON: Time 332640, Note Name: G#4, Velocity: 68
Note OFF: Time 332760, Note Name: G#4
Note OFF: Time 332760, Note Name: G#5
Note ON: Time 332880, Note Name: A#5, Velocity: 74
Note ON: Time 332880, Note Name: A#4, Velocity: 68
Note OFF: Time 333000, Note Name: A#4
Note OFF: Time 333000, Note Name: A#5
Note ON: Time 333120, Note Name: G#5, Velocity: 80
Note ON: Time 333120, Note Name: G#4, Velocity: 73
Note OFF: Time 333240, Note Name: G#4
Note OFF: Time 333240, Note Name: G#5
Note ON: Time 333240, Note Name: C4, Velocity: 70
Note OFF: Time 333360, Note Name: C4
Note ON: Time 333360, Note Name: F4, Velocity: 72
Note OFF: Time 333480, Note Name: F4
Note ON: Time 333480, Note Name: G#4, Velocity: 74
Note OFF: Time 333600, Note Name: G#4
Note ON: Time 333600, Note Name: C5, Velocity: 76
Note OFF: Time 333720, Note Name: C5
Note ON: Time 333720, Note Name: C#5, Velocity: 72
Note OFF: Time 333840, Note Name: C#5
Note ON: Time 333840, Note Name: C5, Velocity: 72
Note OFF: Time 333960, Note Name: C5
Note ON: Time 333960, Note Name: A#4, Velocity: 72
Note OFF: Time 334080, Note Name: A#4
Note ON: Time 334080, Note Name: G#4, Velocity: 73
Note OFF: Time 334200, Note Name: G#4
Note ON: Time 334200, Note Name: A#4, Velocity: 67
Note OFF: Time 334320, Note Name: A#4
Note ON: Time 334320, Note Name: G#4, Velocity: 69
Note OFF: Time 334440, Note Name: G#4
Note ON: Time 334440, Note Name: G4, Velocity: 69
Note OFF: Time 334560, Note Name: G4
Note ON: Time 334560, Note Name: F4, Velocity: 75
Note OFF: Time 334680, Note Name: F4
Note ON: Time 334680, Note Name: G4, Velocity: 70
Note OFF: Time 334800, Note Name: G4
Note ON: Time 334800, Note Name: G#4, Velocity: 70
Note OFF: Time 334920, Note Name: G#4
Note ON: Time 334920, Note Name: F4, Velocity: 70
Note OFF: Time 335040, Note Name: F4
Note ON: Time 335040, Note Name: F#4, Velocity: 75
Note OFF: Time 335160, Note Name: F#4
Note ON: Time 335160, Note Name: C#4, Velocity: 72
Note OFF: Time 335280, Note Name: C#4
Note ON: Time 335280, Note Name: F#4, Velocity: 74
Note OFF: Time 335400, Note Name: F#4
Note ON: Time 335400, Note Name: A#4, Velocity: 76
Note OFF: Time 335520, Note Name: A#4
Note ON: Time 335520, Note Name: C#5, Velocity: 78
Note OFF: Time 335640, Note Name: C#5
Note ON: Time 335640, Note Name: D#5, Velocity: 75
Note OFF: Time 335760, Note Name: D#5
Note ON: Time 335760, Note Name: C#5, Velocity: 75
Note OFF: Time 335880, Note Name: C#5
Note ON: Time 335880, Note Name: C5, Velocity: 75
Note OFF: Time 336000, Note Name: C5
Note ON: Time 336000, Note Name: A#4, Velocity: 76
Note OFF: Time 336120, Note Name: A#4
Note ON: Time 336120, Note Name: C5, Velocity: 70
Note OFF: Time 336240, Note Name: C5
Note ON: Time 336240, Note Name: A#4, Velocity: 71
Note OFF: Time 336360, Note Name: A#4
Note ON: Time 336360, Note Name: G#4, Velocity: 71
Note OFF: Time 336480, Note Name: G#4
Note ON: Time 336480, Note Name: F#4, Velocity: 76
Note OFF: Time 336600, Note Name: F#4
Note ON: Time 336600, Note Name: G#4, Velocity: 73
Note OFF: Time 336720, Note Name: G#4
Note ON: Time 336720, Note Name: A#4, Velocity: 73
Note OFF: Time 336840, Note Name: A#4
Note ON: Time 336840, Note Name: F#4, Velocity: 72
Note OFF: Time 336960, Note Name: F#4
Note ON: Time 336960, Note Name: A4, Velocity: 77
Note OFF: Time 337080, Note Name: A4
Note ON: Time 337080, Note Name: D#4, Velocity: 74
Note OFF: Time 337200, Note Name: D#4
Note ON: Time 337200, Note Name: A4, Velocity: 76
Note OFF: Time 337320, Note Name: A4
Note ON: Time 337320, Note Name: C5, Velocity: 78
Note OFF: Time 337440, Note Name: C5
Note ON: Time 337440, Note Name: D#5, Velocity: 80
Note OFF: Time 337560, Note Name: D#5
Note ON: Time 337560, Note Name: F5, Velocity: 76
Note OFF: Time 337680, Note Name: F5
Note ON: Time 337680, Note Name: D#5, Velocity: 76
Note OFF: Time 337800, Note Name: D#5
Note ON: Time 337800, Note Name: C#5, Velocity: 77
Note OFF: Time 337920, Note Name: C#5
Note ON: Time 337920, Note Name: C5, Velocity: 78
Note OFF: Time 338040, Note Name: C5
Note ON: Time 338040, Note Name: C#5, Velocity: 72
Note OFF: Time 338160, Note Name: C#5
Note ON: Time 338160, Note Name: C5, Velocity: 73
Note OFF: Time 338280, Note Name: C5
Note ON: Time 338280, Note Name: A#4, Velocity: 73
Note OFF: Time 338400, Note Name: A#4
Note ON: Time 338400, Note Name: A4, Velocity: 80
Note OFF: Time 338520, Note Name: A4
Note ON: Time 338520, Note Name: A#4, Velocity: 75
Note OFF: Time 338640, Note Name: A#4
Note ON: Time 338640, Note Name: C5, Velocity: 75
Note OFF: Time 338760, Note Name: C5
Note ON: Time 338760, Note Name: A4, Velocity: 74
Note OFF: Time 338880, Note Name: A4
Note ON: Time 338880, Note Name: A#4, Velocity: 90
Note OFF: Time 339000, Note Name: A#4
Note ON: Time 339000, Note Name: F4, Velocity: 76
Note OFF: Time 339120, Note Name: F4
Note ON: Time 339120, Note Name: A#4, Velocity: 79
Note OFF: Time 339240, Note Name: A#4
Note ON: Time 339240, Note Name: C#5, Velocity: 82
Note OFF: Time 339360, Note Name: C#5
Note ON: Time 339360, Note Name: F5, Velocity: 83
Note OFF: Time 339480, Note Name: F5
Note ON: Time 339480, Note Name: F#5, Velocity: 83
Note OFF: Time 339600, Note Name: F#5
Note ON: Time 339600, Note Name: F5, Velocity: 82
Note OFF: Time 339720, Note Name: F5
Note ON: Time 339720, Note Name: D#5, Velocity: 82
Note OFF: Time 339840, Note Name: D#5
Note ON: Time 339840, Note Name: C#5, Velocity: 81
Note OFF: Time 339960, Note Name: C#5
Note ON: Time 339960, Note Name: C5, Velocity: 81
Note OFF: Time 340080, Note Name: C5
Note ON: Time 340080, Note Name: A#4, Velocity: 80
Note OFF: Time 340200, Note Name: A#4
Note ON: Time 340200, Note Name: G#4, Velocity: 80
Note OFF: Time 340320, Note Name: G#4
Note ON: Time 340320, Note Name: F#4, Velocity: 79
Note OFF: Time 340440, Note Name: F#4
Note ON: Time 340440, Note Name: F4, Velocity: 79
Note OFF: Time 340560, Note Name: F4
Note ON: Time 340560, Note Name: D#4, Velocity: 78
Note OFF: Time 340680, Note Name: D#4
Note ON: Time 340680, Note Name: C#4, Velocity: 78
Note OFF: Time 340800, Note Name: C#4
Note ON: Time 340800, Note Name: C4, Velocity: 77
Note OFF: Time 340920, Note Name: C4
Note ON: Time 340920, Note Name: A#3, Velocity: 77
Note OFF: Time 341040, Note Name: A#3
Note ON: Time 341040, Note Name: G#3, Velocity: 76
Note OFF: Time 341160, Note Name: G#3
Note ON: Time 341160, Note Name: F#3, Velocity: 76
Note OFF: Time 341280, Note Name: F#3
Note ON: Time 341280, Note Name: F3, Velocity: 73
Note OFF: Time 341400, Note Name: F3
Note ON: Time 341400, Note Name: D#3, Velocity: 73
Note OFF: Time 341520, Note Name: D#3
Note ON: Time 341520, Note Name: C#3, Velocity: 74
Note OFF: Time 341640, Note Name: C#3
Note ON: Time 341640, Note Name: C3, Velocity: 76
Note OFF: Time 341760, Note Name: C3
Note ON: Time 341760, Note Name: A#2, Velocity: 78
Note OFF: Time 341880, Note Name: A#2
Note ON: Time 341880, Note Name: C3, Velocity: 79
Note OFF: Time 342000, Note Name: C3
Note ON: Time 342000, Note Name: C#3, Velocity: 81
Note OFF: Time 342120, Note Name: C#3
Note ON: Time 342120, Note Name: A#2, Velocity: 82
Note OFF: Time 342240, Note Name: A#2
Note ON: Time 342240, Note Name: A#2, Velocity: 82
Note OFF: Time 342480, Note Name: A#2
Note ON: Time 342480, Note Name: B2, Velocity: 77
Note ON: Time 342480, Note Name: D3, Velocity: 77
Note ON: Time 342480, Note Name: F3, Velocity: 77
Note ON: Time 342480, Note Name: G#3, Velocity: 90
Note OFF: Time 342720, Note Name: G#3
Note OFF: Time 342720, Note Name: B2
Note OFF: Time 342720, Note Name: D3
Note OFF: Time 342720, Note Name: F3
Note ON: Time 342720, Note Name: C3, Velocity: 82
Note ON: Time 342720, Note Name: E3, Velocity: 82
Note ON: Time 342720, Note Name: G3, Velocity: 98
Note OFF: Time 342840, Note Name: G3
Note OFF: Time 342840, Note Name: E3
Note OFF: Time 342840, Note Name: C3
Note ON: Time 342840, Note Name: C3, Velocity: 66
Note ON: Time 342840, Note Name: C4, Velocity: 66
Note OFF: Time 342960, Note Name: C4
Note OFF: Time 342960, Note Name: C3
Note ON: Time 343080, Note Name: C4, Velocity: 66
Note ON: Time 343080, Note Name: C3, Velocity: 66
Note OFF: Time 343200, Note Name: C3
Note OFF: Time 343200, Note Name: C4
Note ON: Time 343320, Note Name: C4, Velocity: 66
Note ON: Time 343320, Note Name: C3, Velocity: 66
Note OFF: Time 343440, Note Name: C3
Note OFF: Time 343440, Note Name: C4
Note ON: Time 343560, Note Name: C4, Velocity: 66
Note ON: Time 343560, Note Name: C3, Velocity: 66
Note OFF: Time 343680, Note Name: C3
Note OFF: Time 343680, Note Name: C4
Note ON: Time 343800, Note Name: C4, Velocity: 66
Note ON: Time 343800, Note Name: C3, Velocity: 66
Note OFF: Time 343920, Note Name: C3
Note OFF: Time 343920, Note Name: C4
Note ON: Time 344040, Note Name: C4, Velocity: 66
Note ON: Time 344040, Note Name: C3, Velocity: 66
Note OFF: Time 344160, Note Name: C3
Note OFF: Time 344160, Note Name: C4
Note ON: Time 344280, Note Name: C4, Velocity: 66
Note ON: Time 344280, Note Name: C3, Velocity: 66
Note OFF: Time 344400, Note Name: C3
Note OFF: Time 344400, Note Name: C4
Note ON: Time 344520, Note Name: C4, Velocity: 66
Note ON: Time 344520, Note Name: C3, Velocity: 66
Note OFF: Time 344640, Note Name: C3
Note OFF: Time 344640, Note Name: C4
Note ON: Time 344760, Note Name: C4, Velocity: 64
Note ON: Time 344760, Note Name: C5, Velocity: 64
Note OFF: Time 344880, Note Name: C5
Note OFF: Time 344880, Note Name: C4
Note ON: Time 345000, Note Name: C4, Velocity: 64
Note ON: Time 345000, Note Name: C5, Velocity: 64
Note OFF: Time 345120, Note Name: C5
Note OFF: Time 345120, Note Name: C4
Note ON: Time 345240, Note Name: C4, Velocity: 65
Note ON: Time 345240, Note Name: C5, Velocity: 65
Note OFF: Time 345360, Note Name: C5
Note OFF: Time 345360, Note Name: C4
Note ON: Time 345480, Note Name: C4, Velocity: 66
Note ON: Time 345480, Note Name: C5, Velocity: 66
Note OFF: Time 345600, Note Name: C5
Note OFF: Time 345600, Note Name: C4
Note ON: Time 345720, Note Name: C4, Velocity: 64
Note ON: Time 345720, Note Name: C5, Velocity: 64
Note OFF: Time 345840, Note Name: C5
Note OFF: Time 345840, Note Name: C4
Note ON: Time 345960, Note Name: C4, Velocity: 64
Note ON: Time 345960, Note Name: C5, Velocity: 64
Note OFF: Time 346080, Note Name: C5
Note OFF: Time 346080, Note Name: C4
Note ON: Time 346200, Note Name: C4, Velocity: 65
Note ON: Time 346200, Note Name: C5, Velocity: 65
Note OFF: Time 346320, Note Name: C5
Note OFF: Time 346320, Note Name: C4
Note ON: Time 346440, Note Name: C4, Velocity: 66
Note ON: Time 346440, Note Name: C5, Velocity: 66
Note OFF: Time 346560, Note Name: C5
Note OFF: Time 346560, Note Name: C4
Note ON: Time 346680, Note Name: C5, Velocity: 67
Note ON: Time 346680, Note Name: C6, Velocity: 67
Note OFF: Time 346800, Note Name: C6
Note OFF: Time 346800, Note Name: C5
Note ON: Time 346920, Note Name: C5, Velocity: 68
Note ON: Time 346920, Note Name: C6, Velocity: 68
Note OFF: Time 347040, Note Name: C6
Note OFF: Time 347040, Note Name: C5
Note ON: Time 347160, Note Name: C5, Velocity: 69
Note ON: Time 347160, Note Name: C6, Velocity: 69
Note OFF: Time 347280, Note Name: C6
Note OFF: Time 347280, Note Name: C5
Note ON: Time 347400, Note Name: C5, Velocity: 70
Note ON: Time 347400, Note Name: C6, Velocity: 70
Note OFF: Time 347520, Note Name: C6
Note OFF: Time 347520, Note Name: C5
Note ON: Time 347640, Note Name: C5, Velocity: 71
Note ON: Time 347640, Note Name: C6, Velocity: 71
Note OFF: Time 347760, Note Name: C6
Note OFF: Time 347760, Note Name: C5
Note ON: Time 347880, Note Name: C5, Velocity: 72
Note ON: Time 347880, Note Name: C6, Velocity: 72
Note OFF: Time 348000, Note Name: C6
Note OFF: Time 348000, Note Name: C5
Note ON: Time 348120, Note Name: C5, Velocity: 73
Note ON: Time 348120, Note Name: C6, Velocity: 73
Note OFF: Time 348240, Note Name: C6
Note OFF: Time 348240, Note Name: C5
Note ON: Time 348360, Note Name: C5, Velocity: 74
Note ON: Time 348360, Note Name: C6, Velocity: 74
Note OFF: Time 348480, Note Name: C6
Note OFF: Time 348480, Note Name: C5
Note ON: Time 348600, Note Name: C6, Velocity: 75
Note ON: Time 348600, Note Name: C7, Velocity: 75
Note OFF: Time 348720, Note Name: C7
Note OFF: Time 348720, Note Name: C6
Note ON: Time 348840, Note Name: C6, Velocity: 76
Note ON: Time 348840, Note Name: C7, Velocity: 76
Note OFF: Time 348960, Note Name: C7
Note OFF: Time 348960, Note Name: C6
Note ON: Time 349080, Note Name: C6, Velocity: 78
Note ON: Time 349080, Note Name: C7, Velocity: 78
Note OFF: Time 349200, Note Name: C7
Note OFF: Time 349200, Note Name: C6
Note ON: Time 349320, Note Name: C6, Velocity: 81
Note ON: Time 349320, Note Name: C7, Velocity: 81
Note OFF: Time 349440, Note Name: C7
Note OFF: Time 349440, Note Name: C6
Note ON: Time 349560, Note Name: C6, Velocity: 82
Note ON: Time 349560, Note Name: C7, Velocity: 82
Note OFF: Time 349680, Note Name: C7
Note OFF: Time 349680, Note Name: C6
Note ON: Time 349800, Note Name: C6, Velocity: 84
Note ON: Time 349800, Note Name: C7, Velocity: 84
Note OFF: Time 349920, Note Name: C7
Note OFF: Time 349920, Note Name: C6
Note ON: Time 350040, Note Name: C6, Velocity: 86
Note ON: Time 350040, Note Name: C7, Velocity: 86
Note OFF: Time 350160, Note Name: C7
Note OFF: Time 350160, Note Name: C6
Note ON: Time 350280, Note Name: C6, Velocity: 88
Note ON: Time 350280, Note Name: C7, Velocity: 88
Note OFF: Time 350400, Note Name: C7
Note OFF: Time 350400, Note Name: C6
Note ON: Time 351480, Note Name: C#4, Velocity: 72
Note OFF: Time 351600, Note Name: C#4
Note ON: Time 351600, Note Name: F#4, Velocity: 75
Note OFF: Time 351720, Note Name: F#4
Note ON: Time 351720, Note Name: A#4, Velocity: 76
Note OFF: Time 351840, Note Name: A#4
Note ON: Time 351840, Note Name: C#5, Velocity: 88
Note OFF: Time 351960, Note Name: C#5
Note ON: Time 352440, Note Name: C#5, Velocity: 77
Note OFF: Time 352560, Note Name: C#5
Note ON: Time 352560, Note Name: F#5, Velocity: 79
Note OFF: Time 352680, Note Name: F#5
Note ON: Time 352680, Note Name: A#5, Velocity: 81
Note OFF: Time 352800, Note Name: A#5
Note ON: Time 352800, Note Name: C#6, Velocity: 89
Note OFF: Time 353040, Note Name: C#6
Note ON: Time 354720, Note Name: E4, Velocity: 89
Note OFF: Time 354840, Note Name: E4
Note ON: Time 355320, Note Name: E4, Velocity: 72
Note OFF: Time 355440, Note Name: E4
Note ON: Time 355440, Note Name: G4, Velocity: 75
Note OFF: Time 355560, Note Name: G4
Note ON: Time 355560, Note Name: A#4, Velocity: 76
Note OFF: Time 355680, Note Name: A#4
Note ON: Time 355680, Note Name: E5, Velocity: 87
Note OFF: Time 355800, Note Name: E5
Note ON: Time 356280, Note Name: E5, Velocity: 77
Note OFF: Time 356400, Note Name: E5
Note ON: Time 356400, Note Name: G5, Velocity: 79
Note OFF: Time 356520, Note Name: G5
Note ON: Time 356520, Note Name: A#5, Velocity: 81
Note OFF: Time 356640, Note Name: A#5
Note ON: Time 356640, Note Name: E6, Velocity: 93
Note OFF: Time 356880, Note Name: E6
Note ON: Time 358800, Note Name: C#4, Velocity: 51
Note OFF: Time 358920, Note Name: C#4
Note ON: Time 358920, Note Name: E4, Velocity: 53
Note OFF: Time 359040, Note Name: E4
Note ON: Time 359040, Note Name: G4, Velocity: 54
Note OFF: Time 359280, Note Name: G4
Note ON: Time 360480, Note Name: A#3, Velocity: 47
Note OFF: Time 360600, Note Name: A#3
Note ON: Time 360600, Note Name: C#4, Velocity: 51
Note OFF: Time 360720, Note Name: C#4
Note ON: Time 360720, Note Name: E4, Velocity: 48
Note OFF: Time 360840, Note Name: E4
Note ON: Time 360840, Note Name: G4, Velocity: 50
Note OFF: Time 360960, Note Name: G4
Note ON: Time 360960, Note Name: A#4, Velocity: 51
Note OFF: Time 361200, Note Name: A#4
Note ON: Time 362400, Note Name: C#4, Velocity: 44
Note OFF: Time 362520, Note Name: C#4
Note ON: Time 362520, Note Name: E4, Velocity: 48
Note OFF: Time 362640, Note Name: E4
Note ON: Time 362640, Note Name: G4, Velocity: 45
Note OFF: Time 362760, Note Name: G4
Note ON: Time 362760, Note Name: A#4, Velocity: 47
Note OFF: Time 362880, Note Name: A#4
Note ON: Time 362880, Note Name: C#5, Velocity: 48
Note OFF: Time 363120, Note Name: C#5
Note ON: Time 364320, Note Name: E4, Velocity: 41
Note OFF: Time 364440, Note Name: E4
Note ON: Time 364440, Note Name: G4, Velocity: 45
Note OFF: Time 364560, Note Name: G4
Note ON: Time 364560, Note Name: A#4, Velocity: 42
Note OFF: Time 364680, Note Name: A#4
Note ON: Time 364680, Note Name: C#5, Velocity: 44
Note OFF: Time 364800, Note Name: C#5
Note ON: Time 364800, Note Name: E5, Velocity: 45
Note OFF: Time 365040, Note Name: E5
Note ON: Time 366720, Note Name: C#4, Velocity: 35
Note OFF: Time 366960, Note Name: C#4
Note ON: Time 366960, Note Name: E4, Velocity: 36
Note OFF: Time 367200, Note Name: E4
Note ON: Time 367200, Note Name: G4, Velocity: 37
Note OFF: Time 367440, Note Name: G4
Note ON: Time 367440, Note Name: A#4, Velocity: 38
Note OFF: Time 367680, Note Name: A#4
Note ON: Time 367680, Note Name: C#5, Velocity: 39
Note OFF: Time 367920, Note Name: C#5
Note ON: Time 367920, Note Name: E5, Velocity: 40
Note OFF: Time 368160, Note Name: E5
Note ON: Time 368160, Note Name: G5, Velocity: 40
Note OFF: Time 368400, Note Name: G5
Note ON: Time 368400, Note Name: A#5, Velocity: 41
Note OFF: Time 368640, Note Name: A#5
Note ON: Time 368640, Note Name: C#6, Velocity: 42
Note OFF: Time 368880, Note Name: C#6
Note ON: Time 368880, Note Name: E6, Velocity: 43
Note OFF: Time 369120, Note Name: E6
Note ON: Time 369120, Note Name: G6, Velocity: 44
Note OFF: Time 369360, Note Name: G6
Note ON: Time 369360, Note Name: A#6, Velocity: 46
Note OFF: Time 369600, Note Name: A#6
Note ON: Time 369600, Note Name: G6, Velocity: 46
Note OFF: Time 369840, Note Name: G6
Note ON: Time 369840, Note Name: E6, Velocity: 45
Note OFF: Time 370080, Note Name: E6
Note ON: Time 370080, Note Name: C#6, Velocity: 45
Note OFF: Time 370320, Note Name: C#6
Note ON: Time 370320, Note Name: A#5, Velocity: 44
Note OFF: Time 370560, Note Name: A#5
Note ON: Time 370560, Note Name: G5, Velocity: 44
Note OFF: Time 370800, Note Name: G5
Note ON: Time 370800, Note Name: E5, Velocity: 43
Note OFF: Time 371040, Note Name: E5
Note ON: Time 371040, Note Name: C#5, Velocity: 43
Note OFF: Time 371280, Note Name: C#5
Note ON: Time 371280, Note Name: A#4, Velocity: 42
Note OFF: Time 371520, Note Name: A#4
Note ON: Time 371520, Note Name: G4, Velocity: 42
Note OFF: Time 371760, Note Name: G4
Note ON: Time 371760, Note Name: E4, Velocity: 41
Note OFF: Time 372000, Note Name: E4
Note ON: Time 372000, Note Name: C#4, Velocity: 40
Note OFF: Time 372240, Note Name: C#4
Note ON: Time 381120, Note Name: G3, Velocity: 34
Note ON: Time 381120, Note Name: A#3, Velocity: 34
Note ON: Time 381120, Note Name: C4, Velocity: 34
Note ON: Time 381120, Note Name: E4, Velocity: 34
Note OFF: Time 381840, Note Name: E4
Note OFF: Time 381840, Note Name: G3
Note OFF: Time 381840, Note Name: A#3
Note OFF: Time 381840, Note Name: C4
Note ON: Time 382080, Note Name: G4, Velocity: 34
Note ON: Time 382080, Note Name: A#4, Velocity: 34
Note ON: Time 382080, Note Name: C5, Velocity: 34
Note ON: Time 382080, Note Name: E5, Velocity: 34
Note OFF: Time 382800, Note Name: E5
Note OFF: Time 382800, Note Name: G4
Note OFF: Time 382800, Note Name: A#4
Note OFF: Time 382800, Note Name: C5
Note ON: Time 383040, Note Name: E6, Velocity: 34
Note ON: Time 383040, Note Name: C6, Velocity: 34
Note ON: Time 383040, Note Name: A#5, Velocity: 34
Note ON: Time 383040, Note Name: G5, Velocity: 34
Note OFF: Time 383760, Note Name: G5
Note OFF: Time 383760, Note Name: E6
Note OFF: Time 383760, Note Name: C6
Note OFF: Time 383760, Note Name: A#5
Note ON: Time 385080, Note Name: C3, Velocity: 40
Note OFF: Time 385200, Note Name: C3
Note ON: Time 385200, Note Name: F3, Velocity: 37
Note OFF: Time 385320, Note Name: F3
Note ON: Time 385320, Note Name: G#3, Velocity: 37
Note OFF: Time 385440, Note Name: G#3
Note ON: Time 385440, Note Name: C4, Velocity: 40
Note OFF: Time 385560, Note Name: C4
Note ON: Time 385560, Note Name: C#4, Velocity: 38
Note OFF: Time 385680, Note Name: C#4
Note ON: Time 385680, Note Name: C4, Velocity: 38
Note OFF: Time 385800, Note Name: C4
Note ON: Time 385800, Note Name: A#3, Velocity: 38
Note OFF: Time 385920, Note Name: A#3
Note ON: Time 385920, Note Name: G#3, Velocity: 40
Note OFF: Time 386040, Note Name: G#3
Note ON: Time 386040, Note Name: A#3, Velocity: 37
Note OFF: Time 386160, Note Name: A#3
Note ON: Time 386160, Note Name: G#3, Velocity: 37
Note OFF: Time 386280, Note Name: G#3
Note ON: Time 386280, Note Name: G3, Velocity: 37
Note OFF: Time 386400, Note Name: G3
Note ON: Time 386400, Note Name: F3, Velocity: 40
Note OFF: Time 386520, Note Name: F3
Note ON: Time 386520, Note Name: G3, Velocity: 37
Note OFF: Time 386640, Note Name: G3
Note ON: Time 386640, Note Name: G#3, Velocity: 37
Note OFF: Time 386760, Note Name: G#3
Note ON: Time 386760, Note Name: F3, Velocity: 37
Note OFF: Time 386880, Note Name: F3
Note ON: Time 387000, Note Name: C3, Velocity: 40
Note OFF: Time 387120, Note Name: C3
Note ON: Time 387120, Note Name: F3, Velocity: 37
Note OFF: Time 387240, Note Name: F3
Note ON: Time 387240, Note Name: G#3, Velocity: 37
Note OFF: Time 387360, Note Name: G#3
Note ON: Time 387360, Note Name: C4, Velocity: 40
Note OFF: Time 387480, Note Name: C4
Note ON: Time 387480, Note Name: C#4, Velocity: 38
Note OFF: Time 387600, Note Name: C#4
Note ON: Time 387600, Note Name: C4, Velocity: 38
Note OFF: Time 387720, Note Name: C4
Note ON: Time 387720, Note Name: A#3, Velocity: 38
Note OFF: Time 387840, Note Name: A#3
Note ON: Time 387840, Note Name: G#3, Velocity: 40
Note OFF: Time 387960, Note Name: G#3
Note ON: Time 387960, Note Name: A#3, Velocity: 37
Note OFF: Time 388080, Note Name: A#3
Note ON: Time 388080, Note Name: G#3, Velocity: 37
Note OFF: Time 388200, Note Name: G#3
Note ON: Time 388200, Note Name: G3, Velocity: 37
Note OFF: Time 388320, Note Name: G3
Note ON: Time 388320, Note Name: F3, Velocity: 40
Note OFF: Time 388440, Note Name: F3
Note ON: Time 388440, Note Name: G3, Velocity: 37
Note OFF: Time 388560, Note Name: G3
Note ON: Time 388560, Note Name: G#3, Velocity: 37
Note OFF: Time 388680, Note Name: G#3
Note ON: Time 388680, Note Name: F3, Velocity: 37
Note OFF: Time 388800, Note Name: F3
Note ON: Time 388920, Note Name: C#3, Velocity: 44
Note OFF: Time 389040, Note Name: C#3
Note ON: Time 389040, Note Name: F#3, Velocity: 40
Note OFF: Time 389160, Note Name: F#3
Note ON: Time 389160, Note Name: A#3, Velocity: 40
Note OFF: Time 389280, Note Name: A#3
Note ON: Time 389280, Note Name: C#4, Velocity: 44
Note OFF: Time 389400, Note Name: C#4
Note ON: Time 389400, Note Name: D#4, Velocity: 41
Note OFF: Time 389520, Note Name: D#4
Note ON: Time 389520, Note Name: C#4, Velocity: 41
Note OFF: Time 389640, Note Name: C#4
Note ON: Time 389640, Note Name: C4, Velocity: 41
Note OFF: Time 389760, Note Name: C4
Note ON: Time 389760, Note Name: A#3, Velocity: 44
Note OFF: Time 389880, Note Name: A#3
Note ON: Time 389880, Note Name: C4, Velocity: 40
Note OFF: Time 390000, Note Name: C4
Note ON: Time 390000, Note Name: A#3, Velocity: 40
Note OFF: Time 390120, Note Name: A#3
Note ON: Time 390120, Note Name: G#3, Velocity: 40
Note OFF: Time 390240, Note Name: G#3
Note ON: Time 390240, Note Name: F#3, Velocity: 44
Note OFF: Time 390360, Note Name: F#3
Note ON: Time 390360, Note Name: G#3, Velocity: 40
Note OFF: Time 390480, Note Name: G#3
Note ON: Time 390480, Note Name: F#3, Velocity: 40
Note OFF: Time 390600, Note Name: F#3
Note ON: Time 390600, Note Name: F3, Velocity: 40
Note OFF: Time 390720, Note Name: F3
Note ON: Time 390720, Note Name: E3, Velocity: 44
Note OFF: Time 390840, Note Name: E3
Note ON: Time 390840, Note Name: F3, Velocity: 40
Note OFF: Time 390960, Note Name: F3
Note ON: Time 390960, Note Name: G3, Velocity: 40
Note OFF: Time 391080, Note Name: G3
Note ON: Time 391080, Note Name: E3, Velocity: 40
Note OFF: Time 391200, Note Name: E3
Note ON: Time 391200, Note Name: F3, Velocity: 44
Note OFF: Time 391320, Note Name: F3
Note ON: Time 391320, Note Name: G3, Velocity: 40
Note OFF: Time 391440, Note Name: G3
Note ON: Time 391440, Note Name: G#3, Velocity: 40
Note OFF: Time 391560, Note Name: G#3
Note ON: Time 391560, Note Name: F3, Velocity: 40
Note OFF: Time 391680, Note Name: F3
Note ON: Time 391680, Note Name: G3, Velocity: 44
Note OFF: Time 391800, Note Name: G3
Note ON: Time 391800, Note Name: G#3, Velocity: 40
Note OFF: Time 391920, Note Name: G#3
Note ON: Time 391920, Note Name: A#3, Velocity: 40
Note OFF: Time 392040, Note Name: A#3
Note ON: Time 392040, Note Name: G3, Velocity: 40
Note OFF: Time 392160, Note Name: G3
Note ON: Time 392160, Note Name: E3, Velocity: 44
Note OFF: Time 392280, Note Name: E3
Note ON: Time 392280, Note Name: F3, Velocity: 37
Note OFF: Time 392400, Note Name: F3
Note ON: Time 392400, Note Name: G3, Velocity: 38
Note OFF: Time 392520, Note Name: G3
Note ON: Time 392520, Note Name: E3, Velocity: 40
Note OFF: Time 392640, Note Name: E3
Note ON: Time 392640, Note Name: F3, Velocity: 38
Note OFF: Time 393120, Note Name: F3
Note ON: Time 393360, Note Name: E4, Velocity: 57
Note OFF: Time 393480, Note Name: E4
Note ON: Time 393600, Note Name: F4, Velocity: 62
Note OFF: Time 393720, Note Name: F4
Note ON: Time 393840, Note Name: G4, Velocity: 57
Note OFF: Time 393960, Note Name: G4
Note ON: Time 394080, Note Name: G#4, Velocity: 62
Note OFF: Time 394200, Note Name: G#4
Note ON: Time 394320, Note Name: F4, Velocity: 59
Note OFF: Time 394440, Note Name: F4
Note ON: Time 395280, Note Name: E5, Velocity: 60
Note ON: Time 395280, Note Name: E4, Velocity: 52
Note OFF: Time 395400, Note Name: E4
Note OFF: Time 395400, Note Name: E5
Note ON: Time 395520, Note Name: F5, Velocity: 66
Note ON: Time 395520, Note Name: F4, Velocity: 57
Note OFF: Time 395640, Note Name: F4
Note OFF: Time 395640, Note Name: F5
Note ON: Time 395760, Note Name: G4, Velocity: 53
Note ON: Time 395760, Note Name: G5, Velocity: 63
Note OFF: Time 395880, Note Name: G5
Note OFF: Time 395880, Note Name: G4
Note ON: Time 396000, Note Name: G#4, Velocity: 57
Note ON: Time 396000, Note Name: G#5, Velocity: 68
Note OFF: Time 396120, Note Name: G#5
Note OFF: Time 396120, Note Name: G#4
Note ON: Time 396240, Note Name: F4, Velocity: 53
Note ON: Time 396240, Note Name: F5, Velocity: 63
Note OFF: Time 396360, Note Name: F5
Note OFF: Time 396360, Note Name: F4
Note ON: Time 397200, Note Name: F4, Velocity: 59
Note ON: Time 397200, Note Name: F5, Velocity: 71
Note OFF: Time 397440, Note Name: F5
Note OFF: Time 397440, Note Name: F4
Note ON: Time 397440, Note Name: F#4, Velocity: 63
Note ON: Time 397440, Note Name: F#5, Velocity: 77
Note OFF: Time 397680, Note Name: F#5
Note OFF: Time 397680, Note Name: F#4
Note ON: Time 397680, Note Name: A#4, Velocity: 66
Note ON: Time 397680, Note Name: A#5, Velocity: 79
Note OFF: Time 397920, Note Name: A#5
Note OFF: Time 397920, Note Name: A#4
Note ON: Time 397920, Note Name: C#5, Velocity: 69
Note ON: Time 397920, Note Name: C#6, Velocity: 81
Note OFF: Time 398040, Note Name: C#6
Note OFF: Time 398040, Note Name: C#5
Note ON: Time 398160, Note Name: C#5, Velocity: 66
Note ON: Time 398160, Note Name: C#6, Velocity: 79
Note OFF: Time 398280, Note Name: C#6
Note OFF: Time 398280, Note Name: C#5
Note ON: Time 398400, Note Name: C#5, Velocity: 71
Note ON: Time 398400, Note Name: C#6, Velocity: 83
Note OFF: Time 398880, Note Name: C#6
Note OFF: Time 398880, Note Name: C#5
Note ON: Time 398880, Note Name: C6, Velocity: 78
Note ON: Time 398880, Note Name: C5, Velocity: 64
Note OFF: Time 399840, Note Name: C5
Note OFF: Time 399840, Note Name: C6
Note ON: Time 399840, Note Name: E4, Velocity: 64
Note ON: Time 399840, Note Name: E5, Velocity: 64
Note OFF: Time 400320, Note Name: E5
Note OFF: Time 400320, Note Name: E4
Note ON: Time 400320, Note Name: F5, Velocity: 57
Note ON: Time 400320, Note Name: F4, Velocity: 57
Note OFF: Time 400440, Note Name: F4
Note OFF: Time 400440, Note Name: F5
Note ON: Time 400440, Note Name: C4, Velocity: 41
Note OFF: Time 400560, Note Name: C4
Note ON: Time 400560, Note Name: F4, Velocity: 44
Note OFF: Time 400680, Note Name: F4
Note ON: Time 400680, Note Name: G#4, Velocity: 46
Note OFF: Time 400800, Note Name: G#4
Note ON: Time 400800, Note Name: C5, Velocity: 43
Note OFF: Time 400920, Note Name: C5
Note ON: Time 400920, Note Name: C4, Velocity: 45
Note OFF: Time 401040, Note Name: C4
Note ON: Time 401040, Note Name: F4, Velocity: 46
Note OFF: Time 401160, Note Name: F4
Note ON: Time 401160, Note Name: G#4, Velocity: 48
Note OFF: Time 401280, Note Name: G#4
Note ON: Time 401400, Note Name: C4, Velocity: 46
Note OFF: Time 401520, Note Name: C4
Note ON: Time 401520, Note Name: F4, Velocity: 47
Note OFF: Time 401640, Note Name: F4
Note ON: Time 401640, Note Name: G#4, Velocity: 49
Note OFF: Time 401760, Note Name: G#4
Note ON: Time 401760, Note Name: C5, Velocity: 50
Note OFF: Time 401880, Note Name: C5
Note ON: Time 401880, Note Name: C4, Velocity: 52
Note OFF: Time 402000, Note Name: C4
Note ON: Time 402000, Note Name: F4, Velocity: 53
Note OFF: Time 402120, Note Name: F4
Note ON: Time 402120, Note Name: G#4, Velocity: 38
Note OFF: Time 402240, Note Name: G#4
Note ON: Time 402360, Note Name: B3, Velocity: 51
Note OFF: Time 402480, Note Name: B3
Note ON: Time 402480, Note Name: D4, Velocity: 52
Note OFF: Time 402600, Note Name: D4
Note ON: Time 402600, Note Name: G#4, Velocity: 52
Note OFF: Time 402720, Note Name: G#4
Note ON: Time 402720, Note Name: B4, Velocity: 54
Note ON: Time 402840, Note Name: B3, Velocity: 52
Note OFF: Time 402960, Note Name: B3
Note ON: Time 402960, Note Name: D4, Velocity: 52
Note OFF: Time 403080, Note Name: D4
Note ON: Time 403080, Note Name: G#4, Velocity: 52
Note OFF: Time 403200, Note Name: G#4
Note OFF: Time 403200, Note Name: B4
Note ON: Time 403200, Note Name: B4, Velocity: 54
Note ON: Time 403320, Note Name: B3, Velocity: 52
Note OFF: Time 403440, Note Name: B3
Note ON: Time 403440, Note Name: E4, Velocity: 50
Note OFF: Time 403560, Note Name: E4
Note ON: Time 403560, Note Name: G4, Velocity: 49
Note OFF: Time 403680, Note Name: G4
Note OFF: Time 403680, Note Name: B4
Note ON: Time 403680, Note Name: C5, Velocity: 52
Note ON: Time 403800, Note Name: C4, Velocity: 46
Note OFF: Time 403920, Note Name: C4
Note ON: Time 403920, Note Name: E4, Velocity: 44
Note OFF: Time 404040, Note Name: E4
Note ON: Time 404040, Note Name: G4, Velocity: 38
Note OFF: Time 404160, Note Name: G4
Note OFF: Time 404160, Note Name: C5
Note ON: Time 404280, Note Name: C4, Velocity: 38
Note OFF: Time 404400, Note Name: C4
Note ON: Time 404400, Note Name: E4, Velocity: 40
Note OFF: Time 404520, Note Name: E4
Note ON: Time 404520, Note Name: G4, Velocity: 42
Note OFF: Time 404640, Note Name: G4
Note ON: Time 404640, Note Name: C5, Velocity: 43
Note OFF: Time 404760, Note Name: C5
Note ON: Time 404760, Note Name: C4, Velocity: 45
Note OFF: Time 404880, Note Name: C4
Note ON: Time 404880, Note Name: E4, Velocity: 46
Note OFF: Time 405000, Note Name: E4
Note ON: Time 405000, Note Name: G4, Velocity: 48
Note OFF: Time 405120, Note Name: G4
Note ON: Time 405240, Note Name: C4, Velocity: 46
Note OFF: Time 405360, Note Name: C4
Note ON: Time 405360, Note Name: E4, Velocity: 47
Note OFF: Time 405480, Note Name: E4
Note ON: Time 405480, Note Name: G4, Velocity: 49
Note OFF: Time 405600, Note Name: G4
Note ON: Time 405600, Note Name: C5, Velocity: 50
Note OFF: Time 405720, Note Name: C5
Note ON: Time 405720, Note Name: C4, Velocity: 52
Note OFF: Time 405840, Note Name: C4
Note ON: Time 405840, Note Name: E4, Velocity: 53
Note OFF: Time 405960, Note Name: E4
Note ON: Time 405960, Note Name: G4, Velocity: 38
Note OFF: Time 406080, Note Name: G4
Note ON: Time 406200, Note Name: C4, Velocity: 51
Note OFF: Time 406320, Note Name: C4
Note ON: Time 406320, Note Name: E4, Velocity: 52
Note OFF: Time 406440, Note Name: E4
Note ON: Time 406440, Note Name: G4, Velocity: 52
Note OFF: Time 406560, Note Name: G4
Note ON: Time 406560, Note Name: C5, Velocity: 54
Note ON: Time 406680, Note Name: C4, Velocity: 52
Note OFF: Time 406800, Note Name: C4
Note ON: Time 406800, Note Name: E4, Velocity: 52
Note OFF: Time 406920, Note Name: E4
Note ON: Time 406920, Note Name: G4, Velocity: 52
Note OFF: Time 407040, Note Name: G4
Note OFF: Time 407040, Note Name: C5
Note ON: Time 407040, Note Name: C5, Velocity: 53
Note ON: Time 407160, Note Name: C4, Velocity: 52
Note OFF: Time 407280, Note Name: C4
Note ON: Time 407280, Note Name: E4, Velocity: 50
Note OFF: Time 407400, Note Name: E4
Note ON: Time 407400, Note Name: G4, Velocity: 49
Note OFF: Time 407520, Note Name: G4
Note OFF: Time 407520, Note Name: C5
Note ON: Time 407520, Note Name: C5, Velocity: 47
Note ON: Time 407640, Note Name: C4, Velocity: 46
Note OFF: Time 407760, Note Name: C4
Note ON: Time 407760, Note Name: F4, Velocity: 44
Note OFF: Time 407880, Note Name: F4
Note ON: Time 407880, Note Name: G#4, Velocity: 38
Note OFF: Time 408000, Note Name: G#4
Note OFF: Time 408000, Note Name: C5
Note ON: Time 408120, Note Name: F4, Velocity: 38
Note OFF: Time 408240, Note Name: F4
Note ON: Time 408240, Note Name: A4, Velocity: 40
Note OFF: Time 408360, Note Name: A4
Note ON: Time 408360, Note Name: C5, Velocity: 42
Note OFF: Time 408480, Note Name: C5
Note ON: Time 408480, Note Name: F5, Velocity: 43
Note OFF: Time 408600, Note Name: F5
Note ON: Time 408600, Note Name: F4, Velocity: 45
Note OFF: Time 408720, Note Name: F4
Note ON: Time 408720, Note Name: A4, Velocity: 46
Note OFF: Time 408840, Note Name: A4
Note ON: Time 408840, Note Name: C5, Velocity: 48
Note OFF: Time 408960, Note Name: C5
Note ON: Time 409080, Note Name: F4, Velocity: 46
Note OFF: Time 409200, Note Name: F4
Note ON: Time 409200, Note Name: A4, Velocity: 47
Note OFF: Time 409320, Note Name: A4
Note ON: Time 409320, Note Name: C5, Velocity: 49
Note OFF: Time 409440, Note Name: C5
Note ON: Time 409440, Note Name: F5, Velocity: 50
Note OFF: Time 409560, Note Name: F5
Note ON: Time 409560, Note Name: F4, Velocity: 52
Note OFF: Time 409680, Note Name: F4
Note ON: Time 409680, Note Name: A4, Velocity: 53
Note OFF: Time 409800, Note Name: A4
Note ON: Time 409800, Note Name: C5, Velocity: 54
Note OFF: Time 409920, Note Name: C5
Note ON: Time 410040, Note Name: F4, Velocity: 50
Note OFF: Time 410160, Note Name: F4
Note ON: Time 410160, Note Name: A4, Velocity: 50
Note OFF: Time 410280, Note Name: A4
Note ON: Time 410280, Note Name: C5, Velocity: 50
Note OFF: Time 410400, Note Name: C5
Note ON: Time 410400, Note Name: F5, Velocity: 55
Note ON: Time 410520, Note Name: F4, Velocity: 53
Note OFF: Time 410640, Note Name: F4
Note ON: Time 410640, Note Name: A4, Velocity: 52
Note OFF: Time 410760, Note Name: A4
Note ON: Time 410760, Note Name: C5, Velocity: 52
Note OFF: Time 410880, Note Name: C5
Note OFF: Time 410880, Note Name: F5
Note ON: Time 410880, Note Name: A4, Velocity: 54
Note ON: Time 410880, Note Name: F4, Velocity: 54
Note OFF: Time 411000, Note Name: F4
Note OFF: Time 411000, Note Name: A4
Note ON: Time 411000, Note Name: F5, Velocity: 54
Note OFF: Time 411120, Note Name: F5
Note ON: Time 411120, Note Name: F4, Velocity: 53
Note ON: Time 411120, Note Name: A#4, Velocity: 53
Note OFF: Time 411240, Note Name: A#4
Note OFF: Time 411240, Note Name: F4
Note ON: Time 411240, Note Name: F5, Velocity: 52
Note OFF: Time 411360, Note Name: F5
Note ON: Time 411360, Note Name: F4, Velocity: 52
Note ON: Time 411360, Note Name: C5, Velocity: 52
Note OFF: Time 411480, Note Name: C5
Note OFF: Time 411480, Note Name: F4
Note ON: Time 411480, Note Name: F5, Velocity: 51
Note OFF: Time 411600, Note Name: F5
Note ON: Time 411600, Note Name: C#5, Velocity: 50
Note ON: Time 411600, Note Name: F4, Velocity: 50
Note OFF: Time 411720, Note Name: F4
Note OFF: Time 411720, Note Name: C#5
Note ON: Time 411720, Note Name: F5, Velocity: 50
Note OFF: Time 411840, Note Name: F5
Note ON: Time 411960, Note Name: C4, Velocity: 52
Note OFF: Time 412080, Note Name: C4
Note ON: Time 412080, Note Name: F4, Velocity: 49
Note OFF: Time 412200, Note Name: F4
Note ON: Time 412200, Note Name: G#4, Velocity: 50
Note OFF: Time 412320, Note Name: G#4
Note ON: Time 412320, Note Name: C5, Velocity: 56
Note ON: Time 412440, Note Name: C4, Velocity: 50
Note OFF: Time 412560, Note Name: C4
Note ON: Time 412560, Note Name: F4, Velocity: 50
Note OFF: Time 412680, Note Name: F4
Note ON: Time 412680, Note Name: G#4, Velocity: 50
Note OFF: Time 412800, Note Name: G#4
Note OFF: Time 412800, Note Name: C5
Note ON: Time 412800, Note Name: C5, Velocity: 56
Note ON: Time 412920, Note Name: C4, Velocity: 52
Note OFF: Time 413040, Note Name: C4
Note ON: Time 413040, Note Name: G4, Velocity: 52
Note OFF: Time 413160, Note Name: G4
Note ON: Time 413160, Note Name: A#4, Velocity: 52
Note OFF: Time 413280, Note Name: A#4
Note OFF: Time 413280, Note Name: C5
Note ON: Time 413280, Note Name: C5, Velocity: 56
Note ON: Time 413400, Note Name: C4, Velocity: 52
Note OFF: Time 413520, Note Name: C4
Note ON: Time 413520, Note Name: E4, Velocity: 52
Note OFF: Time 413640, Note Name: E4
Note ON: Time 413640, Note Name: G4, Velocity: 52
Note OFF: Time 413760, Note Name: G4
Note OFF: Time 413760, Note Name: C5
Note ON: Time 413760, Note Name: C4, Velocity: 59
Note ON: Time 413760, Note Name: F4, Velocity: 59
Note ON: Time 413760, Note Name: G#4, Velocity: 59
Note ON: Time 413760, Note Name: C5, Velocity: 59
Note OFF: Time 414240, Note Name: C5
Note OFF: Time 414240, Note Name: C4
Note OFF: Time 414240, Note Name: F4
Note OFF: Time 414240, Note Name: G#4
Note ON: Time 414600, Note Name: G#5, Velocity: 69
Note ON: Time 414600, Note Name: F5, Velocity: 69
Note OFF: Time 414720, Note Name: F5
Note OFF: Time 414720, Note Name: G#5
Note ON: Time 414720, Note Name: G#5, Velocity: 74
Note ON: Time 414720, Note Name: F5, Velocity: 74
Note OFF: Time 415200, Note Name: F5
Note OFF: Time 415200, Note Name: G#5
Note ON: Time 415560, Note Name: G#5, Velocity: 70
Note ON: Time 415560, Note Name: F5, Velocity: 70
Note OFF: Time 415680, Note Name: F5
Note OFF: Time 415680, Note Name: G#5
Note ON: Time 415680, Note Name: G#5, Velocity: 75
Note ON: Time 415680, Note Name: F5, Velocity: 75
Note OFF: Time 416640, Note Name: F5
Note OFF: Time 416640, Note Name: G#5
Note ON: Time 416640, Note Name: G5, Velocity: 68
Note ON: Time 416640, Note Name: E5, Velocity: 68
Note OFF: Time 416880, Note Name: E5
Note OFF: Time 416880, Note Name: G5
Note ON: Time 418440, Note Name: A#5, Velocity: 75
Note ON: Time 418440, Note Name: G5, Velocity: 75
Note OFF: Time 418560, Note Name: G5
Note OFF: Time 418560, Note Name: A#5
Note ON: Time 418560, Note Name: A#5, Velocity: 81
Note ON: Time 418560, Note Name: G5, Velocity: 81
Note OFF: Time 419040, Note Name: G5
Note OFF: Time 419040, Note Name: A#5
Note ON: Time 419400, Note Name: A#5, Velocity: 77
Note ON: Time 419400, Note Name: G5, Velocity: 77
Note OFF: Time 419520, Note Name: G5
Note OFF: Time 419520, Note Name: A#5
Note ON: Time 419520, Note Name: A#5, Velocity: 82
Note ON: Time 419520, Note Name: G5, Velocity: 82
Note OFF: Time 420480, Note Name: G5
Note OFF: Time 420480, Note Name: A#5
Note ON: Time 420480, Note Name: G#5, Velocity: 74
Note ON: Time 420480, Note Name: F5, Velocity: 74
Note OFF: Time 420720, Note Name: F5
Note OFF: Time 420720, Note Name: G#5
Note ON: Time 422280, Note Name: D#6, Velocity: 82
Note ON: Time 422280, Note Name: C6, Velocity: 82
Note OFF: Time 422400, Note Name: C6
Note OFF: Time 422400, Note Name: D#6
Note ON: Time 422400, Note Name: D#6, Velocity: 89
Note ON: Time 422400, Note Name: C6, Velocity: 89
Note OFF: Time 422880, Note Name: C6
Note OFF: Time 422880, Note Name: D#6
Note ON: Time 423240, Note Name: D#6, Velocity: 84
Note ON: Time 423240, Note Name: C6, Velocity: 84
Note OFF: Time 423360, Note Name: C6
Note OFF: Time 423360, Note Name: D#6
Note ON: Time 423360, Note Name: D#6, Velocity: 90
Note ON: Time 423360, Note Name: C6, Velocity: 90
Note OFF: Time 424560, Note Name: C6
Note OFF: Time 424560, Note Name: D#6
Note ON: Time 424560, Note Name: C#6, Velocity: 79
Note ON: Time 424560, Note Name: A#5, Velocity: 79
Note OFF: Time 424800, Note Name: A#5
Note OFF: Time 424800, Note Name: C#6
Note ON: Time 424800, Note Name: C6, Velocity: 77
Note ON: Time 424800, Note Name: G#5, Velocity: 77
Note OFF: Time 425040, Note Name: G#5
Note OFF: Time 425040, Note Name: C6
Note ON: Time 425040, Note Name: A#5, Velocity: 73
Note ON: Time 425040, Note Name: G5, Velocity: 73
Note OFF: Time 425280, Note Name: G5
Note OFF: Time 425280, Note Name: A#5
Note ON: Time 425280, Note Name: G#5, Velocity: 82
Note ON: Time 425280, Note Name: F5, Velocity: 82
Note OFF: Time 425760, Note Name: F5
Note OFF: Time 425760, Note Name: G#5
Note ON: Time 426120, Note Name: F6, Velocity: 79
Note ON: Time 426120, Note Name: G#5, Velocity: 79
Note ON: Time 426120, Note Name: F5, Velocity: 79
Note OFF: Time 426240, Note Name: F5
Note OFF: Time 426240, Note Name: G#5
Note OFF: Time 426240, Note Name: F6
Note ON: Time 426240, Note Name: G6, Velocity: 82
Note ON: Time 426240, Note Name: A#5, Velocity: 82
Note ON: Time 426240, Note Name: G5, Velocity: 82
Note OFF: Time 426720, Note Name: G5
Note OFF: Time 426720, Note Name: A#5
Note OFF: Time 426720, Note Name: G6
Note ON: Time 427080, Note Name: E6, Velocity: 79
Note ON: Time 427080, Note Name: G5, Velocity: 79
Note ON: Time 427080, Note Name: E5, Velocity: 79
Note OFF: Time 427200, Note Name: E5
Note OFF: Time 427200, Note Name: G5
Note OFF: Time 427200, Note Name: E6
Note ON: Time 427200, Note Name: F6, Velocity: 73
Note ON: Time 427200, Note Name: G#5, Velocity: 73
Note ON: Time 427200, Note Name: F5, Velocity: 73
Note OFF: Time 427320, Note Name: F5
Note OFF: Time 427320, Note Name: G#5
Note OFF: Time 427320, Note Name: F6
Note ON: Time 427320, Note Name: C5, Velocity: 61
Note OFF: Time 427440, Note Name: C5
Note ON: Time 427440, Note Name: F5, Velocity: 62
Note OFF: Time 427560, Note Name: F5
Note ON: Time 427560, Note Name: G#5, Velocity: 63
Note OFF: Time 427680, Note Name: G#5
Note ON: Time 427680, Note Name: C6, Velocity: 68
Note OFF: Time 427800, Note Name: C6
Note ON: Time 427800, Note Name: C#6, Velocity: 65
Note OFF: Time 427920, Note Name: C#6
Note ON: Time 427920, Note Name: C6, Velocity: 66
Note OFF: Time 428040, Note Name: C6
Note ON: Time 428040, Note Name: A#5, Velocity: 65
Note OFF: Time 428160, Note Name: A#5
Note ON: Time 428160, Note Name: G#5, Velocity: 68
Note OFF: Time 428280, Note Name: G#5
Note ON: Time 428280, Note Name: A#5, Velocity: 67
Note OFF: Time 428400, Note Name: A#5
Note ON: Time 428400, Note Name: G#5, Velocity: 66
Note OFF: Time 428520, Note Name: G#5
Note ON: Time 428520, Note Name: G5, Velocity: 65
Note OFF: Time 428640, Note Name: G5
Note ON: Time 428640, Note Name: F5, Velocity: 64
Note OFF: Time 428760, Note Name: F5
Note ON: Time 428760, Note Name: G5, Velocity: 63
Note OFF: Time 428880, Note Name: G5
Note ON: Time 428880, Note Name: G#5, Velocity: 63
Note OFF: Time 429000, Note Name: G#5
Note ON: Time 429000, Note Name: F5, Velocity: 62
Note OFF: Time 429120, Note Name: F5
Note ON: Time 429240, Note Name: C5, Velocity: 61
Note OFF: Time 429360, Note Name: C5
Note ON: Time 429360, Note Name: F5, Velocity: 62
Note OFF: Time 429480, Note Name: F5
Note ON: Time 429480, Note Name: G#5, Velocity: 63
Note OFF: Time 429600, Note Name: G#5
Note ON: Time 429600, Note Name: C6, Velocity: 68
Note OFF: Time 429720, Note Name: C6
Note ON: Time 429720, Note Name: C#6, Velocity: 65
Note OFF: Time 429840, Note Name: C#6
Note ON: Time 429840, Note Name: C6, Velocity: 66
Note OFF: Time 429960, Note Name: C6
Note ON: Time 429960, Note Name: A#5, Velocity: 65
Note OFF: Time 430080, Note Name: A#5
Note ON: Time 430080, Note Name: G#5, Velocity: 68
Note OFF: Time 430200, Note Name: G#5
Note ON: Time 430200, Note Name: A#5, Velocity: 67
Note OFF: Time 430320, Note Name: A#5
Note ON: Time 430320, Note Name: G#5, Velocity: 66
Note OFF: Time 430440, Note Name: G#5
Note ON: Time 430440, Note Name: G5, Velocity: 65
Note OFF: Time 430560, Note Name: G5
Note ON: Time 430560, Note Name: F5, Velocity: 64
Note OFF: Time 430680, Note Name: F5
Note ON: Time 430680, Note Name: G5, Velocity: 63
Note OFF: Time 430800, Note Name: G5
Note ON: Time 430800, Note Name: G#5, Velocity: 63
Note OFF: Time 430920, Note Name: G#5
Note ON: Time 430920, Note Name: F5, Velocity: 62
Note OFF: Time 431040, Note Name: F5
Note ON: Time 431160, Note Name: F#5, Velocity: 64
Note OFF: Time 431280, Note Name: F#5
Note ON: Time 431280, Note Name: C6, Velocity: 65
Note OFF: Time 431400, Note Name: C6
Note ON: Time 431400, Note Name: D#6, Velocity: 66
Note OFF: Time 431520, Note Name: D#6
Note ON: Time 431520, Note Name: F#6, Velocity: 72
Note OFF: Time 431640, Note Name: F#6
Note ON: Time 431640, Note Name: G#6, Velocity: 69
Note OFF: Time 431760, Note Name: G#6
Note ON: Time 431760, Note Name: F#6, Velocity: 70
Note OFF: Time 431880, Note Name: F#6
Note ON: Time 431880, Note Name: F6, Velocity: 69
Note OFF: Time 432000, Note Name: F6
Note ON: Time 432000, Note Name: D#6, Velocity: 72
Note OFF: Time 432120, Note Name: D#6
Note ON: Time 432120, Note Name: F6, Velocity: 71
Note OFF: Time 432240, Note Name: F6
Note ON: Time 432240, Note Name: D#6, Velocity: 70
Note OFF: Time 432360, Note Name: D#6
Note ON: Time 432360, Note Name: C#6, Velocity: 69
Note OFF: Time 432480, Note Name: C#6
Note ON: Time 432480, Note Name: C6, Velocity: 68
Note OFF: Time 432600, Note Name: C6
Note ON: Time 432600, Note Name: C#6, Velocity: 67
Note OFF: Time 432720, Note Name: C#6
Note ON: Time 432720, Note Name: D#6, Velocity: 66
Note OFF: Time 432840, Note Name: D#6
Note ON: Time 432840, Note Name: C6, Velocity: 65
Note OFF: Time 432960, Note Name: C6
Note ON: Time 433080, Note Name: F#5, Velocity: 64
Note OFF: Time 433200, Note Name: F#5
Note ON: Time 433200, Note Name: C6, Velocity: 65
Note OFF: Time 433320, Note Name: C6
Note ON: Time 433320, Note Name: D#6, Velocity: 66
Note OFF: Time 433440, Note Name: D#6
Note ON: Time 433440, Note Name: F#6, Velocity: 72
Note OFF: Time 433560, Note Name: F#6
Note ON: Time 433560, Note Name: G#6, Velocity: 69
Note OFF: Time 433680, Note Name: G#6
Note ON: Time 433680, Note Name: F#6, Velocity: 70
Note OFF: Time 433800, Note Name: F#6
Note ON: Time 433800, Note Name: F6, Velocity: 69
Note OFF: Time 433920, Note Name: F6
Note ON: Time 433920, Note Name: D#6, Velocity: 72
Note OFF: Time 434040, Note Name: D#6
Note ON: Time 434040, Note Name: F6, Velocity: 71
Note OFF: Time 434160, Note Name: F6
Note ON: Time 434160, Note Name: D#6, Velocity: 70
Note OFF: Time 434280, Note Name: D#6
Note ON: Time 434280, Note Name: C#6, Velocity: 69
Note OFF: Time 434400, Note Name: C#6
Note ON: Time 434400, Note Name: C6, Velocity: 68
Note OFF: Time 434520, Note Name: C6
Note ON: Time 434520, Note Name: A#5, Velocity: 67
Note OFF: Time 434640, Note Name: A#5
Note ON: Time 434640, Note Name: G#5, Velocity: 66
Note OFF: Time 434760, Note Name: G#5
Note ON: Time 434760, Note Name: F#5, Velocity: 65
Note OFF: Time 434880, Note Name: F#5
Note ON: Time 434880, Note Name: F5, Velocity: 68
Note OFF: Time 435000, Note Name: F5
Note ON: Time 435000, Note Name: G#5, Velocity: 67
Note OFF: Time 435120, Note Name: G#5
Note ON: Time 435120, Note Name: C#6, Velocity: 68
Note OFF: Time 435240, Note Name: C#6
Note ON: Time 435240, Note Name: F6, Velocity: 69
Note OFF: Time 435360, Note Name: F6
Note ON: Time 435360, Note Name: G#6, Velocity: 75
Note OFF: Time 435480, Note Name: G#6
Note ON: Time 435480, Note Name: A#6, Velocity: 72
Note OFF: Time 435600, Note Name: A#6
Note ON: Time 435600, Note Name: G#6, Velocity: 73
Note OFF: Time 435720, Note Name: G#6
Note ON: Time 435720, Note Name: F#6, Velocity: 72
Note OFF: Time 435840, Note Name: F#6
Note ON: Time 435840, Note Name: F6, Velocity: 75
Note OFF: Time 435960, Note Name: F6
Note ON: Time 435960, Note Name: F#6, Velocity: 74
Note OFF: Time 436080, Note Name: F#6
Note ON: Time 436080, Note Name: F6, Velocity: 73
Note OFF: Time 436200, Note Name: F6
Note ON: Time 436200, Note Name: D#6, Velocity: 72
Note OFF: Time 436320, Note Name: D#6
Note ON: Time 436320, Note Name: C#6, Velocity: 71
Note OFF: Time 436440, Note Name: C#6
Note ON: Time 436440, Note Name: D#6, Velocity: 70
Note OFF: Time 436560, Note Name: D#6
Note ON: Time 436560, Note Name: F6, Velocity: 69
Note OFF: Time 436680, Note Name: F6
Note ON: Time 436680, Note Name: C#6, Velocity: 68
Note OFF: Time 436800, Note Name: C#6
Note ON: Time 436920, Note Name: G#5, Velocity: 67
Note OFF: Time 437040, Note Name: G#5
Note ON: Time 437040, Note Name: C#6, Velocity: 68
Note OFF: Time 437160, Note Name: C#6
Note ON: Time 437160, Note Name: F6, Velocity: 69
Note OFF: Time 437280, Note Name: F6
Note ON: Time 437280, Note Name: G#6, Velocity: 76
Note OFF: Time 437400, Note Name: G#6
Note ON: Time 437400, Note Name: A#6, Velocity: 74
Note OFF: Time 437520, Note Name: A#6
Note ON: Time 437520, Note Name: G#6, Velocity: 75
Note OFF: Time 437640, Note Name: G#6
Note ON: Time 437640, Note Name: F#6, Velocity: 74
Note OFF: Time 437760, Note Name: F#6
Note ON: Time 437760, Note Name: F6, Velocity: 78
Note OFF: Time 437880, Note Name: F6
Note ON: Time 437880, Note Name: F#6, Velocity: 77
Note OFF: Time 438000, Note Name: F#6
Note ON: Time 438000, Note Name: G#6, Velocity: 77
Note OFF: Time 438120, Note Name: G#6
Note ON: Time 438120, Note Name: F#6, Velocity: 76
Note OFF: Time 438240, Note Name: F#6
Note ON: Time 438240, Note Name: F6, Velocity: 75
Note OFF: Time 438360, Note Name: F6
Note ON: Time 438360, Note Name: F#6, Velocity: 75
Note OFF: Time 438480, Note Name: F#6
Note ON: Time 438480, Note Name: G#6, Velocity: 74
Note OFF: Time 438600, Note Name: G#6
Note ON: Time 438600, Note Name: F6, Velocity: 74
Note OFF: Time 438720, Note Name: F6
Note ON: Time 438840, Note Name: F#6, Velocity: 70
Note OFF: Time 438960, Note Name: F#6
Note ON: Time 438960, Note Name: G#6, Velocity: 73
Note OFF: Time 439080, Note Name: G#6
Note ON: Time 439080, Note Name: F#6, Velocity: 70
Note OFF: Time 439200, Note Name: F#6
Note ON: Time 439200, Note Name: G#6, Velocity: 65
Note OFF: Time 439320, Note Name: G#6
Note ON: Time 439320, Note Name: F#6, Velocity: 63
Note OFF: Time 439440, Note Name: F#6
Note ON: Time 439440, Note Name: F6, Velocity: 59
Note OFF: Time 439560, Note Name: F6
Note ON: Time 439560, Note Name: F#6, Velocity: 59
Note OFF: Time 439680, Note Name: F#6
Note ON: Time 439800, Note Name: E6, Velocity: 58
Note OFF: Time 439920, Note Name: E6
Note ON: Time 439920, Note Name: F6, Velocity: 60
Note OFF: Time 440040, Note Name: F6
Note ON: Time 440040, Note Name: E6, Velocity: 57
Note OFF: Time 440160, Note Name: E6
Note ON: Time 440280, Note Name: F6, Velocity: 57
Note OFF: Time 440400, Note Name: F6
Note ON: Time 440400, Note Name: G6, Velocity: 60
Note OFF: Time 440520, Note Name: G6
Note ON: Time 440520, Note Name: F6, Velocity: 56
Note OFF: Time 440640, Note Name: F6
Note ON: Time 440760, Note Name: F#6, Velocity: 70
Note OFF: Time 440880, Note Name: F#6
Note ON: Time 440880, Note Name: G#6, Velocity: 73
Note OFF: Time 441000, Note Name: G#6
Note ON: Time 441000, Note Name: F#6, Velocity: 70
Note OFF: Time 441120, Note Name: F#6
Note ON: Time 441120, Note Name: G#6, Velocity: 65
Note OFF: Time 441240, Note Name: G#6
Note ON: Time 441240, Note Name: F#6, Velocity: 63
Note OFF: Time 441360, Note Name: F#6
Note ON: Time 441360, Note Name: F6, Velocity: 59
Note OFF: Time 441480, Note Name: F6
Note ON: Time 441480, Note Name: F#6, Velocity: 59
Note OFF: Time 441600, Note Name: F#6
Note ON: Time 441720, Note Name: E6, Velocity: 58
Note OFF: Time 441840, Note Name: E6
Note ON: Time 441840, Note Name: F6, Velocity: 60
Note OFF: Time 441960, Note Name: F6
Note ON: Time 441960, Note Name: E6, Velocity: 57
Note OFF: Time 442080, Note Name: E6
Note ON: Time 442200, Note Name: F6, Velocity: 57
Note OFF: Time 442320, Note Name: F6
Note ON: Time 442320, Note Name: G6, Velocity: 60
Note OFF: Time 442440, Note Name: G6
Note ON: Time 442440, Note Name: F6, Velocity: 56
Note OFF: Time 442560, Note Name: F6
Note ON: Time 442680, Note Name: F#6, Velocity: 70
Note OFF: Time 442800, Note Name: F#6
Note ON: Time 442800, Note Name: G#6, Velocity: 73
Note OFF: Time 442920, Note Name: G#6
Note ON: Time 442920, Note Name: F#6, Velocity: 70
Note OFF: Time 443040, Note Name: F#6
Note ON: Time 443040, Note Name: G#6, Velocity: 73
Note OFF: Time 443160, Note Name: G#6
Note ON: Time 443160, Note Name: F#6, Velocity: 70
Note OFF: Time 443280, Note Name: F#6
Note ON: Time 443280, Note Name: F6, Velocity: 59
Note OFF: Time 443400, Note Name: F6
Note ON: Time 443400, Note Name: G6, Velocity: 59
Note OFF: Time 443520, Note Name: G6
Note ON: Time 443640, Note Name: E6, Velocity: 58
Note OFF: Time 443760, Note Name: E6
Note ON: Time 443760, Note Name: F6, Velocity: 60
Note OFF: Time 443880, Note Name: F6
Note ON: Time 443880, Note Name: E6, Velocity: 58
Note OFF: Time 444000, Note Name: E6
Note ON: Time 444120, Note Name: C#6, Velocity: 58
Note OFF: Time 444240, Note Name: C#6
Note ON: Time 444240, Note Name: D#6, Velocity: 61
Note OFF: Time 444360, Note Name: D#6
Note ON: Time 444360, Note Name: C#6, Velocity: 57
Note OFF: Time 444480, Note Name: C#6
Note ON: Time 444600, Note Name: C6, Velocity: 60
Note OFF: Time 444720, Note Name: C6
Note ON: Time 444720, Note Name: C#6, Velocity: 62
Note OFF: Time 444840, Note Name: C#6
Note ON: Time 444840, Note Name: C6, Velocity: 60
Note OFF: Time 444960, Note Name: C6
Note ON: Time 445080, Note Name: B5, Velocity: 61
Note OFF: Time 445200, Note Name: B5
Note ON: Time 445200, Note Name: C6, Velocity: 65
Note OFF: Time 445320, Note Name: C6
Note ON: Time 445320, Note Name: B5, Velocity: 62
Note OFF: Time 445440, Note Name: B5
Note ON: Time 445560, Note Name: A#5, Velocity: 65
Note OFF: Time 445680, Note Name: A#5
Note ON: Time 445680, Note Name: C6, Velocity: 67
Note OFF: Time 445800, Note Name: C6
Note ON: Time 445800, Note Name: A#5, Velocity: 64
Note OFF: Time 445920, Note Name: A#5
Note ON: Time 446040, Note Name: G#5, Velocity: 66
Note OFF: Time 446160, Note Name: G#5
Note ON: Time 446160, Note Name: A#5, Velocity: 69
Note OFF: Time 446280, Note Name: A#5
Note ON: Time 446280, Note Name: G#5, Velocity: 67
Note OFF: Time 446400, Note Name: G#5
Note ON: Time 446520, Note Name: G#5, Velocity: 67
Note OFF: Time 446640, Note Name: G#5
Note ON: Time 446640, Note Name: A#5, Velocity: 70
Note OFF: Time 446760, Note Name: A#5
Note ON: Time 446760, Note Name: G#5, Velocity: 68
Note OFF: Time 446880, Note Name: G#5
Note ON: Time 447000, Note Name: G5, Velocity: 66
Note OFF: Time 447120, Note Name: G5
Note ON: Time 447120, Note Name: G#5, Velocity: 69
Note OFF: Time 447240, Note Name: G#5
Note ON: Time 447240, Note Name: G5, Velocity: 64
Note OFF: Time 447360, Note Name: G5
Note ON: Time 447480, Note Name: F5, Velocity: 64
Note OFF: Time 447600, Note Name: F5
Note ON: Time 447600, Note Name: G5, Velocity: 65
Note OFF: Time 447720, Note Name: G5
Note ON: Time 447720, Note Name: F5, Velocity: 62
Note OFF: Time 447840, Note Name: F5
Note ON: Time 447960, Note Name: E5, Velocity: 60
Note OFF: Time 448080, Note Name: E5
Note ON: Time 448080, Note Name: F5, Velocity: 62
Note OFF: Time 448200, Note Name: F5
Note ON: Time 448200, Note Name: E5, Velocity: 57
Note OFF: Time 448320, Note Name: E5
Note ON: Time 448440, Note Name: C#4, Velocity: 66
Note OFF: Time 448560, Note Name: C#4
Note ON: Time 448560, Note Name: C#5, Velocity: 73
Note OFF: Time 448680, Note Name: C#5
Note ON: Time 448680, Note Name: C#4, Velocity: 59
Note OFF: Time 448800, Note Name: C#4
Note ON: Time 448800, Note Name: C#5, Velocity: 71
Note OFF: Time 448920, Note Name: C#5
Note ON: Time 448920, Note Name: C#4, Velocity: 58
Note OFF: Time 449040, Note Name: C#4
Note ON: Time 449040, Note Name: C#5, Velocity: 63
Note OFF: Time 449160, Note Name: C#5
Note ON: Time 449160, Note Name: C#4, Velocity: 59
Note OFF: Time 449280, Note Name: C#4
Note ON: Time 449400, Note Name: C#4, Velocity: 60
Note OFF: Time 449520, Note Name: C#4
Note ON: Time 449520, Note Name: C#5, Velocity: 71
Note OFF: Time 449640, Note Name: C#5
Note ON: Time 449640, Note Name: C5, Velocity: 66
Note OFF: Time 449760, Note Name: C5
Note ON: Time 449760, Note Name: A#4, Velocity: 68
Note OFF: Time 449880, Note Name: A#4
Note ON: Time 449880, Note Name: G#4, Velocity: 66
Note OFF: Time 450000, Note Name: G#4
Note ON: Time 450000, Note Name: G4, Velocity: 65
Note OFF: Time 450120, Note Name: G4
Note ON: Time 450120, Note Name: F4, Velocity: 58
Note OFF: Time 450240, Note Name: F4
Note ON: Time 450360, Note Name: C#5, Velocity: 68
Note OFF: Time 450480, Note Name: C#5
Note ON: Time 450480, Note Name: C#6, Velocity: 75
Note OFF: Time 450600, Note Name: C#6
Note ON: Time 450600, Note Name: C#5, Velocity: 67
Note OFF: Time 450720, Note Name: C#5
Note ON: Time 450720, Note Name: C#6, Velocity: 74
Note OFF: Time 450840, Note Name: C#6
Note ON: Time 450840, Note Name: C#5, Velocity: 67
Note OFF: Time 450960, Note Name: C#5
Note ON: Time 450960, Note Name: C#6, Velocity: 69
Note OFF: Time 451080, Note Name: C#6
Note ON: Time 451080, Note Name: C#5, Velocity: 60
Note OFF: Time 451200, Note Name: C#5
Note ON: Time 451320, Note Name: C#5, Velocity: 61
Note OFF: Time 451440, Note Name: C#5
Note ON: Time 451440, Note Name: C#6, Velocity: 73
Note OFF: Time 451560, Note Name: C#6
Note ON: Time 451560, Note Name: C6, Velocity: 66
Note OFF: Time 451680, Note Name: C6
Note ON: Time 451680, Note Name: A#5, Velocity: 70
Note OFF: Time 451800, Note Name: A#5
Note ON: Time 451800, Note Name: G#5, Velocity: 68
Note OFF: Time 451920, Note Name: G#5
Note ON: Time 451920, Note Name: G5, Velocity: 67
Note OFF: Time 452040, Note Name: G5
Note ON: Time 452040, Note Name: F5, Velocity: 65
Note OFF: Time 452160, Note Name: F5
Note ON: Time 452280, Note Name: C#4, Velocity: 66
Note OFF: Time 452400, Note Name: C#4
Note ON: Time 452400, Note Name: C#5, Velocity: 73
Note OFF: Time 452520, Note Name: C#5
Note ON: Time 452520, Note Name: C#4, Velocity: 66
Note OFF: Time 452640, Note Name: C#4
Note ON: Time 452640, Note Name: C#5, Velocity: 73
Note OFF: Time 452760, Note Name: C#5
Note ON: Time 452760, Note Name: C#4, Velocity: 66
Note OFF: Time 452880, Note Name: C#4
Note ON: Time 452880, Note Name: C#5, Velocity: 68
Note OFF: Time 453000, Note Name: C#5
Note ON: Time 453000, Note Name: C#4, Velocity: 61
Note OFF: Time 453120, Note Name: C#4
Note ON: Time 453240, Note Name: C#5, Velocity: 68
Note OFF: Time 453360, Note Name: C#5
Note ON: Time 453360, Note Name: C#4, Velocity: 60
Note OFF: Time 453480, Note Name: C#4
Note ON: Time 453480, Note Name: C#5, Velocity: 68
Note OFF: Time 453600, Note Name: C#5
Note ON: Time 453720, Note Name: C#6, Velocity: 78
Note OFF: Time 453840, Note Name: C#6
Note ON: Time 453840, Note Name: C#5, Velocity: 69
Note OFF: Time 453960, Note Name: C#5
Note ON: Time 453960, Note Name: C#6, Velocity: 75
Note OFF: Time 454080, Note Name: C#6
Note ON: Time 454200, Note Name: C6, Velocity: 76
Note OFF: Time 454320, Note Name: C6
Note ON: Time 454320, Note Name: C5, Velocity: 71
Note OFF: Time 454440, Note Name: C5
Note ON: Time 454440, Note Name: C6, Velocity: 74
Note OFF: Time 454560, Note Name: C6
Note ON: Time 454680, Note Name: B5, Velocity: 77
Note OFF: Time 454800, Note Name: B5
Note ON: Time 454800, Note Name: B4, Velocity: 71
Note OFF: Time 454920, Note Name: B4
Note ON: Time 454920, Note Name: B5, Velocity: 74
Note OFF: Time 455040, Note Name: B5
Note ON: Time 455160, Note Name: A#5, Velocity: 78
Note OFF: Time 455280, Note Name: A#5
Note ON: Time 455280, Note Name: A#4, Velocity: 69
Note OFF: Time 455400, Note Name: A#4
Note ON: Time 455400, Note Name: A#5, Velocity: 74
Note OFF: Time 455520, Note Name: A#5
Note ON: Time 455640, Note Name: G#5, Velocity: 77
Note OFF: Time 455760, Note Name: G#5
Note ON: Time 455760, Note Name: G#4, Velocity: 71
Note ON: Time 455760, Note Name: C5, Velocity: 71
Note OFF: Time 455880, Note Name: C5
Note OFF: Time 455880, Note Name: G#4
Note ON: Time 455880, Note Name: G#5, Velocity: 73
Note OFF: Time 456000, Note Name: G#5
Note ON: Time 456120, Note Name: G#5, Velocity: 75
Note OFF: Time 456240, Note Name: G#5
Note ON: Time 456240, Note Name: D5, Velocity: 68
Note ON: Time 456240, Note Name: G#4, Velocity: 68
Note OFF: Time 456360, Note Name: G#4
Note OFF: Time 456360, Note Name: D5
Note ON: Time 456360, Note Name: G#5, Velocity: 72
Note OFF: Time 456480, Note Name: G#5
Note ON: Time 456600, Note Name: G5, Velocity: 73
Note OFF: Time 456720, Note Name: G5
Note ON: Time 456720, Note Name: D5, Velocity: 66
Note ON: Time 456720, Note Name: G4, Velocity: 66
Note OFF: Time 456840, Note Name: G4
Note OFF: Time 456840, Note Name: D5
Note ON: Time 456840, Note Name: G5, Velocity: 73
Note OFF: Time 456960, Note Name: G5
Note ON: Time 457080, Note Name: F5, Velocity: 71
Note OFF: Time 457200, Note Name: F5
Note ON: Time 457200, Note Name: G#4, Velocity: 66
Note ON: Time 457200, Note Name: F4, Velocity: 66
Note OFF: Time 457320, Note Name: F4
Note OFF: Time 457320, Note Name: G#4
Note ON: Time 457320, Note Name: F5, Velocity: 71
Note OFF: Time 457440, Note Name: F5
Note ON: Time 457560, Note Name: E5, Velocity: 72
Note OFF: Time 457680, Note Name: E5
Note ON: Time 457680, Note Name: G4, Velocity: 66
Note ON: Time 457680, Note Name: E4, Velocity: 66
Note OFF: Time 457800, Note Name: E4
Note OFF: Time 457800, Note Name: G4
Note ON: Time 457800, Note Name: E5, Velocity: 69
Note OFF: Time 457920, Note Name: E5
Note ON: Time 457920, Note Name: F4, Velocity: 65
Note ON: Time 457920, Note Name: G#4, Velocity: 65
Note ON: Time 457920, Note Name: F5, Velocity: 77
Note OFF: Time 458040, Note Name: F5
Note OFF: Time 458040, Note Name: G#4
Note OFF: Time 458040, Note Name: F4
Note ON: Time 458040, Note Name: C4, Velocity: 74
Note OFF: Time 458160, Note Name: C4
Note ON: Time 458160, Note Name: F4, Velocity: 76
Note OFF: Time 458280, Note Name: F4
Note ON: Time 458280, Note Name: G#4, Velocity: 78
Note OFF: Time 458400, Note Name: G#4
Note ON: Time 458400, Note Name: C5, Velocity: 80
Note OFF: Time 458520, Note Name: C5
Note ON: Time 458520, Note Name: C#5, Velocity: 76
Note OFF: Time 458640, Note Name: C#5
Note ON: Time 458640, Note Name: C5, Velocity: 76
Note OFF: Time 458760, Note Name: C5
Note ON: Time 458760, Note Name: A#4, Velocity: 76
Note OFF: Time 458880, Note Name: A#4
Note ON: Time 458880, Note Name: G#4, Velocity: 77
Note OFF: Time 459000, Note Name: G#4
Note ON: Time 459000, Note Name: A#4, Velocity: 71
Note OFF: Time 459120, Note Name: A#4
Note ON: Time 459120, Note Name: G#4, Velocity: 72
Note OFF: Time 459240, Note Name: G#4
Note ON: Time 459240, Note Name: G4, Velocity: 72
Note OFF: Time 459360, Note Name: G4
Note ON: Time 459360, Note Name: F4, Velocity: 78
Note OFF: Time 459480, Note Name: F4
Note ON: Time 459480, Note Name: D#4, Velocity: 73
Note OFF: Time 459600, Note Name: D#4
Note ON: Time 459600, Note Name: C#4, Velocity: 73
Note OFF: Time 459720, Note Name: C#4
Note ON: Time 459720, Note Name: C4, Velocity: 72
Note OFF: Time 459840, Note Name: C4
Note ON: Time 459840, Note Name: A#3, Velocity: 75
Note OFF: Time 459960, Note Name: A#3
Note ON: Time 459960, Note Name: G#3, Velocity: 70
Note OFF: Time 460080, Note Name: G#3
Note ON: Time 460080, Note Name: F#3, Velocity: 70
Note OFF: Time 460200, Note Name: F#3
Note ON: Time 460200, Note Name: F3, Velocity: 70
Note OFF: Time 460320, Note Name: F3
Note ON: Time 460320, Note Name: E3, Velocity: 73
Note OFF: Time 460560, Note Name: E3
Note ON: Time 460560, Note Name: C3, Velocity: 69
Note ON: Time 460560, Note Name: E3, Velocity: 69
Note ON: Time 460560, Note Name: F#3, Velocity: 69
Note ON: Time 460560, Note Name: C4, Velocity: 82
Note OFF: Time 460740, Note Name: C4
Note OFF: Time 460740, Note Name: C3
Note OFF: Time 460740, Note Name: E3
Note OFF: Time 460740, Note Name: F#3
Note ON: Time 460800, Note Name: C3, Velocity: 61
Note ON: Time 460800, Note Name: E3, Velocity: 61
Note ON: Time 460800, Note Name: A#3, Velocity: 73
Note ON: Time 460800, Note Name: C4, Velocity: 73
Note OFF: Time 460980, Note Name: C4
Note OFF: Time 460980, Note Name: C3
Note OFF: Time 460980, Note Name: E3
Note OFF: Time 460980, Note Name: A#3
Note ON: Time 461040, Note Name: C3, Velocity: 60
Note ON: Time 461040, Note Name: E3, Velocity: 60
Note ON: Time 461040, Note Name: A#3, Velocity: 71
Note ON: Time 461040, Note Name: C4, Velocity: 71
Note OFF: Time 461220, Note Name: C4
Note OFF: Time 461220, Note Name: C3
Note OFF: Time 461220, Note Name: E3
Note OFF: Time 461220, Note Name: A#3
Note ON: Time 461280, Note Name: C3, Velocity: 61
Note ON: Time 461280, Note Name: E3, Velocity: 61
Note ON: Time 461280, Note Name: A#3, Velocity: 72
Note ON: Time 461280, Note Name: C4, Velocity: 72
Note OFF: Time 461460, Note Name: C4
Note OFF: Time 461460, Note Name: C3
Note OFF: Time 461460, Note Name: E3
Note OFF: Time 461460, Note Name: A#3
Note ON: Time 461520, Note Name: C3, Velocity: 61
Note ON: Time 461520, Note Name: E3, Velocity: 61
Note ON: Time 461520, Note Name: A#3, Velocity: 72
Note ON: Time 461520, Note Name: C4, Velocity: 72
Note OFF: Time 461700, Note Name: C4
Note OFF: Time 461700, Note Name: C3
Note OFF: Time 461700, Note Name: E3
Note OFF: Time 461700, Note Name: A#3
Note ON: Time 461760, Note Name: C3, Velocity: 77
Note ON: Time 461760, Note Name: F3, Velocity: 77
Note ON: Time 461760, Note Name: G#3, Velocity: 77
Note ON: Time 461760, Note Name: C4, Velocity: 77
Note OFF: Time 461880, Note Name: C4
Note OFF: Time 461880, Note Name: C3
Note OFF: Time 461880, Note Name: F3
Note OFF: Time 461880, Note Name: G#3
Note ON: Time 461880, Note Name: C5, Velocity: 74
Note OFF: Time 462000, Note Name: C5
Note ON: Time 462000, Note Name: F5, Velocity: 76
Note OFF: Time 462120, Note Name: F5
Note ON: Time 462120, Note Name: G#5, Velocity: 78
Note OFF: Time 462240, Note Name: G#5
Note ON: Time 462240, Note Name: C6, Velocity: 80
Note OFF: Time 462360, Note Name: C6
Note ON: Time 462360, Note Name: C#6, Velocity: 76
Note OFF: Time 462480, Note Name: C#6
Note ON: Time 462480, Note Name: C6, Velocity: 76
Note OFF: Time 462600, Note Name: C6
Note ON: Time 462600, Note Name: A#5, Velocity: 76
Note OFF: Time 462720, Note Name: A#5
Note ON: Time 462720, Note Name: G#5, Velocity: 77
Note OFF: Time 462840, Note Name: G#5
Note ON: Time 462840, Note Name: A#5, Velocity: 71
Note OFF: Time 462960, Note Name: A#5
Note ON: Time 462960, Note Name: G#5, Velocity: 72
Note OFF: Time 463080, Note Name: G#5
Note ON: Time 463080, Note Name: G5, Velocity: 72
Note OFF: Time 463200, Note Name: G5
Note ON: Time 463200, Note Name: F5, Velocity: 78
Note OFF: Time 463320, Note Name: F5
Note ON: Time 463320, Note Name: D#5, Velocity: 73
Note OFF: Time 463440, Note Name: D#5
Note ON: Time 463440, Note Name: C#5, Velocity: 73
Note OFF: Time 463560, Note Name: C#5
Note ON: Time 463560, Note Name: C5, Velocity: 72
Note OFF: Time 463680, Note Name: C5
Note ON: Time 463680, Note Name: A#4, Velocity: 75
Note OFF: Time 463800, Note Name: A#4
Note ON: Time 463800, Note Name: G#4, Velocity: 70
Note OFF: Time 463920, Note Name: G#4
Note ON: Time 463920, Note Name: G4, Velocity: 70
Note OFF: Time 464040, Note Name: G4
Note ON: Time 464040, Note Name: F4, Velocity: 70
Note OFF: Time 464160, Note Name: F4
Note ON: Time 464160, Note Name: E4, Velocity: 73
Note OFF: Time 464400, Note Name: E4
Note ON: Time 464400, Note Name: C4, Velocity: 58
Note ON: Time 464400, Note Name: E4, Velocity: 69
Note ON: Time 464400, Note Name: G4, Velocity: 69
Note ON: Time 464400, Note Name: C5, Velocity: 82
Note OFF: Time 464580, Note Name: C5
Note OFF: Time 464580, Note Name: C4
Note OFF: Time 464580, Note Name: E4
Note OFF: Time 464580, Note Name: G4
Note ON: Time 464640, Note Name: C4, Velocity: 51
Note ON: Time 464640, Note Name: E4, Velocity: 61
Note ON: Time 464640, Note Name: A#4, Velocity: 73
Note ON: Time 464640, Note Name: C5, Velocity: 73
Note OFF: Time 464820, Note Name: C5
Note OFF: Time 464820, Note Name: C4
Note OFF: Time 464820, Note Name: E4
Note OFF: Time 464820, Note Name: A#4
Note ON: Time 464880, Note Name: C4, Velocity: 50
Note ON: Time 464880, Note Name: E4, Velocity: 59
Note ON: Time 464880, Note Name: A#4, Velocity: 70
Note ON: Time 464880, Note Name: C5, Velocity: 70
Note OFF: Time 465060, Note Name: C5
Note OFF: Time 465060, Note Name: C4
Note OFF: Time 465060, Note Name: E4
Note OFF: Time 465060, Note Name: A#4
Note ON: Time 465120, Note Name: C4, Velocity: 51
Note ON: Time 465120, Note Name: E4, Velocity: 61
Note ON: Time 465120, Note Name: A#4, Velocity: 73
Note ON: Time 465120, Note Name: C5, Velocity: 73
Note OFF: Time 465300, Note Name: C5
Note OFF: Time 465300, Note Name: C4
Note OFF: Time 465300, Note Name: E4
Note OFF: Time 465300, Note Name: A#4
Note ON: Time 465360, Note Name: C4, Velocity: 51
Note ON: Time 465360, Note Name: E4, Velocity: 60
Note ON: Time 465360, Note Name: A#4, Velocity: 71
Note ON: Time 465360, Note Name: C5, Velocity: 71
Note OFF: Time 465540, Note Name: C5
Note OFF: Time 465540, Note Name: C4
Note OFF: Time 465540, Note Name: E4
Note OFF: Time 465540, Note Name: A#4
Note ON: Time 465600, Note Name: C4, Velocity: 51
Note ON: Time 465600, Note Name: F4, Velocity: 61
Note ON: Time 465600, Note Name: G#4, Velocity: 73
Note ON: Time 465600, Note Name: C5, Velocity: 73
Note OFF: Time 465840, Note Name: C5
Note OFF: Time 465840, Note Name: C4
Note OFF: Time 465840, Note Name: F4
Note OFF: Time 465840, Note Name: G#4
Note ON: Time 466320, Note Name: C5, Velocity: 63
Note ON: Time 466320, Note Name: F5, Velocity: 75
Note ON: Time 466320, Note Name: G#5, Velocity: 75
Note ON: Time 466320, Note Name: C6, Velocity: 90
Note OFF: Time 466500, Note Name: C6
Note OFF: Time 466500, Note Name: C5
Note OFF: Time 466500, Note Name: F5
Note OFF: Time 466500, Note Name: G#5
Note ON: Time 466560, Note Name: C5, Velocity: 56
Note ON: Time 466560, Note Name: E5, Velocity: 67
Note ON: Time 466560, Note Name: A#5, Velocity: 80
Note ON: Time 466560, Note Name: C6, Velocity: 80
Note OFF: Time 466740, Note Name: C6
Note OFF: Time 466740, Note Name: C5
Note OFF: Time 466740, Note Name: E5
Note OFF: Time 466740, Note Name: A#5
Note ON: Time 466800, Note Name: C5, Velocity: 55
Note ON: Time 466800, Note Name: E5, Velocity: 64
Note ON: Time 466800, Note Name: A#5, Velocity: 77
Note ON: Time 466800, Note Name: C6, Velocity: 77
Note OFF: Time 466980, Note Name: C6
Note OFF: Time 466980, Note Name: C5
Note OFF: Time 466980, Note Name: E5
Note OFF: Time 466980, Note Name: A#5
Note ON: Time 467040, Note Name: C5, Velocity: 56
Note ON: Time 467040, Note Name: E5, Velocity: 67
Note ON: Time 467040, Note Name: A#5, Velocity: 80
Note ON: Time 467040, Note Name: C6, Velocity: 80
Note OFF: Time 467220, Note Name: C6
Note OFF: Time 467220, Note Name: C5
Note OFF: Time 467220, Note Name: E5
Note OFF: Time 467220, Note Name: A#5
Note ON: Time 467280, Note Name: C5, Velocity: 56
Note ON: Time 467280, Note Name: E5, Velocity: 66
Note ON: Time 467280, Note Name: A#5, Velocity: 78
Note ON: Time 467280, Note Name: C6, Velocity: 78
Note OFF: Time 467460, Note Name: C6
Note OFF: Time 467460, Note Name: C5
Note OFF: Time 467460, Note Name: E5
Note OFF: Time 467460, Note Name: A#5
Note ON: Time 467520, Note Name: C5, Velocity: 56
Note ON: Time 467520, Note Name: F5, Velocity: 67
Note ON: Time 467520, Note Name: G#5, Velocity: 80
Note ON: Time 467520, Note Name: C6, Velocity: 80
Note OFF: Time 467700, Note Name: C6
Note OFF: Time 467700, Note Name: C5
Note OFF: Time 467700, Note Name: F5
Note OFF: Time 467700, Note Name: G#5
Note ON: Time 468240, Note Name: C4, Velocity: 58
Note ON: Time 468240, Note Name: F4, Velocity: 69
Note ON: Time 468240, Note Name: G#4, Velocity: 69
Note ON: Time 468240, Note Name: C5, Velocity: 82
Note OFF: Time 468420, Note Name: C5
Note OFF: Time 468420, Note Name: C4
Note OFF: Time 468420, Note Name: F4
Note OFF: Time 468420, Note Name: G#4
Note ON: Time 468480, Note Name: C4, Velocity: 51
Note ON: Time 468480, Note Name: E4, Velocity: 61
Note ON: Time 468480, Note Name: A#4, Velocity: 73
Note ON: Time 468480, Note Name: C5, Velocity: 73
Note OFF: Time 468660, Note Name: C5
Note OFF: Time 468660, Note Name: C4
Note OFF: Time 468660, Note Name: E4
Note OFF: Time 468660, Note Name: A#4
Note ON: Time 468720, Note Name: C4, Velocity: 50
Note ON: Time 468720, Note Name: E4, Velocity: 59
Note ON: Time 468720, Note Name: A#4, Velocity: 70
Note ON: Time 468720, Note Name: C5, Velocity: 70
Note OFF: Time 468900, Note Name: C5
Note OFF: Time 468900, Note Name: C4
Note OFF: Time 468900, Note Name: E4
Note OFF: Time 468900, Note Name: A#4
Note ON: Time 468960, Note Name: C4, Velocity: 51
Note ON: Time 468960, Note Name: E4, Velocity: 61
Note ON: Time 468960, Note Name: A#4, Velocity: 73
Note ON: Time 468960, Note Name: C5, Velocity: 73
Note OFF: Time 469140, Note Name: C5
Note OFF: Time 469140, Note Name: C4
Note OFF: Time 469140, Note Name: E4
Note OFF: Time 469140, Note Name: A#4
Note ON: Time 469200, Note Name: C4, Velocity: 51
Note ON: Time 469200, Note Name: E4, Velocity: 60
Note ON: Time 469200, Note Name: A#4, Velocity: 71
Note ON: Time 469200, Note Name: C5, Velocity: 71
Note OFF: Time 469380, Note Name: C5
Note OFF: Time 469380, Note Name: C4
Note OFF: Time 469380, Note Name: E4
Note OFF: Time 469380, Note Name: A#4
Note ON: Time 469440, Note Name: C4, Velocity: 73
Note ON: Time 469440, Note Name: F4, Velocity: 73
Note ON: Time 469440, Note Name: G#4, Velocity: 73
Note ON: Time 469440, Note Name: C5, Velocity: 73
Note OFF: Time 469560, Note Name: C5
Note OFF: Time 469560, Note Name: C4
Note OFF: Time 469560, Note Name: F4
Note OFF: Time 469560, Note Name: G#4
Note ON: Time 469560, Note Name: G4, Velocity: 74
Note OFF: Time 469680, Note Name: G4
Note ON: Time 469680, Note Name: G#4, Velocity: 75
Note OFF: Time 469800, Note Name: G#4
Note ON: Time 469800, Note Name: A#4, Velocity: 76
Note OFF: Time 469920, Note Name: A#4
Note ON: Time 469920, Note Name: C5, Velocity: 77
Note OFF: Time 470040, Note Name: C5
Note ON: Time 470040, Note Name: D5, Velocity: 78
Note OFF: Time 470160, Note Name: D5
Note ON: Time 470160, Note Name: E5, Velocity: 79
Note OFF: Time 470280, Note Name: E5
Note ON: Time 470280, Note Name: F5, Velocity: 80
Note OFF: Time 470400, Note Name: F5
Note ON: Time 470400, Note Name: G5, Velocity: 80
Note OFF: Time 470520, Note Name: G5
Note ON: Time 470520, Note Name: F5, Velocity: 79
Note OFF: Time 470640, Note Name: F5
Note ON: Time 470640, Note Name: E5, Velocity: 79
Note OFF: Time 470760, Note Name: E5
Note ON: Time 470760, Note Name: C#5, Velocity: 78
Note OFF: Time 470880, Note Name: C#5
Note ON: Time 470880, Note Name: C5, Velocity: 77
Note OFF: Time 471000, Note Name: C5
Note ON: Time 471000, Note Name: A#4, Velocity: 76
Note OFF: Time 471120, Note Name: A#4
Note ON: Time 471120, Note Name: G#4, Velocity: 75
Note OFF: Time 471240, Note Name: G#4
Note ON: Time 471240, Note Name: G4, Velocity: 74
Note OFF: Time 471360, Note Name: G4
Note ON: Time 471360, Note Name: F4, Velocity: 73
Note OFF: Time 471480, Note Name: F4
Note ON: Time 471480, Note Name: G4, Velocity: 74
Note OFF: Time 471600, Note Name: G4
Note ON: Time 471600, Note Name: G#4, Velocity: 75
Note OFF: Time 471720, Note Name: G#4
Note ON: Time 471720, Note Name: A#4, Velocity: 76
Note OFF: Time 471840, Note Name: A#4
Note ON: Time 471840, Note Name: C5, Velocity: 77
Note OFF: Time 471960, Note Name: C5
Note ON: Time 471960, Note Name: D5, Velocity: 78
Note OFF: Time 472080, Note Name: D5
Note ON: Time 472080, Note Name: E5, Velocity: 79
Note OFF: Time 472200, Note Name: E5
Note ON: Time 472200, Note Name: F5, Velocity: 80
Note OFF: Time 472320, Note Name: F5
Note ON: Time 472320, Note Name: G5, Velocity: 80
Note OFF: Time 472440, Note Name: G5
Note ON: Time 472440, Note Name: F5, Velocity: 79
Note OFF: Time 472560, Note Name: F5
Note ON: Time 472560, Note Name: E5, Velocity: 79
Note OFF: Time 472680, Note Name: E5
Note ON: Time 472680, Note Name: C#5, Velocity: 78
Note OFF: Time 472800, Note Name: C#5
Note ON: Time 472800, Note Name: C5, Velocity: 77
Note OFF: Time 472920, Note Name: C5
Note ON: Time 472920, Note Name: A#4, Velocity: 76
Note OFF: Time 473040, Note Name: A#4
Note ON: Time 473040, Note Name: G#4, Velocity: 75
Note OFF: Time 473160, Note Name: G#4
Note ON: Time 473160, Note Name: G4, Velocity: 74
Note OFF: Time 473280, Note Name: G4
Note ON: Time 473280, Note Name: F4, Velocity: 73
Note OFF: Time 473400, Note Name: F4
Note ON: Time 473400, Note Name: G4, Velocity: 74
Note OFF: Time 473520, Note Name: G4
Note ON: Time 473520, Note Name: G#4, Velocity: 75
Note OFF: Time 473640, Note Name: G#4
Note ON: Time 473640, Note Name: A#4, Velocity: 76
Note OFF: Time 473760, Note Name: A#4
Note ON: Time 473760, Note Name: C5, Velocity: 77
Note OFF: Time 473880, Note Name: C5
Note ON: Time 473880, Note Name: D5, Velocity: 78
Note OFF: Time 474000, Note Name: D5
Note ON: Time 474000, Note Name: E5, Velocity: 79
Note OFF: Time 474120, Note Name: E5
Note ON: Time 474120, Note Name: F5, Velocity: 80
Note OFF: Time 474240, Note Name: F5
Note ON: Time 474240, Note Name: G5, Velocity: 80
Note OFF: Time 474360, Note Name: G5
Note ON: Time 474360, Note Name: F#5, Velocity: 76
Note OFF: Time 474480, Note Name: F#5
Note ON: Time 474480, Note Name: G5, Velocity: 79
Note OFF: Time 474600, Note Name: G5
Note ON: Time 474600, Note Name: F#5, Velocity: 73
Note OFF: Time 474720, Note Name: F#5
Note ON: Time 474720, Note Name: G5, Velocity: 77
Note OFF: Time 474840, Note Name: G5
Note ON: Time 474840, Note Name: F#5, Velocity: 72
Note OFF: Time 474960, Note Name: F#5
Note ON: Time 474960, Note Name: G5, Velocity: 75
Note OFF: Time 475080, Note Name: G5
Note ON: Time 475080, Note Name: F#5, Velocity: 70
Note OFF: Time 475200, Note Name: F#5
Note ON: Time 475200, Note Name: G5, Velocity: 77
Note OFF: Time 475320, Note Name: G5
Note ON: Time 475320, Note Name: F#5, Velocity: 72
Note OFF: Time 475440, Note Name: F#5
Note ON: Time 475440, Note Name: G5, Velocity: 76
Note OFF: Time 475560, Note Name: G5
Note ON: Time 475560, Note Name: F#5, Velocity: 72
Note OFF: Time 475680, Note Name: F#5
Note ON: Time 475680, Note Name: G5, Velocity: 75
Note OFF: Time 475800, Note Name: G5
Note ON: Time 475800, Note Name: F#5, Velocity: 71
Note OFF: Time 475920, Note Name: F#5
Note ON: Time 475920, Note Name: G5, Velocity: 74
Note OFF: Time 476040, Note Name: G5
Note ON: Time 476040, Note Name: F#5, Velocity: 71
Note OFF: Time 476160, Note Name: F#5
Note ON: Time 476160, Note Name: G5, Velocity: 80
Note OFF: Time 476280, Note Name: G5
Note ON: Time 476280, Note Name: F5, Velocity: 79
Note OFF: Time 476400, Note Name: F5
Note ON: Time 476400, Note Name: E5, Velocity: 79
Note OFF: Time 476520, Note Name: E5
Note ON: Time 476520, Note Name: C#5, Velocity: 78
Note OFF: Time 476640, Note Name: C#5
Note ON: Time 476640, Note Name: C5, Velocity: 77
Note OFF: Time 476760, Note Name: C5
Note ON: Time 476760, Note Name: A#4, Velocity: 76
Note OFF: Time 476880, Note Name: A#4
Note ON: Time 476880, Note Name: G#4, Velocity: 75
Note OFF: Time 477000, Note Name: G#4
Note ON: Time 477000, Note Name: G4, Velocity: 74
Note OFF: Time 477120, Note Name: G4
Note ON: Time 477120, Note Name: G#3, Velocity: 94
Note ON: Time 477120, Note Name: C4, Velocity: 94
Note ON: Time 477120, Note Name: F4, Velocity: 111
Note OFF: Time 478080, Note Name: F4
Note OFF: Time 478080, Note Name: C4
Note OFF: Time 478080, Note Name: G#3
Note ON: Time 478080, Note Name: G#3, Velocity: 88
Note ON: Time 478080, Note Name: C4, Velocity: 88
Note ON: Time 478080, Note Name: G#4, Velocity: 105
Note OFF: Time 479040, Note Name: G#4
Note OFF: Time 479040, Note Name: C4
Note OFF: Time 479040, Note Name: G#3
Note ON: Time 479040, Note Name: G3, Velocity: 50
Note ON: Time 479040, Note Name: A#3, Velocity: 50
Note ON: Time 479040, Note Name: G4, Velocity: 50
Note OFF: Time 479160, Note Name: G4
Note OFF: Time 479160, Note Name: A#3
Note OFF: Time 479160, Note Name: G3
Note ON: Time 479280, Note Name: G3, Velocity: 50
Note ON: Time 479280, Note Name: A#3, Velocity: 50
Note ON: Time 479280, Note Name: E4, Velocity: 50
Note OFF: Time 479400, Note Name: E4
Note OFF: Time 479400, Note Name: A#3
Note OFF: Time 479400, Note Name: G3
Note ON: Time 479520, Note Name: G3, Velocity: 46
Note ON: Time 479520, Note Name: A#3, Velocity: 46
Note ON: Time 479520, Note Name: C4, Velocity: 46
Note OFF: Time 479640, Note Name: C4
Note OFF: Time 479640, Note Name: A#3
Note OFF: Time 479640, Note Name: G3
Note ON: Time 479760, Note Name: G3, Velocity: 46
Note ON: Time 479760, Note Name: A#3, Velocity: 46
Note ON: Time 479760, Note Name: E4, Velocity: 46
Note OFF: Time 479880, Note Name: E4
Note OFF: Time 479880, Note Name: A#3
Note OFF: Time 479880, Note Name: G3
Note ON: Time 480000, Note Name: G#3, Velocity: 50
Note ON: Time 480000, Note Name: C4, Velocity: 50
Note ON: Time 480000, Note Name: F4, Velocity: 50
Note OFF: Time 480120, Note Name: F4
Note OFF: Time 480120, Note Name: C4
Note OFF: Time 480120, Note Name: G#3
Note ON: Time 480240, Note Name: G#3, Velocity: 47
Note ON: Time 480240, Note Name: C4, Velocity: 47
Note OFF: Time 480360, Note Name: C4
Note OFF: Time 480360, Note Name: G#3
Note ON: Time 480480, Note Name: G#3, Velocity: 47
Note ON: Time 480480, Note Name: C4, Velocity: 47
Note ON: Time 480480, Note Name: F4, Velocity: 47
Note OFF: Time 480600, Note Name: F4
Note OFF: Time 480600, Note Name: C4
Note OFF: Time 480600, Note Name: G#3
Note ON: Time 480720, Note Name: G#3, Velocity: 47
Note ON: Time 480720, Note Name: C4, Velocity: 47
Note ON: Time 480720, Note Name: G#4, Velocity: 47
Note OFF: Time 480840, Note Name: G#4
Note OFF: Time 480840, Note Name: C4
Note OFF: Time 480840, Note Name: G#3
Note ON: Time 480960, Note Name: G3, Velocity: 50
Note ON: Time 480960, Note Name: A#3, Velocity: 50
Note ON: Time 480960, Note Name: G4, Velocity: 50
Note OFF: Time 481080, Note Name: G4
Note OFF: Time 481080, Note Name: A#3
Note OFF: Time 481080, Note Name: G3
Note ON: Time 481200, Note Name: G3, Velocity: 50
Note ON: Time 481200, Note Name: A#3, Velocity: 50
Note ON: Time 481200, Note Name: E4, Velocity: 50
Note OFF: Time 481320, Note Name: E4
Note OFF: Time 481320, Note Name: A#3
Note OFF: Time 481320, Note Name: G3
Note ON: Time 481440, Note Name: G3, Velocity: 46
Note ON: Time 481440, Note Name: A#3, Velocity: 46
Note ON: Time 481440, Note Name: C4, Velocity: 46
Note OFF: Time 481560, Note Name: C4
Note OFF: Time 481560, Note Name: A#3
Note OFF: Time 481560, Note Name: G3
Note ON: Time 481680, Note Name: G3, Velocity: 46
Note ON: Time 481680, Note Name: A#3, Velocity: 46
Note ON: Time 481680, Note Name: E4, Velocity: 46
Note OFF: Time 481800, Note Name: E4
Note OFF: Time 481800, Note Name: A#3
Note OFF: Time 481800, Note Name: G3
Note ON: Time 481920, Note Name: G#3, Velocity: 50
Note ON: Time 481920, Note Name: C4, Velocity: 50
Note ON: Time 481920, Note Name: F4, Velocity: 50
Note OFF: Time 482040, Note Name: F4
Note OFF: Time 482040, Note Name: C4
Note OFF: Time 482040, Note Name: G#3
Note ON: Time 482160, Note Name: G#3, Velocity: 47
Note ON: Time 482160, Note Name: C4, Velocity: 47
Note OFF: Time 482280, Note Name: C4
Note OFF: Time 482280, Note Name: G#3
Note ON: Time 482400, Note Name: G#3, Velocity: 49
Note ON: Time 482400, Note Name: C4, Velocity: 49
Note ON: Time 482400, Note Name: F4, Velocity: 49
Note OFF: Time 482520, Note Name: F4
Note OFF: Time 482520, Note Name: C4
Note OFF: Time 482520, Note Name: G#3
Note ON: Time 482640, Note Name: G#3, Velocity: 50
Note ON: Time 482640, Note Name: C4, Velocity: 50
Note ON: Time 482640, Note Name: G#4, Velocity: 50
Note OFF: Time 482760, Note Name: G#4
Note OFF: Time 482760, Note Name: C4
Note OFF: Time 482760, Note Name: G#3
Note ON: Time 482880, Note Name: G3, Velocity: 55
Note ON: Time 482880, Note Name: C4, Velocity: 55
Note ON: Time 482880, Note Name: G4, Velocity: 55
Note OFF: Time 483000, Note Name: G4
Note OFF: Time 483000, Note Name: C4
Note OFF: Time 483000, Note Name: G3
Note ON: Time 483120, Note Name: G3, Velocity: 50
Note ON: Time 483120, Note Name: C4, Velocity: 50
Note ON: Time 483120, Note Name: D#4, Velocity: 50
Note OFF: Time 483240, Note Name: D#4
Note OFF: Time 483240, Note Name: C4
Note OFF: Time 483240, Note Name: G3
Note ON: Time 483360, Note Name: G3, Velocity: 49
Note ON: Time 483360, Note Name: B3, Velocity: 49
Note ON: Time 483360, Note Name: D4, Velocity: 49
Note OFF: Time 483480, Note Name: D4
Note OFF: Time 483480, Note Name: B3
Note OFF: Time 483480, Note Name: G3
Note ON: Time 483600, Note Name: G3, Velocity: 48
Note ON: Time 483600, Note Name: B3, Velocity: 48
Note ON: Time 483600, Note Name: G4, Velocity: 48
Note OFF: Time 483720, Note Name: G4
Note OFF: Time 483720, Note Name: B3
Note OFF: Time 483720, Note Name: G3
Note ON: Time 483840, Note Name: C4, Velocity: 60
Note OFF: Time 484320, Note Name: C4
Note ON: Time 484560, Note Name: C4, Velocity: 75
Note OFF: Time 484640, Note Name: C4
Note ON: Time 484640, Note Name: D4, Velocity: 78
Note OFF: Time 484720, Note Name: D4
Note ON: Time 484720, Note Name: E4, Velocity: 80
Note OFF: Time 484800, Note Name: E4
Note ON: Time 484800, Note Name: G#3, Velocity: 94
Note ON: Time 484800, Note Name: C4, Velocity: 94
Note ON: Time 484800, Note Name: F4, Velocity: 111
Note OFF: Time 485760, Note Name: F4
Note OFF: Time 485760, Note Name: C4
Note OFF: Time 485760, Note Name: G#3
Note ON: Time 485760, Note Name: G#3, Velocity: 88
Note ON: Time 485760, Note Name: C4, Velocity: 88
Note ON: Time 485760, Note Name: G#4, Velocity: 105
Note OFF: Time 486720, Note Name: G#4
Note OFF: Time 486720, Note Name: C4
Note OFF: Time 486720, Note Name: G#3
Note ON: Time 486720, Note Name: G3, Velocity: 50
Note ON: Time 486720, Note Name: A#3, Velocity: 50
Note ON: Time 486720, Note Name: G4, Velocity: 50
Note OFF: Time 486840, Note Name: G4
Note OFF: Time 486840, Note Name: A#3
Note OFF: Time 486840, Note Name: G3
Note ON: Time 486960, Note Name: G3, Velocity: 50
Note ON: Time 486960, Note Name: A#3, Velocity: 50
Note ON: Time 486960, Note Name: E4, Velocity: 50
Note OFF: Time 487080, Note Name: E4
Note OFF: Time 487080, Note Name: A#3
Note OFF: Time 487080, Note Name: G3
Note ON: Time 487200, Note Name: G3, Velocity: 46
Note ON: Time 487200, Note Name: A#3, Velocity: 46
Note ON: Time 487200, Note Name: C4, Velocity: 46
Note OFF: Time 487320, Note Name: C4
Note OFF: Time 487320, Note Name: A#3
Note OFF: Time 487320, Note Name: G3
Note ON: Time 487440, Note Name: G3, Velocity: 46
Note ON: Time 487440, Note Name: A#3, Velocity: 46
Note ON: Time 487440, Note Name: E4, Velocity: 46
Note OFF: Time 487560, Note Name: E4
Note OFF: Time 487560, Note Name: A#3
Note OFF: Time 487560, Note Name: G3
Note ON: Time 487680, Note Name: G#3, Velocity: 50
Note ON: Time 487680, Note Name: C4, Velocity: 50
Note ON: Time 487680, Note Name: F4, Velocity: 50
Note OFF: Time 487800, Note Name: F4
Note OFF: Time 487800, Note Name: C4
Note OFF: Time 487800, Note Name: G#3
Note ON: Time 487920, Note Name: G#3, Velocity: 47
Note ON: Time 487920, Note Name: C4, Velocity: 47
Note OFF: Time 488040, Note Name: C4
Note OFF: Time 488040, Note Name: G#3
Note ON: Time 488160, Note Name: G#3, Velocity: 47
Note ON: Time 488160, Note Name: C4, Velocity: 47
Note ON: Time 488160, Note Name: F4, Velocity: 47
Note OFF: Time 488280, Note Name: F4
Note OFF: Time 488280, Note Name: C4
Note OFF: Time 488280, Note Name: G#3
Note ON: Time 488400, Note Name: G#3, Velocity: 47
Note ON: Time 488400, Note Name: C4, Velocity: 47
Note ON: Time 488400, Note Name: G#4, Velocity: 47
Note OFF: Time 488520, Note Name: G#4
Note OFF: Time 488520, Note Name: C4
Note OFF: Time 488520, Note Name: G#3
Note ON: Time 488640, Note Name: G3, Velocity: 50
Note ON: Time 488640, Note Name: A#3, Velocity: 50
Note ON: Time 488640, Note Name: G4, Velocity: 50
Note OFF: Time 488760, Note Name: G4
Note OFF: Time 488760, Note Name: A#3
Note OFF: Time 488760, Note Name: G3
Note ON: Time 488880, Note Name: G3, Velocity: 50
Note ON: Time 488880, Note Name: A#3, Velocity: 50
Note ON: Time 488880, Note Name: E4, Velocity: 50
Note OFF: Time 489000, Note Name: E4
Note OFF: Time 489000, Note Name: A#3
Note OFF: Time 489000, Note Name: G3
Note ON: Time 489120, Note Name: G3, Velocity: 46
Note ON: Time 489120, Note Name: A#3, Velocity: 46
Note ON: Time 489120, Note Name: C4, Velocity: 46
Note OFF: Time 489240, Note Name: C4
Note OFF: Time 489240, Note Name: A#3
Note OFF: Time 489240, Note Name: G3
Note ON: Time 489360, Note Name: G3, Velocity: 46
Note ON: Time 489360, Note Name: A#3, Velocity: 46
Note ON: Time 489360, Note Name: E4, Velocity: 46
Note OFF: Time 489480, Note Name: E4
Note OFF: Time 489480, Note Name: A#3
Note OFF: Time 489480, Note Name: G3
Note ON: Time 489600, Note Name: G#3, Velocity: 50
Note ON: Time 489600, Note Name: C4, Velocity: 50
Note ON: Time 489600, Note Name: F4, Velocity: 50
Note OFF: Time 489720, Note Name: F4
Note OFF: Time 489720, Note Name: C4
Note OFF: Time 489720, Note Name: G#3
Note ON: Time 489840, Note Name: G#3, Velocity: 47
Note ON: Time 489840, Note Name: C4, Velocity: 47
Note OFF: Time 489960, Note Name: C4
Note OFF: Time 489960, Note Name: G#3
Note ON: Time 490080, Note Name: G#3, Velocity: 49
Note ON: Time 490080, Note Name: C4, Velocity: 49
Note ON: Time 490080, Note Name: F4, Velocity: 49
Note OFF: Time 490200, Note Name: F4
Note OFF: Time 490200, Note Name: C4
Note OFF: Time 490200, Note Name: G#3
Note ON: Time 490320, Note Name: G#3, Velocity: 50
Note ON: Time 490320, Note Name: C4, Velocity: 50
Note ON: Time 490320, Note Name: G#4, Velocity: 50
Note OFF: Time 490440, Note Name: G#4
Note OFF: Time 490440, Note Name: C4
Note OFF: Time 490440, Note Name: G#3
Note ON: Time 490560, Note Name: G3, Velocity: 55
Note ON: Time 490560, Note Name: C4, Velocity: 55
Note ON: Time 490560, Note Name: G4, Velocity: 55
Note OFF: Time 490680, Note Name: G4
Note OFF: Time 490680, Note Name: C4
Note OFF: Time 490680, Note Name: G3
Note ON: Time 490800, Note Name: G3, Velocity: 50
Note ON: Time 490800, Note Name: C4, Velocity: 50
Note ON: Time 490800, Note Name: D#4, Velocity: 50
Note OFF: Time 490920, Note Name: D#4
Note OFF: Time 490920, Note Name: C4
Note OFF: Time 490920, Note Name: G3
Note ON: Time 491040, Note Name: G3, Velocity: 49
Note ON: Time 491040, Note Name: B3, Velocity: 49
Note ON: Time 491040, Note Name: D4, Velocity: 49
Note OFF: Time 491160, Note Name: D4
Note OFF: Time 491160, Note Name: B3
Note OFF: Time 491160, Note Name: G3
Note ON: Time 491280, Note Name: G3, Velocity: 48
Note ON: Time 491280, Note Name: B3, Velocity: 48
Note ON: Time 491280, Note Name: G4, Velocity: 48
Note OFF: Time 491400, Note Name: G4
Note OFF: Time 491400, Note Name: B3
Note OFF: Time 491400, Note Name: G3
Note ON: Time 491520, Note Name: C4, Velocity: 60
Note OFF: Time 492000, Note Name: C4
Note ON: Time 492240, Note Name: D#4, Velocity: 75
Note OFF: Time 492320, Note Name: D#4
Note ON: Time 492320, Note Name: F4, Velocity: 78
Note OFF: Time 492400, Note Name: F4
Note ON: Time 492400, Note Name: G4, Velocity: 80
Note OFF: Time 492480, Note Name: G4
Note ON: Time 492480, Note Name: C4, Velocity: 94
Note ON: Time 492480, Note Name: D#4, Velocity: 94
Note ON: Time 492480, Note Name: G#4, Velocity: 111
Note OFF: Time 493440, Note Name: G#4
Note OFF: Time 493440, Note Name: D#4
Note OFF: Time 493440, Note Name: C4
Note ON: Time 493440, Note Name: C4, Velocity: 88
Note ON: Time 493440, Note Name: D#4, Velocity: 88
Note ON: Time 493440, Note Name: C5, Velocity: 105
Note OFF: Time 494400, Note Name: C5
Note OFF: Time 494400, Note Name: D#4
Note OFF: Time 494400, Note Name: C4
Note ON: Time 494400, Note Name: A#3, Velocity: 50
Note ON: Time 494400, Note Name: C#4, Velocity: 50
Note ON: Time 494400, Note Name: A#4, Velocity: 50
Note OFF: Time 494520, Note Name: A#4
Note OFF: Time 494520, Note Name: C#4
Note OFF: Time 494520, Note Name: A#3
Note ON: Time 494640, Note Name: A#3, Velocity: 50
Note ON: Time 494640, Note Name: C#4, Velocity: 50
Note ON: Time 494640, Note Name: G4, Velocity: 50
Note OFF: Time 494760, Note Name: G4
Note OFF: Time 494760, Note Name: C#4
Note OFF: Time 494760, Note Name: A#3
Note ON: Time 494880, Note Name: A#3, Velocity: 46
Note ON: Time 494880, Note Name: C#4, Velocity: 46
Note ON: Time 494880, Note Name: D#4, Velocity: 46
Note OFF: Time 495000, Note Name: D#4
Note OFF: Time 495000, Note Name: C#4
Note OFF: Time 495000, Note Name: A#3
Note ON: Time 495120, Note Name: A#3, Velocity: 46
Note ON: Time 495120, Note Name: C#4, Velocity: 46
Note ON: Time 495120, Note Name: G4, Velocity: 46
Note OFF: Time 495240, Note Name: G4
Note OFF: Time 495240, Note Name: C#4
Note OFF: Time 495240, Note Name: A#3
Note ON: Time 495360, Note Name: C4, Velocity: 50
Note ON: Time 495360, Note Name: D#4, Velocity: 50
Note ON: Time 495360, Note Name: G#4, Velocity: 50
Note OFF: Time 495480, Note Name: G#4
Note OFF: Time 495480, Note Name: D#4
Note OFF: Time 495480, Note Name: C4
Note ON: Time 495600, Note Name: C4, Velocity: 47
Note ON: Time 495600, Note Name: D#4, Velocity: 47
Note OFF: Time 495720, Note Name: D#4
Note OFF: Time 495720, Note Name: C4
Note ON: Time 495840, Note Name: C4, Velocity: 47
Note ON: Time 495840, Note Name: D#4, Velocity: 47
Note ON: Time 495840, Note Name: G#4, Velocity: 47
Note OFF: Time 495960, Note Name: G#4
Note OFF: Time 495960, Note Name: D#4
Note OFF: Time 495960, Note Name: C4
Note ON: Time 496080, Note Name: C4, Velocity: 47
Note ON: Time 496080, Note Name: D#4, Velocity: 47
Note ON: Time 496080, Note Name: C5, Velocity: 47
Note OFF: Time 496200, Note Name: C5
Note OFF: Time 496200, Note Name: D#4
Note OFF: Time 496200, Note Name: C4
Note ON: Time 496320, Note Name: A#3, Velocity: 50
Note ON: Time 496320, Note Name: C#4, Velocity: 50
Note ON: Time 496320, Note Name: A#4, Velocity: 50
Note OFF: Time 496440, Note Name: A#4
Note OFF: Time 496440, Note Name: C#4
Note OFF: Time 496440, Note Name: A#3
Note ON: Time 496560, Note Name: A#3, Velocity: 50
Note ON: Time 496560, Note Name: C#4, Velocity: 50
Note ON: Time 496560, Note Name: G4, Velocity: 50
Note OFF: Time 496680, Note Name: G4
Note OFF: Time 496680, Note Name: C#4
Note OFF: Time 496680, Note Name: A#3
Note ON: Time 496800, Note Name: A#3, Velocity: 46
Note ON: Time 496800, Note Name: C#4, Velocity: 46
Note ON: Time 496800, Note Name: D#4, Velocity: 46
Note OFF: Time 496920, Note Name: D#4
Note OFF: Time 496920, Note Name: C#4
Note OFF: Time 496920, Note Name: A#3
Note ON: Time 497040, Note Name: A#3, Velocity: 46
Note ON: Time 497040, Note Name: C#4, Velocity: 46
Note ON: Time 497040, Note Name: G4, Velocity: 46
Note OFF: Time 497160, Note Name: G4
Note OFF: Time 497160, Note Name: C#4
Note OFF: Time 497160, Note Name: A#3
Note ON: Time 497280, Note Name: C4, Velocity: 50
Note ON: Time 497280, Note Name: D#4, Velocity: 50
Note ON: Time 497280, Note Name: G#4, Velocity: 50
Note OFF: Time 497400, Note Name: G#4
Note OFF: Time 497400, Note Name: D#4
Note OFF: Time 497400, Note Name: C4
Note ON: Time 497520, Note Name: C4, Velocity: 47
Note ON: Time 497520, Note Name: D#4, Velocity: 47
Note OFF: Time 497640, Note Name: D#4
Note OFF: Time 497640, Note Name: C4
Note ON: Time 497760, Note Name: C4, Velocity: 47
Note ON: Time 497760, Note Name: D#4, Velocity: 47
Note ON: Time 497760, Note Name: G#4, Velocity: 47
Note OFF: Time 497880, Note Name: G#4
Note OFF: Time 497880, Note Name: D#4
Note OFF: Time 497880, Note Name: C4
Note ON: Time 498000, Note Name: C4, Velocity: 47
Note ON: Time 498000, Note Name: D#4, Velocity: 47
Note ON: Time 498000, Note Name: C5, Velocity: 47
Note OFF: Time 498120, Note Name: C5
Note OFF: Time 498120, Note Name: D#4
Note OFF: Time 498120, Note Name: C4
Note ON: Time 498240, Note Name: C4, Velocity: 52
Note ON: Time 498240, Note Name: D#4, Velocity: 52
Note ON: Time 498240, Note Name: A4, Velocity: 52
Note OFF: Time 498360, Note Name: A4
Note OFF: Time 498360, Note Name: D#4
Note OFF: Time 498360, Note Name: C4
Note ON: Time 498480, Note Name: C4, Velocity: 52
Note ON: Time 498480, Note Name: D#4, Velocity: 52
Note ON: Time 498480, Note Name: F4, Velocity: 52
Note OFF: Time 498600, Note Name: F4
Note OFF: Time 498600, Note Name: D#4
Note OFF: Time 498600, Note Name: C4
Note ON: Time 498720, Note Name: C4, Velocity: 48
Note ON: Time 498720, Note Name: D#4, Velocity: 48
Note ON: Time 498720, Note Name: A4, Velocity: 48
Note OFF: Time 498840, Note Name: A4
Note OFF: Time 498840, Note Name: D#4
Note OFF: Time 498840, Note Name: C4
Note ON: Time 498960, Note Name: C4, Velocity: 49
Note ON: Time 498960, Note Name: D#4, Velocity: 49
Note ON: Time 498960, Note Name: C5, Velocity: 49
Note OFF: Time 499080, Note Name: C5
Note OFF: Time 499080, Note Name: D#4
Note OFF: Time 499080, Note Name: C4
Note ON: Time 499200, Note Name: C#4, Velocity: 54
Note ON: Time 499200, Note Name: F4, Velocity: 54
Note ON: Time 499200, Note Name: A#4, Velocity: 54
Note OFF: Time 499320, Note Name: A#4
Note OFF: Time 499320, Note Name: F4
Note OFF: Time 499320, Note Name: C#4
Note ON: Time 499440, Note Name: C#4, Velocity: 52
Note ON: Time 499440, Note Name: F4, Velocity: 52
Note OFF: Time 499560, Note Name: F4
Note OFF: Time 499560, Note Name: C#4
Note ON: Time 499680, Note Name: C#4, Velocity: 53
Note ON: Time 499680, Note Name: F4, Velocity: 53
Note ON: Time 499680, Note Name: A#4, Velocity: 53
Note OFF: Time 499800, Note Name: A#4
Note OFF: Time 499800, Note Name: F4
Note OFF: Time 499800, Note Name: C#4
Note ON: Time 499920, Note Name: C#4, Velocity: 54
Note ON: Time 499920, Note Name: F4, Velocity: 54
Note ON: Time 499920, Note Name: C#5, Velocity: 54
Note OFF: Time 500040, Note Name: C#5
Note OFF: Time 500040, Note Name: F4
Note OFF: Time 500040, Note Name: C#4
Note ON: Time 500160, Note Name: C4, Velocity: 60
Note ON: Time 500160, Note Name: F4, Velocity: 60
Note ON: Time 500160, Note Name: C5, Velocity: 60
Note OFF: Time 500280, Note Name: C5
Note OFF: Time 500280, Note Name: F4
Note OFF: Time 500280, Note Name: C4
Note ON: Time 500400, Note Name: C4, Velocity: 60
Note ON: Time 500400, Note Name: F4, Velocity: 60
Note ON: Time 500400, Note Name: G#4, Velocity: 60
Note OFF: Time 500520, Note Name: G#4
Note OFF: Time 500520, Note Name: F4
Note OFF: Time 500520, Note Name: C4
Note ON: Time 500640, Note Name: C4, Velocity: 53
Note ON: Time 500640, Note Name: E4, Velocity: 53
Note ON: Time 500640, Note Name: G4, Velocity: 53
Note OFF: Time 500760, Note Name: G4
Note OFF: Time 500760, Note Name: E4
Note OFF: Time 500760, Note Name: C4
Note ON: Time 500880, Note Name: C4, Velocity: 53
Note ON: Time 500880, Note Name: E4, Velocity: 53
Note ON: Time 500880, Note Name: C5, Velocity: 53
Note OFF: Time 501000, Note Name: C5
Note OFF: Time 501000, Note Name: E4
Note OFF: Time 501000, Note Name: C4
Note ON: Time 501120, Note Name: F4, Velocity: 70
Note OFF: Time 501600, Note Name: F4
Note ON: Time 501840, Note Name: D#4, Velocity: 75
Note OFF: Time 501920, Note Name: D#4
Note ON: Time 501920, Note Name: F4, Velocity: 78
Note OFF: Time 502000, Note Name: F4
Note ON: Time 502000, Note Name: G4, Velocity: 80
Note OFF: Time 502080, Note Name: G4
Note ON: Time 502080, Note Name: C4, Velocity: 94
Note ON: Time 502080, Note Name: D#4, Velocity: 94
Note ON: Time 502080, Note Name: G#4, Velocity: 111
Note OFF: Time 503040, Note Name: G#4
Note OFF: Time 503040, Note Name: D#4
Note OFF: Time 503040, Note Name: C4
Note ON: Time 503040, Note Name: C4, Velocity: 88
Note ON: Time 503040, Note Name: D#4, Velocity: 88
Note ON: Time 503040, Note Name: C5, Velocity: 105
Note OFF: Time 504000, Note Name: C5
Note OFF: Time 504000, Note Name: D#4
Note OFF: Time 504000, Note Name: C4
Note ON: Time 504000, Note Name: A#3, Velocity: 50
Note ON: Time 504000, Note Name: C#4, Velocity: 50
Note ON: Time 504000, Note Name: A#4, Velocity: 50
Note OFF: Time 504120, Note Name: A#4
Note OFF: Time 504120, Note Name: C#4
Note OFF: Time 504120, Note Name: A#3
Note ON: Time 504240, Note Name: A#3, Velocity: 50
Note ON: Time 504240, Note Name: C#4, Velocity: 50
Note ON: Time 504240, Note Name: G4, Velocity: 50
Note OFF: Time 504360, Note Name: G4
Note OFF: Time 504360, Note Name: C#4
Note OFF: Time 504360, Note Name: A#3
Note ON: Time 504480, Note Name: A#3, Velocity: 46
Note ON: Time 504480, Note Name: C#4, Velocity: 46
Note ON: Time 504480, Note Name: D#4, Velocity: 46
Note OFF: Time 504600, Note Name: D#4
Note OFF: Time 504600, Note Name: C#4
Note OFF: Time 504600, Note Name: A#3
Note ON: Time 504720, Note Name: A#3, Velocity: 46
Note ON: Time 504720, Note Name: C#4, Velocity: 46
Note ON: Time 504720, Note Name: G4, Velocity: 46
Note OFF: Time 504840, Note Name: G4
Note OFF: Time 504840, Note Name: C#4
Note OFF: Time 504840, Note Name: A#3
Note ON: Time 504960, Note Name: C4, Velocity: 50
Note ON: Time 504960, Note Name: D#4, Velocity: 50
Note ON: Time 504960, Note Name: G#4, Velocity: 50
Note OFF: Time 505080, Note Name: G#4
Note OFF: Time 505080, Note Name: D#4
Note OFF: Time 505080, Note Name: C4
Note ON: Time 505200, Note Name: C4, Velocity: 47
Note ON: Time 505200, Note Name: D#4, Velocity: 47
Note OFF: Time 505320, Note Name: D#4
Note OFF: Time 505320, Note Name: C4
Note ON: Time 505440, Note Name: C4, Velocity: 47
Note ON: Time 505440, Note Name: D#4, Velocity: 47
Note ON: Time 505440, Note Name: G#4, Velocity: 47
Note OFF: Time 505560, Note Name: G#4
Note OFF: Time 505560, Note Name: D#4
Note OFF: Time 505560, Note Name: C4
Note ON: Time 505680, Note Name: C4, Velocity: 47
Note ON: Time 505680, Note Name: D#4, Velocity: 47
Note ON: Time 505680, Note Name: C5, Velocity: 47
Note OFF: Time 505800, Note Name: C5
Note OFF: Time 505800, Note Name: D#4
Note OFF: Time 505800, Note Name: C4
Note ON: Time 505920, Note Name: A#3, Velocity: 50
Note ON: Time 505920, Note Name: C#4, Velocity: 50
Note ON: Time 505920, Note Name: A#4, Velocity: 50
Note OFF: Time 506040, Note Name: A#4
Note OFF: Time 506040, Note Name: C#4
Note OFF: Time 506040, Note Name: A#3
Note ON: Time 506160, Note Name: A#3, Velocity: 50
Note ON: Time 506160, Note Name: C#4, Velocity: 50
Note ON: Time 506160, Note Name: G4, Velocity: 50
Note OFF: Time 506280, Note Name: G4
Note OFF: Time 506280, Note Name: C#4
Note OFF: Time 506280, Note Name: A#3
Note ON: Time 506400, Note Name: A#3, Velocity: 46
Note ON: Time 506400, Note Name: C#4, Velocity: 46
Note ON: Time 506400, Note Name: D#4, Velocity: 46
Note OFF: Time 506520, Note Name: D#4
Note OFF: Time 506520, Note Name: C#4
Note OFF: Time 506520, Note Name: A#3
Note ON: Time 506640, Note Name: A#3, Velocity: 46
Note ON: Time 506640, Note Name: C#4, Velocity: 46
Note ON: Time 506640, Note Name: G4, Velocity: 46
Note OFF: Time 506760, Note Name: G4
Note OFF: Time 506760, Note Name: C#4
Note OFF: Time 506760, Note Name: A#3
Note ON: Time 506880, Note Name: C4, Velocity: 50
Note ON: Time 506880, Note Name: D#4, Velocity: 50
Note ON: Time 506880, Note Name: G#4, Velocity: 50
Note OFF: Time 507000, Note Name: G#4
Note OFF: Time 507000, Note Name: D#4
Note OFF: Time 507000, Note Name: C4
Note ON: Time 507120, Note Name: C4, Velocity: 47
Note ON: Time 507120, Note Name: D#4, Velocity: 47
Note OFF: Time 507240, Note Name: D#4
Note OFF: Time 507240, Note Name: C4
Note ON: Time 507360, Note Name: C4, Velocity: 47
Note ON: Time 507360, Note Name: D#4, Velocity: 47
Note ON: Time 507360, Note Name: G#4, Velocity: 47
Note OFF: Time 507480, Note Name: G#4
Note OFF: Time 507480, Note Name: D#4
Note OFF: Time 507480, Note Name: C4
Note ON: Time 507600, Note Name: C4, Velocity: 47
Note ON: Time 507600, Note Name: D#4, Velocity: 47
Note ON: Time 507600, Note Name: C5, Velocity: 47
Note OFF: Time 507720, Note Name: C5
Note OFF: Time 507720, Note Name: D#4
Note OFF: Time 507720, Note Name: C4
Note ON: Time 507840, Note Name: C4, Velocity: 52
Note ON: Time 507840, Note Name: D#4, Velocity: 52
Note ON: Time 507840, Note Name: A4, Velocity: 52
Note OFF: Time 507960, Note Name: A4
Note OFF: Time 507960, Note Name: D#4
Note OFF: Time 507960, Note Name: C4
Note ON: Time 508080, Note Name: C4, Velocity: 52
Note ON: Time 508080, Note Name: D#4, Velocity: 52
Note ON: Time 508080, Note Name: F4, Velocity: 52
Note OFF: Time 508200, Note Name: F4
Note OFF: Time 508200, Note Name: D#4
Note OFF: Time 508200, Note Name: C4
Note ON: Time 508320, Note Name: C4, Velocity: 48
Note ON: Time 508320, Note Name: D#4, Velocity: 48
Note ON: Time 508320, Note Name: A4, Velocity: 48
Note OFF: Time 508440, Note Name: A4
Note OFF: Time 508440, Note Name: D#4
Note OFF: Time 508440, Note Name: C4
Note ON: Time 508560, Note Name: C4, Velocity: 49
Note ON: Time 508560, Note Name: D#4, Velocity: 49
Note ON: Time 508560, Note Name: C5, Velocity: 49
Note OFF: Time 508680, Note Name: C5
Note OFF: Time 508680, Note Name: D#4
Note OFF: Time 508680, Note Name: C4
Note ON: Time 508800, Note Name: C#4, Velocity: 54
Note ON: Time 508800, Note Name: F4, Velocity: 54
Note ON: Time 508800, Note Name: A#4, Velocity: 54
Note OFF: Time 508920, Note Name: A#4
Note OFF: Time 508920, Note Name: F4
Note OFF: Time 508920, Note Name: C#4
Note ON: Time 509040, Note Name: C#4, Velocity: 52
Note ON: Time 509040, Note Name: F4, Velocity: 52
Note OFF: Time 509160, Note Name: F4
Note OFF: Time 509160, Note Name: C#4
Note ON: Time 509280, Note Name: C#4, Velocity: 53
Note ON: Time 509280, Note Name: F4, Velocity: 53
Note ON: Time 509280, Note Name: A#4, Velocity: 53
Note OFF: Time 509400, Note Name: A#4
Note OFF: Time 509400, Note Name: F4
Note OFF: Time 509400, Note Name: C#4
Note ON: Time 509520, Note Name: C#4, Velocity: 54
Note ON: Time 509520, Note Name: F4, Velocity: 54
Note ON: Time 509520, Note Name: C#5, Velocity: 54
Note OFF: Time 509640, Note Name: C#5
Note OFF: Time 509640, Note Name: F4
Note OFF: Time 509640, Note Name: C#4
Note ON: Time 509760, Note Name: C4, Velocity: 60
Note ON: Time 509760, Note Name: F4, Velocity: 60
Note ON: Time 509760, Note Name: C5, Velocity: 60
Note OFF: Time 509880, Note Name: C5
Note OFF: Time 509880, Note Name: F4
Note OFF: Time 509880, Note Name: C4
Note ON: Time 510000, Note Name: C4, Velocity: 60
Note ON: Time 510000, Note Name: F4, Velocity: 60
Note ON: Time 510000, Note Name: G#4, Velocity: 60
Note OFF: Time 510120, Note Name: G#4
Note OFF: Time 510120, Note Name: F4
Note OFF: Time 510120, Note Name: C4
Note ON: Time 510240, Note Name: C4, Velocity: 53
Note ON: Time 510240, Note Name: E4, Velocity: 53
Note ON: Time 510240, Note Name: G4, Velocity: 53
Note OFF: Time 510360, Note Name: G4
Note OFF: Time 510360, Note Name: E4
Note OFF: Time 510360, Note Name: C4
Note ON: Time 510480, Note Name: C4, Velocity: 53
Note ON: Time 510480, Note Name: E4, Velocity: 53
Note ON: Time 510480, Note Name: C5, Velocity: 53
Note OFF: Time 510600, Note Name: C5
Note OFF: Time 510600, Note Name: E4
Note OFF: Time 510600, Note Name: C4
Note ON: Time 510720, Note Name: F4, Velocity: 70
Note OFF: Time 510840, Note Name: F4
Note ON: Time 510840, Note Name: C4, Velocity: 65
Note OFF: Time 510960, Note Name: C4
Note ON: Time 510960, Note Name: F4, Velocity: 63
Note OFF: Time 511080, Note Name: F4
Note ON: Time 511080, Note Name: G#4, Velocity: 62
Note OFF: Time 511200, Note Name: G#4
Note ON: Time 511200, Note Name: C5, Velocity: 62
Note OFF: Time 511320, Note Name: C5
Note ON: Time 511320, Note Name: C#5, Velocity: 58
Note OFF: Time 511440, Note Name: C#5
Note ON: Time 511440, Note Name: C5, Velocity: 62
Note OFF: Time 511560, Note Name: C5
Note ON: Time 511560, Note Name: A#4, Velocity: 57
Note OFF: Time 511680, Note Name: A#4
Note ON: Time 511680, Note Name: G#4, Velocity: 65
Note OFF: Time 511800, Note Name: G#4
Note ON: Time 511800, Note Name: A#4, Velocity: 60
Note OFF: Time 511920, Note Name: A#4
Note ON: Time 511920, Note Name: G#4, Velocity: 60
Note OFF: Time 512040, Note Name: G#4
Note ON: Time 512040, Note Name: G4, Velocity: 54
Note OFF: Time 512160, Note Name: G4
Note ON: Time 512160, Note Name: F4, Velocity: 63
Note OFF: Time 512280, Note Name: F4
Note ON: Time 512280, Note Name: G4, Velocity: 54
Note OFF: Time 512400, Note Name: G4
Note ON: Time 512400, Note Name: G#4, Velocity: 57
Note OFF: Time 512520, Note Name: G#4
Note ON: Time 512520, Note Name: F4, Velocity: 54
Note OFF: Time 512640, Note Name: F4
Note ON: Time 512640, Note Name: G#4, Velocity: 67
Note OFF: Time 512760, Note Name: G#4
Note ON: Time 512760, Note Name: C4, Velocity: 63
Note OFF: Time 512880, Note Name: C4
Note ON: Time 512880, Note Name: F4, Velocity: 63
Note OFF: Time 513000, Note Name: F4
Note ON: Time 513000, Note Name: G#4, Velocity: 60
Note OFF: Time 513120, Note Name: G#4
Note ON: Time 513120, Note Name: C5, Velocity: 63
Note OFF: Time 513240, Note Name: C5
Note ON: Time 513240, Note Name: C#5, Velocity: 59
Note OFF: Time 513360, Note Name: C#5
Note ON: Time 513360, Note Name: C5, Velocity: 61
Note OFF: Time 513480, Note Name: C5
Note ON: Time 513480, Note Name: A#4, Velocity: 61
Note OFF: Time 513600, Note Name: A#4
Note ON: Time 513600, Note Name: G#4, Velocity: 64
Note OFF: Time 513720, Note Name: G#4
Note ON: Time 513720, Note Name: A#4, Velocity: 61
Note OFF: Time 513840, Note Name: A#4
Note ON: Time 513840, Note Name: G#4, Velocity: 60
Note OFF: Time 513960, Note Name: G#4
Note ON: Time 513960, Note Name: G4, Velocity: 54
Note OFF: Time 514080, Note Name: G4
Note ON: Time 514080, Note Name: F4, Velocity: 63
Note OFF: Time 514200, Note Name: F4
Note ON: Time 514200, Note Name: G4, Velocity: 54
Note OFF: Time 514320, Note Name: G4
Note ON: Time 514320, Note Name: G#4, Velocity: 57
Note OFF: Time 514440, Note Name: G#4
Note ON: Time 514440, Note Name: F4, Velocity: 54
Note OFF: Time 514560, Note Name: F4
Note ON: Time 514560, Note Name: F#4, Velocity: 67
Note OFF: Time 514680, Note Name: F#4
Note ON: Time 514680, Note Name: C#4, Velocity: 63
Note OFF: Time 514800, Note Name: C#4
Note ON: Time 514800, Note Name: F#4, Velocity: 63
Note OFF: Time 514920, Note Name: F#4
Note ON: Time 514920, Note Name: A#4, Velocity: 62
Note OFF: Time 515040, Note Name: A#4
Note ON: Time 515040, Note Name: C#5, Velocity: 63
Note OFF: Time 515160, Note Name: C#5
Note ON: Time 515160, Note Name: D#5, Velocity: 61
Note OFF: Time 515280, Note Name: D#5
Note ON: Time 515280, Note Name: C#5, Velocity: 63
Note OFF: Time 515400, Note Name: C#5
Note ON: Time 515400, Note Name: C5, Velocity: 61
Note OFF: Time 515520, Note Name: C5
Note ON: Time 515520, Note Name: A#4, Velocity: 64
Note OFF: Time 515640, Note Name: A#4
Note ON: Time 515640, Note Name: C5, Velocity: 60
Note OFF: Time 515760, Note Name: C5
Note ON: Time 515760, Note Name: A#4, Velocity: 60
Note OFF: Time 515880, Note Name: A#4
Note ON: Time 515880, Note Name: G#4, Velocity: 54
Note OFF: Time 516000, Note Name: G#4
Note ON: Time 516000, Note Name: F#4, Velocity: 63
Note OFF: Time 516120, Note Name: F#4
Note ON: Time 516120, Note Name: G#4, Velocity: 54
Note OFF: Time 516240, Note Name: G#4
Note ON: Time 516240, Note Name: F#4, Velocity: 57
Note OFF: Time 516360, Note Name: F#4
Note ON: Time 516360, Note Name: F4, Velocity: 54
Note OFF: Time 516480, Note Name: F4
Note ON: Time 516480, Note Name: E4, Velocity: 69
Note OFF: Time 516600, Note Name: E4
Note ON: Time 516600, Note Name: F4, Velocity: 63
Note OFF: Time 516720, Note Name: F4
Note ON: Time 516720, Note Name: G4, Velocity: 63
Note OFF: Time 516840, Note Name: G4
Note ON: Time 516840, Note Name: G#4, Velocity: 62
Note OFF: Time 516960, Note Name: G#4
Note ON: Time 516960, Note Name: A#4, Velocity: 63
Note OFF: Time 517080, Note Name: A#4
Note ON: Time 517080, Note Name: G#4, Velocity: 61
Note OFF: Time 517200, Note Name: G#4
Note ON: Time 517200, Note Name: G4, Velocity: 63
Note OFF: Time 517320, Note Name: G4
Note ON: Time 517320, Note Name: F4, Velocity: 61
Note OFF: Time 517440, Note Name: F4
Note ON: Time 517440, Note Name: E4, Velocity: 63
Note OFF: Time 517560, Note Name: E4
Note ON: Time 517560, Note Name: F4, Velocity: 64
Note OFF: Time 517680, Note Name: F4
Note ON: Time 517680, Note Name: G4, Velocity: 61
Note OFF: Time 517800, Note Name: G4
Note ON: Time 517800, Note Name: G#4, Velocity: 54
Note OFF: Time 517920, Note Name: G#4
Note ON: Time 517920, Note Name: A#4, Velocity: 62
Note OFF: Time 518040, Note Name: A#4
Note ON: Time 518040, Note Name: C5, Velocity: 63
Note OFF: Time 518160, Note Name: C5
Note ON: Time 518160, Note Name: D5, Velocity: 65
Note OFF: Time 518280, Note Name: D5
Note ON: Time 518280, Note Name: E5, Velocity: 69
Note OFF: Time 518400, Note Name: E5
Note ON: Time 518400, Note Name: F5, Velocity: 72
Note OFF: Time 518520, Note Name: F5
Note ON: Time 518520, Note Name: C5, Velocity: 69
Note OFF: Time 518640, Note Name: C5
Note ON: Time 518640, Note Name: F5, Velocity: 65
Note OFF: Time 518760, Note Name: F5
Note ON: Time 518760, Note Name: G#5, Velocity: 64
Note OFF: Time 518880, Note Name: G#5
Note ON: Time 518880, Note Name: C6, Velocity: 67
Note OFF: Time 519000, Note Name: C6
Note ON: Time 519000, Note Name: C#6, Velocity: 64
Note OFF: Time 519120, Note Name: C#6
Note ON: Time 519120, Note Name: C6, Velocity: 64
Note OFF: Time 519240, Note Name: C6
Note ON: Time 519240, Note Name: A#5, Velocity: 64
Note OFF: Time 519360, Note Name: A#5
Note ON: Time 519360, Note Name: G#5, Velocity: 66
Note OFF: Time 519480, Note Name: G#5
Note ON: Time 519480, Note Name: A#5, Velocity: 63
Note OFF: Time 519600, Note Name: A#5
Note ON: Time 519600, Note Name: G#5, Velocity: 63
Note OFF: Time 519720, Note Name: G#5
Note ON: Time 519720, Note Name: G5, Velocity: 55
Note OFF: Time 519840, Note Name: G5
Note ON: Time 519840, Note Name: F5, Velocity: 63
Note OFF: Time 519960, Note Name: F5
Note ON: Time 519960, Note Name: G5, Velocity: 56
Note OFF: Time 520080, Note Name: G5
Note ON: Time 520080, Note Name: G#5, Velocity: 60
Note OFF: Time 520200, Note Name: G#5
Note ON: Time 520200, Note Name: F5, Velocity: 55
Note OFF: Time 520320, Note Name: F5
Note ON: Time 520320, Note Name: G#5, Velocity: 72
Note OFF: Time 520440, Note Name: G#5
Note ON: Time 520440, Note Name: C5, Velocity: 65
Note OFF: Time 520560, Note Name: C5
Note ON: Time 520560, Note Name: F5, Velocity: 65
Note OFF: Time 520680, Note Name: F5
Note ON: Time 520680, Note Name: G#5, Velocity: 64
Note OFF: Time 520800, Note Name: G#5
Note ON: Time 520800, Note Name: C6, Velocity: 67
Note OFF: Time 520920, Note Name: C6
Note ON: Time 520920, Note Name: C#6, Velocity: 64
Note OFF: Time 521040, Note Name: C#6
Note ON: Time 521040, Note Name: C6, Velocity: 64
Note OFF: Time 521160, Note Name: C6
Note ON: Time 521160, Note Name: A#5, Velocity: 64
Note OFF: Time 521280, Note Name: A#5
Note ON: Time 521280, Note Name: G#5, Velocity: 64
Note OFF: Time 521400, Note Name: G#5
Note ON: Time 521400, Note Name: A#5, Velocity: 63
Note OFF: Time 521520, Note Name: A#5
Note ON: Time 521520, Note Name: G#5, Velocity: 63
Note OFF: Time 521640, Note Name: G#5
Note ON: Time 521640, Note Name: G5, Velocity: 55
Note OFF: Time 521760, Note Name: G5
Note ON: Time 521760, Note Name: F5, Velocity: 63
Note OFF: Time 521880, Note Name: F5
Note ON: Time 521880, Note Name: G5, Velocity: 56
Note OFF: Time 522000, Note Name: G5
Note ON: Time 522000, Note Name: G#5, Velocity: 60
Note OFF: Time 522120, Note Name: G#5
Note ON: Time 522120, Note Name: F5, Velocity: 55
Note OFF: Time 522240, Note Name: F5
Note ON: Time 522240, Note Name: F#5, Velocity: 71
Note OFF: Time 522360, Note Name: F#5
Note ON: Time 522360, Note Name: C#5, Velocity: 65
Note OFF: Time 522480, Note Name: C#5
Note ON: Time 522480, Note Name: F#5, Velocity: 65
Note OFF: Time 522600, Note Name: F#5
Note ON: Time 522600, Note Name: A#5, Velocity: 64
Note OFF: Time 522720, Note Name: A#5
Note ON: Time 522720, Note Name: C#6, Velocity: 67
Note OFF: Time 522840, Note Name: C#6
Note ON: Time 522840, Note Name: D#6, Velocity: 64
Note OFF: Time 522960, Note Name: D#6
Note ON: Time 522960, Note Name: C#6, Velocity: 64
Note OFF: Time 523080, Note Name: C#6
Note ON: Time 523080, Note Name: C6, Velocity: 64
Note OFF: Time 523200, Note Name: C6
Note ON: Time 523200, Note Name: A#5, Velocity: 67
Note OFF: Time 523320, Note Name: A#5
Note ON: Time 523320, Note Name: C6, Velocity: 63
Note OFF: Time 523440, Note Name: C6
Note ON: Time 523440, Note Name: A#5, Velocity: 63
Note OFF: Time 523560, Note Name: A#5
Note ON: Time 523560, Note Name: G#5, Velocity: 55
Note OFF: Time 523680, Note Name: G#5
Note ON: Time 523680, Note Name: F#5, Velocity: 63
Note OFF: Time 523800, Note Name: F#5
Note ON: Time 523800, Note Name: G#5, Velocity: 56
Note OFF: Time 523920, Note Name: G#5
Note ON: Time 523920, Note Name: F#5, Velocity: 60
Note OFF: Time 524040, Note Name: F#5
Note ON: Time 524040, Note Name: F5, Velocity: 55
Note OFF: Time 524160, Note Name: F5
Note ON: Time 524160, Note Name: E5, Velocity: 72
Note OFF: Time 524280, Note Name: E5
Note ON: Time 524280, Note Name: F5, Velocity: 65
Note OFF: Time 524400, Note Name: F5
Note ON: Time 524400, Note Name: G5, Velocity: 65
Note OFF: Time 524520, Note Name: G5
Note ON: Time 524520, Note Name: G#5, Velocity: 64
Note OFF: Time 524640, Note Name: G#5
Note ON: Time 524640, Note Name: A#5, Velocity: 70
Note OFF: Time 524760, Note Name: A#5
Note ON: Time 524760, Note Name: G#5, Velocity: 66
Note OFF: Time 524880, Note Name: G#5
Note ON: Time 524880, Note Name: G5, Velocity: 65
Note OFF: Time 525000, Note Name: G5
Note ON: Time 525000, Note Name: F5, Velocity: 63
Note OFF: Time 525120, Note Name: F5
Note ON: Time 525120, Note Name: E5, Velocity: 66
Note OFF: Time 525240, Note Name: E5
Note ON: Time 525240, Note Name: F5, Velocity: 67
Note OFF: Time 525360, Note Name: F5
Note ON: Time 525360, Note Name: G5, Velocity: 63
Note OFF: Time 525480, Note Name: G5
Note ON: Time 525480, Note Name: G#5, Velocity: 55
Note OFF: Time 525600, Note Name: G#5
Note ON: Time 525600, Note Name: A#5, Velocity: 63
Note OFF: Time 525720, Note Name: A#5
Note ON: Time 525720, Note Name: C6, Velocity: 66
Note OFF: Time 525840, Note Name: C6
Note ON: Time 525840, Note Name: D6, Velocity: 71
Note OFF: Time 525960, Note Name: D6
Note ON: Time 525960, Note Name: E6, Velocity: 73
Note OFF: Time 526080, Note Name: E6
Note ON: Time 526080, Note Name: F6, Velocity: 80
Note OFF: Time 526200, Note Name: F6
Note ON: Time 526200, Note Name: G#5, Velocity: 75
Note OFF: Time 526320, Note Name: G#5
Note ON: Time 526320, Note Name: C6, Velocity: 70
Note OFF: Time 526440, Note Name: C6
Note ON: Time 526440, Note Name: F6, Velocity: 70
Note OFF: Time 526560, Note Name: F6
Note ON: Time 526560, Note Name: G#6, Velocity: 86
Note OFF: Time 527160, Note Name: G#6
Note ON: Time 527160, Note Name: C6, Velocity: 70
Note OFF: Time 527280, Note Name: C6
Note ON: Time 527280, Note Name: F6, Velocity: 70
Note OFF: Time 527400, Note Name: F6
Note ON: Time 527400, Note Name: G#6, Velocity: 73
Note OFF: Time 527520, Note Name: G#6
Note ON: Time 527520, Note Name: C7, Velocity: 77
Note OFF: Time 527640, Note Name: C7
Note ON: Time 527640, Note Name: G#6, Velocity: 76
Note OFF: Time 527760, Note Name: G#6
Note ON: Time 527760, Note Name: G6, Velocity: 73
Note OFF: Time 527880, Note Name: G6
Note ON: Time 527880, Note Name: E6, Velocity: 73
Note OFF: Time 528000, Note Name: E6
Note ON: Time 528000, Note Name: F6, Velocity: 78
Note OFF: Time 528120, Note Name: F6
Note ON: Time 528120, Note Name: G#5, Velocity: 75
Note OFF: Time 528240, Note Name: G#5
Note ON: Time 528240, Note Name: C6, Velocity: 70
Note OFF: Time 528360, Note Name: C6
Note ON: Time 528360, Note Name: F6, Velocity: 70
Note OFF: Time 528480, Note Name: F6
Note ON: Time 528480, Note Name: G#6, Velocity: 86
Note OFF: Time 529080, Note Name: G#6
Note ON: Time 529080, Note Name: C6, Velocity: 69
Note OFF: Time 529200, Note Name: C6
Note ON: Time 529200, Note Name: F6, Velocity: 72
Note OFF: Time 529320, Note Name: F6
Note ON: Time 529320, Note Name: G#6, Velocity: 75
Note OFF: Time 529440, Note Name: G#6
Note ON: Time 529440, Note Name: C7, Velocity: 77
Note OFF: Time 529560, Note Name: C7
Note ON: Time 529560, Note Name: G#6, Velocity: 76
Note OFF: Time 529680, Note Name: G#6
Note ON: Time 529680, Note Name: G6, Velocity: 75
Note OFF: Time 529800, Note Name: G6
Note ON: Time 529800, Note Name: E6, Velocity: 72
Note OFF: Time 529920, Note Name: E6
Note ON: Time 529920, Note Name: F6, Velocity: 78
Note OFF: Time 530040, Note Name: F6
Note ON: Time 530040, Note Name: G#5, Velocity: 75
Note OFF: Time 530160, Note Name: G#5
Note ON: Time 530160, Note Name: C6, Velocity: 70
Note OFF: Time 530280, Note Name: C6
Note ON: Time 530280, Note Name: F6, Velocity: 70
Note OFF: Time 530400, Note Name: F6
Note ON: Time 530400, Note Name: G#6, Velocity: 86
Note OFF: Time 531000, Note Name: G#6
Note ON: Time 531000, Note Name: C6, Velocity: 69
Note OFF: Time 531120, Note Name: C6
Note ON: Time 531120, Note Name: F6, Velocity: 72
Note OFF: Time 531240, Note Name: F6
Note ON: Time 531240, Note Name: G#6, Velocity: 75
Note OFF: Time 531360, Note Name: G#6
Note ON: Time 531360, Note Name: C7, Velocity: 77
Note OFF: Time 531480, Note Name: C7
Note ON: Time 531480, Note Name: G#6, Velocity: 76
Note OFF: Time 531600, Note Name: G#6
Note ON: Time 531600, Note Name: G6, Velocity: 75
Note OFF: Time 531720, Note Name: G6
Note ON: Time 531720, Note Name: E6, Velocity: 73
Note OFF: Time 531840, Note Name: E6
Note ON: Time 531840, Note Name: F6, Velocity: 77
Note OFF: Time 531960, Note Name: F6
Note ON: Time 531960, Note Name: G#5, Velocity: 75
Note OFF: Time 532080, Note Name: G#5
Note ON: Time 532080, Note Name: C6, Velocity: 70
Note OFF: Time 532200, Note Name: C6
Note ON: Time 532200, Note Name: F6, Velocity: 70
Note OFF: Time 532320, Note Name: F6
Note ON: Time 532320, Note Name: G#6, Velocity: 86
Note OFF: Time 532920, Note Name: G#6
Note ON: Time 532920, Note Name: C6, Velocity: 70
Note OFF: Time 533040, Note Name: C6
Note ON: Time 533040, Note Name: F6, Velocity: 72
Note OFF: Time 533160, Note Name: F6
Note ON: Time 533160, Note Name: G#6, Velocity: 75
Note OFF: Time 533280, Note Name: G#6
Note ON: Time 533280, Note Name: C7, Velocity: 76
Note OFF: Time 533400, Note Name: C7
Note ON: Time 533400, Note Name: G#6, Velocity: 76
Note OFF: Time 533520, Note Name: G#6
Note ON: Time 533520, Note Name: G6, Velocity: 75
Note OFF: Time 533640, Note Name: G6
Note ON: Time 533640, Note Name: E6, Velocity: 73
Note OFF: Time 533760, Note Name: E6
Note ON: Time 533760, Note Name: F6, Velocity: 77
Note OFF: Time 533880, Note Name: F6
Note ON: Time 533880, Note Name: C6, Velocity: 72
Note OFF: Time 534000, Note Name: C6
Note ON: Time 534000, Note Name: F6, Velocity: 72
Note OFF: Time 534120, Note Name: F6
Note ON: Time 534120, Note Name: G#6, Velocity: 76
Note OFF: Time 534240, Note Name: G#6
Note ON: Time 534240, Note Name: C7, Velocity: 79
Note OFF: Time 534360, Note Name: C7
Note ON: Time 534360, Note Name: G#6, Velocity: 78
Note OFF: Time 534480, Note Name: G#6
Note ON: Time 534480, Note Name: G6, Velocity: 77
Note OFF: Time 534600, Note Name: G6
Note ON: Time 534600, Note Name: E6, Velocity: 76
Note OFF: Time 534720, Note Name: E6
Note ON: Time 534720, Note Name: F6, Velocity: 79
Note OFF: Time 534840, Note Name: F6
Note ON: Time 534840, Note Name: C6, Velocity: 75
Note OFF: Time 534960, Note Name: C6
Note ON: Time 534960, Note Name: F6, Velocity: 77
Note OFF: Time 535080, Note Name: F6
Note ON: Time 535080, Note Name: G#6, Velocity: 80
Note OFF: Time 535200, Note Name: G#6
Note ON: Time 535200, Note Name: C7, Velocity: 80
Note OFF: Time 535320, Note Name: C7
Note ON: Time 535320, Note Name: G#6, Velocity: 79
Note OFF: Time 535440, Note Name: G#6
Note ON: Time 535440, Note Name: G6, Velocity: 77
Note OFF: Time 535560, Note Name: G6
Note ON: Time 535560, Note Name: E6, Velocity: 77
Note OFF: Time 535680, Note Name: E6
Note ON: Time 535680, Note Name: F6, Velocity: 89
Note OFF: Time 535800, Note Name: F6
Note ON: Time 535800, Note Name: C6, Velocity: 82
Note OFF: Time 535920, Note Name: C6
Note ON: Time 535920, Note Name: F6, Velocity: 85
Note OFF: Time 536040, Note Name: F6
Note ON: Time 536040, Note Name: G#6, Velocity: 88
Note OFF: Time 536160, Note Name: G#6
Note ON: Time 536160, Note Name: C7, Velocity: 84
Note OFF: Time 536280, Note Name: C7
Note ON: Time 536280, Note Name: G#6, Velocity: 82
Note OFF: Time 536400, Note Name: G#6
Note ON: Time 536400, Note Name: G6, Velocity: 82
Note OFF: Time 536520, Note Name: G6
Note ON: Time 536520, Note Name: E6, Velocity: 80
Note OFF: Time 536640, Note Name: E6
Note ON: Time 536640, Note Name: C7, Velocity: 89
Note OFF: Time 536760, Note Name: C7
Note ON: Time 536760, Note Name: G#6, Velocity: 75
Note OFF: Time 536880, Note Name: G#6
Note ON: Time 536880, Note Name: G6, Velocity: 79
Note OFF: Time 537000, Note Name: G6
Note ON: Time 537000, Note Name: E6, Velocity: 84
Note OFF: Time 537120, Note Name: E6
Note ON: Time 537120, Note Name: C7, Velocity: 90
Note OFF: Time 537240, Note Name: C7
Note ON: Time 537240, Note Name: G#6, Velocity: 89
Note OFF: Time 537360, Note Name: G#6
Note ON: Time 537360, Note Name: G6, Velocity: 87
Note OFF: Time 537480, Note Name: G6
Note ON: Time 537480, Note Name: E6, Velocity: 89
Note OFF: Time 537600, Note Name: E6
Note ON: Time 537600, Note Name: C7, Velocity: 93
Note OFF: Time 537720, Note Name: C7
Note ON: Time 537720, Note Name: G#6, Velocity: 79
Note OFF: Time 537840, Note Name: G#6
Note ON: Time 537840, Note Name: F6, Velocity: 80
Note OFF: Time 537960, Note Name: F6
Note ON: Time 537960, Note Name: C6, Velocity: 80
Note OFF: Time 538080, Note Name: C6
Note ON: Time 538080, Note Name: G#6, Velocity: 93
Note OFF: Time 538200, Note Name: G#6
Note ON: Time 538200, Note Name: F6, Velocity: 82
Note OFF: Time 538320, Note Name: F6
Note ON: Time 538320, Note Name: C6, Velocity: 82
Note OFF: Time 538440, Note Name: C6
Note ON: Time 538440, Note Name: G#5, Velocity: 82
Note OFF: Time 538560, Note Name: G#5
Note ON: Time 538560, Note Name: F6, Velocity: 93
Note OFF: Time 538680, Note Name: F6
Note ON: Time 538680, Note Name: C6, Velocity: 81
Note OFF: Time 538800, Note Name: C6
Note ON: Time 538800, Note Name: G#5, Velocity: 81
Note OFF: Time 538920, Note Name: G#5
Note ON: Time 538920, Note Name: F5, Velocity: 82
Note OFF: Time 539040, Note Name: F5
Note ON: Time 539040, Note Name: C6, Velocity: 93
Note OFF: Time 539160, Note Name: C6
Note ON: Time 539160, Note Name: G#5, Velocity: 81
Note OFF: Time 539280, Note Name: G#5
Note ON: Time 539280, Note Name: F5, Velocity: 81
Note OFF: Time 539400, Note Name: F5
Note ON: Time 539400, Note Name: C5, Velocity: 81
Note OFF: Time 539520, Note Name: C5
Note ON: Time 539520, Note Name: G#5, Velocity: 93
Note OFF: Time 539640, Note Name: G#5
Note ON: Time 539640, Note Name: F5, Velocity: 80
Note OFF: Time 539760, Note Name: F5
Note ON: Time 539760, Note Name: C5, Velocity: 80
Note OFF: Time 539880, Note Name: C5
Note ON: Time 539880, Note Name: G#4, Velocity: 80
Note OFF: Time 540000, Note Name: G#4
Note ON: Time 540000, Note Name: F5, Velocity: 93
Note OFF: Time 540120, Note Name: F5
Note ON: Time 540120, Note Name: C5, Velocity: 82
Note OFF: Time 540240, Note Name: C5
Note ON: Time 540240, Note Name: G#4, Velocity: 81
Note OFF: Time 540360, Note Name: G#4
Note ON: Time 540360, Note Name: F4, Velocity: 81
Note OFF: Time 540480, Note Name: F4
Note ON: Time 540480, Note Name: C5, Velocity: 93
Note OFF: Time 540600, Note Name: C5
Note ON: Time 540600, Note Name: G#4, Velocity: 80
Note OFF: Time 540720, Note Name: G#4
Note ON: Time 540720, Note Name: F4, Velocity: 80
Note OFF: Time 540840, Note Name: F4
Note ON: Time 540840, Note Name: C4, Velocity: 80
Note OFF: Time 540960, Note Name: C4
Note ON: Time 540960, Note Name: G#4, Velocity: 93
Note OFF: Time 541080, Note Name: G#4
Note ON: Time 541080, Note Name: F4, Velocity: 80
Note OFF: Time 541200, Note Name: F4
Note ON: Time 541200, Note Name: C4, Velocity: 81
Note OFF: Time 541320, Note Name: C4
Note ON: Time 541320, Note Name: G#3, Velocity: 81
Note OFF: Time 541440, Note Name: G#3
Note ON: Time 541440, Note Name: F4, Velocity: 93
Note OFF: Time 541560, Note Name: F4
Note ON: Time 541560, Note Name: C4, Velocity: 81
Note OFF: Time 541680, Note Name: C4
Note ON: Time 541680, Note Name: G#3, Velocity: 81
Note OFF: Time 541800, Note Name: G#3
Note ON: Time 541800, Note Name: F3, Velocity: 81
Note OFF: Time 541920, Note Name: F3
Note ON: Time 541920, Note Name: C4, Velocity: 93
Note OFF: Time 542040, Note Name: C4
Note ON: Time 542040, Note Name: G#3, Velocity: 81
Note OFF: Time 542160, Note Name: G#3
Note ON: Time 542160, Note Name: F3, Velocity: 81
Note OFF: Time 542280, Note Name: F3
Note ON: Time 542280, Note Name: C3, Velocity: 81
Note OFF: Time 542400, Note Name: C3
Note ON: Time 542400, Note Name: G#3, Velocity: 93
Note OFF: Time 542520, Note Name: G#3
Note ON: Time 542520, Note Name: F3, Velocity: 81
Note OFF: Time 542640, Note Name: F3
Note ON: Time 542640, Note Name: C3, Velocity: 81
Note OFF: Time 542760, Note Name: C3
Note ON: Time 542760, Note Name: G#2, Velocity: 81
Note OFF: Time 542880, Note Name: G#2
Note ON: Time 542880, Note Name: F3, Velocity: 93
Note OFF: Time 543000, Note Name: F3
Note ON: Time 543000, Note Name: C3, Velocity: 85
Note OFF: Time 543120, Note Name: C3
Note ON: Time 543120, Note Name: G#2, Velocity: 80
Note OFF: Time 543240, Note Name: G#2
Note ON: Time 543240, Note Name: C3, Velocity: 80
Note OFF: Time 543360, Note Name: C3
Note ON: Time 543360, Note Name: F2, Velocity: 90
Note ON: Time 543360, Note Name: G#2, Velocity: 90
Note ON: Time 543360, Note Name: C3, Velocity: 90
Note ON: Time 543360, Note Name: F3, Velocity: 106
Note OFF: Time 543600, Note Name: F3
Note OFF: Time 543600, Note Name: F2
Note OFF: Time 543600, Note Name: G#2
Note OFF: Time 543600, Note Name: C3
Note ON: Time 544320, Note Name: F4, Velocity: 94
Note ON: Time 544320, Note Name: G#4, Velocity: 94
Note ON: Time 544320, Note Name: C5, Velocity: 94
Note ON: Time 544320, Note Name: F5, Velocity: 111
Note OFF: Time 544560, Note Name: F5
Note OFF: Time 544560, Note Name: F4
Note OFF: Time 544560, Note Name: G#4
Note OFF: Time 544560, Note Name: C5
Note ON: Time 545280, Note Name: F3, Velocity: 94
Note ON: Time 545280, Note Name: G#3, Velocity: 94
Note ON: Time 545280, Note Name: C4, Velocity: 94
Note ON: Time 545280, Note Name: F4, Velocity: 111
Note OFF: Time 545520, Note Name: F4
Note OFF: Time 545520, Note Name: F3
Note OFF: Time 545520, Note Name: G#3
Note OFF: Time 545520, Note Name: C4
Track 2: Piano left
Note ON: Time 0, Note Name: A#2, Velocity: 71
Note ON: Time 0, Note Name: G3, Velocity: 84
Note OFF: Time 713, Note Name: G3
Note OFF: Time 713, Note Name: A#2
Note ON: Time 720, Note Name: G3, Velocity: 77
Note ON: Time 720, Note Name: A#2, Velocity: 65
Note OFF: Time 958, Note Name: A#2
Note OFF: Time 958, Note Name: G3
Note ON: Time 960, Note Name: A#2, Velocity: 71
Note ON: Time 960, Note Name: G3, Velocity: 84
Note OFF: Time 1673, Note Name: G3
Note OFF: Time 1673, Note Name: A#2
Note ON: Time 1680, Note Name: G3, Velocity: 76
Note ON: Time 1680, Note Name: A#2, Velocity: 65
Note OFF: Time 1918, Note Name: A#2
Note OFF: Time 1918, Note Name: G3
Note ON: Time 1920, Note Name: A#2, Velocity: 71
Note ON: Time 1920, Note Name: G3, Velocity: 84
Note OFF: Time 2277, Note Name: G3
Note OFF: Time 2277, Note Name: A#2
Note ON: Time 2280, Note Name: G3, Velocity: 77
Note ON: Time 2280, Note Name: A#2, Velocity: 65
Note OFF: Time 2399, Note Name: A#2
Note OFF: Time 2399, Note Name: G3
Note ON: Time 2400, Note Name: A#2, Velocity: 71
Note ON: Time 2400, Note Name: G3, Velocity: 84
Note OFF: Time 2757, Note Name: G3
Note OFF: Time 2757, Note Name: A#2
Note ON: Time 2760, Note Name: A#2, Velocity: 65
Note ON: Time 2760, Note Name: G3, Velocity: 76
Note OFF: Time 2879, Note Name: G3
Note OFF: Time 2879, Note Name: A#2
Note ON: Time 2880, Note Name: G3, Velocity: 84
Note ON: Time 2880, Note Name: A#2, Velocity: 71
Note OFF: Time 3237, Note Name: A#2
Note OFF: Time 3237, Note Name: G3
Note ON: Time 3240, Note Name: A#2, Velocity: 64
Note ON: Time 3240, Note Name: G3, Velocity: 75
Note OFF: Time 3359, Note Name: G3
Note OFF: Time 3359, Note Name: A#2
Note ON: Time 3360, Note Name: G3, Velocity: 84
Note ON: Time 3360, Note Name: A#2, Velocity: 71
Note OFF: Time 3717, Note Name: A#2
Note OFF: Time 3717, Note Name: G3
Note ON: Time 3720, Note Name: A#2, Velocity: 64
Note ON: Time 3720, Note Name: G3, Velocity: 75
Note OFF: Time 3839, Note Name: G3
Note OFF: Time 3839, Note Name: A#2
Note ON: Time 3840, Note Name: G3, Velocity: 84
Note ON: Time 3840, Note Name: A#2, Velocity: 71
Note OFF: Time 4320, Note Name: A#2
Note OFF: Time 4320, Note Name: G3
Note ON: Time 12000, Note Name: C2, Velocity: 60
Note ON: Time 12120, Note Name: C#2, Velocity: 60
Note OFF: Time 12130, Note Name: C2
Note ON: Time 12240, Note Name: C2, Velocity: 60
Note OFF: Time 12250, Note Name: C#2
Note ON: Time 12360, Note Name: B1, Velocity: 60
Note OFF: Time 12370, Note Name: C2
Note ON: Time 12480, Note Name: C2, Velocity: 60
Note OFF: Time 12490, Note Name: B1
Note ON: Time 12600, Note Name: C#2, Velocity: 60
Note OFF: Time 12610, Note Name: C2
Note ON: Time 12720, Note Name: C2, Velocity: 60
Note OFF: Time 12730, Note Name: C#2
Note ON: Time 12840, Note Name: B1, Velocity: 60
Note OFF: Time 12850, Note Name: C2
Note ON: Time 12960, Note Name: C2, Velocity: 60
Note OFF: Time 12970, Note Name: B1
Note ON: Time 13080, Note Name: C#2, Velocity: 60
Note OFF: Time 13090, Note Name: C2
Note ON: Time 13200, Note Name: C2, Velocity: 60
Note OFF: Time 13210, Note Name: C#2
Note ON: Time 13320, Note Name: B1, Velocity: 60
Note OFF: Time 13330, Note Name: C2
Note ON: Time 13440, Note Name: C2, Velocity: 60
Note OFF: Time 13450, Note Name: B1
Note ON: Time 13560, Note Name: C#2, Velocity: 60
Note OFF: Time 13570, Note Name: C2
Note ON: Time 13680, Note Name: C2, Velocity: 60
Note OFF: Time 13690, Note Name: C#2
Note ON: Time 13800, Note Name: B1, Velocity: 60
Note OFF: Time 13810, Note Name: C2
Note ON: Time 13920, Note Name: C2, Velocity: 60
Note OFF: Time 13930, Note Name: B1
Note ON: Time 14040, Note Name: C#2, Velocity: 60
Note OFF: Time 14050, Note Name: C2
Note ON: Time 14160, Note Name: C2, Velocity: 60
Note OFF: Time 14170, Note Name: C#2
Note ON: Time 14280, Note Name: B1, Velocity: 60
Note OFF: Time 14290, Note Name: C2
Note ON: Time 14400, Note Name: A#1, Velocity: 57
Note OFF: Time 14410, Note Name: B1
Note ON: Time 14520, Note Name: C2, Velocity: 57
Note OFF: Time 14530, Note Name: A#1
Note ON: Time 14640, Note Name: A#1, Velocity: 57
Note OFF: Time 14650, Note Name: C2
Note ON: Time 14760, Note Name: A1, Velocity: 57
Note OFF: Time 14770, Note Name: A#1
Note ON: Time 14880, Note Name: A#1, Velocity: 57
Note OFF: Time 14890, Note Name: A1
Note ON: Time 15000, Note Name: C2, Velocity: 57
Note OFF: Time 15010, Note Name: A#1
Note ON: Time 15120, Note Name: A#1, Velocity: 57
Note OFF: Time 15130, Note Name: C2
Note ON: Time 15240, Note Name: A1, Velocity: 57
Note OFF: Time 15250, Note Name: A#1
Note ON: Time 15360, Note Name: A#1, Velocity: 57
Note OFF: Time 15370, Note Name: A1
Note ON: Time 15480, Note Name: C2, Velocity: 56
Note OFF: Time 15490, Note Name: A#1
Note ON: Time 15600, Note Name: A#1, Velocity: 56
Note OFF: Time 15610, Note Name: C2
Note ON: Time 15720, Note Name: A1, Velocity: 56
Note OFF: Time 15730, Note Name: A#1
Note ON: Time 15840, Note Name: A#1, Velocity: 55
Note OFF: Time 15850, Note Name: A1
Note ON: Time 15960, Note Name: C2, Velocity: 55
Note OFF: Time 15970, Note Name: A#1
Note ON: Time 16080, Note Name: A#1, Velocity: 55
Note OFF: Time 16090, Note Name: C2
Note ON: Time 16200, Note Name: A1, Velocity: 55
Note OFF: Time 16210, Note Name: A#1
Note ON: Time 16320, Note Name: A#1, Velocity: 55
Note OFF: Time 16330, Note Name: A1
Note ON: Time 16440, Note Name: C2, Velocity: 54
Note OFF: Time 16450, Note Name: A#1
Note ON: Time 16560, Note Name: A#1, Velocity: 53
Note OFF: Time 16570, Note Name: C2
Note ON: Time 16680, Note Name: A1, Velocity: 52
Note OFF: Time 16690, Note Name: A#1
Note ON: Time 16800, Note Name: A#1, Velocity: 51
Note OFF: Time 16810, Note Name: A1
Note ON: Time 16920, Note Name: C2, Velocity: 50
Note OFF: Time 16930, Note Name: A#1
Note ON: Time 17040, Note Name: A#1, Velocity: 49
Note OFF: Time 17050, Note Name: C2
Note ON: Time 17160, Note Name: A1, Velocity: 48
Note OFF: Time 17170, Note Name: A#1
Note ON: Time 17280, Note Name: A#1, Velocity: 47
Note OFF: Time 17290, Note Name: A1
Note ON: Time 17400, Note Name: G1, Velocity: 46
Note OFF: Time 17410, Note Name: A#1
Note ON: Time 17520, Note Name: G#1, Velocity: 45
Note OFF: Time 17530, Note Name: G1
Note ON: Time 17640, Note Name: A#1, Velocity: 44
Note OFF: Time 17650, Note Name: G#1
Note ON: Time 17760, Note Name: C2, Velocity: 43
Note OFF: Time 17770, Note Name: A#1
Note ON: Time 17880, Note Name: A#1, Velocity: 42
Note OFF: Time 17890, Note Name: C2
Note ON: Time 18000, Note Name: G#1, Velocity: 41
Note OFF: Time 18010, Note Name: A#1
Note ON: Time 18120, Note Name: G1, Velocity: 40
Note OFF: Time 18130, Note Name: G#1
Note ON: Time 18240, Note Name: F1, Velocity: 39
Note OFF: Time 18250, Note Name: G1
Note OFF: Time 18720, Note Name: F1
Note ON: Time 20040, Note Name: F2, Velocity: 35
Note OFF: Time 20160, Note Name: F2
Note ON: Time 20160, Note Name: F1, Velocity: 40
Note OFF: Time 20640, Note Name: F1
Note ON: Time 21960, Note Name: F2, Velocity: 35
Note OFF: Time 22080, Note Name: F2
Note ON: Time 22080, Note Name: A#1, Velocity: 40
Note OFF: Time 22560, Note Name: A#1
Note ON: Time 23880, Note Name: C#2, Velocity: 36
Note OFF: Time 24000, Note Name: C#2
Note ON: Time 24000, Note Name: C2, Velocity: 40
Note OFF: Time 24240, Note Name: C2
Note ON: Time 24480, Note Name: C#2, Velocity: 38
Note OFF: Time 24720, Note Name: C#2
Note ON: Time 24960, Note Name: A#1, Velocity: 40
Note OFF: Time 25200, Note Name: A#1
Note ON: Time 25440, Note Name: C2, Velocity: 37
Note OFF: Time 25680, Note Name: C2
Note ON: Time 25920, Note Name: F2, Velocity: 40
Note ON: Time 25920, Note Name: F1, Velocity: 40
Note OFF: Time 26400, Note Name: F1
Note OFF: Time 26400, Note Name: F2
Note ON: Time 26760, Note Name: C5, Velocity: 49
Note ON: Time 26760, Note Name: G#4, Velocity: 49
Note OFF: Time 26880, Note Name: G#4
Note OFF: Time 26880, Note Name: C5
Note ON: Time 26880, Note Name: G#4, Velocity: 57
Note ON: Time 26880, Note Name: C5, Velocity: 57
Note OFF: Time 27360, Note Name: C5
Note OFF: Time 27360, Note Name: G#4
Note ON: Time 27360, Note Name: G#4, Velocity: 30
Note ON: Time 27360, Note Name: F4, Velocity: 30
Note OFF: Time 27600, Note Name: F4
Note OFF: Time 27600, Note Name: G#4
Note ON: Time 27840, Note Name: F2, Velocity: 40
Note ON: Time 27840, Note Name: F1, Velocity: 40
Note OFF: Time 28320, Note Name: F1
Note OFF: Time 28320, Note Name: F2
Note ON: Time 28680, Note Name: G#4, Velocity: 51
Note ON: Time 28680, Note Name: C5, Velocity: 51
Note OFF: Time 28800, Note Name: C5
Note OFF: Time 28800, Note Name: G#4
Note ON: Time 28800, Note Name: C5, Velocity: 56
Note ON: Time 28800, Note Name: G#4, Velocity: 56
Note OFF: Time 29280, Note Name: G#4
Note OFF: Time 29280, Note Name: C5
Note ON: Time 29280, Note Name: F4, Velocity: 30
Note ON: Time 29280, Note Name: G#4, Velocity: 30
Note OFF: Time 29520, Note Name: G#4
Note OFF: Time 29520, Note Name: F4
Note ON: Time 29760, Note Name: A#1, Velocity: 40
Note ON: Time 29760, Note Name: A#2, Velocity: 40
Note OFF: Time 30240, Note Name: A#2
Note OFF: Time 30240, Note Name: A#1
Note ON: Time 30600, Note Name: A#4, Velocity: 63
Note ON: Time 30600, Note Name: C#5, Velocity: 63
Note OFF: Time 30720, Note Name: C#5
Note OFF: Time 30720, Note Name: A#4
Note ON: Time 30720, Note Name: C#5, Velocity: 70
Note ON: Time 30720, Note Name: A#4, Velocity: 70
Note OFF: Time 31680, Note Name: A#4
Note OFF: Time 31680, Note Name: C#5
Note ON: Time 31680, Note Name: A#4, Velocity: 51
Note ON: Time 31680, Note Name: C5, Velocity: 51
Note OFF: Time 31920, Note Name: C5
Note OFF: Time 31920, Note Name: A#4
Note ON: Time 31920, Note Name: C3, Velocity: 43
Note ON: Time 31920, Note Name: C2, Velocity: 43
Note OFF: Time 32160, Note Name: C2
Note OFF: Time 32160, Note Name: C3
Note ON: Time 32400, Note Name: C#2, Velocity: 37
Note ON: Time 32400, Note Name: C#3, Velocity: 37
Note OFF: Time 32640, Note Name: C#3
Note OFF: Time 32640, Note Name: C#2
Note ON: Time 32880, Note Name: A#1, Velocity: 39
Note ON: Time 32880, Note Name: A#2, Velocity: 39
Note OFF: Time 33120, Note Name: A#2
Note OFF: Time 33120, Note Name: A#1
Note ON: Time 33360, Note Name: C3, Velocity: 35
Note ON: Time 33360, Note Name: C2, Velocity: 35
Note OFF: Time 33600, Note Name: C2
Note OFF: Time 33600, Note Name: C3
Note ON: Time 33600, Note Name: F1, Velocity: 44
Note ON: Time 33600, Note Name: F2, Velocity: 44
Note OFF: Time 34080, Note Name: F2
Note OFF: Time 34080, Note Name: F1
Note ON: Time 34440, Note Name: G#3, Velocity: 52
Note ON: Time 34440, Note Name: F3, Velocity: 52
Note OFF: Time 34560, Note Name: F3
Note OFF: Time 34560, Note Name: G#3
Note ON: Time 34560, Note Name: F3, Velocity: 65
Note ON: Time 34560, Note Name: G#3, Velocity: 65
Note OFF: Time 35040, Note Name: G#3
Note OFF: Time 35040, Note Name: F3
Note ON: Time 35400, Note Name: G#3, Velocity: 54
Note ON: Time 35400, Note Name: F3, Velocity: 54
Note OFF: Time 35520, Note Name: F3
Note OFF: Time 35520, Note Name: G#3
Note ON: Time 35520, Note Name: C3, Velocity: 66
Note ON: Time 35520, Note Name: G#3, Velocity: 66
Note ON: Time 35520, Note Name: F3, Velocity: 66
Note OFF: Time 36480, Note Name: F3
Note OFF: Time 36480, Note Name: G#3
Note OFF: Time 36480, Note Name: C3
Note ON: Time 36480, Note Name: C3, Velocity: 48
Note ON: Time 36480, Note Name: E3, Velocity: 48
Note ON: Time 36480, Note Name: G3, Velocity: 48
Note OFF: Time 36720, Note Name: G3
Note OFF: Time 36720, Note Name: E3
Note OFF: Time 36720, Note Name: C3
Note ON: Time 37440, Note Name: C2, Velocity: 42
Note ON: Time 37440, Note Name: C3, Velocity: 42
Note OFF: Time 37920, Note Name: C3
Note OFF: Time 37920, Note Name: C2
Note ON: Time 38280, Note Name: A#3, Velocity: 60
Note ON: Time 38280, Note Name: G3, Velocity: 60
Note OFF: Time 38400, Note Name: G3
Note OFF: Time 38400, Note Name: A#3
Note ON: Time 38400, Note Name: A#3, Velocity: 68
Note ON: Time 38400, Note Name: G3, Velocity: 68
Note OFF: Time 38880, Note Name: G3
Note OFF: Time 38880, Note Name: A#3
Note ON: Time 39240, Note Name: G3, Velocity: 61
Note ON: Time 39240, Note Name: A#3, Velocity: 61
Note OFF: Time 39360, Note Name: A#3
Note OFF: Time 39360, Note Name: G3
Note ON: Time 39360, Note Name: F3, Velocity: 58
Note ON: Time 39360, Note Name: A#3, Velocity: 69
Note ON: Time 39360, Note Name: G3, Velocity: 58
Note OFF: Time 40320, Note Name: G3
Note OFF: Time 40320, Note Name: A#3
Note OFF: Time 40320, Note Name: F3
Note ON: Time 40320, Note Name: G#3, Velocity: 52
Note ON: Time 40320, Note Name: F3, Velocity: 47
Note OFF: Time 40560, Note Name: F3
Note OFF: Time 40560, Note Name: G#3
Note ON: Time 41280, Note Name: F2, Velocity: 45
Note ON: Time 41280, Note Name: F3, Velocity: 45
Note OFF: Time 41760, Note Name: F3
Note OFF: Time 41760, Note Name: F2
Note ON: Time 42120, Note Name: C4, Velocity: 59
Note ON: Time 42120, Note Name: D#4, Velocity: 59
Note OFF: Time 42240, Note Name: D#4
Note OFF: Time 42240, Note Name: C4
Note ON: Time 42240, Note Name: C4, Velocity: 68
Note ON: Time 42240, Note Name: D#4, Velocity: 68
Note OFF: Time 42720, Note Name: D#4
Note OFF: Time 42720, Note Name: C4
Note ON: Time 43080, Note Name: D#4, Velocity: 66
Note ON: Time 43080, Note Name: C4, Velocity: 66
Note OFF: Time 43200, Note Name: C4
Note OFF: Time 43200, Note Name: D#4
Note ON: Time 43200, Note Name: C4, Velocity: 72
Note ON: Time 43200, Note Name: D#4, Velocity: 72
Note ON: Time 43200, Note Name: A#3, Velocity: 72
Note OFF: Time 44400, Note Name: A#3
Note OFF: Time 44400, Note Name: D#4
Note OFF: Time 44400, Note Name: C4
Note ON: Time 44400, Note Name: A#3, Velocity: 64
Note ON: Time 44400, Note Name: C#4, Velocity: 64
Note OFF: Time 44640, Note Name: C#4
Note OFF: Time 44640, Note Name: A#3
Note ON: Time 44640, Note Name: C4, Velocity: 61
Note ON: Time 44640, Note Name: G#3, Velocity: 61
Note OFF: Time 44880, Note Name: G#3
Note OFF: Time 44880, Note Name: C4
Note ON: Time 44880, Note Name: G3, Velocity: 59
Note ON: Time 44880, Note Name: A#3, Velocity: 59
Note OFF: Time 45120, Note Name: A#3
Note OFF: Time 45120, Note Name: G3
Note ON: Time 45120, Note Name: F3, Velocity: 56
Note ON: Time 45120, Note Name: G#3, Velocity: 56
Note ON: Time 45120, Note Name: C3, Velocity: 56
Note OFF: Time 45600, Note Name: C3
Note OFF: Time 45600, Note Name: G#3
Note OFF: Time 45600, Note Name: F3
Note ON: Time 45960, Note Name: G#3, Velocity: 56
Note ON: Time 45960, Note Name: F3, Velocity: 56
Note OFF: Time 46080, Note Name: F3
Note OFF: Time 46080, Note Name: G#3
Note ON: Time 46080, Note Name: G3, Velocity: 63
Note ON: Time 46080, Note Name: A#3, Velocity: 63
Note ON: Time 46080, Note Name: C3, Velocity: 63
Note OFF: Time 46560, Note Name: C3
Note OFF: Time 46560, Note Name: A#3
Note OFF: Time 46560, Note Name: G3
Note ON: Time 46920, Note Name: G3, Velocity: 53
Note ON: Time 46920, Note Name: E3, Velocity: 53
Note OFF: Time 47040, Note Name: E3
Note OFF: Time 47040, Note Name: G3
Note ON: Time 47040, Note Name: F3, Velocity: 56
Note OFF: Time 47160, Note Name: F3
Note ON: Time 47160, Note Name: C4, Velocity: 49
Note OFF: Time 47280, Note Name: C4
Note ON: Time 47280, Note Name: G#3, Velocity: 49
Note OFF: Time 47400, Note Name: G#3
Note ON: Time 47400, Note Name: F3, Velocity: 49
Note OFF: Time 47520, Note Name: F3
Note ON: Time 47520, Note Name: C3, Velocity: 53
Note OFF: Time 47640, Note Name: C3
Note ON: Time 47640, Note Name: G#3, Velocity: 49
Note OFF: Time 47760, Note Name: G#3
Note ON: Time 47760, Note Name: F3, Velocity: 49
Note OFF: Time 47880, Note Name: F3
Note ON: Time 47880, Note Name: C3, Velocity: 49
Note OFF: Time 48000, Note Name: C3
Note ON: Time 48000, Note Name: G#2, Velocity: 53
Note OFF: Time 48120, Note Name: G#2
Note ON: Time 48120, Note Name: F3, Velocity: 49
Note OFF: Time 48240, Note Name: F3
Note ON: Time 48240, Note Name: C3, Velocity: 49
Note OFF: Time 48360, Note Name: C3
Note ON: Time 48360, Note Name: G#2, Velocity: 49
Note OFF: Time 48480, Note Name: G#2
Note ON: Time 48480, Note Name: F2, Velocity: 53
Note OFF: Time 48600, Note Name: F2
Note ON: Time 48600, Note Name: C3, Velocity: 49
Note OFF: Time 48720, Note Name: C3
Note ON: Time 48720, Note Name: G#2, Velocity: 49
Note OFF: Time 48840, Note Name: G#2
Note ON: Time 48840, Note Name: F2, Velocity: 49
Note OFF: Time 48960, Note Name: F2
Note ON: Time 48960, Note Name: C2, Velocity: 53
Note OFF: Time 49080, Note Name: C2
Note ON: Time 49080, Note Name: F2, Velocity: 49
Note OFF: Time 49200, Note Name: F2
Note ON: Time 49200, Note Name: G#2, Velocity: 49
Note OFF: Time 49320, Note Name: G#2
Note ON: Time 49320, Note Name: C3, Velocity: 49
Note OFF: Time 49440, Note Name: C3
Note ON: Time 49440, Note Name: B2, Velocity: 53
Note OFF: Time 49560, Note Name: B2
Note ON: Time 49560, Note Name: C3, Velocity: 49
Note OFF: Time 49680, Note Name: C3
Note ON: Time 49680, Note Name: B2, Velocity: 49
Note OFF: Time 49800, Note Name: B2
Note ON: Time 49800, Note Name: C3, Velocity: 49
Note OFF: Time 49920, Note Name: C3
Note ON: Time 49920, Note Name: B2, Velocity: 53
Note OFF: Time 50040, Note Name: B2
Note ON: Time 50040, Note Name: C3, Velocity: 49
Note OFF: Time 50160, Note Name: C3
Note ON: Time 50160, Note Name: G2, Velocity: 49
Note OFF: Time 50280, Note Name: G2
Note ON: Time 50280, Note Name: C3, Velocity: 49
Note OFF: Time 50400, Note Name: C3
Note ON: Time 50400, Note Name: E2, Velocity: 53
Note OFF: Time 50520, Note Name: E2
Note ON: Time 50520, Note Name: C3, Velocity: 49
Note OFF: Time 50640, Note Name: C3
Note ON: Time 50640, Note Name: G2, Velocity: 49
Note OFF: Time 50760, Note Name: G2
Note ON: Time 50760, Note Name: C3, Velocity: 49
Note OFF: Time 50880, Note Name: C3
Note ON: Time 50880, Note Name: C2, Velocity: 56
Note OFF: Time 51000, Note Name: C2
Note ON: Time 51000, Note Name: E2, Velocity: 49
Note OFF: Time 51120, Note Name: E2
Note ON: Time 51120, Note Name: G2, Velocity: 49
Note OFF: Time 51240, Note Name: G2
Note ON: Time 51240, Note Name: C3, Velocity: 49
Note OFF: Time 51360, Note Name: C3
Note ON: Time 51360, Note Name: E2, Velocity: 53
Note OFF: Time 51480, Note Name: E2
Note ON: Time 51480, Note Name: G2, Velocity: 49
Note OFF: Time 51600, Note Name: G2
Note ON: Time 51600, Note Name: C3, Velocity: 49
Note OFF: Time 51720, Note Name: C3
Note ON: Time 51720, Note Name: E3, Velocity: 49
Note OFF: Time 51840, Note Name: E3
Note ON: Time 51840, Note Name: G2, Velocity: 53
Note OFF: Time 51960, Note Name: G2
Note ON: Time 51960, Note Name: C3, Velocity: 49
Note OFF: Time 52080, Note Name: C3
Note ON: Time 52080, Note Name: E3, Velocity: 49
Note OFF: Time 52200, Note Name: E3
Note ON: Time 52200, Note Name: G3, Velocity: 49
Note OFF: Time 52320, Note Name: G3
Note ON: Time 52320, Note Name: C3, Velocity: 53
Note OFF: Time 52440, Note Name: C3
Note ON: Time 52440, Note Name: E3, Velocity: 49
Note OFF: Time 52560, Note Name: E3
Note ON: Time 52560, Note Name: G3, Velocity: 49
Note OFF: Time 52680, Note Name: G3
Note ON: Time 52680, Note Name: C4, Velocity: 49
Note OFF: Time 52800, Note Name: C4
Note ON: Time 52800, Note Name: F3, Velocity: 59
Note OFF: Time 52920, Note Name: F3
Note ON: Time 52920, Note Name: G#3, Velocity: 49
Note OFF: Time 53040, Note Name: G#3
Note ON: Time 53040, Note Name: C4, Velocity: 49
Note OFF: Time 53160, Note Name: C4
Note ON: Time 53160, Note Name: F4, Velocity: 49
Note OFF: Time 53280, Note Name: F4
Note ON: Time 53280, Note Name: E4, Velocity: 53
Note OFF: Time 53400, Note Name: E4
Note ON: Time 53400, Note Name: F4, Velocity: 49
Note OFF: Time 53520, Note Name: F4
Note ON: Time 53520, Note Name: E4, Velocity: 49
Note OFF: Time 53640, Note Name: E4
Note ON: Time 53640, Note Name: F4, Velocity: 49
Note OFF: Time 53760, Note Name: F4
Note ON: Time 53760, Note Name: E4, Velocity: 53
Note OFF: Time 53880, Note Name: E4
Note ON: Time 53880, Note Name: F4, Velocity: 49
Note OFF: Time 54000, Note Name: F4
Note ON: Time 54000, Note Name: C4, Velocity: 49
Note OFF: Time 54120, Note Name: C4
Note ON: Time 54120, Note Name: F4, Velocity: 49
Note OFF: Time 54240, Note Name: F4
Note ON: Time 54240, Note Name: G#3, Velocity: 53
Note OFF: Time 54360, Note Name: G#3
Note ON: Time 54360, Note Name: F4, Velocity: 49
Note OFF: Time 54480, Note Name: F4
Note ON: Time 54480, Note Name: C4, Velocity: 49
Note OFF: Time 54600, Note Name: C4
Note ON: Time 54600, Note Name: F4, Velocity: 49
Note OFF: Time 54720, Note Name: F4
Note ON: Time 54720, Note Name: F3, Velocity: 61
Note OFF: Time 54840, Note Name: F3
Note ON: Time 54840, Note Name: A3, Velocity: 53
Note OFF: Time 54960, Note Name: A3
Note ON: Time 54960, Note Name: C4, Velocity: 53
Note OFF: Time 55080, Note Name: C4
Note ON: Time 55080, Note Name: F4, Velocity: 53
Note OFF: Time 55200, Note Name: F4
Note ON: Time 55200, Note Name: A3, Velocity: 58
Note OFF: Time 55320, Note Name: A3
Note ON: Time 55320, Note Name: C4, Velocity: 53
Note OFF: Time 55440, Note Name: C4
Note ON: Time 55440, Note Name: F4, Velocity: 53
Note OFF: Time 55560, Note Name: F4
Note ON: Time 55560, Note Name: A4, Velocity: 53
Note OFF: Time 55680, Note Name: A4
Note ON: Time 55680, Note Name: C4, Velocity: 58
Note OFF: Time 55800, Note Name: C4
Note ON: Time 55800, Note Name: F4, Velocity: 53
Note OFF: Time 55920, Note Name: F4
Note ON: Time 55920, Note Name: A4, Velocity: 53
Note OFF: Time 56040, Note Name: A4
Note ON: Time 56040, Note Name: C5, Velocity: 53
Note OFF: Time 56160, Note Name: C5
Note ON: Time 56160, Note Name: F4, Velocity: 58
Note OFF: Time 56280, Note Name: F4
Note ON: Time 56280, Note Name: A4, Velocity: 53
Note OFF: Time 56400, Note Name: A4
Note ON: Time 56400, Note Name: C5, Velocity: 53
Note OFF: Time 56520, Note Name: C5
Note ON: Time 56520, Note Name: F5, Velocity: 53
Note OFF: Time 56640, Note Name: F5
Note ON: Time 56640, Note Name: A4, Velocity: 67
Note OFF: Time 56760, Note Name: A4
Note ON: Time 56760, Note Name: F5, Velocity: 53
Note OFF: Time 56880, Note Name: F5
Note ON: Time 56880, Note Name: E5, Velocity: 53
Note OFF: Time 57000, Note Name: E5
Note ON: Time 57000, Note Name: F5, Velocity: 53
Note OFF: Time 57120, Note Name: F5
Note ON: Time 57120, Note Name: A4, Velocity: 58
Note OFF: Time 57240, Note Name: A4
Note ON: Time 57240, Note Name: F5, Velocity: 53
Note OFF: Time 57360, Note Name: F5
Note ON: Time 57360, Note Name: A4, Velocity: 53
Note OFF: Time 57480, Note Name: A4
Note ON: Time 57480, Note Name: F5, Velocity: 53
Note OFF: Time 57600, Note Name: F5
Note ON: Time 57600, Note Name: A4, Velocity: 57
Note OFF: Time 57720, Note Name: A4
Note ON: Time 57720, Note Name: F5, Velocity: 56
Note OFF: Time 57840, Note Name: F5
Note ON: Time 57840, Note Name: A#4, Velocity: 56
Note OFF: Time 57960, Note Name: A#4
Note ON: Time 57960, Note Name: F5, Velocity: 55
Note OFF: Time 58080, Note Name: F5
Note ON: Time 58080, Note Name: C5, Velocity: 54
Note OFF: Time 58200, Note Name: C5
Note ON: Time 58200, Note Name: F5, Velocity: 53
Note OFF: Time 58320, Note Name: F5
Note ON: Time 58320, Note Name: C#5, Velocity: 52
Note OFF: Time 58440, Note Name: C#5
Note ON: Time 58440, Note Name: F5, Velocity: 52
Note OFF: Time 58560, Note Name: F5
Note ON: Time 58560, Note Name: C4, Velocity: 52
Note OFF: Time 58680, Note Name: C4
Note ON: Time 58680, Note Name: F4, Velocity: 47
Note OFF: Time 58800, Note Name: F4
Note ON: Time 58800, Note Name: G#4, Velocity: 47
Note OFF: Time 58920, Note Name: G#4
Note ON: Time 58920, Note Name: C5, Velocity: 47
Note OFF: Time 59040, Note Name: C5
Note ON: Time 59040, Note Name: B4, Velocity: 52
Note OFF: Time 59160, Note Name: B4
Note ON: Time 59160, Note Name: C5, Velocity: 47
Note OFF: Time 59280, Note Name: C5
Note ON: Time 59280, Note Name: B4, Velocity: 47
Note OFF: Time 59400, Note Name: B4
Note ON: Time 59400, Note Name: C5, Velocity: 47
Note OFF: Time 59520, Note Name: C5
Note ON: Time 59520, Note Name: C4, Velocity: 52
Note OFF: Time 59640, Note Name: C4
Note ON: Time 59640, Note Name: E4, Velocity: 47
Note OFF: Time 59760, Note Name: E4
Note ON: Time 59760, Note Name: G4, Velocity: 47
Note OFF: Time 59880, Note Name: G4
Note ON: Time 59880, Note Name: C5, Velocity: 47
Note OFF: Time 60000, Note Name: C5
Note ON: Time 60000, Note Name: C4, Velocity: 52
Note OFF: Time 60120, Note Name: C4
Note ON: Time 60120, Note Name: G4, Velocity: 47
Note OFF: Time 60240, Note Name: G4
Note ON: Time 60240, Note Name: A#4, Velocity: 47
Note OFF: Time 60360, Note Name: A#4
Note ON: Time 60360, Note Name: C5, Velocity: 47
Note OFF: Time 60480, Note Name: C5
Note ON: Time 60480, Note Name: F3, Velocity: 52
Note OFF: Time 60600, Note Name: F3
Note ON: Time 60600, Note Name: F4, Velocity: 38
Note ON: Time 60600, Note Name: G#4, Velocity: 38
Note OFF: Time 60720, Note Name: G#4
Note OFF: Time 60720, Note Name: F4
Note ON: Time 60720, Note Name: C4, Velocity: 39
Note ON: Time 60720, Note Name: C5, Velocity: 39
Note OFF: Time 60840, Note Name: C5
Note OFF: Time 60840, Note Name: C4
Note ON: Time 60840, Note Name: G#4, Velocity: 41
Note ON: Time 60840, Note Name: F4, Velocity: 41
Note OFF: Time 60960, Note Name: F4
Note OFF: Time 60960, Note Name: G#4
Note ON: Time 60960, Note Name: C5, Velocity: 45
Note ON: Time 60960, Note Name: C4, Velocity: 45
Note OFF: Time 61080, Note Name: C4
Note OFF: Time 61080, Note Name: C5
Note ON: Time 61080, Note Name: G#4, Velocity: 44
Note ON: Time 61080, Note Name: F4, Velocity: 44
Note OFF: Time 61200, Note Name: F4
Note OFF: Time 61200, Note Name: G#4
Note ON: Time 61200, Note Name: C5, Velocity: 45
Note ON: Time 61200, Note Name: C4, Velocity: 45
Note OFF: Time 61320, Note Name: C4
Note OFF: Time 61320, Note Name: C5
Note ON: Time 61320, Note Name: G#4, Velocity: 45
Note ON: Time 61320, Note Name: F4, Velocity: 45
Note OFF: Time 61440, Note Name: F4
Note OFF: Time 61440, Note Name: G#4
Note ON: Time 61440, Note Name: C5, Velocity: 46
Note ON: Time 61440, Note Name: C4, Velocity: 46
Note OFF: Time 61560, Note Name: C4
Note OFF: Time 61560, Note Name: C5
Note ON: Time 61560, Note Name: G#4, Velocity: 46
Note ON: Time 61560, Note Name: F4, Velocity: 46
Note OFF: Time 61680, Note Name: F4
Note OFF: Time 61680, Note Name: G#4
Note ON: Time 61680, Note Name: C5, Velocity: 45
Note ON: Time 61680, Note Name: C4, Velocity: 45
Note OFF: Time 61800, Note Name: C4
Note OFF: Time 61800, Note Name: C5
Note ON: Time 61800, Note Name: G#4, Velocity: 45
Note ON: Time 61800, Note Name: F4, Velocity: 45
Note OFF: Time 61920, Note Name: F4
Note OFF: Time 61920, Note Name: G#4
Note ON: Time 61920, Note Name: C5, Velocity: 45
Note ON: Time 61920, Note Name: C4, Velocity: 45
Note OFF: Time 62040, Note Name: C4
Note OFF: Time 62040, Note Name: C5
Note ON: Time 62040, Note Name: G#4, Velocity: 44
Note ON: Time 62040, Note Name: F4, Velocity: 44
Note OFF: Time 62160, Note Name: F4
Note OFF: Time 62160, Note Name: G#4
Note ON: Time 62160, Note Name: C5, Velocity: 44
Note ON: Time 62160, Note Name: C4, Velocity: 44
Note OFF: Time 62280, Note Name: C4
Note OFF: Time 62280, Note Name: C5
Note ON: Time 62280, Note Name: G#4, Velocity: 43
Note ON: Time 62280, Note Name: F4, Velocity: 43
Note OFF: Time 62400, Note Name: F4
Note OFF: Time 62400, Note Name: G#4
Note ON: Time 62400, Note Name: F3, Velocity: 54
Note OFF: Time 62520, Note Name: F3
Note ON: Time 62520, Note Name: G#4, Velocity: 38
Note ON: Time 62520, Note Name: F4, Velocity: 38
Note OFF: Time 62640, Note Name: F4
Note OFF: Time 62640, Note Name: G#4
Note ON: Time 62640, Note Name: C5, Velocity: 39
Note ON: Time 62640, Note Name: C4, Velocity: 39
Note OFF: Time 62760, Note Name: C4
Note OFF: Time 62760, Note Name: C5
Note ON: Time 62760, Note Name: G#4, Velocity: 41
Note ON: Time 62760, Note Name: F4, Velocity: 41
Note OFF: Time 62880, Note Name: F4
Note OFF: Time 62880, Note Name: G#4
Note ON: Time 62880, Note Name: C5, Velocity: 45
Note ON: Time 62880, Note Name: C4, Velocity: 45
Note OFF: Time 63000, Note Name: C4
Note OFF: Time 63000, Note Name: C5
Note ON: Time 63000, Note Name: G#4, Velocity: 44
Note ON: Time 63000, Note Name: F4, Velocity: 44
Note OFF: Time 63120, Note Name: F4
Note OFF: Time 63120, Note Name: G#4
Note ON: Time 63120, Note Name: C4, Velocity: 45
Note ON: Time 63120, Note Name: C5, Velocity: 45
Note OFF: Time 63240, Note Name: C5
Note OFF: Time 63240, Note Name: C4
Note ON: Time 63240, Note Name: F4, Velocity: 45
Note ON: Time 63240, Note Name: G#4, Velocity: 45
Note OFF: Time 63360, Note Name: G#4
Note OFF: Time 63360, Note Name: F4
Note ON: Time 63360, Note Name: C5, Velocity: 46
Note ON: Time 63360, Note Name: C4, Velocity: 46
Note OFF: Time 63480, Note Name: C4
Note OFF: Time 63480, Note Name: C5
Note ON: Time 63480, Note Name: G#4, Velocity: 46
Note ON: Time 63480, Note Name: F4, Velocity: 46
Note OFF: Time 63600, Note Name: F4
Note OFF: Time 63600, Note Name: G#4
Note ON: Time 63600, Note Name: C5, Velocity: 45
Note ON: Time 63600, Note Name: C4, Velocity: 45
Note OFF: Time 63720, Note Name: C4
Note OFF: Time 63720, Note Name: C5
Note ON: Time 63720, Note Name: G#4, Velocity: 45
Note ON: Time 63720, Note Name: F4, Velocity: 45
Note OFF: Time 63840, Note Name: F4
Note OFF: Time 63840, Note Name: G#4
Note ON: Time 63840, Note Name: C5, Velocity: 45
Note ON: Time 63840, Note Name: C4, Velocity: 45
Note OFF: Time 63960, Note Name: C4
Note OFF: Time 63960, Note Name: C5
Note ON: Time 63960, Note Name: G#4, Velocity: 44
Note ON: Time 63960, Note Name: F4, Velocity: 44
Note OFF: Time 64080, Note Name: F4
Note OFF: Time 64080, Note Name: G#4
Note ON: Time 64080, Note Name: C5, Velocity: 44
Note ON: Time 64080, Note Name: C4, Velocity: 44
Note OFF: Time 64200, Note Name: C4
Note OFF: Time 64200, Note Name: C5
Note ON: Time 64200, Note Name: G#4, Velocity: 43
Note ON: Time 64200, Note Name: F4, Velocity: 43
Note OFF: Time 64320, Note Name: F4
Note OFF: Time 64320, Note Name: G#4
Note ON: Time 64320, Note Name: G2, Velocity: 55
Note OFF: Time 64440, Note Name: G2
Note ON: Time 64440, Note Name: G3, Velocity: 40
Note ON: Time 64440, Note Name: F3, Velocity: 40
Note OFF: Time 64560, Note Name: F3
Note OFF: Time 64560, Note Name: G3
Note ON: Time 64560, Note Name: B3, Velocity: 41
Note ON: Time 64560, Note Name: D3, Velocity: 41
Note OFF: Time 64680, Note Name: D3
Note OFF: Time 64680, Note Name: B3
Note ON: Time 64680, Note Name: G3, Velocity: 43
Note ON: Time 64680, Note Name: F3, Velocity: 43
Note OFF: Time 64800, Note Name: F3
Note OFF: Time 64800, Note Name: G3
Note ON: Time 64800, Note Name: B3, Velocity: 47
Note ON: Time 64800, Note Name: D3, Velocity: 47
Note OFF: Time 64920, Note Name: D3
Note OFF: Time 64920, Note Name: B3
Note ON: Time 64920, Note Name: G3, Velocity: 46
Note ON: Time 64920, Note Name: F3, Velocity: 46
Note OFF: Time 65040, Note Name: F3
Note OFF: Time 65040, Note Name: G3
Note ON: Time 65040, Note Name: D3, Velocity: 47
Note ON: Time 65040, Note Name: B3, Velocity: 47
Note OFF: Time 65160, Note Name: B3
Note OFF: Time 65160, Note Name: D3
Note ON: Time 65160, Note Name: F3, Velocity: 48
Note ON: Time 65160, Note Name: G3, Velocity: 48
Note OFF: Time 65280, Note Name: G3
Note OFF: Time 65280, Note Name: F3
Note ON: Time 65280, Note Name: D3, Velocity: 49
Note ON: Time 65280, Note Name: B3, Velocity: 49
Note OFF: Time 65400, Note Name: B3
Note OFF: Time 65400, Note Name: D3
Note ON: Time 65400, Note Name: G#3, Velocity: 49
Note ON: Time 65400, Note Name: F3, Velocity: 49
Note OFF: Time 65520, Note Name: F3
Note OFF: Time 65520, Note Name: G#3
Note ON: Time 65520, Note Name: B3, Velocity: 48
Note ON: Time 65520, Note Name: D3, Velocity: 48
Note OFF: Time 65640, Note Name: D3
Note OFF: Time 65640, Note Name: B3
Note ON: Time 65640, Note Name: G#3, Velocity: 47
Note ON: Time 65640, Note Name: F3, Velocity: 47
Note OFF: Time 65760, Note Name: F3
Note OFF: Time 65760, Note Name: G#3
Note ON: Time 65760, Note Name: D3, Velocity: 47
Note ON: Time 65760, Note Name: B3, Velocity: 47
Note OFF: Time 65880, Note Name: B3
Note OFF: Time 65880, Note Name: D3
Note ON: Time 65880, Note Name: F3, Velocity: 46
Note ON: Time 65880, Note Name: G3, Velocity: 46
Note OFF: Time 66000, Note Name: G3
Note OFF: Time 66000, Note Name: F3
Note ON: Time 66000, Note Name: D3, Velocity: 46
Note ON: Time 66000, Note Name: B3, Velocity: 46
Note OFF: Time 66120, Note Name: B3
Note OFF: Time 66120, Note Name: D3
Note ON: Time 66120, Note Name: F3, Velocity: 45
Note ON: Time 66120, Note Name: G3, Velocity: 45
Note OFF: Time 66240, Note Name: G3
Note OFF: Time 66240, Note Name: F3
Note ON: Time 66240, Note Name: G2, Velocity: 54
Note OFF: Time 66360, Note Name: G2
Note ON: Time 66360, Note Name: F3, Velocity: 40
Note ON: Time 66360, Note Name: G3, Velocity: 40
Note OFF: Time 66480, Note Name: G3
Note OFF: Time 66480, Note Name: F3
Note ON: Time 66480, Note Name: D3, Velocity: 41
Note ON: Time 66480, Note Name: B3, Velocity: 41
Note OFF: Time 66600, Note Name: B3
Note OFF: Time 66600, Note Name: D3
Note ON: Time 66600, Note Name: F3, Velocity: 43
Note ON: Time 66600, Note Name: G3, Velocity: 43
Note OFF: Time 66720, Note Name: G3
Note OFF: Time 66720, Note Name: F3
Note ON: Time 66720, Note Name: D3, Velocity: 47
Note ON: Time 66720, Note Name: B3, Velocity: 47
Note OFF: Time 66840, Note Name: B3
Note OFF: Time 66840, Note Name: D3
Note ON: Time 66840, Note Name: F3, Velocity: 46
Note ON: Time 66840, Note Name: G3, Velocity: 46
Note OFF: Time 66960, Note Name: G3
Note OFF: Time 66960, Note Name: F3
Note ON: Time 66960, Note Name: D3, Velocity: 47
Note ON: Time 66960, Note Name: B3, Velocity: 47
Note OFF: Time 67080, Note Name: B3
Note OFF: Time 67080, Note Name: D3
Note ON: Time 67080, Note Name: G3, Velocity: 48
Note ON: Time 67080, Note Name: F3, Velocity: 48
Note OFF: Time 67200, Note Name: F3
Note OFF: Time 67200, Note Name: G3
Note ON: Time 67200, Note Name: B3, Velocity: 49
Note ON: Time 67200, Note Name: D3, Velocity: 49
Note OFF: Time 67320, Note Name: D3
Note OFF: Time 67320, Note Name: B3
Note ON: Time 67320, Note Name: F3, Velocity: 49
Note ON: Time 67320, Note Name: G#3, Velocity: 49
Note OFF: Time 67440, Note Name: G#3
Note OFF: Time 67440, Note Name: F3
Note ON: Time 67440, Note Name: D3, Velocity: 48
Note ON: Time 67440, Note Name: B3, Velocity: 48
Note OFF: Time 67560, Note Name: B3
Note OFF: Time 67560, Note Name: D3
Note ON: Time 67560, Note Name: F3, Velocity: 47
Note ON: Time 67560, Note Name: G#3, Velocity: 47
Note OFF: Time 67680, Note Name: G#3
Note OFF: Time 67680, Note Name: F3
Note ON: Time 67680, Note Name: D3, Velocity: 47
Note ON: Time 67680, Note Name: B3, Velocity: 47
Note OFF: Time 67800, Note Name: B3
Note OFF: Time 67800, Note Name: D3
Note ON: Time 67800, Note Name: G3, Velocity: 46
Note ON: Time 67800, Note Name: F3, Velocity: 46
Note OFF: Time 67920, Note Name: F3
Note OFF: Time 67920, Note Name: G3
Note ON: Time 67920, Note Name: B3, Velocity: 46
Note ON: Time 67920, Note Name: D3, Velocity: 46
Note OFF: Time 68040, Note Name: D3
Note OFF: Time 68040, Note Name: B3
Note ON: Time 68040, Note Name: G3, Velocity: 45
Note ON: Time 68040, Note Name: F3, Velocity: 45
Note OFF: Time 68160, Note Name: F3
Note OFF: Time 68160, Note Name: G3
Note ON: Time 68160, Note Name: C3, Velocity: 56
Note OFF: Time 68280, Note Name: C3
Note ON: Time 68280, Note Name: C4, Velocity: 42
Note ON: Time 68280, Note Name: D#4, Velocity: 42
Note OFF: Time 68400, Note Name: D#4
Note OFF: Time 68400, Note Name: C4
Note ON: Time 68400, Note Name: G3, Velocity: 43
Note ON: Time 68400, Note Name: G4, Velocity: 43
Note OFF: Time 68520, Note Name: G4
Note OFF: Time 68520, Note Name: G3
Note ON: Time 68520, Note Name: D#4, Velocity: 45
Note ON: Time 68520, Note Name: C4, Velocity: 45
Note OFF: Time 68640, Note Name: C4
Note OFF: Time 68640, Note Name: D#4
Note ON: Time 68640, Note Name: G4, Velocity: 49
Note ON: Time 68640, Note Name: G3, Velocity: 49
Note OFF: Time 68760, Note Name: G3
Note OFF: Time 68760, Note Name: G4
Note ON: Time 68760, Note Name: D#4, Velocity: 48
Note ON: Time 68760, Note Name: C4, Velocity: 48
Note OFF: Time 68880, Note Name: C4
Note OFF: Time 68880, Note Name: D#4
Note ON: Time 68880, Note Name: G4, Velocity: 49
Note ON: Time 68880, Note Name: G3, Velocity: 49
Note OFF: Time 69000, Note Name: G3
Note OFF: Time 69000, Note Name: G4
Note ON: Time 69000, Note Name: D#4, Velocity: 50
Note ON: Time 69000, Note Name: C4, Velocity: 50
Note OFF: Time 69120, Note Name: C4
Note OFF: Time 69120, Note Name: D#4
Note ON: Time 69120, Note Name: G4, Velocity: 51
Note ON: Time 69120, Note Name: G3, Velocity: 51
Note OFF: Time 69240, Note Name: G3
Note OFF: Time 69240, Note Name: G4
Note ON: Time 69240, Note Name: D#4, Velocity: 51
Note ON: Time 69240, Note Name: C4, Velocity: 51
Note OFF: Time 69360, Note Name: C4
Note OFF: Time 69360, Note Name: D#4
Note ON: Time 69360, Note Name: G4, Velocity: 50
Note ON: Time 69360, Note Name: G3, Velocity: 50
Note OFF: Time 69480, Note Name: G3
Note OFF: Time 69480, Note Name: G4
Note ON: Time 69480, Note Name: C4, Velocity: 49
Note ON: Time 69480, Note Name: D#4, Velocity: 49
Note OFF: Time 69600, Note Name: D#4
Note OFF: Time 69600, Note Name: C4
Note ON: Time 69600, Note Name: G3, Velocity: 49
Note ON: Time 69600, Note Name: G4, Velocity: 49
Note OFF: Time 69720, Note Name: G4
Note OFF: Time 69720, Note Name: G3
Note ON: Time 69720, Note Name: D#4, Velocity: 48
Note ON: Time 69720, Note Name: C4, Velocity: 48
Note OFF: Time 69840, Note Name: C4
Note OFF: Time 69840, Note Name: D#4
Note ON: Time 69840, Note Name: G4, Velocity: 48
Note ON: Time 69840, Note Name: G3, Velocity: 48
Note OFF: Time 69960, Note Name: G3
Note OFF: Time 69960, Note Name: G4
Note ON: Time 69960, Note Name: D#4, Velocity: 47
Note ON: Time 69960, Note Name: C4, Velocity: 47
Note OFF: Time 70080, Note Name: C4
Note OFF: Time 70080, Note Name: D#4
Note ON: Time 70080, Note Name: C3, Velocity: 56
Note OFF: Time 70320, Note Name: C3
Note ON: Time 70320, Note Name: G4, Velocity: 43
Note OFF: Time 70440, Note Name: G4
Note ON: Time 70440, Note Name: D#4, Velocity: 45
Note OFF: Time 70560, Note Name: D#4
Note ON: Time 70560, Note Name: C5, Velocity: 49
Note OFF: Time 70680, Note Name: C5
Note ON: Time 70680, Note Name: G4, Velocity: 49
Note OFF: Time 70800, Note Name: G4
Note ON: Time 70800, Note Name: C5, Velocity: 50
Note OFF: Time 70920, Note Name: C5
Note ON: Time 70920, Note Name: G4, Velocity: 52
Note OFF: Time 71040, Note Name: G4
Note ON: Time 71040, Note Name: D#5, Velocity: 53
Note OFF: Time 71160, Note Name: D#5
Note ON: Time 71160, Note Name: C5, Velocity: 53
Note OFF: Time 71280, Note Name: C5
Note ON: Time 71280, Note Name: D#5, Velocity: 53
Note OFF: Time 71400, Note Name: D#5
Note ON: Time 71400, Note Name: C5, Velocity: 51
Note OFF: Time 71520, Note Name: C5
Note ON: Time 71520, Note Name: G5, Velocity: 52
Note OFF: Time 71640, Note Name: G5
Note ON: Time 71640, Note Name: D#5, Velocity: 51
Note OFF: Time 71760, Note Name: D#5
Note ON: Time 71760, Note Name: G5, Velocity: 51
Note OFF: Time 71880, Note Name: G5
Note ON: Time 71880, Note Name: D#5, Velocity: 51
Note OFF: Time 72000, Note Name: D#5
Note ON: Time 72000, Note Name: F5, Velocity: 80
Note ON: Time 72000, Note Name: G#5, Velocity: 80
Note OFF: Time 72720, Note Name: G#5
Note OFF: Time 72720, Note Name: F5
Note ON: Time 72720, Note Name: G5, Velocity: 66
Note ON: Time 72720, Note Name: D#5, Velocity: 66
Note OFF: Time 72960, Note Name: D#5
Note OFF: Time 72960, Note Name: G5
Note ON: Time 72960, Note Name: D5, Velocity: 68
Note ON: Time 72960, Note Name: F5, Velocity: 68
Note OFF: Time 73440, Note Name: F5
Note OFF: Time 73440, Note Name: D5
Note ON: Time 73440, Note Name: D#5, Velocity: 64
Note ON: Time 73440, Note Name: G5, Velocity: 64
Note OFF: Time 73920, Note Name: G5
Note OFF: Time 73920, Note Name: D#5
Note ON: Time 73920, Note Name: G#5, Velocity: 80
Note ON: Time 73920, Note Name: F5, Velocity: 80
Note OFF: Time 74640, Note Name: F5
Note OFF: Time 74640, Note Name: G#5
Note ON: Time 74640, Note Name: G5, Velocity: 66
Note ON: Time 74640, Note Name: D#5, Velocity: 66
Note OFF: Time 74880, Note Name: D#5
Note OFF: Time 74880, Note Name: G5
Note ON: Time 74880, Note Name: F5, Velocity: 68
Note ON: Time 74880, Note Name: D5, Velocity: 68
Note OFF: Time 75360, Note Name: D5
Note OFF: Time 75360, Note Name: F5
Note ON: Time 75360, Note Name: G5, Velocity: 64
Note ON: Time 75360, Note Name: D#5, Velocity: 64
Note OFF: Time 75840, Note Name: D#5
Note OFF: Time 75840, Note Name: G5
Note ON: Time 75840, Note Name: F5, Velocity: 80
Note ON: Time 75840, Note Name: G#5, Velocity: 80
Note OFF: Time 76560, Note Name: G#5
Note OFF: Time 76560, Note Name: F5
Note ON: Time 76560, Note Name: G5, Velocity: 66
Note ON: Time 76560, Note Name: D#5, Velocity: 66
Note OFF: Time 76800, Note Name: D#5
Note OFF: Time 76800, Note Name: G5
Note ON: Time 76800, Note Name: D5, Velocity: 68
Note ON: Time 76800, Note Name: F5, Velocity: 68
Note OFF: Time 77280, Note Name: F5
Note OFF: Time 77280, Note Name: D5
Note ON: Time 77280, Note Name: C5, Velocity: 65
Note ON: Time 77280, Note Name: D#5, Velocity: 65
Note OFF: Time 77760, Note Name: D#5
Note OFF: Time 77760, Note Name: C5
Note ON: Time 77760, Note Name: B4, Velocity: 70
Note ON: Time 77760, Note Name: D5, Velocity: 70
Note OFF: Time 78240, Note Name: D5
Note OFF: Time 78240, Note Name: B4
Note ON: Time 78240, Note Name: C5, Velocity: 70
Note ON: Time 78240, Note Name: A4, Velocity: 70
Note OFF: Time 78720, Note Name: A4
Note OFF: Time 78720, Note Name: C5
Note ON: Time 78720, Note Name: C5, Velocity: 75
Note ON: Time 78720, Note Name: G#4, Velocity: 75
Note OFF: Time 79200, Note Name: G#4
Note OFF: Time 79200, Note Name: C5
Note ON: Time 79200, Note Name: C5, Velocity: 75
Note ON: Time 79200, Note Name: G4, Velocity: 75
Note OFF: Time 79680, Note Name: G4
Note OFF: Time 79680, Note Name: C5
Note ON: Time 79680, Note Name: F#4, Velocity: 76
Note ON: Time 80160, Note Name: G#4, Velocity: 75
Note OFF: Time 80640, Note Name: G#4
Note OFF: Time 80640, Note Name: F#4
Note ON: Time 80640, Note Name: G3, Velocity: 72
Note ON: Time 80640, Note Name: D#4, Velocity: 72
Note ON: Time 80640, Note Name: G4, Velocity: 72
Note OFF: Time 81120, Note Name: D#4
Note ON: Time 81120, Note Name: D4, Velocity: 68
Note OFF: Time 81600, Note Name: D4
Note OFF: Time 81600, Note Name: G4
Note OFF: Time 81600, Note Name: G3
Note ON: Time 81600, Note Name: F3, Velocity: 61
Note ON: Time 81600, Note Name: C#4, Velocity: 72
Note ON: Time 81600, Note Name: G#3, Velocity: 61
Note OFF: Time 82320, Note Name: G#3
Note OFF: Time 82320, Note Name: C#4
Note OFF: Time 82320, Note Name: F3
Note ON: Time 82320, Note Name: G3, Velocity: 50
Note ON: Time 82320, Note Name: C4, Velocity: 59
Note ON: Time 82320, Note Name: D#3, Velocity: 50
Note OFF: Time 82560, Note Name: D#3
Note OFF: Time 82560, Note Name: C4
Note OFF: Time 82560, Note Name: G3
Note ON: Time 82560, Note Name: D3, Velocity: 51
Note ON: Time 82560, Note Name: F3, Velocity: 54
Note ON: Time 82560, Note Name: B3, Velocity: 64
Note OFF: Time 83040, Note Name: B3
Note OFF: Time 83040, Note Name: F3
Note OFF: Time 83040, Note Name: D3
Note ON: Time 83040, Note Name: G3, Velocity: 48
Note ON: Time 83040, Note Name: C4, Velocity: 57
Note ON: Time 83040, Note Name: D#3, Velocity: 48
Note OFF: Time 83520, Note Name: D#3
Note OFF: Time 83520, Note Name: C4
Note OFF: Time 83520, Note Name: G3
Note ON: Time 83520, Note Name: F3, Velocity: 61
Note ON: Time 83520, Note Name: C#4, Velocity: 72
Note ON: Time 83520, Note Name: G#3, Velocity: 61
Note OFF: Time 84240, Note Name: G#3
Note OFF: Time 84240, Note Name: C#4
Note OFF: Time 84240, Note Name: F3
Note ON: Time 84240, Note Name: G3, Velocity: 50
Note ON: Time 84240, Note Name: C4, Velocity: 59
Note ON: Time 84240, Note Name: D#3, Velocity: 50
Note OFF: Time 84480, Note Name: D#3
Note OFF: Time 84480, Note Name: C4
Note OFF: Time 84480, Note Name: G3
Note ON: Time 84480, Note Name: D3, Velocity: 51
Note ON: Time 84480, Note Name: B3, Velocity: 61
Note ON: Time 84480, Note Name: F3, Velocity: 51
Note OFF: Time 84960, Note Name: F3
Note OFF: Time 84960, Note Name: B3
Note OFF: Time 84960, Note Name: D3
Note ON: Time 84960, Note Name: D#3, Velocity: 48
Note ON: Time 84960, Note Name: G3, Velocity: 48
Note ON: Time 84960, Note Name: C4, Velocity: 57
Note OFF: Time 85440, Note Name: C4
Note OFF: Time 85440, Note Name: G3
Note OFF: Time 85440, Note Name: D#3
Note ON: Time 85440, Note Name: C#4, Velocity: 72
Note ON: Time 85440, Note Name: G#3, Velocity: 61
Note ON: Time 85440, Note Name: F3, Velocity: 61
Note OFF: Time 86160, Note Name: F3
Note OFF: Time 86160, Note Name: G#3
Note OFF: Time 86160, Note Name: C#4
Note ON: Time 86160, Note Name: C4, Velocity: 59
Note ON: Time 86160, Note Name: D#3, Velocity: 50
Note ON: Time 86160, Note Name: G3, Velocity: 50
Note OFF: Time 86400, Note Name: G3
Note OFF: Time 86400, Note Name: D#3
Note OFF: Time 86400, Note Name: C4
Note ON: Time 86400, Note Name: D3, Velocity: 51
Note ON: Time 86400, Note Name: B3, Velocity: 61
Note ON: Time 86400, Note Name: F3, Velocity: 51
Note OFF: Time 86880, Note Name: F3
Note OFF: Time 86880, Note Name: B3
Note OFF: Time 86880, Note Name: D3
Note ON: Time 86880, Note Name: G#3, Velocity: 58
Note ON: Time 86880, Note Name: D#3, Velocity: 49
Note ON: Time 86880, Note Name: C3, Velocity: 49
Note OFF: Time 87360, Note Name: C3
Note OFF: Time 87360, Note Name: D#3
Note OFF: Time 87360, Note Name: G#3
Note ON: Time 87360, Note Name: G3, Velocity: 63
Note ON: Time 87360, Note Name: B2, Velocity: 53
Note ON: Time 87360, Note Name: D3, Velocity: 63
Note OFF: Time 87840, Note Name: D3
Note OFF: Time 87840, Note Name: B2
Note OFF: Time 87840, Note Name: G3
Note ON: Time 87840, Note Name: F#3, Velocity: 63
Note ON: Time 87840, Note Name: D#3, Velocity: 63
Note ON: Time 87840, Note Name: C3, Velocity: 53
Note ON: Time 87840, Note Name: A2, Velocity: 53
Note OFF: Time 88320, Note Name: A2
Note OFF: Time 88320, Note Name: F#3
Note OFF: Time 88320, Note Name: D#3
Note OFF: Time 88320, Note Name: C3
Note ON: Time 88320, Note Name: D3, Velocity: 56
Note ON: Time 88320, Note Name: B2, Velocity: 56
Note ON: Time 88320, Note Name: F3, Velocity: 67
Note OFF: Time 88800, Note Name: F3
Note OFF: Time 88800, Note Name: B2
Note OFF: Time 88800, Note Name: D3
Note ON: Time 88800, Note Name: D#3, Velocity: 67
Note ON: Time 88800, Note Name: C3, Velocity: 56
Note OFF: Time 89280, Note Name: C3
Note OFF: Time 89280, Note Name: D#3
Note ON: Time 89280, Note Name: F#2, Velocity: 56
Note ON: Time 89280, Note Name: D#3, Velocity: 66
Note ON: Time 89280, Note Name: A2, Velocity: 56
Note OFF: Time 89760, Note Name: D#3
Note ON: Time 89760, Note Name: D3, Velocity: 64
Note OFF: Time 90240, Note Name: D3
Note OFF: Time 90240, Note Name: A2
Note OFF: Time 90240, Note Name: F#2
Note ON: Time 90240, Note Name: C3, Velocity: 61
Note ON: Time 90240, Note Name: G2, Velocity: 61
Note OFF: Time 90720, Note Name: C3
Note ON: Time 90720, Note Name: B2, Velocity: 59
Note OFF: Time 91200, Note Name: B2
Note OFF: Time 91200, Note Name: G2
Note ON: Time 91200, Note Name: C2, Velocity: 59
Note ON: Time 91200, Note Name: G2, Velocity: 59
Note ON: Time 91200, Note Name: C3, Velocity: 70
Note ON: Time 91200, Note Name: D#2, Velocity: 59
Note OFF: Time 91440, Note Name: D#2
Note OFF: Time 91440, Note Name: C2
Note OFF: Time 91440, Note Name: G2
Note OFF: Time 91440, Note Name: C3
Note ON: Time 91800, Note Name: G3, Velocity: 59
Note OFF: Time 91920, Note Name: G3
Note ON: Time 91920, Note Name: C4, Velocity: 62
Note OFF: Time 92040, Note Name: C4
Note ON: Time 92040, Note Name: D#4, Velocity: 64
Note OFF: Time 92160, Note Name: D#4
Note ON: Time 92160, Note Name: G4, Velocity: 70
Note OFF: Time 92280, Note Name: G4
Note ON: Time 92280, Note Name: G#4, Velocity: 64
Note OFF: Time 92400, Note Name: G#4
Note ON: Time 92400, Note Name: G4, Velocity: 64
Note OFF: Time 92520, Note Name: G4
Note ON: Time 92520, Note Name: F4, Velocity: 64
Note OFF: Time 92640, Note Name: F4
Note ON: Time 92640, Note Name: D#4, Velocity: 70
Note OFF: Time 92760, Note Name: D#4
Note ON: Time 92760, Note Name: D4, Velocity: 63
Note OFF: Time 92880, Note Name: D4
Note ON: Time 92880, Note Name: C4, Velocity: 63
Note OFF: Time 93000, Note Name: C4
Note ON: Time 93000, Note Name: A#3, Velocity: 63
Note OFF: Time 93120, Note Name: A#3
Note ON: Time 93120, Note Name: G#3, Velocity: 67
Note OFF: Time 93240, Note Name: G#3
Note ON: Time 93240, Note Name: G3, Velocity: 60
Note OFF: Time 93360, Note Name: G3
Note ON: Time 93360, Note Name: F3, Velocity: 60
Note OFF: Time 93480, Note Name: F3
Note ON: Time 93480, Note Name: D#3, Velocity: 60
Note OFF: Time 93600, Note Name: D#3
Note ON: Time 93600, Note Name: D3, Velocity: 71
Note OFF: Time 93720, Note Name: D3
Note ON: Time 93720, Note Name: D#3, Velocity: 65
Note OFF: Time 93840, Note Name: D#3
Note ON: Time 93840, Note Name: F3, Velocity: 73
Note OFF: Time 93960, Note Name: F3
Note ON: Time 93960, Note Name: D#3, Velocity: 69
Note OFF: Time 94080, Note Name: D#3
Note ON: Time 94080, Note Name: D3, Velocity: 73
Note OFF: Time 94200, Note Name: D3
Note ON: Time 94200, Note Name: C3, Velocity: 73
Note OFF: Time 94320, Note Name: C3
Note ON: Time 94320, Note Name: B2, Velocity: 72
Note OFF: Time 94440, Note Name: B2
Note ON: Time 94440, Note Name: G#2, Velocity: 72
Note OFF: Time 94560, Note Name: G#2
Note ON: Time 94560, Note Name: G2, Velocity: 71
Note OFF: Time 94680, Note Name: G2
Note ON: Time 94680, Note Name: F2, Velocity: 71
Note OFF: Time 94800, Note Name: F2
Note ON: Time 94800, Note Name: D#2, Velocity: 70
Note OFF: Time 94920, Note Name: D#2
Note ON: Time 94920, Note Name: D2, Velocity: 70
Note OFF: Time 95040, Note Name: D2
Note ON: Time 95040, Note Name: C2, Velocity: 70
Note ON: Time 95040, Note Name: G2, Velocity: 70
Note ON: Time 95040, Note Name: C3, Velocity: 70
Note ON: Time 95040, Note Name: D#2, Velocity: 70
Note OFF: Time 95280, Note Name: D#2
Note OFF: Time 95280, Note Name: C2
Note OFF: Time 95280, Note Name: G2
Note OFF: Time 95280, Note Name: C3
Note ON: Time 95640, Note Name: G4, Velocity: 59
Note OFF: Time 95760, Note Name: G4
Note ON: Time 95760, Note Name: C5, Velocity: 62
Note OFF: Time 95880, Note Name: C5
Note ON: Time 95880, Note Name: D#5, Velocity: 64
Note OFF: Time 96000, Note Name: D#5
Note ON: Time 96000, Note Name: G5, Velocity: 70
Note OFF: Time 96120, Note Name: G5
Note ON: Time 96120, Note Name: G#5, Velocity: 64
Note OFF: Time 96240, Note Name: G#5
Note ON: Time 96240, Note Name: G5, Velocity: 64
Note OFF: Time 96360, Note Name: G5
Note ON: Time 96360, Note Name: F5, Velocity: 64
Note OFF: Time 96480, Note Name: F5
Note ON: Time 96480, Note Name: D#5, Velocity: 70
Note OFF: Time 96600, Note Name: D#5
Note ON: Time 96600, Note Name: D5, Velocity: 63
Note OFF: Time 96720, Note Name: D5
Note ON: Time 96720, Note Name: C5, Velocity: 63
Note OFF: Time 96840, Note Name: C5
Note ON: Time 96840, Note Name: A#4, Velocity: 63
Note OFF: Time 96960, Note Name: A#4
Note ON: Time 96960, Note Name: G#4, Velocity: 67
Note OFF: Time 97080, Note Name: G#4
Note ON: Time 97080, Note Name: G4, Velocity: 60
Note OFF: Time 97200, Note Name: G4
Note ON: Time 97200, Note Name: F4, Velocity: 60
Note OFF: Time 97320, Note Name: F4
Note ON: Time 97320, Note Name: D#4, Velocity: 60
Note OFF: Time 97440, Note Name: D#4
Note ON: Time 97440, Note Name: D4, Velocity: 71
Note OFF: Time 97560, Note Name: D4
Note ON: Time 97560, Note Name: D#4, Velocity: 65
Note OFF: Time 97680, Note Name: D#4
Note ON: Time 97680, Note Name: F4, Velocity: 73
Note OFF: Time 97800, Note Name: F4
Note ON: Time 97800, Note Name: D#4, Velocity: 69
Note OFF: Time 97920, Note Name: D#4
Note ON: Time 97920, Note Name: D4, Velocity: 73
Note OFF: Time 98040, Note Name: D4
Note ON: Time 98040, Note Name: C4, Velocity: 73
Note OFF: Time 98160, Note Name: C4
Note ON: Time 98160, Note Name: B3, Velocity: 72
Note OFF: Time 98280, Note Name: B3
Note ON: Time 98280, Note Name: G#3, Velocity: 72
Note OFF: Time 98400, Note Name: G#3
Note ON: Time 98400, Note Name: G3, Velocity: 71
Note OFF: Time 98520, Note Name: G3
Note ON: Time 98520, Note Name: F3, Velocity: 71
Note OFF: Time 98640, Note Name: F3
Note ON: Time 98640, Note Name: D#3, Velocity: 70
Note OFF: Time 98760, Note Name: D#3
Note ON: Time 98760, Note Name: D3, Velocity: 70
Note OFF: Time 98880, Note Name: D3
Note ON: Time 98880, Note Name: C3, Velocity: 67
Note OFF: Time 99000, Note Name: C3
Note ON: Time 99000, Note Name: D3, Velocity: 60
Note OFF: Time 99120, Note Name: D3
Note ON: Time 99120, Note Name: D#3, Velocity: 60
Note OFF: Time 99240, Note Name: D#3
Note ON: Time 99240, Note Name: F3, Velocity: 60
Note OFF: Time 99360, Note Name: F3
Note ON: Time 99360, Note Name: G3, Velocity: 71
Note OFF: Time 99480, Note Name: G3
Note ON: Time 99480, Note Name: A3, Velocity: 65
Note OFF: Time 99600, Note Name: A3
Note ON: Time 99600, Note Name: B3, Velocity: 73
Note OFF: Time 99720, Note Name: B3
Note ON: Time 99720, Note Name: C4, Velocity: 69
Note OFF: Time 99840, Note Name: C4
Note ON: Time 99840, Note Name: D4, Velocity: 73
Note OFF: Time 99960, Note Name: D4
Note ON: Time 99960, Note Name: C4, Velocity: 73
Note OFF: Time 100080, Note Name: C4
Note ON: Time 100080, Note Name: B3, Velocity: 72
Note OFF: Time 100200, Note Name: B3
Note ON: Time 100200, Note Name: G#3, Velocity: 72
Note OFF: Time 100320, Note Name: G#3
Note ON: Time 100320, Note Name: G3, Velocity: 71
Note OFF: Time 100440, Note Name: G3
Note ON: Time 100440, Note Name: F3, Velocity: 71
Note OFF: Time 100560, Note Name: F3
Note ON: Time 100560, Note Name: D#3, Velocity: 70
Note OFF: Time 100680, Note Name: D#3
Note ON: Time 100680, Note Name: D3, Velocity: 70
Note OFF: Time 100800, Note Name: D3
Note ON: Time 100800, Note Name: C3, Velocity: 67
Note OFF: Time 100920, Note Name: C3
Note ON: Time 100920, Note Name: D3, Velocity: 60
Note OFF: Time 101040, Note Name: D3
Note ON: Time 101040, Note Name: D#3, Velocity: 60
Note OFF: Time 101160, Note Name: D#3
Note ON: Time 101160, Note Name: F3, Velocity: 60
Note OFF: Time 101280, Note Name: F3
Note ON: Time 101280, Note Name: G3, Velocity: 71
Note OFF: Time 101400, Note Name: G3
Note ON: Time 101400, Note Name: A3, Velocity: 65
Note OFF: Time 101520, Note Name: A3
Note ON: Time 101520, Note Name: B3, Velocity: 73
Note OFF: Time 101640, Note Name: B3
Note ON: Time 101640, Note Name: C4, Velocity: 69
Note OFF: Time 101760, Note Name: C4
Note ON: Time 101760, Note Name: D4, Velocity: 73
Note OFF: Time 101880, Note Name: D4
Note ON: Time 101880, Note Name: C4, Velocity: 73
Note OFF: Time 102000, Note Name: C4
Note ON: Time 102000, Note Name: B3, Velocity: 72
Note OFF: Time 102120, Note Name: B3
Note ON: Time 102120, Note Name: G#3, Velocity: 72
Note OFF: Time 102240, Note Name: G#3
Note ON: Time 102240, Note Name: G3, Velocity: 71
Note OFF: Time 102360, Note Name: G3
Note ON: Time 102360, Note Name: F3, Velocity: 71
Note OFF: Time 102480, Note Name: F3
Note ON: Time 102480, Note Name: D#3, Velocity: 70
Note OFF: Time 102600, Note Name: D#3
Note ON: Time 102600, Note Name: D3, Velocity: 70
Note OFF: Time 102720, Note Name: D3
Note ON: Time 102720, Note Name: C3, Velocity: 67
Note OFF: Time 102840, Note Name: C3
Note ON: Time 102840, Note Name: D3, Velocity: 60
Note OFF: Time 102960, Note Name: D3
Note ON: Time 102960, Note Name: D#3, Velocity: 60
Note OFF: Time 103080, Note Name: D#3
Note ON: Time 103080, Note Name: F3, Velocity: 60
Note OFF: Time 103200, Note Name: F3
Note ON: Time 103200, Note Name: G3, Velocity: 71
Note OFF: Time 103320, Note Name: G3
Note ON: Time 103320, Note Name: A3, Velocity: 65
Note OFF: Time 103440, Note Name: A3
Note ON: Time 103440, Note Name: B3, Velocity: 73
Note OFF: Time 103560, Note Name: B3
Note ON: Time 103560, Note Name: C4, Velocity: 69
Note OFF: Time 103680, Note Name: C4
Note ON: Time 103680, Note Name: A#3, Velocity: 73
Note OFF: Time 103800, Note Name: A#3
Note ON: Time 103800, Note Name: G#3, Velocity: 73
Note OFF: Time 103920, Note Name: G#3
Note ON: Time 103920, Note Name: G3, Velocity: 72
Note OFF: Time 104040, Note Name: G3
Note ON: Time 104040, Note Name: F3, Velocity: 72
Note OFF: Time 104160, Note Name: F3
Note ON: Time 104160, Note Name: E3, Velocity: 71
Note OFF: Time 104280, Note Name: E3
Note ON: Time 104280, Note Name: D3, Velocity: 71
Note OFF: Time 104400, Note Name: D3
Note ON: Time 104400, Note Name: C3, Velocity: 70
Note OFF: Time 104520, Note Name: C3
Note ON: Time 104520, Note Name: A#2, Velocity: 70
Note OFF: Time 104640, Note Name: A#2
Note ON: Time 104640, Note Name: G#2, Velocity: 67
Note OFF: Time 104760, Note Name: G#2
Note ON: Time 104760, Note Name: A#2, Velocity: 60
Note OFF: Time 104880, Note Name: A#2
Note ON: Time 104880, Note Name: C3, Velocity: 60
Note OFF: Time 105000, Note Name: C3
Note ON: Time 105000, Note Name: D3, Velocity: 60
Note OFF: Time 105120, Note Name: D3
Note ON: Time 105120, Note Name: E3, Velocity: 71
Note OFF: Time 105240, Note Name: E3
Note ON: Time 105240, Note Name: F3, Velocity: 65
Note OFF: Time 105360, Note Name: F3
Note ON: Time 105360, Note Name: G3, Velocity: 73
Note OFF: Time 105480, Note Name: G3
Note ON: Time 105480, Note Name: G#3, Velocity: 69
Note OFF: Time 105600, Note Name: G#3
Note ON: Time 105600, Note Name: G3, Velocity: 73
Note OFF: Time 105720, Note Name: G3
Note ON: Time 105720, Note Name: F3, Velocity: 73
Note OFF: Time 105840, Note Name: F3
Note ON: Time 105840, Note Name: E3, Velocity: 72
Note OFF: Time 105960, Note Name: E3
Note ON: Time 105960, Note Name: D3, Velocity: 72
Note OFF: Time 106080, Note Name: D3
Note ON: Time 106080, Note Name: C3, Velocity: 71
Note OFF: Time 106200, Note Name: C3
Note ON: Time 106200, Note Name: A#2, Velocity: 71
Note OFF: Time 106320, Note Name: A#2
Note ON: Time 106320, Note Name: G#2, Velocity: 70
Note OFF: Time 106440, Note Name: G#2
Note ON: Time 106440, Note Name: G2, Velocity: 70
Note OFF: Time 106560, Note Name: G2
Note ON: Time 106560, Note Name: F#1, Velocity: 76
Note ON: Time 106560, Note Name: F#2, Velocity: 78
Note OFF: Time 106680, Note Name: F#2
Note OFF: Time 106680, Note Name: F#1
Note ON: Time 109320, Note Name: A3, Velocity: 69
Note OFF: Time 109440, Note Name: A3
Note ON: Time 109440, Note Name: F#3, Velocity: 68
Note OFF: Time 109560, Note Name: F#3
Note ON: Time 109560, Note Name: D#3, Velocity: 68
Note OFF: Time 109680, Note Name: D#3
Note ON: Time 109680, Note Name: C3, Velocity: 67
Note OFF: Time 109800, Note Name: C3
Note ON: Time 109800, Note Name: A2, Velocity: 66
Note OFF: Time 109920, Note Name: A2
Note ON: Time 109920, Note Name: F#2, Velocity: 66
Note OFF: Time 110040, Note Name: F#2
Note ON: Time 110040, Note Name: D#2, Velocity: 65
Note OFF: Time 110160, Note Name: D#2
Note ON: Time 110160, Note Name: C2, Velocity: 64
Note OFF: Time 110280, Note Name: C2
Note ON: Time 110280, Note Name: A1, Velocity: 63
Note OFF: Time 110400, Note Name: A1
Note ON: Time 110400, Note Name: F#1, Velocity: 60
Note OFF: Time 110520, Note Name: F#1
Note ON: Time 110520, Note Name: A1, Velocity: 59
Note OFF: Time 110640, Note Name: A1
Note ON: Time 110640, Note Name: C2, Velocity: 58
Note OFF: Time 110760, Note Name: C2
Note ON: Time 110760, Note Name: D#2, Velocity: 57
Note OFF: Time 110880, Note Name: D#2
Note ON: Time 110880, Note Name: F#1, Velocity: 56
Note OFF: Time 111000, Note Name: F#1
Note ON: Time 111000, Note Name: A1, Velocity: 54
Note OFF: Time 111120, Note Name: A1
Note ON: Time 111120, Note Name: C2, Velocity: 53
Note OFF: Time 111240, Note Name: C2
Note ON: Time 111240, Note Name: D#2, Velocity: 52
Note OFF: Time 111360, Note Name: D#2
Note ON: Time 111360, Note Name: F#1, Velocity: 51
Note OFF: Time 111480, Note Name: F#1
Note ON: Time 111480, Note Name: A1, Velocity: 47
Note OFF: Time 111600, Note Name: A1
Note ON: Time 111600, Note Name: C2, Velocity: 47
Note OFF: Time 111720, Note Name: C2
Note ON: Time 111720, Note Name: D#2, Velocity: 47
Note OFF: Time 111840, Note Name: D#2
Note ON: Time 111840, Note Name: F#1, Velocity: 52
Note OFF: Time 111960, Note Name: F#1
Note ON: Time 111960, Note Name: A1, Velocity: 47
Note OFF: Time 112080, Note Name: A1
Note ON: Time 112080, Note Name: C2, Velocity: 46
Note OFF: Time 112200, Note Name: C2
Note ON: Time 112200, Note Name: D#2, Velocity: 46
Note OFF: Time 112320, Note Name: D#2
Note ON: Time 112320, Note Name: F1, Velocity: 39
Note OFF: Time 112800, Note Name: F1
Note ON: Time 114120, Note Name: F2, Velocity: 35
Note OFF: Time 114240, Note Name: F2
Note ON: Time 114240, Note Name: F1, Velocity: 40
Note OFF: Time 114720, Note Name: F1
Note ON: Time 116040, Note Name: F2, Velocity: 35
Note OFF: Time 116160, Note Name: F2
Note ON: Time 116160, Note Name: F1, Velocity: 40
Note OFF: Time 116640, Note Name: F1
Note ON: Time 116880, Note Name: A3, Velocity: 38
Note OFF: Time 117000, Note Name: A3
Note ON: Time 117000, Note Name: A#3, Velocity: 42
Note OFF: Time 117120, Note Name: A#3
Note ON: Time 117120, Note Name: C4, Velocity: 49
Note OFF: Time 117240, Note Name: C4
Note ON: Time 117240, Note Name: C#4, Velocity: 42
Note OFF: Time 117360, Note Name: C#4
Note ON: Time 117360, Note Name: C4, Velocity: 43
Note OFF: Time 117480, Note Name: C4
Note ON: Time 117480, Note Name: A#3, Velocity: 43
Note OFF: Time 117600, Note Name: A#3
Note ON: Time 117600, Note Name: A3, Velocity: 47
Note OFF: Time 117840, Note Name: A3
Note ON: Time 117840, Note Name: A3, Velocity: 41
Note OFF: Time 117960, Note Name: A3
Note ON: Time 117960, Note Name: A#3, Velocity: 46
Note OFF: Time 118080, Note Name: A#3
Note ON: Time 118080, Note Name: C4, Velocity: 53
Note OFF: Time 118200, Note Name: C4
Note ON: Time 118200, Note Name: C#4, Velocity: 42
Note OFF: Time 118320, Note Name: C#4
Note ON: Time 118320, Note Name: C4, Velocity: 43
Note OFF: Time 118440, Note Name: C4
Note ON: Time 118440, Note Name: A#3, Velocity: 43
Note OFF: Time 118560, Note Name: A#3
Note ON: Time 118560, Note Name: A3, Velocity: 47
Note OFF: Time 118800, Note Name: A3
Note ON: Time 118800, Note Name: A3, Velocity: 43
Note OFF: Time 118920, Note Name: A3
Note ON: Time 118920, Note Name: A#3, Velocity: 47
Note OFF: Time 119040, Note Name: A#3
Note ON: Time 119040, Note Name: C4, Velocity: 52
Note OFF: Time 119160, Note Name: C4
Note ON: Time 119160, Note Name: C#4, Velocity: 42
Note OFF: Time 119280, Note Name: C#4
Note ON: Time 119280, Note Name: C4, Velocity: 43
Note OFF: Time 119400, Note Name: C4
Note ON: Time 119400, Note Name: A#3, Velocity: 43
Note OFF: Time 119520, Note Name: A#3
Note ON: Time 119520, Note Name: A3, Velocity: 44
Note OFF: Time 119640, Note Name: A3
Note ON: Time 119640, Note Name: F#3, Velocity: 42
Note OFF: Time 119760, Note Name: F#3
Note ON: Time 119760, Note Name: F3, Velocity: 41
Note OFF: Time 119880, Note Name: F3
Note ON: Time 119880, Note Name: D#3, Velocity: 39
Note OFF: Time 120000, Note Name: D#3
Note ON: Time 120000, Note Name: C#3, Velocity: 44
Note ON: Time 120120, Note Name: F3, Velocity: 32
Note OFF: Time 120240, Note Name: F3
Note ON: Time 120240, Note Name: A#3, Velocity: 33
Note OFF: Time 120360, Note Name: A#3
Note ON: Time 120360, Note Name: F3, Velocity: 34
Note OFF: Time 120480, Note Name: F3
Note ON: Time 120480, Note Name: A#3, Velocity: 38
Note OFF: Time 120600, Note Name: A#3
Note ON: Time 120600, Note Name: F3, Velocity: 37
Note OFF: Time 120720, Note Name: F3
Note ON: Time 120720, Note Name: A#3, Velocity: 38
Note OFF: Time 120840, Note Name: A#3
Note ON: Time 120840, Note Name: F3, Velocity: 38
Note OFF: Time 120960, Note Name: F3
Note ON: Time 120960, Note Name: A#3, Velocity: 39
Note OFF: Time 121080, Note Name: A#3
Note ON: Time 121080, Note Name: F3, Velocity: 39
Note OFF: Time 121200, Note Name: F3
Note ON: Time 121200, Note Name: A#3, Velocity: 38
Note OFF: Time 121320, Note Name: A#3
Note ON: Time 121320, Note Name: F3, Velocity: 38
Note OFF: Time 121440, Note Name: F3
Note ON: Time 121440, Note Name: A#3, Velocity: 38
Note OFF: Time 121560, Note Name: A#3
Note ON: Time 121560, Note Name: F3, Velocity: 37
Note OFF: Time 121680, Note Name: F3
Note ON: Time 121680, Note Name: A#3, Velocity: 37
Note OFF: Time 121800, Note Name: A#3
Note ON: Time 121800, Note Name: F3, Velocity: 36
Note OFF: Time 121920, Note Name: F3
Note OFF: Time 121920, Note Name: C#3
Note ON: Time 121920, Note Name: C#3, Velocity: 44
Note ON: Time 122040, Note Name: F3, Velocity: 32
Note OFF: Time 122160, Note Name: F3
Note ON: Time 122160, Note Name: A#3, Velocity: 33
Note OFF: Time 122280, Note Name: A#3
Note ON: Time 122280, Note Name: F3, Velocity: 34
Note OFF: Time 122400, Note Name: F3
Note ON: Time 122400, Note Name: A#3, Velocity: 38
Note OFF: Time 122520, Note Name: A#3
Note ON: Time 122520, Note Name: F3, Velocity: 37
Note OFF: Time 122640, Note Name: F3
Note ON: Time 122640, Note Name: A#3, Velocity: 38
Note OFF: Time 122760, Note Name: A#3
Note ON: Time 122760, Note Name: F3, Velocity: 38
Note OFF: Time 122880, Note Name: F3
Note ON: Time 122880, Note Name: A#3, Velocity: 39
Note OFF: Time 123000, Note Name: A#3
Note ON: Time 123000, Note Name: F3, Velocity: 39
Note OFF: Time 123120, Note Name: F3
Note ON: Time 123120, Note Name: A#3, Velocity: 38
Note OFF: Time 123240, Note Name: A#3
Note ON: Time 123240, Note Name: F3, Velocity: 38
Note OFF: Time 123360, Note Name: F3
Note ON: Time 123360, Note Name: A#3, Velocity: 38
Note OFF: Time 123480, Note Name: A#3
Note ON: Time 123480, Note Name: F3, Velocity: 37
Note OFF: Time 123600, Note Name: F3
Note ON: Time 123600, Note Name: A#3, Velocity: 37
Note OFF: Time 123720, Note Name: A#3
Note ON: Time 123720, Note Name: F3, Velocity: 36
Note OFF: Time 123840, Note Name: F3
Note OFF: Time 123840, Note Name: C#3
Note ON: Time 123840, Note Name: D#3, Velocity: 44
Note ON: Time 123960, Note Name: F#3, Velocity: 32
Note OFF: Time 124080, Note Name: F#3
Note ON: Time 124080, Note Name: B3, Velocity: 33
Note OFF: Time 124200, Note Name: B3
Note ON: Time 124200, Note Name: F#3, Velocity: 35
Note OFF: Time 124320, Note Name: F#3
Note ON: Time 124320, Note Name: B3, Velocity: 39
Note OFF: Time 124440, Note Name: B3
Note ON: Time 124440, Note Name: F#3, Velocity: 39
Note OFF: Time 124560, Note Name: F#3
Note ON: Time 124560, Note Name: B3, Velocity: 40
Note OFF: Time 124680, Note Name: B3
Note ON: Time 124680, Note Name: F#3, Velocity: 41
Note OFF: Time 124800, Note Name: F#3
Note ON: Time 124800, Note Name: B3, Velocity: 42
Note OFF: Time 124920, Note Name: B3
Note ON: Time 124920, Note Name: F#3, Velocity: 43
Note OFF: Time 125040, Note Name: F#3
Note ON: Time 125040, Note Name: B3, Velocity: 42
Note OFF: Time 125160, Note Name: B3
Note ON: Time 125160, Note Name: F#3, Velocity: 42
Note OFF: Time 125280, Note Name: F#3
Note ON: Time 125280, Note Name: B3, Velocity: 43
Note OFF: Time 125400, Note Name: B3
Note ON: Time 125400, Note Name: F#3, Velocity: 42
Note OFF: Time 125520, Note Name: F#3
Note ON: Time 125520, Note Name: B3, Velocity: 45
Note OFF: Time 125640, Note Name: B3
Note ON: Time 125640, Note Name: F#3, Velocity: 42
Note OFF: Time 125760, Note Name: F#3
Note OFF: Time 125760, Note Name: D#3
Note ON: Time 125760, Note Name: F3, Velocity: 46
Note ON: Time 125880, Note Name: A#3, Velocity: 46
Note OFF: Time 126000, Note Name: A#3
Note ON: Time 126000, Note Name: C#4, Velocity: 44
Note OFF: Time 126120, Note Name: C#4
Note ON: Time 126120, Note Name: A#3, Velocity: 44
Note OFF: Time 126240, Note Name: A#3
Note ON: Time 126240, Note Name: C#4, Velocity: 43
Note OFF: Time 126360, Note Name: C#4
Note ON: Time 126360, Note Name: A#3, Velocity: 42
Note OFF: Time 126480, Note Name: A#3
Note ON: Time 126480, Note Name: C#4, Velocity: 41
Note OFF: Time 126600, Note Name: C#4
Note ON: Time 126600, Note Name: A#3, Velocity: 40
Note OFF: Time 126720, Note Name: A#3
Note OFF: Time 126720, Note Name: F3
Note ON: Time 126720, Note Name: D#3, Velocity: 42
Note ON: Time 126840, Note Name: F3, Velocity: 42
Note OFF: Time 126960, Note Name: F3
Note ON: Time 126960, Note Name: C4, Velocity: 41
Note OFF: Time 127080, Note Name: C4
Note ON: Time 127080, Note Name: F3, Velocity: 40
Note OFF: Time 127200, Note Name: F3
Note ON: Time 127200, Note Name: C4, Velocity: 39
Note OFF: Time 127320, Note Name: C4
Note ON: Time 127320, Note Name: F3, Velocity: 38
Note OFF: Time 127440, Note Name: F3
Note ON: Time 127440, Note Name: C4, Velocity: 38
Note OFF: Time 127560, Note Name: C4
Note ON: Time 127560, Note Name: F3, Velocity: 36
Note OFF: Time 127680, Note Name: F3
Note OFF: Time 127680, Note Name: D#3
Note ON: Time 127680, Note Name: C#3, Velocity: 48
Note OFF: Time 127800, Note Name: C#3
Note ON: Time 127800, Note Name: F4, Velocity: 48
Note OFF: Time 127920, Note Name: F4
Note ON: Time 128160, Note Name: A#3, Velocity: 58
Note ON: Time 128280, Note Name: C#4, Velocity: 40
Note OFF: Time 128400, Note Name: C#4
Note ON: Time 128400, Note Name: F4, Velocity: 41
Note OFF: Time 128520, Note Name: F4
Note ON: Time 128520, Note Name: C#4, Velocity: 41
Note OFF: Time 128640, Note Name: C#4
Note OFF: Time 128640, Note Name: A#3
Note ON: Time 128640, Note Name: A3, Velocity: 62
Note ON: Time 128760, Note Name: C#4, Velocity: 42
Note OFF: Time 128880, Note Name: C#4
Note ON: Time 128880, Note Name: F4, Velocity: 41
Note OFF: Time 129000, Note Name: F4
Note ON: Time 129000, Note Name: C#4, Velocity: 41
Note OFF: Time 129120, Note Name: C#4
Note OFF: Time 129120, Note Name: A3
Note ON: Time 129120, Note Name: A#3, Velocity: 54
Note ON: Time 129240, Note Name: C#4, Velocity: 40
Note OFF: Time 129360, Note Name: C#4
Note ON: Time 129360, Note Name: F4, Velocity: 40
Note OFF: Time 129480, Note Name: F4
Note ON: Time 129480, Note Name: C#4, Velocity: 40
Note OFF: Time 129600, Note Name: C#4
Note OFF: Time 129600, Note Name: A#3
Note ON: Time 129600, Note Name: C#3, Velocity: 49
Note OFF: Time 129720, Note Name: C#3
Note ON: Time 129720, Note Name: F4, Velocity: 50
Note OFF: Time 129840, Note Name: F4
Note ON: Time 130080, Note Name: A#3, Velocity: 65
Note ON: Time 130200, Note Name: C#4, Velocity: 43
Note OFF: Time 130320, Note Name: C#4
Note ON: Time 130320, Note Name: F4, Velocity: 45
Note OFF: Time 130440, Note Name: F4
Note ON: Time 130440, Note Name: C#4, Velocity: 45
Note OFF: Time 130560, Note Name: C#4
Note OFF: Time 130560, Note Name: A#3
Note ON: Time 130560, Note Name: A3, Velocity: 70
Note ON: Time 130680, Note Name: C#4, Velocity: 47
Note OFF: Time 130800, Note Name: C#4
Note ON: Time 130800, Note Name: F4, Velocity: 46
Note OFF: Time 130920, Note Name: F4
Note ON: Time 130920, Note Name: C#4, Velocity: 47
Note OFF: Time 131040, Note Name: C#4
Note OFF: Time 131040, Note Name: A3
Note ON: Time 131040, Note Name: A#3, Velocity: 72
Note ON: Time 131160, Note Name: C#4, Velocity: 46
Note OFF: Time 131280, Note Name: C#4
Note ON: Time 131280, Note Name: F4, Velocity: 47
Note OFF: Time 131400, Note Name: F4
Note ON: Time 131400, Note Name: C#4, Velocity: 46
Note OFF: Time 131520, Note Name: C#4
Note OFF: Time 131520, Note Name: A#3
Note ON: Time 131520, Note Name: D#3, Velocity: 70
Note OFF: Time 131640, Note Name: D#3
Note ON: Time 131640, Note Name: F#4, Velocity: 55
Note ON: Time 131640, Note Name: B4, Velocity: 55
Note OFF: Time 131760, Note Name: B4
Note OFF: Time 131760, Note Name: F#4
Note ON: Time 131760, Note Name: D#4, Velocity: 59
Note OFF: Time 131880, Note Name: D#4
Note ON: Time 131880, Note Name: F#4, Velocity: 55
Note ON: Time 131880, Note Name: B4, Velocity: 55
Note OFF: Time 132000, Note Name: B4
Note OFF: Time 132000, Note Name: F#4
Note ON: Time 132000, Note Name: D#4, Velocity: 59
Note OFF: Time 132120, Note Name: D#4
Note ON: Time 132120, Note Name: F#4, Velocity: 55
Note ON: Time 132120, Note Name: B4, Velocity: 55
Note OFF: Time 132240, Note Name: B4
Note OFF: Time 132240, Note Name: F#4
Note ON: Time 132240, Note Name: D#4, Velocity: 59
Note OFF: Time 132360, Note Name: D#4
Note ON: Time 132360, Note Name: F#4, Velocity: 56
Note ON: Time 132360, Note Name: B4, Velocity: 56
Note OFF: Time 132480, Note Name: B4
Note OFF: Time 132480, Note Name: F#4
Note ON: Time 132480, Note Name: D#4, Velocity: 59
Note OFF: Time 132600, Note Name: D#4
Note ON: Time 132600, Note Name: F#4, Velocity: 55
Note ON: Time 132600, Note Name: B4, Velocity: 55
Note OFF: Time 132720, Note Name: B4
Note OFF: Time 132720, Note Name: F#4
Note ON: Time 132720, Note Name: D#4, Velocity: 59
Note OFF: Time 132840, Note Name: D#4
Note ON: Time 132840, Note Name: F#4, Velocity: 55
Note ON: Time 132840, Note Name: B4, Velocity: 55
Note OFF: Time 132960, Note Name: B4
Note OFF: Time 132960, Note Name: F#4
Note ON: Time 132960, Note Name: D#4, Velocity: 59
Note OFF: Time 133080, Note Name: D#4
Note ON: Time 133080, Note Name: F#4, Velocity: 55
Note ON: Time 133080, Note Name: B4, Velocity: 55
Note OFF: Time 133200, Note Name: B4
Note OFF: Time 133200, Note Name: F#4
Note ON: Time 133200, Note Name: D#4, Velocity: 59
Note OFF: Time 133320, Note Name: D#4
Note ON: Time 133320, Note Name: F#4, Velocity: 56
Note ON: Time 133320, Note Name: B4, Velocity: 56
Note OFF: Time 133440, Note Name: B4
Note OFF: Time 133440, Note Name: F#4
Note ON: Time 133440, Note Name: F4, Velocity: 59
Note OFF: Time 133560, Note Name: F4
Note ON: Time 133560, Note Name: A4, Velocity: 55
Note ON: Time 133560, Note Name: C5, Velocity: 55
Note ON: Time 133560, Note Name: D#5, Velocity: 55
Note OFF: Time 133680, Note Name: D#5
Note OFF: Time 133680, Note Name: C5
Note OFF: Time 133680, Note Name: A4
Note ON: Time 133680, Note Name: F4, Velocity: 59
Note OFF: Time 133800, Note Name: F4
Note ON: Time 133800, Note Name: A4, Velocity: 55
Note ON: Time 133800, Note Name: C5, Velocity: 55
Note ON: Time 133800, Note Name: D#5, Velocity: 55
Note OFF: Time 133920, Note Name: D#5
Note OFF: Time 133920, Note Name: C5
Note OFF: Time 133920, Note Name: A4
Note ON: Time 133920, Note Name: F4, Velocity: 59
Note OFF: Time 134040, Note Name: F4
Note ON: Time 134040, Note Name: A4, Velocity: 55
Note ON: Time 134040, Note Name: C5, Velocity: 55
Note ON: Time 134040, Note Name: D#5, Velocity: 55
Note OFF: Time 134160, Note Name: D#5
Note OFF: Time 134160, Note Name: C5
Note OFF: Time 134160, Note Name: A4
Note ON: Time 134160, Note Name: F4, Velocity: 59
Note OFF: Time 134280, Note Name: F4
Note ON: Time 134280, Note Name: A4, Velocity: 55
Note ON: Time 134280, Note Name: C5, Velocity: 56
Note ON: Time 134280, Note Name: D#5, Velocity: 56
Note OFF: Time 134400, Note Name: D#5
Note OFF: Time 134400, Note Name: C5
Note OFF: Time 134400, Note Name: A4
Note ON: Time 134400, Note Name: F4, Velocity: 59
Note OFF: Time 134520, Note Name: F4
Note ON: Time 134520, Note Name: A4, Velocity: 55
Note OFF: Time 134640, Note Name: A4
Note ON: Time 134640, Note Name: F4, Velocity: 59
Note OFF: Time 134760, Note Name: F4
Note ON: Time 134760, Note Name: A4, Velocity: 55
Note OFF: Time 134880, Note Name: A4
Note ON: Time 134880, Note Name: F3, Velocity: 59
Note OFF: Time 135000, Note Name: F3
Note ON: Time 135000, Note Name: F4, Velocity: 50
Note OFF: Time 135120, Note Name: F4
Note ON: Time 135120, Note Name: F3, Velocity: 57
Note OFF: Time 135240, Note Name: F3
Note ON: Time 135240, Note Name: F4, Velocity: 49
Note OFF: Time 135360, Note Name: F4
Note ON: Time 135360, Note Name: A#2, Velocity: 59
Note OFF: Time 135600, Note Name: A#2
Note ON: Time 135600, Note Name: A#3, Velocity: 44
Note ON: Time 135600, Note Name: C#4, Velocity: 44
Note OFF: Time 135720, Note Name: C#4
Note OFF: Time 135720, Note Name: A#3
Note ON: Time 135720, Note Name: F4, Velocity: 38
Note OFF: Time 135840, Note Name: F4
Note ON: Time 135840, Note Name: A#3, Velocity: 44
Note ON: Time 135840, Note Name: C#4, Velocity: 44
Note OFF: Time 135960, Note Name: C#4
Note OFF: Time 135960, Note Name: A#3
Note ON: Time 135960, Note Name: F4, Velocity: 38
Note OFF: Time 136080, Note Name: F4
Note ON: Time 136080, Note Name: C#4, Velocity: 44
Note ON: Time 136080, Note Name: A#3, Velocity: 44
Note OFF: Time 136200, Note Name: A#3
Note OFF: Time 136200, Note Name: C#4
Note ON: Time 136200, Note Name: F4, Velocity: 38
Note OFF: Time 136320, Note Name: F4
Note ON: Time 136320, Note Name: A#3, Velocity: 44
Note ON: Time 136320, Note Name: C#4, Velocity: 44
Note OFF: Time 136440, Note Name: C#4
Note OFF: Time 136440, Note Name: A#3
Note ON: Time 136440, Note Name: F4, Velocity: 38
Note OFF: Time 136560, Note Name: F4
Note ON: Time 136560, Note Name: C#4, Velocity: 44
Note ON: Time 136560, Note Name: A#3, Velocity: 44
Note OFF: Time 136680, Note Name: A#3
Note OFF: Time 136680, Note Name: C#4
Note ON: Time 136680, Note Name: E4, Velocity: 38
Note OFF: Time 136800, Note Name: E4
Note ON: Time 136800, Note Name: A#3, Velocity: 44
Note ON: Time 136800, Note Name: C#4, Velocity: 44
Note OFF: Time 136920, Note Name: C#4
Note OFF: Time 136920, Note Name: A#3
Note ON: Time 136920, Note Name: E4, Velocity: 38
Note OFF: Time 137040, Note Name: E4
Note ON: Time 137040, Note Name: A#3, Velocity: 44
Note ON: Time 137040, Note Name: C#4, Velocity: 44
Note OFF: Time 137160, Note Name: C#4
Note OFF: Time 137160, Note Name: A#3
Note ON: Time 137160, Note Name: E4, Velocity: 38
Note OFF: Time 137280, Note Name: E4
Note ON: Time 137280, Note Name: A3, Velocity: 44
Note ON: Time 137280, Note Name: C4, Velocity: 44
Note OFF: Time 137400, Note Name: C4
Note OFF: Time 137400, Note Name: A3
Note ON: Time 137400, Note Name: E4, Velocity: 38
Note OFF: Time 137520, Note Name: E4
Note ON: Time 137520, Note Name: C4, Velocity: 44
Note ON: Time 137520, Note Name: A3, Velocity: 44
Note OFF: Time 137640, Note Name: A3
Note OFF: Time 137640, Note Name: C4
Note ON: Time 137640, Note Name: F4, Velocity: 38
Note OFF: Time 137760, Note Name: F4
Note ON: Time 137760, Note Name: A3, Velocity: 44
Note ON: Time 137760, Note Name: C4, Velocity: 44
Note OFF: Time 137880, Note Name: C4
Note OFF: Time 137880, Note Name: A3
Note ON: Time 137880, Note Name: F4, Velocity: 38
Note OFF: Time 138000, Note Name: F4
Note ON: Time 138000, Note Name: A3, Velocity: 44
Note ON: Time 138000, Note Name: C4, Velocity: 44
Note OFF: Time 138120, Note Name: C4
Note OFF: Time 138120, Note Name: A3
Note ON: Time 138120, Note Name: F4, Velocity: 38
Note OFF: Time 138240, Note Name: F4
Note ON: Time 138240, Note Name: A3, Velocity: 44
Note ON: Time 138240, Note Name: C4, Velocity: 44
Note OFF: Time 138360, Note Name: C4
Note OFF: Time 138360, Note Name: A3
Note ON: Time 138360, Note Name: F4, Velocity: 38
Note OFF: Time 138480, Note Name: F4
Note ON: Time 138480, Note Name: C4, Velocity: 44
Note ON: Time 138480, Note Name: A3, Velocity: 44
Note OFF: Time 138600, Note Name: A3
Note OFF: Time 138600, Note Name: C4
Note ON: Time 138600, Note Name: F4, Velocity: 38
Note OFF: Time 138720, Note Name: F4
Note ON: Time 138720, Note Name: A3, Velocity: 44
Note ON: Time 138720, Note Name: C4, Velocity: 44
Note OFF: Time 138840, Note Name: C4
Note OFF: Time 138840, Note Name: A3
Note ON: Time 138840, Note Name: F4, Velocity: 38
Note OFF: Time 138960, Note Name: F4
Note ON: Time 138960, Note Name: A3, Velocity: 44
Note ON: Time 138960, Note Name: C4, Velocity: 44
Note OFF: Time 139080, Note Name: C4
Note OFF: Time 139080, Note Name: A3
Note ON: Time 139080, Note Name: F4, Velocity: 38
Note OFF: Time 139200, Note Name: F4
Note ON: Time 139200, Note Name: C#4, Velocity: 44
Note ON: Time 139200, Note Name: A#3, Velocity: 44
Note OFF: Time 139320, Note Name: A#3
Note OFF: Time 139320, Note Name: C#4
Note ON: Time 139320, Note Name: F4, Velocity: 38
Note OFF: Time 139440, Note Name: F4
Note ON: Time 139440, Note Name: A#3, Velocity: 58
Note ON: Time 139440, Note Name: C#4, Velocity: 58
Note OFF: Time 139560, Note Name: C#4
Note OFF: Time 139560, Note Name: A#3
Note ON: Time 139560, Note Name: F4, Velocity: 51
Note OFF: Time 139680, Note Name: F4
Note ON: Time 139680, Note Name: A#3, Velocity: 58
Note ON: Time 139680, Note Name: C#4, Velocity: 58
Note OFF: Time 139800, Note Name: C#4
Note OFF: Time 139800, Note Name: A#3
Note ON: Time 139800, Note Name: F4, Velocity: 51
Note OFF: Time 139920, Note Name: F4
Note ON: Time 139920, Note Name: C#4, Velocity: 58
Note ON: Time 139920, Note Name: A#3, Velocity: 58
Note OFF: Time 140040, Note Name: A#3
Note OFF: Time 140040, Note Name: C#4
Note ON: Time 140040, Note Name: F4, Velocity: 51
Note OFF: Time 140160, Note Name: F4
Note ON: Time 140160, Note Name: A#3, Velocity: 58
Note ON: Time 140160, Note Name: C#4, Velocity: 58
Note OFF: Time 140280, Note Name: C#4
Note OFF: Time 140280, Note Name: A#3
Note ON: Time 140280, Note Name: F4, Velocity: 51
Note OFF: Time 140400, Note Name: F4
Note ON: Time 140400, Note Name: C#4, Velocity: 58
Note ON: Time 140400, Note Name: A#3, Velocity: 58
Note OFF: Time 140520, Note Name: A#3
Note OFF: Time 140520, Note Name: C#4
Note ON: Time 140520, Note Name: E4, Velocity: 51
Note OFF: Time 140640, Note Name: E4
Note ON: Time 140640, Note Name: A#3, Velocity: 58
Note ON: Time 140640, Note Name: C#4, Velocity: 58
Note OFF: Time 140760, Note Name: C#4
Note OFF: Time 140760, Note Name: A#3
Note ON: Time 140760, Note Name: E4, Velocity: 51
Note OFF: Time 140880, Note Name: E4
Note ON: Time 140880, Note Name: A#3, Velocity: 58
Note ON: Time 140880, Note Name: C#4, Velocity: 58
Note OFF: Time 141000, Note Name: C#4
Note OFF: Time 141000, Note Name: A#3
Note ON: Time 141000, Note Name: E4, Velocity: 51
Note OFF: Time 141120, Note Name: E4
Note ON: Time 141120, Note Name: A3, Velocity: 58
Note ON: Time 141120, Note Name: C4, Velocity: 58
Note OFF: Time 141240, Note Name: C4
Note OFF: Time 141240, Note Name: A3
Note ON: Time 141240, Note Name: E4, Velocity: 51
Note OFF: Time 141360, Note Name: E4
Note ON: Time 141360, Note Name: C4, Velocity: 58
Note ON: Time 141360, Note Name: A3, Velocity: 58
Note OFF: Time 141480, Note Name: A3
Note OFF: Time 141480, Note Name: C4
Note ON: Time 141480, Note Name: F4, Velocity: 51
Note OFF: Time 141600, Note Name: F4
Note ON: Time 141600, Note Name: A3, Velocity: 58
Note ON: Time 141600, Note Name: C4, Velocity: 58
Note OFF: Time 141720, Note Name: C4
Note OFF: Time 141720, Note Name: A3
Note ON: Time 141720, Note Name: F4, Velocity: 51
Note OFF: Time 141840, Note Name: F4
Note ON: Time 141840, Note Name: A3, Velocity: 58
Note ON: Time 141840, Note Name: C4, Velocity: 58
Note OFF: Time 141960, Note Name: C4
Note OFF: Time 141960, Note Name: A3
Note ON: Time 141960, Note Name: F4, Velocity: 51
Note OFF: Time 142080, Note Name: F4
Note ON: Time 142080, Note Name: A3, Velocity: 58
Note ON: Time 142080, Note Name: C4, Velocity: 58
Note OFF: Time 142200, Note Name: C4
Note OFF: Time 142200, Note Name: A3
Note ON: Time 142200, Note Name: F4, Velocity: 51
Note OFF: Time 142320, Note Name: F4
Note ON: Time 142320, Note Name: C4, Velocity: 58
Note ON: Time 142320, Note Name: A3, Velocity: 58
Note OFF: Time 142440, Note Name: A3
Note OFF: Time 142440, Note Name: C4
Note ON: Time 142440, Note Name: F4, Velocity: 51
Note OFF: Time 142560, Note Name: F4
Note ON: Time 142560, Note Name: A3, Velocity: 58
Note ON: Time 142560, Note Name: C4, Velocity: 58
Note OFF: Time 142680, Note Name: C4
Note OFF: Time 142680, Note Name: A3
Note ON: Time 142680, Note Name: F4, Velocity: 51
Note OFF: Time 142800, Note Name: F4
Note ON: Time 142800, Note Name: A3, Velocity: 58
Note ON: Time 142800, Note Name: C4, Velocity: 58
Note OFF: Time 142920, Note Name: C4
Note OFF: Time 142920, Note Name: A3
Note ON: Time 142920, Note Name: F4, Velocity: 51
Note OFF: Time 143040, Note Name: F4
Note ON: Time 143040, Note Name: C#4, Velocity: 58
Note ON: Time 143040, Note Name: A#3, Velocity: 58
Note OFF: Time 143160, Note Name: A#3
Note OFF: Time 143160, Note Name: C#4
Note ON: Time 143160, Note Name: F4, Velocity: 51
Note OFF: Time 143280, Note Name: F4
Note ON: Time 143280, Note Name: E3, Velocity: 44
Note ON: Time 143280, Note Name: G3, Velocity: 44
Note OFF: Time 143400, Note Name: G3
Note OFF: Time 143400, Note Name: E3
Note ON: Time 143400, Note Name: C4, Velocity: 38
Note OFF: Time 143520, Note Name: C4
Note ON: Time 143520, Note Name: E3, Velocity: 44
Note ON: Time 143520, Note Name: G3, Velocity: 44
Note OFF: Time 143640, Note Name: G3
Note OFF: Time 143640, Note Name: E3
Note ON: Time 143640, Note Name: C4, Velocity: 38
Note OFF: Time 143760, Note Name: C4
Note ON: Time 143760, Note Name: G3, Velocity: 44
Note ON: Time 143760, Note Name: E3, Velocity: 44
Note OFF: Time 143880, Note Name: E3
Note OFF: Time 143880, Note Name: G3
Note ON: Time 143880, Note Name: C4, Velocity: 38
Note OFF: Time 144000, Note Name: C4
Note ON: Time 144000, Note Name: F3, Velocity: 44
Note ON: Time 144000, Note Name: G#3, Velocity: 44
Note OFF: Time 144120, Note Name: G#3
Note OFF: Time 144120, Note Name: F3
Note ON: Time 144120, Note Name: C4, Velocity: 38
Note OFF: Time 144240, Note Name: C4
Note ON: Time 144240, Note Name: G#3, Velocity: 44
Note ON: Time 144240, Note Name: F3, Velocity: 44
Note OFF: Time 144360, Note Name: F3
Note OFF: Time 144360, Note Name: G#3
Note ON: Time 144360, Note Name: D4, Velocity: 38
Note OFF: Time 144480, Note Name: D4
Note ON: Time 144480, Note Name: F3, Velocity: 44
Note ON: Time 144480, Note Name: G#3, Velocity: 44
Note OFF: Time 144600, Note Name: G#3
Note OFF: Time 144600, Note Name: F3
Note ON: Time 144600, Note Name: D4, Velocity: 38
Note OFF: Time 144720, Note Name: D4
Note ON: Time 144720, Note Name: F3, Velocity: 44
Note ON: Time 144720, Note Name: G#3, Velocity: 44
Note OFF: Time 144840, Note Name: G#3
Note OFF: Time 144840, Note Name: F3
Note ON: Time 144840, Note Name: D4, Velocity: 38
Note OFF: Time 144960, Note Name: D4
Note ON: Time 144960, Note Name: E3, Velocity: 44
Note ON: Time 144960, Note Name: G3, Velocity: 44
Note OFF: Time 145080, Note Name: G3
Note OFF: Time 145080, Note Name: E3
Note ON: Time 145080, Note Name: D4, Velocity: 38
Note OFF: Time 145200, Note Name: D4
Note ON: Time 145200, Note Name: G3, Velocity: 44
Note ON: Time 145200, Note Name: E3, Velocity: 44
Note OFF: Time 145320, Note Name: E3
Note OFF: Time 145320, Note Name: G3
Note ON: Time 145320, Note Name: C4, Velocity: 38
Note OFF: Time 145440, Note Name: C4
Note ON: Time 145440, Note Name: E3, Velocity: 44
Note ON: Time 145440, Note Name: G3, Velocity: 44
Note OFF: Time 145560, Note Name: G3
Note OFF: Time 145560, Note Name: E3
Note ON: Time 145560, Note Name: C4, Velocity: 38
Note OFF: Time 145680, Note Name: C4
Note ON: Time 145680, Note Name: E3, Velocity: 44
Note ON: Time 145680, Note Name: G3, Velocity: 44
Note OFF: Time 145800, Note Name: G3
Note OFF: Time 145800, Note Name: E3
Note ON: Time 145800, Note Name: C4, Velocity: 38
Note OFF: Time 145920, Note Name: C4
Note ON: Time 145920, Note Name: E3, Velocity: 44
Note ON: Time 145920, Note Name: G3, Velocity: 44
Note OFF: Time 146040, Note Name: G3
Note OFF: Time 146040, Note Name: E3
Note ON: Time 146040, Note Name: C4, Velocity: 38
Note OFF: Time 146160, Note Name: C4
Note ON: Time 146160, Note Name: G3, Velocity: 44
Note ON: Time 146160, Note Name: E3, Velocity: 44
Note OFF: Time 146280, Note Name: E3
Note OFF: Time 146280, Note Name: G3
Note ON: Time 146280, Note Name: C4, Velocity: 38
Note OFF: Time 146400, Note Name: C4
Note ON: Time 146400, Note Name: E3, Velocity: 44
Note ON: Time 146400, Note Name: G3, Velocity: 44
Note OFF: Time 146520, Note Name: G3
Note OFF: Time 146520, Note Name: E3
Note ON: Time 146520, Note Name: C4, Velocity: 38
Note OFF: Time 146640, Note Name: C4
Note ON: Time 146640, Note Name: E3, Velocity: 44
Note ON: Time 146640, Note Name: G3, Velocity: 44
Note OFF: Time 146760, Note Name: G3
Note OFF: Time 146760, Note Name: E3
Note ON: Time 146760, Note Name: C4, Velocity: 38
Note OFF: Time 146880, Note Name: C4
Note ON: Time 146880, Note Name: G#3, Velocity: 44
Note ON: Time 146880, Note Name: F3, Velocity: 44
Note OFF: Time 147000, Note Name: F3
Note OFF: Time 147000, Note Name: G#3
Note ON: Time 147000, Note Name: C4, Velocity: 38
Note OFF: Time 147120, Note Name: C4
Note ON: Time 147120, Note Name: G#3, Velocity: 58
Note ON: Time 147120, Note Name: F3, Velocity: 58
Note OFF: Time 147240, Note Name: F3
Note OFF: Time 147240, Note Name: G#3
Note ON: Time 147240, Note Name: C4, Velocity: 51
Note OFF: Time 147360, Note Name: C4
Note ON: Time 147360, Note Name: G#3, Velocity: 58
Note ON: Time 147360, Note Name: F3, Velocity: 58
Note OFF: Time 147480, Note Name: F3
Note OFF: Time 147480, Note Name: G#3
Note ON: Time 147480, Note Name: C4, Velocity: 51
Note OFF: Time 147600, Note Name: C4
Note ON: Time 147600, Note Name: G#3, Velocity: 58
Note ON: Time 147600, Note Name: F3, Velocity: 58
Note OFF: Time 147720, Note Name: F3
Note OFF: Time 147720, Note Name: G#3
Note ON: Time 147720, Note Name: C4, Velocity: 51
Note OFF: Time 147840, Note Name: C4
Note ON: Time 147840, Note Name: G#3, Velocity: 58
Note ON: Time 147840, Note Name: F3, Velocity: 58
Note OFF: Time 147960, Note Name: F3
Note OFF: Time 147960, Note Name: G#3
Note ON: Time 147960, Note Name: C4, Velocity: 51
Note OFF: Time 148080, Note Name: C4
Note ON: Time 148080, Note Name: G#3, Velocity: 58
Note ON: Time 148080, Note Name: F3, Velocity: 58
Note OFF: Time 148200, Note Name: F3
Note OFF: Time 148200, Note Name: G#3
Note ON: Time 148200, Note Name: D4, Velocity: 51
Note OFF: Time 148320, Note Name: D4
Note ON: Time 148320, Note Name: G#3, Velocity: 58
Note ON: Time 148320, Note Name: F3, Velocity: 58
Note OFF: Time 148440, Note Name: F3
Note OFF: Time 148440, Note Name: G#3
Note ON: Time 148440, Note Name: D4, Velocity: 51
Note OFF: Time 148560, Note Name: D4
Note ON: Time 148560, Note Name: F3, Velocity: 58
Note ON: Time 148560, Note Name: G#3, Velocity: 58
Note OFF: Time 148680, Note Name: G#3
Note OFF: Time 148680, Note Name: F3
Note ON: Time 148680, Note Name: D4, Velocity: 51
Note OFF: Time 148800, Note Name: D4
Note ON: Time 148800, Note Name: G3, Velocity: 58
Note ON: Time 148800, Note Name: E3, Velocity: 58
Note OFF: Time 148920, Note Name: E3
Note OFF: Time 148920, Note Name: G3
Note ON: Time 148920, Note Name: D4, Velocity: 51
Note OFF: Time 149040, Note Name: D4
Note ON: Time 149040, Note Name: E3, Velocity: 58
Note ON: Time 149040, Note Name: G3, Velocity: 58
Note OFF: Time 149160, Note Name: G3
Note OFF: Time 149160, Note Name: E3
Note ON: Time 149160, Note Name: C4, Velocity: 51
Note OFF: Time 149280, Note Name: C4
Note ON: Time 149280, Note Name: E3, Velocity: 58
Note ON: Time 149280, Note Name: G3, Velocity: 58
Note OFF: Time 149400, Note Name: G3
Note OFF: Time 149400, Note Name: E3
Note ON: Time 149400, Note Name: C4, Velocity: 51
Note OFF: Time 149520, Note Name: C4
Note ON: Time 149520, Note Name: E3, Velocity: 58
Note ON: Time 149520, Note Name: G3, Velocity: 58
Note OFF: Time 149640, Note Name: G3
Note OFF: Time 149640, Note Name: E3
Note ON: Time 149640, Note Name: C4, Velocity: 51
Note OFF: Time 149760, Note Name: C4
Note ON: Time 149760, Note Name: G3, Velocity: 58
Note ON: Time 149760, Note Name: E3, Velocity: 58
Note OFF: Time 149880, Note Name: E3
Note OFF: Time 149880, Note Name: G3
Note ON: Time 149880, Note Name: C4, Velocity: 51
Note OFF: Time 150000, Note Name: C4
Note ON: Time 150000, Note Name: G3, Velocity: 58
Note ON: Time 150000, Note Name: E3, Velocity: 58
Note OFF: Time 150120, Note Name: E3
Note OFF: Time 150120, Note Name: G3
Note ON: Time 150120, Note Name: C4, Velocity: 51
Note OFF: Time 150240, Note Name: C4
Note ON: Time 150240, Note Name: G3, Velocity: 58
Note ON: Time 150240, Note Name: E3, Velocity: 58
Note OFF: Time 150360, Note Name: E3
Note OFF: Time 150360, Note Name: G3
Note ON: Time 150360, Note Name: C4, Velocity: 51
Note OFF: Time 150480, Note Name: C4
Note ON: Time 150480, Note Name: G3, Velocity: 58
Note ON: Time 150480, Note Name: E3, Velocity: 58
Note OFF: Time 150600, Note Name: E3
Note OFF: Time 150600, Note Name: G3
Note ON: Time 150600, Note Name: C4, Velocity: 51
Note OFF: Time 150720, Note Name: C4
Note ON: Time 150720, Note Name: G#2, Velocity: 61
Note ON: Time 150720, Note Name: C3, Velocity: 61
Note ON: Time 150720, Note Name: F3, Velocity: 72
Note ON: Time 150720, Note Name: F2, Velocity: 61
Note OFF: Time 151200, Note Name: F2
Note OFF: Time 151200, Note Name: G#2
Note OFF: Time 151200, Note Name: C3
Note OFF: Time 151200, Note Name: F3
Note ON: Time 151320, Note Name: C3, Velocity: 56
Note OFF: Time 151440, Note Name: C3
Note ON: Time 151440, Note Name: F3, Velocity: 58
Note OFF: Time 151560, Note Name: F3
Note ON: Time 151560, Note Name: G#3, Velocity: 60
Note OFF: Time 151680, Note Name: G#3
Note ON: Time 151680, Note Name: C4, Velocity: 66
Note OFF: Time 151800, Note Name: C4
Note ON: Time 151800, Note Name: C#4, Velocity: 60
Note OFF: Time 151920, Note Name: C#4
Note ON: Time 151920, Note Name: C4, Velocity: 61
Note OFF: Time 152040, Note Name: C4
Note ON: Time 152040, Note Name: A#3, Velocity: 61
Note OFF: Time 152160, Note Name: A#3
Note ON: Time 152160, Note Name: G#3, Velocity: 67
Note OFF: Time 152280, Note Name: G#3
Note ON: Time 152280, Note Name: A#3, Velocity: 60
Note OFF: Time 152400, Note Name: A#3
Note ON: Time 152400, Note Name: C4, Velocity: 60
Note OFF: Time 152520, Note Name: C4
Note ON: Time 152520, Note Name: G#3, Velocity: 60
Note OFF: Time 152640, Note Name: G#3
Note ON: Time 152640, Note Name: A#3, Velocity: 72
Note OFF: Time 152760, Note Name: A#3
Note ON: Time 152760, Note Name: C4, Velocity: 60
Note OFF: Time 152880, Note Name: C4
Note ON: Time 152880, Note Name: A#3, Velocity: 60
Note OFF: Time 153000, Note Name: A#3
Note ON: Time 153000, Note Name: G#3, Velocity: 60
Note OFF: Time 153120, Note Name: G#3
Note ON: Time 153120, Note Name: F#3, Velocity: 68
Note OFF: Time 153240, Note Name: F#3
Note ON: Time 153240, Note Name: C#3, Velocity: 57
Note OFF: Time 153360, Note Name: C#3
Note ON: Time 153360, Note Name: F#3, Velocity: 60
Note OFF: Time 153480, Note Name: F#3
Note ON: Time 153480, Note Name: A#3, Velocity: 62
Note OFF: Time 153600, Note Name: A#3
Note ON: Time 153600, Note Name: C#4, Velocity: 69
Note OFF: Time 153720, Note Name: C#4
Note ON: Time 153720, Note Name: D#4, Velocity: 63
Note OFF: Time 153840, Note Name: D#4
Note ON: Time 153840, Note Name: C#4, Velocity: 63
Note OFF: Time 153960, Note Name: C#4
Note ON: Time 153960, Note Name: C4, Velocity: 63
Note OFF: Time 154080, Note Name: C4
Note ON: Time 154080, Note Name: A#3, Velocity: 69
Note OFF: Time 154200, Note Name: A#3
Note ON: Time 154200, Note Name: C4, Velocity: 62
Note OFF: Time 154320, Note Name: C4
Note ON: Time 154320, Note Name: C#4, Velocity: 62
Note OFF: Time 154440, Note Name: C#4
Note ON: Time 154440, Note Name: A#3, Velocity: 62
Note OFF: Time 154560, Note Name: A#3
Note ON: Time 154560, Note Name: C4, Velocity: 74
Note OFF: Time 154680, Note Name: C4
Note ON: Time 154680, Note Name: C#4, Velocity: 62
Note OFF: Time 154800, Note Name: C#4
Note ON: Time 154800, Note Name: C4, Velocity: 63
Note OFF: Time 154920, Note Name: C4
Note ON: Time 154920, Note Name: A#3, Velocity: 63
Note OFF: Time 155040, Note Name: A#3
Note ON: Time 155040, Note Name: A3, Velocity: 70
Note OFF: Time 155160, Note Name: A3
Note ON: Time 155160, Note Name: D#3, Velocity: 59
Note OFF: Time 155280, Note Name: D#3
Note ON: Time 155280, Note Name: A3, Velocity: 62
Note OFF: Time 155400, Note Name: A3
Note ON: Time 155400, Note Name: C4, Velocity: 65
Note OFF: Time 155520, Note Name: C4
Note ON: Time 155520, Note Name: D#4, Velocity: 71
Note OFF: Time 155640, Note Name: D#4
Note ON: Time 155640, Note Name: F4, Velocity: 65
Note OFF: Time 155760, Note Name: F4
Note ON: Time 155760, Note Name: D#4, Velocity: 65
Note OFF: Time 155880, Note Name: D#4
Note ON: Time 155880, Note Name: C#4, Velocity: 65
Note OFF: Time 156000, Note Name: C#4
Note ON: Time 156000, Note Name: C4, Velocity: 72
Note OFF: Time 156120, Note Name: C4
Note ON: Time 156120, Note Name: C#4, Velocity: 64
Note OFF: Time 156240, Note Name: C#4
Note ON: Time 156240, Note Name: D#4, Velocity: 64
Note OFF: Time 156360, Note Name: D#4
Note ON: Time 156360, Note Name: C4, Velocity: 64
Note OFF: Time 156480, Note Name: C4
Note ON: Time 156480, Note Name: C#4, Velocity: 70
Note OFF: Time 156600, Note Name: C#4
Note ON: Time 156600, Note Name: F3, Velocity: 59
Note OFF: Time 156720, Note Name: F3
Note ON: Time 156720, Note Name: A#3, Velocity: 63
Note OFF: Time 156840, Note Name: A#3
Note ON: Time 156840, Note Name: C#4, Velocity: 66
Note OFF: Time 156960, Note Name: C#4
Note ON: Time 156960, Note Name: F4, Velocity: 65
Note OFF: Time 157080, Note Name: F4
Note ON: Time 157080, Note Name: F#4, Velocity: 65
Note OFF: Time 157200, Note Name: F#4
Note ON: Time 157200, Note Name: F4, Velocity: 65
Note OFF: Time 157320, Note Name: F4
Note ON: Time 157320, Note Name: D#4, Velocity: 64
Note OFF: Time 157440, Note Name: D#4
Note ON: Time 157440, Note Name: C#4, Velocity: 64
Note OFF: Time 157560, Note Name: C#4
Note ON: Time 157560, Note Name: C4, Velocity: 64
Note OFF: Time 157680, Note Name: C4
Note ON: Time 157680, Note Name: A#3, Velocity: 63
Note OFF: Time 157800, Note Name: A#3
Note ON: Time 157800, Note Name: G#3, Velocity: 63
Note OFF: Time 157920, Note Name: G#3
Note ON: Time 157920, Note Name: F#3, Velocity: 62
Note OFF: Time 158040, Note Name: F#3
Note ON: Time 158040, Note Name: F3, Velocity: 62
Note OFF: Time 158160, Note Name: F3
Note ON: Time 158160, Note Name: D#3, Velocity: 62
Note OFF: Time 158280, Note Name: D#3
Note ON: Time 158280, Note Name: C#3, Velocity: 61
Note OFF: Time 158400, Note Name: C#3
Note ON: Time 158400, Note Name: C3, Velocity: 61
Note OFF: Time 158520, Note Name: C3
Note ON: Time 158520, Note Name: A#2, Velocity: 61
Note OFF: Time 158640, Note Name: A#2
Note ON: Time 158640, Note Name: G#2, Velocity: 60
Note OFF: Time 158760, Note Name: G#2
Note ON: Time 158760, Note Name: F#2, Velocity: 60
Note OFF: Time 158880, Note Name: F#2
Note ON: Time 158880, Note Name: F2, Velocity: 59
Note OFF: Time 159000, Note Name: F2
Note ON: Time 159000, Note Name: D#2, Velocity: 59
Note OFF: Time 159120, Note Name: D#2
Note ON: Time 159120, Note Name: C#2, Velocity: 59
Note OFF: Time 159240, Note Name: C#2
Note ON: Time 159240, Note Name: C2, Velocity: 59
Note OFF: Time 159360, Note Name: C2
Note ON: Time 159360, Note Name: A#1, Velocity: 59
Note OFF: Time 159480, Note Name: A#1
Note ON: Time 159480, Note Name: C2, Velocity: 59
Note OFF: Time 159600, Note Name: C2
Note ON: Time 159600, Note Name: C#2, Velocity: 62
Note OFF: Time 159720, Note Name: C#2
Note ON: Time 159720, Note Name: C2, Velocity: 64
Note OFF: Time 159840, Note Name: C2
Note ON: Time 159840, Note Name: A#1, Velocity: 65
Note OFF: Time 160080, Note Name: A#1
Note ON: Time 160080, Note Name: B1, Velocity: 72
Note OFF: Time 160320, Note Name: B1
Note ON: Time 160320, Note Name: C2, Velocity: 89
Note OFF: Time 160440, Note Name: C2
Note ON: Time 160560, Note Name: E2, Velocity: 76
Note OFF: Time 160680, Note Name: E2
Note ON: Time 160800, Note Name: C2, Velocity: 76
Note OFF: Time 160920, Note Name: C2
Note ON: Time 161040, Note Name: F2, Velocity: 76
Note OFF: Time 161160, Note Name: F2
Note ON: Time 161280, Note Name: C2, Velocity: 76
Note OFF: Time 161400, Note Name: C2
Note ON: Time 161520, Note Name: G2, Velocity: 76
Note OFF: Time 161640, Note Name: G2
Note ON: Time 161760, Note Name: C2, Velocity: 76
Note OFF: Time 161880, Note Name: C2
Note ON: Time 162000, Note Name: G#2, Velocity: 76
Note OFF: Time 162120, Note Name: G#2
Note ON: Time 162240, Note Name: C2, Velocity: 74
Note OFF: Time 162360, Note Name: C2
Note ON: Time 162480, Note Name: A#2, Velocity: 74
Note OFF: Time 162600, Note Name: A#2
Note ON: Time 162720, Note Name: C2, Velocity: 75
Note OFF: Time 162840, Note Name: C2
Note ON: Time 162960, Note Name: G#2, Velocity: 76
Note OFF: Time 163080, Note Name: G#2
Note ON: Time 163200, Note Name: C2, Velocity: 77
Note OFF: Time 163320, Note Name: C2
Note ON: Time 163440, Note Name: G2, Velocity: 78
Note OFF: Time 163560, Note Name: G2
Note ON: Time 163680, Note Name: C2, Velocity: 79
Note OFF: Time 163800, Note Name: C2
Note ON: Time 163920, Note Name: F2, Velocity: 80
Note OFF: Time 164040, Note Name: F2
Note ON: Time 164160, Note Name: C2, Velocity: 81
Note OFF: Time 164280, Note Name: C2
Note ON: Time 164400, Note Name: E2, Velocity: 82
Note OFF: Time 164520, Note Name: E2
Note ON: Time 164640, Note Name: C2, Velocity: 82
Note OFF: Time 164760, Note Name: C2
Note ON: Time 164880, Note Name: F2, Velocity: 83
Note OFF: Time 165000, Note Name: F2
Note ON: Time 165120, Note Name: C2, Velocity: 84
Note OFF: Time 165240, Note Name: C2
Note ON: Time 165360, Note Name: G2, Velocity: 85
Note OFF: Time 165480, Note Name: G2
Note ON: Time 165600, Note Name: C2, Velocity: 86
Note OFF: Time 165720, Note Name: C2
Note ON: Time 165840, Note Name: G#2, Velocity: 87
Note OFF: Time 165960, Note Name: G#2
Note ON: Time 166080, Note Name: C2, Velocity: 88
Note OFF: Time 166200, Note Name: C2
Note ON: Time 166320, Note Name: A2, Velocity: 89
Note OFF: Time 166440, Note Name: A2
Note ON: Time 166560, Note Name: C2, Velocity: 91
Note OFF: Time 166680, Note Name: C2
Note ON: Time 166800, Note Name: A#2, Velocity: 92
Note OFF: Time 166920, Note Name: A#2
Note ON: Time 167040, Note Name: C2, Velocity: 94
Note OFF: Time 167160, Note Name: C2
Note ON: Time 167280, Note Name: B2, Velocity: 96
Note OFF: Time 167400, Note Name: B2
Note ON: Time 167520, Note Name: C2, Velocity: 99
Note OFF: Time 167640, Note Name: C2
Note ON: Time 167760, Note Name: C3, Velocity: 101
Note OFF: Time 167880, Note Name: C3
Note ON: Time 168000, Note Name: A#1, Velocity: 86
Note ON: Time 168000, Note Name: F#2, Velocity: 86
Note ON: Time 168000, Note Name: C#2, Velocity: 86
Note ON: Time 168000, Note Name: A#2, Velocity: 102
Note ON: Time 168120, Note Name: C#3, Velocity: 72
Note OFF: Time 168240, Note Name: C#3
Note OFF: Time 168240, Note Name: C#2
Note OFF: Time 168240, Note Name: A#1
Note OFF: Time 168240, Note Name: F#2
Note OFF: Time 168240, Note Name: A#2
Note ON: Time 168240, Note Name: F#3, Velocity: 75
Note OFF: Time 168360, Note Name: F#3
Note ON: Time 168360, Note Name: A#3, Velocity: 76
Note OFF: Time 168480, Note Name: A#3
Note ON: Time 168480, Note Name: C#4, Velocity: 90
Note OFF: Time 168600, Note Name: C#4
Note ON: Time 168600, Note Name: A#2, Velocity: 71
Note OFF: Time 168720, Note Name: A#2
Note ON: Time 168720, Note Name: C#3, Velocity: 74
Note OFF: Time 168840, Note Name: C#3
Note ON: Time 168840, Note Name: F#3, Velocity: 76
Note OFF: Time 168960, Note Name: F#3
Note ON: Time 168960, Note Name: A#3, Velocity: 91
Note OFF: Time 169080, Note Name: A#3
Note ON: Time 169560, Note Name: A#3, Velocity: 73
Note OFF: Time 169680, Note Name: A#3
Note ON: Time 169680, Note Name: C#4, Velocity: 76
Note OFF: Time 169800, Note Name: C#4
Note ON: Time 169800, Note Name: F#4, Velocity: 78
Note OFF: Time 169920, Note Name: F#4
Note ON: Time 169920, Note Name: A#4, Velocity: 86
Note OFF: Time 170040, Note Name: A#4
Note ON: Time 171840, Note Name: C2, Velocity: 79
Note ON: Time 171840, Note Name: A#2, Velocity: 94
Note ON: Time 171840, Note Name: G2, Velocity: 79
Note ON: Time 171840, Note Name: C3, Velocity: 97
Note ON: Time 171960, Note Name: E3, Velocity: 72
Note OFF: Time 172080, Note Name: E3
Note OFF: Time 172080, Note Name: G2
Note OFF: Time 172080, Note Name: C2
Note OFF: Time 172080, Note Name: A#2
Note OFF: Time 172080, Note Name: C3
Note ON: Time 172080, Note Name: G3, Velocity: 75
Note OFF: Time 172200, Note Name: G3
Note ON: Time 172200, Note Name: A#3, Velocity: 76
Note OFF: Time 172320, Note Name: A#3
Note ON: Time 172440, Note Name: C3, Velocity: 71
Note OFF: Time 172560, Note Name: C3
Note ON: Time 172560, Note Name: G3, Velocity: 74
Note OFF: Time 172680, Note Name: G3
Note ON: Time 172680, Note Name: A#3, Velocity: 76
Note OFF: Time 172800, Note Name: A#3
Note ON: Time 172800, Note Name: C4, Velocity: 90
Note OFF: Time 172920, Note Name: C4
Note ON: Time 173400, Note Name: C4, Velocity: 73
Note OFF: Time 173520, Note Name: C4
Note ON: Time 173520, Note Name: G4, Velocity: 76
Note OFF: Time 173640, Note Name: G4
Note ON: Time 173640, Note Name: A#4, Velocity: 78
Note OFF: Time 173760, Note Name: A#4
Note ON: Time 173760, Note Name: C5, Velocity: 89
Note OFF: Time 173880, Note Name: C5
Note ON: Time 175680, Note Name: C#2, Velocity: 58
Note OFF: Time 175840, Note Name: C#2
Note ON: Time 175840, Note Name: C#3, Velocity: 50
Note OFF: Time 176000, Note Name: C#3
Note ON: Time 176000, Note Name: E3, Velocity: 50
Note OFF: Time 176160, Note Name: E3
Note ON: Time 176160, Note Name: G3, Velocity: 50
Note OFF: Time 176280, Note Name: G3
Note ON: Time 176280, Note Name: A#3, Velocity: 54
Note OFF: Time 176400, Note Name: A#3
Note ON: Time 177600, Note Name: E2, Velocity: 55
Note OFF: Time 177760, Note Name: E2
Note ON: Time 177760, Note Name: E3, Velocity: 47
Note OFF: Time 177920, Note Name: E3
Note ON: Time 177920, Note Name: G3, Velocity: 47
Note OFF: Time 178080, Note Name: G3
Note ON: Time 179520, Note Name: G2, Velocity: 52
Note OFF: Time 179680, Note Name: G2
Note ON: Time 179680, Note Name: G3, Velocity: 44
Note OFF: Time 179840, Note Name: G3
Note ON: Time 179840, Note Name: A#3, Velocity: 44
Note OFF: Time 180000, Note Name: A#3
Note ON: Time 181440, Note Name: A#2, Velocity: 49
Note OFF: Time 181600, Note Name: A#2
Note ON: Time 181600, Note Name: A#3, Velocity: 41
Note OFF: Time 181760, Note Name: A#3
Note ON: Time 181760, Note Name: C#4, Velocity: 41
Note OFF: Time 181920, Note Name: C#4
Note ON: Time 183360, Note Name: C#3, Velocity: 40
Note OFF: Time 183600, Note Name: C#3
Note ON: Time 183600, Note Name: E3, Velocity: 36
Note OFF: Time 183840, Note Name: E3
Note ON: Time 183840, Note Name: G3, Velocity: 36
Note OFF: Time 184080, Note Name: G3
Note ON: Time 184080, Note Name: A#3, Velocity: 36
Note OFF: Time 184320, Note Name: A#3
Note ON: Time 189840, Note Name: A#3, Velocity: 38
Note OFF: Time 190080, Note Name: A#3
Note ON: Time 190080, Note Name: G3, Velocity: 38
Note OFF: Time 190320, Note Name: G3
Note ON: Time 190320, Note Name: E3, Velocity: 37
Note OFF: Time 190560, Note Name: E3
Note ON: Time 190560, Note Name: C#3, Velocity: 36
Note OFF: Time 190800, Note Name: C#3
Note ON: Time 190800, Note Name: A#2, Velocity: 35
Note OFF: Time 191040, Note Name: A#2
Note ON: Time 191040, Note Name: G2, Velocity: 35
Note OFF: Time 192000, Note Name: G2
Note ON: Time 192000, Note Name: E2, Velocity: 36
Note OFF: Time 192960, Note Name: E2
Note ON: Time 192960, Note Name: C#2, Velocity: 35
Note OFF: Time 193920, Note Name: C#2
Note ON: Time 193920, Note Name: A#1, Velocity: 34
Note OFF: Time 194880, Note Name: A#1
Note ON: Time 194880, Note Name: G1, Velocity: 34
Note OFF: Time 196800, Note Name: G1
Note ON: Time 196800, Note Name: E3, Velocity: 34
Note ON: Time 196800, Note Name: A#2, Velocity: 34
Note ON: Time 196800, Note Name: G2, Velocity: 34
Note ON: Time 196800, Note Name: C2, Velocity: 34
Note ON: Time 196800, Note Name: C3, Velocity: 34
Note OFF: Time 197520, Note Name: C3
Note OFF: Time 197520, Note Name: E3
Note OFF: Time 197520, Note Name: G2
Note OFF: Time 197520, Note Name: A#2
Note ON: Time 201600, Note Name: A#2, Velocity: 34
Note ON: Time 201600, Note Name: G2, Velocity: 34
Note ON: Time 201600, Note Name: E3, Velocity: 34
Note ON: Time 201600, Note Name: C3, Velocity: 34
Note OFF: Time 202320, Note Name: C3
Note OFF: Time 202320, Note Name: G2
Note OFF: Time 202320, Note Name: E3
Note OFF: Time 202320, Note Name: A#2
Note OFF: Time 202440, Note Name: C2
Note ON: Time 202440, Note Name: C2, Velocity: 34
Note OFF: Time 202560, Note Name: C2
Note ON: Time 202560, Note Name: F2, Velocity: 39
Note ON: Time 202560, Note Name: F1, Velocity: 39
Note OFF: Time 203040, Note Name: F1
Note OFF: Time 203040, Note Name: F2
Note ON: Time 204480, Note Name: F1, Velocity: 40
Note ON: Time 204480, Note Name: F2, Velocity: 40
Note OFF: Time 204960, Note Name: F2
Note OFF: Time 204960, Note Name: F1
Note ON: Time 205320, Note Name: G#4, Velocity: 51
Note ON: Time 205320, Note Name: C5, Velocity: 51
Note OFF: Time 205440, Note Name: C5
Note OFF: Time 205440, Note Name: G#4
Note ON: Time 205440, Note Name: G#4, Velocity: 56
Note ON: Time 205440, Note Name: C5, Velocity: 56
Note OFF: Time 205920, Note Name: C5
Note OFF: Time 205920, Note Name: G#4
Note ON: Time 205920, Note Name: G#4, Velocity: 30
Note ON: Time 205920, Note Name: F4, Velocity: 30
Note OFF: Time 206160, Note Name: F4
Note OFF: Time 206160, Note Name: G#4
Note ON: Time 206400, Note Name: A#1, Velocity: 40
Note ON: Time 206400, Note Name: A#2, Velocity: 40
Note OFF: Time 206880, Note Name: A#2
Note OFF: Time 206880, Note Name: A#1
Note ON: Time 207240, Note Name: C#5, Velocity: 63
Note ON: Time 207240, Note Name: A#4, Velocity: 63
Note OFF: Time 207360, Note Name: A#4
Note OFF: Time 207360, Note Name: C#5
Note ON: Time 207360, Note Name: C#5, Velocity: 70
Note ON: Time 207360, Note Name: A#4, Velocity: 70
Note OFF: Time 208320, Note Name: A#4
Note OFF: Time 208320, Note Name: C#5
Note ON: Time 208320, Note Name: A#4, Velocity: 51
Note ON: Time 208320, Note Name: C5, Velocity: 51
Note OFF: Time 208560, Note Name: C5
Note OFF: Time 208560, Note Name: A#4
Note ON: Time 208560, Note Name: C3, Velocity: 43
Note ON: Time 208560, Note Name: C2, Velocity: 43
Note OFF: Time 208800, Note Name: C2
Note OFF: Time 208800, Note Name: C3
Note ON: Time 209040, Note Name: C#2, Velocity: 37
Note ON: Time 209040, Note Name: C#3, Velocity: 37
Note OFF: Time 209280, Note Name: C#3
Note OFF: Time 209280, Note Name: C#2
Note ON: Time 209520, Note Name: A#1, Velocity: 39
Note ON: Time 209520, Note Name: A#2, Velocity: 39
Note OFF: Time 209760, Note Name: A#2
Note OFF: Time 209760, Note Name: A#1
Note ON: Time 210000, Note Name: C2, Velocity: 35
Note ON: Time 210000, Note Name: C3, Velocity: 35
Note OFF: Time 210240, Note Name: C3
Note OFF: Time 210240, Note Name: C2
Note ON: Time 210240, Note Name: F2, Velocity: 40
Note ON: Time 210240, Note Name: F1, Velocity: 40
Note OFF: Time 210360, Note Name: F1
Note OFF: Time 210360, Note Name: F2
Note ON: Time 210360, Note Name: C3, Velocity: 37
Note OFF: Time 210480, Note Name: C3
Note ON: Time 210480, Note Name: F3, Velocity: 37
Note OFF: Time 210600, Note Name: F3
Note ON: Time 210600, Note Name: G#3, Velocity: 40
Note OFF: Time 210720, Note Name: G#3
Note ON: Time 210720, Note Name: C4, Velocity: 38
Note OFF: Time 210840, Note Name: C4
Note ON: Time 210840, Note Name: C#4, Velocity: 38
Note OFF: Time 210960, Note Name: C#4
Note ON: Time 210960, Note Name: C4, Velocity: 38
Note OFF: Time 211080, Note Name: C4
Note ON: Time 211080, Note Name: A#3, Velocity: 40
Note OFF: Time 211200, Note Name: A#3
Note ON: Time 211200, Note Name: G#3, Velocity: 37
Note OFF: Time 211320, Note Name: G#3
Note ON: Time 211320, Note Name: A#3, Velocity: 37
Note OFF: Time 211440, Note Name: A#3
Note ON: Time 211440, Note Name: G#3, Velocity: 37
Note OFF: Time 211560, Note Name: G#3
Note ON: Time 211560, Note Name: G3, Velocity: 40
Note OFF: Time 211680, Note Name: G3
Note ON: Time 211680, Note Name: F3, Velocity: 37
Note OFF: Time 211800, Note Name: F3
Note ON: Time 211800, Note Name: G3, Velocity: 37
Note OFF: Time 211920, Note Name: G3
Note ON: Time 211920, Note Name: G#3, Velocity: 37
Note OFF: Time 212040, Note Name: G#3
Note ON: Time 212040, Note Name: F3, Velocity: 37
Note OFF: Time 212160, Note Name: F3
Note ON: Time 212160, Note Name: G#3, Velocity: 40
Note OFF: Time 212280, Note Name: G#3
Note ON: Time 212280, Note Name: C3, Velocity: 37
Note OFF: Time 212400, Note Name: C3
Note ON: Time 212400, Note Name: F3, Velocity: 37
Note OFF: Time 212520, Note Name: F3
Note ON: Time 212520, Note Name: G#3, Velocity: 40
Note OFF: Time 212640, Note Name: G#3
Note ON: Time 212640, Note Name: C4, Velocity: 38
Note OFF: Time 212760, Note Name: C4
Note ON: Time 212760, Note Name: C#4, Velocity: 38
Note OFF: Time 212880, Note Name: C#4
Note ON: Time 212880, Note Name: C4, Velocity: 38
Note OFF: Time 213000, Note Name: C4
Note ON: Time 213000, Note Name: A#3, Velocity: 40
Note OFF: Time 213120, Note Name: A#3
Note ON: Time 213120, Note Name: G#3, Velocity: 37
Note OFF: Time 213240, Note Name: G#3
Note ON: Time 213240, Note Name: A#3, Velocity: 37
Note OFF: Time 213360, Note Name: A#3
Note ON: Time 213360, Note Name: G#3, Velocity: 37
Note OFF: Time 213480, Note Name: G#3
Note ON: Time 213480, Note Name: G3, Velocity: 40
Note OFF: Time 213600, Note Name: G3
Note ON: Time 213600, Note Name: F3, Velocity: 37
Note OFF: Time 213720, Note Name: F3
Note ON: Time 213720, Note Name: G3, Velocity: 37
Note OFF: Time 213840, Note Name: G3
Note ON: Time 213840, Note Name: G#3, Velocity: 37
Note OFF: Time 213960, Note Name: G#3
Note ON: Time 213960, Note Name: F3, Velocity: 37
Note OFF: Time 214080, Note Name: F3
Note ON: Time 214080, Note Name: A#3, Velocity: 44
Note OFF: Time 214200, Note Name: A#3
Note ON: Time 214200, Note Name: C#3, Velocity: 40
Note OFF: Time 214320, Note Name: C#3
Note ON: Time 214320, Note Name: F#3, Velocity: 40
Note OFF: Time 214440, Note Name: F#3
Note ON: Time 214440, Note Name: A#3, Velocity: 44
Note OFF: Time 214560, Note Name: A#3
Note ON: Time 214560, Note Name: C#4, Velocity: 41
Note OFF: Time 214680, Note Name: C#4
Note ON: Time 214680, Note Name: D#4, Velocity: 41
Note OFF: Time 214800, Note Name: D#4
Note ON: Time 214800, Note Name: C#4, Velocity: 41
Note OFF: Time 214920, Note Name: C#4
Note ON: Time 214920, Note Name: C4, Velocity: 44
Note OFF: Time 215040, Note Name: C4
Note ON: Time 215040, Note Name: A#3, Velocity: 40
Note OFF: Time 215160, Note Name: A#3
Note ON: Time 215160, Note Name: C4, Velocity: 40
Note OFF: Time 215280, Note Name: C4
Note ON: Time 215280, Note Name: A#3, Velocity: 40
Note OFF: Time 215400, Note Name: A#3
Note ON: Time 215400, Note Name: G#3, Velocity: 44
Note OFF: Time 215520, Note Name: G#3
Note ON: Time 215520, Note Name: F#3, Velocity: 40
Note OFF: Time 215640, Note Name: F#3
Note ON: Time 215640, Note Name: G#3, Velocity: 40
Note OFF: Time 215760, Note Name: G#3
Note ON: Time 215760, Note Name: F#3, Velocity: 40
Note OFF: Time 215880, Note Name: F#3
Note ON: Time 215880, Note Name: F3, Velocity: 44
Note OFF: Time 216000, Note Name: F3
Note ON: Time 216000, Note Name: E3, Velocity: 40
Note OFF: Time 216120, Note Name: E3
Note ON: Time 216120, Note Name: F3, Velocity: 40
Note OFF: Time 216240, Note Name: F3
Note ON: Time 216240, Note Name: G3, Velocity: 40
Note OFF: Time 216360, Note Name: G3
Note ON: Time 216360, Note Name: G#3, Velocity: 44
Note OFF: Time 216480, Note Name: G#3
Note ON: Time 216480, Note Name: A#3, Velocity: 40
Note OFF: Time 216600, Note Name: A#3
Note ON: Time 216600, Note Name: G#3, Velocity: 40
Note OFF: Time 216720, Note Name: G#3
Note ON: Time 216720, Note Name: G3, Velocity: 40
Note OFF: Time 216840, Note Name: G3
Note ON: Time 216840, Note Name: F3, Velocity: 44
Note OFF: Time 216960, Note Name: F3
Note ON: Time 216960, Note Name: E3, Velocity: 40
Note OFF: Time 217080, Note Name: E3
Note ON: Time 217080, Note Name: F3, Velocity: 40
Note OFF: Time 217200, Note Name: F3
Note ON: Time 217200, Note Name: E3, Velocity: 40
Note OFF: Time 217320, Note Name: E3
Note ON: Time 217320, Note Name: C#3, Velocity: 44
Note OFF: Time 217440, Note Name: C#3
Note ON: Time 217440, Note Name: C3, Velocity: 37
Note OFF: Time 217560, Note Name: C3
Note ON: Time 217560, Note Name: A#2, Velocity: 38
Note OFF: Time 217680, Note Name: A#2
Note ON: Time 217680, Note Name: G#2, Velocity: 40
Note OFF: Time 217800, Note Name: G#2
Note ON: Time 217800, Note Name: G2, Velocity: 40
Note OFF: Time 217920, Note Name: G2
Note ON: Time 217920, Note Name: F2, Velocity: 44
Note OFF: Time 218400, Note Name: F2
Note ON: Time 218760, Note Name: G#3, Velocity: 52
Note ON: Time 218760, Note Name: F3, Velocity: 52
Note OFF: Time 218880, Note Name: F3
Note OFF: Time 218880, Note Name: G#3
Note ON: Time 218880, Note Name: F3, Velocity: 65
Note ON: Time 218880, Note Name: G#3, Velocity: 65
Note OFF: Time 219360, Note Name: G#3
Note OFF: Time 219360, Note Name: F3
Note ON: Time 219720, Note Name: G#3, Velocity: 54
Note ON: Time 219720, Note Name: F3, Velocity: 54
Note OFF: Time 219840, Note Name: F3
Note OFF: Time 219840, Note Name: G#3
Note ON: Time 219840, Note Name: C3, Velocity: 66
Note ON: Time 219840, Note Name: G#3, Velocity: 66
Note ON: Time 219840, Note Name: F3, Velocity: 66
Note OFF: Time 220800, Note Name: F3
Note OFF: Time 220800, Note Name: G#3
Note OFF: Time 220800, Note Name: C3
Note ON: Time 220800, Note Name: E3, Velocity: 48
Note ON: Time 220800, Note Name: C3, Velocity: 48
Note ON: Time 220800, Note Name: G3, Velocity: 48
Note OFF: Time 221040, Note Name: G3
Note OFF: Time 221040, Note Name: C3
Note OFF: Time 221040, Note Name: E3
Note ON: Time 221760, Note Name: C3, Velocity: 42
Note ON: Time 221760, Note Name: C2, Velocity: 42
Note OFF: Time 222240, Note Name: C2
Note OFF: Time 222240, Note Name: C3
Note ON: Time 222600, Note Name: A#3, Velocity: 60
Note ON: Time 222600, Note Name: G3, Velocity: 60
Note OFF: Time 222720, Note Name: G3
Note OFF: Time 222720, Note Name: A#3
Note ON: Time 222720, Note Name: G3, Velocity: 68
Note ON: Time 222720, Note Name: A#3, Velocity: 68
Note OFF: Time 223200, Note Name: A#3
Note OFF: Time 223200, Note Name: G3
Note ON: Time 223560, Note Name: G3, Velocity: 61
Note ON: Time 223560, Note Name: A#3, Velocity: 61
Note OFF: Time 223680, Note Name: A#3
Note OFF: Time 223680, Note Name: G3
Note ON: Time 223680, Note Name: F3, Velocity: 58
Note ON: Time 223680, Note Name: A#3, Velocity: 69
Note ON: Time 223680, Note Name: G3, Velocity: 58
Note OFF: Time 224640, Note Name: G3
Note OFF: Time 224640, Note Name: A#3
Note OFF: Time 224640, Note Name: F3
Note ON: Time 224640, Note Name: F3, Velocity: 47
Note ON: Time 224640, Note Name: G#3, Velocity: 52
Note OFF: Time 224880, Note Name: G#3
Note OFF: Time 224880, Note Name: F3
Note ON: Time 225600, Note Name: F2, Velocity: 45
Note ON: Time 225600, Note Name: F3, Velocity: 45
Note OFF: Time 226080, Note Name: F3
Note OFF: Time 226080, Note Name: F2
Note ON: Time 226440, Note Name: D#4, Velocity: 59
Note ON: Time 226440, Note Name: C4, Velocity: 59
Note OFF: Time 226560, Note Name: C4
Note OFF: Time 226560, Note Name: D#4
Note ON: Time 226560, Note Name: C4, Velocity: 68
Note ON: Time 226560, Note Name: D#4, Velocity: 68
Note OFF: Time 227040, Note Name: D#4
Note OFF: Time 227040, Note Name: C4
Note ON: Time 227400, Note Name: C4, Velocity: 66
Note ON: Time 227400, Note Name: D#4, Velocity: 66
Note OFF: Time 227520, Note Name: D#4
Note OFF: Time 227520, Note Name: C4
Note ON: Time 227520, Note Name: A#3, Velocity: 72
Note ON: Time 227520, Note Name: D#4, Velocity: 72
Note ON: Time 227520, Note Name: C4, Velocity: 72
Note OFF: Time 228720, Note Name: C4
Note OFF: Time 228720, Note Name: D#4
Note OFF: Time 228720, Note Name: A#3
Note ON: Time 228720, Note Name: C#4, Velocity: 64
Note ON: Time 228720, Note Name: A#3, Velocity: 64
Note OFF: Time 228960, Note Name: A#3
Note OFF: Time 228960, Note Name: C#4
Note ON: Time 228960, Note Name: C4, Velocity: 61
Note ON: Time 228960, Note Name: G#3, Velocity: 61
Note OFF: Time 229200, Note Name: G#3
Note OFF: Time 229200, Note Name: C4
Note ON: Time 229200, Note Name: A#3, Velocity: 59
Note ON: Time 229200, Note Name: G3, Velocity: 59
Note OFF: Time 229440, Note Name: G3
Note OFF: Time 229440, Note Name: A#3
Note ON: Time 229440, Note Name: C3, Velocity: 56
Note ON: Time 229440, Note Name: G#3, Velocity: 56
Note ON: Time 229440, Note Name: F3, Velocity: 56
Note OFF: Time 229920, Note Name: F3
Note OFF: Time 229920, Note Name: G#3
Note OFF: Time 229920, Note Name: C3
Note ON: Time 230280, Note Name: G#3, Velocity: 56
Note ON: Time 230280, Note Name: F3, Velocity: 56
Note OFF: Time 230400, Note Name: F3
Note OFF: Time 230400, Note Name: G#3
Note ON: Time 230400, Note Name: C3, Velocity: 63
Note ON: Time 230400, Note Name: A#3, Velocity: 63
Note ON: Time 230400, Note Name: G3, Velocity: 63
Note OFF: Time 230880, Note Name: G3
Note OFF: Time 230880, Note Name: A#3
Note OFF: Time 230880, Note Name: C3
Note ON: Time 231240, Note Name: G3, Velocity: 53
Note ON: Time 231240, Note Name: E3, Velocity: 53
Note OFF: Time 231360, Note Name: E3
Note OFF: Time 231360, Note Name: G3
Note ON: Time 231360, Note Name: F3, Velocity: 56
Note OFF: Time 231480, Note Name: F3
Note ON: Time 231480, Note Name: C4, Velocity: 49
Note OFF: Time 231600, Note Name: C4
Note ON: Time 231600, Note Name: G#3, Velocity: 49
Note OFF: Time 231720, Note Name: G#3
Note ON: Time 231720, Note Name: F3, Velocity: 49
Note OFF: Time 231840, Note Name: F3
Note ON: Time 231840, Note Name: C3, Velocity: 53
Note OFF: Time 231960, Note Name: C3
Note ON: Time 231960, Note Name: G#3, Velocity: 49
Note OFF: Time 232080, Note Name: G#3
Note ON: Time 232080, Note Name: F3, Velocity: 49
Note OFF: Time 232200, Note Name: F3
Note ON: Time 232200, Note Name: C3, Velocity: 49
Note OFF: Time 232320, Note Name: C3
Note ON: Time 232320, Note Name: G#2, Velocity: 53
Note OFF: Time 232440, Note Name: G#2
Note ON: Time 232440, Note Name: F3, Velocity: 49
Note OFF: Time 232560, Note Name: F3
Note ON: Time 232560, Note Name: C3, Velocity: 49
Note OFF: Time 232680, Note Name: C3
Note ON: Time 232680, Note Name: G#2, Velocity: 49
Note OFF: Time 232800, Note Name: G#2
Note ON: Time 232800, Note Name: F2, Velocity: 53
Note OFF: Time 232920, Note Name: F2
Note ON: Time 232920, Note Name: C3, Velocity: 49
Note OFF: Time 233040, Note Name: C3
Note ON: Time 233040, Note Name: G#2, Velocity: 49
Note OFF: Time 233160, Note Name: G#2
Note ON: Time 233160, Note Name: F2, Velocity: 49
Note OFF: Time 233280, Note Name: F2
Note ON: Time 233280, Note Name: C2, Velocity: 53
Note OFF: Time 233400, Note Name: C2
Note ON: Time 233400, Note Name: F2, Velocity: 49
Note OFF: Time 233520, Note Name: F2
Note ON: Time 233520, Note Name: G#2, Velocity: 49
Note OFF: Time 233640, Note Name: G#2
Note ON: Time 233640, Note Name: C3, Velocity: 49
Note OFF: Time 233760, Note Name: C3
Note ON: Time 233760, Note Name: B2, Velocity: 53
Note OFF: Time 233880, Note Name: B2
Note ON: Time 233880, Note Name: C3, Velocity: 49
Note OFF: Time 234000, Note Name: C3
Note ON: Time 234000, Note Name: B2, Velocity: 49
Note OFF: Time 234120, Note Name: B2
Note ON: Time 234120, Note Name: C3, Velocity: 49
Note OFF: Time 234240, Note Name: C3
Note ON: Time 234240, Note Name: B2, Velocity: 53
Note OFF: Time 234360, Note Name: B2
Note ON: Time 234360, Note Name: C3, Velocity: 49
Note OFF: Time 234480, Note Name: C3
Note ON: Time 234480, Note Name: G2, Velocity: 49
Note OFF: Time 234600, Note Name: G2
Note ON: Time 234600, Note Name: C3, Velocity: 49
Note OFF: Time 234720, Note Name: C3
Note ON: Time 234720, Note Name: E2, Velocity: 53
Note OFF: Time 234840, Note Name: E2
Note ON: Time 234840, Note Name: C3, Velocity: 49
Note OFF: Time 234960, Note Name: C3
Note ON: Time 234960, Note Name: G2, Velocity: 49
Note OFF: Time 235080, Note Name: G2
Note ON: Time 235080, Note Name: C3, Velocity: 49
Note OFF: Time 235200, Note Name: C3
Note ON: Time 235200, Note Name: C2, Velocity: 56
Note OFF: Time 235320, Note Name: C2
Note ON: Time 235320, Note Name: E2, Velocity: 49
Note OFF: Time 235440, Note Name: E2
Note ON: Time 235440, Note Name: G2, Velocity: 49
Note OFF: Time 235560, Note Name: G2
Note ON: Time 235560, Note Name: C3, Velocity: 49
Note OFF: Time 235680, Note Name: C3
Note ON: Time 235680, Note Name: E2, Velocity: 53
Note OFF: Time 235800, Note Name: E2
Note ON: Time 235800, Note Name: G2, Velocity: 49
Note OFF: Time 235920, Note Name: G2
Note ON: Time 235920, Note Name: C3, Velocity: 49
Note OFF: Time 236040, Note Name: C3
Note ON: Time 236040, Note Name: E3, Velocity: 49
Note OFF: Time 236160, Note Name: E3
Note ON: Time 236160, Note Name: G2, Velocity: 53
Note OFF: Time 236280, Note Name: G2
Note ON: Time 236280, Note Name: C3, Velocity: 49
Note OFF: Time 236400, Note Name: C3
Note ON: Time 236400, Note Name: E3, Velocity: 49
Note OFF: Time 236520, Note Name: E3
Note ON: Time 236520, Note Name: G3, Velocity: 49
Note OFF: Time 236640, Note Name: G3
Note ON: Time 236640, Note Name: C3, Velocity: 53
Note OFF: Time 236760, Note Name: C3
Note ON: Time 236760, Note Name: E3, Velocity: 49
Note OFF: Time 236880, Note Name: E3
Note ON: Time 236880, Note Name: G3, Velocity: 49
Note OFF: Time 237000, Note Name: G3
Note ON: Time 237000, Note Name: C4, Velocity: 49
Note OFF: Time 237120, Note Name: C4
Note ON: Time 237120, Note Name: F3, Velocity: 59
Note OFF: Time 237240, Note Name: F3
Note ON: Time 237240, Note Name: G#3, Velocity: 49
Note OFF: Time 237360, Note Name: G#3
Note ON: Time 237360, Note Name: C4, Velocity: 49
Note OFF: Time 237480, Note Name: C4
Note ON: Time 237480, Note Name: F4, Velocity: 49
Note OFF: Time 237600, Note Name: F4
Note ON: Time 237600, Note Name: E4, Velocity: 53
Note OFF: Time 237720, Note Name: E4
Note ON: Time 237720, Note Name: F4, Velocity: 49
Note OFF: Time 237840, Note Name: F4
Note ON: Time 237840, Note Name: E4, Velocity: 49
Note OFF: Time 237960, Note Name: E4
Note ON: Time 237960, Note Name: F4, Velocity: 49
Note OFF: Time 238080, Note Name: F4
Note ON: Time 238080, Note Name: E4, Velocity: 53
Note OFF: Time 238200, Note Name: E4
Note ON: Time 238200, Note Name: F4, Velocity: 49
Note OFF: Time 238320, Note Name: F4
Note ON: Time 238320, Note Name: C4, Velocity: 49
Note OFF: Time 238440, Note Name: C4
Note ON: Time 238440, Note Name: F4, Velocity: 49
Note OFF: Time 238560, Note Name: F4
Note ON: Time 238560, Note Name: G#3, Velocity: 53
Note OFF: Time 238680, Note Name: G#3
Note ON: Time 238680, Note Name: F4, Velocity: 49
Note OFF: Time 238800, Note Name: F4
Note ON: Time 238800, Note Name: C4, Velocity: 49
Note OFF: Time 238920, Note Name: C4
Note ON: Time 238920, Note Name: F4, Velocity: 49
Note OFF: Time 239040, Note Name: F4
Note ON: Time 239040, Note Name: F3, Velocity: 61
Note OFF: Time 239160, Note Name: F3
Note ON: Time 239160, Note Name: A3, Velocity: 53
Note OFF: Time 239280, Note Name: A3
Note ON: Time 239280, Note Name: C4, Velocity: 53
Note OFF: Time 239400, Note Name: C4
Note ON: Time 239400, Note Name: F4, Velocity: 53
Note OFF: Time 239520, Note Name: F4
Note ON: Time 239520, Note Name: A3, Velocity: 58
Note OFF: Time 239640, Note Name: A3
Note ON: Time 239640, Note Name: C4, Velocity: 53
Note OFF: Time 239760, Note Name: C4
Note ON: Time 239760, Note Name: F4, Velocity: 53
Note OFF: Time 239880, Note Name: F4
Note ON: Time 239880, Note Name: A4, Velocity: 53
Note OFF: Time 240000, Note Name: A4
Note ON: Time 240000, Note Name: C4, Velocity: 58
Note OFF: Time 240120, Note Name: C4
Note ON: Time 240120, Note Name: F4, Velocity: 53
Note OFF: Time 240240, Note Name: F4
Note ON: Time 240240, Note Name: A4, Velocity: 53
Note OFF: Time 240360, Note Name: A4
Note ON: Time 240360, Note Name: C5, Velocity: 53
Note OFF: Time 240480, Note Name: C5
Note ON: Time 240480, Note Name: F4, Velocity: 58
Note OFF: Time 240600, Note Name: F4
Note ON: Time 240600, Note Name: A4, Velocity: 53
Note OFF: Time 240720, Note Name: A4
Note ON: Time 240720, Note Name: C5, Velocity: 53
Note OFF: Time 240840, Note Name: C5
Note ON: Time 240840, Note Name: F5, Velocity: 53
Note OFF: Time 240960, Note Name: F5
Note ON: Time 240960, Note Name: A4, Velocity: 67
Note OFF: Time 241080, Note Name: A4
Note ON: Time 241080, Note Name: F5, Velocity: 53
Note OFF: Time 241200, Note Name: F5
Note ON: Time 241200, Note Name: E5, Velocity: 53
Note OFF: Time 241320, Note Name: E5
Note ON: Time 241320, Note Name: F5, Velocity: 53
Note OFF: Time 241440, Note Name: F5
Note ON: Time 241440, Note Name: A4, Velocity: 58
Note OFF: Time 241560, Note Name: A4
Note ON: Time 241560, Note Name: F5, Velocity: 53
Note OFF: Time 241680, Note Name: F5
Note ON: Time 241680, Note Name: A4, Velocity: 53
Note OFF: Time 241800, Note Name: A4
Note ON: Time 241800, Note Name: F5, Velocity: 53
Note OFF: Time 241920, Note Name: F5
Note ON: Time 241920, Note Name: A4, Velocity: 57
Note OFF: Time 242040, Note Name: A4
Note ON: Time 242040, Note Name: F5, Velocity: 56
Note OFF: Time 242160, Note Name: F5
Note ON: Time 242160, Note Name: A#4, Velocity: 56
Note OFF: Time 242280, Note Name: A#4
Note ON: Time 242280, Note Name: F5, Velocity: 55
Note OFF: Time 242400, Note Name: F5
Note ON: Time 242400, Note Name: C5, Velocity: 54
Note OFF: Time 242520, Note Name: C5
Note ON: Time 242520, Note Name: F5, Velocity: 53
Note OFF: Time 242640, Note Name: F5
Note ON: Time 242640, Note Name: C#5, Velocity: 52
Note OFF: Time 242760, Note Name: C#5
Note ON: Time 242760, Note Name: F5, Velocity: 52
Note OFF: Time 242880, Note Name: F5
Note ON: Time 242880, Note Name: C4, Velocity: 52
Note OFF: Time 243000, Note Name: C4
Note ON: Time 243000, Note Name: F4, Velocity: 47
Note OFF: Time 243120, Note Name: F4
Note ON: Time 243120, Note Name: G#4, Velocity: 47
Note OFF: Time 243240, Note Name: G#4
Note ON: Time 243240, Note Name: C5, Velocity: 47
Note OFF: Time 243360, Note Name: C5
Note ON: Time 243360, Note Name: B4, Velocity: 52
Note OFF: Time 243480, Note Name: B4
Note ON: Time 243480, Note Name: C5, Velocity: 47
Note OFF: Time 243600, Note Name: C5
Note ON: Time 243600, Note Name: B4, Velocity: 47
Note OFF: Time 243720, Note Name: B4
Note ON: Time 243720, Note Name: C5, Velocity: 47
Note OFF: Time 243840, Note Name: C5
Note ON: Time 243840, Note Name: C4, Velocity: 52
Note OFF: Time 243960, Note Name: C4
Note ON: Time 243960, Note Name: E4, Velocity: 47
Note OFF: Time 244080, Note Name: E4
Note ON: Time 244080, Note Name: G4, Velocity: 47
Note OFF: Time 244200, Note Name: G4
Note ON: Time 244200, Note Name: C5, Velocity: 47
Note OFF: Time 244320, Note Name: C5
Note ON: Time 244320, Note Name: C4, Velocity: 52
Note OFF: Time 244440, Note Name: C4
Note ON: Time 244440, Note Name: G4, Velocity: 47
Note OFF: Time 244560, Note Name: G4
Note ON: Time 244560, Note Name: A#4, Velocity: 47
Note OFF: Time 244680, Note Name: A#4
Note ON: Time 244680, Note Name: C5, Velocity: 47
Note OFF: Time 244800, Note Name: C5
Note ON: Time 244800, Note Name: F3, Velocity: 52
Note OFF: Time 244920, Note Name: F3
Note ON: Time 244920, Note Name: F4, Velocity: 38
Note ON: Time 244920, Note Name: G#4, Velocity: 38
Note OFF: Time 245040, Note Name: G#4
Note OFF: Time 245040, Note Name: F4
Note ON: Time 245040, Note Name: C4, Velocity: 39
Note ON: Time 245040, Note Name: C5, Velocity: 39
Note OFF: Time 245160, Note Name: C5
Note OFF: Time 245160, Note Name: C4
Note ON: Time 245160, Note Name: G#4, Velocity: 41
Note ON: Time 245160, Note Name: F4, Velocity: 41
Note OFF: Time 245280, Note Name: F4
Note OFF: Time 245280, Note Name: G#4
Note ON: Time 245280, Note Name: C5, Velocity: 45
Note ON: Time 245280, Note Name: C4, Velocity: 45
Note OFF: Time 245400, Note Name: C4
Note OFF: Time 245400, Note Name: C5
Note ON: Time 245400, Note Name: F4, Velocity: 44
Note ON: Time 245400, Note Name: G#4, Velocity: 44
Note OFF: Time 245520, Note Name: G#4
Note OFF: Time 245520, Note Name: F4
Note ON: Time 245520, Note Name: C5, Velocity: 45
Note ON: Time 245520, Note Name: C4, Velocity: 45
Note OFF: Time 245640, Note Name: C4
Note OFF: Time 245640, Note Name: C5
Note ON: Time 245640, Note Name: F4, Velocity: 45
Note ON: Time 245640, Note Name: G#4, Velocity: 45
Note OFF: Time 245760, Note Name: G#4
Note OFF: Time 245760, Note Name: F4
Note ON: Time 245760, Note Name: C4, Velocity: 46
Note ON: Time 245760, Note Name: C5, Velocity: 46
Note OFF: Time 245880, Note Name: C5
Note OFF: Time 245880, Note Name: C4
Note ON: Time 245880, Note Name: F4, Velocity: 46
Note ON: Time 245880, Note Name: G#4, Velocity: 46
Note OFF: Time 246000, Note Name: G#4
Note OFF: Time 246000, Note Name: F4
Note ON: Time 246000, Note Name: C4, Velocity: 45
Note ON: Time 246000, Note Name: C5, Velocity: 45
Note OFF: Time 246120, Note Name: C5
Note OFF: Time 246120, Note Name: C4
Note ON: Time 246120, Note Name: G#4, Velocity: 45
Note ON: Time 246120, Note Name: F4, Velocity: 45
Note OFF: Time 246240, Note Name: F4
Note OFF: Time 246240, Note Name: G#4
Note ON: Time 246240, Note Name: C5, Velocity: 45
Note ON: Time 246240, Note Name: C4, Velocity: 45
Note OFF: Time 246360, Note Name: C4
Note OFF: Time 246360, Note Name: C5
Note ON: Time 246360, Note Name: F4, Velocity: 44
Note ON: Time 246360, Note Name: G#4, Velocity: 44
Note OFF: Time 246480, Note Name: G#4
Note OFF: Time 246480, Note Name: F4
Note ON: Time 246480, Note Name: C5, Velocity: 44
Note ON: Time 246480, Note Name: C4, Velocity: 44
Note OFF: Time 246600, Note Name: C4
Note OFF: Time 246600, Note Name: C5
Note ON: Time 246600, Note Name: F4, Velocity: 43
Note ON: Time 246600, Note Name: G#4, Velocity: 43
Note OFF: Time 246720, Note Name: G#4
Note OFF: Time 246720, Note Name: F4
Note ON: Time 246720, Note Name: F3, Velocity: 54
Note OFF: Time 246840, Note Name: F3
Note ON: Time 246840, Note Name: F4, Velocity: 38
Note ON: Time 246840, Note Name: G#4, Velocity: 38
Note OFF: Time 246960, Note Name: G#4
Note OFF: Time 246960, Note Name: F4
Note ON: Time 246960, Note Name: C5, Velocity: 39
Note ON: Time 246960, Note Name: C4, Velocity: 39
Note OFF: Time 247080, Note Name: C4
Note OFF: Time 247080, Note Name: C5
Note ON: Time 247080, Note Name: F4, Velocity: 41
Note ON: Time 247080, Note Name: G#4, Velocity: 41
Note OFF: Time 247200, Note Name: G#4
Note OFF: Time 247200, Note Name: F4
Note ON: Time 247200, Note Name: C5, Velocity: 45
Note ON: Time 247200, Note Name: C4, Velocity: 45
Note OFF: Time 247320, Note Name: C4
Note OFF: Time 247320, Note Name: C5
Note ON: Time 247320, Note Name: F4, Velocity: 44
Note ON: Time 247320, Note Name: G#4, Velocity: 44
Note OFF: Time 247440, Note Name: G#4
Note OFF: Time 247440, Note Name: F4
Note ON: Time 247440, Note Name: C5, Velocity: 45
Note ON: Time 247440, Note Name: C4, Velocity: 45
Note OFF: Time 247560, Note Name: C4
Note OFF: Time 247560, Note Name: C5
Note ON: Time 247560, Note Name: G#4, Velocity: 45
Note ON: Time 247560, Note Name: F4, Velocity: 45
Note OFF: Time 247680, Note Name: F4
Note OFF: Time 247680, Note Name: G#4
Note ON: Time 247680, Note Name: C4, Velocity: 46
Note ON: Time 247680, Note Name: C5, Velocity: 46
Note OFF: Time 247800, Note Name: C5
Note OFF: Time 247800, Note Name: C4
Note ON: Time 247800, Note Name: F4, Velocity: 46
Note ON: Time 247800, Note Name: G#4, Velocity: 46
Note OFF: Time 247920, Note Name: G#4
Note OFF: Time 247920, Note Name: F4
Note ON: Time 247920, Note Name: C5, Velocity: 45
Note ON: Time 247920, Note Name: C4, Velocity: 45
Note OFF: Time 248040, Note Name: C4
Note OFF: Time 248040, Note Name: C5
Note ON: Time 248040, Note Name: F4, Velocity: 45
Note ON: Time 248040, Note Name: G#4, Velocity: 45
Note OFF: Time 248160, Note Name: G#4
Note OFF: Time 248160, Note Name: F4
Note ON: Time 248160, Note Name: C4, Velocity: 45
Note ON: Time 248160, Note Name: C5, Velocity: 45
Note OFF: Time 248280, Note Name: C5
Note OFF: Time 248280, Note Name: C4
Note ON: Time 248280, Note Name: G#4, Velocity: 44
Note ON: Time 248280, Note Name: F4, Velocity: 44
Note OFF: Time 248400, Note Name: F4
Note OFF: Time 248400, Note Name: G#4
Note ON: Time 248400, Note Name: C5, Velocity: 44
Note ON: Time 248400, Note Name: C4, Velocity: 44
Note OFF: Time 248520, Note Name: C4
Note OFF: Time 248520, Note Name: C5
Note ON: Time 248520, Note Name: G#4, Velocity: 43
Note ON: Time 248520, Note Name: F4, Velocity: 43
Note OFF: Time 248640, Note Name: F4
Note OFF: Time 248640, Note Name: G#4
Note ON: Time 248640, Note Name: G#2, Velocity: 55
Note OFF: Time 248760, Note Name: G#2
Note ON: Time 248760, Note Name: F#3, Velocity: 40
Note ON: Time 248760, Note Name: G#3, Velocity: 40
Note OFF: Time 248880, Note Name: G#3
Note OFF: Time 248880, Note Name: F#3
Note ON: Time 248880, Note Name: C4, Velocity: 41
Note ON: Time 248880, Note Name: D#3, Velocity: 41
Note OFF: Time 249000, Note Name: D#3
Note OFF: Time 249000, Note Name: C4
Note ON: Time 249000, Note Name: F#3, Velocity: 43
Note ON: Time 249000, Note Name: G#3, Velocity: 43
Note OFF: Time 249120, Note Name: G#3
Note OFF: Time 249120, Note Name: F#3
Note ON: Time 249120, Note Name: C4, Velocity: 47
Note ON: Time 249120, Note Name: D#3, Velocity: 47
Note OFF: Time 249240, Note Name: D#3
Note OFF: Time 249240, Note Name: C4
Note ON: Time 249240, Note Name: F#3, Velocity: 46
Note ON: Time 249240, Note Name: G#3, Velocity: 46
Note OFF: Time 249360, Note Name: G#3
Note OFF: Time 249360, Note Name: F#3
Note ON: Time 249360, Note Name: C4, Velocity: 47
Note ON: Time 249360, Note Name: D#3, Velocity: 47
Note OFF: Time 249480, Note Name: D#3
Note OFF: Time 249480, Note Name: C4
Note ON: Time 249480, Note Name: G#3, Velocity: 48
Note ON: Time 249480, Note Name: F#3, Velocity: 48
Note OFF: Time 249600, Note Name: F#3
Note OFF: Time 249600, Note Name: G#3
Note ON: Time 249600, Note Name: D#3, Velocity: 49
Note ON: Time 249600, Note Name: C4, Velocity: 49
Note OFF: Time 249720, Note Name: C4
Note OFF: Time 249720, Note Name: D#3
Note ON: Time 249720, Note Name: G#3, Velocity: 49
Note ON: Time 249720, Note Name: F#3, Velocity: 49
Note OFF: Time 249840, Note Name: F#3
Note OFF: Time 249840, Note Name: G#3
Note ON: Time 249840, Note Name: D#3, Velocity: 48
Note ON: Time 249840, Note Name: C4, Velocity: 48
Note OFF: Time 249960, Note Name: C4
Note OFF: Time 249960, Note Name: D#3
Note ON: Time 249960, Note Name: F#3, Velocity: 47
Note ON: Time 249960, Note Name: G#3, Velocity: 47
Note OFF: Time 250080, Note Name: G#3
Note OFF: Time 250080, Note Name: F#3
Note ON: Time 250080, Note Name: C4, Velocity: 47
Note ON: Time 250080, Note Name: D#3, Velocity: 47
Note OFF: Time 250200, Note Name: D#3
Note OFF: Time 250200, Note Name: C4
Note ON: Time 250200, Note Name: F#3, Velocity: 46
Note ON: Time 250200, Note Name: G#3, Velocity: 46
Note OFF: Time 250320, Note Name: G#3
Note OFF: Time 250320, Note Name: F#3
Note ON: Time 250320, Note Name: C4, Velocity: 46
Note ON: Time 250320, Note Name: D#3, Velocity: 46
Note OFF: Time 250440, Note Name: D#3
Note OFF: Time 250440, Note Name: C4
Note ON: Time 250440, Note Name: G#3, Velocity: 45
Note ON: Time 250440, Note Name: F#3, Velocity: 45
Note OFF: Time 250560, Note Name: F#3
Note OFF: Time 250560, Note Name: G#3
Note ON: Time 250560, Note Name: G#2, Velocity: 54
Note OFF: Time 250680, Note Name: G#2
Note ON: Time 250680, Note Name: F#3, Velocity: 40
Note ON: Time 250680, Note Name: G#3, Velocity: 40
Note OFF: Time 250800, Note Name: G#3
Note OFF: Time 250800, Note Name: F#3
Note ON: Time 250800, Note Name: C4, Velocity: 41
Note ON: Time 250800, Note Name: D#3, Velocity: 41
Note OFF: Time 250920, Note Name: D#3
Note OFF: Time 250920, Note Name: C4
Note ON: Time 250920, Note Name: F#3, Velocity: 43
Note ON: Time 250920, Note Name: G#3, Velocity: 43
Note OFF: Time 251040, Note Name: G#3
Note OFF: Time 251040, Note Name: F#3
Note ON: Time 251040, Note Name: C4, Velocity: 47
Note ON: Time 251040, Note Name: D#3, Velocity: 47
Note OFF: Time 251160, Note Name: D#3
Note OFF: Time 251160, Note Name: C4
Note ON: Time 251160, Note Name: F#3, Velocity: 46
Note ON: Time 251160, Note Name: G#3, Velocity: 46
Note OFF: Time 251280, Note Name: G#3
Note OFF: Time 251280, Note Name: F#3
Note ON: Time 251280, Note Name: D#3, Velocity: 47
Note ON: Time 251280, Note Name: C4, Velocity: 47
Note OFF: Time 251400, Note Name: C4
Note OFF: Time 251400, Note Name: D#3
Note ON: Time 251400, Note Name: G#3, Velocity: 48
Note ON: Time 251400, Note Name: F#3, Velocity: 48
Note OFF: Time 251520, Note Name: F#3
Note OFF: Time 251520, Note Name: G#3
Note ON: Time 251520, Note Name: C4, Velocity: 49
Note ON: Time 251520, Note Name: D#3, Velocity: 49
Note OFF: Time 251640, Note Name: D#3
Note OFF: Time 251640, Note Name: C4
Note ON: Time 251640, Note Name: F#3, Velocity: 49
Note ON: Time 251640, Note Name: G#3, Velocity: 49
Note OFF: Time 251760, Note Name: G#3
Note OFF: Time 251760, Note Name: F#3
Note ON: Time 251760, Note Name: C4, Velocity: 48
Note ON: Time 251760, Note Name: D#3, Velocity: 48
Note OFF: Time 251880, Note Name: D#3
Note OFF: Time 251880, Note Name: C4
Note ON: Time 251880, Note Name: G#3, Velocity: 47
Note ON: Time 251880, Note Name: F#3, Velocity: 47
Note OFF: Time 252000, Note Name: F#3
Note OFF: Time 252000, Note Name: G#3
Note ON: Time 252000, Note Name: D#3, Velocity: 47
Note ON: Time 252000, Note Name: C4, Velocity: 47
Note OFF: Time 252120, Note Name: C4
Note OFF: Time 252120, Note Name: D#3
Note ON: Time 252120, Note Name: F#3, Velocity: 46
Note ON: Time 252120, Note Name: G#3, Velocity: 46
Note OFF: Time 252240, Note Name: G#3
Note OFF: Time 252240, Note Name: F#3
Note ON: Time 252240, Note Name: D#3, Velocity: 46
Note ON: Time 252240, Note Name: C4, Velocity: 46
Note OFF: Time 252360, Note Name: C4
Note OFF: Time 252360, Note Name: D#3
Note ON: Time 252360, Note Name: G#3, Velocity: 45
Note ON: Time 252360, Note Name: F#3, Velocity: 45
Note OFF: Time 252480, Note Name: F#3
Note OFF: Time 252480, Note Name: G#3
Note ON: Time 252480, Note Name: C#3, Velocity: 56
Note OFF: Time 252600, Note Name: C#3
Note ON: Time 252600, Note Name: C#4, Velocity: 42
Note ON: Time 252600, Note Name: F4, Velocity: 42
Note OFF: Time 252720, Note Name: F4
Note OFF: Time 252720, Note Name: C#4
Note ON: Time 252720, Note Name: G#4, Velocity: 43
Note ON: Time 252720, Note Name: G#3, Velocity: 43
Note OFF: Time 252840, Note Name: G#3
Note OFF: Time 252840, Note Name: G#4
Note ON: Time 252840, Note Name: F4, Velocity: 45
Note ON: Time 252840, Note Name: C#4, Velocity: 45
Note OFF: Time 252960, Note Name: C#4
Note OFF: Time 252960, Note Name: F4
Note ON: Time 252960, Note Name: G#3, Velocity: 49
Note ON: Time 252960, Note Name: G#4, Velocity: 49
Note OFF: Time 253080, Note Name: G#4
Note OFF: Time 253080, Note Name: G#3
Note ON: Time 253080, Note Name: C#4, Velocity: 48
Note ON: Time 253080, Note Name: F4, Velocity: 48
Note OFF: Time 253200, Note Name: F4
Note OFF: Time 253200, Note Name: C#4
Note ON: Time 253200, Note Name: G#4, Velocity: 49
Note ON: Time 253200, Note Name: G#3, Velocity: 49
Note OFF: Time 253320, Note Name: G#3
Note OFF: Time 253320, Note Name: G#4
Note ON: Time 253320, Note Name: C#4, Velocity: 50
Note ON: Time 253320, Note Name: F4, Velocity: 50
Note OFF: Time 253440, Note Name: F4
Note OFF: Time 253440, Note Name: C#4
Note ON: Time 253440, Note Name: G#4, Velocity: 51
Note ON: Time 253440, Note Name: G#3, Velocity: 51
Note OFF: Time 253560, Note Name: G#3
Note OFF: Time 253560, Note Name: G#4
Note ON: Time 253560, Note Name: C#4, Velocity: 51
Note ON: Time 253560, Note Name: F4, Velocity: 51
Note OFF: Time 253680, Note Name: F4
Note OFF: Time 253680, Note Name: C#4
Note ON: Time 253680, Note Name: G#3, Velocity: 50
Note ON: Time 253680, Note Name: G#4, Velocity: 50
Note OFF: Time 253800, Note Name: G#4
Note OFF: Time 253800, Note Name: G#3
Note ON: Time 253800, Note Name: F4, Velocity: 49
Note ON: Time 253800, Note Name: C#4, Velocity: 49
Note OFF: Time 253920, Note Name: C#4
Note OFF: Time 253920, Note Name: F4
Note ON: Time 253920, Note Name: G#4, Velocity: 49
Note ON: Time 253920, Note Name: G#3, Velocity: 49
Note OFF: Time 254040, Note Name: G#3
Note OFF: Time 254040, Note Name: G#4
Note ON: Time 254040, Note Name: C#4, Velocity: 48
Note ON: Time 254040, Note Name: F4, Velocity: 48
Note OFF: Time 254160, Note Name: F4
Note OFF: Time 254160, Note Name: C#4
Note ON: Time 254160, Note Name: G#4, Velocity: 48
Note ON: Time 254160, Note Name: G#3, Velocity: 48
Note OFF: Time 254280, Note Name: G#3
Note OFF: Time 254280, Note Name: G#4
Note ON: Time 254280, Note Name: C#4, Velocity: 47
Note ON: Time 254280, Note Name: F4, Velocity: 47
Note OFF: Time 254400, Note Name: F4
Note OFF: Time 254400, Note Name: C#4
Note ON: Time 254400, Note Name: C#3, Velocity: 56
Note OFF: Time 254520, Note Name: C#3
Note ON: Time 254520, Note Name: C#4, Velocity: 42
Note ON: Time 254520, Note Name: F4, Velocity: 42
Note OFF: Time 254640, Note Name: F4
Note OFF: Time 254640, Note Name: C#4
Note ON: Time 254640, Note Name: G#4, Velocity: 43
Note ON: Time 254640, Note Name: G#3, Velocity: 43
Note OFF: Time 254760, Note Name: G#3
Note OFF: Time 254760, Note Name: G#4
Note ON: Time 254760, Note Name: C#4, Velocity: 45
Note ON: Time 254760, Note Name: F4, Velocity: 45
Note OFF: Time 254880, Note Name: F4
Note OFF: Time 254880, Note Name: C#4
Note ON: Time 254880, Note Name: G#4, Velocity: 49
Note OFF: Time 255120, Note Name: G#4
Note ON: Time 255120, Note Name: C#5, Velocity: 55
Note OFF: Time 255360, Note Name: C#5
Note ON: Time 255360, Note Name: F5, Velocity: 58
Note OFF: Time 255600, Note Name: F5
Note ON: Time 255600, Note Name: G#5, Velocity: 62
Note OFF: Time 255840, Note Name: G#5
Note ON: Time 255840, Note Name: C#6, Velocity: 66
Note OFF: Time 256080, Note Name: C#6
Note ON: Time 256080, Note Name: C#6, Velocity: 69
Note OFF: Time 256320, Note Name: C#6
Note ON: Time 256320, Note Name: C#6, Velocity: 80
Note ON: Time 256320, Note Name: A#5, Velocity: 80
Note OFF: Time 257040, Note Name: A#5
Note OFF: Time 257040, Note Name: C#6
Note ON: Time 257040, Note Name: G#5, Velocity: 66
Note ON: Time 257040, Note Name: C6, Velocity: 66
Note OFF: Time 257280, Note Name: C6
Note OFF: Time 257280, Note Name: G#5
Note ON: Time 257280, Note Name: G5, Velocity: 68
Note ON: Time 257280, Note Name: A#5, Velocity: 68
Note OFF: Time 257760, Note Name: A#5
Note OFF: Time 257760, Note Name: G5
Note ON: Time 257760, Note Name: C6, Velocity: 64
Note ON: Time 257760, Note Name: G#5, Velocity: 64
Note OFF: Time 258240, Note Name: G#5
Note OFF: Time 258240, Note Name: C6
Note ON: Time 258240, Note Name: A#5, Velocity: 80
Note ON: Time 258240, Note Name: C#6, Velocity: 80
Note OFF: Time 258960, Note Name: C#6
Note OFF: Time 258960, Note Name: A#5
Note ON: Time 258960, Note Name: C6, Velocity: 66
Note ON: Time 258960, Note Name: G#5, Velocity: 66
Note OFF: Time 259200, Note Name: G#5
Note OFF: Time 259200, Note Name: C6
Note ON: Time 259200, Note Name: G5, Velocity: 68
Note ON: Time 259200, Note Name: A#5, Velocity: 68
Note OFF: Time 259680, Note Name: A#5
Note OFF: Time 259680, Note Name: G5
Note ON: Time 259680, Note Name: G#5, Velocity: 64
Note ON: Time 259680, Note Name: C6, Velocity: 64
Note OFF: Time 260160, Note Name: C6
Note OFF: Time 260160, Note Name: G#5
Note ON: Time 260160, Note Name: C#6, Velocity: 80
Note ON: Time 260160, Note Name: A#5, Velocity: 80
Note OFF: Time 260880, Note Name: A#5
Note OFF: Time 260880, Note Name: C#6
Note ON: Time 260880, Note Name: C6, Velocity: 66
Note ON: Time 260880, Note Name: G#5, Velocity: 66
Note OFF: Time 261120, Note Name: G#5
Note OFF: Time 261120, Note Name: C6
Note ON: Time 261120, Note Name: G5, Velocity: 68
Note ON: Time 261120, Note Name: A#5, Velocity: 68
Note OFF: Time 261600, Note Name: A#5
Note OFF: Time 261600, Note Name: G5
Note ON: Time 261600, Note Name: G#5, Velocity: 65
Note ON: Time 261600, Note Name: F5, Velocity: 65
Note OFF: Time 262080, Note Name: F5
Note OFF: Time 262080, Note Name: G#5
Note ON: Time 262080, Note Name: E5, Velocity: 70
Note ON: Time 262080, Note Name: G5, Velocity: 70
Note OFF: Time 262560, Note Name: G5
Note OFF: Time 262560, Note Name: E5
Note ON: Time 262560, Note Name: F5, Velocity: 70
Note ON: Time 262560, Note Name: D5, Velocity: 70
Note OFF: Time 263040, Note Name: D5
Note OFF: Time 263040, Note Name: F5
Note ON: Time 263040, Note Name: F5, Velocity: 75
Note ON: Time 263040, Note Name: C#5, Velocity: 75
Note OFF: Time 263520, Note Name: C#5
Note OFF: Time 263520, Note Name: F5
Note ON: Time 263520, Note Name: C5, Velocity: 75
Note ON: Time 263520, Note Name: F5, Velocity: 75
Note OFF: Time 264000, Note Name: F5
Note OFF: Time 264000, Note Name: C5
Note ON: Time 264000, Note Name: B4, Velocity: 76
Note ON: Time 264480, Note Name: D5, Velocity: 75
Note OFF: Time 264960, Note Name: D5
Note OFF: Time 264960, Note Name: B4
Note ON: Time 264960, Note Name: C4, Velocity: 72
Note ON: Time 264960, Note Name: G#4, Velocity: 72
Note ON: Time 264960, Note Name: C5, Velocity: 72
Note OFF: Time 265440, Note Name: G#4
Note ON: Time 265440, Note Name: G4, Velocity: 68
Note OFF: Time 265920, Note Name: G4
Note OFF: Time 265920, Note Name: C5
Note OFF: Time 265920, Note Name: C4
Note ON: Time 265920, Note Name: A#2, Velocity: 61
Note ON: Time 265920, Note Name: F#3, Velocity: 72
Note ON: Time 265920, Note Name: C#3, Velocity: 61
Note OFF: Time 266640, Note Name: C#3
Note OFF: Time 266640, Note Name: F#3
Note OFF: Time 266640, Note Name: A#2
Note ON: Time 266640, Note Name: G#2, Velocity: 50
Note ON: Time 266640, Note Name: F3, Velocity: 59
Note ON: Time 266640, Note Name: C3, Velocity: 50
Note OFF: Time 266880, Note Name: C3
Note OFF: Time 266880, Note Name: F3
Note OFF: Time 266880, Note Name: G#2
Note ON: Time 266880, Note Name: E3, Velocity: 61
Note ON: Time 266880, Note Name: A#2, Velocity: 51
Note ON: Time 266880, Note Name: G2, Velocity: 51
Note OFF: Time 267360, Note Name: G2
Note OFF: Time 267360, Note Name: A#2
Note OFF: Time 267360, Note Name: E3
Note ON: Time 267360, Note Name: C3, Velocity: 48
Note ON: Time 267360, Note Name: G#2, Velocity: 48
Note ON: Time 267360, Note Name: F3, Velocity: 57
Note OFF: Time 267840, Note Name: F3
Note OFF: Time 267840, Note Name: G#2
Note OFF: Time 267840, Note Name: C3
Note ON: Time 267840, Note Name: F#3, Velocity: 72
Note ON: Time 267840, Note Name: C#3, Velocity: 61
Note ON: Time 267840, Note Name: A#2, Velocity: 61
Note OFF: Time 268560, Note Name: A#2
Note OFF: Time 268560, Note Name: C#3
Note OFF: Time 268560, Note Name: F#3
Note ON: Time 268560, Note Name: C3, Velocity: 50
Note ON: Time 268560, Note Name: F3, Velocity: 59
Note ON: Time 268560, Note Name: G#2, Velocity: 50
Note OFF: Time 268800, Note Name: G#2
Note OFF: Time 268800, Note Name: F3
Note OFF: Time 268800, Note Name: C3
Note ON: Time 268800, Note Name: E3, Velocity: 65
Note ON: Time 268800, Note Name: A#2, Velocity: 54
Note ON: Time 268800, Note Name: G2, Velocity: 51
Note OFF: Time 269280, Note Name: G2
Note OFF: Time 269280, Note Name: A#2
Note OFF: Time 269280, Note Name: E3
Note ON: Time 269280, Note Name: G#2, Velocity: 48
Note ON: Time 269280, Note Name: F3, Velocity: 57
Note ON: Time 269280, Note Name: C3, Velocity: 48
Note OFF: Time 269760, Note Name: C3
Note OFF: Time 269760, Note Name: F3
Note OFF: Time 269760, Note Name: G#2
Note ON: Time 269760, Note Name: A#2, Velocity: 61
Note ON: Time 269760, Note Name: F#3, Velocity: 72
Note ON: Time 269760, Note Name: C#3, Velocity: 61
Note OFF: Time 270480, Note Name: C#3
Note OFF: Time 270480, Note Name: F#3
Note OFF: Time 270480, Note Name: A#2
Note ON: Time 270480, Note Name: G#2, Velocity: 50
Note ON: Time 270480, Note Name: C3, Velocity: 50
Note ON: Time 270480, Note Name: F3, Velocity: 59
Note OFF: Time 270720, Note Name: F3
Note OFF: Time 270720, Note Name: C3
Note OFF: Time 270720, Note Name: G#2
Note ON: Time 270720, Note Name: E3, Velocity: 61
Note ON: Time 270720, Note Name: A#2, Velocity: 61
Note ON: Time 270720, Note Name: G2, Velocity: 51
Note OFF: Time 271200, Note Name: G2
Note OFF: Time 271200, Note Name: A#2
Note OFF: Time 271200, Note Name: E3
Note ON: Time 271200, Note Name: F2, Velocity: 49
Note ON: Time 271200, Note Name: C#3, Velocity: 58
Note ON: Time 271200, Note Name: G#2, Velocity: 49
Note OFF: Time 271680, Note Name: G#2
Note OFF: Time 271680, Note Name: C#3
Note OFF: Time 271680, Note Name: F2
Note ON: Time 271680, Note Name: E2, Velocity: 53
Note ON: Time 271680, Note Name: C3, Velocity: 63
Note ON: Time 271680, Note Name: G2, Velocity: 53
Note OFF: Time 272160, Note Name: G2
Note OFF: Time 272160, Note Name: C3
Note OFF: Time 272160, Note Name: E2
Note ON: Time 272160, Note Name: B2, Velocity: 63
Note ON: Time 272160, Note Name: D2, Velocity: 53
Note ON: Time 272160, Note Name: G#2, Velocity: 53
Note ON: Time 272160, Note Name: F2, Velocity: 53
Note OFF: Time 272640, Note Name: F2
Note OFF: Time 272640, Note Name: B2
Note OFF: Time 272640, Note Name: D2
Note OFF: Time 272640, Note Name: G#2
Note ON: Time 272640, Note Name: A#2, Velocity: 67
Note ON: Time 272640, Note Name: E2, Velocity: 56
Note ON: Time 272640, Note Name: G2, Velocity: 56
Note OFF: Time 273120, Note Name: G2
Note OFF: Time 273120, Note Name: E2
Note OFF: Time 273120, Note Name: A#2
Note ON: Time 273120, Note Name: G#2, Velocity: 67
Note ON: Time 273120, Note Name: F2, Velocity: 67
Note OFF: Time 273600, Note Name: F2
Note OFF: Time 273600, Note Name: G#2
Note ON: Time 273600, Note Name: B1, Velocity: 66
Note ON: Time 273600, Note Name: G#2, Velocity: 66
Note OFF: Time 274080, Note Name: G#2
Note ON: Time 274080, Note Name: F#2, Velocity: 64
Note OFF: Time 274560, Note Name: F#2
Note OFF: Time 274560, Note Name: B1
Note ON: Time 274560, Note Name: C2, Velocity: 61
Note ON: Time 274560, Note Name: F2, Velocity: 61
Note OFF: Time 275040, Note Name: F2
Note ON: Time 275040, Note Name: E2, Velocity: 59
Note OFF: Time 275520, Note Name: E2
Note OFF: Time 275520, Note Name: C2
Note ON: Time 275520, Note Name: F1, Velocity: 59
Note ON: Time 275520, Note Name: G#1, Velocity: 59
Note ON: Time 275520, Note Name: C2, Velocity: 59
Note ON: Time 275520, Note Name: F2, Velocity: 70
Note OFF: Time 275760, Note Name: F2
Note OFF: Time 275760, Note Name: F1
Note OFF: Time 275760, Note Name: G#1
Note OFF: Time 275760, Note Name: C2
Note ON: Time 276120, Note Name: C3, Velocity: 59
Note OFF: Time 276240, Note Name: C3
Note ON: Time 276240, Note Name: F3, Velocity: 62
Note OFF: Time 276360, Note Name: F3
Note ON: Time 276360, Note Name: G#3, Velocity: 64
Note OFF: Time 276480, Note Name: G#3
Note ON: Time 276480, Note Name: C4, Velocity: 70
Note OFF: Time 276600, Note Name: C4
Note ON: Time 276600, Note Name: C#4, Velocity: 64
Note OFF: Time 276720, Note Name: C#4
Note ON: Time 276720, Note Name: C4, Velocity: 64
Note OFF: Time 276840, Note Name: C4
Note ON: Time 276840, Note Name: A#3, Velocity: 64
Note OFF: Time 276960, Note Name: A#3
Note ON: Time 276960, Note Name: G#3, Velocity: 70
Note OFF: Time 277080, Note Name: G#3
Note ON: Time 277080, Note Name: G3, Velocity: 63
Note OFF: Time 277200, Note Name: G3
Note ON: Time 277200, Note Name: F3, Velocity: 63
Note OFF: Time 277320, Note Name: F3
Note ON: Time 277320, Note Name: D#3, Velocity: 63
Note OFF: Time 277440, Note Name: D#3
Note ON: Time 277440, Note Name: C#3, Velocity: 67
Note OFF: Time 277560, Note Name: C#3
Note ON: Time 277560, Note Name: C3, Velocity: 60
Note OFF: Time 277680, Note Name: C3
Note ON: Time 277680, Note Name: A#2, Velocity: 60
Note OFF: Time 277800, Note Name: A#2
Note ON: Time 277800, Note Name: G#2, Velocity: 60
Note OFF: Time 277920, Note Name: G#2
Note ON: Time 277920, Note Name: G2, Velocity: 71
Note OFF: Time 278040, Note Name: G2
Note ON: Time 278040, Note Name: G#2, Velocity: 65
Note OFF: Time 278160, Note Name: G#2
Note ON: Time 278160, Note Name: A#2, Velocity: 73
Note OFF: Time 278280, Note Name: A#2
Note ON: Time 278280, Note Name: G#2, Velocity: 69
Note OFF: Time 278400, Note Name: G#2
Note ON: Time 278400, Note Name: G2, Velocity: 73
Note OFF: Time 278520, Note Name: G2
Note ON: Time 278520, Note Name: F2, Velocity: 73
Note OFF: Time 278640, Note Name: F2
Note ON: Time 278640, Note Name: E2, Velocity: 72
Note OFF: Time 278760, Note Name: E2
Note ON: Time 278760, Note Name: D2, Velocity: 72
Note OFF: Time 278880, Note Name: D2
Note ON: Time 278880, Note Name: C2, Velocity: 71
Note OFF: Time 279000, Note Name: C2
Note ON: Time 279000, Note Name: A#1, Velocity: 71
Note OFF: Time 279120, Note Name: A#1
Note ON: Time 279120, Note Name: G#1, Velocity: 70
Note OFF: Time 279240, Note Name: G#1
Note ON: Time 279240, Note Name: G1, Velocity: 70
Note OFF: Time 279360, Note Name: G1
Note ON: Time 279360, Note Name: F1, Velocity: 70
Note ON: Time 279360, Note Name: C2, Velocity: 70
Note ON: Time 279360, Note Name: F2, Velocity: 70
Note ON: Time 279360, Note Name: G#1, Velocity: 70
Note OFF: Time 279600, Note Name: G#1
Note OFF: Time 279600, Note Name: F1
Note OFF: Time 279600, Note Name: C2
Note OFF: Time 279600, Note Name: F2
Note ON: Time 279960, Note Name: C4, Velocity: 59
Note OFF: Time 280080, Note Name: C4
Note ON: Time 280080, Note Name: F4, Velocity: 62
Note OFF: Time 280200, Note Name: F4
Note ON: Time 280200, Note Name: G#4, Velocity: 64
Note OFF: Time 280320, Note Name: G#4
Note ON: Time 280320, Note Name: C5, Velocity: 70
Note OFF: Time 280440, Note Name: C5
Note ON: Time 280440, Note Name: C#5, Velocity: 64
Note OFF: Time 280560, Note Name: C#5
Note ON: Time 280560, Note Name: C5, Velocity: 64
Note OFF: Time 280680, Note Name: C5
Note ON: Time 280680, Note Name: A#4, Velocity: 64
Note OFF: Time 280800, Note Name: A#4
Note ON: Time 280800, Note Name: G#4, Velocity: 70
Note OFF: Time 280920, Note Name: G#4
Note ON: Time 280920, Note Name: G4, Velocity: 63
Note OFF: Time 281040, Note Name: G4
Note ON: Time 281040, Note Name: F4, Velocity: 63
Note OFF: Time 281160, Note Name: F4
Note ON: Time 281160, Note Name: D#4, Velocity: 63
Note OFF: Time 281280, Note Name: D#4
Note ON: Time 281280, Note Name: C#4, Velocity: 67
Note OFF: Time 281400, Note Name: C#4
Note ON: Time 281400, Note Name: C4, Velocity: 60
Note OFF: Time 281520, Note Name: C4
Note ON: Time 281520, Note Name: A#3, Velocity: 60
Note OFF: Time 281640, Note Name: A#3
Note ON: Time 281640, Note Name: G#3, Velocity: 60
Note OFF: Time 281760, Note Name: G#3
Note ON: Time 281760, Note Name: G3, Velocity: 71
Note OFF: Time 281880, Note Name: G3
Note ON: Time 281880, Note Name: G#3, Velocity: 65
Note OFF: Time 282000, Note Name: G#3
Note ON: Time 282000, Note Name: A#3, Velocity: 73
Note OFF: Time 282120, Note Name: A#3
Note ON: Time 282120, Note Name: G#3, Velocity: 69
Note OFF: Time 282240, Note Name: G#3
Note ON: Time 282240, Note Name: G3, Velocity: 73
Note OFF: Time 282360, Note Name: G3
Note ON: Time 282360, Note Name: F3, Velocity: 73
Note OFF: Time 282480, Note Name: F3
Note ON: Time 282480, Note Name: E3, Velocity: 72
Note OFF: Time 282600, Note Name: E3
Note ON: Time 282600, Note Name: D3, Velocity: 72
Note OFF: Time 282720, Note Name: D3
Note ON: Time 282720, Note Name: C3, Velocity: 71
Note OFF: Time 282840, Note Name: C3
Note ON: Time 282840, Note Name: A#2, Velocity: 71
Note OFF: Time 282960, Note Name: A#2
Note ON: Time 282960, Note Name: G#2, Velocity: 70
Note OFF: Time 283080, Note Name: G#2
Note ON: Time 283080, Note Name: G2, Velocity: 70
Note OFF: Time 283200, Note Name: G2
Note ON: Time 283200, Note Name: F2, Velocity: 67
Note OFF: Time 283320, Note Name: F2
Note ON: Time 283320, Note Name: G2, Velocity: 60
Note OFF: Time 283440, Note Name: G2
Note ON: Time 283440, Note Name: G#2, Velocity: 60
Note OFF: Time 283560, Note Name: G#2
Note ON: Time 283560, Note Name: A#2, Velocity: 60
Note OFF: Time 283680, Note Name: A#2
Note ON: Time 283680, Note Name: C3, Velocity: 71
Note OFF: Time 283800, Note Name: C3
Note ON: Time 283800, Note Name: D3, Velocity: 65
Note OFF: Time 283920, Note Name: D3
Note ON: Time 283920, Note Name: E3, Velocity: 73
Note OFF: Time 284040, Note Name: E3
Note ON: Time 284040, Note Name: F3, Velocity: 69
Note OFF: Time 284160, Note Name: F3
Note ON: Time 284160, Note Name: G3, Velocity: 73
Note OFF: Time 284280, Note Name: G3
Note ON: Time 284280, Note Name: F3, Velocity: 73
Note OFF: Time 284400, Note Name: F3
Note ON: Time 284400, Note Name: E3, Velocity: 72
Note OFF: Time 284520, Note Name: E3
Note ON: Time 284520, Note Name: D3, Velocity: 72
Note OFF: Time 284640, Note Name: D3
Note ON: Time 284640, Note Name: C3, Velocity: 71
Note OFF: Time 284760, Note Name: C3
Note ON: Time 284760, Note Name: A#2, Velocity: 71
Note OFF: Time 284880, Note Name: A#2
Note ON: Time 284880, Note Name: G#2, Velocity: 70
Note OFF: Time 285000, Note Name: G#2
Note ON: Time 285000, Note Name: G2, Velocity: 70
Note OFF: Time 285120, Note Name: G2
Note ON: Time 285120, Note Name: F2, Velocity: 67
Note OFF: Time 285240, Note Name: F2
Note ON: Time 285240, Note Name: G2, Velocity: 60
Note OFF: Time 285360, Note Name: G2
Note ON: Time 285360, Note Name: G#2, Velocity: 60
Note OFF: Time 285480, Note Name: G#2
Note ON: Time 285480, Note Name: A#2, Velocity: 60
Note OFF: Time 285600, Note Name: A#2
Note ON: Time 285600, Note Name: C3, Velocity: 71
Note OFF: Time 285720, Note Name: C3
Note ON: Time 285720, Note Name: D3, Velocity: 65
Note OFF: Time 285840, Note Name: D3
Note ON: Time 285840, Note Name: E3, Velocity: 73
Note OFF: Time 285960, Note Name: E3
Note ON: Time 285960, Note Name: F3, Velocity: 69
Note OFF: Time 286080, Note Name: F3
Note ON: Time 286080, Note Name: G3, Velocity: 73
Note OFF: Time 286200, Note Name: G3
Note ON: Time 286200, Note Name: F3, Velocity: 73
Note OFF: Time 286320, Note Name: F3
Note ON: Time 286320, Note Name: E3, Velocity: 72
Note OFF: Time 286440, Note Name: E3
Note ON: Time 286440, Note Name: D3, Velocity: 72
Note OFF: Time 286560, Note Name: D3
Note ON: Time 286560, Note Name: C3, Velocity: 71
Note OFF: Time 286680, Note Name: C3
Note ON: Time 286680, Note Name: A#2, Velocity: 71
Note OFF: Time 286800, Note Name: A#2
Note ON: Time 286800, Note Name: G#2, Velocity: 70
Note OFF: Time 286920, Note Name: G#2
Note ON: Time 286920, Note Name: G2, Velocity: 70
Note OFF: Time 287040, Note Name: G2
Note ON: Time 287040, Note Name: F2, Velocity: 67
Note OFF: Time 287160, Note Name: F2
Note ON: Time 287160, Note Name: E2, Velocity: 60
Note OFF: Time 287280, Note Name: E2
Note ON: Time 287280, Note Name: D2, Velocity: 60
Note OFF: Time 287400, Note Name: D2
Note ON: Time 287400, Note Name: C2, Velocity: 60
Note OFF: Time 287520, Note Name: C2
Note ON: Time 287520, Note Name: A#1, Velocity: 64
Note OFF: Time 287640, Note Name: A#1
Note ON: Time 287640, Note Name: G#1, Velocity: 59
Note OFF: Time 287760, Note Name: G#1
Note ON: Time 287760, Note Name: G1, Velocity: 65
Note OFF: Time 287880, Note Name: G1
Note ON: Time 287880, Note Name: F1, Velocity: 58
Note OFF: Time 288000, Note Name: F1
Note ON: Time 288000, Note Name: G1, Velocity: 68
Note OFF: Time 288120, Note Name: G1
Note ON: Time 288120, Note Name: G#1, Velocity: 69
Note OFF: Time 288240, Note Name: G#1
Note ON: Time 288240, Note Name: A#1, Velocity: 71
Note OFF: Time 288360, Note Name: A#1
Note ON: Time 288360, Note Name: C2, Velocity: 72
Note OFF: Time 288480, Note Name: C2
Note ON: Time 288480, Note Name: D2, Velocity: 74
Note OFF: Time 288600, Note Name: D2
Note ON: Time 288600, Note Name: E2, Velocity: 75
Note OFF: Time 288720, Note Name: E2
Note ON: Time 288720, Note Name: F2, Velocity: 77
Note OFF: Time 288840, Note Name: F2
Note ON: Time 288840, Note Name: G2, Velocity: 78
Note OFF: Time 288960, Note Name: G2
Note ON: Time 288960, Note Name: F#1, Velocity: 76
Note ON: Time 288960, Note Name: F#2, Velocity: 78
Note OFF: Time 289080, Note Name: F#2
Note OFF: Time 289080, Note Name: F#1
Note ON: Time 291720, Note Name: A3, Velocity: 69
Note OFF: Time 291840, Note Name: A3
Note ON: Time 291840, Note Name: F#3, Velocity: 68
Note OFF: Time 291960, Note Name: F#3
Note ON: Time 291960, Note Name: D#3, Velocity: 68
Note OFF: Time 292080, Note Name: D#3
Note ON: Time 292080, Note Name: C3, Velocity: 67
Note OFF: Time 292200, Note Name: C3
Note ON: Time 292200, Note Name: A2, Velocity: 66
Note OFF: Time 292320, Note Name: A2
Note ON: Time 292320, Note Name: F#2, Velocity: 66
Note OFF: Time 292440, Note Name: F#2
Note ON: Time 292440, Note Name: D#2, Velocity: 65
Note OFF: Time 292560, Note Name: D#2
Note ON: Time 292560, Note Name: C2, Velocity: 64
Note OFF: Time 292680, Note Name: C2
Note ON: Time 292680, Note Name: A1, Velocity: 63
Note OFF: Time 292800, Note Name: A1
Note ON: Time 292800, Note Name: F#1, Velocity: 60
Note OFF: Time 292920, Note Name: F#1
Note ON: Time 292920, Note Name: D#2, Velocity: 59
Note OFF: Time 293040, Note Name: D#2
Note ON: Time 293040, Note Name: C2, Velocity: 58
Note OFF: Time 293160, Note Name: C2
Note ON: Time 293160, Note Name: A1, Velocity: 57
Note OFF: Time 293280, Note Name: A1
Note ON: Time 293280, Note Name: F#1, Velocity: 56
Note OFF: Time 293400, Note Name: F#1
Note ON: Time 293400, Note Name: D#2, Velocity: 54
Note OFF: Time 293520, Note Name: D#2
Note ON: Time 293520, Note Name: C2, Velocity: 53
Note OFF: Time 293640, Note Name: C2
Note ON: Time 293640, Note Name: A1, Velocity: 52
Note OFF: Time 293760, Note Name: A1
Note ON: Time 293760, Note Name: F#1, Velocity: 51
Note OFF: Time 293880, Note Name: F#1
Note ON: Time 293880, Note Name: D#2, Velocity: 47
Note OFF: Time 294000, Note Name: D#2
Note ON: Time 294000, Note Name: C2, Velocity: 47
Note OFF: Time 294120, Note Name: C2
Note ON: Time 294120, Note Name: A1, Velocity: 43
Note OFF: Time 294240, Note Name: A1
Note ON: Time 294240, Note Name: F#1, Velocity: 47
Note OFF: Time 294360, Note Name: F#1
Note ON: Time 294360, Note Name: D#2, Velocity: 41
Note OFF: Time 294480, Note Name: D#2
Note ON: Time 294480, Note Name: C2, Velocity: 39
Note OFF: Time 294600, Note Name: C2
Note ON: Time 294600, Note Name: A1, Velocity: 38
Note OFF: Time 294720, Note Name: A1
Note ON: Time 294720, Note Name: F1, Velocity: 39
Note OFF: Time 295200, Note Name: F1
Note ON: Time 296520, Note Name: F2, Velocity: 35
Note OFF: Time 296640, Note Name: F2
Note ON: Time 296640, Note Name: F1, Velocity: 40
Note OFF: Time 297120, Note Name: F1
Note ON: Time 298440, Note Name: F2, Velocity: 35
Note OFF: Time 298560, Note Name: F2
Note ON: Time 298560, Note Name: F1, Velocity: 40
Note OFF: Time 299040, Note Name: F1
Note ON: Time 299280, Note Name: A3, Velocity: 38
Note OFF: Time 299400, Note Name: A3
Note ON: Time 299400, Note Name: A#3, Velocity: 42
Note OFF: Time 299520, Note Name: A#3
Note ON: Time 299520, Note Name: C4, Velocity: 49
Note OFF: Time 299640, Note Name: C4
Note ON: Time 299640, Note Name: C#4, Velocity: 42
Note OFF: Time 299760, Note Name: C#4
Note ON: Time 299760, Note Name: C4, Velocity: 43
Note OFF: Time 299880, Note Name: C4
Note ON: Time 299880, Note Name: A#3, Velocity: 43
Note OFF: Time 300000, Note Name: A#3
Note ON: Time 300000, Note Name: A3, Velocity: 47
Note OFF: Time 300240, Note Name: A3
Note ON: Time 300240, Note Name: A3, Velocity: 41
Note OFF: Time 300360, Note Name: A3
Note ON: Time 300360, Note Name: A#3, Velocity: 46
Note OFF: Time 300480, Note Name: A#3
Note ON: Time 300480, Note Name: C4, Velocity: 53
Note OFF: Time 300600, Note Name: C4
Note ON: Time 300600, Note Name: C#4, Velocity: 42
Note OFF: Time 300720, Note Name: C#4
Note ON: Time 300720, Note Name: C4, Velocity: 43
Note OFF: Time 300840, Note Name: C4
Note ON: Time 300840, Note Name: A#3, Velocity: 43
Note OFF: Time 300960, Note Name: A#3
Note ON: Time 300960, Note Name: A3, Velocity: 47
Note OFF: Time 301200, Note Name: A3
Note ON: Time 301200, Note Name: A3, Velocity: 43
Note OFF: Time 301320, Note Name: A3
Note ON: Time 301320, Note Name: A#3, Velocity: 47
Note OFF: Time 301440, Note Name: A#3
Note ON: Time 301440, Note Name: C4, Velocity: 52
Note OFF: Time 301560, Note Name: C4
Note ON: Time 301560, Note Name: C#4, Velocity: 42
Note OFF: Time 301680, Note Name: C#4
Note ON: Time 301680, Note Name: C4, Velocity: 43
Note OFF: Time 301800, Note Name: C4
Note ON: Time 301800, Note Name: A#3, Velocity: 43
Note OFF: Time 301920, Note Name: A#3
Note ON: Time 301920, Note Name: A3, Velocity: 44
Note OFF: Time 302040, Note Name: A3
Note ON: Time 302040, Note Name: F#3, Velocity: 42
Note OFF: Time 302160, Note Name: F#3
Note ON: Time 302160, Note Name: F3, Velocity: 41
Note OFF: Time 302280, Note Name: F3
Note ON: Time 302280, Note Name: D#3, Velocity: 39
Note OFF: Time 302400, Note Name: D#3
Note ON: Time 302400, Note Name: C#3, Velocity: 44
Note ON: Time 302520, Note Name: F3, Velocity: 32
Note OFF: Time 302640, Note Name: F3
Note ON: Time 302640, Note Name: A#3, Velocity: 33
Note OFF: Time 302760, Note Name: A#3
Note ON: Time 302760, Note Name: F3, Velocity: 34
Note OFF: Time 302880, Note Name: F3
Note ON: Time 302880, Note Name: A#3, Velocity: 38
Note OFF: Time 303000, Note Name: A#3
Note ON: Time 303000, Note Name: F3, Velocity: 37
Note OFF: Time 303120, Note Name: F3
Note ON: Time 303120, Note Name: A#3, Velocity: 38
Note OFF: Time 303240, Note Name: A#3
Note ON: Time 303240, Note Name: F3, Velocity: 38
Note OFF: Time 303360, Note Name: F3
Note ON: Time 303360, Note Name: A#3, Velocity: 39
Note OFF: Time 303480, Note Name: A#3
Note ON: Time 303480, Note Name: F3, Velocity: 39
Note OFF: Time 303600, Note Name: F3
Note ON: Time 303600, Note Name: A#3, Velocity: 38
Note OFF: Time 303720, Note Name: A#3
Note ON: Time 303720, Note Name: F3, Velocity: 38
Note OFF: Time 303840, Note Name: F3
Note ON: Time 303840, Note Name: A#3, Velocity: 38
Note OFF: Time 303960, Note Name: A#3
Note ON: Time 303960, Note Name: F3, Velocity: 37
Note OFF: Time 304080, Note Name: F3
Note ON: Time 304080, Note Name: A#3, Velocity: 37
Note OFF: Time 304200, Note Name: A#3
Note ON: Time 304200, Note Name: F3, Velocity: 36
Note OFF: Time 304320, Note Name: F3
Note OFF: Time 304320, Note Name: C#3
Note ON: Time 304320, Note Name: C#3, Velocity: 44
Note ON: Time 304440, Note Name: F3, Velocity: 32
Note OFF: Time 304560, Note Name: F3
Note ON: Time 304560, Note Name: A#3, Velocity: 33
Note OFF: Time 304680, Note Name: A#3
Note ON: Time 304680, Note Name: F3, Velocity: 34
Note OFF: Time 304800, Note Name: F3
Note ON: Time 304800, Note Name: A#3, Velocity: 38
Note OFF: Time 304920, Note Name: A#3
Note ON: Time 304920, Note Name: F3, Velocity: 37
Note OFF: Time 305040, Note Name: F3
Note ON: Time 305040, Note Name: A#3, Velocity: 38
Note OFF: Time 305160, Note Name: A#3
Note ON: Time 305160, Note Name: F3, Velocity: 38
Note OFF: Time 305280, Note Name: F3
Note ON: Time 305280, Note Name: A#3, Velocity: 39
Note OFF: Time 305400, Note Name: A#3
Note ON: Time 305400, Note Name: F3, Velocity: 39
Note OFF: Time 305520, Note Name: F3
Note ON: Time 305520, Note Name: A#3, Velocity: 38
Note OFF: Time 305640, Note Name: A#3
Note ON: Time 305640, Note Name: F3, Velocity: 38
Note OFF: Time 305760, Note Name: F3
Note ON: Time 305760, Note Name: A#3, Velocity: 38
Note OFF: Time 305880, Note Name: A#3
Note ON: Time 305880, Note Name: F3, Velocity: 37
Note OFF: Time 306000, Note Name: F3
Note ON: Time 306000, Note Name: A#3, Velocity: 37
Note OFF: Time 306120, Note Name: A#3
Note ON: Time 306120, Note Name: F3, Velocity: 36
Note OFF: Time 306240, Note Name: F3
Note OFF: Time 306240, Note Name: C#3
Note ON: Time 306240, Note Name: D#3, Velocity: 44
Note ON: Time 306360, Note Name: F#3, Velocity: 32
Note OFF: Time 306480, Note Name: F#3
Note ON: Time 306480, Note Name: B3, Velocity: 33
Note OFF: Time 306600, Note Name: B3
Note ON: Time 306600, Note Name: F#3, Velocity: 35
Note OFF: Time 306720, Note Name: F#3
Note ON: Time 306720, Note Name: B3, Velocity: 39
Note OFF: Time 306840, Note Name: B3
Note ON: Time 306840, Note Name: F#3, Velocity: 39
Note OFF: Time 306960, Note Name: F#3
Note ON: Time 306960, Note Name: B3, Velocity: 40
Note OFF: Time 307080, Note Name: B3
Note ON: Time 307080, Note Name: F#3, Velocity: 41
Note OFF: Time 307200, Note Name: F#3
Note ON: Time 307200, Note Name: B3, Velocity: 42
Note OFF: Time 307320, Note Name: B3
Note ON: Time 307320, Note Name: F#3, Velocity: 43
Note OFF: Time 307440, Note Name: F#3
Note ON: Time 307440, Note Name: B3, Velocity: 42
Note OFF: Time 307560, Note Name: B3
Note ON: Time 307560, Note Name: F#3, Velocity: 42
Note OFF: Time 307680, Note Name: F#3
Note ON: Time 307680, Note Name: B3, Velocity: 43
Note OFF: Time 307800, Note Name: B3
Note ON: Time 307800, Note Name: F#3, Velocity: 42
Note OFF: Time 307920, Note Name: F#3
Note ON: Time 307920, Note Name: B3, Velocity: 45
Note OFF: Time 308040, Note Name: B3
Note ON: Time 308040, Note Name: F#3, Velocity: 42
Note OFF: Time 308160, Note Name: F#3
Note OFF: Time 308160, Note Name: D#3
Note ON: Time 308160, Note Name: F3, Velocity: 46
Note ON: Time 308280, Note Name: A#3, Velocity: 46
Note OFF: Time 308400, Note Name: A#3
Note ON: Time 308400, Note Name: C#4, Velocity: 44
Note OFF: Time 308520, Note Name: C#4
Note ON: Time 308520, Note Name: A#3, Velocity: 44
Note OFF: Time 308640, Note Name: A#3
Note ON: Time 308640, Note Name: C#4, Velocity: 43
Note OFF: Time 308760, Note Name: C#4
Note ON: Time 308760, Note Name: A#3, Velocity: 42
Note OFF: Time 308880, Note Name: A#3
Note ON: Time 308880, Note Name: C#4, Velocity: 41
Note OFF: Time 309000, Note Name: C#4
Note ON: Time 309000, Note Name: A#3, Velocity: 40
Note OFF: Time 309120, Note Name: A#3
Note OFF: Time 309120, Note Name: F3
Note ON: Time 309120, Note Name: D#3, Velocity: 42
Note ON: Time 309240, Note Name: F3, Velocity: 42
Note OFF: Time 309360, Note Name: F3
Note ON: Time 309360, Note Name: C4, Velocity: 41
Note OFF: Time 309480, Note Name: C4
Note ON: Time 309480, Note Name: F3, Velocity: 40
Note OFF: Time 309600, Note Name: F3
Note ON: Time 309600, Note Name: C4, Velocity: 39
Note OFF: Time 309720, Note Name: C4
Note ON: Time 309720, Note Name: F3, Velocity: 38
Note OFF: Time 309840, Note Name: F3
Note ON: Time 309840, Note Name: C4, Velocity: 38
Note OFF: Time 309960, Note Name: C4
Note ON: Time 309960, Note Name: F3, Velocity: 36
Note OFF: Time 310080, Note Name: F3
Note OFF: Time 310080, Note Name: D#3
Note ON: Time 310080, Note Name: C#3, Velocity: 48
Note OFF: Time 310200, Note Name: C#3
Note ON: Time 310200, Note Name: F4, Velocity: 48
Note OFF: Time 310320, Note Name: F4
Note ON: Time 310560, Note Name: A#3, Velocity: 58
Note ON: Time 310680, Note Name: C#4, Velocity: 40
Note OFF: Time 310800, Note Name: C#4
Note ON: Time 310800, Note Name: F4, Velocity: 41
Note OFF: Time 310920, Note Name: F4
Note ON: Time 310920, Note Name: C#4, Velocity: 41
Note OFF: Time 311040, Note Name: C#4
Note OFF: Time 311040, Note Name: A#3
Note ON: Time 311040, Note Name: A3, Velocity: 63
Note ON: Time 311160, Note Name: C#4, Velocity: 42
Note OFF: Time 311280, Note Name: C#4
Note ON: Time 311280, Note Name: F4, Velocity: 42
Note OFF: Time 311400, Note Name: F4
Note ON: Time 311400, Note Name: C#4, Velocity: 42
Note OFF: Time 311520, Note Name: C#4
Note OFF: Time 311520, Note Name: A3
Note ON: Time 311520, Note Name: A#3, Velocity: 55
Note ON: Time 311640, Note Name: C#4, Velocity: 41
Note OFF: Time 311760, Note Name: C#4
Note ON: Time 311760, Note Name: F4, Velocity: 41
Note OFF: Time 311880, Note Name: F4
Note ON: Time 311880, Note Name: C#4, Velocity: 41
Note OFF: Time 312000, Note Name: C#4
Note OFF: Time 312000, Note Name: A#3
Note ON: Time 312000, Note Name: C#3, Velocity: 51
Note OFF: Time 312120, Note Name: C#3
Note ON: Time 312120, Note Name: F4, Velocity: 52
Note OFF: Time 312240, Note Name: F4
Note ON: Time 312480, Note Name: A#3, Velocity: 68
Note ON: Time 312600, Note Name: C#4, Velocity: 45
Note OFF: Time 312720, Note Name: C#4
Note ON: Time 312720, Note Name: F4, Velocity: 47
Note OFF: Time 312840, Note Name: F4
Note ON: Time 312840, Note Name: C#4, Velocity: 48
Note OFF: Time 312960, Note Name: C#4
Note OFF: Time 312960, Note Name: A#3
Note ON: Time 312960, Note Name: A3, Velocity: 74
Note ON: Time 313080, Note Name: C#4, Velocity: 50
Note OFF: Time 313200, Note Name: C#4
Note ON: Time 313200, Note Name: F4, Velocity: 49
Note OFF: Time 313320, Note Name: F4
Note ON: Time 313320, Note Name: C#4, Velocity: 50
Note OFF: Time 313440, Note Name: C#4
Note OFF: Time 313440, Note Name: A3
Note ON: Time 313440, Note Name: A#3, Velocity: 77
Note ON: Time 313560, Note Name: C#4, Velocity: 50
Note OFF: Time 313680, Note Name: C#4
Note ON: Time 313680, Note Name: F4, Velocity: 51
Note OFF: Time 313800, Note Name: F4
Note ON: Time 313800, Note Name: C#4, Velocity: 50
Note OFF: Time 313920, Note Name: C#4
Note OFF: Time 313920, Note Name: A#3
Note ON: Time 313920, Note Name: D#3, Velocity: 70
Note OFF: Time 314040, Note Name: D#3
Note ON: Time 314040, Note Name: F#4, Velocity: 55
Note ON: Time 314040, Note Name: B4, Velocity: 55
Note OFF: Time 314160, Note Name: B4
Note OFF: Time 314160, Note Name: F#4
Note ON: Time 314160, Note Name: D#4, Velocity: 59
Note OFF: Time 314280, Note Name: D#4
Note ON: Time 314280, Note Name: F#4, Velocity: 55
Note ON: Time 314280, Note Name: B4, Velocity: 55
Note OFF: Time 314400, Note Name: B4
Note OFF: Time 314400, Note Name: F#4
Note ON: Time 314400, Note Name: D#4, Velocity: 59
Note OFF: Time 314520, Note Name: D#4
Note ON: Time 314520, Note Name: F#4, Velocity: 55
Note ON: Time 314520, Note Name: B4, Velocity: 55
Note OFF: Time 314640, Note Name: B4
Note OFF: Time 314640, Note Name: F#4
Note ON: Time 314640, Note Name: D#4, Velocity: 59
Note OFF: Time 314760, Note Name: D#4
Note ON: Time 314760, Note Name: F#4, Velocity: 56
Note ON: Time 314760, Note Name: B4, Velocity: 56
Note OFF: Time 314880, Note Name: B4
Note OFF: Time 314880, Note Name: F#4
Note ON: Time 314880, Note Name: D#4, Velocity: 59
Note OFF: Time 315000, Note Name: D#4
Note ON: Time 315000, Note Name: F#4, Velocity: 55
Note ON: Time 315000, Note Name: B4, Velocity: 55
Note OFF: Time 315120, Note Name: B4
Note OFF: Time 315120, Note Name: F#4
Note ON: Time 315120, Note Name: D#4, Velocity: 59
Note OFF: Time 315240, Note Name: D#4
Note ON: Time 315240, Note Name: F#4, Velocity: 55
Note ON: Time 315240, Note Name: B4, Velocity: 55
Note OFF: Time 315360, Note Name: B4
Note OFF: Time 315360, Note Name: F#4
Note ON: Time 315360, Note Name: D#4, Velocity: 59
Note OFF: Time 315480, Note Name: D#4
Note ON: Time 315480, Note Name: F#4, Velocity: 55
Note ON: Time 315480, Note Name: B4, Velocity: 55
Note OFF: Time 315600, Note Name: B4
Note OFF: Time 315600, Note Name: F#4
Note ON: Time 315600, Note Name: D#4, Velocity: 59
Note OFF: Time 315720, Note Name: D#4
Note ON: Time 315720, Note Name: F#4, Velocity: 56
Note ON: Time 315720, Note Name: B4, Velocity: 56
Note OFF: Time 315840, Note Name: B4
Note OFF: Time 315840, Note Name: F#4
Note ON: Time 315840, Note Name: F4, Velocity: 59
Note OFF: Time 315960, Note Name: F4
Note ON: Time 315960, Note Name: A4, Velocity: 55
Note ON: Time 315960, Note Name: C5, Velocity: 55
Note ON: Time 315960, Note Name: D#5, Velocity: 55
Note OFF: Time 316080, Note Name: D#5
Note OFF: Time 316080, Note Name: C5
Note OFF: Time 316080, Note Name: A4
Note ON: Time 316080, Note Name: F4, Velocity: 59
Note OFF: Time 316200, Note Name: F4
Note ON: Time 316200, Note Name: A4, Velocity: 55
Note ON: Time 316200, Note Name: C5, Velocity: 55
Note ON: Time 316200, Note Name: D#5, Velocity: 55
Note OFF: Time 316320, Note Name: D#5
Note OFF: Time 316320, Note Name: C5
Note OFF: Time 316320, Note Name: A4
Note ON: Time 316320, Note Name: F4, Velocity: 59
Note OFF: Time 316440, Note Name: F4
Note ON: Time 316440, Note Name: A4, Velocity: 55
Note ON: Time 316440, Note Name: C5, Velocity: 55
Note ON: Time 316440, Note Name: D#5, Velocity: 55
Note OFF: Time 316560, Note Name: D#5
Note OFF: Time 316560, Note Name: C5
Note OFF: Time 316560, Note Name: A4
Note ON: Time 316560, Note Name: F4, Velocity: 59
Note OFF: Time 316680, Note Name: F4
Note ON: Time 316680, Note Name: A4, Velocity: 55
Note ON: Time 316680, Note Name: C5, Velocity: 56
Note ON: Time 316680, Note Name: D#5, Velocity: 56
Note OFF: Time 316800, Note Name: D#5
Note OFF: Time 316800, Note Name: C5
Note OFF: Time 316800, Note Name: A4
Note ON: Time 316800, Note Name: F4, Velocity: 59
Note OFF: Time 316920, Note Name: F4
Note ON: Time 316920, Note Name: A4, Velocity: 55
Note OFF: Time 317040, Note Name: A4
Note ON: Time 317040, Note Name: F4, Velocity: 59
Note OFF: Time 317160, Note Name: F4
Note ON: Time 317160, Note Name: A4, Velocity: 55
Note OFF: Time 317280, Note Name: A4
Note ON: Time 317280, Note Name: F3, Velocity: 59
Note OFF: Time 317400, Note Name: F3
Note ON: Time 317400, Note Name: F4, Velocity: 50
Note OFF: Time 317520, Note Name: F4
Note ON: Time 317520, Note Name: F3, Velocity: 57
Note OFF: Time 317640, Note Name: F3
Note ON: Time 317640, Note Name: F4, Velocity: 49
Note OFF: Time 317760, Note Name: F4
Note ON: Time 317760, Note Name: A#2, Velocity: 59
Note OFF: Time 318000, Note Name: A#2
Note ON: Time 318000, Note Name: A#3, Velocity: 44
Note ON: Time 318000, Note Name: C#4, Velocity: 44
Note OFF: Time 318120, Note Name: C#4
Note OFF: Time 318120, Note Name: A#3
Note ON: Time 318120, Note Name: F4, Velocity: 38
Note OFF: Time 318240, Note Name: F4
Note ON: Time 318240, Note Name: A#3, Velocity: 44
Note ON: Time 318240, Note Name: C#4, Velocity: 44
Note OFF: Time 318360, Note Name: C#4
Note OFF: Time 318360, Note Name: A#3
Note ON: Time 318360, Note Name: F4, Velocity: 38
Note OFF: Time 318480, Note Name: F4
Note ON: Time 318480, Note Name: C#4, Velocity: 44
Note ON: Time 318480, Note Name: A#3, Velocity: 44
Note OFF: Time 318600, Note Name: A#3
Note OFF: Time 318600, Note Name: C#4
Note ON: Time 318600, Note Name: F4, Velocity: 38
Note OFF: Time 318720, Note Name: F4
Note ON: Time 318720, Note Name: A#3, Velocity: 44
Note ON: Time 318720, Note Name: C#4, Velocity: 44
Note OFF: Time 318840, Note Name: C#4
Note OFF: Time 318840, Note Name: A#3
Note ON: Time 318840, Note Name: F4, Velocity: 38
Note OFF: Time 318960, Note Name: F4
Note ON: Time 318960, Note Name: C#4, Velocity: 44
Note ON: Time 318960, Note Name: A#3, Velocity: 44
Note OFF: Time 319080, Note Name: A#3
Note OFF: Time 319080, Note Name: C#4
Note ON: Time 319080, Note Name: E4, Velocity: 38
Note OFF: Time 319200, Note Name: E4
Note ON: Time 319200, Note Name: A#3, Velocity: 44
Note ON: Time 319200, Note Name: C#4, Velocity: 44
Note OFF: Time 319320, Note Name: C#4
Note OFF: Time 319320, Note Name: A#3
Note ON: Time 319320, Note Name: E4, Velocity: 38
Note OFF: Time 319440, Note Name: E4
Note ON: Time 319440, Note Name: A#3, Velocity: 44
Note ON: Time 319440, Note Name: C#4, Velocity: 44
Note OFF: Time 319560, Note Name: C#4
Note OFF: Time 319560, Note Name: A#3
Note ON: Time 319560, Note Name: E4, Velocity: 38
Note OFF: Time 319680, Note Name: E4
Note ON: Time 319680, Note Name: A3, Velocity: 44
Note ON: Time 319680, Note Name: C4, Velocity: 44
Note OFF: Time 319800, Note Name: C4
Note OFF: Time 319800, Note Name: A3
Note ON: Time 319800, Note Name: E4, Velocity: 38
Note OFF: Time 319920, Note Name: E4
Note ON: Time 319920, Note Name: C4, Velocity: 44
Note ON: Time 319920, Note Name: A3, Velocity: 44
Note OFF: Time 320040, Note Name: A3
Note OFF: Time 320040, Note Name: C4
Note ON: Time 320040, Note Name: F4, Velocity: 38
Note OFF: Time 320160, Note Name: F4
Note ON: Time 320160, Note Name: A3, Velocity: 44
Note ON: Time 320160, Note Name: C4, Velocity: 44
Note OFF: Time 320280, Note Name: C4
Note OFF: Time 320280, Note Name: A3
Note ON: Time 320280, Note Name: F4, Velocity: 38
Note OFF: Time 320400, Note Name: F4
Note ON: Time 320400, Note Name: A3, Velocity: 44
Note ON: Time 320400, Note Name: C4, Velocity: 44
Note OFF: Time 320520, Note Name: C4
Note OFF: Time 320520, Note Name: A3
Note ON: Time 320520, Note Name: F4, Velocity: 38
Note OFF: Time 320640, Note Name: F4
Note ON: Time 320640, Note Name: A3, Velocity: 44
Note ON: Time 320640, Note Name: C4, Velocity: 44
Note OFF: Time 320760, Note Name: C4
Note OFF: Time 320760, Note Name: A3
Note ON: Time 320760, Note Name: F4, Velocity: 38
Note OFF: Time 320880, Note Name: F4
Note ON: Time 320880, Note Name: C4, Velocity: 44
Note ON: Time 320880, Note Name: A3, Velocity: 44
Note OFF: Time 321000, Note Name: A3
Note OFF: Time 321000, Note Name: C4
Note ON: Time 321000, Note Name: F4, Velocity: 38
Note OFF: Time 321120, Note Name: F4
Note ON: Time 321120, Note Name: A3, Velocity: 44
Note ON: Time 321120, Note Name: C4, Velocity: 44
Note OFF: Time 321240, Note Name: C4
Note OFF: Time 321240, Note Name: A3
Note ON: Time 321240, Note Name: F4, Velocity: 38
Note OFF: Time 321360, Note Name: F4
Note ON: Time 321360, Note Name: A3, Velocity: 44
Note ON: Time 321360, Note Name: C4, Velocity: 44
Note OFF: Time 321480, Note Name: C4
Note OFF: Time 321480, Note Name: A3
Note ON: Time 321480, Note Name: F4, Velocity: 38
Note OFF: Time 321600, Note Name: F4
Note ON: Time 321600, Note Name: C#4, Velocity: 44
Note ON: Time 321600, Note Name: A#3, Velocity: 44
Note OFF: Time 321720, Note Name: A#3
Note OFF: Time 321720, Note Name: C#4
Note ON: Time 321720, Note Name: F4, Velocity: 38
Note OFF: Time 321840, Note Name: F4
Note ON: Time 321840, Note Name: A#3, Velocity: 58
Note ON: Time 321840, Note Name: C#4, Velocity: 58
Note OFF: Time 321960, Note Name: C#4
Note OFF: Time 321960, Note Name: A#3
Note ON: Time 321960, Note Name: F4, Velocity: 51
Note OFF: Time 322080, Note Name: F4
Note ON: Time 322080, Note Name: A#3, Velocity: 58
Note ON: Time 322080, Note Name: C#4, Velocity: 58
Note OFF: Time 322200, Note Name: C#4
Note OFF: Time 322200, Note Name: A#3
Note ON: Time 322200, Note Name: F4, Velocity: 51
Note OFF: Time 322320, Note Name: F4
Note ON: Time 322320, Note Name: C#4, Velocity: 58
Note ON: Time 322320, Note Name: A#3, Velocity: 58
Note OFF: Time 322440, Note Name: A#3
Note OFF: Time 322440, Note Name: C#4
Note ON: Time 322440, Note Name: F4, Velocity: 51
Note OFF: Time 322560, Note Name: F4
Note ON: Time 322560, Note Name: A#3, Velocity: 58
Note ON: Time 322560, Note Name: C#4, Velocity: 58
Note OFF: Time 322680, Note Name: C#4
Note OFF: Time 322680, Note Name: A#3
Note ON: Time 322680, Note Name: F4, Velocity: 51
Note OFF: Time 322800, Note Name: F4
Note ON: Time 322800, Note Name: C#4, Velocity: 58
Note ON: Time 322800, Note Name: A#3, Velocity: 58
Note OFF: Time 322920, Note Name: A#3
Note OFF: Time 322920, Note Name: C#4
Note ON: Time 322920, Note Name: E4, Velocity: 51
Note OFF: Time 323040, Note Name: E4
Note ON: Time 323040, Note Name: A#3, Velocity: 58
Note ON: Time 323040, Note Name: C#4, Velocity: 58
Note OFF: Time 323160, Note Name: C#4
Note OFF: Time 323160, Note Name: A#3
Note ON: Time 323160, Note Name: E4, Velocity: 51
Note OFF: Time 323280, Note Name: E4
Note ON: Time 323280, Note Name: A#3, Velocity: 58
Note ON: Time 323280, Note Name: C#4, Velocity: 58
Note OFF: Time 323400, Note Name: C#4
Note OFF: Time 323400, Note Name: A#3
Note ON: Time 323400, Note Name: E4, Velocity: 51
Note OFF: Time 323520, Note Name: E4
Note ON: Time 323520, Note Name: A3, Velocity: 58
Note ON: Time 323520, Note Name: C4, Velocity: 58
Note OFF: Time 323640, Note Name: C4
Note OFF: Time 323640, Note Name: A3
Note ON: Time 323640, Note Name: E4, Velocity: 51
Note OFF: Time 323760, Note Name: E4
Note ON: Time 323760, Note Name: C4, Velocity: 58
Note ON: Time 323760, Note Name: A3, Velocity: 58
Note OFF: Time 323880, Note Name: A3
Note OFF: Time 323880, Note Name: C4
Note ON: Time 323880, Note Name: F4, Velocity: 51
Note OFF: Time 324000, Note Name: F4
Note ON: Time 324000, Note Name: A3, Velocity: 58
Note ON: Time 324000, Note Name: C4, Velocity: 58
Note OFF: Time 324120, Note Name: C4
Note OFF: Time 324120, Note Name: A3
Note ON: Time 324120, Note Name: F4, Velocity: 51
Note OFF: Time 324240, Note Name: F4
Note ON: Time 324240, Note Name: A3, Velocity: 58
Note ON: Time 324240, Note Name: C4, Velocity: 58
Note OFF: Time 324360, Note Name: C4
Note OFF: Time 324360, Note Name: A3
Note ON: Time 324360, Note Name: F4, Velocity: 51
Note OFF: Time 324480, Note Name: F4
Note ON: Time 324480, Note Name: A3, Velocity: 58
Note ON: Time 324480, Note Name: C4, Velocity: 58
Note OFF: Time 324600, Note Name: C4
Note OFF: Time 324600, Note Name: A3
Note ON: Time 324600, Note Name: F4, Velocity: 51
Note OFF: Time 324720, Note Name: F4
Note ON: Time 324720, Note Name: C4, Velocity: 58
Note ON: Time 324720, Note Name: A3, Velocity: 58
Note OFF: Time 324840, Note Name: A3
Note OFF: Time 324840, Note Name: C4
Note ON: Time 324840, Note Name: F4, Velocity: 51
Note OFF: Time 324960, Note Name: F4
Note ON: Time 324960, Note Name: A3, Velocity: 58
Note ON: Time 324960, Note Name: C4, Velocity: 58
Note OFF: Time 325080, Note Name: C4
Note OFF: Time 325080, Note Name: A3
Note ON: Time 325080, Note Name: F4, Velocity: 51
Note OFF: Time 325200, Note Name: F4
Note ON: Time 325200, Note Name: A3, Velocity: 58
Note ON: Time 325200, Note Name: C4, Velocity: 58
Note OFF: Time 325320, Note Name: C4
Note OFF: Time 325320, Note Name: A3
Note ON: Time 325320, Note Name: F4, Velocity: 51
Note OFF: Time 325440, Note Name: F4
Note ON: Time 325440, Note Name: C#4, Velocity: 58
Note ON: Time 325440, Note Name: A#3, Velocity: 58
Note OFF: Time 325560, Note Name: A#3
Note OFF: Time 325560, Note Name: C#4
Note ON: Time 325560, Note Name: F4, Velocity: 51
Note OFF: Time 325680, Note Name: F4
Note ON: Time 325680, Note Name: E3, Velocity: 44
Note ON: Time 325680, Note Name: G3, Velocity: 44
Note OFF: Time 325800, Note Name: G3
Note OFF: Time 325800, Note Name: E3
Note ON: Time 325800, Note Name: C4, Velocity: 38
Note OFF: Time 325920, Note Name: C4
Note ON: Time 325920, Note Name: E3, Velocity: 44
Note ON: Time 325920, Note Name: G3, Velocity: 44
Note OFF: Time 326040, Note Name: G3
Note OFF: Time 326040, Note Name: E3
Note ON: Time 326040, Note Name: C4, Velocity: 38
Note OFF: Time 326160, Note Name: C4
Note ON: Time 326160, Note Name: G3, Velocity: 44
Note ON: Time 326160, Note Name: E3, Velocity: 44
Note OFF: Time 326280, Note Name: E3
Note OFF: Time 326280, Note Name: G3
Note ON: Time 326280, Note Name: C4, Velocity: 38
Note OFF: Time 326400, Note Name: C4
Note ON: Time 326400, Note Name: F3, Velocity: 44
Note ON: Time 326400, Note Name: G#3, Velocity: 44
Note OFF: Time 326520, Note Name: G#3
Note OFF: Time 326520, Note Name: F3
Note ON: Time 326520, Note Name: C4, Velocity: 38
Note OFF: Time 326640, Note Name: C4
Note ON: Time 326640, Note Name: G#3, Velocity: 44
Note ON: Time 326640, Note Name: F3, Velocity: 44
Note OFF: Time 326760, Note Name: F3
Note OFF: Time 326760, Note Name: G#3
Note ON: Time 326760, Note Name: D4, Velocity: 38
Note OFF: Time 326880, Note Name: D4
Note ON: Time 326880, Note Name: F3, Velocity: 44
Note ON: Time 326880, Note Name: G#3, Velocity: 44
Note OFF: Time 327000, Note Name: G#3
Note OFF: Time 327000, Note Name: F3
Note ON: Time 327000, Note Name: D4, Velocity: 38
Note OFF: Time 327120, Note Name: D4
Note ON: Time 327120, Note Name: F3, Velocity: 44
Note ON: Time 327120, Note Name: G#3, Velocity: 44
Note OFF: Time 327240, Note Name: G#3
Note OFF: Time 327240, Note Name: F3
Note ON: Time 327240, Note Name: D4, Velocity: 38
Note OFF: Time 327360, Note Name: D4
Note ON: Time 327360, Note Name: E3, Velocity: 44
Note ON: Time 327360, Note Name: G3, Velocity: 44
Note OFF: Time 327480, Note Name: G3
Note OFF: Time 327480, Note Name: E3
Note ON: Time 327480, Note Name: D4, Velocity: 38
Note OFF: Time 327600, Note Name: D4
Note ON: Time 327600, Note Name: G3, Velocity: 44
Note ON: Time 327600, Note Name: E3, Velocity: 44
Note OFF: Time 327720, Note Name: E3
Note OFF: Time 327720, Note Name: G3
Note ON: Time 327720, Note Name: C4, Velocity: 38
Note OFF: Time 327840, Note Name: C4
Note ON: Time 327840, Note Name: E3, Velocity: 44
Note ON: Time 327840, Note Name: G3, Velocity: 44
Note OFF: Time 327960, Note Name: G3
Note OFF: Time 327960, Note Name: E3
Note ON: Time 327960, Note Name: C4, Velocity: 38
Note OFF: Time 328080, Note Name: C4
Note ON: Time 328080, Note Name: E3, Velocity: 44
Note ON: Time 328080, Note Name: G3, Velocity: 44
Note OFF: Time 328200, Note Name: G3
Note OFF: Time 328200, Note Name: E3
Note ON: Time 328200, Note Name: C4, Velocity: 38
Note OFF: Time 328320, Note Name: C4
Note ON: Time 328320, Note Name: E3, Velocity: 44
Note ON: Time 328320, Note Name: G3, Velocity: 44
Note OFF: Time 328440, Note Name: G3
Note OFF: Time 328440, Note Name: E3
Note ON: Time 328440, Note Name: C4, Velocity: 38
Note OFF: Time 328560, Note Name: C4
Note ON: Time 328560, Note Name: G3, Velocity: 44
Note ON: Time 328560, Note Name: E3, Velocity: 44
Note OFF: Time 328680, Note Name: E3
Note OFF: Time 328680, Note Name: G3
Note ON: Time 328680, Note Name: C4, Velocity: 38
Note OFF: Time 328800, Note Name: C4
Note ON: Time 328800, Note Name: E3, Velocity: 44
Note ON: Time 328800, Note Name: G3, Velocity: 44
Note OFF: Time 328920, Note Name: G3
Note OFF: Time 328920, Note Name: E3
Note ON: Time 328920, Note Name: C4, Velocity: 38
Note OFF: Time 329040, Note Name: C4
Note ON: Time 329040, Note Name: E3, Velocity: 44
Note ON: Time 329040, Note Name: G3, Velocity: 44
Note OFF: Time 329160, Note Name: G3
Note OFF: Time 329160, Note Name: E3
Note ON: Time 329160, Note Name: C4, Velocity: 38
Note OFF: Time 329280, Note Name: C4
Note ON: Time 329280, Note Name: G#3, Velocity: 44
Note ON: Time 329280, Note Name: F3, Velocity: 44
Note OFF: Time 329400, Note Name: F3
Note OFF: Time 329400, Note Name: G#3
Note ON: Time 329400, Note Name: C4, Velocity: 38
Note OFF: Time 329520, Note Name: C4
Note ON: Time 329520, Note Name: F3, Velocity: 58
Note ON: Time 329520, Note Name: G#3, Velocity: 58
Note OFF: Time 329640, Note Name: G#3
Note OFF: Time 329640, Note Name: F3
Note ON: Time 329640, Note Name: C4, Velocity: 51
Note OFF: Time 329760, Note Name: C4
Note ON: Time 329760, Note Name: F3, Velocity: 58
Note ON: Time 329760, Note Name: G#3, Velocity: 58
Note OFF: Time 329880, Note Name: G#3
Note OFF: Time 329880, Note Name: F3
Note ON: Time 329880, Note Name: C4, Velocity: 51
Note OFF: Time 330000, Note Name: C4
Note ON: Time 330000, Note Name: G#3, Velocity: 58
Note ON: Time 330000, Note Name: F3, Velocity: 58
Note OFF: Time 330120, Note Name: F3
Note OFF: Time 330120, Note Name: G#3
Note ON: Time 330120, Note Name: C4, Velocity: 51
Note OFF: Time 330240, Note Name: C4
Note ON: Time 330240, Note Name: F3, Velocity: 58
Note ON: Time 330240, Note Name: G#3, Velocity: 58
Note OFF: Time 330360, Note Name: G#3
Note OFF: Time 330360, Note Name: F3
Note ON: Time 330360, Note Name: C4, Velocity: 51
Note OFF: Time 330480, Note Name: C4
Note ON: Time 330480, Note Name: G#3, Velocity: 58
Note ON: Time 330480, Note Name: F3, Velocity: 58
Note OFF: Time 330600, Note Name: F3
Note OFF: Time 330600, Note Name: G#3
Note ON: Time 330600, Note Name: D4, Velocity: 51
Note OFF: Time 330720, Note Name: D4
Note ON: Time 330720, Note Name: F3, Velocity: 58
Note ON: Time 330720, Note Name: G#3, Velocity: 58
Note OFF: Time 330840, Note Name: G#3
Note OFF: Time 330840, Note Name: F3
Note ON: Time 330840, Note Name: D4, Velocity: 51
Note OFF: Time 330960, Note Name: D4
Note ON: Time 330960, Note Name: F3, Velocity: 58
Note ON: Time 330960, Note Name: G#3, Velocity: 58
Note OFF: Time 331080, Note Name: G#3
Note OFF: Time 331080, Note Name: F3
Note ON: Time 331080, Note Name: D4, Velocity: 51
Note OFF: Time 331200, Note Name: D4
Note ON: Time 331200, Note Name: E3, Velocity: 58
Note ON: Time 331200, Note Name: G3, Velocity: 58
Note OFF: Time 331320, Note Name: G3
Note OFF: Time 331320, Note Name: E3
Note ON: Time 331320, Note Name: D4, Velocity: 51
Note OFF: Time 331440, Note Name: D4
Note ON: Time 331440, Note Name: G3, Velocity: 58
Note ON: Time 331440, Note Name: E3, Velocity: 58
Note OFF: Time 331560, Note Name: E3
Note OFF: Time 331560, Note Name: G3
Note ON: Time 331560, Note Name: C4, Velocity: 51
Note OFF: Time 331680, Note Name: C4
Note ON: Time 331680, Note Name: E3, Velocity: 58
Note ON: Time 331680, Note Name: G3, Velocity: 58
Note OFF: Time 331800, Note Name: G3
Note OFF: Time 331800, Note Name: E3
Note ON: Time 331800, Note Name: C4, Velocity: 51
Note OFF: Time 331920, Note Name: C4
Note ON: Time 331920, Note Name: E3, Velocity: 58
Note ON: Time 331920, Note Name: G3, Velocity: 58
Note OFF: Time 332040, Note Name: G3
Note OFF: Time 332040, Note Name: E3
Note ON: Time 332040, Note Name: C4, Velocity: 51
Note OFF: Time 332160, Note Name: C4
Note ON: Time 332160, Note Name: E3, Velocity: 58
Note ON: Time 332160, Note Name: G3, Velocity: 58
Note OFF: Time 332280, Note Name: G3
Note OFF: Time 332280, Note Name: E3
Note ON: Time 332280, Note Name: C4, Velocity: 51
Note OFF: Time 332400, Note Name: C4
Note ON: Time 332400, Note Name: G3, Velocity: 58
Note ON: Time 332400, Note Name: E3, Velocity: 58
Note OFF: Time 332520, Note Name: E3
Note OFF: Time 332520, Note Name: G3
Note ON: Time 332520, Note Name: C4, Velocity: 51
Note OFF: Time 332640, Note Name: C4
Note ON: Time 332640, Note Name: E3, Velocity: 58
Note ON: Time 332640, Note Name: G3, Velocity: 58
Note OFF: Time 332760, Note Name: G3
Note OFF: Time 332760, Note Name: E3
Note ON: Time 332760, Note Name: C4, Velocity: 51
Note OFF: Time 332880, Note Name: C4
Note ON: Time 332880, Note Name: E3, Velocity: 58
Note ON: Time 332880, Note Name: G3, Velocity: 58
Note OFF: Time 333000, Note Name: G3
Note OFF: Time 333000, Note Name: E3
Note ON: Time 333000, Note Name: C4, Velocity: 51
Note OFF: Time 333120, Note Name: C4
Note ON: Time 333120, Note Name: F2, Velocity: 61
Note ON: Time 333120, Note Name: G#2, Velocity: 61
Note ON: Time 333120, Note Name: C3, Velocity: 61
Note ON: Time 333120, Note Name: F3, Velocity: 72
Note OFF: Time 333600, Note Name: F3
Note OFF: Time 333600, Note Name: F2
Note OFF: Time 333600, Note Name: G#2
Note OFF: Time 333600, Note Name: C3
Note ON: Time 333720, Note Name: C3, Velocity: 56
Note OFF: Time 333840, Note Name: C3
Note ON: Time 333840, Note Name: F3, Velocity: 58
Note OFF: Time 333960, Note Name: F3
Note ON: Time 333960, Note Name: G#3, Velocity: 60
Note OFF: Time 334080, Note Name: G#3
Note ON: Time 334080, Note Name: C4, Velocity: 66
Note OFF: Time 334200, Note Name: C4
Note ON: Time 334200, Note Name: C#4, Velocity: 60
Note OFF: Time 334320, Note Name: C#4
Note ON: Time 334320, Note Name: C4, Velocity: 61
Note OFF: Time 334440, Note Name: C4
Note ON: Time 334440, Note Name: A#3, Velocity: 61
Note OFF: Time 334560, Note Name: A#3
Note ON: Time 334560, Note Name: G#3, Velocity: 67
Note OFF: Time 334680, Note Name: G#3
Note ON: Time 334680, Note Name: A#3, Velocity: 60
Note OFF: Time 334800, Note Name: A#3
Note ON: Time 334800, Note Name: C4, Velocity: 60
Note OFF: Time 334920, Note Name: C4
Note ON: Time 334920, Note Name: G#3, Velocity: 60
Note OFF: Time 335040, Note Name: G#3
Note ON: Time 335040, Note Name: A#3, Velocity: 72
Note OFF: Time 335160, Note Name: A#3
Note ON: Time 335160, Note Name: C4, Velocity: 60
Note OFF: Time 335280, Note Name: C4
Note ON: Time 335280, Note Name: A#3, Velocity: 60
Note OFF: Time 335400, Note Name: A#3
Note ON: Time 335400, Note Name: G#3, Velocity: 60
Note OFF: Time 335520, Note Name: G#3
Note ON: Time 335520, Note Name: F#3, Velocity: 68
Note OFF: Time 335640, Note Name: F#3
Note ON: Time 335640, Note Name: C#3, Velocity: 57
Note OFF: Time 335760, Note Name: C#3
Note ON: Time 335760, Note Name: F#3, Velocity: 60
Note OFF: Time 335880, Note Name: F#3
Note ON: Time 335880, Note Name: A#3, Velocity: 62
Note OFF: Time 336000, Note Name: A#3
Note ON: Time 336000, Note Name: C#4, Velocity: 69
Note OFF: Time 336120, Note Name: C#4
Note ON: Time 336120, Note Name: D#4, Velocity: 63
Note OFF: Time 336240, Note Name: D#4
Note ON: Time 336240, Note Name: C#4, Velocity: 63
Note OFF: Time 336360, Note Name: C#4
Note ON: Time 336360, Note Name: C4, Velocity: 63
Note OFF: Time 336480, Note Name: C4
Note ON: Time 336480, Note Name: A#3, Velocity: 69
Note OFF: Time 336600, Note Name: A#3
Note ON: Time 336600, Note Name: C4, Velocity: 62
Note OFF: Time 336720, Note Name: C4
Note ON: Time 336720, Note Name: C#4, Velocity: 62
Note OFF: Time 336840, Note Name: C#4
Note ON: Time 336840, Note Name: A#3, Velocity: 62
Note OFF: Time 336960, Note Name: A#3
Note ON: Time 336960, Note Name: C4, Velocity: 74
Note OFF: Time 337080, Note Name: C4
Note ON: Time 337080, Note Name: C#4, Velocity: 62
Note OFF: Time 337200, Note Name: C#4
Note ON: Time 337200, Note Name: C4, Velocity: 63
Note OFF: Time 337320, Note Name: C4
Note ON: Time 337320, Note Name: A#3, Velocity: 63
Note OFF: Time 337440, Note Name: A#3
Note ON: Time 337440, Note Name: A3, Velocity: 70
Note OFF: Time 337560, Note Name: A3
Note ON: Time 337560, Note Name: D#3, Velocity: 59
Note OFF: Time 337680, Note Name: D#3
Note ON: Time 337680, Note Name: A3, Velocity: 62
Note OFF: Time 337800, Note Name: A3
Note ON: Time 337800, Note Name: C4, Velocity: 65
Note OFF: Time 337920, Note Name: C4
Note ON: Time 337920, Note Name: D#4, Velocity: 71
Note OFF: Time 338040, Note Name: D#4
Note ON: Time 338040, Note Name: F4, Velocity: 65
Note OFF: Time 338160, Note Name: F4
Note ON: Time 338160, Note Name: D#4, Velocity: 65
Note OFF: Time 338280, Note Name: D#4
Note ON: Time 338280, Note Name: C#4, Velocity: 65
Note OFF: Time 338400, Note Name: C#4
Note ON: Time 338400, Note Name: C4, Velocity: 72
Note OFF: Time 338520, Note Name: C4
Note ON: Time 338520, Note Name: C#4, Velocity: 64
Note OFF: Time 338640, Note Name: C#4
Note ON: Time 338640, Note Name: D#4, Velocity: 64
Note OFF: Time 338760, Note Name: D#4
Note ON: Time 338760, Note Name: C4, Velocity: 64
Note OFF: Time 338880, Note Name: C4
Note ON: Time 338880, Note Name: C#4, Velocity: 70
Note OFF: Time 339000, Note Name: C#4
Note ON: Time 339000, Note Name: F3, Velocity: 59
Note OFF: Time 339120, Note Name: F3
Note ON: Time 339120, Note Name: A#3, Velocity: 63
Note OFF: Time 339240, Note Name: A#3
Note ON: Time 339240, Note Name: C#4, Velocity: 66
Note OFF: Time 339360, Note Name: C#4
Note ON: Time 339360, Note Name: F4, Velocity: 65
Note OFF: Time 339480, Note Name: F4
Note ON: Time 339480, Note Name: F#4, Velocity: 65
Note OFF: Time 339600, Note Name: F#4
Note ON: Time 339600, Note Name: F4, Velocity: 65
Note OFF: Time 339720, Note Name: F4
Note ON: Time 339720, Note Name: D#4, Velocity: 64
Note OFF: Time 339840, Note Name: D#4
Note ON: Time 339840, Note Name: C#4, Velocity: 64
Note OFF: Time 339960, Note Name: C#4
Note ON: Time 339960, Note Name: C4, Velocity: 64
Note OFF: Time 340080, Note Name: C4
Note ON: Time 340080, Note Name: A#3, Velocity: 63
Note OFF: Time 340200, Note Name: A#3
Note ON: Time 340200, Note Name: G#3, Velocity: 63
Note OFF: Time 340320, Note Name: G#3
Note ON: Time 340320, Note Name: F#3, Velocity: 62
Note OFF: Time 340440, Note Name: F#3
Note ON: Time 340440, Note Name: F3, Velocity: 62
Note OFF: Time 340560, Note Name: F3
Note ON: Time 340560, Note Name: D#3, Velocity: 62
Note OFF: Time 340680, Note Name: D#3
Note ON: Time 340680, Note Name: C#3, Velocity: 61
Note OFF: Time 340800, Note Name: C#3
Note ON: Time 340800, Note Name: C3, Velocity: 61
Note OFF: Time 340920, Note Name: C3
Note ON: Time 340920, Note Name: A#2, Velocity: 61
Note OFF: Time 341040, Note Name: A#2
Note ON: Time 341040, Note Name: G#2, Velocity: 60
Note OFF: Time 341160, Note Name: G#2
Note ON: Time 341160, Note Name: F#2, Velocity: 60
Note OFF: Time 341280, Note Name: F#2
Note ON: Time 341280, Note Name: F2, Velocity: 59
Note OFF: Time 341400, Note Name: F2
Note ON: Time 341400, Note Name: D#2, Velocity: 59
Note OFF: Time 341520, Note Name: D#2
Note ON: Time 341520, Note Name: C#2, Velocity: 59
Note OFF: Time 341640, Note Name: C#2
Note ON: Time 341640, Note Name: C2, Velocity: 59
Note OFF: Time 341760, Note Name: C2
Note ON: Time 341760, Note Name: A#1, Velocity: 59
Note OFF: Time 341880, Note Name: A#1
Note ON: Time 341880, Note Name: C2, Velocity: 59
Note OFF: Time 342000, Note Name: C2
Note ON: Time 342000, Note Name: C#2, Velocity: 62
Note OFF: Time 342120, Note Name: C#2
Note ON: Time 342120, Note Name: C2, Velocity: 64
Note OFF: Time 342240, Note Name: C2
Note ON: Time 342240, Note Name: A#1, Velocity: 65
Note OFF: Time 342480, Note Name: A#1
Note ON: Time 342480, Note Name: B1, Velocity: 72
Note OFF: Time 342720, Note Name: B1
Note ON: Time 342720, Note Name: C2, Velocity: 89
Note OFF: Time 342840, Note Name: C2
Note ON: Time 342960, Note Name: E2, Velocity: 76
Note OFF: Time 343080, Note Name: E2
Note ON: Time 343200, Note Name: C2, Velocity: 76
Note OFF: Time 343320, Note Name: C2
Note ON: Time 343440, Note Name: F2, Velocity: 76
Note OFF: Time 343560, Note Name: F2
Note ON: Time 343680, Note Name: C2, Velocity: 76
Note OFF: Time 343800, Note Name: C2
Note ON: Time 343920, Note Name: G2, Velocity: 76
Note OFF: Time 344040, Note Name: G2
Note ON: Time 344160, Note Name: C2, Velocity: 76
Note OFF: Time 344280, Note Name: C2
Note ON: Time 344400, Note Name: G#2, Velocity: 76
Note OFF: Time 344520, Note Name: G#2
Note ON: Time 344640, Note Name: C2, Velocity: 74
Note OFF: Time 344760, Note Name: C2
Note ON: Time 344880, Note Name: A#2, Velocity: 74
Note OFF: Time 345000, Note Name: A#2
Note ON: Time 345120, Note Name: C2, Velocity: 75
Note OFF: Time 345240, Note Name: C2
Note ON: Time 345360, Note Name: G#2, Velocity: 76
Note OFF: Time 345480, Note Name: G#2
Note ON: Time 345600, Note Name: C2, Velocity: 77
Note OFF: Time 345720, Note Name: C2
Note ON: Time 345840, Note Name: G2, Velocity: 78
Note OFF: Time 345960, Note Name: G2
Note ON: Time 346080, Note Name: C2, Velocity: 79
Note OFF: Time 346200, Note Name: C2
Note ON: Time 346320, Note Name: F2, Velocity: 80
Note OFF: Time 346440, Note Name: F2
Note ON: Time 346560, Note Name: C2, Velocity: 81
Note OFF: Time 346680, Note Name: C2
Note ON: Time 346800, Note Name: E2, Velocity: 82
Note OFF: Time 346920, Note Name: E2
Note ON: Time 347040, Note Name: C2, Velocity: 82
Note OFF: Time 347160, Note Name: C2
Note ON: Time 347280, Note Name: F2, Velocity: 83
Note OFF: Time 347400, Note Name: F2
Note ON: Time 347520, Note Name: C2, Velocity: 84
Note OFF: Time 347640, Note Name: C2
Note ON: Time 347760, Note Name: G2, Velocity: 85
Note OFF: Time 347880, Note Name: G2
Note ON: Time 348000, Note Name: C2, Velocity: 86
Note OFF: Time 348120, Note Name: C2
Note ON: Time 348240, Note Name: G#2, Velocity: 87
Note OFF: Time 348360, Note Name: G#2
Note ON: Time 348480, Note Name: C2, Velocity: 88
Note OFF: Time 348600, Note Name: C2
Note ON: Time 348720, Note Name: A2, Velocity: 89
Note OFF: Time 348840, Note Name: A2
Note ON: Time 348960, Note Name: C2, Velocity: 91
Note OFF: Time 349080, Note Name: C2
Note ON: Time 349200, Note Name: A#2, Velocity: 92
Note OFF: Time 349320, Note Name: A#2
Note ON: Time 349440, Note Name: C2, Velocity: 94
Note OFF: Time 349560, Note Name: C2
Note ON: Time 349680, Note Name: B2, Velocity: 96
Note OFF: Time 349800, Note Name: B2
Note ON: Time 349920, Note Name: C2, Velocity: 99
Note OFF: Time 350040, Note Name: C2
Note ON: Time 350160, Note Name: C3, Velocity: 101
Note OFF: Time 350280, Note Name: C3
Note ON: Time 350400, Note Name: A#1, Velocity: 86
Note ON: Time 350400, Note Name: C#2, Velocity: 86
Note ON: Time 350400, Note Name: F#2, Velocity: 86
Note ON: Time 350400, Note Name: A#2, Velocity: 102
Note ON: Time 350520, Note Name: C#3, Velocity: 72
Note OFF: Time 350640, Note Name: C#3
Note OFF: Time 350640, Note Name: F#2
Note OFF: Time 350640, Note Name: A#1
Note OFF: Time 350640, Note Name: C#2
Note OFF: Time 350640, Note Name: A#2
Note ON: Time 350640, Note Name: F#3, Velocity: 75
Note OFF: Time 350760, Note Name: F#3
Note ON: Time 350760, Note Name: A#3, Velocity: 76
Note OFF: Time 350880, Note Name: A#3
Note ON: Time 350880, Note Name: C#4, Velocity: 90
Note OFF: Time 351000, Note Name: C#4
Note ON: Time 351000, Note Name: A#2, Velocity: 71
Note OFF: Time 351120, Note Name: A#2
Note ON: Time 351120, Note Name: C#3, Velocity: 74
Note OFF: Time 351240, Note Name: C#3
Note ON: Time 351240, Note Name: F#3, Velocity: 76
Note OFF: Time 351360, Note Name: F#3
Note ON: Time 351360, Note Name: A#3, Velocity: 91
Note OFF: Time 351480, Note Name: A#3
Note ON: Time 351960, Note Name: A#3, Velocity: 73
Note OFF: Time 352080, Note Name: A#3
Note ON: Time 352080, Note Name: C#4, Velocity: 76
Note OFF: Time 352200, Note Name: C#4
Note ON: Time 352200, Note Name: F#4, Velocity: 78
Note OFF: Time 352320, Note Name: F#4
Note ON: Time 352320, Note Name: A#4, Velocity: 86
Note OFF: Time 352440, Note Name: A#4
Note ON: Time 354240, Note Name: C2, Velocity: 79
Note ON: Time 354240, Note Name: G2, Velocity: 79
Note ON: Time 354240, Note Name: A#2, Velocity: 94
Note ON: Time 354240, Note Name: C3, Velocity: 97
Note ON: Time 354360, Note Name: E3, Velocity: 72
Note OFF: Time 354480, Note Name: E3
Note OFF: Time 354480, Note Name: A#2
Note OFF: Time 354480, Note Name: C2
Note OFF: Time 354480, Note Name: G2
Note OFF: Time 354480, Note Name: C3
Note ON: Time 354480, Note Name: G3, Velocity: 75
Note OFF: Time 354600, Note Name: G3
Note ON: Time 354600, Note Name: A#3, Velocity: 76
Note OFF: Time 354720, Note Name: A#3
Note ON: Time 354840, Note Name: C3, Velocity: 71
Note OFF: Time 354960, Note Name: C3
Note ON: Time 354960, Note Name: G3, Velocity: 74
Note OFF: Time 355080, Note Name: G3
Note ON: Time 355080, Note Name: A#3, Velocity: 76
Note OFF: Time 355200, Note Name: A#3
Note ON: Time 355200, Note Name: C4, Velocity: 90
Note OFF: Time 355320, Note Name: C4
Note ON: Time 355800, Note Name: C4, Velocity: 73
Note OFF: Time 355920, Note Name: C4
Note ON: Time 355920, Note Name: G4, Velocity: 76
Note OFF: Time 356040, Note Name: G4
Note ON: Time 356040, Note Name: A#4, Velocity: 78
Note OFF: Time 356160, Note Name: A#4
Note ON: Time 356160, Note Name: C5, Velocity: 89
Note OFF: Time 356280, Note Name: C5
Note ON: Time 358080, Note Name: C#2, Velocity: 58
Note OFF: Time 358240, Note Name: C#2
Note ON: Time 358240, Note Name: C#3, Velocity: 50
Note OFF: Time 358400, Note Name: C#3
Note ON: Time 358400, Note Name: E3, Velocity: 50
Note OFF: Time 358560, Note Name: E3
Note ON: Time 358560, Note Name: G3, Velocity: 50
Note OFF: Time 358680, Note Name: G3
Note ON: Time 358680, Note Name: A#3, Velocity: 54
Note OFF: Time 358800, Note Name: A#3
Note ON: Time 360000, Note Name: E2, Velocity: 55
Note OFF: Time 360160, Note Name: E2
Note ON: Time 360160, Note Name: E3, Velocity: 47
Note OFF: Time 360320, Note Name: E3
Note ON: Time 360320, Note Name: G3, Velocity: 47
Note OFF: Time 360480, Note Name: G3
Note ON: Time 361920, Note Name: G2, Velocity: 52
Note OFF: Time 362080, Note Name: G2
Note ON: Time 362080, Note Name: G3, Velocity: 44
Note OFF: Time 362240, Note Name: G3
Note ON: Time 362240, Note Name: A#3, Velocity: 44
Note OFF: Time 362400, Note Name: A#3
Note ON: Time 363840, Note Name: A#2, Velocity: 49
Note OFF: Time 364000, Note Name: A#2
Note ON: Time 364000, Note Name: A#3, Velocity: 41
Note OFF: Time 364160, Note Name: A#3
Note ON: Time 364160, Note Name: C#4, Velocity: 41
Note OFF: Time 364320, Note Name: C#4
Note ON: Time 365760, Note Name: C#3, Velocity: 40
Note OFF: Time 366000, Note Name: C#3
Note ON: Time 366000, Note Name: E3, Velocity: 36
Note OFF: Time 366240, Note Name: E3
Note ON: Time 366240, Note Name: G3, Velocity: 36
Note OFF: Time 366480, Note Name: G3
Note ON: Time 366480, Note Name: A#3, Velocity: 36
Note OFF: Time 366720, Note Name: A#3
Note ON: Time 372240, Note Name: A#3, Velocity: 38
Note OFF: Time 372480, Note Name: A#3
Note ON: Time 372480, Note Name: G3, Velocity: 38
Note OFF: Time 372720, Note Name: G3
Note ON: Time 372720, Note Name: E3, Velocity: 37
Note OFF: Time 372960, Note Name: E3
Note ON: Time 372960, Note Name: C#3, Velocity: 36
Note OFF: Time 373200, Note Name: C#3
Note ON: Time 373200, Note Name: A#2, Velocity: 35
Note OFF: Time 373440, Note Name: A#2
Note ON: Time 373440, Note Name: G2, Velocity: 35
Note OFF: Time 374400, Note Name: G2
Note ON: Time 374400, Note Name: E2, Velocity: 36
Note OFF: Time 375360, Note Name: E2
Note ON: Time 375360, Note Name: C#2, Velocity: 35
Note OFF: Time 376320, Note Name: C#2
Note ON: Time 376320, Note Name: A#1, Velocity: 34
Note OFF: Time 377280, Note Name: A#1
Note ON: Time 377280, Note Name: G1, Velocity: 34
Note OFF: Time 379200, Note Name: G1
Note ON: Time 379200, Note Name: E3, Velocity: 34
Note ON: Time 379200, Note Name: C3, Velocity: 34
Note ON: Time 379200, Note Name: A#2, Velocity: 34
Note ON: Time 379200, Note Name: G2, Velocity: 34
Note ON: Time 379200, Note Name: C2, Velocity: 34
Note OFF: Time 379920, Note Name: G2
Note OFF: Time 379920, Note Name: A#2
Note OFF: Time 379920, Note Name: E3
Note OFF: Time 379920, Note Name: C3
Note ON: Time 384000, Note Name: G2, Velocity: 34
Note ON: Time 384000, Note Name: A#2, Velocity: 34
Note ON: Time 384000, Note Name: C3, Velocity: 34
Note ON: Time 384000, Note Name: E3, Velocity: 34
Note OFF: Time 384720, Note Name: E3
Note OFF: Time 384720, Note Name: A#2
Note OFF: Time 384720, Note Name: C3
Note OFF: Time 384720, Note Name: G2
Note OFF: Time 384840, Note Name: C2
Note ON: Time 384840, Note Name: C2, Velocity: 34
Note OFF: Time 384960, Note Name: C2
Note ON: Time 384960, Note Name: F2, Velocity: 39
Note ON: Time 384960, Note Name: F1, Velocity: 39
Note OFF: Time 385440, Note Name: F1
Note OFF: Time 385440, Note Name: F2
Note ON: Time 386880, Note Name: F2, Velocity: 40
Note ON: Time 386880, Note Name: F1, Velocity: 40
Note OFF: Time 387360, Note Name: F1
Note OFF: Time 387360, Note Name: F2
Note ON: Time 387720, Note Name: G#4, Velocity: 51
Note ON: Time 387720, Note Name: C5, Velocity: 51
Note OFF: Time 387840, Note Name: C5
Note OFF: Time 387840, Note Name: G#4
Note ON: Time 387840, Note Name: G#4, Velocity: 56
Note ON: Time 387840, Note Name: C5, Velocity: 56
Note OFF: Time 388320, Note Name: C5
Note OFF: Time 388320, Note Name: G#4
Note ON: Time 388320, Note Name: F4, Velocity: 30
Note ON: Time 388320, Note Name: G#4, Velocity: 30
Note OFF: Time 388560, Note Name: G#4
Note OFF: Time 388560, Note Name: F4
Note ON: Time 388800, Note Name: A#2, Velocity: 40
Note ON: Time 388800, Note Name: A#1, Velocity: 40
Note OFF: Time 389280, Note Name: A#1
Note OFF: Time 389280, Note Name: A#2
Note ON: Time 389640, Note Name: A#4, Velocity: 63
Note ON: Time 389640, Note Name: C#5, Velocity: 63
Note OFF: Time 389760, Note Name: C#5
Note OFF: Time 389760, Note Name: A#4
Note ON: Time 389760, Note Name: A#4, Velocity: 70
Note ON: Time 389760, Note Name: C#5, Velocity: 70
Note OFF: Time 390720, Note Name: C#5
Note OFF: Time 390720, Note Name: A#4
Note ON: Time 390720, Note Name: A#4, Velocity: 51
Note ON: Time 390720, Note Name: C5, Velocity: 51
Note OFF: Time 390960, Note Name: C5
Note OFF: Time 390960, Note Name: A#4
Note ON: Time 390960, Note Name: C3, Velocity: 43
Note ON: Time 390960, Note Name: C2, Velocity: 43
Note OFF: Time 391200, Note Name: C2
Note OFF: Time 391200, Note Name: C3
Note ON: Time 391440, Note Name: C#3, Velocity: 37
Note ON: Time 391440, Note Name: C#2, Velocity: 37
Note OFF: Time 391680, Note Name: C#2
Note OFF: Time 391680, Note Name: C#3
Note ON: Time 391920, Note Name: A#2, Velocity: 39
Note ON: Time 391920, Note Name: A#1, Velocity: 39
Note OFF: Time 392160, Note Name: A#1
Note OFF: Time 392160, Note Name: A#2
Note ON: Time 392400, Note Name: C3, Velocity: 35
Note ON: Time 392400, Note Name: C2, Velocity: 35
Note OFF: Time 392640, Note Name: C2
Note OFF: Time 392640, Note Name: C3
Note ON: Time 392640, Note Name: F1, Velocity: 40
Note ON: Time 392640, Note Name: F2, Velocity: 40
Note OFF: Time 392760, Note Name: F2
Note OFF: Time 392760, Note Name: F1
Note ON: Time 392760, Note Name: C3, Velocity: 37
Note OFF: Time 392880, Note Name: C3
Note ON: Time 392880, Note Name: F3, Velocity: 37
Note OFF: Time 393000, Note Name: F3
Note ON: Time 393000, Note Name: G#3, Velocity: 40
Note OFF: Time 393120, Note Name: G#3
Note ON: Time 393120, Note Name: C4, Velocity: 38
Note OFF: Time 393240, Note Name: C4
Note ON: Time 393240, Note Name: C#4, Velocity: 38
Note OFF: Time 393360, Note Name: C#4
Note ON: Time 393360, Note Name: C4, Velocity: 38
Note OFF: Time 393480, Note Name: C4
Note ON: Time 393480, Note Name: A#3, Velocity: 40
Note OFF: Time 393600, Note Name: A#3
Note ON: Time 393600, Note Name: G#3, Velocity: 37
Note OFF: Time 393720, Note Name: G#3
Note ON: Time 393720, Note Name: A#3, Velocity: 37
Note OFF: Time 393840, Note Name: A#3
Note ON: Time 393840, Note Name: G#3, Velocity: 37
Note OFF: Time 393960, Note Name: G#3
Note ON: Time 393960, Note Name: G3, Velocity: 40
Note OFF: Time 394080, Note Name: G3
Note ON: Time 394080, Note Name: F3, Velocity: 37
Note OFF: Time 394200, Note Name: F3
Note ON: Time 394200, Note Name: G3, Velocity: 37
Note OFF: Time 394320, Note Name: G3
Note ON: Time 394320, Note Name: G#3, Velocity: 37
Note OFF: Time 394440, Note Name: G#3
Note ON: Time 394440, Note Name: F3, Velocity: 37
Note OFF: Time 394560, Note Name: F3
Note ON: Time 394560, Note Name: G#3, Velocity: 40
Note OFF: Time 394680, Note Name: G#3
Note ON: Time 394680, Note Name: C3, Velocity: 37
Note OFF: Time 394800, Note Name: C3
Note ON: Time 394800, Note Name: F3, Velocity: 37
Note OFF: Time 394920, Note Name: F3
Note ON: Time 394920, Note Name: G#3, Velocity: 40
Note OFF: Time 395040, Note Name: G#3
Note ON: Time 395040, Note Name: C4, Velocity: 38
Note OFF: Time 395160, Note Name: C4
Note ON: Time 395160, Note Name: C#4, Velocity: 38
Note OFF: Time 395280, Note Name: C#4
Note ON: Time 395280, Note Name: C4, Velocity: 38
Note OFF: Time 395400, Note Name: C4
Note ON: Time 395400, Note Name: A#3, Velocity: 40
Note OFF: Time 395520, Note Name: A#3
Note ON: Time 395520, Note Name: G#3, Velocity: 37
Note OFF: Time 395640, Note Name: G#3
Note ON: Time 395640, Note Name: A#3, Velocity: 37
Note OFF: Time 395760, Note Name: A#3
Note ON: Time 395760, Note Name: G#3, Velocity: 37
Note OFF: Time 395880, Note Name: G#3
Note ON: Time 395880, Note Name: G3, Velocity: 40
Note OFF: Time 396000, Note Name: G3
Note ON: Time 396000, Note Name: F3, Velocity: 37
Note OFF: Time 396120, Note Name: F3
Note ON: Time 396120, Note Name: G3, Velocity: 37
Note OFF: Time 396240, Note Name: G3
Note ON: Time 396240, Note Name: G#3, Velocity: 37
Note OFF: Time 396360, Note Name: G#3
Note ON: Time 396360, Note Name: F3, Velocity: 37
Note OFF: Time 396480, Note Name: F3
Note ON: Time 396480, Note Name: A#3, Velocity: 44
Note OFF: Time 396600, Note Name: A#3
Note ON: Time 396600, Note Name: C#3, Velocity: 40
Note OFF: Time 396720, Note Name: C#3
Note ON: Time 396720, Note Name: F#3, Velocity: 40
Note OFF: Time 396840, Note Name: F#3
Note ON: Time 396840, Note Name: A#3, Velocity: 44
Note OFF: Time 396960, Note Name: A#3
Note ON: Time 396960, Note Name: C#4, Velocity: 41
Note OFF: Time 397080, Note Name: C#4
Note ON: Time 397080, Note Name: D#4, Velocity: 41
Note OFF: Time 397200, Note Name: D#4
Note ON: Time 397200, Note Name: C#4, Velocity: 41
Note OFF: Time 397320, Note Name: C#4
Note ON: Time 397320, Note Name: C4, Velocity: 44
Note OFF: Time 397440, Note Name: C4
Note ON: Time 397440, Note Name: A#3, Velocity: 40
Note OFF: Time 397560, Note Name: A#3
Note ON: Time 397560, Note Name: C4, Velocity: 40
Note OFF: Time 397680, Note Name: C4
Note ON: Time 397680, Note Name: A#3, Velocity: 40
Note OFF: Time 397800, Note Name: A#3
Note ON: Time 397800, Note Name: G#3, Velocity: 44
Note OFF: Time 397920, Note Name: G#3
Note ON: Time 397920, Note Name: F#3, Velocity: 40
Note OFF: Time 398040, Note Name: F#3
Note ON: Time 398040, Note Name: G#3, Velocity: 40
Note OFF: Time 398160, Note Name: G#3
Note ON: Time 398160, Note Name: F#3, Velocity: 40
Note OFF: Time 398280, Note Name: F#3
Note ON: Time 398280, Note Name: F3, Velocity: 44
Note OFF: Time 398400, Note Name: F3
Note ON: Time 398400, Note Name: E3, Velocity: 40
Note OFF: Time 398520, Note Name: E3
Note ON: Time 398520, Note Name: F3, Velocity: 40
Note OFF: Time 398640, Note Name: F3
Note ON: Time 398640, Note Name: G3, Velocity: 40
Note OFF: Time 398760, Note Name: G3
Note ON: Time 398760, Note Name: G#3, Velocity: 44
Note OFF: Time 398880, Note Name: G#3
Note ON: Time 398880, Note Name: A#3, Velocity: 40
Note OFF: Time 399000, Note Name: A#3
Note ON: Time 399000, Note Name: G#3, Velocity: 40
Note OFF: Time 399120, Note Name: G#3
Note ON: Time 399120, Note Name: G3, Velocity: 40
Note OFF: Time 399240, Note Name: G3
Note ON: Time 399240, Note Name: F3, Velocity: 44
Note OFF: Time 399360, Note Name: F3
Note ON: Time 399360, Note Name: E3, Velocity: 40
Note OFF: Time 399480, Note Name: E3
Note ON: Time 399480, Note Name: F3, Velocity: 40
Note OFF: Time 399600, Note Name: F3
Note ON: Time 399600, Note Name: E3, Velocity: 40
Note OFF: Time 399720, Note Name: E3
Note ON: Time 399720, Note Name: C#3, Velocity: 44
Note OFF: Time 399840, Note Name: C#3
Note ON: Time 399840, Note Name: C3, Velocity: 37
Note OFF: Time 399960, Note Name: C3
Note ON: Time 399960, Note Name: A#2, Velocity: 38
Note OFF: Time 400080, Note Name: A#2
Note ON: Time 400080, Note Name: G#2, Velocity: 40
Note OFF: Time 400200, Note Name: G#2
Note ON: Time 400200, Note Name: G2, Velocity: 40
Note OFF: Time 400320, Note Name: G2
Note ON: Time 400320, Note Name: F2, Velocity: 44
Note OFF: Time 400800, Note Name: F2
Note ON: Time 401160, Note Name: F3, Velocity: 52
Note ON: Time 401160, Note Name: G#3, Velocity: 52
Note OFF: Time 401280, Note Name: G#3
Note OFF: Time 401280, Note Name: F3
Note ON: Time 401280, Note Name: F3, Velocity: 65
Note ON: Time 401280, Note Name: G#3, Velocity: 65
Note OFF: Time 401760, Note Name: G#3
Note OFF: Time 401760, Note Name: F3
Note ON: Time 402120, Note Name: F3, Velocity: 54
Note ON: Time 402120, Note Name: G#3, Velocity: 54
Note OFF: Time 402240, Note Name: G#3
Note OFF: Time 402240, Note Name: F3
Note ON: Time 402240, Note Name: C3, Velocity: 66
Note ON: Time 402240, Note Name: F3, Velocity: 66
Note ON: Time 402240, Note Name: G#3, Velocity: 66
Note OFF: Time 403200, Note Name: G#3
Note OFF: Time 403200, Note Name: F3
Note OFF: Time 403200, Note Name: C3
Note ON: Time 403200, Note Name: C3, Velocity: 48
Note ON: Time 403200, Note Name: E3, Velocity: 48
Note ON: Time 403200, Note Name: G3, Velocity: 48
Note OFF: Time 403440, Note Name: G3
Note OFF: Time 403440, Note Name: E3
Note OFF: Time 403440, Note Name: C3
Note ON: Time 404160, Note Name: C2, Velocity: 42
Note ON: Time 404160, Note Name: C3, Velocity: 42
Note OFF: Time 404640, Note Name: C3
Note OFF: Time 404640, Note Name: C2
Note ON: Time 405000, Note Name: G3, Velocity: 60
Note ON: Time 405000, Note Name: A#3, Velocity: 60
Note OFF: Time 405120, Note Name: A#3
Note OFF: Time 405120, Note Name: G3
Note ON: Time 405120, Note Name: G3, Velocity: 68
Note ON: Time 405120, Note Name: A#3, Velocity: 68
Note OFF: Time 405600, Note Name: A#3
Note OFF: Time 405600, Note Name: G3
Note ON: Time 405960, Note Name: G3, Velocity: 61
Note ON: Time 405960, Note Name: A#3, Velocity: 61
Note OFF: Time 406080, Note Name: A#3
Note OFF: Time 406080, Note Name: G3
Note ON: Time 406080, Note Name: F3, Velocity: 58
Note ON: Time 406080, Note Name: G3, Velocity: 58
Note ON: Time 406080, Note Name: A#3, Velocity: 69
Note OFF: Time 407040, Note Name: A#3
Note OFF: Time 407040, Note Name: G3
Note OFF: Time 407040, Note Name: F3
Note ON: Time 407040, Note Name: F3, Velocity: 47
Note ON: Time 407040, Note Name: G#3, Velocity: 52
Note OFF: Time 407280, Note Name: G#3
Note OFF: Time 407280, Note Name: F3
Note ON: Time 408000, Note Name: F2, Velocity: 45
Note ON: Time 408000, Note Name: F3, Velocity: 45
Note OFF: Time 408480, Note Name: F3
Note OFF: Time 408480, Note Name: F2
Note ON: Time 408840, Note Name: C4, Velocity: 59
Note ON: Time 408840, Note Name: D#4, Velocity: 59
Note OFF: Time 408960, Note Name: D#4
Note OFF: Time 408960, Note Name: C4
Note ON: Time 408960, Note Name: C4, Velocity: 68
Note ON: Time 408960, Note Name: D#4, Velocity: 68
Note OFF: Time 409440, Note Name: D#4
Note OFF: Time 409440, Note Name: C4
Note ON: Time 409800, Note Name: C4, Velocity: 66
Note ON: Time 409800, Note Name: D#4, Velocity: 66
Note OFF: Time 409920, Note Name: D#4
Note OFF: Time 409920, Note Name: C4
Note ON: Time 409920, Note Name: A#3, Velocity: 72
Note ON: Time 409920, Note Name: C4, Velocity: 72
Note ON: Time 409920, Note Name: D#4, Velocity: 72
Note OFF: Time 411120, Note Name: D#4
Note OFF: Time 411120, Note Name: C4
Note OFF: Time 411120, Note Name: A#3
Note ON: Time 411120, Note Name: A#3, Velocity: 64
Note ON: Time 411120, Note Name: C#4, Velocity: 64
Note OFF: Time 411360, Note Name: C#4
Note OFF: Time 411360, Note Name: A#3
Note ON: Time 411360, Note Name: G#3, Velocity: 61
Note ON: Time 411360, Note Name: C4, Velocity: 61
Note OFF: Time 411600, Note Name: C4
Note OFF: Time 411600, Note Name: G#3
Note ON: Time 411600, Note Name: G3, Velocity: 59
Note ON: Time 411600, Note Name: A#3, Velocity: 59
Note OFF: Time 411840, Note Name: A#3
Note OFF: Time 411840, Note Name: G3
Note ON: Time 411840, Note Name: C3, Velocity: 56
Note ON: Time 411840, Note Name: F3, Velocity: 56
Note ON: Time 411840, Note Name: G#3, Velocity: 56
Note OFF: Time 412320, Note Name: G#3
Note OFF: Time 412320, Note Name: F3
Note OFF: Time 412320, Note Name: C3
Note ON: Time 412680, Note Name: F3, Velocity: 56
Note ON: Time 412680, Note Name: G#3, Velocity: 56
Note OFF: Time 412800, Note Name: G#3
Note OFF: Time 412800, Note Name: F3
Note ON: Time 412800, Note Name: C3, Velocity: 63
Note ON: Time 412800, Note Name: G3, Velocity: 63
Note ON: Time 412800, Note Name: A#3, Velocity: 63
Note OFF: Time 413280, Note Name: A#3
Note OFF: Time 413280, Note Name: G3
Note OFF: Time 413280, Note Name: C3
Note ON: Time 413640, Note Name: E3, Velocity: 53
Note ON: Time 413640, Note Name: G3, Velocity: 53
Note OFF: Time 413760, Note Name: G3
Note OFF: Time 413760, Note Name: E3
Note ON: Time 413760, Note Name: F3, Velocity: 56
Note OFF: Time 413880, Note Name: F3
Note ON: Time 413880, Note Name: C4, Velocity: 49
Note OFF: Time 414000, Note Name: C4
Note ON: Time 414000, Note Name: G#3, Velocity: 49
Note OFF: Time 414120, Note Name: G#3
Note ON: Time 414120, Note Name: F3, Velocity: 49
Note OFF: Time 414240, Note Name: F3
Note ON: Time 414240, Note Name: C3, Velocity: 53
Note OFF: Time 414360, Note Name: C3
Note ON: Time 414360, Note Name: G#3, Velocity: 49
Note OFF: Time 414480, Note Name: G#3
Note ON: Time 414480, Note Name: F3, Velocity: 49
Note OFF: Time 414600, Note Name: F3
Note ON: Time 414600, Note Name: C3, Velocity: 49
Note OFF: Time 414720, Note Name: C3
Note ON: Time 414720, Note Name: G#2, Velocity: 53
Note OFF: Time 414840, Note Name: G#2
Note ON: Time 414840, Note Name: F3, Velocity: 49
Note OFF: Time 414960, Note Name: F3
Note ON: Time 414960, Note Name: C3, Velocity: 49
Note OFF: Time 415080, Note Name: C3
Note ON: Time 415080, Note Name: G#2, Velocity: 49
Note OFF: Time 415200, Note Name: G#2
Note ON: Time 415200, Note Name: F2, Velocity: 53
Note OFF: Time 415320, Note Name: F2
Note ON: Time 415320, Note Name: C3, Velocity: 49
Note OFF: Time 415440, Note Name: C3
Note ON: Time 415440, Note Name: G#2, Velocity: 49
Note OFF: Time 415560, Note Name: G#2
Note ON: Time 415560, Note Name: F2, Velocity: 49
Note OFF: Time 415680, Note Name: F2
Note ON: Time 415680, Note Name: C2, Velocity: 53
Note OFF: Time 415800, Note Name: C2
Note ON: Time 415800, Note Name: F2, Velocity: 49
Note OFF: Time 415920, Note Name: F2
Note ON: Time 415920, Note Name: G#2, Velocity: 49
Note OFF: Time 416040, Note Name: G#2
Note ON: Time 416040, Note Name: C3, Velocity: 49
Note OFF: Time 416160, Note Name: C3
Note ON: Time 416160, Note Name: B2, Velocity: 53
Note OFF: Time 416280, Note Name: B2
Note ON: Time 416280, Note Name: C3, Velocity: 49
Note OFF: Time 416400, Note Name: C3
Note ON: Time 416400, Note Name: B2, Velocity: 49
Note OFF: Time 416520, Note Name: B2
Note ON: Time 416520, Note Name: C3, Velocity: 49
Note OFF: Time 416640, Note Name: C3
Note ON: Time 416640, Note Name: B2, Velocity: 53
Note OFF: Time 416760, Note Name: B2
Note ON: Time 416760, Note Name: C3, Velocity: 49
Note OFF: Time 416880, Note Name: C3
Note ON: Time 416880, Note Name: G2, Velocity: 49
Note OFF: Time 417000, Note Name: G2
Note ON: Time 417000, Note Name: C3, Velocity: 49
Note OFF: Time 417120, Note Name: C3
Note ON: Time 417120, Note Name: E2, Velocity: 53
Note OFF: Time 417240, Note Name: E2
Note ON: Time 417240, Note Name: C3, Velocity: 49
Note OFF: Time 417360, Note Name: C3
Note ON: Time 417360, Note Name: G2, Velocity: 49
Note OFF: Time 417480, Note Name: G2
Note ON: Time 417480, Note Name: C3, Velocity: 49
Note OFF: Time 417600, Note Name: C3
Note ON: Time 417600, Note Name: C2, Velocity: 56
Note OFF: Time 417720, Note Name: C2
Note ON: Time 417720, Note Name: E2, Velocity: 49
Note OFF: Time 417840, Note Name: E2
Note ON: Time 417840, Note Name: G2, Velocity: 49
Note OFF: Time 417960, Note Name: G2
Note ON: Time 417960, Note Name: C3, Velocity: 49
Note OFF: Time 418080, Note Name: C3
Note ON: Time 418080, Note Name: E2, Velocity: 53
Note OFF: Time 418200, Note Name: E2
Note ON: Time 418200, Note Name: G2, Velocity: 49
Note OFF: Time 418320, Note Name: G2
Note ON: Time 418320, Note Name: C3, Velocity: 49
Note OFF: Time 418440, Note Name: C3
Note ON: Time 418440, Note Name: E3, Velocity: 49
Note OFF: Time 418560, Note Name: E3
Note ON: Time 418560, Note Name: G2, Velocity: 53
Note OFF: Time 418680, Note Name: G2
Note ON: Time 418680, Note Name: C3, Velocity: 49
Note OFF: Time 418800, Note Name: C3
Note ON: Time 418800, Note Name: E3, Velocity: 49
Note OFF: Time 418920, Note Name: E3
Note ON: Time 418920, Note Name: G3, Velocity: 49
Note OFF: Time 419040, Note Name: G3
Note ON: Time 419040, Note Name: C3, Velocity: 53
Note OFF: Time 419160, Note Name: C3
Note ON: Time 419160, Note Name: E3, Velocity: 49
Note OFF: Time 419280, Note Name: E3
Note ON: Time 419280, Note Name: G3, Velocity: 49
Note OFF: Time 419400, Note Name: G3
Note ON: Time 419400, Note Name: C4, Velocity: 49
Note OFF: Time 419520, Note Name: C4
Note ON: Time 419520, Note Name: F3, Velocity: 59
Note OFF: Time 419640, Note Name: F3
Note ON: Time 419640, Note Name: G#3, Velocity: 49
Note OFF: Time 419760, Note Name: G#3
Note ON: Time 419760, Note Name: C4, Velocity: 49
Note OFF: Time 419880, Note Name: C4
Note ON: Time 419880, Note Name: F4, Velocity: 49
Note OFF: Time 420000, Note Name: F4
Note ON: Time 420000, Note Name: E4, Velocity: 53
Note OFF: Time 420120, Note Name: E4
Note ON: Time 420120, Note Name: F4, Velocity: 49
Note OFF: Time 420240, Note Name: F4
Note ON: Time 420240, Note Name: E4, Velocity: 49
Note OFF: Time 420360, Note Name: E4
Note ON: Time 420360, Note Name: F4, Velocity: 49
Note OFF: Time 420480, Note Name: F4
Note ON: Time 420480, Note Name: E4, Velocity: 53
Note OFF: Time 420600, Note Name: E4
Note ON: Time 420600, Note Name: F4, Velocity: 49
Note OFF: Time 420720, Note Name: F4
Note ON: Time 420720, Note Name: C4, Velocity: 49
Note OFF: Time 420840, Note Name: C4
Note ON: Time 420840, Note Name: F4, Velocity: 49
Note OFF: Time 420960, Note Name: F4
Note ON: Time 420960, Note Name: G#3, Velocity: 53
Note OFF: Time 421080, Note Name: G#3
Note ON: Time 421080, Note Name: F4, Velocity: 49
Note OFF: Time 421200, Note Name: F4
Note ON: Time 421200, Note Name: C4, Velocity: 49
Note OFF: Time 421320, Note Name: C4
Note ON: Time 421320, Note Name: F4, Velocity: 49
Note OFF: Time 421440, Note Name: F4
Note ON: Time 421440, Note Name: F3, Velocity: 61
Note OFF: Time 421560, Note Name: F3
Note ON: Time 421560, Note Name: A3, Velocity: 53
Note OFF: Time 421680, Note Name: A3
Note ON: Time 421680, Note Name: C4, Velocity: 53
Note OFF: Time 421800, Note Name: C4
Note ON: Time 421800, Note Name: F4, Velocity: 53
Note OFF: Time 421920, Note Name: F4
Note ON: Time 421920, Note Name: A3, Velocity: 58
Note OFF: Time 422040, Note Name: A3
Note ON: Time 422040, Note Name: C4, Velocity: 53
Note OFF: Time 422160, Note Name: C4
Note ON: Time 422160, Note Name: F4, Velocity: 53
Note OFF: Time 422280, Note Name: F4
Note ON: Time 422280, Note Name: A4, Velocity: 53
Note OFF: Time 422400, Note Name: A4
Note ON: Time 422400, Note Name: C4, Velocity: 58
Note OFF: Time 422520, Note Name: C4
Note ON: Time 422520, Note Name: F4, Velocity: 53
Note OFF: Time 422640, Note Name: F4
Note ON: Time 422640, Note Name: A4, Velocity: 53
Note OFF: Time 422760, Note Name: A4
Note ON: Time 422760, Note Name: C5, Velocity: 53
Note OFF: Time 422880, Note Name: C5
Note ON: Time 422880, Note Name: F4, Velocity: 58
Note OFF: Time 423000, Note Name: F4
Note ON: Time 423000, Note Name: A4, Velocity: 53
Note OFF: Time 423120, Note Name: A4
Note ON: Time 423120, Note Name: C5, Velocity: 53
Note OFF: Time 423240, Note Name: C5
Note ON: Time 423240, Note Name: F5, Velocity: 53
Note OFF: Time 423360, Note Name: F5
Note ON: Time 423360, Note Name: A4, Velocity: 67
Note OFF: Time 423480, Note Name: A4
Note ON: Time 423480, Note Name: F5, Velocity: 53
Note OFF: Time 423600, Note Name: F5
Note ON: Time 423600, Note Name: E5, Velocity: 53
Note OFF: Time 423720, Note Name: E5
Note ON: Time 423720, Note Name: F5, Velocity: 53
Note OFF: Time 423840, Note Name: F5
Note ON: Time 423840, Note Name: A4, Velocity: 58
Note OFF: Time 423960, Note Name: A4
Note ON: Time 423960, Note Name: F5, Velocity: 53
Note OFF: Time 424080, Note Name: F5
Note ON: Time 424080, Note Name: A4, Velocity: 53
Note OFF: Time 424200, Note Name: A4
Note ON: Time 424200, Note Name: F5, Velocity: 53
Note OFF: Time 424320, Note Name: F5
Note ON: Time 424320, Note Name: A4, Velocity: 57
Note OFF: Time 424440, Note Name: A4
Note ON: Time 424440, Note Name: F5, Velocity: 56
Note OFF: Time 424560, Note Name: F5
Note ON: Time 424560, Note Name: A#4, Velocity: 56
Note OFF: Time 424680, Note Name: A#4
Note ON: Time 424680, Note Name: F5, Velocity: 55
Note OFF: Time 424800, Note Name: F5
Note ON: Time 424800, Note Name: C5, Velocity: 54
Note OFF: Time 424920, Note Name: C5
Note ON: Time 424920, Note Name: F5, Velocity: 53
Note OFF: Time 425040, Note Name: F5
Note ON: Time 425040, Note Name: C#5, Velocity: 52
Note OFF: Time 425160, Note Name: C#5
Note ON: Time 425160, Note Name: F5, Velocity: 52
Note OFF: Time 425280, Note Name: F5
Note ON: Time 425280, Note Name: C4, Velocity: 52
Note OFF: Time 425400, Note Name: C4
Note ON: Time 425400, Note Name: F4, Velocity: 47
Note OFF: Time 425520, Note Name: F4
Note ON: Time 425520, Note Name: G#4, Velocity: 47
Note OFF: Time 425640, Note Name: G#4
Note ON: Time 425640, Note Name: C5, Velocity: 47
Note OFF: Time 425760, Note Name: C5
Note ON: Time 425760, Note Name: B4, Velocity: 52
Note OFF: Time 425880, Note Name: B4
Note ON: Time 425880, Note Name: C5, Velocity: 47
Note OFF: Time 426000, Note Name: C5
Note ON: Time 426000, Note Name: B4, Velocity: 47
Note OFF: Time 426120, Note Name: B4
Note ON: Time 426120, Note Name: C5, Velocity: 47
Note OFF: Time 426240, Note Name: C5
Note ON: Time 426240, Note Name: C4, Velocity: 52
Note OFF: Time 426360, Note Name: C4
Note ON: Time 426360, Note Name: E4, Velocity: 47
Note OFF: Time 426480, Note Name: E4
Note ON: Time 426480, Note Name: G4, Velocity: 47
Note OFF: Time 426600, Note Name: G4
Note ON: Time 426600, Note Name: C5, Velocity: 47
Note OFF: Time 426720, Note Name: C5
Note ON: Time 426720, Note Name: C4, Velocity: 52
Note OFF: Time 426840, Note Name: C4
Note ON: Time 426840, Note Name: G4, Velocity: 47
Note OFF: Time 426960, Note Name: G4
Note ON: Time 426960, Note Name: A#4, Velocity: 47
Note OFF: Time 427080, Note Name: A#4
Note ON: Time 427080, Note Name: C5, Velocity: 47
Note OFF: Time 427200, Note Name: C5
Note ON: Time 427200, Note Name: F3, Velocity: 52
Note OFF: Time 427320, Note Name: F3
Note ON: Time 427320, Note Name: G#4, Velocity: 38
Note ON: Time 427320, Note Name: F4, Velocity: 38
Note OFF: Time 427440, Note Name: F4
Note OFF: Time 427440, Note Name: G#4
Note ON: Time 427440, Note Name: C4, Velocity: 39
Note ON: Time 427440, Note Name: C5, Velocity: 39
Note OFF: Time 427560, Note Name: C5
Note OFF: Time 427560, Note Name: C4
Note ON: Time 427560, Note Name: G#4, Velocity: 41
Note ON: Time 427560, Note Name: F4, Velocity: 41
Note OFF: Time 427680, Note Name: F4
Note OFF: Time 427680, Note Name: G#4
Note ON: Time 427680, Note Name: C4, Velocity: 45
Note ON: Time 427680, Note Name: C5, Velocity: 45
Note OFF: Time 427800, Note Name: C5
Note OFF: Time 427800, Note Name: C4
Note ON: Time 427800, Note Name: G#4, Velocity: 44
Note ON: Time 427800, Note Name: F4, Velocity: 44
Note OFF: Time 427920, Note Name: F4
Note OFF: Time 427920, Note Name: G#4
Note ON: Time 427920, Note Name: C4, Velocity: 45
Note ON: Time 427920, Note Name: C5, Velocity: 45
Note OFF: Time 428040, Note Name: C5
Note OFF: Time 428040, Note Name: C4
Note ON: Time 428040, Note Name: G#4, Velocity: 45
Note ON: Time 428040, Note Name: F4, Velocity: 45
Note OFF: Time 428160, Note Name: F4
Note OFF: Time 428160, Note Name: G#4
Note ON: Time 428160, Note Name: C4, Velocity: 46
Note ON: Time 428160, Note Name: C5, Velocity: 46
Note OFF: Time 428280, Note Name: C5
Note OFF: Time 428280, Note Name: C4
Note ON: Time 428280, Note Name: G#4, Velocity: 46
Note ON: Time 428280, Note Name: F4, Velocity: 46
Note OFF: Time 428400, Note Name: F4
Note OFF: Time 428400, Note Name: G#4
Note ON: Time 428400, Note Name: C4, Velocity: 45
Note ON: Time 428400, Note Name: C5, Velocity: 45
Note OFF: Time 428520, Note Name: C5
Note OFF: Time 428520, Note Name: C4
Note ON: Time 428520, Note Name: G#4, Velocity: 45
Note ON: Time 428520, Note Name: F4, Velocity: 45
Note OFF: Time 428640, Note Name: F4
Note OFF: Time 428640, Note Name: G#4
Note ON: Time 428640, Note Name: C4, Velocity: 45
Note ON: Time 428640, Note Name: C5, Velocity: 45
Note OFF: Time 428760, Note Name: C5
Note OFF: Time 428760, Note Name: C4
Note ON: Time 428760, Note Name: G#4, Velocity: 44
Note ON: Time 428760, Note Name: F4, Velocity: 44
Note OFF: Time 428880, Note Name: F4
Note OFF: Time 428880, Note Name: G#4
Note ON: Time 428880, Note Name: C4, Velocity: 44
Note ON: Time 428880, Note Name: C5, Velocity: 44
Note OFF: Time 429000, Note Name: C5
Note OFF: Time 429000, Note Name: C4
Note ON: Time 429000, Note Name: G#4, Velocity: 43
Note ON: Time 429000, Note Name: F4, Velocity: 43
Note OFF: Time 429120, Note Name: F4
Note OFF: Time 429120, Note Name: G#4
Note ON: Time 429120, Note Name: F3, Velocity: 54
Note OFF: Time 429240, Note Name: F3
Note ON: Time 429240, Note Name: G#4, Velocity: 38
Note ON: Time 429240, Note Name: F4, Velocity: 38
Note OFF: Time 429360, Note Name: F4
Note OFF: Time 429360, Note Name: G#4
Note ON: Time 429360, Note Name: C4, Velocity: 39
Note ON: Time 429360, Note Name: C5, Velocity: 39
Note OFF: Time 429480, Note Name: C5
Note OFF: Time 429480, Note Name: C4
Note ON: Time 429480, Note Name: G#4, Velocity: 41
Note ON: Time 429480, Note Name: F4, Velocity: 41
Note OFF: Time 429600, Note Name: F4
Note OFF: Time 429600, Note Name: G#4
Note ON: Time 429600, Note Name: C4, Velocity: 45
Note ON: Time 429600, Note Name: C5, Velocity: 45
Note OFF: Time 429720, Note Name: C5
Note OFF: Time 429720, Note Name: C4
Note ON: Time 429720, Note Name: G#4, Velocity: 44
Note ON: Time 429720, Note Name: F4, Velocity: 44
Note OFF: Time 429840, Note Name: F4
Note OFF: Time 429840, Note Name: G#4
Note ON: Time 429840, Note Name: C4, Velocity: 45
Note ON: Time 429840, Note Name: C5, Velocity: 45
Note OFF: Time 429960, Note Name: C5
Note OFF: Time 429960, Note Name: C4
Note ON: Time 429960, Note Name: G#4, Velocity: 45
Note ON: Time 429960, Note Name: F4, Velocity: 45
Note OFF: Time 430080, Note Name: F4
Note OFF: Time 430080, Note Name: G#4
Note ON: Time 430080, Note Name: C4, Velocity: 46
Note ON: Time 430080, Note Name: C5, Velocity: 46
Note OFF: Time 430200, Note Name: C5
Note OFF: Time 430200, Note Name: C4
Note ON: Time 430200, Note Name: G#4, Velocity: 46
Note ON: Time 430200, Note Name: F4, Velocity: 46
Note OFF: Time 430320, Note Name: F4
Note OFF: Time 430320, Note Name: G#4
Note ON: Time 430320, Note Name: C4, Velocity: 45
Note ON: Time 430320, Note Name: C5, Velocity: 45
Note OFF: Time 430440, Note Name: C5
Note OFF: Time 430440, Note Name: C4
Note ON: Time 430440, Note Name: G#4, Velocity: 45
Note ON: Time 430440, Note Name: F4, Velocity: 45
Note OFF: Time 430560, Note Name: F4
Note OFF: Time 430560, Note Name: G#4
Note ON: Time 430560, Note Name: C4, Velocity: 45
Note ON: Time 430560, Note Name: C5, Velocity: 45
Note OFF: Time 430680, Note Name: C5
Note OFF: Time 430680, Note Name: C4
Note ON: Time 430680, Note Name: G#4, Velocity: 44
Note ON: Time 430680, Note Name: F4, Velocity: 44
Note OFF: Time 430800, Note Name: F4
Note OFF: Time 430800, Note Name: G#4
Note ON: Time 430800, Note Name: C4, Velocity: 44
Note ON: Time 430800, Note Name: C5, Velocity: 44
Note OFF: Time 430920, Note Name: C5
Note OFF: Time 430920, Note Name: C4
Note ON: Time 430920, Note Name: G#4, Velocity: 43
Note ON: Time 430920, Note Name: F4, Velocity: 43
Note OFF: Time 431040, Note Name: F4
Note OFF: Time 431040, Note Name: G#4
Note ON: Time 431040, Note Name: G#2, Velocity: 55
Note OFF: Time 431160, Note Name: G#2
Note ON: Time 431160, Note Name: G#3, Velocity: 40
Note ON: Time 431160, Note Name: F#3, Velocity: 40
Note OFF: Time 431280, Note Name: F#3
Note OFF: Time 431280, Note Name: G#3
Note ON: Time 431280, Note Name: D#3, Velocity: 41
Note ON: Time 431280, Note Name: C4, Velocity: 41
Note OFF: Time 431400, Note Name: C4
Note OFF: Time 431400, Note Name: D#3
Note ON: Time 431400, Note Name: G#3, Velocity: 43
Note ON: Time 431400, Note Name: F#3, Velocity: 43
Note OFF: Time 431520, Note Name: F#3
Note OFF: Time 431520, Note Name: G#3
Note ON: Time 431520, Note Name: D#3, Velocity: 47
Note ON: Time 431520, Note Name: C4, Velocity: 47
Note OFF: Time 431640, Note Name: C4
Note OFF: Time 431640, Note Name: D#3
Note ON: Time 431640, Note Name: G#3, Velocity: 46
Note ON: Time 431640, Note Name: F#3, Velocity: 46
Note OFF: Time 431760, Note Name: F#3
Note OFF: Time 431760, Note Name: G#3
Note ON: Time 431760, Note Name: D#3, Velocity: 47
Note ON: Time 431760, Note Name: C4, Velocity: 47
Note OFF: Time 431880, Note Name: C4
Note OFF: Time 431880, Note Name: D#3
Note ON: Time 431880, Note Name: G#3, Velocity: 48
Note ON: Time 431880, Note Name: F#3, Velocity: 48
Note OFF: Time 432000, Note Name: F#3
Note OFF: Time 432000, Note Name: G#3
Note ON: Time 432000, Note Name: D#3, Velocity: 49
Note ON: Time 432000, Note Name: C4, Velocity: 49
Note OFF: Time 432120, Note Name: C4
Note OFF: Time 432120, Note Name: D#3
Note ON: Time 432120, Note Name: G#3, Velocity: 49
Note ON: Time 432120, Note Name: F#3, Velocity: 49
Note OFF: Time 432240, Note Name: F#3
Note OFF: Time 432240, Note Name: G#3
Note ON: Time 432240, Note Name: D#3, Velocity: 48
Note ON: Time 432240, Note Name: C4, Velocity: 48
Note OFF: Time 432360, Note Name: C4
Note OFF: Time 432360, Note Name: D#3
Note ON: Time 432360, Note Name: G#3, Velocity: 47
Note ON: Time 432360, Note Name: F#3, Velocity: 47
Note OFF: Time 432480, Note Name: F#3
Note OFF: Time 432480, Note Name: G#3
Note ON: Time 432480, Note Name: D#3, Velocity: 47
Note ON: Time 432480, Note Name: C4, Velocity: 47
Note OFF: Time 432600, Note Name: C4
Note OFF: Time 432600, Note Name: D#3
Note ON: Time 432600, Note Name: G#3, Velocity: 46
Note ON: Time 432600, Note Name: F#3, Velocity: 46
Note OFF: Time 432720, Note Name: F#3
Note OFF: Time 432720, Note Name: G#3
Note ON: Time 432720, Note Name: D#3, Velocity: 46
Note ON: Time 432720, Note Name: C4, Velocity: 46
Note OFF: Time 432840, Note Name: C4
Note OFF: Time 432840, Note Name: D#3
Note ON: Time 432840, Note Name: G#3, Velocity: 45
Note ON: Time 432840, Note Name: F#3, Velocity: 45
Note OFF: Time 432960, Note Name: F#3
Note OFF: Time 432960, Note Name: G#3
Note ON: Time 432960, Note Name: G#2, Velocity: 54
Note OFF: Time 433080, Note Name: G#2
Note ON: Time 433080, Note Name: G#3, Velocity: 40
Note ON: Time 433080, Note Name: F#3, Velocity: 40
Note OFF: Time 433200, Note Name: F#3
Note OFF: Time 433200, Note Name: G#3
Note ON: Time 433200, Note Name: D#3, Velocity: 41
Note ON: Time 433200, Note Name: C4, Velocity: 41
Note OFF: Time 433320, Note Name: C4
Note OFF: Time 433320, Note Name: D#3
Note ON: Time 433320, Note Name: G#3, Velocity: 43
Note ON: Time 433320, Note Name: F#3, Velocity: 43
Note OFF: Time 433440, Note Name: F#3
Note OFF: Time 433440, Note Name: G#3
Note ON: Time 433440, Note Name: D#3, Velocity: 47
Note ON: Time 433440, Note Name: C4, Velocity: 47
Note OFF: Time 433560, Note Name: C4
Note OFF: Time 433560, Note Name: D#3
Note ON: Time 433560, Note Name: G#3, Velocity: 46
Note ON: Time 433560, Note Name: F#3, Velocity: 46
Note OFF: Time 433680, Note Name: F#3
Note OFF: Time 433680, Note Name: G#3
Note ON: Time 433680, Note Name: D#3, Velocity: 47
Note ON: Time 433680, Note Name: C4, Velocity: 47
Note OFF: Time 433800, Note Name: C4
Note OFF: Time 433800, Note Name: D#3
Note ON: Time 433800, Note Name: G#3, Velocity: 48
Note ON: Time 433800, Note Name: F#3, Velocity: 48
Note OFF: Time 433920, Note Name: F#3
Note OFF: Time 433920, Note Name: G#3
Note ON: Time 433920, Note Name: D#3, Velocity: 49
Note ON: Time 433920, Note Name: C4, Velocity: 49
Note OFF: Time 434040, Note Name: C4
Note OFF: Time 434040, Note Name: D#3
Note ON: Time 434040, Note Name: G#3, Velocity: 49
Note ON: Time 434040, Note Name: F#3, Velocity: 49
Note OFF: Time 434160, Note Name: F#3
Note OFF: Time 434160, Note Name: G#3
Note ON: Time 434160, Note Name: D#3, Velocity: 48
Note ON: Time 434160, Note Name: C4, Velocity: 48
Note OFF: Time 434280, Note Name: C4
Note OFF: Time 434280, Note Name: D#3
Note ON: Time 434280, Note Name: G#3, Velocity: 47
Note ON: Time 434280, Note Name: F#3, Velocity: 47
Note OFF: Time 434400, Note Name: F#3
Note OFF: Time 434400, Note Name: G#3
Note ON: Time 434400, Note Name: D#3, Velocity: 47
Note ON: Time 434400, Note Name: C4, Velocity: 47
Note OFF: Time 434520, Note Name: C4
Note OFF: Time 434520, Note Name: D#3
Note ON: Time 434520, Note Name: G#3, Velocity: 46
Note ON: Time 434520, Note Name: F#3, Velocity: 46
Note OFF: Time 434640, Note Name: F#3
Note OFF: Time 434640, Note Name: G#3
Note ON: Time 434640, Note Name: D#3, Velocity: 46
Note ON: Time 434640, Note Name: C4, Velocity: 46
Note OFF: Time 434760, Note Name: C4
Note OFF: Time 434760, Note Name: D#3
Note ON: Time 434760, Note Name: G#3, Velocity: 45
Note ON: Time 434760, Note Name: F#3, Velocity: 45
Note OFF: Time 434880, Note Name: F#3
Note OFF: Time 434880, Note Name: G#3
Note ON: Time 434880, Note Name: C#3, Velocity: 56
Note OFF: Time 435000, Note Name: C#3
Note ON: Time 435000, Note Name: F4, Velocity: 42
Note ON: Time 435000, Note Name: C#4, Velocity: 42
Note OFF: Time 435120, Note Name: C#4
Note OFF: Time 435120, Note Name: F4
Note ON: Time 435120, Note Name: G#3, Velocity: 43
Note ON: Time 435120, Note Name: G#4, Velocity: 43
Note OFF: Time 435240, Note Name: G#4
Note OFF: Time 435240, Note Name: G#3
Note ON: Time 435240, Note Name: F4, Velocity: 45
Note ON: Time 435240, Note Name: C#4, Velocity: 45
Note OFF: Time 435360, Note Name: C#4
Note OFF: Time 435360, Note Name: F4
Note ON: Time 435360, Note Name: G#3, Velocity: 49
Note ON: Time 435360, Note Name: G#4, Velocity: 49
Note OFF: Time 435480, Note Name: G#4
Note OFF: Time 435480, Note Name: G#3
Note ON: Time 435480, Note Name: F4, Velocity: 48
Note ON: Time 435480, Note Name: C#4, Velocity: 48
Note OFF: Time 435600, Note Name: C#4
Note OFF: Time 435600, Note Name: F4
Note ON: Time 435600, Note Name: G#3, Velocity: 49
Note ON: Time 435600, Note Name: G#4, Velocity: 49
Note OFF: Time 435720, Note Name: G#4
Note OFF: Time 435720, Note Name: G#3
Note ON: Time 435720, Note Name: F4, Velocity: 50
Note ON: Time 435720, Note Name: C#4, Velocity: 50
Note OFF: Time 435840, Note Name: C#4
Note OFF: Time 435840, Note Name: F4
Note ON: Time 435840, Note Name: G#3, Velocity: 51
Note ON: Time 435840, Note Name: G#4, Velocity: 51
Note OFF: Time 435960, Note Name: G#4
Note OFF: Time 435960, Note Name: G#3
Note ON: Time 435960, Note Name: F4, Velocity: 51
Note ON: Time 435960, Note Name: C#4, Velocity: 51
Note OFF: Time 436080, Note Name: C#4
Note OFF: Time 436080, Note Name: F4
Note ON: Time 436080, Note Name: G#3, Velocity: 50
Note ON: Time 436080, Note Name: G#4, Velocity: 50
Note OFF: Time 436200, Note Name: G#4
Note OFF: Time 436200, Note Name: G#3
Note ON: Time 436200, Note Name: F4, Velocity: 49
Note ON: Time 436200, Note Name: C#4, Velocity: 49
Note OFF: Time 436320, Note Name: C#4
Note OFF: Time 436320, Note Name: F4
Note ON: Time 436320, Note Name: G#3, Velocity: 49
Note ON: Time 436320, Note Name: G#4, Velocity: 49
Note OFF: Time 436440, Note Name: G#4
Note OFF: Time 436440, Note Name: G#3
Note ON: Time 436440, Note Name: F4, Velocity: 48
Note ON: Time 436440, Note Name: C#4, Velocity: 48
Note OFF: Time 436560, Note Name: C#4
Note OFF: Time 436560, Note Name: F4
Note ON: Time 436560, Note Name: G#3, Velocity: 48
Note ON: Time 436560, Note Name: G#4, Velocity: 48
Note OFF: Time 436680, Note Name: G#4
Note OFF: Time 436680, Note Name: G#3
Note ON: Time 436680, Note Name: F4, Velocity: 47
Note ON: Time 436680, Note Name: C#4, Velocity: 47
Note OFF: Time 436800, Note Name: C#4
Note OFF: Time 436800, Note Name: F4
Note ON: Time 436800, Note Name: C#3, Velocity: 56
Note OFF: Time 436920, Note Name: C#3
Note ON: Time 436920, Note Name: C#4, Velocity: 42
Note ON: Time 436920, Note Name: F4, Velocity: 42
Note OFF: Time 437040, Note Name: F4
Note OFF: Time 437040, Note Name: C#4
Note ON: Time 437040, Note Name: G#3, Velocity: 43
Note ON: Time 437040, Note Name: G#4, Velocity: 43
Note OFF: Time 437160, Note Name: G#4
Note OFF: Time 437160, Note Name: G#3
Note ON: Time 437160, Note Name: C#4, Velocity: 45
Note ON: Time 437160, Note Name: F4, Velocity: 45
Note OFF: Time 437280, Note Name: F4
Note OFF: Time 437280, Note Name: C#4
Note ON: Time 437280, Note Name: G#4, Velocity: 49
Note OFF: Time 437520, Note Name: G#4
Note ON: Time 437520, Note Name: C#5, Velocity: 55
Note OFF: Time 437760, Note Name: C#5
Note ON: Time 437760, Note Name: F5, Velocity: 58
Note OFF: Time 438000, Note Name: F5
Note ON: Time 438000, Note Name: G#5, Velocity: 62
Note OFF: Time 438240, Note Name: G#5
Note ON: Time 438240, Note Name: C#6, Velocity: 66
Note OFF: Time 438480, Note Name: C#6
Note ON: Time 438480, Note Name: C#6, Velocity: 69
Note OFF: Time 438720, Note Name: C#6
Note ON: Time 438720, Note Name: C#6, Velocity: 80
Note ON: Time 438720, Note Name: A#5, Velocity: 80
Note OFF: Time 439440, Note Name: A#5
Note OFF: Time 439440, Note Name: C#6
Note ON: Time 439440, Note Name: G#5, Velocity: 66
Note ON: Time 439440, Note Name: C6, Velocity: 66
Note OFF: Time 439680, Note Name: C6
Note OFF: Time 439680, Note Name: G#5
Note ON: Time 439680, Note Name: G5, Velocity: 68
Note ON: Time 439680, Note Name: A#5, Velocity: 68
Note OFF: Time 440160, Note Name: A#5
Note OFF: Time 440160, Note Name: G5
Note ON: Time 440160, Note Name: G#5, Velocity: 64
Note ON: Time 440160, Note Name: C6, Velocity: 64
Note OFF: Time 440640, Note Name: C6
Note OFF: Time 440640, Note Name: G#5
Note ON: Time 440640, Note Name: C#6, Velocity: 80
Note ON: Time 440640, Note Name: A#5, Velocity: 80
Note OFF: Time 441360, Note Name: A#5
Note OFF: Time 441360, Note Name: C#6
Note ON: Time 441360, Note Name: G#5, Velocity: 66
Note ON: Time 441360, Note Name: C6, Velocity: 66
Note OFF: Time 441600, Note Name: C6
Note OFF: Time 441600, Note Name: G#5
Note ON: Time 441600, Note Name: G5, Velocity: 68
Note ON: Time 441600, Note Name: A#5, Velocity: 68
Note OFF: Time 442080, Note Name: A#5
Note OFF: Time 442080, Note Name: G5
Note ON: Time 442080, Note Name: G#5, Velocity: 64
Note ON: Time 442080, Note Name: C6, Velocity: 64
Note OFF: Time 442560, Note Name: C6
Note OFF: Time 442560, Note Name: G#5
Note ON: Time 442560, Note Name: C#6, Velocity: 80
Note ON: Time 442560, Note Name: A#5, Velocity: 80
Note OFF: Time 443280, Note Name: A#5
Note OFF: Time 443280, Note Name: C#6
Note ON: Time 443280, Note Name: G#5, Velocity: 66
Note ON: Time 443280, Note Name: C6, Velocity: 66
Note OFF: Time 443520, Note Name: C6
Note OFF: Time 443520, Note Name: G#5
Note ON: Time 443520, Note Name: G5, Velocity: 68
Note ON: Time 443520, Note Name: A#5, Velocity: 68
Note OFF: Time 444000, Note Name: A#5
Note OFF: Time 444000, Note Name: G5
Note ON: Time 444000, Note Name: F5, Velocity: 65
Note ON: Time 444000, Note Name: G#5, Velocity: 65
Note OFF: Time 444480, Note Name: G#5
Note OFF: Time 444480, Note Name: F5
Note ON: Time 444480, Note Name: G5, Velocity: 70
Note ON: Time 444480, Note Name: E5, Velocity: 70
Note OFF: Time 444960, Note Name: E5
Note OFF: Time 444960, Note Name: G5
Note ON: Time 444960, Note Name: D5, Velocity: 70
Note ON: Time 444960, Note Name: F5, Velocity: 70
Note OFF: Time 445440, Note Name: F5
Note OFF: Time 445440, Note Name: D5
Note ON: Time 445440, Note Name: F5, Velocity: 75
Note ON: Time 445440, Note Name: C#5, Velocity: 75
Note OFF: Time 445920, Note Name: C#5
Note OFF: Time 445920, Note Name: F5
Note ON: Time 445920, Note Name: C5, Velocity: 75
Note ON: Time 445920, Note Name: F5, Velocity: 75
Note OFF: Time 446400, Note Name: F5
Note OFF: Time 446400, Note Name: C5
Note ON: Time 446400, Note Name: B4, Velocity: 76
Note ON: Time 446880, Note Name: D5, Velocity: 75
Note OFF: Time 447360, Note Name: D5
Note OFF: Time 447360, Note Name: B4
Note ON: Time 447360, Note Name: G#4, Velocity: 72
Note ON: Time 447360, Note Name: C4, Velocity: 72
Note ON: Time 447360, Note Name: C5, Velocity: 72
Note OFF: Time 447840, Note Name: G#4
Note ON: Time 447840, Note Name: G4, Velocity: 68
Note OFF: Time 448320, Note Name: G4
Note OFF: Time 448320, Note Name: C5
Note OFF: Time 448320, Note Name: C4
Note ON: Time 448320, Note Name: A#2, Velocity: 61
Note ON: Time 448320, Note Name: F#3, Velocity: 72
Note ON: Time 448320, Note Name: C#3, Velocity: 61
Note OFF: Time 449040, Note Name: C#3
Note OFF: Time 449040, Note Name: F#3
Note OFF: Time 449040, Note Name: A#2
Note ON: Time 449040, Note Name: G#2, Velocity: 50
Note ON: Time 449040, Note Name: C3, Velocity: 50
Note ON: Time 449040, Note Name: F3, Velocity: 59
Note OFF: Time 449280, Note Name: F3
Note OFF: Time 449280, Note Name: C3
Note OFF: Time 449280, Note Name: G#2
Note ON: Time 449280, Note Name: E3, Velocity: 61
Note ON: Time 449280, Note Name: G2, Velocity: 51
Note ON: Time 449280, Note Name: A#2, Velocity: 51
Note OFF: Time 449760, Note Name: A#2
Note OFF: Time 449760, Note Name: G2
Note OFF: Time 449760, Note Name: E3
Note ON: Time 449760, Note Name: G#2, Velocity: 48
Note ON: Time 449760, Note Name: C3, Velocity: 48
Note ON: Time 449760, Note Name: F3, Velocity: 57
Note OFF: Time 450240, Note Name: F3
Note OFF: Time 450240, Note Name: C3
Note OFF: Time 450240, Note Name: G#2
Note ON: Time 450240, Note Name: A#2, Velocity: 61
Note ON: Time 450240, Note Name: F#3, Velocity: 72
Note ON: Time 450240, Note Name: C#3, Velocity: 61
Note OFF: Time 450960, Note Name: C#3
Note OFF: Time 450960, Note Name: F#3
Note OFF: Time 450960, Note Name: A#2
Note ON: Time 450960, Note Name: G#2, Velocity: 50
Note ON: Time 450960, Note Name: C3, Velocity: 50
Note ON: Time 450960, Note Name: F3, Velocity: 59
Note OFF: Time 451200, Note Name: F3
Note OFF: Time 451200, Note Name: C3
Note OFF: Time 451200, Note Name: G#2
Note ON: Time 451200, Note Name: E3, Velocity: 65
Note ON: Time 451200, Note Name: G2, Velocity: 51
Note ON: Time 451200, Note Name: A#2, Velocity: 54
Note OFF: Time 451680, Note Name: A#2
Note OFF: Time 451680, Note Name: G2
Note OFF: Time 451680, Note Name: E3
Note ON: Time 451680, Note Name: G#2, Velocity: 48
Note ON: Time 451680, Note Name: C3, Velocity: 48
Note ON: Time 451680, Note Name: F3, Velocity: 57
Note OFF: Time 452160, Note Name: F3
Note OFF: Time 452160, Note Name: C3
Note OFF: Time 452160, Note Name: G#2
Note ON: Time 452160, Note Name: A#2, Velocity: 61
Note ON: Time 452160, Note Name: F#3, Velocity: 72
Note ON: Time 452160, Note Name: C#3, Velocity: 61
Note OFF: Time 452880, Note Name: C#3
Note OFF: Time 452880, Note Name: F#3
Note OFF: Time 452880, Note Name: A#2
Note ON: Time 452880, Note Name: F3, Velocity: 59
Note ON: Time 452880, Note Name: G#2, Velocity: 50
Note ON: Time 452880, Note Name: C3, Velocity: 50
Note OFF: Time 453120, Note Name: C3
Note OFF: Time 453120, Note Name: G#2
Note OFF: Time 453120, Note Name: F3
Note ON: Time 453120, Note Name: E3, Velocity: 61
Note ON: Time 453120, Note Name: G2, Velocity: 51
Note ON: Time 453120, Note Name: A#2, Velocity: 61
Note OFF: Time 453600, Note Name: A#2
Note OFF: Time 453600, Note Name: G2
Note OFF: Time 453600, Note Name: E3
Note ON: Time 453600, Note Name: C#3, Velocity: 58
Note ON: Time 453600, Note Name: F2, Velocity: 49
Note ON: Time 453600, Note Name: G#2, Velocity: 49
Note OFF: Time 454080, Note Name: G#2
Note OFF: Time 454080, Note Name: F2
Note OFF: Time 454080, Note Name: C#3
Note ON: Time 454080, Note Name: E2, Velocity: 53
Note ON: Time 454080, Note Name: C3, Velocity: 63
Note ON: Time 454080, Note Name: G2, Velocity: 53
Note OFF: Time 454560, Note Name: G2
Note OFF: Time 454560, Note Name: C3
Note OFF: Time 454560, Note Name: E2
Note ON: Time 454560, Note Name: B2, Velocity: 63
Note ON: Time 454560, Note Name: G#2, Velocity: 53
Note ON: Time 454560, Note Name: D2, Velocity: 53
Note ON: Time 454560, Note Name: F2, Velocity: 53
Note OFF: Time 455040, Note Name: F2
Note OFF: Time 455040, Note Name: B2
Note OFF: Time 455040, Note Name: G#2
Note OFF: Time 455040, Note Name: D2
Note ON: Time 455040, Note Name: A#2, Velocity: 67
Note ON: Time 455040, Note Name: G2, Velocity: 56
Note ON: Time 455040, Note Name: E2, Velocity: 56
Note OFF: Time 455520, Note Name: E2
Note OFF: Time 455520, Note Name: G2
Note OFF: Time 455520, Note Name: A#2
Note ON: Time 455520, Note Name: F2, Velocity: 67
Note ON: Time 455520, Note Name: G#2, Velocity: 67
Note OFF: Time 456000, Note Name: G#2
Note OFF: Time 456000, Note Name: F2
Note ON: Time 456000, Note Name: G#2, Velocity: 66
Note ON: Time 456000, Note Name: B1, Velocity: 66
Note OFF: Time 456480, Note Name: G#2
Note ON: Time 456480, Note Name: F#2, Velocity: 64
Note OFF: Time 456960, Note Name: F#2
Note OFF: Time 456960, Note Name: B1
Note ON: Time 456960, Note Name: F2, Velocity: 61
Note ON: Time 456960, Note Name: C2, Velocity: 61
Note OFF: Time 457440, Note Name: F2
Note ON: Time 457440, Note Name: E2, Velocity: 59
Note OFF: Time 457920, Note Name: E2
Note OFF: Time 457920, Note Name: C2
Note ON: Time 457920, Note Name: F1, Velocity: 59
Note ON: Time 457920, Note Name: G#1, Velocity: 59
Note ON: Time 457920, Note Name: C2, Velocity: 59
Note ON: Time 457920, Note Name: F2, Velocity: 70
Note OFF: Time 458160, Note Name: F2
Note OFF: Time 458160, Note Name: F1
Note OFF: Time 458160, Note Name: G#1
Note OFF: Time 458160, Note Name: C2
Note ON: Time 458520, Note Name: C3, Velocity: 59
Note OFF: Time 458640, Note Name: C3
Note ON: Time 458640, Note Name: F3, Velocity: 62
Note OFF: Time 458760, Note Name: F3
Note ON: Time 458760, Note Name: G#3, Velocity: 64
Note OFF: Time 458880, Note Name: G#3
Note ON: Time 458880, Note Name: C4, Velocity: 70
Note OFF: Time 459000, Note Name: C4
Note ON: Time 459000, Note Name: C#4, Velocity: 64
Note OFF: Time 459120, Note Name: C#4
Note ON: Time 459120, Note Name: C4, Velocity: 64
Note OFF: Time 459240, Note Name: C4
Note ON: Time 459240, Note Name: A#3, Velocity: 64
Note OFF: Time 459360, Note Name: A#3
Note ON: Time 459360, Note Name: G#3, Velocity: 70
Note OFF: Time 459480, Note Name: G#3
Note ON: Time 459480, Note Name: G3, Velocity: 63
Note OFF: Time 459600, Note Name: G3
Note ON: Time 459600, Note Name: F3, Velocity: 63
Note OFF: Time 459720, Note Name: F3
Note ON: Time 459720, Note Name: D#3, Velocity: 63
Note OFF: Time 459840, Note Name: D#3
Note ON: Time 459840, Note Name: C#3, Velocity: 67
Note OFF: Time 459960, Note Name: C#3
Note ON: Time 459960, Note Name: C3, Velocity: 60
Note OFF: Time 460080, Note Name: C3
Note ON: Time 460080, Note Name: A#2, Velocity: 60
Note OFF: Time 460200, Note Name: A#2
Note ON: Time 460200, Note Name: G#2, Velocity: 60
Note OFF: Time 460320, Note Name: G#2
Note ON: Time 460320, Note Name: G2, Velocity: 71
Note OFF: Time 460440, Note Name: G2
Note ON: Time 460440, Note Name: G#2, Velocity: 65
Note OFF: Time 460560, Note Name: G#2
Note ON: Time 460560, Note Name: A#2, Velocity: 73
Note OFF: Time 460680, Note Name: A#2
Note ON: Time 460680, Note Name: G#2, Velocity: 69
Note OFF: Time 460800, Note Name: G#2
Note ON: Time 460800, Note Name: G2, Velocity: 73
Note OFF: Time 460920, Note Name: G2
Note ON: Time 460920, Note Name: F2, Velocity: 73
Note OFF: Time 461040, Note Name: F2
Note ON: Time 461040, Note Name: E2, Velocity: 72
Note OFF: Time 461160, Note Name: E2
Note ON: Time 461160, Note Name: D2, Velocity: 72
Note OFF: Time 461280, Note Name: D2
Note ON: Time 461280, Note Name: C2, Velocity: 71
Note OFF: Time 461400, Note Name: C2
Note ON: Time 461400, Note Name: A#1, Velocity: 71
Note OFF: Time 461520, Note Name: A#1
Note ON: Time 461520, Note Name: G#1, Velocity: 70
Note OFF: Time 461640, Note Name: G#1
Note ON: Time 461640, Note Name: G1, Velocity: 70
Note OFF: Time 461760, Note Name: G1
Note ON: Time 461760, Note Name: F1, Velocity: 70
Note ON: Time 461760, Note Name: G#1, Velocity: 70
Note ON: Time 461760, Note Name: C2, Velocity: 70
Note ON: Time 461760, Note Name: F2, Velocity: 70
Note OFF: Time 462000, Note Name: F2
Note OFF: Time 462000, Note Name: F1
Note OFF: Time 462000, Note Name: G#1
Note OFF: Time 462000, Note Name: C2
Note ON: Time 462360, Note Name: C4, Velocity: 59
Note OFF: Time 462480, Note Name: C4
Note ON: Time 462480, Note Name: F4, Velocity: 62
Note OFF: Time 462600, Note Name: F4
Note ON: Time 462600, Note Name: G#4, Velocity: 64
Note OFF: Time 462720, Note Name: G#4
Note ON: Time 462720, Note Name: C5, Velocity: 70
Note OFF: Time 462840, Note Name: C5
Note ON: Time 462840, Note Name: C#5, Velocity: 64
Note OFF: Time 462960, Note Name: C#5
Note ON: Time 462960, Note Name: C5, Velocity: 64
Note OFF: Time 463080, Note Name: C5
Note ON: Time 463080, Note Name: A#4, Velocity: 64
Note OFF: Time 463200, Note Name: A#4
Note ON: Time 463200, Note Name: G#4, Velocity: 70
Note OFF: Time 463320, Note Name: G#4
Note ON: Time 463320, Note Name: G4, Velocity: 63
Note OFF: Time 463440, Note Name: G4
Note ON: Time 463440, Note Name: F4, Velocity: 63
Note OFF: Time 463560, Note Name: F4
Note ON: Time 463560, Note Name: D#4, Velocity: 63
Note OFF: Time 463680, Note Name: D#4
Note ON: Time 463680, Note Name: C#4, Velocity: 67
Note OFF: Time 463800, Note Name: C#4
Note ON: Time 463800, Note Name: C4, Velocity: 60
Note OFF: Time 463920, Note Name: C4
Note ON: Time 463920, Note Name: A#3, Velocity: 60
Note OFF: Time 464040, Note Name: A#3
Note ON: Time 464040, Note Name: G#3, Velocity: 60
Note OFF: Time 464160, Note Name: G#3
Note ON: Time 464160, Note Name: G3, Velocity: 71
Note OFF: Time 464280, Note Name: G3
Note ON: Time 464280, Note Name: G#3, Velocity: 65
Note OFF: Time 464400, Note Name: G#3
Note ON: Time 464400, Note Name: A#3, Velocity: 73
Note OFF: Time 464520, Note Name: A#3
Note ON: Time 464520, Note Name: G#3, Velocity: 69
Note OFF: Time 464640, Note Name: G#3
Note ON: Time 464640, Note Name: G3, Velocity: 73
Note OFF: Time 464760, Note Name: G3
Note ON: Time 464760, Note Name: F3, Velocity: 73
Note OFF: Time 464880, Note Name: F3
Note ON: Time 464880, Note Name: E3, Velocity: 72
Note OFF: Time 465000, Note Name: E3
Note ON: Time 465000, Note Name: D3, Velocity: 72
Note OFF: Time 465120, Note Name: D3
Note ON: Time 465120, Note Name: C3, Velocity: 71
Note OFF: Time 465240, Note Name: C3
Note ON: Time 465240, Note Name: A#2, Velocity: 71
Note OFF: Time 465360, Note Name: A#2
Note ON: Time 465360, Note Name: G#2, Velocity: 70
Note OFF: Time 465480, Note Name: G#2
Note ON: Time 465480, Note Name: G2, Velocity: 70
Note OFF: Time 465600, Note Name: G2
Note ON: Time 465600, Note Name: F2, Velocity: 67
Note OFF: Time 465720, Note Name: F2
Note ON: Time 465720, Note Name: G2, Velocity: 60
Note OFF: Time 465840, Note Name: G2
Note ON: Time 465840, Note Name: G#2, Velocity: 60
Note OFF: Time 465960, Note Name: G#2
Note ON: Time 465960, Note Name: A#2, Velocity: 60
Note OFF: Time 466080, Note Name: A#2
Note ON: Time 466080, Note Name: C3, Velocity: 71
Note OFF: Time 466200, Note Name: C3
Note ON: Time 466200, Note Name: D3, Velocity: 65
Note OFF: Time 466320, Note Name: D3
Note ON: Time 466320, Note Name: E3, Velocity: 73
Note OFF: Time 466440, Note Name: E3
Note ON: Time 466440, Note Name: F3, Velocity: 69
Note OFF: Time 466560, Note Name: F3
Note ON: Time 466560, Note Name: G3, Velocity: 73
Note OFF: Time 466680, Note Name: G3
Note ON: Time 466680, Note Name: F3, Velocity: 73
Note OFF: Time 466800, Note Name: F3
Note ON: Time 466800, Note Name: E3, Velocity: 72
Note OFF: Time 466920, Note Name: E3
Note ON: Time 466920, Note Name: D3, Velocity: 72
Note OFF: Time 467040, Note Name: D3
Note ON: Time 467040, Note Name: C3, Velocity: 71
Note OFF: Time 467160, Note Name: C3
Note ON: Time 467160, Note Name: A#2, Velocity: 71
Note OFF: Time 467280, Note Name: A#2
Note ON: Time 467280, Note Name: G#2, Velocity: 70
Note OFF: Time 467400, Note Name: G#2
Note ON: Time 467400, Note Name: G2, Velocity: 70
Note OFF: Time 467520, Note Name: G2
Note ON: Time 467520, Note Name: F2, Velocity: 67
Note OFF: Time 467640, Note Name: F2
Note ON: Time 467640, Note Name: G2, Velocity: 60
Note OFF: Time 467760, Note Name: G2
Note ON: Time 467760, Note Name: G#2, Velocity: 60
Note OFF: Time 467880, Note Name: G#2
Note ON: Time 467880, Note Name: A#2, Velocity: 60
Note OFF: Time 468000, Note Name: A#2
Note ON: Time 468000, Note Name: C3, Velocity: 71
Note OFF: Time 468120, Note Name: C3
Note ON: Time 468120, Note Name: D3, Velocity: 65
Note OFF: Time 468240, Note Name: D3
Note ON: Time 468240, Note Name: E3, Velocity: 73
Note OFF: Time 468360, Note Name: E3
Note ON: Time 468360, Note Name: F3, Velocity: 69
Note OFF: Time 468480, Note Name: F3
Note ON: Time 468480, Note Name: G3, Velocity: 73
Note OFF: Time 468600, Note Name: G3
Note ON: Time 468600, Note Name: F3, Velocity: 73
Note OFF: Time 468720, Note Name: F3
Note ON: Time 468720, Note Name: E3, Velocity: 72
Note OFF: Time 468840, Note Name: E3
Note ON: Time 468840, Note Name: D3, Velocity: 72
Note OFF: Time 468960, Note Name: D3
Note ON: Time 468960, Note Name: C3, Velocity: 71
Note OFF: Time 469080, Note Name: C3
Note ON: Time 469080, Note Name: A#2, Velocity: 71
Note OFF: Time 469200, Note Name: A#2
Note ON: Time 469200, Note Name: G#2, Velocity: 70
Note OFF: Time 469320, Note Name: G#2
Note ON: Time 469320, Note Name: G2, Velocity: 70
Note OFF: Time 469440, Note Name: G2
Note ON: Time 469440, Note Name: F2, Velocity: 67
Note OFF: Time 469920, Note Name: F2
Note ON: Time 470160, Note Name: C3, Velocity: 72
Note ON: Time 470160, Note Name: C2, Velocity: 60
Note ON: Time 470160, Note Name: F2, Velocity: 60
Note ON: Time 470160, Note Name: G#2, Velocity: 60
Note OFF: Time 470340, Note Name: G#2
Note OFF: Time 470340, Note Name: C3
Note OFF: Time 470340, Note Name: C2
Note OFF: Time 470340, Note Name: F2
Note ON: Time 470400, Note Name: G2, Velocity: 63
Note ON: Time 470400, Note Name: E2, Velocity: 63
Note ON: Time 470400, Note Name: A#2, Velocity: 63
Note ON: Time 470400, Note Name: C2, Velocity: 53
Note ON: Time 470400, Note Name: C3, Velocity: 76
Note OFF: Time 470580, Note Name: C3
Note OFF: Time 470580, Note Name: A#2
Note OFF: Time 470580, Note Name: G2
Note OFF: Time 470580, Note Name: E2
Note OFF: Time 470580, Note Name: C2
Note ON: Time 470640, Note Name: G2, Velocity: 62
Note ON: Time 470640, Note Name: C2, Velocity: 53
Note ON: Time 470640, Note Name: E2, Velocity: 62
Note ON: Time 470640, Note Name: A#2, Velocity: 62
Note ON: Time 470640, Note Name: C3, Velocity: 74
Note OFF: Time 470820, Note Name: C3
Note OFF: Time 470820, Note Name: E2
Note OFF: Time 470820, Note Name: G2
Note OFF: Time 470820, Note Name: C2
Note OFF: Time 470820, Note Name: A#2
Note ON: Time 470880, Note Name: G2, Velocity: 52
Note ON: Time 470880, Note Name: E2, Velocity: 52
Note ON: Time 470880, Note Name: C2, Velocity: 52
Note ON: Time 470880, Note Name: A#2, Velocity: 62
Note ON: Time 470880, Note Name: C3, Velocity: 76
Note OFF: Time 471060, Note Name: C3
Note OFF: Time 471060, Note Name: C2
Note OFF: Time 471060, Note Name: G2
Note OFF: Time 471060, Note Name: E2
Note OFF: Time 471060, Note Name: A#2
Note ON: Time 471120, Note Name: G2, Velocity: 59
Note ON: Time 471120, Note Name: A#2, Velocity: 59
Note ON: Time 471120, Note Name: C2, Velocity: 50
Note ON: Time 471120, Note Name: E2, Velocity: 59
Note ON: Time 471120, Note Name: C3, Velocity: 71
Note OFF: Time 471300, Note Name: C3
Note OFF: Time 471300, Note Name: C2
Note OFF: Time 471300, Note Name: G2
Note OFF: Time 471300, Note Name: A#2
Note OFF: Time 471300, Note Name: E2
Note ON: Time 471360, Note Name: C2, Velocity: 56
Note ON: Time 471360, Note Name: C3, Velocity: 67
Note ON: Time 471360, Note Name: G#2, Velocity: 56
Note ON: Time 471360, Note Name: F2, Velocity: 56
Note OFF: Time 471840, Note Name: F2
Note OFF: Time 471840, Note Name: C2
Note OFF: Time 471840, Note Name: C3
Note OFF: Time 471840, Note Name: G#2
Note ON: Time 472080, Note Name: C4, Velocity: 72
Note ON: Time 472080, Note Name: C3, Velocity: 60
Note ON: Time 472080, Note Name: F3, Velocity: 60
Note ON: Time 472080, Note Name: G#3, Velocity: 60
Note OFF: Time 472260, Note Name: G#3
Note OFF: Time 472260, Note Name: C4
Note OFF: Time 472260, Note Name: C3
Note OFF: Time 472260, Note Name: F3
Note ON: Time 472320, Note Name: G3, Velocity: 63
Note ON: Time 472320, Note Name: E3, Velocity: 63
Note ON: Time 472320, Note Name: A#3, Velocity: 63
Note ON: Time 472320, Note Name: C3, Velocity: 53
Note ON: Time 472320, Note Name: C4, Velocity: 76
Note OFF: Time 472500, Note Name: C4
Note OFF: Time 472500, Note Name: A#3
Note OFF: Time 472500, Note Name: G3
Note OFF: Time 472500, Note Name: E3
Note OFF: Time 472500, Note Name: C3
Note ON: Time 472560, Note Name: G3, Velocity: 62
Note ON: Time 472560, Note Name: C3, Velocity: 53
Note ON: Time 472560, Note Name: E3, Velocity: 62
Note ON: Time 472560, Note Name: A#3, Velocity: 62
Note ON: Time 472560, Note Name: C4, Velocity: 74
Note OFF: Time 472740, Note Name: C4
Note OFF: Time 472740, Note Name: E3
Note OFF: Time 472740, Note Name: G3
Note OFF: Time 472740, Note Name: C3
Note OFF: Time 472740, Note Name: A#3
Note ON: Time 472800, Note Name: G3, Velocity: 52
Note ON: Time 472800, Note Name: E3, Velocity: 52
Note ON: Time 472800, Note Name: C3, Velocity: 52
Note ON: Time 472800, Note Name: A#3, Velocity: 62
Note ON: Time 472800, Note Name: C4, Velocity: 76
Note OFF: Time 472980, Note Name: C4
Note OFF: Time 472980, Note Name: C3
Note OFF: Time 472980, Note Name: G3
Note OFF: Time 472980, Note Name: E3
Note OFF: Time 472980, Note Name: A#3
Note ON: Time 473040, Note Name: G3, Velocity: 59
Note ON: Time 473040, Note Name: A#3, Velocity: 59
Note ON: Time 473040, Note Name: C3, Velocity: 50
Note ON: Time 473040, Note Name: E3, Velocity: 59
Note ON: Time 473040, Note Name: C4, Velocity: 71
Note OFF: Time 473220, Note Name: C4
Note OFF: Time 473220, Note Name: C3
Note OFF: Time 473220, Note Name: G3
Note OFF: Time 473220, Note Name: A#3
Note OFF: Time 473220, Note Name: E3
Note ON: Time 473280, Note Name: C3, Velocity: 56
Note ON: Time 473280, Note Name: C4, Velocity: 67
Note ON: Time 473280, Note Name: G#3, Velocity: 56
Note ON: Time 473280, Note Name: F3, Velocity: 56
Note OFF: Time 473760, Note Name: F3
Note OFF: Time 473760, Note Name: C3
Note OFF: Time 473760, Note Name: C4
Note OFF: Time 473760, Note Name: G#3
Note ON: Time 474000, Note Name: C3, Velocity: 64
Note ON: Time 474000, Note Name: C2, Velocity: 54
Note ON: Time 474000, Note Name: F2, Velocity: 54
Note ON: Time 474000, Note Name: G#2, Velocity: 54
Note OFF: Time 474180, Note Name: G#2
Note OFF: Time 474180, Note Name: C3
Note OFF: Time 474180, Note Name: C2
Note OFF: Time 474180, Note Name: F2
Note ON: Time 474240, Note Name: G2, Velocity: 56
Note ON: Time 474240, Note Name: E2, Velocity: 56
Note ON: Time 474240, Note Name: A#2, Velocity: 56
Note ON: Time 474240, Note Name: C2, Velocity: 47
Note ON: Time 474240, Note Name: C3, Velocity: 68
Note OFF: Time 474420, Note Name: C3
Note OFF: Time 474420, Note Name: A#2
Note OFF: Time 474420, Note Name: G2
Note OFF: Time 474420, Note Name: E2
Note OFF: Time 474420, Note Name: C2
Note ON: Time 474480, Note Name: G2, Velocity: 55
Note ON: Time 474480, Note Name: C2, Velocity: 47
Note ON: Time 474480, Note Name: E2, Velocity: 55
Note ON: Time 474480, Note Name: A#2, Velocity: 55
Note ON: Time 474480, Note Name: C3, Velocity: 66
Note OFF: Time 474660, Note Name: C3
Note OFF: Time 474660, Note Name: E2
Note OFF: Time 474660, Note Name: G2
Note OFF: Time 474660, Note Name: C2
Note OFF: Time 474660, Note Name: A#2
Note ON: Time 474720, Note Name: G2, Velocity: 46
Note ON: Time 474720, Note Name: E2, Velocity: 46
Note ON: Time 474720, Note Name: C2, Velocity: 46
Note ON: Time 474720, Note Name: A#2, Velocity: 55
Note ON: Time 474720, Note Name: C3, Velocity: 68
Note OFF: Time 474900, Note Name: C3
Note OFF: Time 474900, Note Name: C2
Note OFF: Time 474900, Note Name: G2
Note OFF: Time 474900, Note Name: E2
Note OFF: Time 474900, Note Name: A#2
Note ON: Time 474960, Note Name: G2, Velocity: 53
Note ON: Time 474960, Note Name: A#2, Velocity: 53
Note ON: Time 474960, Note Name: C2, Velocity: 45
Note ON: Time 474960, Note Name: E2, Velocity: 53
Note ON: Time 474960, Note Name: C3, Velocity: 63
Note OFF: Time 475140, Note Name: C3
Note OFF: Time 475140, Note Name: C2
Note OFF: Time 475140, Note Name: G2
Note OFF: Time 475140, Note Name: A#2
Note OFF: Time 475140, Note Name: E2
Note ON: Time 475200, Note Name: G2, Velocity: 56
Note ON: Time 475200, Note Name: E2, Velocity: 56
Note ON: Time 475200, Note Name: A#2, Velocity: 56
Note ON: Time 475200, Note Name: C2, Velocity: 47
Note ON: Time 475200, Note Name: C3, Velocity: 68
Note OFF: Time 475380, Note Name: C3
Note OFF: Time 475380, Note Name: A#2
Note OFF: Time 475380, Note Name: G2
Note OFF: Time 475380, Note Name: E2
Note OFF: Time 475380, Note Name: C2
Note ON: Time 475440, Note Name: G2, Velocity: 55
Note ON: Time 475440, Note Name: C2, Velocity: 47
Note ON: Time 475440, Note Name: E2, Velocity: 55
Note ON: Time 475440, Note Name: A#2, Velocity: 55
Note ON: Time 475440, Note Name: C3, Velocity: 66
Note OFF: Time 475620, Note Name: C3
Note OFF: Time 475620, Note Name: E2
Note OFF: Time 475620, Note Name: G2
Note OFF: Time 475620, Note Name: C2
Note OFF: Time 475620, Note Name: A#2
Note ON: Time 475680, Note Name: G2, Velocity: 46
Note ON: Time 475680, Note Name: E2, Velocity: 46
Note ON: Time 475680, Note Name: C2, Velocity: 46
Note ON: Time 475680, Note Name: A#2, Velocity: 55
Note ON: Time 475680, Note Name: C3, Velocity: 68
Note OFF: Time 475860, Note Name: C3
Note OFF: Time 475860, Note Name: C2
Note OFF: Time 475860, Note Name: G2
Note OFF: Time 475860, Note Name: E2
Note OFF: Time 475860, Note Name: A#2
Note ON: Time 475920, Note Name: G2, Velocity: 53
Note ON: Time 475920, Note Name: A#2, Velocity: 53
Note ON: Time 475920, Note Name: C2, Velocity: 45
Note ON: Time 475920, Note Name: E2, Velocity: 53
Note ON: Time 475920, Note Name: C3, Velocity: 63
Note OFF: Time 476100, Note Name: C3
Note OFF: Time 476100, Note Name: C2
Note OFF: Time 476100, Note Name: G2
Note OFF: Time 476100, Note Name: A#2
Note OFF: Time 476100, Note Name: E2
Note ON: Time 476160, Note Name: G2, Velocity: 56
Note ON: Time 476160, Note Name: E2, Velocity: 56
Note ON: Time 476160, Note Name: A#2, Velocity: 56
Note ON: Time 476160, Note Name: C2, Velocity: 47
Note ON: Time 476160, Note Name: C3, Velocity: 68
Note OFF: Time 476340, Note Name: C3
Note OFF: Time 476340, Note Name: A#2
Note OFF: Time 476340, Note Name: G2
Note OFF: Time 476340, Note Name: E2
Note OFF: Time 476340, Note Name: C2
Note ON: Time 476400, Note Name: G2, Velocity: 55
Note ON: Time 476400, Note Name: C2, Velocity: 47
Note ON: Time 476400, Note Name: E2, Velocity: 55
Note ON: Time 476400, Note Name: A#2, Velocity: 55
Note ON: Time 476400, Note Name: C3, Velocity: 66
Note OFF: Time 476580, Note Name: C3
Note OFF: Time 476580, Note Name: E2
Note OFF: Time 476580, Note Name: G2
Note OFF: Time 476580, Note Name: C2
Note OFF: Time 476580, Note Name: A#2
Note ON: Time 476640, Note Name: G2, Velocity: 46
Note ON: Time 476640, Note Name: E2, Velocity: 46
Note ON: Time 476640, Note Name: C2, Velocity: 46
Note ON: Time 476640, Note Name: A#2, Velocity: 55
Note ON: Time 476640, Note Name: C3, Velocity: 68
Note OFF: Time 476820, Note Name: C3
Note OFF: Time 476820, Note Name: C2
Note OFF: Time 476820, Note Name: G2
Note OFF: Time 476820, Note Name: E2
Note OFF: Time 476820, Note Name: A#2
Note ON: Time 476880, Note Name: C3, Velocity: 63
Note ON: Time 476880, Note Name: G2, Velocity: 53
Note ON: Time 476880, Note Name: A#2, Velocity: 53
Note ON: Time 476880, Note Name: C2, Velocity: 45
Note ON: Time 476880, Note Name: E2, Velocity: 53
Note OFF: Time 477060, Note Name: E2
Note OFF: Time 477060, Note Name: A#2
Note OFF: Time 477060, Note Name: C3
Note OFF: Time 477060, Note Name: G2
Note OFF: Time 477060, Note Name: C2
Note ON: Time 477120, Note Name: F1, Velocity: 62
Note ON: Time 477120, Note Name: G#1, Velocity: 62
Note ON: Time 477120, Note Name: C2, Velocity: 62
Note ON: Time 477120, Note Name: F2, Velocity: 75
Note OFF: Time 478080, Note Name: F2
Note OFF: Time 478080, Note Name: F1
Note OFF: Time 478080, Note Name: G#1
Note OFF: Time 478080, Note Name: C2
Note ON: Time 478080, Note Name: F1, Velocity: 62
Note ON: Time 478080, Note Name: G#1, Velocity: 62
Note ON: Time 478080, Note Name: C2, Velocity: 62
Note ON: Time 478080, Note Name: F2, Velocity: 75
Note OFF: Time 479040, Note Name: F2
Note OFF: Time 479040, Note Name: F1
Note OFF: Time 479040, Note Name: G#1
Note OFF: Time 479040, Note Name: C2
Note ON: Time 479040, Note Name: C2, Velocity: 40
Note ON: Time 479040, Note Name: C3, Velocity: 40
Note OFF: Time 479160, Note Name: C3
Note OFF: Time 479160, Note Name: C2
Note ON: Time 479280, Note Name: C2, Velocity: 36
Note OFF: Time 479400, Note Name: C2
Note ON: Time 479520, Note Name: C2, Velocity: 36
Note OFF: Time 479640, Note Name: C2
Note ON: Time 479760, Note Name: C2, Velocity: 36
Note OFF: Time 479880, Note Name: C2
Note ON: Time 480000, Note Name: F1, Velocity: 40
Note ON: Time 480000, Note Name: F2, Velocity: 40
Note OFF: Time 480120, Note Name: F2
Note OFF: Time 480120, Note Name: F1
Note ON: Time 480240, Note Name: F2, Velocity: 37
Note OFF: Time 480360, Note Name: F2
Note ON: Time 480480, Note Name: F2, Velocity: 37
Note OFF: Time 480600, Note Name: F2
Note ON: Time 480720, Note Name: F2, Velocity: 37
Note OFF: Time 480840, Note Name: F2
Note ON: Time 480960, Note Name: C2, Velocity: 40
Note ON: Time 480960, Note Name: C3, Velocity: 40
Note OFF: Time 481080, Note Name: C3
Note OFF: Time 481080, Note Name: C2
Note ON: Time 481200, Note Name: C2, Velocity: 36
Note OFF: Time 481320, Note Name: C2
Note ON: Time 481440, Note Name: C2, Velocity: 36
Note OFF: Time 481560, Note Name: C2
Note ON: Time 481680, Note Name: C2, Velocity: 36
Note OFF: Time 481800, Note Name: C2
Note ON: Time 481920, Note Name: F1, Velocity: 40
Note ON: Time 481920, Note Name: F2, Velocity: 40
Note OFF: Time 482040, Note Name: F2
Note OFF: Time 482040, Note Name: F1
Note ON: Time 482160, Note Name: F2, Velocity: 37
Note OFF: Time 482280, Note Name: F2
Note ON: Time 482400, Note Name: F2, Velocity: 38
Note OFF: Time 482520, Note Name: F2
Note ON: Time 482640, Note Name: F2, Velocity: 39
Note OFF: Time 482760, Note Name: F2
Note ON: Time 482880, Note Name: G1, Velocity: 44
Note OFF: Time 483000, Note Name: G1
Note ON: Time 483120, Note Name: G2, Velocity: 39
Note OFF: Time 483240, Note Name: G2
Note ON: Time 483360, Note Name: G1, Velocity: 38
Note OFF: Time 483480, Note Name: G1
Note ON: Time 483600, Note Name: G1, Velocity: 38
Note OFF: Time 483720, Note Name: G1
Note ON: Time 483840, Note Name: C2, Velocity: 48
Note OFF: Time 484320, Note Name: C2
Note ON: Time 484560, Note Name: C2, Velocity: 53
Note OFF: Time 484620, Note Name: C2
Note ON: Time 484620, Note Name: A#1, Velocity: 55
Note OFF: Time 484680, Note Name: A#1
Note ON: Time 484680, Note Name: G#1, Velocity: 57
Note OFF: Time 484740, Note Name: G#1
Note ON: Time 484740, Note Name: G1, Velocity: 61
Note OFF: Time 484800, Note Name: G1
Note ON: Time 484800, Note Name: F1, Velocity: 62
Note ON: Time 484800, Note Name: G#1, Velocity: 62
Note ON: Time 484800, Note Name: C2, Velocity: 62
Note ON: Time 484800, Note Name: F2, Velocity: 75
Note OFF: Time 485760, Note Name: F2
Note OFF: Time 485760, Note Name: F1
Note OFF: Time 485760, Note Name: G#1
Note OFF: Time 485760, Note Name: C2
Note ON: Time 485760, Note Name: F1, Velocity: 62
Note ON: Time 485760, Note Name: G#1, Velocity: 62
Note ON: Time 485760, Note Name: C2, Velocity: 62
Note ON: Time 485760, Note Name: F2, Velocity: 75
Note OFF: Time 486720, Note Name: F2
Note OFF: Time 486720, Note Name: F1
Note OFF: Time 486720, Note Name: G#1
Note OFF: Time 486720, Note Name: C2
Note ON: Time 486720, Note Name: C2, Velocity: 40
Note ON: Time 486720, Note Name: C3, Velocity: 40
Note OFF: Time 486840, Note Name: C3
Note OFF: Time 486840, Note Name: C2
Note ON: Time 486960, Note Name: C2, Velocity: 36
Note OFF: Time 487080, Note Name: C2
Note ON: Time 487200, Note Name: C2, Velocity: 36
Note OFF: Time 487320, Note Name: C2
Note ON: Time 487440, Note Name: C2, Velocity: 36
Note OFF: Time 487560, Note Name: C2
Note ON: Time 487680, Note Name: F1, Velocity: 40
Note ON: Time 487680, Note Name: F2, Velocity: 40
Note OFF: Time 487800, Note Name: F2
Note OFF: Time 487800, Note Name: F1
Note ON: Time 487920, Note Name: F2, Velocity: 37
Note OFF: Time 488040, Note Name: F2
Note ON: Time 488160, Note Name: F2, Velocity: 37
Note OFF: Time 488280, Note Name: F2
Note ON: Time 488400, Note Name: F2, Velocity: 37
Note OFF: Time 488520, Note Name: F2
Note ON: Time 488640, Note Name: C2, Velocity: 40
Note ON: Time 488640, Note Name: C3, Velocity: 40
Note OFF: Time 488760, Note Name: C3
Note OFF: Time 488760, Note Name: C2
Note ON: Time 488880, Note Name: C2, Velocity: 36
Note OFF: Time 489000, Note Name: C2
Note ON: Time 489120, Note Name: C2, Velocity: 36
Note OFF: Time 489240, Note Name: C2
Note ON: Time 489360, Note Name: C2, Velocity: 36
Note OFF: Time 489480, Note Name: C2
Note ON: Time 489600, Note Name: F1, Velocity: 40
Note ON: Time 489600, Note Name: F2, Velocity: 40
Note OFF: Time 489720, Note Name: F2
Note OFF: Time 489720, Note Name: F1
Note ON: Time 489840, Note Name: F2, Velocity: 37
Note OFF: Time 489960, Note Name: F2
Note ON: Time 490080, Note Name: F2, Velocity: 38
Note OFF: Time 490200, Note Name: F2
Note ON: Time 490320, Note Name: F2, Velocity: 39
Note OFF: Time 490440, Note Name: F2
Note ON: Time 490560, Note Name: G1, Velocity: 44
Note OFF: Time 490680, Note Name: G1
Note ON: Time 490800, Note Name: G2, Velocity: 39
Note OFF: Time 490920, Note Name: G2
Note ON: Time 491040, Note Name: G1, Velocity: 38
Note OFF: Time 491160, Note Name: G1
Note ON: Time 491280, Note Name: G1, Velocity: 38
Note OFF: Time 491400, Note Name: G1
Note ON: Time 491520, Note Name: C2, Velocity: 48
Note OFF: Time 492000, Note Name: C2
Note ON: Time 492240, Note Name: D#2, Velocity: 63
Note OFF: Time 492320, Note Name: D#2
Note ON: Time 492320, Note Name: F2, Velocity: 66
Note OFF: Time 492400, Note Name: F2
Note ON: Time 492400, Note Name: G2, Velocity: 68
Note OFF: Time 492480, Note Name: G2
Note ON: Time 492480, Note Name: G#1, Velocity: 62
Note ON: Time 492480, Note Name: C2, Velocity: 62
Note ON: Time 492480, Note Name: D#2, Velocity: 62
Note ON: Time 492480, Note Name: G#2, Velocity: 75
Note OFF: Time 493440, Note Name: G#2
Note OFF: Time 493440, Note Name: G#1
Note OFF: Time 493440, Note Name: C2
Note OFF: Time 493440, Note Name: D#2
Note ON: Time 493440, Note Name: G#1, Velocity: 62
Note ON: Time 493440, Note Name: C2, Velocity: 62
Note ON: Time 493440, Note Name: D#2, Velocity: 62
Note ON: Time 493440, Note Name: G#2, Velocity: 75
Note OFF: Time 494400, Note Name: G#2
Note OFF: Time 494400, Note Name: G#1
Note OFF: Time 494400, Note Name: C2
Note OFF: Time 494400, Note Name: D#2
Note ON: Time 494400, Note Name: D#2, Velocity: 40
Note ON: Time 494400, Note Name: D#3, Velocity: 40
Note OFF: Time 494520, Note Name: D#3
Note OFF: Time 494520, Note Name: D#2
Note ON: Time 494640, Note Name: D#2, Velocity: 36
Note OFF: Time 494760, Note Name: D#2
Note ON: Time 494880, Note Name: D#2, Velocity: 36
Note OFF: Time 495000, Note Name: D#2
Note ON: Time 495120, Note Name: D#2, Velocity: 36
Note OFF: Time 495240, Note Name: D#2
Note ON: Time 495360, Note Name: G#1, Velocity: 40
Note ON: Time 495360, Note Name: G#2, Velocity: 40
Note OFF: Time 495480, Note Name: G#2
Note OFF: Time 495480, Note Name: G#1
Note ON: Time 495600, Note Name: G#2, Velocity: 37
Note OFF: Time 495720, Note Name: G#2
Note ON: Time 495840, Note Name: G#2, Velocity: 37
Note OFF: Time 495960, Note Name: G#2
Note ON: Time 496080, Note Name: G#2, Velocity: 37
Note OFF: Time 496200, Note Name: G#2
Note ON: Time 496320, Note Name: D#2, Velocity: 40
Note ON: Time 496320, Note Name: D#3, Velocity: 40
Note OFF: Time 496440, Note Name: D#3
Note OFF: Time 496440, Note Name: D#2
Note ON: Time 496560, Note Name: D#2, Velocity: 36
Note OFF: Time 496680, Note Name: D#2
Note ON: Time 496800, Note Name: D#2, Velocity: 36
Note OFF: Time 496920, Note Name: D#2
Note ON: Time 497040, Note Name: D#2, Velocity: 36
Note OFF: Time 497160, Note Name: D#2
Note ON: Time 497280, Note Name: G#1, Velocity: 40
Note ON: Time 497280, Note Name: G#2, Velocity: 40
Note OFF: Time 497400, Note Name: G#2
Note OFF: Time 497400, Note Name: G#1
Note ON: Time 497520, Note Name: G#2, Velocity: 37
Note OFF: Time 497640, Note Name: G#2
Note ON: Time 497760, Note Name: G#2, Velocity: 37
Note OFF: Time 497880, Note Name: G#2
Note ON: Time 498000, Note Name: G#2, Velocity: 37
Note OFF: Time 498120, Note Name: G#2
Note ON: Time 498240, Note Name: F1, Velocity: 42
Note ON: Time 498240, Note Name: F2, Velocity: 42
Note OFF: Time 498360, Note Name: F2
Note OFF: Time 498360, Note Name: F1
Note ON: Time 498480, Note Name: F1, Velocity: 37
Note OFF: Time 498600, Note Name: F1
Note ON: Time 498720, Note Name: F1, Velocity: 38
Note OFF: Time 498840, Note Name: F1
Note ON: Time 498960, Note Name: F1, Velocity: 38
Note OFF: Time 499080, Note Name: F1
Note ON: Time 499200, Note Name: A#1, Velocity: 43
Note ON: Time 499200, Note Name: A#2, Velocity: 43
Note OFF: Time 499320, Note Name: A#2
Note OFF: Time 499320, Note Name: A#1
Note ON: Time 499440, Note Name: A#2, Velocity: 40
Note OFF: Time 499560, Note Name: A#2
Note ON: Time 499680, Note Name: A#2, Velocity: 42
Note OFF: Time 499800, Note Name: A#2
Note ON: Time 499920, Note Name: A#2, Velocity: 42
Note OFF: Time 500040, Note Name: A#2
Note ON: Time 500160, Note Name: C2, Velocity: 48
Note OFF: Time 500280, Note Name: C2
Note ON: Time 500400, Note Name: C3, Velocity: 43
Note OFF: Time 500520, Note Name: C3
Note ON: Time 500640, Note Name: C2, Velocity: 42
Note OFF: Time 500760, Note Name: C2
Note ON: Time 500880, Note Name: C2, Velocity: 42
Note OFF: Time 501000, Note Name: C2
Note ON: Time 501120, Note Name: F1, Velocity: 48
Note ON: Time 501120, Note Name: F2, Velocity: 48
Note OFF: Time 501600, Note Name: F2
Note OFF: Time 501600, Note Name: F1
Note ON: Time 501840, Note Name: D#2, Velocity: 63
Note OFF: Time 501920, Note Name: D#2
Note ON: Time 501920, Note Name: F2, Velocity: 66
Note OFF: Time 502000, Note Name: F2
Note ON: Time 502000, Note Name: G2, Velocity: 68
Note OFF: Time 502080, Note Name: G2
Note ON: Time 502080, Note Name: G#1, Velocity: 62
Note ON: Time 502080, Note Name: C2, Velocity: 62
Note ON: Time 502080, Note Name: D#2, Velocity: 62
Note ON: Time 502080, Note Name: G#2, Velocity: 75
Note OFF: Time 503040, Note Name: G#2
Note OFF: Time 503040, Note Name: G#1
Note OFF: Time 503040, Note Name: C2
Note OFF: Time 503040, Note Name: D#2
Note ON: Time 503040, Note Name: G#1, Velocity: 62
Note ON: Time 503040, Note Name: C2, Velocity: 62
Note ON: Time 503040, Note Name: D#2, Velocity: 62
Note ON: Time 503040, Note Name: G#2, Velocity: 75
Note OFF: Time 504000, Note Name: G#2
Note OFF: Time 504000, Note Name: G#1
Note OFF: Time 504000, Note Name: C2
Note OFF: Time 504000, Note Name: D#2
Note ON: Time 504000, Note Name: D#2, Velocity: 40
Note ON: Time 504000, Note Name: D#3, Velocity: 40
Note OFF: Time 504120, Note Name: D#3
Note OFF: Time 504120, Note Name: D#2
Note ON: Time 504240, Note Name: D#2, Velocity: 36
Note OFF: Time 504360, Note Name: D#2
Note ON: Time 504480, Note Name: D#2, Velocity: 36
Note OFF: Time 504600, Note Name: D#2
Note ON: Time 504720, Note Name: D#2, Velocity: 36
Note OFF: Time 504840, Note Name: D#2
Note ON: Time 504960, Note Name: G#1, Velocity: 40
Note ON: Time 504960, Note Name: G#2, Velocity: 40
Note OFF: Time 505080, Note Name: G#2
Note OFF: Time 505080, Note Name: G#1
Note ON: Time 505200, Note Name: G#2, Velocity: 37
Note OFF: Time 505320, Note Name: G#2
Note ON: Time 505440, Note Name: G#2, Velocity: 37
Note OFF: Time 505560, Note Name: G#2
Note ON: Time 505680, Note Name: G#2, Velocity: 37
Note OFF: Time 505800, Note Name: G#2
Note ON: Time 505920, Note Name: D#2, Velocity: 40
Note ON: Time 505920, Note Name: D#3, Velocity: 40
Note OFF: Time 506040, Note Name: D#3
Note OFF: Time 506040, Note Name: D#2
Note ON: Time 506160, Note Name: D#2, Velocity: 36
Note OFF: Time 506280, Note Name: D#2
Note ON: Time 506400, Note Name: D#2, Velocity: 36
Note OFF: Time 506520, Note Name: D#2
Note ON: Time 506640, Note Name: D#2, Velocity: 36
Note OFF: Time 506760, Note Name: D#2
Note ON: Time 506880, Note Name: G#1, Velocity: 40
Note ON: Time 506880, Note Name: G#2, Velocity: 40
Note OFF: Time 507000, Note Name: G#2
Note OFF: Time 507000, Note Name: G#1
Note ON: Time 507120, Note Name: G#2, Velocity: 37
Note OFF: Time 507240, Note Name: G#2
Note ON: Time 507360, Note Name: G#2, Velocity: 37
Note OFF: Time 507480, Note Name: G#2
Note ON: Time 507600, Note Name: G#2, Velocity: 37
Note OFF: Time 507720, Note Name: G#2
Note ON: Time 507840, Note Name: F1, Velocity: 42
Note ON: Time 507840, Note Name: F2, Velocity: 42
Note OFF: Time 507960, Note Name: F2
Note OFF: Time 507960, Note Name: F1
Note ON: Time 508080, Note Name: F1, Velocity: 37
Note OFF: Time 508200, Note Name: F1
Note ON: Time 508320, Note Name: F1, Velocity: 38
Note OFF: Time 508440, Note Name: F1
Note ON: Time 508560, Note Name: F1, Velocity: 38
Note OFF: Time 508680, Note Name: F1
Note ON: Time 508800, Note Name: A#1, Velocity: 43
Note ON: Time 508800, Note Name: A#2, Velocity: 43
Note OFF: Time 508920, Note Name: A#2
Note OFF: Time 508920, Note Name: A#1
Note ON: Time 509040, Note Name: A#2, Velocity: 40
Note OFF: Time 509160, Note Name: A#2
Note ON: Time 509280, Note Name: A#2, Velocity: 42
Note OFF: Time 509400, Note Name: A#2
Note ON: Time 509520, Note Name: A#2, Velocity: 42
Note OFF: Time 509640, Note Name: A#2
Note ON: Time 509760, Note Name: C2, Velocity: 48
Note OFF: Time 509880, Note Name: C2
Note ON: Time 510000, Note Name: C3, Velocity: 43
Note OFF: Time 510120, Note Name: C3
Note ON: Time 510240, Note Name: C2, Velocity: 42
Note OFF: Time 510360, Note Name: C2
Note ON: Time 510480, Note Name: C2, Velocity: 42
Note OFF: Time 510600, Note Name: C2
Note ON: Time 510720, Note Name: F1, Velocity: 54
Note ON: Time 510720, Note Name: F2, Velocity: 54
Note OFF: Time 510840, Note Name: F2
Note OFF: Time 510840, Note Name: F1
Note ON: Time 510840, Note Name: F2, Velocity: 45
Note ON: Time 510960, Note Name: G#2, Velocity: 49
Note ON: Time 511080, Note Name: C3, Velocity: 52
Note ON: Time 511200, Note Name: F3, Velocity: 67
Note OFF: Time 511800, Note Name: F3
Note OFF: Time 511800, Note Name: F2
Note OFF: Time 511800, Note Name: G#2
Note OFF: Time 511800, Note Name: C3
Note ON: Time 511800, Note Name: F2, Velocity: 45
Note ON: Time 511920, Note Name: G#2, Velocity: 49
Note ON: Time 512040, Note Name: C3, Velocity: 52
Note ON: Time 512160, Note Name: F3, Velocity: 67
Note OFF: Time 512760, Note Name: F3
Note OFF: Time 512760, Note Name: F2
Note OFF: Time 512760, Note Name: G#2
Note OFF: Time 512760, Note Name: C3
Note ON: Time 512760, Note Name: F2, Velocity: 45
Note ON: Time 512880, Note Name: G#2, Velocity: 49
Note ON: Time 513000, Note Name: C3, Velocity: 52
Note ON: Time 513120, Note Name: F3, Velocity: 67
Note OFF: Time 513720, Note Name: F3
Note OFF: Time 513720, Note Name: F2
Note OFF: Time 513720, Note Name: G#2
Note OFF: Time 513720, Note Name: C3
Note ON: Time 513720, Note Name: F2, Velocity: 45
Note ON: Time 513840, Note Name: G#2, Velocity: 49
Note ON: Time 513960, Note Name: C3, Velocity: 52
Note ON: Time 514080, Note Name: F3, Velocity: 67
Note OFF: Time 514560, Note Name: F3
Note OFF: Time 514560, Note Name: F2
Note OFF: Time 514560, Note Name: G#2
Note OFF: Time 514560, Note Name: C3
Note ON: Time 514680, Note Name: A#2, Velocity: 45
Note ON: Time 514800, Note Name: C#3, Velocity: 49
Note ON: Time 514920, Note Name: F#3, Velocity: 52
Note ON: Time 515040, Note Name: A#3, Velocity: 67
Note OFF: Time 515640, Note Name: A#3
Note OFF: Time 515640, Note Name: A#2
Note OFF: Time 515640, Note Name: C#3
Note OFF: Time 515640, Note Name: F#3
Note ON: Time 515640, Note Name: A#2, Velocity: 45
Note ON: Time 515760, Note Name: C#3, Velocity: 49
Note ON: Time 515880, Note Name: F#3, Velocity: 52
Note ON: Time 516000, Note Name: A#3, Velocity: 67
Note OFF: Time 516480, Note Name: A#3
Note OFF: Time 516480, Note Name: A#2
Note OFF: Time 516480, Note Name: C#3
Note OFF: Time 516480, Note Name: F#3
Note ON: Time 516600, Note Name: C3, Velocity: 45
Note ON: Time 516720, Note Name: G3, Velocity: 49
Note ON: Time 516840, Note Name: A#3, Velocity: 52
Note ON: Time 516960, Note Name: C4, Velocity: 67
Note OFF: Time 517560, Note Name: C4
Note OFF: Time 517560, Note Name: C3
Note OFF: Time 517560, Note Name: G3
Note OFF: Time 517560, Note Name: A#3
Note ON: Time 517560, Note Name: C3, Velocity: 45
Note ON: Time 517680, Note Name: G3, Velocity: 49
Note ON: Time 517800, Note Name: A#3, Velocity: 52
Note ON: Time 517920, Note Name: C4, Velocity: 67
Note OFF: Time 518400, Note Name: C4
Note OFF: Time 518400, Note Name: C3
Note OFF: Time 518400, Note Name: G3
Note OFF: Time 518400, Note Name: A#3
Note ON: Time 518400, Note Name: F2, Velocity: 56
Note ON: Time 518400, Note Name: F3, Velocity: 56
Note OFF: Time 518520, Note Name: F3
Note OFF: Time 518520, Note Name: F2
Note ON: Time 518520, Note Name: F3, Velocity: 47
Note ON: Time 518640, Note Name: G#3, Velocity: 51
Note ON: Time 518760, Note Name: C4, Velocity: 54
Note ON: Time 518880, Note Name: F4, Velocity: 71
Note OFF: Time 519480, Note Name: F4
Note OFF: Time 519480, Note Name: F3
Note OFF: Time 519480, Note Name: G#3
Note OFF: Time 519480, Note Name: C4
Note ON: Time 519480, Note Name: F3, Velocity: 47
Note ON: Time 519600, Note Name: G#3, Velocity: 51
Note ON: Time 519720, Note Name: C4, Velocity: 54
Note ON: Time 519840, Note Name: F4, Velocity: 71
Note OFF: Time 520440, Note Name: F4
Note OFF: Time 520440, Note Name: F3
Note OFF: Time 520440, Note Name: G#3
Note OFF: Time 520440, Note Name: C4
Note ON: Time 520440, Note Name: F3, Velocity: 47
Note ON: Time 520560, Note Name: G#3, Velocity: 51
Note ON: Time 520680, Note Name: C4, Velocity: 54
Note ON: Time 520800, Note Name: F4, Velocity: 71
Note OFF: Time 521400, Note Name: F4
Note OFF: Time 521400, Note Name: F3
Note OFF: Time 521400, Note Name: G#3
Note OFF: Time 521400, Note Name: C4
Note ON: Time 521400, Note Name: F3, Velocity: 47
Note ON: Time 521520, Note Name: G#3, Velocity: 51
Note ON: Time 521640, Note Name: C4, Velocity: 54
Note ON: Time 521760, Note Name: F4, Velocity: 71
Note OFF: Time 522240, Note Name: F4
Note OFF: Time 522240, Note Name: F3
Note OFF: Time 522240, Note Name: G#3
Note OFF: Time 522240, Note Name: C4
Note ON: Time 522360, Note Name: A#3, Velocity: 47
Note ON: Time 522480, Note Name: C#4, Velocity: 51
Note ON: Time 522600, Note Name: F#4, Velocity: 54
Note ON: Time 522720, Note Name: A#4, Velocity: 71
Note OFF: Time 523320, Note Name: A#4
Note OFF: Time 523320, Note Name: A#3
Note OFF: Time 523320, Note Name: C#4
Note OFF: Time 523320, Note Name: F#4
Note ON: Time 523320, Note Name: A#3, Velocity: 47
Note ON: Time 523440, Note Name: C#4, Velocity: 51
Note ON: Time 523560, Note Name: F#4, Velocity: 54
Note ON: Time 523680, Note Name: A#4, Velocity: 71
Note OFF: Time 524160, Note Name: A#4
Note OFF: Time 524160, Note Name: A#3
Note OFF: Time 524160, Note Name: C#4
Note OFF: Time 524160, Note Name: F#4
Note ON: Time 524280, Note Name: C4, Velocity: 47
Note ON: Time 524400, Note Name: E4, Velocity: 51
Note ON: Time 524520, Note Name: G4, Velocity: 54
Note ON: Time 524640, Note Name: C5, Velocity: 71
Note OFF: Time 525240, Note Name: C5
Note OFF: Time 525240, Note Name: C4
Note OFF: Time 525240, Note Name: E4
Note OFF: Time 525240, Note Name: G4
Note ON: Time 525240, Note Name: C3, Velocity: 47
Note ON: Time 525360, Note Name: E3, Velocity: 51
Note ON: Time 525480, Note Name: G3, Velocity: 54
Note ON: Time 525600, Note Name: C4, Velocity: 73
Note OFF: Time 526080, Note Name: C4
Note OFF: Time 526080, Note Name: C3
Note OFF: Time 526080, Note Name: E3
Note OFF: Time 526080, Note Name: G3
Note ON: Time 526080, Note Name: F2, Velocity: 77
Note ON: Time 526080, Note Name: F3, Velocity: 77
Note OFF: Time 526200, Note Name: F3
Note OFF: Time 526200, Note Name: F2
Note ON: Time 526800, Note Name: C5, Velocity: 71
Note ON: Time 526920, Note Name: F5, Velocity: 74
Note ON: Time 527040, Note Name: G#5, Velocity: 89
Note OFF: Time 527760, Note Name: G#5
Note OFF: Time 527760, Note Name: F5
Note OFF: Time 527760, Note Name: C5
Note ON: Time 527760, Note Name: C4, Velocity: 67
Note OFF: Time 528000, Note Name: C4
Note ON: Time 528000, Note Name: F4, Velocity: 82
Note OFF: Time 528240, Note Name: F4
Note ON: Time 528720, Note Name: C5, Velocity: 71
Note ON: Time 528840, Note Name: F5, Velocity: 74
Note ON: Time 528960, Note Name: G#5, Velocity: 87
Note OFF: Time 529680, Note Name: G#5
Note OFF: Time 529680, Note Name: F5
Note OFF: Time 529680, Note Name: C5
Note ON: Time 529680, Note Name: C4, Velocity: 67
Note OFF: Time 529920, Note Name: C4
Note ON: Time 529920, Note Name: F4, Velocity: 82
Note OFF: Time 530160, Note Name: F4
Note ON: Time 530640, Note Name: C5, Velocity: 71
Note ON: Time 530760, Note Name: F5, Velocity: 74
Note ON: Time 530880, Note Name: G#5, Velocity: 86
Note OFF: Time 531600, Note Name: G#5
Note OFF: Time 531600, Note Name: F5
Note OFF: Time 531600, Note Name: C5
Note ON: Time 531600, Note Name: C4, Velocity: 67
Note OFF: Time 531840, Note Name: C4
Note ON: Time 531840, Note Name: F4, Velocity: 85
Note OFF: Time 532080, Note Name: F4
Note ON: Time 532560, Note Name: C5, Velocity: 71
Note ON: Time 532680, Note Name: F5, Velocity: 74
Note ON: Time 532800, Note Name: G#5, Velocity: 88
Note OFF: Time 533520, Note Name: G#5
Note OFF: Time 533520, Note Name: F5
Note OFF: Time 533520, Note Name: C5
Note ON: Time 533520, Note Name: C4, Velocity: 66
Note OFF: Time 533760, Note Name: C4
Note ON: Time 533760, Note Name: F4, Velocity: 88
Note OFF: Time 534240, Note Name: F4
Note ON: Time 534480, Note Name: C4, Velocity: 67
Note OFF: Time 534720, Note Name: C4
Note ON: Time 534720, Note Name: F3, Velocity: 89
Note OFF: Time 535200, Note Name: F3
Note ON: Time 535440, Note Name: C3, Velocity: 66
Note OFF: Time 535680, Note Name: C3
Note ON: Time 535680, Note Name: F2, Velocity: 92
Note OFF: Time 536160, Note Name: F2
Note ON: Time 536400, Note Name: C2, Velocity: 63
Note OFF: Time 536640, Note Name: C2
Note ON: Time 536640, Note Name: F1, Velocity: 87
Note OFF: Time 536880, Note Name: F1
Note ON: Time 536880, Note Name: C2, Velocity: 65
Note OFF: Time 537120, Note Name: C2
Note ON: Time 537120, Note Name: F1, Velocity: 89
Note OFF: Time 537360, Note Name: F1
Note ON: Time 537360, Note Name: C2, Velocity: 64
Note OFF: Time 537600, Note Name: C2
Note ON: Time 537600, Note Name: F1, Velocity: 72
Note OFF: Time 537720, Note Name: F1
Note ON: Time 537720, Note Name: G#1, Velocity: 63
Note OFF: Time 537840, Note Name: G#1
Note ON: Time 537840, Note Name: C2, Velocity: 63
Note OFF: Time 537960, Note Name: C2
Note ON: Time 537960, Note Name: F2, Velocity: 63
Note OFF: Time 538080, Note Name: F2
Note ON: Time 538080, Note Name: F1, Velocity: 72
Note OFF: Time 538200, Note Name: F1
Note ON: Time 538200, Note Name: G#1, Velocity: 63
Note OFF: Time 538320, Note Name: G#1
Note ON: Time 538320, Note Name: C2, Velocity: 63
Note OFF: Time 538440, Note Name: C2
Note ON: Time 538440, Note Name: F2, Velocity: 63
Note OFF: Time 538560, Note Name: F2
Note ON: Time 538560, Note Name: F1, Velocity: 72
Note OFF: Time 538680, Note Name: F1
Note ON: Time 538680, Note Name: G#1, Velocity: 63
Note OFF: Time 538800, Note Name: G#1
Note ON: Time 538800, Note Name: C2, Velocity: 63
Note OFF: Time 538920, Note Name: C2
Note ON: Time 538920, Note Name: F2, Velocity: 63
Note OFF: Time 539040, Note Name: F2
Note ON: Time 539040, Note Name: F1, Velocity: 72
Note OFF: Time 539160, Note Name: F1
Note ON: Time 539160, Note Name: G#1, Velocity: 63
Note OFF: Time 539280, Note Name: G#1
Note ON: Time 539280, Note Name: C2, Velocity: 63
Note OFF: Time 539400, Note Name: C2
Note ON: Time 539400, Note Name: F2, Velocity: 63
Note OFF: Time 539520, Note Name: F2
Note ON: Time 539520, Note Name: F1, Velocity: 72
Note OFF: Time 539640, Note Name: F1
Note ON: Time 539640, Note Name: G#1, Velocity: 63
Note OFF: Time 539760, Note Name: G#1
Note ON: Time 539760, Note Name: C2, Velocity: 63
Note OFF: Time 539880, Note Name: C2
Note ON: Time 539880, Note Name: F2, Velocity: 63
Note OFF: Time 540000, Note Name: F2
Note ON: Time 540000, Note Name: F1, Velocity: 72
Note OFF: Time 540120, Note Name: F1
Note ON: Time 540120, Note Name: G#1, Velocity: 63
Note OFF: Time 540240, Note Name: G#1
Note ON: Time 540240, Note Name: C2, Velocity: 63
Note OFF: Time 540360, Note Name: C2
Note ON: Time 540360, Note Name: F2, Velocity: 63
Note OFF: Time 540480, Note Name: F2
Note ON: Time 540480, Note Name: F1, Velocity: 72
Note OFF: Time 540600, Note Name: F1
Note ON: Time 540600, Note Name: G#1, Velocity: 63
Note OFF: Time 540720, Note Name: G#1
Note ON: Time 540720, Note Name: C2, Velocity: 63
Note OFF: Time 540840, Note Name: C2
Note ON: Time 540840, Note Name: F2, Velocity: 63
Note OFF: Time 540960, Note Name: F2
Note ON: Time 540960, Note Name: F1, Velocity: 72
Note OFF: Time 541080, Note Name: F1
Note ON: Time 541080, Note Name: G#1, Velocity: 63
Note OFF: Time 541200, Note Name: G#1
Note ON: Time 541200, Note Name: C2, Velocity: 63
Note OFF: Time 541320, Note Name: C2
Note ON: Time 541320, Note Name: F2, Velocity: 63
Note OFF: Time 541440, Note Name: F2
Note ON: Time 541440, Note Name: F1, Velocity: 72
Note OFF: Time 541560, Note Name: F1
Note ON: Time 541560, Note Name: G#1, Velocity: 63
Note OFF: Time 541680, Note Name: G#1
Note ON: Time 541680, Note Name: C2, Velocity: 63
Note OFF: Time 541800, Note Name: C2
Note ON: Time 541800, Note Name: F2, Velocity: 63
Note OFF: Time 541920, Note Name: F2
Note ON: Time 541920, Note Name: F1, Velocity: 72
Note OFF: Time 542040, Note Name: F1
Note ON: Time 542040, Note Name: G#1, Velocity: 63
Note OFF: Time 542160, Note Name: G#1
Note ON: Time 542160, Note Name: C2, Velocity: 63
Note OFF: Time 542280, Note Name: C2
Note ON: Time 542280, Note Name: F2, Velocity: 63
Note OFF: Time 542400, Note Name: F2
Note ON: Time 542400, Note Name: F1, Velocity: 72
Note OFF: Time 542520, Note Name: F1
Note ON: Time 542520, Note Name: G#1, Velocity: 63
Note OFF: Time 542640, Note Name: G#1
Note ON: Time 542640, Note Name: C2, Velocity: 63
Note OFF: Time 542760, Note Name: C2
Note ON: Time 542760, Note Name: F2, Velocity: 63
Note OFF: Time 542880, Note Name: F2
Note ON: Time 542880, Note Name: F1, Velocity: 72
Note OFF: Time 543000, Note Name: F1
Note ON: Time 543000, Note Name: G#1, Velocity: 63
Note OFF: Time 543120, Note Name: G#1
Note ON: Time 543120, Note Name: C2, Velocity: 63
Note OFF: Time 543240, Note Name: C2
Note ON: Time 543240, Note Name: F2, Velocity: 63
Note OFF: Time 543360, Note Name: F2
Note ON: Time 543360, Note Name: F1, Velocity: 69
Note ON: Time 543360, Note Name: G#1, Velocity: 69
Note ON: Time 543360, Note Name: C2, Velocity: 69
Note ON: Time 543360, Note Name: F2, Velocity: 81
Note OFF: Time 543600, Note Name: F2
Note OFF: Time 543600, Note Name: F1
Note OFF: Time 543600, Note Name: G#1
Note OFF: Time 543600, Note Name: C2
Note ON: Time 544320, Note Name: F1, Velocity: 72
Note ON: Time 544320, Note Name: G#1, Velocity: 72
Note ON: Time 544320, Note Name: C2, Velocity: 72
Note ON: Time 544320, Note Name: F2, Velocity: 85
Note OFF: Time 544560, Note Name: F2
Note OFF: Time 544560, Note Name: F1
Note OFF: Time 544560, Note Name: G#1
Note OFF: Time 544560, Note Name: C2
Note ON: Time 545280, Note Name: F1, Velocity: 72
Note ON: Time 545280, Note Name: G#1, Velocity: 72
Note ON: Time 545280, Note Name: C2, Velocity: 72
Note ON: Time 545280, Note Name: F2, Velocity: 85
Note OFF: Time 545520, Note Name: F2
Note OFF: Time 545520, Note Name: F1
Note OFF: Time 545520, Note Name: G#1
Note OFF: Time 545520, Note Name: C2
Track 3: Pedal
Track 4: Beethoven: Sonate Op. 57 (Appassionata) 2. Satz
Track 5: Copyright  2001 by Bernd Krger
Track 6: http://www.piano-midi.de
Track 7: Edition: 2012-07-30
Track 8: Spur 8
Track 9: Spur 9
Track 10: Spur 10
