Processing beethoven_opus22_1.mid...

Track 0: Grande Sonata Opus 22 1. movement
Track 1: Piano right
Note ON: Time 1440, Note Name: A#3, Velocity: 42
Note ON: Time 1440, Note Name: D4, Velocity: 50
Note OFF: Time 1560, Note Name: A#3
Note ON: Time 1560, Note Name: A3, Velocity: 40
Note OFF: Time 1680, Note Name: A3
Note ON: Time 1680, Note Name: A#3, Velocity: 45
Note OFF: Time 1800, Note Name: A#3
Note ON: Time 1800, Note Name: F3, Velocity: 39
Note OFF: Time 1920, Note Name: F3
Note OFF: Time 1920, Note Name: D4
Note ON: Time 1920, Note Name: D4, Velocity: 35
Note ON: Time 1920, Note Name: F4, Velocity: 42
Note OFF: Time 2010, Note Name: F4
Note OFF: Time 2010, Note Name: D4
Note ON: Time 2400, Note Name: A#3, Velocity: 32
Note ON: Time 2400, Note Name: D4, Velocity: 38
Note OFF: Time 2490, Note Name: D4
Note OFF: Time 2490, Note Name: A#3
Note ON: Time 3360, Note Name: A#3, Velocity: 42
Note ON: Time 3360, Note Name: D4, Velocity: 50
Note OFF: Time 3480, Note Name: A#3
Note ON: Time 3480, Note Name: A3, Velocity: 40
Note OFF: Time 3600, Note Name: A3
Note ON: Time 3600, Note Name: A#3, Velocity: 45
Note OFF: Time 3720, Note Name: A#3
Note ON: Time 3720, Note Name: F3, Velocity: 39
Note OFF: Time 3840, Note Name: F3
Note OFF: Time 3840, Note Name: D4
Note ON: Time 3840, Note Name: D4, Velocity: 35
Note ON: Time 3840, Note Name: F4, Velocity: 42
Note OFF: Time 3930, Note Name: F4
Note OFF: Time 3930, Note Name: D4
Note ON: Time 4320, Note Name: A#3, Velocity: 32
Note ON: Time 4320, Note Name: D4, Velocity: 38
Note OFF: Time 4410, Note Name: D4
Note OFF: Time 4410, Note Name: A#3
Note ON: Time 5280, Note Name: D4, Velocity: 50
Note ON: Time 5280, Note Name: A#3, Velocity: 42
Note ON: Time 5400, Note Name: A3, Velocity: 40
Note OFF: Time 5412, Note Name: A#3
Note OFF: Time 5520, Note Name: D4
Note ON: Time 5520, Note Name: A#3, Velocity: 46
Note OFF: Time 5532, Note Name: A3
Note ON: Time 5640, Note Name: F3, Velocity: 40
Note OFF: Time 5652, Note Name: A#3
Note OFF: Time 5760, Note Name: F3
Note ON: Time 5760, Note Name: F4, Velocity: 53
Note ON: Time 5760, Note Name: D4, Velocity: 44
Note ON: Time 5880, Note Name: C#4, Velocity: 42
Note OFF: Time 5892, Note Name: D4
Note OFF: Time 6000, Note Name: F4
Note ON: Time 6000, Note Name: D4, Velocity: 49
Note OFF: Time 6012, Note Name: C#4
Note ON: Time 6120, Note Name: A#3, Velocity: 42
Note OFF: Time 6132, Note Name: D4
Note OFF: Time 6240, Note Name: A#3
Note ON: Time 6240, Note Name: F4, Velocity: 47
Note ON: Time 6240, Note Name: A#4, Velocity: 56
Note ON: Time 6360, Note Name: E4, Velocity: 45
Note OFF: Time 6372, Note Name: F4
Note OFF: Time 6480, Note Name: A#4
Note ON: Time 6480, Note Name: F4, Velocity: 51
Note OFF: Time 6492, Note Name: E4
Note ON: Time 6600, Note Name: D4, Velocity: 45
Note OFF: Time 6612, Note Name: F4
Note OFF: Time 6720, Note Name: D4
Note ON: Time 6720, Note Name: A#4, Velocity: 49
Note ON: Time 6720, Note Name: D5, Velocity: 59
Note ON: Time 6840, Note Name: A4, Velocity: 47
Note OFF: Time 6852, Note Name: A#4
Note OFF: Time 6960, Note Name: D5
Note ON: Time 6960, Note Name: A#4, Velocity: 54
Note OFF: Time 6972, Note Name: A4
Note ON: Time 7080, Note Name: F4, Velocity: 47
Note OFF: Time 7092, Note Name: A#4
Note OFF: Time 7200, Note Name: F4
Note ON: Time 7200, Note Name: D5, Velocity: 52
Note ON: Time 7200, Note Name: F5, Velocity: 62
Note ON: Time 7320, Note Name: C#5, Velocity: 50
Note OFF: Time 7332, Note Name: D5
Note OFF: Time 7440, Note Name: F5
Note ON: Time 7440, Note Name: D5, Velocity: 57
Note OFF: Time 7452, Note Name: C#5
Note ON: Time 7560, Note Name: A#4, Velocity: 49
Note OFF: Time 7572, Note Name: D5
Note OFF: Time 7680, Note Name: A#4
Note ON: Time 7680, Note Name: A#5, Velocity: 72
Note OFF: Time 9120, Note Name: A#5
Note ON: Time 9120, Note Name: A5, Velocity: 60
Note OFF: Time 9240, Note Name: A5
Note ON: Time 9240, Note Name: A#5, Velocity: 57
Note OFF: Time 9360, Note Name: A#5
Note ON: Time 9360, Note Name: C6, Velocity: 60
Note OFF: Time 9480, Note Name: C6
Note ON: Time 9480, Note Name: A#5, Velocity: 54
Note OFF: Time 9600, Note Name: A#5
Note ON: Time 9600, Note Name: A5, Velocity: 60
Note OFF: Time 9840, Note Name: A5
Note ON: Time 9840, Note Name: G5, Velocity: 51
Note OFF: Time 10080, Note Name: G5
Note ON: Time 10080, Note Name: F5, Velocity: 54
Note OFF: Time 10320, Note Name: F5
Note ON: Time 10320, Note Name: D#5, Velocity: 50
Note OFF: Time 10560, Note Name: D#5
Note ON: Time 10560, Note Name: D5, Velocity: 59
Note OFF: Time 10800, Note Name: D5
Note ON: Time 10800, Note Name: C5, Velocity: 48
Note OFF: Time 11040, Note Name: C5
Note ON: Time 11040, Note Name: G5, Velocity: 56
Note OFF: Time 11280, Note Name: G5
Note ON: Time 11280, Note Name: F5, Velocity: 47
Note OFF: Time 11520, Note Name: F5
Note ON: Time 11520, Note Name: D#5, Velocity: 54
Note OFF: Time 12000, Note Name: D#5
Note ON: Time 12000, Note Name: D5, Velocity: 47
Note OFF: Time 12480, Note Name: D5
Note ON: Time 12960, Note Name: A4, Velocity: 58
Note OFF: Time 13080, Note Name: A4
Note ON: Time 13080, Note Name: A#4, Velocity: 54
Note OFF: Time 13200, Note Name: A#4
Note ON: Time 13200, Note Name: C5, Velocity: 58
Note OFF: Time 13320, Note Name: C5
Note ON: Time 13320, Note Name: A#4, Velocity: 54
Note OFF: Time 13440, Note Name: A#4
Note ON: Time 13440, Note Name: G#4, Velocity: 60
Note OFF: Time 13680, Note Name: G#4
Note ON: Time 13680, Note Name: G4, Velocity: 54
Note OFF: Time 13920, Note Name: G4
Note ON: Time 13920, Note Name: F4, Velocity: 66
Note OFF: Time 14160, Note Name: F4
Note ON: Time 14160, Note Name: D#4, Velocity: 61
Note OFF: Time 14400, Note Name: D#4
Note ON: Time 14400, Note Name: D4, Velocity: 69
Note OFF: Time 14640, Note Name: D4
Note ON: Time 14640, Note Name: C4, Velocity: 62
Note OFF: Time 14880, Note Name: C4
Note ON: Time 14880, Note Name: D#4, Velocity: 73
Note OFF: Time 15120, Note Name: D#4
Note ON: Time 15120, Note Name: A3, Velocity: 63
Note OFF: Time 15360, Note Name: A3
Note ON: Time 15360, Note Name: A#3, Velocity: 79
Note OFF: Time 15480, Note Name: A#3
Note ON: Time 15600, Note Name: D4, Velocity: 68
Note OFF: Time 15720, Note Name: D4
Note ON: Time 15720, Note Name: C4, Velocity: 65
Note OFF: Time 15840, Note Name: C4
Note ON: Time 15840, Note Name: A#3, Velocity: 71
Note OFF: Time 15960, Note Name: A#3
Note ON: Time 15960, Note Name: A3, Velocity: 65
Note OFF: Time 16080, Note Name: A3
Note ON: Time 16080, Note Name: A#3, Velocity: 71
Note OFF: Time 16200, Note Name: A#3
Note ON: Time 16200, Note Name: G3, Velocity: 65
Note OFF: Time 16320, Note Name: G3
Note ON: Time 16320, Note Name: F3, Velocity: 79
Note OFF: Time 16440, Note Name: F3
Note ON: Time 16560, Note Name: G4, Velocity: 68
Note OFF: Time 16680, Note Name: G4
Note ON: Time 16680, Note Name: F4, Velocity: 65
Note OFF: Time 16800, Note Name: F4
Note ON: Time 16800, Note Name: D#4, Velocity: 71
Note OFF: Time 16920, Note Name: D#4
Note ON: Time 16920, Note Name: D4, Velocity: 65
Note OFF: Time 17040, Note Name: D4
Note ON: Time 17040, Note Name: D#4, Velocity: 71
Note OFF: Time 17160, Note Name: D#4
Note ON: Time 17160, Note Name: C4, Velocity: 65
Note OFF: Time 17280, Note Name: C4
Note ON: Time 17280, Note Name: A#3, Velocity: 79
Note OFF: Time 17400, Note Name: A#3
Note ON: Time 17520, Note Name: D5, Velocity: 68
Note OFF: Time 17640, Note Name: D5
Note ON: Time 17640, Note Name: C5, Velocity: 65
Note OFF: Time 17760, Note Name: C5
Note ON: Time 17760, Note Name: A#4, Velocity: 71
Note OFF: Time 17880, Note Name: A#4
Note ON: Time 17880, Note Name: A4, Velocity: 65
Note OFF: Time 18000, Note Name: A4
Note ON: Time 18000, Note Name: A#4, Velocity: 71
Note OFF: Time 18120, Note Name: A#4
Note ON: Time 18120, Note Name: G4, Velocity: 65
Note OFF: Time 18240, Note Name: G4
Note ON: Time 18240, Note Name: F4, Velocity: 79
Note OFF: Time 18360, Note Name: F4
Note ON: Time 18480, Note Name: G5, Velocity: 78
Note OFF: Time 18600, Note Name: G5
Note ON: Time 18600, Note Name: F5, Velocity: 74
Note OFF: Time 18720, Note Name: F5
Note ON: Time 18720, Note Name: D#5, Velocity: 81
Note OFF: Time 18840, Note Name: D#5
Note ON: Time 18840, Note Name: D5, Velocity: 74
Note OFF: Time 18960, Note Name: D5
Note ON: Time 18960, Note Name: D#5, Velocity: 81
Note OFF: Time 19080, Note Name: D#5
Note ON: Time 19080, Note Name: C5, Velocity: 74
Note OFF: Time 19200, Note Name: C5
Note ON: Time 19200, Note Name: A#4, Velocity: 90
Note OFF: Time 19320, Note Name: A#4
Note ON: Time 19440, Note Name: C5, Velocity: 68
Note OFF: Time 19560, Note Name: C5
Note ON: Time 19560, Note Name: D5, Velocity: 68
Note OFF: Time 19680, Note Name: D5
Note ON: Time 19680, Note Name: D#5, Velocity: 77
Note OFF: Time 19800, Note Name: D#5
Note ON: Time 19800, Note Name: F5, Velocity: 70
Note OFF: Time 19920, Note Name: F5
Note ON: Time 19920, Note Name: G5, Velocity: 70
Note OFF: Time 20040, Note Name: G5
Note ON: Time 20040, Note Name: A5, Velocity: 71
Note OFF: Time 20160, Note Name: A5
Note ON: Time 20160, Note Name: A#5, Velocity: 73
Note OFF: Time 20190, Note Name: A#5
Note ON: Time 20190, Note Name: C6, Velocity: 65
Note OFF: Time 20220, Note Name: C6
Note ON: Time 20220, Note Name: A#5, Velocity: 81
Note OFF: Time 20280, Note Name: A#5
Note ON: Time 20280, Note Name: A5, Velocity: 72
Note OFF: Time 20400, Note Name: A5
Note ON: Time 20400, Note Name: A#5, Velocity: 73
Note OFF: Time 20520, Note Name: A#5
Note ON: Time 20520, Note Name: C6, Velocity: 74
Note OFF: Time 20640, Note Name: C6
Note ON: Time 20640, Note Name: D6, Velocity: 74
Note OFF: Time 20670, Note Name: D6
Note ON: Time 20670, Note Name: D#6, Velocity: 66
Note OFF: Time 20700, Note Name: D#6
Note ON: Time 20700, Note Name: D6, Velocity: 83
Note ON: Time 20760, Note Name: C6, Velocity: 75
Note OFF: Time 20820, Note Name: D6
Note OFF: Time 20880, Note Name: C6
Note ON: Time 20880, Note Name: D6, Velocity: 76
Note OFF: Time 21000, Note Name: D6
Note ON: Time 21000, Note Name: E6, Velocity: 76
Note OFF: Time 21120, Note Name: E6
Note ON: Time 21120, Note Name: F6, Velocity: 92
Note OFF: Time 21240, Note Name: F6
Note ON: Time 21600, Note Name: F4, Velocity: 79
Note OFF: Time 21720, Note Name: F4
Note ON: Time 25920, Note Name: F5, Velocity: 75
Note ON: Time 27360, Note Name: B4, Velocity: 56
Note OFF: Time 27840, Note Name: B4
Note OFF: Time 27840, Note Name: F5
Note ON: Time 27840, Note Name: C5, Velocity: 44
Note ON: Time 27840, Note Name: D#5, Velocity: 53
Note OFF: Time 28320, Note Name: D#5
Note OFF: Time 28320, Note Name: C5
Note ON: Time 28320, Note Name: A4, Velocity: 41
Note ON: Time 28320, Note Name: D5, Velocity: 49
Note OFF: Time 28800, Note Name: A4
Note ON: Time 28800, Note Name: A#4, Velocity: 55
Note OFF: Time 29280, Note Name: A#4
Note OFF: Time 29280, Note Name: D5
Note ON: Time 29280, Note Name: G4, Velocity: 41
Note ON: Time 29280, Note Name: C5, Velocity: 49
Note OFF: Time 29760, Note Name: G4
Note ON: Time 29760, Note Name: A4, Velocity: 55
Note OFF: Time 30240, Note Name: A4
Note OFF: Time 30240, Note Name: C5
Note ON: Time 30240, Note Name: F4, Velocity: 42
Note ON: Time 30240, Note Name: B4, Velocity: 50
Note OFF: Time 30720, Note Name: B4
Note OFF: Time 30720, Note Name: F4
Note ON: Time 30720, Note Name: C5, Velocity: 68
Note OFF: Time 30840, Note Name: C5
Note ON: Time 30840, Note Name: E4, Velocity: 34
Note ON: Time 30840, Note Name: G4, Velocity: 40
Note OFF: Time 30960, Note Name: G4
Note OFF: Time 30960, Note Name: E4
Note ON: Time 30960, Note Name: C5, Velocity: 62
Note OFF: Time 31080, Note Name: C5
Note ON: Time 31080, Note Name: E4, Velocity: 33
Note ON: Time 31080, Note Name: G4, Velocity: 39
Note OFF: Time 31200, Note Name: G4
Note OFF: Time 31200, Note Name: E4
Note ON: Time 31200, Note Name: C5, Velocity: 64
Note OFF: Time 31320, Note Name: C5
Note ON: Time 31320, Note Name: E4, Velocity: 34
Note ON: Time 31320, Note Name: G4, Velocity: 41
Note OFF: Time 31440, Note Name: G4
Note OFF: Time 31440, Note Name: E4
Note ON: Time 31440, Note Name: D5, Velocity: 68
Note OFF: Time 31560, Note Name: D5
Note ON: Time 31560, Note Name: E4, Velocity: 34
Note ON: Time 31560, Note Name: G4, Velocity: 40
Note OFF: Time 31680, Note Name: G4
Note OFF: Time 31680, Note Name: E4
Note ON: Time 31680, Note Name: E5, Velocity: 62
Note OFF: Time 31800, Note Name: E5
Note ON: Time 31800, Note Name: G4, Velocity: 38
Note ON: Time 31800, Note Name: A#4, Velocity: 45
Note OFF: Time 31920, Note Name: A#4
Note OFF: Time 31920, Note Name: G4
Note ON: Time 31920, Note Name: C5, Velocity: 68
Note OFF: Time 32040, Note Name: C5
Note ON: Time 32040, Note Name: G4, Velocity: 38
Note ON: Time 32040, Note Name: A#4, Velocity: 45
Note OFF: Time 32160, Note Name: A#4
Note OFF: Time 32160, Note Name: G4
Note ON: Time 32160, Note Name: D5, Velocity: 68
Note OFF: Time 32280, Note Name: D5
Note ON: Time 32280, Note Name: G4, Velocity: 38
Note ON: Time 32280, Note Name: A#4, Velocity: 45
Note OFF: Time 32400, Note Name: A#4
Note OFF: Time 32400, Note Name: G4
Note ON: Time 32400, Note Name: E5, Velocity: 70
Note OFF: Time 32520, Note Name: E5
Note ON: Time 32520, Note Name: G4, Velocity: 38
Note ON: Time 32520, Note Name: A#4, Velocity: 45
Note OFF: Time 32640, Note Name: A#4
Note OFF: Time 32640, Note Name: G4
Note ON: Time 32640, Note Name: F5, Velocity: 68
Note OFF: Time 32760, Note Name: F5
Note ON: Time 32760, Note Name: F4, Velocity: 34
Note ON: Time 32760, Note Name: A4, Velocity: 40
Note OFF: Time 32880, Note Name: A4
Note OFF: Time 32880, Note Name: F4
Note ON: Time 32880, Note Name: F5, Velocity: 62
Note OFF: Time 33000, Note Name: F5
Note ON: Time 33000, Note Name: F4, Velocity: 33
Note ON: Time 33000, Note Name: A4, Velocity: 39
Note OFF: Time 33120, Note Name: A4
Note OFF: Time 33120, Note Name: F4
Note ON: Time 33120, Note Name: F5, Velocity: 64
Note OFF: Time 33240, Note Name: F5
Note ON: Time 33240, Note Name: F4, Velocity: 34
Note ON: Time 33240, Note Name: A4, Velocity: 41
Note OFF: Time 33360, Note Name: A4
Note OFF: Time 33360, Note Name: F4
Note ON: Time 33360, Note Name: E5, Velocity: 68
Note OFF: Time 33480, Note Name: E5
Note ON: Time 33480, Note Name: F4, Velocity: 34
Note ON: Time 33480, Note Name: A4, Velocity: 40
Note OFF: Time 33600, Note Name: A4
Note OFF: Time 33600, Note Name: F4
Note ON: Time 33600, Note Name: D5, Velocity: 62
Note OFF: Time 33720, Note Name: D5
Note ON: Time 33720, Note Name: F4, Velocity: 38
Note ON: Time 33720, Note Name: G#4, Velocity: 45
Note OFF: Time 33840, Note Name: G#4
Note OFF: Time 33840, Note Name: F4
Note ON: Time 33840, Note Name: C5, Velocity: 68
Note OFF: Time 33960, Note Name: C5
Note ON: Time 33960, Note Name: F4, Velocity: 38
Note ON: Time 33960, Note Name: G#4, Velocity: 45
Note OFF: Time 34080, Note Name: G#4
Note OFF: Time 34080, Note Name: F4
Note ON: Time 34080, Note Name: B4, Velocity: 68
Note OFF: Time 34200, Note Name: B4
Note ON: Time 34200, Note Name: F4, Velocity: 38
Note ON: Time 34200, Note Name: G#4, Velocity: 45
Note OFF: Time 34320, Note Name: G#4
Note OFF: Time 34320, Note Name: F4
Note ON: Time 34320, Note Name: D5, Velocity: 70
Note OFF: Time 34440, Note Name: D5
Note ON: Time 34440, Note Name: F4, Velocity: 38
Note ON: Time 34440, Note Name: G#4, Velocity: 45
Note OFF: Time 34560, Note Name: G#4
Note OFF: Time 34560, Note Name: F4
Note ON: Time 34560, Note Name: C5, Velocity: 68
Note OFF: Time 34680, Note Name: C5
Note ON: Time 34680, Note Name: E4, Velocity: 34
Note ON: Time 34680, Note Name: G4, Velocity: 40
Note OFF: Time 34800, Note Name: G4
Note OFF: Time 34800, Note Name: E4
Note ON: Time 34800, Note Name: B4, Velocity: 62
Note OFF: Time 34920, Note Name: B4
Note ON: Time 34920, Note Name: E4, Velocity: 33
Note ON: Time 34920, Note Name: G4, Velocity: 39
Note OFF: Time 35040, Note Name: G4
Note OFF: Time 35040, Note Name: E4
Note ON: Time 35040, Note Name: C5, Velocity: 64
Note OFF: Time 35160, Note Name: C5
Note ON: Time 35160, Note Name: E4, Velocity: 34
Note ON: Time 35160, Note Name: G4, Velocity: 41
Note OFF: Time 35280, Note Name: G4
Note OFF: Time 35280, Note Name: E4
Note ON: Time 35280, Note Name: D5, Velocity: 68
Note OFF: Time 35400, Note Name: D5
Note ON: Time 35400, Note Name: E4, Velocity: 34
Note ON: Time 35400, Note Name: G4, Velocity: 40
Note OFF: Time 35520, Note Name: G4
Note OFF: Time 35520, Note Name: E4
Note ON: Time 35520, Note Name: E5, Velocity: 62
Note OFF: Time 35640, Note Name: E5
Note ON: Time 35640, Note Name: G4, Velocity: 38
Note ON: Time 35640, Note Name: A#4, Velocity: 45
Note OFF: Time 35760, Note Name: A#4
Note OFF: Time 35760, Note Name: G4
Note ON: Time 35760, Note Name: C5, Velocity: 68
Note OFF: Time 35880, Note Name: C5
Note ON: Time 35880, Note Name: G4, Velocity: 38
Note ON: Time 35880, Note Name: A#4, Velocity: 45
Note OFF: Time 36000, Note Name: A#4
Note OFF: Time 36000, Note Name: G4
Note ON: Time 36000, Note Name: D5, Velocity: 68
Note OFF: Time 36120, Note Name: D5
Note ON: Time 36120, Note Name: G4, Velocity: 38
Note ON: Time 36120, Note Name: A#4, Velocity: 45
Note OFF: Time 36240, Note Name: A#4
Note OFF: Time 36240, Note Name: G4
Note ON: Time 36240, Note Name: E5, Velocity: 70
Note OFF: Time 36360, Note Name: E5
Note ON: Time 36360, Note Name: G4, Velocity: 38
Note ON: Time 36360, Note Name: A#4, Velocity: 45
Note OFF: Time 36480, Note Name: A#4
Note OFF: Time 36480, Note Name: G4
Note ON: Time 36480, Note Name: F5, Velocity: 68
Note OFF: Time 36600, Note Name: F5
Note ON: Time 36600, Note Name: F4, Velocity: 34
Note ON: Time 36600, Note Name: A4, Velocity: 40
Note OFF: Time 36720, Note Name: A4
Note OFF: Time 36720, Note Name: F4
Note ON: Time 36720, Note Name: F5, Velocity: 62
Note OFF: Time 36840, Note Name: F5
Note ON: Time 36840, Note Name: F4, Velocity: 33
Note ON: Time 36840, Note Name: A4, Velocity: 39
Note OFF: Time 36960, Note Name: A4
Note OFF: Time 36960, Note Name: F4
Note ON: Time 36960, Note Name: F5, Velocity: 64
Note OFF: Time 37080, Note Name: F5
Note ON: Time 37080, Note Name: F4, Velocity: 34
Note ON: Time 37080, Note Name: A4, Velocity: 41
Note OFF: Time 37200, Note Name: A4
Note OFF: Time 37200, Note Name: F4
Note ON: Time 37200, Note Name: E5, Velocity: 68
Note OFF: Time 37320, Note Name: E5
Note ON: Time 37320, Note Name: F4, Velocity: 34
Note ON: Time 37320, Note Name: A4, Velocity: 40
Note OFF: Time 37440, Note Name: A4
Note OFF: Time 37440, Note Name: F4
Note ON: Time 37440, Note Name: D5, Velocity: 62
Note OFF: Time 37560, Note Name: D5
Note ON: Time 37560, Note Name: F4, Velocity: 38
Note ON: Time 37560, Note Name: G#4, Velocity: 45
Note OFF: Time 37680, Note Name: G#4
Note OFF: Time 37680, Note Name: F4
Note ON: Time 37680, Note Name: C5, Velocity: 68
Note OFF: Time 37800, Note Name: C5
Note ON: Time 37800, Note Name: F4, Velocity: 38
Note ON: Time 37800, Note Name: G#4, Velocity: 45
Note OFF: Time 37920, Note Name: G#4
Note OFF: Time 37920, Note Name: F4
Note ON: Time 37920, Note Name: B4, Velocity: 68
Note OFF: Time 38040, Note Name: B4
Note ON: Time 38040, Note Name: F4, Velocity: 38
Note ON: Time 38040, Note Name: G#4, Velocity: 45
Note OFF: Time 38160, Note Name: G#4
Note OFF: Time 38160, Note Name: F4
Note ON: Time 38160, Note Name: D5, Velocity: 70
Note OFF: Time 38280, Note Name: D5
Note ON: Time 38280, Note Name: F4, Velocity: 38
Note ON: Time 38280, Note Name: G#4, Velocity: 45
Note OFF: Time 38400, Note Name: G#4
Note OFF: Time 38400, Note Name: F4
Note ON: Time 38400, Note Name: C5, Velocity: 78
Note OFF: Time 38520, Note Name: C5
Note ON: Time 38520, Note Name: E4, Velocity: 38
Note ON: Time 38520, Note Name: G4, Velocity: 45
Note OFF: Time 38640, Note Name: G4
Note OFF: Time 38640, Note Name: E4
Note ON: Time 38640, Note Name: C5, Velocity: 68
Note OFF: Time 38760, Note Name: C5
Note ON: Time 38760, Note Name: E4, Velocity: 38
Note ON: Time 38760, Note Name: G4, Velocity: 45
Note OFF: Time 38880, Note Name: G4
Note OFF: Time 38880, Note Name: E4
Note ON: Time 38880, Note Name: B4, Velocity: 68
Note OFF: Time 39000, Note Name: B4
Note ON: Time 39000, Note Name: F4, Velocity: 38
Note ON: Time 39000, Note Name: G#4, Velocity: 45
Note OFF: Time 39120, Note Name: G#4
Note OFF: Time 39120, Note Name: F4
Note ON: Time 39120, Note Name: D5, Velocity: 70
Note OFF: Time 39240, Note Name: D5
Note ON: Time 39240, Note Name: F4, Velocity: 38
Note ON: Time 39240, Note Name: G#4, Velocity: 45
Note OFF: Time 39360, Note Name: G#4
Note OFF: Time 39360, Note Name: F4
Note ON: Time 39360, Note Name: C5, Velocity: 76
Note OFF: Time 39480, Note Name: C5
Note ON: Time 39480, Note Name: E4, Velocity: 38
Note ON: Time 39480, Note Name: G4, Velocity: 45
Note OFF: Time 39600, Note Name: G4
Note OFF: Time 39600, Note Name: E4
Note ON: Time 39600, Note Name: C5, Velocity: 68
Note OFF: Time 39720, Note Name: C5
Note ON: Time 39720, Note Name: E4, Velocity: 38
Note ON: Time 39720, Note Name: G4, Velocity: 45
Note OFF: Time 39840, Note Name: G4
Note OFF: Time 39840, Note Name: E4
Note ON: Time 39840, Note Name: B4, Velocity: 68
Note OFF: Time 39960, Note Name: B4
Note ON: Time 39960, Note Name: F4, Velocity: 38
Note ON: Time 39960, Note Name: G#4, Velocity: 45
Note OFF: Time 40080, Note Name: G#4
Note OFF: Time 40080, Note Name: F4
Note ON: Time 40080, Note Name: D5, Velocity: 70
Note OFF: Time 40200, Note Name: D5
Note ON: Time 40200, Note Name: F4, Velocity: 38
Note ON: Time 40200, Note Name: G#4, Velocity: 45
Note OFF: Time 40320, Note Name: G#4
Note OFF: Time 40320, Note Name: F4
Note ON: Time 40320, Note Name: E4, Velocity: 59
Note ON: Time 40320, Note Name: G4, Velocity: 59
Note ON: Time 40320, Note Name: C5, Velocity: 70
Note OFF: Time 40440, Note Name: C5
Note OFF: Time 40440, Note Name: G4
Note OFF: Time 40440, Note Name: E4
Note ON: Time 40440, Note Name: C4, Velocity: 35
Note ON: Time 40560, Note Name: D4, Velocity: 40
Note OFF: Time 40572, Note Name: C4
Note ON: Time 40680, Note Name: E4, Velocity: 35
Note OFF: Time 40692, Note Name: D4
Note ON: Time 40800, Note Name: F4, Velocity: 40
Note OFF: Time 40812, Note Name: E4
Note ON: Time 40920, Note Name: G4, Velocity: 35
Note OFF: Time 40932, Note Name: F4
Note ON: Time 41040, Note Name: A4, Velocity: 40
Note OFF: Time 41052, Note Name: G4
Note ON: Time 41160, Note Name: B4, Velocity: 33
Note OFF: Time 41172, Note Name: A4
Note ON: Time 41280, Note Name: C5, Velocity: 40
Note OFF: Time 41292, Note Name: B4
Note ON: Time 41400, Note Name: B4, Velocity: 33
Note OFF: Time 41412, Note Name: C5
Note ON: Time 41520, Note Name: C5, Velocity: 40
Note OFF: Time 41532, Note Name: B4
Note ON: Time 41640, Note Name: B4, Velocity: 33
Note OFF: Time 41652, Note Name: C5
Note ON: Time 41760, Note Name: C5, Velocity: 40
Note OFF: Time 41772, Note Name: B4
Note ON: Time 41880, Note Name: B4, Velocity: 34
Note OFF: Time 41892, Note Name: C5
Note ON: Time 42000, Note Name: C5, Velocity: 40
Note OFF: Time 42012, Note Name: B4
Note ON: Time 42120, Note Name: B4, Velocity: 33
Note OFF: Time 42132, Note Name: C5
Note OFF: Time 42240, Note Name: B4
Note ON: Time 42240, Note Name: A4, Velocity: 38
Note ON: Time 42240, Note Name: C5, Velocity: 43
Note OFF: Time 43200, Note Name: C5
Note OFF: Time 43200, Note Name: A4
Note ON: Time 43200, Note Name: A4, Velocity: 49
Note OFF: Time 43680, Note Name: A4
Note ON: Time 43680, Note Name: F5, Velocity: 47
Note OFF: Time 44160, Note Name: F5
Note ON: Time 44160, Note Name: A4, Velocity: 41
Note ON: Time 44160, Note Name: C5, Velocity: 49
Note OFF: Time 44640, Note Name: C5
Note OFF: Time 44640, Note Name: A4
Note ON: Time 44640, Note Name: A5, Velocity: 43
Note ON: Time 44640, Note Name: F5, Velocity: 36
Note OFF: Time 45120, Note Name: F5
Note OFF: Time 45120, Note Name: A5
Note ON: Time 45120, Note Name: A4, Velocity: 42
Note ON: Time 45120, Note Name: C5, Velocity: 50
Note OFF: Time 45600, Note Name: C5
Note OFF: Time 45600, Note Name: A4
Note ON: Time 45600, Note Name: C6, Velocity: 43
Note ON: Time 45600, Note Name: A5, Velocity: 36
Note OFF: Time 46080, Note Name: A5
Note OFF: Time 46080, Note Name: C6
Note ON: Time 46080, Note Name: A4, Velocity: 38
Note ON: Time 46080, Note Name: C5, Velocity: 43
Note OFF: Time 47040, Note Name: C5
Note OFF: Time 47040, Note Name: A4
Note ON: Time 47040, Note Name: A4, Velocity: 49
Note OFF: Time 47520, Note Name: A4
Note ON: Time 47520, Note Name: F5, Velocity: 46
Note OFF: Time 48000, Note Name: F5
Note ON: Time 48000, Note Name: A4, Velocity: 41
Note ON: Time 48000, Note Name: C5, Velocity: 49
Note OFF: Time 48480, Note Name: C5
Note OFF: Time 48480, Note Name: A4
Note ON: Time 48480, Note Name: A5, Velocity: 43
Note ON: Time 48480, Note Name: F5, Velocity: 36
Note OFF: Time 48960, Note Name: F5
Note OFF: Time 48960, Note Name: A5
Note ON: Time 48960, Note Name: A4, Velocity: 42
Note ON: Time 48960, Note Name: C5, Velocity: 50
Note OFF: Time 49440, Note Name: C5
Note OFF: Time 49440, Note Name: A4
Note ON: Time 49440, Note Name: C6, Velocity: 43
Note ON: Time 49440, Note Name: A5, Velocity: 36
Note OFF: Time 49920, Note Name: A5
Note OFF: Time 49920, Note Name: C6
Note ON: Time 49920, Note Name: A4, Velocity: 41
Note ON: Time 49920, Note Name: C5, Velocity: 41
Note ON: Time 49920, Note Name: D5, Velocity: 49
Note ON: Time 49920, Note Name: F#5, Velocity: 49
Note OFF: Time 50880, Note Name: F#5
Note OFF: Time 50880, Note Name: A4
Note OFF: Time 50880, Note Name: C5
Note OFF: Time 50880, Note Name: D5
Note ON: Time 52320, Note Name: F#5, Velocity: 70
Note OFF: Time 52800, Note Name: F#5
Note ON: Time 52800, Note Name: A5, Velocity: 68
Note OFF: Time 53280, Note Name: A5
Note ON: Time 53280, Note Name: C6, Velocity: 66
Note ON: Time 53760, Note Name: F#5, Velocity: 72
Note OFF: Time 54240, Note Name: C6
Note ON: Time 54240, Note Name: A#5, Velocity: 73
Note OFF: Time 54720, Note Name: F#5
Note ON: Time 54720, Note Name: G5, Velocity: 75
Note ON: Time 55200, Note Name: C#5, Velocity: 66
Note OFF: Time 55680, Note Name: C#5
Note ON: Time 55680, Note Name: C5, Velocity: 74
Note OFF: Time 56160, Note Name: G5
Note OFF: Time 56160, Note Name: A#5
Note ON: Time 56160, Note Name: A5, Velocity: 67
Note ON: Time 56160, Note Name: F5, Velocity: 57
Note OFF: Time 56640, Note Name: F5
Note OFF: Time 56640, Note Name: A5
Note OFF: Time 56640, Note Name: C5
Note ON: Time 56640, Note Name: A#4, Velocity: 61
Note ON: Time 56640, Note Name: D5, Velocity: 61
Note ON: Time 56640, Note Name: G5, Velocity: 72
Note OFF: Time 57120, Note Name: G5
Note OFF: Time 57120, Note Name: D5
Note OFF: Time 57120, Note Name: A#4
Note ON: Time 57120, Note Name: G4, Velocity: 53
Note ON: Time 57120, Note Name: A#4, Velocity: 53
Note ON: Time 57120, Note Name: E5, Velocity: 64
Note OFF: Time 57600, Note Name: E5
Note OFF: Time 57600, Note Name: A#4
Note OFF: Time 57600, Note Name: G4
Note ON: Time 57600, Note Name: F4, Velocity: 64
Note ON: Time 57600, Note Name: A4, Velocity: 64
Note ON: Time 57600, Note Name: F5, Velocity: 77
Note OFF: Time 57840, Note Name: F5
Note OFF: Time 57840, Note Name: A4
Note OFF: Time 57840, Note Name: F4
Note ON: Time 58560, Note Name: F4, Velocity: 73
Note ON: Time 58560, Note Name: A4, Velocity: 88
Note OFF: Time 59510, Note Name: F4
Note OFF: Time 59520, Note Name: A4
Note ON: Time 59520, Note Name: D4, Velocity: 57
Note ON: Time 59520, Note Name: F4, Velocity: 68
Note OFF: Time 59990, Note Name: D4
Note OFF: Time 60000, Note Name: F4
Note ON: Time 60000, Note Name: A#3, Velocity: 59
Note ON: Time 60000, Note Name: D4, Velocity: 70
Note OFF: Time 60240, Note Name: D4
Note OFF: Time 60240, Note Name: A#3
Note ON: Time 60480, Note Name: G4, Velocity: 73
Note ON: Time 60480, Note Name: A#4, Velocity: 88
Note OFF: Time 61200, Note Name: A#4
Note OFF: Time 61200, Note Name: G4
Note ON: Time 61200, Note Name: F4, Velocity: 57
Note ON: Time 61200, Note Name: A4, Velocity: 68
Note OFF: Time 61440, Note Name: A4
Note OFF: Time 61440, Note Name: F4
Note ON: Time 61440, Note Name: G4, Velocity: 77
Note ON: Time 61440, Note Name: E4, Velocity: 64
Note OFF: Time 61910, Note Name: E4
Note OFF: Time 61920, Note Name: G4
Note ON: Time 61920, Note Name: C4, Velocity: 57
Note ON: Time 61920, Note Name: E4, Velocity: 68
Note OFF: Time 62160, Note Name: E4
Note OFF: Time 62160, Note Name: C4
Note ON: Time 62400, Note Name: A4, Velocity: 73
Note ON: Time 62400, Note Name: C5, Velocity: 88
Note OFF: Time 63350, Note Name: A4
Note OFF: Time 63360, Note Name: C5
Note ON: Time 63360, Note Name: F4, Velocity: 57
Note ON: Time 63360, Note Name: A4, Velocity: 68
Note OFF: Time 63830, Note Name: F4
Note OFF: Time 63840, Note Name: A4
Note ON: Time 63840, Note Name: D4, Velocity: 59
Note ON: Time 63840, Note Name: F4, Velocity: 70
Note OFF: Time 64080, Note Name: F4
Note OFF: Time 64080, Note Name: D4
Note ON: Time 64320, Note Name: A#4, Velocity: 73
Note ON: Time 64320, Note Name: D5, Velocity: 88
Note OFF: Time 65040, Note Name: D5
Note OFF: Time 65040, Note Name: A#4
Note ON: Time 65040, Note Name: A4, Velocity: 57
Note ON: Time 65040, Note Name: C5, Velocity: 68
Note OFF: Time 65280, Note Name: C5
Note OFF: Time 65280, Note Name: A4
Note ON: Time 65280, Note Name: A#4, Velocity: 77
Note ON: Time 65280, Note Name: G4, Velocity: 64
Note OFF: Time 65750, Note Name: G4
Note OFF: Time 65760, Note Name: A#4
Note ON: Time 65760, Note Name: E4, Velocity: 57
Note ON: Time 65760, Note Name: G4, Velocity: 68
Note OFF: Time 66000, Note Name: G4
Note OFF: Time 66000, Note Name: E4
Note ON: Time 66240, Note Name: A#4, Velocity: 73
Note ON: Time 66240, Note Name: G5, Velocity: 88
Note OFF: Time 66960, Note Name: G5
Note OFF: Time 66960, Note Name: A#4
Note ON: Time 66960, Note Name: A4, Velocity: 57
Note ON: Time 66960, Note Name: F5, Velocity: 68
Note OFF: Time 67200, Note Name: F5
Note OFF: Time 67200, Note Name: A4
Note ON: Time 67200, Note Name: G4, Velocity: 73
Note ON: Time 67200, Note Name: E5, Velocity: 88
Note OFF: Time 67920, Note Name: E5
Note OFF: Time 67920, Note Name: G4
Note ON: Time 67920, Note Name: F4, Velocity: 57
Note ON: Time 67920, Note Name: D5, Velocity: 68
Note OFF: Time 68160, Note Name: D5
Note OFF: Time 68160, Note Name: F4
Note ON: Time 68160, Note Name: E4, Velocity: 51
Note ON: Time 68160, Note Name: C5, Velocity: 60
Note OFF: Time 68640, Note Name: C5
Note OFF: Time 68640, Note Name: E4
Note ON: Time 68640, Note Name: A#3, Velocity: 44
Note ON: Time 68640, Note Name: A#4, Velocity: 52
Note OFF: Time 69120, Note Name: A#4
Note OFF: Time 69120, Note Name: A#3
Note ON: Time 69120, Note Name: A3, Velocity: 49
Note ON: Time 69120, Note Name: A4, Velocity: 58
Note OFF: Time 69600, Note Name: A4
Note OFF: Time 69600, Note Name: A3
Note ON: Time 69600, Note Name: C#4, Velocity: 39
Note ON: Time 69600, Note Name: G4, Velocity: 46
Note OFF: Time 70080, Note Name: G4
Note OFF: Time 70080, Note Name: C#4
Note ON: Time 70080, Note Name: D4, Velocity: 45
Note ON: Time 70080, Note Name: F4, Velocity: 53
Note OFF: Time 70560, Note Name: F4
Note OFF: Time 70560, Note Name: D4
Note ON: Time 70560, Note Name: F3, Velocity: 40
Note ON: Time 70560, Note Name: G3, Velocity: 40
Note ON: Time 70560, Note Name: D4, Velocity: 48
Note OFF: Time 71040, Note Name: D4
Note OFF: Time 71040, Note Name: G3
Note OFF: Time 71040, Note Name: F3
Note ON: Time 71520, Note Name: F3, Velocity: 32
Note ON: Time 71520, Note Name: A3, Velocity: 32
Note ON: Time 71520, Note Name: C4, Velocity: 38
Note OFF: Time 71760, Note Name: C4
Note OFF: Time 71760, Note Name: A3
Note OFF: Time 71760, Note Name: F3
Note ON: Time 72480, Note Name: C3, Velocity: 31
Note ON: Time 72480, Note Name: E3, Velocity: 31
Note ON: Time 72480, Note Name: G3, Velocity: 31
Note ON: Time 72480, Note Name: C4, Velocity: 37
Note OFF: Time 72720, Note Name: C4
Note OFF: Time 72720, Note Name: C3
Note OFF: Time 72720, Note Name: E3
Note OFF: Time 72720, Note Name: G3
Note ON: Time 73440, Note Name: A3, Velocity: 35
Note ON: Time 73440, Note Name: F3, Velocity: 29
Note ON: Time 73440, Note Name: C3, Velocity: 29
Note OFF: Time 73890, Note Name: C3
Note OFF: Time 73890, Note Name: F3
Note OFF: Time 73890, Note Name: A3
Note ON: Time 74160, Note Name: F4, Velocity: 55
Note ON: Time 74160, Note Name: A4, Velocity: 66
Note OFF: Time 74640, Note Name: A4
Note OFF: Time 74640, Note Name: F4
Note ON: Time 74640, Note Name: F4, Velocity: 43
Note ON: Time 74640, Note Name: A4, Velocity: 51
Note OFF: Time 74760, Note Name: A4
Note OFF: Time 74760, Note Name: F4
Note ON: Time 75120, Note Name: D4, Velocity: 41
Note ON: Time 75120, Note Name: F4, Velocity: 49
Note OFF: Time 75240, Note Name: F4
Note OFF: Time 75240, Note Name: D4
Note ON: Time 75600, Note Name: A#3, Velocity: 38
Note ON: Time 75600, Note Name: D4, Velocity: 45
Note OFF: Time 75720, Note Name: D4
Note OFF: Time 75720, Note Name: A#3
Note ON: Time 76080, Note Name: G4, Velocity: 60
Note ON: Time 76080, Note Name: A#4, Velocity: 73
Note OFF: Time 76560, Note Name: A#4
Note OFF: Time 76560, Note Name: G4
Note ON: Time 76560, Note Name: F4, Velocity: 43
Note ON: Time 76560, Note Name: A4, Velocity: 51
Note OFF: Time 76680, Note Name: A4
Note OFF: Time 76680, Note Name: F4
Note ON: Time 77040, Note Name: E4, Velocity: 41
Note ON: Time 77040, Note Name: G4, Velocity: 49
Note OFF: Time 77160, Note Name: G4
Note OFF: Time 77160, Note Name: E4
Note ON: Time 77520, Note Name: C4, Velocity: 38
Note ON: Time 77520, Note Name: E4, Velocity: 45
Note OFF: Time 77640, Note Name: E4
Note OFF: Time 77640, Note Name: C4
Note ON: Time 78000, Note Name: A4, Velocity: 60
Note ON: Time 78000, Note Name: C5, Velocity: 72
Note OFF: Time 78480, Note Name: C5
Note OFF: Time 78480, Note Name: A4
Note ON: Time 78480, Note Name: A4, Velocity: 47
Note ON: Time 78480, Note Name: C5, Velocity: 56
Note OFF: Time 78600, Note Name: C5
Note OFF: Time 78600, Note Name: A4
Note ON: Time 78960, Note Name: F4, Velocity: 45
Note ON: Time 78960, Note Name: A4, Velocity: 53
Note OFF: Time 79080, Note Name: A4
Note OFF: Time 79080, Note Name: F4
Note ON: Time 79440, Note Name: D4, Velocity: 41
Note ON: Time 79440, Note Name: F4, Velocity: 49
Note OFF: Time 79560, Note Name: F4
Note OFF: Time 79560, Note Name: D4
Note ON: Time 79920, Note Name: A#4, Velocity: 68
Note ON: Time 79920, Note Name: D5, Velocity: 84
Note OFF: Time 80400, Note Name: D5
Note OFF: Time 80400, Note Name: A#4
Note ON: Time 80400, Note Name: A4, Velocity: 49
Note ON: Time 80400, Note Name: C5, Velocity: 58
Note OFF: Time 80520, Note Name: C5
Note OFF: Time 80520, Note Name: A4
Note ON: Time 80880, Note Name: G4, Velocity: 47
Note ON: Time 80880, Note Name: A#4, Velocity: 55
Note OFF: Time 81000, Note Name: A#4
Note OFF: Time 81000, Note Name: G4
Note ON: Time 81360, Note Name: E4, Velocity: 43
Note ON: Time 81360, Note Name: G4, Velocity: 51
Note OFF: Time 81480, Note Name: G4
Note OFF: Time 81480, Note Name: E4
Note ON: Time 81840, Note Name: A#4, Velocity: 79
Note ON: Time 81840, Note Name: G5, Velocity: 96
Note OFF: Time 82320, Note Name: G5
Note OFF: Time 82320, Note Name: A#4
Note ON: Time 82320, Note Name: A4, Velocity: 56
Note ON: Time 82320, Note Name: F5, Velocity: 67
Note OFF: Time 82440, Note Name: F5
Note OFF: Time 82440, Note Name: A4
Note ON: Time 82800, Note Name: G4, Velocity: 79
Note ON: Time 82800, Note Name: E5, Velocity: 96
Note OFF: Time 83280, Note Name: E5
Note OFF: Time 83280, Note Name: G4
Note ON: Time 83280, Note Name: F4, Velocity: 56
Note ON: Time 83280, Note Name: D5, Velocity: 67
Note OFF: Time 83400, Note Name: D5
Note OFF: Time 83400, Note Name: F4
Note ON: Time 83760, Note Name: E4, Velocity: 44
Note ON: Time 83760, Note Name: C5, Velocity: 52
Note OFF: Time 83880, Note Name: C5
Note OFF: Time 83880, Note Name: E4
Note ON: Time 84240, Note Name: A#3, Velocity: 39
Note ON: Time 84240, Note Name: A#4, Velocity: 46
Note OFF: Time 84360, Note Name: A#4
Note OFF: Time 84360, Note Name: A#3
Note ON: Time 84480, Note Name: A4, Velocity: 54
Note OFF: Time 84600, Note Name: A4
Note ON: Time 84600, Note Name: A3, Velocity: 46
Note OFF: Time 84720, Note Name: A3
Note ON: Time 84720, Note Name: C#4, Velocity: 43
Note OFF: Time 84840, Note Name: C#4
Note ON: Time 84840, Note Name: E4, Velocity: 43
Note OFF: Time 84960, Note Name: E4
Note ON: Time 84960, Note Name: A4, Velocity: 53
Note OFF: Time 85080, Note Name: A4
Note ON: Time 85080, Note Name: C#5, Velocity: 42
Note OFF: Time 85200, Note Name: C#5
Note ON: Time 85200, Note Name: E5, Velocity: 42
Note OFF: Time 85320, Note Name: E5
Note ON: Time 85320, Note Name: G#5, Velocity: 42
Note OFF: Time 85440, Note Name: G#5
Note ON: Time 85440, Note Name: A5, Velocity: 49
Note OFF: Time 85560, Note Name: A5
Note ON: Time 85560, Note Name: G#5, Velocity: 39
Note OFF: Time 85680, Note Name: G#5
Note ON: Time 85680, Note Name: A5, Velocity: 42
Note OFF: Time 85800, Note Name: A5
Note ON: Time 85800, Note Name: G#5, Velocity: 38
Note OFF: Time 85920, Note Name: G#5
Note ON: Time 85920, Note Name: A5, Velocity: 48
Note OFF: Time 86040, Note Name: A5
Note ON: Time 86040, Note Name: E5, Velocity: 38
Note OFF: Time 86160, Note Name: E5
Note ON: Time 86160, Note Name: C#5, Velocity: 38
Note OFF: Time 86280, Note Name: C#5
Note ON: Time 86280, Note Name: A4, Velocity: 38
Note OFF: Time 86400, Note Name: A4
Note ON: Time 86520, Note Name: A3, Velocity: 46
Note OFF: Time 86640, Note Name: A3
Note ON: Time 86640, Note Name: D4, Velocity: 43
Note OFF: Time 86760, Note Name: D4
Note ON: Time 86760, Note Name: F4, Velocity: 43
Note OFF: Time 86880, Note Name: F4
Note ON: Time 86880, Note Name: A4, Velocity: 53
Note OFF: Time 87000, Note Name: A4
Note ON: Time 87000, Note Name: D5, Velocity: 42
Note OFF: Time 87120, Note Name: D5
Note ON: Time 87120, Note Name: F5, Velocity: 42
Note OFF: Time 87240, Note Name: F5
Note ON: Time 87240, Note Name: G#5, Velocity: 42
Note OFF: Time 87360, Note Name: G#5
Note ON: Time 87360, Note Name: A5, Velocity: 49
Note OFF: Time 87480, Note Name: A5
Note ON: Time 87480, Note Name: G#5, Velocity: 39
Note OFF: Time 87600, Note Name: G#5
Note ON: Time 87600, Note Name: A5, Velocity: 42
Note OFF: Time 87720, Note Name: A5
Note ON: Time 87720, Note Name: G#5, Velocity: 38
Note OFF: Time 87840, Note Name: G#5
Note ON: Time 87840, Note Name: A5, Velocity: 48
Note OFF: Time 87960, Note Name: A5
Note ON: Time 87960, Note Name: F5, Velocity: 38
Note OFF: Time 88080, Note Name: F5
Note ON: Time 88080, Note Name: D5, Velocity: 38
Note OFF: Time 88200, Note Name: D5
Note ON: Time 88200, Note Name: A4, Velocity: 38
Note OFF: Time 88320, Note Name: A4
Note ON: Time 88440, Note Name: G#3, Velocity: 46
Note OFF: Time 88560, Note Name: G#3
Note ON: Time 88560, Note Name: B3, Velocity: 43
Note OFF: Time 88680, Note Name: B3
Note ON: Time 88680, Note Name: D4, Velocity: 43
Note OFF: Time 88800, Note Name: D4
Note ON: Time 88800, Note Name: F4, Velocity: 50
Note OFF: Time 88920, Note Name: F4
Note ON: Time 88920, Note Name: G#4, Velocity: 42
Note OFF: Time 89040, Note Name: G#4
Note ON: Time 89040, Note Name: B4, Velocity: 42
Note OFF: Time 89160, Note Name: B4
Note ON: Time 89160, Note Name: D5, Velocity: 42
Note OFF: Time 89280, Note Name: D5
Note ON: Time 89280, Note Name: F5, Velocity: 49
Note OFF: Time 89400, Note Name: F5
Note ON: Time 89400, Note Name: D5, Velocity: 41
Note OFF: Time 89520, Note Name: D5
Note ON: Time 89520, Note Name: G#5, Velocity: 48
Note OFF: Time 89640, Note Name: G#5
Note ON: Time 89640, Note Name: F5, Velocity: 41
Note OFF: Time 89760, Note Name: F5
Note ON: Time 89760, Note Name: D5, Velocity: 48
Note OFF: Time 89880, Note Name: D5
Note ON: Time 89880, Note Name: B4, Velocity: 45
Note OFF: Time 90000, Note Name: B4
Note ON: Time 90000, Note Name: G#4, Velocity: 42
Note OFF: Time 90120, Note Name: G#4
Note ON: Time 90120, Note Name: F4, Velocity: 39
Note OFF: Time 90240, Note Name: F4
Note ON: Time 90360, Note Name: E4, Velocity: 48
Note OFF: Time 90480, Note Name: E4
Note ON: Time 90480, Note Name: G4, Velocity: 50
Note OFF: Time 90600, Note Name: G4
Note ON: Time 90600, Note Name: A#4, Velocity: 51
Note OFF: Time 90720, Note Name: A#4
Note ON: Time 90720, Note Name: C#5, Velocity: 53
Note OFF: Time 90840, Note Name: C#5
Note ON: Time 90840, Note Name: E5, Velocity: 55
Note OFF: Time 90960, Note Name: E5
Note ON: Time 90960, Note Name: G5, Velocity: 57
Note OFF: Time 91080, Note Name: G5
Note ON: Time 91080, Note Name: A#5, Velocity: 59
Note OFF: Time 91200, Note Name: A#5
Note ON: Time 91200, Note Name: C#6, Velocity: 65
Note OFF: Time 91320, Note Name: C#6
Note ON: Time 91320, Note Name: E6, Velocity: 57
Note OFF: Time 91440, Note Name: E6
Note ON: Time 91440, Note Name: E5, Velocity: 64
Note OFF: Time 91560, Note Name: E5
Note ON: Time 91560, Note Name: E6, Velocity: 56
Note OFF: Time 91680, Note Name: E6
Note ON: Time 91680, Note Name: E5, Velocity: 64
Note OFF: Time 91800, Note Name: E5
Note ON: Time 91800, Note Name: E6, Velocity: 58
Note OFF: Time 91920, Note Name: E6
Note ON: Time 91920, Note Name: E5, Velocity: 64
Note OFF: Time 92040, Note Name: E5
Note ON: Time 92040, Note Name: E6, Velocity: 59
Note OFF: Time 92160, Note Name: E6
Note ON: Time 92160, Note Name: F5, Velocity: 74
Note OFF: Time 92280, Note Name: F5
Note ON: Time 92280, Note Name: F6, Velocity: 59
Note OFF: Time 92400, Note Name: F6
Note ON: Time 92400, Note Name: E5, Velocity: 67
Note OFF: Time 92520, Note Name: E5
Note ON: Time 92520, Note Name: E6, Velocity: 54
Note OFF: Time 92640, Note Name: E6
Note ON: Time 92640, Note Name: F5, Velocity: 66
Note OFF: Time 92760, Note Name: F5
Note ON: Time 92760, Note Name: F6, Velocity: 57
Note OFF: Time 92880, Note Name: F6
Note ON: Time 92880, Note Name: A#4, Velocity: 59
Note OFF: Time 93000, Note Name: A#4
Note ON: Time 93000, Note Name: A#5, Velocity: 50
Note OFF: Time 93120, Note Name: A#5
Note ON: Time 93120, Note Name: A4, Velocity: 79
Note OFF: Time 93240, Note Name: A4
Note ON: Time 93240, Note Name: A5, Velocity: 54
Note OFF: Time 93360, Note Name: A5
Note ON: Time 93360, Note Name: E5, Velocity: 65
Note OFF: Time 93480, Note Name: E5
Note ON: Time 93480, Note Name: E6, Velocity: 57
Note OFF: Time 93600, Note Name: E6
Note ON: Time 93600, Note Name: F5, Velocity: 68
Note OFF: Time 93720, Note Name: F5
Note ON: Time 93720, Note Name: F6, Velocity: 60
Note OFF: Time 93840, Note Name: F6
Note ON: Time 93840, Note Name: A#4, Velocity: 67
Note OFF: Time 93960, Note Name: A#4
Note ON: Time 93960, Note Name: A#5, Velocity: 58
Note OFF: Time 94080, Note Name: A#5
Note ON: Time 94080, Note Name: A4, Velocity: 81
Note OFF: Time 94200, Note Name: A4
Note ON: Time 94200, Note Name: A5, Velocity: 58
Note OFF: Time 94320, Note Name: A5
Note ON: Time 94320, Note Name: E5, Velocity: 64
Note OFF: Time 94440, Note Name: E5
Note ON: Time 94440, Note Name: E6, Velocity: 59
Note OFF: Time 94560, Note Name: E6
Note ON: Time 94560, Note Name: F5, Velocity: 67
Note OFF: Time 94680, Note Name: F5
Note ON: Time 94680, Note Name: F6, Velocity: 55
Note OFF: Time 94800, Note Name: F6
Note ON: Time 94800, Note Name: A#4, Velocity: 62
Note OFF: Time 94920, Note Name: A#4
Note ON: Time 94920, Note Name: A#5, Velocity: 51
Note OFF: Time 95040, Note Name: A#5
Note ON: Time 95040, Note Name: A4, Velocity: 72
Note OFF: Time 95160, Note Name: A4
Note ON: Time 95160, Note Name: A5, Velocity: 52
Note OFF: Time 95280, Note Name: A5
Note ON: Time 95280, Note Name: E5, Velocity: 64
Note OFF: Time 95400, Note Name: E5
Note ON: Time 95400, Note Name: E6, Velocity: 54
Note OFF: Time 95520, Note Name: E6
Note ON: Time 95520, Note Name: F5, Velocity: 64
Note OFF: Time 95640, Note Name: F5
Note ON: Time 95640, Note Name: F6, Velocity: 51
Note OFF: Time 95760, Note Name: F6
Note ON: Time 95760, Note Name: A#4, Velocity: 60
Note OFF: Time 95880, Note Name: A#4
Note ON: Time 95880, Note Name: A#5, Velocity: 51
Note OFF: Time 96000, Note Name: A#5
Note ON: Time 96000, Note Name: A4, Velocity: 83
Note OFF: Time 96120, Note Name: A4
Note ON: Time 96120, Note Name: A5, Velocity: 53
Note OFF: Time 96240, Note Name: A5
Note ON: Time 96240, Note Name: G4, Velocity: 62
Note OFF: Time 96360, Note Name: G4
Note ON: Time 96360, Note Name: G5, Velocity: 54
Note OFF: Time 96480, Note Name: G5
Note ON: Time 96480, Note Name: F4, Velocity: 62
Note OFF: Time 96600, Note Name: F4
Note ON: Time 96600, Note Name: F5, Velocity: 54
Note OFF: Time 96720, Note Name: F5
Note ON: Time 96720, Note Name: E4, Velocity: 62
Note OFF: Time 96840, Note Name: E4
Note ON: Time 96840, Note Name: E5, Velocity: 53
Note OFF: Time 96960, Note Name: E5
Note ON: Time 96960, Note Name: D4, Velocity: 81
Note OFF: Time 97080, Note Name: D4
Note ON: Time 97080, Note Name: D5, Velocity: 53
Note OFF: Time 97200, Note Name: D5
Note ON: Time 97200, Note Name: C4, Velocity: 60
Note OFF: Time 97320, Note Name: C4
Note ON: Time 97320, Note Name: C5, Velocity: 52
Note OFF: Time 97440, Note Name: C5
Note ON: Time 97440, Note Name: A#3, Velocity: 59
Note OFF: Time 97560, Note Name: A#3
Note ON: Time 97560, Note Name: A#4, Velocity: 52
Note OFF: Time 97680, Note Name: A#4
Note ON: Time 97680, Note Name: A3, Velocity: 59
Note OFF: Time 97800, Note Name: A3
Note ON: Time 97800, Note Name: A4, Velocity: 50
Note OFF: Time 97920, Note Name: A4
Note ON: Time 97920, Note Name: G3, Velocity: 79
Note OFF: Time 98040, Note Name: G3
Note ON: Time 98040, Note Name: G4, Velocity: 50
Note OFF: Time 98160, Note Name: G4
Note ON: Time 98160, Note Name: F3, Velocity: 59
Note OFF: Time 98280, Note Name: F3
Note ON: Time 98280, Note Name: F4, Velocity: 49
Note OFF: Time 98400, Note Name: F4
Note ON: Time 98400, Note Name: E3, Velocity: 59
Note OFF: Time 98520, Note Name: E3
Note ON: Time 98520, Note Name: E4, Velocity: 49
Note OFF: Time 98640, Note Name: E4
Note ON: Time 98640, Note Name: D3, Velocity: 59
Note OFF: Time 98760, Note Name: D3
Note ON: Time 98760, Note Name: D4, Velocity: 51
Note OFF: Time 98880, Note Name: D4
Note ON: Time 98880, Note Name: C3, Velocity: 79
Note OFF: Time 99000, Note Name: C3
Note ON: Time 99000, Note Name: C4, Velocity: 49
Note OFF: Time 99120, Note Name: C4
Note ON: Time 99120, Note Name: A#2, Velocity: 59
Note OFF: Time 99240, Note Name: A#2
Note ON: Time 99240, Note Name: A#3, Velocity: 50
Note OFF: Time 99360, Note Name: A#3
Note ON: Time 99360, Note Name: A2, Velocity: 59
Note OFF: Time 99480, Note Name: A2
Note ON: Time 99480, Note Name: A3, Velocity: 48
Note OFF: Time 99600, Note Name: A3
Note ON: Time 99600, Note Name: G2, Velocity: 58
Note OFF: Time 99720, Note Name: G2
Note ON: Time 99720, Note Name: G3, Velocity: 49
Note OFF: Time 99840, Note Name: G3
Note ON: Time 99840, Note Name: F3, Velocity: 76
Note ON: Time 99840, Note Name: F2, Velocity: 64
Note OFF: Time 99960, Note Name: F2
Note OFF: Time 99960, Note Name: F3
Note ON: Time 100080, Note Name: E3, Velocity: 49
Note OFF: Time 100200, Note Name: E3
Note ON: Time 100200, Note Name: C4, Velocity: 42
Note OFF: Time 100320, Note Name: C4
Note ON: Time 100320, Note Name: F3, Velocity: 49
Note OFF: Time 100440, Note Name: F3
Note ON: Time 100440, Note Name: C4, Velocity: 41
Note OFF: Time 100560, Note Name: C4
Note ON: Time 100560, Note Name: A#3, Velocity: 49
Note OFF: Time 100680, Note Name: A#3
Note ON: Time 100680, Note Name: C4, Velocity: 42
Note OFF: Time 100800, Note Name: C4
Note ON: Time 100800, Note Name: A3, Velocity: 49
Note OFF: Time 100920, Note Name: A3
Note ON: Time 100920, Note Name: C4, Velocity: 41
Note OFF: Time 101040, Note Name: C4
Note ON: Time 101040, Note Name: E3, Velocity: 49
Note OFF: Time 101160, Note Name: E3
Note ON: Time 101160, Note Name: C4, Velocity: 42
Note OFF: Time 101280, Note Name: C4
Note ON: Time 101280, Note Name: F3, Velocity: 49
Note OFF: Time 101400, Note Name: F3
Note ON: Time 101400, Note Name: C4, Velocity: 43
Note OFF: Time 101520, Note Name: C4
Note ON: Time 101520, Note Name: A#3, Velocity: 49
Note OFF: Time 101640, Note Name: A#3
Note ON: Time 101640, Note Name: C4, Velocity: 40
Note OFF: Time 101760, Note Name: C4
Note ON: Time 101760, Note Name: A3, Velocity: 49
Note OFF: Time 101880, Note Name: A3
Note ON: Time 101880, Note Name: C4, Velocity: 41
Note OFF: Time 102000, Note Name: C4
Note ON: Time 102000, Note Name: E3, Velocity: 49
Note OFF: Time 102120, Note Name: E3
Note ON: Time 102120, Note Name: C4, Velocity: 42
Note OFF: Time 102240, Note Name: C4
Note ON: Time 102240, Note Name: F3, Velocity: 49
Note OFF: Time 102360, Note Name: F3
Note ON: Time 102360, Note Name: C4, Velocity: 43
Note OFF: Time 102480, Note Name: C4
Note ON: Time 102480, Note Name: A#3, Velocity: 49
Note OFF: Time 102600, Note Name: A#3
Note ON: Time 102600, Note Name: C4, Velocity: 40
Note OFF: Time 102720, Note Name: C4
Note ON: Time 102720, Note Name: A3, Velocity: 56
Note OFF: Time 102840, Note Name: A3
Note ON: Time 102840, Note Name: C4, Velocity: 45
Note OFF: Time 102960, Note Name: C4
Note ON: Time 102960, Note Name: C#3, Velocity: 60
Note OFF: Time 103080, Note Name: C#3
Note ON: Time 103080, Note Name: C#4, Velocity: 52
Note OFF: Time 103200, Note Name: C#4
Note ON: Time 103200, Note Name: D3, Velocity: 61
Note OFF: Time 103320, Note Name: D3
Note ON: Time 103320, Note Name: D4, Velocity: 49
Note OFF: Time 103440, Note Name: D4
Note ON: Time 103440, Note Name: E3, Velocity: 67
Note OFF: Time 103560, Note Name: E3
Note ON: Time 103560, Note Name: E4, Velocity: 60
Note OFF: Time 103680, Note Name: E4
Note ON: Time 103680, Note Name: F3, Velocity: 71
Note OFF: Time 103800, Note Name: F3
Note ON: Time 103800, Note Name: F4, Velocity: 62
Note OFF: Time 103920, Note Name: F4
Note ON: Time 103920, Note Name: F#3, Velocity: 70
Note OFF: Time 104040, Note Name: F#3
Note ON: Time 104040, Note Name: F#4, Velocity: 64
Note OFF: Time 104160, Note Name: F#4
Note ON: Time 104160, Note Name: G3, Velocity: 70
Note OFF: Time 104280, Note Name: G3
Note ON: Time 104280, Note Name: G4, Velocity: 64
Note OFF: Time 104400, Note Name: G4
Note ON: Time 104400, Note Name: A3, Velocity: 74
Note OFF: Time 104520, Note Name: A3
Note ON: Time 104520, Note Name: A4, Velocity: 65
Note OFF: Time 104640, Note Name: A4
Note ON: Time 104640, Note Name: A#3, Velocity: 82
Note OFF: Time 104760, Note Name: A#3
Note ON: Time 104760, Note Name: A#4, Velocity: 71
Note OFF: Time 104880, Note Name: A#4
Note ON: Time 104880, Note Name: C4, Velocity: 79
Note OFF: Time 105000, Note Name: C4
Note ON: Time 105000, Note Name: C5, Velocity: 70
Note OFF: Time 105120, Note Name: C5
Note ON: Time 105120, Note Name: D4, Velocity: 83
Note OFF: Time 105240, Note Name: D4
Note ON: Time 105240, Note Name: D5, Velocity: 72
Note OFF: Time 105360, Note Name: D5
Note ON: Time 105360, Note Name: C4, Velocity: 81
Note OFF: Time 105480, Note Name: C4
Note ON: Time 105480, Note Name: C5, Velocity: 69
Note OFF: Time 105600, Note Name: C5
Note ON: Time 105600, Note Name: A#3, Velocity: 84
Note OFF: Time 105720, Note Name: A#3
Note ON: Time 105720, Note Name: A#4, Velocity: 69
Note OFF: Time 105840, Note Name: A#4
Note ON: Time 105840, Note Name: A3, Velocity: 81
Note OFF: Time 105960, Note Name: A3
Note ON: Time 105960, Note Name: A4, Velocity: 69
Note OFF: Time 106080, Note Name: A4
Note ON: Time 106080, Note Name: G3, Velocity: 79
Note OFF: Time 106200, Note Name: G3
Note ON: Time 106200, Note Name: G4, Velocity: 69
Note OFF: Time 106320, Note Name: G4
Note ON: Time 106320, Note Name: F3, Velocity: 78
Note OFF: Time 106440, Note Name: F3
Note ON: Time 106440, Note Name: F4, Velocity: 65
Note OFF: Time 106560, Note Name: F4
Note ON: Time 106560, Note Name: E3, Velocity: 79
Note OFF: Time 106680, Note Name: E3
Note ON: Time 106680, Note Name: E4, Velocity: 69
Note OFF: Time 106800, Note Name: E4
Note ON: Time 106800, Note Name: D3, Velocity: 77
Note OFF: Time 106920, Note Name: D3
Note ON: Time 106920, Note Name: D4, Velocity: 65
Note OFF: Time 107040, Note Name: D4
Note ON: Time 107040, Note Name: C3, Velocity: 77
Note OFF: Time 107160, Note Name: C3
Note ON: Time 107160, Note Name: C4, Velocity: 67
Note OFF: Time 107280, Note Name: C4
Note ON: Time 107280, Note Name: E3, Velocity: 75
Note OFF: Time 107400, Note Name: E3
Note ON: Time 107400, Note Name: E4, Velocity: 66
Note OFF: Time 107520, Note Name: E4
Note ON: Time 107520, Note Name: F4, Velocity: 79
Note ON: Time 107520, Note Name: F3, Velocity: 79
Note OFF: Time 108000, Note Name: F3
Note OFF: Time 108000, Note Name: F4
Note ON: Time 108480, Note Name: C4, Velocity: 40
Note ON: Time 108480, Note Name: A3, Velocity: 34
Note ON: Time 109200, Note Name: F3, Velocity: 39
Note OFF: Time 109440, Note Name: F3
Note OFF: Time 109440, Note Name: A3
Note OFF: Time 109440, Note Name: C4
Note ON: Time 109440, Note Name: C#4, Velocity: 46
Note ON: Time 109440, Note Name: A#3, Velocity: 39
Note ON: Time 110160, Note Name: G#3, Velocity: 40
Note OFF: Time 110400, Note Name: G#3
Note OFF: Time 110400, Note Name: A#3
Note OFF: Time 110400, Note Name: C#4
Note ON: Time 110400, Note Name: C4, Velocity: 32
Note ON: Time 110400, Note Name: A#3, Velocity: 32
Note ON: Time 110400, Note Name: F#3, Velocity: 45
Note OFF: Time 110640, Note Name: F#3
Note ON: Time 110640, Note Name: F3, Velocity: 40
Note OFF: Time 110880, Note Name: F3
Note OFF: Time 110880, Note Name: A#3
Note OFF: Time 110880, Note Name: C4
Note ON: Time 110880, Note Name: C4, Velocity: 33
Note ON: Time 110880, Note Name: A#3, Velocity: 33
Note ON: Time 110880, Note Name: F#3, Velocity: 46
Note OFF: Time 111120, Note Name: F#3
Note ON: Time 111120, Note Name: E3, Velocity: 40
Note OFF: Time 111360, Note Name: E3
Note OFF: Time 111360, Note Name: A#3
Note OFF: Time 111360, Note Name: C4
Note ON: Time 111360, Note Name: C4, Velocity: 46
Note ON: Time 111360, Note Name: A3, Velocity: 39
Note ON: Time 111360, Note Name: F3, Velocity: 39
Note OFF: Time 112080, Note Name: F3
Note OFF: Time 112080, Note Name: A3
Note OFF: Time 112080, Note Name: C4
Note ON: Time 112320, Note Name: A4, Velocity: 52
Note ON: Time 112320, Note Name: C4, Velocity: 52
Note ON: Time 112320, Note Name: A3, Velocity: 44
Note OFF: Time 113040, Note Name: A4
Note ON: Time 113040, Note Name: F4, Velocity: 50
Note OFF: Time 113280, Note Name: F4
Note OFF: Time 113280, Note Name: A3
Note OFF: Time 113280, Note Name: C4
Note ON: Time 113280, Note Name: A#4, Velocity: 52
Note ON: Time 113280, Note Name: C#4, Velocity: 59
Note ON: Time 113280, Note Name: A#3, Velocity: 50
Note OFF: Time 114000, Note Name: A#4
Note ON: Time 114000, Note Name: G#4, Velocity: 52
Note OFF: Time 114240, Note Name: G#4
Note OFF: Time 114240, Note Name: A#3
Note OFF: Time 114240, Note Name: C#4
Note ON: Time 114240, Note Name: C#4, Velocity: 41
Note ON: Time 114240, Note Name: A#3, Velocity: 41
Note ON: Time 114240, Note Name: F#4, Velocity: 58
Note OFF: Time 114480, Note Name: F#4
Note ON: Time 114480, Note Name: F4, Velocity: 52
Note OFF: Time 114720, Note Name: F4
Note OFF: Time 114720, Note Name: A#3
Note OFF: Time 114720, Note Name: C#4
Note ON: Time 114720, Note Name: C#4, Velocity: 42
Note ON: Time 114720, Note Name: A#3, Velocity: 42
Note ON: Time 114720, Note Name: F#4, Velocity: 59
Note OFF: Time 114960, Note Name: F#4
Note ON: Time 114960, Note Name: E4, Velocity: 52
Note OFF: Time 115200, Note Name: E4
Note OFF: Time 115200, Note Name: A#3
Note OFF: Time 115200, Note Name: C#4
Note ON: Time 115200, Note Name: F4, Velocity: 59
Note ON: Time 115200, Note Name: C4, Velocity: 50
Note ON: Time 115200, Note Name: A3, Velocity: 50
Note OFF: Time 115920, Note Name: A3
Note OFF: Time 115920, Note Name: C4
Note OFF: Time 115920, Note Name: F4
Note ON: Time 116160, Note Name: C#4, Velocity: 37
Note ON: Time 116160, Note Name: A#3, Velocity: 37
Note ON: Time 116160, Note Name: G4, Velocity: 53
Note OFF: Time 116400, Note Name: G4
Note ON: Time 116400, Note Name: F4, Velocity: 46
Note OFF: Time 116640, Note Name: F4
Note OFF: Time 116640, Note Name: A#3
Note OFF: Time 116640, Note Name: C#4
Note ON: Time 116640, Note Name: C#4, Velocity: 36
Note ON: Time 116640, Note Name: A#3, Velocity: 36
Note ON: Time 116640, Note Name: G4, Velocity: 51
Note OFF: Time 116880, Note Name: G4
Note ON: Time 116880, Note Name: E4, Velocity: 44
Note OFF: Time 117120, Note Name: E4
Note OFF: Time 117120, Note Name: A#3
Note OFF: Time 117120, Note Name: C#4
Note ON: Time 117120, Note Name: F4, Velocity: 49
Note ON: Time 117120, Note Name: C4, Velocity: 42
Note ON: Time 117120, Note Name: A3, Velocity: 42
Note OFF: Time 117840, Note Name: A3
Note OFF: Time 117840, Note Name: C4
Note OFF: Time 117840, Note Name: F4
Note ON: Time 118080, Note Name: C#4, Velocity: 30
Note ON: Time 118080, Note Name: A#3, Velocity: 30
Note ON: Time 118080, Note Name: F#4, Velocity: 43
Note OFF: Time 118320, Note Name: F#4
Note ON: Time 118320, Note Name: F4, Velocity: 39
Note OFF: Time 118560, Note Name: F4
Note OFF: Time 118560, Note Name: A#3
Note OFF: Time 118560, Note Name: C#4
Note ON: Time 118560, Note Name: C#4, Velocity: 31
Note ON: Time 118560, Note Name: A#3, Velocity: 31
Note ON: Time 118560, Note Name: F#4, Velocity: 44
Note OFF: Time 118800, Note Name: F#4
Note ON: Time 118800, Note Name: E4, Velocity: 39
Note OFF: Time 119040, Note Name: E4
Note OFF: Time 119040, Note Name: A#3
Note OFF: Time 119040, Note Name: C#4
Note ON: Time 119040, Note Name: F3, Velocity: 74
Note ON: Time 119040, Note Name: F4, Velocity: 88
Note OFF: Time 119760, Note Name: F4
Note OFF: Time 119760, Note Name: F3
Note ON: Time 119760, Note Name: G3, Velocity: 67
Note ON: Time 119760, Note Name: G4, Velocity: 79
Note OFF: Time 119880, Note Name: G4
Note OFF: Time 119880, Note Name: G3
Note ON: Time 120000, Note Name: A3, Velocity: 74
Note ON: Time 120000, Note Name: A4, Velocity: 89
Note OFF: Time 120720, Note Name: A4
Note OFF: Time 120720, Note Name: A3
Note ON: Time 120720, Note Name: A#3, Velocity: 68
Note ON: Time 120720, Note Name: A#4, Velocity: 81
Note OFF: Time 120840, Note Name: A#4
Note OFF: Time 120840, Note Name: A#3
Note ON: Time 120960, Note Name: C4, Velocity: 77
Note ON: Time 120960, Note Name: C5, Velocity: 91
Note OFF: Time 121680, Note Name: C5
Note OFF: Time 121680, Note Name: C4
Note ON: Time 121680, Note Name: D4, Velocity: 62
Note ON: Time 121680, Note Name: D5, Velocity: 74
Note OFF: Time 121800, Note Name: D5
Note OFF: Time 121800, Note Name: D4
Note ON: Time 121920, Note Name: E4, Velocity: 71
Note ON: Time 121920, Note Name: E5, Velocity: 84
Note OFF: Time 122040, Note Name: E5
Note OFF: Time 122040, Note Name: E4
Note ON: Time 122160, Note Name: F4, Velocity: 68
Note ON: Time 122160, Note Name: F5, Velocity: 81
Note OFF: Time 122280, Note Name: F5
Note OFF: Time 122280, Note Name: F4
Note ON: Time 122400, Note Name: G4, Velocity: 74
Note ON: Time 122400, Note Name: G5, Velocity: 87
Note OFF: Time 122520, Note Name: G5
Note OFF: Time 122520, Note Name: G4
Note ON: Time 122640, Note Name: A4, Velocity: 69
Note ON: Time 122640, Note Name: A5, Velocity: 83
Note OFF: Time 122760, Note Name: A5
Note OFF: Time 122760, Note Name: A4
Note ON: Time 122880, Note Name: A#4, Velocity: 81
Note ON: Time 122880, Note Name: A#5, Velocity: 96
Note OFF: Time 123600, Note Name: A#5
Note OFF: Time 123600, Note Name: A#4
Note ON: Time 123600, Note Name: A4, Velocity: 71
Note ON: Time 123600, Note Name: A5, Velocity: 84
Note OFF: Time 123720, Note Name: A5
Note OFF: Time 123720, Note Name: A4
Note ON: Time 123840, Note Name: G4, Velocity: 78
Note ON: Time 123840, Note Name: G5, Velocity: 94
Note OFF: Time 124560, Note Name: G5
Note OFF: Time 124560, Note Name: G4
Note ON: Time 124560, Note Name: F4, Velocity: 70
Note ON: Time 124560, Note Name: F5, Velocity: 83
Note OFF: Time 124680, Note Name: F5
Note OFF: Time 124680, Note Name: F4
Note ON: Time 124800, Note Name: E4, Velocity: 78
Note ON: Time 124800, Note Name: E5, Velocity: 92
Note OFF: Time 125520, Note Name: E5
Note OFF: Time 125520, Note Name: E4
Note ON: Time 125520, Note Name: D4, Velocity: 62
Note ON: Time 125520, Note Name: D5, Velocity: 74
Note OFF: Time 125640, Note Name: D5
Note OFF: Time 125640, Note Name: D4
Note ON: Time 125760, Note Name: C4, Velocity: 70
Note ON: Time 125760, Note Name: C5, Velocity: 83
Note OFF: Time 125880, Note Name: C5
Note OFF: Time 125880, Note Name: C4
Note ON: Time 126000, Note Name: A#3, Velocity: 66
Note ON: Time 126000, Note Name: A#4, Velocity: 78
Note OFF: Time 126120, Note Name: A#4
Note OFF: Time 126120, Note Name: A#3
Note ON: Time 126240, Note Name: A3, Velocity: 70
Note ON: Time 126240, Note Name: A4, Velocity: 83
Note OFF: Time 126360, Note Name: A4
Note OFF: Time 126360, Note Name: A3
Note ON: Time 126480, Note Name: G3, Velocity: 64
Note ON: Time 126480, Note Name: G4, Velocity: 77
Note OFF: Time 126600, Note Name: G4
Note OFF: Time 126600, Note Name: G3
Note ON: Time 126720, Note Name: F3, Velocity: 78
Note ON: Time 126720, Note Name: F4, Velocity: 90
Note OFF: Time 126840, Note Name: F4
Note OFF: Time 126840, Note Name: F3
Note ON: Time 127200, Note Name: E4, Velocity: 53
Note OFF: Time 127320, Note Name: E4
Note ON: Time 127320, Note Name: D#4, Velocity: 45
Note OFF: Time 127440, Note Name: D#4
Note ON: Time 127440, Note Name: E4, Velocity: 53
Note OFF: Time 127560, Note Name: E4
Note ON: Time 127560, Note Name: C4, Velocity: 43
Note OFF: Time 127680, Note Name: C4
Note ON: Time 127680, Note Name: F4, Velocity: 57
Note OFF: Time 127800, Note Name: F4
Note ON: Time 128160, Note Name: E5, Velocity: 53
Note OFF: Time 128280, Note Name: E5
Note ON: Time 128280, Note Name: D#5, Velocity: 45
Note OFF: Time 128400, Note Name: D#5
Note ON: Time 128400, Note Name: E5, Velocity: 53
Note OFF: Time 128520, Note Name: E5
Note ON: Time 128520, Note Name: C5, Velocity: 43
Note OFF: Time 128640, Note Name: C5
Note ON: Time 128640, Note Name: F5, Velocity: 57
Note OFF: Time 128760, Note Name: F5
Note ON: Time 129600, Note Name: E6, Velocity: 91
Note ON: Time 129600, Note Name: C6, Velocity: 77
Note ON: Time 129600, Note Name: A#5, Velocity: 77
Note ON: Time 129600, Note Name: G5, Velocity: 77
Note ON: Time 129600, Note Name: E5, Velocity: 77
Note OFF: Time 130080, Note Name: E5
Note OFF: Time 130080, Note Name: A#5
Note OFF: Time 130080, Note Name: E6
Note OFF: Time 130080, Note Name: C6
Note OFF: Time 130080, Note Name: G5
Note ON: Time 130560, Note Name: F6, Velocity: 97
Note ON: Time 130560, Note Name: C6, Velocity: 82
Note ON: Time 130560, Note Name: A5, Velocity: 82
Note ON: Time 130560, Note Name: F5, Velocity: 82
Note OFF: Time 131040, Note Name: F5
Note OFF: Time 131040, Note Name: F6
Note OFF: Time 131040, Note Name: C6
Note OFF: Time 131040, Note Name: A5
Note ON: Time 132000, Note Name: A#3, Velocity: 42
Note ON: Time 132000, Note Name: D4, Velocity: 50
Note OFF: Time 132120, Note Name: A#3
Note ON: Time 132120, Note Name: A3, Velocity: 40
Note OFF: Time 132240, Note Name: A3
Note ON: Time 132240, Note Name: A#3, Velocity: 45
Note OFF: Time 132360, Note Name: A#3
Note ON: Time 132360, Note Name: F3, Velocity: 39
Note OFF: Time 132480, Note Name: F3
Note OFF: Time 132480, Note Name: D4
Note ON: Time 132480, Note Name: D4, Velocity: 35
Note ON: Time 132480, Note Name: F4, Velocity: 42
Note OFF: Time 132570, Note Name: F4
Note OFF: Time 132570, Note Name: D4
Note ON: Time 132960, Note Name: A#3, Velocity: 32
Note ON: Time 132960, Note Name: D4, Velocity: 38
Note OFF: Time 133050, Note Name: D4
Note OFF: Time 133050, Note Name: A#3
Note ON: Time 133920, Note Name: A#3, Velocity: 42
Note ON: Time 133920, Note Name: D4, Velocity: 50
Note OFF: Time 134040, Note Name: A#3
Note ON: Time 134040, Note Name: A3, Velocity: 40
Note OFF: Time 134160, Note Name: A3
Note ON: Time 134160, Note Name: A#3, Velocity: 45
Note OFF: Time 134280, Note Name: A#3
Note ON: Time 134280, Note Name: F3, Velocity: 39
Note OFF: Time 134400, Note Name: F3
Note OFF: Time 134400, Note Name: D4
Note ON: Time 134400, Note Name: D4, Velocity: 35
Note ON: Time 134400, Note Name: F4, Velocity: 42
Note OFF: Time 134490, Note Name: F4
Note OFF: Time 134490, Note Name: D4
Note ON: Time 134880, Note Name: A#3, Velocity: 32
Note ON: Time 134880, Note Name: D4, Velocity: 38
Note OFF: Time 134970, Note Name: D4
Note OFF: Time 134970, Note Name: A#3
Note ON: Time 135840, Note Name: D4, Velocity: 50
Note ON: Time 135840, Note Name: A#3, Velocity: 42
Note ON: Time 135960, Note Name: A3, Velocity: 40
Note OFF: Time 135972, Note Name: A#3
Note OFF: Time 136080, Note Name: D4
Note ON: Time 136080, Note Name: A#3, Velocity: 46
Note OFF: Time 136092, Note Name: A3
Note ON: Time 136200, Note Name: F3, Velocity: 40
Note OFF: Time 136212, Note Name: A#3
Note OFF: Time 136320, Note Name: F3
Note ON: Time 136320, Note Name: F4, Velocity: 53
Note ON: Time 136320, Note Name: D4, Velocity: 44
Note ON: Time 136440, Note Name: C#4, Velocity: 42
Note OFF: Time 136452, Note Name: D4
Note OFF: Time 136560, Note Name: F4
Note ON: Time 136560, Note Name: D4, Velocity: 49
Note OFF: Time 136572, Note Name: C#4
Note ON: Time 136680, Note Name: A#3, Velocity: 42
Note OFF: Time 136692, Note Name: D4
Note OFF: Time 136800, Note Name: A#3
Note ON: Time 136800, Note Name: F4, Velocity: 47
Note ON: Time 136800, Note Name: A#4, Velocity: 56
Note ON: Time 136920, Note Name: E4, Velocity: 45
Note OFF: Time 136932, Note Name: F4
Note OFF: Time 137040, Note Name: A#4
Note ON: Time 137040, Note Name: F4, Velocity: 51
Note OFF: Time 137052, Note Name: E4
Note ON: Time 137160, Note Name: D4, Velocity: 45
Note OFF: Time 137172, Note Name: F4
Note OFF: Time 137280, Note Name: D4
Note ON: Time 137280, Note Name: A#4, Velocity: 49
Note ON: Time 137280, Note Name: D5, Velocity: 59
Note ON: Time 137400, Note Name: A4, Velocity: 47
Note OFF: Time 137412, Note Name: A#4
Note OFF: Time 137520, Note Name: D5
Note ON: Time 137520, Note Name: A#4, Velocity: 54
Note OFF: Time 137532, Note Name: A4
Note ON: Time 137640, Note Name: F4, Velocity: 47
Note OFF: Time 137652, Note Name: A#4
Note OFF: Time 137760, Note Name: F4
Note ON: Time 137760, Note Name: D5, Velocity: 52
Note ON: Time 137760, Note Name: F5, Velocity: 62
Note ON: Time 137880, Note Name: C#5, Velocity: 50
Note OFF: Time 137892, Note Name: D5
Note OFF: Time 138000, Note Name: F5
Note ON: Time 138000, Note Name: D5, Velocity: 57
Note OFF: Time 138012, Note Name: C#5
Note ON: Time 138120, Note Name: A#4, Velocity: 49
Note OFF: Time 138132, Note Name: D5
Note OFF: Time 138240, Note Name: A#4
Note ON: Time 138240, Note Name: A#5, Velocity: 72
Note OFF: Time 139680, Note Name: A#5
Note ON: Time 139680, Note Name: A5, Velocity: 60
Note OFF: Time 139800, Note Name: A5
Note ON: Time 139800, Note Name: A#5, Velocity: 57
Note OFF: Time 139920, Note Name: A#5
Note ON: Time 139920, Note Name: C6, Velocity: 60
Note OFF: Time 140040, Note Name: C6
Note ON: Time 140040, Note Name: A#5, Velocity: 54
Note OFF: Time 140160, Note Name: A#5
Note ON: Time 140160, Note Name: A5, Velocity: 60
Note OFF: Time 140400, Note Name: A5
Note ON: Time 140400, Note Name: G5, Velocity: 51
Note OFF: Time 140640, Note Name: G5
Note ON: Time 140640, Note Name: F5, Velocity: 54
Note OFF: Time 140880, Note Name: F5
Note ON: Time 140880, Note Name: D#5, Velocity: 50
Note OFF: Time 141120, Note Name: D#5
Note ON: Time 141120, Note Name: D5, Velocity: 59
Note OFF: Time 141360, Note Name: D5
Note ON: Time 141360, Note Name: C5, Velocity: 48
Note OFF: Time 141600, Note Name: C5
Note ON: Time 141600, Note Name: G5, Velocity: 56
Note OFF: Time 141840, Note Name: G5
Note ON: Time 141840, Note Name: F5, Velocity: 47
Note OFF: Time 142080, Note Name: F5
Note ON: Time 142080, Note Name: D#5, Velocity: 54
Note OFF: Time 142560, Note Name: D#5
Note ON: Time 142560, Note Name: D5, Velocity: 47
Note OFF: Time 143040, Note Name: D5
Note ON: Time 143520, Note Name: A4, Velocity: 58
Note OFF: Time 143640, Note Name: A4
Note ON: Time 143640, Note Name: A#4, Velocity: 54
Note OFF: Time 143760, Note Name: A#4
Note ON: Time 143760, Note Name: C5, Velocity: 58
Note OFF: Time 143880, Note Name: C5
Note ON: Time 143880, Note Name: A#4, Velocity: 54
Note OFF: Time 144000, Note Name: A#4
Note ON: Time 144000, Note Name: G#4, Velocity: 60
Note OFF: Time 144240, Note Name: G#4
Note ON: Time 144240, Note Name: G4, Velocity: 54
Note OFF: Time 144480, Note Name: G4
Note ON: Time 144480, Note Name: F4, Velocity: 66
Note OFF: Time 144720, Note Name: F4
Note ON: Time 144720, Note Name: D#4, Velocity: 61
Note OFF: Time 144960, Note Name: D#4
Note ON: Time 144960, Note Name: D4, Velocity: 69
Note OFF: Time 145200, Note Name: D4
Note ON: Time 145200, Note Name: C4, Velocity: 62
Note OFF: Time 145440, Note Name: C4
Note ON: Time 145440, Note Name: D#4, Velocity: 73
Note OFF: Time 145680, Note Name: D#4
Note ON: Time 145680, Note Name: A3, Velocity: 63
Note OFF: Time 145920, Note Name: A3
Note ON: Time 145920, Note Name: A#3, Velocity: 79
Note OFF: Time 146040, Note Name: A#3
Note ON: Time 146160, Note Name: D4, Velocity: 68
Note OFF: Time 146280, Note Name: D4
Note ON: Time 146280, Note Name: C4, Velocity: 65
Note OFF: Time 146400, Note Name: C4
Note ON: Time 146400, Note Name: A#3, Velocity: 71
Note OFF: Time 146520, Note Name: A#3
Note ON: Time 146520, Note Name: A3, Velocity: 65
Note OFF: Time 146640, Note Name: A3
Note ON: Time 146640, Note Name: A#3, Velocity: 71
Note OFF: Time 146760, Note Name: A#3
Note ON: Time 146760, Note Name: G3, Velocity: 65
Note OFF: Time 146880, Note Name: G3
Note ON: Time 146880, Note Name: F3, Velocity: 79
Note OFF: Time 147000, Note Name: F3
Note ON: Time 147120, Note Name: G4, Velocity: 68
Note OFF: Time 147240, Note Name: G4
Note ON: Time 147240, Note Name: F4, Velocity: 65
Note OFF: Time 147360, Note Name: F4
Note ON: Time 147360, Note Name: D#4, Velocity: 71
Note OFF: Time 147480, Note Name: D#4
Note ON: Time 147480, Note Name: D4, Velocity: 65
Note OFF: Time 147600, Note Name: D4
Note ON: Time 147600, Note Name: D#4, Velocity: 71
Note OFF: Time 147720, Note Name: D#4
Note ON: Time 147720, Note Name: C4, Velocity: 65
Note OFF: Time 147840, Note Name: C4
Note ON: Time 147840, Note Name: A#3, Velocity: 79
Note OFF: Time 147960, Note Name: A#3
Note ON: Time 148080, Note Name: D5, Velocity: 68
Note OFF: Time 148200, Note Name: D5
Note ON: Time 148200, Note Name: C5, Velocity: 65
Note OFF: Time 148320, Note Name: C5
Note ON: Time 148320, Note Name: A#4, Velocity: 71
Note OFF: Time 148440, Note Name: A#4
Note ON: Time 148440, Note Name: A4, Velocity: 65
Note OFF: Time 148560, Note Name: A4
Note ON: Time 148560, Note Name: A#4, Velocity: 71
Note OFF: Time 148680, Note Name: A#4
Note ON: Time 148680, Note Name: G4, Velocity: 65
Note OFF: Time 148800, Note Name: G4
Note ON: Time 148800, Note Name: F4, Velocity: 79
Note OFF: Time 148920, Note Name: F4
Note ON: Time 149040, Note Name: G5, Velocity: 78
Note OFF: Time 149160, Note Name: G5
Note ON: Time 149160, Note Name: F5, Velocity: 74
Note OFF: Time 149280, Note Name: F5
Note ON: Time 149280, Note Name: D#5, Velocity: 81
Note OFF: Time 149400, Note Name: D#5
Note ON: Time 149400, Note Name: D5, Velocity: 74
Note OFF: Time 149520, Note Name: D5
Note ON: Time 149520, Note Name: D#5, Velocity: 81
Note OFF: Time 149640, Note Name: D#5
Note ON: Time 149640, Note Name: C5, Velocity: 74
Note OFF: Time 149760, Note Name: C5
Note ON: Time 149760, Note Name: A#4, Velocity: 90
Note OFF: Time 149880, Note Name: A#4
Note ON: Time 150000, Note Name: C5, Velocity: 68
Note OFF: Time 150120, Note Name: C5
Note ON: Time 150120, Note Name: D5, Velocity: 68
Note OFF: Time 150240, Note Name: D5
Note ON: Time 150240, Note Name: D#5, Velocity: 77
Note OFF: Time 150360, Note Name: D#5
Note ON: Time 150360, Note Name: F5, Velocity: 70
Note OFF: Time 150480, Note Name: F5
Note ON: Time 150480, Note Name: G5, Velocity: 70
Note OFF: Time 150600, Note Name: G5
Note ON: Time 150600, Note Name: A5, Velocity: 71
Note OFF: Time 150720, Note Name: A5
Note ON: Time 150720, Note Name: A#5, Velocity: 73
Note OFF: Time 150750, Note Name: A#5
Note ON: Time 150750, Note Name: C6, Velocity: 65
Note OFF: Time 150780, Note Name: C6
Note ON: Time 150780, Note Name: A#5, Velocity: 81
Note OFF: Time 150840, Note Name: A#5
Note ON: Time 150840, Note Name: A5, Velocity: 72
Note OFF: Time 150960, Note Name: A5
Note ON: Time 150960, Note Name: A#5, Velocity: 73
Note OFF: Time 151080, Note Name: A#5
Note ON: Time 151080, Note Name: C6, Velocity: 74
Note OFF: Time 151200, Note Name: C6
Note ON: Time 151200, Note Name: D6, Velocity: 74
Note OFF: Time 151230, Note Name: D6
Note ON: Time 151230, Note Name: D#6, Velocity: 66
Note OFF: Time 151260, Note Name: D#6
Note ON: Time 151260, Note Name: D6, Velocity: 83
Note ON: Time 151320, Note Name: C6, Velocity: 75
Note OFF: Time 151380, Note Name: D6
Note OFF: Time 151440, Note Name: C6
Note ON: Time 151440, Note Name: D6, Velocity: 76
Note OFF: Time 151560, Note Name: D6
Note ON: Time 151560, Note Name: E6, Velocity: 76
Note OFF: Time 151680, Note Name: E6
Note ON: Time 151680, Note Name: F6, Velocity: 97
Note OFF: Time 151800, Note Name: F6
Note ON: Time 152160, Note Name: F4, Velocity: 79
Note OFF: Time 152280, Note Name: F4
Note ON: Time 156480, Note Name: F5, Velocity: 75
Note ON: Time 157920, Note Name: B4, Velocity: 56
Note OFF: Time 158400, Note Name: B4
Note OFF: Time 158400, Note Name: F5
Note ON: Time 158400, Note Name: C5, Velocity: 44
Note ON: Time 158400, Note Name: D#5, Velocity: 53
Note OFF: Time 158880, Note Name: D#5
Note OFF: Time 158880, Note Name: C5
Note ON: Time 158880, Note Name: A4, Velocity: 41
Note ON: Time 158880, Note Name: D5, Velocity: 49
Note OFF: Time 159360, Note Name: A4
Note ON: Time 159360, Note Name: A#4, Velocity: 55
Note OFF: Time 159840, Note Name: A#4
Note OFF: Time 159840, Note Name: D5
Note ON: Time 159840, Note Name: G4, Velocity: 41
Note ON: Time 159840, Note Name: C5, Velocity: 49
Note OFF: Time 160320, Note Name: G4
Note ON: Time 160320, Note Name: A4, Velocity: 55
Note OFF: Time 160800, Note Name: A4
Note OFF: Time 160800, Note Name: C5
Note ON: Time 160800, Note Name: F4, Velocity: 42
Note ON: Time 160800, Note Name: B4, Velocity: 50
Note OFF: Time 161280, Note Name: B4
Note OFF: Time 161280, Note Name: F4
Note ON: Time 161280, Note Name: C5, Velocity: 68
Note OFF: Time 161400, Note Name: C5
Note ON: Time 161400, Note Name: E4, Velocity: 34
Note ON: Time 161400, Note Name: G4, Velocity: 40
Note OFF: Time 161520, Note Name: G4
Note OFF: Time 161520, Note Name: E4
Note ON: Time 161520, Note Name: C5, Velocity: 62
Note OFF: Time 161640, Note Name: C5
Note ON: Time 161640, Note Name: E4, Velocity: 33
Note ON: Time 161640, Note Name: G4, Velocity: 39
Note OFF: Time 161760, Note Name: G4
Note OFF: Time 161760, Note Name: E4
Note ON: Time 161760, Note Name: C5, Velocity: 64
Note OFF: Time 161880, Note Name: C5
Note ON: Time 161880, Note Name: E4, Velocity: 34
Note ON: Time 161880, Note Name: G4, Velocity: 41
Note OFF: Time 162000, Note Name: G4
Note OFF: Time 162000, Note Name: E4
Note ON: Time 162000, Note Name: D5, Velocity: 68
Note OFF: Time 162120, Note Name: D5
Note ON: Time 162120, Note Name: E4, Velocity: 34
Note ON: Time 162120, Note Name: G4, Velocity: 40
Note OFF: Time 162240, Note Name: G4
Note OFF: Time 162240, Note Name: E4
Note ON: Time 162240, Note Name: E5, Velocity: 62
Note OFF: Time 162360, Note Name: E5
Note ON: Time 162360, Note Name: G4, Velocity: 38
Note ON: Time 162360, Note Name: A#4, Velocity: 45
Note OFF: Time 162480, Note Name: A#4
Note OFF: Time 162480, Note Name: G4
Note ON: Time 162480, Note Name: C5, Velocity: 68
Note OFF: Time 162600, Note Name: C5
Note ON: Time 162600, Note Name: G4, Velocity: 38
Note ON: Time 162600, Note Name: A#4, Velocity: 45
Note OFF: Time 162720, Note Name: A#4
Note OFF: Time 162720, Note Name: G4
Note ON: Time 162720, Note Name: D5, Velocity: 68
Note OFF: Time 162840, Note Name: D5
Note ON: Time 162840, Note Name: G4, Velocity: 38
Note ON: Time 162840, Note Name: A#4, Velocity: 45
Note OFF: Time 162960, Note Name: A#4
Note OFF: Time 162960, Note Name: G4
Note ON: Time 162960, Note Name: E5, Velocity: 70
Note OFF: Time 163080, Note Name: E5
Note ON: Time 163080, Note Name: G4, Velocity: 38
Note ON: Time 163080, Note Name: A#4, Velocity: 45
Note OFF: Time 163200, Note Name: A#4
Note OFF: Time 163200, Note Name: G4
Note ON: Time 163200, Note Name: F5, Velocity: 68
Note OFF: Time 163320, Note Name: F5
Note ON: Time 163320, Note Name: F4, Velocity: 34
Note ON: Time 163320, Note Name: A4, Velocity: 40
Note OFF: Time 163440, Note Name: A4
Note OFF: Time 163440, Note Name: F4
Note ON: Time 163440, Note Name: F5, Velocity: 62
Note OFF: Time 163560, Note Name: F5
Note ON: Time 163560, Note Name: F4, Velocity: 33
Note ON: Time 163560, Note Name: A4, Velocity: 39
Note OFF: Time 163680, Note Name: A4
Note OFF: Time 163680, Note Name: F4
Note ON: Time 163680, Note Name: F5, Velocity: 64
Note OFF: Time 163800, Note Name: F5
Note ON: Time 163800, Note Name: F4, Velocity: 34
Note ON: Time 163800, Note Name: A4, Velocity: 41
Note OFF: Time 163920, Note Name: A4
Note OFF: Time 163920, Note Name: F4
Note ON: Time 163920, Note Name: E5, Velocity: 68
Note OFF: Time 164040, Note Name: E5
Note ON: Time 164040, Note Name: F4, Velocity: 34
Note ON: Time 164040, Note Name: A4, Velocity: 40
Note OFF: Time 164160, Note Name: A4
Note OFF: Time 164160, Note Name: F4
Note ON: Time 164160, Note Name: D5, Velocity: 62
Note OFF: Time 164280, Note Name: D5
Note ON: Time 164280, Note Name: F4, Velocity: 38
Note ON: Time 164280, Note Name: G#4, Velocity: 45
Note OFF: Time 164400, Note Name: G#4
Note OFF: Time 164400, Note Name: F4
Note ON: Time 164400, Note Name: C5, Velocity: 68
Note OFF: Time 164520, Note Name: C5
Note ON: Time 164520, Note Name: F4, Velocity: 38
Note ON: Time 164520, Note Name: G#4, Velocity: 45
Note OFF: Time 164640, Note Name: G#4
Note OFF: Time 164640, Note Name: F4
Note ON: Time 164640, Note Name: B4, Velocity: 68
Note OFF: Time 164760, Note Name: B4
Note ON: Time 164760, Note Name: F4, Velocity: 38
Note ON: Time 164760, Note Name: G#4, Velocity: 45
Note OFF: Time 164880, Note Name: G#4
Note OFF: Time 164880, Note Name: F4
Note ON: Time 164880, Note Name: D5, Velocity: 70
Note OFF: Time 165000, Note Name: D5
Note ON: Time 165000, Note Name: F4, Velocity: 38
Note ON: Time 165000, Note Name: G#4, Velocity: 45
Note OFF: Time 165120, Note Name: G#4
Note OFF: Time 165120, Note Name: F4
Note ON: Time 165120, Note Name: C5, Velocity: 68
Note OFF: Time 165240, Note Name: C5
Note ON: Time 165240, Note Name: E4, Velocity: 34
Note ON: Time 165240, Note Name: G4, Velocity: 40
Note OFF: Time 165360, Note Name: G4
Note OFF: Time 165360, Note Name: E4
Note ON: Time 165360, Note Name: B4, Velocity: 62
Note OFF: Time 165480, Note Name: B4
Note ON: Time 165480, Note Name: E4, Velocity: 33
Note ON: Time 165480, Note Name: G4, Velocity: 39
Note OFF: Time 165600, Note Name: G4
Note OFF: Time 165600, Note Name: E4
Note ON: Time 165600, Note Name: C5, Velocity: 64
Note OFF: Time 165720, Note Name: C5
Note ON: Time 165720, Note Name: E4, Velocity: 34
Note ON: Time 165720, Note Name: G4, Velocity: 41
Note OFF: Time 165840, Note Name: G4
Note OFF: Time 165840, Note Name: E4
Note ON: Time 165840, Note Name: D5, Velocity: 68
Note OFF: Time 165960, Note Name: D5
Note ON: Time 165960, Note Name: E4, Velocity: 34
Note ON: Time 165960, Note Name: G4, Velocity: 40
Note OFF: Time 166080, Note Name: G4
Note OFF: Time 166080, Note Name: E4
Note ON: Time 166080, Note Name: E5, Velocity: 62
Note OFF: Time 166200, Note Name: E5
Note ON: Time 166200, Note Name: G4, Velocity: 38
Note ON: Time 166200, Note Name: A#4, Velocity: 45
Note OFF: Time 166320, Note Name: A#4
Note OFF: Time 166320, Note Name: G4
Note ON: Time 166320, Note Name: C5, Velocity: 68
Note OFF: Time 166440, Note Name: C5
Note ON: Time 166440, Note Name: G4, Velocity: 38
Note ON: Time 166440, Note Name: A#4, Velocity: 45
Note OFF: Time 166560, Note Name: A#4
Note OFF: Time 166560, Note Name: G4
Note ON: Time 166560, Note Name: D5, Velocity: 68
Note OFF: Time 166680, Note Name: D5
Note ON: Time 166680, Note Name: G4, Velocity: 38
Note ON: Time 166680, Note Name: A#4, Velocity: 45
Note OFF: Time 166800, Note Name: A#4
Note OFF: Time 166800, Note Name: G4
Note ON: Time 166800, Note Name: E5, Velocity: 70
Note OFF: Time 166920, Note Name: E5
Note ON: Time 166920, Note Name: G4, Velocity: 38
Note ON: Time 166920, Note Name: A#4, Velocity: 45
Note OFF: Time 167040, Note Name: A#4
Note OFF: Time 167040, Note Name: G4
Note ON: Time 167040, Note Name: F5, Velocity: 68
Note OFF: Time 167160, Note Name: F5
Note ON: Time 167160, Note Name: F4, Velocity: 34
Note ON: Time 167160, Note Name: A4, Velocity: 40
Note OFF: Time 167280, Note Name: A4
Note OFF: Time 167280, Note Name: F4
Note ON: Time 167280, Note Name: F5, Velocity: 62
Note OFF: Time 167400, Note Name: F5
Note ON: Time 167400, Note Name: F4, Velocity: 33
Note ON: Time 167400, Note Name: A4, Velocity: 39
Note OFF: Time 167520, Note Name: A4
Note OFF: Time 167520, Note Name: F4
Note ON: Time 167520, Note Name: F5, Velocity: 64
Note OFF: Time 167640, Note Name: F5
Note ON: Time 167640, Note Name: F4, Velocity: 34
Note ON: Time 167640, Note Name: A4, Velocity: 41
Note OFF: Time 167760, Note Name: A4
Note OFF: Time 167760, Note Name: F4
Note ON: Time 167760, Note Name: E5, Velocity: 68
Note OFF: Time 167880, Note Name: E5
Note ON: Time 167880, Note Name: F4, Velocity: 34
Note ON: Time 167880, Note Name: A4, Velocity: 40
Note OFF: Time 168000, Note Name: A4
Note OFF: Time 168000, Note Name: F4
Note ON: Time 168000, Note Name: D5, Velocity: 62
Note OFF: Time 168120, Note Name: D5
Note ON: Time 168120, Note Name: F4, Velocity: 38
Note ON: Time 168120, Note Name: G#4, Velocity: 45
Note OFF: Time 168240, Note Name: G#4
Note OFF: Time 168240, Note Name: F4
Note ON: Time 168240, Note Name: C5, Velocity: 68
Note OFF: Time 168360, Note Name: C5
Note ON: Time 168360, Note Name: F4, Velocity: 38
Note ON: Time 168360, Note Name: G#4, Velocity: 45
Note OFF: Time 168480, Note Name: G#4
Note OFF: Time 168480, Note Name: F4
Note ON: Time 168480, Note Name: B4, Velocity: 68
Note OFF: Time 168600, Note Name: B4
Note ON: Time 168600, Note Name: F4, Velocity: 38
Note ON: Time 168600, Note Name: G#4, Velocity: 45
Note OFF: Time 168720, Note Name: G#4
Note OFF: Time 168720, Note Name: F4
Note ON: Time 168720, Note Name: D5, Velocity: 70
Note OFF: Time 168840, Note Name: D5
Note ON: Time 168840, Note Name: F4, Velocity: 38
Note ON: Time 168840, Note Name: G#4, Velocity: 45
Note OFF: Time 168960, Note Name: G#4
Note OFF: Time 168960, Note Name: F4
Note ON: Time 168960, Note Name: C5, Velocity: 78
Note OFF: Time 169080, Note Name: C5
Note ON: Time 169080, Note Name: E4, Velocity: 38
Note ON: Time 169080, Note Name: G4, Velocity: 45
Note OFF: Time 169200, Note Name: G4
Note OFF: Time 169200, Note Name: E4
Note ON: Time 169200, Note Name: C5, Velocity: 68
Note OFF: Time 169320, Note Name: C5
Note ON: Time 169320, Note Name: E4, Velocity: 38
Note ON: Time 169320, Note Name: G4, Velocity: 45
Note OFF: Time 169440, Note Name: G4
Note OFF: Time 169440, Note Name: E4
Note ON: Time 169440, Note Name: B4, Velocity: 68
Note OFF: Time 169560, Note Name: B4
Note ON: Time 169560, Note Name: F4, Velocity: 38
Note ON: Time 169560, Note Name: G#4, Velocity: 45
Note OFF: Time 169680, Note Name: G#4
Note OFF: Time 169680, Note Name: F4
Note ON: Time 169680, Note Name: D5, Velocity: 70
Note OFF: Time 169800, Note Name: D5
Note ON: Time 169800, Note Name: F4, Velocity: 38
Note ON: Time 169800, Note Name: G#4, Velocity: 45
Note OFF: Time 169920, Note Name: G#4
Note OFF: Time 169920, Note Name: F4
Note ON: Time 169920, Note Name: C5, Velocity: 76
Note OFF: Time 170040, Note Name: C5
Note ON: Time 170040, Note Name: E4, Velocity: 38
Note ON: Time 170040, Note Name: G4, Velocity: 45
Note OFF: Time 170160, Note Name: G4
Note OFF: Time 170160, Note Name: E4
Note ON: Time 170160, Note Name: C5, Velocity: 68
Note OFF: Time 170280, Note Name: C5
Note ON: Time 170280, Note Name: E4, Velocity: 38
Note ON: Time 170280, Note Name: G4, Velocity: 45
Note OFF: Time 170400, Note Name: G4
Note OFF: Time 170400, Note Name: E4
Note ON: Time 170400, Note Name: B4, Velocity: 68
Note OFF: Time 170520, Note Name: B4
Note ON: Time 170520, Note Name: F4, Velocity: 38
Note ON: Time 170520, Note Name: G#4, Velocity: 45
Note OFF: Time 170640, Note Name: G#4
Note OFF: Time 170640, Note Name: F4
Note ON: Time 170640, Note Name: D5, Velocity: 70
Note OFF: Time 170760, Note Name: D5
Note ON: Time 170760, Note Name: F4, Velocity: 38
Note ON: Time 170760, Note Name: G#4, Velocity: 45
Note OFF: Time 170880, Note Name: G#4
Note OFF: Time 170880, Note Name: F4
Note ON: Time 170880, Note Name: E4, Velocity: 59
Note ON: Time 170880, Note Name: G4, Velocity: 59
Note ON: Time 170880, Note Name: C5, Velocity: 70
Note OFF: Time 171000, Note Name: C5
Note OFF: Time 171000, Note Name: G4
Note OFF: Time 171000, Note Name: E4
Note ON: Time 171000, Note Name: C4, Velocity: 35
Note ON: Time 171120, Note Name: D4, Velocity: 40
Note OFF: Time 171132, Note Name: C4
Note ON: Time 171240, Note Name: E4, Velocity: 35
Note OFF: Time 171252, Note Name: D4
Note ON: Time 171360, Note Name: F4, Velocity: 40
Note OFF: Time 171372, Note Name: E4
Note ON: Time 171480, Note Name: G4, Velocity: 35
Note OFF: Time 171492, Note Name: F4
Note ON: Time 171600, Note Name: A4, Velocity: 40
Note OFF: Time 171612, Note Name: G4
Note ON: Time 171720, Note Name: B4, Velocity: 33
Note OFF: Time 171732, Note Name: A4
Note ON: Time 171840, Note Name: C5, Velocity: 40
Note OFF: Time 171852, Note Name: B4
Note ON: Time 171960, Note Name: B4, Velocity: 33
Note OFF: Time 171972, Note Name: C5
Note ON: Time 172080, Note Name: C5, Velocity: 40
Note OFF: Time 172092, Note Name: B4
Note ON: Time 172200, Note Name: B4, Velocity: 33
Note OFF: Time 172212, Note Name: C5
Note ON: Time 172320, Note Name: C5, Velocity: 40
Note OFF: Time 172332, Note Name: B4
Note ON: Time 172440, Note Name: B4, Velocity: 34
Note OFF: Time 172452, Note Name: C5
Note ON: Time 172560, Note Name: C5, Velocity: 40
Note OFF: Time 172572, Note Name: B4
Note ON: Time 172680, Note Name: B4, Velocity: 33
Note OFF: Time 172692, Note Name: C5
Note OFF: Time 172800, Note Name: B4
Note ON: Time 172800, Note Name: A4, Velocity: 38
Note ON: Time 172800, Note Name: C5, Velocity: 43
Note OFF: Time 173760, Note Name: C5
Note OFF: Time 173760, Note Name: A4
Note ON: Time 173760, Note Name: A4, Velocity: 49
Note OFF: Time 174240, Note Name: A4
Note ON: Time 174240, Note Name: F5, Velocity: 47
Note OFF: Time 174720, Note Name: F5
Note ON: Time 174720, Note Name: A4, Velocity: 41
Note ON: Time 174720, Note Name: C5, Velocity: 49
Note OFF: Time 175200, Note Name: C5
Note OFF: Time 175200, Note Name: A4
Note ON: Time 175200, Note Name: A5, Velocity: 43
Note ON: Time 175200, Note Name: F5, Velocity: 36
Note OFF: Time 175680, Note Name: F5
Note OFF: Time 175680, Note Name: A5
Note ON: Time 175680, Note Name: A4, Velocity: 42
Note ON: Time 175680, Note Name: C5, Velocity: 50
Note OFF: Time 176160, Note Name: C5
Note OFF: Time 176160, Note Name: A4
Note ON: Time 176160, Note Name: C6, Velocity: 43
Note ON: Time 176160, Note Name: A5, Velocity: 36
Note OFF: Time 176640, Note Name: A5
Note OFF: Time 176640, Note Name: C6
Note ON: Time 176640, Note Name: A4, Velocity: 38
Note ON: Time 176640, Note Name: C5, Velocity: 43
Note OFF: Time 177600, Note Name: C5
Note OFF: Time 177600, Note Name: A4
Note ON: Time 177600, Note Name: A4, Velocity: 49
Note OFF: Time 178080, Note Name: A4
Note ON: Time 178080, Note Name: F5, Velocity: 46
Note OFF: Time 178560, Note Name: F5
Note ON: Time 178560, Note Name: A4, Velocity: 41
Note ON: Time 178560, Note Name: C5, Velocity: 49
Note OFF: Time 179040, Note Name: C5
Note OFF: Time 179040, Note Name: A4
Note ON: Time 179040, Note Name: A5, Velocity: 43
Note ON: Time 179040, Note Name: F5, Velocity: 36
Note OFF: Time 179520, Note Name: F5
Note OFF: Time 179520, Note Name: A5
Note ON: Time 179520, Note Name: A4, Velocity: 42
Note ON: Time 179520, Note Name: C5, Velocity: 50
Note OFF: Time 180000, Note Name: C5
Note OFF: Time 180000, Note Name: A4
Note ON: Time 180000, Note Name: C6, Velocity: 43
Note ON: Time 180000, Note Name: A5, Velocity: 36
Note OFF: Time 180480, Note Name: A5
Note OFF: Time 180480, Note Name: C6
Note ON: Time 180480, Note Name: A4, Velocity: 41
Note ON: Time 180480, Note Name: C5, Velocity: 41
Note ON: Time 180480, Note Name: D5, Velocity: 49
Note ON: Time 180480, Note Name: F#5, Velocity: 49
Note OFF: Time 181440, Note Name: F#5
Note OFF: Time 181440, Note Name: A4
Note OFF: Time 181440, Note Name: C5
Note OFF: Time 181440, Note Name: D5
Note ON: Time 182880, Note Name: F#5, Velocity: 70
Note OFF: Time 183360, Note Name: F#5
Note ON: Time 183360, Note Name: A5, Velocity: 68
Note OFF: Time 183840, Note Name: A5
Note ON: Time 183840, Note Name: C6, Velocity: 66
Note ON: Time 184320, Note Name: F#5, Velocity: 72
Note OFF: Time 184800, Note Name: C6
Note ON: Time 184800, Note Name: A#5, Velocity: 73
Note OFF: Time 185280, Note Name: F#5
Note ON: Time 185280, Note Name: G5, Velocity: 75
Note ON: Time 185760, Note Name: C#5, Velocity: 66
Note OFF: Time 186240, Note Name: C#5
Note ON: Time 186240, Note Name: C5, Velocity: 74
Note OFF: Time 186720, Note Name: G5
Note OFF: Time 186720, Note Name: A#5
Note ON: Time 186720, Note Name: A5, Velocity: 67
Note ON: Time 186720, Note Name: F5, Velocity: 57
Note OFF: Time 187200, Note Name: F5
Note OFF: Time 187200, Note Name: A5
Note OFF: Time 187200, Note Name: C5
Note ON: Time 187200, Note Name: A#4, Velocity: 61
Note ON: Time 187200, Note Name: D5, Velocity: 61
Note ON: Time 187200, Note Name: G5, Velocity: 72
Note OFF: Time 187680, Note Name: G5
Note OFF: Time 187680, Note Name: D5
Note OFF: Time 187680, Note Name: A#4
Note ON: Time 187680, Note Name: G4, Velocity: 53
Note ON: Time 187680, Note Name: A#4, Velocity: 53
Note ON: Time 187680, Note Name: E5, Velocity: 64
Note OFF: Time 188160, Note Name: E5
Note OFF: Time 188160, Note Name: A#4
Note OFF: Time 188160, Note Name: G4
Note ON: Time 188160, Note Name: F4, Velocity: 64
Note ON: Time 188160, Note Name: A4, Velocity: 64
Note ON: Time 188160, Note Name: F5, Velocity: 77
Note OFF: Time 188400, Note Name: F5
Note OFF: Time 188400, Note Name: A4
Note OFF: Time 188400, Note Name: F4
Note ON: Time 189120, Note Name: F4, Velocity: 73
Note ON: Time 189120, Note Name: A4, Velocity: 88
Note OFF: Time 190070, Note Name: F4
Note OFF: Time 190080, Note Name: A4
Note ON: Time 190080, Note Name: D4, Velocity: 57
Note ON: Time 190080, Note Name: F4, Velocity: 68
Note OFF: Time 190550, Note Name: D4
Note OFF: Time 190560, Note Name: F4
Note ON: Time 190560, Note Name: A#3, Velocity: 59
Note ON: Time 190560, Note Name: D4, Velocity: 70
Note OFF: Time 190800, Note Name: D4
Note OFF: Time 190800, Note Name: A#3
Note ON: Time 191040, Note Name: G4, Velocity: 73
Note ON: Time 191040, Note Name: A#4, Velocity: 88
Note OFF: Time 191760, Note Name: A#4
Note OFF: Time 191760, Note Name: G4
Note ON: Time 191760, Note Name: F4, Velocity: 57
Note ON: Time 191760, Note Name: A4, Velocity: 68
Note OFF: Time 192000, Note Name: A4
Note OFF: Time 192000, Note Name: F4
Note ON: Time 192000, Note Name: G4, Velocity: 77
Note ON: Time 192000, Note Name: E4, Velocity: 64
Note OFF: Time 192470, Note Name: E4
Note OFF: Time 192480, Note Name: G4
Note ON: Time 192480, Note Name: C4, Velocity: 57
Note ON: Time 192480, Note Name: E4, Velocity: 68
Note OFF: Time 192720, Note Name: E4
Note OFF: Time 192720, Note Name: C4
Note ON: Time 192960, Note Name: A4, Velocity: 73
Note ON: Time 192960, Note Name: C5, Velocity: 88
Note OFF: Time 193910, Note Name: A4
Note OFF: Time 193920, Note Name: C5
Note ON: Time 193920, Note Name: F4, Velocity: 57
Note ON: Time 193920, Note Name: A4, Velocity: 68
Note OFF: Time 194390, Note Name: F4
Note OFF: Time 194400, Note Name: A4
Note ON: Time 194400, Note Name: D4, Velocity: 59
Note ON: Time 194400, Note Name: F4, Velocity: 70
Note OFF: Time 194640, Note Name: F4
Note OFF: Time 194640, Note Name: D4
Note ON: Time 194880, Note Name: A#4, Velocity: 73
Note ON: Time 194880, Note Name: D5, Velocity: 88
Note OFF: Time 195600, Note Name: D5
Note OFF: Time 195600, Note Name: A#4
Note ON: Time 195600, Note Name: A4, Velocity: 57
Note ON: Time 195600, Note Name: C5, Velocity: 68
Note OFF: Time 195840, Note Name: C5
Note OFF: Time 195840, Note Name: A4
Note ON: Time 195840, Note Name: A#4, Velocity: 77
Note ON: Time 195840, Note Name: G4, Velocity: 64
Note OFF: Time 196310, Note Name: G4
Note OFF: Time 196320, Note Name: A#4
Note ON: Time 196320, Note Name: E4, Velocity: 57
Note ON: Time 196320, Note Name: G4, Velocity: 68
Note OFF: Time 196560, Note Name: G4
Note OFF: Time 196560, Note Name: E4
Note ON: Time 196800, Note Name: A#4, Velocity: 73
Note ON: Time 196800, Note Name: G5, Velocity: 88
Note OFF: Time 197520, Note Name: G5
Note OFF: Time 197520, Note Name: A#4
Note ON: Time 197520, Note Name: A4, Velocity: 57
Note ON: Time 197520, Note Name: F5, Velocity: 68
Note OFF: Time 197760, Note Name: F5
Note OFF: Time 197760, Note Name: A4
Note ON: Time 197760, Note Name: G4, Velocity: 73
Note ON: Time 197760, Note Name: E5, Velocity: 88
Note OFF: Time 198480, Note Name: E5
Note OFF: Time 198480, Note Name: G4
Note ON: Time 198480, Note Name: F4, Velocity: 57
Note ON: Time 198480, Note Name: D5, Velocity: 68
Note OFF: Time 198720, Note Name: D5
Note OFF: Time 198720, Note Name: F4
Note ON: Time 198720, Note Name: E4, Velocity: 51
Note ON: Time 198720, Note Name: C5, Velocity: 60
Note OFF: Time 199200, Note Name: C5
Note OFF: Time 199200, Note Name: E4
Note ON: Time 199200, Note Name: A#3, Velocity: 44
Note ON: Time 199200, Note Name: A#4, Velocity: 52
Note OFF: Time 199680, Note Name: A#4
Note OFF: Time 199680, Note Name: A#3
Note ON: Time 199680, Note Name: A3, Velocity: 49
Note ON: Time 199680, Note Name: A4, Velocity: 58
Note OFF: Time 200160, Note Name: A4
Note OFF: Time 200160, Note Name: A3
Note ON: Time 200160, Note Name: C#4, Velocity: 39
Note ON: Time 200160, Note Name: G4, Velocity: 46
Note OFF: Time 200640, Note Name: G4
Note OFF: Time 200640, Note Name: C#4
Note ON: Time 200640, Note Name: D4, Velocity: 45
Note ON: Time 200640, Note Name: F4, Velocity: 53
Note OFF: Time 201120, Note Name: F4
Note OFF: Time 201120, Note Name: D4
Note ON: Time 201120, Note Name: F3, Velocity: 40
Note ON: Time 201120, Note Name: G3, Velocity: 40
Note ON: Time 201120, Note Name: D4, Velocity: 48
Note OFF: Time 201600, Note Name: D4
Note OFF: Time 201600, Note Name: G3
Note OFF: Time 201600, Note Name: F3
Note ON: Time 202080, Note Name: F3, Velocity: 32
Note ON: Time 202080, Note Name: A3, Velocity: 32
Note ON: Time 202080, Note Name: C4, Velocity: 38
Note OFF: Time 202320, Note Name: C4
Note OFF: Time 202320, Note Name: A3
Note OFF: Time 202320, Note Name: F3
Note ON: Time 203040, Note Name: C3, Velocity: 31
Note ON: Time 203040, Note Name: E3, Velocity: 31
Note ON: Time 203040, Note Name: G3, Velocity: 31
Note ON: Time 203040, Note Name: C4, Velocity: 37
Note OFF: Time 203280, Note Name: C4
Note OFF: Time 203280, Note Name: C3
Note OFF: Time 203280, Note Name: E3
Note OFF: Time 203280, Note Name: G3
Note ON: Time 204000, Note Name: A3, Velocity: 35
Note ON: Time 204000, Note Name: F3, Velocity: 29
Note ON: Time 204000, Note Name: C3, Velocity: 29
Note OFF: Time 204450, Note Name: C3
Note OFF: Time 204450, Note Name: F3
Note OFF: Time 204450, Note Name: A3
Note ON: Time 204720, Note Name: F4, Velocity: 55
Note ON: Time 204720, Note Name: A4, Velocity: 66
Note OFF: Time 205200, Note Name: A4
Note OFF: Time 205200, Note Name: F4
Note ON: Time 205200, Note Name: F4, Velocity: 43
Note ON: Time 205200, Note Name: A4, Velocity: 51
Note OFF: Time 205320, Note Name: A4
Note OFF: Time 205320, Note Name: F4
Note ON: Time 205680, Note Name: D4, Velocity: 41
Note ON: Time 205680, Note Name: F4, Velocity: 49
Note OFF: Time 205800, Note Name: F4
Note OFF: Time 205800, Note Name: D4
Note ON: Time 206160, Note Name: A#3, Velocity: 38
Note ON: Time 206160, Note Name: D4, Velocity: 45
Note OFF: Time 206280, Note Name: D4
Note OFF: Time 206280, Note Name: A#3
Note ON: Time 206640, Note Name: G4, Velocity: 60
Note ON: Time 206640, Note Name: A#4, Velocity: 73
Note OFF: Time 207120, Note Name: A#4
Note OFF: Time 207120, Note Name: G4
Note ON: Time 207120, Note Name: F4, Velocity: 43
Note ON: Time 207120, Note Name: A4, Velocity: 51
Note OFF: Time 207240, Note Name: A4
Note OFF: Time 207240, Note Name: F4
Note ON: Time 207600, Note Name: E4, Velocity: 41
Note ON: Time 207600, Note Name: G4, Velocity: 49
Note OFF: Time 207720, Note Name: G4
Note OFF: Time 207720, Note Name: E4
Note ON: Time 208080, Note Name: C4, Velocity: 38
Note ON: Time 208080, Note Name: E4, Velocity: 45
Note OFF: Time 208200, Note Name: E4
Note OFF: Time 208200, Note Name: C4
Note ON: Time 208560, Note Name: A4, Velocity: 60
Note ON: Time 208560, Note Name: C5, Velocity: 72
Note OFF: Time 209040, Note Name: C5
Note OFF: Time 209040, Note Name: A4
Note ON: Time 209040, Note Name: A4, Velocity: 47
Note ON: Time 209040, Note Name: C5, Velocity: 56
Note OFF: Time 209160, Note Name: C5
Note OFF: Time 209160, Note Name: A4
Note ON: Time 209520, Note Name: F4, Velocity: 45
Note ON: Time 209520, Note Name: A4, Velocity: 53
Note OFF: Time 209640, Note Name: A4
Note OFF: Time 209640, Note Name: F4
Note ON: Time 210000, Note Name: D4, Velocity: 41
Note ON: Time 210000, Note Name: F4, Velocity: 49
Note OFF: Time 210120, Note Name: F4
Note OFF: Time 210120, Note Name: D4
Note ON: Time 210480, Note Name: A#4, Velocity: 68
Note ON: Time 210480, Note Name: D5, Velocity: 84
Note OFF: Time 210960, Note Name: D5
Note OFF: Time 210960, Note Name: A#4
Note ON: Time 210960, Note Name: A4, Velocity: 49
Note ON: Time 210960, Note Name: C5, Velocity: 58
Note OFF: Time 211080, Note Name: C5
Note OFF: Time 211080, Note Name: A4
Note ON: Time 211440, Note Name: G4, Velocity: 47
Note ON: Time 211440, Note Name: A#4, Velocity: 55
Note OFF: Time 211560, Note Name: A#4
Note OFF: Time 211560, Note Name: G4
Note ON: Time 211920, Note Name: E4, Velocity: 43
Note ON: Time 211920, Note Name: G4, Velocity: 51
Note OFF: Time 212040, Note Name: G4
Note OFF: Time 212040, Note Name: E4
Note ON: Time 212400, Note Name: A#4, Velocity: 79
Note ON: Time 212400, Note Name: G5, Velocity: 96
Note OFF: Time 212880, Note Name: G5
Note OFF: Time 212880, Note Name: A#4
Note ON: Time 212880, Note Name: A4, Velocity: 56
Note ON: Time 212880, Note Name: F5, Velocity: 67
Note OFF: Time 213000, Note Name: F5
Note OFF: Time 213000, Note Name: A4
Note ON: Time 213360, Note Name: G4, Velocity: 79
Note ON: Time 213360, Note Name: E5, Velocity: 96
Note OFF: Time 213840, Note Name: E5
Note OFF: Time 213840, Note Name: G4
Note ON: Time 213840, Note Name: F4, Velocity: 56
Note ON: Time 213840, Note Name: D5, Velocity: 67
Note OFF: Time 213960, Note Name: D5
Note OFF: Time 213960, Note Name: F4
Note ON: Time 214320, Note Name: E4, Velocity: 44
Note ON: Time 214320, Note Name: C5, Velocity: 52
Note OFF: Time 214440, Note Name: C5
Note OFF: Time 214440, Note Name: E4
Note ON: Time 214800, Note Name: A#3, Velocity: 39
Note ON: Time 214800, Note Name: A#4, Velocity: 46
Note OFF: Time 214920, Note Name: A#4
Note OFF: Time 214920, Note Name: A#3
Note ON: Time 215040, Note Name: A4, Velocity: 54
Note OFF: Time 215160, Note Name: A4
Note ON: Time 215160, Note Name: A3, Velocity: 46
Note OFF: Time 215280, Note Name: A3
Note ON: Time 215280, Note Name: C#4, Velocity: 43
Note OFF: Time 215400, Note Name: C#4
Note ON: Time 215400, Note Name: E4, Velocity: 43
Note OFF: Time 215520, Note Name: E4
Note ON: Time 215520, Note Name: A4, Velocity: 53
Note OFF: Time 215640, Note Name: A4
Note ON: Time 215640, Note Name: C#5, Velocity: 42
Note OFF: Time 215760, Note Name: C#5
Note ON: Time 215760, Note Name: E5, Velocity: 42
Note OFF: Time 215880, Note Name: E5
Note ON: Time 215880, Note Name: G#5, Velocity: 42
Note OFF: Time 216000, Note Name: G#5
Note ON: Time 216000, Note Name: A5, Velocity: 49
Note OFF: Time 216120, Note Name: A5
Note ON: Time 216120, Note Name: G#5, Velocity: 39
Note OFF: Time 216240, Note Name: G#5
Note ON: Time 216240, Note Name: A5, Velocity: 42
Note OFF: Time 216360, Note Name: A5
Note ON: Time 216360, Note Name: G#5, Velocity: 38
Note OFF: Time 216480, Note Name: G#5
Note ON: Time 216480, Note Name: A5, Velocity: 48
Note OFF: Time 216600, Note Name: A5
Note ON: Time 216600, Note Name: E5, Velocity: 38
Note OFF: Time 216720, Note Name: E5
Note ON: Time 216720, Note Name: C#5, Velocity: 38
Note OFF: Time 216840, Note Name: C#5
Note ON: Time 216840, Note Name: A4, Velocity: 38
Note OFF: Time 216960, Note Name: A4
Note ON: Time 217080, Note Name: A3, Velocity: 46
Note OFF: Time 217200, Note Name: A3
Note ON: Time 217200, Note Name: D4, Velocity: 43
Note OFF: Time 217320, Note Name: D4
Note ON: Time 217320, Note Name: F4, Velocity: 43
Note OFF: Time 217440, Note Name: F4
Note ON: Time 217440, Note Name: A4, Velocity: 53
Note OFF: Time 217560, Note Name: A4
Note ON: Time 217560, Note Name: D5, Velocity: 42
Note OFF: Time 217680, Note Name: D5
Note ON: Time 217680, Note Name: F5, Velocity: 42
Note OFF: Time 217800, Note Name: F5
Note ON: Time 217800, Note Name: G#5, Velocity: 42
Note OFF: Time 217920, Note Name: G#5
Note ON: Time 217920, Note Name: A5, Velocity: 49
Note OFF: Time 218040, Note Name: A5
Note ON: Time 218040, Note Name: G#5, Velocity: 39
Note OFF: Time 218160, Note Name: G#5
Note ON: Time 218160, Note Name: A5, Velocity: 42
Note OFF: Time 218280, Note Name: A5
Note ON: Time 218280, Note Name: G#5, Velocity: 38
Note OFF: Time 218400, Note Name: G#5
Note ON: Time 218400, Note Name: A5, Velocity: 48
Note OFF: Time 218520, Note Name: A5
Note ON: Time 218520, Note Name: F5, Velocity: 38
Note OFF: Time 218640, Note Name: F5
Note ON: Time 218640, Note Name: D5, Velocity: 38
Note OFF: Time 218760, Note Name: D5
Note ON: Time 218760, Note Name: A4, Velocity: 38
Note OFF: Time 218880, Note Name: A4
Note ON: Time 219000, Note Name: G#3, Velocity: 46
Note OFF: Time 219120, Note Name: G#3
Note ON: Time 219120, Note Name: B3, Velocity: 43
Note OFF: Time 219240, Note Name: B3
Note ON: Time 219240, Note Name: D4, Velocity: 43
Note OFF: Time 219360, Note Name: D4
Note ON: Time 219360, Note Name: F4, Velocity: 50
Note OFF: Time 219480, Note Name: F4
Note ON: Time 219480, Note Name: G#4, Velocity: 42
Note OFF: Time 219600, Note Name: G#4
Note ON: Time 219600, Note Name: B4, Velocity: 42
Note OFF: Time 219720, Note Name: B4
Note ON: Time 219720, Note Name: D5, Velocity: 42
Note OFF: Time 219840, Note Name: D5
Note ON: Time 219840, Note Name: F5, Velocity: 49
Note OFF: Time 219960, Note Name: F5
Note ON: Time 219960, Note Name: D5, Velocity: 41
Note OFF: Time 220080, Note Name: D5
Note ON: Time 220080, Note Name: G#5, Velocity: 48
Note OFF: Time 220200, Note Name: G#5
Note ON: Time 220200, Note Name: F5, Velocity: 41
Note OFF: Time 220320, Note Name: F5
Note ON: Time 220320, Note Name: D5, Velocity: 48
Note OFF: Time 220440, Note Name: D5
Note ON: Time 220440, Note Name: B4, Velocity: 45
Note OFF: Time 220560, Note Name: B4
Note ON: Time 220560, Note Name: G#4, Velocity: 42
Note OFF: Time 220680, Note Name: G#4
Note ON: Time 220680, Note Name: F4, Velocity: 39
Note OFF: Time 220800, Note Name: F4
Note ON: Time 220920, Note Name: E4, Velocity: 48
Note OFF: Time 221040, Note Name: E4
Note ON: Time 221040, Note Name: G4, Velocity: 50
Note OFF: Time 221160, Note Name: G4
Note ON: Time 221160, Note Name: A#4, Velocity: 51
Note OFF: Time 221280, Note Name: A#4
Note ON: Time 221280, Note Name: C#5, Velocity: 53
Note OFF: Time 221400, Note Name: C#5
Note ON: Time 221400, Note Name: E5, Velocity: 55
Note OFF: Time 221520, Note Name: E5
Note ON: Time 221520, Note Name: G5, Velocity: 57
Note OFF: Time 221640, Note Name: G5
Note ON: Time 221640, Note Name: A#5, Velocity: 59
Note OFF: Time 221760, Note Name: A#5
Note ON: Time 221760, Note Name: C#6, Velocity: 65
Note OFF: Time 221880, Note Name: C#6
Note ON: Time 221880, Note Name: E6, Velocity: 57
Note OFF: Time 222000, Note Name: E6
Note ON: Time 222000, Note Name: E5, Velocity: 64
Note OFF: Time 222120, Note Name: E5
Note ON: Time 222120, Note Name: E6, Velocity: 56
Note OFF: Time 222240, Note Name: E6
Note ON: Time 222240, Note Name: E5, Velocity: 64
Note OFF: Time 222360, Note Name: E5
Note ON: Time 222360, Note Name: E6, Velocity: 58
Note OFF: Time 222480, Note Name: E6
Note ON: Time 222480, Note Name: E5, Velocity: 64
Note OFF: Time 222600, Note Name: E5
Note ON: Time 222600, Note Name: E6, Velocity: 59
Note OFF: Time 222720, Note Name: E6
Note ON: Time 222720, Note Name: F5, Velocity: 74
Note OFF: Time 222840, Note Name: F5
Note ON: Time 222840, Note Name: F6, Velocity: 59
Note OFF: Time 222960, Note Name: F6
Note ON: Time 222960, Note Name: E5, Velocity: 67
Note OFF: Time 223080, Note Name: E5
Note ON: Time 223080, Note Name: E6, Velocity: 54
Note OFF: Time 223200, Note Name: E6
Note ON: Time 223200, Note Name: F5, Velocity: 66
Note OFF: Time 223320, Note Name: F5
Note ON: Time 223320, Note Name: F6, Velocity: 57
Note OFF: Time 223440, Note Name: F6
Note ON: Time 223440, Note Name: A#4, Velocity: 59
Note OFF: Time 223560, Note Name: A#4
Note ON: Time 223560, Note Name: A#5, Velocity: 50
Note OFF: Time 223680, Note Name: A#5
Note ON: Time 223680, Note Name: A4, Velocity: 79
Note OFF: Time 223800, Note Name: A4
Note ON: Time 223800, Note Name: A5, Velocity: 54
Note OFF: Time 223920, Note Name: A5
Note ON: Time 223920, Note Name: E5, Velocity: 65
Note OFF: Time 224040, Note Name: E5
Note ON: Time 224040, Note Name: E6, Velocity: 57
Note OFF: Time 224160, Note Name: E6
Note ON: Time 224160, Note Name: F5, Velocity: 68
Note OFF: Time 224280, Note Name: F5
Note ON: Time 224280, Note Name: F6, Velocity: 60
Note OFF: Time 224400, Note Name: F6
Note ON: Time 224400, Note Name: A#4, Velocity: 67
Note OFF: Time 224520, Note Name: A#4
Note ON: Time 224520, Note Name: A#5, Velocity: 58
Note OFF: Time 224640, Note Name: A#5
Note ON: Time 224640, Note Name: A4, Velocity: 81
Note OFF: Time 224760, Note Name: A4
Note ON: Time 224760, Note Name: A5, Velocity: 58
Note OFF: Time 224880, Note Name: A5
Note ON: Time 224880, Note Name: E5, Velocity: 64
Note OFF: Time 225000, Note Name: E5
Note ON: Time 225000, Note Name: E6, Velocity: 59
Note OFF: Time 225120, Note Name: E6
Note ON: Time 225120, Note Name: F5, Velocity: 67
Note OFF: Time 225240, Note Name: F5
Note ON: Time 225240, Note Name: F6, Velocity: 55
Note OFF: Time 225360, Note Name: F6
Note ON: Time 225360, Note Name: A#4, Velocity: 62
Note OFF: Time 225480, Note Name: A#4
Note ON: Time 225480, Note Name: A#5, Velocity: 51
Note OFF: Time 225600, Note Name: A#5
Note ON: Time 225600, Note Name: A4, Velocity: 72
Note OFF: Time 225720, Note Name: A4
Note ON: Time 225720, Note Name: A5, Velocity: 52
Note OFF: Time 225840, Note Name: A5
Note ON: Time 225840, Note Name: E5, Velocity: 64
Note OFF: Time 225960, Note Name: E5
Note ON: Time 225960, Note Name: E6, Velocity: 54
Note OFF: Time 226080, Note Name: E6
Note ON: Time 226080, Note Name: F5, Velocity: 64
Note OFF: Time 226200, Note Name: F5
Note ON: Time 226200, Note Name: F6, Velocity: 51
Note OFF: Time 226320, Note Name: F6
Note ON: Time 226320, Note Name: A#4, Velocity: 60
Note OFF: Time 226440, Note Name: A#4
Note ON: Time 226440, Note Name: A#5, Velocity: 51
Note OFF: Time 226560, Note Name: A#5
Note ON: Time 226560, Note Name: A4, Velocity: 83
Note OFF: Time 226680, Note Name: A4
Note ON: Time 226680, Note Name: A5, Velocity: 53
Note OFF: Time 226800, Note Name: A5
Note ON: Time 226800, Note Name: G4, Velocity: 62
Note OFF: Time 226920, Note Name: G4
Note ON: Time 226920, Note Name: G5, Velocity: 54
Note OFF: Time 227040, Note Name: G5
Note ON: Time 227040, Note Name: F4, Velocity: 62
Note OFF: Time 227160, Note Name: F4
Note ON: Time 227160, Note Name: F5, Velocity: 54
Note OFF: Time 227280, Note Name: F5
Note ON: Time 227280, Note Name: E4, Velocity: 62
Note OFF: Time 227400, Note Name: E4
Note ON: Time 227400, Note Name: E5, Velocity: 53
Note OFF: Time 227520, Note Name: E5
Note ON: Time 227520, Note Name: D4, Velocity: 81
Note OFF: Time 227640, Note Name: D4
Note ON: Time 227640, Note Name: D5, Velocity: 53
Note OFF: Time 227760, Note Name: D5
Note ON: Time 227760, Note Name: C4, Velocity: 60
Note OFF: Time 227880, Note Name: C4
Note ON: Time 227880, Note Name: C5, Velocity: 52
Note OFF: Time 228000, Note Name: C5
Note ON: Time 228000, Note Name: A#3, Velocity: 59
Note OFF: Time 228120, Note Name: A#3
Note ON: Time 228120, Note Name: A#4, Velocity: 52
Note OFF: Time 228240, Note Name: A#4
Note ON: Time 228240, Note Name: A3, Velocity: 59
Note OFF: Time 228360, Note Name: A3
Note ON: Time 228360, Note Name: A4, Velocity: 50
Note OFF: Time 228480, Note Name: A4
Note ON: Time 228480, Note Name: G3, Velocity: 79
Note OFF: Time 228600, Note Name: G3
Note ON: Time 228600, Note Name: G4, Velocity: 50
Note OFF: Time 228720, Note Name: G4
Note ON: Time 228720, Note Name: F3, Velocity: 59
Note OFF: Time 228840, Note Name: F3
Note ON: Time 228840, Note Name: F4, Velocity: 49
Note OFF: Time 228960, Note Name: F4
Note ON: Time 228960, Note Name: E3, Velocity: 59
Note OFF: Time 229080, Note Name: E3
Note ON: Time 229080, Note Name: E4, Velocity: 49
Note OFF: Time 229200, Note Name: E4
Note ON: Time 229200, Note Name: D3, Velocity: 59
Note OFF: Time 229320, Note Name: D3
Note ON: Time 229320, Note Name: D4, Velocity: 51
Note OFF: Time 229440, Note Name: D4
Note ON: Time 229440, Note Name: C3, Velocity: 79
Note OFF: Time 229560, Note Name: C3
Note ON: Time 229560, Note Name: C4, Velocity: 49
Note OFF: Time 229680, Note Name: C4
Note ON: Time 229680, Note Name: A#2, Velocity: 59
Note OFF: Time 229800, Note Name: A#2
Note ON: Time 229800, Note Name: A#3, Velocity: 50
Note OFF: Time 229920, Note Name: A#3
Note ON: Time 229920, Note Name: A2, Velocity: 59
Note OFF: Time 230040, Note Name: A2
Note ON: Time 230040, Note Name: A3, Velocity: 48
Note OFF: Time 230160, Note Name: A3
Note ON: Time 230160, Note Name: G2, Velocity: 58
Note OFF: Time 230280, Note Name: G2
Note ON: Time 230280, Note Name: G3, Velocity: 49
Note OFF: Time 230400, Note Name: G3
Note ON: Time 230400, Note Name: F3, Velocity: 76
Note ON: Time 230400, Note Name: F2, Velocity: 64
Note OFF: Time 230520, Note Name: F2
Note OFF: Time 230520, Note Name: F3
Note ON: Time 230640, Note Name: E3, Velocity: 49
Note OFF: Time 230760, Note Name: E3
Note ON: Time 230760, Note Name: C4, Velocity: 42
Note OFF: Time 230880, Note Name: C4
Note ON: Time 230880, Note Name: F3, Velocity: 49
Note OFF: Time 231000, Note Name: F3
Note ON: Time 231000, Note Name: C4, Velocity: 41
Note OFF: Time 231120, Note Name: C4
Note ON: Time 231120, Note Name: A#3, Velocity: 49
Note OFF: Time 231240, Note Name: A#3
Note ON: Time 231240, Note Name: C4, Velocity: 42
Note OFF: Time 231360, Note Name: C4
Note ON: Time 231360, Note Name: A3, Velocity: 49
Note OFF: Time 231480, Note Name: A3
Note ON: Time 231480, Note Name: C4, Velocity: 41
Note OFF: Time 231600, Note Name: C4
Note ON: Time 231600, Note Name: E3, Velocity: 49
Note OFF: Time 231720, Note Name: E3
Note ON: Time 231720, Note Name: C4, Velocity: 42
Note OFF: Time 231840, Note Name: C4
Note ON: Time 231840, Note Name: F3, Velocity: 49
Note OFF: Time 231960, Note Name: F3
Note ON: Time 231960, Note Name: C4, Velocity: 43
Note OFF: Time 232080, Note Name: C4
Note ON: Time 232080, Note Name: A#3, Velocity: 49
Note OFF: Time 232200, Note Name: A#3
Note ON: Time 232200, Note Name: C4, Velocity: 40
Note OFF: Time 232320, Note Name: C4
Note ON: Time 232320, Note Name: A3, Velocity: 49
Note OFF: Time 232440, Note Name: A3
Note ON: Time 232440, Note Name: C4, Velocity: 41
Note OFF: Time 232560, Note Name: C4
Note ON: Time 232560, Note Name: E3, Velocity: 49
Note OFF: Time 232680, Note Name: E3
Note ON: Time 232680, Note Name: C4, Velocity: 42
Note OFF: Time 232800, Note Name: C4
Note ON: Time 232800, Note Name: F3, Velocity: 49
Note OFF: Time 232920, Note Name: F3
Note ON: Time 232920, Note Name: C4, Velocity: 43
Note OFF: Time 233040, Note Name: C4
Note ON: Time 233040, Note Name: A#3, Velocity: 49
Note OFF: Time 233160, Note Name: A#3
Note ON: Time 233160, Note Name: C4, Velocity: 40
Note OFF: Time 233280, Note Name: C4
Note ON: Time 233280, Note Name: A3, Velocity: 56
Note OFF: Time 233400, Note Name: A3
Note ON: Time 233400, Note Name: C4, Velocity: 45
Note OFF: Time 233520, Note Name: C4
Note ON: Time 233520, Note Name: C#3, Velocity: 60
Note OFF: Time 233640, Note Name: C#3
Note ON: Time 233640, Note Name: C#4, Velocity: 52
Note OFF: Time 233760, Note Name: C#4
Note ON: Time 233760, Note Name: D3, Velocity: 61
Note OFF: Time 233880, Note Name: D3
Note ON: Time 233880, Note Name: D4, Velocity: 49
Note OFF: Time 234000, Note Name: D4
Note ON: Time 234000, Note Name: E3, Velocity: 67
Note OFF: Time 234120, Note Name: E3
Note ON: Time 234120, Note Name: E4, Velocity: 60
Note OFF: Time 234240, Note Name: E4
Note ON: Time 234240, Note Name: F3, Velocity: 71
Note OFF: Time 234360, Note Name: F3
Note ON: Time 234360, Note Name: F4, Velocity: 62
Note OFF: Time 234480, Note Name: F4
Note ON: Time 234480, Note Name: F#3, Velocity: 70
Note OFF: Time 234600, Note Name: F#3
Note ON: Time 234600, Note Name: F#4, Velocity: 64
Note OFF: Time 234720, Note Name: F#4
Note ON: Time 234720, Note Name: G3, Velocity: 70
Note OFF: Time 234840, Note Name: G3
Note ON: Time 234840, Note Name: G4, Velocity: 64
Note OFF: Time 234960, Note Name: G4
Note ON: Time 234960, Note Name: A3, Velocity: 74
Note OFF: Time 235080, Note Name: A3
Note ON: Time 235080, Note Name: A4, Velocity: 65
Note OFF: Time 235200, Note Name: A4
Note ON: Time 235200, Note Name: A#3, Velocity: 82
Note OFF: Time 235320, Note Name: A#3
Note ON: Time 235320, Note Name: A#4, Velocity: 71
Note OFF: Time 235440, Note Name: A#4
Note ON: Time 235440, Note Name: C4, Velocity: 79
Note OFF: Time 235560, Note Name: C4
Note ON: Time 235560, Note Name: C5, Velocity: 70
Note OFF: Time 235680, Note Name: C5
Note ON: Time 235680, Note Name: D4, Velocity: 83
Note OFF: Time 235800, Note Name: D4
Note ON: Time 235800, Note Name: D5, Velocity: 72
Note OFF: Time 235920, Note Name: D5
Note ON: Time 235920, Note Name: C4, Velocity: 81
Note OFF: Time 236040, Note Name: C4
Note ON: Time 236040, Note Name: C5, Velocity: 69
Note OFF: Time 236160, Note Name: C5
Note ON: Time 236160, Note Name: A#3, Velocity: 84
Note OFF: Time 236280, Note Name: A#3
Note ON: Time 236280, Note Name: A#4, Velocity: 69
Note OFF: Time 236400, Note Name: A#4
Note ON: Time 236400, Note Name: A3, Velocity: 81
Note OFF: Time 236520, Note Name: A3
Note ON: Time 236520, Note Name: A4, Velocity: 69
Note OFF: Time 236640, Note Name: A4
Note ON: Time 236640, Note Name: G3, Velocity: 79
Note OFF: Time 236760, Note Name: G3
Note ON: Time 236760, Note Name: G4, Velocity: 69
Note OFF: Time 236880, Note Name: G4
Note ON: Time 236880, Note Name: F3, Velocity: 78
Note OFF: Time 237000, Note Name: F3
Note ON: Time 237000, Note Name: F4, Velocity: 65
Note OFF: Time 237120, Note Name: F4
Note ON: Time 237120, Note Name: E3, Velocity: 79
Note OFF: Time 237240, Note Name: E3
Note ON: Time 237240, Note Name: E4, Velocity: 69
Note OFF: Time 237360, Note Name: E4
Note ON: Time 237360, Note Name: D3, Velocity: 77
Note OFF: Time 237480, Note Name: D3
Note ON: Time 237480, Note Name: D4, Velocity: 65
Note OFF: Time 237600, Note Name: D4
Note ON: Time 237600, Note Name: C3, Velocity: 77
Note OFF: Time 237720, Note Name: C3
Note ON: Time 237720, Note Name: C4, Velocity: 67
Note OFF: Time 237840, Note Name: C4
Note ON: Time 237840, Note Name: E3, Velocity: 75
Note OFF: Time 237960, Note Name: E3
Note ON: Time 237960, Note Name: E4, Velocity: 66
Note OFF: Time 238080, Note Name: E4
Note ON: Time 238080, Note Name: F4, Velocity: 79
Note ON: Time 238080, Note Name: F3, Velocity: 79
Note OFF: Time 238560, Note Name: F3
Note OFF: Time 238560, Note Name: F4
Note ON: Time 239040, Note Name: C4, Velocity: 40
Note ON: Time 239040, Note Name: A3, Velocity: 34
Note ON: Time 239760, Note Name: F3, Velocity: 39
Note OFF: Time 240000, Note Name: F3
Note OFF: Time 240000, Note Name: A3
Note OFF: Time 240000, Note Name: C4
Note ON: Time 240000, Note Name: C#4, Velocity: 46
Note ON: Time 240000, Note Name: A#3, Velocity: 39
Note ON: Time 240720, Note Name: G#3, Velocity: 40
Note OFF: Time 240960, Note Name: G#3
Note OFF: Time 240960, Note Name: A#3
Note OFF: Time 240960, Note Name: C#4
Note ON: Time 240960, Note Name: C4, Velocity: 32
Note ON: Time 240960, Note Name: A#3, Velocity: 32
Note ON: Time 240960, Note Name: F#3, Velocity: 45
Note OFF: Time 241200, Note Name: F#3
Note ON: Time 241200, Note Name: F3, Velocity: 40
Note OFF: Time 241440, Note Name: F3
Note OFF: Time 241440, Note Name: A#3
Note OFF: Time 241440, Note Name: C4
Note ON: Time 241440, Note Name: C4, Velocity: 33
Note ON: Time 241440, Note Name: A#3, Velocity: 33
Note ON: Time 241440, Note Name: F#3, Velocity: 46
Note OFF: Time 241680, Note Name: F#3
Note ON: Time 241680, Note Name: E3, Velocity: 40
Note OFF: Time 241920, Note Name: E3
Note OFF: Time 241920, Note Name: A#3
Note OFF: Time 241920, Note Name: C4
Note ON: Time 241920, Note Name: C4, Velocity: 46
Note ON: Time 241920, Note Name: A3, Velocity: 39
Note ON: Time 241920, Note Name: F3, Velocity: 39
Note OFF: Time 242640, Note Name: F3
Note OFF: Time 242640, Note Name: A3
Note OFF: Time 242640, Note Name: C4
Note ON: Time 242880, Note Name: A4, Velocity: 52
Note ON: Time 242880, Note Name: C4, Velocity: 52
Note ON: Time 242880, Note Name: A3, Velocity: 44
Note OFF: Time 243600, Note Name: A4
Note ON: Time 243600, Note Name: F4, Velocity: 50
Note OFF: Time 243840, Note Name: F4
Note OFF: Time 243840, Note Name: A3
Note OFF: Time 243840, Note Name: C4
Note ON: Time 243840, Note Name: A#4, Velocity: 52
Note ON: Time 243840, Note Name: C#4, Velocity: 59
Note ON: Time 243840, Note Name: A#3, Velocity: 50
Note OFF: Time 244560, Note Name: A#4
Note ON: Time 244560, Note Name: G#4, Velocity: 52
Note OFF: Time 244800, Note Name: G#4
Note OFF: Time 244800, Note Name: A#3
Note OFF: Time 244800, Note Name: C#4
Note ON: Time 244800, Note Name: C#4, Velocity: 41
Note ON: Time 244800, Note Name: A#3, Velocity: 41
Note ON: Time 244800, Note Name: F#4, Velocity: 58
Note OFF: Time 245040, Note Name: F#4
Note ON: Time 245040, Note Name: F4, Velocity: 52
Note OFF: Time 245280, Note Name: F4
Note OFF: Time 245280, Note Name: A#3
Note OFF: Time 245280, Note Name: C#4
Note ON: Time 245280, Note Name: C#4, Velocity: 42
Note ON: Time 245280, Note Name: A#3, Velocity: 42
Note ON: Time 245280, Note Name: F#4, Velocity: 59
Note OFF: Time 245520, Note Name: F#4
Note ON: Time 245520, Note Name: E4, Velocity: 52
Note OFF: Time 245760, Note Name: E4
Note OFF: Time 245760, Note Name: A#3
Note OFF: Time 245760, Note Name: C#4
Note ON: Time 245760, Note Name: F4, Velocity: 59
Note ON: Time 245760, Note Name: C4, Velocity: 50
Note ON: Time 245760, Note Name: A3, Velocity: 50
Note OFF: Time 246480, Note Name: A3
Note OFF: Time 246480, Note Name: C4
Note OFF: Time 246480, Note Name: F4
Note ON: Time 246720, Note Name: C#4, Velocity: 37
Note ON: Time 246720, Note Name: A#3, Velocity: 37
Note ON: Time 246720, Note Name: G4, Velocity: 53
Note OFF: Time 246960, Note Name: G4
Note ON: Time 246960, Note Name: F4, Velocity: 46
Note OFF: Time 247200, Note Name: F4
Note OFF: Time 247200, Note Name: A#3
Note OFF: Time 247200, Note Name: C#4
Note ON: Time 247200, Note Name: C#4, Velocity: 36
Note ON: Time 247200, Note Name: A#3, Velocity: 36
Note ON: Time 247200, Note Name: G4, Velocity: 51
Note OFF: Time 247440, Note Name: G4
Note ON: Time 247440, Note Name: E4, Velocity: 44
Note OFF: Time 247680, Note Name: E4
Note OFF: Time 247680, Note Name: A#3
Note OFF: Time 247680, Note Name: C#4
Note ON: Time 247680, Note Name: F4, Velocity: 49
Note ON: Time 247680, Note Name: C4, Velocity: 42
Note ON: Time 247680, Note Name: A3, Velocity: 42
Note OFF: Time 248400, Note Name: A3
Note OFF: Time 248400, Note Name: C4
Note OFF: Time 248400, Note Name: F4
Note ON: Time 248640, Note Name: C#4, Velocity: 30
Note ON: Time 248640, Note Name: A#3, Velocity: 30
Note ON: Time 248640, Note Name: F#4, Velocity: 43
Note OFF: Time 248880, Note Name: F#4
Note ON: Time 248880, Note Name: F4, Velocity: 39
Note OFF: Time 249120, Note Name: F4
Note OFF: Time 249120, Note Name: A#3
Note OFF: Time 249120, Note Name: C#4
Note ON: Time 249120, Note Name: C#4, Velocity: 31
Note ON: Time 249120, Note Name: A#3, Velocity: 31
Note ON: Time 249120, Note Name: F#4, Velocity: 44
Note OFF: Time 249360, Note Name: F#4
Note ON: Time 249360, Note Name: E4, Velocity: 39
Note OFF: Time 249600, Note Name: E4
Note OFF: Time 249600, Note Name: A#3
Note OFF: Time 249600, Note Name: C#4
Note ON: Time 249600, Note Name: F3, Velocity: 74
Note ON: Time 249600, Note Name: F4, Velocity: 88
Note OFF: Time 250320, Note Name: F4
Note OFF: Time 250320, Note Name: F3
Note ON: Time 250320, Note Name: G3, Velocity: 67
Note ON: Time 250320, Note Name: G4, Velocity: 79
Note OFF: Time 250440, Note Name: G4
Note OFF: Time 250440, Note Name: G3
Note ON: Time 250560, Note Name: A3, Velocity: 74
Note ON: Time 250560, Note Name: A4, Velocity: 89
Note OFF: Time 251280, Note Name: A4
Note OFF: Time 251280, Note Name: A3
Note ON: Time 251280, Note Name: A#3, Velocity: 68
Note ON: Time 251280, Note Name: A#4, Velocity: 81
Note OFF: Time 251400, Note Name: A#4
Note OFF: Time 251400, Note Name: A#3
Note ON: Time 251520, Note Name: C4, Velocity: 77
Note ON: Time 251520, Note Name: C5, Velocity: 91
Note OFF: Time 252240, Note Name: C5
Note OFF: Time 252240, Note Name: C4
Note ON: Time 252240, Note Name: D4, Velocity: 62
Note ON: Time 252240, Note Name: D5, Velocity: 74
Note OFF: Time 252360, Note Name: D5
Note OFF: Time 252360, Note Name: D4
Note ON: Time 252480, Note Name: E4, Velocity: 71
Note ON: Time 252480, Note Name: E5, Velocity: 84
Note OFF: Time 252600, Note Name: E5
Note OFF: Time 252600, Note Name: E4
Note ON: Time 252720, Note Name: F4, Velocity: 68
Note ON: Time 252720, Note Name: F5, Velocity: 81
Note OFF: Time 252840, Note Name: F5
Note OFF: Time 252840, Note Name: F4
Note ON: Time 252960, Note Name: G4, Velocity: 74
Note ON: Time 252960, Note Name: G5, Velocity: 87
Note OFF: Time 253080, Note Name: G5
Note OFF: Time 253080, Note Name: G4
Note ON: Time 253200, Note Name: A4, Velocity: 69
Note ON: Time 253200, Note Name: A5, Velocity: 83
Note OFF: Time 253320, Note Name: A5
Note OFF: Time 253320, Note Name: A4
Note ON: Time 253440, Note Name: A#4, Velocity: 81
Note ON: Time 253440, Note Name: A#5, Velocity: 96
Note OFF: Time 254160, Note Name: A#5
Note OFF: Time 254160, Note Name: A#4
Note ON: Time 254160, Note Name: A4, Velocity: 71
Note ON: Time 254160, Note Name: A5, Velocity: 84
Note OFF: Time 254280, Note Name: A5
Note OFF: Time 254280, Note Name: A4
Note ON: Time 254400, Note Name: G4, Velocity: 78
Note ON: Time 254400, Note Name: G5, Velocity: 94
Note OFF: Time 255120, Note Name: G5
Note OFF: Time 255120, Note Name: G4
Note ON: Time 255120, Note Name: F4, Velocity: 70
Note ON: Time 255120, Note Name: F5, Velocity: 83
Note OFF: Time 255240, Note Name: F5
Note OFF: Time 255240, Note Name: F4
Note ON: Time 255360, Note Name: E4, Velocity: 78
Note ON: Time 255360, Note Name: E5, Velocity: 92
Note OFF: Time 256080, Note Name: E5
Note OFF: Time 256080, Note Name: E4
Note ON: Time 256080, Note Name: D4, Velocity: 62
Note ON: Time 256080, Note Name: D5, Velocity: 74
Note OFF: Time 256200, Note Name: D5
Note OFF: Time 256200, Note Name: D4
Note ON: Time 256320, Note Name: C4, Velocity: 70
Note ON: Time 256320, Note Name: C5, Velocity: 83
Note OFF: Time 256440, Note Name: C5
Note OFF: Time 256440, Note Name: C4
Note ON: Time 256560, Note Name: A#3, Velocity: 66
Note ON: Time 256560, Note Name: A#4, Velocity: 78
Note OFF: Time 256680, Note Name: A#4
Note OFF: Time 256680, Note Name: A#3
Note ON: Time 256800, Note Name: A3, Velocity: 70
Note ON: Time 256800, Note Name: A4, Velocity: 83
Note OFF: Time 256920, Note Name: A4
Note OFF: Time 256920, Note Name: A3
Note ON: Time 257040, Note Name: G3, Velocity: 64
Note ON: Time 257040, Note Name: G4, Velocity: 77
Note OFF: Time 257160, Note Name: G4
Note OFF: Time 257160, Note Name: G3
Note ON: Time 257280, Note Name: F3, Velocity: 78
Note ON: Time 257280, Note Name: F4, Velocity: 90
Note OFF: Time 257400, Note Name: F4
Note OFF: Time 257400, Note Name: F3
Note ON: Time 257760, Note Name: E4, Velocity: 53
Note OFF: Time 257880, Note Name: E4
Note ON: Time 257880, Note Name: D#4, Velocity: 45
Note OFF: Time 258000, Note Name: D#4
Note ON: Time 258000, Note Name: E4, Velocity: 53
Note OFF: Time 258120, Note Name: E4
Note ON: Time 258120, Note Name: C4, Velocity: 43
Note OFF: Time 258240, Note Name: C4
Note ON: Time 258240, Note Name: F4, Velocity: 57
Note OFF: Time 258360, Note Name: F4
Note ON: Time 258720, Note Name: E5, Velocity: 53
Note OFF: Time 258840, Note Name: E5
Note ON: Time 258840, Note Name: D#5, Velocity: 45
Note OFF: Time 258960, Note Name: D#5
Note ON: Time 258960, Note Name: E5, Velocity: 53
Note OFF: Time 259080, Note Name: E5
Note ON: Time 259080, Note Name: C5, Velocity: 43
Note OFF: Time 259200, Note Name: C5
Note ON: Time 259200, Note Name: F5, Velocity: 57
Note OFF: Time 259320, Note Name: F5
Note ON: Time 260160, Note Name: E6, Velocity: 91
Note ON: Time 260160, Note Name: C6, Velocity: 77
Note ON: Time 260160, Note Name: A#5, Velocity: 77
Note ON: Time 260160, Note Name: G5, Velocity: 77
Note ON: Time 260160, Note Name: E5, Velocity: 77
Note OFF: Time 260640, Note Name: E5
Note OFF: Time 260640, Note Name: A#5
Note OFF: Time 260640, Note Name: E6
Note OFF: Time 260640, Note Name: C6
Note OFF: Time 260640, Note Name: G5
Note ON: Time 261120, Note Name: F6, Velocity: 97
Note ON: Time 261120, Note Name: C6, Velocity: 82
Note ON: Time 261120, Note Name: A5, Velocity: 82
Note ON: Time 261120, Note Name: F5, Velocity: 82
Note OFF: Time 261600, Note Name: F5
Note OFF: Time 261600, Note Name: F6
Note OFF: Time 261600, Note Name: C6
Note OFF: Time 261600, Note Name: A5
Note ON: Time 262560, Note Name: C4, Velocity: 42
Note OFF: Time 262680, Note Name: C4
Note ON: Time 262680, Note Name: B3, Velocity: 40
Note OFF: Time 262800, Note Name: B3
Note ON: Time 262800, Note Name: C4, Velocity: 45
Note OFF: Time 262920, Note Name: C4
Note ON: Time 262920, Note Name: A3, Velocity: 39
Note OFF: Time 263040, Note Name: A3
Note ON: Time 263040, Note Name: F4, Velocity: 50
Note OFF: Time 263160, Note Name: F4
Note ON: Time 264480, Note Name: C4, Velocity: 42
Note OFF: Time 264600, Note Name: C4
Note ON: Time 264600, Note Name: B3, Velocity: 40
Note OFF: Time 264720, Note Name: B3
Note ON: Time 264720, Note Name: C4, Velocity: 45
Note OFF: Time 264840, Note Name: C4
Note ON: Time 264840, Note Name: A3, Velocity: 39
Note OFF: Time 264960, Note Name: A3
Note ON: Time 264960, Note Name: F4, Velocity: 50
Note OFF: Time 265080, Note Name: F4
Note ON: Time 266400, Note Name: C4, Velocity: 70
Note OFF: Time 266520, Note Name: C4
Note ON: Time 266520, Note Name: B3, Velocity: 66
Note OFF: Time 266640, Note Name: B3
Note ON: Time 266640, Note Name: C4, Velocity: 77
Note OFF: Time 266760, Note Name: C4
Note ON: Time 266760, Note Name: A3, Velocity: 71
Note OFF: Time 266880, Note Name: A3
Note ON: Time 266880, Note Name: F4, Velocity: 92
Note OFF: Time 267600, Note Name: F4
Note ON: Time 267600, Note Name: G4, Velocity: 82
Note OFF: Time 267720, Note Name: G4
Note ON: Time 267840, Note Name: A4, Velocity: 93
Note OFF: Time 268560, Note Name: A4
Note ON: Time 268560, Note Name: A#4, Velocity: 86
Note OFF: Time 268680, Note Name: A#4
Note ON: Time 268800, Note Name: C5, Velocity: 97
Note OFF: Time 269520, Note Name: C5
Note ON: Time 269520, Note Name: D5, Velocity: 82
Note OFF: Time 269640, Note Name: D5
Note ON: Time 269760, Note Name: D#5, Velocity: 90
Note OFF: Time 269880, Note Name: D#5
Note ON: Time 270000, Note Name: D5, Velocity: 85
Note OFF: Time 270120, Note Name: D5
Note ON: Time 270240, Note Name: C5, Velocity: 93
Note OFF: Time 270360, Note Name: C5
Note ON: Time 270480, Note Name: D5, Velocity: 86
Note OFF: Time 270600, Note Name: D5
Note ON: Time 270720, Note Name: D#5, Velocity: 97
Note OFF: Time 271440, Note Name: D#5
Note ON: Time 271440, Note Name: D5, Velocity: 77
Note OFF: Time 271560, Note Name: D5
Note ON: Time 271680, Note Name: C5, Velocity: 85
Note OFF: Time 271800, Note Name: C5
Note ON: Time 271920, Note Name: A#4, Velocity: 80
Note OFF: Time 272040, Note Name: A#4
Note ON: Time 272160, Note Name: A4, Velocity: 88
Note OFF: Time 272280, Note Name: A4
Note ON: Time 272400, Note Name: A#4, Velocity: 81
Note OFF: Time 272520, Note Name: A#4
Note ON: Time 272640, Note Name: C5, Velocity: 92
Note OFF: Time 273360, Note Name: C5
Note ON: Time 273360, Note Name: A#4, Velocity: 76
Note OFF: Time 273480, Note Name: A#4
Note ON: Time 273600, Note Name: A4, Velocity: 81
Note OFF: Time 273720, Note Name: A4
Note ON: Time 273840, Note Name: G4, Velocity: 74
Note OFF: Time 273960, Note Name: G4
Note ON: Time 274080, Note Name: F#4, Velocity: 79
Note OFF: Time 274200, Note Name: F#4
Note ON: Time 274320, Note Name: E4, Velocity: 71
Note OFF: Time 274440, Note Name: E4
Note ON: Time 274560, Note Name: D4, Velocity: 75
Note OFF: Time 275520, Note Name: D4
Note ON: Time 275520, Note Name: A3, Velocity: 40
Note ON: Time 275520, Note Name: C4, Velocity: 40
Note ON: Time 275520, Note Name: F#4, Velocity: 34
Note OFF: Time 276240, Note Name: F#4
Note ON: Time 276240, Note Name: D4, Velocity: 39
Note OFF: Time 276480, Note Name: D4
Note OFF: Time 276480, Note Name: C4
Note OFF: Time 276480, Note Name: A3
Note ON: Time 276480, Note Name: G3, Velocity: 39
Note ON: Time 276480, Note Name: G4, Velocity: 46
Note ON: Time 276480, Note Name: A#3, Velocity: 39
Note OFF: Time 277200, Note Name: G4
Note ON: Time 277200, Note Name: F4, Velocity: 40
Note OFF: Time 277440, Note Name: F4
Note OFF: Time 277440, Note Name: A#3
Note OFF: Time 277440, Note Name: G3
Note ON: Time 277440, Note Name: A#3, Velocity: 32
Note ON: Time 277440, Note Name: G3, Velocity: 32
Note ON: Time 277440, Note Name: D#4, Velocity: 45
Note OFF: Time 277680, Note Name: D#4
Note ON: Time 277680, Note Name: D4, Velocity: 40
Note OFF: Time 277920, Note Name: D4
Note OFF: Time 277920, Note Name: G3
Note OFF: Time 277920, Note Name: A#3
Note ON: Time 277920, Note Name: A#3, Velocity: 33
Note ON: Time 277920, Note Name: G3, Velocity: 33
Note ON: Time 277920, Note Name: D#4, Velocity: 46
Note OFF: Time 278160, Note Name: D#4
Note ON: Time 278160, Note Name: C#4, Velocity: 40
Note OFF: Time 278400, Note Name: C#4
Note OFF: Time 278400, Note Name: G3
Note OFF: Time 278400, Note Name: A#3
Note ON: Time 278400, Note Name: D4, Velocity: 46
Note ON: Time 278400, Note Name: A3, Velocity: 39
Note ON: Time 278400, Note Name: F#3, Velocity: 39
Note OFF: Time 279120, Note Name: F#3
Note OFF: Time 279120, Note Name: A3
Note OFF: Time 279120, Note Name: D4
Note ON: Time 279360, Note Name: F#5, Velocity: 41
Note ON: Time 279360, Note Name: A4, Velocity: 40
Note ON: Time 279360, Note Name: C5, Velocity: 40
Note OFF: Time 280080, Note Name: F#5
Note ON: Time 280080, Note Name: D5, Velocity: 42
Note OFF: Time 280320, Note Name: D5
Note OFF: Time 280320, Note Name: C5
Note OFF: Time 280320, Note Name: A4
Note ON: Time 280320, Note Name: G5, Velocity: 53
Note ON: Time 280320, Note Name: G4, Velocity: 39
Note ON: Time 280320, Note Name: A#4, Velocity: 39
Note OFF: Time 281040, Note Name: G5
Note ON: Time 281040, Note Name: F5, Velocity: 44
Note OFF: Time 281280, Note Name: F5
Note OFF: Time 281280, Note Name: A#4
Note OFF: Time 281280, Note Name: G4
Note ON: Time 281280, Note Name: A#4, Velocity: 32
Note ON: Time 281280, Note Name: G4, Velocity: 32
Note ON: Time 281280, Note Name: D#5, Velocity: 49
Note OFF: Time 281520, Note Name: D#5
Note ON: Time 281520, Note Name: D5, Velocity: 44
Note OFF: Time 281760, Note Name: D5
Note OFF: Time 281760, Note Name: G4
Note OFF: Time 281760, Note Name: A#4
Note ON: Time 281760, Note Name: A#4, Velocity: 33
Note ON: Time 281760, Note Name: G4, Velocity: 33
Note ON: Time 281760, Note Name: D#5, Velocity: 50
Note OFF: Time 282000, Note Name: D#5
Note ON: Time 282000, Note Name: C#5, Velocity: 44
Note OFF: Time 282240, Note Name: C#5
Note OFF: Time 282240, Note Name: G4
Note OFF: Time 282240, Note Name: A#4
Note ON: Time 282240, Note Name: D5, Velocity: 50
Note ON: Time 282240, Note Name: A4, Velocity: 39
Note ON: Time 282240, Note Name: F#4, Velocity: 39
Note OFF: Time 282960, Note Name: F#4
Note OFF: Time 282960, Note Name: A4
Note OFF: Time 282960, Note Name: D5
Note ON: Time 283200, Note Name: A#4, Velocity: 32
Note ON: Time 283200, Note Name: G4, Velocity: 32
Note ON: Time 283200, Note Name: E5, Velocity: 49
Note OFF: Time 283440, Note Name: E5
Note ON: Time 283440, Note Name: D5, Velocity: 44
Note OFF: Time 283680, Note Name: D5
Note OFF: Time 283680, Note Name: G4
Note OFF: Time 283680, Note Name: A#4
Note ON: Time 283680, Note Name: A#4, Velocity: 33
Note ON: Time 283680, Note Name: G4, Velocity: 33
Note ON: Time 283680, Note Name: E5, Velocity: 50
Note OFF: Time 283920, Note Name: E5
Note ON: Time 283920, Note Name: C#5, Velocity: 44
Note OFF: Time 284160, Note Name: C#5
Note OFF: Time 284160, Note Name: G4
Note OFF: Time 284160, Note Name: A#4
Note ON: Time 284160, Note Name: D5, Velocity: 50
Note ON: Time 284160, Note Name: A4, Velocity: 39
Note ON: Time 284160, Note Name: F#4, Velocity: 39
Note OFF: Time 284880, Note Name: F#4
Note OFF: Time 284880, Note Name: A4
Note OFF: Time 284880, Note Name: D5
Note ON: Time 285120, Note Name: A#4, Velocity: 25
Note ON: Time 285120, Note Name: G4, Velocity: 25
Note ON: Time 285120, Note Name: D#5, Velocity: 39
Note OFF: Time 285360, Note Name: D#5
Note ON: Time 285360, Note Name: D5, Velocity: 35
Note OFF: Time 285600, Note Name: D5
Note OFF: Time 285600, Note Name: G4
Note OFF: Time 285600, Note Name: A#4
Note ON: Time 285600, Note Name: A#4, Velocity: 26
Note ON: Time 285600, Note Name: G4, Velocity: 26
Note ON: Time 285600, Note Name: D#5, Velocity: 40
Note OFF: Time 285840, Note Name: D#5
Note ON: Time 285840, Note Name: C#5, Velocity: 35
Note OFF: Time 286080, Note Name: C#5
Note OFF: Time 286080, Note Name: G4
Note OFF: Time 286080, Note Name: A#4
Note ON: Time 286080, Note Name: D5, Velocity: 50
Note ON: Time 286080, Note Name: A4, Velocity: 39
Note ON: Time 286080, Note Name: F#4, Velocity: 39
Note OFF: Time 286800, Note Name: F#4
Note OFF: Time 286800, Note Name: A4
Note OFF: Time 286800, Note Name: D5
Note ON: Time 288480, Note Name: D#5, Velocity: 86
Note OFF: Time 288600, Note Name: D#5
Note ON: Time 288720, Note Name: D5, Velocity: 75
Note OFF: Time 288840, Note Name: D5
Note ON: Time 288960, Note Name: C5, Velocity: 84
Note OFF: Time 289080, Note Name: C5
Note ON: Time 289200, Note Name: A#4, Velocity: 74
Note OFF: Time 289320, Note Name: A#4
Note ON: Time 289440, Note Name: A4, Velocity: 84
Note OFF: Time 289560, Note Name: A4
Note ON: Time 289680, Note Name: G4, Velocity: 75
Note OFF: Time 289800, Note Name: G4
Note ON: Time 289920, Note Name: F#4, Velocity: 84
Note OFF: Time 290040, Note Name: F#4
Note ON: Time 290400, Note Name: A5, Velocity: 61
Note OFF: Time 290520, Note Name: A5
Note ON: Time 290520, Note Name: G#5, Velocity: 50
Note OFF: Time 290640, Note Name: G#5
Note ON: Time 290640, Note Name: A5, Velocity: 54
Note OFF: Time 290760, Note Name: A5
Note ON: Time 290760, Note Name: F#5, Velocity: 50
Note OFF: Time 290880, Note Name: F#5
Note ON: Time 290880, Note Name: C6, Velocity: 61
Note OFF: Time 291000, Note Name: C6
Note ON: Time 291000, Note Name: B5, Velocity: 50
Note OFF: Time 291120, Note Name: B5
Note ON: Time 291120, Note Name: C6, Velocity: 54
Note OFF: Time 291240, Note Name: C6
Note ON: Time 291240, Note Name: A5, Velocity: 50
Note OFF: Time 291360, Note Name: A5
Note ON: Time 291360, Note Name: D#6, Velocity: 63
Note OFF: Time 291480, Note Name: D#6
Note ON: Time 291480, Note Name: D6, Velocity: 50
Note OFF: Time 291600, Note Name: D6
Note ON: Time 291600, Note Name: C6, Velocity: 57
Note OFF: Time 291720, Note Name: C6
Note ON: Time 291720, Note Name: A#5, Velocity: 50
Note OFF: Time 291840, Note Name: A#5
Note ON: Time 291840, Note Name: A5, Velocity: 58
Note OFF: Time 291960, Note Name: A5
Note ON: Time 291960, Note Name: A#5, Velocity: 50
Note OFF: Time 292080, Note Name: A#5
Note ON: Time 292080, Note Name: C6, Velocity: 59
Note OFF: Time 292200, Note Name: C6
Note ON: Time 292200, Note Name: A#5, Velocity: 49
Note OFF: Time 292320, Note Name: A#5
Note ON: Time 292320, Note Name: A5, Velocity: 58
Note OFF: Time 292440, Note Name: A5
Note ON: Time 292440, Note Name: G5, Velocity: 50
Note OFF: Time 292560, Note Name: G5
Note ON: Time 292560, Note Name: F#5, Velocity: 55
Note OFF: Time 292680, Note Name: F#5
Note ON: Time 292680, Note Name: G5, Velocity: 50
Note OFF: Time 292800, Note Name: G5
Note ON: Time 292800, Note Name: A5, Velocity: 60
Note OFF: Time 292920, Note Name: A5
Note ON: Time 292920, Note Name: G5, Velocity: 47
Note OFF: Time 293040, Note Name: G5
Note ON: Time 293040, Note Name: F#5, Velocity: 53
Note OFF: Time 293160, Note Name: F#5
Note ON: Time 293160, Note Name: D#5, Velocity: 46
Note OFF: Time 293280, Note Name: D#5
Note ON: Time 293280, Note Name: D5, Velocity: 64
Note OFF: Time 293400, Note Name: D5
Note ON: Time 293400, Note Name: C5, Velocity: 51
Note OFF: Time 293520, Note Name: C5
Note ON: Time 293520, Note Name: B4, Velocity: 57
Note OFF: Time 293640, Note Name: B4
Note ON: Time 293640, Note Name: C5, Velocity: 52
Note OFF: Time 293760, Note Name: C5
Note ON: Time 293760, Note Name: B4, Velocity: 72
Note OFF: Time 294240, Note Name: B4
Note ON: Time 296160, Note Name: G#5, Velocity: 81
Note OFF: Time 296280, Note Name: G#5
Note ON: Time 296400, Note Name: G5, Velocity: 75
Note OFF: Time 296520, Note Name: G5
Note ON: Time 296640, Note Name: F5, Velocity: 84
Note OFF: Time 296760, Note Name: F5
Note ON: Time 296880, Note Name: D#5, Velocity: 74
Note OFF: Time 297000, Note Name: D#5
Note ON: Time 297120, Note Name: D5, Velocity: 84
Note OFF: Time 297240, Note Name: D5
Note ON: Time 297360, Note Name: C5, Velocity: 75
Note OFF: Time 297480, Note Name: C5
Note ON: Time 297600, Note Name: B4, Velocity: 84
Note OFF: Time 297720, Note Name: B4
Note ON: Time 298080, Note Name: D5, Velocity: 61
Note OFF: Time 298200, Note Name: D5
Note ON: Time 298200, Note Name: C#5, Velocity: 50
Note OFF: Time 298320, Note Name: C#5
Note ON: Time 298320, Note Name: D5, Velocity: 54
Note OFF: Time 298440, Note Name: D5
Note ON: Time 298440, Note Name: B4, Velocity: 50
Note OFF: Time 298560, Note Name: B4
Note ON: Time 298560, Note Name: F5, Velocity: 61
Note OFF: Time 298680, Note Name: F5
Note ON: Time 298680, Note Name: E5, Velocity: 50
Note OFF: Time 298800, Note Name: E5
Note ON: Time 298800, Note Name: F5, Velocity: 54
Note OFF: Time 298920, Note Name: F5
Note ON: Time 298920, Note Name: D5, Velocity: 50
Note OFF: Time 299040, Note Name: D5
Note ON: Time 299040, Note Name: G#5, Velocity: 63
Note OFF: Time 299160, Note Name: G#5
Note ON: Time 299160, Note Name: G5, Velocity: 50
Note OFF: Time 299280, Note Name: G5
Note ON: Time 299280, Note Name: F5, Velocity: 57
Note OFF: Time 299400, Note Name: F5
Note ON: Time 299400, Note Name: D#5, Velocity: 50
Note OFF: Time 299520, Note Name: D#5
Note ON: Time 299520, Note Name: D5, Velocity: 58
Note OFF: Time 299640, Note Name: D5
Note ON: Time 299640, Note Name: D#5, Velocity: 50
Note OFF: Time 299760, Note Name: D#5
Note ON: Time 299760, Note Name: F5, Velocity: 59
Note OFF: Time 299880, Note Name: F5
Note ON: Time 299880, Note Name: D#5, Velocity: 49
Note OFF: Time 300000, Note Name: D#5
Note ON: Time 300000, Note Name: D5, Velocity: 62
Note OFF: Time 300120, Note Name: D5
Note ON: Time 300120, Note Name: C5, Velocity: 50
Note OFF: Time 300240, Note Name: C5
Note ON: Time 300240, Note Name: B4, Velocity: 55
Note OFF: Time 300360, Note Name: B4
Note ON: Time 300360, Note Name: C5, Velocity: 50
Note OFF: Time 300480, Note Name: C5
Note ON: Time 300480, Note Name: D5, Velocity: 62
Note OFF: Time 300600, Note Name: D5
Note ON: Time 300600, Note Name: C5, Velocity: 51
Note OFF: Time 300720, Note Name: C5
Note ON: Time 300720, Note Name: B4, Velocity: 55
Note OFF: Time 300840, Note Name: B4
Note ON: Time 300840, Note Name: G#4, Velocity: 46
Note OFF: Time 300960, Note Name: G#4
Note ON: Time 300960, Note Name: G4, Velocity: 65
Note OFF: Time 301080, Note Name: G4
Note ON: Time 301080, Note Name: F4, Velocity: 47
Note OFF: Time 301200, Note Name: F4
Note ON: Time 301200, Note Name: E4, Velocity: 55
Note OFF: Time 301320, Note Name: E4
Note ON: Time 301320, Note Name: F4, Velocity: 50
Note OFF: Time 301440, Note Name: F4
Note ON: Time 301440, Note Name: E4, Velocity: 71
Note OFF: Time 301920, Note Name: E4
Note ON: Time 303840, Note Name: C#5, Velocity: 86
Note OFF: Time 303960, Note Name: C#5
Note ON: Time 304080, Note Name: C5, Velocity: 75
Note OFF: Time 304200, Note Name: C5
Note ON: Time 304320, Note Name: A#4, Velocity: 84
Note OFF: Time 304440, Note Name: A#4
Note ON: Time 304560, Note Name: G#4, Velocity: 74
Note OFF: Time 304680, Note Name: G#4
Note ON: Time 304800, Note Name: G4, Velocity: 84
Note OFF: Time 304920, Note Name: G4
Note ON: Time 305040, Note Name: F4, Velocity: 75
Note OFF: Time 305160, Note Name: F4
Note ON: Time 305280, Note Name: E4, Velocity: 84
Note OFF: Time 305400, Note Name: E4
Note ON: Time 305760, Note Name: G5, Velocity: 67
Note OFF: Time 305880, Note Name: G5
Note ON: Time 305880, Note Name: F#5, Velocity: 55
Note OFF: Time 306000, Note Name: F#5
Note ON: Time 306000, Note Name: G5, Velocity: 59
Note OFF: Time 306120, Note Name: G5
Note ON: Time 306120, Note Name: E5, Velocity: 55
Note OFF: Time 306240, Note Name: E5
Note ON: Time 306240, Note Name: A#5, Velocity: 67
Note OFF: Time 306360, Note Name: A#5
Note ON: Time 306360, Note Name: A5, Velocity: 55
Note OFF: Time 306480, Note Name: A5
Note ON: Time 306480, Note Name: A#5, Velocity: 59
Note OFF: Time 306600, Note Name: A#5
Note ON: Time 306600, Note Name: G5, Velocity: 55
Note OFF: Time 306720, Note Name: G5
Note ON: Time 306720, Note Name: C#6, Velocity: 69
Note OFF: Time 306840, Note Name: C#6
Note ON: Time 306840, Note Name: C6, Velocity: 55
Note OFF: Time 306960, Note Name: C6
Note ON: Time 306960, Note Name: C#6, Velocity: 62
Note OFF: Time 307080, Note Name: C#6
Note ON: Time 307080, Note Name: C6, Velocity: 55
Note OFF: Time 307200, Note Name: C6
Note ON: Time 307200, Note Name: C#6, Velocity: 73
Note OFF: Time 307320, Note Name: C#6
Note ON: Time 307320, Note Name: A#5, Velocity: 55
Note OFF: Time 307440, Note Name: A#5
Note ON: Time 307440, Note Name: G5, Velocity: 64
Note OFF: Time 307560, Note Name: G5
Note ON: Time 307560, Note Name: E5, Velocity: 53
Note OFF: Time 307680, Note Name: E5
Note ON: Time 307680, Note Name: A#5, Velocity: 71
Note OFF: Time 307800, Note Name: A#5
Note ON: Time 307800, Note Name: G5, Velocity: 55
Note OFF: Time 307920, Note Name: G5
Note ON: Time 307920, Note Name: E5, Velocity: 64
Note OFF: Time 308040, Note Name: E5
Note ON: Time 308040, Note Name: C#5, Velocity: 55
Note OFF: Time 308160, Note Name: C#5
Note ON: Time 308160, Note Name: G5, Velocity: 71
Note OFF: Time 308280, Note Name: G5
Note ON: Time 308280, Note Name: E5, Velocity: 51
Note OFF: Time 308400, Note Name: E5
Note ON: Time 308400, Note Name: C#5, Velocity: 63
Note OFF: Time 308520, Note Name: C#5
Note ON: Time 308520, Note Name: A#4, Velocity: 50
Note OFF: Time 308640, Note Name: A#4
Note ON: Time 308640, Note Name: E5, Velocity: 69
Note OFF: Time 308760, Note Name: E5
Note ON: Time 308760, Note Name: C#5, Velocity: 51
Note OFF: Time 308880, Note Name: C#5
Note ON: Time 308880, Note Name: A#4, Velocity: 60
Note OFF: Time 309000, Note Name: A#4
Note ON: Time 309000, Note Name: G4, Velocity: 50
Note OFF: Time 309120, Note Name: G4
Note ON: Time 309600, Note Name: F5, Velocity: 67
Note OFF: Time 309720, Note Name: F5
Note ON: Time 309720, Note Name: E5, Velocity: 55
Note OFF: Time 309840, Note Name: E5
Note ON: Time 309840, Note Name: F5, Velocity: 59
Note OFF: Time 309960, Note Name: F5
Note ON: Time 309960, Note Name: C5, Velocity: 55
Note OFF: Time 310080, Note Name: C5
Note ON: Time 310080, Note Name: G#5, Velocity: 67
Note OFF: Time 310200, Note Name: G#5
Note ON: Time 310200, Note Name: G5, Velocity: 55
Note OFF: Time 310320, Note Name: G5
Note ON: Time 310320, Note Name: G#5, Velocity: 59
Note OFF: Time 310440, Note Name: G#5
Note ON: Time 310440, Note Name: F5, Velocity: 55
Note OFF: Time 310560, Note Name: F5
Note ON: Time 310560, Note Name: C6, Velocity: 69
Note OFF: Time 310680, Note Name: C6
Note ON: Time 310680, Note Name: B5, Velocity: 55
Note OFF: Time 310800, Note Name: B5
Note ON: Time 310800, Note Name: C6, Velocity: 62
Note OFF: Time 310920, Note Name: C6
Note ON: Time 310920, Note Name: G#5, Velocity: 55
Note OFF: Time 311040, Note Name: G#5
Note ON: Time 311040, Note Name: F6, Velocity: 73
Note OFF: Time 311160, Note Name: F6
Note ON: Time 311160, Note Name: C6, Velocity: 55
Note OFF: Time 311280, Note Name: C6
Note ON: Time 311280, Note Name: G#5, Velocity: 64
Note OFF: Time 311400, Note Name: G#5
Note ON: Time 311400, Note Name: F5, Velocity: 53
Note OFF: Time 311520, Note Name: F5
Note ON: Time 311520, Note Name: C6, Velocity: 71
Note OFF: Time 311640, Note Name: C6
Note ON: Time 311640, Note Name: G#5, Velocity: 55
Note OFF: Time 311760, Note Name: G#5
Note ON: Time 311760, Note Name: F5, Velocity: 64
Note OFF: Time 311880, Note Name: F5
Note ON: Time 311880, Note Name: C5, Velocity: 55
Note OFF: Time 312000, Note Name: C5
Note ON: Time 312000, Note Name: G#5, Velocity: 71
Note OFF: Time 312120, Note Name: G#5
Note ON: Time 312120, Note Name: F5, Velocity: 51
Note OFF: Time 312240, Note Name: F5
Note ON: Time 312240, Note Name: C5, Velocity: 63
Note OFF: Time 312360, Note Name: C5
Note ON: Time 312360, Note Name: G#4, Velocity: 50
Note OFF: Time 312480, Note Name: G#4
Note ON: Time 312480, Note Name: F5, Velocity: 69
Note OFF: Time 312600, Note Name: F5
Note ON: Time 312600, Note Name: C5, Velocity: 51
Note OFF: Time 312720, Note Name: C5
Note ON: Time 312720, Note Name: G#4, Velocity: 60
Note OFF: Time 312840, Note Name: G#4
Note ON: Time 312840, Note Name: F4, Velocity: 50
Note OFF: Time 312960, Note Name: F4
Note ON: Time 313440, Note Name: F5, Velocity: 67
Note OFF: Time 313560, Note Name: F5
Note ON: Time 313560, Note Name: E5, Velocity: 55
Note OFF: Time 313680, Note Name: E5
Note ON: Time 313680, Note Name: F5, Velocity: 59
Note OFF: Time 313800, Note Name: F5
Note ON: Time 313800, Note Name: D5, Velocity: 55
Note OFF: Time 313920, Note Name: D5
Note ON: Time 313920, Note Name: B5, Velocity: 67
Note OFF: Time 314040, Note Name: B5
Note ON: Time 314040, Note Name: A#5, Velocity: 55
Note OFF: Time 314160, Note Name: A#5
Note ON: Time 314160, Note Name: B5, Velocity: 59
Note OFF: Time 314280, Note Name: B5
Note ON: Time 314280, Note Name: F5, Velocity: 55
Note OFF: Time 314400, Note Name: F5
Note ON: Time 314400, Note Name: D6, Velocity: 69
Note OFF: Time 314520, Note Name: D6
Note ON: Time 314520, Note Name: C#6, Velocity: 55
Note OFF: Time 314640, Note Name: C#6
Note ON: Time 314640, Note Name: D6, Velocity: 62
Note OFF: Time 314760, Note Name: D6
Note ON: Time 314760, Note Name: B5, Velocity: 55
Note OFF: Time 314880, Note Name: B5
Note ON: Time 314880, Note Name: F6, Velocity: 73
Note OFF: Time 315000, Note Name: F6
Note ON: Time 315000, Note Name: D6, Velocity: 55
Note OFF: Time 315120, Note Name: D6
Note ON: Time 315120, Note Name: B5, Velocity: 64
Note OFF: Time 315240, Note Name: B5
Note ON: Time 315240, Note Name: F5, Velocity: 53
Note OFF: Time 315360, Note Name: F5
Note ON: Time 315360, Note Name: D6, Velocity: 71
Note OFF: Time 315480, Note Name: D6
Note ON: Time 315480, Note Name: B5, Velocity: 55
Note OFF: Time 315600, Note Name: B5
Note ON: Time 315600, Note Name: F5, Velocity: 64
Note OFF: Time 315720, Note Name: F5
Note ON: Time 315720, Note Name: D5, Velocity: 55
Note OFF: Time 315840, Note Name: D5
Note ON: Time 315840, Note Name: B5, Velocity: 71
Note OFF: Time 315960, Note Name: B5
Note ON: Time 315960, Note Name: F5, Velocity: 51
Note OFF: Time 316080, Note Name: F5
Note ON: Time 316080, Note Name: D5, Velocity: 63
Note OFF: Time 316200, Note Name: D5
Note ON: Time 316200, Note Name: B4, Velocity: 50
Note OFF: Time 316320, Note Name: B4
Note ON: Time 316320, Note Name: F5, Velocity: 69
Note OFF: Time 316440, Note Name: F5
Note ON: Time 316440, Note Name: D5, Velocity: 51
Note OFF: Time 316560, Note Name: D5
Note ON: Time 316560, Note Name: B4, Velocity: 60
Note OFF: Time 316680, Note Name: B4
Note ON: Time 316680, Note Name: F4, Velocity: 50
Note OFF: Time 316800, Note Name: F4
Note ON: Time 317280, Note Name: D#5, Velocity: 67
Note OFF: Time 317400, Note Name: D#5
Note ON: Time 317400, Note Name: D5, Velocity: 54
Note OFF: Time 317520, Note Name: D5
Note ON: Time 317520, Note Name: D#5, Velocity: 58
Note OFF: Time 317640, Note Name: D#5
Note ON: Time 317640, Note Name: C5, Velocity: 54
Note OFF: Time 317760, Note Name: C5
Note ON: Time 317760, Note Name: G5, Velocity: 66
Note OFF: Time 317880, Note Name: G5
Note ON: Time 317880, Note Name: F#5, Velocity: 53
Note OFF: Time 318000, Note Name: F#5
Note ON: Time 318000, Note Name: G5, Velocity: 57
Note OFF: Time 318120, Note Name: G5
Note ON: Time 318120, Note Name: D#5, Velocity: 53
Note OFF: Time 318240, Note Name: D#5
Note ON: Time 318240, Note Name: C6, Velocity: 67
Note OFF: Time 318360, Note Name: C6
Note ON: Time 318360, Note Name: B5, Velocity: 53
Note OFF: Time 318480, Note Name: B5
Note ON: Time 318480, Note Name: C6, Velocity: 60
Note OFF: Time 318600, Note Name: C6
Note ON: Time 318600, Note Name: G5, Velocity: 53
Note OFF: Time 318720, Note Name: G5
Note ON: Time 318720, Note Name: D#6, Velocity: 70
Note OFF: Time 318840, Note Name: D#6
Note ON: Time 318840, Note Name: C6, Velocity: 53
Note OFF: Time 318960, Note Name: C6
Note ON: Time 318960, Note Name: A5, Velocity: 61
Note OFF: Time 319080, Note Name: A5
Note ON: Time 319080, Note Name: D#5, Velocity: 50
Note OFF: Time 319200, Note Name: D#5
Note ON: Time 319200, Note Name: C6, Velocity: 68
Note OFF: Time 319320, Note Name: C6
Note ON: Time 319320, Note Name: A5, Velocity: 52
Note OFF: Time 319440, Note Name: A5
Note ON: Time 319440, Note Name: D#5, Velocity: 60
Note OFF: Time 319560, Note Name: D#5
Note ON: Time 319560, Note Name: C5, Velocity: 52
Note OFF: Time 319680, Note Name: C5
Note ON: Time 319680, Note Name: A5, Velocity: 67
Note OFF: Time 319800, Note Name: A5
Note ON: Time 319800, Note Name: D#5, Velocity: 48
Note OFF: Time 319920, Note Name: D#5
Note ON: Time 319920, Note Name: C5, Velocity: 59
Note OFF: Time 320040, Note Name: C5
Note ON: Time 320040, Note Name: A4, Velocity: 47
Note OFF: Time 320160, Note Name: A4
Note ON: Time 320160, Note Name: D#5, Velocity: 64
Note OFF: Time 320280, Note Name: D#5
Note ON: Time 320280, Note Name: C5, Velocity: 47
Note OFF: Time 320400, Note Name: C5
Note ON: Time 320400, Note Name: A4, Velocity: 55
Note OFF: Time 320520, Note Name: A4
Note ON: Time 320520, Note Name: D#4, Velocity: 46
Note OFF: Time 320640, Note Name: D#4
Note ON: Time 321120, Note Name: D#5, Velocity: 61
Note OFF: Time 321240, Note Name: D#5
Note ON: Time 321240, Note Name: D5, Velocity: 50
Note OFF: Time 321360, Note Name: D5
Note ON: Time 321360, Note Name: D#5, Velocity: 54
Note OFF: Time 321480, Note Name: D#5
Note ON: Time 321480, Note Name: C5, Velocity: 50
Note OFF: Time 321600, Note Name: C5
Note ON: Time 321600, Note Name: A5, Velocity: 60
Note OFF: Time 321720, Note Name: A5
Note ON: Time 321720, Note Name: G#5, Velocity: 50
Note OFF: Time 321840, Note Name: G#5
Note ON: Time 321840, Note Name: A5, Velocity: 53
Note OFF: Time 321960, Note Name: A5
Note ON: Time 321960, Note Name: D#5, Velocity: 49
Note OFF: Time 322080, Note Name: D#5
Note ON: Time 322080, Note Name: C6, Velocity: 62
Note OFF: Time 322200, Note Name: C6
Note ON: Time 322200, Note Name: B5, Velocity: 49
Note OFF: Time 322320, Note Name: B5
Note ON: Time 322320, Note Name: C6, Velocity: 55
Note OFF: Time 322440, Note Name: C6
Note ON: Time 322440, Note Name: A5, Velocity: 48
Note OFF: Time 322560, Note Name: A5
Note ON: Time 322560, Note Name: D#6, Velocity: 64
Note OFF: Time 322680, Note Name: D#6
Note ON: Time 322680, Note Name: C6, Velocity: 48
Note OFF: Time 322800, Note Name: C6
Note ON: Time 322800, Note Name: A5, Velocity: 56
Note OFF: Time 322920, Note Name: A5
Note ON: Time 322920, Note Name: D#5, Velocity: 47
Note OFF: Time 323040, Note Name: D#5
Note ON: Time 323040, Note Name: C6, Velocity: 62
Note OFF: Time 323160, Note Name: C6
Note ON: Time 323160, Note Name: A5, Velocity: 48
Note OFF: Time 323280, Note Name: A5
Note ON: Time 323280, Note Name: D#5, Velocity: 56
Note OFF: Time 323400, Note Name: D#5
Note ON: Time 323400, Note Name: C5, Velocity: 48
Note OFF: Time 323520, Note Name: C5
Note ON: Time 323520, Note Name: A5, Velocity: 61
Note OFF: Time 323640, Note Name: A5
Note ON: Time 323640, Note Name: D#5, Velocity: 44
Note OFF: Time 323760, Note Name: D#5
Note ON: Time 323760, Note Name: C5, Velocity: 54
Note OFF: Time 323880, Note Name: C5
Note ON: Time 323880, Note Name: A4, Velocity: 43
Note OFF: Time 324000, Note Name: A4
Note ON: Time 324000, Note Name: D#5, Velocity: 59
Note OFF: Time 324120, Note Name: D#5
Note ON: Time 324120, Note Name: C5, Velocity: 43
Note OFF: Time 324240, Note Name: C5
Note ON: Time 324240, Note Name: A4, Velocity: 51
Note OFF: Time 324360, Note Name: A4
Note ON: Time 324360, Note Name: D#4, Velocity: 43
Note OFF: Time 324480, Note Name: D#4
Note ON: Time 324960, Note Name: C#5, Velocity: 56
Note OFF: Time 325080, Note Name: C#5
Note ON: Time 325080, Note Name: C5, Velocity: 46
Note OFF: Time 325200, Note Name: C5
Note ON: Time 325200, Note Name: C#5, Velocity: 49
Note OFF: Time 325320, Note Name: C#5
Note ON: Time 325320, Note Name: A#4, Velocity: 46
Note OFF: Time 325440, Note Name: A#4
Note ON: Time 325440, Note Name: F5, Velocity: 56
Note OFF: Time 325560, Note Name: F5
Note ON: Time 325560, Note Name: E5, Velocity: 45
Note OFF: Time 325680, Note Name: E5
Note ON: Time 325680, Note Name: F5, Velocity: 48
Note OFF: Time 325800, Note Name: F5
Note ON: Time 325800, Note Name: C#5, Velocity: 45
Note OFF: Time 325920, Note Name: C#5
Note ON: Time 325920, Note Name: A#5, Velocity: 57
Note OFF: Time 326040, Note Name: A#5
Note ON: Time 326040, Note Name: A5, Velocity: 45
Note OFF: Time 326160, Note Name: A5
Note ON: Time 326160, Note Name: A#5, Velocity: 50
Note OFF: Time 326280, Note Name: A#5
Note ON: Time 326280, Note Name: F5, Velocity: 45
Note OFF: Time 326400, Note Name: F5
Note ON: Time 326400, Note Name: C#6, Velocity: 59
Note OFF: Time 326520, Note Name: C#6
Note ON: Time 326520, Note Name: A#5, Velocity: 44
Note OFF: Time 326640, Note Name: A#5
Note ON: Time 326640, Note Name: G5, Velocity: 51
Note OFF: Time 326760, Note Name: G5
Note ON: Time 326760, Note Name: C#5, Velocity: 42
Note OFF: Time 326880, Note Name: C#5
Note ON: Time 326880, Note Name: A#5, Velocity: 57
Note OFF: Time 327000, Note Name: A#5
Note ON: Time 327000, Note Name: G5, Velocity: 44
Note OFF: Time 327120, Note Name: G5
Note ON: Time 327120, Note Name: C#5, Velocity: 51
Note OFF: Time 327240, Note Name: C#5
Note ON: Time 327240, Note Name: A#4, Velocity: 44
Note OFF: Time 327360, Note Name: A#4
Note ON: Time 327360, Note Name: G5, Velocity: 56
Note OFF: Time 327480, Note Name: G5
Note ON: Time 327480, Note Name: C#5, Velocity: 40
Note OFF: Time 327600, Note Name: C#5
Note ON: Time 327600, Note Name: A#4, Velocity: 49
Note OFF: Time 327720, Note Name: A#4
Note ON: Time 327720, Note Name: G4, Velocity: 39
Note OFF: Time 327840, Note Name: G4
Note ON: Time 327840, Note Name: C#5, Velocity: 54
Note OFF: Time 327960, Note Name: C#5
Note ON: Time 327960, Note Name: A#4, Velocity: 40
Note OFF: Time 328080, Note Name: A#4
Note ON: Time 328080, Note Name: G4, Velocity: 46
Note OFF: Time 328200, Note Name: G4
Note ON: Time 328200, Note Name: C#4, Velocity: 39
Note OFF: Time 328320, Note Name: C#4
Note ON: Time 328800, Note Name: C#5, Velocity: 51
Note OFF: Time 328920, Note Name: C#5
Note ON: Time 328920, Note Name: C5, Velocity: 42
Note OFF: Time 329040, Note Name: C5
Note ON: Time 329040, Note Name: C#5, Velocity: 45
Note OFF: Time 329160, Note Name: C#5
Note ON: Time 329160, Note Name: A#4, Velocity: 41
Note OFF: Time 329280, Note Name: A#4
Note ON: Time 329280, Note Name: G5, Velocity: 50
Note OFF: Time 329400, Note Name: G5
Note ON: Time 329400, Note Name: F#5, Velocity: 41
Note OFF: Time 329520, Note Name: F#5
Note ON: Time 329520, Note Name: G5, Velocity: 44
Note OFF: Time 329640, Note Name: G5
Note ON: Time 329640, Note Name: C#5, Velocity: 41
Note OFF: Time 329760, Note Name: C#5
Note ON: Time 329760, Note Name: A#5, Velocity: 51
Note OFF: Time 329880, Note Name: A#5
Note ON: Time 329880, Note Name: A5, Velocity: 41
Note OFF: Time 330000, Note Name: A5
Note ON: Time 330000, Note Name: A#5, Velocity: 46
Note OFF: Time 330120, Note Name: A#5
Note ON: Time 330120, Note Name: G5, Velocity: 40
Note OFF: Time 330240, Note Name: G5
Note ON: Time 330240, Note Name: C#6, Velocity: 54
Note OFF: Time 330360, Note Name: C#6
Note ON: Time 330360, Note Name: A#5, Velocity: 40
Note OFF: Time 330480, Note Name: A#5
Note ON: Time 330480, Note Name: G5, Velocity: 47
Note OFF: Time 330600, Note Name: G5
Note ON: Time 330600, Note Name: C#5, Velocity: 38
Note OFF: Time 330720, Note Name: C#5
Note ON: Time 330720, Note Name: A#5, Velocity: 51
Note OFF: Time 330840, Note Name: A#5
Note ON: Time 330840, Note Name: G5, Velocity: 40
Note OFF: Time 330960, Note Name: G5
Note ON: Time 330960, Note Name: C#5, Velocity: 46
Note OFF: Time 331080, Note Name: C#5
Note ON: Time 331080, Note Name: A#4, Velocity: 40
Note OFF: Time 331200, Note Name: A#4
Note ON: Time 331200, Note Name: G5, Velocity: 51
Note OFF: Time 331320, Note Name: G5
Note ON: Time 331320, Note Name: C#5, Velocity: 36
Note OFF: Time 331440, Note Name: C#5
Note ON: Time 331440, Note Name: A#4, Velocity: 45
Note OFF: Time 331560, Note Name: A#4
Note ON: Time 331560, Note Name: G4, Velocity: 36
Note OFF: Time 331680, Note Name: G4
Note ON: Time 331680, Note Name: C#5, Velocity: 48
Note OFF: Time 331800, Note Name: C#5
Note ON: Time 331800, Note Name: A#4, Velocity: 36
Note OFF: Time 331920, Note Name: A#4
Note ON: Time 331920, Note Name: G4, Velocity: 42
Note OFF: Time 332040, Note Name: G4
Note ON: Time 332040, Note Name: C#4, Velocity: 35
Note OFF: Time 332160, Note Name: C#4
Note ON: Time 332160, Note Name: A#4, Velocity: 37
Note OFF: Time 332280, Note Name: A#4
Note ON: Time 332280, Note Name: G4, Velocity: 28
Note OFF: Time 332400, Note Name: G4
Note ON: Time 332400, Note Name: C#4, Velocity: 28
Note OFF: Time 332520, Note Name: C#4
Note ON: Time 332520, Note Name: A#3, Velocity: 28
Note OFF: Time 332640, Note Name: A#3
Note ON: Time 332640, Note Name: G4, Velocity: 35
Note OFF: Time 332760, Note Name: G4
Note ON: Time 332760, Note Name: C#4, Velocity: 28
Note OFF: Time 332880, Note Name: C#4
Note ON: Time 332880, Note Name: A#3, Velocity: 28
Note OFF: Time 333000, Note Name: A#3
Note ON: Time 333000, Note Name: G3, Velocity: 28
Note OFF: Time 333120, Note Name: G3
Note ON: Time 333120, Note Name: D#4, Velocity: 34
Note OFF: Time 333240, Note Name: D#4
Note ON: Time 333240, Note Name: C#4, Velocity: 29
Note OFF: Time 333360, Note Name: C#4
Note ON: Time 333360, Note Name: A#3, Velocity: 29
Note OFF: Time 333480, Note Name: A#3
Note ON: Time 333480, Note Name: G3, Velocity: 28
Note OFF: Time 333600, Note Name: G3
Note ON: Time 333600, Note Name: D#4, Velocity: 34
Note OFF: Time 333720, Note Name: D#4
Note ON: Time 333720, Note Name: C#4, Velocity: 28
Note OFF: Time 333840, Note Name: C#4
Note ON: Time 333840, Note Name: A#3, Velocity: 28
Note OFF: Time 333960, Note Name: A#3
Note ON: Time 333960, Note Name: G3, Velocity: 28
Note OFF: Time 334080, Note Name: G3
Note ON: Time 334080, Note Name: D#4, Velocity: 37
Note OFF: Time 334200, Note Name: D#4
Note ON: Time 334200, Note Name: C#4, Velocity: 28
Note OFF: Time 334320, Note Name: C#4
Note ON: Time 334320, Note Name: A#3, Velocity: 28
Note OFF: Time 334440, Note Name: A#3
Note ON: Time 334440, Note Name: G3, Velocity: 28
Note OFF: Time 334560, Note Name: G3
Note ON: Time 334560, Note Name: D#4, Velocity: 35
Note OFF: Time 334680, Note Name: D#4
Note ON: Time 334680, Note Name: C#4, Velocity: 28
Note OFF: Time 334800, Note Name: C#4
Note ON: Time 334800, Note Name: A#3, Velocity: 28
Note OFF: Time 334920, Note Name: A#3
Note ON: Time 334920, Note Name: G3, Velocity: 28
Note OFF: Time 335040, Note Name: G3
Note ON: Time 335040, Note Name: D#4, Velocity: 34
Note OFF: Time 335160, Note Name: D#4
Note ON: Time 335160, Note Name: C#4, Velocity: 29
Note OFF: Time 335280, Note Name: C#4
Note ON: Time 335280, Note Name: A#3, Velocity: 29
Note OFF: Time 335400, Note Name: A#3
Note ON: Time 335400, Note Name: G3, Velocity: 28
Note OFF: Time 335520, Note Name: G3
Note ON: Time 335520, Note Name: D#4, Velocity: 34
Note OFF: Time 335640, Note Name: D#4
Note ON: Time 335640, Note Name: C#4, Velocity: 28
Note OFF: Time 335760, Note Name: C#4
Note ON: Time 335760, Note Name: A#3, Velocity: 28
Note OFF: Time 335880, Note Name: A#3
Note ON: Time 335880, Note Name: G3, Velocity: 28
Note OFF: Time 336000, Note Name: G3
Note ON: Time 336000, Note Name: D#4, Velocity: 37
Note OFF: Time 336120, Note Name: D#4
Note ON: Time 336120, Note Name: C#4, Velocity: 28
Note OFF: Time 336240, Note Name: C#4
Note ON: Time 336240, Note Name: A#3, Velocity: 28
Note OFF: Time 336360, Note Name: A#3
Note ON: Time 336360, Note Name: G3, Velocity: 28
Note OFF: Time 336480, Note Name: G3
Note ON: Time 336480, Note Name: D#4, Velocity: 35
Note OFF: Time 336600, Note Name: D#4
Note ON: Time 336600, Note Name: C#4, Velocity: 28
Note OFF: Time 336720, Note Name: C#4
Note ON: Time 336720, Note Name: A#3, Velocity: 28
Note OFF: Time 336840, Note Name: A#3
Note ON: Time 336840, Note Name: G3, Velocity: 28
Note OFF: Time 336960, Note Name: G3
Note ON: Time 336960, Note Name: D#4, Velocity: 34
Note OFF: Time 337080, Note Name: D#4
Note ON: Time 337080, Note Name: C#4, Velocity: 29
Note OFF: Time 337200, Note Name: C#4
Note ON: Time 337200, Note Name: A#3, Velocity: 29
Note OFF: Time 337320, Note Name: A#3
Note ON: Time 337320, Note Name: G3, Velocity: 28
Note OFF: Time 337440, Note Name: G3
Note ON: Time 337440, Note Name: D#4, Velocity: 34
Note OFF: Time 337560, Note Name: D#4
Note ON: Time 337560, Note Name: C#4, Velocity: 28
Note OFF: Time 337680, Note Name: C#4
Note ON: Time 337680, Note Name: A#3, Velocity: 28
Note OFF: Time 337800, Note Name: A#3
Note ON: Time 337800, Note Name: G3, Velocity: 28
Note OFF: Time 337920, Note Name: G3
Note ON: Time 337920, Note Name: D#4, Velocity: 37
Note OFF: Time 338040, Note Name: D#4
Note ON: Time 338040, Note Name: C#4, Velocity: 27
Note OFF: Time 338160, Note Name: C#4
Note ON: Time 338160, Note Name: A#3, Velocity: 27
Note OFF: Time 338280, Note Name: A#3
Note ON: Time 338280, Note Name: G3, Velocity: 27
Note OFF: Time 338400, Note Name: G3
Note ON: Time 338400, Note Name: D#4, Velocity: 32
Note OFF: Time 338520, Note Name: D#4
Note ON: Time 338520, Note Name: C#4, Velocity: 25
Note OFF: Time 338640, Note Name: C#4
Note ON: Time 338640, Note Name: A#3, Velocity: 24
Note OFF: Time 338760, Note Name: A#3
Note ON: Time 338760, Note Name: G3, Velocity: 24
Note OFF: Time 338880, Note Name: G3
Note ON: Time 338880, Note Name: D#4, Velocity: 32
Note OFF: Time 339000, Note Name: D#4
Note ON: Time 339000, Note Name: C#4, Velocity: 23
Note OFF: Time 339120, Note Name: C#4
Note ON: Time 339120, Note Name: A#3, Velocity: 23
Note OFF: Time 339240, Note Name: A#3
Note ON: Time 339240, Note Name: G3, Velocity: 21
Note OFF: Time 339360, Note Name: G3
Note ON: Time 339360, Note Name: D#4, Velocity: 27
Note OFF: Time 339480, Note Name: D#4
Note ON: Time 339480, Note Name: C#4, Velocity: 20
Note OFF: Time 339600, Note Name: C#4
Note ON: Time 339600, Note Name: A#3, Velocity: 20
Note OFF: Time 339720, Note Name: A#3
Note ON: Time 339720, Note Name: G3, Velocity: 19
Note OFF: Time 339840, Note Name: G3
Note ON: Time 339840, Note Name: E4, Velocity: 29
Note OFF: Time 339960, Note Name: E4
Note ON: Time 339960, Note Name: C#4, Velocity: 22
Note OFF: Time 340080, Note Name: C#4
Note ON: Time 340080, Note Name: A#3, Velocity: 22
Note OFF: Time 340200, Note Name: A#3
Note ON: Time 340200, Note Name: G3, Velocity: 22
Note OFF: Time 340320, Note Name: G3
Note ON: Time 340320, Note Name: E4, Velocity: 27
Note OFF: Time 340440, Note Name: E4
Note ON: Time 340440, Note Name: C#4, Velocity: 22
Note OFF: Time 340560, Note Name: C#4
Note ON: Time 340560, Note Name: A#3, Velocity: 22
Note OFF: Time 340680, Note Name: A#3
Note ON: Time 340680, Note Name: G3, Velocity: 22
Note OFF: Time 340800, Note Name: G3
Note ON: Time 340800, Note Name: E4, Velocity: 27
Note OFF: Time 340920, Note Name: E4
Note ON: Time 340920, Note Name: C#4, Velocity: 23
Note OFF: Time 341040, Note Name: C#4
Note ON: Time 341040, Note Name: A#3, Velocity: 23
Note OFF: Time 341160, Note Name: A#3
Note ON: Time 341160, Note Name: G3, Velocity: 22
Note OFF: Time 341280, Note Name: G3
Note ON: Time 341280, Note Name: E4, Velocity: 27
Note OFF: Time 341400, Note Name: E4
Note ON: Time 341400, Note Name: C#4, Velocity: 22
Note OFF: Time 341520, Note Name: C#4
Note ON: Time 341520, Note Name: A#3, Velocity: 22
Note OFF: Time 341640, Note Name: A#3
Note ON: Time 341640, Note Name: G3, Velocity: 22
Note OFF: Time 341760, Note Name: G3
Note ON: Time 341760, Note Name: E4, Velocity: 29
Note OFF: Time 341880, Note Name: E4
Note ON: Time 341880, Note Name: C#4, Velocity: 22
Note OFF: Time 342000, Note Name: C#4
Note ON: Time 342000, Note Name: A#3, Velocity: 22
Note OFF: Time 342120, Note Name: A#3
Note ON: Time 342120, Note Name: G3, Velocity: 22
Note OFF: Time 342240, Note Name: G3
Note ON: Time 342240, Note Name: E4, Velocity: 27
Note OFF: Time 342360, Note Name: E4
Note ON: Time 342360, Note Name: C#4, Velocity: 22
Note OFF: Time 342480, Note Name: C#4
Note ON: Time 342480, Note Name: A#3, Velocity: 22
Note OFF: Time 342600, Note Name: A#3
Note ON: Time 342600, Note Name: G3, Velocity: 22
Note OFF: Time 342720, Note Name: G3
Note ON: Time 342720, Note Name: E4, Velocity: 27
Note OFF: Time 342840, Note Name: E4
Note ON: Time 342840, Note Name: C#4, Velocity: 23
Note OFF: Time 342960, Note Name: C#4
Note ON: Time 342960, Note Name: A#3, Velocity: 23
Note OFF: Time 343080, Note Name: A#3
Note ON: Time 343080, Note Name: G3, Velocity: 22
Note OFF: Time 343200, Note Name: G3
Note ON: Time 343200, Note Name: E4, Velocity: 27
Note OFF: Time 343320, Note Name: E4
Note ON: Time 343320, Note Name: C#4, Velocity: 22
Note OFF: Time 343440, Note Name: C#4
Note ON: Time 343440, Note Name: A#3, Velocity: 22
Note OFF: Time 343560, Note Name: A#3
Note ON: Time 343560, Note Name: G3, Velocity: 22
Note OFF: Time 343680, Note Name: G3
Note ON: Time 343680, Note Name: E4, Velocity: 29
Note OFF: Time 343800, Note Name: E4
Note ON: Time 343800, Note Name: C#4, Velocity: 22
Note OFF: Time 343920, Note Name: C#4
Note ON: Time 343920, Note Name: A#3, Velocity: 22
Note OFF: Time 344040, Note Name: A#3
Note ON: Time 344040, Note Name: G3, Velocity: 22
Note OFF: Time 344160, Note Name: G3
Note ON: Time 344160, Note Name: E4, Velocity: 27
Note OFF: Time 344280, Note Name: E4
Note ON: Time 344280, Note Name: C#4, Velocity: 22
Note OFF: Time 344400, Note Name: C#4
Note ON: Time 344400, Note Name: A#3, Velocity: 22
Note OFF: Time 344520, Note Name: A#3
Note ON: Time 344520, Note Name: G3, Velocity: 22
Note OFF: Time 344640, Note Name: G3
Note ON: Time 344640, Note Name: E4, Velocity: 27
Note OFF: Time 344760, Note Name: E4
Note ON: Time 344760, Note Name: C#4, Velocity: 23
Note OFF: Time 344880, Note Name: C#4
Note ON: Time 344880, Note Name: A#3, Velocity: 23
Note OFF: Time 345000, Note Name: A#3
Note ON: Time 345000, Note Name: G3, Velocity: 22
Note OFF: Time 345120, Note Name: G3
Note ON: Time 345120, Note Name: E4, Velocity: 27
Note OFF: Time 345240, Note Name: E4
Note ON: Time 345240, Note Name: C#4, Velocity: 22
Note OFF: Time 345360, Note Name: C#4
Note ON: Time 345360, Note Name: A#3, Velocity: 22
Note OFF: Time 345480, Note Name: A#3
Note ON: Time 345480, Note Name: G3, Velocity: 22
Note OFF: Time 345600, Note Name: G3
Note ON: Time 345600, Note Name: E4, Velocity: 29
Note OFF: Time 345720, Note Name: E4
Note ON: Time 345720, Note Name: C#4, Velocity: 22
Note OFF: Time 345840, Note Name: C#4
Note ON: Time 345840, Note Name: A#3, Velocity: 22
Note OFF: Time 345960, Note Name: A#3
Note ON: Time 345960, Note Name: G3, Velocity: 22
Note OFF: Time 346080, Note Name: G3
Note ON: Time 346080, Note Name: E4, Velocity: 27
Note OFF: Time 346200, Note Name: E4
Note ON: Time 346200, Note Name: C#4, Velocity: 22
Note OFF: Time 346320, Note Name: C#4
Note ON: Time 346320, Note Name: A#3, Velocity: 22
Note OFF: Time 346440, Note Name: A#3
Note ON: Time 346440, Note Name: G3, Velocity: 22
Note OFF: Time 346560, Note Name: G3
Note ON: Time 346560, Note Name: E4, Velocity: 27
Note OFF: Time 346680, Note Name: E4
Note ON: Time 346680, Note Name: C#4, Velocity: 23
Note OFF: Time 346800, Note Name: C#4
Note ON: Time 346800, Note Name: A#3, Velocity: 23
Note OFF: Time 346920, Note Name: A#3
Note ON: Time 346920, Note Name: G3, Velocity: 22
Note OFF: Time 347040, Note Name: G3
Note ON: Time 347040, Note Name: E4, Velocity: 27
Note OFF: Time 347160, Note Name: E4
Note ON: Time 347160, Note Name: C#4, Velocity: 22
Note OFF: Time 347280, Note Name: C#4
Note ON: Time 347280, Note Name: A#3, Velocity: 22
Note OFF: Time 347400, Note Name: A#3
Note ON: Time 347400, Note Name: G3, Velocity: 22
Note OFF: Time 347520, Note Name: G3
Note ON: Time 347520, Note Name: D#4, Velocity: 29
Note OFF: Time 347640, Note Name: D#4
Note ON: Time 347640, Note Name: C4, Velocity: 22
Note OFF: Time 347760, Note Name: C4
Note ON: Time 347760, Note Name: A3, Velocity: 22
Note OFF: Time 347880, Note Name: A3
Note ON: Time 347880, Note Name: F#3, Velocity: 22
Note OFF: Time 348000, Note Name: F#3
Note ON: Time 348000, Note Name: D#4, Velocity: 27
Note OFF: Time 348120, Note Name: D#4
Note ON: Time 348120, Note Name: C4, Velocity: 22
Note OFF: Time 348240, Note Name: C4
Note ON: Time 348240, Note Name: A3, Velocity: 22
Note OFF: Time 348360, Note Name: A3
Note ON: Time 348360, Note Name: F#3, Velocity: 22
Note OFF: Time 348480, Note Name: F#3
Note ON: Time 348480, Note Name: D#4, Velocity: 27
Note OFF: Time 348600, Note Name: D#4
Note ON: Time 348600, Note Name: C4, Velocity: 23
Note OFF: Time 348720, Note Name: C4
Note ON: Time 348720, Note Name: A3, Velocity: 23
Note OFF: Time 348840, Note Name: A3
Note ON: Time 348840, Note Name: F#3, Velocity: 22
Note OFF: Time 348960, Note Name: F#3
Note ON: Time 348960, Note Name: D#4, Velocity: 27
Note OFF: Time 349080, Note Name: D#4
Note ON: Time 349080, Note Name: C4, Velocity: 22
Note OFF: Time 349200, Note Name: C4
Note ON: Time 349200, Note Name: A3, Velocity: 22
Note OFF: Time 349320, Note Name: A3
Note ON: Time 349320, Note Name: F#3, Velocity: 22
Note OFF: Time 349440, Note Name: F#3
Note ON: Time 349440, Note Name: D#4, Velocity: 29
Note OFF: Time 349560, Note Name: D#4
Note ON: Time 349560, Note Name: C4, Velocity: 22
Note OFF: Time 349680, Note Name: C4
Note ON: Time 349680, Note Name: A3, Velocity: 22
Note OFF: Time 349800, Note Name: A3
Note ON: Time 349800, Note Name: F#3, Velocity: 22
Note OFF: Time 349920, Note Name: F#3
Note ON: Time 349920, Note Name: D#4, Velocity: 27
Note OFF: Time 350040, Note Name: D#4
Note ON: Time 350040, Note Name: C4, Velocity: 22
Note OFF: Time 350160, Note Name: C4
Note ON: Time 350160, Note Name: A3, Velocity: 22
Note OFF: Time 350280, Note Name: A3
Note ON: Time 350280, Note Name: F#3, Velocity: 22
Note OFF: Time 350400, Note Name: F#3
Note ON: Time 350400, Note Name: D#4, Velocity: 27
Note OFF: Time 350520, Note Name: D#4
Note ON: Time 350520, Note Name: C4, Velocity: 23
Note OFF: Time 350640, Note Name: C4
Note ON: Time 350640, Note Name: A3, Velocity: 23
Note OFF: Time 350760, Note Name: A3
Note ON: Time 350760, Note Name: F#3, Velocity: 22
Note OFF: Time 350880, Note Name: F#3
Note ON: Time 350880, Note Name: D#4, Velocity: 27
Note OFF: Time 351000, Note Name: D#4
Note ON: Time 351000, Note Name: C4, Velocity: 22
Note OFF: Time 351120, Note Name: C4
Note ON: Time 351120, Note Name: A3, Velocity: 22
Note OFF: Time 351240, Note Name: A3
Note ON: Time 351240, Note Name: F#3, Velocity: 22
Note OFF: Time 351360, Note Name: F#3
Note ON: Time 351360, Note Name: D#4, Velocity: 29
Note OFF: Time 351480, Note Name: D#4
Note ON: Time 351480, Note Name: C4, Velocity: 22
Note OFF: Time 351600, Note Name: C4
Note ON: Time 351600, Note Name: A3, Velocity: 22
Note OFF: Time 351720, Note Name: A3
Note ON: Time 351720, Note Name: F#3, Velocity: 22
Note OFF: Time 351840, Note Name: F#3
Note ON: Time 351840, Note Name: D#4, Velocity: 27
Note OFF: Time 351960, Note Name: D#4
Note ON: Time 351960, Note Name: C4, Velocity: 22
Note OFF: Time 352080, Note Name: C4
Note ON: Time 352080, Note Name: A3, Velocity: 22
Note OFF: Time 352200, Note Name: A3
Note ON: Time 352200, Note Name: F#3, Velocity: 22
Note OFF: Time 352320, Note Name: F#3
Note ON: Time 352320, Note Name: D#4, Velocity: 27
Note OFF: Time 352440, Note Name: D#4
Note ON: Time 352440, Note Name: C4, Velocity: 23
Note OFF: Time 352560, Note Name: C4
Note ON: Time 352560, Note Name: A3, Velocity: 23
Note OFF: Time 352680, Note Name: A3
Note ON: Time 352680, Note Name: F#3, Velocity: 22
Note OFF: Time 352800, Note Name: F#3
Note ON: Time 352800, Note Name: D#4, Velocity: 27
Note OFF: Time 352920, Note Name: D#4
Note ON: Time 352920, Note Name: C4, Velocity: 22
Note OFF: Time 353040, Note Name: C4
Note ON: Time 353040, Note Name: A3, Velocity: 22
Note OFF: Time 353160, Note Name: A3
Note ON: Time 353160, Note Name: F#3, Velocity: 22
Note OFF: Time 353280, Note Name: F#3
Note ON: Time 353280, Note Name: D#4, Velocity: 29
Note OFF: Time 353400, Note Name: D#4
Note ON: Time 353400, Note Name: C4, Velocity: 22
Note OFF: Time 353520, Note Name: C4
Note ON: Time 353520, Note Name: A3, Velocity: 22
Note OFF: Time 353640, Note Name: A3
Note ON: Time 353640, Note Name: F#3, Velocity: 22
Note OFF: Time 353760, Note Name: F#3
Note ON: Time 353760, Note Name: D#4, Velocity: 27
Note OFF: Time 353880, Note Name: D#4
Note ON: Time 353880, Note Name: C4, Velocity: 22
Note OFF: Time 354000, Note Name: C4
Note ON: Time 354000, Note Name: A3, Velocity: 22
Note OFF: Time 354120, Note Name: A3
Note ON: Time 354120, Note Name: F#3, Velocity: 22
Note OFF: Time 354240, Note Name: F#3
Note ON: Time 354240, Note Name: D#4, Velocity: 27
Note OFF: Time 354360, Note Name: D#4
Note ON: Time 354360, Note Name: C4, Velocity: 23
Note OFF: Time 354480, Note Name: C4
Note ON: Time 354480, Note Name: A3, Velocity: 23
Note OFF: Time 354600, Note Name: A3
Note ON: Time 354600, Note Name: F3, Velocity: 22
Note OFF: Time 354720, Note Name: F3
Note ON: Time 354720, Note Name: D#4, Velocity: 27
Note OFF: Time 354840, Note Name: D#4
Note ON: Time 354840, Note Name: C4, Velocity: 22
Note OFF: Time 354960, Note Name: C4
Note ON: Time 354960, Note Name: A3, Velocity: 22
Note OFF: Time 355080, Note Name: A3
Note ON: Time 355080, Note Name: F3, Velocity: 22
Note OFF: Time 355200, Note Name: F3
Note ON: Time 355200, Note Name: D#4, Velocity: 29
Note OFF: Time 355320, Note Name: D#4
Note ON: Time 355320, Note Name: C4, Velocity: 22
Note OFF: Time 355440, Note Name: C4
Note ON: Time 355440, Note Name: A3, Velocity: 22
Note OFF: Time 355560, Note Name: A3
Note ON: Time 355560, Note Name: F3, Velocity: 22
Note OFF: Time 355680, Note Name: F3
Note ON: Time 355680, Note Name: D#4, Velocity: 27
Note OFF: Time 355800, Note Name: D#4
Note ON: Time 355800, Note Name: C4, Velocity: 22
Note OFF: Time 355920, Note Name: C4
Note ON: Time 355920, Note Name: A3, Velocity: 22
Note OFF: Time 356040, Note Name: A3
Note ON: Time 356040, Note Name: F3, Velocity: 22
Note OFF: Time 356160, Note Name: F3
Note ON: Time 356160, Note Name: D#4, Velocity: 27
Note OFF: Time 356280, Note Name: D#4
Note ON: Time 356280, Note Name: C4, Velocity: 23
Note OFF: Time 356400, Note Name: C4
Note ON: Time 356400, Note Name: A3, Velocity: 23
Note OFF: Time 356520, Note Name: A3
Note ON: Time 356520, Note Name: F3, Velocity: 22
Note OFF: Time 356640, Note Name: F3
Note ON: Time 356640, Note Name: D#4, Velocity: 27
Note OFF: Time 356760, Note Name: D#4
Note ON: Time 356760, Note Name: C4, Velocity: 22
Note OFF: Time 356880, Note Name: C4
Note ON: Time 356880, Note Name: A3, Velocity: 22
Note OFF: Time 357000, Note Name: A3
Note ON: Time 357000, Note Name: F3, Velocity: 22
Note OFF: Time 357120, Note Name: F3
Note ON: Time 357120, Note Name: D#4, Velocity: 29
Note OFF: Time 357240, Note Name: D#4
Note ON: Time 357240, Note Name: C4, Velocity: 22
Note OFF: Time 357360, Note Name: C4
Note ON: Time 357360, Note Name: A3, Velocity: 22
Note OFF: Time 357480, Note Name: A3
Note ON: Time 357480, Note Name: F3, Velocity: 22
Note OFF: Time 357600, Note Name: F3
Note ON: Time 357600, Note Name: D#4, Velocity: 27
Note OFF: Time 357720, Note Name: D#4
Note ON: Time 357720, Note Name: C4, Velocity: 22
Note OFF: Time 357840, Note Name: C4
Note ON: Time 357840, Note Name: A3, Velocity: 22
Note OFF: Time 357960, Note Name: A3
Note ON: Time 357960, Note Name: F3, Velocity: 22
Note OFF: Time 358080, Note Name: F3
Note ON: Time 358080, Note Name: D#4, Velocity: 27
Note OFF: Time 358200, Note Name: D#4
Note ON: Time 358200, Note Name: C4, Velocity: 23
Note OFF: Time 358320, Note Name: C4
Note ON: Time 358320, Note Name: A3, Velocity: 23
Note OFF: Time 358440, Note Name: A3
Note ON: Time 358440, Note Name: F3, Velocity: 22
Note OFF: Time 358560, Note Name: F3
Note ON: Time 358560, Note Name: D#4, Velocity: 27
Note OFF: Time 358680, Note Name: D#4
Note ON: Time 358680, Note Name: C4, Velocity: 22
Note OFF: Time 358800, Note Name: C4
Note ON: Time 358800, Note Name: A3, Velocity: 22
Note OFF: Time 358920, Note Name: A3
Note ON: Time 358920, Note Name: F3, Velocity: 22
Note OFF: Time 359040, Note Name: F3
Note ON: Time 359040, Note Name: D#4, Velocity: 29
Note OFF: Time 359160, Note Name: D#4
Note ON: Time 359160, Note Name: C4, Velocity: 22
Note OFF: Time 359280, Note Name: C4
Note ON: Time 359280, Note Name: A3, Velocity: 22
Note OFF: Time 359400, Note Name: A3
Note ON: Time 359400, Note Name: F3, Velocity: 22
Note OFF: Time 359520, Note Name: F3
Note ON: Time 359520, Note Name: D#4, Velocity: 28
Note OFF: Time 359640, Note Name: D#4
Note ON: Time 359640, Note Name: C4, Velocity: 23
Note OFF: Time 359760, Note Name: C4
Note ON: Time 359760, Note Name: A3, Velocity: 23
Note OFF: Time 359880, Note Name: A3
Note ON: Time 359880, Note Name: F3, Velocity: 23
Note OFF: Time 360000, Note Name: F3
Note ON: Time 360000, Note Name: D#4, Velocity: 28
Note OFF: Time 360120, Note Name: D#4
Note ON: Time 360120, Note Name: C4, Velocity: 24
Note OFF: Time 360240, Note Name: C4
Note ON: Time 360240, Note Name: A3, Velocity: 24
Note OFF: Time 360360, Note Name: A3
Note ON: Time 360360, Note Name: F3, Velocity: 24
Note OFF: Time 360480, Note Name: F3
Note ON: Time 360480, Note Name: D#4, Velocity: 29
Note OFF: Time 360600, Note Name: D#4
Note ON: Time 360600, Note Name: C4, Velocity: 24
Note OFF: Time 360720, Note Name: C4
Note ON: Time 360720, Note Name: A3, Velocity: 24
Note OFF: Time 360840, Note Name: A3
Note ON: Time 360840, Note Name: F3, Velocity: 24
Note OFF: Time 360960, Note Name: F3
Note ON: Time 360960, Note Name: D#4, Velocity: 33
Note OFF: Time 361080, Note Name: D#4
Note ON: Time 361080, Note Name: C4, Velocity: 25
Note OFF: Time 361200, Note Name: C4
Note ON: Time 361200, Note Name: A3, Velocity: 25
Note OFF: Time 361320, Note Name: A3
Note ON: Time 361320, Note Name: F3, Velocity: 25
Note OFF: Time 361440, Note Name: F3
Note ON: Time 361440, Note Name: D#4, Velocity: 32
Note OFF: Time 361560, Note Name: D#4
Note ON: Time 361560, Note Name: C4, Velocity: 26
Note OFF: Time 361680, Note Name: C4
Note ON: Time 361680, Note Name: A3, Velocity: 26
Note OFF: Time 361800, Note Name: A3
Note ON: Time 361800, Note Name: F3, Velocity: 26
Note OFF: Time 361920, Note Name: F3
Note ON: Time 361920, Note Name: D#4, Velocity: 32
Note OFF: Time 362040, Note Name: D#4
Note ON: Time 362040, Note Name: C4, Velocity: 28
Note OFF: Time 362160, Note Name: C4
Note ON: Time 362160, Note Name: A3, Velocity: 28
Note OFF: Time 362280, Note Name: A3
Note ON: Time 362280, Note Name: F3, Velocity: 27
Note OFF: Time 362400, Note Name: F3
Note ON: Time 362400, Note Name: D#4, Velocity: 33
Note OFF: Time 362520, Note Name: D#4
Note ON: Time 362520, Note Name: C4, Velocity: 28
Note OFF: Time 362640, Note Name: C4
Note ON: Time 362640, Note Name: A3, Velocity: 28
Note OFF: Time 362760, Note Name: A3
Note ON: Time 362760, Note Name: F3, Velocity: 28
Note OFF: Time 362880, Note Name: F3
Note ON: Time 362880, Note Name: D#4, Velocity: 38
Note OFF: Time 363000, Note Name: D#4
Note ON: Time 363000, Note Name: C4, Velocity: 29
Note OFF: Time 363120, Note Name: C4
Note ON: Time 363120, Note Name: A3, Velocity: 29
Note OFF: Time 363240, Note Name: A3
Note ON: Time 363240, Note Name: F3, Velocity: 29
Note OFF: Time 363360, Note Name: F3
Note ON: Time 363360, Note Name: D#4, Velocity: 37
Note OFF: Time 363480, Note Name: D#4
Note ON: Time 363480, Note Name: C4, Velocity: 30
Note OFF: Time 363600, Note Name: C4
Note ON: Time 363600, Note Name: A3, Velocity: 30
Note OFF: Time 363720, Note Name: A3
Note ON: Time 363720, Note Name: F3, Velocity: 30
Note OFF: Time 363840, Note Name: F3
Note ON: Time 363840, Note Name: D#4, Velocity: 37
Note OFF: Time 363960, Note Name: D#4
Note ON: Time 363960, Note Name: C4, Velocity: 32
Note OFF: Time 364080, Note Name: C4
Note ON: Time 364080, Note Name: A3, Velocity: 33
Note OFF: Time 364200, Note Name: A3
Note ON: Time 364200, Note Name: F3, Velocity: 32
Note OFF: Time 364320, Note Name: F3
Note ON: Time 364320, Note Name: D#4, Velocity: 38
Note OFF: Time 364440, Note Name: D#4
Note ON: Time 364440, Note Name: C4, Velocity: 32
Note OFF: Time 364560, Note Name: C4
Note ON: Time 364560, Note Name: A3, Velocity: 33
Note OFF: Time 364680, Note Name: A3
Note ON: Time 364680, Note Name: F3, Velocity: 33
Note OFF: Time 364800, Note Name: F3
Note ON: Time 364800, Note Name: D#4, Velocity: 44
Note OFF: Time 364920, Note Name: D#4
Note ON: Time 364920, Note Name: C4, Velocity: 33
Note OFF: Time 365040, Note Name: C4
Note ON: Time 365040, Note Name: A3, Velocity: 34
Note OFF: Time 365160, Note Name: A3
Note ON: Time 365160, Note Name: F3, Velocity: 34
Note OFF: Time 365280, Note Name: F3
Note ON: Time 365280, Note Name: D#4, Velocity: 43
Note OFF: Time 365400, Note Name: D#4
Note ON: Time 365400, Note Name: C4, Velocity: 36
Note OFF: Time 365520, Note Name: C4
Note ON: Time 365520, Note Name: A3, Velocity: 39
Note OFF: Time 365640, Note Name: A3
Note ON: Time 365640, Note Name: F3, Velocity: 41
Note OFF: Time 365760, Note Name: F3
Note ON: Time 365760, Note Name: D#4, Velocity: 53
Note OFF: Time 365880, Note Name: D#4
Note ON: Time 365880, Note Name: C4, Velocity: 43
Note OFF: Time 366000, Note Name: C4
Note ON: Time 366000, Note Name: A3, Velocity: 44
Note OFF: Time 366120, Note Name: A3
Note ON: Time 366120, Note Name: F3, Velocity: 44
Note OFF: Time 366240, Note Name: F3
Note ON: Time 366240, Note Name: D#4, Velocity: 55
Note OFF: Time 366360, Note Name: D#4
Note ON: Time 366360, Note Name: C4, Velocity: 45
Note OFF: Time 366480, Note Name: C4
Note ON: Time 366480, Note Name: A3, Velocity: 45
Note OFF: Time 366600, Note Name: A3
Note ON: Time 366600, Note Name: F3, Velocity: 45
Note OFF: Time 366720, Note Name: F3
Note ON: Time 366720, Note Name: D#4, Velocity: 56
Note OFF: Time 366840, Note Name: D#4
Note ON: Time 366840, Note Name: C4, Velocity: 46
Note OFF: Time 366960, Note Name: C4
Note ON: Time 366960, Note Name: A3, Velocity: 46
Note OFF: Time 367080, Note Name: A3
Note ON: Time 367080, Note Name: F3, Velocity: 46
Note OFF: Time 367200, Note Name: F3
Note ON: Time 367200, Note Name: D#4, Velocity: 57
Note OFF: Time 367320, Note Name: D#4
Note ON: Time 367320, Note Name: C4, Velocity: 47
Note OFF: Time 367440, Note Name: C4
Note ON: Time 367440, Note Name: A3, Velocity: 47
Note OFF: Time 367560, Note Name: A3
Note ON: Time 367560, Note Name: F3, Velocity: 47
Note OFF: Time 367680, Note Name: F3
Note ON: Time 367680, Note Name: D#4, Velocity: 59
Note OFF: Time 367800, Note Name: D#4
Note ON: Time 367800, Note Name: C4, Velocity: 48
Note OFF: Time 367920, Note Name: C4
Note ON: Time 367920, Note Name: A3, Velocity: 48
Note OFF: Time 368040, Note Name: A3
Note ON: Time 368040, Note Name: F3, Velocity: 49
Note OFF: Time 368160, Note Name: F3
Note ON: Time 368160, Note Name: D#4, Velocity: 60
Note OFF: Time 368280, Note Name: D#4
Note ON: Time 368280, Note Name: C4, Velocity: 49
Note OFF: Time 368400, Note Name: C4
Note ON: Time 368400, Note Name: A3, Velocity: 49
Note OFF: Time 368520, Note Name: A3
Note ON: Time 368520, Note Name: F3, Velocity: 50
Note OFF: Time 368640, Note Name: F3
Note ON: Time 368880, Note Name: E3, Velocity: 54
Note ON: Time 369120, Note Name: F3, Velocity: 44
Note OFF: Time 369132, Note Name: E3
Note ON: Time 369360, Note Name: G3, Velocity: 44
Note OFF: Time 369372, Note Name: F3
Note ON: Time 369600, Note Name: A3, Velocity: 53
Note OFF: Time 369612, Note Name: G3
Note ON: Time 369840, Note Name: A#3, Velocity: 40
Note OFF: Time 369852, Note Name: A3
Note ON: Time 370080, Note Name: C4, Velocity: 40
Note OFF: Time 370092, Note Name: A#3
Note ON: Time 370320, Note Name: D4, Velocity: 40
Note OFF: Time 370332, Note Name: C4
Note ON: Time 370560, Note Name: D#4, Velocity: 52
Note OFF: Time 370572, Note Name: D4
Note ON: Time 370800, Note Name: E4, Velocity: 45
Note OFF: Time 370812, Note Name: D#4
Note ON: Time 371040, Note Name: F4, Velocity: 43
Note OFF: Time 371052, Note Name: E4
Note ON: Time 371280, Note Name: G4, Velocity: 41
Note OFF: Time 371292, Note Name: F4
Note ON: Time 371520, Note Name: A4, Velocity: 45
Note OFF: Time 371532, Note Name: G4
Note ON: Time 371760, Note Name: A#4, Velocity: 41
Note OFF: Time 371772, Note Name: A4
Note ON: Time 372000, Note Name: C5, Velocity: 38
Note OFF: Time 372012, Note Name: A#4
Note ON: Time 372240, Note Name: D5, Velocity: 38
Note OFF: Time 372252, Note Name: C5
Note ON: Time 372480, Note Name: D#4, Velocity: 38
Note ON: Time 372480, Note Name: C5, Velocity: 38
Note ON: Time 372480, Note Name: D#5, Velocity: 45
Note OFF: Time 372492, Note Name: D5
Note OFF: Time 375600, Note Name: D#4
Note OFF: Time 375600, Note Name: C5
Note OFF: Time 375600, Note Name: D#5
Note ON: Time 375840, Note Name: A#3, Velocity: 42
Note ON: Time 375840, Note Name: D4, Velocity: 50
Note OFF: Time 375960, Note Name: A#3
Note ON: Time 375960, Note Name: A3, Velocity: 40
Note OFF: Time 376080, Note Name: A3
Note ON: Time 376080, Note Name: A#3, Velocity: 45
Note OFF: Time 376200, Note Name: A#3
Note ON: Time 376200, Note Name: F3, Velocity: 39
Note OFF: Time 376320, Note Name: F3
Note OFF: Time 376320, Note Name: D4
Note ON: Time 376320, Note Name: D4, Velocity: 35
Note ON: Time 376320, Note Name: F4, Velocity: 42
Note OFF: Time 376410, Note Name: F4
Note OFF: Time 376410, Note Name: D4
Note ON: Time 376800, Note Name: A#3, Velocity: 32
Note ON: Time 376800, Note Name: D4, Velocity: 38
Note OFF: Time 376890, Note Name: D4
Note OFF: Time 376890, Note Name: A#3
Note ON: Time 377760, Note Name: A#3, Velocity: 42
Note ON: Time 377760, Note Name: D4, Velocity: 50
Note OFF: Time 377880, Note Name: A#3
Note ON: Time 377880, Note Name: A3, Velocity: 40
Note OFF: Time 378000, Note Name: A3
Note ON: Time 378000, Note Name: A#3, Velocity: 45
Note OFF: Time 378120, Note Name: A#3
Note ON: Time 378120, Note Name: F3, Velocity: 39
Note OFF: Time 378240, Note Name: F3
Note OFF: Time 378240, Note Name: D4
Note ON: Time 378240, Note Name: D4, Velocity: 35
Note ON: Time 378240, Note Name: F4, Velocity: 42
Note OFF: Time 378330, Note Name: F4
Note OFF: Time 378330, Note Name: D4
Note ON: Time 378720, Note Name: A#3, Velocity: 32
Note ON: Time 378720, Note Name: D4, Velocity: 38
Note OFF: Time 378810, Note Name: D4
Note OFF: Time 378810, Note Name: A#3
Note ON: Time 379680, Note Name: D4, Velocity: 50
Note ON: Time 379680, Note Name: A#3, Velocity: 42
Note ON: Time 379800, Note Name: A3, Velocity: 40
Note OFF: Time 379812, Note Name: A#3
Note OFF: Time 379920, Note Name: D4
Note ON: Time 379920, Note Name: A#3, Velocity: 46
Note OFF: Time 379932, Note Name: A3
Note ON: Time 380040, Note Name: F3, Velocity: 40
Note OFF: Time 380052, Note Name: A#3
Note OFF: Time 380160, Note Name: F3
Note ON: Time 380160, Note Name: F4, Velocity: 53
Note ON: Time 380160, Note Name: D4, Velocity: 44
Note ON: Time 380280, Note Name: C#4, Velocity: 42
Note OFF: Time 380292, Note Name: D4
Note OFF: Time 380400, Note Name: F4
Note ON: Time 380400, Note Name: D4, Velocity: 49
Note OFF: Time 380412, Note Name: C#4
Note ON: Time 380520, Note Name: A#3, Velocity: 42
Note OFF: Time 380532, Note Name: D4
Note OFF: Time 380640, Note Name: A#3
Note ON: Time 380640, Note Name: F4, Velocity: 47
Note ON: Time 380640, Note Name: A#4, Velocity: 56
Note ON: Time 380760, Note Name: E4, Velocity: 45
Note OFF: Time 380772, Note Name: F4
Note OFF: Time 380880, Note Name: A#4
Note ON: Time 380880, Note Name: F4, Velocity: 51
Note OFF: Time 380892, Note Name: E4
Note ON: Time 381000, Note Name: D4, Velocity: 45
Note OFF: Time 381012, Note Name: F4
Note OFF: Time 381120, Note Name: D4
Note ON: Time 381120, Note Name: A#4, Velocity: 49
Note ON: Time 381120, Note Name: D5, Velocity: 59
Note ON: Time 381240, Note Name: A4, Velocity: 47
Note OFF: Time 381252, Note Name: A#4
Note OFF: Time 381360, Note Name: D5
Note ON: Time 381360, Note Name: A#4, Velocity: 54
Note OFF: Time 381372, Note Name: A4
Note ON: Time 381480, Note Name: F4, Velocity: 47
Note OFF: Time 381492, Note Name: A#4
Note OFF: Time 381600, Note Name: F4
Note ON: Time 381600, Note Name: D5, Velocity: 52
Note ON: Time 381600, Note Name: F5, Velocity: 62
Note ON: Time 381720, Note Name: C#5, Velocity: 50
Note OFF: Time 381732, Note Name: D5
Note OFF: Time 381840, Note Name: F5
Note ON: Time 381840, Note Name: D5, Velocity: 57
Note OFF: Time 381852, Note Name: C#5
Note ON: Time 381960, Note Name: A#4, Velocity: 49
Note OFF: Time 381972, Note Name: D5
Note OFF: Time 382080, Note Name: A#4
Note ON: Time 382080, Note Name: A#5, Velocity: 72
Note OFF: Time 383520, Note Name: A#5
Note ON: Time 383520, Note Name: A5, Velocity: 60
Note OFF: Time 383640, Note Name: A5
Note ON: Time 383640, Note Name: A#5, Velocity: 57
Note OFF: Time 383760, Note Name: A#5
Note ON: Time 383760, Note Name: C6, Velocity: 60
Note OFF: Time 383880, Note Name: C6
Note ON: Time 383880, Note Name: A#5, Velocity: 54
Note OFF: Time 384000, Note Name: A#5
Note ON: Time 384000, Note Name: A5, Velocity: 60
Note OFF: Time 384240, Note Name: A5
Note ON: Time 384240, Note Name: G5, Velocity: 51
Note OFF: Time 384480, Note Name: G5
Note ON: Time 384480, Note Name: F5, Velocity: 54
Note OFF: Time 384720, Note Name: F5
Note ON: Time 384720, Note Name: D#5, Velocity: 50
Note OFF: Time 384960, Note Name: D#5
Note ON: Time 384960, Note Name: D5, Velocity: 59
Note OFF: Time 385200, Note Name: D5
Note ON: Time 385200, Note Name: C5, Velocity: 48
Note OFF: Time 385440, Note Name: C5
Note ON: Time 385440, Note Name: G5, Velocity: 56
Note OFF: Time 385680, Note Name: G5
Note ON: Time 385680, Note Name: F5, Velocity: 47
Note OFF: Time 385920, Note Name: F5
Note ON: Time 385920, Note Name: D#5, Velocity: 54
Note OFF: Time 386400, Note Name: D#5
Note ON: Time 386400, Note Name: D5, Velocity: 47
Note OFF: Time 386880, Note Name: D5
Note ON: Time 387360, Note Name: A4, Velocity: 58
Note OFF: Time 387480, Note Name: A4
Note ON: Time 387480, Note Name: A#4, Velocity: 54
Note OFF: Time 387600, Note Name: A#4
Note ON: Time 387600, Note Name: C5, Velocity: 58
Note OFF: Time 387720, Note Name: C5
Note ON: Time 387720, Note Name: A#4, Velocity: 54
Note OFF: Time 387840, Note Name: A#4
Note ON: Time 387840, Note Name: G#4, Velocity: 60
Note OFF: Time 388080, Note Name: G#4
Note ON: Time 388080, Note Name: G4, Velocity: 54
Note OFF: Time 388320, Note Name: G4
Note ON: Time 388320, Note Name: F4, Velocity: 66
Note OFF: Time 388560, Note Name: F4
Note ON: Time 388560, Note Name: D#4, Velocity: 61
Note OFF: Time 388800, Note Name: D#4
Note ON: Time 388800, Note Name: D4, Velocity: 69
Note OFF: Time 389040, Note Name: D4
Note ON: Time 389040, Note Name: C4, Velocity: 62
Note OFF: Time 389280, Note Name: C4
Note ON: Time 389280, Note Name: D#4, Velocity: 73
Note OFF: Time 389520, Note Name: D#4
Note ON: Time 389520, Note Name: A3, Velocity: 63
Note OFF: Time 389760, Note Name: A3
Note ON: Time 389760, Note Name: A#3, Velocity: 79
Note OFF: Time 389880, Note Name: A#3
Note ON: Time 390000, Note Name: D4, Velocity: 68
Note OFF: Time 390120, Note Name: D4
Note ON: Time 390120, Note Name: C4, Velocity: 65
Note OFF: Time 390240, Note Name: C4
Note ON: Time 390240, Note Name: A#3, Velocity: 71
Note OFF: Time 390360, Note Name: A#3
Note ON: Time 390360, Note Name: A3, Velocity: 65
Note OFF: Time 390480, Note Name: A3
Note ON: Time 390480, Note Name: A#3, Velocity: 71
Note OFF: Time 390600, Note Name: A#3
Note ON: Time 390600, Note Name: G3, Velocity: 65
Note OFF: Time 390720, Note Name: G3
Note ON: Time 390720, Note Name: F3, Velocity: 79
Note OFF: Time 390840, Note Name: F3
Note ON: Time 390960, Note Name: G4, Velocity: 68
Note OFF: Time 391080, Note Name: G4
Note ON: Time 391080, Note Name: F4, Velocity: 65
Note OFF: Time 391200, Note Name: F4
Note ON: Time 391200, Note Name: D#4, Velocity: 71
Note OFF: Time 391320, Note Name: D#4
Note ON: Time 391320, Note Name: D4, Velocity: 65
Note OFF: Time 391440, Note Name: D4
Note ON: Time 391440, Note Name: D#4, Velocity: 71
Note OFF: Time 391560, Note Name: D#4
Note ON: Time 391560, Note Name: C4, Velocity: 65
Note OFF: Time 391680, Note Name: C4
Note ON: Time 391680, Note Name: A#3, Velocity: 79
Note OFF: Time 391800, Note Name: A#3
Note ON: Time 391920, Note Name: D5, Velocity: 68
Note OFF: Time 392040, Note Name: D5
Note ON: Time 392040, Note Name: C5, Velocity: 65
Note OFF: Time 392160, Note Name: C5
Note ON: Time 392160, Note Name: A#4, Velocity: 71
Note OFF: Time 392280, Note Name: A#4
Note ON: Time 392280, Note Name: A4, Velocity: 65
Note OFF: Time 392400, Note Name: A4
Note ON: Time 392400, Note Name: A#4, Velocity: 71
Note OFF: Time 392520, Note Name: A#4
Note ON: Time 392520, Note Name: G4, Velocity: 65
Note OFF: Time 392640, Note Name: G4
Note ON: Time 392640, Note Name: F4, Velocity: 79
Note OFF: Time 392760, Note Name: F4
Note ON: Time 392880, Note Name: G5, Velocity: 78
Note OFF: Time 393000, Note Name: G5
Note ON: Time 393000, Note Name: F5, Velocity: 74
Note OFF: Time 393120, Note Name: F5
Note ON: Time 393120, Note Name: D#5, Velocity: 81
Note OFF: Time 393240, Note Name: D#5
Note ON: Time 393240, Note Name: D5, Velocity: 74
Note OFF: Time 393360, Note Name: D5
Note ON: Time 393360, Note Name: D#5, Velocity: 81
Note OFF: Time 393480, Note Name: D#5
Note ON: Time 393480, Note Name: C5, Velocity: 74
Note OFF: Time 393600, Note Name: C5
Note ON: Time 393600, Note Name: A#4, Velocity: 90
Note OFF: Time 393720, Note Name: A#4
Note ON: Time 393840, Note Name: C5, Velocity: 68
Note OFF: Time 393960, Note Name: C5
Note ON: Time 393960, Note Name: D5, Velocity: 68
Note OFF: Time 394080, Note Name: D5
Note ON: Time 394080, Note Name: D#5, Velocity: 77
Note OFF: Time 394200, Note Name: D#5
Note ON: Time 394200, Note Name: F5, Velocity: 70
Note OFF: Time 394320, Note Name: F5
Note ON: Time 394320, Note Name: G5, Velocity: 70
Note OFF: Time 394440, Note Name: G5
Note ON: Time 394440, Note Name: A5, Velocity: 71
Note OFF: Time 394560, Note Name: A5
Note ON: Time 394560, Note Name: A#5, Velocity: 73
Note OFF: Time 394590, Note Name: A#5
Note ON: Time 394590, Note Name: C6, Velocity: 65
Note OFF: Time 394620, Note Name: C6
Note ON: Time 394620, Note Name: A#5, Velocity: 81
Note OFF: Time 394680, Note Name: A#5
Note ON: Time 394680, Note Name: A5, Velocity: 72
Note OFF: Time 394800, Note Name: A5
Note ON: Time 394800, Note Name: A#5, Velocity: 73
Note OFF: Time 394920, Note Name: A#5
Note ON: Time 394920, Note Name: C6, Velocity: 74
Note OFF: Time 395040, Note Name: C6
Note ON: Time 395040, Note Name: D6, Velocity: 74
Note OFF: Time 395070, Note Name: D6
Note ON: Time 395070, Note Name: D#6, Velocity: 66
Note OFF: Time 395100, Note Name: D#6
Note ON: Time 395100, Note Name: D6, Velocity: 83
Note ON: Time 395160, Note Name: C6, Velocity: 75
Note OFF: Time 395220, Note Name: D6
Note OFF: Time 395280, Note Name: C6
Note ON: Time 395280, Note Name: D6, Velocity: 76
Note OFF: Time 395400, Note Name: D6
Note ON: Time 395400, Note Name: E6, Velocity: 76
Note OFF: Time 395520, Note Name: E6
Note ON: Time 395520, Note Name: F6, Velocity: 94
Note OFF: Time 395640, Note Name: F6
Note ON: Time 396000, Note Name: F4, Velocity: 79
Note OFF: Time 396120, Note Name: F4
Note ON: Time 397920, Note Name: D4, Velocity: 54
Note ON: Time 397920, Note Name: F4, Velocity: 65
Note OFF: Time 398040, Note Name: D4
Note ON: Time 398040, Note Name: C#4, Velocity: 52
Note OFF: Time 398160, Note Name: C#4
Note ON: Time 398160, Note Name: D4, Velocity: 58
Note OFF: Time 398280, Note Name: D4
Note ON: Time 398280, Note Name: A#3, Velocity: 50
Note OFF: Time 398400, Note Name: A#3
Note OFF: Time 398400, Note Name: F4
Note ON: Time 398400, Note Name: F4, Velocity: 65
Note ON: Time 398400, Note Name: D5, Velocity: 65
Note OFF: Time 398520, Note Name: D5
Note OFF: Time 398520, Note Name: F4
Note ON: Time 398880, Note Name: D4, Velocity: 58
Note ON: Time 398880, Note Name: A#4, Velocity: 58
Note OFF: Time 399000, Note Name: A#4
Note OFF: Time 399000, Note Name: D4
Note ON: Time 399840, Note Name: D4, Velocity: 54
Note ON: Time 399840, Note Name: F4, Velocity: 65
Note OFF: Time 399960, Note Name: D4
Note ON: Time 399960, Note Name: C#4, Velocity: 52
Note OFF: Time 400080, Note Name: C#4
Note ON: Time 400080, Note Name: D4, Velocity: 58
Note OFF: Time 400200, Note Name: D4
Note ON: Time 400200, Note Name: A#3, Velocity: 50
Note OFF: Time 400320, Note Name: A#3
Note OFF: Time 400320, Note Name: F4
Note ON: Time 400320, Note Name: F4, Velocity: 65
Note ON: Time 400320, Note Name: D5, Velocity: 65
Note OFF: Time 400440, Note Name: D5
Note OFF: Time 400440, Note Name: F4
Note ON: Time 400800, Note Name: D4, Velocity: 58
Note ON: Time 400800, Note Name: A#4, Velocity: 58
Note OFF: Time 400920, Note Name: A#4
Note OFF: Time 400920, Note Name: D4
Note ON: Time 404160, Note Name: G#5, Velocity: 75
Note ON: Time 405120, Note Name: D5, Velocity: 56
Note ON: Time 405600, Note Name: G5, Velocity: 53
Note OFF: Time 406080, Note Name: D5
Note OFF: Time 406080, Note Name: G#5
Note ON: Time 406080, Note Name: D#5, Velocity: 44
Note OFF: Time 406560, Note Name: D#5
Note OFF: Time 406560, Note Name: G5
Note ON: Time 406560, Note Name: C5, Velocity: 41
Note ON: Time 406560, Note Name: F5, Velocity: 49
Note OFF: Time 407040, Note Name: C5
Note ON: Time 407040, Note Name: D5, Velocity: 55
Note OFF: Time 407520, Note Name: D5
Note OFF: Time 407520, Note Name: F5
Note ON: Time 407520, Note Name: B4, Velocity: 41
Note ON: Time 407520, Note Name: D#5, Velocity: 49
Note OFF: Time 408000, Note Name: B4
Note ON: Time 408000, Note Name: C5, Velocity: 55
Note OFF: Time 408480, Note Name: C5
Note OFF: Time 408480, Note Name: D#5
Note ON: Time 408480, Note Name: A4, Velocity: 42
Note ON: Time 408480, Note Name: D5, Velocity: 50
Note OFF: Time 408960, Note Name: A4
Note ON: Time 408960, Note Name: A#4, Velocity: 55
Note OFF: Time 409440, Note Name: A#4
Note OFF: Time 409440, Note Name: D5
Note ON: Time 409440, Note Name: G4, Velocity: 41
Note ON: Time 409440, Note Name: C5, Velocity: 49
Note OFF: Time 409920, Note Name: G4
Note ON: Time 409920, Note Name: G#4, Velocity: 55
Note OFF: Time 410400, Note Name: G#4
Note OFF: Time 410400, Note Name: C5
Note ON: Time 410400, Note Name: F4, Velocity: 42
Note ON: Time 410400, Note Name: A#4, Velocity: 50
Note OFF: Time 410880, Note Name: F4
Note ON: Time 410880, Note Name: G4, Velocity: 55
Note OFF: Time 411360, Note Name: G4
Note OFF: Time 411360, Note Name: A#4
Note ON: Time 411360, Note Name: D#4, Velocity: 41
Note ON: Time 411360, Note Name: A4, Velocity: 49
Note OFF: Time 411840, Note Name: A4
Note OFF: Time 411840, Note Name: D#4
Note ON: Time 411840, Note Name: A#4, Velocity: 50
Note ON: Time 411840, Note Name: D4, Velocity: 55
Note OFF: Time 412310, Note Name: D4
Note OFF: Time 412320, Note Name: A#4
Note ON: Time 412320, Note Name: A#3, Velocity: 42
Note ON: Time 412320, Note Name: D4, Velocity: 42
Note OFF: Time 412800, Note Name: D4
Note OFF: Time 412800, Note Name: A#3
Note ON: Time 412800, Note Name: A3, Velocity: 60
Note ON: Time 412800, Note Name: C4, Velocity: 68
Note OFF: Time 413040, Note Name: C4
Note OFF: Time 413040, Note Name: A3
Note ON: Time 413040, Note Name: F4, Velocity: 62
Note OFF: Time 413160, Note Name: F4
Note ON: Time 413160, Note Name: A3, Velocity: 33
Note ON: Time 413160, Note Name: C4, Velocity: 39
Note OFF: Time 413280, Note Name: C4
Note OFF: Time 413280, Note Name: A3
Note ON: Time 413280, Note Name: F4, Velocity: 64
Note OFF: Time 413400, Note Name: F4
Note ON: Time 413400, Note Name: A3, Velocity: 34
Note ON: Time 413400, Note Name: C4, Velocity: 41
Note OFF: Time 413520, Note Name: C4
Note OFF: Time 413520, Note Name: A3
Note ON: Time 413520, Note Name: G4, Velocity: 68
Note OFF: Time 413640, Note Name: G4
Note ON: Time 413640, Note Name: A3, Velocity: 34
Note ON: Time 413640, Note Name: C4, Velocity: 40
Note OFF: Time 413760, Note Name: C4
Note OFF: Time 413760, Note Name: A3
Note ON: Time 413760, Note Name: A4, Velocity: 62
Note OFF: Time 413880, Note Name: A4
Note ON: Time 413880, Note Name: C4, Velocity: 38
Note ON: Time 413880, Note Name: D#4, Velocity: 45
Note OFF: Time 414000, Note Name: D#4
Note OFF: Time 414000, Note Name: C4
Note ON: Time 414000, Note Name: F4, Velocity: 68
Note OFF: Time 414120, Note Name: F4
Note ON: Time 414120, Note Name: C4, Velocity: 38
Note ON: Time 414120, Note Name: D#4, Velocity: 45
Note OFF: Time 414240, Note Name: D#4
Note OFF: Time 414240, Note Name: C4
Note ON: Time 414240, Note Name: G4, Velocity: 68
Note OFF: Time 414360, Note Name: G4
Note ON: Time 414360, Note Name: C4, Velocity: 38
Note ON: Time 414360, Note Name: D#4, Velocity: 45
Note OFF: Time 414480, Note Name: D#4
Note OFF: Time 414480, Note Name: C4
Note ON: Time 414480, Note Name: A4, Velocity: 70
Note OFF: Time 414600, Note Name: A4
Note ON: Time 414600, Note Name: C4, Velocity: 38
Note ON: Time 414600, Note Name: D#4, Velocity: 45
Note OFF: Time 414720, Note Name: D#4
Note OFF: Time 414720, Note Name: C4
Note ON: Time 414720, Note Name: A#4, Velocity: 68
Note OFF: Time 414840, Note Name: A#4
Note ON: Time 414840, Note Name: A#3, Velocity: 34
Note ON: Time 414840, Note Name: C#4, Velocity: 40
Note OFF: Time 414960, Note Name: C#4
Note OFF: Time 414960, Note Name: A#3
Note ON: Time 414960, Note Name: A#4, Velocity: 62
Note OFF: Time 415080, Note Name: A#4
Note ON: Time 415080, Note Name: A#3, Velocity: 33
Note ON: Time 415080, Note Name: C#4, Velocity: 39
Note OFF: Time 415200, Note Name: C#4
Note OFF: Time 415200, Note Name: A#3
Note ON: Time 415200, Note Name: A#4, Velocity: 64
Note OFF: Time 415320, Note Name: A#4
Note ON: Time 415320, Note Name: A#3, Velocity: 34
Note ON: Time 415320, Note Name: C#4, Velocity: 41
Note OFF: Time 415440, Note Name: C#4
Note OFF: Time 415440, Note Name: A#3
Note ON: Time 415440, Note Name: G#4, Velocity: 68
Note OFF: Time 415560, Note Name: G#4
Note ON: Time 415560, Note Name: A#3, Velocity: 34
Note ON: Time 415560, Note Name: C#4, Velocity: 40
Note OFF: Time 415680, Note Name: C#4
Note OFF: Time 415680, Note Name: A#3
Note ON: Time 415680, Note Name: G4, Velocity: 62
Note OFF: Time 415800, Note Name: G4
Note ON: Time 415800, Note Name: A#3, Velocity: 38
Note ON: Time 415800, Note Name: C#4, Velocity: 45
Note OFF: Time 415920, Note Name: C#4
Note OFF: Time 415920, Note Name: A#3
Note ON: Time 415920, Note Name: F4, Velocity: 68
Note OFF: Time 416040, Note Name: F4
Note ON: Time 416040, Note Name: A#3, Velocity: 38
Note ON: Time 416040, Note Name: C#4, Velocity: 45
Note OFF: Time 416160, Note Name: C#4
Note OFF: Time 416160, Note Name: A#3
Note ON: Time 416160, Note Name: E4, Velocity: 68
Note OFF: Time 416280, Note Name: E4
Note ON: Time 416280, Note Name: A#3, Velocity: 38
Note ON: Time 416280, Note Name: C#4, Velocity: 45
Note OFF: Time 416400, Note Name: C#4
Note OFF: Time 416400, Note Name: A#3
Note ON: Time 416400, Note Name: G4, Velocity: 70
Note OFF: Time 416520, Note Name: G4
Note ON: Time 416520, Note Name: A#3, Velocity: 38
Note ON: Time 416520, Note Name: C#4, Velocity: 45
Note OFF: Time 416640, Note Name: C#4
Note OFF: Time 416640, Note Name: A#3
Note ON: Time 416640, Note Name: C4, Velocity: 60
Note ON: Time 416640, Note Name: A3, Velocity: 60
Note ON: Time 416640, Note Name: F4, Velocity: 68
Note OFF: Time 416880, Note Name: F4
Note OFF: Time 416880, Note Name: A3
Note OFF: Time 416880, Note Name: C4
Note ON: Time 416880, Note Name: F5, Velocity: 62
Note OFF: Time 417000, Note Name: F5
Note ON: Time 417000, Note Name: A4, Velocity: 33
Note ON: Time 417000, Note Name: C5, Velocity: 39
Note OFF: Time 417120, Note Name: C5
Note OFF: Time 417120, Note Name: A4
Note ON: Time 417120, Note Name: F5, Velocity: 64
Note OFF: Time 417240, Note Name: F5
Note ON: Time 417240, Note Name: A4, Velocity: 34
Note ON: Time 417240, Note Name: C5, Velocity: 41
Note OFF: Time 417360, Note Name: C5
Note OFF: Time 417360, Note Name: A4
Note ON: Time 417360, Note Name: G5, Velocity: 68
Note OFF: Time 417480, Note Name: G5
Note ON: Time 417480, Note Name: A4, Velocity: 34
Note ON: Time 417480, Note Name: C5, Velocity: 40
Note OFF: Time 417600, Note Name: C5
Note OFF: Time 417600, Note Name: A4
Note ON: Time 417600, Note Name: A5, Velocity: 62
Note OFF: Time 417720, Note Name: A5
Note ON: Time 417720, Note Name: C5, Velocity: 38
Note ON: Time 417720, Note Name: D#5, Velocity: 45
Note OFF: Time 417840, Note Name: D#5
Note OFF: Time 417840, Note Name: C5
Note ON: Time 417840, Note Name: F5, Velocity: 68
Note OFF: Time 417960, Note Name: F5
Note ON: Time 417960, Note Name: C5, Velocity: 38
Note ON: Time 417960, Note Name: D#5, Velocity: 45
Note OFF: Time 418080, Note Name: D#5
Note OFF: Time 418080, Note Name: C5
Note ON: Time 418080, Note Name: G5, Velocity: 68
Note OFF: Time 418200, Note Name: G5
Note ON: Time 418200, Note Name: C5, Velocity: 38
Note ON: Time 418200, Note Name: D#5, Velocity: 45
Note OFF: Time 418320, Note Name: D#5
Note OFF: Time 418320, Note Name: C5
Note ON: Time 418320, Note Name: A5, Velocity: 70
Note OFF: Time 418440, Note Name: A5
Note ON: Time 418440, Note Name: C5, Velocity: 38
Note ON: Time 418440, Note Name: D#5, Velocity: 45
Note OFF: Time 418560, Note Name: D#5
Note OFF: Time 418560, Note Name: C5
Note ON: Time 418560, Note Name: A#5, Velocity: 68
Note OFF: Time 418680, Note Name: A#5
Note ON: Time 418680, Note Name: A#4, Velocity: 34
Note ON: Time 418680, Note Name: C#5, Velocity: 40
Note OFF: Time 418800, Note Name: C#5
Note OFF: Time 418800, Note Name: A#4
Note ON: Time 418800, Note Name: A#5, Velocity: 62
Note OFF: Time 418920, Note Name: A#5
Note ON: Time 418920, Note Name: A#4, Velocity: 33
Note ON: Time 418920, Note Name: C#5, Velocity: 39
Note OFF: Time 419040, Note Name: C#5
Note OFF: Time 419040, Note Name: A#4
Note ON: Time 419040, Note Name: A#5, Velocity: 64
Note OFF: Time 419160, Note Name: A#5
Note ON: Time 419160, Note Name: A#4, Velocity: 34
Note ON: Time 419160, Note Name: C#5, Velocity: 41
Note OFF: Time 419280, Note Name: C#5
Note OFF: Time 419280, Note Name: A#4
Note ON: Time 419280, Note Name: G#5, Velocity: 68
Note OFF: Time 419400, Note Name: G#5
Note ON: Time 419400, Note Name: A#4, Velocity: 34
Note ON: Time 419400, Note Name: C#5, Velocity: 40
Note OFF: Time 419520, Note Name: C#5
Note OFF: Time 419520, Note Name: A#4
Note ON: Time 419520, Note Name: G5, Velocity: 62
Note OFF: Time 419640, Note Name: G5
Note ON: Time 419640, Note Name: A#4, Velocity: 38
Note ON: Time 419640, Note Name: C#5, Velocity: 45
Note OFF: Time 419760, Note Name: C#5
Note OFF: Time 419760, Note Name: A#4
Note ON: Time 419760, Note Name: F5, Velocity: 68
Note OFF: Time 419880, Note Name: F5
Note ON: Time 419880, Note Name: A#4, Velocity: 38
Note ON: Time 419880, Note Name: C#5, Velocity: 45
Note OFF: Time 420000, Note Name: C#5
Note OFF: Time 420000, Note Name: A#4
Note ON: Time 420000, Note Name: E5, Velocity: 68
Note OFF: Time 420120, Note Name: E5
Note ON: Time 420120, Note Name: A#4, Velocity: 38
Note ON: Time 420120, Note Name: C#5, Velocity: 45
Note OFF: Time 420240, Note Name: C#5
Note OFF: Time 420240, Note Name: A#4
Note ON: Time 420240, Note Name: G5, Velocity: 70
Note OFF: Time 420360, Note Name: G5
Note ON: Time 420360, Note Name: A#4, Velocity: 38
Note ON: Time 420360, Note Name: C#5, Velocity: 45
Note OFF: Time 420480, Note Name: C#5
Note OFF: Time 420480, Note Name: A#4
Note ON: Time 420480, Note Name: F5, Velocity: 78
Note OFF: Time 420600, Note Name: F5
Note ON: Time 420600, Note Name: A4, Velocity: 38
Note ON: Time 420600, Note Name: C5, Velocity: 45
Note OFF: Time 420720, Note Name: C5
Note OFF: Time 420720, Note Name: A4
Note ON: Time 420720, Note Name: F5, Velocity: 68
Note OFF: Time 420840, Note Name: F5
Note ON: Time 420840, Note Name: A4, Velocity: 38
Note ON: Time 420840, Note Name: C5, Velocity: 45
Note OFF: Time 420960, Note Name: C5
Note OFF: Time 420960, Note Name: A4
Note ON: Time 420960, Note Name: E5, Velocity: 68
Note OFF: Time 421080, Note Name: E5
Note ON: Time 421080, Note Name: A#4, Velocity: 38
Note ON: Time 421080, Note Name: C#5, Velocity: 45
Note OFF: Time 421200, Note Name: C#5
Note OFF: Time 421200, Note Name: A#4
Note ON: Time 421200, Note Name: G5, Velocity: 70
Note OFF: Time 421320, Note Name: G5
Note ON: Time 421320, Note Name: A#4, Velocity: 38
Note ON: Time 421320, Note Name: C#5, Velocity: 45
Note OFF: Time 421440, Note Name: C#5
Note OFF: Time 421440, Note Name: A#4
Note ON: Time 421440, Note Name: F5, Velocity: 76
Note OFF: Time 421560, Note Name: F5
Note ON: Time 421560, Note Name: A4, Velocity: 38
Note ON: Time 421560, Note Name: C5, Velocity: 45
Note OFF: Time 421680, Note Name: C5
Note OFF: Time 421680, Note Name: A4
Note ON: Time 421680, Note Name: F5, Velocity: 68
Note OFF: Time 421800, Note Name: F5
Note ON: Time 421800, Note Name: A4, Velocity: 38
Note ON: Time 421800, Note Name: C5, Velocity: 45
Note OFF: Time 421920, Note Name: C5
Note OFF: Time 421920, Note Name: A4
Note ON: Time 421920, Note Name: E5, Velocity: 68
Note OFF: Time 422040, Note Name: E5
Note ON: Time 422040, Note Name: A#4, Velocity: 38
Note ON: Time 422040, Note Name: C#5, Velocity: 45
Note OFF: Time 422160, Note Name: C#5
Note OFF: Time 422160, Note Name: A#4
Note ON: Time 422160, Note Name: G5, Velocity: 70
Note OFF: Time 422280, Note Name: G5
Note ON: Time 422280, Note Name: A#4, Velocity: 38
Note ON: Time 422280, Note Name: C#5, Velocity: 45
Note OFF: Time 422400, Note Name: C#5
Note OFF: Time 422400, Note Name: A#4
Note ON: Time 422400, Note Name: A4, Velocity: 59
Note ON: Time 422400, Note Name: C5, Velocity: 59
Note ON: Time 422400, Note Name: F5, Velocity: 70
Note OFF: Time 422520, Note Name: F5
Note OFF: Time 422520, Note Name: C5
Note OFF: Time 422520, Note Name: A4
Note ON: Time 422520, Note Name: F4, Velocity: 35
Note ON: Time 422640, Note Name: G4, Velocity: 40
Note OFF: Time 422652, Note Name: F4
Note ON: Time 422760, Note Name: A4, Velocity: 35
Note OFF: Time 422772, Note Name: G4
Note ON: Time 422880, Note Name: A#4, Velocity: 40
Note OFF: Time 422892, Note Name: A4
Note ON: Time 423000, Note Name: C5, Velocity: 35
Note OFF: Time 423012, Note Name: A#4
Note ON: Time 423120, Note Name: D5, Velocity: 40
Note OFF: Time 423132, Note Name: C5
Note ON: Time 423240, Note Name: E5, Velocity: 33
Note OFF: Time 423252, Note Name: D5
Note ON: Time 423360, Note Name: F5, Velocity: 40
Note OFF: Time 423372, Note Name: E5
Note ON: Time 423480, Note Name: E5, Velocity: 33
Note OFF: Time 423492, Note Name: F5
Note ON: Time 423600, Note Name: F5, Velocity: 40
Note OFF: Time 423612, Note Name: E5
Note ON: Time 423720, Note Name: E5, Velocity: 33
Note OFF: Time 423732, Note Name: F5
Note ON: Time 423840, Note Name: F5, Velocity: 40
Note OFF: Time 423852, Note Name: E5
Note ON: Time 423960, Note Name: E5, Velocity: 34
Note OFF: Time 423972, Note Name: F5
Note ON: Time 424080, Note Name: F5, Velocity: 40
Note OFF: Time 424092, Note Name: E5
Note ON: Time 424200, Note Name: E5, Velocity: 33
Note OFF: Time 424212, Note Name: F5
Note OFF: Time 424320, Note Name: E5
Note ON: Time 424320, Note Name: D5, Velocity: 38
Note ON: Time 424320, Note Name: F5, Velocity: 43
Note OFF: Time 425280, Note Name: F5
Note OFF: Time 425280, Note Name: D5
Note ON: Time 425280, Note Name: D5, Velocity: 49
Note OFF: Time 425760, Note Name: D5
Note ON: Time 425760, Note Name: A#5, Velocity: 47
Note OFF: Time 426240, Note Name: A#5
Note ON: Time 426240, Note Name: D5, Velocity: 41
Note ON: Time 426240, Note Name: F5, Velocity: 49
Note OFF: Time 426720, Note Name: F5
Note OFF: Time 426720, Note Name: D5
Note ON: Time 426720, Note Name: D6, Velocity: 43
Note ON: Time 426720, Note Name: A#5, Velocity: 36
Note OFF: Time 427200, Note Name: A#5
Note OFF: Time 427200, Note Name: D6
Note ON: Time 427200, Note Name: D5, Velocity: 42
Note ON: Time 427200, Note Name: F5, Velocity: 50
Note OFF: Time 427680, Note Name: F5
Note OFF: Time 427680, Note Name: D5
Note ON: Time 427680, Note Name: F6, Velocity: 43
Note ON: Time 427680, Note Name: D6, Velocity: 36
Note OFF: Time 428160, Note Name: D6
Note OFF: Time 428160, Note Name: F6
Note ON: Time 428160, Note Name: D5, Velocity: 38
Note ON: Time 428160, Note Name: F5, Velocity: 43
Note OFF: Time 429120, Note Name: F5
Note OFF: Time 429120, Note Name: D5
Note ON: Time 429120, Note Name: D5, Velocity: 49
Note OFF: Time 429600, Note Name: D5
Note ON: Time 429600, Note Name: A#5, Velocity: 46
Note OFF: Time 430080, Note Name: A#5
Note ON: Time 430080, Note Name: D5, Velocity: 41
Note ON: Time 430080, Note Name: F5, Velocity: 49
Note OFF: Time 430560, Note Name: F5
Note OFF: Time 430560, Note Name: D5
Note ON: Time 430560, Note Name: D6, Velocity: 43
Note ON: Time 430560, Note Name: A#5, Velocity: 36
Note OFF: Time 431040, Note Name: A#5
Note OFF: Time 431040, Note Name: D6
Note ON: Time 431040, Note Name: D5, Velocity: 42
Note ON: Time 431040, Note Name: F5, Velocity: 50
Note OFF: Time 431520, Note Name: F5
Note OFF: Time 431520, Note Name: D5
Note ON: Time 431520, Note Name: F6, Velocity: 43
Note ON: Time 431520, Note Name: D6, Velocity: 36
Note OFF: Time 432000, Note Name: D6
Note OFF: Time 432000, Note Name: F6
Note ON: Time 432000, Note Name: D5, Velocity: 49
Note ON: Time 432000, Note Name: F5, Velocity: 49
Note ON: Time 432000, Note Name: G5, Velocity: 49
Note ON: Time 432000, Note Name: B5, Velocity: 49
Note OFF: Time 432960, Note Name: B5
Note OFF: Time 432960, Note Name: D5
Note OFF: Time 432960, Note Name: F5
Note OFF: Time 432960, Note Name: G5
Note ON: Time 434400, Note Name: B5, Velocity: 70
Note OFF: Time 434880, Note Name: B5
Note ON: Time 434880, Note Name: D6, Velocity: 70
Note OFF: Time 435360, Note Name: D6
Note ON: Time 435360, Note Name: F6, Velocity: 66
Note ON: Time 435840, Note Name: B5, Velocity: 72
Note OFF: Time 436320, Note Name: F6
Note ON: Time 436320, Note Name: D#6, Velocity: 75
Note OFF: Time 436800, Note Name: B5
Note ON: Time 436800, Note Name: C6, Velocity: 75
Note ON: Time 437280, Note Name: F#5, Velocity: 66
Note OFF: Time 437760, Note Name: F#5
Note ON: Time 437760, Note Name: F5, Velocity: 74
Note OFF: Time 438240, Note Name: C6
Note OFF: Time 438240, Note Name: D#6
Note ON: Time 438240, Note Name: D6, Velocity: 70
Note ON: Time 438240, Note Name: A#5, Velocity: 57
Note OFF: Time 438720, Note Name: A#5
Note OFF: Time 438720, Note Name: D6
Note OFF: Time 438720, Note Name: F5
Note ON: Time 438720, Note Name: D#5, Velocity: 61
Note ON: Time 438720, Note Name: G5, Velocity: 61
Note ON: Time 438720, Note Name: C6, Velocity: 70
Note OFF: Time 439200, Note Name: C6
Note OFF: Time 439200, Note Name: G5
Note OFF: Time 439200, Note Name: D#5
Note ON: Time 439200, Note Name: C5, Velocity: 53
Note ON: Time 439200, Note Name: D#5, Velocity: 53
Note ON: Time 439200, Note Name: A5, Velocity: 64
Note OFF: Time 439680, Note Name: A5
Note OFF: Time 439680, Note Name: D#5
Note OFF: Time 439680, Note Name: C5
Note ON: Time 439680, Note Name: A#4, Velocity: 64
Note ON: Time 439680, Note Name: D5, Velocity: 64
Note ON: Time 439680, Note Name: A#5, Velocity: 77
Note OFF: Time 439920, Note Name: A#5
Note OFF: Time 439920, Note Name: D5
Note OFF: Time 439920, Note Name: A#4
Note ON: Time 440640, Note Name: A#4, Velocity: 73
Note ON: Time 440640, Note Name: D5, Velocity: 88
Note OFF: Time 441590, Note Name: A#4
Note OFF: Time 441600, Note Name: D5
Note ON: Time 441600, Note Name: G4, Velocity: 57
Note ON: Time 441600, Note Name: A#4, Velocity: 68
Note OFF: Time 442070, Note Name: G4
Note OFF: Time 442080, Note Name: A#4
Note ON: Time 442080, Note Name: D#4, Velocity: 59
Note ON: Time 442080, Note Name: G4, Velocity: 70
Note OFF: Time 442320, Note Name: G4
Note OFF: Time 442320, Note Name: D#4
Note ON: Time 442560, Note Name: C5, Velocity: 73
Note ON: Time 442560, Note Name: D#5, Velocity: 88
Note OFF: Time 443280, Note Name: D#5
Note OFF: Time 443280, Note Name: C5
Note ON: Time 443280, Note Name: A#4, Velocity: 57
Note ON: Time 443280, Note Name: D5, Velocity: 68
Note OFF: Time 443520, Note Name: D5
Note OFF: Time 443520, Note Name: A#4
Note ON: Time 443520, Note Name: C5, Velocity: 77
Note ON: Time 443520, Note Name: A4, Velocity: 64
Note OFF: Time 443990, Note Name: A4
Note OFF: Time 444000, Note Name: C5
Note ON: Time 444000, Note Name: F4, Velocity: 57
Note ON: Time 444000, Note Name: A4, Velocity: 68
Note OFF: Time 444240, Note Name: A4
Note OFF: Time 444240, Note Name: F4
Note ON: Time 444480, Note Name: D5, Velocity: 73
Note ON: Time 444480, Note Name: F5, Velocity: 88
Note OFF: Time 445430, Note Name: D5
Note OFF: Time 445440, Note Name: F5
Note ON: Time 445440, Note Name: A#4, Velocity: 57
Note ON: Time 445440, Note Name: D5, Velocity: 68
Note OFF: Time 445910, Note Name: A#4
Note OFF: Time 445920, Note Name: D5
Note ON: Time 445920, Note Name: G4, Velocity: 59
Note ON: Time 445920, Note Name: A#4, Velocity: 70
Note OFF: Time 446160, Note Name: A#4
Note OFF: Time 446160, Note Name: G4
Note ON: Time 446400, Note Name: D#5, Velocity: 73
Note ON: Time 446400, Note Name: G5, Velocity: 88
Note OFF: Time 447120, Note Name: G5
Note OFF: Time 447120, Note Name: D#5
Note ON: Time 447120, Note Name: D5, Velocity: 57
Note ON: Time 447120, Note Name: F5, Velocity: 68
Note OFF: Time 447360, Note Name: F5
Note OFF: Time 447360, Note Name: D5
Note ON: Time 447360, Note Name: D#5, Velocity: 77
Note ON: Time 447360, Note Name: C5, Velocity: 64
Note OFF: Time 447830, Note Name: C5
Note OFF: Time 447840, Note Name: D#5
Note ON: Time 447840, Note Name: A4, Velocity: 57
Note ON: Time 447840, Note Name: C5, Velocity: 68
Note OFF: Time 448080, Note Name: C5
Note OFF: Time 448080, Note Name: A4
Note ON: Time 448320, Note Name: D#5, Velocity: 73
Note ON: Time 448320, Note Name: C6, Velocity: 88
Note OFF: Time 449040, Note Name: C6
Note OFF: Time 449040, Note Name: D#5
Note ON: Time 449040, Note Name: D5, Velocity: 57
Note ON: Time 449040, Note Name: A#5, Velocity: 68
Note OFF: Time 449280, Note Name: A#5
Note OFF: Time 449280, Note Name: D5
Note ON: Time 449280, Note Name: C5, Velocity: 73
Note ON: Time 449280, Note Name: A5, Velocity: 88
Note OFF: Time 450000, Note Name: A5
Note OFF: Time 450000, Note Name: C5
Note ON: Time 450000, Note Name: A#4, Velocity: 57
Note ON: Time 450000, Note Name: G5, Velocity: 68
Note OFF: Time 450240, Note Name: G5
Note OFF: Time 450240, Note Name: A#4
Note ON: Time 450240, Note Name: A4, Velocity: 51
Note ON: Time 450240, Note Name: F5, Velocity: 60
Note OFF: Time 450720, Note Name: F5
Note OFF: Time 450720, Note Name: A4
Note ON: Time 450720, Note Name: D#4, Velocity: 44
Note ON: Time 450720, Note Name: D#5, Velocity: 52
Note OFF: Time 451200, Note Name: D#5
Note OFF: Time 451200, Note Name: D#4
Note ON: Time 451200, Note Name: D4, Velocity: 49
Note ON: Time 451200, Note Name: D5, Velocity: 58
Note OFF: Time 451680, Note Name: D5
Note OFF: Time 451680, Note Name: D4
Note ON: Time 451680, Note Name: F#4, Velocity: 39
Note ON: Time 451680, Note Name: C5, Velocity: 46
Note OFF: Time 452160, Note Name: C5
Note OFF: Time 452160, Note Name: F#4
Note ON: Time 452160, Note Name: G4, Velocity: 45
Note ON: Time 452160, Note Name: A#4, Velocity: 53
Note OFF: Time 452640, Note Name: A#4
Note OFF: Time 452640, Note Name: G4
Note ON: Time 452640, Note Name: C4, Velocity: 40
Note ON: Time 452640, Note Name: G4, Velocity: 48
Note OFF: Time 453120, Note Name: G4
Note OFF: Time 453120, Note Name: C4
Note ON: Time 453600, Note Name: A#3, Velocity: 32
Note ON: Time 453600, Note Name: D4, Velocity: 32
Note ON: Time 453600, Note Name: F4, Velocity: 38
Note OFF: Time 453840, Note Name: F4
Note OFF: Time 453840, Note Name: D4
Note OFF: Time 453840, Note Name: A#3
Note ON: Time 454560, Note Name: A3, Velocity: 31
Note ON: Time 454560, Note Name: C4, Velocity: 31
Note ON: Time 454560, Note Name: F4, Velocity: 37
Note OFF: Time 454800, Note Name: F4
Note OFF: Time 454800, Note Name: C4
Note OFF: Time 454800, Note Name: A3
Note ON: Time 455520, Note Name: D4, Velocity: 35
Note ON: Time 455520, Note Name: A#3, Velocity: 29
Note ON: Time 455520, Note Name: F3, Velocity: 29
Note OFF: Time 455970, Note Name: F3
Note OFF: Time 455970, Note Name: A#3
Note OFF: Time 455970, Note Name: D4
Note ON: Time 456240, Note Name: A#4, Velocity: 60
Note ON: Time 456240, Note Name: D5, Velocity: 72
Note OFF: Time 456720, Note Name: D5
Note OFF: Time 456720, Note Name: A#4
Note ON: Time 456720, Note Name: A#4, Velocity: 47
Note ON: Time 456720, Note Name: D5, Velocity: 56
Note OFF: Time 456840, Note Name: D5
Note OFF: Time 456840, Note Name: A#4
Note ON: Time 457200, Note Name: G4, Velocity: 41
Note ON: Time 457200, Note Name: A#4, Velocity: 49
Note OFF: Time 457320, Note Name: A#4
Note OFF: Time 457320, Note Name: G4
Note ON: Time 457680, Note Name: D#4, Velocity: 38
Note ON: Time 457680, Note Name: G4, Velocity: 45
Note OFF: Time 457800, Note Name: G4
Note OFF: Time 457800, Note Name: D#4
Note ON: Time 458160, Note Name: C5, Velocity: 60
Note ON: Time 458160, Note Name: D#5, Velocity: 73
Note OFF: Time 458640, Note Name: D#5
Note OFF: Time 458640, Note Name: C5
Note ON: Time 458640, Note Name: A#4, Velocity: 43
Note ON: Time 458640, Note Name: D5, Velocity: 51
Note OFF: Time 458760, Note Name: D5
Note OFF: Time 458760, Note Name: A#4
Note ON: Time 459120, Note Name: A4, Velocity: 41
Note ON: Time 459120, Note Name: C5, Velocity: 49
Note OFF: Time 459240, Note Name: C5
Note OFF: Time 459240, Note Name: A4
Note ON: Time 459600, Note Name: F4, Velocity: 38
Note ON: Time 459600, Note Name: A4, Velocity: 45
Note OFF: Time 459720, Note Name: A4
Note OFF: Time 459720, Note Name: F4
Note ON: Time 460080, Note Name: D5, Velocity: 60
Note ON: Time 460080, Note Name: F5, Velocity: 72
Note OFF: Time 460560, Note Name: F5
Note OFF: Time 460560, Note Name: D5
Note ON: Time 460560, Note Name: D5, Velocity: 47
Note ON: Time 460560, Note Name: F5, Velocity: 56
Note OFF: Time 460680, Note Name: F5
Note OFF: Time 460680, Note Name: D5
Note ON: Time 461040, Note Name: A#4, Velocity: 45
Note ON: Time 461040, Note Name: D5, Velocity: 53
Note OFF: Time 461160, Note Name: D5
Note OFF: Time 461160, Note Name: A#4
Note ON: Time 461520, Note Name: G4, Velocity: 41
Note ON: Time 461520, Note Name: A#4, Velocity: 49
Note OFF: Time 461640, Note Name: A#4
Note OFF: Time 461640, Note Name: G4
Note ON: Time 462000, Note Name: D#5, Velocity: 68
Note ON: Time 462000, Note Name: G5, Velocity: 84
Note OFF: Time 462480, Note Name: G5
Note OFF: Time 462480, Note Name: D#5
Note ON: Time 462480, Note Name: D5, Velocity: 49
Note ON: Time 462480, Note Name: F5, Velocity: 58
Note OFF: Time 462600, Note Name: F5
Note OFF: Time 462600, Note Name: D5
Note ON: Time 462960, Note Name: C5, Velocity: 47
Note ON: Time 462960, Note Name: D#5, Velocity: 55
Note OFF: Time 463080, Note Name: D#5
Note OFF: Time 463080, Note Name: C5
Note ON: Time 463440, Note Name: A4, Velocity: 43
Note ON: Time 463440, Note Name: C5, Velocity: 51
Note OFF: Time 463560, Note Name: C5
Note OFF: Time 463560, Note Name: A4
Note ON: Time 463920, Note Name: D#5, Velocity: 75
Note ON: Time 463920, Note Name: C6, Velocity: 93
Note OFF: Time 464400, Note Name: C6
Note OFF: Time 464400, Note Name: D#5
Note ON: Time 464400, Note Name: D5, Velocity: 56
Note ON: Time 464400, Note Name: A#5, Velocity: 67
Note OFF: Time 464520, Note Name: A#5
Note OFF: Time 464520, Note Name: D5
Note ON: Time 464880, Note Name: C5, Velocity: 71
Note ON: Time 464880, Note Name: A5, Velocity: 82
Note OFF: Time 465360, Note Name: A5
Note OFF: Time 465360, Note Name: C5
Note ON: Time 465360, Note Name: A#4, Velocity: 56
Note ON: Time 465360, Note Name: G5, Velocity: 67
Note OFF: Time 465480, Note Name: G5
Note OFF: Time 465480, Note Name: A#4
Note ON: Time 465840, Note Name: A4, Velocity: 44
Note ON: Time 465840, Note Name: F5, Velocity: 52
Note OFF: Time 465960, Note Name: F5
Note OFF: Time 465960, Note Name: A4
Note ON: Time 466320, Note Name: D#4, Velocity: 39
Note ON: Time 466320, Note Name: D#5, Velocity: 46
Note OFF: Time 466440, Note Name: D#5
Note OFF: Time 466440, Note Name: D#4
Note ON: Time 466560, Note Name: D5, Velocity: 54
Note OFF: Time 466680, Note Name: D5
Note ON: Time 466680, Note Name: D4, Velocity: 46
Note OFF: Time 466800, Note Name: D4
Note ON: Time 466800, Note Name: F#4, Velocity: 43
Note OFF: Time 466920, Note Name: F#4
Note ON: Time 466920, Note Name: A4, Velocity: 43
Note OFF: Time 467040, Note Name: A4
Note ON: Time 467040, Note Name: D5, Velocity: 53
Note OFF: Time 467160, Note Name: D5
Note ON: Time 467160, Note Name: F#5, Velocity: 42
Note OFF: Time 467280, Note Name: F#5
Note ON: Time 467280, Note Name: A5, Velocity: 42
Note OFF: Time 467400, Note Name: A5
Note ON: Time 467400, Note Name: C#6, Velocity: 42
Note OFF: Time 467520, Note Name: C#6
Note ON: Time 467520, Note Name: D6, Velocity: 49
Note OFF: Time 467640, Note Name: D6
Note ON: Time 467640, Note Name: C#6, Velocity: 39
Note OFF: Time 467760, Note Name: C#6
Note ON: Time 467760, Note Name: D6, Velocity: 42
Note OFF: Time 467880, Note Name: D6
Note ON: Time 467880, Note Name: C#6, Velocity: 38
Note OFF: Time 468000, Note Name: C#6
Note ON: Time 468000, Note Name: D6, Velocity: 48
Note OFF: Time 468120, Note Name: D6
Note ON: Time 468120, Note Name: A5, Velocity: 38
Note OFF: Time 468240, Note Name: A5
Note ON: Time 468240, Note Name: F#5, Velocity: 38
Note OFF: Time 468360, Note Name: F#5
Note ON: Time 468360, Note Name: D5, Velocity: 38
Note OFF: Time 468480, Note Name: D5
Note ON: Time 468600, Note Name: D4, Velocity: 46
Note OFF: Time 468720, Note Name: D4
Note ON: Time 468720, Note Name: G4, Velocity: 43
Note OFF: Time 468840, Note Name: G4
Note ON: Time 468840, Note Name: A#4, Velocity: 43
Note OFF: Time 468960, Note Name: A#4
Note ON: Time 468960, Note Name: D5, Velocity: 53
Note OFF: Time 469080, Note Name: D5
Note ON: Time 469080, Note Name: G5, Velocity: 42
Note OFF: Time 469200, Note Name: G5
Note ON: Time 469200, Note Name: A#5, Velocity: 42
Note OFF: Time 469320, Note Name: A#5
Note ON: Time 469320, Note Name: C#6, Velocity: 42
Note OFF: Time 469440, Note Name: C#6
Note ON: Time 469440, Note Name: D6, Velocity: 49
Note OFF: Time 469560, Note Name: D6
Note ON: Time 469560, Note Name: C#6, Velocity: 39
Note OFF: Time 469680, Note Name: C#6
Note ON: Time 469680, Note Name: D6, Velocity: 42
Note OFF: Time 469800, Note Name: D6
Note ON: Time 469800, Note Name: C#6, Velocity: 38
Note OFF: Time 469920, Note Name: C#6
Note ON: Time 469920, Note Name: D6, Velocity: 48
Note OFF: Time 470040, Note Name: D6
Note ON: Time 470040, Note Name: A#5, Velocity: 38
Note OFF: Time 470160, Note Name: A#5
Note ON: Time 470160, Note Name: G5, Velocity: 38
Note OFF: Time 470280, Note Name: G5
Note ON: Time 470280, Note Name: D5, Velocity: 38
Note OFF: Time 470400, Note Name: D5
Note ON: Time 470520, Note Name: C#4, Velocity: 46
Note OFF: Time 470640, Note Name: C#4
Note ON: Time 470640, Note Name: E4, Velocity: 43
Note OFF: Time 470760, Note Name: E4
Note ON: Time 470760, Note Name: G4, Velocity: 43
Note OFF: Time 470880, Note Name: G4
Note ON: Time 470880, Note Name: A#4, Velocity: 50
Note OFF: Time 471000, Note Name: A#4
Note ON: Time 471000, Note Name: C#5, Velocity: 42
Note OFF: Time 471120, Note Name: C#5
Note ON: Time 471120, Note Name: E5, Velocity: 42
Note OFF: Time 471240, Note Name: E5
Note ON: Time 471240, Note Name: G5, Velocity: 42
Note OFF: Time 471360, Note Name: G5
Note ON: Time 471360, Note Name: A#5, Velocity: 49
Note OFF: Time 471480, Note Name: A#5
Note ON: Time 471480, Note Name: G5, Velocity: 41
Note OFF: Time 471600, Note Name: G5
Note ON: Time 471600, Note Name: C#6, Velocity: 48
Note OFF: Time 471720, Note Name: C#6
Note ON: Time 471720, Note Name: A#5, Velocity: 41
Note OFF: Time 471840, Note Name: A#5
Note ON: Time 471840, Note Name: G5, Velocity: 48
Note OFF: Time 471960, Note Name: G5
Note ON: Time 471960, Note Name: E5, Velocity: 45
Note OFF: Time 472080, Note Name: E5
Note ON: Time 472080, Note Name: C#5, Velocity: 42
Note OFF: Time 472200, Note Name: C#5
Note ON: Time 472200, Note Name: A#4, Velocity: 39
Note OFF: Time 472320, Note Name: A#4
Note ON: Time 472440, Note Name: A3, Velocity: 48
Note OFF: Time 472560, Note Name: A3
Note ON: Time 472560, Note Name: C4, Velocity: 50
Note OFF: Time 472680, Note Name: C4
Note ON: Time 472680, Note Name: D#4, Velocity: 51
Note OFF: Time 472800, Note Name: D#4
Note ON: Time 472800, Note Name: F#4, Velocity: 53
Note OFF: Time 472920, Note Name: F#4
Note ON: Time 472920, Note Name: A4, Velocity: 55
Note OFF: Time 473040, Note Name: A4
Note ON: Time 473040, Note Name: C5, Velocity: 57
Note OFF: Time 473160, Note Name: C5
Note ON: Time 473160, Note Name: D#5, Velocity: 59
Note OFF: Time 473280, Note Name: D#5
Note ON: Time 473280, Note Name: F#5, Velocity: 65
Note OFF: Time 473400, Note Name: F#5
Note ON: Time 473400, Note Name: A5, Velocity: 57
Note OFF: Time 473520, Note Name: A5
Note ON: Time 473520, Note Name: A4, Velocity: 64
Note OFF: Time 473640, Note Name: A4
Note ON: Time 473640, Note Name: A5, Velocity: 56
Note OFF: Time 473760, Note Name: A5
Note ON: Time 473760, Note Name: A4, Velocity: 64
Note OFF: Time 473880, Note Name: A4
Note ON: Time 473880, Note Name: A5, Velocity: 58
Note OFF: Time 474000, Note Name: A5
Note ON: Time 474000, Note Name: A4, Velocity: 64
Note OFF: Time 474120, Note Name: A4
Note ON: Time 474120, Note Name: A5, Velocity: 59
Note OFF: Time 474240, Note Name: A5
Note ON: Time 474240, Note Name: A#4, Velocity: 74
Note OFF: Time 474360, Note Name: A#4
Note ON: Time 474360, Note Name: A#5, Velocity: 59
Note OFF: Time 474480, Note Name: A#5
Note ON: Time 474480, Note Name: A4, Velocity: 67
Note OFF: Time 474600, Note Name: A4
Note ON: Time 474600, Note Name: A5, Velocity: 54
Note OFF: Time 474720, Note Name: A5
Note ON: Time 474720, Note Name: A#4, Velocity: 66
Note OFF: Time 474840, Note Name: A#4
Note ON: Time 474840, Note Name: A#5, Velocity: 57
Note OFF: Time 474960, Note Name: A#5
Note ON: Time 474960, Note Name: D#4, Velocity: 59
Note OFF: Time 475080, Note Name: D#4
Note ON: Time 475080, Note Name: D#5, Velocity: 50
Note OFF: Time 475200, Note Name: D#5
Note ON: Time 475200, Note Name: D4, Velocity: 79
Note OFF: Time 475320, Note Name: D4
Note ON: Time 475320, Note Name: D5, Velocity: 54
Note OFF: Time 475440, Note Name: D5
Note ON: Time 475440, Note Name: A4, Velocity: 65
Note OFF: Time 475560, Note Name: A4
Note ON: Time 475560, Note Name: A5, Velocity: 57
Note OFF: Time 475680, Note Name: A5
Note ON: Time 475680, Note Name: A#4, Velocity: 68
Note OFF: Time 475800, Note Name: A#4
Note ON: Time 475800, Note Name: A#5, Velocity: 60
Note OFF: Time 475920, Note Name: A#5
Note ON: Time 475920, Note Name: D#4, Velocity: 67
Note OFF: Time 476040, Note Name: D#4
Note ON: Time 476040, Note Name: D#5, Velocity: 58
Note OFF: Time 476160, Note Name: D#5
Note ON: Time 476160, Note Name: D4, Velocity: 81
Note OFF: Time 476280, Note Name: D4
Note ON: Time 476280, Note Name: D5, Velocity: 58
Note OFF: Time 476400, Note Name: D5
Note ON: Time 476400, Note Name: A4, Velocity: 64
Note OFF: Time 476520, Note Name: A4
Note ON: Time 476520, Note Name: A5, Velocity: 59
Note OFF: Time 476640, Note Name: A5
Note ON: Time 476640, Note Name: A#4, Velocity: 67
Note OFF: Time 476760, Note Name: A#4
Note ON: Time 476760, Note Name: A#5, Velocity: 55
Note OFF: Time 476880, Note Name: A#5
Note ON: Time 476880, Note Name: D#4, Velocity: 62
Note OFF: Time 477000, Note Name: D#4
Note ON: Time 477000, Note Name: D#5, Velocity: 51
Note OFF: Time 477120, Note Name: D#5
Note ON: Time 477120, Note Name: D4, Velocity: 72
Note OFF: Time 477240, Note Name: D4
Note ON: Time 477240, Note Name: D5, Velocity: 52
Note OFF: Time 477360, Note Name: D5
Note ON: Time 477360, Note Name: A4, Velocity: 64
Note OFF: Time 477480, Note Name: A4
Note ON: Time 477480, Note Name: A5, Velocity: 54
Note OFF: Time 477600, Note Name: A5
Note ON: Time 477600, Note Name: A#4, Velocity: 64
Note OFF: Time 477720, Note Name: A#4
Note ON: Time 477720, Note Name: A#5, Velocity: 51
Note OFF: Time 477840, Note Name: A#5
Note ON: Time 477840, Note Name: D#4, Velocity: 60
Note OFF: Time 477960, Note Name: D#4
Note ON: Time 477960, Note Name: D#5, Velocity: 51
Note OFF: Time 478080, Note Name: D#5
Note ON: Time 478080, Note Name: D4, Velocity: 83
Note OFF: Time 478200, Note Name: D4
Note ON: Time 478200, Note Name: D5, Velocity: 53
Note OFF: Time 478320, Note Name: D5
Note ON: Time 478320, Note Name: A4, Velocity: 62
Note OFF: Time 478440, Note Name: A4
Note ON: Time 478440, Note Name: A5, Velocity: 54
Note OFF: Time 478560, Note Name: A5
Note ON: Time 478560, Note Name: A#4, Velocity: 62
Note OFF: Time 478680, Note Name: A#4
Note ON: Time 478680, Note Name: A#5, Velocity: 54
Note OFF: Time 478800, Note Name: A#5
Note ON: Time 478800, Note Name: A4, Velocity: 62
Note OFF: Time 478920, Note Name: A4
Note ON: Time 478920, Note Name: A5, Velocity: 53
Note OFF: Time 479040, Note Name: A5
Note ON: Time 479040, Note Name: G4, Velocity: 81
Note OFF: Time 479160, Note Name: G4
Note ON: Time 479160, Note Name: G5, Velocity: 53
Note OFF: Time 479280, Note Name: G5
Note ON: Time 479280, Note Name: F4, Velocity: 60
Note OFF: Time 479400, Note Name: F4
Note ON: Time 479400, Note Name: F5, Velocity: 52
Note OFF: Time 479520, Note Name: F5
Note ON: Time 479520, Note Name: D#4, Velocity: 59
Note OFF: Time 479640, Note Name: D#4
Note ON: Time 479640, Note Name: D#5, Velocity: 52
Note OFF: Time 479760, Note Name: D#5
Note ON: Time 479760, Note Name: D4, Velocity: 59
Note OFF: Time 479880, Note Name: D4
Note ON: Time 479880, Note Name: D5, Velocity: 50
Note OFF: Time 480000, Note Name: D5
Note ON: Time 480000, Note Name: C4, Velocity: 79
Note OFF: Time 480120, Note Name: C4
Note ON: Time 480120, Note Name: C5, Velocity: 50
Note OFF: Time 480240, Note Name: C5
Note ON: Time 480240, Note Name: A#3, Velocity: 59
Note OFF: Time 480360, Note Name: A#3
Note ON: Time 480360, Note Name: A#4, Velocity: 49
Note OFF: Time 480480, Note Name: A#4
Note ON: Time 480480, Note Name: A3, Velocity: 59
Note OFF: Time 480600, Note Name: A3
Note ON: Time 480600, Note Name: A4, Velocity: 49
Note OFF: Time 480720, Note Name: A4
Note ON: Time 480720, Note Name: G3, Velocity: 59
Note OFF: Time 480840, Note Name: G3
Note ON: Time 480840, Note Name: G4, Velocity: 51
Note OFF: Time 480960, Note Name: G4
Note ON: Time 480960, Note Name: F3, Velocity: 79
Note OFF: Time 481080, Note Name: F3
Note ON: Time 481080, Note Name: F4, Velocity: 49
Note OFF: Time 481200, Note Name: F4
Note ON: Time 481200, Note Name: D#3, Velocity: 59
Note OFF: Time 481320, Note Name: D#3
Note ON: Time 481320, Note Name: D#4, Velocity: 50
Note OFF: Time 481440, Note Name: D#4
Note ON: Time 481440, Note Name: D3, Velocity: 59
Note OFF: Time 481560, Note Name: D3
Note ON: Time 481560, Note Name: D4, Velocity: 48
Note OFF: Time 481680, Note Name: D4
Note ON: Time 481680, Note Name: C3, Velocity: 58
Note OFF: Time 481800, Note Name: C3
Note ON: Time 481800, Note Name: C4, Velocity: 49
Note OFF: Time 481920, Note Name: C4
Note ON: Time 481920, Note Name: A#3, Velocity: 76
Note ON: Time 481920, Note Name: A#2, Velocity: 64
Note OFF: Time 482040, Note Name: A#2
Note OFF: Time 482040, Note Name: A#3
Note ON: Time 482160, Note Name: A3, Velocity: 49
Note OFF: Time 482280, Note Name: A3
Note ON: Time 482280, Note Name: F3, Velocity: 42
Note OFF: Time 482400, Note Name: F3
Note ON: Time 482400, Note Name: A#3, Velocity: 49
Note OFF: Time 482520, Note Name: A#3
Note ON: Time 482520, Note Name: F3, Velocity: 41
Note OFF: Time 482640, Note Name: F3
Note ON: Time 482640, Note Name: D#4, Velocity: 49
Note OFF: Time 482760, Note Name: D#4
Note ON: Time 482760, Note Name: F3, Velocity: 42
Note OFF: Time 482880, Note Name: F3
Note ON: Time 482880, Note Name: D4, Velocity: 49
Note OFF: Time 483000, Note Name: D4
Note ON: Time 483000, Note Name: F3, Velocity: 41
Note OFF: Time 483120, Note Name: F3
Note ON: Time 483120, Note Name: A3, Velocity: 49
Note OFF: Time 483240, Note Name: A3
Note ON: Time 483240, Note Name: F3, Velocity: 42
Note OFF: Time 483360, Note Name: F3
Note ON: Time 483360, Note Name: A#3, Velocity: 49
Note OFF: Time 483480, Note Name: A#3
Note ON: Time 483480, Note Name: F3, Velocity: 43
Note OFF: Time 483600, Note Name: F3
Note ON: Time 483600, Note Name: D#4, Velocity: 49
Note OFF: Time 483720, Note Name: D#4
Note ON: Time 483720, Note Name: F3, Velocity: 40
Note OFF: Time 483840, Note Name: F3
Note ON: Time 483840, Note Name: D4, Velocity: 49
Note OFF: Time 483960, Note Name: D4
Note ON: Time 483960, Note Name: F3, Velocity: 41
Note OFF: Time 484080, Note Name: F3
Note ON: Time 484080, Note Name: A3, Velocity: 49
Note OFF: Time 484200, Note Name: A3
Note ON: Time 484200, Note Name: F3, Velocity: 42
Note OFF: Time 484320, Note Name: F3
Note ON: Time 484320, Note Name: A#3, Velocity: 49
Note OFF: Time 484440, Note Name: A#3
Note ON: Time 484440, Note Name: F3, Velocity: 43
Note OFF: Time 484560, Note Name: F3
Note ON: Time 484560, Note Name: D#4, Velocity: 49
Note OFF: Time 484680, Note Name: D#4
Note ON: Time 484680, Note Name: F3, Velocity: 40
Note OFF: Time 484800, Note Name: F3
Note ON: Time 484800, Note Name: D4, Velocity: 56
Note OFF: Time 485040, Note Name: D4
Note ON: Time 485040, Note Name: F#3, Velocity: 60
Note OFF: Time 485160, Note Name: F#3
Note ON: Time 485160, Note Name: F#4, Velocity: 52
Note OFF: Time 485280, Note Name: F#4
Note ON: Time 485280, Note Name: G3, Velocity: 61
Note OFF: Time 485400, Note Name: G3
Note ON: Time 485400, Note Name: G4, Velocity: 49
Note OFF: Time 485520, Note Name: G4
Note ON: Time 485520, Note Name: A3, Velocity: 67
Note OFF: Time 485640, Note Name: A3
Note ON: Time 485640, Note Name: A4, Velocity: 60
Note OFF: Time 485760, Note Name: A4
Note ON: Time 485760, Note Name: A#3, Velocity: 71
Note OFF: Time 485880, Note Name: A#3
Note ON: Time 485880, Note Name: A#4, Velocity: 62
Note OFF: Time 486000, Note Name: A#4
Note ON: Time 486000, Note Name: B3, Velocity: 70
Note OFF: Time 486120, Note Name: B3
Note ON: Time 486120, Note Name: B4, Velocity: 64
Note OFF: Time 486240, Note Name: B4
Note ON: Time 486240, Note Name: C4, Velocity: 70
Note OFF: Time 486360, Note Name: C4
Note ON: Time 486360, Note Name: C5, Velocity: 64
Note OFF: Time 486480, Note Name: C5
Note ON: Time 486480, Note Name: D4, Velocity: 74
Note OFF: Time 486600, Note Name: D4
Note ON: Time 486600, Note Name: D5, Velocity: 65
Note OFF: Time 486720, Note Name: D5
Note ON: Time 486720, Note Name: D#4, Velocity: 82
Note OFF: Time 486840, Note Name: D#4
Note ON: Time 486840, Note Name: D#5, Velocity: 71
Note OFF: Time 486960, Note Name: D#5
Note ON: Time 486960, Note Name: F4, Velocity: 79
Note OFF: Time 487080, Note Name: F4
Note ON: Time 487080, Note Name: F5, Velocity: 70
Note OFF: Time 487200, Note Name: F5
Note ON: Time 487200, Note Name: G4, Velocity: 83
Note OFF: Time 487320, Note Name: G4
Note ON: Time 487320, Note Name: G5, Velocity: 72
Note OFF: Time 487440, Note Name: G5
Note ON: Time 487440, Note Name: F4, Velocity: 81
Note OFF: Time 487560, Note Name: F4
Note ON: Time 487560, Note Name: F5, Velocity: 69
Note OFF: Time 487680, Note Name: F5
Note ON: Time 487680, Note Name: D#4, Velocity: 84
Note OFF: Time 487800, Note Name: D#4
Note ON: Time 487800, Note Name: D#5, Velocity: 69
Note OFF: Time 487920, Note Name: D#5
Note ON: Time 487920, Note Name: D4, Velocity: 81
Note OFF: Time 488040, Note Name: D4
Note ON: Time 488040, Note Name: D5, Velocity: 69
Note OFF: Time 488160, Note Name: D5
Note ON: Time 488160, Note Name: C4, Velocity: 79
Note OFF: Time 488280, Note Name: C4
Note ON: Time 488280, Note Name: C5, Velocity: 69
Note OFF: Time 488400, Note Name: C5
Note ON: Time 488400, Note Name: A#3, Velocity: 78
Note OFF: Time 488520, Note Name: A#3
Note ON: Time 488520, Note Name: A#4, Velocity: 65
Note OFF: Time 488640, Note Name: A#4
Note ON: Time 488640, Note Name: A3, Velocity: 79
Note OFF: Time 488760, Note Name: A3
Note ON: Time 488760, Note Name: A4, Velocity: 69
Note OFF: Time 488880, Note Name: A4
Note ON: Time 488880, Note Name: G3, Velocity: 77
Note OFF: Time 489000, Note Name: G3
Note ON: Time 489000, Note Name: G4, Velocity: 65
Note OFF: Time 489120, Note Name: G4
Note ON: Time 489120, Note Name: F3, Velocity: 77
Note OFF: Time 489240, Note Name: F3
Note ON: Time 489240, Note Name: F4, Velocity: 67
Note OFF: Time 489360, Note Name: F4
Note ON: Time 489360, Note Name: A3, Velocity: 75
Note OFF: Time 489480, Note Name: A3
Note ON: Time 489480, Note Name: A4, Velocity: 66
Note OFF: Time 489600, Note Name: A4
Note ON: Time 489600, Note Name: A#4, Velocity: 79
Note ON: Time 489600, Note Name: A#3, Velocity: 79
Note OFF: Time 490080, Note Name: A#3
Note OFF: Time 490080, Note Name: A#4
Note ON: Time 490560, Note Name: F4, Velocity: 40
Note ON: Time 490560, Note Name: D4, Velocity: 34
Note ON: Time 491280, Note Name: A#3, Velocity: 39
Note OFF: Time 491520, Note Name: A#3
Note OFF: Time 491520, Note Name: D4
Note OFF: Time 491520, Note Name: F4
Note ON: Time 491520, Note Name: F#4, Velocity: 46
Note ON: Time 491520, Note Name: D#4, Velocity: 39
Note ON: Time 492240, Note Name: C#4, Velocity: 40
Note OFF: Time 492480, Note Name: C#4
Note OFF: Time 492480, Note Name: D#4
Note OFF: Time 492480, Note Name: F#4
Note ON: Time 492480, Note Name: F#4, Velocity: 32
Note ON: Time 492480, Note Name: D#4, Velocity: 32
Note ON: Time 492480, Note Name: B3, Velocity: 45
Note OFF: Time 492720, Note Name: B3
Note ON: Time 492720, Note Name: A#3, Velocity: 40
Note OFF: Time 492960, Note Name: A#3
Note OFF: Time 492960, Note Name: D#4
Note OFF: Time 492960, Note Name: F#4
Note ON: Time 492960, Note Name: F#4, Velocity: 33
Note ON: Time 492960, Note Name: D#4, Velocity: 33
Note ON: Time 492960, Note Name: B3, Velocity: 46
Note OFF: Time 493200, Note Name: B3
Note ON: Time 493200, Note Name: A3, Velocity: 40
Note OFF: Time 493440, Note Name: A3
Note OFF: Time 493440, Note Name: D#4
Note OFF: Time 493440, Note Name: F#4
Note ON: Time 493440, Note Name: F4, Velocity: 46
Note ON: Time 493440, Note Name: D4, Velocity: 39
Note ON: Time 493440, Note Name: A#3, Velocity: 39
Note OFF: Time 494160, Note Name: A#3
Note OFF: Time 494160, Note Name: D4
Note OFF: Time 494160, Note Name: F4
Note ON: Time 494400, Note Name: D5, Velocity: 52
Note ON: Time 494400, Note Name: F4, Velocity: 52
Note ON: Time 494400, Note Name: D4, Velocity: 44
Note OFF: Time 495120, Note Name: D5
Note ON: Time 495120, Note Name: A#4, Velocity: 50
Note OFF: Time 495360, Note Name: A#4
Note OFF: Time 495360, Note Name: D4
Note OFF: Time 495360, Note Name: F4
Note ON: Time 495360, Note Name: D#5, Velocity: 52
Note ON: Time 495360, Note Name: F#4, Velocity: 59
Note ON: Time 495360, Note Name: D#4, Velocity: 50
Note OFF: Time 496080, Note Name: D#5
Note ON: Time 496080, Note Name: C#5, Velocity: 52
Note OFF: Time 496320, Note Name: C#5
Note OFF: Time 496320, Note Name: D#4
Note OFF: Time 496320, Note Name: F#4
Note ON: Time 496320, Note Name: F#4, Velocity: 41
Note ON: Time 496320, Note Name: D#4, Velocity: 41
Note ON: Time 496320, Note Name: B4, Velocity: 58
Note OFF: Time 496560, Note Name: B4
Note ON: Time 496560, Note Name: A#4, Velocity: 52
Note OFF: Time 496800, Note Name: A#4
Note OFF: Time 496800, Note Name: D#4
Note OFF: Time 496800, Note Name: F#4
Note ON: Time 496800, Note Name: F#4, Velocity: 42
Note ON: Time 496800, Note Name: D#4, Velocity: 42
Note ON: Time 496800, Note Name: B4, Velocity: 59
Note OFF: Time 497040, Note Name: B4
Note ON: Time 497040, Note Name: A4, Velocity: 52
Note OFF: Time 497280, Note Name: A4
Note OFF: Time 497280, Note Name: D#4
Note OFF: Time 497280, Note Name: F#4
Note ON: Time 497280, Note Name: A#4, Velocity: 59
Note ON: Time 497280, Note Name: F4, Velocity: 50
Note ON: Time 497280, Note Name: D4, Velocity: 50
Note OFF: Time 498000, Note Name: D4
Note OFF: Time 498000, Note Name: F4
Note OFF: Time 498000, Note Name: A#4
Note ON: Time 498240, Note Name: F#4, Velocity: 37
Note ON: Time 498240, Note Name: D#4, Velocity: 37
Note ON: Time 498240, Note Name: C5, Velocity: 53
Note OFF: Time 498480, Note Name: C5
Note ON: Time 498480, Note Name: A#4, Velocity: 46
Note OFF: Time 498720, Note Name: A#4
Note OFF: Time 498720, Note Name: D#4
Note OFF: Time 498720, Note Name: F#4
Note ON: Time 498720, Note Name: F#4, Velocity: 36
Note ON: Time 498720, Note Name: D#4, Velocity: 36
Note ON: Time 498720, Note Name: C5, Velocity: 51
Note OFF: Time 498960, Note Name: C5
Note ON: Time 498960, Note Name: A4, Velocity: 44
Note OFF: Time 499200, Note Name: A4
Note OFF: Time 499200, Note Name: D#4
Note OFF: Time 499200, Note Name: F#4
Note ON: Time 499200, Note Name: A#4, Velocity: 49
Note ON: Time 499200, Note Name: F4, Velocity: 42
Note ON: Time 499200, Note Name: D4, Velocity: 42
Note OFF: Time 499920, Note Name: D4
Note OFF: Time 499920, Note Name: F4
Note OFF: Time 499920, Note Name: A#4
Note ON: Time 500160, Note Name: F#4, Velocity: 30
Note ON: Time 500160, Note Name: D#4, Velocity: 30
Note ON: Time 500160, Note Name: B4, Velocity: 43
Note OFF: Time 500400, Note Name: B4
Note ON: Time 500400, Note Name: A#4, Velocity: 39
Note OFF: Time 500640, Note Name: A#4
Note OFF: Time 500640, Note Name: D#4
Note OFF: Time 500640, Note Name: F#4
Note ON: Time 500640, Note Name: F#4, Velocity: 31
Note ON: Time 500640, Note Name: D#4, Velocity: 31
Note ON: Time 500640, Note Name: B4, Velocity: 44
Note OFF: Time 500880, Note Name: B4
Note ON: Time 500880, Note Name: A4, Velocity: 39
Note OFF: Time 501120, Note Name: A4
Note OFF: Time 501120, Note Name: D#4
Note OFF: Time 501120, Note Name: F#4
Note ON: Time 501120, Note Name: A#3, Velocity: 74
Note ON: Time 501120, Note Name: A#4, Velocity: 88
Note OFF: Time 501840, Note Name: A#4
Note OFF: Time 501840, Note Name: A#3
Note ON: Time 501840, Note Name: C4, Velocity: 67
Note ON: Time 501840, Note Name: C5, Velocity: 79
Note OFF: Time 501960, Note Name: C5
Note OFF: Time 501960, Note Name: C4
Note ON: Time 502080, Note Name: D4, Velocity: 74
Note ON: Time 502080, Note Name: D5, Velocity: 89
Note OFF: Time 502800, Note Name: D5
Note OFF: Time 502800, Note Name: D4
Note ON: Time 502800, Note Name: D#4, Velocity: 68
Note ON: Time 502800, Note Name: D#5, Velocity: 81
Note OFF: Time 502920, Note Name: D#5
Note OFF: Time 502920, Note Name: D#4
Note ON: Time 503040, Note Name: F4, Velocity: 77
Note ON: Time 503040, Note Name: F5, Velocity: 91
Note OFF: Time 503760, Note Name: F5
Note OFF: Time 503760, Note Name: F4
Note ON: Time 503760, Note Name: G4, Velocity: 62
Note ON: Time 503760, Note Name: G5, Velocity: 74
Note OFF: Time 503880, Note Name: G5
Note OFF: Time 503880, Note Name: G4
Note ON: Time 504000, Note Name: A4, Velocity: 71
Note ON: Time 504000, Note Name: A5, Velocity: 84
Note OFF: Time 504120, Note Name: A5
Note OFF: Time 504120, Note Name: A4
Note ON: Time 504240, Note Name: A#4, Velocity: 68
Note ON: Time 504240, Note Name: A#5, Velocity: 81
Note OFF: Time 504360, Note Name: A#5
Note OFF: Time 504360, Note Name: A#4
Note ON: Time 504480, Note Name: C5, Velocity: 74
Note ON: Time 504480, Note Name: C6, Velocity: 87
Note OFF: Time 504600, Note Name: C6
Note OFF: Time 504600, Note Name: C5
Note ON: Time 504720, Note Name: D5, Velocity: 69
Note ON: Time 504720, Note Name: D6, Velocity: 83
Note OFF: Time 504840, Note Name: D6
Note OFF: Time 504840, Note Name: D5
Note ON: Time 504960, Note Name: D#5, Velocity: 81
Note ON: Time 504960, Note Name: D#6, Velocity: 96
Note OFF: Time 505680, Note Name: D#6
Note OFF: Time 505680, Note Name: D#5
Note ON: Time 505680, Note Name: D5, Velocity: 71
Note ON: Time 505680, Note Name: D6, Velocity: 84
Note OFF: Time 505800, Note Name: D6
Note OFF: Time 505800, Note Name: D5
Note ON: Time 505920, Note Name: C5, Velocity: 78
Note ON: Time 505920, Note Name: C6, Velocity: 94
Note OFF: Time 506640, Note Name: C6
Note OFF: Time 506640, Note Name: C5
Note ON: Time 506640, Note Name: A#4, Velocity: 70
Note ON: Time 506640, Note Name: A#5, Velocity: 83
Note OFF: Time 506760, Note Name: A#5
Note OFF: Time 506760, Note Name: A#4
Note ON: Time 506880, Note Name: A4, Velocity: 78
Note ON: Time 506880, Note Name: A5, Velocity: 92
Note OFF: Time 507600, Note Name: A5
Note OFF: Time 507600, Note Name: A4
Note ON: Time 507600, Note Name: G4, Velocity: 62
Note ON: Time 507600, Note Name: G5, Velocity: 74
Note OFF: Time 507720, Note Name: G5
Note OFF: Time 507720, Note Name: G4
Note ON: Time 507840, Note Name: F4, Velocity: 70
Note ON: Time 507840, Note Name: F5, Velocity: 83
Note OFF: Time 507960, Note Name: F5
Note OFF: Time 507960, Note Name: F4
Note ON: Time 508080, Note Name: D#4, Velocity: 66
Note ON: Time 508080, Note Name: D#5, Velocity: 78
Note OFF: Time 508200, Note Name: D#5
Note OFF: Time 508200, Note Name: D#4
Note ON: Time 508320, Note Name: D4, Velocity: 70
Note ON: Time 508320, Note Name: D5, Velocity: 83
Note OFF: Time 508440, Note Name: D5
Note OFF: Time 508440, Note Name: D4
Note ON: Time 508560, Note Name: C4, Velocity: 64
Note ON: Time 508560, Note Name: C5, Velocity: 77
Note OFF: Time 508680, Note Name: C5
Note OFF: Time 508680, Note Name: C4
Note ON: Time 508800, Note Name: A#3, Velocity: 78
Note ON: Time 508800, Note Name: A#4, Velocity: 90
Note OFF: Time 508920, Note Name: A#4
Note OFF: Time 508920, Note Name: A#3
Note ON: Time 509280, Note Name: A4, Velocity: 53
Note OFF: Time 509400, Note Name: A4
Note ON: Time 509400, Note Name: G#4, Velocity: 45
Note OFF: Time 509520, Note Name: G#4
Note ON: Time 509520, Note Name: A4, Velocity: 53
Note OFF: Time 509640, Note Name: A4
Note ON: Time 509640, Note Name: F4, Velocity: 43
Note OFF: Time 509760, Note Name: F4
Note ON: Time 509760, Note Name: A#4, Velocity: 57
Note OFF: Time 509880, Note Name: A#4
Note ON: Time 510240, Note Name: A5, Velocity: 53
Note OFF: Time 510360, Note Name: A5
Note ON: Time 510360, Note Name: G#5, Velocity: 45
Note OFF: Time 510480, Note Name: G#5
Note ON: Time 510480, Note Name: A5, Velocity: 53
Note OFF: Time 510600, Note Name: A5
Note ON: Time 510600, Note Name: F5, Velocity: 43
Note OFF: Time 510720, Note Name: F5
Note ON: Time 510720, Note Name: A#5, Velocity: 57
Note OFF: Time 510840, Note Name: A#5
Note ON: Time 511680, Note Name: A5, Velocity: 91
Note ON: Time 511680, Note Name: F5, Velocity: 77
Note ON: Time 511680, Note Name: D#5, Velocity: 77
Note ON: Time 511680, Note Name: C5, Velocity: 77
Note ON: Time 511680, Note Name: A4, Velocity: 77
Note OFF: Time 512160, Note Name: A4
Note OFF: Time 512160, Note Name: D#5
Note OFF: Time 512160, Note Name: A5
Note OFF: Time 512160, Note Name: F5
Note OFF: Time 512160, Note Name: C5
Note ON: Time 512640, Note Name: A#5, Velocity: 97
Note ON: Time 512640, Note Name: F5, Velocity: 82
Note ON: Time 512640, Note Name: D5, Velocity: 82
Note ON: Time 512640, Note Name: A#4, Velocity: 82
Note OFF: Time 513120, Note Name: A#4
Note OFF: Time 513120, Note Name: A#5
Note OFF: Time 513120, Note Name: F5
Note OFF: Time 513120, Note Name: D5
Track 2: Piano left
Note ON: Time 1920, Note Name: A#1, Velocity: 30
Note ON: Time 1920, Note Name: A#2, Velocity: 36
Note OFF: Time 2010, Note Name: A#2
Note OFF: Time 2010, Note Name: A#1
Note ON: Time 2400, Note Name: A#1, Velocity: 27
Note ON: Time 2400, Note Name: A#2, Velocity: 32
Note OFF: Time 2490, Note Name: A#2
Note OFF: Time 2490, Note Name: A#1
Note ON: Time 3840, Note Name: A#1, Velocity: 30
Note ON: Time 3840, Note Name: A#2, Velocity: 36
Note OFF: Time 3930, Note Name: A#2
Note OFF: Time 3930, Note Name: A#1
Note ON: Time 4320, Note Name: A#1, Velocity: 27
Note ON: Time 4320, Note Name: A#2, Velocity: 32
Note OFF: Time 4410, Note Name: A#2
Note OFF: Time 4410, Note Name: A#1
Note ON: Time 7680, Note Name: A#2, Velocity: 44
Note OFF: Time 7800, Note Name: A#2
Note ON: Time 7800, Note Name: D3, Velocity: 31
Note OFF: Time 7920, Note Name: D3
Note ON: Time 7920, Note Name: F3, Velocity: 31
Note OFF: Time 8040, Note Name: F3
Note ON: Time 8040, Note Name: A#3, Velocity: 31
Note OFF: Time 8160, Note Name: A#3
Note ON: Time 8160, Note Name: A#2, Velocity: 44
Note OFF: Time 8280, Note Name: A#2
Note ON: Time 8280, Note Name: D3, Velocity: 32
Note OFF: Time 8400, Note Name: D3
Note ON: Time 8400, Note Name: F3, Velocity: 32
Note OFF: Time 8520, Note Name: F3
Note ON: Time 8520, Note Name: A#3, Velocity: 32
Note OFF: Time 8640, Note Name: A#3
Note ON: Time 8640, Note Name: A#2, Velocity: 44
Note OFF: Time 8760, Note Name: A#2
Note ON: Time 8760, Note Name: D3, Velocity: 33
Note OFF: Time 8880, Note Name: D3
Note ON: Time 8880, Note Name: F3, Velocity: 33
Note OFF: Time 9000, Note Name: F3
Note ON: Time 9000, Note Name: A#3, Velocity: 33
Note OFF: Time 9120, Note Name: A#3
Note ON: Time 9120, Note Name: A#2, Velocity: 44
Note OFF: Time 9240, Note Name: A#2
Note ON: Time 9240, Note Name: D3, Velocity: 33
Note OFF: Time 9360, Note Name: D3
Note ON: Time 9360, Note Name: F3, Velocity: 33
Note OFF: Time 9480, Note Name: F3
Note ON: Time 9480, Note Name: A#3, Velocity: 33
Note OFF: Time 9600, Note Name: A#3
Note ON: Time 9600, Note Name: A#2, Velocity: 44
Note OFF: Time 9720, Note Name: A#2
Note ON: Time 9720, Note Name: D#3, Velocity: 31
Note OFF: Time 9840, Note Name: D#3
Note ON: Time 9840, Note Name: G3, Velocity: 31
Note OFF: Time 9960, Note Name: G3
Note ON: Time 9960, Note Name: A#3, Velocity: 31
Note OFF: Time 10080, Note Name: A#3
Note ON: Time 10080, Note Name: A#2, Velocity: 42
Note OFF: Time 10200, Note Name: A#2
Note ON: Time 10200, Note Name: D#3, Velocity: 28
Note OFF: Time 10320, Note Name: D#3
Note ON: Time 10320, Note Name: G3, Velocity: 28
Note OFF: Time 10440, Note Name: G3
Note ON: Time 10440, Note Name: A#3, Velocity: 28
Note OFF: Time 10560, Note Name: A#3
Note ON: Time 10560, Note Name: A#2, Velocity: 41
Note OFF: Time 10680, Note Name: A#2
Note ON: Time 10680, Note Name: D#3, Velocity: 29
Note OFF: Time 10800, Note Name: D#3
Note ON: Time 10800, Note Name: F3, Velocity: 29
Note OFF: Time 10920, Note Name: F3
Note ON: Time 10920, Note Name: A3, Velocity: 29
Note OFF: Time 11040, Note Name: A3
Note ON: Time 11040, Note Name: A#2, Velocity: 41
Note OFF: Time 11160, Note Name: A#2
Note ON: Time 11160, Note Name: D#3, Velocity: 31
Note OFF: Time 11280, Note Name: D#3
Note ON: Time 11280, Note Name: F3, Velocity: 31
Note OFF: Time 11400, Note Name: F3
Note ON: Time 11400, Note Name: A3, Velocity: 31
Note OFF: Time 11520, Note Name: A3
Note ON: Time 11520, Note Name: A#2, Velocity: 44
Note OFF: Time 11640, Note Name: A#2
Note ON: Time 11640, Note Name: D3, Velocity: 31
Note OFF: Time 11760, Note Name: D3
Note ON: Time 11760, Note Name: F3, Velocity: 31
Note OFF: Time 11880, Note Name: F3
Note ON: Time 11880, Note Name: A#3, Velocity: 31
Note OFF: Time 12000, Note Name: A#3
Note ON: Time 12000, Note Name: A#2, Velocity: 44
Note OFF: Time 12120, Note Name: A#2
Note ON: Time 12120, Note Name: D3, Velocity: 32
Note OFF: Time 12240, Note Name: D3
Note ON: Time 12240, Note Name: F3, Velocity: 32
Note OFF: Time 12360, Note Name: F3
Note ON: Time 12360, Note Name: A#3, Velocity: 32
Note OFF: Time 12480, Note Name: A#3
Note ON: Time 12480, Note Name: A#2, Velocity: 44
Note OFF: Time 12600, Note Name: A#2
Note ON: Time 12600, Note Name: D3, Velocity: 32
Note OFF: Time 12720, Note Name: D3
Note ON: Time 12720, Note Name: F3, Velocity: 32
Note OFF: Time 12840, Note Name: F3
Note ON: Time 12840, Note Name: G#3, Velocity: 32
Note OFF: Time 12960, Note Name: G#3
Note ON: Time 12960, Note Name: A#2, Velocity: 44
Note OFF: Time 13080, Note Name: A#2
Note ON: Time 13080, Note Name: D3, Velocity: 32
Note OFF: Time 13200, Note Name: D3
Note ON: Time 13200, Note Name: F3, Velocity: 32
Note OFF: Time 13320, Note Name: F3
Note ON: Time 13320, Note Name: G#3, Velocity: 32
Note OFF: Time 13440, Note Name: G#3
Note ON: Time 13440, Note Name: A#2, Velocity: 44
Note OFF: Time 13560, Note Name: A#2
Note ON: Time 13560, Note Name: D#3, Velocity: 32
Note OFF: Time 13680, Note Name: D#3
Note ON: Time 13680, Note Name: G3, Velocity: 32
Note OFF: Time 13800, Note Name: G3
Note ON: Time 13800, Note Name: D#3, Velocity: 32
Note OFF: Time 13920, Note Name: D#3
Note ON: Time 13920, Note Name: A#2, Velocity: 44
Note OFF: Time 14040, Note Name: A#2
Note ON: Time 14040, Note Name: D#3, Velocity: 36
Note OFF: Time 14160, Note Name: D#3
Note ON: Time 14160, Note Name: G3, Velocity: 36
Note OFF: Time 14280, Note Name: G3
Note ON: Time 14280, Note Name: D#3, Velocity: 36
Note OFF: Time 14400, Note Name: D#3
Note ON: Time 14400, Note Name: A#2, Velocity: 48
Note OFF: Time 14520, Note Name: A#2
Note ON: Time 14520, Note Name: C3, Velocity: 37
Note OFF: Time 14640, Note Name: C3
Note ON: Time 14640, Note Name: D#3, Velocity: 38
Note OFF: Time 14760, Note Name: D#3
Note ON: Time 14760, Note Name: F3, Velocity: 40
Note OFF: Time 14880, Note Name: F3
Note ON: Time 14880, Note Name: A#2, Velocity: 50
Note OFF: Time 15000, Note Name: A#2
Note ON: Time 15000, Note Name: C3, Velocity: 40
Note OFF: Time 15120, Note Name: C3
Note ON: Time 15120, Note Name: D#3, Velocity: 39
Note OFF: Time 15240, Note Name: D#3
Note ON: Time 15240, Note Name: F3, Velocity: 43
Note OFF: Time 15360, Note Name: F3
Note ON: Time 15360, Note Name: A#2, Velocity: 60
Note OFF: Time 15480, Note Name: A#2
Note ON: Time 15840, Note Name: A#2, Velocity: 53
Note OFF: Time 15960, Note Name: A#2
Note ON: Time 15960, Note Name: A2, Velocity: 46
Note OFF: Time 16080, Note Name: A2
Note ON: Time 16080, Note Name: A#2, Velocity: 53
Note OFF: Time 16200, Note Name: A#2
Note ON: Time 16200, Note Name: G2, Velocity: 46
Note OFF: Time 16320, Note Name: G2
Note ON: Time 16320, Note Name: F2, Velocity: 60
Note OFF: Time 16440, Note Name: F2
Note ON: Time 16800, Note Name: D#3, Velocity: 53
Note OFF: Time 16920, Note Name: D#3
Note ON: Time 16920, Note Name: D3, Velocity: 46
Note OFF: Time 17040, Note Name: D3
Note ON: Time 17040, Note Name: D#3, Velocity: 53
Note OFF: Time 17160, Note Name: D#3
Note ON: Time 17160, Note Name: C3, Velocity: 46
Note OFF: Time 17280, Note Name: C3
Note ON: Time 17280, Note Name: A#2, Velocity: 60
Note OFF: Time 17400, Note Name: A#2
Note ON: Time 17760, Note Name: A#3, Velocity: 53
Note OFF: Time 17880, Note Name: A#3
Note ON: Time 17880, Note Name: A3, Velocity: 46
Note OFF: Time 18000, Note Name: A3
Note ON: Time 18000, Note Name: A#3, Velocity: 53
Note OFF: Time 18120, Note Name: A#3
Note ON: Time 18120, Note Name: G3, Velocity: 46
Note OFF: Time 18240, Note Name: G3
Note ON: Time 18240, Note Name: F3, Velocity: 60
Note OFF: Time 18360, Note Name: F3
Note ON: Time 18720, Note Name: D#4, Velocity: 60
Note OFF: Time 18840, Note Name: D#4
Note ON: Time 18840, Note Name: D4, Velocity: 52
Note OFF: Time 18960, Note Name: D4
Note ON: Time 18960, Note Name: D#4, Velocity: 60
Note OFF: Time 19080, Note Name: D#4
Note ON: Time 19080, Note Name: C4, Velocity: 52
Note OFF: Time 19200, Note Name: C4
Note ON: Time 19200, Note Name: A#3, Velocity: 69
Note OFF: Time 19320, Note Name: A#3
Note ON: Time 19440, Note Name: C4, Velocity: 53
Note OFF: Time 19560, Note Name: C4
Note ON: Time 19560, Note Name: D4, Velocity: 48
Note OFF: Time 19680, Note Name: D4
Note ON: Time 19680, Note Name: D#4, Velocity: 54
Note OFF: Time 19800, Note Name: D#4
Note ON: Time 19800, Note Name: F4, Velocity: 48
Note OFF: Time 19920, Note Name: F4
Note ON: Time 19920, Note Name: G4, Velocity: 48
Note OFF: Time 20040, Note Name: G4
Note ON: Time 20040, Note Name: A4, Velocity: 49
Note OFF: Time 20160, Note Name: A4
Note ON: Time 20160, Note Name: A#4, Velocity: 56
Note OFF: Time 20280, Note Name: A#4
Note ON: Time 20280, Note Name: A4, Velocity: 50
Note OFF: Time 20400, Note Name: A4
Note ON: Time 20400, Note Name: A#4, Velocity: 50
Note OFF: Time 20520, Note Name: A#4
Note ON: Time 20520, Note Name: C5, Velocity: 51
Note OFF: Time 20640, Note Name: C5
Note ON: Time 20640, Note Name: D5, Velocity: 58
Note OFF: Time 20760, Note Name: D5
Note ON: Time 20760, Note Name: C5, Velocity: 52
Note OFF: Time 20880, Note Name: C5
Note ON: Time 20880, Note Name: D5, Velocity: 52
Note OFF: Time 21000, Note Name: D5
Note ON: Time 21000, Note Name: E5, Velocity: 53
Note OFF: Time 21120, Note Name: E5
Note ON: Time 21120, Note Name: F5, Velocity: 73
Note OFF: Time 21240, Note Name: F5
Note ON: Time 21600, Note Name: F3, Velocity: 60
Note OFF: Time 21720, Note Name: F3
Note ON: Time 22560, Note Name: A#2, Velocity: 65
Note OFF: Time 22680, Note Name: A#2
Note ON: Time 22680, Note Name: A2, Velocity: 57
Note OFF: Time 22800, Note Name: A2
Note ON: Time 22800, Note Name: A#2, Velocity: 62
Note OFF: Time 22920, Note Name: A#2
Note ON: Time 22920, Note Name: F2, Velocity: 55
Note OFF: Time 23040, Note Name: F2
Note ON: Time 23040, Note Name: D3, Velocity: 65
Note OFF: Time 23160, Note Name: D3
Note ON: Time 23160, Note Name: C#3, Velocity: 58
Note OFF: Time 23280, Note Name: C#3
Note ON: Time 23280, Note Name: D3, Velocity: 63
Note OFF: Time 23400, Note Name: D3
Note ON: Time 23400, Note Name: A#2, Velocity: 57
Note OFF: Time 23520, Note Name: A#2
Note ON: Time 23520, Note Name: F3, Velocity: 65
Note OFF: Time 23640, Note Name: F3
Note ON: Time 23640, Note Name: E3, Velocity: 58
Note OFF: Time 23760, Note Name: E3
Note ON: Time 23760, Note Name: F3, Velocity: 63
Note OFF: Time 23880, Note Name: F3
Note ON: Time 23880, Note Name: D3, Velocity: 57
Note OFF: Time 24000, Note Name: D3
Note ON: Time 24000, Note Name: A#3, Velocity: 65
Note OFF: Time 24120, Note Name: A#3
Note ON: Time 24120, Note Name: A3, Velocity: 58
Note OFF: Time 24240, Note Name: A3
Note ON: Time 24240, Note Name: A#3, Velocity: 63
Note OFF: Time 24360, Note Name: A#3
Note ON: Time 24360, Note Name: F3, Velocity: 57
Note OFF: Time 24480, Note Name: F3
Note ON: Time 24480, Note Name: D4, Velocity: 63
Note OFF: Time 24600, Note Name: D4
Note ON: Time 24600, Note Name: C#4, Velocity: 58
Note OFF: Time 24720, Note Name: C#4
Note ON: Time 24720, Note Name: D4, Velocity: 62
Note OFF: Time 24840, Note Name: D4
Note ON: Time 24840, Note Name: A#3, Velocity: 57
Note OFF: Time 24960, Note Name: A#3
Note ON: Time 24960, Note Name: F4, Velocity: 72
Note OFF: Time 25800, Note Name: F4
Note ON: Time 25800, Note Name: D#4, Velocity: 63
Note OFF: Time 25920, Note Name: D#4
Note ON: Time 25920, Note Name: D4, Velocity: 71
Note OFF: Time 26280, Note Name: D4
Note ON: Time 26280, Note Name: C4, Velocity: 63
Note OFF: Time 26400, Note Name: C4
Note ON: Time 26400, Note Name: A#3, Velocity: 72
Note OFF: Time 26760, Note Name: A#3
Note ON: Time 26760, Note Name: G#3, Velocity: 63
Note OFF: Time 26880, Note Name: G#3
Note ON: Time 26880, Note Name: G3, Velocity: 72
Note OFF: Time 27840, Note Name: G3
Note ON: Time 27840, Note Name: G#3, Velocity: 48
Note OFF: Time 28320, Note Name: G#3
Note ON: Time 28320, Note Name: F#3, Velocity: 42
Note OFF: Time 28800, Note Name: F#3
Note ON: Time 28800, Note Name: G3, Velocity: 51
Note OFF: Time 29280, Note Name: G3
Note ON: Time 29280, Note Name: E3, Velocity: 44
Note OFF: Time 29760, Note Name: E3
Note ON: Time 29760, Note Name: F3, Velocity: 52
Note OFF: Time 30240, Note Name: F3
Note ON: Time 30240, Note Name: D3, Velocity: 34
Note OFF: Time 30720, Note Name: D3
Note ON: Time 30720, Note Name: C2, Velocity: 51
Note ON: Time 30720, Note Name: C3, Velocity: 51
Note OFF: Time 30960, Note Name: C3
Note OFF: Time 30960, Note Name: C2
Note ON: Time 30960, Note Name: C4, Velocity: 42
Note OFF: Time 31097, Note Name: C4
Note ON: Time 31200, Note Name: C4, Velocity: 42
Note OFF: Time 31337, Note Name: C4
Note ON: Time 31440, Note Name: C4, Velocity: 42
Note OFF: Time 31577, Note Name: C4
Note ON: Time 31680, Note Name: C4, Velocity: 51
Note OFF: Time 31817, Note Name: C4
Note ON: Time 31920, Note Name: C4, Velocity: 43
Note OFF: Time 32057, Note Name: C4
Note ON: Time 32160, Note Name: C4, Velocity: 43
Note OFF: Time 32297, Note Name: C4
Note ON: Time 32400, Note Name: C4, Velocity: 43
Note OFF: Time 32537, Note Name: C4
Note ON: Time 32640, Note Name: C4, Velocity: 51
Note OFF: Time 32777, Note Name: C4
Note ON: Time 32880, Note Name: C4, Velocity: 42
Note OFF: Time 33017, Note Name: C4
Note ON: Time 33120, Note Name: C4, Velocity: 42
Note OFF: Time 33257, Note Name: C4
Note ON: Time 33360, Note Name: C4, Velocity: 42
Note OFF: Time 33497, Note Name: C4
Note ON: Time 33600, Note Name: C4, Velocity: 51
Note OFF: Time 33737, Note Name: C4
Note ON: Time 33840, Note Name: C4, Velocity: 43
Note OFF: Time 33977, Note Name: C4
Note ON: Time 34080, Note Name: C4, Velocity: 43
Note OFF: Time 34217, Note Name: C4
Note ON: Time 34320, Note Name: C4, Velocity: 43
Note OFF: Time 34464, Note Name: C4
Note ON: Time 34560, Note Name: C2, Velocity: 51
Note ON: Time 34560, Note Name: C3, Velocity: 51
Note OFF: Time 34800, Note Name: C3
Note OFF: Time 34800, Note Name: C2
Note ON: Time 34800, Note Name: C4, Velocity: 42
Note OFF: Time 34937, Note Name: C4
Note ON: Time 35040, Note Name: C4, Velocity: 42
Note OFF: Time 35177, Note Name: C4
Note ON: Time 35280, Note Name: C4, Velocity: 42
Note OFF: Time 35417, Note Name: C4
Note ON: Time 35520, Note Name: C4, Velocity: 51
Note OFF: Time 35657, Note Name: C4
Note ON: Time 35760, Note Name: C4, Velocity: 43
Note OFF: Time 35897, Note Name: C4
Note ON: Time 36000, Note Name: C4, Velocity: 43
Note OFF: Time 36137, Note Name: C4
Note ON: Time 36240, Note Name: C4, Velocity: 43
Note OFF: Time 36377, Note Name: C4
Note ON: Time 36480, Note Name: C4, Velocity: 51
Note OFF: Time 36617, Note Name: C4
Note ON: Time 36720, Note Name: C4, Velocity: 42
Note OFF: Time 36857, Note Name: C4
Note ON: Time 36960, Note Name: C4, Velocity: 42
Note OFF: Time 37097, Note Name: C4
Note ON: Time 37200, Note Name: C4, Velocity: 42
Note OFF: Time 37337, Note Name: C4
Note ON: Time 37440, Note Name: C4, Velocity: 51
Note OFF: Time 37577, Note Name: C4
Note ON: Time 37680, Note Name: C4, Velocity: 43
Note OFF: Time 37817, Note Name: C4
Note ON: Time 37920, Note Name: C4, Velocity: 43
Note OFF: Time 38057, Note Name: C4
Note ON: Time 38160, Note Name: C4, Velocity: 43
Note OFF: Time 38304, Note Name: C4
Note ON: Time 38400, Note Name: C3, Velocity: 51
Note OFF: Time 38628, Note Name: C3
Note ON: Time 38640, Note Name: C4, Velocity: 43
Note OFF: Time 38777, Note Name: C4
Note ON: Time 38880, Note Name: C4, Velocity: 43
Note OFF: Time 39017, Note Name: C4
Note ON: Time 39120, Note Name: C4, Velocity: 43
Note OFF: Time 39264, Note Name: C4
Note ON: Time 39360, Note Name: C3, Velocity: 51
Note OFF: Time 39588, Note Name: C3
Note ON: Time 39600, Note Name: C4, Velocity: 43
Note OFF: Time 39737, Note Name: C4
Note ON: Time 39840, Note Name: C4, Velocity: 43
Note OFF: Time 39977, Note Name: C4
Note ON: Time 40080, Note Name: C4, Velocity: 43
Note OFF: Time 40224, Note Name: C4
Note ON: Time 40320, Note Name: C3, Velocity: 51
Note OFF: Time 40800, Note Name: C3
Note ON: Time 42360, Note Name: F3, Velocity: 31
Note ON: Time 42480, Note Name: G3, Velocity: 36
Note OFF: Time 42492, Note Name: F3
Note ON: Time 42600, Note Name: A3, Velocity: 31
Note OFF: Time 42612, Note Name: G3
Note ON: Time 42720, Note Name: A#3, Velocity: 36
Note OFF: Time 42732, Note Name: A3
Note ON: Time 42840, Note Name: C4, Velocity: 31
Note OFF: Time 42852, Note Name: A#3
Note ON: Time 42960, Note Name: D4, Velocity: 36
Note OFF: Time 42972, Note Name: C4
Note ON: Time 43080, Note Name: E4, Velocity: 29
Note OFF: Time 43092, Note Name: D4
Note ON: Time 43200, Note Name: F4, Velocity: 36
Note OFF: Time 43212, Note Name: E4
Note ON: Time 43320, Note Name: E4, Velocity: 29
Note OFF: Time 43332, Note Name: F4
Note ON: Time 43440, Note Name: F4, Velocity: 36
Note OFF: Time 43452, Note Name: E4
Note ON: Time 43560, Note Name: E4, Velocity: 29
Note OFF: Time 43572, Note Name: F4
Note ON: Time 43680, Note Name: F4, Velocity: 36
Note OFF: Time 43692, Note Name: E4
Note ON: Time 43800, Note Name: E4, Velocity: 27
Note OFF: Time 43812, Note Name: F4
Note ON: Time 43920, Note Name: F4, Velocity: 34
Note OFF: Time 43932, Note Name: E4
Note ON: Time 44040, Note Name: E4, Velocity: 26
Note OFF: Time 44052, Note Name: F4
Note OFF: Time 44160, Note Name: E4
Note ON: Time 44160, Note Name: F4, Velocity: 30
Note ON: Time 44280, Note Name: E4, Velocity: 25
Note OFF: Time 44292, Note Name: F4
Note ON: Time 44400, Note Name: F4, Velocity: 30
Note OFF: Time 44412, Note Name: E4
Note ON: Time 44520, Note Name: E4, Velocity: 25
Note OFF: Time 44532, Note Name: F4
Note ON: Time 44640, Note Name: F4, Velocity: 30
Note OFF: Time 44652, Note Name: E4
Note ON: Time 44760, Note Name: E4, Velocity: 25
Note OFF: Time 44772, Note Name: F4
Note ON: Time 44880, Note Name: F4, Velocity: 30
Note OFF: Time 44892, Note Name: E4
Note ON: Time 45000, Note Name: E4, Velocity: 25
Note OFF: Time 45012, Note Name: F4
Note ON: Time 45120, Note Name: F4, Velocity: 30
Note OFF: Time 45132, Note Name: E4
Note ON: Time 45240, Note Name: E4, Velocity: 25
Note OFF: Time 45252, Note Name: F4
Note ON: Time 45360, Note Name: F4, Velocity: 30
Note OFF: Time 45372, Note Name: E4
Note ON: Time 45480, Note Name: E4, Velocity: 25
Note OFF: Time 45492, Note Name: F4
Note ON: Time 45600, Note Name: F4, Velocity: 30
Note OFF: Time 45612, Note Name: E4
Note ON: Time 45720, Note Name: E4, Velocity: 25
Note OFF: Time 45732, Note Name: F4
Note ON: Time 45840, Note Name: F4, Velocity: 30
Note OFF: Time 45852, Note Name: E4
Note ON: Time 45960, Note Name: E4, Velocity: 25
Note OFF: Time 45972, Note Name: F4
Note OFF: Time 46080, Note Name: E4
Note ON: Time 46080, Note Name: F4, Velocity: 30
Note OFF: Time 46200, Note Name: F4
Note ON: Time 46200, Note Name: F3, Velocity: 31
Note ON: Time 46320, Note Name: G3, Velocity: 36
Note OFF: Time 46332, Note Name: F3
Note ON: Time 46440, Note Name: A3, Velocity: 31
Note OFF: Time 46452, Note Name: G3
Note ON: Time 46560, Note Name: A#3, Velocity: 36
Note OFF: Time 46572, Note Name: A3
Note ON: Time 46680, Note Name: C4, Velocity: 31
Note OFF: Time 46692, Note Name: A#3
Note ON: Time 46800, Note Name: D4, Velocity: 36
Note OFF: Time 46812, Note Name: C4
Note ON: Time 46920, Note Name: E4, Velocity: 29
Note OFF: Time 46932, Note Name: D4
Note ON: Time 47040, Note Name: F4, Velocity: 36
Note OFF: Time 47052, Note Name: E4
Note ON: Time 47160, Note Name: E4, Velocity: 29
Note OFF: Time 47172, Note Name: F4
Note ON: Time 47280, Note Name: F4, Velocity: 36
Note OFF: Time 47292, Note Name: E4
Note ON: Time 47400, Note Name: E4, Velocity: 29
Note OFF: Time 47412, Note Name: F4
Note ON: Time 47520, Note Name: F4, Velocity: 36
Note OFF: Time 47532, Note Name: E4
Note ON: Time 47640, Note Name: E4, Velocity: 27
Note OFF: Time 47652, Note Name: F4
Note ON: Time 47760, Note Name: F4, Velocity: 34
Note OFF: Time 47772, Note Name: E4
Note ON: Time 47880, Note Name: E4, Velocity: 26
Note OFF: Time 47892, Note Name: F4
Note OFF: Time 48000, Note Name: E4
Note ON: Time 48000, Note Name: F4, Velocity: 30
Note ON: Time 48120, Note Name: E4, Velocity: 25
Note OFF: Time 48132, Note Name: F4
Note ON: Time 48240, Note Name: F4, Velocity: 30
Note OFF: Time 48252, Note Name: E4
Note ON: Time 48360, Note Name: E4, Velocity: 25
Note OFF: Time 48372, Note Name: F4
Note ON: Time 48480, Note Name: F4, Velocity: 30
Note OFF: Time 48492, Note Name: E4
Note ON: Time 48600, Note Name: E4, Velocity: 25
Note OFF: Time 48612, Note Name: F4
Note ON: Time 48720, Note Name: F4, Velocity: 30
Note OFF: Time 48732, Note Name: E4
Note ON: Time 48840, Note Name: E4, Velocity: 25
Note OFF: Time 48852, Note Name: F4
Note ON: Time 48960, Note Name: F4, Velocity: 30
Note OFF: Time 48972, Note Name: E4
Note ON: Time 49080, Note Name: E4, Velocity: 25
Note OFF: Time 49092, Note Name: F4
Note ON: Time 49200, Note Name: F4, Velocity: 30
Note OFF: Time 49212, Note Name: E4
Note ON: Time 49320, Note Name: E4, Velocity: 25
Note OFF: Time 49332, Note Name: F4
Note ON: Time 49440, Note Name: F4, Velocity: 30
Note OFF: Time 49452, Note Name: E4
Note ON: Time 49560, Note Name: D#4, Velocity: 25
Note OFF: Time 49572, Note Name: F4
Note ON: Time 49680, Note Name: F4, Velocity: 30
Note OFF: Time 49692, Note Name: D#4
Note ON: Time 49800, Note Name: D#4, Velocity: 25
Note OFF: Time 49812, Note Name: F4
Note OFF: Time 49920, Note Name: D#4
Note ON: Time 49920, Note Name: C#4, Velocity: 39
Note ON: Time 50040, Note Name: D4, Velocity: 34
Note OFF: Time 50100, Note Name: C#4
Note OFF: Time 50160, Note Name: D4
Note ON: Time 50160, Note Name: C#4, Velocity: 39
Note ON: Time 50280, Note Name: D4, Velocity: 35
Note OFF: Time 50340, Note Name: C#4
Note OFF: Time 50400, Note Name: D4
Note ON: Time 50400, Note Name: B3, Velocity: 41
Note ON: Time 50520, Note Name: C4, Velocity: 35
Note OFF: Time 50580, Note Name: B3
Note OFF: Time 50640, Note Name: C4
Note ON: Time 50640, Note Name: B3, Velocity: 42
Note ON: Time 50760, Note Name: C4, Velocity: 36
Note OFF: Time 50820, Note Name: B3
Note OFF: Time 50880, Note Name: C4
Note ON: Time 50880, Note Name: G#3, Velocity: 44
Note ON: Time 51000, Note Name: A3, Velocity: 37
Note OFF: Time 51060, Note Name: G#3
Note OFF: Time 51120, Note Name: A3
Note ON: Time 51120, Note Name: G#3, Velocity: 45
Note ON: Time 51240, Note Name: A3, Velocity: 37
Note OFF: Time 51300, Note Name: G#3
Note OFF: Time 51360, Note Name: A3
Note ON: Time 51360, Note Name: F3, Velocity: 44
Note ON: Time 51480, Note Name: F#3, Velocity: 38
Note OFF: Time 51540, Note Name: F3
Note OFF: Time 51600, Note Name: F#3
Note ON: Time 51600, Note Name: F3, Velocity: 44
Note ON: Time 51720, Note Name: F#3, Velocity: 39
Note OFF: Time 51780, Note Name: F3
Note OFF: Time 51840, Note Name: F#3
Note ON: Time 51840, Note Name: C#3, Velocity: 45
Note ON: Time 51960, Note Name: D3, Velocity: 39
Note OFF: Time 52020, Note Name: C#3
Note OFF: Time 52080, Note Name: D3
Note ON: Time 52080, Note Name: C#3, Velocity: 46
Note ON: Time 52200, Note Name: D3, Velocity: 40
Note OFF: Time 52260, Note Name: C#3
Note OFF: Time 52320, Note Name: D3
Note ON: Time 52320, Note Name: B2, Velocity: 48
Note ON: Time 52440, Note Name: C3, Velocity: 41
Note OFF: Time 52500, Note Name: B2
Note OFF: Time 52560, Note Name: C3
Note ON: Time 52560, Note Name: B2, Velocity: 48
Note ON: Time 52680, Note Name: C3, Velocity: 41
Note OFF: Time 52740, Note Name: B2
Note OFF: Time 52800, Note Name: C3
Note ON: Time 52800, Note Name: G#2, Velocity: 54
Note ON: Time 52920, Note Name: A2, Velocity: 42
Note OFF: Time 52980, Note Name: G#2
Note OFF: Time 53040, Note Name: A2
Note ON: Time 53040, Note Name: G#2, Velocity: 52
Note ON: Time 53160, Note Name: A2, Velocity: 43
Note OFF: Time 53220, Note Name: G#2
Note OFF: Time 53280, Note Name: A2
Note ON: Time 53280, Note Name: F2, Velocity: 55
Note ON: Time 53400, Note Name: F#2, Velocity: 44
Note OFF: Time 53460, Note Name: F2
Note OFF: Time 53520, Note Name: F#2
Note ON: Time 53520, Note Name: F2, Velocity: 51
Note ON: Time 53640, Note Name: F#2, Velocity: 44
Note OFF: Time 53700, Note Name: F2
Note OFF: Time 53760, Note Name: F#2
Note ON: Time 53760, Note Name: C#2, Velocity: 57
Note ON: Time 53880, Note Name: D2, Velocity: 44
Note OFF: Time 53940, Note Name: C#2
Note OFF: Time 54000, Note Name: D2
Note ON: Time 54000, Note Name: C#2, Velocity: 51
Note ON: Time 54120, Note Name: D2, Velocity: 44
Note OFF: Time 54180, Note Name: C#2
Note OFF: Time 54240, Note Name: D2
Note ON: Time 54240, Note Name: C#2, Velocity: 56
Note ON: Time 54360, Note Name: D2, Velocity: 50
Note OFF: Time 54420, Note Name: C#2
Note OFF: Time 54480, Note Name: D2
Note ON: Time 54480, Note Name: C#2, Velocity: 57
Note ON: Time 54600, Note Name: D2, Velocity: 44
Note OFF: Time 54660, Note Name: C#2
Note OFF: Time 54710, Note Name: D2
Note ON: Time 54720, Note Name: D2, Velocity: 61
Note ON: Time 54840, Note Name: D#2, Velocity: 52
Note OFF: Time 54900, Note Name: D2
Note OFF: Time 54960, Note Name: D#2
Note ON: Time 54960, Note Name: D2, Velocity: 58
Note ON: Time 55080, Note Name: D#2, Velocity: 52
Note OFF: Time 55140, Note Name: D2
Note OFF: Time 55200, Note Name: D#2
Note ON: Time 55200, Note Name: D#2, Velocity: 58
Note ON: Time 55320, Note Name: E2, Velocity: 44
Note OFF: Time 55380, Note Name: D#2
Note OFF: Time 55440, Note Name: E2
Note ON: Time 55440, Note Name: D#2, Velocity: 54
Note ON: Time 55560, Note Name: E2, Velocity: 44
Note OFF: Time 55620, Note Name: D#2
Note OFF: Time 55680, Note Name: E2
Note ON: Time 55680, Note Name: E2, Velocity: 56
Note ON: Time 55800, Note Name: F2, Velocity: 48
Note OFF: Time 55860, Note Name: E2
Note OFF: Time 55920, Note Name: F2
Note ON: Time 55920, Note Name: E2, Velocity: 51
Note ON: Time 56040, Note Name: F2, Velocity: 44
Note OFF: Time 56100, Note Name: E2
Note OFF: Time 56160, Note Name: F2
Note ON: Time 56160, Note Name: E2, Velocity: 51
Note ON: Time 56280, Note Name: F2, Velocity: 44
Note OFF: Time 56340, Note Name: E2
Note OFF: Time 56400, Note Name: F2
Note ON: Time 56400, Note Name: E2, Velocity: 51
Note ON: Time 56520, Note Name: F2, Velocity: 44
Note OFF: Time 56580, Note Name: E2
Note OFF: Time 56630, Note Name: F2
Note ON: Time 56640, Note Name: A1, Velocity: 51
Note ON: Time 56760, Note Name: A#1, Velocity: 44
Note OFF: Time 56820, Note Name: A1
Note OFF: Time 56880, Note Name: A#1
Note ON: Time 56880, Note Name: A1, Velocity: 51
Note ON: Time 57000, Note Name: A#1, Velocity: 44
Note OFF: Time 57060, Note Name: A1
Note OFF: Time 57110, Note Name: A#1
Note ON: Time 57120, Note Name: B1, Velocity: 51
Note ON: Time 57240, Note Name: C2, Velocity: 44
Note OFF: Time 57300, Note Name: B1
Note OFF: Time 57360, Note Name: C2
Note ON: Time 57360, Note Name: B1, Velocity: 51
Note ON: Time 57480, Note Name: C2, Velocity: 44
Note OFF: Time 57540, Note Name: B1
Note OFF: Time 57590, Note Name: C2
Note ON: Time 57600, Note Name: F1, Velocity: 48
Note OFF: Time 57840, Note Name: F1
Note ON: Time 58560, Note Name: F3, Velocity: 54
Note ON: Time 58560, Note Name: A3, Velocity: 64
Note OFF: Time 59510, Note Name: F3
Note OFF: Time 59520, Note Name: A3
Note ON: Time 59520, Note Name: D3, Velocity: 41
Note ON: Time 59520, Note Name: F3, Velocity: 49
Note OFF: Time 59990, Note Name: D3
Note OFF: Time 60000, Note Name: F3
Note ON: Time 60000, Note Name: A#2, Velocity: 41
Note ON: Time 60000, Note Name: D3, Velocity: 49
Note OFF: Time 60240, Note Name: D3
Note OFF: Time 60240, Note Name: A#2
Note ON: Time 60480, Note Name: G3, Velocity: 54
Note ON: Time 60480, Note Name: A#3, Velocity: 64
Note OFF: Time 61200, Note Name: A#3
Note OFF: Time 61200, Note Name: G3
Note ON: Time 61200, Note Name: F3, Velocity: 41
Note ON: Time 61200, Note Name: A3, Velocity: 49
Note OFF: Time 61440, Note Name: A3
Note OFF: Time 61440, Note Name: F3
Note ON: Time 61440, Note Name: E3, Velocity: 49
Note ON: Time 61440, Note Name: G3, Velocity: 58
Note OFF: Time 61910, Note Name: E3
Note OFF: Time 61920, Note Name: G3
Note ON: Time 61920, Note Name: C3, Velocity: 44
Note ON: Time 61920, Note Name: E3, Velocity: 52
Note OFF: Time 62160, Note Name: E3
Note OFF: Time 62160, Note Name: C3
Note ON: Time 62400, Note Name: A3, Velocity: 54
Note ON: Time 62400, Note Name: C4, Velocity: 64
Note OFF: Time 63350, Note Name: A3
Note OFF: Time 63360, Note Name: C4
Note ON: Time 63360, Note Name: F3, Velocity: 41
Note ON: Time 63360, Note Name: A3, Velocity: 49
Note OFF: Time 63830, Note Name: F3
Note OFF: Time 63840, Note Name: A3
Note ON: Time 63840, Note Name: D3, Velocity: 41
Note ON: Time 63840, Note Name: F3, Velocity: 49
Note OFF: Time 64080, Note Name: F3
Note OFF: Time 64080, Note Name: D3
Note ON: Time 64320, Note Name: A#3, Velocity: 54
Note ON: Time 64320, Note Name: D4, Velocity: 64
Note OFF: Time 65040, Note Name: D4
Note OFF: Time 65040, Note Name: A#3
Note ON: Time 65040, Note Name: A3, Velocity: 41
Note ON: Time 65040, Note Name: C4, Velocity: 49
Note OFF: Time 65280, Note Name: C4
Note OFF: Time 65280, Note Name: A3
Note ON: Time 65280, Note Name: G3, Velocity: 49
Note ON: Time 65280, Note Name: A#3, Velocity: 58
Note OFF: Time 65750, Note Name: G3
Note OFF: Time 65760, Note Name: A#3
Note ON: Time 65760, Note Name: E3, Velocity: 44
Note ON: Time 65760, Note Name: G3, Velocity: 52
Note OFF: Time 66000, Note Name: G3
Note OFF: Time 66000, Note Name: E3
Note ON: Time 66240, Note Name: A#3, Velocity: 54
Note ON: Time 66240, Note Name: G4, Velocity: 64
Note OFF: Time 66960, Note Name: G4
Note OFF: Time 66960, Note Name: A#3
Note ON: Time 66960, Note Name: A3, Velocity: 41
Note ON: Time 66960, Note Name: F4, Velocity: 49
Note OFF: Time 67200, Note Name: F4
Note OFF: Time 67200, Note Name: A3
Note ON: Time 67200, Note Name: G3, Velocity: 54
Note ON: Time 67200, Note Name: E4, Velocity: 64
Note OFF: Time 67920, Note Name: E4
Note OFF: Time 67920, Note Name: G3
Note ON: Time 67920, Note Name: F3, Velocity: 41
Note ON: Time 67920, Note Name: D4, Velocity: 41
Note OFF: Time 68160, Note Name: D4
Note OFF: Time 68160, Note Name: F3
Note ON: Time 68160, Note Name: E3, Velocity: 41
Note ON: Time 68160, Note Name: C4, Velocity: 49
Note OFF: Time 68640, Note Name: C4
Note OFF: Time 68640, Note Name: E3
Note ON: Time 68640, Note Name: D3, Velocity: 34
Note ON: Time 68640, Note Name: F3, Velocity: 41
Note OFF: Time 69120, Note Name: F3
Note OFF: Time 69120, Note Name: D3
Note ON: Time 69120, Note Name: C#3, Velocity: 36
Note ON: Time 69120, Note Name: E3, Velocity: 43
Note OFF: Time 69600, Note Name: E3
Note OFF: Time 69600, Note Name: C#3
Note ON: Time 69600, Note Name: A2, Velocity: 27
Note ON: Time 69600, Note Name: E3, Velocity: 32
Note OFF: Time 70080, Note Name: E3
Note OFF: Time 70080, Note Name: A2
Note ON: Time 70080, Note Name: A#2, Velocity: 33
Note ON: Time 70080, Note Name: D3, Velocity: 39
Note OFF: Time 70560, Note Name: D3
Note OFF: Time 70560, Note Name: A#2
Note ON: Time 70560, Note Name: B2, Velocity: 31
Note OFF: Time 71040, Note Name: B2
Note ON: Time 71040, Note Name: C3, Velocity: 38
Note OFF: Time 72000, Note Name: C3
Note ON: Time 72000, Note Name: C2, Velocity: 32
Note OFF: Time 72960, Note Name: C2
Note ON: Time 72960, Note Name: F1, Velocity: 35
Note OFF: Time 73920, Note Name: F1
Note ON: Time 73920, Note Name: A3, Velocity: 66
Note ON: Time 73920, Note Name: F3, Velocity: 55
Note OFF: Time 74640, Note Name: F3
Note OFF: Time 74640, Note Name: A3
Note ON: Time 74640, Note Name: F3, Velocity: 37
Note ON: Time 74640, Note Name: A3, Velocity: 44
Note OFF: Time 74760, Note Name: A3
Note OFF: Time 74760, Note Name: F3
Note ON: Time 74880, Note Name: D3, Velocity: 45
Note ON: Time 74880, Note Name: F3, Velocity: 53
Note OFF: Time 75000, Note Name: F3
Note OFF: Time 75000, Note Name: D3
Note ON: Time 75360, Note Name: A#2, Velocity: 39
Note ON: Time 75360, Note Name: D3, Velocity: 47
Note OFF: Time 75480, Note Name: D3
Note OFF: Time 75480, Note Name: A#2
Note ON: Time 75840, Note Name: A#3, Velocity: 66
Note ON: Time 75840, Note Name: G3, Velocity: 55
Note OFF: Time 76560, Note Name: G3
Note OFF: Time 76560, Note Name: A#3
Note ON: Time 76560, Note Name: F3, Velocity: 37
Note ON: Time 76560, Note Name: A3, Velocity: 44
Note OFF: Time 76680, Note Name: A3
Note OFF: Time 76680, Note Name: F3
Note ON: Time 76800, Note Name: E3, Velocity: 45
Note ON: Time 76800, Note Name: G3, Velocity: 53
Note OFF: Time 76920, Note Name: G3
Note OFF: Time 76920, Note Name: E3
Note ON: Time 77280, Note Name: C3, Velocity: 39
Note ON: Time 77280, Note Name: E3, Velocity: 47
Note OFF: Time 77400, Note Name: E3
Note OFF: Time 77400, Note Name: C3
Note ON: Time 77760, Note Name: C4, Velocity: 72
Note ON: Time 77760, Note Name: A3, Velocity: 60
Note OFF: Time 78480, Note Name: A3
Note OFF: Time 78480, Note Name: C4
Note ON: Time 78480, Note Name: A3, Velocity: 40
Note ON: Time 78480, Note Name: C4, Velocity: 48
Note OFF: Time 78600, Note Name: C4
Note OFF: Time 78600, Note Name: A3
Note ON: Time 78720, Note Name: F3, Velocity: 49
Note ON: Time 78720, Note Name: A3, Velocity: 58
Note OFF: Time 78840, Note Name: A3
Note OFF: Time 78840, Note Name: F3
Note ON: Time 79200, Note Name: D3, Velocity: 42
Note ON: Time 79200, Note Name: F3, Velocity: 51
Note OFF: Time 79320, Note Name: F3
Note OFF: Time 79320, Note Name: D3
Note ON: Time 79680, Note Name: D4, Velocity: 75
Note ON: Time 79680, Note Name: A#3, Velocity: 62
Note OFF: Time 80400, Note Name: A#3
Note OFF: Time 80400, Note Name: D4
Note ON: Time 80400, Note Name: A3, Velocity: 42
Note ON: Time 80400, Note Name: C4, Velocity: 50
Note OFF: Time 80520, Note Name: C4
Note OFF: Time 80520, Note Name: A3
Note ON: Time 80640, Note Name: G3, Velocity: 51
Note ON: Time 80640, Note Name: A#3, Velocity: 60
Note OFF: Time 80760, Note Name: A#3
Note OFF: Time 80760, Note Name: G3
Note ON: Time 81120, Note Name: E3, Velocity: 44
Note ON: Time 81120, Note Name: G3, Velocity: 53
Note OFF: Time 81240, Note Name: G3
Note OFF: Time 81240, Note Name: E3
Note ON: Time 81600, Note Name: G4, Velocity: 79
Note ON: Time 81600, Note Name: A#3, Velocity: 66
Note OFF: Time 82320, Note Name: A#3
Note OFF: Time 82320, Note Name: G4
Note ON: Time 82320, Note Name: A3, Velocity: 44
Note ON: Time 82320, Note Name: F4, Velocity: 52
Note OFF: Time 82440, Note Name: F4
Note OFF: Time 82440, Note Name: A3
Note ON: Time 82560, Note Name: E4, Velocity: 79
Note ON: Time 82560, Note Name: G3, Velocity: 66
Note OFF: Time 83280, Note Name: G3
Note OFF: Time 83280, Note Name: E4
Note ON: Time 83280, Note Name: F3, Velocity: 44
Note ON: Time 83280, Note Name: D4, Velocity: 52
Note OFF: Time 83400, Note Name: D4
Note OFF: Time 83400, Note Name: F3
Note ON: Time 83520, Note Name: E3, Velocity: 49
Note ON: Time 83520, Note Name: C4, Velocity: 58
Note OFF: Time 83640, Note Name: C4
Note OFF: Time 83640, Note Name: E3
Note ON: Time 84000, Note Name: D3, Velocity: 40
Note ON: Time 84000, Note Name: F3, Velocity: 49
Note OFF: Time 84120, Note Name: F3
Note OFF: Time 84120, Note Name: D3
Note ON: Time 84480, Note Name: C#3, Velocity: 34
Note ON: Time 84480, Note Name: E3, Velocity: 34
Note ON: Time 84480, Note Name: G3, Velocity: 40
Note OFF: Time 86400, Note Name: G3
Note OFF: Time 86400, Note Name: E3
Note OFF: Time 86400, Note Name: C#3
Note ON: Time 86400, Note Name: D3, Velocity: 34
Note ON: Time 86400, Note Name: F3, Velocity: 40
Note OFF: Time 88320, Note Name: F3
Note OFF: Time 88320, Note Name: D3
Note ON: Time 88320, Note Name: B2, Velocity: 34
Note ON: Time 88320, Note Name: D3, Velocity: 34
Note ON: Time 88320, Note Name: F3, Velocity: 40
Note OFF: Time 90240, Note Name: F3
Note OFF: Time 90240, Note Name: D3
Note OFF: Time 90240, Note Name: B2
Note ON: Time 90240, Note Name: A#2, Velocity: 57
Note ON: Time 90240, Note Name: C#3, Velocity: 57
Note ON: Time 90240, Note Name: E3, Velocity: 57
Note ON: Time 90240, Note Name: G3, Velocity: 68
Note OFF: Time 91440, Note Name: G3
Note OFF: Time 91440, Note Name: A#2
Note OFF: Time 91440, Note Name: C#3
Note OFF: Time 91440, Note Name: E3
Note ON: Time 91440, Note Name: A#2, Velocity: 50
Note ON: Time 91440, Note Name: C3, Velocity: 50
Note ON: Time 91440, Note Name: G3, Velocity: 60
Note OFF: Time 91560, Note Name: G3
Note OFF: Time 91560, Note Name: C3
Note OFF: Time 91560, Note Name: A#2
Note ON: Time 91680, Note Name: A#2, Velocity: 61
Note ON: Time 91680, Note Name: C3, Velocity: 61
Note ON: Time 91680, Note Name: G3, Velocity: 72
Note OFF: Time 91800, Note Name: G3
Note OFF: Time 91800, Note Name: C3
Note OFF: Time 91800, Note Name: A#2
Note ON: Time 91920, Note Name: A#2, Velocity: 51
Note ON: Time 91920, Note Name: C3, Velocity: 51
Note ON: Time 91920, Note Name: G3, Velocity: 61
Note OFF: Time 92040, Note Name: G3
Note OFF: Time 92040, Note Name: C3
Note OFF: Time 92040, Note Name: A#2
Note ON: Time 92160, Note Name: A2, Velocity: 73
Note ON: Time 92160, Note Name: C3, Velocity: 73
Note ON: Time 92160, Note Name: F3, Velocity: 73
Note OFF: Time 92640, Note Name: F3
Note OFF: Time 92640, Note Name: C3
Note OFF: Time 92640, Note Name: A2
Note ON: Time 92880, Note Name: E2, Velocity: 57
Note ON: Time 92880, Note Name: C3, Velocity: 68
Note OFF: Time 93000, Note Name: C3
Note OFF: Time 93000, Note Name: E2
Note ON: Time 93120, Note Name: F2, Velocity: 63
Note ON: Time 93120, Note Name: C3, Velocity: 75
Note OFF: Time 93240, Note Name: C3
Note OFF: Time 93240, Note Name: F2
Note ON: Time 93360, Note Name: A#2, Velocity: 56
Note ON: Time 93360, Note Name: C3, Velocity: 67
Note OFF: Time 93480, Note Name: C3
Note OFF: Time 93480, Note Name: A#2
Note ON: Time 93600, Note Name: A2, Velocity: 63
Note ON: Time 93600, Note Name: C3, Velocity: 75
Note OFF: Time 93720, Note Name: C3
Note OFF: Time 93720, Note Name: A2
Note ON: Time 93840, Note Name: E2, Velocity: 56
Note ON: Time 93840, Note Name: C3, Velocity: 67
Note OFF: Time 93960, Note Name: C3
Note OFF: Time 93960, Note Name: E2
Note ON: Time 94080, Note Name: F2, Velocity: 63
Note ON: Time 94080, Note Name: C3, Velocity: 75
Note OFF: Time 94200, Note Name: C3
Note OFF: Time 94200, Note Name: F2
Note ON: Time 94320, Note Name: A#2, Velocity: 56
Note ON: Time 94320, Note Name: C3, Velocity: 67
Note OFF: Time 94440, Note Name: C3
Note OFF: Time 94440, Note Name: A#2
Note ON: Time 94560, Note Name: A2, Velocity: 63
Note ON: Time 94560, Note Name: C3, Velocity: 75
Note OFF: Time 94680, Note Name: C3
Note OFF: Time 94680, Note Name: A2
Note ON: Time 94800, Note Name: E2, Velocity: 56
Note ON: Time 94800, Note Name: C3, Velocity: 67
Note OFF: Time 94920, Note Name: C3
Note OFF: Time 94920, Note Name: E2
Note ON: Time 95040, Note Name: F2, Velocity: 63
Note ON: Time 95040, Note Name: C3, Velocity: 75
Note OFF: Time 95160, Note Name: C3
Note OFF: Time 95160, Note Name: F2
Note ON: Time 95280, Note Name: A#2, Velocity: 56
Note ON: Time 95280, Note Name: C3, Velocity: 67
Note OFF: Time 95400, Note Name: C3
Note OFF: Time 95400, Note Name: A#2
Note ON: Time 95520, Note Name: A2, Velocity: 63
Note ON: Time 95520, Note Name: C3, Velocity: 75
Note OFF: Time 95640, Note Name: C3
Note OFF: Time 95640, Note Name: A2
Note ON: Time 95760, Note Name: E2, Velocity: 57
Note ON: Time 95760, Note Name: C3, Velocity: 68
Note OFF: Time 95880, Note Name: C3
Note OFF: Time 95880, Note Name: E2
Note ON: Time 96000, Note Name: F2, Velocity: 89
Note OFF: Time 96960, Note Name: F2
Note ON: Time 96960, Note Name: D2, Velocity: 80
Note OFF: Time 97920, Note Name: D2
Note ON: Time 97920, Note Name: A#1, Velocity: 88
Note OFF: Time 98880, Note Name: A#1
Note ON: Time 98880, Note Name: C2, Velocity: 84
Note OFF: Time 99840, Note Name: C2
Note ON: Time 99840, Note Name: F1, Velocity: 81
Note OFF: Time 99960, Note Name: F1
Note ON: Time 100080, Note Name: A#2, Velocity: 54
Note OFF: Time 100200, Note Name: A#2
Note ON: Time 100320, Note Name: A2, Velocity: 60
Note OFF: Time 100440, Note Name: A2
Note ON: Time 100560, Note Name: E2, Velocity: 54
Note OFF: Time 100680, Note Name: E2
Note ON: Time 100800, Note Name: F2, Velocity: 60
Note OFF: Time 100920, Note Name: F2
Note ON: Time 101040, Note Name: A#2, Velocity: 52
Note OFF: Time 101160, Note Name: A#2
Note ON: Time 101280, Note Name: A2, Velocity: 60
Note OFF: Time 101400, Note Name: A2
Note ON: Time 101520, Note Name: E2, Velocity: 58
Note OFF: Time 101640, Note Name: E2
Note ON: Time 101760, Note Name: F2, Velocity: 60
Note OFF: Time 101880, Note Name: F2
Note ON: Time 102000, Note Name: A#2, Velocity: 52
Note OFF: Time 102120, Note Name: A#2
Note ON: Time 102240, Note Name: A2, Velocity: 60
Note OFF: Time 102360, Note Name: A2
Note ON: Time 102480, Note Name: E2, Velocity: 58
Note OFF: Time 102600, Note Name: E2
Note ON: Time 102720, Note Name: F2, Velocity: 67
Note OFF: Time 102840, Note Name: F2
Note ON: Time 102960, Note Name: G2, Velocity: 59
Note OFF: Time 103080, Note Name: G2
Note ON: Time 103200, Note Name: F2, Velocity: 72
Note OFF: Time 103320, Note Name: F2
Note ON: Time 103440, Note Name: E2, Velocity: 67
Note OFF: Time 103560, Note Name: E2
Note ON: Time 103680, Note Name: D2, Velocity: 75
Note OFF: Time 103800, Note Name: D2
Note ON: Time 103920, Note Name: C2, Velocity: 77
Note OFF: Time 104040, Note Name: C2
Note ON: Time 104160, Note Name: A#1, Velocity: 80
Note OFF: Time 104280, Note Name: A#1
Note ON: Time 104400, Note Name: A1, Velocity: 82
Note OFF: Time 104520, Note Name: A1
Note ON: Time 104640, Note Name: G1, Velocity: 94
Note OFF: Time 106560, Note Name: G1
Note ON: Time 106560, Note Name: C2, Velocity: 87
Note OFF: Time 107520, Note Name: C2
Note ON: Time 107520, Note Name: F1, Velocity: 30
Note OFF: Time 107640, Note Name: F1
Note ON: Time 107640, Note Name: F2, Velocity: 26
Note OFF: Time 107760, Note Name: F2
Note ON: Time 107760, Note Name: F1, Velocity: 30
Note OFF: Time 107880, Note Name: F1
Note ON: Time 107880, Note Name: F2, Velocity: 25
Note OFF: Time 108000, Note Name: F2
Note ON: Time 108000, Note Name: F1, Velocity: 30
Note OFF: Time 108120, Note Name: F1
Note ON: Time 108120, Note Name: F2, Velocity: 26
Note OFF: Time 108240, Note Name: F2
Note ON: Time 108240, Note Name: F1, Velocity: 30
Note OFF: Time 108360, Note Name: F1
Note ON: Time 108360, Note Name: F2, Velocity: 27
Note OFF: Time 108480, Note Name: F2
Note ON: Time 108480, Note Name: F1, Velocity: 30
Note OFF: Time 108600, Note Name: F1
Note ON: Time 108600, Note Name: F2, Velocity: 27
Note OFF: Time 108720, Note Name: F2
Note ON: Time 108720, Note Name: F1, Velocity: 30
Note OFF: Time 108840, Note Name: F1
Note ON: Time 108840, Note Name: F2, Velocity: 25
Note OFF: Time 108960, Note Name: F2
Note ON: Time 108960, Note Name: F1, Velocity: 30
Note OFF: Time 109080, Note Name: F1
Note ON: Time 109080, Note Name: F2, Velocity: 26
Note OFF: Time 109200, Note Name: F2
Note ON: Time 109200, Note Name: F1, Velocity: 30
Note OFF: Time 109320, Note Name: F1
Note ON: Time 109320, Note Name: F2, Velocity: 26
Note OFF: Time 109440, Note Name: F2
Note ON: Time 109440, Note Name: F1, Velocity: 30
Note OFF: Time 109560, Note Name: F1
Note ON: Time 109560, Note Name: F2, Velocity: 26
Note OFF: Time 109680, Note Name: F2
Note ON: Time 109680, Note Name: F1, Velocity: 30
Note OFF: Time 109800, Note Name: F1
Note ON: Time 109800, Note Name: F2, Velocity: 25
Note OFF: Time 109920, Note Name: F2
Note ON: Time 109920, Note Name: F1, Velocity: 30
Note OFF: Time 110040, Note Name: F1
Note ON: Time 110040, Note Name: F2, Velocity: 26
Note OFF: Time 110160, Note Name: F2
Note ON: Time 110160, Note Name: F1, Velocity: 30
Note OFF: Time 110280, Note Name: F1
Note ON: Time 110280, Note Name: F2, Velocity: 27
Note OFF: Time 110400, Note Name: F2
Note ON: Time 110400, Note Name: F1, Velocity: 30
Note OFF: Time 110520, Note Name: F1
Note ON: Time 110520, Note Name: F2, Velocity: 27
Note OFF: Time 110640, Note Name: F2
Note ON: Time 110640, Note Name: F1, Velocity: 30
Note OFF: Time 110760, Note Name: F1
Note ON: Time 110760, Note Name: F2, Velocity: 25
Note OFF: Time 110880, Note Name: F2
Note ON: Time 110880, Note Name: F1, Velocity: 30
Note OFF: Time 111000, Note Name: F1
Note ON: Time 111000, Note Name: F2, Velocity: 26
Note OFF: Time 111120, Note Name: F2
Note ON: Time 111120, Note Name: F1, Velocity: 30
Note OFF: Time 111240, Note Name: F1
Note ON: Time 111240, Note Name: F2, Velocity: 26
Note OFF: Time 111360, Note Name: F2
Note ON: Time 111360, Note Name: F1, Velocity: 30
Note OFF: Time 111480, Note Name: F1
Note ON: Time 111480, Note Name: F2, Velocity: 26
Note OFF: Time 111600, Note Name: F2
Note ON: Time 111600, Note Name: F1, Velocity: 30
Note OFF: Time 111720, Note Name: F1
Note ON: Time 111720, Note Name: F2, Velocity: 25
Note OFF: Time 111840, Note Name: F2
Note ON: Time 111840, Note Name: F1, Velocity: 30
Note OFF: Time 111960, Note Name: F1
Note ON: Time 111960, Note Name: F2, Velocity: 26
Note OFF: Time 112080, Note Name: F2
Note ON: Time 112080, Note Name: F1, Velocity: 30
Note OFF: Time 112200, Note Name: F1
Note ON: Time 112200, Note Name: F2, Velocity: 27
Note OFF: Time 112320, Note Name: F2
Note ON: Time 112320, Note Name: F1, Velocity: 30
Note OFF: Time 112440, Note Name: F1
Note ON: Time 112440, Note Name: F2, Velocity: 27
Note OFF: Time 112560, Note Name: F2
Note ON: Time 112560, Note Name: F1, Velocity: 35
Note OFF: Time 112680, Note Name: F1
Note ON: Time 112680, Note Name: F2, Velocity: 29
Note OFF: Time 112800, Note Name: F2
Note ON: Time 112800, Note Name: F1, Velocity: 34
Note OFF: Time 112920, Note Name: F1
Note ON: Time 112920, Note Name: F2, Velocity: 26
Note OFF: Time 113040, Note Name: F2
Note ON: Time 113040, Note Name: F1, Velocity: 35
Note OFF: Time 113160, Note Name: F1
Note ON: Time 113160, Note Name: F2, Velocity: 31
Note OFF: Time 113280, Note Name: F2
Note ON: Time 113280, Note Name: F1, Velocity: 38
Note OFF: Time 113400, Note Name: F1
Note ON: Time 113400, Note Name: F2, Velocity: 30
Note OFF: Time 113520, Note Name: F2
Note ON: Time 113520, Note Name: F1, Velocity: 34
Note OFF: Time 113640, Note Name: F1
Note ON: Time 113640, Note Name: F2, Velocity: 25
Note OFF: Time 113760, Note Name: F2
Note ON: Time 113760, Note Name: F1, Velocity: 33
Note OFF: Time 113880, Note Name: F1
Note ON: Time 113880, Note Name: F2, Velocity: 26
Note OFF: Time 114000, Note Name: F2
Note ON: Time 114000, Note Name: F1, Velocity: 30
Note OFF: Time 114120, Note Name: F1
Note ON: Time 114120, Note Name: F2, Velocity: 27
Note OFF: Time 114240, Note Name: F2
Note ON: Time 114240, Note Name: F1, Velocity: 30
Note OFF: Time 114360, Note Name: F1
Note ON: Time 114360, Note Name: F2, Velocity: 27
Note OFF: Time 114480, Note Name: F2
Note ON: Time 114480, Note Name: F1, Velocity: 30
Note OFF: Time 114600, Note Name: F1
Note ON: Time 114600, Note Name: F2, Velocity: 25
Note OFF: Time 114720, Note Name: F2
Note ON: Time 114720, Note Name: F1, Velocity: 30
Note OFF: Time 114840, Note Name: F1
Note ON: Time 114840, Note Name: F2, Velocity: 26
Note OFF: Time 114960, Note Name: F2
Note ON: Time 114960, Note Name: F1, Velocity: 30
Note OFF: Time 115080, Note Name: F1
Note ON: Time 115080, Note Name: F2, Velocity: 26
Note OFF: Time 115200, Note Name: F2
Note ON: Time 115200, Note Name: F1, Velocity: 30
Note OFF: Time 115320, Note Name: F1
Note ON: Time 115320, Note Name: F2, Velocity: 25
Note OFF: Time 115440, Note Name: F2
Note ON: Time 115440, Note Name: F1, Velocity: 29
Note OFF: Time 115560, Note Name: F1
Note ON: Time 115560, Note Name: F2, Velocity: 24
Note OFF: Time 115680, Note Name: F2
Note ON: Time 115680, Note Name: F1, Velocity: 28
Note OFF: Time 115800, Note Name: F1
Note ON: Time 115800, Note Name: F2, Velocity: 24
Note OFF: Time 115920, Note Name: F2
Note ON: Time 115920, Note Name: F1, Velocity: 28
Note OFF: Time 116040, Note Name: F1
Note ON: Time 116040, Note Name: F2, Velocity: 25
Note OFF: Time 116160, Note Name: F2
Note ON: Time 116160, Note Name: F1, Velocity: 27
Note OFF: Time 116280, Note Name: F1
Note ON: Time 116280, Note Name: F2, Velocity: 24
Note OFF: Time 116400, Note Name: F2
Note ON: Time 116400, Note Name: F1, Velocity: 27
Note OFF: Time 116520, Note Name: F1
Note ON: Time 116520, Note Name: F2, Velocity: 22
Note OFF: Time 116640, Note Name: F2
Note ON: Time 116640, Note Name: F1, Velocity: 26
Note OFF: Time 116760, Note Name: F1
Note ON: Time 116760, Note Name: F2, Velocity: 22
Note OFF: Time 116880, Note Name: F2
Note ON: Time 116880, Note Name: F1, Velocity: 25
Note OFF: Time 117000, Note Name: F1
Note ON: Time 117000, Note Name: F2, Velocity: 22
Note OFF: Time 117120, Note Name: F2
Note ON: Time 117120, Note Name: F1, Velocity: 25
Note OFF: Time 117240, Note Name: F1
Note ON: Time 117240, Note Name: F2, Velocity: 21
Note OFF: Time 117360, Note Name: F2
Note ON: Time 117360, Note Name: F1, Velocity: 24
Note OFF: Time 117480, Note Name: F1
Note ON: Time 117480, Note Name: F2, Velocity: 20
Note OFF: Time 117600, Note Name: F2
Note ON: Time 117600, Note Name: F1, Velocity: 24
Note OFF: Time 117720, Note Name: F1
Note ON: Time 117720, Note Name: F2, Velocity: 20
Note OFF: Time 117840, Note Name: F2
Note ON: Time 117840, Note Name: F1, Velocity: 23
Note OFF: Time 117960, Note Name: F1
Note ON: Time 117960, Note Name: F2, Velocity: 20
Note OFF: Time 118080, Note Name: F2
Note ON: Time 118080, Note Name: F1, Velocity: 22
Note OFF: Time 118200, Note Name: F1
Note ON: Time 118200, Note Name: F2, Velocity: 20
Note OFF: Time 118320, Note Name: F2
Note ON: Time 118320, Note Name: F1, Velocity: 22
Note OFF: Time 118440, Note Name: F1
Note ON: Time 118440, Note Name: F2, Velocity: 18
Note OFF: Time 118560, Note Name: F2
Note ON: Time 118560, Note Name: F1, Velocity: 22
Note OFF: Time 118680, Note Name: F1
Note ON: Time 118680, Note Name: F2, Velocity: 19
Note OFF: Time 118800, Note Name: F2
Note ON: Time 118800, Note Name: F1, Velocity: 22
Note OFF: Time 118920, Note Name: F1
Note ON: Time 118920, Note Name: F2, Velocity: 19
Note OFF: Time 119040, Note Name: F2
Note ON: Time 119040, Note Name: F1, Velocity: 56
Note ON: Time 119040, Note Name: F2, Velocity: 66
Note OFF: Time 119760, Note Name: F2
Note OFF: Time 119760, Note Name: F1
Note ON: Time 119760, Note Name: G1, Velocity: 49
Note ON: Time 119760, Note Name: G2, Velocity: 59
Note OFF: Time 119880, Note Name: G2
Note OFF: Time 119880, Note Name: G1
Note ON: Time 120000, Note Name: A1, Velocity: 56
Note ON: Time 120000, Note Name: A2, Velocity: 66
Note OFF: Time 120720, Note Name: A2
Note OFF: Time 120720, Note Name: A1
Note ON: Time 120720, Note Name: A#1, Velocity: 50
Note ON: Time 120720, Note Name: A#2, Velocity: 60
Note OFF: Time 120840, Note Name: A#2
Note OFF: Time 120840, Note Name: A#1
Note ON: Time 120960, Note Name: C2, Velocity: 57
Note ON: Time 120960, Note Name: C3, Velocity: 68
Note OFF: Time 121680, Note Name: C3
Note OFF: Time 121680, Note Name: C2
Note ON: Time 121680, Note Name: D2, Velocity: 47
Note ON: Time 121680, Note Name: D3, Velocity: 56
Note OFF: Time 121800, Note Name: D3
Note OFF: Time 121800, Note Name: D2
Note ON: Time 121920, Note Name: E2, Velocity: 53
Note ON: Time 121920, Note Name: E3, Velocity: 63
Note OFF: Time 122040, Note Name: E3
Note OFF: Time 122040, Note Name: E2
Note ON: Time 122160, Note Name: F2, Velocity: 50
Note ON: Time 122160, Note Name: F3, Velocity: 60
Note OFF: Time 122280, Note Name: F3
Note OFF: Time 122280, Note Name: F2
Note ON: Time 122400, Note Name: G2, Velocity: 55
Note ON: Time 122400, Note Name: G3, Velocity: 65
Note OFF: Time 122520, Note Name: G3
Note OFF: Time 122520, Note Name: G2
Note ON: Time 122640, Note Name: A2, Velocity: 51
Note ON: Time 122640, Note Name: A3, Velocity: 61
Note OFF: Time 122760, Note Name: A3
Note OFF: Time 122760, Note Name: A2
Note ON: Time 122880, Note Name: A#2, Velocity: 61
Note ON: Time 122880, Note Name: A#3, Velocity: 72
Note OFF: Time 123600, Note Name: A#3
Note OFF: Time 123600, Note Name: A#2
Note ON: Time 123600, Note Name: A2, Velocity: 52
Note ON: Time 123600, Note Name: A3, Velocity: 63
Note OFF: Time 123720, Note Name: A3
Note OFF: Time 123720, Note Name: A2
Note ON: Time 123840, Note Name: G2, Velocity: 59
Note ON: Time 123840, Note Name: G3, Velocity: 69
Note OFF: Time 124560, Note Name: G3
Note OFF: Time 124560, Note Name: G2
Note ON: Time 124560, Note Name: F2, Velocity: 51
Note ON: Time 124560, Note Name: F3, Velocity: 61
Note OFF: Time 124680, Note Name: F3
Note OFF: Time 124680, Note Name: F2
Note ON: Time 124800, Note Name: E2, Velocity: 58
Note ON: Time 124800, Note Name: E3, Velocity: 69
Note OFF: Time 125520, Note Name: E3
Note OFF: Time 125520, Note Name: E2
Note ON: Time 125520, Note Name: D2, Velocity: 47
Note ON: Time 125520, Note Name: D3, Velocity: 56
Note OFF: Time 125640, Note Name: D3
Note OFF: Time 125640, Note Name: D2
Note ON: Time 125760, Note Name: C2, Velocity: 52
Note ON: Time 125760, Note Name: C3, Velocity: 62
Note OFF: Time 125880, Note Name: C3
Note OFF: Time 125880, Note Name: C2
Note ON: Time 126000, Note Name: A#1, Velocity: 49
Note ON: Time 126000, Note Name: A#2, Velocity: 58
Note OFF: Time 126120, Note Name: A#2
Note OFF: Time 126120, Note Name: A#1
Note ON: Time 126240, Note Name: A1, Velocity: 52
Note ON: Time 126240, Note Name: A2, Velocity: 62
Note OFF: Time 126360, Note Name: A2
Note OFF: Time 126360, Note Name: A1
Note ON: Time 126480, Note Name: G1, Velocity: 48
Note ON: Time 126480, Note Name: G2, Velocity: 57
Note OFF: Time 126600, Note Name: G2
Note OFF: Time 126600, Note Name: G1
Note ON: Time 126720, Note Name: F1, Velocity: 58
Note ON: Time 126720, Note Name: F2, Velocity: 69
Note OFF: Time 126840, Note Name: F2
Note OFF: Time 126840, Note Name: F1
Note ON: Time 127200, Note Name: C3, Velocity: 34
Note ON: Time 127200, Note Name: G3, Velocity: 34
Note ON: Time 127200, Note Name: A#3, Velocity: 41
Note OFF: Time 127320, Note Name: A#3
Note OFF: Time 127320, Note Name: G3
Note OFF: Time 127320, Note Name: C3
Note ON: Time 127680, Note Name: F3, Velocity: 41
Note ON: Time 127680, Note Name: A3, Velocity: 49
Note OFF: Time 127800, Note Name: A3
Note OFF: Time 127800, Note Name: F3
Note ON: Time 128160, Note Name: C4, Velocity: 34
Note ON: Time 128160, Note Name: G4, Velocity: 34
Note ON: Time 128160, Note Name: A#4, Velocity: 41
Note OFF: Time 128280, Note Name: A#4
Note OFF: Time 128280, Note Name: G4
Note OFF: Time 128280, Note Name: C4
Note ON: Time 128640, Note Name: F4, Velocity: 41
Note ON: Time 128640, Note Name: A4, Velocity: 49
Note OFF: Time 128760, Note Name: A4
Note OFF: Time 128760, Note Name: F4
Note ON: Time 129600, Note Name: C3, Velocity: 56
Note ON: Time 129600, Note Name: C4, Velocity: 67
Note OFF: Time 130080, Note Name: C4
Note OFF: Time 130080, Note Name: C3
Note ON: Time 130560, Note Name: F2, Velocity: 64
Note ON: Time 130560, Note Name: F3, Velocity: 76
Note OFF: Time 131040, Note Name: F3
Note OFF: Time 131040, Note Name: F2
Note ON: Time 132480, Note Name: A#1, Velocity: 30
Note ON: Time 132480, Note Name: A#2, Velocity: 36
Note OFF: Time 132570, Note Name: A#2
Note OFF: Time 132570, Note Name: A#1
Note ON: Time 132960, Note Name: A#1, Velocity: 27
Note ON: Time 132960, Note Name: A#2, Velocity: 32
Note OFF: Time 133050, Note Name: A#2
Note OFF: Time 133050, Note Name: A#1
Note ON: Time 134400, Note Name: A#1, Velocity: 30
Note ON: Time 134400, Note Name: A#2, Velocity: 36
Note OFF: Time 134490, Note Name: A#2
Note OFF: Time 134490, Note Name: A#1
Note ON: Time 134880, Note Name: A#1, Velocity: 27
Note ON: Time 134880, Note Name: A#2, Velocity: 32
Note OFF: Time 134970, Note Name: A#2
Note OFF: Time 134970, Note Name: A#1
Note ON: Time 138240, Note Name: A#2, Velocity: 44
Note OFF: Time 138360, Note Name: A#2
Note ON: Time 138360, Note Name: D3, Velocity: 31
Note OFF: Time 138480, Note Name: D3
Note ON: Time 138480, Note Name: F3, Velocity: 31
Note OFF: Time 138600, Note Name: F3
Note ON: Time 138600, Note Name: A#3, Velocity: 31
Note OFF: Time 138720, Note Name: A#3
Note ON: Time 138720, Note Name: A#2, Velocity: 44
Note OFF: Time 138840, Note Name: A#2
Note ON: Time 138840, Note Name: D3, Velocity: 32
Note OFF: Time 138960, Note Name: D3
Note ON: Time 138960, Note Name: F3, Velocity: 32
Note OFF: Time 139080, Note Name: F3
Note ON: Time 139080, Note Name: A#3, Velocity: 32
Note OFF: Time 139200, Note Name: A#3
Note ON: Time 139200, Note Name: A#2, Velocity: 44
Note OFF: Time 139320, Note Name: A#2
Note ON: Time 139320, Note Name: D3, Velocity: 33
Note OFF: Time 139440, Note Name: D3
Note ON: Time 139440, Note Name: F3, Velocity: 33
Note OFF: Time 139560, Note Name: F3
Note ON: Time 139560, Note Name: A#3, Velocity: 33
Note OFF: Time 139680, Note Name: A#3
Note ON: Time 139680, Note Name: A#2, Velocity: 44
Note OFF: Time 139800, Note Name: A#2
Note ON: Time 139800, Note Name: D3, Velocity: 33
Note OFF: Time 139920, Note Name: D3
Note ON: Time 139920, Note Name: F3, Velocity: 33
Note OFF: Time 140040, Note Name: F3
Note ON: Time 140040, Note Name: A#3, Velocity: 33
Note OFF: Time 140160, Note Name: A#3
Note ON: Time 140160, Note Name: A#2, Velocity: 44
Note OFF: Time 140280, Note Name: A#2
Note ON: Time 140280, Note Name: D#3, Velocity: 31
Note OFF: Time 140400, Note Name: D#3
Note ON: Time 140400, Note Name: G3, Velocity: 31
Note OFF: Time 140520, Note Name: G3
Note ON: Time 140520, Note Name: A#3, Velocity: 31
Note OFF: Time 140640, Note Name: A#3
Note ON: Time 140640, Note Name: A#2, Velocity: 42
Note OFF: Time 140760, Note Name: A#2
Note ON: Time 140760, Note Name: D#3, Velocity: 28
Note OFF: Time 140880, Note Name: D#3
Note ON: Time 140880, Note Name: G3, Velocity: 28
Note OFF: Time 141000, Note Name: G3
Note ON: Time 141000, Note Name: A#3, Velocity: 28
Note OFF: Time 141120, Note Name: A#3
Note ON: Time 141120, Note Name: A#2, Velocity: 41
Note OFF: Time 141240, Note Name: A#2
Note ON: Time 141240, Note Name: D#3, Velocity: 29
Note OFF: Time 141360, Note Name: D#3
Note ON: Time 141360, Note Name: F3, Velocity: 29
Note OFF: Time 141480, Note Name: F3
Note ON: Time 141480, Note Name: A3, Velocity: 29
Note OFF: Time 141600, Note Name: A3
Note ON: Time 141600, Note Name: A#2, Velocity: 41
Note OFF: Time 141720, Note Name: A#2
Note ON: Time 141720, Note Name: D#3, Velocity: 31
Note OFF: Time 141840, Note Name: D#3
Note ON: Time 141840, Note Name: F3, Velocity: 31
Note OFF: Time 141960, Note Name: F3
Note ON: Time 141960, Note Name: A3, Velocity: 31
Note OFF: Time 142080, Note Name: A3
Note ON: Time 142080, Note Name: A#2, Velocity: 44
Note OFF: Time 142200, Note Name: A#2
Note ON: Time 142200, Note Name: D3, Velocity: 31
Note OFF: Time 142320, Note Name: D3
Note ON: Time 142320, Note Name: F3, Velocity: 31
Note OFF: Time 142440, Note Name: F3
Note ON: Time 142440, Note Name: A#3, Velocity: 31
Note OFF: Time 142560, Note Name: A#3
Note ON: Time 142560, Note Name: A#2, Velocity: 44
Note OFF: Time 142680, Note Name: A#2
Note ON: Time 142680, Note Name: D3, Velocity: 32
Note OFF: Time 142800, Note Name: D3
Note ON: Time 142800, Note Name: F3, Velocity: 32
Note OFF: Time 142920, Note Name: F3
Note ON: Time 142920, Note Name: A#3, Velocity: 32
Note OFF: Time 143040, Note Name: A#3
Note ON: Time 143040, Note Name: A#2, Velocity: 44
Note OFF: Time 143160, Note Name: A#2
Note ON: Time 143160, Note Name: D3, Velocity: 32
Note OFF: Time 143280, Note Name: D3
Note ON: Time 143280, Note Name: F3, Velocity: 32
Note OFF: Time 143400, Note Name: F3
Note ON: Time 143400, Note Name: G#3, Velocity: 32
Note OFF: Time 143520, Note Name: G#3
Note ON: Time 143520, Note Name: A#2, Velocity: 44
Note OFF: Time 143640, Note Name: A#2
Note ON: Time 143640, Note Name: D3, Velocity: 32
Note OFF: Time 143760, Note Name: D3
Note ON: Time 143760, Note Name: F3, Velocity: 32
Note OFF: Time 143880, Note Name: F3
Note ON: Time 143880, Note Name: G#3, Velocity: 32
Note OFF: Time 144000, Note Name: G#3
Note ON: Time 144000, Note Name: A#2, Velocity: 44
Note OFF: Time 144120, Note Name: A#2
Note ON: Time 144120, Note Name: D#3, Velocity: 32
Note OFF: Time 144240, Note Name: D#3
Note ON: Time 144240, Note Name: G3, Velocity: 32
Note OFF: Time 144360, Note Name: G3
Note ON: Time 144360, Note Name: D#3, Velocity: 32
Note OFF: Time 144480, Note Name: D#3
Note ON: Time 144480, Note Name: A#2, Velocity: 44
Note OFF: Time 144600, Note Name: A#2
Note ON: Time 144600, Note Name: D#3, Velocity: 36
Note OFF: Time 144720, Note Name: D#3
Note ON: Time 144720, Note Name: G3, Velocity: 36
Note OFF: Time 144840, Note Name: G3
Note ON: Time 144840, Note Name: D#3, Velocity: 36
Note OFF: Time 144960, Note Name: D#3
Note ON: Time 144960, Note Name: A#2, Velocity: 48
Note OFF: Time 145080, Note Name: A#2
Note ON: Time 145080, Note Name: C3, Velocity: 37
Note OFF: Time 145200, Note Name: C3
Note ON: Time 145200, Note Name: D#3, Velocity: 38
Note OFF: Time 145320, Note Name: D#3
Note ON: Time 145320, Note Name: F3, Velocity: 40
Note OFF: Time 145440, Note Name: F3
Note ON: Time 145440, Note Name: A#2, Velocity: 50
Note OFF: Time 145560, Note Name: A#2
Note ON: Time 145560, Note Name: C3, Velocity: 40
Note OFF: Time 145680, Note Name: C3
Note ON: Time 145680, Note Name: D#3, Velocity: 39
Note OFF: Time 145800, Note Name: D#3
Note ON: Time 145800, Note Name: F3, Velocity: 43
Note OFF: Time 145920, Note Name: F3
Note ON: Time 145920, Note Name: A#2, Velocity: 60
Note OFF: Time 146040, Note Name: A#2
Note ON: Time 146400, Note Name: A#2, Velocity: 53
Note OFF: Time 146520, Note Name: A#2
Note ON: Time 146520, Note Name: A2, Velocity: 46
Note OFF: Time 146640, Note Name: A2
Note ON: Time 146640, Note Name: A#2, Velocity: 53
Note OFF: Time 146760, Note Name: A#2
Note ON: Time 146760, Note Name: G2, Velocity: 46
Note OFF: Time 146880, Note Name: G2
Note ON: Time 146880, Note Name: F2, Velocity: 60
Note OFF: Time 147000, Note Name: F2
Note ON: Time 147360, Note Name: D#3, Velocity: 53
Note OFF: Time 147480, Note Name: D#3
Note ON: Time 147480, Note Name: D3, Velocity: 46
Note OFF: Time 147600, Note Name: D3
Note ON: Time 147600, Note Name: D#3, Velocity: 53
Note OFF: Time 147720, Note Name: D#3
Note ON: Time 147720, Note Name: C3, Velocity: 46
Note OFF: Time 147840, Note Name: C3
Note ON: Time 147840, Note Name: A#2, Velocity: 60
Note OFF: Time 147960, Note Name: A#2
Note ON: Time 148320, Note Name: A#3, Velocity: 53
Note OFF: Time 148440, Note Name: A#3
Note ON: Time 148440, Note Name: A3, Velocity: 46
Note OFF: Time 148560, Note Name: A3
Note ON: Time 148560, Note Name: A#3, Velocity: 53
Note OFF: Time 148680, Note Name: A#3
Note ON: Time 148680, Note Name: G3, Velocity: 46
Note OFF: Time 148800, Note Name: G3
Note ON: Time 148800, Note Name: F3, Velocity: 60
Note OFF: Time 148920, Note Name: F3
Note ON: Time 149280, Note Name: D#4, Velocity: 60
Note OFF: Time 149400, Note Name: D#4
Note ON: Time 149400, Note Name: D4, Velocity: 52
Note OFF: Time 149520, Note Name: D4
Note ON: Time 149520, Note Name: D#4, Velocity: 60
Note OFF: Time 149640, Note Name: D#4
Note ON: Time 149640, Note Name: C4, Velocity: 52
Note OFF: Time 149760, Note Name: C4
Note ON: Time 149760, Note Name: A#3, Velocity: 69
Note OFF: Time 149880, Note Name: A#3
Note ON: Time 150000, Note Name: C4, Velocity: 53
Note OFF: Time 150120, Note Name: C4
Note ON: Time 150120, Note Name: D4, Velocity: 48
Note OFF: Time 150240, Note Name: D4
Note ON: Time 150240, Note Name: D#4, Velocity: 54
Note OFF: Time 150360, Note Name: D#4
Note ON: Time 150360, Note Name: F4, Velocity: 48
Note OFF: Time 150480, Note Name: F4
Note ON: Time 150480, Note Name: G4, Velocity: 48
Note OFF: Time 150600, Note Name: G4
Note ON: Time 150600, Note Name: A4, Velocity: 49
Note OFF: Time 150720, Note Name: A4
Note ON: Time 150720, Note Name: A#4, Velocity: 56
Note OFF: Time 150840, Note Name: A#4
Note ON: Time 150840, Note Name: A4, Velocity: 50
Note OFF: Time 150960, Note Name: A4
Note ON: Time 150960, Note Name: A#4, Velocity: 50
Note OFF: Time 151080, Note Name: A#4
Note ON: Time 151080, Note Name: C5, Velocity: 51
Note OFF: Time 151200, Note Name: C5
Note ON: Time 151200, Note Name: D5, Velocity: 58
Note OFF: Time 151320, Note Name: D5
Note ON: Time 151320, Note Name: C5, Velocity: 52
Note OFF: Time 151440, Note Name: C5
Note ON: Time 151440, Note Name: D5, Velocity: 52
Note OFF: Time 151560, Note Name: D5
Note ON: Time 151560, Note Name: E5, Velocity: 53
Note OFF: Time 151680, Note Name: E5
Note ON: Time 151680, Note Name: F5, Velocity: 73
Note OFF: Time 151800, Note Name: F5
Note ON: Time 152160, Note Name: F3, Velocity: 60
Note OFF: Time 152280, Note Name: F3
Note ON: Time 153120, Note Name: A#2, Velocity: 65
Note OFF: Time 153240, Note Name: A#2
Note ON: Time 153240, Note Name: A2, Velocity: 57
Note OFF: Time 153360, Note Name: A2
Note ON: Time 153360, Note Name: A#2, Velocity: 62
Note OFF: Time 153480, Note Name: A#2
Note ON: Time 153480, Note Name: F2, Velocity: 55
Note OFF: Time 153600, Note Name: F2
Note ON: Time 153600, Note Name: D3, Velocity: 65
Note OFF: Time 153720, Note Name: D3
Note ON: Time 153720, Note Name: C#3, Velocity: 58
Note OFF: Time 153840, Note Name: C#3
Note ON: Time 153840, Note Name: D3, Velocity: 63
Note OFF: Time 153960, Note Name: D3
Note ON: Time 153960, Note Name: A#2, Velocity: 57
Note OFF: Time 154080, Note Name: A#2
Note ON: Time 154080, Note Name: F3, Velocity: 65
Note OFF: Time 154200, Note Name: F3
Note ON: Time 154200, Note Name: E3, Velocity: 58
Note OFF: Time 154320, Note Name: E3
Note ON: Time 154320, Note Name: F3, Velocity: 63
Note OFF: Time 154440, Note Name: F3
Note ON: Time 154440, Note Name: D3, Velocity: 57
Note OFF: Time 154560, Note Name: D3
Note ON: Time 154560, Note Name: A#3, Velocity: 65
Note OFF: Time 154680, Note Name: A#3
Note ON: Time 154680, Note Name: A3, Velocity: 58
Note OFF: Time 154800, Note Name: A3
Note ON: Time 154800, Note Name: A#3, Velocity: 63
Note OFF: Time 154920, Note Name: A#3
Note ON: Time 154920, Note Name: F3, Velocity: 57
Note OFF: Time 155040, Note Name: F3
Note ON: Time 155040, Note Name: D4, Velocity: 63
Note OFF: Time 155160, Note Name: D4
Note ON: Time 155160, Note Name: C#4, Velocity: 58
Note OFF: Time 155280, Note Name: C#4
Note ON: Time 155280, Note Name: D4, Velocity: 62
Note OFF: Time 155400, Note Name: D4
Note ON: Time 155400, Note Name: A#3, Velocity: 57
Note OFF: Time 155520, Note Name: A#3
Note ON: Time 155520, Note Name: F4, Velocity: 72
Note OFF: Time 156360, Note Name: F4
Note ON: Time 156360, Note Name: D#4, Velocity: 63
Note OFF: Time 156480, Note Name: D#4
Note ON: Time 156480, Note Name: D4, Velocity: 71
Note OFF: Time 156840, Note Name: D4
Note ON: Time 156840, Note Name: C4, Velocity: 63
Note OFF: Time 156960, Note Name: C4
Note ON: Time 156960, Note Name: A#3, Velocity: 72
Note OFF: Time 157320, Note Name: A#3
Note ON: Time 157320, Note Name: G#3, Velocity: 63
Note OFF: Time 157440, Note Name: G#3
Note ON: Time 157440, Note Name: G3, Velocity: 72
Note OFF: Time 158400, Note Name: G3
Note ON: Time 158400, Note Name: G#3, Velocity: 48
Note OFF: Time 158880, Note Name: G#3
Note ON: Time 158880, Note Name: F#3, Velocity: 42
Note OFF: Time 159360, Note Name: F#3
Note ON: Time 159360, Note Name: G3, Velocity: 51
Note OFF: Time 159840, Note Name: G3
Note ON: Time 159840, Note Name: E3, Velocity: 44
Note OFF: Time 160320, Note Name: E3
Note ON: Time 160320, Note Name: F3, Velocity: 52
Note OFF: Time 160800, Note Name: F3
Note ON: Time 160800, Note Name: D3, Velocity: 34
Note OFF: Time 161280, Note Name: D3
Note ON: Time 161280, Note Name: C2, Velocity: 51
Note ON: Time 161280, Note Name: C3, Velocity: 51
Note OFF: Time 161520, Note Name: C3
Note OFF: Time 161520, Note Name: C2
Note ON: Time 161520, Note Name: C4, Velocity: 42
Note OFF: Time 161657, Note Name: C4
Note ON: Time 161760, Note Name: C4, Velocity: 42
Note OFF: Time 161897, Note Name: C4
Note ON: Time 162000, Note Name: C4, Velocity: 42
Note OFF: Time 162137, Note Name: C4
Note ON: Time 162240, Note Name: C4, Velocity: 51
Note OFF: Time 162377, Note Name: C4
Note ON: Time 162480, Note Name: C4, Velocity: 43
Note OFF: Time 162617, Note Name: C4
Note ON: Time 162720, Note Name: C4, Velocity: 43
Note OFF: Time 162857, Note Name: C4
Note ON: Time 162960, Note Name: C4, Velocity: 43
Note OFF: Time 163097, Note Name: C4
Note ON: Time 163200, Note Name: C4, Velocity: 51
Note OFF: Time 163337, Note Name: C4
Note ON: Time 163440, Note Name: C4, Velocity: 42
Note OFF: Time 163577, Note Name: C4
Note ON: Time 163680, Note Name: C4, Velocity: 42
Note OFF: Time 163817, Note Name: C4
Note ON: Time 163920, Note Name: C4, Velocity: 42
Note OFF: Time 164057, Note Name: C4
Note ON: Time 164160, Note Name: C4, Velocity: 51
Note OFF: Time 164297, Note Name: C4
Note ON: Time 164400, Note Name: C4, Velocity: 43
Note OFF: Time 164537, Note Name: C4
Note ON: Time 164640, Note Name: C4, Velocity: 43
Note OFF: Time 164777, Note Name: C4
Note ON: Time 164880, Note Name: C4, Velocity: 43
Note OFF: Time 165024, Note Name: C4
Note ON: Time 165120, Note Name: C2, Velocity: 51
Note ON: Time 165120, Note Name: C3, Velocity: 51
Note OFF: Time 165360, Note Name: C3
Note OFF: Time 165360, Note Name: C2
Note ON: Time 165360, Note Name: C4, Velocity: 42
Note OFF: Time 165497, Note Name: C4
Note ON: Time 165600, Note Name: C4, Velocity: 42
Note OFF: Time 165737, Note Name: C4
Note ON: Time 165840, Note Name: C4, Velocity: 42
Note OFF: Time 165977, Note Name: C4
Note ON: Time 166080, Note Name: C4, Velocity: 51
Note OFF: Time 166217, Note Name: C4
Note ON: Time 166320, Note Name: C4, Velocity: 43
Note OFF: Time 166457, Note Name: C4
Note ON: Time 166560, Note Name: C4, Velocity: 43
Note OFF: Time 166697, Note Name: C4
Note ON: Time 166800, Note Name: C4, Velocity: 43
Note OFF: Time 166937, Note Name: C4
Note ON: Time 167040, Note Name: C4, Velocity: 51
Note OFF: Time 167177, Note Name: C4
Note ON: Time 167280, Note Name: C4, Velocity: 42
Note OFF: Time 167417, Note Name: C4
Note ON: Time 167520, Note Name: C4, Velocity: 42
Note OFF: Time 167657, Note Name: C4
Note ON: Time 167760, Note Name: C4, Velocity: 42
Note OFF: Time 167897, Note Name: C4
Note ON: Time 168000, Note Name: C4, Velocity: 51
Note OFF: Time 168137, Note Name: C4
Note ON: Time 168240, Note Name: C4, Velocity: 43
Note OFF: Time 168377, Note Name: C4
Note ON: Time 168480, Note Name: C4, Velocity: 43
Note OFF: Time 168617, Note Name: C4
Note ON: Time 168720, Note Name: C4, Velocity: 43
Note OFF: Time 168864, Note Name: C4
Note ON: Time 168960, Note Name: C3, Velocity: 51
Note OFF: Time 169188, Note Name: C3
Note ON: Time 169200, Note Name: C4, Velocity: 43
Note OFF: Time 169337, Note Name: C4
Note ON: Time 169440, Note Name: C4, Velocity: 43
Note OFF: Time 169577, Note Name: C4
Note ON: Time 169680, Note Name: C4, Velocity: 43
Note OFF: Time 169824, Note Name: C4
Note ON: Time 169920, Note Name: C3, Velocity: 51
Note OFF: Time 170148, Note Name: C3
Note ON: Time 170160, Note Name: C4, Velocity: 43
Note OFF: Time 170297, Note Name: C4
Note ON: Time 170400, Note Name: C4, Velocity: 43
Note OFF: Time 170537, Note Name: C4
Note ON: Time 170640, Note Name: C4, Velocity: 43
Note OFF: Time 170784, Note Name: C4
Note ON: Time 170880, Note Name: C3, Velocity: 51
Note OFF: Time 171360, Note Name: C3
Note ON: Time 172920, Note Name: F3, Velocity: 31
Note ON: Time 173040, Note Name: G3, Velocity: 36
Note OFF: Time 173052, Note Name: F3
Note ON: Time 173160, Note Name: A3, Velocity: 31
Note OFF: Time 173172, Note Name: G3
Note ON: Time 173280, Note Name: A#3, Velocity: 36
Note OFF: Time 173292, Note Name: A3
Note ON: Time 173400, Note Name: C4, Velocity: 31
Note OFF: Time 173412, Note Name: A#3
Note ON: Time 173520, Note Name: D4, Velocity: 36
Note OFF: Time 173532, Note Name: C4
Note ON: Time 173640, Note Name: E4, Velocity: 29
Note OFF: Time 173652, Note Name: D4
Note ON: Time 173760, Note Name: F4, Velocity: 36
Note OFF: Time 173772, Note Name: E4
Note ON: Time 173880, Note Name: E4, Velocity: 29
Note OFF: Time 173892, Note Name: F4
Note ON: Time 174000, Note Name: F4, Velocity: 36
Note OFF: Time 174012, Note Name: E4
Note ON: Time 174120, Note Name: E4, Velocity: 29
Note OFF: Time 174132, Note Name: F4
Note ON: Time 174240, Note Name: F4, Velocity: 36
Note OFF: Time 174252, Note Name: E4
Note ON: Time 174360, Note Name: E4, Velocity: 27
Note OFF: Time 174372, Note Name: F4
Note ON: Time 174480, Note Name: F4, Velocity: 34
Note OFF: Time 174492, Note Name: E4
Note ON: Time 174600, Note Name: E4, Velocity: 26
Note OFF: Time 174612, Note Name: F4
Note OFF: Time 174720, Note Name: E4
Note ON: Time 174720, Note Name: F4, Velocity: 30
Note ON: Time 174840, Note Name: E4, Velocity: 25
Note OFF: Time 174852, Note Name: F4
Note ON: Time 174960, Note Name: F4, Velocity: 30
Note OFF: Time 174972, Note Name: E4
Note ON: Time 175080, Note Name: E4, Velocity: 25
Note OFF: Time 175092, Note Name: F4
Note ON: Time 175200, Note Name: F4, Velocity: 30
Note OFF: Time 175212, Note Name: E4
Note ON: Time 175320, Note Name: E4, Velocity: 25
Note OFF: Time 175332, Note Name: F4
Note ON: Time 175440, Note Name: F4, Velocity: 30
Note OFF: Time 175452, Note Name: E4
Note ON: Time 175560, Note Name: E4, Velocity: 25
Note OFF: Time 175572, Note Name: F4
Note ON: Time 175680, Note Name: F4, Velocity: 30
Note OFF: Time 175692, Note Name: E4
Note ON: Time 175800, Note Name: E4, Velocity: 25
Note OFF: Time 175812, Note Name: F4
Note ON: Time 175920, Note Name: F4, Velocity: 30
Note OFF: Time 175932, Note Name: E4
Note ON: Time 176040, Note Name: E4, Velocity: 25
Note OFF: Time 176052, Note Name: F4
Note ON: Time 176160, Note Name: F4, Velocity: 30
Note OFF: Time 176172, Note Name: E4
Note ON: Time 176280, Note Name: E4, Velocity: 25
Note OFF: Time 176292, Note Name: F4
Note ON: Time 176400, Note Name: F4, Velocity: 30
Note OFF: Time 176412, Note Name: E4
Note ON: Time 176520, Note Name: E4, Velocity: 25
Note OFF: Time 176532, Note Name: F4
Note OFF: Time 176640, Note Name: E4
Note ON: Time 176640, Note Name: F4, Velocity: 30
Note OFF: Time 176760, Note Name: F4
Note ON: Time 176760, Note Name: F3, Velocity: 31
Note ON: Time 176880, Note Name: G3, Velocity: 36
Note OFF: Time 176892, Note Name: F3
Note ON: Time 177000, Note Name: A3, Velocity: 31
Note OFF: Time 177012, Note Name: G3
Note ON: Time 177120, Note Name: A#3, Velocity: 36
Note OFF: Time 177132, Note Name: A3
Note ON: Time 177240, Note Name: C4, Velocity: 31
Note OFF: Time 177252, Note Name: A#3
Note ON: Time 177360, Note Name: D4, Velocity: 36
Note OFF: Time 177372, Note Name: C4
Note ON: Time 177480, Note Name: E4, Velocity: 29
Note OFF: Time 177492, Note Name: D4
Note ON: Time 177600, Note Name: F4, Velocity: 36
Note OFF: Time 177612, Note Name: E4
Note ON: Time 177720, Note Name: E4, Velocity: 29
Note OFF: Time 177732, Note Name: F4
Note ON: Time 177840, Note Name: F4, Velocity: 36
Note OFF: Time 177852, Note Name: E4
Note ON: Time 177960, Note Name: E4, Velocity: 29
Note OFF: Time 177972, Note Name: F4
Note ON: Time 178080, Note Name: F4, Velocity: 36
Note OFF: Time 178092, Note Name: E4
Note ON: Time 178200, Note Name: E4, Velocity: 27
Note OFF: Time 178212, Note Name: F4
Note ON: Time 178320, Note Name: F4, Velocity: 34
Note OFF: Time 178332, Note Name: E4
Note ON: Time 178440, Note Name: E4, Velocity: 26
Note OFF: Time 178452, Note Name: F4
Note OFF: Time 178560, Note Name: E4
Note ON: Time 178560, Note Name: F4, Velocity: 30
Note ON: Time 178680, Note Name: E4, Velocity: 25
Note OFF: Time 178692, Note Name: F4
Note ON: Time 178800, Note Name: F4, Velocity: 30
Note OFF: Time 178812, Note Name: E4
Note ON: Time 178920, Note Name: E4, Velocity: 25
Note OFF: Time 178932, Note Name: F4
Note ON: Time 179040, Note Name: F4, Velocity: 30
Note OFF: Time 179052, Note Name: E4
Note ON: Time 179160, Note Name: E4, Velocity: 25
Note OFF: Time 179172, Note Name: F4
Note ON: Time 179280, Note Name: F4, Velocity: 30
Note OFF: Time 179292, Note Name: E4
Note ON: Time 179400, Note Name: E4, Velocity: 25
Note OFF: Time 179412, Note Name: F4
Note ON: Time 179520, Note Name: F4, Velocity: 30
Note OFF: Time 179532, Note Name: E4
Note ON: Time 179640, Note Name: E4, Velocity: 25
Note OFF: Time 179652, Note Name: F4
Note ON: Time 179760, Note Name: F4, Velocity: 30
Note OFF: Time 179772, Note Name: E4
Note ON: Time 179880, Note Name: E4, Velocity: 25
Note OFF: Time 179892, Note Name: F4
Note ON: Time 180000, Note Name: F4, Velocity: 30
Note OFF: Time 180012, Note Name: E4
Note ON: Time 180120, Note Name: D#4, Velocity: 25
Note OFF: Time 180132, Note Name: F4
Note ON: Time 180240, Note Name: F4, Velocity: 30
Note OFF: Time 180252, Note Name: D#4
Note ON: Time 180360, Note Name: D#4, Velocity: 25
Note OFF: Time 180372, Note Name: F4
Note OFF: Time 180480, Note Name: D#4
Note ON: Time 180480, Note Name: C#4, Velocity: 39
Note ON: Time 180600, Note Name: D4, Velocity: 34
Note OFF: Time 180660, Note Name: C#4
Note OFF: Time 180720, Note Name: D4
Note ON: Time 180720, Note Name: C#4, Velocity: 39
Note ON: Time 180840, Note Name: D4, Velocity: 35
Note OFF: Time 180900, Note Name: C#4
Note OFF: Time 180960, Note Name: D4
Note ON: Time 180960, Note Name: B3, Velocity: 41
Note ON: Time 181080, Note Name: C4, Velocity: 35
Note OFF: Time 181140, Note Name: B3
Note OFF: Time 181200, Note Name: C4
Note ON: Time 181200, Note Name: B3, Velocity: 42
Note ON: Time 181320, Note Name: C4, Velocity: 36
Note OFF: Time 181380, Note Name: B3
Note OFF: Time 181440, Note Name: C4
Note ON: Time 181440, Note Name: G#3, Velocity: 44
Note ON: Time 181560, Note Name: A3, Velocity: 37
Note OFF: Time 181620, Note Name: G#3
Note OFF: Time 181680, Note Name: A3
Note ON: Time 181680, Note Name: G#3, Velocity: 45
Note ON: Time 181800, Note Name: A3, Velocity: 37
Note OFF: Time 181860, Note Name: G#3
Note OFF: Time 181920, Note Name: A3
Note ON: Time 181920, Note Name: F3, Velocity: 44
Note ON: Time 182040, Note Name: F#3, Velocity: 38
Note OFF: Time 182100, Note Name: F3
Note OFF: Time 182160, Note Name: F#3
Note ON: Time 182160, Note Name: F3, Velocity: 44
Note ON: Time 182280, Note Name: F#3, Velocity: 39
Note OFF: Time 182340, Note Name: F3
Note OFF: Time 182400, Note Name: F#3
Note ON: Time 182400, Note Name: C#3, Velocity: 45
Note ON: Time 182520, Note Name: D3, Velocity: 39
Note OFF: Time 182580, Note Name: C#3
Note OFF: Time 182640, Note Name: D3
Note ON: Time 182640, Note Name: C#3, Velocity: 46
Note ON: Time 182760, Note Name: D3, Velocity: 40
Note OFF: Time 182820, Note Name: C#3
Note OFF: Time 182880, Note Name: D3
Note ON: Time 182880, Note Name: B2, Velocity: 48
Note ON: Time 183000, Note Name: C3, Velocity: 41
Note OFF: Time 183060, Note Name: B2
Note OFF: Time 183120, Note Name: C3
Note ON: Time 183120, Note Name: B2, Velocity: 48
Note ON: Time 183240, Note Name: C3, Velocity: 41
Note OFF: Time 183300, Note Name: B2
Note OFF: Time 183360, Note Name: C3
Note ON: Time 183360, Note Name: G#2, Velocity: 54
Note ON: Time 183480, Note Name: A2, Velocity: 42
Note OFF: Time 183540, Note Name: G#2
Note OFF: Time 183600, Note Name: A2
Note ON: Time 183600, Note Name: G#2, Velocity: 52
Note ON: Time 183720, Note Name: A2, Velocity: 43
Note OFF: Time 183780, Note Name: G#2
Note OFF: Time 183840, Note Name: A2
Note ON: Time 183840, Note Name: F2, Velocity: 55
Note ON: Time 183960, Note Name: F#2, Velocity: 44
Note OFF: Time 184020, Note Name: F2
Note OFF: Time 184080, Note Name: F#2
Note ON: Time 184080, Note Name: F2, Velocity: 51
Note ON: Time 184200, Note Name: F#2, Velocity: 44
Note OFF: Time 184260, Note Name: F2
Note OFF: Time 184320, Note Name: F#2
Note ON: Time 184320, Note Name: C#2, Velocity: 57
Note ON: Time 184440, Note Name: D2, Velocity: 44
Note OFF: Time 184500, Note Name: C#2
Note OFF: Time 184560, Note Name: D2
Note ON: Time 184560, Note Name: C#2, Velocity: 51
Note ON: Time 184680, Note Name: D2, Velocity: 44
Note OFF: Time 184740, Note Name: C#2
Note OFF: Time 184800, Note Name: D2
Note ON: Time 184800, Note Name: C#2, Velocity: 56
Note ON: Time 184920, Note Name: D2, Velocity: 50
Note OFF: Time 184980, Note Name: C#2
Note OFF: Time 185040, Note Name: D2
Note ON: Time 185040, Note Name: C#2, Velocity: 57
Note ON: Time 185160, Note Name: D2, Velocity: 44
Note OFF: Time 185220, Note Name: C#2
Note OFF: Time 185270, Note Name: D2
Note ON: Time 185280, Note Name: D2, Velocity: 61
Note ON: Time 185400, Note Name: D#2, Velocity: 52
Note OFF: Time 185460, Note Name: D2
Note OFF: Time 185520, Note Name: D#2
Note ON: Time 185520, Note Name: D2, Velocity: 58
Note ON: Time 185640, Note Name: D#2, Velocity: 52
Note OFF: Time 185700, Note Name: D2
Note OFF: Time 185760, Note Name: D#2
Note ON: Time 185760, Note Name: D#2, Velocity: 58
Note ON: Time 185880, Note Name: E2, Velocity: 44
Note OFF: Time 185940, Note Name: D#2
Note OFF: Time 186000, Note Name: E2
Note ON: Time 186000, Note Name: D#2, Velocity: 54
Note ON: Time 186120, Note Name: E2, Velocity: 44
Note OFF: Time 186180, Note Name: D#2
Note OFF: Time 186240, Note Name: E2
Note ON: Time 186240, Note Name: E2, Velocity: 56
Note ON: Time 186360, Note Name: F2, Velocity: 48
Note OFF: Time 186420, Note Name: E2
Note OFF: Time 186480, Note Name: F2
Note ON: Time 186480, Note Name: E2, Velocity: 51
Note ON: Time 186600, Note Name: F2, Velocity: 44
Note OFF: Time 186660, Note Name: E2
Note OFF: Time 186720, Note Name: F2
Note ON: Time 186720, Note Name: E2, Velocity: 51
Note ON: Time 186840, Note Name: F2, Velocity: 44
Note OFF: Time 186900, Note Name: E2
Note OFF: Time 186960, Note Name: F2
Note ON: Time 186960, Note Name: E2, Velocity: 51
Note ON: Time 187080, Note Name: F2, Velocity: 44
Note OFF: Time 187140, Note Name: E2
Note OFF: Time 187190, Note Name: F2
Note ON: Time 187200, Note Name: A1, Velocity: 51
Note ON: Time 187320, Note Name: A#1, Velocity: 44
Note OFF: Time 187380, Note Name: A1
Note OFF: Time 187440, Note Name: A#1
Note ON: Time 187440, Note Name: A1, Velocity: 51
Note ON: Time 187560, Note Name: A#1, Velocity: 44
Note OFF: Time 187620, Note Name: A1
Note OFF: Time 187670, Note Name: A#1
Note ON: Time 187680, Note Name: B1, Velocity: 51
Note ON: Time 187800, Note Name: C2, Velocity: 44
Note OFF: Time 187860, Note Name: B1
Note OFF: Time 187920, Note Name: C2
Note ON: Time 187920, Note Name: B1, Velocity: 51
Note ON: Time 188040, Note Name: C2, Velocity: 44
Note OFF: Time 188100, Note Name: B1
Note OFF: Time 188150, Note Name: C2
Note ON: Time 188160, Note Name: F1, Velocity: 48
Note OFF: Time 188400, Note Name: F1
Note ON: Time 189120, Note Name: F3, Velocity: 54
Note ON: Time 189120, Note Name: A3, Velocity: 64
Note OFF: Time 190070, Note Name: F3
Note OFF: Time 190080, Note Name: A3
Note ON: Time 190080, Note Name: D3, Velocity: 41
Note ON: Time 190080, Note Name: F3, Velocity: 49
Note OFF: Time 190550, Note Name: D3
Note OFF: Time 190560, Note Name: F3
Note ON: Time 190560, Note Name: A#2, Velocity: 41
Note ON: Time 190560, Note Name: D3, Velocity: 49
Note OFF: Time 190800, Note Name: D3
Note OFF: Time 190800, Note Name: A#2
Note ON: Time 191040, Note Name: G3, Velocity: 54
Note ON: Time 191040, Note Name: A#3, Velocity: 64
Note OFF: Time 191760, Note Name: A#3
Note OFF: Time 191760, Note Name: G3
Note ON: Time 191760, Note Name: F3, Velocity: 41
Note ON: Time 191760, Note Name: A3, Velocity: 49
Note OFF: Time 192000, Note Name: A3
Note OFF: Time 192000, Note Name: F3
Note ON: Time 192000, Note Name: E3, Velocity: 49
Note ON: Time 192000, Note Name: G3, Velocity: 58
Note OFF: Time 192470, Note Name: E3
Note OFF: Time 192480, Note Name: G3
Note ON: Time 192480, Note Name: C3, Velocity: 44
Note ON: Time 192480, Note Name: E3, Velocity: 52
Note OFF: Time 192720, Note Name: E3
Note OFF: Time 192720, Note Name: C3
Note ON: Time 192960, Note Name: A3, Velocity: 54
Note ON: Time 192960, Note Name: C4, Velocity: 64
Note OFF: Time 193910, Note Name: A3
Note OFF: Time 193920, Note Name: C4
Note ON: Time 193920, Note Name: F3, Velocity: 41
Note ON: Time 193920, Note Name: A3, Velocity: 49
Note OFF: Time 194390, Note Name: F3
Note OFF: Time 194400, Note Name: A3
Note ON: Time 194400, Note Name: D3, Velocity: 41
Note ON: Time 194400, Note Name: F3, Velocity: 49
Note OFF: Time 194640, Note Name: F3
Note OFF: Time 194640, Note Name: D3
Note ON: Time 194880, Note Name: A#3, Velocity: 54
Note ON: Time 194880, Note Name: D4, Velocity: 64
Note OFF: Time 195600, Note Name: D4
Note OFF: Time 195600, Note Name: A#3
Note ON: Time 195600, Note Name: A3, Velocity: 41
Note ON: Time 195600, Note Name: C4, Velocity: 49
Note OFF: Time 195840, Note Name: C4
Note OFF: Time 195840, Note Name: A3
Note ON: Time 195840, Note Name: G3, Velocity: 49
Note ON: Time 195840, Note Name: A#3, Velocity: 58
Note OFF: Time 196310, Note Name: G3
Note OFF: Time 196320, Note Name: A#3
Note ON: Time 196320, Note Name: E3, Velocity: 44
Note ON: Time 196320, Note Name: G3, Velocity: 52
Note OFF: Time 196560, Note Name: G3
Note OFF: Time 196560, Note Name: E3
Note ON: Time 196800, Note Name: A#3, Velocity: 54
Note ON: Time 196800, Note Name: G4, Velocity: 64
Note OFF: Time 197520, Note Name: G4
Note OFF: Time 197520, Note Name: A#3
Note ON: Time 197520, Note Name: A3, Velocity: 41
Note ON: Time 197520, Note Name: F4, Velocity: 49
Note OFF: Time 197760, Note Name: F4
Note OFF: Time 197760, Note Name: A3
Note ON: Time 197760, Note Name: G3, Velocity: 54
Note ON: Time 197760, Note Name: E4, Velocity: 64
Note OFF: Time 198480, Note Name: E4
Note OFF: Time 198480, Note Name: G3
Note ON: Time 198480, Note Name: F3, Velocity: 41
Note ON: Time 198480, Note Name: D4, Velocity: 41
Note OFF: Time 198720, Note Name: D4
Note OFF: Time 198720, Note Name: F3
Note ON: Time 198720, Note Name: E3, Velocity: 41
Note ON: Time 198720, Note Name: C4, Velocity: 49
Note OFF: Time 199200, Note Name: C4
Note OFF: Time 199200, Note Name: E3
Note ON: Time 199200, Note Name: D3, Velocity: 34
Note ON: Time 199200, Note Name: F3, Velocity: 41
Note OFF: Time 199680, Note Name: F3
Note OFF: Time 199680, Note Name: D3
Note ON: Time 199680, Note Name: C#3, Velocity: 36
Note ON: Time 199680, Note Name: E3, Velocity: 43
Note OFF: Time 200160, Note Name: E3
Note OFF: Time 200160, Note Name: C#3
Note ON: Time 200160, Note Name: A2, Velocity: 27
Note ON: Time 200160, Note Name: E3, Velocity: 32
Note OFF: Time 200640, Note Name: E3
Note OFF: Time 200640, Note Name: A2
Note ON: Time 200640, Note Name: A#2, Velocity: 33
Note ON: Time 200640, Note Name: D3, Velocity: 39
Note OFF: Time 201120, Note Name: D3
Note OFF: Time 201120, Note Name: A#2
Note ON: Time 201120, Note Name: B2, Velocity: 31
Note OFF: Time 201600, Note Name: B2
Note ON: Time 201600, Note Name: C3, Velocity: 38
Note OFF: Time 202560, Note Name: C3
Note ON: Time 202560, Note Name: C2, Velocity: 32
Note OFF: Time 203520, Note Name: C2
Note ON: Time 203520, Note Name: F1, Velocity: 35
Note OFF: Time 204480, Note Name: F1
Note ON: Time 204480, Note Name: A3, Velocity: 66
Note ON: Time 204480, Note Name: F3, Velocity: 55
Note OFF: Time 205200, Note Name: F3
Note OFF: Time 205200, Note Name: A3
Note ON: Time 205200, Note Name: F3, Velocity: 37
Note ON: Time 205200, Note Name: A3, Velocity: 44
Note OFF: Time 205320, Note Name: A3
Note OFF: Time 205320, Note Name: F3
Note ON: Time 205440, Note Name: D3, Velocity: 45
Note ON: Time 205440, Note Name: F3, Velocity: 53
Note OFF: Time 205560, Note Name: F3
Note OFF: Time 205560, Note Name: D3
Note ON: Time 205920, Note Name: A#2, Velocity: 39
Note ON: Time 205920, Note Name: D3, Velocity: 47
Note OFF: Time 206040, Note Name: D3
Note OFF: Time 206040, Note Name: A#2
Note ON: Time 206400, Note Name: A#3, Velocity: 66
Note ON: Time 206400, Note Name: G3, Velocity: 55
Note OFF: Time 207120, Note Name: G3
Note OFF: Time 207120, Note Name: A#3
Note ON: Time 207120, Note Name: F3, Velocity: 37
Note ON: Time 207120, Note Name: A3, Velocity: 44
Note OFF: Time 207240, Note Name: A3
Note OFF: Time 207240, Note Name: F3
Note ON: Time 207360, Note Name: E3, Velocity: 45
Note ON: Time 207360, Note Name: G3, Velocity: 53
Note OFF: Time 207480, Note Name: G3
Note OFF: Time 207480, Note Name: E3
Note ON: Time 207840, Note Name: C3, Velocity: 39
Note ON: Time 207840, Note Name: E3, Velocity: 47
Note OFF: Time 207960, Note Name: E3
Note OFF: Time 207960, Note Name: C3
Note ON: Time 208320, Note Name: C4, Velocity: 72
Note ON: Time 208320, Note Name: A3, Velocity: 60
Note OFF: Time 209040, Note Name: A3
Note OFF: Time 209040, Note Name: C4
Note ON: Time 209040, Note Name: A3, Velocity: 40
Note ON: Time 209040, Note Name: C4, Velocity: 48
Note OFF: Time 209160, Note Name: C4
Note OFF: Time 209160, Note Name: A3
Note ON: Time 209280, Note Name: F3, Velocity: 49
Note ON: Time 209280, Note Name: A3, Velocity: 58
Note OFF: Time 209400, Note Name: A3
Note OFF: Time 209400, Note Name: F3
Note ON: Time 209760, Note Name: D3, Velocity: 42
Note ON: Time 209760, Note Name: F3, Velocity: 51
Note OFF: Time 209880, Note Name: F3
Note OFF: Time 209880, Note Name: D3
Note ON: Time 210240, Note Name: D4, Velocity: 75
Note ON: Time 210240, Note Name: A#3, Velocity: 62
Note OFF: Time 210960, Note Name: A#3
Note OFF: Time 210960, Note Name: D4
Note ON: Time 210960, Note Name: A3, Velocity: 42
Note ON: Time 210960, Note Name: C4, Velocity: 50
Note OFF: Time 211080, Note Name: C4
Note OFF: Time 211080, Note Name: A3
Note ON: Time 211200, Note Name: G3, Velocity: 51
Note ON: Time 211200, Note Name: A#3, Velocity: 60
Note OFF: Time 211320, Note Name: A#3
Note OFF: Time 211320, Note Name: G3
Note ON: Time 211680, Note Name: E3, Velocity: 44
Note ON: Time 211680, Note Name: G3, Velocity: 53
Note OFF: Time 211800, Note Name: G3
Note OFF: Time 211800, Note Name: E3
Note ON: Time 212160, Note Name: G4, Velocity: 79
Note ON: Time 212160, Note Name: A#3, Velocity: 66
Note OFF: Time 212880, Note Name: A#3
Note OFF: Time 212880, Note Name: G4
Note ON: Time 212880, Note Name: A3, Velocity: 44
Note ON: Time 212880, Note Name: F4, Velocity: 52
Note OFF: Time 213000, Note Name: F4
Note OFF: Time 213000, Note Name: A3
Note ON: Time 213120, Note Name: E4, Velocity: 79
Note ON: Time 213120, Note Name: G3, Velocity: 66
Note OFF: Time 213840, Note Name: G3
Note OFF: Time 213840, Note Name: E4
Note ON: Time 213840, Note Name: F3, Velocity: 44
Note ON: Time 213840, Note Name: D4, Velocity: 52
Note OFF: Time 213960, Note Name: D4
Note OFF: Time 213960, Note Name: F3
Note ON: Time 214080, Note Name: E3, Velocity: 49
Note ON: Time 214080, Note Name: C4, Velocity: 58
Note OFF: Time 214200, Note Name: C4
Note OFF: Time 214200, Note Name: E3
Note ON: Time 214560, Note Name: D3, Velocity: 40
Note ON: Time 214560, Note Name: F3, Velocity: 49
Note OFF: Time 214680, Note Name: F3
Note OFF: Time 214680, Note Name: D3
Note ON: Time 215040, Note Name: C#3, Velocity: 34
Note ON: Time 215040, Note Name: E3, Velocity: 34
Note ON: Time 215040, Note Name: G3, Velocity: 40
Note OFF: Time 216960, Note Name: G3
Note OFF: Time 216960, Note Name: E3
Note OFF: Time 216960, Note Name: C#3
Note ON: Time 216960, Note Name: D3, Velocity: 34
Note ON: Time 216960, Note Name: F3, Velocity: 40
Note OFF: Time 218880, Note Name: F3
Note OFF: Time 218880, Note Name: D3
Note ON: Time 218880, Note Name: B2, Velocity: 34
Note ON: Time 218880, Note Name: D3, Velocity: 34
Note ON: Time 218880, Note Name: F3, Velocity: 40
Note OFF: Time 220800, Note Name: F3
Note OFF: Time 220800, Note Name: D3
Note OFF: Time 220800, Note Name: B2
Note ON: Time 220800, Note Name: A#2, Velocity: 57
Note ON: Time 220800, Note Name: C#3, Velocity: 57
Note ON: Time 220800, Note Name: E3, Velocity: 57
Note ON: Time 220800, Note Name: G3, Velocity: 68
Note OFF: Time 222000, Note Name: G3
Note OFF: Time 222000, Note Name: A#2
Note OFF: Time 222000, Note Name: C#3
Note OFF: Time 222000, Note Name: E3
Note ON: Time 222000, Note Name: A#2, Velocity: 50
Note ON: Time 222000, Note Name: C3, Velocity: 50
Note ON: Time 222000, Note Name: G3, Velocity: 60
Note OFF: Time 222120, Note Name: G3
Note OFF: Time 222120, Note Name: C3
Note OFF: Time 222120, Note Name: A#2
Note ON: Time 222240, Note Name: A#2, Velocity: 61
Note ON: Time 222240, Note Name: C3, Velocity: 61
Note ON: Time 222240, Note Name: G3, Velocity: 72
Note OFF: Time 222360, Note Name: G3
Note OFF: Time 222360, Note Name: C3
Note OFF: Time 222360, Note Name: A#2
Note ON: Time 222480, Note Name: A#2, Velocity: 51
Note ON: Time 222480, Note Name: C3, Velocity: 51
Note ON: Time 222480, Note Name: G3, Velocity: 61
Note OFF: Time 222600, Note Name: G3
Note OFF: Time 222600, Note Name: C3
Note OFF: Time 222600, Note Name: A#2
Note ON: Time 222720, Note Name: A2, Velocity: 73
Note ON: Time 222720, Note Name: C3, Velocity: 73
Note ON: Time 222720, Note Name: F3, Velocity: 73
Note OFF: Time 223200, Note Name: F3
Note OFF: Time 223200, Note Name: C3
Note OFF: Time 223200, Note Name: A2
Note ON: Time 223440, Note Name: E2, Velocity: 57
Note ON: Time 223440, Note Name: C3, Velocity: 68
Note OFF: Time 223560, Note Name: C3
Note OFF: Time 223560, Note Name: E2
Note ON: Time 223680, Note Name: F2, Velocity: 63
Note ON: Time 223680, Note Name: C3, Velocity: 75
Note OFF: Time 223800, Note Name: C3
Note OFF: Time 223800, Note Name: F2
Note ON: Time 223920, Note Name: A#2, Velocity: 56
Note ON: Time 223920, Note Name: C3, Velocity: 67
Note OFF: Time 224040, Note Name: C3
Note OFF: Time 224040, Note Name: A#2
Note ON: Time 224160, Note Name: A2, Velocity: 63
Note ON: Time 224160, Note Name: C3, Velocity: 75
Note OFF: Time 224280, Note Name: C3
Note OFF: Time 224280, Note Name: A2
Note ON: Time 224400, Note Name: E2, Velocity: 56
Note ON: Time 224400, Note Name: C3, Velocity: 67
Note OFF: Time 224520, Note Name: C3
Note OFF: Time 224520, Note Name: E2
Note ON: Time 224640, Note Name: F2, Velocity: 63
Note ON: Time 224640, Note Name: C3, Velocity: 75
Note OFF: Time 224760, Note Name: C3
Note OFF: Time 224760, Note Name: F2
Note ON: Time 224880, Note Name: A#2, Velocity: 56
Note ON: Time 224880, Note Name: C3, Velocity: 67
Note OFF: Time 225000, Note Name: C3
Note OFF: Time 225000, Note Name: A#2
Note ON: Time 225120, Note Name: A2, Velocity: 63
Note ON: Time 225120, Note Name: C3, Velocity: 75
Note OFF: Time 225240, Note Name: C3
Note OFF: Time 225240, Note Name: A2
Note ON: Time 225360, Note Name: E2, Velocity: 56
Note ON: Time 225360, Note Name: C3, Velocity: 67
Note OFF: Time 225480, Note Name: C3
Note OFF: Time 225480, Note Name: E2
Note ON: Time 225600, Note Name: F2, Velocity: 63
Note ON: Time 225600, Note Name: C3, Velocity: 75
Note OFF: Time 225720, Note Name: C3
Note OFF: Time 225720, Note Name: F2
Note ON: Time 225840, Note Name: A#2, Velocity: 56
Note ON: Time 225840, Note Name: C3, Velocity: 67
Note OFF: Time 225960, Note Name: C3
Note OFF: Time 225960, Note Name: A#2
Note ON: Time 226080, Note Name: A2, Velocity: 63
Note ON: Time 226080, Note Name: C3, Velocity: 75
Note OFF: Time 226200, Note Name: C3
Note OFF: Time 226200, Note Name: A2
Note ON: Time 226320, Note Name: E2, Velocity: 57
Note ON: Time 226320, Note Name: C3, Velocity: 68
Note OFF: Time 226440, Note Name: C3
Note OFF: Time 226440, Note Name: E2
Note ON: Time 226560, Note Name: F2, Velocity: 89
Note OFF: Time 227520, Note Name: F2
Note ON: Time 227520, Note Name: D2, Velocity: 80
Note OFF: Time 228480, Note Name: D2
Note ON: Time 228480, Note Name: A#1, Velocity: 88
Note OFF: Time 229440, Note Name: A#1
Note ON: Time 229440, Note Name: C2, Velocity: 84
Note OFF: Time 230400, Note Name: C2
Note ON: Time 230400, Note Name: F1, Velocity: 81
Note OFF: Time 230520, Note Name: F1
Note ON: Time 230640, Note Name: A#2, Velocity: 54
Note OFF: Time 230760, Note Name: A#2
Note ON: Time 230880, Note Name: A2, Velocity: 60
Note OFF: Time 231000, Note Name: A2
Note ON: Time 231120, Note Name: E2, Velocity: 54
Note OFF: Time 231240, Note Name: E2
Note ON: Time 231360, Note Name: F2, Velocity: 60
Note OFF: Time 231480, Note Name: F2
Note ON: Time 231600, Note Name: A#2, Velocity: 52
Note OFF: Time 231720, Note Name: A#2
Note ON: Time 231840, Note Name: A2, Velocity: 60
Note OFF: Time 231960, Note Name: A2
Note ON: Time 232080, Note Name: E2, Velocity: 58
Note OFF: Time 232200, Note Name: E2
Note ON: Time 232320, Note Name: F2, Velocity: 60
Note OFF: Time 232440, Note Name: F2
Note ON: Time 232560, Note Name: A#2, Velocity: 52
Note OFF: Time 232680, Note Name: A#2
Note ON: Time 232800, Note Name: A2, Velocity: 60
Note OFF: Time 232920, Note Name: A2
Note ON: Time 233040, Note Name: E2, Velocity: 58
Note OFF: Time 233160, Note Name: E2
Note ON: Time 233280, Note Name: F2, Velocity: 67
Note OFF: Time 233400, Note Name: F2
Note ON: Time 233520, Note Name: G2, Velocity: 59
Note OFF: Time 233640, Note Name: G2
Note ON: Time 233760, Note Name: F2, Velocity: 72
Note OFF: Time 233880, Note Name: F2
Note ON: Time 234000, Note Name: E2, Velocity: 67
Note OFF: Time 234120, Note Name: E2
Note ON: Time 234240, Note Name: D2, Velocity: 75
Note OFF: Time 234360, Note Name: D2
Note ON: Time 234480, Note Name: C2, Velocity: 77
Note OFF: Time 234600, Note Name: C2
Note ON: Time 234720, Note Name: A#1, Velocity: 80
Note OFF: Time 234840, Note Name: A#1
Note ON: Time 234960, Note Name: A1, Velocity: 82
Note OFF: Time 235080, Note Name: A1
Note ON: Time 235200, Note Name: G1, Velocity: 94
Note OFF: Time 237120, Note Name: G1
Note ON: Time 237120, Note Name: C2, Velocity: 87
Note OFF: Time 238080, Note Name: C2
Note ON: Time 238080, Note Name: F1, Velocity: 30
Note OFF: Time 238200, Note Name: F1
Note ON: Time 238200, Note Name: F2, Velocity: 26
Note OFF: Time 238320, Note Name: F2
Note ON: Time 238320, Note Name: F1, Velocity: 30
Note OFF: Time 238440, Note Name: F1
Note ON: Time 238440, Note Name: F2, Velocity: 25
Note OFF: Time 238560, Note Name: F2
Note ON: Time 238560, Note Name: F1, Velocity: 30
Note OFF: Time 238680, Note Name: F1
Note ON: Time 238680, Note Name: F2, Velocity: 26
Note OFF: Time 238800, Note Name: F2
Note ON: Time 238800, Note Name: F1, Velocity: 30
Note OFF: Time 238920, Note Name: F1
Note ON: Time 238920, Note Name: F2, Velocity: 27
Note OFF: Time 239040, Note Name: F2
Note ON: Time 239040, Note Name: F1, Velocity: 30
Note OFF: Time 239160, Note Name: F1
Note ON: Time 239160, Note Name: F2, Velocity: 27
Note OFF: Time 239280, Note Name: F2
Note ON: Time 239280, Note Name: F1, Velocity: 30
Note OFF: Time 239400, Note Name: F1
Note ON: Time 239400, Note Name: F2, Velocity: 25
Note OFF: Time 239520, Note Name: F2
Note ON: Time 239520, Note Name: F1, Velocity: 30
Note OFF: Time 239640, Note Name: F1
Note ON: Time 239640, Note Name: F2, Velocity: 26
Note OFF: Time 239760, Note Name: F2
Note ON: Time 239760, Note Name: F1, Velocity: 30
Note OFF: Time 239880, Note Name: F1
Note ON: Time 239880, Note Name: F2, Velocity: 26
Note OFF: Time 240000, Note Name: F2
Note ON: Time 240000, Note Name: F1, Velocity: 30
Note OFF: Time 240120, Note Name: F1
Note ON: Time 240120, Note Name: F2, Velocity: 26
Note OFF: Time 240240, Note Name: F2
Note ON: Time 240240, Note Name: F1, Velocity: 30
Note OFF: Time 240360, Note Name: F1
Note ON: Time 240360, Note Name: F2, Velocity: 25
Note OFF: Time 240480, Note Name: F2
Note ON: Time 240480, Note Name: F1, Velocity: 30
Note OFF: Time 240600, Note Name: F1
Note ON: Time 240600, Note Name: F2, Velocity: 26
Note OFF: Time 240720, Note Name: F2
Note ON: Time 240720, Note Name: F1, Velocity: 30
Note OFF: Time 240840, Note Name: F1
Note ON: Time 240840, Note Name: F2, Velocity: 27
Note OFF: Time 240960, Note Name: F2
Note ON: Time 240960, Note Name: F1, Velocity: 30
Note OFF: Time 241080, Note Name: F1
Note ON: Time 241080, Note Name: F2, Velocity: 27
Note OFF: Time 241200, Note Name: F2
Note ON: Time 241200, Note Name: F1, Velocity: 30
Note OFF: Time 241320, Note Name: F1
Note ON: Time 241320, Note Name: F2, Velocity: 25
Note OFF: Time 241440, Note Name: F2
Note ON: Time 241440, Note Name: F1, Velocity: 30
Note OFF: Time 241560, Note Name: F1
Note ON: Time 241560, Note Name: F2, Velocity: 26
Note OFF: Time 241680, Note Name: F2
Note ON: Time 241680, Note Name: F1, Velocity: 30
Note OFF: Time 241800, Note Name: F1
Note ON: Time 241800, Note Name: F2, Velocity: 26
Note OFF: Time 241920, Note Name: F2
Note ON: Time 241920, Note Name: F1, Velocity: 30
Note OFF: Time 242040, Note Name: F1
Note ON: Time 242040, Note Name: F2, Velocity: 26
Note OFF: Time 242160, Note Name: F2
Note ON: Time 242160, Note Name: F1, Velocity: 30
Note OFF: Time 242280, Note Name: F1
Note ON: Time 242280, Note Name: F2, Velocity: 25
Note OFF: Time 242400, Note Name: F2
Note ON: Time 242400, Note Name: F1, Velocity: 30
Note OFF: Time 242520, Note Name: F1
Note ON: Time 242520, Note Name: F2, Velocity: 26
Note OFF: Time 242640, Note Name: F2
Note ON: Time 242640, Note Name: F1, Velocity: 30
Note OFF: Time 242760, Note Name: F1
Note ON: Time 242760, Note Name: F2, Velocity: 27
Note OFF: Time 242880, Note Name: F2
Note ON: Time 242880, Note Name: F1, Velocity: 30
Note OFF: Time 243000, Note Name: F1
Note ON: Time 243000, Note Name: F2, Velocity: 27
Note OFF: Time 243120, Note Name: F2
Note ON: Time 243120, Note Name: F1, Velocity: 35
Note OFF: Time 243240, Note Name: F1
Note ON: Time 243240, Note Name: F2, Velocity: 29
Note OFF: Time 243360, Note Name: F2
Note ON: Time 243360, Note Name: F1, Velocity: 34
Note OFF: Time 243480, Note Name: F1
Note ON: Time 243480, Note Name: F2, Velocity: 26
Note OFF: Time 243600, Note Name: F2
Note ON: Time 243600, Note Name: F1, Velocity: 35
Note OFF: Time 243720, Note Name: F1
Note ON: Time 243720, Note Name: F2, Velocity: 31
Note OFF: Time 243840, Note Name: F2
Note ON: Time 243840, Note Name: F1, Velocity: 38
Note OFF: Time 243960, Note Name: F1
Note ON: Time 243960, Note Name: F2, Velocity: 30
Note OFF: Time 244080, Note Name: F2
Note ON: Time 244080, Note Name: F1, Velocity: 34
Note OFF: Time 244200, Note Name: F1
Note ON: Time 244200, Note Name: F2, Velocity: 25
Note OFF: Time 244320, Note Name: F2
Note ON: Time 244320, Note Name: F1, Velocity: 33
Note OFF: Time 244440, Note Name: F1
Note ON: Time 244440, Note Name: F2, Velocity: 26
Note OFF: Time 244560, Note Name: F2
Note ON: Time 244560, Note Name: F1, Velocity: 30
Note OFF: Time 244680, Note Name: F1
Note ON: Time 244680, Note Name: F2, Velocity: 27
Note OFF: Time 244800, Note Name: F2
Note ON: Time 244800, Note Name: F1, Velocity: 30
Note OFF: Time 244920, Note Name: F1
Note ON: Time 244920, Note Name: F2, Velocity: 27
Note OFF: Time 245040, Note Name: F2
Note ON: Time 245040, Note Name: F1, Velocity: 30
Note OFF: Time 245160, Note Name: F1
Note ON: Time 245160, Note Name: F2, Velocity: 25
Note OFF: Time 245280, Note Name: F2
Note ON: Time 245280, Note Name: F1, Velocity: 30
Note OFF: Time 245400, Note Name: F1
Note ON: Time 245400, Note Name: F2, Velocity: 26
Note OFF: Time 245520, Note Name: F2
Note ON: Time 245520, Note Name: F1, Velocity: 30
Note OFF: Time 245640, Note Name: F1
Note ON: Time 245640, Note Name: F2, Velocity: 26
Note OFF: Time 245760, Note Name: F2
Note ON: Time 245760, Note Name: F1, Velocity: 30
Note OFF: Time 245880, Note Name: F1
Note ON: Time 245880, Note Name: F2, Velocity: 25
Note OFF: Time 246000, Note Name: F2
Note ON: Time 246000, Note Name: F1, Velocity: 29
Note OFF: Time 246120, Note Name: F1
Note ON: Time 246120, Note Name: F2, Velocity: 24
Note OFF: Time 246240, Note Name: F2
Note ON: Time 246240, Note Name: F1, Velocity: 28
Note OFF: Time 246360, Note Name: F1
Note ON: Time 246360, Note Name: F2, Velocity: 24
Note OFF: Time 246480, Note Name: F2
Note ON: Time 246480, Note Name: F1, Velocity: 28
Note OFF: Time 246600, Note Name: F1
Note ON: Time 246600, Note Name: F2, Velocity: 25
Note OFF: Time 246720, Note Name: F2
Note ON: Time 246720, Note Name: F1, Velocity: 27
Note OFF: Time 246840, Note Name: F1
Note ON: Time 246840, Note Name: F2, Velocity: 24
Note OFF: Time 246960, Note Name: F2
Note ON: Time 246960, Note Name: F1, Velocity: 27
Note OFF: Time 247080, Note Name: F1
Note ON: Time 247080, Note Name: F2, Velocity: 22
Note OFF: Time 247200, Note Name: F2
Note ON: Time 247200, Note Name: F1, Velocity: 26
Note OFF: Time 247320, Note Name: F1
Note ON: Time 247320, Note Name: F2, Velocity: 22
Note OFF: Time 247440, Note Name: F2
Note ON: Time 247440, Note Name: F1, Velocity: 25
Note OFF: Time 247560, Note Name: F1
Note ON: Time 247560, Note Name: F2, Velocity: 22
Note OFF: Time 247680, Note Name: F2
Note ON: Time 247680, Note Name: F1, Velocity: 25
Note OFF: Time 247800, Note Name: F1
Note ON: Time 247800, Note Name: F2, Velocity: 21
Note OFF: Time 247920, Note Name: F2
Note ON: Time 247920, Note Name: F1, Velocity: 24
Note OFF: Time 248040, Note Name: F1
Note ON: Time 248040, Note Name: F2, Velocity: 20
Note OFF: Time 248160, Note Name: F2
Note ON: Time 248160, Note Name: F1, Velocity: 24
Note OFF: Time 248280, Note Name: F1
Note ON: Time 248280, Note Name: F2, Velocity: 20
Note OFF: Time 248400, Note Name: F2
Note ON: Time 248400, Note Name: F1, Velocity: 23
Note OFF: Time 248520, Note Name: F1
Note ON: Time 248520, Note Name: F2, Velocity: 20
Note OFF: Time 248640, Note Name: F2
Note ON: Time 248640, Note Name: F1, Velocity: 22
Note OFF: Time 248760, Note Name: F1
Note ON: Time 248760, Note Name: F2, Velocity: 20
Note OFF: Time 248880, Note Name: F2
Note ON: Time 248880, Note Name: F1, Velocity: 22
Note OFF: Time 249000, Note Name: F1
Note ON: Time 249000, Note Name: F2, Velocity: 18
Note OFF: Time 249120, Note Name: F2
Note ON: Time 249120, Note Name: F1, Velocity: 22
Note OFF: Time 249240, Note Name: F1
Note ON: Time 249240, Note Name: F2, Velocity: 19
Note OFF: Time 249360, Note Name: F2
Note ON: Time 249360, Note Name: F1, Velocity: 22
Note OFF: Time 249480, Note Name: F1
Note ON: Time 249480, Note Name: F2, Velocity: 19
Note OFF: Time 249600, Note Name: F2
Note ON: Time 249600, Note Name: F1, Velocity: 56
Note ON: Time 249600, Note Name: F2, Velocity: 66
Note OFF: Time 250320, Note Name: F2
Note OFF: Time 250320, Note Name: F1
Note ON: Time 250320, Note Name: G1, Velocity: 49
Note ON: Time 250320, Note Name: G2, Velocity: 59
Note OFF: Time 250440, Note Name: G2
Note OFF: Time 250440, Note Name: G1
Note ON: Time 250560, Note Name: A1, Velocity: 56
Note ON: Time 250560, Note Name: A2, Velocity: 66
Note OFF: Time 251280, Note Name: A2
Note OFF: Time 251280, Note Name: A1
Note ON: Time 251280, Note Name: A#1, Velocity: 50
Note ON: Time 251280, Note Name: A#2, Velocity: 60
Note OFF: Time 251400, Note Name: A#2
Note OFF: Time 251400, Note Name: A#1
Note ON: Time 251520, Note Name: C2, Velocity: 57
Note ON: Time 251520, Note Name: C3, Velocity: 68
Note OFF: Time 252240, Note Name: C3
Note OFF: Time 252240, Note Name: C2
Note ON: Time 252240, Note Name: D2, Velocity: 47
Note ON: Time 252240, Note Name: D3, Velocity: 56
Note OFF: Time 252360, Note Name: D3
Note OFF: Time 252360, Note Name: D2
Note ON: Time 252480, Note Name: E2, Velocity: 53
Note ON: Time 252480, Note Name: E3, Velocity: 63
Note OFF: Time 252600, Note Name: E3
Note OFF: Time 252600, Note Name: E2
Note ON: Time 252720, Note Name: F2, Velocity: 50
Note ON: Time 252720, Note Name: F3, Velocity: 60
Note OFF: Time 252840, Note Name: F3
Note OFF: Time 252840, Note Name: F2
Note ON: Time 252960, Note Name: G2, Velocity: 55
Note ON: Time 252960, Note Name: G3, Velocity: 65
Note OFF: Time 253080, Note Name: G3
Note OFF: Time 253080, Note Name: G2
Note ON: Time 253200, Note Name: A2, Velocity: 51
Note ON: Time 253200, Note Name: A3, Velocity: 61
Note OFF: Time 253320, Note Name: A3
Note OFF: Time 253320, Note Name: A2
Note ON: Time 253440, Note Name: A#2, Velocity: 61
Note ON: Time 253440, Note Name: A#3, Velocity: 72
Note OFF: Time 254160, Note Name: A#3
Note OFF: Time 254160, Note Name: A#2
Note ON: Time 254160, Note Name: A2, Velocity: 52
Note ON: Time 254160, Note Name: A3, Velocity: 63
Note OFF: Time 254280, Note Name: A3
Note OFF: Time 254280, Note Name: A2
Note ON: Time 254400, Note Name: G2, Velocity: 59
Note ON: Time 254400, Note Name: G3, Velocity: 69
Note OFF: Time 255120, Note Name: G3
Note OFF: Time 255120, Note Name: G2
Note ON: Time 255120, Note Name: F2, Velocity: 51
Note ON: Time 255120, Note Name: F3, Velocity: 61
Note OFF: Time 255240, Note Name: F3
Note OFF: Time 255240, Note Name: F2
Note ON: Time 255360, Note Name: E2, Velocity: 58
Note ON: Time 255360, Note Name: E3, Velocity: 69
Note OFF: Time 256080, Note Name: E3
Note OFF: Time 256080, Note Name: E2
Note ON: Time 256080, Note Name: D2, Velocity: 47
Note ON: Time 256080, Note Name: D3, Velocity: 56
Note OFF: Time 256200, Note Name: D3
Note OFF: Time 256200, Note Name: D2
Note ON: Time 256320, Note Name: C2, Velocity: 52
Note ON: Time 256320, Note Name: C3, Velocity: 62
Note OFF: Time 256440, Note Name: C3
Note OFF: Time 256440, Note Name: C2
Note ON: Time 256560, Note Name: A#1, Velocity: 49
Note ON: Time 256560, Note Name: A#2, Velocity: 58
Note OFF: Time 256680, Note Name: A#2
Note OFF: Time 256680, Note Name: A#1
Note ON: Time 256800, Note Name: A1, Velocity: 52
Note ON: Time 256800, Note Name: A2, Velocity: 62
Note OFF: Time 256920, Note Name: A2
Note OFF: Time 256920, Note Name: A1
Note ON: Time 257040, Note Name: G1, Velocity: 48
Note ON: Time 257040, Note Name: G2, Velocity: 57
Note OFF: Time 257160, Note Name: G2
Note OFF: Time 257160, Note Name: G1
Note ON: Time 257280, Note Name: F1, Velocity: 58
Note ON: Time 257280, Note Name: F2, Velocity: 69
Note OFF: Time 257400, Note Name: F2
Note OFF: Time 257400, Note Name: F1
Note ON: Time 257760, Note Name: C3, Velocity: 34
Note ON: Time 257760, Note Name: G3, Velocity: 34
Note ON: Time 257760, Note Name: A#3, Velocity: 41
Note OFF: Time 257880, Note Name: A#3
Note OFF: Time 257880, Note Name: G3
Note OFF: Time 257880, Note Name: C3
Note ON: Time 258240, Note Name: F3, Velocity: 41
Note ON: Time 258240, Note Name: A3, Velocity: 49
Note OFF: Time 258360, Note Name: A3
Note OFF: Time 258360, Note Name: F3
Note ON: Time 258720, Note Name: C4, Velocity: 34
Note ON: Time 258720, Note Name: G4, Velocity: 34
Note ON: Time 258720, Note Name: A#4, Velocity: 41
Note OFF: Time 258840, Note Name: A#4
Note OFF: Time 258840, Note Name: G4
Note OFF: Time 258840, Note Name: C4
Note ON: Time 259200, Note Name: F4, Velocity: 41
Note ON: Time 259200, Note Name: A4, Velocity: 49
Note OFF: Time 259320, Note Name: A4
Note OFF: Time 259320, Note Name: F4
Note ON: Time 260160, Note Name: C3, Velocity: 56
Note ON: Time 260160, Note Name: C4, Velocity: 67
Note OFF: Time 260640, Note Name: C4
Note OFF: Time 260640, Note Name: C3
Note ON: Time 261120, Note Name: F2, Velocity: 64
Note ON: Time 261120, Note Name: F3, Velocity: 76
Note OFF: Time 261600, Note Name: F3
Note OFF: Time 261600, Note Name: F2
Note ON: Time 263520, Note Name: C3, Velocity: 42
Note OFF: Time 263640, Note Name: C3
Note ON: Time 263640, Note Name: B2, Velocity: 40
Note OFF: Time 263760, Note Name: B2
Note ON: Time 263760, Note Name: C3, Velocity: 45
Note OFF: Time 263880, Note Name: C3
Note ON: Time 263880, Note Name: A2, Velocity: 39
Note OFF: Time 264000, Note Name: A2
Note ON: Time 264000, Note Name: F3, Velocity: 50
Note OFF: Time 264120, Note Name: F3
Note ON: Time 265440, Note Name: C3, Velocity: 42
Note OFF: Time 265560, Note Name: C3
Note ON: Time 265560, Note Name: B2, Velocity: 40
Note OFF: Time 265680, Note Name: B2
Note ON: Time 265680, Note Name: C3, Velocity: 45
Note OFF: Time 265800, Note Name: C3
Note ON: Time 265800, Note Name: A2, Velocity: 39
Note OFF: Time 265920, Note Name: A2
Note ON: Time 265920, Note Name: F3, Velocity: 50
Note OFF: Time 266040, Note Name: F3
Note ON: Time 266880, Note Name: F2, Velocity: 56
Note ON: Time 266880, Note Name: F3, Velocity: 66
Note OFF: Time 267600, Note Name: F3
Note OFF: Time 267600, Note Name: F2
Note ON: Time 267600, Note Name: G2, Velocity: 49
Note ON: Time 267600, Note Name: G3, Velocity: 59
Note OFF: Time 267720, Note Name: G3
Note OFF: Time 267720, Note Name: G2
Note ON: Time 267840, Note Name: A2, Velocity: 56
Note ON: Time 267840, Note Name: A3, Velocity: 66
Note OFF: Time 268560, Note Name: A3
Note OFF: Time 268560, Note Name: A2
Note ON: Time 268560, Note Name: A#2, Velocity: 50
Note ON: Time 268560, Note Name: A#3, Velocity: 60
Note OFF: Time 268680, Note Name: A#3
Note OFF: Time 268680, Note Name: A#2
Note ON: Time 268800, Note Name: C3, Velocity: 57
Note ON: Time 268800, Note Name: C4, Velocity: 68
Note OFF: Time 269520, Note Name: C4
Note OFF: Time 269520, Note Name: C3
Note ON: Time 269520, Note Name: D3, Velocity: 47
Note ON: Time 269520, Note Name: D4, Velocity: 56
Note OFF: Time 269640, Note Name: D4
Note OFF: Time 269640, Note Name: D3
Note ON: Time 269760, Note Name: D#3, Velocity: 53
Note ON: Time 269760, Note Name: D#4, Velocity: 63
Note OFF: Time 269880, Note Name: D#4
Note OFF: Time 269880, Note Name: D#3
Note ON: Time 270000, Note Name: D3, Velocity: 50
Note ON: Time 270000, Note Name: D4, Velocity: 60
Note OFF: Time 270120, Note Name: D4
Note OFF: Time 270120, Note Name: D3
Note ON: Time 270240, Note Name: C3, Velocity: 55
Note ON: Time 270240, Note Name: C4, Velocity: 65
Note OFF: Time 270360, Note Name: C4
Note OFF: Time 270360, Note Name: C3
Note ON: Time 270480, Note Name: D3, Velocity: 51
Note ON: Time 270480, Note Name: D4, Velocity: 61
Note OFF: Time 270600, Note Name: D4
Note OFF: Time 270600, Note Name: D3
Note ON: Time 270720, Note Name: D#3, Velocity: 57
Note ON: Time 270720, Note Name: D#4, Velocity: 68
Note OFF: Time 271440, Note Name: D#4
Note OFF: Time 271440, Note Name: D#3
Note ON: Time 271440, Note Name: D3, Velocity: 44
Note ON: Time 271440, Note Name: D4, Velocity: 53
Note OFF: Time 271560, Note Name: D4
Note OFF: Time 271560, Note Name: D3
Note ON: Time 271680, Note Name: C3, Velocity: 50
Note ON: Time 271680, Note Name: C4, Velocity: 59
Note OFF: Time 271800, Note Name: C4
Note OFF: Time 271800, Note Name: C3
Note ON: Time 271920, Note Name: A#2, Velocity: 47
Note ON: Time 271920, Note Name: A#3, Velocity: 57
Note OFF: Time 272040, Note Name: A#3
Note OFF: Time 272040, Note Name: A#2
Note ON: Time 272160, Note Name: A2, Velocity: 52
Note ON: Time 272160, Note Name: A3, Velocity: 61
Note OFF: Time 272280, Note Name: A3
Note OFF: Time 272280, Note Name: A2
Note ON: Time 272400, Note Name: A#2, Velocity: 48
Note ON: Time 272400, Note Name: A#3, Velocity: 57
Note OFF: Time 272520, Note Name: A#3
Note OFF: Time 272520, Note Name: A#2
Note ON: Time 272640, Note Name: C3, Velocity: 54
Note ON: Time 272640, Note Name: C4, Velocity: 64
Note OFF: Time 273360, Note Name: C4
Note OFF: Time 273360, Note Name: C3
Note ON: Time 273360, Note Name: A#2, Velocity: 43
Note ON: Time 273360, Note Name: A#3, Velocity: 52
Note OFF: Time 273480, Note Name: A#3
Note OFF: Time 273480, Note Name: A#2
Note ON: Time 273600, Note Name: A2, Velocity: 47
Note ON: Time 273600, Note Name: A3, Velocity: 56
Note OFF: Time 273720, Note Name: A3
Note OFF: Time 273720, Note Name: A2
Note ON: Time 273840, Note Name: G2, Velocity: 44
Note ON: Time 273840, Note Name: G3, Velocity: 52
Note OFF: Time 273960, Note Name: G3
Note OFF: Time 273960, Note Name: G2
Note ON: Time 274080, Note Name: F#2, Velocity: 46
Note ON: Time 274080, Note Name: F#3, Velocity: 55
Note OFF: Time 274200, Note Name: F#3
Note OFF: Time 274200, Note Name: F#2
Note ON: Time 274320, Note Name: E2, Velocity: 42
Note ON: Time 274320, Note Name: E3, Velocity: 50
Note OFF: Time 274440, Note Name: E3
Note OFF: Time 274440, Note Name: E2
Note ON: Time 274560, Note Name: D2, Velocity: 30
Note OFF: Time 274680, Note Name: D2
Note ON: Time 274680, Note Name: D3, Velocity: 26
Note OFF: Time 274800, Note Name: D3
Note ON: Time 274800, Note Name: D2, Velocity: 30
Note OFF: Time 274920, Note Name: D2
Note ON: Time 274920, Note Name: D3, Velocity: 25
Note OFF: Time 275040, Note Name: D3
Note ON: Time 275040, Note Name: D2, Velocity: 30
Note OFF: Time 275160, Note Name: D2
Note ON: Time 275160, Note Name: D3, Velocity: 26
Note OFF: Time 275280, Note Name: D3
Note ON: Time 275280, Note Name: D2, Velocity: 30
Note OFF: Time 275400, Note Name: D2
Note ON: Time 275400, Note Name: D3, Velocity: 27
Note OFF: Time 275520, Note Name: D3
Note ON: Time 275520, Note Name: D2, Velocity: 30
Note OFF: Time 275640, Note Name: D2
Note ON: Time 275640, Note Name: D3, Velocity: 27
Note OFF: Time 275760, Note Name: D3
Note ON: Time 275760, Note Name: D2, Velocity: 30
Note OFF: Time 275880, Note Name: D2
Note ON: Time 275880, Note Name: D3, Velocity: 25
Note OFF: Time 276000, Note Name: D3
Note ON: Time 276000, Note Name: D2, Velocity: 30
Note OFF: Time 276120, Note Name: D2
Note ON: Time 276120, Note Name: D3, Velocity: 26
Note OFF: Time 276240, Note Name: D3
Note ON: Time 276240, Note Name: D2, Velocity: 30
Note OFF: Time 276360, Note Name: D2
Note ON: Time 276360, Note Name: D3, Velocity: 26
Note OFF: Time 276480, Note Name: D3
Note ON: Time 276480, Note Name: D2, Velocity: 30
Note OFF: Time 276600, Note Name: D2
Note ON: Time 276600, Note Name: D3, Velocity: 26
Note OFF: Time 276720, Note Name: D3
Note ON: Time 276720, Note Name: D2, Velocity: 30
Note OFF: Time 276840, Note Name: D2
Note ON: Time 276840, Note Name: D3, Velocity: 25
Note OFF: Time 276960, Note Name: D3
Note ON: Time 276960, Note Name: D2, Velocity: 30
Note OFF: Time 277080, Note Name: D2
Note ON: Time 277080, Note Name: D3, Velocity: 26
Note OFF: Time 277200, Note Name: D3
Note ON: Time 277200, Note Name: D2, Velocity: 30
Note OFF: Time 277320, Note Name: D2
Note ON: Time 277320, Note Name: D3, Velocity: 27
Note OFF: Time 277440, Note Name: D3
Note ON: Time 277440, Note Name: D2, Velocity: 30
Note OFF: Time 277560, Note Name: D2
Note ON: Time 277560, Note Name: D3, Velocity: 27
Note OFF: Time 277680, Note Name: D3
Note ON: Time 277680, Note Name: D2, Velocity: 30
Note OFF: Time 277800, Note Name: D2
Note ON: Time 277800, Note Name: D3, Velocity: 25
Note OFF: Time 277920, Note Name: D3
Note ON: Time 277920, Note Name: D2, Velocity: 30
Note OFF: Time 278040, Note Name: D2
Note ON: Time 278040, Note Name: D3, Velocity: 26
Note OFF: Time 278160, Note Name: D3
Note ON: Time 278160, Note Name: D2, Velocity: 30
Note OFF: Time 278280, Note Name: D2
Note ON: Time 278280, Note Name: D3, Velocity: 26
Note OFF: Time 278400, Note Name: D3
Note ON: Time 278400, Note Name: D2, Velocity: 30
Note OFF: Time 278520, Note Name: D2
Note ON: Time 278520, Note Name: D3, Velocity: 26
Note OFF: Time 278640, Note Name: D3
Note ON: Time 278640, Note Name: D2, Velocity: 30
Note OFF: Time 278760, Note Name: D2
Note ON: Time 278760, Note Name: D3, Velocity: 25
Note OFF: Time 278880, Note Name: D3
Note ON: Time 278880, Note Name: D2, Velocity: 30
Note OFF: Time 279000, Note Name: D2
Note ON: Time 279000, Note Name: D3, Velocity: 26
Note OFF: Time 279120, Note Name: D3
Note ON: Time 279120, Note Name: D2, Velocity: 30
Note OFF: Time 279240, Note Name: D2
Note ON: Time 279240, Note Name: D3, Velocity: 27
Note OFF: Time 279360, Note Name: D3
Note ON: Time 279360, Note Name: D2, Velocity: 30
Note OFF: Time 279480, Note Name: D2
Note ON: Time 279480, Note Name: D3, Velocity: 27
Note OFF: Time 279600, Note Name: D3
Note ON: Time 279600, Note Name: D2, Velocity: 30
Note OFF: Time 279720, Note Name: D2
Note ON: Time 279720, Note Name: D3, Velocity: 25
Note OFF: Time 279840, Note Name: D3
Note ON: Time 279840, Note Name: D2, Velocity: 30
Note OFF: Time 279960, Note Name: D2
Note ON: Time 279960, Note Name: D3, Velocity: 26
Note OFF: Time 280080, Note Name: D3
Note ON: Time 280080, Note Name: D2, Velocity: 30
Note OFF: Time 280200, Note Name: D2
Note ON: Time 280200, Note Name: D3, Velocity: 26
Note OFF: Time 280320, Note Name: D3
Note ON: Time 280320, Note Name: D2, Velocity: 30
Note OFF: Time 280440, Note Name: D2
Note ON: Time 280440, Note Name: D3, Velocity: 26
Note OFF: Time 280560, Note Name: D3
Note ON: Time 280560, Note Name: D2, Velocity: 30
Note OFF: Time 280680, Note Name: D2
Note ON: Time 280680, Note Name: D3, Velocity: 25
Note OFF: Time 280800, Note Name: D3
Note ON: Time 280800, Note Name: D2, Velocity: 30
Note OFF: Time 280920, Note Name: D2
Note ON: Time 280920, Note Name: D3, Velocity: 26
Note OFF: Time 281040, Note Name: D3
Note ON: Time 281040, Note Name: D2, Velocity: 30
Note OFF: Time 281160, Note Name: D2
Note ON: Time 281160, Note Name: D3, Velocity: 27
Note OFF: Time 281280, Note Name: D3
Note ON: Time 281280, Note Name: D2, Velocity: 30
Note OFF: Time 281400, Note Name: D2
Note ON: Time 281400, Note Name: D3, Velocity: 27
Note OFF: Time 281520, Note Name: D3
Note ON: Time 281520, Note Name: D2, Velocity: 30
Note OFF: Time 281640, Note Name: D2
Note ON: Time 281640, Note Name: D3, Velocity: 25
Note OFF: Time 281760, Note Name: D3
Note ON: Time 281760, Note Name: D2, Velocity: 30
Note OFF: Time 281880, Note Name: D2
Note ON: Time 281880, Note Name: D3, Velocity: 26
Note OFF: Time 282000, Note Name: D3
Note ON: Time 282000, Note Name: D2, Velocity: 30
Note OFF: Time 282120, Note Name: D2
Note ON: Time 282120, Note Name: D3, Velocity: 26
Note OFF: Time 282240, Note Name: D3
Note ON: Time 282240, Note Name: D2, Velocity: 30
Note OFF: Time 282360, Note Name: D2
Note ON: Time 282360, Note Name: D3, Velocity: 26
Note OFF: Time 282480, Note Name: D3
Note ON: Time 282480, Note Name: D2, Velocity: 30
Note OFF: Time 282600, Note Name: D2
Note ON: Time 282600, Note Name: D3, Velocity: 25
Note OFF: Time 282720, Note Name: D3
Note ON: Time 282720, Note Name: D2, Velocity: 30
Note OFF: Time 282840, Note Name: D2
Note ON: Time 282840, Note Name: D3, Velocity: 26
Note OFF: Time 282960, Note Name: D3
Note ON: Time 282960, Note Name: D2, Velocity: 30
Note OFF: Time 283080, Note Name: D2
Note ON: Time 283080, Note Name: D3, Velocity: 27
Note OFF: Time 283200, Note Name: D3
Note ON: Time 283200, Note Name: D2, Velocity: 30
Note OFF: Time 283320, Note Name: D2
Note ON: Time 283320, Note Name: D3, Velocity: 27
Note OFF: Time 283440, Note Name: D3
Note ON: Time 283440, Note Name: D2, Velocity: 30
Note OFF: Time 283560, Note Name: D2
Note ON: Time 283560, Note Name: D3, Velocity: 25
Note OFF: Time 283680, Note Name: D3
Note ON: Time 283680, Note Name: D2, Velocity: 30
Note OFF: Time 283800, Note Name: D2
Note ON: Time 283800, Note Name: D3, Velocity: 26
Note OFF: Time 283920, Note Name: D3
Note ON: Time 283920, Note Name: D2, Velocity: 30
Note OFF: Time 284040, Note Name: D2
Note ON: Time 284040, Note Name: D3, Velocity: 26
Note OFF: Time 284160, Note Name: D3
Note ON: Time 284160, Note Name: D2, Velocity: 30
Note OFF: Time 284280, Note Name: D2
Note ON: Time 284280, Note Name: D3, Velocity: 26
Note OFF: Time 284400, Note Name: D3
Note ON: Time 284400, Note Name: D2, Velocity: 30
Note OFF: Time 284520, Note Name: D2
Note ON: Time 284520, Note Name: D3, Velocity: 25
Note OFF: Time 284640, Note Name: D3
Note ON: Time 284640, Note Name: D2, Velocity: 30
Note OFF: Time 284760, Note Name: D2
Note ON: Time 284760, Note Name: D3, Velocity: 26
Note OFF: Time 284880, Note Name: D3
Note ON: Time 284880, Note Name: D2, Velocity: 30
Note OFF: Time 285000, Note Name: D2
Note ON: Time 285000, Note Name: D3, Velocity: 27
Note OFF: Time 285120, Note Name: D3
Note ON: Time 285120, Note Name: D2, Velocity: 24
Note OFF: Time 285240, Note Name: D2
Note ON: Time 285240, Note Name: D3, Velocity: 21
Note OFF: Time 285360, Note Name: D3
Note ON: Time 285360, Note Name: D2, Velocity: 24
Note OFF: Time 285480, Note Name: D2
Note ON: Time 285480, Note Name: D3, Velocity: 20
Note OFF: Time 285600, Note Name: D3
Note ON: Time 285600, Note Name: D2, Velocity: 24
Note OFF: Time 285720, Note Name: D2
Note ON: Time 285720, Note Name: D3, Velocity: 20
Note OFF: Time 285840, Note Name: D3
Note ON: Time 285840, Note Name: D2, Velocity: 24
Note OFF: Time 285960, Note Name: D2
Note ON: Time 285960, Note Name: D3, Velocity: 20
Note OFF: Time 286080, Note Name: D3
Note ON: Time 286080, Note Name: D2, Velocity: 97
Note OFF: Time 286800, Note Name: D2
Note ON: Time 286800, Note Name: E2, Velocity: 70
Note OFF: Time 286920, Note Name: E2
Note ON: Time 287040, Note Name: F#2, Velocity: 68
Note ON: Time 287040, Note Name: D3, Velocity: 81
Note OFF: Time 287760, Note Name: D3
Note OFF: Time 287760, Note Name: F#2
Note ON: Time 287760, Note Name: G2, Velocity: 57
Note ON: Time 287760, Note Name: E3, Velocity: 68
Note OFF: Time 287880, Note Name: E3
Note OFF: Time 287880, Note Name: G2
Note ON: Time 288000, Note Name: C3, Velocity: 64
Note ON: Time 288000, Note Name: A2, Velocity: 64
Note ON: Time 288000, Note Name: F#3, Velocity: 76
Note OFF: Time 288720, Note Name: F#3
Note OFF: Time 288720, Note Name: A2
Note OFF: Time 288720, Note Name: C3
Note ON: Time 288720, Note Name: D3, Velocity: 54
Note ON: Time 288720, Note Name: A#2, Velocity: 54
Note ON: Time 288720, Note Name: G3, Velocity: 64
Note OFF: Time 288840, Note Name: G3
Note OFF: Time 288840, Note Name: A#2
Note OFF: Time 288840, Note Name: D3
Note ON: Time 288960, Note Name: F#3, Velocity: 61
Note ON: Time 288960, Note Name: A3, Velocity: 72
Note OFF: Time 289080, Note Name: A3
Note OFF: Time 289080, Note Name: F#3
Note ON: Time 289200, Note Name: G3, Velocity: 56
Note ON: Time 289200, Note Name: A#3, Velocity: 66
Note OFF: Time 289320, Note Name: A#3
Note OFF: Time 289320, Note Name: G3
Note ON: Time 289440, Note Name: A3, Velocity: 62
Note ON: Time 289440, Note Name: C4, Velocity: 73
Note OFF: Time 289560, Note Name: C4
Note OFF: Time 289560, Note Name: A3
Note ON: Time 289680, Note Name: A#3, Velocity: 56
Note ON: Time 289680, Note Name: D4, Velocity: 66
Note OFF: Time 289800, Note Name: D4
Note OFF: Time 289800, Note Name: A#3
Note ON: Time 289920, Note Name: C4, Velocity: 64
Note ON: Time 289920, Note Name: D#4, Velocity: 76
Note OFF: Time 290040, Note Name: D#4
Note OFF: Time 290040, Note Name: C4
Note ON: Time 293760, Note Name: G2, Velocity: 97
Note OFF: Time 294480, Note Name: G2
Note ON: Time 294480, Note Name: A2, Velocity: 70
Note OFF: Time 294600, Note Name: A2
Note ON: Time 294720, Note Name: B2, Velocity: 68
Note ON: Time 294720, Note Name: G3, Velocity: 81
Note OFF: Time 295440, Note Name: G3
Note OFF: Time 295440, Note Name: B2
Note ON: Time 295440, Note Name: C3, Velocity: 57
Note ON: Time 295440, Note Name: A3, Velocity: 68
Note OFF: Time 295560, Note Name: A3
Note OFF: Time 295560, Note Name: C3
Note ON: Time 295680, Note Name: F3, Velocity: 64
Note ON: Time 295680, Note Name: D3, Velocity: 64
Note ON: Time 295680, Note Name: B3, Velocity: 76
Note OFF: Time 296400, Note Name: B3
Note OFF: Time 296400, Note Name: D3
Note OFF: Time 296400, Note Name: F3
Note ON: Time 296400, Note Name: G3, Velocity: 54
Note ON: Time 296400, Note Name: D#3, Velocity: 54
Note ON: Time 296400, Note Name: C4, Velocity: 64
Note OFF: Time 296520, Note Name: C4
Note OFF: Time 296520, Note Name: D#3
Note OFF: Time 296520, Note Name: G3
Note ON: Time 296640, Note Name: B3, Velocity: 61
Note ON: Time 296640, Note Name: D4, Velocity: 72
Note OFF: Time 296760, Note Name: D4
Note OFF: Time 296760, Note Name: B3
Note ON: Time 296880, Note Name: C4, Velocity: 56
Note ON: Time 296880, Note Name: D#4, Velocity: 66
Note OFF: Time 297000, Note Name: D#4
Note OFF: Time 297000, Note Name: C4
Note ON: Time 297120, Note Name: D4, Velocity: 62
Note ON: Time 297120, Note Name: F4, Velocity: 73
Note OFF: Time 297240, Note Name: F4
Note OFF: Time 297240, Note Name: D4
Note ON: Time 297360, Note Name: D#4, Velocity: 56
Note ON: Time 297360, Note Name: G4, Velocity: 66
Note OFF: Time 297480, Note Name: G4
Note OFF: Time 297480, Note Name: D#4
Note ON: Time 297600, Note Name: F4, Velocity: 64
Note ON: Time 297600, Note Name: G#4, Velocity: 76
Note OFF: Time 297720, Note Name: G#4
Note OFF: Time 297720, Note Name: F4
Note ON: Time 301440, Note Name: C2, Velocity: 97
Note OFF: Time 302160, Note Name: C2
Note ON: Time 302160, Note Name: D2, Velocity: 70
Note OFF: Time 302280, Note Name: D2
Note ON: Time 302400, Note Name: E2, Velocity: 68
Note ON: Time 302400, Note Name: C3, Velocity: 81
Note OFF: Time 303120, Note Name: C3
Note OFF: Time 303120, Note Name: E2
Note ON: Time 303120, Note Name: F2, Velocity: 57
Note ON: Time 303120, Note Name: D3, Velocity: 68
Note OFF: Time 303240, Note Name: D3
Note OFF: Time 303240, Note Name: F2
Note ON: Time 303360, Note Name: A#2, Velocity: 64
Note ON: Time 303360, Note Name: G2, Velocity: 64
Note ON: Time 303360, Note Name: E3, Velocity: 76
Note OFF: Time 304080, Note Name: E3
Note OFF: Time 304080, Note Name: G2
Note OFF: Time 304080, Note Name: A#2
Note ON: Time 304080, Note Name: C3, Velocity: 54
Note ON: Time 304080, Note Name: G#2, Velocity: 54
Note ON: Time 304080, Note Name: F3, Velocity: 64
Note OFF: Time 304200, Note Name: F3
Note OFF: Time 304200, Note Name: G#2
Note OFF: Time 304200, Note Name: C3
Note ON: Time 304320, Note Name: E3, Velocity: 61
Note ON: Time 304320, Note Name: G3, Velocity: 72
Note OFF: Time 304440, Note Name: G3
Note OFF: Time 304440, Note Name: E3
Note ON: Time 304560, Note Name: F3, Velocity: 56
Note ON: Time 304560, Note Name: G#3, Velocity: 66
Note OFF: Time 304680, Note Name: G#3
Note OFF: Time 304680, Note Name: F3
Note ON: Time 304800, Note Name: G3, Velocity: 62
Note ON: Time 304800, Note Name: A#3, Velocity: 73
Note OFF: Time 304920, Note Name: A#3
Note OFF: Time 304920, Note Name: G3
Note ON: Time 305040, Note Name: G#3, Velocity: 56
Note ON: Time 305040, Note Name: C4, Velocity: 66
Note OFF: Time 305160, Note Name: C4
Note OFF: Time 305160, Note Name: G#3
Note ON: Time 305280, Note Name: A#3, Velocity: 64
Note ON: Time 305280, Note Name: C#4, Velocity: 76
Note OFF: Time 305400, Note Name: C#4
Note OFF: Time 305400, Note Name: A#3
Note ON: Time 307200, Note Name: A#2, Velocity: 76
Note ON: Time 307680, Note Name: C#3, Velocity: 67
Note ON: Time 308160, Note Name: E3, Velocity: 67
Note ON: Time 308640, Note Name: G3, Velocity: 67
Note OFF: Time 309120, Note Name: G3
Note OFF: Time 309120, Note Name: A#2
Note OFF: Time 309120, Note Name: C#3
Note OFF: Time 309120, Note Name: E3
Note ON: Time 309120, Note Name: G#2, Velocity: 76
Note ON: Time 309600, Note Name: C3, Velocity: 67
Note ON: Time 310080, Note Name: F3, Velocity: 67
Note ON: Time 310560, Note Name: G#3, Velocity: 67
Note OFF: Time 311040, Note Name: G#3
Note OFF: Time 311040, Note Name: G#2
Note OFF: Time 311040, Note Name: C3
Note OFF: Time 311040, Note Name: F3
Note ON: Time 311040, Note Name: G#2, Velocity: 76
Note ON: Time 311520, Note Name: C3, Velocity: 67
Note ON: Time 312000, Note Name: F3, Velocity: 67
Note ON: Time 312480, Note Name: G#3, Velocity: 67
Note OFF: Time 312960, Note Name: G#3
Note OFF: Time 312960, Note Name: G#2
Note OFF: Time 312960, Note Name: C3
Note OFF: Time 312960, Note Name: F3
Note ON: Time 312960, Note Name: G2, Velocity: 76
Note ON: Time 313440, Note Name: D3, Velocity: 67
Note ON: Time 313920, Note Name: F3, Velocity: 67
Note ON: Time 314400, Note Name: G3, Velocity: 67
Note OFF: Time 314880, Note Name: G3
Note OFF: Time 314880, Note Name: G2
Note OFF: Time 314880, Note Name: D3
Note OFF: Time 314880, Note Name: F3
Note ON: Time 314880, Note Name: G2, Velocity: 76
Note ON: Time 315360, Note Name: B2, Velocity: 67
Note ON: Time 315840, Note Name: D3, Velocity: 67
Note ON: Time 316320, Note Name: G3, Velocity: 67
Note OFF: Time 316800, Note Name: G3
Note OFF: Time 316800, Note Name: G2
Note OFF: Time 316800, Note Name: B2
Note OFF: Time 316800, Note Name: D3
Note ON: Time 316800, Note Name: G2, Velocity: 76
Note ON: Time 317280, Note Name: C3, Velocity: 67
Note ON: Time 317760, Note Name: D#3, Velocity: 66
Note ON: Time 318240, Note Name: G3, Velocity: 65
Note OFF: Time 318720, Note Name: G3
Note OFF: Time 318720, Note Name: G2
Note OFF: Time 318720, Note Name: C3
Note OFF: Time 318720, Note Name: D#3
Note ON: Time 318720, Note Name: F#2, Velocity: 73
Note ON: Time 319200, Note Name: C3, Velocity: 64
Note ON: Time 319680, Note Name: D#3, Velocity: 63
Note ON: Time 320160, Note Name: F#3, Velocity: 62
Note OFF: Time 320640, Note Name: F#3
Note OFF: Time 320640, Note Name: F#2
Note OFF: Time 320640, Note Name: C3
Note OFF: Time 320640, Note Name: D#3
Note ON: Time 320640, Note Name: F2, Velocity: 70
Note ON: Time 321120, Note Name: C3, Velocity: 61
Note ON: Time 321600, Note Name: D#3, Velocity: 60
Note ON: Time 322080, Note Name: F3, Velocity: 60
Note OFF: Time 322560, Note Name: F3
Note OFF: Time 322560, Note Name: F2
Note OFF: Time 322560, Note Name: C3
Note OFF: Time 322560, Note Name: D#3
Note ON: Time 322560, Note Name: F2, Velocity: 67
Note ON: Time 323040, Note Name: A2, Velocity: 58
Note ON: Time 323520, Note Name: C3, Velocity: 58
Note ON: Time 324000, Note Name: F3, Velocity: 57
Note OFF: Time 324480, Note Name: F3
Note OFF: Time 324480, Note Name: F2
Note OFF: Time 324480, Note Name: A2
Note OFF: Time 324480, Note Name: C3
Note ON: Time 324480, Note Name: F2, Velocity: 64
Note ON: Time 324960, Note Name: A#2, Velocity: 56
Note ON: Time 325440, Note Name: C#3, Velocity: 56
Note ON: Time 325920, Note Name: F3, Velocity: 55
Note OFF: Time 326400, Note Name: F3
Note OFF: Time 326400, Note Name: F2
Note OFF: Time 326400, Note Name: A#2
Note OFF: Time 326400, Note Name: C#3
Note ON: Time 326400, Note Name: E2, Velocity: 62
Note ON: Time 326880, Note Name: A#2, Velocity: 54
Note ON: Time 327360, Note Name: C#3, Velocity: 53
Note ON: Time 327840, Note Name: E3, Velocity: 52
Note OFF: Time 328320, Note Name: E3
Note OFF: Time 328320, Note Name: E2
Note OFF: Time 328320, Note Name: A#2
Note OFF: Time 328320, Note Name: C#3
Note ON: Time 328320, Note Name: D#2, Velocity: 59
Note ON: Time 328800, Note Name: A#2, Velocity: 51
Note ON: Time 329280, Note Name: C#3, Velocity: 50
Note ON: Time 329760, Note Name: D#3, Velocity: 50
Note OFF: Time 330240, Note Name: D#3
Note OFF: Time 330240, Note Name: D#2
Note OFF: Time 330240, Note Name: A#2
Note OFF: Time 330240, Note Name: C#3
Note ON: Time 330240, Note Name: D#2, Velocity: 56
Note ON: Time 330720, Note Name: A#2, Velocity: 48
Note ON: Time 331200, Note Name: C#3, Velocity: 48
Note ON: Time 331680, Note Name: D#3, Velocity: 47
Note OFF: Time 332160, Note Name: D#3
Note OFF: Time 332160, Note Name: D#2
Note OFF: Time 332160, Note Name: A#2
Note OFF: Time 332160, Note Name: C#3
Note ON: Time 332160, Note Name: D#2, Velocity: 49
Note OFF: Time 332880, Note Name: D#2
Note ON: Time 332880, Note Name: F2, Velocity: 44
Note OFF: Time 333120, Note Name: F2
Note ON: Time 333120, Note Name: G2, Velocity: 49
Note OFF: Time 333840, Note Name: G2
Note ON: Time 333840, Note Name: G#2, Velocity: 44
Note OFF: Time 334080, Note Name: G#2
Note ON: Time 334080, Note Name: A#2, Velocity: 47
Note OFF: Time 334800, Note Name: A#2
Note ON: Time 334800, Note Name: C3, Velocity: 44
Note OFF: Time 335040, Note Name: C3
Note ON: Time 335040, Note Name: C#3, Velocity: 46
Note OFF: Time 335280, Note Name: C#3
Note ON: Time 335280, Note Name: C3, Velocity: 44
Note OFF: Time 335520, Note Name: C3
Note ON: Time 335520, Note Name: A#2, Velocity: 46
Note OFF: Time 335760, Note Name: A#2
Note ON: Time 335760, Note Name: G#2, Velocity: 38
Note OFF: Time 336000, Note Name: G#2
Note ON: Time 336000, Note Name: G2, Velocity: 47
Note OFF: Time 336720, Note Name: G2
Note ON: Time 336720, Note Name: G#2, Velocity: 44
Note OFF: Time 336960, Note Name: G#2
Note ON: Time 336960, Note Name: A#2, Velocity: 46
Note OFF: Time 337200, Note Name: A#2
Note ON: Time 337200, Note Name: G#2, Velocity: 44
Note OFF: Time 337440, Note Name: G#2
Note ON: Time 337440, Note Name: G2, Velocity: 46
Note OFF: Time 337680, Note Name: G2
Note ON: Time 337680, Note Name: F2, Velocity: 38
Note OFF: Time 337920, Note Name: F2
Note ON: Time 337925, Note Name: D#2, Velocity: 47
Note OFF: Time 338645, Note Name: D#2
Note ON: Time 339840, Note Name: C2, Velocity: 39
Note OFF: Time 340560, Note Name: C2
Note ON: Time 340560, Note Name: D2, Velocity: 35
Note OFF: Time 340800, Note Name: D2
Note ON: Time 340800, Note Name: E2, Velocity: 39
Note OFF: Time 341520, Note Name: E2
Note ON: Time 341520, Note Name: F2, Velocity: 35
Note OFF: Time 341760, Note Name: F2
Note ON: Time 341760, Note Name: G2, Velocity: 37
Note OFF: Time 342480, Note Name: G2
Note ON: Time 342480, Note Name: G#2, Velocity: 35
Note OFF: Time 342720, Note Name: G#2
Note ON: Time 342720, Note Name: A#2, Velocity: 36
Note OFF: Time 342960, Note Name: A#2
Note ON: Time 342960, Note Name: G#2, Velocity: 35
Note OFF: Time 343200, Note Name: G#2
Note ON: Time 343200, Note Name: G2, Velocity: 36
Note OFF: Time 343440, Note Name: G2
Note ON: Time 343440, Note Name: F2, Velocity: 30
Note OFF: Time 343680, Note Name: F2
Note ON: Time 343680, Note Name: E2, Velocity: 37
Note OFF: Time 344400, Note Name: E2
Note ON: Time 344400, Note Name: F2, Velocity: 35
Note OFF: Time 344640, Note Name: F2
Note ON: Time 344640, Note Name: G2, Velocity: 36
Note OFF: Time 344880, Note Name: G2
Note ON: Time 344880, Note Name: F2, Velocity: 35
Note OFF: Time 345120, Note Name: F2
Note ON: Time 345120, Note Name: E2, Velocity: 36
Note OFF: Time 345360, Note Name: E2
Note ON: Time 345360, Note Name: D2, Velocity: 30
Note OFF: Time 345600, Note Name: D2
Note ON: Time 345600, Note Name: C2, Velocity: 37
Note OFF: Time 346320, Note Name: C2
Note ON: Time 347520, Note Name: F1, Velocity: 39
Note OFF: Time 348240, Note Name: F1
Note ON: Time 348240, Note Name: G1, Velocity: 35
Note OFF: Time 348480, Note Name: G1
Note ON: Time 348480, Note Name: A1, Velocity: 39
Note OFF: Time 349200, Note Name: A1
Note ON: Time 349200, Note Name: A#1, Velocity: 35
Note OFF: Time 349440, Note Name: A#1
Note ON: Time 349440, Note Name: C2, Velocity: 37
Note OFF: Time 350160, Note Name: C2
Note ON: Time 350160, Note Name: C#2, Velocity: 35
Note OFF: Time 350400, Note Name: C#2
Note ON: Time 350400, Note Name: D#2, Velocity: 36
Note OFF: Time 350640, Note Name: D#2
Note ON: Time 350640, Note Name: C#2, Velocity: 35
Note OFF: Time 350880, Note Name: C#2
Note ON: Time 350880, Note Name: C2, Velocity: 36
Note OFF: Time 351120, Note Name: C2
Note ON: Time 351120, Note Name: A#1, Velocity: 30
Note OFF: Time 351360, Note Name: A#1
Note ON: Time 351360, Note Name: A1, Velocity: 37
Note OFF: Time 352080, Note Name: A1
Note ON: Time 352080, Note Name: A#1, Velocity: 35
Note OFF: Time 352320, Note Name: A#1
Note ON: Time 352320, Note Name: C2, Velocity: 36
Note OFF: Time 352560, Note Name: C2
Note ON: Time 352560, Note Name: A#1, Velocity: 35
Note OFF: Time 352800, Note Name: A#1
Note ON: Time 352800, Note Name: A1, Velocity: 36
Note OFF: Time 353040, Note Name: A1
Note ON: Time 353040, Note Name: G1, Velocity: 30
Note OFF: Time 353280, Note Name: G1
Note ON: Time 353280, Note Name: F1, Velocity: 37
Note OFF: Time 356160, Note Name: F1
Note ON: Time 356160, Note Name: C2, Velocity: 36
Note OFF: Time 356400, Note Name: C2
Note ON: Time 356400, Note Name: A#1, Velocity: 35
Note OFF: Time 356640, Note Name: A#1
Note ON: Time 356640, Note Name: A1, Velocity: 36
Note OFF: Time 356880, Note Name: A1
Note ON: Time 356880, Note Name: G1, Velocity: 30
Note OFF: Time 357120, Note Name: G1
Note ON: Time 357120, Note Name: F1, Velocity: 37
Note OFF: Time 360000, Note Name: F1
Note ON: Time 360000, Note Name: C2, Velocity: 41
Note OFF: Time 360240, Note Name: C2
Note ON: Time 360240, Note Name: A#1, Velocity: 40
Note OFF: Time 360480, Note Name: A#1
Note ON: Time 360480, Note Name: A1, Velocity: 41
Note OFF: Time 360720, Note Name: A1
Note ON: Time 360720, Note Name: G1, Velocity: 34
Note OFF: Time 360960, Note Name: G1
Note ON: Time 360960, Note Name: F1, Velocity: 42
Note OFF: Time 361920, Note Name: F1
Note ON: Time 361920, Note Name: C2, Velocity: 43
Note OFF: Time 362160, Note Name: C2
Note ON: Time 362160, Note Name: A#1, Velocity: 43
Note OFF: Time 362400, Note Name: A#1
Note ON: Time 362400, Note Name: A1, Velocity: 46
Note OFF: Time 362640, Note Name: A1
Note ON: Time 362640, Note Name: G1, Velocity: 39
Note OFF: Time 362880, Note Name: G1
Note ON: Time 362880, Note Name: F1, Velocity: 48
Note OFF: Time 363840, Note Name: F1
Note ON: Time 363840, Note Name: C2, Velocity: 51
Note OFF: Time 364080, Note Name: C2
Note ON: Time 364080, Note Name: A#1, Velocity: 50
Note OFF: Time 364320, Note Name: A#1
Note ON: Time 364320, Note Name: A1, Velocity: 52
Note OFF: Time 364560, Note Name: A1
Note ON: Time 364560, Note Name: G1, Velocity: 44
Note OFF: Time 364800, Note Name: G1
Note ON: Time 364800, Note Name: F1, Velocity: 56
Note OFF: Time 365520, Note Name: F1
Note ON: Time 365520, Note Name: G1, Velocity: 54
Note OFF: Time 365760, Note Name: G1
Note ON: Time 365760, Note Name: A1, Velocity: 59
Note OFF: Time 366000, Note Name: A1
Note ON: Time 366000, Note Name: A#1, Velocity: 54
Note OFF: Time 366240, Note Name: A#1
Note ON: Time 366240, Note Name: C2, Velocity: 62
Note OFF: Time 366480, Note Name: C2
Note ON: Time 366480, Note Name: D2, Velocity: 54
Note OFF: Time 366720, Note Name: D2
Note ON: Time 366720, Note Name: D#2, Velocity: 59
Note OFF: Time 366960, Note Name: D#2
Note ON: Time 366960, Note Name: E2, Velocity: 54
Note OFF: Time 367200, Note Name: E2
Note ON: Time 367200, Note Name: F2, Velocity: 64
Note OFF: Time 367440, Note Name: F2
Note ON: Time 367440, Note Name: G2, Velocity: 57
Note OFF: Time 367680, Note Name: G2
Note ON: Time 367680, Note Name: A2, Velocity: 59
Note OFF: Time 367920, Note Name: A2
Note ON: Time 367920, Note Name: A#2, Velocity: 55
Note OFF: Time 368160, Note Name: A#2
Note ON: Time 368160, Note Name: C3, Velocity: 66
Note OFF: Time 368400, Note Name: C3
Note ON: Time 368400, Note Name: D3, Velocity: 60
Note OFF: Time 368640, Note Name: D3
Note ON: Time 368640, Note Name: D#3, Velocity: 63
Note ON: Time 368640, Note Name: F2, Velocity: 63
Note OFF: Time 370560, Note Name: F2
Note OFF: Time 370560, Note Name: D#3
Note ON: Time 370560, Note Name: F2, Velocity: 50
Note ON: Time 370560, Note Name: C3, Velocity: 50
Note OFF: Time 371520, Note Name: C3
Note OFF: Time 371520, Note Name: F2
Note ON: Time 371520, Note Name: F2, Velocity: 42
Note ON: Time 371520, Note Name: A#2, Velocity: 42
Note OFF: Time 372480, Note Name: A#2
Note OFF: Time 372480, Note Name: F2
Note ON: Time 372480, Note Name: F2, Velocity: 20
Note ON: Time 372480, Note Name: A2, Velocity: 20
Note ON: Time 372480, Note Name: F3, Velocity: 25
Note OFF: Time 375600, Note Name: F3
Note OFF: Time 375600, Note Name: A2
Note OFF: Time 375600, Note Name: F2
Note ON: Time 376320, Note Name: A#1, Velocity: 30
Note ON: Time 376320, Note Name: A#2, Velocity: 36
Note OFF: Time 376410, Note Name: A#2
Note OFF: Time 376410, Note Name: A#1
Note ON: Time 376800, Note Name: A#1, Velocity: 27
Note ON: Time 376800, Note Name: A#2, Velocity: 32
Note OFF: Time 376890, Note Name: A#2
Note OFF: Time 376890, Note Name: A#1
Note ON: Time 378240, Note Name: A#1, Velocity: 30
Note ON: Time 378240, Note Name: A#2, Velocity: 36
Note OFF: Time 378330, Note Name: A#2
Note OFF: Time 378330, Note Name: A#1
Note ON: Time 378720, Note Name: A#1, Velocity: 27
Note ON: Time 378720, Note Name: A#2, Velocity: 32
Note OFF: Time 378810, Note Name: A#2
Note OFF: Time 378810, Note Name: A#1
Note ON: Time 382080, Note Name: A#2, Velocity: 44
Note OFF: Time 382200, Note Name: A#2
Note ON: Time 382200, Note Name: D3, Velocity: 31
Note OFF: Time 382320, Note Name: D3
Note ON: Time 382320, Note Name: F3, Velocity: 31
Note OFF: Time 382440, Note Name: F3
Note ON: Time 382440, Note Name: A#3, Velocity: 31
Note OFF: Time 382560, Note Name: A#3
Note ON: Time 382560, Note Name: A#2, Velocity: 44
Note OFF: Time 382680, Note Name: A#2
Note ON: Time 382680, Note Name: D3, Velocity: 32
Note OFF: Time 382800, Note Name: D3
Note ON: Time 382800, Note Name: F3, Velocity: 32
Note OFF: Time 382920, Note Name: F3
Note ON: Time 382920, Note Name: A#3, Velocity: 32
Note OFF: Time 383040, Note Name: A#3
Note ON: Time 383040, Note Name: A#2, Velocity: 44
Note OFF: Time 383160, Note Name: A#2
Note ON: Time 383160, Note Name: D3, Velocity: 33
Note OFF: Time 383280, Note Name: D3
Note ON: Time 383280, Note Name: F3, Velocity: 33
Note OFF: Time 383400, Note Name: F3
Note ON: Time 383400, Note Name: A#3, Velocity: 33
Note OFF: Time 383520, Note Name: A#3
Note ON: Time 383520, Note Name: A#2, Velocity: 44
Note OFF: Time 383640, Note Name: A#2
Note ON: Time 383640, Note Name: D3, Velocity: 33
Note OFF: Time 383760, Note Name: D3
Note ON: Time 383760, Note Name: F3, Velocity: 33
Note OFF: Time 383880, Note Name: F3
Note ON: Time 383880, Note Name: A#3, Velocity: 33
Note OFF: Time 384000, Note Name: A#3
Note ON: Time 384000, Note Name: A#2, Velocity: 44
Note OFF: Time 384120, Note Name: A#2
Note ON: Time 384120, Note Name: D#3, Velocity: 31
Note OFF: Time 384240, Note Name: D#3
Note ON: Time 384240, Note Name: G3, Velocity: 31
Note OFF: Time 384360, Note Name: G3
Note ON: Time 384360, Note Name: A#3, Velocity: 31
Note OFF: Time 384480, Note Name: A#3
Note ON: Time 384480, Note Name: A#2, Velocity: 42
Note OFF: Time 384600, Note Name: A#2
Note ON: Time 384600, Note Name: D#3, Velocity: 28
Note OFF: Time 384720, Note Name: D#3
Note ON: Time 384720, Note Name: G3, Velocity: 28
Note OFF: Time 384840, Note Name: G3
Note ON: Time 384840, Note Name: A#3, Velocity: 28
Note OFF: Time 384960, Note Name: A#3
Note ON: Time 384960, Note Name: A#2, Velocity: 41
Note OFF: Time 385080, Note Name: A#2
Note ON: Time 385080, Note Name: D#3, Velocity: 29
Note OFF: Time 385200, Note Name: D#3
Note ON: Time 385200, Note Name: F3, Velocity: 29
Note OFF: Time 385320, Note Name: F3
Note ON: Time 385320, Note Name: A3, Velocity: 29
Note OFF: Time 385440, Note Name: A3
Note ON: Time 385440, Note Name: A#2, Velocity: 41
Note OFF: Time 385560, Note Name: A#2
Note ON: Time 385560, Note Name: D#3, Velocity: 31
Note OFF: Time 385680, Note Name: D#3
Note ON: Time 385680, Note Name: F3, Velocity: 31
Note OFF: Time 385800, Note Name: F3
Note ON: Time 385800, Note Name: A3, Velocity: 31
Note OFF: Time 385920, Note Name: A3
Note ON: Time 385920, Note Name: A#2, Velocity: 44
Note OFF: Time 386040, Note Name: A#2
Note ON: Time 386040, Note Name: D3, Velocity: 31
Note OFF: Time 386160, Note Name: D3
Note ON: Time 386160, Note Name: F3, Velocity: 31
Note OFF: Time 386280, Note Name: F3
Note ON: Time 386280, Note Name: A#3, Velocity: 31
Note OFF: Time 386400, Note Name: A#3
Note ON: Time 386400, Note Name: A#2, Velocity: 44
Note OFF: Time 386520, Note Name: A#2
Note ON: Time 386520, Note Name: D3, Velocity: 32
Note OFF: Time 386640, Note Name: D3
Note ON: Time 386640, Note Name: F3, Velocity: 32
Note OFF: Time 386760, Note Name: F3
Note ON: Time 386760, Note Name: A#3, Velocity: 32
Note OFF: Time 386880, Note Name: A#3
Note ON: Time 386880, Note Name: A#2, Velocity: 44
Note OFF: Time 387000, Note Name: A#2
Note ON: Time 387000, Note Name: D3, Velocity: 32
Note OFF: Time 387120, Note Name: D3
Note ON: Time 387120, Note Name: F3, Velocity: 32
Note OFF: Time 387240, Note Name: F3
Note ON: Time 387240, Note Name: G#3, Velocity: 32
Note OFF: Time 387360, Note Name: G#3
Note ON: Time 387360, Note Name: A#2, Velocity: 44
Note OFF: Time 387480, Note Name: A#2
Note ON: Time 387480, Note Name: D3, Velocity: 32
Note OFF: Time 387600, Note Name: D3
Note ON: Time 387600, Note Name: F3, Velocity: 32
Note OFF: Time 387720, Note Name: F3
Note ON: Time 387720, Note Name: G#3, Velocity: 32
Note OFF: Time 387840, Note Name: G#3
Note ON: Time 387840, Note Name: A#2, Velocity: 44
Note OFF: Time 387960, Note Name: A#2
Note ON: Time 387960, Note Name: D#3, Velocity: 32
Note OFF: Time 388080, Note Name: D#3
Note ON: Time 388080, Note Name: G3, Velocity: 32
Note OFF: Time 388200, Note Name: G3
Note ON: Time 388200, Note Name: D#3, Velocity: 32
Note OFF: Time 388320, Note Name: D#3
Note ON: Time 388320, Note Name: A#2, Velocity: 44
Note OFF: Time 388440, Note Name: A#2
Note ON: Time 388440, Note Name: D#3, Velocity: 36
Note OFF: Time 388560, Note Name: D#3
Note ON: Time 388560, Note Name: G3, Velocity: 36
Note OFF: Time 388680, Note Name: G3
Note ON: Time 388680, Note Name: D#3, Velocity: 36
Note OFF: Time 388800, Note Name: D#3
Note ON: Time 388800, Note Name: A#2, Velocity: 48
Note OFF: Time 388920, Note Name: A#2
Note ON: Time 388920, Note Name: C3, Velocity: 37
Note OFF: Time 389040, Note Name: C3
Note ON: Time 389040, Note Name: D#3, Velocity: 38
Note OFF: Time 389160, Note Name: D#3
Note ON: Time 389160, Note Name: F3, Velocity: 40
Note OFF: Time 389280, Note Name: F3
Note ON: Time 389280, Note Name: A#2, Velocity: 50
Note OFF: Time 389400, Note Name: A#2
Note ON: Time 389400, Note Name: C3, Velocity: 40
Note OFF: Time 389520, Note Name: C3
Note ON: Time 389520, Note Name: D#3, Velocity: 39
Note OFF: Time 389640, Note Name: D#3
Note ON: Time 389640, Note Name: F3, Velocity: 43
Note OFF: Time 389760, Note Name: F3
Note ON: Time 389760, Note Name: A#2, Velocity: 60
Note OFF: Time 389880, Note Name: A#2
Note ON: Time 390240, Note Name: A#2, Velocity: 53
Note OFF: Time 390360, Note Name: A#2
Note ON: Time 390360, Note Name: A2, Velocity: 46
Note OFF: Time 390480, Note Name: A2
Note ON: Time 390480, Note Name: A#2, Velocity: 53
Note OFF: Time 390600, Note Name: A#2
Note ON: Time 390600, Note Name: G2, Velocity: 46
Note OFF: Time 390720, Note Name: G2
Note ON: Time 390720, Note Name: F2, Velocity: 60
Note OFF: Time 390840, Note Name: F2
Note ON: Time 391200, Note Name: D#3, Velocity: 53
Note OFF: Time 391320, Note Name: D#3
Note ON: Time 391320, Note Name: D3, Velocity: 46
Note OFF: Time 391440, Note Name: D3
Note ON: Time 391440, Note Name: D#3, Velocity: 53
Note OFF: Time 391560, Note Name: D#3
Note ON: Time 391560, Note Name: C3, Velocity: 46
Note OFF: Time 391680, Note Name: C3
Note ON: Time 391680, Note Name: A#2, Velocity: 60
Note OFF: Time 391800, Note Name: A#2
Note ON: Time 392160, Note Name: A#3, Velocity: 53
Note OFF: Time 392280, Note Name: A#3
Note ON: Time 392280, Note Name: A3, Velocity: 46
Note OFF: Time 392400, Note Name: A3
Note ON: Time 392400, Note Name: A#3, Velocity: 53
Note OFF: Time 392520, Note Name: A#3
Note ON: Time 392520, Note Name: G3, Velocity: 46
Note OFF: Time 392640, Note Name: G3
Note ON: Time 392640, Note Name: F3, Velocity: 60
Note OFF: Time 392760, Note Name: F3
Note ON: Time 393120, Note Name: D#4, Velocity: 60
Note OFF: Time 393240, Note Name: D#4
Note ON: Time 393240, Note Name: D4, Velocity: 52
Note OFF: Time 393360, Note Name: D4
Note ON: Time 393360, Note Name: D#4, Velocity: 60
Note OFF: Time 393480, Note Name: D#4
Note ON: Time 393480, Note Name: C4, Velocity: 52
Note OFF: Time 393600, Note Name: C4
Note ON: Time 393600, Note Name: A#3, Velocity: 69
Note OFF: Time 393720, Note Name: A#3
Note ON: Time 393840, Note Name: C4, Velocity: 53
Note OFF: Time 393960, Note Name: C4
Note ON: Time 393960, Note Name: D4, Velocity: 48
Note OFF: Time 394080, Note Name: D4
Note ON: Time 394080, Note Name: D#4, Velocity: 54
Note OFF: Time 394200, Note Name: D#4
Note ON: Time 394200, Note Name: F4, Velocity: 48
Note OFF: Time 394320, Note Name: F4
Note ON: Time 394320, Note Name: G4, Velocity: 48
Note OFF: Time 394440, Note Name: G4
Note ON: Time 394440, Note Name: A4, Velocity: 49
Note OFF: Time 394560, Note Name: A4
Note ON: Time 394560, Note Name: A#4, Velocity: 56
Note OFF: Time 394680, Note Name: A#4
Note ON: Time 394680, Note Name: A4, Velocity: 50
Note OFF: Time 394800, Note Name: A4
Note ON: Time 394800, Note Name: A#4, Velocity: 50
Note OFF: Time 394920, Note Name: A#4
Note ON: Time 394920, Note Name: C5, Velocity: 51
Note OFF: Time 395040, Note Name: C5
Note ON: Time 395040, Note Name: D5, Velocity: 58
Note OFF: Time 395160, Note Name: D5
Note ON: Time 395160, Note Name: C5, Velocity: 52
Note OFF: Time 395280, Note Name: C5
Note ON: Time 395280, Note Name: D5, Velocity: 52
Note OFF: Time 395400, Note Name: D5
Note ON: Time 395400, Note Name: E5, Velocity: 53
Note OFF: Time 395520, Note Name: E5
Note ON: Time 395520, Note Name: F5, Velocity: 73
Note OFF: Time 395640, Note Name: F5
Note ON: Time 396000, Note Name: F3, Velocity: 60
Note OFF: Time 396120, Note Name: F3
Note ON: Time 396960, Note Name: A#2, Velocity: 54
Note ON: Time 396960, Note Name: D3, Velocity: 65
Note OFF: Time 397080, Note Name: A#2
Note ON: Time 397080, Note Name: A2, Velocity: 52
Note OFF: Time 397200, Note Name: A2
Note ON: Time 397200, Note Name: A#2, Velocity: 58
Note OFF: Time 397320, Note Name: A#2
Note ON: Time 397320, Note Name: F2, Velocity: 50
Note OFF: Time 397440, Note Name: F2
Note OFF: Time 397440, Note Name: D3
Note ON: Time 397440, Note Name: D3, Velocity: 65
Note ON: Time 397440, Note Name: F3, Velocity: 65
Note OFF: Time 397560, Note Name: F3
Note OFF: Time 397560, Note Name: D3
Note ON: Time 397920, Note Name: A#2, Velocity: 58
Note ON: Time 397920, Note Name: D3, Velocity: 58
Note OFF: Time 398040, Note Name: D3
Note OFF: Time 398040, Note Name: A#2
Note ON: Time 398880, Note Name: A#2, Velocity: 54
Note ON: Time 398880, Note Name: D3, Velocity: 65
Note OFF: Time 399000, Note Name: A#2
Note ON: Time 399000, Note Name: A2, Velocity: 52
Note OFF: Time 399120, Note Name: A2
Note ON: Time 399120, Note Name: A#2, Velocity: 58
Note OFF: Time 399240, Note Name: A#2
Note ON: Time 399240, Note Name: F2, Velocity: 50
Note OFF: Time 399360, Note Name: F2
Note OFF: Time 399360, Note Name: D3
Note ON: Time 399360, Note Name: D3, Velocity: 65
Note ON: Time 399360, Note Name: F3, Velocity: 65
Note OFF: Time 399480, Note Name: F3
Note OFF: Time 399480, Note Name: D3
Note ON: Time 399840, Note Name: A#2, Velocity: 58
Note ON: Time 399840, Note Name: D3, Velocity: 58
Note OFF: Time 399960, Note Name: D3
Note OFF: Time 399960, Note Name: A#2
Note ON: Time 400800, Note Name: D3, Velocity: 65
Note OFF: Time 400920, Note Name: D3
Note ON: Time 400920, Note Name: C#3, Velocity: 57
Note OFF: Time 401040, Note Name: C#3
Note ON: Time 401040, Note Name: D3, Velocity: 62
Note OFF: Time 401160, Note Name: D3
Note ON: Time 401160, Note Name: A#2, Velocity: 55
Note OFF: Time 401280, Note Name: A#2
Note ON: Time 401280, Note Name: F3, Velocity: 65
Note OFF: Time 401400, Note Name: F3
Note ON: Time 401400, Note Name: E3, Velocity: 58
Note OFF: Time 401520, Note Name: E3
Note ON: Time 401520, Note Name: F3, Velocity: 63
Note OFF: Time 401640, Note Name: F3
Note ON: Time 401640, Note Name: D3, Velocity: 57
Note OFF: Time 401760, Note Name: D3
Note ON: Time 401760, Note Name: A#3, Velocity: 65
Note OFF: Time 401880, Note Name: A#3
Note ON: Time 401880, Note Name: A3, Velocity: 58
Note OFF: Time 402000, Note Name: A3
Note ON: Time 402000, Note Name: A#3, Velocity: 63
Note OFF: Time 402120, Note Name: A#3
Note ON: Time 402120, Note Name: F3, Velocity: 57
Note OFF: Time 402240, Note Name: F3
Note ON: Time 402240, Note Name: D4, Velocity: 65
Note OFF: Time 402360, Note Name: D4
Note ON: Time 402360, Note Name: C#4, Velocity: 58
Note OFF: Time 402480, Note Name: C#4
Note ON: Time 402480, Note Name: D4, Velocity: 63
Note OFF: Time 402600, Note Name: D4
Note ON: Time 402600, Note Name: A#3, Velocity: 57
Note OFF: Time 402720, Note Name: A#3
Note ON: Time 402720, Note Name: F4, Velocity: 63
Note OFF: Time 402840, Note Name: F4
Note ON: Time 402840, Note Name: E4, Velocity: 58
Note OFF: Time 402960, Note Name: E4
Note ON: Time 402960, Note Name: F4, Velocity: 62
Note OFF: Time 403080, Note Name: F4
Note ON: Time 403080, Note Name: D4, Velocity: 57
Note OFF: Time 403200, Note Name: D4
Note ON: Time 403200, Note Name: G#4, Velocity: 75
Note OFF: Time 404040, Note Name: G#4
Note ON: Time 404040, Note Name: G4, Velocity: 63
Note OFF: Time 404160, Note Name: G4
Note ON: Time 404160, Note Name: F4, Velocity: 71
Note OFF: Time 404520, Note Name: F4
Note ON: Time 404520, Note Name: D#4, Velocity: 63
Note OFF: Time 404640, Note Name: D#4
Note ON: Time 404640, Note Name: D4, Velocity: 72
Note OFF: Time 405000, Note Name: D4
Note ON: Time 405000, Note Name: C4, Velocity: 63
Note OFF: Time 405120, Note Name: C4
Note ON: Time 405120, Note Name: B3, Velocity: 72
Note OFF: Time 406080, Note Name: B3
Note ON: Time 406080, Note Name: C4, Velocity: 48
Note OFF: Time 406560, Note Name: C4
Note ON: Time 406560, Note Name: A3, Velocity: 42
Note OFF: Time 407040, Note Name: A3
Note ON: Time 407040, Note Name: A#3, Velocity: 51
Note OFF: Time 407520, Note Name: A#3
Note ON: Time 407520, Note Name: G3, Velocity: 44
Note OFF: Time 408000, Note Name: G3
Note ON: Time 408000, Note Name: G#3, Velocity: 52
Note OFF: Time 408480, Note Name: G#3
Note ON: Time 408480, Note Name: F#3, Velocity: 34
Note OFF: Time 408960, Note Name: F#3
Note ON: Time 408960, Note Name: G3, Velocity: 51
Note OFF: Time 409440, Note Name: G3
Note ON: Time 409440, Note Name: E3, Velocity: 44
Note OFF: Time 409920, Note Name: E3
Note ON: Time 409920, Note Name: F3, Velocity: 52
Note OFF: Time 410400, Note Name: F3
Note ON: Time 410400, Note Name: D3, Velocity: 34
Note OFF: Time 410880, Note Name: D3
Note ON: Time 410880, Note Name: D#3, Velocity: 51
Note OFF: Time 411360, Note Name: D#3
Note ON: Time 411360, Note Name: C3, Velocity: 44
Note OFF: Time 411840, Note Name: C3
Note ON: Time 411840, Note Name: D3, Velocity: 52
Note OFF: Time 412320, Note Name: D3
Note ON: Time 412320, Note Name: E3, Velocity: 34
Note OFF: Time 412800, Note Name: E3
Note ON: Time 412800, Note Name: F2, Velocity: 51
Note OFF: Time 413040, Note Name: F2
Note ON: Time 413040, Note Name: F3, Velocity: 42
Note OFF: Time 413177, Note Name: F3
Note ON: Time 413280, Note Name: F3, Velocity: 42
Note OFF: Time 413417, Note Name: F3
Note ON: Time 413520, Note Name: F3, Velocity: 42
Note OFF: Time 413657, Note Name: F3
Note ON: Time 413760, Note Name: F3, Velocity: 51
Note OFF: Time 413897, Note Name: F3
Note ON: Time 414000, Note Name: F3, Velocity: 43
Note OFF: Time 414137, Note Name: F3
Note ON: Time 414240, Note Name: F3, Velocity: 43
Note OFF: Time 414377, Note Name: F3
Note ON: Time 414480, Note Name: F3, Velocity: 43
Note OFF: Time 414617, Note Name: F3
Note ON: Time 414720, Note Name: F3, Velocity: 51
Note OFF: Time 414857, Note Name: F3
Note ON: Time 414960, Note Name: F3, Velocity: 42
Note OFF: Time 415097, Note Name: F3
Note ON: Time 415200, Note Name: F3, Velocity: 42
Note OFF: Time 415337, Note Name: F3
Note ON: Time 415440, Note Name: F3, Velocity: 42
Note OFF: Time 415577, Note Name: F3
Note ON: Time 415680, Note Name: F3, Velocity: 51
Note OFF: Time 415817, Note Name: F3
Note ON: Time 415920, Note Name: F3, Velocity: 43
Note OFF: Time 416057, Note Name: F3
Note ON: Time 416160, Note Name: F3, Velocity: 43
Note OFF: Time 416297, Note Name: F3
Note ON: Time 416400, Note Name: F3, Velocity: 43
Note OFF: Time 416544, Note Name: F3
Note ON: Time 416640, Note Name: F2, Velocity: 46
Note ON: Time 416640, Note Name: F3, Velocity: 51
Note OFF: Time 416880, Note Name: F3
Note OFF: Time 416880, Note Name: F2
Note ON: Time 416880, Note Name: F4, Velocity: 42
Note OFF: Time 417017, Note Name: F4
Note ON: Time 417120, Note Name: F4, Velocity: 42
Note OFF: Time 417257, Note Name: F4
Note ON: Time 417360, Note Name: F4, Velocity: 42
Note OFF: Time 417497, Note Name: F4
Note ON: Time 417600, Note Name: F4, Velocity: 51
Note OFF: Time 417737, Note Name: F4
Note ON: Time 417840, Note Name: F4, Velocity: 43
Note OFF: Time 417977, Note Name: F4
Note ON: Time 418080, Note Name: F4, Velocity: 43
Note OFF: Time 418217, Note Name: F4
Note ON: Time 418320, Note Name: F4, Velocity: 43
Note OFF: Time 418457, Note Name: F4
Note ON: Time 418560, Note Name: F4, Velocity: 51
Note OFF: Time 418697, Note Name: F4
Note ON: Time 418800, Note Name: F4, Velocity: 42
Note OFF: Time 418937, Note Name: F4
Note ON: Time 419040, Note Name: F4, Velocity: 42
Note OFF: Time 419177, Note Name: F4
Note ON: Time 419280, Note Name: F4, Velocity: 42
Note OFF: Time 419417, Note Name: F4
Note ON: Time 419520, Note Name: F4, Velocity: 51
Note OFF: Time 419657, Note Name: F4
Note ON: Time 419760, Note Name: F4, Velocity: 43
Note OFF: Time 419897, Note Name: F4
Note ON: Time 420000, Note Name: F4, Velocity: 43
Note OFF: Time 420137, Note Name: F4
Note ON: Time 420240, Note Name: F4, Velocity: 43
Note OFF: Time 420384, Note Name: F4
Note ON: Time 420480, Note Name: F3, Velocity: 51
Note OFF: Time 420708, Note Name: F3
Note ON: Time 420720, Note Name: F4, Velocity: 43
Note OFF: Time 420857, Note Name: F4
Note ON: Time 420960, Note Name: F4, Velocity: 43
Note OFF: Time 421097, Note Name: F4
Note ON: Time 421200, Note Name: F4, Velocity: 43
Note OFF: Time 421344, Note Name: F4
Note ON: Time 421440, Note Name: F3, Velocity: 51
Note OFF: Time 421668, Note Name: F3
Note ON: Time 421680, Note Name: F4, Velocity: 43
Note OFF: Time 421817, Note Name: F4
Note ON: Time 421920, Note Name: F4, Velocity: 43
Note OFF: Time 422057, Note Name: F4
Note ON: Time 422160, Note Name: F4, Velocity: 43
Note OFF: Time 422304, Note Name: F4
Note ON: Time 422400, Note Name: F3, Velocity: 51
Note OFF: Time 422880, Note Name: F3
Note ON: Time 424440, Note Name: A#3, Velocity: 31
Note ON: Time 424560, Note Name: C4, Velocity: 36
Note OFF: Time 424572, Note Name: A#3
Note ON: Time 424680, Note Name: D4, Velocity: 31
Note OFF: Time 424692, Note Name: C4
Note ON: Time 424800, Note Name: D#4, Velocity: 36
Note OFF: Time 424812, Note Name: D4
Note ON: Time 424920, Note Name: F4, Velocity: 31
Note OFF: Time 424932, Note Name: D#4
Note ON: Time 425040, Note Name: G4, Velocity: 36
Note OFF: Time 425052, Note Name: F4
Note ON: Time 425160, Note Name: A4, Velocity: 29
Note OFF: Time 425172, Note Name: G4
Note ON: Time 425280, Note Name: A#4, Velocity: 36
Note OFF: Time 425292, Note Name: A4
Note ON: Time 425400, Note Name: A4, Velocity: 29
Note OFF: Time 425412, Note Name: A#4
Note ON: Time 425520, Note Name: A#4, Velocity: 36
Note OFF: Time 425532, Note Name: A4
Note ON: Time 425640, Note Name: A4, Velocity: 29
Note OFF: Time 425652, Note Name: A#4
Note ON: Time 425760, Note Name: A#4, Velocity: 36
Note OFF: Time 425772, Note Name: A4
Note ON: Time 425880, Note Name: A4, Velocity: 27
Note OFF: Time 425892, Note Name: A#4
Note ON: Time 426000, Note Name: A#4, Velocity: 34
Note OFF: Time 426012, Note Name: A4
Note ON: Time 426120, Note Name: A4, Velocity: 26
Note OFF: Time 426132, Note Name: A#4
Note OFF: Time 426240, Note Name: A4
Note ON: Time 426240, Note Name: A#4, Velocity: 30
Note ON: Time 426360, Note Name: A4, Velocity: 25
Note OFF: Time 426372, Note Name: A#4
Note ON: Time 426480, Note Name: A#4, Velocity: 30
Note OFF: Time 426492, Note Name: A4
Note ON: Time 426600, Note Name: A4, Velocity: 25
Note OFF: Time 426612, Note Name: A#4
Note ON: Time 426720, Note Name: A#4, Velocity: 30
Note OFF: Time 426732, Note Name: A4
Note ON: Time 426840, Note Name: A4, Velocity: 25
Note OFF: Time 426852, Note Name: A#4
Note ON: Time 426960, Note Name: A#4, Velocity: 30
Note OFF: Time 426972, Note Name: A4
Note ON: Time 427080, Note Name: A4, Velocity: 25
Note OFF: Time 427092, Note Name: A#4
Note ON: Time 427200, Note Name: A#4, Velocity: 30
Note OFF: Time 427212, Note Name: A4
Note ON: Time 427320, Note Name: A4, Velocity: 25
Note OFF: Time 427332, Note Name: A#4
Note ON: Time 427440, Note Name: A#4, Velocity: 30
Note OFF: Time 427452, Note Name: A4
Note ON: Time 427560, Note Name: A4, Velocity: 25
Note OFF: Time 427572, Note Name: A#4
Note ON: Time 427680, Note Name: A#4, Velocity: 30
Note OFF: Time 427692, Note Name: A4
Note ON: Time 427800, Note Name: A4, Velocity: 25
Note OFF: Time 427812, Note Name: A#4
Note ON: Time 427920, Note Name: A#4, Velocity: 30
Note OFF: Time 427932, Note Name: A4
Note ON: Time 428040, Note Name: A4, Velocity: 25
Note OFF: Time 428052, Note Name: A#4
Note OFF: Time 428160, Note Name: A4
Note ON: Time 428160, Note Name: A#4, Velocity: 30
Note OFF: Time 428280, Note Name: A#4
Note ON: Time 428280, Note Name: A#3, Velocity: 31
Note ON: Time 428400, Note Name: C4, Velocity: 36
Note OFF: Time 428412, Note Name: A#3
Note ON: Time 428520, Note Name: D4, Velocity: 31
Note OFF: Time 428532, Note Name: C4
Note ON: Time 428640, Note Name: D#4, Velocity: 36
Note OFF: Time 428652, Note Name: D4
Note ON: Time 428760, Note Name: F4, Velocity: 31
Note OFF: Time 428772, Note Name: D#4
Note ON: Time 428880, Note Name: G4, Velocity: 36
Note OFF: Time 428892, Note Name: F4
Note ON: Time 429000, Note Name: A4, Velocity: 29
Note OFF: Time 429012, Note Name: G4
Note ON: Time 429120, Note Name: A#4, Velocity: 36
Note OFF: Time 429132, Note Name: A4
Note ON: Time 429240, Note Name: A4, Velocity: 29
Note OFF: Time 429252, Note Name: A#4
Note ON: Time 429360, Note Name: A#4, Velocity: 36
Note OFF: Time 429372, Note Name: A4
Note ON: Time 429480, Note Name: A4, Velocity: 29
Note OFF: Time 429492, Note Name: A#4
Note ON: Time 429600, Note Name: A#4, Velocity: 36
Note OFF: Time 429612, Note Name: A4
Note ON: Time 429720, Note Name: A4, Velocity: 27
Note OFF: Time 429732, Note Name: A#4
Note ON: Time 429840, Note Name: A#4, Velocity: 34
Note OFF: Time 429852, Note Name: A4
Note ON: Time 429960, Note Name: A4, Velocity: 26
Note OFF: Time 429972, Note Name: A#4
Note OFF: Time 430080, Note Name: A4
Note ON: Time 430080, Note Name: A#4, Velocity: 30
Note ON: Time 430200, Note Name: A4, Velocity: 25
Note OFF: Time 430212, Note Name: A#4
Note ON: Time 430320, Note Name: A#4, Velocity: 30
Note OFF: Time 430332, Note Name: A4
Note ON: Time 430440, Note Name: A4, Velocity: 25
Note OFF: Time 430452, Note Name: A#4
Note ON: Time 430560, Note Name: A#4, Velocity: 30
Note OFF: Time 430572, Note Name: A4
Note ON: Time 430680, Note Name: A4, Velocity: 25
Note OFF: Time 430692, Note Name: A#4
Note ON: Time 430800, Note Name: A#4, Velocity: 30
Note OFF: Time 430812, Note Name: A4
Note ON: Time 430920, Note Name: A4, Velocity: 25
Note OFF: Time 430932, Note Name: A#4
Note ON: Time 431040, Note Name: A#4, Velocity: 30
Note OFF: Time 431052, Note Name: A4
Note ON: Time 431160, Note Name: A4, Velocity: 25
Note OFF: Time 431172, Note Name: A#4
Note ON: Time 431280, Note Name: A#4, Velocity: 30
Note OFF: Time 431292, Note Name: A4
Note ON: Time 431400, Note Name: A4, Velocity: 25
Note OFF: Time 431412, Note Name: A#4
Note ON: Time 431520, Note Name: A#4, Velocity: 30
Note OFF: Time 431532, Note Name: A4
Note ON: Time 431640, Note Name: G#4, Velocity: 25
Note OFF: Time 431652, Note Name: A#4
Note ON: Time 431760, Note Name: A#4, Velocity: 30
Note OFF: Time 431772, Note Name: G#4
Note ON: Time 431880, Note Name: G#4, Velocity: 25
Note OFF: Time 431892, Note Name: A#4
Note OFF: Time 432000, Note Name: G#4
Note ON: Time 432000, Note Name: F#4, Velocity: 39
Note ON: Time 432120, Note Name: G4, Velocity: 34
Note OFF: Time 432180, Note Name: F#4
Note OFF: Time 432240, Note Name: G4
Note ON: Time 432240, Note Name: F#4, Velocity: 39
Note ON: Time 432360, Note Name: G4, Velocity: 35
Note OFF: Time 432420, Note Name: F#4
Note OFF: Time 432480, Note Name: G4
Note ON: Time 432480, Note Name: E4, Velocity: 41
Note ON: Time 432600, Note Name: F4, Velocity: 35
Note OFF: Time 432660, Note Name: E4
Note OFF: Time 432720, Note Name: F4
Note ON: Time 432720, Note Name: E4, Velocity: 42
Note ON: Time 432840, Note Name: F4, Velocity: 36
Note OFF: Time 432900, Note Name: E4
Note OFF: Time 432960, Note Name: F4
Note ON: Time 432960, Note Name: C#4, Velocity: 44
Note ON: Time 433080, Note Name: D4, Velocity: 37
Note OFF: Time 433140, Note Name: C#4
Note OFF: Time 433200, Note Name: D4
Note ON: Time 433200, Note Name: C#4, Velocity: 45
Note ON: Time 433320, Note Name: D4, Velocity: 37
Note OFF: Time 433380, Note Name: C#4
Note OFF: Time 433440, Note Name: D4
Note ON: Time 433440, Note Name: A#3, Velocity: 44
Note ON: Time 433560, Note Name: B3, Velocity: 38
Note OFF: Time 433620, Note Name: A#3
Note OFF: Time 433680, Note Name: B3
Note ON: Time 433680, Note Name: A#3, Velocity: 44
Note ON: Time 433800, Note Name: B3, Velocity: 39
Note OFF: Time 433860, Note Name: A#3
Note OFF: Time 433920, Note Name: B3
Note ON: Time 433920, Note Name: F#3, Velocity: 45
Note ON: Time 434040, Note Name: G3, Velocity: 39
Note OFF: Time 434100, Note Name: F#3
Note OFF: Time 434160, Note Name: G3
Note ON: Time 434160, Note Name: F#3, Velocity: 46
Note ON: Time 434280, Note Name: G3, Velocity: 40
Note OFF: Time 434340, Note Name: F#3
Note OFF: Time 434400, Note Name: G3
Note ON: Time 434400, Note Name: E3, Velocity: 48
Note ON: Time 434520, Note Name: F3, Velocity: 41
Note OFF: Time 434580, Note Name: E3
Note OFF: Time 434640, Note Name: F3
Note ON: Time 434640, Note Name: E3, Velocity: 48
Note ON: Time 434760, Note Name: F3, Velocity: 41
Note OFF: Time 434820, Note Name: E3
Note OFF: Time 434880, Note Name: F3
Note ON: Time 434880, Note Name: C#3, Velocity: 54
Note ON: Time 435000, Note Name: D3, Velocity: 42
Note OFF: Time 435060, Note Name: C#3
Note OFF: Time 435120, Note Name: D3
Note ON: Time 435120, Note Name: C#3, Velocity: 52
Note ON: Time 435240, Note Name: D3, Velocity: 43
Note OFF: Time 435300, Note Name: C#3
Note OFF: Time 435360, Note Name: D3
Note ON: Time 435360, Note Name: A#2, Velocity: 55
Note ON: Time 435480, Note Name: B2, Velocity: 44
Note OFF: Time 435540, Note Name: A#2
Note OFF: Time 435600, Note Name: B2
Note ON: Time 435600, Note Name: A#2, Velocity: 51
Note ON: Time 435720, Note Name: B2, Velocity: 44
Note OFF: Time 435780, Note Name: A#2
Note OFF: Time 435840, Note Name: B2
Note ON: Time 435840, Note Name: F#2, Velocity: 57
Note ON: Time 435960, Note Name: G2, Velocity: 44
Note OFF: Time 436020, Note Name: F#2
Note OFF: Time 436080, Note Name: G2
Note ON: Time 436080, Note Name: F#2, Velocity: 51
Note ON: Time 436200, Note Name: G2, Velocity: 44
Note OFF: Time 436260, Note Name: F#2
Note OFF: Time 436320, Note Name: G2
Note ON: Time 436320, Note Name: F#2, Velocity: 56
Note ON: Time 436440, Note Name: G2, Velocity: 50
Note OFF: Time 436500, Note Name: F#2
Note OFF: Time 436560, Note Name: G2
Note ON: Time 436560, Note Name: F#2, Velocity: 57
Note ON: Time 436680, Note Name: G2, Velocity: 44
Note OFF: Time 436740, Note Name: F#2
Note OFF: Time 436790, Note Name: G2
Note ON: Time 436800, Note Name: G2, Velocity: 61
Note ON: Time 436920, Note Name: G#2, Velocity: 52
Note OFF: Time 436980, Note Name: G2
Note OFF: Time 437040, Note Name: G#2
Note ON: Time 437040, Note Name: G2, Velocity: 58
Note ON: Time 437160, Note Name: G#2, Velocity: 52
Note OFF: Time 437220, Note Name: G2
Note OFF: Time 437280, Note Name: G#2
Note ON: Time 437280, Note Name: G#2, Velocity: 58
Note ON: Time 437400, Note Name: A2, Velocity: 44
Note OFF: Time 437460, Note Name: G#2
Note OFF: Time 437520, Note Name: A2
Note ON: Time 437520, Note Name: G#2, Velocity: 54
Note ON: Time 437640, Note Name: A2, Velocity: 44
Note OFF: Time 437700, Note Name: G#2
Note OFF: Time 437760, Note Name: A2
Note ON: Time 437760, Note Name: A2, Velocity: 56
Note ON: Time 437880, Note Name: A#2, Velocity: 48
Note OFF: Time 437940, Note Name: A2
Note OFF: Time 438000, Note Name: A#2
Note ON: Time 438000, Note Name: A2, Velocity: 51
Note ON: Time 438120, Note Name: A#2, Velocity: 44
Note OFF: Time 438180, Note Name: A2
Note OFF: Time 438240, Note Name: A#2
Note ON: Time 438240, Note Name: A2, Velocity: 51
Note ON: Time 438360, Note Name: A#2, Velocity: 44
Note OFF: Time 438420, Note Name: A2
Note OFF: Time 438480, Note Name: A#2
Note ON: Time 438480, Note Name: A2, Velocity: 51
Note ON: Time 438600, Note Name: A#2, Velocity: 44
Note OFF: Time 438660, Note Name: A2
Note OFF: Time 438710, Note Name: A#2
Note ON: Time 438720, Note Name: D2, Velocity: 51
Note ON: Time 438840, Note Name: D#2, Velocity: 44
Note OFF: Time 438900, Note Name: D2
Note OFF: Time 438960, Note Name: D#2
Note ON: Time 438960, Note Name: D2, Velocity: 51
Note ON: Time 439080, Note Name: D#2, Velocity: 44
Note OFF: Time 439140, Note Name: D2
Note OFF: Time 439190, Note Name: D#2
Note ON: Time 439200, Note Name: E2, Velocity: 51
Note ON: Time 439320, Note Name: F2, Velocity: 44
Note OFF: Time 439380, Note Name: E2
Note OFF: Time 439440, Note Name: F2
Note ON: Time 439440, Note Name: E2, Velocity: 51
Note ON: Time 439560, Note Name: F2, Velocity: 44
Note OFF: Time 439620, Note Name: E2
Note OFF: Time 439670, Note Name: F2
Note ON: Time 439680, Note Name: A#1, Velocity: 48
Note OFF: Time 439920, Note Name: A#1
Note ON: Time 440640, Note Name: A#3, Velocity: 54
Note ON: Time 440640, Note Name: D4, Velocity: 64
Note OFF: Time 441590, Note Name: A#3
Note OFF: Time 441600, Note Name: D4
Note ON: Time 441600, Note Name: G3, Velocity: 41
Note ON: Time 441600, Note Name: A#3, Velocity: 49
Note OFF: Time 442070, Note Name: G3
Note OFF: Time 442080, Note Name: A#3
Note ON: Time 442080, Note Name: D#3, Velocity: 41
Note ON: Time 442080, Note Name: G3, Velocity: 49
Note OFF: Time 442320, Note Name: G3
Note OFF: Time 442320, Note Name: D#3
Note ON: Time 442560, Note Name: C4, Velocity: 54
Note ON: Time 442560, Note Name: D#4, Velocity: 64
Note OFF: Time 443280, Note Name: D#4
Note OFF: Time 443280, Note Name: C4
Note ON: Time 443280, Note Name: A#3, Velocity: 41
Note ON: Time 443280, Note Name: D4, Velocity: 49
Note OFF: Time 443520, Note Name: D4
Note OFF: Time 443520, Note Name: A#3
Note ON: Time 443520, Note Name: A3, Velocity: 49
Note ON: Time 443520, Note Name: C4, Velocity: 58
Note OFF: Time 443990, Note Name: A3
Note OFF: Time 444000, Note Name: C4
Note ON: Time 444000, Note Name: F3, Velocity: 44
Note ON: Time 444000, Note Name: A3, Velocity: 52
Note OFF: Time 444240, Note Name: A3
Note OFF: Time 444240, Note Name: F3
Note ON: Time 444480, Note Name: D4, Velocity: 54
Note ON: Time 444480, Note Name: F4, Velocity: 64
Note OFF: Time 445430, Note Name: D4
Note OFF: Time 445440, Note Name: F4
Note ON: Time 445440, Note Name: A#3, Velocity: 41
Note ON: Time 445440, Note Name: D4, Velocity: 49
Note OFF: Time 445910, Note Name: A#3
Note OFF: Time 445920, Note Name: D4
Note ON: Time 445920, Note Name: G3, Velocity: 41
Note ON: Time 445920, Note Name: A#3, Velocity: 49
Note OFF: Time 446160, Note Name: A#3
Note OFF: Time 446160, Note Name: G3
Note ON: Time 446400, Note Name: D#4, Velocity: 54
Note ON: Time 446400, Note Name: G4, Velocity: 64
Note OFF: Time 447120, Note Name: G4
Note OFF: Time 447120, Note Name: D#4
Note ON: Time 447120, Note Name: D4, Velocity: 41
Note ON: Time 447120, Note Name: F4, Velocity: 49
Note OFF: Time 447360, Note Name: F4
Note OFF: Time 447360, Note Name: D4
Note ON: Time 447360, Note Name: C4, Velocity: 49
Note ON: Time 447360, Note Name: D#4, Velocity: 58
Note OFF: Time 447830, Note Name: C4
Note OFF: Time 447840, Note Name: D#4
Note ON: Time 447840, Note Name: A3, Velocity: 44
Note ON: Time 447840, Note Name: C4, Velocity: 52
Note OFF: Time 448080, Note Name: C4
Note OFF: Time 448080, Note Name: A3
Note ON: Time 448320, Note Name: D#4, Velocity: 54
Note ON: Time 448320, Note Name: C5, Velocity: 64
Note OFF: Time 449040, Note Name: C5
Note OFF: Time 449040, Note Name: D#4
Note ON: Time 449040, Note Name: D4, Velocity: 41
Note ON: Time 449040, Note Name: A#4, Velocity: 49
Note OFF: Time 449280, Note Name: A#4
Note OFF: Time 449280, Note Name: D4
Note ON: Time 449280, Note Name: C4, Velocity: 54
Note ON: Time 449280, Note Name: A4, Velocity: 64
Note OFF: Time 450000, Note Name: A4
Note OFF: Time 450000, Note Name: C4
Note ON: Time 450000, Note Name: A#3, Velocity: 41
Note ON: Time 450000, Note Name: G4, Velocity: 41
Note OFF: Time 450240, Note Name: G4
Note OFF: Time 450240, Note Name: A#3
Note ON: Time 450240, Note Name: A3, Velocity: 41
Note ON: Time 450240, Note Name: F4, Velocity: 49
Note OFF: Time 450720, Note Name: F4
Note OFF: Time 450720, Note Name: A3
Note ON: Time 450720, Note Name: G3, Velocity: 34
Note ON: Time 450720, Note Name: A#3, Velocity: 41
Note OFF: Time 451200, Note Name: A#3
Note OFF: Time 451200, Note Name: G3
Note ON: Time 451200, Note Name: F#3, Velocity: 36
Note ON: Time 451200, Note Name: A3, Velocity: 43
Note OFF: Time 451680, Note Name: A3
Note OFF: Time 451680, Note Name: F#3
Note ON: Time 451680, Note Name: D3, Velocity: 27
Note ON: Time 451680, Note Name: A3, Velocity: 32
Note OFF: Time 452160, Note Name: A3
Note OFF: Time 452160, Note Name: D3
Note ON: Time 452160, Note Name: D#3, Velocity: 33
Note ON: Time 452160, Note Name: G3, Velocity: 39
Note OFF: Time 452640, Note Name: G3
Note OFF: Time 452640, Note Name: D#3
Note ON: Time 452640, Note Name: A#3, Velocity: 40
Note ON: Time 452640, Note Name: E3, Velocity: 31
Note OFF: Time 453120, Note Name: E3
Note OFF: Time 453120, Note Name: A#3
Note ON: Time 453120, Note Name: F3, Velocity: 38
Note OFF: Time 454080, Note Name: F3
Note ON: Time 454080, Note Name: F2, Velocity: 32
Note OFF: Time 455040, Note Name: F2
Note ON: Time 455040, Note Name: A#1, Velocity: 35
Note OFF: Time 456000, Note Name: A#1
Note ON: Time 456000, Note Name: D4, Velocity: 66
Note ON: Time 456000, Note Name: A#3, Velocity: 55
Note OFF: Time 456720, Note Name: A#3
Note OFF: Time 456720, Note Name: D4
Note ON: Time 456720, Note Name: A#3, Velocity: 37
Note ON: Time 456720, Note Name: D4, Velocity: 44
Note OFF: Time 456840, Note Name: D4
Note OFF: Time 456840, Note Name: A#3
Note ON: Time 456960, Note Name: G3, Velocity: 45
Note ON: Time 456960, Note Name: A#3, Velocity: 53
Note OFF: Time 457080, Note Name: A#3
Note OFF: Time 457080, Note Name: G3
Note ON: Time 457440, Note Name: D#3, Velocity: 39
Note ON: Time 457440, Note Name: G3, Velocity: 47
Note OFF: Time 457560, Note Name: G3
Note OFF: Time 457560, Note Name: D#3
Note ON: Time 457920, Note Name: D#4, Velocity: 66
Note ON: Time 457920, Note Name: C4, Velocity: 55
Note OFF: Time 458640, Note Name: C4
Note OFF: Time 458640, Note Name: D#4
Note ON: Time 458640, Note Name: A#3, Velocity: 37
Note ON: Time 458640, Note Name: D4, Velocity: 44
Note OFF: Time 458760, Note Name: D4
Note OFF: Time 458760, Note Name: A#3
Note ON: Time 458880, Note Name: A3, Velocity: 45
Note ON: Time 458880, Note Name: C4, Velocity: 53
Note OFF: Time 459000, Note Name: C4
Note OFF: Time 459000, Note Name: A3
Note ON: Time 459360, Note Name: F3, Velocity: 39
Note ON: Time 459360, Note Name: A3, Velocity: 47
Note OFF: Time 459480, Note Name: A3
Note OFF: Time 459480, Note Name: F3
Note ON: Time 459840, Note Name: F4, Velocity: 72
Note ON: Time 459840, Note Name: D4, Velocity: 60
Note OFF: Time 460560, Note Name: D4
Note OFF: Time 460560, Note Name: F4
Note ON: Time 460560, Note Name: D4, Velocity: 40
Note ON: Time 460560, Note Name: F4, Velocity: 48
Note OFF: Time 460680, Note Name: F4
Note OFF: Time 460680, Note Name: D4
Note ON: Time 460800, Note Name: A#3, Velocity: 49
Note ON: Time 460800, Note Name: D4, Velocity: 58
Note OFF: Time 460920, Note Name: D4
Note OFF: Time 460920, Note Name: A#3
Note ON: Time 461280, Note Name: G3, Velocity: 42
Note ON: Time 461280, Note Name: A#3, Velocity: 51
Note OFF: Time 461400, Note Name: A#3
Note OFF: Time 461400, Note Name: G3
Note ON: Time 461760, Note Name: G4, Velocity: 75
Note ON: Time 461760, Note Name: D#4, Velocity: 62
Note OFF: Time 462480, Note Name: D#4
Note OFF: Time 462480, Note Name: G4
Note ON: Time 462480, Note Name: D4, Velocity: 42
Note ON: Time 462480, Note Name: F4, Velocity: 50
Note OFF: Time 462600, Note Name: F4
Note OFF: Time 462600, Note Name: D4
Note ON: Time 462720, Note Name: C4, Velocity: 51
Note ON: Time 462720, Note Name: D#4, Velocity: 60
Note OFF: Time 462840, Note Name: D#4
Note OFF: Time 462840, Note Name: C4
Note ON: Time 463200, Note Name: A3, Velocity: 44
Note ON: Time 463200, Note Name: C4, Velocity: 53
Note OFF: Time 463320, Note Name: C4
Note OFF: Time 463320, Note Name: A3
Note ON: Time 463680, Note Name: C5, Velocity: 79
Note ON: Time 463680, Note Name: D#4, Velocity: 66
Note OFF: Time 464400, Note Name: D#4
Note OFF: Time 464400, Note Name: C5
Note ON: Time 464400, Note Name: D4, Velocity: 44
Note ON: Time 464400, Note Name: A#4, Velocity: 52
Note OFF: Time 464520, Note Name: A#4
Note OFF: Time 464520, Note Name: D4
Note ON: Time 464640, Note Name: A4, Velocity: 79
Note ON: Time 464640, Note Name: C4, Velocity: 66
Note OFF: Time 465360, Note Name: C4
Note OFF: Time 465360, Note Name: A4
Note ON: Time 465360, Note Name: A#3, Velocity: 44
Note ON: Time 465360, Note Name: G4, Velocity: 52
Note OFF: Time 465480, Note Name: G4
Note OFF: Time 465480, Note Name: A#3
Note ON: Time 465600, Note Name: A3, Velocity: 49
Note ON: Time 465600, Note Name: F4, Velocity: 58
Note OFF: Time 465720, Note Name: F4
Note OFF: Time 465720, Note Name: A3
Note ON: Time 466080, Note Name: G3, Velocity: 40
Note ON: Time 466080, Note Name: A#3, Velocity: 49
Note OFF: Time 466200, Note Name: A#3
Note OFF: Time 466200, Note Name: G3
Note ON: Time 466560, Note Name: F#3, Velocity: 34
Note ON: Time 466560, Note Name: A3, Velocity: 34
Note ON: Time 466560, Note Name: C4, Velocity: 40
Note OFF: Time 468480, Note Name: C4
Note OFF: Time 468480, Note Name: A3
Note OFF: Time 468480, Note Name: F#3
Note ON: Time 468480, Note Name: G3, Velocity: 34
Note ON: Time 468480, Note Name: A#3, Velocity: 40
Note OFF: Time 470400, Note Name: A#3
Note OFF: Time 470400, Note Name: G3
Note ON: Time 470400, Note Name: E3, Velocity: 34
Note ON: Time 470400, Note Name: G3, Velocity: 40
Note OFF: Time 472320, Note Name: G3
Note OFF: Time 472320, Note Name: E3
Note ON: Time 472320, Note Name: D#3, Velocity: 57
Note ON: Time 472320, Note Name: F#3, Velocity: 68
Note OFF: Time 473520, Note Name: F#3
Note OFF: Time 473520, Note Name: D#3
Note ON: Time 473520, Note Name: D#3, Velocity: 50
Note ON: Time 473520, Note Name: F3, Velocity: 50
Note ON: Time 473520, Note Name: C4, Velocity: 60
Note OFF: Time 473640, Note Name: C4
Note OFF: Time 473640, Note Name: F3
Note OFF: Time 473640, Note Name: D#3
Note ON: Time 473760, Note Name: D#3, Velocity: 61
Note ON: Time 473760, Note Name: F3, Velocity: 61
Note ON: Time 473760, Note Name: C4, Velocity: 72
Note OFF: Time 473880, Note Name: C4
Note OFF: Time 473880, Note Name: F3
Note OFF: Time 473880, Note Name: D#3
Note ON: Time 474000, Note Name: D#3, Velocity: 51
Note ON: Time 474000, Note Name: F3, Velocity: 51
Note ON: Time 474000, Note Name: C4, Velocity: 61
Note OFF: Time 474120, Note Name: C4
Note OFF: Time 474120, Note Name: F3
Note OFF: Time 474120, Note Name: D#3
Note ON: Time 474240, Note Name: D3, Velocity: 73
Note ON: Time 474240, Note Name: F3, Velocity: 73
Note ON: Time 474240, Note Name: A#3, Velocity: 73
Note OFF: Time 474720, Note Name: A#3
Note OFF: Time 474720, Note Name: F3
Note OFF: Time 474720, Note Name: D3
Note ON: Time 474960, Note Name: A2, Velocity: 57
Note ON: Time 474960, Note Name: F3, Velocity: 68
Note OFF: Time 475080, Note Name: F3
Note OFF: Time 475080, Note Name: A2
Note ON: Time 475200, Note Name: A#2, Velocity: 63
Note ON: Time 475200, Note Name: F3, Velocity: 75
Note OFF: Time 475320, Note Name: F3
Note OFF: Time 475320, Note Name: A#2
Note ON: Time 475440, Note Name: D#3, Velocity: 56
Note ON: Time 475440, Note Name: F3, Velocity: 67
Note OFF: Time 475560, Note Name: F3
Note OFF: Time 475560, Note Name: D#3
Note ON: Time 475680, Note Name: D3, Velocity: 63
Note ON: Time 475680, Note Name: F3, Velocity: 75
Note OFF: Time 475800, Note Name: F3
Note OFF: Time 475800, Note Name: D3
Note ON: Time 475920, Note Name: A2, Velocity: 56
Note ON: Time 475920, Note Name: F3, Velocity: 67
Note OFF: Time 476040, Note Name: F3
Note OFF: Time 476040, Note Name: A2
Note ON: Time 476160, Note Name: A#2, Velocity: 63
Note ON: Time 476160, Note Name: F3, Velocity: 75
Note OFF: Time 476280, Note Name: F3
Note OFF: Time 476280, Note Name: A#2
Note ON: Time 476400, Note Name: D#3, Velocity: 56
Note ON: Time 476400, Note Name: F3, Velocity: 67
Note OFF: Time 476520, Note Name: F3
Note OFF: Time 476520, Note Name: D#3
Note ON: Time 476640, Note Name: D3, Velocity: 63
Note ON: Time 476640, Note Name: F3, Velocity: 75
Note OFF: Time 476760, Note Name: F3
Note OFF: Time 476760, Note Name: D3
Note ON: Time 476880, Note Name: A2, Velocity: 56
Note ON: Time 476880, Note Name: F3, Velocity: 67
Note OFF: Time 477000, Note Name: F3
Note OFF: Time 477000, Note Name: A2
Note ON: Time 477120, Note Name: A#2, Velocity: 63
Note ON: Time 477120, Note Name: F3, Velocity: 75
Note OFF: Time 477240, Note Name: F3
Note OFF: Time 477240, Note Name: A#2
Note ON: Time 477360, Note Name: D#3, Velocity: 56
Note ON: Time 477360, Note Name: F3, Velocity: 67
Note OFF: Time 477480, Note Name: F3
Note OFF: Time 477480, Note Name: D#3
Note ON: Time 477600, Note Name: D3, Velocity: 63
Note ON: Time 477600, Note Name: F3, Velocity: 75
Note OFF: Time 477720, Note Name: F3
Note OFF: Time 477720, Note Name: D3
Note ON: Time 477840, Note Name: A2, Velocity: 57
Note ON: Time 477840, Note Name: F3, Velocity: 68
Note OFF: Time 477960, Note Name: F3
Note OFF: Time 477960, Note Name: A2
Note ON: Time 478080, Note Name: A#2, Velocity: 89
Note OFF: Time 479040, Note Name: A#2
Note ON: Time 479040, Note Name: G2, Velocity: 80
Note OFF: Time 480000, Note Name: G2
Note ON: Time 480000, Note Name: D#2, Velocity: 88
Note OFF: Time 480960, Note Name: D#2
Note ON: Time 480960, Note Name: F2, Velocity: 84
Note OFF: Time 481920, Note Name: F2
Note ON: Time 481920, Note Name: A#1, Velocity: 81
Note OFF: Time 482040, Note Name: A#1
Note ON: Time 482160, Note Name: D#3, Velocity: 54
Note OFF: Time 482280, Note Name: D#3
Note ON: Time 482400, Note Name: D3, Velocity: 60
Note OFF: Time 482520, Note Name: D3
Note ON: Time 482640, Note Name: A2, Velocity: 54
Note OFF: Time 482760, Note Name: A2
Note ON: Time 482880, Note Name: A#2, Velocity: 60
Note OFF: Time 483000, Note Name: A#2
Note ON: Time 483120, Note Name: D#3, Velocity: 52
Note OFF: Time 483240, Note Name: D#3
Note ON: Time 483360, Note Name: D3, Velocity: 60
Note OFF: Time 483480, Note Name: D3
Note ON: Time 483600, Note Name: A2, Velocity: 58
Note OFF: Time 483720, Note Name: A2
Note ON: Time 483840, Note Name: A#2, Velocity: 60
Note OFF: Time 483960, Note Name: A#2
Note ON: Time 484080, Note Name: D#3, Velocity: 52
Note OFF: Time 484200, Note Name: D#3
Note ON: Time 484320, Note Name: D3, Velocity: 60
Note OFF: Time 484440, Note Name: D3
Note ON: Time 484560, Note Name: A2, Velocity: 58
Note OFF: Time 484680, Note Name: A2
Note ON: Time 484800, Note Name: A#2, Velocity: 67
Note OFF: Time 484920, Note Name: A#2
Note ON: Time 485040, Note Name: C3, Velocity: 59
Note OFF: Time 485160, Note Name: C3
Note ON: Time 485280, Note Name: A#2, Velocity: 72
Note OFF: Time 485400, Note Name: A#2
Note ON: Time 485520, Note Name: A2, Velocity: 67
Note OFF: Time 485640, Note Name: A2
Note ON: Time 485760, Note Name: G2, Velocity: 75
Note OFF: Time 485880, Note Name: G2
Note ON: Time 486000, Note Name: F2, Velocity: 77
Note OFF: Time 486120, Note Name: F2
Note ON: Time 486240, Note Name: D#2, Velocity: 80
Note OFF: Time 486360, Note Name: D#2
Note ON: Time 486480, Note Name: D2, Velocity: 82
Note OFF: Time 486600, Note Name: D2
Note ON: Time 486720, Note Name: C2, Velocity: 94
Note OFF: Time 488640, Note Name: C2
Note ON: Time 488640, Note Name: F1, Velocity: 73
Note ON: Time 488640, Note Name: F2, Velocity: 87
Note OFF: Time 489600, Note Name: F2
Note OFF: Time 489600, Note Name: F1
Note ON: Time 489600, Note Name: A#1, Velocity: 30
Note OFF: Time 489720, Note Name: A#1
Note ON: Time 489720, Note Name: A#2, Velocity: 26
Note OFF: Time 489840, Note Name: A#2
Note ON: Time 489840, Note Name: A#1, Velocity: 30
Note OFF: Time 489960, Note Name: A#1
Note ON: Time 489960, Note Name: A#2, Velocity: 25
Note OFF: Time 490080, Note Name: A#2
Note ON: Time 490080, Note Name: A#1, Velocity: 30
Note OFF: Time 490200, Note Name: A#1
Note ON: Time 490200, Note Name: A#2, Velocity: 26
Note OFF: Time 490320, Note Name: A#2
Note ON: Time 490320, Note Name: A#1, Velocity: 30
Note OFF: Time 490440, Note Name: A#1
Note ON: Time 490440, Note Name: A#2, Velocity: 27
Note OFF: Time 490560, Note Name: A#2
Note ON: Time 490560, Note Name: A#1, Velocity: 30
Note OFF: Time 490680, Note Name: A#1
Note ON: Time 490680, Note Name: A#2, Velocity: 27
Note OFF: Time 490800, Note Name: A#2
Note ON: Time 490800, Note Name: A#1, Velocity: 30
Note OFF: Time 490920, Note Name: A#1
Note ON: Time 490920, Note Name: A#2, Velocity: 25
Note OFF: Time 491040, Note Name: A#2
Note ON: Time 491040, Note Name: A#1, Velocity: 30
Note OFF: Time 491160, Note Name: A#1
Note ON: Time 491160, Note Name: A#2, Velocity: 26
Note OFF: Time 491280, Note Name: A#2
Note ON: Time 491280, Note Name: A#1, Velocity: 30
Note OFF: Time 491400, Note Name: A#1
Note ON: Time 491400, Note Name: A#2, Velocity: 26
Note OFF: Time 491520, Note Name: A#2
Note ON: Time 491520, Note Name: A#1, Velocity: 30
Note OFF: Time 491640, Note Name: A#1
Note ON: Time 491640, Note Name: A#2, Velocity: 26
Note OFF: Time 491760, Note Name: A#2
Note ON: Time 491760, Note Name: A#1, Velocity: 30
Note OFF: Time 491880, Note Name: A#1
Note ON: Time 491880, Note Name: A#2, Velocity: 25
Note OFF: Time 492000, Note Name: A#2
Note ON: Time 492000, Note Name: A#1, Velocity: 30
Note OFF: Time 492120, Note Name: A#1
Note ON: Time 492120, Note Name: A#2, Velocity: 26
Note OFF: Time 492240, Note Name: A#2
Note ON: Time 492240, Note Name: A#1, Velocity: 30
Note OFF: Time 492360, Note Name: A#1
Note ON: Time 492360, Note Name: A#2, Velocity: 27
Note OFF: Time 492480, Note Name: A#2
Note ON: Time 492480, Note Name: A#1, Velocity: 30
Note OFF: Time 492600, Note Name: A#1
Note ON: Time 492600, Note Name: A#2, Velocity: 27
Note OFF: Time 492720, Note Name: A#2
Note ON: Time 492720, Note Name: A#1, Velocity: 30
Note OFF: Time 492840, Note Name: A#1
Note ON: Time 492840, Note Name: A#2, Velocity: 25
Note OFF: Time 492960, Note Name: A#2
Note ON: Time 492960, Note Name: A#1, Velocity: 30
Note OFF: Time 493080, Note Name: A#1
Note ON: Time 493080, Note Name: A#2, Velocity: 26
Note OFF: Time 493200, Note Name: A#2
Note ON: Time 493200, Note Name: A#1, Velocity: 30
Note OFF: Time 493320, Note Name: A#1
Note ON: Time 493320, Note Name: A#2, Velocity: 26
Note OFF: Time 493440, Note Name: A#2
Note ON: Time 493440, Note Name: A#1, Velocity: 30
Note OFF: Time 493560, Note Name: A#1
Note ON: Time 493560, Note Name: A#2, Velocity: 26
Note OFF: Time 493680, Note Name: A#2
Note ON: Time 493680, Note Name: A#1, Velocity: 30
Note OFF: Time 493800, Note Name: A#1
Note ON: Time 493800, Note Name: A#2, Velocity: 25
Note OFF: Time 493920, Note Name: A#2
Note ON: Time 493920, Note Name: A#1, Velocity: 30
Note OFF: Time 494040, Note Name: A#1
Note ON: Time 494040, Note Name: A#2, Velocity: 26
Note OFF: Time 494160, Note Name: A#2
Note ON: Time 494160, Note Name: A#1, Velocity: 30
Note OFF: Time 494280, Note Name: A#1
Note ON: Time 494280, Note Name: A#2, Velocity: 27
Note OFF: Time 494400, Note Name: A#2
Note ON: Time 494400, Note Name: A#1, Velocity: 30
Note OFF: Time 494520, Note Name: A#1
Note ON: Time 494520, Note Name: A#2, Velocity: 27
Note OFF: Time 494640, Note Name: A#2
Note ON: Time 494640, Note Name: A#1, Velocity: 35
Note OFF: Time 494760, Note Name: A#1
Note ON: Time 494760, Note Name: A#2, Velocity: 29
Note OFF: Time 494880, Note Name: A#2
Note ON: Time 494880, Note Name: A#1, Velocity: 34
Note OFF: Time 495000, Note Name: A#1
Note ON: Time 495000, Note Name: A#2, Velocity: 26
Note OFF: Time 495120, Note Name: A#2
Note ON: Time 495120, Note Name: A#1, Velocity: 35
Note OFF: Time 495240, Note Name: A#1
Note ON: Time 495240, Note Name: A#2, Velocity: 31
Note OFF: Time 495360, Note Name: A#2
Note ON: Time 495360, Note Name: A#1, Velocity: 38
Note OFF: Time 495480, Note Name: A#1
Note ON: Time 495480, Note Name: A#2, Velocity: 30
Note OFF: Time 495600, Note Name: A#2
Note ON: Time 495600, Note Name: A#1, Velocity: 34
Note OFF: Time 495720, Note Name: A#1
Note ON: Time 495720, Note Name: A#2, Velocity: 25
Note OFF: Time 495840, Note Name: A#2
Note ON: Time 495840, Note Name: A#1, Velocity: 33
Note OFF: Time 495960, Note Name: A#1
Note ON: Time 495960, Note Name: A#2, Velocity: 26
Note OFF: Time 496080, Note Name: A#2
Note ON: Time 496080, Note Name: A#1, Velocity: 30
Note OFF: Time 496200, Note Name: A#1
Note ON: Time 496200, Note Name: A#2, Velocity: 27
Note OFF: Time 496320, Note Name: A#2
Note ON: Time 496320, Note Name: A#1, Velocity: 30
Note OFF: Time 496440, Note Name: A#1
Note ON: Time 496440, Note Name: A#2, Velocity: 27
Note OFF: Time 496560, Note Name: A#2
Note ON: Time 496560, Note Name: A#1, Velocity: 30
Note OFF: Time 496680, Note Name: A#1
Note ON: Time 496680, Note Name: A#2, Velocity: 25
Note OFF: Time 496800, Note Name: A#2
Note ON: Time 496800, Note Name: A#1, Velocity: 30
Note OFF: Time 496920, Note Name: A#1
Note ON: Time 496920, Note Name: A#2, Velocity: 26
Note OFF: Time 497040, Note Name: A#2
Note ON: Time 497040, Note Name: A#1, Velocity: 30
Note OFF: Time 497160, Note Name: A#1
Note ON: Time 497160, Note Name: A#2, Velocity: 26
Note OFF: Time 497280, Note Name: A#2
Note ON: Time 497280, Note Name: A#1, Velocity: 30
Note OFF: Time 497400, Note Name: A#1
Note ON: Time 497400, Note Name: A#2, Velocity: 25
Note OFF: Time 497520, Note Name: A#2
Note ON: Time 497520, Note Name: A#1, Velocity: 29
Note OFF: Time 497640, Note Name: A#1
Note ON: Time 497640, Note Name: A#2, Velocity: 24
Note OFF: Time 497760, Note Name: A#2
Note ON: Time 497760, Note Name: A#1, Velocity: 28
Note OFF: Time 497880, Note Name: A#1
Note ON: Time 497880, Note Name: A#2, Velocity: 24
Note OFF: Time 498000, Note Name: A#2
Note ON: Time 498000, Note Name: A#1, Velocity: 28
Note OFF: Time 498120, Note Name: A#1
Note ON: Time 498120, Note Name: A#2, Velocity: 25
Note OFF: Time 498240, Note Name: A#2
Note ON: Time 498240, Note Name: A#1, Velocity: 27
Note OFF: Time 498360, Note Name: A#1
Note ON: Time 498360, Note Name: A#2, Velocity: 24
Note OFF: Time 498480, Note Name: A#2
Note ON: Time 498480, Note Name: A#1, Velocity: 27
Note OFF: Time 498600, Note Name: A#1
Note ON: Time 498600, Note Name: A#2, Velocity: 22
Note OFF: Time 498720, Note Name: A#2
Note ON: Time 498720, Note Name: A#1, Velocity: 26
Note OFF: Time 498840, Note Name: A#1
Note ON: Time 498840, Note Name: A#2, Velocity: 22
Note OFF: Time 498960, Note Name: A#2
Note ON: Time 498960, Note Name: A#1, Velocity: 25
Note OFF: Time 499080, Note Name: A#1
Note ON: Time 499080, Note Name: A#2, Velocity: 22
Note OFF: Time 499200, Note Name: A#2
Note ON: Time 499200, Note Name: A#1, Velocity: 25
Note OFF: Time 499320, Note Name: A#1
Note ON: Time 499320, Note Name: A#2, Velocity: 21
Note OFF: Time 499440, Note Name: A#2
Note ON: Time 499440, Note Name: A#1, Velocity: 24
Note OFF: Time 499560, Note Name: A#1
Note ON: Time 499560, Note Name: A#2, Velocity: 20
Note OFF: Time 499680, Note Name: A#2
Note ON: Time 499680, Note Name: A#1, Velocity: 24
Note OFF: Time 499800, Note Name: A#1
Note ON: Time 499800, Note Name: A#2, Velocity: 20
Note OFF: Time 499920, Note Name: A#2
Note ON: Time 499920, Note Name: A#1, Velocity: 23
Note OFF: Time 500040, Note Name: A#1
Note ON: Time 500040, Note Name: A#2, Velocity: 20
Note OFF: Time 500160, Note Name: A#2
Note ON: Time 500160, Note Name: A#1, Velocity: 22
Note OFF: Time 500280, Note Name: A#1
Note ON: Time 500280, Note Name: A#2, Velocity: 20
Note OFF: Time 500400, Note Name: A#2
Note ON: Time 500400, Note Name: A#1, Velocity: 22
Note OFF: Time 500520, Note Name: A#1
Note ON: Time 500520, Note Name: A#2, Velocity: 18
Note OFF: Time 500640, Note Name: A#2
Note ON: Time 500640, Note Name: A#1, Velocity: 22
Note OFF: Time 500760, Note Name: A#1
Note ON: Time 500760, Note Name: A#2, Velocity: 19
Note OFF: Time 500880, Note Name: A#2
Note ON: Time 500880, Note Name: A#1, Velocity: 22
Note OFF: Time 501000, Note Name: A#1
Note ON: Time 501000, Note Name: A#2, Velocity: 19
Note OFF: Time 501120, Note Name: A#2
Note ON: Time 501120, Note Name: A#1, Velocity: 56
Note ON: Time 501120, Note Name: A#2, Velocity: 66
Note OFF: Time 501840, Note Name: A#2
Note OFF: Time 501840, Note Name: A#1
Note ON: Time 501840, Note Name: C2, Velocity: 49
Note ON: Time 501840, Note Name: C3, Velocity: 59
Note OFF: Time 501960, Note Name: C3
Note OFF: Time 501960, Note Name: C2
Note ON: Time 502080, Note Name: D2, Velocity: 56
Note ON: Time 502080, Note Name: D3, Velocity: 66
Note OFF: Time 502800, Note Name: D3
Note OFF: Time 502800, Note Name: D2
Note ON: Time 502800, Note Name: D#2, Velocity: 50
Note ON: Time 502800, Note Name: D#3, Velocity: 60
Note OFF: Time 502920, Note Name: D#3
Note OFF: Time 502920, Note Name: D#2
Note ON: Time 503040, Note Name: F2, Velocity: 57
Note ON: Time 503040, Note Name: F3, Velocity: 68
Note OFF: Time 503760, Note Name: F3
Note OFF: Time 503760, Note Name: F2
Note ON: Time 503760, Note Name: G2, Velocity: 47
Note ON: Time 503760, Note Name: G3, Velocity: 56
Note OFF: Time 503880, Note Name: G3
Note OFF: Time 503880, Note Name: G2
Note ON: Time 504000, Note Name: A2, Velocity: 53
Note ON: Time 504000, Note Name: A3, Velocity: 63
Note OFF: Time 504120, Note Name: A3
Note OFF: Time 504120, Note Name: A2
Note ON: Time 504240, Note Name: A#2, Velocity: 50
Note ON: Time 504240, Note Name: A#3, Velocity: 60
Note OFF: Time 504360, Note Name: A#3
Note OFF: Time 504360, Note Name: A#2
Note ON: Time 504480, Note Name: C3, Velocity: 55
Note ON: Time 504480, Note Name: C4, Velocity: 65
Note OFF: Time 504600, Note Name: C4
Note OFF: Time 504600, Note Name: C3
Note ON: Time 504720, Note Name: D3, Velocity: 51
Note ON: Time 504720, Note Name: D4, Velocity: 61
Note OFF: Time 504840, Note Name: D4
Note OFF: Time 504840, Note Name: D3
Note ON: Time 504960, Note Name: D#3, Velocity: 61
Note ON: Time 504960, Note Name: D#4, Velocity: 72
Note OFF: Time 505680, Note Name: D#4
Note OFF: Time 505680, Note Name: D#3
Note ON: Time 505680, Note Name: D3, Velocity: 52
Note ON: Time 505680, Note Name: D4, Velocity: 63
Note OFF: Time 505800, Note Name: D4
Note OFF: Time 505800, Note Name: D3
Note ON: Time 505920, Note Name: C3, Velocity: 59
Note ON: Time 505920, Note Name: C4, Velocity: 69
Note OFF: Time 506640, Note Name: C4
Note OFF: Time 506640, Note Name: C3
Note ON: Time 506640, Note Name: A#2, Velocity: 51
Note ON: Time 506640, Note Name: A#3, Velocity: 61
Note OFF: Time 506760, Note Name: A#3
Note OFF: Time 506760, Note Name: A#2
Note ON: Time 506880, Note Name: A2, Velocity: 58
Note ON: Time 506880, Note Name: A3, Velocity: 69
Note OFF: Time 507600, Note Name: A3
Note OFF: Time 507600, Note Name: A2
Note ON: Time 507600, Note Name: G2, Velocity: 47
Note ON: Time 507600, Note Name: G3, Velocity: 56
Note OFF: Time 507720, Note Name: G3
Note OFF: Time 507720, Note Name: G2
Note ON: Time 507840, Note Name: F2, Velocity: 52
Note ON: Time 507840, Note Name: F3, Velocity: 62
Note OFF: Time 507960, Note Name: F3
Note OFF: Time 507960, Note Name: F2
Note ON: Time 508080, Note Name: D#2, Velocity: 49
Note ON: Time 508080, Note Name: D#3, Velocity: 58
Note OFF: Time 508200, Note Name: D#3
Note OFF: Time 508200, Note Name: D#2
Note ON: Time 508320, Note Name: D2, Velocity: 52
Note ON: Time 508320, Note Name: D3, Velocity: 62
Note OFF: Time 508440, Note Name: D3
Note OFF: Time 508440, Note Name: D2
Note ON: Time 508560, Note Name: C2, Velocity: 48
Note ON: Time 508560, Note Name: C3, Velocity: 57
Note OFF: Time 508680, Note Name: C3
Note OFF: Time 508680, Note Name: C2
Note ON: Time 508800, Note Name: A#1, Velocity: 58
Note ON: Time 508800, Note Name: A#2, Velocity: 69
Note OFF: Time 508920, Note Name: A#2
Note OFF: Time 508920, Note Name: A#1
Note ON: Time 509280, Note Name: F3, Velocity: 34
Note ON: Time 509280, Note Name: C4, Velocity: 34
Note ON: Time 509280, Note Name: D#4, Velocity: 41
Note OFF: Time 509400, Note Name: D#4
Note OFF: Time 509400, Note Name: C4
Note OFF: Time 509400, Note Name: F3
Note ON: Time 509760, Note Name: A#3, Velocity: 41
Note ON: Time 509760, Note Name: D4, Velocity: 49
Note OFF: Time 509880, Note Name: D4
Note OFF: Time 509880, Note Name: A#3
Note ON: Time 510240, Note Name: F4, Velocity: 34
Note ON: Time 510240, Note Name: C5, Velocity: 34
Note ON: Time 510240, Note Name: D#5, Velocity: 41
Note OFF: Time 510360, Note Name: D#5
Note OFF: Time 510360, Note Name: C5
Note OFF: Time 510360, Note Name: F4
Note ON: Time 510720, Note Name: A#4, Velocity: 41
Note ON: Time 510720, Note Name: D5, Velocity: 49
Note OFF: Time 510840, Note Name: D5
Note OFF: Time 510840, Note Name: A#4
Note ON: Time 511680, Note Name: F2, Velocity: 56
Note ON: Time 511680, Note Name: F3, Velocity: 67
Note OFF: Time 512160, Note Name: F3
Note OFF: Time 512160, Note Name: F2
Note ON: Time 512640, Note Name: A#1, Velocity: 64
Note ON: Time 512640, Note Name: A#2, Velocity: 76
Note OFF: Time 513120, Note Name: A#2
Note OFF: Time 513120, Note Name: A#1
Track 3: Pedale
Track 4: Beethoven: Grande Sonata Opus 22 1. movement
Track 5: Copyright  2009 by Bernd Krueger
Track 6: http://www.piano-midi.de/
Track 7: Edition: 2012-05-27
Track 8: Spur 8
Track 9: Spur 9
Track 10: Spur 10
Track 11: Spur 11
Track 12: Spur 12
Track 13: Spur 13
Track 14: Spur 14
Track 15: Spur 15
Track 16: Spur 16
