Processing beethoven_opus22_4.mid...

Track 0: Grande Sonate Opus 22 - 4. movement
Track 1: Piano right
Note ON: Time 600, Note Name: F5, Velocity: 45
Note OFF: Time 720, Note Name: F5
Note ON: Time 720, Note Name: G5, Velocity: 50
Note OFF: Time 840, Note Name: G5
Note ON: Time 840, Note Name: F5, Velocity: 46
Note OFF: Time 960, Note Name: F5
Note ON: Time 960, Note Name: D#5, Velocity: 50
Note OFF: Time 1080, Note Name: D#5
Note ON: Time 1080, Note Name: D5, Velocity: 46
Note OFF: Time 1200, Note Name: D5
Note ON: Time 1200, Note Name: C5, Velocity: 46
Note OFF: Time 1320, Note Name: C5
Note ON: Time 1320, Note Name: A#4, Velocity: 46
Note OFF: Time 1440, Note Name: A#4
Note ON: Time 1440, Note Name: A4, Velocity: 50
Note OFF: Time 1680, Note Name: A4
Note ON: Time 1680, Note Name: A#4, Velocity: 47
Note OFF: Time 1920, Note Name: A#4
Note ON: Time 1920, Note Name: B4, Velocity: 53
Note OFF: Time 2160, Note Name: B4
Note ON: Time 2160, Note Name: C5, Velocity: 49
Note OFF: Time 2520, Note Name: C5
Note ON: Time 2520, Note Name: F#5, Velocity: 45
Note OFF: Time 2640, Note Name: F#5
Note ON: Time 2640, Note Name: A5, Velocity: 50
Note OFF: Time 2760, Note Name: A5
Note ON: Time 2760, Note Name: G5, Velocity: 46
Note OFF: Time 2880, Note Name: G5
Note ON: Time 2880, Note Name: F5, Velocity: 50
Note OFF: Time 3000, Note Name: F5
Note ON: Time 3000, Note Name: D#5, Velocity: 46
Note OFF: Time 3120, Note Name: D#5
Note ON: Time 3120, Note Name: D5, Velocity: 46
Note OFF: Time 3240, Note Name: D5
Note ON: Time 3240, Note Name: C5, Velocity: 46
Note OFF: Time 3360, Note Name: C5
Note ON: Time 3360, Note Name: A#4, Velocity: 50
Note OFF: Time 3600, Note Name: A#4
Note ON: Time 3600, Note Name: C5, Velocity: 47
Note OFF: Time 3840, Note Name: C5
Note ON: Time 3840, Note Name: C#5, Velocity: 53
Note OFF: Time 4080, Note Name: C#5
Note ON: Time 4080, Note Name: D5, Velocity: 49
Note OFF: Time 4440, Note Name: D5
Note ON: Time 4440, Note Name: F5, Velocity: 51
Note OFF: Time 4560, Note Name: F5
Note ON: Time 4560, Note Name: G5, Velocity: 58
Note OFF: Time 4680, Note Name: G5
Note ON: Time 4680, Note Name: D5, Velocity: 52
Note OFF: Time 4800, Note Name: D5
Note ON: Time 4800, Note Name: F5, Velocity: 56
Note OFF: Time 4920, Note Name: F5
Note ON: Time 4920, Note Name: D#5, Velocity: 52
Note OFF: Time 5040, Note Name: D#5
Note ON: Time 5040, Note Name: F5, Velocity: 57
Note OFF: Time 5160, Note Name: F5
Note ON: Time 5160, Note Name: C5, Velocity: 52
Note OFF: Time 5280, Note Name: C5
Note ON: Time 5280, Note Name: D#5, Velocity: 57
Note OFF: Time 5400, Note Name: D#5
Note ON: Time 5400, Note Name: D5, Velocity: 52
Note OFF: Time 5520, Note Name: D5
Note ON: Time 5520, Note Name: G5, Velocity: 59
Note OFF: Time 5640, Note Name: G5
Note ON: Time 5640, Note Name: D5, Velocity: 52
Note OFF: Time 5760, Note Name: D5
Note ON: Time 5760, Note Name: F5, Velocity: 62
Note OFF: Time 5880, Note Name: F5
Note ON: Time 5880, Note Name: D#5, Velocity: 56
Note OFF: Time 6000, Note Name: D#5
Note ON: Time 6000, Note Name: F5, Velocity: 62
Note OFF: Time 6120, Note Name: F5
Note ON: Time 6120, Note Name: C5, Velocity: 54
Note OFF: Time 6240, Note Name: C5
Note ON: Time 6240, Note Name: D5, Velocity: 67
Note OFF: Time 6360, Note Name: D5
Note ON: Time 6360, Note Name: D#5, Velocity: 57
Note OFF: Time 6480, Note Name: D#5
Note ON: Time 6480, Note Name: E5, Velocity: 59
Note OFF: Time 6600, Note Name: E5
Note ON: Time 6600, Note Name: F5, Velocity: 61
Note OFF: Time 6720, Note Name: F5
Note ON: Time 6720, Note Name: F#5, Velocity: 67
Note OFF: Time 6840, Note Name: F#5
Note ON: Time 6840, Note Name: G5, Velocity: 64
Note OFF: Time 6960, Note Name: G5
Note ON: Time 6960, Note Name: A5, Velocity: 67
Note OFF: Time 7080, Note Name: A5
Note ON: Time 7080, Note Name: A#5, Velocity: 69
Note OFF: Time 7200, Note Name: A#5
Note ON: Time 7200, Note Name: C6, Velocity: 70
Note OFF: Time 7320, Note Name: C6
Note ON: Time 7320, Note Name: C#6, Velocity: 74
Note OFF: Time 7440, Note Name: C#6
Note ON: Time 7440, Note Name: D6, Velocity: 81
Note OFF: Time 7560, Note Name: D6
Note ON: Time 7560, Note Name: E5, Velocity: 54
Note OFF: Time 7680, Note Name: E5
Note ON: Time 7680, Note Name: G5, Velocity: 58
Note OFF: Time 7920, Note Name: G5
Note ON: Time 7920, Note Name: F5, Velocity: 53
Note OFF: Time 8160, Note Name: F5
Note ON: Time 8280, Note Name: F4, Velocity: 38
Note ON: Time 8280, Note Name: F5, Velocity: 45
Note OFF: Time 8400, Note Name: F5
Note OFF: Time 8400, Note Name: F4
Note ON: Time 8400, Note Name: G4, Velocity: 42
Note ON: Time 8400, Note Name: G5, Velocity: 50
Note OFF: Time 8520, Note Name: G5
Note OFF: Time 8520, Note Name: G4
Note ON: Time 8520, Note Name: F4, Velocity: 39
Note ON: Time 8520, Note Name: F5, Velocity: 46
Note OFF: Time 8640, Note Name: F5
Note OFF: Time 8640, Note Name: F4
Note ON: Time 8640, Note Name: D#4, Velocity: 42
Note ON: Time 8640, Note Name: D#5, Velocity: 50
Note OFF: Time 8760, Note Name: D#5
Note OFF: Time 8760, Note Name: D#4
Note ON: Time 8760, Note Name: D4, Velocity: 39
Note ON: Time 8760, Note Name: D5, Velocity: 46
Note OFF: Time 8880, Note Name: D5
Note OFF: Time 8880, Note Name: D4
Note ON: Time 8880, Note Name: C4, Velocity: 39
Note ON: Time 8880, Note Name: C5, Velocity: 46
Note OFF: Time 9000, Note Name: C5
Note OFF: Time 9000, Note Name: C4
Note ON: Time 9000, Note Name: A#3, Velocity: 39
Note ON: Time 9000, Note Name: A#4, Velocity: 46
Note OFF: Time 9120, Note Name: A#4
Note OFF: Time 9120, Note Name: A#3
Note ON: Time 9120, Note Name: A3, Velocity: 42
Note ON: Time 9120, Note Name: A4, Velocity: 42
Note OFF: Time 9360, Note Name: A4
Note OFF: Time 9360, Note Name: A3
Note ON: Time 9360, Note Name: A#3, Velocity: 39
Note ON: Time 9360, Note Name: A#4, Velocity: 47
Note OFF: Time 9600, Note Name: A#4
Note OFF: Time 9600, Note Name: A#3
Note ON: Time 9600, Note Name: B3, Velocity: 45
Note ON: Time 9600, Note Name: B4, Velocity: 53
Note OFF: Time 9840, Note Name: B4
Note OFF: Time 9840, Note Name: B3
Note ON: Time 9840, Note Name: C4, Velocity: 41
Note ON: Time 9840, Note Name: C5, Velocity: 49
Note OFF: Time 10200, Note Name: C5
Note OFF: Time 10200, Note Name: C4
Note ON: Time 10200, Note Name: F#4, Velocity: 38
Note ON: Time 10200, Note Name: F#5, Velocity: 45
Note OFF: Time 10320, Note Name: F#5
Note OFF: Time 10320, Note Name: F#4
Note ON: Time 10320, Note Name: A4, Velocity: 42
Note ON: Time 10320, Note Name: A5, Velocity: 50
Note OFF: Time 10440, Note Name: A5
Note OFF: Time 10440, Note Name: A4
Note ON: Time 10440, Note Name: G4, Velocity: 39
Note ON: Time 10440, Note Name: G5, Velocity: 46
Note OFF: Time 10560, Note Name: G5
Note OFF: Time 10560, Note Name: G4
Note ON: Time 10560, Note Name: F4, Velocity: 42
Note ON: Time 10560, Note Name: F5, Velocity: 50
Note OFF: Time 10680, Note Name: F5
Note OFF: Time 10680, Note Name: F4
Note ON: Time 10680, Note Name: D#4, Velocity: 39
Note ON: Time 10680, Note Name: D#5, Velocity: 46
Note OFF: Time 10800, Note Name: D#5
Note OFF: Time 10800, Note Name: D#4
Note ON: Time 10800, Note Name: D4, Velocity: 39
Note ON: Time 10800, Note Name: D5, Velocity: 46
Note OFF: Time 10920, Note Name: D5
Note OFF: Time 10920, Note Name: D4
Note ON: Time 10920, Note Name: C4, Velocity: 39
Note ON: Time 10920, Note Name: C5, Velocity: 46
Note OFF: Time 11040, Note Name: C5
Note OFF: Time 11040, Note Name: C4
Note ON: Time 11040, Note Name: A#3, Velocity: 42
Note ON: Time 11040, Note Name: A#4, Velocity: 50
Note OFF: Time 11280, Note Name: A#4
Note OFF: Time 11280, Note Name: A#3
Note ON: Time 11280, Note Name: C4, Velocity: 39
Note ON: Time 11280, Note Name: C5, Velocity: 47
Note OFF: Time 11520, Note Name: C5
Note OFF: Time 11520, Note Name: C4
Note ON: Time 11520, Note Name: C#4, Velocity: 45
Note ON: Time 11520, Note Name: C#5, Velocity: 53
Note OFF: Time 11760, Note Name: C#5
Note OFF: Time 11760, Note Name: C#4
Note ON: Time 11760, Note Name: D4, Velocity: 41
Note ON: Time 11760, Note Name: D5, Velocity: 49
Note OFF: Time 12120, Note Name: D5
Note OFF: Time 12120, Note Name: D4
Note ON: Time 12120, Note Name: F5, Velocity: 56
Note OFF: Time 12240, Note Name: F5
Note ON: Time 12240, Note Name: G#4, Velocity: 45
Note ON: Time 12240, Note Name: G5, Velocity: 63
Note OFF: Time 12360, Note Name: G5
Note ON: Time 12360, Note Name: D5, Velocity: 57
Note OFF: Time 12480, Note Name: D5
Note ON: Time 12480, Note Name: F5, Velocity: 62
Note OFF: Time 12600, Note Name: F5
Note ON: Time 12600, Note Name: D#5, Velocity: 58
Note OFF: Time 12720, Note Name: D#5
Note OFF: Time 12720, Note Name: G#4
Note ON: Time 12720, Note Name: A4, Velocity: 45
Note ON: Time 12720, Note Name: F5, Velocity: 63
Note OFF: Time 12840, Note Name: F5
Note ON: Time 12840, Note Name: C5, Velocity: 58
Note OFF: Time 12960, Note Name: C5
Note OFF: Time 12960, Note Name: A4
Note ON: Time 12960, Note Name: A#4, Velocity: 46
Note ON: Time 12960, Note Name: D#5, Velocity: 64
Note OFF: Time 13080, Note Name: D#5
Note ON: Time 13080, Note Name: D5, Velocity: 59
Note OFF: Time 13200, Note Name: D5
Note OFF: Time 13200, Note Name: A#4
Note ON: Time 13200, Note Name: G#4, Velocity: 46
Note ON: Time 13200, Note Name: G5, Velocity: 67
Note OFF: Time 13320, Note Name: G5
Note ON: Time 13320, Note Name: D5, Velocity: 59
Note OFF: Time 13440, Note Name: D5
Note ON: Time 13440, Note Name: F5, Velocity: 71
Note OFF: Time 13560, Note Name: F5
Note ON: Time 13560, Note Name: D#5, Velocity: 64
Note OFF: Time 13680, Note Name: D#5
Note OFF: Time 13680, Note Name: G#4
Note ON: Time 13680, Note Name: A4, Velocity: 47
Note ON: Time 13680, Note Name: F5, Velocity: 71
Note OFF: Time 13800, Note Name: F5
Note ON: Time 13800, Note Name: C5, Velocity: 63
Note OFF: Time 13920, Note Name: C5
Note OFF: Time 13920, Note Name: A4
Note ON: Time 13920, Note Name: A#4, Velocity: 59
Note ON: Time 13920, Note Name: D#5, Velocity: 71
Note OFF: Time 14040, Note Name: D#5
Note OFF: Time 14040, Note Name: A#4
Note ON: Time 14040, Note Name: D4, Velocity: 53
Note ON: Time 14040, Note Name: D5, Velocity: 63
Note OFF: Time 14160, Note Name: D5
Note OFF: Time 14160, Note Name: D4
Note ON: Time 14160, Note Name: D#4, Velocity: 56
Note ON: Time 14160, Note Name: D#5, Velocity: 67
Note OFF: Time 14280, Note Name: D#5
Note OFF: Time 14280, Note Name: D#4
Note ON: Time 14280, Note Name: F4, Velocity: 60
Note ON: Time 14280, Note Name: F5, Velocity: 71
Note OFF: Time 14400, Note Name: F5
Note OFF: Time 14400, Note Name: F4
Note ON: Time 14400, Note Name: F#4, Velocity: 67
Note ON: Time 14400, Note Name: F#5, Velocity: 80
Note OFF: Time 14520, Note Name: F#5
Note OFF: Time 14520, Note Name: F#4
Note ON: Time 14520, Note Name: G4, Velocity: 63
Note ON: Time 14520, Note Name: G5, Velocity: 75
Note OFF: Time 14640, Note Name: G5
Note OFF: Time 14640, Note Name: G4
Note ON: Time 14640, Note Name: A4, Velocity: 67
Note ON: Time 14640, Note Name: A5, Velocity: 80
Note OFF: Time 14700, Note Name: A5
Note OFF: Time 14700, Note Name: A4
Note ON: Time 14760, Note Name: A#4, Velocity: 70
Note ON: Time 14760, Note Name: A#5, Velocity: 83
Note OFF: Time 14820, Note Name: A#5
Note OFF: Time 14820, Note Name: A#4
Note ON: Time 14880, Note Name: A#3, Velocity: 70
Note ON: Time 14880, Note Name: A#4, Velocity: 70
Note OFF: Time 15120, Note Name: A#4
Note OFF: Time 15120, Note Name: A#3
Note ON: Time 15120, Note Name: C4, Velocity: 58
Note ON: Time 15120, Note Name: C5, Velocity: 69
Note OFF: Time 15360, Note Name: C5
Note OFF: Time 15360, Note Name: C4
Note ON: Time 15360, Note Name: C#4, Velocity: 41
Note ON: Time 15360, Note Name: C#5, Velocity: 49
Note OFF: Time 15600, Note Name: C#5
Note OFF: Time 15600, Note Name: C#4
Note ON: Time 15600, Note Name: D4, Velocity: 38
Note ON: Time 15600, Note Name: D5, Velocity: 45
Note OFF: Time 15900, Note Name: D5
Note OFF: Time 15900, Note Name: D4
Note ON: Time 15900, Note Name: A#4, Velocity: 59
Note OFF: Time 15960, Note Name: A#4
Note ON: Time 15960, Note Name: A4, Velocity: 61
Note OFF: Time 16020, Note Name: A4
Note ON: Time 16020, Note Name: A#4, Velocity: 62
Note OFF: Time 16080, Note Name: A#4
Note ON: Time 16080, Note Name: B4, Velocity: 62
Note OFF: Time 16140, Note Name: B4
Note ON: Time 16140, Note Name: C5, Velocity: 64
Note OFF: Time 16200, Note Name: C5
Note ON: Time 16200, Note Name: C#5, Velocity: 65
Note OFF: Time 16260, Note Name: C#5
Note ON: Time 16260, Note Name: D5, Velocity: 67
Note OFF: Time 16320, Note Name: D5
Note ON: Time 16320, Note Name: D#5, Velocity: 69
Note OFF: Time 16380, Note Name: D#5
Note ON: Time 16380, Note Name: E5, Velocity: 70
Note OFF: Time 16440, Note Name: E5
Note ON: Time 16440, Note Name: F5, Velocity: 71
Note OFF: Time 16500, Note Name: F5
Note ON: Time 16500, Note Name: F#5, Velocity: 73
Note OFF: Time 16560, Note Name: F#5
Note ON: Time 16560, Note Name: G5, Velocity: 74
Note OFF: Time 16620, Note Name: G5
Note ON: Time 16620, Note Name: G#5, Velocity: 76
Note OFF: Time 16680, Note Name: G#5
Note ON: Time 16680, Note Name: A5, Velocity: 77
Note OFF: Time 16740, Note Name: A5
Note ON: Time 16740, Note Name: A#5, Velocity: 78
Note OFF: Time 16800, Note Name: A#5
Note ON: Time 16800, Note Name: A#4, Velocity: 53
Note OFF: Time 16848, Note Name: A#4
Note ON: Time 16848, Note Name: C5, Velocity: 48
Note OFF: Time 16896, Note Name: C5
Note ON: Time 16896, Note Name: A#4, Velocity: 45
Note OFF: Time 16944, Note Name: A#4
Note ON: Time 16944, Note Name: A4, Velocity: 45
Note OFF: Time 16992, Note Name: A4
Note ON: Time 16992, Note Name: A#4, Velocity: 45
Note OFF: Time 17040, Note Name: A#4
Note ON: Time 17040, Note Name: D#4, Velocity: 42
Note ON: Time 17040, Note Name: D5, Velocity: 52
Note OFF: Time 17220, Note Name: D5
Note ON: Time 17220, Note Name: C5, Velocity: 41
Note OFF: Time 17280, Note Name: C5
Note OFF: Time 17280, Note Name: D#4
Note ON: Time 17280, Note Name: D4, Velocity: 42
Note ON: Time 17280, Note Name: A#4, Velocity: 50
Note OFF: Time 17520, Note Name: A#4
Note OFF: Time 17520, Note Name: D4
Note ON: Time 17760, Note Name: F4, Velocity: 67
Note ON: Time 17760, Note Name: D5, Velocity: 80
Note OFF: Time 18240, Note Name: D5
Note OFF: Time 18240, Note Name: F4
Note ON: Time 18240, Note Name: G4, Velocity: 45
Note ON: Time 18240, Note Name: C5, Velocity: 53
Note OFF: Time 18292, Note Name: C5
Note ON: Time 18292, Note Name: D5, Velocity: 50
Note OFF: Time 18343, Note Name: D5
Note ON: Time 18343, Note Name: C5, Velocity: 53
Note OFF: Time 18395, Note Name: C5
Note ON: Time 18395, Note Name: D5, Velocity: 50
Note OFF: Time 18447, Note Name: D5
Note ON: Time 18447, Note Name: C5, Velocity: 53
Note OFF: Time 18498, Note Name: C5
Note ON: Time 18498, Note Name: B4, Velocity: 49
Note OFF: Time 18550, Note Name: B4
Note ON: Time 18550, Note Name: C5, Velocity: 49
Note ON: Time 18600, Note Name: D5, Velocity: 49
Note OFF: Time 18601, Note Name: C5
Note OFF: Time 18660, Note Name: D5
Note ON: Time 18660, Note Name: D#5, Velocity: 50
Note OFF: Time 18720, Note Name: D#5
Note OFF: Time 18720, Note Name: G4
Note ON: Time 18720, Note Name: G4, Velocity: 57
Note OFF: Time 18960, Note Name: G4
Note ON: Time 18960, Note Name: D#4, Velocity: 45
Note ON: Time 18960, Note Name: A4, Velocity: 54
Note OFF: Time 19200, Note Name: A4
Note OFF: Time 19200, Note Name: D#4
Note ON: Time 19200, Note Name: D4, Velocity: 47
Note ON: Time 19200, Note Name: A#4, Velocity: 56
Note OFF: Time 19440, Note Name: A#4
Note ON: Time 19440, Note Name: F4, Velocity: 46
Note OFF: Time 19560, Note Name: F4
Note OFF: Time 19680, Note Name: D4
Note ON: Time 19680, Note Name: F4, Velocity: 67
Note ON: Time 19680, Note Name: D5, Velocity: 80
Note OFF: Time 20160, Note Name: D5
Note OFF: Time 20160, Note Name: F4
Note ON: Time 20160, Note Name: G4, Velocity: 45
Note ON: Time 20160, Note Name: C5, Velocity: 63
Note OFF: Time 20280, Note Name: C5
Note ON: Time 20280, Note Name: D5, Velocity: 56
Note OFF: Time 20320, Note Name: D5
Note ON: Time 20320, Note Name: C5, Velocity: 56
Note OFF: Time 20360, Note Name: C5
Note ON: Time 20360, Note Name: B4, Velocity: 56
Note OFF: Time 20400, Note Name: B4
Note ON: Time 20400, Note Name: C5, Velocity: 63
Note OFF: Time 20580, Note Name: C5
Note ON: Time 20580, Note Name: D5, Velocity: 58
Note OFF: Time 20640, Note Name: D5
Note OFF: Time 20640, Note Name: G4
Note ON: Time 20640, Note Name: E4, Velocity: 45
Note ON: Time 20640, Note Name: A#4, Velocity: 63
Note OFF: Time 20760, Note Name: A#4
Note ON: Time 20760, Note Name: C5, Velocity: 56
Note OFF: Time 20800, Note Name: C5
Note ON: Time 20800, Note Name: A#4, Velocity: 56
Note OFF: Time 20840, Note Name: A#4
Note ON: Time 20840, Note Name: A4, Velocity: 56
Note OFF: Time 20880, Note Name: A4
Note ON: Time 20880, Note Name: A#4, Velocity: 63
Note OFF: Time 21060, Note Name: A#4
Note ON: Time 21060, Note Name: C5, Velocity: 58
Note OFF: Time 21120, Note Name: C5
Note OFF: Time 21120, Note Name: E4
Note ON: Time 21120, Note Name: F4, Velocity: 47
Note ON: Time 21120, Note Name: A#4, Velocity: 56
Note OFF: Time 21360, Note Name: A#4
Note ON: Time 21360, Note Name: A4, Velocity: 46
Note OFF: Time 21480, Note Name: A4
Note OFF: Time 21600, Note Name: F4
Note ON: Time 21840, Note Name: A4, Velocity: 55
Note ON: Time 21900, Note Name: F5, Velocity: 64
Note ON: Time 21960, Note Name: A5, Velocity: 69
Note OFF: Time 22320, Note Name: A5
Note OFF: Time 22320, Note Name: F5
Note OFF: Time 22320, Note Name: A4
Note ON: Time 22320, Note Name: A4, Velocity: 57
Note ON: Time 22380, Note Name: F5, Velocity: 68
Note ON: Time 22440, Note Name: A5, Velocity: 73
Note OFF: Time 22800, Note Name: A5
Note OFF: Time 22800, Note Name: F5
Note OFF: Time 22800, Note Name: A4
Note ON: Time 22800, Note Name: A4, Velocity: 60
Note ON: Time 22860, Note Name: F5, Velocity: 71
Note ON: Time 22920, Note Name: A5, Velocity: 76
Note OFF: Time 23280, Note Name: A5
Note OFF: Time 23280, Note Name: F5
Note OFF: Time 23280, Note Name: A4
Note ON: Time 23280, Note Name: A4, Velocity: 63
Note ON: Time 23340, Note Name: F5, Velocity: 74
Note ON: Time 23400, Note Name: A5, Velocity: 79
Note OFF: Time 23520, Note Name: A5
Note OFF: Time 23520, Note Name: F5
Note OFF: Time 23520, Note Name: A4
Note ON: Time 23760, Note Name: F6, Velocity: 82
Note ON: Time 23760, Note Name: F5, Velocity: 69
Note OFF: Time 24240, Note Name: F5
Note OFF: Time 24240, Note Name: F6
Note ON: Time 24240, Note Name: E6, Velocity: 62
Note ON: Time 24240, Note Name: E5, Velocity: 52
Note OFF: Time 24360, Note Name: E5
Note OFF: Time 24360, Note Name: E6
Note ON: Time 24720, Note Name: D6, Velocity: 82
Note ON: Time 24720, Note Name: D5, Velocity: 69
Note OFF: Time 25200, Note Name: D5
Note OFF: Time 25200, Note Name: D6
Note ON: Time 25200, Note Name: C6, Velocity: 62
Note ON: Time 25200, Note Name: C5, Velocity: 52
Note OFF: Time 25320, Note Name: C5
Note OFF: Time 25320, Note Name: C6
Note ON: Time 25680, Note Name: A#5, Velocity: 82
Note ON: Time 25680, Note Name: A#4, Velocity: 69
Note OFF: Time 26040, Note Name: A#4
Note OFF: Time 26040, Note Name: A#5
Note ON: Time 26040, Note Name: A4, Velocity: 52
Note ON: Time 26040, Note Name: A5, Velocity: 62
Note OFF: Time 26280, Note Name: A5
Note OFF: Time 26280, Note Name: A4
Note ON: Time 26280, Note Name: G4, Velocity: 60
Note ON: Time 26280, Note Name: G5, Velocity: 60
Note OFF: Time 26520, Note Name: G5
Note OFF: Time 26520, Note Name: G4
Note ON: Time 26520, Note Name: F4, Velocity: 52
Note ON: Time 26520, Note Name: F5, Velocity: 62
Note OFF: Time 26760, Note Name: F5
Note OFF: Time 26760, Note Name: F4
Note ON: Time 26760, Note Name: G4, Velocity: 54
Note ON: Time 26760, Note Name: G5, Velocity: 58
Note OFF: Time 26880, Note Name: G5
Note OFF: Time 26880, Note Name: G4
Note ON: Time 26880, Note Name: G#4, Velocity: 56
Note ON: Time 26880, Note Name: G#5, Velocity: 66
Note OFF: Time 27120, Note Name: G#5
Note OFF: Time 27120, Note Name: G#4
Note ON: Time 27120, Note Name: A4, Velocity: 51
Note ON: Time 27120, Note Name: A5, Velocity: 60
Note OFF: Time 27360, Note Name: A5
Note OFF: Time 27360, Note Name: A4
Note ON: Time 27360, Note Name: F4, Velocity: 57
Note ON: Time 27360, Note Name: A4, Velocity: 57
Note OFF: Time 27600, Note Name: A4
Note ON: Time 27600, Note Name: B4, Velocity: 49
Note OFF: Time 28080, Note Name: B4
Note OFF: Time 28080, Note Name: F4
Note ON: Time 28080, Note Name: C5, Velocity: 62
Note ON: Time 28080, Note Name: E4, Velocity: 52
Note OFF: Time 28200, Note Name: E4
Note OFF: Time 28200, Note Name: C5
Note ON: Time 28320, Note Name: D4, Velocity: 57
Note ON: Time 28320, Note Name: F4, Velocity: 57
Note OFF: Time 28560, Note Name: F4
Note ON: Time 28560, Note Name: G4, Velocity: 49
Note OFF: Time 28800, Note Name: G4
Note ON: Time 28800, Note Name: G#4, Velocity: 53
Note OFF: Time 29040, Note Name: G#4
Note OFF: Time 29040, Note Name: D4
Note ON: Time 29040, Note Name: A4, Velocity: 62
Note ON: Time 29040, Note Name: C4, Velocity: 52
Note OFF: Time 29160, Note Name: C4
Note OFF: Time 29160, Note Name: A4
Note ON: Time 29280, Note Name: A#3, Velocity: 57
Note ON: Time 29280, Note Name: D4, Velocity: 57
Note OFF: Time 29520, Note Name: D4
Note ON: Time 29520, Note Name: E4, Velocity: 49
Note OFF: Time 29760, Note Name: E4
Note ON: Time 29760, Note Name: F4, Velocity: 53
Note OFF: Time 29880, Note Name: F4
Note OFF: Time 29880, Note Name: A#3
Note ON: Time 29880, Note Name: A3, Velocity: 57
Note OFF: Time 30120, Note Name: A3
Note ON: Time 30120, Note Name: G3, Velocity: 62
Note OFF: Time 30360, Note Name: G3
Note ON: Time 30360, Note Name: F3, Velocity: 67
Note OFF: Time 30600, Note Name: F3
Note ON: Time 30600, Note Name: E3, Velocity: 72
Note OFF: Time 30720, Note Name: E3
Note ON: Time 30720, Note Name: F3, Velocity: 70
Note OFF: Time 30780, Note Name: F3
Note ON: Time 30780, Note Name: A2, Velocity: 50
Note OFF: Time 30840, Note Name: A2
Note ON: Time 30840, Note Name: C3, Velocity: 50
Note OFF: Time 30900, Note Name: C3
Note ON: Time 30900, Note Name: F3, Velocity: 50
Note OFF: Time 30960, Note Name: F3
Note ON: Time 30960, Note Name: A3, Velocity: 53
Note OFF: Time 31020, Note Name: A3
Note ON: Time 31020, Note Name: C4, Velocity: 50
Note OFF: Time 31080, Note Name: C4
Note ON: Time 31080, Note Name: F4, Velocity: 50
Note OFF: Time 31140, Note Name: F4
Note ON: Time 31140, Note Name: A4, Velocity: 50
Note OFF: Time 31200, Note Name: A4
Note ON: Time 31200, Note Name: C4, Velocity: 55
Note OFF: Time 31260, Note Name: C4
Note ON: Time 31260, Note Name: F4, Velocity: 50
Note OFF: Time 31320, Note Name: F4
Note ON: Time 31320, Note Name: A4, Velocity: 50
Note OFF: Time 31380, Note Name: A4
Note ON: Time 31380, Note Name: C5, Velocity: 50
Note OFF: Time 31440, Note Name: C5
Note ON: Time 31440, Note Name: F4, Velocity: 55
Note OFF: Time 31500, Note Name: F4
Note ON: Time 31500, Note Name: A4, Velocity: 50
Note OFF: Time 31560, Note Name: A4
Note ON: Time 31560, Note Name: C5, Velocity: 50
Note OFF: Time 31620, Note Name: C5
Note ON: Time 31620, Note Name: F5, Velocity: 50
Note OFF: Time 31680, Note Name: F5
Note ON: Time 31680, Note Name: E5, Velocity: 74
Note OFF: Time 31740, Note Name: E5
Note ON: Time 31740, Note Name: A#5, Velocity: 50
Note OFF: Time 31800, Note Name: A#5
Note ON: Time 31800, Note Name: G5, Velocity: 50
Note OFF: Time 31860, Note Name: G5
Note ON: Time 31860, Note Name: E5, Velocity: 50
Note OFF: Time 31920, Note Name: E5
Note ON: Time 31920, Note Name: C5, Velocity: 54
Note OFF: Time 31980, Note Name: C5
Note ON: Time 31980, Note Name: G5, Velocity: 50
Note OFF: Time 32040, Note Name: G5
Note ON: Time 32040, Note Name: E5, Velocity: 50
Note OFF: Time 32100, Note Name: E5
Note ON: Time 32100, Note Name: C5, Velocity: 50
Note OFF: Time 32160, Note Name: C5
Note ON: Time 32160, Note Name: A#4, Velocity: 56
Note OFF: Time 32220, Note Name: A#4
Note ON: Time 32220, Note Name: E5, Velocity: 50
Note OFF: Time 32280, Note Name: E5
Note ON: Time 32280, Note Name: C5, Velocity: 50
Note OFF: Time 32340, Note Name: C5
Note ON: Time 32340, Note Name: A#4, Velocity: 50
Note OFF: Time 32400, Note Name: A#4
Note ON: Time 32400, Note Name: G4, Velocity: 54
Note OFF: Time 32460, Note Name: G4
Note ON: Time 32460, Note Name: C5, Velocity: 50
Note OFF: Time 32520, Note Name: C5
Note ON: Time 32520, Note Name: A#4, Velocity: 50
Note OFF: Time 32580, Note Name: A#4
Note ON: Time 32580, Note Name: G4, Velocity: 50
Note OFF: Time 32640, Note Name: G4
Note ON: Time 32640, Note Name: F4, Velocity: 70
Note OFF: Time 32700, Note Name: F4
Note ON: Time 32700, Note Name: A3, Velocity: 50
Note OFF: Time 32760, Note Name: A3
Note ON: Time 32760, Note Name: C4, Velocity: 50
Note OFF: Time 32820, Note Name: C4
Note ON: Time 32820, Note Name: F4, Velocity: 50
Note OFF: Time 32880, Note Name: F4
Note ON: Time 32880, Note Name: A4, Velocity: 53
Note OFF: Time 32940, Note Name: A4
Note ON: Time 32940, Note Name: C5, Velocity: 50
Note OFF: Time 33000, Note Name: C5
Note ON: Time 33000, Note Name: F5, Velocity: 50
Note OFF: Time 33060, Note Name: F5
Note ON: Time 33060, Note Name: A5, Velocity: 50
Note OFF: Time 33120, Note Name: A5
Note ON: Time 33120, Note Name: C5, Velocity: 55
Note OFF: Time 33180, Note Name: C5
Note ON: Time 33180, Note Name: F5, Velocity: 50
Note OFF: Time 33240, Note Name: F5
Note ON: Time 33240, Note Name: A5, Velocity: 50
Note OFF: Time 33300, Note Name: A5
Note ON: Time 33300, Note Name: C6, Velocity: 50
Note OFF: Time 33360, Note Name: C6
Note ON: Time 33360, Note Name: F5, Velocity: 55
Note OFF: Time 33420, Note Name: F5
Note ON: Time 33420, Note Name: A5, Velocity: 50
Note OFF: Time 33480, Note Name: A5
Note ON: Time 33480, Note Name: C6, Velocity: 50
Note OFF: Time 33540, Note Name: C6
Note ON: Time 33540, Note Name: F6, Velocity: 50
Note OFF: Time 33600, Note Name: F6
Note ON: Time 33600, Note Name: A#5, Velocity: 74
Note OFF: Time 33660, Note Name: A#5
Note ON: Time 33660, Note Name: E6, Velocity: 50
Note OFF: Time 33720, Note Name: E6
Note ON: Time 33720, Note Name: C6, Velocity: 50
Note OFF: Time 33780, Note Name: C6
Note ON: Time 33780, Note Name: A#5, Velocity: 50
Note OFF: Time 33840, Note Name: A#5
Note ON: Time 33840, Note Name: G5, Velocity: 54
Note OFF: Time 33900, Note Name: G5
Note ON: Time 33900, Note Name: C6, Velocity: 50
Note OFF: Time 33960, Note Name: C6
Note ON: Time 33960, Note Name: A#5, Velocity: 50
Note OFF: Time 34020, Note Name: A#5
Note ON: Time 34020, Note Name: G5, Velocity: 50
Note OFF: Time 34080, Note Name: G5
Note ON: Time 34080, Note Name: E5, Velocity: 56
Note OFF: Time 34140, Note Name: E5
Note ON: Time 34140, Note Name: A#5, Velocity: 50
Note OFF: Time 34200, Note Name: A#5
Note ON: Time 34200, Note Name: G5, Velocity: 50
Note OFF: Time 34260, Note Name: G5
Note ON: Time 34260, Note Name: E5, Velocity: 50
Note OFF: Time 34320, Note Name: E5
Note ON: Time 34320, Note Name: A#4, Velocity: 54
Note OFF: Time 34380, Note Name: A#4
Note ON: Time 34380, Note Name: G5, Velocity: 50
Note OFF: Time 34440, Note Name: G5
Note ON: Time 34440, Note Name: E5, Velocity: 50
Note OFF: Time 34500, Note Name: E5
Note ON: Time 34500, Note Name: A#4, Velocity: 50
Note OFF: Time 34560, Note Name: A#4
Note ON: Time 34560, Note Name: F4, Velocity: 77
Note OFF: Time 34620, Note Name: F4
Note ON: Time 34620, Note Name: A3, Velocity: 55
Note OFF: Time 34680, Note Name: A3
Note ON: Time 34680, Note Name: C4, Velocity: 55
Note OFF: Time 34740, Note Name: C4
Note ON: Time 34740, Note Name: F4, Velocity: 55
Note OFF: Time 34800, Note Name: F4
Note ON: Time 34800, Note Name: A4, Velocity: 58
Note OFF: Time 34860, Note Name: A4
Note ON: Time 34860, Note Name: C5, Velocity: 55
Note OFF: Time 34920, Note Name: C5
Note ON: Time 34920, Note Name: F5, Velocity: 55
Note OFF: Time 34980, Note Name: F5
Note ON: Time 34980, Note Name: A5, Velocity: 55
Note OFF: Time 35040, Note Name: A5
Note ON: Time 35040, Note Name: C5, Velocity: 61
Note OFF: Time 35100, Note Name: C5
Note ON: Time 35100, Note Name: F5, Velocity: 55
Note OFF: Time 35160, Note Name: F5
Note ON: Time 35160, Note Name: A5, Velocity: 56
Note OFF: Time 35220, Note Name: A5
Note ON: Time 35220, Note Name: C6, Velocity: 56
Note OFF: Time 35280, Note Name: C6
Note ON: Time 35280, Note Name: F5, Velocity: 61
Note OFF: Time 35340, Note Name: F5
Note ON: Time 35340, Note Name: A5, Velocity: 56
Note OFF: Time 35400, Note Name: A5
Note ON: Time 35400, Note Name: C6, Velocity: 56
Note OFF: Time 35460, Note Name: C6
Note ON: Time 35460, Note Name: F6, Velocity: 56
Note OFF: Time 35520, Note Name: F6
Note ON: Time 35580, Note Name: A3, Velocity: 62
Note OFF: Time 35640, Note Name: A3
Note ON: Time 35640, Note Name: C4, Velocity: 62
Note OFF: Time 35700, Note Name: C4
Note ON: Time 35700, Note Name: F4, Velocity: 62
Note OFF: Time 35760, Note Name: F4
Note ON: Time 35760, Note Name: A4, Velocity: 66
Note OFF: Time 35820, Note Name: A4
Note ON: Time 35820, Note Name: C5, Velocity: 62
Note OFF: Time 35880, Note Name: C5
Note ON: Time 35880, Note Name: F5, Velocity: 62
Note OFF: Time 35940, Note Name: F5
Note ON: Time 35940, Note Name: A5, Velocity: 62
Note OFF: Time 36000, Note Name: A5
Note ON: Time 36000, Note Name: C5, Velocity: 69
Note OFF: Time 36060, Note Name: C5
Note ON: Time 36060, Note Name: F5, Velocity: 63
Note OFF: Time 36120, Note Name: F5
Note ON: Time 36120, Note Name: A5, Velocity: 63
Note OFF: Time 36180, Note Name: A5
Note ON: Time 36180, Note Name: C6, Velocity: 63
Note OFF: Time 36240, Note Name: C6
Note ON: Time 36240, Note Name: F5, Velocity: 69
Note OFF: Time 36300, Note Name: F5
Note ON: Time 36300, Note Name: A5, Velocity: 63
Note OFF: Time 36360, Note Name: A5
Note ON: Time 36360, Note Name: C6, Velocity: 63
Note OFF: Time 36420, Note Name: C6
Note ON: Time 36420, Note Name: F6, Velocity: 63
Note OFF: Time 36480, Note Name: F6
Note ON: Time 36540, Note Name: A#3, Velocity: 63
Note OFF: Time 36600, Note Name: A#3
Note ON: Time 36600, Note Name: C#4, Velocity: 70
Note OFF: Time 36660, Note Name: C#4
Note ON: Time 36660, Note Name: F4, Velocity: 70
Note OFF: Time 36720, Note Name: F4
Note ON: Time 36720, Note Name: A#4, Velocity: 73
Note OFF: Time 36780, Note Name: A#4
Note ON: Time 36780, Note Name: C#5, Velocity: 70
Note OFF: Time 36840, Note Name: C#5
Note ON: Time 36840, Note Name: F5, Velocity: 70
Note OFF: Time 36900, Note Name: F5
Note ON: Time 36900, Note Name: A#5, Velocity: 70
Note OFF: Time 36960, Note Name: A#5
Note ON: Time 36960, Note Name: C#5, Velocity: 77
Note OFF: Time 37020, Note Name: C#5
Note ON: Time 37020, Note Name: F5, Velocity: 70
Note OFF: Time 37080, Note Name: F5
Note ON: Time 37080, Note Name: A#5, Velocity: 70
Note OFF: Time 37140, Note Name: A#5
Note ON: Time 37140, Note Name: C#6, Velocity: 70
Note OFF: Time 37200, Note Name: C#6
Note ON: Time 37200, Note Name: F5, Velocity: 78
Note OFF: Time 37260, Note Name: F5
Note ON: Time 37260, Note Name: A#5, Velocity: 71
Note OFF: Time 37320, Note Name: A#5
Note ON: Time 37320, Note Name: C#6, Velocity: 71
Note OFF: Time 37380, Note Name: C#6
Note ON: Time 37380, Note Name: F6, Velocity: 71
Note OFF: Time 37440, Note Name: F6
Note ON: Time 37440, Note Name: E5, Velocity: 79
Note OFF: Time 37500, Note Name: E5
Note ON: Time 37500, Note Name: E6, Velocity: 70
Note OFF: Time 37560, Note Name: E6
Note ON: Time 37560, Note Name: C#6, Velocity: 70
Note OFF: Time 37620, Note Name: C#6
Note ON: Time 37620, Note Name: A#5, Velocity: 70
Note OFF: Time 37680, Note Name: A#5
Note ON: Time 37680, Note Name: E5, Velocity: 80
Note OFF: Time 37740, Note Name: E5
Note ON: Time 37740, Note Name: C#5, Velocity: 68
Note OFF: Time 37800, Note Name: C#5
Note ON: Time 37800, Note Name: A#4, Velocity: 70
Note OFF: Time 37860, Note Name: A#4
Note ON: Time 37860, Note Name: E4, Velocity: 70
Note OFF: Time 37920, Note Name: E4
Note ON: Time 37920, Note Name: C#4, Velocity: 79
Note OFF: Time 37980, Note Name: C#4
Note ON: Time 37980, Note Name: D#4, Velocity: 68
Note OFF: Time 38040, Note Name: D#4
Note ON: Time 38040, Note Name: C#4, Velocity: 69
Note OFF: Time 38100, Note Name: C#4
Note ON: Time 38100, Note Name: C4, Velocity: 69
Note OFF: Time 38160, Note Name: C4
Note ON: Time 38160, Note Name: A#3, Velocity: 78
Note OFF: Time 38220, Note Name: A#3
Note ON: Time 38220, Note Name: C#4, Velocity: 72
Note OFF: Time 38280, Note Name: C#4
Note ON: Time 38280, Note Name: C4, Velocity: 76
Note OFF: Time 38340, Note Name: C4
Note ON: Time 38340, Note Name: A#3, Velocity: 81
Note OFF: Time 38400, Note Name: A#3
Note ON: Time 38400, Note Name: A3, Velocity: 86
Note OFF: Time 38640, Note Name: A3
Note ON: Time 39960, Note Name: C4, Velocity: 40
Note OFF: Time 40080, Note Name: C4
Note ON: Time 40080, Note Name: D4, Velocity: 45
Note OFF: Time 40200, Note Name: D4
Note ON: Time 40200, Note Name: C4, Velocity: 41
Note OFF: Time 40320, Note Name: C4
Note ON: Time 40320, Note Name: A#3, Velocity: 45
Note OFF: Time 40440, Note Name: A#3
Note ON: Time 40440, Note Name: A3, Velocity: 40
Note OFF: Time 40560, Note Name: A3
Note ON: Time 40560, Note Name: G3, Velocity: 43
Note OFF: Time 40680, Note Name: G3
Note ON: Time 40680, Note Name: F3, Velocity: 40
Note OFF: Time 40770, Note Name: F3
Note ON: Time 40800, Note Name: F3, Velocity: 45
Note OFF: Time 41040, Note Name: F3
Note ON: Time 41880, Note Name: D#4, Velocity: 38
Note OFF: Time 41920, Note Name: D#4
Note ON: Time 41920, Note Name: F4, Velocity: 40
Note OFF: Time 41960, Note Name: F4
Note ON: Time 41960, Note Name: D#4, Velocity: 38
Note OFF: Time 42000, Note Name: D#4
Note ON: Time 42000, Note Name: F4, Velocity: 45
Note OFF: Time 42120, Note Name: F4
Note ON: Time 42120, Note Name: D#4, Velocity: 41
Note OFF: Time 42240, Note Name: D#4
Note ON: Time 42240, Note Name: D4, Velocity: 45
Note OFF: Time 42360, Note Name: D4
Note ON: Time 42360, Note Name: C4, Velocity: 40
Note OFF: Time 42480, Note Name: C4
Note ON: Time 42480, Note Name: A#3, Velocity: 43
Note OFF: Time 42600, Note Name: A#3
Note ON: Time 42600, Note Name: A3, Velocity: 40
Note OFF: Time 42690, Note Name: A3
Note ON: Time 42720, Note Name: A3, Velocity: 45
Note OFF: Time 42960, Note Name: A3
Note ON: Time 43080, Note Name: C5, Velocity: 44
Note OFF: Time 43200, Note Name: C5
Note ON: Time 43200, Note Name: D5, Velocity: 49
Note OFF: Time 43320, Note Name: D5
Note ON: Time 43320, Note Name: C5, Velocity: 45
Note OFF: Time 43440, Note Name: C5
Note ON: Time 43440, Note Name: A#4, Velocity: 49
Note OFF: Time 43560, Note Name: A#4
Note ON: Time 43560, Note Name: A4, Velocity: 44
Note OFF: Time 43680, Note Name: A4
Note ON: Time 43680, Note Name: G4, Velocity: 47
Note OFF: Time 43800, Note Name: G4
Note ON: Time 43800, Note Name: F4, Velocity: 44
Note OFF: Time 43890, Note Name: F4
Note ON: Time 44040, Note Name: D#5, Velocity: 44
Note OFF: Time 44160, Note Name: D#5
Note ON: Time 44160, Note Name: F5, Velocity: 49
Note OFF: Time 44280, Note Name: F5
Note ON: Time 44280, Note Name: D#5, Velocity: 45
Note OFF: Time 44400, Note Name: D#5
Note ON: Time 44400, Note Name: D5, Velocity: 49
Note OFF: Time 44520, Note Name: D5
Note ON: Time 44520, Note Name: C5, Velocity: 44
Note OFF: Time 44640, Note Name: C5
Note ON: Time 44640, Note Name: A#4, Velocity: 47
Note OFF: Time 44760, Note Name: A#4
Note ON: Time 44760, Note Name: A4, Velocity: 44
Note OFF: Time 44880, Note Name: A4
Note ON: Time 44880, Note Name: F5, Velocity: 49
Note OFF: Time 45000, Note Name: F5
Note ON: Time 45000, Note Name: D#5, Velocity: 47
Note OFF: Time 45120, Note Name: D#5
Note ON: Time 45120, Note Name: D5, Velocity: 47
Note OFF: Time 45240, Note Name: D5
Note ON: Time 45240, Note Name: C5, Velocity: 47
Note OFF: Time 45360, Note Name: C5
Note ON: Time 45360, Note Name: A#4, Velocity: 44
Note OFF: Time 45480, Note Name: A#4
Note ON: Time 45480, Note Name: A4, Velocity: 44
Note OFF: Time 45600, Note Name: A4
Note ON: Time 45600, Note Name: F5, Velocity: 53
Note OFF: Time 45720, Note Name: F5
Note ON: Time 45720, Note Name: D#5, Velocity: 49
Note OFF: Time 45840, Note Name: D#5
Note ON: Time 45840, Note Name: D5, Velocity: 46
Note OFF: Time 45960, Note Name: D5
Note ON: Time 45960, Note Name: C5, Velocity: 46
Note OFF: Time 46080, Note Name: C5
Note ON: Time 46080, Note Name: A#4, Velocity: 49
Note OFF: Time 46160, Note Name: A#4
Note ON: Time 46160, Note Name: A4, Velocity: 49
Note OFF: Time 46240, Note Name: A4
Note ON: Time 46240, Note Name: F5, Velocity: 54
Note OFF: Time 46320, Note Name: F5
Note ON: Time 46320, Note Name: D#5, Velocity: 49
Note OFF: Time 46400, Note Name: D#5
Note ON: Time 46400, Note Name: D5, Velocity: 49
Note OFF: Time 46480, Note Name: D5
Note ON: Time 46480, Note Name: C5, Velocity: 49
Note OFF: Time 46560, Note Name: C5
Note ON: Time 46560, Note Name: A#4, Velocity: 49
Note OFF: Time 46620, Note Name: A#4
Note ON: Time 46620, Note Name: A4, Velocity: 49
Note OFF: Time 46680, Note Name: A4
Note ON: Time 46680, Note Name: F5, Velocity: 58
Note OFF: Time 46740, Note Name: F5
Note ON: Time 46740, Note Name: D#5, Velocity: 50
Note OFF: Time 46800, Note Name: D#5
Note ON: Time 46800, Note Name: D5, Velocity: 50
Note OFF: Time 46860, Note Name: D5
Note ON: Time 46860, Note Name: C5, Velocity: 50
Note OFF: Time 46920, Note Name: C5
Note ON: Time 46920, Note Name: A#4, Velocity: 50
Note OFF: Time 46980, Note Name: A#4
Note ON: Time 46980, Note Name: A4, Velocity: 50
Note OFF: Time 47040, Note Name: A4
Note ON: Time 47040, Note Name: F5, Velocity: 59
Note OFF: Time 47100, Note Name: F5
Note ON: Time 47100, Note Name: D#5, Velocity: 52
Note OFF: Time 47160, Note Name: D#5
Note ON: Time 47160, Note Name: D5, Velocity: 52
Note OFF: Time 47220, Note Name: D5
Note ON: Time 47220, Note Name: C5, Velocity: 52
Note OFF: Time 47280, Note Name: C5
Note ON: Time 47280, Note Name: A#4, Velocity: 52
Note OFF: Time 47340, Note Name: A#4
Note ON: Time 47340, Note Name: A4, Velocity: 52
Note OFF: Time 47400, Note Name: A4
Note ON: Time 47400, Note Name: F#5, Velocity: 61
Note OFF: Time 47460, Note Name: F#5
Note ON: Time 47460, Note Name: F5, Velocity: 55
Note OFF: Time 47520, Note Name: F5
Note ON: Time 47520, Note Name: D#5, Velocity: 56
Note OFF: Time 47568, Note Name: D#5
Note ON: Time 47568, Note Name: D5, Velocity: 57
Note OFF: Time 47616, Note Name: D5
Note ON: Time 47616, Note Name: C5, Velocity: 58
Note OFF: Time 47664, Note Name: C5
Note ON: Time 47664, Note Name: A#4, Velocity: 58
Note OFF: Time 47712, Note Name: A#4
Note ON: Time 47712, Note Name: A4, Velocity: 59
Note OFF: Time 47760, Note Name: A4
Note ON: Time 47760, Note Name: G5, Velocity: 50
Note OFF: Time 47880, Note Name: G5
Note ON: Time 47880, Note Name: F5, Velocity: 46
Note OFF: Time 48000, Note Name: F5
Note ON: Time 48000, Note Name: D#5, Velocity: 50
Note OFF: Time 48120, Note Name: D#5
Note ON: Time 48120, Note Name: D5, Velocity: 46
Note OFF: Time 48240, Note Name: D5
Note ON: Time 48240, Note Name: C5, Velocity: 46
Note OFF: Time 48360, Note Name: C5
Note ON: Time 48360, Note Name: A#4, Velocity: 46
Note OFF: Time 48480, Note Name: A#4
Note ON: Time 48480, Note Name: A4, Velocity: 50
Note OFF: Time 48720, Note Name: A4
Note ON: Time 48720, Note Name: A#4, Velocity: 47
Note OFF: Time 48960, Note Name: A#4
Note ON: Time 48960, Note Name: B4, Velocity: 53
Note OFF: Time 49200, Note Name: B4
Note ON: Time 49200, Note Name: C5, Velocity: 49
Note OFF: Time 49440, Note Name: C5
Note ON: Time 49560, Note Name: F#5, Velocity: 45
Note OFF: Time 49680, Note Name: F#5
Note ON: Time 49680, Note Name: A5, Velocity: 50
Note OFF: Time 49800, Note Name: A5
Note ON: Time 49800, Note Name: G5, Velocity: 46
Note OFF: Time 49920, Note Name: G5
Note ON: Time 49920, Note Name: F5, Velocity: 50
Note OFF: Time 50040, Note Name: F5
Note ON: Time 50040, Note Name: D#5, Velocity: 44
Note OFF: Time 50160, Note Name: D#5
Note ON: Time 50160, Note Name: D5, Velocity: 46
Note OFF: Time 50280, Note Name: D5
Note ON: Time 50280, Note Name: C5, Velocity: 44
Note OFF: Time 50400, Note Name: C5
Note ON: Time 50400, Note Name: A4, Velocity: 50
Note OFF: Time 50520, Note Name: A4
Note ON: Time 50520, Note Name: A#4, Velocity: 41
Note OFF: Time 50640, Note Name: A#4
Note ON: Time 50640, Note Name: B4, Velocity: 47
Note OFF: Time 50760, Note Name: B4
Note ON: Time 50760, Note Name: C5, Velocity: 44
Note OFF: Time 50880, Note Name: C5
Note ON: Time 50880, Note Name: C#5, Velocity: 58
Note OFF: Time 51120, Note Name: C#5
Note ON: Time 51120, Note Name: D5, Velocity: 53
Note OFF: Time 51480, Note Name: D5
Note ON: Time 51480, Note Name: F5, Velocity: 56
Note OFF: Time 51600, Note Name: F5
Note ON: Time 51600, Note Name: G5, Velocity: 64
Note OFF: Time 51720, Note Name: G5
Note ON: Time 51720, Note Name: D5, Velocity: 58
Note OFF: Time 51840, Note Name: D5
Note ON: Time 51840, Note Name: F5, Velocity: 62
Note OFF: Time 51960, Note Name: F5
Note ON: Time 51960, Note Name: D#5, Velocity: 58
Note OFF: Time 52080, Note Name: D#5
Note ON: Time 52080, Note Name: F5, Velocity: 64
Note OFF: Time 52200, Note Name: F5
Note ON: Time 52200, Note Name: C5, Velocity: 58
Note OFF: Time 52320, Note Name: C5
Note ON: Time 52320, Note Name: D#5, Velocity: 64
Note OFF: Time 52440, Note Name: D#5
Note ON: Time 52440, Note Name: D5, Velocity: 59
Note OFF: Time 52560, Note Name: D5
Note ON: Time 52560, Note Name: G5, Velocity: 67
Note OFF: Time 52680, Note Name: G5
Note ON: Time 52680, Note Name: D5, Velocity: 59
Note OFF: Time 52800, Note Name: D5
Note ON: Time 52800, Note Name: F5, Velocity: 71
Note OFF: Time 52920, Note Name: F5
Note ON: Time 52920, Note Name: D#5, Velocity: 64
Note OFF: Time 53040, Note Name: D#5
Note ON: Time 53040, Note Name: F5, Velocity: 71
Note OFF: Time 53160, Note Name: F5
Note ON: Time 53160, Note Name: C5, Velocity: 62
Note OFF: Time 53280, Note Name: C5
Note ON: Time 53280, Note Name: D5, Velocity: 70
Note OFF: Time 53400, Note Name: D5
Note ON: Time 53400, Note Name: D#5, Velocity: 60
Note OFF: Time 53520, Note Name: D#5
Note ON: Time 53520, Note Name: E5, Velocity: 62
Note OFF: Time 53640, Note Name: E5
Note ON: Time 53640, Note Name: F5, Velocity: 64
Note OFF: Time 53760, Note Name: F5
Note ON: Time 53760, Note Name: F#5, Velocity: 70
Note OFF: Time 53880, Note Name: F#5
Note ON: Time 53880, Note Name: G5, Velocity: 66
Note OFF: Time 54000, Note Name: G5
Note ON: Time 54000, Note Name: A5, Velocity: 69
Note OFF: Time 54120, Note Name: A5
Note ON: Time 54120, Note Name: A#5, Velocity: 70
Note OFF: Time 54240, Note Name: A#5
Note ON: Time 54240, Note Name: C6, Velocity: 71
Note OFF: Time 54360, Note Name: C6
Note ON: Time 54360, Note Name: C#6, Velocity: 76
Note OFF: Time 54480, Note Name: C#6
Note ON: Time 54480, Note Name: D6, Velocity: 81
Note OFF: Time 54600, Note Name: D6
Note ON: Time 54600, Note Name: E5, Velocity: 64
Note OFF: Time 54720, Note Name: E5
Note ON: Time 54720, Note Name: G5, Velocity: 58
Note OFF: Time 54960, Note Name: G5
Note ON: Time 54960, Note Name: F5, Velocity: 53
Note OFF: Time 55200, Note Name: F5
Note ON: Time 55320, Note Name: F4, Velocity: 38
Note ON: Time 55320, Note Name: F5, Velocity: 45
Note OFF: Time 55440, Note Name: F5
Note OFF: Time 55440, Note Name: F4
Note ON: Time 55440, Note Name: G4, Velocity: 42
Note ON: Time 55440, Note Name: G5, Velocity: 50
Note OFF: Time 55560, Note Name: G5
Note OFF: Time 55560, Note Name: G4
Note ON: Time 55560, Note Name: F4, Velocity: 39
Note ON: Time 55560, Note Name: F5, Velocity: 46
Note OFF: Time 55680, Note Name: F5
Note OFF: Time 55680, Note Name: F4
Note ON: Time 55680, Note Name: D#4, Velocity: 42
Note ON: Time 55680, Note Name: D#5, Velocity: 50
Note OFF: Time 55800, Note Name: D#5
Note OFF: Time 55800, Note Name: D#4
Note ON: Time 55800, Note Name: D4, Velocity: 39
Note ON: Time 55800, Note Name: D5, Velocity: 46
Note OFF: Time 55920, Note Name: D5
Note OFF: Time 55920, Note Name: D4
Note ON: Time 55920, Note Name: C4, Velocity: 39
Note ON: Time 55920, Note Name: C5, Velocity: 46
Note OFF: Time 56040, Note Name: C5
Note OFF: Time 56040, Note Name: C4
Note ON: Time 56040, Note Name: A#3, Velocity: 39
Note ON: Time 56040, Note Name: A#4, Velocity: 46
Note OFF: Time 56160, Note Name: A#4
Note OFF: Time 56160, Note Name: A#3
Note ON: Time 56160, Note Name: A3, Velocity: 42
Note ON: Time 56160, Note Name: A4, Velocity: 42
Note OFF: Time 56400, Note Name: A4
Note OFF: Time 56400, Note Name: A3
Note ON: Time 56400, Note Name: A#3, Velocity: 39
Note ON: Time 56400, Note Name: A#4, Velocity: 47
Note OFF: Time 56640, Note Name: A#4
Note OFF: Time 56640, Note Name: A#3
Note ON: Time 56640, Note Name: B3, Velocity: 45
Note ON: Time 56640, Note Name: B4, Velocity: 53
Note OFF: Time 56880, Note Name: B4
Note OFF: Time 56880, Note Name: B3
Note ON: Time 56880, Note Name: C4, Velocity: 41
Note ON: Time 56880, Note Name: C5, Velocity: 49
Note OFF: Time 57240, Note Name: C5
Note OFF: Time 57240, Note Name: C4
Note ON: Time 57240, Note Name: F#4, Velocity: 38
Note ON: Time 57240, Note Name: F#5, Velocity: 45
Note OFF: Time 57360, Note Name: F#5
Note OFF: Time 57360, Note Name: F#4
Note ON: Time 57360, Note Name: A4, Velocity: 42
Note ON: Time 57360, Note Name: A5, Velocity: 50
Note OFF: Time 57480, Note Name: A5
Note OFF: Time 57480, Note Name: A4
Note ON: Time 57480, Note Name: G4, Velocity: 39
Note ON: Time 57480, Note Name: G5, Velocity: 46
Note OFF: Time 57600, Note Name: G5
Note OFF: Time 57600, Note Name: G4
Note ON: Time 57600, Note Name: F4, Velocity: 42
Note ON: Time 57600, Note Name: F5, Velocity: 50
Note OFF: Time 57720, Note Name: F5
Note OFF: Time 57720, Note Name: F4
Note ON: Time 57720, Note Name: D#4, Velocity: 43
Note ON: Time 57720, Note Name: D#5, Velocity: 43
Note OFF: Time 57840, Note Name: D#5
Note OFF: Time 57840, Note Name: D#4
Note ON: Time 57840, Note Name: D4, Velocity: 39
Note ON: Time 57840, Note Name: D5, Velocity: 46
Note OFF: Time 57960, Note Name: D5
Note OFF: Time 57960, Note Name: D4
Note ON: Time 57960, Note Name: C4, Velocity: 43
Note ON: Time 57960, Note Name: C5, Velocity: 43
Note OFF: Time 58080, Note Name: C5
Note OFF: Time 58080, Note Name: C4
Note ON: Time 58080, Note Name: A3, Velocity: 42
Note ON: Time 58080, Note Name: A4, Velocity: 50
Note OFF: Time 58200, Note Name: A4
Note OFF: Time 58200, Note Name: A3
Note ON: Time 58200, Note Name: A#3, Velocity: 44
Note ON: Time 58200, Note Name: A#4, Velocity: 44
Note OFF: Time 58320, Note Name: A#4
Note OFF: Time 58320, Note Name: A#3
Note ON: Time 58320, Note Name: B3, Velocity: 39
Note ON: Time 58320, Note Name: B4, Velocity: 47
Note OFF: Time 58440, Note Name: B4
Note OFF: Time 58440, Note Name: B3
Note ON: Time 58440, Note Name: C4, Velocity: 45
Note ON: Time 58440, Note Name: C5, Velocity: 45
Note OFF: Time 58560, Note Name: C5
Note OFF: Time 58560, Note Name: C4
Note ON: Time 58560, Note Name: C#4, Velocity: 45
Note ON: Time 58560, Note Name: C#5, Velocity: 53
Note OFF: Time 58800, Note Name: C#5
Note OFF: Time 58800, Note Name: C#4
Note ON: Time 58800, Note Name: D4, Velocity: 41
Note ON: Time 58800, Note Name: D5, Velocity: 49
Note OFF: Time 59160, Note Name: D5
Note OFF: Time 59160, Note Name: D4
Note ON: Time 59160, Note Name: F5, Velocity: 56
Note OFF: Time 59280, Note Name: F5
Note ON: Time 59280, Note Name: G#4, Velocity: 45
Note ON: Time 59280, Note Name: G5, Velocity: 63
Note OFF: Time 59400, Note Name: G5
Note ON: Time 59400, Note Name: D5, Velocity: 57
Note OFF: Time 59520, Note Name: D5
Note ON: Time 59520, Note Name: F5, Velocity: 62
Note OFF: Time 59640, Note Name: F5
Note ON: Time 59640, Note Name: D#5, Velocity: 58
Note OFF: Time 59760, Note Name: D#5
Note OFF: Time 59760, Note Name: G#4
Note ON: Time 59760, Note Name: A4, Velocity: 45
Note ON: Time 59760, Note Name: F5, Velocity: 63
Note OFF: Time 59880, Note Name: F5
Note ON: Time 59880, Note Name: C5, Velocity: 58
Note OFF: Time 60000, Note Name: C5
Note OFF: Time 60000, Note Name: A4
Note ON: Time 60000, Note Name: A#4, Velocity: 46
Note ON: Time 60000, Note Name: D#5, Velocity: 64
Note OFF: Time 60120, Note Name: D#5
Note ON: Time 60120, Note Name: D5, Velocity: 59
Note OFF: Time 60240, Note Name: D5
Note OFF: Time 60240, Note Name: A#4
Note ON: Time 60240, Note Name: G#4, Velocity: 46
Note ON: Time 60240, Note Name: G5, Velocity: 67
Note OFF: Time 60360, Note Name: G5
Note ON: Time 60360, Note Name: D5, Velocity: 59
Note OFF: Time 60480, Note Name: D5
Note ON: Time 60480, Note Name: F5, Velocity: 71
Note OFF: Time 60600, Note Name: F5
Note ON: Time 60600, Note Name: D#5, Velocity: 64
Note OFF: Time 60720, Note Name: D#5
Note OFF: Time 60720, Note Name: G#4
Note ON: Time 60720, Note Name: A4, Velocity: 47
Note ON: Time 60720, Note Name: F5, Velocity: 71
Note OFF: Time 60840, Note Name: F5
Note ON: Time 60840, Note Name: C5, Velocity: 63
Note OFF: Time 60960, Note Name: C5
Note OFF: Time 60960, Note Name: A4
Note ON: Time 60960, Note Name: A#4, Velocity: 59
Note ON: Time 60960, Note Name: D#5, Velocity: 71
Note OFF: Time 61080, Note Name: D#5
Note OFF: Time 61080, Note Name: A#4
Note ON: Time 61080, Note Name: D4, Velocity: 53
Note ON: Time 61080, Note Name: D5, Velocity: 63
Note OFF: Time 61200, Note Name: D5
Note OFF: Time 61200, Note Name: D4
Note ON: Time 61200, Note Name: D#4, Velocity: 56
Note ON: Time 61200, Note Name: D#5, Velocity: 67
Note OFF: Time 61320, Note Name: D#5
Note OFF: Time 61320, Note Name: D#4
Note ON: Time 61320, Note Name: F4, Velocity: 60
Note ON: Time 61320, Note Name: F5, Velocity: 71
Note OFF: Time 61440, Note Name: F5
Note OFF: Time 61440, Note Name: F4
Note ON: Time 61440, Note Name: F#4, Velocity: 64
Note ON: Time 61440, Note Name: F#5, Velocity: 76
Note OFF: Time 61560, Note Name: F#5
Note OFF: Time 61560, Note Name: F#4
Note ON: Time 61560, Note Name: G4, Velocity: 61
Note ON: Time 61560, Note Name: G5, Velocity: 72
Note OFF: Time 61680, Note Name: G5
Note OFF: Time 61680, Note Name: G4
Note ON: Time 61680, Note Name: A4, Velocity: 64
Note ON: Time 61680, Note Name: A5, Velocity: 76
Note OFF: Time 61740, Note Name: A5
Note OFF: Time 61740, Note Name: A4
Note ON: Time 61800, Note Name: A#4, Velocity: 67
Note ON: Time 61800, Note Name: A#5, Velocity: 80
Note OFF: Time 61860, Note Name: A#5
Note OFF: Time 61860, Note Name: A#4
Note ON: Time 61920, Note Name: A#3, Velocity: 71
Note ON: Time 61920, Note Name: A#4, Velocity: 71
Note OFF: Time 62160, Note Name: A#4
Note OFF: Time 62160, Note Name: A#3
Note ON: Time 62160, Note Name: C4, Velocity: 58
Note ON: Time 62160, Note Name: C5, Velocity: 69
Note OFF: Time 62400, Note Name: C5
Note OFF: Time 62400, Note Name: C4
Note ON: Time 62400, Note Name: C#4, Velocity: 41
Note ON: Time 62400, Note Name: C#5, Velocity: 49
Note OFF: Time 62640, Note Name: C#5
Note OFF: Time 62640, Note Name: C#4
Note ON: Time 62640, Note Name: D4, Velocity: 38
Note ON: Time 62640, Note Name: D5, Velocity: 45
Note OFF: Time 62940, Note Name: D5
Note OFF: Time 62940, Note Name: D4
Note ON: Time 62940, Note Name: A#4, Velocity: 59
Note OFF: Time 63000, Note Name: A#4
Note ON: Time 63000, Note Name: A4, Velocity: 61
Note OFF: Time 63060, Note Name: A4
Note ON: Time 63060, Note Name: A#4, Velocity: 62
Note OFF: Time 63120, Note Name: A#4
Note ON: Time 63120, Note Name: B4, Velocity: 62
Note OFF: Time 63180, Note Name: B4
Note ON: Time 63180, Note Name: C5, Velocity: 64
Note OFF: Time 63240, Note Name: C5
Note ON: Time 63240, Note Name: C#5, Velocity: 65
Note OFF: Time 63300, Note Name: C#5
Note ON: Time 63300, Note Name: D5, Velocity: 67
Note OFF: Time 63360, Note Name: D5
Note ON: Time 63360, Note Name: D#5, Velocity: 69
Note OFF: Time 63420, Note Name: D#5
Note ON: Time 63420, Note Name: E5, Velocity: 70
Note OFF: Time 63480, Note Name: E5
Note ON: Time 63480, Note Name: F5, Velocity: 71
Note OFF: Time 63540, Note Name: F5
Note ON: Time 63540, Note Name: F#5, Velocity: 73
Note OFF: Time 63600, Note Name: F#5
Note ON: Time 63600, Note Name: G5, Velocity: 74
Note OFF: Time 63660, Note Name: G5
Note ON: Time 63660, Note Name: G#5, Velocity: 76
Note OFF: Time 63720, Note Name: G#5
Note ON: Time 63720, Note Name: A5, Velocity: 78
Note OFF: Time 63780, Note Name: A5
Note ON: Time 63780, Note Name: A#5, Velocity: 78
Note OFF: Time 63840, Note Name: A#5
Note ON: Time 63840, Note Name: A#4, Velocity: 53
Note OFF: Time 63888, Note Name: A#4
Note ON: Time 63888, Note Name: C5, Velocity: 48
Note OFF: Time 63936, Note Name: C5
Note ON: Time 63936, Note Name: A#4, Velocity: 45
Note OFF: Time 63984, Note Name: A#4
Note ON: Time 63984, Note Name: A4, Velocity: 45
Note OFF: Time 64032, Note Name: A4
Note ON: Time 64032, Note Name: A#4, Velocity: 45
Note OFF: Time 64080, Note Name: A#4
Note ON: Time 64080, Note Name: D#4, Velocity: 42
Note ON: Time 64080, Note Name: D5, Velocity: 52
Note OFF: Time 64260, Note Name: D5
Note ON: Time 64260, Note Name: C5, Velocity: 41
Note OFF: Time 64320, Note Name: C5
Note OFF: Time 64320, Note Name: D#4
Note ON: Time 64320, Note Name: D4, Velocity: 42
Note ON: Time 64320, Note Name: A#4, Velocity: 50
Note OFF: Time 64560, Note Name: A#4
Note OFF: Time 64560, Note Name: D4
Note ON: Time 64800, Note Name: F3, Velocity: 79
Note ON: Time 64800, Note Name: C#4, Velocity: 96
Note OFF: Time 65280, Note Name: C#4
Note OFF: Time 65280, Note Name: F3
Note ON: Time 65280, Note Name: F#3, Velocity: 85
Note ON: Time 65280, Note Name: B3, Velocity: 96
Note OFF: Time 65640, Note Name: B3
Note ON: Time 65640, Note Name: C#4, Velocity: 70
Note OFF: Time 65700, Note Name: C#4
Note ON: Time 65700, Note Name: D#4, Velocity: 71
Note OFF: Time 65760, Note Name: D#4
Note OFF: Time 65760, Note Name: F#3
Note ON: Time 65760, Note Name: F#3, Velocity: 81
Note OFF: Time 66000, Note Name: F#3
Note ON: Time 66000, Note Name: D#3, Velocity: 64
Note ON: Time 66000, Note Name: A3, Velocity: 77
Note OFF: Time 66240, Note Name: A3
Note OFF: Time 66240, Note Name: D#3
Note ON: Time 66240, Note Name: C#3, Velocity: 67
Note ON: Time 66240, Note Name: A#3, Velocity: 79
Note OFF: Time 66480, Note Name: A#3
Note ON: Time 66480, Note Name: F3, Velocity: 65
Note OFF: Time 66600, Note Name: F3
Note OFF: Time 66720, Note Name: C#3
Note ON: Time 66720, Note Name: F3, Velocity: 79
Note ON: Time 66720, Note Name: C#4, Velocity: 96
Note OFF: Time 67200, Note Name: C#4
Note OFF: Time 67200, Note Name: F3
Note ON: Time 67200, Note Name: G3, Velocity: 96
Note ON: Time 67200, Note Name: C4, Velocity: 96
Note OFF: Time 67680, Note Name: C4
Note OFF: Time 67680, Note Name: G3
Note ON: Time 67680, Note Name: C4, Velocity: 96
Note ON: Time 67680, Note Name: A#4, Velocity: 96
Note OFF: Time 68160, Note Name: A#4
Note OFF: Time 68160, Note Name: C4
Note ON: Time 68160, Note Name: C4, Velocity: 81
Note ON: Time 68160, Note Name: G#4, Velocity: 96
Note OFF: Time 68280, Note Name: G#4
Note OFF: Time 68280, Note Name: C4
Note ON: Time 68400, Note Name: F4, Velocity: 86
Note ON: Time 68400, Note Name: G#4, Velocity: 86
Note ON: Time 68400, Note Name: F5, Velocity: 102
Note OFF: Time 68880, Note Name: F5
Note OFF: Time 68880, Note Name: G#4
Note OFF: Time 68880, Note Name: F4
Note ON: Time 68880, Note Name: E4, Velocity: 81
Note ON: Time 68880, Note Name: G4, Velocity: 81
Note ON: Time 68880, Note Name: E5, Velocity: 96
Note OFF: Time 69000, Note Name: E5
Note OFF: Time 69000, Note Name: G4
Note OFF: Time 69000, Note Name: E4
Note ON: Time 69120, Note Name: F4, Velocity: 86
Note ON: Time 69120, Note Name: G#4, Velocity: 86
Note ON: Time 69120, Note Name: F5, Velocity: 102
Note OFF: Time 69240, Note Name: F5
Note OFF: Time 69240, Note Name: G#4
Note OFF: Time 69240, Note Name: F4
Note ON: Time 69240, Note Name: C4, Velocity: 36
Note ON: Time 69300, Note Name: A#3, Velocity: 31
Note OFF: Time 69306, Note Name: C4
Note OFF: Time 69360, Note Name: A#3
Note ON: Time 69360, Note Name: C4, Velocity: 36
Note ON: Time 69420, Note Name: G#3, Velocity: 32
Note OFF: Time 69426, Note Name: C4
Note OFF: Time 69480, Note Name: G#3
Note ON: Time 69480, Note Name: C4, Velocity: 36
Note ON: Time 69540, Note Name: G3, Velocity: 31
Note OFF: Time 69546, Note Name: C4
Note OFF: Time 69600, Note Name: G3
Note ON: Time 69600, Note Name: C4, Velocity: 42
Note ON: Time 69660, Note Name: F3, Velocity: 31
Note OFF: Time 69666, Note Name: C4
Note OFF: Time 69720, Note Name: F3
Note ON: Time 69720, Note Name: C4, Velocity: 36
Note ON: Time 69780, Note Name: E3, Velocity: 31
Note OFF: Time 69786, Note Name: C4
Note OFF: Time 69840, Note Name: E3
Note ON: Time 69840, Note Name: C4, Velocity: 36
Note ON: Time 69900, Note Name: F3, Velocity: 30
Note OFF: Time 69906, Note Name: C4
Note OFF: Time 69960, Note Name: F3
Note ON: Time 69960, Note Name: C4, Velocity: 36
Note ON: Time 70020, Note Name: G3, Velocity: 31
Note OFF: Time 70026, Note Name: C4
Note OFF: Time 70080, Note Name: G3
Note ON: Time 70080, Note Name: C4, Velocity: 45
Note ON: Time 70140, Note Name: G#3, Velocity: 31
Note OFF: Time 70146, Note Name: C4
Note OFF: Time 70200, Note Name: G#3
Note ON: Time 70200, Note Name: F4, Velocity: 36
Note ON: Time 70260, Note Name: D#4, Velocity: 31
Note OFF: Time 70266, Note Name: F4
Note OFF: Time 70320, Note Name: D#4
Note ON: Time 70320, Note Name: F4, Velocity: 36
Note ON: Time 70380, Note Name: C#4, Velocity: 32
Note OFF: Time 70386, Note Name: F4
Note OFF: Time 70440, Note Name: C#4
Note ON: Time 70440, Note Name: F4, Velocity: 36
Note ON: Time 70500, Note Name: C4, Velocity: 31
Note OFF: Time 70506, Note Name: F4
Note OFF: Time 70560, Note Name: C4
Note ON: Time 70560, Note Name: F4, Velocity: 42
Note ON: Time 70620, Note Name: A#3, Velocity: 31
Note OFF: Time 70626, Note Name: F4
Note OFF: Time 70680, Note Name: A#3
Note ON: Time 70680, Note Name: F4, Velocity: 36
Note ON: Time 70740, Note Name: A3, Velocity: 31
Note OFF: Time 70746, Note Name: F4
Note OFF: Time 70800, Note Name: A3
Note ON: Time 70800, Note Name: F4, Velocity: 36
Note ON: Time 70860, Note Name: A#3, Velocity: 30
Note OFF: Time 70866, Note Name: F4
Note OFF: Time 70920, Note Name: A#3
Note ON: Time 70920, Note Name: F4, Velocity: 36
Note ON: Time 70980, Note Name: C4, Velocity: 31
Note OFF: Time 70986, Note Name: F4
Note OFF: Time 71040, Note Name: C4
Note ON: Time 71040, Note Name: F4, Velocity: 49
Note ON: Time 71100, Note Name: C#4, Velocity: 34
Note OFF: Time 71106, Note Name: F4
Note OFF: Time 71160, Note Name: C#4
Note ON: Time 71160, Note Name: F4, Velocity: 39
Note ON: Time 71220, Note Name: C#4, Velocity: 34
Note OFF: Time 71226, Note Name: F4
Note OFF: Time 71280, Note Name: C#4
Note ON: Time 71280, Note Name: G4, Velocity: 39
Note ON: Time 71340, Note Name: F4, Velocity: 35
Note OFF: Time 71346, Note Name: G4
Note OFF: Time 71400, Note Name: F4
Note ON: Time 71400, Note Name: G4, Velocity: 39
Note ON: Time 71460, Note Name: F4, Velocity: 34
Note OFF: Time 71466, Note Name: G4
Note OFF: Time 71520, Note Name: F4
Note ON: Time 71520, Note Name: G#4, Velocity: 46
Note ON: Time 71580, Note Name: F4, Velocity: 34
Note OFF: Time 71586, Note Name: G#4
Note OFF: Time 71640, Note Name: F4
Note ON: Time 71640, Note Name: G#4, Velocity: 39
Note ON: Time 71700, Note Name: F4, Velocity: 34
Note OFF: Time 71706, Note Name: G#4
Note OFF: Time 71760, Note Name: F4
Note ON: Time 71760, Note Name: A#4, Velocity: 39
Note ON: Time 71820, Note Name: E4, Velocity: 33
Note OFF: Time 71826, Note Name: A#4
Note OFF: Time 71880, Note Name: E4
Note ON: Time 71880, Note Name: A#4, Velocity: 39
Note ON: Time 71940, Note Name: E4, Velocity: 34
Note OFF: Time 71946, Note Name: A#4
Note OFF: Time 72000, Note Name: E4
Note ON: Time 72000, Note Name: F4, Velocity: 78
Note OFF: Time 72120, Note Name: F4
Note ON: Time 72120, Note Name: C4, Velocity: 36
Note ON: Time 72120, Note Name: C5, Velocity: 42
Note OFF: Time 72180, Note Name: C4
Note ON: Time 72180, Note Name: A#4, Velocity: 37
Note OFF: Time 72186, Note Name: C5
Note OFF: Time 72240, Note Name: A#4
Note ON: Time 72240, Note Name: C4, Velocity: 36
Note ON: Time 72240, Note Name: C5, Velocity: 43
Note OFF: Time 72300, Note Name: C4
Note ON: Time 72300, Note Name: G#4, Velocity: 39
Note OFF: Time 72306, Note Name: C5
Note OFF: Time 72360, Note Name: G#4
Note ON: Time 72360, Note Name: C4, Velocity: 36
Note ON: Time 72360, Note Name: C5, Velocity: 44
Note OFF: Time 72420, Note Name: C4
Note ON: Time 72420, Note Name: G4, Velocity: 39
Note OFF: Time 72426, Note Name: C5
Note OFF: Time 72480, Note Name: G4
Note ON: Time 72480, Note Name: C4, Velocity: 44
Note ON: Time 72480, Note Name: C5, Velocity: 53
Note OFF: Time 72540, Note Name: C4
Note ON: Time 72540, Note Name: F4, Velocity: 39
Note OFF: Time 72546, Note Name: C5
Note OFF: Time 72600, Note Name: F4
Note ON: Time 72600, Note Name: C4, Velocity: 38
Note ON: Time 72600, Note Name: C5, Velocity: 46
Note OFF: Time 72660, Note Name: C4
Note ON: Time 72660, Note Name: E4, Velocity: 39
Note OFF: Time 72666, Note Name: C5
Note OFF: Time 72720, Note Name: E4
Note ON: Time 72720, Note Name: C4, Velocity: 39
Note ON: Time 72720, Note Name: C5, Velocity: 47
Note OFF: Time 72780, Note Name: C4
Note ON: Time 72780, Note Name: F4, Velocity: 40
Note OFF: Time 72786, Note Name: C5
Note OFF: Time 72840, Note Name: F4
Note ON: Time 72840, Note Name: C4, Velocity: 40
Note ON: Time 72840, Note Name: C5, Velocity: 48
Note OFF: Time 72900, Note Name: C4
Note ON: Time 72900, Note Name: G4, Velocity: 41
Note OFF: Time 72906, Note Name: C5
Note OFF: Time 72960, Note Name: G4
Note ON: Time 72960, Note Name: C4, Velocity: 52
Note ON: Time 72960, Note Name: C5, Velocity: 61
Note OFF: Time 73020, Note Name: C4
Note ON: Time 73020, Note Name: G#4, Velocity: 42
Note OFF: Time 73026, Note Name: C5
Note OFF: Time 73080, Note Name: G#4
Note ON: Time 73080, Note Name: F4, Velocity: 42
Note ON: Time 73080, Note Name: F5, Velocity: 50
Note OFF: Time 73140, Note Name: F4
Note ON: Time 73140, Note Name: D#5, Velocity: 43
Note OFF: Time 73146, Note Name: F5
Note OFF: Time 73200, Note Name: D#5
Note ON: Time 73200, Note Name: F4, Velocity: 42
Note ON: Time 73200, Note Name: F5, Velocity: 50
Note OFF: Time 73260, Note Name: F4
Note ON: Time 73260, Note Name: C#5, Velocity: 46
Note OFF: Time 73266, Note Name: F5
Note OFF: Time 73320, Note Name: C#5
Note ON: Time 73320, Note Name: F4, Velocity: 42
Note ON: Time 73320, Note Name: F5, Velocity: 52
Note OFF: Time 73380, Note Name: F4
Note ON: Time 73380, Note Name: C5, Velocity: 45
Note OFF: Time 73386, Note Name: F5
Note OFF: Time 73440, Note Name: C5
Note ON: Time 73440, Note Name: F4, Velocity: 51
Note ON: Time 73440, Note Name: F5, Velocity: 62
Note OFF: Time 73500, Note Name: F4
Note ON: Time 73500, Note Name: A#4, Velocity: 45
Note OFF: Time 73506, Note Name: F5
Note OFF: Time 73560, Note Name: A#4
Note ON: Time 73560, Note Name: F4, Velocity: 44
Note ON: Time 73560, Note Name: F5, Velocity: 54
Note OFF: Time 73620, Note Name: F4
Note ON: Time 73620, Note Name: A4, Velocity: 47
Note OFF: Time 73626, Note Name: F5
Note OFF: Time 73680, Note Name: A4
Note ON: Time 73680, Note Name: F4, Velocity: 44
Note ON: Time 73680, Note Name: F5, Velocity: 54
Note OFF: Time 73740, Note Name: F4
Note ON: Time 73740, Note Name: A#4, Velocity: 46
Note OFF: Time 73746, Note Name: F5
Note OFF: Time 73800, Note Name: A#4
Note ON: Time 73800, Note Name: F4, Velocity: 46
Note ON: Time 73800, Note Name: F5, Velocity: 56
Note OFF: Time 73860, Note Name: F4
Note ON: Time 73860, Note Name: C5, Velocity: 47
Note OFF: Time 73866, Note Name: F5
Note OFF: Time 73920, Note Name: C5
Note ON: Time 73920, Note Name: F4, Velocity: 63
Note ON: Time 73920, Note Name: F5, Velocity: 77
Note OFF: Time 73980, Note Name: F4
Note ON: Time 73980, Note Name: C#5, Velocity: 54
Note OFF: Time 73986, Note Name: F5
Note OFF: Time 74040, Note Name: C#5
Note ON: Time 74040, Note Name: F4, Velocity: 52
Note ON: Time 74040, Note Name: F5, Velocity: 62
Note OFF: Time 74100, Note Name: F4
Note ON: Time 74100, Note Name: C#5, Velocity: 54
Note OFF: Time 74106, Note Name: F5
Note OFF: Time 74160, Note Name: C#5
Note ON: Time 74160, Note Name: G4, Velocity: 53
Note ON: Time 74160, Note Name: G5, Velocity: 63
Note OFF: Time 74220, Note Name: G4
Note ON: Time 74220, Note Name: F5, Velocity: 57
Note OFF: Time 74226, Note Name: G5
Note OFF: Time 74280, Note Name: F5
Note ON: Time 74280, Note Name: G4, Velocity: 53
Note ON: Time 74280, Note Name: G5, Velocity: 63
Note OFF: Time 74340, Note Name: G4
Note ON: Time 74340, Note Name: F5, Velocity: 56
Note OFF: Time 74346, Note Name: G5
Note OFF: Time 74400, Note Name: F5
Note ON: Time 74400, Note Name: G#4, Velocity: 65
Note ON: Time 74400, Note Name: G#5, Velocity: 76
Note OFF: Time 74460, Note Name: G#4
Note ON: Time 74460, Note Name: F5, Velocity: 57
Note OFF: Time 74466, Note Name: G#5
Note OFF: Time 74520, Note Name: F5
Note ON: Time 74520, Note Name: G#4, Velocity: 55
Note ON: Time 74520, Note Name: G#5, Velocity: 67
Note OFF: Time 74580, Note Name: G#4
Note ON: Time 74580, Note Name: F5, Velocity: 58
Note OFF: Time 74586, Note Name: G#5
Note OFF: Time 74640, Note Name: F5
Note ON: Time 74640, Note Name: A#4, Velocity: 57
Note ON: Time 74640, Note Name: A#5, Velocity: 67
Note OFF: Time 74700, Note Name: A#4
Note ON: Time 74700, Note Name: E5, Velocity: 57
Note OFF: Time 74706, Note Name: A#5
Note OFF: Time 74760, Note Name: E5
Note ON: Time 74760, Note Name: A#4, Velocity: 58
Note ON: Time 74760, Note Name: A#5, Velocity: 68
Note OFF: Time 74820, Note Name: A#4
Note ON: Time 74820, Note Name: E5, Velocity: 60
Note OFF: Time 74826, Note Name: A#5
Note OFF: Time 74880, Note Name: E5
Note ON: Time 74880, Note Name: F5, Velocity: 94
Note OFF: Time 75000, Note Name: F5
Note ON: Time 75000, Note Name: F6, Velocity: 93
Note OFF: Time 75240, Note Name: F6
Note ON: Time 75240, Note Name: F6, Velocity: 89
Note OFF: Time 75360, Note Name: F6
Note ON: Time 75360, Note Name: E6, Velocity: 90
Note OFF: Time 75420, Note Name: E6
Note ON: Time 75420, Note Name: C#6, Velocity: 73
Note OFF: Time 75480, Note Name: C#6
Note ON: Time 75480, Note Name: A#5, Velocity: 78
Note OFF: Time 75540, Note Name: A#5
Note ON: Time 75540, Note Name: G5, Velocity: 74
Note OFF: Time 75600, Note Name: G5
Note ON: Time 75600, Note Name: E5, Velocity: 67
Note ON: Time 75600, Note Name: C#5, Velocity: 56
Note OFF: Time 75660, Note Name: C#5
Note ON: Time 75660, Note Name: C5, Velocity: 61
Note OFF: Time 75720, Note Name: C5
Note OFF: Time 75720, Note Name: E5
Note ON: Time 75720, Note Name: E5, Velocity: 61
Note ON: Time 75720, Note Name: C#5, Velocity: 51
Note OFF: Time 75780, Note Name: C#5
Note ON: Time 75780, Note Name: A#4, Velocity: 60
Note OFF: Time 75840, Note Name: A#4
Note OFF: Time 75840, Note Name: E5
Note ON: Time 75840, Note Name: F5, Velocity: 83
Note ON: Time 75840, Note Name: G#4, Velocity: 77
Note OFF: Time 75950, Note Name: F5
Note OFF: Time 75960, Note Name: G#4
Note ON: Time 75960, Note Name: F5, Velocity: 93
Note OFF: Time 76200, Note Name: F5
Note ON: Time 76200, Note Name: F5, Velocity: 89
Note OFF: Time 76320, Note Name: F5
Note ON: Time 76320, Note Name: E5, Velocity: 90
Note OFF: Time 76380, Note Name: E5
Note ON: Time 76380, Note Name: C#5, Velocity: 75
Note OFF: Time 76440, Note Name: C#5
Note ON: Time 76440, Note Name: A#4, Velocity: 78
Note OFF: Time 76500, Note Name: A#4
Note ON: Time 76500, Note Name: G4, Velocity: 74
Note OFF: Time 76560, Note Name: G4
Note ON: Time 76560, Note Name: E4, Velocity: 67
Note ON: Time 76560, Note Name: C#4, Velocity: 56
Note OFF: Time 76620, Note Name: C#4
Note ON: Time 76620, Note Name: C4, Velocity: 61
Note OFF: Time 76680, Note Name: C4
Note OFF: Time 76680, Note Name: E4
Note ON: Time 76680, Note Name: E4, Velocity: 61
Note ON: Time 76680, Note Name: C#4, Velocity: 51
Note OFF: Time 76740, Note Name: C#4
Note ON: Time 76740, Note Name: A#3, Velocity: 60
Note OFF: Time 76800, Note Name: A#3
Note OFF: Time 76800, Note Name: E4
Note ON: Time 76800, Note Name: G#3, Velocity: 70
Note ON: Time 76800, Note Name: F4, Velocity: 83
Note OFF: Time 77040, Note Name: F4
Note OFF: Time 77040, Note Name: G#3
Note ON: Time 78000, Note Name: A#3, Velocity: 88
Note OFF: Time 78540, Note Name: A#3
Note ON: Time 78540, Note Name: C#4, Velocity: 71
Note OFF: Time 78600, Note Name: C#4
Note ON: Time 78600, Note Name: C4, Velocity: 71
Note OFF: Time 78660, Note Name: C4
Note ON: Time 78660, Note Name: A#3, Velocity: 64
Note OFF: Time 78720, Note Name: A#3
Note ON: Time 78720, Note Name: G#3, Velocity: 81
Note OFF: Time 78960, Note Name: G#3
Note ON: Time 78960, Note Name: F3, Velocity: 73
Note OFF: Time 79200, Note Name: F3
Note ON: Time 79920, Note Name: D#4, Velocity: 88
Note OFF: Time 80460, Note Name: D#4
Note ON: Time 80460, Note Name: F#4, Velocity: 71
Note OFF: Time 80520, Note Name: F#4
Note ON: Time 80520, Note Name: F4, Velocity: 71
Note OFF: Time 80580, Note Name: F4
Note ON: Time 80580, Note Name: D#4, Velocity: 64
Note OFF: Time 80640, Note Name: D#4
Note ON: Time 80640, Note Name: C#4, Velocity: 81
Note OFF: Time 80880, Note Name: C#4
Note ON: Time 80880, Note Name: A#3, Velocity: 73
Note OFF: Time 81120, Note Name: A#3
Note ON: Time 81120, Note Name: C#5, Velocity: 79
Note OFF: Time 81600, Note Name: C#5
Note ON: Time 81600, Note Name: D#4, Velocity: 72
Note ON: Time 81600, Note Name: C5, Velocity: 83
Note OFF: Time 81960, Note Name: C5
Note ON: Time 81960, Note Name: C#5, Velocity: 70
Note OFF: Time 82020, Note Name: C#5
Note ON: Time 82020, Note Name: D#5, Velocity: 70
Note OFF: Time 82080, Note Name: D#5
Note ON: Time 82080, Note Name: G4, Velocity: 85
Note OFF: Time 82200, Note Name: G4
Note ON: Time 82320, Note Name: A4, Velocity: 80
Note OFF: Time 82380, Note Name: D#4
Note ON: Time 82380, Note Name: F#4, Velocity: 71
Note OFF: Time 82440, Note Name: F#4
Note OFF: Time 82440, Note Name: A4
Note ON: Time 82440, Note Name: F4, Velocity: 71
Note OFF: Time 82500, Note Name: F4
Note ON: Time 82500, Note Name: D#4, Velocity: 64
Note OFF: Time 82560, Note Name: D#4
Note ON: Time 82560, Note Name: C#4, Velocity: 81
Note ON: Time 82560, Note Name: A#4, Velocity: 81
Note OFF: Time 82800, Note Name: C#4
Note ON: Time 82800, Note Name: A#3, Velocity: 73
Note OFF: Time 83040, Note Name: A#3
Note OFF: Time 83040, Note Name: A#4
Note ON: Time 83040, Note Name: F#5, Velocity: 79
Note OFF: Time 83520, Note Name: F#5
Note ON: Time 83520, Note Name: G#4, Velocity: 72
Note ON: Time 83520, Note Name: F5, Velocity: 83
Note OFF: Time 83880, Note Name: F5
Note ON: Time 83880, Note Name: F#5, Velocity: 70
Note OFF: Time 83940, Note Name: F#5
Note ON: Time 83940, Note Name: G#5, Velocity: 70
Note OFF: Time 84000, Note Name: G#5
Note ON: Time 84000, Note Name: C5, Velocity: 85
Note OFF: Time 84120, Note Name: C5
Note ON: Time 84240, Note Name: D5, Velocity: 80
Note OFF: Time 84300, Note Name: G#4
Note ON: Time 84300, Note Name: B4, Velocity: 71
Note OFF: Time 84360, Note Name: B4
Note OFF: Time 84360, Note Name: D5
Note ON: Time 84360, Note Name: A#4, Velocity: 71
Note OFF: Time 84420, Note Name: A#4
Note ON: Time 84420, Note Name: G#4, Velocity: 64
Note OFF: Time 84480, Note Name: G#4
Note ON: Time 84480, Note Name: F#4, Velocity: 81
Note ON: Time 84480, Note Name: D#5, Velocity: 81
Note OFF: Time 84720, Note Name: F#4
Note ON: Time 84720, Note Name: D#4, Velocity: 73
Note OFF: Time 84960, Note Name: D#4
Note OFF: Time 84960, Note Name: D#5
Note ON: Time 85680, Note Name: B5, Velocity: 93
Note ON: Time 85680, Note Name: G#5, Velocity: 79
Note OFF: Time 86280, Note Name: G#5
Note OFF: Time 86280, Note Name: B5
Note ON: Time 86280, Note Name: F#5, Velocity: 68
Note ON: Time 86280, Note Name: A#5, Velocity: 80
Note ON: Time 86340, Note Name: F5, Velocity: 62
Note ON: Time 86340, Note Name: G#5, Velocity: 74
Note OFF: Time 86346, Note Name: A#5
Note OFF: Time 86346, Note Name: F#5
Note ON: Time 86400, Note Name: D#5, Velocity: 86
Note ON: Time 86400, Note Name: F#5, Velocity: 93
Note OFF: Time 86406, Note Name: F5
Note OFF: Time 86406, Note Name: G#5
Note OFF: Time 86520, Note Name: D#5
Note OFF: Time 86520, Note Name: F#5
Note ON: Time 86640, Note Name: A#5, Velocity: 93
Note ON: Time 86640, Note Name: F#5, Velocity: 79
Note OFF: Time 87240, Note Name: F#5
Note OFF: Time 87240, Note Name: A#5
Note ON: Time 87240, Note Name: F5, Velocity: 68
Note ON: Time 87240, Note Name: G#5, Velocity: 80
Note ON: Time 87300, Note Name: D#5, Velocity: 62
Note ON: Time 87300, Note Name: F#5, Velocity: 74
Note OFF: Time 87306, Note Name: G#5
Note OFF: Time 87306, Note Name: F5
Note ON: Time 87360, Note Name: F5, Velocity: 91
Note ON: Time 87360, Note Name: C#5, Velocity: 77
Note OFF: Time 87366, Note Name: D#5
Note OFF: Time 87366, Note Name: F#5
Note OFF: Time 87720, Note Name: F5
Note OFF: Time 87720, Note Name: C#5
Note ON: Time 87720, Note Name: D#5, Velocity: 64
Note ON: Time 87720, Note Name: F#5, Velocity: 77
Note ON: Time 87780, Note Name: F5, Velocity: 64
Note ON: Time 87780, Note Name: G#5, Velocity: 77
Note OFF: Time 87786, Note Name: F#5
Note OFF: Time 87786, Note Name: D#5
Note ON: Time 87840, Note Name: G#4, Velocity: 79
Note ON: Time 87840, Note Name: C5, Velocity: 93
Note OFF: Time 87846, Note Name: F5
Note OFF: Time 87846, Note Name: G#5
Note OFF: Time 87960, Note Name: G#4
Note OFF: Time 87960, Note Name: C5
Note ON: Time 88080, Note Name: A#4, Velocity: 74
Note ON: Time 88080, Note Name: C#5, Velocity: 88
Note OFF: Time 88200, Note Name: C#5
Note OFF: Time 88200, Note Name: A#4
Note ON: Time 88320, Note Name: D#5, Velocity: 91
Note ON: Time 88320, Note Name: C5, Velocity: 77
Note OFF: Time 88680, Note Name: C5
Note OFF: Time 88680, Note Name: D#5
Note ON: Time 88680, Note Name: C#5, Velocity: 64
Note ON: Time 88680, Note Name: F5, Velocity: 77
Note ON: Time 88740, Note Name: D#5, Velocity: 64
Note ON: Time 88740, Note Name: F#5, Velocity: 77
Note OFF: Time 88746, Note Name: F5
Note OFF: Time 88746, Note Name: C#5
Note ON: Time 88800, Note Name: G4, Velocity: 79
Note ON: Time 88800, Note Name: A#4, Velocity: 93
Note OFF: Time 88806, Note Name: D#5
Note OFF: Time 88806, Note Name: F#5
Note OFF: Time 88920, Note Name: G4
Note OFF: Time 88920, Note Name: A#4
Note ON: Time 89040, Note Name: A4, Velocity: 74
Note ON: Time 89040, Note Name: C5, Velocity: 88
Note OFF: Time 89160, Note Name: C5
Note OFF: Time 89160, Note Name: A4
Note ON: Time 89280, Note Name: C#5, Velocity: 91
Note ON: Time 89280, Note Name: A#4, Velocity: 77
Note OFF: Time 89640, Note Name: C#5
Note ON: Time 89640, Note Name: D#5, Velocity: 77
Note OFF: Time 89700, Note Name: D#5
Note ON: Time 89700, Note Name: F5, Velocity: 77
Note OFF: Time 89760, Note Name: F5
Note OFF: Time 89760, Note Name: A#4
Note ON: Time 89760, Note Name: F#5, Velocity: 91
Note ON: Time 89760, Note Name: A#4, Velocity: 77
Note OFF: Time 90120, Note Name: F#5
Note ON: Time 90120, Note Name: G#5, Velocity: 77
Note OFF: Time 90180, Note Name: G#5
Note ON: Time 90180, Note Name: A#5, Velocity: 77
Note OFF: Time 90240, Note Name: A#5
Note OFF: Time 90240, Note Name: A#4
Note ON: Time 90240, Note Name: B5, Velocity: 91
Note ON: Time 90240, Note Name: F#5, Velocity: 77
Note OFF: Time 90600, Note Name: B5
Note ON: Time 90600, Note Name: C#6, Velocity: 77
Note OFF: Time 90660, Note Name: C#6
Note ON: Time 90660, Note Name: D#6, Velocity: 77
Note OFF: Time 90720, Note Name: D#6
Note OFF: Time 90720, Note Name: F#5
Note ON: Time 90720, Note Name: F4, Velocity: 77
Note ON: Time 90720, Note Name: A#4, Velocity: 91
Note OFF: Time 90840, Note Name: A#4
Note OFF: Time 90840, Note Name: F4
Note ON: Time 90960, Note Name: D#4, Velocity: 74
Note ON: Time 90960, Note Name: A4, Velocity: 88
Note OFF: Time 91080, Note Name: A4
Note OFF: Time 91080, Note Name: D#4
Note ON: Time 91200, Note Name: C#4, Velocity: 75
Note ON: Time 91200, Note Name: A#4, Velocity: 90
Note OFF: Time 91320, Note Name: A#4
Note OFF: Time 91320, Note Name: C#4
Note ON: Time 91320, Note Name: F4, Velocity: 36
Note ON: Time 91380, Note Name: D#4, Velocity: 31
Note OFF: Time 91386, Note Name: F4
Note OFF: Time 91440, Note Name: D#4
Note ON: Time 91440, Note Name: F4, Velocity: 36
Note ON: Time 91500, Note Name: C#4, Velocity: 32
Note OFF: Time 91506, Note Name: F4
Note OFF: Time 91560, Note Name: C#4
Note ON: Time 91560, Note Name: F4, Velocity: 36
Note ON: Time 91620, Note Name: C4, Velocity: 31
Note OFF: Time 91626, Note Name: F4
Note OFF: Time 91680, Note Name: C4
Note ON: Time 91680, Note Name: F4, Velocity: 42
Note ON: Time 91740, Note Name: A#3, Velocity: 31
Note OFF: Time 91746, Note Name: F4
Note OFF: Time 91800, Note Name: A#3
Note ON: Time 91800, Note Name: F4, Velocity: 36
Note ON: Time 91860, Note Name: A3, Velocity: 31
Note OFF: Time 91866, Note Name: F4
Note OFF: Time 91920, Note Name: A3
Note ON: Time 91920, Note Name: F4, Velocity: 36
Note ON: Time 91980, Note Name: A#3, Velocity: 30
Note OFF: Time 91986, Note Name: F4
Note OFF: Time 92040, Note Name: A#3
Note ON: Time 92040, Note Name: F4, Velocity: 36
Note ON: Time 92100, Note Name: C4, Velocity: 31
Note OFF: Time 92106, Note Name: F4
Note OFF: Time 92160, Note Name: C4
Note ON: Time 92160, Note Name: F4, Velocity: 45
Note ON: Time 92220, Note Name: C#4, Velocity: 31
Note OFF: Time 92226, Note Name: F4
Note OFF: Time 92280, Note Name: C#4
Note ON: Time 92280, Note Name: A#4, Velocity: 36
Note ON: Time 92340, Note Name: G#4, Velocity: 31
Note OFF: Time 92346, Note Name: A#4
Note OFF: Time 92400, Note Name: G#4
Note ON: Time 92400, Note Name: A#4, Velocity: 36
Note ON: Time 92460, Note Name: F#4, Velocity: 32
Note OFF: Time 92466, Note Name: A#4
Note OFF: Time 92520, Note Name: F#4
Note ON: Time 92520, Note Name: A#4, Velocity: 36
Note ON: Time 92580, Note Name: F4, Velocity: 31
Note OFF: Time 92586, Note Name: A#4
Note OFF: Time 92640, Note Name: F4
Note ON: Time 92640, Note Name: A#4, Velocity: 42
Note ON: Time 92700, Note Name: D#4, Velocity: 31
Note OFF: Time 92706, Note Name: A#4
Note OFF: Time 92760, Note Name: D#4
Note ON: Time 92760, Note Name: A#4, Velocity: 36
Note ON: Time 92820, Note Name: D4, Velocity: 31
Note OFF: Time 92826, Note Name: A#4
Note OFF: Time 92880, Note Name: D4
Note ON: Time 92880, Note Name: A#4, Velocity: 36
Note ON: Time 92940, Note Name: D#4, Velocity: 30
Note OFF: Time 92946, Note Name: A#4
Note OFF: Time 93000, Note Name: D#4
Note ON: Time 93000, Note Name: A#4, Velocity: 36
Note ON: Time 93060, Note Name: F4, Velocity: 31
Note OFF: Time 93066, Note Name: A#4
Note OFF: Time 93120, Note Name: F4
Note ON: Time 93120, Note Name: A#4, Velocity: 49
Note ON: Time 93180, Note Name: F#4, Velocity: 34
Note OFF: Time 93186, Note Name: A#4
Note OFF: Time 93240, Note Name: F#4
Note ON: Time 93240, Note Name: A#4, Velocity: 39
Note ON: Time 93300, Note Name: F#4, Velocity: 34
Note OFF: Time 93306, Note Name: A#4
Note OFF: Time 93360, Note Name: F#4
Note ON: Time 93360, Note Name: C5, Velocity: 39
Note ON: Time 93420, Note Name: A#4, Velocity: 35
Note OFF: Time 93426, Note Name: C5
Note OFF: Time 93480, Note Name: A#4
Note ON: Time 93480, Note Name: C5, Velocity: 39
Note ON: Time 93540, Note Name: A#4, Velocity: 34
Note OFF: Time 93546, Note Name: C5
Note OFF: Time 93600, Note Name: A#4
Note ON: Time 93600, Note Name: C#5, Velocity: 46
Note ON: Time 93660, Note Name: A#4, Velocity: 34
Note OFF: Time 93666, Note Name: C#5
Note OFF: Time 93720, Note Name: A#4
Note ON: Time 93720, Note Name: C#5, Velocity: 39
Note ON: Time 93780, Note Name: A#4, Velocity: 34
Note OFF: Time 93786, Note Name: C#5
Note OFF: Time 93840, Note Name: A#4
Note ON: Time 93840, Note Name: D#5, Velocity: 39
Note ON: Time 93900, Note Name: A4, Velocity: 33
Note OFF: Time 93906, Note Name: D#5
Note OFF: Time 93960, Note Name: A4
Note ON: Time 93960, Note Name: D#5, Velocity: 39
Note ON: Time 94020, Note Name: A4, Velocity: 34
Note OFF: Time 94026, Note Name: D#5
Note OFF: Time 94080, Note Name: A4
Note ON: Time 94080, Note Name: A#4, Velocity: 74
Note OFF: Time 94200, Note Name: A#4
Note ON: Time 94200, Note Name: F5, Velocity: 48
Note ON: Time 94200, Note Name: F4, Velocity: 40
Note OFF: Time 94260, Note Name: F4
Note ON: Time 94260, Note Name: D#5, Velocity: 42
Note OFF: Time 94266, Note Name: F5
Note OFF: Time 94320, Note Name: D#5
Note ON: Time 94320, Note Name: F4, Velocity: 40
Note ON: Time 94320, Note Name: F5, Velocity: 48
Note OFF: Time 94380, Note Name: F4
Note ON: Time 94380, Note Name: C#5, Velocity: 43
Note OFF: Time 94386, Note Name: F5
Note OFF: Time 94440, Note Name: C#5
Note ON: Time 94440, Note Name: F4, Velocity: 40
Note ON: Time 94440, Note Name: F5, Velocity: 50
Note OFF: Time 94500, Note Name: F4
Note ON: Time 94500, Note Name: C5, Velocity: 45
Note OFF: Time 94506, Note Name: F5
Note OFF: Time 94560, Note Name: C5
Note ON: Time 94560, Note Name: F5, Velocity: 59
Note ON: Time 94560, Note Name: F4, Velocity: 49
Note OFF: Time 94620, Note Name: F4
Note ON: Time 94620, Note Name: A#4, Velocity: 45
Note OFF: Time 94626, Note Name: F5
Note OFF: Time 94680, Note Name: A#4
Note ON: Time 94680, Note Name: F4, Velocity: 44
Note ON: Time 94680, Note Name: F5, Velocity: 54
Note OFF: Time 94740, Note Name: F4
Note ON: Time 94740, Note Name: A4, Velocity: 45
Note OFF: Time 94746, Note Name: F5
Note OFF: Time 94800, Note Name: A4
Note ON: Time 94800, Note Name: F4, Velocity: 44
Note ON: Time 94800, Note Name: F5, Velocity: 54
Note OFF: Time 94860, Note Name: F4
Note ON: Time 94860, Note Name: A#4, Velocity: 45
Note OFF: Time 94866, Note Name: F5
Note OFF: Time 94920, Note Name: A#4
Note ON: Time 94920, Note Name: F5, Velocity: 56
Note ON: Time 94920, Note Name: F4, Velocity: 46
Note OFF: Time 94980, Note Name: F4
Note ON: Time 94980, Note Name: C5, Velocity: 47
Note OFF: Time 94986, Note Name: F5
Note OFF: Time 95040, Note Name: C5
Note ON: Time 95040, Note Name: F4, Velocity: 61
Note ON: Time 95040, Note Name: F5, Velocity: 72
Note OFF: Time 95100, Note Name: F4
Note ON: Time 95100, Note Name: C#5, Velocity: 48
Note OFF: Time 95106, Note Name: F5
Note OFF: Time 95160, Note Name: C#5
Note ON: Time 95160, Note Name: A#4, Velocity: 48
Note ON: Time 95160, Note Name: A#5, Velocity: 58
Note OFF: Time 95220, Note Name: A#4
Note ON: Time 95220, Note Name: G#5, Velocity: 50
Note OFF: Time 95226, Note Name: A#5
Note OFF: Time 95280, Note Name: G#5
Note ON: Time 95280, Note Name: A#4, Velocity: 50
Note ON: Time 95280, Note Name: A#5, Velocity: 59
Note OFF: Time 95340, Note Name: A#4
Note ON: Time 95340, Note Name: F#5, Velocity: 55
Note OFF: Time 95346, Note Name: A#5
Note OFF: Time 95400, Note Name: F#5
Note ON: Time 95400, Note Name: A#5, Velocity: 62
Note ON: Time 95400, Note Name: A#4, Velocity: 50
Note OFF: Time 95460, Note Name: A#4
Note ON: Time 95460, Note Name: F5, Velocity: 54
Note OFF: Time 95466, Note Name: A#5
Note OFF: Time 95520, Note Name: F5
Note ON: Time 95520, Note Name: A#4, Velocity: 62
Note ON: Time 95520, Note Name: A#5, Velocity: 73
Note OFF: Time 95580, Note Name: A#4
Note ON: Time 95580, Note Name: D#5, Velocity: 54
Note OFF: Time 95586, Note Name: A#5
Note OFF: Time 95640, Note Name: D#5
Note ON: Time 95640, Note Name: A#5, Velocity: 66
Note ON: Time 95640, Note Name: A#4, Velocity: 53
Note OFF: Time 95700, Note Name: A#4
Note ON: Time 95700, Note Name: D5, Velocity: 55
Note OFF: Time 95706, Note Name: A#5
Note OFF: Time 95760, Note Name: D5
Note ON: Time 95760, Note Name: A#4, Velocity: 53
Note ON: Time 95760, Note Name: A#5, Velocity: 66
Note OFF: Time 95820, Note Name: A#4
Note ON: Time 95820, Note Name: D#5, Velocity: 55
Note OFF: Time 95826, Note Name: A#5
Note OFF: Time 95880, Note Name: D#5
Note ON: Time 95880, Note Name: A#4, Velocity: 57
Note ON: Time 95880, Note Name: A#5, Velocity: 69
Note OFF: Time 95940, Note Name: A#4
Note ON: Time 95940, Note Name: F5, Velocity: 58
Note OFF: Time 95946, Note Name: A#5
Note OFF: Time 96000, Note Name: F5
Note ON: Time 96000, Note Name: A#5, Velocity: 86
Note ON: Time 96000, Note Name: A#4, Velocity: 70
Note OFF: Time 96060, Note Name: A#4
Note ON: Time 96060, Note Name: F#5, Velocity: 66
Note OFF: Time 96066, Note Name: A#5
Note OFF: Time 96120, Note Name: F#5
Note ON: Time 96120, Note Name: A#4, Velocity: 63
Note ON: Time 96120, Note Name: A#5, Velocity: 75
Note OFF: Time 96180, Note Name: A#4
Note ON: Time 96180, Note Name: F#5, Velocity: 68
Note OFF: Time 96186, Note Name: A#5
Note OFF: Time 96240, Note Name: F#5
Note ON: Time 96240, Note Name: C5, Velocity: 66
Note ON: Time 96240, Note Name: C6, Velocity: 78
Note OFF: Time 96300, Note Name: C5
Note ON: Time 96300, Note Name: A#5, Velocity: 71
Note OFF: Time 96306, Note Name: C6
Note OFF: Time 96360, Note Name: A#5
Note ON: Time 96360, Note Name: C6, Velocity: 78
Note ON: Time 96360, Note Name: C5, Velocity: 66
Note OFF: Time 96420, Note Name: C5
Note ON: Time 96420, Note Name: A#5, Velocity: 71
Note OFF: Time 96426, Note Name: C6
Note OFF: Time 96480, Note Name: A#5
Note ON: Time 96480, Note Name: C#6, Velocity: 97
Note ON: Time 96480, Note Name: C#5, Velocity: 82
Note OFF: Time 96540, Note Name: C#5
Note ON: Time 96540, Note Name: A#5, Velocity: 71
Note OFF: Time 96546, Note Name: C#6
Note OFF: Time 96600, Note Name: A#5
Note ON: Time 96600, Note Name: C#5, Velocity: 69
Note ON: Time 96600, Note Name: C#6, Velocity: 86
Note OFF: Time 96660, Note Name: C#5
Note ON: Time 96660, Note Name: A#5, Velocity: 74
Note OFF: Time 96666, Note Name: C#6
Note OFF: Time 96720, Note Name: A#5
Note ON: Time 96720, Note Name: D#5, Velocity: 73
Note ON: Time 96720, Note Name: D#6, Velocity: 86
Note OFF: Time 96780, Note Name: D#5
Note ON: Time 96780, Note Name: A5, Velocity: 73
Note OFF: Time 96786, Note Name: D#6
Note OFF: Time 96840, Note Name: A5
Note ON: Time 96840, Note Name: D#6, Velocity: 87
Note ON: Time 96840, Note Name: D#5, Velocity: 75
Note OFF: Time 96900, Note Name: D#5
Note ON: Time 96900, Note Name: A5, Velocity: 77
Note OFF: Time 96906, Note Name: D#6
Note OFF: Time 96960, Note Name: A5
Note ON: Time 96960, Note Name: A#5, Velocity: 100
Note OFF: Time 97080, Note Name: A#5
Note ON: Time 97080, Note Name: F6, Velocity: 97
Note OFF: Time 97320, Note Name: F6
Note ON: Time 97320, Note Name: F6, Velocity: 93
Note OFF: Time 97440, Note Name: F6
Note ON: Time 97440, Note Name: D#6, Velocity: 94
Note OFF: Time 97500, Note Name: D#6
Note ON: Time 97500, Note Name: C6, Velocity: 74
Note OFF: Time 97560, Note Name: C6
Note ON: Time 97560, Note Name: A5, Velocity: 81
Note OFF: Time 97620, Note Name: A5
Note ON: Time 97620, Note Name: F5, Velocity: 77
Note OFF: Time 97680, Note Name: F5
Note ON: Time 97680, Note Name: D#5, Velocity: 58
Note OFF: Time 97740, Note Name: D#5
Note ON: Time 97740, Note Name: D5, Velocity: 64
Note OFF: Time 97800, Note Name: D5
Note ON: Time 97800, Note Name: D#5, Velocity: 53
Note OFF: Time 97860, Note Name: D#5
Note ON: Time 97860, Note Name: C5, Velocity: 63
Note OFF: Time 97920, Note Name: C5
Note ON: Time 97920, Note Name: A#4, Velocity: 87
Note OFF: Time 98030, Note Name: A#4
Note ON: Time 98040, Note Name: F5, Velocity: 97
Note OFF: Time 98280, Note Name: F5
Note ON: Time 98280, Note Name: F5, Velocity: 93
Note OFF: Time 98400, Note Name: F5
Note ON: Time 98400, Note Name: D#5, Velocity: 94
Note OFF: Time 98460, Note Name: D#5
Note ON: Time 98460, Note Name: C5, Velocity: 73
Note OFF: Time 98520, Note Name: C5
Note ON: Time 98520, Note Name: A4, Velocity: 81
Note OFF: Time 98580, Note Name: A4
Note ON: Time 98580, Note Name: F4, Velocity: 74
Note OFF: Time 98640, Note Name: F4
Note ON: Time 98640, Note Name: D#4, Velocity: 58
Note OFF: Time 98700, Note Name: D#4
Note ON: Time 98700, Note Name: D4, Velocity: 64
Note OFF: Time 98760, Note Name: D4
Note ON: Time 98760, Note Name: D#4, Velocity: 53
Note OFF: Time 98820, Note Name: D#4
Note ON: Time 98820, Note Name: C4, Velocity: 63
Note OFF: Time 98880, Note Name: C4
Note ON: Time 98880, Note Name: A#3, Velocity: 87
Note OFF: Time 99120, Note Name: A#3
Note ON: Time 100800, Note Name: D#4, Velocity: 36
Note ON: Time 100800, Note Name: A#3, Velocity: 36
Note ON: Time 100800, Note Name: C#4, Velocity: 43
Note OFF: Time 101040, Note Name: C#4
Note OFF: Time 101040, Note Name: A#3
Note ON: Time 101040, Note Name: G#3, Velocity: 34
Note ON: Time 101040, Note Name: B3, Velocity: 40
Note OFF: Time 101280, Note Name: B3
Note OFF: Time 101280, Note Name: G#3
Note OFF: Time 101280, Note Name: D#4
Note ON: Time 102720, Note Name: D#4, Velocity: 30
Note ON: Time 102720, Note Name: C4, Velocity: 30
Note ON: Time 102720, Note Name: F#4, Velocity: 36
Note OFF: Time 102960, Note Name: F#4
Note ON: Time 102960, Note Name: F4, Velocity: 34
Note OFF: Time 103310, Note Name: F4
Note ON: Time 103320, Note Name: F4, Velocity: 34
Note ON: Time 103440, Note Name: F#4, Velocity: 34
Note OFF: Time 103452, Note Name: F4
Note ON: Time 103560, Note Name: F4, Velocity: 34
Note OFF: Time 103572, Note Name: F#4
Note OFF: Time 103680, Note Name: D#4
Note OFF: Time 103680, Note Name: C4
Note OFF: Time 103680, Note Name: F4
Note ON: Time 103680, Note Name: D#4, Velocity: 30
Note ON: Time 103680, Note Name: C4, Velocity: 30
Note ON: Time 103680, Note Name: F#4, Velocity: 36
Note OFF: Time 103920, Note Name: F#4
Note ON: Time 103920, Note Name: F4, Velocity: 34
Note OFF: Time 104270, Note Name: F4
Note ON: Time 104280, Note Name: F4, Velocity: 34
Note ON: Time 104400, Note Name: F#4, Velocity: 34
Note OFF: Time 104412, Note Name: F4
Note ON: Time 104520, Note Name: F4, Velocity: 34
Note OFF: Time 104532, Note Name: F#4
Note OFF: Time 104640, Note Name: D#4
Note OFF: Time 104640, Note Name: C4
Note OFF: Time 104640, Note Name: F4
Note ON: Time 104640, Note Name: D#4, Velocity: 30
Note ON: Time 104640, Note Name: C4, Velocity: 30
Note ON: Time 104640, Note Name: F#4, Velocity: 36
Note OFF: Time 104880, Note Name: C4
Note OFF: Time 104880, Note Name: D#4
Note OFF: Time 105000, Note Name: F#4
Note ON: Time 105000, Note Name: F4, Velocity: 34
Note OFF: Time 105120, Note Name: F4
Note ON: Time 105120, Note Name: F#4, Velocity: 36
Note OFF: Time 105480, Note Name: F#4
Note ON: Time 105480, Note Name: F4, Velocity: 29
Note OFF: Time 105600, Note Name: F4
Note ON: Time 105600, Note Name: F#4, Velocity: 34
Note OFF: Time 105660, Note Name: F#4
Note ON: Time 105660, Note Name: F4, Velocity: 29
Note OFF: Time 105720, Note Name: F4
Note ON: Time 105720, Note Name: F#4, Velocity: 34
Note OFF: Time 105780, Note Name: F#4
Note ON: Time 105780, Note Name: F4, Velocity: 29
Note OFF: Time 105840, Note Name: F4
Note ON: Time 105840, Note Name: F#4, Velocity: 34
Note OFF: Time 105900, Note Name: F#4
Note ON: Time 105900, Note Name: F4, Velocity: 29
Note OFF: Time 105960, Note Name: F4
Note ON: Time 105960, Note Name: F#4, Velocity: 34
Note OFF: Time 106020, Note Name: F#4
Note ON: Time 106020, Note Name: F4, Velocity: 30
Note OFF: Time 106080, Note Name: F4
Note ON: Time 106080, Note Name: F#4, Velocity: 34
Note OFF: Time 106140, Note Name: F#4
Note ON: Time 106140, Note Name: F4, Velocity: 30
Note OFF: Time 106200, Note Name: F4
Note ON: Time 106200, Note Name: F#4, Velocity: 34
Note OFF: Time 106260, Note Name: F#4
Note ON: Time 106260, Note Name: F4, Velocity: 29
Note OFF: Time 106320, Note Name: F4
Note ON: Time 106320, Note Name: F#4, Velocity: 34
Note OFF: Time 106380, Note Name: F#4
Note ON: Time 106380, Note Name: F4, Velocity: 29
Note OFF: Time 106440, Note Name: F4
Note ON: Time 106440, Note Name: F#4, Velocity: 34
Note OFF: Time 106500, Note Name: F#4
Note ON: Time 106500, Note Name: F4, Velocity: 31
Note OFF: Time 106560, Note Name: F4
Note ON: Time 106560, Note Name: G4, Velocity: 34
Note OFF: Time 106620, Note Name: G4
Note ON: Time 106620, Note Name: F4, Velocity: 29
Note OFF: Time 106680, Note Name: F4
Note ON: Time 106680, Note Name: G4, Velocity: 35
Note OFF: Time 106740, Note Name: G4
Note ON: Time 106740, Note Name: F4, Velocity: 30
Note OFF: Time 106800, Note Name: F4
Note ON: Time 106800, Note Name: G4, Velocity: 36
Note OFF: Time 106860, Note Name: G4
Note ON: Time 106860, Note Name: F4, Velocity: 31
Note OFF: Time 106920, Note Name: F4
Note ON: Time 106920, Note Name: G4, Velocity: 37
Note OFF: Time 106980, Note Name: G4
Note ON: Time 106980, Note Name: F4, Velocity: 33
Note OFF: Time 107040, Note Name: F4
Note ON: Time 107040, Note Name: G4, Velocity: 39
Note OFF: Time 107100, Note Name: G4
Note ON: Time 107100, Note Name: F4, Velocity: 34
Note OFF: Time 107160, Note Name: F4
Note ON: Time 107160, Note Name: G4, Velocity: 40
Note OFF: Time 107220, Note Name: G4
Note ON: Time 107220, Note Name: F4, Velocity: 34
Note OFF: Time 107280, Note Name: F4
Note ON: Time 107280, Note Name: G4, Velocity: 41
Note OFF: Time 107340, Note Name: G4
Note ON: Time 107340, Note Name: F4, Velocity: 35
Note OFF: Time 107400, Note Name: F4
Note ON: Time 107400, Note Name: G4, Velocity: 42
Note OFF: Time 107460, Note Name: G4
Note ON: Time 107460, Note Name: F4, Velocity: 39
Note OFF: Time 107520, Note Name: F4
Note ON: Time 107640, Note Name: F4, Velocity: 42
Note OFF: Time 107760, Note Name: F4
Note ON: Time 107760, Note Name: F5, Velocity: 48
Note OFF: Time 107880, Note Name: F5
Note ON: Time 107880, Note Name: F4, Velocity: 42
Note OFF: Time 108000, Note Name: F4
Note ON: Time 108120, Note Name: F4, Velocity: 42
Note OFF: Time 108240, Note Name: F4
Note ON: Time 108240, Note Name: F5, Velocity: 47
Note OFF: Time 108360, Note Name: F5
Note ON: Time 108360, Note Name: F4, Velocity: 42
Note OFF: Time 108480, Note Name: F4
Note ON: Time 108600, Note Name: F4, Velocity: 42
Note OFF: Time 108720, Note Name: F4
Note ON: Time 108720, Note Name: F5, Velocity: 48
Note OFF: Time 108840, Note Name: F5
Note ON: Time 108840, Note Name: F4, Velocity: 42
Note OFF: Time 108960, Note Name: F4
Note ON: Time 108960, Note Name: F5, Velocity: 48
Note OFF: Time 109080, Note Name: F5
Note ON: Time 109560, Note Name: F4, Velocity: 42
Note OFF: Time 109680, Note Name: F4
Note ON: Time 109680, Note Name: F5, Velocity: 48
Note OFF: Time 109800, Note Name: F5
Note ON: Time 109800, Note Name: F4, Velocity: 42
Note OFF: Time 109920, Note Name: F4
Note ON: Time 110040, Note Name: F4, Velocity: 42
Note OFF: Time 110160, Note Name: F4
Note ON: Time 110160, Note Name: F5, Velocity: 47
Note OFF: Time 110280, Note Name: F5
Note ON: Time 110280, Note Name: F4, Velocity: 42
Note OFF: Time 110400, Note Name: F4
Note ON: Time 110520, Note Name: F4, Velocity: 42
Note OFF: Time 110640, Note Name: F4
Note ON: Time 110640, Note Name: F5, Velocity: 48
Note OFF: Time 110760, Note Name: F5
Note ON: Time 110760, Note Name: F4, Velocity: 42
Note OFF: Time 110880, Note Name: F4
Note ON: Time 110880, Note Name: F5, Velocity: 48
Note OFF: Time 111120, Note Name: F5
Note ON: Time 111480, Note Name: F5, Velocity: 56
Note OFF: Time 111600, Note Name: F5
Note ON: Time 111600, Note Name: F6, Velocity: 67
Note OFF: Time 111840, Note Name: F6
Note ON: Time 111960, Note Name: F4, Velocity: 47
Note OFF: Time 112080, Note Name: F4
Note ON: Time 112080, Note Name: F5, Velocity: 54
Note OFF: Time 112320, Note Name: F5
Note ON: Time 112440, Note Name: F5, Velocity: 66
Note OFF: Time 112560, Note Name: F5
Note ON: Time 112560, Note Name: F6, Velocity: 78
Note OFF: Time 112920, Note Name: F6
Note ON: Time 112920, Note Name: F5, Velocity: 71
Note OFF: Time 113160, Note Name: F5
Note ON: Time 113160, Note Name: G5, Velocity: 67
Note OFF: Time 113220, Note Name: G5
Note ON: Time 113220, Note Name: A5, Velocity: 70
Note OFF: Time 113280, Note Name: A5
Note ON: Time 113280, Note Name: A#5, Velocity: 72
Note OFF: Time 113340, Note Name: A#5
Note ON: Time 113340, Note Name: C6, Velocity: 73
Note OFF: Time 113400, Note Name: C6
Note ON: Time 113400, Note Name: D6, Velocity: 75
Note OFF: Time 113460, Note Name: D6
Note ON: Time 113460, Note Name: C6, Velocity: 73
Note OFF: Time 113520, Note Name: C6
Note ON: Time 113520, Note Name: A#5, Velocity: 74
Note OFF: Time 113580, Note Name: A#5
Note ON: Time 113580, Note Name: A5, Velocity: 70
Note OFF: Time 113640, Note Name: A5
Note ON: Time 113640, Note Name: G5, Velocity: 71
Note OFF: Time 113700, Note Name: G5
Note ON: Time 113700, Note Name: F5, Velocity: 69
Note OFF: Time 113760, Note Name: F5
Note ON: Time 113760, Note Name: E5, Velocity: 68
Note OFF: Time 113820, Note Name: E5
Note ON: Time 113820, Note Name: D5, Velocity: 66
Note OFF: Time 113880, Note Name: D5
Note ON: Time 113880, Note Name: C5, Velocity: 63
Note OFF: Time 113940, Note Name: C5
Note ON: Time 113940, Note Name: A#4, Velocity: 62
Note OFF: Time 114000, Note Name: A#4
Note ON: Time 114000, Note Name: A4, Velocity: 60
Note OFF: Time 114060, Note Name: A4
Note ON: Time 114060, Note Name: G4, Velocity: 58
Note OFF: Time 114120, Note Name: G4
Note ON: Time 114120, Note Name: F4, Velocity: 57
Note OFF: Time 114180, Note Name: F4
Note ON: Time 114180, Note Name: E4, Velocity: 55
Note OFF: Time 114240, Note Name: E4
Note ON: Time 114240, Note Name: G4, Velocity: 54
Note OFF: Time 114300, Note Name: G4
Note ON: Time 114300, Note Name: F4, Velocity: 49
Note OFF: Time 114360, Note Name: F4
Note ON: Time 114360, Note Name: A4, Velocity: 54
Note OFF: Time 114420, Note Name: A4
Note ON: Time 114420, Note Name: G4, Velocity: 48
Note OFF: Time 114480, Note Name: G4
Note ON: Time 114480, Note Name: A#4, Velocity: 54
Note OFF: Time 114540, Note Name: A#4
Note ON: Time 114540, Note Name: A4, Velocity: 50
Note OFF: Time 114600, Note Name: A4
Note ON: Time 114600, Note Name: C5, Velocity: 54
Note OFF: Time 114660, Note Name: C5
Note ON: Time 114660, Note Name: A#4, Velocity: 49
Note OFF: Time 114720, Note Name: A#4
Note ON: Time 114720, Note Name: D5, Velocity: 54
Note OFF: Time 114780, Note Name: D5
Note ON: Time 114780, Note Name: C5, Velocity: 48
Note OFF: Time 114840, Note Name: C5
Note ON: Time 114840, Note Name: D#5, Velocity: 54
Note OFF: Time 114900, Note Name: D#5
Note ON: Time 114900, Note Name: D5, Velocity: 49
Note OFF: Time 114960, Note Name: D5
Note ON: Time 114960, Note Name: F5, Velocity: 54
Note OFF: Time 115020, Note Name: F5
Note ON: Time 115020, Note Name: E5, Velocity: 48
Note OFF: Time 115080, Note Name: E5
Note ON: Time 115080, Note Name: G5, Velocity: 53
Note OFF: Time 115140, Note Name: G5
Note ON: Time 115140, Note Name: F5, Velocity: 49
Note OFF: Time 115200, Note Name: F5
Note ON: Time 115200, Note Name: D#4, Velocity: 42
Note ON: Time 115200, Note Name: D#5, Velocity: 50
Note OFF: Time 115320, Note Name: D#5
Note OFF: Time 115320, Note Name: D#4
Note ON: Time 115320, Note Name: D4, Velocity: 39
Note ON: Time 115320, Note Name: D5, Velocity: 46
Note OFF: Time 115440, Note Name: D5
Note OFF: Time 115440, Note Name: D4
Note ON: Time 115440, Note Name: C4, Velocity: 39
Note ON: Time 115440, Note Name: C5, Velocity: 46
Note OFF: Time 115560, Note Name: C5
Note OFF: Time 115560, Note Name: C4
Note ON: Time 115560, Note Name: A#3, Velocity: 39
Note ON: Time 115560, Note Name: A#4, Velocity: 46
Note OFF: Time 115680, Note Name: A#4
Note OFF: Time 115680, Note Name: A#3
Note ON: Time 115680, Note Name: A3, Velocity: 42
Note ON: Time 115680, Note Name: A4, Velocity: 42
Note OFF: Time 115920, Note Name: A4
Note OFF: Time 115920, Note Name: A3
Note ON: Time 115920, Note Name: A#3, Velocity: 39
Note ON: Time 115920, Note Name: A#4, Velocity: 47
Note OFF: Time 116160, Note Name: A#4
Note OFF: Time 116160, Note Name: A#3
Note ON: Time 116160, Note Name: B3, Velocity: 45
Note ON: Time 116160, Note Name: B4, Velocity: 53
Note OFF: Time 116400, Note Name: B4
Note OFF: Time 116400, Note Name: B3
Note ON: Time 116400, Note Name: C4, Velocity: 41
Note ON: Time 116400, Note Name: C5, Velocity: 49
Note OFF: Time 116760, Note Name: C5
Note OFF: Time 116760, Note Name: C4
Note ON: Time 116760, Note Name: F#4, Velocity: 48
Note OFF: Time 116820, Note Name: F#4
Note ON: Time 116820, Note Name: F#5, Velocity: 45
Note OFF: Time 116880, Note Name: F#5
Note ON: Time 116880, Note Name: A4, Velocity: 43
Note OFF: Time 116940, Note Name: A4
Note ON: Time 116940, Note Name: A5, Velocity: 46
Note OFF: Time 117000, Note Name: A5
Note ON: Time 117000, Note Name: G4, Velocity: 53
Note OFF: Time 117060, Note Name: G4
Note ON: Time 117060, Note Name: G5, Velocity: 46
Note OFF: Time 117120, Note Name: G5
Note ON: Time 117120, Note Name: F4, Velocity: 52
Note OFF: Time 117180, Note Name: F4
Note ON: Time 117180, Note Name: F5, Velocity: 47
Note OFF: Time 117240, Note Name: F5
Note ON: Time 117240, Note Name: D#4, Velocity: 51
Note OFF: Time 117300, Note Name: D#4
Note ON: Time 117300, Note Name: D#5, Velocity: 46
Note OFF: Time 117360, Note Name: D#5
Note ON: Time 117360, Note Name: D4, Velocity: 51
Note OFF: Time 117420, Note Name: D4
Note ON: Time 117420, Note Name: D5, Velocity: 46
Note OFF: Time 117480, Note Name: D5
Note ON: Time 117480, Note Name: C4, Velocity: 51
Note OFF: Time 117540, Note Name: C4
Note ON: Time 117540, Note Name: C5, Velocity: 46
Note OFF: Time 117600, Note Name: C5
Note ON: Time 117600, Note Name: A3, Velocity: 50
Note OFF: Time 117660, Note Name: A3
Note ON: Time 117660, Note Name: A4, Velocity: 42
Note OFF: Time 117720, Note Name: A4
Note ON: Time 117720, Note Name: A#3, Velocity: 47
Note OFF: Time 117780, Note Name: A#3
Note ON: Time 117780, Note Name: A#4, Velocity: 42
Note OFF: Time 117840, Note Name: A#4
Note ON: Time 117840, Note Name: B3, Velocity: 49
Note OFF: Time 117900, Note Name: B3
Note ON: Time 117900, Note Name: B4, Velocity: 42
Note OFF: Time 117960, Note Name: B4
Note ON: Time 117960, Note Name: C4, Velocity: 49
Note OFF: Time 118020, Note Name: C4
Note ON: Time 118020, Note Name: C5, Velocity: 42
Note OFF: Time 118080, Note Name: C5
Note ON: Time 118080, Note Name: C#4, Velocity: 45
Note ON: Time 118080, Note Name: C#5, Velocity: 53
Note OFF: Time 118320, Note Name: C#5
Note OFF: Time 118320, Note Name: C#4
Note ON: Time 118320, Note Name: D4, Velocity: 41
Note ON: Time 118320, Note Name: D5, Velocity: 49
Note OFF: Time 118680, Note Name: D5
Note OFF: Time 118680, Note Name: D4
Note ON: Time 118680, Note Name: F4, Velocity: 56
Note OFF: Time 118740, Note Name: F4
Note ON: Time 118740, Note Name: F5, Velocity: 52
Note OFF: Time 118800, Note Name: F5
Note ON: Time 118800, Note Name: G4, Velocity: 64
Note OFF: Time 118860, Note Name: G4
Note ON: Time 118860, Note Name: G5, Velocity: 58
Note OFF: Time 118920, Note Name: G5
Note ON: Time 118920, Note Name: D4, Velocity: 57
Note OFF: Time 118980, Note Name: D4
Note ON: Time 118980, Note Name: D5, Velocity: 52
Note OFF: Time 119040, Note Name: D5
Note ON: Time 119040, Note Name: F4, Velocity: 62
Note OFF: Time 119100, Note Name: F4
Note ON: Time 119100, Note Name: F5, Velocity: 59
Note OFF: Time 119160, Note Name: F5
Note ON: Time 119160, Note Name: D#4, Velocity: 58
Note OFF: Time 119220, Note Name: D#4
Note ON: Time 119220, Note Name: D#5, Velocity: 53
Note OFF: Time 119280, Note Name: D#5
Note ON: Time 119280, Note Name: F4, Velocity: 64
Note OFF: Time 119340, Note Name: F4
Note ON: Time 119340, Note Name: F5, Velocity: 58
Note OFF: Time 119400, Note Name: F5
Note ON: Time 119400, Note Name: C4, Velocity: 58
Note OFF: Time 119460, Note Name: C4
Note ON: Time 119460, Note Name: C5, Velocity: 51
Note OFF: Time 119520, Note Name: C5
Note ON: Time 119520, Note Name: D#4, Velocity: 64
Note OFF: Time 119580, Note Name: D#4
Note ON: Time 119580, Note Name: D#5, Velocity: 59
Note OFF: Time 119640, Note Name: D#5
Note ON: Time 119640, Note Name: D4, Velocity: 59
Note OFF: Time 119700, Note Name: D4
Note ON: Time 119700, Note Name: D5, Velocity: 53
Note OFF: Time 119760, Note Name: D5
Note ON: Time 119760, Note Name: G4, Velocity: 67
Note OFF: Time 119820, Note Name: G4
Note ON: Time 119820, Note Name: G5, Velocity: 60
Note OFF: Time 119880, Note Name: G5
Note ON: Time 119880, Note Name: D4, Velocity: 59
Note OFF: Time 119940, Note Name: D4
Note ON: Time 119940, Note Name: D5, Velocity: 55
Note OFF: Time 120000, Note Name: D5
Note ON: Time 120000, Note Name: F4, Velocity: 71
Note OFF: Time 120060, Note Name: F4
Note ON: Time 120060, Note Name: F5, Velocity: 67
Note OFF: Time 120120, Note Name: F5
Note ON: Time 120120, Note Name: D#4, Velocity: 64
Note OFF: Time 120180, Note Name: D#4
Note ON: Time 120180, Note Name: D#5, Velocity: 59
Note OFF: Time 120240, Note Name: D#5
Note ON: Time 120240, Note Name: F4, Velocity: 72
Note OFF: Time 120300, Note Name: F4
Note ON: Time 120300, Note Name: F5, Velocity: 67
Note OFF: Time 120360, Note Name: F5
Note ON: Time 120360, Note Name: C4, Velocity: 63
Note OFF: Time 120420, Note Name: C4
Note ON: Time 120420, Note Name: C5, Velocity: 60
Note OFF: Time 120480, Note Name: C5
Note ON: Time 120480, Note Name: D#4, Velocity: 71
Note OFF: Time 120540, Note Name: D#4
Note ON: Time 120540, Note Name: D#5, Velocity: 64
Note OFF: Time 120600, Note Name: D#5
Note ON: Time 120600, Note Name: D4, Velocity: 64
Note OFF: Time 120660, Note Name: D4
Note ON: Time 120660, Note Name: D5, Velocity: 57
Note OFF: Time 120720, Note Name: D5
Note ON: Time 120720, Note Name: D#4, Velocity: 67
Note OFF: Time 120780, Note Name: D#4
Note ON: Time 120780, Note Name: D#5, Velocity: 58
Note OFF: Time 120840, Note Name: D#5
Note ON: Time 120840, Note Name: F4, Velocity: 71
Note OFF: Time 120900, Note Name: F4
Note ON: Time 120900, Note Name: F5, Velocity: 64
Note OFF: Time 120960, Note Name: F5
Note ON: Time 120960, Note Name: F#4, Velocity: 76
Note OFF: Time 121020, Note Name: F#4
Note ON: Time 121020, Note Name: F#5, Velocity: 69
Note OFF: Time 121080, Note Name: F#5
Note ON: Time 121080, Note Name: G4, Velocity: 76
Note OFF: Time 121140, Note Name: G4
Note ON: Time 121140, Note Name: G5, Velocity: 69
Note OFF: Time 121200, Note Name: G5
Note ON: Time 121200, Note Name: A4, Velocity: 76
Note OFF: Time 121260, Note Name: A4
Note ON: Time 121260, Note Name: A5, Velocity: 66
Note OFF: Time 121320, Note Name: A5
Note ON: Time 121320, Note Name: A#4, Velocity: 78
Note OFF: Time 121380, Note Name: A#4
Note ON: Time 121380, Note Name: A#5, Velocity: 70
Note OFF: Time 121440, Note Name: A#5
Note ON: Time 121440, Note Name: A#3, Velocity: 71
Note ON: Time 121440, Note Name: A#4, Velocity: 71
Note OFF: Time 121680, Note Name: A#4
Note OFF: Time 121680, Note Name: A#3
Note ON: Time 121680, Note Name: C4, Velocity: 58
Note ON: Time 121680, Note Name: C5, Velocity: 69
Note OFF: Time 121920, Note Name: C5
Note OFF: Time 121920, Note Name: C4
Note ON: Time 121920, Note Name: C#4, Velocity: 41
Note ON: Time 121920, Note Name: C#5, Velocity: 49
Note OFF: Time 122160, Note Name: C#5
Note OFF: Time 122160, Note Name: C#4
Note ON: Time 122160, Note Name: D4, Velocity: 38
Note ON: Time 122160, Note Name: D5, Velocity: 45
Note OFF: Time 122460, Note Name: D5
Note OFF: Time 122460, Note Name: D4
Note ON: Time 122460, Note Name: A#4, Velocity: 59
Note OFF: Time 122520, Note Name: A#4
Note ON: Time 122520, Note Name: A4, Velocity: 61
Note OFF: Time 122580, Note Name: A4
Note ON: Time 122580, Note Name: A#4, Velocity: 62
Note OFF: Time 122640, Note Name: A#4
Note ON: Time 122640, Note Name: B4, Velocity: 62
Note OFF: Time 122700, Note Name: B4
Note ON: Time 122700, Note Name: C5, Velocity: 64
Note OFF: Time 122760, Note Name: C5
Note ON: Time 122760, Note Name: C#5, Velocity: 65
Note OFF: Time 122820, Note Name: C#5
Note ON: Time 122820, Note Name: D5, Velocity: 67
Note OFF: Time 122880, Note Name: D5
Note ON: Time 122880, Note Name: D#5, Velocity: 69
Note OFF: Time 122940, Note Name: D#5
Note ON: Time 122940, Note Name: E5, Velocity: 70
Note OFF: Time 123000, Note Name: E5
Note ON: Time 123000, Note Name: F5, Velocity: 71
Note OFF: Time 123060, Note Name: F5
Note ON: Time 123060, Note Name: F#5, Velocity: 73
Note OFF: Time 123120, Note Name: F#5
Note ON: Time 123120, Note Name: G5, Velocity: 74
Note OFF: Time 123180, Note Name: G5
Note ON: Time 123180, Note Name: G#5, Velocity: 76
Note OFF: Time 123240, Note Name: G#5
Note ON: Time 123240, Note Name: A5, Velocity: 77
Note OFF: Time 123300, Note Name: A5
Note ON: Time 123300, Note Name: A#5, Velocity: 78
Note OFF: Time 123360, Note Name: A#5
Note ON: Time 123360, Note Name: A#4, Velocity: 53
Note OFF: Time 123408, Note Name: A#4
Note ON: Time 123408, Note Name: C5, Velocity: 48
Note OFF: Time 123456, Note Name: C5
Note ON: Time 123456, Note Name: A#4, Velocity: 45
Note OFF: Time 123504, Note Name: A#4
Note ON: Time 123504, Note Name: A4, Velocity: 45
Note OFF: Time 123552, Note Name: A4
Note ON: Time 123552, Note Name: A#4, Velocity: 45
Note OFF: Time 123600, Note Name: A#4
Note ON: Time 123600, Note Name: D#4, Velocity: 42
Note ON: Time 123600, Note Name: D5, Velocity: 52
Note OFF: Time 123780, Note Name: D5
Note ON: Time 123780, Note Name: C5, Velocity: 41
Note OFF: Time 123840, Note Name: C5
Note OFF: Time 123840, Note Name: D#4
Note ON: Time 123840, Note Name: D4, Velocity: 42
Note ON: Time 123840, Note Name: A#4, Velocity: 50
Note OFF: Time 124080, Note Name: A#4
Note OFF: Time 124080, Note Name: D4
Note ON: Time 124320, Note Name: F4, Velocity: 67
Note ON: Time 124320, Note Name: D5, Velocity: 80
Note OFF: Time 124800, Note Name: D5
Note OFF: Time 124800, Note Name: F4
Note ON: Time 124800, Note Name: G4, Velocity: 45
Note ON: Time 124800, Note Name: C5, Velocity: 53
Note OFF: Time 124852, Note Name: C5
Note ON: Time 124852, Note Name: D5, Velocity: 50
Note OFF: Time 124903, Note Name: D5
Note ON: Time 124903, Note Name: C5, Velocity: 53
Note OFF: Time 124955, Note Name: C5
Note ON: Time 124955, Note Name: D5, Velocity: 50
Note OFF: Time 125007, Note Name: D5
Note ON: Time 125007, Note Name: C5, Velocity: 53
Note OFF: Time 125058, Note Name: C5
Note ON: Time 125058, Note Name: B4, Velocity: 49
Note OFF: Time 125110, Note Name: B4
Note ON: Time 125110, Note Name: C5, Velocity: 49
Note ON: Time 125160, Note Name: D5, Velocity: 49
Note OFF: Time 125161, Note Name: C5
Note OFF: Time 125220, Note Name: D5
Note ON: Time 125220, Note Name: D#5, Velocity: 50
Note OFF: Time 125280, Note Name: D#5
Note OFF: Time 125280, Note Name: G4
Note ON: Time 125280, Note Name: G4, Velocity: 57
Note OFF: Time 125520, Note Name: G4
Note ON: Time 125520, Note Name: D#4, Velocity: 45
Note ON: Time 125520, Note Name: A4, Velocity: 54
Note OFF: Time 125760, Note Name: A4
Note OFF: Time 125760, Note Name: D#4
Note ON: Time 125760, Note Name: D4, Velocity: 47
Note ON: Time 125760, Note Name: A#4, Velocity: 56
Note OFF: Time 126000, Note Name: A#4
Note ON: Time 126000, Note Name: F4, Velocity: 46
Note OFF: Time 126120, Note Name: F4
Note OFF: Time 126230, Note Name: D4
Note ON: Time 126240, Note Name: F4, Velocity: 67
Note ON: Time 126240, Note Name: D5, Velocity: 80
Note OFF: Time 126720, Note Name: D5
Note OFF: Time 126720, Note Name: F4
Note ON: Time 126720, Note Name: G4, Velocity: 45
Note ON: Time 126720, Note Name: C5, Velocity: 63
Note OFF: Time 126840, Note Name: C5
Note ON: Time 126840, Note Name: D5, Velocity: 56
Note OFF: Time 126880, Note Name: D5
Note ON: Time 126880, Note Name: C5, Velocity: 56
Note OFF: Time 126920, Note Name: C5
Note ON: Time 126920, Note Name: B4, Velocity: 56
Note OFF: Time 126960, Note Name: B4
Note ON: Time 126960, Note Name: C5, Velocity: 63
Note OFF: Time 127140, Note Name: C5
Note ON: Time 127140, Note Name: D5, Velocity: 58
Note OFF: Time 127200, Note Name: D5
Note OFF: Time 127200, Note Name: G4
Note ON: Time 127200, Note Name: E4, Velocity: 45
Note ON: Time 127200, Note Name: A#4, Velocity: 63
Note OFF: Time 127320, Note Name: A#4
Note ON: Time 127320, Note Name: C5, Velocity: 56
Note OFF: Time 127360, Note Name: C5
Note ON: Time 127360, Note Name: A#4, Velocity: 56
Note OFF: Time 127400, Note Name: A#4
Note ON: Time 127400, Note Name: A4, Velocity: 56
Note OFF: Time 127440, Note Name: A4
Note ON: Time 127440, Note Name: A#4, Velocity: 63
Note OFF: Time 127620, Note Name: A#4
Note ON: Time 127620, Note Name: C5, Velocity: 58
Note OFF: Time 127680, Note Name: C5
Note OFF: Time 127680, Note Name: E4
Note ON: Time 127680, Note Name: F4, Velocity: 47
Note ON: Time 127680, Note Name: A#4, Velocity: 56
Note OFF: Time 127920, Note Name: A#4
Note ON: Time 127920, Note Name: A4, Velocity: 46
Note OFF: Time 128040, Note Name: A4
Note OFF: Time 128160, Note Name: F4
Note ON: Time 128160, Note Name: G4, Velocity: 67
Note ON: Time 128160, Note Name: G5, Velocity: 80
Note OFF: Time 128640, Note Name: G5
Note OFF: Time 128640, Note Name: G4
Note ON: Time 128640, Note Name: C5, Velocity: 45
Note ON: Time 128640, Note Name: F5, Velocity: 63
Note OFF: Time 128760, Note Name: F5
Note ON: Time 128760, Note Name: G5, Velocity: 56
Note OFF: Time 128800, Note Name: G5
Note ON: Time 128800, Note Name: F5, Velocity: 56
Note OFF: Time 128840, Note Name: F5
Note ON: Time 128840, Note Name: E5, Velocity: 56
Note OFF: Time 128880, Note Name: E5
Note ON: Time 128880, Note Name: F5, Velocity: 63
Note OFF: Time 129060, Note Name: F5
Note ON: Time 129060, Note Name: G5, Velocity: 58
Note OFF: Time 129120, Note Name: G5
Note OFF: Time 129120, Note Name: C5
Note ON: Time 129120, Note Name: A4, Velocity: 45
Note ON: Time 129120, Note Name: D#5, Velocity: 63
Note OFF: Time 129240, Note Name: D#5
Note ON: Time 129240, Note Name: F5, Velocity: 56
Note OFF: Time 129280, Note Name: F5
Note ON: Time 129280, Note Name: D#5, Velocity: 56
Note OFF: Time 129320, Note Name: D#5
Note ON: Time 129320, Note Name: D5, Velocity: 56
Note OFF: Time 129360, Note Name: D5
Note ON: Time 129360, Note Name: D#5, Velocity: 63
Note OFF: Time 129540, Note Name: D#5
Note ON: Time 129540, Note Name: F5, Velocity: 58
Note OFF: Time 129600, Note Name: F5
Note OFF: Time 129600, Note Name: A4
Note ON: Time 129600, Note Name: A#4, Velocity: 47
Note ON: Time 129600, Note Name: D#5, Velocity: 56
Note OFF: Time 129840, Note Name: D#5
Note ON: Time 129840, Note Name: D5, Velocity: 46
Note OFF: Time 129960, Note Name: D5
Note OFF: Time 130070, Note Name: A#4
Note ON: Time 130320, Note Name: D5, Velocity: 54
Note ON: Time 130380, Note Name: A#5, Velocity: 69
Note ON: Time 130440, Note Name: D6, Velocity: 73
Note OFF: Time 130800, Note Name: D6
Note OFF: Time 130800, Note Name: A#5
Note OFF: Time 130800, Note Name: D5
Note ON: Time 130800, Note Name: D5, Velocity: 61
Note ON: Time 130860, Note Name: A#5, Velocity: 73
Note ON: Time 130920, Note Name: D6, Velocity: 78
Note OFF: Time 131280, Note Name: D6
Note OFF: Time 131280, Note Name: A#5
Note OFF: Time 131280, Note Name: D5
Note ON: Time 131280, Note Name: D5, Velocity: 65
Note ON: Time 131340, Note Name: A#5, Velocity: 76
Note ON: Time 131400, Note Name: D6, Velocity: 81
Note OFF: Time 131760, Note Name: D6
Note OFF: Time 131760, Note Name: A#5
Note OFF: Time 131760, Note Name: D5
Note ON: Time 131760, Note Name: D5, Velocity: 68
Note ON: Time 131820, Note Name: A#5, Velocity: 80
Note ON: Time 131880, Note Name: D6, Velocity: 86
Note OFF: Time 132000, Note Name: D6
Note OFF: Time 132000, Note Name: A#5
Note OFF: Time 132000, Note Name: D5
Note ON: Time 132240, Note Name: D6, Velocity: 90
Note ON: Time 132240, Note Name: D5, Velocity: 75
Note OFF: Time 132720, Note Name: D5
Note OFF: Time 132720, Note Name: D6
Note ON: Time 132720, Note Name: C6, Velocity: 68
Note ON: Time 132720, Note Name: C5, Velocity: 57
Note OFF: Time 132840, Note Name: C5
Note OFF: Time 132840, Note Name: C6
Note ON: Time 133200, Note Name: A#5, Velocity: 90
Note ON: Time 133200, Note Name: A#4, Velocity: 75
Note OFF: Time 133680, Note Name: A#4
Note OFF: Time 133680, Note Name: A#5
Note ON: Time 133680, Note Name: A5, Velocity: 68
Note ON: Time 133680, Note Name: A4, Velocity: 57
Note OFF: Time 133800, Note Name: A4
Note OFF: Time 133800, Note Name: A5
Note ON: Time 134160, Note Name: G5, Velocity: 90
Note ON: Time 134160, Note Name: G4, Velocity: 75
Note OFF: Time 134520, Note Name: G4
Note OFF: Time 134520, Note Name: G5
Note ON: Time 134520, Note Name: F4, Velocity: 57
Note ON: Time 134520, Note Name: F5, Velocity: 68
Note OFF: Time 134760, Note Name: F5
Note OFF: Time 134760, Note Name: F4
Note ON: Time 134760, Note Name: D#4, Velocity: 66
Note ON: Time 134760, Note Name: D#5, Velocity: 66
Note OFF: Time 135000, Note Name: D#5
Note OFF: Time 135000, Note Name: D#4
Note ON: Time 135000, Note Name: D4, Velocity: 57
Note ON: Time 135000, Note Name: D5, Velocity: 68
Note OFF: Time 135240, Note Name: D5
Note OFF: Time 135240, Note Name: D4
Note ON: Time 135240, Note Name: C4, Velocity: 59
Note ON: Time 135240, Note Name: C5, Velocity: 63
Note OFF: Time 135360, Note Name: C5
Note OFF: Time 135360, Note Name: C4
Note ON: Time 135360, Note Name: C#4, Velocity: 61
Note ON: Time 135360, Note Name: C#5, Velocity: 72
Note OFF: Time 135600, Note Name: C#5
Note OFF: Time 135600, Note Name: C#4
Note ON: Time 135600, Note Name: D4, Velocity: 56
Note ON: Time 135600, Note Name: D5, Velocity: 66
Note OFF: Time 135720, Note Name: D5
Note OFF: Time 135720, Note Name: D4
Note ON: Time 135840, Note Name: D4, Velocity: 62
Note OFF: Time 136080, Note Name: D4
Note ON: Time 136080, Note Name: D5, Velocity: 57
Note ON: Time 136080, Note Name: E4, Velocity: 53
Note OFF: Time 136560, Note Name: E4
Note OFF: Time 136560, Note Name: D5
Note ON: Time 136560, Note Name: F4, Velocity: 68
Note ON: Time 136560, Note Name: C5, Velocity: 57
Note OFF: Time 136680, Note Name: C5
Note OFF: Time 136680, Note Name: F4
Note ON: Time 136800, Note Name: A#3, Velocity: 62
Note OFF: Time 137040, Note Name: A#3
Note ON: Time 137040, Note Name: A#4, Velocity: 57
Note ON: Time 137040, Note Name: C#4, Velocity: 53
Note OFF: Time 137520, Note Name: C#4
Note OFF: Time 137520, Note Name: A#4
Note ON: Time 137520, Note Name: D4, Velocity: 68
Note ON: Time 137520, Note Name: A4, Velocity: 57
Note OFF: Time 137640, Note Name: A4
Note OFF: Time 137640, Note Name: D4
Note ON: Time 137760, Note Name: G3, Velocity: 62
Note ON: Time 137760, Note Name: G4, Velocity: 62
Note OFF: Time 138000, Note Name: G4
Note OFF: Time 138000, Note Name: G3
Note ON: Time 138000, Note Name: A3, Velocity: 59
Note ON: Time 138000, Note Name: F#4, Velocity: 53
Note OFF: Time 138240, Note Name: A3
Note ON: Time 138240, Note Name: A#3, Velocity: 59
Note ON: Time 138360, Note Name: F4, Velocity: 69
Note OFF: Time 138480, Note Name: A#3
Note OFF: Time 138480, Note Name: F#4
Note ON: Time 138480, Note Name: G3, Velocity: 69
Note ON: Time 138480, Note Name: C4, Velocity: 69
Note OFF: Time 138600, Note Name: F4
Note ON: Time 138600, Note Name: D#4, Velocity: 77
Note OFF: Time 138720, Note Name: C4
Note OFF: Time 138720, Note Name: G3
Note OFF: Time 138840, Note Name: D#4
Note ON: Time 138840, Note Name: D4, Velocity: 84
Note OFF: Time 139080, Note Name: D4
Note ON: Time 139080, Note Name: C4, Velocity: 92
Note OFF: Time 139200, Note Name: C4
Note ON: Time 139200, Note Name: A#3, Velocity: 92
Note OFF: Time 139260, Note Name: A#3
Note ON: Time 139260, Note Name: D3, Velocity: 50
Note OFF: Time 139320, Note Name: D3
Note ON: Time 139320, Note Name: F3, Velocity: 50
Note OFF: Time 139380, Note Name: F3
Note ON: Time 139380, Note Name: A#3, Velocity: 50
Note OFF: Time 139440, Note Name: A#3
Note ON: Time 139440, Note Name: D4, Velocity: 53
Note OFF: Time 139500, Note Name: D4
Note ON: Time 139500, Note Name: F4, Velocity: 50
Note OFF: Time 139560, Note Name: F4
Note ON: Time 139560, Note Name: A#4, Velocity: 50
Note OFF: Time 139620, Note Name: A#4
Note ON: Time 139620, Note Name: D5, Velocity: 50
Note OFF: Time 139680, Note Name: D5
Note ON: Time 139680, Note Name: F4, Velocity: 55
Note OFF: Time 139740, Note Name: F4
Note ON: Time 139740, Note Name: A#4, Velocity: 50
Note OFF: Time 139800, Note Name: A#4
Note ON: Time 139800, Note Name: D5, Velocity: 50
Note OFF: Time 139860, Note Name: D5
Note ON: Time 139860, Note Name: F5, Velocity: 50
Note OFF: Time 139920, Note Name: F5
Note ON: Time 139920, Note Name: A#4, Velocity: 55
Note OFF: Time 139980, Note Name: A#4
Note ON: Time 139980, Note Name: D5, Velocity: 50
Note OFF: Time 140040, Note Name: D5
Note ON: Time 140040, Note Name: F5, Velocity: 50
Note OFF: Time 140100, Note Name: F5
Note ON: Time 140100, Note Name: A#5, Velocity: 50
Note OFF: Time 140160, Note Name: A#5
Note ON: Time 140160, Note Name: A5, Velocity: 69
Note OFF: Time 140220, Note Name: A5
Note ON: Time 140220, Note Name: D#6, Velocity: 50
Note OFF: Time 140280, Note Name: D#6
Note ON: Time 140280, Note Name: C6, Velocity: 50
Note OFF: Time 140340, Note Name: C6
Note ON: Time 140340, Note Name: A5, Velocity: 50
Note OFF: Time 140400, Note Name: A5
Note ON: Time 140400, Note Name: F5, Velocity: 54
Note OFF: Time 140460, Note Name: F5
Note ON: Time 140460, Note Name: C6, Velocity: 50
Note OFF: Time 140520, Note Name: C6
Note ON: Time 140520, Note Name: A5, Velocity: 50
Note OFF: Time 140580, Note Name: A5
Note ON: Time 140580, Note Name: F5, Velocity: 50
Note OFF: Time 140640, Note Name: F5
Note ON: Time 140640, Note Name: D#5, Velocity: 56
Note OFF: Time 140700, Note Name: D#5
Note ON: Time 140700, Note Name: A5, Velocity: 50
Note OFF: Time 140760, Note Name: A5
Note ON: Time 140760, Note Name: F5, Velocity: 50
Note OFF: Time 140820, Note Name: F5
Note ON: Time 140820, Note Name: D#5, Velocity: 50
Note OFF: Time 140880, Note Name: D#5
Note ON: Time 140880, Note Name: C5, Velocity: 54
Note OFF: Time 140940, Note Name: C5
Note ON: Time 140940, Note Name: F5, Velocity: 50
Note OFF: Time 141000, Note Name: F5
Note ON: Time 141000, Note Name: D#5, Velocity: 50
Note OFF: Time 141060, Note Name: D#5
Note ON: Time 141060, Note Name: C5, Velocity: 50
Note OFF: Time 141120, Note Name: C5
Note ON: Time 141120, Note Name: A#4, Velocity: 69
Note OFF: Time 141180, Note Name: A#4
Note ON: Time 141180, Note Name: D3, Velocity: 50
Note OFF: Time 141240, Note Name: D3
Note ON: Time 141240, Note Name: F3, Velocity: 50
Note OFF: Time 141300, Note Name: F3
Note ON: Time 141300, Note Name: A#3, Velocity: 50
Note OFF: Time 141360, Note Name: A#3
Note ON: Time 141360, Note Name: D4, Velocity: 53
Note OFF: Time 141420, Note Name: D4
Note ON: Time 141420, Note Name: F4, Velocity: 50
Note OFF: Time 141480, Note Name: F4
Note ON: Time 141480, Note Name: A#4, Velocity: 50
Note OFF: Time 141540, Note Name: A#4
Note ON: Time 141540, Note Name: D5, Velocity: 50
Note OFF: Time 141600, Note Name: D5
Note ON: Time 141600, Note Name: F4, Velocity: 55
Note OFF: Time 141660, Note Name: F4
Note ON: Time 141660, Note Name: A#4, Velocity: 50
Note OFF: Time 141720, Note Name: A#4
Note ON: Time 141720, Note Name: D5, Velocity: 50
Note OFF: Time 141780, Note Name: D5
Note ON: Time 141780, Note Name: F5, Velocity: 50
Note OFF: Time 141840, Note Name: F5
Note ON: Time 141840, Note Name: A#4, Velocity: 55
Note OFF: Time 141900, Note Name: A#4
Note ON: Time 141900, Note Name: D5, Velocity: 50
Note OFF: Time 141960, Note Name: D5
Note ON: Time 141960, Note Name: F5, Velocity: 50
Note OFF: Time 142020, Note Name: F5
Note ON: Time 142020, Note Name: A#5, Velocity: 50
Note OFF: Time 142080, Note Name: A#5
Note ON: Time 142080, Note Name: A5, Velocity: 72
Note OFF: Time 142140, Note Name: A5
Note ON: Time 142140, Note Name: D#6, Velocity: 50
Note OFF: Time 142200, Note Name: D#6
Note ON: Time 142200, Note Name: C6, Velocity: 50
Note OFF: Time 142260, Note Name: C6
Note ON: Time 142260, Note Name: A5, Velocity: 50
Note OFF: Time 142320, Note Name: A5
Note ON: Time 142320, Note Name: F5, Velocity: 54
Note OFF: Time 142380, Note Name: F5
Note ON: Time 142380, Note Name: C6, Velocity: 50
Note OFF: Time 142440, Note Name: C6
Note ON: Time 142440, Note Name: A5, Velocity: 50
Note OFF: Time 142500, Note Name: A5
Note ON: Time 142500, Note Name: F5, Velocity: 50
Note OFF: Time 142560, Note Name: F5
Note ON: Time 142560, Note Name: D#5, Velocity: 56
Note OFF: Time 142620, Note Name: D#5
Note ON: Time 142620, Note Name: A5, Velocity: 50
Note OFF: Time 142680, Note Name: A5
Note ON: Time 142680, Note Name: F5, Velocity: 50
Note OFF: Time 142740, Note Name: F5
Note ON: Time 142740, Note Name: D#5, Velocity: 50
Note OFF: Time 142800, Note Name: D#5
Note ON: Time 142800, Note Name: C5, Velocity: 54
Note OFF: Time 142860, Note Name: C5
Note ON: Time 142860, Note Name: F5, Velocity: 50
Note OFF: Time 142920, Note Name: F5
Note ON: Time 142920, Note Name: D#5, Velocity: 50
Note OFF: Time 142980, Note Name: D#5
Note ON: Time 142980, Note Name: C5, Velocity: 50
Note OFF: Time 143040, Note Name: C5
Note ON: Time 143040, Note Name: A#4, Velocity: 74
Note OFF: Time 143100, Note Name: A#4
Note ON: Time 143100, Note Name: D3, Velocity: 50
Note OFF: Time 143160, Note Name: D3
Note ON: Time 143160, Note Name: F3, Velocity: 50
Note OFF: Time 143220, Note Name: F3
Note ON: Time 143220, Note Name: A#3, Velocity: 50
Note OFF: Time 143280, Note Name: A#3
Note ON: Time 143280, Note Name: D4, Velocity: 53
Note OFF: Time 143340, Note Name: D4
Note ON: Time 143340, Note Name: F4, Velocity: 50
Note OFF: Time 143400, Note Name: F4
Note ON: Time 143400, Note Name: A#4, Velocity: 50
Note OFF: Time 143460, Note Name: A#4
Note ON: Time 143460, Note Name: D5, Velocity: 50
Note OFF: Time 143520, Note Name: D5
Note ON: Time 143520, Note Name: F4, Velocity: 55
Note OFF: Time 143580, Note Name: F4
Note ON: Time 143580, Note Name: A#4, Velocity: 50
Note OFF: Time 143640, Note Name: A#4
Note ON: Time 143640, Note Name: D5, Velocity: 50
Note OFF: Time 143700, Note Name: D5
Note ON: Time 143700, Note Name: F5, Velocity: 50
Note OFF: Time 143760, Note Name: F5
Note ON: Time 143760, Note Name: A#4, Velocity: 55
Note OFF: Time 143820, Note Name: A#4
Note ON: Time 143820, Note Name: D5, Velocity: 50
Note OFF: Time 143880, Note Name: D5
Note ON: Time 143880, Note Name: F5, Velocity: 50
Note OFF: Time 143940, Note Name: F5
Note ON: Time 143940, Note Name: A#5, Velocity: 50
Note OFF: Time 144000, Note Name: A#5
Note ON: Time 144060, Note Name: D3, Velocity: 55
Note OFF: Time 144120, Note Name: D3
Note ON: Time 144120, Note Name: F3, Velocity: 55
Note OFF: Time 144180, Note Name: F3
Note ON: Time 144180, Note Name: A#3, Velocity: 55
Note OFF: Time 144240, Note Name: A#3
Note ON: Time 144240, Note Name: D4, Velocity: 58
Note OFF: Time 144300, Note Name: D4
Note ON: Time 144300, Note Name: F4, Velocity: 55
Note OFF: Time 144360, Note Name: F4
Note ON: Time 144360, Note Name: A#4, Velocity: 55
Note OFF: Time 144420, Note Name: A#4
Note ON: Time 144420, Note Name: D5, Velocity: 55
Note OFF: Time 144480, Note Name: D5
Note ON: Time 144480, Note Name: F4, Velocity: 60
Note OFF: Time 144540, Note Name: F4
Note ON: Time 144540, Note Name: A#4, Velocity: 55
Note OFF: Time 144600, Note Name: A#4
Note ON: Time 144600, Note Name: D5, Velocity: 55
Note OFF: Time 144660, Note Name: D5
Note ON: Time 144660, Note Name: F5, Velocity: 55
Note OFF: Time 144720, Note Name: F5
Note ON: Time 144720, Note Name: A#4, Velocity: 60
Note OFF: Time 144780, Note Name: A#4
Note ON: Time 144780, Note Name: D5, Velocity: 55
Note OFF: Time 144840, Note Name: D5
Note ON: Time 144840, Note Name: F5, Velocity: 55
Note OFF: Time 144900, Note Name: F5
Note ON: Time 144900, Note Name: A#5, Velocity: 55
Note OFF: Time 144960, Note Name: A#5
Note ON: Time 145020, Note Name: D#3, Velocity: 55
Note OFF: Time 145080, Note Name: D#3
Note ON: Time 145080, Note Name: G3, Velocity: 60
Note OFF: Time 145140, Note Name: G3
Note ON: Time 145140, Note Name: A#3, Velocity: 60
Note OFF: Time 145200, Note Name: A#3
Note ON: Time 145200, Note Name: D#4, Velocity: 63
Note OFF: Time 145260, Note Name: D#4
Note ON: Time 145260, Note Name: G4, Velocity: 60
Note OFF: Time 145320, Note Name: G4
Note ON: Time 145320, Note Name: A#4, Velocity: 60
Note OFF: Time 145380, Note Name: A#4
Note ON: Time 145380, Note Name: D#5, Velocity: 60
Note OFF: Time 145440, Note Name: D#5
Note ON: Time 145440, Note Name: G4, Velocity: 66
Note OFF: Time 145500, Note Name: G4
Note ON: Time 145500, Note Name: A#4, Velocity: 60
Note OFF: Time 145560, Note Name: A#4
Note ON: Time 145560, Note Name: D#5, Velocity: 60
Note OFF: Time 145620, Note Name: D#5
Note ON: Time 145620, Note Name: G5, Velocity: 60
Note OFF: Time 145680, Note Name: G5
Note ON: Time 145680, Note Name: A#4, Velocity: 66
Note OFF: Time 145740, Note Name: A#4
Note ON: Time 145740, Note Name: D#5, Velocity: 60
Note OFF: Time 145800, Note Name: D#5
Note ON: Time 145800, Note Name: G5, Velocity: 60
Note OFF: Time 145860, Note Name: G5
Note ON: Time 145860, Note Name: A#5, Velocity: 60
Note OFF: Time 145920, Note Name: A#5
Note ON: Time 146400, Note Name: D4, Velocity: 66
Note OFF: Time 146460, Note Name: D4
Note ON: Time 146460, Note Name: F4, Velocity: 59
Note OFF: Time 146520, Note Name: F4
Note ON: Time 146520, Note Name: G#4, Velocity: 61
Note OFF: Time 146580, Note Name: G#4
Note ON: Time 146580, Note Name: A#4, Velocity: 64
Note OFF: Time 146640, Note Name: A#4
Note ON: Time 146640, Note Name: D5, Velocity: 67
Note OFF: Time 146688, Note Name: D5
Note ON: Time 146688, Note Name: F5, Velocity: 68
Note OFF: Time 146736, Note Name: F5
Note ON: Time 146736, Note Name: G#5, Velocity: 70
Note OFF: Time 146784, Note Name: G#5
Note ON: Time 146784, Note Name: C6, Velocity: 68
Note OFF: Time 146832, Note Name: C6
Note ON: Time 146832, Note Name: A#5, Velocity: 65
Note OFF: Time 146880, Note Name: A#5
Note ON: Time 146880, Note Name: G#5, Velocity: 50
Note OFF: Time 147000, Note Name: G#5
Note ON: Time 147000, Note Name: G5, Velocity: 46
Note OFF: Time 147120, Note Name: G5
Note ON: Time 147120, Note Name: F5, Velocity: 46
Note OFF: Time 147240, Note Name: F5
Note ON: Time 147240, Note Name: D#5, Velocity: 46
Note OFF: Time 147360, Note Name: D#5
Note ON: Time 147360, Note Name: D5, Velocity: 50
Note OFF: Time 147600, Note Name: D5
Note ON: Time 147600, Note Name: D#5, Velocity: 47
Note OFF: Time 147840, Note Name: D#5
Note ON: Time 147840, Note Name: E5, Velocity: 53
Note OFF: Time 148080, Note Name: E5
Note ON: Time 148080, Note Name: F5, Velocity: 49
Note OFF: Time 148320, Note Name: F5
Note ON: Time 148440, Note Name: B5, Velocity: 45
Note OFF: Time 148464, Note Name: B5
Note ON: Time 148464, Note Name: C6, Velocity: 43
Note OFF: Time 148488, Note Name: C6
Note ON: Time 148488, Note Name: B5, Velocity: 45
Note OFF: Time 148512, Note Name: B5
Note ON: Time 148512, Note Name: A5, Velocity: 42
Note OFF: Time 148536, Note Name: A5
Note ON: Time 148536, Note Name: B5, Velocity: 42
Note OFF: Time 148560, Note Name: B5
Note ON: Time 148560, Note Name: D6, Velocity: 50
Note OFF: Time 148680, Note Name: D6
Note ON: Time 148680, Note Name: C6, Velocity: 46
Note OFF: Time 148800, Note Name: C6
Note ON: Time 148800, Note Name: A#5, Velocity: 50
Note OFF: Time 148920, Note Name: A#5
Note ON: Time 148920, Note Name: G#5, Velocity: 44
Note OFF: Time 149040, Note Name: G#5
Note ON: Time 149040, Note Name: G5, Velocity: 46
Note OFF: Time 149160, Note Name: G5
Note ON: Time 149160, Note Name: F5, Velocity: 43
Note OFF: Time 149280, Note Name: F5
Note ON: Time 149280, Note Name: D5, Velocity: 50
Note OFF: Time 149400, Note Name: D5
Note ON: Time 149400, Note Name: D#5, Velocity: 44
Note OFF: Time 149520, Note Name: D#5
Note ON: Time 149520, Note Name: E5, Velocity: 47
Note OFF: Time 149640, Note Name: E5
Note ON: Time 149640, Note Name: F5, Velocity: 43
Note OFF: Time 149760, Note Name: F5
Note ON: Time 149760, Note Name: F#5, Velocity: 53
Note OFF: Time 150000, Note Name: F#5
Note ON: Time 150000, Note Name: G5, Velocity: 49
Note OFF: Time 150360, Note Name: G5
Note ON: Time 150360, Note Name: G5, Velocity: 51
Note OFF: Time 150480, Note Name: G5
Note ON: Time 150480, Note Name: G#5, Velocity: 58
Note OFF: Time 150600, Note Name: G#5
Note ON: Time 150600, Note Name: G5, Velocity: 52
Note OFF: Time 150720, Note Name: G5
Note ON: Time 150720, Note Name: F5, Velocity: 50
Note OFF: Time 150840, Note Name: F5
Note ON: Time 150840, Note Name: D#5, Velocity: 44
Note OFF: Time 150960, Note Name: D#5
Note ON: Time 150960, Note Name: D5, Velocity: 46
Note OFF: Time 151080, Note Name: D5
Note ON: Time 151080, Note Name: C5, Velocity: 43
Note OFF: Time 151200, Note Name: C5
Note ON: Time 151200, Note Name: B4, Velocity: 50
Note OFF: Time 151440, Note Name: B4
Note ON: Time 151440, Note Name: C5, Velocity: 47
Note OFF: Time 151680, Note Name: C5
Note ON: Time 151680, Note Name: C#5, Velocity: 53
Note OFF: Time 151920, Note Name: C#5
Note ON: Time 151920, Note Name: D5, Velocity: 49
Note OFF: Time 152160, Note Name: D5
Note ON: Time 152280, Note Name: G5, Velocity: 34
Note OFF: Time 152400, Note Name: G5
Note ON: Time 152400, Note Name: G#5, Velocity: 40
Note OFF: Time 152520, Note Name: G#5
Note ON: Time 152520, Note Name: G5, Velocity: 36
Note OFF: Time 152640, Note Name: G5
Note ON: Time 152640, Note Name: F5, Velocity: 40
Note OFF: Time 152760, Note Name: F5
Note ON: Time 152760, Note Name: D#5, Velocity: 36
Note OFF: Time 152880, Note Name: D#5
Note ON: Time 152880, Note Name: D5, Velocity: 38
Note OFF: Time 153000, Note Name: D5
Note ON: Time 153000, Note Name: C5, Velocity: 36
Note OFF: Time 153120, Note Name: C5
Note ON: Time 153240, Note Name: D#5, Velocity: 34
Note OFF: Time 153360, Note Name: D#5
Note ON: Time 153360, Note Name: F5, Velocity: 40
Note OFF: Time 153480, Note Name: F5
Note ON: Time 153480, Note Name: D#5, Velocity: 36
Note OFF: Time 153600, Note Name: D#5
Note ON: Time 153600, Note Name: D5, Velocity: 40
Note OFF: Time 153720, Note Name: D5
Note ON: Time 153720, Note Name: C5, Velocity: 36
Note OFF: Time 153840, Note Name: C5
Note ON: Time 153840, Note Name: A#4, Velocity: 38
Note OFF: Time 153960, Note Name: A#4
Note ON: Time 153960, Note Name: A4, Velocity: 36
Note OFF: Time 154080, Note Name: A4
Note ON: Time 155580, Note Name: A3, Velocity: 36
Note OFF: Time 155640, Note Name: A3
Note ON: Time 155640, Note Name: A#3, Velocity: 36
Note OFF: Time 155700, Note Name: A#3
Note ON: Time 155700, Note Name: C4, Velocity: 37
Note OFF: Time 155760, Note Name: C4
Note ON: Time 155760, Note Name: D4, Velocity: 37
Note OFF: Time 155820, Note Name: D4
Note ON: Time 155820, Note Name: D#4, Velocity: 38
Note OFF: Time 155880, Note Name: D#4
Note ON: Time 155880, Note Name: F4, Velocity: 39
Note OFF: Time 155940, Note Name: F4
Note ON: Time 155940, Note Name: G4, Velocity: 39
Note OFF: Time 156000, Note Name: G4
Note ON: Time 156000, Note Name: A4, Velocity: 40
Note OFF: Time 156080, Note Name: A4
Note ON: Time 156080, Note Name: A#4, Velocity: 42
Note OFF: Time 156160, Note Name: A#4
Note ON: Time 156160, Note Name: B4, Velocity: 43
Note OFF: Time 156240, Note Name: B4
Note ON: Time 156240, Note Name: C5, Velocity: 44
Note OFF: Time 156320, Note Name: C5
Note ON: Time 156320, Note Name: C#5, Velocity: 44
Note OFF: Time 156400, Note Name: C#5
Note ON: Time 156400, Note Name: D5, Velocity: 45
Note OFF: Time 156480, Note Name: D5
Note ON: Time 156480, Note Name: D#5, Velocity: 49
Note OFF: Time 156560, Note Name: D#5
Note ON: Time 156560, Note Name: A4, Velocity: 42
Note OFF: Time 156640, Note Name: A4
Note ON: Time 156640, Note Name: A#4, Velocity: 42
Note OFF: Time 156720, Note Name: A#4
Note ON: Time 156720, Note Name: B4, Velocity: 45
Note OFF: Time 156800, Note Name: B4
Note ON: Time 156800, Note Name: C5, Velocity: 48
Note OFF: Time 156880, Note Name: C5
Note ON: Time 156880, Note Name: D5, Velocity: 50
Note OFF: Time 156960, Note Name: D5
Note ON: Time 156960, Note Name: D#5, Velocity: 52
Note OFF: Time 157040, Note Name: D#5
Note ON: Time 157040, Note Name: A4, Velocity: 47
Note OFF: Time 157120, Note Name: A4
Note ON: Time 157120, Note Name: A#4, Velocity: 49
Note OFF: Time 157200, Note Name: A#4
Note ON: Time 157200, Note Name: B4, Velocity: 50
Note OFF: Time 157280, Note Name: B4
Note ON: Time 157280, Note Name: C5, Velocity: 52
Note OFF: Time 157360, Note Name: C5
Note ON: Time 157360, Note Name: D5, Velocity: 53
Note OFF: Time 157440, Note Name: D5
Note ON: Time 157440, Note Name: D#5, Velocity: 62
Note OFF: Time 157500, Note Name: D#5
Note ON: Time 157500, Note Name: A4, Velocity: 54
Note OFF: Time 157560, Note Name: A4
Note ON: Time 157560, Note Name: G#4, Velocity: 51
Note OFF: Time 157620, Note Name: G#4
Note ON: Time 157620, Note Name: A4, Velocity: 52
Note OFF: Time 157680, Note Name: A4
Note ON: Time 157680, Note Name: A#4, Velocity: 53
Note OFF: Time 157740, Note Name: A#4
Note ON: Time 157740, Note Name: B4, Velocity: 54
Note OFF: Time 157800, Note Name: B4
Note ON: Time 157800, Note Name: C5, Velocity: 56
Note OFF: Time 157860, Note Name: C5
Note ON: Time 157860, Note Name: C#5, Velocity: 57
Note OFF: Time 157920, Note Name: C#5
Note ON: Time 157920, Note Name: D5, Velocity: 59
Note OFF: Time 158000, Note Name: D5
Note ON: Time 158000, Note Name: D#5, Velocity: 61
Note OFF: Time 158080, Note Name: D#5
Note ON: Time 158080, Note Name: E5, Velocity: 59
Note OFF: Time 158160, Note Name: E5
Note ON: Time 158160, Note Name: G5, Velocity: 50
Note OFF: Time 158280, Note Name: G5
Note ON: Time 158280, Note Name: F5, Velocity: 46
Note OFF: Time 158390, Note Name: F5
Note ON: Time 158400, Note Name: F5, Velocity: 50
Note OFF: Time 158440, Note Name: F5
Note ON: Time 158480, Note Name: D#5, Velocity: 46
Note OFF: Time 158520, Note Name: D#5
Note ON: Time 158560, Note Name: D5, Velocity: 46
Note OFF: Time 158600, Note Name: D5
Note ON: Time 158640, Note Name: D5, Velocity: 46
Note OFF: Time 158680, Note Name: D5
Note ON: Time 158720, Note Name: C5, Velocity: 46
Note OFF: Time 158760, Note Name: C5
Note ON: Time 158800, Note Name: A#4, Velocity: 46
Note OFF: Time 158840, Note Name: A#4
Note ON: Time 158880, Note Name: A#4, Velocity: 50
Note OFF: Time 158920, Note Name: A#4
Note ON: Time 158960, Note Name: G#4, Velocity: 44
Note OFF: Time 159000, Note Name: G#4
Note ON: Time 159040, Note Name: A4, Velocity: 44
Note OFF: Time 159080, Note Name: A4
Note ON: Time 159120, Note Name: C5, Velocity: 47
Note OFF: Time 159160, Note Name: C5
Note ON: Time 159200, Note Name: A4, Velocity: 44
Note OFF: Time 159240, Note Name: A4
Note ON: Time 159280, Note Name: A#4, Velocity: 44
Note OFF: Time 159320, Note Name: A#4
Note ON: Time 159360, Note Name: B4, Velocity: 53
Note OFF: Time 159600, Note Name: B4
Note ON: Time 159600, Note Name: C5, Velocity: 49
Note OFF: Time 159840, Note Name: C5
Note ON: Time 159960, Note Name: F#5, Velocity: 45
Note OFF: Time 160080, Note Name: F#5
Note ON: Time 160080, Note Name: A5, Velocity: 50
Note OFF: Time 160200, Note Name: A5
Note ON: Time 160200, Note Name: G5, Velocity: 46
Note OFF: Time 160320, Note Name: G5
Note ON: Time 160320, Note Name: G5, Velocity: 50
Note OFF: Time 160360, Note Name: G5
Note ON: Time 160400, Note Name: F5, Velocity: 46
Note OFF: Time 160440, Note Name: F5
Note ON: Time 160480, Note Name: D#5, Velocity: 46
Note OFF: Time 160520, Note Name: D#5
Note ON: Time 160560, Note Name: D#5, Velocity: 46
Note OFF: Time 160600, Note Name: D#5
Note ON: Time 160640, Note Name: D5, Velocity: 42
Note OFF: Time 160680, Note Name: D5
Note ON: Time 160720, Note Name: C5, Velocity: 42
Note OFF: Time 160760, Note Name: C5
Note ON: Time 160800, Note Name: C5, Velocity: 50
Note OFF: Time 160840, Note Name: C5
Note ON: Time 160880, Note Name: A4, Velocity: 44
Note OFF: Time 160920, Note Name: A4
Note ON: Time 160960, Note Name: A#4, Velocity: 44
Note OFF: Time 161000, Note Name: A#4
Note ON: Time 161040, Note Name: D5, Velocity: 47
Note OFF: Time 161080, Note Name: D5
Note ON: Time 161120, Note Name: B4, Velocity: 44
Note OFF: Time 161160, Note Name: B4
Note ON: Time 161200, Note Name: C5, Velocity: 44
Note OFF: Time 161240, Note Name: C5
Note ON: Time 161280, Note Name: C#5, Velocity: 53
Note OFF: Time 161520, Note Name: C#5
Note ON: Time 161520, Note Name: D5, Velocity: 49
Note OFF: Time 161840, Note Name: D5
Note ON: Time 161840, Note Name: F5, Velocity: 51
Note OFF: Time 161920, Note Name: F5
Note ON: Time 161920, Note Name: E5, Velocity: 48
Note OFF: Time 162000, Note Name: E5
Note ON: Time 162000, Note Name: F5, Velocity: 58
Note OFF: Time 162080, Note Name: F5
Note ON: Time 162080, Note Name: G5, Velocity: 52
Note OFF: Time 162160, Note Name: G5
Note ON: Time 162160, Note Name: D5, Velocity: 49
Note OFF: Time 162240, Note Name: D5
Note ON: Time 162240, Note Name: F5, Velocity: 56
Note OFF: Time 162320, Note Name: F5
Note ON: Time 162320, Note Name: D#5, Velocity: 52
Note OFF: Time 162400, Note Name: D#5
Note ON: Time 162400, Note Name: D5, Velocity: 51
Note OFF: Time 162480, Note Name: D5
Note ON: Time 162480, Note Name: D#5, Velocity: 57
Note OFF: Time 162560, Note Name: D#5
Note ON: Time 162560, Note Name: F5, Velocity: 52
Note OFF: Time 162640, Note Name: F5
Note ON: Time 162640, Note Name: C5, Velocity: 52
Note OFF: Time 162720, Note Name: C5
Note ON: Time 162720, Note Name: D#5, Velocity: 57
Note OFF: Time 162800, Note Name: D#5
Note ON: Time 162800, Note Name: D5, Velocity: 52
Note OFF: Time 162880, Note Name: D5
Note ON: Time 162880, Note Name: C#5, Velocity: 51
Note OFF: Time 162960, Note Name: C#5
Note ON: Time 162960, Note Name: D5, Velocity: 59
Note OFF: Time 163040, Note Name: D5
Note ON: Time 163040, Note Name: G5, Velocity: 52
Note OFF: Time 163120, Note Name: G5
Note ON: Time 163120, Note Name: D5, Velocity: 55
Note OFF: Time 163200, Note Name: D5
Note ON: Time 163200, Note Name: F5, Velocity: 62
Note OFF: Time 163280, Note Name: F5
Note ON: Time 163280, Note Name: D#5, Velocity: 56
Note OFF: Time 163360, Note Name: D#5
Note ON: Time 163360, Note Name: D5, Velocity: 56
Note OFF: Time 163440, Note Name: D5
Note ON: Time 163440, Note Name: D#5, Velocity: 62
Note OFF: Time 163520, Note Name: D#5
Note ON: Time 163520, Note Name: F5, Velocity: 54
Note OFF: Time 163600, Note Name: F5
Note ON: Time 163600, Note Name: C5, Velocity: 54
Note OFF: Time 163680, Note Name: C5
Note ON: Time 163680, Note Name: D#5, Velocity: 61
Note OFF: Time 163740, Note Name: D#5
Note ON: Time 163740, Note Name: D5, Velocity: 55
Note OFF: Time 163800, Note Name: D5
Note ON: Time 163800, Note Name: C#5, Velocity: 52
Note OFF: Time 163860, Note Name: C#5
Note ON: Time 163860, Note Name: D5, Velocity: 53
Note OFF: Time 163920, Note Name: D5
Note ON: Time 163920, Note Name: D#5, Velocity: 55
Note OFF: Time 163980, Note Name: D#5
Note ON: Time 163980, Note Name: E5, Velocity: 56
Note OFF: Time 164040, Note Name: E5
Note ON: Time 164040, Note Name: F5, Velocity: 57
Note OFF: Time 164100, Note Name: F5
Note ON: Time 164100, Note Name: F#5, Velocity: 58
Note OFF: Time 164160, Note Name: F#5
Note ON: Time 164160, Note Name: G5, Velocity: 64
Note OFF: Time 164220, Note Name: G5
Note ON: Time 164220, Note Name: G#5, Velocity: 60
Note OFF: Time 164280, Note Name: G#5
Note ON: Time 164280, Note Name: A5, Velocity: 61
Note OFF: Time 164340, Note Name: A5
Note ON: Time 164340, Note Name: A#5, Velocity: 62
Note OFF: Time 164400, Note Name: A#5
Note ON: Time 164400, Note Name: B5, Velocity: 63
Note OFF: Time 164460, Note Name: B5
Note ON: Time 164460, Note Name: C6, Velocity: 65
Note OFF: Time 164520, Note Name: C6
Note ON: Time 164520, Note Name: C#6, Velocity: 67
Note OFF: Time 164580, Note Name: C#6
Note ON: Time 164580, Note Name: D6, Velocity: 68
Note OFF: Time 164640, Note Name: D6
Note ON: Time 164640, Note Name: E6, Velocity: 79
Note OFF: Time 164700, Note Name: E6
Note ON: Time 164700, Note Name: D6, Velocity: 62
Note OFF: Time 164760, Note Name: D6
Note ON: Time 164760, Note Name: C6, Velocity: 65
Note OFF: Time 164820, Note Name: C6
Note ON: Time 164820, Note Name: A#5, Velocity: 59
Note OFF: Time 164880, Note Name: A#5
Note ON: Time 164880, Note Name: A5, Velocity: 64
Note OFF: Time 164940, Note Name: A5
Note ON: Time 164940, Note Name: G5, Velocity: 59
Note OFF: Time 165000, Note Name: G5
Note ON: Time 165000, Note Name: F5, Velocity: 58
Note OFF: Time 165060, Note Name: F5
Note ON: Time 165060, Note Name: E5, Velocity: 54
Note OFF: Time 165120, Note Name: E5
Note ON: Time 165120, Note Name: G5, Velocity: 58
Note OFF: Time 165360, Note Name: G5
Note ON: Time 165360, Note Name: F5, Velocity: 53
Note OFF: Time 165600, Note Name: F5
Note ON: Time 165720, Note Name: F4, Velocity: 38
Note ON: Time 165720, Note Name: F5, Velocity: 45
Note OFF: Time 165840, Note Name: F5
Note OFF: Time 165840, Note Name: F4
Note ON: Time 165840, Note Name: G4, Velocity: 42
Note ON: Time 165840, Note Name: G5, Velocity: 50
Note OFF: Time 165960, Note Name: G5
Note OFF: Time 165960, Note Name: G4
Note ON: Time 165960, Note Name: F4, Velocity: 39
Note ON: Time 165960, Note Name: F5, Velocity: 46
Note OFF: Time 166080, Note Name: F5
Note OFF: Time 166080, Note Name: F4
Note ON: Time 166160, Note Name: D#4, Velocity: 42
Note ON: Time 166160, Note Name: D#5, Velocity: 50
Note OFF: Time 166200, Note Name: D#5
Note OFF: Time 166200, Note Name: D#4
Note ON: Time 166240, Note Name: D4, Velocity: 35
Note ON: Time 166240, Note Name: D5, Velocity: 41
Note OFF: Time 166280, Note Name: D5
Note OFF: Time 166280, Note Name: D4
Note ON: Time 166400, Note Name: C4, Velocity: 39
Note ON: Time 166400, Note Name: C5, Velocity: 46
Note OFF: Time 166440, Note Name: C5
Note OFF: Time 166440, Note Name: C4
Note ON: Time 166480, Note Name: A#3, Velocity: 35
Note ON: Time 166480, Note Name: A#4, Velocity: 41
Note OFF: Time 166520, Note Name: A#4
Note OFF: Time 166520, Note Name: A#3
Note ON: Time 166640, Note Name: G#3, Velocity: 42
Note ON: Time 166640, Note Name: G#4, Velocity: 50
Note OFF: Time 166680, Note Name: G#4
Note OFF: Time 166680, Note Name: G#3
Note ON: Time 166720, Note Name: A3, Velocity: 35
Note ON: Time 166720, Note Name: A4, Velocity: 41
Note OFF: Time 166760, Note Name: A4
Note OFF: Time 166760, Note Name: A3
Note ON: Time 166880, Note Name: A3, Velocity: 39
Note ON: Time 166880, Note Name: A4, Velocity: 46
Note OFF: Time 166920, Note Name: A4
Note OFF: Time 166920, Note Name: A3
Note ON: Time 166960, Note Name: A#4, Velocity: 41
Note ON: Time 166960, Note Name: A#3, Velocity: 35
Note OFF: Time 167000, Note Name: A#3
Note OFF: Time 167000, Note Name: A#4
Note ON: Time 167040, Note Name: B3, Velocity: 45
Note ON: Time 167040, Note Name: B4, Velocity: 53
Note OFF: Time 167280, Note Name: B4
Note OFF: Time 167280, Note Name: B3
Note ON: Time 167280, Note Name: C5, Velocity: 49
Note ON: Time 167280, Note Name: C4, Velocity: 41
Note OFF: Time 167640, Note Name: C4
Note OFF: Time 167640, Note Name: C5
Note ON: Time 167640, Note Name: F#5, Velocity: 45
Note ON: Time 167640, Note Name: F#4, Velocity: 38
Note OFF: Time 167760, Note Name: F#4
Note OFF: Time 167760, Note Name: F#5
Note ON: Time 167760, Note Name: A4, Velocity: 42
Note ON: Time 167760, Note Name: A5, Velocity: 50
Note OFF: Time 167880, Note Name: A5
Note OFF: Time 167880, Note Name: A4
Note ON: Time 167880, Note Name: G4, Velocity: 39
Note ON: Time 167880, Note Name: G5, Velocity: 46
Note OFF: Time 168000, Note Name: G5
Note OFF: Time 168000, Note Name: G4
Note ON: Time 168080, Note Name: F4, Velocity: 42
Note ON: Time 168080, Note Name: F5, Velocity: 50
Note OFF: Time 168120, Note Name: F5
Note OFF: Time 168120, Note Name: F4
Note ON: Time 168160, Note Name: D#4, Velocity: 35
Note ON: Time 168160, Note Name: D#5, Velocity: 41
Note OFF: Time 168200, Note Name: D#5
Note OFF: Time 168200, Note Name: D#4
Note ON: Time 168320, Note Name: D4, Velocity: 39
Note ON: Time 168320, Note Name: D5, Velocity: 46
Note OFF: Time 168360, Note Name: D5
Note OFF: Time 168360, Note Name: D4
Note ON: Time 168400, Note Name: C5, Velocity: 41
Note ON: Time 168400, Note Name: C4, Velocity: 35
Note OFF: Time 168440, Note Name: C4
Note OFF: Time 168440, Note Name: C5
Note ON: Time 168560, Note Name: A3, Velocity: 42
Note ON: Time 168560, Note Name: A4, Velocity: 50
Note OFF: Time 168600, Note Name: A4
Note OFF: Time 168600, Note Name: A3
Note ON: Time 168640, Note Name: A#3, Velocity: 35
Note ON: Time 168640, Note Name: A#4, Velocity: 41
Note OFF: Time 168680, Note Name: A#4
Note OFF: Time 168680, Note Name: A#3
Note ON: Time 168800, Note Name: B3, Velocity: 39
Note ON: Time 168800, Note Name: B4, Velocity: 46
Note OFF: Time 168840, Note Name: B4
Note OFF: Time 168840, Note Name: B3
Note ON: Time 168880, Note Name: C5, Velocity: 41
Note ON: Time 168880, Note Name: C4, Velocity: 35
Note OFF: Time 168920, Note Name: C4
Note OFF: Time 168920, Note Name: C5
Note ON: Time 168960, Note Name: C#4, Velocity: 45
Note ON: Time 168960, Note Name: C#5, Velocity: 53
Note OFF: Time 169200, Note Name: C#5
Note OFF: Time 169200, Note Name: C#4
Note ON: Time 169200, Note Name: D5, Velocity: 49
Note ON: Time 169200, Note Name: D4, Velocity: 41
Note OFF: Time 169520, Note Name: D5
Note ON: Time 169520, Note Name: F5, Velocity: 56
Note OFF: Time 169600, Note Name: F5
Note ON: Time 169600, Note Name: E5, Velocity: 56
Note OFF: Time 169680, Note Name: E5
Note OFF: Time 169680, Note Name: D4
Note ON: Time 169680, Note Name: G#4, Velocity: 54
Note ON: Time 169680, Note Name: F5, Velocity: 62
Note OFF: Time 169760, Note Name: F5
Note ON: Time 169760, Note Name: G5, Velocity: 57
Note OFF: Time 169840, Note Name: G5
Note ON: Time 169840, Note Name: D5, Velocity: 51
Note OFF: Time 169920, Note Name: D5
Note ON: Time 169920, Note Name: F5, Velocity: 62
Note OFF: Time 170000, Note Name: F5
Note ON: Time 170000, Note Name: D#5, Velocity: 58
Note OFF: Time 170080, Note Name: D#5
Note ON: Time 170080, Note Name: D5, Velocity: 54
Note OFF: Time 170160, Note Name: D5
Note OFF: Time 170160, Note Name: G#4
Note ON: Time 170160, Note Name: D#5, Velocity: 63
Note ON: Time 170160, Note Name: A4, Velocity: 46
Note OFF: Time 170240, Note Name: D#5
Note ON: Time 170240, Note Name: F5, Velocity: 58
Note OFF: Time 170320, Note Name: F5
Note ON: Time 170320, Note Name: C5, Velocity: 53
Note OFF: Time 170400, Note Name: C5
Note OFF: Time 170400, Note Name: A4
Note ON: Time 170400, Note Name: D#5, Velocity: 64
Note ON: Time 170400, Note Name: A#4, Velocity: 46
Note OFF: Time 170480, Note Name: D#5
Note ON: Time 170480, Note Name: D5, Velocity: 59
Note OFF: Time 170560, Note Name: D5
Note ON: Time 170560, Note Name: C#5, Velocity: 59
Note OFF: Time 170640, Note Name: C#5
Note OFF: Time 170640, Note Name: A#4
Note ON: Time 170640, Note Name: D5, Velocity: 67
Note ON: Time 170640, Note Name: G#4, Velocity: 47
Note OFF: Time 170720, Note Name: D5
Note ON: Time 170720, Note Name: G5, Velocity: 62
Note OFF: Time 170800, Note Name: G5
Note ON: Time 170800, Note Name: D5, Velocity: 59
Note OFF: Time 170880, Note Name: D5
Note ON: Time 170880, Note Name: F5, Velocity: 71
Note OFF: Time 170960, Note Name: F5
Note ON: Time 170960, Note Name: D#5, Velocity: 64
Note OFF: Time 171040, Note Name: D#5
Note ON: Time 171040, Note Name: D5, Velocity: 61
Note OFF: Time 171120, Note Name: D5
Note OFF: Time 171120, Note Name: G#4
Note ON: Time 171120, Note Name: D#5, Velocity: 72
Note ON: Time 171120, Note Name: A4, Velocity: 47
Note OFF: Time 171200, Note Name: D#5
Note ON: Time 171200, Note Name: F5, Velocity: 66
Note OFF: Time 171280, Note Name: F5
Note ON: Time 171280, Note Name: C5, Velocity: 63
Note OFF: Time 171340, Note Name: C5
Note OFF: Time 171360, Note Name: A4
Note ON: Time 171360, Note Name: A#4, Velocity: 60
Note ON: Time 171360, Note Name: D#5, Velocity: 71
Note OFF: Time 171440, Note Name: D#5
Note OFF: Time 171440, Note Name: A#4
Note ON: Time 171440, Note Name: D4, Velocity: 53
Note ON: Time 171440, Note Name: D5, Velocity: 63
Note OFF: Time 171520, Note Name: D5
Note OFF: Time 171520, Note Name: D4
Note ON: Time 171520, Note Name: C#4, Velocity: 53
Note ON: Time 171520, Note Name: C#5, Velocity: 63
Note OFF: Time 171600, Note Name: C#5
Note OFF: Time 171600, Note Name: C#4
Note ON: Time 171600, Note Name: D4, Velocity: 57
Note ON: Time 171600, Note Name: D5, Velocity: 67
Note OFF: Time 171680, Note Name: D5
Note OFF: Time 171680, Note Name: D4
Note ON: Time 171680, Note Name: D#4, Velocity: 60
Note ON: Time 171680, Note Name: D#5, Velocity: 71
Note OFF: Time 171720, Note Name: D#5
Note OFF: Time 171720, Note Name: D#4
Note ON: Time 171760, Note Name: E4, Velocity: 60
Note ON: Time 171760, Note Name: E5, Velocity: 71
Note OFF: Time 171800, Note Name: E5
Note OFF: Time 171800, Note Name: E4
Note ON: Time 171840, Note Name: F4, Velocity: 64
Note ON: Time 171840, Note Name: F5, Velocity: 76
Note OFF: Time 171880, Note Name: F5
Note OFF: Time 171880, Note Name: F4
Note ON: Time 171920, Note Name: F#4, Velocity: 61
Note ON: Time 171920, Note Name: F#5, Velocity: 72
Note OFF: Time 171960, Note Name: F#5
Note OFF: Time 171960, Note Name: F#4
Note ON: Time 172000, Note Name: G4, Velocity: 61
Note ON: Time 172000, Note Name: G5, Velocity: 72
Note OFF: Time 172040, Note Name: G5
Note OFF: Time 172040, Note Name: G4
Note ON: Time 172080, Note Name: G#4, Velocity: 64
Note ON: Time 172080, Note Name: G#5, Velocity: 76
Note OFF: Time 172120, Note Name: G#5
Note OFF: Time 172120, Note Name: G#4
Note ON: Time 172160, Note Name: A4, Velocity: 67
Note ON: Time 172160, Note Name: A5, Velocity: 80
Note OFF: Time 172200, Note Name: A5
Note OFF: Time 172200, Note Name: A4
Note ON: Time 172240, Note Name: A#4, Velocity: 67
Note ON: Time 172240, Note Name: A#5, Velocity: 80
Note OFF: Time 172280, Note Name: A#5
Note OFF: Time 172280, Note Name: A#4
Note ON: Time 172320, Note Name: A#4, Velocity: 71
Note ON: Time 172320, Note Name: A#3, Velocity: 71
Note OFF: Time 172560, Note Name: A#3
Note OFF: Time 172560, Note Name: A#4
Note ON: Time 172560, Note Name: C5, Velocity: 69
Note ON: Time 172560, Note Name: C4, Velocity: 58
Note OFF: Time 172800, Note Name: C4
Note OFF: Time 172800, Note Name: C5
Note ON: Time 172800, Note Name: C#4, Velocity: 41
Note ON: Time 172800, Note Name: C#5, Velocity: 49
Note OFF: Time 173040, Note Name: C#5
Note OFF: Time 173040, Note Name: C#4
Note ON: Time 173040, Note Name: D4, Velocity: 38
Note ON: Time 173040, Note Name: D5, Velocity: 45
Note OFF: Time 173340, Note Name: D5
Note OFF: Time 173340, Note Name: D4
Note ON: Time 173340, Note Name: A#4, Velocity: 59
Note OFF: Time 173400, Note Name: A#4
Note ON: Time 173400, Note Name: A4, Velocity: 61
Note OFF: Time 173460, Note Name: A4
Note ON: Time 173460, Note Name: A#4, Velocity: 62
Note OFF: Time 173520, Note Name: A#4
Note ON: Time 173520, Note Name: B4, Velocity: 62
Note OFF: Time 173580, Note Name: B4
Note ON: Time 173580, Note Name: C5, Velocity: 64
Note OFF: Time 173640, Note Name: C5
Note ON: Time 173640, Note Name: C#5, Velocity: 65
Note OFF: Time 173700, Note Name: C#5
Note ON: Time 173700, Note Name: D5, Velocity: 67
Note OFF: Time 173760, Note Name: D5
Note ON: Time 173760, Note Name: D#5, Velocity: 69
Note OFF: Time 173820, Note Name: D#5
Note ON: Time 173820, Note Name: E5, Velocity: 70
Note OFF: Time 173880, Note Name: E5
Note ON: Time 173880, Note Name: F5, Velocity: 71
Note OFF: Time 173940, Note Name: F5
Note ON: Time 173940, Note Name: F#5, Velocity: 73
Note OFF: Time 174000, Note Name: F#5
Note ON: Time 174000, Note Name: G5, Velocity: 74
Note OFF: Time 174060, Note Name: G5
Note ON: Time 174060, Note Name: G#5, Velocity: 76
Note OFF: Time 174120, Note Name: G#5
Note ON: Time 174120, Note Name: A5, Velocity: 77
Note OFF: Time 174180, Note Name: A5
Note ON: Time 174180, Note Name: A#5, Velocity: 78
Note OFF: Time 174240, Note Name: A#5
Note ON: Time 174240, Note Name: A#4, Velocity: 53
Note OFF: Time 174288, Note Name: A#4
Note ON: Time 174288, Note Name: C5, Velocity: 48
Note OFF: Time 174336, Note Name: C5
Note ON: Time 174336, Note Name: A#4, Velocity: 45
Note OFF: Time 174384, Note Name: A#4
Note ON: Time 174384, Note Name: A4, Velocity: 45
Note OFF: Time 174432, Note Name: A4
Note ON: Time 174432, Note Name: A#4, Velocity: 45
Note OFF: Time 174480, Note Name: A#4
Note ON: Time 174480, Note Name: D#4, Velocity: 44
Note ON: Time 174480, Note Name: D5, Velocity: 52
Note OFF: Time 174660, Note Name: D5
Note ON: Time 174660, Note Name: C5, Velocity: 41
Note OFF: Time 174720, Note Name: C5
Note OFF: Time 174720, Note Name: D#4
Note ON: Time 174720, Note Name: A#4, Velocity: 53
Note ON: Time 174720, Note Name: D4, Velocity: 53
Note OFF: Time 174780, Note Name: A#4
Note ON: Time 174780, Note Name: F4, Velocity: 59
Note OFF: Time 174840, Note Name: F4
Note ON: Time 174840, Note Name: G4, Velocity: 62
Note OFF: Time 174900, Note Name: G4
Note ON: Time 174900, Note Name: A4, Velocity: 64
Note OFF: Time 174960, Note Name: A4
Note OFF: Time 174960, Note Name: D4
Note ON: Time 174960, Note Name: A#4, Velocity: 67
Note OFF: Time 175020, Note Name: A#4
Note ON: Time 175020, Note Name: C5, Velocity: 71
Note OFF: Time 175080, Note Name: C5
Note ON: Time 175080, Note Name: D5, Velocity: 78
Note OFF: Time 175140, Note Name: D5
Note ON: Time 175140, Note Name: D#5, Velocity: 84
Note OFF: Time 175200, Note Name: D#5
Note ON: Time 175200, Note Name: A#4, Velocity: 85
Note ON: Time 175200, Note Name: F5, Velocity: 101
Note OFF: Time 175680, Note Name: F5
Note OFF: Time 175680, Note Name: A#4
Note ON: Time 175680, Note Name: A4, Velocity: 85
Note ON: Time 175680, Note Name: F5, Velocity: 101
Note OFF: Time 176160, Note Name: F5
Note OFF: Time 176160, Note Name: A4
Note ON: Time 176160, Note Name: A#4, Velocity: 85
Note ON: Time 176160, Note Name: F5, Velocity: 101
Note OFF: Time 176520, Note Name: A#4
Note ON: Time 176520, Note Name: C5, Velocity: 85
Note OFF: Time 176580, Note Name: C5
Note ON: Time 176580, Note Name: D5, Velocity: 85
Note OFF: Time 176640, Note Name: D5
Note OFF: Time 176640, Note Name: F5
Note ON: Time 176640, Note Name: D#5, Velocity: 85
Note ON: Time 176640, Note Name: F5, Velocity: 101
Note OFF: Time 177120, Note Name: F5
Note OFF: Time 177120, Note Name: D#5
Note ON: Time 177120, Note Name: D5, Velocity: 85
Note ON: Time 177120, Note Name: A#5, Velocity: 101
Note OFF: Time 177480, Note Name: D5
Note ON: Time 177480, Note Name: D#5, Velocity: 56
Note OFF: Time 177540, Note Name: D#5
Note ON: Time 177540, Note Name: F5, Velocity: 57
Note OFF: Time 177600, Note Name: F5
Note OFF: Time 177600, Note Name: A#5
Note ON: Time 177600, Note Name: A#5, Velocity: 81
Note ON: Time 177600, Note Name: G5, Velocity: 68
Note OFF: Time 177660, Note Name: G5
Note OFF: Time 177660, Note Name: A#5
Note ON: Time 177840, Note Name: C5, Velocity: 45
Note ON: Time 177840, Note Name: C6, Velocity: 53
Note ON: Time 177840, Note Name: G5, Velocity: 45
Note OFF: Time 177900, Note Name: G5
Note OFF: Time 177900, Note Name: C6
Note OFF: Time 177900, Note Name: C5
Note ON: Time 178080, Note Name: D6, Velocity: 63
Note ON: Time 178080, Note Name: F5, Velocity: 53
Note ON: Time 178080, Note Name: D5, Velocity: 53
Note OFF: Time 178140, Note Name: D5
Note OFF: Time 178140, Note Name: F5
Note OFF: Time 178140, Note Name: D6
Note ON: Time 178320, Note Name: D#6, Velocity: 54
Note ON: Time 178320, Note Name: D#5, Velocity: 45
Note OFF: Time 178380, Note Name: D#5
Note OFF: Time 178380, Note Name: D#6
Note ON: Time 178560, Note Name: D5, Velocity: 51
Note ON: Time 178560, Note Name: D6, Velocity: 61
Note OFF: Time 178800, Note Name: D6
Note ON: Time 178800, Note Name: A#5, Velocity: 53
Note OFF: Time 178920, Note Name: A#5
Note OFF: Time 179040, Note Name: D5
Note ON: Time 179040, Note Name: A#4, Velocity: 81
Note ON: Time 179040, Note Name: F5, Velocity: 97
Note OFF: Time 179520, Note Name: F5
Note OFF: Time 179520, Note Name: A#4
Note ON: Time 179520, Note Name: A4, Velocity: 81
Note ON: Time 179520, Note Name: F5, Velocity: 97
Note OFF: Time 180000, Note Name: F5
Note OFF: Time 180000, Note Name: A4
Note ON: Time 180000, Note Name: A#4, Velocity: 81
Note ON: Time 180000, Note Name: F5, Velocity: 97
Note OFF: Time 180360, Note Name: A#4
Note ON: Time 180360, Note Name: C5, Velocity: 81
Note OFF: Time 180420, Note Name: C5
Note ON: Time 180420, Note Name: D5, Velocity: 81
Note OFF: Time 180480, Note Name: D5
Note OFF: Time 180480, Note Name: F5
Note ON: Time 180480, Note Name: D#5, Velocity: 81
Note ON: Time 180480, Note Name: F5, Velocity: 97
Note OFF: Time 180960, Note Name: F5
Note OFF: Time 180960, Note Name: D#5
Note ON: Time 180960, Note Name: D5, Velocity: 81
Note ON: Time 180960, Note Name: A#5, Velocity: 97
Note OFF: Time 181320, Note Name: D5
Note ON: Time 181320, Note Name: D#5, Velocity: 67
Note OFF: Time 181380, Note Name: D#5
Note ON: Time 181380, Note Name: F5, Velocity: 68
Note OFF: Time 181440, Note Name: F5
Note ON: Time 181440, Note Name: G5, Velocity: 97
Note ON: Time 181440, Note Name: D#5, Velocity: 81
Note OFF: Time 181500, Note Name: D#5
Note OFF: Time 181500, Note Name: G5
Note OFF: Time 181500, Note Name: A#5
Note ON: Time 181680, Note Name: C5, Velocity: 67
Note ON: Time 181680, Note Name: C6, Velocity: 79
Note ON: Time 181680, Note Name: G5, Velocity: 67
Note OFF: Time 181740, Note Name: G5
Note OFF: Time 181740, Note Name: C6
Note OFF: Time 181740, Note Name: C5
Note ON: Time 181920, Note Name: D6, Velocity: 98
Note ON: Time 181920, Note Name: F5, Velocity: 82
Note ON: Time 181920, Note Name: D5, Velocity: 82
Note OFF: Time 181980, Note Name: D5
Note OFF: Time 181980, Note Name: F5
Note OFF: Time 181980, Note Name: D6
Note ON: Time 182160, Note Name: D#6, Velocity: 87
Note ON: Time 182160, Note Name: D#5, Velocity: 74
Note OFF: Time 182220, Note Name: D#5
Note OFF: Time 182220, Note Name: D#6
Note ON: Time 182400, Note Name: D5, Velocity: 75
Note ON: Time 182400, Note Name: D6, Velocity: 104
Note OFF: Time 182640, Note Name: D6
Note ON: Time 182640, Note Name: A#5, Velocity: 81
Note OFF: Time 182760, Note Name: A#5
Note OFF: Time 182880, Note Name: D5
Note ON: Time 182880, Note Name: A#4, Velocity: 74
Note ON: Time 182880, Note Name: D5, Velocity: 88
Note ON: Time 182880, Note Name: A#5, Velocity: 106
Note OFF: Time 183240, Note Name: D5
Note OFF: Time 183240, Note Name: A#4
Note ON: Time 183240, Note Name: C5, Velocity: 61
Note ON: Time 183240, Note Name: D#5, Velocity: 73
Note OFF: Time 183300, Note Name: D#5
Note OFF: Time 183300, Note Name: C5
Note ON: Time 183300, Note Name: D5, Velocity: 62
Note ON: Time 183300, Note Name: F5, Velocity: 74
Note OFF: Time 183360, Note Name: F5
Note OFF: Time 183360, Note Name: D5
Note ON: Time 183360, Note Name: G5, Velocity: 106
Note ON: Time 183360, Note Name: D#5, Velocity: 88
Note OFF: Time 183420, Note Name: D#5
Note OFF: Time 183420, Note Name: G5
Note OFF: Time 183420, Note Name: A#5
Note ON: Time 183600, Note Name: C5, Velocity: 72
Note ON: Time 183600, Note Name: C6, Velocity: 86
Note ON: Time 183600, Note Name: G5, Velocity: 72
Note OFF: Time 183660, Note Name: G5
Note OFF: Time 183660, Note Name: C6
Note OFF: Time 183660, Note Name: C5
Note ON: Time 183840, Note Name: D6, Velocity: 108
Note ON: Time 183840, Note Name: F5, Velocity: 90
Note ON: Time 183840, Note Name: D5, Velocity: 90
Note OFF: Time 183900, Note Name: D5
Note OFF: Time 183900, Note Name: F5
Note OFF: Time 183900, Note Name: D6
Note ON: Time 184080, Note Name: D#6, Velocity: 99
Note ON: Time 184080, Note Name: D#5, Velocity: 80
Note OFF: Time 184140, Note Name: D#5
Note OFF: Time 184140, Note Name: D#6
Note ON: Time 184320, Note Name: D5, Velocity: 82
Note ON: Time 184320, Note Name: D6, Velocity: 114
Note OFF: Time 184560, Note Name: D6
Note ON: Time 184560, Note Name: A#5, Velocity: 88
Note OFF: Time 184680, Note Name: A#5
Note OFF: Time 184790, Note Name: D5
Note ON: Time 184800, Note Name: A#4, Velocity: 94
Note ON: Time 184800, Note Name: D5, Velocity: 94
Note ON: Time 184800, Note Name: A#5, Velocity: 111
Note OFF: Time 185160, Note Name: D5
Note OFF: Time 185160, Note Name: A#4
Note ON: Time 185160, Note Name: C5, Velocity: 73
Note ON: Time 185160, Note Name: D#5, Velocity: 86
Note OFF: Time 185220, Note Name: D#5
Note OFF: Time 185220, Note Name: C5
Note ON: Time 185220, Note Name: D5, Velocity: 75
Note ON: Time 185220, Note Name: F5, Velocity: 90
Note OFF: Time 185280, Note Name: F5
Note OFF: Time 185280, Note Name: D5
Note ON: Time 185280, Note Name: G5, Velocity: 106
Note ON: Time 185280, Note Name: D#5, Velocity: 74
Note OFF: Time 185340, Note Name: D#5
Note OFF: Time 185340, Note Name: G5
Note OFF: Time 185340, Note Name: A#5
Note ON: Time 185520, Note Name: E5, Velocity: 85
Note ON: Time 185520, Note Name: C5, Velocity: 85
Note ON: Time 185520, Note Name: C6, Velocity: 100
Note ON: Time 185520, Note Name: A#5, Velocity: 85
Note OFF: Time 185580, Note Name: A#5
Note OFF: Time 185580, Note Name: E5
Note OFF: Time 185580, Note Name: C5
Note OFF: Time 185580, Note Name: C6
Note ON: Time 185760, Note Name: A#5, Velocity: 91
Note ON: Time 185760, Note Name: D6, Velocity: 108
Note ON: Time 185760, Note Name: F5, Velocity: 91
Note ON: Time 185760, Note Name: D5, Velocity: 91
Note OFF: Time 185820, Note Name: D5
Note OFF: Time 185820, Note Name: A#5
Note OFF: Time 185820, Note Name: D6
Note OFF: Time 185820, Note Name: F5
Note ON: Time 186000, Note Name: D#5, Velocity: 82
Note ON: Time 186000, Note Name: A5, Velocity: 97
Note ON: Time 186000, Note Name: A4, Velocity: 82
Note OFF: Time 186060, Note Name: A4
Note OFF: Time 186060, Note Name: A5
Note OFF: Time 186060, Note Name: D#5
Note ON: Time 186240, Note Name: D5, Velocity: 87
Note ON: Time 186240, Note Name: A#4, Velocity: 87
Note ON: Time 186240, Note Name: A#5, Velocity: 103
Note OFF: Time 186300, Note Name: A#5
Note OFF: Time 186300, Note Name: A#4
Note OFF: Time 186300, Note Name: D5
Note ON: Time 186360, Note Name: F5, Velocity: 45
Note OFF: Time 186480, Note Name: F5
Note ON: Time 186480, Note Name: G5, Velocity: 50
Note OFF: Time 186600, Note Name: G5
Note ON: Time 186600, Note Name: F5, Velocity: 46
Note OFF: Time 186720, Note Name: F5
Note ON: Time 186720, Note Name: D#5, Velocity: 50
Note OFF: Time 186840, Note Name: D#5
Note ON: Time 186840, Note Name: D5, Velocity: 43
Note OFF: Time 186960, Note Name: D5
Note ON: Time 186960, Note Name: C5, Velocity: 46
Note OFF: Time 187080, Note Name: C5
Note ON: Time 187080, Note Name: A#4, Velocity: 43
Note OFF: Time 187200, Note Name: A#4
Note ON: Time 187200, Note Name: D#4, Velocity: 40
Note ON: Time 187200, Note Name: A4, Velocity: 50
Note OFF: Time 187320, Note Name: A4
Note ON: Time 187320, Note Name: G4, Velocity: 46
Note OFF: Time 187440, Note Name: G4
Note ON: Time 187440, Note Name: F4, Velocity: 47
Note OFF: Time 187910, Note Name: D#4
Note OFF: Time 187920, Note Name: F4
Note ON: Time 187920, Note Name: D#4, Velocity: 37
Note ON: Time 187920, Note Name: G4, Velocity: 44
Note OFF: Time 188040, Note Name: G4
Note ON: Time 188040, Note Name: A4, Velocity: 42
Note OFF: Time 188160, Note Name: A4
Note OFF: Time 188160, Note Name: D#4
Note ON: Time 188160, Note Name: D4, Velocity: 35
Note ON: Time 188160, Note Name: A#4, Velocity: 42
Note OFF: Time 188220, Note Name: A#4
Note OFF: Time 188220, Note Name: D4
Note ON: Time 188280, Note Name: F4, Velocity: 38
Note OFF: Time 188400, Note Name: F4
Note ON: Time 188400, Note Name: G4, Velocity: 42
Note OFF: Time 188520, Note Name: G4
Note ON: Time 188520, Note Name: F4, Velocity: 39
Note OFF: Time 188640, Note Name: F4
Note ON: Time 188640, Note Name: D#4, Velocity: 42
Note OFF: Time 188760, Note Name: D#4
Note ON: Time 188760, Note Name: D4, Velocity: 37
Note OFF: Time 188880, Note Name: D4
Note ON: Time 188880, Note Name: C4, Velocity: 39
Note OFF: Time 189000, Note Name: C4
Note ON: Time 189000, Note Name: A#3, Velocity: 37
Note OFF: Time 189120, Note Name: A#3
Note ON: Time 189120, Note Name: D#3, Velocity: 34
Note ON: Time 189120, Note Name: A3, Velocity: 42
Note OFF: Time 189240, Note Name: A3
Note ON: Time 189240, Note Name: G3, Velocity: 39
Note OFF: Time 189360, Note Name: G3
Note ON: Time 189360, Note Name: F3, Velocity: 39
Note OFF: Time 189830, Note Name: D#3
Note OFF: Time 189840, Note Name: F3
Note ON: Time 189840, Note Name: D#3, Velocity: 31
Note ON: Time 189840, Note Name: G3, Velocity: 37
Note OFF: Time 189960, Note Name: G3
Note ON: Time 189960, Note Name: A3, Velocity: 35
Note OFF: Time 190080, Note Name: A3
Note OFF: Time 190080, Note Name: D#3
Note ON: Time 190080, Note Name: D3, Velocity: 32
Note ON: Time 190080, Note Name: A#3, Velocity: 37
Note OFF: Time 190140, Note Name: A#3
Note OFF: Time 190140, Note Name: D3
Note ON: Time 190320, Note Name: D#4, Velocity: 42
Note ON: Time 190320, Note Name: A4, Velocity: 42
Note OFF: Time 190380, Note Name: A4
Note OFF: Time 190380, Note Name: D#4
Note ON: Time 190560, Note Name: D4, Velocity: 42
Note ON: Time 190560, Note Name: A#4, Velocity: 42
Note OFF: Time 190620, Note Name: A#4
Note OFF: Time 190620, Note Name: D4
Note ON: Time 190800, Note Name: C5, Velocity: 88
Note ON: Time 190800, Note Name: D#5, Velocity: 88
Note ON: Time 190800, Note Name: A5, Velocity: 105
Note OFF: Time 190860, Note Name: A5
Note OFF: Time 190860, Note Name: D#5
Note OFF: Time 190860, Note Name: C5
Note ON: Time 191040, Note Name: A#4, Velocity: 98
Note ON: Time 191040, Note Name: D5, Velocity: 98
Note ON: Time 191040, Note Name: A#5, Velocity: 116
Note OFF: Time 191100, Note Name: A#5
Note OFF: Time 191100, Note Name: D5
Note OFF: Time 191100, Note Name: A#4
Track 2: Piano left
Note ON: Time 960, Note Name: A#3, Velocity: 42
Note ON: Time 1080, Note Name: F4, Velocity: 34
Note OFF: Time 1200, Note Name: F4
Note OFF: Time 1200, Note Name: A#3
Note ON: Time 1200, Note Name: D4, Velocity: 38
Note ON: Time 1320, Note Name: F4, Velocity: 34
Note OFF: Time 1440, Note Name: F4
Note OFF: Time 1440, Note Name: D4
Note ON: Time 1440, Note Name: D#4, Velocity: 38
Note ON: Time 1440, Note Name: C4, Velocity: 38
Note OFF: Time 1560, Note Name: D#4
Note ON: Time 1560, Note Name: F4, Velocity: 34
Note OFF: Time 1680, Note Name: F4
Note OFF: Time 1680, Note Name: C4
Note ON: Time 1680, Note Name: D4, Velocity: 37
Note ON: Time 1680, Note Name: A#3, Velocity: 37
Note OFF: Time 1800, Note Name: D4
Note ON: Time 1800, Note Name: F4, Velocity: 34
Note OFF: Time 1920, Note Name: F4
Note OFF: Time 1920, Note Name: A#3
Note ON: Time 1920, Note Name: A3, Velocity: 43
Note ON: Time 1920, Note Name: D#4, Velocity: 43
Note ON: Time 2040, Note Name: F4, Velocity: 34
Note OFF: Time 2100, Note Name: F4
Note ON: Time 2160, Note Name: F4, Velocity: 34
Note OFF: Time 2220, Note Name: F4
Note ON: Time 2280, Note Name: F4, Velocity: 34
Note OFF: Time 2340, Note Name: F4
Note ON: Time 2400, Note Name: F4, Velocity: 37
Note OFF: Time 2460, Note Name: F4
Note ON: Time 2520, Note Name: F4, Velocity: 34
Note OFF: Time 2580, Note Name: F4
Note ON: Time 2640, Note Name: F4, Velocity: 34
Note OFF: Time 2700, Note Name: F4
Note ON: Time 2760, Note Name: F4, Velocity: 34
Note OFF: Time 2820, Note Name: F4
Note OFF: Time 2880, Note Name: D#4
Note OFF: Time 2880, Note Name: A3
Note ON: Time 2880, Note Name: A3, Velocity: 42
Note ON: Time 3000, Note Name: F4, Velocity: 34
Note OFF: Time 3120, Note Name: F4
Note OFF: Time 3120, Note Name: A3
Note ON: Time 3120, Note Name: D#4, Velocity: 38
Note ON: Time 3240, Note Name: F4, Velocity: 34
Note OFF: Time 3360, Note Name: F4
Note OFF: Time 3360, Note Name: D#4
Note ON: Time 3360, Note Name: D4, Velocity: 38
Note ON: Time 3480, Note Name: F4, Velocity: 34
Note OFF: Time 3600, Note Name: F4
Note OFF: Time 3600, Note Name: D4
Note ON: Time 3600, Note Name: A3, Velocity: 37
Note ON: Time 3720, Note Name: F4, Velocity: 34
Note OFF: Time 3840, Note Name: F4
Note OFF: Time 3840, Note Name: A3
Note ON: Time 3840, Note Name: A#3, Velocity: 43
Note ON: Time 3960, Note Name: F4, Velocity: 34
Note OFF: Time 4020, Note Name: F4
Note ON: Time 4080, Note Name: F4, Velocity: 34
Note OFF: Time 4140, Note Name: F4
Note ON: Time 4200, Note Name: F4, Velocity: 34
Note OFF: Time 4260, Note Name: F4
Note ON: Time 4320, Note Name: F4, Velocity: 37
Note OFF: Time 4380, Note Name: F4
Note ON: Time 4440, Note Name: F4, Velocity: 34
Note OFF: Time 4500, Note Name: F4
Note OFF: Time 4560, Note Name: A#3
Note ON: Time 4560, Note Name: B3, Velocity: 34
Note ON: Time 4680, Note Name: F4, Velocity: 34
Note OFF: Time 4740, Note Name: F4
Note OFF: Time 4800, Note Name: B3
Note ON: Time 4800, Note Name: C4, Velocity: 42
Note ON: Time 4920, Note Name: F4, Velocity: 34
Note OFF: Time 5040, Note Name: F4
Note OFF: Time 5040, Note Name: C4
Note ON: Time 5040, Note Name: A3, Velocity: 38
Note ON: Time 5160, Note Name: F4, Velocity: 34
Note OFF: Time 5280, Note Name: F4
Note OFF: Time 5280, Note Name: A3
Note ON: Time 5280, Note Name: A#3, Velocity: 42
Note ON: Time 5400, Note Name: F4, Velocity: 34
Note OFF: Time 5520, Note Name: F4
Note OFF: Time 5520, Note Name: A#3
Note ON: Time 5520, Note Name: B3, Velocity: 38
Note ON: Time 5640, Note Name: F4, Velocity: 34
Note OFF: Time 5760, Note Name: F4
Note OFF: Time 5760, Note Name: B3
Note ON: Time 5760, Note Name: C4, Velocity: 47
Note ON: Time 5880, Note Name: F4, Velocity: 34
Note OFF: Time 6000, Note Name: F4
Note OFF: Time 6000, Note Name: C4
Note ON: Time 6000, Note Name: A3, Velocity: 42
Note ON: Time 6120, Note Name: F4, Velocity: 34
Note OFF: Time 6240, Note Name: F4
Note OFF: Time 6240, Note Name: A3
Note ON: Time 6240, Note Name: A#3, Velocity: 52
Note ON: Time 6360, Note Name: D4, Velocity: 38
Note OFF: Time 6480, Note Name: D4
Note OFF: Time 6480, Note Name: A#3
Note ON: Time 6480, Note Name: A3, Velocity: 47
Note ON: Time 6600, Note Name: C4, Velocity: 42
Note OFF: Time 6720, Note Name: C4
Note OFF: Time 6720, Note Name: A3
Note ON: Time 6720, Note Name: G3, Velocity: 58
Note ON: Time 6840, Note Name: A#3, Velocity: 42
Note OFF: Time 6950, Note Name: G3
Note OFF: Time 6960, Note Name: A#3
Note ON: Time 6960, Note Name: G3, Velocity: 49
Note ON: Time 7080, Note Name: A#3, Velocity: 41
Note OFF: Time 7200, Note Name: A#3
Note OFF: Time 7200, Note Name: G3
Note ON: Time 7200, Note Name: C3, Velocity: 63
Note ON: Time 7320, Note Name: A#3, Velocity: 39
Note OFF: Time 7430, Note Name: C3
Note OFF: Time 7440, Note Name: A#3
Note ON: Time 7440, Note Name: C3, Velocity: 43
Note ON: Time 7560, Note Name: A#3, Velocity: 34
Note OFF: Time 7680, Note Name: A#3
Note OFF: Time 7680, Note Name: C3
Note ON: Time 7680, Note Name: F3, Velocity: 43
Note ON: Time 7800, Note Name: A#3, Velocity: 29
Note OFF: Time 7920, Note Name: A#3
Note ON: Time 7920, Note Name: A3, Velocity: 35
Note OFF: Time 8040, Note Name: A3
Note ON: Time 8040, Note Name: G3, Velocity: 29
Note OFF: Time 8160, Note Name: G3
Note ON: Time 8160, Note Name: A3, Velocity: 34
Note OFF: Time 8400, Note Name: A3
Note OFF: Time 8400, Note Name: F3
Note ON: Time 8640, Note Name: A#2, Velocity: 42
Note ON: Time 8760, Note Name: F3, Velocity: 34
Note OFF: Time 8880, Note Name: F3
Note OFF: Time 8880, Note Name: A#2
Note ON: Time 8880, Note Name: D3, Velocity: 38
Note ON: Time 9000, Note Name: F3, Velocity: 34
Note OFF: Time 9120, Note Name: F3
Note OFF: Time 9120, Note Name: D3
Note ON: Time 9120, Note Name: D#3, Velocity: 38
Note ON: Time 9120, Note Name: C3, Velocity: 38
Note OFF: Time 9240, Note Name: D#3
Note ON: Time 9240, Note Name: F3, Velocity: 34
Note OFF: Time 9360, Note Name: F3
Note OFF: Time 9360, Note Name: C3
Note ON: Time 9360, Note Name: D3, Velocity: 37
Note ON: Time 9360, Note Name: A#2, Velocity: 37
Note OFF: Time 9480, Note Name: D3
Note ON: Time 9480, Note Name: F3, Velocity: 34
Note OFF: Time 9600, Note Name: F3
Note OFF: Time 9600, Note Name: A#2
Note ON: Time 9600, Note Name: A2, Velocity: 43
Note ON: Time 9600, Note Name: D#3, Velocity: 43
Note ON: Time 9720, Note Name: F3, Velocity: 34
Note OFF: Time 9780, Note Name: F3
Note ON: Time 9840, Note Name: F3, Velocity: 34
Note OFF: Time 9900, Note Name: F3
Note ON: Time 9960, Note Name: F3, Velocity: 34
Note OFF: Time 10020, Note Name: F3
Note ON: Time 10080, Note Name: F3, Velocity: 37
Note OFF: Time 10140, Note Name: F3
Note ON: Time 10200, Note Name: F3, Velocity: 34
Note OFF: Time 10260, Note Name: F3
Note ON: Time 10320, Note Name: F3, Velocity: 34
Note OFF: Time 10380, Note Name: F3
Note ON: Time 10440, Note Name: F3, Velocity: 34
Note OFF: Time 10500, Note Name: F3
Note OFF: Time 10560, Note Name: D#3
Note OFF: Time 10560, Note Name: A2
Note ON: Time 10560, Note Name: A2, Velocity: 42
Note ON: Time 10680, Note Name: F3, Velocity: 34
Note OFF: Time 10800, Note Name: F3
Note OFF: Time 10800, Note Name: A2
Note ON: Time 10800, Note Name: D#3, Velocity: 38
Note ON: Time 10920, Note Name: F3, Velocity: 34
Note OFF: Time 11040, Note Name: F3
Note OFF: Time 11040, Note Name: D#3
Note ON: Time 11040, Note Name: D3, Velocity: 38
Note ON: Time 11160, Note Name: F3, Velocity: 34
Note OFF: Time 11280, Note Name: F3
Note OFF: Time 11280, Note Name: D3
Note ON: Time 11280, Note Name: A2, Velocity: 37
Note ON: Time 11400, Note Name: F3, Velocity: 34
Note OFF: Time 11520, Note Name: F3
Note OFF: Time 11520, Note Name: A2
Note ON: Time 11520, Note Name: A#2, Velocity: 43
Note ON: Time 11640, Note Name: F3, Velocity: 34
Note OFF: Time 11700, Note Name: F3
Note ON: Time 11760, Note Name: F3, Velocity: 34
Note OFF: Time 11820, Note Name: F3
Note ON: Time 11880, Note Name: F3, Velocity: 34
Note OFF: Time 11940, Note Name: F3
Note ON: Time 12000, Note Name: F3, Velocity: 37
Note OFF: Time 12060, Note Name: F3
Note ON: Time 12120, Note Name: F3, Velocity: 37
Note OFF: Time 12180, Note Name: F3
Note OFF: Time 12240, Note Name: A#2
Note ON: Time 12240, Note Name: B2, Velocity: 37
Note ON: Time 12360, Note Name: F3, Velocity: 37
Note OFF: Time 12420, Note Name: F3
Note OFF: Time 12480, Note Name: B2
Note ON: Time 12480, Note Name: C3, Velocity: 46
Note ON: Time 12600, Note Name: F3, Velocity: 38
Note OFF: Time 12720, Note Name: F3
Note OFF: Time 12720, Note Name: C3
Note ON: Time 12720, Note Name: F2, Velocity: 42
Note ON: Time 12840, Note Name: F3, Velocity: 38
Note OFF: Time 12960, Note Name: F3
Note OFF: Time 12960, Note Name: F2
Note ON: Time 12960, Note Name: A#2, Velocity: 47
Note ON: Time 13080, Note Name: F3, Velocity: 38
Note OFF: Time 13200, Note Name: F3
Note OFF: Time 13200, Note Name: A#2
Note ON: Time 13200, Note Name: B2, Velocity: 43
Note ON: Time 13320, Note Name: F3, Velocity: 39
Note OFF: Time 13440, Note Name: F3
Note OFF: Time 13440, Note Name: B2
Note ON: Time 13440, Note Name: C3, Velocity: 54
Note ON: Time 13560, Note Name: F3, Velocity: 39
Note OFF: Time 13680, Note Name: F3
Note OFF: Time 13680, Note Name: C3
Note ON: Time 13680, Note Name: F2, Velocity: 48
Note ON: Time 13800, Note Name: F3, Velocity: 39
Note OFF: Time 13920, Note Name: F3
Note OFF: Time 13920, Note Name: F2
Note ON: Time 13920, Note Name: A#2, Velocity: 56
Note ON: Time 14040, Note Name: F3, Velocity: 41
Note OFF: Time 14160, Note Name: F3
Note OFF: Time 14160, Note Name: A#2
Note ON: Time 14160, Note Name: G#2, Velocity: 50
Note ON: Time 14280, Note Name: A#2, Velocity: 45
Note OFF: Time 14400, Note Name: A#2
Note OFF: Time 14400, Note Name: G#2
Note ON: Time 14400, Note Name: G2, Velocity: 65
Note ON: Time 14520, Note Name: A#2, Velocity: 53
Note OFF: Time 14630, Note Name: G2
Note OFF: Time 14640, Note Name: A#2
Note ON: Time 14640, Note Name: D#2, Velocity: 61
Note ON: Time 14760, Note Name: D#3, Velocity: 53
Note OFF: Time 14880, Note Name: D#3
Note OFF: Time 14880, Note Name: D#2
Note ON: Time 14880, Note Name: F2, Velocity: 56
Note ON: Time 15000, Note Name: D3, Velocity: 42
Note OFF: Time 15110, Note Name: F2
Note OFF: Time 15120, Note Name: D3
Note ON: Time 15120, Note Name: F2, Velocity: 49
Note ON: Time 15240, Note Name: A2, Velocity: 43
Note OFF: Time 15360, Note Name: A2
Note OFF: Time 15360, Note Name: F2
Note ON: Time 15360, Note Name: A#1, Velocity: 43
Note OFF: Time 15480, Note Name: A#1
Note ON: Time 15480, Note Name: A#2, Velocity: 29
Note ON: Time 15600, Note Name: A#3, Velocity: 35
Note OFF: Time 15660, Note Name: A#3
Note ON: Time 15720, Note Name: A#3, Velocity: 29
Note OFF: Time 15780, Note Name: A#3
Note ON: Time 15840, Note Name: A#3, Velocity: 37
Note OFF: Time 15900, Note Name: A#3
Note ON: Time 15960, Note Name: A#3, Velocity: 35
Note OFF: Time 16020, Note Name: A#3
Note OFF: Time 16080, Note Name: A#2
Note ON: Time 16080, Note Name: G#3, Velocity: 43
Note ON: Time 16200, Note Name: A#3, Velocity: 39
Note OFF: Time 16320, Note Name: A#3
Note OFF: Time 16320, Note Name: G#3
Note ON: Time 16320, Note Name: G3, Velocity: 52
Note ON: Time 16440, Note Name: A#3, Velocity: 46
Note OFF: Time 16560, Note Name: A#3
Note OFF: Time 16560, Note Name: G3
Note ON: Time 16560, Note Name: D#3, Velocity: 56
Note ON: Time 16680, Note Name: D#4, Velocity: 50
Note OFF: Time 16800, Note Name: D#4
Note OFF: Time 16800, Note Name: D#3
Note ON: Time 16800, Note Name: F3, Velocity: 35
Note ON: Time 16920, Note Name: D4, Velocity: 29
Note OFF: Time 17030, Note Name: F3
Note OFF: Time 17040, Note Name: D4
Note ON: Time 17040, Note Name: F3, Velocity: 35
Note ON: Time 17160, Note Name: A3, Velocity: 29
Note OFF: Time 17280, Note Name: A3
Note OFF: Time 17280, Note Name: F3
Note ON: Time 17280, Note Name: A#2, Velocity: 33
Note ON: Time 17280, Note Name: A#3, Velocity: 39
Note OFF: Time 17520, Note Name: A#3
Note OFF: Time 17520, Note Name: A#2
Note ON: Time 17760, Note Name: A#3, Velocity: 50
Note ON: Time 17760, Note Name: D4, Velocity: 60
Note OFF: Time 18240, Note Name: D4
Note OFF: Time 18240, Note Name: A#3
Note ON: Time 18240, Note Name: D#3, Velocity: 38
Note ON: Time 18240, Note Name: C4, Velocity: 45
Note OFF: Time 18960, Note Name: C4
Note OFF: Time 18960, Note Name: D#3
Note ON: Time 18960, Note Name: F3, Velocity: 34
Note ON: Time 18960, Note Name: C4, Velocity: 41
Note OFF: Time 19200, Note Name: C4
Note OFF: Time 19200, Note Name: F3
Note ON: Time 19200, Note Name: A#2, Velocity: 42
Note ON: Time 19200, Note Name: A#3, Velocity: 50
Note OFF: Time 19440, Note Name: A#3
Note OFF: Time 19440, Note Name: A#2
Note ON: Time 19680, Note Name: A#3, Velocity: 50
Note ON: Time 19680, Note Name: D4, Velocity: 60
Note OFF: Time 20160, Note Name: D4
Note OFF: Time 20160, Note Name: A#3
Note ON: Time 20160, Note Name: E3, Velocity: 41
Note ON: Time 20160, Note Name: G3, Velocity: 41
Note OFF: Time 20640, Note Name: G3
Note OFF: Time 20640, Note Name: E3
Note ON: Time 20640, Note Name: C3, Velocity: 41
Note ON: Time 20640, Note Name: C4, Velocity: 41
Note OFF: Time 21120, Note Name: C4
Note OFF: Time 21120, Note Name: C3
Note ON: Time 21120, Note Name: F3, Velocity: 42
Note ON: Time 21120, Note Name: C4, Velocity: 50
Note OFF: Time 21600, Note Name: C4
Note OFF: Time 21600, Note Name: F3
Note ON: Time 21600, Note Name: A2, Velocity: 62
Note ON: Time 21660, Note Name: F3, Velocity: 52
Note ON: Time 21720, Note Name: A3, Velocity: 54
Note OFF: Time 22080, Note Name: A3
Note OFF: Time 22080, Note Name: F3
Note OFF: Time 22080, Note Name: A2
Note ON: Time 22080, Note Name: A#2, Velocity: 65
Note ON: Time 22140, Note Name: F3, Velocity: 54
Note ON: Time 22200, Note Name: A3, Velocity: 57
Note OFF: Time 22560, Note Name: A3
Note OFF: Time 22560, Note Name: F3
Note OFF: Time 22560, Note Name: A#2
Note ON: Time 22560, Note Name: C3, Velocity: 68
Note ON: Time 22620, Note Name: F3, Velocity: 57
Note ON: Time 22680, Note Name: A3, Velocity: 59
Note OFF: Time 23040, Note Name: A3
Note OFF: Time 23040, Note Name: F3
Note OFF: Time 23040, Note Name: C3
Note ON: Time 23040, Note Name: D3, Velocity: 71
Note ON: Time 23100, Note Name: F3, Velocity: 59
Note ON: Time 23160, Note Name: A3, Velocity: 62
Note OFF: Time 23520, Note Name: A3
Note OFF: Time 23520, Note Name: F3
Note OFF: Time 23520, Note Name: D3
Note ON: Time 23520, Note Name: D4, Velocity: 53
Note ON: Time 23520, Note Name: F4, Velocity: 53
Note ON: Time 23520, Note Name: A4, Velocity: 63
Note OFF: Time 23760, Note Name: A4
Note ON: Time 23760, Note Name: B4, Velocity: 59
Note OFF: Time 24000, Note Name: F4
Note OFF: Time 24000, Note Name: D4
Note ON: Time 24000, Note Name: C4, Velocity: 54
Note ON: Time 24000, Note Name: G4, Velocity: 64
Note OFF: Time 24240, Note Name: B4
Note ON: Time 24240, Note Name: C5, Velocity: 58
Note OFF: Time 24360, Note Name: C5
Note OFF: Time 24480, Note Name: G4
Note OFF: Time 24480, Note Name: C4
Note ON: Time 24480, Note Name: A#3, Velocity: 53
Note ON: Time 24480, Note Name: D4, Velocity: 53
Note ON: Time 24480, Note Name: F4, Velocity: 63
Note OFF: Time 24720, Note Name: F4
Note ON: Time 24720, Note Name: E4, Velocity: 50
Note ON: Time 24720, Note Name: G4, Velocity: 59
Note OFF: Time 24960, Note Name: D4
Note OFF: Time 24960, Note Name: A#3
Note ON: Time 24960, Note Name: A3, Velocity: 54
Note OFF: Time 25200, Note Name: E4
Note OFF: Time 25200, Note Name: G4
Note ON: Time 25200, Note Name: F4, Velocity: 50
Note ON: Time 25200, Note Name: A4, Velocity: 58
Note OFF: Time 25320, Note Name: A4
Note OFF: Time 25320, Note Name: F4
Note OFF: Time 25440, Note Name: A3
Note ON: Time 25440, Note Name: G3, Velocity: 53
Note ON: Time 25440, Note Name: A#3, Velocity: 53
Note ON: Time 25440, Note Name: D4, Velocity: 63
Note OFF: Time 25680, Note Name: D4
Note ON: Time 25680, Note Name: E4, Velocity: 59
Note OFF: Time 25920, Note Name: E4
Note OFF: Time 25920, Note Name: A#3
Note OFF: Time 25920, Note Name: G3
Note ON: Time 25920, Note Name: C4, Velocity: 58
Note ON: Time 25920, Note Name: F4, Velocity: 58
Note ON: Time 25920, Note Name: F3, Velocity: 58
Note OFF: Time 26160, Note Name: F3
Note OFF: Time 26160, Note Name: F4
Note OFF: Time 26160, Note Name: C4
Note ON: Time 26160, Note Name: A#2, Velocity: 45
Note ON: Time 26160, Note Name: A#3, Velocity: 53
Note OFF: Time 26280, Note Name: A#3
Note OFF: Time 26280, Note Name: A#2
Note ON: Time 26400, Note Name: C3, Velocity: 51
Note ON: Time 26400, Note Name: A3, Velocity: 60
Note OFF: Time 26520, Note Name: A3
Note OFF: Time 26520, Note Name: C3
Note ON: Time 26640, Note Name: C3, Velocity: 45
Note ON: Time 26640, Note Name: E3, Velocity: 54
Note OFF: Time 26760, Note Name: E3
Note OFF: Time 26760, Note Name: C3
Note ON: Time 26880, Note Name: F2, Velocity: 51
Note ON: Time 26880, Note Name: F3, Velocity: 60
Note OFF: Time 27120, Note Name: F3
Note OFF: Time 27120, Note Name: F2
Note ON: Time 27360, Note Name: D3, Velocity: 58
Note ON: Time 27360, Note Name: F3, Velocity: 58
Note OFF: Time 27600, Note Name: F3
Note ON: Time 27600, Note Name: G#3, Velocity: 52
Note OFF: Time 27840, Note Name: D3
Note ON: Time 27840, Note Name: C3, Velocity: 62
Note OFF: Time 28080, Note Name: G#3
Note ON: Time 28080, Note Name: A3, Velocity: 58
Note OFF: Time 28200, Note Name: A3
Note OFF: Time 28320, Note Name: C3
Note ON: Time 28320, Note Name: A#2, Velocity: 58
Note ON: Time 28320, Note Name: D3, Velocity: 58
Note OFF: Time 28560, Note Name: D3
Note ON: Time 28560, Note Name: E3, Velocity: 52
Note OFF: Time 28800, Note Name: A#2
Note ON: Time 28800, Note Name: A2, Velocity: 62
Note OFF: Time 29040, Note Name: E3
Note ON: Time 29040, Note Name: F3, Velocity: 58
Note OFF: Time 29160, Note Name: F3
Note OFF: Time 29280, Note Name: A2
Note ON: Time 29280, Note Name: G2, Velocity: 62
Note ON: Time 29280, Note Name: D3, Velocity: 58
Note OFF: Time 29520, Note Name: D3
Note ON: Time 29520, Note Name: C#3, Velocity: 52
Note OFF: Time 29760, Note Name: G2
Note ON: Time 29760, Note Name: F2, Velocity: 62
Note OFF: Time 29880, Note Name: C#3
Note ON: Time 29880, Note Name: C3, Velocity: 51
Note OFF: Time 30000, Note Name: F2
Note ON: Time 30000, Note Name: A#1, Velocity: 57
Note OFF: Time 30120, Note Name: C3
Note ON: Time 30120, Note Name: A#2, Velocity: 54
Note OFF: Time 30240, Note Name: A#1
Note ON: Time 30240, Note Name: C2, Velocity: 59
Note OFF: Time 30360, Note Name: A#2
Note ON: Time 30360, Note Name: A2, Velocity: 55
Note OFF: Time 30480, Note Name: C2
Note ON: Time 30480, Note Name: C2, Velocity: 62
Note OFF: Time 30600, Note Name: A2
Note ON: Time 30600, Note Name: G2, Velocity: 57
Note OFF: Time 30720, Note Name: G2
Note OFF: Time 30720, Note Name: C2
Note ON: Time 30720, Note Name: F1, Velocity: 64
Note OFF: Time 30960, Note Name: F1
Note ON: Time 30960, Note Name: F2, Velocity: 46
Note ON: Time 31200, Note Name: A2, Velocity: 46
Note ON: Time 31440, Note Name: C3, Velocity: 46
Note OFF: Time 31680, Note Name: C3
Note OFF: Time 31680, Note Name: A2
Note OFF: Time 31680, Note Name: F2
Note ON: Time 31680, Note Name: F2, Velocity: 54
Note ON: Time 31680, Note Name: G2, Velocity: 54
Note ON: Time 31920, Note Name: A#2, Velocity: 47
Note ON: Time 32160, Note Name: C3, Velocity: 47
Note ON: Time 32400, Note Name: E3, Velocity: 47
Note OFF: Time 32640, Note Name: E3
Note OFF: Time 32640, Note Name: A#2
Note OFF: Time 32640, Note Name: F2
Note OFF: Time 32640, Note Name: G2
Note OFF: Time 32640, Note Name: C3
Note ON: Time 32640, Note Name: F2, Velocity: 64
Note OFF: Time 32880, Note Name: F2
Note ON: Time 32880, Note Name: F3, Velocity: 46
Note ON: Time 33120, Note Name: A3, Velocity: 46
Note ON: Time 33360, Note Name: C4, Velocity: 46
Note OFF: Time 33600, Note Name: C4
Note OFF: Time 33600, Note Name: A3
Note OFF: Time 33600, Note Name: F3
Note ON: Time 33600, Note Name: F3, Velocity: 54
Note ON: Time 33600, Note Name: G3, Velocity: 54
Note ON: Time 33840, Note Name: A#3, Velocity: 47
Note ON: Time 34080, Note Name: C4, Velocity: 47
Note ON: Time 34320, Note Name: E4, Velocity: 47
Note OFF: Time 34560, Note Name: E4
Note OFF: Time 34560, Note Name: A#3
Note OFF: Time 34560, Note Name: F3
Note OFF: Time 34560, Note Name: G3
Note OFF: Time 34560, Note Name: C4
Note ON: Time 34560, Note Name: F2, Velocity: 75
Note OFF: Time 34800, Note Name: F2
Note ON: Time 34800, Note Name: F3, Velocity: 57
Note ON: Time 35040, Note Name: A3, Velocity: 57
Note ON: Time 35280, Note Name: C4, Velocity: 58
Note OFF: Time 35520, Note Name: C4
Note OFF: Time 35520, Note Name: A3
Note OFF: Time 35520, Note Name: F3
Note ON: Time 35520, Note Name: D#2, Velocity: 82
Note OFF: Time 35760, Note Name: D#2
Note ON: Time 35760, Note Name: D#3, Velocity: 63
Note ON: Time 36000, Note Name: A3, Velocity: 64
Note ON: Time 36240, Note Name: C4, Velocity: 64
Note OFF: Time 36480, Note Name: C4
Note OFF: Time 36480, Note Name: A3
Note OFF: Time 36480, Note Name: D#3
Note ON: Time 36480, Note Name: C#2, Velocity: 91
Note OFF: Time 36720, Note Name: C#2
Note ON: Time 36720, Note Name: C#3, Velocity: 66
Note ON: Time 36960, Note Name: F3, Velocity: 67
Note ON: Time 37200, Note Name: A#3, Velocity: 67
Note OFF: Time 37440, Note Name: A#3
Note OFF: Time 37440, Note Name: F3
Note OFF: Time 37440, Note Name: C#3
Note ON: Time 37440, Note Name: F#2, Velocity: 94
Note ON: Time 37680, Note Name: A#2, Velocity: 68
Note OFF: Time 37920, Note Name: A#2
Note ON: Time 37920, Note Name: C#3, Velocity: 72
Note OFF: Time 38160, Note Name: C#3
Note ON: Time 38160, Note Name: E3, Velocity: 75
Note OFF: Time 38400, Note Name: E3
Note OFF: Time 38400, Note Name: F#2
Note ON: Time 38400, Note Name: F2, Velocity: 72
Note ON: Time 38400, Note Name: F3, Velocity: 84
Note OFF: Time 39000, Note Name: F3
Note OFF: Time 39000, Note Name: F2
Note ON: Time 39000, Note Name: C3, Velocity: 40
Note OFF: Time 39120, Note Name: C3
Note ON: Time 39120, Note Name: D3, Velocity: 45
Note OFF: Time 39240, Note Name: D3
Note ON: Time 39240, Note Name: C3, Velocity: 41
Note OFF: Time 39360, Note Name: C3
Note ON: Time 39360, Note Name: A#2, Velocity: 45
Note OFF: Time 39480, Note Name: A#2
Note ON: Time 39480, Note Name: A2, Velocity: 40
Note OFF: Time 39600, Note Name: A2
Note ON: Time 39600, Note Name: G2, Velocity: 43
Note OFF: Time 39720, Note Name: G2
Note ON: Time 39720, Note Name: F2, Velocity: 40
Note OFF: Time 39810, Note Name: F2
Note ON: Time 39840, Note Name: F2, Velocity: 45
Note OFF: Time 40080, Note Name: F2
Note ON: Time 40920, Note Name: D#3, Velocity: 38
Note OFF: Time 40960, Note Name: D#3
Note ON: Time 40960, Note Name: F3, Velocity: 40
Note OFF: Time 41000, Note Name: F3
Note ON: Time 41000, Note Name: D#3, Velocity: 38
Note OFF: Time 41040, Note Name: D#3
Note ON: Time 41040, Note Name: F3, Velocity: 45
Note OFF: Time 41160, Note Name: F3
Note ON: Time 41160, Note Name: D#3, Velocity: 41
Note OFF: Time 41280, Note Name: D#3
Note ON: Time 41280, Note Name: D3, Velocity: 45
Note OFF: Time 41400, Note Name: D3
Note ON: Time 41400, Note Name: C3, Velocity: 40
Note OFF: Time 41520, Note Name: C3
Note ON: Time 41520, Note Name: A#2, Velocity: 43
Note OFF: Time 41640, Note Name: A#2
Note ON: Time 41640, Note Name: A2, Velocity: 40
Note OFF: Time 41730, Note Name: A2
Note ON: Time 41760, Note Name: A2, Velocity: 45
Note OFF: Time 42000, Note Name: A2
Note ON: Time 42840, Note Name: C4, Velocity: 40
Note OFF: Time 42960, Note Name: C4
Note ON: Time 42960, Note Name: D4, Velocity: 45
Note OFF: Time 43080, Note Name: D4
Note ON: Time 43080, Note Name: C4, Velocity: 41
Note OFF: Time 43200, Note Name: C4
Note ON: Time 43200, Note Name: A#3, Velocity: 45
Note OFF: Time 43320, Note Name: A#3
Note ON: Time 43320, Note Name: A3, Velocity: 40
Note OFF: Time 43440, Note Name: A3
Note ON: Time 43440, Note Name: G3, Velocity: 43
Note OFF: Time 43560, Note Name: G3
Note ON: Time 43560, Note Name: F3, Velocity: 40
Note OFF: Time 43650, Note Name: F3
Note ON: Time 43800, Note Name: D#4, Velocity: 40
Note OFF: Time 43920, Note Name: D#4
Note ON: Time 43920, Note Name: F4, Velocity: 45
Note OFF: Time 44040, Note Name: F4
Note ON: Time 44040, Note Name: D#4, Velocity: 41
Note OFF: Time 44160, Note Name: D#4
Note ON: Time 44160, Note Name: D4, Velocity: 45
Note OFF: Time 44280, Note Name: D4
Note ON: Time 44280, Note Name: C4, Velocity: 40
Note OFF: Time 44400, Note Name: C4
Note ON: Time 44400, Note Name: A#3, Velocity: 43
Note OFF: Time 44520, Note Name: A#3
Note ON: Time 44520, Note Name: A3, Velocity: 40
Note OFF: Time 44610, Note Name: A3
Note ON: Time 48000, Note Name: A#3, Velocity: 42
Note ON: Time 48120, Note Name: F4, Velocity: 34
Note OFF: Time 48240, Note Name: F4
Note OFF: Time 48240, Note Name: A#3
Note ON: Time 48240, Note Name: D4, Velocity: 38
Note ON: Time 48360, Note Name: F4, Velocity: 34
Note OFF: Time 48480, Note Name: F4
Note OFF: Time 48480, Note Name: D4
Note ON: Time 48480, Note Name: D#4, Velocity: 38
Note ON: Time 48480, Note Name: C4, Velocity: 38
Note OFF: Time 48600, Note Name: D#4
Note ON: Time 48600, Note Name: F4, Velocity: 34
Note OFF: Time 48720, Note Name: F4
Note OFF: Time 48720, Note Name: C4
Note ON: Time 48720, Note Name: D4, Velocity: 37
Note ON: Time 48720, Note Name: A#3, Velocity: 37
Note OFF: Time 48840, Note Name: D4
Note ON: Time 48840, Note Name: F4, Velocity: 34
Note OFF: Time 48960, Note Name: F4
Note OFF: Time 48960, Note Name: A#3
Note ON: Time 48960, Note Name: A3, Velocity: 43
Note ON: Time 48960, Note Name: D#4, Velocity: 43
Note ON: Time 49080, Note Name: F4, Velocity: 34
Note OFF: Time 49140, Note Name: F4
Note ON: Time 49200, Note Name: F4, Velocity: 34
Note OFF: Time 49260, Note Name: F4
Note ON: Time 49320, Note Name: F4, Velocity: 34
Note OFF: Time 49380, Note Name: F4
Note ON: Time 49440, Note Name: F4, Velocity: 37
Note OFF: Time 49500, Note Name: F4
Note ON: Time 49560, Note Name: F4, Velocity: 34
Note OFF: Time 49620, Note Name: F4
Note ON: Time 49680, Note Name: F4, Velocity: 34
Note OFF: Time 49740, Note Name: F4
Note ON: Time 49800, Note Name: F4, Velocity: 34
Note OFF: Time 49860, Note Name: F4
Note OFF: Time 49920, Note Name: D#4
Note OFF: Time 49920, Note Name: A3
Note ON: Time 49920, Note Name: A3, Velocity: 42
Note ON: Time 50040, Note Name: F4, Velocity: 34
Note OFF: Time 50160, Note Name: F4
Note OFF: Time 50160, Note Name: A3
Note ON: Time 50160, Note Name: D#4, Velocity: 38
Note ON: Time 50280, Note Name: F4, Velocity: 34
Note OFF: Time 50400, Note Name: F4
Note OFF: Time 50400, Note Name: D#4
Note ON: Time 50400, Note Name: D4, Velocity: 38
Note ON: Time 50520, Note Name: F4, Velocity: 34
Note OFF: Time 50640, Note Name: F4
Note OFF: Time 50640, Note Name: D4
Note ON: Time 50640, Note Name: A3, Velocity: 37
Note ON: Time 50760, Note Name: F4, Velocity: 34
Note OFF: Time 50880, Note Name: F4
Note OFF: Time 50880, Note Name: A3
Note ON: Time 50880, Note Name: A#3, Velocity: 47
Note ON: Time 51000, Note Name: F4, Velocity: 37
Note OFF: Time 51060, Note Name: F4
Note ON: Time 51120, Note Name: F4, Velocity: 37
Note OFF: Time 51180, Note Name: F4
Note ON: Time 51240, Note Name: F4, Velocity: 37
Note OFF: Time 51300, Note Name: F4
Note ON: Time 51360, Note Name: F4, Velocity: 41
Note OFF: Time 51420, Note Name: F4
Note ON: Time 51480, Note Name: F4, Velocity: 37
Note OFF: Time 51540, Note Name: F4
Note OFF: Time 51600, Note Name: A#3
Note ON: Time 51600, Note Name: B3, Velocity: 37
Note ON: Time 51720, Note Name: F4, Velocity: 38
Note OFF: Time 51780, Note Name: F4
Note OFF: Time 51840, Note Name: B3
Note ON: Time 51840, Note Name: C4, Velocity: 47
Note ON: Time 51960, Note Name: F4, Velocity: 38
Note OFF: Time 52080, Note Name: F4
Note OFF: Time 52080, Note Name: C4
Note ON: Time 52080, Note Name: A3, Velocity: 42
Note ON: Time 52200, Note Name: F4, Velocity: 38
Note OFF: Time 52320, Note Name: F4
Note OFF: Time 52320, Note Name: A3
Note ON: Time 52320, Note Name: A#3, Velocity: 47
Note ON: Time 52440, Note Name: F4, Velocity: 38
Note OFF: Time 52560, Note Name: F4
Note OFF: Time 52560, Note Name: A#3
Note ON: Time 52560, Note Name: B3, Velocity: 43
Note ON: Time 52680, Note Name: F4, Velocity: 38
Note OFF: Time 52800, Note Name: F4
Note OFF: Time 52800, Note Name: B3
Note ON: Time 52800, Note Name: C4, Velocity: 54
Note ON: Time 52920, Note Name: F4, Velocity: 39
Note OFF: Time 53040, Note Name: F4
Note OFF: Time 53040, Note Name: C4
Note ON: Time 53040, Note Name: A3, Velocity: 48
Note ON: Time 53160, Note Name: F4, Velocity: 39
Note OFF: Time 53280, Note Name: F4
Note OFF: Time 53280, Note Name: A3
Note ON: Time 53280, Note Name: A#3, Velocity: 55
Note ON: Time 53400, Note Name: D4, Velocity: 40
Note OFF: Time 53520, Note Name: D4
Note OFF: Time 53520, Note Name: A#3
Note ON: Time 53520, Note Name: A3, Velocity: 49
Note ON: Time 53640, Note Name: C4, Velocity: 44
Note OFF: Time 53760, Note Name: C4
Note OFF: Time 53760, Note Name: A3
Note ON: Time 53760, Note Name: G3, Velocity: 60
Note ON: Time 53880, Note Name: A#3, Velocity: 43
Note OFF: Time 53990, Note Name: G3
Note OFF: Time 54000, Note Name: A#3
Note ON: Time 54000, Note Name: G3, Velocity: 50
Note ON: Time 54120, Note Name: A#3, Velocity: 42
Note OFF: Time 54240, Note Name: A#3
Note OFF: Time 54240, Note Name: G3
Note ON: Time 54240, Note Name: C3, Velocity: 57
Note ON: Time 54360, Note Name: A#3, Velocity: 40
Note OFF: Time 54470, Note Name: C3
Note OFF: Time 54480, Note Name: A#3
Note ON: Time 54480, Note Name: C3, Velocity: 44
Note ON: Time 54600, Note Name: A#3, Velocity: 40
Note OFF: Time 54720, Note Name: A#3
Note OFF: Time 54720, Note Name: C3
Note ON: Time 54720, Note Name: F3, Velocity: 43
Note ON: Time 54840, Note Name: A#3, Velocity: 29
Note OFF: Time 54960, Note Name: A#3
Note ON: Time 54960, Note Name: A3, Velocity: 35
Note OFF: Time 55080, Note Name: A3
Note ON: Time 55080, Note Name: G3, Velocity: 29
Note OFF: Time 55200, Note Name: G3
Note ON: Time 55200, Note Name: A3, Velocity: 34
Note OFF: Time 55440, Note Name: A3
Note OFF: Time 55440, Note Name: F3
Note ON: Time 55680, Note Name: A#2, Velocity: 42
Note ON: Time 55800, Note Name: F3, Velocity: 34
Note OFF: Time 55920, Note Name: F3
Note OFF: Time 55920, Note Name: A#2
Note ON: Time 55920, Note Name: D3, Velocity: 38
Note ON: Time 56040, Note Name: F3, Velocity: 34
Note OFF: Time 56160, Note Name: F3
Note OFF: Time 56160, Note Name: D3
Note ON: Time 56160, Note Name: D#3, Velocity: 38
Note ON: Time 56160, Note Name: C3, Velocity: 38
Note OFF: Time 56280, Note Name: D#3
Note ON: Time 56280, Note Name: F3, Velocity: 34
Note OFF: Time 56400, Note Name: F3
Note OFF: Time 56400, Note Name: C3
Note ON: Time 56400, Note Name: D3, Velocity: 37
Note ON: Time 56400, Note Name: A#2, Velocity: 37
Note OFF: Time 56520, Note Name: D3
Note ON: Time 56520, Note Name: F3, Velocity: 34
Note OFF: Time 56640, Note Name: F3
Note OFF: Time 56640, Note Name: A#2
Note ON: Time 56640, Note Name: A2, Velocity: 43
Note ON: Time 56640, Note Name: D#3, Velocity: 43
Note ON: Time 56760, Note Name: F3, Velocity: 34
Note OFF: Time 56820, Note Name: F3
Note ON: Time 56880, Note Name: F3, Velocity: 34
Note OFF: Time 56940, Note Name: F3
Note ON: Time 57000, Note Name: F3, Velocity: 34
Note OFF: Time 57060, Note Name: F3
Note ON: Time 57120, Note Name: F3, Velocity: 37
Note OFF: Time 57180, Note Name: F3
Note ON: Time 57240, Note Name: F3, Velocity: 34
Note OFF: Time 57300, Note Name: F3
Note ON: Time 57360, Note Name: F3, Velocity: 34
Note OFF: Time 57420, Note Name: F3
Note ON: Time 57480, Note Name: F3, Velocity: 34
Note OFF: Time 57540, Note Name: F3
Note OFF: Time 57600, Note Name: D#3
Note OFF: Time 57600, Note Name: A2
Note ON: Time 57600, Note Name: A2, Velocity: 42
Note ON: Time 57720, Note Name: F3, Velocity: 34
Note OFF: Time 57840, Note Name: F3
Note OFF: Time 57840, Note Name: A2
Note ON: Time 57840, Note Name: D#3, Velocity: 38
Note ON: Time 57960, Note Name: F3, Velocity: 34
Note OFF: Time 58080, Note Name: F3
Note OFF: Time 58080, Note Name: D#3
Note ON: Time 58080, Note Name: D3, Velocity: 38
Note ON: Time 58200, Note Name: F3, Velocity: 34
Note OFF: Time 58320, Note Name: F3
Note OFF: Time 58320, Note Name: D3
Note ON: Time 58320, Note Name: A2, Velocity: 37
Note ON: Time 58440, Note Name: F3, Velocity: 34
Note OFF: Time 58560, Note Name: F3
Note OFF: Time 58560, Note Name: A2
Note ON: Time 58560, Note Name: A#2, Velocity: 43
Note ON: Time 58680, Note Name: F3, Velocity: 34
Note OFF: Time 58740, Note Name: F3
Note ON: Time 58800, Note Name: F3, Velocity: 34
Note OFF: Time 58860, Note Name: F3
Note ON: Time 58920, Note Name: F3, Velocity: 34
Note OFF: Time 58980, Note Name: F3
Note ON: Time 59040, Note Name: F3, Velocity: 37
Note OFF: Time 59100, Note Name: F3
Note ON: Time 59160, Note Name: F3, Velocity: 37
Note OFF: Time 59220, Note Name: F3
Note OFF: Time 59280, Note Name: A#2
Note ON: Time 59280, Note Name: B2, Velocity: 37
Note ON: Time 59400, Note Name: F3, Velocity: 37
Note OFF: Time 59460, Note Name: F3
Note OFF: Time 59520, Note Name: B2
Note ON: Time 59520, Note Name: C3, Velocity: 46
Note ON: Time 59640, Note Name: F3, Velocity: 38
Note OFF: Time 59760, Note Name: F3
Note OFF: Time 59760, Note Name: C3
Note ON: Time 59760, Note Name: F2, Velocity: 42
Note ON: Time 59880, Note Name: F3, Velocity: 38
Note OFF: Time 60000, Note Name: F3
Note OFF: Time 60000, Note Name: F2
Note ON: Time 60000, Note Name: A#2, Velocity: 47
Note ON: Time 60120, Note Name: F3, Velocity: 38
Note OFF: Time 60240, Note Name: F3
Note OFF: Time 60240, Note Name: A#2
Note ON: Time 60240, Note Name: B2, Velocity: 43
Note ON: Time 60360, Note Name: F3, Velocity: 39
Note OFF: Time 60480, Note Name: F3
Note OFF: Time 60480, Note Name: B2
Note ON: Time 60480, Note Name: C3, Velocity: 54
Note ON: Time 60600, Note Name: F3, Velocity: 39
Note OFF: Time 60720, Note Name: F3
Note OFF: Time 60720, Note Name: C3
Note ON: Time 60720, Note Name: F2, Velocity: 48
Note ON: Time 60840, Note Name: F3, Velocity: 39
Note OFF: Time 60960, Note Name: F3
Note OFF: Time 60960, Note Name: F2
Note ON: Time 60960, Note Name: A#2, Velocity: 56
Note ON: Time 61080, Note Name: F3, Velocity: 41
Note OFF: Time 61200, Note Name: F3
Note OFF: Time 61200, Note Name: A#2
Note ON: Time 61200, Note Name: G#2, Velocity: 50
Note ON: Time 61320, Note Name: A#2, Velocity: 45
Note OFF: Time 61440, Note Name: A#2
Note OFF: Time 61440, Note Name: G#2
Note ON: Time 61440, Note Name: G2, Velocity: 62
Note ON: Time 61560, Note Name: A#2, Velocity: 51
Note OFF: Time 61670, Note Name: G2
Note OFF: Time 61680, Note Name: A#2
Note ON: Time 61680, Note Name: D#2, Velocity: 58
Note ON: Time 61800, Note Name: D#3, Velocity: 51
Note OFF: Time 61920, Note Name: D#3
Note OFF: Time 61920, Note Name: D#2
Note ON: Time 61920, Note Name: F2, Velocity: 56
Note ON: Time 62040, Note Name: D3, Velocity: 42
Note OFF: Time 62150, Note Name: F2
Note OFF: Time 62160, Note Name: D3
Note ON: Time 62160, Note Name: F2, Velocity: 49
Note ON: Time 62280, Note Name: A2, Velocity: 43
Note OFF: Time 62400, Note Name: A2
Note OFF: Time 62400, Note Name: F2
Note ON: Time 62400, Note Name: A#1, Velocity: 43
Note OFF: Time 62520, Note Name: A#1
Note ON: Time 62520, Note Name: A#2, Velocity: 29
Note ON: Time 62640, Note Name: A#3, Velocity: 35
Note OFF: Time 62700, Note Name: A#3
Note ON: Time 62760, Note Name: A#3, Velocity: 29
Note OFF: Time 62820, Note Name: A#3
Note ON: Time 62880, Note Name: A#3, Velocity: 40
Note OFF: Time 62940, Note Name: A#3
Note ON: Time 63000, Note Name: A#3, Velocity: 35
Note OFF: Time 63060, Note Name: A#3
Note OFF: Time 63120, Note Name: A#2
Note ON: Time 63120, Note Name: G#3, Velocity: 43
Note ON: Time 63240, Note Name: A#3, Velocity: 39
Note OFF: Time 63360, Note Name: A#3
Note OFF: Time 63360, Note Name: G#3
Note ON: Time 63360, Note Name: G3, Velocity: 52
Note ON: Time 63480, Note Name: A#3, Velocity: 46
Note OFF: Time 63600, Note Name: A#3
Note OFF: Time 63600, Note Name: G3
Note ON: Time 63600, Note Name: D#3, Velocity: 56
Note ON: Time 63720, Note Name: D#4, Velocity: 51
Note OFF: Time 63840, Note Name: D#4
Note OFF: Time 63840, Note Name: D#3
Note ON: Time 63840, Note Name: F3, Velocity: 35
Note ON: Time 63960, Note Name: D4, Velocity: 29
Note OFF: Time 64070, Note Name: F3
Note OFF: Time 64080, Note Name: D4
Note ON: Time 64080, Note Name: F3, Velocity: 35
Note ON: Time 64200, Note Name: A3, Velocity: 29
Note OFF: Time 64320, Note Name: A3
Note OFF: Time 64320, Note Name: F3
Note ON: Time 64320, Note Name: A#2, Velocity: 33
Note ON: Time 64320, Note Name: A#3, Velocity: 39
Note OFF: Time 64560, Note Name: A#3
Note OFF: Time 64560, Note Name: A#2
Note ON: Time 64800, Note Name: A#2, Velocity: 59
Note ON: Time 64800, Note Name: C#3, Velocity: 71
Note OFF: Time 65280, Note Name: C#3
Note OFF: Time 65280, Note Name: A#2
Note ON: Time 65280, Note Name: D#2, Velocity: 53
Note ON: Time 65280, Note Name: B2, Velocity: 64
Note OFF: Time 65640, Note Name: B2
Note ON: Time 65640, Note Name: C#3, Velocity: 64
Note OFF: Time 65700, Note Name: C#3
Note ON: Time 65700, Note Name: D#3, Velocity: 64
Note OFF: Time 65760, Note Name: D#3
Note ON: Time 65760, Note Name: F#2, Velocity: 58
Note OFF: Time 66000, Note Name: F#2
Note OFF: Time 66000, Note Name: D#2
Note ON: Time 66000, Note Name: F2, Velocity: 48
Note ON: Time 66000, Note Name: A2, Velocity: 58
Note OFF: Time 66240, Note Name: A2
Note OFF: Time 66240, Note Name: F2
Note ON: Time 66240, Note Name: A#1, Velocity: 59
Note ON: Time 66240, Note Name: A#2, Velocity: 71
Note OFF: Time 66600, Note Name: A#2
Note OFF: Time 66600, Note Name: A#1
Note ON: Time 66720, Note Name: A#2, Velocity: 59
Note ON: Time 66720, Note Name: C#3, Velocity: 71
Note OFF: Time 67200, Note Name: C#3
Note OFF: Time 67200, Note Name: A#2
Note ON: Time 67200, Note Name: E2, Velocity: 71
Note ON: Time 67200, Note Name: C3, Velocity: 71
Note OFF: Time 67680, Note Name: C3
Note OFF: Time 67680, Note Name: E2
Note ON: Time 67680, Note Name: E3, Velocity: 71
Note ON: Time 67680, Note Name: G3, Velocity: 71
Note OFF: Time 68160, Note Name: G3
Note OFF: Time 68160, Note Name: E3
Note ON: Time 68160, Note Name: F3, Velocity: 59
Note ON: Time 68160, Note Name: G#3, Velocity: 71
Note OFF: Time 68280, Note Name: G#3
Note OFF: Time 68280, Note Name: F3
Note ON: Time 68400, Note Name: B2, Velocity: 64
Note ON: Time 68400, Note Name: B3, Velocity: 76
Note OFF: Time 68520, Note Name: B3
Note OFF: Time 68520, Note Name: B2
Note ON: Time 68640, Note Name: C3, Velocity: 59
Note ON: Time 68640, Note Name: C4, Velocity: 71
Note OFF: Time 68760, Note Name: C4
Note OFF: Time 68760, Note Name: C3
Note ON: Time 68880, Note Name: C2, Velocity: 59
Note ON: Time 68880, Note Name: C3, Velocity: 71
Note OFF: Time 69000, Note Name: C3
Note OFF: Time 69000, Note Name: C2
Note ON: Time 69120, Note Name: F2, Velocity: 70
Note ON: Time 69120, Note Name: F3, Velocity: 82
Note OFF: Time 69240, Note Name: F3
Note OFF: Time 69240, Note Name: F2
Note ON: Time 69240, Note Name: E2, Velocity: 30
Note ON: Time 69240, Note Name: G2, Velocity: 36
Note OFF: Time 69300, Note Name: G2
Note OFF: Time 69300, Note Name: E2
Note ON: Time 69360, Note Name: F2, Velocity: 30
Note ON: Time 69360, Note Name: G#2, Velocity: 36
Note OFF: Time 69420, Note Name: G#2
Note OFF: Time 69420, Note Name: F2
Note ON: Time 69480, Note Name: G2, Velocity: 30
Note ON: Time 69480, Note Name: A#2, Velocity: 36
Note OFF: Time 69540, Note Name: A#2
Note OFF: Time 69540, Note Name: G2
Note ON: Time 69600, Note Name: G#2, Velocity: 34
Note ON: Time 69600, Note Name: C3, Velocity: 40
Note OFF: Time 69660, Note Name: C3
Note OFF: Time 69660, Note Name: G#2
Note ON: Time 69720, Note Name: A#2, Velocity: 29
Note ON: Time 69720, Note Name: C#3, Velocity: 35
Note OFF: Time 69780, Note Name: C#3
Note OFF: Time 69780, Note Name: A#2
Note ON: Time 69840, Note Name: G#2, Velocity: 29
Note ON: Time 69840, Note Name: C3, Velocity: 35
Note OFF: Time 69900, Note Name: C3
Note OFF: Time 69900, Note Name: G#2
Note ON: Time 69960, Note Name: G2, Velocity: 29
Note ON: Time 69960, Note Name: A#2, Velocity: 35
Note OFF: Time 70020, Note Name: A#2
Note OFF: Time 70020, Note Name: G2
Note ON: Time 70080, Note Name: F2, Velocity: 34
Note ON: Time 70080, Note Name: G#2, Velocity: 40
Note OFF: Time 70140, Note Name: G#2
Note OFF: Time 70140, Note Name: F2
Note ON: Time 70200, Note Name: A2, Velocity: 30
Note ON: Time 70200, Note Name: C3, Velocity: 36
Note OFF: Time 70260, Note Name: C3
Note OFF: Time 70260, Note Name: A2
Note ON: Time 70320, Note Name: A#2, Velocity: 30
Note ON: Time 70320, Note Name: C#3, Velocity: 36
Note OFF: Time 70380, Note Name: C#3
Note OFF: Time 70380, Note Name: A#2
Note ON: Time 70440, Note Name: D#3, Velocity: 36
Note ON: Time 70440, Note Name: C3, Velocity: 30
Note OFF: Time 70500, Note Name: C3
Note OFF: Time 70500, Note Name: D#3
Note ON: Time 70560, Note Name: F3, Velocity: 40
Note ON: Time 70560, Note Name: C#3, Velocity: 34
Note OFF: Time 70620, Note Name: C#3
Note OFF: Time 70620, Note Name: F3
Note ON: Time 70680, Note Name: D#3, Velocity: 30
Note ON: Time 70680, Note Name: F#3, Velocity: 36
Note OFF: Time 70740, Note Name: F#3
Note OFF: Time 70740, Note Name: D#3
Note ON: Time 70800, Note Name: C#3, Velocity: 30
Note ON: Time 70800, Note Name: F3, Velocity: 36
Note OFF: Time 70860, Note Name: F3
Note OFF: Time 70860, Note Name: C#3
Note ON: Time 70920, Note Name: C3, Velocity: 30
Note ON: Time 70920, Note Name: D#3, Velocity: 36
Note OFF: Time 70980, Note Name: D#3
Note OFF: Time 70980, Note Name: C3
Note ON: Time 71040, Note Name: A#2, Velocity: 38
Note ON: Time 71040, Note Name: C#3, Velocity: 45
Note OFF: Time 71100, Note Name: C#3
Note OFF: Time 71100, Note Name: A#2
Note ON: Time 71160, Note Name: A#2, Velocity: 30
Note ON: Time 71160, Note Name: C#3, Velocity: 36
Note OFF: Time 71220, Note Name: C#3
Note OFF: Time 71220, Note Name: A#2
Note ON: Time 71280, Note Name: B2, Velocity: 30
Note ON: Time 71280, Note Name: D3, Velocity: 36
Note OFF: Time 71340, Note Name: D3
Note OFF: Time 71340, Note Name: B2
Note ON: Time 71400, Note Name: B2, Velocity: 30
Note ON: Time 71400, Note Name: D3, Velocity: 36
Note OFF: Time 71460, Note Name: D3
Note OFF: Time 71460, Note Name: B2
Note ON: Time 71520, Note Name: C3, Velocity: 39
Note ON: Time 71520, Note Name: F3, Velocity: 47
Note OFF: Time 71580, Note Name: F3
Note OFF: Time 71580, Note Name: C3
Note ON: Time 71640, Note Name: C3, Velocity: 32
Note ON: Time 71640, Note Name: F3, Velocity: 38
Note OFF: Time 71700, Note Name: F3
Note OFF: Time 71700, Note Name: C3
Note ON: Time 71760, Note Name: C3, Velocity: 32
Note ON: Time 71760, Note Name: G3, Velocity: 38
Note OFF: Time 71820, Note Name: G3
Note OFF: Time 71820, Note Name: C3
Note ON: Time 71880, Note Name: C3, Velocity: 32
Note ON: Time 71880, Note Name: G3, Velocity: 38
Note OFF: Time 71940, Note Name: G3
Note OFF: Time 71940, Note Name: C3
Note ON: Time 72000, Note Name: F3, Velocity: 61
Note ON: Time 72000, Note Name: G#3, Velocity: 72
Note OFF: Time 72120, Note Name: G#3
Note OFF: Time 72120, Note Name: F3
Note ON: Time 72120, Note Name: E2, Velocity: 36
Note ON: Time 72120, Note Name: E3, Velocity: 42
Note OFF: Time 72180, Note Name: E3
Note OFF: Time 72180, Note Name: E2
Note ON: Time 72240, Note Name: F2, Velocity: 36
Note ON: Time 72240, Note Name: F3, Velocity: 43
Note OFF: Time 72300, Note Name: F3
Note OFF: Time 72300, Note Name: F2
Note ON: Time 72360, Note Name: G2, Velocity: 36
Note ON: Time 72360, Note Name: G3, Velocity: 44
Note OFF: Time 72420, Note Name: G3
Note OFF: Time 72420, Note Name: G2
Note ON: Time 72480, Note Name: G#2, Velocity: 42
Note ON: Time 72480, Note Name: G#3, Velocity: 50
Note OFF: Time 72540, Note Name: G#3
Note OFF: Time 72540, Note Name: G#2
Note ON: Time 72600, Note Name: A#2, Velocity: 37
Note ON: Time 72600, Note Name: A#3, Velocity: 45
Note OFF: Time 72660, Note Name: A#3
Note OFF: Time 72660, Note Name: A#2
Note ON: Time 72720, Note Name: G#2, Velocity: 37
Note ON: Time 72720, Note Name: G#3, Velocity: 46
Note OFF: Time 72780, Note Name: G#3
Note OFF: Time 72780, Note Name: G#2
Note ON: Time 72840, Note Name: G2, Velocity: 37
Note ON: Time 72840, Note Name: G3, Velocity: 46
Note OFF: Time 72900, Note Name: G3
Note OFF: Time 72900, Note Name: G2
Note ON: Time 72960, Note Name: F2, Velocity: 46
Note ON: Time 72960, Note Name: F3, Velocity: 54
Note OFF: Time 73020, Note Name: F3
Note OFF: Time 73020, Note Name: F2
Note ON: Time 73080, Note Name: A2, Velocity: 42
Note ON: Time 73080, Note Name: A3, Velocity: 50
Note OFF: Time 73140, Note Name: A3
Note OFF: Time 73140, Note Name: A2
Note ON: Time 73200, Note Name: A#2, Velocity: 42
Note ON: Time 73200, Note Name: A#3, Velocity: 50
Note OFF: Time 73260, Note Name: A#3
Note OFF: Time 73260, Note Name: A#2
Note ON: Time 73320, Note Name: C4, Velocity: 52
Note ON: Time 73320, Note Name: C3, Velocity: 42
Note OFF: Time 73380, Note Name: C3
Note OFF: Time 73380, Note Name: C4
Note ON: Time 73440, Note Name: C#4, Velocity: 58
Note ON: Time 73440, Note Name: C#3, Velocity: 50
Note OFF: Time 73500, Note Name: C#3
Note OFF: Time 73500, Note Name: C#4
Note ON: Time 73560, Note Name: D#3, Velocity: 44
Note ON: Time 73560, Note Name: D#4, Velocity: 54
Note OFF: Time 73620, Note Name: D#4
Note OFF: Time 73620, Note Name: D#3
Note ON: Time 73680, Note Name: C#3, Velocity: 44
Note ON: Time 73680, Note Name: C#4, Velocity: 54
Note OFF: Time 73740, Note Name: C#4
Note OFF: Time 73740, Note Name: C#3
Note ON: Time 73800, Note Name: C3, Velocity: 46
Note ON: Time 73800, Note Name: C4, Velocity: 56
Note OFF: Time 73860, Note Name: C4
Note OFF: Time 73860, Note Name: C3
Note ON: Time 73920, Note Name: A#2, Velocity: 60
Note ON: Time 73920, Note Name: A#3, Velocity: 71
Note OFF: Time 73980, Note Name: A#3
Note OFF: Time 73980, Note Name: A#2
Note ON: Time 74040, Note Name: A#3, Velocity: 48
Note ON: Time 74040, Note Name: C#4, Velocity: 57
Note OFF: Time 74100, Note Name: C#4
Note OFF: Time 74100, Note Name: A#3
Note ON: Time 74160, Note Name: B3, Velocity: 48
Note ON: Time 74160, Note Name: D4, Velocity: 58
Note OFF: Time 74220, Note Name: D4
Note OFF: Time 74220, Note Name: B3
Note ON: Time 74280, Note Name: B3, Velocity: 48
Note ON: Time 74280, Note Name: D4, Velocity: 58
Note OFF: Time 74340, Note Name: D4
Note OFF: Time 74340, Note Name: B3
Note ON: Time 74400, Note Name: C4, Velocity: 65
Note ON: Time 74400, Note Name: F4, Velocity: 78
Note OFF: Time 74460, Note Name: F4
Note OFF: Time 74460, Note Name: C4
Note ON: Time 74520, Note Name: C4, Velocity: 54
Note ON: Time 74520, Note Name: F4, Velocity: 64
Note OFF: Time 74580, Note Name: F4
Note OFF: Time 74580, Note Name: C4
Note ON: Time 74640, Note Name: C4, Velocity: 55
Note ON: Time 74640, Note Name: G4, Velocity: 66
Note OFF: Time 74700, Note Name: G4
Note OFF: Time 74700, Note Name: C4
Note ON: Time 74760, Note Name: C4, Velocity: 56
Note ON: Time 74760, Note Name: G4, Velocity: 67
Note OFF: Time 74820, Note Name: G4
Note OFF: Time 74820, Note Name: C4
Note ON: Time 74880, Note Name: F3, Velocity: 53
Note ON: Time 74880, Note Name: G#3, Velocity: 53
Note ON: Time 74880, Note Name: C4, Velocity: 53
Note ON: Time 74880, Note Name: F4, Velocity: 63
Note OFF: Time 74940, Note Name: F4
Note OFF: Time 74940, Note Name: F3
Note OFF: Time 74940, Note Name: G#3
Note OFF: Time 74940, Note Name: C4
Note ON: Time 75000, Note Name: F3, Velocity: 53
Note ON: Time 75000, Note Name: G#3, Velocity: 53
Note ON: Time 75000, Note Name: C4, Velocity: 53
Note ON: Time 75000, Note Name: F4, Velocity: 63
Note OFF: Time 75060, Note Name: F4
Note OFF: Time 75060, Note Name: F3
Note OFF: Time 75060, Note Name: G#3
Note OFF: Time 75060, Note Name: C4
Note ON: Time 75120, Note Name: F3, Velocity: 47
Note ON: Time 75120, Note Name: G#3, Velocity: 47
Note ON: Time 75120, Note Name: C4, Velocity: 47
Note ON: Time 75120, Note Name: F4, Velocity: 56
Note OFF: Time 75180, Note Name: F4
Note OFF: Time 75180, Note Name: F3
Note OFF: Time 75180, Note Name: G#3
Note OFF: Time 75180, Note Name: C4
Note ON: Time 75240, Note Name: F3, Velocity: 47
Note ON: Time 75240, Note Name: G#3, Velocity: 47
Note ON: Time 75240, Note Name: C4, Velocity: 47
Note ON: Time 75240, Note Name: F4, Velocity: 56
Note OFF: Time 75300, Note Name: F4
Note OFF: Time 75300, Note Name: F3
Note OFF: Time 75300, Note Name: G#3
Note OFF: Time 75300, Note Name: C4
Note ON: Time 75360, Note Name: F3, Velocity: 49
Note ON: Time 75360, Note Name: G3, Velocity: 49
Note ON: Time 75360, Note Name: A#3, Velocity: 49
Note ON: Time 75360, Note Name: C4, Velocity: 49
Note ON: Time 75360, Note Name: E4, Velocity: 59
Note OFF: Time 75420, Note Name: E4
Note OFF: Time 75420, Note Name: A#3
Note OFF: Time 75420, Note Name: F3
Note OFF: Time 75420, Note Name: G3
Note OFF: Time 75420, Note Name: C4
Note ON: Time 75480, Note Name: F3, Velocity: 42
Note ON: Time 75480, Note Name: G3, Velocity: 42
Note ON: Time 75480, Note Name: A#3, Velocity: 42
Note ON: Time 75480, Note Name: C4, Velocity: 42
Note ON: Time 75480, Note Name: E4, Velocity: 50
Note OFF: Time 75540, Note Name: E4
Note OFF: Time 75540, Note Name: A#3
Note OFF: Time 75540, Note Name: F3
Note OFF: Time 75540, Note Name: G3
Note OFF: Time 75540, Note Name: C4
Note ON: Time 75600, Note Name: F3, Velocity: 42
Note ON: Time 75600, Note Name: G3, Velocity: 42
Note ON: Time 75600, Note Name: A#3, Velocity: 42
Note ON: Time 75600, Note Name: C4, Velocity: 42
Note ON: Time 75600, Note Name: E4, Velocity: 50
Note OFF: Time 75660, Note Name: E4
Note OFF: Time 75660, Note Name: A#3
Note OFF: Time 75660, Note Name: F3
Note OFF: Time 75660, Note Name: G3
Note OFF: Time 75660, Note Name: C4
Note ON: Time 75720, Note Name: F3, Velocity: 42
Note ON: Time 75720, Note Name: G3, Velocity: 42
Note ON: Time 75720, Note Name: A#3, Velocity: 42
Note ON: Time 75720, Note Name: C4, Velocity: 42
Note ON: Time 75720, Note Name: E4, Velocity: 50
Note OFF: Time 75780, Note Name: E4
Note OFF: Time 75780, Note Name: A#3
Note OFF: Time 75780, Note Name: F3
Note OFF: Time 75780, Note Name: G3
Note OFF: Time 75780, Note Name: C4
Note ON: Time 75840, Note Name: F2, Velocity: 53
Note ON: Time 75840, Note Name: G#2, Velocity: 53
Note ON: Time 75840, Note Name: C3, Velocity: 53
Note ON: Time 75840, Note Name: F3, Velocity: 63
Note OFF: Time 75900, Note Name: F3
Note OFF: Time 75900, Note Name: F2
Note OFF: Time 75900, Note Name: G#2
Note OFF: Time 75900, Note Name: C3
Note ON: Time 75960, Note Name: F2, Velocity: 53
Note ON: Time 75960, Note Name: G#2, Velocity: 53
Note ON: Time 75960, Note Name: C3, Velocity: 53
Note ON: Time 75960, Note Name: F3, Velocity: 63
Note OFF: Time 76020, Note Name: F3
Note OFF: Time 76020, Note Name: F2
Note OFF: Time 76020, Note Name: G#2
Note OFF: Time 76020, Note Name: C3
Note ON: Time 76080, Note Name: F2, Velocity: 47
Note ON: Time 76080, Note Name: G#2, Velocity: 47
Note ON: Time 76080, Note Name: C3, Velocity: 47
Note ON: Time 76080, Note Name: F3, Velocity: 56
Note OFF: Time 76140, Note Name: F3
Note OFF: Time 76140, Note Name: F2
Note OFF: Time 76140, Note Name: G#2
Note OFF: Time 76140, Note Name: C3
Note ON: Time 76200, Note Name: F2, Velocity: 47
Note ON: Time 76200, Note Name: G#2, Velocity: 47
Note ON: Time 76200, Note Name: C3, Velocity: 47
Note ON: Time 76200, Note Name: F3, Velocity: 56
Note OFF: Time 76260, Note Name: F3
Note OFF: Time 76260, Note Name: F2
Note OFF: Time 76260, Note Name: G#2
Note OFF: Time 76260, Note Name: C3
Note ON: Time 76320, Note Name: F2, Velocity: 49
Note ON: Time 76320, Note Name: G2, Velocity: 49
Note ON: Time 76320, Note Name: A#2, Velocity: 49
Note ON: Time 76320, Note Name: C3, Velocity: 49
Note ON: Time 76320, Note Name: E3, Velocity: 59
Note OFF: Time 76380, Note Name: E3
Note OFF: Time 76380, Note Name: A#2
Note OFF: Time 76380, Note Name: F2
Note OFF: Time 76380, Note Name: G2
Note OFF: Time 76380, Note Name: C3
Note ON: Time 76440, Note Name: F2, Velocity: 42
Note ON: Time 76440, Note Name: G2, Velocity: 42
Note ON: Time 76440, Note Name: A#2, Velocity: 42
Note ON: Time 76440, Note Name: C3, Velocity: 42
Note ON: Time 76440, Note Name: E3, Velocity: 50
Note OFF: Time 76500, Note Name: E3
Note OFF: Time 76500, Note Name: A#2
Note OFF: Time 76500, Note Name: F2
Note OFF: Time 76500, Note Name: G2
Note OFF: Time 76500, Note Name: C3
Note ON: Time 76560, Note Name: F2, Velocity: 42
Note ON: Time 76560, Note Name: G2, Velocity: 42
Note ON: Time 76560, Note Name: A#2, Velocity: 42
Note ON: Time 76560, Note Name: C3, Velocity: 42
Note ON: Time 76560, Note Name: E3, Velocity: 50
Note OFF: Time 76620, Note Name: E3
Note OFF: Time 76620, Note Name: A#2
Note OFF: Time 76620, Note Name: F2
Note OFF: Time 76620, Note Name: G2
Note OFF: Time 76620, Note Name: C3
Note ON: Time 76680, Note Name: F2, Velocity: 42
Note ON: Time 76680, Note Name: G2, Velocity: 42
Note ON: Time 76680, Note Name: A#2, Velocity: 42
Note ON: Time 76680, Note Name: C3, Velocity: 42
Note ON: Time 76680, Note Name: E3, Velocity: 50
Note OFF: Time 76740, Note Name: E3
Note OFF: Time 76740, Note Name: A#2
Note OFF: Time 76740, Note Name: F2
Note OFF: Time 76740, Note Name: G2
Note OFF: Time 76740, Note Name: C3
Note ON: Time 76800, Note Name: F2, Velocity: 51
Note ON: Time 76800, Note Name: F3, Velocity: 61
Note OFF: Time 77280, Note Name: F3
Note OFF: Time 77280, Note Name: F2
Note ON: Time 77280, Note Name: G#2, Velocity: 79
Note OFF: Time 77760, Note Name: G#2
Note ON: Time 77760, Note Name: G2, Velocity: 83
Note OFF: Time 78120, Note Name: G2
Note ON: Time 78120, Note Name: G#2, Velocity: 70
Note OFF: Time 78180, Note Name: G#2
Note ON: Time 78180, Note Name: A#2, Velocity: 70
Note OFF: Time 78240, Note Name: A#2
Note ON: Time 78240, Note Name: D2, Velocity: 85
Note OFF: Time 78360, Note Name: D2
Note ON: Time 78480, Note Name: E2, Velocity: 80
Note OFF: Time 78600, Note Name: E2
Note ON: Time 78720, Note Name: F2, Velocity: 90
Note OFF: Time 78840, Note Name: F2
Note ON: Time 79200, Note Name: C#3, Velocity: 79
Note OFF: Time 79680, Note Name: C#3
Note ON: Time 79680, Note Name: C3, Velocity: 83
Note OFF: Time 80040, Note Name: C3
Note ON: Time 80040, Note Name: C#3, Velocity: 70
Note OFF: Time 80100, Note Name: C#3
Note ON: Time 80100, Note Name: D#3, Velocity: 70
Note OFF: Time 80160, Note Name: D#3
Note ON: Time 80160, Note Name: G2, Velocity: 85
Note OFF: Time 80280, Note Name: G2
Note ON: Time 80400, Note Name: A2, Velocity: 80
Note OFF: Time 80520, Note Name: A2
Note ON: Time 80640, Note Name: A#2, Velocity: 90
Note OFF: Time 80760, Note Name: A#2
Note ON: Time 82080, Note Name: F3, Velocity: 80
Note OFF: Time 82560, Note Name: F3
Note ON: Time 82560, Note Name: A#2, Velocity: 90
Note OFF: Time 82800, Note Name: A#2
Note ON: Time 84000, Note Name: A#3, Velocity: 80
Note OFF: Time 84480, Note Name: A#3
Note ON: Time 84480, Note Name: D#3, Velocity: 90
Note OFF: Time 84720, Note Name: D#3
Note ON: Time 84960, Note Name: A#3, Velocity: 79
Note ON: Time 84960, Note Name: F#3, Velocity: 67
Note OFF: Time 85440, Note Name: F#3
Note OFF: Time 85440, Note Name: A#3
Note ON: Time 85440, Note Name: G#3, Velocity: 83
Note ON: Time 85440, Note Name: F3, Velocity: 70
Note OFF: Time 85800, Note Name: F3
Note OFF: Time 85800, Note Name: G#3
Note ON: Time 85800, Note Name: F#3, Velocity: 59
Note ON: Time 85800, Note Name: A#3, Velocity: 70
Note ON: Time 85860, Note Name: G#3, Velocity: 59
Note ON: Time 85860, Note Name: B3, Velocity: 70
Note OFF: Time 85866, Note Name: A#3
Note OFF: Time 85866, Note Name: F#3
Note ON: Time 85920, Note Name: C3, Velocity: 72
Note ON: Time 85920, Note Name: D#3, Velocity: 85
Note OFF: Time 85926, Note Name: G#3
Note OFF: Time 85926, Note Name: B3
Note OFF: Time 86040, Note Name: C3
Note OFF: Time 86040, Note Name: D#3
Note ON: Time 86160, Note Name: D3, Velocity: 68
Note ON: Time 86160, Note Name: F3, Velocity: 80
Note OFF: Time 86280, Note Name: F3
Note OFF: Time 86280, Note Name: D3
Note ON: Time 86400, Note Name: F#3, Velocity: 83
Note ON: Time 86400, Note Name: D#3, Velocity: 70
Note OFF: Time 86760, Note Name: D#3
Note OFF: Time 86760, Note Name: F#3
Note ON: Time 86760, Note Name: F3, Velocity: 59
Note ON: Time 86760, Note Name: G#3, Velocity: 70
Note ON: Time 86820, Note Name: F#3, Velocity: 59
Note ON: Time 86820, Note Name: A#3, Velocity: 70
Note OFF: Time 86826, Note Name: G#3
Note OFF: Time 86826, Note Name: F3
Note ON: Time 86880, Note Name: A#2, Velocity: 72
Note ON: Time 86880, Note Name: C#3, Velocity: 85
Note OFF: Time 86886, Note Name: F#3
Note OFF: Time 86886, Note Name: A#3
Note OFF: Time 87000, Note Name: A#2
Note OFF: Time 87000, Note Name: C#3
Note ON: Time 87120, Note Name: C3, Velocity: 68
Note ON: Time 87120, Note Name: D#3, Velocity: 80
Note OFF: Time 87240, Note Name: D#3
Note OFF: Time 87240, Note Name: C3
Note ON: Time 87360, Note Name: C#3, Velocity: 78
Note ON: Time 87360, Note Name: F3, Velocity: 83
Note OFF: Time 87480, Note Name: F3
Note OFF: Time 87480, Note Name: C#3
Note ON: Time 87600, Note Name: G#3, Velocity: 83
Note ON: Time 87600, Note Name: F3, Velocity: 70
Note OFF: Time 88200, Note Name: F3
Note OFF: Time 88200, Note Name: G#3
Note ON: Time 88200, Note Name: D#3, Velocity: 60
Note ON: Time 88200, Note Name: F#3, Velocity: 71
Note ON: Time 88260, Note Name: C#3, Velocity: 56
Note ON: Time 88260, Note Name: F3, Velocity: 67
Note OFF: Time 88266, Note Name: F#3
Note OFF: Time 88266, Note Name: D#3
Note ON: Time 88320, Note Name: C3, Velocity: 78
Note ON: Time 88320, Note Name: D#3, Velocity: 83
Note OFF: Time 88326, Note Name: C#3
Note OFF: Time 88326, Note Name: F3
Note OFF: Time 88440, Note Name: C3
Note OFF: Time 88440, Note Name: D#3
Note ON: Time 88560, Note Name: F#4, Velocity: 83
Note ON: Time 88560, Note Name: D#4, Velocity: 70
Note OFF: Time 89160, Note Name: D#4
Note OFF: Time 89160, Note Name: F#4
Note ON: Time 89160, Note Name: C#4, Velocity: 60
Note ON: Time 89160, Note Name: F4, Velocity: 71
Note ON: Time 89220, Note Name: C4, Velocity: 56
Note ON: Time 89220, Note Name: D#4, Velocity: 67
Note OFF: Time 89226, Note Name: F4
Note OFF: Time 89226, Note Name: C#4
Note ON: Time 89280, Note Name: C#4, Velocity: 83
Note ON: Time 89280, Note Name: A#3, Velocity: 70
Note OFF: Time 89286, Note Name: C4
Note OFF: Time 89286, Note Name: D#4
Note OFF: Time 89640, Note Name: C#4
Note OFF: Time 89640, Note Name: A#3
Note ON: Time 89640, Note Name: G#3, Velocity: 59
Note ON: Time 89640, Note Name: C4, Velocity: 70
Note OFF: Time 89760, Note Name: C4
Note OFF: Time 89760, Note Name: G#3
Note ON: Time 89760, Note Name: A#3, Velocity: 83
Note ON: Time 89760, Note Name: F#3, Velocity: 70
Note OFF: Time 90120, Note Name: F#3
Note OFF: Time 90120, Note Name: A#3
Note ON: Time 90120, Note Name: F3, Velocity: 59
Note ON: Time 90120, Note Name: G#3, Velocity: 70
Note OFF: Time 90240, Note Name: G#3
Note OFF: Time 90240, Note Name: F3
Note ON: Time 90240, Note Name: F#3, Velocity: 83
Note ON: Time 90240, Note Name: D#3, Velocity: 70
Note OFF: Time 90480, Note Name: F#3
Note ON: Time 90480, Note Name: D#4, Velocity: 70
Note OFF: Time 90720, Note Name: D#4
Note OFF: Time 90720, Note Name: D#3
Note ON: Time 90720, Note Name: F3, Velocity: 70
Note ON: Time 90720, Note Name: C#4, Velocity: 83
Note OFF: Time 90840, Note Name: C#4
Note OFF: Time 90840, Note Name: F3
Note ON: Time 90960, Note Name: C4, Velocity: 79
Note ON: Time 90960, Note Name: F3, Velocity: 67
Note OFF: Time 91080, Note Name: F3
Note OFF: Time 91080, Note Name: C4
Note ON: Time 91200, Note Name: A#2, Velocity: 61
Note ON: Time 91200, Note Name: A#3, Velocity: 72
Note OFF: Time 91320, Note Name: A#3
Note OFF: Time 91320, Note Name: A#2
Note ON: Time 91320, Note Name: A2, Velocity: 30
Note ON: Time 91320, Note Name: C3, Velocity: 36
Note OFF: Time 91380, Note Name: C3
Note OFF: Time 91380, Note Name: A2
Note ON: Time 91440, Note Name: A#2, Velocity: 30
Note ON: Time 91440, Note Name: C#3, Velocity: 36
Note OFF: Time 91500, Note Name: C#3
Note OFF: Time 91500, Note Name: A#2
Note ON: Time 91560, Note Name: C3, Velocity: 30
Note ON: Time 91560, Note Name: D#3, Velocity: 36
Note OFF: Time 91620, Note Name: D#3
Note OFF: Time 91620, Note Name: C3
Note ON: Time 91680, Note Name: C#3, Velocity: 34
Note ON: Time 91680, Note Name: F3, Velocity: 40
Note OFF: Time 91740, Note Name: F3
Note OFF: Time 91740, Note Name: C#3
Note ON: Time 91800, Note Name: D#3, Velocity: 29
Note ON: Time 91800, Note Name: F#3, Velocity: 35
Note OFF: Time 91860, Note Name: F#3
Note OFF: Time 91860, Note Name: D#3
Note ON: Time 91920, Note Name: C#3, Velocity: 29
Note ON: Time 91920, Note Name: F3, Velocity: 35
Note OFF: Time 91980, Note Name: F3
Note OFF: Time 91980, Note Name: C#3
Note ON: Time 92040, Note Name: C3, Velocity: 29
Note ON: Time 92040, Note Name: D#3, Velocity: 35
Note OFF: Time 92100, Note Name: D#3
Note OFF: Time 92100, Note Name: C3
Note ON: Time 92160, Note Name: A#2, Velocity: 34
Note ON: Time 92160, Note Name: C#3, Velocity: 40
Note OFF: Time 92220, Note Name: C#3
Note OFF: Time 92220, Note Name: A#2
Note ON: Time 92280, Note Name: D3, Velocity: 30
Note ON: Time 92280, Note Name: F3, Velocity: 36
Note OFF: Time 92340, Note Name: F3
Note OFF: Time 92340, Note Name: D3
Note ON: Time 92400, Note Name: D#3, Velocity: 30
Note ON: Time 92400, Note Name: F#3, Velocity: 36
Note OFF: Time 92460, Note Name: F#3
Note OFF: Time 92460, Note Name: D#3
Note ON: Time 92520, Note Name: G#3, Velocity: 36
Note ON: Time 92520, Note Name: F3, Velocity: 30
Note OFF: Time 92580, Note Name: F3
Note OFF: Time 92580, Note Name: G#3
Note ON: Time 92640, Note Name: A#3, Velocity: 40
Note ON: Time 92640, Note Name: F#3, Velocity: 34
Note OFF: Time 92700, Note Name: F#3
Note OFF: Time 92700, Note Name: A#3
Note ON: Time 92760, Note Name: G#3, Velocity: 30
Note ON: Time 92760, Note Name: B3, Velocity: 36
Note OFF: Time 92820, Note Name: B3
Note OFF: Time 92820, Note Name: G#3
Note ON: Time 92880, Note Name: F#3, Velocity: 30
Note ON: Time 92880, Note Name: A#3, Velocity: 36
Note OFF: Time 92940, Note Name: A#3
Note OFF: Time 92940, Note Name: F#3
Note ON: Time 93000, Note Name: F3, Velocity: 30
Note ON: Time 93000, Note Name: G#3, Velocity: 36
Note OFF: Time 93060, Note Name: G#3
Note OFF: Time 93060, Note Name: F3
Note ON: Time 93120, Note Name: D#3, Velocity: 38
Note ON: Time 93120, Note Name: F#3, Velocity: 45
Note OFF: Time 93180, Note Name: F#3
Note OFF: Time 93180, Note Name: D#3
Note ON: Time 93240, Note Name: D#3, Velocity: 30
Note ON: Time 93240, Note Name: F#3, Velocity: 36
Note OFF: Time 93300, Note Name: F#3
Note OFF: Time 93300, Note Name: D#3
Note ON: Time 93360, Note Name: E3, Velocity: 30
Note ON: Time 93360, Note Name: G3, Velocity: 36
Note OFF: Time 93420, Note Name: G3
Note OFF: Time 93420, Note Name: E3
Note ON: Time 93480, Note Name: E3, Velocity: 30
Note ON: Time 93480, Note Name: G3, Velocity: 36
Note OFF: Time 93540, Note Name: G3
Note OFF: Time 93540, Note Name: E3
Note ON: Time 93600, Note Name: F3, Velocity: 39
Note ON: Time 93600, Note Name: A#3, Velocity: 47
Note OFF: Time 93660, Note Name: A#3
Note OFF: Time 93660, Note Name: F3
Note ON: Time 93720, Note Name: F3, Velocity: 32
Note ON: Time 93720, Note Name: A#3, Velocity: 38
Note OFF: Time 93780, Note Name: A#3
Note OFF: Time 93780, Note Name: F3
Note ON: Time 93840, Note Name: F3, Velocity: 32
Note ON: Time 93840, Note Name: C4, Velocity: 38
Note OFF: Time 93900, Note Name: C4
Note OFF: Time 93900, Note Name: F3
Note ON: Time 93960, Note Name: F3, Velocity: 32
Note ON: Time 93960, Note Name: C4, Velocity: 38
Note OFF: Time 94020, Note Name: C4
Note OFF: Time 94020, Note Name: F3
Note ON: Time 94080, Note Name: A#2, Velocity: 58
Note ON: Time 94080, Note Name: A#3, Velocity: 69
Note OFF: Time 94200, Note Name: A#3
Note OFF: Time 94200, Note Name: A#2
Note ON: Time 94200, Note Name: A2, Velocity: 40
Note ON: Time 94200, Note Name: A3, Velocity: 48
Note OFF: Time 94260, Note Name: A3
Note OFF: Time 94260, Note Name: A2
Note ON: Time 94320, Note Name: A#2, Velocity: 40
Note ON: Time 94320, Note Name: A#3, Velocity: 48
Note OFF: Time 94380, Note Name: A#3
Note OFF: Time 94380, Note Name: A#2
Note ON: Time 94440, Note Name: C3, Velocity: 40
Note ON: Time 94440, Note Name: C4, Velocity: 50
Note OFF: Time 94500, Note Name: C4
Note OFF: Time 94500, Note Name: C3
Note ON: Time 94560, Note Name: C#3, Velocity: 48
Note ON: Time 94560, Note Name: C#4, Velocity: 57
Note OFF: Time 94620, Note Name: C#4
Note OFF: Time 94620, Note Name: C#3
Note ON: Time 94680, Note Name: D#3, Velocity: 43
Note ON: Time 94680, Note Name: D#4, Velocity: 51
Note OFF: Time 94740, Note Name: D#4
Note OFF: Time 94740, Note Name: D#3
Note ON: Time 94800, Note Name: C#3, Velocity: 43
Note ON: Time 94800, Note Name: C#4, Velocity: 53
Note OFF: Time 94860, Note Name: C#4
Note OFF: Time 94860, Note Name: C#3
Note ON: Time 94920, Note Name: C3, Velocity: 43
Note ON: Time 94920, Note Name: C4, Velocity: 54
Note OFF: Time 94980, Note Name: C4
Note OFF: Time 94980, Note Name: C3
Note ON: Time 95040, Note Name: A#2, Velocity: 54
Note ON: Time 95040, Note Name: A#3, Velocity: 64
Note OFF: Time 95100, Note Name: A#3
Note OFF: Time 95100, Note Name: A#2
Note ON: Time 95160, Note Name: D3, Velocity: 48
Note ON: Time 95160, Note Name: D4, Velocity: 58
Note OFF: Time 95220, Note Name: D4
Note OFF: Time 95220, Note Name: D3
Note ON: Time 95280, Note Name: D#3, Velocity: 50
Note ON: Time 95280, Note Name: D#4, Velocity: 59
Note OFF: Time 95340, Note Name: D#4
Note OFF: Time 95340, Note Name: D#3
Note ON: Time 95400, Note Name: F4, Velocity: 62
Note ON: Time 95400, Note Name: F3, Velocity: 50
Note OFF: Time 95460, Note Name: F3
Note OFF: Time 95460, Note Name: F4
Note ON: Time 95520, Note Name: F#4, Velocity: 70
Note ON: Time 95520, Note Name: F#3, Velocity: 58
Note OFF: Time 95580, Note Name: F#3
Note OFF: Time 95580, Note Name: F#4
Note ON: Time 95640, Note Name: G#3, Velocity: 53
Note ON: Time 95640, Note Name: G#4, Velocity: 66
Note OFF: Time 95700, Note Name: G#4
Note OFF: Time 95700, Note Name: G#3
Note ON: Time 95760, Note Name: F#3, Velocity: 53
Note ON: Time 95760, Note Name: F#4, Velocity: 66
Note OFF: Time 95820, Note Name: F#4
Note OFF: Time 95820, Note Name: F#3
Note ON: Time 95880, Note Name: F3, Velocity: 57
Note ON: Time 95880, Note Name: F4, Velocity: 69
Note OFF: Time 95940, Note Name: F4
Note OFF: Time 95940, Note Name: F3
Note ON: Time 96000, Note Name: D#3, Velocity: 74
Note ON: Time 96000, Note Name: D#4, Velocity: 88
Note OFF: Time 96060, Note Name: D#4
Note OFF: Time 96060, Note Name: D#3
Note ON: Time 96120, Note Name: D#4, Velocity: 58
Note ON: Time 96120, Note Name: F#4, Velocity: 69
Note OFF: Time 96180, Note Name: F#4
Note OFF: Time 96180, Note Name: D#4
Note ON: Time 96240, Note Name: E4, Velocity: 60
Note ON: Time 96240, Note Name: G4, Velocity: 72
Note OFF: Time 96300, Note Name: G4
Note OFF: Time 96300, Note Name: E4
Note ON: Time 96360, Note Name: E4, Velocity: 60
Note ON: Time 96360, Note Name: G4, Velocity: 72
Note OFF: Time 96420, Note Name: G4
Note OFF: Time 96420, Note Name: E4
Note ON: Time 96480, Note Name: F4, Velocity: 73
Note ON: Time 96480, Note Name: A#4, Velocity: 90
Note OFF: Time 96540, Note Name: A#4
Note OFF: Time 96540, Note Name: F4
Note ON: Time 96600, Note Name: F4, Velocity: 68
Note ON: Time 96600, Note Name: A#4, Velocity: 81
Note OFF: Time 96660, Note Name: A#4
Note OFF: Time 96660, Note Name: F4
Note ON: Time 96720, Note Name: F4, Velocity: 70
Note ON: Time 96720, Note Name: C5, Velocity: 85
Note OFF: Time 96780, Note Name: C5
Note OFF: Time 96780, Note Name: F4
Note ON: Time 96840, Note Name: F4, Velocity: 71
Note ON: Time 96840, Note Name: C5, Velocity: 86
Note OFF: Time 96900, Note Name: C5
Note OFF: Time 96900, Note Name: F4
Note ON: Time 96960, Note Name: A#3, Velocity: 66
Note ON: Time 96960, Note Name: C#4, Velocity: 66
Note ON: Time 96960, Note Name: F4, Velocity: 66
Note ON: Time 96960, Note Name: A#4, Velocity: 78
Note OFF: Time 97020, Note Name: A#4
Note OFF: Time 97020, Note Name: A#3
Note OFF: Time 97020, Note Name: C#4
Note OFF: Time 97020, Note Name: F4
Note ON: Time 97080, Note Name: A#3, Velocity: 55
Note ON: Time 97080, Note Name: C#4, Velocity: 55
Note ON: Time 97080, Note Name: F4, Velocity: 55
Note ON: Time 97080, Note Name: A#4, Velocity: 66
Note OFF: Time 97140, Note Name: A#4
Note OFF: Time 97140, Note Name: A#3
Note OFF: Time 97140, Note Name: C#4
Note OFF: Time 97140, Note Name: F4
Note ON: Time 97200, Note Name: A#3, Velocity: 49
Note ON: Time 97200, Note Name: C#4, Velocity: 49
Note ON: Time 97200, Note Name: F4, Velocity: 49
Note ON: Time 97200, Note Name: A#4, Velocity: 58
Note OFF: Time 97260, Note Name: A#4
Note OFF: Time 97260, Note Name: A#3
Note OFF: Time 97260, Note Name: C#4
Note OFF: Time 97260, Note Name: F4
Note ON: Time 97320, Note Name: A#3, Velocity: 49
Note ON: Time 97320, Note Name: C#4, Velocity: 49
Note ON: Time 97320, Note Name: F4, Velocity: 49
Note ON: Time 97320, Note Name: A#4, Velocity: 58
Note OFF: Time 97380, Note Name: A#4
Note OFF: Time 97380, Note Name: A#3
Note OFF: Time 97380, Note Name: C#4
Note OFF: Time 97380, Note Name: F4
Note ON: Time 97440, Note Name: A#3, Velocity: 51
Note ON: Time 97440, Note Name: C4, Velocity: 51
Note ON: Time 97440, Note Name: D#4, Velocity: 51
Note ON: Time 97440, Note Name: F4, Velocity: 51
Note ON: Time 97440, Note Name: A4, Velocity: 61
Note OFF: Time 97500, Note Name: A4
Note OFF: Time 97500, Note Name: D#4
Note OFF: Time 97500, Note Name: A#3
Note OFF: Time 97500, Note Name: C4
Note OFF: Time 97500, Note Name: F4
Note ON: Time 97560, Note Name: A#3, Velocity: 44
Note ON: Time 97560, Note Name: C4, Velocity: 44
Note ON: Time 97560, Note Name: D#4, Velocity: 44
Note ON: Time 97560, Note Name: F4, Velocity: 44
Note ON: Time 97560, Note Name: A4, Velocity: 52
Note OFF: Time 97620, Note Name: A4
Note OFF: Time 97620, Note Name: D#4
Note OFF: Time 97620, Note Name: A#3
Note OFF: Time 97620, Note Name: C4
Note OFF: Time 97620, Note Name: F4
Note ON: Time 97680, Note Name: A#3, Velocity: 44
Note ON: Time 97680, Note Name: C4, Velocity: 44
Note ON: Time 97680, Note Name: D#4, Velocity: 44
Note ON: Time 97680, Note Name: F4, Velocity: 44
Note ON: Time 97680, Note Name: A4, Velocity: 52
Note OFF: Time 97740, Note Name: A4
Note OFF: Time 97740, Note Name: D#4
Note OFF: Time 97740, Note Name: A#3
Note OFF: Time 97740, Note Name: C4
Note OFF: Time 97740, Note Name: F4
Note ON: Time 97800, Note Name: A#3, Velocity: 44
Note ON: Time 97800, Note Name: C4, Velocity: 44
Note ON: Time 97800, Note Name: D#4, Velocity: 44
Note ON: Time 97800, Note Name: F4, Velocity: 44
Note ON: Time 97800, Note Name: A4, Velocity: 52
Note OFF: Time 97860, Note Name: A4
Note OFF: Time 97860, Note Name: D#4
Note OFF: Time 97860, Note Name: A#3
Note OFF: Time 97860, Note Name: C4
Note OFF: Time 97860, Note Name: F4
Note ON: Time 97920, Note Name: A#2, Velocity: 55
Note ON: Time 97920, Note Name: C#3, Velocity: 55
Note ON: Time 97920, Note Name: F3, Velocity: 55
Note ON: Time 97920, Note Name: A#3, Velocity: 66
Note OFF: Time 97980, Note Name: A#3
Note OFF: Time 97980, Note Name: A#2
Note OFF: Time 97980, Note Name: C#3
Note OFF: Time 97980, Note Name: F3
Note ON: Time 98040, Note Name: A#2, Velocity: 55
Note ON: Time 98040, Note Name: C#3, Velocity: 55
Note ON: Time 98040, Note Name: F3, Velocity: 55
Note ON: Time 98040, Note Name: A#3, Velocity: 66
Note OFF: Time 98100, Note Name: A#3
Note OFF: Time 98100, Note Name: A#2
Note OFF: Time 98100, Note Name: C#3
Note OFF: Time 98100, Note Name: F3
Note ON: Time 98160, Note Name: A#2, Velocity: 49
Note ON: Time 98160, Note Name: C#3, Velocity: 49
Note ON: Time 98160, Note Name: F3, Velocity: 49
Note ON: Time 98160, Note Name: A#3, Velocity: 58
Note OFF: Time 98220, Note Name: A#3
Note OFF: Time 98220, Note Name: A#2
Note OFF: Time 98220, Note Name: C#3
Note OFF: Time 98220, Note Name: F3
Note ON: Time 98280, Note Name: A#2, Velocity: 49
Note ON: Time 98280, Note Name: C#3, Velocity: 49
Note ON: Time 98280, Note Name: F3, Velocity: 49
Note ON: Time 98280, Note Name: A#3, Velocity: 58
Note OFF: Time 98340, Note Name: A#3
Note OFF: Time 98340, Note Name: A#2
Note OFF: Time 98340, Note Name: C#3
Note OFF: Time 98340, Note Name: F3
Note ON: Time 98400, Note Name: A#2, Velocity: 51
Note ON: Time 98400, Note Name: C3, Velocity: 51
Note ON: Time 98400, Note Name: D#3, Velocity: 51
Note ON: Time 98400, Note Name: F3, Velocity: 51
Note ON: Time 98400, Note Name: A3, Velocity: 61
Note OFF: Time 98460, Note Name: A3
Note OFF: Time 98460, Note Name: D#3
Note OFF: Time 98460, Note Name: A#2
Note OFF: Time 98460, Note Name: C3
Note OFF: Time 98460, Note Name: F3
Note ON: Time 98520, Note Name: A#2, Velocity: 44
Note ON: Time 98520, Note Name: C3, Velocity: 44
Note ON: Time 98520, Note Name: D#3, Velocity: 44
Note ON: Time 98520, Note Name: F3, Velocity: 44
Note ON: Time 98520, Note Name: A3, Velocity: 52
Note OFF: Time 98580, Note Name: A3
Note OFF: Time 98580, Note Name: D#3
Note OFF: Time 98580, Note Name: A#2
Note OFF: Time 98580, Note Name: C3
Note OFF: Time 98580, Note Name: F3
Note ON: Time 98640, Note Name: A#2, Velocity: 44
Note ON: Time 98640, Note Name: C3, Velocity: 44
Note ON: Time 98640, Note Name: D#3, Velocity: 44
Note ON: Time 98640, Note Name: F3, Velocity: 44
Note ON: Time 98640, Note Name: A3, Velocity: 52
Note OFF: Time 98700, Note Name: A3
Note OFF: Time 98700, Note Name: D#3
Note OFF: Time 98700, Note Name: A#2
Note OFF: Time 98700, Note Name: C3
Note OFF: Time 98700, Note Name: F3
Note ON: Time 98760, Note Name: A#2, Velocity: 44
Note ON: Time 98760, Note Name: C3, Velocity: 44
Note ON: Time 98760, Note Name: D#3, Velocity: 44
Note ON: Time 98760, Note Name: F3, Velocity: 44
Note ON: Time 98760, Note Name: A3, Velocity: 52
Note OFF: Time 98820, Note Name: A3
Note OFF: Time 98820, Note Name: D#3
Note OFF: Time 98820, Note Name: A#2
Note OFF: Time 98820, Note Name: C3
Note OFF: Time 98820, Note Name: F3
Note ON: Time 98880, Note Name: A#2, Velocity: 64
Note OFF: Time 99480, Note Name: A#2
Note ON: Time 99480, Note Name: C#3, Velocity: 45
Note ON: Time 99600, Note Name: D#3, Velocity: 50
Note OFF: Time 99612, Note Name: C#3
Note ON: Time 99720, Note Name: C#3, Velocity: 46
Note OFF: Time 99732, Note Name: D#3
Note ON: Time 99840, Note Name: B2, Velocity: 50
Note OFF: Time 99852, Note Name: C#3
Note ON: Time 99960, Note Name: A#2, Velocity: 46
Note OFF: Time 99972, Note Name: B2
Note ON: Time 100080, Note Name: G#2, Velocity: 46
Note OFF: Time 100092, Note Name: A#2
Note ON: Time 100200, Note Name: F#2, Velocity: 46
Note OFF: Time 100212, Note Name: G#2
Note ON: Time 100320, Note Name: F2, Velocity: 50
Note OFF: Time 100332, Note Name: F#2
Note OFF: Time 100560, Note Name: F2
Note ON: Time 100560, Note Name: F#2, Velocity: 47
Note OFF: Time 100800, Note Name: F#2
Note ON: Time 100800, Note Name: G2, Velocity: 53
Note OFF: Time 101040, Note Name: G2
Note ON: Time 101040, Note Name: G#2, Velocity: 49
Note OFF: Time 101400, Note Name: G#2
Note ON: Time 101400, Note Name: D#3, Velocity: 45
Note ON: Time 101520, Note Name: E3, Velocity: 50
Note OFF: Time 101532, Note Name: D#3
Note ON: Time 101640, Note Name: D#3, Velocity: 46
Note OFF: Time 101652, Note Name: E3
Note ON: Time 101760, Note Name: C#3, Velocity: 50
Note OFF: Time 101772, Note Name: D#3
Note ON: Time 101880, Note Name: B2, Velocity: 41
Note OFF: Time 101892, Note Name: C#3
Note ON: Time 102000, Note Name: A#2, Velocity: 46
Note OFF: Time 102012, Note Name: B2
Note ON: Time 102120, Note Name: G#2, Velocity: 40
Note OFF: Time 102132, Note Name: A#2
Note ON: Time 102240, Note Name: G2, Velocity: 48
Note OFF: Time 102252, Note Name: G#2
Note OFF: Time 102480, Note Name: G2
Note ON: Time 102480, Note Name: G#2, Velocity: 40
Note OFF: Time 102720, Note Name: G#2
Note ON: Time 102720, Note Name: A2, Velocity: 45
Note OFF: Time 103680, Note Name: A2
Note ON: Time 103680, Note Name: A#2, Velocity: 45
Note OFF: Time 104640, Note Name: A#2
Note ON: Time 104640, Note Name: A2, Velocity: 45
Note OFF: Time 104880, Note Name: A2
Note ON: Time 107520, Note Name: G3, Velocity: 35
Note ON: Time 107520, Note Name: D#4, Velocity: 42
Note OFF: Time 107640, Note Name: D#4
Note OFF: Time 107640, Note Name: G3
Note ON: Time 107640, Note Name: F3, Velocity: 33
Note ON: Time 107640, Note Name: D4, Velocity: 39
Note OFF: Time 107760, Note Name: D4
Note OFF: Time 107760, Note Name: F3
Note ON: Time 107760, Note Name: D#3, Velocity: 33
Note ON: Time 107760, Note Name: C4, Velocity: 39
Note OFF: Time 107880, Note Name: C4
Note OFF: Time 107880, Note Name: D#3
Note ON: Time 107880, Note Name: D3, Velocity: 33
Note ON: Time 107880, Note Name: A#3, Velocity: 39
Note OFF: Time 108000, Note Name: A#3
Note OFF: Time 108000, Note Name: D3
Note ON: Time 108000, Note Name: C3, Velocity: 35
Note ON: Time 108000, Note Name: A3, Velocity: 35
Note OFF: Time 108240, Note Name: A3
Note OFF: Time 108240, Note Name: C3
Note ON: Time 108240, Note Name: D3, Velocity: 33
Note ON: Time 108240, Note Name: A#3, Velocity: 39
Note OFF: Time 108480, Note Name: A#3
Note OFF: Time 108480, Note Name: D3
Note ON: Time 108480, Note Name: G#3, Velocity: 38
Note ON: Time 108480, Note Name: B3, Velocity: 45
Note OFF: Time 108720, Note Name: B3
Note OFF: Time 108720, Note Name: G#3
Note ON: Time 108720, Note Name: A3, Velocity: 34
Note ON: Time 108720, Note Name: C4, Velocity: 41
Note OFF: Time 109080, Note Name: C4
Note OFF: Time 109080, Note Name: A3
Note ON: Time 109080, Note Name: F#4, Velocity: 38
Note OFF: Time 109200, Note Name: F#4
Note ON: Time 109200, Note Name: A4, Velocity: 42
Note OFF: Time 109320, Note Name: A4
Note ON: Time 109320, Note Name: G4, Velocity: 39
Note OFF: Time 109440, Note Name: G4
Note ON: Time 109440, Note Name: F4, Velocity: 42
Note OFF: Time 109550, Note Name: F4
Note ON: Time 109560, Note Name: G3, Velocity: 33
Note ON: Time 109560, Note Name: D#4, Velocity: 39
Note OFF: Time 109680, Note Name: D#4
Note OFF: Time 109680, Note Name: G3
Note ON: Time 109680, Note Name: F3, Velocity: 33
Note ON: Time 109680, Note Name: D4, Velocity: 39
Note OFF: Time 109800, Note Name: D4
Note OFF: Time 109800, Note Name: F3
Note ON: Time 109800, Note Name: D#3, Velocity: 33
Note ON: Time 109800, Note Name: C4, Velocity: 39
Note OFF: Time 109920, Note Name: C4
Note OFF: Time 109920, Note Name: D#3
Note ON: Time 109920, Note Name: D3, Velocity: 35
Note ON: Time 109920, Note Name: A#3, Velocity: 42
Note OFF: Time 110160, Note Name: A#3
Note OFF: Time 110160, Note Name: D3
Note ON: Time 110160, Note Name: A3, Velocity: 33
Note ON: Time 110160, Note Name: C4, Velocity: 39
Note OFF: Time 110400, Note Name: C4
Note OFF: Time 110400, Note Name: A3
Note ON: Time 110400, Note Name: A3, Velocity: 38
Note ON: Time 110400, Note Name: C#4, Velocity: 45
Note OFF: Time 110640, Note Name: C#4
Note OFF: Time 110640, Note Name: A3
Note ON: Time 110640, Note Name: A#3, Velocity: 34
Note ON: Time 110640, Note Name: D4, Velocity: 41
Note OFF: Time 111000, Note Name: D4
Note OFF: Time 111000, Note Name: A#3
Note ON: Time 111000, Note Name: F4, Velocity: 43
Note OFF: Time 111120, Note Name: F4
Note ON: Time 111120, Note Name: B3, Velocity: 34
Note ON: Time 111120, Note Name: G4, Velocity: 49
Note OFF: Time 111240, Note Name: G4
Note ON: Time 111240, Note Name: D4, Velocity: 44
Note OFF: Time 111360, Note Name: D4
Note OFF: Time 111360, Note Name: B3
Note ON: Time 111360, Note Name: C4, Velocity: 37
Note ON: Time 111360, Note Name: F4, Velocity: 51
Note OFF: Time 111480, Note Name: F4
Note ON: Time 111480, Note Name: D#4, Velocity: 48
Note OFF: Time 111600, Note Name: D#4
Note OFF: Time 111600, Note Name: C4
Note ON: Time 111600, Note Name: A3, Velocity: 37
Note ON: Time 111600, Note Name: F4, Velocity: 53
Note OFF: Time 111720, Note Name: F4
Note ON: Time 111720, Note Name: C4, Velocity: 48
Note OFF: Time 111840, Note Name: C4
Note OFF: Time 111840, Note Name: A3
Note ON: Time 111840, Note Name: A#3, Velocity: 38
Note ON: Time 111840, Note Name: D#4, Velocity: 53
Note OFF: Time 111960, Note Name: D#4
Note ON: Time 111960, Note Name: D4, Velocity: 49
Note OFF: Time 112080, Note Name: D4
Note OFF: Time 112080, Note Name: A#3
Note ON: Time 112080, Note Name: B3, Velocity: 38
Note ON: Time 112080, Note Name: G4, Velocity: 56
Note OFF: Time 112200, Note Name: G4
Note ON: Time 112200, Note Name: D4, Velocity: 50
Note OFF: Time 112320, Note Name: D4
Note OFF: Time 112320, Note Name: B3
Note ON: Time 112320, Note Name: C4, Velocity: 39
Note ON: Time 112320, Note Name: F4, Velocity: 59
Note OFF: Time 112440, Note Name: F4
Note ON: Time 112440, Note Name: D#4, Velocity: 54
Note OFF: Time 112560, Note Name: D#4
Note OFF: Time 112560, Note Name: C4
Note ON: Time 112560, Note Name: A3, Velocity: 39
Note ON: Time 112560, Note Name: F4, Velocity: 60
Note OFF: Time 112680, Note Name: F4
Note ON: Time 112680, Note Name: C4, Velocity: 52
Note OFF: Time 112800, Note Name: C4
Note OFF: Time 112800, Note Name: A3
Note ON: Time 112800, Note Name: A#3, Velocity: 50
Note ON: Time 112800, Note Name: D#4, Velocity: 59
Note OFF: Time 112920, Note Name: D#4
Note ON: Time 112920, Note Name: D4, Velocity: 53
Note OFF: Time 113040, Note Name: A#3
Note ON: Time 113040, Note Name: A3, Velocity: 47
Note OFF: Time 113160, Note Name: D4
Note ON: Time 113160, Note Name: C4, Velocity: 60
Note OFF: Time 113280, Note Name: A3
Note ON: Time 113280, Note Name: G3, Velocity: 66
Note OFF: Time 113520, Note Name: C4
Note ON: Time 113520, Note Name: A#3, Velocity: 60
Note OFF: Time 113760, Note Name: G3
Note ON: Time 113760, Note Name: C3, Velocity: 62
Note OFF: Time 114000, Note Name: A#3
Note ON: Time 114000, Note Name: A#3, Velocity: 58
Note OFF: Time 114240, Note Name: C3
Note ON: Time 114240, Note Name: F3, Velocity: 58
Note OFF: Time 114480, Note Name: A#3
Note ON: Time 114480, Note Name: A3, Velocity: 47
Note OFF: Time 114720, Note Name: A3
Note OFF: Time 114720, Note Name: F3
Note ON: Time 115200, Note Name: A#2, Velocity: 42
Note ON: Time 115320, Note Name: F3, Velocity: 34
Note OFF: Time 115440, Note Name: F3
Note OFF: Time 115440, Note Name: A#2
Note ON: Time 115440, Note Name: D3, Velocity: 38
Note ON: Time 115560, Note Name: F3, Velocity: 34
Note OFF: Time 115680, Note Name: F3
Note OFF: Time 115680, Note Name: D3
Note ON: Time 115680, Note Name: D#3, Velocity: 38
Note ON: Time 115680, Note Name: C3, Velocity: 38
Note OFF: Time 115800, Note Name: D#3
Note ON: Time 115800, Note Name: F3, Velocity: 34
Note OFF: Time 115920, Note Name: F3
Note OFF: Time 115920, Note Name: C3
Note ON: Time 115920, Note Name: D3, Velocity: 37
Note ON: Time 115920, Note Name: A#2, Velocity: 37
Note OFF: Time 116040, Note Name: D3
Note ON: Time 116040, Note Name: F3, Velocity: 34
Note OFF: Time 116160, Note Name: F3
Note OFF: Time 116160, Note Name: A#2
Note ON: Time 116160, Note Name: A2, Velocity: 43
Note ON: Time 116160, Note Name: D#3, Velocity: 43
Note ON: Time 116280, Note Name: F3, Velocity: 34
Note OFF: Time 116340, Note Name: F3
Note ON: Time 116400, Note Name: F3, Velocity: 34
Note OFF: Time 116460, Note Name: F3
Note ON: Time 116520, Note Name: F3, Velocity: 34
Note OFF: Time 116580, Note Name: F3
Note ON: Time 116640, Note Name: F3, Velocity: 37
Note OFF: Time 116700, Note Name: F3
Note ON: Time 116760, Note Name: F3, Velocity: 34
Note OFF: Time 116820, Note Name: F3
Note ON: Time 116880, Note Name: F3, Velocity: 34
Note OFF: Time 116940, Note Name: F3
Note ON: Time 117000, Note Name: F3, Velocity: 34
Note OFF: Time 117060, Note Name: F3
Note OFF: Time 117120, Note Name: D#3
Note OFF: Time 117120, Note Name: A2
Note ON: Time 117120, Note Name: A2, Velocity: 42
Note ON: Time 117240, Note Name: F3, Velocity: 34
Note OFF: Time 117360, Note Name: F3
Note OFF: Time 117360, Note Name: A2
Note ON: Time 117360, Note Name: D#3, Velocity: 38
Note ON: Time 117480, Note Name: F3, Velocity: 34
Note OFF: Time 117600, Note Name: F3
Note OFF: Time 117600, Note Name: D#3
Note ON: Time 117600, Note Name: D3, Velocity: 38
Note ON: Time 117720, Note Name: F3, Velocity: 34
Note OFF: Time 117840, Note Name: F3
Note OFF: Time 117840, Note Name: D3
Note ON: Time 117840, Note Name: A2, Velocity: 37
Note ON: Time 117960, Note Name: F3, Velocity: 34
Note OFF: Time 118080, Note Name: F3
Note OFF: Time 118080, Note Name: A2
Note ON: Time 118080, Note Name: A#2, Velocity: 43
Note ON: Time 118200, Note Name: F3, Velocity: 34
Note OFF: Time 118260, Note Name: F3
Note ON: Time 118320, Note Name: F3, Velocity: 34
Note OFF: Time 118380, Note Name: F3
Note ON: Time 118440, Note Name: F3, Velocity: 34
Note OFF: Time 118500, Note Name: F3
Note ON: Time 118560, Note Name: F3, Velocity: 40
Note OFF: Time 118620, Note Name: F3
Note ON: Time 118680, Note Name: F3, Velocity: 37
Note OFF: Time 118740, Note Name: F3
Note OFF: Time 118800, Note Name: A#2
Note ON: Time 118800, Note Name: F3, Velocity: 37
Note ON: Time 118800, Note Name: B2, Velocity: 37
Note OFF: Time 118860, Note Name: F3
Note ON: Time 118920, Note Name: F3, Velocity: 37
Note OFF: Time 118980, Note Name: F3
Note OFF: Time 119040, Note Name: B2
Note ON: Time 119040, Note Name: C3, Velocity: 47
Note ON: Time 119160, Note Name: F3, Velocity: 38
Note OFF: Time 119280, Note Name: F3
Note OFF: Time 119280, Note Name: C3
Note ON: Time 119280, Note Name: A2, Velocity: 42
Note ON: Time 119400, Note Name: F3, Velocity: 38
Note OFF: Time 119520, Note Name: F3
Note OFF: Time 119520, Note Name: A2
Note ON: Time 119520, Note Name: A#2, Velocity: 47
Note ON: Time 119640, Note Name: F3, Velocity: 38
Note OFF: Time 119760, Note Name: F3
Note OFF: Time 119760, Note Name: A#2
Note ON: Time 119760, Note Name: B2, Velocity: 43
Note ON: Time 119880, Note Name: F3, Velocity: 39
Note OFF: Time 120000, Note Name: F3
Note OFF: Time 120000, Note Name: B2
Note ON: Time 120000, Note Name: C3, Velocity: 54
Note ON: Time 120120, Note Name: F3, Velocity: 39
Note OFF: Time 120240, Note Name: F3
Note OFF: Time 120240, Note Name: C3
Note ON: Time 120240, Note Name: A2, Velocity: 49
Note ON: Time 120360, Note Name: F3, Velocity: 39
Note OFF: Time 120480, Note Name: F3
Note OFF: Time 120480, Note Name: A2
Note ON: Time 120480, Note Name: A#2, Velocity: 56
Note ON: Time 120600, Note Name: F3, Velocity: 41
Note OFF: Time 120720, Note Name: F3
Note OFF: Time 120720, Note Name: A#2
Note ON: Time 120720, Note Name: G#2, Velocity: 51
Note ON: Time 120840, Note Name: A#2, Velocity: 45
Note OFF: Time 120960, Note Name: A#2
Note OFF: Time 120960, Note Name: G#2
Note ON: Time 120960, Note Name: G2, Velocity: 62
Note ON: Time 121080, Note Name: A#2, Velocity: 51
Note OFF: Time 121190, Note Name: G2
Note OFF: Time 121200, Note Name: A#2
Note ON: Time 121200, Note Name: D#2, Velocity: 58
Note ON: Time 121320, Note Name: D#3, Velocity: 51
Note OFF: Time 121440, Note Name: D#3
Note OFF: Time 121440, Note Name: D#2
Note ON: Time 121440, Note Name: F2, Velocity: 56
Note ON: Time 121560, Note Name: D3, Velocity: 42
Note OFF: Time 121670, Note Name: F2
Note OFF: Time 121680, Note Name: D3
Note ON: Time 121680, Note Name: F2, Velocity: 49
Note ON: Time 121800, Note Name: A2, Velocity: 43
Note OFF: Time 121920, Note Name: A2
Note OFF: Time 121920, Note Name: F2
Note ON: Time 121920, Note Name: A#1, Velocity: 43
Note OFF: Time 122040, Note Name: A#1
Note ON: Time 122040, Note Name: A#2, Velocity: 29
Note ON: Time 122160, Note Name: A#3, Velocity: 35
Note OFF: Time 122220, Note Name: A#3
Note ON: Time 122280, Note Name: A#3, Velocity: 29
Note OFF: Time 122340, Note Name: A#3
Note ON: Time 122400, Note Name: A#3, Velocity: 37
Note OFF: Time 122460, Note Name: A#3
Note ON: Time 122520, Note Name: A#3, Velocity: 35
Note OFF: Time 122580, Note Name: A#3
Note OFF: Time 122640, Note Name: A#2
Note ON: Time 122640, Note Name: G#3, Velocity: 43
Note ON: Time 122760, Note Name: A#3, Velocity: 39
Note OFF: Time 122880, Note Name: A#3
Note OFF: Time 122880, Note Name: G#3
Note ON: Time 122880, Note Name: G3, Velocity: 52
Note ON: Time 123000, Note Name: A#3, Velocity: 46
Note OFF: Time 123120, Note Name: A#3
Note OFF: Time 123120, Note Name: G3
Note ON: Time 123120, Note Name: D#3, Velocity: 56
Note ON: Time 123240, Note Name: D#4, Velocity: 50
Note OFF: Time 123360, Note Name: D#4
Note OFF: Time 123360, Note Name: D#3
Note ON: Time 123360, Note Name: F3, Velocity: 35
Note ON: Time 123480, Note Name: D4, Velocity: 29
Note OFF: Time 123590, Note Name: F3
Note OFF: Time 123600, Note Name: D4
Note ON: Time 123600, Note Name: F3, Velocity: 35
Note ON: Time 123720, Note Name: A3, Velocity: 29
Note OFF: Time 123840, Note Name: A3
Note OFF: Time 123840, Note Name: F3
Note ON: Time 123840, Note Name: A#2, Velocity: 33
Note ON: Time 123840, Note Name: A#3, Velocity: 39
Note OFF: Time 124080, Note Name: A#3
Note OFF: Time 124080, Note Name: A#2
Note ON: Time 124320, Note Name: A#3, Velocity: 50
Note ON: Time 124320, Note Name: D4, Velocity: 60
Note OFF: Time 124800, Note Name: D4
Note OFF: Time 124800, Note Name: A#3
Note ON: Time 124800, Note Name: D#3, Velocity: 38
Note ON: Time 124800, Note Name: C4, Velocity: 45
Note OFF: Time 125520, Note Name: C4
Note OFF: Time 125520, Note Name: D#3
Note ON: Time 125520, Note Name: F3, Velocity: 34
Note ON: Time 125520, Note Name: C4, Velocity: 41
Note OFF: Time 125760, Note Name: C4
Note OFF: Time 125760, Note Name: F3
Note ON: Time 125760, Note Name: A#2, Velocity: 42
Note ON: Time 125760, Note Name: A#3, Velocity: 50
Note OFF: Time 126230, Note Name: A#3
Note OFF: Time 126230, Note Name: A#2
Note ON: Time 126240, Note Name: A#3, Velocity: 50
Note ON: Time 126240, Note Name: D4, Velocity: 60
Note OFF: Time 126720, Note Name: D4
Note OFF: Time 126720, Note Name: A#3
Note ON: Time 126720, Note Name: E3, Velocity: 41
Note ON: Time 126720, Note Name: G3, Velocity: 41
Note OFF: Time 127200, Note Name: G3
Note OFF: Time 127200, Note Name: E3
Note ON: Time 127200, Note Name: C3, Velocity: 41
Note ON: Time 127200, Note Name: C4, Velocity: 41
Note OFF: Time 127680, Note Name: C4
Note OFF: Time 127680, Note Name: C3
Note ON: Time 127680, Note Name: F3, Velocity: 42
Note ON: Time 127680, Note Name: C4, Velocity: 50
Note OFF: Time 128160, Note Name: C4
Note OFF: Time 128160, Note Name: F3
Note ON: Time 128160, Note Name: A#3, Velocity: 50
Note ON: Time 128160, Note Name: D4, Velocity: 60
Note OFF: Time 128640, Note Name: D4
Note OFF: Time 128640, Note Name: A#3
Note ON: Time 128640, Note Name: A3, Velocity: 41
Note ON: Time 128640, Note Name: C4, Velocity: 41
Note OFF: Time 129120, Note Name: C4
Note OFF: Time 129120, Note Name: A3
Note ON: Time 129120, Note Name: F3, Velocity: 41
Note ON: Time 129120, Note Name: F4, Velocity: 41
Note OFF: Time 129600, Note Name: F4
Note OFF: Time 129600, Note Name: F3
Note ON: Time 129600, Note Name: A#3, Velocity: 42
Note ON: Time 129600, Note Name: F4, Velocity: 50
Note OFF: Time 130070, Note Name: F4
Note OFF: Time 130070, Note Name: A#3
Note ON: Time 130080, Note Name: D3, Velocity: 62
Note ON: Time 130140, Note Name: A#3, Velocity: 52
Note ON: Time 130200, Note Name: D4, Velocity: 54
Note OFF: Time 130560, Note Name: D4
Note OFF: Time 130560, Note Name: A#3
Note OFF: Time 130560, Note Name: D3
Note ON: Time 130560, Note Name: D#3, Velocity: 69
Note ON: Time 130620, Note Name: A#3, Velocity: 58
Note ON: Time 130680, Note Name: D4, Velocity: 60
Note OFF: Time 131040, Note Name: D4
Note OFF: Time 131040, Note Name: A#3
Note OFF: Time 131040, Note Name: D#3
Note ON: Time 131040, Note Name: F3, Velocity: 73
Note ON: Time 131100, Note Name: A#3, Velocity: 61
Note ON: Time 131160, Note Name: D4, Velocity: 64
Note OFF: Time 131520, Note Name: D4
Note OFF: Time 131520, Note Name: A#3
Note OFF: Time 131520, Note Name: F3
Note ON: Time 131520, Note Name: G3, Velocity: 77
Note ON: Time 131580, Note Name: A#3, Velocity: 64
Note ON: Time 131640, Note Name: D4, Velocity: 68
Note OFF: Time 132000, Note Name: D4
Note OFF: Time 132000, Note Name: A#3
Note OFF: Time 132000, Note Name: G3
Note ON: Time 132000, Note Name: D4, Velocity: 58
Note ON: Time 132000, Note Name: F4, Velocity: 58
Note ON: Time 132000, Note Name: A#4, Velocity: 69
Note OFF: Time 132230, Note Name: A#4
Note OFF: Time 132240, Note Name: F4
Note OFF: Time 132240, Note Name: D4
Note ON: Time 132240, Note Name: E4, Velocity: 58
Note ON: Time 132240, Note Name: G4, Velocity: 58
Note ON: Time 132240, Note Name: A#4, Velocity: 64
Note OFF: Time 132480, Note Name: G4
Note OFF: Time 132480, Note Name: E4
Note ON: Time 132480, Note Name: F4, Velocity: 59
Note OFF: Time 132720, Note Name: A#4
Note ON: Time 132720, Note Name: A4, Velocity: 63
Note OFF: Time 132840, Note Name: A4
Note OFF: Time 132960, Note Name: F4
Note ON: Time 132960, Note Name: A#3, Velocity: 58
Note ON: Time 132960, Note Name: D4, Velocity: 58
Note ON: Time 132960, Note Name: G4, Velocity: 69
Note OFF: Time 133190, Note Name: G4
Note OFF: Time 133200, Note Name: D4
Note OFF: Time 133200, Note Name: A#3
Note ON: Time 133200, Note Name: C#4, Velocity: 55
Note ON: Time 133200, Note Name: E4, Velocity: 55
Note ON: Time 133200, Note Name: G4, Velocity: 64
Note OFF: Time 133440, Note Name: C#4
Note ON: Time 133440, Note Name: D4, Velocity: 59
Note OFF: Time 133680, Note Name: G4
Note OFF: Time 133680, Note Name: E4
Note ON: Time 133680, Note Name: F4, Velocity: 63
Note OFF: Time 133800, Note Name: F4
Note OFF: Time 133800, Note Name: D4
Note ON: Time 133920, Note Name: G3, Velocity: 58
Note ON: Time 133920, Note Name: A#3, Velocity: 58
Note ON: Time 133920, Note Name: D#4, Velocity: 69
Note OFF: Time 134160, Note Name: D#4
Note OFF: Time 134160, Note Name: A#3
Note OFF: Time 134160, Note Name: G3
Note ON: Time 134160, Note Name: A3, Velocity: 58
Note ON: Time 134160, Note Name: C4, Velocity: 58
Note ON: Time 134160, Note Name: D#4, Velocity: 64
Note OFF: Time 134400, Note Name: C4
Note OFF: Time 134400, Note Name: A3
Note ON: Time 134400, Note Name: A#3, Velocity: 68
Note ON: Time 134520, Note Name: D4, Velocity: 58
Note OFF: Time 134640, Note Name: A#3
Note OFF: Time 134640, Note Name: D#4
Note ON: Time 134640, Note Name: D#3, Velocity: 49
Note OFF: Time 134760, Note Name: D4
Note ON: Time 134760, Note Name: C4, Velocity: 66
Note OFF: Time 134880, Note Name: D#3
Note ON: Time 134880, Note Name: F3, Velocity: 56
Note OFF: Time 135000, Note Name: C4
Note ON: Time 135000, Note Name: A#3, Velocity: 59
Note OFF: Time 135110, Note Name: F3
Note ON: Time 135120, Note Name: F3, Velocity: 49
Note OFF: Time 135240, Note Name: A#3
Note ON: Time 135240, Note Name: A3, Velocity: 59
Note OFF: Time 135360, Note Name: F3
Note ON: Time 135360, Note Name: A#2, Velocity: 56
Note OFF: Time 135600, Note Name: A3
Note ON: Time 135600, Note Name: A#3, Velocity: 66
Note OFF: Time 135720, Note Name: A#3
Note OFF: Time 135720, Note Name: A#2
Note ON: Time 135840, Note Name: A#2, Velocity: 63
Note ON: Time 135840, Note Name: F3, Velocity: 63
Note OFF: Time 136080, Note Name: F3
Note ON: Time 136080, Note Name: G3, Velocity: 57
Note OFF: Time 136320, Note Name: A#2
Note ON: Time 136320, Note Name: A2, Velocity: 68
Note OFF: Time 136560, Note Name: G3
Note ON: Time 136560, Note Name: A3, Velocity: 63
Note OFF: Time 136680, Note Name: A3
Note OFF: Time 136800, Note Name: A2
Note ON: Time 136800, Note Name: G2, Velocity: 63
Note ON: Time 136800, Note Name: D3, Velocity: 63
Note OFF: Time 137040, Note Name: D3
Note ON: Time 137040, Note Name: E3, Velocity: 57
Note OFF: Time 137280, Note Name: G2
Note ON: Time 137280, Note Name: F2, Velocity: 68
Note OFF: Time 137520, Note Name: E3
Note ON: Time 137520, Note Name: F3, Velocity: 63
Note OFF: Time 137640, Note Name: F3
Note OFF: Time 137760, Note Name: F2
Note ON: Time 137760, Note Name: D#2, Velocity: 68
Note ON: Time 137760, Note Name: A#2, Velocity: 63
Note OFF: Time 138000, Note Name: A#2
Note ON: Time 138000, Note Name: C3, Velocity: 57
Note OFF: Time 138240, Note Name: C3
Note OFF: Time 138240, Note Name: D#2
Note ON: Time 138240, Note Name: F3, Velocity: 56
Note ON: Time 138240, Note Name: D2, Velocity: 68
Note OFF: Time 138480, Note Name: D2
Note OFF: Time 138480, Note Name: F3
Note ON: Time 138480, Note Name: D#2, Velocity: 69
Note OFF: Time 138720, Note Name: D#2
Note ON: Time 138720, Note Name: A#3, Velocity: 68
Note ON: Time 138720, Note Name: F3, Velocity: 68
Note ON: Time 138720, Note Name: F2, Velocity: 73
Note OFF: Time 138960, Note Name: F2
Note OFF: Time 138960, Note Name: F3
Note OFF: Time 138960, Note Name: A#3
Note ON: Time 138960, Note Name: A3, Velocity: 72
Note ON: Time 138960, Note Name: D#3, Velocity: 72
Note ON: Time 138960, Note Name: F1, Velocity: 79
Note OFF: Time 139200, Note Name: F1
Note OFF: Time 139200, Note Name: D#3
Note OFF: Time 139200, Note Name: A3
Note ON: Time 139200, Note Name: A#1, Velocity: 83
Note OFF: Time 139440, Note Name: A#1
Note ON: Time 139440, Note Name: A#2, Velocity: 46
Note ON: Time 139680, Note Name: D3, Velocity: 46
Note ON: Time 139920, Note Name: F3, Velocity: 46
Note OFF: Time 140160, Note Name: F3
Note OFF: Time 140160, Note Name: D3
Note OFF: Time 140160, Note Name: A#2
Note ON: Time 140160, Note Name: A#2, Velocity: 54
Note ON: Time 140160, Note Name: C3, Velocity: 54
Note ON: Time 140400, Note Name: D#3, Velocity: 47
Note ON: Time 140640, Note Name: F3, Velocity: 47
Note ON: Time 140880, Note Name: A3, Velocity: 47
Note OFF: Time 141120, Note Name: A3
Note OFF: Time 141120, Note Name: D#3
Note OFF: Time 141120, Note Name: A#2
Note OFF: Time 141120, Note Name: C3
Note OFF: Time 141120, Note Name: F3
Note ON: Time 141120, Note Name: A#1, Velocity: 64
Note OFF: Time 141360, Note Name: A#1
Note ON: Time 141360, Note Name: A#2, Velocity: 46
Note ON: Time 141600, Note Name: D3, Velocity: 46
Note ON: Time 141840, Note Name: F3, Velocity: 46
Note OFF: Time 142080, Note Name: F3
Note OFF: Time 142080, Note Name: D3
Note OFF: Time 142080, Note Name: A#2
Note ON: Time 142080, Note Name: A#2, Velocity: 54
Note ON: Time 142080, Note Name: C3, Velocity: 54
Note ON: Time 142320, Note Name: D#3, Velocity: 47
Note ON: Time 142560, Note Name: F3, Velocity: 47
Note ON: Time 142800, Note Name: A3, Velocity: 47
Note OFF: Time 143040, Note Name: A3
Note OFF: Time 143040, Note Name: D#3
Note OFF: Time 143040, Note Name: A#2
Note OFF: Time 143040, Note Name: C3
Note OFF: Time 143040, Note Name: F3
Note ON: Time 143040, Note Name: A#1, Velocity: 69
Note OFF: Time 143280, Note Name: A#1
Note ON: Time 143280, Note Name: A#2, Velocity: 52
Note ON: Time 143520, Note Name: D3, Velocity: 52
Note ON: Time 143760, Note Name: F3, Velocity: 52
Note OFF: Time 144000, Note Name: F3
Note OFF: Time 144000, Note Name: D3
Note OFF: Time 144000, Note Name: A#2
Note ON: Time 144000, Note Name: G#1, Velocity: 77
Note OFF: Time 144240, Note Name: G#1
Note ON: Time 144240, Note Name: G#2, Velocity: 56
Note ON: Time 144480, Note Name: D3, Velocity: 56
Note ON: Time 144720, Note Name: F3, Velocity: 56
Note OFF: Time 144960, Note Name: F3
Note OFF: Time 144960, Note Name: D3
Note OFF: Time 144960, Note Name: G#2
Note ON: Time 144960, Note Name: G1, Velocity: 83
Note OFF: Time 145200, Note Name: G1
Note ON: Time 145200, Note Name: G2, Velocity: 57
Note ON: Time 145440, Note Name: A#2, Velocity: 57
Note ON: Time 145680, Note Name: D#3, Velocity: 57
Note OFF: Time 145920, Note Name: D#3
Note OFF: Time 145920, Note Name: A#2
Note OFF: Time 145920, Note Name: G2
Note ON: Time 145920, Note Name: D2, Velocity: 59
Note OFF: Time 145980, Note Name: D2
Note ON: Time 145980, Note Name: F2, Velocity: 60
Note OFF: Time 146040, Note Name: F2
Note ON: Time 146040, Note Name: G#2, Velocity: 61
Note OFF: Time 146100, Note Name: G#2
Note ON: Time 146100, Note Name: A#2, Velocity: 61
Note OFF: Time 146160, Note Name: A#2
Note ON: Time 146160, Note Name: D3, Velocity: 62
Note OFF: Time 146220, Note Name: D3
Note ON: Time 146220, Note Name: F3, Velocity: 64
Note OFF: Time 146280, Note Name: F3
Note ON: Time 146280, Note Name: G#3, Velocity: 65
Note OFF: Time 146340, Note Name: G#3
Note ON: Time 146340, Note Name: A#3, Velocity: 66
Note OFF: Time 146400, Note Name: A#3
Note ON: Time 146880, Note Name: D#4, Velocity: 42
Note ON: Time 147000, Note Name: A#4, Velocity: 34
Note OFF: Time 147120, Note Name: A#4
Note OFF: Time 147120, Note Name: D#4
Note ON: Time 147120, Note Name: G4, Velocity: 38
Note ON: Time 147240, Note Name: A#4, Velocity: 34
Note OFF: Time 147360, Note Name: A#4
Note OFF: Time 147360, Note Name: G4
Note ON: Time 147360, Note Name: G#4, Velocity: 38
Note ON: Time 147360, Note Name: F4, Velocity: 38
Note OFF: Time 147480, Note Name: G#4
Note ON: Time 147480, Note Name: A#4, Velocity: 34
Note OFF: Time 147600, Note Name: A#4
Note OFF: Time 147600, Note Name: F4
Note ON: Time 147600, Note Name: G4, Velocity: 37
Note ON: Time 147600, Note Name: D#4, Velocity: 37
Note OFF: Time 147720, Note Name: G4
Note ON: Time 147720, Note Name: A#4, Velocity: 34
Note OFF: Time 147840, Note Name: A#4
Note OFF: Time 147840, Note Name: D#4
Note ON: Time 147840, Note Name: D4, Velocity: 43
Note ON: Time 147840, Note Name: G#4, Velocity: 43
Note ON: Time 147960, Note Name: A#4, Velocity: 34
Note OFF: Time 148020, Note Name: A#4
Note ON: Time 148080, Note Name: A#4, Velocity: 34
Note OFF: Time 148140, Note Name: A#4
Note ON: Time 148200, Note Name: A#4, Velocity: 34
Note OFF: Time 148260, Note Name: A#4
Note ON: Time 148320, Note Name: A#4, Velocity: 37
Note OFF: Time 148380, Note Name: A#4
Note ON: Time 148440, Note Name: A#4, Velocity: 34
Note OFF: Time 148500, Note Name: A#4
Note ON: Time 148560, Note Name: A#4, Velocity: 34
Note OFF: Time 148620, Note Name: A#4
Note ON: Time 148680, Note Name: A#4, Velocity: 34
Note OFF: Time 148740, Note Name: A#4
Note OFF: Time 148800, Note Name: G#4
Note OFF: Time 148800, Note Name: D4
Note ON: Time 148800, Note Name: D4, Velocity: 42
Note ON: Time 148920, Note Name: A#4, Velocity: 34
Note OFF: Time 149040, Note Name: A#4
Note OFF: Time 149040, Note Name: D4
Note ON: Time 149040, Note Name: G#4, Velocity: 38
Note ON: Time 149160, Note Name: A#4, Velocity: 34
Note OFF: Time 149280, Note Name: A#4
Note OFF: Time 149280, Note Name: G#4
Note ON: Time 149280, Note Name: G4, Velocity: 38
Note ON: Time 149400, Note Name: A#4, Velocity: 34
Note OFF: Time 149520, Note Name: A#4
Note OFF: Time 149520, Note Name: G4
Note ON: Time 149520, Note Name: D4, Velocity: 37
Note ON: Time 149640, Note Name: A#4, Velocity: 34
Note OFF: Time 149760, Note Name: A#4
Note OFF: Time 149760, Note Name: D4
Note ON: Time 149760, Note Name: D#4, Velocity: 43
Note ON: Time 149880, Note Name: A#4, Velocity: 34
Note OFF: Time 149940, Note Name: A#4
Note OFF: Time 150000, Note Name: D#4
Note ON: Time 150000, Note Name: D#4, Velocity: 43
Note ON: Time 150120, Note Name: B4, Velocity: 34
Note OFF: Time 150180, Note Name: B4
Note OFF: Time 150240, Note Name: D#4
Note ON: Time 150240, Note Name: D#4, Velocity: 43
Note ON: Time 150360, Note Name: C5, Velocity: 34
Note OFF: Time 150420, Note Name: C5
Note OFF: Time 150480, Note Name: D#4
Note ON: Time 150840, Note Name: G4, Velocity: 34
Note OFF: Time 150960, Note Name: G4
Note ON: Time 150960, Note Name: D#4, Velocity: 38
Note ON: Time 151080, Note Name: G4, Velocity: 34
Note OFF: Time 151200, Note Name: G4
Note OFF: Time 151200, Note Name: D#4
Note ON: Time 151200, Note Name: F4, Velocity: 38
Note ON: Time 151200, Note Name: D4, Velocity: 38
Note OFF: Time 151320, Note Name: F4
Note ON: Time 151320, Note Name: G4, Velocity: 34
Note OFF: Time 151440, Note Name: G4
Note OFF: Time 151440, Note Name: D4
Note ON: Time 151440, Note Name: D#4, Velocity: 37
Note ON: Time 151440, Note Name: C4, Velocity: 37
Note OFF: Time 151560, Note Name: D#4
Note ON: Time 151560, Note Name: G4, Velocity: 34
Note OFF: Time 151680, Note Name: G4
Note OFF: Time 151680, Note Name: C4
Note ON: Time 151680, Note Name: B3, Velocity: 43
Note ON: Time 151680, Note Name: F4, Velocity: 43
Note ON: Time 151800, Note Name: G4, Velocity: 34
Note OFF: Time 151860, Note Name: G4
Note ON: Time 151920, Note Name: G4, Velocity: 34
Note OFF: Time 151980, Note Name: G4
Note ON: Time 152040, Note Name: G4, Velocity: 34
Note OFF: Time 152100, Note Name: G4
Note ON: Time 152160, Note Name: G4, Velocity: 34
Note OFF: Time 152280, Note Name: G4
Note OFF: Time 152280, Note Name: F4
Note OFF: Time 152280, Note Name: B3
Note ON: Time 153240, Note Name: G4, Velocity: 28
Note OFF: Time 153360, Note Name: G4
Note ON: Time 153360, Note Name: G#4, Velocity: 34
Note OFF: Time 153480, Note Name: G#4
Note ON: Time 153480, Note Name: G4, Velocity: 30
Note OFF: Time 153600, Note Name: G4
Note ON: Time 153600, Note Name: F4, Velocity: 34
Note OFF: Time 153720, Note Name: F4
Note ON: Time 153720, Note Name: D#4, Velocity: 30
Note OFF: Time 153840, Note Name: D#4
Note ON: Time 153840, Note Name: D4, Velocity: 32
Note OFF: Time 153960, Note Name: D4
Note ON: Time 153960, Note Name: C4, Velocity: 30
Note OFF: Time 154080, Note Name: C4
Note ON: Time 154200, Note Name: D#4, Velocity: 40
Note OFF: Time 154320, Note Name: D#4
Note ON: Time 154320, Note Name: F4, Velocity: 45
Note OFF: Time 154440, Note Name: F4
Note ON: Time 154440, Note Name: D#4, Velocity: 41
Note OFF: Time 154560, Note Name: D#4
Note ON: Time 154560, Note Name: D4, Velocity: 45
Note OFF: Time 154680, Note Name: D4
Note ON: Time 154680, Note Name: C4, Velocity: 40
Note OFF: Time 154800, Note Name: C4
Note ON: Time 154800, Note Name: A#3, Velocity: 43
Note OFF: Time 154920, Note Name: A#3
Note ON: Time 154920, Note Name: A3, Velocity: 40
Note OFF: Time 155040, Note Name: A3
Note ON: Time 155040, Note Name: G3, Velocity: 46
Note OFF: Time 155160, Note Name: G3
Note ON: Time 155160, Note Name: F3, Velocity: 40
Note OFF: Time 155280, Note Name: F3
Note ON: Time 155280, Note Name: D#3, Velocity: 40
Note OFF: Time 155400, Note Name: D#3
Note ON: Time 155400, Note Name: D3, Velocity: 40
Note OFF: Time 155520, Note Name: D3
Note ON: Time 155520, Note Name: C3, Velocity: 51
Note OFF: Time 155640, Note Name: C3
Note ON: Time 155640, Note Name: A#2, Velocity: 41
Note OFF: Time 155760, Note Name: A#2
Note ON: Time 155760, Note Name: A2, Velocity: 45
Note OFF: Time 155880, Note Name: A2
Note ON: Time 155880, Note Name: G2, Velocity: 47
Note OFF: Time 156000, Note Name: G2
Note ON: Time 156000, Note Name: F2, Velocity: 51
Note OFF: Time 158400, Note Name: F2
Note ON: Time 158400, Note Name: G4, Velocity: 42
Note OFF: Time 158460, Note Name: G4
Note ON: Time 158520, Note Name: F4, Velocity: 34
Note OFF: Time 158640, Note Name: F4
Note ON: Time 158640, Note Name: D4, Velocity: 38
Note ON: Time 158760, Note Name: F4, Velocity: 34
Note OFF: Time 158880, Note Name: F4
Note OFF: Time 158880, Note Name: D4
Note ON: Time 158880, Note Name: D#4, Velocity: 38
Note ON: Time 158880, Note Name: C4, Velocity: 38
Note OFF: Time 159000, Note Name: D#4
Note ON: Time 159000, Note Name: F4, Velocity: 34
Note OFF: Time 159120, Note Name: F4
Note OFF: Time 159120, Note Name: C4
Note ON: Time 159120, Note Name: D4, Velocity: 37
Note ON: Time 159120, Note Name: A#3, Velocity: 37
Note OFF: Time 159240, Note Name: D4
Note ON: Time 159240, Note Name: F4, Velocity: 34
Note OFF: Time 159360, Note Name: F4
Note OFF: Time 159360, Note Name: A#3
Note ON: Time 159360, Note Name: A3, Velocity: 43
Note ON: Time 159360, Note Name: D#4, Velocity: 43
Note ON: Time 159480, Note Name: F4, Velocity: 34
Note OFF: Time 159540, Note Name: F4
Note ON: Time 159600, Note Name: F4, Velocity: 34
Note OFF: Time 159660, Note Name: F4
Note ON: Time 159720, Note Name: F4, Velocity: 34
Note OFF: Time 159780, Note Name: F4
Note ON: Time 159840, Note Name: F4, Velocity: 37
Note OFF: Time 159900, Note Name: F4
Note ON: Time 159960, Note Name: F4, Velocity: 34
Note OFF: Time 160020, Note Name: F4
Note ON: Time 160080, Note Name: F4, Velocity: 34
Note OFF: Time 160140, Note Name: F4
Note ON: Time 160200, Note Name: F4, Velocity: 34
Note OFF: Time 160260, Note Name: F4
Note OFF: Time 160320, Note Name: D#4
Note OFF: Time 160320, Note Name: A3
Note ON: Time 160320, Note Name: A3, Velocity: 42
Note ON: Time 160440, Note Name: F4, Velocity: 34
Note OFF: Time 160560, Note Name: F4
Note OFF: Time 160560, Note Name: A3
Note ON: Time 160560, Note Name: D#4, Velocity: 38
Note ON: Time 160680, Note Name: F4, Velocity: 34
Note OFF: Time 160800, Note Name: F4
Note OFF: Time 160800, Note Name: D#4
Note ON: Time 160800, Note Name: D4, Velocity: 38
Note ON: Time 160920, Note Name: F4, Velocity: 34
Note OFF: Time 161040, Note Name: F4
Note OFF: Time 161040, Note Name: D4
Note ON: Time 161040, Note Name: A3, Velocity: 37
Note ON: Time 161160, Note Name: F4, Velocity: 34
Note OFF: Time 161280, Note Name: F4
Note OFF: Time 161280, Note Name: A3
Note ON: Time 161280, Note Name: A#3, Velocity: 43
Note ON: Time 161400, Note Name: F4, Velocity: 34
Note OFF: Time 161460, Note Name: F4
Note ON: Time 161520, Note Name: F4, Velocity: 34
Note OFF: Time 161580, Note Name: F4
Note ON: Time 161640, Note Name: F4, Velocity: 34
Note OFF: Time 161700, Note Name: F4
Note ON: Time 161760, Note Name: F4, Velocity: 37
Note OFF: Time 161820, Note Name: F4
Note ON: Time 161880, Note Name: F4, Velocity: 34
Note OFF: Time 161940, Note Name: F4
Note OFF: Time 162000, Note Name: A#3
Note ON: Time 162000, Note Name: B3, Velocity: 34
Note ON: Time 162120, Note Name: F4, Velocity: 34
Note OFF: Time 162180, Note Name: F4
Note OFF: Time 162240, Note Name: B3
Note ON: Time 162240, Note Name: C4, Velocity: 42
Note ON: Time 162360, Note Name: F4, Velocity: 34
Note OFF: Time 162480, Note Name: F4
Note OFF: Time 162480, Note Name: C4
Note ON: Time 162480, Note Name: A3, Velocity: 38
Note ON: Time 162600, Note Name: F4, Velocity: 34
Note OFF: Time 162720, Note Name: F4
Note OFF: Time 162720, Note Name: A3
Note ON: Time 162720, Note Name: A#3, Velocity: 42
Note ON: Time 162840, Note Name: F4, Velocity: 34
Note OFF: Time 162960, Note Name: F4
Note OFF: Time 162960, Note Name: A#3
Note ON: Time 162960, Note Name: B3, Velocity: 38
Note ON: Time 163080, Note Name: F4, Velocity: 34
Note OFF: Time 163200, Note Name: F4
Note OFF: Time 163200, Note Name: B3
Note ON: Time 163200, Note Name: C4, Velocity: 47
Note ON: Time 163320, Note Name: F4, Velocity: 34
Note OFF: Time 163440, Note Name: F4
Note OFF: Time 163440, Note Name: C4
Note ON: Time 163440, Note Name: A3, Velocity: 42
Note ON: Time 163560, Note Name: F4, Velocity: 34
Note OFF: Time 163680, Note Name: F4
Note OFF: Time 163680, Note Name: A3
Note ON: Time 163680, Note Name: A#3, Velocity: 48
Note ON: Time 163800, Note Name: D4, Velocity: 35
Note OFF: Time 163920, Note Name: D4
Note OFF: Time 163920, Note Name: A#3
Note ON: Time 163920, Note Name: A3, Velocity: 44
Note ON: Time 164040, Note Name: C4, Velocity: 39
Note OFF: Time 164160, Note Name: C4
Note OFF: Time 164160, Note Name: A3
Note ON: Time 164160, Note Name: G3, Velocity: 55
Note ON: Time 164280, Note Name: A#3, Velocity: 47
Note OFF: Time 164390, Note Name: G3
Note OFF: Time 164400, Note Name: A#3
Note ON: Time 164400, Note Name: G3, Velocity: 57
Note ON: Time 164520, Note Name: A#3, Velocity: 50
Note OFF: Time 164640, Note Name: A#3
Note OFF: Time 164640, Note Name: G3
Note ON: Time 164640, Note Name: C3, Velocity: 63
Note ON: Time 164760, Note Name: A#3, Velocity: 46
Note OFF: Time 164870, Note Name: C3
Note OFF: Time 164880, Note Name: A#3
Note ON: Time 164880, Note Name: C3, Velocity: 53
Note ON: Time 165000, Note Name: A#3, Velocity: 34
Note OFF: Time 165120, Note Name: C3
Note ON: Time 165120, Note Name: F3, Velocity: 43
Note OFF: Time 165230, Note Name: A#3
Note ON: Time 165240, Note Name: A#3, Velocity: 29
Note OFF: Time 165360, Note Name: A#3
Note ON: Time 165360, Note Name: A3, Velocity: 35
Note OFF: Time 165480, Note Name: A3
Note ON: Time 165480, Note Name: G3, Velocity: 29
Note OFF: Time 165600, Note Name: G3
Note ON: Time 165600, Note Name: A3, Velocity: 34
Note OFF: Time 165840, Note Name: A3
Note OFF: Time 165840, Note Name: F3
Note ON: Time 166080, Note Name: A#2, Velocity: 42
Note ON: Time 166200, Note Name: F3, Velocity: 34
Note OFF: Time 166320, Note Name: F3
Note OFF: Time 166320, Note Name: A#2
Note ON: Time 166320, Note Name: D3, Velocity: 38
Note ON: Time 166440, Note Name: F3, Velocity: 34
Note OFF: Time 166560, Note Name: F3
Note OFF: Time 166560, Note Name: D3
Note ON: Time 166560, Note Name: D#3, Velocity: 38
Note ON: Time 166560, Note Name: C3, Velocity: 38
Note OFF: Time 166680, Note Name: D#3
Note ON: Time 166680, Note Name: F3, Velocity: 34
Note OFF: Time 166800, Note Name: F3
Note OFF: Time 166800, Note Name: C3
Note ON: Time 166800, Note Name: D3, Velocity: 37
Note ON: Time 166800, Note Name: A#2, Velocity: 37
Note OFF: Time 166920, Note Name: D3
Note ON: Time 166920, Note Name: F3, Velocity: 34
Note OFF: Time 167040, Note Name: F3
Note OFF: Time 167040, Note Name: A#2
Note ON: Time 167040, Note Name: A2, Velocity: 43
Note ON: Time 167040, Note Name: D#3, Velocity: 43
Note ON: Time 167160, Note Name: F3, Velocity: 34
Note OFF: Time 167220, Note Name: F3
Note ON: Time 167280, Note Name: F3, Velocity: 34
Note OFF: Time 167340, Note Name: F3
Note ON: Time 167400, Note Name: F3, Velocity: 34
Note OFF: Time 167460, Note Name: F3
Note ON: Time 167520, Note Name: F3, Velocity: 37
Note OFF: Time 167580, Note Name: F3
Note ON: Time 167640, Note Name: F3, Velocity: 34
Note OFF: Time 167700, Note Name: F3
Note ON: Time 167760, Note Name: F3, Velocity: 34
Note OFF: Time 167820, Note Name: F3
Note ON: Time 167880, Note Name: F3, Velocity: 34
Note OFF: Time 167940, Note Name: F3
Note OFF: Time 168000, Note Name: D#3
Note OFF: Time 168000, Note Name: A2
Note ON: Time 168000, Note Name: A2, Velocity: 42
Note ON: Time 168120, Note Name: F3, Velocity: 34
Note OFF: Time 168240, Note Name: F3
Note OFF: Time 168240, Note Name: A2
Note ON: Time 168240, Note Name: D#3, Velocity: 38
Note ON: Time 168360, Note Name: F3, Velocity: 34
Note OFF: Time 168480, Note Name: F3
Note OFF: Time 168480, Note Name: D#3
Note ON: Time 168480, Note Name: D3, Velocity: 38
Note ON: Time 168600, Note Name: F3, Velocity: 34
Note OFF: Time 168720, Note Name: F3
Note OFF: Time 168720, Note Name: D3
Note ON: Time 168720, Note Name: A2, Velocity: 37
Note ON: Time 168840, Note Name: F3, Velocity: 34
Note OFF: Time 168960, Note Name: F3
Note OFF: Time 168960, Note Name: A2
Note ON: Time 168960, Note Name: A#2, Velocity: 43
Note ON: Time 169080, Note Name: F3, Velocity: 34
Note OFF: Time 169140, Note Name: F3
Note ON: Time 169200, Note Name: F3, Velocity: 34
Note OFF: Time 169260, Note Name: F3
Note ON: Time 169320, Note Name: F3, Velocity: 34
Note OFF: Time 169380, Note Name: F3
Note ON: Time 169440, Note Name: F3, Velocity: 40
Note OFF: Time 169500, Note Name: F3
Note ON: Time 169560, Note Name: F3, Velocity: 37
Note OFF: Time 169620, Note Name: F3
Note OFF: Time 169680, Note Name: A#2
Note ON: Time 169680, Note Name: B2, Velocity: 37
Note ON: Time 169800, Note Name: F3, Velocity: 37
Note OFF: Time 169860, Note Name: F3
Note OFF: Time 169920, Note Name: B2
Note ON: Time 169920, Note Name: C3, Velocity: 47
Note ON: Time 170040, Note Name: F3, Velocity: 38
Note OFF: Time 170160, Note Name: F3
Note OFF: Time 170160, Note Name: C3
Note ON: Time 170160, Note Name: F2, Velocity: 42
Note ON: Time 170280, Note Name: F3, Velocity: 38
Note OFF: Time 170400, Note Name: F3
Note OFF: Time 170400, Note Name: F2
Note ON: Time 170400, Note Name: A#2, Velocity: 47
Note ON: Time 170520, Note Name: F3, Velocity: 38
Note OFF: Time 170640, Note Name: F3
Note OFF: Time 170640, Note Name: A#2
Note ON: Time 170640, Note Name: B2, Velocity: 43
Note ON: Time 170760, Note Name: F3, Velocity: 39
Note OFF: Time 170880, Note Name: F3
Note OFF: Time 170880, Note Name: B2
Note ON: Time 170880, Note Name: C3, Velocity: 54
Note ON: Time 171000, Note Name: F3, Velocity: 47
Note OFF: Time 171120, Note Name: F3
Note OFF: Time 171120, Note Name: C3
Note ON: Time 171120, Note Name: F2, Velocity: 53
Note ON: Time 171240, Note Name: F3, Velocity: 44
Note OFF: Time 171360, Note Name: F3
Note OFF: Time 171360, Note Name: F2
Note ON: Time 171360, Note Name: A#2, Velocity: 64
Note ON: Time 171480, Note Name: F3, Velocity: 49
Note OFF: Time 171600, Note Name: F3
Note OFF: Time 171600, Note Name: A#2
Note ON: Time 171600, Note Name: G#2, Velocity: 60
Note ON: Time 171720, Note Name: A#2, Velocity: 45
Note OFF: Time 171840, Note Name: A#2
Note OFF: Time 171840, Note Name: G#2
Note ON: Time 171840, Note Name: G2, Velocity: 73
Note ON: Time 171960, Note Name: A#2, Velocity: 60
Note OFF: Time 172070, Note Name: G2
Note OFF: Time 172080, Note Name: A#2
Note ON: Time 172080, Note Name: D#2, Velocity: 69
Note ON: Time 172200, Note Name: D#3, Velocity: 60
Note OFF: Time 172320, Note Name: D#3
Note OFF: Time 172320, Note Name: D#2
Note ON: Time 172320, Note Name: F2, Velocity: 56
Note ON: Time 172440, Note Name: D3, Velocity: 42
Note OFF: Time 172550, Note Name: F2
Note OFF: Time 172560, Note Name: D3
Note ON: Time 172560, Note Name: F2, Velocity: 49
Note ON: Time 172680, Note Name: A2, Velocity: 43
Note OFF: Time 172800, Note Name: A2
Note OFF: Time 172800, Note Name: F2
Note ON: Time 172800, Note Name: A#1, Velocity: 43
Note OFF: Time 172920, Note Name: A#1
Note ON: Time 172920, Note Name: A#2, Velocity: 29
Note ON: Time 173040, Note Name: A#3, Velocity: 35
Note OFF: Time 173100, Note Name: A#3
Note ON: Time 173160, Note Name: A#3, Velocity: 29
Note OFF: Time 173220, Note Name: A#3
Note ON: Time 173280, Note Name: A#3, Velocity: 49
Note OFF: Time 173340, Note Name: A#3
Note ON: Time 173400, Note Name: A#3, Velocity: 39
Note OFF: Time 173460, Note Name: A#3
Note OFF: Time 173520, Note Name: A#2
Note ON: Time 173520, Note Name: G#3, Velocity: 50
Note ON: Time 173640, Note Name: A#3, Velocity: 39
Note OFF: Time 173760, Note Name: A#3
Note OFF: Time 173760, Note Name: G#3
Note ON: Time 173760, Note Name: G3, Velocity: 63
Note ON: Time 173880, Note Name: A#3, Velocity: 52
Note OFF: Time 174000, Note Name: A#3
Note OFF: Time 174000, Note Name: G3
Note ON: Time 174000, Note Name: D#3, Velocity: 56
Note ON: Time 174120, Note Name: D#4, Velocity: 50
Note OFF: Time 174240, Note Name: D#4
Note OFF: Time 174240, Note Name: D#3
Note ON: Time 174240, Note Name: F3, Velocity: 35
Note ON: Time 174360, Note Name: D4, Velocity: 29
Note OFF: Time 174470, Note Name: F3
Note OFF: Time 174480, Note Name: D4
Note ON: Time 174480, Note Name: F3, Velocity: 35
Note ON: Time 174600, Note Name: A3, Velocity: 29
Note OFF: Time 174720, Note Name: A3
Note OFF: Time 174720, Note Name: F3
Note ON: Time 174720, Note Name: A#2, Velocity: 33
Note ON: Time 174720, Note Name: A#3, Velocity: 39
Note OFF: Time 174960, Note Name: A#3
Note OFF: Time 174960, Note Name: A#2
Note ON: Time 175200, Note Name: D4, Velocity: 69
Note ON: Time 175200, Note Name: F4, Velocity: 79
Note OFF: Time 175680, Note Name: F4
Note OFF: Time 175680, Note Name: D4
Note ON: Time 175680, Note Name: C4, Velocity: 69
Note ON: Time 175680, Note Name: D#4, Velocity: 69
Note ON: Time 175680, Note Name: F4, Velocity: 79
Note OFF: Time 176160, Note Name: F4
Note OFF: Time 176160, Note Name: D#4
Note OFF: Time 176160, Note Name: C4
Note ON: Time 176160, Note Name: A#3, Velocity: 69
Note ON: Time 176160, Note Name: D4, Velocity: 69
Note ON: Time 176160, Note Name: F4, Velocity: 79
Note OFF: Time 176640, Note Name: F4
Note OFF: Time 176640, Note Name: D4
Note OFF: Time 176640, Note Name: A#3
Note ON: Time 176640, Note Name: F4, Velocity: 79
Note ON: Time 176640, Note Name: C4, Velocity: 69
Note ON: Time 176640, Note Name: A3, Velocity: 69
Note OFF: Time 177120, Note Name: A3
Note OFF: Time 177120, Note Name: C4
Note OFF: Time 177120, Note Name: F4
Note ON: Time 177120, Note Name: F4, Velocity: 86
Note ON: Time 177120, Note Name: G#3, Velocity: 72
Note ON: Time 177120, Note Name: A#3, Velocity: 72
Note OFF: Time 177600, Note Name: A#3
Note OFF: Time 177600, Note Name: G#3
Note OFF: Time 177600, Note Name: F4
Note ON: Time 177600, Note Name: D#4, Velocity: 64
Note ON: Time 177600, Note Name: A#3, Velocity: 55
Note ON: Time 177600, Note Name: G3, Velocity: 55
Note OFF: Time 177660, Note Name: G3
Note OFF: Time 177660, Note Name: A#3
Note OFF: Time 177660, Note Name: D#4
Note ON: Time 177840, Note Name: C4, Velocity: 35
Note ON: Time 177840, Note Name: A#3, Velocity: 29
Note ON: Time 177840, Note Name: E3, Velocity: 29
Note OFF: Time 177900, Note Name: E3
Note OFF: Time 177900, Note Name: A#3
Note OFF: Time 177900, Note Name: C4
Note ON: Time 178080, Note Name: D4, Velocity: 39
Note ON: Time 178080, Note Name: A#3, Velocity: 33
Note ON: Time 178080, Note Name: F3, Velocity: 33
Note OFF: Time 178140, Note Name: F3
Note OFF: Time 178140, Note Name: A#3
Note OFF: Time 178140, Note Name: D4
Note ON: Time 178320, Note Name: C4, Velocity: 35
Note ON: Time 178320, Note Name: A3, Velocity: 29
Note ON: Time 178320, Note Name: F3, Velocity: 29
Note OFF: Time 178380, Note Name: F3
Note OFF: Time 178380, Note Name: A3
Note OFF: Time 178380, Note Name: C4
Note ON: Time 178560, Note Name: A#2, Velocity: 33
Note ON: Time 178560, Note Name: A#3, Velocity: 39
Note OFF: Time 178800, Note Name: A#3
Note OFF: Time 178800, Note Name: A#2
Note ON: Time 179040, Note Name: D4, Velocity: 70
Note ON: Time 179100, Note Name: C#4, Velocity: 56
Note OFF: Time 179106, Note Name: D4
Note ON: Time 179160, Note Name: D4, Velocity: 60
Note OFF: Time 179166, Note Name: C#4
Note ON: Time 179220, Note Name: C#4, Velocity: 55
Note OFF: Time 179226, Note Name: D4
Note ON: Time 179280, Note Name: D4, Velocity: 60
Note OFF: Time 179286, Note Name: C#4
Note ON: Time 179340, Note Name: F4, Velocity: 55
Note OFF: Time 179346, Note Name: D4
Note ON: Time 179400, Note Name: D#4, Velocity: 55
Note OFF: Time 179406, Note Name: F4
Note ON: Time 179460, Note Name: D4, Velocity: 55
Note OFF: Time 179466, Note Name: D#4
Note OFF: Time 179520, Note Name: D4
Note ON: Time 179520, Note Name: C4, Velocity: 70
Note ON: Time 179580, Note Name: B3, Velocity: 56
Note OFF: Time 179586, Note Name: C4
Note ON: Time 179640, Note Name: C4, Velocity: 60
Note OFF: Time 179646, Note Name: B3
Note ON: Time 179700, Note Name: B3, Velocity: 55
Note OFF: Time 179706, Note Name: C4
Note ON: Time 179760, Note Name: C4, Velocity: 60
Note OFF: Time 179766, Note Name: B3
Note ON: Time 179820, Note Name: D#4, Velocity: 55
Note OFF: Time 179826, Note Name: C4
Note ON: Time 179880, Note Name: D4, Velocity: 55
Note OFF: Time 179886, Note Name: D#4
Note ON: Time 179940, Note Name: C4, Velocity: 55
Note OFF: Time 179946, Note Name: D4
Note OFF: Time 180000, Note Name: C4
Note ON: Time 180000, Note Name: A#3, Velocity: 70
Note ON: Time 180060, Note Name: A3, Velocity: 56
Note OFF: Time 180066, Note Name: A#3
Note ON: Time 180120, Note Name: A#3, Velocity: 60
Note OFF: Time 180126, Note Name: A3
Note ON: Time 180180, Note Name: A3, Velocity: 55
Note OFF: Time 180186, Note Name: A#3
Note ON: Time 180240, Note Name: A#3, Velocity: 60
Note OFF: Time 180246, Note Name: A3
Note ON: Time 180300, Note Name: D4, Velocity: 55
Note OFF: Time 180306, Note Name: A#3
Note ON: Time 180360, Note Name: C4, Velocity: 55
Note OFF: Time 180366, Note Name: D4
Note ON: Time 180420, Note Name: A#3, Velocity: 55
Note OFF: Time 180426, Note Name: C4
Note OFF: Time 180480, Note Name: A#3
Note ON: Time 180480, Note Name: A3, Velocity: 70
Note ON: Time 180540, Note Name: G#3, Velocity: 56
Note OFF: Time 180546, Note Name: A3
Note ON: Time 180600, Note Name: A3, Velocity: 60
Note OFF: Time 180606, Note Name: G#3
Note ON: Time 180660, Note Name: G#3, Velocity: 55
Note OFF: Time 180666, Note Name: A3
Note ON: Time 180720, Note Name: A3, Velocity: 60
Note OFF: Time 180726, Note Name: G#3
Note ON: Time 180780, Note Name: C4, Velocity: 55
Note OFF: Time 180786, Note Name: A3
Note ON: Time 180840, Note Name: A#3, Velocity: 55
Note OFF: Time 180846, Note Name: C4
Note ON: Time 180900, Note Name: A3, Velocity: 55
Note OFF: Time 180906, Note Name: A#3
Note OFF: Time 180960, Note Name: A3
Note ON: Time 180960, Note Name: G#3, Velocity: 70
Note ON: Time 181020, Note Name: G3, Velocity: 56
Note OFF: Time 181026, Note Name: G#3
Note ON: Time 181080, Note Name: G#3, Velocity: 60
Note OFF: Time 181086, Note Name: G3
Note ON: Time 181140, Note Name: G3, Velocity: 55
Note OFF: Time 181146, Note Name: G#3
Note ON: Time 181200, Note Name: G#3, Velocity: 60
Note OFF: Time 181206, Note Name: G3
Note ON: Time 181260, Note Name: C4, Velocity: 55
Note OFF: Time 181266, Note Name: G#3
Note ON: Time 181320, Note Name: A#3, Velocity: 55
Note OFF: Time 181326, Note Name: C4
Note ON: Time 181380, Note Name: G#3, Velocity: 55
Note OFF: Time 181386, Note Name: A#3
Note OFF: Time 181440, Note Name: G#3
Note ON: Time 181440, Note Name: G3, Velocity: 70
Note ON: Time 181500, Note Name: A#3, Velocity: 48
Note OFF: Time 181506, Note Name: G3
Note ON: Time 181560, Note Name: A3, Velocity: 43
Note OFF: Time 181566, Note Name: A#3
Note ON: Time 181620, Note Name: A#3, Velocity: 43
Note OFF: Time 181626, Note Name: A3
Note OFF: Time 181680, Note Name: A#3
Note ON: Time 181680, Note Name: E3, Velocity: 49
Note ON: Time 181740, Note Name: A#3, Velocity: 43
Note OFF: Time 181746, Note Name: E3
Note ON: Time 181800, Note Name: A3, Velocity: 42
Note OFF: Time 181806, Note Name: A#3
Note ON: Time 181860, Note Name: A#3, Velocity: 43
Note OFF: Time 181866, Note Name: A3
Note OFF: Time 181920, Note Name: A#3
Note ON: Time 181920, Note Name: F3, Velocity: 57
Note ON: Time 181980, Note Name: A#3, Velocity: 46
Note OFF: Time 181986, Note Name: F3
Note ON: Time 182040, Note Name: A3, Velocity: 50
Note OFF: Time 182046, Note Name: A#3
Note ON: Time 182100, Note Name: A#3, Velocity: 50
Note OFF: Time 182106, Note Name: A3
Note OFF: Time 182160, Note Name: A#3
Note ON: Time 182160, Note Name: F3, Velocity: 60
Note ON: Time 182220, Note Name: A3, Velocity: 50
Note OFF: Time 182226, Note Name: F3
Note ON: Time 182280, Note Name: G#3, Velocity: 50
Note OFF: Time 182286, Note Name: A3
Note ON: Time 182340, Note Name: A3, Velocity: 51
Note OFF: Time 182346, Note Name: G#3
Note OFF: Time 182400, Note Name: A3
Note ON: Time 182400, Note Name: A#3, Velocity: 61
Note OFF: Time 182460, Note Name: A#3
Note ON: Time 182460, Note Name: C4, Velocity: 56
Note OFF: Time 182520, Note Name: C4
Note ON: Time 182520, Note Name: D4, Velocity: 58
Note OFF: Time 182580, Note Name: D4
Note ON: Time 182580, Note Name: D#4, Velocity: 61
Note OFF: Time 182640, Note Name: D#4
Note ON: Time 182640, Note Name: F4, Velocity: 63
Note OFF: Time 182700, Note Name: F4
Note ON: Time 182700, Note Name: G4, Velocity: 66
Note OFF: Time 182760, Note Name: G4
Note ON: Time 182760, Note Name: A4, Velocity: 68
Note OFF: Time 182820, Note Name: A4
Note ON: Time 182820, Note Name: A#4, Velocity: 72
Note OFF: Time 182880, Note Name: A#4
Note ON: Time 182880, Note Name: G#4, Velocity: 76
Note ON: Time 182940, Note Name: G4, Velocity: 61
Note OFF: Time 182946, Note Name: G#4
Note ON: Time 183000, Note Name: F4, Velocity: 66
Note OFF: Time 183006, Note Name: G4
Note ON: Time 183060, Note Name: D#4, Velocity: 60
Note OFF: Time 183066, Note Name: F4
Note ON: Time 183120, Note Name: D4, Velocity: 66
Note OFF: Time 183126, Note Name: D#4
Note ON: Time 183180, Note Name: C4, Velocity: 60
Note OFF: Time 183186, Note Name: D4
Note ON: Time 183240, Note Name: A#3, Velocity: 60
Note OFF: Time 183246, Note Name: C4
Note ON: Time 183300, Note Name: G#3, Velocity: 60
Note OFF: Time 183306, Note Name: A#3
Note OFF: Time 183360, Note Name: G#3
Note ON: Time 183360, Note Name: G3, Velocity: 76
Note ON: Time 183420, Note Name: A#3, Velocity: 52
Note OFF: Time 183426, Note Name: G3
Note ON: Time 183480, Note Name: A3, Velocity: 46
Note OFF: Time 183486, Note Name: A#3
Note ON: Time 183540, Note Name: A#3, Velocity: 46
Note OFF: Time 183546, Note Name: A3
Note OFF: Time 183600, Note Name: A#3
Note ON: Time 183600, Note Name: E3, Velocity: 44
Note ON: Time 183660, Note Name: A#3, Velocity: 52
Note OFF: Time 183666, Note Name: E3
Note ON: Time 183720, Note Name: A3, Velocity: 46
Note OFF: Time 183726, Note Name: A#3
Note ON: Time 183780, Note Name: A#3, Velocity: 48
Note OFF: Time 183786, Note Name: A3
Note OFF: Time 183840, Note Name: A#3
Note ON: Time 183840, Note Name: F3, Velocity: 62
Note ON: Time 183900, Note Name: A#3, Velocity: 50
Note OFF: Time 183906, Note Name: F3
Note ON: Time 183960, Note Name: A3, Velocity: 55
Note OFF: Time 183966, Note Name: A#3
Note ON: Time 184020, Note Name: A#3, Velocity: 55
Note OFF: Time 184026, Note Name: A3
Note OFF: Time 184080, Note Name: A#3
Note ON: Time 184080, Note Name: F3, Velocity: 66
Note ON: Time 184140, Note Name: A3, Velocity: 55
Note OFF: Time 184146, Note Name: F3
Note ON: Time 184200, Note Name: G#3, Velocity: 55
Note OFF: Time 184206, Note Name: A3
Note ON: Time 184260, Note Name: A3, Velocity: 56
Note OFF: Time 184266, Note Name: G#3
Note OFF: Time 184320, Note Name: A3
Note ON: Time 184320, Note Name: A#3, Velocity: 67
Note OFF: Time 184380, Note Name: A#3
Note ON: Time 184380, Note Name: A3, Velocity: 61
Note OFF: Time 184440, Note Name: A3
Note ON: Time 184440, Note Name: G3, Velocity: 63
Note OFF: Time 184500, Note Name: G3
Note ON: Time 184500, Note Name: F3, Velocity: 67
Note OFF: Time 184560, Note Name: F3
Note ON: Time 184560, Note Name: D#3, Velocity: 69
Note OFF: Time 184620, Note Name: D#3
Note ON: Time 184620, Note Name: D3, Velocity: 72
Note OFF: Time 184680, Note Name: D3
Note ON: Time 184680, Note Name: C3, Velocity: 74
Note OFF: Time 184740, Note Name: C3
Note ON: Time 184740, Note Name: A#2, Velocity: 79
Note OFF: Time 184800, Note Name: A#2
Note ON: Time 184800, Note Name: G#2, Velocity: 76
Note ON: Time 184860, Note Name: G2, Velocity: 61
Note OFF: Time 184866, Note Name: G#2
Note ON: Time 184920, Note Name: F2, Velocity: 66
Note OFF: Time 184926, Note Name: G2
Note ON: Time 184980, Note Name: D#2, Velocity: 60
Note OFF: Time 184986, Note Name: F2
Note ON: Time 185040, Note Name: D2, Velocity: 66
Note OFF: Time 185046, Note Name: D#2
Note ON: Time 185100, Note Name: C2, Velocity: 60
Note OFF: Time 185106, Note Name: D2
Note ON: Time 185160, Note Name: A#1, Velocity: 60
Note OFF: Time 185166, Note Name: C2
Note ON: Time 185220, Note Name: G#1, Velocity: 60
Note OFF: Time 185226, Note Name: A#1
Note OFF: Time 185280, Note Name: G#1
Note ON: Time 185280, Note Name: G1, Velocity: 87
Note ON: Time 185340, Note Name: G2, Velocity: 56
Note OFF: Time 185346, Note Name: G1
Note ON: Time 185400, Note Name: F#2, Velocity: 58
Note OFF: Time 185406, Note Name: G2
Note ON: Time 185460, Note Name: G2, Velocity: 58
Note OFF: Time 185466, Note Name: F#2
Note OFF: Time 185520, Note Name: G2
Note ON: Time 185520, Note Name: F#1, Velocity: 84
Note ON: Time 185580, Note Name: F#2, Velocity: 63
Note OFF: Time 185586, Note Name: F#1
Note ON: Time 185640, Note Name: F2, Velocity: 62
Note OFF: Time 185646, Note Name: F#2
Note ON: Time 185700, Note Name: F#2, Velocity: 62
Note OFF: Time 185706, Note Name: F2
Note OFF: Time 185760, Note Name: F#2
Note ON: Time 185760, Note Name: F1, Velocity: 93
Note ON: Time 185820, Note Name: F2, Velocity: 66
Note OFF: Time 185826, Note Name: F1
Note ON: Time 185880, Note Name: E2, Velocity: 66
Note OFF: Time 185886, Note Name: F2
Note ON: Time 185940, Note Name: F2, Velocity: 66
Note OFF: Time 185946, Note Name: E2
Note OFF: Time 186000, Note Name: F2
Note ON: Time 186000, Note Name: F1, Velocity: 90
Note ON: Time 186060, Note Name: F2, Velocity: 68
Note OFF: Time 186066, Note Name: F1
Note ON: Time 186120, Note Name: E2, Velocity: 68
Note OFF: Time 186126, Note Name: F2
Note ON: Time 186180, Note Name: F2, Velocity: 68
Note OFF: Time 186186, Note Name: E2
Note OFF: Time 186240, Note Name: F2
Note ON: Time 186240, Note Name: A#1, Velocity: 96
Note OFF: Time 186480, Note Name: A#1
Note ON: Time 186600, Note Name: F4, Velocity: 39
Note OFF: Time 186720, Note Name: F4
Note ON: Time 186720, Note Name: G4, Velocity: 42
Note OFF: Time 186840, Note Name: G4
Note ON: Time 186840, Note Name: F4, Velocity: 36
Note OFF: Time 186960, Note Name: F4
Note ON: Time 186960, Note Name: D#4, Velocity: 39
Note OFF: Time 187080, Note Name: D#4
Note ON: Time 187080, Note Name: D4, Velocity: 36
Note OFF: Time 187200, Note Name: D4
Note ON: Time 187200, Note Name: F3, Velocity: 35
Note ON: Time 187200, Note Name: C4, Velocity: 42
Note OFF: Time 187320, Note Name: C4
Note ON: Time 187320, Note Name: A#3, Velocity: 37
Note OFF: Time 187440, Note Name: A#3
Note ON: Time 187440, Note Name: A3, Velocity: 39
Note OFF: Time 187560, Note Name: A3
Note ON: Time 187560, Note Name: G3, Velocity: 36
Note OFF: Time 187680, Note Name: G3
Note OFF: Time 187680, Note Name: F3
Note ON: Time 187680, Note Name: F2, Velocity: 35
Note ON: Time 187680, Note Name: F3, Velocity: 39
Note OFF: Time 187800, Note Name: F3
Note ON: Time 187800, Note Name: D#3, Velocity: 37
Note OFF: Time 187920, Note Name: D#3
Note ON: Time 187920, Note Name: D3, Velocity: 36
Note OFF: Time 188040, Note Name: D3
Note ON: Time 188040, Note Name: C3, Velocity: 34
Note OFF: Time 188160, Note Name: C3
Note OFF: Time 188160, Note Name: F2
Note ON: Time 188160, Note Name: A#2, Velocity: 53
Note OFF: Time 188400, Note Name: A#2
Note ON: Time 188520, Note Name: F3, Velocity: 33
Note OFF: Time 188640, Note Name: F3
Note ON: Time 188640, Note Name: G3, Velocity: 35
Note OFF: Time 188760, Note Name: G3
Note ON: Time 188760, Note Name: F3, Velocity: 32
Note OFF: Time 188880, Note Name: F3
Note ON: Time 188880, Note Name: D#3, Velocity: 33
Note OFF: Time 189000, Note Name: D#3
Note ON: Time 189000, Note Name: D3, Velocity: 32
Note OFF: Time 189120, Note Name: D3
Note ON: Time 189120, Note Name: F2, Velocity: 30
Note ON: Time 189120, Note Name: C3, Velocity: 35
Note OFF: Time 189240, Note Name: C3
Note ON: Time 189240, Note Name: A#2, Velocity: 32
Note OFF: Time 189360, Note Name: A#2
Note ON: Time 189360, Note Name: A2, Velocity: 33
Note OFF: Time 189480, Note Name: A2
Note ON: Time 189480, Note Name: G2, Velocity: 29
Note OFF: Time 189600, Note Name: G2
Note OFF: Time 189600, Note Name: F2
Note ON: Time 189600, Note Name: F1, Velocity: 30
Note ON: Time 189600, Note Name: F2, Velocity: 33
Note OFF: Time 189720, Note Name: F2
Note ON: Time 189720, Note Name: D#2, Velocity: 31
Note OFF: Time 189840, Note Name: D#2
Note ON: Time 189840, Note Name: D2, Velocity: 30
Note OFF: Time 189960, Note Name: D2
Note ON: Time 189960, Note Name: C2, Velocity: 28
Note OFF: Time 190080, Note Name: C2
Note OFF: Time 190080, Note Name: F1
Note ON: Time 190080, Note Name: A#1, Velocity: 31
Note OFF: Time 190140, Note Name: A#1
Note ON: Time 190320, Note Name: F3, Velocity: 35
Note ON: Time 190320, Note Name: C4, Velocity: 35
Note OFF: Time 190380, Note Name: C4
Note OFF: Time 190380, Note Name: F3
Note ON: Time 190560, Note Name: A#3, Velocity: 35
Note OFF: Time 190620, Note Name: A#3
Note ON: Time 190800, Note Name: F2, Velocity: 70
Note ON: Time 190800, Note Name: F3, Velocity: 84
Note OFF: Time 190860, Note Name: F3
Note OFF: Time 190860, Note Name: F2
Note ON: Time 191040, Note Name: A#1, Velocity: 79
Note ON: Time 191040, Note Name: A#2, Velocity: 93
Note OFF: Time 191100, Note Name: A#2
Note OFF: Time 191100, Note Name: A#1
Track 3: Pedale
Track 4: Beethoven: Grande Sonate Opus 22 - 4. movement
Track 5: Copyright  2009 by Bernd Krueger
Track 6: http://www.piano-midi.de/
Track 7: Edition: 2012-05-31
Track 8: Spur 8
Track 9: Spur 9
Track 10: Spur 10
Track 11: Spur 11
Track 12: Spur 12
Track 13: Spur 13
Track 14: Spur 14
Track 15: Spur 15
Track 16: Spur 16
