Processing beethoven_opus22_3.mid...

Track 0: Grande Sonata Opus 22 3. movement
Track 1: Piano right
Note ON: Time 960, Note Name: D4, Velocity: 50
Note OFF: Time 1320, Note Name: D4
Note ON: Time 1320, Note Name: D#4, Velocity: 46
Note OFF: Time 1440, Note Name: D#4
Note ON: Time 1440, Note Name: F4, Velocity: 50
Note OFF: Time 2370, Note Name: F4
Note ON: Time 2370, Note Name: A4, Velocity: 46
Note OFF: Time 2400, Note Name: A4
Note ON: Time 2400, Note Name: G4, Velocity: 50
Note OFF: Time 2520, Note Name: G4
Note ON: Time 2520, Note Name: F4, Velocity: 45
Note OFF: Time 2640, Note Name: F4
Note ON: Time 2640, Note Name: G4, Velocity: 50
Note OFF: Time 2760, Note Name: G4
Note ON: Time 2760, Note Name: A4, Velocity: 43
Note OFF: Time 2880, Note Name: A4
Note ON: Time 2880, Note Name: A#4, Velocity: 50
Note OFF: Time 3360, Note Name: A#4
Note ON: Time 3360, Note Name: F4, Velocity: 41
Note OFF: Time 3780, Note Name: F4
Note ON: Time 3810, Note Name: A4, Velocity: 43
Note OFF: Time 3840, Note Name: A4
Note ON: Time 3840, Note Name: G4, Velocity: 50
Note OFF: Time 3960, Note Name: G4
Note ON: Time 3960, Note Name: F4, Velocity: 46
Note OFF: Time 4080, Note Name: F4
Note ON: Time 4080, Note Name: G4, Velocity: 50
Note OFF: Time 4200, Note Name: G4
Note ON: Time 4200, Note Name: A4, Velocity: 50
Note OFF: Time 4320, Note Name: A4
Note ON: Time 4320, Note Name: A#4, Velocity: 50
Note OFF: Time 4380, Note Name: A#4
Note ON: Time 4680, Note Name: A4, Velocity: 46
Note OFF: Time 4740, Note Name: A4
Note ON: Time 4800, Note Name: A#4, Velocity: 56
Note OFF: Time 4860, Note Name: A#4
Note ON: Time 5160, Note Name: C5, Velocity: 48
Note OFF: Time 5220, Note Name: C5
Note ON: Time 5280, Note Name: D5, Velocity: 55
Note OFF: Time 5340, Note Name: D5
Note ON: Time 5640, Note Name: E5, Velocity: 59
Note OFF: Time 5700, Note Name: E5
Note ON: Time 5760, Note Name: A#4, Velocity: 53
Note ON: Time 5760, Note Name: E5, Velocity: 63
Note OFF: Time 6240, Note Name: E5
Note OFF: Time 6240, Note Name: A#4
Note ON: Time 6240, Note Name: A4, Velocity: 48
Note ON: Time 6240, Note Name: F5, Velocity: 57
Note OFF: Time 6480, Note Name: F5
Note OFF: Time 6480, Note Name: A4
Note ON: Time 6690, Note Name: F5, Velocity: 43
Note OFF: Time 6720, Note Name: F5
Note ON: Time 6720, Note Name: D#5, Velocity: 50
Note OFF: Time 6840, Note Name: D#5
Note ON: Time 6840, Note Name: D5, Velocity: 46
Note OFF: Time 6960, Note Name: D5
Note ON: Time 6960, Note Name: D#5, Velocity: 54
Note OFF: Time 7080, Note Name: D#5
Note ON: Time 7080, Note Name: F5, Velocity: 51
Note OFF: Time 7200, Note Name: F5
Note ON: Time 7200, Note Name: G5, Velocity: 59
Note OFF: Time 7680, Note Name: G5
Note ON: Time 7680, Note Name: C5, Velocity: 50
Note OFF: Time 8100, Note Name: C5
Note ON: Time 8130, Note Name: D5, Velocity: 43
Note OFF: Time 8160, Note Name: D5
Note ON: Time 8160, Note Name: C5, Velocity: 50
Note OFF: Time 8280, Note Name: C5
Note ON: Time 8280, Note Name: B4, Velocity: 46
Note OFF: Time 8400, Note Name: B4
Note ON: Time 8400, Note Name: C5, Velocity: 54
Note OFF: Time 8520, Note Name: C5
Note ON: Time 8520, Note Name: D5, Velocity: 51
Note OFF: Time 8640, Note Name: D5
Note ON: Time 8640, Note Name: D#5, Velocity: 59
Note OFF: Time 9120, Note Name: D#5
Note ON: Time 9120, Note Name: A4, Velocity: 50
Note OFF: Time 9540, Note Name: A4
Note ON: Time 9570, Note Name: A#4, Velocity: 43
Note OFF: Time 9600, Note Name: A#4
Note ON: Time 9600, Note Name: A4, Velocity: 50
Note OFF: Time 9720, Note Name: A4
Note ON: Time 9720, Note Name: G4, Velocity: 46
Note OFF: Time 9840, Note Name: G4
Note ON: Time 9840, Note Name: A4, Velocity: 52
Note OFF: Time 9960, Note Name: A4
Note ON: Time 9960, Note Name: A#4, Velocity: 48
Note OFF: Time 10040, Note Name: A#4
Note ON: Time 10050, Note Name: D5, Velocity: 43
Note OFF: Time 10080, Note Name: D5
Note ON: Time 10080, Note Name: C5, Velocity: 53
Note OFF: Time 10200, Note Name: C5
Note ON: Time 10200, Note Name: B4, Velocity: 50
Note OFF: Time 10320, Note Name: B4
Note ON: Time 10320, Note Name: C5, Velocity: 54
Note OFF: Time 10440, Note Name: C5
Note ON: Time 10440, Note Name: D5, Velocity: 51
Note OFF: Time 10520, Note Name: D5
Note ON: Time 10530, Note Name: F5, Velocity: 43
Note OFF: Time 10560, Note Name: F5
Note ON: Time 10560, Note Name: D#5, Velocity: 57
Note OFF: Time 10680, Note Name: D#5
Note ON: Time 10680, Note Name: D5, Velocity: 52
Note OFF: Time 10800, Note Name: D5
Note ON: Time 10800, Note Name: D#5, Velocity: 58
Note OFF: Time 10920, Note Name: D#5
Note ON: Time 10920, Note Name: F5, Velocity: 55
Note OFF: Time 11040, Note Name: F5
Note ON: Time 11040, Note Name: G5, Velocity: 64
Note OFF: Time 11100, Note Name: G5
Note ON: Time 11400, Note Name: A4, Velocity: 42
Note OFF: Time 11520, Note Name: A4
Note ON: Time 11520, Note Name: C5, Velocity: 50
Note OFF: Time 12000, Note Name: C5
Note ON: Time 12000, Note Name: A#4, Velocity: 44
Note OFF: Time 12240, Note Name: A#4
Note ON: Time 12480, Note Name: D4, Velocity: 50
Note OFF: Time 12840, Note Name: D4
Note ON: Time 12840, Note Name: D#4, Velocity: 46
Note OFF: Time 12960, Note Name: D#4
Note ON: Time 12960, Note Name: F4, Velocity: 50
Note OFF: Time 13890, Note Name: F4
Note ON: Time 13890, Note Name: A4, Velocity: 46
Note OFF: Time 13920, Note Name: A4
Note ON: Time 13920, Note Name: G4, Velocity: 50
Note OFF: Time 14040, Note Name: G4
Note ON: Time 14040, Note Name: F4, Velocity: 45
Note OFF: Time 14160, Note Name: F4
Note ON: Time 14160, Note Name: G4, Velocity: 50
Note OFF: Time 14280, Note Name: G4
Note ON: Time 14280, Note Name: A4, Velocity: 43
Note OFF: Time 14400, Note Name: A4
Note ON: Time 14400, Note Name: A#4, Velocity: 50
Note OFF: Time 14880, Note Name: A#4
Note ON: Time 14880, Note Name: F4, Velocity: 41
Note OFF: Time 15300, Note Name: F4
Note ON: Time 15330, Note Name: A4, Velocity: 43
Note OFF: Time 15360, Note Name: A4
Note ON: Time 15360, Note Name: G4, Velocity: 50
Note OFF: Time 15480, Note Name: G4
Note ON: Time 15480, Note Name: F4, Velocity: 46
Note OFF: Time 15600, Note Name: F4
Note ON: Time 15600, Note Name: G4, Velocity: 50
Note OFF: Time 15720, Note Name: G4
Note ON: Time 15720, Note Name: A4, Velocity: 50
Note OFF: Time 15840, Note Name: A4
Note ON: Time 15840, Note Name: A#4, Velocity: 50
Note OFF: Time 15900, Note Name: A#4
Note ON: Time 16200, Note Name: A4, Velocity: 46
Note OFF: Time 16260, Note Name: A4
Note ON: Time 16320, Note Name: A#4, Velocity: 56
Note OFF: Time 16380, Note Name: A#4
Note ON: Time 16680, Note Name: C5, Velocity: 48
Note OFF: Time 16740, Note Name: C5
Note ON: Time 16800, Note Name: D5, Velocity: 55
Note OFF: Time 16860, Note Name: D5
Note ON: Time 17160, Note Name: E5, Velocity: 59
Note OFF: Time 17220, Note Name: E5
Note ON: Time 17280, Note Name: A#4, Velocity: 53
Note ON: Time 17280, Note Name: E5, Velocity: 63
Note OFF: Time 17760, Note Name: E5
Note OFF: Time 17760, Note Name: A#4
Note ON: Time 17760, Note Name: A4, Velocity: 48
Note ON: Time 17760, Note Name: F5, Velocity: 57
Note OFF: Time 18000, Note Name: F5
Note OFF: Time 18000, Note Name: A4
Note ON: Time 18210, Note Name: F5, Velocity: 43
Note OFF: Time 18240, Note Name: F5
Note ON: Time 18240, Note Name: D#5, Velocity: 50
Note OFF: Time 18360, Note Name: D#5
Note ON: Time 18360, Note Name: D5, Velocity: 46
Note OFF: Time 18480, Note Name: D5
Note ON: Time 18480, Note Name: D#5, Velocity: 54
Note OFF: Time 18600, Note Name: D#5
Note ON: Time 18600, Note Name: F5, Velocity: 51
Note OFF: Time 18720, Note Name: F5
Note ON: Time 18720, Note Name: G5, Velocity: 59
Note OFF: Time 19200, Note Name: G5
Note ON: Time 19200, Note Name: C5, Velocity: 50
Note OFF: Time 19620, Note Name: C5
Note ON: Time 19650, Note Name: D5, Velocity: 43
Note OFF: Time 19680, Note Name: D5
Note ON: Time 19680, Note Name: C5, Velocity: 50
Note OFF: Time 19800, Note Name: C5
Note ON: Time 19800, Note Name: B4, Velocity: 46
Note OFF: Time 19920, Note Name: B4
Note ON: Time 19920, Note Name: C5, Velocity: 54
Note OFF: Time 20040, Note Name: C5
Note ON: Time 20040, Note Name: D5, Velocity: 51
Note OFF: Time 20160, Note Name: D5
Note ON: Time 20160, Note Name: D#5, Velocity: 59
Note OFF: Time 20640, Note Name: D#5
Note ON: Time 20640, Note Name: A4, Velocity: 50
Note OFF: Time 21060, Note Name: A4
Note ON: Time 21090, Note Name: A#4, Velocity: 43
Note OFF: Time 21120, Note Name: A#4
Note ON: Time 21120, Note Name: A4, Velocity: 50
Note OFF: Time 21240, Note Name: A4
Note ON: Time 21240, Note Name: G4, Velocity: 46
Note OFF: Time 21360, Note Name: G4
Note ON: Time 21360, Note Name: A4, Velocity: 52
Note OFF: Time 21480, Note Name: A4
Note ON: Time 21480, Note Name: A#4, Velocity: 48
Note OFF: Time 21560, Note Name: A#4
Note ON: Time 21570, Note Name: D5, Velocity: 43
Note OFF: Time 21600, Note Name: D5
Note ON: Time 21600, Note Name: C5, Velocity: 53
Note OFF: Time 21720, Note Name: C5
Note ON: Time 21720, Note Name: B4, Velocity: 50
Note OFF: Time 21840, Note Name: B4
Note ON: Time 21840, Note Name: C5, Velocity: 54
Note OFF: Time 21960, Note Name: C5
Note ON: Time 21960, Note Name: D5, Velocity: 51
Note OFF: Time 22040, Note Name: D5
Note ON: Time 22050, Note Name: F5, Velocity: 43
Note OFF: Time 22080, Note Name: F5
Note ON: Time 22080, Note Name: D#5, Velocity: 57
Note OFF: Time 22200, Note Name: D#5
Note ON: Time 22200, Note Name: D5, Velocity: 52
Note OFF: Time 22320, Note Name: D5
Note ON: Time 22320, Note Name: D#5, Velocity: 58
Note OFF: Time 22440, Note Name: D#5
Note ON: Time 22440, Note Name: F5, Velocity: 55
Note OFF: Time 22560, Note Name: F5
Note ON: Time 22560, Note Name: G5, Velocity: 64
Note OFF: Time 22620, Note Name: G5
Note ON: Time 22920, Note Name: A4, Velocity: 42
Note OFF: Time 23040, Note Name: A4
Note ON: Time 23040, Note Name: C5, Velocity: 50
Note OFF: Time 23520, Note Name: C5
Note ON: Time 23520, Note Name: A#4, Velocity: 44
Note OFF: Time 23760, Note Name: A#4
Note ON: Time 24000, Note Name: A4, Velocity: 38
Note ON: Time 24000, Note Name: D5, Velocity: 46
Note OFF: Time 24120, Note Name: D5
Note OFF: Time 24120, Note Name: A4
Note ON: Time 24120, Note Name: A#4, Velocity: 34
Note ON: Time 24120, Note Name: C#5, Velocity: 41
Note OFF: Time 24240, Note Name: C#5
Note OFF: Time 24240, Note Name: A#4
Note ON: Time 24240, Note Name: A4, Velocity: 42
Note ON: Time 24240, Note Name: D5, Velocity: 50
Note OFF: Time 24360, Note Name: D5
Note OFF: Time 24360, Note Name: A4
Note ON: Time 24360, Note Name: A#4, Velocity: 34
Note ON: Time 24360, Note Name: C#5, Velocity: 40
Note OFF: Time 24480, Note Name: C#5
Note OFF: Time 24480, Note Name: A#4
Note ON: Time 24480, Note Name: A4, Velocity: 45
Note ON: Time 24480, Note Name: D5, Velocity: 54
Note OFF: Time 24600, Note Name: D5
Note OFF: Time 24600, Note Name: A4
Note ON: Time 24600, Note Name: A#4, Velocity: 40
Note ON: Time 24600, Note Name: C#5, Velocity: 49
Note OFF: Time 24720, Note Name: C#5
Note OFF: Time 24720, Note Name: A#4
Note ON: Time 24720, Note Name: A4, Velocity: 49
Note ON: Time 24720, Note Name: D5, Velocity: 57
Note OFF: Time 24840, Note Name: D5
Note OFF: Time 24840, Note Name: A4
Note ON: Time 24840, Note Name: A#4, Velocity: 39
Note ON: Time 24840, Note Name: C#5, Velocity: 47
Note OFF: Time 24960, Note Name: C#5
Note OFF: Time 24960, Note Name: A#4
Note ON: Time 24960, Note Name: A4, Velocity: 52
Note ON: Time 24960, Note Name: D5, Velocity: 62
Note OFF: Time 25080, Note Name: D5
Note OFF: Time 25080, Note Name: A4
Note ON: Time 25080, Note Name: A#4, Velocity: 47
Note ON: Time 25080, Note Name: C#5, Velocity: 56
Note OFF: Time 25200, Note Name: C#5
Note OFF: Time 25200, Note Name: A#4
Note ON: Time 25200, Note Name: A4, Velocity: 55
Note ON: Time 25200, Note Name: D5, Velocity: 66
Note OFF: Time 25320, Note Name: D5
Note OFF: Time 25320, Note Name: A4
Note ON: Time 25320, Note Name: A#4, Velocity: 46
Note ON: Time 25320, Note Name: C#5, Velocity: 54
Note OFF: Time 25440, Note Name: C#5
Note OFF: Time 25440, Note Name: A#4
Note ON: Time 25440, Note Name: A4, Velocity: 59
Note ON: Time 25440, Note Name: D5, Velocity: 71
Note OFF: Time 25560, Note Name: D5
Note OFF: Time 25560, Note Name: A4
Note ON: Time 25560, Note Name: A#4, Velocity: 53
Note ON: Time 25560, Note Name: C#5, Velocity: 64
Note OFF: Time 25680, Note Name: C#5
Note OFF: Time 25680, Note Name: A#4
Note ON: Time 25680, Note Name: A4, Velocity: 63
Note ON: Time 25680, Note Name: D5, Velocity: 75
Note OFF: Time 25800, Note Name: D5
Note OFF: Time 25800, Note Name: A4
Note ON: Time 25800, Note Name: A#4, Velocity: 52
Note ON: Time 25800, Note Name: C#5, Velocity: 62
Note OFF: Time 25920, Note Name: C#5
Note OFF: Time 25920, Note Name: A#4
Note ON: Time 25920, Note Name: A4, Velocity: 83
Note ON: Time 25920, Note Name: D5, Velocity: 83
Note OFF: Time 26160, Note Name: D5
Note OFF: Time 26160, Note Name: A4
Note ON: Time 26400, Note Name: D6, Velocity: 100
Note ON: Time 26400, Note Name: F#5, Velocity: 84
Note OFF: Time 27120, Note Name: F#5
Note OFF: Time 27120, Note Name: D6
Note ON: Time 27120, Note Name: C6, Velocity: 75
Note ON: Time 27120, Note Name: F#5, Velocity: 63
Note OFF: Time 27240, Note Name: F#5
Note OFF: Time 27240, Note Name: C6
Note ON: Time 27360, Note Name: A#5, Velocity: 91
Note ON: Time 27360, Note Name: G5, Velocity: 77
Note OFF: Time 27600, Note Name: G5
Note OFF: Time 27600, Note Name: A#5
Note ON: Time 27720, Note Name: A5, Velocity: 73
Note ON: Time 27720, Note Name: D#5, Velocity: 61
Note OFF: Time 27780, Note Name: D#5
Note OFF: Time 27780, Note Name: A5
Note ON: Time 27840, Note Name: A#4, Velocity: 72
Note ON: Time 27840, Note Name: G5, Velocity: 85
Note OFF: Time 28080, Note Name: G5
Note OFF: Time 28080, Note Name: A#4
Note ON: Time 28320, Note Name: C5, Velocity: 69
Note ON: Time 28320, Note Name: F#5, Velocity: 81
Note OFF: Time 28560, Note Name: F#5
Note OFF: Time 28560, Note Name: C5
Note ON: Time 28800, Note Name: C5, Velocity: 69
Note ON: Time 28800, Note Name: A5, Velocity: 82
Note OFF: Time 29280, Note Name: A5
Note OFF: Time 29280, Note Name: C5
Note ON: Time 29280, Note Name: A#4, Velocity: 61
Note ON: Time 29280, Note Name: G5, Velocity: 72
Note OFF: Time 29520, Note Name: G5
Note OFF: Time 29520, Note Name: A#4
Note ON: Time 29760, Note Name: G#3, Velocity: 25
Note ON: Time 29760, Note Name: A#3, Velocity: 30
Note ON: Time 29880, Note Name: B3, Velocity: 27
Note OFF: Time 29881, Note Name: A#3
Note OFF: Time 29881, Note Name: G#3
Note ON: Time 30000, Note Name: G#3, Velocity: 27
Note ON: Time 30000, Note Name: A#3, Velocity: 33
Note OFF: Time 30001, Note Name: B3
Note ON: Time 30120, Note Name: B3, Velocity: 26
Note OFF: Time 30121, Note Name: A#3
Note OFF: Time 30121, Note Name: G#3
Note ON: Time 30240, Note Name: G#3, Velocity: 28
Note ON: Time 30240, Note Name: A#3, Velocity: 34
Note OFF: Time 30241, Note Name: B3
Note ON: Time 30360, Note Name: B3, Velocity: 30
Note OFF: Time 30361, Note Name: A#3
Note OFF: Time 30361, Note Name: G#3
Note ON: Time 30480, Note Name: G#3, Velocity: 30
Note ON: Time 30480, Note Name: A#3, Velocity: 36
Note OFF: Time 30481, Note Name: B3
Note ON: Time 30600, Note Name: B3, Velocity: 29
Note OFF: Time 30601, Note Name: A#3
Note OFF: Time 30601, Note Name: G#3
Note ON: Time 30720, Note Name: G#3, Velocity: 33
Note ON: Time 30720, Note Name: A#3, Velocity: 39
Note OFF: Time 30721, Note Name: B3
Note ON: Time 30840, Note Name: B3, Velocity: 36
Note OFF: Time 30841, Note Name: A#3
Note OFF: Time 30841, Note Name: G#3
Note ON: Time 30960, Note Name: G#3, Velocity: 36
Note ON: Time 30960, Note Name: A#3, Velocity: 42
Note OFF: Time 30961, Note Name: B3
Note ON: Time 31080, Note Name: B3, Velocity: 34
Note OFF: Time 31081, Note Name: A#3
Note OFF: Time 31081, Note Name: G#3
Note ON: Time 31200, Note Name: G#3, Velocity: 38
Note ON: Time 31200, Note Name: A#3, Velocity: 45
Note OFF: Time 31201, Note Name: B3
Note ON: Time 31320, Note Name: B3, Velocity: 41
Note OFF: Time 31321, Note Name: A#3
Note OFF: Time 31321, Note Name: G#3
Note ON: Time 31440, Note Name: G#3, Velocity: 40
Note ON: Time 31440, Note Name: A#3, Velocity: 49
Note OFF: Time 31441, Note Name: B3
Note ON: Time 31560, Note Name: B3, Velocity: 40
Note OFF: Time 31561, Note Name: A#3
Note OFF: Time 31561, Note Name: G#3
Note ON: Time 31680, Note Name: G#3, Velocity: 65
Note ON: Time 31680, Note Name: A#3, Velocity: 65
Note OFF: Time 31681, Note Name: B3
Note OFF: Time 31920, Note Name: A#3
Note OFF: Time 31920, Note Name: G#3
Note ON: Time 32160, Note Name: G#5, Velocity: 85
Note ON: Time 32160, Note Name: B4, Velocity: 72
Note OFF: Time 32880, Note Name: B4
Note OFF: Time 32880, Note Name: G#5
Note ON: Time 32880, Note Name: G5, Velocity: 59
Note ON: Time 32880, Note Name: C5, Velocity: 49
Note OFF: Time 33120, Note Name: C5
Note OFF: Time 33120, Note Name: G5
Note ON: Time 33120, Note Name: F5, Velocity: 70
Note ON: Time 33120, Note Name: G#4, Velocity: 58
Note OFF: Time 33480, Note Name: G#4
Note OFF: Time 33480, Note Name: F5
Note ON: Time 33480, Note Name: D#5, Velocity: 53
Note ON: Time 33480, Note Name: G4, Velocity: 45
Note OFF: Time 33600, Note Name: G4
Note OFF: Time 33600, Note Name: D#5
Note ON: Time 33600, Note Name: F4, Velocity: 52
Note ON: Time 33600, Note Name: D5, Velocity: 61
Note OFF: Time 34080, Note Name: D5
Note OFF: Time 34080, Note Name: F4
Note ON: Time 34080, Note Name: D#4, Velocity: 46
Note ON: Time 34080, Note Name: C5, Velocity: 54
Note OFF: Time 34560, Note Name: C5
Note OFF: Time 34560, Note Name: D#4
Note ON: Time 34560, Note Name: D4, Velocity: 40
Note ON: Time 34560, Note Name: A#4, Velocity: 48
Note OFF: Time 35040, Note Name: A#4
Note OFF: Time 35040, Note Name: D4
Note ON: Time 35040, Note Name: C4, Velocity: 36
Note ON: Time 35040, Note Name: A4, Velocity: 42
Note OFF: Time 35280, Note Name: A4
Note OFF: Time 35280, Note Name: C4
Note ON: Time 35520, Note Name: D4, Velocity: 50
Note OFF: Time 35880, Note Name: D4
Note ON: Time 35880, Note Name: D#4, Velocity: 46
Note OFF: Time 36000, Note Name: D#4
Note ON: Time 36000, Note Name: F4, Velocity: 50
Note OFF: Time 36930, Note Name: F4
Note ON: Time 36930, Note Name: A4, Velocity: 46
Note OFF: Time 36960, Note Name: A4
Note ON: Time 36960, Note Name: G4, Velocity: 50
Note OFF: Time 37080, Note Name: G4
Note ON: Time 37080, Note Name: F4, Velocity: 45
Note OFF: Time 37200, Note Name: F4
Note ON: Time 37200, Note Name: G4, Velocity: 50
Note OFF: Time 37320, Note Name: G4
Note ON: Time 37320, Note Name: A4, Velocity: 43
Note OFF: Time 37440, Note Name: A4
Note ON: Time 37440, Note Name: A#4, Velocity: 50
Note OFF: Time 37920, Note Name: A#4
Note ON: Time 37920, Note Name: F4, Velocity: 41
Note OFF: Time 38340, Note Name: F4
Note ON: Time 38370, Note Name: A4, Velocity: 43
Note OFF: Time 38400, Note Name: A4
Note ON: Time 38400, Note Name: G4, Velocity: 50
Note OFF: Time 38520, Note Name: G4
Note ON: Time 38520, Note Name: F4, Velocity: 46
Note OFF: Time 38640, Note Name: F4
Note ON: Time 38640, Note Name: G4, Velocity: 50
Note OFF: Time 38760, Note Name: G4
Note ON: Time 38760, Note Name: A4, Velocity: 50
Note OFF: Time 38880, Note Name: A4
Note ON: Time 38880, Note Name: A#4, Velocity: 50
Note OFF: Time 38940, Note Name: A#4
Note ON: Time 39240, Note Name: A4, Velocity: 46
Note OFF: Time 39300, Note Name: A4
Note ON: Time 39360, Note Name: A#4, Velocity: 56
Note OFF: Time 39420, Note Name: A#4
Note ON: Time 39720, Note Name: C5, Velocity: 48
Note OFF: Time 39780, Note Name: C5
Note ON: Time 39840, Note Name: D5, Velocity: 55
Note OFF: Time 39900, Note Name: D5
Note ON: Time 40200, Note Name: E5, Velocity: 59
Note OFF: Time 40260, Note Name: E5
Note ON: Time 40320, Note Name: A#4, Velocity: 53
Note ON: Time 40320, Note Name: E5, Velocity: 63
Note OFF: Time 40800, Note Name: E5
Note OFF: Time 40800, Note Name: A#4
Note ON: Time 40800, Note Name: A4, Velocity: 48
Note ON: Time 40800, Note Name: F5, Velocity: 57
Note OFF: Time 41040, Note Name: F5
Note OFF: Time 41040, Note Name: A4
Note ON: Time 41250, Note Name: F5, Velocity: 43
Note OFF: Time 41280, Note Name: F5
Note ON: Time 41280, Note Name: D#5, Velocity: 50
Note OFF: Time 41400, Note Name: D#5
Note ON: Time 41400, Note Name: D5, Velocity: 46
Note OFF: Time 41520, Note Name: D5
Note ON: Time 41520, Note Name: D#5, Velocity: 54
Note OFF: Time 41640, Note Name: D#5
Note ON: Time 41640, Note Name: F5, Velocity: 51
Note OFF: Time 41760, Note Name: F5
Note ON: Time 41760, Note Name: G5, Velocity: 59
Note OFF: Time 42240, Note Name: G5
Note ON: Time 42240, Note Name: C5, Velocity: 50
Note OFF: Time 42660, Note Name: C5
Note ON: Time 42690, Note Name: D5, Velocity: 43
Note OFF: Time 42720, Note Name: D5
Note ON: Time 42720, Note Name: C5, Velocity: 50
Note OFF: Time 42840, Note Name: C5
Note ON: Time 42840, Note Name: B4, Velocity: 46
Note OFF: Time 42960, Note Name: B4
Note ON: Time 42960, Note Name: C5, Velocity: 54
Note OFF: Time 43080, Note Name: C5
Note ON: Time 43080, Note Name: D5, Velocity: 51
Note OFF: Time 43200, Note Name: D5
Note ON: Time 43200, Note Name: D#5, Velocity: 59
Note OFF: Time 43680, Note Name: D#5
Note ON: Time 43680, Note Name: A4, Velocity: 50
Note OFF: Time 44100, Note Name: A4
Note ON: Time 44130, Note Name: A#4, Velocity: 43
Note OFF: Time 44160, Note Name: A#4
Note ON: Time 44160, Note Name: A4, Velocity: 50
Note OFF: Time 44280, Note Name: A4
Note ON: Time 44280, Note Name: G4, Velocity: 46
Note OFF: Time 44400, Note Name: G4
Note ON: Time 44400, Note Name: A4, Velocity: 52
Note OFF: Time 44520, Note Name: A4
Note ON: Time 44520, Note Name: A#4, Velocity: 48
Note OFF: Time 44600, Note Name: A#4
Note ON: Time 44610, Note Name: D5, Velocity: 43
Note OFF: Time 44640, Note Name: D5
Note ON: Time 44640, Note Name: C5, Velocity: 53
Note OFF: Time 44760, Note Name: C5
Note ON: Time 44760, Note Name: B4, Velocity: 50
Note OFF: Time 44880, Note Name: B4
Note ON: Time 44880, Note Name: C5, Velocity: 54
Note OFF: Time 45000, Note Name: C5
Note ON: Time 45000, Note Name: D5, Velocity: 51
Note OFF: Time 45080, Note Name: D5
Note ON: Time 45090, Note Name: F5, Velocity: 43
Note OFF: Time 45120, Note Name: F5
Note ON: Time 45120, Note Name: D#5, Velocity: 57
Note OFF: Time 45240, Note Name: D#5
Note ON: Time 45240, Note Name: D5, Velocity: 52
Note OFF: Time 45360, Note Name: D5
Note ON: Time 45360, Note Name: D#5, Velocity: 58
Note OFF: Time 45480, Note Name: D#5
Note ON: Time 45480, Note Name: F5, Velocity: 55
Note OFF: Time 45600, Note Name: F5
Note ON: Time 45600, Note Name: G5, Velocity: 61
Note OFF: Time 45720, Note Name: G5
Note ON: Time 45720, Note Name: D#5, Velocity: 59
Note OFF: Time 45840, Note Name: D#5
Note ON: Time 45840, Note Name: C5, Velocity: 52
Note OFF: Time 45960, Note Name: C5
Note ON: Time 45960, Note Name: A4, Velocity: 42
Note OFF: Time 46080, Note Name: A4
Note ON: Time 46080, Note Name: A#4, Velocity: 50
Note OFF: Time 46560, Note Name: A#4
Note ON: Time 47010, Note Name: A5, Velocity: 46
Note OFF: Time 47040, Note Name: A5
Note ON: Time 47040, Note Name: G5, Velocity: 50
Note OFF: Time 47160, Note Name: G5
Note ON: Time 47160, Note Name: F#5, Velocity: 45
Note OFF: Time 47280, Note Name: F#5
Note ON: Time 47280, Note Name: G5, Velocity: 50
Note OFF: Time 47400, Note Name: G5
Note ON: Time 47400, Note Name: A5, Velocity: 43
Note OFF: Time 47520, Note Name: A5
Note ON: Time 47520, Note Name: A#5, Velocity: 50
Note OFF: Time 48000, Note Name: A#5
Note ON: Time 48000, Note Name: F5, Velocity: 41
Note OFF: Time 48420, Note Name: F5
Note ON: Time 48450, Note Name: A4, Velocity: 43
Note OFF: Time 48480, Note Name: A4
Note ON: Time 48480, Note Name: D#5, Velocity: 41
Note ON: Time 48480, Note Name: G4, Velocity: 50
Note OFF: Time 48600, Note Name: G4
Note ON: Time 48600, Note Name: F4, Velocity: 46
Note OFF: Time 48720, Note Name: F4
Note ON: Time 48720, Note Name: G4, Velocity: 50
Note OFF: Time 48840, Note Name: G4
Note ON: Time 48840, Note Name: A4, Velocity: 46
Note OFF: Time 48960, Note Name: A4
Note OFF: Time 48960, Note Name: D#5
Note ON: Time 48960, Note Name: D5, Velocity: 44
Note ON: Time 48960, Note Name: A#4, Velocity: 50
Note OFF: Time 49440, Note Name: A#4
Note OFF: Time 49440, Note Name: D5
Note ON: Time 49440, Note Name: F4, Velocity: 41
Note OFF: Time 49680, Note Name: F4
Note ON: Time 49890, Note Name: A4, Velocity: 43
Note OFF: Time 49920, Note Name: A4
Note ON: Time 49920, Note Name: G4, Velocity: 50
Note OFF: Time 50040, Note Name: G4
Note ON: Time 50040, Note Name: F#4, Velocity: 46
Note OFF: Time 50160, Note Name: F#4
Note ON: Time 50160, Note Name: G4, Velocity: 50
Note OFF: Time 50280, Note Name: G4
Note ON: Time 50280, Note Name: A4, Velocity: 46
Note OFF: Time 50400, Note Name: A4
Note ON: Time 50400, Note Name: A#4, Velocity: 50
Note OFF: Time 50880, Note Name: A#4
Note ON: Time 50880, Note Name: F4, Velocity: 41
Note OFF: Time 51300, Note Name: F4
Note ON: Time 51330, Note Name: A3, Velocity: 36
Note OFF: Time 51360, Note Name: A3
Note ON: Time 51360, Note Name: D#4, Velocity: 34
Note ON: Time 51360, Note Name: G3, Velocity: 42
Note OFF: Time 51480, Note Name: G3
Note ON: Time 51480, Note Name: F3, Velocity: 39
Note OFF: Time 51600, Note Name: F3
Note ON: Time 51600, Note Name: G3, Velocity: 42
Note OFF: Time 51720, Note Name: G3
Note ON: Time 51720, Note Name: A3, Velocity: 39
Note OFF: Time 51840, Note Name: A3
Note OFF: Time 51840, Note Name: D#4
Note ON: Time 51840, Note Name: D4, Velocity: 34
Note ON: Time 51840, Note Name: A#3, Velocity: 42
Note OFF: Time 52080, Note Name: A#3
Note ON: Time 52080, Note Name: F3, Velocity: 33
Note OFF: Time 52280, Note Name: F3
Note ON: Time 52290, Note Name: A3, Velocity: 37
Note OFF: Time 52320, Note Name: A3
Note OFF: Time 52320, Note Name: D4
Note ON: Time 52320, Note Name: D#4, Velocity: 39
Note ON: Time 52320, Note Name: G3, Velocity: 43
Note OFF: Time 52440, Note Name: G3
Note ON: Time 52440, Note Name: F3, Velocity: 40
Note OFF: Time 52560, Note Name: F3
Note ON: Time 52560, Note Name: G3, Velocity: 44
Note OFF: Time 52680, Note Name: G3
Note ON: Time 52680, Note Name: A3, Velocity: 40
Note OFF: Time 52800, Note Name: A3
Note OFF: Time 52800, Note Name: D#4
Note ON: Time 52800, Note Name: D4, Velocity: 36
Note ON: Time 52800, Note Name: A#3, Velocity: 44
Note OFF: Time 53040, Note Name: A#3
Note ON: Time 53040, Note Name: F3, Velocity: 34
Note OFF: Time 53220, Note Name: F3
Note ON: Time 53250, Note Name: A3, Velocity: 39
Note OFF: Time 53280, Note Name: A3
Note OFF: Time 53280, Note Name: D4
Note ON: Time 53280, Note Name: D#4, Velocity: 44
Note ON: Time 53280, Note Name: G3, Velocity: 46
Note OFF: Time 53400, Note Name: G3
Note ON: Time 53400, Note Name: F3, Velocity: 43
Note OFF: Time 53520, Note Name: F3
Note ON: Time 53520, Note Name: G3, Velocity: 47
Note OFF: Time 53640, Note Name: G3
Note ON: Time 53640, Note Name: A3, Velocity: 44
Note OFF: Time 53760, Note Name: A3
Note OFF: Time 53760, Note Name: D#4
Note ON: Time 53760, Note Name: D4, Velocity: 42
Note ON: Time 53760, Note Name: A#3, Velocity: 48
Note OFF: Time 53880, Note Name: A#3
Note ON: Time 53880, Note Name: F3, Velocity: 41
Note OFF: Time 54000, Note Name: F3
Note OFF: Time 54000, Note Name: D4
Note ON: Time 54000, Note Name: D#4, Velocity: 40
Note ON: Time 54000, Note Name: A3, Velocity: 50
Note OFF: Time 54120, Note Name: A3
Note ON: Time 54120, Note Name: F3, Velocity: 43
Note OFF: Time 54240, Note Name: F3
Note OFF: Time 54240, Note Name: D#4
Note ON: Time 54240, Note Name: D4, Velocity: 49
Note ON: Time 54240, Note Name: A#3, Velocity: 51
Note OFF: Time 54360, Note Name: A#3
Note ON: Time 54360, Note Name: F3, Velocity: 46
Note OFF: Time 54480, Note Name: F3
Note OFF: Time 54480, Note Name: D4
Note ON: Time 54480, Note Name: D#4, Velocity: 42
Note ON: Time 54480, Note Name: A3, Velocity: 52
Note OFF: Time 54600, Note Name: A3
Note ON: Time 54600, Note Name: F3, Velocity: 47
Note OFF: Time 54720, Note Name: F3
Note OFF: Time 54720, Note Name: D#4
Note ON: Time 54720, Note Name: A#3, Velocity: 34
Note ON: Time 54720, Note Name: D4, Velocity: 40
Note OFF: Time 54840, Note Name: D4
Note OFF: Time 54840, Note Name: A#3
Note ON: Time 55200, Note Name: D4, Velocity: 34
Note ON: Time 55200, Note Name: A#4, Velocity: 40
Note OFF: Time 55320, Note Name: A#4
Note OFF: Time 55320, Note Name: D4
Note ON: Time 55680, Note Name: A4, Velocity: 38
Note ON: Time 55680, Note Name: D5, Velocity: 46
Note OFF: Time 55800, Note Name: D5
Note OFF: Time 55800, Note Name: A4
Note ON: Time 55800, Note Name: A#4, Velocity: 34
Note ON: Time 55800, Note Name: C#5, Velocity: 41
Note OFF: Time 55920, Note Name: C#5
Note OFF: Time 55920, Note Name: A#4
Note ON: Time 55920, Note Name: A4, Velocity: 42
Note ON: Time 55920, Note Name: D5, Velocity: 50
Note OFF: Time 56040, Note Name: D5
Note OFF: Time 56040, Note Name: A4
Note ON: Time 56040, Note Name: A#4, Velocity: 34
Note ON: Time 56040, Note Name: C#5, Velocity: 40
Note OFF: Time 56160, Note Name: C#5
Note OFF: Time 56160, Note Name: A#4
Note ON: Time 56160, Note Name: A4, Velocity: 45
Note ON: Time 56160, Note Name: D5, Velocity: 53
Note OFF: Time 56280, Note Name: D5
Note OFF: Time 56280, Note Name: A4
Note ON: Time 56280, Note Name: A#4, Velocity: 40
Note ON: Time 56280, Note Name: C#5, Velocity: 49
Note OFF: Time 56400, Note Name: C#5
Note OFF: Time 56400, Note Name: A#4
Note ON: Time 56400, Note Name: A4, Velocity: 48
Note ON: Time 56400, Note Name: D5, Velocity: 57
Note OFF: Time 56520, Note Name: D5
Note OFF: Time 56520, Note Name: A4
Note ON: Time 56520, Note Name: A#4, Velocity: 39
Note ON: Time 56520, Note Name: C#5, Velocity: 47
Note OFF: Time 56640, Note Name: C#5
Note OFF: Time 56640, Note Name: A#4
Note ON: Time 56640, Note Name: A4, Velocity: 52
Note ON: Time 56640, Note Name: D5, Velocity: 62
Note OFF: Time 56760, Note Name: D5
Note OFF: Time 56760, Note Name: A4
Note ON: Time 56760, Note Name: A#4, Velocity: 47
Note ON: Time 56760, Note Name: C#5, Velocity: 56
Note OFF: Time 56880, Note Name: C#5
Note OFF: Time 56880, Note Name: A#4
Note ON: Time 56880, Note Name: A4, Velocity: 55
Note ON: Time 56880, Note Name: D5, Velocity: 66
Note OFF: Time 57000, Note Name: D5
Note OFF: Time 57000, Note Name: A4
Note ON: Time 57000, Note Name: A#4, Velocity: 46
Note ON: Time 57000, Note Name: C#5, Velocity: 54
Note OFF: Time 57120, Note Name: C#5
Note OFF: Time 57120, Note Name: A#4
Note ON: Time 57120, Note Name: A4, Velocity: 59
Note ON: Time 57120, Note Name: D5, Velocity: 71
Note OFF: Time 57240, Note Name: D5
Note OFF: Time 57240, Note Name: A4
Note ON: Time 57240, Note Name: A#4, Velocity: 53
Note ON: Time 57240, Note Name: C#5, Velocity: 63
Note OFF: Time 57360, Note Name: C#5
Note OFF: Time 57360, Note Name: A#4
Note ON: Time 57360, Note Name: A4, Velocity: 63
Note ON: Time 57360, Note Name: D5, Velocity: 75
Note OFF: Time 57480, Note Name: D5
Note OFF: Time 57480, Note Name: A4
Note ON: Time 57480, Note Name: A#4, Velocity: 52
Note ON: Time 57480, Note Name: C#5, Velocity: 61
Note OFF: Time 57600, Note Name: C#5
Note OFF: Time 57600, Note Name: A#4
Note ON: Time 57600, Note Name: A4, Velocity: 83
Note ON: Time 57600, Note Name: D5, Velocity: 83
Note OFF: Time 57840, Note Name: D5
Note OFF: Time 57840, Note Name: A4
Note ON: Time 58080, Note Name: D6, Velocity: 100
Note ON: Time 58080, Note Name: F#5, Velocity: 84
Note OFF: Time 58800, Note Name: F#5
Note OFF: Time 58800, Note Name: D6
Note ON: Time 58800, Note Name: C6, Velocity: 75
Note ON: Time 58800, Note Name: F#5, Velocity: 63
Note OFF: Time 58920, Note Name: F#5
Note OFF: Time 58920, Note Name: C6
Note ON: Time 59040, Note Name: A#5, Velocity: 91
Note ON: Time 59040, Note Name: G5, Velocity: 77
Note OFF: Time 59280, Note Name: G5
Note OFF: Time 59280, Note Name: A#5
Note ON: Time 59400, Note Name: A5, Velocity: 73
Note ON: Time 59400, Note Name: D#5, Velocity: 61
Note OFF: Time 59460, Note Name: D#5
Note OFF: Time 59460, Note Name: A5
Note ON: Time 59520, Note Name: A#4, Velocity: 72
Note ON: Time 59520, Note Name: G5, Velocity: 85
Note OFF: Time 59760, Note Name: G5
Note OFF: Time 59760, Note Name: A#4
Note ON: Time 60000, Note Name: C5, Velocity: 69
Note ON: Time 60000, Note Name: F#5, Velocity: 81
Note OFF: Time 60240, Note Name: F#5
Note OFF: Time 60240, Note Name: C5
Note ON: Time 60480, Note Name: C5, Velocity: 69
Note ON: Time 60480, Note Name: A5, Velocity: 82
Note OFF: Time 60960, Note Name: A5
Note OFF: Time 60960, Note Name: C5
Note ON: Time 60960, Note Name: A#4, Velocity: 61
Note ON: Time 60960, Note Name: G5, Velocity: 72
Note OFF: Time 61200, Note Name: G5
Note OFF: Time 61200, Note Name: A#4
Note ON: Time 61440, Note Name: G#3, Velocity: 25
Note ON: Time 61440, Note Name: A#3, Velocity: 30
Note ON: Time 61560, Note Name: B3, Velocity: 27
Note OFF: Time 61561, Note Name: A#3
Note OFF: Time 61561, Note Name: G#3
Note ON: Time 61680, Note Name: G#3, Velocity: 27
Note ON: Time 61680, Note Name: A#3, Velocity: 33
Note OFF: Time 61681, Note Name: B3
Note ON: Time 61800, Note Name: B3, Velocity: 27
Note OFF: Time 61801, Note Name: A#3
Note OFF: Time 61801, Note Name: G#3
Note ON: Time 61920, Note Name: G#3, Velocity: 29
Note ON: Time 61920, Note Name: A#3, Velocity: 35
Note OFF: Time 61921, Note Name: B3
Note ON: Time 62040, Note Name: B3, Velocity: 32
Note OFF: Time 62041, Note Name: A#3
Note OFF: Time 62041, Note Name: G#3
Note ON: Time 62160, Note Name: G#3, Velocity: 32
Note ON: Time 62160, Note Name: A#3, Velocity: 37
Note OFF: Time 62161, Note Name: B3
Note ON: Time 62280, Note Name: B3, Velocity: 30
Note OFF: Time 62281, Note Name: A#3
Note OFF: Time 62281, Note Name: G#3
Note ON: Time 62400, Note Name: G#3, Velocity: 34
Note ON: Time 62400, Note Name: A#3, Velocity: 41
Note OFF: Time 62401, Note Name: B3
Note ON: Time 62520, Note Name: B3, Velocity: 38
Note OFF: Time 62521, Note Name: A#3
Note OFF: Time 62521, Note Name: G#3
Note ON: Time 62640, Note Name: G#3, Velocity: 37
Note ON: Time 62640, Note Name: A#3, Velocity: 44
Note OFF: Time 62641, Note Name: B3
Note ON: Time 62760, Note Name: B3, Velocity: 35
Note OFF: Time 62761, Note Name: A#3
Note OFF: Time 62761, Note Name: G#3
Note ON: Time 62880, Note Name: G#3, Velocity: 39
Note ON: Time 62880, Note Name: A#3, Velocity: 46
Note OFF: Time 62881, Note Name: B3
Note ON: Time 63000, Note Name: B3, Velocity: 42
Note OFF: Time 63001, Note Name: A#3
Note OFF: Time 63001, Note Name: G#3
Note ON: Time 63120, Note Name: G#3, Velocity: 42
Note ON: Time 63120, Note Name: A#3, Velocity: 50
Note OFF: Time 63121, Note Name: B3
Note ON: Time 63240, Note Name: B3, Velocity: 41
Note OFF: Time 63241, Note Name: A#3
Note OFF: Time 63241, Note Name: G#3
Note ON: Time 63360, Note Name: G#3, Velocity: 65
Note ON: Time 63360, Note Name: A#3, Velocity: 65
Note OFF: Time 63361, Note Name: B3
Note OFF: Time 63600, Note Name: A#3
Note OFF: Time 63600, Note Name: G#3
Note ON: Time 63840, Note Name: G#5, Velocity: 85
Note ON: Time 63840, Note Name: B4, Velocity: 72
Note OFF: Time 64560, Note Name: B4
Note OFF: Time 64560, Note Name: G#5
Note ON: Time 64560, Note Name: G5, Velocity: 59
Note ON: Time 64560, Note Name: C5, Velocity: 49
Note OFF: Time 64800, Note Name: C5
Note OFF: Time 64800, Note Name: G5
Note ON: Time 64800, Note Name: F5, Velocity: 70
Note ON: Time 64800, Note Name: G#4, Velocity: 58
Note OFF: Time 65160, Note Name: G#4
Note OFF: Time 65160, Note Name: F5
Note ON: Time 65160, Note Name: D#5, Velocity: 53
Note ON: Time 65160, Note Name: G4, Velocity: 45
Note OFF: Time 65280, Note Name: G4
Note OFF: Time 65280, Note Name: D#5
Note ON: Time 65280, Note Name: F4, Velocity: 52
Note ON: Time 65280, Note Name: D5, Velocity: 61
Note OFF: Time 65760, Note Name: D5
Note OFF: Time 65760, Note Name: F4
Note ON: Time 65760, Note Name: D#4, Velocity: 46
Note ON: Time 65760, Note Name: C5, Velocity: 54
Note OFF: Time 66240, Note Name: C5
Note OFF: Time 66240, Note Name: D#4
Note ON: Time 66240, Note Name: D4, Velocity: 40
Note ON: Time 66240, Note Name: A#4, Velocity: 48
Note OFF: Time 66720, Note Name: A#4
Note OFF: Time 66720, Note Name: D4
Note ON: Time 66720, Note Name: C4, Velocity: 36
Note ON: Time 66720, Note Name: A4, Velocity: 42
Note OFF: Time 66960, Note Name: A4
Note OFF: Time 66960, Note Name: C4
Note ON: Time 67200, Note Name: D4, Velocity: 50
Note OFF: Time 67560, Note Name: D4
Note ON: Time 67560, Note Name: D#4, Velocity: 46
Note OFF: Time 67680, Note Name: D#4
Note ON: Time 67680, Note Name: F4, Velocity: 50
Note OFF: Time 68610, Note Name: F4
Note ON: Time 68610, Note Name: A4, Velocity: 46
Note OFF: Time 68640, Note Name: A4
Note ON: Time 68640, Note Name: G4, Velocity: 50
Note OFF: Time 68760, Note Name: G4
Note ON: Time 68760, Note Name: F4, Velocity: 45
Note OFF: Time 68880, Note Name: F4
Note ON: Time 68880, Note Name: G4, Velocity: 50
Note OFF: Time 69000, Note Name: G4
Note ON: Time 69000, Note Name: A4, Velocity: 43
Note OFF: Time 69120, Note Name: A4
Note ON: Time 69120, Note Name: A#4, Velocity: 50
Note OFF: Time 69600, Note Name: A#4
Note ON: Time 69600, Note Name: F4, Velocity: 41
Note OFF: Time 70020, Note Name: F4
Note ON: Time 70050, Note Name: A4, Velocity: 43
Note OFF: Time 70080, Note Name: A4
Note ON: Time 70080, Note Name: G4, Velocity: 50
Note OFF: Time 70200, Note Name: G4
Note ON: Time 70200, Note Name: F4, Velocity: 46
Note OFF: Time 70320, Note Name: F4
Note ON: Time 70320, Note Name: G4, Velocity: 50
Note OFF: Time 70440, Note Name: G4
Note ON: Time 70440, Note Name: A4, Velocity: 50
Note OFF: Time 70560, Note Name: A4
Note ON: Time 70560, Note Name: A#4, Velocity: 50
Note OFF: Time 70620, Note Name: A#4
Note ON: Time 70920, Note Name: A4, Velocity: 46
Note OFF: Time 70980, Note Name: A4
Note ON: Time 71040, Note Name: A#4, Velocity: 56
Note OFF: Time 71100, Note Name: A#4
Note ON: Time 71400, Note Name: C5, Velocity: 48
Note OFF: Time 71460, Note Name: C5
Note ON: Time 71520, Note Name: D5, Velocity: 55
Note OFF: Time 71580, Note Name: D5
Note ON: Time 71880, Note Name: E5, Velocity: 59
Note OFF: Time 71940, Note Name: E5
Note ON: Time 72000, Note Name: A#4, Velocity: 53
Note ON: Time 72000, Note Name: E5, Velocity: 63
Note OFF: Time 72480, Note Name: E5
Note OFF: Time 72480, Note Name: A#4
Note ON: Time 72480, Note Name: A4, Velocity: 48
Note ON: Time 72480, Note Name: F5, Velocity: 57
Note OFF: Time 72720, Note Name: F5
Note OFF: Time 72720, Note Name: A4
Note ON: Time 72930, Note Name: F5, Velocity: 43
Note OFF: Time 72960, Note Name: F5
Note ON: Time 72960, Note Name: D#5, Velocity: 50
Note OFF: Time 73080, Note Name: D#5
Note ON: Time 73080, Note Name: D5, Velocity: 46
Note OFF: Time 73200, Note Name: D5
Note ON: Time 73200, Note Name: D#5, Velocity: 54
Note OFF: Time 73320, Note Name: D#5
Note ON: Time 73320, Note Name: F5, Velocity: 51
Note OFF: Time 73440, Note Name: F5
Note ON: Time 73440, Note Name: G5, Velocity: 59
Note OFF: Time 73920, Note Name: G5
Note ON: Time 73920, Note Name: C5, Velocity: 50
Note OFF: Time 74340, Note Name: C5
Note ON: Time 74370, Note Name: D5, Velocity: 43
Note OFF: Time 74400, Note Name: D5
Note ON: Time 74400, Note Name: C5, Velocity: 50
Note OFF: Time 74520, Note Name: C5
Note ON: Time 74520, Note Name: B4, Velocity: 46
Note OFF: Time 74640, Note Name: B4
Note ON: Time 74640, Note Name: C5, Velocity: 54
Note OFF: Time 74760, Note Name: C5
Note ON: Time 74760, Note Name: D5, Velocity: 51
Note OFF: Time 74880, Note Name: D5
Note ON: Time 74880, Note Name: D#5, Velocity: 59
Note OFF: Time 75360, Note Name: D#5
Note ON: Time 75360, Note Name: A4, Velocity: 50
Note OFF: Time 75780, Note Name: A4
Note ON: Time 75810, Note Name: A#4, Velocity: 43
Note OFF: Time 75840, Note Name: A#4
Note ON: Time 75840, Note Name: A4, Velocity: 50
Note OFF: Time 75960, Note Name: A4
Note ON: Time 75960, Note Name: G4, Velocity: 46
Note OFF: Time 76080, Note Name: G4
Note ON: Time 76080, Note Name: A4, Velocity: 52
Note OFF: Time 76200, Note Name: A4
Note ON: Time 76200, Note Name: A#4, Velocity: 48
Note OFF: Time 76280, Note Name: A#4
Note ON: Time 76290, Note Name: D5, Velocity: 43
Note OFF: Time 76320, Note Name: D5
Note ON: Time 76320, Note Name: C5, Velocity: 53
Note OFF: Time 76440, Note Name: C5
Note ON: Time 76440, Note Name: B4, Velocity: 50
Note OFF: Time 76560, Note Name: B4
Note ON: Time 76560, Note Name: C5, Velocity: 54
Note OFF: Time 76680, Note Name: C5
Note ON: Time 76680, Note Name: D5, Velocity: 51
Note OFF: Time 76760, Note Name: D5
Note ON: Time 76770, Note Name: F5, Velocity: 43
Note OFF: Time 76800, Note Name: F5
Note ON: Time 76800, Note Name: D#5, Velocity: 57
Note OFF: Time 76920, Note Name: D#5
Note ON: Time 76920, Note Name: D5, Velocity: 52
Note OFF: Time 77040, Note Name: D5
Note ON: Time 77040, Note Name: D#5, Velocity: 58
Note OFF: Time 77160, Note Name: D#5
Note ON: Time 77160, Note Name: F5, Velocity: 55
Note OFF: Time 77280, Note Name: F5
Note ON: Time 77280, Note Name: G5, Velocity: 61
Note OFF: Time 77400, Note Name: G5
Note ON: Time 77400, Note Name: D#5, Velocity: 59
Note OFF: Time 77520, Note Name: D#5
Note ON: Time 77520, Note Name: C5, Velocity: 52
Note OFF: Time 77640, Note Name: C5
Note ON: Time 77640, Note Name: A4, Velocity: 42
Note OFF: Time 77760, Note Name: A4
Note ON: Time 77760, Note Name: A#4, Velocity: 50
Note OFF: Time 78240, Note Name: A#4
Note ON: Time 78690, Note Name: A5, Velocity: 46
Note OFF: Time 78720, Note Name: A5
Note ON: Time 78720, Note Name: G5, Velocity: 50
Note OFF: Time 78840, Note Name: G5
Note ON: Time 78840, Note Name: F#5, Velocity: 45
Note OFF: Time 78960, Note Name: F#5
Note ON: Time 78960, Note Name: G5, Velocity: 50
Note OFF: Time 79080, Note Name: G5
Note ON: Time 79080, Note Name: A5, Velocity: 43
Note OFF: Time 79200, Note Name: A5
Note ON: Time 79200, Note Name: A#5, Velocity: 50
Note OFF: Time 79680, Note Name: A#5
Note ON: Time 79680, Note Name: F5, Velocity: 41
Note OFF: Time 80100, Note Name: F5
Note ON: Time 80130, Note Name: A4, Velocity: 43
Note OFF: Time 80160, Note Name: A4
Note ON: Time 80160, Note Name: D#5, Velocity: 41
Note ON: Time 80160, Note Name: G4, Velocity: 50
Note OFF: Time 80280, Note Name: G4
Note ON: Time 80280, Note Name: F4, Velocity: 46
Note OFF: Time 80400, Note Name: F4
Note ON: Time 80400, Note Name: G4, Velocity: 50
Note OFF: Time 80520, Note Name: G4
Note ON: Time 80520, Note Name: A4, Velocity: 46
Note OFF: Time 80640, Note Name: A4
Note OFF: Time 80640, Note Name: D#5
Note ON: Time 80640, Note Name: D5, Velocity: 44
Note ON: Time 80640, Note Name: A#4, Velocity: 50
Note OFF: Time 81120, Note Name: A#4
Note OFF: Time 81120, Note Name: D5
Note ON: Time 81120, Note Name: F4, Velocity: 41
Note OFF: Time 81360, Note Name: F4
Note ON: Time 81570, Note Name: A4, Velocity: 43
Note OFF: Time 81600, Note Name: A4
Note ON: Time 81600, Note Name: G4, Velocity: 50
Note OFF: Time 81720, Note Name: G4
Note ON: Time 81720, Note Name: F#4, Velocity: 46
Note OFF: Time 81840, Note Name: F#4
Note ON: Time 81840, Note Name: G4, Velocity: 50
Note OFF: Time 81960, Note Name: G4
Note ON: Time 81960, Note Name: A4, Velocity: 46
Note OFF: Time 82080, Note Name: A4
Note ON: Time 82080, Note Name: A#4, Velocity: 50
Note OFF: Time 82560, Note Name: A#4
Note ON: Time 82560, Note Name: F4, Velocity: 41
Note OFF: Time 82980, Note Name: F4
Note ON: Time 83010, Note Name: A3, Velocity: 36
Note OFF: Time 83040, Note Name: A3
Note ON: Time 83040, Note Name: D#4, Velocity: 34
Note ON: Time 83040, Note Name: G3, Velocity: 42
Note OFF: Time 83160, Note Name: G3
Note ON: Time 83160, Note Name: F3, Velocity: 39
Note OFF: Time 83280, Note Name: F3
Note ON: Time 83280, Note Name: G3, Velocity: 42
Note OFF: Time 83400, Note Name: G3
Note ON: Time 83400, Note Name: A3, Velocity: 39
Note OFF: Time 83520, Note Name: A3
Note OFF: Time 83520, Note Name: D#4
Note ON: Time 83520, Note Name: D4, Velocity: 34
Note ON: Time 83520, Note Name: A#3, Velocity: 42
Note OFF: Time 83760, Note Name: A#3
Note ON: Time 83760, Note Name: F3, Velocity: 33
Note OFF: Time 83960, Note Name: F3
Note ON: Time 83970, Note Name: A3, Velocity: 37
Note OFF: Time 84000, Note Name: A3
Note OFF: Time 84000, Note Name: D4
Note ON: Time 84000, Note Name: D#4, Velocity: 39
Note ON: Time 84000, Note Name: G3, Velocity: 43
Note OFF: Time 84120, Note Name: G3
Note ON: Time 84120, Note Name: F3, Velocity: 40
Note OFF: Time 84240, Note Name: F3
Note ON: Time 84240, Note Name: G3, Velocity: 44
Note OFF: Time 84360, Note Name: G3
Note ON: Time 84360, Note Name: A3, Velocity: 40
Note OFF: Time 84480, Note Name: A3
Note OFF: Time 84480, Note Name: D#4
Note ON: Time 84480, Note Name: D4, Velocity: 36
Note ON: Time 84480, Note Name: A#3, Velocity: 44
Note OFF: Time 84720, Note Name: A#3
Note ON: Time 84720, Note Name: F3, Velocity: 34
Note OFF: Time 84900, Note Name: F3
Note ON: Time 84930, Note Name: A3, Velocity: 39
Note OFF: Time 84960, Note Name: A3
Note OFF: Time 84960, Note Name: D4
Note ON: Time 84960, Note Name: D#4, Velocity: 44
Note ON: Time 84960, Note Name: G3, Velocity: 46
Note OFF: Time 85080, Note Name: G3
Note ON: Time 85080, Note Name: F3, Velocity: 43
Note OFF: Time 85200, Note Name: F3
Note ON: Time 85200, Note Name: G3, Velocity: 47
Note OFF: Time 85320, Note Name: G3
Note ON: Time 85320, Note Name: A3, Velocity: 44
Note OFF: Time 85440, Note Name: A3
Note OFF: Time 85440, Note Name: D#4
Note ON: Time 85440, Note Name: D4, Velocity: 42
Note ON: Time 85440, Note Name: A#3, Velocity: 48
Note OFF: Time 85560, Note Name: A#3
Note ON: Time 85560, Note Name: F3, Velocity: 41
Note OFF: Time 85680, Note Name: F3
Note OFF: Time 85680, Note Name: D4
Note ON: Time 85680, Note Name: D#4, Velocity: 40
Note ON: Time 85680, Note Name: A3, Velocity: 50
Note OFF: Time 85800, Note Name: A3
Note ON: Time 85800, Note Name: F3, Velocity: 43
Note OFF: Time 85920, Note Name: F3
Note OFF: Time 85920, Note Name: D#4
Note ON: Time 85920, Note Name: D4, Velocity: 49
Note ON: Time 85920, Note Name: A#3, Velocity: 51
Note OFF: Time 86040, Note Name: A#3
Note ON: Time 86040, Note Name: F3, Velocity: 46
Note OFF: Time 86160, Note Name: F3
Note OFF: Time 86160, Note Name: D4
Note ON: Time 86160, Note Name: D#4, Velocity: 42
Note ON: Time 86160, Note Name: A3, Velocity: 52
Note OFF: Time 86280, Note Name: A3
Note ON: Time 86280, Note Name: F3, Velocity: 47
Note OFF: Time 86400, Note Name: F3
Note OFF: Time 86400, Note Name: D#4
Note ON: Time 86400, Note Name: A#3, Velocity: 34
Note ON: Time 86400, Note Name: D4, Velocity: 40
Note OFF: Time 86520, Note Name: D4
Note OFF: Time 86520, Note Name: A#3
Note ON: Time 86880, Note Name: D4, Velocity: 34
Note ON: Time 86880, Note Name: A#4, Velocity: 40
Note OFF: Time 87000, Note Name: A#4
Note OFF: Time 87000, Note Name: D4
Note ON: Time 88320, Note Name: D4, Velocity: 61
Note ON: Time 88320, Note Name: G4, Velocity: 61
Note ON: Time 88320, Note Name: A#4, Velocity: 61
Note ON: Time 88320, Note Name: D5, Velocity: 79
Note OFF: Time 89270, Note Name: A#4
Note OFF: Time 89270, Note Name: G4
Note ON: Time 89280, Note Name: A4, Velocity: 62
Note ON: Time 89280, Note Name: C5, Velocity: 62
Note OFF: Time 89400, Note Name: C5
Note OFF: Time 89400, Note Name: A4
Note OFF: Time 89750, Note Name: D4
Note OFF: Time 89750, Note Name: D5
Note ON: Time 89760, Note Name: D4, Velocity: 59
Note ON: Time 89760, Note Name: D5, Velocity: 81
Note ON: Time 89760, Note Name: A4, Velocity: 59
Note ON: Time 89760, Note Name: F#4, Velocity: 59
Note OFF: Time 90710, Note Name: F#4
Note OFF: Time 90710, Note Name: A4
Note ON: Time 90720, Note Name: A#4, Velocity: 62
Note ON: Time 90720, Note Name: G4, Velocity: 62
Note OFF: Time 90840, Note Name: G4
Note OFF: Time 90840, Note Name: A#4
Note OFF: Time 91190, Note Name: D5
Note OFF: Time 91190, Note Name: D4
Note ON: Time 91200, Note Name: G4, Velocity: 68
Note ON: Time 91200, Note Name: A#4, Velocity: 68
Note ON: Time 91200, Note Name: G5, Velocity: 89
Note OFF: Time 92160, Note Name: G5
Note OFF: Time 92160, Note Name: A#4
Note OFF: Time 92160, Note Name: G4
Note ON: Time 92160, Note Name: F#4, Velocity: 63
Note ON: Time 92160, Note Name: A4, Velocity: 63
Note ON: Time 92160, Note Name: F#5, Velocity: 75
Note OFF: Time 92640, Note Name: F#5
Note OFF: Time 92640, Note Name: A4
Note OFF: Time 92640, Note Name: F#4
Note ON: Time 94080, Note Name: G4, Velocity: 61
Note ON: Time 94080, Note Name: A#4, Velocity: 61
Note ON: Time 94080, Note Name: D5, Velocity: 61
Note ON: Time 94080, Note Name: G5, Velocity: 79
Note OFF: Time 94560, Note Name: D5
Note ON: Time 94560, Note Name: C#5, Velocity: 74
Note OFF: Time 95040, Note Name: C#5
Note ON: Time 95040, Note Name: E5, Velocity: 80
Note OFF: Time 95160, Note Name: E5
Note OFF: Time 95510, Note Name: G5
Note OFF: Time 95510, Note Name: G4
Note OFF: Time 95520, Note Name: A#4
Note ON: Time 95520, Note Name: C#6, Velocity: 86
Note ON: Time 95520, Note Name: E5, Velocity: 59
Note ON: Time 95520, Note Name: C#5, Velocity: 66
Note OFF: Time 96000, Note Name: E5
Note ON: Time 96000, Note Name: G5, Velocity: 80
Note OFF: Time 96480, Note Name: G5
Note OFF: Time 96480, Note Name: C#5
Note OFF: Time 96480, Note Name: C#6
Note ON: Time 96480, Note Name: D5, Velocity: 74
Note ON: Time 96480, Note Name: D6, Velocity: 88
Note ON: Time 96480, Note Name: F5, Velocity: 74
Note OFF: Time 96600, Note Name: F5
Note OFF: Time 96600, Note Name: D6
Note OFF: Time 96600, Note Name: D5
Note ON: Time 96960, Note Name: D5, Velocity: 74
Note ON: Time 96960, Note Name: E5, Velocity: 74
Note ON: Time 96960, Note Name: D6, Velocity: 88
Note OFF: Time 97200, Note Name: D6
Note OFF: Time 97200, Note Name: E5
Note OFF: Time 97200, Note Name: D5
Note ON: Time 97440, Note Name: C#5, Velocity: 70
Note ON: Time 97440, Note Name: E5, Velocity: 70
Note ON: Time 97440, Note Name: C#6, Velocity: 83
Note OFF: Time 97680, Note Name: C#6
Note OFF: Time 97680, Note Name: E5
Note OFF: Time 97680, Note Name: C#5
Note ON: Time 97920, Note Name: D5, Velocity: 74
Note ON: Time 97920, Note Name: F5, Velocity: 74
Note ON: Time 97920, Note Name: D6, Velocity: 88
Note OFF: Time 98400, Note Name: D6
Note OFF: Time 98400, Note Name: F5
Note OFF: Time 98400, Note Name: D5
Note ON: Time 99840, Note Name: D4, Velocity: 61
Note ON: Time 99840, Note Name: G4, Velocity: 61
Note ON: Time 99840, Note Name: A#4, Velocity: 61
Note ON: Time 99840, Note Name: D5, Velocity: 79
Note OFF: Time 100790, Note Name: A#4
Note OFF: Time 100790, Note Name: G4
Note ON: Time 100800, Note Name: A4, Velocity: 62
Note ON: Time 100800, Note Name: C5, Velocity: 62
Note OFF: Time 100920, Note Name: C5
Note OFF: Time 100920, Note Name: A4
Note OFF: Time 101270, Note Name: D4
Note OFF: Time 101270, Note Name: D5
Note ON: Time 101280, Note Name: D4, Velocity: 59
Note ON: Time 101280, Note Name: D5, Velocity: 81
Note ON: Time 101280, Note Name: A4, Velocity: 59
Note ON: Time 101280, Note Name: F#4, Velocity: 59
Note OFF: Time 102230, Note Name: F#4
Note OFF: Time 102230, Note Name: A4
Note ON: Time 102240, Note Name: A#4, Velocity: 62
Note ON: Time 102240, Note Name: G4, Velocity: 62
Note OFF: Time 102360, Note Name: G4
Note OFF: Time 102360, Note Name: A#4
Note OFF: Time 102710, Note Name: D5
Note OFF: Time 102710, Note Name: D4
Note ON: Time 102720, Note Name: G4, Velocity: 68
Note ON: Time 102720, Note Name: A#4, Velocity: 68
Note ON: Time 102720, Note Name: G5, Velocity: 89
Note OFF: Time 103680, Note Name: G5
Note OFF: Time 103680, Note Name: A#4
Note OFF: Time 103680, Note Name: G4
Note ON: Time 103680, Note Name: F#4, Velocity: 63
Note ON: Time 103680, Note Name: A4, Velocity: 63
Note ON: Time 103680, Note Name: F#5, Velocity: 75
Note OFF: Time 104160, Note Name: F#5
Note OFF: Time 104160, Note Name: A4
Note OFF: Time 104160, Note Name: F#4
Note ON: Time 105600, Note Name: G4, Velocity: 61
Note ON: Time 105600, Note Name: A#4, Velocity: 61
Note ON: Time 105600, Note Name: D5, Velocity: 61
Note ON: Time 105600, Note Name: G5, Velocity: 79
Note OFF: Time 106080, Note Name: D5
Note ON: Time 106080, Note Name: C#5, Velocity: 74
Note OFF: Time 106560, Note Name: C#5
Note ON: Time 106560, Note Name: E5, Velocity: 80
Note OFF: Time 106680, Note Name: E5
Note OFF: Time 107030, Note Name: G5
Note OFF: Time 107030, Note Name: G4
Note OFF: Time 107040, Note Name: A#4
Note ON: Time 107040, Note Name: C#6, Velocity: 86
Note ON: Time 107040, Note Name: E5, Velocity: 59
Note ON: Time 107040, Note Name: C#5, Velocity: 66
Note OFF: Time 107520, Note Name: E5
Note ON: Time 107520, Note Name: G5, Velocity: 80
Note OFF: Time 108000, Note Name: G5
Note OFF: Time 108000, Note Name: C#5
Note OFF: Time 108000, Note Name: C#6
Note ON: Time 108000, Note Name: D5, Velocity: 74
Note ON: Time 108000, Note Name: D6, Velocity: 88
Note ON: Time 108000, Note Name: F5, Velocity: 74
Note OFF: Time 108120, Note Name: F5
Note OFF: Time 108120, Note Name: D6
Note OFF: Time 108120, Note Name: D5
Note ON: Time 108480, Note Name: D5, Velocity: 74
Note ON: Time 108480, Note Name: E5, Velocity: 74
Note ON: Time 108480, Note Name: D6, Velocity: 88
Note OFF: Time 108720, Note Name: D6
Note OFF: Time 108720, Note Name: E5
Note OFF: Time 108720, Note Name: D5
Note ON: Time 108960, Note Name: C#5, Velocity: 70
Note ON: Time 108960, Note Name: E5, Velocity: 70
Note ON: Time 108960, Note Name: C#6, Velocity: 83
Note OFF: Time 109200, Note Name: C#6
Note OFF: Time 109200, Note Name: E5
Note OFF: Time 109200, Note Name: C#5
Note ON: Time 109440, Note Name: D5, Velocity: 74
Note ON: Time 109440, Note Name: F5, Velocity: 74
Note ON: Time 109440, Note Name: D6, Velocity: 88
Note OFF: Time 109920, Note Name: D6
Note OFF: Time 109920, Note Name: F5
Note OFF: Time 109920, Note Name: D5
Note ON: Time 110400, Note Name: G#5, Velocity: 74
Note OFF: Time 110520, Note Name: G#5
Note ON: Time 110520, Note Name: A#5, Velocity: 48
Note OFF: Time 110640, Note Name: A#5
Note ON: Time 110640, Note Name: G#5, Velocity: 48
Note OFF: Time 110760, Note Name: G#5
Note ON: Time 110760, Note Name: G5, Velocity: 48
Note OFF: Time 110880, Note Name: G5
Note ON: Time 110880, Note Name: F5, Velocity: 68
Note OFF: Time 111000, Note Name: F5
Note ON: Time 111000, Note Name: G5, Velocity: 48
Note OFF: Time 111120, Note Name: G5
Note ON: Time 111120, Note Name: F5, Velocity: 47
Note OFF: Time 111240, Note Name: F5
Note ON: Time 111240, Note Name: D#5, Velocity: 47
Note OFF: Time 111360, Note Name: D#5
Note ON: Time 111360, Note Name: D5, Velocity: 63
Note OFF: Time 111480, Note Name: D5
Note ON: Time 111480, Note Name: D#5, Velocity: 46
Note OFF: Time 111600, Note Name: D#5
Note ON: Time 111600, Note Name: D5, Velocity: 46
Note OFF: Time 111720, Note Name: D5
Note ON: Time 111720, Note Name: C5, Velocity: 46
Note OFF: Time 111840, Note Name: C5
Note ON: Time 111840, Note Name: G5, Velocity: 74
Note ON: Time 111840, Note Name: B4, Velocity: 84
Note OFF: Time 111960, Note Name: G5
Note ON: Time 111960, Note Name: G#5, Velocity: 48
Note OFF: Time 112080, Note Name: G#5
Note ON: Time 112080, Note Name: G5, Velocity: 48
Note OFF: Time 112200, Note Name: G5
Note ON: Time 112200, Note Name: F5, Velocity: 48
Note OFF: Time 112320, Note Name: F5
Note OFF: Time 112320, Note Name: B4
Note ON: Time 112320, Note Name: C5, Velocity: 66
Note ON: Time 112320, Note Name: D#5, Velocity: 68
Note OFF: Time 112440, Note Name: D#5
Note ON: Time 112440, Note Name: F5, Velocity: 48
Note OFF: Time 112560, Note Name: F5
Note OFF: Time 112560, Note Name: C5
Note ON: Time 112560, Note Name: D#5, Velocity: 47
Note OFF: Time 112680, Note Name: D#5
Note ON: Time 112680, Note Name: D5, Velocity: 47
Note OFF: Time 112800, Note Name: D5
Note ON: Time 112800, Note Name: C5, Velocity: 63
Note ON: Time 112920, Note Name: B4, Velocity: 46
Note OFF: Time 113040, Note Name: B4
Note OFF: Time 113040, Note Name: C5
Note ON: Time 113040, Note Name: C5, Velocity: 46
Note OFF: Time 113160, Note Name: C5
Note ON: Time 113160, Note Name: D5, Velocity: 46
Note OFF: Time 113280, Note Name: D5
Note ON: Time 113280, Note Name: D#5, Velocity: 74
Note OFF: Time 113400, Note Name: D#5
Note ON: Time 113400, Note Name: F5, Velocity: 48
Note OFF: Time 113520, Note Name: F5
Note ON: Time 113520, Note Name: D#5, Velocity: 48
Note OFF: Time 113640, Note Name: D#5
Note ON: Time 113640, Note Name: D5, Velocity: 48
Note OFF: Time 113760, Note Name: D5
Note ON: Time 113760, Note Name: C5, Velocity: 68
Note OFF: Time 113880, Note Name: C5
Note ON: Time 113880, Note Name: D5, Velocity: 48
Note OFF: Time 114000, Note Name: D5
Note ON: Time 114000, Note Name: C5, Velocity: 47
Note OFF: Time 114120, Note Name: C5
Note ON: Time 114120, Note Name: A#4, Velocity: 47
Note OFF: Time 114240, Note Name: A#4
Note ON: Time 114240, Note Name: A4, Velocity: 63
Note OFF: Time 114360, Note Name: A4
Note ON: Time 114360, Note Name: A#4, Velocity: 46
Note OFF: Time 114480, Note Name: A#4
Note ON: Time 114480, Note Name: A4, Velocity: 46
Note OFF: Time 114600, Note Name: A4
Note ON: Time 114600, Note Name: G4, Velocity: 46
Note OFF: Time 114720, Note Name: G4
Note ON: Time 114720, Note Name: D5, Velocity: 74
Note ON: Time 114720, Note Name: F#4, Velocity: 79
Note OFF: Time 114840, Note Name: D5
Note ON: Time 114840, Note Name: D#5, Velocity: 48
Note OFF: Time 114960, Note Name: D#5
Note ON: Time 114960, Note Name: D5, Velocity: 48
Note OFF: Time 115080, Note Name: D5
Note ON: Time 115080, Note Name: C5, Velocity: 48
Note OFF: Time 115200, Note Name: C5
Note OFF: Time 115200, Note Name: F#4
Note ON: Time 115200, Note Name: G4, Velocity: 66
Note ON: Time 115200, Note Name: A#4, Velocity: 68
Note OFF: Time 115320, Note Name: A#4
Note ON: Time 115320, Note Name: C5, Velocity: 48
Note OFF: Time 115440, Note Name: C5
Note OFF: Time 115440, Note Name: G4
Note ON: Time 115440, Note Name: A#4, Velocity: 47
Note OFF: Time 115560, Note Name: A#4
Note ON: Time 115560, Note Name: A4, Velocity: 47
Note OFF: Time 115680, Note Name: A4
Note ON: Time 115680, Note Name: G4, Velocity: 63
Note OFF: Time 115800, Note Name: G4
Note ON: Time 115800, Note Name: F#4, Velocity: 46
Note OFF: Time 115920, Note Name: F#4
Note ON: Time 115920, Note Name: G4, Velocity: 46
Note OFF: Time 116040, Note Name: G4
Note ON: Time 116040, Note Name: A4, Velocity: 46
Note OFF: Time 116160, Note Name: A4
Note ON: Time 116160, Note Name: G4, Velocity: 59
Note ON: Time 116160, Note Name: A#4, Velocity: 59
Note ON: Time 116160, Note Name: D5, Velocity: 77
Note OFF: Time 117120, Note Name: D5
Note OFF: Time 117120, Note Name: A#4
Note OFF: Time 117120, Note Name: G4
Note ON: Time 117120, Note Name: G4, Velocity: 61
Note ON: Time 117120, Note Name: A#4, Velocity: 61
Note ON: Time 117120, Note Name: D5, Velocity: 61
Note ON: Time 117120, Note Name: G5, Velocity: 86
Note OFF: Time 118080, Note Name: D5
Note ON: Time 118080, Note Name: C5, Velocity: 71
Note ON: Time 118080, Note Name: D#5, Velocity: 80
Note OFF: Time 118200, Note Name: D#5
Note OFF: Time 118200, Note Name: C5
Note OFF: Time 118550, Note Name: G5
Note OFF: Time 118550, Note Name: G4
Note OFF: Time 118560, Note Name: A#4
Note ON: Time 118560, Note Name: C6, Velocity: 86
Note ON: Time 118560, Note Name: D#5, Velocity: 59
Note ON: Time 118560, Note Name: C5, Velocity: 66
Note OFF: Time 119040, Note Name: D#5
Note ON: Time 119040, Note Name: A5, Velocity: 69
Note OFF: Time 119510, Note Name: A5
Note ON: Time 119520, Note Name: F#5, Velocity: 74
Note ON: Time 119520, Note Name: A5, Velocity: 66
Note OFF: Time 119640, Note Name: A5
Note OFF: Time 119640, Note Name: C6
Note OFF: Time 119640, Note Name: C5
Note OFF: Time 119640, Note Name: F#5
Note ON: Time 120000, Note Name: G5, Velocity: 74
Note ON: Time 120000, Note Name: A#4, Velocity: 67
Note ON: Time 120000, Note Name: D5, Velocity: 67
Note ON: Time 120000, Note Name: A#5, Velocity: 88
Note OFF: Time 120240, Note Name: A#5
Note OFF: Time 120240, Note Name: G5
Note OFF: Time 120240, Note Name: A#4
Note OFF: Time 120240, Note Name: D5
Note ON: Time 120480, Note Name: A4, Velocity: 62
Note ON: Time 120480, Note Name: F#4, Velocity: 62
Note ON: Time 120480, Note Name: D5, Velocity: 70
Note ON: Time 120480, Note Name: F#5, Velocity: 83
Note OFF: Time 120720, Note Name: F#5
Note OFF: Time 120720, Note Name: A4
Note OFF: Time 120720, Note Name: F#4
Note OFF: Time 120720, Note Name: D5
Note ON: Time 120960, Note Name: A#4, Velocity: 67
Note ON: Time 120960, Note Name: G4, Velocity: 67
Note ON: Time 120960, Note Name: D5, Velocity: 74
Note ON: Time 120960, Note Name: G5, Velocity: 88
Note OFF: Time 121440, Note Name: G5
Note OFF: Time 121440, Note Name: A#4
Note OFF: Time 121440, Note Name: G4
Note OFF: Time 121440, Note Name: D5
Note ON: Time 121920, Note Name: G#5, Velocity: 74
Note OFF: Time 122040, Note Name: G#5
Note ON: Time 122040, Note Name: A#5, Velocity: 48
Note OFF: Time 122160, Note Name: A#5
Note ON: Time 122160, Note Name: G#5, Velocity: 48
Note OFF: Time 122280, Note Name: G#5
Note ON: Time 122280, Note Name: G5, Velocity: 48
Note OFF: Time 122400, Note Name: G5
Note ON: Time 122400, Note Name: F5, Velocity: 68
Note OFF: Time 122520, Note Name: F5
Note ON: Time 122520, Note Name: G5, Velocity: 48
Note OFF: Time 122640, Note Name: G5
Note ON: Time 122640, Note Name: F5, Velocity: 47
Note OFF: Time 122760, Note Name: F5
Note ON: Time 122760, Note Name: D#5, Velocity: 47
Note OFF: Time 122880, Note Name: D#5
Note ON: Time 122880, Note Name: D5, Velocity: 63
Note OFF: Time 123000, Note Name: D5
Note ON: Time 123000, Note Name: D#5, Velocity: 46
Note OFF: Time 123120, Note Name: D#5
Note ON: Time 123120, Note Name: D5, Velocity: 46
Note OFF: Time 123240, Note Name: D5
Note ON: Time 123240, Note Name: C5, Velocity: 46
Note OFF: Time 123360, Note Name: C5
Note ON: Time 123360, Note Name: G5, Velocity: 74
Note ON: Time 123360, Note Name: B4, Velocity: 84
Note OFF: Time 123480, Note Name: G5
Note ON: Time 123480, Note Name: G#5, Velocity: 48
Note OFF: Time 123600, Note Name: G#5
Note ON: Time 123600, Note Name: G5, Velocity: 48
Note OFF: Time 123720, Note Name: G5
Note ON: Time 123720, Note Name: F5, Velocity: 48
Note OFF: Time 123840, Note Name: F5
Note OFF: Time 123840, Note Name: B4
Note ON: Time 123840, Note Name: C5, Velocity: 66
Note ON: Time 123840, Note Name: D#5, Velocity: 68
Note OFF: Time 123960, Note Name: D#5
Note ON: Time 123960, Note Name: F5, Velocity: 48
Note OFF: Time 124080, Note Name: F5
Note OFF: Time 124080, Note Name: C5
Note ON: Time 124080, Note Name: D#5, Velocity: 47
Note OFF: Time 124200, Note Name: D#5
Note ON: Time 124200, Note Name: D5, Velocity: 47
Note OFF: Time 124320, Note Name: D5
Note ON: Time 124320, Note Name: C5, Velocity: 63
Note ON: Time 124440, Note Name: B4, Velocity: 46
Note OFF: Time 124560, Note Name: B4
Note OFF: Time 124560, Note Name: C5
Note ON: Time 124560, Note Name: C5, Velocity: 46
Note OFF: Time 124680, Note Name: C5
Note ON: Time 124680, Note Name: D5, Velocity: 46
Note OFF: Time 124800, Note Name: D5
Note ON: Time 124800, Note Name: D#5, Velocity: 74
Note OFF: Time 124920, Note Name: D#5
Note ON: Time 124920, Note Name: F5, Velocity: 48
Note OFF: Time 125040, Note Name: F5
Note ON: Time 125040, Note Name: D#5, Velocity: 48
Note OFF: Time 125160, Note Name: D#5
Note ON: Time 125160, Note Name: D5, Velocity: 48
Note OFF: Time 125280, Note Name: D5
Note ON: Time 125280, Note Name: C5, Velocity: 68
Note OFF: Time 125400, Note Name: C5
Note ON: Time 125400, Note Name: D5, Velocity: 48
Note OFF: Time 125520, Note Name: D5
Note ON: Time 125520, Note Name: C5, Velocity: 47
Note OFF: Time 125640, Note Name: C5
Note ON: Time 125640, Note Name: A#4, Velocity: 47
Note OFF: Time 125760, Note Name: A#4
Note ON: Time 125760, Note Name: A4, Velocity: 63
Note OFF: Time 125880, Note Name: A4
Note ON: Time 125880, Note Name: A#4, Velocity: 46
Note OFF: Time 126000, Note Name: A#4
Note ON: Time 126000, Note Name: A4, Velocity: 46
Note OFF: Time 126120, Note Name: A4
Note ON: Time 126120, Note Name: G4, Velocity: 46
Note OFF: Time 126240, Note Name: G4
Note ON: Time 126240, Note Name: D5, Velocity: 74
Note ON: Time 126240, Note Name: F#4, Velocity: 79
Note OFF: Time 126360, Note Name: D5
Note ON: Time 126360, Note Name: D#5, Velocity: 48
Note OFF: Time 126480, Note Name: D#5
Note ON: Time 126480, Note Name: D5, Velocity: 48
Note OFF: Time 126600, Note Name: D5
Note ON: Time 126600, Note Name: C5, Velocity: 48
Note OFF: Time 126720, Note Name: C5
Note OFF: Time 126720, Note Name: F#4
Note ON: Time 126720, Note Name: G4, Velocity: 66
Note ON: Time 126720, Note Name: A#4, Velocity: 68
Note OFF: Time 126840, Note Name: A#4
Note ON: Time 126840, Note Name: C5, Velocity: 48
Note OFF: Time 126960, Note Name: C5
Note OFF: Time 126960, Note Name: G4
Note ON: Time 126960, Note Name: A#4, Velocity: 47
Note OFF: Time 127080, Note Name: A#4
Note ON: Time 127080, Note Name: A4, Velocity: 47
Note OFF: Time 127200, Note Name: A4
Note ON: Time 127200, Note Name: G4, Velocity: 63
Note OFF: Time 127320, Note Name: G4
Note ON: Time 127320, Note Name: F#4, Velocity: 46
Note OFF: Time 127440, Note Name: F#4
Note ON: Time 127440, Note Name: G4, Velocity: 46
Note OFF: Time 127560, Note Name: G4
Note ON: Time 127560, Note Name: A4, Velocity: 46
Note OFF: Time 127680, Note Name: A4
Note ON: Time 127680, Note Name: G4, Velocity: 59
Note ON: Time 127680, Note Name: A#4, Velocity: 59
Note ON: Time 127680, Note Name: D5, Velocity: 77
Note OFF: Time 128640, Note Name: D5
Note OFF: Time 128640, Note Name: A#4
Note OFF: Time 128640, Note Name: G4
Note ON: Time 128640, Note Name: G4, Velocity: 61
Note ON: Time 128640, Note Name: A#4, Velocity: 61
Note ON: Time 128640, Note Name: D5, Velocity: 61
Note ON: Time 128640, Note Name: G5, Velocity: 86
Note OFF: Time 129600, Note Name: D5
Note ON: Time 129600, Note Name: C5, Velocity: 71
Note ON: Time 129600, Note Name: D#5, Velocity: 80
Note OFF: Time 129720, Note Name: D#5
Note OFF: Time 129720, Note Name: C5
Note OFF: Time 130070, Note Name: G5
Note OFF: Time 130070, Note Name: G4
Note OFF: Time 130080, Note Name: A#4
Note ON: Time 130080, Note Name: C6, Velocity: 86
Note ON: Time 130080, Note Name: D#5, Velocity: 59
Note ON: Time 130080, Note Name: C5, Velocity: 66
Note OFF: Time 130560, Note Name: D#5
Note ON: Time 130560, Note Name: A5, Velocity: 69
Note OFF: Time 131030, Note Name: A5
Note ON: Time 131040, Note Name: F#5, Velocity: 74
Note ON: Time 131040, Note Name: A5, Velocity: 66
Note OFF: Time 131160, Note Name: A5
Note OFF: Time 131160, Note Name: C6
Note OFF: Time 131160, Note Name: C5
Note OFF: Time 131160, Note Name: F#5
Note ON: Time 131520, Note Name: G5, Velocity: 74
Note ON: Time 131520, Note Name: A#4, Velocity: 67
Note ON: Time 131520, Note Name: D5, Velocity: 67
Note ON: Time 131520, Note Name: A#5, Velocity: 88
Note OFF: Time 131760, Note Name: A#5
Note OFF: Time 131760, Note Name: G5
Note OFF: Time 131760, Note Name: A#4
Note OFF: Time 131760, Note Name: D5
Note ON: Time 132000, Note Name: A4, Velocity: 62
Note ON: Time 132000, Note Name: F#4, Velocity: 62
Note ON: Time 132000, Note Name: D5, Velocity: 70
Note ON: Time 132000, Note Name: F#5, Velocity: 83
Note OFF: Time 132240, Note Name: F#5
Note OFF: Time 132240, Note Name: A4
Note OFF: Time 132240, Note Name: F#4
Note OFF: Time 132240, Note Name: D5
Note ON: Time 132480, Note Name: A#4, Velocity: 67
Note ON: Time 132480, Note Name: G4, Velocity: 67
Note ON: Time 132480, Note Name: D5, Velocity: 74
Note ON: Time 132480, Note Name: G5, Velocity: 88
Note OFF: Time 132960, Note Name: G5
Note OFF: Time 132960, Note Name: A#4
Note OFF: Time 132960, Note Name: G4
Note OFF: Time 132960, Note Name: D5
Note ON: Time 133440, Note Name: D4, Velocity: 50
Note OFF: Time 133800, Note Name: D4
Note ON: Time 133800, Note Name: D#4, Velocity: 46
Note OFF: Time 133920, Note Name: D#4
Note ON: Time 133920, Note Name: F4, Velocity: 50
Note OFF: Time 134850, Note Name: F4
Note ON: Time 134850, Note Name: A4, Velocity: 46
Note OFF: Time 134880, Note Name: A4
Note ON: Time 134880, Note Name: G4, Velocity: 50
Note OFF: Time 135000, Note Name: G4
Note ON: Time 135000, Note Name: F4, Velocity: 45
Note OFF: Time 135120, Note Name: F4
Note ON: Time 135120, Note Name: G4, Velocity: 50
Note OFF: Time 135240, Note Name: G4
Note ON: Time 135240, Note Name: A4, Velocity: 43
Note OFF: Time 135360, Note Name: A4
Note ON: Time 135360, Note Name: A#4, Velocity: 50
Note OFF: Time 135840, Note Name: A#4
Note ON: Time 135840, Note Name: F4, Velocity: 41
Note OFF: Time 136260, Note Name: F4
Note ON: Time 136290, Note Name: A4, Velocity: 43
Note OFF: Time 136320, Note Name: A4
Note ON: Time 136320, Note Name: G4, Velocity: 50
Note OFF: Time 136440, Note Name: G4
Note ON: Time 136440, Note Name: F4, Velocity: 46
Note OFF: Time 136560, Note Name: F4
Note ON: Time 136560, Note Name: G4, Velocity: 50
Note OFF: Time 136680, Note Name: G4
Note ON: Time 136680, Note Name: A4, Velocity: 50
Note OFF: Time 136800, Note Name: A4
Note ON: Time 136800, Note Name: A#4, Velocity: 50
Note OFF: Time 136860, Note Name: A#4
Note ON: Time 137160, Note Name: A4, Velocity: 46
Note OFF: Time 137220, Note Name: A4
Note ON: Time 137280, Note Name: A#4, Velocity: 56
Note OFF: Time 137340, Note Name: A#4
Note ON: Time 137640, Note Name: C5, Velocity: 48
Note OFF: Time 137700, Note Name: C5
Note ON: Time 137760, Note Name: D5, Velocity: 55
Note OFF: Time 137820, Note Name: D5
Note ON: Time 138120, Note Name: E5, Velocity: 59
Note OFF: Time 138180, Note Name: E5
Note ON: Time 138240, Note Name: A#4, Velocity: 53
Note ON: Time 138240, Note Name: E5, Velocity: 63
Note OFF: Time 138720, Note Name: E5
Note OFF: Time 138720, Note Name: A#4
Note ON: Time 138720, Note Name: A4, Velocity: 48
Note ON: Time 138720, Note Name: F5, Velocity: 57
Note OFF: Time 138960, Note Name: F5
Note OFF: Time 138960, Note Name: A4
Note ON: Time 139170, Note Name: F5, Velocity: 43
Note OFF: Time 139200, Note Name: F5
Note ON: Time 139200, Note Name: D#5, Velocity: 50
Note OFF: Time 139320, Note Name: D#5
Note ON: Time 139320, Note Name: D5, Velocity: 46
Note OFF: Time 139440, Note Name: D5
Note ON: Time 139440, Note Name: D#5, Velocity: 54
Note OFF: Time 139560, Note Name: D#5
Note ON: Time 139560, Note Name: F5, Velocity: 51
Note OFF: Time 139680, Note Name: F5
Note ON: Time 139680, Note Name: G5, Velocity: 59
Note OFF: Time 140160, Note Name: G5
Note ON: Time 140160, Note Name: C5, Velocity: 50
Note OFF: Time 140580, Note Name: C5
Note ON: Time 140610, Note Name: D5, Velocity: 43
Note OFF: Time 140640, Note Name: D5
Note ON: Time 140640, Note Name: C5, Velocity: 50
Note OFF: Time 140760, Note Name: C5
Note ON: Time 140760, Note Name: B4, Velocity: 46
Note OFF: Time 140880, Note Name: B4
Note ON: Time 140880, Note Name: C5, Velocity: 54
Note OFF: Time 141000, Note Name: C5
Note ON: Time 141000, Note Name: D5, Velocity: 51
Note OFF: Time 141120, Note Name: D5
Note ON: Time 141120, Note Name: D#5, Velocity: 59
Note OFF: Time 141600, Note Name: D#5
Note ON: Time 141600, Note Name: A4, Velocity: 50
Note OFF: Time 142020, Note Name: A4
Note ON: Time 142050, Note Name: A#4, Velocity: 43
Note OFF: Time 142080, Note Name: A#4
Note ON: Time 142080, Note Name: A4, Velocity: 50
Note OFF: Time 142200, Note Name: A4
Note ON: Time 142200, Note Name: G4, Velocity: 46
Note OFF: Time 142320, Note Name: G4
Note ON: Time 142320, Note Name: A4, Velocity: 52
Note OFF: Time 142440, Note Name: A4
Note ON: Time 142440, Note Name: A#4, Velocity: 48
Note OFF: Time 142520, Note Name: A#4
Note ON: Time 142530, Note Name: D5, Velocity: 43
Note OFF: Time 142560, Note Name: D5
Note ON: Time 142560, Note Name: C5, Velocity: 53
Note OFF: Time 142680, Note Name: C5
Note ON: Time 142680, Note Name: B4, Velocity: 50
Note OFF: Time 142800, Note Name: B4
Note ON: Time 142800, Note Name: C5, Velocity: 54
Note OFF: Time 142920, Note Name: C5
Note ON: Time 142920, Note Name: D5, Velocity: 51
Note OFF: Time 143000, Note Name: D5
Note ON: Time 143010, Note Name: F5, Velocity: 43
Note OFF: Time 143040, Note Name: F5
Note ON: Time 143040, Note Name: D#5, Velocity: 57
Note OFF: Time 143160, Note Name: D#5
Note ON: Time 143160, Note Name: D5, Velocity: 52
Note OFF: Time 143280, Note Name: D5
Note ON: Time 143280, Note Name: D#5, Velocity: 58
Note OFF: Time 143400, Note Name: D#5
Note ON: Time 143400, Note Name: F5, Velocity: 55
Note OFF: Time 143520, Note Name: F5
Note ON: Time 143520, Note Name: G5, Velocity: 64
Note OFF: Time 143580, Note Name: G5
Note ON: Time 143880, Note Name: A4, Velocity: 42
Note OFF: Time 144000, Note Name: A4
Note ON: Time 144000, Note Name: C5, Velocity: 50
Note OFF: Time 144480, Note Name: C5
Note ON: Time 144480, Note Name: A#4, Velocity: 44
Note OFF: Time 144720, Note Name: A#4
Note ON: Time 144960, Note Name: A4, Velocity: 38
Note ON: Time 144960, Note Name: D5, Velocity: 46
Note OFF: Time 145080, Note Name: D5
Note OFF: Time 145080, Note Name: A4
Note ON: Time 145080, Note Name: A#4, Velocity: 34
Note ON: Time 145080, Note Name: C#5, Velocity: 41
Note OFF: Time 145200, Note Name: C#5
Note OFF: Time 145200, Note Name: A#4
Note ON: Time 145200, Note Name: A4, Velocity: 41
Note ON: Time 145200, Note Name: D5, Velocity: 49
Note OFF: Time 145320, Note Name: D5
Note OFF: Time 145320, Note Name: A4
Note ON: Time 145320, Note Name: A#4, Velocity: 34
Note ON: Time 145320, Note Name: C#5, Velocity: 40
Note OFF: Time 145440, Note Name: C#5
Note OFF: Time 145440, Note Name: A#4
Note ON: Time 145440, Note Name: A4, Velocity: 45
Note ON: Time 145440, Note Name: D5, Velocity: 53
Note OFF: Time 145560, Note Name: D5
Note OFF: Time 145560, Note Name: A4
Note ON: Time 145560, Note Name: A#4, Velocity: 40
Note ON: Time 145560, Note Name: C#5, Velocity: 49
Note OFF: Time 145680, Note Name: C#5
Note OFF: Time 145680, Note Name: A#4
Note ON: Time 145680, Note Name: A4, Velocity: 48
Note ON: Time 145680, Note Name: D5, Velocity: 57
Note OFF: Time 145800, Note Name: D5
Note OFF: Time 145800, Note Name: A4
Note ON: Time 145800, Note Name: A#4, Velocity: 39
Note ON: Time 145800, Note Name: C#5, Velocity: 46
Note OFF: Time 145920, Note Name: C#5
Note OFF: Time 145920, Note Name: A#4
Note ON: Time 145920, Note Name: A4, Velocity: 52
Note ON: Time 145920, Note Name: D5, Velocity: 62
Note OFF: Time 146040, Note Name: D5
Note OFF: Time 146040, Note Name: A4
Note ON: Time 146040, Note Name: A#4, Velocity: 47
Note ON: Time 146040, Note Name: C#5, Velocity: 56
Note OFF: Time 146160, Note Name: C#5
Note OFF: Time 146160, Note Name: A#4
Note ON: Time 146160, Note Name: A4, Velocity: 55
Note ON: Time 146160, Note Name: D5, Velocity: 66
Note OFF: Time 146280, Note Name: D5
Note OFF: Time 146280, Note Name: A4
Note ON: Time 146280, Note Name: A#4, Velocity: 46
Note ON: Time 146280, Note Name: C#5, Velocity: 54
Note OFF: Time 146400, Note Name: C#5
Note OFF: Time 146400, Note Name: A#4
Note ON: Time 146400, Note Name: A4, Velocity: 59
Note ON: Time 146400, Note Name: D5, Velocity: 70
Note OFF: Time 146520, Note Name: D5
Note OFF: Time 146520, Note Name: A4
Note ON: Time 146520, Note Name: A#4, Velocity: 53
Note ON: Time 146520, Note Name: C#5, Velocity: 63
Note OFF: Time 146640, Note Name: C#5
Note OFF: Time 146640, Note Name: A#4
Note ON: Time 146640, Note Name: A4, Velocity: 63
Note ON: Time 146640, Note Name: D5, Velocity: 74
Note OFF: Time 146760, Note Name: D5
Note OFF: Time 146760, Note Name: A4
Note ON: Time 146760, Note Name: A#4, Velocity: 52
Note ON: Time 146760, Note Name: C#5, Velocity: 61
Note OFF: Time 146880, Note Name: C#5
Note OFF: Time 146880, Note Name: A#4
Note ON: Time 146880, Note Name: A4, Velocity: 82
Note ON: Time 146880, Note Name: D5, Velocity: 82
Note OFF: Time 147120, Note Name: D5
Note OFF: Time 147120, Note Name: A4
Note ON: Time 147360, Note Name: D6, Velocity: 100
Note ON: Time 147360, Note Name: F#5, Velocity: 84
Note OFF: Time 148080, Note Name: F#5
Note OFF: Time 148080, Note Name: D6
Note ON: Time 148080, Note Name: C6, Velocity: 75
Note ON: Time 148080, Note Name: F#5, Velocity: 63
Note OFF: Time 148200, Note Name: F#5
Note OFF: Time 148200, Note Name: C6
Note ON: Time 148320, Note Name: A#5, Velocity: 91
Note ON: Time 148320, Note Name: G5, Velocity: 77
Note OFF: Time 148560, Note Name: G5
Note OFF: Time 148560, Note Name: A#5
Note ON: Time 148680, Note Name: A5, Velocity: 73
Note ON: Time 148680, Note Name: D#5, Velocity: 61
Note OFF: Time 148740, Note Name: D#5
Note OFF: Time 148740, Note Name: A5
Note ON: Time 148800, Note Name: A#4, Velocity: 72
Note ON: Time 148800, Note Name: G5, Velocity: 85
Note OFF: Time 149040, Note Name: G5
Note OFF: Time 149040, Note Name: A#4
Note ON: Time 149280, Note Name: C5, Velocity: 69
Note ON: Time 149280, Note Name: F#5, Velocity: 81
Note OFF: Time 149520, Note Name: F#5
Note OFF: Time 149520, Note Name: C5
Note ON: Time 149760, Note Name: C5, Velocity: 69
Note ON: Time 149760, Note Name: A5, Velocity: 82
Note OFF: Time 150240, Note Name: A5
Note OFF: Time 150240, Note Name: C5
Note ON: Time 150240, Note Name: A#4, Velocity: 61
Note ON: Time 150240, Note Name: G5, Velocity: 72
Note OFF: Time 150480, Note Name: G5
Note OFF: Time 150480, Note Name: A#4
Note ON: Time 150720, Note Name: G#3, Velocity: 25
Note ON: Time 150720, Note Name: A#3, Velocity: 30
Note ON: Time 150840, Note Name: B3, Velocity: 27
Note OFF: Time 150841, Note Name: A#3
Note OFF: Time 150841, Note Name: G#3
Note ON: Time 150960, Note Name: G#3, Velocity: 27
Note ON: Time 150960, Note Name: A#3, Velocity: 33
Note OFF: Time 150961, Note Name: B3
Note ON: Time 151080, Note Name: B3, Velocity: 27
Note OFF: Time 151081, Note Name: A#3
Note OFF: Time 151081, Note Name: G#3
Note ON: Time 151200, Note Name: G#3, Velocity: 29
Note ON: Time 151200, Note Name: A#3, Velocity: 35
Note OFF: Time 151201, Note Name: B3
Note ON: Time 151320, Note Name: B3, Velocity: 32
Note OFF: Time 151321, Note Name: A#3
Note OFF: Time 151321, Note Name: G#3
Note ON: Time 151440, Note Name: G#3, Velocity: 32
Note ON: Time 151440, Note Name: A#3, Velocity: 37
Note OFF: Time 151441, Note Name: B3
Note ON: Time 151560, Note Name: B3, Velocity: 30
Note OFF: Time 151561, Note Name: A#3
Note OFF: Time 151561, Note Name: G#3
Note ON: Time 151680, Note Name: G#3, Velocity: 34
Note ON: Time 151680, Note Name: A#3, Velocity: 41
Note OFF: Time 151681, Note Name: B3
Note ON: Time 151800, Note Name: B3, Velocity: 38
Note OFF: Time 151801, Note Name: A#3
Note OFF: Time 151801, Note Name: G#3
Note ON: Time 151920, Note Name: G#3, Velocity: 37
Note ON: Time 151920, Note Name: A#3, Velocity: 44
Note OFF: Time 151921, Note Name: B3
Note ON: Time 152040, Note Name: B3, Velocity: 35
Note OFF: Time 152041, Note Name: A#3
Note OFF: Time 152041, Note Name: G#3
Note ON: Time 152160, Note Name: G#3, Velocity: 39
Note ON: Time 152160, Note Name: A#3, Velocity: 46
Note OFF: Time 152161, Note Name: B3
Note ON: Time 152280, Note Name: B3, Velocity: 42
Note OFF: Time 152281, Note Name: A#3
Note OFF: Time 152281, Note Name: G#3
Note ON: Time 152400, Note Name: G#3, Velocity: 41
Note ON: Time 152400, Note Name: A#3, Velocity: 49
Note OFF: Time 152401, Note Name: B3
Note ON: Time 152520, Note Name: B3, Velocity: 41
Note OFF: Time 152521, Note Name: A#3
Note OFF: Time 152521, Note Name: G#3
Note ON: Time 152640, Note Name: G#3, Velocity: 65
Note ON: Time 152640, Note Name: A#3, Velocity: 65
Note OFF: Time 152641, Note Name: B3
Note OFF: Time 152880, Note Name: A#3
Note OFF: Time 152880, Note Name: G#3
Note ON: Time 153120, Note Name: G#5, Velocity: 85
Note ON: Time 153120, Note Name: B4, Velocity: 72
Note OFF: Time 153840, Note Name: B4
Note OFF: Time 153840, Note Name: G#5
Note ON: Time 153840, Note Name: G5, Velocity: 59
Note ON: Time 153840, Note Name: C5, Velocity: 49
Note OFF: Time 154080, Note Name: C5
Note OFF: Time 154080, Note Name: G5
Note ON: Time 154080, Note Name: F5, Velocity: 70
Note ON: Time 154080, Note Name: G#4, Velocity: 58
Note OFF: Time 154440, Note Name: G#4
Note OFF: Time 154440, Note Name: F5
Note ON: Time 154440, Note Name: D#5, Velocity: 53
Note ON: Time 154440, Note Name: G4, Velocity: 45
Note OFF: Time 154560, Note Name: G4
Note OFF: Time 154560, Note Name: D#5
Note ON: Time 154560, Note Name: F4, Velocity: 52
Note ON: Time 154560, Note Name: D5, Velocity: 61
Note OFF: Time 155040, Note Name: D5
Note OFF: Time 155040, Note Name: F4
Note ON: Time 155040, Note Name: D#4, Velocity: 46
Note ON: Time 155040, Note Name: C5, Velocity: 54
Note OFF: Time 155520, Note Name: C5
Note OFF: Time 155520, Note Name: D#4
Note ON: Time 155520, Note Name: D4, Velocity: 40
Note ON: Time 155520, Note Name: A#4, Velocity: 48
Note OFF: Time 156000, Note Name: A#4
Note OFF: Time 156000, Note Name: D4
Note ON: Time 156000, Note Name: C4, Velocity: 36
Note ON: Time 156000, Note Name: A4, Velocity: 42
Note OFF: Time 156240, Note Name: A4
Note OFF: Time 156240, Note Name: C4
Note ON: Time 156480, Note Name: D4, Velocity: 50
Note OFF: Time 156840, Note Name: D4
Note ON: Time 156840, Note Name: D#4, Velocity: 46
Note OFF: Time 156960, Note Name: D#4
Note ON: Time 156960, Note Name: F4, Velocity: 50
Note OFF: Time 157890, Note Name: F4
Note ON: Time 157890, Note Name: A4, Velocity: 46
Note OFF: Time 157920, Note Name: A4
Note ON: Time 157920, Note Name: G4, Velocity: 50
Note OFF: Time 158040, Note Name: G4
Note ON: Time 158040, Note Name: F4, Velocity: 45
Note OFF: Time 158160, Note Name: F4
Note ON: Time 158160, Note Name: G4, Velocity: 50
Note OFF: Time 158280, Note Name: G4
Note ON: Time 158280, Note Name: A4, Velocity: 43
Note OFF: Time 158400, Note Name: A4
Note ON: Time 158400, Note Name: A#4, Velocity: 50
Note OFF: Time 158880, Note Name: A#4
Note ON: Time 158880, Note Name: F4, Velocity: 41
Note OFF: Time 159300, Note Name: F4
Note ON: Time 159330, Note Name: A4, Velocity: 43
Note OFF: Time 159360, Note Name: A4
Note ON: Time 159360, Note Name: G4, Velocity: 50
Note OFF: Time 159480, Note Name: G4
Note ON: Time 159480, Note Name: F4, Velocity: 46
Note OFF: Time 159600, Note Name: F4
Note ON: Time 159600, Note Name: G4, Velocity: 50
Note OFF: Time 159720, Note Name: G4
Note ON: Time 159720, Note Name: A4, Velocity: 50
Note OFF: Time 159840, Note Name: A4
Note ON: Time 159840, Note Name: A#4, Velocity: 50
Note OFF: Time 159900, Note Name: A#4
Note ON: Time 160200, Note Name: A4, Velocity: 46
Note OFF: Time 160260, Note Name: A4
Note ON: Time 160320, Note Name: A#4, Velocity: 56
Note OFF: Time 160380, Note Name: A#4
Note ON: Time 160680, Note Name: C5, Velocity: 48
Note OFF: Time 160740, Note Name: C5
Note ON: Time 160800, Note Name: D5, Velocity: 55
Note OFF: Time 160860, Note Name: D5
Note ON: Time 161160, Note Name: E5, Velocity: 59
Note OFF: Time 161220, Note Name: E5
Note ON: Time 161280, Note Name: A#4, Velocity: 53
Note ON: Time 161280, Note Name: E5, Velocity: 63
Note OFF: Time 161760, Note Name: E5
Note OFF: Time 161760, Note Name: A#4
Note ON: Time 161760, Note Name: A4, Velocity: 48
Note ON: Time 161760, Note Name: F5, Velocity: 57
Note OFF: Time 162000, Note Name: F5
Note OFF: Time 162000, Note Name: A4
Note ON: Time 162210, Note Name: F5, Velocity: 43
Note OFF: Time 162240, Note Name: F5
Note ON: Time 162240, Note Name: D#5, Velocity: 50
Note OFF: Time 162360, Note Name: D#5
Note ON: Time 162360, Note Name: D5, Velocity: 46
Note OFF: Time 162480, Note Name: D5
Note ON: Time 162480, Note Name: D#5, Velocity: 54
Note OFF: Time 162600, Note Name: D#5
Note ON: Time 162600, Note Name: F5, Velocity: 51
Note OFF: Time 162720, Note Name: F5
Note ON: Time 162720, Note Name: G5, Velocity: 59
Note OFF: Time 163200, Note Name: G5
Note ON: Time 163200, Note Name: C5, Velocity: 50
Note OFF: Time 163620, Note Name: C5
Note ON: Time 163650, Note Name: D5, Velocity: 43
Note OFF: Time 163680, Note Name: D5
Note ON: Time 163680, Note Name: C5, Velocity: 50
Note OFF: Time 163800, Note Name: C5
Note ON: Time 163800, Note Name: B4, Velocity: 46
Note OFF: Time 163920, Note Name: B4
Note ON: Time 163920, Note Name: C5, Velocity: 54
Note OFF: Time 164040, Note Name: C5
Note ON: Time 164040, Note Name: D5, Velocity: 51
Note OFF: Time 164160, Note Name: D5
Note ON: Time 164160, Note Name: D#5, Velocity: 59
Note OFF: Time 164640, Note Name: D#5
Note ON: Time 164640, Note Name: A4, Velocity: 50
Note OFF: Time 165060, Note Name: A4
Note ON: Time 165090, Note Name: A#4, Velocity: 43
Note OFF: Time 165120, Note Name: A#4
Note ON: Time 165120, Note Name: A4, Velocity: 50
Note OFF: Time 165240, Note Name: A4
Note ON: Time 165240, Note Name: G4, Velocity: 46
Note OFF: Time 165360, Note Name: G4
Note ON: Time 165360, Note Name: A4, Velocity: 52
Note OFF: Time 165480, Note Name: A4
Note ON: Time 165480, Note Name: A#4, Velocity: 48
Note OFF: Time 165560, Note Name: A#4
Note ON: Time 165570, Note Name: D5, Velocity: 43
Note OFF: Time 165600, Note Name: D5
Note ON: Time 165600, Note Name: C5, Velocity: 53
Note OFF: Time 165720, Note Name: C5
Note ON: Time 165720, Note Name: B4, Velocity: 50
Note OFF: Time 165840, Note Name: B4
Note ON: Time 165840, Note Name: C5, Velocity: 54
Note OFF: Time 165960, Note Name: C5
Note ON: Time 165960, Note Name: D5, Velocity: 51
Note OFF: Time 166040, Note Name: D5
Note ON: Time 166050, Note Name: F5, Velocity: 43
Note OFF: Time 166080, Note Name: F5
Note ON: Time 166080, Note Name: D#5, Velocity: 57
Note OFF: Time 166200, Note Name: D#5
Note ON: Time 166200, Note Name: D5, Velocity: 52
Note OFF: Time 166320, Note Name: D5
Note ON: Time 166320, Note Name: D#5, Velocity: 58
Note OFF: Time 166440, Note Name: D#5
Note ON: Time 166440, Note Name: F5, Velocity: 55
Note OFF: Time 166560, Note Name: F5
Note ON: Time 166560, Note Name: G5, Velocity: 61
Note OFF: Time 166680, Note Name: G5
Note ON: Time 166680, Note Name: D#5, Velocity: 59
Note OFF: Time 166800, Note Name: D#5
Note ON: Time 166800, Note Name: C5, Velocity: 52
Note OFF: Time 166920, Note Name: C5
Note ON: Time 166920, Note Name: A4, Velocity: 42
Note OFF: Time 167040, Note Name: A4
Note ON: Time 167040, Note Name: A#4, Velocity: 50
Note OFF: Time 167520, Note Name: A#4
Note ON: Time 167970, Note Name: A5, Velocity: 46
Note OFF: Time 168000, Note Name: A5
Note ON: Time 168000, Note Name: G5, Velocity: 50
Note OFF: Time 168120, Note Name: G5
Note ON: Time 168120, Note Name: F#5, Velocity: 45
Note OFF: Time 168240, Note Name: F#5
Note ON: Time 168240, Note Name: G5, Velocity: 50
Note OFF: Time 168360, Note Name: G5
Note ON: Time 168360, Note Name: A5, Velocity: 43
Note OFF: Time 168480, Note Name: A5
Note ON: Time 168480, Note Name: A#5, Velocity: 50
Note OFF: Time 168960, Note Name: A#5
Note ON: Time 168960, Note Name: F5, Velocity: 41
Note OFF: Time 169380, Note Name: F5
Note ON: Time 169410, Note Name: A4, Velocity: 43
Note OFF: Time 169440, Note Name: A4
Note ON: Time 169440, Note Name: D#5, Velocity: 41
Note ON: Time 169440, Note Name: G4, Velocity: 50
Note OFF: Time 169560, Note Name: G4
Note ON: Time 169560, Note Name: F4, Velocity: 46
Note OFF: Time 169680, Note Name: F4
Note ON: Time 169680, Note Name: G4, Velocity: 50
Note OFF: Time 169800, Note Name: G4
Note ON: Time 169800, Note Name: A4, Velocity: 46
Note OFF: Time 169920, Note Name: A4
Note OFF: Time 169920, Note Name: D#5
Note ON: Time 169920, Note Name: D5, Velocity: 44
Note ON: Time 169920, Note Name: A#4, Velocity: 50
Note OFF: Time 170400, Note Name: A#4
Note OFF: Time 170400, Note Name: D5
Note ON: Time 170400, Note Name: F4, Velocity: 41
Note OFF: Time 170640, Note Name: F4
Note ON: Time 170850, Note Name: A4, Velocity: 43
Note OFF: Time 170880, Note Name: A4
Note ON: Time 170880, Note Name: G4, Velocity: 50
Note OFF: Time 171000, Note Name: G4
Note ON: Time 171000, Note Name: F#4, Velocity: 46
Note OFF: Time 171120, Note Name: F#4
Note ON: Time 171120, Note Name: G4, Velocity: 50
Note OFF: Time 171240, Note Name: G4
Note ON: Time 171240, Note Name: A4, Velocity: 46
Note OFF: Time 171360, Note Name: A4
Note ON: Time 171360, Note Name: A#4, Velocity: 50
Note OFF: Time 171840, Note Name: A#4
Note ON: Time 171840, Note Name: F4, Velocity: 41
Note OFF: Time 172260, Note Name: F4
Note ON: Time 172290, Note Name: A3, Velocity: 36
Note OFF: Time 172320, Note Name: A3
Note ON: Time 172320, Note Name: D#4, Velocity: 34
Note ON: Time 172320, Note Name: G3, Velocity: 42
Note OFF: Time 172440, Note Name: G3
Note ON: Time 172440, Note Name: F3, Velocity: 39
Note OFF: Time 172560, Note Name: F3
Note ON: Time 172560, Note Name: G3, Velocity: 42
Note OFF: Time 172680, Note Name: G3
Note ON: Time 172680, Note Name: A3, Velocity: 39
Note OFF: Time 172800, Note Name: A3
Note OFF: Time 172800, Note Name: D#4
Note ON: Time 172800, Note Name: D4, Velocity: 34
Note ON: Time 172800, Note Name: A#3, Velocity: 42
Note OFF: Time 173040, Note Name: A#3
Note ON: Time 173040, Note Name: F3, Velocity: 33
Note OFF: Time 173240, Note Name: F3
Note ON: Time 173250, Note Name: A3, Velocity: 37
Note OFF: Time 173280, Note Name: A3
Note OFF: Time 173280, Note Name: D4
Note ON: Time 173280, Note Name: D#4, Velocity: 39
Note ON: Time 173280, Note Name: G3, Velocity: 43
Note OFF: Time 173400, Note Name: G3
Note ON: Time 173400, Note Name: F3, Velocity: 40
Note OFF: Time 173520, Note Name: F3
Note ON: Time 173520, Note Name: G3, Velocity: 44
Note OFF: Time 173640, Note Name: G3
Note ON: Time 173640, Note Name: A3, Velocity: 40
Note OFF: Time 173760, Note Name: A3
Note OFF: Time 173760, Note Name: D#4
Note ON: Time 173760, Note Name: D4, Velocity: 36
Note ON: Time 173760, Note Name: A#3, Velocity: 44
Note OFF: Time 174000, Note Name: A#3
Note ON: Time 174000, Note Name: F3, Velocity: 34
Note OFF: Time 174180, Note Name: F3
Note ON: Time 174210, Note Name: A3, Velocity: 39
Note OFF: Time 174240, Note Name: A3
Note OFF: Time 174240, Note Name: D4
Note ON: Time 174240, Note Name: D#4, Velocity: 44
Note ON: Time 174240, Note Name: G3, Velocity: 46
Note OFF: Time 174360, Note Name: G3
Note ON: Time 174360, Note Name: F3, Velocity: 43
Note OFF: Time 174480, Note Name: F3
Note ON: Time 174480, Note Name: G3, Velocity: 47
Note OFF: Time 174600, Note Name: G3
Note ON: Time 174600, Note Name: A3, Velocity: 44
Note OFF: Time 174720, Note Name: A3
Note OFF: Time 174720, Note Name: D#4
Note ON: Time 174720, Note Name: D4, Velocity: 42
Note ON: Time 174720, Note Name: A#3, Velocity: 48
Note OFF: Time 174840, Note Name: A#3
Note ON: Time 174840, Note Name: F3, Velocity: 41
Note OFF: Time 174960, Note Name: F3
Note OFF: Time 174960, Note Name: D4
Note ON: Time 174960, Note Name: D#4, Velocity: 40
Note ON: Time 174960, Note Name: A3, Velocity: 50
Note OFF: Time 175080, Note Name: A3
Note ON: Time 175080, Note Name: F3, Velocity: 43
Note OFF: Time 175200, Note Name: F3
Note OFF: Time 175200, Note Name: D#4
Note ON: Time 175200, Note Name: D4, Velocity: 49
Note ON: Time 175200, Note Name: A#3, Velocity: 51
Note OFF: Time 175320, Note Name: A#3
Note ON: Time 175320, Note Name: F3, Velocity: 46
Note OFF: Time 175440, Note Name: F3
Note OFF: Time 175440, Note Name: D4
Note ON: Time 175440, Note Name: D#4, Velocity: 42
Note ON: Time 175440, Note Name: A3, Velocity: 52
Note OFF: Time 175560, Note Name: A3
Note ON: Time 175560, Note Name: F3, Velocity: 47
Note OFF: Time 175680, Note Name: F3
Note OFF: Time 175680, Note Name: D#4
Note ON: Time 175680, Note Name: A#3, Velocity: 34
Note ON: Time 175680, Note Name: D4, Velocity: 40
Note OFF: Time 175800, Note Name: D4
Note OFF: Time 175800, Note Name: A#3
Note ON: Time 176160, Note Name: D4, Velocity: 34
Note ON: Time 176160, Note Name: A#4, Velocity: 40
Note OFF: Time 176280, Note Name: A#4
Note OFF: Time 176280, Note Name: D4
Track 2: Piano left
Note ON: Time 1440, Note Name: A#2, Velocity: 40
Note OFF: Time 1560, Note Name: A#2
Note ON: Time 1680, Note Name: A#3, Velocity: 29
Note OFF: Time 1920, Note Name: A#3
Note ON: Time 1920, Note Name: D4, Velocity: 34
Note OFF: Time 2160, Note Name: D4
Note ON: Time 2160, Note Name: A#3, Velocity: 29
Note OFF: Time 2400, Note Name: A#3
Note ON: Time 2400, Note Name: D#4, Velocity: 34
Note OFF: Time 2640, Note Name: D#4
Note ON: Time 2640, Note Name: C4, Velocity: 31
Note OFF: Time 2880, Note Name: C4
Note ON: Time 2880, Note Name: D4, Velocity: 40
Note OFF: Time 3120, Note Name: D4
Note ON: Time 3120, Note Name: C#4, Velocity: 30
Note OFF: Time 3360, Note Name: C#4
Note ON: Time 3360, Note Name: D4, Velocity: 34
Note OFF: Time 3600, Note Name: D4
Note ON: Time 3600, Note Name: A#3, Velocity: 30
Note OFF: Time 3840, Note Name: A#3
Note ON: Time 3840, Note Name: D#4, Velocity: 34
Note OFF: Time 4080, Note Name: D#4
Note ON: Time 4080, Note Name: C4, Velocity: 29
Note OFF: Time 4320, Note Name: C4
Note ON: Time 4320, Note Name: D4, Velocity: 40
Note OFF: Time 4560, Note Name: D4
Note ON: Time 4560, Note Name: C#4, Velocity: 30
Note OFF: Time 4800, Note Name: C#4
Note ON: Time 4800, Note Name: D4, Velocity: 34
Note OFF: Time 5040, Note Name: D4
Note ON: Time 5040, Note Name: A3, Velocity: 30
Note OFF: Time 5280, Note Name: A3
Note ON: Time 5280, Note Name: A#3, Velocity: 34
Note OFF: Time 5520, Note Name: A#3
Note ON: Time 5520, Note Name: G3, Velocity: 30
Note OFF: Time 5750, Note Name: G3
Note ON: Time 5760, Note Name: F3, Velocity: 40
Note ON: Time 6240, Note Name: F4, Velocity: 35
Note OFF: Time 6480, Note Name: F4
Note OFF: Time 6480, Note Name: F3
Note ON: Time 7440, Note Name: F3, Velocity: 36
Note ON: Time 7680, Note Name: A3, Velocity: 40
Note OFF: Time 7920, Note Name: A3
Note ON: Time 7920, Note Name: C4, Velocity: 37
Note OFF: Time 8160, Note Name: C4
Note ON: Time 8160, Note Name: D#4, Velocity: 40
Note OFF: Time 8880, Note Name: D#4
Note OFF: Time 8880, Note Name: F3
Note ON: Time 8880, Note Name: F3, Velocity: 42
Note ON: Time 9120, Note Name: C4, Velocity: 48
Note OFF: Time 9360, Note Name: C4
Note ON: Time 9360, Note Name: D#4, Velocity: 41
Note OFF: Time 9600, Note Name: D#4
Note ON: Time 9600, Note Name: F#4, Velocity: 55
Note OFF: Time 10560, Note Name: F#4
Note OFF: Time 10560, Note Name: F3
Note ON: Time 10560, Note Name: F4, Velocity: 38
Note ON: Time 10560, Note Name: F3, Velocity: 38
Note OFF: Time 11040, Note Name: F3
Note OFF: Time 11040, Note Name: F4
Note ON: Time 11040, Note Name: F3, Velocity: 32
Note ON: Time 11040, Note Name: D#4, Velocity: 32
Note OFF: Time 11520, Note Name: D#4
Note OFF: Time 11520, Note Name: F3
Note ON: Time 11520, Note Name: A#3, Velocity: 30
Note ON: Time 11520, Note Name: D#4, Velocity: 36
Note OFF: Time 12000, Note Name: D#4
Note ON: Time 12000, Note Name: D4, Velocity: 32
Note OFF: Time 12240, Note Name: D4
Note OFF: Time 12240, Note Name: A#3
Note ON: Time 12960, Note Name: A#2, Velocity: 40
Note OFF: Time 13080, Note Name: A#2
Note ON: Time 13200, Note Name: A#3, Velocity: 29
Note OFF: Time 13440, Note Name: A#3
Note ON: Time 13440, Note Name: D4, Velocity: 34
Note OFF: Time 13680, Note Name: D4
Note ON: Time 13680, Note Name: A#3, Velocity: 29
Note OFF: Time 13920, Note Name: A#3
Note ON: Time 13920, Note Name: D#4, Velocity: 34
Note OFF: Time 14160, Note Name: D#4
Note ON: Time 14160, Note Name: C4, Velocity: 31
Note OFF: Time 14400, Note Name: C4
Note ON: Time 14400, Note Name: D4, Velocity: 40
Note OFF: Time 14640, Note Name: D4
Note ON: Time 14640, Note Name: C#4, Velocity: 30
Note OFF: Time 14880, Note Name: C#4
Note ON: Time 14880, Note Name: D4, Velocity: 34
Note OFF: Time 15120, Note Name: D4
Note ON: Time 15120, Note Name: A#3, Velocity: 30
Note OFF: Time 15360, Note Name: A#3
Note ON: Time 15360, Note Name: D#4, Velocity: 34
Note OFF: Time 15600, Note Name: D#4
Note ON: Time 15600, Note Name: C4, Velocity: 29
Note OFF: Time 15840, Note Name: C4
Note ON: Time 15840, Note Name: D4, Velocity: 40
Note OFF: Time 16080, Note Name: D4
Note ON: Time 16080, Note Name: C#4, Velocity: 30
Note OFF: Time 16320, Note Name: C#4
Note ON: Time 16320, Note Name: D4, Velocity: 34
Note OFF: Time 16560, Note Name: D4
Note ON: Time 16560, Note Name: A3, Velocity: 30
Note OFF: Time 16800, Note Name: A3
Note ON: Time 16800, Note Name: A#3, Velocity: 34
Note OFF: Time 17040, Note Name: A#3
Note ON: Time 17040, Note Name: G3, Velocity: 30
Note OFF: Time 17270, Note Name: G3
Note ON: Time 17280, Note Name: F3, Velocity: 40
Note ON: Time 17760, Note Name: F4, Velocity: 35
Note OFF: Time 18000, Note Name: F4
Note OFF: Time 18000, Note Name: F3
Note ON: Time 18960, Note Name: F3, Velocity: 36
Note ON: Time 19200, Note Name: A3, Velocity: 40
Note OFF: Time 19440, Note Name: A3
Note ON: Time 19440, Note Name: C4, Velocity: 37
Note OFF: Time 19680, Note Name: C4
Note ON: Time 19680, Note Name: D#4, Velocity: 40
Note OFF: Time 20400, Note Name: D#4
Note OFF: Time 20400, Note Name: F3
Note ON: Time 20400, Note Name: F3, Velocity: 42
Note ON: Time 20640, Note Name: C4, Velocity: 48
Note OFF: Time 20880, Note Name: C4
Note ON: Time 20880, Note Name: D#4, Velocity: 41
Note OFF: Time 21120, Note Name: D#4
Note ON: Time 21120, Note Name: F#4, Velocity: 55
Note OFF: Time 22080, Note Name: F#4
Note OFF: Time 22080, Note Name: F3
Note ON: Time 22080, Note Name: F4, Velocity: 38
Note ON: Time 22080, Note Name: F3, Velocity: 38
Note OFF: Time 22560, Note Name: F3
Note OFF: Time 22560, Note Name: F4
Note ON: Time 22560, Note Name: F3, Velocity: 32
Note ON: Time 22560, Note Name: D#4, Velocity: 32
Note OFF: Time 23040, Note Name: D#4
Note OFF: Time 23040, Note Name: F3
Note ON: Time 23040, Note Name: A#3, Velocity: 30
Note ON: Time 23040, Note Name: D#4, Velocity: 36
Note OFF: Time 23520, Note Name: D#4
Note ON: Time 23520, Note Name: D4, Velocity: 32
Note OFF: Time 23760, Note Name: D4
Note OFF: Time 23760, Note Name: A#3
Note ON: Time 24000, Note Name: F#4, Velocity: 38
Note OFF: Time 24120, Note Name: F#4
Note ON: Time 24120, Note Name: G4, Velocity: 33
Note OFF: Time 24240, Note Name: G4
Note ON: Time 24240, Note Name: F#4, Velocity: 42
Note OFF: Time 24360, Note Name: F#4
Note ON: Time 24360, Note Name: G4, Velocity: 38
Note OFF: Time 24480, Note Name: G4
Note ON: Time 24480, Note Name: F#4, Velocity: 45
Note OFF: Time 24600, Note Name: F#4
Note ON: Time 24600, Note Name: G4, Velocity: 39
Note OFF: Time 24720, Note Name: G4
Note ON: Time 24720, Note Name: F#4, Velocity: 49
Note OFF: Time 24840, Note Name: F#4
Note ON: Time 24840, Note Name: G4, Velocity: 45
Note OFF: Time 24960, Note Name: G4
Note ON: Time 24960, Note Name: F#4, Velocity: 52
Note OFF: Time 25080, Note Name: F#4
Note ON: Time 25080, Note Name: G4, Velocity: 45
Note OFF: Time 25200, Note Name: G4
Note ON: Time 25200, Note Name: F#4, Velocity: 55
Note OFF: Time 25320, Note Name: F#4
Note ON: Time 25320, Note Name: G4, Velocity: 52
Note OFF: Time 25440, Note Name: G4
Note ON: Time 25440, Note Name: F#4, Velocity: 59
Note OFF: Time 25560, Note Name: F#4
Note ON: Time 25560, Note Name: G4, Velocity: 52
Note OFF: Time 25680, Note Name: G4
Note ON: Time 25680, Note Name: F#4, Velocity: 63
Note OFF: Time 25800, Note Name: F#4
Note ON: Time 25800, Note Name: G4, Velocity: 58
Note OFF: Time 25920, Note Name: G4
Note ON: Time 25920, Note Name: F#4, Velocity: 70
Note OFF: Time 26160, Note Name: F#4
Note ON: Time 26400, Note Name: D3, Velocity: 62
Note ON: Time 26400, Note Name: D4, Velocity: 74
Note OFF: Time 27120, Note Name: D4
Note OFF: Time 27120, Note Name: D3
Note ON: Time 27120, Note Name: D3, Velocity: 46
Note ON: Time 27120, Note Name: D4, Velocity: 56
Note OFF: Time 27240, Note Name: D4
Note OFF: Time 27240, Note Name: D3
Note ON: Time 27360, Note Name: D#3, Velocity: 57
Note ON: Time 27360, Note Name: D#4, Velocity: 68
Note OFF: Time 27600, Note Name: D#4
Note OFF: Time 27600, Note Name: D#3
Note ON: Time 27720, Note Name: C3, Velocity: 45
Note ON: Time 27720, Note Name: C4, Velocity: 53
Note OFF: Time 27780, Note Name: C4
Note OFF: Time 27780, Note Name: C3
Note ON: Time 27840, Note Name: D3, Velocity: 53
Note ON: Time 27840, Note Name: D4, Velocity: 63
Note OFF: Time 28080, Note Name: D4
Note OFF: Time 28080, Note Name: D3
Note ON: Time 28320, Note Name: D2, Velocity: 51
Note ON: Time 28320, Note Name: D3, Velocity: 61
Note OFF: Time 28560, Note Name: D3
Note OFF: Time 28560, Note Name: D2
Note ON: Time 28800, Note Name: G2, Velocity: 51
Note ON: Time 28800, Note Name: G3, Velocity: 61
Note OFF: Time 29520, Note Name: G3
Note OFF: Time 29520, Note Name: G2
Note ON: Time 29760, Note Name: D3, Velocity: 25
Note ON: Time 29880, Note Name: D#3, Velocity: 22
Note OFF: Time 29881, Note Name: D3
Note ON: Time 30000, Note Name: D3, Velocity: 27
Note OFF: Time 30001, Note Name: D#3
Note ON: Time 30120, Note Name: D#3, Velocity: 24
Note OFF: Time 30121, Note Name: D3
Note ON: Time 30240, Note Name: D3, Velocity: 28
Note OFF: Time 30241, Note Name: D#3
Note ON: Time 30360, Note Name: D#3, Velocity: 24
Note OFF: Time 30361, Note Name: D3
Note ON: Time 30480, Note Name: D3, Velocity: 30
Note OFF: Time 30481, Note Name: D#3
Note ON: Time 30600, Note Name: D#3, Velocity: 28
Note OFF: Time 30601, Note Name: D3
Note ON: Time 30720, Note Name: D3, Velocity: 33
Note OFF: Time 30721, Note Name: D#3
Note ON: Time 30840, Note Name: D#3, Velocity: 29
Note OFF: Time 30841, Note Name: D3
Note ON: Time 30960, Note Name: D3, Velocity: 36
Note OFF: Time 30961, Note Name: D#3
Note ON: Time 31080, Note Name: D#3, Velocity: 33
Note OFF: Time 31081, Note Name: D3
Note ON: Time 31200, Note Name: D3, Velocity: 38
Note OFF: Time 31201, Note Name: D#3
Note ON: Time 31320, Note Name: D#3, Velocity: 33
Note OFF: Time 31321, Note Name: D3
Note ON: Time 31440, Note Name: D3, Velocity: 40
Note OFF: Time 31441, Note Name: D#3
Note ON: Time 31560, Note Name: D#3, Velocity: 38
Note OFF: Time 31561, Note Name: D3
Note ON: Time 31680, Note Name: D3, Velocity: 54
Note OFF: Time 31681, Note Name: D#3
Note OFF: Time 31920, Note Name: D3
Note ON: Time 32160, Note Name: D3, Velocity: 53
Note ON: Time 32160, Note Name: F3, Velocity: 64
Note OFF: Time 32880, Note Name: F3
Note OFF: Time 32880, Note Name: D3
Note ON: Time 32880, Note Name: D#3, Velocity: 36
Note ON: Time 32880, Note Name: G3, Velocity: 43
Note OFF: Time 33120, Note Name: G3
Note OFF: Time 33120, Note Name: D#3
Note ON: Time 33120, Note Name: B2, Velocity: 43
Note ON: Time 33120, Note Name: D3, Velocity: 51
Note OFF: Time 33480, Note Name: D3
Note OFF: Time 33480, Note Name: B2
Note ON: Time 33480, Note Name: C3, Velocity: 32
Note ON: Time 33480, Note Name: D#3, Velocity: 39
Note OFF: Time 33600, Note Name: D#3
Note OFF: Time 33600, Note Name: C3
Note ON: Time 33600, Note Name: D3, Velocity: 38
Note ON: Time 33600, Note Name: F3, Velocity: 45
Note OFF: Time 34080, Note Name: F3
Note OFF: Time 34080, Note Name: D3
Note ON: Time 34080, Note Name: D#3, Velocity: 34
Note ON: Time 34080, Note Name: G3, Velocity: 41
Note OFF: Time 34560, Note Name: G3
Note OFF: Time 34560, Note Name: D#3
Note ON: Time 34560, Note Name: F3, Velocity: 36
Note OFF: Time 35040, Note Name: F3
Note ON: Time 35040, Note Name: F2, Velocity: 30
Note OFF: Time 35280, Note Name: F2
Note ON: Time 36000, Note Name: A#2, Velocity: 40
Note OFF: Time 36120, Note Name: A#2
Note ON: Time 36240, Note Name: A#3, Velocity: 29
Note OFF: Time 36480, Note Name: A#3
Note ON: Time 36480, Note Name: D4, Velocity: 34
Note OFF: Time 36720, Note Name: D4
Note ON: Time 36720, Note Name: A#3, Velocity: 29
Note OFF: Time 36960, Note Name: A#3
Note ON: Time 36960, Note Name: D#4, Velocity: 34
Note OFF: Time 37200, Note Name: D#4
Note ON: Time 37200, Note Name: C4, Velocity: 31
Note OFF: Time 37440, Note Name: C4
Note ON: Time 37440, Note Name: D4, Velocity: 40
Note OFF: Time 37680, Note Name: D4
Note ON: Time 37680, Note Name: C#4, Velocity: 30
Note OFF: Time 37920, Note Name: C#4
Note ON: Time 37920, Note Name: D4, Velocity: 34
Note OFF: Time 38160, Note Name: D4
Note ON: Time 38160, Note Name: A#3, Velocity: 30
Note OFF: Time 38400, Note Name: A#3
Note ON: Time 38400, Note Name: D#4, Velocity: 34
Note OFF: Time 38640, Note Name: D#4
Note ON: Time 38640, Note Name: C4, Velocity: 29
Note OFF: Time 38880, Note Name: C4
Note ON: Time 38880, Note Name: D4, Velocity: 40
Note OFF: Time 39120, Note Name: D4
Note ON: Time 39120, Note Name: C#4, Velocity: 30
Note OFF: Time 39360, Note Name: C#4
Note ON: Time 39360, Note Name: D4, Velocity: 34
Note OFF: Time 39600, Note Name: D4
Note ON: Time 39600, Note Name: A3, Velocity: 30
Note OFF: Time 39840, Note Name: A3
Note ON: Time 39840, Note Name: A#3, Velocity: 34
Note OFF: Time 40080, Note Name: A#3
Note ON: Time 40080, Note Name: G3, Velocity: 30
Note OFF: Time 40310, Note Name: G3
Note ON: Time 40320, Note Name: F3, Velocity: 40
Note ON: Time 40800, Note Name: F4, Velocity: 35
Note OFF: Time 41040, Note Name: F4
Note OFF: Time 41040, Note Name: F3
Note ON: Time 41880, Note Name: F2, Velocity: 37
Note OFF: Time 42000, Note Name: F2
Note ON: Time 42000, Note Name: A2, Velocity: 38
Note OFF: Time 42120, Note Name: A2
Note ON: Time 42120, Note Name: C3, Velocity: 39
Note OFF: Time 42240, Note Name: C3
Note ON: Time 42240, Note Name: F3, Velocity: 40
Note OFF: Time 42360, Note Name: F3
Note ON: Time 42360, Note Name: A3, Velocity: 41
Note OFF: Time 42480, Note Name: A3
Note ON: Time 42480, Note Name: C4, Velocity: 42
Note OFF: Time 42600, Note Name: C4
Note ON: Time 42600, Note Name: D4, Velocity: 43
Note OFF: Time 42720, Note Name: D4
Note ON: Time 42720, Note Name: D#4, Velocity: 48
Note OFF: Time 43320, Note Name: D#4
Note ON: Time 43320, Note Name: F2, Velocity: 37
Note OFF: Time 43440, Note Name: F2
Note ON: Time 43440, Note Name: A2, Velocity: 41
Note OFF: Time 43560, Note Name: A2
Note ON: Time 43560, Note Name: C3, Velocity: 43
Note OFF: Time 43680, Note Name: C3
Note ON: Time 43680, Note Name: F3, Velocity: 44
Note OFF: Time 43800, Note Name: F3
Note ON: Time 43800, Note Name: A3, Velocity: 46
Note OFF: Time 43920, Note Name: A3
Note ON: Time 43920, Note Name: C4, Velocity: 48
Note OFF: Time 44040, Note Name: C4
Note ON: Time 44040, Note Name: D#4, Velocity: 49
Note OFF: Time 44160, Note Name: D#4
Note ON: Time 44160, Note Name: F#4, Velocity: 55
Note OFF: Time 45120, Note Name: F#4
Note ON: Time 45120, Note Name: F4, Velocity: 38
Note ON: Time 45120, Note Name: F3, Velocity: 38
Note OFF: Time 45600, Note Name: F3
Note OFF: Time 45600, Note Name: F4
Note ON: Time 45600, Note Name: F3, Velocity: 32
Note ON: Time 45600, Note Name: D#4, Velocity: 32
Note OFF: Time 46080, Note Name: D#4
Note OFF: Time 46080, Note Name: F3
Note ON: Time 46080, Note Name: A#2, Velocity: 40
Note OFF: Time 46200, Note Name: A#2
Note ON: Time 46320, Note Name: A#3, Velocity: 29
Note OFF: Time 46560, Note Name: A#3
Note ON: Time 46560, Note Name: D4, Velocity: 34
Note OFF: Time 46800, Note Name: D4
Note ON: Time 46800, Note Name: A#3, Velocity: 29
Note OFF: Time 47040, Note Name: A#3
Note ON: Time 47040, Note Name: D#4, Velocity: 34
Note OFF: Time 47280, Note Name: D#4
Note ON: Time 47280, Note Name: A#3, Velocity: 31
Note OFF: Time 47520, Note Name: A#3
Note ON: Time 47520, Note Name: D4, Velocity: 40
Note OFF: Time 47760, Note Name: D4
Note ON: Time 47760, Note Name: C#4, Velocity: 30
Note OFF: Time 48000, Note Name: C#4
Note ON: Time 48000, Note Name: D4, Velocity: 34
Note OFF: Time 48240, Note Name: D4
Note ON: Time 48240, Note Name: A#3, Velocity: 30
Note OFF: Time 48480, Note Name: A#3
Note ON: Time 48480, Note Name: C4, Velocity: 34
Note OFF: Time 48720, Note Name: C4
Note ON: Time 48720, Note Name: F3, Velocity: 29
Note OFF: Time 48960, Note Name: F3
Note ON: Time 48960, Note Name: A#3, Velocity: 40
Note OFF: Time 49200, Note Name: A#3
Note ON: Time 49200, Note Name: A#2, Velocity: 30
Note OFF: Time 49440, Note Name: A#2
Note ON: Time 49440, Note Name: D3, Velocity: 34
Note OFF: Time 49680, Note Name: D3
Note ON: Time 49680, Note Name: A#2, Velocity: 30
Note OFF: Time 49920, Note Name: A#2
Note ON: Time 49920, Note Name: D#3, Velocity: 34
Note OFF: Time 50160, Note Name: D#3
Note ON: Time 50160, Note Name: A#2, Velocity: 29
Note OFF: Time 50400, Note Name: A#2
Note ON: Time 50400, Note Name: D3, Velocity: 40
Note OFF: Time 50640, Note Name: D3
Note ON: Time 50640, Note Name: C#3, Velocity: 30
Note OFF: Time 50880, Note Name: C#3
Note ON: Time 50880, Note Name: D3, Velocity: 34
Note OFF: Time 51120, Note Name: D3
Note ON: Time 51120, Note Name: A#2, Velocity: 30
Note OFF: Time 51360, Note Name: A#2
Note ON: Time 51360, Note Name: C3, Velocity: 34
Note OFF: Time 51600, Note Name: C3
Note ON: Time 51600, Note Name: F2, Velocity: 29
Note OFF: Time 51840, Note Name: F2
Note ON: Time 51840, Note Name: A#2, Velocity: 40
Note OFF: Time 52080, Note Name: A#2
Note ON: Time 52080, Note Name: D3, Velocity: 30
Note OFF: Time 52320, Note Name: D3
Note ON: Time 52320, Note Name: C3, Velocity: 35
Note OFF: Time 52560, Note Name: C3
Note ON: Time 52560, Note Name: F2, Velocity: 31
Note OFF: Time 52800, Note Name: F2
Note ON: Time 52800, Note Name: A#2, Velocity: 36
Note OFF: Time 53040, Note Name: A#2
Note ON: Time 53040, Note Name: D3, Velocity: 31
Note OFF: Time 53280, Note Name: D3
Note ON: Time 53280, Note Name: C3, Velocity: 44
Note OFF: Time 53520, Note Name: C3
Note ON: Time 53520, Note Name: F2, Velocity: 33
Note OFF: Time 53760, Note Name: F2
Note ON: Time 53760, Note Name: A#2, Velocity: 45
Note OFF: Time 53880, Note Name: A#2
Note ON: Time 53880, Note Name: D3, Velocity: 37
Note OFF: Time 54000, Note Name: D3
Note ON: Time 54000, Note Name: F2, Velocity: 46
Note OFF: Time 54120, Note Name: F2
Note ON: Time 54120, Note Name: C3, Velocity: 39
Note OFF: Time 54240, Note Name: C3
Note ON: Time 54240, Note Name: A#2, Velocity: 47
Note OFF: Time 54360, Note Name: A#2
Note ON: Time 54360, Note Name: D3, Velocity: 41
Note OFF: Time 54480, Note Name: D3
Note ON: Time 54480, Note Name: F2, Velocity: 49
Note OFF: Time 54600, Note Name: F2
Note ON: Time 54600, Note Name: C3, Velocity: 43
Note OFF: Time 54720, Note Name: C3
Note ON: Time 54720, Note Name: A#2, Velocity: 24
Note ON: Time 54720, Note Name: D3, Velocity: 30
Note OFF: Time 54840, Note Name: D3
Note OFF: Time 54840, Note Name: A#2
Note ON: Time 55200, Note Name: A#1, Velocity: 24
Note ON: Time 55200, Note Name: A#2, Velocity: 30
Note OFF: Time 55320, Note Name: A#2
Note OFF: Time 55320, Note Name: A#1
Note ON: Time 55680, Note Name: F#4, Velocity: 38
Note OFF: Time 55800, Note Name: F#4
Note ON: Time 55800, Note Name: G4, Velocity: 33
Note OFF: Time 55920, Note Name: G4
Note ON: Time 55920, Note Name: F#4, Velocity: 42
Note OFF: Time 56040, Note Name: F#4
Note ON: Time 56040, Note Name: G4, Velocity: 38
Note OFF: Time 56160, Note Name: G4
Note ON: Time 56160, Note Name: F#4, Velocity: 45
Note OFF: Time 56280, Note Name: F#4
Note ON: Time 56280, Note Name: G4, Velocity: 39
Note OFF: Time 56400, Note Name: G4
Note ON: Time 56400, Note Name: F#4, Velocity: 48
Note OFF: Time 56520, Note Name: F#4
Note ON: Time 56520, Note Name: G4, Velocity: 45
Note OFF: Time 56640, Note Name: G4
Note ON: Time 56640, Note Name: F#4, Velocity: 52
Note OFF: Time 56760, Note Name: F#4
Note ON: Time 56760, Note Name: G4, Velocity: 45
Note OFF: Time 56880, Note Name: G4
Note ON: Time 56880, Note Name: F#4, Velocity: 55
Note OFF: Time 57000, Note Name: F#4
Note ON: Time 57000, Note Name: G4, Velocity: 52
Note OFF: Time 57120, Note Name: G4
Note ON: Time 57120, Note Name: F#4, Velocity: 59
Note OFF: Time 57240, Note Name: F#4
Note ON: Time 57240, Note Name: G4, Velocity: 51
Note OFF: Time 57360, Note Name: G4
Note ON: Time 57360, Note Name: F#4, Velocity: 63
Note OFF: Time 57480, Note Name: F#4
Note ON: Time 57480, Note Name: G4, Velocity: 58
Note OFF: Time 57600, Note Name: G4
Note ON: Time 57600, Note Name: F#4, Velocity: 70
Note OFF: Time 57840, Note Name: F#4
Note ON: Time 58080, Note Name: D3, Velocity: 62
Note ON: Time 58080, Note Name: D4, Velocity: 74
Note OFF: Time 58800, Note Name: D4
Note OFF: Time 58800, Note Name: D3
Note ON: Time 58800, Note Name: D3, Velocity: 46
Note ON: Time 58800, Note Name: D4, Velocity: 56
Note OFF: Time 58920, Note Name: D4
Note OFF: Time 58920, Note Name: D3
Note ON: Time 59040, Note Name: D#3, Velocity: 57
Note ON: Time 59040, Note Name: D#4, Velocity: 68
Note OFF: Time 59280, Note Name: D#4
Note OFF: Time 59280, Note Name: D#3
Note ON: Time 59400, Note Name: C3, Velocity: 45
Note ON: Time 59400, Note Name: C4, Velocity: 53
Note OFF: Time 59460, Note Name: C4
Note OFF: Time 59460, Note Name: C3
Note ON: Time 59520, Note Name: D3, Velocity: 53
Note ON: Time 59520, Note Name: D4, Velocity: 63
Note OFF: Time 59760, Note Name: D4
Note OFF: Time 59760, Note Name: D3
Note ON: Time 60000, Note Name: D2, Velocity: 51
Note ON: Time 60000, Note Name: D3, Velocity: 61
Note OFF: Time 60240, Note Name: D3
Note OFF: Time 60240, Note Name: D2
Note ON: Time 60480, Note Name: G2, Velocity: 51
Note ON: Time 60480, Note Name: G3, Velocity: 61
Note OFF: Time 61200, Note Name: G3
Note OFF: Time 61200, Note Name: G2
Note ON: Time 61440, Note Name: D3, Velocity: 25
Note ON: Time 61560, Note Name: D#3, Velocity: 22
Note OFF: Time 61561, Note Name: D3
Note ON: Time 61680, Note Name: D3, Velocity: 27
Note OFF: Time 61681, Note Name: D#3
Note ON: Time 61800, Note Name: D#3, Velocity: 24
Note OFF: Time 61801, Note Name: D3
Note ON: Time 61920, Note Name: D3, Velocity: 29
Note OFF: Time 61921, Note Name: D#3
Note ON: Time 62040, Note Name: D#3, Velocity: 25
Note OFF: Time 62041, Note Name: D3
Note ON: Time 62160, Note Name: D3, Velocity: 32
Note OFF: Time 62161, Note Name: D#3
Note ON: Time 62280, Note Name: D#3, Velocity: 29
Note OFF: Time 62281, Note Name: D3
Note ON: Time 62400, Note Name: D3, Velocity: 34
Note OFF: Time 62401, Note Name: D#3
Note ON: Time 62520, Note Name: D#3, Velocity: 30
Note OFF: Time 62521, Note Name: D3
Note ON: Time 62640, Note Name: D3, Velocity: 37
Note OFF: Time 62641, Note Name: D#3
Note ON: Time 62760, Note Name: D#3, Velocity: 34
Note OFF: Time 62761, Note Name: D3
Note ON: Time 62880, Note Name: D3, Velocity: 39
Note OFF: Time 62881, Note Name: D#3
Note ON: Time 63000, Note Name: D#3, Velocity: 34
Note OFF: Time 63001, Note Name: D3
Note ON: Time 63120, Note Name: D3, Velocity: 42
Note OFF: Time 63121, Note Name: D#3
Note ON: Time 63240, Note Name: D#3, Velocity: 38
Note OFF: Time 63241, Note Name: D3
Note ON: Time 63360, Note Name: D3, Velocity: 54
Note OFF: Time 63361, Note Name: D#3
Note OFF: Time 63600, Note Name: D3
Note ON: Time 63840, Note Name: D3, Velocity: 53
Note ON: Time 63840, Note Name: F3, Velocity: 64
Note OFF: Time 64560, Note Name: F3
Note OFF: Time 64560, Note Name: D3
Note ON: Time 64560, Note Name: D#3, Velocity: 36
Note ON: Time 64560, Note Name: G3, Velocity: 43
Note OFF: Time 64800, Note Name: G3
Note OFF: Time 64800, Note Name: D#3
Note ON: Time 64800, Note Name: B2, Velocity: 43
Note ON: Time 64800, Note Name: D3, Velocity: 51
Note OFF: Time 65160, Note Name: D3
Note OFF: Time 65160, Note Name: B2
Note ON: Time 65160, Note Name: C3, Velocity: 32
Note ON: Time 65160, Note Name: D#3, Velocity: 39
Note OFF: Time 65280, Note Name: D#3
Note OFF: Time 65280, Note Name: C3
Note ON: Time 65280, Note Name: D3, Velocity: 38
Note ON: Time 65280, Note Name: F3, Velocity: 45
Note OFF: Time 65760, Note Name: F3
Note OFF: Time 65760, Note Name: D3
Note ON: Time 65760, Note Name: D#3, Velocity: 34
Note ON: Time 65760, Note Name: G3, Velocity: 41
Note OFF: Time 66240, Note Name: G3
Note OFF: Time 66240, Note Name: D#3
Note ON: Time 66240, Note Name: F3, Velocity: 36
Note OFF: Time 66720, Note Name: F3
Note ON: Time 66720, Note Name: F2, Velocity: 30
Note OFF: Time 66960, Note Name: F2
Note ON: Time 67680, Note Name: A#2, Velocity: 40
Note OFF: Time 67800, Note Name: A#2
Note ON: Time 67920, Note Name: A#3, Velocity: 29
Note OFF: Time 68160, Note Name: A#3
Note ON: Time 68160, Note Name: D4, Velocity: 34
Note OFF: Time 68400, Note Name: D4
Note ON: Time 68400, Note Name: A#3, Velocity: 29
Note OFF: Time 68640, Note Name: A#3
Note ON: Time 68640, Note Name: D#4, Velocity: 34
Note OFF: Time 68880, Note Name: D#4
Note ON: Time 68880, Note Name: C4, Velocity: 31
Note OFF: Time 69120, Note Name: C4
Note ON: Time 69120, Note Name: D4, Velocity: 40
Note OFF: Time 69360, Note Name: D4
Note ON: Time 69360, Note Name: C#4, Velocity: 30
Note OFF: Time 69600, Note Name: C#4
Note ON: Time 69600, Note Name: D4, Velocity: 34
Note OFF: Time 69840, Note Name: D4
Note ON: Time 69840, Note Name: A#3, Velocity: 30
Note OFF: Time 70080, Note Name: A#3
Note ON: Time 70080, Note Name: D#4, Velocity: 34
Note OFF: Time 70320, Note Name: D#4
Note ON: Time 70320, Note Name: C4, Velocity: 29
Note OFF: Time 70560, Note Name: C4
Note ON: Time 70560, Note Name: D4, Velocity: 40
Note OFF: Time 70800, Note Name: D4
Note ON: Time 70800, Note Name: C#4, Velocity: 30
Note OFF: Time 71040, Note Name: C#4
Note ON: Time 71040, Note Name: D4, Velocity: 34
Note OFF: Time 71280, Note Name: D4
Note ON: Time 71280, Note Name: A3, Velocity: 30
Note OFF: Time 71520, Note Name: A3
Note ON: Time 71520, Note Name: A#3, Velocity: 34
Note OFF: Time 71760, Note Name: A#3
Note ON: Time 71760, Note Name: G3, Velocity: 30
Note OFF: Time 71990, Note Name: G3
Note ON: Time 72000, Note Name: F3, Velocity: 40
Note ON: Time 72480, Note Name: F4, Velocity: 35
Note OFF: Time 72720, Note Name: F4
Note OFF: Time 72720, Note Name: F3
Note ON: Time 73560, Note Name: F2, Velocity: 37
Note OFF: Time 73680, Note Name: F2
Note ON: Time 73680, Note Name: A2, Velocity: 38
Note OFF: Time 73800, Note Name: A2
Note ON: Time 73800, Note Name: C3, Velocity: 39
Note OFF: Time 73920, Note Name: C3
Note ON: Time 73920, Note Name: F3, Velocity: 40
Note OFF: Time 74040, Note Name: F3
Note ON: Time 74040, Note Name: A3, Velocity: 41
Note OFF: Time 74160, Note Name: A3
Note ON: Time 74160, Note Name: C4, Velocity: 42
Note OFF: Time 74280, Note Name: C4
Note ON: Time 74280, Note Name: D4, Velocity: 43
Note OFF: Time 74400, Note Name: D4
Note ON: Time 74400, Note Name: D#4, Velocity: 48
Note OFF: Time 75000, Note Name: D#4
Note ON: Time 75000, Note Name: F2, Velocity: 37
Note OFF: Time 75120, Note Name: F2
Note ON: Time 75120, Note Name: A2, Velocity: 41
Note OFF: Time 75240, Note Name: A2
Note ON: Time 75240, Note Name: C3, Velocity: 43
Note OFF: Time 75360, Note Name: C3
Note ON: Time 75360, Note Name: F3, Velocity: 44
Note OFF: Time 75480, Note Name: F3
Note ON: Time 75480, Note Name: A3, Velocity: 46
Note OFF: Time 75600, Note Name: A3
Note ON: Time 75600, Note Name: C4, Velocity: 48
Note OFF: Time 75720, Note Name: C4
Note ON: Time 75720, Note Name: D#4, Velocity: 49
Note OFF: Time 75840, Note Name: D#4
Note ON: Time 75840, Note Name: F#4, Velocity: 55
Note OFF: Time 76800, Note Name: F#4
Note ON: Time 76800, Note Name: F4, Velocity: 38
Note ON: Time 76800, Note Name: F3, Velocity: 38
Note OFF: Time 77280, Note Name: F3
Note OFF: Time 77280, Note Name: F4
Note ON: Time 77280, Note Name: F3, Velocity: 32
Note ON: Time 77280, Note Name: D#4, Velocity: 32
Note OFF: Time 77760, Note Name: D#4
Note OFF: Time 77760, Note Name: F3
Note ON: Time 77760, Note Name: A#2, Velocity: 40
Note OFF: Time 77880, Note Name: A#2
Note ON: Time 78000, Note Name: A#3, Velocity: 29
Note OFF: Time 78240, Note Name: A#3
Note ON: Time 78240, Note Name: D4, Velocity: 34
Note OFF: Time 78480, Note Name: D4
Note ON: Time 78480, Note Name: A#3, Velocity: 29
Note OFF: Time 78720, Note Name: A#3
Note ON: Time 78720, Note Name: D#4, Velocity: 34
Note OFF: Time 78960, Note Name: D#4
Note ON: Time 78960, Note Name: A#3, Velocity: 31
Note OFF: Time 79200, Note Name: A#3
Note ON: Time 79200, Note Name: D4, Velocity: 40
Note OFF: Time 79440, Note Name: D4
Note ON: Time 79440, Note Name: C#4, Velocity: 30
Note OFF: Time 79680, Note Name: C#4
Note ON: Time 79680, Note Name: D4, Velocity: 34
Note OFF: Time 79920, Note Name: D4
Note ON: Time 79920, Note Name: A#3, Velocity: 30
Note OFF: Time 80160, Note Name: A#3
Note ON: Time 80160, Note Name: C4, Velocity: 34
Note OFF: Time 80400, Note Name: C4
Note ON: Time 80400, Note Name: F3, Velocity: 29
Note OFF: Time 80640, Note Name: F3
Note ON: Time 80640, Note Name: A#3, Velocity: 40
Note OFF: Time 80880, Note Name: A#3
Note ON: Time 80880, Note Name: A#2, Velocity: 30
Note OFF: Time 81120, Note Name: A#2
Note ON: Time 81120, Note Name: D3, Velocity: 34
Note OFF: Time 81360, Note Name: D3
Note ON: Time 81360, Note Name: A#2, Velocity: 30
Note OFF: Time 81600, Note Name: A#2
Note ON: Time 81600, Note Name: D#3, Velocity: 34
Note OFF: Time 81840, Note Name: D#3
Note ON: Time 81840, Note Name: A#2, Velocity: 29
Note OFF: Time 82080, Note Name: A#2
Note ON: Time 82080, Note Name: D3, Velocity: 40
Note OFF: Time 82320, Note Name: D3
Note ON: Time 82320, Note Name: C#3, Velocity: 30
Note OFF: Time 82560, Note Name: C#3
Note ON: Time 82560, Note Name: D3, Velocity: 34
Note OFF: Time 82800, Note Name: D3
Note ON: Time 82800, Note Name: A#2, Velocity: 30
Note OFF: Time 83040, Note Name: A#2
Note ON: Time 83040, Note Name: C3, Velocity: 34
Note OFF: Time 83280, Note Name: C3
Note ON: Time 83280, Note Name: F2, Velocity: 29
Note OFF: Time 83520, Note Name: F2
Note ON: Time 83520, Note Name: A#2, Velocity: 40
Note OFF: Time 83760, Note Name: A#2
Note ON: Time 83760, Note Name: D3, Velocity: 30
Note OFF: Time 84000, Note Name: D3
Note ON: Time 84000, Note Name: C3, Velocity: 35
Note OFF: Time 84240, Note Name: C3
Note ON: Time 84240, Note Name: F2, Velocity: 31
Note OFF: Time 84480, Note Name: F2
Note ON: Time 84480, Note Name: A#2, Velocity: 36
Note OFF: Time 84720, Note Name: A#2
Note ON: Time 84720, Note Name: D3, Velocity: 31
Note OFF: Time 84960, Note Name: D3
Note ON: Time 84960, Note Name: C3, Velocity: 44
Note OFF: Time 85200, Note Name: C3
Note ON: Time 85200, Note Name: F2, Velocity: 33
Note OFF: Time 85440, Note Name: F2
Note ON: Time 85440, Note Name: A#2, Velocity: 45
Note OFF: Time 85560, Note Name: A#2
Note ON: Time 85560, Note Name: D3, Velocity: 37
Note OFF: Time 85680, Note Name: D3
Note ON: Time 85680, Note Name: F2, Velocity: 46
Note OFF: Time 85800, Note Name: F2
Note ON: Time 85800, Note Name: C3, Velocity: 39
Note OFF: Time 85920, Note Name: C3
Note ON: Time 85920, Note Name: A#2, Velocity: 47
Note OFF: Time 86040, Note Name: A#2
Note ON: Time 86040, Note Name: D3, Velocity: 41
Note OFF: Time 86160, Note Name: D3
Note ON: Time 86160, Note Name: F2, Velocity: 49
Note OFF: Time 86280, Note Name: F2
Note ON: Time 86280, Note Name: C3, Velocity: 43
Note OFF: Time 86400, Note Name: C3
Note ON: Time 86400, Note Name: A#2, Velocity: 24
Note ON: Time 86400, Note Name: D3, Velocity: 30
Note OFF: Time 86520, Note Name: D3
Note OFF: Time 86520, Note Name: A#2
Note ON: Time 86880, Note Name: A#1, Velocity: 24
Note ON: Time 86880, Note Name: A#2, Velocity: 30
Note OFF: Time 87000, Note Name: A#2
Note OFF: Time 87000, Note Name: A#1
Note ON: Time 87360, Note Name: D4, Velocity: 62
Note OFF: Time 87480, Note Name: D4
Note ON: Time 87480, Note Name: D#4, Velocity: 48
Note OFF: Time 87600, Note Name: D#4
Note ON: Time 87600, Note Name: D4, Velocity: 48
Note OFF: Time 87720, Note Name: D4
Note ON: Time 87720, Note Name: C4, Velocity: 48
Note OFF: Time 87840, Note Name: C4
Note ON: Time 87840, Note Name: A#3, Velocity: 62
Note OFF: Time 87960, Note Name: A#3
Note ON: Time 87960, Note Name: C4, Velocity: 48
Note OFF: Time 88080, Note Name: C4
Note ON: Time 88080, Note Name: A#3, Velocity: 47
Note OFF: Time 88200, Note Name: A#3
Note ON: Time 88200, Note Name: A3, Velocity: 47
Note OFF: Time 88320, Note Name: A3
Note ON: Time 88320, Note Name: G3, Velocity: 63
Note OFF: Time 88440, Note Name: G3
Note ON: Time 88440, Note Name: A3, Velocity: 46
Note OFF: Time 88560, Note Name: A3
Note ON: Time 88560, Note Name: A#3, Velocity: 46
Note OFF: Time 88680, Note Name: A#3
Note ON: Time 88680, Note Name: A3, Velocity: 46
Note OFF: Time 88800, Note Name: A3
Note ON: Time 88800, Note Name: G3, Velocity: 58
Note OFF: Time 88920, Note Name: G3
Note ON: Time 88920, Note Name: A#3, Velocity: 46
Note OFF: Time 89040, Note Name: A#3
Note ON: Time 89040, Note Name: A3, Velocity: 46
Note OFF: Time 89160, Note Name: A3
Note ON: Time 89160, Note Name: G3, Velocity: 45
Note OFF: Time 89280, Note Name: G3
Note ON: Time 89280, Note Name: F#3, Velocity: 59
Note OFF: Time 89400, Note Name: F#3
Note ON: Time 89400, Note Name: G3, Velocity: 45
Note OFF: Time 89520, Note Name: G3
Note ON: Time 89520, Note Name: F#3, Velocity: 45
Note OFF: Time 89640, Note Name: F#3
Note ON: Time 89640, Note Name: D#3, Velocity: 44
Note OFF: Time 89760, Note Name: D#3
Note ON: Time 89760, Note Name: D3, Velocity: 57
Note OFF: Time 89880, Note Name: D3
Note ON: Time 89880, Note Name: D#3, Velocity: 44
Note OFF: Time 90000, Note Name: D#3
Note ON: Time 90000, Note Name: D3, Velocity: 42
Note OFF: Time 90120, Note Name: D3
Note ON: Time 90120, Note Name: C3, Velocity: 42
Note OFF: Time 90240, Note Name: C3
Note ON: Time 90240, Note Name: A#2, Velocity: 55
Note OFF: Time 90360, Note Name: A#2
Note ON: Time 90360, Note Name: C3, Velocity: 41
Note OFF: Time 90480, Note Name: C3
Note ON: Time 90480, Note Name: A#2, Velocity: 41
Note OFF: Time 90600, Note Name: A#2
Note ON: Time 90600, Note Name: A2, Velocity: 41
Note OFF: Time 90720, Note Name: A2
Note ON: Time 90720, Note Name: G2, Velocity: 56
Note OFF: Time 90840, Note Name: G2
Note ON: Time 90840, Note Name: F#2, Velocity: 42
Note OFF: Time 90960, Note Name: F#2
Note ON: Time 90960, Note Name: G2, Velocity: 42
Note OFF: Time 91080, Note Name: G2
Note ON: Time 91080, Note Name: A2, Velocity: 42
Note OFF: Time 91200, Note Name: A2
Note ON: Time 91200, Note Name: A#2, Velocity: 55
Note OFF: Time 91320, Note Name: A#2
Note ON: Time 91320, Note Name: A2, Velocity: 42
Note OFF: Time 91440, Note Name: A2
Note ON: Time 91440, Note Name: A#2, Velocity: 41
Note OFF: Time 91560, Note Name: A#2
Note ON: Time 91560, Note Name: B2, Velocity: 41
Note OFF: Time 91680, Note Name: B2
Note ON: Time 91680, Note Name: C3, Velocity: 59
Note OFF: Time 91800, Note Name: C3
Note ON: Time 91800, Note Name: B2, Velocity: 47
Note OFF: Time 91920, Note Name: B2
Note ON: Time 91920, Note Name: C3, Velocity: 48
Note ON: Time 92034, Note Name: C#3, Velocity: 48
Note OFF: Time 92040, Note Name: C3
Note OFF: Time 92154, Note Name: C#3
Note ON: Time 92160, Note Name: D3, Velocity: 60
Note OFF: Time 92280, Note Name: D3
Note ON: Time 92280, Note Name: D2, Velocity: 46
Note OFF: Time 92400, Note Name: D2
Note ON: Time 92400, Note Name: F#2, Velocity: 46
Note OFF: Time 92520, Note Name: F#2
Note ON: Time 92520, Note Name: A2, Velocity: 42
Note OFF: Time 92640, Note Name: A2
Note ON: Time 92640, Note Name: D3, Velocity: 57
Note OFF: Time 92760, Note Name: D3
Note ON: Time 92760, Note Name: F#3, Velocity: 53
Note OFF: Time 92880, Note Name: F#3
Note ON: Time 92886, Note Name: A3, Velocity: 56
Note ON: Time 93000, Note Name: C#4, Velocity: 58
Note OFF: Time 93006, Note Name: A3
Note OFF: Time 93120, Note Name: C#4
Note ON: Time 93120, Note Name: D4, Velocity: 66
Note OFF: Time 93240, Note Name: D4
Note ON: Time 93240, Note Name: D#4, Velocity: 59
Note OFF: Time 93360, Note Name: D#4
Note ON: Time 93360, Note Name: D4, Velocity: 57
Note OFF: Time 93480, Note Name: D4
Note ON: Time 93480, Note Name: C4, Velocity: 56
Note OFF: Time 93600, Note Name: C4
Note ON: Time 93600, Note Name: A#3, Velocity: 62
Note OFF: Time 93720, Note Name: A#3
Note ON: Time 93720, Note Name: C4, Velocity: 48
Note OFF: Time 93840, Note Name: C4
Note ON: Time 93840, Note Name: A#3, Velocity: 47
Note OFF: Time 93960, Note Name: A#3
Note ON: Time 93960, Note Name: A3, Velocity: 47
Note OFF: Time 94080, Note Name: A3
Note ON: Time 94080, Note Name: G3, Velocity: 63
Note OFF: Time 94200, Note Name: G3
Note ON: Time 94200, Note Name: A3, Velocity: 46
Note OFF: Time 94320, Note Name: A3
Note ON: Time 94320, Note Name: G3, Velocity: 46
Note OFF: Time 94440, Note Name: G3
Note ON: Time 94440, Note Name: F3, Velocity: 46
Note OFF: Time 94560, Note Name: F3
Note ON: Time 94560, Note Name: E3, Velocity: 58
Note OFF: Time 94680, Note Name: E3
Note ON: Time 94680, Note Name: F3, Velocity: 46
Note OFF: Time 94800, Note Name: F3
Note ON: Time 94800, Note Name: E3, Velocity: 46
Note OFF: Time 94920, Note Name: E3
Note ON: Time 94920, Note Name: D3, Velocity: 45
Note OFF: Time 95040, Note Name: D3
Note ON: Time 95040, Note Name: C#3, Velocity: 59
Note OFF: Time 95160, Note Name: C#3
Note ON: Time 95160, Note Name: D3, Velocity: 45
Note OFF: Time 95280, Note Name: D3
Note ON: Time 95280, Note Name: C#3, Velocity: 45
Note OFF: Time 95400, Note Name: C#3
Note ON: Time 95400, Note Name: A#2, Velocity: 44
Note OFF: Time 95520, Note Name: A#2
Note ON: Time 95520, Note Name: A2, Velocity: 57
Note OFF: Time 95640, Note Name: A2
Note ON: Time 95640, Note Name: A#2, Velocity: 44
Note OFF: Time 95760, Note Name: A#2
Note ON: Time 95760, Note Name: A2, Velocity: 42
Note OFF: Time 95880, Note Name: A2
Note ON: Time 95880, Note Name: G2, Velocity: 42
Note OFF: Time 96000, Note Name: G2
Note ON: Time 96000, Note Name: F2, Velocity: 55
Note OFF: Time 96120, Note Name: F2
Note ON: Time 96120, Note Name: G2, Velocity: 41
Note OFF: Time 96240, Note Name: G2
Note ON: Time 96240, Note Name: F2, Velocity: 41
Note OFF: Time 96360, Note Name: F2
Note ON: Time 96360, Note Name: E2, Velocity: 41
Note OFF: Time 96480, Note Name: E2
Note ON: Time 96480, Note Name: D2, Velocity: 56
Note OFF: Time 96600, Note Name: D2
Note ON: Time 96600, Note Name: E2, Velocity: 42
Note OFF: Time 96720, Note Name: E2
Note ON: Time 96720, Note Name: F2, Velocity: 42
Note OFF: Time 96840, Note Name: F2
Note ON: Time 96840, Note Name: D2, Velocity: 42
Note OFF: Time 96960, Note Name: D2
Note ON: Time 96960, Note Name: G2, Velocity: 55
Note OFF: Time 97080, Note Name: G2
Note ON: Time 97080, Note Name: A2, Velocity: 42
Note OFF: Time 97200, Note Name: A2
Note ON: Time 97200, Note Name: A#2, Velocity: 41
Note OFF: Time 97320, Note Name: A#2
Note ON: Time 97320, Note Name: G2, Velocity: 41
Note OFF: Time 97440, Note Name: G2
Note ON: Time 97440, Note Name: A2, Velocity: 57
Note OFF: Time 97560, Note Name: A2
Note ON: Time 97560, Note Name: G#2, Velocity: 45
Note OFF: Time 97680, Note Name: G#2
Note ON: Time 97680, Note Name: A2, Velocity: 45
Note OFF: Time 97800, Note Name: A2
Note ON: Time 97800, Note Name: A1, Velocity: 45
Note OFF: Time 97920, Note Name: A1
Note ON: Time 97920, Note Name: D2, Velocity: 60
Note OFF: Time 98040, Note Name: D2
Note ON: Time 98040, Note Name: F2, Velocity: 46
Note OFF: Time 98160, Note Name: F2
Note ON: Time 98160, Note Name: A2, Velocity: 46
Note OFF: Time 98280, Note Name: A2
Note ON: Time 98280, Note Name: D3, Velocity: 42
Note OFF: Time 98400, Note Name: D3
Note ON: Time 98400, Note Name: D2, Velocity: 57
Note OFF: Time 98850, Note Name: D2
Note ON: Time 98880, Note Name: D4, Velocity: 62
Note OFF: Time 99000, Note Name: D4
Note ON: Time 99000, Note Name: D#4, Velocity: 48
Note OFF: Time 99120, Note Name: D#4
Note ON: Time 99120, Note Name: D4, Velocity: 48
Note OFF: Time 99240, Note Name: D4
Note ON: Time 99240, Note Name: C4, Velocity: 48
Note OFF: Time 99360, Note Name: C4
Note ON: Time 99360, Note Name: A#3, Velocity: 62
Note OFF: Time 99480, Note Name: A#3
Note ON: Time 99480, Note Name: C4, Velocity: 48
Note OFF: Time 99600, Note Name: C4
Note ON: Time 99600, Note Name: A#3, Velocity: 47
Note OFF: Time 99720, Note Name: A#3
Note ON: Time 99720, Note Name: A3, Velocity: 47
Note OFF: Time 99840, Note Name: A3
Note ON: Time 99840, Note Name: G3, Velocity: 63
Note OFF: Time 99960, Note Name: G3
Note ON: Time 99960, Note Name: A3, Velocity: 46
Note OFF: Time 100080, Note Name: A3
Note ON: Time 100080, Note Name: A#3, Velocity: 46
Note OFF: Time 100200, Note Name: A#3
Note ON: Time 100200, Note Name: A3, Velocity: 46
Note OFF: Time 100320, Note Name: A3
Note ON: Time 100320, Note Name: G3, Velocity: 58
Note OFF: Time 100440, Note Name: G3
Note ON: Time 100440, Note Name: A#3, Velocity: 46
Note OFF: Time 100560, Note Name: A#3
Note ON: Time 100560, Note Name: A3, Velocity: 46
Note OFF: Time 100680, Note Name: A3
Note ON: Time 100680, Note Name: G3, Velocity: 45
Note OFF: Time 100800, Note Name: G3
Note ON: Time 100800, Note Name: F#3, Velocity: 59
Note OFF: Time 100920, Note Name: F#3
Note ON: Time 100920, Note Name: G3, Velocity: 45
Note OFF: Time 101040, Note Name: G3
Note ON: Time 101040, Note Name: F#3, Velocity: 45
Note OFF: Time 101160, Note Name: F#3
Note ON: Time 101160, Note Name: D#3, Velocity: 44
Note OFF: Time 101280, Note Name: D#3
Note ON: Time 101280, Note Name: D3, Velocity: 57
Note OFF: Time 101400, Note Name: D3
Note ON: Time 101400, Note Name: D#3, Velocity: 44
Note OFF: Time 101520, Note Name: D#3
Note ON: Time 101520, Note Name: D3, Velocity: 42
Note OFF: Time 101640, Note Name: D3
Note ON: Time 101640, Note Name: C3, Velocity: 42
Note OFF: Time 101760, Note Name: C3
Note ON: Time 101760, Note Name: A#2, Velocity: 55
Note OFF: Time 101880, Note Name: A#2
Note ON: Time 101880, Note Name: C3, Velocity: 41
Note OFF: Time 102000, Note Name: C3
Note ON: Time 102000, Note Name: A#2, Velocity: 41
Note OFF: Time 102120, Note Name: A#2
Note ON: Time 102120, Note Name: A2, Velocity: 41
Note OFF: Time 102240, Note Name: A2
Note ON: Time 102240, Note Name: G2, Velocity: 56
Note OFF: Time 102360, Note Name: G2
Note ON: Time 102360, Note Name: F#2, Velocity: 42
Note OFF: Time 102480, Note Name: F#2
Note ON: Time 102480, Note Name: G2, Velocity: 42
Note OFF: Time 102600, Note Name: G2
Note ON: Time 102600, Note Name: A2, Velocity: 42
Note OFF: Time 102720, Note Name: A2
Note ON: Time 102720, Note Name: A#2, Velocity: 55
Note OFF: Time 102840, Note Name: A#2
Note ON: Time 102840, Note Name: A2, Velocity: 42
Note OFF: Time 102960, Note Name: A2
Note ON: Time 102960, Note Name: A#2, Velocity: 41
Note OFF: Time 103080, Note Name: A#2
Note ON: Time 103080, Note Name: B2, Velocity: 41
Note OFF: Time 103200, Note Name: B2
Note ON: Time 103200, Note Name: C3, Velocity: 59
Note OFF: Time 103320, Note Name: C3
Note ON: Time 103320, Note Name: B2, Velocity: 47
Note OFF: Time 103440, Note Name: B2
Note ON: Time 103440, Note Name: C3, Velocity: 48
Note OFF: Time 103560, Note Name: C3
Note ON: Time 103560, Note Name: C#3, Velocity: 48
Note OFF: Time 103680, Note Name: C#3
Note ON: Time 103680, Note Name: D3, Velocity: 60
Note OFF: Time 103800, Note Name: D3
Note ON: Time 103800, Note Name: D2, Velocity: 46
Note OFF: Time 103920, Note Name: D2
Note ON: Time 103920, Note Name: F#2, Velocity: 47
Note OFF: Time 104040, Note Name: F#2
Note ON: Time 104040, Note Name: A2, Velocity: 48
Note OFF: Time 104160, Note Name: A2
Note ON: Time 104160, Note Name: D3, Velocity: 57
Note OFF: Time 104280, Note Name: D3
Note ON: Time 104280, Note Name: F#3, Velocity: 49
Note OFF: Time 104400, Note Name: F#3
Note ON: Time 104406, Note Name: A3, Velocity: 53
Note ON: Time 104520, Note Name: C#4, Velocity: 57
Note OFF: Time 104526, Note Name: A3
Note OFF: Time 104640, Note Name: C#4
Note ON: Time 104640, Note Name: D4, Velocity: 62
Note OFF: Time 104760, Note Name: D4
Note ON: Time 104760, Note Name: D#4, Velocity: 57
Note OFF: Time 104880, Note Name: D#4
Note ON: Time 104880, Note Name: D4, Velocity: 52
Note OFF: Time 105000, Note Name: D4
Note ON: Time 105000, Note Name: C4, Velocity: 49
Note OFF: Time 105120, Note Name: C4
Note ON: Time 105120, Note Name: A#3, Velocity: 62
Note OFF: Time 105240, Note Name: A#3
Note ON: Time 105240, Note Name: C4, Velocity: 48
Note OFF: Time 105360, Note Name: C4
Note ON: Time 105360, Note Name: A#3, Velocity: 47
Note OFF: Time 105480, Note Name: A#3
Note ON: Time 105480, Note Name: A3, Velocity: 47
Note OFF: Time 105600, Note Name: A3
Note ON: Time 105600, Note Name: G3, Velocity: 63
Note OFF: Time 105720, Note Name: G3
Note ON: Time 105720, Note Name: A3, Velocity: 46
Note OFF: Time 105840, Note Name: A3
Note ON: Time 105840, Note Name: G3, Velocity: 46
Note OFF: Time 105960, Note Name: G3
Note ON: Time 105960, Note Name: F3, Velocity: 46
Note OFF: Time 106080, Note Name: F3
Note ON: Time 106080, Note Name: E3, Velocity: 58
Note OFF: Time 106200, Note Name: E3
Note ON: Time 106200, Note Name: F3, Velocity: 46
Note OFF: Time 106320, Note Name: F3
Note ON: Time 106320, Note Name: E3, Velocity: 46
Note OFF: Time 106440, Note Name: E3
Note ON: Time 106440, Note Name: D3, Velocity: 45
Note OFF: Time 106560, Note Name: D3
Note ON: Time 106560, Note Name: C#3, Velocity: 59
Note OFF: Time 106680, Note Name: C#3
Note ON: Time 106680, Note Name: D3, Velocity: 45
Note OFF: Time 106800, Note Name: D3
Note ON: Time 106800, Note Name: C#3, Velocity: 45
Note OFF: Time 106920, Note Name: C#3
Note ON: Time 106920, Note Name: A#2, Velocity: 44
Note OFF: Time 107040, Note Name: A#2
Note ON: Time 107040, Note Name: A2, Velocity: 57
Note OFF: Time 107160, Note Name: A2
Note ON: Time 107160, Note Name: A#2, Velocity: 44
Note OFF: Time 107280, Note Name: A#2
Note ON: Time 107280, Note Name: A2, Velocity: 42
Note OFF: Time 107400, Note Name: A2
Note ON: Time 107400, Note Name: G2, Velocity: 42
Note OFF: Time 107520, Note Name: G2
Note ON: Time 107520, Note Name: F2, Velocity: 55
Note OFF: Time 107640, Note Name: F2
Note ON: Time 107640, Note Name: G2, Velocity: 41
Note OFF: Time 107760, Note Name: G2
Note ON: Time 107760, Note Name: F2, Velocity: 41
Note OFF: Time 107880, Note Name: F2
Note ON: Time 107880, Note Name: E2, Velocity: 41
Note OFF: Time 108000, Note Name: E2
Note ON: Time 108000, Note Name: D2, Velocity: 56
Note OFF: Time 108120, Note Name: D2
Note ON: Time 108120, Note Name: E2, Velocity: 42
Note OFF: Time 108240, Note Name: E2
Note ON: Time 108240, Note Name: F2, Velocity: 42
Note OFF: Time 108360, Note Name: F2
Note ON: Time 108360, Note Name: D2, Velocity: 42
Note OFF: Time 108480, Note Name: D2
Note ON: Time 108480, Note Name: G2, Velocity: 55
Note OFF: Time 108600, Note Name: G2
Note ON: Time 108600, Note Name: A2, Velocity: 42
Note OFF: Time 108720, Note Name: A2
Note ON: Time 108720, Note Name: A#2, Velocity: 41
Note OFF: Time 108840, Note Name: A#2
Note ON: Time 108840, Note Name: G2, Velocity: 41
Note OFF: Time 108960, Note Name: G2
Note ON: Time 108960, Note Name: A2, Velocity: 57
Note OFF: Time 109080, Note Name: A2
Note ON: Time 109080, Note Name: G#2, Velocity: 45
Note OFF: Time 109200, Note Name: G#2
Note ON: Time 109200, Note Name: A2, Velocity: 45
Note OFF: Time 109320, Note Name: A2
Note ON: Time 109320, Note Name: A1, Velocity: 45
Note OFF: Time 109440, Note Name: A1
Note ON: Time 109440, Note Name: D2, Velocity: 60
Note OFF: Time 109560, Note Name: D2
Note ON: Time 109560, Note Name: F2, Velocity: 46
Note OFF: Time 109680, Note Name: F2
Note ON: Time 109680, Note Name: A2, Velocity: 46
Note OFF: Time 109800, Note Name: A2
Note ON: Time 109800, Note Name: D3, Velocity: 42
Note OFF: Time 109920, Note Name: D3
Note ON: Time 109920, Note Name: D2, Velocity: 57
Note OFF: Time 110370, Note Name: D2
Note ON: Time 110880, Note Name: G#4, Velocity: 67
Note OFF: Time 111000, Note Name: G#4
Note ON: Time 111000, Note Name: A#4, Velocity: 46
Note OFF: Time 111120, Note Name: A#4
Note ON: Time 111120, Note Name: G#4, Velocity: 46
Note OFF: Time 111240, Note Name: G#4
Note ON: Time 111240, Note Name: G4, Velocity: 46
Note OFF: Time 111360, Note Name: G4
Note ON: Time 111360, Note Name: F4, Velocity: 59
Note OFF: Time 111480, Note Name: F4
Note ON: Time 111480, Note Name: G4, Velocity: 46
Note OFF: Time 111600, Note Name: G4
Note ON: Time 111600, Note Name: F4, Velocity: 46
Note OFF: Time 111720, Note Name: F4
Note ON: Time 111720, Note Name: D#4, Velocity: 46
Note OFF: Time 111840, Note Name: D#4
Note ON: Time 111840, Note Name: G3, Velocity: 56
Note ON: Time 111840, Note Name: D4, Velocity: 67
Note OFF: Time 112320, Note Name: D4
Note OFF: Time 112320, Note Name: G3
Note ON: Time 112320, Note Name: C4, Velocity: 56
Note ON: Time 112320, Note Name: D#4, Velocity: 67
Note OFF: Time 112560, Note Name: D#4
Note OFF: Time 112560, Note Name: C4
Note ON: Time 113760, Note Name: D#4, Velocity: 67
Note OFF: Time 113880, Note Name: D#4
Note ON: Time 113880, Note Name: F4, Velocity: 46
Note OFF: Time 114000, Note Name: F4
Note ON: Time 114000, Note Name: D#4, Velocity: 46
Note OFF: Time 114120, Note Name: D#4
Note ON: Time 114120, Note Name: D4, Velocity: 46
Note OFF: Time 114240, Note Name: D4
Note ON: Time 114240, Note Name: C4, Velocity: 59
Note OFF: Time 114360, Note Name: C4
Note ON: Time 114360, Note Name: D4, Velocity: 46
Note OFF: Time 114480, Note Name: D4
Note ON: Time 114480, Note Name: C4, Velocity: 46
Note OFF: Time 114600, Note Name: C4
Note ON: Time 114600, Note Name: A#3, Velocity: 46
Note OFF: Time 114720, Note Name: A#3
Note ON: Time 114720, Note Name: D3, Velocity: 56
Note ON: Time 114720, Note Name: A3, Velocity: 67
Note OFF: Time 115200, Note Name: A3
Note OFF: Time 115200, Note Name: D3
Note ON: Time 115200, Note Name: G3, Velocity: 56
Note ON: Time 115200, Note Name: A#3, Velocity: 67
Note OFF: Time 115440, Note Name: A#3
Note OFF: Time 115440, Note Name: G3
Note ON: Time 116160, Note Name: D4, Velocity: 62
Note OFF: Time 116280, Note Name: D4
Note ON: Time 116280, Note Name: D#4, Velocity: 48
Note OFF: Time 116400, Note Name: D#4
Note ON: Time 116400, Note Name: D4, Velocity: 48
Note OFF: Time 116520, Note Name: D4
Note ON: Time 116520, Note Name: C4, Velocity: 48
Note OFF: Time 116640, Note Name: C4
Note ON: Time 116640, Note Name: A#3, Velocity: 62
Note OFF: Time 116760, Note Name: A#3
Note ON: Time 116760, Note Name: C4, Velocity: 48
Note OFF: Time 116880, Note Name: C4
Note ON: Time 116880, Note Name: A#3, Velocity: 47
Note OFF: Time 117000, Note Name: A#3
Note ON: Time 117000, Note Name: A3, Velocity: 47
Note OFF: Time 117120, Note Name: A3
Note ON: Time 117120, Note Name: G3, Velocity: 63
Note OFF: Time 117240, Note Name: G3
Note ON: Time 117240, Note Name: A3, Velocity: 46
Note OFF: Time 117360, Note Name: A3
Note ON: Time 117360, Note Name: G3, Velocity: 46
Note OFF: Time 117480, Note Name: G3
Note ON: Time 117480, Note Name: F3, Velocity: 46
Note OFF: Time 117600, Note Name: F3
Note ON: Time 117600, Note Name: D#3, Velocity: 58
Note OFF: Time 117720, Note Name: D#3
Note ON: Time 117720, Note Name: F3, Velocity: 46
Note OFF: Time 117840, Note Name: F3
Note ON: Time 117840, Note Name: D#3, Velocity: 46
Note OFF: Time 117960, Note Name: D#3
Note ON: Time 117960, Note Name: D3, Velocity: 45
Note OFF: Time 118080, Note Name: D3
Note ON: Time 118080, Note Name: C3, Velocity: 59
Note OFF: Time 118200, Note Name: C3
Note ON: Time 118200, Note Name: D3, Velocity: 45
Note OFF: Time 118320, Note Name: D3
Note ON: Time 118320, Note Name: C3, Velocity: 45
Note OFF: Time 118440, Note Name: C3
Note ON: Time 118440, Note Name: A#2, Velocity: 44
Note OFF: Time 118560, Note Name: A#2
Note ON: Time 118560, Note Name: G#2, Velocity: 57
Note OFF: Time 118680, Note Name: G#2
Note ON: Time 118680, Note Name: A#2, Velocity: 44
Note OFF: Time 118800, Note Name: A#2
Note ON: Time 118800, Note Name: G#2, Velocity: 42
Note OFF: Time 118920, Note Name: G#2
Note ON: Time 118920, Note Name: G2, Velocity: 42
Note OFF: Time 119040, Note Name: G2
Note ON: Time 119040, Note Name: F#2, Velocity: 55
Note OFF: Time 119160, Note Name: F#2
Note ON: Time 119160, Note Name: G2, Velocity: 41
Note OFF: Time 119280, Note Name: G2
Note ON: Time 119280, Note Name: F#2, Velocity: 41
Note OFF: Time 119400, Note Name: F#2
Note ON: Time 119400, Note Name: E2, Velocity: 41
Note OFF: Time 119520, Note Name: E2
Note ON: Time 119520, Note Name: D2, Velocity: 56
Note OFF: Time 119640, Note Name: D2
Note ON: Time 119640, Note Name: E2, Velocity: 42
Note OFF: Time 119760, Note Name: E2
Note ON: Time 119760, Note Name: F#2, Velocity: 42
Note OFF: Time 119880, Note Name: F#2
Note ON: Time 119880, Note Name: D2, Velocity: 42
Note OFF: Time 120000, Note Name: D2
Note ON: Time 120000, Note Name: G2, Velocity: 55
Note OFF: Time 120120, Note Name: G2
Note ON: Time 120120, Note Name: A2, Velocity: 42
Note OFF: Time 120240, Note Name: A2
Note ON: Time 120240, Note Name: A#2, Velocity: 41
Note OFF: Time 120360, Note Name: A#2
Note ON: Time 120360, Note Name: G2, Velocity: 41
Note OFF: Time 120480, Note Name: G2
Note ON: Time 120480, Note Name: D3, Velocity: 57
Note OFF: Time 120600, Note Name: D3
Note ON: Time 120600, Note Name: C3, Velocity: 45
Note OFF: Time 120720, Note Name: C3
Note ON: Time 120720, Note Name: A#2, Velocity: 45
Note OFF: Time 120840, Note Name: A#2
Note ON: Time 120840, Note Name: A2, Velocity: 45
Note OFF: Time 120960, Note Name: A2
Note ON: Time 120960, Note Name: G2, Velocity: 60
Note OFF: Time 121080, Note Name: G2
Note ON: Time 121080, Note Name: A#2, Velocity: 46
Note OFF: Time 121200, Note Name: A#2
Note ON: Time 121200, Note Name: D3, Velocity: 46
Note OFF: Time 121320, Note Name: D3
Note ON: Time 121320, Note Name: G3, Velocity: 42
Note OFF: Time 121440, Note Name: G3
Note ON: Time 121440, Note Name: G2, Velocity: 57
Note OFF: Time 121890, Note Name: G2
Note ON: Time 122400, Note Name: G#4, Velocity: 67
Note OFF: Time 122520, Note Name: G#4
Note ON: Time 122520, Note Name: A#4, Velocity: 46
Note OFF: Time 122640, Note Name: A#4
Note ON: Time 122640, Note Name: G#4, Velocity: 46
Note OFF: Time 122760, Note Name: G#4
Note ON: Time 122760, Note Name: G4, Velocity: 46
Note OFF: Time 122880, Note Name: G4
Note ON: Time 122880, Note Name: F4, Velocity: 59
Note OFF: Time 123000, Note Name: F4
Note ON: Time 123000, Note Name: G4, Velocity: 46
Note OFF: Time 123120, Note Name: G4
Note ON: Time 123120, Note Name: F4, Velocity: 46
Note OFF: Time 123240, Note Name: F4
Note ON: Time 123240, Note Name: D#4, Velocity: 46
Note OFF: Time 123360, Note Name: D#4
Note ON: Time 123360, Note Name: G3, Velocity: 56
Note ON: Time 123360, Note Name: D4, Velocity: 67
Note OFF: Time 123840, Note Name: D4
Note OFF: Time 123840, Note Name: G3
Note ON: Time 123840, Note Name: C4, Velocity: 56
Note ON: Time 123840, Note Name: D#4, Velocity: 67
Note OFF: Time 124080, Note Name: D#4
Note OFF: Time 124080, Note Name: C4
Note ON: Time 125280, Note Name: D#4, Velocity: 67
Note OFF: Time 125400, Note Name: D#4
Note ON: Time 125400, Note Name: F4, Velocity: 46
Note OFF: Time 125520, Note Name: F4
Note ON: Time 125520, Note Name: D#4, Velocity: 46
Note OFF: Time 125640, Note Name: D#4
Note ON: Time 125640, Note Name: D4, Velocity: 46
Note OFF: Time 125760, Note Name: D4
Note ON: Time 125760, Note Name: C4, Velocity: 59
Note OFF: Time 125880, Note Name: C4
Note ON: Time 125880, Note Name: D4, Velocity: 46
Note OFF: Time 126000, Note Name: D4
Note ON: Time 126000, Note Name: C4, Velocity: 46
Note OFF: Time 126120, Note Name: C4
Note ON: Time 126120, Note Name: A#3, Velocity: 46
Note OFF: Time 126240, Note Name: A#3
Note ON: Time 126240, Note Name: D3, Velocity: 56
Note ON: Time 126240, Note Name: A3, Velocity: 67
Note OFF: Time 126720, Note Name: A3
Note OFF: Time 126720, Note Name: D3
Note ON: Time 126720, Note Name: G3, Velocity: 56
Note ON: Time 126720, Note Name: A#3, Velocity: 67
Note OFF: Time 126960, Note Name: A#3
Note OFF: Time 126960, Note Name: G3
Note ON: Time 127680, Note Name: D4, Velocity: 62
Note OFF: Time 127800, Note Name: D4
Note ON: Time 127800, Note Name: D#4, Velocity: 48
Note OFF: Time 127920, Note Name: D#4
Note ON: Time 127920, Note Name: D4, Velocity: 48
Note OFF: Time 128040, Note Name: D4
Note ON: Time 128040, Note Name: C4, Velocity: 48
Note OFF: Time 128160, Note Name: C4
Note ON: Time 128160, Note Name: A#3, Velocity: 62
Note OFF: Time 128280, Note Name: A#3
Note ON: Time 128280, Note Name: C4, Velocity: 48
Note OFF: Time 128400, Note Name: C4
Note ON: Time 128400, Note Name: A#3, Velocity: 47
Note OFF: Time 128520, Note Name: A#3
Note ON: Time 128520, Note Name: A3, Velocity: 47
Note OFF: Time 128640, Note Name: A3
Note ON: Time 128640, Note Name: G3, Velocity: 63
Note OFF: Time 128760, Note Name: G3
Note ON: Time 128760, Note Name: A3, Velocity: 46
Note OFF: Time 128880, Note Name: A3
Note ON: Time 128880, Note Name: G3, Velocity: 46
Note OFF: Time 129000, Note Name: G3
Note ON: Time 129000, Note Name: F3, Velocity: 46
Note OFF: Time 129120, Note Name: F3
Note ON: Time 129120, Note Name: D#3, Velocity: 58
Note OFF: Time 129240, Note Name: D#3
Note ON: Time 129240, Note Name: F3, Velocity: 46
Note OFF: Time 129360, Note Name: F3
Note ON: Time 129360, Note Name: D#3, Velocity: 46
Note OFF: Time 129480, Note Name: D#3
Note ON: Time 129480, Note Name: D3, Velocity: 45
Note OFF: Time 129600, Note Name: D3
Note ON: Time 129600, Note Name: C3, Velocity: 59
Note OFF: Time 129720, Note Name: C3
Note ON: Time 129720, Note Name: D3, Velocity: 45
Note OFF: Time 129840, Note Name: D3
Note ON: Time 129840, Note Name: C3, Velocity: 45
Note OFF: Time 129960, Note Name: C3
Note ON: Time 129960, Note Name: A#2, Velocity: 44
Note OFF: Time 130080, Note Name: A#2
Note ON: Time 130080, Note Name: G#2, Velocity: 57
Note OFF: Time 130200, Note Name: G#2
Note ON: Time 130200, Note Name: A#2, Velocity: 44
Note OFF: Time 130320, Note Name: A#2
Note ON: Time 130320, Note Name: G#2, Velocity: 42
Note OFF: Time 130440, Note Name: G#2
Note ON: Time 130440, Note Name: G2, Velocity: 42
Note OFF: Time 130560, Note Name: G2
Note ON: Time 130560, Note Name: F#2, Velocity: 55
Note OFF: Time 130680, Note Name: F#2
Note ON: Time 130680, Note Name: G2, Velocity: 41
Note OFF: Time 130800, Note Name: G2
Note ON: Time 130800, Note Name: F#2, Velocity: 41
Note OFF: Time 130920, Note Name: F#2
Note ON: Time 130920, Note Name: E2, Velocity: 41
Note OFF: Time 131040, Note Name: E2
Note ON: Time 131040, Note Name: D2, Velocity: 56
Note OFF: Time 131160, Note Name: D2
Note ON: Time 131160, Note Name: E2, Velocity: 42
Note OFF: Time 131280, Note Name: E2
Note ON: Time 131280, Note Name: F#2, Velocity: 42
Note OFF: Time 131400, Note Name: F#2
Note ON: Time 131400, Note Name: D2, Velocity: 42
Note OFF: Time 131520, Note Name: D2
Note ON: Time 131520, Note Name: G2, Velocity: 55
Note OFF: Time 131640, Note Name: G2
Note ON: Time 131640, Note Name: A2, Velocity: 42
Note OFF: Time 131760, Note Name: A2
Note ON: Time 131760, Note Name: A#2, Velocity: 41
Note OFF: Time 131880, Note Name: A#2
Note ON: Time 131880, Note Name: G2, Velocity: 41
Note OFF: Time 132000, Note Name: G2
Note ON: Time 132000, Note Name: D3, Velocity: 57
Note OFF: Time 132120, Note Name: D3
Note ON: Time 132120, Note Name: C3, Velocity: 45
Note OFF: Time 132240, Note Name: C3
Note ON: Time 132240, Note Name: A#2, Velocity: 45
Note OFF: Time 132360, Note Name: A#2
Note ON: Time 132360, Note Name: A2, Velocity: 45
Note OFF: Time 132480, Note Name: A2
Note ON: Time 132480, Note Name: G2, Velocity: 60
Note OFF: Time 132600, Note Name: G2
Note ON: Time 132600, Note Name: A#2, Velocity: 46
Note OFF: Time 132720, Note Name: A#2
Note ON: Time 132720, Note Name: D3, Velocity: 46
Note OFF: Time 132840, Note Name: D3
Note ON: Time 132840, Note Name: G3, Velocity: 42
Note OFF: Time 132960, Note Name: G3
Note ON: Time 132960, Note Name: G2, Velocity: 57
Note OFF: Time 133410, Note Name: G2
Note ON: Time 133920, Note Name: A#2, Velocity: 40
Note OFF: Time 134040, Note Name: A#2
Note ON: Time 134160, Note Name: A#3, Velocity: 29
Note OFF: Time 134400, Note Name: A#3
Note ON: Time 134400, Note Name: D4, Velocity: 34
Note OFF: Time 134640, Note Name: D4
Note ON: Time 134640, Note Name: A#3, Velocity: 29
Note OFF: Time 134880, Note Name: A#3
Note ON: Time 134880, Note Name: D#4, Velocity: 34
Note OFF: Time 135120, Note Name: D#4
Note ON: Time 135120, Note Name: C4, Velocity: 31
Note OFF: Time 135360, Note Name: C4
Note ON: Time 135360, Note Name: D4, Velocity: 40
Note OFF: Time 135600, Note Name: D4
Note ON: Time 135600, Note Name: C#4, Velocity: 30
Note OFF: Time 135840, Note Name: C#4
Note ON: Time 135840, Note Name: D4, Velocity: 34
Note OFF: Time 136080, Note Name: D4
Note ON: Time 136080, Note Name: A#3, Velocity: 30
Note OFF: Time 136320, Note Name: A#3
Note ON: Time 136320, Note Name: D#4, Velocity: 34
Note OFF: Time 136560, Note Name: D#4
Note ON: Time 136560, Note Name: C4, Velocity: 29
Note OFF: Time 136800, Note Name: C4
Note ON: Time 136800, Note Name: D4, Velocity: 40
Note OFF: Time 137040, Note Name: D4
Note ON: Time 137040, Note Name: C#4, Velocity: 30
Note OFF: Time 137280, Note Name: C#4
Note ON: Time 137280, Note Name: D4, Velocity: 34
Note OFF: Time 137520, Note Name: D4
Note ON: Time 137520, Note Name: A3, Velocity: 30
Note OFF: Time 137760, Note Name: A3
Note ON: Time 137760, Note Name: A#3, Velocity: 34
Note OFF: Time 138000, Note Name: A#3
Note ON: Time 138000, Note Name: G3, Velocity: 30
Note OFF: Time 138230, Note Name: G3
Note ON: Time 138240, Note Name: F3, Velocity: 40
Note ON: Time 138720, Note Name: F4, Velocity: 35
Note OFF: Time 138960, Note Name: F4
Note OFF: Time 138960, Note Name: F3
Note ON: Time 139920, Note Name: F3, Velocity: 36
Note ON: Time 140160, Note Name: A3, Velocity: 40
Note OFF: Time 140400, Note Name: A3
Note ON: Time 140400, Note Name: C4, Velocity: 37
Note OFF: Time 140640, Note Name: C4
Note ON: Time 140640, Note Name: D#4, Velocity: 40
Note OFF: Time 141360, Note Name: D#4
Note OFF: Time 141360, Note Name: F3
Note ON: Time 141360, Note Name: F3, Velocity: 42
Note ON: Time 141600, Note Name: C4, Velocity: 48
Note OFF: Time 141840, Note Name: C4
Note ON: Time 141840, Note Name: D#4, Velocity: 41
Note OFF: Time 142080, Note Name: D#4
Note ON: Time 142080, Note Name: F#4, Velocity: 55
Note OFF: Time 143040, Note Name: F#4
Note OFF: Time 143040, Note Name: F3
Note ON: Time 143040, Note Name: F4, Velocity: 38
Note ON: Time 143040, Note Name: F3, Velocity: 38
Note OFF: Time 143520, Note Name: F3
Note OFF: Time 143520, Note Name: F4
Note ON: Time 143520, Note Name: F3, Velocity: 32
Note ON: Time 143520, Note Name: D#4, Velocity: 32
Note OFF: Time 144000, Note Name: D#4
Note OFF: Time 144000, Note Name: F3
Note ON: Time 144000, Note Name: A#3, Velocity: 30
Note ON: Time 144000, Note Name: D#4, Velocity: 36
Note OFF: Time 144480, Note Name: D#4
Note ON: Time 144480, Note Name: D4, Velocity: 32
Note OFF: Time 144720, Note Name: D4
Note OFF: Time 144720, Note Name: A#3
Note ON: Time 144960, Note Name: F#4, Velocity: 38
Note OFF: Time 145080, Note Name: F#4
Note ON: Time 145080, Note Name: G4, Velocity: 33
Note OFF: Time 145200, Note Name: G4
Note ON: Time 145200, Note Name: F#4, Velocity: 41
Note OFF: Time 145320, Note Name: F#4
Note ON: Time 145320, Note Name: G4, Velocity: 38
Note OFF: Time 145440, Note Name: G4
Note ON: Time 145440, Note Name: F#4, Velocity: 45
Note OFF: Time 145560, Note Name: F#4
Note ON: Time 145560, Note Name: G4, Velocity: 39
Note OFF: Time 145680, Note Name: G4
Note ON: Time 145680, Note Name: F#4, Velocity: 48
Note OFF: Time 145800, Note Name: F#4
Note ON: Time 145800, Note Name: G4, Velocity: 44
Note OFF: Time 145920, Note Name: G4
Note ON: Time 145920, Note Name: F#4, Velocity: 52
Note OFF: Time 146040, Note Name: F#4
Note ON: Time 146040, Note Name: G4, Velocity: 44
Note OFF: Time 146160, Note Name: G4
Note ON: Time 146160, Note Name: F#4, Velocity: 55
Note OFF: Time 146280, Note Name: F#4
Note ON: Time 146280, Note Name: G4, Velocity: 51
Note OFF: Time 146400, Note Name: G4
Note ON: Time 146400, Note Name: F#4, Velocity: 59
Note OFF: Time 146520, Note Name: F#4
Note ON: Time 146520, Note Name: G4, Velocity: 51
Note OFF: Time 146640, Note Name: G4
Note ON: Time 146640, Note Name: F#4, Velocity: 63
Note OFF: Time 146760, Note Name: F#4
Note ON: Time 146760, Note Name: G4, Velocity: 58
Note OFF: Time 146880, Note Name: G4
Note ON: Time 146880, Note Name: F#4, Velocity: 69
Note OFF: Time 147120, Note Name: F#4
Note ON: Time 147360, Note Name: D3, Velocity: 62
Note ON: Time 147360, Note Name: D4, Velocity: 74
Note OFF: Time 148080, Note Name: D4
Note OFF: Time 148080, Note Name: D3
Note ON: Time 148080, Note Name: D3, Velocity: 46
Note ON: Time 148080, Note Name: D4, Velocity: 56
Note OFF: Time 148200, Note Name: D4
Note OFF: Time 148200, Note Name: D3
Note ON: Time 148320, Note Name: D#3, Velocity: 57
Note ON: Time 148320, Note Name: D#4, Velocity: 68
Note OFF: Time 148560, Note Name: D#4
Note OFF: Time 148560, Note Name: D#3
Note ON: Time 148680, Note Name: C3, Velocity: 45
Note ON: Time 148680, Note Name: C4, Velocity: 53
Note OFF: Time 148740, Note Name: C4
Note OFF: Time 148740, Note Name: C3
Note ON: Time 148800, Note Name: D3, Velocity: 53
Note ON: Time 148800, Note Name: D4, Velocity: 63
Note OFF: Time 149040, Note Name: D4
Note OFF: Time 149040, Note Name: D3
Note ON: Time 149280, Note Name: D2, Velocity: 51
Note ON: Time 149280, Note Name: D3, Velocity: 61
Note OFF: Time 149520, Note Name: D3
Note OFF: Time 149520, Note Name: D2
Note ON: Time 149760, Note Name: G2, Velocity: 51
Note ON: Time 149760, Note Name: G3, Velocity: 61
Note OFF: Time 150480, Note Name: G3
Note OFF: Time 150480, Note Name: G2
Note ON: Time 150720, Note Name: D3, Velocity: 25
Note ON: Time 150840, Note Name: D#3, Velocity: 22
Note OFF: Time 150841, Note Name: D3
Note ON: Time 150960, Note Name: D3, Velocity: 27
Note OFF: Time 150961, Note Name: D#3
Note ON: Time 151080, Note Name: D#3, Velocity: 24
Note OFF: Time 151081, Note Name: D3
Note ON: Time 151200, Note Name: D3, Velocity: 29
Note OFF: Time 151201, Note Name: D#3
Note ON: Time 151320, Note Name: D#3, Velocity: 25
Note OFF: Time 151321, Note Name: D3
Note ON: Time 151440, Note Name: D3, Velocity: 32
Note OFF: Time 151441, Note Name: D#3
Note ON: Time 151560, Note Name: D#3, Velocity: 29
Note OFF: Time 151561, Note Name: D3
Note ON: Time 151680, Note Name: D3, Velocity: 34
Note OFF: Time 151681, Note Name: D#3
Note ON: Time 151800, Note Name: D#3, Velocity: 30
Note OFF: Time 151801, Note Name: D3
Note ON: Time 151920, Note Name: D3, Velocity: 37
Note OFF: Time 151921, Note Name: D#3
Note ON: Time 152040, Note Name: D#3, Velocity: 34
Note OFF: Time 152041, Note Name: D3
Note ON: Time 152160, Note Name: D3, Velocity: 39
Note OFF: Time 152161, Note Name: D#3
Note ON: Time 152280, Note Name: D#3, Velocity: 34
Note OFF: Time 152281, Note Name: D3
Note ON: Time 152400, Note Name: D3, Velocity: 41
Note OFF: Time 152401, Note Name: D#3
Note ON: Time 152520, Note Name: D#3, Velocity: 38
Note OFF: Time 152521, Note Name: D3
Note ON: Time 152640, Note Name: D3, Velocity: 54
Note OFF: Time 152641, Note Name: D#3
Note OFF: Time 152880, Note Name: D3
Note ON: Time 153120, Note Name: D3, Velocity: 53
Note ON: Time 153120, Note Name: F3, Velocity: 64
Note OFF: Time 153840, Note Name: F3
Note OFF: Time 153840, Note Name: D3
Note ON: Time 153840, Note Name: D#3, Velocity: 36
Note ON: Time 153840, Note Name: G3, Velocity: 43
Note OFF: Time 154080, Note Name: G3
Note OFF: Time 154080, Note Name: D#3
Note ON: Time 154080, Note Name: B2, Velocity: 43
Note ON: Time 154080, Note Name: D3, Velocity: 51
Note OFF: Time 154440, Note Name: D3
Note OFF: Time 154440, Note Name: B2
Note ON: Time 154440, Note Name: C3, Velocity: 32
Note ON: Time 154440, Note Name: D#3, Velocity: 39
Note OFF: Time 154560, Note Name: D#3
Note OFF: Time 154560, Note Name: C3
Note ON: Time 154560, Note Name: D3, Velocity: 38
Note ON: Time 154560, Note Name: F3, Velocity: 45
Note OFF: Time 155040, Note Name: F3
Note OFF: Time 155040, Note Name: D3
Note ON: Time 155040, Note Name: D#3, Velocity: 34
Note ON: Time 155040, Note Name: G3, Velocity: 41
Note OFF: Time 155520, Note Name: G3
Note OFF: Time 155520, Note Name: D#3
Note ON: Time 155520, Note Name: F3, Velocity: 36
Note OFF: Time 156000, Note Name: F3
Note ON: Time 156000, Note Name: F2, Velocity: 30
Note OFF: Time 156240, Note Name: F2
Note ON: Time 156960, Note Name: A#2, Velocity: 40
Note OFF: Time 157080, Note Name: A#2
Note ON: Time 157200, Note Name: A#3, Velocity: 29
Note OFF: Time 157440, Note Name: A#3
Note ON: Time 157440, Note Name: D4, Velocity: 34
Note OFF: Time 157680, Note Name: D4
Note ON: Time 157680, Note Name: A#3, Velocity: 29
Note OFF: Time 157920, Note Name: A#3
Note ON: Time 157920, Note Name: D#4, Velocity: 34
Note OFF: Time 158160, Note Name: D#4
Note ON: Time 158160, Note Name: C4, Velocity: 31
Note OFF: Time 158400, Note Name: C4
Note ON: Time 158400, Note Name: D4, Velocity: 40
Note OFF: Time 158640, Note Name: D4
Note ON: Time 158640, Note Name: C#4, Velocity: 30
Note OFF: Time 158880, Note Name: C#4
Note ON: Time 158880, Note Name: D4, Velocity: 34
Note OFF: Time 159120, Note Name: D4
Note ON: Time 159120, Note Name: A#3, Velocity: 30
Note OFF: Time 159360, Note Name: A#3
Note ON: Time 159360, Note Name: D#4, Velocity: 34
Note OFF: Time 159600, Note Name: D#4
Note ON: Time 159600, Note Name: C4, Velocity: 29
Note OFF: Time 159840, Note Name: C4
Note ON: Time 159840, Note Name: D4, Velocity: 40
Note OFF: Time 160080, Note Name: D4
Note ON: Time 160080, Note Name: C#4, Velocity: 30
Note OFF: Time 160320, Note Name: C#4
Note ON: Time 160320, Note Name: D4, Velocity: 34
Note OFF: Time 160560, Note Name: D4
Note ON: Time 160560, Note Name: A3, Velocity: 30
Note OFF: Time 160800, Note Name: A3
Note ON: Time 160800, Note Name: A#3, Velocity: 34
Note OFF: Time 161040, Note Name: A#3
Note ON: Time 161040, Note Name: G3, Velocity: 30
Note OFF: Time 161270, Note Name: G3
Note ON: Time 161280, Note Name: F3, Velocity: 40
Note ON: Time 161760, Note Name: F4, Velocity: 35
Note OFF: Time 162000, Note Name: F4
Note OFF: Time 162000, Note Name: F3
Note ON: Time 162840, Note Name: F2, Velocity: 37
Note OFF: Time 162960, Note Name: F2
Note ON: Time 162960, Note Name: A2, Velocity: 38
Note OFF: Time 163080, Note Name: A2
Note ON: Time 163080, Note Name: C3, Velocity: 39
Note OFF: Time 163200, Note Name: C3
Note ON: Time 163200, Note Name: F3, Velocity: 40
Note OFF: Time 163320, Note Name: F3
Note ON: Time 163320, Note Name: A3, Velocity: 41
Note OFF: Time 163440, Note Name: A3
Note ON: Time 163440, Note Name: C4, Velocity: 42
Note OFF: Time 163560, Note Name: C4
Note ON: Time 163560, Note Name: D4, Velocity: 43
Note OFF: Time 163680, Note Name: D4
Note ON: Time 163680, Note Name: D#4, Velocity: 48
Note OFF: Time 164280, Note Name: D#4
Note ON: Time 164280, Note Name: F2, Velocity: 37
Note OFF: Time 164400, Note Name: F2
Note ON: Time 164400, Note Name: A2, Velocity: 41
Note OFF: Time 164520, Note Name: A2
Note ON: Time 164520, Note Name: C3, Velocity: 43
Note OFF: Time 164640, Note Name: C3
Note ON: Time 164640, Note Name: F3, Velocity: 44
Note OFF: Time 164760, Note Name: F3
Note ON: Time 164760, Note Name: A3, Velocity: 46
Note OFF: Time 164880, Note Name: A3
Note ON: Time 164880, Note Name: C4, Velocity: 48
Note OFF: Time 165000, Note Name: C4
Note ON: Time 165000, Note Name: D#4, Velocity: 49
Note OFF: Time 165120, Note Name: D#4
Note ON: Time 165120, Note Name: F#4, Velocity: 55
Note OFF: Time 166080, Note Name: F#4
Note ON: Time 166080, Note Name: F4, Velocity: 38
Note ON: Time 166080, Note Name: F3, Velocity: 38
Note OFF: Time 166560, Note Name: F3
Note OFF: Time 166560, Note Name: F4
Note ON: Time 166560, Note Name: F3, Velocity: 32
Note ON: Time 166560, Note Name: D#4, Velocity: 32
Note OFF: Time 167040, Note Name: D#4
Note OFF: Time 167040, Note Name: F3
Note ON: Time 167040, Note Name: A#2, Velocity: 40
Note OFF: Time 167160, Note Name: A#2
Note ON: Time 167280, Note Name: A#3, Velocity: 29
Note OFF: Time 167520, Note Name: A#3
Note ON: Time 167520, Note Name: D4, Velocity: 34
Note OFF: Time 167760, Note Name: D4
Note ON: Time 167760, Note Name: A#3, Velocity: 29
Note OFF: Time 168000, Note Name: A#3
Note ON: Time 168000, Note Name: D#4, Velocity: 34
Note OFF: Time 168240, Note Name: D#4
Note ON: Time 168240, Note Name: A#3, Velocity: 31
Note OFF: Time 168480, Note Name: A#3
Note ON: Time 168480, Note Name: D4, Velocity: 40
Note OFF: Time 168720, Note Name: D4
Note ON: Time 168720, Note Name: C#4, Velocity: 30
Note OFF: Time 168960, Note Name: C#4
Note ON: Time 168960, Note Name: D4, Velocity: 34
Note OFF: Time 169200, Note Name: D4
Note ON: Time 169200, Note Name: A#3, Velocity: 30
Note OFF: Time 169440, Note Name: A#3
Note ON: Time 169440, Note Name: C4, Velocity: 34
Note OFF: Time 169680, Note Name: C4
Note ON: Time 169680, Note Name: F3, Velocity: 29
Note OFF: Time 169920, Note Name: F3
Note ON: Time 169920, Note Name: A#3, Velocity: 40
Note OFF: Time 170160, Note Name: A#3
Note ON: Time 170160, Note Name: A#2, Velocity: 30
Note OFF: Time 170400, Note Name: A#2
Note ON: Time 170400, Note Name: D3, Velocity: 34
Note OFF: Time 170640, Note Name: D3
Note ON: Time 170640, Note Name: A#2, Velocity: 30
Note OFF: Time 170880, Note Name: A#2
Note ON: Time 170880, Note Name: D#3, Velocity: 34
Note OFF: Time 171120, Note Name: D#3
Note ON: Time 171120, Note Name: A#2, Velocity: 29
Note OFF: Time 171360, Note Name: A#2
Note ON: Time 171360, Note Name: D3, Velocity: 40
Note OFF: Time 171600, Note Name: D3
Note ON: Time 171600, Note Name: C#3, Velocity: 30
Note OFF: Time 171840, Note Name: C#3
Note ON: Time 171840, Note Name: D3, Velocity: 34
Note OFF: Time 172080, Note Name: D3
Note ON: Time 172080, Note Name: A#2, Velocity: 30
Note OFF: Time 172320, Note Name: A#2
Note ON: Time 172320, Note Name: C3, Velocity: 34
Note OFF: Time 172560, Note Name: C3
Note ON: Time 172560, Note Name: F2, Velocity: 29
Note OFF: Time 172800, Note Name: F2
Note ON: Time 172800, Note Name: A#2, Velocity: 40
Note OFF: Time 173040, Note Name: A#2
Note ON: Time 173040, Note Name: D3, Velocity: 30
Note OFF: Time 173280, Note Name: D3
Note ON: Time 173280, Note Name: C3, Velocity: 35
Note OFF: Time 173520, Note Name: C3
Note ON: Time 173520, Note Name: F2, Velocity: 31
Note OFF: Time 173760, Note Name: F2
Note ON: Time 173760, Note Name: A#2, Velocity: 36
Note OFF: Time 174000, Note Name: A#2
Note ON: Time 174000, Note Name: D3, Velocity: 31
Note OFF: Time 174240, Note Name: D3
Note ON: Time 174240, Note Name: C3, Velocity: 44
Note OFF: Time 174480, Note Name: C3
Note ON: Time 174480, Note Name: F2, Velocity: 33
Note OFF: Time 174720, Note Name: F2
Note ON: Time 174720, Note Name: A#2, Velocity: 45
Note OFF: Time 174840, Note Name: A#2
Note ON: Time 174840, Note Name: D3, Velocity: 37
Note OFF: Time 174960, Note Name: D3
Note ON: Time 174960, Note Name: F2, Velocity: 46
Note OFF: Time 175080, Note Name: F2
Note ON: Time 175080, Note Name: C3, Velocity: 39
Note OFF: Time 175200, Note Name: C3
Note ON: Time 175200, Note Name: A#2, Velocity: 47
Note OFF: Time 175320, Note Name: A#2
Note ON: Time 175320, Note Name: D3, Velocity: 41
Note OFF: Time 175440, Note Name: D3
Note ON: Time 175440, Note Name: F2, Velocity: 49
Note OFF: Time 175560, Note Name: F2
Note ON: Time 175560, Note Name: C3, Velocity: 43
Note OFF: Time 175680, Note Name: C3
Note ON: Time 175680, Note Name: A#2, Velocity: 24
Note ON: Time 175680, Note Name: D3, Velocity: 30
Note OFF: Time 175800, Note Name: D3
Note OFF: Time 175800, Note Name: A#2
Note ON: Time 176160, Note Name: A#1, Velocity: 24
Note ON: Time 176160, Note Name: A#2, Velocity: 30
Note OFF: Time 176280, Note Name: A#2
Note OFF: Time 176280, Note Name: A#1
Track 3: Pedale
Track 4: Beethoven: Grande Sonate Opus 22 - 3. movement
Track 5: Copyright  2009 by Bernd Krueger
Track 6: http://www.piano-midi.de/
Track 7: Edition: 2012-05-29
Track 8: Spur 8
Track 9: Spur 9
Track 10: Spur 10
Track 11: Spur 11
Track 12: Spur 12
Track 13: Spur 13
Track 14: Spur 14
Track 15: Spur 15
Track 16: Spur 16
