Processing beethoven_opus10_1.mid...

Track 0: Klaviersonate No. 5 -  1. Satz
Track 1: Piano right
Note ON: Time 0, Note Name: D#4, Velocity: 69
Note ON: Time 0, Note Name: G4, Velocity: 69
Note ON: Time 0, Note Name: C5, Velocity: 82
Note OFF: Time 720, Note Name: C5
Note OFF: Time 720, Note Name: G4
Note OFF: Time 720, Note Name: D#4
Note ON: Time 840, Note Name: G4, Velocity: 70
Note OFF: Time 960, Note Name: G4
Note ON: Time 960, Note Name: D#5, Velocity: 78
Note OFF: Time 1320, Note Name: D#5
Note ON: Time 1320, Note Name: C5, Velocity: 70
Note OFF: Time 1440, Note Name: C5
Note ON: Time 1440, Note Name: G5, Velocity: 79
Note OFF: Time 1800, Note Name: G5
Note ON: Time 1800, Note Name: D#5, Velocity: 70
Note OFF: Time 1920, Note Name: D#5
Note ON: Time 1920, Note Name: C6, Velocity: 79
Note OFF: Time 2280, Note Name: C6
Note ON: Time 2280, Note Name: G5, Velocity: 70
Note OFF: Time 2400, Note Name: G5
Note ON: Time 2400, Note Name: D#6, Velocity: 84
Note OFF: Time 2520, Note Name: D#6
Note ON: Time 2880, Note Name: D#6, Velocity: 84
Note OFF: Time 3000, Note Name: D#6
Note ON: Time 3840, Note Name: G4, Velocity: 39
Note ON: Time 3840, Note Name: C5, Velocity: 46
Note OFF: Time 4080, Note Name: C5
Note OFF: Time 4080, Note Name: G4
Note ON: Time 4320, Note Name: G4, Velocity: 42
Note ON: Time 4320, Note Name: C5, Velocity: 50
Note OFF: Time 5280, Note Name: C5
Note OFF: Time 5280, Note Name: G4
Note ON: Time 5280, Note Name: G4, Velocity: 39
Note ON: Time 5290, Note Name: B4, Velocity: 46
Note OFF: Time 5750, Note Name: G4
Note OFF: Time 5760, Note Name: B4
Note ON: Time 5760, Note Name: G#4, Velocity: 69
Note ON: Time 5760, Note Name: F4, Velocity: 69
Note ON: Time 5760, Note Name: B4, Velocity: 82
Note OFF: Time 6480, Note Name: B4
Note OFF: Time 6480, Note Name: F4
Note OFF: Time 6480, Note Name: G#4
Note ON: Time 6600, Note Name: B4, Velocity: 70
Note OFF: Time 6720, Note Name: B4
Note ON: Time 6720, Note Name: F5, Velocity: 78
Note OFF: Time 7080, Note Name: F5
Note ON: Time 7080, Note Name: D5, Velocity: 70
Note OFF: Time 7200, Note Name: D5
Note ON: Time 7200, Note Name: B5, Velocity: 79
Note OFF: Time 7560, Note Name: B5
Note ON: Time 7560, Note Name: F5, Velocity: 70
Note OFF: Time 7680, Note Name: F5
Note ON: Time 7680, Note Name: D6, Velocity: 79
Note OFF: Time 8040, Note Name: D6
Note ON: Time 8040, Note Name: B5, Velocity: 70
Note OFF: Time 8160, Note Name: B5
Note ON: Time 8160, Note Name: F6, Velocity: 84
Note OFF: Time 8280, Note Name: F6
Note ON: Time 8640, Note Name: F6, Velocity: 84
Note OFF: Time 8760, Note Name: F6
Note ON: Time 9600, Note Name: B4, Velocity: 39
Note ON: Time 9600, Note Name: D5, Velocity: 46
Note OFF: Time 9840, Note Name: D5
Note OFF: Time 9840, Note Name: B4
Note ON: Time 10080, Note Name: B4, Velocity: 42
Note ON: Time 10080, Note Name: D5, Velocity: 50
Note OFF: Time 11040, Note Name: D5
Note OFF: Time 11040, Note Name: B4
Note ON: Time 11040, Note Name: C5, Velocity: 46
Note OFF: Time 11400, Note Name: C5
Note ON: Time 11400, Note Name: C5, Velocity: 45
Note OFF: Time 11460, Note Name: C5
Note ON: Time 11460, Note Name: D#5, Velocity: 48
Note OFF: Time 11520, Note Name: D#5
Note ON: Time 11520, Note Name: G5, Velocity: 53
Note OFF: Time 12240, Note Name: G5
Note ON: Time 12240, Note Name: F5, Velocity: 41
Note OFF: Time 12480, Note Name: F5
Note ON: Time 12480, Note Name: D#5, Velocity: 51
Note OFF: Time 12960, Note Name: D#5
Note ON: Time 12960, Note Name: D5, Velocity: 47
Note OFF: Time 13920, Note Name: D5
Note ON: Time 13920, Note Name: C5, Velocity: 39
Note OFF: Time 14280, Note Name: C5
Note ON: Time 14280, Note Name: G4, Velocity: 27
Note OFF: Time 14320, Note Name: G4
Note ON: Time 14320, Note Name: C5, Velocity: 45
Note OFF: Time 14360, Note Name: C5
Note ON: Time 14360, Note Name: D#5, Velocity: 48
Note OFF: Time 14400, Note Name: D#5
Note ON: Time 14400, Note Name: G5, Velocity: 53
Note OFF: Time 15120, Note Name: G5
Note ON: Time 15120, Note Name: F5, Velocity: 41
Note OFF: Time 15360, Note Name: F5
Note ON: Time 15360, Note Name: C5, Velocity: 43
Note ON: Time 15360, Note Name: D#5, Velocity: 51
Note OFF: Time 15840, Note Name: D#5
Note OFF: Time 15840, Note Name: C5
Note ON: Time 15840, Note Name: B4, Velocity: 39
Note ON: Time 15840, Note Name: D5, Velocity: 47
Note OFF: Time 16800, Note Name: D5
Note OFF: Time 16800, Note Name: B4
Note ON: Time 16800, Note Name: C5, Velocity: 39
Note OFF: Time 17160, Note Name: C5
Note ON: Time 17160, Note Name: G4, Velocity: 60
Note OFF: Time 17200, Note Name: G4
Note ON: Time 17200, Note Name: C5, Velocity: 63
Note OFF: Time 17240, Note Name: C5
Note ON: Time 17240, Note Name: D#5, Velocity: 69
Note OFF: Time 17280, Note Name: D#5
Note ON: Time 17280, Note Name: G4, Velocity: 69
Note ON: Time 17280, Note Name: G5, Velocity: 81
Note OFF: Time 18000, Note Name: G5
Note OFF: Time 18000, Note Name: G4
Note ON: Time 18000, Note Name: F5, Velocity: 61
Note ON: Time 18000, Note Name: F4, Velocity: 51
Note OFF: Time 18240, Note Name: F4
Note OFF: Time 18240, Note Name: F5
Note ON: Time 18240, Note Name: D#5, Velocity: 73
Note ON: Time 18240, Note Name: D#4, Velocity: 62
Note OFF: Time 19200, Note Name: D#4
Note OFF: Time 19200, Note Name: D#5
Note ON: Time 19200, Note Name: D5, Velocity: 72
Note ON: Time 19200, Note Name: D4, Velocity: 61
Note OFF: Time 19320, Note Name: D4
Note OFF: Time 19320, Note Name: D5
Note ON: Time 19680, Note Name: C5, Velocity: 75
Note ON: Time 19680, Note Name: C4, Velocity: 63
Note OFF: Time 20640, Note Name: C4
Note OFF: Time 20640, Note Name: C5
Note ON: Time 20640, Note Name: B3, Velocity: 63
Note ON: Time 20640, Note Name: B4, Velocity: 75
Note OFF: Time 20760, Note Name: B4
Note OFF: Time 20760, Note Name: B3
Note ON: Time 21120, Note Name: G#3, Velocity: 62
Note ON: Time 21120, Note Name: G#4, Velocity: 74
Note OFF: Time 22080, Note Name: G#4
Note OFF: Time 22080, Note Name: G#3
Note ON: Time 22080, Note Name: G3, Velocity: 57
Note ON: Time 22080, Note Name: G4, Velocity: 67
Note OFF: Time 22320, Note Name: G4
Note OFF: Time 22320, Note Name: G3
Note ON: Time 23520, Note Name: B3, Velocity: 42
Note OFF: Time 23680, Note Name: B3
Note ON: Time 23680, Note Name: D4, Velocity: 35
Note OFF: Time 23840, Note Name: D4
Note ON: Time 23840, Note Name: F4, Velocity: 35
Note OFF: Time 24000, Note Name: F4
Note ON: Time 24000, Note Name: G#4, Velocity: 43
Note OFF: Time 24160, Note Name: G#4
Note ON: Time 24160, Note Name: G4, Velocity: 36
Note OFF: Time 24320, Note Name: G4
Note ON: Time 24320, Note Name: F4, Velocity: 36
Note OFF: Time 24480, Note Name: F4
Note ON: Time 24480, Note Name: D#4, Velocity: 43
Note OFF: Time 24600, Note Name: D#4
Note ON: Time 26400, Note Name: F3, Velocity: 42
Note OFF: Time 26560, Note Name: F3
Note ON: Time 26560, Note Name: G#3, Velocity: 35
Note OFF: Time 26720, Note Name: G#3
Note ON: Time 26720, Note Name: D4, Velocity: 35
Note OFF: Time 26880, Note Name: D4
Note ON: Time 26880, Note Name: F4, Velocity: 43
Note OFF: Time 27040, Note Name: F4
Note ON: Time 27040, Note Name: D#4, Velocity: 36
Note OFF: Time 27200, Note Name: D#4
Note ON: Time 27200, Note Name: D4, Velocity: 36
Note OFF: Time 27360, Note Name: D4
Note ON: Time 27360, Note Name: C4, Velocity: 43
Note OFF: Time 27480, Note Name: C4
Note ON: Time 29280, Note Name: G3, Velocity: 66
Note OFF: Time 29440, Note Name: G3
Note ON: Time 29440, Note Name: B3, Velocity: 69
Note OFF: Time 29600, Note Name: B3
Note ON: Time 29600, Note Name: D4, Velocity: 72
Note OFF: Time 29760, Note Name: D4
Note ON: Time 29760, Note Name: F4, Velocity: 75
Note OFF: Time 29920, Note Name: F4
Note ON: Time 29920, Note Name: D4, Velocity: 67
Note OFF: Time 30080, Note Name: D4
Note ON: Time 30080, Note Name: B3, Velocity: 67
Note OFF: Time 30240, Note Name: B3
Note ON: Time 30240, Note Name: G3, Velocity: 79
Note ON: Time 30240, Note Name: D#3, Velocity: 79
Note ON: Time 30240, Note Name: C4, Velocity: 94
Note OFF: Time 30960, Note Name: C4
Note OFF: Time 30960, Note Name: D#3
Note OFF: Time 30960, Note Name: G3
Note ON: Time 31080, Note Name: C4, Velocity: 70
Note OFF: Time 31200, Note Name: C4
Note ON: Time 31200, Note Name: G4, Velocity: 78
Note OFF: Time 31560, Note Name: G4
Note ON: Time 31560, Note Name: D#4, Velocity: 70
Note OFF: Time 31680, Note Name: D#4
Note ON: Time 31680, Note Name: C5, Velocity: 85
Note OFF: Time 32040, Note Name: C5
Note ON: Time 32040, Note Name: G4, Velocity: 72
Note OFF: Time 32160, Note Name: G4
Note ON: Time 32160, Note Name: D#5, Velocity: 80
Note OFF: Time 32520, Note Name: D#5
Note ON: Time 32520, Note Name: C5, Velocity: 83
Note OFF: Time 32640, Note Name: C5
Note ON: Time 32640, Note Name: G5, Velocity: 96
Note ON: Time 32640, Note Name: G4, Velocity: 81
Note OFF: Time 32760, Note Name: G4
Note OFF: Time 32760, Note Name: G5
Note ON: Time 33120, Note Name: G5, Velocity: 96
Note ON: Time 33120, Note Name: G4, Velocity: 81
Note OFF: Time 33240, Note Name: G4
Note OFF: Time 33240, Note Name: G5
Note ON: Time 33960, Note Name: B3, Velocity: 70
Note OFF: Time 34080, Note Name: B3
Note ON: Time 34080, Note Name: G4, Velocity: 78
Note OFF: Time 34440, Note Name: G4
Note ON: Time 34440, Note Name: D4, Velocity: 70
Note OFF: Time 34560, Note Name: D4
Note ON: Time 34560, Note Name: B4, Velocity: 85
Note OFF: Time 34920, Note Name: B4
Note ON: Time 34920, Note Name: G4, Velocity: 74
Note OFF: Time 35040, Note Name: G4
Note ON: Time 35040, Note Name: D5, Velocity: 86
Note OFF: Time 35400, Note Name: D5
Note ON: Time 35400, Note Name: B4, Velocity: 83
Note OFF: Time 35520, Note Name: B4
Note ON: Time 35520, Note Name: G5, Velocity: 96
Note ON: Time 35520, Note Name: G4, Velocity: 81
Note OFF: Time 35640, Note Name: G4
Note OFF: Time 35640, Note Name: G5
Note ON: Time 36000, Note Name: G5, Velocity: 96
Note ON: Time 36000, Note Name: G4, Velocity: 81
Note OFF: Time 36120, Note Name: G4
Note OFF: Time 36120, Note Name: G5
Note ON: Time 36840, Note Name: D#4, Velocity: 70
Note OFF: Time 36960, Note Name: D#4
Note ON: Time 36960, Note Name: G4, Velocity: 78
Note OFF: Time 37320, Note Name: G4
Note ON: Time 37320, Note Name: D#4, Velocity: 70
Note OFF: Time 37440, Note Name: D#4
Note ON: Time 37440, Note Name: C5, Velocity: 85
Note OFF: Time 37800, Note Name: C5
Note ON: Time 37800, Note Name: G4, Velocity: 74
Note OFF: Time 37920, Note Name: G4
Note ON: Time 37920, Note Name: D#5, Velocity: 86
Note OFF: Time 38280, Note Name: D#5
Note ON: Time 38280, Note Name: C5, Velocity: 83
Note OFF: Time 38400, Note Name: C5
Note ON: Time 38400, Note Name: G5, Velocity: 90
Note OFF: Time 38760, Note Name: G5
Note ON: Time 38760, Note Name: D#5, Velocity: 83
Note OFF: Time 38880, Note Name: D#5
Note ON: Time 38880, Note Name: D5, Velocity: 96
Note OFF: Time 39000, Note Name: D5
Note ON: Time 39360, Note Name: F6, Velocity: 96
Note OFF: Time 39480, Note Name: F6
Note ON: Time 40320, Note Name: B4, Velocity: 96
Note OFF: Time 40440, Note Name: B4
Note ON: Time 40800, Note Name: D6, Velocity: 96
Note OFF: Time 40920, Note Name: D6
Note ON: Time 41760, Note Name: C5, Velocity: 96
Note OFF: Time 41880, Note Name: C5
Note ON: Time 42240, Note Name: C6, Velocity: 96
Note OFF: Time 42360, Note Name: C6
Note ON: Time 46560, Note Name: G4, Velocity: 50
Note ON: Time 47040, Note Name: D#5, Velocity: 45
Note OFF: Time 47520, Note Name: D#5
Note OFF: Time 47520, Note Name: G4
Note ON: Time 47520, Note Name: G#4, Velocity: 42
Note ON: Time 47520, Note Name: D#5, Velocity: 50
Note OFF: Time 48480, Note Name: D#5
Note ON: Time 48480, Note Name: D#5, Velocity: 45
Note OFF: Time 48960, Note Name: G#4
Note ON: Time 48960, Note Name: G4, Velocity: 42
Note OFF: Time 49440, Note Name: D#5
Note ON: Time 49440, Note Name: F5, Velocity: 45
Note OFF: Time 49920, Note Name: F5
Note ON: Time 49920, Note Name: C#5, Velocity: 44
Note OFF: Time 50400, Note Name: G4
Note ON: Time 50400, Note Name: G#4, Velocity: 42
Note OFF: Time 50880, Note Name: C#5
Note ON: Time 50880, Note Name: B4, Velocity: 45
Note OFF: Time 51360, Note Name: B4
Note ON: Time 51360, Note Name: C5, Velocity: 45
Note OFF: Time 51840, Note Name: C5
Note OFF: Time 51840, Note Name: G#4
Note ON: Time 52320, Note Name: E5, Velocity: 50
Note ON: Time 52800, Note Name: C6, Velocity: 45
Note OFF: Time 53280, Note Name: C6
Note OFF: Time 53280, Note Name: E5
Note ON: Time 53280, Note Name: F5, Velocity: 42
Note ON: Time 53280, Note Name: C6, Velocity: 50
Note OFF: Time 54240, Note Name: C6
Note ON: Time 54240, Note Name: C6, Velocity: 45
Note OFF: Time 54720, Note Name: F5
Note ON: Time 54720, Note Name: E5, Velocity: 42
Note OFF: Time 55200, Note Name: C6
Note ON: Time 55200, Note Name: C#6, Velocity: 45
Note OFF: Time 55680, Note Name: C#6
Note ON: Time 55680, Note Name: A#5, Velocity: 44
Note OFF: Time 56160, Note Name: E5
Note ON: Time 56160, Note Name: C5, Velocity: 42
Note OFF: Time 56640, Note Name: A#5
Note ON: Time 56640, Note Name: G5, Velocity: 45
Note OFF: Time 57120, Note Name: G5
Note ON: Time 57120, Note Name: G#5, Velocity: 45
Note OFF: Time 57600, Note Name: G#5
Note OFF: Time 57600, Note Name: C5
Note ON: Time 58080, Note Name: C5, Velocity: 50
Note ON: Time 58560, Note Name: G#5, Velocity: 45
Note OFF: Time 59040, Note Name: G#5
Note OFF: Time 59040, Note Name: C5
Note ON: Time 59040, Note Name: C#5, Velocity: 42
Note ON: Time 59040, Note Name: G#5, Velocity: 50
Note OFF: Time 60000, Note Name: G#5
Note ON: Time 60000, Note Name: G#5, Velocity: 45
Note OFF: Time 60480, Note Name: C#5
Note ON: Time 60480, Note Name: C5, Velocity: 42
Note OFF: Time 60960, Note Name: G#5
Note ON: Time 60960, Note Name: A#5, Velocity: 45
Note OFF: Time 61440, Note Name: A#5
Note ON: Time 61440, Note Name: F#5, Velocity: 44
Note OFF: Time 61920, Note Name: C5
Note ON: Time 61920, Note Name: G#4, Velocity: 49
Note OFF: Time 62400, Note Name: F#5
Note ON: Time 62400, Note Name: E5, Velocity: 52
Note OFF: Time 62880, Note Name: E5
Note ON: Time 62880, Note Name: F5, Velocity: 52
Note OFF: Time 63360, Note Name: G#4
Note ON: Time 63360, Note Name: A4, Velocity: 50
Note OFF: Time 63840, Note Name: F5
Note ON: Time 63840, Note Name: F#5, Velocity: 55
Note OFF: Time 64320, Note Name: F#5
Note ON: Time 64320, Note Name: D#5, Velocity: 50
Note OFF: Time 64800, Note Name: A4
Note ON: Time 64800, Note Name: F4, Velocity: 42
Note OFF: Time 65280, Note Name: D#5
Note ON: Time 65280, Note Name: D#5, Velocity: 45
Note OFF: Time 65760, Note Name: D#5
Note ON: Time 65760, Note Name: D5, Velocity: 45
Note OFF: Time 66240, Note Name: F4
Note ON: Time 66240, Note Name: F#4, Velocity: 42
Note OFF: Time 66720, Note Name: D5
Note ON: Time 66720, Note Name: D#5, Velocity: 45
Note OFF: Time 67200, Note Name: D#5
Note OFF: Time 67200, Note Name: F#4
Note ON: Time 67200, Note Name: D#4, Velocity: 28
Note ON: Time 67200, Note Name: F#4, Velocity: 33
Note OFF: Time 67680, Note Name: F#4
Note OFF: Time 67680, Note Name: D#4
Note ON: Time 67680, Note Name: D4, Velocity: 32
Note ON: Time 67680, Note Name: F4, Velocity: 38
Note OFF: Time 68160, Note Name: F4
Note OFF: Time 68160, Note Name: D4
Note ON: Time 69600, Note Name: C5, Velocity: 38
Note OFF: Time 69840, Note Name: C5
Note ON: Time 70080, Note Name: C5, Velocity: 38
Note OFF: Time 70320, Note Name: C5
Note ON: Time 70560, Note Name: C5, Velocity: 46
Note OFF: Time 71040, Note Name: C5
Note ON: Time 71040, Note Name: A#4, Velocity: 38
Note OFF: Time 71520, Note Name: A#4
Note ON: Time 72480, Note Name: G#4, Velocity: 38
Note OFF: Time 72720, Note Name: G#4
Note ON: Time 72960, Note Name: G#4, Velocity: 38
Note OFF: Time 73200, Note Name: G#4
Note ON: Time 73440, Note Name: G#4, Velocity: 43
Note OFF: Time 73920, Note Name: G#4
Note ON: Time 73920, Note Name: G4, Velocity: 38
Note OFF: Time 74400, Note Name: G4
Note ON: Time 75120, Note Name: C5, Velocity: 37
Note OFF: Time 75360, Note Name: C5
Note ON: Time 75360, Note Name: B4, Velocity: 38
Note OFF: Time 75600, Note Name: B4
Note ON: Time 75600, Note Name: C5, Velocity: 34
Note OFF: Time 75840, Note Name: C5
Note ON: Time 75840, Note Name: D5, Velocity: 43
Note OFF: Time 76080, Note Name: D5
Note ON: Time 76080, Note Name: C5, Velocity: 38
Note OFF: Time 76320, Note Name: C5
Note ON: Time 76560, Note Name: A#4, Velocity: 36
Note OFF: Time 76800, Note Name: A#4
Note ON: Time 76800, Note Name: A4, Velocity: 38
Note OFF: Time 77040, Note Name: A4
Note ON: Time 77040, Note Name: A#4, Velocity: 36
Note OFF: Time 77280, Note Name: A#4
Note ON: Time 77280, Note Name: C5, Velocity: 44
Note OFF: Time 77520, Note Name: C5
Note ON: Time 77520, Note Name: A#4, Velocity: 38
Note OFF: Time 77760, Note Name: A#4
Note ON: Time 78000, Note Name: G#4, Velocity: 36
Note OFF: Time 78240, Note Name: G#4
Note ON: Time 78240, Note Name: G4, Velocity: 38
Note OFF: Time 78480, Note Name: G4
Note ON: Time 78480, Note Name: G#4, Velocity: 35
Note OFF: Time 78720, Note Name: G#4
Note ON: Time 78720, Note Name: A#4, Velocity: 44
Note OFF: Time 78960, Note Name: A#4
Note ON: Time 78960, Note Name: G#4, Velocity: 37
Note OFF: Time 79200, Note Name: G#4
Note ON: Time 79200, Note Name: G4, Velocity: 46
Note OFF: Time 81360, Note Name: G4
Note ON: Time 81360, Note Name: A#4, Velocity: 56
Note OFF: Time 81600, Note Name: A#4
Note ON: Time 81600, Note Name: D#5, Velocity: 62
Note OFF: Time 82070, Note Name: D#5
Note ON: Time 82080, Note Name: D#5, Velocity: 63
Note OFF: Time 83520, Note Name: D#5
Note ON: Time 83520, Note Name: D5, Velocity: 57
Note OFF: Time 84000, Note Name: D5
Note ON: Time 84960, Note Name: A#4, Velocity: 51
Note OFF: Time 86400, Note Name: A#4
Note ON: Time 86400, Note Name: A#4, Velocity: 61
Note OFF: Time 86640, Note Name: A#4
Note ON: Time 86640, Note Name: C5, Velocity: 57
Note OFF: Time 86720, Note Name: C5
Note ON: Time 86720, Note Name: A#4, Velocity: 52
Note OFF: Time 86800, Note Name: A#4
Note ON: Time 86800, Note Name: A4, Velocity: 52
Note OFF: Time 86880, Note Name: A4
Note ON: Time 86880, Note Name: A#4, Velocity: 61
Note OFF: Time 87120, Note Name: A#4
Note ON: Time 87120, Note Name: F5, Velocity: 65
Note OFF: Time 87360, Note Name: F5
Note ON: Time 87360, Note Name: G#5, Velocity: 73
Note OFF: Time 87840, Note Name: G#5
Note ON: Time 87840, Note Name: G#5, Velocity: 74
Note OFF: Time 89280, Note Name: G#5
Note ON: Time 89280, Note Name: G5, Velocity: 69
Note OFF: Time 89760, Note Name: G5
Note ON: Time 90720, Note Name: G4, Velocity: 56
Note OFF: Time 90840, Note Name: G4
Note ON: Time 90960, Note Name: G#4, Velocity: 58
Note OFF: Time 91080, Note Name: G#4
Note ON: Time 91200, Note Name: A#4, Velocity: 60
Note OFF: Time 91320, Note Name: A#4
Note ON: Time 91440, Note Name: C5, Velocity: 62
Note OFF: Time 91560, Note Name: C5
Note ON: Time 91680, Note Name: D5, Velocity: 64
Note OFF: Time 91800, Note Name: D5
Note ON: Time 91920, Note Name: D#5, Velocity: 65
Note OFF: Time 92040, Note Name: D#5
Note ON: Time 92160, Note Name: F5, Velocity: 70
Note OFF: Time 92280, Note Name: F5
Note ON: Time 92400, Note Name: G5, Velocity: 73
Note OFF: Time 92520, Note Name: G5
Note ON: Time 92640, Note Name: G#5, Velocity: 76
Note OFF: Time 92760, Note Name: G#5
Note ON: Time 92880, Note Name: A#5, Velocity: 78
Note OFF: Time 93000, Note Name: A#5
Note ON: Time 93120, Note Name: C6, Velocity: 81
Note OFF: Time 93240, Note Name: C6
Note ON: Time 93360, Note Name: D6, Velocity: 84
Note OFF: Time 93480, Note Name: D6
Note ON: Time 93600, Note Name: D#6, Velocity: 91
Note OFF: Time 95040, Note Name: D#6
Note ON: Time 95040, Note Name: D6, Velocity: 71
Note OFF: Time 95520, Note Name: D6
Note ON: Time 96480, Note Name: A#3, Velocity: 56
Note OFF: Time 96600, Note Name: A#3
Note ON: Time 96720, Note Name: C4, Velocity: 58
Note OFF: Time 96840, Note Name: C4
Note ON: Time 96960, Note Name: D4, Velocity: 60
Note OFF: Time 97080, Note Name: D4
Note ON: Time 97200, Note Name: D#4, Velocity: 62
Note OFF: Time 97320, Note Name: D#4
Note ON: Time 97440, Note Name: F4, Velocity: 64
Note OFF: Time 97560, Note Name: F4
Note ON: Time 97680, Note Name: G4, Velocity: 65
Note OFF: Time 97800, Note Name: G4
Note ON: Time 97920, Note Name: G#4, Velocity: 67
Note OFF: Time 98040, Note Name: G#4
Note ON: Time 98160, Note Name: A#4, Velocity: 72
Note OFF: Time 98280, Note Name: A#4
Note ON: Time 98400, Note Name: C5, Velocity: 74
Note OFF: Time 98520, Note Name: C5
Note ON: Time 98640, Note Name: D5, Velocity: 76
Note OFF: Time 98760, Note Name: D5
Note ON: Time 98880, Note Name: D#5, Velocity: 78
Note OFF: Time 99000, Note Name: D#5
Note ON: Time 99120, Note Name: F5, Velocity: 80
Note OFF: Time 99240, Note Name: F5
Note ON: Time 99360, Note Name: G5, Velocity: 94
Note OFF: Time 100800, Note Name: G5
Note ON: Time 100800, Note Name: D#6, Velocity: 100
Note OFF: Time 101760, Note Name: D#6
Note ON: Time 101760, Note Name: G3, Velocity: 77
Note OFF: Time 102240, Note Name: G3
Note ON: Time 102240, Note Name: G#3, Velocity: 82
Note OFF: Time 103680, Note Name: G#3
Note ON: Time 103680, Note Name: A3, Velocity: 84
Note OFF: Time 105120, Note Name: A3
Note ON: Time 105120, Note Name: A#3, Velocity: 84
Note OFF: Time 106560, Note Name: A#3
Note ON: Time 106560, Note Name: G#3, Velocity: 84
Note OFF: Time 106680, Note Name: G#3
Note ON: Time 106680, Note Name: A#3, Velocity: 57
Note OFF: Time 106800, Note Name: A#3
Note ON: Time 106800, Note Name: G#3, Velocity: 61
Note OFF: Time 106880, Note Name: G#3
Note ON: Time 106880, Note Name: A#3, Velocity: 57
Note OFF: Time 106960, Note Name: A#3
Note ON: Time 106960, Note Name: G#3, Velocity: 64
Note OFF: Time 107040, Note Name: G#3
Note ON: Time 107040, Note Name: A#3, Velocity: 56
Note OFF: Time 107120, Note Name: A#3
Note ON: Time 107120, Note Name: G#3, Velocity: 64
Note OFF: Time 107200, Note Name: G#3
Note ON: Time 107200, Note Name: A#3, Velocity: 56
Note OFF: Time 107280, Note Name: A#3
Note ON: Time 107280, Note Name: G#3, Velocity: 64
Note OFF: Time 107360, Note Name: G#3
Note ON: Time 107360, Note Name: A#3, Velocity: 55
Note OFF: Time 107440, Note Name: A#3
Note ON: Time 107440, Note Name: G#3, Velocity: 64
Note OFF: Time 107520, Note Name: G#3
Note ON: Time 107520, Note Name: A#3, Velocity: 54
Note OFF: Time 107640, Note Name: A#3
Note ON: Time 107640, Note Name: G#3, Velocity: 59
Note OFF: Time 107760, Note Name: G#3
Note ON: Time 107760, Note Name: G3, Velocity: 55
Note OFF: Time 107880, Note Name: G3
Note ON: Time 107880, Note Name: G#3, Velocity: 57
Note OFF: Time 108000, Note Name: G#3
Note ON: Time 108000, Note Name: G3, Velocity: 74
Note OFF: Time 108240, Note Name: G3
Note ON: Time 108240, Note Name: A#3, Velocity: 60
Note OFF: Time 108480, Note Name: A#3
Note ON: Time 108480, Note Name: D#4, Velocity: 68
Note OFF: Time 108720, Note Name: D#4
Note ON: Time 108720, Note Name: A#3, Velocity: 61
Note OFF: Time 108960, Note Name: A#3
Note ON: Time 108960, Note Name: D#4, Velocity: 69
Note OFF: Time 109200, Note Name: D#4
Note ON: Time 109200, Note Name: G4, Velocity: 63
Note OFF: Time 109440, Note Name: G4
Note ON: Time 109440, Note Name: A#4, Velocity: 69
Note OFF: Time 109680, Note Name: A#4
Note ON: Time 109680, Note Name: G4, Velocity: 60
Note OFF: Time 109920, Note Name: G4
Note ON: Time 109920, Note Name: A#4, Velocity: 69
Note OFF: Time 110160, Note Name: A#4
Note ON: Time 110160, Note Name: D#5, Velocity: 62
Note OFF: Time 110400, Note Name: D#5
Note ON: Time 110400, Note Name: G5, Velocity: 73
Note OFF: Time 110640, Note Name: G5
Note ON: Time 110640, Note Name: A#5, Velocity: 65
Note OFF: Time 110880, Note Name: A#5
Note ON: Time 110880, Note Name: D#6, Velocity: 89
Note OFF: Time 111120, Note Name: D#6
Note ON: Time 111840, Note Name: D#4, Velocity: 84
Note OFF: Time 113280, Note Name: D#4
Note ON: Time 113280, Note Name: G3, Velocity: 81
Note OFF: Time 113760, Note Name: G3
Note ON: Time 113760, Note Name: G#3, Velocity: 84
Note OFF: Time 114720, Note Name: G#3
Note ON: Time 114720, Note Name: D#4, Velocity: 84
Note OFF: Time 115200, Note Name: D#4
Note ON: Time 115200, Note Name: A3, Velocity: 92
Note OFF: Time 116160, Note Name: A3
Note ON: Time 116160, Note Name: D#4, Velocity: 84
Note OFF: Time 116640, Note Name: D#4
Note ON: Time 116640, Note Name: A#3, Velocity: 77
Note OFF: Time 116880, Note Name: A#3
Note ON: Time 116880, Note Name: D#4, Velocity: 59
Note OFF: Time 117120, Note Name: D#4
Note ON: Time 117120, Note Name: D4, Velocity: 68
Note OFF: Time 117360, Note Name: D4
Note ON: Time 117360, Note Name: D#4, Velocity: 55
Note OFF: Time 117600, Note Name: D#4
Note ON: Time 117600, Note Name: B3, Velocity: 65
Note OFF: Time 117840, Note Name: B3
Note ON: Time 117840, Note Name: D#4, Velocity: 59
Note OFF: Time 118080, Note Name: D#4
Note ON: Time 118080, Note Name: C4, Velocity: 82
Note OFF: Time 118320, Note Name: C4
Note ON: Time 118320, Note Name: D#4, Velocity: 62
Note OFF: Time 118560, Note Name: D#4
Note ON: Time 118560, Note Name: D4, Velocity: 71
Note OFF: Time 118800, Note Name: D4
Note ON: Time 118800, Note Name: D#4, Velocity: 59
Note OFF: Time 119040, Note Name: D#4
Note ON: Time 119040, Note Name: A3, Velocity: 66
Note OFF: Time 119280, Note Name: A3
Note ON: Time 119280, Note Name: D#4, Velocity: 56
Note OFF: Time 119520, Note Name: D#4
Note ON: Time 119520, Note Name: A#3, Velocity: 88
Note OFF: Time 119760, Note Name: A#3
Note ON: Time 119760, Note Name: D#4, Velocity: 58
Note OFF: Time 120000, Note Name: D#4
Note ON: Time 120000, Note Name: C#4, Velocity: 72
Note OFF: Time 120240, Note Name: C#4
Note ON: Time 120240, Note Name: D#4, Velocity: 62
Note OFF: Time 120480, Note Name: D#4
Note ON: Time 120480, Note Name: B3, Velocity: 72
Note OFF: Time 120720, Note Name: B3
Note ON: Time 120720, Note Name: D#4, Velocity: 64
Note OFF: Time 120960, Note Name: D#4
Note ON: Time 120960, Note Name: C4, Velocity: 88
Note OFF: Time 121200, Note Name: C4
Note ON: Time 121200, Note Name: D#4, Velocity: 65
Note OFF: Time 121440, Note Name: D#4
Note ON: Time 121440, Note Name: D4, Velocity: 75
Note OFF: Time 121680, Note Name: D4
Note ON: Time 121680, Note Name: D#4, Velocity: 65
Note OFF: Time 121920, Note Name: D#4
Note ON: Time 121920, Note Name: A3, Velocity: 80
Note OFF: Time 122160, Note Name: A3
Note ON: Time 122160, Note Name: D#4, Velocity: 72
Note OFF: Time 122400, Note Name: D#4
Note ON: Time 122400, Note Name: A#3, Velocity: 93
Note OFF: Time 122880, Note Name: A#3
Note ON: Time 123240, Note Name: D#4, Velocity: 81
Note OFF: Time 123360, Note Name: D#4
Note ON: Time 123360, Note Name: A#4, Velocity: 87
Note OFF: Time 123720, Note Name: A#4
Note ON: Time 123720, Note Name: G4, Velocity: 84
Note OFF: Time 123840, Note Name: G4
Note ON: Time 123840, Note Name: D#5, Velocity: 93
Note OFF: Time 123960, Note Name: D#5
Note ON: Time 124680, Note Name: D#4, Velocity: 81
Note OFF: Time 124800, Note Name: D#4
Note ON: Time 124800, Note Name: A4, Velocity: 87
Note OFF: Time 125160, Note Name: A4
Note ON: Time 125160, Note Name: F#4, Velocity: 84
Note OFF: Time 125280, Note Name: F#4
Note ON: Time 125280, Note Name: D#5, Velocity: 93
Note OFF: Time 125400, Note Name: D#5
Note ON: Time 126120, Note Name: D#4, Velocity: 81
Note OFF: Time 126240, Note Name: D#4
Note ON: Time 126240, Note Name: A#4, Velocity: 87
Note OFF: Time 126600, Note Name: A#4
Note ON: Time 126600, Note Name: G4, Velocity: 84
Note OFF: Time 126720, Note Name: G4
Note ON: Time 126720, Note Name: D#5, Velocity: 93
Note OFF: Time 126840, Note Name: D#5
Note ON: Time 127560, Note Name: C5, Velocity: 81
Note OFF: Time 127680, Note Name: C5
Note ON: Time 127680, Note Name: F#5, Velocity: 87
Note OFF: Time 128040, Note Name: F#5
Note ON: Time 128040, Note Name: D#5, Velocity: 84
Note OFF: Time 128160, Note Name: D#5
Note ON: Time 128160, Note Name: G5, Velocity: 95
Note OFF: Time 128880, Note Name: G5
Note ON: Time 128880, Note Name: D#5, Velocity: 85
Note OFF: Time 129120, Note Name: D#5
Note ON: Time 129120, Note Name: D#5, Velocity: 93
Note OFF: Time 129360, Note Name: D#5
Note ON: Time 129360, Note Name: A#4, Velocity: 79
Note OFF: Time 129540, Note Name: A#4
Note ON: Time 129600, Note Name: A#4, Velocity: 88
Note OFF: Time 129840, Note Name: A#4
Note ON: Time 129840, Note Name: G4, Velocity: 78
Note OFF: Time 130020, Note Name: G4
Note ON: Time 130080, Note Name: G4, Velocity: 85
Note OFF: Time 130320, Note Name: G4
Note ON: Time 130320, Note Name: D#4, Velocity: 77
Note OFF: Time 130500, Note Name: D#4
Note ON: Time 130560, Note Name: D#4, Velocity: 81
Note OFF: Time 130800, Note Name: D#4
Note ON: Time 130800, Note Name: A#3, Velocity: 77
Note OFF: Time 130980, Note Name: A#3
Note ON: Time 133440, Note Name: A#3, Velocity: 66
Note ON: Time 133440, Note Name: D4, Velocity: 78
Note OFF: Time 133920, Note Name: D4
Note OFF: Time 133920, Note Name: A#3
Note ON: Time 133920, Note Name: A#3, Velocity: 70
Note ON: Time 133920, Note Name: D#4, Velocity: 83
Note OFF: Time 134400, Note Name: D#4
Note OFF: Time 134400, Note Name: A#3
Note ON: Time 135840, Note Name: A#4, Velocity: 53
Note ON: Time 135840, Note Name: F4, Velocity: 42
Note ON: Time 135840, Note Name: G#4, Velocity: 42
Note ON: Time 135840, Note Name: D4, Velocity: 42
Note OFF: Time 136320, Note Name: D4
Note OFF: Time 136320, Note Name: A#4
Note OFF: Time 136320, Note Name: F4
Note OFF: Time 136320, Note Name: G#4
Note ON: Time 136320, Note Name: D4, Velocity: 38
Note ON: Time 136320, Note Name: F4, Velocity: 38
Note ON: Time 136320, Note Name: G#4, Velocity: 38
Note ON: Time 136320, Note Name: A#4, Velocity: 48
Note OFF: Time 136800, Note Name: A#4
Note OFF: Time 136800, Note Name: D4
Note OFF: Time 136800, Note Name: F4
Note OFF: Time 136800, Note Name: G#4
Note ON: Time 136800, Note Name: D#4, Velocity: 42
Note ON: Time 136800, Note Name: G4, Velocity: 42
Note ON: Time 136800, Note Name: C5, Velocity: 53
Note OFF: Time 137280, Note Name: C5
Note ON: Time 137280, Note Name: A#4, Velocity: 49
Note OFF: Time 137760, Note Name: A#4
Note OFF: Time 137760, Note Name: G4
Note OFF: Time 137760, Note Name: D#4
Note ON: Time 138720, Note Name: F4, Velocity: 42
Note ON: Time 138720, Note Name: G#4, Velocity: 42
Note ON: Time 138720, Note Name: D5, Velocity: 53
Note OFF: Time 139200, Note Name: D5
Note OFF: Time 139200, Note Name: G#4
Note OFF: Time 139200, Note Name: F4
Note ON: Time 139200, Note Name: F4, Velocity: 38
Note ON: Time 139200, Note Name: G#4, Velocity: 38
Note ON: Time 139200, Note Name: D5, Velocity: 48
Note OFF: Time 139680, Note Name: D5
Note OFF: Time 139680, Note Name: G#4
Note OFF: Time 139680, Note Name: F4
Note ON: Time 139680, Note Name: G4, Velocity: 42
Note ON: Time 139680, Note Name: A#4, Velocity: 42
Note ON: Time 139680, Note Name: F5, Velocity: 53
Note OFF: Time 140160, Note Name: F5
Note ON: Time 140160, Note Name: D#5, Velocity: 49
Note OFF: Time 140640, Note Name: D#5
Note OFF: Time 140640, Note Name: A#4
Note OFF: Time 140640, Note Name: G4
Note ON: Time 141600, Note Name: D4, Velocity: 42
Note ON: Time 141600, Note Name: F4, Velocity: 42
Note ON: Time 141600, Note Name: G#4, Velocity: 42
Note ON: Time 141600, Note Name: A#4, Velocity: 53
Note OFF: Time 142080, Note Name: A#4
Note OFF: Time 142080, Note Name: D4
Note OFF: Time 142080, Note Name: F4
Note OFF: Time 142080, Note Name: G#4
Note ON: Time 142080, Note Name: A#4, Velocity: 48
Note ON: Time 142080, Note Name: F4, Velocity: 38
Note ON: Time 142080, Note Name: G#4, Velocity: 38
Note ON: Time 142080, Note Name: D4, Velocity: 38
Note OFF: Time 142560, Note Name: D4
Note OFF: Time 142560, Note Name: A#4
Note OFF: Time 142560, Note Name: F4
Note OFF: Time 142560, Note Name: G#4
Note ON: Time 142560, Note Name: D#4, Velocity: 42
Note ON: Time 142560, Note Name: G4, Velocity: 42
Note ON: Time 142560, Note Name: C5, Velocity: 53
Note OFF: Time 143040, Note Name: C5
Note ON: Time 143040, Note Name: A#4, Velocity: 49
Note OFF: Time 143520, Note Name: A#4
Note OFF: Time 143520, Note Name: G4
Note OFF: Time 143520, Note Name: D#4
Note ON: Time 144480, Note Name: F3, Velocity: 42
Note ON: Time 144480, Note Name: G#3, Velocity: 42
Note ON: Time 144480, Note Name: D4, Velocity: 53
Note OFF: Time 144960, Note Name: D4
Note OFF: Time 144960, Note Name: G#3
Note OFF: Time 144960, Note Name: F3
Note ON: Time 144960, Note Name: F3, Velocity: 38
Note ON: Time 144960, Note Name: G#3, Velocity: 38
Note ON: Time 144960, Note Name: D4, Velocity: 48
Note OFF: Time 145440, Note Name: D4
Note OFF: Time 145440, Note Name: G#3
Note OFF: Time 145440, Note Name: F3
Note ON: Time 145440, Note Name: G3, Velocity: 42
Note ON: Time 145440, Note Name: A#3, Velocity: 42
Note ON: Time 145440, Note Name: F4, Velocity: 53
Note OFF: Time 145920, Note Name: F4
Note ON: Time 145920, Note Name: D#4, Velocity: 49
Note OFF: Time 146400, Note Name: D#4
Note OFF: Time 146400, Note Name: A#3
Note OFF: Time 146400, Note Name: G3
Note ON: Time 147360, Note Name: F3, Velocity: 42
Note ON: Time 147360, Note Name: G#3, Velocity: 42
Note ON: Time 147360, Note Name: D4, Velocity: 53
Note OFF: Time 147840, Note Name: D4
Note OFF: Time 147840, Note Name: G#3
Note OFF: Time 147840, Note Name: F3
Note ON: Time 147840, Note Name: F3, Velocity: 38
Note ON: Time 147840, Note Name: G#3, Velocity: 38
Note ON: Time 147840, Note Name: D4, Velocity: 48
Note OFF: Time 148320, Note Name: D4
Note OFF: Time 148320, Note Name: G#3
Note OFF: Time 148320, Note Name: F3
Note ON: Time 148320, Note Name: G#3, Velocity: 42
Note ON: Time 148320, Note Name: D4, Velocity: 42
Note ON: Time 148320, Note Name: F4, Velocity: 53
Note OFF: Time 149760, Note Name: F4
Note OFF: Time 149760, Note Name: D4
Note OFF: Time 149760, Note Name: G#3
Note ON: Time 149760, Note Name: A#3, Velocity: 44
Note ON: Time 149760, Note Name: D#4, Velocity: 49
Note OFF: Time 150240, Note Name: D#4
Note OFF: Time 150240, Note Name: A#3
Note ON: Time 151200, Note Name: D#4, Velocity: 69
Note ON: Time 151200, Note Name: G4, Velocity: 69
Note ON: Time 151200, Note Name: C5, Velocity: 82
Note OFF: Time 151920, Note Name: C5
Note OFF: Time 151920, Note Name: G4
Note OFF: Time 151920, Note Name: D#4
Note ON: Time 152040, Note Name: G4, Velocity: 70
Note OFF: Time 152160, Note Name: G4
Note ON: Time 152160, Note Name: D#5, Velocity: 78
Note OFF: Time 152520, Note Name: D#5
Note ON: Time 152520, Note Name: C5, Velocity: 70
Note OFF: Time 152640, Note Name: C5
Note ON: Time 152640, Note Name: G5, Velocity: 79
Note OFF: Time 153000, Note Name: G5
Note ON: Time 153000, Note Name: D#5, Velocity: 70
Note OFF: Time 153120, Note Name: D#5
Note ON: Time 153120, Note Name: C6, Velocity: 79
Note OFF: Time 153480, Note Name: C6
Note ON: Time 153480, Note Name: G5, Velocity: 70
Note OFF: Time 153600, Note Name: G5
Note ON: Time 153600, Note Name: D#6, Velocity: 84
Note OFF: Time 153720, Note Name: D#6
Note ON: Time 154080, Note Name: D#6, Velocity: 84
Note OFF: Time 154200, Note Name: D#6
Note ON: Time 155040, Note Name: G4, Velocity: 39
Note ON: Time 155040, Note Name: C5, Velocity: 46
Note OFF: Time 155280, Note Name: C5
Note OFF: Time 155280, Note Name: G4
Note ON: Time 155520, Note Name: G4, Velocity: 42
Note ON: Time 155520, Note Name: C5, Velocity: 50
Note OFF: Time 156480, Note Name: C5
Note OFF: Time 156480, Note Name: G4
Note ON: Time 156480, Note Name: G4, Velocity: 39
Note ON: Time 156490, Note Name: B4, Velocity: 46
Note OFF: Time 156950, Note Name: G4
Note OFF: Time 156960, Note Name: B4
Note ON: Time 156960, Note Name: G#4, Velocity: 69
Note ON: Time 156960, Note Name: F4, Velocity: 69
Note ON: Time 156960, Note Name: B4, Velocity: 82
Note OFF: Time 157680, Note Name: B4
Note OFF: Time 157680, Note Name: F4
Note OFF: Time 157680, Note Name: G#4
Note ON: Time 157800, Note Name: B4, Velocity: 70
Note OFF: Time 157920, Note Name: B4
Note ON: Time 157920, Note Name: F5, Velocity: 78
Note OFF: Time 158280, Note Name: F5
Note ON: Time 158280, Note Name: D5, Velocity: 70
Note OFF: Time 158400, Note Name: D5
Note ON: Time 158400, Note Name: B5, Velocity: 79
Note OFF: Time 158760, Note Name: B5
Note ON: Time 158760, Note Name: F5, Velocity: 70
Note OFF: Time 158880, Note Name: F5
Note ON: Time 158880, Note Name: D6, Velocity: 79
Note OFF: Time 159240, Note Name: D6
Note ON: Time 159240, Note Name: B5, Velocity: 70
Note OFF: Time 159360, Note Name: B5
Note ON: Time 159360, Note Name: F6, Velocity: 84
Note OFF: Time 159480, Note Name: F6
Note ON: Time 159840, Note Name: F6, Velocity: 84
Note OFF: Time 159960, Note Name: F6
Note ON: Time 160800, Note Name: B4, Velocity: 39
Note ON: Time 160800, Note Name: D5, Velocity: 46
Note OFF: Time 161040, Note Name: D5
Note OFF: Time 161040, Note Name: B4
Note ON: Time 161280, Note Name: B4, Velocity: 42
Note ON: Time 161280, Note Name: D5, Velocity: 50
Note OFF: Time 162240, Note Name: D5
Note OFF: Time 162240, Note Name: B4
Note ON: Time 162240, Note Name: C5, Velocity: 46
Note OFF: Time 162600, Note Name: C5
Note ON: Time 162600, Note Name: C5, Velocity: 45
Note OFF: Time 162660, Note Name: C5
Note ON: Time 162660, Note Name: D#5, Velocity: 48
Note OFF: Time 162720, Note Name: D#5
Note ON: Time 162720, Note Name: G5, Velocity: 53
Note OFF: Time 163440, Note Name: G5
Note ON: Time 163440, Note Name: F5, Velocity: 41
Note OFF: Time 163680, Note Name: F5
Note ON: Time 163680, Note Name: D#5, Velocity: 51
Note OFF: Time 164160, Note Name: D#5
Note ON: Time 164160, Note Name: D5, Velocity: 47
Note OFF: Time 165120, Note Name: D5
Note ON: Time 165120, Note Name: C5, Velocity: 39
Note OFF: Time 165480, Note Name: C5
Note ON: Time 165480, Note Name: G4, Velocity: 27
Note OFF: Time 165520, Note Name: G4
Note ON: Time 165520, Note Name: C5, Velocity: 45
Note OFF: Time 165560, Note Name: C5
Note ON: Time 165560, Note Name: D#5, Velocity: 48
Note OFF: Time 165600, Note Name: D#5
Note ON: Time 165600, Note Name: G5, Velocity: 53
Note OFF: Time 166320, Note Name: G5
Note ON: Time 166320, Note Name: F5, Velocity: 41
Note OFF: Time 166560, Note Name: F5
Note ON: Time 166560, Note Name: C5, Velocity: 43
Note ON: Time 166560, Note Name: D#5, Velocity: 51
Note OFF: Time 167040, Note Name: D#5
Note OFF: Time 167040, Note Name: C5
Note ON: Time 167040, Note Name: B4, Velocity: 39
Note ON: Time 167040, Note Name: D5, Velocity: 47
Note OFF: Time 168000, Note Name: D5
Note OFF: Time 168000, Note Name: B4
Note ON: Time 168000, Note Name: C5, Velocity: 39
Note OFF: Time 168360, Note Name: C5
Note ON: Time 168360, Note Name: G4, Velocity: 60
Note OFF: Time 168400, Note Name: G4
Note ON: Time 168400, Note Name: C5, Velocity: 63
Note OFF: Time 168440, Note Name: C5
Note ON: Time 168440, Note Name: D#5, Velocity: 69
Note OFF: Time 168480, Note Name: D#5
Note ON: Time 168480, Note Name: G4, Velocity: 69
Note ON: Time 168480, Note Name: G5, Velocity: 81
Note OFF: Time 169200, Note Name: G5
Note OFF: Time 169200, Note Name: G4
Note ON: Time 169200, Note Name: F5, Velocity: 61
Note ON: Time 169200, Note Name: F4, Velocity: 51
Note OFF: Time 169440, Note Name: F4
Note OFF: Time 169440, Note Name: F5
Note ON: Time 169440, Note Name: D#5, Velocity: 73
Note ON: Time 169440, Note Name: D#4, Velocity: 62
Note OFF: Time 170400, Note Name: D#4
Note OFF: Time 170400, Note Name: D#5
Note ON: Time 170400, Note Name: D5, Velocity: 72
Note ON: Time 170400, Note Name: D4, Velocity: 61
Note OFF: Time 170520, Note Name: D4
Note OFF: Time 170520, Note Name: D5
Note ON: Time 170880, Note Name: C5, Velocity: 75
Note ON: Time 170880, Note Name: C4, Velocity: 63
Note OFF: Time 171840, Note Name: C4
Note OFF: Time 171840, Note Name: C5
Note ON: Time 171840, Note Name: B3, Velocity: 63
Note ON: Time 171840, Note Name: B4, Velocity: 75
Note OFF: Time 171960, Note Name: B4
Note OFF: Time 171960, Note Name: B3
Note ON: Time 172320, Note Name: G#3, Velocity: 62
Note ON: Time 172320, Note Name: G#4, Velocity: 74
Note OFF: Time 173280, Note Name: G#4
Note OFF: Time 173280, Note Name: G#3
Note ON: Time 173280, Note Name: G3, Velocity: 58
Note ON: Time 173280, Note Name: G4, Velocity: 68
Note OFF: Time 173520, Note Name: G4
Note OFF: Time 173520, Note Name: G3
Note ON: Time 174720, Note Name: B3, Velocity: 42
Note OFF: Time 174880, Note Name: B3
Note ON: Time 174880, Note Name: D4, Velocity: 35
Note OFF: Time 175040, Note Name: D4
Note ON: Time 175040, Note Name: F4, Velocity: 35
Note OFF: Time 175200, Note Name: F4
Note ON: Time 175200, Note Name: G#4, Velocity: 43
Note OFF: Time 175360, Note Name: G#4
Note ON: Time 175360, Note Name: G4, Velocity: 36
Note OFF: Time 175520, Note Name: G4
Note ON: Time 175520, Note Name: F4, Velocity: 36
Note OFF: Time 175680, Note Name: F4
Note ON: Time 175680, Note Name: D#4, Velocity: 43
Note OFF: Time 175800, Note Name: D#4
Note ON: Time 177600, Note Name: F3, Velocity: 42
Note OFF: Time 177760, Note Name: F3
Note ON: Time 177760, Note Name: G#3, Velocity: 35
Note OFF: Time 177920, Note Name: G#3
Note ON: Time 177920, Note Name: D4, Velocity: 35
Note OFF: Time 178080, Note Name: D4
Note ON: Time 178080, Note Name: F4, Velocity: 43
Note OFF: Time 178240, Note Name: F4
Note ON: Time 178240, Note Name: D#4, Velocity: 36
Note OFF: Time 178400, Note Name: D#4
Note ON: Time 178400, Note Name: D4, Velocity: 36
Note OFF: Time 178560, Note Name: D4
Note ON: Time 178560, Note Name: C4, Velocity: 43
Note OFF: Time 178680, Note Name: C4
Note ON: Time 180480, Note Name: G3, Velocity: 66
Note OFF: Time 180640, Note Name: G3
Note ON: Time 180640, Note Name: B3, Velocity: 69
Note OFF: Time 180800, Note Name: B3
Note ON: Time 180800, Note Name: D4, Velocity: 72
Note OFF: Time 180960, Note Name: D4
Note ON: Time 180960, Note Name: F4, Velocity: 75
Note OFF: Time 181120, Note Name: F4
Note ON: Time 181120, Note Name: D4, Velocity: 67
Note OFF: Time 181280, Note Name: D4
Note ON: Time 181280, Note Name: B3, Velocity: 67
Note OFF: Time 181440, Note Name: B3
Note ON: Time 181440, Note Name: G3, Velocity: 79
Note ON: Time 181440, Note Name: D#3, Velocity: 79
Note ON: Time 181440, Note Name: C4, Velocity: 94
Note OFF: Time 182160, Note Name: C4
Note OFF: Time 182160, Note Name: D#3
Note OFF: Time 182160, Note Name: G3
Note ON: Time 182280, Note Name: C4, Velocity: 70
Note OFF: Time 182400, Note Name: C4
Note ON: Time 182400, Note Name: G4, Velocity: 78
Note OFF: Time 182760, Note Name: G4
Note ON: Time 182760, Note Name: D#4, Velocity: 70
Note OFF: Time 182880, Note Name: D#4
Note ON: Time 182880, Note Name: C5, Velocity: 85
Note OFF: Time 183240, Note Name: C5
Note ON: Time 183240, Note Name: G4, Velocity: 72
Note OFF: Time 183360, Note Name: G4
Note ON: Time 183360, Note Name: D#5, Velocity: 80
Note OFF: Time 183720, Note Name: D#5
Note ON: Time 183720, Note Name: C5, Velocity: 83
Note OFF: Time 183840, Note Name: C5
Note ON: Time 183840, Note Name: G5, Velocity: 96
Note ON: Time 183840, Note Name: G4, Velocity: 81
Note OFF: Time 183960, Note Name: G4
Note OFF: Time 183960, Note Name: G5
Note ON: Time 184320, Note Name: G5, Velocity: 96
Note ON: Time 184320, Note Name: G4, Velocity: 81
Note OFF: Time 184440, Note Name: G4
Note OFF: Time 184440, Note Name: G5
Note ON: Time 185160, Note Name: B3, Velocity: 70
Note OFF: Time 185280, Note Name: B3
Note ON: Time 185280, Note Name: G4, Velocity: 78
Note OFF: Time 185640, Note Name: G4
Note ON: Time 185640, Note Name: D4, Velocity: 70
Note OFF: Time 185760, Note Name: D4
Note ON: Time 185760, Note Name: B4, Velocity: 85
Note OFF: Time 186120, Note Name: B4
Note ON: Time 186120, Note Name: G4, Velocity: 74
Note OFF: Time 186240, Note Name: G4
Note ON: Time 186240, Note Name: D5, Velocity: 86
Note OFF: Time 186600, Note Name: D5
Note ON: Time 186600, Note Name: B4, Velocity: 83
Note OFF: Time 186720, Note Name: B4
Note ON: Time 186720, Note Name: G5, Velocity: 96
Note ON: Time 186720, Note Name: G4, Velocity: 81
Note OFF: Time 186840, Note Name: G4
Note OFF: Time 186840, Note Name: G5
Note ON: Time 187200, Note Name: G5, Velocity: 96
Note ON: Time 187200, Note Name: G4, Velocity: 81
Note OFF: Time 187320, Note Name: G4
Note OFF: Time 187320, Note Name: G5
Note ON: Time 188040, Note Name: D#4, Velocity: 70
Note OFF: Time 188160, Note Name: D#4
Note ON: Time 188160, Note Name: G4, Velocity: 78
Note OFF: Time 188520, Note Name: G4
Note ON: Time 188520, Note Name: D#4, Velocity: 70
Note OFF: Time 188640, Note Name: D#4
Note ON: Time 188640, Note Name: C5, Velocity: 85
Note OFF: Time 189000, Note Name: C5
Note ON: Time 189000, Note Name: G4, Velocity: 74
Note OFF: Time 189120, Note Name: G4
Note ON: Time 189120, Note Name: D#5, Velocity: 86
Note OFF: Time 189480, Note Name: D#5
Note ON: Time 189480, Note Name: C5, Velocity: 83
Note OFF: Time 189600, Note Name: C5
Note ON: Time 189600, Note Name: G5, Velocity: 90
Note OFF: Time 189960, Note Name: G5
Note ON: Time 189960, Note Name: D#5, Velocity: 83
Note OFF: Time 190080, Note Name: D#5
Note ON: Time 190080, Note Name: D5, Velocity: 96
Note OFF: Time 190200, Note Name: D5
Note ON: Time 190560, Note Name: F6, Velocity: 96
Note OFF: Time 190680, Note Name: F6
Note ON: Time 191520, Note Name: B4, Velocity: 96
Note OFF: Time 191640, Note Name: B4
Note ON: Time 192000, Note Name: D6, Velocity: 96
Note OFF: Time 192120, Note Name: D6
Note ON: Time 192960, Note Name: C5, Velocity: 96
Note OFF: Time 193080, Note Name: C5
Note ON: Time 193440, Note Name: C6, Velocity: 96
Note OFF: Time 193560, Note Name: C6
Note ON: Time 197760, Note Name: G4, Velocity: 50
Note ON: Time 198240, Note Name: D#5, Velocity: 45
Note OFF: Time 198720, Note Name: D#5
Note OFF: Time 198720, Note Name: G4
Note ON: Time 198720, Note Name: G#4, Velocity: 42
Note ON: Time 198720, Note Name: D#5, Velocity: 50
Note OFF: Time 199680, Note Name: D#5
Note ON: Time 199680, Note Name: D#5, Velocity: 45
Note OFF: Time 200160, Note Name: G#4
Note ON: Time 200160, Note Name: G4, Velocity: 42
Note OFF: Time 200640, Note Name: D#5
Note ON: Time 200640, Note Name: F5, Velocity: 45
Note OFF: Time 201120, Note Name: F5
Note ON: Time 201120, Note Name: C#5, Velocity: 44
Note OFF: Time 201600, Note Name: G4
Note ON: Time 201600, Note Name: G#4, Velocity: 42
Note OFF: Time 202080, Note Name: C#5
Note ON: Time 202080, Note Name: B4, Velocity: 45
Note OFF: Time 202560, Note Name: B4
Note ON: Time 202560, Note Name: C5, Velocity: 45
Note OFF: Time 203040, Note Name: C5
Note OFF: Time 203040, Note Name: G#4
Note ON: Time 203520, Note Name: E5, Velocity: 50
Note ON: Time 204000, Note Name: C6, Velocity: 45
Note OFF: Time 204480, Note Name: C6
Note OFF: Time 204480, Note Name: E5
Note ON: Time 204480, Note Name: F5, Velocity: 42
Note ON: Time 204480, Note Name: C6, Velocity: 50
Note OFF: Time 205440, Note Name: C6
Note ON: Time 205440, Note Name: C6, Velocity: 45
Note OFF: Time 205920, Note Name: F5
Note ON: Time 205920, Note Name: E5, Velocity: 42
Note OFF: Time 206400, Note Name: C6
Note ON: Time 206400, Note Name: C#6, Velocity: 45
Note OFF: Time 206880, Note Name: C#6
Note ON: Time 206880, Note Name: A#5, Velocity: 44
Note OFF: Time 207360, Note Name: E5
Note ON: Time 207360, Note Name: C5, Velocity: 42
Note OFF: Time 207840, Note Name: A#5
Note ON: Time 207840, Note Name: G5, Velocity: 45
Note OFF: Time 208320, Note Name: G5
Note ON: Time 208320, Note Name: G#5, Velocity: 45
Note OFF: Time 208800, Note Name: G#5
Note OFF: Time 208800, Note Name: C5
Note ON: Time 209280, Note Name: C5, Velocity: 50
Note ON: Time 209760, Note Name: G#5, Velocity: 45
Note OFF: Time 210240, Note Name: G#5
Note OFF: Time 210240, Note Name: C5
Note ON: Time 210240, Note Name: C#5, Velocity: 42
Note ON: Time 210240, Note Name: G#5, Velocity: 50
Note OFF: Time 211200, Note Name: G#5
Note ON: Time 211200, Note Name: G#5, Velocity: 45
Note OFF: Time 211680, Note Name: C#5
Note ON: Time 211680, Note Name: C5, Velocity: 42
Note OFF: Time 212160, Note Name: G#5
Note ON: Time 212160, Note Name: A#5, Velocity: 45
Note OFF: Time 212640, Note Name: A#5
Note ON: Time 212640, Note Name: F#5, Velocity: 44
Note OFF: Time 213120, Note Name: C5
Note ON: Time 213120, Note Name: G#4, Velocity: 49
Note OFF: Time 213600, Note Name: F#5
Note ON: Time 213600, Note Name: E5, Velocity: 52
Note OFF: Time 214080, Note Name: E5
Note ON: Time 214080, Note Name: F5, Velocity: 52
Note OFF: Time 214560, Note Name: G#4
Note ON: Time 214560, Note Name: A4, Velocity: 50
Note OFF: Time 215040, Note Name: F5
Note ON: Time 215040, Note Name: F#5, Velocity: 55
Note OFF: Time 215520, Note Name: F#5
Note ON: Time 215520, Note Name: D#5, Velocity: 50
Note OFF: Time 216000, Note Name: A4
Note ON: Time 216000, Note Name: F4, Velocity: 42
Note OFF: Time 216480, Note Name: D#5
Note ON: Time 216480, Note Name: D#5, Velocity: 45
Note OFF: Time 216960, Note Name: D#5
Note ON: Time 216960, Note Name: D5, Velocity: 45
Note OFF: Time 217440, Note Name: F4
Note ON: Time 217440, Note Name: F#4, Velocity: 42
Note OFF: Time 217920, Note Name: D5
Note ON: Time 217920, Note Name: D#5, Velocity: 45
Note OFF: Time 218400, Note Name: D#5
Note OFF: Time 218400, Note Name: F#4
Note ON: Time 218400, Note Name: D#4, Velocity: 28
Note ON: Time 218400, Note Name: F#4, Velocity: 33
Note OFF: Time 218880, Note Name: F#4
Note OFF: Time 218880, Note Name: D#4
Note ON: Time 218880, Note Name: D4, Velocity: 32
Note ON: Time 218880, Note Name: F4, Velocity: 38
Note OFF: Time 219360, Note Name: F4
Note OFF: Time 219360, Note Name: D4
Note ON: Time 220800, Note Name: C5, Velocity: 38
Note OFF: Time 221040, Note Name: C5
Note ON: Time 221280, Note Name: C5, Velocity: 38
Note OFF: Time 221520, Note Name: C5
Note ON: Time 221760, Note Name: C5, Velocity: 46
Note OFF: Time 222240, Note Name: C5
Note ON: Time 222240, Note Name: A#4, Velocity: 38
Note OFF: Time 222720, Note Name: A#4
Note ON: Time 223680, Note Name: G#4, Velocity: 38
Note OFF: Time 223920, Note Name: G#4
Note ON: Time 224160, Note Name: G#4, Velocity: 38
Note OFF: Time 224400, Note Name: G#4
Note ON: Time 224640, Note Name: G#4, Velocity: 43
Note OFF: Time 225120, Note Name: G#4
Note ON: Time 225120, Note Name: G4, Velocity: 38
Note OFF: Time 225600, Note Name: G4
Note ON: Time 226320, Note Name: C5, Velocity: 37
Note OFF: Time 226560, Note Name: C5
Note ON: Time 226560, Note Name: B4, Velocity: 38
Note OFF: Time 226800, Note Name: B4
Note ON: Time 226800, Note Name: C5, Velocity: 34
Note OFF: Time 227040, Note Name: C5
Note ON: Time 227040, Note Name: D5, Velocity: 43
Note OFF: Time 227280, Note Name: D5
Note ON: Time 227280, Note Name: C5, Velocity: 38
Note OFF: Time 227520, Note Name: C5
Note ON: Time 227760, Note Name: A#4, Velocity: 36
Note OFF: Time 228000, Note Name: A#4
Note ON: Time 228000, Note Name: A4, Velocity: 38
Note OFF: Time 228240, Note Name: A4
Note ON: Time 228240, Note Name: A#4, Velocity: 36
Note OFF: Time 228480, Note Name: A#4
Note ON: Time 228480, Note Name: C5, Velocity: 44
Note OFF: Time 228720, Note Name: C5
Note ON: Time 228720, Note Name: A#4, Velocity: 38
Note OFF: Time 228960, Note Name: A#4
Note ON: Time 229200, Note Name: G#4, Velocity: 36
Note OFF: Time 229440, Note Name: G#4
Note ON: Time 229440, Note Name: G4, Velocity: 38
Note OFF: Time 229680, Note Name: G4
Note ON: Time 229680, Note Name: G#4, Velocity: 35
Note OFF: Time 229920, Note Name: G#4
Note ON: Time 229920, Note Name: A#4, Velocity: 44
Note OFF: Time 230160, Note Name: A#4
Note ON: Time 230160, Note Name: G#4, Velocity: 37
Note OFF: Time 230400, Note Name: G#4
Note ON: Time 230400, Note Name: G4, Velocity: 46
Note OFF: Time 232560, Note Name: G4
Note ON: Time 232560, Note Name: A#4, Velocity: 56
Note OFF: Time 232800, Note Name: A#4
Note ON: Time 232800, Note Name: D#5, Velocity: 62
Note OFF: Time 233270, Note Name: D#5
Note ON: Time 233280, Note Name: D#5, Velocity: 63
Note OFF: Time 234720, Note Name: D#5
Note ON: Time 234720, Note Name: D5, Velocity: 57
Note OFF: Time 235200, Note Name: D5
Note ON: Time 236160, Note Name: A#4, Velocity: 51
Note OFF: Time 237600, Note Name: A#4
Note ON: Time 237600, Note Name: A#4, Velocity: 61
Note OFF: Time 237840, Note Name: A#4
Note ON: Time 237840, Note Name: C5, Velocity: 57
Note OFF: Time 237920, Note Name: C5
Note ON: Time 237920, Note Name: A#4, Velocity: 52
Note OFF: Time 238000, Note Name: A#4
Note ON: Time 238000, Note Name: A4, Velocity: 52
Note OFF: Time 238080, Note Name: A4
Note ON: Time 238080, Note Name: A#4, Velocity: 61
Note OFF: Time 238320, Note Name: A#4
Note ON: Time 238320, Note Name: F5, Velocity: 65
Note OFF: Time 238560, Note Name: F5
Note ON: Time 238560, Note Name: G#5, Velocity: 75
Note OFF: Time 239040, Note Name: G#5
Note ON: Time 239040, Note Name: G#5, Velocity: 78
Note OFF: Time 240480, Note Name: G#5
Note ON: Time 240480, Note Name: G5, Velocity: 69
Note OFF: Time 240960, Note Name: G5
Note ON: Time 241920, Note Name: G4, Velocity: 56
Note OFF: Time 242040, Note Name: G4
Note ON: Time 242160, Note Name: G#4, Velocity: 58
Note OFF: Time 242280, Note Name: G#4
Note ON: Time 242400, Note Name: A#4, Velocity: 60
Note OFF: Time 242520, Note Name: A#4
Note ON: Time 242640, Note Name: C5, Velocity: 62
Note OFF: Time 242760, Note Name: C5
Note ON: Time 242880, Note Name: D5, Velocity: 64
Note OFF: Time 243000, Note Name: D5
Note ON: Time 243120, Note Name: D#5, Velocity: 65
Note OFF: Time 243240, Note Name: D#5
Note ON: Time 243360, Note Name: F5, Velocity: 68
Note OFF: Time 243480, Note Name: F5
Note ON: Time 243600, Note Name: G5, Velocity: 70
Note OFF: Time 243720, Note Name: G5
Note ON: Time 243840, Note Name: G#5, Velocity: 73
Note OFF: Time 243960, Note Name: G#5
Note ON: Time 244080, Note Name: A#5, Velocity: 76
Note OFF: Time 244200, Note Name: A#5
Note ON: Time 244320, Note Name: C6, Velocity: 79
Note OFF: Time 244440, Note Name: C6
Note ON: Time 244560, Note Name: D6, Velocity: 81
Note OFF: Time 244680, Note Name: D6
Note ON: Time 244800, Note Name: D#6, Velocity: 88
Note OFF: Time 246240, Note Name: D#6
Note ON: Time 246240, Note Name: D6, Velocity: 81
Note OFF: Time 246720, Note Name: D6
Note ON: Time 247680, Note Name: A#3, Velocity: 56
Note OFF: Time 247800, Note Name: A#3
Note ON: Time 247920, Note Name: C4, Velocity: 58
Note OFF: Time 248040, Note Name: C4
Note ON: Time 248160, Note Name: D4, Velocity: 60
Note OFF: Time 248280, Note Name: D4
Note ON: Time 248400, Note Name: D#4, Velocity: 62
Note OFF: Time 248520, Note Name: D#4
Note ON: Time 248640, Note Name: F4, Velocity: 64
Note OFF: Time 248760, Note Name: F4
Note ON: Time 248880, Note Name: G4, Velocity: 65
Note OFF: Time 249000, Note Name: G4
Note ON: Time 249120, Note Name: G#4, Velocity: 67
Note OFF: Time 249240, Note Name: G#4
Note ON: Time 249360, Note Name: A#4, Velocity: 70
Note OFF: Time 249480, Note Name: A#4
Note ON: Time 249600, Note Name: C5, Velocity: 73
Note OFF: Time 249720, Note Name: C5
Note ON: Time 249840, Note Name: D5, Velocity: 76
Note OFF: Time 249960, Note Name: D5
Note ON: Time 250080, Note Name: D#5, Velocity: 79
Note OFF: Time 250200, Note Name: D#5
Note ON: Time 250320, Note Name: F5, Velocity: 82
Note OFF: Time 250440, Note Name: F5
Note ON: Time 250560, Note Name: G5, Velocity: 89
Note OFF: Time 252000, Note Name: G5
Note ON: Time 252000, Note Name: D#6, Velocity: 100
Note OFF: Time 252960, Note Name: D#6
Note ON: Time 252960, Note Name: G3, Velocity: 77
Note OFF: Time 253440, Note Name: G3
Note ON: Time 253440, Note Name: G#3, Velocity: 82
Note OFF: Time 254880, Note Name: G#3
Note ON: Time 254880, Note Name: A3, Velocity: 84
Note OFF: Time 256320, Note Name: A3
Note ON: Time 256320, Note Name: A#3, Velocity: 84
Note OFF: Time 257760, Note Name: A#3
Note ON: Time 257760, Note Name: G#3, Velocity: 84
Note OFF: Time 257880, Note Name: G#3
Note ON: Time 257880, Note Name: A#3, Velocity: 57
Note OFF: Time 258000, Note Name: A#3
Note ON: Time 258000, Note Name: G#3, Velocity: 61
Note OFF: Time 258080, Note Name: G#3
Note ON: Time 258080, Note Name: A#3, Velocity: 57
Note OFF: Time 258160, Note Name: A#3
Note ON: Time 258160, Note Name: G#3, Velocity: 64
Note OFF: Time 258240, Note Name: G#3
Note ON: Time 258240, Note Name: A#3, Velocity: 56
Note OFF: Time 258320, Note Name: A#3
Note ON: Time 258320, Note Name: G#3, Velocity: 64
Note OFF: Time 258400, Note Name: G#3
Note ON: Time 258400, Note Name: A#3, Velocity: 56
Note OFF: Time 258480, Note Name: A#3
Note ON: Time 258480, Note Name: G#3, Velocity: 64
Note OFF: Time 258560, Note Name: G#3
Note ON: Time 258560, Note Name: A#3, Velocity: 55
Note OFF: Time 258640, Note Name: A#3
Note ON: Time 258640, Note Name: G#3, Velocity: 64
Note OFF: Time 258720, Note Name: G#3
Note ON: Time 258720, Note Name: A#3, Velocity: 54
Note OFF: Time 258840, Note Name: A#3
Note ON: Time 258840, Note Name: G#3, Velocity: 59
Note OFF: Time 258960, Note Name: G#3
Note ON: Time 258960, Note Name: G3, Velocity: 55
Note OFF: Time 259080, Note Name: G3
Note ON: Time 259080, Note Name: G#3, Velocity: 57
Note OFF: Time 259200, Note Name: G#3
Note ON: Time 259200, Note Name: G3, Velocity: 74
Note OFF: Time 259440, Note Name: G3
Note ON: Time 259440, Note Name: A#3, Velocity: 60
Note OFF: Time 259680, Note Name: A#3
Note ON: Time 259680, Note Name: D#4, Velocity: 68
Note OFF: Time 259920, Note Name: D#4
Note ON: Time 259920, Note Name: A#3, Velocity: 61
Note OFF: Time 260160, Note Name: A#3
Note ON: Time 260160, Note Name: D#4, Velocity: 69
Note OFF: Time 260400, Note Name: D#4
Note ON: Time 260400, Note Name: G4, Velocity: 63
Note OFF: Time 260640, Note Name: G4
Note ON: Time 260640, Note Name: A#4, Velocity: 69
Note OFF: Time 260880, Note Name: A#4
Note ON: Time 260880, Note Name: G4, Velocity: 60
Note OFF: Time 261120, Note Name: G4
Note ON: Time 261120, Note Name: A#4, Velocity: 69
Note OFF: Time 261360, Note Name: A#4
Note ON: Time 261360, Note Name: D#5, Velocity: 62
Note OFF: Time 261600, Note Name: D#5
Note ON: Time 261600, Note Name: G5, Velocity: 78
Note OFF: Time 261840, Note Name: G5
Note ON: Time 261840, Note Name: A#5, Velocity: 73
Note OFF: Time 262080, Note Name: A#5
Note ON: Time 262080, Note Name: D#6, Velocity: 89
Note OFF: Time 262320, Note Name: D#6
Note ON: Time 263040, Note Name: D#4, Velocity: 84
Note OFF: Time 264480, Note Name: D#4
Note ON: Time 264480, Note Name: G3, Velocity: 81
Note OFF: Time 264960, Note Name: G3
Note ON: Time 264960, Note Name: G#3, Velocity: 84
Note OFF: Time 265920, Note Name: G#3
Note ON: Time 265920, Note Name: D#4, Velocity: 84
Note OFF: Time 266400, Note Name: D#4
Note ON: Time 266400, Note Name: A3, Velocity: 92
Note OFF: Time 267360, Note Name: A3
Note ON: Time 267360, Note Name: D#4, Velocity: 84
Note OFF: Time 267840, Note Name: D#4
Note ON: Time 267840, Note Name: A#3, Velocity: 77
Note OFF: Time 268080, Note Name: A#3
Note ON: Time 268080, Note Name: D#4, Velocity: 60
Note OFF: Time 268320, Note Name: D#4
Note ON: Time 268320, Note Name: D4, Velocity: 69
Note OFF: Time 268560, Note Name: D4
Note ON: Time 268560, Note Name: D#4, Velocity: 55
Note OFF: Time 268800, Note Name: D#4
Note ON: Time 268800, Note Name: B3, Velocity: 68
Note OFF: Time 269040, Note Name: B3
Note ON: Time 269040, Note Name: D#4, Velocity: 61
Note OFF: Time 269280, Note Name: D#4
Note ON: Time 269280, Note Name: C4, Velocity: 82
Note OFF: Time 269520, Note Name: C4
Note ON: Time 269520, Note Name: D#4, Velocity: 63
Note OFF: Time 269760, Note Name: D#4
Note ON: Time 269760, Note Name: D4, Velocity: 70
Note OFF: Time 270000, Note Name: D4
Note ON: Time 270000, Note Name: D#4, Velocity: 62
Note OFF: Time 270240, Note Name: D#4
Note ON: Time 270240, Note Name: A3, Velocity: 70
Note OFF: Time 270480, Note Name: A3
Note ON: Time 270480, Note Name: D#4, Velocity: 61
Note OFF: Time 270720, Note Name: D#4
Note ON: Time 270720, Note Name: A#3, Velocity: 88
Note OFF: Time 270960, Note Name: A#3
Note ON: Time 270960, Note Name: D#4, Velocity: 66
Note OFF: Time 271200, Note Name: D#4
Note ON: Time 271200, Note Name: C#4, Velocity: 75
Note OFF: Time 271440, Note Name: C#4
Note ON: Time 271440, Note Name: D#4, Velocity: 62
Note OFF: Time 271680, Note Name: D#4
Note ON: Time 271680, Note Name: B3, Velocity: 74
Note OFF: Time 271920, Note Name: B3
Note ON: Time 271920, Note Name: D#4, Velocity: 65
Note OFF: Time 272160, Note Name: D#4
Note ON: Time 272160, Note Name: C4, Velocity: 88
Note OFF: Time 272400, Note Name: C4
Note ON: Time 272400, Note Name: D#4, Velocity: 65
Note OFF: Time 272640, Note Name: D#4
Note ON: Time 272640, Note Name: D4, Velocity: 71
Note OFF: Time 272880, Note Name: D4
Note ON: Time 272880, Note Name: D#4, Velocity: 65
Note OFF: Time 273120, Note Name: D#4
Note ON: Time 273120, Note Name: A3, Velocity: 80
Note OFF: Time 273360, Note Name: A3
Note ON: Time 273360, Note Name: D#4, Velocity: 72
Note OFF: Time 273600, Note Name: D#4
Note ON: Time 273600, Note Name: A#3, Velocity: 93
Note OFF: Time 274080, Note Name: A#3
Note ON: Time 274440, Note Name: D#4, Velocity: 81
Note OFF: Time 274560, Note Name: D#4
Note ON: Time 274560, Note Name: A#4, Velocity: 87
Note OFF: Time 274920, Note Name: A#4
Note ON: Time 274920, Note Name: G4, Velocity: 84
Note OFF: Time 275040, Note Name: G4
Note ON: Time 275040, Note Name: D#5, Velocity: 93
Note OFF: Time 275160, Note Name: D#5
Note ON: Time 275880, Note Name: D#4, Velocity: 81
Note OFF: Time 276000, Note Name: D#4
Note ON: Time 276000, Note Name: A4, Velocity: 87
Note OFF: Time 276360, Note Name: A4
Note ON: Time 276360, Note Name: F#4, Velocity: 84
Note OFF: Time 276480, Note Name: F#4
Note ON: Time 276480, Note Name: D#5, Velocity: 93
Note OFF: Time 276600, Note Name: D#5
Note ON: Time 277320, Note Name: D#4, Velocity: 81
Note OFF: Time 277440, Note Name: D#4
Note ON: Time 277440, Note Name: A#4, Velocity: 87
Note OFF: Time 277800, Note Name: A#4
Note ON: Time 277800, Note Name: G4, Velocity: 84
Note OFF: Time 277920, Note Name: G4
Note ON: Time 277920, Note Name: D#5, Velocity: 93
Note OFF: Time 278040, Note Name: D#5
Note ON: Time 278760, Note Name: C5, Velocity: 81
Note OFF: Time 278880, Note Name: C5
Note ON: Time 278880, Note Name: F#5, Velocity: 87
Note OFF: Time 279240, Note Name: F#5
Note ON: Time 279240, Note Name: D#5, Velocity: 84
Note OFF: Time 279360, Note Name: D#5
Note ON: Time 279360, Note Name: G5, Velocity: 95
Note OFF: Time 280080, Note Name: G5
Note ON: Time 280080, Note Name: D#5, Velocity: 85
Note OFF: Time 280320, Note Name: D#5
Note ON: Time 280320, Note Name: D#5, Velocity: 93
Note OFF: Time 280560, Note Name: D#5
Note ON: Time 280560, Note Name: A#4, Velocity: 79
Note OFF: Time 280740, Note Name: A#4
Note ON: Time 280800, Note Name: A#4, Velocity: 88
Note OFF: Time 281040, Note Name: A#4
Note ON: Time 281040, Note Name: G4, Velocity: 78
Note OFF: Time 281220, Note Name: G4
Note ON: Time 281280, Note Name: G4, Velocity: 85
Note OFF: Time 281520, Note Name: G4
Note ON: Time 281520, Note Name: D#4, Velocity: 77
Note OFF: Time 281700, Note Name: D#4
Note ON: Time 281760, Note Name: D#4, Velocity: 81
Note OFF: Time 282000, Note Name: D#4
Note ON: Time 282000, Note Name: A#3, Velocity: 77
Note OFF: Time 282180, Note Name: A#3
Note ON: Time 284640, Note Name: A#3, Velocity: 66
Note ON: Time 284640, Note Name: D4, Velocity: 78
Note OFF: Time 285120, Note Name: D4
Note OFF: Time 285120, Note Name: A#3
Note ON: Time 285120, Note Name: A#3, Velocity: 70
Note ON: Time 285120, Note Name: D#4, Velocity: 83
Note OFF: Time 285600, Note Name: D#4
Note OFF: Time 285600, Note Name: A#3
Note ON: Time 287040, Note Name: A#4, Velocity: 53
Note ON: Time 287040, Note Name: F4, Velocity: 42
Note ON: Time 287040, Note Name: G#4, Velocity: 42
Note ON: Time 287040, Note Name: D4, Velocity: 42
Note OFF: Time 287520, Note Name: D4
Note OFF: Time 287520, Note Name: A#4
Note OFF: Time 287520, Note Name: F4
Note OFF: Time 287520, Note Name: G#4
Note ON: Time 287520, Note Name: D4, Velocity: 38
Note ON: Time 287520, Note Name: F4, Velocity: 38
Note ON: Time 287520, Note Name: G#4, Velocity: 38
Note ON: Time 287520, Note Name: A#4, Velocity: 48
Note OFF: Time 288000, Note Name: A#4
Note OFF: Time 288000, Note Name: D4
Note OFF: Time 288000, Note Name: F4
Note OFF: Time 288000, Note Name: G#4
Note ON: Time 288000, Note Name: D#4, Velocity: 42
Note ON: Time 288000, Note Name: G4, Velocity: 42
Note ON: Time 288000, Note Name: C5, Velocity: 53
Note OFF: Time 288480, Note Name: C5
Note ON: Time 288480, Note Name: A#4, Velocity: 49
Note OFF: Time 288960, Note Name: A#4
Note OFF: Time 288960, Note Name: G4
Note OFF: Time 288960, Note Name: D#4
Note ON: Time 289920, Note Name: F4, Velocity: 42
Note ON: Time 289920, Note Name: G#4, Velocity: 42
Note ON: Time 289920, Note Name: D5, Velocity: 53
Note OFF: Time 290400, Note Name: D5
Note OFF: Time 290400, Note Name: G#4
Note OFF: Time 290400, Note Name: F4
Note ON: Time 290400, Note Name: F4, Velocity: 38
Note ON: Time 290400, Note Name: G#4, Velocity: 38
Note ON: Time 290400, Note Name: D5, Velocity: 48
Note OFF: Time 290880, Note Name: D5
Note OFF: Time 290880, Note Name: G#4
Note OFF: Time 290880, Note Name: F4
Note ON: Time 290880, Note Name: G4, Velocity: 42
Note ON: Time 290880, Note Name: A#4, Velocity: 42
Note ON: Time 290880, Note Name: F5, Velocity: 53
Note OFF: Time 291360, Note Name: F5
Note ON: Time 291360, Note Name: D#5, Velocity: 49
Note OFF: Time 291840, Note Name: D#5
Note OFF: Time 291840, Note Name: A#4
Note OFF: Time 291840, Note Name: G4
Note ON: Time 292800, Note Name: D4, Velocity: 42
Note ON: Time 292800, Note Name: F4, Velocity: 42
Note ON: Time 292800, Note Name: G#4, Velocity: 42
Note ON: Time 292800, Note Name: A#4, Velocity: 53
Note OFF: Time 293280, Note Name: A#4
Note OFF: Time 293280, Note Name: D4
Note OFF: Time 293280, Note Name: F4
Note OFF: Time 293280, Note Name: G#4
Note ON: Time 293280, Note Name: A#4, Velocity: 48
Note ON: Time 293280, Note Name: F4, Velocity: 38
Note ON: Time 293280, Note Name: G#4, Velocity: 38
Note ON: Time 293280, Note Name: D4, Velocity: 38
Note OFF: Time 293760, Note Name: D4
Note OFF: Time 293760, Note Name: A#4
Note OFF: Time 293760, Note Name: F4
Note OFF: Time 293760, Note Name: G#4
Note ON: Time 293760, Note Name: D#4, Velocity: 42
Note ON: Time 293760, Note Name: G4, Velocity: 42
Note ON: Time 293760, Note Name: C5, Velocity: 53
Note OFF: Time 294240, Note Name: C5
Note ON: Time 294240, Note Name: A#4, Velocity: 49
Note OFF: Time 294720, Note Name: A#4
Note OFF: Time 294720, Note Name: G4
Note OFF: Time 294720, Note Name: D#4
Note ON: Time 295680, Note Name: F3, Velocity: 42
Note ON: Time 295680, Note Name: G#3, Velocity: 42
Note ON: Time 295680, Note Name: D4, Velocity: 53
Note OFF: Time 296160, Note Name: D4
Note OFF: Time 296160, Note Name: G#3
Note OFF: Time 296160, Note Name: F3
Note ON: Time 296160, Note Name: F3, Velocity: 38
Note ON: Time 296160, Note Name: G#3, Velocity: 38
Note ON: Time 296160, Note Name: D4, Velocity: 48
Note OFF: Time 296640, Note Name: D4
Note OFF: Time 296640, Note Name: G#3
Note OFF: Time 296640, Note Name: F3
Note ON: Time 296640, Note Name: G3, Velocity: 42
Note ON: Time 296640, Note Name: A#3, Velocity: 42
Note ON: Time 296640, Note Name: F4, Velocity: 53
Note OFF: Time 297120, Note Name: F4
Note ON: Time 297120, Note Name: D#4, Velocity: 49
Note OFF: Time 297600, Note Name: D#4
Note OFF: Time 297600, Note Name: A#3
Note OFF: Time 297600, Note Name: G3
Note ON: Time 298560, Note Name: F3, Velocity: 42
Note ON: Time 298560, Note Name: G#3, Velocity: 42
Note ON: Time 298560, Note Name: D4, Velocity: 53
Note OFF: Time 299040, Note Name: D4
Note OFF: Time 299040, Note Name: G#3
Note OFF: Time 299040, Note Name: F3
Note ON: Time 299040, Note Name: F3, Velocity: 38
Note ON: Time 299040, Note Name: G#3, Velocity: 38
Note ON: Time 299040, Note Name: D4, Velocity: 48
Note OFF: Time 299520, Note Name: D4
Note OFF: Time 299520, Note Name: G#3
Note OFF: Time 299520, Note Name: F3
Note ON: Time 299520, Note Name: G#3, Velocity: 42
Note ON: Time 299520, Note Name: D4, Velocity: 42
Note ON: Time 299520, Note Name: F4, Velocity: 53
Note OFF: Time 300960, Note Name: F4
Note OFF: Time 300960, Note Name: D4
Note OFF: Time 300960, Note Name: G#3
Note ON: Time 300960, Note Name: A#3, Velocity: 44
Note ON: Time 300960, Note Name: D#4, Velocity: 49
Note OFF: Time 301440, Note Name: D#4
Note OFF: Time 301440, Note Name: A#3
Note ON: Time 302400, Note Name: E4, Velocity: 69
Note ON: Time 302400, Note Name: G4, Velocity: 69
Note ON: Time 302400, Note Name: C5, Velocity: 82
Note OFF: Time 303120, Note Name: C5
Note OFF: Time 303120, Note Name: G4
Note OFF: Time 303120, Note Name: E4
Note ON: Time 303240, Note Name: G4, Velocity: 70
Note OFF: Time 303360, Note Name: G4
Note ON: Time 303360, Note Name: E5, Velocity: 78
Note OFF: Time 303720, Note Name: E5
Note ON: Time 303720, Note Name: C5, Velocity: 70
Note OFF: Time 303840, Note Name: C5
Note ON: Time 303840, Note Name: G5, Velocity: 79
Note OFF: Time 304200, Note Name: G5
Note ON: Time 304200, Note Name: E5, Velocity: 70
Note OFF: Time 304320, Note Name: E5
Note ON: Time 304320, Note Name: C6, Velocity: 79
Note OFF: Time 304680, Note Name: C6
Note ON: Time 304680, Note Name: G5, Velocity: 70
Note OFF: Time 304800, Note Name: G5
Note ON: Time 304800, Note Name: E6, Velocity: 84
Note OFF: Time 304920, Note Name: E6
Note ON: Time 305280, Note Name: E6, Velocity: 84
Note OFF: Time 305400, Note Name: E6
Note ON: Time 306240, Note Name: C5, Velocity: 39
Note ON: Time 306240, Note Name: E5, Velocity: 46
Note OFF: Time 306480, Note Name: E5
Note OFF: Time 306480, Note Name: C5
Note ON: Time 306720, Note Name: C5, Velocity: 42
Note ON: Time 306720, Note Name: E5, Velocity: 50
Note OFF: Time 307680, Note Name: E5
Note OFF: Time 307680, Note Name: C5
Note ON: Time 307680, Note Name: D5, Velocity: 46
Note ON: Time 307680, Note Name: B4, Velocity: 39
Note OFF: Time 308150, Note Name: B4
Note OFF: Time 308150, Note Name: D5
Note ON: Time 308160, Note Name: B4, Velocity: 42
Note ON: Time 308160, Note Name: D5, Velocity: 50
Note OFF: Time 308880, Note Name: D5
Note OFF: Time 308880, Note Name: B4
Note ON: Time 309000, Note Name: B4, Velocity: 70
Note OFF: Time 309120, Note Name: B4
Note ON: Time 309120, Note Name: F5, Velocity: 78
Note OFF: Time 309480, Note Name: F5
Note ON: Time 309480, Note Name: D5, Velocity: 70
Note OFF: Time 309600, Note Name: D5
Note ON: Time 309600, Note Name: B5, Velocity: 79
Note OFF: Time 309960, Note Name: B5
Note ON: Time 309960, Note Name: F5, Velocity: 70
Note OFF: Time 310080, Note Name: F5
Note ON: Time 310080, Note Name: D6, Velocity: 79
Note OFF: Time 310440, Note Name: D6
Note ON: Time 310440, Note Name: B5, Velocity: 70
Note OFF: Time 310560, Note Name: B5
Note ON: Time 310560, Note Name: F6, Velocity: 84
Note OFF: Time 310680, Note Name: F6
Note ON: Time 311040, Note Name: F6, Velocity: 84
Note OFF: Time 311160, Note Name: F6
Note ON: Time 312000, Note Name: D5, Velocity: 39
Note ON: Time 312000, Note Name: F5, Velocity: 46
Note OFF: Time 312240, Note Name: F5
Note OFF: Time 312240, Note Name: D5
Note ON: Time 312480, Note Name: D5, Velocity: 42
Note ON: Time 312480, Note Name: F5, Velocity: 50
Note OFF: Time 313440, Note Name: F5
Note OFF: Time 313440, Note Name: D5
Note ON: Time 313440, Note Name: E5, Velocity: 46
Note ON: Time 313440, Note Name: C#5, Velocity: 39
Note OFF: Time 313910, Note Name: C#5
Note OFF: Time 313910, Note Name: E5
Note ON: Time 313920, Note Name: C#5, Velocity: 42
Note ON: Time 313920, Note Name: E5, Velocity: 50
Note OFF: Time 314640, Note Name: E5
Note OFF: Time 314640, Note Name: C#5
Note ON: Time 314760, Note Name: A#4, Velocity: 70
Note OFF: Time 314880, Note Name: A#4
Note ON: Time 314880, Note Name: E5, Velocity: 78
Note OFF: Time 315240, Note Name: E5
Note ON: Time 315240, Note Name: C#5, Velocity: 70
Note OFF: Time 315360, Note Name: C#5
Note ON: Time 315360, Note Name: G5, Velocity: 84
Note OFF: Time 315720, Note Name: G5
Note ON: Time 315720, Note Name: E5, Velocity: 70
Note OFF: Time 315840, Note Name: E5
Note ON: Time 315840, Note Name: A#5, Velocity: 85
Note OFF: Time 316200, Note Name: A#5
Note ON: Time 316200, Note Name: G5, Velocity: 70
Note OFF: Time 316320, Note Name: G5
Note ON: Time 316320, Note Name: C#6, Velocity: 89
Note OFF: Time 316440, Note Name: C#6
Note ON: Time 316800, Note Name: G4, Velocity: 87
Note OFF: Time 316920, Note Name: G4
Note ON: Time 317280, Note Name: A#5, Velocity: 86
Note OFF: Time 317400, Note Name: A#5
Note ON: Time 318240, Note Name: E4, Velocity: 85
Note OFF: Time 318360, Note Name: E4
Note ON: Time 318720, Note Name: G5, Velocity: 79
Note OFF: Time 318840, Note Name: G5
Note ON: Time 319680, Note Name: F4, Velocity: 42
Note ON: Time 319680, Note Name: F5, Velocity: 50
Note OFF: Time 321120, Note Name: F5
Note OFF: Time 321120, Note Name: F4
Note ON: Time 321120, Note Name: C6, Velocity: 53
Note ON: Time 321120, Note Name: C5, Velocity: 45
Note OFF: Time 322070, Note Name: C5
Note OFF: Time 322070, Note Name: C6
Note ON: Time 322080, Note Name: C6, Velocity: 50
Note ON: Time 322080, Note Name: C5, Velocity: 42
Note OFF: Time 322550, Note Name: C5
Note OFF: Time 322550, Note Name: C6
Note ON: Time 322560, Note Name: C6, Velocity: 54
Note ON: Time 322560, Note Name: C5, Velocity: 45
Note OFF: Time 323040, Note Name: C5
Note OFF: Time 323040, Note Name: C6
Note ON: Time 323040, Note Name: B5, Velocity: 50
Note ON: Time 323040, Note Name: B4, Velocity: 42
Note OFF: Time 323520, Note Name: B4
Note OFF: Time 323520, Note Name: B5
Note ON: Time 323520, Note Name: C#6, Velocity: 50
Note ON: Time 323520, Note Name: C#5, Velocity: 42
Note OFF: Time 324000, Note Name: C#5
Note OFF: Time 324000, Note Name: C#6
Note ON: Time 324000, Note Name: C5, Velocity: 42
Note ON: Time 324000, Note Name: C6, Velocity: 50
Note OFF: Time 324480, Note Name: C6
Note OFF: Time 324480, Note Name: C5
Note ON: Time 324480, Note Name: A#5, Velocity: 50
Note ON: Time 324480, Note Name: A#4, Velocity: 42
Note OFF: Time 324960, Note Name: A#4
Note OFF: Time 324960, Note Name: A#5
Note ON: Time 324960, Note Name: G5, Velocity: 50
Note ON: Time 324960, Note Name: G4, Velocity: 42
Note OFF: Time 325440, Note Name: G4
Note OFF: Time 325440, Note Name: G5
Note ON: Time 325440, Note Name: E5, Velocity: 56
Note ON: Time 325440, Note Name: E4, Velocity: 47
Note OFF: Time 326400, Note Name: E4
Note OFF: Time 326400, Note Name: E5
Note ON: Time 326400, Note Name: G4, Velocity: 50
Note ON: Time 326400, Note Name: G5, Velocity: 59
Note OFF: Time 326880, Note Name: G5
Note OFF: Time 326880, Note Name: G4
Note ON: Time 326880, Note Name: C6, Velocity: 65
Note ON: Time 326880, Note Name: C5, Velocity: 55
Note OFF: Time 327840, Note Name: C5
Note OFF: Time 327840, Note Name: C6
Note ON: Time 327840, Note Name: G5, Velocity: 59
Note ON: Time 327840, Note Name: G4, Velocity: 50
Note OFF: Time 328320, Note Name: G4
Note OFF: Time 328320, Note Name: G5
Note ON: Time 328320, Note Name: A#4, Velocity: 54
Note ON: Time 328320, Note Name: A#5, Velocity: 64
Note OFF: Time 329760, Note Name: A#5
Note OFF: Time 329760, Note Name: A#4
Note ON: Time 329760, Note Name: G#5, Velocity: 58
Note ON: Time 329760, Note Name: G#4, Velocity: 49
Note OFF: Time 330240, Note Name: G#4
Note OFF: Time 330240, Note Name: G#5
Note ON: Time 330720, Note Name: A4, Velocity: 48
Note ON: Time 330720, Note Name: A5, Velocity: 57
Note OFF: Time 331200, Note Name: A5
Note OFF: Time 331200, Note Name: A4
Note ON: Time 331200, Note Name: A#4, Velocity: 52
Note ON: Time 331200, Note Name: A#5, Velocity: 62
Note OFF: Time 332640, Note Name: A#5
Note OFF: Time 332640, Note Name: A#4
Note ON: Time 332640, Note Name: F6, Velocity: 66
Note ON: Time 332640, Note Name: F5, Velocity: 56
Note OFF: Time 333590, Note Name: F5
Note OFF: Time 333590, Note Name: F6
Note ON: Time 333600, Note Name: F6, Velocity: 62
Note ON: Time 333600, Note Name: F5, Velocity: 52
Note OFF: Time 334070, Note Name: F5
Note OFF: Time 334070, Note Name: F6
Note ON: Time 334080, Note Name: F6, Velocity: 68
Note ON: Time 334080, Note Name: F5, Velocity: 57
Note OFF: Time 334560, Note Name: F5
Note OFF: Time 334560, Note Name: F6
Note ON: Time 334560, Note Name: E6, Velocity: 62
Note ON: Time 334560, Note Name: E5, Velocity: 52
Note OFF: Time 335040, Note Name: E5
Note OFF: Time 335040, Note Name: E6
Note ON: Time 335040, Note Name: F#6, Velocity: 62
Note ON: Time 335040, Note Name: F#5, Velocity: 52
Note OFF: Time 335520, Note Name: F#5
Note OFF: Time 335520, Note Name: F#6
Note ON: Time 335520, Note Name: F5, Velocity: 52
Note ON: Time 335520, Note Name: F6, Velocity: 62
Note OFF: Time 336000, Note Name: F6
Note OFF: Time 336000, Note Name: F5
Note ON: Time 336000, Note Name: D#6, Velocity: 62
Note ON: Time 336000, Note Name: D#5, Velocity: 52
Note OFF: Time 336480, Note Name: D#5
Note OFF: Time 336480, Note Name: D#6
Note ON: Time 336480, Note Name: C6, Velocity: 62
Note ON: Time 336480, Note Name: C5, Velocity: 52
Note OFF: Time 336960, Note Name: C5
Note OFF: Time 336960, Note Name: C6
Note ON: Time 336960, Note Name: A5, Velocity: 70
Note ON: Time 336960, Note Name: A4, Velocity: 59
Note OFF: Time 337920, Note Name: A4
Note OFF: Time 337920, Note Name: A5
Note ON: Time 337920, Note Name: C5, Velocity: 61
Note ON: Time 337920, Note Name: C6, Velocity: 73
Note OFF: Time 338400, Note Name: C6
Note OFF: Time 338400, Note Name: C5
Note ON: Time 338400, Note Name: F6, Velocity: 81
Note ON: Time 338400, Note Name: F5, Velocity: 68
Note OFF: Time 339360, Note Name: F5
Note OFF: Time 339360, Note Name: F6
Note ON: Time 339360, Note Name: C6, Velocity: 73
Note ON: Time 339360, Note Name: C5, Velocity: 61
Note OFF: Time 339840, Note Name: C5
Note OFF: Time 339840, Note Name: C6
Note ON: Time 339840, Note Name: D#5, Velocity: 68
Note ON: Time 339840, Note Name: D#6, Velocity: 80
Note OFF: Time 341280, Note Name: D#6
Note OFF: Time 341280, Note Name: D#5
Note ON: Time 341280, Note Name: C#6, Velocity: 72
Note ON: Time 341280, Note Name: C#5, Velocity: 61
Note OFF: Time 341760, Note Name: C#5
Note OFF: Time 341760, Note Name: C#6
Note ON: Time 342240, Note Name: C#5, Velocity: 61
Note OFF: Time 342720, Note Name: C#5
Note ON: Time 342720, Note Name: C5, Velocity: 67
Note OFF: Time 343680, Note Name: C5
Note ON: Time 343680, Note Name: D#5, Velocity: 61
Note OFF: Time 343800, Note Name: D#5
Note ON: Time 343800, Note Name: F5, Velocity: 57
Note OFF: Time 343880, Note Name: F5
Note ON: Time 343880, Note Name: D#5, Velocity: 61
Note OFF: Time 343960, Note Name: D#5
Note ON: Time 343960, Note Name: D5, Velocity: 65
Note OFF: Time 344040, Note Name: D5
Note ON: Time 344040, Note Name: D#5, Velocity: 69
Note OFF: Time 344160, Note Name: D#5
Note ON: Time 344160, Note Name: G#5, Velocity: 74
Note OFF: Time 345120, Note Name: G#5
Note ON: Time 345120, Note Name: D#5, Velocity: 66
Note OFF: Time 345600, Note Name: D#5
Note ON: Time 345600, Note Name: F5, Velocity: 70
Note OFF: Time 346080, Note Name: F5
Note ON: Time 346080, Note Name: E5, Velocity: 61
Note OFF: Time 346560, Note Name: E5
Note ON: Time 346560, Note Name: F#5, Velocity: 61
Note OFF: Time 347040, Note Name: F#5
Note ON: Time 347040, Note Name: F5, Velocity: 70
Note OFF: Time 347520, Note Name: F5
Note ON: Time 347520, Note Name: D#5, Velocity: 61
Note OFF: Time 348000, Note Name: D#5
Note ON: Time 348000, Note Name: C5, Velocity: 61
Note OFF: Time 348480, Note Name: C5
Note ON: Time 348480, Note Name: G#5, Velocity: 70
Note OFF: Time 348960, Note Name: G#5
Note ON: Time 348960, Note Name: G5, Velocity: 61
Note OFF: Time 349440, Note Name: G5
Note ON: Time 349440, Note Name: A#5, Velocity: 61
Note OFF: Time 349920, Note Name: A#5
Note ON: Time 349920, Note Name: G#5, Velocity: 70
Note OFF: Time 350400, Note Name: G#5
Note ON: Time 350400, Note Name: F#5, Velocity: 61
Note OFF: Time 350880, Note Name: F#5
Note ON: Time 350880, Note Name: D#5, Velocity: 61
Note OFF: Time 351360, Note Name: D#5
Note ON: Time 351360, Note Name: F5, Velocity: 70
Note OFF: Time 351840, Note Name: F5
Note ON: Time 351840, Note Name: E5, Velocity: 61
Note OFF: Time 352320, Note Name: E5
Note ON: Time 352320, Note Name: F#5, Velocity: 61
Note OFF: Time 352800, Note Name: F#5
Note ON: Time 352800, Note Name: F5, Velocity: 70
Note OFF: Time 353280, Note Name: F5
Note ON: Time 353280, Note Name: D#5, Velocity: 61
Note OFF: Time 353760, Note Name: D#5
Note ON: Time 353760, Note Name: C5, Velocity: 61
Note OFF: Time 354240, Note Name: C5
Note ON: Time 354240, Note Name: C#5, Velocity: 66
Note OFF: Time 355680, Note Name: C#5
Note ON: Time 355680, Note Name: A#5, Velocity: 71
Note ON: Time 355680, Note Name: C#5, Velocity: 57
Note OFF: Time 356630, Note Name: C#5
Note OFF: Time 356630, Note Name: A#5
Note ON: Time 356640, Note Name: A#5, Velocity: 74
Note ON: Time 356640, Note Name: C#5, Velocity: 60
Note OFF: Time 357110, Note Name: C#5
Note OFF: Time 357110, Note Name: A#5
Note ON: Time 357120, Note Name: A#5, Velocity: 78
Note ON: Time 357120, Note Name: C5, Velocity: 63
Note OFF: Time 359520, Note Name: C5
Note OFF: Time 359520, Note Name: A#5
Note ON: Time 359520, Note Name: G4, Velocity: 61
Note ON: Time 359520, Note Name: A#4, Velocity: 72
Note OFF: Time 360000, Note Name: A#4
Note OFF: Time 360000, Note Name: G4
Note ON: Time 360000, Note Name: F4, Velocity: 58
Note ON: Time 360000, Note Name: G#4, Velocity: 69
Note OFF: Time 361440, Note Name: G#4
Note OFF: Time 361440, Note Name: F4
Note ON: Time 361440, Note Name: G#5, Velocity: 78
Note ON: Time 361440, Note Name: F5, Velocity: 62
Note OFF: Time 362390, Note Name: F5
Note OFF: Time 362390, Note Name: G#5
Note ON: Time 362400, Note Name: F5, Velocity: 66
Note ON: Time 362400, Note Name: G#5, Velocity: 81
Note OFF: Time 362880, Note Name: G#5
Note OFF: Time 362880, Note Name: F5
Note ON: Time 362880, Note Name: G5, Velocity: 85
Note ON: Time 362880, Note Name: F5, Velocity: 69
Note OFF: Time 365280, Note Name: F5
Note OFF: Time 365280, Note Name: G5
Note ON: Time 365280, Note Name: D4, Velocity: 61
Note ON: Time 365280, Note Name: F4, Velocity: 72
Note OFF: Time 365760, Note Name: F4
Note OFF: Time 365760, Note Name: D4
Note ON: Time 365760, Note Name: C4, Velocity: 58
Note ON: Time 365760, Note Name: D#4, Velocity: 69
Note OFF: Time 366240, Note Name: D#4
Note OFF: Time 366240, Note Name: C4
Note ON: Time 367200, Note Name: C5, Velocity: 72
Note ON: Time 367200, Note Name: C6, Velocity: 85
Note ON: Time 367200, Note Name: D#5, Velocity: 72
Note OFF: Time 368150, Note Name: D#5
Note OFF: Time 368150, Note Name: C6
Note OFF: Time 368150, Note Name: C5
Note ON: Time 368160, Note Name: C5, Velocity: 71
Note ON: Time 368160, Note Name: D#5, Velocity: 71
Note ON: Time 368160, Note Name: C6, Velocity: 84
Note OFF: Time 368630, Note Name: C6
Note OFF: Time 368630, Note Name: D#5
Note OFF: Time 368630, Note Name: C5
Note ON: Time 368640, Note Name: C5, Velocity: 76
Note ON: Time 368640, Note Name: C6, Velocity: 90
Note ON: Time 368640, Note Name: G#5, Velocity: 76
Note OFF: Time 370080, Note Name: G#5
Note OFF: Time 370080, Note Name: C6
Note OFF: Time 370080, Note Name: C5
Note ON: Time 370080, Note Name: F5, Velocity: 82
Note ON: Time 370080, Note Name: F6, Velocity: 97
Note ON: Time 370080, Note Name: G#5, Velocity: 82
Note OFF: Time 371030, Note Name: G#5
Note OFF: Time 371030, Note Name: F6
Note OFF: Time 371030, Note Name: F5
Note ON: Time 371040, Note Name: F5, Velocity: 81
Note ON: Time 371040, Note Name: G#5, Velocity: 81
Note ON: Time 371040, Note Name: F6, Velocity: 96
Note OFF: Time 371510, Note Name: F6
Note OFF: Time 371510, Note Name: G#5
Note OFF: Time 371510, Note Name: F5
Note ON: Time 371520, Note Name: G5, Velocity: 87
Note ON: Time 371520, Note Name: F5, Velocity: 87
Note ON: Time 371520, Note Name: F6, Velocity: 103
Note ON: Time 371520, Note Name: D6, Velocity: 87
Note OFF: Time 373920, Note Name: D6
Note OFF: Time 373920, Note Name: G5
Note OFF: Time 373920, Note Name: F5
Note OFF: Time 373920, Note Name: F6
Note ON: Time 373920, Note Name: D5, Velocity: 67
Note ON: Time 373920, Note Name: F5, Velocity: 79
Note OFF: Time 374400, Note Name: F5
Note OFF: Time 374400, Note Name: D5
Note ON: Time 374400, Note Name: C5, Velocity: 72
Note ON: Time 374400, Note Name: D#5, Velocity: 85
Note OFF: Time 375360, Note Name: D#5
Note OFF: Time 375360, Note Name: C5
Note ON: Time 375360, Note Name: G4, Velocity: 64
Note ON: Time 375360, Note Name: D#5, Velocity: 76
Note ON: Time 375840, Note Name: G#4, Velocity: 80
Note OFF: Time 376320, Note Name: D#5
Note OFF: Time 376320, Note Name: G4
Note ON: Time 376320, Note Name: F4, Velocity: 62
Note ON: Time 376320, Note Name: D5, Velocity: 74
Note OFF: Time 376800, Note Name: D5
Note OFF: Time 376800, Note Name: F4
Note OFF: Time 376800, Note Name: G#4
Note ON: Time 376800, Note Name: D#4, Velocity: 60
Note ON: Time 376800, Note Name: A4, Velocity: 60
Note ON: Time 376800, Note Name: C5, Velocity: 71
Note OFF: Time 377280, Note Name: C5
Note OFF: Time 377280, Note Name: A4
Note OFF: Time 377280, Note Name: D#4
Note ON: Time 377280, Note Name: D4, Velocity: 64
Note ON: Time 377280, Note Name: G4, Velocity: 64
Note ON: Time 377280, Note Name: B4, Velocity: 76
Note OFF: Time 377760, Note Name: B4
Note OFF: Time 377760, Note Name: G4
Note OFF: Time 377760, Note Name: D4
Note ON: Time 378240, Note Name: B4, Velocity: 48
Note ON: Time 378240, Note Name: D5, Velocity: 48
Note ON: Time 378240, Note Name: G5, Velocity: 57
Note OFF: Time 378720, Note Name: G5
Note OFF: Time 378720, Note Name: D5
Note OFF: Time 378720, Note Name: B4
Note ON: Time 378720, Note Name: G#4, Velocity: 51
Note ON: Time 378720, Note Name: C5, Velocity: 51
Note ON: Time 378720, Note Name: F5, Velocity: 60
Note OFF: Time 379200, Note Name: F5
Note OFF: Time 379200, Note Name: C5
Note OFF: Time 379200, Note Name: G#4
Note ON: Time 379680, Note Name: G4, Velocity: 47
Note ON: Time 379680, Note Name: A#4, Velocity: 47
Note ON: Time 379680, Note Name: D#5, Velocity: 56
Note OFF: Time 380160, Note Name: D#5
Note OFF: Time 380160, Note Name: A#4
Note OFF: Time 380160, Note Name: G4
Note ON: Time 380160, Note Name: F4, Velocity: 51
Note ON: Time 380160, Note Name: G#4, Velocity: 51
Note ON: Time 380160, Note Name: D5, Velocity: 60
Note OFF: Time 380640, Note Name: D5
Note OFF: Time 380640, Note Name: G#4
Note OFF: Time 380640, Note Name: F4
Note ON: Time 381120, Note Name: D#4, Velocity: 48
Note ON: Time 381120, Note Name: G4, Velocity: 48
Note ON: Time 381120, Note Name: C5, Velocity: 57
Note OFF: Time 381600, Note Name: C5
Note OFF: Time 381600, Note Name: G4
Note OFF: Time 381600, Note Name: D#4
Note ON: Time 381600, Note Name: D4, Velocity: 51
Note ON: Time 381600, Note Name: F4, Velocity: 51
Note ON: Time 381600, Note Name: B4, Velocity: 60
Note OFF: Time 382080, Note Name: B4
Note OFF: Time 382080, Note Name: F4
Note OFF: Time 382080, Note Name: D4
Note ON: Time 382560, Note Name: C4, Velocity: 45
Note ON: Time 382560, Note Name: D#4, Velocity: 45
Note ON: Time 382560, Note Name: G#4, Velocity: 54
Note OFF: Time 383040, Note Name: G#4
Note OFF: Time 383040, Note Name: D#4
Note OFF: Time 383040, Note Name: C4
Note ON: Time 383040, Note Name: B3, Velocity: 51
Note ON: Time 383040, Note Name: D4, Velocity: 51
Note ON: Time 383040, Note Name: G4, Velocity: 60
Note OFF: Time 383520, Note Name: G4
Note OFF: Time 383520, Note Name: D4
Note OFF: Time 383520, Note Name: B3
Note ON: Time 384000, Note Name: B4, Velocity: 43
Note ON: Time 384000, Note Name: D5, Velocity: 43
Note ON: Time 384000, Note Name: G5, Velocity: 51
Note OFF: Time 384480, Note Name: G5
Note OFF: Time 384480, Note Name: D5
Note OFF: Time 384480, Note Name: B4
Note ON: Time 384480, Note Name: G#4, Velocity: 45
Note ON: Time 384480, Note Name: C5, Velocity: 45
Note ON: Time 384480, Note Name: F5, Velocity: 53
Note OFF: Time 384960, Note Name: F5
Note OFF: Time 384960, Note Name: C5
Note OFF: Time 384960, Note Name: G#4
Note ON: Time 385440, Note Name: G4, Velocity: 40
Note ON: Time 385440, Note Name: A#4, Velocity: 40
Note ON: Time 385440, Note Name: D#5, Velocity: 48
Note OFF: Time 385920, Note Name: D#5
Note OFF: Time 385920, Note Name: A#4
Note OFF: Time 385920, Note Name: G4
Note ON: Time 385920, Note Name: F4, Velocity: 43
Note ON: Time 385920, Note Name: G#4, Velocity: 43
Note ON: Time 385920, Note Name: D5, Velocity: 51
Note OFF: Time 386400, Note Name: D5
Note OFF: Time 386400, Note Name: G#4
Note OFF: Time 386400, Note Name: F4
Note ON: Time 386880, Note Name: D#4, Velocity: 39
Note ON: Time 386880, Note Name: G4, Velocity: 39
Note ON: Time 386880, Note Name: C5, Velocity: 47
Note OFF: Time 387360, Note Name: C5
Note OFF: Time 387360, Note Name: G4
Note OFF: Time 387360, Note Name: D#4
Note ON: Time 387360, Note Name: D4, Velocity: 41
Note ON: Time 387360, Note Name: F4, Velocity: 41
Note ON: Time 387360, Note Name: B4, Velocity: 49
Note OFF: Time 387840, Note Name: B4
Note OFF: Time 387840, Note Name: F4
Note OFF: Time 387840, Note Name: D4
Note ON: Time 388320, Note Name: C4, Velocity: 35
Note ON: Time 388320, Note Name: D#4, Velocity: 35
Note ON: Time 388320, Note Name: G#4, Velocity: 42
Note OFF: Time 388800, Note Name: G#4
Note OFF: Time 388800, Note Name: D#4
Note OFF: Time 388800, Note Name: C4
Note ON: Time 388800, Note Name: B3, Velocity: 39
Note ON: Time 388800, Note Name: D4, Velocity: 39
Note ON: Time 388800, Note Name: G4, Velocity: 46
Note OFF: Time 389280, Note Name: G4
Note OFF: Time 389280, Note Name: D4
Note OFF: Time 389280, Note Name: B3
Note ON: Time 389760, Note Name: C4, Velocity: 34
Note ON: Time 389760, Note Name: G#3, Velocity: 34
Note ON: Time 389760, Note Name: F4, Velocity: 41
Note OFF: Time 390240, Note Name: F4
Note OFF: Time 390240, Note Name: G#3
Note OFF: Time 390240, Note Name: C4
Note ON: Time 390240, Note Name: G3, Velocity: 36
Note ON: Time 390240, Note Name: C4, Velocity: 36
Note ON: Time 390240, Note Name: D#4, Velocity: 43
Note OFF: Time 390720, Note Name: D#4
Note OFF: Time 390720, Note Name: C4
Note OFF: Time 390720, Note Name: G3
Note ON: Time 391200, Note Name: F3, Velocity: 32
Note ON: Time 391200, Note Name: B3, Velocity: 32
Note ON: Time 391200, Note Name: D4, Velocity: 38
Note OFF: Time 391680, Note Name: D4
Note OFF: Time 391680, Note Name: B3
Note OFF: Time 391680, Note Name: F3
Note ON: Time 391680, Note Name: D#3, Velocity: 69
Note ON: Time 391680, Note Name: G3, Velocity: 69
Note ON: Time 391680, Note Name: C4, Velocity: 82
Note OFF: Time 392400, Note Name: C4
Note OFF: Time 392400, Note Name: G3
Note OFF: Time 392400, Note Name: D#3
Note ON: Time 392520, Note Name: G4, Velocity: 70
Note OFF: Time 392640, Note Name: G4
Note ON: Time 392640, Note Name: D#5, Velocity: 78
Note OFF: Time 393000, Note Name: D#5
Note ON: Time 393000, Note Name: C5, Velocity: 70
Note OFF: Time 393120, Note Name: C5
Note ON: Time 393120, Note Name: G5, Velocity: 79
Note OFF: Time 393480, Note Name: G5
Note ON: Time 393480, Note Name: D#5, Velocity: 70
Note OFF: Time 393600, Note Name: D#5
Note ON: Time 393600, Note Name: C6, Velocity: 79
Note OFF: Time 393960, Note Name: C6
Note ON: Time 393960, Note Name: G5, Velocity: 70
Note OFF: Time 394080, Note Name: G5
Note ON: Time 394080, Note Name: D#6, Velocity: 84
Note OFF: Time 394200, Note Name: D#6
Note ON: Time 394560, Note Name: D#6, Velocity: 84
Note OFF: Time 394680, Note Name: D#6
Note ON: Time 395520, Note Name: G4, Velocity: 39
Note ON: Time 395520, Note Name: C5, Velocity: 46
Note OFF: Time 395760, Note Name: C5
Note OFF: Time 395760, Note Name: G4
Note ON: Time 396000, Note Name: G4, Velocity: 42
Note ON: Time 396000, Note Name: C5, Velocity: 50
Note OFF: Time 396960, Note Name: C5
Note OFF: Time 396960, Note Name: G4
Note ON: Time 396960, Note Name: G4, Velocity: 39
Note ON: Time 396970, Note Name: B4, Velocity: 46
Note OFF: Time 397430, Note Name: G4
Note OFF: Time 397440, Note Name: B4
Note ON: Time 397440, Note Name: G#4, Velocity: 69
Note ON: Time 397440, Note Name: F4, Velocity: 69
Note ON: Time 397440, Note Name: B4, Velocity: 82
Note OFF: Time 398160, Note Name: B4
Note OFF: Time 398160, Note Name: F4
Note OFF: Time 398160, Note Name: G#4
Note ON: Time 398280, Note Name: B4, Velocity: 70
Note OFF: Time 398400, Note Name: B4
Note ON: Time 398400, Note Name: F5, Velocity: 78
Note OFF: Time 398760, Note Name: F5
Note ON: Time 398760, Note Name: D5, Velocity: 70
Note OFF: Time 398880, Note Name: D5
Note ON: Time 398880, Note Name: B5, Velocity: 79
Note OFF: Time 399240, Note Name: B5
Note ON: Time 399240, Note Name: F5, Velocity: 70
Note OFF: Time 399360, Note Name: F5
Note ON: Time 399360, Note Name: D6, Velocity: 79
Note OFF: Time 399720, Note Name: D6
Note ON: Time 399720, Note Name: B5, Velocity: 70
Note OFF: Time 399840, Note Name: B5
Note ON: Time 399840, Note Name: F6, Velocity: 84
Note OFF: Time 399960, Note Name: F6
Note ON: Time 400320, Note Name: F6, Velocity: 84
Note OFF: Time 400440, Note Name: F6
Note ON: Time 401280, Note Name: B4, Velocity: 39
Note ON: Time 401280, Note Name: D5, Velocity: 46
Note OFF: Time 401520, Note Name: D5
Note OFF: Time 401520, Note Name: B4
Note ON: Time 401760, Note Name: B4, Velocity: 42
Note ON: Time 401760, Note Name: D5, Velocity: 50
Note OFF: Time 402720, Note Name: D5
Note OFF: Time 402720, Note Name: B4
Note ON: Time 402720, Note Name: C5, Velocity: 46
Note OFF: Time 403080, Note Name: C5
Note ON: Time 403080, Note Name: C5, Velocity: 45
Note OFF: Time 403140, Note Name: C5
Note ON: Time 403140, Note Name: D#5, Velocity: 48
Note OFF: Time 403200, Note Name: D#5
Note ON: Time 403200, Note Name: G5, Velocity: 53
Note OFF: Time 403920, Note Name: G5
Note ON: Time 403920, Note Name: F5, Velocity: 41
Note OFF: Time 404160, Note Name: F5
Note ON: Time 404160, Note Name: D#5, Velocity: 51
Note OFF: Time 404640, Note Name: D#5
Note ON: Time 404640, Note Name: D5, Velocity: 47
Note OFF: Time 405600, Note Name: D5
Note ON: Time 405600, Note Name: C5, Velocity: 39
Note OFF: Time 405960, Note Name: C5
Note ON: Time 405960, Note Name: G4, Velocity: 27
Note OFF: Time 406000, Note Name: G4
Note ON: Time 406000, Note Name: C5, Velocity: 45
Note OFF: Time 406040, Note Name: C5
Note ON: Time 406040, Note Name: D#5, Velocity: 48
Note OFF: Time 406080, Note Name: D#5
Note ON: Time 406080, Note Name: G5, Velocity: 53
Note OFF: Time 406800, Note Name: G5
Note ON: Time 406800, Note Name: F5, Velocity: 41
Note OFF: Time 407040, Note Name: F5
Note ON: Time 407040, Note Name: C5, Velocity: 43
Note ON: Time 407040, Note Name: D#5, Velocity: 51
Note OFF: Time 407520, Note Name: D#5
Note OFF: Time 407520, Note Name: C5
Note ON: Time 407520, Note Name: B4, Velocity: 39
Note ON: Time 407520, Note Name: D5, Velocity: 47
Note OFF: Time 408480, Note Name: D5
Note OFF: Time 408480, Note Name: B4
Note ON: Time 408480, Note Name: C5, Velocity: 39
Note OFF: Time 408840, Note Name: C5
Note ON: Time 408840, Note Name: G4, Velocity: 60
Note OFF: Time 408880, Note Name: G4
Note ON: Time 408880, Note Name: C5, Velocity: 63
Note OFF: Time 408920, Note Name: C5
Note ON: Time 408920, Note Name: D#5, Velocity: 69
Note OFF: Time 408960, Note Name: D#5
Note ON: Time 408960, Note Name: G4, Velocity: 69
Note ON: Time 408960, Note Name: G5, Velocity: 81
Note OFF: Time 409680, Note Name: G5
Note OFF: Time 409680, Note Name: G4
Note ON: Time 409680, Note Name: F5, Velocity: 61
Note ON: Time 409680, Note Name: F4, Velocity: 51
Note OFF: Time 409920, Note Name: F4
Note OFF: Time 409920, Note Name: F5
Note ON: Time 409920, Note Name: D#5, Velocity: 73
Note ON: Time 409920, Note Name: D#4, Velocity: 62
Note OFF: Time 410880, Note Name: D#4
Note OFF: Time 410880, Note Name: D#5
Note ON: Time 410880, Note Name: D5, Velocity: 72
Note ON: Time 410880, Note Name: D4, Velocity: 61
Note OFF: Time 411000, Note Name: D4
Note OFF: Time 411000, Note Name: D5
Note ON: Time 411360, Note Name: C5, Velocity: 75
Note ON: Time 411360, Note Name: C4, Velocity: 63
Note OFF: Time 412320, Note Name: C4
Note OFF: Time 412320, Note Name: C5
Note ON: Time 412320, Note Name: B3, Velocity: 63
Note ON: Time 412320, Note Name: B4, Velocity: 75
Note OFF: Time 412440, Note Name: B4
Note OFF: Time 412440, Note Name: B3
Note ON: Time 412800, Note Name: G#3, Velocity: 62
Note ON: Time 412800, Note Name: G#4, Velocity: 74
Note OFF: Time 413760, Note Name: G#4
Note OFF: Time 413760, Note Name: G#3
Note ON: Time 413760, Note Name: G3, Velocity: 57
Note ON: Time 413760, Note Name: G4, Velocity: 67
Note OFF: Time 414000, Note Name: G4
Note OFF: Time 414000, Note Name: G3
Note ON: Time 415200, Note Name: B3, Velocity: 42
Note OFF: Time 415360, Note Name: B3
Note ON: Time 415360, Note Name: D4, Velocity: 35
Note OFF: Time 415520, Note Name: D4
Note ON: Time 415520, Note Name: F4, Velocity: 35
Note OFF: Time 415680, Note Name: F4
Note ON: Time 415680, Note Name: G#4, Velocity: 43
Note OFF: Time 415840, Note Name: G#4
Note ON: Time 415840, Note Name: G4, Velocity: 36
Note OFF: Time 416000, Note Name: G4
Note ON: Time 416000, Note Name: F4, Velocity: 36
Note OFF: Time 416160, Note Name: F4
Note ON: Time 416160, Note Name: D#4, Velocity: 43
Note OFF: Time 416280, Note Name: D#4
Note ON: Time 418080, Note Name: F3, Velocity: 42
Note OFF: Time 418240, Note Name: F3
Note ON: Time 418240, Note Name: G#3, Velocity: 35
Note OFF: Time 418400, Note Name: G#3
Note ON: Time 418400, Note Name: D4, Velocity: 35
Note OFF: Time 418560, Note Name: D4
Note ON: Time 418560, Note Name: F4, Velocity: 43
Note OFF: Time 418720, Note Name: F4
Note ON: Time 418720, Note Name: D#4, Velocity: 36
Note OFF: Time 418880, Note Name: D#4
Note ON: Time 418880, Note Name: D4, Velocity: 36
Note OFF: Time 419040, Note Name: D4
Note ON: Time 419040, Note Name: C4, Velocity: 43
Note OFF: Time 419160, Note Name: C4
Note ON: Time 420960, Note Name: G3, Velocity: 66
Note OFF: Time 421120, Note Name: G3
Note ON: Time 421120, Note Name: B3, Velocity: 69
Note OFF: Time 421280, Note Name: B3
Note ON: Time 421280, Note Name: D4, Velocity: 72
Note OFF: Time 421440, Note Name: D4
Note ON: Time 421440, Note Name: F4, Velocity: 75
Note OFF: Time 421600, Note Name: F4
Note ON: Time 421600, Note Name: D4, Velocity: 67
Note OFF: Time 421760, Note Name: D4
Note ON: Time 421760, Note Name: B3, Velocity: 71
Note OFF: Time 421920, Note Name: B3
Note ON: Time 421920, Note Name: C4, Velocity: 94
Note OFF: Time 422160, Note Name: C4
Note ON: Time 426720, Note Name: F4, Velocity: 50
Note ON: Time 427200, Note Name: C#5, Velocity: 45
Note OFF: Time 427680, Note Name: C#5
Note OFF: Time 427680, Note Name: F4
Note ON: Time 427680, Note Name: F#4, Velocity: 42
Note ON: Time 427680, Note Name: C#5, Velocity: 50
Note OFF: Time 428640, Note Name: C#5
Note ON: Time 428640, Note Name: C#5, Velocity: 45
Note OFF: Time 429120, Note Name: F#4
Note ON: Time 429120, Note Name: F4, Velocity: 42
Note OFF: Time 429600, Note Name: C#5
Note ON: Time 429600, Note Name: D#5, Velocity: 45
Note OFF: Time 430080, Note Name: D#5
Note ON: Time 430080, Note Name: B4, Velocity: 44
Note OFF: Time 430560, Note Name: F4
Note ON: Time 430560, Note Name: F#4, Velocity: 42
Note OFF: Time 431040, Note Name: B4
Note ON: Time 431040, Note Name: A4, Velocity: 45
Note OFF: Time 431520, Note Name: A4
Note ON: Time 431520, Note Name: A#4, Velocity: 45
Note OFF: Time 432000, Note Name: A#4
Note OFF: Time 432000, Note Name: F#4
Note ON: Time 432480, Note Name: F5, Velocity: 50
Note ON: Time 432960, Note Name: C#6, Velocity: 45
Note OFF: Time 433440, Note Name: C#6
Note OFF: Time 433440, Note Name: F5
Note ON: Time 433440, Note Name: F#5, Velocity: 42
Note ON: Time 433440, Note Name: C#6, Velocity: 50
Note OFF: Time 434400, Note Name: C#6
Note ON: Time 434400, Note Name: C#6, Velocity: 45
Note OFF: Time 434880, Note Name: F#5
Note ON: Time 434880, Note Name: F5, Velocity: 42
Note OFF: Time 435360, Note Name: C#6
Note ON: Time 435360, Note Name: D#6, Velocity: 45
Note OFF: Time 435840, Note Name: D#6
Note ON: Time 435840, Note Name: B5, Velocity: 44
Note OFF: Time 436320, Note Name: F5
Note ON: Time 436320, Note Name: F#5, Velocity: 42
Note OFF: Time 436800, Note Name: B5
Note ON: Time 436800, Note Name: A5, Velocity: 45
Note OFF: Time 437280, Note Name: A5
Note ON: Time 437280, Note Name: A#5, Velocity: 45
Note OFF: Time 437760, Note Name: A#5
Note OFF: Time 437760, Note Name: F#5
Note ON: Time 438240, Note Name: D5, Velocity: 50
Note ON: Time 438720, Note Name: A#5, Velocity: 45
Note OFF: Time 439200, Note Name: A#5
Note OFF: Time 439200, Note Name: D5
Note ON: Time 439200, Note Name: D#5, Velocity: 42
Note ON: Time 439200, Note Name: A#5, Velocity: 50
Note OFF: Time 440160, Note Name: A#5
Note ON: Time 440160, Note Name: A#5, Velocity: 45
Note OFF: Time 440640, Note Name: D#5
Note ON: Time 440640, Note Name: D5, Velocity: 42
Note OFF: Time 441120, Note Name: A#5
Note ON: Time 441120, Note Name: B5, Velocity: 45
Note OFF: Time 441600, Note Name: B5
Note ON: Time 441600, Note Name: G#5, Velocity: 44
Note OFF: Time 442080, Note Name: D5
Note ON: Time 442080, Note Name: A#4, Velocity: 49
Note OFF: Time 442560, Note Name: G#5
Note ON: Time 442560, Note Name: F5, Velocity: 52
Note OFF: Time 443040, Note Name: F5
Note ON: Time 443040, Note Name: F#5, Velocity: 52
Note OFF: Time 443520, Note Name: A#4
Note ON: Time 443520, Note Name: B4, Velocity: 50
Note OFF: Time 444000, Note Name: F#5
Note ON: Time 444000, Note Name: G#5, Velocity: 55
Note OFF: Time 444480, Note Name: G#5
Note ON: Time 444480, Note Name: F5, Velocity: 50
Note OFF: Time 444960, Note Name: B4
Note ON: Time 444960, Note Name: C5, Velocity: 42
Note OFF: Time 445440, Note Name: F5
Note ON: Time 445440, Note Name: F5, Velocity: 45
Note OFF: Time 445920, Note Name: F5
Note ON: Time 445920, Note Name: E5, Velocity: 45
Note OFF: Time 446400, Note Name: C5
Note ON: Time 446400, Note Name: G#4, Velocity: 42
Note OFF: Time 446880, Note Name: E5
Note ON: Time 446880, Note Name: F5, Velocity: 45
Note OFF: Time 447360, Note Name: F5
Note OFF: Time 447360, Note Name: G#4
Note ON: Time 447360, Note Name: F4, Velocity: 28
Note ON: Time 447360, Note Name: G#4, Velocity: 33
Note OFF: Time 447840, Note Name: G#4
Note OFF: Time 447840, Note Name: F4
Note ON: Time 447840, Note Name: E4, Velocity: 32
Note ON: Time 447840, Note Name: G4, Velocity: 38
Note OFF: Time 448320, Note Name: G4
Note OFF: Time 448320, Note Name: E4
Note ON: Time 449760, Note Name: C#5, Velocity: 38
Note OFF: Time 450000, Note Name: C#5
Note ON: Time 450240, Note Name: C#5, Velocity: 38
Note OFF: Time 450480, Note Name: C#5
Note ON: Time 450720, Note Name: C#5, Velocity: 46
Note OFF: Time 451200, Note Name: C#5
Note ON: Time 451200, Note Name: C5, Velocity: 38
Note OFF: Time 451680, Note Name: C5
Note ON: Time 452640, Note Name: A#4, Velocity: 38
Note OFF: Time 452880, Note Name: A#4
Note ON: Time 453120, Note Name: A#4, Velocity: 38
Note OFF: Time 453360, Note Name: A#4
Note ON: Time 453600, Note Name: A#4, Velocity: 43
Note OFF: Time 454080, Note Name: A#4
Note ON: Time 454080, Note Name: A4, Velocity: 38
Note OFF: Time 454560, Note Name: A4
Note ON: Time 455280, Note Name: D5, Velocity: 37
Note OFF: Time 455520, Note Name: D5
Note ON: Time 455520, Note Name: C#5, Velocity: 38
Note OFF: Time 455760, Note Name: C#5
Note ON: Time 455760, Note Name: D5, Velocity: 34
Note OFF: Time 456000, Note Name: D5
Note ON: Time 456000, Note Name: E5, Velocity: 43
Note OFF: Time 456240, Note Name: E5
Note ON: Time 456240, Note Name: D5, Velocity: 38
Note OFF: Time 456480, Note Name: D5
Note ON: Time 456720, Note Name: C5, Velocity: 36
Note OFF: Time 456960, Note Name: C5
Note ON: Time 456960, Note Name: B4, Velocity: 38
Note OFF: Time 457200, Note Name: B4
Note ON: Time 457200, Note Name: C5, Velocity: 36
Note OFF: Time 457440, Note Name: C5
Note ON: Time 457440, Note Name: D5, Velocity: 44
Note OFF: Time 457680, Note Name: D5
Note ON: Time 457680, Note Name: C5, Velocity: 38
Note OFF: Time 457920, Note Name: C5
Note ON: Time 458160, Note Name: A#4, Velocity: 36
Note OFF: Time 458400, Note Name: A#4
Note ON: Time 458400, Note Name: A4, Velocity: 38
Note OFF: Time 458640, Note Name: A4
Note ON: Time 458640, Note Name: A#4, Velocity: 35
Note OFF: Time 458880, Note Name: A#4
Note ON: Time 458880, Note Name: C5, Velocity: 44
Note OFF: Time 459120, Note Name: C5
Note ON: Time 459120, Note Name: A#4, Velocity: 37
Note OFF: Time 459360, Note Name: A#4
Note ON: Time 459360, Note Name: A4, Velocity: 46
Note OFF: Time 461520, Note Name: A4
Note ON: Time 461520, Note Name: C5, Velocity: 56
Note OFF: Time 461760, Note Name: C5
Note ON: Time 461760, Note Name: F5, Velocity: 62
Note OFF: Time 462240, Note Name: F5
Note ON: Time 462240, Note Name: F5, Velocity: 63
Note OFF: Time 463680, Note Name: F5
Note ON: Time 463680, Note Name: E5, Velocity: 57
Note OFF: Time 464160, Note Name: E5
Note ON: Time 465120, Note Name: C5, Velocity: 51
Note OFF: Time 466560, Note Name: C5
Note ON: Time 466560, Note Name: C5, Velocity: 61
Note OFF: Time 466800, Note Name: C5
Note ON: Time 466800, Note Name: D5, Velocity: 57
Note OFF: Time 466880, Note Name: D5
Note ON: Time 466880, Note Name: C5, Velocity: 52
Note OFF: Time 466960, Note Name: C5
Note ON: Time 466960, Note Name: B4, Velocity: 52
Note OFF: Time 467040, Note Name: B4
Note ON: Time 467040, Note Name: C5, Velocity: 61
Note OFF: Time 467280, Note Name: C5
Note ON: Time 467280, Note Name: G5, Velocity: 71
Note OFF: Time 467520, Note Name: G5
Note ON: Time 467520, Note Name: A#5, Velocity: 76
Note OFF: Time 468000, Note Name: A#5
Note ON: Time 468000, Note Name: A#5, Velocity: 78
Note OFF: Time 469440, Note Name: A#5
Note ON: Time 469440, Note Name: A5, Velocity: 69
Note OFF: Time 469920, Note Name: A5
Note ON: Time 470880, Note Name: A4, Velocity: 56
Note OFF: Time 471000, Note Name: A4
Note ON: Time 471120, Note Name: A#4, Velocity: 58
Note OFF: Time 471240, Note Name: A#4
Note ON: Time 471360, Note Name: C5, Velocity: 60
Note OFF: Time 471480, Note Name: C5
Note ON: Time 471600, Note Name: D5, Velocity: 62
Note OFF: Time 471720, Note Name: D5
Note ON: Time 471840, Note Name: E5, Velocity: 64
Note OFF: Time 471960, Note Name: E5
Note ON: Time 472080, Note Name: F5, Velocity: 65
Note OFF: Time 472200, Note Name: F5
Note ON: Time 472320, Note Name: G5, Velocity: 67
Note OFF: Time 472440, Note Name: G5
Note ON: Time 472560, Note Name: A5, Velocity: 71
Note OFF: Time 472680, Note Name: A5
Note ON: Time 472800, Note Name: A#5, Velocity: 74
Note OFF: Time 472920, Note Name: A#5
Note ON: Time 473040, Note Name: C6, Velocity: 77
Note OFF: Time 473160, Note Name: C6
Note ON: Time 473280, Note Name: D6, Velocity: 80
Note OFF: Time 473400, Note Name: D6
Note ON: Time 473520, Note Name: E6, Velocity: 83
Note OFF: Time 473640, Note Name: E6
Note ON: Time 473760, Note Name: F6, Velocity: 90
Note OFF: Time 475200, Note Name: F6
Note ON: Time 475200, Note Name: E6, Velocity: 71
Note OFF: Time 475680, Note Name: E6
Note ON: Time 476640, Note Name: C4, Velocity: 56
Note OFF: Time 476760, Note Name: C4
Note ON: Time 476880, Note Name: D4, Velocity: 58
Note OFF: Time 477000, Note Name: D4
Note ON: Time 477120, Note Name: E4, Velocity: 60
Note OFF: Time 477240, Note Name: E4
Note ON: Time 477360, Note Name: F4, Velocity: 62
Note OFF: Time 477480, Note Name: F4
Note ON: Time 477600, Note Name: G4, Velocity: 64
Note OFF: Time 477720, Note Name: G4
Note ON: Time 477840, Note Name: A4, Velocity: 65
Note OFF: Time 477960, Note Name: A4
Note ON: Time 478080, Note Name: A#4, Velocity: 71
Note OFF: Time 478200, Note Name: A#4
Note ON: Time 478320, Note Name: C5, Velocity: 71
Note OFF: Time 478440, Note Name: C5
Note ON: Time 478560, Note Name: D5, Velocity: 73
Note OFF: Time 478680, Note Name: D5
Note ON: Time 478800, Note Name: E5, Velocity: 75
Note OFF: Time 478920, Note Name: E5
Note ON: Time 479040, Note Name: F5, Velocity: 82
Note OFF: Time 479160, Note Name: F5
Note ON: Time 479280, Note Name: G5, Velocity: 84
Note OFF: Time 479400, Note Name: G5
Note ON: Time 479520, Note Name: G#5, Velocity: 92
Note OFF: Time 481440, Note Name: G#5
Note ON: Time 481440, Note Name: G5, Velocity: 77
Note OFF: Time 481920, Note Name: G5
Note ON: Time 481920, Note Name: F5, Velocity: 77
Note OFF: Time 482400, Note Name: F5
Note ON: Time 482400, Note Name: D#5, Velocity: 84
Note OFF: Time 483480, Note Name: D#5
Note ON: Time 483480, Note Name: F5, Velocity: 57
Note OFF: Time 483560, Note Name: F5
Note ON: Time 483560, Note Name: D#5, Velocity: 61
Note OFF: Time 483640, Note Name: D#5
Note ON: Time 483640, Note Name: D5, Velocity: 65
Note OFF: Time 483720, Note Name: D5
Note ON: Time 483720, Note Name: D#5, Velocity: 69
Note OFF: Time 483840, Note Name: D#5
Note ON: Time 483840, Note Name: G5, Velocity: 84
Note OFF: Time 484320, Note Name: G5
Note ON: Time 484320, Note Name: F5, Velocity: 78
Note OFF: Time 484800, Note Name: F5
Note ON: Time 484800, Note Name: D5, Velocity: 78
Note OFF: Time 485280, Note Name: D5
Note ON: Time 485280, Note Name: D#4, Velocity: 66
Note ON: Time 485280, Note Name: D#5, Velocity: 89
Note OFF: Time 487440, Note Name: D#5
Note OFF: Time 487440, Note Name: D#4
Note ON: Time 487440, Note Name: G4, Velocity: 63
Note ON: Time 487440, Note Name: G5, Velocity: 84
Note OFF: Time 487680, Note Name: G5
Note OFF: Time 487680, Note Name: G4
Note ON: Time 487680, Note Name: C5, Velocity: 72
Note ON: Time 487680, Note Name: C6, Velocity: 97
Note OFF: Time 488160, Note Name: C6
Note OFF: Time 488160, Note Name: C5
Note ON: Time 488160, Note Name: C5, Velocity: 73
Note ON: Time 488160, Note Name: C6, Velocity: 98
Note OFF: Time 489600, Note Name: C6
Note OFF: Time 489600, Note Name: C5
Note ON: Time 489600, Note Name: B4, Velocity: 63
Note ON: Time 489600, Note Name: B5, Velocity: 85
Note OFF: Time 490080, Note Name: B5
Note OFF: Time 490080, Note Name: B4
Note ON: Time 491040, Note Name: G4, Velocity: 66
Note ON: Time 491040, Note Name: G5, Velocity: 89
Note OFF: Time 493200, Note Name: G5
Note OFF: Time 493200, Note Name: G4
Note ON: Time 493200, Note Name: D5, Velocity: 63
Note ON: Time 493200, Note Name: D6, Velocity: 84
Note OFF: Time 493440, Note Name: D6
Note OFF: Time 493440, Note Name: D5
Note ON: Time 493440, Note Name: F5, Velocity: 72
Note ON: Time 493440, Note Name: F6, Velocity: 97
Note OFF: Time 493910, Note Name: F6
Note OFF: Time 493910, Note Name: F5
Note ON: Time 493920, Note Name: F5, Velocity: 73
Note ON: Time 493920, Note Name: F6, Velocity: 98
Note OFF: Time 495360, Note Name: F6
Note OFF: Time 495360, Note Name: F5
Note ON: Time 495360, Note Name: D#5, Velocity: 66
Note ON: Time 495360, Note Name: D#6, Velocity: 88
Note OFF: Time 495840, Note Name: D#6
Note OFF: Time 495840, Note Name: D#5
Note ON: Time 496800, Note Name: D#4, Velocity: 89
Note OFF: Time 497040, Note Name: D#4
Note ON: Time 497040, Note Name: G4, Velocity: 75
Note OFF: Time 497280, Note Name: G4
Note ON: Time 497280, Note Name: C5, Velocity: 79
Note OFF: Time 497520, Note Name: C5
Note ON: Time 497520, Note Name: G4, Velocity: 79
Note OFF: Time 497760, Note Name: G4
Note ON: Time 497760, Note Name: C5, Velocity: 83
Note OFF: Time 498000, Note Name: C5
Note ON: Time 498000, Note Name: D#5, Velocity: 89
Note OFF: Time 498240, Note Name: D#5
Note ON: Time 498240, Note Name: C5, Velocity: 89
Note OFF: Time 498480, Note Name: C5
Note ON: Time 498480, Note Name: D#5, Velocity: 77
Note OFF: Time 498720, Note Name: D#5
Note ON: Time 498720, Note Name: G5, Velocity: 83
Note OFF: Time 498960, Note Name: G5
Note ON: Time 498960, Note Name: D#5, Velocity: 89
Note OFF: Time 499200, Note Name: D#5
Note ON: Time 499200, Note Name: G5, Velocity: 83
Note OFF: Time 499440, Note Name: G5
Note ON: Time 499440, Note Name: C6, Velocity: 89
Note OFF: Time 499670, Note Name: C6
Note ON: Time 499680, Note Name: C6, Velocity: 98
Note OFF: Time 501120, Note Name: C6
Note ON: Time 501120, Note Name: B5, Velocity: 92
Note OFF: Time 501600, Note Name: B5
Note ON: Time 502560, Note Name: G3, Velocity: 80
Note OFF: Time 502800, Note Name: G3
Note ON: Time 502800, Note Name: B3, Velocity: 67
Note OFF: Time 503040, Note Name: B3
Note ON: Time 503040, Note Name: D4, Velocity: 71
Note OFF: Time 503280, Note Name: D4
Note ON: Time 503280, Note Name: B3, Velocity: 71
Note OFF: Time 503520, Note Name: B3
Note ON: Time 503520, Note Name: D4, Velocity: 74
Note OFF: Time 503760, Note Name: D4
Note ON: Time 503760, Note Name: G4, Velocity: 80
Note OFF: Time 504000, Note Name: G4
Note ON: Time 504000, Note Name: D4, Velocity: 80
Note OFF: Time 504240, Note Name: D4
Note ON: Time 504240, Note Name: G4, Velocity: 69
Note OFF: Time 504480, Note Name: G4
Note ON: Time 504480, Note Name: B4, Velocity: 74
Note OFF: Time 504720, Note Name: B4
Note ON: Time 504720, Note Name: G4, Velocity: 80
Note OFF: Time 504960, Note Name: G4
Note ON: Time 504960, Note Name: B4, Velocity: 74
Note OFF: Time 505200, Note Name: B4
Note ON: Time 505200, Note Name: D5, Velocity: 80
Note OFF: Time 505440, Note Name: D5
Note ON: Time 505440, Note Name: D#5, Velocity: 86
Note OFF: Time 505920, Note Name: D#5
Note ON: Time 506400, Note Name: C6, Velocity: 100
Note OFF: Time 507840, Note Name: C6
Note ON: Time 507840, Note Name: E3, Velocity: 77
Note OFF: Time 508320, Note Name: E3
Note ON: Time 508320, Note Name: F3, Velocity: 82
Note OFF: Time 509760, Note Name: F3
Note ON: Time 509760, Note Name: F#3, Velocity: 84
Note OFF: Time 511200, Note Name: F#3
Note ON: Time 511200, Note Name: G3, Velocity: 84
Note OFF: Time 512640, Note Name: G3
Note ON: Time 512640, Note Name: F3, Velocity: 84
Note OFF: Time 512760, Note Name: F3
Note ON: Time 512760, Note Name: G3, Velocity: 57
Note OFF: Time 512880, Note Name: G3
Note ON: Time 512880, Note Name: F3, Velocity: 61
Note OFF: Time 512960, Note Name: F3
Note ON: Time 512960, Note Name: G3, Velocity: 57
Note OFF: Time 513040, Note Name: G3
Note ON: Time 513040, Note Name: F3, Velocity: 64
Note OFF: Time 513120, Note Name: F3
Note ON: Time 513120, Note Name: G3, Velocity: 56
Note OFF: Time 513200, Note Name: G3
Note ON: Time 513200, Note Name: F3, Velocity: 64
Note OFF: Time 513280, Note Name: F3
Note ON: Time 513280, Note Name: G3, Velocity: 56
Note OFF: Time 513360, Note Name: G3
Note ON: Time 513360, Note Name: F3, Velocity: 64
Note OFF: Time 513440, Note Name: F3
Note ON: Time 513440, Note Name: G3, Velocity: 55
Note OFF: Time 513520, Note Name: G3
Note ON: Time 513520, Note Name: F3, Velocity: 64
Note OFF: Time 513600, Note Name: F3
Note ON: Time 513600, Note Name: G3, Velocity: 54
Note OFF: Time 513720, Note Name: G3
Note ON: Time 513720, Note Name: F3, Velocity: 59
Note OFF: Time 513840, Note Name: F3
Note ON: Time 513840, Note Name: E3, Velocity: 55
Note OFF: Time 513960, Note Name: E3
Note ON: Time 513960, Note Name: F3, Velocity: 57
Note OFF: Time 514080, Note Name: F3
Note ON: Time 514080, Note Name: D#3, Velocity: 74
Note OFF: Time 514320, Note Name: D#3
Note ON: Time 514320, Note Name: G3, Velocity: 60
Note OFF: Time 514560, Note Name: G3
Note ON: Time 514560, Note Name: C4, Velocity: 68
Note OFF: Time 514800, Note Name: C4
Note ON: Time 514800, Note Name: G3, Velocity: 61
Note OFF: Time 515040, Note Name: G3
Note ON: Time 515040, Note Name: C4, Velocity: 69
Note OFF: Time 515280, Note Name: C4
Note ON: Time 515280, Note Name: D#4, Velocity: 63
Note OFF: Time 515520, Note Name: D#4
Note ON: Time 515520, Note Name: G4, Velocity: 69
Note OFF: Time 515760, Note Name: G4
Note ON: Time 515760, Note Name: D#4, Velocity: 60
Note OFF: Time 516000, Note Name: D#4
Note ON: Time 516000, Note Name: G4, Velocity: 73
Note OFF: Time 516240, Note Name: G4
Note ON: Time 516240, Note Name: C5, Velocity: 68
Note OFF: Time 516480, Note Name: C5
Note ON: Time 516480, Note Name: D#5, Velocity: 80
Note OFF: Time 516720, Note Name: D#5
Note ON: Time 516720, Note Name: G5, Velocity: 73
Note OFF: Time 516960, Note Name: G5
Note ON: Time 516960, Note Name: C6, Velocity: 89
Note OFF: Time 517200, Note Name: C6
Note ON: Time 517920, Note Name: C4, Velocity: 84
Note OFF: Time 519360, Note Name: C4
Note ON: Time 519360, Note Name: E3, Velocity: 81
Note OFF: Time 519840, Note Name: E3
Note ON: Time 519840, Note Name: F3, Velocity: 84
Note OFF: Time 520800, Note Name: F3
Note ON: Time 520800, Note Name: C4, Velocity: 84
Note OFF: Time 521280, Note Name: C4
Note ON: Time 521280, Note Name: F#3, Velocity: 92
Note OFF: Time 522240, Note Name: F#3
Note ON: Time 522240, Note Name: C4, Velocity: 84
Note OFF: Time 522720, Note Name: C4
Note ON: Time 522720, Note Name: G3, Velocity: 88
Note OFF: Time 522960, Note Name: G3
Note ON: Time 522960, Note Name: C4, Velocity: 62
Note OFF: Time 523200, Note Name: C4
Note ON: Time 523200, Note Name: B3, Velocity: 74
Note OFF: Time 523440, Note Name: B3
Note ON: Time 523440, Note Name: C4, Velocity: 62
Note OFF: Time 523680, Note Name: C4
Note ON: Time 523680, Note Name: G3, Velocity: 72
Note OFF: Time 523920, Note Name: G3
Note ON: Time 523920, Note Name: C4, Velocity: 62
Note OFF: Time 524160, Note Name: C4
Note ON: Time 524160, Note Name: G#3, Velocity: 82
Note OFF: Time 524400, Note Name: G#3
Note ON: Time 524400, Note Name: C4, Velocity: 62
Note OFF: Time 524640, Note Name: C4
Note ON: Time 524640, Note Name: B3, Velocity: 73
Note OFF: Time 524880, Note Name: B3
Note ON: Time 524880, Note Name: C4, Velocity: 64
Note OFF: Time 525120, Note Name: C4
Note ON: Time 525120, Note Name: F#3, Velocity: 73
Note OFF: Time 525360, Note Name: F#3
Note ON: Time 525360, Note Name: C4, Velocity: 62
Note OFF: Time 525600, Note Name: C4
Note ON: Time 525600, Note Name: G3, Velocity: 88
Note OFF: Time 525840, Note Name: G3
Note ON: Time 525840, Note Name: C4, Velocity: 63
Note OFF: Time 526080, Note Name: C4
Note ON: Time 526080, Note Name: B3, Velocity: 73
Note OFF: Time 526320, Note Name: B3
Note ON: Time 526320, Note Name: C4, Velocity: 62
Note OFF: Time 526560, Note Name: C4
Note ON: Time 526560, Note Name: E3, Velocity: 74
Note OFF: Time 526800, Note Name: E3
Note ON: Time 526800, Note Name: C4, Velocity: 65
Note OFF: Time 527040, Note Name: C4
Note ON: Time 527040, Note Name: F3, Velocity: 88
Note OFF: Time 527280, Note Name: F3
Note ON: Time 527280, Note Name: C4, Velocity: 64
Note OFF: Time 527520, Note Name: C4
Note ON: Time 527520, Note Name: G#3, Velocity: 71
Note OFF: Time 527760, Note Name: G#3
Note ON: Time 527760, Note Name: C4, Velocity: 65
Note OFF: Time 528000, Note Name: C4
Note ON: Time 528000, Note Name: F#3, Velocity: 80
Note OFF: Time 528240, Note Name: F#3
Note ON: Time 528240, Note Name: C4, Velocity: 72
Note OFF: Time 528480, Note Name: C4
Note ON: Time 528480, Note Name: G3, Velocity: 93
Note OFF: Time 528960, Note Name: G3
Note ON: Time 529320, Note Name: G4, Velocity: 81
Note OFF: Time 529440, Note Name: G4
Note ON: Time 529440, Note Name: D#5, Velocity: 87
Note OFF: Time 529800, Note Name: D#5
Note ON: Time 529800, Note Name: C5, Velocity: 84
Note OFF: Time 529920, Note Name: C5
Note ON: Time 529920, Note Name: F#5, Velocity: 93
Note OFF: Time 530040, Note Name: F#5
Note ON: Time 530760, Note Name: F#4, Velocity: 81
Note OFF: Time 530880, Note Name: F#4
Note ON: Time 530880, Note Name: D#5, Velocity: 87
Note OFF: Time 531240, Note Name: D#5
Note ON: Time 531240, Note Name: C5, Velocity: 84
Note OFF: Time 531360, Note Name: C5
Note ON: Time 531360, Note Name: G5, Velocity: 93
Note OFF: Time 531480, Note Name: G5
Note ON: Time 532200, Note Name: G4, Velocity: 81
Note OFF: Time 532320, Note Name: G4
Note ON: Time 532320, Note Name: D#5, Velocity: 87
Note OFF: Time 532680, Note Name: D#5
Note ON: Time 532680, Note Name: C5, Velocity: 84
Note OFF: Time 532800, Note Name: C5
Note ON: Time 532800, Note Name: A5, Velocity: 93
Note OFF: Time 532920, Note Name: A5
Note ON: Time 533640, Note Name: A4, Velocity: 81
Note OFF: Time 533760, Note Name: A4
Note ON: Time 533760, Note Name: D#5, Velocity: 87
Note OFF: Time 534120, Note Name: D#5
Note ON: Time 534120, Note Name: C5, Velocity: 84
Note OFF: Time 534240, Note Name: C5
Note ON: Time 534240, Note Name: G5, Velocity: 95
Note OFF: Time 534960, Note Name: G5
Note ON: Time 534960, Note Name: D#5, Velocity: 85
Note OFF: Time 535200, Note Name: D#5
Note ON: Time 535200, Note Name: D#5, Velocity: 93
Note OFF: Time 535440, Note Name: D#5
Note ON: Time 535440, Note Name: C5, Velocity: 79
Note OFF: Time 535620, Note Name: C5
Note ON: Time 535680, Note Name: C5, Velocity: 88
Note OFF: Time 535920, Note Name: C5
Note ON: Time 535920, Note Name: G4, Velocity: 78
Note OFF: Time 536100, Note Name: G4
Note ON: Time 536160, Note Name: G4, Velocity: 85
Note OFF: Time 536400, Note Name: G4
Note ON: Time 536400, Note Name: D#4, Velocity: 77
Note OFF: Time 536580, Note Name: D#4
Note ON: Time 536640, Note Name: D#4, Velocity: 81
Note OFF: Time 536880, Note Name: D#4
Note ON: Time 536880, Note Name: C4, Velocity: 77
Note OFF: Time 537060, Note Name: C4
Note ON: Time 539520, Note Name: G3, Velocity: 66
Note ON: Time 539520, Note Name: B3, Velocity: 78
Note OFF: Time 540000, Note Name: B3
Note OFF: Time 540000, Note Name: G3
Note ON: Time 540000, Note Name: G3, Velocity: 70
Note ON: Time 540000, Note Name: C4, Velocity: 83
Note OFF: Time 540480, Note Name: C4
Note OFF: Time 540480, Note Name: G3
Note ON: Time 541920, Note Name: G4, Velocity: 53
Note ON: Time 541920, Note Name: D4, Velocity: 42
Note ON: Time 541920, Note Name: F4, Velocity: 42
Note ON: Time 541920, Note Name: B3, Velocity: 42
Note OFF: Time 542400, Note Name: B3
Note OFF: Time 542400, Note Name: G4
Note OFF: Time 542400, Note Name: D4
Note OFF: Time 542400, Note Name: F4
Note ON: Time 542400, Note Name: B3, Velocity: 38
Note ON: Time 542400, Note Name: D4, Velocity: 38
Note ON: Time 542400, Note Name: F4, Velocity: 38
Note ON: Time 542400, Note Name: G4, Velocity: 48
Note OFF: Time 542880, Note Name: G4
Note OFF: Time 542880, Note Name: B3
Note OFF: Time 542880, Note Name: D4
Note OFF: Time 542880, Note Name: F4
Note ON: Time 542880, Note Name: C4, Velocity: 42
Note ON: Time 542880, Note Name: D#4, Velocity: 42
Note ON: Time 542880, Note Name: G#4, Velocity: 53
Note OFF: Time 543360, Note Name: G#4
Note ON: Time 543360, Note Name: G4, Velocity: 49
Note OFF: Time 543840, Note Name: G4
Note OFF: Time 543840, Note Name: D#4
Note OFF: Time 543840, Note Name: C4
Note ON: Time 544800, Note Name: D4, Velocity: 42
Note ON: Time 544800, Note Name: F4, Velocity: 42
Note ON: Time 544800, Note Name: B4, Velocity: 53
Note OFF: Time 545280, Note Name: B4
Note OFF: Time 545280, Note Name: F4
Note OFF: Time 545280, Note Name: D4
Note ON: Time 545280, Note Name: D4, Velocity: 38
Note ON: Time 545280, Note Name: F4, Velocity: 38
Note ON: Time 545280, Note Name: B4, Velocity: 48
Note OFF: Time 545760, Note Name: B4
Note OFF: Time 545760, Note Name: F4
Note OFF: Time 545760, Note Name: D4
Note ON: Time 545760, Note Name: D#4, Velocity: 42
Note ON: Time 545760, Note Name: G4, Velocity: 42
Note ON: Time 545760, Note Name: D5, Velocity: 53
Note OFF: Time 546240, Note Name: D5
Note ON: Time 546240, Note Name: C5, Velocity: 49
Note OFF: Time 546720, Note Name: C5
Note OFF: Time 546720, Note Name: G4
Note OFF: Time 546720, Note Name: D#4
Note ON: Time 547680, Note Name: B3, Velocity: 42
Note ON: Time 547680, Note Name: D4, Velocity: 42
Note ON: Time 547680, Note Name: F4, Velocity: 42
Note ON: Time 547680, Note Name: G4, Velocity: 53
Note OFF: Time 548160, Note Name: G4
Note OFF: Time 548160, Note Name: B3
Note OFF: Time 548160, Note Name: D4
Note OFF: Time 548160, Note Name: F4
Note ON: Time 548160, Note Name: G4, Velocity: 48
Note ON: Time 548160, Note Name: D4, Velocity: 38
Note ON: Time 548160, Note Name: F4, Velocity: 38
Note ON: Time 548160, Note Name: B3, Velocity: 38
Note OFF: Time 548640, Note Name: B3
Note OFF: Time 548640, Note Name: G4
Note OFF: Time 548640, Note Name: D4
Note OFF: Time 548640, Note Name: F4
Note ON: Time 548640, Note Name: C4, Velocity: 42
Note ON: Time 548640, Note Name: D#4, Velocity: 42
Note ON: Time 548640, Note Name: G#4, Velocity: 53
Note OFF: Time 549120, Note Name: G#4
Note ON: Time 549120, Note Name: G4, Velocity: 49
Note OFF: Time 549600, Note Name: G4
Note OFF: Time 549600, Note Name: D#4
Note OFF: Time 549600, Note Name: C4
Note ON: Time 550560, Note Name: D3, Velocity: 42
Note ON: Time 550560, Note Name: F3, Velocity: 42
Note ON: Time 550560, Note Name: B3, Velocity: 53
Note OFF: Time 551040, Note Name: B3
Note OFF: Time 551040, Note Name: F3
Note OFF: Time 551040, Note Name: D3
Note ON: Time 551040, Note Name: D3, Velocity: 38
Note ON: Time 551040, Note Name: F3, Velocity: 38
Note ON: Time 551040, Note Name: B3, Velocity: 48
Note OFF: Time 551520, Note Name: B3
Note OFF: Time 551520, Note Name: F3
Note OFF: Time 551520, Note Name: D3
Note ON: Time 551520, Note Name: D#3, Velocity: 42
Note ON: Time 551520, Note Name: G3, Velocity: 42
Note ON: Time 551520, Note Name: D4, Velocity: 53
Note OFF: Time 552000, Note Name: D4
Note ON: Time 552000, Note Name: C4, Velocity: 49
Note OFF: Time 552480, Note Name: C4
Note OFF: Time 552480, Note Name: G3
Note OFF: Time 552480, Note Name: D#3
Note ON: Time 553440, Note Name: D3, Velocity: 42
Note ON: Time 553440, Note Name: F3, Velocity: 42
Note ON: Time 553440, Note Name: B3, Velocity: 53
Note OFF: Time 553920, Note Name: B3
Note OFF: Time 553920, Note Name: F3
Note OFF: Time 553920, Note Name: D3
Note ON: Time 553920, Note Name: D3, Velocity: 38
Note ON: Time 553920, Note Name: F3, Velocity: 38
Note ON: Time 553920, Note Name: B3, Velocity: 48
Note OFF: Time 554400, Note Name: B3
Note OFF: Time 554400, Note Name: F3
Note OFF: Time 554400, Note Name: D3
Note ON: Time 554400, Note Name: D#3, Velocity: 42
Note ON: Time 554400, Note Name: G3, Velocity: 42
Note ON: Time 554400, Note Name: C4, Velocity: 53
Note OFF: Time 554880, Note Name: C4
Note OFF: Time 554880, Note Name: G3
Note OFF: Time 554880, Note Name: D#3
Note ON: Time 555840, Note Name: G4, Velocity: 82
Note ON: Time 555840, Note Name: B4, Velocity: 82
Note ON: Time 555840, Note Name: D5, Velocity: 82
Note ON: Time 555840, Note Name: G5, Velocity: 97
Note OFF: Time 556320, Note Name: G5
Note OFF: Time 556320, Note Name: G4
Note OFF: Time 556320, Note Name: B4
Note OFF: Time 556320, Note Name: D5
Note ON: Time 557280, Note Name: C4, Velocity: 82
Note ON: Time 557280, Note Name: D#4, Velocity: 82
Note ON: Time 557280, Note Name: G4, Velocity: 82
Note ON: Time 557280, Note Name: C5, Velocity: 97
Note OFF: Time 557760, Note Name: C5
Note OFF: Time 557760, Note Name: C4
Note OFF: Time 557760, Note Name: D#4
Note OFF: Time 557760, Note Name: G4
Track 2: Piano left
Note ON: Time 0, Note Name: C4, Velocity: 70
Note ON: Time 0, Note Name: G3, Velocity: 59
Note ON: Time 0, Note Name: D#3, Velocity: 59
Note ON: Time 0, Note Name: C3, Velocity: 59
Note OFF: Time 720, Note Name: C3
Note OFF: Time 720, Note Name: C4
Note OFF: Time 720, Note Name: G3
Note OFF: Time 720, Note Name: D#3
Note ON: Time 3840, Note Name: C4, Velocity: 34
Note ON: Time 3840, Note Name: D#4, Velocity: 41
Note OFF: Time 4080, Note Name: D#4
Note OFF: Time 4080, Note Name: C4
Note ON: Time 4320, Note Name: D#4, Velocity: 41
Note ON: Time 4320, Note Name: C4, Velocity: 34
Note OFF: Time 5280, Note Name: C4
Note OFF: Time 5280, Note Name: D#4
Note ON: Time 5280, Note Name: D4, Velocity: 32
Note ON: Time 5280, Note Name: F4, Velocity: 38
Note OFF: Time 5750, Note Name: F4
Note OFF: Time 5750, Note Name: D4
Note ON: Time 5760, Note Name: F3, Velocity: 59
Note ON: Time 5760, Note Name: B3, Velocity: 59
Note ON: Time 5760, Note Name: G#3, Velocity: 59
Note ON: Time 5760, Note Name: D4, Velocity: 70
Note ON: Time 5760, Note Name: D3, Velocity: 59
Note OFF: Time 6480, Note Name: D3
Note OFF: Time 6480, Note Name: G#3
Note OFF: Time 6480, Note Name: F3
Note OFF: Time 6480, Note Name: B3
Note OFF: Time 6480, Note Name: D4
Note ON: Time 9600, Note Name: D4, Velocity: 34
Note ON: Time 9600, Note Name: G#4, Velocity: 41
Note ON: Time 9600, Note Name: F4, Velocity: 34
Note OFF: Time 9840, Note Name: F4
Note OFF: Time 9840, Note Name: G#4
Note OFF: Time 9840, Note Name: D4
Note ON: Time 10080, Note Name: G#4, Velocity: 41
Note ON: Time 10080, Note Name: F4, Velocity: 34
Note ON: Time 10080, Note Name: D4, Velocity: 34
Note OFF: Time 11040, Note Name: D4
Note OFF: Time 11040, Note Name: F4
Note OFF: Time 11040, Note Name: G#4
Note ON: Time 11040, Note Name: G4, Velocity: 38
Note ON: Time 11040, Note Name: D#4, Velocity: 32
Note OFF: Time 11520, Note Name: D#4
Note OFF: Time 11520, Note Name: G4
Note ON: Time 12480, Note Name: C4, Velocity: 35
Note ON: Time 12480, Note Name: G3, Velocity: 29
Note ON: Time 12480, Note Name: D#3, Velocity: 29
Note OFF: Time 12960, Note Name: D#3
Note OFF: Time 12960, Note Name: G3
Note OFF: Time 12960, Note Name: C4
Note ON: Time 12960, Note Name: F3, Velocity: 33
Note ON: Time 12960, Note Name: G#3, Velocity: 33
Note ON: Time 12960, Note Name: B3, Velocity: 39
Note OFF: Time 13920, Note Name: B3
Note OFF: Time 13920, Note Name: G#3
Note OFF: Time 13920, Note Name: F3
Note ON: Time 13920, Note Name: C4, Velocity: 34
Note ON: Time 13920, Note Name: G3, Velocity: 28
Note ON: Time 13920, Note Name: D#3, Velocity: 28
Note OFF: Time 14400, Note Name: D#3
Note OFF: Time 14400, Note Name: G3
Note OFF: Time 14400, Note Name: C4
Note ON: Time 15360, Note Name: D#4, Velocity: 29
Note ON: Time 15360, Note Name: G4, Velocity: 35
Note OFF: Time 15840, Note Name: G4
Note OFF: Time 15840, Note Name: D#4
Note ON: Time 15840, Note Name: G#4, Velocity: 39
Note ON: Time 15840, Note Name: F4, Velocity: 33
Note OFF: Time 16800, Note Name: F4
Note OFF: Time 16800, Note Name: G#4
Note ON: Time 16800, Note Name: D#4, Velocity: 28
Note ON: Time 16800, Note Name: G4, Velocity: 34
Note OFF: Time 17280, Note Name: G4
Note OFF: Time 17280, Note Name: D#4
Note ON: Time 18240, Note Name: G3, Velocity: 39
Note ON: Time 18240, Note Name: C4, Velocity: 47
Note ON: Time 18240, Note Name: D#3, Velocity: 39
Note OFF: Time 18720, Note Name: D#3
Note OFF: Time 18720, Note Name: C4
Note OFF: Time 18720, Note Name: G3
Note ON: Time 18720, Note Name: B3, Velocity: 53
Note ON: Time 18720, Note Name: F3, Velocity: 45
Note ON: Time 18720, Note Name: G#3, Velocity: 45
Note OFF: Time 19680, Note Name: G#3
Note OFF: Time 19680, Note Name: F3
Note OFF: Time 19680, Note Name: B3
Note ON: Time 19680, Note Name: G3, Velocity: 46
Note ON: Time 19680, Note Name: D#3, Velocity: 39
Note OFF: Time 20160, Note Name: D#3
Note OFF: Time 20160, Note Name: G3
Note ON: Time 20160, Note Name: D3, Velocity: 46
Note ON: Time 20160, Note Name: F3, Velocity: 56
Note OFF: Time 21120, Note Name: F3
Note OFF: Time 21120, Note Name: D3
Note ON: Time 21120, Note Name: D#3, Velocity: 49
Note ON: Time 21120, Note Name: C3, Velocity: 41
Note OFF: Time 21600, Note Name: C3
Note OFF: Time 21600, Note Name: D#3
Note ON: Time 21600, Note Name: D3, Velocity: 47
Note ON: Time 21600, Note Name: B2, Velocity: 55
Note OFF: Time 22080, Note Name: B2
Note OFF: Time 22080, Note Name: D3
Note ON: Time 24000, Note Name: G#3, Velocity: 34
Note ON: Time 24000, Note Name: F3, Velocity: 28
Note ON: Time 24000, Note Name: D3, Velocity: 28
Note ON: Time 24000, Note Name: B2, Velocity: 28
Note OFF: Time 24480, Note Name: B2
Note OFF: Time 24480, Note Name: G#3
Note OFF: Time 24480, Note Name: F3
Note OFF: Time 24480, Note Name: D3
Note ON: Time 24480, Note Name: G3, Velocity: 34
Note ON: Time 24480, Note Name: D#3, Velocity: 28
Note ON: Time 24480, Note Name: C3, Velocity: 28
Note OFF: Time 24600, Note Name: C3
Note OFF: Time 24600, Note Name: D#3
Note OFF: Time 24600, Note Name: G3
Note ON: Time 26880, Note Name: D3, Velocity: 34
Note ON: Time 26880, Note Name: G#2, Velocity: 28
Note ON: Time 26880, Note Name: F2, Velocity: 28
Note OFF: Time 27360, Note Name: F2
Note OFF: Time 27360, Note Name: G#2
Note OFF: Time 27360, Note Name: D3
Note ON: Time 27360, Note Name: C3, Velocity: 28
Note ON: Time 27360, Note Name: G2, Velocity: 28
Note ON: Time 27360, Note Name: D#3, Velocity: 34
Note OFF: Time 27480, Note Name: D#3
Note OFF: Time 27480, Note Name: G2
Note OFF: Time 27480, Note Name: C3
Note ON: Time 29760, Note Name: G2, Velocity: 73
Note ON: Time 29760, Note Name: G1, Velocity: 73
Note OFF: Time 30000, Note Name: G1
Note OFF: Time 30000, Note Name: G2
Note ON: Time 30240, Note Name: G2, Velocity: 67
Note ON: Time 30240, Note Name: C2, Velocity: 67
Note ON: Time 30240, Note Name: C3, Velocity: 80
Note ON: Time 30240, Note Name: D#2, Velocity: 67
Note OFF: Time 30960, Note Name: D#2
Note OFF: Time 30960, Note Name: G2
Note OFF: Time 30960, Note Name: C2
Note OFF: Time 30960, Note Name: C3
Note ON: Time 32640, Note Name: C3, Velocity: 58
Note ON: Time 32640, Note Name: G3, Velocity: 69
Note ON: Time 32640, Note Name: D#3, Velocity: 58
Note OFF: Time 32760, Note Name: D#3
Note OFF: Time 32760, Note Name: G3
Note OFF: Time 32760, Note Name: C3
Note ON: Time 33120, Note Name: B2, Velocity: 58
Note ON: Time 33120, Note Name: D3, Velocity: 58
Note ON: Time 33120, Note Name: G3, Velocity: 69
Note OFF: Time 33240, Note Name: G3
Note OFF: Time 33240, Note Name: D3
Note OFF: Time 33240, Note Name: B2
Note ON: Time 35520, Note Name: G3, Velocity: 69
Note ON: Time 35520, Note Name: B2, Velocity: 58
Note ON: Time 35520, Note Name: D3, Velocity: 58
Note OFF: Time 35640, Note Name: D3
Note OFF: Time 35640, Note Name: B2
Note OFF: Time 35640, Note Name: G3
Note ON: Time 36000, Note Name: G3, Velocity: 69
Note ON: Time 36000, Note Name: C3, Velocity: 58
Note ON: Time 36000, Note Name: D#3, Velocity: 58
Note OFF: Time 36120, Note Name: D#3
Note OFF: Time 36120, Note Name: C3
Note OFF: Time 36120, Note Name: G3
Note ON: Time 38400, Note Name: D#3, Velocity: 58
Note ON: Time 38400, Note Name: C4, Velocity: 69
Note ON: Time 38400, Note Name: G3, Velocity: 58
Note OFF: Time 38520, Note Name: G3
Note OFF: Time 38520, Note Name: C4
Note OFF: Time 38520, Note Name: D#3
Note ON: Time 38880, Note Name: G#3, Velocity: 58
Note ON: Time 38880, Note Name: D4, Velocity: 69
Note ON: Time 38880, Note Name: F3, Velocity: 58
Note OFF: Time 39000, Note Name: F3
Note OFF: Time 39000, Note Name: D4
Note OFF: Time 39000, Note Name: G#3
Note ON: Time 40320, Note Name: D4, Velocity: 69
Note ON: Time 40320, Note Name: B3, Velocity: 58
Note ON: Time 40320, Note Name: G3, Velocity: 58
Note OFF: Time 40440, Note Name: G3
Note OFF: Time 40440, Note Name: B3
Note OFF: Time 40440, Note Name: D4
Note ON: Time 41760, Note Name: G3, Velocity: 58
Note ON: Time 41760, Note Name: C3, Velocity: 58
Note ON: Time 41760, Note Name: C4, Velocity: 69
Note ON: Time 41760, Note Name: D#3, Velocity: 58
Note OFF: Time 41880, Note Name: D#3
Note OFF: Time 41880, Note Name: G3
Note OFF: Time 41880, Note Name: C3
Note OFF: Time 41880, Note Name: C4
Note ON: Time 44640, Note Name: D#4, Velocity: 69
Note ON: Time 46080, Note Name: C#4, Velocity: 50
Note OFF: Time 47520, Note Name: C#4
Note ON: Time 47520, Note Name: C4, Velocity: 49
Note OFF: Time 48960, Note Name: C4
Note OFF: Time 48960, Note Name: D#4
Note ON: Time 48960, Note Name: C#4, Velocity: 34
Note ON: Time 48960, Note Name: A#3, Velocity: 28
Note OFF: Time 50400, Note Name: A#3
Note OFF: Time 50400, Note Name: C#4
Note ON: Time 50400, Note Name: G#3, Velocity: 28
Note ON: Time 50400, Note Name: D#4, Velocity: 33
Note OFF: Time 51840, Note Name: D#4
Note OFF: Time 51840, Note Name: G#3
Note ON: Time 51840, Note Name: A#4, Velocity: 50
Note ON: Time 51840, Note Name: C5, Velocity: 60
Note OFF: Time 53280, Note Name: A#4
Note ON: Time 53280, Note Name: G#4, Velocity: 49
Note OFF: Time 54720, Note Name: G#4
Note OFF: Time 54720, Note Name: C5
Note ON: Time 54720, Note Name: G4, Velocity: 28
Note ON: Time 54720, Note Name: A#4, Velocity: 34
Note OFF: Time 56160, Note Name: A#4
Note OFF: Time 56160, Note Name: G4
Note ON: Time 56160, Note Name: F4, Velocity: 28
Note ON: Time 56160, Note Name: G#4, Velocity: 33
Note OFF: Time 57600, Note Name: G#4
Note OFF: Time 57600, Note Name: F4
Note ON: Time 57600, Note Name: F#4, Velocity: 50
Note ON: Time 57600, Note Name: G#4, Velocity: 60
Note OFF: Time 59040, Note Name: F#4
Note ON: Time 59040, Note Name: F4, Velocity: 49
Note OFF: Time 60480, Note Name: F4
Note OFF: Time 60480, Note Name: G#4
Note ON: Time 60480, Note Name: D#4, Velocity: 44
Note ON: Time 60480, Note Name: F#4, Velocity: 44
Note OFF: Time 61920, Note Name: F#4
Note OFF: Time 61920, Note Name: D#4
Note ON: Time 61920, Note Name: C#4, Velocity: 28
Note ON: Time 61920, Note Name: F4, Velocity: 33
Note OFF: Time 63360, Note Name: F4
Note OFF: Time 63360, Note Name: C#4
Note ON: Time 63360, Note Name: B3, Velocity: 42
Note ON: Time 63360, Note Name: D#4, Velocity: 48
Note OFF: Time 64800, Note Name: D#4
Note OFF: Time 64800, Note Name: B3
Note ON: Time 64800, Note Name: A#3, Velocity: 33
Note OFF: Time 66240, Note Name: A#3
Note ON: Time 66240, Note Name: A3, Velocity: 33
Note OFF: Time 67680, Note Name: A3
Note ON: Time 67680, Note Name: A#2, Velocity: 33
Note ON: Time 68160, Note Name: F3, Velocity: 33
Note OFF: Time 68640, Note Name: F3
Note ON: Time 68640, Note Name: G3, Velocity: 37
Note OFF: Time 69120, Note Name: G3
Note ON: Time 69120, Note Name: G#3, Velocity: 41
Note OFF: Time 69600, Note Name: G#3
Note ON: Time 69600, Note Name: E3, Velocity: 33
Note OFF: Time 70080, Note Name: E3
Note ON: Time 70080, Note Name: F3, Velocity: 35
Note OFF: Time 70560, Note Name: F3
Note OFF: Time 70560, Note Name: A#2
Note ON: Time 70560, Note Name: A#2, Velocity: 42
Note ON: Time 70560, Note Name: G3, Velocity: 42
Note OFF: Time 71040, Note Name: G3
Note ON: Time 71040, Note Name: D3, Velocity: 33
Note OFF: Time 71520, Note Name: D3
Note ON: Time 71520, Note Name: D#3, Velocity: 33
Note OFF: Time 72000, Note Name: D#3
Note ON: Time 72000, Note Name: F3, Velocity: 40
Note OFF: Time 72480, Note Name: F3
Note ON: Time 72480, Note Name: C3, Velocity: 33
Note OFF: Time 72960, Note Name: C3
Note ON: Time 72960, Note Name: D3, Velocity: 33
Note OFF: Time 73440, Note Name: D3
Note OFF: Time 73440, Note Name: A#2
Note ON: Time 73440, Note Name: A#2, Velocity: 39
Note ON: Time 73440, Note Name: D#3, Velocity: 39
Note OFF: Time 73920, Note Name: D#3
Note ON: Time 73920, Note Name: F3, Velocity: 33
Note OFF: Time 74400, Note Name: F3
Note ON: Time 74400, Note Name: G3, Velocity: 36
Note OFF: Time 74880, Note Name: G3
Note ON: Time 74880, Note Name: G#3, Velocity: 40
Note OFF: Time 75360, Note Name: G#3
Note ON: Time 75360, Note Name: E3, Velocity: 33
Note OFF: Time 75840, Note Name: E3
Note ON: Time 75840, Note Name: F3, Velocity: 33
Note OFF: Time 76320, Note Name: F3
Note OFF: Time 76320, Note Name: A#2
Note ON: Time 76320, Note Name: G3, Velocity: 42
Note ON: Time 76320, Note Name: A#2, Velocity: 42
Note OFF: Time 76800, Note Name: G3
Note ON: Time 76800, Note Name: D3, Velocity: 33
Note OFF: Time 77280, Note Name: D3
Note ON: Time 77280, Note Name: D#3, Velocity: 33
Note OFF: Time 77760, Note Name: D#3
Note ON: Time 77760, Note Name: F3, Velocity: 40
Note OFF: Time 78240, Note Name: F3
Note ON: Time 78240, Note Name: C3, Velocity: 33
Note OFF: Time 78720, Note Name: C3
Note ON: Time 78720, Note Name: D3, Velocity: 33
Note OFF: Time 79200, Note Name: D3
Note OFF: Time 79200, Note Name: A#2
Note ON: Time 79200, Note Name: D#3, Velocity: 40
Note OFF: Time 79440, Note Name: D#3
Note ON: Time 79440, Note Name: A#3, Velocity: 28
Note OFF: Time 79680, Note Name: A#3
Note ON: Time 79680, Note Name: G3, Velocity: 33
Note OFF: Time 79920, Note Name: G3
Note ON: Time 79920, Note Name: A#3, Velocity: 27
Note OFF: Time 80160, Note Name: A#3
Note ON: Time 80174, Note Name: F3, Velocity: 33
Note ON: Time 80400, Note Name: A#3, Velocity: 30
Note OFF: Time 80414, Note Name: F3
Note OFF: Time 80640, Note Name: A#3
Note ON: Time 80640, Note Name: D#3, Velocity: 38
Note OFF: Time 80880, Note Name: D#3
Note ON: Time 80880, Note Name: A#3, Velocity: 28
Note OFF: Time 81120, Note Name: A#3
Note ON: Time 81120, Note Name: F3, Velocity: 42
Note OFF: Time 81360, Note Name: F3
Note ON: Time 81360, Note Name: A#3, Velocity: 35
Note OFF: Time 81600, Note Name: A#3
Note ON: Time 81600, Note Name: G3, Velocity: 46
Note OFF: Time 81840, Note Name: G3
Note ON: Time 81840, Note Name: A#3, Velocity: 40
Note OFF: Time 82080, Note Name: A#3
Note ON: Time 82080, Note Name: F3, Velocity: 51
Note OFF: Time 82320, Note Name: F3
Note ON: Time 82320, Note Name: A#3, Velocity: 44
Note OFF: Time 82560, Note Name: A#3
Note ON: Time 82560, Note Name: G3, Velocity: 52
Note OFF: Time 82800, Note Name: G3
Note ON: Time 82800, Note Name: A#3, Velocity: 43
Note OFF: Time 83040, Note Name: A#3
Note ON: Time 83040, Note Name: G#3, Velocity: 55
Note OFF: Time 83280, Note Name: G#3
Note ON: Time 83280, Note Name: A#3, Velocity: 47
Note OFF: Time 83520, Note Name: A#3
Note ON: Time 83520, Note Name: F3, Velocity: 60
Note OFF: Time 83760, Note Name: F3
Note ON: Time 83760, Note Name: A#3, Velocity: 39
Note OFF: Time 84000, Note Name: A#3
Note ON: Time 84000, Note Name: G3, Velocity: 46
Note OFF: Time 84240, Note Name: G3
Note ON: Time 84240, Note Name: A#3, Velocity: 33
Note OFF: Time 84480, Note Name: A#3
Note ON: Time 84480, Note Name: G#3, Velocity: 41
Note OFF: Time 84720, Note Name: G#3
Note ON: Time 84720, Note Name: A#3, Velocity: 33
Note OFF: Time 84960, Note Name: A#3
Note ON: Time 84960, Note Name: D3, Velocity: 40
Note OFF: Time 85200, Note Name: D3
Note ON: Time 85200, Note Name: A#3, Velocity: 28
Note OFF: Time 85440, Note Name: A#3
Note ON: Time 85440, Note Name: F3, Velocity: 33
Note OFF: Time 85680, Note Name: F3
Note ON: Time 85680, Note Name: A#3, Velocity: 27
Note OFF: Time 85920, Note Name: A#3
Note ON: Time 85920, Note Name: D#3, Velocity: 33
Note OFF: Time 86160, Note Name: D#3
Note ON: Time 86160, Note Name: A#3, Velocity: 30
Note OFF: Time 86400, Note Name: A#3
Note ON: Time 86400, Note Name: D3, Velocity: 38
Note OFF: Time 86640, Note Name: D3
Note ON: Time 86640, Note Name: A#3, Velocity: 31
Note OFF: Time 86880, Note Name: A#3
Note ON: Time 86880, Note Name: D#3, Velocity: 46
Note OFF: Time 87120, Note Name: D#3
Note ON: Time 87120, Note Name: A#3, Velocity: 38
Note OFF: Time 87360, Note Name: A#3
Note ON: Time 87360, Note Name: F3, Velocity: 50
Note OFF: Time 87600, Note Name: F3
Note ON: Time 87600, Note Name: A#3, Velocity: 43
Note OFF: Time 87840, Note Name: A#3
Note ON: Time 87840, Note Name: D#3, Velocity: 56
Note OFF: Time 88080, Note Name: D#3
Note ON: Time 88080, Note Name: A#3, Velocity: 42
Note OFF: Time 88320, Note Name: A#3
Note ON: Time 88320, Note Name: F3, Velocity: 54
Note OFF: Time 88560, Note Name: F3
Note ON: Time 88560, Note Name: A#3, Velocity: 44
Note OFF: Time 88800, Note Name: A#3
Note ON: Time 88800, Note Name: G3, Velocity: 46
Note OFF: Time 89040, Note Name: G3
Note ON: Time 89040, Note Name: A#3, Velocity: 33
Note OFF: Time 89280, Note Name: A#3
Note ON: Time 89280, Note Name: D#3, Velocity: 48
Note OFF: Time 89520, Note Name: D#3
Note ON: Time 89520, Note Name: A#3, Velocity: 39
Note OFF: Time 89760, Note Name: A#3
Note ON: Time 89760, Note Name: F3, Velocity: 41
Note OFF: Time 90000, Note Name: F3
Note ON: Time 90000, Note Name: A#3, Velocity: 33
Note OFF: Time 90240, Note Name: A#3
Note ON: Time 90240, Note Name: G3, Velocity: 41
Note OFF: Time 90480, Note Name: G3
Note ON: Time 90480, Note Name: A#3, Velocity: 33
Note OFF: Time 90720, Note Name: A#3
Note ON: Time 90720, Note Name: D#3, Velocity: 40
Note OFF: Time 90960, Note Name: D#3
Note ON: Time 90960, Note Name: A#3, Velocity: 28
Note OFF: Time 91200, Note Name: A#3
Note ON: Time 91200, Note Name: G3, Velocity: 33
Note OFF: Time 91440, Note Name: G3
Note ON: Time 91440, Note Name: A#3, Velocity: 27
Note OFF: Time 91680, Note Name: A#3
Note ON: Time 91680, Note Name: D#3, Velocity: 35
Note OFF: Time 91920, Note Name: D#3
Note ON: Time 91920, Note Name: A#3, Velocity: 32
Note OFF: Time 92160, Note Name: A#3
Note ON: Time 92160, Note Name: D#3, Velocity: 41
Note OFF: Time 92400, Note Name: D#3
Note ON: Time 92400, Note Name: A#3, Velocity: 38
Note OFF: Time 92640, Note Name: A#3
Note ON: Time 92640, Note Name: G3, Velocity: 48
Note OFF: Time 92880, Note Name: G3
Note ON: Time 92880, Note Name: A#3, Velocity: 41
Note OFF: Time 93120, Note Name: A#3
Note ON: Time 93120, Note Name: D#3, Velocity: 54
Note OFF: Time 93360, Note Name: D#3
Note ON: Time 93360, Note Name: A#3, Velocity: 51
Note OFF: Time 93600, Note Name: A#3
Note ON: Time 93600, Note Name: F3, Velocity: 52
Note OFF: Time 93840, Note Name: F3
Note ON: Time 93840, Note Name: A#3, Velocity: 48
Note OFF: Time 94080, Note Name: A#3
Note ON: Time 94080, Note Name: G#3, Velocity: 52
Note OFF: Time 94320, Note Name: G#3
Note ON: Time 94320, Note Name: A#3, Velocity: 44
Note OFF: Time 94560, Note Name: A#3
Note ON: Time 94560, Note Name: F3, Velocity: 46
Note OFF: Time 94800, Note Name: F3
Note ON: Time 94800, Note Name: A#3, Velocity: 43
Note OFF: Time 95040, Note Name: A#3
Note ON: Time 95040, Note Name: F3, Velocity: 43
Note OFF: Time 95280, Note Name: F3
Note ON: Time 95280, Note Name: A#3, Velocity: 31
Note OFF: Time 95520, Note Name: A#3
Note ON: Time 95520, Note Name: G#3, Velocity: 39
Note OFF: Time 95760, Note Name: G#3
Note ON: Time 95760, Note Name: A#3, Velocity: 31
Note OFF: Time 96000, Note Name: A#3
Note ON: Time 96000, Note Name: F3, Velocity: 39
Note OFF: Time 96240, Note Name: F3
Note ON: Time 96240, Note Name: A#3, Velocity: 31
Note OFF: Time 96478, Note Name: A#3
Note ON: Time 96480, Note Name: D3, Velocity: 40
Note OFF: Time 96720, Note Name: D3
Note ON: Time 96720, Note Name: A#3, Velocity: 32
Note OFF: Time 96960, Note Name: A#3
Note ON: Time 96960, Note Name: F3, Velocity: 39
Note OFF: Time 97200, Note Name: F3
Note ON: Time 97200, Note Name: A#3, Velocity: 29
Note OFF: Time 97440, Note Name: A#3
Note ON: Time 97440, Note Name: D3, Velocity: 46
Note OFF: Time 97680, Note Name: D3
Note ON: Time 97680, Note Name: A#3, Velocity: 37
Note OFF: Time 97920, Note Name: A#3
Note ON: Time 97920, Note Name: D3, Velocity: 52
Note OFF: Time 98160, Note Name: D3
Note ON: Time 98160, Note Name: A#3, Velocity: 43
Note OFF: Time 98400, Note Name: A#3
Note ON: Time 98400, Note Name: F3, Velocity: 57
Note OFF: Time 98640, Note Name: F3
Note ON: Time 98640, Note Name: A#3, Velocity: 49
Note OFF: Time 98880, Note Name: A#3
Note ON: Time 98880, Note Name: D3, Velocity: 62
Note OFF: Time 99120, Note Name: D3
Note ON: Time 99120, Note Name: A#3, Velocity: 51
Note OFF: Time 99360, Note Name: A#3
Note ON: Time 99600, Note Name: D#3, Velocity: 43
Note OFF: Time 99840, Note Name: D#3
Note ON: Time 99840, Note Name: D3, Velocity: 50
Note OFF: Time 100080, Note Name: D3
Note ON: Time 100080, Note Name: D#3, Velocity: 44
Note OFF: Time 100320, Note Name: D#3
Note ON: Time 100320, Note Name: D3, Velocity: 53
Note OFF: Time 100560, Note Name: D3
Note ON: Time 100560, Note Name: D#3, Velocity: 44
Note OFF: Time 100800, Note Name: D#3
Note ON: Time 100800, Note Name: G2, Velocity: 67
Note OFF: Time 101040, Note Name: G2
Note ON: Time 101040, Note Name: D#3, Velocity: 45
Note OFF: Time 101280, Note Name: D#3
Note ON: Time 101280, Note Name: G#2, Velocity: 59
Note OFF: Time 101520, Note Name: G#2
Note ON: Time 101520, Note Name: D#3, Velocity: 47
Note OFF: Time 101760, Note Name: D#3
Note ON: Time 101760, Note Name: A#2, Velocity: 61
Note OFF: Time 102000, Note Name: A#2
Note ON: Time 102000, Note Name: D#3, Velocity: 44
Note OFF: Time 102240, Note Name: D#3
Note ON: Time 102240, Note Name: G#2, Velocity: 65
Note OFF: Time 102480, Note Name: G#2
Note ON: Time 102480, Note Name: D#3, Velocity: 45
Note OFF: Time 102720, Note Name: D#3
Note ON: Time 102720, Note Name: A#2, Velocity: 57
Note OFF: Time 102960, Note Name: A#2
Note ON: Time 102960, Note Name: D#3, Velocity: 42
Note OFF: Time 103200, Note Name: D#3
Note ON: Time 103200, Note Name: C3, Velocity: 55
Note OFF: Time 103440, Note Name: C3
Note ON: Time 103440, Note Name: D#3, Velocity: 45
Note OFF: Time 103680, Note Name: D#3
Note ON: Time 103680, Note Name: A2, Velocity: 67
Note OFF: Time 103920, Note Name: A2
Note ON: Time 103920, Note Name: D#3, Velocity: 45
Note OFF: Time 104160, Note Name: D#3
Note ON: Time 104160, Note Name: A#2, Velocity: 56
Note OFF: Time 104400, Note Name: A#2
Note ON: Time 104400, Note Name: D#3, Velocity: 47
Note OFF: Time 104640, Note Name: D#3
Note ON: Time 104640, Note Name: C3, Velocity: 55
Note OFF: Time 104880, Note Name: C3
Note ON: Time 104880, Note Name: D#3, Velocity: 44
Note OFF: Time 105120, Note Name: D#3
Note ON: Time 105120, Note Name: A#2, Velocity: 64
Note OFF: Time 105360, Note Name: A#2
Note ON: Time 105360, Note Name: G3, Velocity: 46
Note OFF: Time 105600, Note Name: G3
Note ON: Time 105600, Note Name: D#3, Velocity: 56
Note OFF: Time 105840, Note Name: D#3
Note ON: Time 105840, Note Name: G3, Velocity: 45
Note OFF: Time 106080, Note Name: G3
Note ON: Time 106080, Note Name: A#2, Velocity: 57
Note OFF: Time 106320, Note Name: A#2
Note ON: Time 106320, Note Name: G3, Velocity: 46
Note OFF: Time 106560, Note Name: G3
Note ON: Time 106560, Note Name: A#2, Velocity: 64
Note OFF: Time 106800, Note Name: A#2
Note ON: Time 106800, Note Name: F3, Velocity: 46
Note OFF: Time 107040, Note Name: F3
Note ON: Time 107040, Note Name: D3, Velocity: 55
Note OFF: Time 107280, Note Name: D3
Note ON: Time 107280, Note Name: F3, Velocity: 45
Note OFF: Time 107520, Note Name: F3
Note ON: Time 107520, Note Name: A#2, Velocity: 55
Note OFF: Time 107760, Note Name: A#2
Note ON: Time 107760, Note Name: F3, Velocity: 46
Note OFF: Time 108000, Note Name: F3
Note ON: Time 108000, Note Name: D#2, Velocity: 64
Note ON: Time 108000, Note Name: D#3, Velocity: 64
Note OFF: Time 108480, Note Name: D#3
Note OFF: Time 108480, Note Name: D#2
Note ON: Time 110880, Note Name: G2, Velocity: 67
Note OFF: Time 111120, Note Name: G2
Note ON: Time 111120, Note Name: D#3, Velocity: 45
Note OFF: Time 111360, Note Name: D#3
Note ON: Time 111360, Note Name: G#2, Velocity: 59
Note OFF: Time 111600, Note Name: G#2
Note ON: Time 111600, Note Name: D#3, Velocity: 47
Note OFF: Time 111840, Note Name: D#3
Note ON: Time 111840, Note Name: A#2, Velocity: 61
Note OFF: Time 112080, Note Name: A#2
Note ON: Time 112080, Note Name: D#3, Velocity: 44
Note OFF: Time 112320, Note Name: D#3
Note ON: Time 112320, Note Name: G2, Velocity: 67
Note OFF: Time 112560, Note Name: G2
Note ON: Time 112560, Note Name: D#3, Velocity: 45
Note OFF: Time 112800, Note Name: D#3
Note ON: Time 112800, Note Name: G#2, Velocity: 57
Note OFF: Time 113040, Note Name: G#2
Note ON: Time 113040, Note Name: D#3, Velocity: 52
Note OFF: Time 113280, Note Name: D#3
Note ON: Time 113280, Note Name: A#2, Velocity: 61
Note OFF: Time 113520, Note Name: A#2
Note ON: Time 113520, Note Name: D#3, Velocity: 44
Note OFF: Time 113760, Note Name: D#3
Note ON: Time 113760, Note Name: G#2, Velocity: 65
Note OFF: Time 114000, Note Name: G#2
Note ON: Time 114000, Note Name: D#3, Velocity: 45
Note OFF: Time 114240, Note Name: D#3
Note ON: Time 114240, Note Name: A#2, Velocity: 58
Note OFF: Time 114480, Note Name: A#2
Note ON: Time 114480, Note Name: D#3, Velocity: 42
Note OFF: Time 114720, Note Name: D#3
Note ON: Time 114720, Note Name: C3, Velocity: 57
Note OFF: Time 114960, Note Name: C3
Note ON: Time 114960, Note Name: D#3, Velocity: 45
Note OFF: Time 115200, Note Name: D#3
Note ON: Time 115200, Note Name: A2, Velocity: 67
Note OFF: Time 115440, Note Name: A2
Note ON: Time 115440, Note Name: D#3, Velocity: 45
Note OFF: Time 115680, Note Name: D#3
Note ON: Time 115680, Note Name: A#2, Velocity: 56
Note OFF: Time 115920, Note Name: A#2
Note ON: Time 115920, Note Name: D#3, Velocity: 47
Note OFF: Time 116160, Note Name: D#3
Note ON: Time 116160, Note Name: C3, Velocity: 58
Note OFF: Time 116400, Note Name: C3
Note ON: Time 116400, Note Name: D#3, Velocity: 44
Note OFF: Time 116640, Note Name: D#3
Note ON: Time 116640, Note Name: A#2, Velocity: 67
Note OFF: Time 116880, Note Name: A#2
Note ON: Time 116880, Note Name: D#3, Velocity: 52
Note OFF: Time 117120, Note Name: D#3
Note ON: Time 117120, Note Name: D3, Velocity: 61
Note OFF: Time 117360, Note Name: D3
Note ON: Time 117360, Note Name: D#3, Velocity: 48
Note OFF: Time 117600, Note Name: D#3
Note ON: Time 117600, Note Name: B2, Velocity: 62
Note OFF: Time 117840, Note Name: B2
Note ON: Time 117840, Note Name: D#3, Velocity: 53
Note OFF: Time 118080, Note Name: D#3
Note ON: Time 118080, Note Name: C3, Velocity: 71
Note OFF: Time 118320, Note Name: C3
Note ON: Time 118320, Note Name: D#3, Velocity: 54
Note OFF: Time 118560, Note Name: D#3
Note ON: Time 118560, Note Name: D3, Velocity: 65
Note OFF: Time 118800, Note Name: D3
Note ON: Time 118800, Note Name: D#3, Velocity: 52
Note OFF: Time 119040, Note Name: D#3
Note ON: Time 119040, Note Name: A2, Velocity: 64
Note OFF: Time 119280, Note Name: A2
Note ON: Time 119280, Note Name: D#3, Velocity: 49
Note OFF: Time 119520, Note Name: D#3
Note ON: Time 119520, Note Name: A#2, Velocity: 77
Note OFF: Time 119760, Note Name: A#2
Note ON: Time 119760, Note Name: D#3, Velocity: 58
Note OFF: Time 120000, Note Name: D#3
Note ON: Time 120000, Note Name: C#3, Velocity: 65
Note OFF: Time 120240, Note Name: C#3
Note ON: Time 120240, Note Name: D#3, Velocity: 56
Note OFF: Time 120480, Note Name: D#3
Note ON: Time 120480, Note Name: B2, Velocity: 70
Note OFF: Time 120720, Note Name: B2
Note ON: Time 120720, Note Name: D#3, Velocity: 54
Note OFF: Time 120960, Note Name: D#3
Note ON: Time 120960, Note Name: C3, Velocity: 77
Note OFF: Time 121200, Note Name: C3
Note ON: Time 121200, Note Name: D#3, Velocity: 57
Note OFF: Time 121440, Note Name: D#3
Note ON: Time 121440, Note Name: D3, Velocity: 63
Note OFF: Time 121680, Note Name: D3
Note ON: Time 121680, Note Name: D#3, Velocity: 58
Note OFF: Time 121920, Note Name: D#3
Note ON: Time 121920, Note Name: A2, Velocity: 71
Note OFF: Time 122160, Note Name: A2
Note ON: Time 122160, Note Name: D#3, Velocity: 65
Note OFF: Time 122400, Note Name: D#3
Note ON: Time 122400, Note Name: A#2, Velocity: 82
Note OFF: Time 122880, Note Name: A#2
Note ON: Time 122880, Note Name: A#2, Velocity: 77
Note ON: Time 122880, Note Name: D#3, Velocity: 77
Note ON: Time 122880, Note Name: G3, Velocity: 87
Note OFF: Time 123000, Note Name: G3
Note OFF: Time 123000, Note Name: D#3
Note OFF: Time 123000, Note Name: A#2
Note ON: Time 124320, Note Name: D#3, Velocity: 77
Note ON: Time 124320, Note Name: C3, Velocity: 77
Note ON: Time 124320, Note Name: F#3, Velocity: 87
Note OFF: Time 124440, Note Name: F#3
Note OFF: Time 124440, Note Name: C3
Note OFF: Time 124440, Note Name: D#3
Note ON: Time 125760, Note Name: G3, Velocity: 87
Note ON: Time 125760, Note Name: A#2, Velocity: 77
Note ON: Time 125760, Note Name: D#3, Velocity: 77
Note OFF: Time 125880, Note Name: D#3
Note OFF: Time 125880, Note Name: A#2
Note OFF: Time 125880, Note Name: G3
Note ON: Time 127200, Note Name: A3, Velocity: 87
Note ON: Time 127200, Note Name: D#3, Velocity: 77
Note ON: Time 127200, Note Name: F#3, Velocity: 77
Note ON: Time 127200, Note Name: A2, Velocity: 77
Note OFF: Time 127320, Note Name: A2
Note OFF: Time 127320, Note Name: A3
Note OFF: Time 127320, Note Name: D#3
Note OFF: Time 127320, Note Name: F#3
Note ON: Time 128640, Note Name: A#2, Velocity: 77
Note ON: Time 128640, Note Name: A#3, Velocity: 87
Note ON: Time 128640, Note Name: G3, Velocity: 77
Note ON: Time 128640, Note Name: D#3, Velocity: 77
Note OFF: Time 128760, Note Name: D#3
Note OFF: Time 128760, Note Name: A#2
Note OFF: Time 128760, Note Name: A#3
Note OFF: Time 128760, Note Name: G3
Note ON: Time 131040, Note Name: A#3, Velocity: 81
Note OFF: Time 131280, Note Name: A#3
Note ON: Time 131280, Note Name: G3, Velocity: 77
Note OFF: Time 131460, Note Name: G3
Note ON: Time 131520, Note Name: G3, Velocity: 82
Note OFF: Time 131760, Note Name: G3
Note ON: Time 131760, Note Name: D#3, Velocity: 77
Note OFF: Time 131940, Note Name: D#3
Note ON: Time 132000, Note Name: D#3, Velocity: 83
Note OFF: Time 132240, Note Name: D#3
Note ON: Time 132240, Note Name: A#2, Velocity: 77
Note OFF: Time 132420, Note Name: A#2
Note ON: Time 132480, Note Name: A#2, Velocity: 92
Note ON: Time 132480, Note Name: A#1, Velocity: 78
Note ON: Time 133440, Note Name: G#3, Velocity: 70
Note ON: Time 133440, Note Name: F3, Velocity: 59
Note OFF: Time 133920, Note Name: F3
Note OFF: Time 133920, Note Name: A#2
Note OFF: Time 133920, Note Name: A#1
Note OFF: Time 133920, Note Name: G#3
Note ON: Time 133920, Note Name: G3, Velocity: 79
Note ON: Time 133920, Note Name: D#2, Velocity: 67
Note OFF: Time 134400, Note Name: D#2
Note OFF: Time 134400, Note Name: G3
Note ON: Time 134400, Note Name: A#2, Velocity: 51
Note ON: Time 134880, Note Name: A2, Velocity: 51
Note OFF: Time 135360, Note Name: A2
Note ON: Time 135360, Note Name: G#2, Velocity: 51
Note OFF: Time 135840, Note Name: G#2
Note ON: Time 135840, Note Name: G2, Velocity: 49
Note OFF: Time 136320, Note Name: G2
Note ON: Time 136320, Note Name: F2, Velocity: 49
Note OFF: Time 136800, Note Name: F2
Note OFF: Time 136800, Note Name: A#2
Note ON: Time 136800, Note Name: D#2, Velocity: 51
Note OFF: Time 137280, Note Name: D#2
Note ON: Time 137280, Note Name: G2, Velocity: 47
Note OFF: Time 137760, Note Name: G2
Note ON: Time 137760, Note Name: A#2, Velocity: 47
Note OFF: Time 138240, Note Name: A#2
Note ON: Time 138240, Note Name: A#1, Velocity: 51
Note OFF: Time 138720, Note Name: A#1
Note ON: Time 138720, Note Name: F2, Velocity: 48
Note OFF: Time 139200, Note Name: F2
Note ON: Time 139200, Note Name: A#2, Velocity: 48
Note OFF: Time 139680, Note Name: A#2
Note ON: Time 139680, Note Name: D#2, Velocity: 67
Note OFF: Time 140160, Note Name: D#2
Note ON: Time 140160, Note Name: A#2, Velocity: 51
Note ON: Time 140640, Note Name: A2, Velocity: 51
Note OFF: Time 141120, Note Name: A2
Note ON: Time 141120, Note Name: G#2, Velocity: 51
Note OFF: Time 141600, Note Name: G#2
Note ON: Time 141600, Note Name: G2, Velocity: 49
Note OFF: Time 142080, Note Name: G2
Note ON: Time 142080, Note Name: F2, Velocity: 49
Note OFF: Time 142560, Note Name: F2
Note OFF: Time 142560, Note Name: A#2
Note ON: Time 142560, Note Name: D#2, Velocity: 51
Note OFF: Time 143040, Note Name: D#2
Note ON: Time 143040, Note Name: G2, Velocity: 47
Note OFF: Time 143520, Note Name: G2
Note ON: Time 143520, Note Name: A#2, Velocity: 47
Note OFF: Time 144000, Note Name: A#2
Note ON: Time 144000, Note Name: A#1, Velocity: 51
Note OFF: Time 144480, Note Name: A#1
Note ON: Time 144480, Note Name: F2, Velocity: 48
Note OFF: Time 144960, Note Name: F2
Note ON: Time 144960, Note Name: A#2, Velocity: 48
Note OFF: Time 145440, Note Name: A#2
Note ON: Time 145440, Note Name: D#2, Velocity: 51
Note OFF: Time 145920, Note Name: D#2
Note ON: Time 145920, Note Name: G2, Velocity: 47
Note OFF: Time 146400, Note Name: G2
Note ON: Time 146400, Note Name: A#2, Velocity: 47
Note OFF: Time 146880, Note Name: A#2
Note ON: Time 146880, Note Name: A#1, Velocity: 51
Note OFF: Time 147360, Note Name: A#1
Note ON: Time 147360, Note Name: F2, Velocity: 48
Note OFF: Time 147840, Note Name: F2
Note ON: Time 147840, Note Name: A#2, Velocity: 48
Note OFF: Time 148320, Note Name: A#2
Note ON: Time 148320, Note Name: D#2, Velocity: 51
Note OFF: Time 148800, Note Name: D#2
Note ON: Time 148800, Note Name: G2, Velocity: 47
Note OFF: Time 149280, Note Name: G2
Note ON: Time 149280, Note Name: A#2, Velocity: 47
Note OFF: Time 149760, Note Name: A#2
Note ON: Time 149760, Note Name: D#3, Velocity: 40
Note ON: Time 149760, Note Name: G3, Velocity: 44
Note OFF: Time 150240, Note Name: G3
Note OFF: Time 150240, Note Name: D#3
Note ON: Time 151200, Note Name: C4, Velocity: 70
Note ON: Time 151200, Note Name: G3, Velocity: 59
Note ON: Time 151200, Note Name: D#3, Velocity: 59
Note ON: Time 151200, Note Name: C3, Velocity: 59
Note OFF: Time 151920, Note Name: C3
Note OFF: Time 151920, Note Name: C4
Note OFF: Time 151920, Note Name: G3
Note OFF: Time 151920, Note Name: D#3
Note ON: Time 155040, Note Name: C4, Velocity: 34
Note ON: Time 155040, Note Name: D#4, Velocity: 41
Note OFF: Time 155280, Note Name: D#4
Note OFF: Time 155280, Note Name: C4
Note ON: Time 155520, Note Name: D#4, Velocity: 41
Note ON: Time 155520, Note Name: C4, Velocity: 34
Note OFF: Time 156480, Note Name: C4
Note OFF: Time 156480, Note Name: D#4
Note ON: Time 156480, Note Name: D4, Velocity: 32
Note ON: Time 156480, Note Name: F4, Velocity: 38
Note OFF: Time 156950, Note Name: F4
Note OFF: Time 156950, Note Name: D4
Note ON: Time 156960, Note Name: F3, Velocity: 59
Note ON: Time 156960, Note Name: B3, Velocity: 59
Note ON: Time 156960, Note Name: G#3, Velocity: 59
Note ON: Time 156960, Note Name: D4, Velocity: 70
Note ON: Time 156960, Note Name: D3, Velocity: 59
Note OFF: Time 157680, Note Name: D3
Note OFF: Time 157680, Note Name: G#3
Note OFF: Time 157680, Note Name: F3
Note OFF: Time 157680, Note Name: B3
Note OFF: Time 157680, Note Name: D4
Note ON: Time 160800, Note Name: D4, Velocity: 34
Note ON: Time 160800, Note Name: G#4, Velocity: 41
Note ON: Time 160800, Note Name: F4, Velocity: 34
Note OFF: Time 161040, Note Name: F4
Note OFF: Time 161040, Note Name: G#4
Note OFF: Time 161040, Note Name: D4
Note ON: Time 161280, Note Name: G#4, Velocity: 41
Note ON: Time 161280, Note Name: F4, Velocity: 34
Note ON: Time 161280, Note Name: D4, Velocity: 34
Note OFF: Time 162240, Note Name: D4
Note OFF: Time 162240, Note Name: F4
Note OFF: Time 162240, Note Name: G#4
Note ON: Time 162240, Note Name: G4, Velocity: 38
Note ON: Time 162240, Note Name: D#4, Velocity: 32
Note OFF: Time 162720, Note Name: D#4
Note OFF: Time 162720, Note Name: G4
Note ON: Time 163680, Note Name: C4, Velocity: 35
Note ON: Time 163680, Note Name: G3, Velocity: 29
Note ON: Time 163680, Note Name: D#3, Velocity: 29
Note OFF: Time 164160, Note Name: D#3
Note OFF: Time 164160, Note Name: G3
Note OFF: Time 164160, Note Name: C4
Note ON: Time 164160, Note Name: F3, Velocity: 33
Note ON: Time 164160, Note Name: G#3, Velocity: 33
Note ON: Time 164160, Note Name: B3, Velocity: 39
Note OFF: Time 165120, Note Name: B3
Note OFF: Time 165120, Note Name: G#3
Note OFF: Time 165120, Note Name: F3
Note ON: Time 165120, Note Name: C4, Velocity: 34
Note ON: Time 165120, Note Name: G3, Velocity: 28
Note ON: Time 165120, Note Name: D#3, Velocity: 28
Note OFF: Time 165600, Note Name: D#3
Note OFF: Time 165600, Note Name: G3
Note OFF: Time 165600, Note Name: C4
Note ON: Time 166560, Note Name: D#4, Velocity: 29
Note ON: Time 166560, Note Name: G4, Velocity: 35
Note OFF: Time 167040, Note Name: G4
Note OFF: Time 167040, Note Name: D#4
Note ON: Time 167040, Note Name: G#4, Velocity: 39
Note ON: Time 167040, Note Name: F4, Velocity: 33
Note OFF: Time 168000, Note Name: F4
Note OFF: Time 168000, Note Name: G#4
Note ON: Time 168000, Note Name: D#4, Velocity: 28
Note ON: Time 168000, Note Name: G4, Velocity: 34
Note OFF: Time 168480, Note Name: G4
Note OFF: Time 168480, Note Name: D#4
Note ON: Time 169440, Note Name: G3, Velocity: 39
Note ON: Time 169440, Note Name: C4, Velocity: 47
Note ON: Time 169440, Note Name: D#3, Velocity: 39
Note OFF: Time 169920, Note Name: D#3
Note OFF: Time 169920, Note Name: C4
Note OFF: Time 169920, Note Name: G3
Note ON: Time 169920, Note Name: B3, Velocity: 53
Note ON: Time 169920, Note Name: F3, Velocity: 45
Note ON: Time 169920, Note Name: G#3, Velocity: 45
Note OFF: Time 170880, Note Name: G#3
Note OFF: Time 170880, Note Name: F3
Note OFF: Time 170880, Note Name: B3
Note ON: Time 170880, Note Name: G3, Velocity: 46
Note ON: Time 170880, Note Name: D#3, Velocity: 39
Note OFF: Time 171360, Note Name: D#3
Note OFF: Time 171360, Note Name: G3
Note ON: Time 171360, Note Name: D3, Velocity: 46
Note ON: Time 171360, Note Name: F3, Velocity: 56
Note OFF: Time 172320, Note Name: F3
Note OFF: Time 172320, Note Name: D3
Note ON: Time 172320, Note Name: D#3, Velocity: 49
Note ON: Time 172320, Note Name: C3, Velocity: 41
Note OFF: Time 172800, Note Name: C3
Note OFF: Time 172800, Note Name: D#3
Note ON: Time 172800, Note Name: D3, Velocity: 47
Note ON: Time 172800, Note Name: B2, Velocity: 56
Note OFF: Time 173280, Note Name: B2
Note OFF: Time 173280, Note Name: D3
Note ON: Time 175200, Note Name: G#3, Velocity: 34
Note ON: Time 175200, Note Name: F3, Velocity: 28
Note ON: Time 175200, Note Name: D3, Velocity: 28
Note ON: Time 175200, Note Name: B2, Velocity: 28
Note OFF: Time 175680, Note Name: B2
Note OFF: Time 175680, Note Name: G#3
Note OFF: Time 175680, Note Name: F3
Note OFF: Time 175680, Note Name: D3
Note ON: Time 175680, Note Name: G3, Velocity: 34
Note ON: Time 175680, Note Name: D#3, Velocity: 28
Note ON: Time 175680, Note Name: C3, Velocity: 28
Note OFF: Time 175800, Note Name: C3
Note OFF: Time 175800, Note Name: D#3
Note OFF: Time 175800, Note Name: G3
Note ON: Time 178080, Note Name: D3, Velocity: 34
Note ON: Time 178080, Note Name: G#2, Velocity: 28
Note ON: Time 178080, Note Name: F2, Velocity: 28
Note OFF: Time 178560, Note Name: F2
Note OFF: Time 178560, Note Name: G#2
Note OFF: Time 178560, Note Name: D3
Note ON: Time 178560, Note Name: C3, Velocity: 28
Note ON: Time 178560, Note Name: G2, Velocity: 28
Note ON: Time 178560, Note Name: D#3, Velocity: 34
Note OFF: Time 178680, Note Name: D#3
Note OFF: Time 178680, Note Name: G2
Note OFF: Time 178680, Note Name: C3
Note ON: Time 180960, Note Name: G2, Velocity: 73
Note ON: Time 180960, Note Name: G1, Velocity: 73
Note OFF: Time 181200, Note Name: G1
Note OFF: Time 181200, Note Name: G2
Note ON: Time 181440, Note Name: G2, Velocity: 67
Note ON: Time 181440, Note Name: C2, Velocity: 67
Note ON: Time 181440, Note Name: C3, Velocity: 80
Note ON: Time 181440, Note Name: D#2, Velocity: 67
Note OFF: Time 182160, Note Name: D#2
Note OFF: Time 182160, Note Name: G2
Note OFF: Time 182160, Note Name: C2
Note OFF: Time 182160, Note Name: C3
Note ON: Time 183840, Note Name: C3, Velocity: 58
Note ON: Time 183840, Note Name: G3, Velocity: 69
Note ON: Time 183840, Note Name: D#3, Velocity: 58
Note OFF: Time 183960, Note Name: D#3
Note OFF: Time 183960, Note Name: G3
Note OFF: Time 183960, Note Name: C3
Note ON: Time 184320, Note Name: B2, Velocity: 58
Note ON: Time 184320, Note Name: D3, Velocity: 58
Note ON: Time 184320, Note Name: G3, Velocity: 69
Note OFF: Time 184440, Note Name: G3
Note OFF: Time 184440, Note Name: D3
Note OFF: Time 184440, Note Name: B2
Note ON: Time 186720, Note Name: G3, Velocity: 69
Note ON: Time 186720, Note Name: B2, Velocity: 58
Note ON: Time 186720, Note Name: D3, Velocity: 58
Note OFF: Time 186840, Note Name: D3
Note OFF: Time 186840, Note Name: B2
Note OFF: Time 186840, Note Name: G3
Note ON: Time 187200, Note Name: G3, Velocity: 69
Note ON: Time 187200, Note Name: C3, Velocity: 58
Note ON: Time 187200, Note Name: D#3, Velocity: 58
Note OFF: Time 187320, Note Name: D#3
Note OFF: Time 187320, Note Name: C3
Note OFF: Time 187320, Note Name: G3
Note ON: Time 189600, Note Name: D#3, Velocity: 58
Note ON: Time 189600, Note Name: C4, Velocity: 69
Note ON: Time 189600, Note Name: G3, Velocity: 58
Note OFF: Time 189720, Note Name: G3
Note OFF: Time 189720, Note Name: C4
Note OFF: Time 189720, Note Name: D#3
Note ON: Time 190080, Note Name: G#3, Velocity: 58
Note ON: Time 190080, Note Name: D4, Velocity: 69
Note ON: Time 190080, Note Name: F3, Velocity: 58
Note OFF: Time 190200, Note Name: F3
Note OFF: Time 190200, Note Name: D4
Note OFF: Time 190200, Note Name: G#3
Note ON: Time 191520, Note Name: D4, Velocity: 69
Note ON: Time 191520, Note Name: B3, Velocity: 58
Note ON: Time 191520, Note Name: G3, Velocity: 58
Note OFF: Time 191640, Note Name: G3
Note OFF: Time 191640, Note Name: B3
Note OFF: Time 191640, Note Name: D4
Note ON: Time 192960, Note Name: G3, Velocity: 58
Note ON: Time 192960, Note Name: C3, Velocity: 58
Note ON: Time 192960, Note Name: C4, Velocity: 69
Note ON: Time 192960, Note Name: D#3, Velocity: 58
Note OFF: Time 193080, Note Name: D#3
Note OFF: Time 193080, Note Name: G3
Note OFF: Time 193080, Note Name: C3
Note OFF: Time 193080, Note Name: C4
Note ON: Time 195840, Note Name: D#4, Velocity: 69
Note ON: Time 197280, Note Name: C#4, Velocity: 50
Note OFF: Time 198720, Note Name: C#4
Note ON: Time 198720, Note Name: C4, Velocity: 49
Note OFF: Time 200160, Note Name: C4
Note OFF: Time 200160, Note Name: D#4
Note ON: Time 200160, Note Name: C#4, Velocity: 34
Note ON: Time 200160, Note Name: A#3, Velocity: 28
Note OFF: Time 201600, Note Name: A#3
Note OFF: Time 201600, Note Name: C#4
Note ON: Time 201600, Note Name: G#3, Velocity: 28
Note ON: Time 201600, Note Name: D#4, Velocity: 33
Note OFF: Time 203040, Note Name: D#4
Note OFF: Time 203040, Note Name: G#3
Note ON: Time 203040, Note Name: A#4, Velocity: 50
Note ON: Time 203040, Note Name: C5, Velocity: 60
Note OFF: Time 204480, Note Name: A#4
Note ON: Time 204480, Note Name: G#4, Velocity: 49
Note OFF: Time 205920, Note Name: G#4
Note OFF: Time 205920, Note Name: C5
Note ON: Time 205920, Note Name: G4, Velocity: 28
Note ON: Time 205920, Note Name: A#4, Velocity: 34
Note OFF: Time 207360, Note Name: A#4
Note OFF: Time 207360, Note Name: G4
Note ON: Time 207360, Note Name: F4, Velocity: 28
Note ON: Time 207360, Note Name: G#4, Velocity: 33
Note OFF: Time 208800, Note Name: G#4
Note OFF: Time 208800, Note Name: F4
Note ON: Time 208800, Note Name: F#4, Velocity: 50
Note ON: Time 208800, Note Name: G#4, Velocity: 60
Note OFF: Time 210240, Note Name: F#4
Note ON: Time 210240, Note Name: F4, Velocity: 49
Note OFF: Time 211680, Note Name: F4
Note OFF: Time 211680, Note Name: G#4
Note ON: Time 211680, Note Name: D#4, Velocity: 44
Note ON: Time 211680, Note Name: F#4, Velocity: 44
Note OFF: Time 213120, Note Name: F#4
Note OFF: Time 213120, Note Name: D#4
Note ON: Time 213120, Note Name: C#4, Velocity: 28
Note ON: Time 213120, Note Name: F4, Velocity: 33
Note OFF: Time 214560, Note Name: F4
Note OFF: Time 214560, Note Name: C#4
Note ON: Time 214560, Note Name: B3, Velocity: 42
Note ON: Time 214560, Note Name: D#4, Velocity: 48
Note OFF: Time 216000, Note Name: D#4
Note OFF: Time 216000, Note Name: B3
Note ON: Time 216000, Note Name: A#3, Velocity: 33
Note OFF: Time 217440, Note Name: A#3
Note ON: Time 217440, Note Name: A3, Velocity: 33
Note OFF: Time 218880, Note Name: A3
Note ON: Time 218880, Note Name: A#2, Velocity: 33
Note ON: Time 219360, Note Name: F3, Velocity: 33
Note OFF: Time 219840, Note Name: F3
Note ON: Time 219840, Note Name: G3, Velocity: 37
Note OFF: Time 220320, Note Name: G3
Note ON: Time 220320, Note Name: G#3, Velocity: 41
Note OFF: Time 220800, Note Name: G#3
Note ON: Time 220800, Note Name: E3, Velocity: 33
Note OFF: Time 221280, Note Name: E3
Note ON: Time 221280, Note Name: F3, Velocity: 35
Note OFF: Time 221760, Note Name: F3
Note OFF: Time 221760, Note Name: A#2
Note ON: Time 221760, Note Name: A#2, Velocity: 42
Note ON: Time 221760, Note Name: G3, Velocity: 42
Note OFF: Time 222240, Note Name: G3
Note ON: Time 222240, Note Name: D3, Velocity: 33
Note OFF: Time 222720, Note Name: D3
Note ON: Time 222720, Note Name: D#3, Velocity: 33
Note OFF: Time 223200, Note Name: D#3
Note ON: Time 223200, Note Name: F3, Velocity: 40
Note OFF: Time 223680, Note Name: F3
Note ON: Time 223680, Note Name: C3, Velocity: 33
Note OFF: Time 224160, Note Name: C3
Note ON: Time 224160, Note Name: D3, Velocity: 33
Note OFF: Time 224640, Note Name: D3
Note OFF: Time 224640, Note Name: A#2
Note ON: Time 224640, Note Name: A#2, Velocity: 39
Note ON: Time 224640, Note Name: D#3, Velocity: 39
Note OFF: Time 225120, Note Name: D#3
Note ON: Time 225120, Note Name: F3, Velocity: 33
Note OFF: Time 225600, Note Name: F3
Note ON: Time 225600, Note Name: G3, Velocity: 36
Note OFF: Time 226080, Note Name: G3
Note ON: Time 226080, Note Name: G#3, Velocity: 40
Note OFF: Time 226560, Note Name: G#3
Note ON: Time 226560, Note Name: E3, Velocity: 33
Note OFF: Time 227040, Note Name: E3
Note ON: Time 227040, Note Name: F3, Velocity: 33
Note OFF: Time 227520, Note Name: F3
Note OFF: Time 227520, Note Name: A#2
Note ON: Time 227520, Note Name: G3, Velocity: 42
Note ON: Time 227520, Note Name: A#2, Velocity: 42
Note OFF: Time 228000, Note Name: G3
Note ON: Time 228000, Note Name: D3, Velocity: 33
Note OFF: Time 228480, Note Name: D3
Note ON: Time 228480, Note Name: D#3, Velocity: 33
Note OFF: Time 228960, Note Name: D#3
Note ON: Time 228960, Note Name: F3, Velocity: 40
Note OFF: Time 229440, Note Name: F3
Note ON: Time 229440, Note Name: C3, Velocity: 33
Note OFF: Time 229920, Note Name: C3
Note ON: Time 229920, Note Name: D3, Velocity: 33
Note OFF: Time 230400, Note Name: D3
Note OFF: Time 230400, Note Name: A#2
Note ON: Time 230400, Note Name: D#3, Velocity: 40
Note OFF: Time 230640, Note Name: D#3
Note ON: Time 230640, Note Name: A#3, Velocity: 28
Note OFF: Time 230880, Note Name: A#3
Note ON: Time 230880, Note Name: G3, Velocity: 33
Note OFF: Time 231120, Note Name: G3
Note ON: Time 231120, Note Name: A#3, Velocity: 27
Note OFF: Time 231360, Note Name: A#3
Note ON: Time 231374, Note Name: F3, Velocity: 33
Note ON: Time 231600, Note Name: A#3, Velocity: 30
Note OFF: Time 231614, Note Name: F3
Note OFF: Time 231840, Note Name: A#3
Note ON: Time 231840, Note Name: D#3, Velocity: 38
Note OFF: Time 232080, Note Name: D#3
Note ON: Time 232080, Note Name: A#3, Velocity: 33
Note OFF: Time 232320, Note Name: A#3
Note ON: Time 232320, Note Name: F3, Velocity: 45
Note OFF: Time 232560, Note Name: F3
Note ON: Time 232560, Note Name: A#3, Velocity: 37
Note OFF: Time 232800, Note Name: A#3
Note ON: Time 232800, Note Name: G3, Velocity: 48
Note OFF: Time 233040, Note Name: G3
Note ON: Time 233040, Note Name: A#3, Velocity: 43
Note OFF: Time 233280, Note Name: A#3
Note ON: Time 233280, Note Name: F3, Velocity: 55
Note OFF: Time 233520, Note Name: F3
Note ON: Time 233520, Note Name: A#3, Velocity: 40
Note OFF: Time 233760, Note Name: A#3
Note ON: Time 233760, Note Name: G3, Velocity: 48
Note OFF: Time 234000, Note Name: G3
Note ON: Time 234000, Note Name: A#3, Velocity: 30
Note OFF: Time 234240, Note Name: A#3
Note ON: Time 234240, Note Name: G#3, Velocity: 40
Note OFF: Time 234480, Note Name: G#3
Note ON: Time 234480, Note Name: A#3, Velocity: 33
Note OFF: Time 234720, Note Name: A#3
Note ON: Time 234720, Note Name: F3, Velocity: 39
Note OFF: Time 234960, Note Name: F3
Note ON: Time 234960, Note Name: A#3, Velocity: 33
Note OFF: Time 235200, Note Name: A#3
Note ON: Time 235200, Note Name: G3, Velocity: 41
Note OFF: Time 235440, Note Name: G3
Note ON: Time 235440, Note Name: A#3, Velocity: 33
Note OFF: Time 235680, Note Name: A#3
Note ON: Time 235680, Note Name: G#3, Velocity: 41
Note OFF: Time 235920, Note Name: G#3
Note ON: Time 235920, Note Name: A#3, Velocity: 33
Note OFF: Time 236160, Note Name: A#3
Note ON: Time 236160, Note Name: D3, Velocity: 40
Note OFF: Time 236400, Note Name: D3
Note ON: Time 236400, Note Name: A#3, Velocity: 28
Note OFF: Time 236640, Note Name: A#3
Note ON: Time 236640, Note Name: F3, Velocity: 33
Note OFF: Time 236880, Note Name: F3
Note ON: Time 236880, Note Name: A#3, Velocity: 27
Note OFF: Time 237120, Note Name: A#3
Note ON: Time 237120, Note Name: D#3, Velocity: 38
Note OFF: Time 237360, Note Name: D#3
Note ON: Time 237360, Note Name: A#3, Velocity: 34
Note OFF: Time 237600, Note Name: A#3
Note ON: Time 237600, Note Name: D3, Velocity: 38
Note OFF: Time 237840, Note Name: D3
Note ON: Time 237840, Note Name: A#3, Velocity: 34
Note OFF: Time 238080, Note Name: A#3
Note ON: Time 238080, Note Name: D#3, Velocity: 46
Note OFF: Time 238320, Note Name: D#3
Note ON: Time 238320, Note Name: A#3, Velocity: 39
Note OFF: Time 238560, Note Name: A#3
Note ON: Time 238560, Note Name: F3, Velocity: 48
Note OFF: Time 238800, Note Name: F3
Note ON: Time 238800, Note Name: A#3, Velocity: 44
Note OFF: Time 239040, Note Name: A#3
Note ON: Time 239040, Note Name: D#3, Velocity: 55
Note OFF: Time 239280, Note Name: D#3
Note ON: Time 239280, Note Name: A#3, Velocity: 43
Note OFF: Time 239520, Note Name: A#3
Note ON: Time 239520, Note Name: F3, Velocity: 52
Note OFF: Time 239760, Note Name: F3
Note ON: Time 239760, Note Name: A#3, Velocity: 37
Note OFF: Time 240000, Note Name: A#3
Note ON: Time 240000, Note Name: G3, Velocity: 46
Note OFF: Time 240240, Note Name: G3
Note ON: Time 240240, Note Name: A#3, Velocity: 33
Note OFF: Time 240480, Note Name: A#3
Note ON: Time 240480, Note Name: D#3, Velocity: 44
Note OFF: Time 240720, Note Name: D#3
Note ON: Time 240720, Note Name: A#3, Velocity: 39
Note OFF: Time 240960, Note Name: A#3
Note ON: Time 240960, Note Name: F3, Velocity: 41
Note OFF: Time 241200, Note Name: F3
Note ON: Time 241200, Note Name: A#3, Velocity: 33
Note OFF: Time 241440, Note Name: A#3
Note ON: Time 241440, Note Name: G3, Velocity: 41
Note OFF: Time 241680, Note Name: G3
Note ON: Time 241680, Note Name: A#3, Velocity: 33
Note OFF: Time 241920, Note Name: A#3
Note ON: Time 241920, Note Name: D#3, Velocity: 40
Note OFF: Time 242160, Note Name: D#3
Note ON: Time 242160, Note Name: A#3, Velocity: 28
Note OFF: Time 242400, Note Name: A#3
Note ON: Time 242400, Note Name: G3, Velocity: 33
Note OFF: Time 242640, Note Name: G3
Note ON: Time 242640, Note Name: A#3, Velocity: 27
Note OFF: Time 242880, Note Name: A#3
Note ON: Time 242880, Note Name: D#3, Velocity: 40
Note OFF: Time 243120, Note Name: D#3
Note ON: Time 243120, Note Name: A#3, Velocity: 31
Note OFF: Time 243360, Note Name: A#3
Note ON: Time 243360, Note Name: D#3, Velocity: 43
Note OFF: Time 243600, Note Name: D#3
Note ON: Time 243600, Note Name: A#3, Velocity: 38
Note OFF: Time 243840, Note Name: A#3
Note ON: Time 243840, Note Name: G3, Velocity: 52
Note OFF: Time 244080, Note Name: G3
Note ON: Time 244080, Note Name: A#3, Velocity: 45
Note OFF: Time 244320, Note Name: A#3
Note ON: Time 244320, Note Name: D#3, Velocity: 54
Note OFF: Time 244560, Note Name: D#3
Note ON: Time 244560, Note Name: A#3, Velocity: 47
Note OFF: Time 244800, Note Name: A#3
Note ON: Time 244800, Note Name: F3, Velocity: 52
Note OFF: Time 245040, Note Name: F3
Note ON: Time 245040, Note Name: A#3, Velocity: 43
Note OFF: Time 245280, Note Name: A#3
Note ON: Time 245280, Note Name: G#3, Velocity: 51
Note OFF: Time 245520, Note Name: G#3
Note ON: Time 245520, Note Name: A#3, Velocity: 40
Note OFF: Time 245760, Note Name: A#3
Note ON: Time 245760, Note Name: F3, Velocity: 46
Note OFF: Time 246000, Note Name: F3
Note ON: Time 246000, Note Name: A#3, Velocity: 37
Note OFF: Time 246240, Note Name: A#3
Note ON: Time 246240, Note Name: F3, Velocity: 37
Note OFF: Time 246480, Note Name: F3
Note ON: Time 246480, Note Name: A#3, Velocity: 31
Note OFF: Time 246720, Note Name: A#3
Note ON: Time 246720, Note Name: G#3, Velocity: 39
Note OFF: Time 246960, Note Name: G#3
Note ON: Time 246960, Note Name: A#3, Velocity: 31
Note OFF: Time 247200, Note Name: A#3
Note ON: Time 247200, Note Name: F3, Velocity: 39
Note OFF: Time 247440, Note Name: F3
Note ON: Time 247440, Note Name: A#3, Velocity: 31
Note OFF: Time 247678, Note Name: A#3
Note ON: Time 247680, Note Name: D3, Velocity: 40
Note OFF: Time 247920, Note Name: D3
Note ON: Time 247920, Note Name: A#3, Velocity: 32
Note OFF: Time 248160, Note Name: A#3
Note ON: Time 248160, Note Name: F3, Velocity: 39
Note OFF: Time 248400, Note Name: F3
Note ON: Time 248400, Note Name: A#3, Velocity: 29
Note OFF: Time 248640, Note Name: A#3
Note ON: Time 248640, Note Name: D3, Velocity: 45
Note OFF: Time 248880, Note Name: D3
Note ON: Time 248880, Note Name: A#3, Velocity: 36
Note OFF: Time 249120, Note Name: A#3
Note ON: Time 249120, Note Name: D3, Velocity: 48
Note OFF: Time 249360, Note Name: D3
Note ON: Time 249360, Note Name: A#3, Velocity: 40
Note OFF: Time 249600, Note Name: A#3
Note ON: Time 249600, Note Name: F3, Velocity: 53
Note OFF: Time 249840, Note Name: F3
Note ON: Time 249840, Note Name: A#3, Velocity: 45
Note OFF: Time 250080, Note Name: A#3
Note ON: Time 250080, Note Name: D3, Velocity: 60
Note OFF: Time 250320, Note Name: D3
Note ON: Time 250320, Note Name: A#3, Velocity: 50
Note OFF: Time 250560, Note Name: A#3
Note ON: Time 250800, Note Name: D#3, Velocity: 43
Note OFF: Time 251040, Note Name: D#3
Note ON: Time 251040, Note Name: D3, Velocity: 61
Note OFF: Time 251280, Note Name: D3
Note ON: Time 251280, Note Name: D#3, Velocity: 48
Note OFF: Time 251520, Note Name: D#3
Note ON: Time 251520, Note Name: D3, Velocity: 60
Note OFF: Time 251760, Note Name: D3
Note ON: Time 251760, Note Name: D#3, Velocity: 50
Note OFF: Time 252000, Note Name: D#3
Note ON: Time 252000, Note Name: G2, Velocity: 67
Note OFF: Time 252240, Note Name: G2
Note ON: Time 252240, Note Name: D#3, Velocity: 45
Note OFF: Time 252480, Note Name: D#3
Note ON: Time 252480, Note Name: G#2, Velocity: 59
Note OFF: Time 252720, Note Name: G#2
Note ON: Time 252720, Note Name: D#3, Velocity: 51
Note OFF: Time 252960, Note Name: D#3
Note ON: Time 252960, Note Name: A#2, Velocity: 60
Note OFF: Time 253200, Note Name: A#2
Note ON: Time 253200, Note Name: D#3, Velocity: 44
Note OFF: Time 253440, Note Name: D#3
Note ON: Time 253440, Note Name: G#2, Velocity: 65
Note OFF: Time 253680, Note Name: G#2
Note ON: Time 253680, Note Name: D#3, Velocity: 49
Note OFF: Time 253920, Note Name: D#3
Note ON: Time 253920, Note Name: A#2, Velocity: 60
Note OFF: Time 254160, Note Name: A#2
Note ON: Time 254160, Note Name: D#3, Velocity: 47
Note OFF: Time 254400, Note Name: D#3
Note ON: Time 254400, Note Name: C3, Velocity: 59
Note OFF: Time 254640, Note Name: C3
Note ON: Time 254640, Note Name: D#3, Velocity: 48
Note OFF: Time 254880, Note Name: D#3
Note ON: Time 254880, Note Name: A2, Velocity: 67
Note OFF: Time 255120, Note Name: A2
Note ON: Time 255120, Note Name: D#3, Velocity: 49
Note OFF: Time 255360, Note Name: D#3
Note ON: Time 255360, Note Name: A#2, Velocity: 59
Note OFF: Time 255600, Note Name: A#2
Note ON: Time 255600, Note Name: D#3, Velocity: 47
Note OFF: Time 255840, Note Name: D#3
Note ON: Time 255840, Note Name: C3, Velocity: 57
Note OFF: Time 256080, Note Name: C3
Note ON: Time 256080, Note Name: D#3, Velocity: 44
Note OFF: Time 256320, Note Name: D#3
Note ON: Time 256320, Note Name: A#2, Velocity: 64
Note OFF: Time 256560, Note Name: A#2
Note ON: Time 256560, Note Name: G3, Velocity: 46
Note OFF: Time 256800, Note Name: G3
Note ON: Time 256800, Note Name: D#3, Velocity: 57
Note OFF: Time 257040, Note Name: D#3
Note ON: Time 257040, Note Name: G3, Velocity: 45
Note OFF: Time 257280, Note Name: G3
Note ON: Time 257280, Note Name: A#2, Velocity: 56
Note OFF: Time 257520, Note Name: A#2
Note ON: Time 257520, Note Name: G3, Velocity: 56
Note OFF: Time 257760, Note Name: G3
Note ON: Time 257760, Note Name: A#2, Velocity: 64
Note OFF: Time 258000, Note Name: A#2
Note ON: Time 258000, Note Name: F3, Velocity: 46
Note OFF: Time 258240, Note Name: F3
Note ON: Time 258240, Note Name: D3, Velocity: 56
Note OFF: Time 258480, Note Name: D3
Note ON: Time 258480, Note Name: F3, Velocity: 45
Note OFF: Time 258720, Note Name: F3
Note ON: Time 258720, Note Name: A#2, Velocity: 58
Note OFF: Time 258960, Note Name: A#2
Note ON: Time 258960, Note Name: F3, Velocity: 53
Note OFF: Time 259200, Note Name: F3
Note ON: Time 259200, Note Name: D#2, Velocity: 64
Note ON: Time 259200, Note Name: D#3, Velocity: 64
Note OFF: Time 259680, Note Name: D#3
Note OFF: Time 259680, Note Name: D#2
Note ON: Time 262080, Note Name: G2, Velocity: 67
Note OFF: Time 262320, Note Name: G2
Note ON: Time 262320, Note Name: D#3, Velocity: 45
Note OFF: Time 262560, Note Name: D#3
Note ON: Time 262560, Note Name: G#2, Velocity: 50
Note OFF: Time 262800, Note Name: G#2
Note ON: Time 262800, Note Name: D#3, Velocity: 47
Note OFF: Time 263040, Note Name: D#3
Note ON: Time 263040, Note Name: A#2, Velocity: 54
Note OFF: Time 263280, Note Name: A#2
Note ON: Time 263280, Note Name: D#3, Velocity: 44
Note OFF: Time 263520, Note Name: D#3
Note ON: Time 263520, Note Name: G2, Velocity: 67
Note OFF: Time 263760, Note Name: G2
Note ON: Time 263760, Note Name: D#3, Velocity: 45
Note OFF: Time 264000, Note Name: D#3
Note ON: Time 264000, Note Name: G#2, Velocity: 50
Note OFF: Time 264240, Note Name: G#2
Note ON: Time 264240, Note Name: D#3, Velocity: 47
Note OFF: Time 264480, Note Name: D#3
Note ON: Time 264480, Note Name: A#2, Velocity: 54
Note OFF: Time 264720, Note Name: A#2
Note ON: Time 264720, Note Name: D#3, Velocity: 44
Note OFF: Time 264960, Note Name: D#3
Note ON: Time 264960, Note Name: G#2, Velocity: 65
Note OFF: Time 265200, Note Name: G#2
Note ON: Time 265200, Note Name: D#3, Velocity: 45
Note OFF: Time 265440, Note Name: D#3
Note ON: Time 265440, Note Name: A#2, Velocity: 59
Note OFF: Time 265680, Note Name: A#2
Note ON: Time 265680, Note Name: D#3, Velocity: 42
Note OFF: Time 265920, Note Name: D#3
Note ON: Time 265920, Note Name: C3, Velocity: 58
Note OFF: Time 266160, Note Name: C3
Note ON: Time 266160, Note Name: D#3, Velocity: 45
Note OFF: Time 266400, Note Name: D#3
Note ON: Time 266400, Note Name: A2, Velocity: 67
Note OFF: Time 266640, Note Name: A2
Note ON: Time 266640, Note Name: D#3, Velocity: 45
Note OFF: Time 266880, Note Name: D#3
Note ON: Time 266880, Note Name: A#2, Velocity: 60
Note OFF: Time 267120, Note Name: A#2
Note ON: Time 267120, Note Name: D#3, Velocity: 47
Note OFF: Time 267360, Note Name: D#3
Note ON: Time 267360, Note Name: C3, Velocity: 58
Note OFF: Time 267600, Note Name: C3
Note ON: Time 267600, Note Name: D#3, Velocity: 44
Note OFF: Time 267840, Note Name: D#3
Note ON: Time 267840, Note Name: A#2, Velocity: 67
Note OFF: Time 268080, Note Name: A#2
Note ON: Time 268080, Note Name: D#3, Velocity: 53
Note OFF: Time 268320, Note Name: D#3
Note ON: Time 268320, Note Name: D3, Velocity: 61
Note OFF: Time 268560, Note Name: D3
Note ON: Time 268560, Note Name: D#3, Velocity: 48
Note OFF: Time 268800, Note Name: D#3
Note ON: Time 268800, Note Name: B2, Velocity: 61
Note OFF: Time 269040, Note Name: B2
Note ON: Time 269040, Note Name: D#3, Velocity: 49
Note OFF: Time 269280, Note Name: D#3
Note ON: Time 269280, Note Name: C3, Velocity: 71
Note OFF: Time 269520, Note Name: C3
Note ON: Time 269520, Note Name: D#3, Velocity: 52
Note OFF: Time 269760, Note Name: D#3
Note ON: Time 269760, Note Name: D3, Velocity: 63
Note OFF: Time 270000, Note Name: D3
Note ON: Time 270000, Note Name: D#3, Velocity: 55
Note OFF: Time 270240, Note Name: D#3
Note ON: Time 270240, Note Name: A2, Velocity: 66
Note OFF: Time 270480, Note Name: A2
Note ON: Time 270480, Note Name: D#3, Velocity: 49
Note OFF: Time 270720, Note Name: D#3
Note ON: Time 270720, Note Name: A#2, Velocity: 77
Note OFF: Time 270960, Note Name: A#2
Note ON: Time 270960, Note Name: D#3, Velocity: 56
Note OFF: Time 271200, Note Name: D#3
Note ON: Time 271200, Note Name: C#3, Velocity: 66
Note OFF: Time 271440, Note Name: C#3
Note ON: Time 271440, Note Name: D#3, Velocity: 54
Note OFF: Time 271680, Note Name: D#3
Note ON: Time 271680, Note Name: B2, Velocity: 67
Note OFF: Time 271920, Note Name: B2
Note ON: Time 271920, Note Name: D#3, Velocity: 56
Note OFF: Time 272160, Note Name: D#3
Note ON: Time 272160, Note Name: C3, Velocity: 77
Note OFF: Time 272400, Note Name: C3
Note ON: Time 272400, Note Name: D#3, Velocity: 58
Note OFF: Time 272640, Note Name: D#3
Note ON: Time 272640, Note Name: D3, Velocity: 63
Note OFF: Time 272880, Note Name: D3
Note ON: Time 272880, Note Name: D#3, Velocity: 58
Note OFF: Time 273120, Note Name: D#3
Note ON: Time 273120, Note Name: A2, Velocity: 71
Note OFF: Time 273360, Note Name: A2
Note ON: Time 273360, Note Name: D#3, Velocity: 65
Note OFF: Time 273600, Note Name: D#3
Note ON: Time 273600, Note Name: A#2, Velocity: 82
Note OFF: Time 274080, Note Name: A#2
Note ON: Time 274080, Note Name: A#2, Velocity: 77
Note ON: Time 274080, Note Name: D#3, Velocity: 77
Note ON: Time 274080, Note Name: G3, Velocity: 87
Note OFF: Time 274200, Note Name: G3
Note OFF: Time 274200, Note Name: D#3
Note OFF: Time 274200, Note Name: A#2
Note ON: Time 275520, Note Name: D#3, Velocity: 77
Note ON: Time 275520, Note Name: C3, Velocity: 77
Note ON: Time 275520, Note Name: F#3, Velocity: 87
Note OFF: Time 275640, Note Name: F#3
Note OFF: Time 275640, Note Name: C3
Note OFF: Time 275640, Note Name: D#3
Note ON: Time 276960, Note Name: G3, Velocity: 87
Note ON: Time 276960, Note Name: A#2, Velocity: 77
Note ON: Time 276960, Note Name: D#3, Velocity: 77
Note OFF: Time 277080, Note Name: D#3
Note OFF: Time 277080, Note Name: A#2
Note OFF: Time 277080, Note Name: G3
Note ON: Time 278400, Note Name: A3, Velocity: 87
Note ON: Time 278400, Note Name: D#3, Velocity: 77
Note ON: Time 278400, Note Name: F#3, Velocity: 77
Note ON: Time 278400, Note Name: A2, Velocity: 77
Note OFF: Time 278520, Note Name: A2
Note OFF: Time 278520, Note Name: A3
Note OFF: Time 278520, Note Name: D#3
Note OFF: Time 278520, Note Name: F#3
Note ON: Time 279840, Note Name: A#2, Velocity: 77
Note ON: Time 279840, Note Name: A#3, Velocity: 87
Note ON: Time 279840, Note Name: G3, Velocity: 77
Note ON: Time 279840, Note Name: D#3, Velocity: 77
Note OFF: Time 279960, Note Name: D#3
Note OFF: Time 279960, Note Name: A#2
Note OFF: Time 279960, Note Name: A#3
Note OFF: Time 279960, Note Name: G3
Note ON: Time 282240, Note Name: A#3, Velocity: 81
Note OFF: Time 282480, Note Name: A#3
Note ON: Time 282480, Note Name: G3, Velocity: 77
Note OFF: Time 282660, Note Name: G3
Note ON: Time 282720, Note Name: G3, Velocity: 82
Note OFF: Time 282960, Note Name: G3
Note ON: Time 282960, Note Name: D#3, Velocity: 77
Note OFF: Time 283140, Note Name: D#3
Note ON: Time 283200, Note Name: D#3, Velocity: 83
Note OFF: Time 283440, Note Name: D#3
Note ON: Time 283440, Note Name: A#2, Velocity: 77
Note OFF: Time 283620, Note Name: A#2
Note ON: Time 283680, Note Name: A#2, Velocity: 92
Note ON: Time 283680, Note Name: A#1, Velocity: 78
Note ON: Time 284640, Note Name: G#3, Velocity: 70
Note ON: Time 284640, Note Name: F3, Velocity: 59
Note OFF: Time 285120, Note Name: F3
Note OFF: Time 285120, Note Name: A#2
Note OFF: Time 285120, Note Name: A#1
Note OFF: Time 285120, Note Name: G#3
Note ON: Time 285120, Note Name: G3, Velocity: 79
Note ON: Time 285120, Note Name: D#2, Velocity: 67
Note OFF: Time 285600, Note Name: D#2
Note OFF: Time 285600, Note Name: G3
Note ON: Time 285600, Note Name: A#2, Velocity: 51
Note ON: Time 286080, Note Name: A2, Velocity: 51
Note OFF: Time 286560, Note Name: A2
Note ON: Time 286560, Note Name: G#2, Velocity: 51
Note OFF: Time 287040, Note Name: G#2
Note ON: Time 287040, Note Name: G2, Velocity: 49
Note OFF: Time 287520, Note Name: G2
Note ON: Time 287520, Note Name: F2, Velocity: 49
Note OFF: Time 288000, Note Name: F2
Note OFF: Time 288000, Note Name: A#2
Note ON: Time 288000, Note Name: D#2, Velocity: 51
Note OFF: Time 288480, Note Name: D#2
Note ON: Time 288480, Note Name: G2, Velocity: 47
Note OFF: Time 288960, Note Name: G2
Note ON: Time 288960, Note Name: A#2, Velocity: 47
Note OFF: Time 289440, Note Name: A#2
Note ON: Time 289440, Note Name: A#1, Velocity: 51
Note OFF: Time 289920, Note Name: A#1
Note ON: Time 289920, Note Name: F2, Velocity: 48
Note OFF: Time 290400, Note Name: F2
Note ON: Time 290400, Note Name: A#2, Velocity: 48
Note OFF: Time 290880, Note Name: A#2
Note ON: Time 290880, Note Name: D#2, Velocity: 67
Note OFF: Time 291360, Note Name: D#2
Note ON: Time 291360, Note Name: A#2, Velocity: 51
Note ON: Time 291840, Note Name: A2, Velocity: 51
Note OFF: Time 292320, Note Name: A2
Note ON: Time 292320, Note Name: G#2, Velocity: 51
Note OFF: Time 292800, Note Name: G#2
Note ON: Time 292800, Note Name: G2, Velocity: 49
Note OFF: Time 293280, Note Name: G2
Note ON: Time 293280, Note Name: F2, Velocity: 49
Note OFF: Time 293760, Note Name: F2
Note OFF: Time 293760, Note Name: A#2
Note ON: Time 293760, Note Name: D#2, Velocity: 51
Note OFF: Time 294240, Note Name: D#2
Note ON: Time 294240, Note Name: G2, Velocity: 47
Note OFF: Time 294720, Note Name: G2
Note ON: Time 294720, Note Name: A#2, Velocity: 47
Note OFF: Time 295200, Note Name: A#2
Note ON: Time 295200, Note Name: A#1, Velocity: 51
Note OFF: Time 295680, Note Name: A#1
Note ON: Time 295680, Note Name: F2, Velocity: 48
Note OFF: Time 296160, Note Name: F2
Note ON: Time 296160, Note Name: A#2, Velocity: 48
Note OFF: Time 296640, Note Name: A#2
Note ON: Time 296640, Note Name: D#2, Velocity: 51
Note OFF: Time 297120, Note Name: D#2
Note ON: Time 297120, Note Name: G2, Velocity: 47
Note OFF: Time 297600, Note Name: G2
Note ON: Time 297600, Note Name: A#2, Velocity: 47
Note OFF: Time 298080, Note Name: A#2
Note ON: Time 298080, Note Name: A#1, Velocity: 51
Note OFF: Time 298560, Note Name: A#1
Note ON: Time 298560, Note Name: F2, Velocity: 48
Note OFF: Time 299040, Note Name: F2
Note ON: Time 299040, Note Name: A#2, Velocity: 48
Note OFF: Time 299520, Note Name: A#2
Note ON: Time 299520, Note Name: D#2, Velocity: 51
Note OFF: Time 300000, Note Name: D#2
Note ON: Time 300000, Note Name: G2, Velocity: 47
Note OFF: Time 300480, Note Name: G2
Note ON: Time 300480, Note Name: A#2, Velocity: 47
Note OFF: Time 300960, Note Name: A#2
Note ON: Time 300960, Note Name: D#3, Velocity: 40
Note ON: Time 300960, Note Name: G3, Velocity: 44
Note OFF: Time 301440, Note Name: G3
Note OFF: Time 301440, Note Name: D#3
Note ON: Time 302400, Note Name: C4, Velocity: 70
Note ON: Time 302400, Note Name: G3, Velocity: 59
Note ON: Time 302400, Note Name: E3, Velocity: 59
Note ON: Time 302400, Note Name: C3, Velocity: 59
Note OFF: Time 303120, Note Name: C3
Note OFF: Time 303120, Note Name: C4
Note OFF: Time 303120, Note Name: G3
Note OFF: Time 303120, Note Name: E3
Note ON: Time 306240, Note Name: E4, Velocity: 34
Note ON: Time 306240, Note Name: G4, Velocity: 41
Note OFF: Time 306480, Note Name: G4
Note OFF: Time 306480, Note Name: E4
Note ON: Time 306720, Note Name: G4, Velocity: 41
Note ON: Time 306720, Note Name: E4, Velocity: 34
Note OFF: Time 307680, Note Name: E4
Note OFF: Time 307680, Note Name: G4
Note ON: Time 307680, Note Name: F4, Velocity: 32
Note ON: Time 307680, Note Name: G#4, Velocity: 38
Note OFF: Time 308150, Note Name: G#4
Note OFF: Time 308150, Note Name: F4
Note ON: Time 308160, Note Name: F4, Velocity: 34
Note ON: Time 308160, Note Name: G#4, Velocity: 41
Note OFF: Time 308880, Note Name: G#4
Note OFF: Time 308880, Note Name: F4
Note ON: Time 312000, Note Name: F4, Velocity: 34
Note ON: Time 312000, Note Name: G#4, Velocity: 41
Note OFF: Time 312240, Note Name: G#4
Note OFF: Time 312240, Note Name: F4
Note ON: Time 312480, Note Name: G#4, Velocity: 41
Note ON: Time 312480, Note Name: F4, Velocity: 34
Note OFF: Time 313440, Note Name: F4
Note OFF: Time 313440, Note Name: G#4
Note ON: Time 313440, Note Name: G4, Velocity: 32
Note ON: Time 313440, Note Name: A#4, Velocity: 38
Note OFF: Time 313910, Note Name: A#4
Note OFF: Time 313910, Note Name: G4
Note ON: Time 313920, Note Name: G4, Velocity: 34
Note ON: Time 313920, Note Name: A#4, Velocity: 41
Note OFF: Time 314640, Note Name: A#4
Note OFF: Time 314640, Note Name: G4
Note ON: Time 319680, Note Name: F3, Velocity: 40
Note OFF: Time 319920, Note Name: F3
Note ON: Time 319920, Note Name: C4, Velocity: 32
Note OFF: Time 320160, Note Name: C4
Note ON: Time 320160, Note Name: G#3, Velocity: 34
Note OFF: Time 320400, Note Name: G#3
Note ON: Time 320400, Note Name: C4, Velocity: 32
Note OFF: Time 320640, Note Name: C4
Note ON: Time 320640, Note Name: F3, Velocity: 34
Note OFF: Time 320880, Note Name: F3
Note ON: Time 320880, Note Name: C4, Velocity: 32
Note OFF: Time 321120, Note Name: C4
Note ON: Time 321120, Note Name: F3, Velocity: 40
Note OFF: Time 321360, Note Name: F3
Note ON: Time 321360, Note Name: C4, Velocity: 33
Note OFF: Time 321600, Note Name: C4
Note ON: Time 321600, Note Name: G#3, Velocity: 34
Note OFF: Time 321840, Note Name: G#3
Note ON: Time 321840, Note Name: C4, Velocity: 32
Note OFF: Time 322080, Note Name: C4
Note ON: Time 322080, Note Name: F3, Velocity: 35
Note OFF: Time 322320, Note Name: F3
Note ON: Time 322320, Note Name: C4, Velocity: 32
Note OFF: Time 322560, Note Name: C4
Note ON: Time 322560, Note Name: G3, Velocity: 40
Note OFF: Time 322800, Note Name: G3
Note ON: Time 322800, Note Name: C4, Velocity: 32
Note OFF: Time 323040, Note Name: C4
Note ON: Time 323040, Note Name: A#3, Velocity: 34
Note OFF: Time 323280, Note Name: A#3
Note ON: Time 323280, Note Name: C4, Velocity: 32
Note OFF: Time 323520, Note Name: C4
Note ON: Time 323520, Note Name: G3, Velocity: 37
Note OFF: Time 323760, Note Name: G3
Note ON: Time 323760, Note Name: C4, Velocity: 32
Note OFF: Time 324000, Note Name: C4
Note ON: Time 324000, Note Name: E3, Velocity: 32
Note OFF: Time 324240, Note Name: E3
Note ON: Time 324240, Note Name: C4, Velocity: 32
Note OFF: Time 324480, Note Name: C4
Note ON: Time 324480, Note Name: G3, Velocity: 35
Note OFF: Time 324720, Note Name: G3
Note ON: Time 324720, Note Name: C4, Velocity: 32
Note OFF: Time 324960, Note Name: C4
Note ON: Time 324960, Note Name: E3, Velocity: 37
Note OFF: Time 325200, Note Name: E3
Note ON: Time 325200, Note Name: C4, Velocity: 32
Note OFF: Time 325440, Note Name: C4
Note ON: Time 325440, Note Name: C3, Velocity: 40
Note OFF: Time 325680, Note Name: C3
Note ON: Time 325680, Note Name: C4, Velocity: 31
Note OFF: Time 325920, Note Name: C4
Note ON: Time 325920, Note Name: E3, Velocity: 36
Note OFF: Time 326160, Note Name: E3
Note ON: Time 326160, Note Name: C4, Velocity: 32
Note OFF: Time 326400, Note Name: C4
Note ON: Time 326400, Note Name: G3, Velocity: 38
Note OFF: Time 326640, Note Name: G3
Note ON: Time 326640, Note Name: C4, Velocity: 33
Note OFF: Time 326880, Note Name: C4
Note ON: Time 326880, Note Name: E3, Velocity: 45
Note OFF: Time 327120, Note Name: E3
Note ON: Time 327120, Note Name: C4, Velocity: 35
Note OFF: Time 327360, Note Name: C4
Note ON: Time 327360, Note Name: G3, Velocity: 38
Note OFF: Time 327600, Note Name: G3
Note ON: Time 327600, Note Name: C4, Velocity: 31
Note OFF: Time 327840, Note Name: C4
Note ON: Time 327840, Note Name: A#3, Velocity: 37
Note OFF: Time 328080, Note Name: A#3
Note ON: Time 328080, Note Name: C4, Velocity: 31
Note OFF: Time 328320, Note Name: C4
Note ON: Time 328320, Note Name: F3, Velocity: 45
Note OFF: Time 328560, Note Name: F3
Note ON: Time 328560, Note Name: C4, Velocity: 31
Note OFF: Time 328800, Note Name: C4
Note ON: Time 328800, Note Name: G#3, Velocity: 36
Note OFF: Time 329040, Note Name: G#3
Note ON: Time 329040, Note Name: C4, Velocity: 31
Note OFF: Time 329280, Note Name: C4
Note ON: Time 329280, Note Name: F3, Velocity: 36
Note OFF: Time 329520, Note Name: F3
Note ON: Time 329520, Note Name: C4, Velocity: 31
Note OFF: Time 329760, Note Name: C4
Note ON: Time 329760, Note Name: F3, Velocity: 40
Note OFF: Time 330000, Note Name: F3
Note ON: Time 330000, Note Name: C4, Velocity: 30
Note OFF: Time 330240, Note Name: C4
Note ON: Time 330240, Note Name: E3, Velocity: 42
Note OFF: Time 330480, Note Name: E3
Note ON: Time 330480, Note Name: F3, Velocity: 40
Note OFF: Time 330720, Note Name: F3
Note ON: Time 330720, Note Name: D#3, Velocity: 49
Note OFF: Time 330960, Note Name: D#3
Note ON: Time 330960, Note Name: F3, Velocity: 43
Note OFF: Time 331200, Note Name: F3
Note ON: Time 331200, Note Name: C#3, Velocity: 52
Note OFF: Time 331440, Note Name: C#3
Note ON: Time 331440, Note Name: F3, Velocity: 38
Note OFF: Time 331680, Note Name: F3
Note ON: Time 331680, Note Name: C3, Velocity: 43
Note OFF: Time 331920, Note Name: C3
Note ON: Time 331920, Note Name: F3, Velocity: 32
Note OFF: Time 332160, Note Name: F3
Note ON: Time 332160, Note Name: C#3, Velocity: 38
Note OFF: Time 332400, Note Name: C#3
Note ON: Time 332400, Note Name: F3, Velocity: 32
Note OFF: Time 332640, Note Name: F3
Note ON: Time 332640, Note Name: A#2, Velocity: 45
Note OFF: Time 332880, Note Name: A#2
Note ON: Time 332880, Note Name: F3, Velocity: 33
Note OFF: Time 333120, Note Name: F3
Note ON: Time 333120, Note Name: C3, Velocity: 34
Note OFF: Time 333360, Note Name: C3
Note ON: Time 333360, Note Name: F3, Velocity: 32
Note OFF: Time 333600, Note Name: F3
Note ON: Time 333600, Note Name: C#3, Velocity: 35
Note OFF: Time 333840, Note Name: C#3
Note ON: Time 333840, Note Name: F3, Velocity: 32
Note OFF: Time 334080, Note Name: F3
Note ON: Time 334080, Note Name: C3, Velocity: 46
Note OFF: Time 334320, Note Name: C3
Note ON: Time 334320, Note Name: F3, Velocity: 32
Note OFF: Time 334560, Note Name: F3
Note ON: Time 334560, Note Name: D#3, Velocity: 34
Note OFF: Time 334800, Note Name: D#3
Note ON: Time 334800, Note Name: F3, Velocity: 32
Note OFF: Time 335040, Note Name: F3
Note ON: Time 335040, Note Name: C3, Velocity: 37
Note OFF: Time 335280, Note Name: C3
Note ON: Time 335280, Note Name: F3, Velocity: 32
Note OFF: Time 335520, Note Name: F3
Note ON: Time 335520, Note Name: A2, Velocity: 40
Note OFF: Time 335760, Note Name: A2
Note ON: Time 335760, Note Name: F3, Velocity: 32
Note OFF: Time 336000, Note Name: F3
Note ON: Time 336000, Note Name: C3, Velocity: 35
Note OFF: Time 336240, Note Name: C3
Note ON: Time 336240, Note Name: F3, Velocity: 32
Note OFF: Time 336480, Note Name: F3
Note ON: Time 336480, Note Name: A2, Velocity: 37
Note OFF: Time 336720, Note Name: A2
Note ON: Time 336720, Note Name: F3, Velocity: 32
Note OFF: Time 336960, Note Name: F3
Note ON: Time 336960, Note Name: F2, Velocity: 40
Note OFF: Time 337200, Note Name: F2
Note ON: Time 337200, Note Name: F3, Velocity: 31
Note OFF: Time 337440, Note Name: F3
Note ON: Time 337440, Note Name: A2, Velocity: 45
Note OFF: Time 337680, Note Name: A2
Note ON: Time 337680, Note Name: F3, Velocity: 37
Note OFF: Time 337920, Note Name: F3
Note ON: Time 337920, Note Name: C3, Velocity: 46
Note OFF: Time 338160, Note Name: C3
Note ON: Time 338160, Note Name: F3, Velocity: 39
Note OFF: Time 338400, Note Name: F3
Note ON: Time 338400, Note Name: A2, Velocity: 51
Note OFF: Time 338640, Note Name: A2
Note ON: Time 338640, Note Name: F3, Velocity: 44
Note OFF: Time 338880, Note Name: F3
Note ON: Time 338880, Note Name: C3, Velocity: 38
Note OFF: Time 339120, Note Name: C3
Note ON: Time 339120, Note Name: F3, Velocity: 31
Note OFF: Time 339360, Note Name: F3
Note ON: Time 339360, Note Name: D#3, Velocity: 37
Note OFF: Time 339600, Note Name: D#3
Note ON: Time 339600, Note Name: F3, Velocity: 31
Note OFF: Time 339840, Note Name: F3
Note ON: Time 339840, Note Name: A#2, Velocity: 45
Note OFF: Time 340080, Note Name: A#2
Note ON: Time 340080, Note Name: F3, Velocity: 31
Note OFF: Time 340320, Note Name: F3
Note ON: Time 340320, Note Name: C#3, Velocity: 36
Note OFF: Time 340560, Note Name: C#3
Note ON: Time 340560, Note Name: F3, Velocity: 31
Note OFF: Time 340800, Note Name: F3
Note ON: Time 340800, Note Name: A#2, Velocity: 36
Note OFF: Time 341040, Note Name: A#2
Note ON: Time 341040, Note Name: F3, Velocity: 31
Note OFF: Time 341280, Note Name: F3
Note ON: Time 341280, Note Name: A#2, Velocity: 40
Note OFF: Time 341520, Note Name: A#2
Note ON: Time 341520, Note Name: F3, Velocity: 30
Note OFF: Time 341760, Note Name: F3
Note ON: Time 341760, Note Name: C#3, Velocity: 33
Note OFF: Time 342000, Note Name: C#3
Note ON: Time 342000, Note Name: F3, Velocity: 30
Note OFF: Time 342240, Note Name: F3
Note ON: Time 342240, Note Name: A#2, Velocity: 33
Note OFF: Time 342480, Note Name: A#2
Note ON: Time 342480, Note Name: F3, Velocity: 30
Note OFF: Time 342720, Note Name: F3
Note ON: Time 342720, Note Name: G#2, Velocity: 40
Note OFF: Time 342960, Note Name: G#2
Note ON: Time 342960, Note Name: F#3, Velocity: 32
Note OFF: Time 343200, Note Name: F#3
Note ON: Time 343200, Note Name: D#3, Velocity: 48
Note OFF: Time 343440, Note Name: D#3
Note ON: Time 343440, Note Name: F#3, Velocity: 40
Note OFF: Time 343680, Note Name: F#3
Note ON: Time 343680, Note Name: G#2, Velocity: 51
Note OFF: Time 343920, Note Name: G#2
Note ON: Time 343920, Note Name: F#3, Velocity: 46
Note OFF: Time 344160, Note Name: F#3
Note ON: Time 344160, Note Name: G#2, Velocity: 52
Note OFF: Time 344400, Note Name: G#2
Note ON: Time 344400, Note Name: F#3, Velocity: 40
Note OFF: Time 344640, Note Name: F#3
Note ON: Time 344640, Note Name: C3, Velocity: 40
Note OFF: Time 344880, Note Name: C3
Note ON: Time 344880, Note Name: F#3, Velocity: 35
Note OFF: Time 345120, Note Name: F#3
Note ON: Time 345120, Note Name: G#2, Velocity: 40
Note OFF: Time 345360, Note Name: G#2
Note ON: Time 345360, Note Name: F#3, Velocity: 34
Note OFF: Time 345600, Note Name: F#3
Note ON: Time 345600, Note Name: C#3, Velocity: 40
Note ON: Time 345600, Note Name: F3, Velocity: 40
Note OFF: Time 346080, Note Name: F3
Note OFF: Time 346080, Note Name: C#3
Note ON: Time 347040, Note Name: G#4, Velocity: 45
Note OFF: Time 347520, Note Name: G#4
Note ON: Time 347520, Note Name: F#4, Velocity: 38
Note OFF: Time 348000, Note Name: F#4
Note ON: Time 348000, Note Name: D#4, Velocity: 38
Note OFF: Time 348480, Note Name: D#4
Note ON: Time 348480, Note Name: F4, Velocity: 45
Note OFF: Time 348960, Note Name: F4
Note ON: Time 348960, Note Name: E4, Velocity: 38
Note OFF: Time 349440, Note Name: E4
Note ON: Time 349440, Note Name: F#4, Velocity: 38
Note OFF: Time 349920, Note Name: F#4
Note ON: Time 349920, Note Name: F4, Velocity: 45
Note OFF: Time 350400, Note Name: F4
Note ON: Time 350400, Note Name: D#4, Velocity: 38
Note OFF: Time 350880, Note Name: D#4
Note ON: Time 350880, Note Name: C4, Velocity: 38
Note OFF: Time 351360, Note Name: C4
Note ON: Time 351360, Note Name: C#4, Velocity: 45
Note OFF: Time 351840, Note Name: C#4
Note ON: Time 351840, Note Name: C4, Velocity: 38
Note OFF: Time 352320, Note Name: C4
Note ON: Time 352320, Note Name: D#4, Velocity: 38
Note OFF: Time 352800, Note Name: D#4
Note ON: Time 352800, Note Name: C#4, Velocity: 45
Note OFF: Time 353280, Note Name: C#4
Note ON: Time 353280, Note Name: C4, Velocity: 38
Note OFF: Time 353760, Note Name: C4
Note ON: Time 353760, Note Name: A3, Velocity: 38
Note OFF: Time 354240, Note Name: A3
Note ON: Time 354240, Note Name: A#3, Velocity: 45
Note OFF: Time 354720, Note Name: A#3
Note ON: Time 354720, Note Name: C#4, Velocity: 37
Note OFF: Time 355200, Note Name: C#4
Note ON: Time 355200, Note Name: G#3, Velocity: 37
Note OFF: Time 355680, Note Name: G#3
Note ON: Time 355680, Note Name: G3, Velocity: 45
Note OFF: Time 356160, Note Name: G3
Note ON: Time 356160, Note Name: A#3, Velocity: 43
Note OFF: Time 356640, Note Name: A#3
Note ON: Time 356640, Note Name: F3, Velocity: 48
Note OFF: Time 357120, Note Name: F3
Note ON: Time 357120, Note Name: E3, Velocity: 53
Note OFF: Time 357600, Note Name: E3
Note ON: Time 357600, Note Name: G3, Velocity: 44
Note OFF: Time 358080, Note Name: G3
Note ON: Time 358080, Note Name: D3, Velocity: 44
Note OFF: Time 358560, Note Name: D3
Note ON: Time 358560, Note Name: C3, Velocity: 52
Note OFF: Time 359040, Note Name: C3
Note ON: Time 359040, Note Name: D3, Velocity: 44
Note OFF: Time 359520, Note Name: D3
Note ON: Time 359520, Note Name: E3, Velocity: 44
Note OFF: Time 360000, Note Name: E3
Note ON: Time 360000, Note Name: F3, Velocity: 53
Note OFF: Time 360480, Note Name: F3
Note ON: Time 360480, Note Name: G#3, Velocity: 45
Note OFF: Time 360960, Note Name: G#3
Note ON: Time 360960, Note Name: D#3, Velocity: 45
Note OFF: Time 361440, Note Name: D#3
Note ON: Time 361440, Note Name: D3, Velocity: 45
Note OFF: Time 361920, Note Name: D3
Note ON: Time 361920, Note Name: F3, Velocity: 43
Note OFF: Time 362400, Note Name: F3
Note ON: Time 362400, Note Name: C3, Velocity: 48
Note OFF: Time 362880, Note Name: C3
Note ON: Time 362880, Note Name: B2, Velocity: 56
Note OFF: Time 363360, Note Name: B2
Note ON: Time 363360, Note Name: D3, Velocity: 46
Note OFF: Time 363840, Note Name: D3
Note ON: Time 363840, Note Name: A2, Velocity: 46
Note OFF: Time 364320, Note Name: A2
Note ON: Time 364320, Note Name: G2, Velocity: 55
Note OFF: Time 364800, Note Name: G2
Note ON: Time 364800, Note Name: A2, Velocity: 48
Note OFF: Time 365280, Note Name: A2
Note ON: Time 365280, Note Name: B2, Velocity: 48
Note OFF: Time 365760, Note Name: B2
Note ON: Time 365760, Note Name: C3, Velocity: 62
Note OFF: Time 366240, Note Name: C3
Note ON: Time 366240, Note Name: D#3, Velocity: 52
Note OFF: Time 366720, Note Name: D#3
Note ON: Time 366720, Note Name: A#2, Velocity: 52
Note OFF: Time 367200, Note Name: A#2
Note ON: Time 367200, Note Name: G#2, Velocity: 61
Note OFF: Time 367680, Note Name: G#2
Note ON: Time 367680, Note Name: C3, Velocity: 53
Note OFF: Time 368160, Note Name: C3
Note ON: Time 368160, Note Name: G2, Velocity: 53
Note OFF: Time 368640, Note Name: G2
Note ON: Time 368640, Note Name: F2, Velocity: 61
Note OFF: Time 369120, Note Name: F2
Note ON: Time 369120, Note Name: G#2, Velocity: 53
Note OFF: Time 369600, Note Name: G#2
Note ON: Time 369600, Note Name: D#2, Velocity: 53
Note OFF: Time 370080, Note Name: D#2
Note ON: Time 370080, Note Name: D2, Velocity: 70
Note OFF: Time 370560, Note Name: D2
Note ON: Time 370560, Note Name: F2, Velocity: 60
Note OFF: Time 371040, Note Name: F2
Note ON: Time 371040, Note Name: C2, Velocity: 60
Note OFF: Time 371520, Note Name: C2
Note ON: Time 371520, Note Name: B1, Velocity: 70
Note OFF: Time 372000, Note Name: B1
Note ON: Time 372000, Note Name: D2, Velocity: 60
Note OFF: Time 372480, Note Name: D2
Note ON: Time 372480, Note Name: A1, Velocity: 60
Note OFF: Time 372960, Note Name: A1
Note ON: Time 372960, Note Name: G1, Velocity: 66
Note OFF: Time 373440, Note Name: G1
Note ON: Time 373440, Note Name: A1, Velocity: 57
Note OFF: Time 373920, Note Name: A1
Note ON: Time 373920, Note Name: B1, Velocity: 57
Note OFF: Time 374400, Note Name: B1
Note ON: Time 374400, Note Name: C2, Velocity: 62
Note OFF: Time 374880, Note Name: C2
Note ON: Time 374880, Note Name: D2, Velocity: 57
Note OFF: Time 375360, Note Name: D2
Note ON: Time 375360, Note Name: D#2, Velocity: 62
Note OFF: Time 375840, Note Name: D#2
Note ON: Time 375840, Note Name: F2, Velocity: 57
Note OFF: Time 376800, Note Name: F2
Note ON: Time 376800, Note Name: F#2, Velocity: 50
Note OFF: Time 377280, Note Name: F#2
Note ON: Time 377280, Note Name: G2, Velocity: 57
Note OFF: Time 377520, Note Name: G2
Note ON: Time 377760, Note Name: G3, Velocity: 54
Note OFF: Time 378240, Note Name: G3
Note ON: Time 379200, Note Name: G3, Velocity: 45
Note OFF: Time 379680, Note Name: G3
Note ON: Time 380640, Note Name: G3, Velocity: 46
Note OFF: Time 381120, Note Name: G3
Note ON: Time 382080, Note Name: G3, Velocity: 47
Note OFF: Time 382560, Note Name: G3
Note ON: Time 383520, Note Name: G2, Velocity: 47
Note OFF: Time 384000, Note Name: G2
Note ON: Time 384960, Note Name: G2, Velocity: 39
Note OFF: Time 385440, Note Name: G2
Note ON: Time 386400, Note Name: G2, Velocity: 38
Note OFF: Time 386880, Note Name: G2
Note ON: Time 387840, Note Name: G2, Velocity: 37
Note OFF: Time 388320, Note Name: G2
Note ON: Time 389280, Note Name: G1, Velocity: 36
Note ON: Time 389280, Note Name: G2, Velocity: 36
Note OFF: Time 389760, Note Name: G2
Note OFF: Time 389760, Note Name: G1
Note ON: Time 390720, Note Name: G1, Velocity: 28
Note ON: Time 390720, Note Name: G2, Velocity: 33
Note OFF: Time 391200, Note Name: G2
Note OFF: Time 391200, Note Name: G1
Note ON: Time 391680, Note Name: C3, Velocity: 70
Note ON: Time 391680, Note Name: G2, Velocity: 59
Note ON: Time 391680, Note Name: D#2, Velocity: 59
Note ON: Time 391680, Note Name: C2, Velocity: 59
Note OFF: Time 392400, Note Name: C2
Note OFF: Time 392400, Note Name: C3
Note OFF: Time 392400, Note Name: G2
Note OFF: Time 392400, Note Name: D#2
Note ON: Time 395520, Note Name: C4, Velocity: 34
Note ON: Time 395520, Note Name: D#4, Velocity: 41
Note OFF: Time 395760, Note Name: D#4
Note OFF: Time 395760, Note Name: C4
Note ON: Time 396000, Note Name: D#4, Velocity: 41
Note ON: Time 396000, Note Name: C4, Velocity: 34
Note OFF: Time 396960, Note Name: C4
Note OFF: Time 396960, Note Name: D#4
Note ON: Time 396960, Note Name: D4, Velocity: 32
Note ON: Time 396960, Note Name: F4, Velocity: 38
Note OFF: Time 397430, Note Name: F4
Note OFF: Time 397430, Note Name: D4
Note ON: Time 397440, Note Name: F3, Velocity: 59
Note ON: Time 397440, Note Name: B3, Velocity: 59
Note ON: Time 397440, Note Name: G#3, Velocity: 59
Note ON: Time 397440, Note Name: D4, Velocity: 70
Note ON: Time 397440, Note Name: D3, Velocity: 59
Note OFF: Time 398160, Note Name: D3
Note OFF: Time 398160, Note Name: G#3
Note OFF: Time 398160, Note Name: F3
Note OFF: Time 398160, Note Name: B3
Note OFF: Time 398160, Note Name: D4
Note ON: Time 401280, Note Name: D4, Velocity: 34
Note ON: Time 401280, Note Name: G#4, Velocity: 41
Note ON: Time 401280, Note Name: F4, Velocity: 34
Note OFF: Time 401520, Note Name: F4
Note OFF: Time 401520, Note Name: G#4
Note OFF: Time 401520, Note Name: D4
Note ON: Time 401760, Note Name: G#4, Velocity: 41
Note ON: Time 401760, Note Name: F4, Velocity: 34
Note ON: Time 401760, Note Name: D4, Velocity: 34
Note OFF: Time 402720, Note Name: D4
Note OFF: Time 402720, Note Name: F4
Note OFF: Time 402720, Note Name: G#4
Note ON: Time 402720, Note Name: G4, Velocity: 38
Note ON: Time 402720, Note Name: D#4, Velocity: 32
Note OFF: Time 403200, Note Name: D#4
Note OFF: Time 403200, Note Name: G4
Note ON: Time 404160, Note Name: C4, Velocity: 35
Note ON: Time 404160, Note Name: G3, Velocity: 29
Note ON: Time 404160, Note Name: D#3, Velocity: 29
Note OFF: Time 404640, Note Name: D#3
Note OFF: Time 404640, Note Name: G3
Note OFF: Time 404640, Note Name: C4
Note ON: Time 404640, Note Name: F3, Velocity: 33
Note ON: Time 404640, Note Name: G#3, Velocity: 33
Note ON: Time 404640, Note Name: B3, Velocity: 39
Note OFF: Time 405600, Note Name: B3
Note OFF: Time 405600, Note Name: G#3
Note OFF: Time 405600, Note Name: F3
Note ON: Time 405600, Note Name: C4, Velocity: 34
Note ON: Time 405600, Note Name: G3, Velocity: 28
Note ON: Time 405600, Note Name: D#3, Velocity: 28
Note OFF: Time 406080, Note Name: D#3
Note OFF: Time 406080, Note Name: G3
Note OFF: Time 406080, Note Name: C4
Note ON: Time 407040, Note Name: D#4, Velocity: 29
Note ON: Time 407040, Note Name: G4, Velocity: 35
Note OFF: Time 407520, Note Name: G4
Note OFF: Time 407520, Note Name: D#4
Note ON: Time 407520, Note Name: G#4, Velocity: 39
Note ON: Time 407520, Note Name: F4, Velocity: 33
Note OFF: Time 408480, Note Name: F4
Note OFF: Time 408480, Note Name: G#4
Note ON: Time 408480, Note Name: D#4, Velocity: 28
Note ON: Time 408480, Note Name: G4, Velocity: 34
Note OFF: Time 408960, Note Name: G4
Note OFF: Time 408960, Note Name: D#4
Note ON: Time 409920, Note Name: G3, Velocity: 39
Note ON: Time 409920, Note Name: C4, Velocity: 47
Note ON: Time 409920, Note Name: D#3, Velocity: 39
Note OFF: Time 410400, Note Name: D#3
Note OFF: Time 410400, Note Name: C4
Note OFF: Time 410400, Note Name: G3
Note ON: Time 410400, Note Name: B3, Velocity: 53
Note ON: Time 410400, Note Name: F3, Velocity: 45
Note ON: Time 410400, Note Name: G#3, Velocity: 45
Note OFF: Time 411360, Note Name: G#3
Note OFF: Time 411360, Note Name: F3
Note OFF: Time 411360, Note Name: B3
Note ON: Time 411360, Note Name: G3, Velocity: 46
Note ON: Time 411360, Note Name: D#3, Velocity: 39
Note OFF: Time 411840, Note Name: D#3
Note OFF: Time 411840, Note Name: G3
Note ON: Time 411840, Note Name: D3, Velocity: 46
Note ON: Time 411840, Note Name: F3, Velocity: 56
Note OFF: Time 412800, Note Name: F3
Note OFF: Time 412800, Note Name: D3
Note ON: Time 412800, Note Name: D#3, Velocity: 49
Note ON: Time 412800, Note Name: C3, Velocity: 41
Note OFF: Time 413280, Note Name: C3
Note OFF: Time 413280, Note Name: D#3
Note ON: Time 413280, Note Name: D3, Velocity: 47
Note ON: Time 413280, Note Name: B2, Velocity: 56
Note OFF: Time 413760, Note Name: B2
Note OFF: Time 413760, Note Name: D3
Note ON: Time 415680, Note Name: G#3, Velocity: 34
Note ON: Time 415680, Note Name: F3, Velocity: 28
Note ON: Time 415680, Note Name: D3, Velocity: 28
Note ON: Time 415680, Note Name: B2, Velocity: 28
Note OFF: Time 416160, Note Name: B2
Note OFF: Time 416160, Note Name: G#3
Note OFF: Time 416160, Note Name: F3
Note OFF: Time 416160, Note Name: D3
Note ON: Time 416160, Note Name: G3, Velocity: 34
Note ON: Time 416160, Note Name: D#3, Velocity: 28
Note ON: Time 416160, Note Name: C3, Velocity: 28
Note OFF: Time 416280, Note Name: C3
Note OFF: Time 416280, Note Name: D#3
Note OFF: Time 416280, Note Name: G3
Note ON: Time 418560, Note Name: D3, Velocity: 34
Note ON: Time 418560, Note Name: G#2, Velocity: 28
Note ON: Time 418560, Note Name: F2, Velocity: 28
Note OFF: Time 419040, Note Name: F2
Note OFF: Time 419040, Note Name: G#2
Note OFF: Time 419040, Note Name: D3
Note ON: Time 419040, Note Name: C3, Velocity: 28
Note ON: Time 419040, Note Name: G2, Velocity: 28
Note ON: Time 419040, Note Name: D#3, Velocity: 34
Note OFF: Time 419160, Note Name: D#3
Note OFF: Time 419160, Note Name: G2
Note OFF: Time 419160, Note Name: C3
Note ON: Time 421440, Note Name: G2, Velocity: 73
Note ON: Time 421440, Note Name: G1, Velocity: 73
Note OFF: Time 421680, Note Name: G1
Note OFF: Time 421680, Note Name: G2
Note ON: Time 421920, Note Name: C2, Velocity: 67
Note ON: Time 421920, Note Name: C3, Velocity: 80
Note OFF: Time 422160, Note Name: C3
Note OFF: Time 422160, Note Name: C2
Note ON: Time 424800, Note Name: C#4, Velocity: 69
Note ON: Time 426240, Note Name: B3, Velocity: 50
Note OFF: Time 427680, Note Name: B3
Note ON: Time 427680, Note Name: A#3, Velocity: 49
Note OFF: Time 429120, Note Name: A#3
Note OFF: Time 429120, Note Name: C#4
Note ON: Time 429120, Note Name: B3, Velocity: 34
Note ON: Time 429120, Note Name: G#3, Velocity: 28
Note OFF: Time 430560, Note Name: G#3
Note OFF: Time 430560, Note Name: B3
Note ON: Time 430560, Note Name: F#3, Velocity: 28
Note ON: Time 430560, Note Name: C#4, Velocity: 33
Note OFF: Time 432000, Note Name: C#4
Note OFF: Time 432000, Note Name: F#3
Note ON: Time 432000, Note Name: B4, Velocity: 50
Note ON: Time 432000, Note Name: C#5, Velocity: 60
Note OFF: Time 433440, Note Name: B4
Note ON: Time 433440, Note Name: A#4, Velocity: 49
Note OFF: Time 434880, Note Name: A#4
Note OFF: Time 434880, Note Name: C#5
Note ON: Time 434880, Note Name: G#4, Velocity: 28
Note ON: Time 434880, Note Name: B4, Velocity: 34
Note OFF: Time 436320, Note Name: B4
Note OFF: Time 436320, Note Name: G#4
Note ON: Time 436320, Note Name: F#4, Velocity: 28
Note ON: Time 436320, Note Name: C#5, Velocity: 33
Note OFF: Time 437760, Note Name: C#5
Note OFF: Time 437760, Note Name: F#4
Note ON: Time 437760, Note Name: G#4, Velocity: 50
Note ON: Time 437760, Note Name: A#4, Velocity: 60
Note OFF: Time 439200, Note Name: G#4
Note ON: Time 439200, Note Name: F#4, Velocity: 49
Note OFF: Time 440640, Note Name: F#4
Note OFF: Time 440640, Note Name: A#4
Note ON: Time 440640, Note Name: F4, Velocity: 44
Note ON: Time 440640, Note Name: G#4, Velocity: 44
Note OFF: Time 442080, Note Name: G#4
Note OFF: Time 442080, Note Name: F4
Note ON: Time 442080, Note Name: D#4, Velocity: 28
Note ON: Time 442080, Note Name: F#4, Velocity: 33
Note OFF: Time 443520, Note Name: F#4
Note OFF: Time 443520, Note Name: D#4
Note ON: Time 443520, Note Name: C#4, Velocity: 42
Note ON: Time 443520, Note Name: F4, Velocity: 48
Note OFF: Time 444960, Note Name: F4
Note OFF: Time 444960, Note Name: C#4
Note ON: Time 444960, Note Name: G4, Velocity: 33
Note ON: Time 444960, Note Name: C4, Velocity: 28
Note OFF: Time 446400, Note Name: C4
Note OFF: Time 446400, Note Name: G4
Note ON: Time 446400, Note Name: B3, Velocity: 33
Note OFF: Time 447840, Note Name: B3
Note ON: Time 447840, Note Name: C4, Velocity: 42
Note ON: Time 447840, Note Name: C3, Velocity: 33
Note OFF: Time 448320, Note Name: C4
Note ON: Time 448320, Note Name: G3, Velocity: 33
Note OFF: Time 448800, Note Name: G3
Note ON: Time 448800, Note Name: G#3, Velocity: 37
Note OFF: Time 449280, Note Name: G#3
Note ON: Time 449280, Note Name: A#3, Velocity: 41
Note OFF: Time 449760, Note Name: A#3
Note ON: Time 449760, Note Name: F3, Velocity: 33
Note OFF: Time 450240, Note Name: F3
Note ON: Time 450240, Note Name: G3, Velocity: 35
Note OFF: Time 450720, Note Name: G3
Note OFF: Time 450720, Note Name: C3
Note ON: Time 450720, Note Name: C3, Velocity: 42
Note ON: Time 450720, Note Name: G#3, Velocity: 42
Note OFF: Time 451200, Note Name: G#3
Note ON: Time 451200, Note Name: E3, Velocity: 33
Note OFF: Time 451680, Note Name: E3
Note ON: Time 451680, Note Name: F3, Velocity: 33
Note OFF: Time 452160, Note Name: F3
Note ON: Time 452160, Note Name: G3, Velocity: 40
Note OFF: Time 452640, Note Name: G3
Note ON: Time 452640, Note Name: D3, Velocity: 33
Note OFF: Time 453120, Note Name: D3
Note ON: Time 453120, Note Name: E3, Velocity: 33
Note OFF: Time 453600, Note Name: E3
Note OFF: Time 453600, Note Name: C3
Note ON: Time 453600, Note Name: C3, Velocity: 39
Note ON: Time 453600, Note Name: F3, Velocity: 39
Note OFF: Time 454080, Note Name: F3
Note ON: Time 454080, Note Name: G3, Velocity: 33
Note OFF: Time 454560, Note Name: G3
Note ON: Time 454560, Note Name: A3, Velocity: 36
Note OFF: Time 455040, Note Name: A3
Note ON: Time 455040, Note Name: A#3, Velocity: 40
Note OFF: Time 455520, Note Name: A#3
Note ON: Time 455520, Note Name: F#3, Velocity: 33
Note OFF: Time 456000, Note Name: F#3
Note ON: Time 456000, Note Name: G3, Velocity: 33
Note OFF: Time 456480, Note Name: G3
Note OFF: Time 456480, Note Name: C3
Note ON: Time 456480, Note Name: A3, Velocity: 42
Note ON: Time 456480, Note Name: C3, Velocity: 42
Note OFF: Time 456960, Note Name: A3
Note ON: Time 456960, Note Name: E3, Velocity: 33
Note OFF: Time 457440, Note Name: E3
Note ON: Time 457440, Note Name: F3, Velocity: 33
Note OFF: Time 457920, Note Name: F3
Note ON: Time 457920, Note Name: G3, Velocity: 40
Note OFF: Time 458400, Note Name: G3
Note ON: Time 458400, Note Name: D3, Velocity: 33
Note OFF: Time 458880, Note Name: D3
Note ON: Time 458880, Note Name: E3, Velocity: 33
Note OFF: Time 459360, Note Name: E3
Note OFF: Time 459360, Note Name: C3
Note ON: Time 459360, Note Name: F3, Velocity: 40
Note OFF: Time 459600, Note Name: F3
Note ON: Time 459600, Note Name: C4, Velocity: 28
Note OFF: Time 459840, Note Name: C4
Note ON: Time 459840, Note Name: A3, Velocity: 33
Note OFF: Time 460080, Note Name: A3
Note ON: Time 460080, Note Name: C4, Velocity: 27
Note OFF: Time 460320, Note Name: C4
Note ON: Time 460334, Note Name: G3, Velocity: 33
Note ON: Time 460560, Note Name: C4, Velocity: 30
Note OFF: Time 460574, Note Name: G3
Note OFF: Time 460800, Note Name: C4
Note ON: Time 460800, Note Name: F3, Velocity: 38
Note OFF: Time 461040, Note Name: F3
Note ON: Time 461040, Note Name: C4, Velocity: 28
Note OFF: Time 461280, Note Name: C4
Note ON: Time 461280, Note Name: G3, Velocity: 43
Note OFF: Time 461520, Note Name: G3
Note ON: Time 461520, Note Name: C4, Velocity: 38
Note OFF: Time 461760, Note Name: C4
Note ON: Time 461760, Note Name: A3, Velocity: 51
Note OFF: Time 462000, Note Name: A3
Note ON: Time 462000, Note Name: C4, Velocity: 41
Note OFF: Time 462240, Note Name: C4
Note ON: Time 462240, Note Name: G3, Velocity: 53
Note OFF: Time 462480, Note Name: G3
Note ON: Time 462480, Note Name: C4, Velocity: 40
Note OFF: Time 462720, Note Name: C4
Note ON: Time 462720, Note Name: A3, Velocity: 45
Note OFF: Time 462960, Note Name: A3
Note ON: Time 462960, Note Name: C4, Velocity: 35
Note OFF: Time 463200, Note Name: C4
Note ON: Time 463200, Note Name: A#3, Velocity: 40
Note OFF: Time 463440, Note Name: A#3
Note ON: Time 463440, Note Name: C4, Velocity: 33
Note OFF: Time 463680, Note Name: C4
Note ON: Time 463680, Note Name: G3, Velocity: 39
Note OFF: Time 463920, Note Name: G3
Note ON: Time 463920, Note Name: C4, Velocity: 33
Note OFF: Time 464160, Note Name: C4
Note ON: Time 464160, Note Name: A3, Velocity: 41
Note OFF: Time 464400, Note Name: A3
Note ON: Time 464400, Note Name: C4, Velocity: 33
Note OFF: Time 464640, Note Name: C4
Note ON: Time 464640, Note Name: A#3, Velocity: 41
Note OFF: Time 464880, Note Name: A#3
Note ON: Time 464880, Note Name: C4, Velocity: 33
Note OFF: Time 465120, Note Name: C4
Note ON: Time 465120, Note Name: E3, Velocity: 40
Note OFF: Time 465360, Note Name: E3
Note ON: Time 465360, Note Name: C4, Velocity: 28
Note OFF: Time 465600, Note Name: C4
Note ON: Time 465600, Note Name: G3, Velocity: 33
Note OFF: Time 465840, Note Name: G3
Note ON: Time 465840, Note Name: C4, Velocity: 27
Note OFF: Time 466080, Note Name: C4
Note ON: Time 466080, Note Name: F3, Velocity: 33
Note OFF: Time 466320, Note Name: F3
Note ON: Time 466320, Note Name: C4, Velocity: 30
Note OFF: Time 466560, Note Name: C4
Note ON: Time 466560, Note Name: E3, Velocity: 38
Note OFF: Time 466800, Note Name: E3
Note ON: Time 466800, Note Name: C4, Velocity: 28
Note OFF: Time 467040, Note Name: C4
Note ON: Time 467040, Note Name: F3, Velocity: 47
Note OFF: Time 467280, Note Name: F3
Note ON: Time 467280, Note Name: C4, Velocity: 41
Note OFF: Time 467520, Note Name: C4
Note ON: Time 467520, Note Name: G3, Velocity: 49
Note OFF: Time 467760, Note Name: G3
Note ON: Time 467760, Note Name: C4, Velocity: 40
Note OFF: Time 468000, Note Name: C4
Note ON: Time 468000, Note Name: F3, Velocity: 54
Note OFF: Time 468240, Note Name: F3
Note ON: Time 468240, Note Name: C4, Velocity: 43
Note OFF: Time 468480, Note Name: C4
Note ON: Time 468480, Note Name: G3, Velocity: 45
Note OFF: Time 468720, Note Name: G3
Note ON: Time 468720, Note Name: C4, Velocity: 37
Note OFF: Time 468960, Note Name: C4
Note ON: Time 468960, Note Name: A3, Velocity: 46
Note OFF: Time 469200, Note Name: A3
Note ON: Time 469200, Note Name: C4, Velocity: 33
Note OFF: Time 469440, Note Name: C4
Note ON: Time 469440, Note Name: F3, Velocity: 44
Note OFF: Time 469680, Note Name: F3
Note ON: Time 469680, Note Name: C4, Velocity: 39
Note OFF: Time 469920, Note Name: C4
Note ON: Time 469934, Note Name: G3, Velocity: 41
Note ON: Time 470160, Note Name: C4, Velocity: 33
Note OFF: Time 470174, Note Name: G3
Note OFF: Time 470400, Note Name: C4
Note ON: Time 470400, Note Name: A3, Velocity: 41
Note OFF: Time 470640, Note Name: A3
Note ON: Time 470640, Note Name: C4, Velocity: 33
Note OFF: Time 470880, Note Name: C4
Note ON: Time 470880, Note Name: F3, Velocity: 40
Note OFF: Time 471120, Note Name: F3
Note ON: Time 471120, Note Name: C4, Velocity: 28
Note OFF: Time 471360, Note Name: C4
Note ON: Time 471360, Note Name: A3, Velocity: 33
Note OFF: Time 471600, Note Name: A3
Note ON: Time 471600, Note Name: C4, Velocity: 27
Note OFF: Time 471840, Note Name: C4
Note ON: Time 471840, Note Name: F3, Velocity: 34
Note OFF: Time 472080, Note Name: F3
Note ON: Time 472080, Note Name: C4, Velocity: 31
Note OFF: Time 472320, Note Name: C4
Note ON: Time 472320, Note Name: F3, Velocity: 40
Note OFF: Time 472560, Note Name: F3
Note ON: Time 472560, Note Name: C4, Velocity: 36
Note OFF: Time 472800, Note Name: C4
Note ON: Time 472800, Note Name: A3, Velocity: 48
Note OFF: Time 473040, Note Name: A3
Note ON: Time 473040, Note Name: C4, Velocity: 40
Note OFF: Time 473280, Note Name: C4
Note ON: Time 473280, Note Name: F3, Velocity: 51
Note OFF: Time 473520, Note Name: F3
Note ON: Time 473520, Note Name: C4, Velocity: 42
Note OFF: Time 473760, Note Name: C4
Note ON: Time 473760, Note Name: G3, Velocity: 59
Note OFF: Time 474000, Note Name: G3
Note ON: Time 474000, Note Name: C4, Velocity: 47
Note OFF: Time 474240, Note Name: C4
Note ON: Time 474240, Note Name: A#3, Velocity: 46
Note OFF: Time 474480, Note Name: A#3
Note ON: Time 474480, Note Name: C4, Velocity: 38
Note OFF: Time 474720, Note Name: C4
Note ON: Time 474720, Note Name: G3, Velocity: 46
Note OFF: Time 474960, Note Name: G3
Note ON: Time 474960, Note Name: C4, Velocity: 37
Note OFF: Time 475200, Note Name: C4
Note ON: Time 475200, Note Name: G3, Velocity: 44
Note OFF: Time 475440, Note Name: G3
Note ON: Time 475440, Note Name: C4, Velocity: 37
Note OFF: Time 475680, Note Name: C4
Note ON: Time 475680, Note Name: A#3, Velocity: 47
Note OFF: Time 475920, Note Name: A#3
Note ON: Time 475920, Note Name: C4, Velocity: 37
Note OFF: Time 476160, Note Name: C4
Note ON: Time 476160, Note Name: G3, Velocity: 47
Note OFF: Time 476400, Note Name: G3
Note ON: Time 476400, Note Name: C4, Velocity: 37
Note OFF: Time 476638, Note Name: C4
Note ON: Time 476640, Note Name: E3, Velocity: 40
Note OFF: Time 476880, Note Name: E3
Note ON: Time 476880, Note Name: C4, Velocity: 32
Note OFF: Time 477120, Note Name: C4
Note ON: Time 477120, Note Name: G3, Velocity: 39
Note OFF: Time 477360, Note Name: G3
Note ON: Time 477360, Note Name: C4, Velocity: 29
Note OFF: Time 477600, Note Name: C4
Note ON: Time 477600, Note Name: E3, Velocity: 40
Note OFF: Time 477840, Note Name: E3
Note ON: Time 477840, Note Name: C4, Velocity: 31
Note OFF: Time 478080, Note Name: C4
Note ON: Time 478080, Note Name: E3, Velocity: 46
Note OFF: Time 478320, Note Name: E3
Note ON: Time 478320, Note Name: C4, Velocity: 41
Note OFF: Time 478560, Note Name: C4
Note ON: Time 478560, Note Name: G3, Velocity: 52
Note OFF: Time 478800, Note Name: G3
Note ON: Time 478800, Note Name: C4, Velocity: 40
Note OFF: Time 479040, Note Name: C4
Note ON: Time 479040, Note Name: E3, Velocity: 57
Note OFF: Time 479280, Note Name: E3
Note ON: Time 479280, Note Name: C4, Velocity: 44
Note OFF: Time 479520, Note Name: C4
Note ON: Time 479520, Note Name: F3, Velocity: 45
Note OFF: Time 479760, Note Name: F3
Note ON: Time 479760, Note Name: C4, Velocity: 36
Note OFF: Time 480000, Note Name: C4
Note ON: Time 480000, Note Name: G3, Velocity: 49
Note OFF: Time 480240, Note Name: G3
Note ON: Time 480240, Note Name: C4, Velocity: 42
Note OFF: Time 480480, Note Name: C4
Note ON: Time 480480, Note Name: G#3, Velocity: 51
Note OFF: Time 480720, Note Name: G#3
Note ON: Time 480720, Note Name: C4, Velocity: 44
Note OFF: Time 480960, Note Name: C4
Note ON: Time 480960, Note Name: F3, Velocity: 47
Note OFF: Time 481200, Note Name: F3
Note ON: Time 481200, Note Name: C4, Velocity: 37
Note OFF: Time 481440, Note Name: C4
Note ON: Time 481440, Note Name: G3, Velocity: 41
Note OFF: Time 481680, Note Name: G3
Note ON: Time 481680, Note Name: C4, Velocity: 37
Note OFF: Time 481920, Note Name: C4
Note ON: Time 481920, Note Name: G#3, Velocity: 41
Note OFF: Time 482160, Note Name: G#3
Note ON: Time 482160, Note Name: C4, Velocity: 37
Note OFF: Time 482400, Note Name: C4
Note ON: Time 482400, Note Name: G3, Velocity: 51
Note OFF: Time 482640, Note Name: G3
Note ON: Time 482640, Note Name: D#4, Velocity: 36
Note OFF: Time 482880, Note Name: D#4
Note ON: Time 482880, Note Name: C4, Velocity: 41
Note OFF: Time 483120, Note Name: C4
Note ON: Time 483120, Note Name: D#4, Velocity: 36
Note OFF: Time 483360, Note Name: D#4
Note ON: Time 483360, Note Name: G3, Velocity: 41
Note OFF: Time 483600, Note Name: G3
Note ON: Time 483600, Note Name: D#4, Velocity: 36
Note OFF: Time 483840, Note Name: D#4
Note ON: Time 483840, Note Name: G3, Velocity: 47
Note OFF: Time 484080, Note Name: G3
Note ON: Time 484080, Note Name: D4, Velocity: 36
Note OFF: Time 484320, Note Name: D4
Note ON: Time 484320, Note Name: B3, Velocity: 42
Note OFF: Time 484560, Note Name: B3
Note ON: Time 484560, Note Name: D4, Velocity: 34
Note OFF: Time 484800, Note Name: D4
Note ON: Time 484800, Note Name: G3, Velocity: 40
Note OFF: Time 485040, Note Name: G3
Note ON: Time 485040, Note Name: D4, Velocity: 35
Note OFF: Time 485280, Note Name: D4
Note ON: Time 485280, Note Name: C3, Velocity: 60
Note OFF: Time 485520, Note Name: C3
Note ON: Time 485520, Note Name: G3, Velocity: 37
Note OFF: Time 485760, Note Name: G3
Note ON: Time 485760, Note Name: D#3, Velocity: 52
Note OFF: Time 486000, Note Name: D#3
Note ON: Time 486000, Note Name: G3, Velocity: 36
Note OFF: Time 486240, Note Name: G3
Note ON: Time 486254, Note Name: D3, Velocity: 52
Note ON: Time 486480, Note Name: G3, Velocity: 46
Note OFF: Time 486494, Note Name: D3
Note OFF: Time 486720, Note Name: G3
Note ON: Time 486720, Note Name: C3, Velocity: 57
Note OFF: Time 486960, Note Name: C3
Note ON: Time 486960, Note Name: G3, Velocity: 46
Note OFF: Time 487200, Note Name: G3
Note ON: Time 487200, Note Name: D3, Velocity: 57
Note OFF: Time 487440, Note Name: D3
Note ON: Time 487440, Note Name: G3, Velocity: 50
Note OFF: Time 487680, Note Name: G3
Note ON: Time 487680, Note Name: D#3, Velocity: 61
Note OFF: Time 487920, Note Name: D#3
Note ON: Time 487920, Note Name: G3, Velocity: 56
Note OFF: Time 488160, Note Name: G3
Note ON: Time 488160, Note Name: D3, Velocity: 66
Note OFF: Time 488400, Note Name: D3
Note ON: Time 488400, Note Name: G3, Velocity: 43
Note OFF: Time 488640, Note Name: G3
Note ON: Time 488640, Note Name: D#3, Velocity: 59
Note OFF: Time 488880, Note Name: D#3
Note ON: Time 488880, Note Name: G3, Velocity: 51
Note OFF: Time 489120, Note Name: G3
Note ON: Time 489120, Note Name: F3, Velocity: 60
Note OFF: Time 489360, Note Name: F3
Note ON: Time 489360, Note Name: G3, Velocity: 53
Note OFF: Time 489600, Note Name: G3
Note ON: Time 489600, Note Name: D3, Velocity: 63
Note OFF: Time 489840, Note Name: D3
Note ON: Time 489840, Note Name: G3, Velocity: 44
Note OFF: Time 490080, Note Name: G3
Note ON: Time 490080, Note Name: D#3, Velocity: 54
Note OFF: Time 490320, Note Name: D#3
Note ON: Time 490320, Note Name: G3, Velocity: 44
Note OFF: Time 490560, Note Name: G3
Note ON: Time 490560, Note Name: F3, Velocity: 54
Note OFF: Time 490800, Note Name: F3
Note ON: Time 490800, Note Name: G3, Velocity: 44
Note OFF: Time 491040, Note Name: G3
Note ON: Time 491040, Note Name: B2, Velocity: 54
Note OFF: Time 491280, Note Name: B2
Note ON: Time 491280, Note Name: G3, Velocity: 37
Note OFF: Time 491520, Note Name: G3
Note ON: Time 491520, Note Name: D3, Velocity: 44
Note OFF: Time 491760, Note Name: D3
Note ON: Time 491760, Note Name: G3, Velocity: 36
Note OFF: Time 492000, Note Name: G3
Note ON: Time 492000, Note Name: C3, Velocity: 44
Note OFF: Time 492240, Note Name: C3
Note ON: Time 492240, Note Name: G3, Velocity: 40
Note OFF: Time 492480, Note Name: G3
Note ON: Time 492480, Note Name: B2, Velocity: 51
Note OFF: Time 492720, Note Name: B2
Note ON: Time 492720, Note Name: G3, Velocity: 44
Note OFF: Time 492960, Note Name: G3
Note ON: Time 492960, Note Name: C3, Velocity: 57
Note OFF: Time 493200, Note Name: C3
Note ON: Time 493200, Note Name: G3, Velocity: 52
Note OFF: Time 493440, Note Name: G3
Note ON: Time 493440, Note Name: D3, Velocity: 61
Note OFF: Time 493680, Note Name: D3
Note ON: Time 493680, Note Name: G3, Velocity: 46
Note OFF: Time 493920, Note Name: G3
Note ON: Time 493920, Note Name: C3, Velocity: 69
Note OFF: Time 494160, Note Name: C3
Note ON: Time 494160, Note Name: G3, Velocity: 53
Note OFF: Time 494400, Note Name: G3
Note ON: Time 494400, Note Name: D3, Velocity: 60
Note OFF: Time 494640, Note Name: D3
Note ON: Time 494640, Note Name: G3, Velocity: 44
Note OFF: Time 494880, Note Name: G3
Note ON: Time 494880, Note Name: D#3, Velocity: 54
Note OFF: Time 495120, Note Name: D#3
Note ON: Time 495120, Note Name: G3, Velocity: 44
Note OFF: Time 495360, Note Name: G3
Note ON: Time 495360, Note Name: C3, Velocity: 52
Note OFF: Time 495600, Note Name: C3
Note ON: Time 495600, Note Name: G3, Velocity: 44
Note OFF: Time 495840, Note Name: G3
Note ON: Time 495840, Note Name: D3, Velocity: 54
Note OFF: Time 496080, Note Name: D3
Note ON: Time 496080, Note Name: G3, Velocity: 44
Note OFF: Time 496320, Note Name: G3
Note ON: Time 496320, Note Name: D#3, Velocity: 54
Note OFF: Time 496560, Note Name: D#3
Note ON: Time 496560, Note Name: G3, Velocity: 44
Note OFF: Time 496800, Note Name: G3
Note ON: Time 496800, Note Name: C3, Velocity: 54
Note OFF: Time 497040, Note Name: C3
Note ON: Time 497040, Note Name: G3, Velocity: 37
Note OFF: Time 497280, Note Name: G3
Note ON: Time 497280, Note Name: D#3, Velocity: 44
Note OFF: Time 497520, Note Name: D#3
Note ON: Time 497520, Note Name: G3, Velocity: 36
Note OFF: Time 497760, Note Name: G3
Note ON: Time 497760, Note Name: C3, Velocity: 44
Note OFF: Time 498000, Note Name: C3
Note ON: Time 498000, Note Name: G3, Velocity: 40
Note OFF: Time 498240, Note Name: G3
Note ON: Time 498240, Note Name: C3, Velocity: 51
Note OFF: Time 498480, Note Name: C3
Note ON: Time 498480, Note Name: G3, Velocity: 42
Note OFF: Time 498720, Note Name: G3
Note ON: Time 498720, Note Name: D#3, Velocity: 51
Note OFF: Time 498960, Note Name: D#3
Note ON: Time 498960, Note Name: G3, Velocity: 42
Note OFF: Time 499200, Note Name: G3
Note ON: Time 499200, Note Name: C3, Velocity: 60
Note OFF: Time 499440, Note Name: C3
Note ON: Time 499440, Note Name: G3, Velocity: 53
Note OFF: Time 499680, Note Name: G3
Note ON: Time 499680, Note Name: D3, Velocity: 66
Note OFF: Time 499920, Note Name: D3
Note ON: Time 499920, Note Name: G3, Velocity: 43
Note OFF: Time 500160, Note Name: G3
Note ON: Time 500160, Note Name: F3, Velocity: 54
Note OFF: Time 500400, Note Name: F3
Note ON: Time 500400, Note Name: G3, Velocity: 45
Note OFF: Time 500640, Note Name: G3
Note ON: Time 500640, Note Name: D3, Velocity: 54
Note OFF: Time 500880, Note Name: D3
Note ON: Time 500880, Note Name: G3, Velocity: 44
Note OFF: Time 501120, Note Name: G3
Note ON: Time 501120, Note Name: D3, Velocity: 52
Note OFF: Time 501360, Note Name: D3
Note ON: Time 501360, Note Name: G3, Velocity: 44
Note OFF: Time 501600, Note Name: G3
Note ON: Time 501600, Note Name: F3, Velocity: 54
Note OFF: Time 501840, Note Name: F3
Note ON: Time 501840, Note Name: G3, Velocity: 44
Note OFF: Time 502080, Note Name: G3
Note ON: Time 502080, Note Name: D3, Velocity: 54
Note OFF: Time 502320, Note Name: D3
Note ON: Time 502320, Note Name: G3, Velocity: 44
Note OFF: Time 502558, Note Name: G3
Note ON: Time 502560, Note Name: B2, Velocity: 54
Note OFF: Time 502800, Note Name: B2
Note ON: Time 502800, Note Name: G3, Velocity: 37
Note OFF: Time 503040, Note Name: G3
Note ON: Time 503040, Note Name: D3, Velocity: 49
Note OFF: Time 503280, Note Name: D3
Note ON: Time 503280, Note Name: G3, Velocity: 36
Note OFF: Time 503520, Note Name: G3
Note ON: Time 503520, Note Name: B2, Velocity: 50
Note OFF: Time 503760, Note Name: B2
Note ON: Time 503760, Note Name: G3, Velocity: 40
Note OFF: Time 504000, Note Name: G3
Note ON: Time 504000, Note Name: B2, Velocity: 58
Note OFF: Time 504240, Note Name: B2
Note ON: Time 504240, Note Name: G3, Velocity: 45
Note OFF: Time 504480, Note Name: G3
Note ON: Time 504480, Note Name: D3, Velocity: 51
Note OFF: Time 504720, Note Name: D3
Note ON: Time 504720, Note Name: G3, Velocity: 45
Note OFF: Time 504960, Note Name: G3
Note ON: Time 504960, Note Name: B2, Velocity: 56
Note OFF: Time 505200, Note Name: B2
Note ON: Time 505200, Note Name: G3, Velocity: 37
Note OFF: Time 505440, Note Name: G3
Note ON: Time 505680, Note Name: C3, Velocity: 43
Note OFF: Time 505920, Note Name: C3
Note ON: Time 505920, Note Name: B2, Velocity: 61
Note OFF: Time 506160, Note Name: B2
Note ON: Time 506160, Note Name: C3, Velocity: 44
Note OFF: Time 506400, Note Name: C3
Note ON: Time 506400, Note Name: B2, Velocity: 63
Note OFF: Time 506640, Note Name: B2
Note ON: Time 506640, Note Name: C3, Velocity: 50
Note OFF: Time 506880, Note Name: C3
Note ON: Time 506880, Note Name: E2, Velocity: 67
Note OFF: Time 507120, Note Name: E2
Note ON: Time 507120, Note Name: C3, Velocity: 52
Note OFF: Time 507360, Note Name: C3
Note ON: Time 507360, Note Name: F2, Velocity: 57
Note OFF: Time 507600, Note Name: F2
Note ON: Time 507600, Note Name: C3, Velocity: 47
Note OFF: Time 507840, Note Name: C3
Note ON: Time 507840, Note Name: G2, Velocity: 61
Note OFF: Time 508080, Note Name: G2
Note ON: Time 508080, Note Name: C3, Velocity: 44
Note OFF: Time 508320, Note Name: C3
Note ON: Time 508320, Note Name: F2, Velocity: 65
Note OFF: Time 508560, Note Name: F2
Note ON: Time 508560, Note Name: C3, Velocity: 45
Note OFF: Time 508800, Note Name: C3
Note ON: Time 508800, Note Name: G2, Velocity: 57
Note OFF: Time 509040, Note Name: G2
Note ON: Time 509040, Note Name: C3, Velocity: 48
Note OFF: Time 509280, Note Name: C3
Note ON: Time 509280, Note Name: G#2, Velocity: 56
Note OFF: Time 509520, Note Name: G#2
Note ON: Time 509520, Note Name: C3, Velocity: 50
Note OFF: Time 509760, Note Name: C3
Note ON: Time 509760, Note Name: F#2, Velocity: 67
Note OFF: Time 510000, Note Name: F#2
Note ON: Time 510000, Note Name: C3, Velocity: 51
Note OFF: Time 510240, Note Name: C3
Note ON: Time 510240, Note Name: G2, Velocity: 58
Note OFF: Time 510480, Note Name: G2
Note ON: Time 510480, Note Name: C3, Velocity: 49
Note OFF: Time 510720, Note Name: C3
Note ON: Time 510720, Note Name: A2, Velocity: 60
Note OFF: Time 510960, Note Name: A2
Note ON: Time 510960, Note Name: C3, Velocity: 44
Note OFF: Time 511200, Note Name: C3
Note ON: Time 511200, Note Name: G2, Velocity: 64
Note OFF: Time 511440, Note Name: G2
Note ON: Time 511440, Note Name: D#3, Velocity: 51
Note OFF: Time 511680, Note Name: D#3
Note ON: Time 511680, Note Name: C3, Velocity: 59
Note OFF: Time 511920, Note Name: C3
Note ON: Time 511920, Note Name: D#3, Velocity: 50
Note OFF: Time 512160, Note Name: D#3
Note ON: Time 512160, Note Name: G2, Velocity: 57
Note OFF: Time 512400, Note Name: G2
Note ON: Time 512400, Note Name: D#3, Velocity: 46
Note OFF: Time 512640, Note Name: D#3
Note ON: Time 512640, Note Name: G2, Velocity: 64
Note OFF: Time 512880, Note Name: G2
Note ON: Time 512880, Note Name: D3, Velocity: 46
Note OFF: Time 513120, Note Name: D3
Note ON: Time 513120, Note Name: B2, Velocity: 58
Note OFF: Time 513360, Note Name: B2
Note ON: Time 513360, Note Name: D3, Velocity: 47
Note OFF: Time 513600, Note Name: D3
Note ON: Time 513600, Note Name: G2, Velocity: 56
Note OFF: Time 513840, Note Name: G2
Note ON: Time 513840, Note Name: D3, Velocity: 46
Note OFF: Time 514080, Note Name: D3
Note ON: Time 514080, Note Name: C2, Velocity: 64
Note ON: Time 514080, Note Name: C3, Velocity: 64
Note OFF: Time 514560, Note Name: C3
Note OFF: Time 514560, Note Name: C2
Note ON: Time 516960, Note Name: D#2, Velocity: 67
Note OFF: Time 517200, Note Name: D#2
Note ON: Time 517200, Note Name: C3, Velocity: 45
Note OFF: Time 517440, Note Name: C3
Note ON: Time 517440, Note Name: F2, Velocity: 50
Note OFF: Time 517680, Note Name: F2
Note ON: Time 517680, Note Name: C3, Velocity: 47
Note OFF: Time 517920, Note Name: C3
Note ON: Time 517920, Note Name: G2, Velocity: 56
Note OFF: Time 518160, Note Name: G2
Note ON: Time 518160, Note Name: C3, Velocity: 50
Note OFF: Time 518400, Note Name: C3
Note ON: Time 518400, Note Name: E2, Velocity: 67
Note OFF: Time 518640, Note Name: E2
Note ON: Time 518640, Note Name: C3, Velocity: 45
Note OFF: Time 518880, Note Name: C3
Note ON: Time 518880, Note Name: F2, Velocity: 61
Note OFF: Time 519120, Note Name: F2
Note ON: Time 519120, Note Name: C3, Velocity: 47
Note OFF: Time 519360, Note Name: C3
Note ON: Time 519360, Note Name: G2, Velocity: 60
Note OFF: Time 519600, Note Name: G2
Note ON: Time 519600, Note Name: C3, Velocity: 44
Note OFF: Time 519840, Note Name: C3
Note ON: Time 519840, Note Name: F2, Velocity: 65
Note OFF: Time 520080, Note Name: F2
Note ON: Time 520080, Note Name: C3, Velocity: 45
Note OFF: Time 520320, Note Name: C3
Note ON: Time 520320, Note Name: G2, Velocity: 57
Note OFF: Time 520560, Note Name: G2
Note ON: Time 520560, Note Name: C3, Velocity: 42
Note OFF: Time 520800, Note Name: C3
Note ON: Time 520800, Note Name: G#2, Velocity: 58
Note OFF: Time 521040, Note Name: G#2
Note ON: Time 521040, Note Name: C3, Velocity: 45
Note OFF: Time 521280, Note Name: C3
Note ON: Time 521280, Note Name: F#2, Velocity: 67
Note OFF: Time 521520, Note Name: F#2
Note ON: Time 521520, Note Name: C3, Velocity: 51
Note OFF: Time 521760, Note Name: C3
Note ON: Time 521760, Note Name: G2, Velocity: 58
Note OFF: Time 522000, Note Name: G2
Note ON: Time 522000, Note Name: C3, Velocity: 47
Note OFF: Time 522240, Note Name: C3
Note ON: Time 522240, Note Name: A2, Velocity: 58
Note OFF: Time 522480, Note Name: A2
Note ON: Time 522480, Note Name: C3, Velocity: 44
Note OFF: Time 522720, Note Name: C3
Note ON: Time 522720, Note Name: G2, Velocity: 67
Note OFF: Time 522960, Note Name: G2
Note ON: Time 522960, Note Name: C3, Velocity: 51
Note OFF: Time 523200, Note Name: C3
Note ON: Time 523200, Note Name: B2, Velocity: 57
Note OFF: Time 523440, Note Name: B2
Note ON: Time 523440, Note Name: C3, Velocity: 48
Note OFF: Time 523680, Note Name: C3
Note ON: Time 523680, Note Name: G2, Velocity: 61
Note OFF: Time 523920, Note Name: G2
Note ON: Time 523920, Note Name: C3, Velocity: 50
Note OFF: Time 524160, Note Name: C3
Note ON: Time 524160, Note Name: G#2, Velocity: 71
Note OFF: Time 524400, Note Name: G#2
Note ON: Time 524400, Note Name: C3, Velocity: 56
Note OFF: Time 524640, Note Name: C3
Note ON: Time 524640, Note Name: B2, Velocity: 64
Note OFF: Time 524880, Note Name: B2
Note ON: Time 524880, Note Name: C3, Velocity: 55
Note OFF: Time 525120, Note Name: C3
Note ON: Time 525120, Note Name: F#2, Velocity: 65
Note OFF: Time 525360, Note Name: F#2
Note ON: Time 525360, Note Name: C3, Velocity: 54
Note OFF: Time 525600, Note Name: C3
Note ON: Time 525600, Note Name: G2, Velocity: 77
Note OFF: Time 525840, Note Name: G2
Note ON: Time 525840, Note Name: C3, Velocity: 58
Note OFF: Time 526080, Note Name: C3
Note ON: Time 526080, Note Name: B2, Velocity: 68
Note OFF: Time 526320, Note Name: B2
Note ON: Time 526320, Note Name: C3, Velocity: 54
Note OFF: Time 526560, Note Name: C3
Note ON: Time 526560, Note Name: E2, Velocity: 65
Note OFF: Time 526800, Note Name: E2
Note ON: Time 526800, Note Name: C3, Velocity: 50
Note OFF: Time 527040, Note Name: C3
Note ON: Time 527040, Note Name: F2, Velocity: 77
Note OFF: Time 527280, Note Name: F2
Note ON: Time 527280, Note Name: C3, Velocity: 51
Note OFF: Time 527520, Note Name: C3
Note ON: Time 527520, Note Name: G#2, Velocity: 63
Note OFF: Time 527760, Note Name: G#2
Note ON: Time 527760, Note Name: C3, Velocity: 58
Note OFF: Time 528000, Note Name: C3
Note ON: Time 528000, Note Name: F#2, Velocity: 71
Note OFF: Time 528240, Note Name: F#2
Note ON: Time 528240, Note Name: C3, Velocity: 65
Note OFF: Time 528480, Note Name: C3
Note ON: Time 528480, Note Name: G2, Velocity: 82
Note OFF: Time 528960, Note Name: G2
Note ON: Time 528960, Note Name: G3, Velocity: 77
Note ON: Time 528960, Note Name: C4, Velocity: 77
Note ON: Time 528960, Note Name: D#4, Velocity: 87
Note OFF: Time 529080, Note Name: D#4
Note OFF: Time 529080, Note Name: C4
Note OFF: Time 529080, Note Name: G3
Note ON: Time 530400, Note Name: C4, Velocity: 77
Note ON: Time 530400, Note Name: G#3, Velocity: 77
Note ON: Time 530400, Note Name: D#4, Velocity: 87
Note OFF: Time 530520, Note Name: D#4
Note OFF: Time 530520, Note Name: G#3
Note OFF: Time 530520, Note Name: C4
Note ON: Time 531840, Note Name: D#4, Velocity: 87
Note ON: Time 531840, Note Name: G3, Velocity: 77
Note ON: Time 531840, Note Name: C4, Velocity: 77
Note OFF: Time 531960, Note Name: C4
Note OFF: Time 531960, Note Name: G3
Note OFF: Time 531960, Note Name: D#4
Note ON: Time 533280, Note Name: D#4, Velocity: 87
Note ON: Time 533280, Note Name: C4, Velocity: 77
Note ON: Time 533280, Note Name: F#3, Velocity: 77
Note OFF: Time 533400, Note Name: F#3
Note OFF: Time 533400, Note Name: C4
Note OFF: Time 533400, Note Name: D#4
Note ON: Time 534720, Note Name: G3, Velocity: 77
Note ON: Time 534720, Note Name: D#4, Velocity: 87
Note ON: Time 534720, Note Name: C4, Velocity: 77
Note OFF: Time 534840, Note Name: C4
Note OFF: Time 534840, Note Name: D#4
Note OFF: Time 534840, Note Name: G3
Note ON: Time 537120, Note Name: C4, Velocity: 81
Note OFF: Time 537360, Note Name: C4
Note ON: Time 537360, Note Name: G3, Velocity: 77
Note OFF: Time 537540, Note Name: G3
Note ON: Time 537600, Note Name: G3, Velocity: 82
Note OFF: Time 537840, Note Name: G3
Note ON: Time 537840, Note Name: D#3, Velocity: 77
Note OFF: Time 538020, Note Name: D#3
Note ON: Time 538080, Note Name: D#3, Velocity: 83
Note OFF: Time 538320, Note Name: D#3
Note ON: Time 538320, Note Name: C3, Velocity: 77
Note OFF: Time 538500, Note Name: C3
Note ON: Time 538560, Note Name: G2, Velocity: 92
Note ON: Time 538560, Note Name: G1, Velocity: 78
Note ON: Time 539520, Note Name: F3, Velocity: 70
Note ON: Time 539520, Note Name: D3, Velocity: 59
Note OFF: Time 540000, Note Name: D3
Note OFF: Time 540000, Note Name: G2
Note OFF: Time 540000, Note Name: G1
Note OFF: Time 540000, Note Name: F3
Note ON: Time 540000, Note Name: D#3, Velocity: 79
Note ON: Time 540000, Note Name: C2, Velocity: 67
Note OFF: Time 540480, Note Name: C2
Note OFF: Time 540480, Note Name: D#3
Note ON: Time 540480, Note Name: G2, Velocity: 51
Note ON: Time 540960, Note Name: F#2, Velocity: 51
Note OFF: Time 541440, Note Name: F#2
Note ON: Time 541440, Note Name: F2, Velocity: 51
Note OFF: Time 541920, Note Name: F2
Note ON: Time 541920, Note Name: D#2, Velocity: 49
Note OFF: Time 542400, Note Name: D#2
Note ON: Time 542400, Note Name: D2, Velocity: 49
Note OFF: Time 542880, Note Name: D2
Note OFF: Time 542880, Note Name: G2
Note ON: Time 542880, Note Name: C2, Velocity: 51
Note OFF: Time 543360, Note Name: C2
Note ON: Time 543360, Note Name: D#2, Velocity: 47
Note OFF: Time 543840, Note Name: D#2
Note ON: Time 543840, Note Name: G2, Velocity: 47
Note OFF: Time 544320, Note Name: G2
Note ON: Time 544320, Note Name: G1, Velocity: 51
Note OFF: Time 544800, Note Name: G1
Note ON: Time 544800, Note Name: D2, Velocity: 48
Note OFF: Time 545280, Note Name: D2
Note ON: Time 545280, Note Name: G2, Velocity: 48
Note OFF: Time 545760, Note Name: G2
Note ON: Time 545760, Note Name: C2, Velocity: 67
Note OFF: Time 546240, Note Name: C2
Note ON: Time 546240, Note Name: G2, Velocity: 51
Note ON: Time 546720, Note Name: F#2, Velocity: 51
Note OFF: Time 547200, Note Name: F#2
Note ON: Time 547200, Note Name: F2, Velocity: 51
Note OFF: Time 547680, Note Name: F2
Note ON: Time 547680, Note Name: D#2, Velocity: 49
Note OFF: Time 548160, Note Name: D#2
Note ON: Time 548160, Note Name: D2, Velocity: 49
Note OFF: Time 548640, Note Name: D2
Note OFF: Time 548640, Note Name: G2
Note ON: Time 548640, Note Name: C2, Velocity: 51
Note OFF: Time 549120, Note Name: C2
Note ON: Time 549120, Note Name: D#2, Velocity: 47
Note OFF: Time 549600, Note Name: D#2
Note ON: Time 549600, Note Name: G2, Velocity: 47
Note OFF: Time 550080, Note Name: G2
Note ON: Time 550080, Note Name: G1, Velocity: 51
Note OFF: Time 550560, Note Name: G1
Note ON: Time 550560, Note Name: D2, Velocity: 48
Note OFF: Time 551040, Note Name: D2
Note ON: Time 551040, Note Name: G2, Velocity: 48
Note OFF: Time 551520, Note Name: G2
Note ON: Time 551520, Note Name: C2, Velocity: 51
Note OFF: Time 552000, Note Name: C2
Note ON: Time 552000, Note Name: D#2, Velocity: 47
Note OFF: Time 552480, Note Name: D#2
Note ON: Time 552480, Note Name: G2, Velocity: 47
Note OFF: Time 552960, Note Name: G2
Note ON: Time 552960, Note Name: G1, Velocity: 51
Note OFF: Time 553440, Note Name: G1
Note ON: Time 553440, Note Name: D2, Velocity: 48
Note OFF: Time 553920, Note Name: D2
Note ON: Time 553920, Note Name: G2, Velocity: 48
Note OFF: Time 554400, Note Name: G2
Note ON: Time 554400, Note Name: C2, Velocity: 51
Note OFF: Time 554880, Note Name: C2
Note ON: Time 555840, Note Name: G1, Velocity: 60
Note ON: Time 555840, Note Name: B1, Velocity: 60
Note ON: Time 555840, Note Name: D2, Velocity: 60
Note ON: Time 555840, Note Name: G2, Velocity: 71
Note OFF: Time 556320, Note Name: G2
Note OFF: Time 556320, Note Name: G1
Note OFF: Time 556320, Note Name: B1
Note OFF: Time 556320, Note Name: D2
Note ON: Time 557280, Note Name: C2, Velocity: 60
Note ON: Time 557280, Note Name: D#2, Velocity: 60
Note ON: Time 557280, Note Name: G2, Velocity: 60
Note ON: Time 557280, Note Name: C3, Velocity: 71
Note OFF: Time 557760, Note Name: C3
Note OFF: Time 557760, Note Name: C2
Note OFF: Time 557760, Note Name: D#2
Note OFF: Time 557760, Note Name: G2
Track 3: Pedale
Track 4: Beethoven: Sonate Nr. 5 - 1. Satz
Track 5: Copyright  2008 by Bernd Krueger
Track 6: http://www.piano-midi.de/
Track 7: Edition: 2012-05-02
Track 8: Spur 8
Track 9: Spur 9
Track 10: Spur 10
Track 11: Spur 11
Track 12: Spur 12
Track 13: Spur 13
Track 14: Spur 14
Track 15: Spur 15
Track 16: Spur 16
