Processing beethoven_hammerklavier_2.mid...

Track 0: Hammerklaviersonate  2. Satz
Track 1: Piano right
Note ON: Time 480, Note Name: D5, Velocity: 50
Note OFF: Time 660, Note Name: D5
Note ON: Time 660, Note Name: A4, Velocity: 42
Note ON: Time 660, Note Name: F5, Velocity: 50
Note OFF: Time 714, Note Name: F5
Note OFF: Time 714, Note Name: A4
Note ON: Time 720, Note Name: C5, Velocity: 53
Note ON: Time 720, Note Name: F5, Velocity: 62
Note OFF: Time 960, Note Name: F5
Note OFF: Time 960, Note Name: C5
Note ON: Time 960, Note Name: F4, Velocity: 46
Note ON: Time 960, Note Name: D5, Velocity: 55
Note OFF: Time 1080, Note Name: D5
Note OFF: Time 1080, Note Name: F4
Note ON: Time 1200, Note Name: A#4, Velocity: 50
Note OFF: Time 1380, Note Name: A#4
Note ON: Time 1380, Note Name: F#4, Velocity: 42
Note ON: Time 1380, Note Name: D5, Velocity: 50
Note OFF: Time 1434, Note Name: D5
Note OFF: Time 1434, Note Name: F#4
Note ON: Time 1440, Note Name: A4, Velocity: 53
Note ON: Time 1440, Note Name: D5, Velocity: 62
Note OFF: Time 1680, Note Name: D5
Note OFF: Time 1680, Note Name: A4
Note ON: Time 1680, Note Name: D4, Velocity: 46
Note ON: Time 1680, Note Name: A#4, Velocity: 55
Note OFF: Time 1800, Note Name: A#4
Note OFF: Time 1800, Note Name: D4
Note ON: Time 1920, Note Name: G4, Velocity: 52
Note OFF: Time 2100, Note Name: G4
Note ON: Time 2100, Note Name: D4, Velocity: 44
Note ON: Time 2100, Note Name: A#4, Velocity: 53
Note OFF: Time 2154, Note Name: A#4
Note OFF: Time 2154, Note Name: D4
Note ON: Time 2160, Note Name: F4, Velocity: 57
Note ON: Time 2160, Note Name: A#4, Velocity: 66
Note OFF: Time 2400, Note Name: A#4
Note OFF: Time 2400, Note Name: F4
Note ON: Time 2400, Note Name: A#3, Velocity: 51
Note ON: Time 2400, Note Name: G4, Velocity: 61
Note OFF: Time 2520, Note Name: G4
Note OFF: Time 2520, Note Name: A#3
Note ON: Time 2640, Note Name: A#3, Velocity: 47
Note ON: Time 2640, Note Name: G4, Velocity: 57
Note OFF: Time 2820, Note Name: G4
Note OFF: Time 2820, Note Name: A#3
Note ON: Time 2820, Note Name: D#4, Velocity: 48
Note ON: Time 2820, Note Name: A4, Velocity: 58
Note OFF: Time 2874, Note Name: A4
Note OFF: Time 2874, Note Name: D#4
Note ON: Time 2880, Note Name: D#4, Velocity: 62
Note ON: Time 2880, Note Name: A4, Velocity: 72
Note OFF: Time 3120, Note Name: A4
Note OFF: Time 3120, Note Name: D#4
Note ON: Time 3120, Note Name: A#3, Velocity: 55
Note ON: Time 3120, Note Name: A#4, Velocity: 66
Note OFF: Time 3240, Note Name: A#4
Note OFF: Time 3240, Note Name: A#3
Note ON: Time 3360, Note Name: F4, Velocity: 51
Note ON: Time 3360, Note Name: A#4, Velocity: 61
Note OFF: Time 3540, Note Name: A#4
Note ON: Time 3540, Note Name: C5, Velocity: 63
Note OFF: Time 3594, Note Name: C5
Note OFF: Time 3600, Note Name: F4
Note ON: Time 3600, Note Name: F4, Velocity: 67
Note ON: Time 3600, Note Name: C5, Velocity: 79
Note OFF: Time 3840, Note Name: C5
Note OFF: Time 3840, Note Name: F4
Note ON: Time 3840, Note Name: A#4, Velocity: 60
Note ON: Time 3840, Note Name: F4, Velocity: 60
Note ON: Time 3840, Note Name: D5, Velocity: 72
Note OFF: Time 3960, Note Name: D5
Note OFF: Time 3960, Note Name: F4
Note OFF: Time 3960, Note Name: A#4
Note ON: Time 4080, Note Name: A#4, Velocity: 56
Note ON: Time 4080, Note Name: D5, Velocity: 67
Note OFF: Time 4260, Note Name: D5
Note ON: Time 4260, Note Name: D#5, Velocity: 70
Note OFF: Time 4314, Note Name: D#5
Note OFF: Time 4320, Note Name: A#4
Note ON: Time 4320, Note Name: A#4, Velocity: 75
Note ON: Time 4320, Note Name: D#5, Velocity: 88
Note OFF: Time 4560, Note Name: D#5
Note OFF: Time 4560, Note Name: A#4
Note ON: Time 4560, Note Name: C#5, Velocity: 68
Note ON: Time 4560, Note Name: A#4, Velocity: 68
Note ON: Time 4560, Note Name: F4, Velocity: 68
Note ON: Time 4560, Note Name: F5, Velocity: 82
Note OFF: Time 4620, Note Name: F5
Note OFF: Time 4620, Note Name: C#5
Note OFF: Time 4620, Note Name: A#4
Note OFF: Time 4620, Note Name: F4
Note ON: Time 4800, Note Name: G4, Velocity: 79
Note ON: Time 4800, Note Name: A#4, Velocity: 79
Note ON: Time 4800, Note Name: C5, Velocity: 79
Note ON: Time 4800, Note Name: G5, Velocity: 94
Note OFF: Time 4860, Note Name: G5
Note OFF: Time 4860, Note Name: G4
Note OFF: Time 4860, Note Name: A#4
Note OFF: Time 4860, Note Name: C5
Note ON: Time 5040, Note Name: C4, Velocity: 79
Note ON: Time 5040, Note Name: A4, Velocity: 79
Note ON: Time 5040, Note Name: C5, Velocity: 94
Note OFF: Time 5160, Note Name: C5
Note OFF: Time 5160, Note Name: A4
Note OFF: Time 5160, Note Name: C4
Note ON: Time 5520, Note Name: D6, Velocity: 50
Note OFF: Time 5700, Note Name: D6
Note ON: Time 5700, Note Name: A5, Velocity: 42
Note ON: Time 5700, Note Name: F6, Velocity: 50
Note OFF: Time 5754, Note Name: F6
Note OFF: Time 5754, Note Name: A5
Note ON: Time 5760, Note Name: C6, Velocity: 53
Note ON: Time 5760, Note Name: F6, Velocity: 62
Note OFF: Time 6000, Note Name: F6
Note OFF: Time 6000, Note Name: C6
Note ON: Time 6000, Note Name: F5, Velocity: 46
Note ON: Time 6000, Note Name: D6, Velocity: 55
Note OFF: Time 6120, Note Name: D6
Note OFF: Time 6120, Note Name: F5
Note ON: Time 6240, Note Name: A#5, Velocity: 50
Note OFF: Time 6420, Note Name: A#5
Note ON: Time 6420, Note Name: F#5, Velocity: 42
Note ON: Time 6420, Note Name: D6, Velocity: 50
Note OFF: Time 6474, Note Name: D6
Note OFF: Time 6474, Note Name: F#5
Note ON: Time 6480, Note Name: A5, Velocity: 53
Note ON: Time 6480, Note Name: D6, Velocity: 62
Note OFF: Time 6720, Note Name: D6
Note OFF: Time 6720, Note Name: A5
Note ON: Time 6720, Note Name: D5, Velocity: 46
Note ON: Time 6720, Note Name: A#5, Velocity: 55
Note OFF: Time 6840, Note Name: A#5
Note OFF: Time 6840, Note Name: D5
Note ON: Time 6960, Note Name: G5, Velocity: 52
Note OFF: Time 7140, Note Name: G5
Note ON: Time 7140, Note Name: D5, Velocity: 44
Note ON: Time 7140, Note Name: A#5, Velocity: 53
Note OFF: Time 7194, Note Name: A#5
Note OFF: Time 7194, Note Name: D5
Note ON: Time 7200, Note Name: F5, Velocity: 57
Note ON: Time 7200, Note Name: A#5, Velocity: 66
Note OFF: Time 7440, Note Name: A#5
Note OFF: Time 7440, Note Name: F5
Note ON: Time 7440, Note Name: A#4, Velocity: 51
Note ON: Time 7440, Note Name: G5, Velocity: 61
Note OFF: Time 7560, Note Name: G5
Note OFF: Time 7560, Note Name: A#4
Note ON: Time 7680, Note Name: A#4, Velocity: 47
Note ON: Time 7680, Note Name: G5, Velocity: 57
Note OFF: Time 7860, Note Name: G5
Note OFF: Time 7860, Note Name: A#4
Note ON: Time 7860, Note Name: D#5, Velocity: 48
Note ON: Time 7860, Note Name: A5, Velocity: 58
Note OFF: Time 7914, Note Name: A5
Note OFF: Time 7914, Note Name: D#5
Note ON: Time 7920, Note Name: D#5, Velocity: 62
Note ON: Time 7920, Note Name: A5, Velocity: 72
Note OFF: Time 8160, Note Name: A5
Note OFF: Time 8160, Note Name: D#5
Note ON: Time 8160, Note Name: A#4, Velocity: 55
Note ON: Time 8160, Note Name: A#5, Velocity: 66
Note OFF: Time 8280, Note Name: A#5
Note OFF: Time 8280, Note Name: A#4
Note ON: Time 8400, Note Name: F5, Velocity: 51
Note ON: Time 8400, Note Name: A#5, Velocity: 61
Note OFF: Time 8580, Note Name: A#5
Note ON: Time 8580, Note Name: C6, Velocity: 63
Note OFF: Time 8634, Note Name: C6
Note OFF: Time 8640, Note Name: F5
Note ON: Time 8640, Note Name: F5, Velocity: 67
Note ON: Time 8640, Note Name: C6, Velocity: 79
Note OFF: Time 8880, Note Name: C6
Note OFF: Time 8880, Note Name: F5
Note ON: Time 8880, Note Name: F5, Velocity: 60
Note ON: Time 8880, Note Name: D6, Velocity: 72
Note OFF: Time 9000, Note Name: D6
Note OFF: Time 9000, Note Name: F5
Note ON: Time 9120, Note Name: A#5, Velocity: 56
Note ON: Time 9120, Note Name: D#6, Velocity: 67
Note OFF: Time 9300, Note Name: D#6
Note ON: Time 9300, Note Name: E6, Velocity: 70
Note OFF: Time 9354, Note Name: E6
Note OFF: Time 9360, Note Name: A#5
Note ON: Time 9360, Note Name: A#5, Velocity: 75
Note ON: Time 9360, Note Name: E6, Velocity: 88
Note OFF: Time 9600, Note Name: E6
Note OFF: Time 9600, Note Name: A#5
Note ON: Time 9600, Note Name: A5, Velocity: 68
Note ON: Time 9600, Note Name: F5, Velocity: 68
Note ON: Time 9600, Note Name: F6, Velocity: 82
Note OFF: Time 9660, Note Name: F6
Note OFF: Time 9660, Note Name: F5
Note OFF: Time 9660, Note Name: A5
Note ON: Time 9840, Note Name: G5, Velocity: 79
Note ON: Time 9840, Note Name: A#5, Velocity: 79
Note ON: Time 9840, Note Name: E6, Velocity: 79
Note ON: Time 9840, Note Name: G6, Velocity: 94
Note OFF: Time 9900, Note Name: G6
Note OFF: Time 9900, Note Name: G5
Note OFF: Time 9900, Note Name: A#5
Note OFF: Time 9900, Note Name: E6
Note ON: Time 10080, Note Name: F5, Velocity: 79
Note ON: Time 10080, Note Name: A5, Velocity: 79
Note ON: Time 10080, Note Name: F6, Velocity: 94
Note OFF: Time 10200, Note Name: F6
Note OFF: Time 10200, Note Name: A5
Note OFF: Time 10200, Note Name: F5
Note ON: Time 10560, Note Name: B4, Velocity: 43
Note ON: Time 10560, Note Name: D5, Velocity: 50
Note OFF: Time 10740, Note Name: D5
Note OFF: Time 10740, Note Name: B4
Note ON: Time 10740, Note Name: D5, Velocity: 42
Note ON: Time 10740, Note Name: F5, Velocity: 50
Note OFF: Time 10785, Note Name: F5
Note OFF: Time 10785, Note Name: D5
Note ON: Time 10800, Note Name: D5, Velocity: 53
Note ON: Time 10800, Note Name: F5, Velocity: 62
Note OFF: Time 11040, Note Name: F5
Note OFF: Time 11040, Note Name: D5
Note ON: Time 11040, Note Name: B4, Velocity: 46
Note ON: Time 11040, Note Name: D5, Velocity: 55
Note OFF: Time 11160, Note Name: D5
Note OFF: Time 11160, Note Name: B4
Note ON: Time 11280, Note Name: B4, Velocity: 43
Note ON: Time 11280, Note Name: D5, Velocity: 50
Note OFF: Time 11460, Note Name: D5
Note OFF: Time 11460, Note Name: B4
Note ON: Time 11460, Note Name: D#5, Velocity: 42
Note ON: Time 11460, Note Name: G5, Velocity: 50
Note OFF: Time 11505, Note Name: G5
Note OFF: Time 11505, Note Name: D#5
Note ON: Time 11520, Note Name: D#5, Velocity: 53
Note ON: Time 11520, Note Name: G5, Velocity: 62
Note OFF: Time 11760, Note Name: G5
Note OFF: Time 11760, Note Name: D#5
Note ON: Time 11760, Note Name: C5, Velocity: 46
Note ON: Time 11760, Note Name: D#5, Velocity: 55
Note OFF: Time 11880, Note Name: D#5
Note OFF: Time 11880, Note Name: C5
Note ON: Time 12000, Note Name: A4, Velocity: 43
Note ON: Time 12000, Note Name: C5, Velocity: 50
Note OFF: Time 12180, Note Name: C5
Note OFF: Time 12180, Note Name: A4
Note ON: Time 12180, Note Name: C5, Velocity: 42
Note ON: Time 12180, Note Name: D#5, Velocity: 50
Note OFF: Time 12225, Note Name: D#5
Note OFF: Time 12225, Note Name: C5
Note ON: Time 12240, Note Name: C5, Velocity: 53
Note ON: Time 12240, Note Name: D#5, Velocity: 62
Note OFF: Time 12480, Note Name: D#5
Note OFF: Time 12480, Note Name: C5
Note ON: Time 12480, Note Name: A4, Velocity: 46
Note ON: Time 12480, Note Name: C5, Velocity: 55
Note OFF: Time 12600, Note Name: C5
Note OFF: Time 12600, Note Name: A4
Note ON: Time 12720, Note Name: A4, Velocity: 43
Note ON: Time 12720, Note Name: C5, Velocity: 50
Note OFF: Time 12900, Note Name: C5
Note OFF: Time 12900, Note Name: A4
Note ON: Time 12900, Note Name: C#5, Velocity: 42
Note ON: Time 12900, Note Name: F5, Velocity: 50
Note OFF: Time 12945, Note Name: F5
Note OFF: Time 12945, Note Name: C#5
Note ON: Time 12960, Note Name: D5, Velocity: 53
Note ON: Time 12960, Note Name: F5, Velocity: 62
Note OFF: Time 13200, Note Name: F5
Note OFF: Time 13200, Note Name: D5
Note ON: Time 13200, Note Name: A#4, Velocity: 46
Note ON: Time 13200, Note Name: D5, Velocity: 55
Note OFF: Time 13320, Note Name: D5
Note OFF: Time 13320, Note Name: A#4
Note ON: Time 13440, Note Name: A3, Velocity: 38
Note ON: Time 13440, Note Name: C4, Velocity: 45
Note OFF: Time 13620, Note Name: C4
Note OFF: Time 13620, Note Name: A3
Note ON: Time 13620, Note Name: C4, Velocity: 37
Note ON: Time 13620, Note Name: D#4, Velocity: 45
Note OFF: Time 13665, Note Name: D#4
Note OFF: Time 13665, Note Name: C4
Note ON: Time 13680, Note Name: C4, Velocity: 47
Note ON: Time 13680, Note Name: D#4, Velocity: 55
Note OFF: Time 14160, Note Name: D#4
Note OFF: Time 14160, Note Name: C4
Note ON: Time 14160, Note Name: A#3, Velocity: 40
Note ON: Time 14160, Note Name: D4, Velocity: 48
Note OFF: Time 14400, Note Name: D4
Note OFF: Time 14400, Note Name: A#3
Note ON: Time 14400, Note Name: A3, Velocity: 39
Note ON: Time 14400, Note Name: C4, Velocity: 46
Note OFF: Time 14640, Note Name: C4
Note OFF: Time 14640, Note Name: A3
Note ON: Time 14640, Note Name: G3, Velocity: 38
Note ON: Time 14640, Note Name: A#3, Velocity: 45
Note OFF: Time 14880, Note Name: A#3
Note OFF: Time 14880, Note Name: G3
Note ON: Time 14880, Note Name: F3, Velocity: 36
Note ON: Time 14880, Note Name: A3, Velocity: 43
Note OFF: Time 15360, Note Name: A3
Note OFF: Time 15360, Note Name: F3
Note ON: Time 15360, Note Name: E3, Velocity: 33
Note ON: Time 15360, Note Name: G3, Velocity: 39
Note OFF: Time 15600, Note Name: G3
Note OFF: Time 15600, Note Name: E3
Note ON: Time 15600, Note Name: D#3, Velocity: 32
Note ON: Time 15600, Note Name: G3, Velocity: 32
Note ON: Time 15600, Note Name: C4, Velocity: 38
Note OFF: Time 16080, Note Name: C4
Note OFF: Time 16080, Note Name: D#3
Note ON: Time 16080, Note Name: D3, Velocity: 32
Note ON: Time 16080, Note Name: B3, Velocity: 38
Note OFF: Time 16320, Note Name: B3
Note OFF: Time 16320, Note Name: D3
Note OFF: Time 16320, Note Name: G3
Note ON: Time 17040, Note Name: B3, Velocity: 40
Note OFF: Time 17220, Note Name: B3
Note ON: Time 17220, Note Name: D4, Velocity: 40
Note OFF: Time 17274, Note Name: D4
Note ON: Time 17280, Note Name: D4, Velocity: 49
Note OFF: Time 17520, Note Name: D4
Note ON: Time 17520, Note Name: B3, Velocity: 44
Note OFF: Time 17640, Note Name: B3
Note ON: Time 17760, Note Name: D4, Velocity: 33
Note ON: Time 17760, Note Name: B4, Velocity: 40
Note OFF: Time 17940, Note Name: B4
Note ON: Time 17940, Note Name: D5, Velocity: 40
Note OFF: Time 17994, Note Name: D5
Note ON: Time 18000, Note Name: D5, Velocity: 49
Note OFF: Time 18240, Note Name: D5
Note ON: Time 18240, Note Name: B4, Velocity: 44
Note OFF: Time 18360, Note Name: B4
Note OFF: Time 18360, Note Name: D4
Note ON: Time 18480, Note Name: C6, Velocity: 46
Note OFF: Time 18660, Note Name: C6
Note ON: Time 18660, Note Name: D#6, Velocity: 46
Note OFF: Time 18714, Note Name: D#6
Note ON: Time 18720, Note Name: D#6, Velocity: 56
Note OFF: Time 18960, Note Name: D#6
Note ON: Time 18960, Note Name: C6, Velocity: 50
Note OFF: Time 19080, Note Name: C6
Note ON: Time 19200, Note Name: D4, Velocity: 43
Note ON: Time 19200, Note Name: B4, Velocity: 50
Note OFF: Time 19380, Note Name: B4
Note OFF: Time 19380, Note Name: D4
Note ON: Time 19380, Note Name: F4, Velocity: 42
Note ON: Time 19380, Note Name: D5, Velocity: 50
Note OFF: Time 19425, Note Name: D5
Note OFF: Time 19425, Note Name: F4
Note ON: Time 19440, Note Name: F4, Velocity: 53
Note ON: Time 19440, Note Name: D5, Velocity: 62
Note OFF: Time 19680, Note Name: D5
Note OFF: Time 19680, Note Name: F4
Note ON: Time 19680, Note Name: D4, Velocity: 47
Note ON: Time 19680, Note Name: B4, Velocity: 56
Note OFF: Time 19800, Note Name: B4
Note OFF: Time 19800, Note Name: D4
Note ON: Time 19920, Note Name: D4, Velocity: 51
Note ON: Time 19920, Note Name: B4, Velocity: 59
Note OFF: Time 20100, Note Name: B4
Note OFF: Time 20100, Note Name: D4
Note ON: Time 20100, Note Name: G4, Velocity: 50
Note ON: Time 20100, Note Name: D#5, Velocity: 60
Note OFF: Time 20145, Note Name: D#5
Note OFF: Time 20145, Note Name: G4
Note ON: Time 20160, Note Name: G4, Velocity: 63
Note ON: Time 20160, Note Name: D#5, Velocity: 75
Note OFF: Time 20400, Note Name: D#5
Note OFF: Time 20400, Note Name: G4
Note ON: Time 20400, Note Name: D#4, Velocity: 56
Note ON: Time 20400, Note Name: C5, Velocity: 68
Note OFF: Time 20520, Note Name: C5
Note OFF: Time 20520, Note Name: D#4
Note ON: Time 20640, Note Name: A4, Velocity: 61
Note ON: Time 20640, Note Name: C5, Velocity: 73
Note OFF: Time 20820, Note Name: C5
Note OFF: Time 20820, Note Name: A4
Note ON: Time 20820, Note Name: C5, Velocity: 66
Note ON: Time 20820, Note Name: A5, Velocity: 75
Note OFF: Time 20874, Note Name: A5
Note OFF: Time 20874, Note Name: C5
Note ON: Time 20880, Note Name: C5, Velocity: 80
Note ON: Time 20880, Note Name: A5, Velocity: 94
Note OFF: Time 21120, Note Name: A5
Note OFF: Time 21120, Note Name: C5
Note ON: Time 21120, Note Name: A4, Velocity: 71
Note ON: Time 21120, Note Name: F5, Velocity: 85
Note OFF: Time 21180, Note Name: F5
Note OFF: Time 21180, Note Name: A4
Note ON: Time 21360, Note Name: A#4, Velocity: 86
Note ON: Time 21360, Note Name: A#5, Velocity: 103
Note OFF: Time 21420, Note Name: A#5
Note OFF: Time 21420, Note Name: A#4
Note ON: Time 21600, Note Name: A#4, Velocity: 86
Note ON: Time 21600, Note Name: A#5, Velocity: 103
Note OFF: Time 21720, Note Name: A#5
Note OFF: Time 21720, Note Name: A#4
Note ON: Time 22080, Note Name: B5, Velocity: 43
Note ON: Time 22080, Note Name: D6, Velocity: 50
Note OFF: Time 22260, Note Name: D6
Note OFF: Time 22260, Note Name: B5
Note ON: Time 22260, Note Name: D6, Velocity: 42
Note ON: Time 22260, Note Name: F6, Velocity: 50
Note OFF: Time 22305, Note Name: F6
Note OFF: Time 22305, Note Name: D6
Note ON: Time 22320, Note Name: D6, Velocity: 53
Note ON: Time 22320, Note Name: F6, Velocity: 62
Note OFF: Time 22560, Note Name: F6
Note OFF: Time 22560, Note Name: D6
Note ON: Time 22560, Note Name: B5, Velocity: 46
Note ON: Time 22560, Note Name: D6, Velocity: 55
Note OFF: Time 22680, Note Name: D6
Note OFF: Time 22680, Note Name: B5
Note ON: Time 22800, Note Name: B5, Velocity: 43
Note ON: Time 22800, Note Name: D6, Velocity: 50
Note OFF: Time 22980, Note Name: D6
Note OFF: Time 22980, Note Name: B5
Note ON: Time 22980, Note Name: D#6, Velocity: 42
Note ON: Time 22980, Note Name: G6, Velocity: 50
Note OFF: Time 23025, Note Name: G6
Note OFF: Time 23025, Note Name: D#6
Note ON: Time 23040, Note Name: D#6, Velocity: 53
Note ON: Time 23040, Note Name: G6, Velocity: 62
Note OFF: Time 23280, Note Name: G6
Note OFF: Time 23280, Note Name: D#6
Note ON: Time 23280, Note Name: C6, Velocity: 46
Note ON: Time 23280, Note Name: D#6, Velocity: 55
Note OFF: Time 23400, Note Name: D#6
Note OFF: Time 23400, Note Name: C6
Note ON: Time 23520, Note Name: A5, Velocity: 43
Note ON: Time 23520, Note Name: C6, Velocity: 50
Note OFF: Time 23700, Note Name: C6
Note OFF: Time 23700, Note Name: A5
Note ON: Time 23700, Note Name: C6, Velocity: 42
Note ON: Time 23700, Note Name: D#6, Velocity: 50
Note OFF: Time 23745, Note Name: D#6
Note OFF: Time 23745, Note Name: C6
Note ON: Time 23760, Note Name: C6, Velocity: 53
Note ON: Time 23760, Note Name: D#6, Velocity: 62
Note OFF: Time 24000, Note Name: D#6
Note OFF: Time 24000, Note Name: C6
Note ON: Time 24000, Note Name: A5, Velocity: 46
Note ON: Time 24000, Note Name: C6, Velocity: 55
Note OFF: Time 24120, Note Name: C6
Note OFF: Time 24120, Note Name: A5
Note ON: Time 24240, Note Name: A5, Velocity: 43
Note ON: Time 24240, Note Name: C6, Velocity: 50
Note OFF: Time 24420, Note Name: C6
Note OFF: Time 24420, Note Name: A5
Note ON: Time 24420, Note Name: C#6, Velocity: 42
Note ON: Time 24420, Note Name: F6, Velocity: 50
Note OFF: Time 24465, Note Name: F6
Note OFF: Time 24465, Note Name: C#6
Note ON: Time 24480, Note Name: D6, Velocity: 53
Note ON: Time 24480, Note Name: F6, Velocity: 62
Note OFF: Time 24720, Note Name: F6
Note OFF: Time 24720, Note Name: D6
Note ON: Time 24720, Note Name: A#5, Velocity: 46
Note ON: Time 24720, Note Name: D6, Velocity: 55
Note OFF: Time 24840, Note Name: D6
Note OFF: Time 24840, Note Name: A#5
Note ON: Time 24960, Note Name: A4, Velocity: 38
Note ON: Time 24960, Note Name: C5, Velocity: 45
Note OFF: Time 25140, Note Name: C5
Note OFF: Time 25140, Note Name: A4
Note ON: Time 25140, Note Name: C5, Velocity: 37
Note ON: Time 25140, Note Name: D#5, Velocity: 45
Note OFF: Time 25185, Note Name: D#5
Note OFF: Time 25185, Note Name: C5
Note ON: Time 25200, Note Name: C5, Velocity: 47
Note ON: Time 25200, Note Name: D#5, Velocity: 55
Note OFF: Time 25680, Note Name: D#5
Note OFF: Time 25680, Note Name: C5
Note ON: Time 25680, Note Name: A#4, Velocity: 40
Note ON: Time 25680, Note Name: D5, Velocity: 48
Note OFF: Time 25920, Note Name: D5
Note OFF: Time 25920, Note Name: A#4
Note ON: Time 25920, Note Name: A4, Velocity: 39
Note ON: Time 25920, Note Name: C5, Velocity: 46
Note OFF: Time 26160, Note Name: C5
Note OFF: Time 26160, Note Name: A4
Note ON: Time 26160, Note Name: G4, Velocity: 38
Note ON: Time 26160, Note Name: A#4, Velocity: 45
Note OFF: Time 26400, Note Name: A#4
Note OFF: Time 26400, Note Name: G4
Note ON: Time 26400, Note Name: F4, Velocity: 36
Note ON: Time 26400, Note Name: A4, Velocity: 43
Note OFF: Time 26880, Note Name: A4
Note OFF: Time 26880, Note Name: F4
Note ON: Time 26880, Note Name: E4, Velocity: 33
Note ON: Time 26880, Note Name: G4, Velocity: 39
Note OFF: Time 27120, Note Name: G4
Note OFF: Time 27120, Note Name: E4
Note ON: Time 27120, Note Name: D#4, Velocity: 32
Note ON: Time 27120, Note Name: G4, Velocity: 32
Note ON: Time 27120, Note Name: C5, Velocity: 38
Note OFF: Time 27600, Note Name: C5
Note OFF: Time 27600, Note Name: D#4
Note ON: Time 27600, Note Name: D4, Velocity: 32
Note ON: Time 27600, Note Name: B4, Velocity: 38
Note OFF: Time 27840, Note Name: B4
Note OFF: Time 27840, Note Name: D4
Note OFF: Time 27840, Note Name: G4
Note ON: Time 28560, Note Name: B4, Velocity: 40
Note OFF: Time 28740, Note Name: B4
Note ON: Time 28740, Note Name: D5, Velocity: 40
Note OFF: Time 28794, Note Name: D5
Note ON: Time 28800, Note Name: D5, Velocity: 49
Note OFF: Time 29040, Note Name: D5
Note ON: Time 29040, Note Name: B4, Velocity: 44
Note OFF: Time 29160, Note Name: B4
Note ON: Time 29280, Note Name: D5, Velocity: 33
Note ON: Time 29280, Note Name: B5, Velocity: 40
Note OFF: Time 29460, Note Name: B5
Note ON: Time 29460, Note Name: D6, Velocity: 40
Note OFF: Time 29514, Note Name: D6
Note ON: Time 29520, Note Name: D6, Velocity: 49
Note OFF: Time 29760, Note Name: D6
Note ON: Time 29760, Note Name: B5, Velocity: 44
Note OFF: Time 29880, Note Name: B5
Note OFF: Time 29880, Note Name: D5
Note ON: Time 30000, Note Name: C5, Velocity: 46
Note OFF: Time 30180, Note Name: C5
Note ON: Time 30180, Note Name: D#5, Velocity: 46
Note OFF: Time 30234, Note Name: D#5
Note ON: Time 30240, Note Name: D#5, Velocity: 56
Note OFF: Time 30480, Note Name: D#5
Note ON: Time 30480, Note Name: C5, Velocity: 50
Note OFF: Time 30600, Note Name: C5
Note ON: Time 30720, Note Name: D5, Velocity: 43
Note ON: Time 30720, Note Name: B5, Velocity: 50
Note OFF: Time 30900, Note Name: B5
Note OFF: Time 30900, Note Name: D5
Note ON: Time 30900, Note Name: F5, Velocity: 42
Note ON: Time 30900, Note Name: D6, Velocity: 50
Note OFF: Time 30945, Note Name: D6
Note OFF: Time 30945, Note Name: F5
Note ON: Time 30960, Note Name: F5, Velocity: 54
Note ON: Time 30960, Note Name: D6, Velocity: 63
Note OFF: Time 31200, Note Name: D6
Note OFF: Time 31200, Note Name: F5
Note ON: Time 31200, Note Name: D5, Velocity: 48
Note ON: Time 31200, Note Name: B5, Velocity: 57
Note OFF: Time 31320, Note Name: B5
Note OFF: Time 31320, Note Name: D5
Note ON: Time 31440, Note Name: D5, Velocity: 52
Note ON: Time 31440, Note Name: B5, Velocity: 60
Note OFF: Time 31620, Note Name: B5
Note OFF: Time 31620, Note Name: D5
Note ON: Time 31620, Note Name: G5, Velocity: 52
Note ON: Time 31620, Note Name: D#6, Velocity: 62
Note OFF: Time 31665, Note Name: D#6
Note OFF: Time 31665, Note Name: G5
Note ON: Time 31680, Note Name: G5, Velocity: 66
Note ON: Time 31680, Note Name: D#6, Velocity: 78
Note OFF: Time 31920, Note Name: D#6
Note OFF: Time 31920, Note Name: G5
Note ON: Time 31920, Note Name: D#5, Velocity: 58
Note ON: Time 31920, Note Name: C6, Velocity: 70
Note OFF: Time 32040, Note Name: C6
Note OFF: Time 32040, Note Name: D#5
Note ON: Time 32160, Note Name: A5, Velocity: 64
Note ON: Time 32160, Note Name: C6, Velocity: 77
Note OFF: Time 32340, Note Name: C6
Note OFF: Time 32340, Note Name: A5
Note ON: Time 32340, Note Name: C6, Velocity: 69
Note ON: Time 32340, Note Name: A6, Velocity: 79
Note OFF: Time 32394, Note Name: A6
Note OFF: Time 32394, Note Name: C6
Note ON: Time 32400, Note Name: C6, Velocity: 83
Note ON: Time 32400, Note Name: A6, Velocity: 98
Note OFF: Time 32640, Note Name: A6
Note OFF: Time 32640, Note Name: C6
Note ON: Time 32640, Note Name: A5, Velocity: 74
Note ON: Time 32640, Note Name: F6, Velocity: 89
Note OFF: Time 32700, Note Name: F6
Note OFF: Time 32700, Note Name: A5
Note ON: Time 32880, Note Name: A#5, Velocity: 94
Note ON: Time 32880, Note Name: A#6, Velocity: 112
Note OFF: Time 32940, Note Name: A#6
Note OFF: Time 32940, Note Name: A#5
Note ON: Time 33120, Note Name: A#5, Velocity: 94
Note ON: Time 33120, Note Name: A#6, Velocity: 112
Note OFF: Time 33240, Note Name: A#6
Note OFF: Time 33240, Note Name: A#5
Note ON: Time 33600, Note Name: C#5, Velocity: 52
Note ON: Time 33600, Note Name: C#6, Velocity: 62
Note OFF: Time 34080, Note Name: C#6
Note OFF: Time 34080, Note Name: C#5
Note ON: Time 34080, Note Name: F6, Velocity: 58
Note ON: Time 34080, Note Name: F5, Velocity: 58
Note OFF: Time 34320, Note Name: F5
Note OFF: Time 34320, Note Name: F6
Note ON: Time 34320, Note Name: C#5, Velocity: 52
Note ON: Time 34320, Note Name: C#6, Velocity: 62
Note OFF: Time 34800, Note Name: C#6
Note OFF: Time 34800, Note Name: C#5
Note ON: Time 34800, Note Name: A#4, Velocity: 52
Note ON: Time 34800, Note Name: A#5, Velocity: 62
Note OFF: Time 35040, Note Name: A#5
Note OFF: Time 35040, Note Name: A#4
Note ON: Time 35040, Note Name: F4, Velocity: 48
Note ON: Time 35040, Note Name: F5, Velocity: 57
Note OFF: Time 35280, Note Name: F5
Note OFF: Time 35280, Note Name: F4
Note ON: Time 35280, Note Name: A#4, Velocity: 53
Note ON: Time 35280, Note Name: A#5, Velocity: 63
Note OFF: Time 35760, Note Name: A#5
Note OFF: Time 35760, Note Name: A#4
Note ON: Time 35760, Note Name: C#6, Velocity: 66
Note ON: Time 35760, Note Name: C#5, Velocity: 55
Note OFF: Time 36000, Note Name: C#5
Note OFF: Time 36000, Note Name: C#6
Note ON: Time 36000, Note Name: F5, Velocity: 58
Note ON: Time 36000, Note Name: F6, Velocity: 69
Note OFF: Time 36480, Note Name: F6
Note OFF: Time 36480, Note Name: F5
Note ON: Time 36480, Note Name: C#6, Velocity: 79
Note ON: Time 36480, Note Name: C#5, Velocity: 67
Note OFF: Time 36720, Note Name: C#5
Note OFF: Time 36720, Note Name: C#6
Note ON: Time 36720, Note Name: A#5, Velocity: 81
Note ON: Time 36720, Note Name: A#4, Velocity: 68
Note OFF: Time 37200, Note Name: A#4
Note OFF: Time 37200, Note Name: A#5
Note ON: Time 37200, Note Name: F5, Velocity: 82
Note ON: Time 37200, Note Name: F4, Velocity: 68
Note OFF: Time 37440, Note Name: F4
Note OFF: Time 37440, Note Name: F5
Note ON: Time 37440, Note Name: A#4, Velocity: 72
Note ON: Time 37440, Note Name: A#5, Velocity: 86
Note OFF: Time 37920, Note Name: A#5
Note OFF: Time 37920, Note Name: A#4
Note ON: Time 37920, Note Name: C#6, Velocity: 78
Note ON: Time 37920, Note Name: C#5, Velocity: 66
Note OFF: Time 38160, Note Name: C#5
Note OFF: Time 38160, Note Name: C#6
Note ON: Time 38160, Note Name: F5, Velocity: 60
Note ON: Time 38160, Note Name: F6, Velocity: 72
Note OFF: Time 38640, Note Name: F6
Note OFF: Time 38640, Note Name: F5
Note ON: Time 38640, Note Name: G#6, Velocity: 51
Note ON: Time 38640, Note Name: G#5, Velocity: 42
Note OFF: Time 38880, Note Name: G#5
Note OFF: Time 38880, Note Name: G#6
Note ON: Time 38880, Note Name: C#6, Velocity: 48
Note ON: Time 38880, Note Name: C#5, Velocity: 40
Note OFF: Time 39120, Note Name: C#5
Note OFF: Time 39120, Note Name: C#6
Note ON: Time 39360, Note Name: A#4, Velocity: 34
Note ON: Time 39360, Note Name: A#5, Velocity: 40
Note OFF: Time 39420, Note Name: A#5
Note OFF: Time 39420, Note Name: A#4
Note ON: Time 39600, Note Name: A#4, Velocity: 34
Note ON: Time 39600, Note Name: A#5, Velocity: 40
Note OFF: Time 39660, Note Name: A#5
Note OFF: Time 39660, Note Name: A#4
Note ON: Time 40080, Note Name: C#5, Velocity: 37
Note OFF: Time 40160, Note Name: C#5
Note ON: Time 40160, Note Name: A#4, Velocity: 30
Note OFF: Time 40240, Note Name: A#4
Note ON: Time 40240, Note Name: F4, Velocity: 30
Note OFF: Time 40320, Note Name: F4
Note ON: Time 40320, Note Name: C#5, Velocity: 37
Note OFF: Time 40400, Note Name: C#5
Note ON: Time 40400, Note Name: A#4, Velocity: 31
Note OFF: Time 40480, Note Name: A#4
Note ON: Time 40480, Note Name: F4, Velocity: 31
Note OFF: Time 40560, Note Name: F4
Note ON: Time 40560, Note Name: F5, Velocity: 37
Note OFF: Time 40640, Note Name: F5
Note ON: Time 40640, Note Name: C#5, Velocity: 31
Note OFF: Time 40720, Note Name: C#5
Note ON: Time 40720, Note Name: A#4, Velocity: 30
Note OFF: Time 40800, Note Name: A#4
Note ON: Time 40800, Note Name: C#5, Velocity: 37
Note OFF: Time 40880, Note Name: C#5
Note ON: Time 40880, Note Name: A#4, Velocity: 31
Note OFF: Time 40960, Note Name: A#4
Note ON: Time 40960, Note Name: F4, Velocity: 31
Note OFF: Time 41040, Note Name: F4
Note ON: Time 41040, Note Name: C#5, Velocity: 37
Note OFF: Time 41120, Note Name: C#5
Note ON: Time 41120, Note Name: A#4, Velocity: 31
Note OFF: Time 41200, Note Name: A#4
Note ON: Time 41200, Note Name: F4, Velocity: 31
Note OFF: Time 41280, Note Name: F4
Note ON: Time 41280, Note Name: A#4, Velocity: 39
Note OFF: Time 41360, Note Name: A#4
Note ON: Time 41360, Note Name: F4, Velocity: 32
Note OFF: Time 41440, Note Name: F4
Note ON: Time 41440, Note Name: C#4, Velocity: 32
Note OFF: Time 41520, Note Name: C#4
Note ON: Time 41520, Note Name: F4, Velocity: 40
Note OFF: Time 41600, Note Name: F4
Note ON: Time 41600, Note Name: C#4, Velocity: 34
Note OFF: Time 41680, Note Name: C#4
Note ON: Time 41680, Note Name: A#3, Velocity: 36
Note OFF: Time 41760, Note Name: A#3
Note ON: Time 41760, Note Name: C#4, Velocity: 49
Note ON: Time 41760, Note Name: A#4, Velocity: 49
Note OFF: Time 41840, Note Name: A#4
Note OFF: Time 41840, Note Name: C#4
Note ON: Time 41840, Note Name: A#3, Velocity: 42
Note OFF: Time 41920, Note Name: A#3
Note ON: Time 41920, Note Name: C#4, Velocity: 42
Note OFF: Time 42000, Note Name: C#4
Note ON: Time 42000, Note Name: A#4, Velocity: 50
Note OFF: Time 42080, Note Name: A#4
Note ON: Time 42080, Note Name: C#4, Velocity: 43
Note OFF: Time 42160, Note Name: C#4
Note ON: Time 42160, Note Name: A#3, Velocity: 43
Note OFF: Time 42240, Note Name: A#3
Note ON: Time 42240, Note Name: F4, Velocity: 54
Note ON: Time 42240, Note Name: C#5, Velocity: 54
Note OFF: Time 42320, Note Name: C#5
Note OFF: Time 42320, Note Name: F4
Note ON: Time 42320, Note Name: C#4, Velocity: 46
Note OFF: Time 42400, Note Name: C#4
Note ON: Time 42400, Note Name: F4, Velocity: 51
Note OFF: Time 42480, Note Name: F4
Note ON: Time 42480, Note Name: F5, Velocity: 63
Note OFF: Time 42560, Note Name: F5
Note ON: Time 42560, Note Name: C#5, Velocity: 55
Note OFF: Time 42640, Note Name: C#5
Note ON: Time 42640, Note Name: A#4, Velocity: 59
Note OFF: Time 42720, Note Name: A#4
Note ON: Time 42720, Note Name: F5, Velocity: 71
Note OFF: Time 42800, Note Name: F5
Note ON: Time 42800, Note Name: C#5, Velocity: 60
Note OFF: Time 42880, Note Name: C#5
Note ON: Time 42880, Note Name: A#4, Velocity: 64
Note OFF: Time 42960, Note Name: A#4
Note ON: Time 42960, Note Name: C#5, Velocity: 77
Note OFF: Time 43040, Note Name: C#5
Note ON: Time 43040, Note Name: A#4, Velocity: 67
Note OFF: Time 43120, Note Name: A#4
Note ON: Time 43120, Note Name: F4, Velocity: 61
Note OFF: Time 43200, Note Name: F4
Note ON: Time 43200, Note Name: A#4, Velocity: 83
Note OFF: Time 43280, Note Name: A#4
Note ON: Time 43280, Note Name: F4, Velocity: 68
Note OFF: Time 43360, Note Name: F4
Note ON: Time 43360, Note Name: C#4, Velocity: 58
Note OFF: Time 43440, Note Name: C#4
Note ON: Time 43440, Note Name: A#4, Velocity: 64
Note OFF: Time 43520, Note Name: A#4
Note ON: Time 43520, Note Name: F4, Velocity: 54
Note OFF: Time 43600, Note Name: F4
Note ON: Time 43600, Note Name: C#4, Velocity: 46
Note OFF: Time 43680, Note Name: C#4
Note ON: Time 43680, Note Name: F4, Velocity: 60
Note OFF: Time 43760, Note Name: F4
Note ON: Time 43760, Note Name: C#4, Velocity: 45
Note OFF: Time 43840, Note Name: C#4
Note ON: Time 43840, Note Name: A#3, Velocity: 44
Note OFF: Time 43920, Note Name: A#3
Note ON: Time 43920, Note Name: C#4, Velocity: 31
Note ON: Time 43920, Note Name: G#4, Velocity: 44
Note OFF: Time 44000, Note Name: G#4
Note OFF: Time 44000, Note Name: C#4
Note ON: Time 44000, Note Name: G#3, Velocity: 36
Note OFF: Time 44080, Note Name: G#3
Note ON: Time 44080, Note Name: C#4, Velocity: 35
Note OFF: Time 44160, Note Name: C#4
Note ON: Time 44160, Note Name: G#4, Velocity: 41
Note OFF: Time 44240, Note Name: G#4
Note ON: Time 44240, Note Name: F4, Velocity: 34
Note OFF: Time 44320, Note Name: F4
Note ON: Time 44320, Note Name: C#4, Velocity: 32
Note OFF: Time 44400, Note Name: C#4
Note ON: Time 44400, Note Name: F4, Velocity: 27
Note ON: Time 44400, Note Name: C#5, Velocity: 39
Note OFF: Time 44480, Note Name: C#5
Note OFF: Time 44480, Note Name: F4
Note ON: Time 44480, Note Name: C#4, Velocity: 32
Note OFF: Time 44560, Note Name: C#4
Note ON: Time 44560, Note Name: F4, Velocity: 31
Note OFF: Time 44640, Note Name: F4
Note ON: Time 44640, Note Name: F5, Velocity: 37
Note OFF: Time 44720, Note Name: F5
Note ON: Time 44720, Note Name: C#5, Velocity: 26
Note OFF: Time 44800, Note Name: C#5
Note ON: Time 44800, Note Name: G#4, Velocity: 26
Note OFF: Time 44880, Note Name: G#4
Note ON: Time 44880, Note Name: F5, Velocity: 30
Note OFF: Time 44960, Note Name: F5
Note ON: Time 44960, Note Name: C#5, Velocity: 25
Note OFF: Time 45040, Note Name: C#5
Note ON: Time 45040, Note Name: G#4, Velocity: 25
Note OFF: Time 45120, Note Name: G#4
Note ON: Time 45120, Note Name: G#5, Velocity: 30
Note OFF: Time 45200, Note Name: G#5
Note ON: Time 45200, Note Name: F5, Velocity: 25
Note OFF: Time 45280, Note Name: F5
Note ON: Time 45280, Note Name: C#5, Velocity: 25
Note OFF: Time 45358, Note Name: C#5
Note ON: Time 45360, Note Name: F4, Velocity: 33
Note ON: Time 45360, Note Name: C#5, Velocity: 40
Note OFF: Time 45600, Note Name: C#5
Note OFF: Time 45600, Note Name: F4
Note ON: Time 45840, Note Name: F5, Velocity: 48
Note ON: Time 45840, Note Name: F6, Velocity: 57
Note OFF: Time 46320, Note Name: F6
Note OFF: Time 46320, Note Name: F5
Note ON: Time 46320, Note Name: G#6, Velocity: 53
Note ON: Time 46320, Note Name: G#5, Velocity: 53
Note OFF: Time 46560, Note Name: G#5
Note OFF: Time 46560, Note Name: G#6
Note ON: Time 46560, Note Name: F5, Velocity: 48
Note ON: Time 46560, Note Name: F6, Velocity: 57
Note OFF: Time 47040, Note Name: F6
Note OFF: Time 47040, Note Name: F5
Note ON: Time 47040, Note Name: C#5, Velocity: 48
Note ON: Time 47040, Note Name: C#6, Velocity: 57
Note OFF: Time 47280, Note Name: C#6
Note OFF: Time 47280, Note Name: C#5
Note ON: Time 47280, Note Name: G#4, Velocity: 44
Note ON: Time 47280, Note Name: G#5, Velocity: 52
Note OFF: Time 47520, Note Name: G#5
Note OFF: Time 47520, Note Name: G#4
Note ON: Time 47520, Note Name: C#5, Velocity: 49
Note ON: Time 47520, Note Name: C#6, Velocity: 58
Note OFF: Time 48000, Note Name: C#6
Note OFF: Time 48000, Note Name: C#5
Note ON: Time 48000, Note Name: F6, Velocity: 60
Note ON: Time 48000, Note Name: F5, Velocity: 50
Note OFF: Time 48240, Note Name: F5
Note OFF: Time 48240, Note Name: F6
Note ON: Time 48240, Note Name: G#5, Velocity: 53
Note ON: Time 48240, Note Name: G#6, Velocity: 63
Note OFF: Time 48720, Note Name: G#6
Note OFF: Time 48720, Note Name: G#5
Note ON: Time 48720, Note Name: F6, Velocity: 72
Note ON: Time 48720, Note Name: F5, Velocity: 61
Note OFF: Time 48960, Note Name: F5
Note OFF: Time 48960, Note Name: F6
Note ON: Time 48960, Note Name: C#6, Velocity: 81
Note ON: Time 48960, Note Name: C#5, Velocity: 68
Note OFF: Time 49440, Note Name: C#5
Note OFF: Time 49440, Note Name: C#6
Note ON: Time 49440, Note Name: A#5, Velocity: 82
Note ON: Time 49440, Note Name: A#4, Velocity: 68
Note OFF: Time 49680, Note Name: A#4
Note OFF: Time 49680, Note Name: A#5
Note ON: Time 49680, Note Name: F4, Velocity: 72
Note ON: Time 49680, Note Name: F5, Velocity: 86
Note OFF: Time 50160, Note Name: F5
Note OFF: Time 50160, Note Name: F4
Note ON: Time 50160, Note Name: A#5, Velocity: 78
Note ON: Time 50160, Note Name: A#4, Velocity: 66
Note OFF: Time 50400, Note Name: A#4
Note OFF: Time 50400, Note Name: A#5
Note ON: Time 50400, Note Name: C#5, Velocity: 60
Note ON: Time 50400, Note Name: C#6, Velocity: 72
Note OFF: Time 50880, Note Name: C#6
Note OFF: Time 50880, Note Name: C#5
Note ON: Time 50880, Note Name: F6, Velocity: 51
Note ON: Time 50880, Note Name: F5, Velocity: 42
Note OFF: Time 51120, Note Name: F5
Note OFF: Time 51120, Note Name: F6
Note ON: Time 51120, Note Name: A#5, Velocity: 48
Note ON: Time 51120, Note Name: A#4, Velocity: 40
Note OFF: Time 51360, Note Name: A#4
Note OFF: Time 51360, Note Name: A#5
Note ON: Time 51600, Note Name: C#4, Velocity: 34
Note ON: Time 51600, Note Name: C#5, Velocity: 40
Note OFF: Time 51660, Note Name: C#5
Note OFF: Time 51660, Note Name: C#4
Note ON: Time 51840, Note Name: C#4, Velocity: 34
Note ON: Time 51840, Note Name: C#5, Velocity: 40
Note OFF: Time 51900, Note Name: C#5
Note OFF: Time 51900, Note Name: C#4
Note ON: Time 52080, Note Name: C#4, Velocity: 37
Note OFF: Time 52160, Note Name: C#4
Note ON: Time 52160, Note Name: F4, Velocity: 32
Note OFF: Time 52240, Note Name: F4
Note ON: Time 52240, Note Name: C#5, Velocity: 32
Note OFF: Time 52320, Note Name: C#5
Note ON: Time 52320, Note Name: F5, Velocity: 37
Note ON: Time 52400, Note Name: C#5, Velocity: 30
Note OFF: Time 52480, Note Name: C#5
Note ON: Time 52480, Note Name: G#4, Velocity: 30
Note OFF: Time 52560, Note Name: G#4
Note OFF: Time 52560, Note Name: F5
Note ON: Time 52560, Note Name: F5, Velocity: 37
Note ON: Time 52640, Note Name: C#5, Velocity: 31
Note OFF: Time 52720, Note Name: C#5
Note ON: Time 52720, Note Name: G#4, Velocity: 31
Note OFF: Time 52800, Note Name: G#4
Note OFF: Time 52800, Note Name: F5
Note ON: Time 52800, Note Name: F5, Velocity: 37
Note ON: Time 52800, Note Name: G#5, Velocity: 37
Note OFF: Time 52880, Note Name: F5
Note ON: Time 52880, Note Name: C#5, Velocity: 31
Note OFF: Time 52960, Note Name: C#5
Note ON: Time 52960, Note Name: G#4, Velocity: 30
Note OFF: Time 53040, Note Name: G#4
Note OFF: Time 53040, Note Name: G#5
Note ON: Time 53040, Note Name: F5, Velocity: 37
Note OFF: Time 53120, Note Name: F5
Note ON: Time 53120, Note Name: C#5, Velocity: 31
Note OFF: Time 53200, Note Name: C#5
Note ON: Time 53200, Note Name: G#4, Velocity: 31
Note OFF: Time 53280, Note Name: G#4
Note ON: Time 53280, Note Name: F5, Velocity: 37
Note OFF: Time 53360, Note Name: F5
Note ON: Time 53360, Note Name: C#5, Velocity: 31
Note OFF: Time 53440, Note Name: C#5
Note ON: Time 53440, Note Name: G#4, Velocity: 31
Note OFF: Time 53520, Note Name: G#4
Note ON: Time 53520, Note Name: C#5, Velocity: 38
Note OFF: Time 53600, Note Name: C#5
Note ON: Time 53600, Note Name: G#4, Velocity: 32
Note OFF: Time 53680, Note Name: G#4
Note ON: Time 53680, Note Name: F4, Velocity: 31
Note OFF: Time 53760, Note Name: F4
Note ON: Time 53760, Note Name: C#4, Velocity: 34
Note ON: Time 53760, Note Name: G#4, Velocity: 39
Note OFF: Time 53840, Note Name: G#4
Note OFF: Time 53840, Note Name: C#4
Note ON: Time 53840, Note Name: G#3, Velocity: 33
Note OFF: Time 53920, Note Name: G#3
Note ON: Time 53920, Note Name: C#4, Velocity: 34
Note OFF: Time 54000, Note Name: C#4
Note ON: Time 54000, Note Name: F4, Velocity: 32
Note ON: Time 54000, Note Name: C#5, Velocity: 41
Note OFF: Time 54080, Note Name: C#5
Note OFF: Time 54080, Note Name: F4
Note ON: Time 54080, Note Name: C#4, Velocity: 35
Note OFF: Time 54160, Note Name: C#4
Note ON: Time 54160, Note Name: F4, Velocity: 35
Note OFF: Time 54240, Note Name: F4
Note ON: Time 54240, Note Name: C#5, Velocity: 50
Note OFF: Time 54320, Note Name: C#5
Note ON: Time 54320, Note Name: G#4, Velocity: 40
Note OFF: Time 54400, Note Name: G#4
Note ON: Time 54400, Note Name: F4, Velocity: 43
Note OFF: Time 54480, Note Name: F4
Note ON: Time 54480, Note Name: F5, Velocity: 54
Note OFF: Time 54560, Note Name: F5
Note ON: Time 54560, Note Name: C#5, Velocity: 47
Note OFF: Time 54640, Note Name: C#5
Note ON: Time 54640, Note Name: G#4, Velocity: 50
Note OFF: Time 54720, Note Name: G#4
Note ON: Time 54720, Note Name: G#5, Velocity: 62
Note OFF: Time 54800, Note Name: G#5
Note ON: Time 54800, Note Name: F5, Velocity: 53
Note OFF: Time 54880, Note Name: F5
Note ON: Time 54880, Note Name: C#5, Velocity: 55
Note OFF: Time 54960, Note Name: C#5
Note ON: Time 54960, Note Name: F5, Velocity: 67
Note OFF: Time 55040, Note Name: F5
Note ON: Time 55040, Note Name: C#5, Velocity: 60
Note OFF: Time 55120, Note Name: C#5
Note ON: Time 55120, Note Name: F5, Velocity: 62
Note OFF: Time 55198, Note Name: F5
Note ON: Time 55200, Note Name: F5, Velocity: 72
Note OFF: Time 55280, Note Name: F5
Note ON: Time 55280, Note Name: C#5, Velocity: 63
Note OFF: Time 55360, Note Name: C#5
Note ON: Time 55360, Note Name: F4, Velocity: 60
Note OFF: Time 55440, Note Name: F4
Note ON: Time 55440, Note Name: C#5, Velocity: 75
Note OFF: Time 55520, Note Name: C#5
Note ON: Time 55520, Note Name: A#4, Velocity: 66
Note OFF: Time 55600, Note Name: A#4
Note ON: Time 55600, Note Name: F4, Velocity: 52
Note OFF: Time 55680, Note Name: F4
Note ON: Time 55680, Note Name: C#5, Velocity: 55
Note OFF: Time 55760, Note Name: C#5
Note ON: Time 55760, Note Name: A#4, Velocity: 45
Note OFF: Time 55840, Note Name: A#4
Note ON: Time 55840, Note Name: F4, Velocity: 42
Note OFF: Time 55920, Note Name: F4
Note ON: Time 55920, Note Name: A#4, Velocity: 60
Note OFF: Time 56000, Note Name: A#4
Note ON: Time 56000, Note Name: F4, Velocity: 45
Note OFF: Time 56080, Note Name: F4
Note ON: Time 56080, Note Name: C#4, Velocity: 44
Note OFF: Time 56160, Note Name: C#4
Note ON: Time 56160, Note Name: F4, Velocity: 44
Note OFF: Time 56240, Note Name: F4
Note ON: Time 56240, Note Name: C#4, Velocity: 36
Note OFF: Time 56320, Note Name: C#4
Note ON: Time 56320, Note Name: A#3, Velocity: 35
Note OFF: Time 56400, Note Name: A#3
Note ON: Time 56400, Note Name: F4, Velocity: 41
Note OFF: Time 56480, Note Name: F4
Note ON: Time 56480, Note Name: C#4, Velocity: 34
Note OFF: Time 56560, Note Name: C#4
Note ON: Time 56560, Note Name: A#3, Velocity: 32
Note OFF: Time 56640, Note Name: A#3
Note ON: Time 56640, Note Name: C#4, Velocity: 27
Note ON: Time 56640, Note Name: A#4, Velocity: 39
Note OFF: Time 56720, Note Name: A#4
Note OFF: Time 56720, Note Name: C#4
Note ON: Time 56720, Note Name: A#3, Velocity: 32
Note OFF: Time 56800, Note Name: A#3
Note ON: Time 56800, Note Name: C#4, Velocity: 31
Note OFF: Time 56880, Note Name: C#4
Note ON: Time 56880, Note Name: C#5, Velocity: 37
Note OFF: Time 56960, Note Name: C#5
Note ON: Time 56960, Note Name: A#4, Velocity: 26
Note OFF: Time 57040, Note Name: A#4
Note ON: Time 57040, Note Name: F4, Velocity: 26
Note OFF: Time 57120, Note Name: F4
Note ON: Time 57120, Note Name: C#5, Velocity: 30
Note OFF: Time 57200, Note Name: C#5
Note ON: Time 57200, Note Name: A#4, Velocity: 25
Note OFF: Time 57280, Note Name: A#4
Note ON: Time 57280, Note Name: F4, Velocity: 25
Note OFF: Time 57360, Note Name: F4
Note ON: Time 57360, Note Name: F5, Velocity: 30
Note OFF: Time 57440, Note Name: F5
Note ON: Time 57440, Note Name: C#5, Velocity: 25
Note OFF: Time 57520, Note Name: C#5
Note ON: Time 57520, Note Name: F4, Velocity: 25
Note OFF: Time 57600, Note Name: F4
Note ON: Time 57600, Note Name: A#4, Velocity: 40
Note OFF: Time 57840, Note Name: A#4
Note ON: Time 58320, Note Name: A#4, Velocity: 50
Note OFF: Time 58380, Note Name: A#4
Note ON: Time 58560, Note Name: C#5, Velocity: 44
Note OFF: Time 58620, Note Name: C#5
Note ON: Time 58800, Note Name: C5, Velocity: 50
Note OFF: Time 58860, Note Name: C5
Note ON: Time 59040, Note Name: F4, Velocity: 43
Note OFF: Time 59100, Note Name: F4
Note ON: Time 59280, Note Name: F5, Velocity: 50
Note OFF: Time 59340, Note Name: F5
Note ON: Time 59520, Note Name: D#5, Velocity: 45
Note OFF: Time 59580, Note Name: D#5
Note ON: Time 59760, Note Name: C#5, Velocity: 45
Note OFF: Time 59820, Note Name: C#5
Note ON: Time 60000, Note Name: C5, Velocity: 45
Note OFF: Time 60060, Note Name: C5
Note ON: Time 60240, Note Name: A#4, Velocity: 50
Note OFF: Time 60300, Note Name: A#4
Note ON: Time 60480, Note Name: C#5, Velocity: 43
Note OFF: Time 60540, Note Name: C#5
Note ON: Time 60720, Note Name: C5, Velocity: 50
Note OFF: Time 60780, Note Name: C5
Note ON: Time 60960, Note Name: G#4, Velocity: 42
Note OFF: Time 61020, Note Name: G#4
Note ON: Time 61200, Note Name: C5, Velocity: 50
Note OFF: Time 61260, Note Name: C5
Note ON: Time 61440, Note Name: G4, Velocity: 42
Note OFF: Time 61500, Note Name: G4
Note ON: Time 61680, Note Name: F4, Velocity: 46
Note OFF: Time 62160, Note Name: F4
Note ON: Time 62280, Note Name: F4, Velocity: 42
Note ON: Time 62280, Note Name: G#4, Velocity: 42
Note ON: Time 62280, Note Name: C5, Velocity: 50
Note OFF: Time 62400, Note Name: C5
Note OFF: Time 62400, Note Name: G#4
Note OFF: Time 62400, Note Name: F4
Note ON: Time 62520, Note Name: F4, Velocity: 40
Note ON: Time 62520, Note Name: G#4, Velocity: 40
Note ON: Time 62520, Note Name: C5, Velocity: 48
Note OFF: Time 62640, Note Name: C5
Note OFF: Time 62640, Note Name: G#4
Note OFF: Time 62640, Note Name: F4
Note ON: Time 62760, Note Name: E4, Velocity: 41
Note ON: Time 62760, Note Name: A#4, Velocity: 41
Note ON: Time 62760, Note Name: C5, Velocity: 49
Note OFF: Time 62880, Note Name: C5
Note OFF: Time 62880, Note Name: A#4
Note OFF: Time 62880, Note Name: E4
Note ON: Time 63000, Note Name: E4, Velocity: 42
Note ON: Time 63000, Note Name: G4, Velocity: 42
Note ON: Time 63000, Note Name: A#4, Velocity: 42
Note ON: Time 63000, Note Name: C5, Velocity: 51
Note OFF: Time 63120, Note Name: C5
Note OFF: Time 63120, Note Name: E4
Note OFF: Time 63120, Note Name: G4
Note OFF: Time 63120, Note Name: A#4
Note ON: Time 63240, Note Name: E4, Velocity: 46
Note ON: Time 63240, Note Name: G4, Velocity: 46
Note ON: Time 63240, Note Name: C5, Velocity: 57
Note OFF: Time 63360, Note Name: C5
Note OFF: Time 63360, Note Name: G4
Note OFF: Time 63360, Note Name: E4
Note ON: Time 63480, Note Name: E4, Velocity: 47
Note ON: Time 63480, Note Name: G4, Velocity: 47
Note ON: Time 63480, Note Name: C5, Velocity: 57
Note OFF: Time 63600, Note Name: C5
Note OFF: Time 63600, Note Name: G4
Note OFF: Time 63600, Note Name: E4
Note ON: Time 63720, Note Name: F4, Velocity: 48
Note ON: Time 63720, Note Name: G#4, Velocity: 48
Note ON: Time 63720, Note Name: C5, Velocity: 58
Note OFF: Time 63840, Note Name: C5
Note OFF: Time 63840, Note Name: G#4
Note OFF: Time 63840, Note Name: F4
Note ON: Time 63960, Note Name: E4, Velocity: 49
Note ON: Time 63960, Note Name: A#4, Velocity: 49
Note ON: Time 63960, Note Name: C5, Velocity: 59
Note OFF: Time 64080, Note Name: C5
Note OFF: Time 64080, Note Name: A#4
Note OFF: Time 64080, Note Name: E4
Note ON: Time 64200, Note Name: F4, Velocity: 58
Note ON: Time 64200, Note Name: G#4, Velocity: 58
Note ON: Time 64200, Note Name: C5, Velocity: 70
Note OFF: Time 64320, Note Name: C5
Note OFF: Time 64320, Note Name: G#4
Note OFF: Time 64320, Note Name: F4
Note ON: Time 64440, Note Name: F4, Velocity: 54
Note ON: Time 64440, Note Name: G#4, Velocity: 54
Note ON: Time 64440, Note Name: C5, Velocity: 54
Note ON: Time 64440, Note Name: F5, Velocity: 65
Note OFF: Time 64560, Note Name: F5
Note OFF: Time 64560, Note Name: F4
Note OFF: Time 64560, Note Name: G#4
Note OFF: Time 64560, Note Name: C5
Note ON: Time 64680, Note Name: F4, Velocity: 56
Note ON: Time 64680, Note Name: A#4, Velocity: 56
Note ON: Time 64680, Note Name: C5, Velocity: 56
Note ON: Time 64680, Note Name: F5, Velocity: 66
Note OFF: Time 64800, Note Name: F5
Note OFF: Time 64800, Note Name: F4
Note OFF: Time 64800, Note Name: A#4
Note OFF: Time 64800, Note Name: C5
Note ON: Time 64920, Note Name: E4, Velocity: 57
Note ON: Time 64920, Note Name: A#4, Velocity: 57
Note ON: Time 64920, Note Name: C5, Velocity: 57
Note ON: Time 64920, Note Name: E5, Velocity: 69
Note OFF: Time 65040, Note Name: E5
Note OFF: Time 65040, Note Name: E4
Note OFF: Time 65040, Note Name: A#4
Note OFF: Time 65040, Note Name: C5
Note ON: Time 65160, Note Name: F4, Velocity: 69
Note ON: Time 65160, Note Name: C5, Velocity: 69
Note ON: Time 65160, Note Name: F5, Velocity: 82
Note OFF: Time 65280, Note Name: F5
Note OFF: Time 65280, Note Name: C5
Note OFF: Time 65280, Note Name: F4
Note ON: Time 65400, Note Name: F4, Velocity: 60
Note ON: Time 65400, Note Name: C5, Velocity: 60
Note ON: Time 65400, Note Name: D#5, Velocity: 73
Note OFF: Time 65520, Note Name: D#5
Note OFF: Time 65520, Note Name: C5
Note OFF: Time 65520, Note Name: F4
Note ON: Time 65640, Note Name: F4, Velocity: 62
Note ON: Time 65640, Note Name: A#4, Velocity: 62
Note ON: Time 65640, Note Name: C#5, Velocity: 75
Note OFF: Time 65760, Note Name: C#5
Note OFF: Time 65760, Note Name: A#4
Note OFF: Time 65760, Note Name: F4
Note ON: Time 65880, Note Name: D#4, Velocity: 63
Note ON: Time 65880, Note Name: A4, Velocity: 63
Note ON: Time 65880, Note Name: C5, Velocity: 76
Note OFF: Time 66000, Note Name: C5
Note OFF: Time 66000, Note Name: A4
Note OFF: Time 66000, Note Name: D#4
Note ON: Time 66000, Note Name: A#4, Velocity: 76
Note ON: Time 66000, Note Name: F5, Velocity: 76
Note ON: Time 66000, Note Name: A#5, Velocity: 90
Note OFF: Time 66120, Note Name: A#5
Note OFF: Time 66120, Note Name: F5
Note OFF: Time 66120, Note Name: A#4
Note ON: Time 66240, Note Name: C#6, Velocity: 85
Note ON: Time 66240, Note Name: A#5, Velocity: 72
Note ON: Time 66240, Note Name: F5, Velocity: 72
Note ON: Time 66240, Note Name: C#5, Velocity: 72
Note OFF: Time 66360, Note Name: C#5
Note OFF: Time 66360, Note Name: C#6
Note OFF: Time 66360, Note Name: A#5
Note OFF: Time 66360, Note Name: F5
Note ON: Time 66480, Note Name: C6, Velocity: 85
Note ON: Time 66480, Note Name: A5, Velocity: 85
Note ON: Time 66480, Note Name: F5, Velocity: 72
Note ON: Time 66480, Note Name: C5, Velocity: 72
Note OFF: Time 66600, Note Name: C5
Note OFF: Time 66600, Note Name: C6
Note OFF: Time 66600, Note Name: A5
Note OFF: Time 66600, Note Name: F5
Note ON: Time 66720, Note Name: F5, Velocity: 85
Note ON: Time 66720, Note Name: C5, Velocity: 72
Note ON: Time 66720, Note Name: A4, Velocity: 72
Note ON: Time 66720, Note Name: F4, Velocity: 72
Note OFF: Time 66840, Note Name: F4
Note OFF: Time 66840, Note Name: F5
Note OFF: Time 66840, Note Name: C5
Note OFF: Time 66840, Note Name: A4
Note ON: Time 66960, Note Name: F6, Velocity: 99
Note ON: Time 66960, Note Name: A#5, Velocity: 83
Note ON: Time 66960, Note Name: F5, Velocity: 83
Note OFF: Time 67080, Note Name: F5
Note OFF: Time 67080, Note Name: A#5
Note OFF: Time 67080, Note Name: F6
Note ON: Time 67200, Note Name: D#6, Velocity: 84
Note ON: Time 67200, Note Name: A5, Velocity: 71
Note ON: Time 67200, Note Name: F5, Velocity: 71
Note ON: Time 67200, Note Name: D#5, Velocity: 71
Note OFF: Time 67320, Note Name: D#5
Note OFF: Time 67320, Note Name: D#6
Note OFF: Time 67320, Note Name: A5
Note OFF: Time 67320, Note Name: F5
Note ON: Time 67440, Note Name: C#6, Velocity: 84
Note ON: Time 67440, Note Name: A#5, Velocity: 71
Note ON: Time 67440, Note Name: F5, Velocity: 71
Note ON: Time 67440, Note Name: C#5, Velocity: 71
Note OFF: Time 67560, Note Name: C#5
Note OFF: Time 67560, Note Name: C#6
Note OFF: Time 67560, Note Name: A#5
Note OFF: Time 67560, Note Name: F5
Note ON: Time 67680, Note Name: C6, Velocity: 84
Note ON: Time 67680, Note Name: F5, Velocity: 71
Note ON: Time 67680, Note Name: C5, Velocity: 71
Note OFF: Time 67800, Note Name: C5
Note OFF: Time 67800, Note Name: F5
Note OFF: Time 67800, Note Name: C6
Note ON: Time 67920, Note Name: A#5, Velocity: 90
Note ON: Time 67920, Note Name: F5, Velocity: 76
Note ON: Time 67920, Note Name: C#5, Velocity: 76
Note ON: Time 67920, Note Name: A#4, Velocity: 76
Note OFF: Time 68040, Note Name: A#4
Note OFF: Time 68040, Note Name: A#5
Note OFF: Time 68040, Note Name: F5
Note OFF: Time 68040, Note Name: C#5
Note ON: Time 68160, Note Name: C#6, Velocity: 82
Note ON: Time 68160, Note Name: A#5, Velocity: 69
Note ON: Time 68160, Note Name: F5, Velocity: 69
Note ON: Time 68160, Note Name: C#5, Velocity: 69
Note OFF: Time 68280, Note Name: C#5
Note OFF: Time 68280, Note Name: C#6
Note OFF: Time 68280, Note Name: A#5
Note OFF: Time 68280, Note Name: F5
Note ON: Time 68400, Note Name: C6, Velocity: 90
Note ON: Time 68400, Note Name: F5, Velocity: 76
Note ON: Time 68400, Note Name: C5, Velocity: 76
Note OFF: Time 68520, Note Name: C5
Note OFF: Time 68520, Note Name: F5
Note OFF: Time 68520, Note Name: C6
Note ON: Time 68640, Note Name: F5, Velocity: 81
Note ON: Time 68640, Note Name: C5, Velocity: 68
Note ON: Time 68640, Note Name: A4, Velocity: 68
Note ON: Time 68640, Note Name: F4, Velocity: 68
Note OFF: Time 68760, Note Name: F4
Note OFF: Time 68760, Note Name: F5
Note OFF: Time 68760, Note Name: C5
Note OFF: Time 68760, Note Name: A4
Note ON: Time 68880, Note Name: F6, Velocity: 109
Note ON: Time 68880, Note Name: F5, Velocity: 92
Note OFF: Time 69000, Note Name: F5
Note OFF: Time 69000, Note Name: F6
Note ON: Time 69120, Note Name: C#6, Velocity: 92
Note ON: Time 69120, Note Name: A#5, Velocity: 78
Note ON: Time 69120, Note Name: C#5, Velocity: 78
Note OFF: Time 69240, Note Name: C#5
Note OFF: Time 69240, Note Name: A#5
Note OFF: Time 69240, Note Name: C#6
Note ON: Time 69360, Note Name: C6, Velocity: 101
Note ON: Time 69360, Note Name: A5, Velocity: 85
Note ON: Time 69360, Note Name: C5, Velocity: 85
Note OFF: Time 69840, Note Name: C5
Note OFF: Time 69840, Note Name: A5
Note OFF: Time 69840, Note Name: C6
Note ON: Time 69840, Note Name: F6, Velocity: 109
Note ON: Time 69840, Note Name: F5, Velocity: 92
Note OFF: Time 69960, Note Name: F5
Note OFF: Time 69960, Note Name: F6
Note ON: Time 70080, Note Name: C#6, Velocity: 92
Note ON: Time 70080, Note Name: A#5, Velocity: 78
Note OFF: Time 70200, Note Name: A#5
Note OFF: Time 70200, Note Name: C#6
Note ON: Time 70320, Note Name: C6, Velocity: 101
Note ON: Time 70320, Note Name: A5, Velocity: 85
Note OFF: Time 70800, Note Name: A5
Note OFF: Time 70800, Note Name: C6
Note ON: Time 70800, Note Name: C5, Velocity: 97
Note ON: Time 70800, Note Name: A4, Velocity: 81
Note OFF: Time 71280, Note Name: A4
Note OFF: Time 71280, Note Name: C5
Note ON: Time 71280, Note Name: C4, Velocity: 98
Note ON: Time 71280, Note Name: A3, Velocity: 80
Note OFF: Time 71760, Note Name: A3
Note OFF: Time 71760, Note Name: C4
Note ON: Time 71760, Note Name: C3, Velocity: 101
Note ON: Time 71760, Note Name: A2, Velocity: 85
Note OFF: Time 72240, Note Name: A2
Note OFF: Time 72240, Note Name: C3
Note ON: Time 72240, Note Name: C2, Velocity: 101
Note ON: Time 72240, Note Name: A1, Velocity: 85
Note OFF: Time 73440, Note Name: A1
Note OFF: Time 73440, Note Name: C2
Note ON: Time 75600, Note Name: F4, Velocity: 81
Note OFF: Time 75680, Note Name: F4
Note ON: Time 75680, Note Name: G4, Velocity: 81
Note OFF: Time 75760, Note Name: G4
Note ON: Time 75760, Note Name: A4, Velocity: 81
Note OFF: Time 75840, Note Name: A4
Note ON: Time 75840, Note Name: A#4, Velocity: 81
Note OFF: Time 75960, Note Name: A#4
Note ON: Time 75960, Note Name: C5, Velocity: 82
Note OFF: Time 76080, Note Name: C5
Note ON: Time 76080, Note Name: D5, Velocity: 82
Note OFF: Time 76200, Note Name: D5
Note ON: Time 76200, Note Name: E5, Velocity: 83
Note OFF: Time 76320, Note Name: E5
Note ON: Time 76320, Note Name: F5, Velocity: 83
Note OFF: Time 76400, Note Name: F5
Note ON: Time 76400, Note Name: G5, Velocity: 83
Note OFF: Time 76480, Note Name: G5
Note ON: Time 76480, Note Name: A5, Velocity: 84
Note OFF: Time 76560, Note Name: A5
Note ON: Time 76560, Note Name: A#5, Velocity: 84
Note OFF: Time 76680, Note Name: A#5
Note ON: Time 76680, Note Name: C6, Velocity: 84
Note OFF: Time 76800, Note Name: C6
Note ON: Time 76800, Note Name: D6, Velocity: 85
Note OFF: Time 76920, Note Name: D6
Note ON: Time 76920, Note Name: E6, Velocity: 85
Note OFF: Time 77040, Note Name: E6
Note ON: Time 77040, Note Name: F6, Velocity: 86
Note OFF: Time 77120, Note Name: F6
Note ON: Time 77120, Note Name: G6, Velocity: 88
Note OFF: Time 77200, Note Name: G6
Note ON: Time 77200, Note Name: A6, Velocity: 89
Note OFF: Time 77280, Note Name: A6
Note ON: Time 77280, Note Name: A#6, Velocity: 90
Note OFF: Time 77400, Note Name: A#6
Note ON: Time 77400, Note Name: C7, Velocity: 92
Note OFF: Time 77520, Note Name: C7
Note ON: Time 77520, Note Name: D7, Velocity: 94
Note OFF: Time 77640, Note Name: D7
Note ON: Time 77640, Note Name: E7, Velocity: 96
Note OFF: Time 77760, Note Name: E7
Note ON: Time 77760, Note Name: F7, Velocity: 98
Note OFF: Time 77880, Note Name: F7
Note ON: Time 78000, Note Name: D#5, Velocity: 68
Note ON: Time 78000, Note Name: F#5, Velocity: 81
Note OFF: Time 78060, Note Name: F#5
Note OFF: Time 78060, Note Name: D#5
Note ON: Time 78060, Note Name: A4, Velocity: 70
Note OFF: Time 78120, Note Name: A4
Note ON: Time 78120, Note Name: D#5, Velocity: 67
Note ON: Time 78120, Note Name: F#5, Velocity: 79
Note OFF: Time 78180, Note Name: F#5
Note OFF: Time 78180, Note Name: D#5
Note ON: Time 78180, Note Name: A4, Velocity: 70
Note OFF: Time 78240, Note Name: A4
Note ON: Time 78240, Note Name: D#5, Velocity: 67
Note ON: Time 78240, Note Name: F#5, Velocity: 79
Note OFF: Time 78300, Note Name: F#5
Note OFF: Time 78300, Note Name: D#5
Note ON: Time 78300, Note Name: A4, Velocity: 70
Note OFF: Time 78360, Note Name: A4
Note ON: Time 78360, Note Name: D#5, Velocity: 67
Note ON: Time 78360, Note Name: F#5, Velocity: 79
Note OFF: Time 78420, Note Name: F#5
Note OFF: Time 78420, Note Name: D#5
Note ON: Time 78420, Note Name: A4, Velocity: 70
Note OFF: Time 78480, Note Name: A4
Note ON: Time 78480, Note Name: D#5, Velocity: 68
Note ON: Time 78480, Note Name: F#5, Velocity: 80
Note OFF: Time 78540, Note Name: F#5
Note OFF: Time 78540, Note Name: D#5
Note ON: Time 78540, Note Name: A4, Velocity: 70
Note OFF: Time 78600, Note Name: A4
Note ON: Time 78600, Note Name: D#5, Velocity: 65
Note ON: Time 78600, Note Name: F#5, Velocity: 77
Note OFF: Time 78660, Note Name: F#5
Note OFF: Time 78660, Note Name: D#5
Note ON: Time 78660, Note Name: A4, Velocity: 70
Note OFF: Time 78720, Note Name: A4
Note ON: Time 79440, Note Name: D5, Velocity: 50
Note OFF: Time 79620, Note Name: D5
Note ON: Time 79620, Note Name: A4, Velocity: 42
Note ON: Time 79620, Note Name: F5, Velocity: 50
Note OFF: Time 79674, Note Name: F5
Note OFF: Time 79674, Note Name: A4
Note ON: Time 79680, Note Name: C5, Velocity: 53
Note ON: Time 79680, Note Name: F5, Velocity: 62
Note OFF: Time 79920, Note Name: F5
Note OFF: Time 79920, Note Name: C5
Note ON: Time 79920, Note Name: F4, Velocity: 46
Note ON: Time 79920, Note Name: D5, Velocity: 55
Note OFF: Time 80040, Note Name: D5
Note OFF: Time 80040, Note Name: F4
Note ON: Time 80160, Note Name: A#4, Velocity: 50
Note OFF: Time 80340, Note Name: A#4
Note ON: Time 80340, Note Name: F#4, Velocity: 42
Note ON: Time 80340, Note Name: D5, Velocity: 50
Note OFF: Time 80394, Note Name: D5
Note OFF: Time 80394, Note Name: F#4
Note ON: Time 80400, Note Name: A4, Velocity: 53
Note ON: Time 80400, Note Name: D5, Velocity: 62
Note OFF: Time 80640, Note Name: D5
Note OFF: Time 80640, Note Name: A4
Note ON: Time 80640, Note Name: D4, Velocity: 46
Note ON: Time 80640, Note Name: A#4, Velocity: 55
Note OFF: Time 80760, Note Name: A#4
Note OFF: Time 80760, Note Name: D4
Note ON: Time 80880, Note Name: G4, Velocity: 52
Note OFF: Time 81060, Note Name: G4
Note ON: Time 81060, Note Name: D4, Velocity: 44
Note ON: Time 81060, Note Name: A#4, Velocity: 53
Note OFF: Time 81114, Note Name: A#4
Note OFF: Time 81114, Note Name: D4
Note ON: Time 81120, Note Name: F4, Velocity: 57
Note ON: Time 81120, Note Name: A#4, Velocity: 66
Note OFF: Time 81360, Note Name: A#4
Note OFF: Time 81360, Note Name: F4
Note ON: Time 81360, Note Name: A#3, Velocity: 51
Note ON: Time 81360, Note Name: G4, Velocity: 61
Note OFF: Time 81480, Note Name: G4
Note OFF: Time 81480, Note Name: A#3
Note ON: Time 81600, Note Name: A#3, Velocity: 47
Note ON: Time 81600, Note Name: G4, Velocity: 57
Note OFF: Time 81780, Note Name: G4
Note OFF: Time 81780, Note Name: A#3
Note ON: Time 81780, Note Name: D#4, Velocity: 48
Note ON: Time 81780, Note Name: A4, Velocity: 58
Note OFF: Time 81834, Note Name: A4
Note OFF: Time 81834, Note Name: D#4
Note ON: Time 81840, Note Name: D#4, Velocity: 62
Note ON: Time 81840, Note Name: A4, Velocity: 72
Note OFF: Time 82080, Note Name: A4
Note OFF: Time 82080, Note Name: D#4
Note ON: Time 82080, Note Name: A#3, Velocity: 55
Note ON: Time 82080, Note Name: A#4, Velocity: 66
Note OFF: Time 82200, Note Name: A#4
Note OFF: Time 82200, Note Name: A#3
Note ON: Time 82320, Note Name: F4, Velocity: 51
Note ON: Time 82320, Note Name: A#4, Velocity: 61
Note OFF: Time 82500, Note Name: A#4
Note ON: Time 82500, Note Name: C5, Velocity: 63
Note OFF: Time 82554, Note Name: C5
Note OFF: Time 82560, Note Name: F4
Note ON: Time 82560, Note Name: F4, Velocity: 67
Note ON: Time 82560, Note Name: C5, Velocity: 79
Note OFF: Time 82800, Note Name: C5
Note OFF: Time 82800, Note Name: F4
Note ON: Time 82800, Note Name: A#4, Velocity: 60
Note ON: Time 82800, Note Name: F4, Velocity: 60
Note ON: Time 82800, Note Name: D5, Velocity: 72
Note OFF: Time 82920, Note Name: D5
Note OFF: Time 82920, Note Name: F4
Note OFF: Time 82920, Note Name: A#4
Note ON: Time 83040, Note Name: A#4, Velocity: 56
Note ON: Time 83040, Note Name: D5, Velocity: 67
Note OFF: Time 83220, Note Name: D5
Note ON: Time 83220, Note Name: D#5, Velocity: 70
Note OFF: Time 83274, Note Name: D#5
Note OFF: Time 83280, Note Name: A#4
Note ON: Time 83280, Note Name: A#4, Velocity: 75
Note ON: Time 83280, Note Name: D#5, Velocity: 88
Note OFF: Time 83520, Note Name: D#5
Note OFF: Time 83520, Note Name: A#4
Note ON: Time 83520, Note Name: C#5, Velocity: 68
Note ON: Time 83520, Note Name: A#4, Velocity: 68
Note ON: Time 83520, Note Name: F4, Velocity: 68
Note ON: Time 83520, Note Name: F5, Velocity: 82
Note OFF: Time 83580, Note Name: F5
Note OFF: Time 83580, Note Name: C#5
Note OFF: Time 83580, Note Name: A#4
Note OFF: Time 83580, Note Name: F4
Note ON: Time 83760, Note Name: G4, Velocity: 79
Note ON: Time 83760, Note Name: A#4, Velocity: 79
Note ON: Time 83760, Note Name: C5, Velocity: 79
Note ON: Time 83760, Note Name: G5, Velocity: 94
Note OFF: Time 83820, Note Name: G5
Note OFF: Time 83820, Note Name: G4
Note OFF: Time 83820, Note Name: A#4
Note OFF: Time 83820, Note Name: C5
Note ON: Time 84000, Note Name: C4, Velocity: 79
Note ON: Time 84000, Note Name: A4, Velocity: 79
Note ON: Time 84000, Note Name: C5, Velocity: 94
Note OFF: Time 84120, Note Name: C5
Note OFF: Time 84120, Note Name: A4
Note OFF: Time 84120, Note Name: C4
Note ON: Time 84480, Note Name: D6, Velocity: 50
Note OFF: Time 84660, Note Name: D6
Note ON: Time 84660, Note Name: A5, Velocity: 42
Note ON: Time 84660, Note Name: F6, Velocity: 50
Note OFF: Time 84714, Note Name: F6
Note OFF: Time 84714, Note Name: A5
Note ON: Time 84720, Note Name: A5, Velocity: 53
Note ON: Time 84720, Note Name: F6, Velocity: 62
Note ON: Time 84840, Note Name: F5, Velocity: 46
Note OFF: Time 84960, Note Name: F6
Note OFF: Time 84960, Note Name: A5
Note ON: Time 84960, Note Name: D6, Velocity: 55
Note OFF: Time 85080, Note Name: D6
Note OFF: Time 85080, Note Name: F5
Note ON: Time 85200, Note Name: A#5, Velocity: 50
Note OFF: Time 85380, Note Name: A#5
Note ON: Time 85380, Note Name: F#5, Velocity: 42
Note ON: Time 85380, Note Name: D6, Velocity: 50
Note OFF: Time 85434, Note Name: D6
Note OFF: Time 85434, Note Name: F#5
Note ON: Time 85440, Note Name: D6, Velocity: 62
Note ON: Time 85560, Note Name: D5, Velocity: 46
Note OFF: Time 85680, Note Name: D6
Note ON: Time 85680, Note Name: A#5, Velocity: 55
Note OFF: Time 85800, Note Name: A#5
Note OFF: Time 85800, Note Name: D5
Note ON: Time 85920, Note Name: G5, Velocity: 52
Note OFF: Time 86100, Note Name: G5
Note ON: Time 86100, Note Name: D5, Velocity: 44
Note ON: Time 86100, Note Name: A#5, Velocity: 53
Note OFF: Time 86154, Note Name: A#5
Note OFF: Time 86154, Note Name: D5
Note ON: Time 86160, Note Name: A#5, Velocity: 66
Note ON: Time 86280, Note Name: A#4, Velocity: 51
Note OFF: Time 86400, Note Name: A#5
Note ON: Time 86400, Note Name: G5, Velocity: 61
Note OFF: Time 86520, Note Name: G5
Note OFF: Time 86520, Note Name: A#4
Note ON: Time 86640, Note Name: A#4, Velocity: 47
Note ON: Time 86640, Note Name: G5, Velocity: 57
Note OFF: Time 86820, Note Name: G5
Note OFF: Time 86820, Note Name: A#4
Note ON: Time 86820, Note Name: D#5, Velocity: 48
Note ON: Time 86820, Note Name: A5, Velocity: 58
Note OFF: Time 86874, Note Name: A5
Note OFF: Time 86874, Note Name: D#5
Note ON: Time 86880, Note Name: A5, Velocity: 72
Note ON: Time 87009, Note Name: D#5, Velocity: 62
Note OFF: Time 87120, Note Name: A5
Note ON: Time 87120, Note Name: A#4, Velocity: 55
Note ON: Time 87120, Note Name: A#5, Velocity: 66
Note OFF: Time 87129, Note Name: D#5
Note OFF: Time 87240, Note Name: A#5
Note OFF: Time 87240, Note Name: A#4
Note ON: Time 87360, Note Name: F5, Velocity: 51
Note ON: Time 87360, Note Name: A#5, Velocity: 61
Note OFF: Time 87540, Note Name: A#5
Note ON: Time 87540, Note Name: C6, Velocity: 63
Note OFF: Time 87594, Note Name: C6
Note OFF: Time 87600, Note Name: F5
Note ON: Time 87600, Note Name: C6, Velocity: 79
Note ON: Time 87720, Note Name: F5, Velocity: 67
Note OFF: Time 87840, Note Name: C6
Note ON: Time 87840, Note Name: D6, Velocity: 72
Note OFF: Time 87960, Note Name: D6
Note OFF: Time 87960, Note Name: F5
Note ON: Time 88080, Note Name: A#5, Velocity: 56
Note ON: Time 88080, Note Name: D#6, Velocity: 67
Note OFF: Time 88260, Note Name: D#6
Note ON: Time 88260, Note Name: E6, Velocity: 70
Note OFF: Time 88314, Note Name: E6
Note OFF: Time 88320, Note Name: A#5
Note ON: Time 88320, Note Name: E6, Velocity: 88
Note ON: Time 88440, Note Name: A#5, Velocity: 76
Note OFF: Time 88560, Note Name: A#5
Note OFF: Time 88560, Note Name: E6
Note ON: Time 88560, Note Name: A5, Velocity: 68
Note ON: Time 88560, Note Name: F6, Velocity: 82
Note OFF: Time 88620, Note Name: F6
Note OFF: Time 88620, Note Name: A5
Note ON: Time 88800, Note Name: G5, Velocity: 79
Note ON: Time 88800, Note Name: A#5, Velocity: 79
Note ON: Time 88800, Note Name: E6, Velocity: 79
Note ON: Time 88800, Note Name: G6, Velocity: 94
Note OFF: Time 88860, Note Name: G6
Note OFF: Time 88860, Note Name: G5
Note OFF: Time 88860, Note Name: A#5
Note OFF: Time 88860, Note Name: E6
Note ON: Time 89040, Note Name: F5, Velocity: 79
Note ON: Time 89040, Note Name: A5, Velocity: 79
Note ON: Time 89040, Note Name: F6, Velocity: 94
Note OFF: Time 89160, Note Name: F6
Note OFF: Time 89160, Note Name: A5
Note OFF: Time 89160, Note Name: F5
Note ON: Time 89520, Note Name: B4, Velocity: 43
Note ON: Time 89520, Note Name: D5, Velocity: 50
Note OFF: Time 89700, Note Name: D5
Note OFF: Time 89700, Note Name: B4
Note ON: Time 89700, Note Name: D5, Velocity: 42
Note ON: Time 89700, Note Name: F5, Velocity: 50
Note OFF: Time 89745, Note Name: F5
Note OFF: Time 89745, Note Name: D5
Note ON: Time 89760, Note Name: D5, Velocity: 53
Note ON: Time 89760, Note Name: F5, Velocity: 62
Note OFF: Time 90000, Note Name: F5
Note OFF: Time 90000, Note Name: D5
Note ON: Time 90000, Note Name: B4, Velocity: 46
Note ON: Time 90000, Note Name: D5, Velocity: 55
Note OFF: Time 90120, Note Name: D5
Note OFF: Time 90120, Note Name: B4
Note ON: Time 90240, Note Name: B4, Velocity: 43
Note ON: Time 90240, Note Name: D5, Velocity: 50
Note OFF: Time 90420, Note Name: D5
Note OFF: Time 90420, Note Name: B4
Note ON: Time 90420, Note Name: D#5, Velocity: 42
Note ON: Time 90420, Note Name: G5, Velocity: 50
Note OFF: Time 90465, Note Name: G5
Note OFF: Time 90465, Note Name: D#5
Note ON: Time 90480, Note Name: D#5, Velocity: 53
Note ON: Time 90480, Note Name: G5, Velocity: 62
Note OFF: Time 90720, Note Name: G5
Note OFF: Time 90720, Note Name: D#5
Note ON: Time 90720, Note Name: C5, Velocity: 46
Note ON: Time 90720, Note Name: D#5, Velocity: 55
Note OFF: Time 90840, Note Name: D#5
Note OFF: Time 90840, Note Name: C5
Note ON: Time 90960, Note Name: A4, Velocity: 43
Note ON: Time 90960, Note Name: C5, Velocity: 50
Note OFF: Time 91140, Note Name: C5
Note OFF: Time 91140, Note Name: A4
Note ON: Time 91140, Note Name: C5, Velocity: 42
Note ON: Time 91140, Note Name: D#5, Velocity: 50
Note OFF: Time 91185, Note Name: D#5
Note OFF: Time 91185, Note Name: C5
Note ON: Time 91200, Note Name: C5, Velocity: 53
Note ON: Time 91200, Note Name: D#5, Velocity: 62
Note ON: Time 91320, Note Name: D#4, Velocity: 34
Note OFF: Time 91440, Note Name: D#5
Note OFF: Time 91440, Note Name: C5
Note ON: Time 91440, Note Name: A4, Velocity: 46
Note ON: Time 91440, Note Name: C5, Velocity: 55
Note OFF: Time 91560, Note Name: C5
Note OFF: Time 91560, Note Name: A4
Note OFF: Time 91560, Note Name: D#4
Note ON: Time 91680, Note Name: A4, Velocity: 43
Note ON: Time 91680, Note Name: C5, Velocity: 50
Note OFF: Time 91860, Note Name: C5
Note OFF: Time 91860, Note Name: A4
Note ON: Time 91860, Note Name: C#5, Velocity: 42
Note ON: Time 91860, Note Name: F5, Velocity: 50
Note OFF: Time 91905, Note Name: F5
Note OFF: Time 91905, Note Name: C#5
Note ON: Time 91920, Note Name: D5, Velocity: 53
Note ON: Time 91920, Note Name: F5, Velocity: 62
Note ON: Time 92040, Note Name: F4, Velocity: 34
Note OFF: Time 92160, Note Name: F5
Note OFF: Time 92160, Note Name: D5
Note ON: Time 92160, Note Name: A#4, Velocity: 46
Note ON: Time 92160, Note Name: D5, Velocity: 55
Note OFF: Time 92280, Note Name: D5
Note OFF: Time 92280, Note Name: A#4
Note OFF: Time 92280, Note Name: F4
Note ON: Time 92400, Note Name: A3, Velocity: 38
Note ON: Time 92400, Note Name: C4, Velocity: 45
Note OFF: Time 92580, Note Name: C4
Note OFF: Time 92580, Note Name: A3
Note ON: Time 92580, Note Name: C4, Velocity: 37
Note ON: Time 92580, Note Name: D#4, Velocity: 45
Note OFF: Time 92625, Note Name: D#4
Note OFF: Time 92625, Note Name: C4
Note ON: Time 92640, Note Name: C4, Velocity: 47
Note ON: Time 92640, Note Name: D#4, Velocity: 55
Note OFF: Time 93120, Note Name: D#4
Note OFF: Time 93120, Note Name: C4
Note ON: Time 93120, Note Name: A#3, Velocity: 40
Note ON: Time 93120, Note Name: D4, Velocity: 48
Note OFF: Time 93360, Note Name: D4
Note OFF: Time 93360, Note Name: A#3
Note ON: Time 93360, Note Name: A3, Velocity: 39
Note ON: Time 93360, Note Name: C4, Velocity: 46
Note OFF: Time 93600, Note Name: C4
Note OFF: Time 93600, Note Name: A3
Note ON: Time 93600, Note Name: G3, Velocity: 38
Note ON: Time 93600, Note Name: A#3, Velocity: 45
Note OFF: Time 93840, Note Name: A#3
Note OFF: Time 93840, Note Name: G3
Note ON: Time 93840, Note Name: F3, Velocity: 36
Note ON: Time 93840, Note Name: A3, Velocity: 43
Note OFF: Time 94320, Note Name: A3
Note OFF: Time 94320, Note Name: F3
Note ON: Time 94320, Note Name: E3, Velocity: 33
Note ON: Time 94320, Note Name: G3, Velocity: 39
Note OFF: Time 94560, Note Name: G3
Note OFF: Time 94560, Note Name: E3
Note ON: Time 94560, Note Name: D#3, Velocity: 32
Note ON: Time 94560, Note Name: G3, Velocity: 32
Note ON: Time 94560, Note Name: C4, Velocity: 38
Note OFF: Time 95040, Note Name: C4
Note OFF: Time 95040, Note Name: D#3
Note ON: Time 95040, Note Name: D3, Velocity: 32
Note ON: Time 95040, Note Name: B3, Velocity: 38
Note OFF: Time 95280, Note Name: B3
Note OFF: Time 95280, Note Name: D3
Note OFF: Time 95280, Note Name: G3
Note ON: Time 96000, Note Name: B3, Velocity: 40
Note OFF: Time 96180, Note Name: B3
Note ON: Time 96180, Note Name: D4, Velocity: 40
Note OFF: Time 96234, Note Name: D4
Note ON: Time 96240, Note Name: D4, Velocity: 49
Note OFF: Time 96480, Note Name: D4
Note ON: Time 96480, Note Name: B3, Velocity: 44
Note OFF: Time 96600, Note Name: B3
Note ON: Time 96720, Note Name: D4, Velocity: 33
Note ON: Time 96720, Note Name: B4, Velocity: 40
Note OFF: Time 96900, Note Name: B4
Note ON: Time 96900, Note Name: D5, Velocity: 40
Note OFF: Time 96954, Note Name: D5
Note ON: Time 96960, Note Name: D5, Velocity: 49
Note OFF: Time 97078, Note Name: D4
Note ON: Time 97080, Note Name: D4, Velocity: 33
Note OFF: Time 97200, Note Name: D5
Note ON: Time 97200, Note Name: B4, Velocity: 44
Note OFF: Time 97320, Note Name: B4
Note OFF: Time 97320, Note Name: D4
Note ON: Time 97440, Note Name: C6, Velocity: 46
Note OFF: Time 97620, Note Name: C6
Note ON: Time 97620, Note Name: D#6, Velocity: 46
Note OFF: Time 97674, Note Name: D#6
Note ON: Time 97680, Note Name: D#6, Velocity: 56
Note OFF: Time 97920, Note Name: D#6
Note ON: Time 97920, Note Name: C6, Velocity: 50
Note OFF: Time 98040, Note Name: C6
Note ON: Time 98160, Note Name: D4, Velocity: 43
Note ON: Time 98160, Note Name: B4, Velocity: 50
Note OFF: Time 98340, Note Name: B4
Note OFF: Time 98340, Note Name: D4
Note ON: Time 98340, Note Name: F4, Velocity: 42
Note ON: Time 98340, Note Name: D5, Velocity: 50
Note OFF: Time 98385, Note Name: D5
Note OFF: Time 98385, Note Name: F4
Note ON: Time 98400, Note Name: F4, Velocity: 53
Note ON: Time 98400, Note Name: D5, Velocity: 62
Note OFF: Time 98640, Note Name: D5
Note OFF: Time 98640, Note Name: F4
Note ON: Time 98640, Note Name: D4, Velocity: 46
Note ON: Time 98640, Note Name: B4, Velocity: 55
Note OFF: Time 98760, Note Name: B4
Note OFF: Time 98760, Note Name: D4
Note ON: Time 98880, Note Name: D4, Velocity: 49
Note ON: Time 98880, Note Name: B4, Velocity: 57
Note OFF: Time 99060, Note Name: B4
Note OFF: Time 99060, Note Name: D4
Note ON: Time 99060, Note Name: G4, Velocity: 48
Note ON: Time 99060, Note Name: D#5, Velocity: 57
Note OFF: Time 99105, Note Name: D#5
Note OFF: Time 99105, Note Name: G4
Note ON: Time 99120, Note Name: G4, Velocity: 61
Note ON: Time 99120, Note Name: D#5, Velocity: 72
Note OFF: Time 99360, Note Name: D#5
Note OFF: Time 99360, Note Name: G4
Note ON: Time 99360, Note Name: D#4, Velocity: 54
Note ON: Time 99360, Note Name: C5, Velocity: 66
Note OFF: Time 99480, Note Name: C5
Note OFF: Time 99480, Note Name: D#4
Note ON: Time 99600, Note Name: A4, Velocity: 59
Note ON: Time 99600, Note Name: C5, Velocity: 71
Note OFF: Time 99780, Note Name: C5
Note OFF: Time 99780, Note Name: A4
Note ON: Time 99780, Note Name: C5, Velocity: 65
Note ON: Time 99780, Note Name: A5, Velocity: 75
Note OFF: Time 99834, Note Name: A5
Note OFF: Time 99834, Note Name: C5
Note ON: Time 99840, Note Name: C5, Velocity: 80
Note ON: Time 99840, Note Name: A5, Velocity: 94
Note OFF: Time 100080, Note Name: A5
Note OFF: Time 100080, Note Name: C5
Note ON: Time 100080, Note Name: A4, Velocity: 72
Note ON: Time 100080, Note Name: F5, Velocity: 87
Note OFF: Time 100140, Note Name: F5
Note OFF: Time 100140, Note Name: A4
Note ON: Time 100320, Note Name: A#4, Velocity: 90
Note ON: Time 100320, Note Name: A#5, Velocity: 108
Note OFF: Time 100380, Note Name: A#5
Note OFF: Time 100380, Note Name: A#4
Note ON: Time 100560, Note Name: A#4, Velocity: 90
Note ON: Time 100560, Note Name: A#5, Velocity: 108
Note OFF: Time 100680, Note Name: A#5
Note OFF: Time 100680, Note Name: A#4
Note ON: Time 101040, Note Name: B5, Velocity: 43
Note ON: Time 101040, Note Name: D6, Velocity: 50
Note OFF: Time 101220, Note Name: D6
Note OFF: Time 101220, Note Name: B5
Note ON: Time 101220, Note Name: D6, Velocity: 42
Note ON: Time 101220, Note Name: F6, Velocity: 50
Note OFF: Time 101265, Note Name: F6
Note OFF: Time 101265, Note Name: D6
Note ON: Time 101280, Note Name: D6, Velocity: 53
Note ON: Time 101280, Note Name: F6, Velocity: 62
Note OFF: Time 101520, Note Name: F6
Note OFF: Time 101520, Note Name: D6
Note ON: Time 101520, Note Name: B5, Velocity: 46
Note ON: Time 101520, Note Name: D6, Velocity: 55
Note OFF: Time 101640, Note Name: D6
Note OFF: Time 101640, Note Name: B5
Note ON: Time 101760, Note Name: B5, Velocity: 43
Note ON: Time 101760, Note Name: D6, Velocity: 50
Note OFF: Time 101940, Note Name: D6
Note OFF: Time 101940, Note Name: B5
Note ON: Time 101940, Note Name: D#6, Velocity: 42
Note ON: Time 101940, Note Name: G6, Velocity: 50
Note OFF: Time 101985, Note Name: G6
Note OFF: Time 101985, Note Name: D#6
Note ON: Time 102000, Note Name: D#6, Velocity: 53
Note ON: Time 102000, Note Name: G6, Velocity: 62
Note OFF: Time 102240, Note Name: G6
Note OFF: Time 102240, Note Name: D#6
Note ON: Time 102240, Note Name: C6, Velocity: 46
Note ON: Time 102240, Note Name: D#6, Velocity: 55
Note OFF: Time 102360, Note Name: D#6
Note OFF: Time 102360, Note Name: C6
Note ON: Time 102480, Note Name: A5, Velocity: 43
Note ON: Time 102480, Note Name: C6, Velocity: 50
Note OFF: Time 102660, Note Name: C6
Note OFF: Time 102660, Note Name: A5
Note ON: Time 102660, Note Name: C6, Velocity: 42
Note ON: Time 102660, Note Name: D#6, Velocity: 50
Note OFF: Time 102705, Note Name: D#6
Note OFF: Time 102705, Note Name: C6
Note ON: Time 102720, Note Name: C6, Velocity: 53
Note ON: Time 102720, Note Name: D#6, Velocity: 62
Note ON: Time 102840, Note Name: D#5, Velocity: 39
Note OFF: Time 102960, Note Name: D#6
Note OFF: Time 102960, Note Name: C6
Note ON: Time 102960, Note Name: A5, Velocity: 46
Note ON: Time 102960, Note Name: C6, Velocity: 55
Note OFF: Time 103080, Note Name: C6
Note OFF: Time 103080, Note Name: A5
Note OFF: Time 103080, Note Name: D#5
Note ON: Time 103200, Note Name: A5, Velocity: 43
Note ON: Time 103200, Note Name: C6, Velocity: 50
Note OFF: Time 103380, Note Name: C6
Note OFF: Time 103380, Note Name: A5
Note ON: Time 103380, Note Name: C#6, Velocity: 42
Note ON: Time 103380, Note Name: F6, Velocity: 50
Note OFF: Time 103425, Note Name: F6
Note OFF: Time 103425, Note Name: C#6
Note ON: Time 103440, Note Name: D6, Velocity: 53
Note ON: Time 103440, Note Name: F6, Velocity: 62
Note ON: Time 103560, Note Name: F5, Velocity: 39
Note OFF: Time 103680, Note Name: F6
Note OFF: Time 103680, Note Name: D6
Note ON: Time 103680, Note Name: A#5, Velocity: 46
Note ON: Time 103680, Note Name: D6, Velocity: 55
Note OFF: Time 103800, Note Name: D6
Note OFF: Time 103800, Note Name: A#5
Note OFF: Time 103800, Note Name: F5
Note ON: Time 103920, Note Name: A4, Velocity: 38
Note ON: Time 103920, Note Name: C5, Velocity: 45
Note OFF: Time 104100, Note Name: C5
Note OFF: Time 104100, Note Name: A4
Note ON: Time 104100, Note Name: C5, Velocity: 37
Note ON: Time 104100, Note Name: D#5, Velocity: 45
Note OFF: Time 104145, Note Name: D#5
Note OFF: Time 104145, Note Name: C5
Note ON: Time 104160, Note Name: C5, Velocity: 47
Note ON: Time 104160, Note Name: D#5, Velocity: 55
Note OFF: Time 104640, Note Name: D#5
Note OFF: Time 104640, Note Name: C5
Note ON: Time 104640, Note Name: A#4, Velocity: 40
Note ON: Time 104640, Note Name: D5, Velocity: 48
Note OFF: Time 104880, Note Name: D5
Note OFF: Time 104880, Note Name: A#4
Note ON: Time 104880, Note Name: A4, Velocity: 39
Note ON: Time 104880, Note Name: C5, Velocity: 46
Note OFF: Time 105120, Note Name: C5
Note OFF: Time 105120, Note Name: A4
Note ON: Time 105120, Note Name: G4, Velocity: 38
Note ON: Time 105120, Note Name: A#4, Velocity: 45
Note OFF: Time 105360, Note Name: A#4
Note OFF: Time 105360, Note Name: G4
Note ON: Time 105360, Note Name: F4, Velocity: 36
Note ON: Time 105360, Note Name: A4, Velocity: 43
Note OFF: Time 105840, Note Name: A4
Note OFF: Time 105840, Note Name: F4
Note ON: Time 105840, Note Name: E4, Velocity: 33
Note ON: Time 105840, Note Name: G4, Velocity: 39
Note OFF: Time 106080, Note Name: G4
Note OFF: Time 106080, Note Name: E4
Note ON: Time 106080, Note Name: D#4, Velocity: 32
Note ON: Time 106080, Note Name: G4, Velocity: 32
Note ON: Time 106080, Note Name: C5, Velocity: 38
Note OFF: Time 106560, Note Name: C5
Note OFF: Time 106560, Note Name: D#4
Note ON: Time 106560, Note Name: D4, Velocity: 32
Note ON: Time 106560, Note Name: B4, Velocity: 38
Note OFF: Time 106800, Note Name: B4
Note OFF: Time 106800, Note Name: D4
Note OFF: Time 106800, Note Name: G4
Note ON: Time 107520, Note Name: B4, Velocity: 40
Note OFF: Time 107700, Note Name: B4
Note ON: Time 107700, Note Name: D5, Velocity: 40
Note OFF: Time 107754, Note Name: D5
Note ON: Time 107760, Note Name: D5, Velocity: 49
Note OFF: Time 108000, Note Name: D5
Note ON: Time 108000, Note Name: B4, Velocity: 44
Note OFF: Time 108120, Note Name: B4
Note ON: Time 108240, Note Name: D3, Velocity: 33
Note ON: Time 108240, Note Name: B3, Velocity: 40
Note OFF: Time 108420, Note Name: B3
Note ON: Time 108420, Note Name: D4, Velocity: 40
Note OFF: Time 108474, Note Name: D4
Note ON: Time 108480, Note Name: D4, Velocity: 49
Note OFF: Time 108600, Note Name: D3
Note ON: Time 108600, Note Name: D3, Velocity: 33
Note OFF: Time 108720, Note Name: D4
Note ON: Time 108720, Note Name: B3, Velocity: 44
Note OFF: Time 108840, Note Name: B3
Note OFF: Time 108840, Note Name: D3
Note ON: Time 108960, Note Name: C6, Velocity: 46
Note OFF: Time 109140, Note Name: C6
Note ON: Time 109140, Note Name: D#6, Velocity: 46
Note OFF: Time 109194, Note Name: D#6
Note ON: Time 109200, Note Name: D#6, Velocity: 56
Note OFF: Time 109440, Note Name: D#6
Note ON: Time 109440, Note Name: C6, Velocity: 50
Note OFF: Time 109560, Note Name: C6
Note ON: Time 109680, Note Name: D5, Velocity: 43
Note ON: Time 109680, Note Name: B5, Velocity: 50
Note OFF: Time 109860, Note Name: B5
Note OFF: Time 109860, Note Name: D5
Note ON: Time 109860, Note Name: F5, Velocity: 42
Note ON: Time 109860, Note Name: D6, Velocity: 50
Note OFF: Time 109905, Note Name: D6
Note OFF: Time 109905, Note Name: F5
Note ON: Time 109920, Note Name: F5, Velocity: 53
Note ON: Time 109920, Note Name: D6, Velocity: 62
Note OFF: Time 110160, Note Name: D6
Note OFF: Time 110160, Note Name: F5
Note ON: Time 110160, Note Name: D5, Velocity: 47
Note ON: Time 110160, Note Name: B5, Velocity: 56
Note OFF: Time 110280, Note Name: B5
Note OFF: Time 110280, Note Name: D5
Note ON: Time 110400, Note Name: D5, Velocity: 51
Note ON: Time 110400, Note Name: B5, Velocity: 59
Note OFF: Time 110580, Note Name: B5
Note OFF: Time 110580, Note Name: D5
Note ON: Time 110580, Note Name: G5, Velocity: 50
Note ON: Time 110580, Note Name: D#6, Velocity: 60
Note OFF: Time 110625, Note Name: D#6
Note OFF: Time 110625, Note Name: G5
Note ON: Time 110640, Note Name: G5, Velocity: 63
Note ON: Time 110640, Note Name: D#6, Velocity: 75
Note OFF: Time 110880, Note Name: D#6
Note OFF: Time 110880, Note Name: G5
Note ON: Time 110880, Note Name: D#5, Velocity: 56
Note ON: Time 110880, Note Name: C6, Velocity: 68
Note OFF: Time 111000, Note Name: C6
Note OFF: Time 111000, Note Name: D#5
Note ON: Time 111120, Note Name: A5, Velocity: 63
Note ON: Time 111120, Note Name: C6, Velocity: 77
Note OFF: Time 111300, Note Name: C6
Note OFF: Time 111300, Note Name: A5
Note ON: Time 111300, Note Name: C6, Velocity: 69
Note ON: Time 111300, Note Name: A6, Velocity: 80
Note OFF: Time 111354, Note Name: A6
Note OFF: Time 111354, Note Name: C6
Note ON: Time 111360, Note Name: C6, Velocity: 85
Note ON: Time 111360, Note Name: A6, Velocity: 101
Note OFF: Time 111600, Note Name: A6
Note OFF: Time 111600, Note Name: C6
Note ON: Time 111600, Note Name: A5, Velocity: 77
Note ON: Time 111600, Note Name: F6, Velocity: 93
Note OFF: Time 111660, Note Name: F6
Note OFF: Time 111660, Note Name: A5
Note ON: Time 111840, Note Name: A#5, Velocity: 99
Note ON: Time 111840, Note Name: A#6, Velocity: 117
Note OFF: Time 111900, Note Name: A#6
Note OFF: Time 111900, Note Name: A#5
Note ON: Time 112080, Note Name: A#5, Velocity: 99
Note ON: Time 112080, Note Name: A#6, Velocity: 117
Note OFF: Time 112200, Note Name: A#6
Note OFF: Time 112200, Note Name: A#5
Note ON: Time 112560, Note Name: B3, Velocity: 28
Note ON: Time 112560, Note Name: B4, Velocity: 35
Note OFF: Time 112620, Note Name: B4
Note OFF: Time 112620, Note Name: B3
Note ON: Time 112800, Note Name: B3, Velocity: 28
Note ON: Time 112800, Note Name: B4, Velocity: 35
Note OFF: Time 112920, Note Name: B4
Note OFF: Time 112920, Note Name: B3
Note ON: Time 113280, Note Name: A#5, Velocity: 99
Note ON: Time 113280, Note Name: A#6, Velocity: 117
Note OFF: Time 113340, Note Name: A#6
Note OFF: Time 113340, Note Name: A#5
Note ON: Time 113520, Note Name: A#5, Velocity: 99
Note ON: Time 113520, Note Name: A#6, Velocity: 117
Note OFF: Time 113640, Note Name: A#6
Note OFF: Time 113640, Note Name: A#5
Note ON: Time 114000, Note Name: B3, Velocity: 25
Note ON: Time 114000, Note Name: B4, Velocity: 31
Note OFF: Time 114060, Note Name: B4
Note OFF: Time 114060, Note Name: B3
Note ON: Time 114240, Note Name: B3, Velocity: 25
Note ON: Time 114240, Note Name: B4, Velocity: 30
Note OFF: Time 114360, Note Name: B4
Note OFF: Time 114360, Note Name: B3
Note ON: Time 114720, Note Name: A#3, Velocity: 23
Note ON: Time 114720, Note Name: A#4, Velocity: 28
Note OFF: Time 114780, Note Name: A#4
Note OFF: Time 114780, Note Name: A#3
Note ON: Time 114960, Note Name: A#3, Velocity: 22
Note ON: Time 114960, Note Name: A#4, Velocity: 27
Note OFF: Time 115080, Note Name: A#4
Note OFF: Time 115080, Note Name: A#3
Note ON: Time 115440, Note Name: D4, Velocity: 31
Note OFF: Time 115620, Note Name: D4
Note ON: Time 115620, Note Name: F#4, Velocity: 28
Note OFF: Time 115677, Note Name: F#4
Note ON: Time 115680, Note Name: F#4, Velocity: 33
Note OFF: Time 115920, Note Name: F#4
Note ON: Time 115920, Note Name: D4, Velocity: 28
Note OFF: Time 116040, Note Name: D4
Note ON: Time 116160, Note Name: B3, Velocity: 22
Note ON: Time 116160, Note Name: B4, Velocity: 28
Note OFF: Time 116220, Note Name: B4
Note OFF: Time 116220, Note Name: B3
Note ON: Time 116400, Note Name: B3, Velocity: 22
Note ON: Time 116400, Note Name: B4, Velocity: 27
Note OFF: Time 116520, Note Name: B4
Note OFF: Time 116520, Note Name: B3
Note ON: Time 116880, Note Name: B3, Velocity: 22
Note ON: Time 116880, Note Name: B4, Velocity: 28
Note OFF: Time 116940, Note Name: B4
Note OFF: Time 116940, Note Name: B3
Note ON: Time 117120, Note Name: B3, Velocity: 22
Note ON: Time 117120, Note Name: B4, Velocity: 27
Note OFF: Time 117240, Note Name: B4
Note OFF: Time 117240, Note Name: B3
Note ON: Time 117600, Note Name: B3, Velocity: 39
Note ON: Time 117600, Note Name: B4, Velocity: 46
Note OFF: Time 117719, Note Name: B4
Note OFF: Time 117719, Note Name: B3
Note ON: Time 117840, Note Name: B3, Velocity: 39
Note ON: Time 117840, Note Name: B4, Velocity: 47
Note OFF: Time 118078, Note Name: B4
Note OFF: Time 118078, Note Name: B3
Note ON: Time 118080, Note Name: B3, Velocity: 43
Note ON: Time 118080, Note Name: B4, Velocity: 51
Note OFF: Time 118318, Note Name: B4
Note OFF: Time 118318, Note Name: B3
Note ON: Time 118320, Note Name: B3, Velocity: 45
Note ON: Time 118320, Note Name: B4, Velocity: 55
Note OFF: Time 118558, Note Name: B4
Note OFF: Time 118558, Note Name: B3
Note ON: Time 118560, Note Name: B3, Velocity: 50
Note ON: Time 118560, Note Name: B4, Velocity: 59
Note OFF: Time 118798, Note Name: B4
Note OFF: Time 118798, Note Name: B3
Note ON: Time 118800, Note Name: B3, Velocity: 55
Note ON: Time 118800, Note Name: B4, Velocity: 65
Note OFF: Time 119038, Note Name: B4
Note OFF: Time 119038, Note Name: B3
Note ON: Time 119040, Note Name: B4, Velocity: 60
Note ON: Time 119040, Note Name: B5, Velocity: 72
Note OFF: Time 119278, Note Name: B5
Note OFF: Time 119278, Note Name: B4
Note ON: Time 119280, Note Name: B4, Velocity: 66
Note ON: Time 119280, Note Name: B5, Velocity: 79
Note OFF: Time 119518, Note Name: B5
Note OFF: Time 119518, Note Name: B4
Note ON: Time 119520, Note Name: B4, Velocity: 73
Note ON: Time 119520, Note Name: B5, Velocity: 87
Note OFF: Time 119758, Note Name: B5
Note OFF: Time 119758, Note Name: B4
Note ON: Time 119760, Note Name: B4, Velocity: 96
Note ON: Time 119760, Note Name: B5, Velocity: 81
Note OFF: Time 119998, Note Name: B5
Note OFF: Time 119998, Note Name: B4
Note ON: Time 120000, Note Name: B5, Velocity: 81
Note ON: Time 120000, Note Name: B6, Velocity: 97
Note OFF: Time 120238, Note Name: B6
Note OFF: Time 120238, Note Name: B5
Note ON: Time 120240, Note Name: B5, Velocity: 82
Note ON: Time 120240, Note Name: B6, Velocity: 97
Note OFF: Time 120478, Note Name: B6
Note OFF: Time 120478, Note Name: B5
Note ON: Time 120480, Note Name: B5, Velocity: 83
Note ON: Time 120480, Note Name: B6, Velocity: 98
Note OFF: Time 120718, Note Name: B6
Note OFF: Time 120718, Note Name: B5
Note ON: Time 120720, Note Name: B6, Velocity: 105
Note ON: Time 120720, Note Name: B5, Velocity: 88
Note OFF: Time 120958, Note Name: B5
Note OFF: Time 120958, Note Name: B6
Note ON: Time 120960, Note Name: B6, Velocity: 99
Note ON: Time 120960, Note Name: B5, Velocity: 83
Note OFF: Time 121198, Note Name: B5
Note OFF: Time 121198, Note Name: B6
Note ON: Time 121200, Note Name: B6, Velocity: 100
Note ON: Time 121200, Note Name: B5, Velocity: 84
Note OFF: Time 121440, Note Name: B5
Note OFF: Time 121440, Note Name: B6
Note ON: Time 121440, Note Name: A#5, Velocity: 92
Note ON: Time 121440, Note Name: A#6, Velocity: 109
Note OFF: Time 121560, Note Name: A#6
Note OFF: Time 121560, Note Name: A#5
Note ON: Time 121680, Note Name: A#5, Velocity: 92
Note ON: Time 121680, Note Name: A#6, Velocity: 109
Note OFF: Time 121800, Note Name: A#6
Note OFF: Time 121800, Note Name: A#5
Note ON: Time 122160, Note Name: D4, Velocity: 40
Note OFF: Time 122340, Note Name: D4
Note ON: Time 122340, Note Name: F4, Velocity: 40
Note OFF: Time 122394, Note Name: F4
Note ON: Time 122400, Note Name: F4, Velocity: 49
Note ON: Time 122520, Note Name: C4, Velocity: 46
Note OFF: Time 122640, Note Name: F4
Note ON: Time 122640, Note Name: F3, Velocity: 33
Note ON: Time 122640, Note Name: D4, Velocity: 44
Note OFF: Time 122760, Note Name: D4
Note OFF: Time 122760, Note Name: F3
Note OFF: Time 122760, Note Name: C4
Note ON: Time 122870, Note Name: D5, Velocity: 40
Note OFF: Time 123050, Note Name: D5
Note ON: Time 123050, Note Name: F5, Velocity: 40
Note OFF: Time 123104, Note Name: F5
Note ON: Time 123110, Note Name: F5, Velocity: 49
Note ON: Time 123230, Note Name: C5, Velocity: 33
Note OFF: Time 123350, Note Name: F5
Note ON: Time 123350, Note Name: F4, Velocity: 33
Note ON: Time 123350, Note Name: D5, Velocity: 44
Note OFF: Time 123470, Note Name: D5
Note OFF: Time 123470, Note Name: F4
Note OFF: Time 123470, Note Name: C5
Note ON: Time 123597, Note Name: D6, Velocity: 34
Note OFF: Time 123777, Note Name: D6
Note ON: Time 123777, Note Name: F6, Velocity: 34
Note OFF: Time 123831, Note Name: F6
Note ON: Time 123837, Note Name: F6, Velocity: 41
Note ON: Time 123957, Note Name: C6, Velocity: 35
Note OFF: Time 124077, Note Name: F6
Note ON: Time 124077, Note Name: F5, Velocity: 28
Note ON: Time 124077, Note Name: D6, Velocity: 37
Note OFF: Time 124197, Note Name: D6
Note OFF: Time 124197, Note Name: F5
Note OFF: Time 124197, Note Name: C6
Track 2: Piano left
Note ON: Time 480, Note Name: D4, Velocity: 40
Note ON: Time 480, Note Name: A#3, Velocity: 34
Note OFF: Time 660, Note Name: A#3
Note OFF: Time 660, Note Name: D4
Note ON: Time 660, Note Name: F3, Velocity: 34
Note ON: Time 660, Note Name: C4, Velocity: 40
Note OFF: Time 714, Note Name: C4
Note OFF: Time 714, Note Name: F3
Note ON: Time 720, Note Name: C4, Velocity: 50
Note ON: Time 720, Note Name: A3, Velocity: 42
Note OFF: Time 960, Note Name: A3
Note OFF: Time 960, Note Name: C4
Note ON: Time 960, Note Name: D4, Velocity: 44
Note ON: Time 960, Note Name: A#3, Velocity: 37
Note OFF: Time 1080, Note Name: A#3
Note OFF: Time 1080, Note Name: D4
Note ON: Time 1200, Note Name: A#3, Velocity: 40
Note ON: Time 1200, Note Name: G3, Velocity: 34
Note OFF: Time 1380, Note Name: G3
Note OFF: Time 1380, Note Name: A#3
Note ON: Time 1380, Note Name: D3, Velocity: 34
Note ON: Time 1380, Note Name: A3, Velocity: 40
Note OFF: Time 1434, Note Name: A3
Note OFF: Time 1434, Note Name: D3
Note ON: Time 1440, Note Name: A3, Velocity: 50
Note ON: Time 1440, Note Name: F#3, Velocity: 42
Note OFF: Time 1680, Note Name: F#3
Note OFF: Time 1680, Note Name: A3
Note ON: Time 1680, Note Name: A#3, Velocity: 44
Note ON: Time 1680, Note Name: G3, Velocity: 37
Note OFF: Time 1800, Note Name: G3
Note OFF: Time 1800, Note Name: A#3
Note ON: Time 1920, Note Name: G3, Velocity: 42
Note ON: Time 1920, Note Name: D#3, Velocity: 35
Note OFF: Time 2100, Note Name: D#3
Note OFF: Time 2100, Note Name: G3
Note ON: Time 2100, Note Name: A#2, Velocity: 36
Note ON: Time 2100, Note Name: F3, Velocity: 42
Note OFF: Time 2154, Note Name: F3
Note OFF: Time 2154, Note Name: A#2
Note ON: Time 2160, Note Name: F3, Velocity: 54
Note ON: Time 2160, Note Name: D3, Velocity: 45
Note OFF: Time 2400, Note Name: D3
Note OFF: Time 2400, Note Name: F3
Note ON: Time 2400, Note Name: G3, Velocity: 48
Note ON: Time 2400, Note Name: D#3, Velocity: 41
Note OFF: Time 2520, Note Name: D#3
Note OFF: Time 2520, Note Name: G3
Note ON: Time 2640, Note Name: G3, Velocity: 45
Note ON: Time 2640, Note Name: D#3, Velocity: 38
Note OFF: Time 2820, Note Name: D#3
Note OFF: Time 2820, Note Name: G3
Note ON: Time 2820, Note Name: C3, Velocity: 39
Note ON: Time 2820, Note Name: F3, Velocity: 46
Note OFF: Time 2874, Note Name: F3
Note OFF: Time 2874, Note Name: C3
Note ON: Time 2880, Note Name: F3, Velocity: 58
Note ON: Time 2880, Note Name: C3, Velocity: 49
Note OFF: Time 3120, Note Name: C3
Note ON: Time 3120, Note Name: D3, Velocity: 44
Note OFF: Time 3240, Note Name: D3
Note OFF: Time 3240, Note Name: F3
Note ON: Time 3360, Note Name: F3, Velocity: 41
Note ON: Time 3360, Note Name: D3, Velocity: 49
Note OFF: Time 3540, Note Name: D3
Note ON: Time 3540, Note Name: A2, Velocity: 42
Note OFF: Time 3594, Note Name: A2
Note OFF: Time 3600, Note Name: F3
Note ON: Time 3600, Note Name: F3, Velocity: 64
Note ON: Time 3600, Note Name: A2, Velocity: 53
Note OFF: Time 3840, Note Name: A2
Note ON: Time 3840, Note Name: G#2, Velocity: 48
Note OFF: Time 3960, Note Name: G#2
Note OFF: Time 3960, Note Name: F3
Note ON: Time 4080, Note Name: G#2, Velocity: 45
Note ON: Time 4080, Note Name: F3, Velocity: 53
Note OFF: Time 4260, Note Name: F3
Note OFF: Time 4260, Note Name: G#2
Note ON: Time 4260, Note Name: G2, Velocity: 46
Note ON: Time 4260, Note Name: D#3, Velocity: 46
Note OFF: Time 4314, Note Name: D#3
Note OFF: Time 4314, Note Name: G2
Note ON: Time 4320, Note Name: D#3, Velocity: 71
Note ON: Time 4320, Note Name: G2, Velocity: 59
Note OFF: Time 4560, Note Name: G2
Note OFF: Time 4560, Note Name: D#3
Note ON: Time 4560, Note Name: C#3, Velocity: 56
Note ON: Time 4560, Note Name: F2, Velocity: 49
Note OFF: Time 4620, Note Name: F2
Note OFF: Time 4620, Note Name: C#3
Note ON: Time 4800, Note Name: E2, Velocity: 58
Note ON: Time 4800, Note Name: C3, Velocity: 62
Note OFF: Time 4860, Note Name: C3
Note OFF: Time 4860, Note Name: E2
Note ON: Time 5040, Note Name: F2, Velocity: 58
Note ON: Time 5040, Note Name: F3, Velocity: 62
Note OFF: Time 5160, Note Name: F3
Note OFF: Time 5160, Note Name: F2
Note ON: Time 5520, Note Name: D5, Velocity: 40
Note ON: Time 5520, Note Name: A#4, Velocity: 34
Note OFF: Time 5700, Note Name: A#4
Note OFF: Time 5700, Note Name: D5
Note ON: Time 5700, Note Name: F4, Velocity: 34
Note ON: Time 5700, Note Name: C5, Velocity: 40
Note OFF: Time 5754, Note Name: C5
Note OFF: Time 5754, Note Name: F4
Note ON: Time 5760, Note Name: C5, Velocity: 50
Note ON: Time 5760, Note Name: A4, Velocity: 42
Note OFF: Time 6000, Note Name: A4
Note OFF: Time 6000, Note Name: C5
Note ON: Time 6000, Note Name: D5, Velocity: 44
Note ON: Time 6000, Note Name: A#4, Velocity: 37
Note OFF: Time 6120, Note Name: A#4
Note OFF: Time 6120, Note Name: D5
Note ON: Time 6240, Note Name: A#4, Velocity: 40
Note ON: Time 6240, Note Name: G4, Velocity: 34
Note OFF: Time 6420, Note Name: G4
Note OFF: Time 6420, Note Name: A#4
Note ON: Time 6420, Note Name: D4, Velocity: 34
Note ON: Time 6420, Note Name: A4, Velocity: 40
Note OFF: Time 6474, Note Name: A4
Note OFF: Time 6474, Note Name: D4
Note ON: Time 6480, Note Name: A4, Velocity: 50
Note ON: Time 6480, Note Name: F#4, Velocity: 42
Note OFF: Time 6720, Note Name: F#4
Note OFF: Time 6720, Note Name: A4
Note ON: Time 6720, Note Name: A#4, Velocity: 44
Note ON: Time 6720, Note Name: G4, Velocity: 37
Note OFF: Time 6840, Note Name: G4
Note OFF: Time 6840, Note Name: A#4
Note ON: Time 6960, Note Name: G4, Velocity: 42
Note ON: Time 6960, Note Name: D#4, Velocity: 35
Note OFF: Time 7140, Note Name: D#4
Note OFF: Time 7140, Note Name: G4
Note ON: Time 7140, Note Name: A#3, Velocity: 36
Note ON: Time 7140, Note Name: F4, Velocity: 42
Note OFF: Time 7194, Note Name: F4
Note OFF: Time 7194, Note Name: A#3
Note ON: Time 7200, Note Name: F4, Velocity: 54
Note ON: Time 7200, Note Name: D4, Velocity: 45
Note OFF: Time 7440, Note Name: D4
Note OFF: Time 7440, Note Name: F4
Note ON: Time 7440, Note Name: G4, Velocity: 48
Note ON: Time 7440, Note Name: D#4, Velocity: 41
Note OFF: Time 7560, Note Name: D#4
Note OFF: Time 7560, Note Name: G4
Note ON: Time 7680, Note Name: G4, Velocity: 45
Note ON: Time 7680, Note Name: D#4, Velocity: 38
Note OFF: Time 7860, Note Name: D#4
Note OFF: Time 7860, Note Name: G4
Note ON: Time 7860, Note Name: C4, Velocity: 39
Note ON: Time 7860, Note Name: F4, Velocity: 46
Note OFF: Time 7914, Note Name: F4
Note OFF: Time 7914, Note Name: C4
Note ON: Time 7920, Note Name: F4, Velocity: 58
Note ON: Time 7920, Note Name: C4, Velocity: 49
Note OFF: Time 8160, Note Name: C4
Note ON: Time 8160, Note Name: D4, Velocity: 44
Note OFF: Time 8280, Note Name: D4
Note OFF: Time 8280, Note Name: F4
Note ON: Time 8400, Note Name: D5, Velocity: 49
Note OFF: Time 8580, Note Name: D5
Note ON: Time 8580, Note Name: C5, Velocity: 42
Note ON: Time 8580, Note Name: A4, Velocity: 42
Note OFF: Time 8634, Note Name: A4
Note OFF: Time 8634, Note Name: C5
Note ON: Time 8640, Note Name: C5, Velocity: 64
Note ON: Time 8640, Note Name: A4, Velocity: 53
Note OFF: Time 8880, Note Name: A4
Note OFF: Time 8880, Note Name: C5
Note ON: Time 8880, Note Name: A#4, Velocity: 52
Note ON: Time 8880, Note Name: G#4, Velocity: 48
Note OFF: Time 9000, Note Name: G#4
Note OFF: Time 9000, Note Name: A#4
Note ON: Time 9120, Note Name: G4, Velocity: 45
Note ON: Time 9120, Note Name: A#4, Velocity: 53
Note OFF: Time 9300, Note Name: G4
Note ON: Time 9300, Note Name: F#4, Velocity: 46
Note OFF: Time 9354, Note Name: F#4
Note OFF: Time 9360, Note Name: A#4
Note ON: Time 9360, Note Name: A#4, Velocity: 71
Note ON: Time 9360, Note Name: F#4, Velocity: 59
Note OFF: Time 9600, Note Name: F#4
Note OFF: Time 9600, Note Name: A#4
Note ON: Time 9600, Note Name: C5, Velocity: 56
Note ON: Time 9600, Note Name: F4, Velocity: 49
Note OFF: Time 9660, Note Name: F4
Note OFF: Time 9660, Note Name: C5
Note ON: Time 9840, Note Name: C3, Velocity: 58
Note ON: Time 9840, Note Name: C4, Velocity: 62
Note OFF: Time 9900, Note Name: C4
Note OFF: Time 9900, Note Name: C3
Note ON: Time 10080, Note Name: F3, Velocity: 58
Note ON: Time 10080, Note Name: F4, Velocity: 62
Note OFF: Time 10200, Note Name: F4
Note OFF: Time 10200, Note Name: F3
Note ON: Time 10560, Note Name: F4, Velocity: 40
Note ON: Time 10560, Note Name: F3, Velocity: 34
Note OFF: Time 11280, Note Name: F3
Note OFF: Time 11280, Note Name: F4
Note ON: Time 11280, Note Name: F3, Velocity: 40
Note ON: Time 11280, Note Name: F2, Velocity: 34
Note OFF: Time 12000, Note Name: F2
Note OFF: Time 12000, Note Name: F3
Note ON: Time 12000, Note Name: F3, Velocity: 40
Note ON: Time 12000, Note Name: F2, Velocity: 34
Note OFF: Time 12720, Note Name: F2
Note OFF: Time 12720, Note Name: F3
Note ON: Time 12720, Note Name: F2, Velocity: 36
Note ON: Time 12720, Note Name: F1, Velocity: 30
Note OFF: Time 13440, Note Name: F1
Note OFF: Time 13440, Note Name: F2
Note ON: Time 13440, Note Name: F#2, Velocity: 36
Note ON: Time 13440, Note Name: F#1, Velocity: 30
Note OFF: Time 13920, Note Name: F#1
Note OFF: Time 13920, Note Name: F#2
Note ON: Time 13920, Note Name: G1, Velocity: 28
Note ON: Time 13920, Note Name: G2, Velocity: 34
Note OFF: Time 14400, Note Name: G2
Note OFF: Time 14400, Note Name: G1
Note ON: Time 14400, Note Name: A1, Velocity: 28
Note ON: Time 14400, Note Name: A2, Velocity: 34
Note OFF: Time 14640, Note Name: A2
Note OFF: Time 14640, Note Name: A1
Note ON: Time 14640, Note Name: A#1, Velocity: 28
Note ON: Time 14640, Note Name: A#2, Velocity: 33
Note OFF: Time 14880, Note Name: A#2
Note OFF: Time 14880, Note Name: A#1
Note ON: Time 14880, Note Name: B1, Velocity: 28
Note ON: Time 14880, Note Name: B2, Velocity: 33
Note OFF: Time 15120, Note Name: B2
Note OFF: Time 15120, Note Name: B1
Note ON: Time 15120, Note Name: C2, Velocity: 28
Note ON: Time 15120, Note Name: C3, Velocity: 33
Note OFF: Time 15600, Note Name: C3
Note OFF: Time 15600, Note Name: C2
Note ON: Time 15600, Note Name: C2, Velocity: 32
Note OFF: Time 15840, Note Name: C2
Note ON: Time 15840, Note Name: G2, Velocity: 32
Note OFF: Time 16320, Note Name: G2
Note ON: Time 17760, Note Name: G2, Velocity: 32
Note ON: Time 17760, Note Name: G3, Velocity: 27
Note OFF: Time 17940, Note Name: G2
Note ON: Time 17940, Note Name: B2, Velocity: 32
Note OFF: Time 17994, Note Name: B2
Note ON: Time 18000, Note Name: B2, Velocity: 40
Note OFF: Time 18240, Note Name: B2
Note ON: Time 18240, Note Name: G2, Velocity: 35
Note OFF: Time 18360, Note Name: G2
Note OFF: Time 18360, Note Name: G3
Note ON: Time 18480, Note Name: C5, Velocity: 36
Note OFF: Time 18660, Note Name: C5
Note ON: Time 18660, Note Name: D#5, Velocity: 36
Note OFF: Time 18714, Note Name: D#5
Note ON: Time 18720, Note Name: D#5, Velocity: 46
Note OFF: Time 18960, Note Name: D#5
Note ON: Time 18960, Note Name: C5, Velocity: 40
Note OFF: Time 19080, Note Name: C5
Note ON: Time 19200, Note Name: G3, Velocity: 40
Note ON: Time 19200, Note Name: G2, Velocity: 34
Note OFF: Time 19920, Note Name: G2
Note OFF: Time 19920, Note Name: G3
Note ON: Time 19920, Note Name: C3, Velocity: 48
Note ON: Time 19920, Note Name: C2, Velocity: 40
Note OFF: Time 20640, Note Name: C2
Note OFF: Time 20640, Note Name: C3
Note ON: Time 20640, Note Name: F1, Velocity: 57
Note ON: Time 20640, Note Name: F2, Velocity: 71
Note OFF: Time 21120, Note Name: F2
Note OFF: Time 21120, Note Name: F1
Note ON: Time 21120, Note Name: F2, Velocity: 57
Note ON: Time 21120, Note Name: F3, Velocity: 60
Note OFF: Time 21180, Note Name: F3
Note OFF: Time 21180, Note Name: F2
Note ON: Time 21360, Note Name: A#1, Velocity: 63
Note ON: Time 21360, Note Name: A#2, Velocity: 68
Note OFF: Time 21420, Note Name: A#2
Note OFF: Time 21420, Note Name: A#1
Note ON: Time 21600, Note Name: A#1, Velocity: 63
Note ON: Time 21600, Note Name: A#2, Velocity: 68
Note OFF: Time 21720, Note Name: A#2
Note OFF: Time 21720, Note Name: A#1
Note ON: Time 22080, Note Name: F5, Velocity: 40
Note ON: Time 22080, Note Name: F4, Velocity: 34
Note OFF: Time 22800, Note Name: F4
Note OFF: Time 22800, Note Name: F5
Note ON: Time 22800, Note Name: F4, Velocity: 40
Note ON: Time 22800, Note Name: F3, Velocity: 34
Note OFF: Time 23520, Note Name: F3
Note OFF: Time 23520, Note Name: F4
Note ON: Time 23520, Note Name: F4, Velocity: 40
Note ON: Time 23520, Note Name: F3, Velocity: 34
Note OFF: Time 24240, Note Name: F3
Note OFF: Time 24240, Note Name: F4
Note ON: Time 24240, Note Name: F3, Velocity: 36
Note ON: Time 24240, Note Name: F2, Velocity: 30
Note OFF: Time 24960, Note Name: F2
Note OFF: Time 24960, Note Name: F3
Note ON: Time 24960, Note Name: F#3, Velocity: 36
Note ON: Time 24960, Note Name: F#2, Velocity: 30
Note OFF: Time 25440, Note Name: F#2
Note OFF: Time 25440, Note Name: F#3
Note ON: Time 25440, Note Name: F#3, Velocity: 28
Note ON: Time 25440, Note Name: C4, Velocity: 28
Note ON: Time 25440, Note Name: D#4, Velocity: 34
Note OFF: Time 25680, Note Name: D#4
Note OFF: Time 25680, Note Name: C4
Note OFF: Time 25680, Note Name: F#3
Note ON: Time 25680, Note Name: G3, Velocity: 28
Note ON: Time 25680, Note Name: A#3, Velocity: 28
Note ON: Time 25680, Note Name: D4, Velocity: 34
Note OFF: Time 25920, Note Name: D4
Note OFF: Time 25920, Note Name: A#3
Note OFF: Time 25920, Note Name: G3
Note ON: Time 25920, Note Name: A3, Velocity: 28
Note ON: Time 25920, Note Name: C4, Velocity: 34
Note OFF: Time 26160, Note Name: C4
Note OFF: Time 26160, Note Name: A3
Note ON: Time 26160, Note Name: A#2, Velocity: 28
Note ON: Time 26160, Note Name: G3, Velocity: 28
Note ON: Time 26160, Note Name: A#3, Velocity: 33
Note OFF: Time 26400, Note Name: A#3
Note OFF: Time 26400, Note Name: G3
Note OFF: Time 26400, Note Name: A#2
Note ON: Time 26400, Note Name: F3, Velocity: 28
Note ON: Time 26400, Note Name: B2, Velocity: 28
Note ON: Time 26400, Note Name: A3, Velocity: 33
Note OFF: Time 26640, Note Name: B2
Note ON: Time 26640, Note Name: C3, Velocity: 28
Note OFF: Time 26880, Note Name: A3
Note OFF: Time 26880, Note Name: F3
Note ON: Time 26880, Note Name: E3, Velocity: 27
Note ON: Time 26880, Note Name: G3, Velocity: 33
Note OFF: Time 27120, Note Name: G3
Note OFF: Time 27120, Note Name: E3
Note OFF: Time 27120, Note Name: C3
Note ON: Time 27120, Note Name: D#3, Velocity: 27
Note ON: Time 27120, Note Name: G3, Velocity: 33
Note ON: Time 27120, Note Name: C4, Velocity: 32
Note OFF: Time 27360, Note Name: G3
Note OFF: Time 27360, Note Name: D#3
Note ON: Time 27360, Note Name: G3, Velocity: 32
Note OFF: Time 27600, Note Name: C4
Note ON: Time 27600, Note Name: B3, Velocity: 30
Note OFF: Time 27840, Note Name: B3
Note OFF: Time 27840, Note Name: G3
Note ON: Time 29280, Note Name: G3, Velocity: 32
Note ON: Time 29280, Note Name: G4, Velocity: 27
Note OFF: Time 29460, Note Name: G3
Note ON: Time 29460, Note Name: B3, Velocity: 32
Note OFF: Time 29514, Note Name: B3
Note ON: Time 29520, Note Name: B3, Velocity: 40
Note OFF: Time 29760, Note Name: B3
Note ON: Time 29760, Note Name: G3, Velocity: 35
Note OFF: Time 29880, Note Name: G3
Note OFF: Time 29880, Note Name: G4
Note ON: Time 30000, Note Name: C4, Velocity: 36
Note OFF: Time 30180, Note Name: C4
Note ON: Time 30180, Note Name: D#4, Velocity: 36
Note OFF: Time 30234, Note Name: D#4
Note ON: Time 30240, Note Name: D#4, Velocity: 46
Note OFF: Time 30480, Note Name: D#4
Note ON: Time 30480, Note Name: C4, Velocity: 40
Note OFF: Time 30600, Note Name: C4
Note ON: Time 30720, Note Name: G4, Velocity: 40
Note ON: Time 30720, Note Name: G3, Velocity: 34
Note OFF: Time 31440, Note Name: G3
Note OFF: Time 31440, Note Name: G4
Note ON: Time 31440, Note Name: C4, Velocity: 49
Note ON: Time 31440, Note Name: C3, Velocity: 41
Note OFF: Time 32160, Note Name: C3
Note OFF: Time 32160, Note Name: C4
Note ON: Time 32160, Note Name: F2, Velocity: 59
Note ON: Time 32160, Note Name: F3, Velocity: 74
Note OFF: Time 32880, Note Name: F3
Note OFF: Time 32880, Note Name: F2
Note ON: Time 32880, Note Name: A#1, Velocity: 69
Note ON: Time 32880, Note Name: A#2, Velocity: 74
Note OFF: Time 32940, Note Name: A#2
Note OFF: Time 32940, Note Name: A#1
Note ON: Time 33120, Note Name: A#1, Velocity: 69
Note ON: Time 33120, Note Name: A#2, Velocity: 74
Note OFF: Time 33240, Note Name: A#2
Note OFF: Time 33240, Note Name: A#1
Note ON: Time 33600, Note Name: A#1, Velocity: 31
Note ON: Time 33600, Note Name: A#2, Velocity: 37
Note OFF: Time 33720, Note Name: A#2
Note OFF: Time 33720, Note Name: A#1
Note ON: Time 33840, Note Name: A#1, Velocity: 31
Note ON: Time 33840, Note Name: A#2, Velocity: 37
Note OFF: Time 33960, Note Name: A#2
Note OFF: Time 33960, Note Name: A#1
Note ON: Time 34320, Note Name: A#1, Velocity: 37
Note OFF: Time 34400, Note Name: A#1
Note ON: Time 34400, Note Name: F2, Velocity: 30
Note OFF: Time 34480, Note Name: F2
Note ON: Time 34480, Note Name: C#3, Velocity: 30
Note OFF: Time 34560, Note Name: C#3
Note ON: Time 34560, Note Name: A#1, Velocity: 37
Note OFF: Time 34640, Note Name: A#1
Note ON: Time 34640, Note Name: F2, Velocity: 31
Note OFF: Time 34720, Note Name: F2
Note ON: Time 34720, Note Name: C#3, Velocity: 31
Note OFF: Time 34800, Note Name: C#3
Note ON: Time 34800, Note Name: A#1, Velocity: 37
Note OFF: Time 34880, Note Name: A#1
Note ON: Time 34880, Note Name: F2, Velocity: 31
Note OFF: Time 34960, Note Name: F2
Note ON: Time 34960, Note Name: C#3, Velocity: 30
Note OFF: Time 35040, Note Name: C#3
Note ON: Time 35040, Note Name: A#1, Velocity: 37
Note OFF: Time 35120, Note Name: A#1
Note ON: Time 35120, Note Name: F2, Velocity: 31
Note OFF: Time 35200, Note Name: F2
Note ON: Time 35200, Note Name: C#3, Velocity: 31
Note OFF: Time 35280, Note Name: C#3
Note ON: Time 35280, Note Name: A#1, Velocity: 37
Note OFF: Time 35360, Note Name: A#1
Note ON: Time 35360, Note Name: F2, Velocity: 31
Note OFF: Time 35440, Note Name: F2
Note ON: Time 35440, Note Name: C#3, Velocity: 31
Note OFF: Time 35520, Note Name: C#3
Note ON: Time 35520, Note Name: A#1, Velocity: 38
Note OFF: Time 35600, Note Name: A#1
Note ON: Time 35600, Note Name: F2, Velocity: 32
Note OFF: Time 35680, Note Name: F2
Note ON: Time 35680, Note Name: C#3, Velocity: 31
Note OFF: Time 35760, Note Name: C#3
Note ON: Time 35760, Note Name: A#1, Velocity: 39
Note OFF: Time 35840, Note Name: A#1
Note ON: Time 35840, Note Name: F2, Velocity: 33
Note OFF: Time 35920, Note Name: F2
Note ON: Time 35920, Note Name: C#3, Velocity: 34
Note OFF: Time 36000, Note Name: C#3
Note ON: Time 36000, Note Name: A#1, Velocity: 41
Note OFF: Time 36080, Note Name: A#1
Note ON: Time 36080, Note Name: F2, Velocity: 35
Note OFF: Time 36160, Note Name: F2
Note ON: Time 36160, Note Name: C#3, Velocity: 35
Note OFF: Time 36240, Note Name: C#3
Note ON: Time 36240, Note Name: A#1, Velocity: 42
Note OFF: Time 36320, Note Name: A#1
Note ON: Time 36320, Note Name: F2, Velocity: 36
Note OFF: Time 36400, Note Name: F2
Note ON: Time 36400, Note Name: C#3, Velocity: 35
Note OFF: Time 36480, Note Name: C#3
Note ON: Time 36480, Note Name: A#1, Velocity: 44
Note OFF: Time 36560, Note Name: A#1
Note ON: Time 36560, Note Name: F2, Velocity: 37
Note OFF: Time 36640, Note Name: F2
Note ON: Time 36640, Note Name: C#3, Velocity: 38
Note OFF: Time 36720, Note Name: C#3
Note ON: Time 36720, Note Name: A#1, Velocity: 49
Note OFF: Time 36800, Note Name: A#1
Note ON: Time 36800, Note Name: F2, Velocity: 42
Note OFF: Time 36880, Note Name: F2
Note ON: Time 36880, Note Name: C#3, Velocity: 42
Note OFF: Time 36960, Note Name: C#3
Note ON: Time 36960, Note Name: A#1, Velocity: 54
Note OFF: Time 37040, Note Name: A#1
Note ON: Time 37040, Note Name: F2, Velocity: 49
Note OFF: Time 37120, Note Name: F2
Note ON: Time 37120, Note Name: C#3, Velocity: 49
Note OFF: Time 37200, Note Name: C#3
Note ON: Time 37200, Note Name: A#1, Velocity: 61
Note OFF: Time 37280, Note Name: A#1
Note ON: Time 37280, Note Name: F2, Velocity: 56
Note OFF: Time 37360, Note Name: F2
Note ON: Time 37360, Note Name: C#3, Velocity: 58
Note OFF: Time 37440, Note Name: C#3
Note ON: Time 37440, Note Name: A#1, Velocity: 69
Note OFF: Time 37520, Note Name: A#1
Note ON: Time 37520, Note Name: F2, Velocity: 57
Note OFF: Time 37600, Note Name: F2
Note ON: Time 37600, Note Name: C#3, Velocity: 52
Note OFF: Time 37680, Note Name: C#3
Note ON: Time 37680, Note Name: A#1, Velocity: 61
Note OFF: Time 37760, Note Name: A#1
Note ON: Time 37760, Note Name: F2, Velocity: 51
Note OFF: Time 37840, Note Name: F2
Note ON: Time 37840, Note Name: C#3, Velocity: 51
Note OFF: Time 37920, Note Name: C#3
Note ON: Time 37920, Note Name: G#1, Velocity: 60
Note OFF: Time 38000, Note Name: G#1
Note ON: Time 38000, Note Name: F2, Velocity: 50
Note OFF: Time 38080, Note Name: F2
Note ON: Time 38080, Note Name: C#3, Velocity: 46
Note OFF: Time 38160, Note Name: C#3
Note ON: Time 38160, Note Name: G#1, Velocity: 44
Note OFF: Time 38240, Note Name: G#1
Note ON: Time 38240, Note Name: F2, Velocity: 36
Note OFF: Time 38320, Note Name: F2
Note ON: Time 38320, Note Name: C#3, Velocity: 35
Note OFF: Time 38400, Note Name: C#3
Note ON: Time 38400, Note Name: G#1, Velocity: 41
Note OFF: Time 38480, Note Name: G#1
Note ON: Time 38480, Note Name: F2, Velocity: 34
Note OFF: Time 38560, Note Name: F2
Note ON: Time 38560, Note Name: C#3, Velocity: 32
Note OFF: Time 38640, Note Name: C#3
Note ON: Time 38640, Note Name: C#2, Velocity: 39
Note OFF: Time 38720, Note Name: C#2
Note ON: Time 38720, Note Name: F2, Velocity: 32
Note OFF: Time 38800, Note Name: F2
Note ON: Time 38800, Note Name: C#3, Velocity: 31
Note OFF: Time 38880, Note Name: C#3
Note ON: Time 38880, Note Name: C#2, Velocity: 37
Note OFF: Time 38960, Note Name: C#2
Note ON: Time 38960, Note Name: F2, Velocity: 26
Note OFF: Time 39040, Note Name: F2
Note ON: Time 39040, Note Name: C#3, Velocity: 26
Note OFF: Time 39120, Note Name: C#3
Note ON: Time 39120, Note Name: C#2, Velocity: 30
Note OFF: Time 39200, Note Name: C#2
Note ON: Time 39200, Note Name: F2, Velocity: 25
Note OFF: Time 39280, Note Name: F2
Note ON: Time 39280, Note Name: C#3, Velocity: 25
Note OFF: Time 39360, Note Name: C#3
Note ON: Time 39360, Note Name: C#2, Velocity: 40
Note ON: Time 39360, Note Name: C#3, Velocity: 48
Note OFF: Time 39840, Note Name: C#3
Note OFF: Time 39840, Note Name: C#2
Note ON: Time 39840, Note Name: F3, Velocity: 50
Note ON: Time 39840, Note Name: F2, Velocity: 50
Note OFF: Time 40080, Note Name: F2
Note OFF: Time 40080, Note Name: F3
Note ON: Time 40080, Note Name: C#2, Velocity: 44
Note ON: Time 40080, Note Name: C#3, Velocity: 52
Note OFF: Time 40560, Note Name: C#3
Note OFF: Time 40560, Note Name: C#2
Note ON: Time 40560, Note Name: A#1, Velocity: 44
Note ON: Time 40560, Note Name: A#2, Velocity: 52
Note OFF: Time 40800, Note Name: A#2
Note OFF: Time 40800, Note Name: A#1
Note ON: Time 40800, Note Name: F1, Velocity: 40
Note ON: Time 40800, Note Name: F2, Velocity: 49
Note OFF: Time 41040, Note Name: F2
Note OFF: Time 41040, Note Name: F1
Note ON: Time 41040, Note Name: A#1, Velocity: 46
Note ON: Time 41040, Note Name: A#2, Velocity: 53
Note OFF: Time 41520, Note Name: A#2
Note OFF: Time 41520, Note Name: A#1
Note ON: Time 41520, Note Name: C#3, Velocity: 61
Note ON: Time 41520, Note Name: C#2, Velocity: 51
Note OFF: Time 41760, Note Name: C#2
Note OFF: Time 41760, Note Name: C#3
Note ON: Time 41760, Note Name: F2, Velocity: 51
Note ON: Time 41760, Note Name: F3, Velocity: 61
Note OFF: Time 42240, Note Name: F3
Note OFF: Time 42240, Note Name: F2
Note ON: Time 42240, Note Name: C#3, Velocity: 70
Note ON: Time 42240, Note Name: C#2, Velocity: 59
Note OFF: Time 42480, Note Name: C#2
Note OFF: Time 42480, Note Name: C#3
Note ON: Time 42480, Note Name: A#2, Velocity: 79
Note ON: Time 42480, Note Name: A#1, Velocity: 67
Note OFF: Time 42960, Note Name: A#1
Note OFF: Time 42960, Note Name: A#2
Note ON: Time 42960, Note Name: F2, Velocity: 73
Note ON: Time 42960, Note Name: F1, Velocity: 61
Note OFF: Time 43200, Note Name: F1
Note OFF: Time 43200, Note Name: F2
Note ON: Time 43200, Note Name: A#1, Velocity: 64
Note ON: Time 43200, Note Name: A#2, Velocity: 77
Note OFF: Time 43680, Note Name: A#2
Note OFF: Time 43680, Note Name: A#1
Note ON: Time 43680, Note Name: C#3, Velocity: 69
Note ON: Time 43680, Note Name: C#2, Velocity: 58
Note OFF: Time 43920, Note Name: C#2
Note OFF: Time 43920, Note Name: C#3
Note ON: Time 43920, Note Name: F2, Velocity: 54
Note ON: Time 43920, Note Name: F3, Velocity: 64
Note OFF: Time 44400, Note Name: F3
Note OFF: Time 44400, Note Name: F2
Note ON: Time 44400, Note Name: G#3, Velocity: 45
Note ON: Time 44400, Note Name: G#2, Velocity: 37
Note OFF: Time 44640, Note Name: G#2
Note OFF: Time 44640, Note Name: G#3
Note ON: Time 44640, Note Name: C#3, Velocity: 43
Note ON: Time 44640, Note Name: C#2, Velocity: 36
Note OFF: Time 44880, Note Name: C#2
Note OFF: Time 44880, Note Name: C#3
Note ON: Time 45120, Note Name: C#2, Velocity: 37
Note ON: Time 45120, Note Name: C#3, Velocity: 37
Note OFF: Time 45240, Note Name: C#3
Note OFF: Time 45240, Note Name: C#2
Note ON: Time 45360, Note Name: C#2, Velocity: 34
Note ON: Time 45360, Note Name: C#3, Velocity: 34
Note OFF: Time 45480, Note Name: C#3
Note OFF: Time 45480, Note Name: C#2
Note ON: Time 45600, Note Name: C#2, Velocity: 37
Note OFF: Time 45680, Note Name: C#2
Note ON: Time 45680, Note Name: F2, Velocity: 31
Note OFF: Time 45760, Note Name: F2
Note ON: Time 45760, Note Name: C#3, Velocity: 30
Note OFF: Time 45840, Note Name: C#3
Note ON: Time 45840, Note Name: C#2, Velocity: 37
Note OFF: Time 45920, Note Name: C#2
Note ON: Time 45920, Note Name: F2, Velocity: 30
Note OFF: Time 46000, Note Name: F2
Note ON: Time 46000, Note Name: C#3, Velocity: 30
Note OFF: Time 46080, Note Name: C#3
Note ON: Time 46080, Note Name: C#2, Velocity: 37
Note OFF: Time 46160, Note Name: C#2
Note ON: Time 46160, Note Name: F2, Velocity: 31
Note OFF: Time 46240, Note Name: F2
Note ON: Time 46240, Note Name: C#3, Velocity: 31
Note OFF: Time 46320, Note Name: C#3
Note ON: Time 46320, Note Name: C#2, Velocity: 37
Note OFF: Time 46400, Note Name: C#2
Note ON: Time 46400, Note Name: F2, Velocity: 31
Note OFF: Time 46480, Note Name: F2
Note ON: Time 46480, Note Name: C#3, Velocity: 30
Note OFF: Time 46560, Note Name: C#3
Note ON: Time 46560, Note Name: C#2, Velocity: 37
Note OFF: Time 46640, Note Name: C#2
Note ON: Time 46640, Note Name: F2, Velocity: 30
Note OFF: Time 46720, Note Name: F2
Note ON: Time 46720, Note Name: C#3, Velocity: 30
Note OFF: Time 46800, Note Name: C#3
Note ON: Time 46800, Note Name: C#2, Velocity: 37
Note OFF: Time 46880, Note Name: C#2
Note ON: Time 46880, Note Name: F2, Velocity: 31
Note OFF: Time 46960, Note Name: F2
Note ON: Time 46960, Note Name: C#3, Velocity: 31
Note OFF: Time 47040, Note Name: C#3
Note ON: Time 47040, Note Name: C#2, Velocity: 37
Note OFF: Time 47120, Note Name: C#2
Note ON: Time 47120, Note Name: F2, Velocity: 31
Note OFF: Time 47200, Note Name: F2
Note ON: Time 47200, Note Name: C#3, Velocity: 30
Note OFF: Time 47280, Note Name: C#3
Note ON: Time 47280, Note Name: C#2, Velocity: 37
Note OFF: Time 47360, Note Name: C#2
Note ON: Time 47360, Note Name: F2, Velocity: 31
Note OFF: Time 47440, Note Name: F2
Note ON: Time 47440, Note Name: C#3, Velocity: 31
Note OFF: Time 47520, Note Name: C#3
Note ON: Time 47520, Note Name: C#2, Velocity: 37
Note OFF: Time 47600, Note Name: C#2
Note ON: Time 47600, Note Name: F2, Velocity: 31
Note OFF: Time 47680, Note Name: F2
Note ON: Time 47680, Note Name: C#3, Velocity: 31
Note OFF: Time 47760, Note Name: C#3
Note ON: Time 47760, Note Name: C#2, Velocity: 38
Note OFF: Time 47840, Note Name: C#2
Note ON: Time 47840, Note Name: F2, Velocity: 32
Note OFF: Time 47920, Note Name: F2
Note ON: Time 47920, Note Name: C#3, Velocity: 31
Note OFF: Time 48000, Note Name: C#3
Note ON: Time 48000, Note Name: G#1, Velocity: 39
Note OFF: Time 48080, Note Name: G#1
Note ON: Time 48080, Note Name: F2, Velocity: 33
Note OFF: Time 48160, Note Name: F2
Note ON: Time 48160, Note Name: C#3, Velocity: 34
Note OFF: Time 48240, Note Name: C#3
Note ON: Time 48240, Note Name: G#1, Velocity: 41
Note OFF: Time 48320, Note Name: G#1
Note ON: Time 48320, Note Name: F2, Velocity: 35
Note OFF: Time 48400, Note Name: F2
Note ON: Time 48400, Note Name: C#3, Velocity: 35
Note OFF: Time 48480, Note Name: C#3
Note ON: Time 48480, Note Name: G#1, Velocity: 42
Note OFF: Time 48560, Note Name: G#1
Note ON: Time 48560, Note Name: F2, Velocity: 36
Note OFF: Time 48640, Note Name: F2
Note ON: Time 48640, Note Name: C#3, Velocity: 35
Note OFF: Time 48720, Note Name: C#3
Note ON: Time 48720, Note Name: G#1, Velocity: 46
Note OFF: Time 48800, Note Name: G#1
Note ON: Time 48800, Note Name: F2, Velocity: 37
Note OFF: Time 48880, Note Name: F2
Note ON: Time 48880, Note Name: C#3, Velocity: 40
Note OFF: Time 48960, Note Name: C#3
Note ON: Time 48960, Note Name: A#1, Velocity: 51
Note OFF: Time 49040, Note Name: A#1
Note ON: Time 49040, Note Name: F2, Velocity: 43
Note OFF: Time 49120, Note Name: F2
Note ON: Time 49120, Note Name: C#3, Velocity: 43
Note OFF: Time 49200, Note Name: C#3
Note ON: Time 49200, Note Name: A#1, Velocity: 55
Note OFF: Time 49280, Note Name: A#1
Note ON: Time 49280, Note Name: F2, Velocity: 48
Note OFF: Time 49360, Note Name: F2
Note ON: Time 49360, Note Name: C#3, Velocity: 51
Note OFF: Time 49440, Note Name: C#3
Note ON: Time 49440, Note Name: A#1, Velocity: 61
Note OFF: Time 49520, Note Name: A#1
Note ON: Time 49520, Note Name: F2, Velocity: 53
Note OFF: Time 49600, Note Name: F2
Note ON: Time 49600, Note Name: C#3, Velocity: 55
Note OFF: Time 49680, Note Name: C#3
Note ON: Time 49680, Note Name: A#1, Velocity: 66
Note OFF: Time 49760, Note Name: A#1
Note ON: Time 49760, Note Name: F2, Velocity: 57
Note OFF: Time 49840, Note Name: F2
Note ON: Time 49840, Note Name: C#3, Velocity: 52
Note OFF: Time 49920, Note Name: C#3
Note ON: Time 49920, Note Name: A#1, Velocity: 55
Note OFF: Time 50000, Note Name: A#1
Note ON: Time 50000, Note Name: F2, Velocity: 45
Note OFF: Time 50080, Note Name: F2
Note ON: Time 50080, Note Name: C#3, Velocity: 42
Note OFF: Time 50160, Note Name: C#3
Note ON: Time 50160, Note Name: A#1, Velocity: 50
Note OFF: Time 50240, Note Name: A#1
Note ON: Time 50240, Note Name: F2, Velocity: 45
Note OFF: Time 50320, Note Name: F2
Note ON: Time 50320, Note Name: C#3, Velocity: 44
Note OFF: Time 50400, Note Name: C#3
Note ON: Time 50400, Note Name: F1, Velocity: 44
Note OFF: Time 50480, Note Name: F1
Note ON: Time 50480, Note Name: F2, Velocity: 36
Note OFF: Time 50560, Note Name: F2
Note ON: Time 50560, Note Name: C#3, Velocity: 35
Note OFF: Time 50640, Note Name: C#3
Note ON: Time 50640, Note Name: F1, Velocity: 41
Note OFF: Time 50720, Note Name: F1
Note ON: Time 50720, Note Name: F2, Velocity: 27
Note OFF: Time 50800, Note Name: F2
Note ON: Time 50800, Note Name: C#3, Velocity: 27
Note OFF: Time 50880, Note Name: C#3
Note ON: Time 50880, Note Name: F1, Velocity: 33
Note OFF: Time 50960, Note Name: F1
Note ON: Time 50960, Note Name: F2, Velocity: 32
Note OFF: Time 51040, Note Name: F2
Note ON: Time 51040, Note Name: C#3, Velocity: 28
Note OFF: Time 51120, Note Name: C#3
Note ON: Time 51120, Note Name: A#1, Velocity: 37
Note OFF: Time 51200, Note Name: A#1
Note ON: Time 51200, Note Name: F2, Velocity: 26
Note OFF: Time 51280, Note Name: F2
Note ON: Time 51280, Note Name: C#3, Velocity: 26
Note OFF: Time 51360, Note Name: C#3
Note ON: Time 51360, Note Name: A#1, Velocity: 30
Note OFF: Time 51600, Note Name: A#1
Note ON: Time 51600, Note Name: F2, Velocity: 39
Note ON: Time 51600, Note Name: F3, Velocity: 46
Note OFF: Time 52080, Note Name: F3
Note OFF: Time 52080, Note Name: F2
Note ON: Time 52080, Note Name: G#3, Velocity: 48
Note ON: Time 52080, Note Name: G#2, Velocity: 48
Note OFF: Time 52320, Note Name: G#2
Note OFF: Time 52320, Note Name: G#3
Note ON: Time 52320, Note Name: F2, Velocity: 42
Note ON: Time 52320, Note Name: F3, Velocity: 50
Note OFF: Time 52800, Note Name: F3
Note OFF: Time 52800, Note Name: F2
Note ON: Time 52800, Note Name: C#2, Velocity: 42
Note ON: Time 52800, Note Name: C#3, Velocity: 50
Note OFF: Time 53040, Note Name: C#3
Note OFF: Time 53040, Note Name: C#2
Note ON: Time 53040, Note Name: G#1, Velocity: 39
Note ON: Time 53040, Note Name: G#2, Velocity: 47
Note OFF: Time 53280, Note Name: G#2
Note OFF: Time 53280, Note Name: G#1
Note ON: Time 53280, Note Name: C#2, Velocity: 44
Note ON: Time 53280, Note Name: C#3, Velocity: 51
Note OFF: Time 53760, Note Name: C#3
Note OFF: Time 53760, Note Name: C#2
Note ON: Time 53760, Note Name: F3, Velocity: 59
Note ON: Time 53760, Note Name: F2, Velocity: 49
Note OFF: Time 54000, Note Name: F2
Note OFF: Time 54000, Note Name: F3
Note ON: Time 54000, Note Name: G#2, Velocity: 51
Note ON: Time 54000, Note Name: G#3, Velocity: 61
Note OFF: Time 54480, Note Name: G#3
Note OFF: Time 54480, Note Name: G#2
Note ON: Time 54480, Note Name: F3, Velocity: 70
Note ON: Time 54480, Note Name: F2, Velocity: 59
Note OFF: Time 54720, Note Name: F2
Note OFF: Time 54720, Note Name: F3
Note ON: Time 54720, Note Name: C#3, Velocity: 79
Note ON: Time 54720, Note Name: C#2, Velocity: 67
Note OFF: Time 55200, Note Name: C#2
Note OFF: Time 55200, Note Name: C#3
Note ON: Time 55200, Note Name: A#1, Velocity: 61
Note ON: Time 55200, Note Name: A#2, Velocity: 73
Note OFF: Time 55440, Note Name: A#2
Note OFF: Time 55440, Note Name: A#1
Note ON: Time 55440, Note Name: F1, Velocity: 64
Note ON: Time 55440, Note Name: F2, Velocity: 77
Note OFF: Time 55920, Note Name: F2
Note OFF: Time 55920, Note Name: F1
Note ON: Time 55920, Note Name: A#1, Velocity: 58
Note ON: Time 55920, Note Name: A#2, Velocity: 69
Note OFF: Time 56160, Note Name: A#2
Note OFF: Time 56160, Note Name: A#1
Note ON: Time 56160, Note Name: C#2, Velocity: 54
Note ON: Time 56160, Note Name: C#3, Velocity: 64
Note OFF: Time 56640, Note Name: C#3
Note OFF: Time 56640, Note Name: C#2
Note ON: Time 56640, Note Name: F2, Velocity: 37
Note ON: Time 56640, Note Name: F3, Velocity: 45
Note OFF: Time 56880, Note Name: F3
Note OFF: Time 56880, Note Name: F2
Note ON: Time 56880, Note Name: A#1, Velocity: 36
Note ON: Time 56880, Note Name: A#2, Velocity: 43
Note OFF: Time 57120, Note Name: A#2
Note OFF: Time 57120, Note Name: A#1
Note ON: Time 57600, Note Name: C#4, Velocity: 29
Note OFF: Time 57680, Note Name: C#4
Note ON: Time 57680, Note Name: A#3, Velocity: 20
Note OFF: Time 57760, Note Name: A#3
Note ON: Time 57760, Note Name: F3, Velocity: 20
Note OFF: Time 57840, Note Name: F3
Note ON: Time 57840, Note Name: C#4, Velocity: 24
Note OFF: Time 57920, Note Name: C#4
Note ON: Time 57920, Note Name: A#3, Velocity: 20
Note OFF: Time 58000, Note Name: A#3
Note ON: Time 58000, Note Name: F3, Velocity: 20
Note OFF: Time 58080, Note Name: F3
Note ON: Time 58080, Note Name: F4, Velocity: 24
Note OFF: Time 58160, Note Name: F4
Note ON: Time 58160, Note Name: C#4, Velocity: 20
Note OFF: Time 58240, Note Name: C#4
Note ON: Time 58240, Note Name: F3, Velocity: 20
Note OFF: Time 58320, Note Name: F3
Note ON: Time 58320, Note Name: A#3, Velocity: 42
Note OFF: Time 58380, Note Name: A#3
Note ON: Time 58560, Note Name: C#4, Velocity: 37
Note OFF: Time 58620, Note Name: C#4
Note ON: Time 58800, Note Name: C4, Velocity: 42
Note OFF: Time 58860, Note Name: C4
Note ON: Time 59040, Note Name: F3, Velocity: 36
Note OFF: Time 59100, Note Name: F3
Note ON: Time 59280, Note Name: F4, Velocity: 42
Note OFF: Time 59340, Note Name: F4
Note ON: Time 59520, Note Name: D#4, Velocity: 38
Note OFF: Time 59580, Note Name: D#4
Note ON: Time 59760, Note Name: C#4, Velocity: 38
Note OFF: Time 59820, Note Name: C#4
Note ON: Time 60000, Note Name: C4, Velocity: 38
Note OFF: Time 60060, Note Name: C4
Note ON: Time 60240, Note Name: A#3, Velocity: 42
Note OFF: Time 60300, Note Name: A#3
Note ON: Time 60480, Note Name: C#4, Velocity: 36
Note OFF: Time 60540, Note Name: C#4
Note ON: Time 60720, Note Name: C4, Velocity: 42
Note OFF: Time 60780, Note Name: C4
Note ON: Time 60960, Note Name: G#3, Velocity: 35
Note OFF: Time 61020, Note Name: G#3
Note ON: Time 61200, Note Name: C4, Velocity: 42
Note OFF: Time 61260, Note Name: C4
Note ON: Time 61440, Note Name: G3, Velocity: 35
Note OFF: Time 61500, Note Name: G3
Note ON: Time 61680, Note Name: F3, Velocity: 39
Note OFF: Time 62160, Note Name: F3
Note ON: Time 62160, Note Name: F2, Velocity: 46
Note ON: Time 62160, Note Name: F3, Velocity: 55
Note OFF: Time 62340, Note Name: F3
Note OFF: Time 62340, Note Name: F2
Note ON: Time 62400, Note Name: G#2, Velocity: 41
Note ON: Time 62400, Note Name: G#3, Velocity: 49
Note OFF: Time 62580, Note Name: G#3
Note OFF: Time 62580, Note Name: G#2
Note ON: Time 62640, Note Name: G2, Velocity: 48
Note ON: Time 62640, Note Name: G3, Velocity: 57
Note OFF: Time 62820, Note Name: G3
Note OFF: Time 62820, Note Name: G2
Note ON: Time 62880, Note Name: C2, Velocity: 41
Note ON: Time 62880, Note Name: C3, Velocity: 50
Note OFF: Time 63060, Note Name: C3
Note OFF: Time 63060, Note Name: C2
Note ON: Time 63120, Note Name: C3, Velocity: 51
Note ON: Time 63120, Note Name: C4, Velocity: 61
Note OFF: Time 63300, Note Name: C4
Note OFF: Time 63300, Note Name: C3
Note ON: Time 63360, Note Name: A#2, Velocity: 48
Note ON: Time 63360, Note Name: A#3, Velocity: 57
Note OFF: Time 63540, Note Name: A#3
Note OFF: Time 63540, Note Name: A#2
Note ON: Time 63600, Note Name: G#2, Velocity: 49
Note ON: Time 63600, Note Name: G#3, Velocity: 58
Note OFF: Time 63780, Note Name: G#3
Note OFF: Time 63780, Note Name: G#2
Note ON: Time 63840, Note Name: G2, Velocity: 50
Note ON: Time 63840, Note Name: G3, Velocity: 60
Note OFF: Time 64020, Note Name: G3
Note OFF: Time 64020, Note Name: G2
Note ON: Time 64080, Note Name: F2, Velocity: 57
Note ON: Time 64080, Note Name: F3, Velocity: 69
Note OFF: Time 64260, Note Name: F3
Note OFF: Time 64260, Note Name: F2
Note ON: Time 64320, Note Name: G#2, Velocity: 50
Note ON: Time 64320, Note Name: G#3, Velocity: 60
Note OFF: Time 64500, Note Name: G#3
Note OFF: Time 64500, Note Name: G#2
Note ON: Time 64560, Note Name: G2, Velocity: 60
Note ON: Time 64560, Note Name: G3, Velocity: 73
Note OFF: Time 64740, Note Name: G3
Note OFF: Time 64740, Note Name: G2
Note ON: Time 64800, Note Name: C3, Velocity: 50
Note ON: Time 64800, Note Name: C4, Velocity: 61
Note OFF: Time 64980, Note Name: C4
Note OFF: Time 64980, Note Name: C3
Note ON: Time 65040, Note Name: A2, Velocity: 63
Note ON: Time 65040, Note Name: A3, Velocity: 75
Note OFF: Time 65220, Note Name: A3
Note OFF: Time 65220, Note Name: A2
Note ON: Time 65280, Note Name: F2, Velocity: 54
Note ON: Time 65280, Note Name: F3, Velocity: 65
Note OFF: Time 65460, Note Name: F3
Note OFF: Time 65460, Note Name: F2
Note ON: Time 65520, Note Name: A#2, Velocity: 66
Note ON: Time 65520, Note Name: A#3, Velocity: 79
Note OFF: Time 65700, Note Name: A#3
Note OFF: Time 65700, Note Name: A#2
Note ON: Time 65760, Note Name: C3, Velocity: 56
Note ON: Time 65760, Note Name: C4, Velocity: 68
Note OFF: Time 65940, Note Name: C4
Note OFF: Time 65940, Note Name: C3
Note ON: Time 66000, Note Name: C#3, Velocity: 78
Note OFF: Time 66120, Note Name: C#3
Note ON: Time 66120, Note Name: C#4, Velocity: 69
Note OFF: Time 66240, Note Name: C#4
Note ON: Time 66240, Note Name: A#2, Velocity: 78
Note OFF: Time 66360, Note Name: A#2
Note ON: Time 66360, Note Name: A#3, Velocity: 68
Note OFF: Time 66480, Note Name: A#3
Note ON: Time 66480, Note Name: F2, Velocity: 78
Note OFF: Time 66600, Note Name: F2
Note ON: Time 66600, Note Name: F3, Velocity: 67
Note OFF: Time 66720, Note Name: F3
Note ON: Time 66720, Note Name: D#2, Velocity: 78
Note OFF: Time 66840, Note Name: D#2
Note ON: Time 66840, Note Name: D#3, Velocity: 66
Note OFF: Time 66960, Note Name: D#3
Note ON: Time 66960, Note Name: C#2, Velocity: 78
Note OFF: Time 67080, Note Name: C#2
Note ON: Time 67080, Note Name: C#3, Velocity: 67
Note OFF: Time 67200, Note Name: C#3
Note ON: Time 67200, Note Name: C2, Velocity: 78
Note OFF: Time 67320, Note Name: C2
Note ON: Time 67320, Note Name: C3, Velocity: 67
Note OFF: Time 67440, Note Name: C3
Note ON: Time 67440, Note Name: A#1, Velocity: 73
Note OFF: Time 67560, Note Name: A#1
Note ON: Time 67560, Note Name: A#2, Velocity: 62
Note OFF: Time 67680, Note Name: A#2
Note ON: Time 67680, Note Name: A1, Velocity: 73
Note OFF: Time 67800, Note Name: A1
Note ON: Time 67800, Note Name: A2, Velocity: 61
Note OFF: Time 67920, Note Name: A2
Note ON: Time 67920, Note Name: A#1, Velocity: 75
Note OFF: Time 68040, Note Name: A#1
Note ON: Time 68040, Note Name: A#2, Velocity: 63
Note OFF: Time 68160, Note Name: A#2
Note ON: Time 68160, Note Name: A#1, Velocity: 73
Note OFF: Time 68280, Note Name: A#1
Note ON: Time 68280, Note Name: A#2, Velocity: 65
Note OFF: Time 68400, Note Name: A#2
Note ON: Time 68400, Note Name: A1, Velocity: 74
Note OFF: Time 68520, Note Name: A1
Note ON: Time 68520, Note Name: A2, Velocity: 62
Note OFF: Time 68640, Note Name: A2
Note ON: Time 68640, Note Name: D#2, Velocity: 73
Note OFF: Time 68760, Note Name: D#2
Note ON: Time 68760, Note Name: D#3, Velocity: 60
Note OFF: Time 68880, Note Name: D#3
Note ON: Time 68880, Note Name: C#2, Velocity: 71
Note OFF: Time 69000, Note Name: C#2
Note ON: Time 69000, Note Name: C#3, Velocity: 61
Note OFF: Time 69120, Note Name: C#3
Note ON: Time 69120, Note Name: A#1, Velocity: 70
Note OFF: Time 69240, Note Name: A#1
Note ON: Time 69240, Note Name: A#2, Velocity: 63
Note OFF: Time 69360, Note Name: A#2
Note ON: Time 69360, Note Name: F2, Velocity: 75
Note ON: Time 69360, Note Name: F3, Velocity: 75
Note OFF: Time 69840, Note Name: F3
Note OFF: Time 69840, Note Name: F2
Note ON: Time 69840, Note Name: C#4, Velocity: 71
Note OFF: Time 69960, Note Name: C#4
Note ON: Time 69960, Note Name: C#5, Velocity: 61
Note OFF: Time 70080, Note Name: C#5
Note ON: Time 70080, Note Name: A#3, Velocity: 70
Note OFF: Time 70200, Note Name: A#3
Note ON: Time 70200, Note Name: A#4, Velocity: 63
Note OFF: Time 70320, Note Name: A#4
Note ON: Time 70560, Note Name: F5, Velocity: 80
Note OFF: Time 70800, Note Name: F5
Note ON: Time 71040, Note Name: F4, Velocity: 80
Note OFF: Time 71280, Note Name: F4
Note ON: Time 71520, Note Name: F3, Velocity: 80
Note OFF: Time 71760, Note Name: F3
Note ON: Time 72000, Note Name: F2, Velocity: 80
Note OFF: Time 72240, Note Name: F2
Note ON: Time 72480, Note Name: F1, Velocity: 89
Note OFF: Time 73440, Note Name: F1
Note ON: Time 73440, Note Name: F1, Velocity: 65
Note OFF: Time 73520, Note Name: F1
Note ON: Time 73520, Note Name: G1, Velocity: 65
Note OFF: Time 73600, Note Name: G1
Note ON: Time 73600, Note Name: A1, Velocity: 66
Note OFF: Time 73680, Note Name: A1
Note ON: Time 73680, Note Name: A#1, Velocity: 66
Note OFF: Time 73800, Note Name: A#1
Note ON: Time 73800, Note Name: C2, Velocity: 67
Note OFF: Time 73920, Note Name: C2
Note ON: Time 73920, Note Name: D2, Velocity: 68
Note OFF: Time 74040, Note Name: D2
Note ON: Time 74040, Note Name: E2, Velocity: 69
Note OFF: Time 74160, Note Name: E2
Note ON: Time 74160, Note Name: F2, Velocity: 69
Note OFF: Time 74240, Note Name: F2
Note ON: Time 74240, Note Name: G2, Velocity: 70
Note OFF: Time 74320, Note Name: G2
Note ON: Time 74320, Note Name: A2, Velocity: 70
Note OFF: Time 74400, Note Name: A2
Note ON: Time 74400, Note Name: A#2, Velocity: 71
Note OFF: Time 74520, Note Name: A#2
Note ON: Time 74520, Note Name: C3, Velocity: 72
Note OFF: Time 74640, Note Name: C3
Note ON: Time 74640, Note Name: D3, Velocity: 73
Note OFF: Time 74760, Note Name: D3
Note ON: Time 74760, Note Name: E3, Velocity: 73
Note OFF: Time 74880, Note Name: E3
Note ON: Time 74880, Note Name: F3, Velocity: 74
Note OFF: Time 74960, Note Name: F3
Note ON: Time 74960, Note Name: G3, Velocity: 75
Note OFF: Time 75040, Note Name: G3
Note ON: Time 75040, Note Name: A3, Velocity: 75
Note OFF: Time 75120, Note Name: A3
Note ON: Time 75120, Note Name: A#3, Velocity: 76
Note OFF: Time 75240, Note Name: A#3
Note ON: Time 75240, Note Name: C4, Velocity: 77
Note OFF: Time 75360, Note Name: C4
Note ON: Time 75360, Note Name: D4, Velocity: 77
Note OFF: Time 75480, Note Name: D4
Note ON: Time 75480, Note Name: E4, Velocity: 78
Note OFF: Time 75600, Note Name: E4
Note ON: Time 77040, Note Name: F4, Velocity: 60
Note OFF: Time 77120, Note Name: F4
Note ON: Time 77120, Note Name: G4, Velocity: 61
Note OFF: Time 77200, Note Name: G4
Note ON: Time 77200, Note Name: A4, Velocity: 62
Note OFF: Time 77280, Note Name: A4
Note ON: Time 77280, Note Name: A#4, Velocity: 63
Note OFF: Time 77400, Note Name: A#4
Note ON: Time 77400, Note Name: C5, Velocity: 64
Note OFF: Time 77520, Note Name: C5
Note ON: Time 77520, Note Name: D5, Velocity: 65
Note OFF: Time 77640, Note Name: D5
Note ON: Time 77640, Note Name: E5, Velocity: 67
Note OFF: Time 77760, Note Name: E5
Note ON: Time 77760, Note Name: F5, Velocity: 68
Note OFF: Time 77880, Note Name: F5
Note ON: Time 78000, Note Name: F3, Velocity: 66
Note OFF: Time 78060, Note Name: F3
Note ON: Time 78060, Note Name: D#4, Velocity: 58
Note OFF: Time 78120, Note Name: D#4
Note ON: Time 78120, Note Name: F3, Velocity: 66
Note OFF: Time 78180, Note Name: F3
Note ON: Time 78180, Note Name: D#4, Velocity: 58
Note OFF: Time 78240, Note Name: D#4
Note ON: Time 78240, Note Name: F3, Velocity: 66
Note OFF: Time 78300, Note Name: F3
Note ON: Time 78300, Note Name: D#4, Velocity: 58
Note OFF: Time 78360, Note Name: D#4
Note ON: Time 78360, Note Name: F3, Velocity: 66
Note OFF: Time 78420, Note Name: F3
Note ON: Time 78420, Note Name: D#4, Velocity: 58
Note OFF: Time 78480, Note Name: D#4
Note ON: Time 78480, Note Name: F3, Velocity: 66
Note OFF: Time 78540, Note Name: F3
Note ON: Time 78540, Note Name: D#4, Velocity: 57
Note OFF: Time 78600, Note Name: D#4
Note ON: Time 78600, Note Name: F3, Velocity: 65
Note OFF: Time 78660, Note Name: F3
Note ON: Time 78660, Note Name: D#4, Velocity: 58
Note OFF: Time 78720, Note Name: D#4
Note ON: Time 79440, Note Name: D4, Velocity: 40
Note ON: Time 79440, Note Name: A#3, Velocity: 34
Note OFF: Time 79620, Note Name: A#3
Note OFF: Time 79620, Note Name: D4
Note ON: Time 79620, Note Name: F3, Velocity: 34
Note ON: Time 79620, Note Name: C4, Velocity: 40
Note OFF: Time 79674, Note Name: C4
Note OFF: Time 79674, Note Name: F3
Note ON: Time 79680, Note Name: C4, Velocity: 50
Note ON: Time 79680, Note Name: A3, Velocity: 42
Note OFF: Time 79920, Note Name: A3
Note OFF: Time 79920, Note Name: C4
Note ON: Time 79920, Note Name: D4, Velocity: 44
Note ON: Time 79920, Note Name: A#3, Velocity: 37
Note OFF: Time 80040, Note Name: A#3
Note OFF: Time 80040, Note Name: D4
Note ON: Time 80160, Note Name: A#3, Velocity: 40
Note ON: Time 80160, Note Name: G3, Velocity: 34
Note OFF: Time 80340, Note Name: G3
Note OFF: Time 80340, Note Name: A#3
Note ON: Time 80340, Note Name: D3, Velocity: 34
Note ON: Time 80340, Note Name: A3, Velocity: 40
Note OFF: Time 80394, Note Name: A3
Note OFF: Time 80394, Note Name: D3
Note ON: Time 80400, Note Name: A3, Velocity: 50
Note ON: Time 80400, Note Name: F#3, Velocity: 42
Note OFF: Time 80640, Note Name: F#3
Note OFF: Time 80640, Note Name: A3
Note ON: Time 80640, Note Name: A#3, Velocity: 44
Note ON: Time 80640, Note Name: G3, Velocity: 37
Note OFF: Time 80760, Note Name: G3
Note OFF: Time 80760, Note Name: A#3
Note ON: Time 80880, Note Name: G3, Velocity: 42
Note ON: Time 80880, Note Name: D#3, Velocity: 35
Note OFF: Time 81060, Note Name: D#3
Note OFF: Time 81060, Note Name: G3
Note ON: Time 81060, Note Name: A#2, Velocity: 36
Note ON: Time 81060, Note Name: F3, Velocity: 42
Note OFF: Time 81114, Note Name: F3
Note OFF: Time 81114, Note Name: A#2
Note ON: Time 81120, Note Name: F3, Velocity: 54
Note ON: Time 81120, Note Name: D3, Velocity: 45
Note OFF: Time 81360, Note Name: D3
Note OFF: Time 81360, Note Name: F3
Note ON: Time 81360, Note Name: G3, Velocity: 48
Note ON: Time 81360, Note Name: D#3, Velocity: 41
Note OFF: Time 81480, Note Name: D#3
Note OFF: Time 81480, Note Name: G3
Note ON: Time 81600, Note Name: G3, Velocity: 45
Note ON: Time 81600, Note Name: D#3, Velocity: 38
Note OFF: Time 81780, Note Name: D#3
Note OFF: Time 81780, Note Name: G3
Note ON: Time 81780, Note Name: C3, Velocity: 39
Note ON: Time 81780, Note Name: F3, Velocity: 46
Note OFF: Time 81834, Note Name: F3
Note OFF: Time 81834, Note Name: C3
Note ON: Time 81840, Note Name: F3, Velocity: 58
Note ON: Time 81840, Note Name: C3, Velocity: 49
Note OFF: Time 82080, Note Name: C3
Note ON: Time 82080, Note Name: D3, Velocity: 44
Note OFF: Time 82200, Note Name: D3
Note OFF: Time 82200, Note Name: F3
Note ON: Time 82320, Note Name: F3, Velocity: 41
Note ON: Time 82320, Note Name: D3, Velocity: 49
Note OFF: Time 82500, Note Name: D3
Note ON: Time 82500, Note Name: A2, Velocity: 42
Note OFF: Time 82554, Note Name: A2
Note OFF: Time 82560, Note Name: F3
Note ON: Time 82560, Note Name: F3, Velocity: 64
Note ON: Time 82560, Note Name: A2, Velocity: 53
Note OFF: Time 82800, Note Name: A2
Note ON: Time 82800, Note Name: G#2, Velocity: 48
Note OFF: Time 82920, Note Name: G#2
Note OFF: Time 82920, Note Name: F3
Note ON: Time 83040, Note Name: G#2, Velocity: 45
Note ON: Time 83040, Note Name: F3, Velocity: 53
Note OFF: Time 83220, Note Name: F3
Note OFF: Time 83220, Note Name: G#2
Note ON: Time 83220, Note Name: G2, Velocity: 46
Note ON: Time 83220, Note Name: D#3, Velocity: 46
Note OFF: Time 83274, Note Name: D#3
Note OFF: Time 83274, Note Name: G2
Note ON: Time 83280, Note Name: D#3, Velocity: 71
Note ON: Time 83280, Note Name: G2, Velocity: 59
Note OFF: Time 83520, Note Name: G2
Note OFF: Time 83520, Note Name: D#3
Note ON: Time 83520, Note Name: C#3, Velocity: 56
Note ON: Time 83520, Note Name: F2, Velocity: 49
Note OFF: Time 83580, Note Name: F2
Note OFF: Time 83580, Note Name: C#3
Note ON: Time 83760, Note Name: E2, Velocity: 58
Note ON: Time 83760, Note Name: C3, Velocity: 62
Note OFF: Time 83820, Note Name: C3
Note OFF: Time 83820, Note Name: E2
Note ON: Time 84000, Note Name: F2, Velocity: 58
Note ON: Time 84000, Note Name: F3, Velocity: 62
Note OFF: Time 84120, Note Name: F3
Note OFF: Time 84120, Note Name: F2
Note ON: Time 84480, Note Name: D5, Velocity: 40
Note ON: Time 84480, Note Name: A#4, Velocity: 34
Note OFF: Time 84660, Note Name: A#4
Note OFF: Time 84660, Note Name: D5
Note ON: Time 84660, Note Name: F4, Velocity: 34
Note ON: Time 84660, Note Name: C5, Velocity: 40
Note OFF: Time 84714, Note Name: C5
Note OFF: Time 84714, Note Name: F4
Note ON: Time 84720, Note Name: C5, Velocity: 50
Note ON: Time 84720, Note Name: A4, Velocity: 42
Note OFF: Time 84960, Note Name: A4
Note OFF: Time 84960, Note Name: C5
Note ON: Time 84960, Note Name: D5, Velocity: 44
Note ON: Time 84960, Note Name: A#4, Velocity: 37
Note OFF: Time 85080, Note Name: A#4
Note OFF: Time 85080, Note Name: D5
Note ON: Time 85200, Note Name: A#4, Velocity: 40
Note ON: Time 85200, Note Name: G4, Velocity: 34
Note OFF: Time 85380, Note Name: G4
Note OFF: Time 85380, Note Name: A#4
Note ON: Time 85380, Note Name: D4, Velocity: 34
Note ON: Time 85380, Note Name: A4, Velocity: 40
Note OFF: Time 85434, Note Name: A4
Note OFF: Time 85434, Note Name: D4
Note ON: Time 85440, Note Name: A4, Velocity: 50
Note ON: Time 85440, Note Name: F#4, Velocity: 42
Note OFF: Time 85680, Note Name: F#4
Note OFF: Time 85680, Note Name: A4
Note ON: Time 85680, Note Name: A#4, Velocity: 44
Note ON: Time 85680, Note Name: G4, Velocity: 37
Note OFF: Time 85800, Note Name: G4
Note OFF: Time 85800, Note Name: A#4
Note ON: Time 85920, Note Name: G4, Velocity: 42
Note ON: Time 85920, Note Name: D#4, Velocity: 35
Note OFF: Time 86100, Note Name: D#4
Note OFF: Time 86100, Note Name: G4
Note ON: Time 86100, Note Name: A#3, Velocity: 36
Note ON: Time 86100, Note Name: F4, Velocity: 42
Note OFF: Time 86154, Note Name: F4
Note OFF: Time 86154, Note Name: A#3
Note ON: Time 86160, Note Name: F4, Velocity: 54
Note ON: Time 86160, Note Name: D4, Velocity: 45
Note OFF: Time 86400, Note Name: D4
Note OFF: Time 86400, Note Name: F4
Note ON: Time 86400, Note Name: G4, Velocity: 48
Note ON: Time 86400, Note Name: D#4, Velocity: 41
Note OFF: Time 86520, Note Name: D#4
Note OFF: Time 86520, Note Name: G4
Note ON: Time 86640, Note Name: G4, Velocity: 45
Note ON: Time 86640, Note Name: D#4, Velocity: 38
Note OFF: Time 86820, Note Name: D#4
Note OFF: Time 86820, Note Name: G4
Note ON: Time 86820, Note Name: C4, Velocity: 39
Note ON: Time 86820, Note Name: F4, Velocity: 46
Note OFF: Time 86874, Note Name: F4
Note OFF: Time 86874, Note Name: C4
Note ON: Time 86880, Note Name: F4, Velocity: 58
Note ON: Time 86880, Note Name: C4, Velocity: 49
Note OFF: Time 87120, Note Name: C4
Note ON: Time 87120, Note Name: D4, Velocity: 44
Note OFF: Time 87240, Note Name: D4
Note OFF: Time 87240, Note Name: F4
Note ON: Time 87360, Note Name: D5, Velocity: 49
Note OFF: Time 87540, Note Name: D5
Note ON: Time 87540, Note Name: C5, Velocity: 42
Note ON: Time 87540, Note Name: A4, Velocity: 42
Note OFF: Time 87594, Note Name: A4
Note OFF: Time 87594, Note Name: C5
Note ON: Time 87600, Note Name: C5, Velocity: 64
Note ON: Time 87600, Note Name: A4, Velocity: 53
Note OFF: Time 87840, Note Name: A4
Note OFF: Time 87840, Note Name: C5
Note ON: Time 87840, Note Name: A#4, Velocity: 52
Note ON: Time 87840, Note Name: G#4, Velocity: 48
Note OFF: Time 87960, Note Name: G#4
Note OFF: Time 87960, Note Name: A#4
Note ON: Time 88080, Note Name: G4, Velocity: 45
Note ON: Time 88080, Note Name: A#4, Velocity: 53
Note OFF: Time 88260, Note Name: G4
Note ON: Time 88260, Note Name: F#4, Velocity: 46
Note OFF: Time 88314, Note Name: F#4
Note OFF: Time 88320, Note Name: A#4
Note ON: Time 88320, Note Name: A#4, Velocity: 71
Note ON: Time 88320, Note Name: F#4, Velocity: 59
Note OFF: Time 88560, Note Name: F#4
Note OFF: Time 88560, Note Name: A#4
Note ON: Time 88560, Note Name: C5, Velocity: 56
Note ON: Time 88560, Note Name: F4, Velocity: 49
Note OFF: Time 88620, Note Name: F4
Note OFF: Time 88620, Note Name: C5
Note ON: Time 88800, Note Name: C3, Velocity: 58
Note ON: Time 88800, Note Name: C4, Velocity: 62
Note OFF: Time 88860, Note Name: C4
Note OFF: Time 88860, Note Name: C3
Note ON: Time 89040, Note Name: F3, Velocity: 58
Note ON: Time 89040, Note Name: F4, Velocity: 62
Note OFF: Time 89160, Note Name: F4
Note OFF: Time 89160, Note Name: F3
Note ON: Time 89520, Note Name: F4, Velocity: 40
Note ON: Time 89520, Note Name: F3, Velocity: 34
Note OFF: Time 89880, Note Name: F3
Note OFF: Time 89880, Note Name: F4
Note ON: Time 89880, Note Name: F3, Velocity: 34
Note OFF: Time 90000, Note Name: F3
Note ON: Time 90000, Note Name: F4, Velocity: 39
Note OFF: Time 90120, Note Name: F4
Note ON: Time 90240, Note Name: F3, Velocity: 40
Note ON: Time 90240, Note Name: F2, Velocity: 34
Note OFF: Time 90600, Note Name: F2
Note OFF: Time 90600, Note Name: F3
Note ON: Time 90600, Note Name: F2, Velocity: 34
Note OFF: Time 90720, Note Name: F2
Note ON: Time 90720, Note Name: F3, Velocity: 39
Note OFF: Time 90840, Note Name: F3
Note ON: Time 90960, Note Name: F3, Velocity: 40
Note ON: Time 90960, Note Name: F2, Velocity: 34
Note OFF: Time 91320, Note Name: F2
Note OFF: Time 91320, Note Name: F3
Note ON: Time 91320, Note Name: F2, Velocity: 34
Note OFF: Time 91440, Note Name: F2
Note ON: Time 91440, Note Name: F3, Velocity: 39
Note OFF: Time 91560, Note Name: F3
Note ON: Time 91680, Note Name: F2, Velocity: 36
Note ON: Time 91680, Note Name: F1, Velocity: 30
Note OFF: Time 92040, Note Name: F1
Note OFF: Time 92040, Note Name: F2
Note ON: Time 92040, Note Name: F1, Velocity: 34
Note OFF: Time 92160, Note Name: F1
Note ON: Time 92160, Note Name: F2, Velocity: 39
Note OFF: Time 92280, Note Name: F2
Note ON: Time 92400, Note Name: F#2, Velocity: 36
Note ON: Time 92400, Note Name: F#1, Velocity: 30
Note OFF: Time 92880, Note Name: F#1
Note OFF: Time 92880, Note Name: F#2
Note ON: Time 92880, Note Name: G1, Velocity: 28
Note ON: Time 92880, Note Name: G2, Velocity: 34
Note OFF: Time 93600, Note Name: G2
Note OFF: Time 93600, Note Name: G1
Note ON: Time 93600, Note Name: A1, Velocity: 28
Note ON: Time 93600, Note Name: A2, Velocity: 33
Note OFF: Time 93840, Note Name: A2
Note OFF: Time 93840, Note Name: A1
Note ON: Time 93840, Note Name: A#1, Velocity: 28
Note ON: Time 93840, Note Name: A#2, Velocity: 33
Note OFF: Time 94080, Note Name: A#2
Note OFF: Time 94080, Note Name: A#1
Note ON: Time 94080, Note Name: B1, Velocity: 28
Note ON: Time 94080, Note Name: B2, Velocity: 33
Note OFF: Time 94320, Note Name: B2
Note OFF: Time 94320, Note Name: B1
Note ON: Time 94320, Note Name: C2, Velocity: 28
Note ON: Time 94320, Note Name: C3, Velocity: 33
Note OFF: Time 94560, Note Name: C3
Note OFF: Time 94560, Note Name: C2
Note ON: Time 94560, Note Name: C2, Velocity: 32
Note OFF: Time 94800, Note Name: C2
Note ON: Time 94800, Note Name: G2, Velocity: 32
Note OFF: Time 95280, Note Name: G2
Note ON: Time 96720, Note Name: G2, Velocity: 32
Note ON: Time 96720, Note Name: G3, Velocity: 27
Note OFF: Time 96900, Note Name: G2
Note ON: Time 96900, Note Name: B2, Velocity: 32
Note OFF: Time 96954, Note Name: B2
Note ON: Time 96960, Note Name: B2, Velocity: 40
Note OFF: Time 97200, Note Name: B2
Note ON: Time 97200, Note Name: G2, Velocity: 35
Note OFF: Time 97320, Note Name: G2
Note OFF: Time 97440, Note Name: G3
Note ON: Time 97440, Note Name: C5, Velocity: 36
Note OFF: Time 97620, Note Name: C5
Note ON: Time 97620, Note Name: D#5, Velocity: 36
Note OFF: Time 97674, Note Name: D#5
Note ON: Time 97680, Note Name: D#5, Velocity: 46
Note OFF: Time 97920, Note Name: D#5
Note ON: Time 97920, Note Name: C5, Velocity: 40
Note OFF: Time 98040, Note Name: C5
Note ON: Time 98160, Note Name: G3, Velocity: 40
Note ON: Time 98160, Note Name: G2, Velocity: 34
Note OFF: Time 98518, Note Name: G2
Note OFF: Time 98518, Note Name: G3
Note ON: Time 98520, Note Name: G2, Velocity: 34
Note OFF: Time 98640, Note Name: G2
Note ON: Time 98640, Note Name: G3, Velocity: 39
Note OFF: Time 98760, Note Name: G3
Note ON: Time 98880, Note Name: C3, Velocity: 46
Note ON: Time 98880, Note Name: C2, Velocity: 39
Note OFF: Time 99240, Note Name: C2
Note OFF: Time 99240, Note Name: C3
Note ON: Time 99240, Note Name: C2, Velocity: 54
Note OFF: Time 99360, Note Name: C2
Note ON: Time 99360, Note Name: C3, Velocity: 64
Note OFF: Time 99480, Note Name: C3
Note ON: Time 99600, Note Name: F1, Velocity: 55
Note ON: Time 99600, Note Name: F2, Velocity: 69
Note OFF: Time 99958, Note Name: F2
Note OFF: Time 99958, Note Name: F1
Note ON: Time 99960, Note Name: F2, Velocity: 75
Note OFF: Time 100080, Note Name: F2
Note ON: Time 100080, Note Name: F3, Velocity: 86
Note OFF: Time 100140, Note Name: F3
Note ON: Time 100320, Note Name: A#1, Velocity: 66
Note ON: Time 100320, Note Name: A#2, Velocity: 71
Note OFF: Time 100380, Note Name: A#2
Note OFF: Time 100380, Note Name: A#1
Note ON: Time 100560, Note Name: A#1, Velocity: 66
Note ON: Time 100560, Note Name: A#2, Velocity: 71
Note OFF: Time 100680, Note Name: A#2
Note OFF: Time 100680, Note Name: A#1
Note ON: Time 101040, Note Name: F5, Velocity: 40
Note ON: Time 101040, Note Name: F4, Velocity: 34
Note OFF: Time 101398, Note Name: F4
Note OFF: Time 101398, Note Name: F5
Note ON: Time 101400, Note Name: F4, Velocity: 34
Note OFF: Time 101520, Note Name: F4
Note ON: Time 101520, Note Name: F5, Velocity: 39
Note OFF: Time 101640, Note Name: F5
Note ON: Time 101760, Note Name: F3, Velocity: 34
Note ON: Time 101760, Note Name: F4, Velocity: 40
Note OFF: Time 102118, Note Name: F4
Note OFF: Time 102118, Note Name: F3
Note ON: Time 102120, Note Name: F3, Velocity: 34
Note OFF: Time 102240, Note Name: F3
Note ON: Time 102240, Note Name: F4, Velocity: 39
Note OFF: Time 102360, Note Name: F4
Note ON: Time 102480, Note Name: F4, Velocity: 40
Note ON: Time 102480, Note Name: F3, Velocity: 34
Note OFF: Time 102838, Note Name: F3
Note OFF: Time 102838, Note Name: F4
Note ON: Time 102840, Note Name: F3, Velocity: 34
Note OFF: Time 102960, Note Name: F3
Note ON: Time 102960, Note Name: F4, Velocity: 39
Note OFF: Time 103080, Note Name: F4
Note ON: Time 103200, Note Name: F2, Velocity: 30
Note ON: Time 103200, Note Name: F3, Velocity: 36
Note OFF: Time 103558, Note Name: F3
Note OFF: Time 103558, Note Name: F2
Note ON: Time 103560, Note Name: F2, Velocity: 34
Note OFF: Time 103680, Note Name: F2
Note ON: Time 103680, Note Name: F3, Velocity: 39
Note OFF: Time 103800, Note Name: F3
Note ON: Time 103920, Note Name: C4, Velocity: 30
Note ON: Time 103920, Note Name: D#4, Velocity: 36
Note ON: Time 103920, Note Name: F#3, Velocity: 30
Note OFF: Time 104395, Note Name: F#3
Note OFF: Time 104395, Note Name: D#4
Note OFF: Time 104395, Note Name: C4
Note ON: Time 104400, Note Name: F#3, Velocity: 28
Note ON: Time 104400, Note Name: C4, Velocity: 28
Note ON: Time 104400, Note Name: D#4, Velocity: 34
Note OFF: Time 104640, Note Name: D#4
Note OFF: Time 104640, Note Name: C4
Note OFF: Time 104640, Note Name: F#3
Note ON: Time 104640, Note Name: D4, Velocity: 34
Note ON: Time 104640, Note Name: G3, Velocity: 28
Note ON: Time 104640, Note Name: A#3, Velocity: 28
Note OFF: Time 104880, Note Name: A#3
Note OFF: Time 104880, Note Name: G3
Note OFF: Time 104880, Note Name: D4
Note ON: Time 104880, Note Name: A3, Velocity: 28
Note ON: Time 104880, Note Name: C4, Velocity: 34
Note OFF: Time 105000, Note Name: C4
Note OFF: Time 105000, Note Name: A3
Note ON: Time 105000, Note Name: A2, Velocity: 28
Note OFF: Time 105120, Note Name: A2
Note ON: Time 105120, Note Name: A#3, Velocity: 33
Note ON: Time 105120, Note Name: G3, Velocity: 28
Note ON: Time 105120, Note Name: A#2, Velocity: 28
Note OFF: Time 105360, Note Name: A#2
Note OFF: Time 105360, Note Name: G3
Note OFF: Time 105360, Note Name: A#3
Note ON: Time 105360, Note Name: F3, Velocity: 28
Note ON: Time 105360, Note Name: B2, Velocity: 28
Note ON: Time 105360, Note Name: A3, Velocity: 33
Note OFF: Time 105600, Note Name: B2
Note ON: Time 105600, Note Name: C3, Velocity: 28
Note OFF: Time 105840, Note Name: A3
Note OFF: Time 105840, Note Name: F3
Note ON: Time 105840, Note Name: G3, Velocity: 33
Note ON: Time 105840, Note Name: E3, Velocity: 27
Note OFF: Time 106080, Note Name: E3
Note OFF: Time 106080, Note Name: G3
Note OFF: Time 106080, Note Name: C3
Note ON: Time 106080, Note Name: D#3, Velocity: 27
Note ON: Time 106080, Note Name: G3, Velocity: 33
Note ON: Time 106080, Note Name: C4, Velocity: 32
Note OFF: Time 106320, Note Name: G3
Note OFF: Time 106320, Note Name: D#3
Note ON: Time 106320, Note Name: G3, Velocity: 32
Note OFF: Time 106560, Note Name: C4
Note ON: Time 106560, Note Name: B3, Velocity: 30
Note OFF: Time 106800, Note Name: B3
Note OFF: Time 106800, Note Name: G3
Note ON: Time 108240, Note Name: G1, Velocity: 32
Note ON: Time 108240, Note Name: G2, Velocity: 27
Note OFF: Time 108420, Note Name: G1
Note ON: Time 108420, Note Name: B1, Velocity: 32
Note OFF: Time 108474, Note Name: B1
Note ON: Time 108480, Note Name: B1, Velocity: 40
Note OFF: Time 108720, Note Name: B1
Note ON: Time 108720, Note Name: G1, Velocity: 35
Note OFF: Time 108840, Note Name: G1
Note OFF: Time 108960, Note Name: G2
Note ON: Time 108960, Note Name: C5, Velocity: 36
Note OFF: Time 109140, Note Name: C5
Note ON: Time 109140, Note Name: D#5, Velocity: 36
Note OFF: Time 109194, Note Name: D#5
Note ON: Time 109200, Note Name: D#5, Velocity: 46
Note OFF: Time 109440, Note Name: D#5
Note ON: Time 109440, Note Name: C5, Velocity: 40
Note OFF: Time 109560, Note Name: C5
Note ON: Time 109680, Note Name: G4, Velocity: 40
Note ON: Time 109680, Note Name: G3, Velocity: 34
Note OFF: Time 110040, Note Name: G3
Note OFF: Time 110040, Note Name: G4
Note ON: Time 110040, Note Name: G3, Velocity: 34
Note OFF: Time 110160, Note Name: G3
Note ON: Time 110160, Note Name: G4, Velocity: 40
Note OFF: Time 110280, Note Name: G4
Note ON: Time 110400, Note Name: C4, Velocity: 48
Note ON: Time 110400, Note Name: C3, Velocity: 40
Note OFF: Time 110760, Note Name: C3
Note OFF: Time 110760, Note Name: C4
Note ON: Time 110760, Note Name: C3, Velocity: 55
Note OFF: Time 110880, Note Name: C3
Note ON: Time 110880, Note Name: C4, Velocity: 64
Note OFF: Time 111000, Note Name: C4
Note ON: Time 111120, Note Name: F2, Velocity: 59
Note ON: Time 111120, Note Name: F3, Velocity: 74
Note OFF: Time 111480, Note Name: F3
Note OFF: Time 111480, Note Name: F2
Note ON: Time 111480, Note Name: F2, Velocity: 70
Note OFF: Time 111600, Note Name: F2
Note ON: Time 111600, Note Name: F3, Velocity: 78
Note OFF: Time 111660, Note Name: F3
Note ON: Time 111840, Note Name: A#1, Velocity: 72
Note ON: Time 111840, Note Name: A#2, Velocity: 78
Note OFF: Time 111900, Note Name: A#2
Note OFF: Time 111900, Note Name: A#1
Note ON: Time 112080, Note Name: A#1, Velocity: 72
Note ON: Time 112080, Note Name: A#2, Velocity: 78
Note OFF: Time 112200, Note Name: A#2
Note OFF: Time 112200, Note Name: A#1
Note ON: Time 112560, Note Name: B1, Velocity: 21
Note ON: Time 112560, Note Name: B2, Velocity: 23
Note OFF: Time 112620, Note Name: B2
Note OFF: Time 112620, Note Name: B1
Note ON: Time 112800, Note Name: B1, Velocity: 21
Note ON: Time 112800, Note Name: B2, Velocity: 23
Note OFF: Time 112920, Note Name: B2
Note OFF: Time 112920, Note Name: B1
Note ON: Time 113280, Note Name: A#1, Velocity: 72
Note ON: Time 113280, Note Name: A#2, Velocity: 78
Note OFF: Time 113340, Note Name: A#2
Note OFF: Time 113340, Note Name: A#1
Note ON: Time 113520, Note Name: A#1, Velocity: 72
Note ON: Time 113520, Note Name: A#2, Velocity: 78
Note OFF: Time 113640, Note Name: A#2
Note OFF: Time 113640, Note Name: A#1
Note ON: Time 114000, Note Name: B1, Velocity: 18
Note ON: Time 114000, Note Name: B2, Velocity: 20
Note OFF: Time 114060, Note Name: B2
Note OFF: Time 114060, Note Name: B1
Note ON: Time 114240, Note Name: B1, Velocity: 18
Note ON: Time 114240, Note Name: B2, Velocity: 19
Note OFF: Time 114360, Note Name: B2
Note OFF: Time 114360, Note Name: B1
Note ON: Time 114720, Note Name: A#1, Velocity: 17
Note ON: Time 114720, Note Name: A#2, Velocity: 18
Note OFF: Time 114780, Note Name: A#2
Note OFF: Time 114780, Note Name: A#1
Note ON: Time 114960, Note Name: A#1, Velocity: 17
Note ON: Time 114960, Note Name: A#2, Velocity: 18
Note OFF: Time 115080, Note Name: A#2
Note OFF: Time 115080, Note Name: A#1
Note ON: Time 116160, Note Name: B1, Velocity: 16
Note ON: Time 116160, Note Name: B2, Velocity: 18
Note OFF: Time 116220, Note Name: B2
Note OFF: Time 116220, Note Name: B1
Note ON: Time 116400, Note Name: B1, Velocity: 16
Note ON: Time 116400, Note Name: B2, Velocity: 17
Note OFF: Time 116520, Note Name: B2
Note OFF: Time 116520, Note Name: B1
Note ON: Time 116880, Note Name: B1, Velocity: 16
Note ON: Time 116880, Note Name: B2, Velocity: 18
Note OFF: Time 116940, Note Name: B2
Note OFF: Time 116940, Note Name: B1
Note ON: Time 117120, Note Name: B1, Velocity: 16
Note ON: Time 117120, Note Name: B2, Velocity: 17
Note OFF: Time 117240, Note Name: B2
Note OFF: Time 117240, Note Name: B1
Note ON: Time 117600, Note Name: B1, Velocity: 25
Note ON: Time 117600, Note Name: B2, Velocity: 30
Note OFF: Time 117719, Note Name: B2
Note OFF: Time 117719, Note Name: B1
Note ON: Time 117840, Note Name: B1, Velocity: 34
Note ON: Time 117840, Note Name: B2, Velocity: 41
Note OFF: Time 118078, Note Name: B2
Note OFF: Time 118078, Note Name: B1
Note ON: Time 118080, Note Name: B1, Velocity: 38
Note ON: Time 118080, Note Name: B2, Velocity: 45
Note OFF: Time 118318, Note Name: B2
Note OFF: Time 118318, Note Name: B1
Note ON: Time 118320, Note Name: B1, Velocity: 42
Note ON: Time 118320, Note Name: B2, Velocity: 51
Note OFF: Time 118558, Note Name: B2
Note OFF: Time 118558, Note Name: B1
Note ON: Time 118560, Note Name: B1, Velocity: 46
Note ON: Time 118560, Note Name: B2, Velocity: 55
Note OFF: Time 118798, Note Name: B2
Note OFF: Time 118798, Note Name: B1
Note ON: Time 118800, Note Name: B1, Velocity: 52
Note ON: Time 118800, Note Name: B2, Velocity: 61
Note OFF: Time 119038, Note Name: B2
Note OFF: Time 119038, Note Name: B1
Note ON: Time 119040, Note Name: B1, Velocity: 55
Note ON: Time 119040, Note Name: B2, Velocity: 66
Note OFF: Time 119278, Note Name: B2
Note OFF: Time 119278, Note Name: B1
Note ON: Time 119280, Note Name: B1, Velocity: 60
Note ON: Time 119280, Note Name: B2, Velocity: 72
Note OFF: Time 119518, Note Name: B2
Note OFF: Time 119518, Note Name: B1
Note ON: Time 119520, Note Name: B1, Velocity: 65
Note ON: Time 119520, Note Name: B2, Velocity: 77
Note OFF: Time 119758, Note Name: B2
Note OFF: Time 119758, Note Name: B1
Note ON: Time 119760, Note Name: B1, Velocity: 70
Note ON: Time 119760, Note Name: B2, Velocity: 83
Note OFF: Time 119998, Note Name: B2
Note OFF: Time 119998, Note Name: B1
Note ON: Time 120000, Note Name: B1, Velocity: 67
Note ON: Time 120000, Note Name: B2, Velocity: 80
Note OFF: Time 120238, Note Name: B2
Note OFF: Time 120238, Note Name: B1
Note ON: Time 120240, Note Name: B1, Velocity: 70
Note ON: Time 120240, Note Name: B2, Velocity: 83
Note OFF: Time 120478, Note Name: B2
Note OFF: Time 120478, Note Name: B1
Note ON: Time 120480, Note Name: B1, Velocity: 71
Note ON: Time 120480, Note Name: B2, Velocity: 84
Note OFF: Time 120718, Note Name: B2
Note OFF: Time 120718, Note Name: B1
Note ON: Time 120720, Note Name: B1, Velocity: 72
Note ON: Time 120720, Note Name: B2, Velocity: 86
Note OFF: Time 120958, Note Name: B2
Note OFF: Time 120958, Note Name: B1
Note ON: Time 120960, Note Name: B1, Velocity: 70
Note ON: Time 120960, Note Name: B2, Velocity: 82
Note OFF: Time 121198, Note Name: B2
Note OFF: Time 121198, Note Name: B1
Note ON: Time 121200, Note Name: B1, Velocity: 70
Note ON: Time 121200, Note Name: B2, Velocity: 83
Note OFF: Time 121440, Note Name: B2
Note OFF: Time 121440, Note Name: B1
Note ON: Time 121440, Note Name: A#1, Velocity: 84
Note ON: Time 121440, Note Name: A#2, Velocity: 99
Note OFF: Time 121560, Note Name: A#2
Note OFF: Time 121560, Note Name: A#1
Note ON: Time 121680, Note Name: A#1, Velocity: 84
Note ON: Time 121680, Note Name: A#2, Velocity: 99
Note OFF: Time 121800, Note Name: A#2
Note OFF: Time 121800, Note Name: A#1
Note ON: Time 122160, Note Name: A#3, Velocity: 32
Note OFF: Time 122340, Note Name: A#3
Note ON: Time 122340, Note Name: F3, Velocity: 32
Note OFF: Time 122394, Note Name: F3
Note ON: Time 122400, Note Name: A3, Velocity: 40
Note OFF: Time 122640, Note Name: A3
Note ON: Time 122640, Note Name: A#3, Velocity: 35
Note OFF: Time 122760, Note Name: A#3
Note ON: Time 122870, Note Name: A#4, Velocity: 32
Note OFF: Time 123050, Note Name: A#4
Note ON: Time 123050, Note Name: F4, Velocity: 32
Note OFF: Time 123104, Note Name: F4
Note ON: Time 123110, Note Name: A4, Velocity: 40
Note OFF: Time 123350, Note Name: A4
Note ON: Time 123350, Note Name: A#4, Velocity: 35
Note OFF: Time 123470, Note Name: A#4
Note ON: Time 123597, Note Name: A#5, Velocity: 27
Note OFF: Time 123777, Note Name: A#5
Note ON: Time 123777, Note Name: F5, Velocity: 27
Note OFF: Time 123831, Note Name: F5
Note ON: Time 123837, Note Name: A5, Velocity: 34
Note OFF: Time 124077, Note Name: A5
Note ON: Time 124077, Note Name: A#5, Velocity: 29
Note OFF: Time 124197, Note Name: A#5
Track 3: Pedale
Track 4: Beethoven: Hammerklaviersonate 2. Satz
Track 5: Copyright  2008 by Bernd Krueger
Track 6: http://www.piano-midi.de/
Track 7: Edition: 2012-08-16
Track 8: Spur 8
Track 9: Spur 9
Track 10: Spur 10
Track 11: Spur 11
Track 12: Spur 12
Track 13: Spur 13
Track 14: Spur 14
Track 15: Spur 15
Track 16: Spur 16
