Processing beethoven_les_adieux_3.mid...

Track 0: Sonate Les adieux 3. Satz
Track 1: Piano right
Note ON: Time 0, Note Name: F6, Velocity: 77
Note ON: Time 0, Note Name: D6, Velocity: 77
Note ON: Time 0, Note Name: G#5, Velocity: 77
Note ON: Time 0, Note Name: G#6, Velocity: 88
Note OFF: Time 120, Note Name: G#6
Note OFF: Time 120, Note Name: F6
Note OFF: Time 120, Note Name: D6
Note OFF: Time 120, Note Name: G#5
Note ON: Time 240, Note Name: A#3, Velocity: 66
Note OFF: Time 360, Note Name: A#3
Note ON: Time 360, Note Name: A3, Velocity: 57
Note OFF: Time 480, Note Name: A3
Note ON: Time 480, Note Name: A#3, Velocity: 57
Note OFF: Time 600, Note Name: A#3
Note ON: Time 600, Note Name: D4, Velocity: 56
Note OFF: Time 720, Note Name: D4
Note ON: Time 720, Note Name: F4, Velocity: 67
Note OFF: Time 840, Note Name: F4
Note ON: Time 840, Note Name: D4, Velocity: 56
Note OFF: Time 960, Note Name: D4
Note ON: Time 960, Note Name: F4, Velocity: 54
Note OFF: Time 1080, Note Name: F4
Note ON: Time 1080, Note Name: G#4, Velocity: 55
Note OFF: Time 1200, Note Name: G#4
Note ON: Time 1200, Note Name: F4, Velocity: 55
Note OFF: Time 1320, Note Name: F4
Note ON: Time 1320, Note Name: D4, Velocity: 55
Note OFF: Time 1440, Note Name: D4
Note ON: Time 1440, Note Name: G#4, Velocity: 65
Note OFF: Time 1560, Note Name: G#4
Note ON: Time 1560, Note Name: F4, Velocity: 56
Note OFF: Time 1680, Note Name: F4
Note ON: Time 1680, Note Name: G#4, Velocity: 57
Note OFF: Time 1800, Note Name: G#4
Note ON: Time 1800, Note Name: A#4, Velocity: 56
Note OFF: Time 1920, Note Name: A#4
Note ON: Time 1920, Note Name: G#4, Velocity: 55
Note OFF: Time 2040, Note Name: G#4
Note ON: Time 2040, Note Name: F4, Velocity: 55
Note OFF: Time 2160, Note Name: F4
Note ON: Time 2160, Note Name: A#4, Velocity: 67
Note OFF: Time 2280, Note Name: A#4
Note ON: Time 2280, Note Name: G#4, Velocity: 55
Note OFF: Time 2400, Note Name: G#4
Note ON: Time 2400, Note Name: A#4, Velocity: 55
Note OFF: Time 2520, Note Name: A#4
Note ON: Time 2520, Note Name: D5, Velocity: 55
Note OFF: Time 2640, Note Name: D5
Note ON: Time 2640, Note Name: A#4, Velocity: 55
Note OFF: Time 2760, Note Name: A#4
Note ON: Time 2760, Note Name: G#4, Velocity: 55
Note OFF: Time 2880, Note Name: G#4
Note ON: Time 2880, Note Name: F5, Velocity: 64
Note OFF: Time 3000, Note Name: F5
Note ON: Time 3000, Note Name: D5, Velocity: 54
Note OFF: Time 3120, Note Name: D5
Note ON: Time 3120, Note Name: F5, Velocity: 55
Note OFF: Time 3240, Note Name: F5
Note ON: Time 3240, Note Name: G#5, Velocity: 55
Note OFF: Time 3360, Note Name: G#5
Note ON: Time 3360, Note Name: F5, Velocity: 54
Note OFF: Time 3480, Note Name: F5
Note ON: Time 3480, Note Name: D5, Velocity: 54
Note OFF: Time 3600, Note Name: D5
Note ON: Time 3600, Note Name: G#5, Velocity: 65
Note OFF: Time 3720, Note Name: G#5
Note ON: Time 3720, Note Name: F5, Velocity: 54
Note OFF: Time 3840, Note Name: F5
Note ON: Time 3840, Note Name: G#5, Velocity: 54
Note OFF: Time 3960, Note Name: G#5
Note ON: Time 3960, Note Name: A#5, Velocity: 54
Note OFF: Time 4080, Note Name: A#5
Note ON: Time 4080, Note Name: G#5, Velocity: 53
Note OFF: Time 4200, Note Name: G#5
Note ON: Time 4200, Note Name: F5, Velocity: 53
Note OFF: Time 4320, Note Name: F5
Note ON: Time 4320, Note Name: A#5, Velocity: 62
Note OFF: Time 4440, Note Name: A#5
Note ON: Time 4440, Note Name: G#5, Velocity: 53
Note OFF: Time 4560, Note Name: G#5
Note ON: Time 4560, Note Name: A#5, Velocity: 54
Note OFF: Time 4680, Note Name: A#5
Note ON: Time 4680, Note Name: D6, Velocity: 54
Note OFF: Time 4800, Note Name: D6
Note ON: Time 4800, Note Name: A#5, Velocity: 53
Note OFF: Time 4920, Note Name: A#5
Note ON: Time 4920, Note Name: G#5, Velocity: 53
Note OFF: Time 5040, Note Name: G#5
Note ON: Time 5040, Note Name: D6, Velocity: 64
Note OFF: Time 5160, Note Name: D6
Note ON: Time 5160, Note Name: A#5, Velocity: 53
Note OFF: Time 5280, Note Name: A#5
Note ON: Time 5280, Note Name: D6, Velocity: 52
Note OFF: Time 5400, Note Name: D6
Note ON: Time 5400, Note Name: F6, Velocity: 52
Note OFF: Time 5520, Note Name: F6
Note ON: Time 5520, Note Name: D6, Velocity: 52
Note OFF: Time 5640, Note Name: D6
Note ON: Time 5640, Note Name: A#5, Velocity: 52
Note OFF: Time 5760, Note Name: A#5
Note ON: Time 5760, Note Name: F6, Velocity: 57
Note OFF: Time 5880, Note Name: F6
Note ON: Time 5880, Note Name: D6, Velocity: 49
Note OFF: Time 6000, Note Name: D6
Note ON: Time 6000, Note Name: F6, Velocity: 50
Note OFF: Time 6120, Note Name: F6
Note ON: Time 6120, Note Name: G#6, Velocity: 49
Note OFF: Time 6240, Note Name: G#6
Note ON: Time 6240, Note Name: F6, Velocity: 48
Note OFF: Time 6360, Note Name: F6
Note ON: Time 6360, Note Name: D6, Velocity: 48
Note OFF: Time 6480, Note Name: D6
Note ON: Time 6480, Note Name: A#5, Velocity: 58
Note OFF: Time 6600, Note Name: A#5
Note ON: Time 6600, Note Name: A5, Velocity: 48
Note OFF: Time 6720, Note Name: A5
Note ON: Time 6720, Note Name: A#5, Velocity: 47
Note OFF: Time 6840, Note Name: A#5
Note ON: Time 6840, Note Name: D6, Velocity: 47
Note OFF: Time 6960, Note Name: D6
Note ON: Time 6960, Note Name: F6, Velocity: 47
Note OFF: Time 7080, Note Name: F6
Note ON: Time 7080, Note Name: D6, Velocity: 47
Note OFF: Time 7200, Note Name: D6
Note ON: Time 7200, Note Name: F6, Velocity: 54
Note OFF: Time 7320, Note Name: F6
Note ON: Time 7320, Note Name: D6, Velocity: 46
Note OFF: Time 7440, Note Name: D6
Note ON: Time 7440, Note Name: F6, Velocity: 47
Note OFF: Time 7560, Note Name: F6
Note ON: Time 7560, Note Name: G#6, Velocity: 47
Note OFF: Time 7680, Note Name: G#6
Note ON: Time 7680, Note Name: F6, Velocity: 46
Note OFF: Time 7800, Note Name: F6
Note ON: Time 7800, Note Name: D6, Velocity: 45
Note OFF: Time 7920, Note Name: D6
Note ON: Time 7920, Note Name: A#5, Velocity: 55
Note OFF: Time 8040, Note Name: A#5
Note ON: Time 8040, Note Name: A5, Velocity: 45
Note OFF: Time 8160, Note Name: A5
Note ON: Time 8160, Note Name: A#5, Velocity: 45
Note OFF: Time 8280, Note Name: A#5
Note ON: Time 8280, Note Name: D6, Velocity: 45
Note OFF: Time 8400, Note Name: D6
Note ON: Time 8400, Note Name: F6, Velocity: 44
Note OFF: Time 8520, Note Name: F6
Note ON: Time 8520, Note Name: D6, Velocity: 44
Note OFF: Time 8640, Note Name: D6
Note ON: Time 8640, Note Name: F5, Velocity: 51
Note OFF: Time 8760, Note Name: F5
Note ON: Time 8760, Note Name: D5, Velocity: 44
Note OFF: Time 8880, Note Name: D5
Note ON: Time 8880, Note Name: F5, Velocity: 45
Note OFF: Time 9000, Note Name: F5
Note ON: Time 9000, Note Name: G#5, Velocity: 44
Note OFF: Time 9120, Note Name: G#5
Note ON: Time 9120, Note Name: F5, Velocity: 43
Note OFF: Time 9240, Note Name: F5
Note ON: Time 9240, Note Name: D5, Velocity: 43
Note OFF: Time 9360, Note Name: D5
Note ON: Time 9360, Note Name: A#4, Velocity: 52
Note OFF: Time 9480, Note Name: A#4
Note ON: Time 9480, Note Name: A4, Velocity: 43
Note OFF: Time 9600, Note Name: A4
Note ON: Time 9600, Note Name: A#4, Velocity: 42
Note OFF: Time 9720, Note Name: A#4
Note ON: Time 9720, Note Name: D5, Velocity: 42
Note OFF: Time 9840, Note Name: D5
Note ON: Time 9840, Note Name: F5, Velocity: 42
Note OFF: Time 9960, Note Name: F5
Note ON: Time 9960, Note Name: D5, Velocity: 42
Note OFF: Time 10080, Note Name: D5
Note ON: Time 10080, Note Name: F5, Velocity: 48
Note OFF: Time 10200, Note Name: F5
Note ON: Time 10200, Note Name: D5, Velocity: 41
Note OFF: Time 10320, Note Name: D5
Note ON: Time 10320, Note Name: F5, Velocity: 42
Note OFF: Time 10440, Note Name: F5
Note ON: Time 10440, Note Name: G#5, Velocity: 41
Note OFF: Time 10560, Note Name: G#5
Note ON: Time 10560, Note Name: F5, Velocity: 41
Note OFF: Time 10680, Note Name: F5
Note ON: Time 10680, Note Name: D5, Velocity: 40
Note OFF: Time 10800, Note Name: D5
Note ON: Time 10800, Note Name: A#4, Velocity: 49
Note OFF: Time 10920, Note Name: A#4
Note ON: Time 10920, Note Name: A4, Velocity: 40
Note OFF: Time 11040, Note Name: A4
Note ON: Time 11040, Note Name: A#4, Velocity: 40
Note OFF: Time 11160, Note Name: A#4
Note ON: Time 11160, Note Name: D5, Velocity: 40
Note OFF: Time 11280, Note Name: D5
Note ON: Time 11280, Note Name: F5, Velocity: 39
Note OFF: Time 11400, Note Name: F5
Note ON: Time 11400, Note Name: D5, Velocity: 39
Note OFF: Time 11520, Note Name: D5
Note ON: Time 11520, Note Name: G#5, Velocity: 88
Note ON: Time 11520, Note Name: D5, Velocity: 77
Note ON: Time 11520, Note Name: F5, Velocity: 77
Note ON: Time 11520, Note Name: G#4, Velocity: 77
Note OFF: Time 11640, Note Name: G#4
Note OFF: Time 11640, Note Name: G#5
Note OFF: Time 11640, Note Name: D5
Note OFF: Time 11640, Note Name: F5
Note ON: Time 11760, Note Name: A#3, Velocity: 66
Note OFF: Time 11880, Note Name: A#3
Note ON: Time 11880, Note Name: A3, Velocity: 57
Note OFF: Time 12000, Note Name: A3
Note ON: Time 12000, Note Name: A#3, Velocity: 56
Note OFF: Time 12120, Note Name: A#3
Note ON: Time 12120, Note Name: A3, Velocity: 54
Note OFF: Time 12240, Note Name: A3
Note ON: Time 12240, Note Name: C4, Velocity: 64
Note OFF: Time 12360, Note Name: C4
Note ON: Time 12360, Note Name: A#3, Velocity: 53
Note OFF: Time 12480, Note Name: A#3
Note ON: Time 12480, Note Name: D#4, Velocity: 51
Note OFF: Time 12600, Note Name: D#4
Note ON: Time 12600, Note Name: D4, Velocity: 51
Note OFF: Time 12720, Note Name: D4
Note ON: Time 12720, Note Name: G4, Velocity: 51
Note OFF: Time 12840, Note Name: G4
Note ON: Time 12840, Note Name: F4, Velocity: 50
Note OFF: Time 12960, Note Name: F4
Note ON: Time 12960, Note Name: A#4, Velocity: 60
Note OFF: Time 13080, Note Name: A#4
Note ON: Time 13080, Note Name: A4, Velocity: 51
Note OFF: Time 13200, Note Name: A4
Note ON: Time 13200, Note Name: C5, Velocity: 59
Note OFF: Time 13320, Note Name: C5
Note ON: Time 13320, Note Name: A#4, Velocity: 50
Note OFF: Time 13440, Note Name: A#4
Note ON: Time 13440, Note Name: D#5, Velocity: 50
Note OFF: Time 13560, Note Name: D#5
Note ON: Time 13560, Note Name: D5, Velocity: 48
Note OFF: Time 13680, Note Name: D5
Note ON: Time 13680, Note Name: G5, Velocity: 57
Note OFF: Time 13800, Note Name: G5
Note ON: Time 13800, Note Name: F5, Velocity: 47
Note OFF: Time 13920, Note Name: F5
Note ON: Time 13920, Note Name: A#5, Velocity: 45
Note OFF: Time 14040, Note Name: A#5
Note ON: Time 14040, Note Name: A5, Velocity: 45
Note OFF: Time 14160, Note Name: A5
Note ON: Time 14160, Note Name: C6, Velocity: 45
Note OFF: Time 14280, Note Name: C6
Note ON: Time 14280, Note Name: A#5, Velocity: 44
Note OFF: Time 14400, Note Name: A#5
Note ON: Time 14400, Note Name: A#5, Velocity: 45
Note OFF: Time 14640, Note Name: A#5
Note ON: Time 14640, Note Name: G5, Velocity: 45
Note OFF: Time 14880, Note Name: G5
Note ON: Time 14880, Note Name: D#5, Velocity: 39
Note OFF: Time 15120, Note Name: D#5
Note ON: Time 15120, Note Name: D5, Velocity: 45
Note OFF: Time 15360, Note Name: D5
Note ON: Time 15360, Note Name: F5, Velocity: 40
Note OFF: Time 15600, Note Name: F5
Note ON: Time 15600, Note Name: A#5, Velocity: 40
Note OFF: Time 15780, Note Name: A#5
Note ON: Time 15840, Note Name: A#5, Velocity: 45
Note OFF: Time 16080, Note Name: A#5
Note ON: Time 16080, Note Name: G5, Velocity: 41
Note OFF: Time 16320, Note Name: G5
Note ON: Time 16320, Note Name: D#5, Velocity: 41
Note OFF: Time 16500, Note Name: D#5
Note ON: Time 16560, Note Name: D#5, Velocity: 45
Note OFF: Time 16800, Note Name: D#5
Note ON: Time 16800, Note Name: G5, Velocity: 39
Note OFF: Time 17040, Note Name: G5
Note ON: Time 17040, Note Name: C6, Velocity: 51
Note OFF: Time 17220, Note Name: C6
Note ON: Time 17280, Note Name: C6, Velocity: 57
Note OFF: Time 17520, Note Name: C6
Note ON: Time 17520, Note Name: G#5, Velocity: 45
Note OFF: Time 17760, Note Name: G#5
Note ON: Time 17760, Note Name: F5, Velocity: 45
Note OFF: Time 18000, Note Name: F5
Note ON: Time 18000, Note Name: E5, Velocity: 49
Note OFF: Time 18240, Note Name: E5
Note ON: Time 18240, Note Name: G5, Velocity: 44
Note OFF: Time 18480, Note Name: G5
Note ON: Time 18480, Note Name: C6, Velocity: 51
Note OFF: Time 18660, Note Name: C6
Note ON: Time 18720, Note Name: C6, Velocity: 60
Note OFF: Time 18960, Note Name: C6
Note ON: Time 18960, Note Name: G#5, Velocity: 45
Note OFF: Time 19200, Note Name: G#5
Note ON: Time 19200, Note Name: F5, Velocity: 45
Note OFF: Time 19440, Note Name: F5
Note ON: Time 19440, Note Name: D5, Velocity: 51
Note OFF: Time 19680, Note Name: D5
Note ON: Time 19680, Note Name: F5, Velocity: 45
Note OFF: Time 19920, Note Name: F5
Note ON: Time 19920, Note Name: A#5, Velocity: 45
Note OFF: Time 20100, Note Name: A#5
Note ON: Time 20160, Note Name: A#5, Velocity: 50
Note OFF: Time 20400, Note Name: A#5
Note ON: Time 20400, Note Name: G5, Velocity: 43
Note OFF: Time 20640, Note Name: G5
Note ON: Time 20640, Note Name: D#5, Velocity: 43
Note OFF: Time 20880, Note Name: D#5
Note ON: Time 20880, Note Name: C5, Velocity: 45
Note OFF: Time 21120, Note Name: C5
Note ON: Time 21120, Note Name: F5, Velocity: 41
Note OFF: Time 21360, Note Name: F5
Note ON: Time 21360, Note Name: G#5, Velocity: 41
Note OFF: Time 21540, Note Name: G#5
Note ON: Time 21600, Note Name: A#4, Velocity: 47
Note OFF: Time 21840, Note Name: A#4
Note ON: Time 21840, Note Name: D#5, Velocity: 43
Note OFF: Time 22080, Note Name: D#5
Note ON: Time 22080, Note Name: G5, Velocity: 43
Note OFF: Time 22260, Note Name: G5
Note ON: Time 22320, Note Name: G#4, Velocity: 48
Note OFF: Time 22560, Note Name: G#4
Note ON: Time 22560, Note Name: D5, Velocity: 43
Note OFF: Time 22800, Note Name: D5
Note ON: Time 22800, Note Name: F5, Velocity: 43
Note ON: Time 22800, Note Name: G#4, Velocity: 43
Note OFF: Time 22980, Note Name: G#4
Note OFF: Time 22980, Note Name: F5
Note ON: Time 23040, Note Name: D#5, Velocity: 49
Note ON: Time 23040, Note Name: G4, Velocity: 49
Note OFF: Time 23280, Note Name: G4
Note OFF: Time 23280, Note Name: D#5
Note ON: Time 23520, Note Name: G5, Velocity: 49
Note OFF: Time 23760, Note Name: G5
Note ON: Time 23760, Note Name: G#5, Velocity: 49
Note OFF: Time 23880, Note Name: G#5
Note ON: Time 23880, Note Name: G5, Velocity: 45
Note OFF: Time 24000, Note Name: G5
Note ON: Time 24000, Note Name: G#5, Velocity: 49
Note OFF: Time 24120, Note Name: G#5
Note ON: Time 24120, Note Name: F5, Velocity: 44
Note OFF: Time 24240, Note Name: F5
Note ON: Time 24240, Note Name: A#5, Velocity: 49
Note OFF: Time 24360, Note Name: A#5
Note ON: Time 24360, Note Name: G#5, Velocity: 44
Note OFF: Time 24480, Note Name: G#5
Note ON: Time 24480, Note Name: G5, Velocity: 67
Note OFF: Time 24720, Note Name: G5
Note ON: Time 24720, Note Name: A#6, Velocity: 62
Note OFF: Time 24960, Note Name: A#6
Note ON: Time 25680, Note Name: G4, Velocity: 49
Note OFF: Time 25860, Note Name: G4
Note ON: Time 26400, Note Name: G#4, Velocity: 49
Note OFF: Time 26640, Note Name: G#4
Note ON: Time 26640, Note Name: A#4, Velocity: 51
Note OFF: Time 26760, Note Name: A#4
Note ON: Time 26760, Note Name: G#4, Velocity: 41
Note OFF: Time 26880, Note Name: G#4
Note ON: Time 26880, Note Name: A#4, Velocity: 49
Note OFF: Time 27000, Note Name: A#4
Note ON: Time 27000, Note Name: G4, Velocity: 42
Note OFF: Time 27120, Note Name: G4
Note ON: Time 27120, Note Name: C5, Velocity: 49
Note OFF: Time 27240, Note Name: C5
Note ON: Time 27240, Note Name: A#4, Velocity: 47
Note OFF: Time 27360, Note Name: A#4
Note ON: Time 27360, Note Name: G#4, Velocity: 69
Note OFF: Time 27600, Note Name: G#4
Note ON: Time 27600, Note Name: C6, Velocity: 61
Note OFF: Time 27840, Note Name: C6
Note ON: Time 28560, Note Name: F5, Velocity: 55
Note OFF: Time 28740, Note Name: F5
Note ON: Time 29280, Note Name: G5, Velocity: 53
Note OFF: Time 29520, Note Name: G5
Note ON: Time 29520, Note Name: G#5, Velocity: 53
Note OFF: Time 29640, Note Name: G#5
Note ON: Time 29640, Note Name: G5, Velocity: 49
Note OFF: Time 29760, Note Name: G5
Note ON: Time 29760, Note Name: G#5, Velocity: 55
Note OFF: Time 29880, Note Name: G#5
Note ON: Time 29880, Note Name: F5, Velocity: 49
Note OFF: Time 30000, Note Name: F5
Note ON: Time 30000, Note Name: G#6, Velocity: 74
Note OFF: Time 30180, Note Name: G#6
Note ON: Time 30720, Note Name: D#5, Velocity: 49
Note OFF: Time 30900, Note Name: D#5
Note ON: Time 30960, Note Name: F5, Velocity: 57
Note OFF: Time 31080, Note Name: F5
Note ON: Time 31080, Note Name: D#5, Velocity: 49
Note OFF: Time 31200, Note Name: D#5
Note ON: Time 31200, Note Name: F5, Velocity: 56
Note OFF: Time 31320, Note Name: F5
Note ON: Time 31320, Note Name: D5, Velocity: 49
Note OFF: Time 31440, Note Name: D5
Note ON: Time 31440, Note Name: F6, Velocity: 72
Note OFF: Time 31620, Note Name: F6
Note ON: Time 31680, Note Name: G4, Velocity: 81
Note OFF: Time 31800, Note Name: G4
Note ON: Time 31800, Note Name: G5, Velocity: 60
Note OFF: Time 31920, Note Name: G5
Note ON: Time 31920, Note Name: G4, Velocity: 69
Note OFF: Time 32040, Note Name: G4
Note ON: Time 32040, Note Name: G5, Velocity: 59
Note OFF: Time 32160, Note Name: G5
Note ON: Time 32160, Note Name: A#4, Velocity: 67
Note OFF: Time 32280, Note Name: A#4
Note ON: Time 32280, Note Name: A#5, Velocity: 59
Note OFF: Time 32400, Note Name: A#5
Note ON: Time 32400, Note Name: A#4, Velocity: 77
Note OFF: Time 32520, Note Name: A#4
Note ON: Time 32520, Note Name: A#5, Velocity: 57
Note OFF: Time 32640, Note Name: A#5
Note ON: Time 32640, Note Name: A#4, Velocity: 63
Note OFF: Time 32760, Note Name: A#4
Note ON: Time 32760, Note Name: A#5, Velocity: 56
Note OFF: Time 32880, Note Name: A#5
Note ON: Time 32880, Note Name: G#4, Velocity: 63
Note OFF: Time 33000, Note Name: G#4
Note ON: Time 33000, Note Name: G#5, Velocity: 56
Note OFF: Time 33120, Note Name: G#5
Note ON: Time 33120, Note Name: G4, Velocity: 73
Note OFF: Time 33240, Note Name: G4
Note ON: Time 33240, Note Name: G5, Velocity: 60
Note OFF: Time 33360, Note Name: G5
Note ON: Time 33360, Note Name: G4, Velocity: 66
Note OFF: Time 33480, Note Name: G4
Note ON: Time 33480, Note Name: G5, Velocity: 60
Note OFF: Time 33600, Note Name: G5
Note ON: Time 33600, Note Name: A#4, Velocity: 66
Note OFF: Time 33720, Note Name: A#4
Note ON: Time 33720, Note Name: A#5, Velocity: 59
Note OFF: Time 33840, Note Name: A#5
Note ON: Time 33840, Note Name: A#4, Velocity: 73
Note OFF: Time 33960, Note Name: A#4
Note ON: Time 33960, Note Name: A#5, Velocity: 60
Note OFF: Time 34080, Note Name: A#5
Note ON: Time 34080, Note Name: A#4, Velocity: 63
Note OFF: Time 34200, Note Name: A#4
Note ON: Time 34200, Note Name: A#5, Velocity: 55
Note OFF: Time 34320, Note Name: A#5
Note ON: Time 34320, Note Name: G4, Velocity: 66
Note OFF: Time 34440, Note Name: G4
Note ON: Time 34440, Note Name: G5, Velocity: 60
Note OFF: Time 34560, Note Name: G5
Note ON: Time 34560, Note Name: G#4, Velocity: 73
Note OFF: Time 34680, Note Name: G#4
Note ON: Time 34680, Note Name: G#5, Velocity: 53
Note OFF: Time 34800, Note Name: G#5
Note ON: Time 34800, Note Name: G#4, Velocity: 61
Note OFF: Time 34920, Note Name: G#4
Note ON: Time 34920, Note Name: G#5, Velocity: 53
Note OFF: Time 35040, Note Name: G#5
Note ON: Time 35040, Note Name: C5, Velocity: 61
Note OFF: Time 35160, Note Name: C5
Note ON: Time 35160, Note Name: C6, Velocity: 56
Note OFF: Time 35280, Note Name: C6
Note ON: Time 35280, Note Name: C5, Velocity: 73
Note OFF: Time 35400, Note Name: C5
Note ON: Time 35400, Note Name: C6, Velocity: 53
Note OFF: Time 35520, Note Name: C6
Note ON: Time 35520, Note Name: C5, Velocity: 61
Note OFF: Time 35640, Note Name: C5
Note ON: Time 35640, Note Name: C6, Velocity: 55
Note OFF: Time 35760, Note Name: C6
Note ON: Time 35760, Note Name: A#4, Velocity: 61
Note OFF: Time 35880, Note Name: A#4
Note ON: Time 35880, Note Name: A#5, Velocity: 53
Note OFF: Time 36000, Note Name: A#5
Note ON: Time 36000, Note Name: G#4, Velocity: 73
Note OFF: Time 36120, Note Name: G#4
Note ON: Time 36120, Note Name: G#5, Velocity: 55
Note OFF: Time 36240, Note Name: G#5
Note ON: Time 36240, Note Name: G#4, Velocity: 61
Note OFF: Time 36360, Note Name: G#4
Note ON: Time 36360, Note Name: G#5, Velocity: 55
Note OFF: Time 36480, Note Name: G#5
Note ON: Time 36480, Note Name: C5, Velocity: 61
Note OFF: Time 36600, Note Name: C5
Note ON: Time 36600, Note Name: C6, Velocity: 55
Note OFF: Time 36720, Note Name: C6
Note ON: Time 36720, Note Name: C5, Velocity: 73
Note OFF: Time 36840, Note Name: C5
Note ON: Time 36840, Note Name: C6, Velocity: 52
Note OFF: Time 36960, Note Name: C6
Note ON: Time 36960, Note Name: A#4, Velocity: 59
Note OFF: Time 37080, Note Name: A#4
Note ON: Time 37080, Note Name: A#5, Velocity: 52
Note OFF: Time 37200, Note Name: A#5
Note ON: Time 37200, Note Name: G#4, Velocity: 59
Note OFF: Time 37320, Note Name: G#4
Note ON: Time 37320, Note Name: G#5, Velocity: 53
Note OFF: Time 37440, Note Name: G#5
Note ON: Time 37440, Note Name: G4, Velocity: 73
Note OFF: Time 37560, Note Name: G4
Note ON: Time 37560, Note Name: G5, Velocity: 53
Note OFF: Time 37680, Note Name: G5
Note ON: Time 37680, Note Name: A#4, Velocity: 61
Note OFF: Time 37800, Note Name: A#4
Note ON: Time 37800, Note Name: A#5, Velocity: 55
Note OFF: Time 37920, Note Name: A#5
Note ON: Time 37920, Note Name: D#5, Velocity: 61
Note OFF: Time 38040, Note Name: D#5
Note ON: Time 38040, Note Name: D#6, Velocity: 55
Note OFF: Time 38160, Note Name: D#6
Note ON: Time 38160, Note Name: D#5, Velocity: 73
Note OFF: Time 38280, Note Name: D#5
Note ON: Time 38280, Note Name: D#6, Velocity: 53
Note OFF: Time 38400, Note Name: D#6
Note ON: Time 38400, Note Name: C5, Velocity: 60
Note OFF: Time 38520, Note Name: C5
Note ON: Time 38520, Note Name: C6, Velocity: 53
Note OFF: Time 38640, Note Name: C6
Note ON: Time 38640, Note Name: G#4, Velocity: 60
Note OFF: Time 38760, Note Name: G#4
Note ON: Time 38760, Note Name: G#5, Velocity: 53
Note OFF: Time 38880, Note Name: G#5
Note ON: Time 38880, Note Name: D#5, Velocity: 73
Note OFF: Time 39000, Note Name: D#5
Note ON: Time 39000, Note Name: D#6, Velocity: 56
Note OFF: Time 39120, Note Name: D#6
Note ON: Time 39120, Note Name: A#4, Velocity: 62
Note OFF: Time 39240, Note Name: A#4
Note ON: Time 39240, Note Name: A#5, Velocity: 55
Note OFF: Time 39360, Note Name: A#5
Note ON: Time 39360, Note Name: G4, Velocity: 62
Note OFF: Time 39480, Note Name: G4
Note ON: Time 39480, Note Name: G5, Velocity: 55
Note OFF: Time 39600, Note Name: G5
Note ON: Time 39600, Note Name: A#4, Velocity: 73
Note OFF: Time 39720, Note Name: A#4
Note ON: Time 39720, Note Name: A#5, Velocity: 56
Note OFF: Time 39840, Note Name: A#5
Note ON: Time 39840, Note Name: G#4, Velocity: 64
Note OFF: Time 39960, Note Name: G#4
Note ON: Time 39960, Note Name: G#5, Velocity: 57
Note OFF: Time 40080, Note Name: G#5
Note ON: Time 40080, Note Name: F4, Velocity: 64
Note OFF: Time 40200, Note Name: F4
Note ON: Time 40200, Note Name: F5, Velocity: 58
Note OFF: Time 40320, Note Name: F5
Note ON: Time 40320, Note Name: G3, Velocity: 78
Note OFF: Time 40440, Note Name: G3
Note ON: Time 40440, Note Name: D#4, Velocity: 64
Note OFF: Time 40560, Note Name: D#4
Note ON: Time 40560, Note Name: A#3, Velocity: 72
Note OFF: Time 40680, Note Name: A#3
Note ON: Time 40680, Note Name: G4, Velocity: 64
Note OFF: Time 40800, Note Name: G4
Note ON: Time 40800, Note Name: D#4, Velocity: 74
Note OFF: Time 40920, Note Name: D#4
Note ON: Time 40920, Note Name: A#4, Velocity: 64
Note OFF: Time 41040, Note Name: A#4
Note ON: Time 41040, Note Name: G4, Velocity: 79
Note OFF: Time 41160, Note Name: G4
Note ON: Time 41160, Note Name: D#5, Velocity: 64
Note OFF: Time 41280, Note Name: D#5
Note ON: Time 41280, Note Name: A#4, Velocity: 70
Note OFF: Time 41400, Note Name: A#4
Note ON: Time 41400, Note Name: G5, Velocity: 64
Note OFF: Time 41520, Note Name: G5
Note ON: Time 41520, Note Name: D#5, Velocity: 71
Note OFF: Time 41640, Note Name: D#5
Note ON: Time 41640, Note Name: A#5, Velocity: 64
Note OFF: Time 41760, Note Name: A#5
Note ON: Time 41760, Note Name: G5, Velocity: 79
Note OFF: Time 41880, Note Name: G5
Note ON: Time 41880, Note Name: D#6, Velocity: 64
Note OFF: Time 42000, Note Name: D#6
Note ON: Time 42000, Note Name: A#5, Velocity: 70
Note OFF: Time 42120, Note Name: A#5
Note ON: Time 42120, Note Name: G6, Velocity: 61
Note OFF: Time 42240, Note Name: G6
Note ON: Time 42240, Note Name: D#6, Velocity: 69
Note OFF: Time 42360, Note Name: D#6
Note ON: Time 42360, Note Name: A#6, Velocity: 62
Note OFF: Time 42480, Note Name: A#6
Note ON: Time 42480, Note Name: A6, Velocity: 73
Note OFF: Time 42600, Note Name: A6
Note ON: Time 42600, Note Name: A#6, Velocity: 66
Note OFF: Time 42720, Note Name: A#6
Note ON: Time 42720, Note Name: A6, Velocity: 70
Note OFF: Time 42840, Note Name: A6
Note ON: Time 42840, Note Name: A#6, Velocity: 64
Note OFF: Time 42960, Note Name: A#6
Note ON: Time 42960, Note Name: A6, Velocity: 69
Note OFF: Time 43080, Note Name: A6
Note ON: Time 43080, Note Name: A#6, Velocity: 64
Note OFF: Time 43200, Note Name: A#6
Note ON: Time 43200, Note Name: C7, Velocity: 77
Note OFF: Time 43320, Note Name: C7
Note ON: Time 43320, Note Name: A#6, Velocity: 77
Note OFF: Time 43440, Note Name: A#6
Note ON: Time 43440, Note Name: G#6, Velocity: 76
Note OFF: Time 43560, Note Name: G#6
Note ON: Time 43560, Note Name: G6, Velocity: 75
Note OFF: Time 43680, Note Name: G6
Note ON: Time 43680, Note Name: F6, Velocity: 74
Note OFF: Time 43800, Note Name: F6
Note ON: Time 43800, Note Name: D#6, Velocity: 74
Note OFF: Time 43920, Note Name: D#6
Note ON: Time 43920, Note Name: D6, Velocity: 72
Note OFF: Time 44040, Note Name: D6
Note ON: Time 44040, Note Name: C6, Velocity: 65
Note OFF: Time 44160, Note Name: C6
Note ON: Time 44160, Note Name: A#5, Velocity: 65
Note OFF: Time 44280, Note Name: A#5
Note ON: Time 44280, Note Name: G#5, Velocity: 65
Note OFF: Time 44400, Note Name: G#5
Note ON: Time 44400, Note Name: G5, Velocity: 65
Note OFF: Time 44520, Note Name: G5
Note ON: Time 44520, Note Name: F5, Velocity: 65
Note OFF: Time 44640, Note Name: F5
Note ON: Time 44640, Note Name: D#5, Velocity: 70
Note OFF: Time 44760, Note Name: D#5
Note ON: Time 44760, Note Name: D5, Velocity: 69
Note OFF: Time 44880, Note Name: D5
Note ON: Time 44880, Note Name: C5, Velocity: 68
Note OFF: Time 45000, Note Name: C5
Note ON: Time 45000, Note Name: A#4, Velocity: 68
Note OFF: Time 45120, Note Name: A#4
Note ON: Time 45120, Note Name: G#4, Velocity: 67
Note OFF: Time 45240, Note Name: G#4
Note ON: Time 45240, Note Name: G4, Velocity: 66
Note OFF: Time 45360, Note Name: G4
Note ON: Time 45360, Note Name: F4, Velocity: 64
Note OFF: Time 45480, Note Name: F4
Note ON: Time 45480, Note Name: D#4, Velocity: 59
Note OFF: Time 45600, Note Name: D#4
Note ON: Time 45600, Note Name: D4, Velocity: 64
Note OFF: Time 45720, Note Name: D4
Note ON: Time 45720, Note Name: F4, Velocity: 60
Note OFF: Time 45840, Note Name: F4
Note ON: Time 45840, Note Name: G#4, Velocity: 69
Note OFF: Time 45960, Note Name: G#4
Note ON: Time 45960, Note Name: D4, Velocity: 63
Note OFF: Time 46080, Note Name: D4
Note ON: Time 46080, Note Name: G3, Velocity: 78
Note OFF: Time 46200, Note Name: G3
Note ON: Time 46200, Note Name: D#4, Velocity: 64
Note OFF: Time 46320, Note Name: D#4
Note ON: Time 46320, Note Name: A#3, Velocity: 72
Note OFF: Time 46440, Note Name: A#3
Note ON: Time 46440, Note Name: G4, Velocity: 64
Note OFF: Time 46560, Note Name: G4
Note ON: Time 46560, Note Name: D#4, Velocity: 74
Note OFF: Time 46680, Note Name: D#4
Note ON: Time 46680, Note Name: A#4, Velocity: 64
Note OFF: Time 46800, Note Name: A#4
Note ON: Time 46800, Note Name: G4, Velocity: 79
Note OFF: Time 46920, Note Name: G4
Note ON: Time 46920, Note Name: D#5, Velocity: 64
Note OFF: Time 47040, Note Name: D#5
Note ON: Time 47040, Note Name: A#4, Velocity: 70
Note OFF: Time 47160, Note Name: A#4
Note ON: Time 47160, Note Name: G5, Velocity: 64
Note OFF: Time 47280, Note Name: G5
Note ON: Time 47280, Note Name: D#5, Velocity: 71
Note OFF: Time 47400, Note Name: D#5
Note ON: Time 47400, Note Name: A#5, Velocity: 64
Note OFF: Time 47520, Note Name: A#5
Note ON: Time 47520, Note Name: G5, Velocity: 79
Note OFF: Time 47640, Note Name: G5
Note ON: Time 47640, Note Name: D#6, Velocity: 64
Note OFF: Time 47760, Note Name: D#6
Note ON: Time 47760, Note Name: A#5, Velocity: 70
Note OFF: Time 47880, Note Name: A#5
Note ON: Time 47880, Note Name: G6, Velocity: 61
Note OFF: Time 48000, Note Name: G6
Note ON: Time 48000, Note Name: D#6, Velocity: 69
Note OFF: Time 48120, Note Name: D#6
Note ON: Time 48120, Note Name: A#6, Velocity: 62
Note OFF: Time 48240, Note Name: A#6
Note ON: Time 48240, Note Name: A6, Velocity: 73
Note OFF: Time 48360, Note Name: A6
Note ON: Time 48360, Note Name: A#6, Velocity: 66
Note OFF: Time 48480, Note Name: A#6
Note ON: Time 48480, Note Name: A6, Velocity: 70
Note OFF: Time 48600, Note Name: A6
Note ON: Time 48600, Note Name: A#6, Velocity: 64
Note OFF: Time 48720, Note Name: A#6
Note ON: Time 48720, Note Name: A6, Velocity: 69
Note OFF: Time 48840, Note Name: A6
Note ON: Time 48840, Note Name: A#6, Velocity: 64
Note OFF: Time 48960, Note Name: A#6
Note ON: Time 48960, Note Name: C7, Velocity: 77
Note OFF: Time 49080, Note Name: C7
Note ON: Time 49080, Note Name: A#6, Velocity: 77
Note OFF: Time 49200, Note Name: A#6
Note ON: Time 49200, Note Name: G#6, Velocity: 76
Note OFF: Time 49320, Note Name: G#6
Note ON: Time 49320, Note Name: G6, Velocity: 75
Note OFF: Time 49440, Note Name: G6
Note ON: Time 49440, Note Name: F6, Velocity: 74
Note OFF: Time 49560, Note Name: F6
Note ON: Time 49560, Note Name: D#6, Velocity: 74
Note OFF: Time 49680, Note Name: D#6
Note ON: Time 49680, Note Name: D6, Velocity: 72
Note OFF: Time 49800, Note Name: D6
Note ON: Time 49800, Note Name: C6, Velocity: 65
Note OFF: Time 49920, Note Name: C6
Note ON: Time 49920, Note Name: A#5, Velocity: 65
Note OFF: Time 50040, Note Name: A#5
Note ON: Time 50040, Note Name: G#5, Velocity: 65
Note OFF: Time 50160, Note Name: G#5
Note ON: Time 50160, Note Name: G5, Velocity: 65
Note OFF: Time 50280, Note Name: G5
Note ON: Time 50280, Note Name: F5, Velocity: 65
Note OFF: Time 50400, Note Name: F5
Note ON: Time 50400, Note Name: D#5, Velocity: 70
Note OFF: Time 50481, Note Name: D#5
Note ON: Time 50481, Note Name: D5, Velocity: 69
Note ON: Time 50560, Note Name: C5, Velocity: 68
Note OFF: Time 50561, Note Name: D5
Note OFF: Time 50640, Note Name: C5
Note ON: Time 50640, Note Name: A#4, Velocity: 68
Note OFF: Time 50720, Note Name: A#4
Note ON: Time 50720, Note Name: G#4, Velocity: 67
Note OFF: Time 50800, Note Name: G#4
Note ON: Time 50800, Note Name: G4, Velocity: 66
Note OFF: Time 50880, Note Name: G4
Note ON: Time 50880, Note Name: F4, Velocity: 64
Note OFF: Time 50960, Note Name: F4
Note ON: Time 50960, Note Name: D#4, Velocity: 59
Note OFF: Time 51040, Note Name: D#4
Note ON: Time 51040, Note Name: D4, Velocity: 55
Note OFF: Time 51120, Note Name: D4
Note ON: Time 51120, Note Name: C4, Velocity: 62
Note OFF: Time 51240, Note Name: C4
Note ON: Time 51240, Note Name: A#3, Velocity: 54
Note OFF: Time 51360, Note Name: A#3
Note ON: Time 51360, Note Name: A3, Velocity: 60
Note OFF: Time 51480, Note Name: A3
Note ON: Time 51480, Note Name: C4, Velocity: 54
Note OFF: Time 51600, Note Name: C4
Note ON: Time 51600, Note Name: D#4, Velocity: 64
Note OFF: Time 51720, Note Name: D#4
Note ON: Time 51720, Note Name: A3, Velocity: 54
Note OFF: Time 51840, Note Name: A3
Note ON: Time 51840, Note Name: A#3, Velocity: 95
Note OFF: Time 52080, Note Name: A#3
Note ON: Time 52560, Note Name: A#4, Velocity: 89
Note OFF: Time 52800, Note Name: A#4
Note ON: Time 53280, Note Name: C#5, Velocity: 96
Note OFF: Time 53520, Note Name: C#5
Note ON: Time 54000, Note Name: F#5, Velocity: 88
Note OFF: Time 54240, Note Name: F#5
Note ON: Time 54720, Note Name: C#5, Velocity: 94
Note OFF: Time 54960, Note Name: C#5
Note ON: Time 55440, Note Name: A#4, Velocity: 88
Note OFF: Time 55680, Note Name: A#4
Note ON: Time 56160, Note Name: F#4, Velocity: 93
Note OFF: Time 56400, Note Name: F#4
Note ON: Time 56880, Note Name: C#4, Velocity: 82
Note OFF: Time 57120, Note Name: C#4
Note ON: Time 57600, Note Name: A3, Velocity: 95
Note OFF: Time 57840, Note Name: A3
Note ON: Time 58320, Note Name: A4, Velocity: 89
Note OFF: Time 58560, Note Name: A4
Note ON: Time 59040, Note Name: C5, Velocity: 96
Note OFF: Time 59280, Note Name: C5
Note ON: Time 59760, Note Name: F5, Velocity: 88
Note OFF: Time 60000, Note Name: F5
Note ON: Time 60480, Note Name: C5, Velocity: 94
Note OFF: Time 60720, Note Name: C5
Note ON: Time 61200, Note Name: A4, Velocity: 88
Note OFF: Time 61440, Note Name: A4
Note ON: Time 61920, Note Name: F4, Velocity: 93
Note OFF: Time 62160, Note Name: F4
Note ON: Time 62640, Note Name: C4, Velocity: 82
Note OFF: Time 62880, Note Name: C4
Note ON: Time 63360, Note Name: C#5, Velocity: 55
Note OFF: Time 63480, Note Name: C#5
Note ON: Time 63780, Note Name: C6, Velocity: 51
Note OFF: Time 63840, Note Name: C6
Note ON: Time 63840, Note Name: A#5, Velocity: 57
Note OFF: Time 63960, Note Name: A#5
Note ON: Time 63960, Note Name: A5, Velocity: 52
Note OFF: Time 64080, Note Name: A5
Note ON: Time 64080, Note Name: A#5, Velocity: 57
Note OFF: Time 64200, Note Name: A#5
Note ON: Time 64500, Note Name: D#6, Velocity: 53
Note OFF: Time 64560, Note Name: D#6
Note ON: Time 64560, Note Name: C#6, Velocity: 59
Note OFF: Time 64680, Note Name: C#6
Note ON: Time 64680, Note Name: C6, Velocity: 52
Note OFF: Time 64800, Note Name: C6
Note ON: Time 64800, Note Name: C#6, Velocity: 63
Note OFF: Time 64920, Note Name: C#6
Note ON: Time 65220, Note Name: G#6, Velocity: 54
Note OFF: Time 65280, Note Name: G#6
Note ON: Time 65280, Note Name: F#6, Velocity: 60
Note OFF: Time 65400, Note Name: F#6
Note ON: Time 65400, Note Name: F6, Velocity: 55
Note OFF: Time 65520, Note Name: F6
Note ON: Time 65520, Note Name: F#6, Velocity: 61
Note OFF: Time 65640, Note Name: F#6
Note ON: Time 65940, Note Name: D#6, Velocity: 51
Note OFF: Time 66000, Note Name: D#6
Note ON: Time 66000, Note Name: C#6, Velocity: 57
Note OFF: Time 66120, Note Name: C#6
Note ON: Time 66120, Note Name: C6, Velocity: 50
Note OFF: Time 66240, Note Name: C6
Note ON: Time 66240, Note Name: C#6, Velocity: 60
Note OFF: Time 66360, Note Name: C#6
Note ON: Time 66660, Note Name: C6, Velocity: 51
Note OFF: Time 66720, Note Name: C6
Note ON: Time 66720, Note Name: A#5, Velocity: 56
Note OFF: Time 66840, Note Name: A#5
Note ON: Time 66840, Note Name: A5, Velocity: 51
Note OFF: Time 66960, Note Name: A5
Note ON: Time 66960, Note Name: A#5, Velocity: 56
Note OFF: Time 67080, Note Name: A#5
Note ON: Time 67380, Note Name: G#5, Velocity: 51
Note OFF: Time 67440, Note Name: G#5
Note ON: Time 67440, Note Name: F#5, Velocity: 57
Note OFF: Time 67560, Note Name: F#5
Note ON: Time 67560, Note Name: F5, Velocity: 50
Note OFF: Time 67680, Note Name: F5
Note ON: Time 67680, Note Name: F#5, Velocity: 60
Note OFF: Time 67800, Note Name: F#5
Note ON: Time 68100, Note Name: D#5, Velocity: 51
Note OFF: Time 68160, Note Name: D#5
Note ON: Time 68160, Note Name: C#5, Velocity: 56
Note OFF: Time 68280, Note Name: C#5
Note ON: Time 68280, Note Name: C5, Velocity: 51
Note OFF: Time 68400, Note Name: C5
Note ON: Time 68400, Note Name: C#5, Velocity: 56
Note OFF: Time 68880, Note Name: C#5
Note ON: Time 69120, Note Name: C5, Velocity: 55
Note OFF: Time 69240, Note Name: C5
Note ON: Time 69540, Note Name: A#5, Velocity: 51
Note OFF: Time 69600, Note Name: A#5
Note ON: Time 69600, Note Name: A5, Velocity: 57
Note OFF: Time 69720, Note Name: A5
Note ON: Time 69720, Note Name: G5, Velocity: 52
Note OFF: Time 69840, Note Name: G5
Note ON: Time 69840, Note Name: A5, Velocity: 57
Note OFF: Time 69960, Note Name: A5
Note ON: Time 70260, Note Name: D6, Velocity: 53
Note OFF: Time 70320, Note Name: D6
Note ON: Time 70320, Note Name: C6, Velocity: 59
Note OFF: Time 70440, Note Name: C6
Note ON: Time 70440, Note Name: B5, Velocity: 52
Note OFF: Time 70560, Note Name: B5
Note ON: Time 70560, Note Name: C6, Velocity: 63
Note OFF: Time 70680, Note Name: C6
Note ON: Time 70980, Note Name: F#6, Velocity: 55
Note OFF: Time 71040, Note Name: F#6
Note ON: Time 71040, Note Name: F6, Velocity: 60
Note OFF: Time 71160, Note Name: F6
Note ON: Time 71160, Note Name: E6, Velocity: 55
Note OFF: Time 71280, Note Name: E6
Note ON: Time 71280, Note Name: F6, Velocity: 61
Note OFF: Time 71400, Note Name: F6
Note ON: Time 71700, Note Name: C#6, Velocity: 51
Note OFF: Time 71760, Note Name: C#6
Note ON: Time 71760, Note Name: C6, Velocity: 57
Note OFF: Time 71880, Note Name: C6
Note ON: Time 71880, Note Name: B5, Velocity: 50
Note OFF: Time 72000, Note Name: B5
Note ON: Time 72000, Note Name: C6, Velocity: 60
Note OFF: Time 72120, Note Name: C6
Note ON: Time 72420, Note Name: A#5, Velocity: 51
Note OFF: Time 72480, Note Name: A#5
Note ON: Time 72480, Note Name: A5, Velocity: 56
Note OFF: Time 72600, Note Name: A5
Note ON: Time 72600, Note Name: G5, Velocity: 51
Note OFF: Time 72720, Note Name: G5
Note ON: Time 72720, Note Name: A5, Velocity: 56
Note OFF: Time 72840, Note Name: A5
Note ON: Time 73140, Note Name: F#5, Velocity: 51
Note OFF: Time 73200, Note Name: F#5
Note ON: Time 73200, Note Name: F5, Velocity: 57
Note OFF: Time 73320, Note Name: F5
Note ON: Time 73320, Note Name: E5, Velocity: 50
Note OFF: Time 73440, Note Name: E5
Note ON: Time 73440, Note Name: F5, Velocity: 60
Note OFF: Time 73560, Note Name: F5
Note ON: Time 73860, Note Name: C#5, Velocity: 51
Note OFF: Time 73920, Note Name: C#5
Note ON: Time 73920, Note Name: C5, Velocity: 56
Note OFF: Time 74040, Note Name: C5
Note ON: Time 74040, Note Name: B4, Velocity: 51
Note OFF: Time 74160, Note Name: B4
Note ON: Time 74160, Note Name: C5, Velocity: 56
Note OFF: Time 74400, Note Name: C5
Note ON: Time 74640, Note Name: C#5, Velocity: 61
Note OFF: Time 74880, Note Name: C#5
Note ON: Time 74880, Note Name: D5, Velocity: 56
Note ON: Time 74880, Note Name: F4, Velocity: 35
Note OFF: Time 75000, Note Name: F4
Note ON: Time 75000, Note Name: G4, Velocity: 31
Note OFF: Time 75120, Note Name: G4
Note ON: Time 75120, Note Name: F4, Velocity: 35
Note OFF: Time 75240, Note Name: F4
Note ON: Time 75240, Note Name: G4, Velocity: 31
Note OFF: Time 75360, Note Name: G4
Note ON: Time 75360, Note Name: F4, Velocity: 34
Note OFF: Time 75480, Note Name: F4
Note ON: Time 75480, Note Name: G4, Velocity: 31
Note OFF: Time 75600, Note Name: G4
Note OFF: Time 75600, Note Name: D5
Note ON: Time 75600, Note Name: F4, Velocity: 36
Note ON: Time 75600, Note Name: A#4, Velocity: 55
Note OFF: Time 75720, Note Name: F4
Note ON: Time 75720, Note Name: G4, Velocity: 32
Note OFF: Time 75840, Note Name: G4
Note ON: Time 75840, Note Name: F4, Velocity: 36
Note OFF: Time 75960, Note Name: F4
Note ON: Time 75960, Note Name: G4, Velocity: 31
Note OFF: Time 76080, Note Name: G4
Note ON: Time 76080, Note Name: F4, Velocity: 37
Note OFF: Time 76200, Note Name: F4
Note ON: Time 76200, Note Name: G4, Velocity: 31
Note OFF: Time 76320, Note Name: G4
Note OFF: Time 76320, Note Name: A#4
Note ON: Time 76320, Note Name: F4, Velocity: 37
Note ON: Time 76320, Note Name: A4, Velocity: 59
Note OFF: Time 76440, Note Name: F4
Note ON: Time 76440, Note Name: G4, Velocity: 33
Note OFF: Time 76560, Note Name: G4
Note ON: Time 76560, Note Name: F4, Velocity: 37
Note OFF: Time 76680, Note Name: F4
Note ON: Time 76680, Note Name: G4, Velocity: 33
Note OFF: Time 76800, Note Name: G4
Note ON: Time 76800, Note Name: F4, Velocity: 37
Note OFF: Time 76920, Note Name: F4
Note ON: Time 76920, Note Name: G4, Velocity: 34
Note OFF: Time 77040, Note Name: G4
Note OFF: Time 77040, Note Name: A4
Note ON: Time 77040, Note Name: F4, Velocity: 38
Note ON: Time 77040, Note Name: D#5, Velocity: 59
Note OFF: Time 77160, Note Name: F4
Note ON: Time 77160, Note Name: G4, Velocity: 34
Note OFF: Time 77280, Note Name: G4
Note ON: Time 77280, Note Name: F4, Velocity: 39
Note OFF: Time 77400, Note Name: F4
Note ON: Time 77400, Note Name: G4, Velocity: 33
Note OFF: Time 77520, Note Name: G4
Note ON: Time 77520, Note Name: F4, Velocity: 39
Note OFF: Time 77640, Note Name: F4
Note ON: Time 77640, Note Name: G4, Velocity: 34
Note OFF: Time 77760, Note Name: G4
Note OFF: Time 77760, Note Name: D#5
Note ON: Time 77760, Note Name: F4, Velocity: 40
Note ON: Time 77760, Note Name: D5, Velocity: 64
Note OFF: Time 77880, Note Name: F4
Note ON: Time 77880, Note Name: G4, Velocity: 35
Note OFF: Time 78000, Note Name: G4
Note ON: Time 78000, Note Name: F4, Velocity: 39
Note OFF: Time 78120, Note Name: F4
Note ON: Time 78120, Note Name: G4, Velocity: 35
Note OFF: Time 78240, Note Name: G4
Note ON: Time 78240, Note Name: F4, Velocity: 38
Note OFF: Time 78360, Note Name: F4
Note ON: Time 78360, Note Name: G4, Velocity: 34
Note OFF: Time 78480, Note Name: G4
Note OFF: Time 78480, Note Name: D5
Note ON: Time 78480, Note Name: F4, Velocity: 39
Note ON: Time 78480, Note Name: A#4, Velocity: 60
Note OFF: Time 78600, Note Name: F4
Note ON: Time 78600, Note Name: G4, Velocity: 34
Note OFF: Time 78720, Note Name: G4
Note ON: Time 78720, Note Name: F4, Velocity: 38
Note OFF: Time 78840, Note Name: F4
Note ON: Time 78840, Note Name: G4, Velocity: 33
Note OFF: Time 78960, Note Name: G4
Note ON: Time 78960, Note Name: F4, Velocity: 38
Note OFF: Time 79080, Note Name: F4
Note ON: Time 79080, Note Name: G4, Velocity: 32
Note OFF: Time 79200, Note Name: G4
Note OFF: Time 79200, Note Name: A#4
Note ON: Time 79200, Note Name: F4, Velocity: 37
Note ON: Time 79200, Note Name: A4, Velocity: 60
Note OFF: Time 79320, Note Name: F4
Note ON: Time 79320, Note Name: G4, Velocity: 33
Note OFF: Time 79440, Note Name: G4
Note ON: Time 79440, Note Name: F4, Velocity: 37
Note OFF: Time 79560, Note Name: F4
Note ON: Time 79560, Note Name: G4, Velocity: 32
Note OFF: Time 79680, Note Name: G4
Note ON: Time 79680, Note Name: F4, Velocity: 35
Note OFF: Time 79800, Note Name: F4
Note ON: Time 79800, Note Name: G4, Velocity: 32
Note OFF: Time 79920, Note Name: G4
Note OFF: Time 79920, Note Name: A4
Note ON: Time 79920, Note Name: F4, Velocity: 36
Note ON: Time 79920, Note Name: D#5, Velocity: 56
Note OFF: Time 80040, Note Name: F4
Note ON: Time 80040, Note Name: G4, Velocity: 32
Note OFF: Time 80160, Note Name: G4
Note ON: Time 80160, Note Name: F4, Velocity: 36
Note OFF: Time 80280, Note Name: F4
Note ON: Time 80280, Note Name: G4, Velocity: 30
Note OFF: Time 80400, Note Name: G4
Note ON: Time 80400, Note Name: F4, Velocity: 35
Note OFF: Time 80520, Note Name: F4
Note ON: Time 80520, Note Name: G4, Velocity: 30
Note OFF: Time 80640, Note Name: G4
Note OFF: Time 80640, Note Name: D#5
Note ON: Time 80640, Note Name: D5, Velocity: 51
Note OFF: Time 80760, Note Name: D5
Note ON: Time 80760, Note Name: F5, Velocity: 45
Note OFF: Time 80880, Note Name: F5
Note ON: Time 80880, Note Name: G5, Velocity: 48
Note OFF: Time 80960, Note Name: G5
Note ON: Time 80960, Note Name: A5, Velocity: 50
Note OFF: Time 81040, Note Name: A5
Note ON: Time 81040, Note Name: A#5, Velocity: 52
Note OFF: Time 81120, Note Name: A#5
Note ON: Time 81120, Note Name: C6, Velocity: 54
Note OFF: Time 81200, Note Name: C6
Note ON: Time 81200, Note Name: D6, Velocity: 56
Note OFF: Time 81280, Note Name: D6
Note ON: Time 81280, Note Name: D#6, Velocity: 59
Note OFF: Time 81360, Note Name: D#6
Note ON: Time 81360, Note Name: F6, Velocity: 61
Note OFF: Time 81480, Note Name: F6
Note ON: Time 81480, Note Name: D#6, Velocity: 60
Note OFF: Time 81600, Note Name: D#6
Note ON: Time 81600, Note Name: D6, Velocity: 58
Note OFF: Time 81720, Note Name: D6
Note ON: Time 81720, Note Name: C6, Velocity: 57
Note OFF: Time 81840, Note Name: C6
Note ON: Time 81840, Note Name: A#5, Velocity: 55
Note OFF: Time 81960, Note Name: A#5
Note ON: Time 81960, Note Name: A5, Velocity: 54
Note OFF: Time 82080, Note Name: A5
Note ON: Time 82080, Note Name: G5, Velocity: 51
Note OFF: Time 82200, Note Name: G5
Note ON: Time 82200, Note Name: A5, Velocity: 45
Note OFF: Time 82320, Note Name: A5
Note ON: Time 82320, Note Name: A#5, Velocity: 48
Note OFF: Time 82440, Note Name: A#5
Note ON: Time 82440, Note Name: C6, Velocity: 50
Note OFF: Time 82560, Note Name: C6
Note ON: Time 82560, Note Name: D6, Velocity: 54
Note OFF: Time 82640, Note Name: D6
Note ON: Time 82640, Note Name: D#6, Velocity: 56
Note OFF: Time 82720, Note Name: D#6
Note ON: Time 82720, Note Name: F6, Velocity: 59
Note OFF: Time 82800, Note Name: F6
Note ON: Time 82800, Note Name: G6, Velocity: 61
Note OFF: Time 82920, Note Name: G6
Note ON: Time 82920, Note Name: F6, Velocity: 60
Note OFF: Time 83040, Note Name: F6
Note ON: Time 83040, Note Name: D#6, Velocity: 58
Note OFF: Time 83120, Note Name: D#6
Note ON: Time 83120, Note Name: D6, Velocity: 57
Note OFF: Time 83200, Note Name: D6
Note ON: Time 83200, Note Name: C6, Velocity: 56
Note OFF: Time 83280, Note Name: C6
Note ON: Time 83280, Note Name: A#5, Velocity: 55
Note OFF: Time 83360, Note Name: A#5
Note ON: Time 83360, Note Name: A5, Velocity: 54
Note OFF: Time 83440, Note Name: A5
Note ON: Time 83440, Note Name: G5, Velocity: 53
Note OFF: Time 83520, Note Name: G5
Note ON: Time 83520, Note Name: F5, Velocity: 57
Note OFF: Time 83640, Note Name: F5
Note ON: Time 83640, Note Name: D6, Velocity: 49
Note OFF: Time 83760, Note Name: D6
Note ON: Time 83760, Note Name: A#5, Velocity: 59
Note OFF: Time 83880, Note Name: A#5
Note ON: Time 83880, Note Name: F6, Velocity: 55
Note OFF: Time 84000, Note Name: F6
Note ON: Time 84000, Note Name: D6, Velocity: 62
Note OFF: Time 84120, Note Name: D6
Note ON: Time 84120, Note Name: A#6, Velocity: 57
Note OFF: Time 84240, Note Name: A#6
Note ON: Time 84240, Note Name: F6, Velocity: 62
Note OFF: Time 84320, Note Name: F6
Note ON: Time 84320, Note Name: D7, Velocity: 57
Note OFF: Time 84400, Note Name: D7
Note ON: Time 84400, Note Name: A#6, Velocity: 55
Note OFF: Time 84480, Note Name: A#6
Note ON: Time 84480, Note Name: F7, Velocity: 61
Note OFF: Time 84560, Note Name: F7
Note ON: Time 84560, Note Name: D7, Velocity: 53
Note OFF: Time 84640, Note Name: D7
Note ON: Time 84640, Note Name: A#6, Velocity: 54
Note OFF: Time 84720, Note Name: A#6
Note ON: Time 84720, Note Name: F6, Velocity: 59
Note OFF: Time 84800, Note Name: F6
Note ON: Time 84800, Note Name: D6, Velocity: 53
Note OFF: Time 84880, Note Name: D6
Note ON: Time 84880, Note Name: A#5, Velocity: 53
Note OFF: Time 84960, Note Name: A#5
Note ON: Time 84960, Note Name: F5, Velocity: 59
Note OFF: Time 85440, Note Name: F5
Note ON: Time 85680, Note Name: C6, Velocity: 59
Note OFF: Time 85760, Note Name: C6
Note ON: Time 85760, Note Name: D6, Velocity: 52
Note OFF: Time 85840, Note Name: D6
Note ON: Time 85840, Note Name: C6, Velocity: 59
Note OFF: Time 85920, Note Name: C6
Note ON: Time 85920, Note Name: D6, Velocity: 54
Note OFF: Time 86000, Note Name: D6
Note ON: Time 86000, Note Name: C6, Velocity: 59
Note OFF: Time 86080, Note Name: C6
Note ON: Time 86080, Note Name: D6, Velocity: 53
Note OFF: Time 86160, Note Name: D6
Note ON: Time 86160, Note Name: C6, Velocity: 59
Note OFF: Time 86240, Note Name: C6
Note ON: Time 86240, Note Name: D6, Velocity: 53
Note OFF: Time 86320, Note Name: D6
Note ON: Time 86320, Note Name: C6, Velocity: 56
Note OFF: Time 86400, Note Name: C6
Note ON: Time 86400, Note Name: D6, Velocity: 61
Note ON: Time 86400, Note Name: F5, Velocity: 41
Note OFF: Time 86520, Note Name: F5
Note ON: Time 86520, Note Name: G5, Velocity: 31
Note OFF: Time 86640, Note Name: G5
Note ON: Time 86640, Note Name: F5, Velocity: 35
Note OFF: Time 86760, Note Name: F5
Note ON: Time 86760, Note Name: G5, Velocity: 31
Note OFF: Time 86880, Note Name: G5
Note ON: Time 86880, Note Name: F5, Velocity: 34
Note OFF: Time 87000, Note Name: F5
Note ON: Time 87000, Note Name: G5, Velocity: 31
Note OFF: Time 87120, Note Name: G5
Note OFF: Time 87120, Note Name: D6
Note ON: Time 87120, Note Name: F5, Velocity: 36
Note ON: Time 87120, Note Name: A#5, Velocity: 55
Note OFF: Time 87240, Note Name: F5
Note ON: Time 87240, Note Name: G5, Velocity: 32
Note OFF: Time 87360, Note Name: G5
Note ON: Time 87360, Note Name: F5, Velocity: 36
Note OFF: Time 87480, Note Name: F5
Note ON: Time 87480, Note Name: G5, Velocity: 31
Note OFF: Time 87600, Note Name: G5
Note ON: Time 87600, Note Name: F5, Velocity: 37
Note OFF: Time 87720, Note Name: F5
Note ON: Time 87720, Note Name: G5, Velocity: 31
Note OFF: Time 87840, Note Name: G5
Note OFF: Time 87840, Note Name: A#5
Note ON: Time 87840, Note Name: F5, Velocity: 37
Note ON: Time 87840, Note Name: A5, Velocity: 59
Note OFF: Time 87960, Note Name: F5
Note ON: Time 87960, Note Name: G5, Velocity: 33
Note OFF: Time 88080, Note Name: G5
Note ON: Time 88080, Note Name: F5, Velocity: 37
Note OFF: Time 88200, Note Name: F5
Note ON: Time 88200, Note Name: G5, Velocity: 33
Note OFF: Time 88320, Note Name: G5
Note ON: Time 88320, Note Name: F5, Velocity: 37
Note OFF: Time 88440, Note Name: F5
Note ON: Time 88440, Note Name: G5, Velocity: 34
Note OFF: Time 88560, Note Name: G5
Note OFF: Time 88560, Note Name: A5
Note ON: Time 88560, Note Name: F5, Velocity: 38
Note ON: Time 88560, Note Name: D#6, Velocity: 59
Note OFF: Time 88680, Note Name: F5
Note ON: Time 88680, Note Name: G5, Velocity: 34
Note OFF: Time 88800, Note Name: G5
Note ON: Time 88800, Note Name: F5, Velocity: 39
Note OFF: Time 88920, Note Name: F5
Note ON: Time 88920, Note Name: G5, Velocity: 33
Note OFF: Time 89040, Note Name: G5
Note ON: Time 89040, Note Name: F5, Velocity: 39
Note OFF: Time 89160, Note Name: F5
Note ON: Time 89160, Note Name: G5, Velocity: 34
Note OFF: Time 89280, Note Name: G5
Note OFF: Time 89280, Note Name: D#6
Note ON: Time 89280, Note Name: F5, Velocity: 40
Note ON: Time 89280, Note Name: D6, Velocity: 64
Note OFF: Time 89400, Note Name: F5
Note ON: Time 89400, Note Name: G5, Velocity: 35
Note OFF: Time 89520, Note Name: G5
Note ON: Time 89520, Note Name: F5, Velocity: 39
Note OFF: Time 89640, Note Name: F5
Note ON: Time 89640, Note Name: G5, Velocity: 35
Note OFF: Time 89760, Note Name: G5
Note ON: Time 89760, Note Name: F5, Velocity: 38
Note OFF: Time 89880, Note Name: F5
Note ON: Time 89880, Note Name: G5, Velocity: 34
Note OFF: Time 90000, Note Name: G5
Note OFF: Time 90000, Note Name: D6
Note ON: Time 90000, Note Name: A#5, Velocity: 60
Note ON: Time 90000, Note Name: F5, Velocity: 39
Note OFF: Time 90120, Note Name: F5
Note ON: Time 90120, Note Name: G5, Velocity: 34
Note OFF: Time 90240, Note Name: G5
Note ON: Time 90240, Note Name: F5, Velocity: 38
Note OFF: Time 90360, Note Name: F5
Note ON: Time 90360, Note Name: G5, Velocity: 33
Note OFF: Time 90480, Note Name: G5
Note ON: Time 90480, Note Name: F5, Velocity: 38
Note OFF: Time 90600, Note Name: F5
Note ON: Time 90600, Note Name: G5, Velocity: 32
Note OFF: Time 90720, Note Name: G5
Note OFF: Time 90720, Note Name: A#5
Note ON: Time 90720, Note Name: F5, Velocity: 37
Note ON: Time 90720, Note Name: A5, Velocity: 60
Note OFF: Time 90840, Note Name: F5
Note ON: Time 90840, Note Name: G5, Velocity: 33
Note OFF: Time 90960, Note Name: G5
Note ON: Time 90960, Note Name: F5, Velocity: 37
Note OFF: Time 91080, Note Name: F5
Note ON: Time 91080, Note Name: G5, Velocity: 32
Note OFF: Time 91200, Note Name: G5
Note ON: Time 91200, Note Name: F5, Velocity: 35
Note OFF: Time 91320, Note Name: F5
Note ON: Time 91320, Note Name: G5, Velocity: 32
Note OFF: Time 91440, Note Name: G5
Note OFF: Time 91440, Note Name: A5
Note ON: Time 91440, Note Name: D#6, Velocity: 56
Note ON: Time 91440, Note Name: F5, Velocity: 36
Note OFF: Time 91560, Note Name: F5
Note ON: Time 91560, Note Name: G5, Velocity: 32
Note OFF: Time 91680, Note Name: G5
Note ON: Time 91680, Note Name: F5, Velocity: 36
Note OFF: Time 91800, Note Name: F5
Note ON: Time 91800, Note Name: G5, Velocity: 30
Note OFF: Time 91920, Note Name: G5
Note ON: Time 91920, Note Name: F5, Velocity: 35
Note OFF: Time 92040, Note Name: F5
Note ON: Time 92040, Note Name: G5, Velocity: 30
Note OFF: Time 92160, Note Name: G5
Note OFF: Time 92160, Note Name: D#6
Note ON: Time 92400, Note Name: D6, Velocity: 45
Note ON: Time 92400, Note Name: A#5, Velocity: 45
Note OFF: Time 92520, Note Name: A#5
Note OFF: Time 92520, Note Name: D6
Note ON: Time 92640, Note Name: D6, Velocity: 45
Note ON: Time 92640, Note Name: A#5, Velocity: 45
Note OFF: Time 92760, Note Name: A#5
Note OFF: Time 92760, Note Name: D6
Note ON: Time 92880, Note Name: D6, Velocity: 48
Note ON: Time 92880, Note Name: A#5, Velocity: 48
Note OFF: Time 93000, Note Name: A#5
Note OFF: Time 93000, Note Name: D6
Note ON: Time 93120, Note Name: D6, Velocity: 42
Note ON: Time 93120, Note Name: A#5, Velocity: 42
Note OFF: Time 93240, Note Name: A#5
Note OFF: Time 93240, Note Name: D6
Note ON: Time 93360, Note Name: D6, Velocity: 42
Note ON: Time 93360, Note Name: A#5, Velocity: 42
Note OFF: Time 93480, Note Name: A#5
Note OFF: Time 93480, Note Name: D6
Note ON: Time 93840, Note Name: C6, Velocity: 45
Note ON: Time 93840, Note Name: A#5, Velocity: 45
Note OFF: Time 93960, Note Name: A#5
Note OFF: Time 93960, Note Name: C6
Note ON: Time 94080, Note Name: A#5, Velocity: 45
Note ON: Time 94080, Note Name: C6, Velocity: 45
Note OFF: Time 94200, Note Name: C6
Note OFF: Time 94200, Note Name: A#5
Note ON: Time 94320, Note Name: A#5, Velocity: 49
Note ON: Time 94320, Note Name: C6, Velocity: 49
Note OFF: Time 94440, Note Name: C6
Note OFF: Time 94440, Note Name: A#5
Note ON: Time 94560, Note Name: C6, Velocity: 44
Note ON: Time 94560, Note Name: A#5, Velocity: 44
Note OFF: Time 94680, Note Name: A#5
Note OFF: Time 94680, Note Name: C6
Note ON: Time 94800, Note Name: C6, Velocity: 46
Note ON: Time 94800, Note Name: A#5, Velocity: 46
Note OFF: Time 94920, Note Name: A#5
Note OFF: Time 94920, Note Name: C6
Note ON: Time 95280, Note Name: D6, Velocity: 48
Note ON: Time 95280, Note Name: A#5, Velocity: 48
Note OFF: Time 95400, Note Name: A#5
Note OFF: Time 95400, Note Name: D6
Note ON: Time 95520, Note Name: D6, Velocity: 49
Note ON: Time 95520, Note Name: A#5, Velocity: 49
Note OFF: Time 95640, Note Name: A#5
Note OFF: Time 95640, Note Name: D6
Note ON: Time 95760, Note Name: D6, Velocity: 52
Note ON: Time 95760, Note Name: A#5, Velocity: 52
Note OFF: Time 95880, Note Name: A#5
Note OFF: Time 95880, Note Name: D6
Note ON: Time 96000, Note Name: D6, Velocity: 47
Note ON: Time 96000, Note Name: A#5, Velocity: 47
Note OFF: Time 96120, Note Name: A#5
Note OFF: Time 96120, Note Name: D6
Note ON: Time 96240, Note Name: F6, Velocity: 48
Note ON: Time 96240, Note Name: A#5, Velocity: 48
Note ON: Time 96240, Note Name: D6, Velocity: 48
Note OFF: Time 96360, Note Name: D6
Note OFF: Time 96360, Note Name: A#5
Note OFF: Time 96360, Note Name: F6
Note ON: Time 96480, Note Name: D#6, Velocity: 59
Note ON: Time 96480, Note Name: A5, Velocity: 59
Note ON: Time 96480, Note Name: F6, Velocity: 59
Note OFF: Time 96600, Note Name: F6
Note OFF: Time 96600, Note Name: A5
Note OFF: Time 96600, Note Name: D#6
Note ON: Time 96720, Note Name: F6, Velocity: 46
Note ON: Time 96720, Note Name: A5, Velocity: 46
Note ON: Time 96720, Note Name: D#6, Velocity: 46
Note OFF: Time 96840, Note Name: D#6
Note OFF: Time 96840, Note Name: A5
Note OFF: Time 96840, Note Name: F6
Note ON: Time 96960, Note Name: D#6, Velocity: 45
Note ON: Time 96960, Note Name: F6, Velocity: 45
Note ON: Time 96960, Note Name: A5, Velocity: 45
Note OFF: Time 97080, Note Name: A5
Note OFF: Time 97080, Note Name: F6
Note OFF: Time 97080, Note Name: D#6
Note ON: Time 97200, Note Name: F6, Velocity: 53
Note ON: Time 97200, Note Name: A5, Velocity: 53
Note ON: Time 97200, Note Name: D#6, Velocity: 53
Note OFF: Time 97320, Note Name: D#6
Note OFF: Time 97320, Note Name: A5
Note OFF: Time 97320, Note Name: F6
Note ON: Time 97440, Note Name: D#6, Velocity: 45
Note ON: Time 97440, Note Name: F6, Velocity: 45
Note ON: Time 97440, Note Name: A5, Velocity: 45
Note OFF: Time 97560, Note Name: A5
Note OFF: Time 97560, Note Name: F6
Note OFF: Time 97560, Note Name: D#6
Note ON: Time 97680, Note Name: F6, Velocity: 44
Note ON: Time 97680, Note Name: A5, Velocity: 44
Note ON: Time 97680, Note Name: D#6, Velocity: 44
Note OFF: Time 97800, Note Name: D#6
Note OFF: Time 97800, Note Name: A5
Note OFF: Time 97800, Note Name: F6
Note ON: Time 98400, Note Name: G#5, Velocity: 70
Note ON: Time 98400, Note Name: G#6, Velocity: 83
Note OFF: Time 99120, Note Name: G#6
Note OFF: Time 99120, Note Name: G#5
Note ON: Time 99120, Note Name: G5, Velocity: 66
Note ON: Time 99120, Note Name: G6, Velocity: 79
Note OFF: Time 99360, Note Name: G6
Note OFF: Time 99360, Note Name: G5
Note ON: Time 99840, Note Name: F#5, Velocity: 69
Note ON: Time 99840, Note Name: F#6, Velocity: 81
Note OFF: Time 100560, Note Name: F#6
Note OFF: Time 100560, Note Name: F#5
Note ON: Time 100560, Note Name: F5, Velocity: 67
Note ON: Time 100560, Note Name: F6, Velocity: 80
Note OFF: Time 100800, Note Name: F6
Note OFF: Time 100800, Note Name: F5
Note ON: Time 101280, Note Name: G#4, Velocity: 73
Note ON: Time 101280, Note Name: G#5, Velocity: 86
Note OFF: Time 102000, Note Name: G#5
Note OFF: Time 102000, Note Name: G#4
Note ON: Time 102000, Note Name: G4, Velocity: 71
Note ON: Time 102000, Note Name: G5, Velocity: 86
Note OFF: Time 102240, Note Name: G5
Note OFF: Time 102240, Note Name: G4
Note ON: Time 102720, Note Name: F#4, Velocity: 78
Note ON: Time 102720, Note Name: F#5, Velocity: 92
Note OFF: Time 103440, Note Name: F#5
Note OFF: Time 103440, Note Name: F#4
Note ON: Time 103440, Note Name: F4, Velocity: 75
Note ON: Time 103440, Note Name: F5, Velocity: 90
Note OFF: Time 103680, Note Name: F5
Note OFF: Time 103680, Note Name: F4
Note ON: Time 103920, Note Name: A#4, Velocity: 60
Note ON: Time 103920, Note Name: F5, Velocity: 71
Note ON: Time 103920, Note Name: F4, Velocity: 60
Note OFF: Time 104040, Note Name: F4
Note OFF: Time 104040, Note Name: F5
Note OFF: Time 104040, Note Name: A#4
Note ON: Time 104160, Note Name: F4, Velocity: 57
Note ON: Time 104160, Note Name: F5, Velocity: 68
Note ON: Time 104160, Note Name: A#4, Velocity: 57
Note OFF: Time 104280, Note Name: A#4
Note OFF: Time 104280, Note Name: F5
Note OFF: Time 104280, Note Name: F4
Note ON: Time 104640, Note Name: A#4, Velocity: 58
Note ON: Time 104640, Note Name: D#5, Velocity: 69
Note ON: Time 104640, Note Name: G4, Velocity: 58
Note OFF: Time 104760, Note Name: G4
Note OFF: Time 104760, Note Name: D#5
Note OFF: Time 104760, Note Name: A#4
Note ON: Time 104880, Note Name: D5, Velocity: 65
Note ON: Time 104880, Note Name: G4, Velocity: 55
Note ON: Time 104880, Note Name: A#4, Velocity: 55
Note OFF: Time 105000, Note Name: A#4
Note OFF: Time 105000, Note Name: G4
Note OFF: Time 105000, Note Name: D5
Note ON: Time 105360, Note Name: D#4, Velocity: 60
Note ON: Time 105360, Note Name: D5, Velocity: 71
Note ON: Time 105360, Note Name: G4, Velocity: 60
Note OFF: Time 105480, Note Name: G4
Note OFF: Time 105480, Note Name: D5
Note OFF: Time 105480, Note Name: D#4
Note ON: Time 105600, Note Name: C5, Velocity: 68
Note ON: Time 105600, Note Name: G4, Velocity: 57
Note ON: Time 105600, Note Name: D#4, Velocity: 57
Note OFF: Time 105720, Note Name: D#4
Note OFF: Time 105720, Note Name: G4
Note OFF: Time 105720, Note Name: C5
Note ON: Time 106080, Note Name: A#4, Velocity: 69
Note ON: Time 106080, Note Name: D#4, Velocity: 58
Note ON: Time 106080, Note Name: C4, Velocity: 58
Note OFF: Time 106200, Note Name: C4
Note OFF: Time 106200, Note Name: D#4
Note OFF: Time 106200, Note Name: A#4
Note ON: Time 106320, Note Name: A4, Velocity: 65
Note ON: Time 106320, Note Name: D#4, Velocity: 55
Note ON: Time 106320, Note Name: C4, Velocity: 55
Note OFF: Time 106440, Note Name: C4
Note OFF: Time 106440, Note Name: D#4
Note OFF: Time 106440, Note Name: A4
Note ON: Time 106800, Note Name: A#4, Velocity: 71
Note ON: Time 106800, Note Name: F4, Velocity: 60
Note ON: Time 106800, Note Name: A#3, Velocity: 60
Note OFF: Time 106920, Note Name: A#3
Note OFF: Time 106920, Note Name: F4
Note OFF: Time 106920, Note Name: A#4
Note ON: Time 107040, Note Name: F4, Velocity: 69
Note ON: Time 107040, Note Name: D4, Velocity: 58
Note ON: Time 107040, Note Name: A#3, Velocity: 58
Note OFF: Time 107160, Note Name: A#3
Note OFF: Time 107160, Note Name: D4
Note OFF: Time 107160, Note Name: F4
Note ON: Time 107520, Note Name: G3, Velocity: 74
Note ON: Time 107520, Note Name: D#4, Velocity: 72
Note ON: Time 107520, Note Name: A#3, Velocity: 60
Note OFF: Time 107640, Note Name: A#3
Note OFF: Time 107640, Note Name: D#4
Note OFF: Time 107640, Note Name: G3
Note ON: Time 107760, Note Name: D4, Velocity: 68
Note ON: Time 107760, Note Name: A#3, Velocity: 58
Note ON: Time 107760, Note Name: G3, Velocity: 58
Note OFF: Time 107880, Note Name: G3
Note OFF: Time 107880, Note Name: A#3
Note OFF: Time 107880, Note Name: D4
Note ON: Time 108240, Note Name: D4, Velocity: 76
Note ON: Time 108240, Note Name: G3, Velocity: 64
Note ON: Time 108240, Note Name: D#3, Velocity: 64
Note OFF: Time 108360, Note Name: D#3
Note OFF: Time 108360, Note Name: G3
Note OFF: Time 108360, Note Name: D4
Note ON: Time 108480, Note Name: C4, Velocity: 74
Note ON: Time 108480, Note Name: G3, Velocity: 62
Note ON: Time 108480, Note Name: D#3, Velocity: 62
Note OFF: Time 108600, Note Name: D#3
Note OFF: Time 108600, Note Name: G3
Note OFF: Time 108600, Note Name: C4
Note ON: Time 108960, Note Name: C3, Velocity: 79
Note ON: Time 108960, Note Name: D#3, Velocity: 64
Note ON: Time 108960, Note Name: A#3, Velocity: 77
Note OFF: Time 109080, Note Name: A#3
Note OFF: Time 109080, Note Name: D#3
Note OFF: Time 109080, Note Name: C3
Note ON: Time 109200, Note Name: D#3, Velocity: 62
Note ON: Time 109200, Note Name: A3, Velocity: 73
Note ON: Time 109200, Note Name: C3, Velocity: 62
Note OFF: Time 109320, Note Name: C3
Note OFF: Time 109320, Note Name: A3
Note OFF: Time 109320, Note Name: D#3
Note ON: Time 109440, Note Name: A#2, Velocity: 62
Note OFF: Time 109560, Note Name: A#2
Note ON: Time 109560, Note Name: C3, Velocity: 63
Note OFF: Time 109680, Note Name: C3
Note ON: Time 109680, Note Name: D3, Velocity: 65
Note OFF: Time 109800, Note Name: D3
Note ON: Time 109800, Note Name: D#3, Velocity: 66
Note OFF: Time 109920, Note Name: D#3
Note ON: Time 109920, Note Name: F3, Velocity: 67
Note OFF: Time 110000, Note Name: F3
Note ON: Time 110000, Note Name: G3, Velocity: 68
Note OFF: Time 110080, Note Name: G3
Note ON: Time 110080, Note Name: A3, Velocity: 68
Note OFF: Time 110160, Note Name: A3
Note ON: Time 110160, Note Name: A#3, Velocity: 69
Note OFF: Time 110240, Note Name: A#3
Note ON: Time 110240, Note Name: C4, Velocity: 70
Note OFF: Time 110320, Note Name: C4
Note ON: Time 110320, Note Name: D4, Velocity: 71
Note OFF: Time 110400, Note Name: D4
Note ON: Time 110400, Note Name: D#4, Velocity: 72
Note OFF: Time 110480, Note Name: D#4
Note ON: Time 110480, Note Name: F4, Velocity: 72
Note OFF: Time 110560, Note Name: F4
Note ON: Time 110560, Note Name: G4, Velocity: 73
Note OFF: Time 110640, Note Name: G4
Note ON: Time 110640, Note Name: A4, Velocity: 85
Note OFF: Time 110760, Note Name: A4
Note ON: Time 110760, Note Name: A3, Velocity: 67
Note OFF: Time 110880, Note Name: A3
Note ON: Time 110880, Note Name: A#3, Velocity: 62
Note OFF: Time 111000, Note Name: A#3
Note ON: Time 111000, Note Name: C4, Velocity: 63
Note OFF: Time 111120, Note Name: C4
Note ON: Time 111120, Note Name: D4, Velocity: 65
Note OFF: Time 111240, Note Name: D4
Note ON: Time 111240, Note Name: D#4, Velocity: 66
Note OFF: Time 111360, Note Name: D#4
Note ON: Time 111360, Note Name: F4, Velocity: 67
Note OFF: Time 111440, Note Name: F4
Note ON: Time 111440, Note Name: G4, Velocity: 68
Note OFF: Time 111520, Note Name: G4
Note ON: Time 111520, Note Name: A4, Velocity: 68
Note OFF: Time 111600, Note Name: A4
Note ON: Time 111600, Note Name: A#4, Velocity: 69
Note OFF: Time 111680, Note Name: A#4
Note ON: Time 111680, Note Name: C5, Velocity: 70
Note OFF: Time 111760, Note Name: C5
Note ON: Time 111760, Note Name: D5, Velocity: 71
Note OFF: Time 111840, Note Name: D5
Note ON: Time 111840, Note Name: D#5, Velocity: 72
Note OFF: Time 111920, Note Name: D#5
Note ON: Time 111920, Note Name: F5, Velocity: 72
Note OFF: Time 112000, Note Name: F5
Note ON: Time 112000, Note Name: G5, Velocity: 73
Note OFF: Time 112080, Note Name: G5
Note ON: Time 112080, Note Name: A5, Velocity: 85
Note OFF: Time 112200, Note Name: A5
Note ON: Time 112200, Note Name: A4, Velocity: 67
Note OFF: Time 112320, Note Name: A4
Note ON: Time 112320, Note Name: A#4, Velocity: 62
Note OFF: Time 112440, Note Name: A#4
Note ON: Time 112440, Note Name: C5, Velocity: 63
Note OFF: Time 112560, Note Name: C5
Note ON: Time 112560, Note Name: D5, Velocity: 65
Note OFF: Time 112680, Note Name: D5
Note ON: Time 112680, Note Name: D#5, Velocity: 66
Note OFF: Time 112800, Note Name: D#5
Note ON: Time 112800, Note Name: F5, Velocity: 68
Note OFF: Time 112880, Note Name: F5
Note ON: Time 112880, Note Name: G5, Velocity: 70
Note OFF: Time 112960, Note Name: G5
Note ON: Time 112960, Note Name: A5, Velocity: 72
Note OFF: Time 113040, Note Name: A5
Note ON: Time 113040, Note Name: A#5, Velocity: 74
Note OFF: Time 113160, Note Name: A#5
Note ON: Time 113160, Note Name: C6, Velocity: 75
Note OFF: Time 113280, Note Name: C6
Note ON: Time 113280, Note Name: D6, Velocity: 77
Note OFF: Time 113360, Note Name: D6
Note ON: Time 113360, Note Name: D#6, Velocity: 79
Note OFF: Time 113440, Note Name: D#6
Note ON: Time 113440, Note Name: F6, Velocity: 81
Note OFF: Time 113520, Note Name: F6
Note ON: Time 113520, Note Name: G6, Velocity: 83
Note OFF: Time 113600, Note Name: G6
Note ON: Time 113600, Note Name: A6, Velocity: 92
Note OFF: Time 113680, Note Name: A6
Note ON: Time 113680, Note Name: A5, Velocity: 85
Note OFF: Time 113760, Note Name: A5
Note ON: Time 113760, Note Name: A#6, Velocity: 105
Note ON: Time 113760, Note Name: A#5, Velocity: 89
Note OFF: Time 114240, Note Name: A#5
Note OFF: Time 114240, Note Name: A#6
Note ON: Time 114480, Note Name: F5, Velocity: 75
Note ON: Time 114480, Note Name: D5, Velocity: 75
Note ON: Time 114480, Note Name: A#5, Velocity: 90
Note OFF: Time 114960, Note Name: A#5
Note OFF: Time 114960, Note Name: D5
Note OFF: Time 114960, Note Name: F5
Note ON: Time 115200, Note Name: D4, Velocity: 74
Note ON: Time 115200, Note Name: A#4, Velocity: 89
Note ON: Time 115200, Note Name: F4, Velocity: 74
Note OFF: Time 115680, Note Name: F4
Note OFF: Time 115680, Note Name: A#4
Note OFF: Time 115680, Note Name: D4
Note ON: Time 116400, Note Name: A#5, Velocity: 45
Note OFF: Time 116640, Note Name: A#5
Note ON: Time 116640, Note Name: A#5, Velocity: 45
Note OFF: Time 116880, Note Name: A#5
Note ON: Time 116880, Note Name: G5, Velocity: 45
Note OFF: Time 117120, Note Name: G5
Note ON: Time 117120, Note Name: D#5, Velocity: 39
Note OFF: Time 117360, Note Name: D#5
Note ON: Time 117360, Note Name: D5, Velocity: 45
Note OFF: Time 117600, Note Name: D5
Note ON: Time 117600, Note Name: F5, Velocity: 40
Note OFF: Time 117840, Note Name: F5
Note ON: Time 117840, Note Name: A#5, Velocity: 40
Note OFF: Time 118020, Note Name: A#5
Note ON: Time 118080, Note Name: A#5, Velocity: 45
Note OFF: Time 118320, Note Name: A#5
Note ON: Time 118320, Note Name: G5, Velocity: 41
Note OFF: Time 118560, Note Name: G5
Note ON: Time 118560, Note Name: D#5, Velocity: 41
Note OFF: Time 118740, Note Name: D#5
Note ON: Time 118800, Note Name: D#5, Velocity: 45
Note OFF: Time 119040, Note Name: D#5
Note ON: Time 119040, Note Name: G5, Velocity: 39
Note OFF: Time 119280, Note Name: G5
Note ON: Time 119280, Note Name: C6, Velocity: 51
Note OFF: Time 119460, Note Name: C6
Note ON: Time 119520, Note Name: C6, Velocity: 57
Note OFF: Time 119760, Note Name: C6
Note ON: Time 119760, Note Name: G#5, Velocity: 45
Note OFF: Time 120000, Note Name: G#5
Note ON: Time 120000, Note Name: F5, Velocity: 45
Note OFF: Time 120240, Note Name: F5
Note ON: Time 120240, Note Name: E5, Velocity: 49
Note OFF: Time 120480, Note Name: E5
Note ON: Time 120480, Note Name: G5, Velocity: 44
Note OFF: Time 120720, Note Name: G5
Note ON: Time 120720, Note Name: C6, Velocity: 51
Note OFF: Time 120900, Note Name: C6
Note ON: Time 120960, Note Name: C6, Velocity: 60
Note OFF: Time 121200, Note Name: C6
Note ON: Time 121200, Note Name: G#5, Velocity: 45
Note OFF: Time 121440, Note Name: G#5
Note ON: Time 121440, Note Name: F5, Velocity: 45
Note OFF: Time 121680, Note Name: F5
Note ON: Time 121680, Note Name: D5, Velocity: 51
Note OFF: Time 121920, Note Name: D5
Note ON: Time 121920, Note Name: F5, Velocity: 45
Note OFF: Time 122160, Note Name: F5
Note ON: Time 122160, Note Name: A#5, Velocity: 45
Note OFF: Time 122340, Note Name: A#5
Note ON: Time 122400, Note Name: A#5, Velocity: 50
Note OFF: Time 122640, Note Name: A#5
Note ON: Time 122640, Note Name: G5, Velocity: 43
Note OFF: Time 122880, Note Name: G5
Note ON: Time 122880, Note Name: D#5, Velocity: 43
Note OFF: Time 123120, Note Name: D#5
Note ON: Time 123120, Note Name: C5, Velocity: 45
Note OFF: Time 123360, Note Name: C5
Note ON: Time 123360, Note Name: F5, Velocity: 41
Note OFF: Time 123600, Note Name: F5
Note ON: Time 123600, Note Name: G#5, Velocity: 41
Note OFF: Time 123780, Note Name: G#5
Note ON: Time 123840, Note Name: A#4, Velocity: 47
Note OFF: Time 124080, Note Name: A#4
Note ON: Time 124080, Note Name: D#5, Velocity: 43
Note OFF: Time 124320, Note Name: D#5
Note ON: Time 124320, Note Name: G5, Velocity: 43
Note OFF: Time 124500, Note Name: G5
Note ON: Time 124560, Note Name: G#4, Velocity: 48
Note OFF: Time 124800, Note Name: G#4
Note ON: Time 124800, Note Name: D5, Velocity: 43
Note OFF: Time 125040, Note Name: D5
Note ON: Time 125040, Note Name: F5, Velocity: 43
Note ON: Time 125040, Note Name: G#4, Velocity: 43
Note OFF: Time 125220, Note Name: G#4
Note OFF: Time 125220, Note Name: F5
Note ON: Time 125280, Note Name: D#5, Velocity: 49
Note ON: Time 125280, Note Name: G4, Velocity: 49
Note OFF: Time 125520, Note Name: G4
Note OFF: Time 125520, Note Name: D#5
Note ON: Time 125760, Note Name: G5, Velocity: 49
Note OFF: Time 126000, Note Name: G5
Note ON: Time 126000, Note Name: G#5, Velocity: 49
Note OFF: Time 126120, Note Name: G#5
Note ON: Time 126120, Note Name: G5, Velocity: 45
Note OFF: Time 126240, Note Name: G5
Note ON: Time 126240, Note Name: G#5, Velocity: 49
Note OFF: Time 126360, Note Name: G#5
Note ON: Time 126360, Note Name: F5, Velocity: 44
Note OFF: Time 126480, Note Name: F5
Note ON: Time 126480, Note Name: A#5, Velocity: 49
Note OFF: Time 126600, Note Name: A#5
Note ON: Time 126600, Note Name: G#5, Velocity: 44
Note OFF: Time 126720, Note Name: G#5
Note ON: Time 126720, Note Name: G5, Velocity: 67
Note OFF: Time 126960, Note Name: G5
Note ON: Time 126960, Note Name: A#6, Velocity: 62
Note OFF: Time 127200, Note Name: A#6
Note ON: Time 127920, Note Name: G4, Velocity: 49
Note OFF: Time 128100, Note Name: G4
Note ON: Time 128640, Note Name: G#4, Velocity: 49
Note OFF: Time 128880, Note Name: G#4
Note ON: Time 128880, Note Name: A#4, Velocity: 51
Note OFF: Time 129000, Note Name: A#4
Note ON: Time 129000, Note Name: G#4, Velocity: 41
Note OFF: Time 129120, Note Name: G#4
Note ON: Time 129120, Note Name: A#4, Velocity: 49
Note OFF: Time 129240, Note Name: A#4
Note ON: Time 129240, Note Name: G4, Velocity: 42
Note OFF: Time 129360, Note Name: G4
Note ON: Time 129360, Note Name: C5, Velocity: 49
Note OFF: Time 129480, Note Name: C5
Note ON: Time 129480, Note Name: A#4, Velocity: 47
Note OFF: Time 129600, Note Name: A#4
Note ON: Time 129600, Note Name: G#4, Velocity: 69
Note OFF: Time 129840, Note Name: G#4
Note ON: Time 129840, Note Name: C6, Velocity: 61
Note OFF: Time 130080, Note Name: C6
Note ON: Time 130800, Note Name: F5, Velocity: 55
Note OFF: Time 130980, Note Name: F5
Note ON: Time 131520, Note Name: G5, Velocity: 53
Note OFF: Time 131760, Note Name: G5
Note ON: Time 131760, Note Name: G#5, Velocity: 53
Note OFF: Time 131880, Note Name: G#5
Note ON: Time 131880, Note Name: G5, Velocity: 49
Note OFF: Time 132000, Note Name: G5
Note ON: Time 132000, Note Name: G#5, Velocity: 55
Note OFF: Time 132120, Note Name: G#5
Note ON: Time 132120, Note Name: F5, Velocity: 49
Note OFF: Time 132240, Note Name: F5
Note ON: Time 132240, Note Name: G#6, Velocity: 74
Note OFF: Time 132420, Note Name: G#6
Note ON: Time 132960, Note Name: D#5, Velocity: 49
Note OFF: Time 133140, Note Name: D#5
Note ON: Time 133200, Note Name: F5, Velocity: 57
Note OFF: Time 133320, Note Name: F5
Note ON: Time 133320, Note Name: D#5, Velocity: 49
Note OFF: Time 133440, Note Name: D#5
Note ON: Time 133440, Note Name: F5, Velocity: 56
Note OFF: Time 133560, Note Name: F5
Note ON: Time 133560, Note Name: D5, Velocity: 49
Note OFF: Time 133680, Note Name: D5
Note ON: Time 133680, Note Name: F6, Velocity: 72
Note OFF: Time 133860, Note Name: F6
Note ON: Time 133920, Note Name: G4, Velocity: 81
Note OFF: Time 134040, Note Name: G4
Note ON: Time 134040, Note Name: G5, Velocity: 60
Note OFF: Time 134160, Note Name: G5
Note ON: Time 134160, Note Name: G4, Velocity: 69
Note OFF: Time 134280, Note Name: G4
Note ON: Time 134280, Note Name: G5, Velocity: 59
Note OFF: Time 134400, Note Name: G5
Note ON: Time 134400, Note Name: A#4, Velocity: 67
Note OFF: Time 134520, Note Name: A#4
Note ON: Time 134520, Note Name: A#5, Velocity: 59
Note OFF: Time 134640, Note Name: A#5
Note ON: Time 134640, Note Name: A#4, Velocity: 77
Note OFF: Time 134760, Note Name: A#4
Note ON: Time 134760, Note Name: A#5, Velocity: 57
Note OFF: Time 134880, Note Name: A#5
Note ON: Time 134880, Note Name: A#4, Velocity: 63
Note OFF: Time 135000, Note Name: A#4
Note ON: Time 135000, Note Name: A#5, Velocity: 56
Note OFF: Time 135120, Note Name: A#5
Note ON: Time 135120, Note Name: G#4, Velocity: 63
Note OFF: Time 135240, Note Name: G#4
Note ON: Time 135240, Note Name: G#5, Velocity: 56
Note OFF: Time 135360, Note Name: G#5
Note ON: Time 135360, Note Name: G4, Velocity: 73
Note OFF: Time 135480, Note Name: G4
Note ON: Time 135480, Note Name: G5, Velocity: 60
Note OFF: Time 135600, Note Name: G5
Note ON: Time 135600, Note Name: G4, Velocity: 66
Note OFF: Time 135720, Note Name: G4
Note ON: Time 135720, Note Name: G5, Velocity: 60
Note OFF: Time 135840, Note Name: G5
Note ON: Time 135840, Note Name: A#4, Velocity: 66
Note OFF: Time 135960, Note Name: A#4
Note ON: Time 135960, Note Name: A#5, Velocity: 59
Note OFF: Time 136080, Note Name: A#5
Note ON: Time 136080, Note Name: A#4, Velocity: 73
Note OFF: Time 136200, Note Name: A#4
Note ON: Time 136200, Note Name: A#5, Velocity: 60
Note OFF: Time 136320, Note Name: A#5
Note ON: Time 136320, Note Name: A#4, Velocity: 63
Note OFF: Time 136440, Note Name: A#4
Note ON: Time 136440, Note Name: A#5, Velocity: 55
Note OFF: Time 136560, Note Name: A#5
Note ON: Time 136560, Note Name: G4, Velocity: 66
Note OFF: Time 136680, Note Name: G4
Note ON: Time 136680, Note Name: G5, Velocity: 60
Note OFF: Time 136800, Note Name: G5
Note ON: Time 136800, Note Name: G#4, Velocity: 73
Note OFF: Time 136920, Note Name: G#4
Note ON: Time 136920, Note Name: G#5, Velocity: 53
Note OFF: Time 137040, Note Name: G#5
Note ON: Time 137040, Note Name: G#4, Velocity: 61
Note OFF: Time 137160, Note Name: G#4
Note ON: Time 137160, Note Name: G#5, Velocity: 53
Note OFF: Time 137280, Note Name: G#5
Note ON: Time 137280, Note Name: C5, Velocity: 61
Note OFF: Time 137400, Note Name: C5
Note ON: Time 137400, Note Name: C6, Velocity: 56
Note OFF: Time 137520, Note Name: C6
Note ON: Time 137520, Note Name: C5, Velocity: 73
Note OFF: Time 137640, Note Name: C5
Note ON: Time 137640, Note Name: C6, Velocity: 53
Note OFF: Time 137760, Note Name: C6
Note ON: Time 137760, Note Name: C5, Velocity: 61
Note OFF: Time 137880, Note Name: C5
Note ON: Time 137880, Note Name: C6, Velocity: 55
Note OFF: Time 138000, Note Name: C6
Note ON: Time 138000, Note Name: A#4, Velocity: 61
Note OFF: Time 138120, Note Name: A#4
Note ON: Time 138120, Note Name: A#5, Velocity: 53
Note OFF: Time 138240, Note Name: A#5
Note ON: Time 138240, Note Name: G#4, Velocity: 73
Note OFF: Time 138360, Note Name: G#4
Note ON: Time 138360, Note Name: G#5, Velocity: 55
Note OFF: Time 138480, Note Name: G#5
Note ON: Time 138480, Note Name: G#4, Velocity: 61
Note OFF: Time 138600, Note Name: G#4
Note ON: Time 138600, Note Name: G#5, Velocity: 55
Note OFF: Time 138720, Note Name: G#5
Note ON: Time 138720, Note Name: C5, Velocity: 61
Note OFF: Time 138840, Note Name: C5
Note ON: Time 138840, Note Name: C6, Velocity: 55
Note OFF: Time 138960, Note Name: C6
Note ON: Time 138960, Note Name: C5, Velocity: 73
Note OFF: Time 139080, Note Name: C5
Note ON: Time 139080, Note Name: C6, Velocity: 52
Note OFF: Time 139200, Note Name: C6
Note ON: Time 139200, Note Name: A#4, Velocity: 59
Note OFF: Time 139320, Note Name: A#4
Note ON: Time 139320, Note Name: A#5, Velocity: 52
Note OFF: Time 139440, Note Name: A#5
Note ON: Time 139440, Note Name: G#4, Velocity: 59
Note OFF: Time 139560, Note Name: G#4
Note ON: Time 139560, Note Name: G#5, Velocity: 53
Note OFF: Time 139680, Note Name: G#5
Note ON: Time 139680, Note Name: G4, Velocity: 73
Note OFF: Time 139800, Note Name: G4
Note ON: Time 139800, Note Name: G5, Velocity: 53
Note OFF: Time 139920, Note Name: G5
Note ON: Time 139920, Note Name: A#4, Velocity: 61
Note OFF: Time 140040, Note Name: A#4
Note ON: Time 140040, Note Name: A#5, Velocity: 55
Note OFF: Time 140160, Note Name: A#5
Note ON: Time 140160, Note Name: D#5, Velocity: 61
Note OFF: Time 140280, Note Name: D#5
Note ON: Time 140280, Note Name: D#6, Velocity: 55
Note OFF: Time 140400, Note Name: D#6
Note ON: Time 140400, Note Name: D#5, Velocity: 73
Note OFF: Time 140520, Note Name: D#5
Note ON: Time 140520, Note Name: D#6, Velocity: 53
Note OFF: Time 140640, Note Name: D#6
Note ON: Time 140640, Note Name: C5, Velocity: 60
Note OFF: Time 140760, Note Name: C5
Note ON: Time 140760, Note Name: C6, Velocity: 53
Note OFF: Time 140880, Note Name: C6
Note ON: Time 140880, Note Name: G#4, Velocity: 60
Note OFF: Time 141000, Note Name: G#4
Note ON: Time 141000, Note Name: G#5, Velocity: 53
Note OFF: Time 141120, Note Name: G#5
Note ON: Time 141120, Note Name: D#5, Velocity: 73
Note OFF: Time 141240, Note Name: D#5
Note ON: Time 141240, Note Name: D#6, Velocity: 56
Note OFF: Time 141360, Note Name: D#6
Note ON: Time 141360, Note Name: A#4, Velocity: 62
Note OFF: Time 141480, Note Name: A#4
Note ON: Time 141480, Note Name: A#5, Velocity: 55
Note OFF: Time 141600, Note Name: A#5
Note ON: Time 141600, Note Name: G4, Velocity: 62
Note OFF: Time 141720, Note Name: G4
Note ON: Time 141720, Note Name: G5, Velocity: 55
Note OFF: Time 141840, Note Name: G5
Note ON: Time 141840, Note Name: A#4, Velocity: 73
Note OFF: Time 141960, Note Name: A#4
Note ON: Time 141960, Note Name: A#5, Velocity: 56
Note OFF: Time 142080, Note Name: A#5
Note ON: Time 142080, Note Name: G#4, Velocity: 64
Note OFF: Time 142200, Note Name: G#4
Note ON: Time 142200, Note Name: G#5, Velocity: 57
Note OFF: Time 142320, Note Name: G#5
Note ON: Time 142320, Note Name: F4, Velocity: 64
Note OFF: Time 142440, Note Name: F4
Note ON: Time 142440, Note Name: F5, Velocity: 58
Note OFF: Time 142560, Note Name: F5
Note ON: Time 142560, Note Name: G3, Velocity: 78
Note OFF: Time 142680, Note Name: G3
Note ON: Time 142680, Note Name: D#4, Velocity: 64
Note OFF: Time 142800, Note Name: D#4
Note ON: Time 142800, Note Name: A#3, Velocity: 72
Note OFF: Time 142920, Note Name: A#3
Note ON: Time 142920, Note Name: G4, Velocity: 64
Note OFF: Time 143040, Note Name: G4
Note ON: Time 143040, Note Name: D#4, Velocity: 74
Note OFF: Time 143160, Note Name: D#4
Note ON: Time 143160, Note Name: A#4, Velocity: 64
Note OFF: Time 143280, Note Name: A#4
Note ON: Time 143280, Note Name: G4, Velocity: 79
Note OFF: Time 143400, Note Name: G4
Note ON: Time 143400, Note Name: D#5, Velocity: 64
Note OFF: Time 143520, Note Name: D#5
Note ON: Time 143520, Note Name: A#4, Velocity: 70
Note OFF: Time 143640, Note Name: A#4
Note ON: Time 143640, Note Name: G5, Velocity: 64
Note OFF: Time 143760, Note Name: G5
Note ON: Time 143760, Note Name: D#5, Velocity: 71
Note OFF: Time 143880, Note Name: D#5
Note ON: Time 143880, Note Name: A#5, Velocity: 64
Note OFF: Time 144000, Note Name: A#5
Note ON: Time 144000, Note Name: G5, Velocity: 79
Note OFF: Time 144120, Note Name: G5
Note ON: Time 144120, Note Name: D#6, Velocity: 64
Note OFF: Time 144240, Note Name: D#6
Note ON: Time 144240, Note Name: A#5, Velocity: 70
Note OFF: Time 144360, Note Name: A#5
Note ON: Time 144360, Note Name: G6, Velocity: 61
Note OFF: Time 144480, Note Name: G6
Note ON: Time 144480, Note Name: D#6, Velocity: 69
Note OFF: Time 144600, Note Name: D#6
Note ON: Time 144600, Note Name: A#6, Velocity: 62
Note OFF: Time 144720, Note Name: A#6
Note ON: Time 144720, Note Name: A6, Velocity: 73
Note OFF: Time 144840, Note Name: A6
Note ON: Time 144840, Note Name: A#6, Velocity: 66
Note OFF: Time 144960, Note Name: A#6
Note ON: Time 144960, Note Name: A6, Velocity: 70
Note OFF: Time 145080, Note Name: A6
Note ON: Time 145080, Note Name: A#6, Velocity: 64
Note OFF: Time 145200, Note Name: A#6
Note ON: Time 145200, Note Name: A6, Velocity: 69
Note OFF: Time 145320, Note Name: A6
Note ON: Time 145320, Note Name: A#6, Velocity: 64
Note OFF: Time 145440, Note Name: A#6
Note ON: Time 145440, Note Name: C7, Velocity: 77
Note OFF: Time 145560, Note Name: C7
Note ON: Time 145560, Note Name: A#6, Velocity: 77
Note OFF: Time 145680, Note Name: A#6
Note ON: Time 145680, Note Name: G#6, Velocity: 76
Note OFF: Time 145800, Note Name: G#6
Note ON: Time 145800, Note Name: G6, Velocity: 75
Note OFF: Time 145920, Note Name: G6
Note ON: Time 145920, Note Name: F6, Velocity: 74
Note OFF: Time 146040, Note Name: F6
Note ON: Time 146040, Note Name: D#6, Velocity: 74
Note OFF: Time 146160, Note Name: D#6
Note ON: Time 146160, Note Name: D6, Velocity: 72
Note OFF: Time 146280, Note Name: D6
Note ON: Time 146280, Note Name: C6, Velocity: 65
Note OFF: Time 146400, Note Name: C6
Note ON: Time 146400, Note Name: A#5, Velocity: 65
Note OFF: Time 146520, Note Name: A#5
Note ON: Time 146520, Note Name: G#5, Velocity: 65
Note OFF: Time 146640, Note Name: G#5
Note ON: Time 146640, Note Name: G5, Velocity: 65
Note OFF: Time 146760, Note Name: G5
Note ON: Time 146760, Note Name: F5, Velocity: 65
Note OFF: Time 146880, Note Name: F5
Note ON: Time 146880, Note Name: D#5, Velocity: 70
Note OFF: Time 147000, Note Name: D#5
Note ON: Time 147000, Note Name: D5, Velocity: 69
Note OFF: Time 147120, Note Name: D5
Note ON: Time 147120, Note Name: C5, Velocity: 68
Note OFF: Time 147240, Note Name: C5
Note ON: Time 147240, Note Name: A#4, Velocity: 68
Note OFF: Time 147360, Note Name: A#4
Note ON: Time 147360, Note Name: G#4, Velocity: 67
Note OFF: Time 147480, Note Name: G#4
Note ON: Time 147480, Note Name: G4, Velocity: 66
Note OFF: Time 147600, Note Name: G4
Note ON: Time 147600, Note Name: F4, Velocity: 64
Note OFF: Time 147720, Note Name: F4
Note ON: Time 147720, Note Name: D#4, Velocity: 59
Note OFF: Time 147840, Note Name: D#4
Note ON: Time 147840, Note Name: D4, Velocity: 64
Note OFF: Time 147960, Note Name: D4
Note ON: Time 147960, Note Name: F4, Velocity: 60
Note OFF: Time 148080, Note Name: F4
Note ON: Time 148080, Note Name: G#4, Velocity: 69
Note OFF: Time 148200, Note Name: G#4
Note ON: Time 148200, Note Name: D4, Velocity: 63
Note OFF: Time 148320, Note Name: D4
Note ON: Time 148320, Note Name: G3, Velocity: 78
Note OFF: Time 148440, Note Name: G3
Note ON: Time 148440, Note Name: D#4, Velocity: 64
Note OFF: Time 148560, Note Name: D#4
Note ON: Time 148560, Note Name: A#3, Velocity: 72
Note OFF: Time 148680, Note Name: A#3
Note ON: Time 148680, Note Name: G4, Velocity: 64
Note OFF: Time 148800, Note Name: G4
Note ON: Time 148800, Note Name: D#4, Velocity: 74
Note OFF: Time 148920, Note Name: D#4
Note ON: Time 148920, Note Name: A#4, Velocity: 64
Note OFF: Time 149040, Note Name: A#4
Note ON: Time 149040, Note Name: G4, Velocity: 79
Note OFF: Time 149160, Note Name: G4
Note ON: Time 149160, Note Name: D#5, Velocity: 64
Note OFF: Time 149280, Note Name: D#5
Note ON: Time 149280, Note Name: A#4, Velocity: 70
Note OFF: Time 149400, Note Name: A#4
Note ON: Time 149400, Note Name: G5, Velocity: 64
Note OFF: Time 149520, Note Name: G5
Note ON: Time 149520, Note Name: D#5, Velocity: 71
Note OFF: Time 149640, Note Name: D#5
Note ON: Time 149640, Note Name: A#5, Velocity: 64
Note OFF: Time 149760, Note Name: A#5
Note ON: Time 149760, Note Name: G5, Velocity: 79
Note OFF: Time 149880, Note Name: G5
Note ON: Time 149880, Note Name: D#6, Velocity: 64
Note OFF: Time 150000, Note Name: D#6
Note ON: Time 150000, Note Name: A#5, Velocity: 70
Note OFF: Time 150120, Note Name: A#5
Note ON: Time 150120, Note Name: G6, Velocity: 61
Note OFF: Time 150240, Note Name: G6
Note ON: Time 150240, Note Name: D#6, Velocity: 69
Note OFF: Time 150360, Note Name: D#6
Note ON: Time 150360, Note Name: A#6, Velocity: 62
Note OFF: Time 150480, Note Name: A#6
Note ON: Time 150480, Note Name: A6, Velocity: 73
Note OFF: Time 150600, Note Name: A6
Note ON: Time 150600, Note Name: A#6, Velocity: 66
Note OFF: Time 150720, Note Name: A#6
Note ON: Time 150720, Note Name: A6, Velocity: 70
Note OFF: Time 150840, Note Name: A6
Note ON: Time 150840, Note Name: A#6, Velocity: 64
Note OFF: Time 150960, Note Name: A#6
Note ON: Time 150960, Note Name: A6, Velocity: 69
Note OFF: Time 151080, Note Name: A6
Note ON: Time 151080, Note Name: A#6, Velocity: 64
Note OFF: Time 151200, Note Name: A#6
Note ON: Time 151200, Note Name: C7, Velocity: 77
Note OFF: Time 151320, Note Name: C7
Note ON: Time 151320, Note Name: A#6, Velocity: 77
Note OFF: Time 151440, Note Name: A#6
Note ON: Time 151440, Note Name: G#6, Velocity: 76
Note OFF: Time 151560, Note Name: G#6
Note ON: Time 151560, Note Name: G6, Velocity: 75
Note OFF: Time 151680, Note Name: G6
Note ON: Time 151680, Note Name: F6, Velocity: 74
Note OFF: Time 151800, Note Name: F6
Note ON: Time 151800, Note Name: D#6, Velocity: 74
Note OFF: Time 151920, Note Name: D#6
Note ON: Time 151920, Note Name: D6, Velocity: 72
Note OFF: Time 152040, Note Name: D6
Note ON: Time 152040, Note Name: C6, Velocity: 65
Note OFF: Time 152160, Note Name: C6
Note ON: Time 152160, Note Name: A#5, Velocity: 65
Note OFF: Time 152280, Note Name: A#5
Note ON: Time 152280, Note Name: G#5, Velocity: 65
Note OFF: Time 152400, Note Name: G#5
Note ON: Time 152400, Note Name: G5, Velocity: 65
Note OFF: Time 152520, Note Name: G5
Note ON: Time 152520, Note Name: F5, Velocity: 65
Note OFF: Time 152640, Note Name: F5
Note ON: Time 152640, Note Name: D#5, Velocity: 70
Note OFF: Time 152721, Note Name: D#5
Note ON: Time 152721, Note Name: D5, Velocity: 69
Note ON: Time 152800, Note Name: C5, Velocity: 68
Note OFF: Time 152801, Note Name: D5
Note OFF: Time 152880, Note Name: C5
Note ON: Time 152880, Note Name: A#4, Velocity: 68
Note OFF: Time 152960, Note Name: A#4
Note ON: Time 152960, Note Name: G#4, Velocity: 67
Note OFF: Time 153040, Note Name: G#4
Note ON: Time 153040, Note Name: G4, Velocity: 66
Note OFF: Time 153120, Note Name: G4
Note ON: Time 153120, Note Name: F4, Velocity: 64
Note OFF: Time 153200, Note Name: F4
Note ON: Time 153200, Note Name: D#4, Velocity: 59
Note OFF: Time 153280, Note Name: D#4
Note ON: Time 153280, Note Name: D4, Velocity: 55
Note OFF: Time 153360, Note Name: D4
Note ON: Time 153360, Note Name: C4, Velocity: 62
Note OFF: Time 153480, Note Name: C4
Note ON: Time 153480, Note Name: A#3, Velocity: 54
Note OFF: Time 153600, Note Name: A#3
Note ON: Time 153600, Note Name: A3, Velocity: 60
Note OFF: Time 153720, Note Name: A3
Note ON: Time 153720, Note Name: C4, Velocity: 54
Note OFF: Time 153840, Note Name: C4
Note ON: Time 153840, Note Name: D#4, Velocity: 64
Note OFF: Time 153960, Note Name: D#4
Note ON: Time 153960, Note Name: A3, Velocity: 54
Note OFF: Time 154080, Note Name: A3
Note ON: Time 154080, Note Name: A#3, Velocity: 95
Note OFF: Time 154320, Note Name: A#3
Note ON: Time 154800, Note Name: A#4, Velocity: 89
Note OFF: Time 155040, Note Name: A#4
Note ON: Time 155520, Note Name: C#5, Velocity: 96
Note OFF: Time 155760, Note Name: C#5
Note ON: Time 156240, Note Name: F#5, Velocity: 88
Note OFF: Time 156480, Note Name: F#5
Note ON: Time 156960, Note Name: C#5, Velocity: 94
Note OFF: Time 157200, Note Name: C#5
Note ON: Time 157680, Note Name: A#4, Velocity: 88
Note OFF: Time 157920, Note Name: A#4
Note ON: Time 158400, Note Name: F#4, Velocity: 93
Note OFF: Time 158640, Note Name: F#4
Note ON: Time 159120, Note Name: C#4, Velocity: 82
Note OFF: Time 159360, Note Name: C#4
Note ON: Time 159840, Note Name: A3, Velocity: 95
Note OFF: Time 160080, Note Name: A3
Note ON: Time 160560, Note Name: A4, Velocity: 89
Note OFF: Time 160800, Note Name: A4
Note ON: Time 161280, Note Name: C5, Velocity: 96
Note OFF: Time 161520, Note Name: C5
Note ON: Time 162000, Note Name: F5, Velocity: 88
Note OFF: Time 162240, Note Name: F5
Note ON: Time 162720, Note Name: C5, Velocity: 94
Note OFF: Time 162960, Note Name: C5
Note ON: Time 163440, Note Name: A4, Velocity: 88
Note OFF: Time 163680, Note Name: A4
Note ON: Time 164160, Note Name: F4, Velocity: 93
Note OFF: Time 164400, Note Name: F4
Note ON: Time 164880, Note Name: C4, Velocity: 82
Note OFF: Time 165120, Note Name: C4
Note ON: Time 165600, Note Name: C#5, Velocity: 55
Note OFF: Time 165720, Note Name: C#5
Note ON: Time 166020, Note Name: C6, Velocity: 51
Note OFF: Time 166080, Note Name: C6
Note ON: Time 166080, Note Name: A#5, Velocity: 57
Note OFF: Time 166200, Note Name: A#5
Note ON: Time 166200, Note Name: A5, Velocity: 52
Note OFF: Time 166320, Note Name: A5
Note ON: Time 166320, Note Name: A#5, Velocity: 57
Note OFF: Time 166440, Note Name: A#5
Note ON: Time 166740, Note Name: D#6, Velocity: 53
Note OFF: Time 166800, Note Name: D#6
Note ON: Time 166800, Note Name: C#6, Velocity: 59
Note OFF: Time 166920, Note Name: C#6
Note ON: Time 166920, Note Name: C6, Velocity: 52
Note OFF: Time 167040, Note Name: C6
Note ON: Time 167040, Note Name: C#6, Velocity: 63
Note OFF: Time 167160, Note Name: C#6
Note ON: Time 167460, Note Name: G#6, Velocity: 54
Note OFF: Time 167520, Note Name: G#6
Note ON: Time 167520, Note Name: F#6, Velocity: 60
Note OFF: Time 167640, Note Name: F#6
Note ON: Time 167640, Note Name: F6, Velocity: 55
Note OFF: Time 167760, Note Name: F6
Note ON: Time 167760, Note Name: F#6, Velocity: 61
Note OFF: Time 167880, Note Name: F#6
Note ON: Time 168180, Note Name: D#6, Velocity: 51
Note OFF: Time 168240, Note Name: D#6
Note ON: Time 168240, Note Name: C#6, Velocity: 57
Note OFF: Time 168360, Note Name: C#6
Note ON: Time 168360, Note Name: C6, Velocity: 50
Note OFF: Time 168480, Note Name: C6
Note ON: Time 168480, Note Name: C#6, Velocity: 60
Note OFF: Time 168600, Note Name: C#6
Note ON: Time 168900, Note Name: C6, Velocity: 51
Note OFF: Time 168960, Note Name: C6
Note ON: Time 168960, Note Name: A#5, Velocity: 56
Note OFF: Time 169080, Note Name: A#5
Note ON: Time 169080, Note Name: A5, Velocity: 51
Note OFF: Time 169200, Note Name: A5
Note ON: Time 169200, Note Name: A#5, Velocity: 56
Note OFF: Time 169320, Note Name: A#5
Note ON: Time 169620, Note Name: G#5, Velocity: 51
Note OFF: Time 169680, Note Name: G#5
Note ON: Time 169680, Note Name: F#5, Velocity: 57
Note OFF: Time 169800, Note Name: F#5
Note ON: Time 169800, Note Name: F5, Velocity: 50
Note OFF: Time 169920, Note Name: F5
Note ON: Time 169920, Note Name: F#5, Velocity: 60
Note OFF: Time 170040, Note Name: F#5
Note ON: Time 170340, Note Name: D#5, Velocity: 51
Note OFF: Time 170400, Note Name: D#5
Note ON: Time 170400, Note Name: C#5, Velocity: 56
Note OFF: Time 170520, Note Name: C#5
Note ON: Time 170520, Note Name: C5, Velocity: 51
Note OFF: Time 170640, Note Name: C5
Note ON: Time 170640, Note Name: C#5, Velocity: 56
Note OFF: Time 171120, Note Name: C#5
Note ON: Time 171360, Note Name: C5, Velocity: 55
Note OFF: Time 171480, Note Name: C5
Note ON: Time 171780, Note Name: A#5, Velocity: 51
Note OFF: Time 171840, Note Name: A#5
Note ON: Time 171840, Note Name: A5, Velocity: 57
Note OFF: Time 171960, Note Name: A5
Note ON: Time 171960, Note Name: G5, Velocity: 52
Note OFF: Time 172080, Note Name: G5
Note ON: Time 172080, Note Name: A5, Velocity: 57
Note OFF: Time 172200, Note Name: A5
Note ON: Time 172500, Note Name: D6, Velocity: 53
Note OFF: Time 172560, Note Name: D6
Note ON: Time 172560, Note Name: C6, Velocity: 59
Note OFF: Time 172680, Note Name: C6
Note ON: Time 172680, Note Name: B5, Velocity: 52
Note OFF: Time 172800, Note Name: B5
Note ON: Time 172800, Note Name: C6, Velocity: 63
Note OFF: Time 172920, Note Name: C6
Note ON: Time 173220, Note Name: F#6, Velocity: 55
Note OFF: Time 173280, Note Name: F#6
Note ON: Time 173280, Note Name: F6, Velocity: 60
Note OFF: Time 173400, Note Name: F6
Note ON: Time 173400, Note Name: E6, Velocity: 55
Note OFF: Time 173520, Note Name: E6
Note ON: Time 173520, Note Name: F6, Velocity: 61
Note OFF: Time 173640, Note Name: F6
Note ON: Time 173940, Note Name: C#6, Velocity: 51
Note OFF: Time 174000, Note Name: C#6
Note ON: Time 174000, Note Name: C6, Velocity: 57
Note OFF: Time 174120, Note Name: C6
Note ON: Time 174120, Note Name: B5, Velocity: 50
Note OFF: Time 174240, Note Name: B5
Note ON: Time 174240, Note Name: C6, Velocity: 60
Note OFF: Time 174360, Note Name: C6
Note ON: Time 174660, Note Name: A#5, Velocity: 51
Note OFF: Time 174720, Note Name: A#5
Note ON: Time 174720, Note Name: A5, Velocity: 56
Note OFF: Time 174840, Note Name: A5
Note ON: Time 174840, Note Name: G5, Velocity: 51
Note OFF: Time 174960, Note Name: G5
Note ON: Time 174960, Note Name: A5, Velocity: 56
Note OFF: Time 175080, Note Name: A5
Note ON: Time 175380, Note Name: F#5, Velocity: 51
Note OFF: Time 175440, Note Name: F#5
Note ON: Time 175440, Note Name: F5, Velocity: 57
Note OFF: Time 175560, Note Name: F5
Note ON: Time 175560, Note Name: E5, Velocity: 50
Note OFF: Time 175680, Note Name: E5
Note ON: Time 175680, Note Name: F5, Velocity: 60
Note OFF: Time 175800, Note Name: F5
Note ON: Time 176100, Note Name: C#5, Velocity: 51
Note OFF: Time 176160, Note Name: C#5
Note ON: Time 176160, Note Name: C5, Velocity: 56
Note OFF: Time 176280, Note Name: C5
Note ON: Time 176280, Note Name: B4, Velocity: 51
Note OFF: Time 176400, Note Name: B4
Note ON: Time 176400, Note Name: C5, Velocity: 56
Note OFF: Time 176640, Note Name: C5
Note ON: Time 176880, Note Name: C#5, Velocity: 61
Note OFF: Time 177120, Note Name: C#5
Note ON: Time 177120, Note Name: D5, Velocity: 56
Note ON: Time 177120, Note Name: F4, Velocity: 35
Note OFF: Time 177240, Note Name: F4
Note ON: Time 177240, Note Name: G4, Velocity: 31
Note OFF: Time 177360, Note Name: G4
Note ON: Time 177360, Note Name: F4, Velocity: 35
Note OFF: Time 177480, Note Name: F4
Note ON: Time 177480, Note Name: G4, Velocity: 31
Note OFF: Time 177600, Note Name: G4
Note ON: Time 177600, Note Name: F4, Velocity: 34
Note OFF: Time 177720, Note Name: F4
Note ON: Time 177720, Note Name: G4, Velocity: 31
Note OFF: Time 177840, Note Name: G4
Note OFF: Time 177840, Note Name: D5
Note ON: Time 177840, Note Name: F4, Velocity: 36
Note ON: Time 177840, Note Name: A#4, Velocity: 55
Note OFF: Time 177960, Note Name: F4
Note ON: Time 177960, Note Name: G4, Velocity: 32
Note OFF: Time 178080, Note Name: G4
Note ON: Time 178080, Note Name: F4, Velocity: 36
Note OFF: Time 178200, Note Name: F4
Note ON: Time 178200, Note Name: G4, Velocity: 31
Note OFF: Time 178320, Note Name: G4
Note ON: Time 178320, Note Name: F4, Velocity: 37
Note OFF: Time 178440, Note Name: F4
Note ON: Time 178440, Note Name: G4, Velocity: 31
Note OFF: Time 178560, Note Name: G4
Note OFF: Time 178560, Note Name: A#4
Note ON: Time 178560, Note Name: F4, Velocity: 37
Note ON: Time 178560, Note Name: A4, Velocity: 59
Note OFF: Time 178680, Note Name: F4
Note ON: Time 178680, Note Name: G4, Velocity: 33
Note OFF: Time 178800, Note Name: G4
Note ON: Time 178800, Note Name: F4, Velocity: 37
Note OFF: Time 178920, Note Name: F4
Note ON: Time 178920, Note Name: G4, Velocity: 33
Note OFF: Time 179040, Note Name: G4
Note ON: Time 179040, Note Name: F4, Velocity: 37
Note OFF: Time 179160, Note Name: F4
Note ON: Time 179160, Note Name: G4, Velocity: 34
Note OFF: Time 179280, Note Name: G4
Note OFF: Time 179280, Note Name: A4
Note ON: Time 179280, Note Name: F4, Velocity: 38
Note ON: Time 179280, Note Name: D#5, Velocity: 59
Note OFF: Time 179400, Note Name: F4
Note ON: Time 179400, Note Name: G4, Velocity: 34
Note OFF: Time 179520, Note Name: G4
Note ON: Time 179520, Note Name: F4, Velocity: 39
Note OFF: Time 179640, Note Name: F4
Note ON: Time 179640, Note Name: G4, Velocity: 33
Note OFF: Time 179760, Note Name: G4
Note ON: Time 179760, Note Name: F4, Velocity: 39
Note OFF: Time 179880, Note Name: F4
Note ON: Time 179880, Note Name: G4, Velocity: 34
Note OFF: Time 180000, Note Name: G4
Note OFF: Time 180000, Note Name: D#5
Note ON: Time 180000, Note Name: F4, Velocity: 40
Note ON: Time 180000, Note Name: D5, Velocity: 64
Note OFF: Time 180120, Note Name: F4
Note ON: Time 180120, Note Name: G4, Velocity: 35
Note OFF: Time 180240, Note Name: G4
Note ON: Time 180240, Note Name: F4, Velocity: 39
Note OFF: Time 180360, Note Name: F4
Note ON: Time 180360, Note Name: G4, Velocity: 35
Note OFF: Time 180480, Note Name: G4
Note ON: Time 180480, Note Name: F4, Velocity: 38
Note OFF: Time 180600, Note Name: F4
Note ON: Time 180600, Note Name: G4, Velocity: 34
Note OFF: Time 180720, Note Name: G4
Note OFF: Time 180720, Note Name: D5
Note ON: Time 180720, Note Name: F4, Velocity: 39
Note ON: Time 180720, Note Name: A#4, Velocity: 60
Note OFF: Time 180840, Note Name: F4
Note ON: Time 180840, Note Name: G4, Velocity: 34
Note OFF: Time 180960, Note Name: G4
Note ON: Time 180960, Note Name: F4, Velocity: 38
Note OFF: Time 181080, Note Name: F4
Note ON: Time 181080, Note Name: G4, Velocity: 33
Note OFF: Time 181200, Note Name: G4
Note ON: Time 181200, Note Name: F4, Velocity: 38
Note OFF: Time 181320, Note Name: F4
Note ON: Time 181320, Note Name: G4, Velocity: 32
Note OFF: Time 181440, Note Name: G4
Note OFF: Time 181440, Note Name: A#4
Note ON: Time 181440, Note Name: F4, Velocity: 37
Note ON: Time 181440, Note Name: A4, Velocity: 60
Note OFF: Time 181560, Note Name: F4
Note ON: Time 181560, Note Name: G4, Velocity: 33
Note OFF: Time 181680, Note Name: G4
Note ON: Time 181680, Note Name: F4, Velocity: 37
Note OFF: Time 181800, Note Name: F4
Note ON: Time 181800, Note Name: G4, Velocity: 32
Note OFF: Time 181920, Note Name: G4
Note ON: Time 181920, Note Name: F4, Velocity: 35
Note OFF: Time 182040, Note Name: F4
Note ON: Time 182040, Note Name: G4, Velocity: 32
Note OFF: Time 182160, Note Name: G4
Note OFF: Time 182160, Note Name: A4
Note ON: Time 182160, Note Name: F4, Velocity: 36
Note ON: Time 182160, Note Name: D#5, Velocity: 56
Note OFF: Time 182280, Note Name: F4
Note ON: Time 182280, Note Name: G4, Velocity: 32
Note OFF: Time 182400, Note Name: G4
Note ON: Time 182400, Note Name: F4, Velocity: 36
Note OFF: Time 182520, Note Name: F4
Note ON: Time 182520, Note Name: G4, Velocity: 30
Note OFF: Time 182640, Note Name: G4
Note ON: Time 182640, Note Name: F4, Velocity: 35
Note OFF: Time 182760, Note Name: F4
Note ON: Time 182760, Note Name: G4, Velocity: 30
Note OFF: Time 182880, Note Name: G4
Note OFF: Time 182880, Note Name: D#5
Note ON: Time 182880, Note Name: D5, Velocity: 51
Note OFF: Time 183000, Note Name: D5
Note ON: Time 183000, Note Name: F5, Velocity: 45
Note OFF: Time 183120, Note Name: F5
Note ON: Time 183120, Note Name: G5, Velocity: 48
Note OFF: Time 183200, Note Name: G5
Note ON: Time 183200, Note Name: A5, Velocity: 50
Note OFF: Time 183280, Note Name: A5
Note ON: Time 183280, Note Name: A#5, Velocity: 52
Note OFF: Time 183360, Note Name: A#5
Note ON: Time 183360, Note Name: C6, Velocity: 54
Note OFF: Time 183440, Note Name: C6
Note ON: Time 183440, Note Name: D6, Velocity: 56
Note OFF: Time 183520, Note Name: D6
Note ON: Time 183520, Note Name: D#6, Velocity: 59
Note OFF: Time 183600, Note Name: D#6
Note ON: Time 183600, Note Name: F6, Velocity: 61
Note OFF: Time 183720, Note Name: F6
Note ON: Time 183720, Note Name: D#6, Velocity: 60
Note OFF: Time 183840, Note Name: D#6
Note ON: Time 183840, Note Name: D6, Velocity: 58
Note OFF: Time 183960, Note Name: D6
Note ON: Time 183960, Note Name: C6, Velocity: 57
Note OFF: Time 184080, Note Name: C6
Note ON: Time 184080, Note Name: A#5, Velocity: 55
Note OFF: Time 184200, Note Name: A#5
Note ON: Time 184200, Note Name: A5, Velocity: 54
Note OFF: Time 184320, Note Name: A5
Note ON: Time 184320, Note Name: G5, Velocity: 51
Note OFF: Time 184440, Note Name: G5
Note ON: Time 184440, Note Name: A5, Velocity: 45
Note OFF: Time 184560, Note Name: A5
Note ON: Time 184560, Note Name: A#5, Velocity: 48
Note OFF: Time 184680, Note Name: A#5
Note ON: Time 184680, Note Name: C6, Velocity: 50
Note OFF: Time 184800, Note Name: C6
Note ON: Time 184800, Note Name: D6, Velocity: 54
Note OFF: Time 184880, Note Name: D6
Note ON: Time 184880, Note Name: D#6, Velocity: 56
Note OFF: Time 184960, Note Name: D#6
Note ON: Time 184960, Note Name: F6, Velocity: 59
Note OFF: Time 185040, Note Name: F6
Note ON: Time 185040, Note Name: G6, Velocity: 61
Note OFF: Time 185160, Note Name: G6
Note ON: Time 185160, Note Name: F6, Velocity: 60
Note OFF: Time 185280, Note Name: F6
Note ON: Time 185280, Note Name: D#6, Velocity: 58
Note OFF: Time 185360, Note Name: D#6
Note ON: Time 185360, Note Name: D6, Velocity: 57
Note OFF: Time 185440, Note Name: D6
Note ON: Time 185440, Note Name: C6, Velocity: 56
Note OFF: Time 185520, Note Name: C6
Note ON: Time 185520, Note Name: A#5, Velocity: 55
Note OFF: Time 185600, Note Name: A#5
Note ON: Time 185600, Note Name: A5, Velocity: 54
Note OFF: Time 185680, Note Name: A5
Note ON: Time 185680, Note Name: G5, Velocity: 53
Note OFF: Time 185760, Note Name: G5
Note ON: Time 185760, Note Name: F5, Velocity: 57
Note OFF: Time 185880, Note Name: F5
Note ON: Time 185880, Note Name: D6, Velocity: 49
Note OFF: Time 186000, Note Name: D6
Note ON: Time 186000, Note Name: A#5, Velocity: 59
Note OFF: Time 186120, Note Name: A#5
Note ON: Time 186120, Note Name: F6, Velocity: 55
Note OFF: Time 186240, Note Name: F6
Note ON: Time 186240, Note Name: D6, Velocity: 62
Note OFF: Time 186360, Note Name: D6
Note ON: Time 186360, Note Name: A#6, Velocity: 57
Note OFF: Time 186480, Note Name: A#6
Note ON: Time 186480, Note Name: F6, Velocity: 62
Note OFF: Time 186560, Note Name: F6
Note ON: Time 186560, Note Name: D7, Velocity: 57
Note OFF: Time 186640, Note Name: D7
Note ON: Time 186640, Note Name: A#6, Velocity: 55
Note OFF: Time 186720, Note Name: A#6
Note ON: Time 186720, Note Name: F7, Velocity: 61
Note OFF: Time 186800, Note Name: F7
Note ON: Time 186800, Note Name: D7, Velocity: 53
Note OFF: Time 186880, Note Name: D7
Note ON: Time 186880, Note Name: A#6, Velocity: 54
Note OFF: Time 186960, Note Name: A#6
Note ON: Time 186960, Note Name: F6, Velocity: 59
Note OFF: Time 187040, Note Name: F6
Note ON: Time 187040, Note Name: D6, Velocity: 53
Note OFF: Time 187120, Note Name: D6
Note ON: Time 187120, Note Name: A#5, Velocity: 53
Note OFF: Time 187200, Note Name: A#5
Note ON: Time 187200, Note Name: F5, Velocity: 59
Note OFF: Time 187680, Note Name: F5
Note ON: Time 187920, Note Name: C6, Velocity: 59
Note OFF: Time 188000, Note Name: C6
Note ON: Time 188000, Note Name: D6, Velocity: 52
Note OFF: Time 188080, Note Name: D6
Note ON: Time 188080, Note Name: C6, Velocity: 59
Note OFF: Time 188160, Note Name: C6
Note ON: Time 188160, Note Name: D6, Velocity: 54
Note OFF: Time 188240, Note Name: D6
Note ON: Time 188240, Note Name: C6, Velocity: 59
Note OFF: Time 188320, Note Name: C6
Note ON: Time 188320, Note Name: D6, Velocity: 53
Note OFF: Time 188400, Note Name: D6
Note ON: Time 188400, Note Name: C6, Velocity: 59
Note OFF: Time 188480, Note Name: C6
Note ON: Time 188480, Note Name: D6, Velocity: 53
Note OFF: Time 188560, Note Name: D6
Note ON: Time 188560, Note Name: C6, Velocity: 56
Note OFF: Time 188640, Note Name: C6
Note ON: Time 188640, Note Name: D6, Velocity: 61
Note ON: Time 188640, Note Name: F5, Velocity: 41
Note OFF: Time 188760, Note Name: F5
Note ON: Time 188760, Note Name: G5, Velocity: 31
Note OFF: Time 188880, Note Name: G5
Note ON: Time 188880, Note Name: F5, Velocity: 35
Note OFF: Time 189000, Note Name: F5
Note ON: Time 189000, Note Name: G5, Velocity: 31
Note OFF: Time 189120, Note Name: G5
Note ON: Time 189120, Note Name: F5, Velocity: 34
Note OFF: Time 189240, Note Name: F5
Note ON: Time 189240, Note Name: G5, Velocity: 31
Note OFF: Time 189360, Note Name: G5
Note OFF: Time 189360, Note Name: D6
Note ON: Time 189360, Note Name: F5, Velocity: 36
Note ON: Time 189360, Note Name: A#5, Velocity: 55
Note OFF: Time 189480, Note Name: F5
Note ON: Time 189480, Note Name: G5, Velocity: 32
Note OFF: Time 189600, Note Name: G5
Note ON: Time 189600, Note Name: F5, Velocity: 36
Note OFF: Time 189720, Note Name: F5
Note ON: Time 189720, Note Name: G5, Velocity: 31
Note OFF: Time 189840, Note Name: G5
Note ON: Time 189840, Note Name: F5, Velocity: 37
Note OFF: Time 189960, Note Name: F5
Note ON: Time 189960, Note Name: G5, Velocity: 31
Note OFF: Time 190080, Note Name: G5
Note OFF: Time 190080, Note Name: A#5
Note ON: Time 190080, Note Name: F5, Velocity: 37
Note ON: Time 190080, Note Name: A5, Velocity: 59
Note OFF: Time 190200, Note Name: F5
Note ON: Time 190200, Note Name: G5, Velocity: 33
Note OFF: Time 190320, Note Name: G5
Note ON: Time 190320, Note Name: F5, Velocity: 37
Note OFF: Time 190440, Note Name: F5
Note ON: Time 190440, Note Name: G5, Velocity: 33
Note OFF: Time 190560, Note Name: G5
Note ON: Time 190560, Note Name: F5, Velocity: 37
Note OFF: Time 190680, Note Name: F5
Note ON: Time 190680, Note Name: G5, Velocity: 34
Note OFF: Time 190800, Note Name: G5
Note OFF: Time 190800, Note Name: A5
Note ON: Time 190800, Note Name: F5, Velocity: 38
Note ON: Time 190800, Note Name: D#6, Velocity: 59
Note OFF: Time 190920, Note Name: F5
Note ON: Time 190920, Note Name: G5, Velocity: 34
Note OFF: Time 191040, Note Name: G5
Note ON: Time 191040, Note Name: F5, Velocity: 39
Note OFF: Time 191160, Note Name: F5
Note ON: Time 191160, Note Name: G5, Velocity: 33
Note OFF: Time 191280, Note Name: G5
Note ON: Time 191280, Note Name: F5, Velocity: 39
Note OFF: Time 191400, Note Name: F5
Note ON: Time 191400, Note Name: G5, Velocity: 34
Note OFF: Time 191520, Note Name: G5
Note OFF: Time 191520, Note Name: D#6
Note ON: Time 191520, Note Name: F5, Velocity: 40
Note ON: Time 191520, Note Name: D6, Velocity: 64
Note OFF: Time 191640, Note Name: F5
Note ON: Time 191640, Note Name: G5, Velocity: 35
Note OFF: Time 191760, Note Name: G5
Note ON: Time 191760, Note Name: F5, Velocity: 39
Note OFF: Time 191880, Note Name: F5
Note ON: Time 191880, Note Name: G5, Velocity: 35
Note OFF: Time 192000, Note Name: G5
Note ON: Time 192000, Note Name: F5, Velocity: 38
Note OFF: Time 192120, Note Name: F5
Note ON: Time 192120, Note Name: G5, Velocity: 34
Note OFF: Time 192240, Note Name: G5
Note OFF: Time 192240, Note Name: D6
Note ON: Time 192240, Note Name: A#5, Velocity: 60
Note ON: Time 192240, Note Name: F5, Velocity: 39
Note OFF: Time 192360, Note Name: F5
Note ON: Time 192360, Note Name: G5, Velocity: 34
Note OFF: Time 192480, Note Name: G5
Note ON: Time 192480, Note Name: F5, Velocity: 38
Note OFF: Time 192600, Note Name: F5
Note ON: Time 192600, Note Name: G5, Velocity: 33
Note OFF: Time 192720, Note Name: G5
Note ON: Time 192720, Note Name: F5, Velocity: 38
Note OFF: Time 192840, Note Name: F5
Note ON: Time 192840, Note Name: G5, Velocity: 32
Note OFF: Time 192960, Note Name: G5
Note OFF: Time 192960, Note Name: A#5
Note ON: Time 192960, Note Name: F5, Velocity: 37
Note ON: Time 192960, Note Name: A5, Velocity: 60
Note OFF: Time 193080, Note Name: F5
Note ON: Time 193080, Note Name: G5, Velocity: 33
Note OFF: Time 193200, Note Name: G5
Note ON: Time 193200, Note Name: F5, Velocity: 37
Note OFF: Time 193320, Note Name: F5
Note ON: Time 193320, Note Name: G5, Velocity: 32
Note OFF: Time 193440, Note Name: G5
Note ON: Time 193440, Note Name: F5, Velocity: 35
Note OFF: Time 193560, Note Name: F5
Note ON: Time 193560, Note Name: G5, Velocity: 32
Note OFF: Time 193680, Note Name: G5
Note OFF: Time 193680, Note Name: A5
Note ON: Time 193680, Note Name: D#6, Velocity: 56
Note ON: Time 193680, Note Name: F5, Velocity: 36
Note OFF: Time 193800, Note Name: F5
Note ON: Time 193800, Note Name: G5, Velocity: 32
Note OFF: Time 193920, Note Name: G5
Note ON: Time 193920, Note Name: F5, Velocity: 36
Note OFF: Time 194040, Note Name: F5
Note ON: Time 194040, Note Name: G5, Velocity: 30
Note OFF: Time 194160, Note Name: G5
Note ON: Time 194160, Note Name: F5, Velocity: 35
Note OFF: Time 194280, Note Name: F5
Note ON: Time 194280, Note Name: G5, Velocity: 30
Note OFF: Time 194400, Note Name: G5
Note OFF: Time 194400, Note Name: D#6
Note ON: Time 194640, Note Name: D6, Velocity: 45
Note ON: Time 194640, Note Name: A#5, Velocity: 45
Note OFF: Time 194760, Note Name: A#5
Note OFF: Time 194760, Note Name: D6
Note ON: Time 194880, Note Name: D6, Velocity: 45
Note ON: Time 194880, Note Name: A#5, Velocity: 45
Note OFF: Time 195000, Note Name: A#5
Note OFF: Time 195000, Note Name: D6
Note ON: Time 195120, Note Name: D6, Velocity: 48
Note ON: Time 195120, Note Name: A#5, Velocity: 48
Note OFF: Time 195240, Note Name: A#5
Note OFF: Time 195240, Note Name: D6
Note ON: Time 195360, Note Name: D6, Velocity: 42
Note ON: Time 195360, Note Name: A#5, Velocity: 42
Note OFF: Time 195480, Note Name: A#5
Note OFF: Time 195480, Note Name: D6
Note ON: Time 195600, Note Name: D6, Velocity: 42
Note ON: Time 195600, Note Name: A#5, Velocity: 42
Note OFF: Time 195720, Note Name: A#5
Note OFF: Time 195720, Note Name: D6
Note ON: Time 196080, Note Name: C6, Velocity: 45
Note ON: Time 196080, Note Name: A#5, Velocity: 45
Note OFF: Time 196200, Note Name: A#5
Note OFF: Time 196200, Note Name: C6
Note ON: Time 196320, Note Name: A#5, Velocity: 45
Note ON: Time 196320, Note Name: C6, Velocity: 45
Note OFF: Time 196440, Note Name: C6
Note OFF: Time 196440, Note Name: A#5
Note ON: Time 196560, Note Name: A#5, Velocity: 49
Note ON: Time 196560, Note Name: C6, Velocity: 49
Note OFF: Time 196680, Note Name: C6
Note OFF: Time 196680, Note Name: A#5
Note ON: Time 196800, Note Name: C6, Velocity: 44
Note ON: Time 196800, Note Name: A#5, Velocity: 44
Note OFF: Time 196920, Note Name: A#5
Note OFF: Time 196920, Note Name: C6
Note ON: Time 197040, Note Name: C6, Velocity: 46
Note ON: Time 197040, Note Name: A#5, Velocity: 46
Note OFF: Time 197160, Note Name: A#5
Note OFF: Time 197160, Note Name: C6
Note ON: Time 197520, Note Name: D6, Velocity: 48
Note ON: Time 197520, Note Name: A#5, Velocity: 48
Note OFF: Time 197640, Note Name: A#5
Note OFF: Time 197640, Note Name: D6
Note ON: Time 197760, Note Name: D6, Velocity: 49
Note ON: Time 197760, Note Name: A#5, Velocity: 49
Note OFF: Time 197880, Note Name: A#5
Note OFF: Time 197880, Note Name: D6
Note ON: Time 198000, Note Name: D6, Velocity: 52
Note ON: Time 198000, Note Name: A#5, Velocity: 52
Note OFF: Time 198120, Note Name: A#5
Note OFF: Time 198120, Note Name: D6
Note ON: Time 198240, Note Name: D6, Velocity: 47
Note ON: Time 198240, Note Name: A#5, Velocity: 47
Note OFF: Time 198360, Note Name: A#5
Note OFF: Time 198360, Note Name: D6
Note ON: Time 198480, Note Name: F6, Velocity: 48
Note ON: Time 198480, Note Name: A#5, Velocity: 48
Note ON: Time 198480, Note Name: D6, Velocity: 48
Note OFF: Time 198600, Note Name: D6
Note OFF: Time 198600, Note Name: A#5
Note OFF: Time 198600, Note Name: F6
Note ON: Time 198720, Note Name: D#6, Velocity: 59
Note ON: Time 198720, Note Name: A5, Velocity: 59
Note ON: Time 198720, Note Name: F6, Velocity: 59
Note OFF: Time 198840, Note Name: F6
Note OFF: Time 198840, Note Name: A5
Note OFF: Time 198840, Note Name: D#6
Note ON: Time 198960, Note Name: F6, Velocity: 46
Note ON: Time 198960, Note Name: A5, Velocity: 46
Note ON: Time 198960, Note Name: D#6, Velocity: 46
Note OFF: Time 199080, Note Name: D#6
Note OFF: Time 199080, Note Name: A5
Note OFF: Time 199080, Note Name: F6
Note ON: Time 199200, Note Name: D#6, Velocity: 45
Note ON: Time 199200, Note Name: F6, Velocity: 45
Note ON: Time 199200, Note Name: A5, Velocity: 45
Note OFF: Time 199320, Note Name: A5
Note OFF: Time 199320, Note Name: F6
Note OFF: Time 199320, Note Name: D#6
Note ON: Time 199440, Note Name: F6, Velocity: 53
Note ON: Time 199440, Note Name: A5, Velocity: 53
Note ON: Time 199440, Note Name: D#6, Velocity: 53
Note OFF: Time 199560, Note Name: D#6
Note OFF: Time 199560, Note Name: A5
Note OFF: Time 199560, Note Name: F6
Note ON: Time 199680, Note Name: D#6, Velocity: 45
Note ON: Time 199680, Note Name: F6, Velocity: 45
Note ON: Time 199680, Note Name: A5, Velocity: 45
Note OFF: Time 199800, Note Name: A5
Note OFF: Time 199800, Note Name: F6
Note OFF: Time 199800, Note Name: D#6
Note ON: Time 199920, Note Name: F6, Velocity: 44
Note ON: Time 199920, Note Name: A5, Velocity: 44
Note ON: Time 199920, Note Name: D#6, Velocity: 44
Note OFF: Time 200040, Note Name: D#6
Note OFF: Time 200040, Note Name: A5
Note OFF: Time 200040, Note Name: F6
Note ON: Time 200640, Note Name: G#5, Velocity: 70
Note ON: Time 200640, Note Name: G#6, Velocity: 83
Note OFF: Time 201360, Note Name: G#6
Note OFF: Time 201360, Note Name: G#5
Note ON: Time 201360, Note Name: G5, Velocity: 66
Note ON: Time 201360, Note Name: G6, Velocity: 79
Note OFF: Time 201600, Note Name: G6
Note OFF: Time 201600, Note Name: G5
Note ON: Time 202080, Note Name: F#5, Velocity: 69
Note ON: Time 202080, Note Name: F#6, Velocity: 81
Note OFF: Time 202800, Note Name: F#6
Note OFF: Time 202800, Note Name: F#5
Note ON: Time 202800, Note Name: F5, Velocity: 67
Note ON: Time 202800, Note Name: F6, Velocity: 80
Note OFF: Time 203040, Note Name: F6
Note OFF: Time 203040, Note Name: F5
Note ON: Time 203520, Note Name: G#4, Velocity: 73
Note ON: Time 203520, Note Name: G#5, Velocity: 86
Note OFF: Time 204240, Note Name: G#5
Note OFF: Time 204240, Note Name: G#4
Note ON: Time 204240, Note Name: G4, Velocity: 71
Note ON: Time 204240, Note Name: G5, Velocity: 86
Note OFF: Time 204480, Note Name: G5
Note OFF: Time 204480, Note Name: G4
Note ON: Time 204960, Note Name: F#4, Velocity: 78
Note ON: Time 204960, Note Name: F#5, Velocity: 92
Note OFF: Time 205680, Note Name: F#5
Note OFF: Time 205680, Note Name: F#4
Note ON: Time 205680, Note Name: F4, Velocity: 75
Note ON: Time 205680, Note Name: F5, Velocity: 90
Note OFF: Time 205920, Note Name: F5
Note OFF: Time 205920, Note Name: F4
Note ON: Time 206160, Note Name: A#4, Velocity: 60
Note ON: Time 206160, Note Name: F5, Velocity: 71
Note ON: Time 206160, Note Name: F4, Velocity: 60
Note OFF: Time 206280, Note Name: F4
Note OFF: Time 206280, Note Name: F5
Note OFF: Time 206280, Note Name: A#4
Note ON: Time 206400, Note Name: F4, Velocity: 57
Note ON: Time 206400, Note Name: F5, Velocity: 68
Note ON: Time 206400, Note Name: A#4, Velocity: 57
Note OFF: Time 206520, Note Name: A#4
Note OFF: Time 206520, Note Name: F5
Note OFF: Time 206520, Note Name: F4
Note ON: Time 206880, Note Name: A#4, Velocity: 58
Note ON: Time 206880, Note Name: D#5, Velocity: 69
Note ON: Time 206880, Note Name: G4, Velocity: 58
Note OFF: Time 207000, Note Name: G4
Note OFF: Time 207000, Note Name: D#5
Note OFF: Time 207000, Note Name: A#4
Note ON: Time 207120, Note Name: D5, Velocity: 65
Note ON: Time 207120, Note Name: G4, Velocity: 55
Note ON: Time 207120, Note Name: A#4, Velocity: 55
Note OFF: Time 207240, Note Name: A#4
Note OFF: Time 207240, Note Name: G4
Note OFF: Time 207240, Note Name: D5
Note ON: Time 207600, Note Name: D#4, Velocity: 60
Note ON: Time 207600, Note Name: D5, Velocity: 71
Note ON: Time 207600, Note Name: G4, Velocity: 60
Note OFF: Time 207720, Note Name: G4
Note OFF: Time 207720, Note Name: D5
Note OFF: Time 207720, Note Name: D#4
Note ON: Time 207840, Note Name: C5, Velocity: 68
Note ON: Time 207840, Note Name: G4, Velocity: 57
Note ON: Time 207840, Note Name: D#4, Velocity: 57
Note OFF: Time 207960, Note Name: D#4
Note OFF: Time 207960, Note Name: G4
Note OFF: Time 207960, Note Name: C5
Note ON: Time 208320, Note Name: A#4, Velocity: 69
Note ON: Time 208320, Note Name: D#4, Velocity: 58
Note ON: Time 208320, Note Name: C4, Velocity: 58
Note OFF: Time 208440, Note Name: C4
Note OFF: Time 208440, Note Name: D#4
Note OFF: Time 208440, Note Name: A#4
Note ON: Time 208560, Note Name: A4, Velocity: 65
Note ON: Time 208560, Note Name: D#4, Velocity: 55
Note ON: Time 208560, Note Name: C4, Velocity: 55
Note OFF: Time 208680, Note Name: C4
Note OFF: Time 208680, Note Name: D#4
Note OFF: Time 208680, Note Name: A4
Note ON: Time 209040, Note Name: A#4, Velocity: 71
Note ON: Time 209040, Note Name: F4, Velocity: 60
Note ON: Time 209040, Note Name: A#3, Velocity: 60
Note OFF: Time 209160, Note Name: A#3
Note OFF: Time 209160, Note Name: F4
Note OFF: Time 209160, Note Name: A#4
Note ON: Time 209280, Note Name: F4, Velocity: 69
Note ON: Time 209280, Note Name: D4, Velocity: 58
Note ON: Time 209280, Note Name: A#3, Velocity: 58
Note OFF: Time 209400, Note Name: A#3
Note OFF: Time 209400, Note Name: D4
Note OFF: Time 209400, Note Name: F4
Note ON: Time 209760, Note Name: G3, Velocity: 74
Note ON: Time 209760, Note Name: D#4, Velocity: 72
Note ON: Time 209760, Note Name: A#3, Velocity: 60
Note OFF: Time 209880, Note Name: A#3
Note OFF: Time 209880, Note Name: D#4
Note OFF: Time 209880, Note Name: G3
Note ON: Time 210000, Note Name: D4, Velocity: 68
Note ON: Time 210000, Note Name: A#3, Velocity: 58
Note ON: Time 210000, Note Name: G3, Velocity: 58
Note OFF: Time 210120, Note Name: G3
Note OFF: Time 210120, Note Name: A#3
Note OFF: Time 210120, Note Name: D4
Note ON: Time 210480, Note Name: D4, Velocity: 76
Note ON: Time 210480, Note Name: G3, Velocity: 64
Note ON: Time 210480, Note Name: D#3, Velocity: 64
Note OFF: Time 210600, Note Name: D#3
Note OFF: Time 210600, Note Name: G3
Note OFF: Time 210600, Note Name: D4
Note ON: Time 210720, Note Name: C4, Velocity: 74
Note ON: Time 210720, Note Name: G3, Velocity: 62
Note ON: Time 210720, Note Name: D#3, Velocity: 62
Note OFF: Time 210840, Note Name: D#3
Note OFF: Time 210840, Note Name: G3
Note OFF: Time 210840, Note Name: C4
Note ON: Time 211200, Note Name: C3, Velocity: 79
Note ON: Time 211200, Note Name: D#3, Velocity: 64
Note ON: Time 211200, Note Name: A#3, Velocity: 77
Note OFF: Time 211320, Note Name: A#3
Note OFF: Time 211320, Note Name: D#3
Note OFF: Time 211320, Note Name: C3
Note ON: Time 211440, Note Name: D#3, Velocity: 62
Note ON: Time 211440, Note Name: A3, Velocity: 73
Note ON: Time 211440, Note Name: C3, Velocity: 62
Note OFF: Time 211560, Note Name: C3
Note OFF: Time 211560, Note Name: A3
Note OFF: Time 211560, Note Name: D#3
Note ON: Time 211680, Note Name: A#2, Velocity: 62
Note OFF: Time 211800, Note Name: A#2
Note ON: Time 211800, Note Name: C3, Velocity: 63
Note OFF: Time 211920, Note Name: C3
Note ON: Time 211920, Note Name: D3, Velocity: 65
Note OFF: Time 212040, Note Name: D3
Note ON: Time 212040, Note Name: D#3, Velocity: 66
Note OFF: Time 212160, Note Name: D#3
Note ON: Time 212160, Note Name: F3, Velocity: 67
Note OFF: Time 212240, Note Name: F3
Note ON: Time 212240, Note Name: G3, Velocity: 68
Note OFF: Time 212320, Note Name: G3
Note ON: Time 212320, Note Name: A3, Velocity: 68
Note OFF: Time 212400, Note Name: A3
Note ON: Time 212400, Note Name: A#3, Velocity: 69
Note OFF: Time 212480, Note Name: A#3
Note ON: Time 212480, Note Name: C4, Velocity: 70
Note OFF: Time 212560, Note Name: C4
Note ON: Time 212560, Note Name: D4, Velocity: 71
Note OFF: Time 212640, Note Name: D4
Note ON: Time 212640, Note Name: D#4, Velocity: 72
Note OFF: Time 212720, Note Name: D#4
Note ON: Time 212720, Note Name: F4, Velocity: 72
Note OFF: Time 212800, Note Name: F4
Note ON: Time 212800, Note Name: G4, Velocity: 73
Note OFF: Time 212880, Note Name: G4
Note ON: Time 212880, Note Name: A4, Velocity: 85
Note OFF: Time 213000, Note Name: A4
Note ON: Time 213000, Note Name: A3, Velocity: 67
Note OFF: Time 213120, Note Name: A3
Note ON: Time 213120, Note Name: A#3, Velocity: 62
Note OFF: Time 213240, Note Name: A#3
Note ON: Time 213240, Note Name: C4, Velocity: 63
Note OFF: Time 213360, Note Name: C4
Note ON: Time 213360, Note Name: D4, Velocity: 65
Note OFF: Time 213480, Note Name: D4
Note ON: Time 213480, Note Name: D#4, Velocity: 66
Note OFF: Time 213600, Note Name: D#4
Note ON: Time 213600, Note Name: F4, Velocity: 67
Note OFF: Time 213680, Note Name: F4
Note ON: Time 213680, Note Name: G4, Velocity: 68
Note OFF: Time 213760, Note Name: G4
Note ON: Time 213760, Note Name: A4, Velocity: 68
Note OFF: Time 213840, Note Name: A4
Note ON: Time 213840, Note Name: A#4, Velocity: 69
Note OFF: Time 213920, Note Name: A#4
Note ON: Time 213920, Note Name: C5, Velocity: 70
Note OFF: Time 214000, Note Name: C5
Note ON: Time 214000, Note Name: D5, Velocity: 71
Note OFF: Time 214080, Note Name: D5
Note ON: Time 214080, Note Name: D#5, Velocity: 72
Note OFF: Time 214160, Note Name: D#5
Note ON: Time 214160, Note Name: F5, Velocity: 72
Note OFF: Time 214240, Note Name: F5
Note ON: Time 214240, Note Name: G5, Velocity: 73
Note OFF: Time 214320, Note Name: G5
Note ON: Time 214320, Note Name: A5, Velocity: 85
Note OFF: Time 214440, Note Name: A5
Note ON: Time 214440, Note Name: A4, Velocity: 67
Note OFF: Time 214560, Note Name: A4
Note ON: Time 214560, Note Name: A#4, Velocity: 62
Note OFF: Time 214680, Note Name: A#4
Note ON: Time 214680, Note Name: C5, Velocity: 63
Note OFF: Time 214800, Note Name: C5
Note ON: Time 214800, Note Name: D5, Velocity: 65
Note OFF: Time 214920, Note Name: D5
Note ON: Time 214920, Note Name: D#5, Velocity: 66
Note OFF: Time 215040, Note Name: D#5
Note ON: Time 215040, Note Name: F5, Velocity: 68
Note OFF: Time 215120, Note Name: F5
Note ON: Time 215120, Note Name: G5, Velocity: 70
Note OFF: Time 215200, Note Name: G5
Note ON: Time 215200, Note Name: A5, Velocity: 72
Note OFF: Time 215280, Note Name: A5
Note ON: Time 215280, Note Name: A#5, Velocity: 74
Note OFF: Time 215400, Note Name: A#5
Note ON: Time 215400, Note Name: C6, Velocity: 75
Note OFF: Time 215520, Note Name: C6
Note ON: Time 215520, Note Name: D6, Velocity: 77
Note OFF: Time 215600, Note Name: D6
Note ON: Time 215600, Note Name: D#6, Velocity: 79
Note OFF: Time 215680, Note Name: D#6
Note ON: Time 215680, Note Name: F6, Velocity: 81
Note OFF: Time 215760, Note Name: F6
Note ON: Time 215760, Note Name: G6, Velocity: 83
Note OFF: Time 215840, Note Name: G6
Note ON: Time 215840, Note Name: A6, Velocity: 92
Note OFF: Time 215920, Note Name: A6
Note ON: Time 215920, Note Name: A5, Velocity: 85
Note OFF: Time 216000, Note Name: A5
Note ON: Time 216000, Note Name: A#5, Velocity: 89
Note ON: Time 216000, Note Name: A#6, Velocity: 105
Note OFF: Time 216480, Note Name: A#6
Note OFF: Time 216480, Note Name: A#5
Note ON: Time 216720, Note Name: A#5, Velocity: 90
Note ON: Time 216720, Note Name: F5, Velocity: 75
Note ON: Time 216720, Note Name: D5, Velocity: 75
Note OFF: Time 217200, Note Name: D5
Note OFF: Time 217200, Note Name: F5
Note OFF: Time 217200, Note Name: A#5
Note ON: Time 217440, Note Name: D4, Velocity: 74
Note ON: Time 217440, Note Name: F4, Velocity: 74
Note ON: Time 217440, Note Name: A#4, Velocity: 89
Note OFF: Time 217920, Note Name: A#4
Note OFF: Time 217920, Note Name: F4
Note OFF: Time 217920, Note Name: D4
Note ON: Time 218640, Note Name: A#4, Velocity: 45
Note OFF: Time 218760, Note Name: A#4
Note ON: Time 218880, Note Name: A#4, Velocity: 57
Note OFF: Time 219060, Note Name: A#4
Note ON: Time 219120, Note Name: F#4, Velocity: 45
Note OFF: Time 219240, Note Name: F#4
Note ON: Time 219360, Note Name: D#4, Velocity: 45
Note OFF: Time 219480, Note Name: D#4
Note ON: Time 221520, Note Name: A#5, Velocity: 58
Note ON: Time 221520, Note Name: A#4, Velocity: 49
Note OFF: Time 221760, Note Name: A#4
Note OFF: Time 221760, Note Name: A#5
Note ON: Time 221760, Note Name: A#5, Velocity: 59
Note ON: Time 221760, Note Name: A#4, Velocity: 49
Note OFF: Time 222480, Note Name: A#4
Note OFF: Time 222480, Note Name: A#5
Note ON: Time 222480, Note Name: B4, Velocity: 52
Note ON: Time 222480, Note Name: B5, Velocity: 62
Note OFF: Time 223200, Note Name: B5
Note OFF: Time 223200, Note Name: B4
Note ON: Time 223200, Note Name: C5, Velocity: 59
Note ON: Time 223200, Note Name: C6, Velocity: 70
Note OFF: Time 223920, Note Name: C6
Note OFF: Time 223920, Note Name: C5
Note ON: Time 223920, Note Name: C#6, Velocity: 60
Note ON: Time 223920, Note Name: C#5, Velocity: 50
Note OFF: Time 224400, Note Name: C#5
Note OFF: Time 224400, Note Name: C#6
Note ON: Time 224400, Note Name: C#5, Velocity: 45
Note OFF: Time 224520, Note Name: C#5
Note ON: Time 224640, Note Name: C#5, Velocity: 59
Note OFF: Time 224820, Note Name: C#5
Note ON: Time 224880, Note Name: A#4, Velocity: 45
Note OFF: Time 225000, Note Name: A#4
Note ON: Time 225120, Note Name: F#4, Velocity: 45
Note OFF: Time 225240, Note Name: F#4
Note ON: Time 227280, Note Name: C#5, Velocity: 49
Note ON: Time 227280, Note Name: C#6, Velocity: 58
Note OFF: Time 227518, Note Name: C#6
Note OFF: Time 227518, Note Name: C#5
Note ON: Time 227520, Note Name: C#6, Velocity: 59
Note ON: Time 227520, Note Name: C#5, Velocity: 49
Note OFF: Time 228240, Note Name: C#5
Note OFF: Time 228240, Note Name: C#6
Note ON: Time 228240, Note Name: D#5, Velocity: 52
Note ON: Time 228240, Note Name: D#6, Velocity: 62
Note OFF: Time 229680, Note Name: D#6
Note OFF: Time 229680, Note Name: D#5
Note ON: Time 229680, Note Name: E5, Velocity: 50
Note ON: Time 229680, Note Name: E6, Velocity: 60
Note OFF: Time 231120, Note Name: E6
Note OFF: Time 231120, Note Name: E5
Note ON: Time 231120, Note Name: F#6, Velocity: 64
Note ON: Time 231120, Note Name: F#5, Velocity: 55
Note OFF: Time 231840, Note Name: F#5
Note OFF: Time 231840, Note Name: F#6
Note ON: Time 231840, Note Name: G6, Velocity: 67
Note ON: Time 231840, Note Name: G5, Velocity: 57
Note OFF: Time 232560, Note Name: G5
Note OFF: Time 232560, Note Name: G6
Note ON: Time 232560, Note Name: G#6, Velocity: 69
Note ON: Time 232560, Note Name: G#5, Velocity: 59
Note OFF: Time 234000, Note Name: G#5
Note OFF: Time 234000, Note Name: G#6
Note ON: Time 234000, Note Name: F#6, Velocity: 67
Note ON: Time 234000, Note Name: F#5, Velocity: 57
Note OFF: Time 234720, Note Name: F#5
Note OFF: Time 234720, Note Name: F#6
Note ON: Time 234720, Note Name: E5, Velocity: 63
Note ON: Time 234720, Note Name: E6, Velocity: 63
Note OFF: Time 235440, Note Name: E6
Note OFF: Time 235440, Note Name: E5
Note ON: Time 235440, Note Name: C#5, Velocity: 49
Note ON: Time 235440, Note Name: C#6, Velocity: 58
Note OFF: Time 236160, Note Name: C#6
Note OFF: Time 236160, Note Name: C#5
Note ON: Time 236160, Note Name: D#5, Velocity: 54
Note ON: Time 236160, Note Name: D#6, Velocity: 54
Note OFF: Time 236640, Note Name: D#5
Note ON: Time 236640, Note Name: G#5, Velocity: 52
Note OFF: Time 236880, Note Name: G#5
Note ON: Time 236880, Note Name: F#5, Velocity: 62
Note OFF: Time 237360, Note Name: F#5
Note ON: Time 237360, Note Name: D#5, Velocity: 55
Note OFF: Time 237600, Note Name: D#5
Note OFF: Time 237600, Note Name: D#6
Note ON: Time 237600, Note Name: C#6, Velocity: 62
Note ON: Time 237600, Note Name: C#5, Velocity: 62
Note OFF: Time 238080, Note Name: C#5
Note ON: Time 238080, Note Name: G#5, Velocity: 54
Note OFF: Time 238320, Note Name: G#5
Note ON: Time 238320, Note Name: F#5, Velocity: 61
Note OFF: Time 238800, Note Name: F#5
Note ON: Time 238800, Note Name: C#5, Velocity: 49
Note OFF: Time 239040, Note Name: C#5
Note OFF: Time 239040, Note Name: C#6
Note ON: Time 239040, Note Name: D#6, Velocity: 41
Note ON: Time 239040, Note Name: F#5, Velocity: 50
Note OFF: Time 239160, Note Name: F#5
Note ON: Time 239160, Note Name: G#5, Velocity: 34
Note OFF: Time 239280, Note Name: G#5
Note ON: Time 239280, Note Name: F#5, Velocity: 39
Note OFF: Time 239400, Note Name: F#5
Note ON: Time 239400, Note Name: G#5, Velocity: 35
Note OFF: Time 239520, Note Name: G#5
Note ON: Time 239520, Note Name: F#5, Velocity: 39
Note OFF: Time 239640, Note Name: F#5
Note ON: Time 239640, Note Name: G#5, Velocity: 36
Note OFF: Time 239760, Note Name: G#5
Note OFF: Time 239760, Note Name: D#6
Note ON: Time 239760, Note Name: F#5, Velocity: 52
Note ON: Time 239760, Note Name: B5, Velocity: 45
Note OFF: Time 239880, Note Name: F#5
Note ON: Time 239880, Note Name: G#5, Velocity: 38
Note OFF: Time 240000, Note Name: G#5
Note ON: Time 240000, Note Name: F#5, Velocity: 44
Note OFF: Time 240120, Note Name: F#5
Note ON: Time 240120, Note Name: G#5, Velocity: 38
Note OFF: Time 240240, Note Name: G#5
Note ON: Time 240240, Note Name: F#5, Velocity: 46
Note OFF: Time 240360, Note Name: F#5
Note ON: Time 240360, Note Name: G#5, Velocity: 39
Note OFF: Time 240480, Note Name: G#5
Note OFF: Time 240480, Note Name: B5
Note ON: Time 240480, Note Name: A#5, Velocity: 47
Note ON: Time 240480, Note Name: F#5, Velocity: 57
Note OFF: Time 240600, Note Name: F#5
Note ON: Time 240600, Note Name: G#5, Velocity: 38
Note OFF: Time 240720, Note Name: G#5
Note ON: Time 240720, Note Name: F#5, Velocity: 42
Note OFF: Time 240840, Note Name: F#5
Note ON: Time 240840, Note Name: G#5, Velocity: 37
Note OFF: Time 240960, Note Name: G#5
Note ON: Time 240960, Note Name: F#5, Velocity: 40
Note OFF: Time 241080, Note Name: F#5
Note ON: Time 241080, Note Name: G#5, Velocity: 36
Note OFF: Time 241200, Note Name: G#5
Note OFF: Time 241200, Note Name: A#5
Note ON: Time 241200, Note Name: F#6, Velocity: 45
Note ON: Time 241200, Note Name: F#5, Velocity: 51
Note OFF: Time 241320, Note Name: F#5
Note ON: Time 241320, Note Name: G#5, Velocity: 37
Note OFF: Time 241440, Note Name: G#5
Note ON: Time 241440, Note Name: F#5, Velocity: 40
Note OFF: Time 241560, Note Name: F#5
Note ON: Time 241560, Note Name: G#5, Velocity: 35
Note OFF: Time 241680, Note Name: G#5
Note ON: Time 241680, Note Name: F#5, Velocity: 41
Note OFF: Time 241800, Note Name: F#5
Note ON: Time 241800, Note Name: G#5, Velocity: 34
Note OFF: Time 241920, Note Name: G#5
Note OFF: Time 241920, Note Name: F#6
Note ON: Time 241920, Note Name: F#6, Velocity: 50
Note ON: Time 241920, Note Name: F#5, Velocity: 45
Note OFF: Time 242640, Note Name: F#5
Note OFF: Time 242640, Note Name: F#6
Note ON: Time 242640, Note Name: F#5, Velocity: 47
Note ON: Time 242640, Note Name: F#4, Velocity: 40
Note OFF: Time 243360, Note Name: F#4
Note OFF: Time 243360, Note Name: F#5
Note ON: Time 243360, Note Name: F#4, Velocity: 41
Note ON: Time 243360, Note Name: D5, Velocity: 41
Note ON: Time 243360, Note Name: F#5, Velocity: 46
Note OFF: Time 244080, Note Name: F#5
Note OFF: Time 244080, Note Name: D5
Note OFF: Time 244080, Note Name: F#4
Note ON: Time 244080, Note Name: G5, Velocity: 45
Note ON: Time 244080, Note Name: G4, Velocity: 45
Note ON: Time 244080, Note Name: D5, Velocity: 45
Note OFF: Time 244560, Note Name: D5
Note OFF: Time 244560, Note Name: G4
Note OFF: Time 244560, Note Name: G5
Note ON: Time 244560, Note Name: A5, Velocity: 43
Note ON: Time 244560, Note Name: A4, Velocity: 43
Note ON: Time 244560, Note Name: D5, Velocity: 43
Note OFF: Time 244800, Note Name: D5
Note OFF: Time 244800, Note Name: A4
Note OFF: Time 244800, Note Name: A5
Note ON: Time 244800, Note Name: D5, Velocity: 54
Note ON: Time 244800, Note Name: B4, Velocity: 54
Note ON: Time 244800, Note Name: B5, Velocity: 54
Note OFF: Time 245280, Note Name: B5
Note OFF: Time 245280, Note Name: B4
Note OFF: Time 245280, Note Name: D5
Note ON: Time 245280, Note Name: E5, Velocity: 51
Note ON: Time 245280, Note Name: E6, Velocity: 51
Note OFF: Time 245520, Note Name: E6
Note OFF: Time 245520, Note Name: E5
Note ON: Time 245520, Note Name: D5, Velocity: 58
Note ON: Time 245520, Note Name: D6, Velocity: 58
Note OFF: Time 246000, Note Name: D6
Note OFF: Time 246000, Note Name: D5
Note ON: Time 246000, Note Name: B5, Velocity: 50
Note ON: Time 246000, Note Name: B4, Velocity: 50
Note OFF: Time 246240, Note Name: B4
Note OFF: Time 246240, Note Name: B5
Note ON: Time 246240, Note Name: A4, Velocity: 62
Note ON: Time 246240, Note Name: A5, Velocity: 62
Note OFF: Time 246720, Note Name: A5
Note OFF: Time 246720, Note Name: A4
Note ON: Time 246720, Note Name: E6, Velocity: 50
Note ON: Time 246720, Note Name: E5, Velocity: 50
Note OFF: Time 246960, Note Name: E5
Note OFF: Time 246960, Note Name: E6
Note ON: Time 246960, Note Name: D6, Velocity: 58
Note ON: Time 246960, Note Name: D5, Velocity: 58
Note OFF: Time 247440, Note Name: D5
Note OFF: Time 247440, Note Name: D6
Note ON: Time 247440, Note Name: A5, Velocity: 53
Note ON: Time 247440, Note Name: A4, Velocity: 53
Note OFF: Time 247680, Note Name: A4
Note OFF: Time 247680, Note Name: A5
Note ON: Time 247680, Note Name: B5, Velocity: 38
Note ON: Time 247680, Note Name: D5, Velocity: 46
Note OFF: Time 247800, Note Name: D5
Note ON: Time 247800, Note Name: E5, Velocity: 31
Note OFF: Time 247920, Note Name: E5
Note ON: Time 247920, Note Name: D5, Velocity: 36
Note OFF: Time 248040, Note Name: D5
Note ON: Time 248040, Note Name: E5, Velocity: 32
Note OFF: Time 248160, Note Name: E5
Note ON: Time 248160, Note Name: D5, Velocity: 36
Note OFF: Time 248280, Note Name: D5
Note ON: Time 248280, Note Name: E5, Velocity: 33
Note OFF: Time 248400, Note Name: E5
Note OFF: Time 248400, Note Name: B5
Note ON: Time 248400, Note Name: D5, Velocity: 48
Note ON: Time 248400, Note Name: G5, Velocity: 41
Note OFF: Time 248520, Note Name: D5
Note ON: Time 248520, Note Name: E5, Velocity: 35
Note OFF: Time 248640, Note Name: E5
Note ON: Time 248640, Note Name: D5, Velocity: 40
Note OFF: Time 248760, Note Name: D5
Note ON: Time 248760, Note Name: E5, Velocity: 35
Note OFF: Time 248880, Note Name: E5
Note ON: Time 248880, Note Name: D5, Velocity: 42
Note OFF: Time 249000, Note Name: D5
Note ON: Time 249000, Note Name: E5, Velocity: 36
Note OFF: Time 249120, Note Name: E5
Note OFF: Time 249120, Note Name: G5
Note ON: Time 249120, Note Name: F#5, Velocity: 43
Note ON: Time 249120, Note Name: D5, Velocity: 52
Note OFF: Time 249240, Note Name: D5
Note ON: Time 249240, Note Name: E5, Velocity: 35
Note OFF: Time 249360, Note Name: E5
Note ON: Time 249360, Note Name: D5, Velocity: 39
Note OFF: Time 249480, Note Name: D5
Note ON: Time 249480, Note Name: E5, Velocity: 34
Note OFF: Time 249600, Note Name: E5
Note ON: Time 249600, Note Name: D5, Velocity: 37
Note OFF: Time 249720, Note Name: D5
Note ON: Time 249720, Note Name: E5, Velocity: 33
Note OFF: Time 249840, Note Name: E5
Note OFF: Time 249840, Note Name: F#5
Note ON: Time 249840, Note Name: C6, Velocity: 41
Note ON: Time 249840, Note Name: D5, Velocity: 47
Note OFF: Time 249960, Note Name: D5
Note ON: Time 249960, Note Name: E5, Velocity: 34
Note OFF: Time 250080, Note Name: E5
Note ON: Time 250080, Note Name: D5, Velocity: 37
Note OFF: Time 250200, Note Name: D5
Note ON: Time 250200, Note Name: E5, Velocity: 32
Note OFF: Time 250320, Note Name: E5
Note ON: Time 250320, Note Name: D5, Velocity: 38
Note OFF: Time 250560, Note Name: D5
Note OFF: Time 250560, Note Name: C6
Note ON: Time 250560, Note Name: D5, Velocity: 42
Note ON: Time 250560, Note Name: B5, Velocity: 50
Note OFF: Time 250800, Note Name: B5
Note OFF: Time 250800, Note Name: D5
Note ON: Time 250800, Note Name: B4, Velocity: 44
Note OFF: Time 251040, Note Name: B4
Note ON: Time 251040, Note Name: D6, Velocity: 50
Note ON: Time 251040, Note Name: G4, Velocity: 42
Note OFF: Time 251160, Note Name: G4
Note OFF: Time 251160, Note Name: D6
Note ON: Time 251280, Note Name: D6, Velocity: 54
Note ON: Time 251280, Note Name: F#4, Velocity: 45
Note OFF: Time 251520, Note Name: F#4
Note OFF: Time 251520, Note Name: D6
Note ON: Time 251520, Note Name: B5, Velocity: 46
Note ON: Time 251520, Note Name: G4, Velocity: 39
Note OFF: Time 251760, Note Name: G4
Note OFF: Time 251760, Note Name: B5
Note ON: Time 251760, Note Name: B4, Velocity: 38
Note ON: Time 251760, Note Name: G5, Velocity: 45
Note OFF: Time 251880, Note Name: G5
Note OFF: Time 251880, Note Name: B4
Note ON: Time 252240, Note Name: B4, Velocity: 46
Note OFF: Time 252480, Note Name: B4
Note ON: Time 252480, Note Name: D5, Velocity: 46
Note OFF: Time 252720, Note Name: D5
Note ON: Time 252720, Note Name: G5, Velocity: 50
Note OFF: Time 252960, Note Name: G5
Note ON: Time 252960, Note Name: B5, Velocity: 50
Note OFF: Time 253200, Note Name: B5
Note ON: Time 253200, Note Name: G5, Velocity: 43
Note ON: Time 253200, Note Name: D6, Velocity: 53
Note OFF: Time 253320, Note Name: D6
Note OFF: Time 253320, Note Name: G5
Note ON: Time 253440, Note Name: E6, Velocity: 57
Note ON: Time 253440, Note Name: G5, Velocity: 45
Note OFF: Time 253680, Note Name: G5
Note ON: Time 253680, Note Name: E5, Velocity: 46
Note OFF: Time 253920, Note Name: E5
Note OFF: Time 253920, Note Name: E6
Note ON: Time 253920, Note Name: C5, Velocity: 46
Note OFF: Time 254160, Note Name: C5
Note ON: Time 254160, Note Name: B4, Velocity: 53
Note OFF: Time 254400, Note Name: B4
Note ON: Time 254400, Note Name: C5, Velocity: 46
Note OFF: Time 254640, Note Name: C5
Note ON: Time 254640, Note Name: E5, Velocity: 46
Note OFF: Time 254880, Note Name: E5
Note ON: Time 255120, Note Name: G5, Velocity: 50
Note OFF: Time 255360, Note Name: G5
Note ON: Time 255360, Note Name: C6, Velocity: 54
Note OFF: Time 255600, Note Name: C6
Note ON: Time 255600, Note Name: E5, Velocity: 51
Note ON: Time 255600, Note Name: E6, Velocity: 60
Note OFF: Time 256080, Note Name: E6
Note OFF: Time 256080, Note Name: E5
Note ON: Time 256080, Note Name: D#5, Velocity: 52
Note ON: Time 256080, Note Name: D#6, Velocity: 62
Note OFF: Time 256320, Note Name: D#6
Note OFF: Time 256320, Note Name: D#5
Note ON: Time 256320, Note Name: D#6, Velocity: 60
Note OFF: Time 256560, Note Name: D#6
Note ON: Time 256560, Note Name: C6, Velocity: 55
Note OFF: Time 256800, Note Name: C6
Note ON: Time 256800, Note Name: G#5, Velocity: 55
Note OFF: Time 256980, Note Name: G#5
Note ON: Time 257040, Note Name: G5, Velocity: 60
Note OFF: Time 257280, Note Name: G5
Note ON: Time 257280, Note Name: A#5, Velocity: 57
Note OFF: Time 257520, Note Name: A#5
Note ON: Time 257520, Note Name: D#5, Velocity: 50
Note ON: Time 257520, Note Name: D#6, Velocity: 57
Note OFF: Time 257700, Note Name: D#6
Note OFF: Time 257700, Note Name: D#5
Note ON: Time 257760, Note Name: D#5, Velocity: 58
Note OFF: Time 258000, Note Name: D#5
Note ON: Time 258000, Note Name: C5, Velocity: 50
Note OFF: Time 258240, Note Name: C5
Note ON: Time 258240, Note Name: G#4, Velocity: 50
Note OFF: Time 258420, Note Name: G#4
Note ON: Time 258480, Note Name: D#5, Velocity: 58
Note OFF: Time 258720, Note Name: D#5
Note ON: Time 258720, Note Name: A#4, Velocity: 51
Note OFF: Time 258960, Note Name: A#4
Note ON: Time 258960, Note Name: A#5, Velocity: 51
Note ON: Time 258960, Note Name: A#4, Velocity: 51
Note OFF: Time 259140, Note Name: A#4
Note OFF: Time 259140, Note Name: A#5
Note ON: Time 259200, Note Name: A#4, Velocity: 50
Note ON: Time 259200, Note Name: A#5, Velocity: 59
Note OFF: Time 259440, Note Name: A#5
Note OFF: Time 259440, Note Name: A#4
Note ON: Time 259440, Note Name: G4, Velocity: 43
Note ON: Time 259440, Note Name: G5, Velocity: 51
Note OFF: Time 259680, Note Name: G5
Note OFF: Time 259680, Note Name: G4
Note ON: Time 259680, Note Name: D#4, Velocity: 39
Note ON: Time 259680, Note Name: D#5, Velocity: 47
Note OFF: Time 259920, Note Name: D#5
Note OFF: Time 259920, Note Name: D#4
Note ON: Time 259920, Note Name: D4, Velocity: 45
Note ON: Time 259920, Note Name: D5, Velocity: 54
Note OFF: Time 260160, Note Name: D5
Note OFF: Time 260160, Note Name: D4
Note ON: Time 260160, Note Name: F5, Velocity: 49
Note ON: Time 260160, Note Name: F4, Velocity: 41
Note OFF: Time 260400, Note Name: F4
Note OFF: Time 260400, Note Name: F5
Note ON: Time 260400, Note Name: A#5, Velocity: 50
Note ON: Time 260400, Note Name: A#4, Velocity: 42
Note OFF: Time 260580, Note Name: A#4
Note OFF: Time 260580, Note Name: A#5
Note ON: Time 260640, Note Name: A#4, Velocity: 46
Note ON: Time 260640, Note Name: A#5, Velocity: 55
Note OFF: Time 260880, Note Name: A#5
Note OFF: Time 260880, Note Name: A#4
Note ON: Time 260880, Note Name: G4, Velocity: 43
Note ON: Time 260880, Note Name: G5, Velocity: 51
Note OFF: Time 261120, Note Name: G5
Note OFF: Time 261120, Note Name: G4
Note ON: Time 261120, Note Name: D#4, Velocity: 43
Note ON: Time 261120, Note Name: D#5, Velocity: 51
Note OFF: Time 261300, Note Name: D#5
Note OFF: Time 261300, Note Name: D#4
Note ON: Time 261360, Note Name: D#4, Velocity: 47
Note ON: Time 261360, Note Name: D#5, Velocity: 56
Note OFF: Time 261600, Note Name: D#5
Note OFF: Time 261600, Note Name: D#4
Note ON: Time 261600, Note Name: G5, Velocity: 48
Note ON: Time 261600, Note Name: G4, Velocity: 40
Note OFF: Time 261840, Note Name: G4
Note OFF: Time 261840, Note Name: G5
Note ON: Time 261840, Note Name: C6, Velocity: 58
Note ON: Time 261840, Note Name: C5, Velocity: 49
Note OFF: Time 262020, Note Name: C5
Note OFF: Time 262020, Note Name: C6
Note ON: Time 262080, Note Name: C5, Velocity: 53
Note ON: Time 262080, Note Name: C6, Velocity: 63
Note OFF: Time 262320, Note Name: C6
Note OFF: Time 262320, Note Name: C5
Note ON: Time 262320, Note Name: G#4, Velocity: 48
Note ON: Time 262320, Note Name: G#5, Velocity: 57
Note OFF: Time 262560, Note Name: G#5
Note OFF: Time 262560, Note Name: G#4
Note ON: Time 262560, Note Name: F4, Velocity: 48
Note ON: Time 262560, Note Name: F5, Velocity: 57
Note OFF: Time 262800, Note Name: F5
Note OFF: Time 262800, Note Name: F4
Note ON: Time 262800, Note Name: E4, Velocity: 53
Note ON: Time 262800, Note Name: E5, Velocity: 63
Note OFF: Time 263040, Note Name: E5
Note OFF: Time 263040, Note Name: E4
Note ON: Time 263040, Note Name: G4, Velocity: 48
Note ON: Time 263040, Note Name: G5, Velocity: 57
Note OFF: Time 263280, Note Name: G5
Note OFF: Time 263280, Note Name: G4
Note ON: Time 263280, Note Name: C5, Velocity: 52
Note ON: Time 263280, Note Name: C6, Velocity: 62
Note OFF: Time 263460, Note Name: C6
Note OFF: Time 263460, Note Name: C5
Note ON: Time 263520, Note Name: C6, Velocity: 73
Note ON: Time 263520, Note Name: C5, Velocity: 62
Note OFF: Time 263760, Note Name: C5
Note OFF: Time 263760, Note Name: C6
Note ON: Time 263760, Note Name: G#4, Velocity: 50
Note ON: Time 263760, Note Name: G#5, Velocity: 59
Note OFF: Time 264000, Note Name: G#5
Note OFF: Time 264000, Note Name: G#4
Note ON: Time 264000, Note Name: F5, Velocity: 59
Note ON: Time 264000, Note Name: F4, Velocity: 50
Note OFF: Time 264240, Note Name: F4
Note OFF: Time 264240, Note Name: F5
Note ON: Time 264240, Note Name: D5, Velocity: 67
Note ON: Time 264240, Note Name: D4, Velocity: 56
Note OFF: Time 264480, Note Name: D4
Note OFF: Time 264480, Note Name: D5
Note ON: Time 264480, Note Name: F4, Velocity: 51
Note ON: Time 264480, Note Name: F5, Velocity: 60
Note OFF: Time 264720, Note Name: F5
Note OFF: Time 264720, Note Name: F4
Note ON: Time 264720, Note Name: A#4, Velocity: 51
Note ON: Time 264720, Note Name: A#5, Velocity: 60
Note OFF: Time 264900, Note Name: A#5
Note OFF: Time 264900, Note Name: A#4
Note ON: Time 264960, Note Name: A#4, Velocity: 56
Note ON: Time 264960, Note Name: A#5, Velocity: 67
Note OFF: Time 265200, Note Name: A#5
Note OFF: Time 265200, Note Name: A#4
Note ON: Time 265200, Note Name: G4, Velocity: 49
Note ON: Time 265200, Note Name: G5, Velocity: 58
Note OFF: Time 265440, Note Name: G5
Note OFF: Time 265440, Note Name: G4
Note ON: Time 265440, Note Name: D#4, Velocity: 49
Note ON: Time 265440, Note Name: D#5, Velocity: 58
Note OFF: Time 265680, Note Name: D#5
Note OFF: Time 265680, Note Name: D#4
Note ON: Time 265680, Note Name: C4, Velocity: 51
Note ON: Time 265680, Note Name: C5, Velocity: 61
Note OFF: Time 265920, Note Name: C5
Note OFF: Time 265920, Note Name: C4
Note ON: Time 265920, Note Name: F5, Velocity: 56
Note ON: Time 265920, Note Name: F4, Velocity: 47
Note OFF: Time 266160, Note Name: F4
Note OFF: Time 266160, Note Name: F5
Note ON: Time 266160, Note Name: G#5, Velocity: 56
Note ON: Time 266160, Note Name: G#4, Velocity: 47
Note OFF: Time 266340, Note Name: G#4
Note OFF: Time 266340, Note Name: G#5
Note ON: Time 266400, Note Name: A#4, Velocity: 65
Note ON: Time 266400, Note Name: A#3, Velocity: 55
Note OFF: Time 266640, Note Name: A#3
Note OFF: Time 266640, Note Name: A#4
Note ON: Time 266640, Note Name: D#5, Velocity: 59
Note ON: Time 266640, Note Name: D#4, Velocity: 50
Note OFF: Time 266880, Note Name: D#4
Note OFF: Time 266880, Note Name: D#5
Note ON: Time 266880, Note Name: G5, Velocity: 60
Note ON: Time 266880, Note Name: G4, Velocity: 51
Note OFF: Time 267060, Note Name: G4
Note OFF: Time 267060, Note Name: G5
Note ON: Time 267120, Note Name: A#4, Velocity: 67
Note ON: Time 267120, Note Name: A#3, Velocity: 56
Note OFF: Time 267360, Note Name: A#3
Note OFF: Time 267360, Note Name: A#4
Note ON: Time 267360, Note Name: D5, Velocity: 60
Note ON: Time 267360, Note Name: D4, Velocity: 51
Note OFF: Time 267600, Note Name: D4
Note OFF: Time 267600, Note Name: D5
Note ON: Time 267600, Note Name: G#4, Velocity: 60
Note OFF: Time 267720, Note Name: G#4
Note ON: Time 267720, Note Name: F5, Velocity: 60
Note OFF: Time 267840, Note Name: F5
Note ON: Time 267960, Note Name: G5, Velocity: 55
Note OFF: Time 268080, Note Name: G5
Note ON: Time 268080, Note Name: A#5, Velocity: 59
Note OFF: Time 268200, Note Name: A#5
Note ON: Time 268200, Note Name: D#6, Velocity: 55
Note OFF: Time 268320, Note Name: D#6
Note ON: Time 268320, Note Name: G6, Velocity: 61
Note OFF: Time 268440, Note Name: G6
Note ON: Time 268440, Note Name: G5, Velocity: 55
Note OFF: Time 268560, Note Name: G5
Note ON: Time 268680, Note Name: G#5, Velocity: 55
Note OFF: Time 268800, Note Name: G#5
Note ON: Time 268800, Note Name: A#5, Velocity: 59
Note OFF: Time 268920, Note Name: A#5
Note ON: Time 268920, Note Name: F6, Velocity: 55
Note OFF: Time 269040, Note Name: F6
Note ON: Time 269040, Note Name: G#6, Velocity: 61
Note OFF: Time 269160, Note Name: G#6
Note ON: Time 269160, Note Name: G#5, Velocity: 56
Note OFF: Time 269280, Note Name: G#5
Note ON: Time 269400, Note Name: G5, Velocity: 56
Note OFF: Time 269520, Note Name: G5
Note ON: Time 269520, Note Name: A#5, Velocity: 60
Note OFF: Time 269640, Note Name: A#5
Note ON: Time 269640, Note Name: D#6, Velocity: 56
Note OFF: Time 269760, Note Name: D#6
Note ON: Time 269760, Note Name: G6, Velocity: 62
Note OFF: Time 269880, Note Name: G6
Note ON: Time 269880, Note Name: G5, Velocity: 56
Note OFF: Time 270000, Note Name: G5
Note ON: Time 270120, Note Name: G5, Velocity: 56
Note OFF: Time 270240, Note Name: G5
Note ON: Time 270240, Note Name: A#5, Velocity: 61
Note OFF: Time 270360, Note Name: A#5
Note ON: Time 270360, Note Name: D#6, Velocity: 57
Note OFF: Time 270480, Note Name: D#6
Note ON: Time 270480, Note Name: G6, Velocity: 63
Note OFF: Time 270600, Note Name: G6
Note ON: Time 270600, Note Name: E6, Velocity: 57
Note OFF: Time 270720, Note Name: E6
Note ON: Time 270840, Note Name: G#5, Velocity: 57
Note OFF: Time 270960, Note Name: G#5
Note ON: Time 270960, Note Name: C6, Velocity: 61
Note OFF: Time 271080, Note Name: C6
Note ON: Time 271080, Note Name: F6, Velocity: 57
Note OFF: Time 271200, Note Name: F6
Note ON: Time 271200, Note Name: G#6, Velocity: 63
Note OFF: Time 271320, Note Name: G#6
Note ON: Time 271320, Note Name: G#5, Velocity: 57
Note OFF: Time 271440, Note Name: G#5
Note ON: Time 271560, Note Name: A#5, Velocity: 58
Note OFF: Time 271680, Note Name: A#5
Note ON: Time 271680, Note Name: C6, Velocity: 62
Note OFF: Time 271800, Note Name: C6
Note ON: Time 271800, Note Name: G6, Velocity: 58
Note OFF: Time 271920, Note Name: G6
Note ON: Time 271920, Note Name: A#6, Velocity: 64
Note OFF: Time 272040, Note Name: A#6
Note ON: Time 272040, Note Name: A#5, Velocity: 58
Note OFF: Time 272160, Note Name: A#5
Note ON: Time 272280, Note Name: G#5, Velocity: 58
Note OFF: Time 272400, Note Name: G#5
Note ON: Time 272400, Note Name: C6, Velocity: 62
Note OFF: Time 272520, Note Name: C6
Note ON: Time 272520, Note Name: F6, Velocity: 59
Note OFF: Time 272640, Note Name: F6
Note ON: Time 272640, Note Name: G#6, Velocity: 66
Note OFF: Time 272760, Note Name: G#6
Note ON: Time 272760, Note Name: G#5, Velocity: 59
Note OFF: Time 272880, Note Name: G#5
Note ON: Time 273000, Note Name: G#5, Velocity: 59
Note OFF: Time 273120, Note Name: G#5
Note ON: Time 273120, Note Name: A#5, Velocity: 63
Note OFF: Time 273240, Note Name: A#5
Note ON: Time 273240, Note Name: F6, Velocity: 59
Note OFF: Time 273360, Note Name: F6
Note ON: Time 273360, Note Name: G#6, Velocity: 67
Note OFF: Time 273480, Note Name: G#6
Note ON: Time 273480, Note Name: G#5, Velocity: 59
Note OFF: Time 273600, Note Name: G#5
Note ON: Time 273720, Note Name: G5, Velocity: 60
Note OFF: Time 273840, Note Name: G5
Note ON: Time 273840, Note Name: A#5, Velocity: 64
Note OFF: Time 273960, Note Name: A#5
Note ON: Time 273960, Note Name: D#6, Velocity: 60
Note OFF: Time 274080, Note Name: D#6
Note ON: Time 274080, Note Name: G6, Velocity: 68
Note OFF: Time 274200, Note Name: G6
Note ON: Time 274200, Note Name: G5, Velocity: 61
Note OFF: Time 274320, Note Name: G5
Note ON: Time 274440, Note Name: G#6, Velocity: 62
Note OFF: Time 274560, Note Name: G#6
Note ON: Time 274560, Note Name: F6, Velocity: 68
Note OFF: Time 274680, Note Name: F6
Note ON: Time 274680, Note Name: D#6, Velocity: 63
Note OFF: Time 274800, Note Name: D#6
Note ON: Time 274800, Note Name: G#5, Velocity: 72
Note OFF: Time 274920, Note Name: G#5
Note ON: Time 274920, Note Name: G#6, Velocity: 66
Note OFF: Time 275040, Note Name: G#6
Note ON: Time 275160, Note Name: A#6, Velocity: 67
Note OFF: Time 275280, Note Name: A#6
Note ON: Time 275280, Note Name: G6, Velocity: 72
Note OFF: Time 275400, Note Name: G6
Note ON: Time 275400, Note Name: D#6, Velocity: 68
Note OFF: Time 275520, Note Name: D#6
Note ON: Time 275520, Note Name: A#5, Velocity: 78
Note OFF: Time 275640, Note Name: A#5
Note ON: Time 275640, Note Name: A#6, Velocity: 69
Note OFF: Time 275760, Note Name: A#6
Note ON: Time 275880, Note Name: A#6, Velocity: 70
Note OFF: Time 276000, Note Name: A#6
Note ON: Time 276000, Note Name: F6, Velocity: 77
Note OFF: Time 276120, Note Name: F6
Note ON: Time 276120, Note Name: D6, Velocity: 72
Note OFF: Time 276240, Note Name: D6
Note ON: Time 276240, Note Name: A#5, Velocity: 81
Note OFF: Time 276360, Note Name: A#5
Note ON: Time 276360, Note Name: A#6, Velocity: 73
Note OFF: Time 276480, Note Name: A#6
Note ON: Time 276480, Note Name: G3, Velocity: 85
Note OFF: Time 276600, Note Name: G3
Note ON: Time 276600, Note Name: D#4, Velocity: 70
Note OFF: Time 276720, Note Name: D#4
Note ON: Time 276720, Note Name: A#3, Velocity: 79
Note OFF: Time 276840, Note Name: A#3
Note ON: Time 276840, Note Name: G4, Velocity: 70
Note OFF: Time 276960, Note Name: G4
Note ON: Time 276960, Note Name: D#4, Velocity: 81
Note OFF: Time 277080, Note Name: D#4
Note ON: Time 277080, Note Name: A#4, Velocity: 70
Note OFF: Time 277200, Note Name: A#4
Note ON: Time 277200, Note Name: G4, Velocity: 86
Note OFF: Time 277320, Note Name: G4
Note ON: Time 277320, Note Name: D#5, Velocity: 70
Note OFF: Time 277440, Note Name: D#5
Note ON: Time 277440, Note Name: A#4, Velocity: 77
Note OFF: Time 277560, Note Name: A#4
Note ON: Time 277560, Note Name: G5, Velocity: 70
Note OFF: Time 277680, Note Name: G5
Note ON: Time 277680, Note Name: D#5, Velocity: 78
Note OFF: Time 277800, Note Name: D#5
Note ON: Time 277800, Note Name: A#5, Velocity: 70
Note OFF: Time 277920, Note Name: A#5
Note ON: Time 277920, Note Name: G5, Velocity: 86
Note OFF: Time 278040, Note Name: G5
Note ON: Time 278040, Note Name: D#6, Velocity: 70
Note OFF: Time 278160, Note Name: D#6
Note ON: Time 278160, Note Name: A#5, Velocity: 77
Note OFF: Time 278280, Note Name: A#5
Note ON: Time 278280, Note Name: G6, Velocity: 67
Note OFF: Time 278400, Note Name: G6
Note ON: Time 278400, Note Name: D#6, Velocity: 75
Note OFF: Time 278520, Note Name: D#6
Note ON: Time 278520, Note Name: A#6, Velocity: 68
Note OFF: Time 278640, Note Name: A#6
Note ON: Time 278640, Note Name: A6, Velocity: 80
Note OFF: Time 278760, Note Name: A6
Note ON: Time 278760, Note Name: A#6, Velocity: 72
Note OFF: Time 278880, Note Name: A#6
Note ON: Time 278880, Note Name: A6, Velocity: 77
Note OFF: Time 279000, Note Name: A6
Note ON: Time 279000, Note Name: A#6, Velocity: 70
Note OFF: Time 279120, Note Name: A#6
Note ON: Time 279120, Note Name: A6, Velocity: 75
Note OFF: Time 279240, Note Name: A6
Note ON: Time 279240, Note Name: A#6, Velocity: 70
Note OFF: Time 279360, Note Name: A#6
Note ON: Time 279360, Note Name: C7, Velocity: 84
Note OFF: Time 279480, Note Name: C7
Note ON: Time 279480, Note Name: A#6, Velocity: 84
Note OFF: Time 279600, Note Name: A#6
Note ON: Time 279600, Note Name: G#6, Velocity: 83
Note OFF: Time 279720, Note Name: G#6
Note ON: Time 279720, Note Name: G6, Velocity: 82
Note OFF: Time 279840, Note Name: G6
Note ON: Time 279840, Note Name: F6, Velocity: 81
Note OFF: Time 279960, Note Name: F6
Note ON: Time 279960, Note Name: D#6, Velocity: 81
Note OFF: Time 280080, Note Name: D#6
Note ON: Time 280080, Note Name: D6, Velocity: 79
Note OFF: Time 280200, Note Name: D6
Note ON: Time 280200, Note Name: C6, Velocity: 71
Note OFF: Time 280320, Note Name: C6
Note ON: Time 280320, Note Name: A#5, Velocity: 71
Note OFF: Time 280440, Note Name: A#5
Note ON: Time 280440, Note Name: G#5, Velocity: 71
Note OFF: Time 280560, Note Name: G#5
Note ON: Time 280560, Note Name: G5, Velocity: 71
Note OFF: Time 280680, Note Name: G5
Note ON: Time 280680, Note Name: F5, Velocity: 71
Note OFF: Time 280800, Note Name: F5
Note ON: Time 280800, Note Name: D#5, Velocity: 77
Note OFF: Time 280920, Note Name: D#5
Note ON: Time 280920, Note Name: D5, Velocity: 75
Note OFF: Time 281040, Note Name: D5
Note ON: Time 281040, Note Name: C5, Velocity: 74
Note OFF: Time 281160, Note Name: C5
Note ON: Time 281160, Note Name: A#4, Velocity: 74
Note OFF: Time 281280, Note Name: A#4
Note ON: Time 281280, Note Name: G#4, Velocity: 73
Note OFF: Time 281400, Note Name: G#4
Note ON: Time 281400, Note Name: G4, Velocity: 72
Note OFF: Time 281520, Note Name: G4
Note ON: Time 281520, Note Name: F4, Velocity: 70
Note OFF: Time 281640, Note Name: F4
Note ON: Time 281640, Note Name: D#4, Velocity: 64
Note OFF: Time 281760, Note Name: D#4
Note ON: Time 281760, Note Name: D4, Velocity: 70
Note OFF: Time 281880, Note Name: D4
Note ON: Time 281880, Note Name: F4, Velocity: 66
Note OFF: Time 282000, Note Name: F4
Note ON: Time 282000, Note Name: G#4, Velocity: 75
Note OFF: Time 282120, Note Name: G#4
Note ON: Time 282120, Note Name: D4, Velocity: 69
Note OFF: Time 282240, Note Name: D4
Note ON: Time 282240, Note Name: G3, Velocity: 85
Note OFF: Time 282360, Note Name: G3
Note ON: Time 282360, Note Name: D#4, Velocity: 70
Note OFF: Time 282480, Note Name: D#4
Note ON: Time 282480, Note Name: A#3, Velocity: 79
Note OFF: Time 282600, Note Name: A#3
Note ON: Time 282600, Note Name: G4, Velocity: 70
Note OFF: Time 282720, Note Name: G4
Note ON: Time 282720, Note Name: D#4, Velocity: 81
Note OFF: Time 282840, Note Name: D#4
Note ON: Time 282840, Note Name: A#4, Velocity: 70
Note OFF: Time 282960, Note Name: A#4
Note ON: Time 282960, Note Name: G4, Velocity: 86
Note OFF: Time 283080, Note Name: G4
Note ON: Time 283080, Note Name: D#5, Velocity: 70
Note OFF: Time 283200, Note Name: D#5
Note ON: Time 283200, Note Name: A#4, Velocity: 77
Note OFF: Time 283320, Note Name: A#4
Note ON: Time 283320, Note Name: G5, Velocity: 70
Note OFF: Time 283440, Note Name: G5
Note ON: Time 283440, Note Name: D#5, Velocity: 78
Note OFF: Time 283560, Note Name: D#5
Note ON: Time 283560, Note Name: A#5, Velocity: 70
Note OFF: Time 283680, Note Name: A#5
Note ON: Time 283680, Note Name: G5, Velocity: 86
Note OFF: Time 283800, Note Name: G5
Note ON: Time 283800, Note Name: D#6, Velocity: 70
Note OFF: Time 283920, Note Name: D#6
Note ON: Time 283920, Note Name: A#5, Velocity: 77
Note OFF: Time 284040, Note Name: A#5
Note ON: Time 284040, Note Name: G6, Velocity: 67
Note OFF: Time 284160, Note Name: G6
Note ON: Time 284160, Note Name: D#6, Velocity: 75
Note OFF: Time 284280, Note Name: D#6
Note ON: Time 284280, Note Name: A#6, Velocity: 68
Note OFF: Time 284400, Note Name: A#6
Note ON: Time 284400, Note Name: A6, Velocity: 80
Note OFF: Time 284520, Note Name: A6
Note ON: Time 284520, Note Name: A#6, Velocity: 72
Note OFF: Time 284640, Note Name: A#6
Note ON: Time 284640, Note Name: A6, Velocity: 77
Note OFF: Time 284760, Note Name: A6
Note ON: Time 284760, Note Name: A#6, Velocity: 70
Note OFF: Time 284880, Note Name: A#6
Note ON: Time 284880, Note Name: A6, Velocity: 75
Note OFF: Time 285000, Note Name: A6
Note ON: Time 285000, Note Name: A#6, Velocity: 70
Note OFF: Time 285120, Note Name: A#6
Note ON: Time 285120, Note Name: C7, Velocity: 84
Note OFF: Time 285240, Note Name: C7
Note ON: Time 285240, Note Name: A#6, Velocity: 84
Note OFF: Time 285360, Note Name: A#6
Note ON: Time 285360, Note Name: G#6, Velocity: 83
Note OFF: Time 285480, Note Name: G#6
Note ON: Time 285480, Note Name: G6, Velocity: 82
Note OFF: Time 285600, Note Name: G6
Note ON: Time 285600, Note Name: F6, Velocity: 81
Note OFF: Time 285720, Note Name: F6
Note ON: Time 285720, Note Name: D#6, Velocity: 81
Note OFF: Time 285840, Note Name: D#6
Note ON: Time 285840, Note Name: C#6, Velocity: 79
Note OFF: Time 285960, Note Name: C#6
Note ON: Time 285960, Note Name: C6, Velocity: 71
Note OFF: Time 286080, Note Name: C6
Note ON: Time 286080, Note Name: A#5, Velocity: 71
Note OFF: Time 286200, Note Name: A#5
Note ON: Time 286200, Note Name: G#5, Velocity: 71
Note OFF: Time 286320, Note Name: G#5
Note ON: Time 286320, Note Name: G5, Velocity: 71
Note OFF: Time 286440, Note Name: G5
Note ON: Time 286440, Note Name: F5, Velocity: 71
Note OFF: Time 286560, Note Name: F5
Note ON: Time 286560, Note Name: D#5, Velocity: 77
Note ON: Time 286680, Note Name: C#5, Velocity: 75
Note OFF: Time 286681, Note Name: D#5
Note ON: Time 286800, Note Name: C5, Velocity: 74
Note OFF: Time 286801, Note Name: C#5
Note OFF: Time 286920, Note Name: C5
Note ON: Time 286920, Note Name: A#4, Velocity: 74
Note OFF: Time 287040, Note Name: A#4
Note ON: Time 287040, Note Name: G#4, Velocity: 73
Note OFF: Time 287160, Note Name: G#4
Note ON: Time 287160, Note Name: G4, Velocity: 72
Note OFF: Time 287280, Note Name: G4
Note ON: Time 287280, Note Name: F4, Velocity: 68
Note OFF: Time 287400, Note Name: F4
Note ON: Time 287400, Note Name: D#4, Velocity: 59
Note OFF: Time 287520, Note Name: D#4
Note ON: Time 287520, Note Name: D4, Velocity: 66
Note OFF: Time 287640, Note Name: D4
Note ON: Time 287640, Note Name: F4, Velocity: 59
Note OFF: Time 287760, Note Name: F4
Note ON: Time 287760, Note Name: G#4, Velocity: 64
Note OFF: Time 287880, Note Name: G#4
Note ON: Time 287880, Note Name: D4, Velocity: 59
Note OFF: Time 288000, Note Name: D4
Note ON: Time 288000, Note Name: D#4, Velocity: 95
Note OFF: Time 288240, Note Name: D#4
Note ON: Time 288720, Note Name: D#5, Velocity: 89
Note OFF: Time 288960, Note Name: D#5
Note ON: Time 289440, Note Name: F#5, Velocity: 96
Note OFF: Time 289680, Note Name: F#5
Note ON: Time 290160, Note Name: B5, Velocity: 88
Note OFF: Time 290400, Note Name: B5
Note ON: Time 290880, Note Name: F#5, Velocity: 94
Note OFF: Time 291120, Note Name: F#5
Note ON: Time 291600, Note Name: D#5, Velocity: 88
Note OFF: Time 291840, Note Name: D#5
Note ON: Time 292320, Note Name: B4, Velocity: 93
Note OFF: Time 292560, Note Name: B4
Note ON: Time 293040, Note Name: F#4, Velocity: 82
Note OFF: Time 293280, Note Name: F#4
Note ON: Time 293760, Note Name: D4, Velocity: 95
Note OFF: Time 294000, Note Name: D4
Note ON: Time 294480, Note Name: D5, Velocity: 89
Note OFF: Time 294720, Note Name: D5
Note ON: Time 295200, Note Name: F5, Velocity: 96
Note OFF: Time 295440, Note Name: F5
Note ON: Time 295920, Note Name: A#5, Velocity: 88
Note OFF: Time 296160, Note Name: A#5
Note ON: Time 296640, Note Name: F5, Velocity: 94
Note OFF: Time 296880, Note Name: F5
Note ON: Time 297360, Note Name: D5, Velocity: 88
Note OFF: Time 297600, Note Name: D5
Note ON: Time 298080, Note Name: A#4, Velocity: 93
Note OFF: Time 298320, Note Name: A#4
Note ON: Time 298800, Note Name: F4, Velocity: 82
Note OFF: Time 299040, Note Name: F4
Note ON: Time 299520, Note Name: F#5, Velocity: 55
Note OFF: Time 299640, Note Name: F#5
Note ON: Time 299940, Note Name: F6, Velocity: 51
Note OFF: Time 300000, Note Name: F6
Note ON: Time 300000, Note Name: D#6, Velocity: 56
Note OFF: Time 300120, Note Name: D#6
Note ON: Time 300120, Note Name: D6, Velocity: 51
Note OFF: Time 300240, Note Name: D6
Note ON: Time 300240, Note Name: D#6, Velocity: 56
Note OFF: Time 300480, Note Name: D#6
Note ON: Time 300660, Note Name: G#6, Velocity: 51
Note OFF: Time 300720, Note Name: G#6
Note ON: Time 300720, Note Name: F#6, Velocity: 57
Note OFF: Time 300840, Note Name: F#6
Note ON: Time 300840, Note Name: F6, Velocity: 50
Note OFF: Time 300960, Note Name: F6
Note ON: Time 300960, Note Name: F#6, Velocity: 60
Note OFF: Time 301080, Note Name: F#6
Note ON: Time 301380, Note Name: C#7, Velocity: 51
Note OFF: Time 301440, Note Name: C#7
Note ON: Time 301440, Note Name: B6, Velocity: 56
Note OFF: Time 301560, Note Name: B6
Note ON: Time 301560, Note Name: A#6, Velocity: 51
Note OFF: Time 301680, Note Name: A#6
Note ON: Time 301680, Note Name: B6, Velocity: 56
Note OFF: Time 301920, Note Name: B6
Note ON: Time 302100, Note Name: G#6, Velocity: 51
Note OFF: Time 302160, Note Name: G#6
Note ON: Time 302160, Note Name: F#6, Velocity: 57
Note OFF: Time 302280, Note Name: F#6
Note ON: Time 302280, Note Name: F6, Velocity: 50
Note OFF: Time 302400, Note Name: F6
Note ON: Time 302400, Note Name: F#6, Velocity: 60
Note OFF: Time 302520, Note Name: F#6
Note ON: Time 302820, Note Name: F6, Velocity: 51
Note OFF: Time 302880, Note Name: F6
Note ON: Time 302880, Note Name: D#6, Velocity: 56
Note OFF: Time 303000, Note Name: D#6
Note ON: Time 303000, Note Name: D6, Velocity: 51
Note OFF: Time 303120, Note Name: D6
Note ON: Time 303120, Note Name: D#6, Velocity: 56
Note OFF: Time 303360, Note Name: D#6
Note ON: Time 303540, Note Name: C#6, Velocity: 51
Note OFF: Time 303600, Note Name: C#6
Note ON: Time 303600, Note Name: B5, Velocity: 57
Note OFF: Time 303720, Note Name: B5
Note ON: Time 303720, Note Name: A#5, Velocity: 50
Note OFF: Time 303840, Note Name: A#5
Note ON: Time 303840, Note Name: B5, Velocity: 60
Note OFF: Time 303960, Note Name: B5
Note ON: Time 304260, Note Name: G#5, Velocity: 51
Note OFF: Time 304320, Note Name: G#5
Note ON: Time 304320, Note Name: F#5, Velocity: 56
Note OFF: Time 304440, Note Name: F#5
Note ON: Time 304440, Note Name: F5, Velocity: 51
Note OFF: Time 304560, Note Name: F5
Note ON: Time 304560, Note Name: F#5, Velocity: 56
Note OFF: Time 305040, Note Name: F#5
Note ON: Time 305280, Note Name: F5, Velocity: 55
Note OFF: Time 305400, Note Name: F5
Note ON: Time 305700, Note Name: D#6, Velocity: 51
Note OFF: Time 305760, Note Name: D#6
Note ON: Time 305760, Note Name: D6, Velocity: 56
Note OFF: Time 305880, Note Name: D6
Note ON: Time 305880, Note Name: C6, Velocity: 51
Note OFF: Time 306000, Note Name: C6
Note ON: Time 306000, Note Name: D6, Velocity: 56
Note OFF: Time 306240, Note Name: D6
Note ON: Time 306420, Note Name: F#6, Velocity: 51
Note OFF: Time 306480, Note Name: F#6
Note ON: Time 306480, Note Name: F6, Velocity: 57
Note OFF: Time 306600, Note Name: F6
Note ON: Time 306600, Note Name: E6, Velocity: 50
Note OFF: Time 306720, Note Name: E6
Note ON: Time 306720, Note Name: F6, Velocity: 60
Note OFF: Time 306840, Note Name: F6
Note ON: Time 307140, Note Name: B6, Velocity: 51
Note OFF: Time 307200, Note Name: B6
Note ON: Time 307200, Note Name: A#6, Velocity: 56
Note OFF: Time 307320, Note Name: A#6
Note ON: Time 307320, Note Name: A6, Velocity: 51
Note OFF: Time 307440, Note Name: A6
Note ON: Time 307440, Note Name: A#6, Velocity: 56
Note OFF: Time 307680, Note Name: A#6
Note ON: Time 307860, Note Name: F#6, Velocity: 51
Note OFF: Time 307920, Note Name: F#6
Note ON: Time 307920, Note Name: F6, Velocity: 57
Note OFF: Time 308040, Note Name: F6
Note ON: Time 308040, Note Name: E6, Velocity: 50
Note OFF: Time 308160, Note Name: E6
Note ON: Time 308160, Note Name: F6, Velocity: 60
Note OFF: Time 308280, Note Name: F6
Note ON: Time 308580, Note Name: D#6, Velocity: 51
Note OFF: Time 308640, Note Name: D#6
Note ON: Time 308640, Note Name: D6, Velocity: 56
Note OFF: Time 308760, Note Name: D6
Note ON: Time 308760, Note Name: C6, Velocity: 51
Note OFF: Time 308880, Note Name: C6
Note ON: Time 308880, Note Name: D6, Velocity: 56
Note OFF: Time 309120, Note Name: D6
Note ON: Time 309300, Note Name: B5, Velocity: 51
Note OFF: Time 309360, Note Name: B5
Note ON: Time 309360, Note Name: A#5, Velocity: 57
Note OFF: Time 309480, Note Name: A#5
Note ON: Time 309480, Note Name: A5, Velocity: 50
Note OFF: Time 309600, Note Name: A5
Note ON: Time 309600, Note Name: A#5, Velocity: 60
Note OFF: Time 309720, Note Name: A#5
Note ON: Time 310020, Note Name: F#5, Velocity: 51
Note OFF: Time 310080, Note Name: F#5
Note ON: Time 310080, Note Name: F5, Velocity: 56
Note OFF: Time 310200, Note Name: F5
Note ON: Time 310200, Note Name: E5, Velocity: 51
Note OFF: Time 310320, Note Name: E5
Note ON: Time 310320, Note Name: F5, Velocity: 56
Note OFF: Time 310560, Note Name: F5
Note ON: Time 310800, Note Name: F#5, Velocity: 52
Note OFF: Time 311040, Note Name: F#5
Note ON: Time 311040, Note Name: G5, Velocity: 56
Note ON: Time 311040, Note Name: A#4, Velocity: 35
Note OFF: Time 311160, Note Name: A#4
Note ON: Time 311160, Note Name: C5, Velocity: 31
Note OFF: Time 311280, Note Name: C5
Note ON: Time 311280, Note Name: A#4, Velocity: 35
Note OFF: Time 311400, Note Name: A#4
Note ON: Time 311400, Note Name: C5, Velocity: 31
Note OFF: Time 311520, Note Name: C5
Note ON: Time 311520, Note Name: A#4, Velocity: 34
Note OFF: Time 311640, Note Name: A#4
Note ON: Time 311640, Note Name: C5, Velocity: 31
Note OFF: Time 311760, Note Name: C5
Note OFF: Time 311760, Note Name: G5
Note ON: Time 311760, Note Name: A#4, Velocity: 36
Note ON: Time 311760, Note Name: D#5, Velocity: 55
Note OFF: Time 311880, Note Name: A#4
Note ON: Time 311880, Note Name: C5, Velocity: 32
Note OFF: Time 312000, Note Name: C5
Note ON: Time 312000, Note Name: A#4, Velocity: 36
Note OFF: Time 312120, Note Name: A#4
Note ON: Time 312120, Note Name: C5, Velocity: 31
Note OFF: Time 312240, Note Name: C5
Note ON: Time 312240, Note Name: A#4, Velocity: 37
Note OFF: Time 312360, Note Name: A#4
Note ON: Time 312360, Note Name: C5, Velocity: 31
Note OFF: Time 312480, Note Name: C5
Note OFF: Time 312480, Note Name: D#5
Note ON: Time 312480, Note Name: D5, Velocity: 59
Note ON: Time 312480, Note Name: A#4, Velocity: 37
Note OFF: Time 312600, Note Name: A#4
Note ON: Time 312600, Note Name: C5, Velocity: 33
Note OFF: Time 312720, Note Name: C5
Note ON: Time 312720, Note Name: A#4, Velocity: 37
Note OFF: Time 312840, Note Name: A#4
Note ON: Time 312840, Note Name: C5, Velocity: 33
Note OFF: Time 312960, Note Name: C5
Note ON: Time 312960, Note Name: A#4, Velocity: 37
Note OFF: Time 313080, Note Name: A#4
Note ON: Time 313080, Note Name: C5, Velocity: 34
Note OFF: Time 313200, Note Name: C5
Note OFF: Time 313200, Note Name: D5
Note ON: Time 313200, Note Name: A#4, Velocity: 38
Note ON: Time 313200, Note Name: G#5, Velocity: 59
Note OFF: Time 313320, Note Name: A#4
Note ON: Time 313320, Note Name: C5, Velocity: 34
Note OFF: Time 313440, Note Name: C5
Note ON: Time 313440, Note Name: A#4, Velocity: 39
Note OFF: Time 313560, Note Name: A#4
Note ON: Time 313560, Note Name: C5, Velocity: 33
Note OFF: Time 313680, Note Name: C5
Note ON: Time 313680, Note Name: A#4, Velocity: 39
Note OFF: Time 313800, Note Name: A#4
Note ON: Time 313800, Note Name: C5, Velocity: 34
Note OFF: Time 313920, Note Name: C5
Note OFF: Time 313920, Note Name: G#5
Note ON: Time 313920, Note Name: A#4, Velocity: 40
Note ON: Time 313920, Note Name: G5, Velocity: 64
Note OFF: Time 314040, Note Name: A#4
Note ON: Time 314040, Note Name: C5, Velocity: 35
Note OFF: Time 314160, Note Name: C5
Note ON: Time 314160, Note Name: A#4, Velocity: 39
Note OFF: Time 314280, Note Name: A#4
Note ON: Time 314280, Note Name: C5, Velocity: 35
Note OFF: Time 314400, Note Name: C5
Note ON: Time 314400, Note Name: A#4, Velocity: 38
Note OFF: Time 314520, Note Name: A#4
Note ON: Time 314520, Note Name: C5, Velocity: 34
Note OFF: Time 314640, Note Name: C5
Note OFF: Time 314640, Note Name: G5
Note ON: Time 314640, Note Name: D#5, Velocity: 60
Note ON: Time 314640, Note Name: A#4, Velocity: 39
Note OFF: Time 314760, Note Name: A#4
Note ON: Time 314760, Note Name: C5, Velocity: 34
Note OFF: Time 314880, Note Name: C5
Note ON: Time 314880, Note Name: A#4, Velocity: 38
Note OFF: Time 315000, Note Name: A#4
Note ON: Time 315000, Note Name: C5, Velocity: 33
Note OFF: Time 315120, Note Name: C5
Note ON: Time 315120, Note Name: A#4, Velocity: 38
Note OFF: Time 315240, Note Name: A#4
Note ON: Time 315240, Note Name: C5, Velocity: 32
Note OFF: Time 315360, Note Name: C5
Note OFF: Time 315360, Note Name: D#5
Note ON: Time 315360, Note Name: A#4, Velocity: 37
Note ON: Time 315360, Note Name: D5, Velocity: 60
Note OFF: Time 315480, Note Name: A#4
Note ON: Time 315480, Note Name: C5, Velocity: 33
Note OFF: Time 315600, Note Name: C5
Note ON: Time 315600, Note Name: A#4, Velocity: 37
Note OFF: Time 315720, Note Name: A#4
Note ON: Time 315720, Note Name: C5, Velocity: 32
Note OFF: Time 315840, Note Name: C5
Note ON: Time 315840, Note Name: A#4, Velocity: 35
Note OFF: Time 315960, Note Name: A#4
Note ON: Time 315960, Note Name: C5, Velocity: 32
Note OFF: Time 316080, Note Name: C5
Note OFF: Time 316080, Note Name: D5
Note ON: Time 316080, Note Name: G#5, Velocity: 56
Note ON: Time 316080, Note Name: A#4, Velocity: 36
Note OFF: Time 316200, Note Name: A#4
Note ON: Time 316200, Note Name: C5, Velocity: 32
Note OFF: Time 316320, Note Name: C5
Note ON: Time 316320, Note Name: A#4, Velocity: 36
Note OFF: Time 316440, Note Name: A#4
Note ON: Time 316440, Note Name: C5, Velocity: 30
Note OFF: Time 316560, Note Name: C5
Note ON: Time 316560, Note Name: A#4, Velocity: 35
Note OFF: Time 316680, Note Name: A#4
Note ON: Time 316680, Note Name: C5, Velocity: 30
Note OFF: Time 316800, Note Name: C5
Note OFF: Time 316800, Note Name: G#5
Note ON: Time 316800, Note Name: A#4, Velocity: 48
Note ON: Time 316800, Note Name: G5, Velocity: 51
Note OFF: Time 316920, Note Name: G5
Note OFF: Time 316920, Note Name: A#4
Note ON: Time 316920, Note Name: C5, Velocity: 45
Note OFF: Time 317040, Note Name: C5
Note ON: Time 317040, Note Name: D5, Velocity: 50
Note OFF: Time 317160, Note Name: D5
Note ON: Time 317160, Note Name: D#5, Velocity: 52
Note OFF: Time 317280, Note Name: D#5
Note ON: Time 317280, Note Name: F5, Velocity: 54
Note OFF: Time 317360, Note Name: F5
Note ON: Time 317360, Note Name: G5, Velocity: 56
Note OFF: Time 317440, Note Name: G5
Note ON: Time 317440, Note Name: G#5, Velocity: 59
Note OFF: Time 317520, Note Name: G#5
Note ON: Time 317520, Note Name: A#5, Velocity: 61
Note OFF: Time 317640, Note Name: A#5
Note ON: Time 317640, Note Name: G#5, Velocity: 60
Note OFF: Time 317760, Note Name: G#5
Note ON: Time 317760, Note Name: G5, Velocity: 58
Note OFF: Time 317840, Note Name: G5
Note ON: Time 317840, Note Name: F5, Velocity: 56
Note OFF: Time 317920, Note Name: F5
Note ON: Time 317920, Note Name: D#5, Velocity: 54
Note OFF: Time 318000, Note Name: D#5
Note ON: Time 318000, Note Name: D5, Velocity: 53
Note OFF: Time 318080, Note Name: D5
Note ON: Time 318080, Note Name: C5, Velocity: 51
Note OFF: Time 318160, Note Name: C5
Note ON: Time 318160, Note Name: B4, Velocity: 49
Note OFF: Time 318240, Note Name: B4
Note ON: Time 318240, Note Name: C5, Velocity: 54
Note OFF: Time 318360, Note Name: C5
Note ON: Time 318360, Note Name: D#5, Velocity: 45
Note OFF: Time 318480, Note Name: D#5
Note ON: Time 318480, Note Name: F5, Velocity: 48
Note OFF: Time 318600, Note Name: F5
Note ON: Time 318600, Note Name: G5, Velocity: 50
Note OFF: Time 318720, Note Name: G5
Note ON: Time 318720, Note Name: G#5, Velocity: 56
Note OFF: Time 318840, Note Name: G#5
Note ON: Time 318840, Note Name: A#5, Velocity: 59
Note OFF: Time 318960, Note Name: A#5
Note ON: Time 318960, Note Name: C6, Velocity: 61
Note OFF: Time 319080, Note Name: C6
Note ON: Time 319080, Note Name: A#5, Velocity: 60
Note OFF: Time 319200, Note Name: A#5
Note ON: Time 319200, Note Name: G#5, Velocity: 58
Note OFF: Time 319280, Note Name: G#5
Note ON: Time 319280, Note Name: G5, Velocity: 57
Note OFF: Time 319360, Note Name: G5
Note ON: Time 319360, Note Name: F5, Velocity: 56
Note OFF: Time 319440, Note Name: F5
Note ON: Time 319440, Note Name: D#5, Velocity: 55
Note OFF: Time 319520, Note Name: D#5
Note ON: Time 319520, Note Name: D5, Velocity: 54
Note OFF: Time 319600, Note Name: D5
Note ON: Time 319600, Note Name: C5, Velocity: 53
Note OFF: Time 319680, Note Name: C5
Note ON: Time 319680, Note Name: A#4, Velocity: 57
Note OFF: Time 319800, Note Name: A#4
Note ON: Time 319800, Note Name: G5, Velocity: 49
Note OFF: Time 319920, Note Name: G5
Note ON: Time 319920, Note Name: D#5, Velocity: 59
Note OFF: Time 320040, Note Name: D#5
Note ON: Time 320040, Note Name: A#5, Velocity: 55
Note OFF: Time 320160, Note Name: A#5
Note ON: Time 320160, Note Name: G5, Velocity: 62
Note OFF: Time 320280, Note Name: G5
Note ON: Time 320280, Note Name: D#6, Velocity: 57
Note OFF: Time 320400, Note Name: D#6
Note ON: Time 320400, Note Name: A#5, Velocity: 62
Note OFF: Time 320520, Note Name: A#5
Note ON: Time 320520, Note Name: G6, Velocity: 57
Note OFF: Time 320640, Note Name: G6
Note ON: Time 320640, Note Name: D#6, Velocity: 55
Note ON: Time 320753, Note Name: A#6, Velocity: 61
Note OFF: Time 320760, Note Name: D#6
Note OFF: Time 320873, Note Name: A#6
Note ON: Time 320880, Note Name: G6, Velocity: 53
Note OFF: Time 321000, Note Name: G6
Note ON: Time 321000, Note Name: D#6, Velocity: 54
Note OFF: Time 321120, Note Name: D#6
Note ON: Time 321120, Note Name: A#5, Velocity: 59
Note OFF: Time 321600, Note Name: A#5
Note ON: Time 321840, Note Name: F6, Velocity: 59
Note OFF: Time 321920, Note Name: F6
Note ON: Time 321920, Note Name: G6, Velocity: 52
Note OFF: Time 322000, Note Name: G6
Note ON: Time 322000, Note Name: F6, Velocity: 59
Note OFF: Time 322080, Note Name: F6
Note ON: Time 322080, Note Name: G6, Velocity: 54
Note OFF: Time 322160, Note Name: G6
Note ON: Time 322160, Note Name: F6, Velocity: 59
Note OFF: Time 322240, Note Name: F6
Note ON: Time 322240, Note Name: G6, Velocity: 53
Note OFF: Time 322320, Note Name: G6
Note ON: Time 322320, Note Name: F6, Velocity: 59
Note OFF: Time 322400, Note Name: F6
Note ON: Time 322400, Note Name: G6, Velocity: 53
Note OFF: Time 322480, Note Name: G6
Note ON: Time 322480, Note Name: F6, Velocity: 56
Note OFF: Time 322560, Note Name: F6
Note ON: Time 322560, Note Name: G6, Velocity: 67
Note ON: Time 322560, Note Name: A#5, Velocity: 45
Note OFF: Time 322680, Note Name: A#5
Note ON: Time 322680, Note Name: C6, Velocity: 34
Note OFF: Time 322800, Note Name: C6
Note ON: Time 322800, Note Name: A#5, Velocity: 38
Note OFF: Time 322920, Note Name: A#5
Note ON: Time 322920, Note Name: C6, Velocity: 34
Note OFF: Time 323040, Note Name: C6
Note ON: Time 323040, Note Name: A#5, Velocity: 37
Note OFF: Time 323160, Note Name: A#5
Note ON: Time 323160, Note Name: C6, Velocity: 34
Note OFF: Time 323280, Note Name: C6
Note OFF: Time 323280, Note Name: G6
Note ON: Time 323280, Note Name: D#6, Velocity: 60
Note ON: Time 323280, Note Name: A#5, Velocity: 39
Note OFF: Time 323400, Note Name: A#5
Note ON: Time 323400, Note Name: C6, Velocity: 35
Note OFF: Time 323520, Note Name: C6
Note ON: Time 323520, Note Name: A#5, Velocity: 39
Note OFF: Time 323640, Note Name: A#5
Note ON: Time 323640, Note Name: C6, Velocity: 34
Note OFF: Time 323760, Note Name: C6
Note ON: Time 323760, Note Name: A#5, Velocity: 40
Note OFF: Time 323880, Note Name: A#5
Note ON: Time 323880, Note Name: C6, Velocity: 34
Note OFF: Time 324000, Note Name: C6
Note OFF: Time 324000, Note Name: D#6
Note ON: Time 324000, Note Name: A#5, Velocity: 40
Note ON: Time 324000, Note Name: D6, Velocity: 64
Note OFF: Time 324120, Note Name: A#5
Note ON: Time 324120, Note Name: C6, Velocity: 36
Note OFF: Time 324240, Note Name: C6
Note ON: Time 324240, Note Name: A#5, Velocity: 40
Note OFF: Time 324360, Note Name: A#5
Note ON: Time 324360, Note Name: C6, Velocity: 36
Note OFF: Time 324480, Note Name: C6
Note ON: Time 324480, Note Name: A#5, Velocity: 40
Note OFF: Time 324600, Note Name: A#5
Note ON: Time 324600, Note Name: C6, Velocity: 37
Note OFF: Time 324720, Note Name: C6
Note OFF: Time 324720, Note Name: D6
Note ON: Time 324720, Note Name: G#6, Velocity: 64
Note ON: Time 324720, Note Name: A#5, Velocity: 41
Note OFF: Time 324840, Note Name: A#5
Note ON: Time 324840, Note Name: C6, Velocity: 37
Note OFF: Time 324960, Note Name: C6
Note ON: Time 324960, Note Name: A#5, Velocity: 42
Note OFF: Time 325080, Note Name: A#5
Note ON: Time 325080, Note Name: C6, Velocity: 36
Note OFF: Time 325200, Note Name: C6
Note ON: Time 325200, Note Name: A#5, Velocity: 42
Note OFF: Time 325320, Note Name: A#5
Note ON: Time 325320, Note Name: C6, Velocity: 37
Note OFF: Time 325440, Note Name: C6
Note OFF: Time 325440, Note Name: G#6
Note ON: Time 325440, Note Name: G6, Velocity: 70
Note ON: Time 325440, Note Name: A#5, Velocity: 44
Note OFF: Time 325560, Note Name: A#5
Note ON: Time 325560, Note Name: C6, Velocity: 38
Note OFF: Time 325680, Note Name: C6
Note ON: Time 325680, Note Name: A#5, Velocity: 42
Note OFF: Time 325800, Note Name: A#5
Note ON: Time 325800, Note Name: C6, Velocity: 38
Note OFF: Time 325920, Note Name: C6
Note ON: Time 325920, Note Name: A#5, Velocity: 41
Note OFF: Time 326040, Note Name: A#5
Note ON: Time 326040, Note Name: C6, Velocity: 37
Note OFF: Time 326160, Note Name: C6
Note OFF: Time 326160, Note Name: G6
Note ON: Time 326160, Note Name: A#5, Velocity: 42
Note ON: Time 326160, Note Name: D#6, Velocity: 66
Note OFF: Time 326280, Note Name: A#5
Note ON: Time 326280, Note Name: C6, Velocity: 37
Note OFF: Time 326400, Note Name: C6
Note ON: Time 326400, Note Name: A#5, Velocity: 41
Note OFF: Time 326520, Note Name: A#5
Note ON: Time 326520, Note Name: C6, Velocity: 36
Note OFF: Time 326640, Note Name: C6
Note ON: Time 326640, Note Name: A#5, Velocity: 41
Note OFF: Time 326760, Note Name: A#5
Note ON: Time 326760, Note Name: C6, Velocity: 35
Note OFF: Time 326880, Note Name: C6
Note OFF: Time 326880, Note Name: D#6
Note ON: Time 326880, Note Name: D6, Velocity: 66
Note ON: Time 326880, Note Name: A#5, Velocity: 40
Note OFF: Time 327000, Note Name: A#5
Note ON: Time 327000, Note Name: C6, Velocity: 36
Note OFF: Time 327120, Note Name: C6
Note ON: Time 327120, Note Name: A#5, Velocity: 40
Note OFF: Time 327240, Note Name: A#5
Note ON: Time 327240, Note Name: C6, Velocity: 35
Note OFF: Time 327360, Note Name: C6
Note ON: Time 327360, Note Name: A#5, Velocity: 38
Note OFF: Time 327480, Note Name: A#5
Note ON: Time 327480, Note Name: C6, Velocity: 35
Note OFF: Time 327600, Note Name: C6
Note OFF: Time 327600, Note Name: D6
Note ON: Time 327600, Note Name: A#5, Velocity: 39
Note ON: Time 327600, Note Name: G#6, Velocity: 61
Note OFF: Time 327720, Note Name: A#5
Note ON: Time 327720, Note Name: C6, Velocity: 35
Note OFF: Time 327840, Note Name: C6
Note ON: Time 327840, Note Name: A#5, Velocity: 39
Note OFF: Time 327960, Note Name: A#5
Note ON: Time 327960, Note Name: C6, Velocity: 33
Note OFF: Time 328080, Note Name: C6
Note ON: Time 328080, Note Name: A#5, Velocity: 38
Note OFF: Time 328200, Note Name: A#5
Note ON: Time 328200, Note Name: C6, Velocity: 33
Note OFF: Time 328320, Note Name: C6
Note OFF: Time 328320, Note Name: G#6
Note ON: Time 328560, Note Name: D#6, Velocity: 49
Note ON: Time 328560, Note Name: G6, Velocity: 49
Note OFF: Time 328680, Note Name: G6
Note OFF: Time 328680, Note Name: D#6
Note ON: Time 328800, Note Name: G6, Velocity: 49
Note ON: Time 328800, Note Name: D#6, Velocity: 49
Note OFF: Time 328920, Note Name: D#6
Note OFF: Time 328920, Note Name: G6
Note ON: Time 329040, Note Name: D#6, Velocity: 52
Note ON: Time 329040, Note Name: G6, Velocity: 52
Note OFF: Time 329160, Note Name: G6
Note OFF: Time 329160, Note Name: D#6
Note ON: Time 329280, Note Name: D#6, Velocity: 46
Note ON: Time 329280, Note Name: G6, Velocity: 46
Note OFF: Time 329400, Note Name: G6
Note OFF: Time 329400, Note Name: D#6
Note ON: Time 329520, Note Name: D#6, Velocity: 46
Note ON: Time 329520, Note Name: G6, Velocity: 46
Note OFF: Time 329640, Note Name: G6
Note OFF: Time 329640, Note Name: D#6
Note ON: Time 330000, Note Name: D#6, Velocity: 49
Note ON: Time 330000, Note Name: F6, Velocity: 49
Note OFF: Time 330120, Note Name: F6
Note OFF: Time 330120, Note Name: D#6
Note ON: Time 330240, Note Name: F6, Velocity: 49
Note ON: Time 330240, Note Name: D#6, Velocity: 49
Note OFF: Time 330360, Note Name: D#6
Note OFF: Time 330360, Note Name: F6
Note ON: Time 330480, Note Name: F6, Velocity: 53
Note ON: Time 330480, Note Name: D#6, Velocity: 53
Note OFF: Time 330600, Note Name: D#6
Note OFF: Time 330600, Note Name: F6
Note ON: Time 330720, Note Name: F6, Velocity: 48
Note ON: Time 330720, Note Name: D#6, Velocity: 48
Note OFF: Time 330840, Note Name: D#6
Note OFF: Time 330840, Note Name: F6
Note ON: Time 330960, Note Name: F6, Velocity: 50
Note ON: Time 330960, Note Name: D#6, Velocity: 50
Note OFF: Time 331080, Note Name: D#6
Note OFF: Time 331080, Note Name: F6
Note ON: Time 331440, Note Name: G6, Velocity: 52
Note ON: Time 331440, Note Name: D#6, Velocity: 52
Note OFF: Time 331560, Note Name: D#6
Note OFF: Time 331560, Note Name: G6
Note ON: Time 331680, Note Name: G6, Velocity: 53
Note ON: Time 331680, Note Name: D#6, Velocity: 53
Note OFF: Time 331800, Note Name: D#6
Note OFF: Time 331800, Note Name: G6
Note ON: Time 331920, Note Name: G6, Velocity: 57
Note ON: Time 331920, Note Name: D#6, Velocity: 57
Note OFF: Time 332040, Note Name: D#6
Note OFF: Time 332040, Note Name: G6
Note ON: Time 332160, Note Name: G6, Velocity: 51
Note ON: Time 332160, Note Name: D#6, Velocity: 51
Note OFF: Time 332280, Note Name: D#6
Note OFF: Time 332280, Note Name: G6
Note ON: Time 332400, Note Name: G6, Velocity: 52
Note ON: Time 332400, Note Name: D#6, Velocity: 52
Note OFF: Time 332520, Note Name: D#6
Note OFF: Time 332520, Note Name: G6
Note ON: Time 332640, Note Name: F6, Velocity: 64
Note ON: Time 332640, Note Name: D6, Velocity: 64
Note OFF: Time 332760, Note Name: D6
Note OFF: Time 332760, Note Name: F6
Note ON: Time 332880, Note Name: F6, Velocity: 50
Note ON: Time 332880, Note Name: D6, Velocity: 50
Note OFF: Time 333000, Note Name: D6
Note OFF: Time 333000, Note Name: F6
Note ON: Time 333120, Note Name: F6, Velocity: 49
Note ON: Time 333120, Note Name: D6, Velocity: 49
Note OFF: Time 333240, Note Name: D6
Note OFF: Time 333240, Note Name: F6
Note ON: Time 333360, Note Name: D6, Velocity: 58
Note ON: Time 333360, Note Name: F6, Velocity: 58
Note OFF: Time 333480, Note Name: F6
Note OFF: Time 333480, Note Name: D6
Note ON: Time 333600, Note Name: D6, Velocity: 49
Note ON: Time 333600, Note Name: F6, Velocity: 49
Note OFF: Time 333720, Note Name: F6
Note OFF: Time 333720, Note Name: D6
Note ON: Time 333840, Note Name: D6, Velocity: 48
Note ON: Time 333840, Note Name: F6, Velocity: 48
Note OFF: Time 333960, Note Name: F6
Note OFF: Time 333960, Note Name: D6
Note ON: Time 334560, Note Name: C#6, Velocity: 68
Note ON: Time 334560, Note Name: C#7, Velocity: 80
Note OFF: Time 335280, Note Name: C#7
Note OFF: Time 335280, Note Name: C#6
Note ON: Time 335280, Note Name: C7, Velocity: 77
Note ON: Time 335280, Note Name: C6, Velocity: 64
Note OFF: Time 335520, Note Name: C6
Note OFF: Time 335520, Note Name: C7
Note ON: Time 336000, Note Name: B4, Velocity: 69
Note ON: Time 336000, Note Name: B5, Velocity: 81
Note OFF: Time 336720, Note Name: B5
Note OFF: Time 336720, Note Name: B4
Note ON: Time 336720, Note Name: A#4, Velocity: 67
Note ON: Time 336720, Note Name: A#5, Velocity: 80
Note OFF: Time 336960, Note Name: A#5
Note OFF: Time 336960, Note Name: A#4
Note ON: Time 337440, Note Name: C#4, Velocity: 73
Note ON: Time 337440, Note Name: C#5, Velocity: 86
Note OFF: Time 338160, Note Name: C#5
Note OFF: Time 338160, Note Name: C#4
Note ON: Time 338160, Note Name: C4, Velocity: 63
Note ON: Time 338160, Note Name: C5, Velocity: 77
Note OFF: Time 338400, Note Name: C5
Note OFF: Time 338400, Note Name: C4
Note ON: Time 338880, Note Name: B2, Velocity: 78
Note ON: Time 338880, Note Name: B3, Velocity: 92
Note OFF: Time 339600, Note Name: B3
Note OFF: Time 339600, Note Name: B2
Note ON: Time 339600, Note Name: A#2, Velocity: 75
Note ON: Time 339600, Note Name: A#3, Velocity: 90
Note OFF: Time 339840, Note Name: A#3
Note OFF: Time 339840, Note Name: A#2
Note ON: Time 340080, Note Name: A#4, Velocity: 71
Note ON: Time 340080, Note Name: A#3, Velocity: 60
Note OFF: Time 340200, Note Name: A#3
Note OFF: Time 340200, Note Name: A#4
Note ON: Time 340320, Note Name: A#4, Velocity: 68
Note ON: Time 340320, Note Name: A#3, Velocity: 57
Note OFF: Time 340440, Note Name: A#3
Note OFF: Time 340440, Note Name: A#4
Note ON: Time 340800, Note Name: G#4, Velocity: 69
Note ON: Time 340800, Note Name: G#3, Velocity: 58
Note OFF: Time 340920, Note Name: G#3
Note OFF: Time 340920, Note Name: G#4
Note ON: Time 341040, Note Name: G4, Velocity: 65
Note ON: Time 341040, Note Name: G3, Velocity: 55
Note OFF: Time 341160, Note Name: G3
Note OFF: Time 341160, Note Name: G4
Note ON: Time 341520, Note Name: G4, Velocity: 71
Note ON: Time 341520, Note Name: G3, Velocity: 60
Note OFF: Time 341640, Note Name: G3
Note OFF: Time 341640, Note Name: G4
Note ON: Time 341760, Note Name: F4, Velocity: 68
Note ON: Time 341760, Note Name: F3, Velocity: 57
Note OFF: Time 341880, Note Name: F3
Note OFF: Time 341880, Note Name: F4
Note ON: Time 342240, Note Name: D#4, Velocity: 69
Note ON: Time 342240, Note Name: D#3, Velocity: 58
Note OFF: Time 342360, Note Name: D#3
Note OFF: Time 342360, Note Name: D#4
Note ON: Time 342480, Note Name: D4, Velocity: 65
Note ON: Time 342480, Note Name: D3, Velocity: 55
Note OFF: Time 342600, Note Name: D3
Note OFF: Time 342600, Note Name: D4
Note ON: Time 342960, Note Name: A#5, Velocity: 71
Note ON: Time 342960, Note Name: A#4, Velocity: 60
Note OFF: Time 343080, Note Name: A#4
Note OFF: Time 343080, Note Name: A#5
Note ON: Time 343200, Note Name: A#5, Velocity: 68
Note ON: Time 343200, Note Name: A#4, Velocity: 57
Note OFF: Time 343320, Note Name: A#4
Note OFF: Time 343320, Note Name: A#5
Note ON: Time 343680, Note Name: G#5, Velocity: 69
Note ON: Time 343680, Note Name: G#4, Velocity: 58
Note OFF: Time 343800, Note Name: G#4
Note OFF: Time 343800, Note Name: G#5
Note ON: Time 343920, Note Name: G5, Velocity: 65
Note ON: Time 343920, Note Name: G4, Velocity: 55
Note OFF: Time 344040, Note Name: G4
Note OFF: Time 344040, Note Name: G5
Note ON: Time 344400, Note Name: G5, Velocity: 71
Note ON: Time 344400, Note Name: G4, Velocity: 60
Note OFF: Time 344520, Note Name: G4
Note OFF: Time 344520, Note Name: G5
Note ON: Time 344640, Note Name: F5, Velocity: 68
Note ON: Time 344640, Note Name: F4, Velocity: 57
Note OFF: Time 344760, Note Name: F4
Note OFF: Time 344760, Note Name: F5
Note ON: Time 345120, Note Name: D#5, Velocity: 69
Note ON: Time 345120, Note Name: D#4, Velocity: 58
Note OFF: Time 345240, Note Name: D#4
Note OFF: Time 345240, Note Name: D#5
Note ON: Time 345360, Note Name: D5, Velocity: 65
Note ON: Time 345360, Note Name: D4, Velocity: 55
Note OFF: Time 345480, Note Name: D4
Note OFF: Time 345480, Note Name: D5
Note ON: Time 345840, Note Name: D#5, Velocity: 71
Note ON: Time 345840, Note Name: G4, Velocity: 60
Note ON: Time 345840, Note Name: D#4, Velocity: 60
Note OFF: Time 345960, Note Name: D#4
Note OFF: Time 345960, Note Name: G4
Note OFF: Time 345960, Note Name: D#5
Note ON: Time 346080, Note Name: A#4, Velocity: 69
Note ON: Time 346080, Note Name: G4, Velocity: 58
Note ON: Time 346080, Note Name: D#4, Velocity: 58
Note OFF: Time 346200, Note Name: D#4
Note OFF: Time 346200, Note Name: G4
Note OFF: Time 346200, Note Name: A#4
Note ON: Time 346560, Note Name: C4, Velocity: 74
Note ON: Time 346560, Note Name: G#4, Velocity: 72
Note ON: Time 346560, Note Name: D#4, Velocity: 60
Note OFF: Time 346680, Note Name: D#4
Note OFF: Time 346680, Note Name: G#4
Note OFF: Time 346680, Note Name: C4
Note ON: Time 346800, Note Name: G4, Velocity: 68
Note ON: Time 346800, Note Name: D#4, Velocity: 58
Note ON: Time 346800, Note Name: C4, Velocity: 58
Note OFF: Time 346920, Note Name: C4
Note OFF: Time 346920, Note Name: D#4
Note OFF: Time 346920, Note Name: G4
Note ON: Time 347280, Note Name: G4, Velocity: 76
Note ON: Time 347280, Note Name: C4, Velocity: 64
Note ON: Time 347280, Note Name: G#3, Velocity: 64
Note OFF: Time 347400, Note Name: G#3
Note OFF: Time 347400, Note Name: C4
Note OFF: Time 347400, Note Name: G4
Note ON: Time 347520, Note Name: F4, Velocity: 74
Note ON: Time 347520, Note Name: C4, Velocity: 62
Note ON: Time 347520, Note Name: G#3, Velocity: 62
Note OFF: Time 347640, Note Name: G#3
Note OFF: Time 347640, Note Name: C4
Note OFF: Time 347640, Note Name: F4
Note ON: Time 348000, Note Name: F3, Velocity: 79
Note ON: Time 348000, Note Name: D#4, Velocity: 77
Note ON: Time 348000, Note Name: G#3, Velocity: 64
Note OFF: Time 348120, Note Name: G#3
Note OFF: Time 348120, Note Name: D#4
Note OFF: Time 348120, Note Name: F3
Note ON: Time 348240, Note Name: D4, Velocity: 73
Note ON: Time 348240, Note Name: G#3, Velocity: 62
Note ON: Time 348240, Note Name: F3, Velocity: 62
Note OFF: Time 348360, Note Name: F3
Note OFF: Time 348360, Note Name: G#3
Note OFF: Time 348360, Note Name: D4
Note ON: Time 348480, Note Name: D#3, Velocity: 62
Note OFF: Time 348600, Note Name: D#3
Note ON: Time 348600, Note Name: F3, Velocity: 63
Note OFF: Time 348720, Note Name: F3
Note ON: Time 348720, Note Name: G3, Velocity: 65
Note OFF: Time 348840, Note Name: G3
Note ON: Time 348840, Note Name: G#3, Velocity: 66
Note OFF: Time 348960, Note Name: G#3
Note ON: Time 348960, Note Name: A#3, Velocity: 67
Note OFF: Time 349040, Note Name: A#3
Note ON: Time 349040, Note Name: C4, Velocity: 68
Note OFF: Time 349120, Note Name: C4
Note ON: Time 349120, Note Name: D4, Velocity: 68
Note OFF: Time 349200, Note Name: D4
Note ON: Time 349200, Note Name: D#4, Velocity: 69
Note OFF: Time 349280, Note Name: D#4
Note ON: Time 349280, Note Name: F4, Velocity: 70
Note OFF: Time 349360, Note Name: F4
Note ON: Time 349360, Note Name: G4, Velocity: 71
Note OFF: Time 349440, Note Name: G4
Note ON: Time 349440, Note Name: G#4, Velocity: 72
Note OFF: Time 349520, Note Name: G#4
Note ON: Time 349520, Note Name: A#4, Velocity: 72
Note OFF: Time 349600, Note Name: A#4
Note ON: Time 349600, Note Name: C5, Velocity: 73
Note OFF: Time 349680, Note Name: C5
Note ON: Time 349680, Note Name: D5, Velocity: 85
Note OFF: Time 349800, Note Name: D5
Note ON: Time 349800, Note Name: D4, Velocity: 67
Note OFF: Time 349920, Note Name: D4
Note ON: Time 349920, Note Name: D#4, Velocity: 62
Note OFF: Time 350040, Note Name: D#4
Note ON: Time 350040, Note Name: F4, Velocity: 63
Note OFF: Time 350160, Note Name: F4
Note ON: Time 350160, Note Name: G4, Velocity: 65
Note OFF: Time 350280, Note Name: G4
Note ON: Time 350280, Note Name: G#4, Velocity: 66
Note OFF: Time 350400, Note Name: G#4
Note ON: Time 350400, Note Name: A#4, Velocity: 67
Note OFF: Time 350480, Note Name: A#4
Note ON: Time 350480, Note Name: C5, Velocity: 68
Note OFF: Time 350560, Note Name: C5
Note ON: Time 350560, Note Name: D5, Velocity: 68
Note OFF: Time 350640, Note Name: D5
Note ON: Time 350640, Note Name: D#5, Velocity: 69
Note OFF: Time 350720, Note Name: D#5
Note ON: Time 350720, Note Name: F5, Velocity: 70
Note OFF: Time 350800, Note Name: F5
Note ON: Time 350800, Note Name: G5, Velocity: 71
Note OFF: Time 350880, Note Name: G5
Note ON: Time 350880, Note Name: G#5, Velocity: 72
Note OFF: Time 350960, Note Name: G#5
Note ON: Time 350960, Note Name: A#5, Velocity: 72
Note OFF: Time 351040, Note Name: A#5
Note ON: Time 351040, Note Name: C6, Velocity: 73
Note OFF: Time 351120, Note Name: C6
Note ON: Time 351120, Note Name: D6, Velocity: 85
Note OFF: Time 351240, Note Name: D6
Note ON: Time 351240, Note Name: D5, Velocity: 67
Note OFF: Time 351360, Note Name: D5
Note ON: Time 351360, Note Name: D#5, Velocity: 62
Note OFF: Time 351480, Note Name: D#5
Note ON: Time 351480, Note Name: F5, Velocity: 63
Note OFF: Time 351600, Note Name: F5
Note ON: Time 351600, Note Name: G5, Velocity: 65
Note OFF: Time 351720, Note Name: G5
Note ON: Time 351720, Note Name: G#5, Velocity: 66
Note OFF: Time 351840, Note Name: G#5
Note ON: Time 351840, Note Name: A#5, Velocity: 68
Note OFF: Time 351920, Note Name: A#5
Note ON: Time 351920, Note Name: C6, Velocity: 70
Note OFF: Time 352000, Note Name: C6
Note ON: Time 352000, Note Name: D6, Velocity: 72
Note OFF: Time 352080, Note Name: D6
Note ON: Time 352080, Note Name: D#6, Velocity: 74
Note OFF: Time 352200, Note Name: D#6
Note ON: Time 352200, Note Name: F6, Velocity: 78
Note OFF: Time 352320, Note Name: F6
Note ON: Time 352320, Note Name: G6, Velocity: 82
Note OFF: Time 352440, Note Name: G6
Note ON: Time 352440, Note Name: G#6, Velocity: 86
Note OFF: Time 352560, Note Name: G#6
Note ON: Time 352560, Note Name: A#6, Velocity: 90
Note OFF: Time 352640, Note Name: A#6
Note ON: Time 352640, Note Name: C7, Velocity: 92
Note OFF: Time 352720, Note Name: C7
Note ON: Time 352720, Note Name: D7, Velocity: 95
Note OFF: Time 352800, Note Name: D7
Note ON: Time 352800, Note Name: D#7, Velocity: 103
Note OFF: Time 353280, Note Name: D#7
Note ON: Time 353520, Note Name: G4, Velocity: 75
Note ON: Time 353520, Note Name: A#4, Velocity: 75
Note ON: Time 353520, Note Name: D#5, Velocity: 90
Note OFF: Time 354000, Note Name: D#5
Note OFF: Time 354000, Note Name: A#4
Note OFF: Time 354000, Note Name: G4
Note ON: Time 354240, Note Name: G3, Velocity: 74
Note ON: Time 354240, Note Name: A#3, Velocity: 74
Note ON: Time 354240, Note Name: D#4, Velocity: 89
Note OFF: Time 354720, Note Name: D#4
Note OFF: Time 354720, Note Name: A#3
Note OFF: Time 354720, Note Name: G3
Note ON: Time 354960, Note Name: A#4, Velocity: 70
Note OFF: Time 355440, Note Name: A#4
Note ON: Time 355440, Note Name: A#4, Velocity: 60
Note OFF: Time 355680, Note Name: A#4
Note ON: Time 355680, Note Name: A#4, Velocity: 45
Note OFF: Time 355920, Note Name: A#4
Note ON: Time 355920, Note Name: G4, Velocity: 45
Note OFF: Time 356160, Note Name: G4
Note ON: Time 356160, Note Name: D#4, Velocity: 39
Note OFF: Time 356400, Note Name: D#4
Note ON: Time 356400, Note Name: D4, Velocity: 45
Note OFF: Time 356640, Note Name: D4
Note ON: Time 356640, Note Name: F4, Velocity: 40
Note OFF: Time 356880, Note Name: F4
Note ON: Time 356880, Note Name: A#4, Velocity: 40
Note OFF: Time 357060, Note Name: A#4
Note ON: Time 357120, Note Name: A#4, Velocity: 45
Note OFF: Time 357360, Note Name: A#4
Note ON: Time 357360, Note Name: G4, Velocity: 41
Note OFF: Time 357600, Note Name: G4
Note ON: Time 357600, Note Name: D#4, Velocity: 41
Note OFF: Time 357840, Note Name: D#4
Note ON: Time 357840, Note Name: E4, Velocity: 45
Note OFF: Time 358080, Note Name: E4
Note ON: Time 358080, Note Name: G4, Velocity: 39
Note OFF: Time 358320, Note Name: G4
Note ON: Time 358320, Note Name: C5, Velocity: 46
Note OFF: Time 358500, Note Name: C5
Note ON: Time 358560, Note Name: C5, Velocity: 50
Note OFF: Time 358800, Note Name: C5
Note ON: Time 358800, Note Name: G#4, Velocity: 45
Note OFF: Time 359040, Note Name: G#4
Note ON: Time 359040, Note Name: F4, Velocity: 45
Note OFF: Time 359280, Note Name: F4
Note ON: Time 359280, Note Name: F#4, Velocity: 49
Note OFF: Time 359520, Note Name: F#4
Note ON: Time 359520, Note Name: A4, Velocity: 44
Note OFF: Time 359760, Note Name: A4
Note ON: Time 359760, Note Name: D5, Velocity: 47
Note OFF: Time 359940, Note Name: D5
Note ON: Time 360000, Note Name: D5, Velocity: 56
Note OFF: Time 360240, Note Name: D5
Note ON: Time 360240, Note Name: A#4, Velocity: 45
Note OFF: Time 360480, Note Name: A#4
Note ON: Time 360480, Note Name: G4, Velocity: 45
Note OFF: Time 360720, Note Name: G4
Note ON: Time 360720, Note Name: G#4, Velocity: 51
Note OFF: Time 360960, Note Name: G#4
Note ON: Time 360960, Note Name: A#4, Velocity: 45
Note OFF: Time 361200, Note Name: A#4
Note ON: Time 361200, Note Name: D5, Velocity: 45
Note OFF: Time 361380, Note Name: D5
Note ON: Time 361440, Note Name: D#5, Velocity: 50
Note OFF: Time 361680, Note Name: D#5
Note ON: Time 361680, Note Name: A#4, Velocity: 43
Note OFF: Time 361920, Note Name: A#4
Note ON: Time 361920, Note Name: G4, Velocity: 43
Note OFF: Time 362100, Note Name: G4
Note ON: Time 362160, Note Name: G4, Velocity: 45
Note OFF: Time 362400, Note Name: G4
Note ON: Time 362400, Note Name: A#4, Velocity: 41
Note OFF: Time 362640, Note Name: A#4
Note ON: Time 362640, Note Name: D#5, Velocity: 41
Note OFF: Time 362820, Note Name: D#5
Note ON: Time 362880, Note Name: G5, Velocity: 50
Note OFF: Time 363120, Note Name: G5
Note ON: Time 363120, Note Name: D#5, Velocity: 43
Note OFF: Time 363360, Note Name: D#5
Note ON: Time 363360, Note Name: A#4, Velocity: 44
Note OFF: Time 363540, Note Name: A#4
Note ON: Time 363600, Note Name: A#4, Velocity: 47
Note OFF: Time 363840, Note Name: A#4
Note ON: Time 363840, Note Name: D#5, Velocity: 43
Note OFF: Time 364080, Note Name: D#5
Note ON: Time 364080, Note Name: G5, Velocity: 44
Note OFF: Time 364260, Note Name: G5
Note ON: Time 364320, Note Name: G5, Velocity: 46
Note ON: Time 364320, Note Name: A#5, Velocity: 55
Note OFF: Time 364560, Note Name: A#5
Note OFF: Time 364560, Note Name: G5
Note ON: Time 364560, Note Name: D#5, Velocity: 39
Note ON: Time 364560, Note Name: G5, Velocity: 47
Note OFF: Time 364800, Note Name: G5
Note OFF: Time 364800, Note Name: D#5
Note ON: Time 364800, Note Name: D#5, Velocity: 48
Note ON: Time 364800, Note Name: A#4, Velocity: 40
Note OFF: Time 365040, Note Name: A#4
Note OFF: Time 365040, Note Name: D#5
Note ON: Time 365040, Note Name: G5, Velocity: 51
Note ON: Time 365040, Note Name: D#5, Velocity: 43
Note OFF: Time 365280, Note Name: D#5
Note OFF: Time 365280, Note Name: G5
Note ON: Time 365280, Note Name: A#4, Velocity: 39
Note ON: Time 365280, Note Name: D#5, Velocity: 47
Note OFF: Time 365520, Note Name: D#5
Note OFF: Time 365520, Note Name: A#4
Note ON: Time 365520, Note Name: G4, Velocity: 40
Note ON: Time 365520, Note Name: A#4, Velocity: 48
Note OFF: Time 365700, Note Name: A#4
Note OFF: Time 365700, Note Name: G4
Note ON: Time 365760, Note Name: A#4, Velocity: 50
Note ON: Time 365760, Note Name: D#5, Velocity: 60
Note OFF: Time 366000, Note Name: D#5
Note OFF: Time 366000, Note Name: A#4
Note ON: Time 366000, Note Name: G4, Velocity: 43
Note ON: Time 366000, Note Name: A#4, Velocity: 52
Note OFF: Time 366240, Note Name: A#4
Note OFF: Time 366240, Note Name: G4
Note ON: Time 366240, Note Name: G4, Velocity: 52
Note ON: Time 366240, Note Name: D#4, Velocity: 44
Note OFF: Time 366480, Note Name: D#4
Note OFF: Time 366480, Note Name: G4
Note ON: Time 366480, Note Name: A#4, Velocity: 54
Note OFF: Time 366720, Note Name: A#4
Note ON: Time 366720, Note Name: C4, Velocity: 38
Note ON: Time 366720, Note Name: G#4, Velocity: 46
Note OFF: Time 366960, Note Name: G#4
Note OFF: Time 366960, Note Name: C4
Note ON: Time 366960, Note Name: D4, Velocity: 36
Note ON: Time 366960, Note Name: F4, Velocity: 43
Note OFF: Time 367140, Note Name: F4
Note OFF: Time 367140, Note Name: D4
Note ON: Time 367200, Note Name: G4, Velocity: 54
Note ON: Time 367200, Note Name: D#5, Velocity: 54
Note OFF: Time 367320, Note Name: D#5
Note OFF: Time 367320, Note Name: G4
Note ON: Time 367320, Note Name: D5, Velocity: 46
Note OFF: Time 367440, Note Name: D5
Note ON: Time 367440, Note Name: D#5, Velocity: 46
Note OFF: Time 367560, Note Name: D#5
Note ON: Time 367560, Note Name: A#4, Velocity: 42
Note OFF: Time 367680, Note Name: A#4
Note ON: Time 367680, Note Name: G4, Velocity: 54
Note OFF: Time 367800, Note Name: G4
Note ON: Time 367860, Note Name: G#4, Velocity: 47
Note OFF: Time 367920, Note Name: G#4
Note ON: Time 367920, Note Name: G4, Velocity: 54
Note OFF: Time 368040, Note Name: G4
Note ON: Time 368040, Note Name: F#4, Velocity: 43
Note OFF: Time 368160, Note Name: F#4
Note ON: Time 368160, Note Name: G4, Velocity: 48
Note OFF: Time 368280, Note Name: G4
Note ON: Time 368280, Note Name: A#4, Velocity: 43
Note OFF: Time 368400, Note Name: A#4
Note ON: Time 368400, Note Name: D#5, Velocity: 56
Note OFF: Time 368520, Note Name: D#5
Note ON: Time 368640, Note Name: G4, Velocity: 48
Note ON: Time 368640, Note Name: G5, Velocity: 54
Note OFF: Time 368760, Note Name: G5
Note ON: Time 368760, Note Name: F#5, Velocity: 46
Note OFF: Time 368880, Note Name: F#5
Note ON: Time 368880, Note Name: G5, Velocity: 46
Note OFF: Time 369000, Note Name: G5
Note ON: Time 369000, Note Name: D#5, Velocity: 42
Note OFF: Time 369120, Note Name: D#5
Note ON: Time 369120, Note Name: A#4, Velocity: 54
Note OFF: Time 369240, Note Name: A#4
Note ON: Time 369300, Note Name: C5, Velocity: 47
Note OFF: Time 369360, Note Name: C5
Note OFF: Time 369360, Note Name: G4
Note ON: Time 369360, Note Name: A#4, Velocity: 54
Note OFF: Time 369480, Note Name: A#4
Note ON: Time 369480, Note Name: A4, Velocity: 43
Note OFF: Time 369600, Note Name: A4
Note ON: Time 369600, Note Name: A#4, Velocity: 48
Note OFF: Time 369720, Note Name: A#4
Note ON: Time 369720, Note Name: D#5, Velocity: 43
Note OFF: Time 369840, Note Name: D#5
Note ON: Time 369840, Note Name: G5, Velocity: 56
Note OFF: Time 369960, Note Name: G5
Note ON: Time 370080, Note Name: A#5, Velocity: 54
Note ON: Time 370080, Note Name: G5, Velocity: 45
Note OFF: Time 370200, Note Name: G5
Note OFF: Time 370200, Note Name: A#5
Note ON: Time 370200, Note Name: C6, Velocity: 50
Note ON: Time 370200, Note Name: G#5, Velocity: 42
Note OFF: Time 370320, Note Name: G#5
Note OFF: Time 370320, Note Name: C6
Note ON: Time 370320, Note Name: A#5, Velocity: 55
Note ON: Time 370320, Note Name: G5, Velocity: 45
Note OFF: Time 370440, Note Name: G5
Note OFF: Time 370440, Note Name: A#5
Note ON: Time 370440, Note Name: G5, Velocity: 49
Note ON: Time 370440, Note Name: D#5, Velocity: 41
Note OFF: Time 370560, Note Name: D#5
Note OFF: Time 370560, Note Name: G5
Note ON: Time 370560, Note Name: G4, Velocity: 47
Note ON: Time 370560, Note Name: D#5, Velocity: 56
Note OFF: Time 370800, Note Name: D#5
Note OFF: Time 370800, Note Name: G4
Note ON: Time 370800, Note Name: G5, Velocity: 57
Note ON: Time 370800, Note Name: D#5, Velocity: 48
Note OFF: Time 370920, Note Name: D#5
Note OFF: Time 370920, Note Name: G5
Note ON: Time 370920, Note Name: G#5, Velocity: 54
Note OFF: Time 371040, Note Name: G#5
Note ON: Time 371040, Note Name: G5, Velocity: 59
Note ON: Time 371040, Note Name: D#5, Velocity: 49
Note OFF: Time 371160, Note Name: D#5
Note OFF: Time 371160, Note Name: G5
Note ON: Time 371160, Note Name: D#5, Velocity: 53
Note ON: Time 371160, Note Name: A#4, Velocity: 44
Note OFF: Time 371280, Note Name: A#4
Note OFF: Time 371280, Note Name: D#5
Note ON: Time 371280, Note Name: G4, Velocity: 50
Note ON: Time 371280, Note Name: A#4, Velocity: 60
Note OFF: Time 371520, Note Name: A#4
Note OFF: Time 371520, Note Name: G4
Note ON: Time 371520, Note Name: D#5, Velocity: 62
Note ON: Time 371520, Note Name: G4, Velocity: 51
Note OFF: Time 371640, Note Name: G4
Note OFF: Time 371640, Note Name: D#5
Note ON: Time 371640, Note Name: F5, Velocity: 56
Note OFF: Time 371760, Note Name: F5
Note ON: Time 371760, Note Name: D#5, Velocity: 59
Note ON: Time 371760, Note Name: G4, Velocity: 49
Note OFF: Time 371880, Note Name: G4
Note OFF: Time 371880, Note Name: D#5
Note ON: Time 371880, Note Name: A#4, Velocity: 51
Note ON: Time 371880, Note Name: G4, Velocity: 43
Note OFF: Time 372000, Note Name: G4
Note OFF: Time 372000, Note Name: A#4
Note ON: Time 372000, Note Name: D#4, Velocity: 47
Note ON: Time 372000, Note Name: G4, Velocity: 56
Note OFF: Time 372240, Note Name: G4
Note OFF: Time 372240, Note Name: D#4
Note ON: Time 372240, Note Name: A#4, Velocity: 54
Note OFF: Time 372480, Note Name: A#4
Note ON: Time 372480, Note Name: C4, Velocity: 38
Note ON: Time 372480, Note Name: G#4, Velocity: 46
Note OFF: Time 372720, Note Name: G#4
Note OFF: Time 372720, Note Name: C4
Note ON: Time 372720, Note Name: D4, Velocity: 36
Note ON: Time 372720, Note Name: F4, Velocity: 43
Note OFF: Time 372900, Note Name: F4
Note OFF: Time 372900, Note Name: D4
Note ON: Time 373080, Note Name: G5, Velocity: 46
Note ON: Time 373080, Note Name: A#5, Velocity: 55
Note OFF: Time 373320, Note Name: A#5
Note OFF: Time 373320, Note Name: G5
Note ON: Time 373320, Note Name: D#5, Velocity: 39
Note ON: Time 373320, Note Name: G5, Velocity: 47
Note OFF: Time 373558, Note Name: G5
Note OFF: Time 373558, Note Name: D#5
Note ON: Time 373560, Note Name: D#5, Velocity: 48
Note ON: Time 373560, Note Name: A#4, Velocity: 40
Note OFF: Time 373798, Note Name: A#4
Note OFF: Time 373798, Note Name: D#5
Note ON: Time 373800, Note Name: G5, Velocity: 51
Note ON: Time 373800, Note Name: D#5, Velocity: 43
Note OFF: Time 374038, Note Name: D#5
Note OFF: Time 374038, Note Name: G5
Note ON: Time 374040, Note Name: A#4, Velocity: 39
Note ON: Time 374040, Note Name: D#5, Velocity: 47
Note OFF: Time 374278, Note Name: D#5
Note OFF: Time 374278, Note Name: A#4
Note ON: Time 374280, Note Name: G4, Velocity: 40
Note ON: Time 374280, Note Name: A#4, Velocity: 48
Note OFF: Time 374518, Note Name: A#4
Note OFF: Time 374518, Note Name: G4
Note ON: Time 374520, Note Name: A#4, Velocity: 50
Note ON: Time 374520, Note Name: D#5, Velocity: 60
Note OFF: Time 374758, Note Name: D#5
Note OFF: Time 374758, Note Name: A#4
Note ON: Time 374760, Note Name: G4, Velocity: 43
Note ON: Time 374760, Note Name: A#4, Velocity: 52
Note OFF: Time 374998, Note Name: A#4
Note OFF: Time 374998, Note Name: G4
Note ON: Time 375000, Note Name: G4, Velocity: 52
Note OFF: Time 375238, Note Name: G4
Note ON: Time 375240, Note Name: D4, Velocity: 46
Note ON: Time 375240, Note Name: A#4, Velocity: 54
Note OFF: Time 375478, Note Name: A#4
Note OFF: Time 375478, Note Name: D4
Note ON: Time 375480, Note Name: D4, Velocity: 38
Note ON: Time 375480, Note Name: G#4, Velocity: 46
Note OFF: Time 375718, Note Name: G#4
Note OFF: Time 375718, Note Name: D4
Note ON: Time 375720, Note Name: D4, Velocity: 36
Note ON: Time 375720, Note Name: F4, Velocity: 43
Note OFF: Time 375840, Note Name: F4
Note OFF: Time 375840, Note Name: D4
Note ON: Time 375840, Note Name: A#5, Velocity: 80
Note OFF: Time 375960, Note Name: A#5
Note ON: Time 375960, Note Name: A#6, Velocity: 63
Note OFF: Time 376080, Note Name: A#6
Note ON: Time 376080, Note Name: G5, Velocity: 69
Note OFF: Time 376200, Note Name: G5
Note ON: Time 376200, Note Name: G6, Velocity: 64
Note OFF: Time 376320, Note Name: G6
Note ON: Time 376320, Note Name: D#5, Velocity: 69
Note OFF: Time 376440, Note Name: D#5
Note ON: Time 376440, Note Name: D#6, Velocity: 64
Note OFF: Time 376560, Note Name: D#6
Note ON: Time 376560, Note Name: G5, Velocity: 80
Note OFF: Time 376680, Note Name: G5
Note ON: Time 376680, Note Name: G6, Velocity: 64
Note OFF: Time 376800, Note Name: G6
Note ON: Time 376800, Note Name: D#5, Velocity: 69
Note OFF: Time 376920, Note Name: D#5
Note ON: Time 376920, Note Name: D#6, Velocity: 64
Note OFF: Time 377040, Note Name: D#6
Note ON: Time 377040, Note Name: A#4, Velocity: 69
Note OFF: Time 377160, Note Name: A#4
Note ON: Time 377160, Note Name: A#5, Velocity: 65
Note OFF: Time 377280, Note Name: A#5
Note ON: Time 377280, Note Name: D#5, Velocity: 80
Note OFF: Time 377400, Note Name: D#5
Note ON: Time 377400, Note Name: D#6, Velocity: 65
Note OFF: Time 377520, Note Name: D#6
Note ON: Time 377520, Note Name: A#4, Velocity: 70
Note OFF: Time 377640, Note Name: A#4
Note ON: Time 377640, Note Name: A#5, Velocity: 65
Note OFF: Time 377760, Note Name: A#5
Note ON: Time 377760, Note Name: G4, Velocity: 70
Note OFF: Time 377880, Note Name: G4
Note ON: Time 377880, Note Name: G5, Velocity: 66
Note OFF: Time 378000, Note Name: G5
Note ON: Time 378000, Note Name: A#4, Velocity: 80
Note OFF: Time 378120, Note Name: A#4
Note ON: Time 378120, Note Name: A#5, Velocity: 64
Note OFF: Time 378240, Note Name: A#5
Note ON: Time 378240, Note Name: G#4, Velocity: 69
Note OFF: Time 378360, Note Name: G#4
Note ON: Time 378360, Note Name: G#5, Velocity: 65
Note OFF: Time 378480, Note Name: G#5
Note ON: Time 378480, Note Name: F4, Velocity: 69
Note OFF: Time 378600, Note Name: F4
Note ON: Time 378600, Note Name: F5, Velocity: 66
Note OFF: Time 378720, Note Name: F5
Note ON: Time 378720, Note Name: D#4, Velocity: 80
Note OFF: Time 378840, Note Name: D#4
Note ON: Time 378840, Note Name: D#5, Velocity: 65
Note OFF: Time 378960, Note Name: D#5
Note ON: Time 378960, Note Name: G4, Velocity: 70
Note OFF: Time 379080, Note Name: G4
Note ON: Time 379080, Note Name: G5, Velocity: 66
Note OFF: Time 379200, Note Name: G5
Note ON: Time 379200, Note Name: G4, Velocity: 71
Note OFF: Time 379320, Note Name: G4
Note ON: Time 379320, Note Name: G5, Velocity: 67
Note OFF: Time 379440, Note Name: G5
Note ON: Time 379440, Note Name: G4, Velocity: 82
Note OFF: Time 379560, Note Name: G4
Note ON: Time 379560, Note Name: G5, Velocity: 66
Note OFF: Time 379680, Note Name: G5
Note ON: Time 379680, Note Name: A#4, Velocity: 72
Note OFF: Time 379800, Note Name: A#4
Note ON: Time 379800, Note Name: A#5, Velocity: 68
Note OFF: Time 379920, Note Name: A#5
Note ON: Time 379920, Note Name: A#4, Velocity: 73
Note OFF: Time 380040, Note Name: A#4
Note ON: Time 380040, Note Name: A#5, Velocity: 69
Note OFF: Time 380160, Note Name: A#5
Note ON: Time 380160, Note Name: A#4, Velocity: 85
Note OFF: Time 380280, Note Name: A#4
Note ON: Time 380280, Note Name: A#5, Velocity: 70
Note OFF: Time 380400, Note Name: A#5
Note ON: Time 380400, Note Name: D#5, Velocity: 75
Note OFF: Time 380520, Note Name: D#5
Note ON: Time 380520, Note Name: D#6, Velocity: 70
Note OFF: Time 380640, Note Name: D#6
Note ON: Time 380640, Note Name: D#5, Velocity: 76
Note OFF: Time 380760, Note Name: D#5
Note ON: Time 380760, Note Name: D#6, Velocity: 72
Note OFF: Time 380880, Note Name: D#6
Note ON: Time 380880, Note Name: D#5, Velocity: 88
Note OFF: Time 381000, Note Name: D#5
Note ON: Time 381000, Note Name: D#6, Velocity: 77
Note OFF: Time 381120, Note Name: D#6
Note ON: Time 381120, Note Name: G5, Velocity: 88
Note OFF: Time 381240, Note Name: G5
Note ON: Time 381240, Note Name: G6, Velocity: 81
Note OFF: Time 381360, Note Name: G6
Note ON: Time 381360, Note Name: A#5, Velocity: 92
Note OFF: Time 381480, Note Name: A#5
Note ON: Time 381480, Note Name: A#6, Velocity: 84
Note OFF: Time 381600, Note Name: A#6
Note ON: Time 381600, Note Name: D#6, Velocity: 101
Note ON: Time 381600, Note Name: D#7, Velocity: 109
Note OFF: Time 382080, Note Name: D#7
Note OFF: Time 382080, Note Name: D#6
Note ON: Time 382320, Note Name: D5, Velocity: 88
Note ON: Time 382320, Note Name: G#4, Velocity: 74
Note ON: Time 382320, Note Name: F4, Velocity: 74
Note ON: Time 382320, Note Name: A#4, Velocity: 74
Note OFF: Time 382800, Note Name: A#4
Note OFF: Time 382800, Note Name: D5
Note OFF: Time 382800, Note Name: G#4
Note OFF: Time 382800, Note Name: F4
Note ON: Time 383040, Note Name: G4, Velocity: 77
Note ON: Time 383040, Note Name: A#4, Velocity: 80
Note ON: Time 383040, Note Name: D#5, Velocity: 95
Note OFF: Time 383520, Note Name: D#5
Note OFF: Time 383520, Note Name: A#4
Note OFF: Time 383520, Note Name: G4
Track 2: Piano left
Note ON: Time 0, Note Name: F4, Velocity: 66
Note ON: Time 0, Note Name: G#4, Velocity: 75
Note ON: Time 0, Note Name: D4, Velocity: 66
Note ON: Time 0, Note Name: A#3, Velocity: 66
Note OFF: Time 120, Note Name: A#3
Note OFF: Time 120, Note Name: F4
Note OFF: Time 120, Note Name: G#4
Note OFF: Time 120, Note Name: D4
Note ON: Time 240, Note Name: A#2, Velocity: 60
Note OFF: Time 360, Note Name: A#2
Note ON: Time 360, Note Name: D3, Velocity: 50
Note OFF: Time 480, Note Name: D3
Note ON: Time 480, Note Name: A#2, Velocity: 60
Note OFF: Time 600, Note Name: A#2
Note ON: Time 600, Note Name: D3, Velocity: 51
Note OFF: Time 720, Note Name: D3
Note ON: Time 720, Note Name: D3, Velocity: 59
Note OFF: Time 840, Note Name: D3
Note ON: Time 840, Note Name: F3, Velocity: 52
Note OFF: Time 960, Note Name: F3
Note ON: Time 960, Note Name: D3, Velocity: 59
Note OFF: Time 1080, Note Name: D3
Note ON: Time 1080, Note Name: F3, Velocity: 52
Note OFF: Time 1200, Note Name: F3
Note ON: Time 1200, Note Name: D3, Velocity: 59
Note OFF: Time 1320, Note Name: D3
Note ON: Time 1320, Note Name: F3, Velocity: 51
Note OFF: Time 1440, Note Name: F3
Note ON: Time 1440, Note Name: F3, Velocity: 59
Note OFF: Time 1560, Note Name: F3
Note ON: Time 1560, Note Name: G#3, Velocity: 51
Note OFF: Time 1680, Note Name: G#3
Note ON: Time 1680, Note Name: F3, Velocity: 59
Note OFF: Time 1800, Note Name: F3
Note ON: Time 1800, Note Name: G#3, Velocity: 50
Note OFF: Time 1920, Note Name: G#3
Note ON: Time 1920, Note Name: F3, Velocity: 58
Note OFF: Time 2040, Note Name: F3
Note ON: Time 2040, Note Name: G#3, Velocity: 50
Note OFF: Time 2160, Note Name: G#3
Note ON: Time 2160, Note Name: A#3, Velocity: 58
Note OFF: Time 2280, Note Name: A#3
Note ON: Time 2280, Note Name: D4, Velocity: 50
Note OFF: Time 2400, Note Name: D4
Note ON: Time 2400, Note Name: A#3, Velocity: 58
Note OFF: Time 2520, Note Name: A#3
Note ON: Time 2520, Note Name: D4, Velocity: 50
Note OFF: Time 2640, Note Name: D4
Note ON: Time 2640, Note Name: A#3, Velocity: 58
Note OFF: Time 2760, Note Name: A#3
Note ON: Time 2760, Note Name: D4, Velocity: 51
Note OFF: Time 2880, Note Name: D4
Note ON: Time 2880, Note Name: D4, Velocity: 57
Note OFF: Time 3000, Note Name: D4
Note ON: Time 3000, Note Name: F4, Velocity: 50
Note OFF: Time 3120, Note Name: F4
Note ON: Time 3120, Note Name: D4, Velocity: 57
Note OFF: Time 3240, Note Name: D4
Note ON: Time 3240, Note Name: F4, Velocity: 49
Note OFF: Time 3360, Note Name: F4
Note ON: Time 3360, Note Name: D4, Velocity: 57
Note OFF: Time 3480, Note Name: D4
Note ON: Time 3480, Note Name: F4, Velocity: 48
Note OFF: Time 3600, Note Name: F4
Note ON: Time 3600, Note Name: F4, Velocity: 57
Note OFF: Time 3720, Note Name: F4
Note ON: Time 3720, Note Name: G#4, Velocity: 48
Note OFF: Time 3840, Note Name: G#4
Note ON: Time 3840, Note Name: F4, Velocity: 57
Note OFF: Time 3960, Note Name: F4
Note ON: Time 3960, Note Name: G#4, Velocity: 49
Note OFF: Time 4080, Note Name: G#4
Note ON: Time 4080, Note Name: F4, Velocity: 56
Note OFF: Time 4200, Note Name: F4
Note ON: Time 4200, Note Name: G#4, Velocity: 50
Note OFF: Time 4320, Note Name: G#4
Note ON: Time 4320, Note Name: D5, Velocity: 56
Note OFF: Time 4440, Note Name: D5
Note ON: Time 4440, Note Name: F5, Velocity: 49
Note OFF: Time 4560, Note Name: F5
Note ON: Time 4560, Note Name: D5, Velocity: 56
Note OFF: Time 4680, Note Name: D5
Note ON: Time 4680, Note Name: F5, Velocity: 47
Note OFF: Time 4800, Note Name: F5
Note ON: Time 4800, Note Name: D5, Velocity: 56
Note OFF: Time 4920, Note Name: D5
Note ON: Time 4920, Note Name: F5, Velocity: 47
Note OFF: Time 5040, Note Name: F5
Note ON: Time 5040, Note Name: F5, Velocity: 56
Note OFF: Time 5160, Note Name: F5
Note ON: Time 5160, Note Name: G#5, Velocity: 47
Note OFF: Time 5280, Note Name: G#5
Note ON: Time 5280, Note Name: F5, Velocity: 55
Note OFF: Time 5400, Note Name: F5
Note ON: Time 5400, Note Name: G#5, Velocity: 48
Note OFF: Time 5520, Note Name: G#5
Note ON: Time 5520, Note Name: F5, Velocity: 55
Note OFF: Time 5640, Note Name: F5
Note ON: Time 5640, Note Name: G#5, Velocity: 49
Note OFF: Time 5760, Note Name: G#5
Note ON: Time 6240, Note Name: F5, Velocity: 33
Note ON: Time 6240, Note Name: G#5, Velocity: 33
Note OFF: Time 6480, Note Name: G#5
Note ON: Time 6480, Note Name: D5, Velocity: 38
Note OFF: Time 6960, Note Name: D5
Note OFF: Time 6960, Note Name: F5
Note ON: Time 7680, Note Name: G#5, Velocity: 32
Note ON: Time 7680, Note Name: F5, Velocity: 32
Note OFF: Time 7920, Note Name: G#5
Note ON: Time 7920, Note Name: D5, Velocity: 36
Note OFF: Time 8400, Note Name: D5
Note OFF: Time 8400, Note Name: F5
Note ON: Time 9120, Note Name: G#4, Velocity: 30
Note ON: Time 9120, Note Name: F4, Velocity: 30
Note OFF: Time 9360, Note Name: G#4
Note ON: Time 9360, Note Name: D4, Velocity: 34
Note OFF: Time 9840, Note Name: D4
Note OFF: Time 9840, Note Name: F4
Note ON: Time 10560, Note Name: F4, Velocity: 28
Note ON: Time 10560, Note Name: G#4, Velocity: 28
Note OFF: Time 10800, Note Name: G#4
Note ON: Time 10800, Note Name: D4, Velocity: 31
Note OFF: Time 11280, Note Name: D4
Note OFF: Time 11280, Note Name: F4
Note ON: Time 11520, Note Name: A#3, Velocity: 75
Note ON: Time 11520, Note Name: D3, Velocity: 66
Note ON: Time 11520, Note Name: A#2, Velocity: 66
Note ON: Time 11520, Note Name: F3, Velocity: 66
Note OFF: Time 11640, Note Name: F3
Note OFF: Time 11640, Note Name: A#3
Note OFF: Time 11640, Note Name: D3
Note OFF: Time 11640, Note Name: A#2
Note ON: Time 11760, Note Name: A#2, Velocity: 60
Note OFF: Time 11880, Note Name: A#2
Note ON: Time 12000, Note Name: A#2, Velocity: 59
Note OFF: Time 12120, Note Name: A#2
Note ON: Time 12240, Note Name: D3, Velocity: 57
Note OFF: Time 12360, Note Name: D3
Note ON: Time 12480, Note Name: F3, Velocity: 56
Note OFF: Time 12600, Note Name: F3
Note ON: Time 12720, Note Name: A#3, Velocity: 54
Note OFF: Time 12840, Note Name: A#3
Note ON: Time 12960, Note Name: D4, Velocity: 54
Note OFF: Time 13080, Note Name: D4
Note ON: Time 13200, Note Name: F4, Velocity: 54
Note OFF: Time 13320, Note Name: F4
Note ON: Time 13440, Note Name: G#4, Velocity: 52
Note ON: Time 13440, Note Name: A#4, Velocity: 52
Note OFF: Time 13560, Note Name: A#4
Note OFF: Time 13560, Note Name: G#4
Note ON: Time 13680, Note Name: A#4, Velocity: 50
Note ON: Time 13680, Note Name: G#4, Velocity: 50
Note OFF: Time 13800, Note Name: G#4
Note OFF: Time 13800, Note Name: A#4
Note ON: Time 13920, Note Name: G#4, Velocity: 49
Note ON: Time 13920, Note Name: A#4, Velocity: 49
Note OFF: Time 14040, Note Name: A#4
Note OFF: Time 14040, Note Name: G#4
Note ON: Time 14160, Note Name: A#4, Velocity: 48
Note ON: Time 14160, Note Name: G#4, Velocity: 48
Note OFF: Time 14280, Note Name: G#4
Note OFF: Time 14280, Note Name: A#4
Note ON: Time 14400, Note Name: D#4, Velocity: 34
Note ON: Time 14400, Note Name: G4, Velocity: 34
Note ON: Time 14400, Note Name: A#4, Velocity: 40
Note OFF: Time 14880, Note Name: A#4
Note OFF: Time 14880, Note Name: G4
Note OFF: Time 14880, Note Name: D#4
Note ON: Time 15120, Note Name: F4, Velocity: 28
Note ON: Time 15120, Note Name: G#4, Velocity: 28
Note ON: Time 15120, Note Name: A#3, Velocity: 28
Note ON: Time 15120, Note Name: A#4, Velocity: 34
Note OFF: Time 15600, Note Name: A#4
Note OFF: Time 15600, Note Name: F4
Note OFF: Time 15600, Note Name: G#4
Note OFF: Time 15600, Note Name: A#3
Note ON: Time 15840, Note Name: D#4, Velocity: 34
Note ON: Time 15840, Note Name: A#4, Velocity: 40
Note ON: Time 15840, Note Name: G4, Velocity: 34
Note OFF: Time 16320, Note Name: G4
Note OFF: Time 16320, Note Name: A#4
Note OFF: Time 16320, Note Name: D#4
Note ON: Time 17040, Note Name: E4, Velocity: 28
Note ON: Time 17040, Note Name: G4, Velocity: 28
Note ON: Time 17040, Note Name: A#4, Velocity: 28
Note ON: Time 17040, Note Name: C5, Velocity: 34
Note OFF: Time 17220, Note Name: C5
Note OFF: Time 17220, Note Name: E4
Note OFF: Time 17220, Note Name: G4
Note OFF: Time 17220, Note Name: A#4
Note ON: Time 17280, Note Name: G#4, Velocity: 34
Note ON: Time 17280, Note Name: F4, Velocity: 34
Note ON: Time 17280, Note Name: C5, Velocity: 40
Note OFF: Time 17760, Note Name: C5
Note OFF: Time 17760, Note Name: F4
Note OFF: Time 17760, Note Name: G#4
Note ON: Time 18000, Note Name: C5, Velocity: 34
Note ON: Time 18000, Note Name: A#4, Velocity: 28
Note ON: Time 18000, Note Name: C4, Velocity: 28
Note ON: Time 18000, Note Name: G4, Velocity: 28
Note OFF: Time 18480, Note Name: G4
Note OFF: Time 18480, Note Name: C5
Note OFF: Time 18480, Note Name: A#4
Note OFF: Time 18480, Note Name: C4
Note ON: Time 18720, Note Name: F4, Velocity: 34
Note ON: Time 18720, Note Name: G#4, Velocity: 34
Note ON: Time 18720, Note Name: C5, Velocity: 40
Note OFF: Time 19200, Note Name: C5
Note OFF: Time 19200, Note Name: G#4
Note OFF: Time 19200, Note Name: F4
Note ON: Time 19920, Note Name: F4, Velocity: 31
Note ON: Time 19920, Note Name: D4, Velocity: 31
Note ON: Time 19920, Note Name: G#4, Velocity: 31
Note ON: Time 19920, Note Name: A#4, Velocity: 37
Note OFF: Time 20100, Note Name: A#4
Note OFF: Time 20100, Note Name: F4
Note OFF: Time 20100, Note Name: D4
Note OFF: Time 20100, Note Name: G#4
Note ON: Time 20160, Note Name: G4, Velocity: 33
Note ON: Time 20160, Note Name: A#4, Velocity: 39
Note ON: Time 20160, Note Name: D#4, Velocity: 33
Note OFF: Time 20640, Note Name: D#4
Note OFF: Time 20640, Note Name: A#4
Note OFF: Time 20640, Note Name: G4
Note ON: Time 20880, Note Name: G#3, Velocity: 29
Note ON: Time 20880, Note Name: C4, Velocity: 29
Note ON: Time 20880, Note Name: F4, Velocity: 35
Note OFF: Time 21360, Note Name: F4
Note OFF: Time 21360, Note Name: C4
Note OFF: Time 21360, Note Name: G#3
Note ON: Time 21600, Note Name: D#4, Velocity: 35
Note ON: Time 21600, Note Name: A#3, Velocity: 35
Note ON: Time 21600, Note Name: G4, Velocity: 42
Note OFF: Time 22080, Note Name: G4
Note OFF: Time 22080, Note Name: A#3
Note OFF: Time 22080, Note Name: D#4
Note ON: Time 22320, Note Name: A#3, Velocity: 33
Note ON: Time 22320, Note Name: F4, Velocity: 39
Note ON: Time 22320, Note Name: D4, Velocity: 33
Note OFF: Time 22800, Note Name: D4
Note OFF: Time 22800, Note Name: F4
Note OFF: Time 22800, Note Name: A#3
Note ON: Time 22800, Note Name: A#3, Velocity: 39
Note OFF: Time 22980, Note Name: A#3
Note ON: Time 23040, Note Name: A#3, Velocity: 49
Note OFF: Time 23280, Note Name: A#3
Note ON: Time 23280, Note Name: G3, Velocity: 49
Note OFF: Time 23520, Note Name: G3
Note ON: Time 23520, Note Name: D#3, Velocity: 42
Note OFF: Time 23760, Note Name: D#3
Note ON: Time 23760, Note Name: D3, Velocity: 49
Note OFF: Time 24000, Note Name: D3
Note ON: Time 24000, Note Name: F3, Velocity: 45
Note OFF: Time 24240, Note Name: F3
Note ON: Time 24240, Note Name: A#3, Velocity: 45
Note OFF: Time 24420, Note Name: A#3
Note ON: Time 24480, Note Name: A#3, Velocity: 51
Note OFF: Time 24720, Note Name: A#3
Note ON: Time 24720, Note Name: G3, Velocity: 47
Note OFF: Time 24960, Note Name: G3
Note ON: Time 24960, Note Name: D#3, Velocity: 47
Note OFF: Time 25140, Note Name: D#3
Note ON: Time 25200, Note Name: D#3, Velocity: 52
Note OFF: Time 25440, Note Name: D#3
Note ON: Time 25440, Note Name: G3, Velocity: 46
Note OFF: Time 25680, Note Name: G3
Note ON: Time 25680, Note Name: E3, Velocity: 49
Note ON: Time 25680, Note Name: C4, Velocity: 60
Note OFF: Time 25860, Note Name: C4
Note OFF: Time 25860, Note Name: E3
Note ON: Time 25920, Note Name: C4, Velocity: 66
Note ON: Time 25920, Note Name: F3, Velocity: 53
Note OFF: Time 26160, Note Name: F3
Note OFF: Time 26160, Note Name: C4
Note ON: Time 26160, Note Name: G#3, Velocity: 53
Note OFF: Time 26400, Note Name: G#3
Note ON: Time 26400, Note Name: F3, Velocity: 53
Note OFF: Time 26640, Note Name: F3
Note ON: Time 26640, Note Name: E3, Velocity: 59
Note OFF: Time 26880, Note Name: E3
Note ON: Time 26880, Note Name: G3, Velocity: 53
Note OFF: Time 27120, Note Name: G3
Note ON: Time 27120, Note Name: C4, Velocity: 58
Note OFF: Time 27300, Note Name: C4
Note ON: Time 27360, Note Name: C4, Velocity: 70
Note OFF: Time 27600, Note Name: C4
Note ON: Time 27600, Note Name: G#3, Velocity: 56
Note OFF: Time 27840, Note Name: G#3
Note ON: Time 27840, Note Name: F3, Velocity: 57
Note OFF: Time 28080, Note Name: F3
Note ON: Time 28080, Note Name: D3, Velocity: 64
Note OFF: Time 28320, Note Name: D3
Note ON: Time 28320, Note Name: F3, Velocity: 58
Note OFF: Time 28560, Note Name: F3
Note ON: Time 28560, Note Name: D3, Velocity: 53
Note ON: Time 28560, Note Name: A#3, Velocity: 63
Note OFF: Time 28740, Note Name: A#3
Note OFF: Time 28740, Note Name: D3
Note ON: Time 28800, Note Name: A#3, Velocity: 72
Note ON: Time 28800, Note Name: D#3, Velocity: 61
Note OFF: Time 29040, Note Name: D#3
Note OFF: Time 29040, Note Name: A#3
Note ON: Time 29040, Note Name: G3, Velocity: 56
Note OFF: Time 29280, Note Name: G3
Note ON: Time 29280, Note Name: D#3, Velocity: 57
Note OFF: Time 29520, Note Name: D#3
Note ON: Time 29520, Note Name: G#2, Velocity: 50
Note ON: Time 29520, Note Name: C3, Velocity: 59
Note OFF: Time 29760, Note Name: C3
Note OFF: Time 29760, Note Name: G#2
Note ON: Time 29760, Note Name: F3, Velocity: 55
Note OFF: Time 30000, Note Name: F3
Note ON: Time 30000, Note Name: G#3, Velocity: 55
Note OFF: Time 30180, Note Name: G#3
Note ON: Time 30240, Note Name: A#2, Velocity: 61
Note OFF: Time 30480, Note Name: A#2
Note ON: Time 30480, Note Name: D#3, Velocity: 56
Note OFF: Time 30720, Note Name: D#3
Note ON: Time 30720, Note Name: G3, Velocity: 56
Note OFF: Time 30900, Note Name: G3
Note ON: Time 30960, Note Name: A#2, Velocity: 62
Note OFF: Time 31200, Note Name: A#2
Note ON: Time 31200, Note Name: D3, Velocity: 56
Note OFF: Time 31440, Note Name: D3
Note ON: Time 31440, Note Name: A#3, Velocity: 56
Note ON: Time 31440, Note Name: A#2, Velocity: 56
Note OFF: Time 31620, Note Name: A#2
Note OFF: Time 31620, Note Name: A#3
Note ON: Time 31680, Note Name: A#2, Velocity: 63
Note OFF: Time 31920, Note Name: A#2
Note ON: Time 31920, Note Name: G2, Velocity: 63
Note OFF: Time 32160, Note Name: G2
Note ON: Time 32160, Note Name: D#2, Velocity: 55
Note OFF: Time 32400, Note Name: D#2
Note ON: Time 32400, Note Name: D2, Velocity: 63
Note OFF: Time 32640, Note Name: D2
Note ON: Time 32640, Note Name: F2, Velocity: 57
Note OFF: Time 32880, Note Name: F2
Note ON: Time 32880, Note Name: A#2, Velocity: 57
Note OFF: Time 33060, Note Name: A#2
Note ON: Time 33120, Note Name: A#2, Velocity: 63
Note OFF: Time 33360, Note Name: A#2
Note ON: Time 33360, Note Name: G2, Velocity: 58
Note OFF: Time 33600, Note Name: G2
Note ON: Time 33600, Note Name: D#2, Velocity: 58
Note OFF: Time 33780, Note Name: D#2
Note ON: Time 33840, Note Name: D#2, Velocity: 63
Note OFF: Time 34080, Note Name: D#2
Note ON: Time 34080, Note Name: G2, Velocity: 55
Note OFF: Time 34320, Note Name: G2
Note ON: Time 34320, Note Name: E2, Velocity: 58
Note ON: Time 34320, Note Name: C3, Velocity: 70
Note OFF: Time 34500, Note Name: C3
Note OFF: Time 34500, Note Name: E2
Note ON: Time 34560, Note Name: C3, Velocity: 78
Note ON: Time 34560, Note Name: F2, Velocity: 63
Note OFF: Time 34800, Note Name: F2
Note OFF: Time 34800, Note Name: C3
Note ON: Time 34800, Note Name: G#2, Velocity: 63
Note OFF: Time 35040, Note Name: G#2
Note ON: Time 35040, Note Name: F2, Velocity: 63
Note OFF: Time 35280, Note Name: F2
Note ON: Time 35280, Note Name: E2, Velocity: 69
Note OFF: Time 35520, Note Name: E2
Note ON: Time 35520, Note Name: G2, Velocity: 62
Note OFF: Time 35760, Note Name: G2
Note ON: Time 35760, Note Name: C3, Velocity: 73
Note OFF: Time 35940, Note Name: C3
Note ON: Time 36000, Note Name: C3, Velocity: 86
Note OFF: Time 36240, Note Name: C3
Note ON: Time 36240, Note Name: G#2, Velocity: 63
Note OFF: Time 36480, Note Name: G#2
Note ON: Time 36480, Note Name: F2, Velocity: 63
Note OFF: Time 36720, Note Name: F2
Note ON: Time 36720, Note Name: D2, Velocity: 72
Note OFF: Time 36960, Note Name: D2
Note ON: Time 36960, Note Name: F2, Velocity: 63
Note OFF: Time 37200, Note Name: F2
Note ON: Time 37200, Note Name: D2, Velocity: 58
Note ON: Time 37200, Note Name: A#2, Velocity: 69
Note OFF: Time 37380, Note Name: A#2
Note OFF: Time 37380, Note Name: D2
Note ON: Time 37440, Note Name: D#2, Velocity: 66
Note ON: Time 37440, Note Name: A#2, Velocity: 78
Note OFF: Time 37680, Note Name: A#2
Note OFF: Time 37680, Note Name: D#2
Note ON: Time 37680, Note Name: G2, Velocity: 60
Note OFF: Time 37920, Note Name: G2
Note ON: Time 37920, Note Name: D#2, Velocity: 60
Note OFF: Time 38160, Note Name: D#2
Note ON: Time 38160, Note Name: G#1, Velocity: 53
Note ON: Time 38160, Note Name: C2, Velocity: 63
Note OFF: Time 38400, Note Name: C2
Note ON: Time 38400, Note Name: F2, Velocity: 58
Note OFF: Time 38640, Note Name: F2
Note OFF: Time 38640, Note Name: G#1
Note ON: Time 38640, Note Name: G#2, Velocity: 63
Note OFF: Time 38820, Note Name: G#2
Note ON: Time 38880, Note Name: A#1, Velocity: 69
Note OFF: Time 39120, Note Name: A#1
Note ON: Time 39120, Note Name: D#2, Velocity: 58
Note OFF: Time 39360, Note Name: D#2
Note ON: Time 39360, Note Name: G2, Velocity: 58
Note OFF: Time 39540, Note Name: G2
Note ON: Time 39600, Note Name: A#1, Velocity: 63
Note OFF: Time 39840, Note Name: A#1
Note ON: Time 39840, Note Name: F2, Velocity: 57
Note OFF: Time 40080, Note Name: F2
Note ON: Time 40080, Note Name: A#2, Velocity: 57
Note OFF: Time 40260, Note Name: A#2
Note ON: Time 40320, Note Name: D#2, Velocity: 73
Note OFF: Time 40440, Note Name: D#2
Note ON: Time 40560, Note Name: G3, Velocity: 62
Note ON: Time 40560, Note Name: D#3, Velocity: 49
Note OFF: Time 40680, Note Name: D#3
Note OFF: Time 40680, Note Name: G3
Note ON: Time 40800, Note Name: A#3, Velocity: 62
Note ON: Time 40800, Note Name: D#3, Velocity: 49
Note ON: Time 40800, Note Name: G3, Velocity: 49
Note OFF: Time 40920, Note Name: G3
Note OFF: Time 40920, Note Name: D#3
Note OFF: Time 40920, Note Name: A#3
Note ON: Time 41040, Note Name: G3, Velocity: 49
Note ON: Time 41040, Note Name: D#4, Velocity: 62
Note ON: Time 41040, Note Name: A#3, Velocity: 49
Note ON: Time 41040, Note Name: D#3, Velocity: 49
Note OFF: Time 41160, Note Name: D#3
Note OFF: Time 41160, Note Name: G3
Note OFF: Time 41160, Note Name: D#4
Note OFF: Time 41160, Note Name: A#3
Note ON: Time 41280, Note Name: D#3, Velocity: 49
Note ON: Time 41280, Note Name: D#4, Velocity: 62
Note ON: Time 41280, Note Name: A#3, Velocity: 49
Note ON: Time 41280, Note Name: G3, Velocity: 49
Note OFF: Time 41400, Note Name: G3
Note OFF: Time 41400, Note Name: D#3
Note OFF: Time 41400, Note Name: D#4
Note OFF: Time 41400, Note Name: A#3
Note ON: Time 41520, Note Name: A#3, Velocity: 49
Note ON: Time 41520, Note Name: D#4, Velocity: 62
Note ON: Time 41520, Note Name: D#3, Velocity: 49
Note ON: Time 41520, Note Name: G3, Velocity: 49
Note OFF: Time 41640, Note Name: G3
Note OFF: Time 41640, Note Name: A#3
Note OFF: Time 41640, Note Name: D#4
Note OFF: Time 41640, Note Name: D#3
Note ON: Time 41760, Note Name: D#4, Velocity: 70
Note ON: Time 41760, Note Name: G3, Velocity: 56
Note ON: Time 41760, Note Name: A#3, Velocity: 56
Note ON: Time 41760, Note Name: D#3, Velocity: 56
Note OFF: Time 41880, Note Name: D#3
Note OFF: Time 41880, Note Name: D#4
Note OFF: Time 41880, Note Name: G3
Note OFF: Time 41880, Note Name: A#3
Note ON: Time 42000, Note Name: A#3, Velocity: 49
Note ON: Time 42000, Note Name: D#4, Velocity: 62
Note ON: Time 42000, Note Name: D#3, Velocity: 49
Note ON: Time 42000, Note Name: G3, Velocity: 49
Note OFF: Time 42120, Note Name: G3
Note OFF: Time 42120, Note Name: A#3
Note OFF: Time 42120, Note Name: D#4
Note OFF: Time 42120, Note Name: D#3
Note ON: Time 42240, Note Name: G3, Velocity: 49
Note ON: Time 42240, Note Name: D#4, Velocity: 62
Note ON: Time 42240, Note Name: A#3, Velocity: 49
Note ON: Time 42240, Note Name: D#3, Velocity: 49
Note OFF: Time 42360, Note Name: D#3
Note OFF: Time 42360, Note Name: G3
Note OFF: Time 42360, Note Name: D#4
Note OFF: Time 42360, Note Name: A#3
Note ON: Time 42480, Note Name: F3, Velocity: 49
Note ON: Time 42480, Note Name: D4, Velocity: 62
Note ON: Time 42480, Note Name: G#3, Velocity: 49
Note ON: Time 42480, Note Name: A#3, Velocity: 49
Note ON: Time 42480, Note Name: D#3, Velocity: 49
Note OFF: Time 42600, Note Name: D#3
Note OFF: Time 42600, Note Name: G#3
Note OFF: Time 42600, Note Name: F3
Note OFF: Time 42600, Note Name: D4
Note OFF: Time 42600, Note Name: A#3
Note ON: Time 42720, Note Name: F3, Velocity: 49
Note ON: Time 42720, Note Name: D4, Velocity: 62
Note ON: Time 42720, Note Name: A#3, Velocity: 49
Note ON: Time 42720, Note Name: G#3, Velocity: 49
Note ON: Time 42720, Note Name: D#3, Velocity: 49
Note OFF: Time 42840, Note Name: D#3
Note OFF: Time 42840, Note Name: A#3
Note OFF: Time 42840, Note Name: F3
Note OFF: Time 42840, Note Name: D4
Note OFF: Time 42840, Note Name: G#3
Note ON: Time 42960, Note Name: F3, Velocity: 49
Note ON: Time 42960, Note Name: D4, Velocity: 62
Note ON: Time 42960, Note Name: A#3, Velocity: 49
Note ON: Time 42960, Note Name: G#3, Velocity: 49
Note ON: Time 42960, Note Name: D#3, Velocity: 49
Note OFF: Time 43080, Note Name: D#3
Note OFF: Time 43080, Note Name: A#3
Note OFF: Time 43080, Note Name: F3
Note OFF: Time 43080, Note Name: D4
Note OFF: Time 43080, Note Name: G#3
Note ON: Time 43200, Note Name: D#3, Velocity: 57
Note ON: Time 43200, Note Name: D#4, Velocity: 72
Note ON: Time 43200, Note Name: A#3, Velocity: 57
Note ON: Time 43200, Note Name: G3, Velocity: 57
Note OFF: Time 43320, Note Name: G3
Note OFF: Time 43320, Note Name: D#3
Note OFF: Time 43320, Note Name: D#4
Note OFF: Time 43320, Note Name: A#3
Note ON: Time 43440, Note Name: A#3, Velocity: 49
Note ON: Time 43440, Note Name: D#4, Velocity: 62
Note ON: Time 43440, Note Name: D#3, Velocity: 49
Note ON: Time 43440, Note Name: G3, Velocity: 49
Note OFF: Time 43560, Note Name: G3
Note OFF: Time 43560, Note Name: A#3
Note OFF: Time 43560, Note Name: D#4
Note OFF: Time 43560, Note Name: D#3
Note ON: Time 43680, Note Name: D#4, Velocity: 62
Note ON: Time 43680, Note Name: G3, Velocity: 49
Note ON: Time 43680, Note Name: A#3, Velocity: 49
Note ON: Time 43680, Note Name: D#3, Velocity: 49
Note OFF: Time 43800, Note Name: D#3
Note OFF: Time 43800, Note Name: D#4
Note OFF: Time 43800, Note Name: G3
Note OFF: Time 43800, Note Name: A#3
Note ON: Time 43920, Note Name: A#3, Velocity: 49
Note ON: Time 43920, Note Name: D#4, Velocity: 62
Note ON: Time 43920, Note Name: D#3, Velocity: 49
Note ON: Time 43920, Note Name: G3, Velocity: 49
Note OFF: Time 44040, Note Name: G3
Note OFF: Time 44040, Note Name: A#3
Note OFF: Time 44040, Note Name: D#4
Note OFF: Time 44040, Note Name: D#3
Note ON: Time 44160, Note Name: G3, Velocity: 49
Note ON: Time 44160, Note Name: D#4, Velocity: 62
Note ON: Time 44160, Note Name: A#3, Velocity: 49
Note ON: Time 44160, Note Name: D#3, Velocity: 49
Note OFF: Time 44280, Note Name: D#3
Note OFF: Time 44280, Note Name: G3
Note OFF: Time 44280, Note Name: D#4
Note OFF: Time 44280, Note Name: A#3
Note ON: Time 44400, Note Name: D#3, Velocity: 49
Note ON: Time 44400, Note Name: D#4, Velocity: 62
Note ON: Time 44400, Note Name: A#3, Velocity: 49
Note ON: Time 44400, Note Name: G3, Velocity: 49
Note OFF: Time 44520, Note Name: G3
Note OFF: Time 44520, Note Name: D#3
Note OFF: Time 44520, Note Name: D#4
Note OFF: Time 44520, Note Name: A#3
Note ON: Time 44640, Note Name: A#3, Velocity: 55
Note ON: Time 44640, Note Name: D#4, Velocity: 69
Note ON: Time 44640, Note Name: D#3, Velocity: 55
Note ON: Time 44640, Note Name: G3, Velocity: 55
Note OFF: Time 44760, Note Name: G3
Note OFF: Time 44760, Note Name: A#3
Note OFF: Time 44760, Note Name: D#4
Note OFF: Time 44760, Note Name: D#3
Note ON: Time 44880, Note Name: D#4, Velocity: 61
Note ON: Time 44880, Note Name: G3, Velocity: 48
Note ON: Time 44880, Note Name: A#3, Velocity: 48
Note ON: Time 44880, Note Name: D#3, Velocity: 48
Note OFF: Time 45000, Note Name: D#3
Note OFF: Time 45000, Note Name: D#4
Note OFF: Time 45000, Note Name: G3
Note OFF: Time 45000, Note Name: A#3
Note ON: Time 45120, Note Name: A#3, Velocity: 48
Note ON: Time 45120, Note Name: D#4, Velocity: 61
Note ON: Time 45120, Note Name: D#3, Velocity: 48
Note ON: Time 45120, Note Name: G3, Velocity: 48
Note OFF: Time 45240, Note Name: G3
Note OFF: Time 45240, Note Name: A#3
Note OFF: Time 45240, Note Name: D#4
Note OFF: Time 45240, Note Name: D#3
Note ON: Time 45360, Note Name: F3, Velocity: 48
Note ON: Time 45360, Note Name: A#3, Velocity: 61
Note ON: Time 45360, Note Name: G#3, Velocity: 48
Note ON: Time 45360, Note Name: D#3, Velocity: 48
Note OFF: Time 45480, Note Name: D#3
Note OFF: Time 45480, Note Name: F3
Note OFF: Time 45480, Note Name: A#3
Note OFF: Time 45480, Note Name: G#3
Note ON: Time 45600, Note Name: D#3, Velocity: 48
Note ON: Time 45600, Note Name: A#3, Velocity: 61
Note ON: Time 45600, Note Name: G#3, Velocity: 48
Note ON: Time 45600, Note Name: F3, Velocity: 48
Note OFF: Time 45720, Note Name: F3
Note OFF: Time 45720, Note Name: D#3
Note OFF: Time 45720, Note Name: A#3
Note OFF: Time 45720, Note Name: G#3
Note ON: Time 45840, Note Name: G#3, Velocity: 48
Note ON: Time 45840, Note Name: A#3, Velocity: 61
Note ON: Time 45840, Note Name: D#3, Velocity: 48
Note ON: Time 45840, Note Name: F3, Velocity: 48
Note OFF: Time 45960, Note Name: F3
Note OFF: Time 45960, Note Name: G#3
Note OFF: Time 45960, Note Name: A#3
Note OFF: Time 45960, Note Name: D#3
Note ON: Time 46080, Note Name: D#2, Velocity: 73
Note OFF: Time 46200, Note Name: D#2
Note ON: Time 46320, Note Name: D#3, Velocity: 49
Note ON: Time 46320, Note Name: G3, Velocity: 62
Note OFF: Time 46440, Note Name: G3
Note OFF: Time 46440, Note Name: D#3
Note ON: Time 46560, Note Name: D#3, Velocity: 49
Note ON: Time 46560, Note Name: A#3, Velocity: 62
Note ON: Time 46560, Note Name: G3, Velocity: 49
Note OFF: Time 46680, Note Name: G3
Note OFF: Time 46680, Note Name: A#3
Note OFF: Time 46680, Note Name: D#3
Note ON: Time 46800, Note Name: A#3, Velocity: 49
Note ON: Time 46800, Note Name: D#4, Velocity: 62
Note ON: Time 46800, Note Name: D#3, Velocity: 49
Note ON: Time 46800, Note Name: G3, Velocity: 49
Note OFF: Time 46920, Note Name: G3
Note OFF: Time 46920, Note Name: A#3
Note OFF: Time 46920, Note Name: D#4
Note OFF: Time 46920, Note Name: D#3
Note ON: Time 47040, Note Name: D#4, Velocity: 62
Note ON: Time 47040, Note Name: G3, Velocity: 49
Note ON: Time 47040, Note Name: A#3, Velocity: 49
Note ON: Time 47040, Note Name: D#3, Velocity: 49
Note OFF: Time 47160, Note Name: D#3
Note OFF: Time 47160, Note Name: D#4
Note OFF: Time 47160, Note Name: G3
Note OFF: Time 47160, Note Name: A#3
Note ON: Time 47280, Note Name: A#3, Velocity: 49
Note ON: Time 47280, Note Name: D#4, Velocity: 62
Note ON: Time 47280, Note Name: D#3, Velocity: 49
Note ON: Time 47280, Note Name: G3, Velocity: 49
Note OFF: Time 47400, Note Name: G3
Note OFF: Time 47400, Note Name: A#3
Note OFF: Time 47400, Note Name: D#4
Note OFF: Time 47400, Note Name: D#3
Note ON: Time 47520, Note Name: G3, Velocity: 56
Note ON: Time 47520, Note Name: D#4, Velocity: 70
Note ON: Time 47520, Note Name: A#3, Velocity: 56
Note ON: Time 47520, Note Name: D#3, Velocity: 56
Note OFF: Time 47640, Note Name: D#3
Note OFF: Time 47640, Note Name: G3
Note OFF: Time 47640, Note Name: D#4
Note OFF: Time 47640, Note Name: A#3
Note ON: Time 47760, Note Name: A#3, Velocity: 49
Note ON: Time 47760, Note Name: D#3, Velocity: 49
Note ON: Time 47760, Note Name: G3, Velocity: 49
Note ON: Time 47760, Note Name: D#4, Velocity: 62
Note OFF: Time 47880, Note Name: D#4
Note OFF: Time 47880, Note Name: A#3
Note OFF: Time 47880, Note Name: D#3
Note OFF: Time 47880, Note Name: G3
Note ON: Time 48000, Note Name: G3, Velocity: 49
Note ON: Time 48000, Note Name: D#3, Velocity: 49
Note ON: Time 48000, Note Name: A#3, Velocity: 49
Note ON: Time 48000, Note Name: D#4, Velocity: 62
Note OFF: Time 48120, Note Name: D#4
Note OFF: Time 48120, Note Name: G3
Note OFF: Time 48120, Note Name: D#3
Note OFF: Time 48120, Note Name: A#3
Note ON: Time 48240, Note Name: D4, Velocity: 62
Note ON: Time 48240, Note Name: F3, Velocity: 49
Note ON: Time 48240, Note Name: D#3, Velocity: 49
Note ON: Time 48240, Note Name: A#3, Velocity: 49
Note ON: Time 48240, Note Name: G#3, Velocity: 49
Note OFF: Time 48360, Note Name: G#3
Note OFF: Time 48360, Note Name: D#3
Note OFF: Time 48360, Note Name: D4
Note OFF: Time 48360, Note Name: F3
Note OFF: Time 48360, Note Name: A#3
Note ON: Time 48480, Note Name: D4, Velocity: 62
Note ON: Time 48480, Note Name: F3, Velocity: 49
Note ON: Time 48480, Note Name: D#3, Velocity: 49
Note ON: Time 48480, Note Name: G#3, Velocity: 49
Note ON: Time 48480, Note Name: A#3, Velocity: 49
Note OFF: Time 48600, Note Name: A#3
Note OFF: Time 48600, Note Name: D#3
Note OFF: Time 48600, Note Name: D4
Note OFF: Time 48600, Note Name: F3
Note OFF: Time 48600, Note Name: G#3
Note ON: Time 48720, Note Name: D4, Velocity: 62
Note ON: Time 48720, Note Name: F3, Velocity: 49
Note ON: Time 48720, Note Name: D#3, Velocity: 49
Note ON: Time 48720, Note Name: G#3, Velocity: 49
Note ON: Time 48720, Note Name: A#3, Velocity: 49
Note OFF: Time 48840, Note Name: A#3
Note OFF: Time 48840, Note Name: D#3
Note OFF: Time 48840, Note Name: D4
Note OFF: Time 48840, Note Name: F3
Note OFF: Time 48840, Note Name: G#3
Note ON: Time 48960, Note Name: D#4, Velocity: 72
Note ON: Time 48960, Note Name: D#3, Velocity: 57
Note ON: Time 48960, Note Name: A#3, Velocity: 57
Note ON: Time 48960, Note Name: G3, Velocity: 57
Note OFF: Time 49080, Note Name: G3
Note OFF: Time 49080, Note Name: D#4
Note OFF: Time 49080, Note Name: D#3
Note OFF: Time 49080, Note Name: A#3
Note ON: Time 49200, Note Name: D#4, Velocity: 62
Note ON: Time 49200, Note Name: A#3, Velocity: 49
Note ON: Time 49200, Note Name: D#3, Velocity: 49
Note ON: Time 49200, Note Name: G3, Velocity: 49
Note OFF: Time 49320, Note Name: G3
Note OFF: Time 49320, Note Name: D#4
Note OFF: Time 49320, Note Name: A#3
Note OFF: Time 49320, Note Name: D#3
Note ON: Time 49440, Note Name: D#4, Velocity: 62
Note ON: Time 49440, Note Name: A#3, Velocity: 49
Note ON: Time 49440, Note Name: G3, Velocity: 49
Note ON: Time 49440, Note Name: D#3, Velocity: 49
Note OFF: Time 49560, Note Name: D#3
Note OFF: Time 49560, Note Name: D#4
Note OFF: Time 49560, Note Name: A#3
Note OFF: Time 49560, Note Name: G3
Note ON: Time 49680, Note Name: A#3, Velocity: 49
Note ON: Time 49680, Note Name: D#3, Velocity: 49
Note ON: Time 49680, Note Name: G3, Velocity: 49
Note ON: Time 49680, Note Name: D#4, Velocity: 62
Note OFF: Time 49800, Note Name: D#4
Note OFF: Time 49800, Note Name: A#3
Note OFF: Time 49800, Note Name: D#3
Note OFF: Time 49800, Note Name: G3
Note ON: Time 49920, Note Name: G3, Velocity: 49
Note ON: Time 49920, Note Name: D#3, Velocity: 49
Note ON: Time 49920, Note Name: A#3, Velocity: 49
Note ON: Time 49920, Note Name: D#4, Velocity: 62
Note OFF: Time 50040, Note Name: D#4
Note OFF: Time 50040, Note Name: G3
Note OFF: Time 50040, Note Name: D#3
Note OFF: Time 50040, Note Name: A#3
Note ON: Time 50160, Note Name: D#4, Velocity: 62
Note ON: Time 50160, Note Name: D#3, Velocity: 49
Note ON: Time 50160, Note Name: A#3, Velocity: 49
Note ON: Time 50160, Note Name: G3, Velocity: 49
Note OFF: Time 50280, Note Name: G3
Note OFF: Time 50280, Note Name: D#4
Note OFF: Time 50280, Note Name: D#3
Note OFF: Time 50280, Note Name: A#3
Note ON: Time 50400, Note Name: G3, Velocity: 55
Note ON: Time 50400, Note Name: D#3, Velocity: 55
Note ON: Time 50400, Note Name: A#3, Velocity: 69
Note OFF: Time 50520, Note Name: A#3
Note OFF: Time 50520, Note Name: D#3
Note OFF: Time 50520, Note Name: G3
Note ON: Time 50640, Note Name: A#3, Velocity: 61
Note ON: Time 50640, Note Name: G3, Velocity: 48
Note ON: Time 50640, Note Name: D#3, Velocity: 48
Note OFF: Time 50760, Note Name: D#3
Note OFF: Time 50760, Note Name: G3
Note OFF: Time 50760, Note Name: A#3
Note ON: Time 50880, Note Name: G3, Velocity: 48
Note ON: Time 50880, Note Name: A#3, Velocity: 61
Note ON: Time 50880, Note Name: D#3, Velocity: 48
Note OFF: Time 51000, Note Name: D#3
Note OFF: Time 51000, Note Name: A#3
Note OFF: Time 51000, Note Name: G3
Note ON: Time 51120, Note Name: F3, Velocity: 61
Note ON: Time 51120, Note Name: D#3, Velocity: 48
Note OFF: Time 51240, Note Name: D#3
Note OFF: Time 51240, Note Name: F3
Note ON: Time 51360, Note Name: D#3, Velocity: 48
Note ON: Time 51360, Note Name: F3, Velocity: 61
Note ON: Time 51360, Note Name: F2, Velocity: 48
Note OFF: Time 51480, Note Name: F2
Note OFF: Time 51480, Note Name: F3
Note OFF: Time 51480, Note Name: D#3
Note ON: Time 51600, Note Name: F3, Velocity: 61
Note ON: Time 51600, Note Name: F2, Velocity: 48
Note ON: Time 51600, Note Name: D#3, Velocity: 48
Note OFF: Time 51720, Note Name: D#3
Note OFF: Time 51720, Note Name: F2
Note OFF: Time 51720, Note Name: F3
Note ON: Time 51840, Note Name: A#1, Velocity: 80
Note ON: Time 51840, Note Name: A#2, Velocity: 80
Note OFF: Time 52080, Note Name: A#2
Note OFF: Time 52080, Note Name: A#1
Note ON: Time 52560, Note Name: A#3, Velocity: 75
Note OFF: Time 52800, Note Name: A#3
Note ON: Time 53280, Note Name: C#4, Velocity: 81
Note OFF: Time 53520, Note Name: C#4
Note ON: Time 54000, Note Name: F#4, Velocity: 74
Note OFF: Time 54240, Note Name: F#4
Note ON: Time 54720, Note Name: C#4, Velocity: 79
Note OFF: Time 54960, Note Name: C#4
Note ON: Time 55440, Note Name: A#3, Velocity: 74
Note OFF: Time 55680, Note Name: A#3
Note ON: Time 56160, Note Name: F#3, Velocity: 78
Note OFF: Time 56400, Note Name: F#3
Note ON: Time 56880, Note Name: C#3, Velocity: 70
Note OFF: Time 57120, Note Name: C#3
Note ON: Time 57600, Note Name: A2, Velocity: 80
Note ON: Time 57600, Note Name: A1, Velocity: 80
Note OFF: Time 57840, Note Name: A1
Note OFF: Time 57840, Note Name: A2
Note ON: Time 58320, Note Name: A3, Velocity: 75
Note OFF: Time 58560, Note Name: A3
Note ON: Time 59040, Note Name: C4, Velocity: 81
Note OFF: Time 59280, Note Name: C4
Note ON: Time 59760, Note Name: F4, Velocity: 74
Note OFF: Time 60000, Note Name: F4
Note ON: Time 60480, Note Name: C4, Velocity: 79
Note OFF: Time 60720, Note Name: C4
Note ON: Time 61200, Note Name: A3, Velocity: 74
Note OFF: Time 61440, Note Name: A3
Note ON: Time 61920, Note Name: F3, Velocity: 78
Note OFF: Time 62160, Note Name: F3
Note ON: Time 62640, Note Name: C3, Velocity: 70
Note OFF: Time 62880, Note Name: C3
Note ON: Time 63360, Note Name: C#4, Velocity: 34
Note ON: Time 63360, Note Name: F#4, Velocity: 40
Note ON: Time 63360, Note Name: A#3, Velocity: 34
Note OFF: Time 63480, Note Name: A#3
Note OFF: Time 63480, Note Name: F#4
Note OFF: Time 63480, Note Name: C#4
Note ON: Time 63600, Note Name: A#3, Velocity: 29
Note ON: Time 63600, Note Name: C#4, Velocity: 29
Note ON: Time 63600, Note Name: F#4, Velocity: 35
Note OFF: Time 63720, Note Name: F#4
Note OFF: Time 63720, Note Name: C#4
Note OFF: Time 63720, Note Name: A#3
Note ON: Time 63840, Note Name: C#4, Velocity: 29
Note ON: Time 63840, Note Name: A#3, Velocity: 29
Note ON: Time 63840, Note Name: F#4, Velocity: 35
Note OFF: Time 63960, Note Name: F#4
Note OFF: Time 63960, Note Name: A#3
Note OFF: Time 63960, Note Name: C#4
Note ON: Time 64080, Note Name: A#3, Velocity: 29
Note ON: Time 64080, Note Name: F#4, Velocity: 36
Note ON: Time 64080, Note Name: C#4, Velocity: 29
Note OFF: Time 64200, Note Name: C#4
Note OFF: Time 64200, Note Name: F#4
Note OFF: Time 64200, Note Name: A#3
Note ON: Time 64320, Note Name: A#3, Velocity: 30
Note ON: Time 64320, Note Name: C#4, Velocity: 30
Note ON: Time 64320, Note Name: F#4, Velocity: 36
Note OFF: Time 64440, Note Name: F#4
Note OFF: Time 64440, Note Name: C#4
Note OFF: Time 64440, Note Name: A#3
Note ON: Time 64560, Note Name: C#4, Velocity: 30
Note ON: Time 64560, Note Name: F#4, Velocity: 36
Note ON: Time 64560, Note Name: A#3, Velocity: 30
Note OFF: Time 64680, Note Name: A#3
Note OFF: Time 64680, Note Name: F#4
Note OFF: Time 64680, Note Name: C#4
Note ON: Time 64800, Note Name: A#3, Velocity: 36
Note ON: Time 64800, Note Name: C#4, Velocity: 36
Note ON: Time 64800, Note Name: F#4, Velocity: 42
Note OFF: Time 64920, Note Name: F#4
Note OFF: Time 64920, Note Name: C#4
Note OFF: Time 64920, Note Name: A#3
Note ON: Time 65040, Note Name: C#4, Velocity: 31
Note ON: Time 65040, Note Name: A#3, Velocity: 31
Note ON: Time 65040, Note Name: F#4, Velocity: 37
Note OFF: Time 65160, Note Name: F#4
Note OFF: Time 65160, Note Name: A#3
Note OFF: Time 65160, Note Name: C#4
Note ON: Time 65280, Note Name: A#3, Velocity: 31
Note ON: Time 65280, Note Name: F#4, Velocity: 37
Note ON: Time 65280, Note Name: C#4, Velocity: 31
Note OFF: Time 65400, Note Name: C#4
Note OFF: Time 65400, Note Name: F#4
Note OFF: Time 65400, Note Name: A#3
Note ON: Time 65520, Note Name: A#3, Velocity: 31
Note ON: Time 65520, Note Name: C#4, Velocity: 31
Note ON: Time 65520, Note Name: F#4, Velocity: 38
Note OFF: Time 65640, Note Name: F#4
Note OFF: Time 65640, Note Name: C#4
Note OFF: Time 65640, Note Name: A#3
Note ON: Time 65760, Note Name: C#4, Velocity: 29
Note ON: Time 65760, Note Name: F#4, Velocity: 35
Note ON: Time 65760, Note Name: A#3, Velocity: 29
Note OFF: Time 65880, Note Name: A#3
Note OFF: Time 65880, Note Name: F#4
Note OFF: Time 65880, Note Name: C#4
Note ON: Time 66000, Note Name: A#3, Velocity: 29
Note ON: Time 66000, Note Name: C#4, Velocity: 29
Note ON: Time 66000, Note Name: F#4, Velocity: 35
Note OFF: Time 66120, Note Name: F#4
Note OFF: Time 66120, Note Name: C#4
Note OFF: Time 66120, Note Name: A#3
Note ON: Time 66240, Note Name: C#4, Velocity: 34
Note ON: Time 66240, Note Name: A#3, Velocity: 34
Note ON: Time 66240, Note Name: F#4, Velocity: 40
Note OFF: Time 66360, Note Name: F#4
Note OFF: Time 66360, Note Name: A#3
Note OFF: Time 66360, Note Name: C#4
Note ON: Time 66480, Note Name: A#3, Velocity: 29
Note ON: Time 66480, Note Name: F#4, Velocity: 35
Note ON: Time 66480, Note Name: C#4, Velocity: 29
Note OFF: Time 66600, Note Name: C#4
Note OFF: Time 66600, Note Name: F#4
Note OFF: Time 66600, Note Name: A#3
Note ON: Time 66720, Note Name: A#3, Velocity: 29
Note ON: Time 66720, Note Name: C#4, Velocity: 29
Note ON: Time 66720, Note Name: F#4, Velocity: 35
Note OFF: Time 66840, Note Name: F#4
Note OFF: Time 66840, Note Name: C#4
Note OFF: Time 66840, Note Name: A#3
Note ON: Time 66960, Note Name: C#4, Velocity: 29
Note ON: Time 66960, Note Name: F#4, Velocity: 35
Note ON: Time 66960, Note Name: A#3, Velocity: 29
Note OFF: Time 67080, Note Name: A#3
Note OFF: Time 67080, Note Name: F#4
Note OFF: Time 67080, Note Name: C#4
Note ON: Time 67200, Note Name: A#3, Velocity: 29
Note ON: Time 67200, Note Name: C#4, Velocity: 29
Note ON: Time 67200, Note Name: F#4, Velocity: 35
Note OFF: Time 67320, Note Name: F#4
Note OFF: Time 67320, Note Name: C#4
Note OFF: Time 67320, Note Name: A#3
Note ON: Time 67440, Note Name: C#4, Velocity: 29
Note ON: Time 67440, Note Name: A#3, Velocity: 29
Note ON: Time 67440, Note Name: F#4, Velocity: 35
Note OFF: Time 67560, Note Name: F#4
Note OFF: Time 67560, Note Name: A#3
Note OFF: Time 67560, Note Name: C#4
Note ON: Time 67680, Note Name: A#3, Velocity: 34
Note ON: Time 67680, Note Name: F#4, Velocity: 40
Note ON: Time 67680, Note Name: C#4, Velocity: 34
Note OFF: Time 67800, Note Name: C#4
Note OFF: Time 67800, Note Name: F#4
Note OFF: Time 67800, Note Name: A#3
Note ON: Time 67920, Note Name: A#3, Velocity: 29
Note ON: Time 67920, Note Name: C#4, Velocity: 29
Note ON: Time 67920, Note Name: F#4, Velocity: 35
Note OFF: Time 68040, Note Name: F#4
Note OFF: Time 68040, Note Name: C#4
Note OFF: Time 68040, Note Name: A#3
Note ON: Time 68160, Note Name: C#4, Velocity: 29
Note ON: Time 68160, Note Name: F#4, Velocity: 35
Note ON: Time 68160, Note Name: A#3, Velocity: 29
Note OFF: Time 68280, Note Name: A#3
Note OFF: Time 68280, Note Name: F#4
Note OFF: Time 68280, Note Name: C#4
Note ON: Time 68400, Note Name: A#3, Velocity: 29
Note ON: Time 68400, Note Name: C#4, Velocity: 29
Note ON: Time 68400, Note Name: F#4, Velocity: 35
Note OFF: Time 68520, Note Name: F#4
Note OFF: Time 68520, Note Name: C#4
Note OFF: Time 68520, Note Name: A#3
Note ON: Time 68640, Note Name: C#4, Velocity: 29
Note ON: Time 68640, Note Name: A#3, Velocity: 29
Note ON: Time 68640, Note Name: F#4, Velocity: 35
Note OFF: Time 68760, Note Name: F#4
Note OFF: Time 68760, Note Name: A#3
Note OFF: Time 68760, Note Name: C#4
Note ON: Time 68880, Note Name: A#3, Velocity: 29
Note ON: Time 68880, Note Name: E4, Velocity: 35
Note ON: Time 68880, Note Name: C#4, Velocity: 29
Note OFF: Time 69000, Note Name: C#4
Note OFF: Time 69000, Note Name: E4
Note OFF: Time 69000, Note Name: A#3
Note ON: Time 69120, Note Name: A3, Velocity: 34
Note ON: Time 69120, Note Name: C4, Velocity: 34
Note ON: Time 69120, Note Name: F4, Velocity: 40
Note OFF: Time 69240, Note Name: F4
Note OFF: Time 69240, Note Name: C4
Note OFF: Time 69240, Note Name: A3
Note ON: Time 69360, Note Name: C4, Velocity: 29
Note ON: Time 69360, Note Name: F4, Velocity: 35
Note ON: Time 69360, Note Name: A3, Velocity: 29
Note OFF: Time 69480, Note Name: A3
Note OFF: Time 69480, Note Name: F4
Note OFF: Time 69480, Note Name: C4
Note ON: Time 69600, Note Name: F4, Velocity: 35
Note ON: Time 69600, Note Name: A3, Velocity: 29
Note ON: Time 69600, Note Name: C4, Velocity: 29
Note OFF: Time 69720, Note Name: C4
Note OFF: Time 69720, Note Name: A3
Note OFF: Time 69720, Note Name: F4
Note ON: Time 69840, Note Name: A3, Velocity: 29
Note ON: Time 69840, Note Name: C4, Velocity: 29
Note ON: Time 69840, Note Name: F4, Velocity: 36
Note OFF: Time 69960, Note Name: F4
Note OFF: Time 69960, Note Name: C4
Note OFF: Time 69960, Note Name: A3
Note ON: Time 70080, Note Name: C4, Velocity: 30
Note ON: Time 70080, Note Name: A3, Velocity: 30
Note ON: Time 70080, Note Name: F4, Velocity: 36
Note OFF: Time 70200, Note Name: F4
Note OFF: Time 70200, Note Name: A3
Note OFF: Time 70200, Note Name: C4
Note ON: Time 70320, Note Name: A3, Velocity: 30
Note ON: Time 70320, Note Name: F4, Velocity: 36
Note ON: Time 70320, Note Name: C4, Velocity: 30
Note OFF: Time 70440, Note Name: C4
Note OFF: Time 70440, Note Name: F4
Note OFF: Time 70440, Note Name: A3
Note ON: Time 70560, Note Name: A3, Velocity: 36
Note ON: Time 70560, Note Name: C4, Velocity: 36
Note ON: Time 70560, Note Name: F4, Velocity: 42
Note OFF: Time 70680, Note Name: F4
Note OFF: Time 70680, Note Name: C4
Note OFF: Time 70680, Note Name: A3
Note ON: Time 70800, Note Name: F4, Velocity: 37
Note ON: Time 70800, Note Name: A3, Velocity: 31
Note ON: Time 70800, Note Name: C4, Velocity: 31
Note OFF: Time 70920, Note Name: C4
Note OFF: Time 70920, Note Name: A3
Note OFF: Time 70920, Note Name: F4
Note ON: Time 71040, Note Name: A3, Velocity: 31
Note ON: Time 71040, Note Name: C4, Velocity: 31
Note ON: Time 71040, Note Name: F4, Velocity: 37
Note OFF: Time 71160, Note Name: F4
Note OFF: Time 71160, Note Name: C4
Note OFF: Time 71160, Note Name: A3
Note ON: Time 71280, Note Name: C4, Velocity: 31
Note ON: Time 71280, Note Name: A3, Velocity: 31
Note ON: Time 71280, Note Name: F4, Velocity: 38
Note OFF: Time 71400, Note Name: F4
Note OFF: Time 71400, Note Name: A3
Note OFF: Time 71400, Note Name: C4
Note ON: Time 71520, Note Name: A3, Velocity: 29
Note ON: Time 71520, Note Name: F4, Velocity: 35
Note ON: Time 71520, Note Name: C4, Velocity: 29
Note OFF: Time 71640, Note Name: C4
Note OFF: Time 71640, Note Name: F4
Note OFF: Time 71640, Note Name: A3
Note ON: Time 71760, Note Name: A3, Velocity: 29
Note ON: Time 71760, Note Name: C4, Velocity: 29
Note ON: Time 71760, Note Name: F4, Velocity: 35
Note OFF: Time 71880, Note Name: F4
Note OFF: Time 71880, Note Name: C4
Note OFF: Time 71880, Note Name: A3
Note ON: Time 72000, Note Name: F4, Velocity: 40
Note ON: Time 72000, Note Name: A3, Velocity: 34
Note ON: Time 72000, Note Name: C4, Velocity: 34
Note OFF: Time 72120, Note Name: C4
Note OFF: Time 72120, Note Name: A3
Note OFF: Time 72120, Note Name: F4
Note ON: Time 72240, Note Name: A3, Velocity: 29
Note ON: Time 72240, Note Name: C4, Velocity: 29
Note ON: Time 72240, Note Name: F4, Velocity: 35
Note OFF: Time 72360, Note Name: F4
Note OFF: Time 72360, Note Name: C4
Note OFF: Time 72360, Note Name: A3
Note ON: Time 72480, Note Name: C4, Velocity: 29
Note ON: Time 72480, Note Name: A3, Velocity: 29
Note ON: Time 72480, Note Name: F4, Velocity: 35
Note OFF: Time 72600, Note Name: F4
Note OFF: Time 72600, Note Name: A3
Note OFF: Time 72600, Note Name: C4
Note ON: Time 72720, Note Name: A3, Velocity: 29
Note ON: Time 72720, Note Name: F4, Velocity: 35
Note ON: Time 72720, Note Name: C4, Velocity: 29
Note OFF: Time 72840, Note Name: C4
Note OFF: Time 72840, Note Name: F4
Note OFF: Time 72840, Note Name: A3
Note ON: Time 72960, Note Name: A3, Velocity: 29
Note ON: Time 72960, Note Name: C4, Velocity: 29
Note ON: Time 72960, Note Name: F4, Velocity: 35
Note OFF: Time 73080, Note Name: F4
Note OFF: Time 73080, Note Name: C4
Note OFF: Time 73080, Note Name: A3
Note ON: Time 73200, Note Name: F4, Velocity: 35
Note ON: Time 73200, Note Name: A3, Velocity: 29
Note ON: Time 73200, Note Name: C4, Velocity: 29
Note OFF: Time 73320, Note Name: C4
Note OFF: Time 73320, Note Name: A3
Note OFF: Time 73320, Note Name: F4
Note ON: Time 73440, Note Name: C4, Velocity: 34
Note ON: Time 73440, Note Name: A3, Velocity: 34
Note ON: Time 73440, Note Name: F4, Velocity: 40
Note OFF: Time 73560, Note Name: F4
Note OFF: Time 73560, Note Name: A3
Note OFF: Time 73560, Note Name: C4
Note ON: Time 73680, Note Name: C4, Velocity: 29
Note ON: Time 73680, Note Name: A3, Velocity: 29
Note ON: Time 73680, Note Name: F4, Velocity: 35
Note OFF: Time 73800, Note Name: F4
Note OFF: Time 73800, Note Name: A3
Note OFF: Time 73800, Note Name: C4
Note ON: Time 73920, Note Name: A3, Velocity: 29
Note ON: Time 73920, Note Name: C4, Velocity: 29
Note ON: Time 73920, Note Name: F4, Velocity: 35
Note OFF: Time 74040, Note Name: F4
Note OFF: Time 74040, Note Name: C4
Note OFF: Time 74040, Note Name: A3
Note ON: Time 74160, Note Name: A3, Velocity: 29
Note ON: Time 74160, Note Name: C4, Velocity: 29
Note ON: Time 74160, Note Name: F4, Velocity: 35
Note OFF: Time 74400, Note Name: F4
Note OFF: Time 74400, Note Name: C4
Note OFF: Time 74400, Note Name: A3
Note ON: Time 74400, Note Name: F3, Velocity: 35
Note OFF: Time 74640, Note Name: F3
Note ON: Time 74640, Note Name: D#3, Velocity: 35
Note OFF: Time 74880, Note Name: D#3
Note ON: Time 74880, Note Name: A#2, Velocity: 40
Note ON: Time 74880, Note Name: D3, Velocity: 40
Note OFF: Time 75360, Note Name: D3
Note ON: Time 75360, Note Name: G3, Velocity: 33
Note OFF: Time 75600, Note Name: G3
Note ON: Time 75600, Note Name: F3, Velocity: 42
Note OFF: Time 76080, Note Name: F3
Note ON: Time 76080, Note Name: D3, Velocity: 39
Note OFF: Time 76320, Note Name: D3
Note OFF: Time 76320, Note Name: A#2
Note ON: Time 76320, Note Name: F2, Velocity: 42
Note ON: Time 76320, Note Name: C3, Velocity: 42
Note OFF: Time 76800, Note Name: C3
Note ON: Time 76800, Note Name: G3, Velocity: 36
Note OFF: Time 77040, Note Name: G3
Note ON: Time 77040, Note Name: F3, Velocity: 45
Note OFF: Time 77520, Note Name: F3
Note ON: Time 77520, Note Name: C3, Velocity: 41
Note OFF: Time 77760, Note Name: C3
Note OFF: Time 77760, Note Name: F2
Note ON: Time 77760, Note Name: A#2, Velocity: 46
Note ON: Time 77760, Note Name: D3, Velocity: 46
Note OFF: Time 78240, Note Name: D3
Note ON: Time 78240, Note Name: G3, Velocity: 37
Note OFF: Time 78480, Note Name: G3
Note ON: Time 78480, Note Name: F3, Velocity: 45
Note OFF: Time 78960, Note Name: F3
Note ON: Time 78960, Note Name: D3, Velocity: 40
Note OFF: Time 79200, Note Name: D3
Note OFF: Time 79200, Note Name: A#2
Note ON: Time 79200, Note Name: F2, Velocity: 43
Note ON: Time 79200, Note Name: C3, Velocity: 43
Note OFF: Time 79680, Note Name: C3
Note ON: Time 79680, Note Name: G3, Velocity: 34
Note OFF: Time 79920, Note Name: G3
Note ON: Time 79920, Note Name: F3, Velocity: 42
Note OFF: Time 80400, Note Name: F3
Note ON: Time 80400, Note Name: C3, Velocity: 37
Note OFF: Time 80640, Note Name: C3
Note OFF: Time 80640, Note Name: F2
Note ON: Time 80640, Note Name: D3, Velocity: 40
Note ON: Time 80640, Note Name: A#2, Velocity: 34
Note OFF: Time 80760, Note Name: A#2
Note OFF: Time 80760, Note Name: D3
Note ON: Time 80880, Note Name: D3, Velocity: 29
Note ON: Time 80880, Note Name: F3, Velocity: 29
Note ON: Time 80880, Note Name: A#3, Velocity: 35
Note OFF: Time 81000, Note Name: A#3
Note OFF: Time 81000, Note Name: F3
Note OFF: Time 81000, Note Name: D3
Note ON: Time 81120, Note Name: D3, Velocity: 29
Note ON: Time 81120, Note Name: F3, Velocity: 29
Note ON: Time 81120, Note Name: A#3, Velocity: 35
Note OFF: Time 81240, Note Name: A#3
Note OFF: Time 81240, Note Name: F3
Note OFF: Time 81240, Note Name: D3
Note ON: Time 81360, Note Name: D3, Velocity: 29
Note ON: Time 81360, Note Name: F3, Velocity: 29
Note ON: Time 81360, Note Name: A#3, Velocity: 35
Note OFF: Time 81480, Note Name: A#3
Note OFF: Time 81480, Note Name: F3
Note OFF: Time 81480, Note Name: D3
Note ON: Time 81600, Note Name: D3, Velocity: 29
Note ON: Time 81600, Note Name: F3, Velocity: 29
Note ON: Time 81600, Note Name: A#3, Velocity: 35
Note OFF: Time 81720, Note Name: A#3
Note OFF: Time 81720, Note Name: F3
Note OFF: Time 81720, Note Name: D3
Note ON: Time 81840, Note Name: D3, Velocity: 29
Note ON: Time 81840, Note Name: F3, Velocity: 29
Note ON: Time 81840, Note Name: A#3, Velocity: 35
Note OFF: Time 81960, Note Name: A#3
Note OFF: Time 81960, Note Name: F3
Note OFF: Time 81960, Note Name: D3
Note ON: Time 82320, Note Name: D#3, Velocity: 29
Note ON: Time 82320, Note Name: G3, Velocity: 29
Note ON: Time 82320, Note Name: A#3, Velocity: 35
Note OFF: Time 82440, Note Name: A#3
Note OFF: Time 82440, Note Name: G3
Note OFF: Time 82440, Note Name: D#3
Note ON: Time 82560, Note Name: D#3, Velocity: 29
Note ON: Time 82560, Note Name: G3, Velocity: 29
Note ON: Time 82560, Note Name: A#3, Velocity: 35
Note OFF: Time 82680, Note Name: A#3
Note OFF: Time 82680, Note Name: G3
Note OFF: Time 82680, Note Name: D#3
Note ON: Time 82800, Note Name: D#3, Velocity: 29
Note ON: Time 82800, Note Name: G3, Velocity: 29
Note ON: Time 82800, Note Name: A#3, Velocity: 35
Note OFF: Time 82920, Note Name: A#3
Note OFF: Time 82920, Note Name: G3
Note OFF: Time 82920, Note Name: D#3
Note ON: Time 83040, Note Name: D#3, Velocity: 29
Note ON: Time 83040, Note Name: G3, Velocity: 29
Note ON: Time 83040, Note Name: A#3, Velocity: 35
Note OFF: Time 83160, Note Name: A#3
Note OFF: Time 83160, Note Name: G3
Note OFF: Time 83160, Note Name: D#3
Note ON: Time 83280, Note Name: D#3, Velocity: 29
Note ON: Time 83280, Note Name: G3, Velocity: 29
Note ON: Time 83280, Note Name: C4, Velocity: 35
Note OFF: Time 83400, Note Name: C4
Note OFF: Time 83400, Note Name: G3
Note OFF: Time 83400, Note Name: D#3
Note ON: Time 83760, Note Name: F3, Velocity: 29
Note ON: Time 83760, Note Name: A#3, Velocity: 29
Note ON: Time 83760, Note Name: D4, Velocity: 35
Note OFF: Time 83880, Note Name: D4
Note OFF: Time 83880, Note Name: A#3
Note OFF: Time 83880, Note Name: F3
Note ON: Time 84000, Note Name: F3, Velocity: 29
Note ON: Time 84000, Note Name: A#3, Velocity: 29
Note ON: Time 84000, Note Name: D4, Velocity: 35
Note OFF: Time 84120, Note Name: D4
Note OFF: Time 84120, Note Name: A#3
Note OFF: Time 84120, Note Name: F3
Note ON: Time 84240, Note Name: F3, Velocity: 29
Note ON: Time 84240, Note Name: A#3, Velocity: 29
Note ON: Time 84240, Note Name: D4, Velocity: 35
Note OFF: Time 84360, Note Name: D4
Note OFF: Time 84360, Note Name: A#3
Note OFF: Time 84360, Note Name: F3
Note ON: Time 84480, Note Name: F3, Velocity: 29
Note ON: Time 84480, Note Name: A#3, Velocity: 29
Note ON: Time 84480, Note Name: D4, Velocity: 35
Note OFF: Time 84600, Note Name: D4
Note OFF: Time 84600, Note Name: A#3
Note OFF: Time 84600, Note Name: F3
Note ON: Time 84720, Note Name: F3, Velocity: 29
Note ON: Time 84720, Note Name: A#3, Velocity: 29
Note ON: Time 84720, Note Name: D4, Velocity: 35
Note OFF: Time 84840, Note Name: D4
Note OFF: Time 84840, Note Name: A#3
Note OFF: Time 84840, Note Name: F3
Note ON: Time 84960, Note Name: D4, Velocity: 35
Note ON: Time 84960, Note Name: F3, Velocity: 29
Note ON: Time 84960, Note Name: A#3, Velocity: 29
Note OFF: Time 85080, Note Name: A#3
Note OFF: Time 85080, Note Name: F3
Note OFF: Time 85080, Note Name: D4
Note ON: Time 85200, Note Name: F3, Velocity: 29
Note ON: Time 85200, Note Name: A#3, Velocity: 29
Note ON: Time 85200, Note Name: D4, Velocity: 35
Note OFF: Time 85320, Note Name: D4
Note OFF: Time 85320, Note Name: A#3
Note OFF: Time 85320, Note Name: F3
Note ON: Time 85440, Note Name: D4, Velocity: 35
Note ON: Time 85440, Note Name: A#3, Velocity: 29
Note ON: Time 85440, Note Name: F3, Velocity: 29
Note OFF: Time 85560, Note Name: F3
Note OFF: Time 85560, Note Name: A#3
Note OFF: Time 85560, Note Name: D4
Note ON: Time 85680, Note Name: F3, Velocity: 29
Note ON: Time 85680, Note Name: A3, Velocity: 29
Note ON: Time 85680, Note Name: D#4, Velocity: 35
Note OFF: Time 85800, Note Name: D#4
Note OFF: Time 85800, Note Name: A3
Note OFF: Time 85800, Note Name: F3
Note ON: Time 85920, Note Name: F3, Velocity: 29
Note ON: Time 85920, Note Name: A3, Velocity: 29
Note ON: Time 85920, Note Name: D#4, Velocity: 35
Note OFF: Time 86040, Note Name: D#4
Note OFF: Time 86040, Note Name: A3
Note OFF: Time 86040, Note Name: F3
Note ON: Time 86160, Note Name: F3, Velocity: 29
Note ON: Time 86160, Note Name: A3, Velocity: 29
Note ON: Time 86160, Note Name: D#4, Velocity: 35
Note OFF: Time 86280, Note Name: D#4
Note OFF: Time 86280, Note Name: A3
Note OFF: Time 86280, Note Name: F3
Note ON: Time 86400, Note Name: A#3, Velocity: 40
Note ON: Time 86400, Note Name: D4, Velocity: 40
Note OFF: Time 86880, Note Name: D4
Note ON: Time 86880, Note Name: G4, Velocity: 33
Note OFF: Time 87120, Note Name: G4
Note ON: Time 87120, Note Name: F4, Velocity: 42
Note OFF: Time 87600, Note Name: F4
Note ON: Time 87600, Note Name: D4, Velocity: 39
Note OFF: Time 87840, Note Name: D4
Note OFF: Time 87840, Note Name: A#3
Note ON: Time 87840, Note Name: F3, Velocity: 42
Note ON: Time 87840, Note Name: C4, Velocity: 42
Note OFF: Time 88320, Note Name: C4
Note ON: Time 88320, Note Name: G4, Velocity: 36
Note OFF: Time 88560, Note Name: G4
Note ON: Time 88560, Note Name: F4, Velocity: 45
Note OFF: Time 89040, Note Name: F4
Note ON: Time 89040, Note Name: C4, Velocity: 41
Note OFF: Time 89280, Note Name: C4
Note OFF: Time 89280, Note Name: F3
Note ON: Time 89280, Note Name: A#3, Velocity: 46
Note ON: Time 89280, Note Name: D4, Velocity: 46
Note OFF: Time 89760, Note Name: D4
Note ON: Time 89760, Note Name: G4, Velocity: 37
Note OFF: Time 90000, Note Name: G4
Note ON: Time 90000, Note Name: F4, Velocity: 45
Note OFF: Time 90480, Note Name: F4
Note ON: Time 90480, Note Name: D4, Velocity: 40
Note OFF: Time 90720, Note Name: D4
Note OFF: Time 90720, Note Name: A#3
Note ON: Time 90720, Note Name: F3, Velocity: 43
Note ON: Time 90720, Note Name: C4, Velocity: 43
Note OFF: Time 91200, Note Name: C4
Note ON: Time 91200, Note Name: G4, Velocity: 34
Note OFF: Time 91440, Note Name: G4
Note ON: Time 91440, Note Name: F4, Velocity: 42
Note OFF: Time 91920, Note Name: F4
Note ON: Time 91920, Note Name: C4, Velocity: 37
Note OFF: Time 92160, Note Name: C4
Note OFF: Time 92160, Note Name: F3
Note ON: Time 92160, Note Name: D4, Velocity: 51
Note ON: Time 92160, Note Name: F4, Velocity: 51
Note OFF: Time 92280, Note Name: F4
Note OFF: Time 92280, Note Name: D4
Note ON: Time 92280, Note Name: G4, Velocity: 45
Note OFF: Time 92400, Note Name: G4
Note ON: Time 92400, Note Name: A4, Velocity: 50
Note OFF: Time 92520, Note Name: A4
Note ON: Time 92520, Note Name: A#4, Velocity: 52
Note OFF: Time 92640, Note Name: A#4
Note ON: Time 92640, Note Name: C5, Velocity: 54
Note OFF: Time 92720, Note Name: C5
Note ON: Time 92720, Note Name: D5, Velocity: 56
Note OFF: Time 92800, Note Name: D5
Note ON: Time 92800, Note Name: D#5, Velocity: 59
Note OFF: Time 92880, Note Name: D#5
Note ON: Time 92880, Note Name: F5, Velocity: 61
Note OFF: Time 93000, Note Name: F5
Note ON: Time 93000, Note Name: D#5, Velocity: 60
Note OFF: Time 93120, Note Name: D#5
Note ON: Time 93120, Note Name: D5, Velocity: 58
Note OFF: Time 93240, Note Name: D5
Note ON: Time 93240, Note Name: C5, Velocity: 57
Note OFF: Time 93360, Note Name: C5
Note ON: Time 93360, Note Name: A#4, Velocity: 55
Note OFF: Time 93480, Note Name: A#4
Note ON: Time 93480, Note Name: A4, Velocity: 54
Note OFF: Time 93600, Note Name: A4
Note ON: Time 93600, Note Name: D#4, Velocity: 51
Note ON: Time 93600, Note Name: G4, Velocity: 51
Note OFF: Time 93720, Note Name: G4
Note OFF: Time 93720, Note Name: D#4
Note ON: Time 93720, Note Name: A4, Velocity: 45
Note OFF: Time 93840, Note Name: A4
Note ON: Time 93840, Note Name: A#4, Velocity: 48
Note OFF: Time 93960, Note Name: A#4
Note ON: Time 93960, Note Name: C5, Velocity: 50
Note OFF: Time 94080, Note Name: C5
Note ON: Time 94080, Note Name: D5, Velocity: 55
Note OFF: Time 94160, Note Name: D5
Note ON: Time 94160, Note Name: D#5, Velocity: 57
Note OFF: Time 94240, Note Name: D#5
Note ON: Time 94240, Note Name: F5, Velocity: 60
Note OFF: Time 94320, Note Name: F5
Note ON: Time 94320, Note Name: G5, Velocity: 62
Note OFF: Time 94440, Note Name: G5
Note ON: Time 94440, Note Name: F5, Velocity: 62
Note OFF: Time 94560, Note Name: F5
Note ON: Time 94560, Note Name: D#5, Velocity: 60
Note OFF: Time 94640, Note Name: D#5
Note ON: Time 94640, Note Name: D5, Velocity: 59
Note OFF: Time 94720, Note Name: D5
Note ON: Time 94720, Note Name: C5, Velocity: 58
Note OFF: Time 94800, Note Name: C5
Note ON: Time 94800, Note Name: A#4, Velocity: 58
Note OFF: Time 94880, Note Name: A#4
Note ON: Time 94880, Note Name: A4, Velocity: 57
Note OFF: Time 94960, Note Name: A4
Note ON: Time 94960, Note Name: G4, Velocity: 56
Note OFF: Time 95040, Note Name: G4
Note ON: Time 95040, Note Name: F4, Velocity: 60
Note OFF: Time 95160, Note Name: F4
Note ON: Time 95160, Note Name: F3, Velocity: 52
Note OFF: Time 95280, Note Name: F3
Note ON: Time 95280, Note Name: A#3, Velocity: 63
Note OFF: Time 95400, Note Name: A#3
Note ON: Time 95400, Note Name: D4, Velocity: 59
Note OFF: Time 95520, Note Name: D4
Note ON: Time 95520, Note Name: F4, Velocity: 68
Note OFF: Time 95640, Note Name: F4
Note ON: Time 95640, Note Name: A#4, Velocity: 62
Note OFF: Time 95760, Note Name: A#4
Note ON: Time 95760, Note Name: D5, Velocity: 63
Note OFF: Time 95880, Note Name: D5
Note ON: Time 95880, Note Name: A#4, Velocity: 54
Note OFF: Time 96000, Note Name: A#4
Note ON: Time 96000, Note Name: F5, Velocity: 66
Note OFF: Time 96120, Note Name: F5
Note ON: Time 96120, Note Name: D5, Velocity: 62
Note OFF: Time 96240, Note Name: D5
Note ON: Time 96240, Note Name: A#4, Velocity: 70
Note OFF: Time 96360, Note Name: A#4
Note ON: Time 96360, Note Name: D5, Velocity: 64
Note OFF: Time 96480, Note Name: D5
Note ON: Time 96480, Note Name: C5, Velocity: 67
Note ON: Time 96480, Note Name: F4, Velocity: 60
Note OFF: Time 96560, Note Name: C5
Note ON: Time 96560, Note Name: D5, Velocity: 59
Note OFF: Time 96640, Note Name: D5
Note ON: Time 96640, Note Name: C5, Velocity: 67
Note OFF: Time 96720, Note Name: C5
Note OFF: Time 96720, Note Name: F4
Note ON: Time 96720, Note Name: D5, Velocity: 61
Note OFF: Time 96800, Note Name: D5
Note ON: Time 96800, Note Name: C5, Velocity: 66
Note OFF: Time 96880, Note Name: C5
Note ON: Time 96880, Note Name: D5, Velocity: 59
Note OFF: Time 96960, Note Name: D5
Note ON: Time 96960, Note Name: C5, Velocity: 66
Note OFF: Time 97040, Note Name: C5
Note ON: Time 97040, Note Name: D5, Velocity: 59
Note OFF: Time 97120, Note Name: D5
Note ON: Time 97120, Note Name: C5, Velocity: 62
Note OFF: Time 97200, Note Name: C5
Note ON: Time 97200, Note Name: D5, Velocity: 56
Note OFF: Time 97280, Note Name: D5
Note ON: Time 97280, Note Name: C5, Velocity: 63
Note OFF: Time 97360, Note Name: C5
Note ON: Time 97360, Note Name: D5, Velocity: 55
Note OFF: Time 97440, Note Name: D5
Note ON: Time 97440, Note Name: C5, Velocity: 63
Note OFF: Time 97520, Note Name: C5
Note ON: Time 97520, Note Name: D5, Velocity: 55
Note OFF: Time 97600, Note Name: D5
Note ON: Time 97600, Note Name: C5, Velocity: 63
Note OFF: Time 97680, Note Name: C5
Note ON: Time 97680, Note Name: D5, Velocity: 55
Note OFF: Time 97760, Note Name: D5
Note ON: Time 97760, Note Name: C5, Velocity: 63
Note OFF: Time 97840, Note Name: C5
Note ON: Time 97840, Note Name: D5, Velocity: 59
Note OFF: Time 97920, Note Name: D5
Note ON: Time 97920, Note Name: F4, Velocity: 62
Note OFF: Time 98040, Note Name: F4
Note ON: Time 98040, Note Name: B4, Velocity: 55
Note OFF: Time 98160, Note Name: B4
Note ON: Time 98160, Note Name: C5, Velocity: 58
Note OFF: Time 98280, Note Name: C5
Note ON: Time 98280, Note Name: D5, Velocity: 60
Note OFF: Time 98400, Note Name: D5
Note ON: Time 98400, Note Name: C5, Velocity: 58
Note OFF: Time 98520, Note Name: C5
Note ON: Time 98520, Note Name: B4, Velocity: 58
Note OFF: Time 98640, Note Name: B4
Note ON: Time 98640, Note Name: D#4, Velocity: 61
Note OFF: Time 98760, Note Name: D#4
Note ON: Time 98760, Note Name: C5, Velocity: 56
Note OFF: Time 98880, Note Name: C5
Note ON: Time 98880, Note Name: D5, Velocity: 59
Note OFF: Time 99000, Note Name: D5
Note ON: Time 99000, Note Name: D#5, Velocity: 61
Note OFF: Time 99120, Note Name: D#5
Note ON: Time 99120, Note Name: D5, Velocity: 57
Note OFF: Time 99240, Note Name: D5
Note ON: Time 99240, Note Name: C5, Velocity: 57
Note OFF: Time 99360, Note Name: C5
Note ON: Time 99366, Note Name: D#4, Velocity: 62
Note ON: Time 99480, Note Name: A4, Velocity: 55
Note OFF: Time 99486, Note Name: D#4
Note OFF: Time 99600, Note Name: A4
Note ON: Time 99600, Note Name: A#4, Velocity: 58
Note ON: Time 99715, Note Name: C5, Velocity: 60
Note OFF: Time 99720, Note Name: A#4
Note OFF: Time 99835, Note Name: C5
Note ON: Time 99840, Note Name: A#4, Velocity: 59
Note OFF: Time 99960, Note Name: A#4
Note ON: Time 99960, Note Name: A4, Velocity: 59
Note OFF: Time 100080, Note Name: A4
Note ON: Time 100080, Note Name: D4, Velocity: 62
Note OFF: Time 100200, Note Name: D4
Note ON: Time 100200, Note Name: A#4, Velocity: 57
Note OFF: Time 100320, Note Name: A#4
Note ON: Time 100320, Note Name: C5, Velocity: 61
Note OFF: Time 100440, Note Name: C5
Note ON: Time 100440, Note Name: D5, Velocity: 64
Note OFF: Time 100560, Note Name: D5
Note ON: Time 100560, Note Name: C5, Velocity: 59
Note OFF: Time 100680, Note Name: C5
Note ON: Time 100680, Note Name: A#4, Velocity: 60
Note OFF: Time 100800, Note Name: A#4
Note ON: Time 100806, Note Name: F3, Velocity: 65
Note ON: Time 100920, Note Name: B3, Velocity: 58
Note OFF: Time 100926, Note Name: F3
Note OFF: Time 101040, Note Name: B3
Note ON: Time 101040, Note Name: C4, Velocity: 62
Note ON: Time 101155, Note Name: D4, Velocity: 64
Note OFF: Time 101160, Note Name: C4
Note OFF: Time 101275, Note Name: D4
Note ON: Time 101280, Note Name: C4, Velocity: 62
Note OFF: Time 101400, Note Name: C4
Note ON: Time 101400, Note Name: B3, Velocity: 63
Note OFF: Time 101520, Note Name: B3
Note ON: Time 101520, Note Name: D#3, Velocity: 67
Note OFF: Time 101640, Note Name: D#3
Note ON: Time 101640, Note Name: C4, Velocity: 61
Note OFF: Time 101760, Note Name: C4
Note ON: Time 101760, Note Name: D4, Velocity: 65
Note OFF: Time 101880, Note Name: D4
Note ON: Time 101880, Note Name: D#4, Velocity: 67
Note OFF: Time 102000, Note Name: D#4
Note ON: Time 102000, Note Name: D4, Velocity: 63
Note OFF: Time 102120, Note Name: D4
Note ON: Time 102120, Note Name: C4, Velocity: 63
Note OFF: Time 102240, Note Name: C4
Note ON: Time 102246, Note Name: D#3, Velocity: 70
Note ON: Time 102360, Note Name: A3, Velocity: 62
Note OFF: Time 102366, Note Name: D#3
Note OFF: Time 102480, Note Name: A3
Note ON: Time 102480, Note Name: A#3, Velocity: 66
Note ON: Time 102595, Note Name: C4, Velocity: 68
Note OFF: Time 102600, Note Name: A#3
Note OFF: Time 102715, Note Name: C4
Note ON: Time 102720, Note Name: A#3, Velocity: 66
Note OFF: Time 102840, Note Name: A#3
Note ON: Time 102840, Note Name: A3, Velocity: 67
Note OFF: Time 102960, Note Name: A3
Note ON: Time 102960, Note Name: D3, Velocity: 70
Note OFF: Time 103080, Note Name: D3
Note ON: Time 103080, Note Name: A#3, Velocity: 65
Note OFF: Time 103200, Note Name: A#3
Note ON: Time 103200, Note Name: C4, Velocity: 69
Note OFF: Time 103320, Note Name: C4
Note ON: Time 103320, Note Name: D4, Velocity: 71
Note OFF: Time 103440, Note Name: D4
Note ON: Time 103440, Note Name: C4, Velocity: 67
Note OFF: Time 103560, Note Name: C4
Note ON: Time 103560, Note Name: A#3, Velocity: 67
Note OFF: Time 103680, Note Name: A#3
Note ON: Time 103680, Note Name: D3, Velocity: 70
Note OFF: Time 103800, Note Name: D3
Note ON: Time 103800, Note Name: F3, Velocity: 62
Note OFF: Time 103920, Note Name: F3
Note ON: Time 103920, Note Name: A#3, Velocity: 66
Note OFF: Time 104040, Note Name: A#3
Note ON: Time 104040, Note Name: D4, Velocity: 68
Note OFF: Time 104160, Note Name: D4
Note ON: Time 104160, Note Name: A#3, Velocity: 66
Note OFF: Time 104280, Note Name: A#3
Note ON: Time 104280, Note Name: F3, Velocity: 63
Note OFF: Time 104400, Note Name: F3
Note ON: Time 104400, Note Name: G2, Velocity: 70
Note OFF: Time 104520, Note Name: G2
Note ON: Time 104520, Note Name: A#2, Velocity: 65
Note OFF: Time 104640, Note Name: A#2
Note ON: Time 104640, Note Name: D3, Velocity: 69
Note OFF: Time 104760, Note Name: D3
Note ON: Time 104760, Note Name: G3, Velocity: 71
Note OFF: Time 104880, Note Name: G3
Note ON: Time 104880, Note Name: D3, Velocity: 67
Note OFF: Time 105000, Note Name: D3
Note ON: Time 105000, Note Name: A#2, Velocity: 64
Note OFF: Time 105120, Note Name: A#2
Note ON: Time 105120, Note Name: D#2, Velocity: 70
Note OFF: Time 105240, Note Name: D#2
Note ON: Time 105240, Note Name: G2, Velocity: 62
Note OFF: Time 105360, Note Name: G2
Note ON: Time 105360, Note Name: C3, Velocity: 66
Note OFF: Time 105480, Note Name: C3
Note ON: Time 105480, Note Name: D#3, Velocity: 68
Note OFF: Time 105600, Note Name: D#3
Note ON: Time 105600, Note Name: C3, Velocity: 66
Note OFF: Time 105720, Note Name: C3
Note ON: Time 105720, Note Name: G2, Velocity: 63
Note OFF: Time 105840, Note Name: G2
Note ON: Time 105840, Note Name: F2, Velocity: 70
Note OFF: Time 105960, Note Name: F2
Note ON: Time 105960, Note Name: C3, Velocity: 65
Note OFF: Time 106080, Note Name: C3
Note ON: Time 106080, Note Name: D#3, Velocity: 69
Note OFF: Time 106200, Note Name: D#3
Note ON: Time 106200, Note Name: F3, Velocity: 71
Note OFF: Time 106320, Note Name: F3
Note ON: Time 106320, Note Name: D#3, Velocity: 67
Note OFF: Time 106440, Note Name: D#3
Note ON: Time 106440, Note Name: C3, Velocity: 64
Note OFF: Time 106560, Note Name: C3
Note ON: Time 106560, Note Name: D2, Velocity: 70
Note OFF: Time 106680, Note Name: D2
Note ON: Time 106680, Note Name: F2, Velocity: 62
Note OFF: Time 106800, Note Name: F2
Note ON: Time 106800, Note Name: A#2, Velocity: 66
Note OFF: Time 106920, Note Name: A#2
Note ON: Time 106920, Note Name: D3, Velocity: 68
Note OFF: Time 107040, Note Name: D3
Note ON: Time 107040, Note Name: A#2, Velocity: 67
Note OFF: Time 107160, Note Name: A#2
Note ON: Time 107160, Note Name: F2, Velocity: 64
Note OFF: Time 107280, Note Name: F2
Note ON: Time 107280, Note Name: G1, Velocity: 72
Note OFF: Time 107400, Note Name: G1
Note ON: Time 107400, Note Name: A#1, Velocity: 67
Note OFF: Time 107520, Note Name: A#1
Note ON: Time 107520, Note Name: D2, Velocity: 72
Note OFF: Time 107640, Note Name: D2
Note ON: Time 107640, Note Name: G2, Velocity: 74
Note OFF: Time 107760, Note Name: G2
Note ON: Time 107760, Note Name: D2, Velocity: 71
Note OFF: Time 107880, Note Name: D2
Note ON: Time 107880, Note Name: A#1, Velocity: 67
Note OFF: Time 108000, Note Name: A#1
Note ON: Time 108000, Note Name: D#2, Velocity: 74
Note OFF: Time 108120, Note Name: D#2
Note ON: Time 108120, Note Name: G2, Velocity: 66
Note OFF: Time 108240, Note Name: G2
Note ON: Time 108240, Note Name: C3, Velocity: 71
Note OFF: Time 108360, Note Name: C3
Note ON: Time 108360, Note Name: G2, Velocity: 74
Note OFF: Time 108480, Note Name: G2
Note ON: Time 108480, Note Name: D#2, Velocity: 72
Note OFF: Time 108720, Note Name: D#2
Note ON: Time 108720, Note Name: F1, Velocity: 77
Note OFF: Time 108840, Note Name: F1
Note ON: Time 108840, Note Name: C2, Velocity: 72
Note OFF: Time 108960, Note Name: C2
Note ON: Time 108960, Note Name: D#2, Velocity: 77
Note OFF: Time 109080, Note Name: D#2
Note ON: Time 109080, Note Name: F2, Velocity: 80
Note OFF: Time 109200, Note Name: F2
Note ON: Time 109200, Note Name: F1, Velocity: 75
Note OFF: Time 109320, Note Name: F1
Note ON: Time 109320, Note Name: F2, Velocity: 72
Note OFF: Time 109440, Note Name: F2
Note ON: Time 109440, Note Name: A#1, Velocity: 75
Note OFF: Time 109560, Note Name: A#1
Note ON: Time 109680, Note Name: A#2, Velocity: 75
Note OFF: Time 109800, Note Name: A#2
Note ON: Time 109920, Note Name: A#2, Velocity: 64
Note ON: Time 109920, Note Name: D3, Velocity: 77
Note OFF: Time 110040, Note Name: D3
Note OFF: Time 110040, Note Name: A#2
Note ON: Time 110160, Note Name: A#2, Velocity: 70
Note ON: Time 110160, Note Name: D3, Velocity: 70
Note ON: Time 110160, Note Name: F3, Velocity: 83
Note OFF: Time 110640, Note Name: F3
Note OFF: Time 110640, Note Name: D3
Note OFF: Time 110640, Note Name: A#2
Note ON: Time 110640, Note Name: C3, Velocity: 60
Note ON: Time 110640, Note Name: F2, Velocity: 60
Note ON: Time 110640, Note Name: F3, Velocity: 71
Note OFF: Time 110760, Note Name: F3
Note OFF: Time 110760, Note Name: F2
Note OFF: Time 110760, Note Name: C3
Note ON: Time 110880, Note Name: A#2, Velocity: 67
Note ON: Time 110880, Note Name: F3, Velocity: 79
Note ON: Time 110880, Note Name: D3, Velocity: 67
Note OFF: Time 111000, Note Name: D3
Note OFF: Time 111000, Note Name: F3
Note OFF: Time 111000, Note Name: A#2
Note ON: Time 111120, Note Name: A#2, Velocity: 63
Note ON: Time 111120, Note Name: D3, Velocity: 63
Note ON: Time 111120, Note Name: F3, Velocity: 75
Note OFF: Time 111240, Note Name: F3
Note OFF: Time 111240, Note Name: D3
Note OFF: Time 111240, Note Name: A#2
Note ON: Time 111360, Note Name: F3, Velocity: 74
Note ON: Time 111360, Note Name: A#2, Velocity: 62
Note ON: Time 111360, Note Name: D3, Velocity: 62
Note OFF: Time 111480, Note Name: D3
Note OFF: Time 111480, Note Name: A#2
Note OFF: Time 111480, Note Name: F3
Note ON: Time 111600, Note Name: A#2, Velocity: 69
Note ON: Time 111600, Note Name: D3, Velocity: 69
Note ON: Time 111600, Note Name: F3, Velocity: 82
Note OFF: Time 112080, Note Name: F3
Note OFF: Time 112080, Note Name: D3
Note OFF: Time 112080, Note Name: A#2
Note ON: Time 112080, Note Name: C3, Velocity: 63
Note ON: Time 112080, Note Name: F2, Velocity: 63
Note ON: Time 112080, Note Name: F3, Velocity: 75
Note OFF: Time 112200, Note Name: F3
Note OFF: Time 112200, Note Name: F2
Note OFF: Time 112200, Note Name: C3
Note ON: Time 112320, Note Name: A#2, Velocity: 64
Note ON: Time 112320, Note Name: F3, Velocity: 76
Note ON: Time 112320, Note Name: D3, Velocity: 64
Note OFF: Time 112440, Note Name: D3
Note OFF: Time 112440, Note Name: F3
Note OFF: Time 112440, Note Name: A#2
Note ON: Time 112560, Note Name: A#2, Velocity: 63
Note ON: Time 112560, Note Name: D3, Velocity: 63
Note ON: Time 112560, Note Name: F3, Velocity: 75
Note OFF: Time 112680, Note Name: F3
Note OFF: Time 112680, Note Name: D3
Note OFF: Time 112680, Note Name: A#2
Note ON: Time 112800, Note Name: F3, Velocity: 73
Note ON: Time 112800, Note Name: A#2, Velocity: 61
Note ON: Time 112800, Note Name: D3, Velocity: 61
Note OFF: Time 112920, Note Name: D3
Note OFF: Time 112920, Note Name: A#2
Note OFF: Time 112920, Note Name: F3
Note ON: Time 113040, Note Name: A#2, Velocity: 70
Note ON: Time 113040, Note Name: D3, Velocity: 70
Note ON: Time 113040, Note Name: F3, Velocity: 83
Note OFF: Time 113520, Note Name: F3
Note OFF: Time 113520, Note Name: D3
Note OFF: Time 113520, Note Name: A#2
Note ON: Time 113520, Note Name: C3, Velocity: 63
Note ON: Time 113520, Note Name: F2, Velocity: 63
Note ON: Time 113520, Note Name: F3, Velocity: 75
Note OFF: Time 113640, Note Name: F3
Note OFF: Time 113640, Note Name: F2
Note OFF: Time 113640, Note Name: C3
Note ON: Time 113760, Note Name: A#2, Velocity: 69
Note ON: Time 113760, Note Name: A#3, Velocity: 82
Note ON: Time 113760, Note Name: D3, Velocity: 69
Note ON: Time 113760, Note Name: F3, Velocity: 69
Note OFF: Time 114240, Note Name: F3
Note OFF: Time 114240, Note Name: A#2
Note OFF: Time 114240, Note Name: A#3
Note OFF: Time 114240, Note Name: D3
Note ON: Time 114480, Note Name: A#2, Velocity: 69
Note ON: Time 114480, Note Name: D3, Velocity: 69
Note ON: Time 114480, Note Name: A#3, Velocity: 82
Note ON: Time 114480, Note Name: F3, Velocity: 69
Note OFF: Time 114960, Note Name: F3
Note OFF: Time 114960, Note Name: A#2
Note OFF: Time 114960, Note Name: D3
Note OFF: Time 114960, Note Name: A#3
Note ON: Time 115200, Note Name: F3, Velocity: 69
Note ON: Time 115200, Note Name: A#3, Velocity: 82
Note ON: Time 115200, Note Name: D3, Velocity: 69
Note ON: Time 115200, Note Name: A#2, Velocity: 69
Note OFF: Time 115680, Note Name: A#2
Note OFF: Time 115680, Note Name: F3
Note OFF: Time 115680, Note Name: A#3
Note OFF: Time 115680, Note Name: D3
Note ON: Time 116640, Note Name: D#4, Velocity: 34
Note ON: Time 116640, Note Name: G4, Velocity: 34
Note ON: Time 116640, Note Name: A#4, Velocity: 40
Note OFF: Time 117120, Note Name: A#4
Note OFF: Time 117120, Note Name: G4
Note OFF: Time 117120, Note Name: D#4
Note ON: Time 117360, Note Name: F4, Velocity: 28
Note ON: Time 117360, Note Name: G#4, Velocity: 28
Note ON: Time 117360, Note Name: A#3, Velocity: 28
Note ON: Time 117360, Note Name: A#4, Velocity: 34
Note OFF: Time 117840, Note Name: A#4
Note OFF: Time 117840, Note Name: F4
Note OFF: Time 117840, Note Name: G#4
Note OFF: Time 117840, Note Name: A#3
Note ON: Time 118080, Note Name: D#4, Velocity: 34
Note ON: Time 118080, Note Name: A#4, Velocity: 40
Note ON: Time 118080, Note Name: G4, Velocity: 34
Note OFF: Time 118560, Note Name: G4
Note OFF: Time 118560, Note Name: A#4
Note OFF: Time 118560, Note Name: D#4
Note ON: Time 119280, Note Name: E4, Velocity: 28
Note ON: Time 119280, Note Name: G4, Velocity: 28
Note ON: Time 119280, Note Name: A#4, Velocity: 28
Note ON: Time 119280, Note Name: C5, Velocity: 34
Note OFF: Time 119460, Note Name: C5
Note OFF: Time 119460, Note Name: E4
Note OFF: Time 119460, Note Name: G4
Note OFF: Time 119460, Note Name: A#4
Note ON: Time 119520, Note Name: G#4, Velocity: 34
Note ON: Time 119520, Note Name: F4, Velocity: 34
Note ON: Time 119520, Note Name: C5, Velocity: 40
Note OFF: Time 120000, Note Name: C5
Note OFF: Time 120000, Note Name: F4
Note OFF: Time 120000, Note Name: G#4
Note ON: Time 120240, Note Name: C5, Velocity: 34
Note ON: Time 120240, Note Name: A#4, Velocity: 28
Note ON: Time 120240, Note Name: C4, Velocity: 28
Note ON: Time 120240, Note Name: G4, Velocity: 28
Note OFF: Time 120720, Note Name: G4
Note OFF: Time 120720, Note Name: C5
Note OFF: Time 120720, Note Name: A#4
Note OFF: Time 120720, Note Name: C4
Note ON: Time 120960, Note Name: F4, Velocity: 34
Note ON: Time 120960, Note Name: G#4, Velocity: 34
Note ON: Time 120960, Note Name: C5, Velocity: 40
Note OFF: Time 121440, Note Name: C5
Note OFF: Time 121440, Note Name: G#4
Note OFF: Time 121440, Note Name: F4
Note ON: Time 122160, Note Name: F4, Velocity: 31
Note ON: Time 122160, Note Name: D4, Velocity: 31
Note ON: Time 122160, Note Name: G#4, Velocity: 31
Note ON: Time 122160, Note Name: A#4, Velocity: 37
Note OFF: Time 122340, Note Name: A#4
Note OFF: Time 122340, Note Name: F4
Note OFF: Time 122340, Note Name: D4
Note OFF: Time 122340, Note Name: G#4
Note ON: Time 122400, Note Name: G4, Velocity: 33
Note ON: Time 122400, Note Name: A#4, Velocity: 39
Note ON: Time 122400, Note Name: D#4, Velocity: 33
Note OFF: Time 122880, Note Name: D#4
Note OFF: Time 122880, Note Name: A#4
Note OFF: Time 122880, Note Name: G4
Note ON: Time 123120, Note Name: G#3, Velocity: 29
Note ON: Time 123120, Note Name: C4, Velocity: 29
Note ON: Time 123120, Note Name: F4, Velocity: 35
Note OFF: Time 123600, Note Name: F4
Note OFF: Time 123600, Note Name: C4
Note OFF: Time 123600, Note Name: G#3
Note ON: Time 123840, Note Name: D#4, Velocity: 35
Note ON: Time 123840, Note Name: A#3, Velocity: 35
Note ON: Time 123840, Note Name: G4, Velocity: 42
Note OFF: Time 124320, Note Name: G4
Note OFF: Time 124320, Note Name: A#3
Note OFF: Time 124320, Note Name: D#4
Note ON: Time 124560, Note Name: A#3, Velocity: 33
Note ON: Time 124560, Note Name: F4, Velocity: 39
Note ON: Time 124560, Note Name: D4, Velocity: 33
Note OFF: Time 125040, Note Name: D4
Note OFF: Time 125040, Note Name: F4
Note OFF: Time 125040, Note Name: A#3
Note ON: Time 125040, Note Name: A#3, Velocity: 39
Note OFF: Time 125220, Note Name: A#3
Note ON: Time 125280, Note Name: A#3, Velocity: 49
Note OFF: Time 125520, Note Name: A#3
Note ON: Time 125520, Note Name: G3, Velocity: 49
Note OFF: Time 125760, Note Name: G3
Note ON: Time 125760, Note Name: D#3, Velocity: 42
Note OFF: Time 126000, Note Name: D#3
Note ON: Time 126000, Note Name: D3, Velocity: 49
Note OFF: Time 126240, Note Name: D3
Note ON: Time 126240, Note Name: F3, Velocity: 45
Note OFF: Time 126480, Note Name: F3
Note ON: Time 126480, Note Name: A#3, Velocity: 45
Note OFF: Time 126660, Note Name: A#3
Note ON: Time 126720, Note Name: A#3, Velocity: 51
Note OFF: Time 126960, Note Name: A#3
Note ON: Time 126960, Note Name: G3, Velocity: 47
Note OFF: Time 127200, Note Name: G3
Note ON: Time 127200, Note Name: D#3, Velocity: 47
Note OFF: Time 127380, Note Name: D#3
Note ON: Time 127440, Note Name: D#3, Velocity: 52
Note OFF: Time 127680, Note Name: D#3
Note ON: Time 127680, Note Name: G3, Velocity: 46
Note OFF: Time 127920, Note Name: G3
Note ON: Time 127920, Note Name: E3, Velocity: 49
Note ON: Time 127920, Note Name: C4, Velocity: 60
Note OFF: Time 128100, Note Name: C4
Note OFF: Time 128100, Note Name: E3
Note ON: Time 128160, Note Name: C4, Velocity: 66
Note ON: Time 128160, Note Name: F3, Velocity: 53
Note OFF: Time 128400, Note Name: F3
Note OFF: Time 128400, Note Name: C4
Note ON: Time 128400, Note Name: G#3, Velocity: 53
Note OFF: Time 128640, Note Name: G#3
Note ON: Time 128640, Note Name: F3, Velocity: 53
Note OFF: Time 128880, Note Name: F3
Note ON: Time 128880, Note Name: E3, Velocity: 59
Note OFF: Time 129120, Note Name: E3
Note ON: Time 129120, Note Name: G3, Velocity: 53
Note OFF: Time 129360, Note Name: G3
Note ON: Time 129360, Note Name: C4, Velocity: 58
Note OFF: Time 129540, Note Name: C4
Note ON: Time 129600, Note Name: C4, Velocity: 70
Note OFF: Time 129840, Note Name: C4
Note ON: Time 129840, Note Name: G#3, Velocity: 56
Note OFF: Time 130080, Note Name: G#3
Note ON: Time 130080, Note Name: F3, Velocity: 57
Note OFF: Time 130320, Note Name: F3
Note ON: Time 130320, Note Name: D3, Velocity: 64
Note OFF: Time 130560, Note Name: D3
Note ON: Time 130560, Note Name: F3, Velocity: 58
Note OFF: Time 130800, Note Name: F3
Note ON: Time 130800, Note Name: D3, Velocity: 53
Note ON: Time 130800, Note Name: A#3, Velocity: 63
Note OFF: Time 130980, Note Name: A#3
Note OFF: Time 130980, Note Name: D3
Note ON: Time 131040, Note Name: A#3, Velocity: 72
Note ON: Time 131040, Note Name: D#3, Velocity: 61
Note OFF: Time 131280, Note Name: D#3
Note OFF: Time 131280, Note Name: A#3
Note ON: Time 131280, Note Name: G3, Velocity: 56
Note OFF: Time 131520, Note Name: G3
Note ON: Time 131520, Note Name: D#3, Velocity: 57
Note OFF: Time 131760, Note Name: D#3
Note ON: Time 131760, Note Name: G#2, Velocity: 50
Note ON: Time 131760, Note Name: C3, Velocity: 59
Note OFF: Time 132000, Note Name: C3
Note OFF: Time 132000, Note Name: G#2
Note ON: Time 132000, Note Name: F3, Velocity: 55
Note OFF: Time 132240, Note Name: F3
Note ON: Time 132240, Note Name: G#3, Velocity: 55
Note OFF: Time 132420, Note Name: G#3
Note ON: Time 132480, Note Name: A#2, Velocity: 61
Note OFF: Time 132720, Note Name: A#2
Note ON: Time 132720, Note Name: D#3, Velocity: 56
Note OFF: Time 132960, Note Name: D#3
Note ON: Time 132960, Note Name: G3, Velocity: 56
Note OFF: Time 133140, Note Name: G3
Note ON: Time 133200, Note Name: A#2, Velocity: 62
Note OFF: Time 133440, Note Name: A#2
Note ON: Time 133440, Note Name: D3, Velocity: 56
Note OFF: Time 133680, Note Name: D3
Note ON: Time 133680, Note Name: A#3, Velocity: 56
Note ON: Time 133680, Note Name: A#2, Velocity: 56
Note OFF: Time 133860, Note Name: A#2
Note OFF: Time 133860, Note Name: A#3
Note ON: Time 133920, Note Name: A#2, Velocity: 63
Note OFF: Time 134160, Note Name: A#2
Note ON: Time 134160, Note Name: G2, Velocity: 63
Note OFF: Time 134400, Note Name: G2
Note ON: Time 134400, Note Name: D#2, Velocity: 55
Note OFF: Time 134640, Note Name: D#2
Note ON: Time 134640, Note Name: D2, Velocity: 63
Note OFF: Time 134880, Note Name: D2
Note ON: Time 134880, Note Name: F2, Velocity: 57
Note OFF: Time 135120, Note Name: F2
Note ON: Time 135120, Note Name: A#2, Velocity: 57
Note OFF: Time 135300, Note Name: A#2
Note ON: Time 135360, Note Name: A#2, Velocity: 63
Note OFF: Time 135600, Note Name: A#2
Note ON: Time 135600, Note Name: G2, Velocity: 58
Note OFF: Time 135840, Note Name: G2
Note ON: Time 135840, Note Name: D#2, Velocity: 58
Note OFF: Time 136020, Note Name: D#2
Note ON: Time 136080, Note Name: D#2, Velocity: 63
Note OFF: Time 136320, Note Name: D#2
Note ON: Time 136320, Note Name: G2, Velocity: 55
Note OFF: Time 136560, Note Name: G2
Note ON: Time 136560, Note Name: E2, Velocity: 58
Note ON: Time 136560, Note Name: C3, Velocity: 70
Note OFF: Time 136740, Note Name: C3
Note OFF: Time 136740, Note Name: E2
Note ON: Time 136800, Note Name: C3, Velocity: 78
Note ON: Time 136800, Note Name: F2, Velocity: 63
Note OFF: Time 137040, Note Name: F2
Note OFF: Time 137040, Note Name: C3
Note ON: Time 137040, Note Name: G#2, Velocity: 63
Note OFF: Time 137280, Note Name: G#2
Note ON: Time 137280, Note Name: F2, Velocity: 63
Note OFF: Time 137520, Note Name: F2
Note ON: Time 137520, Note Name: E2, Velocity: 69
Note OFF: Time 137760, Note Name: E2
Note ON: Time 137760, Note Name: G2, Velocity: 62
Note OFF: Time 138000, Note Name: G2
Note ON: Time 138000, Note Name: C3, Velocity: 73
Note OFF: Time 138180, Note Name: C3
Note ON: Time 138240, Note Name: C3, Velocity: 86
Note OFF: Time 138480, Note Name: C3
Note ON: Time 138480, Note Name: G#2, Velocity: 63
Note OFF: Time 138720, Note Name: G#2
Note ON: Time 138720, Note Name: F2, Velocity: 63
Note OFF: Time 138960, Note Name: F2
Note ON: Time 138960, Note Name: D2, Velocity: 72
Note OFF: Time 139200, Note Name: D2
Note ON: Time 139200, Note Name: F2, Velocity: 63
Note OFF: Time 139440, Note Name: F2
Note ON: Time 139440, Note Name: D2, Velocity: 58
Note ON: Time 139440, Note Name: A#2, Velocity: 69
Note OFF: Time 139620, Note Name: A#2
Note OFF: Time 139620, Note Name: D2
Note ON: Time 139680, Note Name: D#2, Velocity: 66
Note ON: Time 139680, Note Name: A#2, Velocity: 78
Note OFF: Time 139920, Note Name: A#2
Note OFF: Time 139920, Note Name: D#2
Note ON: Time 139920, Note Name: G2, Velocity: 60
Note OFF: Time 140160, Note Name: G2
Note ON: Time 140160, Note Name: D#2, Velocity: 60
Note OFF: Time 140400, Note Name: D#2
Note ON: Time 140400, Note Name: G#1, Velocity: 53
Note ON: Time 140400, Note Name: C2, Velocity: 63
Note OFF: Time 140640, Note Name: C2
Note ON: Time 140640, Note Name: F2, Velocity: 58
Note OFF: Time 140880, Note Name: F2
Note OFF: Time 140880, Note Name: G#1
Note ON: Time 140880, Note Name: G#2, Velocity: 63
Note OFF: Time 141060, Note Name: G#2
Note ON: Time 141120, Note Name: A#1, Velocity: 69
Note OFF: Time 141360, Note Name: A#1
Note ON: Time 141360, Note Name: D#2, Velocity: 58
Note OFF: Time 141600, Note Name: D#2
Note ON: Time 141600, Note Name: G2, Velocity: 58
Note OFF: Time 141780, Note Name: G2
Note ON: Time 141840, Note Name: A#1, Velocity: 63
Note OFF: Time 142080, Note Name: A#1
Note ON: Time 142080, Note Name: F2, Velocity: 57
Note OFF: Time 142320, Note Name: F2
Note ON: Time 142320, Note Name: A#2, Velocity: 57
Note OFF: Time 142500, Note Name: A#2
Note ON: Time 142560, Note Name: D#2, Velocity: 73
Note OFF: Time 142680, Note Name: D#2
Note ON: Time 142800, Note Name: G3, Velocity: 62
Note ON: Time 142800, Note Name: D#3, Velocity: 49
Note OFF: Time 142920, Note Name: D#3
Note OFF: Time 142920, Note Name: G3
Note ON: Time 143040, Note Name: A#3, Velocity: 62
Note ON: Time 143040, Note Name: D#3, Velocity: 49
Note ON: Time 143040, Note Name: G3, Velocity: 49
Note OFF: Time 143160, Note Name: G3
Note OFF: Time 143160, Note Name: D#3
Note OFF: Time 143160, Note Name: A#3
Note ON: Time 143280, Note Name: G3, Velocity: 49
Note ON: Time 143280, Note Name: D#4, Velocity: 62
Note ON: Time 143280, Note Name: A#3, Velocity: 49
Note ON: Time 143280, Note Name: D#3, Velocity: 49
Note OFF: Time 143400, Note Name: D#3
Note OFF: Time 143400, Note Name: G3
Note OFF: Time 143400, Note Name: D#4
Note OFF: Time 143400, Note Name: A#3
Note ON: Time 143520, Note Name: D#3, Velocity: 49
Note ON: Time 143520, Note Name: D#4, Velocity: 62
Note ON: Time 143520, Note Name: A#3, Velocity: 49
Note ON: Time 143520, Note Name: G3, Velocity: 49
Note OFF: Time 143640, Note Name: G3
Note OFF: Time 143640, Note Name: D#3
Note OFF: Time 143640, Note Name: D#4
Note OFF: Time 143640, Note Name: A#3
Note ON: Time 143760, Note Name: A#3, Velocity: 49
Note ON: Time 143760, Note Name: D#4, Velocity: 62
Note ON: Time 143760, Note Name: D#3, Velocity: 49
Note ON: Time 143760, Note Name: G3, Velocity: 49
Note OFF: Time 143880, Note Name: G3
Note OFF: Time 143880, Note Name: A#3
Note OFF: Time 143880, Note Name: D#4
Note OFF: Time 143880, Note Name: D#3
Note ON: Time 144000, Note Name: D#4, Velocity: 70
Note ON: Time 144000, Note Name: G3, Velocity: 56
Note ON: Time 144000, Note Name: A#3, Velocity: 56
Note ON: Time 144000, Note Name: D#3, Velocity: 56
Note OFF: Time 144120, Note Name: D#3
Note OFF: Time 144120, Note Name: D#4
Note OFF: Time 144120, Note Name: G3
Note OFF: Time 144120, Note Name: A#3
Note ON: Time 144240, Note Name: A#3, Velocity: 49
Note ON: Time 144240, Note Name: D#4, Velocity: 62
Note ON: Time 144240, Note Name: D#3, Velocity: 49
Note ON: Time 144240, Note Name: G3, Velocity: 49
Note OFF: Time 144360, Note Name: G3
Note OFF: Time 144360, Note Name: A#3
Note OFF: Time 144360, Note Name: D#4
Note OFF: Time 144360, Note Name: D#3
Note ON: Time 144480, Note Name: G3, Velocity: 49
Note ON: Time 144480, Note Name: D#4, Velocity: 62
Note ON: Time 144480, Note Name: A#3, Velocity: 49
Note ON: Time 144480, Note Name: D#3, Velocity: 49
Note OFF: Time 144600, Note Name: D#3
Note OFF: Time 144600, Note Name: G3
Note OFF: Time 144600, Note Name: D#4
Note OFF: Time 144600, Note Name: A#3
Note ON: Time 144720, Note Name: F3, Velocity: 49
Note ON: Time 144720, Note Name: D4, Velocity: 62
Note ON: Time 144720, Note Name: G#3, Velocity: 49
Note ON: Time 144720, Note Name: A#3, Velocity: 49
Note ON: Time 144720, Note Name: D#3, Velocity: 49
Note OFF: Time 144840, Note Name: D#3
Note OFF: Time 144840, Note Name: G#3
Note OFF: Time 144840, Note Name: F3
Note OFF: Time 144840, Note Name: D4
Note OFF: Time 144840, Note Name: A#3
Note ON: Time 144960, Note Name: F3, Velocity: 49
Note ON: Time 144960, Note Name: D4, Velocity: 62
Note ON: Time 144960, Note Name: A#3, Velocity: 49
Note ON: Time 144960, Note Name: G#3, Velocity: 49
Note ON: Time 144960, Note Name: D#3, Velocity: 49
Note OFF: Time 145080, Note Name: D#3
Note OFF: Time 145080, Note Name: A#3
Note OFF: Time 145080, Note Name: F3
Note OFF: Time 145080, Note Name: D4
Note OFF: Time 145080, Note Name: G#3
Note ON: Time 145200, Note Name: F3, Velocity: 49
Note ON: Time 145200, Note Name: D4, Velocity: 62
Note ON: Time 145200, Note Name: A#3, Velocity: 49
Note ON: Time 145200, Note Name: G#3, Velocity: 49
Note ON: Time 145200, Note Name: D#3, Velocity: 49
Note OFF: Time 145320, Note Name: D#3
Note OFF: Time 145320, Note Name: A#3
Note OFF: Time 145320, Note Name: F3
Note OFF: Time 145320, Note Name: D4
Note OFF: Time 145320, Note Name: G#3
Note ON: Time 145440, Note Name: D#3, Velocity: 57
Note ON: Time 145440, Note Name: D#4, Velocity: 72
Note ON: Time 145440, Note Name: A#3, Velocity: 57
Note ON: Time 145440, Note Name: G3, Velocity: 57
Note OFF: Time 145560, Note Name: G3
Note OFF: Time 145560, Note Name: D#3
Note OFF: Time 145560, Note Name: D#4
Note OFF: Time 145560, Note Name: A#3
Note ON: Time 145680, Note Name: A#3, Velocity: 49
Note ON: Time 145680, Note Name: D#4, Velocity: 62
Note ON: Time 145680, Note Name: D#3, Velocity: 49
Note ON: Time 145680, Note Name: G3, Velocity: 49
Note OFF: Time 145800, Note Name: G3
Note OFF: Time 145800, Note Name: A#3
Note OFF: Time 145800, Note Name: D#4
Note OFF: Time 145800, Note Name: D#3
Note ON: Time 145920, Note Name: D#4, Velocity: 62
Note ON: Time 145920, Note Name: G3, Velocity: 49
Note ON: Time 145920, Note Name: A#3, Velocity: 49
Note ON: Time 145920, Note Name: D#3, Velocity: 49
Note OFF: Time 146040, Note Name: D#3
Note OFF: Time 146040, Note Name: D#4
Note OFF: Time 146040, Note Name: G3
Note OFF: Time 146040, Note Name: A#3
Note ON: Time 146160, Note Name: A#3, Velocity: 49
Note ON: Time 146160, Note Name: D#4, Velocity: 62
Note ON: Time 146160, Note Name: D#3, Velocity: 49
Note ON: Time 146160, Note Name: G3, Velocity: 49
Note OFF: Time 146280, Note Name: G3
Note OFF: Time 146280, Note Name: A#3
Note OFF: Time 146280, Note Name: D#4
Note OFF: Time 146280, Note Name: D#3
Note ON: Time 146400, Note Name: G3, Velocity: 49
Note ON: Time 146400, Note Name: D#4, Velocity: 62
Note ON: Time 146400, Note Name: A#3, Velocity: 49
Note ON: Time 146400, Note Name: D#3, Velocity: 49
Note OFF: Time 146520, Note Name: D#3
Note OFF: Time 146520, Note Name: G3
Note OFF: Time 146520, Note Name: D#4
Note OFF: Time 146520, Note Name: A#3
Note ON: Time 146640, Note Name: D#3, Velocity: 49
Note ON: Time 146640, Note Name: D#4, Velocity: 62
Note ON: Time 146640, Note Name: A#3, Velocity: 49
Note ON: Time 146640, Note Name: G3, Velocity: 49
Note OFF: Time 146760, Note Name: G3
Note OFF: Time 146760, Note Name: D#3
Note OFF: Time 146760, Note Name: D#4
Note OFF: Time 146760, Note Name: A#3
Note ON: Time 146880, Note Name: A#3, Velocity: 55
Note ON: Time 146880, Note Name: D#4, Velocity: 69
Note ON: Time 146880, Note Name: D#3, Velocity: 55
Note ON: Time 146880, Note Name: G3, Velocity: 55
Note OFF: Time 147000, Note Name: G3
Note OFF: Time 147000, Note Name: A#3
Note OFF: Time 147000, Note Name: D#4
Note OFF: Time 147000, Note Name: D#3
Note ON: Time 147120, Note Name: D#4, Velocity: 61
Note ON: Time 147120, Note Name: G3, Velocity: 48
Note ON: Time 147120, Note Name: A#3, Velocity: 48
Note ON: Time 147120, Note Name: D#3, Velocity: 48
Note OFF: Time 147240, Note Name: D#3
Note OFF: Time 147240, Note Name: D#4
Note OFF: Time 147240, Note Name: G3
Note OFF: Time 147240, Note Name: A#3
Note ON: Time 147360, Note Name: A#3, Velocity: 48
Note ON: Time 147360, Note Name: D#4, Velocity: 61
Note ON: Time 147360, Note Name: D#3, Velocity: 48
Note ON: Time 147360, Note Name: G3, Velocity: 48
Note OFF: Time 147480, Note Name: G3
Note OFF: Time 147480, Note Name: A#3
Note OFF: Time 147480, Note Name: D#4
Note OFF: Time 147480, Note Name: D#3
Note ON: Time 147600, Note Name: F3, Velocity: 48
Note ON: Time 147600, Note Name: A#3, Velocity: 61
Note ON: Time 147600, Note Name: G#3, Velocity: 48
Note ON: Time 147600, Note Name: D#3, Velocity: 48
Note OFF: Time 147720, Note Name: D#3
Note OFF: Time 147720, Note Name: F3
Note OFF: Time 147720, Note Name: A#3
Note OFF: Time 147720, Note Name: G#3
Note ON: Time 147840, Note Name: D#3, Velocity: 48
Note ON: Time 147840, Note Name: A#3, Velocity: 61
Note ON: Time 147840, Note Name: G#3, Velocity: 48
Note ON: Time 147840, Note Name: F3, Velocity: 48
Note OFF: Time 147960, Note Name: F3
Note OFF: Time 147960, Note Name: D#3
Note OFF: Time 147960, Note Name: A#3
Note OFF: Time 147960, Note Name: G#3
Note ON: Time 148080, Note Name: G#3, Velocity: 48
Note ON: Time 148080, Note Name: A#3, Velocity: 61
Note ON: Time 148080, Note Name: D#3, Velocity: 48
Note ON: Time 148080, Note Name: F3, Velocity: 48
Note OFF: Time 148200, Note Name: F3
Note OFF: Time 148200, Note Name: G#3
Note OFF: Time 148200, Note Name: A#3
Note OFF: Time 148200, Note Name: D#3
Note ON: Time 148320, Note Name: D#2, Velocity: 73
Note OFF: Time 148440, Note Name: D#2
Note ON: Time 148560, Note Name: D#3, Velocity: 49
Note ON: Time 148560, Note Name: G3, Velocity: 62
Note OFF: Time 148680, Note Name: G3
Note OFF: Time 148680, Note Name: D#3
Note ON: Time 148800, Note Name: D#3, Velocity: 49
Note ON: Time 148800, Note Name: A#3, Velocity: 62
Note ON: Time 148800, Note Name: G3, Velocity: 49
Note OFF: Time 148920, Note Name: G3
Note OFF: Time 148920, Note Name: A#3
Note OFF: Time 148920, Note Name: D#3
Note ON: Time 149040, Note Name: A#3, Velocity: 49
Note ON: Time 149040, Note Name: D#4, Velocity: 62
Note ON: Time 149040, Note Name: D#3, Velocity: 49
Note ON: Time 149040, Note Name: G3, Velocity: 49
Note OFF: Time 149160, Note Name: G3
Note OFF: Time 149160, Note Name: A#3
Note OFF: Time 149160, Note Name: D#4
Note OFF: Time 149160, Note Name: D#3
Note ON: Time 149280, Note Name: D#4, Velocity: 62
Note ON: Time 149280, Note Name: G3, Velocity: 49
Note ON: Time 149280, Note Name: A#3, Velocity: 49
Note ON: Time 149280, Note Name: D#3, Velocity: 49
Note OFF: Time 149400, Note Name: D#3
Note OFF: Time 149400, Note Name: D#4
Note OFF: Time 149400, Note Name: G3
Note OFF: Time 149400, Note Name: A#3
Note ON: Time 149520, Note Name: A#3, Velocity: 49
Note ON: Time 149520, Note Name: D#4, Velocity: 62
Note ON: Time 149520, Note Name: D#3, Velocity: 49
Note ON: Time 149520, Note Name: G3, Velocity: 49
Note OFF: Time 149640, Note Name: G3
Note OFF: Time 149640, Note Name: A#3
Note OFF: Time 149640, Note Name: D#4
Note OFF: Time 149640, Note Name: D#3
Note ON: Time 149760, Note Name: G3, Velocity: 56
Note ON: Time 149760, Note Name: D#4, Velocity: 70
Note ON: Time 149760, Note Name: A#3, Velocity: 56
Note ON: Time 149760, Note Name: D#3, Velocity: 56
Note OFF: Time 149880, Note Name: D#3
Note OFF: Time 149880, Note Name: G3
Note OFF: Time 149880, Note Name: D#4
Note OFF: Time 149880, Note Name: A#3
Note ON: Time 150000, Note Name: A#3, Velocity: 49
Note ON: Time 150000, Note Name: D#3, Velocity: 49
Note ON: Time 150000, Note Name: G3, Velocity: 49
Note ON: Time 150000, Note Name: D#4, Velocity: 62
Note OFF: Time 150120, Note Name: D#4
Note OFF: Time 150120, Note Name: A#3
Note OFF: Time 150120, Note Name: D#3
Note OFF: Time 150120, Note Name: G3
Note ON: Time 150240, Note Name: G3, Velocity: 49
Note ON: Time 150240, Note Name: D#3, Velocity: 49
Note ON: Time 150240, Note Name: A#3, Velocity: 49
Note ON: Time 150240, Note Name: D#4, Velocity: 62
Note OFF: Time 150360, Note Name: D#4
Note OFF: Time 150360, Note Name: G3
Note OFF: Time 150360, Note Name: D#3
Note OFF: Time 150360, Note Name: A#3
Note ON: Time 150480, Note Name: D4, Velocity: 62
Note ON: Time 150480, Note Name: F3, Velocity: 49
Note ON: Time 150480, Note Name: D#3, Velocity: 49
Note ON: Time 150480, Note Name: A#3, Velocity: 49
Note ON: Time 150480, Note Name: G#3, Velocity: 49
Note OFF: Time 150600, Note Name: G#3
Note OFF: Time 150600, Note Name: D#3
Note OFF: Time 150600, Note Name: D4
Note OFF: Time 150600, Note Name: F3
Note OFF: Time 150600, Note Name: A#3
Note ON: Time 150720, Note Name: D4, Velocity: 62
Note ON: Time 150720, Note Name: F3, Velocity: 49
Note ON: Time 150720, Note Name: D#3, Velocity: 49
Note ON: Time 150720, Note Name: G#3, Velocity: 49
Note ON: Time 150720, Note Name: A#3, Velocity: 49
Note OFF: Time 150840, Note Name: A#3
Note OFF: Time 150840, Note Name: D#3
Note OFF: Time 150840, Note Name: D4
Note OFF: Time 150840, Note Name: F3
Note OFF: Time 150840, Note Name: G#3
Note ON: Time 150960, Note Name: D4, Velocity: 62
Note ON: Time 150960, Note Name: F3, Velocity: 49
Note ON: Time 150960, Note Name: D#3, Velocity: 49
Note ON: Time 150960, Note Name: G#3, Velocity: 49
Note ON: Time 150960, Note Name: A#3, Velocity: 49
Note OFF: Time 151080, Note Name: A#3
Note OFF: Time 151080, Note Name: D#3
Note OFF: Time 151080, Note Name: D4
Note OFF: Time 151080, Note Name: F3
Note OFF: Time 151080, Note Name: G#3
Note ON: Time 151200, Note Name: D#4, Velocity: 72
Note ON: Time 151200, Note Name: D#3, Velocity: 57
Note ON: Time 151200, Note Name: A#3, Velocity: 57
Note ON: Time 151200, Note Name: G3, Velocity: 57
Note OFF: Time 151320, Note Name: G3
Note OFF: Time 151320, Note Name: D#4
Note OFF: Time 151320, Note Name: D#3
Note OFF: Time 151320, Note Name: A#3
Note ON: Time 151440, Note Name: D#4, Velocity: 62
Note ON: Time 151440, Note Name: A#3, Velocity: 49
Note ON: Time 151440, Note Name: D#3, Velocity: 49
Note ON: Time 151440, Note Name: G3, Velocity: 49
Note OFF: Time 151560, Note Name: G3
Note OFF: Time 151560, Note Name: D#4
Note OFF: Time 151560, Note Name: A#3
Note OFF: Time 151560, Note Name: D#3
Note ON: Time 151680, Note Name: D#4, Velocity: 62
Note ON: Time 151680, Note Name: A#3, Velocity: 49
Note ON: Time 151680, Note Name: G3, Velocity: 49
Note ON: Time 151680, Note Name: D#3, Velocity: 49
Note OFF: Time 151800, Note Name: D#3
Note OFF: Time 151800, Note Name: D#4
Note OFF: Time 151800, Note Name: A#3
Note OFF: Time 151800, Note Name: G3
Note ON: Time 151920, Note Name: A#3, Velocity: 49
Note ON: Time 151920, Note Name: D#3, Velocity: 49
Note ON: Time 151920, Note Name: G3, Velocity: 49
Note ON: Time 151920, Note Name: D#4, Velocity: 62
Note OFF: Time 152040, Note Name: D#4
Note OFF: Time 152040, Note Name: A#3
Note OFF: Time 152040, Note Name: D#3
Note OFF: Time 152040, Note Name: G3
Note ON: Time 152160, Note Name: G3, Velocity: 49
Note ON: Time 152160, Note Name: D#3, Velocity: 49
Note ON: Time 152160, Note Name: A#3, Velocity: 49
Note ON: Time 152160, Note Name: D#4, Velocity: 62
Note OFF: Time 152280, Note Name: D#4
Note OFF: Time 152280, Note Name: G3
Note OFF: Time 152280, Note Name: D#3
Note OFF: Time 152280, Note Name: A#3
Note ON: Time 152400, Note Name: D#4, Velocity: 62
Note ON: Time 152400, Note Name: D#3, Velocity: 49
Note ON: Time 152400, Note Name: A#3, Velocity: 49
Note ON: Time 152400, Note Name: G3, Velocity: 49
Note OFF: Time 152520, Note Name: G3
Note OFF: Time 152520, Note Name: D#4
Note OFF: Time 152520, Note Name: D#3
Note OFF: Time 152520, Note Name: A#3
Note ON: Time 152640, Note Name: G3, Velocity: 55
Note ON: Time 152640, Note Name: D#3, Velocity: 55
Note ON: Time 152640, Note Name: A#3, Velocity: 69
Note OFF: Time 152760, Note Name: A#3
Note OFF: Time 152760, Note Name: D#3
Note OFF: Time 152760, Note Name: G3
Note ON: Time 152880, Note Name: A#3, Velocity: 61
Note ON: Time 152880, Note Name: G3, Velocity: 48
Note ON: Time 152880, Note Name: D#3, Velocity: 48
Note OFF: Time 153000, Note Name: D#3
Note OFF: Time 153000, Note Name: G3
Note OFF: Time 153000, Note Name: A#3
Note ON: Time 153120, Note Name: G3, Velocity: 48
Note ON: Time 153120, Note Name: A#3, Velocity: 61
Note ON: Time 153120, Note Name: D#3, Velocity: 48
Note OFF: Time 153240, Note Name: D#3
Note OFF: Time 153240, Note Name: A#3
Note OFF: Time 153240, Note Name: G3
Note ON: Time 153360, Note Name: F3, Velocity: 61
Note ON: Time 153360, Note Name: D#3, Velocity: 48
Note OFF: Time 153480, Note Name: D#3
Note OFF: Time 153480, Note Name: F3
Note ON: Time 153600, Note Name: D#3, Velocity: 48
Note ON: Time 153600, Note Name: F3, Velocity: 61
Note ON: Time 153600, Note Name: F2, Velocity: 48
Note OFF: Time 153720, Note Name: F2
Note OFF: Time 153720, Note Name: F3
Note OFF: Time 153720, Note Name: D#3
Note ON: Time 153840, Note Name: F3, Velocity: 61
Note ON: Time 153840, Note Name: F2, Velocity: 48
Note ON: Time 153840, Note Name: D#3, Velocity: 48
Note OFF: Time 153960, Note Name: D#3
Note OFF: Time 153960, Note Name: F2
Note OFF: Time 153960, Note Name: F3
Note ON: Time 154080, Note Name: A#1, Velocity: 80
Note ON: Time 154080, Note Name: A#2, Velocity: 80
Note OFF: Time 154320, Note Name: A#2
Note OFF: Time 154320, Note Name: A#1
Note ON: Time 154800, Note Name: A#3, Velocity: 75
Note OFF: Time 155040, Note Name: A#3
Note ON: Time 155520, Note Name: C#4, Velocity: 81
Note OFF: Time 155760, Note Name: C#4
Note ON: Time 156240, Note Name: F#4, Velocity: 74
Note OFF: Time 156480, Note Name: F#4
Note ON: Time 156960, Note Name: C#4, Velocity: 79
Note OFF: Time 157200, Note Name: C#4
Note ON: Time 157680, Note Name: A#3, Velocity: 74
Note OFF: Time 157920, Note Name: A#3
Note ON: Time 158400, Note Name: F#3, Velocity: 78
Note OFF: Time 158640, Note Name: F#3
Note ON: Time 159120, Note Name: C#3, Velocity: 70
Note OFF: Time 159360, Note Name: C#3
Note ON: Time 159840, Note Name: A2, Velocity: 80
Note ON: Time 159840, Note Name: A1, Velocity: 80
Note OFF: Time 160080, Note Name: A1
Note OFF: Time 160080, Note Name: A2
Note ON: Time 160560, Note Name: A3, Velocity: 75
Note OFF: Time 160800, Note Name: A3
Note ON: Time 161280, Note Name: C4, Velocity: 81
Note OFF: Time 161520, Note Name: C4
Note ON: Time 162000, Note Name: F4, Velocity: 74
Note OFF: Time 162240, Note Name: F4
Note ON: Time 162720, Note Name: C4, Velocity: 79
Note OFF: Time 162960, Note Name: C4
Note ON: Time 163440, Note Name: A3, Velocity: 74
Note OFF: Time 163680, Note Name: A3
Note ON: Time 164160, Note Name: F3, Velocity: 78
Note OFF: Time 164400, Note Name: F3
Note ON: Time 164880, Note Name: C3, Velocity: 70
Note OFF: Time 165120, Note Name: C3
Note ON: Time 165600, Note Name: C#4, Velocity: 34
Note ON: Time 165600, Note Name: F#4, Velocity: 40
Note ON: Time 165600, Note Name: A#3, Velocity: 34
Note OFF: Time 165720, Note Name: A#3
Note OFF: Time 165720, Note Name: F#4
Note OFF: Time 165720, Note Name: C#4
Note ON: Time 165840, Note Name: A#3, Velocity: 29
Note ON: Time 165840, Note Name: C#4, Velocity: 29
Note ON: Time 165840, Note Name: F#4, Velocity: 35
Note OFF: Time 165960, Note Name: F#4
Note OFF: Time 165960, Note Name: C#4
Note OFF: Time 165960, Note Name: A#3
Note ON: Time 166080, Note Name: C#4, Velocity: 29
Note ON: Time 166080, Note Name: A#3, Velocity: 29
Note ON: Time 166080, Note Name: F#4, Velocity: 35
Note OFF: Time 166200, Note Name: F#4
Note OFF: Time 166200, Note Name: A#3
Note OFF: Time 166200, Note Name: C#4
Note ON: Time 166320, Note Name: A#3, Velocity: 29
Note ON: Time 166320, Note Name: F#4, Velocity: 36
Note ON: Time 166320, Note Name: C#4, Velocity: 29
Note OFF: Time 166440, Note Name: C#4
Note OFF: Time 166440, Note Name: F#4
Note OFF: Time 166440, Note Name: A#3
Note ON: Time 166560, Note Name: A#3, Velocity: 30
Note ON: Time 166560, Note Name: C#4, Velocity: 30
Note ON: Time 166560, Note Name: F#4, Velocity: 36
Note OFF: Time 166680, Note Name: F#4
Note OFF: Time 166680, Note Name: C#4
Note OFF: Time 166680, Note Name: A#3
Note ON: Time 166800, Note Name: C#4, Velocity: 30
Note ON: Time 166800, Note Name: F#4, Velocity: 36
Note ON: Time 166800, Note Name: A#3, Velocity: 30
Note OFF: Time 166920, Note Name: A#3
Note OFF: Time 166920, Note Name: F#4
Note OFF: Time 166920, Note Name: C#4
Note ON: Time 167040, Note Name: A#3, Velocity: 36
Note ON: Time 167040, Note Name: C#4, Velocity: 36
Note ON: Time 167040, Note Name: F#4, Velocity: 42
Note OFF: Time 167160, Note Name: F#4
Note OFF: Time 167160, Note Name: C#4
Note OFF: Time 167160, Note Name: A#3
Note ON: Time 167280, Note Name: C#4, Velocity: 31
Note ON: Time 167280, Note Name: A#3, Velocity: 31
Note ON: Time 167280, Note Name: F#4, Velocity: 37
Note OFF: Time 167400, Note Name: F#4
Note OFF: Time 167400, Note Name: A#3
Note OFF: Time 167400, Note Name: C#4
Note ON: Time 167520, Note Name: A#3, Velocity: 31
Note ON: Time 167520, Note Name: F#4, Velocity: 37
Note ON: Time 167520, Note Name: C#4, Velocity: 31
Note OFF: Time 167640, Note Name: C#4
Note OFF: Time 167640, Note Name: F#4
Note OFF: Time 167640, Note Name: A#3
Note ON: Time 167760, Note Name: A#3, Velocity: 31
Note ON: Time 167760, Note Name: C#4, Velocity: 31
Note ON: Time 167760, Note Name: F#4, Velocity: 38
Note OFF: Time 167880, Note Name: F#4
Note OFF: Time 167880, Note Name: C#4
Note OFF: Time 167880, Note Name: A#3
Note ON: Time 168000, Note Name: C#4, Velocity: 29
Note ON: Time 168000, Note Name: F#4, Velocity: 35
Note ON: Time 168000, Note Name: A#3, Velocity: 29
Note OFF: Time 168120, Note Name: A#3
Note OFF: Time 168120, Note Name: F#4
Note OFF: Time 168120, Note Name: C#4
Note ON: Time 168240, Note Name: A#3, Velocity: 29
Note ON: Time 168240, Note Name: C#4, Velocity: 29
Note ON: Time 168240, Note Name: F#4, Velocity: 35
Note OFF: Time 168360, Note Name: F#4
Note OFF: Time 168360, Note Name: C#4
Note OFF: Time 168360, Note Name: A#3
Note ON: Time 168480, Note Name: C#4, Velocity: 34
Note ON: Time 168480, Note Name: A#3, Velocity: 34
Note ON: Time 168480, Note Name: F#4, Velocity: 40
Note OFF: Time 168600, Note Name: F#4
Note OFF: Time 168600, Note Name: A#3
Note OFF: Time 168600, Note Name: C#4
Note ON: Time 168720, Note Name: A#3, Velocity: 29
Note ON: Time 168720, Note Name: F#4, Velocity: 35
Note ON: Time 168720, Note Name: C#4, Velocity: 29
Note OFF: Time 168840, Note Name: C#4
Note OFF: Time 168840, Note Name: F#4
Note OFF: Time 168840, Note Name: A#3
Note ON: Time 168960, Note Name: A#3, Velocity: 29
Note ON: Time 168960, Note Name: C#4, Velocity: 29
Note ON: Time 168960, Note Name: F#4, Velocity: 35
Note OFF: Time 169080, Note Name: F#4
Note OFF: Time 169080, Note Name: C#4
Note OFF: Time 169080, Note Name: A#3
Note ON: Time 169200, Note Name: C#4, Velocity: 29
Note ON: Time 169200, Note Name: F#4, Velocity: 35
Note ON: Time 169200, Note Name: A#3, Velocity: 29
Note OFF: Time 169320, Note Name: A#3
Note OFF: Time 169320, Note Name: F#4
Note OFF: Time 169320, Note Name: C#4
Note ON: Time 169440, Note Name: A#3, Velocity: 29
Note ON: Time 169440, Note Name: C#4, Velocity: 29
Note ON: Time 169440, Note Name: F#4, Velocity: 35
Note OFF: Time 169560, Note Name: F#4
Note OFF: Time 169560, Note Name: C#4
Note OFF: Time 169560, Note Name: A#3
Note ON: Time 169680, Note Name: C#4, Velocity: 29
Note ON: Time 169680, Note Name: A#3, Velocity: 29
Note ON: Time 169680, Note Name: F#4, Velocity: 35
Note OFF: Time 169800, Note Name: F#4
Note OFF: Time 169800, Note Name: A#3
Note OFF: Time 169800, Note Name: C#4
Note ON: Time 169920, Note Name: A#3, Velocity: 34
Note ON: Time 169920, Note Name: F#4, Velocity: 40
Note ON: Time 169920, Note Name: C#4, Velocity: 34
Note OFF: Time 170040, Note Name: C#4
Note OFF: Time 170040, Note Name: F#4
Note OFF: Time 170040, Note Name: A#3
Note ON: Time 170160, Note Name: A#3, Velocity: 29
Note ON: Time 170160, Note Name: C#4, Velocity: 29
Note ON: Time 170160, Note Name: F#4, Velocity: 35
Note OFF: Time 170280, Note Name: F#4
Note OFF: Time 170280, Note Name: C#4
Note OFF: Time 170280, Note Name: A#3
Note ON: Time 170400, Note Name: C#4, Velocity: 29
Note ON: Time 170400, Note Name: F#4, Velocity: 35
Note ON: Time 170400, Note Name: A#3, Velocity: 29
Note OFF: Time 170520, Note Name: A#3
Note OFF: Time 170520, Note Name: F#4
Note OFF: Time 170520, Note Name: C#4
Note ON: Time 170640, Note Name: A#3, Velocity: 29
Note ON: Time 170640, Note Name: C#4, Velocity: 29
Note ON: Time 170640, Note Name: F#4, Velocity: 35
Note OFF: Time 170760, Note Name: F#4
Note OFF: Time 170760, Note Name: C#4
Note OFF: Time 170760, Note Name: A#3
Note ON: Time 170880, Note Name: C#4, Velocity: 29
Note ON: Time 170880, Note Name: A#3, Velocity: 29
Note ON: Time 170880, Note Name: F#4, Velocity: 35
Note OFF: Time 171000, Note Name: F#4
Note OFF: Time 171000, Note Name: A#3
Note OFF: Time 171000, Note Name: C#4
Note ON: Time 171120, Note Name: A#3, Velocity: 29
Note ON: Time 171120, Note Name: E4, Velocity: 35
Note ON: Time 171120, Note Name: C#4, Velocity: 29
Note OFF: Time 171240, Note Name: C#4
Note OFF: Time 171240, Note Name: E4
Note OFF: Time 171240, Note Name: A#3
Note ON: Time 171360, Note Name: A3, Velocity: 34
Note ON: Time 171360, Note Name: C4, Velocity: 34
Note ON: Time 171360, Note Name: F4, Velocity: 40
Note OFF: Time 171480, Note Name: F4
Note OFF: Time 171480, Note Name: C4
Note OFF: Time 171480, Note Name: A3
Note ON: Time 171600, Note Name: C4, Velocity: 29
Note ON: Time 171600, Note Name: F4, Velocity: 35
Note ON: Time 171600, Note Name: A3, Velocity: 29
Note OFF: Time 171720, Note Name: A3
Note OFF: Time 171720, Note Name: F4
Note OFF: Time 171720, Note Name: C4
Note ON: Time 171840, Note Name: F4, Velocity: 35
Note ON: Time 171840, Note Name: A3, Velocity: 29
Note ON: Time 171840, Note Name: C4, Velocity: 29
Note OFF: Time 171960, Note Name: C4
Note OFF: Time 171960, Note Name: A3
Note OFF: Time 171960, Note Name: F4
Note ON: Time 172080, Note Name: A3, Velocity: 29
Note ON: Time 172080, Note Name: C4, Velocity: 29
Note ON: Time 172080, Note Name: F4, Velocity: 36
Note OFF: Time 172200, Note Name: F4
Note OFF: Time 172200, Note Name: C4
Note OFF: Time 172200, Note Name: A3
Note ON: Time 172320, Note Name: C4, Velocity: 30
Note ON: Time 172320, Note Name: A3, Velocity: 30
Note ON: Time 172320, Note Name: F4, Velocity: 36
Note OFF: Time 172440, Note Name: F4
Note OFF: Time 172440, Note Name: A3
Note OFF: Time 172440, Note Name: C4
Note ON: Time 172560, Note Name: A3, Velocity: 30
Note ON: Time 172560, Note Name: F4, Velocity: 36
Note ON: Time 172560, Note Name: C4, Velocity: 30
Note OFF: Time 172680, Note Name: C4
Note OFF: Time 172680, Note Name: F4
Note OFF: Time 172680, Note Name: A3
Note ON: Time 172800, Note Name: A3, Velocity: 36
Note ON: Time 172800, Note Name: C4, Velocity: 36
Note ON: Time 172800, Note Name: F4, Velocity: 42
Note OFF: Time 172920, Note Name: F4
Note OFF: Time 172920, Note Name: C4
Note OFF: Time 172920, Note Name: A3
Note ON: Time 173040, Note Name: F4, Velocity: 37
Note ON: Time 173040, Note Name: A3, Velocity: 31
Note ON: Time 173040, Note Name: C4, Velocity: 31
Note OFF: Time 173160, Note Name: C4
Note OFF: Time 173160, Note Name: A3
Note OFF: Time 173160, Note Name: F4
Note ON: Time 173280, Note Name: A3, Velocity: 31
Note ON: Time 173280, Note Name: C4, Velocity: 31
Note ON: Time 173280, Note Name: F4, Velocity: 37
Note OFF: Time 173400, Note Name: F4
Note OFF: Time 173400, Note Name: C4
Note OFF: Time 173400, Note Name: A3
Note ON: Time 173520, Note Name: C4, Velocity: 31
Note ON: Time 173520, Note Name: A3, Velocity: 31
Note ON: Time 173520, Note Name: F4, Velocity: 38
Note OFF: Time 173640, Note Name: F4
Note OFF: Time 173640, Note Name: A3
Note OFF: Time 173640, Note Name: C4
Note ON: Time 173760, Note Name: A3, Velocity: 29
Note ON: Time 173760, Note Name: F4, Velocity: 35
Note ON: Time 173760, Note Name: C4, Velocity: 29
Note OFF: Time 173880, Note Name: C4
Note OFF: Time 173880, Note Name: F4
Note OFF: Time 173880, Note Name: A3
Note ON: Time 174000, Note Name: A3, Velocity: 29
Note ON: Time 174000, Note Name: C4, Velocity: 29
Note ON: Time 174000, Note Name: F4, Velocity: 35
Note OFF: Time 174120, Note Name: F4
Note OFF: Time 174120, Note Name: C4
Note OFF: Time 174120, Note Name: A3
Note ON: Time 174240, Note Name: F4, Velocity: 40
Note ON: Time 174240, Note Name: A3, Velocity: 34
Note ON: Time 174240, Note Name: C4, Velocity: 34
Note OFF: Time 174360, Note Name: C4
Note OFF: Time 174360, Note Name: A3
Note OFF: Time 174360, Note Name: F4
Note ON: Time 174480, Note Name: A3, Velocity: 29
Note ON: Time 174480, Note Name: C4, Velocity: 29
Note ON: Time 174480, Note Name: F4, Velocity: 35
Note OFF: Time 174600, Note Name: F4
Note OFF: Time 174600, Note Name: C4
Note OFF: Time 174600, Note Name: A3
Note ON: Time 174720, Note Name: C4, Velocity: 29
Note ON: Time 174720, Note Name: A3, Velocity: 29
Note ON: Time 174720, Note Name: F4, Velocity: 35
Note OFF: Time 174840, Note Name: F4
Note OFF: Time 174840, Note Name: A3
Note OFF: Time 174840, Note Name: C4
Note ON: Time 174960, Note Name: A3, Velocity: 29
Note ON: Time 174960, Note Name: F4, Velocity: 35
Note ON: Time 174960, Note Name: C4, Velocity: 29
Note OFF: Time 175080, Note Name: C4
Note OFF: Time 175080, Note Name: F4
Note OFF: Time 175080, Note Name: A3
Note ON: Time 175200, Note Name: A3, Velocity: 29
Note ON: Time 175200, Note Name: C4, Velocity: 29
Note ON: Time 175200, Note Name: F4, Velocity: 35
Note OFF: Time 175320, Note Name: F4
Note OFF: Time 175320, Note Name: C4
Note OFF: Time 175320, Note Name: A3
Note ON: Time 175440, Note Name: F4, Velocity: 35
Note ON: Time 175440, Note Name: A3, Velocity: 29
Note ON: Time 175440, Note Name: C4, Velocity: 29
Note OFF: Time 175560, Note Name: C4
Note OFF: Time 175560, Note Name: A3
Note OFF: Time 175560, Note Name: F4
Note ON: Time 175680, Note Name: C4, Velocity: 34
Note ON: Time 175680, Note Name: A3, Velocity: 34
Note ON: Time 175680, Note Name: F4, Velocity: 40
Note OFF: Time 175800, Note Name: F4
Note OFF: Time 175800, Note Name: A3
Note OFF: Time 175800, Note Name: C4
Note ON: Time 175920, Note Name: C4, Velocity: 29
Note ON: Time 175920, Note Name: A3, Velocity: 29
Note ON: Time 175920, Note Name: F4, Velocity: 35
Note OFF: Time 176040, Note Name: F4
Note OFF: Time 176040, Note Name: A3
Note OFF: Time 176040, Note Name: C4
Note ON: Time 176160, Note Name: A3, Velocity: 29
Note ON: Time 176160, Note Name: C4, Velocity: 29
Note ON: Time 176160, Note Name: F4, Velocity: 35
Note OFF: Time 176280, Note Name: F4
Note OFF: Time 176280, Note Name: C4
Note OFF: Time 176280, Note Name: A3
Note ON: Time 176400, Note Name: A3, Velocity: 29
Note ON: Time 176400, Note Name: C4, Velocity: 29
Note ON: Time 176400, Note Name: F4, Velocity: 35
Note OFF: Time 176640, Note Name: F4
Note OFF: Time 176640, Note Name: C4
Note OFF: Time 176640, Note Name: A3
Note ON: Time 176640, Note Name: F3, Velocity: 35
Note OFF: Time 176880, Note Name: F3
Note ON: Time 176880, Note Name: D#3, Velocity: 35
Note OFF: Time 177120, Note Name: D#3
Note ON: Time 177120, Note Name: A#2, Velocity: 40
Note ON: Time 177120, Note Name: D3, Velocity: 40
Note OFF: Time 177600, Note Name: D3
Note ON: Time 177600, Note Name: G3, Velocity: 33
Note OFF: Time 177840, Note Name: G3
Note ON: Time 177840, Note Name: F3, Velocity: 42
Note OFF: Time 178320, Note Name: F3
Note ON: Time 178320, Note Name: D3, Velocity: 39
Note OFF: Time 178560, Note Name: D3
Note OFF: Time 178560, Note Name: A#2
Note ON: Time 178560, Note Name: F2, Velocity: 42
Note ON: Time 178560, Note Name: C3, Velocity: 42
Note OFF: Time 179040, Note Name: C3
Note ON: Time 179040, Note Name: G3, Velocity: 36
Note OFF: Time 179280, Note Name: G3
Note ON: Time 179280, Note Name: F3, Velocity: 45
Note OFF: Time 179760, Note Name: F3
Note ON: Time 179760, Note Name: C3, Velocity: 41
Note OFF: Time 180000, Note Name: C3
Note OFF: Time 180000, Note Name: F2
Note ON: Time 180000, Note Name: A#2, Velocity: 46
Note ON: Time 180000, Note Name: D3, Velocity: 46
Note OFF: Time 180480, Note Name: D3
Note ON: Time 180480, Note Name: G3, Velocity: 37
Note OFF: Time 180720, Note Name: G3
Note ON: Time 180720, Note Name: F3, Velocity: 45
Note OFF: Time 181200, Note Name: F3
Note ON: Time 181200, Note Name: D3, Velocity: 40
Note OFF: Time 181440, Note Name: D3
Note OFF: Time 181440, Note Name: A#2
Note ON: Time 181440, Note Name: F2, Velocity: 43
Note ON: Time 181440, Note Name: C3, Velocity: 43
Note OFF: Time 181920, Note Name: C3
Note ON: Time 181920, Note Name: G3, Velocity: 34
Note OFF: Time 182160, Note Name: G3
Note ON: Time 182160, Note Name: F3, Velocity: 42
Note OFF: Time 182640, Note Name: F3
Note ON: Time 182640, Note Name: C3, Velocity: 37
Note OFF: Time 182880, Note Name: C3
Note OFF: Time 182880, Note Name: F2
Note ON: Time 182880, Note Name: D3, Velocity: 40
Note ON: Time 182880, Note Name: A#2, Velocity: 34
Note OFF: Time 183000, Note Name: A#2
Note OFF: Time 183000, Note Name: D3
Note ON: Time 183120, Note Name: D3, Velocity: 29
Note ON: Time 183120, Note Name: F3, Velocity: 29
Note ON: Time 183120, Note Name: A#3, Velocity: 35
Note OFF: Time 183240, Note Name: A#3
Note OFF: Time 183240, Note Name: F3
Note OFF: Time 183240, Note Name: D3
Note ON: Time 183360, Note Name: D3, Velocity: 29
Note ON: Time 183360, Note Name: F3, Velocity: 29
Note ON: Time 183360, Note Name: A#3, Velocity: 35
Note OFF: Time 183480, Note Name: A#3
Note OFF: Time 183480, Note Name: F3
Note OFF: Time 183480, Note Name: D3
Note ON: Time 183600, Note Name: D3, Velocity: 29
Note ON: Time 183600, Note Name: F3, Velocity: 29
Note ON: Time 183600, Note Name: A#3, Velocity: 35
Note OFF: Time 183720, Note Name: A#3
Note OFF: Time 183720, Note Name: F3
Note OFF: Time 183720, Note Name: D3
Note ON: Time 183840, Note Name: D3, Velocity: 29
Note ON: Time 183840, Note Name: F3, Velocity: 29
Note ON: Time 183840, Note Name: A#3, Velocity: 35
Note OFF: Time 183960, Note Name: A#3
Note OFF: Time 183960, Note Name: F3
Note OFF: Time 183960, Note Name: D3
Note ON: Time 184080, Note Name: D3, Velocity: 29
Note ON: Time 184080, Note Name: F3, Velocity: 29
Note ON: Time 184080, Note Name: A#3, Velocity: 35
Note OFF: Time 184200, Note Name: A#3
Note OFF: Time 184200, Note Name: F3
Note OFF: Time 184200, Note Name: D3
Note ON: Time 184560, Note Name: D#3, Velocity: 29
Note ON: Time 184560, Note Name: G3, Velocity: 29
Note ON: Time 184560, Note Name: A#3, Velocity: 35
Note OFF: Time 184680, Note Name: A#3
Note OFF: Time 184680, Note Name: G3
Note OFF: Time 184680, Note Name: D#3
Note ON: Time 184800, Note Name: D#3, Velocity: 29
Note ON: Time 184800, Note Name: G3, Velocity: 29
Note ON: Time 184800, Note Name: A#3, Velocity: 35
Note OFF: Time 184920, Note Name: A#3
Note OFF: Time 184920, Note Name: G3
Note OFF: Time 184920, Note Name: D#3
Note ON: Time 185040, Note Name: D#3, Velocity: 29
Note ON: Time 185040, Note Name: G3, Velocity: 29
Note ON: Time 185040, Note Name: A#3, Velocity: 35
Note OFF: Time 185160, Note Name: A#3
Note OFF: Time 185160, Note Name: G3
Note OFF: Time 185160, Note Name: D#3
Note ON: Time 185280, Note Name: D#3, Velocity: 29
Note ON: Time 185280, Note Name: G3, Velocity: 29
Note ON: Time 185280, Note Name: A#3, Velocity: 35
Note OFF: Time 185400, Note Name: A#3
Note OFF: Time 185400, Note Name: G3
Note OFF: Time 185400, Note Name: D#3
Note ON: Time 185520, Note Name: D#3, Velocity: 29
Note ON: Time 185520, Note Name: G3, Velocity: 29
Note ON: Time 185520, Note Name: C4, Velocity: 35
Note OFF: Time 185640, Note Name: C4
Note OFF: Time 185640, Note Name: G3
Note OFF: Time 185640, Note Name: D#3
Note ON: Time 186000, Note Name: F3, Velocity: 29
Note ON: Time 186000, Note Name: A#3, Velocity: 29
Note ON: Time 186000, Note Name: D4, Velocity: 35
Note OFF: Time 186120, Note Name: D4
Note OFF: Time 186120, Note Name: A#3
Note OFF: Time 186120, Note Name: F3
Note ON: Time 186240, Note Name: F3, Velocity: 29
Note ON: Time 186240, Note Name: A#3, Velocity: 29
Note ON: Time 186240, Note Name: D4, Velocity: 35
Note OFF: Time 186360, Note Name: D4
Note OFF: Time 186360, Note Name: A#3
Note OFF: Time 186360, Note Name: F3
Note ON: Time 186480, Note Name: F3, Velocity: 29
Note ON: Time 186480, Note Name: A#3, Velocity: 29
Note ON: Time 186480, Note Name: D4, Velocity: 35
Note OFF: Time 186600, Note Name: D4
Note OFF: Time 186600, Note Name: A#3
Note OFF: Time 186600, Note Name: F3
Note ON: Time 186720, Note Name: F3, Velocity: 29
Note ON: Time 186720, Note Name: A#3, Velocity: 29
Note ON: Time 186720, Note Name: D4, Velocity: 35
Note OFF: Time 186840, Note Name: D4
Note OFF: Time 186840, Note Name: A#3
Note OFF: Time 186840, Note Name: F3
Note ON: Time 186960, Note Name: F3, Velocity: 29
Note ON: Time 186960, Note Name: A#3, Velocity: 29
Note ON: Time 186960, Note Name: D4, Velocity: 35
Note OFF: Time 187080, Note Name: D4
Note OFF: Time 187080, Note Name: A#3
Note OFF: Time 187080, Note Name: F3
Note ON: Time 187200, Note Name: D4, Velocity: 35
Note ON: Time 187200, Note Name: F3, Velocity: 29
Note ON: Time 187200, Note Name: A#3, Velocity: 29
Note OFF: Time 187320, Note Name: A#3
Note OFF: Time 187320, Note Name: F3
Note OFF: Time 187320, Note Name: D4
Note ON: Time 187440, Note Name: F3, Velocity: 29
Note ON: Time 187440, Note Name: A#3, Velocity: 29
Note ON: Time 187440, Note Name: D4, Velocity: 35
Note OFF: Time 187560, Note Name: D4
Note OFF: Time 187560, Note Name: A#3
Note OFF: Time 187560, Note Name: F3
Note ON: Time 187680, Note Name: D4, Velocity: 35
Note ON: Time 187680, Note Name: A#3, Velocity: 29
Note ON: Time 187680, Note Name: F3, Velocity: 29
Note OFF: Time 187800, Note Name: F3
Note OFF: Time 187800, Note Name: A#3
Note OFF: Time 187800, Note Name: D4
Note ON: Time 187920, Note Name: F3, Velocity: 29
Note ON: Time 187920, Note Name: A3, Velocity: 29
Note ON: Time 187920, Note Name: D#4, Velocity: 35
Note OFF: Time 188040, Note Name: D#4
Note OFF: Time 188040, Note Name: A3
Note OFF: Time 188040, Note Name: F3
Note ON: Time 188160, Note Name: F3, Velocity: 29
Note ON: Time 188160, Note Name: A3, Velocity: 29
Note ON: Time 188160, Note Name: D#4, Velocity: 35
Note OFF: Time 188280, Note Name: D#4
Note OFF: Time 188280, Note Name: A3
Note OFF: Time 188280, Note Name: F3
Note ON: Time 188400, Note Name: F3, Velocity: 29
Note ON: Time 188400, Note Name: A3, Velocity: 29
Note ON: Time 188400, Note Name: D#4, Velocity: 35
Note OFF: Time 188520, Note Name: D#4
Note OFF: Time 188520, Note Name: A3
Note OFF: Time 188520, Note Name: F3
Note ON: Time 188640, Note Name: A#3, Velocity: 40
Note ON: Time 188640, Note Name: D4, Velocity: 40
Note OFF: Time 189120, Note Name: D4
Note ON: Time 189120, Note Name: G4, Velocity: 33
Note OFF: Time 189360, Note Name: G4
Note ON: Time 189360, Note Name: F4, Velocity: 42
Note OFF: Time 189840, Note Name: F4
Note ON: Time 189840, Note Name: D4, Velocity: 39
Note OFF: Time 190080, Note Name: D4
Note OFF: Time 190080, Note Name: A#3
Note ON: Time 190080, Note Name: F3, Velocity: 42
Note ON: Time 190080, Note Name: C4, Velocity: 42
Note OFF: Time 190560, Note Name: C4
Note ON: Time 190560, Note Name: G4, Velocity: 36
Note OFF: Time 190800, Note Name: G4
Note ON: Time 190800, Note Name: F4, Velocity: 45
Note OFF: Time 191280, Note Name: F4
Note ON: Time 191280, Note Name: C4, Velocity: 41
Note OFF: Time 191520, Note Name: C4
Note OFF: Time 191520, Note Name: F3
Note ON: Time 191520, Note Name: A#3, Velocity: 46
Note ON: Time 191520, Note Name: D4, Velocity: 46
Note OFF: Time 192000, Note Name: D4
Note ON: Time 192000, Note Name: G4, Velocity: 37
Note OFF: Time 192240, Note Name: G4
Note ON: Time 192240, Note Name: F4, Velocity: 45
Note OFF: Time 192720, Note Name: F4
Note ON: Time 192720, Note Name: D4, Velocity: 40
Note OFF: Time 192960, Note Name: D4
Note OFF: Time 192960, Note Name: A#3
Note ON: Time 192960, Note Name: F3, Velocity: 43
Note ON: Time 192960, Note Name: C4, Velocity: 43
Note OFF: Time 193440, Note Name: C4
Note ON: Time 193440, Note Name: G4, Velocity: 34
Note OFF: Time 193680, Note Name: G4
Note ON: Time 193680, Note Name: F4, Velocity: 42
Note OFF: Time 194160, Note Name: F4
Note ON: Time 194160, Note Name: C4, Velocity: 37
Note OFF: Time 194400, Note Name: C4
Note OFF: Time 194400, Note Name: F3
Note ON: Time 194400, Note Name: D4, Velocity: 51
Note ON: Time 194400, Note Name: F4, Velocity: 51
Note OFF: Time 194520, Note Name: F4
Note OFF: Time 194520, Note Name: D4
Note ON: Time 194520, Note Name: G4, Velocity: 45
Note OFF: Time 194640, Note Name: G4
Note ON: Time 194640, Note Name: A4, Velocity: 50
Note OFF: Time 194760, Note Name: A4
Note ON: Time 194760, Note Name: A#4, Velocity: 52
Note OFF: Time 194880, Note Name: A#4
Note ON: Time 194880, Note Name: C5, Velocity: 54
Note OFF: Time 194960, Note Name: C5
Note ON: Time 194960, Note Name: D5, Velocity: 56
Note OFF: Time 195040, Note Name: D5
Note ON: Time 195040, Note Name: D#5, Velocity: 59
Note OFF: Time 195120, Note Name: D#5
Note ON: Time 195120, Note Name: F5, Velocity: 61
Note OFF: Time 195240, Note Name: F5
Note ON: Time 195240, Note Name: D#5, Velocity: 60
Note OFF: Time 195360, Note Name: D#5
Note ON: Time 195360, Note Name: D5, Velocity: 58
Note OFF: Time 195480, Note Name: D5
Note ON: Time 195480, Note Name: C5, Velocity: 57
Note OFF: Time 195600, Note Name: C5
Note ON: Time 195600, Note Name: A#4, Velocity: 55
Note OFF: Time 195720, Note Name: A#4
Note ON: Time 195720, Note Name: A4, Velocity: 54
Note OFF: Time 195840, Note Name: A4
Note ON: Time 195840, Note Name: D#4, Velocity: 51
Note ON: Time 195840, Note Name: G4, Velocity: 51
Note OFF: Time 195960, Note Name: G4
Note OFF: Time 195960, Note Name: D#4
Note ON: Time 195960, Note Name: A4, Velocity: 45
Note OFF: Time 196080, Note Name: A4
Note ON: Time 196080, Note Name: A#4, Velocity: 48
Note OFF: Time 196200, Note Name: A#4
Note ON: Time 196200, Note Name: C5, Velocity: 50
Note OFF: Time 196320, Note Name: C5
Note ON: Time 196320, Note Name: D5, Velocity: 55
Note OFF: Time 196400, Note Name: D5
Note ON: Time 196400, Note Name: D#5, Velocity: 57
Note OFF: Time 196480, Note Name: D#5
Note ON: Time 196480, Note Name: F5, Velocity: 60
Note OFF: Time 196560, Note Name: F5
Note ON: Time 196560, Note Name: G5, Velocity: 62
Note OFF: Time 196680, Note Name: G5
Note ON: Time 196680, Note Name: F5, Velocity: 62
Note OFF: Time 196800, Note Name: F5
Note ON: Time 196800, Note Name: D#5, Velocity: 60
Note OFF: Time 196880, Note Name: D#5
Note ON: Time 196880, Note Name: D5, Velocity: 59
Note OFF: Time 196960, Note Name: D5
Note ON: Time 196960, Note Name: C5, Velocity: 58
Note OFF: Time 197040, Note Name: C5
Note ON: Time 197040, Note Name: A#4, Velocity: 58
Note OFF: Time 197120, Note Name: A#4
Note ON: Time 197120, Note Name: A4, Velocity: 57
Note OFF: Time 197200, Note Name: A4
Note ON: Time 197200, Note Name: G4, Velocity: 56
Note OFF: Time 197280, Note Name: G4
Note ON: Time 197280, Note Name: F4, Velocity: 60
Note OFF: Time 197400, Note Name: F4
Note ON: Time 197400, Note Name: F3, Velocity: 52
Note OFF: Time 197520, Note Name: F3
Note ON: Time 197520, Note Name: A#3, Velocity: 63
Note OFF: Time 197640, Note Name: A#3
Note ON: Time 197640, Note Name: D4, Velocity: 59
Note OFF: Time 197760, Note Name: D4
Note ON: Time 197760, Note Name: F4, Velocity: 68
Note OFF: Time 197880, Note Name: F4
Note ON: Time 197880, Note Name: A#4, Velocity: 62
Note OFF: Time 198000, Note Name: A#4
Note ON: Time 198000, Note Name: D5, Velocity: 63
Note OFF: Time 198120, Note Name: D5
Note ON: Time 198120, Note Name: A#4, Velocity: 54
Note OFF: Time 198240, Note Name: A#4
Note ON: Time 198240, Note Name: F5, Velocity: 66
Note OFF: Time 198360, Note Name: F5
Note ON: Time 198360, Note Name: D5, Velocity: 62
Note OFF: Time 198480, Note Name: D5
Note ON: Time 198480, Note Name: A#4, Velocity: 70
Note OFF: Time 198600, Note Name: A#4
Note ON: Time 198600, Note Name: D5, Velocity: 64
Note OFF: Time 198720, Note Name: D5
Note ON: Time 198720, Note Name: C5, Velocity: 67
Note ON: Time 198720, Note Name: F4, Velocity: 60
Note OFF: Time 198800, Note Name: C5
Note ON: Time 198800, Note Name: D5, Velocity: 59
Note OFF: Time 198880, Note Name: D5
Note ON: Time 198880, Note Name: C5, Velocity: 67
Note OFF: Time 198960, Note Name: C5
Note OFF: Time 198960, Note Name: F4
Note ON: Time 198960, Note Name: D5, Velocity: 61
Note OFF: Time 199040, Note Name: D5
Note ON: Time 199040, Note Name: C5, Velocity: 66
Note OFF: Time 199120, Note Name: C5
Note ON: Time 199120, Note Name: D5, Velocity: 59
Note OFF: Time 199200, Note Name: D5
Note ON: Time 199200, Note Name: C5, Velocity: 66
Note OFF: Time 199280, Note Name: C5
Note ON: Time 199280, Note Name: D5, Velocity: 59
Note OFF: Time 199360, Note Name: D5
Note ON: Time 199360, Note Name: C5, Velocity: 62
Note OFF: Time 199440, Note Name: C5
Note ON: Time 199440, Note Name: D5, Velocity: 56
Note OFF: Time 199520, Note Name: D5
Note ON: Time 199520, Note Name: C5, Velocity: 63
Note OFF: Time 199600, Note Name: C5
Note ON: Time 199600, Note Name: D5, Velocity: 55
Note OFF: Time 199680, Note Name: D5
Note ON: Time 199680, Note Name: C5, Velocity: 63
Note OFF: Time 199760, Note Name: C5
Note ON: Time 199760, Note Name: D5, Velocity: 55
Note OFF: Time 199840, Note Name: D5
Note ON: Time 199840, Note Name: C5, Velocity: 63
Note OFF: Time 199920, Note Name: C5
Note ON: Time 199920, Note Name: D5, Velocity: 55
Note OFF: Time 200000, Note Name: D5
Note ON: Time 200000, Note Name: C5, Velocity: 63
Note OFF: Time 200080, Note Name: C5
Note ON: Time 200080, Note Name: D5, Velocity: 59
Note OFF: Time 200160, Note Name: D5
Note ON: Time 200160, Note Name: F4, Velocity: 62
Note OFF: Time 200280, Note Name: F4
Note ON: Time 200280, Note Name: B4, Velocity: 55
Note OFF: Time 200400, Note Name: B4
Note ON: Time 200400, Note Name: C5, Velocity: 58
Note OFF: Time 200520, Note Name: C5
Note ON: Time 200520, Note Name: D5, Velocity: 60
Note OFF: Time 200640, Note Name: D5
Note ON: Time 200640, Note Name: C5, Velocity: 58
Note OFF: Time 200760, Note Name: C5
Note ON: Time 200760, Note Name: B4, Velocity: 58
Note OFF: Time 200880, Note Name: B4
Note ON: Time 200880, Note Name: D#4, Velocity: 61
Note OFF: Time 201000, Note Name: D#4
Note ON: Time 201000, Note Name: C5, Velocity: 56
Note OFF: Time 201120, Note Name: C5
Note ON: Time 201120, Note Name: D5, Velocity: 59
Note OFF: Time 201240, Note Name: D5
Note ON: Time 201240, Note Name: D#5, Velocity: 61
Note OFF: Time 201360, Note Name: D#5
Note ON: Time 201360, Note Name: D5, Velocity: 57
Note OFF: Time 201480, Note Name: D5
Note ON: Time 201480, Note Name: C5, Velocity: 57
Note OFF: Time 201600, Note Name: C5
Note ON: Time 201606, Note Name: D#4, Velocity: 62
Note ON: Time 201720, Note Name: A4, Velocity: 55
Note OFF: Time 201726, Note Name: D#4
Note OFF: Time 201840, Note Name: A4
Note ON: Time 201840, Note Name: A#4, Velocity: 58
Note ON: Time 201955, Note Name: C5, Velocity: 60
Note OFF: Time 201960, Note Name: A#4
Note OFF: Time 202075, Note Name: C5
Note ON: Time 202080, Note Name: A#4, Velocity: 59
Note OFF: Time 202200, Note Name: A#4
Note ON: Time 202200, Note Name: A4, Velocity: 59
Note OFF: Time 202320, Note Name: A4
Note ON: Time 202320, Note Name: D4, Velocity: 62
Note OFF: Time 202440, Note Name: D4
Note ON: Time 202440, Note Name: A#4, Velocity: 57
Note OFF: Time 202560, Note Name: A#4
Note ON: Time 202560, Note Name: C5, Velocity: 61
Note OFF: Time 202680, Note Name: C5
Note ON: Time 202680, Note Name: D5, Velocity: 64
Note OFF: Time 202800, Note Name: D5
Note ON: Time 202800, Note Name: C5, Velocity: 59
Note OFF: Time 202920, Note Name: C5
Note ON: Time 202920, Note Name: A#4, Velocity: 60
Note OFF: Time 203040, Note Name: A#4
Note ON: Time 203046, Note Name: F3, Velocity: 65
Note ON: Time 203160, Note Name: B3, Velocity: 58
Note OFF: Time 203166, Note Name: F3
Note OFF: Time 203280, Note Name: B3
Note ON: Time 203280, Note Name: C4, Velocity: 62
Note ON: Time 203395, Note Name: D4, Velocity: 64
Note OFF: Time 203400, Note Name: C4
Note OFF: Time 203515, Note Name: D4
Note ON: Time 203520, Note Name: C4, Velocity: 62
Note OFF: Time 203640, Note Name: C4
Note ON: Time 203640, Note Name: B3, Velocity: 63
Note OFF: Time 203760, Note Name: B3
Note ON: Time 203760, Note Name: D#3, Velocity: 67
Note OFF: Time 203880, Note Name: D#3
Note ON: Time 203880, Note Name: C4, Velocity: 61
Note OFF: Time 204000, Note Name: C4
Note ON: Time 204000, Note Name: D4, Velocity: 65
Note OFF: Time 204120, Note Name: D4
Note ON: Time 204120, Note Name: D#4, Velocity: 67
Note OFF: Time 204240, Note Name: D#4
Note ON: Time 204240, Note Name: D4, Velocity: 63
Note OFF: Time 204360, Note Name: D4
Note ON: Time 204360, Note Name: C4, Velocity: 63
Note OFF: Time 204480, Note Name: C4
Note ON: Time 204486, Note Name: D#3, Velocity: 70
Note ON: Time 204600, Note Name: A3, Velocity: 62
Note OFF: Time 204606, Note Name: D#3
Note OFF: Time 204720, Note Name: A3
Note ON: Time 204720, Note Name: A#3, Velocity: 66
Note ON: Time 204835, Note Name: C4, Velocity: 68
Note OFF: Time 204840, Note Name: A#3
Note OFF: Time 204955, Note Name: C4
Note ON: Time 204960, Note Name: A#3, Velocity: 66
Note OFF: Time 205080, Note Name: A#3
Note ON: Time 205080, Note Name: A3, Velocity: 67
Note OFF: Time 205200, Note Name: A3
Note ON: Time 205200, Note Name: D3, Velocity: 70
Note OFF: Time 205320, Note Name: D3
Note ON: Time 205320, Note Name: A#3, Velocity: 65
Note OFF: Time 205440, Note Name: A#3
Note ON: Time 205440, Note Name: C4, Velocity: 69
Note OFF: Time 205560, Note Name: C4
Note ON: Time 205560, Note Name: D4, Velocity: 71
Note OFF: Time 205680, Note Name: D4
Note ON: Time 205680, Note Name: C4, Velocity: 67
Note OFF: Time 205800, Note Name: C4
Note ON: Time 205800, Note Name: A#3, Velocity: 67
Note OFF: Time 205920, Note Name: A#3
Note ON: Time 205920, Note Name: D3, Velocity: 70
Note OFF: Time 206040, Note Name: D3
Note ON: Time 206040, Note Name: F3, Velocity: 62
Note OFF: Time 206160, Note Name: F3
Note ON: Time 206160, Note Name: A#3, Velocity: 66
Note OFF: Time 206280, Note Name: A#3
Note ON: Time 206280, Note Name: D4, Velocity: 68
Note OFF: Time 206400, Note Name: D4
Note ON: Time 206400, Note Name: A#3, Velocity: 66
Note OFF: Time 206520, Note Name: A#3
Note ON: Time 206520, Note Name: F3, Velocity: 63
Note OFF: Time 206640, Note Name: F3
Note ON: Time 206640, Note Name: G2, Velocity: 70
Note OFF: Time 206760, Note Name: G2
Note ON: Time 206760, Note Name: A#2, Velocity: 65
Note OFF: Time 206880, Note Name: A#2
Note ON: Time 206880, Note Name: D3, Velocity: 69
Note OFF: Time 207000, Note Name: D3
Note ON: Time 207000, Note Name: G3, Velocity: 71
Note OFF: Time 207120, Note Name: G3
Note ON: Time 207120, Note Name: D3, Velocity: 67
Note OFF: Time 207240, Note Name: D3
Note ON: Time 207240, Note Name: A#2, Velocity: 64
Note OFF: Time 207360, Note Name: A#2
Note ON: Time 207360, Note Name: D#2, Velocity: 70
Note OFF: Time 207480, Note Name: D#2
Note ON: Time 207480, Note Name: G2, Velocity: 62
Note OFF: Time 207600, Note Name: G2
Note ON: Time 207600, Note Name: C3, Velocity: 66
Note OFF: Time 207720, Note Name: C3
Note ON: Time 207720, Note Name: D#3, Velocity: 68
Note OFF: Time 207840, Note Name: D#3
Note ON: Time 207840, Note Name: C3, Velocity: 66
Note OFF: Time 207960, Note Name: C3
Note ON: Time 207960, Note Name: G2, Velocity: 63
Note OFF: Time 208080, Note Name: G2
Note ON: Time 208080, Note Name: F2, Velocity: 70
Note OFF: Time 208200, Note Name: F2
Note ON: Time 208200, Note Name: C3, Velocity: 65
Note OFF: Time 208320, Note Name: C3
Note ON: Time 208320, Note Name: D#3, Velocity: 69
Note OFF: Time 208440, Note Name: D#3
Note ON: Time 208440, Note Name: F3, Velocity: 71
Note OFF: Time 208560, Note Name: F3
Note ON: Time 208560, Note Name: D#3, Velocity: 67
Note OFF: Time 208680, Note Name: D#3
Note ON: Time 208680, Note Name: C3, Velocity: 64
Note OFF: Time 208800, Note Name: C3
Note ON: Time 208800, Note Name: D2, Velocity: 70
Note OFF: Time 208920, Note Name: D2
Note ON: Time 208920, Note Name: F2, Velocity: 62
Note OFF: Time 209040, Note Name: F2
Note ON: Time 209040, Note Name: A#2, Velocity: 66
Note OFF: Time 209160, Note Name: A#2
Note ON: Time 209160, Note Name: D3, Velocity: 68
Note OFF: Time 209280, Note Name: D3
Note ON: Time 209280, Note Name: A#2, Velocity: 67
Note OFF: Time 209400, Note Name: A#2
Note ON: Time 209400, Note Name: F2, Velocity: 64
Note OFF: Time 209520, Note Name: F2
Note ON: Time 209520, Note Name: G1, Velocity: 72
Note OFF: Time 209640, Note Name: G1
Note ON: Time 209640, Note Name: A#1, Velocity: 67
Note OFF: Time 209760, Note Name: A#1
Note ON: Time 209760, Note Name: D2, Velocity: 72
Note OFF: Time 209880, Note Name: D2
Note ON: Time 209880, Note Name: G2, Velocity: 74
Note OFF: Time 210000, Note Name: G2
Note ON: Time 210000, Note Name: D2, Velocity: 71
Note OFF: Time 210120, Note Name: D2
Note ON: Time 210120, Note Name: A#1, Velocity: 67
Note OFF: Time 210240, Note Name: A#1
Note ON: Time 210240, Note Name: D#2, Velocity: 74
Note OFF: Time 210360, Note Name: D#2
Note ON: Time 210360, Note Name: G2, Velocity: 66
Note OFF: Time 210480, Note Name: G2
Note ON: Time 210480, Note Name: C3, Velocity: 71
Note OFF: Time 210600, Note Name: C3
Note ON: Time 210600, Note Name: G2, Velocity: 74
Note OFF: Time 210720, Note Name: G2
Note ON: Time 210720, Note Name: D#2, Velocity: 72
Note OFF: Time 210960, Note Name: D#2
Note ON: Time 210960, Note Name: F1, Velocity: 77
Note OFF: Time 211080, Note Name: F1
Note ON: Time 211080, Note Name: C2, Velocity: 72
Note OFF: Time 211200, Note Name: C2
Note ON: Time 211200, Note Name: D#2, Velocity: 77
Note OFF: Time 211320, Note Name: D#2
Note ON: Time 211320, Note Name: F2, Velocity: 80
Note OFF: Time 211440, Note Name: F2
Note ON: Time 211440, Note Name: F1, Velocity: 75
Note OFF: Time 211560, Note Name: F1
Note ON: Time 211560, Note Name: F2, Velocity: 72
Note OFF: Time 211680, Note Name: F2
Note ON: Time 211680, Note Name: A#1, Velocity: 75
Note OFF: Time 211800, Note Name: A#1
Note ON: Time 211920, Note Name: A#2, Velocity: 75
Note OFF: Time 212040, Note Name: A#2
Note ON: Time 212160, Note Name: A#2, Velocity: 64
Note ON: Time 212160, Note Name: D3, Velocity: 77
Note OFF: Time 212280, Note Name: D3
Note OFF: Time 212280, Note Name: A#2
Note ON: Time 212400, Note Name: A#2, Velocity: 70
Note ON: Time 212400, Note Name: D3, Velocity: 70
Note ON: Time 212400, Note Name: F3, Velocity: 83
Note OFF: Time 212880, Note Name: F3
Note OFF: Time 212880, Note Name: D3
Note OFF: Time 212880, Note Name: A#2
Note ON: Time 212880, Note Name: C3, Velocity: 60
Note ON: Time 212880, Note Name: F2, Velocity: 60
Note ON: Time 212880, Note Name: F3, Velocity: 71
Note OFF: Time 213000, Note Name: F3
Note OFF: Time 213000, Note Name: F2
Note OFF: Time 213000, Note Name: C3
Note ON: Time 213120, Note Name: A#2, Velocity: 67
Note ON: Time 213120, Note Name: F3, Velocity: 79
Note ON: Time 213120, Note Name: D3, Velocity: 67
Note OFF: Time 213240, Note Name: D3
Note OFF: Time 213240, Note Name: F3
Note OFF: Time 213240, Note Name: A#2
Note ON: Time 213360, Note Name: A#2, Velocity: 63
Note ON: Time 213360, Note Name: D3, Velocity: 63
Note ON: Time 213360, Note Name: F3, Velocity: 75
Note OFF: Time 213480, Note Name: F3
Note OFF: Time 213480, Note Name: D3
Note OFF: Time 213480, Note Name: A#2
Note ON: Time 213600, Note Name: F3, Velocity: 74
Note ON: Time 213600, Note Name: A#2, Velocity: 62
Note ON: Time 213600, Note Name: D3, Velocity: 62
Note OFF: Time 213720, Note Name: D3
Note OFF: Time 213720, Note Name: A#2
Note OFF: Time 213720, Note Name: F3
Note ON: Time 213840, Note Name: A#2, Velocity: 69
Note ON: Time 213840, Note Name: D3, Velocity: 69
Note ON: Time 213840, Note Name: F3, Velocity: 82
Note OFF: Time 214320, Note Name: F3
Note OFF: Time 214320, Note Name: D3
Note OFF: Time 214320, Note Name: A#2
Note ON: Time 214320, Note Name: C3, Velocity: 63
Note ON: Time 214320, Note Name: F2, Velocity: 63
Note ON: Time 214320, Note Name: F3, Velocity: 75
Note OFF: Time 214440, Note Name: F3
Note OFF: Time 214440, Note Name: F2
Note OFF: Time 214440, Note Name: C3
Note ON: Time 214560, Note Name: A#2, Velocity: 64
Note ON: Time 214560, Note Name: F3, Velocity: 76
Note ON: Time 214560, Note Name: D3, Velocity: 64
Note OFF: Time 214680, Note Name: D3
Note OFF: Time 214680, Note Name: F3
Note OFF: Time 214680, Note Name: A#2
Note ON: Time 214800, Note Name: A#2, Velocity: 63
Note ON: Time 214800, Note Name: D3, Velocity: 63
Note ON: Time 214800, Note Name: F3, Velocity: 75
Note OFF: Time 214920, Note Name: F3
Note OFF: Time 214920, Note Name: D3
Note OFF: Time 214920, Note Name: A#2
Note ON: Time 215040, Note Name: F3, Velocity: 73
Note ON: Time 215040, Note Name: A#2, Velocity: 61
Note ON: Time 215040, Note Name: D3, Velocity: 61
Note OFF: Time 215160, Note Name: D3
Note OFF: Time 215160, Note Name: A#2
Note OFF: Time 215160, Note Name: F3
Note ON: Time 215280, Note Name: A#2, Velocity: 70
Note ON: Time 215280, Note Name: D3, Velocity: 70
Note ON: Time 215280, Note Name: F3, Velocity: 83
Note OFF: Time 215760, Note Name: F3
Note OFF: Time 215760, Note Name: D3
Note OFF: Time 215760, Note Name: A#2
Note ON: Time 215760, Note Name: C3, Velocity: 63
Note ON: Time 215760, Note Name: F2, Velocity: 63
Note ON: Time 215760, Note Name: F3, Velocity: 75
Note OFF: Time 215880, Note Name: F3
Note OFF: Time 215880, Note Name: F2
Note OFF: Time 215880, Note Name: C3
Note ON: Time 216000, Note Name: A#2, Velocity: 69
Note ON: Time 216000, Note Name: A#3, Velocity: 82
Note ON: Time 216000, Note Name: D3, Velocity: 69
Note ON: Time 216000, Note Name: F3, Velocity: 69
Note OFF: Time 216480, Note Name: F3
Note OFF: Time 216480, Note Name: A#2
Note OFF: Time 216480, Note Name: A#3
Note OFF: Time 216480, Note Name: D3
Note ON: Time 216720, Note Name: A#2, Velocity: 69
Note ON: Time 216720, Note Name: D3, Velocity: 69
Note ON: Time 216720, Note Name: A#3, Velocity: 82
Note ON: Time 216720, Note Name: F3, Velocity: 69
Note OFF: Time 217200, Note Name: F3
Note OFF: Time 217200, Note Name: A#2
Note OFF: Time 217200, Note Name: D3
Note OFF: Time 217200, Note Name: A#3
Note ON: Time 217440, Note Name: A#2, Velocity: 69
Note ON: Time 217440, Note Name: D3, Velocity: 69
Note ON: Time 217440, Note Name: F3, Velocity: 69
Note ON: Time 217440, Note Name: A#3, Velocity: 82
Note OFF: Time 217920, Note Name: A#3
Note OFF: Time 217920, Note Name: A#2
Note OFF: Time 217920, Note Name: D3
Note OFF: Time 217920, Note Name: F3
Note ON: Time 219600, Note Name: A#3, Velocity: 56
Note OFF: Time 219780, Note Name: A#3
Note ON: Time 219840, Note Name: F#3, Velocity: 45
Note OFF: Time 219960, Note Name: F#3
Note ON: Time 220080, Note Name: D#3, Velocity: 45
Note OFF: Time 220200, Note Name: D#3
Note ON: Time 220320, Note Name: A#2, Velocity: 51
Note OFF: Time 220500, Note Name: A#2
Note ON: Time 220560, Note Name: F#2, Velocity: 45
Note OFF: Time 220680, Note Name: F#2
Note ON: Time 220800, Note Name: D#2, Velocity: 45
Note OFF: Time 220920, Note Name: D#2
Note ON: Time 222000, Note Name: F#4, Velocity: 51
Note ON: Time 222000, Note Name: D#4, Velocity: 43
Note OFF: Time 222120, Note Name: D#4
Note OFF: Time 222120, Note Name: F#4
Note ON: Time 222240, Note Name: F#4, Velocity: 51
Note ON: Time 222240, Note Name: D#4, Velocity: 43
Note OFF: Time 222360, Note Name: D#4
Note OFF: Time 222360, Note Name: F#4
Note ON: Time 222480, Note Name: D#4, Velocity: 46
Note ON: Time 222480, Note Name: F#4, Velocity: 55
Note OFF: Time 222600, Note Name: F#4
Note OFF: Time 222600, Note Name: D#4
Note ON: Time 222720, Note Name: D#4, Velocity: 43
Note ON: Time 222720, Note Name: F#4, Velocity: 51
Note OFF: Time 222840, Note Name: F#4
Note OFF: Time 222840, Note Name: D#4
Note ON: Time 222960, Note Name: F#4, Velocity: 51
Note ON: Time 222960, Note Name: D#4, Velocity: 43
Note OFF: Time 223080, Note Name: D#4
Note OFF: Time 223080, Note Name: F#4
Note ON: Time 223200, Note Name: F#4, Velocity: 50
Note ON: Time 223200, Note Name: D#4, Velocity: 50
Note ON: Time 223200, Note Name: G#4, Velocity: 59
Note OFF: Time 223320, Note Name: G#4
Note OFF: Time 223320, Note Name: D#4
Note OFF: Time 223320, Note Name: F#4
Note ON: Time 223440, Note Name: F#4, Velocity: 43
Note ON: Time 223440, Note Name: D#4, Velocity: 43
Note ON: Time 223440, Note Name: G#4, Velocity: 51
Note OFF: Time 223560, Note Name: G#4
Note OFF: Time 223560, Note Name: D#4
Note OFF: Time 223560, Note Name: F#4
Note ON: Time 223680, Note Name: D#4, Velocity: 43
Note ON: Time 223680, Note Name: G#4, Velocity: 51
Note ON: Time 223680, Note Name: F#4, Velocity: 43
Note OFF: Time 223800, Note Name: F#4
Note OFF: Time 223800, Note Name: G#4
Note OFF: Time 223800, Note Name: D#4
Note ON: Time 223920, Note Name: C#4, Velocity: 47
Note ON: Time 223920, Note Name: G#4, Velocity: 56
Note ON: Time 223920, Note Name: F4, Velocity: 47
Note OFF: Time 224040, Note Name: F4
Note OFF: Time 224040, Note Name: G#4
Note OFF: Time 224040, Note Name: C#4
Note ON: Time 224160, Note Name: F4, Velocity: 44
Note ON: Time 224160, Note Name: G#4, Velocity: 52
Note ON: Time 224160, Note Name: C#4, Velocity: 44
Note OFF: Time 224280, Note Name: C#4
Note OFF: Time 224280, Note Name: G#4
Note OFF: Time 224280, Note Name: F4
Note ON: Time 224400, Note Name: F4, Velocity: 28
Note ON: Time 224400, Note Name: C#4, Velocity: 28
Note ON: Time 224400, Note Name: G#4, Velocity: 32
Note OFF: Time 224520, Note Name: G#4
Note OFF: Time 224520, Note Name: C#4
Note OFF: Time 224520, Note Name: F4
Note ON: Time 225360, Note Name: C#4, Velocity: 56
Note OFF: Time 225540, Note Name: C#4
Note ON: Time 225600, Note Name: A#3, Velocity: 45
Note OFF: Time 225720, Note Name: A#3
Note ON: Time 225840, Note Name: F#3, Velocity: 45
Note OFF: Time 225960, Note Name: F#3
Note ON: Time 226080, Note Name: C#3, Velocity: 51
Note OFF: Time 226260, Note Name: C#3
Note ON: Time 226320, Note Name: A#2, Velocity: 45
Note OFF: Time 226440, Note Name: A#2
Note ON: Time 226560, Note Name: F#2, Velocity: 45
Note OFF: Time 226680, Note Name: F#2
Note ON: Time 227760, Note Name: F#4, Velocity: 43
Note ON: Time 227760, Note Name: A#4, Velocity: 51
Note OFF: Time 227880, Note Name: A#4
Note OFF: Time 227880, Note Name: F#4
Note ON: Time 228000, Note Name: F#4, Velocity: 43
Note ON: Time 228000, Note Name: A#4, Velocity: 51
Note OFF: Time 228120, Note Name: A#4
Note OFF: Time 228120, Note Name: F#4
Note ON: Time 228240, Note Name: B4, Velocity: 55
Note ON: Time 228240, Note Name: F#4, Velocity: 46
Note OFF: Time 228360, Note Name: F#4
Note OFF: Time 228360, Note Name: B4
Note ON: Time 228480, Note Name: B4, Velocity: 51
Note ON: Time 228480, Note Name: F#4, Velocity: 43
Note OFF: Time 228600, Note Name: F#4
Note OFF: Time 228600, Note Name: B4
Note ON: Time 228720, Note Name: B4, Velocity: 51
Note ON: Time 228720, Note Name: F#4, Velocity: 43
Note OFF: Time 228840, Note Name: F#4
Note OFF: Time 228840, Note Name: B4
Note ON: Time 228960, Note Name: F#4, Velocity: 43
Note ON: Time 228960, Note Name: C5, Velocity: 59
Note OFF: Time 229080, Note Name: C5
Note OFF: Time 229080, Note Name: F#4
Note ON: Time 229200, Note Name: F#4, Velocity: 43
Note ON: Time 229200, Note Name: C5, Velocity: 51
Note OFF: Time 229320, Note Name: C5
Note OFF: Time 229320, Note Name: F#4
Note ON: Time 229440, Note Name: C5, Velocity: 51
Note ON: Time 229440, Note Name: F#4, Velocity: 46
Note OFF: Time 229560, Note Name: F#4
Note OFF: Time 229560, Note Name: C5
Note ON: Time 229680, Note Name: C#5, Velocity: 56
Note ON: Time 229680, Note Name: F#4, Velocity: 47
Note OFF: Time 229800, Note Name: F#4
Note OFF: Time 229800, Note Name: C#5
Note ON: Time 229920, Note Name: C#5, Velocity: 52
Note ON: Time 229920, Note Name: F#4, Velocity: 44
Note OFF: Time 230040, Note Name: F#4
Note OFF: Time 230040, Note Name: C#5
Note ON: Time 230160, Note Name: F#4, Velocity: 44
Note ON: Time 230160, Note Name: C#5, Velocity: 53
Note OFF: Time 230280, Note Name: C#5
Note OFF: Time 230280, Note Name: F#4
Note ON: Time 230400, Note Name: F#4, Velocity: 48
Note ON: Time 230400, Note Name: C#5, Velocity: 58
Note OFF: Time 230520, Note Name: C#5
Note OFF: Time 230520, Note Name: F#4
Note ON: Time 230640, Note Name: C#5, Velocity: 52
Note ON: Time 230640, Note Name: F#4, Velocity: 44
Note OFF: Time 230760, Note Name: F#4
Note OFF: Time 230760, Note Name: C#5
Note ON: Time 230880, Note Name: C#5, Velocity: 54
Note ON: Time 230880, Note Name: F#4, Velocity: 45
Note OFF: Time 231000, Note Name: F#4
Note OFF: Time 231000, Note Name: C#5
Note ON: Time 231120, Note Name: D#5, Velocity: 60
Note ON: Time 231120, Note Name: F#4, Velocity: 50
Note OFF: Time 231240, Note Name: F#4
Note OFF: Time 231240, Note Name: D#5
Note ON: Time 231360, Note Name: F#4, Velocity: 44
Note ON: Time 231360, Note Name: D#5, Velocity: 53
Note OFF: Time 231480, Note Name: D#5
Note OFF: Time 231480, Note Name: F#4
Note ON: Time 231600, Note Name: F#4, Velocity: 45
Note ON: Time 231600, Note Name: D#5, Velocity: 53
Note OFF: Time 231720, Note Name: D#5
Note OFF: Time 231720, Note Name: F#4
Note ON: Time 231840, Note Name: E5, Velocity: 62
Note ON: Time 231840, Note Name: F#4, Velocity: 52
Note OFF: Time 231960, Note Name: F#4
Note OFF: Time 231960, Note Name: E5
Note ON: Time 232080, Note Name: E5, Velocity: 56
Note ON: Time 232080, Note Name: F#4, Velocity: 47
Note OFF: Time 232200, Note Name: F#4
Note OFF: Time 232200, Note Name: E5
Note ON: Time 232320, Note Name: E5, Velocity: 57
Note ON: Time 232320, Note Name: F#4, Velocity: 47
Note OFF: Time 232440, Note Name: F#4
Note OFF: Time 232440, Note Name: E5
Note ON: Time 232560, Note Name: F#4, Velocity: 54
Note ON: Time 232560, Note Name: E5, Velocity: 64
Note OFF: Time 232680, Note Name: E5
Note OFF: Time 232680, Note Name: F#4
Note ON: Time 232800, Note Name: F#4, Velocity: 49
Note ON: Time 232800, Note Name: E5, Velocity: 58
Note OFF: Time 232920, Note Name: E5
Note OFF: Time 232920, Note Name: F#4
Note ON: Time 233040, Note Name: E5, Velocity: 59
Note ON: Time 233040, Note Name: F#4, Velocity: 49
Note OFF: Time 233160, Note Name: F#4
Note OFF: Time 233160, Note Name: E5
Note ON: Time 233280, Note Name: E5, Velocity: 67
Note ON: Time 233280, Note Name: F#4, Velocity: 56
Note OFF: Time 233400, Note Name: F#4
Note OFF: Time 233400, Note Name: E5
Note ON: Time 233520, Note Name: E5, Velocity: 56
Note ON: Time 233520, Note Name: F#4, Velocity: 47
Note OFF: Time 233640, Note Name: F#4
Note OFF: Time 233640, Note Name: E5
Note ON: Time 233760, Note Name: F#4, Velocity: 46
Note ON: Time 233760, Note Name: E5, Velocity: 55
Note OFF: Time 233880, Note Name: E5
Note OFF: Time 233880, Note Name: F#4
Note ON: Time 234000, Note Name: F#4, Velocity: 53
Note ON: Time 234000, Note Name: D#5, Velocity: 63
Note OFF: Time 234120, Note Name: D#5
Note OFF: Time 234120, Note Name: F#4
Note ON: Time 234240, Note Name: D#5, Velocity: 57
Note ON: Time 234240, Note Name: F#4, Velocity: 48
Note OFF: Time 234360, Note Name: F#4
Note OFF: Time 234360, Note Name: D#5
Note ON: Time 234480, Note Name: D#5, Velocity: 56
Note ON: Time 234480, Note Name: F#4, Velocity: 47
Note OFF: Time 234600, Note Name: F#4
Note OFF: Time 234600, Note Name: D#5
Note ON: Time 234720, Note Name: C#5, Velocity: 58
Note ON: Time 234720, Note Name: F#4, Velocity: 49
Note OFF: Time 234840, Note Name: F#4
Note OFF: Time 234840, Note Name: C#5
Note ON: Time 234960, Note Name: F#4, Velocity: 43
Note ON: Time 234960, Note Name: C#5, Velocity: 51
Note OFF: Time 235080, Note Name: C#5
Note OFF: Time 235080, Note Name: F#4
Note ON: Time 235200, Note Name: F#4, Velocity: 42
Note ON: Time 235200, Note Name: C#5, Velocity: 50
Note OFF: Time 235320, Note Name: C#5
Note OFF: Time 235320, Note Name: F#4
Note ON: Time 235440, Note Name: F#4, Velocity: 41
Note ON: Time 235440, Note Name: E4, Velocity: 41
Note ON: Time 235440, Note Name: A#4, Velocity: 48
Note OFF: Time 235560, Note Name: A#4
Note OFF: Time 235560, Note Name: E4
Note OFF: Time 235560, Note Name: F#4
Note ON: Time 235680, Note Name: E4, Velocity: 36
Note ON: Time 235680, Note Name: A#4, Velocity: 43
Note ON: Time 235680, Note Name: F#4, Velocity: 36
Note OFF: Time 235800, Note Name: F#4
Note OFF: Time 235800, Note Name: A#4
Note OFF: Time 235800, Note Name: E4
Note ON: Time 235920, Note Name: E4, Velocity: 35
Note ON: Time 235920, Note Name: A#4, Velocity: 42
Note ON: Time 235920, Note Name: F#4, Velocity: 35
Note OFF: Time 236040, Note Name: F#4
Note OFF: Time 236040, Note Name: A#4
Note OFF: Time 236040, Note Name: E4
Note ON: Time 236160, Note Name: F#4, Velocity: 46
Note ON: Time 236160, Note Name: D#4, Velocity: 38
Note OFF: Time 236280, Note Name: F#4
Note ON: Time 236280, Note Name: G#4, Velocity: 31
Note OFF: Time 236400, Note Name: G#4
Note ON: Time 236400, Note Name: F#4, Velocity: 36
Note OFF: Time 236520, Note Name: F#4
Note ON: Time 236520, Note Name: G#4, Velocity: 32
Note OFF: Time 236640, Note Name: G#4
Note ON: Time 236640, Note Name: F#4, Velocity: 36
Note OFF: Time 236760, Note Name: F#4
Note ON: Time 236760, Note Name: G#4, Velocity: 33
Note OFF: Time 236880, Note Name: G#4
Note OFF: Time 236880, Note Name: D#4
Note ON: Time 236880, Note Name: F#4, Velocity: 48
Note ON: Time 236880, Note Name: B3, Velocity: 41
Note OFF: Time 237000, Note Name: F#4
Note ON: Time 237000, Note Name: G#4, Velocity: 35
Note OFF: Time 237120, Note Name: G#4
Note ON: Time 237120, Note Name: F#4, Velocity: 40
Note OFF: Time 237240, Note Name: F#4
Note ON: Time 237240, Note Name: G#4, Velocity: 35
Note OFF: Time 237360, Note Name: G#4
Note ON: Time 237360, Note Name: F#4, Velocity: 42
Note OFF: Time 237480, Note Name: F#4
Note ON: Time 237480, Note Name: G#4, Velocity: 36
Note OFF: Time 237600, Note Name: G#4
Note OFF: Time 237600, Note Name: B3
Note ON: Time 237600, Note Name: F#4, Velocity: 52
Note ON: Time 237600, Note Name: A#3, Velocity: 43
Note OFF: Time 237720, Note Name: F#4
Note ON: Time 237720, Note Name: G#4, Velocity: 35
Note OFF: Time 237840, Note Name: G#4
Note ON: Time 237840, Note Name: F#4, Velocity: 39
Note OFF: Time 237960, Note Name: F#4
Note ON: Time 237960, Note Name: G#4, Velocity: 34
Note OFF: Time 238080, Note Name: G#4
Note ON: Time 238080, Note Name: F#4, Velocity: 37
Note OFF: Time 238200, Note Name: F#4
Note ON: Time 238200, Note Name: G#4, Velocity: 33
Note OFF: Time 238320, Note Name: G#4
Note OFF: Time 238320, Note Name: A#3
Note ON: Time 238320, Note Name: F#4, Velocity: 47
Note ON: Time 238320, Note Name: E4, Velocity: 41
Note OFF: Time 238440, Note Name: F#4
Note ON: Time 238440, Note Name: G#4, Velocity: 34
Note OFF: Time 238560, Note Name: G#4
Note ON: Time 238560, Note Name: F#4, Velocity: 37
Note OFF: Time 238680, Note Name: F#4
Note ON: Time 238680, Note Name: G#4, Velocity: 32
Note OFF: Time 238800, Note Name: G#4
Note ON: Time 238800, Note Name: F#4, Velocity: 38
Note OFF: Time 238920, Note Name: F#4
Note ON: Time 238920, Note Name: G#4, Velocity: 31
Note OFF: Time 239040, Note Name: G#4
Note OFF: Time 239040, Note Name: E4
Note ON: Time 239040, Note Name: B3, Velocity: 48
Note ON: Time 239040, Note Name: D#4, Velocity: 48
Note OFF: Time 239520, Note Name: D#4
Note ON: Time 239520, Note Name: G#4, Velocity: 45
Note OFF: Time 239760, Note Name: G#4
Note ON: Time 239760, Note Name: F#4, Velocity: 54
Note OFF: Time 240240, Note Name: F#4
Note ON: Time 240240, Note Name: D#4, Velocity: 49
Note OFF: Time 240480, Note Name: D#4
Note OFF: Time 240480, Note Name: B3
Note ON: Time 240480, Note Name: F#3, Velocity: 46
Note ON: Time 240480, Note Name: C#4, Velocity: 55
Note OFF: Time 240960, Note Name: C#4
Note ON: Time 240960, Note Name: G#4, Velocity: 46
Note OFF: Time 241200, Note Name: G#4
Note OFF: Time 241200, Note Name: F#3
Note ON: Time 241200, Note Name: E3, Velocity: 45
Note ON: Time 241200, Note Name: F#4, Velocity: 53
Note OFF: Time 241680, Note Name: F#4
Note ON: Time 241680, Note Name: C#4, Velocity: 44
Note OFF: Time 241920, Note Name: C#4
Note OFF: Time 241920, Note Name: E3
Note ON: Time 241920, Note Name: D#3, Velocity: 35
Note OFF: Time 242040, Note Name: D#3
Note ON: Time 242040, Note Name: B3, Velocity: 27
Note OFF: Time 242160, Note Name: B3
Note ON: Time 242160, Note Name: D#3, Velocity: 31
Note OFF: Time 242280, Note Name: D#3
Note ON: Time 242280, Note Name: B3, Velocity: 26
Note OFF: Time 242400, Note Name: B3
Note ON: Time 242400, Note Name: D#3, Velocity: 31
Note OFF: Time 242520, Note Name: D#3
Note ON: Time 242520, Note Name: B3, Velocity: 27
Note OFF: Time 242640, Note Name: B3
Note ON: Time 242640, Note Name: D3, Velocity: 37
Note OFF: Time 242760, Note Name: D3
Note ON: Time 242760, Note Name: C4, Velocity: 27
Note OFF: Time 242880, Note Name: C4
Note ON: Time 242880, Note Name: D3, Velocity: 31
Note OFF: Time 243000, Note Name: D3
Note ON: Time 243000, Note Name: C4, Velocity: 27
Note OFF: Time 243120, Note Name: C4
Note ON: Time 243120, Note Name: D3, Velocity: 31
Note OFF: Time 243240, Note Name: D3
Note ON: Time 243240, Note Name: C4, Velocity: 27
Note OFF: Time 243360, Note Name: C4
Note ON: Time 243360, Note Name: C3, Velocity: 35
Note OFF: Time 243480, Note Name: C3
Note ON: Time 243480, Note Name: A3, Velocity: 27
Note OFF: Time 243600, Note Name: A3
Note ON: Time 243600, Note Name: C3, Velocity: 31
Note OFF: Time 243720, Note Name: C3
Note ON: Time 243720, Note Name: A3, Velocity: 26
Note OFF: Time 243840, Note Name: A3
Note ON: Time 243840, Note Name: C3, Velocity: 31
Note OFF: Time 243960, Note Name: C3
Note ON: Time 243960, Note Name: A3, Velocity: 27
Note OFF: Time 244080, Note Name: A3
Note ON: Time 244080, Note Name: B2, Velocity: 37
Note OFF: Time 244200, Note Name: B2
Note ON: Time 244200, Note Name: G3, Velocity: 27
Note OFF: Time 244320, Note Name: G3
Note ON: Time 244320, Note Name: B2, Velocity: 31
Note OFF: Time 244440, Note Name: B2
Note ON: Time 244440, Note Name: G3, Velocity: 27
Note OFF: Time 244560, Note Name: G3
Note ON: Time 244560, Note Name: A2, Velocity: 31
Note OFF: Time 244680, Note Name: A2
Note ON: Time 244680, Note Name: F#3, Velocity: 27
Note OFF: Time 244800, Note Name: F#3
Note ON: Time 244800, Note Name: G2, Velocity: 36
Note ON: Time 244800, Note Name: G3, Velocity: 36
Note OFF: Time 245040, Note Name: G3
Note OFF: Time 245040, Note Name: G2
Note ON: Time 245040, Note Name: B3, Velocity: 38
Note ON: Time 245040, Note Name: G3, Velocity: 32
Note OFF: Time 245160, Note Name: G3
Note OFF: Time 245160, Note Name: B3
Note ON: Time 245160, Note Name: D4, Velocity: 39
Note OFF: Time 245280, Note Name: D4
Note ON: Time 245280, Note Name: B3, Velocity: 40
Note ON: Time 245280, Note Name: G3, Velocity: 34
Note OFF: Time 245400, Note Name: G3
Note OFF: Time 245400, Note Name: B3
Note ON: Time 245400, Note Name: D4, Velocity: 36
Note OFF: Time 245520, Note Name: D4
Note ON: Time 245520, Note Name: B3, Velocity: 42
Note ON: Time 245520, Note Name: G3, Velocity: 35
Note OFF: Time 245640, Note Name: G3
Note OFF: Time 245640, Note Name: B3
Note ON: Time 245640, Note Name: D4, Velocity: 40
Note OFF: Time 245760, Note Name: D4
Note ON: Time 245760, Note Name: B3, Velocity: 44
Note ON: Time 245760, Note Name: G3, Velocity: 37
Note OFF: Time 245880, Note Name: G3
Note OFF: Time 245880, Note Name: B3
Note ON: Time 245880, Note Name: D4, Velocity: 42
Note OFF: Time 246000, Note Name: D4
Note ON: Time 246000, Note Name: B3, Velocity: 46
Note ON: Time 246000, Note Name: G3, Velocity: 39
Note OFF: Time 246120, Note Name: G3
Note OFF: Time 246120, Note Name: B3
Note ON: Time 246120, Note Name: D4, Velocity: 44
Note OFF: Time 246240, Note Name: D4
Note ON: Time 246240, Note Name: F#3, Velocity: 40
Note ON: Time 246240, Note Name: C4, Velocity: 48
Note OFF: Time 246360, Note Name: C4
Note OFF: Time 246360, Note Name: F#3
Note ON: Time 246360, Note Name: D4, Velocity: 42
Note OFF: Time 246480, Note Name: D4
Note ON: Time 246480, Note Name: F#3, Velocity: 35
Note ON: Time 246480, Note Name: C4, Velocity: 42
Note OFF: Time 246600, Note Name: C4
Note OFF: Time 246600, Note Name: F#3
Note ON: Time 246600, Note Name: D4, Velocity: 42
Note OFF: Time 246720, Note Name: D4
Note ON: Time 246720, Note Name: F#3, Velocity: 40
Note ON: Time 246720, Note Name: C4, Velocity: 48
Note OFF: Time 246840, Note Name: C4
Note OFF: Time 246840, Note Name: F#3
Note ON: Time 246840, Note Name: D4, Velocity: 44
Note OFF: Time 246960, Note Name: D4
Note ON: Time 246960, Note Name: F#3, Velocity: 39
Note ON: Time 246960, Note Name: C4, Velocity: 46
Note OFF: Time 247080, Note Name: C4
Note OFF: Time 247080, Note Name: F#3
Note ON: Time 247080, Note Name: D4, Velocity: 41
Note OFF: Time 247200, Note Name: D4
Note ON: Time 247200, Note Name: F#3, Velocity: 37
Note ON: Time 247200, Note Name: C4, Velocity: 44
Note OFF: Time 247320, Note Name: C4
Note OFF: Time 247320, Note Name: F#3
Note ON: Time 247320, Note Name: D4, Velocity: 39
Note OFF: Time 247440, Note Name: D4
Note ON: Time 247440, Note Name: F#3, Velocity: 35
Note ON: Time 247440, Note Name: C4, Velocity: 42
Note OFF: Time 247560, Note Name: C4
Note OFF: Time 247560, Note Name: F#3
Note ON: Time 247560, Note Name: D4, Velocity: 36
Note OFF: Time 247680, Note Name: D4
Note ON: Time 247680, Note Name: G3, Velocity: 48
Note ON: Time 247680, Note Name: B3, Velocity: 48
Note OFF: Time 248160, Note Name: B3
Note ON: Time 248160, Note Name: E4, Velocity: 45
Note OFF: Time 248400, Note Name: E4
Note ON: Time 248400, Note Name: D4, Velocity: 54
Note OFF: Time 248880, Note Name: D4
Note ON: Time 248880, Note Name: B3, Velocity: 49
Note OFF: Time 249120, Note Name: B3
Note OFF: Time 249120, Note Name: G3
Note ON: Time 249120, Note Name: D3, Velocity: 46
Note ON: Time 249120, Note Name: A3, Velocity: 55
Note OFF: Time 249600, Note Name: A3
Note ON: Time 249600, Note Name: E4, Velocity: 46
Note OFF: Time 249840, Note Name: E4
Note ON: Time 249840, Note Name: D4, Velocity: 53
Note OFF: Time 250320, Note Name: D4
Note ON: Time 250320, Note Name: A3, Velocity: 44
Note OFF: Time 250560, Note Name: A3
Note OFF: Time 250560, Note Name: D3
Note ON: Time 250560, Note Name: D4, Velocity: 44
Note ON: Time 250560, Note Name: B3, Velocity: 37
Note ON: Time 250560, Note Name: G3, Velocity: 37
Note OFF: Time 251040, Note Name: G3
Note OFF: Time 251040, Note Name: B3
Note OFF: Time 251040, Note Name: D4
Note ON: Time 251760, Note Name: D4, Velocity: 44
Note OFF: Time 251880, Note Name: D4
Note ON: Time 252000, Note Name: D4, Velocity: 44
Note OFF: Time 252240, Note Name: D4
Note ON: Time 252240, Note Name: B3, Velocity: 38
Note OFF: Time 252480, Note Name: B3
Note ON: Time 252480, Note Name: G3, Velocity: 38
Note OFF: Time 252720, Note Name: G3
Note ON: Time 252720, Note Name: F3, Velocity: 44
Note OFF: Time 252960, Note Name: F3
Note ON: Time 252960, Note Name: D3, Velocity: 44
Note OFF: Time 253200, Note Name: D3
Note ON: Time 253200, Note Name: B2, Velocity: 44
Note OFF: Time 253320, Note Name: B2
Note ON: Time 253440, Note Name: C3, Velocity: 44
Note OFF: Time 253920, Note Name: C3
Note ON: Time 253920, Note Name: G4, Velocity: 40
Note OFF: Time 254157, Note Name: G4
Note ON: Time 254160, Note Name: G4, Velocity: 44
Note OFF: Time 254400, Note Name: G4
Note ON: Time 254400, Note Name: E4, Velocity: 40
Note OFF: Time 254640, Note Name: E4
Note ON: Time 254640, Note Name: G3, Velocity: 34
Note ON: Time 254640, Note Name: C4, Velocity: 40
Note OFF: Time 254878, Note Name: C4
Note OFF: Time 254878, Note Name: G3
Note ON: Time 254880, Note Name: G3, Velocity: 44
Note OFF: Time 255120, Note Name: G3
Note ON: Time 255120, Note Name: E3, Velocity: 40
Note OFF: Time 255360, Note Name: E3
Note ON: Time 255360, Note Name: C3, Velocity: 40
Note OFF: Time 255600, Note Name: C3
Note ON: Time 255600, Note Name: G2, Velocity: 44
Note OFF: Time 255840, Note Name: G2
Note ON: Time 255840, Note Name: C2, Velocity: 39
Note OFF: Time 256080, Note Name: C2
Note ON: Time 256080, Note Name: C3, Velocity: 39
Note OFF: Time 256318, Note Name: C3
Note ON: Time 256320, Note Name: C3, Velocity: 39
Note OFF: Time 256440, Note Name: C3
Note ON: Time 256440, Note Name: D#3, Velocity: 31
Note OFF: Time 256560, Note Name: D#3
Note ON: Time 256560, Note Name: G#3, Velocity: 31
Note OFF: Time 256680, Note Name: G#3
Note ON: Time 256680, Note Name: D#3, Velocity: 31
Note OFF: Time 256800, Note Name: D#3
Note ON: Time 256800, Note Name: G#3, Velocity: 30
Note OFF: Time 256920, Note Name: G#3
Note ON: Time 256920, Note Name: D#3, Velocity: 32
Note OFF: Time 257040, Note Name: D#3
Note ON: Time 257040, Note Name: C#3, Velocity: 41
Note OFF: Time 257160, Note Name: C#3
Note ON: Time 257160, Note Name: D#3, Velocity: 32
Note OFF: Time 257280, Note Name: D#3
Note ON: Time 257280, Note Name: G3, Velocity: 33
Note OFF: Time 257400, Note Name: G3
Note ON: Time 257400, Note Name: A#3, Velocity: 33
Note OFF: Time 257520, Note Name: A#3
Note ON: Time 257520, Note Name: C#4, Velocity: 33
Note OFF: Time 257640, Note Name: C#4
Note ON: Time 257640, Note Name: G3, Velocity: 33
Note OFF: Time 257760, Note Name: G3
Note ON: Time 257760, Note Name: G#3, Velocity: 40
Note OFF: Time 257880, Note Name: G#3
Note ON: Time 257880, Note Name: C4, Velocity: 32
Note OFF: Time 258000, Note Name: C4
Note ON: Time 258000, Note Name: D#4, Velocity: 33
Note OFF: Time 258120, Note Name: D#4
Note ON: Time 258120, Note Name: C4, Velocity: 33
Note OFF: Time 258240, Note Name: C4
Note ON: Time 258240, Note Name: D#4, Velocity: 34
Note OFF: Time 258360, Note Name: D#4
Note ON: Time 258360, Note Name: C4, Velocity: 34
Note OFF: Time 258480, Note Name: C4
Note ON: Time 258480, Note Name: G3, Velocity: 42
Note OFF: Time 258600, Note Name: G3
Note ON: Time 258600, Note Name: A#3, Velocity: 33
Note OFF: Time 258720, Note Name: A#3
Note ON: Time 258720, Note Name: D#4, Velocity: 33
Note OFF: Time 258840, Note Name: D#4
Note ON: Time 258840, Note Name: A#3, Velocity: 33
Note OFF: Time 258960, Note Name: A#3
Note ON: Time 258960, Note Name: G3, Velocity: 33
Note OFF: Time 259080, Note Name: G3
Note ON: Time 259080, Note Name: A#3, Velocity: 33
Note OFF: Time 259200, Note Name: A#3
Note ON: Time 259200, Note Name: D#3, Velocity: 41
Note OFF: Time 259320, Note Name: D#3
Note ON: Time 259320, Note Name: G3, Velocity: 33
Note OFF: Time 259440, Note Name: G3
Note ON: Time 259440, Note Name: A#3, Velocity: 34
Note OFF: Time 259560, Note Name: A#3
Note ON: Time 259560, Note Name: G3, Velocity: 35
Note OFF: Time 259680, Note Name: G3
Note ON: Time 259680, Note Name: A#3, Velocity: 35
Note OFF: Time 259800, Note Name: A#3
Note ON: Time 259800, Note Name: G3, Velocity: 35
Note OFF: Time 259920, Note Name: G3
Note ON: Time 259920, Note Name: A#2, Velocity: 43
Note OFF: Time 260040, Note Name: A#2
Note ON: Time 260040, Note Name: G#3, Velocity: 34
Note OFF: Time 260160, Note Name: G#3
Note ON: Time 260160, Note Name: A#3, Velocity: 34
Note OFF: Time 260280, Note Name: A#3
Note ON: Time 260280, Note Name: G#3, Velocity: 34
Note OFF: Time 260400, Note Name: G#3
Note ON: Time 260400, Note Name: A#3, Velocity: 34
Note OFF: Time 260520, Note Name: A#3
Note ON: Time 260520, Note Name: G#3, Velocity: 34
Note OFF: Time 260640, Note Name: G#3
Note ON: Time 260640, Note Name: D#3, Velocity: 42
Note OFF: Time 260760, Note Name: D#3
Note ON: Time 260760, Note Name: G3, Velocity: 34
Note OFF: Time 260880, Note Name: G3
Note ON: Time 260880, Note Name: A#3, Velocity: 36
Note OFF: Time 261000, Note Name: A#3
Note ON: Time 261000, Note Name: G3, Velocity: 36
Note OFF: Time 261120, Note Name: G3
Note ON: Time 261120, Note Name: A#3, Velocity: 36
Note OFF: Time 261240, Note Name: A#3
Note ON: Time 261240, Note Name: G3, Velocity: 36
Note OFF: Time 261360, Note Name: G3
Note ON: Time 261360, Note Name: A#3, Velocity: 45
Note OFF: Time 261480, Note Name: A#3
Note ON: Time 261480, Note Name: G3, Velocity: 35
Note OFF: Time 261600, Note Name: G3
Note ON: Time 261600, Note Name: A#3, Velocity: 35
Note OFF: Time 261720, Note Name: A#3
Note ON: Time 261720, Note Name: G3, Velocity: 35
Note OFF: Time 261840, Note Name: G3
Note ON: Time 261840, Note Name: E3, Velocity: 35
Note OFF: Time 261960, Note Name: E3
Note ON: Time 261960, Note Name: G3, Velocity: 35
Note OFF: Time 262080, Note Name: G3
Note ON: Time 262080, Note Name: F3, Velocity: 43
Note OFF: Time 262200, Note Name: F3
Note ON: Time 262200, Note Name: G#3, Velocity: 36
Note OFF: Time 262320, Note Name: G#3
Note ON: Time 262320, Note Name: C4, Velocity: 37
Note OFF: Time 262440, Note Name: C4
Note ON: Time 262440, Note Name: G#3, Velocity: 37
Note OFF: Time 262560, Note Name: G#3
Note ON: Time 262560, Note Name: C4, Velocity: 37
Note OFF: Time 262680, Note Name: C4
Note ON: Time 262680, Note Name: G#3, Velocity: 37
Note OFF: Time 262800, Note Name: G#3
Note ON: Time 262800, Note Name: C3, Velocity: 46
Note OFF: Time 262920, Note Name: C3
Note ON: Time 262920, Note Name: A#3, Velocity: 36
Note OFF: Time 263040, Note Name: A#3
Note ON: Time 263040, Note Name: C4, Velocity: 36
Note OFF: Time 263160, Note Name: C4
Note ON: Time 263160, Note Name: A#3, Velocity: 36
Note OFF: Time 263280, Note Name: A#3
Note ON: Time 263280, Note Name: C4, Velocity: 36
Note OFF: Time 263400, Note Name: C4
Note ON: Time 263400, Note Name: A#3, Velocity: 36
Note OFF: Time 263520, Note Name: A#3
Note ON: Time 263520, Note Name: F3, Velocity: 44
Note OFF: Time 263640, Note Name: F3
Note ON: Time 263640, Note Name: G#3, Velocity: 37
Note OFF: Time 263760, Note Name: G#3
Note ON: Time 263760, Note Name: C4, Velocity: 38
Note OFF: Time 263880, Note Name: C4
Note ON: Time 263880, Note Name: G#3, Velocity: 38
Note OFF: Time 264000, Note Name: G#3
Note ON: Time 264000, Note Name: C4, Velocity: 38
Note OFF: Time 264120, Note Name: C4
Note ON: Time 264120, Note Name: G#3, Velocity: 38
Note OFF: Time 264240, Note Name: G#3
Note ON: Time 264240, Note Name: A#3, Velocity: 47
Note OFF: Time 264360, Note Name: A#3
Note ON: Time 264360, Note Name: G#3, Velocity: 37
Note OFF: Time 264480, Note Name: G#3
Note ON: Time 264480, Note Name: A#3, Velocity: 37
Note OFF: Time 264600, Note Name: A#3
Note ON: Time 264600, Note Name: G#3, Velocity: 37
Note OFF: Time 264720, Note Name: G#3
Note ON: Time 264720, Note Name: D3, Velocity: 37
Note OFF: Time 264840, Note Name: D3
Note ON: Time 264840, Note Name: G#3, Velocity: 37
Note OFF: Time 264960, Note Name: G#3
Note ON: Time 264960, Note Name: D#3, Velocity: 46
Note OFF: Time 265080, Note Name: D#3
Note ON: Time 265080, Note Name: G3, Velocity: 38
Note OFF: Time 265200, Note Name: G3
Note ON: Time 265200, Note Name: A#3, Velocity: 39
Note OFF: Time 265320, Note Name: A#3
Note ON: Time 265320, Note Name: G3, Velocity: 39
Note OFF: Time 265440, Note Name: G3
Note ON: Time 265440, Note Name: A#3, Velocity: 39
Note OFF: Time 265560, Note Name: A#3
Note ON: Time 265560, Note Name: G3, Velocity: 39
Note OFF: Time 265680, Note Name: G3
Note ON: Time 265680, Note Name: G#2, Velocity: 49
Note OFF: Time 265800, Note Name: G#2
Note ON: Time 265800, Note Name: F3, Velocity: 38
Note OFF: Time 265920, Note Name: F3
Note ON: Time 265920, Note Name: G#3, Velocity: 38
Note OFF: Time 266040, Note Name: G#3
Note ON: Time 266040, Note Name: F3, Velocity: 38
Note OFF: Time 266160, Note Name: F3
Note ON: Time 266160, Note Name: G#3, Velocity: 38
Note OFF: Time 266280, Note Name: G#3
Note ON: Time 266280, Note Name: F3, Velocity: 39
Note OFF: Time 266400, Note Name: F3
Note ON: Time 266400, Note Name: A#2, Velocity: 47
Note OFF: Time 266520, Note Name: A#2
Note ON: Time 266520, Note Name: D#3, Velocity: 39
Note OFF: Time 266640, Note Name: D#3
Note ON: Time 266640, Note Name: G3, Velocity: 40
Note OFF: Time 266760, Note Name: G3
Note ON: Time 266760, Note Name: D#3, Velocity: 40
Note OFF: Time 266880, Note Name: D#3
Note ON: Time 266880, Note Name: G3, Velocity: 40
Note OFF: Time 267000, Note Name: G3
Note ON: Time 267000, Note Name: D#3, Velocity: 40
Note OFF: Time 267120, Note Name: D#3
Note ON: Time 267120, Note Name: A#2, Velocity: 50
Note OFF: Time 267240, Note Name: A#2
Note ON: Time 267240, Note Name: D3, Velocity: 39
Note OFF: Time 267360, Note Name: D3
Note ON: Time 267360, Note Name: F3, Velocity: 39
Note OFF: Time 267480, Note Name: F3
Note ON: Time 267480, Note Name: D3, Velocity: 39
Note OFF: Time 267600, Note Name: D3
Note ON: Time 267600, Note Name: A#2, Velocity: 39
Note ON: Time 267600, Note Name: A#3, Velocity: 39
Note OFF: Time 267840, Note Name: A#3
Note OFF: Time 267840, Note Name: A#2
Note ON: Time 267840, Note Name: A#2, Velocity: 57
Note ON: Time 267840, Note Name: A#3, Velocity: 67
Note OFF: Time 267960, Note Name: A#3
Note OFF: Time 267960, Note Name: A#2
Note ON: Time 268080, Note Name: G2, Velocity: 49
Note ON: Time 268080, Note Name: G3, Velocity: 58
Note OFF: Time 268200, Note Name: G3
Note OFF: Time 268200, Note Name: G2
Note ON: Time 268320, Note Name: D#2, Velocity: 44
Note ON: Time 268320, Note Name: D#3, Velocity: 54
Note OFF: Time 268440, Note Name: D#3
Note OFF: Time 268440, Note Name: D#2
Note ON: Time 268560, Note Name: D2, Velocity: 51
Note ON: Time 268560, Note Name: D3, Velocity: 62
Note OFF: Time 268680, Note Name: D3
Note OFF: Time 268680, Note Name: D2
Note ON: Time 268800, Note Name: F2, Velocity: 47
Note ON: Time 268800, Note Name: F3, Velocity: 56
Note OFF: Time 268920, Note Name: F3
Note OFF: Time 268920, Note Name: F2
Note ON: Time 269040, Note Name: A#2, Velocity: 48
Note ON: Time 269040, Note Name: A#3, Velocity: 57
Note OFF: Time 269161, Note Name: A#3
Note OFF: Time 269161, Note Name: A#2
Note ON: Time 269280, Note Name: A#2, Velocity: 52
Note ON: Time 269280, Note Name: A#3, Velocity: 63
Note OFF: Time 269400, Note Name: A#3
Note OFF: Time 269400, Note Name: A#2
Note ON: Time 269520, Note Name: G2, Velocity: 49
Note ON: Time 269520, Note Name: G3, Velocity: 58
Note OFF: Time 269640, Note Name: G3
Note OFF: Time 269640, Note Name: G2
Note ON: Time 269760, Note Name: D#2, Velocity: 49
Note ON: Time 269760, Note Name: D#3, Velocity: 58
Note OFF: Time 269881, Note Name: D#3
Note OFF: Time 269881, Note Name: D#2
Note ON: Time 270000, Note Name: D#2, Velocity: 54
Note ON: Time 270000, Note Name: D#3, Velocity: 64
Note OFF: Time 270120, Note Name: D#3
Note OFF: Time 270120, Note Name: D#2
Note ON: Time 270240, Note Name: G2, Velocity: 46
Note ON: Time 270240, Note Name: G3, Velocity: 55
Note OFF: Time 270360, Note Name: G3
Note OFF: Time 270360, Note Name: G2
Note ON: Time 270480, Note Name: C3, Velocity: 56
Note ON: Time 270480, Note Name: C4, Velocity: 66
Note OFF: Time 270601, Note Name: C4
Note OFF: Time 270601, Note Name: C3
Note ON: Time 270720, Note Name: C3, Velocity: 60
Note ON: Time 270720, Note Name: C4, Velocity: 72
Note OFF: Time 270840, Note Name: C4
Note OFF: Time 270840, Note Name: C3
Note ON: Time 270960, Note Name: G#2, Velocity: 55
Note ON: Time 270960, Note Name: G#3, Velocity: 65
Note OFF: Time 271080, Note Name: G#3
Note OFF: Time 271080, Note Name: G#2
Note ON: Time 271200, Note Name: F2, Velocity: 55
Note ON: Time 271200, Note Name: F3, Velocity: 65
Note OFF: Time 271320, Note Name: F3
Note OFF: Time 271320, Note Name: F2
Note ON: Time 271440, Note Name: E2, Velocity: 60
Note ON: Time 271440, Note Name: E3, Velocity: 72
Note OFF: Time 271560, Note Name: E3
Note OFF: Time 271560, Note Name: E2
Note ON: Time 271680, Note Name: G2, Velocity: 55
Note ON: Time 271680, Note Name: G3, Velocity: 65
Note OFF: Time 271800, Note Name: G3
Note OFF: Time 271800, Note Name: G2
Note ON: Time 271920, Note Name: C3, Velocity: 59
Note ON: Time 271920, Note Name: C4, Velocity: 71
Note OFF: Time 272041, Note Name: C4
Note OFF: Time 272041, Note Name: C3
Note ON: Time 272160, Note Name: C3, Velocity: 71
Note ON: Time 272160, Note Name: C4, Velocity: 83
Note OFF: Time 272280, Note Name: C4
Note OFF: Time 272280, Note Name: C3
Note ON: Time 272400, Note Name: G#2, Velocity: 57
Note ON: Time 272400, Note Name: G#3, Velocity: 67
Note OFF: Time 272520, Note Name: G#3
Note OFF: Time 272520, Note Name: G#2
Note ON: Time 272640, Note Name: F2, Velocity: 57
Note ON: Time 272640, Note Name: F3, Velocity: 67
Note OFF: Time 272760, Note Name: F3
Note OFF: Time 272760, Note Name: F2
Note ON: Time 272880, Note Name: D2, Velocity: 64
Note ON: Time 272880, Note Name: D3, Velocity: 77
Note OFF: Time 273000, Note Name: D3
Note OFF: Time 273000, Note Name: D2
Note ON: Time 273120, Note Name: F2, Velocity: 58
Note ON: Time 273120, Note Name: F3, Velocity: 69
Note OFF: Time 273240, Note Name: F3
Note OFF: Time 273240, Note Name: F2
Note ON: Time 273360, Note Name: A#2, Velocity: 58
Note ON: Time 273360, Note Name: A#3, Velocity: 69
Note OFF: Time 273481, Note Name: A#3
Note OFF: Time 273481, Note Name: A#2
Note ON: Time 273600, Note Name: A#2, Velocity: 64
Note ON: Time 273600, Note Name: A#3, Velocity: 77
Note OFF: Time 273720, Note Name: A#3
Note OFF: Time 273720, Note Name: A#2
Note ON: Time 273840, Note Name: G2, Velocity: 56
Note ON: Time 273840, Note Name: G3, Velocity: 66
Note OFF: Time 273960, Note Name: G3
Note OFF: Time 273960, Note Name: G2
Note ON: Time 274080, Note Name: D#2, Velocity: 56
Note ON: Time 274080, Note Name: D#3, Velocity: 66
Note OFF: Time 274200, Note Name: D#3
Note OFF: Time 274200, Note Name: D#2
Note ON: Time 274320, Note Name: C2, Velocity: 58
Note ON: Time 274320, Note Name: C3, Velocity: 70
Note OFF: Time 274440, Note Name: C3
Note OFF: Time 274440, Note Name: C2
Note ON: Time 274560, Note Name: F2, Velocity: 54
Note ON: Time 274560, Note Name: F3, Velocity: 64
Note OFF: Time 274680, Note Name: F3
Note OFF: Time 274680, Note Name: F2
Note ON: Time 274800, Note Name: G#2, Velocity: 54
Note ON: Time 274800, Note Name: G#3, Velocity: 64
Note OFF: Time 274921, Note Name: G#3
Note OFF: Time 274921, Note Name: G#2
Note ON: Time 275040, Note Name: A#1, Velocity: 63
Note ON: Time 275040, Note Name: A#2, Velocity: 74
Note OFF: Time 275160, Note Name: A#2
Note OFF: Time 275160, Note Name: A#1
Note ON: Time 275280, Note Name: D#2, Velocity: 57
Note ON: Time 275280, Note Name: D#3, Velocity: 67
Note OFF: Time 275400, Note Name: D#3
Note OFF: Time 275400, Note Name: D#2
Note ON: Time 275520, Note Name: G2, Velocity: 58
Note ON: Time 275520, Note Name: G3, Velocity: 69
Note OFF: Time 275641, Note Name: G3
Note OFF: Time 275641, Note Name: G2
Note ON: Time 275760, Note Name: A#1, Velocity: 64
Note ON: Time 275760, Note Name: A#2, Velocity: 77
Note OFF: Time 275880, Note Name: A#2
Note OFF: Time 275880, Note Name: A#1
Note ON: Time 276000, Note Name: D2, Velocity: 58
Note ON: Time 276000, Note Name: D3, Velocity: 69
Note OFF: Time 276120, Note Name: D3
Note OFF: Time 276120, Note Name: D2
Note ON: Time 276240, Note Name: A#2, Velocity: 58
Note ON: Time 276240, Note Name: A#3, Velocity: 69
Note OFF: Time 276360, Note Name: A#3
Note OFF: Time 276360, Note Name: A#2
Note ON: Time 276480, Note Name: D#2, Velocity: 73
Note OFF: Time 276600, Note Name: D#2
Note ON: Time 276720, Note Name: G3, Velocity: 62
Note ON: Time 276720, Note Name: D#3, Velocity: 49
Note OFF: Time 276840, Note Name: D#3
Note OFF: Time 276840, Note Name: G3
Note ON: Time 276960, Note Name: A#3, Velocity: 62
Note ON: Time 276960, Note Name: G3, Velocity: 49
Note ON: Time 276960, Note Name: D#3, Velocity: 49
Note OFF: Time 277080, Note Name: D#3
Note OFF: Time 277080, Note Name: G3
Note OFF: Time 277080, Note Name: A#3
Note ON: Time 277200, Note Name: D#4, Velocity: 62
Note ON: Time 277200, Note Name: A#3, Velocity: 49
Note ON: Time 277200, Note Name: G3, Velocity: 49
Note ON: Time 277200, Note Name: D#3, Velocity: 49
Note OFF: Time 277320, Note Name: D#3
Note OFF: Time 277320, Note Name: D#4
Note OFF: Time 277320, Note Name: A#3
Note OFF: Time 277320, Note Name: G3
Note ON: Time 277440, Note Name: D#4, Velocity: 62
Note ON: Time 277440, Note Name: A#3, Velocity: 49
Note ON: Time 277440, Note Name: G3, Velocity: 49
Note ON: Time 277440, Note Name: D#3, Velocity: 49
Note OFF: Time 277560, Note Name: D#3
Note OFF: Time 277560, Note Name: D#4
Note OFF: Time 277560, Note Name: A#3
Note OFF: Time 277560, Note Name: G3
Note ON: Time 277680, Note Name: D#4, Velocity: 62
Note ON: Time 277680, Note Name: A#3, Velocity: 49
Note ON: Time 277680, Note Name: G3, Velocity: 49
Note ON: Time 277680, Note Name: D#3, Velocity: 49
Note OFF: Time 277800, Note Name: D#3
Note OFF: Time 277800, Note Name: D#4
Note OFF: Time 277800, Note Name: A#3
Note OFF: Time 277800, Note Name: G3
Note ON: Time 277920, Note Name: D#4, Velocity: 70
Note ON: Time 277920, Note Name: A#3, Velocity: 56
Note ON: Time 277920, Note Name: G3, Velocity: 56
Note ON: Time 277920, Note Name: D#3, Velocity: 56
Note OFF: Time 278040, Note Name: D#3
Note OFF: Time 278040, Note Name: D#4
Note OFF: Time 278040, Note Name: A#3
Note OFF: Time 278040, Note Name: G3
Note ON: Time 278160, Note Name: D#4, Velocity: 62
Note ON: Time 278160, Note Name: A#3, Velocity: 49
Note ON: Time 278160, Note Name: G3, Velocity: 49
Note ON: Time 278160, Note Name: D#3, Velocity: 49
Note OFF: Time 278280, Note Name: D#3
Note OFF: Time 278280, Note Name: D#4
Note OFF: Time 278280, Note Name: A#3
Note OFF: Time 278280, Note Name: G3
Note ON: Time 278400, Note Name: D#4, Velocity: 62
Note ON: Time 278400, Note Name: A#3, Velocity: 49
Note ON: Time 278400, Note Name: G3, Velocity: 49
Note ON: Time 278400, Note Name: D#3, Velocity: 49
Note OFF: Time 278520, Note Name: D#3
Note OFF: Time 278520, Note Name: D#4
Note OFF: Time 278520, Note Name: A#3
Note OFF: Time 278520, Note Name: G3
Note ON: Time 278640, Note Name: D4, Velocity: 62
Note ON: Time 278640, Note Name: G#3, Velocity: 49
Note ON: Time 278640, Note Name: A#3, Velocity: 49
Note ON: Time 278640, Note Name: F3, Velocity: 49
Note ON: Time 278640, Note Name: D#3, Velocity: 49
Note OFF: Time 278760, Note Name: D#3
Note OFF: Time 278760, Note Name: A#3
Note OFF: Time 278760, Note Name: D4
Note OFF: Time 278760, Note Name: G#3
Note OFF: Time 278760, Note Name: F3
Note ON: Time 278880, Note Name: D4, Velocity: 62
Note ON: Time 278880, Note Name: A#3, Velocity: 49
Note ON: Time 278880, Note Name: G#3, Velocity: 49
Note ON: Time 278880, Note Name: F3, Velocity: 49
Note ON: Time 278880, Note Name: D#3, Velocity: 49
Note OFF: Time 279000, Note Name: D#3
Note OFF: Time 279000, Note Name: G#3
Note OFF: Time 279000, Note Name: D4
Note OFF: Time 279000, Note Name: A#3
Note OFF: Time 279000, Note Name: F3
Note ON: Time 279120, Note Name: D4, Velocity: 62
Note ON: Time 279120, Note Name: A#3, Velocity: 49
Note ON: Time 279120, Note Name: G#3, Velocity: 49
Note ON: Time 279120, Note Name: F3, Velocity: 49
Note ON: Time 279120, Note Name: D#3, Velocity: 49
Note OFF: Time 279240, Note Name: D#3
Note OFF: Time 279240, Note Name: G#3
Note OFF: Time 279240, Note Name: D4
Note OFF: Time 279240, Note Name: A#3
Note OFF: Time 279240, Note Name: F3
Note ON: Time 279360, Note Name: D#4, Velocity: 72
Note ON: Time 279360, Note Name: A#3, Velocity: 57
Note ON: Time 279360, Note Name: G3, Velocity: 57
Note ON: Time 279360, Note Name: D#3, Velocity: 57
Note OFF: Time 279480, Note Name: D#3
Note OFF: Time 279480, Note Name: D#4
Note OFF: Time 279480, Note Name: A#3
Note OFF: Time 279480, Note Name: G3
Note ON: Time 279600, Note Name: D#4, Velocity: 62
Note ON: Time 279600, Note Name: A#3, Velocity: 49
Note ON: Time 279600, Note Name: G3, Velocity: 49
Note ON: Time 279600, Note Name: D#3, Velocity: 49
Note OFF: Time 279720, Note Name: D#3
Note OFF: Time 279720, Note Name: D#4
Note OFF: Time 279720, Note Name: A#3
Note OFF: Time 279720, Note Name: G3
Note ON: Time 279840, Note Name: D#4, Velocity: 62
Note ON: Time 279840, Note Name: A#3, Velocity: 49
Note ON: Time 279840, Note Name: G3, Velocity: 49
Note ON: Time 279840, Note Name: D#3, Velocity: 49
Note OFF: Time 279960, Note Name: D#3
Note OFF: Time 279960, Note Name: D#4
Note OFF: Time 279960, Note Name: A#3
Note OFF: Time 279960, Note Name: G3
Note ON: Time 280080, Note Name: D#4, Velocity: 62
Note ON: Time 280080, Note Name: A#3, Velocity: 49
Note ON: Time 280080, Note Name: G3, Velocity: 49
Note ON: Time 280080, Note Name: D#3, Velocity: 49
Note OFF: Time 280200, Note Name: D#3
Note OFF: Time 280200, Note Name: D#4
Note OFF: Time 280200, Note Name: A#3
Note OFF: Time 280200, Note Name: G3
Note ON: Time 280320, Note Name: D#4, Velocity: 62
Note ON: Time 280320, Note Name: A#3, Velocity: 49
Note ON: Time 280320, Note Name: G3, Velocity: 49
Note ON: Time 280320, Note Name: D#3, Velocity: 49
Note OFF: Time 280440, Note Name: D#3
Note OFF: Time 280440, Note Name: D#4
Note OFF: Time 280440, Note Name: A#3
Note OFF: Time 280440, Note Name: G3
Note ON: Time 280560, Note Name: D#4, Velocity: 62
Note ON: Time 280560, Note Name: A#3, Velocity: 49
Note ON: Time 280560, Note Name: G3, Velocity: 49
Note ON: Time 280560, Note Name: D#3, Velocity: 49
Note OFF: Time 280680, Note Name: D#3
Note OFF: Time 280680, Note Name: D#4
Note OFF: Time 280680, Note Name: A#3
Note OFF: Time 280680, Note Name: G3
Note ON: Time 280800, Note Name: D#4, Velocity: 69
Note ON: Time 280800, Note Name: A#3, Velocity: 55
Note ON: Time 280800, Note Name: G3, Velocity: 55
Note ON: Time 280800, Note Name: D#3, Velocity: 55
Note OFF: Time 280920, Note Name: D#3
Note OFF: Time 280920, Note Name: D#4
Note OFF: Time 280920, Note Name: A#3
Note OFF: Time 280920, Note Name: G3
Note ON: Time 281040, Note Name: D#4, Velocity: 61
Note ON: Time 281040, Note Name: A#3, Velocity: 48
Note ON: Time 281040, Note Name: G3, Velocity: 48
Note ON: Time 281040, Note Name: D#3, Velocity: 48
Note OFF: Time 281160, Note Name: D#3
Note OFF: Time 281160, Note Name: D#4
Note OFF: Time 281160, Note Name: A#3
Note OFF: Time 281160, Note Name: G3
Note ON: Time 281280, Note Name: D#4, Velocity: 61
Note ON: Time 281280, Note Name: A#3, Velocity: 48
Note ON: Time 281280, Note Name: G3, Velocity: 48
Note ON: Time 281280, Note Name: D#3, Velocity: 48
Note OFF: Time 281400, Note Name: D#3
Note OFF: Time 281400, Note Name: D#4
Note OFF: Time 281400, Note Name: A#3
Note OFF: Time 281400, Note Name: G3
Note ON: Time 281520, Note Name: A#3, Velocity: 61
Note ON: Time 281520, Note Name: G#3, Velocity: 48
Note ON: Time 281520, Note Name: F3, Velocity: 48
Note ON: Time 281520, Note Name: D#3, Velocity: 48
Note OFF: Time 281640, Note Name: D#3
Note OFF: Time 281640, Note Name: A#3
Note OFF: Time 281640, Note Name: G#3
Note OFF: Time 281640, Note Name: F3
Note ON: Time 281760, Note Name: A#3, Velocity: 61
Note ON: Time 281760, Note Name: G#3, Velocity: 48
Note ON: Time 281760, Note Name: F3, Velocity: 48
Note ON: Time 281760, Note Name: D#3, Velocity: 48
Note OFF: Time 281880, Note Name: D#3
Note OFF: Time 281880, Note Name: A#3
Note OFF: Time 281880, Note Name: G#3
Note OFF: Time 281880, Note Name: F3
Note ON: Time 282000, Note Name: A#3, Velocity: 61
Note ON: Time 282000, Note Name: G#3, Velocity: 48
Note ON: Time 282000, Note Name: F3, Velocity: 48
Note ON: Time 282000, Note Name: D#3, Velocity: 48
Note OFF: Time 282120, Note Name: D#3
Note OFF: Time 282120, Note Name: A#3
Note OFF: Time 282120, Note Name: G#3
Note OFF: Time 282120, Note Name: F3
Note ON: Time 282240, Note Name: D#2, Velocity: 73
Note OFF: Time 282360, Note Name: D#2
Note ON: Time 282480, Note Name: G3, Velocity: 62
Note ON: Time 282480, Note Name: D#3, Velocity: 49
Note OFF: Time 282600, Note Name: D#3
Note OFF: Time 282600, Note Name: G3
Note ON: Time 282720, Note Name: A#3, Velocity: 62
Note ON: Time 282720, Note Name: G3, Velocity: 49
Note ON: Time 282720, Note Name: D#3, Velocity: 49
Note OFF: Time 282840, Note Name: D#3
Note OFF: Time 282840, Note Name: G3
Note OFF: Time 282840, Note Name: A#3
Note ON: Time 282960, Note Name: D#4, Velocity: 62
Note ON: Time 282960, Note Name: A#3, Velocity: 49
Note ON: Time 282960, Note Name: G3, Velocity: 49
Note ON: Time 282960, Note Name: D#3, Velocity: 49
Note OFF: Time 283080, Note Name: D#3
Note OFF: Time 283080, Note Name: D#4
Note OFF: Time 283080, Note Name: A#3
Note OFF: Time 283080, Note Name: G3
Note ON: Time 283200, Note Name: D#4, Velocity: 62
Note ON: Time 283200, Note Name: A#3, Velocity: 49
Note ON: Time 283200, Note Name: G3, Velocity: 49
Note ON: Time 283200, Note Name: D#3, Velocity: 49
Note OFF: Time 283320, Note Name: D#3
Note OFF: Time 283320, Note Name: D#4
Note OFF: Time 283320, Note Name: A#3
Note OFF: Time 283320, Note Name: G3
Note ON: Time 283440, Note Name: D#4, Velocity: 62
Note ON: Time 283440, Note Name: A#3, Velocity: 49
Note ON: Time 283440, Note Name: G3, Velocity: 49
Note ON: Time 283440, Note Name: D#3, Velocity: 49
Note OFF: Time 283560, Note Name: D#3
Note OFF: Time 283560, Note Name: D#4
Note OFF: Time 283560, Note Name: A#3
Note OFF: Time 283560, Note Name: G3
Note ON: Time 283680, Note Name: D#4, Velocity: 70
Note ON: Time 283680, Note Name: A#3, Velocity: 56
Note ON: Time 283680, Note Name: G3, Velocity: 56
Note ON: Time 283680, Note Name: D#3, Velocity: 56
Note OFF: Time 283800, Note Name: D#3
Note OFF: Time 283800, Note Name: D#4
Note OFF: Time 283800, Note Name: A#3
Note OFF: Time 283800, Note Name: G3
Note ON: Time 283920, Note Name: D#4, Velocity: 62
Note ON: Time 283920, Note Name: A#3, Velocity: 49
Note ON: Time 283920, Note Name: G3, Velocity: 49
Note ON: Time 283920, Note Name: D#3, Velocity: 49
Note OFF: Time 284040, Note Name: D#3
Note OFF: Time 284040, Note Name: D#4
Note OFF: Time 284040, Note Name: A#3
Note OFF: Time 284040, Note Name: G3
Note ON: Time 284160, Note Name: D#4, Velocity: 62
Note ON: Time 284160, Note Name: A#3, Velocity: 49
Note ON: Time 284160, Note Name: G3, Velocity: 49
Note ON: Time 284160, Note Name: D#3, Velocity: 49
Note OFF: Time 284280, Note Name: D#3
Note OFF: Time 284280, Note Name: D#4
Note OFF: Time 284280, Note Name: A#3
Note OFF: Time 284280, Note Name: G3
Note ON: Time 284400, Note Name: C#4, Velocity: 62
Note ON: Time 284400, Note Name: A#3, Velocity: 49
Note ON: Time 284400, Note Name: G3, Velocity: 49
Note ON: Time 284400, Note Name: D#3, Velocity: 49
Note OFF: Time 284520, Note Name: D#3
Note OFF: Time 284520, Note Name: C#4
Note OFF: Time 284520, Note Name: A#3
Note OFF: Time 284520, Note Name: G3
Note ON: Time 284640, Note Name: C#4, Velocity: 62
Note ON: Time 284640, Note Name: A#3, Velocity: 49
Note ON: Time 284640, Note Name: G3, Velocity: 49
Note ON: Time 284640, Note Name: D#3, Velocity: 49
Note OFF: Time 284760, Note Name: D#3
Note OFF: Time 284760, Note Name: C#4
Note OFF: Time 284760, Note Name: A#3
Note OFF: Time 284760, Note Name: G3
Note ON: Time 284880, Note Name: C#4, Velocity: 62
Note ON: Time 284880, Note Name: A#3, Velocity: 49
Note ON: Time 284880, Note Name: G3, Velocity: 49
Note ON: Time 284880, Note Name: D#3, Velocity: 49
Note OFF: Time 285000, Note Name: D#3
Note OFF: Time 285000, Note Name: C#4
Note OFF: Time 285000, Note Name: A#3
Note OFF: Time 285000, Note Name: G3
Note ON: Time 285120, Note Name: C#4, Velocity: 72
Note ON: Time 285120, Note Name: A#3, Velocity: 57
Note ON: Time 285120, Note Name: G3, Velocity: 57
Note ON: Time 285120, Note Name: D#3, Velocity: 57
Note OFF: Time 285240, Note Name: D#3
Note OFF: Time 285240, Note Name: C#4
Note OFF: Time 285240, Note Name: A#3
Note OFF: Time 285240, Note Name: G3
Note ON: Time 285360, Note Name: C#4, Velocity: 62
Note ON: Time 285360, Note Name: A#3, Velocity: 49
Note ON: Time 285360, Note Name: G3, Velocity: 49
Note ON: Time 285360, Note Name: D#3, Velocity: 49
Note OFF: Time 285480, Note Name: D#3
Note OFF: Time 285480, Note Name: C#4
Note OFF: Time 285480, Note Name: A#3
Note OFF: Time 285480, Note Name: G3
Note ON: Time 285600, Note Name: C#4, Velocity: 62
Note ON: Time 285600, Note Name: A#3, Velocity: 49
Note ON: Time 285600, Note Name: G3, Velocity: 49
Note ON: Time 285600, Note Name: D#3, Velocity: 49
Note OFF: Time 285720, Note Name: D#3
Note OFF: Time 285720, Note Name: C#4
Note OFF: Time 285720, Note Name: A#3
Note OFF: Time 285720, Note Name: G3
Note ON: Time 285840, Note Name: C#4, Velocity: 62
Note ON: Time 285840, Note Name: A#3, Velocity: 49
Note ON: Time 285840, Note Name: G3, Velocity: 49
Note ON: Time 285840, Note Name: D#3, Velocity: 49
Note OFF: Time 285960, Note Name: D#3
Note OFF: Time 285960, Note Name: C#4
Note OFF: Time 285960, Note Name: A#3
Note OFF: Time 285960, Note Name: G3
Note ON: Time 286080, Note Name: C#4, Velocity: 62
Note ON: Time 286080, Note Name: A#3, Velocity: 49
Note ON: Time 286080, Note Name: G3, Velocity: 49
Note ON: Time 286080, Note Name: D#3, Velocity: 49
Note OFF: Time 286200, Note Name: D#3
Note OFF: Time 286200, Note Name: C#4
Note OFF: Time 286200, Note Name: A#3
Note OFF: Time 286200, Note Name: G3
Note ON: Time 286320, Note Name: C#4, Velocity: 62
Note ON: Time 286320, Note Name: A#3, Velocity: 49
Note ON: Time 286320, Note Name: G3, Velocity: 49
Note ON: Time 286320, Note Name: D#3, Velocity: 49
Note OFF: Time 286440, Note Name: D#3
Note OFF: Time 286440, Note Name: C#4
Note OFF: Time 286440, Note Name: A#3
Note OFF: Time 286440, Note Name: G3
Note ON: Time 286560, Note Name: A#3, Velocity: 55
Note ON: Time 286560, Note Name: C#4, Velocity: 69
Note ON: Time 286560, Note Name: G3, Velocity: 55
Note ON: Time 286560, Note Name: D#3, Velocity: 55
Note OFF: Time 286680, Note Name: D#3
Note OFF: Time 286680, Note Name: A#3
Note OFF: Time 286680, Note Name: C#4
Note OFF: Time 286680, Note Name: G3
Note ON: Time 286800, Note Name: A#3, Velocity: 48
Note ON: Time 286800, Note Name: C#4, Velocity: 61
Note ON: Time 286800, Note Name: G3, Velocity: 48
Note ON: Time 286800, Note Name: D#3, Velocity: 48
Note OFF: Time 286920, Note Name: D#3
Note OFF: Time 286920, Note Name: A#3
Note OFF: Time 286920, Note Name: C#4
Note OFF: Time 286920, Note Name: G3
Note ON: Time 287040, Note Name: G#3, Velocity: 48
Note ON: Time 287040, Note Name: C4, Velocity: 61
Note ON: Time 287040, Note Name: D#3, Velocity: 48
Note OFF: Time 287160, Note Name: D#3
Note OFF: Time 287160, Note Name: C4
Note OFF: Time 287160, Note Name: G#3
Note ON: Time 287280, Note Name: D#3, Velocity: 48
Note ON: Time 287280, Note Name: F3, Velocity: 48
Note ON: Time 287280, Note Name: B3, Velocity: 61
Note ON: Time 287280, Note Name: G#3, Velocity: 48
Note OFF: Time 287400, Note Name: G#3
Note OFF: Time 287400, Note Name: D#3
Note OFF: Time 287400, Note Name: F3
Note OFF: Time 287400, Note Name: B3
Note ON: Time 287520, Note Name: D#3, Velocity: 48
Note ON: Time 287520, Note Name: B3, Velocity: 61
Note ON: Time 287520, Note Name: G#3, Velocity: 48
Note ON: Time 287520, Note Name: F3, Velocity: 48
Note OFF: Time 287640, Note Name: F3
Note OFF: Time 287640, Note Name: D#3
Note OFF: Time 287640, Note Name: B3
Note OFF: Time 287640, Note Name: G#3
Note ON: Time 287760, Note Name: D#3, Velocity: 48
Note ON: Time 287760, Note Name: A#3, Velocity: 61
Note ON: Time 287760, Note Name: G#3, Velocity: 48
Note ON: Time 287760, Note Name: F3, Velocity: 48
Note OFF: Time 287880, Note Name: F3
Note OFF: Time 287880, Note Name: D#3
Note OFF: Time 287880, Note Name: A#3
Note OFF: Time 287880, Note Name: G#3
Note ON: Time 288000, Note Name: D#2, Velocity: 80
Note ON: Time 288000, Note Name: D#3, Velocity: 80
Note OFF: Time 288240, Note Name: D#3
Note OFF: Time 288240, Note Name: D#2
Note ON: Time 288720, Note Name: D#4, Velocity: 75
Note OFF: Time 288960, Note Name: D#4
Note ON: Time 289440, Note Name: F#4, Velocity: 81
Note OFF: Time 289680, Note Name: F#4
Note ON: Time 290160, Note Name: B4, Velocity: 74
Note OFF: Time 290400, Note Name: B4
Note ON: Time 290880, Note Name: F#4, Velocity: 79
Note OFF: Time 291120, Note Name: F#4
Note ON: Time 291600, Note Name: D#4, Velocity: 74
Note OFF: Time 291840, Note Name: D#4
Note ON: Time 292320, Note Name: B3, Velocity: 78
Note OFF: Time 292560, Note Name: B3
Note ON: Time 293040, Note Name: F#3, Velocity: 70
Note OFF: Time 293280, Note Name: F#3
Note ON: Time 293760, Note Name: D2, Velocity: 80
Note ON: Time 293760, Note Name: D3, Velocity: 80
Note OFF: Time 294000, Note Name: D3
Note OFF: Time 294000, Note Name: D2
Note ON: Time 294480, Note Name: D4, Velocity: 75
Note OFF: Time 294720, Note Name: D4
Note ON: Time 295200, Note Name: F4, Velocity: 81
Note OFF: Time 295440, Note Name: F4
Note ON: Time 295920, Note Name: A#4, Velocity: 74
Note OFF: Time 296160, Note Name: A#4
Note ON: Time 296640, Note Name: F4, Velocity: 79
Note OFF: Time 296880, Note Name: F4
Note ON: Time 297360, Note Name: D4, Velocity: 74
Note OFF: Time 297600, Note Name: D4
Note ON: Time 298080, Note Name: A#3, Velocity: 78
Note OFF: Time 298320, Note Name: A#3
Note ON: Time 298800, Note Name: F3, Velocity: 70
Note OFF: Time 299040, Note Name: F3
Note ON: Time 299520, Note Name: D#4, Velocity: 34
Note ON: Time 299520, Note Name: F#4, Velocity: 34
Note ON: Time 299520, Note Name: B4, Velocity: 40
Note OFF: Time 299640, Note Name: B4
Note OFF: Time 299640, Note Name: F#4
Note OFF: Time 299640, Note Name: D#4
Note ON: Time 299760, Note Name: D#4, Velocity: 29
Note ON: Time 299760, Note Name: F#4, Velocity: 29
Note ON: Time 299760, Note Name: B4, Velocity: 35
Note OFF: Time 299880, Note Name: B4
Note OFF: Time 299880, Note Name: F#4
Note OFF: Time 299880, Note Name: D#4
Note ON: Time 300000, Note Name: D#4, Velocity: 29
Note ON: Time 300000, Note Name: F#4, Velocity: 29
Note ON: Time 300000, Note Name: B4, Velocity: 35
Note OFF: Time 300120, Note Name: B4
Note OFF: Time 300120, Note Name: F#4
Note OFF: Time 300120, Note Name: D#4
Note ON: Time 300240, Note Name: D#4, Velocity: 29
Note ON: Time 300240, Note Name: F#4, Velocity: 29
Note ON: Time 300240, Note Name: B4, Velocity: 35
Note OFF: Time 300360, Note Name: B4
Note OFF: Time 300360, Note Name: F#4
Note OFF: Time 300360, Note Name: D#4
Note ON: Time 300480, Note Name: D#4, Velocity: 29
Note ON: Time 300480, Note Name: F#4, Velocity: 29
Note ON: Time 300480, Note Name: B4, Velocity: 35
Note OFF: Time 300600, Note Name: B4
Note OFF: Time 300600, Note Name: F#4
Note OFF: Time 300600, Note Name: D#4
Note ON: Time 300720, Note Name: D#4, Velocity: 29
Note ON: Time 300720, Note Name: F#4, Velocity: 29
Note ON: Time 300720, Note Name: B4, Velocity: 35
Note OFF: Time 300840, Note Name: B4
Note OFF: Time 300840, Note Name: F#4
Note OFF: Time 300840, Note Name: D#4
Note ON: Time 300960, Note Name: D#4, Velocity: 34
Note ON: Time 300960, Note Name: F#4, Velocity: 34
Note ON: Time 300960, Note Name: B4, Velocity: 40
Note OFF: Time 301080, Note Name: B4
Note OFF: Time 301080, Note Name: F#4
Note OFF: Time 301080, Note Name: D#4
Note ON: Time 301200, Note Name: D#4, Velocity: 29
Note ON: Time 301200, Note Name: F#4, Velocity: 29
Note ON: Time 301200, Note Name: B4, Velocity: 35
Note OFF: Time 301320, Note Name: B4
Note OFF: Time 301320, Note Name: F#4
Note OFF: Time 301320, Note Name: D#4
Note ON: Time 301440, Note Name: D#4, Velocity: 29
Note ON: Time 301440, Note Name: F#4, Velocity: 29
Note ON: Time 301440, Note Name: B4, Velocity: 35
Note OFF: Time 301560, Note Name: B4
Note OFF: Time 301560, Note Name: F#4
Note OFF: Time 301560, Note Name: D#4
Note ON: Time 301680, Note Name: D#4, Velocity: 29
Note ON: Time 301680, Note Name: F#4, Velocity: 29
Note ON: Time 301680, Note Name: B4, Velocity: 35
Note OFF: Time 301800, Note Name: B4
Note OFF: Time 301800, Note Name: F#4
Note OFF: Time 301800, Note Name: D#4
Note ON: Time 301920, Note Name: D#4, Velocity: 29
Note ON: Time 301920, Note Name: F#4, Velocity: 29
Note ON: Time 301920, Note Name: B4, Velocity: 35
Note OFF: Time 302040, Note Name: B4
Note OFF: Time 302040, Note Name: F#4
Note OFF: Time 302040, Note Name: D#4
Note ON: Time 302160, Note Name: D#4, Velocity: 29
Note ON: Time 302160, Note Name: F#4, Velocity: 29
Note ON: Time 302160, Note Name: B4, Velocity: 35
Note OFF: Time 302280, Note Name: B4
Note OFF: Time 302280, Note Name: F#4
Note OFF: Time 302280, Note Name: D#4
Note ON: Time 302400, Note Name: D#4, Velocity: 34
Note ON: Time 302400, Note Name: F#4, Velocity: 34
Note ON: Time 302400, Note Name: B4, Velocity: 40
Note OFF: Time 302520, Note Name: B4
Note OFF: Time 302520, Note Name: F#4
Note OFF: Time 302520, Note Name: D#4
Note ON: Time 302640, Note Name: D#4, Velocity: 29
Note ON: Time 302640, Note Name: F#4, Velocity: 29
Note ON: Time 302640, Note Name: B4, Velocity: 35
Note OFF: Time 302760, Note Name: B4
Note OFF: Time 302760, Note Name: F#4
Note OFF: Time 302760, Note Name: D#4
Note ON: Time 302880, Note Name: D#4, Velocity: 29
Note ON: Time 302880, Note Name: F#4, Velocity: 29
Note ON: Time 302880, Note Name: B4, Velocity: 35
Note OFF: Time 303000, Note Name: B4
Note OFF: Time 303000, Note Name: F#4
Note OFF: Time 303000, Note Name: D#4
Note ON: Time 303120, Note Name: D#4, Velocity: 29
Note ON: Time 303120, Note Name: F#4, Velocity: 29
Note ON: Time 303120, Note Name: B4, Velocity: 35
Note OFF: Time 303240, Note Name: B4
Note OFF: Time 303240, Note Name: F#4
Note OFF: Time 303240, Note Name: D#4
Note ON: Time 303360, Note Name: D#4, Velocity: 29
Note ON: Time 303360, Note Name: F#4, Velocity: 29
Note ON: Time 303360, Note Name: B4, Velocity: 35
Note OFF: Time 303480, Note Name: B4
Note OFF: Time 303480, Note Name: F#4
Note OFF: Time 303480, Note Name: D#4
Note ON: Time 303600, Note Name: D#4, Velocity: 29
Note ON: Time 303600, Note Name: F#4, Velocity: 29
Note ON: Time 303600, Note Name: B4, Velocity: 35
Note OFF: Time 303720, Note Name: B4
Note OFF: Time 303720, Note Name: F#4
Note OFF: Time 303720, Note Name: D#4
Note ON: Time 303840, Note Name: D#4, Velocity: 34
Note ON: Time 303840, Note Name: F#4, Velocity: 34
Note ON: Time 303840, Note Name: B4, Velocity: 40
Note OFF: Time 303960, Note Name: B4
Note OFF: Time 303960, Note Name: F#4
Note OFF: Time 303960, Note Name: D#4
Note ON: Time 304080, Note Name: D#4, Velocity: 29
Note ON: Time 304080, Note Name: F#4, Velocity: 29
Note ON: Time 304080, Note Name: B4, Velocity: 35
Note OFF: Time 304200, Note Name: B4
Note OFF: Time 304200, Note Name: F#4
Note OFF: Time 304200, Note Name: D#4
Note ON: Time 304320, Note Name: D#4, Velocity: 29
Note ON: Time 304320, Note Name: F#4, Velocity: 29
Note ON: Time 304320, Note Name: B4, Velocity: 35
Note OFF: Time 304440, Note Name: B4
Note OFF: Time 304440, Note Name: F#4
Note OFF: Time 304440, Note Name: D#4
Note ON: Time 304560, Note Name: D#4, Velocity: 29
Note ON: Time 304560, Note Name: F#4, Velocity: 29
Note ON: Time 304560, Note Name: B4, Velocity: 35
Note OFF: Time 304680, Note Name: B4
Note OFF: Time 304680, Note Name: F#4
Note OFF: Time 304680, Note Name: D#4
Note ON: Time 304800, Note Name: D#4, Velocity: 29
Note ON: Time 304800, Note Name: F#4, Velocity: 29
Note ON: Time 304800, Note Name: B4, Velocity: 35
Note OFF: Time 304920, Note Name: B4
Note OFF: Time 304920, Note Name: F#4
Note OFF: Time 304920, Note Name: D#4
Note ON: Time 305040, Note Name: D#4, Velocity: 29
Note ON: Time 305040, Note Name: F#4, Velocity: 29
Note ON: Time 305040, Note Name: A4, Velocity: 35
Note OFF: Time 305160, Note Name: A4
Note OFF: Time 305160, Note Name: F#4
Note OFF: Time 305160, Note Name: D#4
Note ON: Time 305280, Note Name: D4, Velocity: 34
Note ON: Time 305280, Note Name: F4, Velocity: 34
Note ON: Time 305280, Note Name: A#4, Velocity: 40
Note OFF: Time 305400, Note Name: A#4
Note OFF: Time 305400, Note Name: F4
Note OFF: Time 305400, Note Name: D4
Note ON: Time 305520, Note Name: D4, Velocity: 29
Note ON: Time 305520, Note Name: F4, Velocity: 29
Note ON: Time 305520, Note Name: A#4, Velocity: 35
Note OFF: Time 305640, Note Name: A#4
Note OFF: Time 305640, Note Name: F4
Note OFF: Time 305640, Note Name: D4
Note ON: Time 305760, Note Name: D4, Velocity: 29
Note ON: Time 305760, Note Name: F4, Velocity: 29
Note ON: Time 305760, Note Name: A#4, Velocity: 35
Note OFF: Time 305880, Note Name: A#4
Note OFF: Time 305880, Note Name: F4
Note OFF: Time 305880, Note Name: D4
Note ON: Time 306000, Note Name: D4, Velocity: 29
Note ON: Time 306000, Note Name: F4, Velocity: 29
Note ON: Time 306000, Note Name: A#4, Velocity: 35
Note OFF: Time 306120, Note Name: A#4
Note OFF: Time 306120, Note Name: F4
Note OFF: Time 306120, Note Name: D4
Note ON: Time 306240, Note Name: D4, Velocity: 29
Note ON: Time 306240, Note Name: F4, Velocity: 29
Note ON: Time 306240, Note Name: A#4, Velocity: 35
Note OFF: Time 306360, Note Name: A#4
Note OFF: Time 306360, Note Name: F4
Note OFF: Time 306360, Note Name: D4
Note ON: Time 306480, Note Name: D4, Velocity: 29
Note ON: Time 306480, Note Name: F4, Velocity: 29
Note ON: Time 306480, Note Name: A#4, Velocity: 35
Note OFF: Time 306600, Note Name: A#4
Note OFF: Time 306600, Note Name: F4
Note OFF: Time 306600, Note Name: D4
Note ON: Time 306720, Note Name: D4, Velocity: 34
Note ON: Time 306720, Note Name: F4, Velocity: 34
Note ON: Time 306720, Note Name: A#4, Velocity: 40
Note OFF: Time 306840, Note Name: A#4
Note OFF: Time 306840, Note Name: F4
Note OFF: Time 306840, Note Name: D4
Note ON: Time 306960, Note Name: D4, Velocity: 29
Note ON: Time 306960, Note Name: F4, Velocity: 29
Note ON: Time 306960, Note Name: A#4, Velocity: 35
Note OFF: Time 307080, Note Name: A#4
Note OFF: Time 307080, Note Name: F4
Note OFF: Time 307080, Note Name: D4
Note ON: Time 307200, Note Name: D4, Velocity: 29
Note ON: Time 307200, Note Name: F4, Velocity: 29
Note ON: Time 307200, Note Name: A#4, Velocity: 35
Note OFF: Time 307320, Note Name: A#4
Note OFF: Time 307320, Note Name: F4
Note OFF: Time 307320, Note Name: D4
Note ON: Time 307440, Note Name: D4, Velocity: 29
Note ON: Time 307440, Note Name: F4, Velocity: 29
Note ON: Time 307440, Note Name: A#4, Velocity: 35
Note OFF: Time 307560, Note Name: A#4
Note OFF: Time 307560, Note Name: F4
Note OFF: Time 307560, Note Name: D4
Note ON: Time 307680, Note Name: D4, Velocity: 29
Note ON: Time 307680, Note Name: F4, Velocity: 29
Note ON: Time 307680, Note Name: A#4, Velocity: 35
Note OFF: Time 307800, Note Name: A#4
Note OFF: Time 307800, Note Name: F4
Note OFF: Time 307800, Note Name: D4
Note ON: Time 307920, Note Name: D4, Velocity: 29
Note ON: Time 307920, Note Name: F4, Velocity: 29
Note ON: Time 307920, Note Name: A#4, Velocity: 35
Note OFF: Time 308040, Note Name: A#4
Note OFF: Time 308040, Note Name: F4
Note OFF: Time 308040, Note Name: D4
Note ON: Time 308160, Note Name: D4, Velocity: 34
Note ON: Time 308160, Note Name: F4, Velocity: 34
Note ON: Time 308160, Note Name: A#4, Velocity: 40
Note OFF: Time 308280, Note Name: A#4
Note OFF: Time 308280, Note Name: F4
Note OFF: Time 308280, Note Name: D4
Note ON: Time 308400, Note Name: D4, Velocity: 29
Note ON: Time 308400, Note Name: F4, Velocity: 29
Note ON: Time 308400, Note Name: A#4, Velocity: 35
Note OFF: Time 308520, Note Name: A#4
Note OFF: Time 308520, Note Name: F4
Note OFF: Time 308520, Note Name: D4
Note ON: Time 308640, Note Name: D4, Velocity: 29
Note ON: Time 308640, Note Name: F4, Velocity: 29
Note ON: Time 308640, Note Name: A#4, Velocity: 35
Note OFF: Time 308760, Note Name: A#4
Note OFF: Time 308760, Note Name: F4
Note OFF: Time 308760, Note Name: D4
Note ON: Time 308880, Note Name: D4, Velocity: 29
Note ON: Time 308880, Note Name: F4, Velocity: 29
Note ON: Time 308880, Note Name: A#4, Velocity: 35
Note OFF: Time 309000, Note Name: A#4
Note OFF: Time 309000, Note Name: F4
Note OFF: Time 309000, Note Name: D4
Note ON: Time 309120, Note Name: D4, Velocity: 29
Note ON: Time 309120, Note Name: F4, Velocity: 29
Note ON: Time 309120, Note Name: A#4, Velocity: 35
Note OFF: Time 309240, Note Name: A#4
Note OFF: Time 309240, Note Name: F4
Note OFF: Time 309240, Note Name: D4
Note ON: Time 309360, Note Name: D4, Velocity: 29
Note ON: Time 309360, Note Name: F4, Velocity: 29
Note ON: Time 309360, Note Name: A#4, Velocity: 35
Note OFF: Time 309480, Note Name: A#4
Note OFF: Time 309480, Note Name: F4
Note OFF: Time 309480, Note Name: D4
Note ON: Time 309600, Note Name: D4, Velocity: 34
Note ON: Time 309600, Note Name: F4, Velocity: 34
Note ON: Time 309600, Note Name: A#4, Velocity: 40
Note OFF: Time 309720, Note Name: A#4
Note OFF: Time 309720, Note Name: F4
Note OFF: Time 309720, Note Name: D4
Note ON: Time 309840, Note Name: D4, Velocity: 29
Note ON: Time 309840, Note Name: F4, Velocity: 29
Note ON: Time 309840, Note Name: A#4, Velocity: 35
Note OFF: Time 309960, Note Name: A#4
Note OFF: Time 309960, Note Name: F4
Note OFF: Time 309960, Note Name: D4
Note ON: Time 310080, Note Name: D4, Velocity: 29
Note ON: Time 310080, Note Name: F4, Velocity: 29
Note ON: Time 310080, Note Name: A#4, Velocity: 35
Note OFF: Time 310200, Note Name: A#4
Note OFF: Time 310200, Note Name: F4
Note OFF: Time 310200, Note Name: D4
Note ON: Time 310320, Note Name: D4, Velocity: 29
Note ON: Time 310320, Note Name: F4, Velocity: 29
Note ON: Time 310320, Note Name: A#4, Velocity: 35
Note OFF: Time 310560, Note Name: A#4
Note OFF: Time 310560, Note Name: F4
Note OFF: Time 310560, Note Name: D4
Note ON: Time 310560, Note Name: A#3, Velocity: 35
Note OFF: Time 310800, Note Name: A#3
Note ON: Time 310800, Note Name: G#3, Velocity: 35
Note OFF: Time 311040, Note Name: G#3
Note ON: Time 311040, Note Name: D#3, Velocity: 40
Note ON: Time 311040, Note Name: G3, Velocity: 40
Note OFF: Time 311520, Note Name: G3
Note ON: Time 311520, Note Name: C4, Velocity: 33
Note OFF: Time 311760, Note Name: C4
Note ON: Time 311760, Note Name: A#3, Velocity: 42
Note OFF: Time 312240, Note Name: A#3
Note ON: Time 312240, Note Name: G3, Velocity: 39
Note OFF: Time 312480, Note Name: G3
Note OFF: Time 312480, Note Name: D#3
Note ON: Time 312480, Note Name: A#2, Velocity: 42
Note ON: Time 312480, Note Name: F3, Velocity: 42
Note OFF: Time 312960, Note Name: F3
Note ON: Time 312960, Note Name: C4, Velocity: 36
Note OFF: Time 313200, Note Name: C4
Note ON: Time 313200, Note Name: A#3, Velocity: 45
Note OFF: Time 313680, Note Name: A#3
Note ON: Time 313680, Note Name: F3, Velocity: 41
Note OFF: Time 313920, Note Name: F3
Note OFF: Time 313920, Note Name: A#2
Note ON: Time 313920, Note Name: D#3, Velocity: 46
Note ON: Time 313920, Note Name: G3, Velocity: 46
Note OFF: Time 314400, Note Name: G3
Note ON: Time 314400, Note Name: C4, Velocity: 37
Note OFF: Time 314640, Note Name: C4
Note ON: Time 314640, Note Name: A#3, Velocity: 45
Note OFF: Time 315120, Note Name: A#3
Note ON: Time 315120, Note Name: G3, Velocity: 40
Note OFF: Time 315360, Note Name: G3
Note OFF: Time 315360, Note Name: D#3
Note ON: Time 315360, Note Name: A#2, Velocity: 43
Note ON: Time 315360, Note Name: F3, Velocity: 43
Note OFF: Time 315840, Note Name: F3
Note ON: Time 315840, Note Name: C4, Velocity: 34
Note OFF: Time 316080, Note Name: C4
Note ON: Time 316080, Note Name: A#3, Velocity: 42
Note OFF: Time 316560, Note Name: A#3
Note ON: Time 316560, Note Name: F3, Velocity: 37
Note OFF: Time 316800, Note Name: F3
Note OFF: Time 316800, Note Name: A#2
Note ON: Time 316800, Note Name: A#3, Velocity: 40
Note ON: Time 316800, Note Name: D#3, Velocity: 34
Note OFF: Time 316920, Note Name: D#3
Note OFF: Time 316920, Note Name: A#3
Note ON: Time 317040, Note Name: G3, Velocity: 29
Note ON: Time 317040, Note Name: A#3, Velocity: 29
Note ON: Time 317040, Note Name: D#4, Velocity: 35
Note OFF: Time 317160, Note Name: D#4
Note OFF: Time 317160, Note Name: A#3
Note OFF: Time 317160, Note Name: G3
Note ON: Time 317280, Note Name: G3, Velocity: 29
Note ON: Time 317280, Note Name: A#3, Velocity: 29
Note ON: Time 317280, Note Name: D#4, Velocity: 35
Note OFF: Time 317400, Note Name: D#4
Note OFF: Time 317400, Note Name: A#3
Note OFF: Time 317400, Note Name: G3
Note ON: Time 317520, Note Name: G3, Velocity: 29
Note ON: Time 317520, Note Name: A#3, Velocity: 29
Note ON: Time 317520, Note Name: D#4, Velocity: 35
Note OFF: Time 317640, Note Name: D#4
Note OFF: Time 317640, Note Name: A#3
Note OFF: Time 317640, Note Name: G3
Note ON: Time 317760, Note Name: G3, Velocity: 29
Note ON: Time 317760, Note Name: A#3, Velocity: 29
Note ON: Time 317760, Note Name: D#4, Velocity: 35
Note OFF: Time 317880, Note Name: D#4
Note OFF: Time 317880, Note Name: A#3
Note OFF: Time 317880, Note Name: G3
Note ON: Time 318000, Note Name: G3, Velocity: 29
Note ON: Time 318000, Note Name: B3, Velocity: 29
Note ON: Time 318000, Note Name: D#4, Velocity: 35
Note OFF: Time 318120, Note Name: D#4
Note OFF: Time 318120, Note Name: B3
Note OFF: Time 318120, Note Name: G3
Note ON: Time 318480, Note Name: G#3, Velocity: 29
Note ON: Time 318480, Note Name: C4, Velocity: 29
Note ON: Time 318480, Note Name: D#4, Velocity: 35
Note OFF: Time 318600, Note Name: D#4
Note OFF: Time 318600, Note Name: C4
Note OFF: Time 318600, Note Name: G#3
Note ON: Time 318720, Note Name: G#3, Velocity: 29
Note ON: Time 318720, Note Name: C4, Velocity: 29
Note ON: Time 318720, Note Name: D#4, Velocity: 35
Note OFF: Time 318840, Note Name: D#4
Note OFF: Time 318840, Note Name: C4
Note OFF: Time 318840, Note Name: G#3
Note ON: Time 318960, Note Name: G#3, Velocity: 29
Note ON: Time 318960, Note Name: C4, Velocity: 29
Note ON: Time 318960, Note Name: D#4, Velocity: 35
Note OFF: Time 319080, Note Name: D#4
Note OFF: Time 319080, Note Name: C4
Note OFF: Time 319080, Note Name: G#3
Note ON: Time 319200, Note Name: G#3, Velocity: 29
Note ON: Time 319200, Note Name: C4, Velocity: 29
Note ON: Time 319200, Note Name: D#4, Velocity: 35
Note OFF: Time 319320, Note Name: D#4
Note OFF: Time 319320, Note Name: C4
Note OFF: Time 319320, Note Name: G#3
Note ON: Time 319440, Note Name: A3, Velocity: 29
Note ON: Time 319440, Note Name: D#4, Velocity: 29
Note ON: Time 319440, Note Name: F4, Velocity: 35
Note OFF: Time 319560, Note Name: F4
Note OFF: Time 319560, Note Name: D#4
Note OFF: Time 319560, Note Name: A3
Note ON: Time 319920, Note Name: A#3, Velocity: 29
Note ON: Time 319920, Note Name: D#4, Velocity: 29
Note ON: Time 319920, Note Name: G4, Velocity: 35
Note OFF: Time 320040, Note Name: G4
Note OFF: Time 320040, Note Name: D#4
Note OFF: Time 320040, Note Name: A#3
Note ON: Time 320160, Note Name: A#3, Velocity: 29
Note ON: Time 320160, Note Name: D#4, Velocity: 29
Note ON: Time 320160, Note Name: G4, Velocity: 35
Note OFF: Time 320280, Note Name: G4
Note OFF: Time 320280, Note Name: D#4
Note OFF: Time 320280, Note Name: A#3
Note ON: Time 320400, Note Name: A#3, Velocity: 29
Note ON: Time 320400, Note Name: D#4, Velocity: 29
Note ON: Time 320400, Note Name: G4, Velocity: 35
Note OFF: Time 320520, Note Name: G4
Note OFF: Time 320520, Note Name: D#4
Note OFF: Time 320520, Note Name: A#3
Note ON: Time 320640, Note Name: A#3, Velocity: 29
Note ON: Time 320640, Note Name: D#4, Velocity: 29
Note ON: Time 320640, Note Name: G4, Velocity: 35
Note OFF: Time 320760, Note Name: G4
Note OFF: Time 320760, Note Name: D#4
Note OFF: Time 320760, Note Name: A#3
Note ON: Time 320880, Note Name: A#3, Velocity: 29
Note ON: Time 320880, Note Name: D#4, Velocity: 29
Note ON: Time 320880, Note Name: G4, Velocity: 35
Note OFF: Time 321000, Note Name: G4
Note OFF: Time 321000, Note Name: D#4
Note OFF: Time 321000, Note Name: A#3
Note ON: Time 321120, Note Name: G4, Velocity: 35
Note ON: Time 321120, Note Name: A#3, Velocity: 29
Note ON: Time 321120, Note Name: D#4, Velocity: 29
Note OFF: Time 321240, Note Name: D#4
Note OFF: Time 321240, Note Name: A#3
Note OFF: Time 321240, Note Name: G4
Note ON: Time 321360, Note Name: A#3, Velocity: 29
Note ON: Time 321360, Note Name: D#4, Velocity: 29
Note ON: Time 321360, Note Name: G4, Velocity: 35
Note OFF: Time 321480, Note Name: G4
Note OFF: Time 321480, Note Name: D#4
Note OFF: Time 321480, Note Name: A#3
Note ON: Time 321600, Note Name: A#3, Velocity: 29
Note ON: Time 321600, Note Name: D#4, Velocity: 29
Note ON: Time 321600, Note Name: G4, Velocity: 35
Note OFF: Time 321720, Note Name: G4
Note OFF: Time 321720, Note Name: D#4
Note OFF: Time 321720, Note Name: A#3
Note ON: Time 321840, Note Name: A#3, Velocity: 29
Note ON: Time 321840, Note Name: D4, Velocity: 29
Note ON: Time 321840, Note Name: G#4, Velocity: 35
Note OFF: Time 321960, Note Name: G#4
Note OFF: Time 321960, Note Name: D4
Note OFF: Time 321960, Note Name: A#3
Note ON: Time 322080, Note Name: A#3, Velocity: 29
Note ON: Time 322080, Note Name: D4, Velocity: 29
Note ON: Time 322080, Note Name: G#4, Velocity: 35
Note OFF: Time 322200, Note Name: G#4
Note OFF: Time 322200, Note Name: D4
Note OFF: Time 322200, Note Name: A#3
Note ON: Time 322320, Note Name: A#3, Velocity: 29
Note ON: Time 322320, Note Name: D4, Velocity: 29
Note ON: Time 322320, Note Name: G#4, Velocity: 35
Note OFF: Time 322440, Note Name: G#4
Note OFF: Time 322440, Note Name: D4
Note OFF: Time 322440, Note Name: A#3
Note ON: Time 322560, Note Name: D#4, Velocity: 40
Note ON: Time 322560, Note Name: G4, Velocity: 40
Note OFF: Time 323040, Note Name: G4
Note ON: Time 323040, Note Name: C5, Velocity: 33
Note OFF: Time 323280, Note Name: C5
Note ON: Time 323280, Note Name: A#4, Velocity: 42
Note OFF: Time 323760, Note Name: A#4
Note ON: Time 323760, Note Name: G4, Velocity: 39
Note OFF: Time 324000, Note Name: G4
Note OFF: Time 324000, Note Name: D#4
Note ON: Time 324000, Note Name: A#3, Velocity: 42
Note ON: Time 324000, Note Name: F4, Velocity: 42
Note OFF: Time 324480, Note Name: F4
Note ON: Time 324480, Note Name: C5, Velocity: 36
Note OFF: Time 324720, Note Name: C5
Note ON: Time 324720, Note Name: A#4, Velocity: 45
Note OFF: Time 325200, Note Name: A#4
Note ON: Time 325200, Note Name: F4, Velocity: 41
Note OFF: Time 325440, Note Name: F4
Note OFF: Time 325440, Note Name: A#3
Note ON: Time 325440, Note Name: D#4, Velocity: 46
Note ON: Time 325440, Note Name: G4, Velocity: 46
Note OFF: Time 325920, Note Name: G4
Note ON: Time 325920, Note Name: C5, Velocity: 37
Note OFF: Time 326160, Note Name: C5
Note ON: Time 326160, Note Name: A#4, Velocity: 45
Note OFF: Time 326640, Note Name: A#4
Note ON: Time 326640, Note Name: G4, Velocity: 40
Note OFF: Time 326880, Note Name: G4
Note OFF: Time 326880, Note Name: D#4
Note ON: Time 326880, Note Name: A#3, Velocity: 43
Note ON: Time 326880, Note Name: F4, Velocity: 43
Note OFF: Time 327360, Note Name: F4
Note ON: Time 327360, Note Name: C5, Velocity: 34
Note OFF: Time 327600, Note Name: C5
Note ON: Time 327600, Note Name: A#4, Velocity: 42
Note OFF: Time 328080, Note Name: A#4
Note ON: Time 328080, Note Name: F4, Velocity: 37
Note OFF: Time 328320, Note Name: F4
Note OFF: Time 328320, Note Name: A#3
Note ON: Time 328320, Note Name: D#4, Velocity: 51
Note OFF: Time 328440, Note Name: D#4
Note ON: Time 328440, Note Name: G4, Velocity: 45
Note OFF: Time 328560, Note Name: G4
Note ON: Time 328560, Note Name: G#4, Velocity: 50
Note OFF: Time 328680, Note Name: G#4
Note ON: Time 328680, Note Name: A#4, Velocity: 52
Note OFF: Time 328800, Note Name: A#4
Note ON: Time 328800, Note Name: C5, Velocity: 54
Note OFF: Time 328920, Note Name: C5
Note ON: Time 328920, Note Name: D5, Velocity: 56
Note OFF: Time 329040, Note Name: D5
Note ON: Time 329040, Note Name: D#5, Velocity: 61
Note OFF: Time 329160, Note Name: D#5
Note ON: Time 329160, Note Name: D5, Velocity: 60
Note OFF: Time 329280, Note Name: D5
Note ON: Time 329280, Note Name: C5, Velocity: 58
Note OFF: Time 329400, Note Name: C5
Note ON: Time 329400, Note Name: A#4, Velocity: 57
Note OFF: Time 329520, Note Name: A#4
Note ON: Time 329520, Note Name: G#4, Velocity: 55
Note OFF: Time 329640, Note Name: G#4
Note ON: Time 329640, Note Name: G4, Velocity: 54
Note OFF: Time 329760, Note Name: G4
Note ON: Time 329760, Note Name: G#4, Velocity: 51
Note OFF: Time 329880, Note Name: G#4
Note ON: Time 329880, Note Name: C5, Velocity: 45
Note OFF: Time 330000, Note Name: C5
Note ON: Time 330000, Note Name: D5, Velocity: 48
Note OFF: Time 330120, Note Name: D5
Note ON: Time 330120, Note Name: D#5, Velocity: 50
Note OFF: Time 330240, Note Name: D#5
Note ON: Time 330240, Note Name: F5, Velocity: 55
Note OFF: Time 330360, Note Name: F5
Note ON: Time 330360, Note Name: G5, Velocity: 57
Note OFF: Time 330480, Note Name: G5
Note ON: Time 330480, Note Name: G#5, Velocity: 62
Note OFF: Time 330600, Note Name: G#5
Note ON: Time 330600, Note Name: G5, Velocity: 60
Note OFF: Time 330720, Note Name: G5
Note ON: Time 330720, Note Name: F5, Velocity: 59
Note OFF: Time 330840, Note Name: F5
Note ON: Time 330840, Note Name: D#5, Velocity: 58
Note OFF: Time 330960, Note Name: D#5
Note ON: Time 330960, Note Name: D5, Velocity: 57
Note OFF: Time 331080, Note Name: D5
Note ON: Time 331080, Note Name: C5, Velocity: 55
Note OFF: Time 331200, Note Name: C5
Note ON: Time 331200, Note Name: A#4, Velocity: 60
Note OFF: Time 331320, Note Name: A#4
Note ON: Time 331320, Note Name: A#3, Velocity: 52
Note OFF: Time 331440, Note Name: A#3
Note ON: Time 331440, Note Name: D#4, Velocity: 63
Note OFF: Time 331560, Note Name: D#4
Note ON: Time 331560, Note Name: G4, Velocity: 59
Note OFF: Time 331680, Note Name: G4
Note ON: Time 331680, Note Name: A#4, Velocity: 68
Note OFF: Time 331800, Note Name: A#4
Note ON: Time 331800, Note Name: D#5, Velocity: 62
Note OFF: Time 331920, Note Name: D#5
Note ON: Time 331920, Note Name: G5, Velocity: 63
Note OFF: Time 332040, Note Name: G5
Note ON: Time 332040, Note Name: D#5, Velocity: 54
Note OFF: Time 332160, Note Name: D#5
Note ON: Time 332160, Note Name: A#5, Velocity: 66
Note OFF: Time 332280, Note Name: A#5
Note ON: Time 332280, Note Name: G5, Velocity: 62
Note OFF: Time 332400, Note Name: G5
Note ON: Time 332400, Note Name: D#5, Velocity: 70
Note OFF: Time 332520, Note Name: D#5
Note ON: Time 332520, Note Name: A#4, Velocity: 64
Note OFF: Time 332640, Note Name: A#4
Note ON: Time 332640, Note Name: A#4, Velocity: 60
Note ON: Time 332640, Note Name: F5, Velocity: 67
Note OFF: Time 332720, Note Name: F5
Note ON: Time 332720, Note Name: G5, Velocity: 59
Note OFF: Time 332800, Note Name: G5
Note ON: Time 332800, Note Name: F5, Velocity: 67
Note OFF: Time 332880, Note Name: F5
Note OFF: Time 332880, Note Name: A#4
Note ON: Time 332880, Note Name: G5, Velocity: 61
Note OFF: Time 332960, Note Name: G5
Note ON: Time 332960, Note Name: F5, Velocity: 66
Note OFF: Time 333040, Note Name: F5
Note ON: Time 333040, Note Name: G5, Velocity: 59
Note OFF: Time 333120, Note Name: G5
Note ON: Time 333120, Note Name: F5, Velocity: 66
Note OFF: Time 333200, Note Name: F5
Note ON: Time 333200, Note Name: G5, Velocity: 59
Note OFF: Time 333280, Note Name: G5
Note ON: Time 333280, Note Name: F5, Velocity: 62
Note OFF: Time 333360, Note Name: F5
Note ON: Time 333360, Note Name: G5, Velocity: 56
Note OFF: Time 333440, Note Name: G5
Note ON: Time 333440, Note Name: F5, Velocity: 63
Note OFF: Time 333520, Note Name: F5
Note ON: Time 333520, Note Name: G5, Velocity: 55
Note OFF: Time 333600, Note Name: G5
Note ON: Time 333600, Note Name: F5, Velocity: 63
Note OFF: Time 333680, Note Name: F5
Note ON: Time 333680, Note Name: G5, Velocity: 55
Note OFF: Time 333760, Note Name: G5
Note ON: Time 333760, Note Name: F5, Velocity: 63
Note OFF: Time 333840, Note Name: F5
Note ON: Time 333840, Note Name: G5, Velocity: 55
Note OFF: Time 333920, Note Name: G5
Note ON: Time 333920, Note Name: F5, Velocity: 63
Note OFF: Time 334000, Note Name: F5
Note ON: Time 334000, Note Name: G5, Velocity: 59
Note OFF: Time 334080, Note Name: G5
Note ON: Time 334080, Note Name: A#4, Velocity: 62
Note OFF: Time 334200, Note Name: A#4
Note ON: Time 334200, Note Name: E5, Velocity: 55
Note OFF: Time 334320, Note Name: E5
Note ON: Time 334320, Note Name: F5, Velocity: 58
Note OFF: Time 334440, Note Name: F5
Note ON: Time 334440, Note Name: G5, Velocity: 60
Note OFF: Time 334560, Note Name: G5
Note ON: Time 334560, Note Name: F5, Velocity: 58
Note OFF: Time 334680, Note Name: F5
Note ON: Time 334680, Note Name: E5, Velocity: 58
Note OFF: Time 334800, Note Name: E5
Note ON: Time 334800, Note Name: G#4, Velocity: 61
Note OFF: Time 334920, Note Name: G#4
Note ON: Time 334920, Note Name: F5, Velocity: 56
Note OFF: Time 335040, Note Name: F5
Note ON: Time 335040, Note Name: G5, Velocity: 59
Note OFF: Time 335160, Note Name: G5
Note ON: Time 335160, Note Name: G#5, Velocity: 61
Note OFF: Time 335280, Note Name: G#5
Note ON: Time 335280, Note Name: G5, Velocity: 57
Note OFF: Time 335400, Note Name: G5
Note ON: Time 335400, Note Name: F5, Velocity: 57
Note OFF: Time 335520, Note Name: F5
Note ON: Time 335526, Note Name: G#3, Velocity: 62
Note ON: Time 335640, Note Name: D4, Velocity: 55
Note OFF: Time 335646, Note Name: G#3
Note OFF: Time 335760, Note Name: D4
Note ON: Time 335760, Note Name: D#4, Velocity: 58
Note ON: Time 335875, Note Name: F4, Velocity: 60
Note OFF: Time 335880, Note Name: D#4
Note OFF: Time 335995, Note Name: F4
Note ON: Time 336000, Note Name: D#4, Velocity: 59
Note OFF: Time 336120, Note Name: D#4
Note ON: Time 336120, Note Name: D4, Velocity: 59
Note OFF: Time 336240, Note Name: D4
Note ON: Time 336240, Note Name: G3, Velocity: 62
Note OFF: Time 336360, Note Name: G3
Note ON: Time 336360, Note Name: D#4, Velocity: 57
Note OFF: Time 336480, Note Name: D#4
Note ON: Time 336480, Note Name: F4, Velocity: 61
Note OFF: Time 336600, Note Name: F4
Note ON: Time 336600, Note Name: G4, Velocity: 64
Note OFF: Time 336720, Note Name: G4
Note ON: Time 336720, Note Name: F4, Velocity: 59
Note OFF: Time 336840, Note Name: F4
Note ON: Time 336840, Note Name: D#4, Velocity: 60
Note OFF: Time 336960, Note Name: D#4
Note ON: Time 336966, Note Name: A#2, Velocity: 65
Note ON: Time 337080, Note Name: E3, Velocity: 58
Note OFF: Time 337086, Note Name: A#2
Note OFF: Time 337200, Note Name: E3
Note ON: Time 337200, Note Name: F3, Velocity: 62
Note ON: Time 337315, Note Name: G3, Velocity: 64
Note OFF: Time 337320, Note Name: F3
Note OFF: Time 337435, Note Name: G3
Note ON: Time 337440, Note Name: F3, Velocity: 62
Note OFF: Time 337560, Note Name: F3
Note ON: Time 337560, Note Name: E3, Velocity: 63
Note OFF: Time 337680, Note Name: E3
Note ON: Time 337680, Note Name: G#2, Velocity: 67
Note OFF: Time 337800, Note Name: G#2
Note ON: Time 337800, Note Name: F3, Velocity: 61
Note OFF: Time 337920, Note Name: F3
Note ON: Time 337920, Note Name: G3, Velocity: 65
Note OFF: Time 338040, Note Name: G3
Note ON: Time 338040, Note Name: G#3, Velocity: 67
Note OFF: Time 338160, Note Name: G#3
Note ON: Time 338160, Note Name: G3, Velocity: 63
Note OFF: Time 338280, Note Name: G3
Note ON: Time 338280, Note Name: F3, Velocity: 63
Note OFF: Time 338400, Note Name: F3
Note ON: Time 338406, Note Name: G#1, Velocity: 70
Note ON: Time 338520, Note Name: D2, Velocity: 62
Note OFF: Time 338526, Note Name: G#1
Note OFF: Time 338640, Note Name: D2
Note ON: Time 338640, Note Name: D#2, Velocity: 66
Note ON: Time 338755, Note Name: F2, Velocity: 68
Note OFF: Time 338760, Note Name: D#2
Note OFF: Time 338875, Note Name: F2
Note ON: Time 338880, Note Name: D#2, Velocity: 66
Note OFF: Time 339000, Note Name: D#2
Note ON: Time 339000, Note Name: D2, Velocity: 67
Note OFF: Time 339120, Note Name: D2
Note ON: Time 339120, Note Name: G1, Velocity: 70
Note OFF: Time 339240, Note Name: G1
Note ON: Time 339240, Note Name: D#2, Velocity: 65
Note OFF: Time 339360, Note Name: D#2
Note ON: Time 339360, Note Name: F2, Velocity: 69
Note OFF: Time 339480, Note Name: F2
Note ON: Time 339480, Note Name: G2, Velocity: 71
Note OFF: Time 339600, Note Name: G2
Note ON: Time 339600, Note Name: F2, Velocity: 67
Note OFF: Time 339720, Note Name: F2
Note ON: Time 339720, Note Name: D#2, Velocity: 67
Note OFF: Time 339840, Note Name: D#2
Note ON: Time 339840, Note Name: G1, Velocity: 70
Note OFF: Time 339960, Note Name: G1
Note ON: Time 339960, Note Name: A#1, Velocity: 62
Note OFF: Time 340080, Note Name: A#1
Note ON: Time 340080, Note Name: D#2, Velocity: 66
Note OFF: Time 340200, Note Name: D#2
Note ON: Time 340200, Note Name: G2, Velocity: 68
Note OFF: Time 340320, Note Name: G2
Note ON: Time 340320, Note Name: D#2, Velocity: 66
Note OFF: Time 340440, Note Name: D#2
Note ON: Time 340440, Note Name: A#1, Velocity: 63
Note OFF: Time 340560, Note Name: A#1
Note ON: Time 340560, Note Name: C2, Velocity: 70
Note OFF: Time 340680, Note Name: C2
Note ON: Time 340680, Note Name: D#2, Velocity: 65
Note OFF: Time 340800, Note Name: D#2
Note ON: Time 340800, Note Name: G2, Velocity: 69
Note OFF: Time 340920, Note Name: G2
Note ON: Time 340920, Note Name: C3, Velocity: 71
Note OFF: Time 341040, Note Name: C3
Note ON: Time 341040, Note Name: G2, Velocity: 67
Note OFF: Time 341160, Note Name: G2
Note ON: Time 341160, Note Name: D#2, Velocity: 64
Note OFF: Time 341280, Note Name: D#2
Note ON: Time 341280, Note Name: G#1, Velocity: 70
Note OFF: Time 341400, Note Name: G#1
Note ON: Time 341400, Note Name: C2, Velocity: 62
Note OFF: Time 341520, Note Name: C2
Note ON: Time 341520, Note Name: F2, Velocity: 66
Note OFF: Time 341640, Note Name: F2
Note ON: Time 341640, Note Name: G#2, Velocity: 68
Note OFF: Time 341760, Note Name: G#2
Note ON: Time 341760, Note Name: F2, Velocity: 66
Note OFF: Time 341880, Note Name: F2
Note ON: Time 341880, Note Name: C2, Velocity: 63
Note OFF: Time 342000, Note Name: C2
Note ON: Time 342000, Note Name: A#1, Velocity: 70
Note OFF: Time 342120, Note Name: A#1
Note ON: Time 342120, Note Name: F2, Velocity: 65
Note OFF: Time 342240, Note Name: F2
Note ON: Time 342240, Note Name: G#2, Velocity: 69
Note OFF: Time 342360, Note Name: G#2
Note ON: Time 342360, Note Name: A#2, Velocity: 71
Note OFF: Time 342480, Note Name: A#2
Note ON: Time 342480, Note Name: G#2, Velocity: 67
Note OFF: Time 342600, Note Name: G#2
Note ON: Time 342600, Note Name: F2, Velocity: 64
Note OFF: Time 342720, Note Name: F2
Note ON: Time 342720, Note Name: G2, Velocity: 70
Note OFF: Time 342840, Note Name: G2
Note ON: Time 342840, Note Name: A#2, Velocity: 62
Note OFF: Time 342960, Note Name: A#2
Note ON: Time 342960, Note Name: D#3, Velocity: 66
Note OFF: Time 343080, Note Name: D#3
Note ON: Time 343080, Note Name: G3, Velocity: 68
Note OFF: Time 343200, Note Name: G3
Note ON: Time 343200, Note Name: D#3, Velocity: 66
Note OFF: Time 343320, Note Name: D#3
Note ON: Time 343320, Note Name: A#2, Velocity: 63
Note OFF: Time 343440, Note Name: A#2
Note ON: Time 343440, Note Name: C3, Velocity: 70
Note OFF: Time 343560, Note Name: C3
Note ON: Time 343560, Note Name: D#3, Velocity: 65
Note OFF: Time 343680, Note Name: D#3
Note ON: Time 343680, Note Name: G3, Velocity: 69
Note OFF: Time 343800, Note Name: G3
Note ON: Time 343800, Note Name: C4, Velocity: 71
Note OFF: Time 343920, Note Name: C4
Note ON: Time 343920, Note Name: G3, Velocity: 67
Note OFF: Time 344040, Note Name: G3
Note ON: Time 344040, Note Name: D#3, Velocity: 64
Note OFF: Time 344160, Note Name: D#3
Note ON: Time 344160, Note Name: G#2, Velocity: 70
Note OFF: Time 344280, Note Name: G#2
Note ON: Time 344280, Note Name: C3, Velocity: 62
Note OFF: Time 344400, Note Name: C3
Note ON: Time 344400, Note Name: F3, Velocity: 66
Note OFF: Time 344520, Note Name: F3
Note ON: Time 344520, Note Name: G#3, Velocity: 68
Note OFF: Time 344640, Note Name: G#3
Note ON: Time 344640, Note Name: F3, Velocity: 66
Note OFF: Time 344760, Note Name: F3
Note ON: Time 344760, Note Name: C3, Velocity: 63
Note OFF: Time 344880, Note Name: C3
Note ON: Time 344880, Note Name: A#1, Velocity: 70
Note OFF: Time 345000, Note Name: A#1
Note ON: Time 345000, Note Name: F2, Velocity: 65
Note OFF: Time 345120, Note Name: F2
Note ON: Time 345120, Note Name: G#2, Velocity: 69
Note OFF: Time 345240, Note Name: G#2
Note ON: Time 345240, Note Name: A#2, Velocity: 71
Note OFF: Time 345360, Note Name: A#2
Note ON: Time 345360, Note Name: G#2, Velocity: 67
Note OFF: Time 345480, Note Name: G#2
Note ON: Time 345480, Note Name: F2, Velocity: 64
Note OFF: Time 345600, Note Name: F2
Note ON: Time 345600, Note Name: G1, Velocity: 70
Note OFF: Time 345720, Note Name: G1
Note ON: Time 345720, Note Name: A#1, Velocity: 62
Note OFF: Time 345840, Note Name: A#1
Note ON: Time 345840, Note Name: D#2, Velocity: 66
Note OFF: Time 345960, Note Name: D#2
Note ON: Time 345960, Note Name: G2, Velocity: 68
Note OFF: Time 346080, Note Name: G2
Note ON: Time 346080, Note Name: D#2, Velocity: 67
Note OFF: Time 346200, Note Name: D#2
Note ON: Time 346200, Note Name: A#1, Velocity: 64
Note OFF: Time 346320, Note Name: A#1
Note ON: Time 346320, Note Name: C2, Velocity: 72
Note OFF: Time 346440, Note Name: C2
Note ON: Time 346440, Note Name: D#2, Velocity: 67
Note OFF: Time 346560, Note Name: D#2
Note ON: Time 346560, Note Name: G2, Velocity: 72
Note OFF: Time 346680, Note Name: G2
Note ON: Time 346680, Note Name: C3, Velocity: 74
Note OFF: Time 346800, Note Name: C3
Note ON: Time 346800, Note Name: G2, Velocity: 71
Note OFF: Time 346920, Note Name: G2
Note ON: Time 346920, Note Name: D#2, Velocity: 67
Note OFF: Time 347040, Note Name: D#2
Note ON: Time 347040, Note Name: G#1, Velocity: 74
Note OFF: Time 347160, Note Name: G#1
Note ON: Time 347160, Note Name: C2, Velocity: 66
Note OFF: Time 347280, Note Name: C2
Note ON: Time 347280, Note Name: F2, Velocity: 71
Note OFF: Time 347400, Note Name: F2
Note ON: Time 347400, Note Name: G#2, Velocity: 74
Note OFF: Time 347520, Note Name: G#2
Note ON: Time 347520, Note Name: F2, Velocity: 72
Note OFF: Time 347640, Note Name: F2
Note ON: Time 347640, Note Name: C2, Velocity: 67
Note OFF: Time 347760, Note Name: C2
Note ON: Time 347760, Note Name: A#1, Velocity: 77
Note OFF: Time 347880, Note Name: A#1
Note ON: Time 347880, Note Name: F2, Velocity: 72
Note OFF: Time 348000, Note Name: F2
Note ON: Time 348000, Note Name: G#2, Velocity: 77
Note OFF: Time 348120, Note Name: G#2
Note ON: Time 348120, Note Name: A#2, Velocity: 80
Note OFF: Time 348240, Note Name: A#2
Note ON: Time 348240, Note Name: A#1, Velocity: 75
Note OFF: Time 348360, Note Name: A#1
Note ON: Time 348360, Note Name: A#2, Velocity: 72
Note OFF: Time 348480, Note Name: A#2
Note ON: Time 348480, Note Name: D#2, Velocity: 75
Note OFF: Time 348600, Note Name: D#2
Note ON: Time 348720, Note Name: D#3, Velocity: 75
Note OFF: Time 348840, Note Name: D#3
Note ON: Time 348960, Note Name: G3, Velocity: 77
Note ON: Time 348960, Note Name: D#3, Velocity: 64
Note OFF: Time 349080, Note Name: D#3
Note OFF: Time 349080, Note Name: G3
Note ON: Time 349200, Note Name: D#3, Velocity: 70
Note ON: Time 349200, Note Name: G3, Velocity: 70
Note ON: Time 349200, Note Name: A#3, Velocity: 83
Note OFF: Time 349680, Note Name: A#3
Note OFF: Time 349680, Note Name: G3
Note OFF: Time 349680, Note Name: D#3
Note ON: Time 349680, Note Name: A#2, Velocity: 60
Note ON: Time 349680, Note Name: F3, Velocity: 60
Note ON: Time 349680, Note Name: A#3, Velocity: 71
Note OFF: Time 349800, Note Name: A#3
Note OFF: Time 349800, Note Name: F3
Note OFF: Time 349800, Note Name: A#2
Note ON: Time 349920, Note Name: D#3, Velocity: 67
Note ON: Time 349920, Note Name: G3, Velocity: 67
Note ON: Time 349920, Note Name: A#3, Velocity: 79
Note OFF: Time 350040, Note Name: A#3
Note OFF: Time 350040, Note Name: G3
Note OFF: Time 350040, Note Name: D#3
Note ON: Time 350160, Note Name: D#3, Velocity: 63
Note ON: Time 350160, Note Name: G3, Velocity: 63
Note ON: Time 350160, Note Name: A#3, Velocity: 75
Note OFF: Time 350280, Note Name: A#3
Note OFF: Time 350280, Note Name: G3
Note OFF: Time 350280, Note Name: D#3
Note ON: Time 350400, Note Name: D#3, Velocity: 62
Note ON: Time 350400, Note Name: G3, Velocity: 62
Note ON: Time 350400, Note Name: A#3, Velocity: 74
Note OFF: Time 350520, Note Name: A#3
Note OFF: Time 350520, Note Name: G3
Note OFF: Time 350520, Note Name: D#3
Note ON: Time 350640, Note Name: D#3, Velocity: 69
Note ON: Time 350640, Note Name: G3, Velocity: 69
Note ON: Time 350640, Note Name: A#3, Velocity: 82
Note OFF: Time 351120, Note Name: A#3
Note OFF: Time 351120, Note Name: G3
Note OFF: Time 351120, Note Name: D#3
Note ON: Time 351120, Note Name: A#2, Velocity: 63
Note ON: Time 351120, Note Name: F3, Velocity: 63
Note ON: Time 351120, Note Name: A#3, Velocity: 75
Note OFF: Time 351240, Note Name: A#3
Note OFF: Time 351240, Note Name: F3
Note OFF: Time 351240, Note Name: A#2
Note ON: Time 351360, Note Name: D#3, Velocity: 64
Note ON: Time 351360, Note Name: G3, Velocity: 64
Note ON: Time 351360, Note Name: A#3, Velocity: 76
Note OFF: Time 351480, Note Name: A#3
Note OFF: Time 351480, Note Name: G3
Note OFF: Time 351480, Note Name: D#3
Note ON: Time 351600, Note Name: D#3, Velocity: 63
Note ON: Time 351600, Note Name: G3, Velocity: 63
Note ON: Time 351600, Note Name: A#3, Velocity: 75
Note OFF: Time 351720, Note Name: A#3
Note OFF: Time 351720, Note Name: G3
Note OFF: Time 351720, Note Name: D#3
Note ON: Time 351840, Note Name: D#3, Velocity: 61
Note ON: Time 351840, Note Name: G3, Velocity: 61
Note ON: Time 351840, Note Name: A#3, Velocity: 73
Note OFF: Time 351960, Note Name: A#3
Note OFF: Time 351960, Note Name: G3
Note OFF: Time 351960, Note Name: D#3
Note ON: Time 352080, Note Name: D#3, Velocity: 70
Note ON: Time 352080, Note Name: G3, Velocity: 70
Note ON: Time 352080, Note Name: A#3, Velocity: 83
Note OFF: Time 352560, Note Name: A#3
Note OFF: Time 352560, Note Name: G3
Note OFF: Time 352560, Note Name: D#3
Note ON: Time 352560, Note Name: A#2, Velocity: 63
Note ON: Time 352560, Note Name: F3, Velocity: 63
Note ON: Time 352560, Note Name: A#3, Velocity: 75
Note OFF: Time 352680, Note Name: A#3
Note OFF: Time 352680, Note Name: F3
Note OFF: Time 352680, Note Name: A#2
Note ON: Time 352800, Note Name: D#3, Velocity: 69
Note ON: Time 352800, Note Name: G3, Velocity: 69
Note ON: Time 352800, Note Name: A#3, Velocity: 82
Note OFF: Time 353280, Note Name: A#3
Note OFF: Time 353280, Note Name: G3
Note OFF: Time 353280, Note Name: D#3
Note ON: Time 353520, Note Name: D#2, Velocity: 69
Note ON: Time 353520, Note Name: D#3, Velocity: 82
Note OFF: Time 354000, Note Name: D#3
Note OFF: Time 354000, Note Name: D#2
Note ON: Time 354240, Note Name: D#2, Velocity: 69
Note ON: Time 354240, Note Name: D#3, Velocity: 82
Note OFF: Time 354720, Note Name: D#3
Note OFF: Time 354720, Note Name: D#2
Note ON: Time 355680, Note Name: D#3, Velocity: 34
Note ON: Time 355680, Note Name: G3, Velocity: 34
Note ON: Time 355680, Note Name: A#3, Velocity: 40
Note OFF: Time 356160, Note Name: A#3
Note OFF: Time 356160, Note Name: G3
Note OFF: Time 356160, Note Name: D#3
Note ON: Time 356400, Note Name: F3, Velocity: 28
Note ON: Time 356400, Note Name: G#3, Velocity: 28
Note ON: Time 356400, Note Name: A#2, Velocity: 28
Note ON: Time 356400, Note Name: A#3, Velocity: 34
Note OFF: Time 356880, Note Name: A#3
Note OFF: Time 356880, Note Name: F3
Note OFF: Time 356880, Note Name: G#3
Note OFF: Time 356880, Note Name: A#2
Note ON: Time 357120, Note Name: D#3, Velocity: 34
Note ON: Time 357120, Note Name: A#3, Velocity: 40
Note ON: Time 357120, Note Name: G3, Velocity: 34
Note OFF: Time 357600, Note Name: G3
Note OFF: Time 357600, Note Name: A#3
Note OFF: Time 357600, Note Name: D#3
Note ON: Time 357840, Note Name: C3, Velocity: 28
Note ON: Time 357840, Note Name: G3, Velocity: 28
Note ON: Time 357840, Note Name: C4, Velocity: 34
Note OFF: Time 358080, Note Name: C4
Note OFF: Time 358080, Note Name: G3
Note OFF: Time 358080, Note Name: C3
Note ON: Time 358320, Note Name: E3, Velocity: 28
Note ON: Time 358320, Note Name: G3, Velocity: 28
Note ON: Time 358320, Note Name: A#3, Velocity: 28
Note ON: Time 358320, Note Name: C4, Velocity: 34
Note OFF: Time 358500, Note Name: C4
Note OFF: Time 358500, Note Name: E3
Note OFF: Time 358500, Note Name: G3
Note OFF: Time 358500, Note Name: A#3
Note ON: Time 358560, Note Name: G#3, Velocity: 34
Note ON: Time 358560, Note Name: F3, Velocity: 34
Note ON: Time 358560, Note Name: C4, Velocity: 40
Note OFF: Time 359040, Note Name: C4
Note OFF: Time 359040, Note Name: F3
Note OFF: Time 359040, Note Name: G#3
Note ON: Time 359280, Note Name: D4, Velocity: 34
Note ON: Time 359280, Note Name: D3, Velocity: 28
Note ON: Time 359280, Note Name: A3, Velocity: 28
Note OFF: Time 359520, Note Name: A3
Note OFF: Time 359520, Note Name: D3
Note OFF: Time 359520, Note Name: D4
Note ON: Time 359760, Note Name: F#3, Velocity: 28
Note ON: Time 359760, Note Name: A3, Velocity: 28
Note ON: Time 359760, Note Name: D4, Velocity: 34
Note OFF: Time 359940, Note Name: D4
Note OFF: Time 359940, Note Name: A3
Note OFF: Time 359940, Note Name: F#3
Note ON: Time 360000, Note Name: G3, Velocity: 34
Note ON: Time 360000, Note Name: A#3, Velocity: 34
Note ON: Time 360000, Note Name: D4, Velocity: 40
Note OFF: Time 360480, Note Name: D4
Note OFF: Time 360480, Note Name: A#3
Note OFF: Time 360480, Note Name: G3
Note ON: Time 360720, Note Name: F3, Velocity: 34
Note ON: Time 360720, Note Name: G#3, Velocity: 34
Note ON: Time 360720, Note Name: A#3, Velocity: 34
Note ON: Time 360720, Note Name: D4, Velocity: 40
Note OFF: Time 361200, Note Name: D4
Note OFF: Time 361200, Note Name: F3
Note OFF: Time 361200, Note Name: G#3
Note OFF: Time 361200, Note Name: A#3
Note ON: Time 361440, Note Name: A#3, Velocity: 33
Note ON: Time 361440, Note Name: G3, Velocity: 33
Note ON: Time 361440, Note Name: D#4, Velocity: 39
Note ON: Time 361440, Note Name: D#3, Velocity: 33
Note OFF: Time 361920, Note Name: D#3
Note OFF: Time 361920, Note Name: A#3
Note OFF: Time 361920, Note Name: G3
Note OFF: Time 361920, Note Name: D#4
Note ON: Time 362880, Note Name: D#4, Velocity: 42
Note OFF: Time 363120, Note Name: D#4
Note ON: Time 363120, Note Name: A#3, Velocity: 36
Note OFF: Time 363360, Note Name: A#3
Note ON: Time 363360, Note Name: G3, Velocity: 37
Note OFF: Time 363540, Note Name: G3
Note ON: Time 363600, Note Name: G3, Velocity: 39
Note OFF: Time 363840, Note Name: G3
Note ON: Time 363840, Note Name: A#3, Velocity: 36
Note OFF: Time 364080, Note Name: A#3
Note ON: Time 364080, Note Name: D#4, Velocity: 36
Note OFF: Time 364260, Note Name: D#4
Note ON: Time 364320, Note Name: D#2, Velocity: 38
Note ON: Time 364320, Note Name: G2, Velocity: 46
Note OFF: Time 364560, Note Name: G2
Note OFF: Time 364560, Note Name: D#2
Note ON: Time 364560, Note Name: A#2, Velocity: 39
Note ON: Time 364560, Note Name: G2, Velocity: 33
Note OFF: Time 364800, Note Name: G2
Note OFF: Time 364800, Note Name: A#2
Note ON: Time 364800, Note Name: A#2, Velocity: 33
Note ON: Time 364800, Note Name: D#3, Velocity: 40
Note OFF: Time 365040, Note Name: D#3
Note OFF: Time 365040, Note Name: A#2
Note ON: Time 365040, Note Name: A#2, Velocity: 43
Note ON: Time 365040, Note Name: G2, Velocity: 36
Note OFF: Time 365280, Note Name: G2
Note OFF: Time 365280, Note Name: A#2
Note ON: Time 365280, Note Name: A#2, Velocity: 32
Note ON: Time 365280, Note Name: D#3, Velocity: 39
Note OFF: Time 365520, Note Name: D#3
Note OFF: Time 365520, Note Name: A#2
Note ON: Time 365520, Note Name: D#3, Velocity: 33
Note ON: Time 365520, Note Name: G3, Velocity: 40
Note OFF: Time 365700, Note Name: G3
Note OFF: Time 365700, Note Name: D#3
Note ON: Time 365760, Note Name: A#2, Velocity: 42
Note ON: Time 365760, Note Name: D#3, Velocity: 50
Note OFF: Time 366000, Note Name: D#3
Note OFF: Time 366000, Note Name: A#2
Note ON: Time 366000, Note Name: G3, Velocity: 43
Note ON: Time 366000, Note Name: D#3, Velocity: 36
Note OFF: Time 366240, Note Name: D#3
Note OFF: Time 366240, Note Name: G3
Note ON: Time 366240, Note Name: G3, Velocity: 36
Note ON: Time 366240, Note Name: A#3, Velocity: 44
Note OFF: Time 366480, Note Name: A#3
Note OFF: Time 366480, Note Name: G3
Note ON: Time 366720, Note Name: A#2, Velocity: 31
Note ON: Time 366720, Note Name: F3, Velocity: 38
Note OFF: Time 366960, Note Name: F3
Note OFF: Time 366960, Note Name: A#2
Note ON: Time 366960, Note Name: A#2, Velocity: 29
Note ON: Time 366960, Note Name: A#3, Velocity: 36
Note OFF: Time 367140, Note Name: A#3
Note OFF: Time 367140, Note Name: A#2
Note ON: Time 367200, Note Name: D#3, Velocity: 30
Note ON: Time 367200, Note Name: G3, Velocity: 30
Note ON: Time 367200, Note Name: A#3, Velocity: 36
Note OFF: Time 367680, Note Name: A#3
Note OFF: Time 367680, Note Name: G3
Note OFF: Time 367680, Note Name: D#3
Note ON: Time 368640, Note Name: D#3, Velocity: 40
Note ON: Time 368640, Note Name: D#4, Velocity: 45
Note OFF: Time 368760, Note Name: D#4
Note ON: Time 368760, Note Name: D4, Velocity: 39
Note OFF: Time 368880, Note Name: D4
Note ON: Time 368880, Note Name: D#4, Velocity: 39
Note OFF: Time 369000, Note Name: D#4
Note ON: Time 369000, Note Name: A#3, Velocity: 35
Note OFF: Time 369120, Note Name: A#3
Note ON: Time 369120, Note Name: G3, Velocity: 45
Note OFF: Time 369240, Note Name: G3
Note ON: Time 369300, Note Name: G#3, Velocity: 39
Note OFF: Time 369360, Note Name: G#3
Note OFF: Time 369360, Note Name: D#3
Note ON: Time 369360, Note Name: G3, Velocity: 45
Note OFF: Time 369480, Note Name: G3
Note ON: Time 369480, Note Name: F#3, Velocity: 36
Note OFF: Time 369600, Note Name: F#3
Note ON: Time 369600, Note Name: G3, Velocity: 40
Note OFF: Time 369720, Note Name: G3
Note ON: Time 369720, Note Name: A#3, Velocity: 36
Note OFF: Time 369840, Note Name: A#3
Note ON: Time 369840, Note Name: D#4, Velocity: 47
Note OFF: Time 369960, Note Name: D#4
Note ON: Time 370080, Note Name: D#2, Velocity: 45
Note OFF: Time 370200, Note Name: D#2
Note ON: Time 370200, Note Name: D2, Velocity: 36
Note OFF: Time 370320, Note Name: D2
Note ON: Time 370320, Note Name: D#2, Velocity: 41
Note OFF: Time 370440, Note Name: D#2
Note ON: Time 370440, Note Name: G2, Velocity: 37
Note OFF: Time 370560, Note Name: G2
Note ON: Time 370560, Note Name: A#2, Velocity: 47
Note OFF: Time 370800, Note Name: A#2
Note ON: Time 370800, Note Name: G2, Velocity: 48
Note OFF: Time 370920, Note Name: G2
Note ON: Time 370920, Note Name: F2, Velocity: 38
Note OFF: Time 371040, Note Name: F2
Note ON: Time 371040, Note Name: G2, Velocity: 45
Note OFF: Time 371160, Note Name: G2
Note ON: Time 371160, Note Name: A#2, Velocity: 39
Note OFF: Time 371280, Note Name: A#2
Note ON: Time 371280, Note Name: D#3, Velocity: 50
Note OFF: Time 371520, Note Name: D#3
Note ON: Time 371520, Note Name: A#2, Velocity: 51
Note OFF: Time 371640, Note Name: A#2
Note ON: Time 371640, Note Name: A2, Velocity: 40
Note OFF: Time 371760, Note Name: A2
Note ON: Time 371760, Note Name: A#2, Velocity: 45
Note OFF: Time 371880, Note Name: A#2
Note ON: Time 371880, Note Name: D#3, Velocity: 38
Note OFF: Time 372000, Note Name: D#3
Note ON: Time 372000, Note Name: G3, Velocity: 47
Note OFF: Time 372240, Note Name: G3
Note ON: Time 372480, Note Name: A#2, Velocity: 31
Note ON: Time 372480, Note Name: F3, Velocity: 38
Note OFF: Time 372720, Note Name: F3
Note OFF: Time 372720, Note Name: A#2
Note ON: Time 372720, Note Name: A#2, Velocity: 29
Note ON: Time 372720, Note Name: A#3, Velocity: 36
Note OFF: Time 372900, Note Name: A#3
Note OFF: Time 372900, Note Name: A#2
Note ON: Time 372960, Note Name: D#2, Velocity: 38
Note ON: Time 372960, Note Name: G2, Velocity: 46
Note OFF: Time 373200, Note Name: G2
Note OFF: Time 373200, Note Name: D#2
Note ON: Time 373200, Note Name: A#2, Velocity: 39
Note ON: Time 373200, Note Name: G2, Velocity: 33
Note OFF: Time 373440, Note Name: G2
Note OFF: Time 373440, Note Name: A#2
Note ON: Time 373440, Note Name: A#2, Velocity: 33
Note ON: Time 373440, Note Name: D#3, Velocity: 40
Note OFF: Time 373680, Note Name: D#3
Note OFF: Time 373680, Note Name: A#2
Note ON: Time 373680, Note Name: A#2, Velocity: 43
Note ON: Time 373680, Note Name: G2, Velocity: 36
Note OFF: Time 373920, Note Name: G2
Note OFF: Time 373920, Note Name: A#2
Note ON: Time 373920, Note Name: A#2, Velocity: 32
Note ON: Time 373920, Note Name: D#3, Velocity: 39
Note OFF: Time 374160, Note Name: D#3
Note OFF: Time 374160, Note Name: A#2
Note ON: Time 374160, Note Name: D#3, Velocity: 33
Note ON: Time 374160, Note Name: G3, Velocity: 40
Note OFF: Time 374390, Note Name: G3
Note OFF: Time 374390, Note Name: D#3
Note ON: Time 374400, Note Name: A#2, Velocity: 42
Note ON: Time 374400, Note Name: D#3, Velocity: 50
Note OFF: Time 374640, Note Name: D#3
Note OFF: Time 374640, Note Name: A#2
Note ON: Time 374640, Note Name: G3, Velocity: 43
Note ON: Time 374640, Note Name: D#3, Velocity: 36
Note OFF: Time 374880, Note Name: D#3
Note OFF: Time 374880, Note Name: G3
Note ON: Time 374880, Note Name: A#2, Velocity: 36
Note ON: Time 374880, Note Name: D#3, Velocity: 36
Note ON: Time 374880, Note Name: A#3, Velocity: 44
Note OFF: Time 375118, Note Name: A#3
Note OFF: Time 375118, Note Name: D#3
Note OFF: Time 375118, Note Name: A#2
Note ON: Time 375120, Note Name: A#2, Velocity: 42
Note ON: Time 375120, Note Name: F3, Velocity: 42
Note ON: Time 375120, Note Name: A#3, Velocity: 50
Note OFF: Time 375358, Note Name: A#3
Note OFF: Time 375358, Note Name: F3
Note OFF: Time 375358, Note Name: A#2
Note ON: Time 375360, Note Name: F3, Velocity: 31
Note ON: Time 375360, Note Name: A#2, Velocity: 31
Note ON: Time 375360, Note Name: A#3, Velocity: 38
Note OFF: Time 375598, Note Name: A#3
Note OFF: Time 375598, Note Name: A#2
Note OFF: Time 375598, Note Name: F3
Note ON: Time 375600, Note Name: G#3, Velocity: 36
Note ON: Time 375600, Note Name: A#2, Velocity: 29
Note ON: Time 375600, Note Name: A#3, Velocity: 36
Note OFF: Time 375840, Note Name: A#3
Note OFF: Time 375840, Note Name: A#2
Note OFF: Time 375840, Note Name: G#3
Note ON: Time 375840, Note Name: A#4, Velocity: 80
Note OFF: Time 375960, Note Name: A#4
Note ON: Time 376080, Note Name: G4, Velocity: 67
Note OFF: Time 376200, Note Name: G4
Note ON: Time 376320, Note Name: D#4, Velocity: 67
Note OFF: Time 376440, Note Name: D#4
Note ON: Time 376560, Note Name: G4, Velocity: 80
Note OFF: Time 376680, Note Name: G4
Note ON: Time 376800, Note Name: D#4, Velocity: 70
Note OFF: Time 376920, Note Name: D#4
Note ON: Time 377040, Note Name: A#3, Velocity: 70
Note OFF: Time 377160, Note Name: A#3
Note ON: Time 377280, Note Name: D#4, Velocity: 80
Note OFF: Time 377400, Note Name: D#4
Note ON: Time 377520, Note Name: A#3, Velocity: 71
Note OFF: Time 377640, Note Name: A#3
Note ON: Time 377760, Note Name: G3, Velocity: 71
Note OFF: Time 377880, Note Name: G3
Note ON: Time 378000, Note Name: A#3, Velocity: 80
Note OFF: Time 378120, Note Name: A#3
Note ON: Time 378240, Note Name: G#3, Velocity: 69
Note OFF: Time 378360, Note Name: G#3
Note ON: Time 378480, Note Name: A#2, Velocity: 55
Note ON: Time 378480, Note Name: F3, Velocity: 69
Note OFF: Time 378600, Note Name: F3
Note OFF: Time 378600, Note Name: A#2
Note ON: Time 378720, Note Name: D#2, Velocity: 65
Note ON: Time 378720, Note Name: D#3, Velocity: 82
Note OFF: Time 378840, Note Name: D#3
Note OFF: Time 378840, Note Name: D#2
Note ON: Time 378960, Note Name: D#3, Velocity: 51
Note ON: Time 378960, Note Name: G3, Velocity: 51
Note ON: Time 378960, Note Name: A#3, Velocity: 51
Note ON: Time 378960, Note Name: D#4, Velocity: 64
Note OFF: Time 379080, Note Name: D#4
Note OFF: Time 379080, Note Name: D#3
Note OFF: Time 379080, Note Name: G3
Note OFF: Time 379080, Note Name: A#3
Note ON: Time 379200, Note Name: D#3, Velocity: 51
Note ON: Time 379200, Note Name: G3, Velocity: 51
Note ON: Time 379200, Note Name: A#3, Velocity: 51
Note ON: Time 379200, Note Name: D#4, Velocity: 64
Note OFF: Time 379320, Note Name: D#4
Note OFF: Time 379320, Note Name: D#3
Note OFF: Time 379320, Note Name: G3
Note OFF: Time 379320, Note Name: A#3
Note ON: Time 379440, Note Name: D#3, Velocity: 51
Note ON: Time 379440, Note Name: G3, Velocity: 51
Note ON: Time 379440, Note Name: A#3, Velocity: 51
Note ON: Time 379440, Note Name: D#4, Velocity: 64
Note OFF: Time 379560, Note Name: D#4
Note OFF: Time 379560, Note Name: D#3
Note OFF: Time 379560, Note Name: G3
Note OFF: Time 379560, Note Name: A#3
Note ON: Time 379680, Note Name: D#3, Velocity: 51
Note ON: Time 379680, Note Name: G3, Velocity: 51
Note ON: Time 379680, Note Name: A#3, Velocity: 51
Note ON: Time 379680, Note Name: D#4, Velocity: 64
Note OFF: Time 379800, Note Name: D#4
Note OFF: Time 379800, Note Name: D#3
Note OFF: Time 379800, Note Name: G3
Note OFF: Time 379800, Note Name: A#3
Note ON: Time 379920, Note Name: D#3, Velocity: 51
Note ON: Time 379920, Note Name: G3, Velocity: 51
Note ON: Time 379920, Note Name: A#3, Velocity: 51
Note ON: Time 379920, Note Name: D#4, Velocity: 64
Note OFF: Time 380040, Note Name: D#4
Note OFF: Time 380040, Note Name: D#3
Note OFF: Time 380040, Note Name: G3
Note OFF: Time 380040, Note Name: A#3
Note ON: Time 380160, Note Name: D#3, Velocity: 59
Note ON: Time 380160, Note Name: G3, Velocity: 59
Note ON: Time 380160, Note Name: A#3, Velocity: 59
Note ON: Time 380160, Note Name: D#4, Velocity: 74
Note OFF: Time 380280, Note Name: D#4
Note OFF: Time 380280, Note Name: D#3
Note OFF: Time 380280, Note Name: G3
Note OFF: Time 380280, Note Name: A#3
Note ON: Time 380400, Note Name: D#3, Velocity: 48
Note ON: Time 380400, Note Name: G3, Velocity: 48
Note ON: Time 380400, Note Name: A#3, Velocity: 48
Note ON: Time 380400, Note Name: D#4, Velocity: 61
Note OFF: Time 380520, Note Name: D#4
Note OFF: Time 380520, Note Name: D#3
Note OFF: Time 380520, Note Name: G3
Note OFF: Time 380520, Note Name: A#3
Note ON: Time 380640, Note Name: D#3, Velocity: 49
Note ON: Time 380640, Note Name: G3, Velocity: 49
Note ON: Time 380640, Note Name: A#3, Velocity: 49
Note ON: Time 380640, Note Name: D#4, Velocity: 62
Note OFF: Time 380760, Note Name: D#4
Note OFF: Time 380760, Note Name: D#3
Note OFF: Time 380760, Note Name: G3
Note OFF: Time 380760, Note Name: A#3
Note ON: Time 380880, Note Name: D#3, Velocity: 50
Note ON: Time 380880, Note Name: G3, Velocity: 50
Note ON: Time 380880, Note Name: A#3, Velocity: 50
Note ON: Time 380880, Note Name: D#4, Velocity: 63
Note OFF: Time 381000, Note Name: D#4
Note OFF: Time 381000, Note Name: D#3
Note OFF: Time 381000, Note Name: G3
Note OFF: Time 381000, Note Name: A#3
Note ON: Time 381120, Note Name: D#3, Velocity: 51
Note ON: Time 381120, Note Name: G3, Velocity: 51
Note ON: Time 381120, Note Name: A#3, Velocity: 51
Note ON: Time 381120, Note Name: D#4, Velocity: 64
Note OFF: Time 381240, Note Name: D#4
Note OFF: Time 381240, Note Name: D#3
Note OFF: Time 381240, Note Name: G3
Note OFF: Time 381240, Note Name: A#3
Note ON: Time 381360, Note Name: D#3, Velocity: 51
Note ON: Time 381360, Note Name: G3, Velocity: 51
Note ON: Time 381360, Note Name: A#3, Velocity: 51
Note ON: Time 381360, Note Name: D#4, Velocity: 64
Note OFF: Time 381480, Note Name: D#4
Note OFF: Time 381480, Note Name: D#3
Note OFF: Time 381480, Note Name: G3
Note OFF: Time 381480, Note Name: A#3
Note ON: Time 381600, Note Name: D#3, Velocity: 59
Note ON: Time 381600, Note Name: G3, Velocity: 59
Note ON: Time 381600, Note Name: A#3, Velocity: 59
Note ON: Time 381600, Note Name: D#4, Velocity: 74
Note OFF: Time 382080, Note Name: D#4
Note OFF: Time 382080, Note Name: D#3
Note OFF: Time 382080, Note Name: G3
Note OFF: Time 382080, Note Name: A#3
Note ON: Time 382320, Note Name: A#2, Velocity: 57
Note ON: Time 382320, Note Name: A#3, Velocity: 68
Note OFF: Time 382800, Note Name: A#3
Note OFF: Time 382800, Note Name: A#2
Note ON: Time 383040, Note Name: D#2, Velocity: 61
Note ON: Time 383040, Note Name: D#3, Velocity: 74
Note OFF: Time 383520, Note Name: D#3
Note OFF: Time 383520, Note Name: D#2
Track 3: Pedale
Track 4: Beethoven: Les adieux 3. Satz
Track 5: Copyright  2008 by Bernd Krueger
Track 6: http://www.piano-midi.de/
Track 7: Edition: 2012-08-09
Track 8: Spur 8
Track 9: Spur 9
Track 10: Spur 10
Track 11: Spur 11
Track 12: Spur 12
Track 13: Spur 13
Track 14: Spur 14
Track 15: Spur 15
Track 16: Spur 16
