Processing beethoven_opus10_2.mid...

Track 0: Sonate Op. 10 No. 1 2. Satz
Track 1: Piano right
Note ON: Time 0, Note Name: C4, Velocity: 42
Note ON: Time 0, Note Name: G#4, Velocity: 50
Note OFF: Time 720, Note Name: G#4
Note ON: Time 720, Note Name: A#4, Velocity: 50
Note OFF: Time 780, Note Name: A#4
Note ON: Time 780, Note Name: G#4, Velocity: 46
Note OFF: Time 840, Note Name: G#4
Note ON: Time 840, Note Name: G4, Velocity: 46
Note OFF: Time 900, Note Name: G4
Note ON: Time 900, Note Name: G#4, Velocity: 46
Note OFF: Time 960, Note Name: G#4
Note OFF: Time 960, Note Name: C4
Note ON: Time 960, Note Name: C5, Velocity: 54
Note ON: Time 960, Note Name: C#4, Velocity: 45
Note OFF: Time 1680, Note Name: C5
Note ON: Time 1680, Note Name: A#4, Velocity: 45
Note OFF: Time 1920, Note Name: A#4
Note OFF: Time 1920, Note Name: C#4
Note ON: Time 1920, Note Name: C4, Velocity: 42
Note ON: Time 1920, Note Name: G#4, Velocity: 50
Note OFF: Time 3360, Note Name: G#4
Note OFF: Time 3360, Note Name: C4
Note ON: Time 3360, Note Name: A4, Velocity: 50
Note OFF: Time 3840, Note Name: A4
Note ON: Time 3840, Note Name: D#4, Velocity: 42
Note ON: Time 3840, Note Name: A#4, Velocity: 50
Note OFF: Time 4320, Note Name: A#4
Note ON: Time 4560, Note Name: C5, Velocity: 50
Note OFF: Time 4620, Note Name: C5
Note ON: Time 4620, Note Name: A#4, Velocity: 46
Note OFF: Time 4680, Note Name: A#4
Note ON: Time 4680, Note Name: A4, Velocity: 46
Note OFF: Time 4740, Note Name: A4
Note ON: Time 4740, Note Name: A#4, Velocity: 46
Note OFF: Time 4800, Note Name: A#4
Note OFF: Time 4800, Note Name: D#4
Note ON: Time 4800, Note Name: C#5, Velocity: 54
Note ON: Time 4800, Note Name: D#4, Velocity: 45
Note OFF: Time 5280, Note Name: D#4
Note ON: Time 5280, Note Name: G#4, Velocity: 42
Note OFF: Time 5520, Note Name: C#5
Note ON: Time 5520, Note Name: C5, Velocity: 45
Note OFF: Time 5760, Note Name: C5
Note OFF: Time 5760, Note Name: G#4
Note ON: Time 5760, Note Name: G4, Velocity: 42
Note ON: Time 5760, Note Name: A#4, Velocity: 50
Note OFF: Time 7200, Note Name: A#4
Note OFF: Time 7200, Note Name: G4
Note ON: Time 7200, Note Name: B4, Velocity: 50
Note OFF: Time 7680, Note Name: B4
Note ON: Time 7680, Note Name: C5, Velocity: 63
Note ON: Time 7680, Note Name: D#4, Velocity: 63
Note OFF: Time 8520, Note Name: C5
Note ON: Time 8520, Note Name: G#4, Velocity: 52
Note OFF: Time 8640, Note Name: G#4
Note OFF: Time 8640, Note Name: D#4
Note ON: Time 8640, Note Name: D#5, Velocity: 64
Note ON: Time 8640, Note Name: G#4, Velocity: 64
Note ON: Time 8640, Note Name: D#4, Velocity: 55
Note OFF: Time 9480, Note Name: D#5
Note ON: Time 9480, Note Name: C5, Velocity: 60
Note OFF: Time 9600, Note Name: C5
Note OFF: Time 9600, Note Name: D#4
Note OFF: Time 9600, Note Name: G#4
Note ON: Time 9600, Note Name: F4, Velocity: 55
Note ON: Time 9600, Note Name: G#4, Velocity: 64
Note ON: Time 9600, Note Name: F5, Velocity: 70
Note OFF: Time 10440, Note Name: F5
Note ON: Time 10440, Note Name: C#5, Velocity: 67
Note OFF: Time 10560, Note Name: C#5
Note OFF: Time 10560, Note Name: G#4
Note OFF: Time 10560, Note Name: F4
Note ON: Time 10680, Note Name: G#4, Velocity: 70
Note ON: Time 10710, Note Name: C#5, Velocity: 75
Note ON: Time 10740, Note Name: F5, Velocity: 78
Note ON: Time 10770, Note Name: G#5, Velocity: 82
Note OFF: Time 11520, Note Name: F5
Note OFF: Time 11760, Note Name: G#5
Note ON: Time 11760, Note Name: G5, Velocity: 63
Note OFF: Time 11980, Note Name: G5
Note ON: Time 12000, Note Name: F5, Velocity: 59
Note OFF: Time 12220, Note Name: F5
Note ON: Time 12240, Note Name: D#5, Velocity: 56
Note OFF: Time 12460, Note Name: D#5
Note OFF: Time 12480, Note Name: C#5
Note OFF: Time 12480, Note Name: G#4
Note ON: Time 12480, Note Name: A#4, Velocity: 51
Note ON: Time 12480, Note Name: C#5, Velocity: 60
Note OFF: Time 12960, Note Name: C#5
Note OFF: Time 12960, Note Name: A#4
Note ON: Time 12960, Note Name: G#4, Velocity: 44
Note ON: Time 12960, Note Name: C5, Velocity: 52
Note OFF: Time 13440, Note Name: C5
Note OFF: Time 13440, Note Name: G#4
Note ON: Time 13440, Note Name: D#4, Velocity: 46
Note ON: Time 13440, Note Name: D#5, Velocity: 55
Note OFF: Time 13920, Note Name: D#4
Note ON: Time 13920, Note Name: D#4, Velocity: 39
Note OFF: Time 14160, Note Name: D#5
Note ON: Time 14160, Note Name: C5, Velocity: 51
Note OFF: Time 14400, Note Name: C5
Note OFF: Time 14400, Note Name: D#4
Note ON: Time 14400, Note Name: D#4, Velocity: 45
Note ON: Time 14400, Note Name: A#4, Velocity: 53
Note ON: Time 14400, Note Name: A#4, Velocity: 51
Note OFF: Time 14430, Note Name: A#4
Note ON: Time 14430, Note Name: C5, Velocity: 46
Note OFF: Time 14460, Note Name: C5
Note ON: Time 14460, Note Name: A#4, Velocity: 51
Note OFF: Time 14490, Note Name: A#4
Note ON: Time 14490, Note Name: C5, Velocity: 45
Note OFF: Time 14520, Note Name: C5
Note ON: Time 14520, Note Name: A#4, Velocity: 51
Note OFF: Time 14560, Note Name: A#4
Note ON: Time 14560, Note Name: A4, Velocity: 46
Note OFF: Time 14600, Note Name: A4
Note ON: Time 14600, Note Name: A#4, Velocity: 46
Note OFF: Time 14640, Note Name: A#4
Note ON: Time 14640, Note Name: C#5, Velocity: 57
Note OFF: Time 14760, Note Name: C#5
Note ON: Time 14760, Note Name: C5, Velocity: 48
Note OFF: Time 14880, Note Name: C5
Note OFF: Time 14880, Note Name: A#4
Note OFF: Time 14880, Note Name: D#4
Note ON: Time 14880, Note Name: D#5, Velocity: 55
Note OFF: Time 15000, Note Name: D#5
Note ON: Time 15000, Note Name: C#5, Velocity: 47
Note OFF: Time 15120, Note Name: C#5
Note ON: Time 15120, Note Name: C5, Velocity: 51
Note OFF: Time 15200, Note Name: C5
Note ON: Time 15200, Note Name: C#5, Velocity: 47
Note OFF: Time 15280, Note Name: C#5
Note ON: Time 15280, Note Name: A#4, Velocity: 47
Note OFF: Time 15360, Note Name: A#4
Note ON: Time 15360, Note Name: C4, Velocity: 34
Note ON: Time 15360, Note Name: G#4, Velocity: 50
Note OFF: Time 16080, Note Name: G#4
Note ON: Time 16080, Note Name: A#4, Velocity: 50
Note OFF: Time 16140, Note Name: A#4
Note ON: Time 16140, Note Name: G#4, Velocity: 46
Note OFF: Time 16200, Note Name: G#4
Note ON: Time 16200, Note Name: G4, Velocity: 46
Note OFF: Time 16260, Note Name: G4
Note ON: Time 16260, Note Name: G#4, Velocity: 46
Note OFF: Time 16320, Note Name: G#4
Note OFF: Time 16320, Note Name: C4
Note ON: Time 16320, Note Name: C5, Velocity: 54
Note ON: Time 16320, Note Name: C#4, Velocity: 45
Note OFF: Time 17040, Note Name: C5
Note ON: Time 17040, Note Name: A#4, Velocity: 45
Note OFF: Time 17280, Note Name: A#4
Note OFF: Time 17280, Note Name: C#4
Note ON: Time 17280, Note Name: C4, Velocity: 42
Note ON: Time 17280, Note Name: G#4, Velocity: 50
Note OFF: Time 18240, Note Name: G#4
Note OFF: Time 18240, Note Name: C4
Note ON: Time 19200, Note Name: A#4, Velocity: 59
Note OFF: Time 19680, Note Name: A#4
Note ON: Time 19920, Note Name: C5, Velocity: 54
Note OFF: Time 19980, Note Name: C5
Note ON: Time 19980, Note Name: A#4, Velocity: 46
Note OFF: Time 20040, Note Name: A#4
Note ON: Time 20040, Note Name: A4, Velocity: 49
Note OFF: Time 20100, Note Name: A4
Note ON: Time 20100, Note Name: A#4, Velocity: 50
Note OFF: Time 20160, Note Name: A#4
Note ON: Time 20160, Note Name: C#5, Velocity: 62
Note ON: Time 20160, Note Name: G#4, Velocity: 62
Note OFF: Time 20880, Note Name: C#5
Note ON: Time 20880, Note Name: C5, Velocity: 50
Note OFF: Time 21120, Note Name: C5
Note OFF: Time 21120, Note Name: G#4
Note ON: Time 21120, Note Name: G4, Velocity: 57
Note ON: Time 21120, Note Name: A#4, Velocity: 57
Note OFF: Time 22080, Note Name: A#4
Note OFF: Time 22080, Note Name: G4
Note ON: Time 23010, Note Name: D#4, Velocity: 36
Note ON: Time 23040, Note Name: C5, Velocity: 63
Note OFF: Time 23100, Note Name: D#4
Note OFF: Time 23880, Note Name: C5
Note ON: Time 23880, Note Name: G#4, Velocity: 52
Note ON: Time 23970, Note Name: D#4, Velocity: 43
Note OFF: Time 24000, Note Name: G#4
Note ON: Time 24000, Note Name: D#5, Velocity: 64
Note OFF: Time 24090, Note Name: D#4
Note OFF: Time 24840, Note Name: D#5
Note ON: Time 24840, Note Name: C5, Velocity: 60
Note OFF: Time 24900, Note Name: C5
Note ON: Time 24930, Note Name: F4, Velocity: 44
Note ON: Time 24960, Note Name: F5, Velocity: 73
Note OFF: Time 25020, Note Name: F4
Note OFF: Time 26400, Note Name: F5
Note ON: Time 26400, Note Name: A4, Velocity: 59
Note ON: Time 26400, Note Name: D#5, Velocity: 70
Note OFF: Time 26640, Note Name: D#5
Note OFF: Time 26640, Note Name: A4
Note ON: Time 26640, Note Name: A#4, Velocity: 52
Note ON: Time 26640, Note Name: C#5, Velocity: 62
Note OFF: Time 26880, Note Name: C#5
Note OFF: Time 26880, Note Name: A#4
Note ON: Time 26880, Note Name: G#4, Velocity: 59
Note ON: Time 26880, Note Name: C5, Velocity: 70
Note OFF: Time 27360, Note Name: C5
Note ON: Time 27360, Note Name: D#5, Velocity: 63
Note OFF: Time 27840, Note Name: D#5
Note OFF: Time 27840, Note Name: G#4
Note ON: Time 27840, Note Name: G4, Velocity: 59
Note ON: Time 27840, Note Name: C#5, Velocity: 70
Note OFF: Time 28320, Note Name: C#5
Note ON: Time 28320, Note Name: A#4, Velocity: 60
Note OFF: Time 28800, Note Name: A#4
Note OFF: Time 28800, Note Name: G4
Note ON: Time 28800, Note Name: C#4, Velocity: 59
Note ON: Time 28800, Note Name: A#4, Velocity: 70
Note OFF: Time 29280, Note Name: C#4
Note ON: Time 29280, Note Name: C4, Velocity: 34
Note OFF: Time 29400, Note Name: C4
Note ON: Time 29400, Note Name: C#4, Velocity: 32
Note OFF: Time 29520, Note Name: C#4
Note ON: Time 29520, Note Name: D#4, Velocity: 36
Note OFF: Time 29640, Note Name: D#4
Note ON: Time 29640, Note Name: C#4, Velocity: 31
Note OFF: Time 29760, Note Name: C#4
Note OFF: Time 29760, Note Name: A#4
Note ON: Time 29760, Note Name: C4, Velocity: 37
Note ON: Time 29760, Note Name: G#4, Velocity: 45
Note OFF: Time 30240, Note Name: G#4
Note OFF: Time 30240, Note Name: C4
Note ON: Time 30690, Note Name: F5, Velocity: 78
Note ON: Time 30720, Note Name: F6, Velocity: 91
Note OFF: Time 30780, Note Name: F5
Note OFF: Time 31440, Note Name: F6
Note ON: Time 31440, Note Name: D#6, Velocity: 65
Note ON: Time 31474, Note Name: C6, Velocity: 63
Note OFF: Time 31475, Note Name: D#6
Note OFF: Time 31509, Note Name: C6
Note ON: Time 31509, Note Name: A5, Velocity: 62
Note ON: Time 31543, Note Name: F5, Velocity: 61
Note OFF: Time 31543, Note Name: A5
Note OFF: Time 31577, Note Name: F5
Note ON: Time 31577, Note Name: D#5, Velocity: 59
Note ON: Time 31611, Note Name: C5, Velocity: 57
Note OFF: Time 31612, Note Name: D#5
Note ON: Time 31645, Note Name: A4, Velocity: 56
Note OFF: Time 31646, Note Name: C5
Note OFF: Time 31680, Note Name: A4
Note ON: Time 31680, Note Name: F4, Velocity: 78
Note OFF: Time 31920, Note Name: F4
Note ON: Time 32520, Note Name: C4, Velocity: 45
Note ON: Time 32520, Note Name: D#4, Velocity: 54
Note OFF: Time 32630, Note Name: D#4
Note OFF: Time 32630, Note Name: C4
Note ON: Time 32640, Note Name: C4, Velocity: 48
Note ON: Time 32640, Note Name: D#4, Velocity: 57
Note OFF: Time 33600, Note Name: D#4
Note OFF: Time 33600, Note Name: C4
Note ON: Time 33600, Note Name: A#3, Velocity: 38
Note ON: Time 33600, Note Name: C#4, Velocity: 45
Note OFF: Time 34080, Note Name: C#4
Note OFF: Time 34080, Note Name: A#3
Note ON: Time 34530, Note Name: D#5, Velocity: 78
Note ON: Time 34560, Note Name: D#6, Velocity: 91
Note OFF: Time 34620, Note Name: D#5
Note OFF: Time 35280, Note Name: D#6
Note ON: Time 35280, Note Name: C#6, Velocity: 65
Note ON: Time 35314, Note Name: A#5, Velocity: 63
Note OFF: Time 35315, Note Name: C#6
Note OFF: Time 35349, Note Name: A#5
Note ON: Time 35349, Note Name: G5, Velocity: 62
Note ON: Time 35383, Note Name: D#5, Velocity: 61
Note OFF: Time 35383, Note Name: G5
Note OFF: Time 35417, Note Name: D#5
Note ON: Time 35417, Note Name: C#5, Velocity: 59
Note ON: Time 35451, Note Name: A#4, Velocity: 57
Note OFF: Time 35452, Note Name: C#5
Note ON: Time 35485, Note Name: G4, Velocity: 56
Note OFF: Time 35486, Note Name: A#4
Note OFF: Time 35520, Note Name: G4
Note ON: Time 35520, Note Name: D#4, Velocity: 78
Note OFF: Time 35760, Note Name: D#4
Note ON: Time 36360, Note Name: A#3, Velocity: 45
Note ON: Time 36360, Note Name: C#4, Velocity: 54
Note OFF: Time 36470, Note Name: C#4
Note OFF: Time 36470, Note Name: A#3
Note ON: Time 36480, Note Name: A#3, Velocity: 48
Note ON: Time 36480, Note Name: C#4, Velocity: 57
Note OFF: Time 37440, Note Name: C#4
Note OFF: Time 37440, Note Name: A#3
Note ON: Time 37440, Note Name: G#3, Velocity: 38
Note ON: Time 37440, Note Name: C4, Velocity: 45
Note OFF: Time 37920, Note Name: C4
Note OFF: Time 37920, Note Name: G#3
Note ON: Time 40200, Note Name: D#3, Velocity: 69
Note ON: Time 40200, Note Name: G#3, Velocity: 69
Note ON: Time 40200, Note Name: D#4, Velocity: 69
Note OFF: Time 40310, Note Name: D#4
Note OFF: Time 40310, Note Name: G#3
Note OFF: Time 40310, Note Name: D#3
Note ON: Time 40320, Note Name: D#4, Velocity: 83
Note OFF: Time 41280, Note Name: D#4
Note ON: Time 41280, Note Name: D4, Velocity: 46
Note OFF: Time 41520, Note Name: D4
Note ON: Time 41520, Note Name: E4, Velocity: 46
Note ON: Time 41760, Note Name: F4, Velocity: 54
Note OFF: Time 41772, Note Name: E4
Note OFF: Time 42000, Note Name: F4
Note ON: Time 42000, Note Name: A4, Velocity: 46
Note ON: Time 42240, Note Name: A#4, Velocity: 54
Note OFF: Time 42252, Note Name: A4
Note OFF: Time 42480, Note Name: A#4
Note ON: Time 42480, Note Name: C#5, Velocity: 46
Note ON: Time 42720, Note Name: D5, Velocity: 55
Note OFF: Time 42732, Note Name: C#5
Note OFF: Time 42960, Note Name: D5
Note ON: Time 42960, Note Name: E5, Velocity: 46
Note ON: Time 43200, Note Name: F5, Velocity: 55
Note OFF: Time 43212, Note Name: E5
Note OFF: Time 43440, Note Name: F5
Note ON: Time 43440, Note Name: G5, Velocity: 46
Note ON: Time 43680, Note Name: G#5, Velocity: 55
Note OFF: Time 43692, Note Name: G5
Note OFF: Time 43920, Note Name: G#5
Note ON: Time 43920, Note Name: F5, Velocity: 46
Note OFF: Time 44160, Note Name: F5
Note ON: Time 44160, Note Name: D5, Velocity: 55
Note OFF: Time 45360, Note Name: D5
Note ON: Time 45360, Note Name: D#5, Velocity: 50
Note OFF: Time 45420, Note Name: D#5
Note ON: Time 45420, Note Name: D5, Velocity: 50
Note OFF: Time 45480, Note Name: D5
Note ON: Time 45480, Note Name: C5, Velocity: 50
Note OFF: Time 45540, Note Name: C5
Note ON: Time 45540, Note Name: D5, Velocity: 50
Note OFF: Time 45600, Note Name: D5
Note ON: Time 45600, Note Name: D#5, Velocity: 55
Note OFF: Time 45960, Note Name: D#5
Note ON: Time 45960, Note Name: F5, Velocity: 55
Note OFF: Time 46070, Note Name: F5
Note ON: Time 46080, Note Name: F5, Velocity: 55
Note OFF: Time 46560, Note Name: F5
Note ON: Time 46560, Note Name: D#5, Velocity: 55
Note OFF: Time 47520, Note Name: D#5
Note ON: Time 47520, Note Name: E5, Velocity: 55
Note OFF: Time 48000, Note Name: E5
Note ON: Time 48000, Note Name: F5, Velocity: 55
Note OFF: Time 49200, Note Name: F5
Note ON: Time 49200, Note Name: G5, Velocity: 50
Note OFF: Time 49260, Note Name: G5
Note ON: Time 49260, Note Name: F5, Velocity: 47
Note OFF: Time 49320, Note Name: F5
Note ON: Time 49320, Note Name: D#5, Velocity: 49
Note OFF: Time 49380, Note Name: D#5
Note ON: Time 49380, Note Name: F5, Velocity: 51
Note OFF: Time 49440, Note Name: F5
Note ON: Time 49440, Note Name: G5, Velocity: 53
Note OFF: Time 49800, Note Name: G5
Note ON: Time 49800, Note Name: G#5, Velocity: 60
Note OFF: Time 49910, Note Name: G#5
Note ON: Time 49920, Note Name: G#5, Velocity: 58
Note OFF: Time 50400, Note Name: G#5
Note ON: Time 50400, Note Name: G5, Velocity: 55
Note OFF: Time 50880, Note Name: G5
Note ON: Time 51880, Note Name: D4, Velocity: 30
Note OFF: Time 51920, Note Name: D4
Note ON: Time 51921, Note Name: D#4, Velocity: 30
Note OFF: Time 51961, Note Name: D#4
Note ON: Time 51961, Note Name: F4, Velocity: 41
Note OFF: Time 52001, Note Name: F4
Note ON: Time 52001, Note Name: D#4, Velocity: 33
Note OFF: Time 52041, Note Name: D#4
Note ON: Time 52041, Note Name: D4, Velocity: 33
Note OFF: Time 52081, Note Name: D4
Note ON: Time 52081, Note Name: G#4, Velocity: 42
Note OFF: Time 52121, Note Name: G#4
Note ON: Time 52121, Note Name: G4, Velocity: 34
Note OFF: Time 52161, Note Name: G4
Note ON: Time 52161, Note Name: F4, Velocity: 34
Note OFF: Time 52201, Note Name: F4
Note ON: Time 52202, Note Name: D5, Velocity: 51
Note OFF: Time 52242, Note Name: D5
Note ON: Time 52242, Note Name: C5, Velocity: 37
Note OFF: Time 52282, Note Name: C5
Note ON: Time 52282, Note Name: A#4, Velocity: 36
Note ON: Time 52320, Note Name: F5, Velocity: 57
Note OFF: Time 52322, Note Name: A#4
Note OFF: Time 52360, Note Name: F5
Note ON: Time 52360, Note Name: D#5, Velocity: 41
Note OFF: Time 52400, Note Name: D#5
Note ON: Time 52400, Note Name: D5, Velocity: 44
Note OFF: Time 52440, Note Name: D5
Note ON: Time 52440, Note Name: G#5, Velocity: 59
Note OFF: Time 52480, Note Name: G#5
Note ON: Time 52480, Note Name: G5, Velocity: 46
Note OFF: Time 52520, Note Name: G5
Note ON: Time 52520, Note Name: F5, Velocity: 48
Note OFF: Time 52560, Note Name: F5
Note ON: Time 52560, Note Name: C6, Velocity: 70
Note OFF: Time 53520, Note Name: C6
Note ON: Time 53520, Note Name: C6, Velocity: 54
Note OFF: Time 53554, Note Name: C6
Note ON: Time 53554, Note Name: A#5, Velocity: 53
Note OFF: Time 53588, Note Name: A#5
Note ON: Time 53589, Note Name: G#5, Velocity: 52
Note OFF: Time 53623, Note Name: G#5
Note ON: Time 53623, Note Name: G5, Velocity: 52
Note OFF: Time 53657, Note Name: G5
Note ON: Time 53657, Note Name: F5, Velocity: 51
Note OFF: Time 53691, Note Name: F5
Note ON: Time 53691, Note Name: D#5, Velocity: 50
Note OFF: Time 53725, Note Name: D#5
Note ON: Time 53725, Note Name: D5, Velocity: 49
Note OFF: Time 53759, Note Name: D5
Note ON: Time 53760, Note Name: F5, Velocity: 56
Note OFF: Time 54120, Note Name: F5
Note ON: Time 54120, Note Name: D#5, Velocity: 40
Note OFF: Time 54240, Note Name: D#5
Note ON: Time 54240, Note Name: D5, Velocity: 43
Note OFF: Time 54420, Note Name: D5
Note ON: Time 54420, Note Name: D#5, Velocity: 40
Note OFF: Time 54480, Note Name: D#5
Note ON: Time 54480, Note Name: F5, Velocity: 47
Note OFF: Time 54660, Note Name: F5
Note ON: Time 54660, Note Name: D#5, Velocity: 41
Note OFF: Time 54720, Note Name: D#5
Note ON: Time 54720, Note Name: D#4, Velocity: 52
Note OFF: Time 55200, Note Name: D#4
Note ON: Time 55720, Note Name: F4, Velocity: 30
Note OFF: Time 55760, Note Name: F4
Note ON: Time 55761, Note Name: G4, Velocity: 30
Note OFF: Time 55801, Note Name: G4
Note ON: Time 55801, Note Name: G#4, Velocity: 41
Note OFF: Time 55841, Note Name: G#4
Note ON: Time 55841, Note Name: G4, Velocity: 33
Note OFF: Time 55881, Note Name: G4
Note ON: Time 55881, Note Name: F4, Velocity: 33
Note OFF: Time 55921, Note Name: F4
Note ON: Time 55921, Note Name: D5, Velocity: 42
Note OFF: Time 55961, Note Name: D5
Note ON: Time 55961, Note Name: C5, Velocity: 34
Note OFF: Time 56001, Note Name: C5
Note ON: Time 56001, Note Name: A#4, Velocity: 34
Note OFF: Time 56041, Note Name: A#4
Note ON: Time 56042, Note Name: F5, Velocity: 51
Note OFF: Time 56082, Note Name: F5
Note ON: Time 56082, Note Name: D#5, Velocity: 37
Note OFF: Time 56122, Note Name: D#5
Note ON: Time 56122, Note Name: D5, Velocity: 36
Note ON: Time 56160, Note Name: G#5, Velocity: 57
Note OFF: Time 56162, Note Name: D5
Note OFF: Time 56200, Note Name: G#5
Note ON: Time 56200, Note Name: G5, Velocity: 41
Note OFF: Time 56240, Note Name: G5
Note ON: Time 56240, Note Name: F5, Velocity: 44
Note OFF: Time 56280, Note Name: F5
Note ON: Time 56280, Note Name: D6, Velocity: 59
Note OFF: Time 56320, Note Name: D6
Note ON: Time 56320, Note Name: C6, Velocity: 46
Note OFF: Time 56360, Note Name: C6
Note ON: Time 56360, Note Name: A#5, Velocity: 48
Note OFF: Time 56400, Note Name: A#5
Note ON: Time 56400, Note Name: F6, Velocity: 69
Note OFF: Time 57360, Note Name: F6
Note ON: Time 57360, Note Name: F6, Velocity: 54
Note OFF: Time 57399, Note Name: F6
Note ON: Time 57399, Note Name: D#6, Velocity: 53
Note ON: Time 57438, Note Name: D6, Velocity: 52
Note OFF: Time 57438, Note Name: D#6
Note OFF: Time 57477, Note Name: D6
Note ON: Time 57477, Note Name: C6, Velocity: 52
Note OFF: Time 57516, Note Name: C6
Note ON: Time 57516, Note Name: A#5, Velocity: 51
Note OFF: Time 57555, Note Name: A#5
Note ON: Time 57555, Note Name: G#5, Velocity: 50
Note OFF: Time 57594, Note Name: G#5
Note ON: Time 57600, Note Name: G5, Velocity: 62
Note OFF: Time 58320, Note Name: G5
Note ON: Time 58440, Note Name: G5, Velocity: 64
Note OFF: Time 58560, Note Name: G5
Note ON: Time 58560, Note Name: G#5, Velocity: 71
Note OFF: Time 59280, Note Name: G#5
Note ON: Time 59400, Note Name: G#5, Velocity: 71
Note OFF: Time 59520, Note Name: G#5
Note ON: Time 59520, Note Name: A#5, Velocity: 81
Note OFF: Time 60240, Note Name: A#5
Note ON: Time 60360, Note Name: A#5, Velocity: 78
Note OFF: Time 60480, Note Name: A#5
Note ON: Time 60480, Note Name: B5, Velocity: 89
Note OFF: Time 61200, Note Name: B5
Note ON: Time 61320, Note Name: B5, Velocity: 84
Note OFF: Time 61440, Note Name: B5
Note ON: Time 61440, Note Name: C6, Velocity: 92
Note OFF: Time 62160, Note Name: C6
Note ON: Time 62280, Note Name: C6, Velocity: 90
Note OFF: Time 62400, Note Name: C6
Note ON: Time 62400, Note Name: D6, Velocity: 96
Note OFF: Time 63120, Note Name: D6
Note ON: Time 63240, Note Name: D6, Velocity: 99
Note OFF: Time 63360, Note Name: D6
Note ON: Time 63360, Note Name: D#6, Velocity: 103
Note OFF: Time 64080, Note Name: D#6
Note ON: Time 64200, Note Name: F6, Velocity: 94
Note OFF: Time 64230, Note Name: F6
Note ON: Time 64230, Note Name: D#6, Velocity: 94
Note OFF: Time 64260, Note Name: D#6
Note ON: Time 64260, Note Name: D6, Velocity: 94
Note OFF: Time 64290, Note Name: D6
Note ON: Time 64290, Note Name: D#6, Velocity: 94
Note OFF: Time 64320, Note Name: D#6
Note ON: Time 64320, Note Name: F6, Velocity: 107
Note OFF: Time 64560, Note Name: F6
Note ON: Time 64560, Note Name: D#6, Velocity: 90
Note OFF: Time 64800, Note Name: D#6
Note ON: Time 64800, Note Name: D6, Velocity: 74
Note OFF: Time 64980, Note Name: D6
Note ON: Time 65040, Note Name: C6, Velocity: 67
Note OFF: Time 65220, Note Name: C6
Note ON: Time 65280, Note Name: A#5, Velocity: 60
Note OFF: Time 65520, Note Name: A#5
Note ON: Time 65520, Note Name: A5, Velocity: 55
Note OFF: Time 65760, Note Name: A5
Note ON: Time 65760, Note Name: C6, Velocity: 60
Note OFF: Time 66000, Note Name: C6
Note ON: Time 66000, Note Name: A#5, Velocity: 55
Note OFF: Time 66240, Note Name: A#5
Note ON: Time 66240, Note Name: G#5, Velocity: 60
Note OFF: Time 66480, Note Name: G#5
Note ON: Time 66480, Note Name: G5, Velocity: 56
Note OFF: Time 66720, Note Name: G5
Note ON: Time 66720, Note Name: F5, Velocity: 60
Note OFF: Time 66960, Note Name: F5
Note ON: Time 66960, Note Name: A#5, Velocity: 57
Note OFF: Time 67200, Note Name: A#5
Note ON: Time 67200, Note Name: F#5, Velocity: 60
Note OFF: Time 67360, Note Name: F#5
Note ON: Time 67360, Note Name: G5, Velocity: 51
Note OFF: Time 67520, Note Name: G5
Note ON: Time 67520, Note Name: G4, Velocity: 43
Note OFF: Time 67680, Note Name: G4
Note ON: Time 67840, Note Name: G5, Velocity: 60
Note OFF: Time 68000, Note Name: G5
Note ON: Time 68000, Note Name: G4, Velocity: 52
Note OFF: Time 68160, Note Name: G4
Note ON: Time 68160, Note Name: G5, Velocity: 60
Note OFF: Time 68320, Note Name: G5
Note ON: Time 68320, Note Name: G#5, Velocity: 51
Note OFF: Time 68480, Note Name: G#5
Note ON: Time 68480, Note Name: G#4, Velocity: 43
Note OFF: Time 68640, Note Name: G#4
Note ON: Time 68800, Note Name: G#5, Velocity: 60
Note OFF: Time 68960, Note Name: G#5
Note ON: Time 68960, Note Name: G#4, Velocity: 54
Note OFF: Time 69120, Note Name: G#4
Note ON: Time 69120, Note Name: A5, Velocity: 60
Note OFF: Time 69280, Note Name: A5
Note ON: Time 69280, Note Name: A#5, Velocity: 51
Note OFF: Time 69440, Note Name: A#5
Note ON: Time 69440, Note Name: A#4, Velocity: 44
Note OFF: Time 69600, Note Name: A#4
Note ON: Time 69760, Note Name: A#5, Velocity: 64
Note OFF: Time 69920, Note Name: A#5
Note ON: Time 69920, Note Name: A#4, Velocity: 56
Note OFF: Time 70080, Note Name: A#4
Note ON: Time 70080, Note Name: A#5, Velocity: 66
Note OFF: Time 70240, Note Name: A#5
Note ON: Time 70240, Note Name: B5, Velocity: 63
Note OFF: Time 70400, Note Name: B5
Note ON: Time 70400, Note Name: B4, Velocity: 58
Note OFF: Time 70560, Note Name: B4
Note ON: Time 70720, Note Name: B5, Velocity: 70
Note OFF: Time 70880, Note Name: B5
Note ON: Time 70880, Note Name: B4, Velocity: 64
Note OFF: Time 71040, Note Name: B4
Note ON: Time 71040, Note Name: B5, Velocity: 73
Note OFF: Time 71200, Note Name: B5
Note ON: Time 71200, Note Name: C6, Velocity: 70
Note OFF: Time 71360, Note Name: C6
Note ON: Time 71360, Note Name: C5, Velocity: 63
Note OFF: Time 71520, Note Name: C5
Note ON: Time 71680, Note Name: C6, Velocity: 77
Note OFF: Time 71840, Note Name: C6
Note ON: Time 71840, Note Name: C5, Velocity: 68
Note OFF: Time 72000, Note Name: C5
Note ON: Time 72000, Note Name: C#6, Velocity: 79
Note OFF: Time 72160, Note Name: C#6
Note ON: Time 72160, Note Name: D6, Velocity: 77
Note OFF: Time 72320, Note Name: D6
Note ON: Time 72320, Note Name: D5, Velocity: 69
Note OFF: Time 72480, Note Name: D5
Note ON: Time 72640, Note Name: D6, Velocity: 84
Note OFF: Time 72800, Note Name: D6
Note ON: Time 72800, Note Name: D5, Velocity: 76
Note OFF: Time 72960, Note Name: D5
Note ON: Time 72960, Note Name: D6, Velocity: 86
Note OFF: Time 73120, Note Name: D6
Note ON: Time 73120, Note Name: D#6, Velocity: 81
Note OFF: Time 73280, Note Name: D#6
Note ON: Time 73280, Note Name: D#5, Velocity: 75
Note OFF: Time 73440, Note Name: D#5
Note ON: Time 73600, Note Name: D#6, Velocity: 87
Note OFF: Time 73760, Note Name: D#6
Note ON: Time 73760, Note Name: D#5, Velocity: 81
Note OFF: Time 73920, Note Name: D#5
Note ON: Time 73920, Note Name: D#6, Velocity: 87
Note OFF: Time 74080, Note Name: D#6
Note ON: Time 74080, Note Name: F#5, Velocity: 79
Note OFF: Time 74240, Note Name: F#5
Note ON: Time 74240, Note Name: D#6, Velocity: 87
Note OFF: Time 74400, Note Name: D#6
Note ON: Time 74400, Note Name: A5, Velocity: 79
Note OFF: Time 74560, Note Name: A5
Note ON: Time 74560, Note Name: D#6, Velocity: 86
Note OFF: Time 74720, Note Name: D#6
Note ON: Time 74720, Note Name: A5, Velocity: 79
Note OFF: Time 74880, Note Name: A5
Note ON: Time 74880, Note Name: A#5, Velocity: 88
Note OFF: Time 76000, Note Name: A#5
Note ON: Time 76000, Note Name: A5, Velocity: 79
Note OFF: Time 76160, Note Name: A5
Note ON: Time 76160, Note Name: C6, Velocity: 79
Note OFF: Time 76320, Note Name: C6
Note ON: Time 76320, Note Name: A#5, Velocity: 85
Note OFF: Time 76440, Note Name: A#5
Note ON: Time 76480, Note Name: G#5, Velocity: 79
Note OFF: Time 76600, Note Name: G#5
Note ON: Time 76640, Note Name: G5, Velocity: 79
Note OFF: Time 76760, Note Name: G5
Note ON: Time 76800, Note Name: D#5, Velocity: 79
Note ON: Time 76800, Note Name: F5, Velocity: 79
Note OFF: Time 77640, Note Name: F5
Note ON: Time 77640, Note Name: F5, Velocity: 74
Note OFF: Time 77664, Note Name: F5
Note ON: Time 77664, Note Name: G5, Velocity: 68
Note OFF: Time 77688, Note Name: G5
Note ON: Time 77688, Note Name: F5, Velocity: 74
Note OFF: Time 77712, Note Name: F5
Note ON: Time 77712, Note Name: E5, Velocity: 66
Note OFF: Time 77736, Note Name: E5
Note ON: Time 77736, Note Name: F5, Velocity: 67
Note OFF: Time 77760, Note Name: F5
Note OFF: Time 77760, Note Name: D#5
Note ON: Time 77760, Note Name: D5, Velocity: 79
Note ON: Time 77760, Note Name: A#5, Velocity: 79
Note OFF: Time 78600, Note Name: A#5
Note ON: Time 78600, Note Name: A#5, Velocity: 79
Note OFF: Time 78720, Note Name: A#5
Note OFF: Time 78720, Note Name: D5
Note ON: Time 78720, Note Name: G4, Velocity: 74
Note ON: Time 78720, Note Name: D#5, Velocity: 85
Note OFF: Time 79200, Note Name: D#5
Note OFF: Time 79200, Note Name: G4
Note ON: Time 79840, Note Name: A4, Velocity: 79
Note OFF: Time 80000, Note Name: A4
Note ON: Time 80000, Note Name: C5, Velocity: 79
Note OFF: Time 80160, Note Name: C5
Note ON: Time 80160, Note Name: A#4, Velocity: 85
Note OFF: Time 80280, Note Name: A#4
Note ON: Time 80320, Note Name: G#4, Velocity: 79
Note OFF: Time 80440, Note Name: G#4
Note ON: Time 80480, Note Name: G4, Velocity: 79
Note OFF: Time 80600, Note Name: G4
Note ON: Time 80640, Note Name: D#4, Velocity: 79
Note ON: Time 80640, Note Name: F4, Velocity: 79
Note OFF: Time 81480, Note Name: F4
Note ON: Time 81480, Note Name: F4, Velocity: 74
Note OFF: Time 81504, Note Name: F4
Note ON: Time 81504, Note Name: G4, Velocity: 68
Note OFF: Time 81528, Note Name: G4
Note ON: Time 81528, Note Name: F4, Velocity: 74
Note OFF: Time 81552, Note Name: F4
Note ON: Time 81552, Note Name: E4, Velocity: 66
Note OFF: Time 81576, Note Name: E4
Note ON: Time 81576, Note Name: F4, Velocity: 67
Note OFF: Time 81600, Note Name: F4
Note OFF: Time 81600, Note Name: D#4
Note ON: Time 81600, Note Name: D4, Velocity: 79
Note ON: Time 81600, Note Name: A#4, Velocity: 79
Note OFF: Time 82440, Note Name: A#4
Note ON: Time 82440, Note Name: A#4, Velocity: 47
Note OFF: Time 82560, Note Name: A#4
Note OFF: Time 82560, Note Name: D4
Note ON: Time 82560, Note Name: D#4, Velocity: 51
Note OFF: Time 83040, Note Name: D#4
Note ON: Time 84420, Note Name: G3, Velocity: 74
Note ON: Time 84435, Note Name: A#3, Velocity: 77
Note ON: Time 84450, Note Name: C#4, Velocity: 81
Note ON: Time 84465, Note Name: D#4, Velocity: 86
Note ON: Time 84480, Note Name: G4, Velocity: 90
Note OFF: Time 84960, Note Name: G4
Note OFF: Time 84960, Note Name: C#4
Note OFF: Time 84960, Note Name: G3
Note OFF: Time 84960, Note Name: A#3
Note OFF: Time 84960, Note Name: D#4
Note ON: Time 86400, Note Name: C4, Velocity: 42
Note ON: Time 86400, Note Name: G#4, Velocity: 50
Note OFF: Time 87120, Note Name: G#4
Note ON: Time 87120, Note Name: A#4, Velocity: 50
Note OFF: Time 87180, Note Name: A#4
Note ON: Time 87180, Note Name: G#4, Velocity: 46
Note OFF: Time 87240, Note Name: G#4
Note ON: Time 87240, Note Name: G4, Velocity: 46
Note OFF: Time 87300, Note Name: G4
Note ON: Time 87300, Note Name: G#4, Velocity: 46
Note OFF: Time 87360, Note Name: G#4
Note OFF: Time 87360, Note Name: C4
Note ON: Time 87360, Note Name: C5, Velocity: 54
Note ON: Time 87360, Note Name: C#4, Velocity: 45
Note OFF: Time 88080, Note Name: C5
Note ON: Time 88080, Note Name: A#4, Velocity: 45
Note OFF: Time 88320, Note Name: A#4
Note OFF: Time 88320, Note Name: C#4
Note ON: Time 88320, Note Name: C4, Velocity: 42
Note ON: Time 88320, Note Name: G#4, Velocity: 50
Note OFF: Time 89280, Note Name: C4
Note OFF: Time 89520, Note Name: G#4
Note ON: Time 89520, Note Name: G4, Velocity: 46
Note OFF: Time 89760, Note Name: G4
Note ON: Time 89760, Note Name: G#4, Velocity: 44
Note OFF: Time 90000, Note Name: G#4
Note ON: Time 90000, Note Name: A4, Velocity: 48
Note OFF: Time 90240, Note Name: A4
Note ON: Time 90240, Note Name: D#4, Velocity: 52
Note ON: Time 90240, Note Name: A#4, Velocity: 52
Note OFF: Time 90720, Note Name: A#4
Note ON: Time 90960, Note Name: C5, Velocity: 50
Note OFF: Time 91020, Note Name: C5
Note ON: Time 91020, Note Name: A#4, Velocity: 46
Note OFF: Time 91080, Note Name: A#4
Note ON: Time 91080, Note Name: A4, Velocity: 46
Note OFF: Time 91140, Note Name: A4
Note ON: Time 91140, Note Name: A#4, Velocity: 46
Note OFF: Time 91200, Note Name: A#4
Note OFF: Time 91200, Note Name: D#4
Note ON: Time 91200, Note Name: C#5, Velocity: 54
Note ON: Time 91200, Note Name: D#4, Velocity: 45
Note OFF: Time 91680, Note Name: D#4
Note ON: Time 91680, Note Name: G#4, Velocity: 45
Note OFF: Time 91920, Note Name: C#5
Note ON: Time 91920, Note Name: C5, Velocity: 45
Note OFF: Time 92160, Note Name: C5
Note OFF: Time 92160, Note Name: G#4
Note ON: Time 92160, Note Name: G4, Velocity: 42
Note ON: Time 92160, Note Name: A#4, Velocity: 50
Note OFF: Time 93120, Note Name: G4
Note OFF: Time 93280, Note Name: A#4
Note ON: Time 93280, Note Name: F5, Velocity: 61
Note OFF: Time 93440, Note Name: F5
Note ON: Time 93440, Note Name: D#5, Velocity: 55
Note OFF: Time 93600, Note Name: D#5
Note ON: Time 93600, Note Name: C#5, Velocity: 62
Note OFF: Time 93720, Note Name: C#5
Note ON: Time 93760, Note Name: C5, Velocity: 60
Note OFF: Time 93880, Note Name: C5
Note ON: Time 93920, Note Name: B4, Velocity: 57
Note OFF: Time 94040, Note Name: B4
Note ON: Time 94080, Note Name: C5, Velocity: 63
Note OFF: Time 94920, Note Name: C5
Note ON: Time 94920, Note Name: G#4, Velocity: 52
Note OFF: Time 95040, Note Name: G#4
Note ON: Time 95040, Note Name: D#5, Velocity: 64
Note OFF: Time 95880, Note Name: D#5
Note ON: Time 95880, Note Name: C5, Velocity: 60
Note OFF: Time 96000, Note Name: C5
Note ON: Time 96000, Note Name: F5, Velocity: 70
Note OFF: Time 96840, Note Name: F5
Note ON: Time 96840, Note Name: C#5, Velocity: 67
Note OFF: Time 96960, Note Name: C#5
Note ON: Time 96960, Note Name: G#5, Velocity: 87
Note ON: Time 97920, Note Name: G#4, Velocity: 84
Note OFF: Time 98160, Note Name: G#5
Note ON: Time 98160, Note Name: G5, Velocity: 63
Note OFF: Time 98400, Note Name: G5
Note ON: Time 98400, Note Name: F5, Velocity: 59
Note OFF: Time 98640, Note Name: F5
Note ON: Time 98640, Note Name: D#5, Velocity: 56
Note OFF: Time 98860, Note Name: D#5
Note OFF: Time 98880, Note Name: G#4
Note ON: Time 98880, Note Name: D#4, Velocity: 37
Note ON: Time 98880, Note Name: D#5, Velocity: 59
Note OFF: Time 99120, Note Name: D#5
Note ON: Time 99120, Note Name: C#5, Velocity: 56
Note OFF: Time 99340, Note Name: C#5
Note OFF: Time 99360, Note Name: D#4
Note ON: Time 99360, Note Name: D#4, Velocity: 37
Note ON: Time 99360, Note Name: C#5, Velocity: 59
Note OFF: Time 99600, Note Name: C#5
Note ON: Time 99600, Note Name: C5, Velocity: 56
Note OFF: Time 99820, Note Name: C5
Note OFF: Time 99840, Note Name: D#4
Note ON: Time 99840, Note Name: D#4, Velocity: 46
Note ON: Time 99840, Note Name: D#5, Velocity: 55
Note OFF: Time 100320, Note Name: D#4
Note ON: Time 100320, Note Name: D#4, Velocity: 39
Note OFF: Time 100560, Note Name: D#5
Note ON: Time 100560, Note Name: C5, Velocity: 51
Note OFF: Time 100800, Note Name: C5
Note OFF: Time 100800, Note Name: D#4
Note ON: Time 100800, Note Name: D#4, Velocity: 45
Note ON: Time 100800, Note Name: A#4, Velocity: 53
Note ON: Time 100800, Note Name: A#4, Velocity: 51
Note OFF: Time 100830, Note Name: A#4
Note ON: Time 100830, Note Name: C5, Velocity: 46
Note OFF: Time 100860, Note Name: C5
Note ON: Time 100860, Note Name: A#4, Velocity: 51
Note OFF: Time 100890, Note Name: A#4
Note ON: Time 100890, Note Name: C5, Velocity: 45
Note OFF: Time 100920, Note Name: C5
Note ON: Time 100920, Note Name: A#4, Velocity: 51
Note OFF: Time 100960, Note Name: A#4
Note ON: Time 100960, Note Name: A4, Velocity: 46
Note OFF: Time 101000, Note Name: A4
Note ON: Time 101000, Note Name: A#4, Velocity: 46
Note OFF: Time 101040, Note Name: A#4
Note ON: Time 101040, Note Name: C#5, Velocity: 57
Note OFF: Time 101160, Note Name: C#5
Note ON: Time 101160, Note Name: C5, Velocity: 48
Note OFF: Time 101280, Note Name: C5
Note OFF: Time 101280, Note Name: A#4
Note OFF: Time 101280, Note Name: D#4
Note ON: Time 101280, Note Name: D#5, Velocity: 55
Note OFF: Time 101400, Note Name: D#5
Note ON: Time 101400, Note Name: C#5, Velocity: 47
Note OFF: Time 101520, Note Name: C#5
Note ON: Time 101520, Note Name: C5, Velocity: 51
Note OFF: Time 101580, Note Name: C5
Note ON: Time 101580, Note Name: D#5, Velocity: 47
Note OFF: Time 101640, Note Name: D#5
Note ON: Time 101640, Note Name: C#5, Velocity: 47
Note OFF: Time 101700, Note Name: C#5
Note ON: Time 101700, Note Name: A#4, Velocity: 47
Note OFF: Time 101760, Note Name: A#4
Note ON: Time 101760, Note Name: C4, Velocity: 42
Note ON: Time 101760, Note Name: G#4, Velocity: 50
Note OFF: Time 102480, Note Name: G#4
Note ON: Time 102480, Note Name: A#4, Velocity: 50
Note OFF: Time 102540, Note Name: A#4
Note ON: Time 102540, Note Name: G#4, Velocity: 46
Note OFF: Time 102600, Note Name: G#4
Note ON: Time 102600, Note Name: G4, Velocity: 46
Note OFF: Time 102660, Note Name: G4
Note ON: Time 102660, Note Name: G#4, Velocity: 46
Note OFF: Time 102720, Note Name: G#4
Note OFF: Time 102720, Note Name: C4
Note ON: Time 102720, Note Name: C5, Velocity: 54
Note ON: Time 102720, Note Name: C#4, Velocity: 45
Note OFF: Time 103440, Note Name: C5
Note ON: Time 103440, Note Name: A#4, Velocity: 45
Note OFF: Time 103680, Note Name: A#4
Note OFF: Time 103680, Note Name: C#4
Note ON: Time 103680, Note Name: C4, Velocity: 42
Note ON: Time 103680, Note Name: G#4, Velocity: 50
Note OFF: Time 104640, Note Name: G#4
Note OFF: Time 104640, Note Name: C4
Note ON: Time 105600, Note Name: D#4, Velocity: 42
Note ON: Time 105600, Note Name: A#4, Velocity: 50
Note OFF: Time 106080, Note Name: A#4
Note ON: Time 106320, Note Name: C5, Velocity: 50
Note OFF: Time 106380, Note Name: C5
Note ON: Time 106380, Note Name: A#4, Velocity: 46
Note OFF: Time 106440, Note Name: A#4
Note ON: Time 106440, Note Name: A4, Velocity: 46
Note OFF: Time 106500, Note Name: A4
Note ON: Time 106500, Note Name: A#4, Velocity: 46
Note OFF: Time 106560, Note Name: A#4
Note OFF: Time 106560, Note Name: D#4
Note ON: Time 106560, Note Name: D#4, Velocity: 45
Note ON: Time 106560, Note Name: C#5, Velocity: 54
Note ON: Time 106560, Note Name: G#4, Velocity: 45
Note OFF: Time 107280, Note Name: C#5
Note ON: Time 107280, Note Name: C5, Velocity: 45
Note OFF: Time 107520, Note Name: C5
Note OFF: Time 107520, Note Name: G#4
Note OFF: Time 107520, Note Name: D#4
Note ON: Time 107520, Note Name: G4, Velocity: 42
Note ON: Time 107520, Note Name: A#4, Velocity: 50
Note OFF: Time 108480, Note Name: A#4
Note OFF: Time 108480, Note Name: G4
Note ON: Time 109410, Note Name: D#4, Velocity: 36
Note ON: Time 109440, Note Name: C5, Velocity: 63
Note OFF: Time 109500, Note Name: D#4
Note OFF: Time 110280, Note Name: C5
Note ON: Time 110280, Note Name: G#4, Velocity: 52
Note ON: Time 110370, Note Name: D#4, Velocity: 43
Note OFF: Time 110400, Note Name: G#4
Note ON: Time 110400, Note Name: D#5, Velocity: 64
Note OFF: Time 110460, Note Name: D#4
Note OFF: Time 111240, Note Name: D#5
Note ON: Time 111240, Note Name: C5, Velocity: 60
Note OFF: Time 111330, Note Name: C5
Note ON: Time 111330, Note Name: F4, Velocity: 44
Note ON: Time 111360, Note Name: F5, Velocity: 70
Note OFF: Time 112960, Note Name: F5
Note OFF: Time 112960, Note Name: F4
Note ON: Time 112960, Note Name: A4, Velocity: 59
Note ON: Time 112960, Note Name: D#5, Velocity: 70
Note OFF: Time 113120, Note Name: D#5
Note OFF: Time 113120, Note Name: A4
Note ON: Time 113120, Note Name: A#4, Velocity: 52
Note ON: Time 113120, Note Name: C#5, Velocity: 62
Note OFF: Time 113280, Note Name: C#5
Note OFF: Time 113280, Note Name: A#4
Note ON: Time 113280, Note Name: G#4, Velocity: 59
Note ON: Time 113280, Note Name: C5, Velocity: 70
Note OFF: Time 113760, Note Name: C5
Note ON: Time 113760, Note Name: D#5, Velocity: 63
Note OFF: Time 114240, Note Name: D#5
Note OFF: Time 114240, Note Name: G#4
Note ON: Time 114240, Note Name: G4, Velocity: 59
Note ON: Time 114240, Note Name: C#5, Velocity: 70
Note OFF: Time 114720, Note Name: C#5
Note ON: Time 114720, Note Name: A#4, Velocity: 60
Note OFF: Time 115200, Note Name: A#4
Note OFF: Time 115200, Note Name: G4
Note ON: Time 115200, Note Name: C#4, Velocity: 59
Note ON: Time 115200, Note Name: A#4, Velocity: 70
Note OFF: Time 115800, Note Name: C#4
Note ON: Time 115800, Note Name: C4, Velocity: 37
Note OFF: Time 115860, Note Name: C4
Note ON: Time 115860, Note Name: C#4, Velocity: 34
Note OFF: Time 115920, Note Name: C#4
Note ON: Time 115920, Note Name: D#4, Velocity: 38
Note OFF: Time 115980, Note Name: D#4
Note ON: Time 115980, Note Name: C#4, Velocity: 34
Note OFF: Time 116040, Note Name: C#4
Note ON: Time 116040, Note Name: C4, Velocity: 34
Note OFF: Time 116100, Note Name: C4
Note ON: Time 116100, Note Name: C#4, Velocity: 34
Note OFF: Time 116160, Note Name: C#4
Note OFF: Time 116160, Note Name: A#4
Note ON: Time 116160, Note Name: C4, Velocity: 42
Note ON: Time 116160, Note Name: G#4, Velocity: 51
Note OFF: Time 116640, Note Name: G#4
Note OFF: Time 116640, Note Name: C4
Note ON: Time 117090, Note Name: F5, Velocity: 78
Note ON: Time 117120, Note Name: F6, Velocity: 91
Note OFF: Time 117180, Note Name: F5
Note OFF: Time 117840, Note Name: F6
Note ON: Time 117840, Note Name: D#6, Velocity: 65
Note ON: Time 117874, Note Name: C6, Velocity: 63
Note OFF: Time 117875, Note Name: D#6
Note OFF: Time 117909, Note Name: C6
Note ON: Time 117909, Note Name: A5, Velocity: 62
Note ON: Time 117943, Note Name: F5, Velocity: 61
Note OFF: Time 117943, Note Name: A5
Note OFF: Time 117977, Note Name: F5
Note ON: Time 117977, Note Name: D#5, Velocity: 59
Note ON: Time 118011, Note Name: C5, Velocity: 57
Note OFF: Time 118012, Note Name: D#5
Note ON: Time 118045, Note Name: A4, Velocity: 56
Note OFF: Time 118046, Note Name: C5
Note OFF: Time 118080, Note Name: A4
Note ON: Time 118080, Note Name: F4, Velocity: 78
Note OFF: Time 118320, Note Name: F4
Note ON: Time 118920, Note Name: C4, Velocity: 45
Note ON: Time 118920, Note Name: D#4, Velocity: 54
Note OFF: Time 119030, Note Name: D#4
Note OFF: Time 119030, Note Name: C4
Note ON: Time 119040, Note Name: C4, Velocity: 48
Note ON: Time 119040, Note Name: D#4, Velocity: 57
Note OFF: Time 120000, Note Name: D#4
Note OFF: Time 120000, Note Name: C4
Note ON: Time 120000, Note Name: A#3, Velocity: 38
Note ON: Time 120000, Note Name: C#4, Velocity: 45
Note OFF: Time 120480, Note Name: C#4
Note OFF: Time 120480, Note Name: A#3
Note ON: Time 120930, Note Name: D#5, Velocity: 78
Note ON: Time 120960, Note Name: D#6, Velocity: 91
Note OFF: Time 121020, Note Name: D#5
Note OFF: Time 121680, Note Name: D#6
Note ON: Time 121680, Note Name: C#6, Velocity: 65
Note ON: Time 121714, Note Name: A#5, Velocity: 63
Note OFF: Time 121715, Note Name: C#6
Note OFF: Time 121749, Note Name: A#5
Note ON: Time 121749, Note Name: G5, Velocity: 62
Note ON: Time 121783, Note Name: D#5, Velocity: 61
Note OFF: Time 121783, Note Name: G5
Note OFF: Time 121817, Note Name: D#5
Note ON: Time 121817, Note Name: C#5, Velocity: 59
Note ON: Time 121851, Note Name: A#4, Velocity: 57
Note OFF: Time 121852, Note Name: C#5
Note ON: Time 121885, Note Name: G4, Velocity: 56
Note OFF: Time 121886, Note Name: A#4
Note OFF: Time 121920, Note Name: G4
Note ON: Time 121920, Note Name: D#4, Velocity: 78
Note OFF: Time 122160, Note Name: D#4
Note ON: Time 122760, Note Name: A#3, Velocity: 45
Note ON: Time 122760, Note Name: C#4, Velocity: 54
Note OFF: Time 122870, Note Name: C#4
Note OFF: Time 122870, Note Name: A#3
Note ON: Time 122880, Note Name: A#3, Velocity: 48
Note ON: Time 122880, Note Name: C#4, Velocity: 57
Note OFF: Time 123840, Note Name: C#4
Note OFF: Time 123840, Note Name: A#3
Note ON: Time 123840, Note Name: G#3, Velocity: 38
Note ON: Time 123840, Note Name: B3, Velocity: 45
Note OFF: Time 124320, Note Name: B3
Note OFF: Time 124320, Note Name: G#3
Note ON: Time 126600, Note Name: G#3, Velocity: 69
Note ON: Time 126600, Note Name: E3, Velocity: 69
Note ON: Time 126600, Note Name: E4, Velocity: 69
Note OFF: Time 126710, Note Name: E4
Note OFF: Time 126710, Note Name: E3
Note OFF: Time 126710, Note Name: G#3
Note ON: Time 126720, Note Name: F#3, Velocity: 73
Note ON: Time 126720, Note Name: A3, Velocity: 73
Note ON: Time 126720, Note Name: E4, Velocity: 73
Note OFF: Time 127680, Note Name: E4
Note ON: Time 127680, Note Name: D#4, Velocity: 61
Note OFF: Time 128160, Note Name: D#4
Note OFF: Time 128160, Note Name: A3
Note OFF: Time 128160, Note Name: F#3
Note ON: Time 128520, Note Name: G#3, Velocity: 69
Note ON: Time 128520, Note Name: F3, Velocity: 69
Note ON: Time 128520, Note Name: D#4, Velocity: 69
Note OFF: Time 128630, Note Name: D#4
Note OFF: Time 128630, Note Name: F3
Note OFF: Time 128630, Note Name: G#3
Note ON: Time 128640, Note Name: F3, Velocity: 73
Note ON: Time 128640, Note Name: G#3, Velocity: 73
Note ON: Time 128640, Note Name: D#4, Velocity: 73
Note OFF: Time 129600, Note Name: D#4
Note ON: Time 129600, Note Name: D4, Velocity: 61
Note OFF: Time 130080, Note Name: D4
Note OFF: Time 130080, Note Name: G#3
Note OFF: Time 130080, Note Name: F3
Note ON: Time 130440, Note Name: G#3, Velocity: 69
Note ON: Time 130440, Note Name: F3, Velocity: 69
Note ON: Time 130440, Note Name: D4, Velocity: 69
Note OFF: Time 130550, Note Name: D4
Note OFF: Time 130550, Note Name: F3
Note OFF: Time 130550, Note Name: G#3
Note ON: Time 130560, Note Name: F3, Velocity: 73
Note ON: Time 130560, Note Name: G#3, Velocity: 73
Note ON: Time 130560, Note Name: D4, Velocity: 73
Note OFF: Time 131520, Note Name: D4
Note OFF: Time 131520, Note Name: G#3
Note ON: Time 131520, Note Name: A#3, Velocity: 54
Note ON: Time 131520, Note Name: C#4, Velocity: 61
Note OFF: Time 131760, Note Name: C#4
Note OFF: Time 131760, Note Name: A#3
Note ON: Time 131760, Note Name: A4, Velocity: 46
Note OFF: Time 132000, Note Name: F3
Note ON: Time 132000, Note Name: A#4, Velocity: 54
Note OFF: Time 132012, Note Name: A4
Note OFF: Time 132216, Note Name: A#4
Note ON: Time 132240, Note Name: C5, Velocity: 46
Note ON: Time 132480, Note Name: C#5, Velocity: 54
Note OFF: Time 132492, Note Name: C5
Note OFF: Time 132696, Note Name: C#5
Note ON: Time 132720, Note Name: F#5, Velocity: 50
Note OFF: Time 132960, Note Name: F#5
Note ON: Time 132960, Note Name: G5, Velocity: 60
Note OFF: Time 133176, Note Name: G5
Note ON: Time 133200, Note Name: A5, Velocity: 50
Note ON: Time 133440, Note Name: A#5, Velocity: 60
Note OFF: Time 133452, Note Name: A5
Note OFF: Time 133656, Note Name: A#5
Note ON: Time 133680, Note Name: C6, Velocity: 50
Note ON: Time 133920, Note Name: C#6, Velocity: 60
Note OFF: Time 133932, Note Name: C6
Note OFF: Time 134160, Note Name: C#6
Note ON: Time 134160, Note Name: A#5, Velocity: 50
Note OFF: Time 134400, Note Name: A#5
Note ON: Time 134400, Note Name: G5, Velocity: 60
Note OFF: Time 135600, Note Name: G5
Note ON: Time 135600, Note Name: G#5, Velocity: 55
Note OFF: Time 135660, Note Name: G#5
Note ON: Time 135660, Note Name: G5, Velocity: 55
Note OFF: Time 135720, Note Name: G5
Note ON: Time 135720, Note Name: F5, Velocity: 55
Note OFF: Time 135780, Note Name: F5
Note ON: Time 135780, Note Name: G5, Velocity: 55
Note OFF: Time 135840, Note Name: G5
Note ON: Time 135840, Note Name: G#5, Velocity: 60
Note OFF: Time 136200, Note Name: G#5
Note ON: Time 136200, Note Name: A#5, Velocity: 60
Note OFF: Time 136320, Note Name: A#5
Note ON: Time 136320, Note Name: A#5, Velocity: 60
Note OFF: Time 136800, Note Name: A#5
Note ON: Time 136800, Note Name: G#5, Velocity: 60
Note OFF: Time 137760, Note Name: G#5
Note ON: Time 137760, Note Name: A5, Velocity: 60
Note OFF: Time 138240, Note Name: A5
Note ON: Time 138240, Note Name: A#5, Velocity: 60
Note OFF: Time 139440, Note Name: A#5
Note ON: Time 139440, Note Name: C6, Velocity: 55
Note OFF: Time 139500, Note Name: C6
Note ON: Time 139500, Note Name: A#5, Velocity: 55
Note OFF: Time 139560, Note Name: A#5
Note ON: Time 139560, Note Name: A5, Velocity: 55
Note OFF: Time 139620, Note Name: A5
Note ON: Time 139620, Note Name: A#5, Velocity: 55
Note OFF: Time 139680, Note Name: A#5
Note ON: Time 139680, Note Name: C6, Velocity: 60
Note OFF: Time 140040, Note Name: C6
Note ON: Time 140040, Note Name: C#6, Velocity: 60
Note OFF: Time 140160, Note Name: C#6
Note ON: Time 140160, Note Name: C#6, Velocity: 60
Note OFF: Time 140640, Note Name: C#6
Note ON: Time 140640, Note Name: C6, Velocity: 60
Note OFF: Time 141120, Note Name: C6
Note ON: Time 142120, Note Name: G4, Velocity: 30
Note OFF: Time 142160, Note Name: G4
Note ON: Time 142161, Note Name: G#4, Velocity: 30
Note OFF: Time 142201, Note Name: G#4
Note ON: Time 142201, Note Name: A#4, Velocity: 41
Note OFF: Time 142241, Note Name: A#4
Note ON: Time 142241, Note Name: G#4, Velocity: 33
Note OFF: Time 142281, Note Name: G#4
Note ON: Time 142281, Note Name: G4, Velocity: 33
Note OFF: Time 142321, Note Name: G4
Note ON: Time 142321, Note Name: C#5, Velocity: 42
Note OFF: Time 142361, Note Name: C#5
Note ON: Time 142361, Note Name: C5, Velocity: 36
Note OFF: Time 142401, Note Name: C5
Note ON: Time 142401, Note Name: A#4, Velocity: 39
Note OFF: Time 142441, Note Name: A#4
Note ON: Time 142442, Note Name: G5, Velocity: 51
Note OFF: Time 142482, Note Name: G5
Note ON: Time 142482, Note Name: F5, Velocity: 39
Note OFF: Time 142522, Note Name: F5
Note ON: Time 142522, Note Name: D#5, Velocity: 42
Note ON: Time 142560, Note Name: A#5, Velocity: 57
Note OFF: Time 142562, Note Name: D#5
Note OFF: Time 142600, Note Name: A#5
Note ON: Time 142600, Note Name: G#5, Velocity: 46
Note OFF: Time 142640, Note Name: G#5
Note ON: Time 142640, Note Name: G5, Velocity: 49
Note OFF: Time 142680, Note Name: G5
Note ON: Time 142680, Note Name: C#6, Velocity: 59
Note OFF: Time 142720, Note Name: C#6
Note ON: Time 142720, Note Name: C6, Velocity: 50
Note OFF: Time 142760, Note Name: C6
Note ON: Time 142760, Note Name: A#5, Velocity: 55
Note OFF: Time 142800, Note Name: A#5
Note ON: Time 142800, Note Name: F6, Velocity: 69
Note OFF: Time 143760, Note Name: F6
Note ON: Time 143760, Note Name: F6, Velocity: 54
Note OFF: Time 143794, Note Name: F6
Note ON: Time 143794, Note Name: D#6, Velocity: 53
Note OFF: Time 143828, Note Name: D#6
Note ON: Time 143829, Note Name: C#6, Velocity: 52
Note OFF: Time 143863, Note Name: C#6
Note ON: Time 143863, Note Name: C6, Velocity: 52
Note OFF: Time 143897, Note Name: C6
Note ON: Time 143897, Note Name: A#5, Velocity: 51
Note OFF: Time 143931, Note Name: A#5
Note ON: Time 143931, Note Name: G#5, Velocity: 50
Note OFF: Time 143965, Note Name: G#5
Note ON: Time 143965, Note Name: G5, Velocity: 49
Note OFF: Time 143999, Note Name: G5
Note ON: Time 144000, Note Name: A#5, Velocity: 56
Note OFF: Time 144360, Note Name: A#5
Note ON: Time 144360, Note Name: G#5, Velocity: 44
Note OFF: Time 144480, Note Name: G#5
Note ON: Time 144480, Note Name: G5, Velocity: 47
Note OFF: Time 144660, Note Name: G5
Note ON: Time 144660, Note Name: G#5, Velocity: 44
Note OFF: Time 144720, Note Name: G#5
Note ON: Time 144720, Note Name: A#5, Velocity: 51
Note OFF: Time 144900, Note Name: A#5
Note ON: Time 144900, Note Name: G#5, Velocity: 45
Note OFF: Time 144960, Note Name: G#5
Note ON: Time 144960, Note Name: G#4, Velocity: 57
Note OFF: Time 145440, Note Name: G#4
Note ON: Time 145960, Note Name: A#4, Velocity: 30
Note OFF: Time 146000, Note Name: A#4
Note ON: Time 146001, Note Name: C5, Velocity: 30
Note OFF: Time 146041, Note Name: C5
Note ON: Time 146041, Note Name: C#5, Velocity: 41
Note OFF: Time 146081, Note Name: C#5
Note ON: Time 146081, Note Name: C5, Velocity: 33
Note OFF: Time 146121, Note Name: C5
Note ON: Time 146121, Note Name: A#4, Velocity: 33
Note OFF: Time 146161, Note Name: A#4
Note ON: Time 146161, Note Name: G5, Velocity: 47
Note OFF: Time 146201, Note Name: G5
Note ON: Time 146201, Note Name: F5, Velocity: 38
Note OFF: Time 146241, Note Name: F5
Note ON: Time 146241, Note Name: D#5, Velocity: 39
Note OFF: Time 146281, Note Name: D#5
Note ON: Time 146282, Note Name: A#5, Velocity: 51
Note OFF: Time 146322, Note Name: A#5
Note ON: Time 146322, Note Name: G#5, Velocity: 46
Note OFF: Time 146362, Note Name: G#5
Note ON: Time 146362, Note Name: G5, Velocity: 48
Note ON: Time 146400, Note Name: C#6, Velocity: 69
Note OFF: Time 146402, Note Name: G5
Note OFF: Time 147600, Note Name: C#6
Note ON: Time 147600, Note Name: C6, Velocity: 50
Note OFF: Time 147622, Note Name: C6
Note ON: Time 147622, Note Name: C#6, Velocity: 52
Note OFF: Time 147644, Note Name: C#6
Note ON: Time 147644, Note Name: D#6, Velocity: 55
Note ON: Time 147666, Note Name: C#6, Velocity: 58
Note OFF: Time 147666, Note Name: D#6
Note OFF: Time 147688, Note Name: C#6
Note ON: Time 147688, Note Name: C6, Velocity: 58
Note OFF: Time 147710, Note Name: C6
Note ON: Time 147710, Note Name: A#5, Velocity: 57
Note OFF: Time 147732, Note Name: A#5
Note ON: Time 147732, Note Name: G#5, Velocity: 56
Note OFF: Time 147754, Note Name: G#5
Note ON: Time 147754, Note Name: G5, Velocity: 55
Note ON: Time 147775, Note Name: F5, Velocity: 54
Note OFF: Time 147776, Note Name: G5
Note OFF: Time 147797, Note Name: F5
Note ON: Time 147797, Note Name: D#5, Velocity: 53
Note OFF: Time 147819, Note Name: D#5
Note ON: Time 147819, Note Name: C#5, Velocity: 52
Note ON: Time 147840, Note Name: C5, Velocity: 62
Note OFF: Time 147841, Note Name: C#5
Note OFF: Time 148560, Note Name: C5
Note ON: Time 148680, Note Name: C5, Velocity: 64
Note OFF: Time 148800, Note Name: C5
Note ON: Time 148800, Note Name: C#5, Velocity: 71
Note OFF: Time 149520, Note Name: C#5
Note ON: Time 149640, Note Name: C#5, Velocity: 71
Note OFF: Time 149760, Note Name: C#5
Note ON: Time 149760, Note Name: D#5, Velocity: 81
Note OFF: Time 150480, Note Name: D#5
Note ON: Time 150600, Note Name: D#5, Velocity: 78
Note OFF: Time 150720, Note Name: D#5
Note ON: Time 150720, Note Name: E5, Velocity: 89
Note OFF: Time 151440, Note Name: E5
Note ON: Time 151560, Note Name: E5, Velocity: 84
Note OFF: Time 151680, Note Name: E5
Note ON: Time 151680, Note Name: F5, Velocity: 92
Note OFF: Time 152400, Note Name: F5
Note ON: Time 152520, Note Name: F5, Velocity: 88
Note OFF: Time 152640, Note Name: F5
Note ON: Time 152640, Note Name: G5, Velocity: 94
Note OFF: Time 153360, Note Name: G5
Note ON: Time 153480, Note Name: G5, Velocity: 93
Note OFF: Time 153600, Note Name: G5
Note ON: Time 153600, Note Name: G#5, Velocity: 100
Note OFF: Time 154320, Note Name: G#5
Note ON: Time 154440, Note Name: A#5, Velocity: 86
Note OFF: Time 154470, Note Name: A#5
Note ON: Time 154470, Note Name: G#5, Velocity: 89
Note OFF: Time 154500, Note Name: G#5
Note ON: Time 154500, Note Name: G5, Velocity: 91
Note OFF: Time 154530, Note Name: G5
Note ON: Time 154530, Note Name: G#5, Velocity: 93
Note OFF: Time 154560, Note Name: G#5
Note ON: Time 154560, Note Name: A#5, Velocity: 95
Note OFF: Time 154800, Note Name: A#5
Note ON: Time 154800, Note Name: G#5, Velocity: 87
Note OFF: Time 155040, Note Name: G#5
Note ON: Time 155040, Note Name: G5, Velocity: 77
Note OFF: Time 155220, Note Name: G5
Note ON: Time 155280, Note Name: F5, Velocity: 67
Note OFF: Time 155460, Note Name: F5
Note ON: Time 155520, Note Name: D#5, Velocity: 60
Note ON: Time 155760, Note Name: D5, Velocity: 55
Note OFF: Time 155772, Note Name: D#5
Note ON: Time 156000, Note Name: F5, Velocity: 60
Note OFF: Time 156012, Note Name: D5
Note ON: Time 156240, Note Name: D#5, Velocity: 55
Note OFF: Time 156252, Note Name: F5
Note ON: Time 156480, Note Name: C#5, Velocity: 60
Note OFF: Time 156492, Note Name: D#5
Note ON: Time 156720, Note Name: C5, Velocity: 56
Note OFF: Time 156732, Note Name: C#5
Note ON: Time 156960, Note Name: A#4, Velocity: 60
Note OFF: Time 156972, Note Name: C5
Note ON: Time 157200, Note Name: D#5, Velocity: 57
Note OFF: Time 157212, Note Name: A#4
Note OFF: Time 157440, Note Name: D#5
Note ON: Time 157440, Note Name: B4, Velocity: 60
Note OFF: Time 157600, Note Name: B4
Note ON: Time 157600, Note Name: C5, Velocity: 51
Note OFF: Time 157760, Note Name: C5
Note ON: Time 157760, Note Name: C4, Velocity: 43
Note OFF: Time 157920, Note Name: C4
Note ON: Time 158080, Note Name: C5, Velocity: 60
Note OFF: Time 158240, Note Name: C5
Note ON: Time 158240, Note Name: C4, Velocity: 52
Note OFF: Time 158400, Note Name: C4
Note ON: Time 158400, Note Name: C5, Velocity: 60
Note OFF: Time 158560, Note Name: C5
Note ON: Time 158560, Note Name: C#5, Velocity: 51
Note OFF: Time 158720, Note Name: C#5
Note ON: Time 158720, Note Name: C#4, Velocity: 43
Note OFF: Time 158880, Note Name: C#4
Note ON: Time 159040, Note Name: C#5, Velocity: 60
Note OFF: Time 159200, Note Name: C#5
Note ON: Time 159200, Note Name: C#4, Velocity: 54
Note OFF: Time 159360, Note Name: C#4
Note ON: Time 159360, Note Name: D5, Velocity: 60
Note OFF: Time 159520, Note Name: D5
Note ON: Time 159520, Note Name: D#5, Velocity: 51
Note OFF: Time 159680, Note Name: D#5
Note ON: Time 159680, Note Name: D#4, Velocity: 44
Note OFF: Time 159840, Note Name: D#4
Note ON: Time 160000, Note Name: D#5, Velocity: 64
Note OFF: Time 160160, Note Name: D#5
Note ON: Time 160160, Note Name: D#4, Velocity: 56
Note OFF: Time 160320, Note Name: D#4
Note ON: Time 160320, Note Name: D#5, Velocity: 66
Note OFF: Time 160480, Note Name: D#5
Note ON: Time 160480, Note Name: E5, Velocity: 63
Note OFF: Time 160640, Note Name: E5
Note ON: Time 160640, Note Name: E4, Velocity: 58
Note OFF: Time 160800, Note Name: E4
Note ON: Time 160960, Note Name: E5, Velocity: 70
Note OFF: Time 161120, Note Name: E5
Note ON: Time 161120, Note Name: E4, Velocity: 64
Note OFF: Time 161280, Note Name: E4
Note ON: Time 161280, Note Name: E5, Velocity: 73
Note OFF: Time 161440, Note Name: E5
Note ON: Time 161440, Note Name: F5, Velocity: 70
Note OFF: Time 161600, Note Name: F5
Note ON: Time 161600, Note Name: F4, Velocity: 63
Note OFF: Time 161760, Note Name: F4
Note ON: Time 161920, Note Name: F5, Velocity: 77
Note OFF: Time 162080, Note Name: F5
Note ON: Time 162080, Note Name: F4, Velocity: 68
Note OFF: Time 162240, Note Name: F4
Note ON: Time 162240, Note Name: F#5, Velocity: 79
Note OFF: Time 162400, Note Name: F#5
Note ON: Time 162400, Note Name: G5, Velocity: 77
Note OFF: Time 162560, Note Name: G5
Note ON: Time 162560, Note Name: G4, Velocity: 69
Note OFF: Time 162720, Note Name: G4
Note ON: Time 162880, Note Name: G5, Velocity: 84
Note OFF: Time 163040, Note Name: G5
Note ON: Time 163040, Note Name: G4, Velocity: 76
Note OFF: Time 163200, Note Name: G4
Note ON: Time 163200, Note Name: G5, Velocity: 86
Note OFF: Time 163360, Note Name: G5
Note ON: Time 163360, Note Name: G#5, Velocity: 81
Note OFF: Time 163520, Note Name: G#5
Note ON: Time 163520, Note Name: G#4, Velocity: 75
Note OFF: Time 163680, Note Name: G#4
Note ON: Time 163840, Note Name: G#5, Velocity: 87
Note OFF: Time 164000, Note Name: G#5
Note ON: Time 164000, Note Name: G#4, Velocity: 81
Note OFF: Time 164160, Note Name: G#4
Note ON: Time 164160, Note Name: B5, Velocity: 87
Note OFF: Time 164320, Note Name: B5
Note ON: Time 164320, Note Name: B4, Velocity: 79
Note OFF: Time 164480, Note Name: B4
Note ON: Time 164480, Note Name: B5, Velocity: 87
Note OFF: Time 164640, Note Name: B5
Note ON: Time 164640, Note Name: G#4, Velocity: 79
Note OFF: Time 164800, Note Name: G#4
Note ON: Time 164800, Note Name: G#5, Velocity: 86
Note OFF: Time 164960, Note Name: G#5
Note ON: Time 164960, Note Name: G#4, Velocity: 79
Note OFF: Time 165120, Note Name: G#4
Note ON: Time 165120, Note Name: D#5, Velocity: 88
Note OFF: Time 166240, Note Name: D#5
Note ON: Time 166240, Note Name: D6, Velocity: 79
Note OFF: Time 166400, Note Name: D6
Note ON: Time 166400, Note Name: F6, Velocity: 79
Note OFF: Time 166560, Note Name: F6
Note ON: Time 166560, Note Name: D#6, Velocity: 85
Note OFF: Time 166680, Note Name: D#6
Note ON: Time 166720, Note Name: C#6, Velocity: 79
Note OFF: Time 166840, Note Name: C#6
Note ON: Time 166880, Note Name: C6, Velocity: 79
Note OFF: Time 167000, Note Name: C6
Note ON: Time 167040, Note Name: G#5, Velocity: 79
Note ON: Time 167040, Note Name: A#5, Velocity: 79
Note OFF: Time 167880, Note Name: A#5
Note ON: Time 167880, Note Name: A#5, Velocity: 74
Note OFF: Time 167904, Note Name: A#5
Note ON: Time 167904, Note Name: C6, Velocity: 68
Note OFF: Time 167928, Note Name: C6
Note ON: Time 167928, Note Name: A#5, Velocity: 74
Note OFF: Time 167952, Note Name: A#5
Note ON: Time 167952, Note Name: A5, Velocity: 66
Note OFF: Time 167976, Note Name: A5
Note ON: Time 167976, Note Name: A#5, Velocity: 67
Note OFF: Time 168000, Note Name: A#5
Note OFF: Time 168000, Note Name: G#5
Note ON: Time 168000, Note Name: G5, Velocity: 79
Note ON: Time 168000, Note Name: D#6, Velocity: 79
Note OFF: Time 168840, Note Name: D#6
Note ON: Time 168840, Note Name: D#6, Velocity: 79
Note OFF: Time 168960, Note Name: D#6
Note OFF: Time 168960, Note Name: G5
Note ON: Time 168960, Note Name: C5, Velocity: 74
Note ON: Time 168960, Note Name: G#5, Velocity: 85
Note OFF: Time 169440, Note Name: G#5
Note OFF: Time 169440, Note Name: C5
Note ON: Time 170080, Note Name: D5, Velocity: 79
Note OFF: Time 170240, Note Name: D5
Note ON: Time 170240, Note Name: F5, Velocity: 79
Note OFF: Time 170400, Note Name: F5
Note ON: Time 170400, Note Name: D#5, Velocity: 85
Note OFF: Time 170520, Note Name: D#5
Note ON: Time 170560, Note Name: C#5, Velocity: 79
Note OFF: Time 170680, Note Name: C#5
Note ON: Time 170720, Note Name: C5, Velocity: 79
Note OFF: Time 170840, Note Name: C5
Note ON: Time 170880, Note Name: G#4, Velocity: 79
Note ON: Time 170880, Note Name: A#4, Velocity: 79
Note OFF: Time 171720, Note Name: A#4
Note ON: Time 171720, Note Name: A#4, Velocity: 74
Note OFF: Time 171744, Note Name: A#4
Note ON: Time 171744, Note Name: C5, Velocity: 68
Note OFF: Time 171768, Note Name: C5
Note ON: Time 171768, Note Name: A#4, Velocity: 74
Note OFF: Time 171792, Note Name: A#4
Note ON: Time 171792, Note Name: A4, Velocity: 66
Note OFF: Time 171816, Note Name: A4
Note ON: Time 171816, Note Name: A#4, Velocity: 67
Note OFF: Time 171840, Note Name: A#4
Note OFF: Time 171840, Note Name: G#4
Note ON: Time 171840, Note Name: G4, Velocity: 79
Note ON: Time 171840, Note Name: D#5, Velocity: 79
Note OFF: Time 172680, Note Name: D#5
Note ON: Time 172680, Note Name: D#5, Velocity: 61
Note OFF: Time 172800, Note Name: D#5
Note OFF: Time 172800, Note Name: G4
Note ON: Time 172800, Note Name: C4, Velocity: 30
Note ON: Time 172800, Note Name: D#4, Velocity: 30
Note ON: Time 172800, Note Name: G#4, Velocity: 50
Note OFF: Time 173028, Note Name: D#4
Note OFF: Time 173028, Note Name: C4
Note ON: Time 173040, Note Name: C4, Velocity: 30
Note ON: Time 173040, Note Name: D#4, Velocity: 30
Note OFF: Time 173496, Note Name: D#4
Note OFF: Time 173496, Note Name: C4
Note ON: Time 173520, Note Name: C4, Velocity: 30
Note ON: Time 173520, Note Name: D#4, Velocity: 30
Note OFF: Time 173748, Note Name: D#4
Note OFF: Time 173748, Note Name: C4
Note OFF: Time 173760, Note Name: G#4
Note ON: Time 173760, Note Name: C#4, Velocity: 30
Note ON: Time 173760, Note Name: D#4, Velocity: 30
Note ON: Time 173760, Note Name: C5, Velocity: 54
Note OFF: Time 173988, Note Name: D#4
Note OFF: Time 173988, Note Name: C#4
Note ON: Time 174000, Note Name: C#4, Velocity: 30
Note ON: Time 174000, Note Name: D#4, Velocity: 30
Note OFF: Time 174456, Note Name: D#4
Note OFF: Time 174456, Note Name: C#4
Note OFF: Time 174480, Note Name: C5
Note ON: Time 174480, Note Name: D#4, Velocity: 30
Note ON: Time 174480, Note Name: C#4, Velocity: 30
Note ON: Time 174480, Note Name: A#4, Velocity: 45
Note OFF: Time 174708, Note Name: C#4
Note OFF: Time 174708, Note Name: D#4
Note OFF: Time 174720, Note Name: A#4
Note ON: Time 174720, Note Name: C4, Velocity: 30
Note ON: Time 174720, Note Name: D#4, Velocity: 30
Note ON: Time 174720, Note Name: G#4, Velocity: 50
Note OFF: Time 174948, Note Name: D#4
Note OFF: Time 174948, Note Name: C4
Note ON: Time 174960, Note Name: C4, Velocity: 30
Note ON: Time 174960, Note Name: D#4, Velocity: 30
Note OFF: Time 175416, Note Name: D#4
Note OFF: Time 175416, Note Name: C4
Note ON: Time 175440, Note Name: D#4, Velocity: 30
Note ON: Time 175440, Note Name: C4, Velocity: 30
Note OFF: Time 175896, Note Name: C4
Note OFF: Time 175896, Note Name: D#4
Note ON: Time 175920, Note Name: C4, Velocity: 30
Note ON: Time 175920, Note Name: D#4, Velocity: 30
Note OFF: Time 176376, Note Name: D#4
Note OFF: Time 176376, Note Name: C4
Note OFF: Time 176400, Note Name: G#4
Note ON: Time 176400, Note Name: A4, Velocity: 44
Note ON: Time 176400, Note Name: C4, Velocity: 30
Note ON: Time 176400, Note Name: D#4, Velocity: 30
Note OFF: Time 176628, Note Name: D#4
Note OFF: Time 176628, Note Name: C4
Note OFF: Time 176640, Note Name: A4
Note ON: Time 176640, Note Name: C#4, Velocity: 30
Note ON: Time 176640, Note Name: D#4, Velocity: 30
Note ON: Time 176640, Note Name: A#4, Velocity: 52
Note OFF: Time 176868, Note Name: D#4
Note OFF: Time 176868, Note Name: C#4
Note ON: Time 176880, Note Name: D#4, Velocity: 35
Note OFF: Time 177336, Note Name: D#4
Note OFF: Time 177360, Note Name: A#4
Note ON: Time 177360, Note Name: D#4, Velocity: 30
Note ON: Time 177360, Note Name: C5, Velocity: 50
Note OFF: Time 177420, Note Name: C5
Note ON: Time 177420, Note Name: A#4, Velocity: 46
Note OFF: Time 177480, Note Name: A#4
Note ON: Time 177480, Note Name: A4, Velocity: 46
Note OFF: Time 177540, Note Name: A4
Note ON: Time 177540, Note Name: A#4, Velocity: 46
Note OFF: Time 177600, Note Name: A#4
Note ON: Time 177600, Note Name: C#5, Velocity: 54
Note ON: Time 177600, Note Name: G#4, Velocity: 45
Note OFF: Time 177816, Note Name: D#4
Note ON: Time 177840, Note Name: D#4, Velocity: 30
Note OFF: Time 178296, Note Name: D#4
Note OFF: Time 178320, Note Name: G#4
Note OFF: Time 178320, Note Name: C#5
Note ON: Time 178320, Note Name: D#4, Velocity: 30
Note ON: Time 178320, Note Name: G#4, Velocity: 45
Note ON: Time 178320, Note Name: C5, Velocity: 45
Note OFF: Time 178560, Note Name: C5
Note OFF: Time 178560, Note Name: G#4
Note ON: Time 178560, Note Name: G4, Velocity: 42
Note ON: Time 178560, Note Name: A#4, Velocity: 50
Note OFF: Time 178776, Note Name: D#4
Note ON: Time 178800, Note Name: D#4, Velocity: 37
Note OFF: Time 179256, Note Name: D#4
Note ON: Time 179280, Note Name: D#4, Velocity: 41
Note OFF: Time 179736, Note Name: D#4
Note ON: Time 179760, Note Name: D#4, Velocity: 39
Note OFF: Time 180216, Note Name: D#4
Note ON: Time 180240, Note Name: D#4, Velocity: 34
Note OFF: Time 180480, Note Name: A#4
Note OFF: Time 180480, Note Name: G4
Note ON: Time 180480, Note Name: D#5, Velocity: 66
Note OFF: Time 180696, Note Name: D#4
Note ON: Time 180720, Note Name: D#4, Velocity: 53
Note OFF: Time 181176, Note Name: D#4
Note ON: Time 181200, Note Name: D#4, Velocity: 52
Note OFF: Time 181440, Note Name: D#5
Note ON: Time 181440, Note Name: C#5, Velocity: 63
Note OFF: Time 181656, Note Name: D#4
Note ON: Time 181680, Note Name: D#4, Velocity: 51
Note OFF: Time 182136, Note Name: D#4
Note ON: Time 182160, Note Name: D#4, Velocity: 52
Note OFF: Time 182400, Note Name: C#5
Note ON: Time 182400, Note Name: C5, Velocity: 66
Note OFF: Time 182616, Note Name: D#4
Note ON: Time 182640, Note Name: D#4, Velocity: 49
Note OFF: Time 183096, Note Name: D#4
Note ON: Time 183120, Note Name: E4, Velocity: 46
Note OFF: Time 183360, Note Name: C5
Note ON: Time 183360, Note Name: A#4, Velocity: 58
Note OFF: Time 183576, Note Name: E4
Note ON: Time 183600, Note Name: F4, Velocity: 54
Note OFF: Time 183840, Note Name: A#4
Note ON: Time 183840, Note Name: C#5, Velocity: 64
Note OFF: Time 184056, Note Name: F4
Note ON: Time 184080, Note Name: F4, Velocity: 50
Note OFF: Time 184200, Note Name: C#5
Note ON: Time 184200, Note Name: A#4, Velocity: 55
Note OFF: Time 184320, Note Name: A#4
Note ON: Time 184320, Note Name: G#4, Velocity: 66
Note OFF: Time 184560, Note Name: F4
Note ON: Time 184560, Note Name: D#4, Velocity: 47
Note OFF: Time 185016, Note Name: D#4
Note ON: Time 185040, Note Name: D#4, Velocity: 43
Note OFF: Time 185280, Note Name: G#4
Note ON: Time 185280, Note Name: A4, Velocity: 58
Note OFF: Time 185496, Note Name: D#4
Note ON: Time 185520, Note Name: D#4, Velocity: 45
Note OFF: Time 185760, Note Name: A4
Note ON: Time 185760, Note Name: A#4, Velocity: 59
Note OFF: Time 185976, Note Name: D#4
Note ON: Time 186000, Note Name: D#4, Velocity: 49
Note OFF: Time 186240, Note Name: A#4
Note ON: Time 186240, Note Name: B4, Velocity: 64
Note OFF: Time 186456, Note Name: D#4
Note ON: Time 186480, Note Name: D#4, Velocity: 55
Note OFF: Time 186720, Note Name: B4
Note ON: Time 186720, Note Name: C4, Velocity: 56
Note ON: Time 186720, Note Name: C5, Velocity: 67
Note OFF: Time 186936, Note Name: D#4
Note ON: Time 186960, Note Name: D#4, Velocity: 55
Note OFF: Time 187200, Note Name: C5
Note OFF: Time 187200, Note Name: C4
Note ON: Time 187200, Note Name: C#4, Velocity: 59
Note ON: Time 187200, Note Name: C#5, Velocity: 70
Note OFF: Time 187416, Note Name: D#4
Note ON: Time 187440, Note Name: D#4, Velocity: 58
Note OFF: Time 187680, Note Name: C#5
Note OFF: Time 187680, Note Name: C#4
Note ON: Time 187680, Note Name: D4, Velocity: 62
Note ON: Time 187680, Note Name: D5, Velocity: 73
Note OFF: Time 187896, Note Name: D#4
Note ON: Time 187920, Note Name: D#4, Velocity: 62
Note OFF: Time 188148, Note Name: D#4
Note OFF: Time 188160, Note Name: D5
Note OFF: Time 188160, Note Name: D4
Note ON: Time 188160, Note Name: D#4, Velocity: 30
Note ON: Time 188160, Note Name: D#5, Velocity: 77
Note OFF: Time 188616, Note Name: D#4
Note ON: Time 188640, Note Name: D#4, Velocity: 58
Note OFF: Time 189096, Note Name: D#4
Note OFF: Time 189120, Note Name: D#5
Note ON: Time 189120, Note Name: C#4, Velocity: 30
Note ON: Time 189120, Note Name: D#4, Velocity: 30
Note ON: Time 189120, Note Name: C#5, Velocity: 69
Note OFF: Time 189576, Note Name: D#4
Note OFF: Time 189576, Note Name: C#4
Note ON: Time 189600, Note Name: C#4, Velocity: 58
Note ON: Time 189600, Note Name: D#4, Velocity: 58
Note OFF: Time 190056, Note Name: D#4
Note OFF: Time 190056, Note Name: C#4
Note OFF: Time 190080, Note Name: C#5
Note ON: Time 190080, Note Name: C4, Velocity: 30
Note ON: Time 190080, Note Name: D#4, Velocity: 30
Note ON: Time 190080, Note Name: C5, Velocity: 65
Note OFF: Time 190536, Note Name: D#4
Note OFF: Time 190536, Note Name: C4
Note ON: Time 190560, Note Name: C4, Velocity: 52
Note ON: Time 190560, Note Name: E4, Velocity: 52
Note OFF: Time 191016, Note Name: E4
Note OFF: Time 191016, Note Name: C4
Note OFF: Time 191040, Note Name: C5
Note ON: Time 191040, Note Name: F4, Velocity: 30
Note ON: Time 191040, Note Name: A#4, Velocity: 62
Note OFF: Time 191280, Note Name: A#4
Note ON: Time 191280, Note Name: C5, Velocity: 64
Note OFF: Time 191520, Note Name: C5
Note ON: Time 191520, Note Name: C#5, Velocity: 67
Note OFF: Time 191760, Note Name: F4
Note ON: Time 191760, Note Name: F4, Velocity: 49
Note OFF: Time 191880, Note Name: C#5
Note ON: Time 191880, Note Name: A#4, Velocity: 69
Note OFF: Time 192000, Note Name: A#4
Note OFF: Time 192000, Note Name: F4
Note ON: Time 192000, Note Name: D#4, Velocity: 30
Note ON: Time 192000, Note Name: G#4, Velocity: 70
Note ON: Time 192240, Note Name: D#5, Velocity: 58
Note OFF: Time 192480, Note Name: G#4
Note ON: Time 192480, Note Name: A4, Velocity: 71
Note OFF: Time 192696, Note Name: D#5
Note ON: Time 192720, Note Name: D#5, Velocity: 58
Note OFF: Time 192960, Note Name: A4
Note ON: Time 192960, Note Name: A#4, Velocity: 73
Note OFF: Time 193176, Note Name: D#5
Note ON: Time 193200, Note Name: D#5, Velocity: 43
Note OFF: Time 193440, Note Name: A#4
Note OFF: Time 193440, Note Name: D#4
Note ON: Time 193440, Note Name: G4, Velocity: 51
Note OFF: Time 193656, Note Name: D#5
Note ON: Time 193680, Note Name: D#5, Velocity: 43
Note OFF: Time 193920, Note Name: D#5
Note OFF: Time 193920, Note Name: G4
Note ON: Time 193920, Note Name: C4, Velocity: 30
Note ON: Time 193920, Note Name: D#4, Velocity: 30
Note ON: Time 193920, Note Name: G#4, Velocity: 57
Note OFF: Time 194148, Note Name: D#4
Note OFF: Time 194148, Note Name: C4
Note ON: Time 194160, Note Name: D#4, Velocity: 30
Note OFF: Time 194400, Note Name: G#4
Note OFF: Time 194616, Note Name: D#4
Note ON: Time 194640, Note Name: D#4, Velocity: 30
Note OFF: Time 195096, Note Name: D#4
Note ON: Time 195120, Note Name: D#4, Velocity: 30
Note OFF: Time 195576, Note Name: D#4
Note ON: Time 195600, Note Name: D#4, Velocity: 30
Note ON: Time 195840, Note Name: A#4, Velocity: 57
Note ON: Time 195840, Note Name: C#5, Velocity: 57
Note OFF: Time 196056, Note Name: D#4
Note ON: Time 196080, Note Name: D#4, Velocity: 30
Note OFF: Time 196536, Note Name: D#4
Note ON: Time 196560, Note Name: D#4, Velocity: 30
Note OFF: Time 196800, Note Name: C#5
Note OFF: Time 196800, Note Name: A#4
Note ON: Time 196800, Note Name: A#4, Velocity: 57
Note ON: Time 196800, Note Name: C#5, Velocity: 57
Note OFF: Time 197016, Note Name: D#4
Note ON: Time 197040, Note Name: D#4, Velocity: 30
Note OFF: Time 197496, Note Name: D#4
Note ON: Time 197520, Note Name: D#4, Velocity: 30
Note OFF: Time 197760, Note Name: C#5
Note OFF: Time 197760, Note Name: A#4
Note ON: Time 197760, Note Name: G#4, Velocity: 61
Note ON: Time 197760, Note Name: C5, Velocity: 61
Note OFF: Time 197976, Note Name: D#4
Note ON: Time 198000, Note Name: D#4, Velocity: 30
Note OFF: Time 198240, Note Name: C5
Note OFF: Time 198240, Note Name: G#4
Note OFF: Time 198456, Note Name: D#4
Note ON: Time 198480, Note Name: D#4, Velocity: 30
Note OFF: Time 198936, Note Name: D#4
Note ON: Time 198960, Note Name: D#4, Velocity: 30
Note OFF: Time 199416, Note Name: D#4
Note ON: Time 199440, Note Name: D#4, Velocity: 30
Note ON: Time 199680, Note Name: C#4, Velocity: 57
Note ON: Time 199680, Note Name: A#4, Velocity: 57
Note OFF: Time 199896, Note Name: D#4
Note ON: Time 199920, Note Name: D#4, Velocity: 30
Note OFF: Time 200376, Note Name: D#4
Note ON: Time 200400, Note Name: D#4, Velocity: 30
Note OFF: Time 200640, Note Name: A#4
Note OFF: Time 200640, Note Name: C#4
Note ON: Time 200640, Note Name: C#4, Velocity: 57
Note ON: Time 200640, Note Name: A#4, Velocity: 57
Note OFF: Time 200856, Note Name: D#4
Note ON: Time 200880, Note Name: D#4, Velocity: 30
Note OFF: Time 201336, Note Name: D#4
Note ON: Time 201360, Note Name: D#4, Velocity: 30
Note OFF: Time 201600, Note Name: D#4
Note OFF: Time 201600, Note Name: A#4
Note OFF: Time 201600, Note Name: C#4
Note ON: Time 201600, Note Name: C4, Velocity: 25
Note ON: Time 201600, Note Name: G#4, Velocity: 57
Note OFF: Time 201840, Note Name: G#4
Note OFF: Time 201840, Note Name: C4
Note ON: Time 201840, Note Name: D#4, Velocity: 30
Note ON: Time 201840, Note Name: D#3, Velocity: 25
Note OFF: Time 202296, Note Name: D#3
Note OFF: Time 202296, Note Name: D#4
Note ON: Time 202320, Note Name: D#4, Velocity: 30
Note ON: Time 202320, Note Name: D#3, Velocity: 25
Note OFF: Time 202776, Note Name: D#3
Note OFF: Time 202776, Note Name: D#4
Note ON: Time 202800, Note Name: D#4, Velocity: 30
Note ON: Time 202800, Note Name: D#3, Velocity: 25
Note ON: Time 203040, Note Name: G#3, Velocity: 42
Note ON: Time 203040, Note Name: C4, Velocity: 50
Note OFF: Time 203256, Note Name: D#3
Note OFF: Time 203256, Note Name: D#4
Note ON: Time 203280, Note Name: D#4, Velocity: 30
Note ON: Time 203280, Note Name: D#3, Velocity: 25
Note OFF: Time 203520, Note Name: G#3
Note OFF: Time 203520, Note Name: C4
Note ON: Time 203520, Note Name: A#3, Velocity: 48
Note ON: Time 203520, Note Name: C#4, Velocity: 57
Note OFF: Time 203736, Note Name: D#4
Note OFF: Time 203736, Note Name: D#3
Note ON: Time 203760, Note Name: D#4, Velocity: 30
Note ON: Time 203760, Note Name: D#3, Velocity: 25
Note OFF: Time 204000, Note Name: A#3
Note OFF: Time 204000, Note Name: C#4
Note OFF: Time 204240, Note Name: D#4
Note OFF: Time 204240, Note Name: D#3
Note ON: Time 204240, Note Name: D#4, Velocity: 30
Note ON: Time 204240, Note Name: D#3, Velocity: 25
Note ON: Time 204480, Note Name: A#3, Velocity: 48
Note ON: Time 204480, Note Name: C#4, Velocity: 48
Note OFF: Time 204696, Note Name: D#3
Note OFF: Time 204696, Note Name: D#4
Note ON: Time 204720, Note Name: D#4, Velocity: 30
Note ON: Time 204720, Note Name: D#3, Velocity: 25
Note OFF: Time 204960, Note Name: A#3
Note OFF: Time 204960, Note Name: C#4
Note OFF: Time 205200, Note Name: D#4
Note OFF: Time 205200, Note Name: D#3
Note ON: Time 205200, Note Name: D#4, Velocity: 30
Note ON: Time 205200, Note Name: D#3, Velocity: 25
Note ON: Time 205440, Note Name: G#3, Velocity: 51
Note ON: Time 205440, Note Name: C4, Velocity: 51
Note OFF: Time 205656, Note Name: D#3
Note OFF: Time 205656, Note Name: D#4
Note OFF: Time 205668, Note Name: G#3
Note OFF: Time 205668, Note Name: C4
Note ON: Time 205680, Note Name: D#4, Velocity: 30
Note ON: Time 205680, Note Name: C4, Velocity: 25
Note ON: Time 205680, Note Name: G#3, Velocity: 25
Note ON: Time 205680, Note Name: D#3, Velocity: 25
Note OFF: Time 206136, Note Name: D#3
Note OFF: Time 206136, Note Name: D#4
Note OFF: Time 206136, Note Name: C4
Note OFF: Time 206136, Note Name: G#3
Note ON: Time 206160, Note Name: D#4, Velocity: 29
Note ON: Time 206160, Note Name: C4, Velocity: 24
Note ON: Time 206160, Note Name: G#3, Velocity: 24
Note ON: Time 206160, Note Name: D#3, Velocity: 24
Note OFF: Time 206616, Note Name: D#3
Note OFF: Time 206616, Note Name: D#4
Note OFF: Time 206616, Note Name: C4
Note OFF: Time 206616, Note Name: G#3
Note ON: Time 206640, Note Name: D#4, Velocity: 28
Note ON: Time 206640, Note Name: C4, Velocity: 24
Note ON: Time 206640, Note Name: G#3, Velocity: 24
Note ON: Time 206640, Note Name: D#3, Velocity: 24
Note OFF: Time 207096, Note Name: D#3
Note OFF: Time 207096, Note Name: D#4
Note OFF: Time 207096, Note Name: C4
Note OFF: Time 207096, Note Name: G#3
Note ON: Time 207120, Note Name: D#4, Velocity: 28
Note ON: Time 207120, Note Name: G#3, Velocity: 23
Note ON: Time 207120, Note Name: D#3, Velocity: 23
Note ON: Time 207120, Note Name: C4, Velocity: 23
Note OFF: Time 207576, Note Name: C4
Note OFF: Time 207576, Note Name: D#4
Note OFF: Time 207576, Note Name: G#3
Note OFF: Time 207576, Note Name: D#3
Note ON: Time 207600, Note Name: C4, Velocity: 27
Note ON: Time 207600, Note Name: G#3, Velocity: 23
Note ON: Time 207600, Note Name: D#3, Velocity: 23
Note OFF: Time 208056, Note Name: D#3
Note OFF: Time 208056, Note Name: G#3
Note OFF: Time 208056, Note Name: C4
Note ON: Time 208080, Note Name: C4, Velocity: 27
Note ON: Time 208080, Note Name: G#3, Velocity: 22
Note ON: Time 208080, Note Name: D#3, Velocity: 22
Note OFF: Time 208536, Note Name: D#3
Note OFF: Time 208536, Note Name: G#3
Note OFF: Time 208536, Note Name: C4
Note ON: Time 208560, Note Name: C4, Velocity: 26
Note ON: Time 208560, Note Name: G#3, Velocity: 22
Note ON: Time 208560, Note Name: D#3, Velocity: 22
Note OFF: Time 209016, Note Name: D#3
Note OFF: Time 209016, Note Name: G#3
Note OFF: Time 209016, Note Name: C4
Note ON: Time 209040, Note Name: C4, Velocity: 26
Note ON: Time 209040, Note Name: G#3, Velocity: 21
Note ON: Time 209040, Note Name: D#3, Velocity: 21
Note OFF: Time 209496, Note Name: D#3
Note OFF: Time 209496, Note Name: G#3
Note OFF: Time 209496, Note Name: C4
Note ON: Time 209520, Note Name: G#3, Velocity: 25
Note ON: Time 209520, Note Name: D#3, Velocity: 21
Note ON: Time 209520, Note Name: C3, Velocity: 21
Note OFF: Time 209976, Note Name: C3
Note OFF: Time 209976, Note Name: D#3
Note OFF: Time 209976, Note Name: G#3
Note ON: Time 210000, Note Name: G#3, Velocity: 24
Note ON: Time 210000, Note Name: D#3, Velocity: 20
Note ON: Time 210000, Note Name: C3, Velocity: 20
Note OFF: Time 210456, Note Name: C3
Note OFF: Time 210456, Note Name: D#3
Note OFF: Time 210456, Note Name: G#3
Note ON: Time 210480, Note Name: G#3, Velocity: 24
Note ON: Time 210480, Note Name: D#3, Velocity: 20
Note ON: Time 210480, Note Name: C3, Velocity: 20
Note OFF: Time 210936, Note Name: C3
Note OFF: Time 210936, Note Name: D#3
Note OFF: Time 210936, Note Name: G#3
Note ON: Time 210960, Note Name: G#3, Velocity: 23
Note ON: Time 210960, Note Name: D#3, Velocity: 19
Note ON: Time 210960, Note Name: C3, Velocity: 19
Note OFF: Time 211440, Note Name: C3
Note OFF: Time 211440, Note Name: D#3
Note OFF: Time 211440, Note Name: G#3
Note ON: Time 212160, Note Name: C3, Velocity: 22
Note ON: Time 212160, Note Name: D#3, Velocity: 27
Note OFF: Time 212640, Note Name: D#3
Note OFF: Time 212640, Note Name: C3
Note ON: Time 213120, Note Name: G#2, Velocity: 19
Note ON: Time 213120, Note Name: C3, Velocity: 23
Note OFF: Time 215040, Note Name: C3
Note OFF: Time 215040, Note Name: G#2
Track 2: Piano left
Note ON: Time 0, Note Name: G#2, Velocity: 27
Note ON: Time 0, Note Name: D#3, Velocity: 27
Note ON: Time 0, Note Name: G#3, Velocity: 32
Note OFF: Time 960, Note Name: G#3
Note OFF: Time 960, Note Name: D#3
Note OFF: Time 960, Note Name: G#2
Note ON: Time 960, Note Name: G2, Velocity: 24
Note ON: Time 960, Note Name: D#3, Velocity: 24
Note ON: Time 960, Note Name: G3, Velocity: 29
Note OFF: Time 1920, Note Name: G3
Note OFF: Time 1920, Note Name: D#3
Note OFF: Time 1920, Note Name: G2
Note ON: Time 1920, Note Name: G#2, Velocity: 30
Note ON: Time 1920, Note Name: D#3, Velocity: 30
Note ON: Time 1920, Note Name: G#3, Velocity: 36
Note OFF: Time 3360, Note Name: G#3
Note OFF: Time 3360, Note Name: D#3
Note OFF: Time 3360, Note Name: G#2
Note ON: Time 3840, Note Name: G3, Velocity: 27
Note ON: Time 3840, Note Name: C#4, Velocity: 32
Note OFF: Time 4320, Note Name: C#4
Note ON: Time 4320, Note Name: A#3, Velocity: 32
Note OFF: Time 4800, Note Name: A#3
Note OFF: Time 4800, Note Name: G3
Note ON: Time 4800, Note Name: G#3, Velocity: 29
Note ON: Time 5280, Note Name: C4, Velocity: 32
Note OFF: Time 5760, Note Name: C4
Note OFF: Time 5760, Note Name: G#3
Note ON: Time 5760, Note Name: D#3, Velocity: 30
Note ON: Time 5760, Note Name: D#4, Velocity: 36
Note OFF: Time 7200, Note Name: D#4
Note OFF: Time 7200, Note Name: D#3
Note ON: Time 7680, Note Name: G#3, Velocity: 32
Note OFF: Time 8640, Note Name: G#3
Note ON: Time 8640, Note Name: C3, Velocity: 37
Note ON: Time 8640, Note Name: C4, Velocity: 37
Note ON: Time 8640, Note Name: G#3, Velocity: 37
Note OFF: Time 9600, Note Name: G#3
Note OFF: Time 9600, Note Name: C4
Note OFF: Time 9600, Note Name: C3
Note ON: Time 9600, Note Name: C#3, Velocity: 45
Note ON: Time 9600, Note Name: G#3, Velocity: 45
Note ON: Time 9600, Note Name: C#4, Velocity: 45
Note OFF: Time 10560, Note Name: C#4
Note OFF: Time 10560, Note Name: G#3
Note OFF: Time 10560, Note Name: C#3
Note ON: Time 10560, Note Name: F3, Velocity: 41
Note ON: Time 10590, Note Name: G#3, Velocity: 45
Note ON: Time 10620, Note Name: C#4, Velocity: 49
Note ON: Time 10650, Note Name: F4, Velocity: 53
Note OFF: Time 12480, Note Name: F4
Note OFF: Time 12480, Note Name: F3
Note OFF: Time 12480, Note Name: G#3
Note OFF: Time 12480, Note Name: C#4
Note ON: Time 12480, Note Name: G3, Velocity: 31
Note ON: Time 12480, Note Name: D#4, Velocity: 37
Note OFF: Time 12960, Note Name: D#4
Note OFF: Time 12960, Note Name: G3
Note ON: Time 12960, Note Name: D#4, Velocity: 34
Note ON: Time 12960, Note Name: G#3, Velocity: 28
Note OFF: Time 13440, Note Name: G#3
Note OFF: Time 13440, Note Name: D#4
Note ON: Time 13440, Note Name: C4, Velocity: 37
Note ON: Time 13440, Note Name: D#3, Velocity: 31
Note OFF: Time 14160, Note Name: C4
Note ON: Time 14160, Note Name: G#3, Velocity: 31
Note OFF: Time 14400, Note Name: G#3
Note OFF: Time 14400, Note Name: D#3
Note ON: Time 14400, Note Name: D#3, Velocity: 26
Note ON: Time 14400, Note Name: G3, Velocity: 31
Note OFF: Time 14880, Note Name: G3
Note OFF: Time 14880, Note Name: D#3
Note ON: Time 15360, Note Name: G#2, Velocity: 36
Note ON: Time 15600, Note Name: D#3, Velocity: 28
Note OFF: Time 15828, Note Name: D#3
Note ON: Time 15840, Note Name: D#3, Velocity: 29
Note OFF: Time 16068, Note Name: D#3
Note ON: Time 16080, Note Name: D#3, Velocity: 29
Note OFF: Time 16320, Note Name: D#3
Note OFF: Time 16320, Note Name: G#2
Note ON: Time 16320, Note Name: G2, Velocity: 36
Note ON: Time 16560, Note Name: D#3, Velocity: 28
Note OFF: Time 16788, Note Name: D#3
Note ON: Time 16800, Note Name: D#3, Velocity: 28
Note OFF: Time 17028, Note Name: D#3
Note ON: Time 17040, Note Name: D#3, Velocity: 28
Note OFF: Time 17280, Note Name: D#3
Note OFF: Time 17280, Note Name: G2
Note ON: Time 17280, Note Name: G#2, Velocity: 36
Note OFF: Time 17520, Note Name: G#2
Note ON: Time 17520, Note Name: D#3, Velocity: 32
Note OFF: Time 17760, Note Name: D#3
Note ON: Time 17760, Note Name: C3, Velocity: 36
Note OFF: Time 18000, Note Name: C3
Note ON: Time 18000, Note Name: G#3, Velocity: 32
Note OFF: Time 18240, Note Name: G#3
Note ON: Time 18240, Note Name: D#3, Velocity: 40
Note OFF: Time 18480, Note Name: D#3
Note ON: Time 18480, Note Name: C4, Velocity: 36
Note OFF: Time 18720, Note Name: C4
Note ON: Time 18720, Note Name: G#3, Velocity: 47
Note OFF: Time 18960, Note Name: G#3
Note ON: Time 18960, Note Name: D#4, Velocity: 36
Note OFF: Time 19200, Note Name: D#4
Note ON: Time 19200, Note Name: G3, Velocity: 45
Note ON: Time 19440, Note Name: D#4, Velocity: 29
Note OFF: Time 19668, Note Name: D#4
Note ON: Time 19680, Note Name: D#4, Velocity: 29
Note OFF: Time 19908, Note Name: D#4
Note ON: Time 19920, Note Name: D#4, Velocity: 29
Note OFF: Time 20160, Note Name: D#4
Note OFF: Time 20160, Note Name: G3
Note ON: Time 20160, Note Name: G#3, Velocity: 36
Note ON: Time 20400, Note Name: D#4, Velocity: 29
Note OFF: Time 20628, Note Name: D#4
Note ON: Time 20640, Note Name: D#4, Velocity: 29
Note OFF: Time 20868, Note Name: D#4
Note ON: Time 20880, Note Name: D#4, Velocity: 29
Note OFF: Time 21120, Note Name: D#4
Note OFF: Time 21120, Note Name: G#3
Note ON: Time 21120, Note Name: D#3, Velocity: 41
Note OFF: Time 21360, Note Name: D#3
Note ON: Time 21360, Note Name: D#4, Velocity: 32
Note OFF: Time 21600, Note Name: D#4
Note ON: Time 21600, Note Name: D4, Velocity: 33
Note OFF: Time 21840, Note Name: D4
Note ON: Time 21840, Note Name: D#4, Velocity: 33
Note OFF: Time 22080, Note Name: D#4
Note ON: Time 22080, Note Name: D4, Velocity: 36
Note OFF: Time 22320, Note Name: D4
Note ON: Time 22320, Note Name: D#4, Velocity: 31
Note OFF: Time 22560, Note Name: D#4
Note ON: Time 22560, Note Name: F4, Velocity: 36
Note OFF: Time 22800, Note Name: F4
Note ON: Time 22800, Note Name: C#4, Velocity: 33
Note OFF: Time 23040, Note Name: C#4
Note ON: Time 23280, Note Name: G#3, Velocity: 32
Note OFF: Time 23520, Note Name: G#3
Note ON: Time 23520, Note Name: C4, Velocity: 32
Note OFF: Time 23760, Note Name: C4
Note ON: Time 23760, Note Name: D#4, Velocity: 29
Note OFF: Time 23960, Note Name: D#4
Note ON: Time 24240, Note Name: C3, Velocity: 32
Note OFF: Time 24480, Note Name: C3
Note ON: Time 24480, Note Name: D#3, Velocity: 32
Note OFF: Time 24720, Note Name: D#3
Note ON: Time 24720, Note Name: G#3, Velocity: 30
Note OFF: Time 24960, Note Name: G#3
Note ON: Time 25200, Note Name: C#3, Velocity: 38
Note ON: Time 25200, Note Name: F3, Velocity: 38
Note ON: Time 25440, Note Name: G3, Velocity: 42
Note OFF: Time 25452, Note Name: F3
Note ON: Time 25680, Note Name: G#3, Velocity: 45
Note OFF: Time 25692, Note Name: G3
Note ON: Time 25920, Note Name: A3, Velocity: 49
Note OFF: Time 25932, Note Name: G#3
Note ON: Time 26160, Note Name: A#3, Velocity: 52
Note OFF: Time 26172, Note Name: A3
Note ON: Time 26400, Note Name: C4, Velocity: 48
Note OFF: Time 26412, Note Name: A#3
Note ON: Time 26640, Note Name: C#4, Velocity: 51
Note OFF: Time 26652, Note Name: C4
Note OFF: Time 26880, Note Name: C#3
Note ON: Time 26880, Note Name: D#3, Velocity: 32
Note ON: Time 26880, Note Name: D#4, Velocity: 51
Note OFF: Time 26892, Note Name: C#4
Note OFF: Time 27120, Note Name: D#4
Note ON: Time 27120, Note Name: D4, Velocity: 45
Note OFF: Time 27360, Note Name: D4
Note ON: Time 27360, Note Name: C#4, Velocity: 46
Note OFF: Time 27600, Note Name: C#4
Note ON: Time 27600, Note Name: C4, Velocity: 46
Note OFF: Time 27840, Note Name: C4
Note OFF: Time 27840, Note Name: D#3
Note ON: Time 27840, Note Name: D#3, Velocity: 32
Note ON: Time 27840, Note Name: A#3, Velocity: 51
Note OFF: Time 28080, Note Name: A#3
Note ON: Time 28080, Note Name: C4, Velocity: 44
Note OFF: Time 28320, Note Name: C4
Note ON: Time 28320, Note Name: C#4, Velocity: 44
Note OFF: Time 28560, Note Name: C#4
Note ON: Time 28560, Note Name: G3, Velocity: 44
Note OFF: Time 28790, Note Name: G3
Note OFF: Time 28800, Note Name: D#3
Note ON: Time 28800, Note Name: G#2, Velocity: 32
Note ON: Time 28800, Note Name: G3, Velocity: 51
Note OFF: Time 29760, Note Name: G3
Note ON: Time 29760, Note Name: G#3, Velocity: 31
Note OFF: Time 30240, Note Name: G#3
Note OFF: Time 30240, Note Name: G#2
Note ON: Time 30720, Note Name: D#4, Velocity: 76
Note ON: Time 30720, Note Name: F4, Velocity: 76
Note ON: Time 30720, Note Name: C4, Velocity: 76
Note ON: Time 30720, Note Name: A3, Velocity: 76
Note OFF: Time 31678, Note Name: F4
Note OFF: Time 31680, Note Name: D#4
Note OFF: Time 31680, Note Name: C4
Note OFF: Time 31680, Note Name: A3
Note ON: Time 32520, Note Name: A2, Velocity: 30
Note ON: Time 32520, Note Name: F3, Velocity: 36
Note OFF: Time 32630, Note Name: F3
Note OFF: Time 32630, Note Name: A2
Note ON: Time 32640, Note Name: A#2, Velocity: 35
Note ON: Time 32640, Note Name: F3, Velocity: 41
Note OFF: Time 34080, Note Name: F3
Note OFF: Time 34080, Note Name: A#2
Note ON: Time 34560, Note Name: C#4, Velocity: 76
Note ON: Time 34560, Note Name: D#4, Velocity: 76
Note ON: Time 34560, Note Name: A#3, Velocity: 76
Note ON: Time 34560, Note Name: G3, Velocity: 76
Note OFF: Time 35518, Note Name: D#4
Note OFF: Time 35520, Note Name: C#4
Note OFF: Time 35520, Note Name: A#3
Note OFF: Time 35520, Note Name: G3
Note ON: Time 36360, Note Name: G2, Velocity: 30
Note ON: Time 36360, Note Name: D#3, Velocity: 36
Note OFF: Time 36470, Note Name: D#3
Note OFF: Time 36470, Note Name: G2
Note ON: Time 36480, Note Name: G#2, Velocity: 35
Note ON: Time 36480, Note Name: D#3, Velocity: 41
Note OFF: Time 37920, Note Name: D#3
Note OFF: Time 37920, Note Name: G#2
Note ON: Time 38370, Note Name: B2, Velocity: 89
Note ON: Time 38400, Note Name: B3, Velocity: 92
Note OFF: Time 38460, Note Name: B2
Note OFF: Time 39120, Note Name: B3
Note ON: Time 39120, Note Name: B3, Velocity: 59
Note OFF: Time 39160, Note Name: B3
Note ON: Time 39160, Note Name: G#3, Velocity: 57
Note OFF: Time 39200, Note Name: G#3
Note ON: Time 39201, Note Name: D#3, Velocity: 56
Note ON: Time 39240, Note Name: B2, Velocity: 56
Note OFF: Time 39241, Note Name: D#3
Note OFF: Time 39280, Note Name: B2
Note ON: Time 39281, Note Name: G#2, Velocity: 55
Note OFF: Time 39321, Note Name: G#2
Note ON: Time 39321, Note Name: D#2, Velocity: 53
Note ON: Time 39360, Note Name: B1, Velocity: 91
Note OFF: Time 39361, Note Name: D#2
Note OFF: Time 39600, Note Name: B1
Note ON: Time 40200, Note Name: B1, Velocity: 46
Note ON: Time 40200, Note Name: B2, Velocity: 46
Note OFF: Time 40310, Note Name: B2
Note OFF: Time 40310, Note Name: B1
Note ON: Time 40320, Note Name: G#3, Velocity: 59
Note ON: Time 40320, Note Name: F3, Velocity: 59
Note ON: Time 40320, Note Name: A#1, Velocity: 59
Note ON: Time 40320, Note Name: A#2, Velocity: 59
Note OFF: Time 41760, Note Name: A#2
Note OFF: Time 41760, Note Name: G#3
Note OFF: Time 41760, Note Name: F3
Note OFF: Time 41760, Note Name: A#1
Note ON: Time 44160, Note Name: A#3, Velocity: 35
Note ON: Time 44160, Note Name: G#3, Velocity: 29
Note OFF: Time 44616, Note Name: G#3
Note OFF: Time 44616, Note Name: A#3
Note ON: Time 44640, Note Name: A#3, Velocity: 30
Note ON: Time 44640, Note Name: G#3, Velocity: 25
Note OFF: Time 45096, Note Name: G#3
Note OFF: Time 45096, Note Name: A#3
Note ON: Time 45120, Note Name: A#3, Velocity: 30
Note ON: Time 45120, Note Name: G#3, Velocity: 25
Note OFF: Time 45576, Note Name: G#3
Note OFF: Time 45576, Note Name: A#3
Note ON: Time 45600, Note Name: A#3, Velocity: 30
Note ON: Time 45600, Note Name: G#3, Velocity: 25
Note OFF: Time 46056, Note Name: G#3
Note OFF: Time 46056, Note Name: A#3
Note ON: Time 46080, Note Name: A#3, Velocity: 35
Note ON: Time 46080, Note Name: G3, Velocity: 29
Note OFF: Time 46536, Note Name: G3
Note OFF: Time 46536, Note Name: A#3
Note ON: Time 46560, Note Name: A#3, Velocity: 28
Note ON: Time 46560, Note Name: G3, Velocity: 23
Note OFF: Time 47016, Note Name: G3
Note OFF: Time 47016, Note Name: A#3
Note ON: Time 47040, Note Name: A#3, Velocity: 28
Note ON: Time 47040, Note Name: G3, Velocity: 23
Note OFF: Time 47496, Note Name: G3
Note OFF: Time 47496, Note Name: A#3
Note ON: Time 47520, Note Name: A#3, Velocity: 28
Note ON: Time 47520, Note Name: G3, Velocity: 23
Note OFF: Time 47976, Note Name: G3
Note OFF: Time 47976, Note Name: A#3
Note ON: Time 48000, Note Name: D3, Velocity: 29
Note ON: Time 48000, Note Name: A#3, Velocity: 35
Note ON: Time 48000, Note Name: G#3, Velocity: 29
Note OFF: Time 48456, Note Name: G#3
Note OFF: Time 48456, Note Name: A#3
Note OFF: Time 48456, Note Name: D3
Note ON: Time 48480, Note Name: D3, Velocity: 27
Note ON: Time 48480, Note Name: A#3, Velocity: 33
Note ON: Time 48480, Note Name: G#3, Velocity: 27
Note OFF: Time 48936, Note Name: G#3
Note OFF: Time 48936, Note Name: A#3
Note OFF: Time 48936, Note Name: D3
Note ON: Time 48960, Note Name: D3, Velocity: 27
Note ON: Time 48960, Note Name: A#3, Velocity: 33
Note ON: Time 48960, Note Name: G#3, Velocity: 27
Note OFF: Time 49416, Note Name: G#3
Note OFF: Time 49416, Note Name: A#3
Note OFF: Time 49416, Note Name: D3
Note ON: Time 49440, Note Name: G3, Velocity: 46
Note ON: Time 49440, Note Name: D3, Velocity: 25
Note ON: Time 49440, Note Name: A#3, Velocity: 30
Note OFF: Time 49800, Note Name: G3
Note ON: Time 49800, Note Name: F3, Velocity: 46
Note OFF: Time 49910, Note Name: F3
Note OFF: Time 49920, Note Name: A#3
Note OFF: Time 49920, Note Name: D3
Note ON: Time 49920, Note Name: D#3, Velocity: 29
Note ON: Time 49920, Note Name: A#3, Velocity: 35
Note ON: Time 49920, Note Name: F#3, Velocity: 29
Note OFF: Time 50376, Note Name: F#3
Note OFF: Time 50376, Note Name: A#3
Note OFF: Time 50376, Note Name: D#3
Note ON: Time 50400, Note Name: D#3, Velocity: 23
Note ON: Time 50400, Note Name: A#3, Velocity: 28
Note ON: Time 50400, Note Name: G3, Velocity: 23
Note OFF: Time 50856, Note Name: G3
Note OFF: Time 50856, Note Name: A#3
Note OFF: Time 50856, Note Name: D#3
Note ON: Time 50880, Note Name: D#3, Velocity: 23
Note ON: Time 50880, Note Name: A#3, Velocity: 28
Note ON: Time 50880, Note Name: G3, Velocity: 23
Note OFF: Time 51336, Note Name: G3
Note OFF: Time 51336, Note Name: A#3
Note OFF: Time 51336, Note Name: D#3
Note ON: Time 51360, Note Name: D#3, Velocity: 28
Note ON: Time 51360, Note Name: A#3, Velocity: 28
Note ON: Time 51360, Note Name: G3, Velocity: 23
Note OFF: Time 51816, Note Name: G3
Note OFF: Time 51816, Note Name: A#3
Note OFF: Time 51816, Note Name: D#3
Note ON: Time 51840, Note Name: G#3, Velocity: 25
Note ON: Time 51840, Note Name: A#3, Velocity: 30
Note OFF: Time 52296, Note Name: A#3
Note OFF: Time 52296, Note Name: G#3
Note ON: Time 52320, Note Name: G#3, Velocity: 25
Note ON: Time 52320, Note Name: A#3, Velocity: 30
Note OFF: Time 52776, Note Name: A#3
Note OFF: Time 52776, Note Name: G#3
Note ON: Time 52800, Note Name: G#3, Velocity: 25
Note ON: Time 52800, Note Name: A#3, Velocity: 30
Note OFF: Time 53256, Note Name: A#3
Note OFF: Time 53256, Note Name: G#3
Note ON: Time 53280, Note Name: G#3, Velocity: 25
Note ON: Time 53280, Note Name: A#3, Velocity: 30
Note OFF: Time 53736, Note Name: A#3
Note OFF: Time 53736, Note Name: G#3
Note ON: Time 54240, Note Name: G3, Velocity: 25
Note ON: Time 54240, Note Name: A#3, Velocity: 30
Note OFF: Time 54696, Note Name: A#3
Note OFF: Time 54696, Note Name: G3
Note ON: Time 54720, Note Name: G3, Velocity: 25
Note ON: Time 54720, Note Name: A#3, Velocity: 30
Note OFF: Time 55176, Note Name: A#3
Note OFF: Time 55176, Note Name: G3
Note ON: Time 55200, Note Name: G3, Velocity: 25
Note ON: Time 55200, Note Name: A#3, Velocity: 30
Note OFF: Time 55656, Note Name: A#3
Note OFF: Time 55656, Note Name: G3
Note ON: Time 55680, Note Name: D3, Velocity: 25
Note ON: Time 55680, Note Name: G#3, Velocity: 25
Note ON: Time 55680, Note Name: A#3, Velocity: 30
Note OFF: Time 56136, Note Name: A#3
Note OFF: Time 56136, Note Name: G#3
Note OFF: Time 56136, Note Name: D3
Note ON: Time 56160, Note Name: D3, Velocity: 25
Note ON: Time 56160, Note Name: F3, Velocity: 25
Note ON: Time 56160, Note Name: G#3, Velocity: 25
Note ON: Time 56160, Note Name: A#3, Velocity: 30
Note OFF: Time 56616, Note Name: A#3
Note OFF: Time 56616, Note Name: D3
Note OFF: Time 56616, Note Name: F3
Note OFF: Time 56616, Note Name: G#3
Note ON: Time 56640, Note Name: D3, Velocity: 25
Note ON: Time 56640, Note Name: F3, Velocity: 25
Note ON: Time 56640, Note Name: G#3, Velocity: 25
Note ON: Time 56640, Note Name: A#3, Velocity: 30
Note OFF: Time 57096, Note Name: A#3
Note OFF: Time 57096, Note Name: D3
Note OFF: Time 57096, Note Name: F3
Note OFF: Time 57096, Note Name: G#3
Note ON: Time 57120, Note Name: D3, Velocity: 25
Note ON: Time 57120, Note Name: F3, Velocity: 25
Note ON: Time 57120, Note Name: G#3, Velocity: 25
Note ON: Time 57120, Note Name: A#3, Velocity: 30
Note OFF: Time 57576, Note Name: A#3
Note OFF: Time 57576, Note Name: D3
Note OFF: Time 57576, Note Name: F3
Note OFF: Time 57576, Note Name: G#3
Note ON: Time 58080, Note Name: D#3, Velocity: 30
Note ON: Time 58080, Note Name: G3, Velocity: 30
Note ON: Time 58080, Note Name: A#3, Velocity: 30
Note OFF: Time 58560, Note Name: A#3
Note OFF: Time 58560, Note Name: G3
Note OFF: Time 58560, Note Name: D#3
Note ON: Time 59040, Note Name: F3, Velocity: 32
Note ON: Time 59040, Note Name: G#3, Velocity: 32
Note ON: Time 59040, Note Name: A#3, Velocity: 32
Note ON: Time 59040, Note Name: D4, Velocity: 32
Note OFF: Time 59520, Note Name: D4
Note OFF: Time 59520, Note Name: F3
Note OFF: Time 59520, Note Name: G#3
Note OFF: Time 59520, Note Name: A#3
Note ON: Time 60000, Note Name: G3, Velocity: 37
Note ON: Time 60000, Note Name: A#3, Velocity: 37
Note ON: Time 60000, Note Name: D#4, Velocity: 37
Note OFF: Time 60480, Note Name: D#4
Note OFF: Time 60480, Note Name: A#3
Note OFF: Time 60480, Note Name: G3
Note ON: Time 60960, Note Name: G3, Velocity: 43
Note ON: Time 60960, Note Name: B3, Velocity: 43
Note ON: Time 60960, Note Name: D#4, Velocity: 43
Note OFF: Time 61440, Note Name: D#4
Note OFF: Time 61440, Note Name: B3
Note OFF: Time 61440, Note Name: G3
Note ON: Time 61920, Note Name: G#3, Velocity: 51
Note ON: Time 61920, Note Name: C4, Velocity: 51
Note ON: Time 61920, Note Name: D#4, Velocity: 51
Note OFF: Time 62400, Note Name: D#4
Note OFF: Time 62400, Note Name: C4
Note OFF: Time 62400, Note Name: G#3
Note ON: Time 62880, Note Name: B3, Velocity: 60
Note ON: Time 62880, Note Name: G#3, Velocity: 60
Note ON: Time 62880, Note Name: D4, Velocity: 60
Note ON: Time 62880, Note Name: F4, Velocity: 60
Note OFF: Time 63360, Note Name: F4
Note OFF: Time 63360, Note Name: B3
Note OFF: Time 63360, Note Name: G#3
Note OFF: Time 63360, Note Name: D4
Note ON: Time 63840, Note Name: A3, Velocity: 60
Note ON: Time 63840, Note Name: C4, Velocity: 60
Note ON: Time 63840, Note Name: D#4, Velocity: 60
Note ON: Time 63840, Note Name: F#4, Velocity: 60
Note OFF: Time 64320, Note Name: F#4
Note OFF: Time 64320, Note Name: A3
Note OFF: Time 64320, Note Name: C4
Note OFF: Time 64320, Note Name: D#4
Note ON: Time 65760, Note Name: G4, Velocity: 36
Note ON: Time 65760, Note Name: D#4, Velocity: 30
Note ON: Time 65760, Note Name: A#3, Velocity: 27
Note OFF: Time 66240, Note Name: A#3
Note OFF: Time 66240, Note Name: D#4
Note OFF: Time 66240, Note Name: G4
Note ON: Time 66720, Note Name: G#4, Velocity: 36
Note ON: Time 66720, Note Name: D4, Velocity: 31
Note ON: Time 66720, Note Name: A#3, Velocity: 27
Note OFF: Time 67200, Note Name: A#3
Note OFF: Time 67200, Note Name: D4
Note OFF: Time 67200, Note Name: G#4
Note ON: Time 67520, Note Name: D#4, Velocity: 32
Note OFF: Time 67680, Note Name: D#4
Note ON: Time 67680, Note Name: A#3, Velocity: 39
Note OFF: Time 67840, Note Name: A#3
Note ON: Time 67840, Note Name: G3, Velocity: 32
Note OFF: Time 68000, Note Name: G3
Note ON: Time 68000, Note Name: D#3, Velocity: 32
Note OFF: Time 68160, Note Name: D#3
Note ON: Time 68480, Note Name: F4, Velocity: 34
Note OFF: Time 68640, Note Name: F4
Note ON: Time 68640, Note Name: D4, Velocity: 39
Note OFF: Time 68800, Note Name: D4
Note ON: Time 68800, Note Name: A#3, Velocity: 33
Note OFF: Time 68960, Note Name: A#3
Note ON: Time 68960, Note Name: F3, Velocity: 33
Note OFF: Time 69120, Note Name: F3
Note ON: Time 69440, Note Name: G4, Velocity: 33
Note OFF: Time 69600, Note Name: G4
Note ON: Time 69600, Note Name: D#4, Velocity: 40
Note OFF: Time 69760, Note Name: D#4
Note ON: Time 69760, Note Name: A#3, Velocity: 34
Note OFF: Time 69920, Note Name: A#3
Note ON: Time 69920, Note Name: G3, Velocity: 34
Note OFF: Time 70080, Note Name: G3
Note ON: Time 70400, Note Name: G4, Velocity: 46
Note OFF: Time 70560, Note Name: G4
Note ON: Time 70560, Note Name: D#4, Velocity: 53
Note OFF: Time 70720, Note Name: D#4
Note ON: Time 70720, Note Name: B3, Velocity: 46
Note OFF: Time 70880, Note Name: B3
Note ON: Time 70880, Note Name: G3, Velocity: 46
Note OFF: Time 71040, Note Name: G3
Note ON: Time 71360, Note Name: G#4, Velocity: 47
Note OFF: Time 71520, Note Name: G#4
Note ON: Time 71520, Note Name: D#4, Velocity: 58
Note OFF: Time 71680, Note Name: D#4
Note ON: Time 71680, Note Name: C4, Velocity: 49
Note OFF: Time 71840, Note Name: C4
Note ON: Time 71840, Note Name: G#3, Velocity: 49
Note OFF: Time 72000, Note Name: G#3
Note ON: Time 72320, Note Name: G#4, Velocity: 56
Note OFF: Time 72480, Note Name: G#4
Note ON: Time 72480, Note Name: F4, Velocity: 63
Note OFF: Time 72640, Note Name: F4
Note ON: Time 72640, Note Name: D4, Velocity: 54
Note OFF: Time 72800, Note Name: D4
Note ON: Time 72800, Note Name: A#3, Velocity: 55
Note OFF: Time 72960, Note Name: A#3
Note ON: Time 73280, Note Name: A4, Velocity: 78
Note ON: Time 73440, Note Name: F#4, Velocity: 57
Note ON: Time 73600, Note Name: D#4, Velocity: 61
Note ON: Time 73760, Note Name: B3, Velocity: 65
Note OFF: Time 74880, Note Name: B3
Note OFF: Time 74880, Note Name: A4
Note OFF: Time 74880, Note Name: F#4
Note OFF: Time 74880, Note Name: D#4
Note ON: Time 75040, Note Name: A#2, Velocity: 64
Note OFF: Time 75120, Note Name: A#2
Note ON: Time 75200, Note Name: D#3, Velocity: 64
Note OFF: Time 75280, Note Name: D#3
Note ON: Time 75360, Note Name: G3, Velocity: 64
Note OFF: Time 75440, Note Name: G3
Note ON: Time 75520, Note Name: A#3, Velocity: 58
Note OFF: Time 75600, Note Name: A#3
Note ON: Time 75680, Note Name: D#4, Velocity: 58
Note OFF: Time 75760, Note Name: D#4
Note ON: Time 75840, Note Name: G4, Velocity: 64
Note OFF: Time 76000, Note Name: G4
Note ON: Time 76000, Note Name: F#4, Velocity: 58
Note OFF: Time 76160, Note Name: F#4
Note ON: Time 76160, Note Name: G#4, Velocity: 58
Note OFF: Time 76320, Note Name: G#4
Note ON: Time 76320, Note Name: G4, Velocity: 64
Note OFF: Time 76440, Note Name: G4
Note ON: Time 76480, Note Name: F4, Velocity: 59
Note OFF: Time 76600, Note Name: F4
Note ON: Time 76640, Note Name: D#4, Velocity: 59
Note OFF: Time 76760, Note Name: D#4
Note ON: Time 76800, Note Name: G#4, Velocity: 62
Note ON: Time 76800, Note Name: A#3, Velocity: 52
Note OFF: Time 78720, Note Name: A#3
Note OFF: Time 78720, Note Name: G#4
Note ON: Time 78880, Note Name: A#1, Velocity: 64
Note OFF: Time 78960, Note Name: A#1
Note ON: Time 79040, Note Name: D#2, Velocity: 64
Note OFF: Time 79120, Note Name: D#2
Note ON: Time 79200, Note Name: G2, Velocity: 64
Note OFF: Time 79280, Note Name: G2
Note ON: Time 79360, Note Name: A#2, Velocity: 58
Note OFF: Time 79440, Note Name: A#2
Note ON: Time 79520, Note Name: D#3, Velocity: 58
Note OFF: Time 79600, Note Name: D#3
Note ON: Time 79680, Note Name: G3, Velocity: 64
Note OFF: Time 79840, Note Name: G3
Note ON: Time 79840, Note Name: F#3, Velocity: 58
Note OFF: Time 80000, Note Name: F#3
Note ON: Time 80000, Note Name: G#3, Velocity: 58
Note OFF: Time 80160, Note Name: G#3
Note ON: Time 80160, Note Name: G3, Velocity: 64
Note OFF: Time 80280, Note Name: G3
Note ON: Time 80320, Note Name: F3, Velocity: 59
Note OFF: Time 80440, Note Name: F3
Note ON: Time 80480, Note Name: D#3, Velocity: 59
Note OFF: Time 80600, Note Name: D#3
Note ON: Time 80640, Note Name: G#3, Velocity: 62
Note ON: Time 80640, Note Name: A#2, Velocity: 52
Note OFF: Time 82560, Note Name: A#2
Note OFF: Time 82560, Note Name: G#3
Note ON: Time 82560, Note Name: D#3, Velocity: 37
Note ON: Time 82560, Note Name: G3, Velocity: 43
Note OFF: Time 83040, Note Name: G3
Note OFF: Time 83040, Note Name: D#3
Note ON: Time 84360, Note Name: D#2, Velocity: 64
Note ON: Time 84385, Note Name: A#2, Velocity: 67
Note ON: Time 84390, Note Name: C#3, Velocity: 67
Note ON: Time 84405, Note Name: D#3, Velocity: 69
Note OFF: Time 84960, Note Name: D#3
Note OFF: Time 84960, Note Name: C#3
Note OFF: Time 84960, Note Name: D#2
Note OFF: Time 84970, Note Name: A#2
Note ON: Time 86400, Note Name: G#2, Velocity: 39
Note OFF: Time 86880, Note Name: G#2
Note ON: Time 86880, Note Name: D#3, Velocity: 32
Note OFF: Time 87360, Note Name: D#3
Note ON: Time 87360, Note Name: G2, Velocity: 39
Note OFF: Time 87840, Note Name: G2
Note ON: Time 87840, Note Name: D#3, Velocity: 29
Note OFF: Time 88320, Note Name: D#3
Note ON: Time 88320, Note Name: G#2, Velocity: 42
Note OFF: Time 88800, Note Name: G#2
Note ON: Time 88800, Note Name: D#3, Velocity: 36
Note OFF: Time 89280, Note Name: D#3
Note ON: Time 89280, Note Name: G#3, Velocity: 38
Note OFF: Time 89760, Note Name: G#3
Note ON: Time 89760, Note Name: C4, Velocity: 40
Note OFF: Time 90240, Note Name: C4
Note ON: Time 90240, Note Name: G3, Velocity: 46
Note ON: Time 90240, Note Name: C#4, Velocity: 46
Note OFF: Time 90720, Note Name: C#4
Note ON: Time 90720, Note Name: A#3, Velocity: 32
Note OFF: Time 91200, Note Name: A#3
Note OFF: Time 91200, Note Name: G3
Note ON: Time 91200, Note Name: G#3, Velocity: 29
Note ON: Time 91680, Note Name: C4, Velocity: 32
Note OFF: Time 92160, Note Name: C4
Note OFF: Time 92160, Note Name: G#3
Note ON: Time 92160, Note Name: D#3, Velocity: 30
Note ON: Time 92160, Note Name: D#4, Velocity: 36
Note ON: Time 92640, Note Name: C#4, Velocity: 32
Note OFF: Time 93120, Note Name: C#4
Note ON: Time 93120, Note Name: A#3, Velocity: 32
Note OFF: Time 93600, Note Name: A#3
Note ON: Time 93600, Note Name: G3, Velocity: 32
Note OFF: Time 94080, Note Name: G3
Note OFF: Time 94080, Note Name: D#4
Note OFF: Time 94080, Note Name: D#3
Note ON: Time 94440, Note Name: G#3, Velocity: 37
Note OFF: Time 94560, Note Name: G#3
Note ON: Time 94560, Note Name: D#4, Velocity: 46
Note OFF: Time 95040, Note Name: D#4
Note ON: Time 95400, Note Name: C3, Velocity: 39
Note OFF: Time 95520, Note Name: C3
Note ON: Time 95520, Note Name: G#3, Velocity: 48
Note OFF: Time 96000, Note Name: G#3
Note ON: Time 96360, Note Name: C#3, Velocity: 51
Note OFF: Time 96480, Note Name: C#3
Note ON: Time 96480, Note Name: C#4, Velocity: 56
Note OFF: Time 96840, Note Name: C#4
Note ON: Time 96840, Note Name: F3, Velocity: 56
Note ON: Time 96960, Note Name: C#4, Velocity: 62
Note OFF: Time 97320, Note Name: C#4
Note ON: Time 97320, Note Name: G#3, Velocity: 56
Note OFF: Time 97440, Note Name: G#3
Note ON: Time 97440, Note Name: F4, Velocity: 65
Note OFF: Time 97800, Note Name: F4
Note ON: Time 97800, Note Name: C#4, Velocity: 65
Note OFF: Time 97920, Note Name: C#4
Note ON: Time 97920, Note Name: G#3, Velocity: 72
Note OFF: Time 98400, Note Name: G#3
Note OFF: Time 98400, Note Name: F3
Note ON: Time 98400, Note Name: F3, Velocity: 40
Note ON: Time 98400, Note Name: G#3, Velocity: 48
Note OFF: Time 98880, Note Name: G#3
Note OFF: Time 98880, Note Name: F3
Note ON: Time 98880, Note Name: G3, Velocity: 48
Note ON: Time 98880, Note Name: A#3, Velocity: 57
Note OFF: Time 99360, Note Name: A#3
Note OFF: Time 99360, Note Name: G3
Note ON: Time 99360, Note Name: C4, Velocity: 48
Note ON: Time 99360, Note Name: G#3, Velocity: 40
Note OFF: Time 99840, Note Name: G#3
Note OFF: Time 99840, Note Name: C4
Note ON: Time 99840, Note Name: C4, Velocity: 43
Note ON: Time 99840, Note Name: D#3, Velocity: 43
Note OFF: Time 100560, Note Name: C4
Note ON: Time 100560, Note Name: G#3, Velocity: 31
Note OFF: Time 100800, Note Name: G#3
Note OFF: Time 100800, Note Name: D#3
Note ON: Time 100800, Note Name: D#3, Velocity: 26
Note ON: Time 100800, Note Name: G3, Velocity: 31
Note OFF: Time 101280, Note Name: G3
Note OFF: Time 101280, Note Name: D#3
Note ON: Time 101760, Note Name: G#2, Velocity: 36
Note ON: Time 102000, Note Name: D#3, Velocity: 28
Note OFF: Time 102228, Note Name: D#3
Note ON: Time 102240, Note Name: D#3, Velocity: 29
Note OFF: Time 102468, Note Name: D#3
Note ON: Time 102480, Note Name: D#3, Velocity: 29
Note OFF: Time 102708, Note Name: D#3
Note OFF: Time 102720, Note Name: G#2
Note ON: Time 102720, Note Name: G2, Velocity: 36
Note ON: Time 102960, Note Name: D#3, Velocity: 28
Note OFF: Time 103188, Note Name: D#3
Note ON: Time 103200, Note Name: D#3, Velocity: 28
Note OFF: Time 103428, Note Name: D#3
Note ON: Time 103440, Note Name: D#3, Velocity: 28
Note OFF: Time 103668, Note Name: D#3
Note OFF: Time 103680, Note Name: G2
Note ON: Time 103680, Note Name: G#2, Velocity: 43
Note OFF: Time 103800, Note Name: G#2
Note ON: Time 103840, Note Name: D#3, Velocity: 36
Note OFF: Time 103960, Note Name: D#3
Note ON: Time 104000, Note Name: C3, Velocity: 36
Note OFF: Time 104120, Note Name: C3
Note ON: Time 104160, Note Name: G#3, Velocity: 40
Note OFF: Time 104280, Note Name: G#3
Note ON: Time 104320, Note Name: D#3, Velocity: 36
Note OFF: Time 104440, Note Name: D#3
Note ON: Time 104480, Note Name: C4, Velocity: 36
Note OFF: Time 104600, Note Name: C4
Note ON: Time 104640, Note Name: G#3, Velocity: 43
Note OFF: Time 104760, Note Name: G#3
Note ON: Time 104800, Note Name: D#4, Velocity: 36
Note OFF: Time 104920, Note Name: D#4
Note ON: Time 104960, Note Name: C#4, Velocity: 36
Note OFF: Time 105080, Note Name: C#4
Note ON: Time 105120, Note Name: C4, Velocity: 47
Note OFF: Time 105240, Note Name: C4
Note ON: Time 105280, Note Name: A#3, Velocity: 36
Note OFF: Time 105400, Note Name: A#3
Note ON: Time 105440, Note Name: G#3, Velocity: 36
Note OFF: Time 105560, Note Name: G#3
Note ON: Time 105600, Note Name: G3, Velocity: 45
Note ON: Time 105840, Note Name: D#3, Velocity: 29
Note OFF: Time 106068, Note Name: D#3
Note ON: Time 106080, Note Name: D#3, Velocity: 29
Note OFF: Time 106308, Note Name: D#3
Note ON: Time 106320, Note Name: D#3, Velocity: 29
Note OFF: Time 106548, Note Name: D#3
Note OFF: Time 106560, Note Name: G3
Note ON: Time 106560, Note Name: G#3, Velocity: 36
Note ON: Time 106800, Note Name: D#3, Velocity: 29
Note OFF: Time 107028, Note Name: D#3
Note ON: Time 107040, Note Name: D#3, Velocity: 29
Note OFF: Time 107268, Note Name: D#3
Note ON: Time 107280, Note Name: D#3, Velocity: 29
Note OFF: Time 107508, Note Name: D#3
Note OFF: Time 107520, Note Name: G#3
Note ON: Time 107520, Note Name: D#2, Velocity: 41
Note OFF: Time 107640, Note Name: D#2
Note ON: Time 107680, Note Name: G2, Velocity: 38
Note OFF: Time 107800, Note Name: G2
Note ON: Time 107840, Note Name: A#2, Velocity: 38
Note OFF: Time 107960, Note Name: A#2
Note ON: Time 108000, Note Name: D#3, Velocity: 48
Note OFF: Time 108120, Note Name: D#3
Note ON: Time 108160, Note Name: G3, Velocity: 48
Note OFF: Time 108280, Note Name: G3
Note ON: Time 108320, Note Name: A#3, Velocity: 51
Note OFF: Time 108440, Note Name: A#3
Note ON: Time 108480, Note Name: C#4, Velocity: 55
Note OFF: Time 108600, Note Name: C#4
Note ON: Time 108640, Note Name: F4, Velocity: 49
Note OFF: Time 108760, Note Name: F4
Note ON: Time 108800, Note Name: D#4, Velocity: 49
Note OFF: Time 108920, Note Name: D#4
Note ON: Time 108960, Note Name: C#4, Velocity: 53
Note OFF: Time 109080, Note Name: C#4
Note ON: Time 109120, Note Name: C4, Velocity: 44
Note OFF: Time 109240, Note Name: C4
Note ON: Time 109280, Note Name: A#3, Velocity: 44
Note OFF: Time 109400, Note Name: A#3
Note ON: Time 109440, Note Name: G#3, Velocity: 39
Note OFF: Time 109560, Note Name: G#3
Note ON: Time 109600, Note Name: D#4, Velocity: 42
Note OFF: Time 109720, Note Name: D#4
Note ON: Time 109760, Note Name: C4, Velocity: 37
Note OFF: Time 109880, Note Name: C4
Note ON: Time 109920, Note Name: G#3, Velocity: 42
Note OFF: Time 110040, Note Name: G#3
Note ON: Time 110080, Note Name: D#3, Velocity: 32
Note OFF: Time 110200, Note Name: D#3
Note ON: Time 110240, Note Name: C3, Velocity: 32
Note OFF: Time 110360, Note Name: C3
Note ON: Time 110560, Note Name: C4, Velocity: 36
Note OFF: Time 110680, Note Name: C4
Note ON: Time 110720, Note Name: G#3, Velocity: 36
Note OFF: Time 110840, Note Name: G#3
Note ON: Time 110880, Note Name: D#3, Velocity: 47
Note OFF: Time 111000, Note Name: D#3
Note ON: Time 111040, Note Name: C3, Velocity: 38
Note OFF: Time 111160, Note Name: C3
Note ON: Time 111200, Note Name: G#2, Velocity: 40
Note OFF: Time 111320, Note Name: G#2
Note ON: Time 111520, Note Name: C#3, Velocity: 32
Note ON: Time 111680, Note Name: D#3, Velocity: 36
Note ON: Time 111840, Note Name: F3, Velocity: 36
Note OFF: Time 111848, Note Name: D#3
Note ON: Time 112000, Note Name: F#3, Velocity: 41
Note OFF: Time 112008, Note Name: F3
Note ON: Time 112160, Note Name: G3, Velocity: 43
Note OFF: Time 112168, Note Name: F#3
Note ON: Time 112320, Note Name: G#3, Velocity: 46
Note OFF: Time 112328, Note Name: G3
Note ON: Time 112480, Note Name: A3, Velocity: 48
Note OFF: Time 112488, Note Name: G#3
Note ON: Time 112640, Note Name: A#3, Velocity: 49
Note OFF: Time 112648, Note Name: A3
Note ON: Time 112800, Note Name: B3, Velocity: 52
Note OFF: Time 112808, Note Name: A#3
Note ON: Time 112960, Note Name: C4, Velocity: 54
Note OFF: Time 112968, Note Name: B3
Note ON: Time 113120, Note Name: C#4, Velocity: 57
Note OFF: Time 113128, Note Name: C4
Note OFF: Time 113280, Note Name: C#4
Note OFF: Time 113280, Note Name: C#3
Note ON: Time 113280, Note Name: D#3, Velocity: 56
Note ON: Time 113440, Note Name: D#4, Velocity: 56
Note OFF: Time 113600, Note Name: D#4
Note ON: Time 113600, Note Name: D4, Velocity: 45
Note OFF: Time 113760, Note Name: D4
Note ON: Time 113920, Note Name: C#4, Velocity: 46
Note OFF: Time 114080, Note Name: C#4
Note ON: Time 114080, Note Name: C4, Velocity: 46
Note OFF: Time 114240, Note Name: C4
Note OFF: Time 114240, Note Name: D#3
Note ON: Time 114240, Note Name: D#3, Velocity: 32
Note ON: Time 114400, Note Name: A#3, Velocity: 51
Note OFF: Time 114560, Note Name: A#3
Note ON: Time 114560, Note Name: C4, Velocity: 44
Note OFF: Time 114720, Note Name: C4
Note ON: Time 114880, Note Name: C#4, Velocity: 44
Note OFF: Time 115040, Note Name: C#4
Note ON: Time 115040, Note Name: G3, Velocity: 44
Note OFF: Time 115200, Note Name: G3
Note OFF: Time 115200, Note Name: D#3
Note ON: Time 115200, Note Name: G#2, Velocity: 32
Note ON: Time 115200, Note Name: G3, Velocity: 51
Note OFF: Time 116160, Note Name: G3
Note ON: Time 116160, Note Name: G#3, Velocity: 35
Note OFF: Time 116640, Note Name: G#3
Note OFF: Time 116640, Note Name: G#2
Note ON: Time 117120, Note Name: D#4, Velocity: 76
Note ON: Time 117120, Note Name: F4, Velocity: 76
Note ON: Time 117120, Note Name: C4, Velocity: 76
Note ON: Time 117120, Note Name: A3, Velocity: 76
Note OFF: Time 118078, Note Name: F4
Note OFF: Time 118080, Note Name: D#4
Note OFF: Time 118080, Note Name: C4
Note OFF: Time 118080, Note Name: A3
Note ON: Time 118920, Note Name: A2, Velocity: 30
Note ON: Time 118920, Note Name: F3, Velocity: 36
Note OFF: Time 119030, Note Name: F3
Note OFF: Time 119030, Note Name: A2
Note ON: Time 119040, Note Name: A#2, Velocity: 35
Note ON: Time 119040, Note Name: F3, Velocity: 41
Note OFF: Time 120480, Note Name: F3
Note OFF: Time 120480, Note Name: A#2
Note ON: Time 120960, Note Name: C#4, Velocity: 76
Note ON: Time 120960, Note Name: D#4, Velocity: 76
Note ON: Time 120960, Note Name: A#3, Velocity: 76
Note ON: Time 120960, Note Name: G3, Velocity: 76
Note OFF: Time 121918, Note Name: D#4
Note OFF: Time 121920, Note Name: C#4
Note OFF: Time 121920, Note Name: A#3
Note OFF: Time 121920, Note Name: G3
Note ON: Time 122760, Note Name: G2, Velocity: 30
Note ON: Time 122760, Note Name: D#3, Velocity: 36
Note OFF: Time 122870, Note Name: D#3
Note OFF: Time 122870, Note Name: G2
Note ON: Time 122880, Note Name: G#2, Velocity: 35
Note ON: Time 122880, Note Name: D#3, Velocity: 41
Note OFF: Time 124320, Note Name: D#3
Note OFF: Time 124320, Note Name: G#2
Note ON: Time 124770, Note Name: B2, Velocity: 89
Note ON: Time 124800, Note Name: B3, Velocity: 92
Note OFF: Time 124860, Note Name: B2
Note OFF: Time 125520, Note Name: B3
Note ON: Time 125520, Note Name: B3, Velocity: 59
Note OFF: Time 125560, Note Name: B3
Note ON: Time 125560, Note Name: G#3, Velocity: 57
Note OFF: Time 125600, Note Name: G#3
Note ON: Time 125600, Note Name: E3, Velocity: 56
Note OFF: Time 125640, Note Name: E3
Note ON: Time 125640, Note Name: B2, Velocity: 56
Note OFF: Time 125680, Note Name: B2
Note ON: Time 125681, Note Name: G#2, Velocity: 55
Note ON: Time 125720, Note Name: E2, Velocity: 53
Note OFF: Time 125721, Note Name: G#2
Note OFF: Time 125760, Note Name: E2
Note ON: Time 125760, Note Name: B1, Velocity: 91
Note OFF: Time 126000, Note Name: B1
Note ON: Time 126600, Note Name: B1, Velocity: 46
Note ON: Time 126600, Note Name: B2, Velocity: 46
Note OFF: Time 126710, Note Name: B2
Note OFF: Time 126710, Note Name: B1
Note ON: Time 126720, Note Name: B1, Velocity: 70
Note ON: Time 126720, Note Name: B2, Velocity: 52
Note OFF: Time 128160, Note Name: B2
Note OFF: Time 128160, Note Name: B1
Note ON: Time 128520, Note Name: B1, Velocity: 46
Note ON: Time 128520, Note Name: B2, Velocity: 46
Note OFF: Time 128630, Note Name: B2
Note OFF: Time 128630, Note Name: B1
Note ON: Time 128640, Note Name: B1, Velocity: 70
Note ON: Time 128640, Note Name: B2, Velocity: 52
Note OFF: Time 129600, Note Name: B2
Note OFF: Time 129600, Note Name: B1
Note ON: Time 129600, Note Name: A#1, Velocity: 43
Note ON: Time 129600, Note Name: A#2, Velocity: 46
Note OFF: Time 130080, Note Name: A#2
Note OFF: Time 130080, Note Name: A#1
Note ON: Time 130440, Note Name: A#1, Velocity: 46
Note ON: Time 130440, Note Name: A#2, Velocity: 46
Note OFF: Time 130550, Note Name: A#2
Note OFF: Time 130550, Note Name: A#1
Note ON: Time 130560, Note Name: A#1, Velocity: 70
Note ON: Time 130560, Note Name: A#2, Velocity: 52
Note OFF: Time 131520, Note Name: A#2
Note OFF: Time 131520, Note Name: A#1
Note ON: Time 131520, Note Name: D#2, Velocity: 43
Note ON: Time 131520, Note Name: D#3, Velocity: 46
Note OFF: Time 131760, Note Name: D#3
Note OFF: Time 131760, Note Name: D#2
Note ON: Time 134400, Note Name: D#4, Velocity: 35
Note ON: Time 134400, Note Name: C#4, Velocity: 29
Note OFF: Time 134856, Note Name: C#4
Note OFF: Time 134856, Note Name: D#4
Note ON: Time 134880, Note Name: D#4, Velocity: 30
Note ON: Time 134880, Note Name: C#4, Velocity: 25
Note OFF: Time 135336, Note Name: C#4
Note OFF: Time 135336, Note Name: D#4
Note ON: Time 135360, Note Name: D#4, Velocity: 30
Note ON: Time 135360, Note Name: C#4, Velocity: 25
Note OFF: Time 135816, Note Name: C#4
Note OFF: Time 135816, Note Name: D#4
Note ON: Time 135840, Note Name: D#4, Velocity: 30
Note ON: Time 135840, Note Name: C#4, Velocity: 25
Note OFF: Time 136296, Note Name: C#4
Note OFF: Time 136296, Note Name: D#4
Note ON: Time 136320, Note Name: D#4, Velocity: 35
Note ON: Time 136320, Note Name: C4, Velocity: 29
Note OFF: Time 136776, Note Name: C4
Note OFF: Time 136776, Note Name: D#4
Note ON: Time 136800, Note Name: D#4, Velocity: 28
Note ON: Time 136800, Note Name: C4, Velocity: 23
Note OFF: Time 137256, Note Name: C4
Note OFF: Time 137256, Note Name: D#4
Note ON: Time 137280, Note Name: D#4, Velocity: 28
Note ON: Time 137280, Note Name: C4, Velocity: 23
Note OFF: Time 137736, Note Name: C4
Note OFF: Time 137736, Note Name: D#4
Note ON: Time 137760, Note Name: D#4, Velocity: 28
Note ON: Time 137760, Note Name: C4, Velocity: 23
Note OFF: Time 138216, Note Name: C4
Note OFF: Time 138216, Note Name: D#4
Note ON: Time 138240, Note Name: G3, Velocity: 29
Note ON: Time 138240, Note Name: D#4, Velocity: 35
Note ON: Time 138240, Note Name: C#4, Velocity: 29
Note OFF: Time 138696, Note Name: C#4
Note OFF: Time 138696, Note Name: D#4
Note OFF: Time 138696, Note Name: G3
Note ON: Time 138720, Note Name: G3, Velocity: 25
Note ON: Time 138720, Note Name: D#4, Velocity: 30
Note ON: Time 138720, Note Name: C#4, Velocity: 25
Note OFF: Time 139176, Note Name: C#4
Note OFF: Time 139176, Note Name: D#4
Note OFF: Time 139176, Note Name: G3
Note ON: Time 139200, Note Name: G3, Velocity: 25
Note ON: Time 139200, Note Name: D#4, Velocity: 30
Note ON: Time 139200, Note Name: C#4, Velocity: 25
Note OFF: Time 139656, Note Name: C#4
Note OFF: Time 139656, Note Name: D#4
Note OFF: Time 139656, Note Name: G3
Note ON: Time 139680, Note Name: G3, Velocity: 25
Note ON: Time 139680, Note Name: D#4, Velocity: 30
Note ON: Time 139680, Note Name: C4, Velocity: 25
Note OFF: Time 140040, Note Name: C4
Note ON: Time 140040, Note Name: A#3, Velocity: 25
Note OFF: Time 140160, Note Name: A#3
Note OFF: Time 140160, Note Name: D#4
Note OFF: Time 140160, Note Name: G3
Note ON: Time 140160, Note Name: G#3, Velocity: 29
Note ON: Time 140160, Note Name: D#4, Velocity: 35
Note ON: Time 140160, Note Name: B3, Velocity: 29
Note OFF: Time 140616, Note Name: B3
Note OFF: Time 140616, Note Name: D#4
Note OFF: Time 140616, Note Name: G#3
Note ON: Time 140640, Note Name: G#3, Velocity: 23
Note ON: Time 140640, Note Name: D#4, Velocity: 28
Note ON: Time 140640, Note Name: C4, Velocity: 23
Note OFF: Time 141096, Note Name: C4
Note OFF: Time 141096, Note Name: D#4
Note OFF: Time 141096, Note Name: G#3
Note ON: Time 141120, Note Name: G#3, Velocity: 23
Note ON: Time 141120, Note Name: D#4, Velocity: 28
Note ON: Time 141120, Note Name: C4, Velocity: 23
Note OFF: Time 141576, Note Name: C4
Note OFF: Time 141576, Note Name: D#4
Note OFF: Time 141576, Note Name: G#3
Note ON: Time 141600, Note Name: G#3, Velocity: 28
Note ON: Time 141600, Note Name: D#4, Velocity: 28
Note ON: Time 141600, Note Name: C4, Velocity: 23
Note OFF: Time 142056, Note Name: C4
Note OFF: Time 142056, Note Name: D#4
Note OFF: Time 142056, Note Name: G#3
Note ON: Time 142080, Note Name: C#4, Velocity: 25
Note ON: Time 142080, Note Name: D#4, Velocity: 30
Note OFF: Time 142536, Note Name: D#4
Note OFF: Time 142536, Note Name: C#4
Note ON: Time 142560, Note Name: C#4, Velocity: 25
Note ON: Time 142560, Note Name: D#4, Velocity: 30
Note OFF: Time 143016, Note Name: D#4
Note OFF: Time 143016, Note Name: C#4
Note ON: Time 143040, Note Name: C#4, Velocity: 25
Note ON: Time 143040, Note Name: D#4, Velocity: 30
Note OFF: Time 143496, Note Name: D#4
Note OFF: Time 143496, Note Name: C#4
Note ON: Time 143520, Note Name: C#4, Velocity: 25
Note ON: Time 143520, Note Name: D#4, Velocity: 30
Note OFF: Time 143976, Note Name: D#4
Note OFF: Time 143976, Note Name: C#4
Note ON: Time 144480, Note Name: C4, Velocity: 25
Note ON: Time 144480, Note Name: D#4, Velocity: 30
Note OFF: Time 144936, Note Name: D#4
Note OFF: Time 144936, Note Name: C4
Note ON: Time 144960, Note Name: C4, Velocity: 25
Note ON: Time 144960, Note Name: D#4, Velocity: 30
Note OFF: Time 145416, Note Name: D#4
Note OFF: Time 145416, Note Name: C4
Note ON: Time 145440, Note Name: C4, Velocity: 25
Note ON: Time 145440, Note Name: D#4, Velocity: 30
Note OFF: Time 145896, Note Name: D#4
Note OFF: Time 145896, Note Name: C4
Note ON: Time 145920, Note Name: G3, Velocity: 25
Note ON: Time 145920, Note Name: C#4, Velocity: 25
Note ON: Time 145920, Note Name: D#4, Velocity: 30
Note OFF: Time 146376, Note Name: D#4
Note OFF: Time 146376, Note Name: C#4
Note OFF: Time 146376, Note Name: G3
Note ON: Time 146400, Note Name: G3, Velocity: 25
Note ON: Time 146400, Note Name: A#3, Velocity: 25
Note ON: Time 146400, Note Name: C#4, Velocity: 25
Note ON: Time 146400, Note Name: D#4, Velocity: 30
Note OFF: Time 146856, Note Name: D#4
Note OFF: Time 146856, Note Name: G3
Note OFF: Time 146856, Note Name: A#3
Note OFF: Time 146856, Note Name: C#4
Note ON: Time 146880, Note Name: G3, Velocity: 25
Note ON: Time 146880, Note Name: A#3, Velocity: 25
Note ON: Time 146880, Note Name: C#4, Velocity: 25
Note ON: Time 146880, Note Name: D#4, Velocity: 30
Note OFF: Time 147336, Note Name: D#4
Note OFF: Time 147336, Note Name: G3
Note OFF: Time 147336, Note Name: A#3
Note OFF: Time 147336, Note Name: C#4
Note ON: Time 147360, Note Name: G3, Velocity: 25
Note ON: Time 147360, Note Name: A#3, Velocity: 25
Note ON: Time 147360, Note Name: C#4, Velocity: 25
Note ON: Time 147360, Note Name: D#4, Velocity: 30
Note OFF: Time 147816, Note Name: D#4
Note OFF: Time 147816, Note Name: G3
Note OFF: Time 147816, Note Name: A#3
Note OFF: Time 147816, Note Name: C#4
Note ON: Time 148320, Note Name: G#3, Velocity: 30
Note ON: Time 148320, Note Name: C4, Velocity: 30
Note ON: Time 148320, Note Name: D#4, Velocity: 30
Note OFF: Time 148800, Note Name: D#4
Note OFF: Time 148800, Note Name: C4
Note OFF: Time 148800, Note Name: G#3
Note ON: Time 149280, Note Name: A#3, Velocity: 32
Note ON: Time 149280, Note Name: C#4, Velocity: 32
Note ON: Time 149280, Note Name: D#4, Velocity: 32
Note ON: Time 149280, Note Name: G4, Velocity: 32
Note OFF: Time 149760, Note Name: G4
Note OFF: Time 149760, Note Name: A#3
Note OFF: Time 149760, Note Name: C#4
Note OFF: Time 149760, Note Name: D#4
Note ON: Time 150240, Note Name: C4, Velocity: 37
Note ON: Time 150240, Note Name: D#4, Velocity: 37
Note ON: Time 150240, Note Name: G#4, Velocity: 37
Note OFF: Time 150720, Note Name: G#4
Note OFF: Time 150720, Note Name: D#4
Note OFF: Time 150720, Note Name: C4
Note ON: Time 151200, Note Name: C4, Velocity: 43
Note ON: Time 151200, Note Name: E4, Velocity: 43
Note ON: Time 151200, Note Name: G#4, Velocity: 43
Note OFF: Time 151680, Note Name: G#4
Note OFF: Time 151680, Note Name: E4
Note OFF: Time 151680, Note Name: C4
Note ON: Time 152160, Note Name: C#4, Velocity: 51
Note ON: Time 152160, Note Name: F4, Velocity: 51
Note ON: Time 152160, Note Name: G#4, Velocity: 51
Note OFF: Time 152640, Note Name: G#4
Note OFF: Time 152640, Note Name: F4
Note OFF: Time 152640, Note Name: C#4
Note ON: Time 153120, Note Name: E4, Velocity: 60
Note ON: Time 153120, Note Name: C#4, Velocity: 60
Note ON: Time 153120, Note Name: G4, Velocity: 60
Note ON: Time 153120, Note Name: A#4, Velocity: 60
Note OFF: Time 153600, Note Name: A#4
Note OFF: Time 153600, Note Name: E4
Note OFF: Time 153600, Note Name: C#4
Note OFF: Time 153600, Note Name: G4
Note ON: Time 154080, Note Name: D4, Velocity: 60
Note ON: Time 154080, Note Name: F4, Velocity: 60
Note ON: Time 154080, Note Name: G#4, Velocity: 60
Note ON: Time 154080, Note Name: B4, Velocity: 60
Note OFF: Time 154560, Note Name: B4
Note OFF: Time 154560, Note Name: D4
Note OFF: Time 154560, Note Name: F4
Note OFF: Time 154560, Note Name: G#4
Note ON: Time 156000, Note Name: C4, Velocity: 40
Note ON: Time 156000, Note Name: G#3, Velocity: 34
Note ON: Time 156000, Note Name: D#3, Velocity: 34
Note OFF: Time 156480, Note Name: D#3
Note OFF: Time 156480, Note Name: G#3
Note OFF: Time 156480, Note Name: C4
Note ON: Time 156960, Note Name: C#4, Velocity: 40
Note ON: Time 156960, Note Name: G3, Velocity: 34
Note ON: Time 156960, Note Name: D#3, Velocity: 34
Note OFF: Time 157440, Note Name: D#3
Note OFF: Time 157440, Note Name: G3
Note OFF: Time 157440, Note Name: C#4
Note ON: Time 157760, Note Name: G#3, Velocity: 32
Note OFF: Time 157920, Note Name: G#3
Note ON: Time 157920, Note Name: D#3, Velocity: 39
Note OFF: Time 158080, Note Name: D#3
Note ON: Time 158080, Note Name: C3, Velocity: 32
Note OFF: Time 158240, Note Name: C3
Note ON: Time 158240, Note Name: G#2, Velocity: 32
Note OFF: Time 158400, Note Name: G#2
Note ON: Time 158720, Note Name: A#3, Velocity: 34
Note OFF: Time 158880, Note Name: A#3
Note ON: Time 158880, Note Name: G3, Velocity: 39
Note OFF: Time 159040, Note Name: G3
Note ON: Time 159040, Note Name: D#3, Velocity: 33
Note OFF: Time 159200, Note Name: D#3
Note ON: Time 159200, Note Name: A#2, Velocity: 33
Note OFF: Time 159360, Note Name: A#2
Note ON: Time 159680, Note Name: C4, Velocity: 33
Note OFF: Time 159840, Note Name: C4
Note ON: Time 159840, Note Name: G#3, Velocity: 40
Note OFF: Time 160000, Note Name: G#3
Note ON: Time 160000, Note Name: D#3, Velocity: 34
Note OFF: Time 160160, Note Name: D#3
Note ON: Time 160160, Note Name: C3, Velocity: 34
Note OFF: Time 160320, Note Name: C3
Note ON: Time 160640, Note Name: C4, Velocity: 46
Note OFF: Time 160800, Note Name: C4
Note ON: Time 160800, Note Name: G#3, Velocity: 53
Note OFF: Time 160960, Note Name: G#3
Note ON: Time 160960, Note Name: E3, Velocity: 46
Note OFF: Time 161120, Note Name: E3
Note ON: Time 161120, Note Name: C3, Velocity: 46
Note OFF: Time 161280, Note Name: C3
Note ON: Time 161600, Note Name: C#4, Velocity: 47
Note OFF: Time 161760, Note Name: C#4
Note ON: Time 161760, Note Name: G#3, Velocity: 58
Note OFF: Time 161920, Note Name: G#3
Note ON: Time 161920, Note Name: F3, Velocity: 49
Note OFF: Time 162080, Note Name: F3
Note ON: Time 162080, Note Name: C#3, Velocity: 49
Note OFF: Time 162240, Note Name: C#3
Note ON: Time 162560, Note Name: C#4, Velocity: 56
Note OFF: Time 162720, Note Name: C#4
Note ON: Time 162720, Note Name: A#3, Velocity: 63
Note OFF: Time 162880, Note Name: A#3
Note ON: Time 162880, Note Name: G3, Velocity: 54
Note OFF: Time 163040, Note Name: G3
Note ON: Time 163040, Note Name: D#3, Velocity: 55
Note OFF: Time 163200, Note Name: D#3
Note ON: Time 163520, Note Name: D4, Velocity: 78
Note ON: Time 163680, Note Name: B3, Velocity: 57
Note ON: Time 163840, Note Name: G#3, Velocity: 61
Note ON: Time 164000, Note Name: E3, Velocity: 65
Note OFF: Time 165120, Note Name: E3
Note OFF: Time 165120, Note Name: D4
Note OFF: Time 165120, Note Name: B3
Note OFF: Time 165120, Note Name: G#3
Note ON: Time 165280, Note Name: D#3, Velocity: 64
Note OFF: Time 165360, Note Name: D#3
Note ON: Time 165440, Note Name: G#3, Velocity: 64
Note OFF: Time 165520, Note Name: G#3
Note ON: Time 165600, Note Name: C4, Velocity: 64
Note OFF: Time 165680, Note Name: C4
Note ON: Time 165760, Note Name: D#4, Velocity: 58
Note OFF: Time 165840, Note Name: D#4
Note ON: Time 165920, Note Name: G#4, Velocity: 58
Note OFF: Time 166000, Note Name: G#4
Note ON: Time 166080, Note Name: C5, Velocity: 64
Note OFF: Time 166240, Note Name: C5
Note ON: Time 166240, Note Name: B4, Velocity: 58
Note OFF: Time 166400, Note Name: B4
Note ON: Time 166400, Note Name: C#5, Velocity: 58
Note OFF: Time 166560, Note Name: C#5
Note ON: Time 166560, Note Name: C5, Velocity: 64
Note OFF: Time 166680, Note Name: C5
Note ON: Time 166720, Note Name: A#4, Velocity: 59
Note OFF: Time 166840, Note Name: A#4
Note ON: Time 166880, Note Name: G#4, Velocity: 59
Note OFF: Time 167000, Note Name: G#4
Note ON: Time 167040, Note Name: C#5, Velocity: 62
Note ON: Time 167040, Note Name: D#4, Velocity: 52
Note OFF: Time 168960, Note Name: D#4
Note OFF: Time 168960, Note Name: C#5
Note ON: Time 169120, Note Name: D#2, Velocity: 64
Note OFF: Time 169200, Note Name: D#2
Note ON: Time 169280, Note Name: G#2, Velocity: 64
Note OFF: Time 169360, Note Name: G#2
Note ON: Time 169440, Note Name: C3, Velocity: 64
Note OFF: Time 169520, Note Name: C3
Note ON: Time 169600, Note Name: D#3, Velocity: 58
Note OFF: Time 169680, Note Name: D#3
Note ON: Time 169760, Note Name: G#3, Velocity: 58
Note OFF: Time 169840, Note Name: G#3
Note ON: Time 169920, Note Name: C4, Velocity: 64
Note OFF: Time 170080, Note Name: C4
Note ON: Time 170080, Note Name: B3, Velocity: 58
Note OFF: Time 170240, Note Name: B3
Note ON: Time 170240, Note Name: C#4, Velocity: 58
Note OFF: Time 170400, Note Name: C#4
Note ON: Time 170400, Note Name: C4, Velocity: 64
Note OFF: Time 170520, Note Name: C4
Note ON: Time 170560, Note Name: A#3, Velocity: 59
Note OFF: Time 170680, Note Name: A#3
Note ON: Time 170720, Note Name: G#3, Velocity: 59
Note OFF: Time 170840, Note Name: G#3
Note ON: Time 170880, Note Name: C#4, Velocity: 62
Note ON: Time 170880, Note Name: D#3, Velocity: 52
Note OFF: Time 172800, Note Name: D#3
Note OFF: Time 172800, Note Name: C#4
Note ON: Time 172800, Note Name: G#3, Velocity: 39
Note OFF: Time 173280, Note Name: G#3
Note ON: Time 173280, Note Name: D#3, Velocity: 32
Note OFF: Time 173760, Note Name: D#3
Note ON: Time 173760, Note Name: G3, Velocity: 39
Note OFF: Time 174240, Note Name: G3
Note ON: Time 174240, Note Name: D#3, Velocity: 29
Note OFF: Time 174720, Note Name: D#3
Note ON: Time 174720, Note Name: G#3, Velocity: 42
Note OFF: Time 175200, Note Name: G#3
Note ON: Time 175200, Note Name: D#3, Velocity: 36
Note OFF: Time 175680, Note Name: D#3
Note ON: Time 175680, Note Name: C3, Velocity: 38
Note OFF: Time 176160, Note Name: C3
Note ON: Time 176160, Note Name: G#2, Velocity: 40
Note OFF: Time 176640, Note Name: G#2
Note ON: Time 176640, Note Name: G2, Velocity: 46
Note OFF: Time 177120, Note Name: G2
Note ON: Time 177120, Note Name: D#2, Velocity: 32
Note OFF: Time 177600, Note Name: D#2
Note ON: Time 177600, Note Name: G#2, Velocity: 29
Note OFF: Time 178080, Note Name: G#2
Note ON: Time 178080, Note Name: C3, Velocity: 32
Note OFF: Time 178560, Note Name: C3
Note ON: Time 178560, Note Name: D#3, Velocity: 36
Note OFF: Time 179040, Note Name: D#3
Note ON: Time 179040, Note Name: F3, Velocity: 42
Note OFF: Time 179520, Note Name: F3
Note ON: Time 179520, Note Name: D#3, Velocity: 36
Note ON: Time 180000, Note Name: C#3, Velocity: 33
Note OFF: Time 180480, Note Name: C#3
Note ON: Time 180480, Note Name: C3, Velocity: 43
Note OFF: Time 180960, Note Name: D#3
Note ON: Time 180960, Note Name: G#3, Velocity: 43
Note OFF: Time 181440, Note Name: C3
Note ON: Time 181440, Note Name: A#2, Velocity: 36
Note OFF: Time 181920, Note Name: G#3
Note ON: Time 181920, Note Name: G3, Velocity: 43
Note OFF: Time 182400, Note Name: A#2
Note ON: Time 182400, Note Name: G#2, Velocity: 46
Note OFF: Time 182880, Note Name: G3
Note ON: Time 182880, Note Name: G#3, Velocity: 43
Note OFF: Time 183360, Note Name: G#2
Note ON: Time 183360, Note Name: C#3, Velocity: 45
Note OFF: Time 183840, Note Name: G#3
Note ON: Time 183840, Note Name: A#3, Velocity: 43
Note OFF: Time 184080, Note Name: A#3
Note ON: Time 184080, Note Name: C#4, Velocity: 41
Note OFF: Time 184320, Note Name: C#4
Note OFF: Time 184320, Note Name: C#3
Note ON: Time 184320, Note Name: D#3, Velocity: 53
Note ON: Time 184800, Note Name: C4, Velocity: 53
Note OFF: Time 185280, Note Name: D#3
Note ON: Time 185280, Note Name: D#3, Velocity: 36
Note OFF: Time 185760, Note Name: C4
Note ON: Time 185760, Note Name: G3, Velocity: 53
Note OFF: Time 186240, Note Name: D#3
Note ON: Time 186240, Note Name: G#2, Velocity: 49
Note ON: Time 186240, Note Name: D#3, Velocity: 49
Note OFF: Time 186720, Note Name: G3
Note ON: Time 186720, Note Name: G#3, Velocity: 53
Note OFF: Time 187200, Note Name: G#3
Note OFF: Time 187200, Note Name: D#3
Note OFF: Time 187200, Note Name: G#2
Note ON: Time 187200, Note Name: A#2, Velocity: 46
Note ON: Time 187200, Note Name: D#3, Velocity: 46
Note ON: Time 187200, Note Name: A#3, Velocity: 55
Note OFF: Time 187680, Note Name: A#3
Note OFF: Time 187680, Note Name: D#3
Note OFF: Time 187680, Note Name: A#2
Note ON: Time 187680, Note Name: B2, Velocity: 50
Note ON: Time 187680, Note Name: D#3, Velocity: 50
Note ON: Time 187680, Note Name: B3, Velocity: 59
Note OFF: Time 188160, Note Name: B3
Note OFF: Time 188160, Note Name: D#3
Note OFF: Time 188160, Note Name: B2
Note ON: Time 188160, Note Name: C4, Velocity: 53
Note ON: Time 188160, Note Name: C3, Velocity: 64
Note ON: Time 188160, Note Name: D#3, Velocity: 64
Note ON: Time 188400, Note Name: G#3, Velocity: 53
Note OFF: Time 188640, Note Name: C4
Note OFF: Time 188880, Note Name: G#3
Note ON: Time 188880, Note Name: G#3, Velocity: 53
Note OFF: Time 189120, Note Name: D#3
Note OFF: Time 189120, Note Name: C3
Note ON: Time 189120, Note Name: A#2, Velocity: 52
Note ON: Time 189120, Note Name: D#3, Velocity: 52
Note OFF: Time 189360, Note Name: G#3
Note ON: Time 189360, Note Name: G3, Velocity: 53
Note OFF: Time 189840, Note Name: G3
Note ON: Time 189840, Note Name: G3, Velocity: 53
Note OFF: Time 190080, Note Name: D#3
Note OFF: Time 190080, Note Name: A#2
Note ON: Time 190080, Note Name: G#2, Velocity: 55
Note OFF: Time 190320, Note Name: G3
Note ON: Time 190320, Note Name: G#3, Velocity: 53
Note OFF: Time 190800, Note Name: G#3
Note ON: Time 190800, Note Name: G#3, Velocity: 53
Note OFF: Time 191040, Note Name: G#2
Note ON: Time 191040, Note Name: C#3, Velocity: 48
Note ON: Time 191280, Note Name: A3, Velocity: 53
Note OFF: Time 191520, Note Name: A3
Note OFF: Time 191520, Note Name: G#3
Note ON: Time 191520, Note Name: A#3, Velocity: 53
Note OFF: Time 191760, Note Name: A#3
Note ON: Time 191760, Note Name: C#4, Velocity: 53
Note OFF: Time 192000, Note Name: C#3
Note ON: Time 192000, Note Name: D#3, Velocity: 58
Note OFF: Time 192480, Note Name: C#4
Note ON: Time 192480, Note Name: C4, Velocity: 53
Note OFF: Time 192960, Note Name: C4
Note OFF: Time 192960, Note Name: D#3
Note ON: Time 192960, Note Name: C#4, Velocity: 53
Note ON: Time 192960, Note Name: D#3, Velocity: 52
Note OFF: Time 193440, Note Name: C#4
Note ON: Time 193440, Note Name: A#3, Velocity: 46
Note ON: Time 193440, Note Name: C#4, Velocity: 46
Note OFF: Time 193920, Note Name: C#4
Note OFF: Time 193920, Note Name: A#3
Note OFF: Time 193920, Note Name: D#3
Note ON: Time 193920, Note Name: G#2, Velocity: 40
Note ON: Time 193920, Note Name: G#3, Velocity: 40
Note OFF: Time 194400, Note Name: G#3
Note OFF: Time 194400, Note Name: G#2
Note ON: Time 194400, Note Name: C3, Velocity: 36
Note OFF: Time 194880, Note Name: C3
Note ON: Time 194880, Note Name: D#3, Velocity: 36
Note OFF: Time 195360, Note Name: D#3
Note ON: Time 195360, Note Name: G#3, Velocity: 36
Note OFF: Time 195840, Note Name: G#3
Note ON: Time 195840, Note Name: G3, Velocity: 40
Note OFF: Time 196320, Note Name: G3
Note ON: Time 196320, Note Name: F3, Velocity: 36
Note OFF: Time 196800, Note Name: F3
Note ON: Time 196800, Note Name: D#3, Velocity: 36
Note OFF: Time 197280, Note Name: D#3
Note ON: Time 197280, Note Name: G3, Velocity: 39
Note OFF: Time 197760, Note Name: G3
Note ON: Time 197760, Note Name: G#3, Velocity: 40
Note OFF: Time 198240, Note Name: G#3
Note ON: Time 198240, Note Name: D#3, Velocity: 36
Note OFF: Time 198720, Note Name: D#3
Note ON: Time 198720, Note Name: C3, Velocity: 36
Note OFF: Time 199200, Note Name: C3
Note ON: Time 199200, Note Name: G#2, Velocity: 33
Note OFF: Time 199680, Note Name: G#2
Note ON: Time 199680, Note Name: G2, Velocity: 40
Note OFF: Time 200160, Note Name: G2
Note ON: Time 200160, Note Name: F2, Velocity: 37
Note OFF: Time 200640, Note Name: F2
Note ON: Time 200640, Note Name: D#2, Velocity: 40
Note OFF: Time 201120, Note Name: D#2
Note ON: Time 201120, Note Name: G2, Velocity: 38
Note OFF: Time 201600, Note Name: G2
Note ON: Time 201600, Note Name: G#2, Velocity: 40
Note OFF: Time 202080, Note Name: G#2
Note ON: Time 202080, Note Name: D#2, Velocity: 36
Note OFF: Time 202560, Note Name: D#2
Note ON: Time 202560, Note Name: C2, Velocity: 36
Note OFF: Time 203040, Note Name: C2
Note ON: Time 203040, Note Name: G#1, Velocity: 30
Note ON: Time 203040, Note Name: G#2, Velocity: 36
Note OFF: Time 203520, Note Name: G#2
Note OFF: Time 203520, Note Name: G#1
Note ON: Time 203520, Note Name: G1, Velocity: 34
Note ON: Time 203520, Note Name: G2, Velocity: 40
Note OFF: Time 204000, Note Name: G2
Note OFF: Time 204000, Note Name: G1
Note ON: Time 204000, Note Name: F1, Velocity: 30
Note ON: Time 204000, Note Name: F2, Velocity: 36
Note OFF: Time 204480, Note Name: F2
Note OFF: Time 204480, Note Name: F1
Note ON: Time 204480, Note Name: G1, Velocity: 30
Note ON: Time 204480, Note Name: G2, Velocity: 36
Note OFF: Time 204960, Note Name: G2
Note OFF: Time 204960, Note Name: G1
Note ON: Time 204960, Note Name: D#2, Velocity: 39
Note OFF: Time 205440, Note Name: D#2
Note ON: Time 205440, Note Name: G#1, Velocity: 40
Note OFF: Time 205920, Note Name: G#1
Note ON: Time 205920, Note Name: G#2, Velocity: 35
Note ON: Time 206400, Note Name: D#2, Velocity: 34
Note OFF: Time 206880, Note Name: D#2
Note ON: Time 206880, Note Name: C2, Velocity: 31
Note OFF: Time 207360, Note Name: C2
Note ON: Time 207360, Note Name: G#1, Velocity: 31
Note OFF: Time 207840, Note Name: G#1
Note OFF: Time 207840, Note Name: G#2
Note ON: Time 207840, Note Name: G#2, Velocity: 33
Note ON: Time 208320, Note Name: D#2, Velocity: 35
Note OFF: Time 208800, Note Name: D#2
Note ON: Time 208800, Note Name: C2, Velocity: 33
Note OFF: Time 209280, Note Name: C2
Note ON: Time 209280, Note Name: G#1, Velocity: 29
Note OFF: Time 209760, Note Name: G#1
Note OFF: Time 209760, Note Name: G#2
Note ON: Time 209760, Note Name: G#2, Velocity: 31
Note ON: Time 210240, Note Name: D#2, Velocity: 32
Note OFF: Time 210720, Note Name: D#2
Note ON: Time 210720, Note Name: C2, Velocity: 30
Note OFF: Time 211200, Note Name: C2
Note ON: Time 211200, Note Name: G#1, Velocity: 26
Note OFF: Time 211680, Note Name: G#1
Note OFF: Time 211680, Note Name: G#2
Note ON: Time 212160, Note Name: G#1, Velocity: 24
Note OFF: Time 212640, Note Name: G#1
Note ON: Time 213120, Note Name: G#1, Velocity: 25
Note OFF: Time 215040, Note Name: G#1
Track 3: Pedale
Track 4: Beethoven: Sonate Nr. 5 - 2. Satz
Track 5: Copyright  2008 by Bernd Krueger
Track 6: http://www.piano-midi.de/
Track 7: Edition: 20012-05-06
Track 8: Spur 8
Track 9: Spur 9
Track 10: Spur 10
Track 11: Spur 11
Track 12: Spur 12
Track 13: Spur 13
Track 14: Spur 14
Track 15: Spur 15
Track 16: Spur 16
