Processing beethoven_hammerklavier_4.mid...

Track 0: Hammerklaviersonate 4. Satz
Track 1: Piano right
Note ON: Time 240, Note Name: F4, Velocity: 46
Note OFF: Time 300, Note Name: F4
Note ON: Time 320, Note Name: F4, Velocity: 50
Note OFF: Time 400, Note Name: F4
Note ON: Time 400, Note Name: F5, Velocity: 46
Note OFF: Time 460, Note Name: F5
Note ON: Time 480, Note Name: F5, Velocity: 59
Note OFF: Time 560, Note Name: F5
Note ON: Time 560, Note Name: F6, Velocity: 66
Note ON: Time 720, Note Name: F5, Velocity: 51
Note OFF: Time 1080, Note Name: F5
Note OFF: Time 1080, Note Name: F6
Note ON: Time 1080, Note Name: F6, Velocity: 50
Note ON: Time 1080, Note Name: F5, Velocity: 42
Note OFF: Time 1440, Note Name: F5
Note OFF: Time 1440, Note Name: F6
Note ON: Time 2040, Note Name: C#6, Velocity: 39
Note ON: Time 2040, Note Name: F6, Velocity: 47
Note ON: Time 2040, Note Name: G#5, Velocity: 39
Note ON: Time 2040, Note Name: F5, Velocity: 39
Note OFF: Time 2400, Note Name: F5
Note OFF: Time 2400, Note Name: C#6
Note OFF: Time 2400, Note Name: F6
Note OFF: Time 2400, Note Name: G#5
Note ON: Time 3000, Note Name: F6, Velocity: 40
Note ON: Time 3000, Note Name: A#5, Velocity: 34
Note ON: Time 3000, Note Name: F5, Velocity: 34
Note ON: Time 3000, Note Name: C#6, Velocity: 34
Note OFF: Time 3360, Note Name: C#6
Note OFF: Time 3360, Note Name: F6
Note OFF: Time 3360, Note Name: A#5
Note OFF: Time 3360, Note Name: F5
Note ON: Time 3960, Note Name: A#5, Velocity: 32
Note ON: Time 3960, Note Name: F#5, Velocity: 32
Note ON: Time 3960, Note Name: F#6, Velocity: 38
Note ON: Time 3960, Note Name: C#6, Velocity: 32
Note OFF: Time 4560, Note Name: C#6
Note OFF: Time 4560, Note Name: A#5
Note OFF: Time 4560, Note Name: F#5
Note OFF: Time 4560, Note Name: F#6
Note ON: Time 4920, Note Name: C#5, Velocity: 37
Note OFF: Time 5040, Note Name: C#5
Note ON: Time 5040, Note Name: F#5, Velocity: 41
Note OFF: Time 5160, Note Name: F#5
Note ON: Time 5160, Note Name: C#5, Velocity: 36
Note OFF: Time 5280, Note Name: C#5
Note ON: Time 5280, Note Name: F#5, Velocity: 42
Note OFF: Time 5400, Note Name: F#5
Note ON: Time 5400, Note Name: C#5, Velocity: 35
Note OFF: Time 5520, Note Name: C#5
Note ON: Time 5520, Note Name: F#5, Velocity: 42
Note OFF: Time 5640, Note Name: F#5
Note ON: Time 5640, Note Name: A#4, Velocity: 38
Note OFF: Time 5760, Note Name: A#4
Note ON: Time 5760, Note Name: D#5, Velocity: 48
Note ON: Time 5880, Note Name: F#4, Velocity: 35
Note OFF: Time 6000, Note Name: F#4
Note ON: Time 6000, Note Name: B4, Velocity: 41
Note OFF: Time 6120, Note Name: B4
Note ON: Time 6120, Note Name: F#4, Velocity: 35
Note OFF: Time 6240, Note Name: F#4
Note ON: Time 6240, Note Name: B4, Velocity: 43
Note OFF: Time 6360, Note Name: B4
Note ON: Time 6360, Note Name: F#4, Velocity: 37
Note OFF: Time 6480, Note Name: F#4
Note ON: Time 6480, Note Name: B4, Velocity: 42
Note OFF: Time 6600, Note Name: B4
Note ON: Time 6600, Note Name: D#4, Velocity: 39
Note OFF: Time 6720, Note Name: D#4
Note OFF: Time 6720, Note Name: D#5
Note ON: Time 6720, Note Name: D#5, Velocity: 47
Note ON: Time 6720, Note Name: F4, Velocity: 33
Note OFF: Time 6840, Note Name: F4
Note ON: Time 6840, Note Name: G#4, Velocity: 32
Note OFF: Time 6960, Note Name: G#4
Note OFF: Time 6960, Note Name: D#5
Note ON: Time 6960, Note Name: C#5, Velocity: 43
Note ON: Time 6960, Note Name: F4, Velocity: 30
Note OFF: Time 7080, Note Name: F4
Note ON: Time 7080, Note Name: G#4, Velocity: 37
Note OFF: Time 7200, Note Name: G#4
Note ON: Time 7200, Note Name: F4, Velocity: 35
Note OFF: Time 7320, Note Name: F4
Note ON: Time 7320, Note Name: G#4, Velocity: 38
Note OFF: Time 7440, Note Name: G#4
Note OFF: Time 7440, Note Name: C#5
Note ON: Time 7440, Note Name: F4, Velocity: 28
Note ON: Time 7440, Note Name: B4, Velocity: 39
Note OFF: Time 7560, Note Name: F4
Note ON: Time 7560, Note Name: G#4, Velocity: 27
Note OFF: Time 7680, Note Name: G#4
Note OFF: Time 7680, Note Name: B4
Note ON: Time 7680, Note Name: F#4, Velocity: 38
Note ON: Time 7680, Note Name: A#4, Velocity: 45
Note OFF: Time 7920, Note Name: A#4
Note OFF: Time 7920, Note Name: F#4
Note ON: Time 7920, Note Name: A4, Velocity: 38
Note ON: Time 7920, Note Name: F#4, Velocity: 38
Note ON: Time 7920, Note Name: D#5, Velocity: 45
Note OFF: Time 8160, Note Name: D#5
Note OFF: Time 8160, Note Name: F#4
Note OFF: Time 8160, Note Name: A4
Note ON: Time 8160, Note Name: F4, Velocity: 34
Note ON: Time 8160, Note Name: G#4, Velocity: 40
Note OFF: Time 8580, Note Name: G#4
Note OFF: Time 8580, Note Name: F4
Note ON: Time 8580, Note Name: F#4, Velocity: 29
Note ON: Time 8580, Note Name: A#4, Velocity: 35
Note OFF: Time 8640, Note Name: A#4
Note OFF: Time 8640, Note Name: F#4
Note ON: Time 8640, Note Name: F#5, Velocity: 39
Note ON: Time 8640, Note Name: A#5, Velocity: 47
Note ON: Time 8640, Note Name: A#4, Velocity: 39
Note ON: Time 8640, Note Name: C#5, Velocity: 39
Note OFF: Time 8880, Note Name: C#5
Note OFF: Time 8880, Note Name: F#5
Note OFF: Time 8880, Note Name: A#5
Note OFF: Time 8880, Note Name: A#4
Note ON: Time 9240, Note Name: F#5, Velocity: 34
Note ON: Time 9240, Note Name: A#4, Velocity: 34
Note ON: Time 9240, Note Name: D#5, Velocity: 34
Note ON: Time 9240, Note Name: A#5, Velocity: 41
Note OFF: Time 9600, Note Name: A#5
Note OFF: Time 9600, Note Name: F#5
Note OFF: Time 9600, Note Name: A#4
Note OFF: Time 9600, Note Name: D#5
Note ON: Time 9960, Note Name: F#5, Velocity: 32
Note ON: Time 9960, Note Name: D#6, Velocity: 39
Note ON: Time 9960, Note Name: D#5, Velocity: 32
Note OFF: Time 10200, Note Name: D#5
Note OFF: Time 10200, Note Name: D#6
Note OFF: Time 10200, Note Name: F#5
Note ON: Time 11160, Note Name: F#4, Velocity: 35
Note OFF: Time 11278, Note Name: F#4
Note ON: Time 11280, Note Name: G#4, Velocity: 38
Note ON: Time 11400, Note Name: A#4, Velocity: 41
Note OFF: Time 11412, Note Name: G#4
Note ON: Time 11520, Note Name: B4, Velocity: 45
Note OFF: Time 11532, Note Name: A#4
Note ON: Time 11640, Note Name: C#5, Velocity: 48
Note OFF: Time 11652, Note Name: B4
Note ON: Time 11760, Note Name: D#5, Velocity: 52
Note OFF: Time 11772, Note Name: C#5
Note ON: Time 11880, Note Name: E5, Velocity: 52
Note OFF: Time 11892, Note Name: D#5
Note ON: Time 12000, Note Name: D#5, Velocity: 55
Note OFF: Time 12012, Note Name: E5
Note ON: Time 12120, Note Name: B4, Velocity: 52
Note OFF: Time 12132, Note Name: D#5
Note OFF: Time 12240, Note Name: B4
Note ON: Time 12240, Note Name: F#5, Velocity: 57
Note ON: Time 12360, Note Name: E5, Velocity: 55
Note OFF: Time 12372, Note Name: F#5
Note ON: Time 12480, Note Name: D#5, Velocity: 53
Note OFF: Time 12492, Note Name: E5
Note ON: Time 12600, Note Name: C#5, Velocity: 51
Note OFF: Time 12612, Note Name: D#5
Note ON: Time 12720, Note Name: B4, Velocity: 49
Note OFF: Time 12732, Note Name: C#5
Note ON: Time 12840, Note Name: A#4, Velocity: 47
Note OFF: Time 12852, Note Name: B4
Note ON: Time 12960, Note Name: B4, Velocity: 47
Note OFF: Time 12972, Note Name: A#4
Note OFF: Time 13080, Note Name: B4
Note ON: Time 13080, Note Name: F#5, Velocity: 47
Note OFF: Time 13198, Note Name: F#5
Note ON: Time 13200, Note Name: G#5, Velocity: 47
Note ON: Time 13320, Note Name: A#5, Velocity: 49
Note OFF: Time 13332, Note Name: G#5
Note ON: Time 13440, Note Name: B5, Velocity: 50
Note OFF: Time 13452, Note Name: A#5
Note ON: Time 13560, Note Name: C#6, Velocity: 52
Note OFF: Time 13572, Note Name: B5
Note ON: Time 13680, Note Name: D#6, Velocity: 53
Note OFF: Time 13692, Note Name: C#6
Note ON: Time 13800, Note Name: E6, Velocity: 52
Note OFF: Time 13812, Note Name: D#6
Note ON: Time 13920, Note Name: D#6, Velocity: 59
Note OFF: Time 13932, Note Name: E6
Note ON: Time 14040, Note Name: C#6, Velocity: 47
Note OFF: Time 14052, Note Name: D#6
Note ON: Time 14160, Note Name: B5, Velocity: 47
Note OFF: Time 14172, Note Name: C#6
Note ON: Time 14280, Note Name: A#5, Velocity: 47
Note OFF: Time 14292, Note Name: B5
Note ON: Time 14400, Note Name: G#5, Velocity: 54
Note OFF: Time 14412, Note Name: A#5
Note ON: Time 14520, Note Name: F#5, Velocity: 47
Note OFF: Time 14532, Note Name: G#5
Note ON: Time 14640, Note Name: E5, Velocity: 47
Note OFF: Time 14652, Note Name: F#5
Note ON: Time 14760, Note Name: D#5, Velocity: 47
Note OFF: Time 14772, Note Name: E5
Note ON: Time 14880, Note Name: C#5, Velocity: 51
Note OFF: Time 14892, Note Name: D#5
Note ON: Time 15000, Note Name: B4, Velocity: 47
Note OFF: Time 15012, Note Name: C#5
Note ON: Time 15120, Note Name: A#4, Velocity: 47
Note OFF: Time 15132, Note Name: B4
Note ON: Time 15240, Note Name: G#4, Velocity: 47
Note OFF: Time 15252, Note Name: A#4
Note ON: Time 15360, Note Name: F#4, Velocity: 51
Note OFF: Time 15372, Note Name: G#4
Note OFF: Time 15480, Note Name: F#4
Note ON: Time 15480, Note Name: E5, Velocity: 54
Note OFF: Time 15600, Note Name: E5
Note ON: Time 15600, Note Name: D#5, Velocity: 57
Note OFF: Time 15720, Note Name: D#5
Note ON: Time 15720, Note Name: G#5, Velocity: 60
Note OFF: Time 15840, Note Name: G#5
Note ON: Time 15840, Note Name: F#5, Velocity: 60
Note OFF: Time 15960, Note Name: F#5
Note ON: Time 15960, Note Name: B5, Velocity: 45
Note OFF: Time 16080, Note Name: B5
Note ON: Time 16080, Note Name: A#5, Velocity: 52
Note OFF: Time 16200, Note Name: A#5
Note ON: Time 16200, Note Name: E6, Velocity: 49
Note OFF: Time 16320, Note Name: E6
Note ON: Time 16320, Note Name: E5, Velocity: 41
Note ON: Time 16320, Note Name: A#5, Velocity: 41
Note ON: Time 16320, Note Name: E6, Velocity: 49
Note OFF: Time 16680, Note Name: E6
Note OFF: Time 16680, Note Name: A#5
Note OFF: Time 16680, Note Name: E5
Note ON: Time 16680, Note Name: B5, Velocity: 41
Note ON: Time 16680, Note Name: D#6, Velocity: 49
Note ON: Time 16680, Note Name: F#5, Velocity: 41
Note ON: Time 16680, Note Name: D#5, Velocity: 41
Note OFF: Time 17040, Note Name: D#5
Note OFF: Time 17040, Note Name: B5
Note OFF: Time 17040, Note Name: D#6
Note OFF: Time 17040, Note Name: F#5
Note ON: Time 17640, Note Name: D#5, Velocity: 49
Note ON: Time 17640, Note Name: B5, Velocity: 49
Note ON: Time 17640, Note Name: D#6, Velocity: 49
Note ON: Time 17640, Note Name: G#5, Velocity: 49
Note OFF: Time 17880, Note Name: G#5
Note OFF: Time 17880, Note Name: D#5
Note OFF: Time 17880, Note Name: B5
Note OFF: Time 17880, Note Name: D#6
Note ON: Time 17880, Note Name: D#5, Velocity: 37
Note OFF: Time 18000, Note Name: D#5
Note ON: Time 18000, Note Name: G#4, Velocity: 37
Note OFF: Time 18120, Note Name: G#4
Note ON: Time 18120, Note Name: D#5, Velocity: 37
Note OFF: Time 18240, Note Name: D#5
Note ON: Time 18240, Note Name: E5, Velocity: 46
Note OFF: Time 18360, Note Name: E5
Note ON: Time 18360, Note Name: D#5, Velocity: 40
Note OFF: Time 18480, Note Name: D#5
Note ON: Time 18480, Note Name: G#4, Velocity: 42
Note OFF: Time 18600, Note Name: G#4
Note ON: Time 18600, Note Name: D#5, Velocity: 45
Note OFF: Time 18720, Note Name: D#5
Note ON: Time 18720, Note Name: E5, Velocity: 49
Note OFF: Time 19800, Note Name: E5
Note ON: Time 19800, Note Name: A#4, Velocity: 41
Note OFF: Time 19920, Note Name: A#4
Note ON: Time 19920, Note Name: D#5, Velocity: 46
Note OFF: Time 20040, Note Name: D#5
Note ON: Time 20040, Note Name: D5, Velocity: 42
Note OFF: Time 20160, Note Name: D5
Note ON: Time 20160, Note Name: D#5, Velocity: 44
Note OFF: Time 20280, Note Name: D#5
Note ON: Time 20280, Note Name: A#4, Velocity: 37
Note OFF: Time 20400, Note Name: A#4
Note ON: Time 20400, Note Name: D#5, Velocity: 43
Note OFF: Time 20520, Note Name: D#5
Note ON: Time 20520, Note Name: C#5, Velocity: 37
Note OFF: Time 20640, Note Name: C#5
Note ON: Time 20640, Note Name: C5, Velocity: 52
Note OFF: Time 20760, Note Name: C5
Note ON: Time 20760, Note Name: D#5, Velocity: 46
Note OFF: Time 20880, Note Name: D#5
Note ON: Time 20880, Note Name: C5, Velocity: 55
Note OFF: Time 21000, Note Name: C5
Note ON: Time 21000, Note Name: G#5, Velocity: 47
Note OFF: Time 21120, Note Name: G#5
Note ON: Time 21120, Note Name: C#5, Velocity: 60
Note OFF: Time 21240, Note Name: C#5
Note ON: Time 21240, Note Name: G#5, Velocity: 54
Note OFF: Time 21360, Note Name: G#5
Note ON: Time 21360, Note Name: D#5, Velocity: 63
Note OFF: Time 21480, Note Name: D#5
Note ON: Time 21480, Note Name: G#5, Velocity: 58
Note OFF: Time 21600, Note Name: G#5
Note ON: Time 21600, Note Name: E5, Velocity: 70
Note OFF: Time 22080, Note Name: E5
Note ON: Time 22080, Note Name: E4, Velocity: 53
Note OFF: Time 22680, Note Name: E4
Note ON: Time 22680, Note Name: C#4, Velocity: 42
Note OFF: Time 22800, Note Name: C#4
Note ON: Time 22800, Note Name: F#4, Velocity: 50
Note OFF: Time 22920, Note Name: F#4
Note ON: Time 22920, Note Name: F4, Velocity: 37
Note OFF: Time 23040, Note Name: F4
Note ON: Time 23040, Note Name: F#4, Velocity: 51
Note OFF: Time 23160, Note Name: F#4
Note ON: Time 23160, Note Name: C#4, Velocity: 43
Note OFF: Time 23280, Note Name: C#4
Note ON: Time 23280, Note Name: F#4, Velocity: 51
Note OFF: Time 23400, Note Name: F#4
Note ON: Time 23400, Note Name: E4, Velocity: 44
Note OFF: Time 23520, Note Name: E4
Note ON: Time 23520, Note Name: D#4, Velocity: 54
Note OFF: Time 23760, Note Name: D#4
Note ON: Time 23760, Note Name: D#5, Velocity: 60
Note OFF: Time 24240, Note Name: D#5
Note ON: Time 24240, Note Name: C#5, Velocity: 52
Note OFF: Time 24480, Note Name: C#5
Note ON: Time 24480, Note Name: B4, Velocity: 63
Note OFF: Time 24600, Note Name: B4
Note ON: Time 24600, Note Name: D#5, Velocity: 53
Note OFF: Time 24720, Note Name: D#5
Note ON: Time 24720, Note Name: B4, Velocity: 62
Note OFF: Time 24840, Note Name: B4
Note ON: Time 24840, Note Name: D#5, Velocity: 53
Note OFF: Time 24960, Note Name: D#5
Note ON: Time 24960, Note Name: E5, Velocity: 63
Note ON: Time 24960, Note Name: B5, Velocity: 63
Note OFF: Time 25080, Note Name: E5
Note ON: Time 25080, Note Name: D#5, Velocity: 60
Note OFF: Time 25200, Note Name: D#5
Note ON: Time 25200, Note Name: G#4, Velocity: 65
Note OFF: Time 25320, Note Name: G#4
Note ON: Time 25320, Note Name: B4, Velocity: 60
Note OFF: Time 25440, Note Name: B4
Note ON: Time 25440, Note Name: E5, Velocity: 58
Note OFF: Time 25560, Note Name: B5
Note ON: Time 25560, Note Name: G#5, Velocity: 59
Note OFF: Time 25680, Note Name: G#5
Note ON: Time 25680, Note Name: A5, Velocity: 65
Note OFF: Time 25800, Note Name: A5
Note ON: Time 25800, Note Name: C#6, Velocity: 59
Note OFF: Time 25920, Note Name: C#6
Note OFF: Time 25920, Note Name: E5
Note ON: Time 25920, Note Name: A4, Velocity: 58
Note ON: Time 25920, Note Name: E5, Velocity: 70
Note OFF: Time 26040, Note Name: E5
Note ON: Time 26040, Note Name: A5, Velocity: 59
Note OFF: Time 26160, Note Name: A5
Note OFF: Time 26160, Note Name: A4
Note ON: Time 26160, Note Name: B4, Velocity: 62
Note ON: Time 26160, Note Name: D#5, Velocity: 73
Note OFF: Time 26280, Note Name: D#5
Note ON: Time 26280, Note Name: G#5, Velocity: 71
Note OFF: Time 26400, Note Name: G#5
Note OFF: Time 26400, Note Name: B4
Note ON: Time 26400, Note Name: D#5, Velocity: 81
Note ON: Time 26400, Note Name: B4, Velocity: 69
Note OFF: Time 26520, Note Name: D#5
Note ON: Time 26520, Note Name: G#5, Velocity: 73
Note OFF: Time 26640, Note Name: G#5
Note OFF: Time 26640, Note Name: B4
Note ON: Time 26640, Note Name: D#5, Velocity: 81
Note ON: Time 26640, Note Name: C#5, Velocity: 69
Note OFF: Time 26760, Note Name: D#5
Note ON: Time 26760, Note Name: G5, Velocity: 77
Note OFF: Time 26880, Note Name: G5
Note OFF: Time 26880, Note Name: C#5
Note ON: Time 26880, Note Name: D#5, Velocity: 81
Note ON: Time 26880, Note Name: B4, Velocity: 69
Note OFF: Time 27000, Note Name: D#5
Note ON: Time 27000, Note Name: G#5, Velocity: 74
Note OFF: Time 27120, Note Name: G#5
Note OFF: Time 27120, Note Name: B4
Note ON: Time 27120, Note Name: A#4, Velocity: 69
Note ON: Time 27120, Note Name: D#5, Velocity: 81
Note OFF: Time 27240, Note Name: D#5
Note ON: Time 27240, Note Name: A#5, Velocity: 72
Note OFF: Time 27360, Note Name: A#5
Note OFF: Time 27360, Note Name: A#4
Note ON: Time 27480, Note Name: G#5, Velocity: 32
Note ON: Time 27480, Note Name: D#5, Velocity: 32
Note ON: Time 27480, Note Name: B5, Velocity: 38
Note ON: Time 27480, Note Name: B4, Velocity: 32
Note OFF: Time 28080, Note Name: B4
Note OFF: Time 28080, Note Name: G#5
Note OFF: Time 28080, Note Name: D#5
Note OFF: Time 28080, Note Name: B5
Note ON: Time 28440, Note Name: G#5, Velocity: 32
Note ON: Time 28440, Note Name: B5, Velocity: 38
Note ON: Time 28440, Note Name: E5, Velocity: 32
Note ON: Time 28440, Note Name: B4, Velocity: 32
Note OFF: Time 29040, Note Name: B4
Note OFF: Time 29040, Note Name: G#5
Note OFF: Time 29040, Note Name: B5
Note OFF: Time 29040, Note Name: E5
Note ON: Time 29400, Note Name: C#6, Velocity: 38
Note ON: Time 29400, Note Name: E5, Velocity: 32
Note ON: Time 29400, Note Name: C#5, Velocity: 32
Note ON: Time 29400, Note Name: G#5, Velocity: 32
Note OFF: Time 30000, Note Name: G#5
Note OFF: Time 30000, Note Name: C#6
Note OFF: Time 30000, Note Name: E5
Note OFF: Time 30000, Note Name: C#5
Note ON: Time 30360, Note Name: E5, Velocity: 32
Note ON: Time 30360, Note Name: C#5, Velocity: 32
Note ON: Time 30360, Note Name: C#6, Velocity: 38
Note ON: Time 30360, Note Name: A5, Velocity: 32
Note OFF: Time 30960, Note Name: A5
Note OFF: Time 30960, Note Name: E5
Note OFF: Time 30960, Note Name: C#5
Note OFF: Time 30960, Note Name: C#6
Note ON: Time 31200, Note Name: A4, Velocity: 37
Note OFF: Time 31260, Note Name: A4
Note ON: Time 31280, Note Name: A4, Velocity: 32
Note OFF: Time 31360, Note Name: A4
Note ON: Time 31360, Note Name: A5, Velocity: 41
Note OFF: Time 31440, Note Name: A5
Note ON: Time 31440, Note Name: A5, Velocity: 46
Note ON: Time 31520, Note Name: A6, Velocity: 45
Note OFF: Time 32000, Note Name: A6
Note OFF: Time 32000, Note Name: A5
Note ON: Time 32000, Note Name: G#6, Velocity: 61
Note ON: Time 32000, Note Name: G#5, Velocity: 51
Note OFF: Time 32320, Note Name: G#5
Note OFF: Time 32320, Note Name: G#6
Note ON: Time 32320, Note Name: E6, Velocity: 58
Note ON: Time 32320, Note Name: E5, Velocity: 49
Note OFF: Time 32640, Note Name: E5
Note OFF: Time 32640, Note Name: E6
Note ON: Time 32640, Note Name: D#5, Velocity: 46
Note ON: Time 32640, Note Name: D#6, Velocity: 55
Note OFF: Time 32960, Note Name: D#6
Note OFF: Time 32960, Note Name: D#5
Note ON: Time 32960, Note Name: D5, Velocity: 45
Note ON: Time 32960, Note Name: D6, Velocity: 53
Note OFF: Time 33280, Note Name: D6
Note OFF: Time 33280, Note Name: D5
Note ON: Time 33280, Note Name: B5, Velocity: 50
Note ON: Time 33280, Note Name: B4, Velocity: 42
Note OFF: Time 33600, Note Name: B4
Note OFF: Time 33600, Note Name: B5
Note ON: Time 33600, Note Name: G#5, Velocity: 51
Note OFF: Time 33760, Note Name: G#5
Note ON: Time 33760, Note Name: E5, Velocity: 45
Note OFF: Time 33920, Note Name: E5
Note ON: Time 33920, Note Name: D#5, Velocity: 45
Note OFF: Time 34080, Note Name: D#5
Note ON: Time 34080, Note Name: D5, Velocity: 45
Note OFF: Time 34240, Note Name: D5
Note ON: Time 34240, Note Name: B4, Velocity: 45
Note OFF: Time 34400, Note Name: B4
Note ON: Time 34400, Note Name: G#4, Velocity: 45
Note OFF: Time 34560, Note Name: G#4
Note ON: Time 34560, Note Name: E4, Velocity: 48
Note OFF: Time 34720, Note Name: E4
Note ON: Time 34720, Note Name: D#4, Velocity: 42
Note OFF: Time 34880, Note Name: D#4
Note ON: Time 34880, Note Name: D4, Velocity: 42
Note OFF: Time 35040, Note Name: D4
Note ON: Time 43200, Note Name: D4, Velocity: 41
Note ON: Time 43200, Note Name: B3, Velocity: 34
Note OFF: Time 43680, Note Name: B3
Note OFF: Time 43680, Note Name: D4
Note ON: Time 43680, Note Name: B3, Velocity: 35
Note ON: Time 43680, Note Name: D4, Velocity: 42
Note OFF: Time 43725, Note Name: D4
Note OFF: Time 43725, Note Name: B3
Note ON: Time 43920, Note Name: B3, Velocity: 35
Note ON: Time 43920, Note Name: D4, Velocity: 42
Note OFF: Time 44160, Note Name: D4
Note OFF: Time 44160, Note Name: B3
Note ON: Time 44160, Note Name: D4, Velocity: 43
Note ON: Time 44160, Note Name: B3, Velocity: 36
Note OFF: Time 44640, Note Name: B3
Note OFF: Time 44640, Note Name: D4
Note ON: Time 44640, Note Name: G4, Velocity: 45
Note ON: Time 44640, Note Name: B3, Velocity: 38
Note OFF: Time 44685, Note Name: B3
Note OFF: Time 44685, Note Name: G4
Note ON: Time 44880, Note Name: B3, Velocity: 38
Note ON: Time 44880, Note Name: G4, Velocity: 47
Note OFF: Time 45120, Note Name: G4
Note OFF: Time 45120, Note Name: B3
Note ON: Time 45120, Note Name: G4, Velocity: 47
Note ON: Time 45120, Note Name: E4, Velocity: 40
Note OFF: Time 45600, Note Name: E4
Note OFF: Time 45600, Note Name: G4
Note ON: Time 45600, Note Name: E4, Velocity: 42
Note ON: Time 45600, Note Name: G4, Velocity: 51
Note OFF: Time 45645, Note Name: G4
Note OFF: Time 45645, Note Name: E4
Note ON: Time 45840, Note Name: G4, Velocity: 51
Note ON: Time 45840, Note Name: E4, Velocity: 42
Note OFF: Time 46080, Note Name: E4
Note OFF: Time 46080, Note Name: G4
Note ON: Time 46080, Note Name: E4, Velocity: 44
Note ON: Time 46080, Note Name: C5, Velocity: 53
Note OFF: Time 46560, Note Name: C5
Note OFF: Time 46560, Note Name: E4
Note ON: Time 46560, Note Name: E4, Velocity: 46
Note ON: Time 46560, Note Name: C5, Velocity: 55
Note OFF: Time 46605, Note Name: C5
Note OFF: Time 46605, Note Name: E4
Note ON: Time 46800, Note Name: E4, Velocity: 52
Note ON: Time 46800, Note Name: C5, Velocity: 52
Note OFF: Time 47040, Note Name: C5
Note OFF: Time 47040, Note Name: E4
Note ON: Time 47040, Note Name: C5, Velocity: 58
Note ON: Time 47040, Note Name: A4, Velocity: 48
Note OFF: Time 47520, Note Name: A4
Note OFF: Time 47520, Note Name: C5
Note ON: Time 47520, Note Name: C5, Velocity: 65
Note ON: Time 47520, Note Name: A4, Velocity: 54
Note OFF: Time 47580, Note Name: A4
Note OFF: Time 47580, Note Name: C5
Note ON: Time 47760, Note Name: A4, Velocity: 57
Note ON: Time 47760, Note Name: C5, Velocity: 69
Note OFF: Time 48000, Note Name: C5
Note OFF: Time 48000, Note Name: A4
Note ON: Time 48000, Note Name: A4, Velocity: 60
Note ON: Time 48000, Note Name: F5, Velocity: 73
Note OFF: Time 48480, Note Name: F5
Note OFF: Time 48480, Note Name: A4
Note ON: Time 48480, Note Name: A4, Velocity: 67
Note ON: Time 48480, Note Name: D5, Velocity: 67
Note ON: Time 48480, Note Name: F5, Velocity: 82
Note OFF: Time 48540, Note Name: F5
Note OFF: Time 48540, Note Name: D5
Note OFF: Time 48540, Note Name: A4
Note ON: Time 48720, Note Name: D5, Velocity: 71
Note ON: Time 48720, Note Name: A4, Velocity: 71
Note ON: Time 48720, Note Name: F5, Velocity: 86
Note OFF: Time 48960, Note Name: F5
Note OFF: Time 48960, Note Name: A4
Note OFF: Time 48960, Note Name: D5
Note ON: Time 48960, Note Name: E5, Velocity: 76
Note ON: Time 48960, Note Name: A4, Velocity: 76
Note ON: Time 48960, Note Name: C#5, Velocity: 76
Note ON: Time 48960, Note Name: A5, Velocity: 91
Note OFF: Time 49440, Note Name: A5
Note OFF: Time 49440, Note Name: E5
Note OFF: Time 49440, Note Name: A4
Note OFF: Time 49440, Note Name: C#5
Note ON: Time 49440, Note Name: E5, Velocity: 75
Note ON: Time 49440, Note Name: C#5, Velocity: 75
Note ON: Time 49440, Note Name: A4, Velocity: 75
Note ON: Time 49440, Note Name: A5, Velocity: 89
Note OFF: Time 49500, Note Name: A5
Note OFF: Time 49500, Note Name: E5
Note OFF: Time 49500, Note Name: C#5
Note OFF: Time 49500, Note Name: A4
Note ON: Time 49680, Note Name: C#5, Velocity: 74
Note ON: Time 49680, Note Name: A4, Velocity: 74
Note ON: Time 49680, Note Name: A5, Velocity: 89
Note ON: Time 49680, Note Name: E5, Velocity: 74
Note OFF: Time 49920, Note Name: E5
Note OFF: Time 49920, Note Name: C#5
Note OFF: Time 49920, Note Name: A4
Note OFF: Time 49920, Note Name: A5
Note ON: Time 49920, Note Name: A4, Velocity: 73
Note ON: Time 49920, Note Name: A5, Velocity: 87
Note ON: Time 49920, Note Name: C#5, Velocity: 73
Note ON: Time 49920, Note Name: E5, Velocity: 73
Note OFF: Time 50400, Note Name: E5
Note OFF: Time 50400, Note Name: A4
Note OFF: Time 50400, Note Name: A5
Note OFF: Time 50400, Note Name: C#5
Note ON: Time 50400, Note Name: A4, Velocity: 71
Note ON: Time 50400, Note Name: C#5, Velocity: 71
Note ON: Time 50400, Note Name: E5, Velocity: 71
Note ON: Time 50400, Note Name: A5, Velocity: 86
Note OFF: Time 50460, Note Name: A5
Note OFF: Time 50460, Note Name: A4
Note OFF: Time 50460, Note Name: C#5
Note OFF: Time 50460, Note Name: E5
Note ON: Time 50640, Note Name: E5, Velocity: 71
Note ON: Time 50640, Note Name: C#5, Velocity: 71
Note ON: Time 50640, Note Name: A5, Velocity: 85
Note ON: Time 50640, Note Name: A4, Velocity: 71
Note OFF: Time 50880, Note Name: A4
Note OFF: Time 50880, Note Name: E5
Note OFF: Time 50880, Note Name: C#5
Note OFF: Time 50880, Note Name: A5
Note ON: Time 50880, Note Name: C#5, Velocity: 70
Note ON: Time 50880, Note Name: A5, Velocity: 83
Note ON: Time 50880, Note Name: E5, Velocity: 70
Note ON: Time 50880, Note Name: A4, Velocity: 70
Note OFF: Time 51360, Note Name: A4
Note OFF: Time 51360, Note Name: C#5
Note OFF: Time 51360, Note Name: A5
Note OFF: Time 51360, Note Name: E5
Note ON: Time 51360, Note Name: A4, Velocity: 68
Note ON: Time 51360, Note Name: A5, Velocity: 82
Note OFF: Time 51420, Note Name: A5
Note OFF: Time 51420, Note Name: A4
Note ON: Time 51600, Note Name: A5, Velocity: 81
Note ON: Time 51600, Note Name: A4, Velocity: 68
Note OFF: Time 51840, Note Name: A4
Note OFF: Time 51840, Note Name: A5
Note ON: Time 51840, Note Name: A4, Velocity: 61
Note ON: Time 51840, Note Name: A5, Velocity: 73
Note OFF: Time 52320, Note Name: A5
Note OFF: Time 52320, Note Name: A4
Note ON: Time 52320, Note Name: A4, Velocity: 54
Note ON: Time 52320, Note Name: A5, Velocity: 65
Note OFF: Time 52380, Note Name: A5
Note OFF: Time 52380, Note Name: A4
Note ON: Time 52560, Note Name: A4, Velocity: 51
Note ON: Time 52560, Note Name: A5, Velocity: 61
Note OFF: Time 52800, Note Name: A5
Note OFF: Time 52800, Note Name: A4
Note ON: Time 52800, Note Name: A5, Velocity: 57
Note ON: Time 52800, Note Name: A4, Velocity: 47
Note OFF: Time 53280, Note Name: A4
Note OFF: Time 53280, Note Name: A5
Note ON: Time 53280, Note Name: A5, Velocity: 49
Note ON: Time 53280, Note Name: A4, Velocity: 40
Note OFF: Time 53340, Note Name: A4
Note OFF: Time 53340, Note Name: A5
Note ON: Time 53520, Note Name: A4, Velocity: 37
Note ON: Time 53520, Note Name: A5, Velocity: 45
Note OFF: Time 53760, Note Name: A5
Note OFF: Time 53760, Note Name: A4
Note ON: Time 53760, Note Name: A4, Velocity: 27
Note ON: Time 53760, Note Name: A5, Velocity: 32
Note OFF: Time 54240, Note Name: A5
Note OFF: Time 54240, Note Name: A4
Note ON: Time 54240, Note Name: A5, Velocity: 32
Note ON: Time 54240, Note Name: A4, Velocity: 27
Note OFF: Time 54300, Note Name: A4
Note OFF: Time 54300, Note Name: A5
Note ON: Time 54480, Note Name: A5, Velocity: 32
Note ON: Time 54480, Note Name: A4, Velocity: 27
Note OFF: Time 54720, Note Name: A4
Note OFF: Time 54720, Note Name: A5
Note ON: Time 54720, Note Name: A5, Velocity: 40
Note OFF: Time 54800, Note Name: A5
Note ON: Time 54800, Note Name: A#5, Velocity: 36
Note OFF: Time 54880, Note Name: A#5
Note ON: Time 54880, Note Name: A5, Velocity: 40
Note OFF: Time 54960, Note Name: A5
Note ON: Time 54960, Note Name: A#5, Velocity: 35
Note OFF: Time 55040, Note Name: A#5
Note ON: Time 55040, Note Name: A5, Velocity: 40
Note OFF: Time 55120, Note Name: A5
Note ON: Time 55120, Note Name: A#5, Velocity: 36
Note OFF: Time 55200, Note Name: A#5
Note ON: Time 55200, Note Name: A5, Velocity: 40
Note OFF: Time 55280, Note Name: A5
Note ON: Time 55280, Note Name: A#5, Velocity: 36
Note OFF: Time 55360, Note Name: A#5
Note ON: Time 55360, Note Name: A5, Velocity: 40
Note OFF: Time 55440, Note Name: A5
Note ON: Time 55440, Note Name: A#5, Velocity: 36
Note OFF: Time 55520, Note Name: A#5
Note ON: Time 55520, Note Name: A5, Velocity: 40
Note OFF: Time 55600, Note Name: A5
Note ON: Time 55600, Note Name: A#5, Velocity: 35
Note OFF: Time 55680, Note Name: A#5
Note ON: Time 55680, Note Name: A5, Velocity: 40
Note OFF: Time 55760, Note Name: A5
Note ON: Time 55760, Note Name: A#5, Velocity: 36
Note OFF: Time 55840, Note Name: A#5
Note ON: Time 55840, Note Name: A5, Velocity: 40
Note OFF: Time 55920, Note Name: A5
Note ON: Time 55920, Note Name: A#5, Velocity: 35
Note OFF: Time 56000, Note Name: A#5
Note ON: Time 56000, Note Name: A5, Velocity: 40
Note OFF: Time 56080, Note Name: A5
Note ON: Time 56080, Note Name: A#5, Velocity: 34
Note OFF: Time 56160, Note Name: A#5
Note ON: Time 56160, Note Name: A5, Velocity: 48
Note OFF: Time 56240, Note Name: A5
Note ON: Time 56240, Note Name: A#5, Velocity: 43
Note OFF: Time 56320, Note Name: A#5
Note ON: Time 56320, Note Name: A5, Velocity: 49
Note OFF: Time 56400, Note Name: A5
Note ON: Time 56400, Note Name: A#5, Velocity: 43
Note OFF: Time 56480, Note Name: A#5
Note ON: Time 56480, Note Name: A5, Velocity: 50
Note OFF: Time 56560, Note Name: A5
Note ON: Time 56560, Note Name: A#5, Velocity: 43
Note OFF: Time 56640, Note Name: A#5
Note ON: Time 56640, Note Name: C6, Velocity: 52
Note OFF: Time 56720, Note Name: C6
Note ON: Time 56720, Note Name: D6, Velocity: 47
Note OFF: Time 56800, Note Name: D6
Note ON: Time 56800, Note Name: C6, Velocity: 53
Note OFF: Time 56880, Note Name: C6
Note ON: Time 56880, Note Name: D6, Velocity: 47
Note OFF: Time 56960, Note Name: D6
Note ON: Time 56960, Note Name: C6, Velocity: 54
Note OFF: Time 57040, Note Name: C6
Note ON: Time 57040, Note Name: D6, Velocity: 49
Note OFF: Time 57120, Note Name: D6
Note ON: Time 57120, Note Name: C6, Velocity: 56
Note OFF: Time 57200, Note Name: C6
Note ON: Time 57200, Note Name: D6, Velocity: 50
Note OFF: Time 57280, Note Name: D6
Note ON: Time 57280, Note Name: C6, Velocity: 57
Note OFF: Time 57360, Note Name: C6
Note ON: Time 57360, Note Name: D6, Velocity: 52
Note OFF: Time 57440, Note Name: D6
Note ON: Time 57440, Note Name: C6, Velocity: 58
Note OFF: Time 57520, Note Name: C6
Note ON: Time 57520, Note Name: D6, Velocity: 51
Note OFF: Time 57600, Note Name: D6
Note ON: Time 57600, Note Name: C6, Velocity: 60
Note OFF: Time 57680, Note Name: C6
Note ON: Time 57680, Note Name: D6, Velocity: 54
Note OFF: Time 57760, Note Name: D6
Note ON: Time 57760, Note Name: C6, Velocity: 61
Note OFF: Time 57840, Note Name: C6
Note ON: Time 57840, Note Name: D6, Velocity: 54
Note OFF: Time 57920, Note Name: D6
Note ON: Time 57920, Note Name: C6, Velocity: 62
Note OFF: Time 58000, Note Name: C6
Note ON: Time 58000, Note Name: D6, Velocity: 53
Note OFF: Time 58080, Note Name: D6
Note ON: Time 58080, Note Name: F6, Velocity: 64
Note OFF: Time 58160, Note Name: F6
Note ON: Time 58160, Note Name: G6, Velocity: 57
Note OFF: Time 58240, Note Name: G6
Note ON: Time 58240, Note Name: F6, Velocity: 65
Note OFF: Time 58320, Note Name: F6
Note ON: Time 58320, Note Name: G6, Velocity: 57
Note OFF: Time 58400, Note Name: G6
Note ON: Time 58400, Note Name: F6, Velocity: 66
Note OFF: Time 58480, Note Name: F6
Note ON: Time 58480, Note Name: G6, Velocity: 60
Note OFF: Time 58560, Note Name: G6
Note ON: Time 58560, Note Name: F6, Velocity: 68
Note OFF: Time 58640, Note Name: F6
Note ON: Time 58640, Note Name: G6, Velocity: 61
Note OFF: Time 58720, Note Name: G6
Note ON: Time 58720, Note Name: F6, Velocity: 69
Note OFF: Time 58800, Note Name: F6
Note ON: Time 58800, Note Name: G6, Velocity: 63
Note OFF: Time 58880, Note Name: G6
Note ON: Time 58880, Note Name: F6, Velocity: 70
Note OFF: Time 58960, Note Name: F6
Note ON: Time 58960, Note Name: G6, Velocity: 62
Note OFF: Time 59040, Note Name: G6
Note ON: Time 59040, Note Name: F6, Velocity: 78
Note OFF: Time 59160, Note Name: F6
Note ON: Time 59160, Note Name: D#6, Velocity: 77
Note OFF: Time 59280, Note Name: D#6
Note ON: Time 59280, Note Name: D6, Velocity: 76
Note OFF: Time 59400, Note Name: D6
Note ON: Time 59400, Note Name: C6, Velocity: 75
Note OFF: Time 59520, Note Name: C6
Note ON: Time 59520, Note Name: A#5, Velocity: 73
Note OFF: Time 59640, Note Name: A#5
Note ON: Time 59640, Note Name: A5, Velocity: 72
Note OFF: Time 59760, Note Name: A5
Note ON: Time 59760, Note Name: G5, Velocity: 71
Note OFF: Time 59880, Note Name: G5
Note ON: Time 59880, Note Name: F5, Velocity: 73
Note OFF: Time 60000, Note Name: F5
Note ON: Time 60000, Note Name: D#5, Velocity: 75
Note OFF: Time 60120, Note Name: D#5
Note ON: Time 60120, Note Name: D5, Velocity: 76
Note OFF: Time 60240, Note Name: D5
Note ON: Time 60240, Note Name: C5, Velocity: 78
Note OFF: Time 60360, Note Name: C5
Note ON: Time 60360, Note Name: F5, Velocity: 79
Note OFF: Time 60480, Note Name: F5
Note ON: Time 60480, Note Name: F4, Velocity: 75
Note ON: Time 60480, Note Name: A#4, Velocity: 89
Note ON: Time 60480, Note Name: A#3, Velocity: 75
Note ON: Time 60480, Note Name: D4, Velocity: 75
Note OFF: Time 60720, Note Name: D4
Note OFF: Time 60720, Note Name: F4
Note OFF: Time 60720, Note Name: A#4
Note OFF: Time 60720, Note Name: A#3
Note ON: Time 61200, Note Name: G4, Velocity: 50
Note ON: Time 61320, Note Name: F4, Velocity: 43
Note OFF: Time 61344, Note Name: G4
Note ON: Time 61440, Note Name: D#4, Velocity: 50
Note OFF: Time 61464, Note Name: F4
Note ON: Time 61560, Note Name: D4, Velocity: 47
Note OFF: Time 61584, Note Name: D#4
Note ON: Time 61680, Note Name: C4, Velocity: 47
Note OFF: Time 61704, Note Name: D4
Note ON: Time 61800, Note Name: A#3, Velocity: 47
Note OFF: Time 61824, Note Name: C4
Note ON: Time 61920, Note Name: A3, Velocity: 50
Note OFF: Time 61944, Note Name: A#3
Note ON: Time 62040, Note Name: A#3, Velocity: 44
Note OFF: Time 62064, Note Name: A3
Note ON: Time 62160, Note Name: A3, Velocity: 44
Note OFF: Time 62184, Note Name: A#3
Note ON: Time 62280, Note Name: G3, Velocity: 44
Note OFF: Time 62304, Note Name: A3
Note ON: Time 62400, Note Name: F3, Velocity: 50
Note OFF: Time 62424, Note Name: G3
Note OFF: Time 62520, Note Name: F3
Note ON: Time 62520, Note Name: G3, Velocity: 44
Note OFF: Time 62640, Note Name: G3
Note ON: Time 62640, Note Name: F3, Velocity: 44
Note OFF: Time 62760, Note Name: F3
Note ON: Time 62760, Note Name: D#3, Velocity: 44
Note OFF: Time 62880, Note Name: D#3
Note ON: Time 62880, Note Name: D3, Velocity: 50
Note OFF: Time 63000, Note Name: D3
Note ON: Time 63000, Note Name: D#3, Velocity: 44
Note OFF: Time 63120, Note Name: D#3
Note ON: Time 63120, Note Name: D3, Velocity: 44
Note OFF: Time 63240, Note Name: D3
Note ON: Time 63240, Note Name: C3, Velocity: 44
Note OFF: Time 63360, Note Name: C3
Note ON: Time 63360, Note Name: A#2, Velocity: 50
Note OFF: Time 63840, Note Name: A#2
Note ON: Time 76320, Note Name: A#3, Velocity: 65
Note OFF: Time 76440, Note Name: A#3
Note ON: Time 76800, Note Name: E5, Velocity: 65
Note OFF: Time 76880, Note Name: E5
Note ON: Time 76880, Note Name: F5, Velocity: 59
Note OFF: Time 76960, Note Name: F5
Note ON: Time 76960, Note Name: E5, Velocity: 65
Note OFF: Time 77040, Note Name: E5
Note ON: Time 77040, Note Name: F5, Velocity: 60
Note OFF: Time 77120, Note Name: F5
Note ON: Time 77120, Note Name: E5, Velocity: 65
Note OFF: Time 77200, Note Name: E5
Note ON: Time 77200, Note Name: F5, Velocity: 61
Note OFF: Time 77280, Note Name: F5
Note ON: Time 77280, Note Name: E5, Velocity: 65
Note OFF: Time 77360, Note Name: E5
Note ON: Time 77360, Note Name: F5, Velocity: 65
Note OFF: Time 77440, Note Name: F5
Note ON: Time 77440, Note Name: E5, Velocity: 65
Note OFF: Time 77520, Note Name: E5
Note ON: Time 77520, Note Name: F5, Velocity: 61
Note OFF: Time 77580, Note Name: F5
Note ON: Time 77580, Note Name: E5, Velocity: 65
Note OFF: Time 77640, Note Name: E5
Note ON: Time 77640, Note Name: D5, Velocity: 61
Note OFF: Time 77700, Note Name: D5
Note ON: Time 77700, Note Name: E5, Velocity: 61
Note OFF: Time 77760, Note Name: E5
Note ON: Time 77760, Note Name: F5, Velocity: 69
Note OFF: Time 78240, Note Name: F5
Note ON: Time 78480, Note Name: F5, Velocity: 62
Note ON: Time 78600, Note Name: E5, Velocity: 52
Note OFF: Time 78624, Note Name: F5
Note ON: Time 78720, Note Name: D5, Velocity: 52
Note OFF: Time 78744, Note Name: E5
Note ON: Time 78840, Note Name: C5, Velocity: 52
Note OFF: Time 78864, Note Name: D5
Note ON: Time 78960, Note Name: A#4, Velocity: 58
Note OFF: Time 78984, Note Name: C5
Note ON: Time 79080, Note Name: A4, Velocity: 51
Note OFF: Time 79104, Note Name: A#4
Note ON: Time 79200, Note Name: D5, Velocity: 69
Note OFF: Time 79224, Note Name: A4
Note OFF: Time 79680, Note Name: D5
Note ON: Time 79920, Note Name: D5, Velocity: 62
Note ON: Time 80040, Note Name: C5, Velocity: 52
Note OFF: Time 80064, Note Name: D5
Note ON: Time 80160, Note Name: A#4, Velocity: 52
Note OFF: Time 80184, Note Name: C5
Note ON: Time 80280, Note Name: A4, Velocity: 52
Note OFF: Time 80304, Note Name: A#4
Note ON: Time 80400, Note Name: G4, Velocity: 58
Note OFF: Time 80424, Note Name: A4
Note ON: Time 80520, Note Name: F4, Velocity: 51
Note OFF: Time 80544, Note Name: G4
Note ON: Time 80640, Note Name: A#4, Velocity: 69
Note OFF: Time 80664, Note Name: F4
Note OFF: Time 81120, Note Name: A#4
Note ON: Time 81360, Note Name: A#4, Velocity: 66
Note ON: Time 81480, Note Name: A4, Velocity: 65
Note OFF: Time 81504, Note Name: A#4
Note ON: Time 81600, Note Name: G4, Velocity: 64
Note OFF: Time 81624, Note Name: A4
Note ON: Time 81720, Note Name: A4, Velocity: 63
Note OFF: Time 81744, Note Name: G4
Note ON: Time 81840, Note Name: G4, Velocity: 61
Note OFF: Time 81864, Note Name: A4
Note ON: Time 81960, Note Name: F4, Velocity: 62
Note OFF: Time 81984, Note Name: G4
Note ON: Time 82080, Note Name: E4, Velocity: 66
Note OFF: Time 82104, Note Name: F4
Note ON: Time 82200, Note Name: F4, Velocity: 59
Note OFF: Time 82224, Note Name: E4
Note ON: Time 82320, Note Name: E4, Velocity: 59
Note OFF: Time 82344, Note Name: F4
Note ON: Time 82440, Note Name: D4, Velocity: 59
Note OFF: Time 82464, Note Name: E4
Note OFF: Time 82560, Note Name: D4
Note ON: Time 82560, Note Name: C4, Velocity: 59
Note OFF: Time 82680, Note Name: C4
Note ON: Time 82680, Note Name: D4, Velocity: 62
Note ON: Time 82800, Note Name: E4, Velocity: 57
Note OFF: Time 82824, Note Name: D4
Note ON: Time 82920, Note Name: F4, Velocity: 57
Note OFF: Time 82944, Note Name: E4
Note ON: Time 83040, Note Name: F#4, Velocity: 57
Note OFF: Time 83064, Note Name: F4
Note ON: Time 83160, Note Name: G4, Velocity: 57
Note OFF: Time 83184, Note Name: F#4
Note ON: Time 83280, Note Name: A4, Velocity: 57
Note OFF: Time 83304, Note Name: G4
Note ON: Time 83400, Note Name: G4, Velocity: 57
Note OFF: Time 83424, Note Name: A4
Note OFF: Time 83520, Note Name: G4
Note ON: Time 83520, Note Name: F4, Velocity: 60
Note ON: Time 83640, Note Name: G4, Velocity: 61
Note OFF: Time 83664, Note Name: F4
Note ON: Time 83760, Note Name: A4, Velocity: 61
Note OFF: Time 83784, Note Name: G4
Note ON: Time 83880, Note Name: A#4, Velocity: 62
Note OFF: Time 83904, Note Name: A4
Note ON: Time 84000, Note Name: B4, Velocity: 63
Note OFF: Time 84024, Note Name: A#4
Note ON: Time 84120, Note Name: C5, Velocity: 63
Note OFF: Time 84144, Note Name: B4
Note ON: Time 84240, Note Name: D5, Velocity: 64
Note OFF: Time 84264, Note Name: C5
Note ON: Time 84360, Note Name: C5, Velocity: 60
Note OFF: Time 84384, Note Name: D5
Note ON: Time 84480, Note Name: A#4, Velocity: 64
Note OFF: Time 84504, Note Name: C5
Note ON: Time 84600, Note Name: A4, Velocity: 63
Note OFF: Time 84624, Note Name: A#4
Note ON: Time 84720, Note Name: G4, Velocity: 62
Note OFF: Time 84744, Note Name: A4
Note ON: Time 84840, Note Name: F4, Velocity: 60
Note OFF: Time 84864, Note Name: G4
Note ON: Time 84960, Note Name: E4, Velocity: 65
Note OFF: Time 84984, Note Name: F4
Note ON: Time 85080, Note Name: F4, Velocity: 56
Note OFF: Time 85104, Note Name: E4
Note ON: Time 85200, Note Name: E4, Velocity: 58
Note OFF: Time 85224, Note Name: F4
Note ON: Time 85320, Note Name: D4, Velocity: 58
Note OFF: Time 85344, Note Name: E4
Note OFF: Time 85440, Note Name: D4
Note ON: Time 85440, Note Name: C4, Velocity: 62
Note ON: Time 85560, Note Name: D4, Velocity: 62
Note OFF: Time 85584, Note Name: C4
Note ON: Time 85680, Note Name: E4, Velocity: 58
Note OFF: Time 85704, Note Name: D4
Note ON: Time 85800, Note Name: F4, Velocity: 58
Note OFF: Time 85824, Note Name: E4
Note ON: Time 85920, Note Name: F#4, Velocity: 58
Note OFF: Time 85944, Note Name: F4
Note ON: Time 86040, Note Name: G4, Velocity: 58
Note OFF: Time 86064, Note Name: F#4
Note ON: Time 86160, Note Name: A4, Velocity: 58
Note OFF: Time 86184, Note Name: G4
Note ON: Time 86280, Note Name: F4, Velocity: 58
Note OFF: Time 86304, Note Name: A4
Note OFF: Time 86400, Note Name: F4
Note ON: Time 86400, Note Name: E4, Velocity: 66
Note ON: Time 86520, Note Name: F4, Velocity: 62
Note OFF: Time 86544, Note Name: E4
Note ON: Time 86640, Note Name: C5, Velocity: 59
Note OFF: Time 86664, Note Name: F4
Note ON: Time 86760, Note Name: A#4, Velocity: 59
Note OFF: Time 86784, Note Name: C5
Note OFF: Time 86880, Note Name: A#4
Note ON: Time 86880, Note Name: A4, Velocity: 62
Note ON: Time 87000, Note Name: A#4, Velocity: 56
Note OFF: Time 87024, Note Name: A4
Note ON: Time 87120, Note Name: C5, Velocity: 56
Note OFF: Time 87144, Note Name: A#4
Note ON: Time 87240, Note Name: A#4, Velocity: 56
Note OFF: Time 87264, Note Name: C5
Note OFF: Time 87360, Note Name: A#4
Note ON: Time 87360, Note Name: G#4, Velocity: 58
Note ON: Time 87480, Note Name: A4, Velocity: 57
Note OFF: Time 87504, Note Name: G#4
Note ON: Time 87600, Note Name: A#4, Velocity: 57
Note OFF: Time 87624, Note Name: A4
Note ON: Time 87720, Note Name: A4, Velocity: 57
Note OFF: Time 87744, Note Name: A#4
Note OFF: Time 87840, Note Name: A4
Note ON: Time 87840, Note Name: G4, Velocity: 68
Note ON: Time 87960, Note Name: G#4, Velocity: 62
Note OFF: Time 87984, Note Name: G4
Note ON: Time 88080, Note Name: D#5, Velocity: 68
Note OFF: Time 88104, Note Name: G#4
Note ON: Time 88200, Note Name: D5, Velocity: 62
Note OFF: Time 88224, Note Name: D#5
Note OFF: Time 88320, Note Name: D5
Note ON: Time 88320, Note Name: C5, Velocity: 64
Note ON: Time 88440, Note Name: C#5, Velocity: 59
Note OFF: Time 88464, Note Name: C5
Note ON: Time 88560, Note Name: D5, Velocity: 59
Note OFF: Time 88584, Note Name: C#5
Note ON: Time 88680, Note Name: C#5, Velocity: 59
Note OFF: Time 88704, Note Name: D5
Note OFF: Time 88800, Note Name: C#5
Note ON: Time 88800, Note Name: B4, Velocity: 62
Note ON: Time 88920, Note Name: C5, Velocity: 58
Note OFF: Time 88944, Note Name: B4
Note ON: Time 89040, Note Name: D5, Velocity: 58
Note OFF: Time 89064, Note Name: C5
Note ON: Time 89160, Note Name: C5, Velocity: 58
Note OFF: Time 89184, Note Name: D5
Note OFF: Time 89280, Note Name: C5
Note ON: Time 89280, Note Name: D#4, Velocity: 79
Note ON: Time 89280, Note Name: G#4, Velocity: 79
Note ON: Time 89400, Note Name: A4, Velocity: 68
Note OFF: Time 89424, Note Name: G#4
Note ON: Time 89520, Note Name: A#4, Velocity: 68
Note OFF: Time 89544, Note Name: A4
Note ON: Time 89640, Note Name: A4, Velocity: 68
Note OFF: Time 89664, Note Name: A#4
Note OFF: Time 89760, Note Name: A4
Note ON: Time 89760, Note Name: E4, Velocity: 68
Note OFF: Time 89880, Note Name: E4
Note ON: Time 89880, Note Name: F4, Velocity: 64
Note OFF: Time 90000, Note Name: F4
Note ON: Time 90000, Note Name: G4, Velocity: 64
Note OFF: Time 90120, Note Name: G4
Note ON: Time 90120, Note Name: F4, Velocity: 64
Note OFF: Time 90240, Note Name: F4
Note OFF: Time 90240, Note Name: D#4
Note ON: Time 90240, Note Name: F4, Velocity: 71
Note ON: Time 90240, Note Name: B4, Velocity: 68
Note OFF: Time 90360, Note Name: B4
Note ON: Time 90360, Note Name: C5, Velocity: 63
Note OFF: Time 90480, Note Name: C5
Note ON: Time 90480, Note Name: D5, Velocity: 63
Note OFF: Time 90600, Note Name: D5
Note ON: Time 90600, Note Name: C5, Velocity: 63
Note OFF: Time 90720, Note Name: C5
Note OFF: Time 90960, Note Name: F4
Note ON: Time 90960, Note Name: D4, Velocity: 65
Note OFF: Time 91080, Note Name: D4
Note ON: Time 91200, Note Name: D5, Velocity: 76
Note ON: Time 91440, Note Name: A4, Velocity: 45
Note OFF: Time 91680, Note Name: A4
Note ON: Time 91680, Note Name: A#4, Velocity: 50
Note OFF: Time 91920, Note Name: D5
Note OFF: Time 92160, Note Name: A#4
Note ON: Time 92400, Note Name: A#3, Velocity: 65
Note OFF: Time 92520, Note Name: A#3
Note ON: Time 92640, Note Name: A#4, Velocity: 76
Note ON: Time 92880, Note Name: F#4, Velocity: 45
Note OFF: Time 93120, Note Name: F#4
Note ON: Time 93120, Note Name: G4, Velocity: 50
Note OFF: Time 93360, Note Name: A#4
Note OFF: Time 93600, Note Name: G4
Note ON: Time 93840, Note Name: G4, Velocity: 61
Note OFF: Time 93960, Note Name: G4
Note ON: Time 94080, Note Name: G5, Velocity: 68
Note ON: Time 94320, Note Name: B4, Velocity: 51
Note ON: Time 94320, Note Name: F5, Velocity: 61
Note OFF: Time 94344, Note Name: G5
Note OFF: Time 94560, Note Name: B4
Note ON: Time 94560, Note Name: C5, Velocity: 51
Note ON: Time 94560, Note Name: D#5, Velocity: 60
Note OFF: Time 94584, Note Name: F5
Note OFF: Time 94800, Note Name: C5
Note ON: Time 94800, Note Name: G4, Velocity: 51
Note ON: Time 94800, Note Name: E5, Velocity: 60
Note OFF: Time 94824, Note Name: D#5
Note OFF: Time 95040, Note Name: G4
Note ON: Time 95040, Note Name: C5, Velocity: 59
Note ON: Time 95040, Note Name: F5, Velocity: 70
Note OFF: Time 95064, Note Name: E5
Note OFF: Time 95160, Note Name: F5
Note OFF: Time 95160, Note Name: C5
Note ON: Time 95280, Note Name: F4, Velocity: 59
Note OFF: Time 95520, Note Name: F4
Note ON: Time 95520, Note Name: C5, Velocity: 59
Note ON: Time 95520, Note Name: D#5, Velocity: 78
Note OFF: Time 95760, Note Name: C5
Note ON: Time 95760, Note Name: F#4, Velocity: 59
Note OFF: Time 96000, Note Name: F#4
Note ON: Time 96000, Note Name: F4, Velocity: 59
Note OFF: Time 96240, Note Name: D#5
Note ON: Time 96240, Note Name: D#5, Velocity: 59
Note OFF: Time 96480, Note Name: D#5
Note ON: Time 96480, Note Name: D#5, Velocity: 65
Note OFF: Time 96720, Note Name: F4
Note ON: Time 96720, Note Name: F4, Velocity: 50
Note ON: Time 96720, Note Name: D5, Velocity: 59
Note OFF: Time 96744, Note Name: D#5
Note OFF: Time 96960, Note Name: F4
Note ON: Time 96960, Note Name: D#4, Velocity: 50
Note ON: Time 96960, Note Name: C5, Velocity: 59
Note OFF: Time 96984, Note Name: D5
Note OFF: Time 97200, Note Name: D#4
Note ON: Time 97200, Note Name: D4, Velocity: 50
Note ON: Time 97200, Note Name: A#4, Velocity: 59
Note OFF: Time 97224, Note Name: C5
Note OFF: Time 97440, Note Name: D4
Note ON: Time 97440, Note Name: C4, Velocity: 50
Note ON: Time 97440, Note Name: A4, Velocity: 59
Note OFF: Time 97464, Note Name: A#4
Note OFF: Time 97680, Note Name: C4
Note ON: Time 97680, Note Name: D4, Velocity: 50
Note ON: Time 97680, Note Name: A#4, Velocity: 59
Note OFF: Time 97704, Note Name: A4
Note OFF: Time 97920, Note Name: A#4
Note OFF: Time 97920, Note Name: D4
Note ON: Time 97920, Note Name: F4, Velocity: 70
Note OFF: Time 98040, Note Name: F4
Note ON: Time 98160, Note Name: B4, Velocity: 59
Note OFF: Time 98400, Note Name: B4
Note ON: Time 98400, Note Name: C5, Velocity: 59
Note ON: Time 98400, Note Name: D#4, Velocity: 78
Note OFF: Time 98640, Note Name: C5
Note ON: Time 98640, Note Name: F#4, Velocity: 59
Note OFF: Time 98880, Note Name: F#4
Note ON: Time 98880, Note Name: F4, Velocity: 59
Note OFF: Time 99120, Note Name: D#4
Note ON: Time 99120, Note Name: D4, Velocity: 59
Note OFF: Time 99360, Note Name: D4
Note OFF: Time 99360, Note Name: F4
Note ON: Time 99360, Note Name: G#5, Velocity: 77
Note OFF: Time 99480, Note Name: G#5
Note ON: Time 99600, Note Name: A#4, Velocity: 59
Note OFF: Time 99840, Note Name: A#4
Note ON: Time 99840, Note Name: E5, Velocity: 59
Note ON: Time 99840, Note Name: G5, Velocity: 85
Note OFF: Time 100080, Note Name: E5
Note ON: Time 100080, Note Name: A#4, Velocity: 59
Note OFF: Time 100560, Note Name: G5
Note ON: Time 100560, Note Name: F5, Velocity: 59
Note OFF: Time 100800, Note Name: F5
Note OFF: Time 100800, Note Name: A#4
Note ON: Time 100800, Note Name: C5, Velocity: 77
Note OFF: Time 100920, Note Name: C5
Note ON: Time 101040, Note Name: D#5, Velocity: 59
Note OFF: Time 101280, Note Name: D#5
Note ON: Time 101280, Note Name: G5, Velocity: 59
Note ON: Time 101280, Note Name: A#4, Velocity: 85
Note OFF: Time 101520, Note Name: G5
Note ON: Time 101520, Note Name: C#5, Velocity: 59
Note OFF: Time 101760, Note Name: C#5
Note ON: Time 101760, Note Name: C5, Velocity: 59
Note OFF: Time 102000, Note Name: A#4
Note ON: Time 102000, Note Name: A4, Velocity: 59
Note OFF: Time 102240, Note Name: A4
Note OFF: Time 102240, Note Name: C5
Note ON: Time 102240, Note Name: F6, Velocity: 83
Note OFF: Time 102360, Note Name: F6
Note ON: Time 102480, Note Name: A5, Velocity: 67
Note OFF: Time 102720, Note Name: A5
Note ON: Time 102720, Note Name: C6, Velocity: 67
Note ON: Time 102720, Note Name: D#6, Velocity: 89
Note OFF: Time 102960, Note Name: C6
Note ON: Time 102960, Note Name: F#5, Velocity: 67
Note OFF: Time 103200, Note Name: F#5
Note ON: Time 103200, Note Name: F5, Velocity: 67
Note OFF: Time 103440, Note Name: D#6
Note ON: Time 103440, Note Name: D6, Velocity: 71
Note OFF: Time 103680, Note Name: D6
Note OFF: Time 103680, Note Name: F5
Note ON: Time 103680, Note Name: G#6, Velocity: 92
Note OFF: Time 103800, Note Name: G#6
Note ON: Time 103920, Note Name: A#5, Velocity: 67
Note OFF: Time 104160, Note Name: A#5
Note ON: Time 104160, Note Name: E6, Velocity: 67
Note ON: Time 104160, Note Name: G6, Velocity: 102
Note OFF: Time 104400, Note Name: E6
Note ON: Time 104400, Note Name: A#5, Velocity: 67
Note OFF: Time 104880, Note Name: A#5
Note OFF: Time 104880, Note Name: G6
Note ON: Time 104880, Note Name: D6, Velocity: 67
Note ON: Time 104880, Note Name: F6, Velocity: 77
Note OFF: Time 105120, Note Name: D6
Note ON: Time 105120, Note Name: B5, Velocity: 67
Note OFF: Time 105360, Note Name: B5
Note OFF: Time 105360, Note Name: F6
Note ON: Time 105360, Note Name: G5, Velocity: 67
Note ON: Time 105360, Note Name: F6, Velocity: 77
Note OFF: Time 105600, Note Name: G5
Note ON: Time 105600, Note Name: C6, Velocity: 67
Note OFF: Time 105840, Note Name: C6
Note OFF: Time 105840, Note Name: F6
Note ON: Time 105840, Note Name: G5, Velocity: 67
Note ON: Time 105840, Note Name: E6, Velocity: 72
Note OFF: Time 106080, Note Name: E6
Note OFF: Time 106080, Note Name: G5
Note ON: Time 106080, Note Name: C6, Velocity: 67
Note ON: Time 106080, Note Name: D#6, Velocity: 77
Note OFF: Time 106320, Note Name: C6
Note ON: Time 106320, Note Name: F5, Velocity: 67
Note OFF: Time 106800, Note Name: F5
Note OFF: Time 106800, Note Name: D#6
Note ON: Time 106800, Note Name: A#5, Velocity: 67
Note ON: Time 106800, Note Name: D6, Velocity: 77
Note OFF: Time 107040, Note Name: D6
Note OFF: Time 107040, Note Name: A#5
Note ON: Time 107040, Note Name: A#5, Velocity: 67
Note ON: Time 107040, Note Name: C#6, Velocity: 77
Note OFF: Time 107280, Note Name: C#6
Note OFF: Time 107280, Note Name: A#5
Note ON: Time 107280, Note Name: A#4, Velocity: 67
Note ON: Time 107280, Note Name: C#5, Velocity: 77
Note OFF: Time 107520, Note Name: A#4
Note ON: Time 107520, Note Name: A#3, Velocity: 67
Note OFF: Time 107640, Note Name: C#5
Note ON: Time 107640, Note Name: G5, Velocity: 68
Note OFF: Time 107760, Note Name: G5
Note OFF: Time 107760, Note Name: A#3
Note ON: Time 107760, Note Name: A#5, Velocity: 71
Note OFF: Time 107880, Note Name: A#5
Note ON: Time 107880, Note Name: C#6, Velocity: 73
Note OFF: Time 108000, Note Name: C#6
Note ON: Time 108000, Note Name: E5, Velocity: 76
Note ON: Time 108000, Note Name: C#6, Velocity: 76
Note OFF: Time 108080, Note Name: E5
Note ON: Time 108080, Note Name: F5, Velocity: 64
Note OFF: Time 108160, Note Name: F5
Note ON: Time 108160, Note Name: E5, Velocity: 76
Note OFF: Time 108240, Note Name: E5
Note OFF: Time 108240, Note Name: C#6
Note ON: Time 108240, Note Name: F5, Velocity: 64
Note ON: Time 108240, Note Name: C6, Velocity: 69
Note OFF: Time 108320, Note Name: F5
Note ON: Time 108320, Note Name: E5, Velocity: 76
Note OFF: Time 108360, Note Name: C6
Note ON: Time 108360, Note Name: A#5, Velocity: 69
Note OFF: Time 108400, Note Name: E5
Note ON: Time 108400, Note Name: F5, Velocity: 64
Note OFF: Time 108480, Note Name: F5
Note OFF: Time 108480, Note Name: A#5
Note ON: Time 108480, Note Name: E5, Velocity: 76
Note ON: Time 108480, Note Name: A5, Velocity: 72
Note OFF: Time 108560, Note Name: E5
Note ON: Time 108560, Note Name: F5, Velocity: 64
Note OFF: Time 108600, Note Name: A5
Note ON: Time 108600, Note Name: A#5, Velocity: 67
Note OFF: Time 108640, Note Name: F5
Note ON: Time 108640, Note Name: E5, Velocity: 76
Note OFF: Time 108720, Note Name: E5
Note OFF: Time 108720, Note Name: A#5
Note ON: Time 108720, Note Name: F5, Velocity: 64
Note ON: Time 108720, Note Name: C6, Velocity: 67
Note OFF: Time 108780, Note Name: F5
Note ON: Time 108780, Note Name: E5, Velocity: 57
Note OFF: Time 108840, Note Name: E5
Note OFF: Time 108840, Note Name: C6
Note ON: Time 108840, Note Name: D5, Velocity: 57
Note ON: Time 108840, Note Name: A#5, Velocity: 67
Note OFF: Time 108900, Note Name: D5
Note ON: Time 108900, Note Name: E5, Velocity: 57
Note OFF: Time 108960, Note Name: E5
Note OFF: Time 108960, Note Name: A#5
Note ON: Time 108960, Note Name: F5, Velocity: 73
Note ON: Time 108960, Note Name: A5, Velocity: 73
Note OFF: Time 109080, Note Name: A5
Note ON: Time 109080, Note Name: G5, Velocity: 67
Note OFF: Time 109200, Note Name: G5
Note ON: Time 109200, Note Name: A5, Velocity: 67
Note OFF: Time 109320, Note Name: A5
Note ON: Time 109320, Note Name: A#5, Velocity: 67
Note OFF: Time 109440, Note Name: A#5
Note OFF: Time 109440, Note Name: F5
Note ON: Time 109440, Note Name: C6, Velocity: 77
Note OFF: Time 109560, Note Name: C6
Note ON: Time 109560, Note Name: A#5, Velocity: 71
Note OFF: Time 109680, Note Name: A#5
Note ON: Time 109680, Note Name: A5, Velocity: 70
Note OFF: Time 109800, Note Name: A5
Note ON: Time 109800, Note Name: G5, Velocity: 69
Note OFF: Time 109920, Note Name: G5
Note ON: Time 109920, Note Name: F5, Velocity: 68
Note OFF: Time 110040, Note Name: F5
Note ON: Time 110040, Note Name: G5, Velocity: 69
Note OFF: Time 110160, Note Name: G5
Note ON: Time 110160, Note Name: F5, Velocity: 69
Note OFF: Time 110280, Note Name: F5
Note ON: Time 110280, Note Name: D#5, Velocity: 69
Note OFF: Time 110400, Note Name: D#5
Note ON: Time 110400, Note Name: D4, Velocity: 67
Note ON: Time 110400, Note Name: D5, Velocity: 73
Note OFF: Time 110520, Note Name: D5
Note ON: Time 110520, Note Name: C#6, Velocity: 82
Note OFF: Time 110640, Note Name: C#6
Note OFF: Time 110640, Note Name: D4
Note ON: Time 110640, Note Name: D6, Velocity: 85
Note OFF: Time 110760, Note Name: D6
Note ON: Time 110760, Note Name: C#6, Velocity: 81
Note OFF: Time 110880, Note Name: C#6
Note ON: Time 110880, Note Name: F#5, Velocity: 76
Note ON: Time 110880, Note Name: D#6, Velocity: 76
Note OFF: Time 110960, Note Name: F#5
Note ON: Time 110960, Note Name: G5, Velocity: 64
Note OFF: Time 111040, Note Name: G5
Note ON: Time 111040, Note Name: F#5, Velocity: 76
Note OFF: Time 111120, Note Name: F#5
Note OFF: Time 111120, Note Name: D#6
Note ON: Time 111120, Note Name: G5, Velocity: 64
Note ON: Time 111120, Note Name: D6, Velocity: 69
Note OFF: Time 111200, Note Name: G5
Note ON: Time 111200, Note Name: F#5, Velocity: 76
Note OFF: Time 111240, Note Name: D6
Note ON: Time 111240, Note Name: C6, Velocity: 69
Note OFF: Time 111280, Note Name: F#5
Note ON: Time 111280, Note Name: G5, Velocity: 64
Note OFF: Time 111360, Note Name: G5
Note OFF: Time 111360, Note Name: C6
Note ON: Time 111360, Note Name: F#5, Velocity: 76
Note ON: Time 111360, Note Name: B5, Velocity: 72
Note OFF: Time 111440, Note Name: F#5
Note ON: Time 111440, Note Name: G5, Velocity: 64
Note OFF: Time 111480, Note Name: B5
Note ON: Time 111480, Note Name: C6, Velocity: 67
Note OFF: Time 111520, Note Name: G5
Note ON: Time 111520, Note Name: F#5, Velocity: 76
Note OFF: Time 111600, Note Name: F#5
Note OFF: Time 111600, Note Name: C6
Note ON: Time 111600, Note Name: G5, Velocity: 64
Note ON: Time 111600, Note Name: D6, Velocity: 67
Note OFF: Time 111660, Note Name: G5
Note ON: Time 111660, Note Name: F#5, Velocity: 57
Note OFF: Time 111720, Note Name: F#5
Note OFF: Time 111720, Note Name: D6
Note ON: Time 111720, Note Name: D#5, Velocity: 57
Note ON: Time 111720, Note Name: C6, Velocity: 67
Note OFF: Time 111780, Note Name: D#5
Note ON: Time 111780, Note Name: F#5, Velocity: 57
Note OFF: Time 111840, Note Name: F#5
Note OFF: Time 111840, Note Name: C6
Note ON: Time 111840, Note Name: G5, Velocity: 73
Note ON: Time 111840, Note Name: B5, Velocity: 73
Note OFF: Time 111960, Note Name: B5
Note ON: Time 111960, Note Name: A5, Velocity: 67
Note OFF: Time 112080, Note Name: A5
Note ON: Time 112080, Note Name: B5, Velocity: 67
Note OFF: Time 112200, Note Name: B5
Note ON: Time 112200, Note Name: C6, Velocity: 67
Note OFF: Time 112320, Note Name: C6
Note OFF: Time 112320, Note Name: G5
Note ON: Time 112320, Note Name: D6, Velocity: 77
Note OFF: Time 112440, Note Name: D6
Note ON: Time 112440, Note Name: C6, Velocity: 71
Note OFF: Time 112560, Note Name: C6
Note ON: Time 112560, Note Name: B5, Velocity: 70
Note OFF: Time 112680, Note Name: B5
Note ON: Time 112680, Note Name: G#5, Velocity: 69
Note OFF: Time 112800, Note Name: G#5
Note ON: Time 112800, Note Name: G5, Velocity: 68
Note OFF: Time 112920, Note Name: G5
Note ON: Time 112920, Note Name: G#5, Velocity: 69
Note OFF: Time 113040, Note Name: G#5
Note ON: Time 113040, Note Name: G5, Velocity: 69
Note OFF: Time 113160, Note Name: G5
Note ON: Time 113160, Note Name: F5, Velocity: 69
Note OFF: Time 113280, Note Name: F5
Note ON: Time 113280, Note Name: D#5, Velocity: 65
Note ON: Time 113280, Note Name: G4, Velocity: 65
Note OFF: Time 113400, Note Name: G4
Note ON: Time 113400, Note Name: B4, Velocity: 66
Note OFF: Time 113520, Note Name: B4
Note OFF: Time 113520, Note Name: D#5
Note ON: Time 113520, Note Name: C5, Velocity: 68
Note OFF: Time 113640, Note Name: C5
Note ON: Time 113640, Note Name: C#5, Velocity: 71
Note OFF: Time 113760, Note Name: C#5
Note ON: Time 113760, Note Name: D#5, Velocity: 74
Note OFF: Time 113880, Note Name: D#5
Note ON: Time 113880, Note Name: C#5, Velocity: 74
Note OFF: Time 114000, Note Name: C#5
Note ON: Time 114000, Note Name: C5, Velocity: 72
Note OFF: Time 114120, Note Name: C5
Note ON: Time 114120, Note Name: A#4, Velocity: 70
Note OFF: Time 114240, Note Name: A#4
Note ON: Time 114240, Note Name: G#4, Velocity: 78
Note OFF: Time 114360, Note Name: G#4
Note ON: Time 114360, Note Name: A#4, Velocity: 75
Note OFF: Time 114480, Note Name: A#4
Note ON: Time 114480, Note Name: G#4, Velocity: 73
Note OFF: Time 114600, Note Name: G#4
Note ON: Time 114600, Note Name: F#4, Velocity: 70
Note OFF: Time 114720, Note Name: F#4
Note ON: Time 114720, Note Name: F4, Velocity: 76
Note ON: Time 114960, Note Name: C#5, Velocity: 70
Note OFF: Time 115080, Note Name: C#5
Note ON: Time 115080, Note Name: D#5, Velocity: 70
Note OFF: Time 115200, Note Name: D#5
Note OFF: Time 115200, Note Name: F4
Note ON: Time 115200, Note Name: F5, Velocity: 76
Note OFF: Time 115320, Note Name: F5
Note ON: Time 115320, Note Name: F#5, Velocity: 74
Note OFF: Time 115440, Note Name: F#5
Note ON: Time 115440, Note Name: F5, Velocity: 71
Note OFF: Time 115560, Note Name: F5
Note ON: Time 115560, Note Name: D#5, Velocity: 71
Note OFF: Time 115680, Note Name: D#5
Note ON: Time 115680, Note Name: C#5, Velocity: 72
Note OFF: Time 115800, Note Name: C#5
Note ON: Time 115800, Note Name: C5, Velocity: 71
Note OFF: Time 115920, Note Name: C5
Note ON: Time 115920, Note Name: A#4, Velocity: 69
Note OFF: Time 116040, Note Name: A#4
Note ON: Time 116040, Note Name: G#4, Velocity: 68
Note OFF: Time 116160, Note Name: G#4
Note ON: Time 116160, Note Name: C#5, Velocity: 79
Note ON: Time 116160, Note Name: C#4, Velocity: 79
Note OFF: Time 116280, Note Name: C#4
Note ON: Time 116280, Note Name: D#4, Velocity: 69
Note OFF: Time 116400, Note Name: D#4
Note ON: Time 116400, Note Name: E4, Velocity: 69
Note OFF: Time 116520, Note Name: E4
Note ON: Time 116520, Note Name: F4, Velocity: 69
Note OFF: Time 116640, Note Name: F4
Note ON: Time 116640, Note Name: F#4, Velocity: 74
Note OFF: Time 116760, Note Name: C#5
Note ON: Time 116760, Note Name: D#5, Velocity: 74
Note OFF: Time 116880, Note Name: D#5
Note ON: Time 116880, Note Name: C#5, Velocity: 69
Note OFF: Time 117000, Note Name: C#5
Note ON: Time 117000, Note Name: C5, Velocity: 69
Note OFF: Time 117120, Note Name: C5
Note OFF: Time 117120, Note Name: F#4
Note ON: Time 117120, Note Name: A#4, Velocity: 68
Note OFF: Time 117240, Note Name: A#4
Note ON: Time 117240, Note Name: G#4, Velocity: 67
Note OFF: Time 117360, Note Name: G#4
Note ON: Time 117360, Note Name: F#4, Velocity: 66
Note OFF: Time 117480, Note Name: F#4
Note ON: Time 117480, Note Name: F4, Velocity: 66
Note OFF: Time 117600, Note Name: F4
Note ON: Time 117600, Note Name: A#4, Velocity: 74
Note ON: Time 117600, Note Name: A#3, Velocity: 74
Note OFF: Time 117720, Note Name: A#3
Note ON: Time 117720, Note Name: C4, Velocity: 68
Note OFF: Time 117840, Note Name: C4
Note ON: Time 117840, Note Name: C#4, Velocity: 69
Note OFF: Time 117960, Note Name: C#4
Note ON: Time 117960, Note Name: D4, Velocity: 70
Note OFF: Time 118080, Note Name: D4
Note ON: Time 118080, Note Name: D#4, Velocity: 71
Note OFF: Time 118200, Note Name: D#4
Note ON: Time 118200, Note Name: D4, Velocity: 67
Note OFF: Time 118320, Note Name: D4
Note ON: Time 118320, Note Name: D#4, Velocity: 67
Note OFF: Time 118440, Note Name: D#4
Note OFF: Time 118440, Note Name: A#4
Note ON: Time 118440, Note Name: F4, Velocity: 67
Note OFF: Time 118560, Note Name: F4
Note ON: Time 118560, Note Name: F#4, Velocity: 74
Note OFF: Time 118800, Note Name: F#4
Note ON: Time 118800, Note Name: G4, Velocity: 70
Note ON: Time 118800, Note Name: A#4, Velocity: 80
Note OFF: Time 119040, Note Name: A#4
Note OFF: Time 119040, Note Name: G4
Note ON: Time 119040, Note Name: G#4, Velocity: 72
Note ON: Time 119040, Note Name: C5, Velocity: 82
Note OFF: Time 119280, Note Name: C5
Note OFF: Time 119280, Note Name: G#4
Note ON: Time 119280, Note Name: C#5, Velocity: 83
Note OFF: Time 119520, Note Name: C#5
Note ON: Time 119520, Note Name: F#4, Velocity: 79
Note ON: Time 119520, Note Name: D#5, Velocity: 90
Note OFF: Time 120240, Note Name: D#5
Note OFF: Time 120240, Note Name: F#4
Note ON: Time 120240, Note Name: F#4, Velocity: 70
Note ON: Time 120240, Note Name: D#5, Velocity: 80
Note OFF: Time 120480, Note Name: D#5
Note OFF: Time 120480, Note Name: F#4
Note ON: Time 120480, Note Name: F#4, Velocity: 74
Note ON: Time 120480, Note Name: D#5, Velocity: 85
Note OFF: Time 120720, Note Name: D#5
Note OFF: Time 120720, Note Name: F#4
Note ON: Time 120720, Note Name: F4, Velocity: 70
Note ON: Time 120720, Note Name: C#5, Velocity: 80
Note OFF: Time 120960, Note Name: C#5
Note OFF: Time 120960, Note Name: F4
Note ON: Time 120960, Note Name: D#4, Velocity: 73
Note ON: Time 120960, Note Name: C5, Velocity: 83
Note OFF: Time 121200, Note Name: C5
Note OFF: Time 121200, Note Name: D#4
Note ON: Time 121200, Note Name: C#4, Velocity: 70
Note ON: Time 121200, Note Name: C#5, Velocity: 80
Note OFF: Time 121440, Note Name: C#5
Note OFF: Time 121440, Note Name: C#4
Note ON: Time 121440, Note Name: C4, Velocity: 70
Note ON: Time 121440, Note Name: D#4, Velocity: 70
Note OFF: Time 121680, Note Name: D#4
Note OFF: Time 121680, Note Name: C4
Note ON: Time 121680, Note Name: F4, Velocity: 67
Note ON: Time 121680, Note Name: C#4, Velocity: 67
Note OFF: Time 121800, Note Name: F4
Note ON: Time 121800, Note Name: F#4, Velocity: 68
Note OFF: Time 121920, Note Name: F#4
Note OFF: Time 121920, Note Name: C#4
Note ON: Time 121920, Note Name: G#4, Velocity: 70
Note ON: Time 121920, Note Name: C4, Velocity: 70
Note OFF: Time 122040, Note Name: G#4
Note ON: Time 122040, Note Name: A#4, Velocity: 71
Note OFF: Time 122160, Note Name: A#4
Note OFF: Time 122160, Note Name: C4
Note ON: Time 122160, Note Name: C5, Velocity: 72
Note ON: Time 122160, Note Name: D#4, Velocity: 72
Note OFF: Time 122280, Note Name: C5
Note ON: Time 122280, Note Name: C#5, Velocity: 74
Note OFF: Time 122400, Note Name: C#5
Note OFF: Time 122400, Note Name: D#4
Note ON: Time 122400, Note Name: D5, Velocity: 75
Note OFF: Time 122520, Note Name: D5
Note ON: Time 122520, Note Name: D#5, Velocity: 77
Note OFF: Time 122640, Note Name: D#5
Note ON: Time 122640, Note Name: F5, Velocity: 79
Note OFF: Time 122760, Note Name: F5
Note ON: Time 122760, Note Name: D#5, Velocity: 76
Note OFF: Time 122880, Note Name: D#5
Note ON: Time 122880, Note Name: C#5, Velocity: 74
Note OFF: Time 123000, Note Name: C#5
Note ON: Time 123000, Note Name: C5, Velocity: 73
Note OFF: Time 123120, Note Name: C5
Note ON: Time 123120, Note Name: A#4, Velocity: 72
Note OFF: Time 123240, Note Name: A#4
Note ON: Time 123240, Note Name: G#4, Velocity: 71
Note OFF: Time 123360, Note Name: G#4
Note ON: Time 123360, Note Name: C#5, Velocity: 72
Note OFF: Time 123480, Note Name: C#5
Note ON: Time 123480, Note Name: D#5, Velocity: 73
Note OFF: Time 123600, Note Name: D#5
Note ON: Time 123600, Note Name: F5, Velocity: 75
Note OFF: Time 123720, Note Name: F5
Note ON: Time 123720, Note Name: F#5, Velocity: 77
Note OFF: Time 123840, Note Name: F#5
Note ON: Time 123840, Note Name: G5, Velocity: 78
Note OFF: Time 123960, Note Name: G5
Note ON: Time 123960, Note Name: G#5, Velocity: 76
Note OFF: Time 124080, Note Name: G#5
Note ON: Time 124080, Note Name: A#5, Velocity: 81
Note OFF: Time 124200, Note Name: A#5
Note ON: Time 124200, Note Name: G#5, Velocity: 73
Note OFF: Time 124320, Note Name: G#5
Note ON: Time 124320, Note Name: F#5, Velocity: 79
Note OFF: Time 124440, Note Name: F#5
Note ON: Time 124440, Note Name: F5, Velocity: 78
Note OFF: Time 124560, Note Name: F5
Note ON: Time 124560, Note Name: D#5, Velocity: 76
Note OFF: Time 124680, Note Name: D#5
Note ON: Time 124680, Note Name: C#5, Velocity: 75
Note OFF: Time 124800, Note Name: C#5
Note ON: Time 124800, Note Name: C4, Velocity: 70
Note ON: Time 124800, Note Name: G#4, Velocity: 80
Note OFF: Time 124920, Note Name: C4
Note ON: Time 124920, Note Name: C#4, Velocity: 63
Note OFF: Time 125040, Note Name: C#4
Note OFF: Time 125040, Note Name: G#4
Note ON: Time 125040, Note Name: C4, Velocity: 63
Note OFF: Time 125160, Note Name: C4
Note ON: Time 125160, Note Name: A#3, Velocity: 65
Note OFF: Time 125280, Note Name: A#3
Note ON: Time 125280, Note Name: F#4, Velocity: 80
Note ON: Time 125280, Note Name: G#3, Velocity: 68
Note OFF: Time 125400, Note Name: G#3
Note ON: Time 125400, Note Name: A#3, Velocity: 58
Note OFF: Time 125520, Note Name: A#3
Note ON: Time 125520, Note Name: C4, Velocity: 58
Note OFF: Time 125640, Note Name: C4
Note ON: Time 125640, Note Name: C#4, Velocity: 58
Note OFF: Time 125760, Note Name: C#4
Note ON: Time 125760, Note Name: D4, Velocity: 64
Note OFF: Time 125880, Note Name: D4
Note ON: Time 125880, Note Name: D#4, Velocity: 58
Note OFF: Time 126000, Note Name: D#4
Note OFF: Time 126000, Note Name: F#4
Note ON: Time 126000, Note Name: F4, Velocity: 80
Note ON: Time 126000, Note Name: C4, Velocity: 58
Note OFF: Time 126120, Note Name: C4
Note ON: Time 126120, Note Name: C#4, Velocity: 58
Note OFF: Time 126240, Note Name: C#4
Note OFF: Time 126240, Note Name: F4
Note ON: Time 126240, Note Name: A#4, Velocity: 80
Note ON: Time 126240, Note Name: E4, Velocity: 64
Note OFF: Time 126360, Note Name: E4
Note ON: Time 126360, Note Name: F4, Velocity: 58
Note OFF: Time 126480, Note Name: F4
Note ON: Time 126480, Note Name: F#4, Velocity: 58
Note OFF: Time 126600, Note Name: F#4
Note ON: Time 126600, Note Name: F4, Velocity: 58
Note OFF: Time 126720, Note Name: F4
Note OFF: Time 126720, Note Name: A#4
Note ON: Time 126720, Note Name: D4, Velocity: 68
Note OFF: Time 126840, Note Name: D4
Note ON: Time 126840, Note Name: D#4, Velocity: 57
Note OFF: Time 126960, Note Name: D#4
Note ON: Time 126960, Note Name: G4, Velocity: 57
Note OFF: Time 127080, Note Name: G4
Note ON: Time 127080, Note Name: G#4, Velocity: 57
Note OFF: Time 127200, Note Name: G#4
Note ON: Time 127200, Note Name: F#4, Velocity: 65
Note OFF: Time 127320, Note Name: F#4
Note ON: Time 127320, Note Name: G4, Velocity: 58
Note OFF: Time 127440, Note Name: G4
Note ON: Time 127440, Note Name: G#4, Velocity: 58
Note OFF: Time 127560, Note Name: G#4
Note ON: Time 127560, Note Name: G4, Velocity: 58
Note OFF: Time 127680, Note Name: G4
Note ON: Time 127680, Note Name: C#5, Velocity: 70
Note ON: Time 127680, Note Name: A4, Velocity: 66
Note OFF: Time 127800, Note Name: A4
Note ON: Time 127800, Note Name: A#4, Velocity: 61
Note OFF: Time 127920, Note Name: A#4
Note OFF: Time 127920, Note Name: C#5
Note ON: Time 127920, Note Name: C5, Velocity: 70
Note OFF: Time 128040, Note Name: C5
Note ON: Time 128040, Note Name: A#4, Velocity: 61
Note OFF: Time 128160, Note Name: A#4
Note ON: Time 128160, Note Name: C5, Velocity: 80
Note ON: Time 128160, Note Name: G4, Velocity: 68
Note OFF: Time 128280, Note Name: G4
Note ON: Time 128280, Note Name: G#4, Velocity: 60
Note OFF: Time 128400, Note Name: G#4
Note ON: Time 128400, Note Name: A#4, Velocity: 60
Note OFF: Time 128520, Note Name: A#4
Note ON: Time 128520, Note Name: G#4, Velocity: 60
Note OFF: Time 128640, Note Name: G#4
Note ON: Time 128640, Note Name: F#4, Velocity: 66
Note OFF: Time 128760, Note Name: F#4
Note ON: Time 128760, Note Name: G4, Velocity: 61
Note OFF: Time 128880, Note Name: G4
Note OFF: Time 128880, Note Name: C5
Note ON: Time 128880, Note Name: A#4, Velocity: 80
Note ON: Time 128880, Note Name: G#4, Velocity: 61
Note OFF: Time 129000, Note Name: G#4
Note ON: Time 129000, Note Name: G4, Velocity: 61
Note OFF: Time 129120, Note Name: G4
Note OFF: Time 129120, Note Name: A#4
Note ON: Time 129120, Note Name: D#5, Velocity: 80
Note ON: Time 129120, Note Name: A4, Velocity: 68
Note OFF: Time 129240, Note Name: A4
Note ON: Time 129240, Note Name: A#4, Velocity: 62
Note OFF: Time 129360, Note Name: A#4
Note ON: Time 129360, Note Name: C5, Velocity: 62
Note OFF: Time 129480, Note Name: C5
Note ON: Time 129480, Note Name: A#4, Velocity: 62
Note OFF: Time 129600, Note Name: A#4
Note OFF: Time 129600, Note Name: D#5
Note ON: Time 129600, Note Name: G#4, Velocity: 68
Note OFF: Time 129720, Note Name: G#4
Note ON: Time 129720, Note Name: A#4, Velocity: 61
Note OFF: Time 129840, Note Name: A#4
Note ON: Time 129840, Note Name: C5, Velocity: 61
Note OFF: Time 129960, Note Name: C5
Note ON: Time 129960, Note Name: C#5, Velocity: 61
Note OFF: Time 130080, Note Name: C#5
Note ON: Time 130080, Note Name: C5, Velocity: 68
Note OFF: Time 130200, Note Name: C5
Note ON: Time 130200, Note Name: C#5, Velocity: 63
Note OFF: Time 130320, Note Name: C#5
Note ON: Time 130320, Note Name: B4, Velocity: 63
Note OFF: Time 130440, Note Name: B4
Note ON: Time 130440, Note Name: C5, Velocity: 63
Note OFF: Time 130560, Note Name: C5
Note ON: Time 130560, Note Name: F5, Velocity: 80
Note ON: Time 130560, Note Name: B4, Velocity: 68
Note OFF: Time 130680, Note Name: B4
Note ON: Time 130680, Note Name: C5, Velocity: 62
Note OFF: Time 130800, Note Name: C5
Note OFF: Time 130800, Note Name: F5
Note ON: Time 130800, Note Name: C#5, Velocity: 62
Note OFF: Time 130920, Note Name: C#5
Note ON: Time 130920, Note Name: C5, Velocity: 62
Note OFF: Time 131040, Note Name: C5
Note ON: Time 131040, Note Name: F5, Velocity: 80
Note ON: Time 131040, Note Name: A4, Velocity: 68
Note OFF: Time 131160, Note Name: A4
Note OFF: Time 131160, Note Name: F5
Note ON: Time 131160, Note Name: A#4, Velocity: 63
Note OFF: Time 131280, Note Name: A#4
Note ON: Time 131280, Note Name: D#5, Velocity: 80
Note ON: Time 131280, Note Name: C5, Velocity: 63
Note OFF: Time 131400, Note Name: C5
Note OFF: Time 131400, Note Name: D#5
Note ON: Time 131400, Note Name: A#4, Velocity: 63
Note OFF: Time 131520, Note Name: A#4
Note ON: Time 131520, Note Name: D4, Velocity: 68
Note OFF: Time 131640, Note Name: D4
Note ON: Time 131640, Note Name: D#4, Velocity: 63
Note OFF: Time 131760, Note Name: D#4
Note ON: Time 131760, Note Name: F4, Velocity: 63
Note OFF: Time 131880, Note Name: F4
Note ON: Time 131880, Note Name: D#4, Velocity: 63
Note OFF: Time 132000, Note Name: D#4
Note ON: Time 132000, Note Name: C#5, Velocity: 80
Note ON: Time 132000, Note Name: G4, Velocity: 68
Note OFF: Time 132120, Note Name: G4
Note ON: Time 132120, Note Name: G#4, Velocity: 61
Note OFF: Time 132240, Note Name: G#4
Note OFF: Time 132240, Note Name: C#5
Note ON: Time 132240, Note Name: A#4, Velocity: 61
Note OFF: Time 132360, Note Name: A#4
Note ON: Time 132360, Note Name: G#4, Velocity: 61
Note OFF: Time 132480, Note Name: G#4
Note ON: Time 132480, Note Name: C#5, Velocity: 80
Note ON: Time 132480, Note Name: G4, Velocity: 68
Note OFF: Time 132600, Note Name: G4
Note ON: Time 132600, Note Name: G#4, Velocity: 63
Note OFF: Time 132720, Note Name: G#4
Note OFF: Time 132720, Note Name: C#5
Note ON: Time 132720, Note Name: C5, Velocity: 80
Note ON: Time 132720, Note Name: A#4, Velocity: 63
Note OFF: Time 132840, Note Name: A#4
Note ON: Time 132840, Note Name: G#4, Velocity: 63
Note OFF: Time 132960, Note Name: G#4
Note OFF: Time 132960, Note Name: C5
Note ON: Time 132960, Note Name: G4, Velocity: 68
Note OFF: Time 133080, Note Name: G4
Note ON: Time 133080, Note Name: G#4, Velocity: 62
Note OFF: Time 133200, Note Name: G#4
Note ON: Time 133200, Note Name: C#5, Velocity: 80
Note ON: Time 133200, Note Name: A#4, Velocity: 62
Note OFF: Time 133320, Note Name: A#4
Note OFF: Time 133320, Note Name: C#5
Note ON: Time 133320, Note Name: B4, Velocity: 62
Note OFF: Time 133440, Note Name: B4
Note ON: Time 133440, Note Name: G6, Velocity: 75
Note ON: Time 133440, Note Name: C5, Velocity: 68
Note OFF: Time 133520, Note Name: G6
Note ON: Time 133520, Note Name: G#6, Velocity: 60
Note OFF: Time 133560, Note Name: C5
Note ON: Time 133560, Note Name: A#4, Velocity: 68
Note OFF: Time 133600, Note Name: G#6
Note ON: Time 133600, Note Name: G6, Velocity: 68
Note OFF: Time 133675, Note Name: G6
Note OFF: Time 133680, Note Name: A#4
Note ON: Time 133680, Note Name: G#6, Velocity: 60
Note ON: Time 133680, Note Name: A4, Velocity: 61
Note OFF: Time 133760, Note Name: G#6
Note ON: Time 133760, Note Name: G6, Velocity: 75
Note OFF: Time 133800, Note Name: A4
Note ON: Time 133800, Note Name: A#4, Velocity: 61
Note OFF: Time 133840, Note Name: G6
Note ON: Time 133840, Note Name: G#6, Velocity: 60
Note OFF: Time 133910, Note Name: A#4
Note OFF: Time 133920, Note Name: G#6
Note ON: Time 133920, Note Name: G6, Velocity: 75
Note ON: Time 133920, Note Name: A#4, Velocity: 68
Note OFF: Time 134000, Note Name: G6
Note ON: Time 134000, Note Name: G#6, Velocity: 60
Note OFF: Time 134040, Note Name: A#4
Note ON: Time 134040, Note Name: G#4, Velocity: 58
Note OFF: Time 134080, Note Name: G#6
Note ON: Time 134080, Note Name: G6, Velocity: 75
Note OFF: Time 134160, Note Name: G6
Note OFF: Time 134160, Note Name: G#4
Note ON: Time 134160, Note Name: G#6, Velocity: 60
Note ON: Time 134160, Note Name: D#4, Velocity: 65
Note OFF: Time 134220, Note Name: G#6
Note ON: Time 134220, Note Name: G6, Velocity: 75
Note OFF: Time 134280, Note Name: G6
Note OFF: Time 134280, Note Name: D#4
Note ON: Time 134280, Note Name: F6, Velocity: 60
Note ON: Time 134280, Note Name: G#4, Velocity: 60
Note OFF: Time 134340, Note Name: F6
Note ON: Time 134340, Note Name: G6, Velocity: 60
Note OFF: Time 134400, Note Name: G6
Note OFF: Time 134400, Note Name: G#4
Note ON: Time 134400, Note Name: G#6, Velocity: 75
Note OFF: Time 134880, Note Name: G#6
Note ON: Time 135120, Note Name: G4, Velocity: 66
Note ON: Time 135120, Note Name: G#6, Velocity: 67
Note OFF: Time 135240, Note Name: G#6
Note OFF: Time 135240, Note Name: G4
Note ON: Time 135240, Note Name: G6, Velocity: 62
Note OFF: Time 135360, Note Name: G6
Note ON: Time 135360, Note Name: G#4, Velocity: 74
Note ON: Time 135360, Note Name: F6, Velocity: 69
Note OFF: Time 135480, Note Name: F6
Note ON: Time 135480, Note Name: D#6, Velocity: 60
Note OFF: Time 135600, Note Name: D#6
Note ON: Time 135600, Note Name: C#6, Velocity: 60
Note OFF: Time 135720, Note Name: C#6
Note ON: Time 135720, Note Name: C6, Velocity: 60
Note OFF: Time 135840, Note Name: C6
Note OFF: Time 135840, Note Name: G#4
Note ON: Time 135840, Note Name: F6, Velocity: 68
Note OFF: Time 136320, Note Name: F6
Note ON: Time 136560, Note Name: E4, Velocity: 66
Note ON: Time 136560, Note Name: F6, Velocity: 67
Note OFF: Time 136680, Note Name: F6
Note OFF: Time 136680, Note Name: E4
Note ON: Time 136680, Note Name: D#6, Velocity: 62
Note OFF: Time 136800, Note Name: D#6
Note ON: Time 136800, Note Name: F4, Velocity: 74
Note ON: Time 136800, Note Name: C#6, Velocity: 69
Note OFF: Time 136920, Note Name: C#6
Note ON: Time 136920, Note Name: C6, Velocity: 60
Note OFF: Time 137040, Note Name: C6
Note ON: Time 137040, Note Name: A#5, Velocity: 60
Note OFF: Time 137160, Note Name: A#5
Note ON: Time 137160, Note Name: G#5, Velocity: 60
Note OFF: Time 137280, Note Name: G#5
Note OFF: Time 137280, Note Name: F4
Note ON: Time 137280, Note Name: C#6, Velocity: 68
Note OFF: Time 137760, Note Name: C#6
Note ON: Time 138000, Note Name: D#5, Velocity: 72
Note ON: Time 138000, Note Name: C#6, Velocity: 67
Note OFF: Time 138120, Note Name: C#6
Note ON: Time 138120, Note Name: C6, Velocity: 60
Note OFF: Time 138240, Note Name: C6
Note OFF: Time 138240, Note Name: D#5
Note ON: Time 138240, Note Name: C#5, Velocity: 80
Note ON: Time 138240, Note Name: A#5, Velocity: 67
Note OFF: Time 138360, Note Name: A#5
Note ON: Time 138360, Note Name: C6, Velocity: 61
Note OFF: Time 138480, Note Name: C6
Note OFF: Time 138480, Note Name: C#5
Note ON: Time 138480, Note Name: A#4, Velocity: 68
Note ON: Time 138480, Note Name: A#5, Velocity: 61
Note OFF: Time 138600, Note Name: A#5
Note ON: Time 138600, Note Name: G#5, Velocity: 61
Note OFF: Time 138720, Note Name: G#5
Note OFF: Time 138720, Note Name: A#4
Note ON: Time 138720, Note Name: A#4, Velocity: 68
Note ON: Time 138720, Note Name: G5, Velocity: 67
Note OFF: Time 138840, Note Name: G5
Note ON: Time 138840, Note Name: G#5, Velocity: 62
Note OFF: Time 138960, Note Name: G#5
Note OFF: Time 138960, Note Name: A#4
Note ON: Time 138960, Note Name: G5, Velocity: 62
Note OFF: Time 139080, Note Name: G5
Note ON: Time 139080, Note Name: F5, Velocity: 62
Note OFF: Time 139200, Note Name: F5
Note ON: Time 139200, Note Name: D#5, Velocity: 62
Note OFF: Time 139320, Note Name: D#5
Note ON: Time 139320, Note Name: F5, Velocity: 61
Note OFF: Time 139440, Note Name: F5
Note ON: Time 139440, Note Name: G5, Velocity: 63
Note OFF: Time 139560, Note Name: G5
Note ON: Time 139560, Note Name: G#5, Velocity: 64
Note OFF: Time 139680, Note Name: G#5
Note ON: Time 139680, Note Name: A5, Velocity: 66
Note OFF: Time 139800, Note Name: A5
Note ON: Time 139800, Note Name: A#5, Velocity: 68
Note OFF: Time 139920, Note Name: A#5
Note ON: Time 139920, Note Name: C6, Velocity: 69
Note OFF: Time 140040, Note Name: C6
Note ON: Time 140040, Note Name: A#5, Velocity: 67
Note OFF: Time 140160, Note Name: A#5
Note ON: Time 140160, Note Name: G#5, Velocity: 69
Note OFF: Time 140280, Note Name: G#5
Note ON: Time 140280, Note Name: A#5, Velocity: 64
Note OFF: Time 140400, Note Name: A#5
Note ON: Time 140400, Note Name: C6, Velocity: 68
Note OFF: Time 140520, Note Name: C6
Note ON: Time 140520, Note Name: C#6, Velocity: 69
Note OFF: Time 140640, Note Name: C#6
Note ON: Time 140640, Note Name: D6, Velocity: 72
Note OFF: Time 140760, Note Name: D6
Note ON: Time 140760, Note Name: D#6, Velocity: 73
Note OFF: Time 140880, Note Name: D#6
Note ON: Time 140880, Note Name: F6, Velocity: 75
Note OFF: Time 141000, Note Name: F6
Note ON: Time 141000, Note Name: D#6, Velocity: 71
Note OFF: Time 141120, Note Name: D#6
Note ON: Time 141120, Note Name: C#6, Velocity: 74
Note OFF: Time 141240, Note Name: C#6
Note ON: Time 141240, Note Name: C6, Velocity: 73
Note OFF: Time 141360, Note Name: C6
Note ON: Time 141360, Note Name: A#5, Velocity: 71
Note OFF: Time 141480, Note Name: A#5
Note ON: Time 141480, Note Name: G#5, Velocity: 70
Note OFF: Time 141600, Note Name: G#5
Note ON: Time 141600, Note Name: C#5, Velocity: 78
Note ON: Time 141600, Note Name: A#5, Velocity: 78
Note OFF: Time 141840, Note Name: A#5
Note OFF: Time 141840, Note Name: C#5
Note ON: Time 142080, Note Name: C#5, Velocity: 80
Note ON: Time 142080, Note Name: A#4, Velocity: 73
Note OFF: Time 142800, Note Name: A#4
Note OFF: Time 142800, Note Name: C#5
Note ON: Time 142800, Note Name: C#5, Velocity: 75
Note ON: Time 142800, Note Name: F4, Velocity: 69
Note OFF: Time 143038, Note Name: F4
Note OFF: Time 143038, Note Name: C#5
Note ON: Time 143040, Note Name: C#5, Velocity: 78
Note ON: Time 143040, Note Name: F4, Velocity: 71
Note ON: Time 143280, Note Name: C5, Velocity: 74
Note ON: Time 143280, Note Name: D#4, Velocity: 68
Note OFF: Time 143304, Note Name: F4
Note OFF: Time 143304, Note Name: C#5
Note ON: Time 143520, Note Name: C#4, Velocity: 70
Note ON: Time 143520, Note Name: A#4, Velocity: 77
Note OFF: Time 143544, Note Name: C5
Note OFF: Time 143544, Note Name: D#4
Note ON: Time 143760, Note Name: C4, Velocity: 62
Note ON: Time 143760, Note Name: G#4, Velocity: 68
Note OFF: Time 143784, Note Name: C#4
Note OFF: Time 143784, Note Name: A#4
Note OFF: Time 144000, Note Name: C4
Note OFF: Time 144000, Note Name: G#4
Note ON: Time 144000, Note Name: A#3, Velocity: 72
Note ON: Time 144000, Note Name: G4, Velocity: 79
Note ON: Time 144240, Note Name: C4, Velocity: 68
Note ON: Time 144240, Note Name: G#4, Velocity: 74
Note OFF: Time 144264, Note Name: G4
Note OFF: Time 144264, Note Name: A#3
Note OFF: Time 144480, Note Name: C4
Note OFF: Time 144480, Note Name: G#4
Note ON: Time 144480, Note Name: A4, Velocity: 62
Note OFF: Time 144600, Note Name: A4
Note ON: Time 144600, Note Name: A#4, Velocity: 57
Note OFF: Time 144720, Note Name: A#4
Note ON: Time 144720, Note Name: C5, Velocity: 61
Note OFF: Time 144840, Note Name: C5
Note ON: Time 144840, Note Name: C#5, Velocity: 62
Note OFF: Time 144960, Note Name: C#5
Note ON: Time 144960, Note Name: D#5, Velocity: 64
Note OFF: Time 145080, Note Name: D#5
Note ON: Time 145080, Note Name: F5, Velocity: 65
Note OFF: Time 145200, Note Name: F5
Note ON: Time 145200, Note Name: F#5, Velocity: 67
Note OFF: Time 145320, Note Name: F#5
Note ON: Time 145320, Note Name: F5, Velocity: 63
Note OFF: Time 145440, Note Name: F5
Note ON: Time 145440, Note Name: D#5, Velocity: 66
Note OFF: Time 145560, Note Name: D#5
Note ON: Time 145560, Note Name: C#5, Velocity: 65
Note OFF: Time 145680, Note Name: C#5
Note ON: Time 145680, Note Name: C5, Velocity: 63
Note OFF: Time 145800, Note Name: C5
Note ON: Time 145800, Note Name: A#4, Velocity: 63
Note OFF: Time 145920, Note Name: A#4
Note ON: Time 145920, Note Name: D#5, Velocity: 78
Note ON: Time 145920, Note Name: F#4, Velocity: 71
Note ON: Time 146160, Note Name: C#5, Velocity: 74
Note ON: Time 146160, Note Name: F4, Velocity: 68
Note OFF: Time 146184, Note Name: F#4
Note OFF: Time 146184, Note Name: D#5
Note ON: Time 146400, Note Name: D#4, Velocity: 70
Note ON: Time 146400, Note Name: C5, Velocity: 77
Note OFF: Time 146424, Note Name: C#5
Note OFF: Time 146424, Note Name: F4
Note ON: Time 146640, Note Name: C#4, Velocity: 62
Note ON: Time 146640, Note Name: A#4, Velocity: 68
Note OFF: Time 146664, Note Name: D#4
Note OFF: Time 146664, Note Name: C5
Note OFF: Time 146880, Note Name: C#4
Note OFF: Time 146880, Note Name: A#4
Note ON: Time 146880, Note Name: C4, Velocity: 72
Note ON: Time 146880, Note Name: A4, Velocity: 79
Note ON: Time 147120, Note Name: C#4, Velocity: 68
Note ON: Time 147120, Note Name: A#4, Velocity: 74
Note OFF: Time 147144, Note Name: A4
Note OFF: Time 147144, Note Name: C4
Note OFF: Time 147360, Note Name: C#4
Note OFF: Time 147360, Note Name: A#4
Note ON: Time 147360, Note Name: D3, Velocity: 62
Note ON: Time 147480, Note Name: D#3, Velocity: 57
Note OFF: Time 147504, Note Name: D3
Note ON: Time 147600, Note Name: F3, Velocity: 61
Note OFF: Time 147624, Note Name: D#3
Note ON: Time 147720, Note Name: G3, Velocity: 62
Note OFF: Time 147744, Note Name: F3
Note ON: Time 147840, Note Name: G#3, Velocity: 64
Note OFF: Time 147864, Note Name: G3
Note ON: Time 147960, Note Name: A#3, Velocity: 65
Note OFF: Time 147984, Note Name: G#3
Note ON: Time 148080, Note Name: B3, Velocity: 67
Note OFF: Time 148104, Note Name: A#3
Note ON: Time 148200, Note Name: A#3, Velocity: 63
Note OFF: Time 148224, Note Name: B3
Note ON: Time 148320, Note Name: G#3, Velocity: 66
Note OFF: Time 148344, Note Name: A#3
Note ON: Time 148440, Note Name: G3, Velocity: 65
Note OFF: Time 148464, Note Name: G#3
Note ON: Time 148560, Note Name: F3, Velocity: 63
Note OFF: Time 148584, Note Name: G3
Note ON: Time 148680, Note Name: D#3, Velocity: 63
Note OFF: Time 148704, Note Name: F3
Note OFF: Time 148800, Note Name: D#3
Note ON: Time 148800, Note Name: E3, Velocity: 62
Note ON: Time 148920, Note Name: F3, Velocity: 57
Note OFF: Time 148944, Note Name: E3
Note ON: Time 149040, Note Name: G3, Velocity: 61
Note OFF: Time 149064, Note Name: F3
Note ON: Time 149160, Note Name: G#3, Velocity: 62
Note OFF: Time 149184, Note Name: G3
Note ON: Time 149280, Note Name: A#3, Velocity: 64
Note OFF: Time 149304, Note Name: G#3
Note ON: Time 149400, Note Name: C4, Velocity: 65
Note OFF: Time 149424, Note Name: A#3
Note ON: Time 149520, Note Name: C#4, Velocity: 67
Note OFF: Time 149544, Note Name: C4
Note ON: Time 149640, Note Name: C4, Velocity: 63
Note OFF: Time 149664, Note Name: C#4
Note ON: Time 149760, Note Name: A#3, Velocity: 66
Note OFF: Time 149784, Note Name: C4
Note ON: Time 149880, Note Name: G#3, Velocity: 65
Note OFF: Time 149904, Note Name: A#3
Note ON: Time 150000, Note Name: G3, Velocity: 63
Note OFF: Time 150024, Note Name: G#3
Note ON: Time 150120, Note Name: F3, Velocity: 63
Note OFF: Time 150144, Note Name: G3
Note OFF: Time 150240, Note Name: F3
Note ON: Time 150240, Note Name: D#5, Velocity: 78
Note ON: Time 150240, Note Name: B4, Velocity: 71
Note ON: Time 150480, Note Name: C#5, Velocity: 74
Note ON: Time 150480, Note Name: A#4, Velocity: 68
Note OFF: Time 150504, Note Name: B4
Note OFF: Time 150504, Note Name: D#5
Note ON: Time 150720, Note Name: G#4, Velocity: 70
Note ON: Time 150720, Note Name: B4, Velocity: 77
Note OFF: Time 150744, Note Name: C#5
Note OFF: Time 150744, Note Name: A#4
Note ON: Time 150960, Note Name: F#4, Velocity: 62
Note ON: Time 150960, Note Name: A#4, Velocity: 68
Note OFF: Time 150984, Note Name: G#4
Note OFF: Time 150984, Note Name: B4
Note OFF: Time 151200, Note Name: F#4
Note OFF: Time 151200, Note Name: A#4
Note ON: Time 151200, Note Name: F4, Velocity: 72
Note ON: Time 151200, Note Name: G#4, Velocity: 79
Note ON: Time 151440, Note Name: F#4, Velocity: 68
Note ON: Time 151440, Note Name: A#4, Velocity: 74
Note OFF: Time 151464, Note Name: G#4
Note OFF: Time 151464, Note Name: F4
Note OFF: Time 151680, Note Name: F#4
Note OFF: Time 151680, Note Name: A#4
Note ON: Time 151680, Note Name: C#6, Velocity: 78
Note ON: Time 151680, Note Name: E5, Velocity: 71
Note ON: Time 151920, Note Name: B5, Velocity: 74
Note ON: Time 151920, Note Name: D#5, Velocity: 68
Note OFF: Time 151944, Note Name: E5
Note OFF: Time 151944, Note Name: C#6
Note ON: Time 152160, Note Name: C#5, Velocity: 70
Note ON: Time 152160, Note Name: A#5, Velocity: 77
Note OFF: Time 152184, Note Name: B5
Note OFF: Time 152184, Note Name: D#5
Note ON: Time 152400, Note Name: B4, Velocity: 62
Note ON: Time 152400, Note Name: G#5, Velocity: 68
Note OFF: Time 152424, Note Name: C#5
Note OFF: Time 152424, Note Name: A#5
Note OFF: Time 152640, Note Name: B4
Note OFF: Time 152640, Note Name: G#5
Note ON: Time 152640, Note Name: A#4, Velocity: 72
Note ON: Time 152640, Note Name: G5, Velocity: 79
Note ON: Time 152880, Note Name: B4, Velocity: 68
Note ON: Time 152880, Note Name: G#5, Velocity: 74
Note OFF: Time 152904, Note Name: G5
Note OFF: Time 152904, Note Name: A#4
Note OFF: Time 153360, Note Name: B4
Note OFF: Time 153360, Note Name: G#5
Note ON: Time 153360, Note Name: G#5, Velocity: 78
Note ON: Time 153360, Note Name: B5, Velocity: 85
Note OFF: Time 153840, Note Name: B5
Note OFF: Time 153840, Note Name: G#5
Note ON: Time 153840, Note Name: G5, Velocity: 82
Note ON: Time 153840, Note Name: A#5, Velocity: 90
Note OFF: Time 154080, Note Name: A#5
Note OFF: Time 154080, Note Name: G5
Note ON: Time 154080, Note Name: C#5, Velocity: 66
Note ON: Time 154080, Note Name: E5, Velocity: 78
Note OFF: Time 154800, Note Name: E5
Note OFF: Time 154800, Note Name: C#5
Note ON: Time 154800, Note Name: C#5, Velocity: 64
Note ON: Time 154800, Note Name: E5, Velocity: 76
Note OFF: Time 155280, Note Name: E5
Note OFF: Time 155280, Note Name: C#5
Note ON: Time 155280, Note Name: B4, Velocity: 52
Note ON: Time 155280, Note Name: D#5, Velocity: 62
Note OFF: Time 155520, Note Name: D#5
Note OFF: Time 155520, Note Name: B4
Note ON: Time 155520, Note Name: A#4, Velocity: 57
Note ON: Time 155520, Note Name: C#5, Velocity: 68
Note OFF: Time 155760, Note Name: C#5
Note OFF: Time 155760, Note Name: A#4
Note ON: Time 155760, Note Name: G#4, Velocity: 56
Note ON: Time 155760, Note Name: B4, Velocity: 66
Note OFF: Time 156000, Note Name: B4
Note OFF: Time 156000, Note Name: G#4
Note ON: Time 156000, Note Name: G4, Velocity: 59
Note ON: Time 156000, Note Name: A#4, Velocity: 70
Note OFF: Time 156240, Note Name: A#4
Note OFF: Time 156240, Note Name: G4
Note ON: Time 156240, Note Name: G#4, Velocity: 56
Note ON: Time 156240, Note Name: B4, Velocity: 66
Note OFF: Time 156480, Note Name: B4
Note OFF: Time 156480, Note Name: G#4
Note ON: Time 156480, Note Name: A#4, Velocity: 57
Note ON: Time 156480, Note Name: C#5, Velocity: 68
Note OFF: Time 156720, Note Name: C#5
Note OFF: Time 156720, Note Name: A#4
Note ON: Time 156720, Note Name: B4, Velocity: 60
Note ON: Time 156720, Note Name: D#5, Velocity: 71
Note OFF: Time 157198, Note Name: D#5
Note OFF: Time 157198, Note Name: B4
Note ON: Time 157200, Note Name: B4, Velocity: 59
Note ON: Time 157200, Note Name: D#5, Velocity: 70
Note OFF: Time 157438, Note Name: D#5
Note OFF: Time 157438, Note Name: B4
Note ON: Time 157440, Note Name: D#5, Velocity: 85
Note ON: Time 157440, Note Name: B4, Velocity: 72
Note OFF: Time 158160, Note Name: B4
Note OFF: Time 158160, Note Name: D#5
Note ON: Time 158160, Note Name: C#5, Velocity: 76
Note ON: Time 158160, Note Name: A#4, Velocity: 52
Note OFF: Time 158640, Note Name: A#4
Note OFF: Time 158640, Note Name: C#5
Note ON: Time 158640, Note Name: G#4, Velocity: 56
Note ON: Time 158640, Note Name: B4, Velocity: 66
Note OFF: Time 158880, Note Name: B4
Note OFF: Time 158880, Note Name: G#4
Note ON: Time 158880, Note Name: F#4, Velocity: 47
Note ON: Time 158880, Note Name: A#4, Velocity: 56
Note OFF: Time 159120, Note Name: A#4
Note OFF: Time 159120, Note Name: F#4
Note ON: Time 159120, Note Name: G#4, Velocity: 52
Note ON: Time 159120, Note Name: F4, Velocity: 44
Note OFF: Time 159360, Note Name: F4
Note OFF: Time 159360, Note Name: G#4
Note ON: Time 159360, Note Name: A#4, Velocity: 54
Note ON: Time 159360, Note Name: F#4, Velocity: 45
Note OFF: Time 159600, Note Name: F#4
Note OFF: Time 159600, Note Name: A#4
Note ON: Time 159600, Note Name: G#4, Velocity: 48
Note ON: Time 159600, Note Name: B4, Velocity: 56
Note OFF: Time 159840, Note Name: B4
Note OFF: Time 159840, Note Name: G#4
Note ON: Time 159840, Note Name: F#4, Velocity: 56
Note ON: Time 159840, Note Name: C#5, Velocity: 56
Note OFF: Time 160080, Note Name: C#5
Note OFF: Time 160080, Note Name: F#4
Note ON: Time 160080, Note Name: F#4, Velocity: 51
Note ON: Time 160080, Note Name: D#5, Velocity: 60
Note OFF: Time 160320, Note Name: F#4
Note ON: Time 160320, Note Name: F4, Velocity: 54
Note OFF: Time 160560, Note Name: F4
Note OFF: Time 160560, Note Name: D#5
Note ON: Time 160560, Note Name: F#4, Velocity: 45
Note ON: Time 160560, Note Name: C#5, Velocity: 54
Note OFF: Time 160800, Note Name: F#4
Note ON: Time 160800, Note Name: G#4, Velocity: 40
Note OFF: Time 160920, Note Name: G#4
Note ON: Time 160920, Note Name: F#4, Velocity: 53
Note OFF: Time 161040, Note Name: F#4
Note OFF: Time 161040, Note Name: C#5
Note ON: Time 161040, Note Name: F4, Velocity: 40
Note ON: Time 161040, Note Name: C#5, Velocity: 48
Note OFF: Time 161160, Note Name: F4
Note ON: Time 161160, Note Name: G#4, Velocity: 48
Note OFF: Time 161280, Note Name: G#4
Note OFF: Time 161280, Note Name: C#5
Note ON: Time 161280, Note Name: F#4, Velocity: 46
Note ON: Time 161280, Note Name: A#4, Velocity: 39
Note OFF: Time 161400, Note Name: A#4
Note ON: Time 161400, Note Name: A#3, Velocity: 46
Note OFF: Time 161520, Note Name: A#3
Note OFF: Time 161520, Note Name: F#4
Note ON: Time 161520, Note Name: C#4, Velocity: 40
Note OFF: Time 161640, Note Name: C#4
Note ON: Time 161640, Note Name: F#4, Velocity: 40
Note OFF: Time 161760, Note Name: F#4
Note ON: Time 161760, Note Name: A#4, Velocity: 52
Note OFF: Time 161880, Note Name: A#4
Note ON: Time 161880, Note Name: F#4, Velocity: 40
Note OFF: Time 162000, Note Name: F#4
Note ON: Time 162000, Note Name: F4, Velocity: 40
Note ON: Time 162000, Note Name: B4, Velocity: 54
Note OFF: Time 162120, Note Name: B4
Note OFF: Time 162120, Note Name: F4
Note ON: Time 162120, Note Name: D#4, Velocity: 40
Note OFF: Time 162240, Note Name: D#4
Note ON: Time 162240, Note Name: F4, Velocity: 41
Note ON: Time 162240, Note Name: C#5, Velocity: 57
Note OFF: Time 162480, Note Name: C#5
Note OFF: Time 162480, Note Name: F4
Note ON: Time 162480, Note Name: F#4, Velocity: 40
Note OFF: Time 162600, Note Name: F#4
Note ON: Time 162600, Note Name: G#4, Velocity: 40
Note OFF: Time 162720, Note Name: G#4
Note ON: Time 162720, Note Name: A#4, Velocity: 50
Note OFF: Time 163200, Note Name: A#4
Note ON: Time 163320, Note Name: F#5, Velocity: 58
Note OFF: Time 163440, Note Name: F#5
Note ON: Time 163440, Note Name: F5, Velocity: 54
Note OFF: Time 163560, Note Name: F5
Note ON: Time 163560, Note Name: D#5, Velocity: 58
Note OFF: Time 163680, Note Name: D#5
Note ON: Time 163680, Note Name: F5, Velocity: 65
Note OFF: Time 163920, Note Name: F5
Note ON: Time 163920, Note Name: F#5, Velocity: 62
Note OFF: Time 164040, Note Name: F#5
Note ON: Time 164040, Note Name: G#5, Velocity: 68
Note ON: Time 164160, Note Name: F5, Velocity: 67
Note OFF: Time 164280, Note Name: F5
Note ON: Time 164280, Note Name: F4, Velocity: 56
Note OFF: Time 164400, Note Name: F4
Note ON: Time 164400, Note Name: G#4, Velocity: 60
Note OFF: Time 164520, Note Name: G#4
Note ON: Time 164520, Note Name: C#5, Velocity: 64
Note OFF: Time 164640, Note Name: C#5
Note ON: Time 164640, Note Name: F5, Velocity: 70
Note OFF: Time 164760, Note Name: G#5
Note ON: Time 164760, Note Name: F6, Velocity: 72
Note OFF: Time 164880, Note Name: F6
Note OFF: Time 164880, Note Name: F5
Note ON: Time 164880, Note Name: F#5, Velocity: 75
Note ON: Time 164880, Note Name: D#6, Velocity: 75
Note OFF: Time 165000, Note Name: D#6
Note ON: Time 165000, Note Name: C#6, Velocity: 71
Note OFF: Time 165120, Note Name: C#6
Note OFF: Time 165120, Note Name: F#5
Note ON: Time 165120, Note Name: G#5, Velocity: 59
Note ON: Time 165120, Note Name: C6, Velocity: 75
Note OFF: Time 165360, Note Name: C6
Note ON: Time 165360, Note Name: C#6, Velocity: 70
Note OFF: Time 165480, Note Name: C#6
Note ON: Time 165480, Note Name: D#6, Velocity: 70
Note OFF: Time 165600, Note Name: D#6
Note OFF: Time 165600, Note Name: G#5
Note ON: Time 165600, Note Name: G#5, Velocity: 66
Note ON: Time 165600, Note Name: F5, Velocity: 57
Note OFF: Time 166080, Note Name: G#5
Note OFF: Time 166200, Note Name: F5
Note ON: Time 166200, Note Name: F5, Velocity: 66
Note OFF: Time 166320, Note Name: F5
Note ON: Time 166320, Note Name: D#5, Velocity: 65
Note OFF: Time 166440, Note Name: D#5
Note ON: Time 166440, Note Name: C#5, Velocity: 63
Note OFF: Time 166560, Note Name: C#5
Note ON: Time 166560, Note Name: C5, Velocity: 62
Note OFF: Time 166680, Note Name: C5
Note ON: Time 166680, Note Name: A#4, Velocity: 61
Note OFF: Time 166800, Note Name: A#4
Note ON: Time 166800, Note Name: G#4, Velocity: 59
Note OFF: Time 166920, Note Name: G#4
Note ON: Time 166920, Note Name: F#4, Velocity: 58
Note OFF: Time 167040, Note Name: F#4
Note ON: Time 167040, Note Name: F4, Velocity: 69
Note ON: Time 167040, Note Name: F5, Velocity: 75
Note OFF: Time 167158, Note Name: F4
Note OFF: Time 167160, Note Name: F5
Note ON: Time 167280, Note Name: F#5, Velocity: 80
Note OFF: Time 167400, Note Name: F#5
Note ON: Time 167520, Note Name: G#5, Velocity: 83
Note ON: Time 167640, Note Name: G#4, Velocity: 62
Note OFF: Time 167760, Note Name: G#4
Note ON: Time 167760, Note Name: A#4, Velocity: 62
Note OFF: Time 167880, Note Name: A#4
Note ON: Time 167880, Note Name: C5, Velocity: 62
Note OFF: Time 168000, Note Name: C5
Note ON: Time 168000, Note Name: D5, Velocity: 62
Note OFF: Time 168120, Note Name: G#5
Note ON: Time 168120, Note Name: F5, Velocity: 62
Note OFF: Time 168240, Note Name: F5
Note OFF: Time 168240, Note Name: D5
Note ON: Time 168240, Note Name: D#5, Velocity: 62
Note ON: Time 168240, Note Name: A#4, Velocity: 62
Note OFF: Time 168360, Note Name: D#5
Note ON: Time 168360, Note Name: D5, Velocity: 62
Note OFF: Time 168480, Note Name: D5
Note OFF: Time 168480, Note Name: A#4
Note ON: Time 168480, Note Name: A#4, Velocity: 56
Note ON: Time 168480, Note Name: D#5, Velocity: 62
Note OFF: Time 168600, Note Name: A#4
Note OFF: Time 168960, Note Name: D#5
Note ON: Time 168960, Note Name: F#4, Velocity: 66
Note OFF: Time 169080, Note Name: F#4
Note ON: Time 169080, Note Name: F#6, Velocity: 78
Note OFF: Time 169200, Note Name: F#6
Note ON: Time 169200, Note Name: F6, Velocity: 78
Note ON: Time 169200, Note Name: G#4, Velocity: 78
Note OFF: Time 169320, Note Name: G#4
Note OFF: Time 169320, Note Name: F6
Note ON: Time 169320, Note Name: D#6, Velocity: 76
Note OFF: Time 169440, Note Name: D#6
Note ON: Time 169440, Note Name: D6, Velocity: 74
Note ON: Time 169440, Note Name: A#4, Velocity: 74
Note OFF: Time 169560, Note Name: D6
Note ON: Time 169560, Note Name: B5, Velocity: 72
Note OFF: Time 169680, Note Name: B5
Note ON: Time 169680, Note Name: A#5, Velocity: 70
Note OFF: Time 169800, Note Name: A#5
Note ON: Time 169800, Note Name: G#5, Velocity: 68
Note OFF: Time 169920, Note Name: G#5
Note OFF: Time 169920, Note Name: A#4
Note ON: Time 169920, Note Name: A#4, Velocity: 66
Note ON: Time 169920, Note Name: F#5, Velocity: 74
Note OFF: Time 170160, Note Name: A#4
Note ON: Time 170160, Note Name: F#4, Velocity: 66
Note OFF: Time 170400, Note Name: F#5
Note OFF: Time 170520, Note Name: F#4
Note ON: Time 170520, Note Name: F#5, Velocity: 74
Note OFF: Time 170640, Note Name: F#5
Note ON: Time 170640, Note Name: F5, Velocity: 72
Note OFF: Time 170760, Note Name: F5
Note ON: Time 170760, Note Name: D#5, Velocity: 71
Note OFF: Time 170880, Note Name: D#5
Note ON: Time 170880, Note Name: D5, Velocity: 70
Note OFF: Time 171000, Note Name: D5
Note ON: Time 171000, Note Name: B4, Velocity: 68
Note OFF: Time 171120, Note Name: B4
Note ON: Time 171120, Note Name: A#4, Velocity: 67
Note OFF: Time 171240, Note Name: A#4
Note ON: Time 171240, Note Name: G#4, Velocity: 65
Note OFF: Time 171360, Note Name: G#4
Note ON: Time 171360, Note Name: F#4, Velocity: 69
Note ON: Time 171360, Note Name: F#5, Velocity: 78
Note OFF: Time 171480, Note Name: F#5
Note OFF: Time 171480, Note Name: F#4
Note ON: Time 171600, Note Name: G#5, Velocity: 83
Note OFF: Time 171720, Note Name: G#5
Note ON: Time 171840, Note Name: A#5, Velocity: 88
Note OFF: Time 172440, Note Name: A#5
Note ON: Time 172440, Note Name: G5, Velocity: 66
Note OFF: Time 172560, Note Name: G5
Note ON: Time 172560, Note Name: F5, Velocity: 65
Note OFF: Time 172680, Note Name: F5
Note ON: Time 172680, Note Name: D#5, Velocity: 65
Note OFF: Time 172800, Note Name: D#5
Note ON: Time 172800, Note Name: D#6, Velocity: 76
Note OFF: Time 172920, Note Name: D#6
Note ON: Time 172920, Note Name: B5, Velocity: 65
Note OFF: Time 173040, Note Name: B5
Note ON: Time 173040, Note Name: A#5, Velocity: 65
Note OFF: Time 173160, Note Name: A#5
Note ON: Time 173160, Note Name: G#5, Velocity: 65
Note OFF: Time 173280, Note Name: G#5
Note ON: Time 173280, Note Name: G#6, Velocity: 80
Note OFF: Time 173400, Note Name: G#6
Note ON: Time 173400, Note Name: F6, Velocity: 67
Note OFF: Time 173520, Note Name: F6
Note ON: Time 173520, Note Name: D#6, Velocity: 68
Note OFF: Time 173640, Note Name: D#6
Note ON: Time 173640, Note Name: D6, Velocity: 68
Note OFF: Time 173760, Note Name: D6
Note ON: Time 173760, Note Name: G#6, Velocity: 87
Note OFF: Time 174360, Note Name: G#6
Note ON: Time 174360, Note Name: G#5, Velocity: 70
Note OFF: Time 174480, Note Name: G#5
Note ON: Time 174480, Note Name: F#5, Velocity: 70
Note OFF: Time 174600, Note Name: F#5
Note ON: Time 174600, Note Name: F5, Velocity: 70
Note OFF: Time 174720, Note Name: F5
Note ON: Time 174720, Note Name: G#5, Velocity: 82
Note OFF: Time 174840, Note Name: G#5
Note ON: Time 174840, Note Name: F5, Velocity: 69
Note OFF: Time 174960, Note Name: F5
Note ON: Time 174960, Note Name: D#5, Velocity: 69
Note OFF: Time 175080, Note Name: D#5
Note ON: Time 175080, Note Name: D5, Velocity: 69
Note OFF: Time 175200, Note Name: D5
Note ON: Time 175200, Note Name: F5, Velocity: 81
Note OFF: Time 175320, Note Name: F5
Note ON: Time 175320, Note Name: A#4, Velocity: 70
Note OFF: Time 175440, Note Name: A#4
Note ON: Time 175440, Note Name: A4, Velocity: 70
Note OFF: Time 175560, Note Name: A4
Note ON: Time 175560, Note Name: A#4, Velocity: 70
Note OFF: Time 175680, Note Name: A#4
Note ON: Time 175680, Note Name: A#5, Velocity: 85
Note OFF: Time 175800, Note Name: A#5
Note ON: Time 175800, Note Name: F5, Velocity: 72
Note OFF: Time 175920, Note Name: F5
Note ON: Time 175920, Note Name: E5, Velocity: 72
Note OFF: Time 176040, Note Name: E5
Note ON: Time 176040, Note Name: F5, Velocity: 72
Note OFF: Time 176160, Note Name: F5
Note ON: Time 176160, Note Name: F6, Velocity: 85
Note OFF: Time 176280, Note Name: F6
Note ON: Time 176280, Note Name: A#5, Velocity: 73
Note OFF: Time 176400, Note Name: A#5
Note ON: Time 176400, Note Name: A5, Velocity: 73
Note OFF: Time 176520, Note Name: A5
Note ON: Time 176520, Note Name: A#5, Velocity: 73
Note OFF: Time 176640, Note Name: A#5
Note ON: Time 176640, Note Name: A#6, Velocity: 87
Note OFF: Time 176760, Note Name: A#6
Note ON: Time 176760, Note Name: G#6, Velocity: 76
Note OFF: Time 176880, Note Name: G#6
Note ON: Time 176880, Note Name: F#6, Velocity: 76
Note OFF: Time 177000, Note Name: F#6
Note ON: Time 177000, Note Name: F6, Velocity: 76
Note OFF: Time 177120, Note Name: F6
Note ON: Time 177120, Note Name: F#6, Velocity: 87
Note OFF: Time 177600, Note Name: F#6
Note ON: Time 178560, Note Name: D#5, Velocity: 87
Note OFF: Time 178680, Note Name: D#5
Note ON: Time 178800, Note Name: F4, Velocity: 67
Note ON: Time 178800, Note Name: C#5, Velocity: 80
Note OFF: Time 178920, Note Name: C#5
Note OFF: Time 178920, Note Name: F4
Note ON: Time 179040, Note Name: D#4, Velocity: 66
Note ON: Time 179040, Note Name: B4, Velocity: 78
Note ON: Time 179040, Note Name: D6, Velocity: 91
Note OFF: Time 179160, Note Name: D6
Note OFF: Time 179160, Note Name: B4
Note OFF: Time 179160, Note Name: D#4
Note ON: Time 179280, Note Name: C#4, Velocity: 62
Note ON: Time 179280, Note Name: A#4, Velocity: 74
Note OFF: Time 179400, Note Name: A#4
Note OFF: Time 179400, Note Name: C#4
Note ON: Time 179520, Note Name: B3, Velocity: 60
Note ON: Time 179520, Note Name: G#4, Velocity: 71
Note ON: Time 179520, Note Name: D#6, Velocity: 96
Note OFF: Time 179640, Note Name: G#4
Note OFF: Time 179640, Note Name: B3
Note ON: Time 179760, Note Name: A#3, Velocity: 57
Note ON: Time 179760, Note Name: F#4, Velocity: 68
Note OFF: Time 179880, Note Name: F#4
Note OFF: Time 179880, Note Name: A#3
Note ON: Time 180000, Note Name: D#4, Velocity: 72
Note ON: Time 180000, Note Name: B4, Velocity: 85
Note OFF: Time 180480, Note Name: D#6
Note OFF: Time 180960, Note Name: B4
Note OFF: Time 180960, Note Name: D#4
Note ON: Time 181440, Note Name: D#4, Velocity: 70
Note ON: Time 181440, Note Name: B4, Velocity: 87
Note OFF: Time 181560, Note Name: B4
Note OFF: Time 181560, Note Name: D#4
Note ON: Time 181680, Note Name: C#4, Velocity: 67
Note ON: Time 181680, Note Name: A#4, Velocity: 80
Note OFF: Time 181800, Note Name: A#4
Note OFF: Time 181800, Note Name: C#4
Note ON: Time 181920, Note Name: B3, Velocity: 66
Note ON: Time 181920, Note Name: G#4, Velocity: 78
Note ON: Time 181920, Note Name: A#5, Velocity: 91
Note OFF: Time 182040, Note Name: A#5
Note OFF: Time 182040, Note Name: G#4
Note OFF: Time 182040, Note Name: B3
Note ON: Time 182160, Note Name: A#3, Velocity: 62
Note ON: Time 182160, Note Name: F#4, Velocity: 74
Note OFF: Time 182280, Note Name: F#4
Note OFF: Time 182280, Note Name: A#3
Note ON: Time 182400, Note Name: G#3, Velocity: 60
Note ON: Time 182400, Note Name: F4, Velocity: 71
Note ON: Time 182400, Note Name: B5, Velocity: 96
Note OFF: Time 182520, Note Name: F4
Note OFF: Time 182520, Note Name: G#3
Note ON: Time 182640, Note Name: F#3, Velocity: 57
Note ON: Time 182640, Note Name: D#4, Velocity: 68
Note OFF: Time 182760, Note Name: D#4
Note OFF: Time 182760, Note Name: F#3
Note ON: Time 182880, Note Name: B3, Velocity: 72
Note ON: Time 182880, Note Name: G#4, Velocity: 85
Note OFF: Time 183360, Note Name: B5
Note OFF: Time 183840, Note Name: G#4
Note OFF: Time 183840, Note Name: B3
Note ON: Time 184320, Note Name: B3, Velocity: 70
Note ON: Time 184320, Note Name: G#4, Velocity: 87
Note OFF: Time 184440, Note Name: G#4
Note OFF: Time 184440, Note Name: B3
Note ON: Time 184560, Note Name: A#3, Velocity: 67
Note ON: Time 184560, Note Name: F#4, Velocity: 80
Note OFF: Time 184680, Note Name: F#4
Note OFF: Time 184680, Note Name: A#3
Note ON: Time 184800, Note Name: G#3, Velocity: 66
Note ON: Time 184800, Note Name: F4, Velocity: 78
Note ON: Time 184800, Note Name: A#5, Velocity: 91
Note OFF: Time 184920, Note Name: A#5
Note OFF: Time 184920, Note Name: F4
Note OFF: Time 184920, Note Name: G#3
Note ON: Time 185040, Note Name: A#3, Velocity: 62
Note ON: Time 185040, Note Name: F#4, Velocity: 74
Note OFF: Time 185160, Note Name: F#4
Note OFF: Time 185160, Note Name: A#3
Note ON: Time 185280, Note Name: G#3, Velocity: 60
Note ON: Time 185280, Note Name: F4, Velocity: 71
Note ON: Time 185280, Note Name: B5, Velocity: 96
Note OFF: Time 185400, Note Name: F4
Note OFF: Time 185400, Note Name: G#3
Note ON: Time 185520, Note Name: F#3, Velocity: 57
Note ON: Time 185520, Note Name: D#4, Velocity: 68
Note OFF: Time 185640, Note Name: D#4
Note OFF: Time 185640, Note Name: F#3
Note OFF: Time 186240, Note Name: B5
Note ON: Time 186240, Note Name: A#5, Velocity: 96
Note OFF: Time 186720, Note Name: A#5
Note ON: Time 186720, Note Name: G#5, Velocity: 96
Note OFF: Time 188160, Note Name: G#5
Note ON: Time 188160, Note Name: G#6, Velocity: 109
Note OFF: Time 188880, Note Name: G#6
Note ON: Time 189120, Note Name: F#6, Velocity: 99
Note OFF: Time 189240, Note Name: F#6
Note ON: Time 189600, Note Name: F6, Velocity: 99
Note OFF: Time 189720, Note Name: F6
Note ON: Time 190080, Note Name: D#6, Velocity: 107
Note OFF: Time 190200, Note Name: D#6
Note ON: Time 190560, Note Name: D6, Velocity: 99
Note OFF: Time 190680, Note Name: D6
Note ON: Time 191040, Note Name: F4, Velocity: 69
Note ON: Time 191040, Note Name: G#4, Velocity: 82
Note OFF: Time 191160, Note Name: G#4
Note OFF: Time 191160, Note Name: F4
Note ON: Time 191280, Note Name: D#4, Velocity: 60
Note ON: Time 191280, Note Name: F#4, Velocity: 71
Note OFF: Time 191400, Note Name: F#4
Note OFF: Time 191400, Note Name: D#4
Note ON: Time 191520, Note Name: G#3, Velocity: 68
Note ON: Time 191520, Note Name: F4, Velocity: 81
Note OFF: Time 191640, Note Name: F4
Note OFF: Time 191640, Note Name: G#3
Note ON: Time 191760, Note Name: A#3, Velocity: 60
Note ON: Time 191760, Note Name: F#4, Velocity: 71
Note OFF: Time 191880, Note Name: F#4
Note OFF: Time 191880, Note Name: A#3
Note ON: Time 192000, Note Name: G#3, Velocity: 68
Note ON: Time 192000, Note Name: F4, Velocity: 80
Note OFF: Time 192120, Note Name: F4
Note OFF: Time 192120, Note Name: G#3
Note ON: Time 192240, Note Name: F#3, Velocity: 60
Note ON: Time 192240, Note Name: D#4, Velocity: 71
Note OFF: Time 192360, Note Name: D#4
Note OFF: Time 192360, Note Name: F#3
Note ON: Time 192480, Note Name: F3, Velocity: 66
Note ON: Time 192480, Note Name: D4, Velocity: 78
Note OFF: Time 192600, Note Name: D4
Note OFF: Time 192600, Note Name: F3
Note ON: Time 192720, Note Name: F#3, Velocity: 60
Note ON: Time 192720, Note Name: D#4, Velocity: 71
Note OFF: Time 192840, Note Name: D#4
Note OFF: Time 192840, Note Name: F#3
Note ON: Time 192960, Note Name: D4, Velocity: 68
Note ON: Time 192960, Note Name: F4, Velocity: 81
Note OFF: Time 193080, Note Name: F4
Note OFF: Time 193080, Note Name: D4
Note ON: Time 193200, Note Name: D#4, Velocity: 60
Note ON: Time 193200, Note Name: F#4, Velocity: 71
Note OFF: Time 193320, Note Name: F#4
Note OFF: Time 193320, Note Name: D#4
Note ON: Time 193440, Note Name: F4, Velocity: 68
Note ON: Time 193440, Note Name: G#4, Velocity: 80
Note OFF: Time 193560, Note Name: G#4
Note OFF: Time 193560, Note Name: F4
Note ON: Time 193680, Note Name: F#4, Velocity: 71
Note ON: Time 193680, Note Name: A#4, Velocity: 60
Note OFF: Time 193800, Note Name: A#4
Note OFF: Time 193800, Note Name: F#4
Note ON: Time 193920, Note Name: D#4, Velocity: 67
Note ON: Time 193920, Note Name: C5, Velocity: 79
Note OFF: Time 194040, Note Name: C5
Note OFF: Time 194040, Note Name: D#4
Note ON: Time 194160, Note Name: F4, Velocity: 60
Note ON: Time 194160, Note Name: D5, Velocity: 71
Note OFF: Time 194280, Note Name: D5
Note OFF: Time 194280, Note Name: F4
Note ON: Time 194400, Note Name: F#4, Velocity: 67
Note ON: Time 194400, Note Name: D#5, Velocity: 79
Note OFF: Time 194520, Note Name: D#5
Note OFF: Time 194520, Note Name: F#4
Note ON: Time 194640, Note Name: G#4, Velocity: 60
Note ON: Time 194640, Note Name: F5, Velocity: 71
Note OFF: Time 194760, Note Name: F5
Note OFF: Time 194760, Note Name: G#4
Note ON: Time 194880, Note Name: A#4, Velocity: 66
Note ON: Time 194880, Note Name: F#5, Velocity: 78
Note OFF: Time 195000, Note Name: F#5
Note OFF: Time 195000, Note Name: A#4
Note ON: Time 195120, Note Name: B4, Velocity: 60
Note ON: Time 195120, Note Name: G5, Velocity: 71
Note OFF: Time 195240, Note Name: G5
Note OFF: Time 195240, Note Name: B4
Note ON: Time 195360, Note Name: F5, Velocity: 66
Note ON: Time 195360, Note Name: G#5, Velocity: 78
Note OFF: Time 195480, Note Name: G#5
Note OFF: Time 195480, Note Name: F5
Note ON: Time 195600, Note Name: A#5, Velocity: 71
Note ON: Time 195600, Note Name: F#5, Velocity: 60
Note OFF: Time 195720, Note Name: F#5
Note OFF: Time 195720, Note Name: A#5
Note ON: Time 195840, Note Name: B5, Velocity: 80
Note ON: Time 195840, Note Name: G#5, Velocity: 68
Note OFF: Time 195960, Note Name: G#5
Note OFF: Time 195960, Note Name: B5
Note ON: Time 196080, Note Name: A#5, Velocity: 71
Note ON: Time 196080, Note Name: F#5, Velocity: 60
Note OFF: Time 196200, Note Name: F#5
Note OFF: Time 196200, Note Name: A#5
Note ON: Time 196320, Note Name: B4, Velocity: 68
Note ON: Time 196320, Note Name: G#5, Velocity: 81
Note OFF: Time 196440, Note Name: G#5
Note OFF: Time 196440, Note Name: B4
Note ON: Time 196560, Note Name: A#4, Velocity: 60
Note ON: Time 196560, Note Name: F#5, Velocity: 71
Note OFF: Time 196680, Note Name: F#5
Note OFF: Time 196680, Note Name: A#4
Note ON: Time 196800, Note Name: G#4, Velocity: 68
Note ON: Time 196800, Note Name: D#5, Velocity: 80
Note OFF: Time 196920, Note Name: D#5
Note OFF: Time 196920, Note Name: G#4
Note ON: Time 197040, Note Name: F#4, Velocity: 71
Note OFF: Time 197160, Note Name: F#4
Note ON: Time 197280, Note Name: C#5, Velocity: 66
Note ON: Time 197280, Note Name: F4, Velocity: 78
Note OFF: Time 197400, Note Name: F4
Note OFF: Time 197400, Note Name: C#5
Note ON: Time 197520, Note Name: D#4, Velocity: 71
Note OFF: Time 197640, Note Name: D#4
Note ON: Time 197760, Note Name: C5, Velocity: 66
Note ON: Time 197760, Note Name: C#4, Velocity: 78
Note OFF: Time 197880, Note Name: C#4
Note OFF: Time 197880, Note Name: C5
Note ON: Time 198000, Note Name: C4, Velocity: 71
Note OFF: Time 198120, Note Name: C4
Note ON: Time 198240, Note Name: D#4, Velocity: 78
Note OFF: Time 199680, Note Name: D#4
Note ON: Time 199680, Note Name: A5, Velocity: 71
Note ON: Time 199680, Note Name: C#5, Velocity: 71
Note OFF: Time 199760, Note Name: A5
Note ON: Time 199760, Note Name: A#5, Velocity: 65
Note OFF: Time 199800, Note Name: C#5
Note OFF: Time 199840, Note Name: A#5
Note ON: Time 199840, Note Name: A5, Velocity: 71
Note OFF: Time 199920, Note Name: A5
Note ON: Time 199920, Note Name: A#5, Velocity: 66
Note ON: Time 199920, Note Name: C5, Velocity: 66
Note OFF: Time 200000, Note Name: A#5
Note ON: Time 200000, Note Name: A5, Velocity: 71
Note OFF: Time 200040, Note Name: C5
Note OFF: Time 200080, Note Name: A5
Note ON: Time 200080, Note Name: A#5, Velocity: 66
Note OFF: Time 200160, Note Name: A#5
Note ON: Time 200160, Note Name: A5, Velocity: 71
Note ON: Time 200160, Note Name: F5, Velocity: 71
Note OFF: Time 200240, Note Name: A5
Note ON: Time 200240, Note Name: A#5, Velocity: 66
Note OFF: Time 200280, Note Name: F5
Note OFF: Time 200320, Note Name: A#5
Note ON: Time 200320, Note Name: A5, Velocity: 71
Note OFF: Time 200400, Note Name: A5
Note ON: Time 200400, Note Name: A#5, Velocity: 65
Note ON: Time 200400, Note Name: D#5, Velocity: 65
Note OFF: Time 200480, Note Name: A#5
Note ON: Time 200480, Note Name: A5, Velocity: 71
Note OFF: Time 200520, Note Name: D#5
Note OFF: Time 200560, Note Name: A5
Note ON: Time 200560, Note Name: A#5, Velocity: 65
Note OFF: Time 200640, Note Name: A#5
Note ON: Time 200640, Note Name: A5, Velocity: 71
Note ON: Time 200640, Note Name: C#5, Velocity: 71
Note OFF: Time 200720, Note Name: A5
Note ON: Time 200720, Note Name: A#5, Velocity: 64
Note OFF: Time 200760, Note Name: C#5
Note OFF: Time 200800, Note Name: A#5
Note ON: Time 200800, Note Name: A5, Velocity: 71
Note OFF: Time 200880, Note Name: A5
Note ON: Time 200880, Note Name: A#5, Velocity: 67
Note ON: Time 200880, Note Name: C5, Velocity: 67
Note OFF: Time 200960, Note Name: A#5
Note ON: Time 200960, Note Name: A5, Velocity: 71
Note OFF: Time 201000, Note Name: C5
Note OFF: Time 201040, Note Name: A5
Note ON: Time 201040, Note Name: A#5, Velocity: 67
Note OFF: Time 201120, Note Name: A#5
Note ON: Time 201120, Note Name: A5, Velocity: 71
Note ON: Time 201120, Note Name: F#5, Velocity: 71
Note OFF: Time 201200, Note Name: A5
Note ON: Time 201200, Note Name: A#5, Velocity: 66
Note OFF: Time 201240, Note Name: F#5
Note OFF: Time 201280, Note Name: A#5
Note ON: Time 201280, Note Name: A5, Velocity: 71
Note OFF: Time 201360, Note Name: A5
Note ON: Time 201360, Note Name: G5, Velocity: 67
Note ON: Time 201360, Note Name: C5, Velocity: 67
Note OFF: Time 201480, Note Name: C5
Note OFF: Time 201480, Note Name: G5
Note ON: Time 201480, Note Name: A5, Velocity: 67
Note OFF: Time 201600, Note Name: A5
Note ON: Time 201600, Note Name: D#5, Velocity: 74
Note ON: Time 201600, Note Name: A#5, Velocity: 74
Note OFF: Time 201680, Note Name: D#5
Note ON: Time 201680, Note Name: F5, Velocity: 69
Note OFF: Time 201760, Note Name: F5
Note ON: Time 201760, Note Name: D#5, Velocity: 74
Note OFF: Time 201840, Note Name: D#5
Note ON: Time 201840, Note Name: F5, Velocity: 69
Note OFF: Time 201920, Note Name: F5
Note ON: Time 201920, Note Name: D#5, Velocity: 74
Note OFF: Time 202000, Note Name: D#5
Note ON: Time 202000, Note Name: F5, Velocity: 70
Note OFF: Time 202080, Note Name: F5
Note ON: Time 202080, Note Name: D#5, Velocity: 74
Note OFF: Time 202160, Note Name: D#5
Note ON: Time 202160, Note Name: F5, Velocity: 70
Note OFF: Time 202240, Note Name: F5
Note ON: Time 202240, Note Name: D#5, Velocity: 74
Note OFF: Time 202320, Note Name: D#5
Note ON: Time 202320, Note Name: F5, Velocity: 67
Note OFF: Time 202400, Note Name: F5
Note ON: Time 202400, Note Name: D#5, Velocity: 74
Note OFF: Time 202480, Note Name: D#5
Note ON: Time 202480, Note Name: F5, Velocity: 69
Note OFF: Time 202560, Note Name: F5
Note ON: Time 202560, Note Name: D#5, Velocity: 74
Note OFF: Time 202640, Note Name: D#5
Note ON: Time 202640, Note Name: F5, Velocity: 69
Note OFF: Time 202720, Note Name: F5
Note ON: Time 202720, Note Name: D#5, Velocity: 74
Note OFF: Time 202800, Note Name: D#5
Note ON: Time 202800, Note Name: C#5, Velocity: 70
Note OFF: Time 202920, Note Name: C#5
Note ON: Time 202920, Note Name: D#5, Velocity: 68
Note OFF: Time 203040, Note Name: D#5
Note OFF: Time 203040, Note Name: A#5
Note ON: Time 203040, Note Name: C#5, Velocity: 70
Note ON: Time 203040, Note Name: A#5, Velocity: 83
Note OFF: Time 203160, Note Name: A#5
Note OFF: Time 203160, Note Name: C#5
Note ON: Time 203280, Note Name: C5, Velocity: 62
Note ON: Time 203280, Note Name: G#5, Velocity: 74
Note OFF: Time 203400, Note Name: G#5
Note OFF: Time 203400, Note Name: C5
Note ON: Time 203520, Note Name: A#4, Velocity: 62
Note ON: Time 203520, Note Name: F#5, Velocity: 74
Note OFF: Time 203640, Note Name: F#5
Note OFF: Time 203640, Note Name: A#4
Note ON: Time 203760, Note Name: G#4, Velocity: 62
Note ON: Time 203760, Note Name: F5, Velocity: 74
Note OFF: Time 203880, Note Name: F5
Note OFF: Time 203880, Note Name: G#4
Note ON: Time 204000, Note Name: F#4, Velocity: 62
Note ON: Time 204000, Note Name: D#5, Velocity: 74
Note OFF: Time 204120, Note Name: D#5
Note OFF: Time 204120, Note Name: F#4
Note ON: Time 204240, Note Name: F4, Velocity: 62
Note ON: Time 204240, Note Name: C#5, Velocity: 74
Note OFF: Time 204360, Note Name: C#5
Note OFF: Time 204360, Note Name: F4
Note ON: Time 204480, Note Name: D#5, Velocity: 73
Note ON: Time 204480, Note Name: F#5, Velocity: 87
Note OFF: Time 204600, Note Name: D#5
Note ON: Time 204720, Note Name: D#4, Velocity: 71
Note OFF: Time 204840, Note Name: D#4
Note ON: Time 204960, Note Name: F4, Velocity: 74
Note OFF: Time 205080, Note Name: F4
Note ON: Time 205200, Note Name: F#4, Velocity: 77
Note OFF: Time 205320, Note Name: F#4
Note OFF: Time 205440, Note Name: F#5
Note ON: Time 205440, Note Name: G#4, Velocity: 79
Note OFF: Time 205560, Note Name: G#4
Note ON: Time 205680, Note Name: A#4, Velocity: 82
Note ON: Time 205920, Note Name: F#5, Velocity: 85
Note OFF: Time 206040, Note Name: F#5
Note OFF: Time 206040, Note Name: A#4
Note ON: Time 206160, Note Name: G#4, Velocity: 66
Note ON: Time 206160, Note Name: F5, Velocity: 78
Note OFF: Time 206280, Note Name: F5
Note OFF: Time 206280, Note Name: G#4
Note ON: Time 206400, Note Name: F#4, Velocity: 64
Note ON: Time 206400, Note Name: D#5, Velocity: 76
Note OFF: Time 206520, Note Name: D#5
Note OFF: Time 206520, Note Name: F#4
Note ON: Time 206640, Note Name: F4, Velocity: 62
Note ON: Time 206640, Note Name: C#5, Velocity: 74
Note OFF: Time 206760, Note Name: C#5
Note OFF: Time 206760, Note Name: F4
Note ON: Time 206880, Note Name: E5, Velocity: 80
Note ON: Time 206880, Note Name: G5, Velocity: 80
Note OFF: Time 207000, Note Name: G5
Note ON: Time 207000, Note Name: C#6, Velocity: 70
Note OFF: Time 207120, Note Name: C#6
Note ON: Time 207120, Note Name: A#5, Velocity: 71
Note OFF: Time 207240, Note Name: A#5
Note ON: Time 207240, Note Name: G5, Velocity: 71
Note OFF: Time 207360, Note Name: G5
Note OFF: Time 207360, Note Name: E5
Note ON: Time 207360, Note Name: E5, Velocity: 74
Note OFF: Time 207480, Note Name: E5
Note ON: Time 207480, Note Name: A#5, Velocity: 69
Note OFF: Time 207600, Note Name: A#5
Note ON: Time 207600, Note Name: G5, Velocity: 70
Note OFF: Time 207720, Note Name: G5
Note ON: Time 207720, Note Name: E5, Velocity: 70
Note OFF: Time 207840, Note Name: E5
Note ON: Time 207840, Note Name: C#5, Velocity: 76
Note OFF: Time 207960, Note Name: C#5
Note ON: Time 207960, Note Name: G5, Velocity: 69
Note OFF: Time 208080, Note Name: G5
Note ON: Time 208080, Note Name: E5, Velocity: 69
Note OFF: Time 208200, Note Name: E5
Note ON: Time 208200, Note Name: C#5, Velocity: 69
Note OFF: Time 208320, Note Name: C#5
Note ON: Time 208320, Note Name: A#4, Velocity: 66
Note ON: Time 208320, Note Name: C5, Velocity: 78
Note OFF: Time 208440, Note Name: C5
Note ON: Time 208440, Note Name: G5, Velocity: 69
Note OFF: Time 208560, Note Name: G5
Note ON: Time 208560, Note Name: E5, Velocity: 69
Note OFF: Time 208680, Note Name: E5
Note ON: Time 208680, Note Name: C5, Velocity: 69
Note OFF: Time 208800, Note Name: C5
Note ON: Time 208800, Note Name: C#5, Velocity: 77
Note OFF: Time 208920, Note Name: C#5
Note ON: Time 208920, Note Name: A#5, Velocity: 69
Note OFF: Time 209040, Note Name: A#5
Note ON: Time 209040, Note Name: G5, Velocity: 69
Note OFF: Time 209160, Note Name: G5
Note ON: Time 209160, Note Name: E5, Velocity: 69
Note OFF: Time 209280, Note Name: E5
Note ON: Time 209280, Note Name: C5, Velocity: 85
Note OFF: Time 209760, Note Name: C5
Note OFF: Time 209760, Note Name: A#4
Note ON: Time 210240, Note Name: A#5, Velocity: 87
Note OFF: Time 211200, Note Name: A#5
Note ON: Time 211200, Note Name: A#3, Velocity: 70
Note ON: Time 211200, Note Name: G4, Velocity: 71
Note OFF: Time 211280, Note Name: G4
Note ON: Time 211280, Note Name: G#4, Velocity: 66
Note OFF: Time 211360, Note Name: G#4
Note ON: Time 211360, Note Name: G4, Velocity: 63
Note OFF: Time 211440, Note Name: G4
Note ON: Time 211440, Note Name: G#4, Velocity: 60
Note OFF: Time 211520, Note Name: G#4
Note ON: Time 211520, Note Name: G4, Velocity: 63
Note OFF: Time 211600, Note Name: G4
Note ON: Time 211600, Note Name: G#4, Velocity: 59
Note OFF: Time 211680, Note Name: G#4
Note ON: Time 211680, Note Name: G4, Velocity: 63
Note OFF: Time 211760, Note Name: G4
Note ON: Time 211760, Note Name: G#4, Velocity: 60
Note OFF: Time 211840, Note Name: G#4
Note ON: Time 211840, Note Name: G4, Velocity: 63
Note OFF: Time 211920, Note Name: G4
Note ON: Time 211920, Note Name: G#4, Velocity: 59
Note OFF: Time 212000, Note Name: G#4
Note ON: Time 212000, Note Name: G4, Velocity: 63
Note OFF: Time 212080, Note Name: G4
Note ON: Time 212080, Note Name: G#4, Velocity: 59
Note OFF: Time 212160, Note Name: G#4
Note ON: Time 212160, Note Name: G4, Velocity: 63
Note OFF: Time 212240, Note Name: G4
Note ON: Time 212240, Note Name: G#4, Velocity: 60
Note OFF: Time 212320, Note Name: G#4
Note ON: Time 212320, Note Name: G4, Velocity: 63
Note OFF: Time 212400, Note Name: G4
Note ON: Time 212400, Note Name: G#4, Velocity: 59
Note OFF: Time 212480, Note Name: G#4
Note ON: Time 212480, Note Name: G4, Velocity: 63
Note OFF: Time 212560, Note Name: G4
Note ON: Time 212560, Note Name: G#4, Velocity: 59
Note OFF: Time 212640, Note Name: G#4
Note OFF: Time 212640, Note Name: A#3
Note ON: Time 212640, Note Name: C4, Velocity: 70
Note ON: Time 212640, Note Name: F4, Velocity: 70
Note OFF: Time 212880, Note Name: C4
Note ON: Time 212880, Note Name: D#5, Velocity: 70
Note OFF: Time 213120, Note Name: F4
Note OFF: Time 214080, Note Name: D#5
Note ON: Time 214080, Note Name: C4, Velocity: 60
Note OFF: Time 214160, Note Name: C4
Note ON: Time 214160, Note Name: C#4, Velocity: 56
Note OFF: Time 214240, Note Name: C#4
Note ON: Time 214240, Note Name: C4, Velocity: 60
Note OFF: Time 214320, Note Name: C4
Note ON: Time 214320, Note Name: C#4, Velocity: 56
Note OFF: Time 214400, Note Name: C#4
Note ON: Time 214400, Note Name: C4, Velocity: 60
Note OFF: Time 214480, Note Name: C4
Note ON: Time 214480, Note Name: C#4, Velocity: 56
Note OFF: Time 214560, Note Name: C#4
Note ON: Time 214560, Note Name: D#6, Velocity: 116
Note ON: Time 214560, Note Name: C4, Velocity: 60
Note OFF: Time 214640, Note Name: C4
Note ON: Time 214640, Note Name: C#4, Velocity: 56
Note OFF: Time 214720, Note Name: C#4
Note ON: Time 214720, Note Name: C4, Velocity: 60
Note OFF: Time 214800, Note Name: C4
Note ON: Time 214800, Note Name: C#4, Velocity: 56
Note OFF: Time 214880, Note Name: C#4
Note ON: Time 214880, Note Name: C4, Velocity: 60
Note OFF: Time 214960, Note Name: C4
Note ON: Time 214960, Note Name: C#4, Velocity: 56
Note OFF: Time 215040, Note Name: C#4
Note ON: Time 215040, Note Name: C4, Velocity: 60
Note OFF: Time 215120, Note Name: C4
Note ON: Time 215120, Note Name: C#4, Velocity: 56
Note OFF: Time 215200, Note Name: C#4
Note ON: Time 215200, Note Name: C4, Velocity: 60
Note OFF: Time 215280, Note Name: C4
Note ON: Time 215280, Note Name: C#4, Velocity: 56
Note OFF: Time 215360, Note Name: C#4
Note ON: Time 215360, Note Name: C4, Velocity: 60
Note OFF: Time 215440, Note Name: C4
Note ON: Time 215440, Note Name: C#4, Velocity: 56
Note OFF: Time 215520, Note Name: C#4
Note OFF: Time 215520, Note Name: D#6
Note ON: Time 215520, Note Name: D#4, Velocity: 79
Note ON: Time 215520, Note Name: C5, Velocity: 60
Note OFF: Time 215600, Note Name: C5
Note ON: Time 215600, Note Name: C#5, Velocity: 56
Note OFF: Time 215680, Note Name: C#5
Note ON: Time 215680, Note Name: C5, Velocity: 60
Note OFF: Time 215760, Note Name: C5
Note ON: Time 215760, Note Name: C#5, Velocity: 56
Note OFF: Time 215840, Note Name: C#5
Note ON: Time 215840, Note Name: C5, Velocity: 60
Note OFF: Time 215920, Note Name: C5
Note ON: Time 215920, Note Name: C#5, Velocity: 56
Note OFF: Time 216000, Note Name: C#5
Note ON: Time 216000, Note Name: C5, Velocity: 60
Note OFF: Time 216080, Note Name: C5
Note ON: Time 216080, Note Name: C#5, Velocity: 56
Note OFF: Time 216160, Note Name: C#5
Note ON: Time 216160, Note Name: C5, Velocity: 60
Note OFF: Time 216240, Note Name: C5
Note ON: Time 216240, Note Name: C#5, Velocity: 56
Note OFF: Time 216320, Note Name: C#5
Note ON: Time 216320, Note Name: C5, Velocity: 60
Note OFF: Time 216400, Note Name: C5
Note ON: Time 216400, Note Name: C#5, Velocity: 56
Note OFF: Time 216480, Note Name: C#5
Note OFF: Time 216480, Note Name: D#4
Note ON: Time 216480, Note Name: E4, Velocity: 79
Note ON: Time 216480, Note Name: C5, Velocity: 60
Note OFF: Time 216560, Note Name: C5
Note ON: Time 216560, Note Name: C#5, Velocity: 56
Note OFF: Time 216640, Note Name: C#5
Note ON: Time 216640, Note Name: C5, Velocity: 60
Note OFF: Time 216720, Note Name: C5
Note ON: Time 216720, Note Name: C#5, Velocity: 56
Note OFF: Time 216800, Note Name: C#5
Note ON: Time 216800, Note Name: C5, Velocity: 60
Note OFF: Time 216880, Note Name: C5
Note ON: Time 216880, Note Name: C#5, Velocity: 56
Note OFF: Time 216960, Note Name: C#5
Note OFF: Time 216960, Note Name: E4
Note ON: Time 216960, Note Name: A#4, Velocity: 59
Note ON: Time 216960, Note Name: F4, Velocity: 59
Note OFF: Time 217200, Note Name: F4
Note ON: Time 217200, Note Name: C#5, Velocity: 59
Note OFF: Time 217440, Note Name: A#4
Note OFF: Time 218400, Note Name: C#5
Note ON: Time 218400, Note Name: C#6, Velocity: 110
Note ON: Time 218400, Note Name: A#3, Velocity: 51
Note OFF: Time 218480, Note Name: A#3
Note ON: Time 218480, Note Name: C4, Velocity: 47
Note OFF: Time 218560, Note Name: C4
Note ON: Time 218560, Note Name: A#3, Velocity: 51
Note OFF: Time 218640, Note Name: A#3
Note ON: Time 218640, Note Name: C4, Velocity: 47
Note OFF: Time 218720, Note Name: C4
Note ON: Time 218720, Note Name: A#3, Velocity: 51
Note OFF: Time 218800, Note Name: A#3
Note ON: Time 218800, Note Name: C4, Velocity: 47
Note OFF: Time 218880, Note Name: C4
Note ON: Time 218880, Note Name: A#3, Velocity: 60
Note OFF: Time 218960, Note Name: A#3
Note ON: Time 218960, Note Name: C4, Velocity: 56
Note OFF: Time 219040, Note Name: C4
Note ON: Time 219040, Note Name: A#3, Velocity: 60
Note OFF: Time 219120, Note Name: A#3
Note ON: Time 219120, Note Name: C4, Velocity: 56
Note OFF: Time 219200, Note Name: C4
Note ON: Time 219200, Note Name: A#3, Velocity: 60
Note OFF: Time 219280, Note Name: A#3
Note ON: Time 219280, Note Name: C4, Velocity: 56
Note OFF: Time 219360, Note Name: C4
Note ON: Time 219360, Note Name: A#3, Velocity: 60
Note OFF: Time 219440, Note Name: A#3
Note ON: Time 219440, Note Name: C4, Velocity: 56
Note OFF: Time 219520, Note Name: C4
Note ON: Time 219520, Note Name: A#3, Velocity: 60
Note OFF: Time 219600, Note Name: A#3
Note ON: Time 219600, Note Name: C4, Velocity: 60
Note OFF: Time 219660, Note Name: C4
Note ON: Time 219660, Note Name: A#3, Velocity: 56
Note OFF: Time 219720, Note Name: A#3
Note ON: Time 219720, Note Name: A3, Velocity: 56
Note OFF: Time 219780, Note Name: A3
Note ON: Time 219780, Note Name: A#3, Velocity: 56
Note OFF: Time 219840, Note Name: A#3
Note OFF: Time 219840, Note Name: C#6
Note ON: Time 219840, Note Name: C#4, Velocity: 79
Note ON: Time 219840, Note Name: A#4, Velocity: 60
Note OFF: Time 219920, Note Name: A#4
Note ON: Time 219920, Note Name: C5, Velocity: 56
Note OFF: Time 220000, Note Name: C5
Note ON: Time 220000, Note Name: A#4, Velocity: 60
Note OFF: Time 220080, Note Name: A#4
Note ON: Time 220080, Note Name: C5, Velocity: 56
Note OFF: Time 220160, Note Name: C5
Note ON: Time 220160, Note Name: A#4, Velocity: 60
Note OFF: Time 220240, Note Name: A#4
Note ON: Time 220240, Note Name: C5, Velocity: 56
Note OFF: Time 220320, Note Name: C5
Note ON: Time 220320, Note Name: A#4, Velocity: 60
Note OFF: Time 220400, Note Name: A#4
Note ON: Time 220400, Note Name: C5, Velocity: 56
Note OFF: Time 220480, Note Name: C5
Note ON: Time 220480, Note Name: A#4, Velocity: 60
Note OFF: Time 220560, Note Name: A#4
Note ON: Time 220560, Note Name: C5, Velocity: 56
Note OFF: Time 220640, Note Name: C5
Note ON: Time 220640, Note Name: A#4, Velocity: 60
Note OFF: Time 220720, Note Name: A#4
Note ON: Time 220720, Note Name: C5, Velocity: 56
Note OFF: Time 220800, Note Name: C5
Note ON: Time 220800, Note Name: A#4, Velocity: 60
Note OFF: Time 220880, Note Name: A#4
Note ON: Time 220880, Note Name: C5, Velocity: 56
Note OFF: Time 220960, Note Name: C5
Note ON: Time 220960, Note Name: A#4, Velocity: 60
Note OFF: Time 221040, Note Name: A#4
Note ON: Time 221040, Note Name: C5, Velocity: 56
Note OFF: Time 221120, Note Name: C5
Note ON: Time 221120, Note Name: A#4, Velocity: 60
Note OFF: Time 221200, Note Name: A#4
Note ON: Time 221200, Note Name: C5, Velocity: 56
Note OFF: Time 221280, Note Name: C5
Note OFF: Time 221280, Note Name: C#4
Note ON: Time 221280, Note Name: G4, Velocity: 69
Note ON: Time 221280, Note Name: A#4, Velocity: 60
Note OFF: Time 221360, Note Name: A#4
Note ON: Time 221360, Note Name: C5, Velocity: 56
Note OFF: Time 221440, Note Name: C5
Note ON: Time 221440, Note Name: A#4, Velocity: 60
Note OFF: Time 221520, Note Name: A#4
Note ON: Time 221520, Note Name: C5, Velocity: 56
Note OFF: Time 221600, Note Name: C5
Note ON: Time 221600, Note Name: A#4, Velocity: 60
Note OFF: Time 221680, Note Name: A#4
Note ON: Time 221680, Note Name: C5, Velocity: 56
Note OFF: Time 221760, Note Name: C5
Note ON: Time 221760, Note Name: A#4, Velocity: 60
Note OFF: Time 221840, Note Name: A#4
Note ON: Time 221840, Note Name: C5, Velocity: 56
Note OFF: Time 221920, Note Name: C5
Note ON: Time 221920, Note Name: A#4, Velocity: 60
Note OFF: Time 222000, Note Name: A#4
Note OFF: Time 222000, Note Name: G4
Note ON: Time 222000, Note Name: F4, Velocity: 59
Note ON: Time 222000, Note Name: C5, Velocity: 56
Note OFF: Time 222080, Note Name: C5
Note ON: Time 222080, Note Name: A#4, Velocity: 60
Note OFF: Time 222160, Note Name: A#4
Note ON: Time 222160, Note Name: C5, Velocity: 56
Note OFF: Time 222240, Note Name: C5
Note OFF: Time 222240, Note Name: F4
Note ON: Time 222240, Note Name: D#4, Velocity: 59
Note ON: Time 222240, Note Name: A#4, Velocity: 60
Note OFF: Time 222320, Note Name: A#4
Note ON: Time 222320, Note Name: C5, Velocity: 56
Note OFF: Time 222400, Note Name: C5
Note ON: Time 222400, Note Name: A#4, Velocity: 60
Note OFF: Time 222480, Note Name: A#4
Note OFF: Time 222480, Note Name: D#4
Note ON: Time 222480, Note Name: C5, Velocity: 56
Note ON: Time 222480, Note Name: C#4, Velocity: 59
Note OFF: Time 222540, Note Name: C5
Note ON: Time 222540, Note Name: A#4, Velocity: 56
Note OFF: Time 222600, Note Name: A#4
Note ON: Time 222600, Note Name: A4, Velocity: 53
Note OFF: Time 222660, Note Name: A4
Note ON: Time 222660, Note Name: A#4, Velocity: 54
Note OFF: Time 222720, Note Name: A#4
Note OFF: Time 222720, Note Name: C#4
Note ON: Time 222720, Note Name: F5, Velocity: 69
Note OFF: Time 223440, Note Name: F5
Note ON: Time 223440, Note Name: D#5, Velocity: 47
Note OFF: Time 223680, Note Name: D#5
Note ON: Time 223680, Note Name: C#5, Velocity: 51
Note OFF: Time 223920, Note Name: C#5
Note ON: Time 223920, Note Name: C5, Velocity: 48
Note OFF: Time 224160, Note Name: C5
Note ON: Time 224160, Note Name: G4, Velocity: 51
Note ON: Time 224160, Note Name: B4, Velocity: 51
Note OFF: Time 224400, Note Name: B4
Note OFF: Time 224400, Note Name: G4
Note ON: Time 224400, Note Name: G#4, Velocity: 46
Note ON: Time 224400, Note Name: C5, Velocity: 46
Note OFF: Time 224640, Note Name: C5
Note OFF: Time 224640, Note Name: G#4
Note ON: Time 224640, Note Name: A4, Velocity: 51
Note ON: Time 224640, Note Name: D#5, Velocity: 51
Note OFF: Time 224880, Note Name: D#5
Note OFF: Time 224880, Note Name: A4
Note ON: Time 224880, Note Name: A#4, Velocity: 48
Note ON: Time 224880, Note Name: C#5, Velocity: 48
Note OFF: Time 225120, Note Name: C#5
Note OFF: Time 225120, Note Name: A#4
Note ON: Time 225120, Note Name: D#4, Velocity: 51
Note ON: Time 225120, Note Name: C5, Velocity: 51
Note OFF: Time 225360, Note Name: C5
Note OFF: Time 225360, Note Name: D#4
Note ON: Time 225360, Note Name: C#4, Velocity: 49
Note ON: Time 225360, Note Name: A#4, Velocity: 49
Note OFF: Time 225600, Note Name: A#4
Note ON: Time 225600, Note Name: A4, Velocity: 51
Note OFF: Time 225840, Note Name: A4
Note OFF: Time 225840, Note Name: C#4
Note ON: Time 225840, Note Name: C#4, Velocity: 45
Note ON: Time 225840, Note Name: A#4, Velocity: 45
Note OFF: Time 226080, Note Name: A#4
Note ON: Time 226080, Note Name: D#4, Velocity: 51
Note OFF: Time 226320, Note Name: C#4
Note ON: Time 226320, Note Name: C4, Velocity: 45
Note OFF: Time 226555, Note Name: C4
Note OFF: Time 226560, Note Name: D#4
Note ON: Time 226680, Note Name: G#5, Velocity: 52
Note ON: Time 226800, Note Name: G5, Velocity: 51
Note OFF: Time 226824, Note Name: G#5
Note ON: Time 226920, Note Name: F5, Velocity: 50
Note OFF: Time 226944, Note Name: G5
Note ON: Time 227040, Note Name: D#5, Velocity: 60
Note OFF: Time 227064, Note Name: F5
Note OFF: Time 227160, Note Name: D#5
Note ON: Time 227160, Note Name: A#4, Velocity: 48
Note OFF: Time 227280, Note Name: A#4
Note ON: Time 227280, Note Name: C5, Velocity: 40
Note ON: Time 227280, Note Name: G5, Velocity: 64
Note OFF: Time 227400, Note Name: G5
Note OFF: Time 227400, Note Name: C5
Note ON: Time 227400, Note Name: C#5, Velocity: 53
Note OFF: Time 227520, Note Name: C#5
Note ON: Time 227520, Note Name: C5, Velocity: 48
Note ON: Time 227520, Note Name: G#5, Velocity: 68
Note OFF: Time 227640, Note Name: C5
Note ON: Time 227640, Note Name: C4, Velocity: 48
Note OFF: Time 227760, Note Name: C4
Note OFF: Time 227760, Note Name: G#5
Note ON: Time 227760, Note Name: D#4, Velocity: 48
Note OFF: Time 227880, Note Name: D#4
Note ON: Time 227880, Note Name: G#4, Velocity: 48
Note OFF: Time 228000, Note Name: G#4
Note ON: Time 228000, Note Name: C5, Velocity: 59
Note OFF: Time 228120, Note Name: C5
Note ON: Time 228120, Note Name: C6, Velocity: 52
Note OFF: Time 228240, Note Name: C6
Note ON: Time 228240, Note Name: A#5, Velocity: 51
Note ON: Time 228240, Note Name: C#5, Velocity: 62
Note OFF: Time 228360, Note Name: C#5
Note OFF: Time 228360, Note Name: A#5
Note ON: Time 228360, Note Name: G#5, Velocity: 50
Note OFF: Time 228480, Note Name: G#5
Note ON: Time 228480, Note Name: G5, Velocity: 50
Note ON: Time 228480, Note Name: D#5, Velocity: 65
Note OFF: Time 228960, Note Name: G5
Note ON: Time 228960, Note Name: G#5, Velocity: 51
Note OFF: Time 229080, Note Name: G#5
Note ON: Time 229080, Note Name: C5, Velocity: 50
Note OFF: Time 229200, Note Name: C5
Note OFF: Time 229200, Note Name: D#5
Note ON: Time 229200, Note Name: D#5, Velocity: 48
Note OFF: Time 229320, Note Name: D#5
Note ON: Time 229320, Note Name: G#5, Velocity: 57
Note OFF: Time 229440, Note Name: G#5
Note ON: Time 229440, Note Name: C6, Velocity: 74
Note OFF: Time 229560, Note Name: C6
Note ON: Time 229680, Note Name: C#6, Velocity: 77
Note OFF: Time 229800, Note Name: C#6
Note ON: Time 229920, Note Name: D#6, Velocity: 80
Note OFF: Time 230400, Note Name: D#6
Note ON: Time 230400, Note Name: C4, Velocity: 63
Note OFF: Time 230520, Note Name: C4
Note ON: Time 230520, Note Name: C5, Velocity: 52
Note OFF: Time 230640, Note Name: C5
Note ON: Time 230640, Note Name: A#4, Velocity: 50
Note ON: Time 230640, Note Name: C#4, Velocity: 65
Note OFF: Time 230760, Note Name: C#4
Note OFF: Time 230760, Note Name: A#4
Note ON: Time 230760, Note Name: G#4, Velocity: 49
Note OFF: Time 230880, Note Name: G#4
Note ON: Time 230880, Note Name: G4, Velocity: 50
Note ON: Time 230880, Note Name: D#4, Velocity: 68
Note OFF: Time 231360, Note Name: G4
Note ON: Time 231360, Note Name: G#4, Velocity: 50
Note OFF: Time 231480, Note Name: D#4
Note ON: Time 231480, Note Name: C4, Velocity: 62
Note OFF: Time 231600, Note Name: C4
Note ON: Time 231600, Note Name: A#3, Velocity: 65
Note OFF: Time 231720, Note Name: A#3
Note ON: Time 231720, Note Name: G#3, Velocity: 68
Note OFF: Time 231840, Note Name: G#3
Note ON: Time 231840, Note Name: C4, Velocity: 71
Note OFF: Time 231960, Note Name: G#4
Note ON: Time 231960, Note Name: G#4, Velocity: 62
Note OFF: Time 232080, Note Name: G#4
Note OFF: Time 232080, Note Name: C4
Note ON: Time 232080, Note Name: C5, Velocity: 65
Note OFF: Time 232200, Note Name: C5
Note ON: Time 232200, Note Name: F5, Velocity: 67
Note OFF: Time 232320, Note Name: F5
Note ON: Time 232320, Note Name: G#5, Velocity: 72
Note OFF: Time 232440, Note Name: G#5
Note ON: Time 232440, Note Name: F5, Velocity: 65
Note OFF: Time 232560, Note Name: F5
Note ON: Time 232560, Note Name: D#5, Velocity: 65
Note ON: Time 232560, Note Name: A#5, Velocity: 75
Note OFF: Time 232680, Note Name: A#5
Note OFF: Time 232680, Note Name: D#5
Note ON: Time 232680, Note Name: C#5, Velocity: 62
Note OFF: Time 232800, Note Name: C#5
Note ON: Time 232800, Note Name: C5, Velocity: 66
Note ON: Time 232800, Note Name: C6, Velocity: 79
Note OFF: Time 233400, Note Name: C5
Note ON: Time 233400, Note Name: G#4, Velocity: 65
Note ON: Time 233520, Note Name: G4, Velocity: 63
Note OFF: Time 233544, Note Name: G#4
Note ON: Time 233640, Note Name: F4, Velocity: 61
Note OFF: Time 233664, Note Name: G4
Note OFF: Time 233760, Note Name: C6
Note ON: Time 233760, Note Name: G#4, Velocity: 71
Note OFF: Time 233784, Note Name: F4
Note ON: Time 233880, Note Name: G#5, Velocity: 65
Note OFF: Time 234000, Note Name: G#5
Note ON: Time 234000, Note Name: G5, Velocity: 69
Note OFF: Time 234120, Note Name: G5
Note ON: Time 234120, Note Name: F5, Velocity: 63
Note OFF: Time 234240, Note Name: F5
Note ON: Time 234240, Note Name: E5, Velocity: 71
Note OFF: Time 234360, Note Name: E5
Note OFF: Time 234360, Note Name: G#4
Note ON: Time 234360, Note Name: C5, Velocity: 61
Note OFF: Time 234480, Note Name: C5
Note ON: Time 234480, Note Name: A#4, Velocity: 65
Note ON: Time 234480, Note Name: F5, Velocity: 65
Note OFF: Time 234600, Note Name: F5
Note OFF: Time 234600, Note Name: A#4
Note ON: Time 234600, Note Name: G#4, Velocity: 60
Note OFF: Time 234720, Note Name: G#4
Note ON: Time 234720, Note Name: G#5, Velocity: 66
Note OFF: Time 234840, Note Name: G#5
Note ON: Time 234960, Note Name: A#5, Velocity: 68
Note OFF: Time 235080, Note Name: A#5
Note ON: Time 235200, Note Name: C6, Velocity: 69
Note ON: Time 235320, Note Name: C5, Velocity: 62
Note OFF: Time 235440, Note Name: C5
Note ON: Time 235440, Note Name: D5, Velocity: 64
Note OFF: Time 235560, Note Name: D5
Note ON: Time 235560, Note Name: E5, Velocity: 66
Note OFF: Time 235680, Note Name: E5
Note ON: Time 235680, Note Name: F5, Velocity: 68
Note OFF: Time 235800, Note Name: C6
Note ON: Time 235800, Note Name: G#5, Velocity: 62
Note OFF: Time 235920, Note Name: G#5
Note ON: Time 235920, Note Name: G5, Velocity: 65
Note OFF: Time 236040, Note Name: G5
Note ON: Time 236040, Note Name: F5, Velocity: 60
Note OFF: Time 236160, Note Name: F5
Note OFF: Time 236160, Note Name: F5
Note ON: Time 236160, Note Name: A5, Velocity: 66
Note OFF: Time 236280, Note Name: A5
Note ON: Time 236400, Note Name: A#5, Velocity: 69
Note OFF: Time 236520, Note Name: A#5
Note ON: Time 236640, Note Name: C6, Velocity: 72
Note ON: Time 236760, Note Name: C5, Velocity: 58
Note OFF: Time 236880, Note Name: C5
Note ON: Time 236880, Note Name: D5, Velocity: 61
Note OFF: Time 237000, Note Name: D5
Note ON: Time 237000, Note Name: E5, Velocity: 64
Note OFF: Time 237120, Note Name: E5
Note ON: Time 237120, Note Name: F5, Velocity: 68
Note OFF: Time 237240, Note Name: C6
Note ON: Time 237240, Note Name: A5, Velocity: 63
Note OFF: Time 237360, Note Name: A5
Note ON: Time 237360, Note Name: G5, Velocity: 65
Note OFF: Time 237478, Note Name: F5
Note OFF: Time 237480, Note Name: G5
Note ON: Time 237480, Note Name: F5, Velocity: 62
Note OFF: Time 237600, Note Name: F5
Note ON: Time 237600, Note Name: A#5, Velocity: 68
Note OFF: Time 237720, Note Name: A#5
Note ON: Time 237840, Note Name: C6, Velocity: 71
Note OFF: Time 237960, Note Name: C6
Note ON: Time 238080, Note Name: C#6, Velocity: 74
Note ON: Time 238200, Note Name: F5, Velocity: 59
Note OFF: Time 238320, Note Name: F5
Note ON: Time 238320, Note Name: G5, Velocity: 61
Note OFF: Time 238440, Note Name: G5
Note ON: Time 238440, Note Name: A5, Velocity: 63
Note OFF: Time 238560, Note Name: A5
Note ON: Time 238560, Note Name: A#5, Velocity: 65
Note OFF: Time 238670, Note Name: A#5
Note OFF: Time 238680, Note Name: C#6
Note ON: Time 238680, Note Name: A#5, Velocity: 58
Note ON: Time 238800, Note Name: F#5, Velocity: 58
Note OFF: Time 238920, Note Name: F#5
Note ON: Time 238920, Note Name: F5, Velocity: 56
Note OFF: Time 239040, Note Name: F5
Note OFF: Time 239040, Note Name: A#5
Note ON: Time 239040, Note Name: A5, Velocity: 63
Note ON: Time 239040, Note Name: D#5, Velocity: 63
Note OFF: Time 239160, Note Name: D#5
Note ON: Time 239280, Note Name: F5, Velocity: 65
Note OFF: Time 239400, Note Name: F5
Note OFF: Time 239520, Note Name: A5
Note ON: Time 239520, Note Name: F#5, Velocity: 70
Note ON: Time 239640, Note Name: A5, Velocity: 60
Note OFF: Time 239760, Note Name: A5
Note ON: Time 239760, Note Name: C6, Velocity: 62
Note OFF: Time 239880, Note Name: C6
Note ON: Time 239880, Note Name: C#6, Velocity: 65
Note OFF: Time 240000, Note Name: C#6
Note ON: Time 240000, Note Name: D#6, Velocity: 67
Note OFF: Time 240120, Note Name: F#5
Note ON: Time 240120, Note Name: D#5, Velocity: 60
Note OFF: Time 240240, Note Name: D#5
Note ON: Time 240240, Note Name: C#5, Velocity: 63
Note OFF: Time 240360, Note Name: C#5
Note ON: Time 240360, Note Name: C5, Velocity: 55
Note OFF: Time 240480, Note Name: C5
Note OFF: Time 240480, Note Name: D#6
Note ON: Time 240480, Note Name: F5, Velocity: 65
Note ON: Time 240600, Note Name: A#5, Velocity: 69
Note OFF: Time 240624, Note Name: F5
Note ON: Time 240720, Note Name: A5, Velocity: 65
Note OFF: Time 240744, Note Name: A#5
Note ON: Time 240840, Note Name: G5, Velocity: 64
Note OFF: Time 240864, Note Name: A5
Note ON: Time 240960, Note Name: F5, Velocity: 60
Note OFF: Time 240984, Note Name: G5
Note OFF: Time 241080, Note Name: F5
Note ON: Time 241080, Note Name: D#5, Velocity: 60
Note OFF: Time 241200, Note Name: D#5
Note ON: Time 241200, Note Name: D5, Velocity: 60
Note OFF: Time 241320, Note Name: D5
Note ON: Time 241320, Note Name: C5, Velocity: 60
Note OFF: Time 241440, Note Name: C5
Note ON: Time 241440, Note Name: A#4, Velocity: 67
Note ON: Time 241440, Note Name: D5, Velocity: 67
Note OFF: Time 241560, Note Name: D5
Note ON: Time 241560, Note Name: F5, Velocity: 60
Note OFF: Time 241680, Note Name: F5
Note ON: Time 241680, Note Name: F#5, Velocity: 60
Note OFF: Time 241800, Note Name: F#5
Note ON: Time 241800, Note Name: G#5, Velocity: 60
Note OFF: Time 241920, Note Name: G#5
Note ON: Time 241920, Note Name: G5, Velocity: 66
Note ON: Time 242040, Note Name: A#5, Velocity: 67
Note OFF: Time 242064, Note Name: G5
Note OFF: Time 242160, Note Name: A#4
Note ON: Time 242160, Note Name: G#5, Velocity: 70
Note OFF: Time 242184, Note Name: A#5
Note ON: Time 242280, Note Name: G5, Velocity: 69
Note OFF: Time 242304, Note Name: G#5
Note ON: Time 242400, Note Name: F5, Velocity: 68
Note OFF: Time 242424, Note Name: G5
Note OFF: Time 242520, Note Name: F5
Note ON: Time 242520, Note Name: D#5, Velocity: 66
Note OFF: Time 242640, Note Name: D#5
Note ON: Time 242640, Note Name: D#4, Velocity: 65
Note ON: Time 242640, Note Name: D5, Velocity: 65
Note OFF: Time 242760, Note Name: D5
Note ON: Time 242760, Note Name: C5, Velocity: 64
Note OFF: Time 242880, Note Name: C5
Note ON: Time 242880, Note Name: A#4, Velocity: 69
Note OFF: Time 243000, Note Name: D#4
Note ON: Time 243000, Note Name: G4, Velocity: 60
Note OFF: Time 243120, Note Name: G4
Note ON: Time 243120, Note Name: G#4, Velocity: 60
Note OFF: Time 243240, Note Name: G#4
Note ON: Time 243240, Note Name: A#4, Velocity: 60
Note OFF: Time 243360, Note Name: A#4
Note OFF: Time 243360, Note Name: A#4
Note ON: Time 243360, Note Name: D#4, Velocity: 65
Note OFF: Time 243480, Note Name: D#4
Note ON: Time 243480, Note Name: D#5, Velocity: 69
Note ON: Time 243600, Note Name: C#5, Velocity: 68
Note OFF: Time 243624, Note Name: D#5
Note ON: Time 243720, Note Name: C5, Velocity: 67
Note OFF: Time 243744, Note Name: C#5
Note ON: Time 243840, Note Name: A#4, Velocity: 65
Note OFF: Time 243864, Note Name: C5
Note OFF: Time 243960, Note Name: A#4
Note ON: Time 243960, Note Name: G#4, Velocity: 64
Note OFF: Time 244080, Note Name: G#4
Note ON: Time 244080, Note Name: G4, Velocity: 60
Note OFF: Time 244200, Note Name: G4
Note ON: Time 244200, Note Name: F4, Velocity: 60
Note OFF: Time 244320, Note Name: F4
Note ON: Time 244320, Note Name: G4, Velocity: 66
Note ON: Time 244320, Note Name: D#4, Velocity: 66
Note OFF: Time 244440, Note Name: G4
Note ON: Time 244440, Note Name: A#4, Velocity: 61
Note OFF: Time 244560, Note Name: A#4
Note ON: Time 244560, Note Name: C5, Velocity: 62
Note OFF: Time 244680, Note Name: C5
Note ON: Time 244680, Note Name: C#5, Velocity: 63
Note OFF: Time 244800, Note Name: C#5
Note ON: Time 244800, Note Name: C5, Velocity: 64
Note ON: Time 244920, Note Name: C6, Velocity: 70
Note OFF: Time 244944, Note Name: C5
Note OFF: Time 245040, Note Name: D#4
Note ON: Time 245040, Note Name: A#5, Velocity: 69
Note OFF: Time 245064, Note Name: C6
Note ON: Time 245160, Note Name: G#5, Velocity: 68
Note OFF: Time 245184, Note Name: A#5
Note ON: Time 245280, Note Name: G5, Velocity: 66
Note OFF: Time 245304, Note Name: G#5
Note OFF: Time 245400, Note Name: G5
Note ON: Time 245400, Note Name: F5, Velocity: 66
Note OFF: Time 245520, Note Name: F5
Note ON: Time 245520, Note Name: D#5, Velocity: 63
Note OFF: Time 245640, Note Name: D#5
Note ON: Time 245640, Note Name: C#5, Velocity: 61
Note OFF: Time 245760, Note Name: C#5
Note ON: Time 245760, Note Name: D#4, Velocity: 72
Note ON: Time 245760, Note Name: C5, Velocity: 65
Note OFF: Time 245880, Note Name: D#4
Note ON: Time 246000, Note Name: G4, Velocity: 74
Note OFF: Time 246120, Note Name: G4
Note ON: Time 246240, Note Name: G#4, Velocity: 79
Note OFF: Time 246480, Note Name: G#4
Note OFF: Time 246480, Note Name: C5
Note ON: Time 246480, Note Name: G5, Velocity: 65
Note ON: Time 246480, Note Name: A#4, Velocity: 78
Note OFF: Time 246720, Note Name: A#4
Note OFF: Time 246720, Note Name: G5
Note ON: Time 246720, Note Name: G#5, Velocity: 65
Note ON: Time 246720, Note Name: C5, Velocity: 79
Note OFF: Time 246960, Note Name: C5
Note ON: Time 246960, Note Name: C#5, Velocity: 80
Note OFF: Time 247200, Note Name: C#5
Note ON: Time 247200, Note Name: D#5, Velocity: 82
Note OFF: Time 247440, Note Name: G#5
Note ON: Time 247440, Note Name: C6, Velocity: 87
Note OFF: Time 247680, Note Name: C6
Note OFF: Time 247680, Note Name: D#5
Note ON: Time 247680, Note Name: C#5, Velocity: 66
Note ON: Time 247680, Note Name: C#6, Velocity: 92
Note ON: Time 247800, Note Name: F5, Velocity: 73
Note OFF: Time 247824, Note Name: C#5
Note ON: Time 247920, Note Name: D#5, Velocity: 71
Note OFF: Time 247944, Note Name: F5
Note ON: Time 248040, Note Name: C#5, Velocity: 69
Note OFF: Time 248064, Note Name: D#5
Note OFF: Time 248160, Note Name: C#6
Note ON: Time 248160, Note Name: C5, Velocity: 71
Note OFF: Time 248184, Note Name: C#5
Note OFF: Time 248280, Note Name: C5
Note ON: Time 248280, Note Name: A#4, Velocity: 66
Note OFF: Time 248400, Note Name: A#4
Note ON: Time 248400, Note Name: G#4, Velocity: 66
Note OFF: Time 248520, Note Name: G#4
Note ON: Time 248520, Note Name: F#4, Velocity: 66
Note OFF: Time 248640, Note Name: F#4
Note ON: Time 248640, Note Name: F4, Velocity: 66
Note ON: Time 248640, Note Name: G#4, Velocity: 79
Note OFF: Time 248760, Note Name: G#4
Note ON: Time 248880, Note Name: C5, Velocity: 81
Note OFF: Time 249000, Note Name: C5
Note ON: Time 249120, Note Name: C#5, Velocity: 85
Note OFF: Time 249360, Note Name: F4
Note ON: Time 249360, Note Name: F#4, Velocity: 72
Note OFF: Time 249480, Note Name: F#4
Note ON: Time 249600, Note Name: G#4, Velocity: 79
Note OFF: Time 249840, Note Name: C#5
Note ON: Time 249840, Note Name: E5, Velocity: 79
Note OFF: Time 250080, Note Name: E5
Note ON: Time 250080, Note Name: F5, Velocity: 84
Note OFF: Time 250320, Note Name: F5
Note OFF: Time 250320, Note Name: G#4
Note ON: Time 250320, Note Name: A#4, Velocity: 74
Note ON: Time 250320, Note Name: F#5, Velocity: 86
Note OFF: Time 250680, Note Name: F#5
Note ON: Time 250680, Note Name: A#5, Velocity: 83
Note ON: Time 250800, Note Name: G#5, Velocity: 80
Note OFF: Time 250824, Note Name: A#5
Note ON: Time 250920, Note Name: F#5, Velocity: 77
Note OFF: Time 250944, Note Name: G#5
Note OFF: Time 251040, Note Name: A#4
Note ON: Time 251040, Note Name: F5, Velocity: 81
Note OFF: Time 251064, Note Name: F#5
Note OFF: Time 251160, Note Name: F5
Note ON: Time 251160, Note Name: D#5, Velocity: 72
Note OFF: Time 251280, Note Name: D#5
Note ON: Time 251280, Note Name: C#5, Velocity: 72
Note OFF: Time 251400, Note Name: C#5
Note ON: Time 251400, Note Name: B4, Velocity: 72
Note OFF: Time 251520, Note Name: B4
Note ON: Time 251520, Note Name: C#4, Velocity: 72
Note ON: Time 251520, Note Name: A#4, Velocity: 72
Note OFF: Time 251640, Note Name: C#4
Note ON: Time 251760, Note Name: F4, Velocity: 75
Note OFF: Time 251880, Note Name: F4
Note ON: Time 252000, Note Name: F#4, Velocity: 78
Note OFF: Time 252240, Note Name: A#4
Note ON: Time 252240, Note Name: B4, Velocity: 72
Note OFF: Time 252480, Note Name: B4
Note ON: Time 252480, Note Name: C#5, Velocity: 76
Note OFF: Time 252720, Note Name: F#4
Note ON: Time 252720, Note Name: G#4, Velocity: 66
Note OFF: Time 252960, Note Name: G#4
Note ON: Time 252960, Note Name: A#4, Velocity: 73
Note OFF: Time 253200, Note Name: A#4
Note OFF: Time 253200, Note Name: C#5
Note ON: Time 253200, Note Name: A#5, Velocity: 66
Note ON: Time 253200, Note Name: F#5, Velocity: 66
Note OFF: Time 253440, Note Name: A#5
Note ON: Time 253440, Note Name: B5, Velocity: 72
Note OFF: Time 253560, Note Name: F#5
Note ON: Time 253560, Note Name: D5, Velocity: 66
Note OFF: Time 253680, Note Name: B5
Note ON: Time 253680, Note Name: C#5, Velocity: 66
Note OFF: Time 253704, Note Name: D5
Note ON: Time 253800, Note Name: B4, Velocity: 66
Note OFF: Time 253824, Note Name: C#5
Note ON: Time 253920, Note Name: A#4, Velocity: 70
Note OFF: Time 253944, Note Name: B4
Note OFF: Time 254040, Note Name: A#4
Note ON: Time 254040, Note Name: G4, Velocity: 68
Note OFF: Time 254160, Note Name: G4
Note ON: Time 254160, Note Name: F#4, Velocity: 67
Note OFF: Time 254280, Note Name: F#4
Note ON: Time 254280, Note Name: E4, Velocity: 66
Note OFF: Time 254400, Note Name: E4
Note ON: Time 254400, Note Name: D4, Velocity: 71
Note ON: Time 254400, Note Name: F#4, Velocity: 71
Note OFF: Time 254520, Note Name: F#4
Note ON: Time 254640, Note Name: A#4, Velocity: 74
Note OFF: Time 254760, Note Name: A#4
Note ON: Time 254880, Note Name: B4, Velocity: 79
Note OFF: Time 255120, Note Name: D4
Note ON: Time 255120, Note Name: E4, Velocity: 73
Note OFF: Time 255360, Note Name: E4
Note ON: Time 255360, Note Name: F#4, Velocity: 76
Note OFF: Time 255600, Note Name: B4
Note ON: Time 255600, Note Name: C#5, Velocity: 71
Note OFF: Time 255840, Note Name: C#5
Note ON: Time 255840, Note Name: D5, Velocity: 75
Note OFF: Time 256080, Note Name: D5
Note OFF: Time 256080, Note Name: F#4
Note ON: Time 256080, Note Name: C#5, Velocity: 78
Note ON: Time 256080, Note Name: E5, Velocity: 78
Note OFF: Time 256320, Note Name: E5
Note OFF: Time 256320, Note Name: C#5
Note ON: Time 256320, Note Name: F#5, Velocity: 86
Note OFF: Time 256440, Note Name: F#5
Note ON: Time 256560, Note Name: A#5, Velocity: 90
Note OFF: Time 256680, Note Name: A#5
Note ON: Time 256800, Note Name: B5, Velocity: 90
Note OFF: Time 257520, Note Name: B5
Note ON: Time 257520, Note Name: C#6, Velocity: 90
Note OFF: Time 257640, Note Name: C#6
Note ON: Time 257760, Note Name: D6, Velocity: 94
Note OFF: Time 257880, Note Name: D6
Note ON: Time 258000, Note Name: E6, Velocity: 97
Note OFF: Time 258120, Note Name: E6
Note ON: Time 258240, Note Name: F#6, Velocity: 99
Note OFF: Time 258480, Note Name: F#6
Note ON: Time 258720, Note Name: F#5, Velocity: 71
Note OFF: Time 258960, Note Name: F#5
Note ON: Time 260160, Note Name: F#5, Velocity: 57
Note OFF: Time 260640, Note Name: F#5
Note ON: Time 260640, Note Name: E5, Velocity: 56
Note OFF: Time 261600, Note Name: E5
Note ON: Time 261600, Note Name: C#5, Velocity: 50
Note OFF: Time 262080, Note Name: C#5
Note ON: Time 262080, Note Name: D5, Velocity: 56
Note OFF: Time 263040, Note Name: D5
Note ON: Time 263040, Note Name: C#5, Velocity: 50
Note OFF: Time 264000, Note Name: C#5
Note ON: Time 264000, Note Name: B4, Velocity: 50
Note OFF: Time 264480, Note Name: B4
Note ON: Time 264480, Note Name: B4, Velocity: 50
Note OFF: Time 264960, Note Name: B4
Note ON: Time 264960, Note Name: B4, Velocity: 56
Note OFF: Time 265440, Note Name: B4
Note ON: Time 265440, Note Name: F#4, Velocity: 50
Note OFF: Time 265920, Note Name: F#4
Note ON: Time 265920, Note Name: D5, Velocity: 56
Note OFF: Time 266400, Note Name: D5
Note ON: Time 266400, Note Name: C#5, Velocity: 56
Note OFF: Time 266880, Note Name: C#5
Note ON: Time 266880, Note Name: F#4, Velocity: 56
Note OFF: Time 267120, Note Name: F#4
Note ON: Time 267360, Note Name: A#5, Velocity: 46
Note OFF: Time 267440, Note Name: A#5
Note ON: Time 267440, Note Name: B5, Velocity: 37
Note OFF: Time 267520, Note Name: B5
Note ON: Time 267520, Note Name: A#5, Velocity: 45
Note OFF: Time 267600, Note Name: A#5
Note ON: Time 267600, Note Name: B5, Velocity: 40
Note OFF: Time 267680, Note Name: B5
Note ON: Time 267680, Note Name: A#5, Velocity: 45
Note OFF: Time 267760, Note Name: A#5
Note ON: Time 267760, Note Name: B5, Velocity: 45
Note OFF: Time 267840, Note Name: B5
Note ON: Time 267840, Note Name: A#5, Velocity: 46
Note OFF: Time 267920, Note Name: A#5
Note ON: Time 267920, Note Name: B5, Velocity: 46
Note OFF: Time 268000, Note Name: B5
Note ON: Time 268000, Note Name: A#5, Velocity: 40
Note OFF: Time 268080, Note Name: A#5
Note ON: Time 268080, Note Name: B5, Velocity: 46
Note OFF: Time 268140, Note Name: B5
Note ON: Time 268140, Note Name: A#5, Velocity: 41
Note OFF: Time 268200, Note Name: A#5
Note ON: Time 268200, Note Name: G#5, Velocity: 41
Note OFF: Time 268260, Note Name: G#5
Note ON: Time 268260, Note Name: A#5, Velocity: 42
Note OFF: Time 268320, Note Name: A#5
Note ON: Time 268320, Note Name: B5, Velocity: 54
Note OFF: Time 268800, Note Name: B5
Note ON: Time 269040, Note Name: B5, Velocity: 46
Note OFF: Time 269160, Note Name: B5
Note ON: Time 269160, Note Name: A5, Velocity: 40
Note OFF: Time 269280, Note Name: A5
Note ON: Time 269280, Note Name: G5, Velocity: 47
Note OFF: Time 269400, Note Name: G5
Note ON: Time 269400, Note Name: F#5, Velocity: 40
Note OFF: Time 269520, Note Name: F#5
Note ON: Time 269520, Note Name: E5, Velocity: 43
Note OFF: Time 269640, Note Name: E5
Note ON: Time 269640, Note Name: F#5, Velocity: 40
Note OFF: Time 269760, Note Name: F#5
Note ON: Time 269760, Note Name: G5, Velocity: 45
Note OFF: Time 269880, Note Name: G5
Note ON: Time 269880, Note Name: A5, Velocity: 40
Note OFF: Time 270000, Note Name: A5
Note ON: Time 270000, Note Name: G5, Velocity: 44
Note OFF: Time 270120, Note Name: G5
Note ON: Time 270120, Note Name: F#5, Velocity: 40
Note OFF: Time 270240, Note Name: F#5
Note ON: Time 270240, Note Name: E5, Velocity: 42
Note OFF: Time 270360, Note Name: E5
Note ON: Time 270360, Note Name: D5, Velocity: 40
Note OFF: Time 270480, Note Name: D5
Note ON: Time 270480, Note Name: C#5, Velocity: 37
Note OFF: Time 270600, Note Name: C#5
Note ON: Time 270600, Note Name: D5, Velocity: 40
Note OFF: Time 270720, Note Name: D5
Note ON: Time 270720, Note Name: E5, Velocity: 44
Note OFF: Time 270840, Note Name: E5
Note ON: Time 270840, Note Name: D5, Velocity: 40
Note OFF: Time 270960, Note Name: D5
Note ON: Time 270960, Note Name: C#5, Velocity: 40
Note OFF: Time 271080, Note Name: C#5
Note ON: Time 271080, Note Name: B4, Velocity: 40
Note OFF: Time 271200, Note Name: B4
Note ON: Time 271200, Note Name: A4, Velocity: 44
Note OFF: Time 271320, Note Name: A4
Note ON: Time 271320, Note Name: G#4, Velocity: 36
Note OFF: Time 271440, Note Name: G#4
Note ON: Time 271440, Note Name: A4, Velocity: 40
Note OFF: Time 271560, Note Name: A4
Note ON: Time 271560, Note Name: G4, Velocity: 38
Note OFF: Time 271680, Note Name: G4
Note ON: Time 271680, Note Name: F#4, Velocity: 38
Note OFF: Time 271800, Note Name: F#4
Note ON: Time 271800, Note Name: A4, Velocity: 39
Note OFF: Time 271918, Note Name: A4
Note ON: Time 271920, Note Name: B4, Velocity: 40
Note OFF: Time 272040, Note Name: B4
Note ON: Time 272040, Note Name: C#5, Velocity: 41
Note OFF: Time 272160, Note Name: C#5
Note ON: Time 272160, Note Name: D5, Velocity: 41
Note OFF: Time 272280, Note Name: D5
Note ON: Time 272280, Note Name: E5, Velocity: 44
Note OFF: Time 272400, Note Name: E5
Note ON: Time 272400, Note Name: F#5, Velocity: 46
Note OFF: Time 272520, Note Name: F#5
Note ON: Time 272520, Note Name: G5, Velocity: 48
Note OFF: Time 272640, Note Name: G5
Note ON: Time 272640, Note Name: A5, Velocity: 50
Note OFF: Time 272760, Note Name: A5
Note ON: Time 272760, Note Name: B5, Velocity: 47
Note OFF: Time 272880, Note Name: B5
Note ON: Time 272880, Note Name: A5, Velocity: 49
Note OFF: Time 273000, Note Name: A5
Note ON: Time 273000, Note Name: G#5, Velocity: 49
Note OFF: Time 273120, Note Name: G#5
Note ON: Time 273120, Note Name: G5, Velocity: 48
Note OFF: Time 273240, Note Name: G5
Note ON: Time 273240, Note Name: F#5, Velocity: 42
Note OFF: Time 273360, Note Name: F#5
Note ON: Time 273360, Note Name: E5, Velocity: 42
Note OFF: Time 273480, Note Name: E5
Note ON: Time 273480, Note Name: D#5, Velocity: 44
Note OFF: Time 273600, Note Name: D#5
Note ON: Time 273600, Note Name: E5, Velocity: 50
Note OFF: Time 273720, Note Name: E5
Note ON: Time 273720, Note Name: F#5, Velocity: 40
Note OFF: Time 273840, Note Name: F#5
Note ON: Time 273840, Note Name: E5, Velocity: 40
Note OFF: Time 273960, Note Name: E5
Note ON: Time 273960, Note Name: D#5, Velocity: 40
Note OFF: Time 274080, Note Name: D#5
Note ON: Time 274080, Note Name: D5, Velocity: 47
Note OFF: Time 274200, Note Name: D5
Note ON: Time 274200, Note Name: C#5, Velocity: 40
Note OFF: Time 274320, Note Name: C#5
Note ON: Time 274320, Note Name: B4, Velocity: 40
Note OFF: Time 274440, Note Name: B4
Note ON: Time 274440, Note Name: A4, Velocity: 40
Note OFF: Time 274560, Note Name: A4
Note ON: Time 274560, Note Name: B4, Velocity: 44
Note OFF: Time 274680, Note Name: B4
Note ON: Time 274680, Note Name: C#5, Velocity: 37
Note OFF: Time 274800, Note Name: C#5
Note ON: Time 274800, Note Name: D5, Velocity: 40
Note OFF: Time 274920, Note Name: D5
Note ON: Time 274920, Note Name: C#5, Velocity: 36
Note OFF: Time 275040, Note Name: C#5
Note ON: Time 275040, Note Name: D5, Velocity: 41
Note OFF: Time 275160, Note Name: D5
Note ON: Time 275160, Note Name: E5, Velocity: 42
Note OFF: Time 275280, Note Name: E5
Note ON: Time 275280, Note Name: F#5, Velocity: 44
Note OFF: Time 275400, Note Name: F#5
Note ON: Time 275400, Note Name: E5, Velocity: 45
Note OFF: Time 275520, Note Name: E5
Note ON: Time 275520, Note Name: F#5, Velocity: 51
Note OFF: Time 275640, Note Name: F#5
Note ON: Time 275640, Note Name: G5, Velocity: 46
Note OFF: Time 275760, Note Name: G5
Note ON: Time 276000, Note Name: G5, Velocity: 44
Note OFF: Time 276480, Note Name: G5
Note ON: Time 276480, Note Name: D5, Velocity: 46
Note OFF: Time 276600, Note Name: D5
Note ON: Time 276600, Note Name: E5, Velocity: 47
Note OFF: Time 276720, Note Name: E5
Note ON: Time 276720, Note Name: F#5, Velocity: 48
Note OFF: Time 276840, Note Name: F#5
Note ON: Time 276840, Note Name: G5, Velocity: 49
Note OFF: Time 276960, Note Name: G5
Note ON: Time 276960, Note Name: A5, Velocity: 55
Note OFF: Time 277080, Note Name: A5
Note ON: Time 277080, Note Name: B5, Velocity: 50
Note OFF: Time 277200, Note Name: B5
Note ON: Time 277440, Note Name: B5, Velocity: 55
Note OFF: Time 277920, Note Name: B5
Note ON: Time 277920, Note Name: F#5, Velocity: 59
Note OFF: Time 278040, Note Name: F#5
Note ON: Time 278040, Note Name: G5, Velocity: 60
Note OFF: Time 278160, Note Name: G5
Note ON: Time 278160, Note Name: A5, Velocity: 61
Note OFF: Time 278280, Note Name: A5
Note ON: Time 278280, Note Name: B5, Velocity: 62
Note OFF: Time 278400, Note Name: B5
Note ON: Time 278400, Note Name: C#6, Velocity: 63
Note OFF: Time 278520, Note Name: C#6
Note ON: Time 278520, Note Name: D6, Velocity: 59
Note OFF: Time 278640, Note Name: D6
Note ON: Time 278880, Note Name: D6, Velocity: 67
Note OFF: Time 279360, Note Name: D6
Note ON: Time 279360, Note Name: C#6, Velocity: 61
Note OFF: Time 279440, Note Name: C#6
Note ON: Time 279440, Note Name: D6, Velocity: 51
Note OFF: Time 279520, Note Name: D6
Note ON: Time 279520, Note Name: C#6, Velocity: 63
Note OFF: Time 279600, Note Name: C#6
Note ON: Time 279600, Note Name: D6, Velocity: 52
Note OFF: Time 279680, Note Name: D6
Note ON: Time 279680, Note Name: C#6, Velocity: 65
Note OFF: Time 279760, Note Name: C#6
Note ON: Time 279760, Note Name: D6, Velocity: 54
Note OFF: Time 279840, Note Name: D6
Note ON: Time 279840, Note Name: C#6, Velocity: 68
Note OFF: Time 279920, Note Name: C#6
Note ON: Time 279920, Note Name: D6, Velocity: 56
Note OFF: Time 280000, Note Name: D6
Note ON: Time 280000, Note Name: C#6, Velocity: 68
Note OFF: Time 280080, Note Name: C#6
Note ON: Time 280080, Note Name: D6, Velocity: 53
Note OFF: Time 280160, Note Name: D6
Note ON: Time 280160, Note Name: C#6, Velocity: 63
Note OFF: Time 280240, Note Name: C#6
Note ON: Time 280240, Note Name: D6, Velocity: 51
Note OFF: Time 280320, Note Name: D6
Note ON: Time 280320, Note Name: A#4, Velocity: 48
Note OFF: Time 280560, Note Name: A#4
Note ON: Time 280800, Note Name: A#4, Velocity: 48
Note ON: Time 280800, Note Name: F#5, Velocity: 60
Note OFF: Time 280880, Note Name: A#4
Note ON: Time 280880, Note Name: B4, Velocity: 43
Note OFF: Time 280960, Note Name: B4
Note ON: Time 280960, Note Name: A#4, Velocity: 48
Note OFF: Time 281040, Note Name: A#4
Note ON: Time 281040, Note Name: B4, Velocity: 44
Note OFF: Time 281120, Note Name: B4
Note ON: Time 281120, Note Name: A#4, Velocity: 48
Note OFF: Time 281200, Note Name: A#4
Note ON: Time 281200, Note Name: B4, Velocity: 44
Note OFF: Time 281280, Note Name: B4
Note OFF: Time 281280, Note Name: F#5
Note ON: Time 281280, Note Name: A#4, Velocity: 48
Note ON: Time 281280, Note Name: E5, Velocity: 56
Note OFF: Time 281360, Note Name: A#4
Note ON: Time 281360, Note Name: B4, Velocity: 45
Note OFF: Time 281440, Note Name: B4
Note ON: Time 281440, Note Name: A#4, Velocity: 48
Note OFF: Time 281520, Note Name: A#4
Note ON: Time 281520, Note Name: B4, Velocity: 45
Note OFF: Time 281600, Note Name: B4
Note ON: Time 281600, Note Name: A#4, Velocity: 48
Note OFF: Time 281680, Note Name: A#4
Note ON: Time 281680, Note Name: B4, Velocity: 44
Note OFF: Time 281760, Note Name: B4
Note OFF: Time 281760, Note Name: E5
Note ON: Time 281760, Note Name: A#4, Velocity: 48
Note ON: Time 281760, Note Name: C#5, Velocity: 56
Note OFF: Time 281840, Note Name: A#4
Note ON: Time 281840, Note Name: B4, Velocity: 48
Note OFF: Time 281920, Note Name: B4
Note ON: Time 281920, Note Name: A#4, Velocity: 44
Note OFF: Time 282000, Note Name: A#4
Note ON: Time 282000, Note Name: B4, Velocity: 48
Note OFF: Time 282120, Note Name: B4
Note ON: Time 282120, Note Name: A#4, Velocity: 48
Note OFF: Time 282240, Note Name: A#4
Note OFF: Time 282240, Note Name: C#5
Note ON: Time 282240, Note Name: B4, Velocity: 54
Note ON: Time 282240, Note Name: E5, Velocity: 64
Note OFF: Time 282720, Note Name: E5
Note ON: Time 282720, Note Name: D5, Velocity: 57
Note OFF: Time 283200, Note Name: B4
Note ON: Time 283200, Note Name: F#4, Velocity: 57
Note OFF: Time 283680, Note Name: F#4
Note ON: Time 283680, Note Name: E4, Velocity: 59
Note OFF: Time 284160, Note Name: D5
Note ON: Time 284160, Note Name: C#5, Velocity: 63
Note OFF: Time 284640, Note Name: E4
Note ON: Time 284640, Note Name: C#4, Velocity: 56
Note OFF: Time 285120, Note Name: C#4
Note ON: Time 285120, Note Name: E4, Velocity: 57
Note OFF: Time 285600, Note Name: E4
Note OFF: Time 285600, Note Name: C#5
Note ON: Time 285600, Note Name: B4, Velocity: 63
Note ON: Time 285600, Note Name: D4, Velocity: 48
Note OFF: Time 286080, Note Name: D4
Note ON: Time 286080, Note Name: C#4, Velocity: 48
Note OFF: Time 287040, Note Name: C#4
Note ON: Time 287040, Note Name: B3, Velocity: 48
Note OFF: Time 287520, Note Name: B3
Note OFF: Time 287520, Note Name: B4
Note ON: Time 287520, Note Name: E4, Velocity: 48
Note ON: Time 287520, Note Name: B3, Velocity: 40
Note OFF: Time 287760, Note Name: E4
Note ON: Time 287760, Note Name: D4, Velocity: 43
Note OFF: Time 288000, Note Name: D4
Note OFF: Time 288000, Note Name: B3
Note ON: Time 288000, Note Name: C#4, Velocity: 48
Note ON: Time 288000, Note Name: B3, Velocity: 40
Note OFF: Time 288240, Note Name: C#4
Note ON: Time 288240, Note Name: D4, Velocity: 42
Note OFF: Time 288480, Note Name: D4
Note OFF: Time 288480, Note Name: B3
Note ON: Time 288480, Note Name: C#4, Velocity: 48
Note ON: Time 288480, Note Name: F#3, Velocity: 40
Note OFF: Time 288720, Note Name: C#4
Note ON: Time 288720, Note Name: D4, Velocity: 43
Note OFF: Time 288960, Note Name: D4
Note OFF: Time 288960, Note Name: F#3
Note ON: Time 288960, Note Name: E4, Velocity: 48
Note ON: Time 288960, Note Name: D4, Velocity: 40
Note OFF: Time 289200, Note Name: E4
Note ON: Time 289200, Note Name: F4, Velocity: 43
Note OFF: Time 289440, Note Name: F4
Note OFF: Time 289440, Note Name: D4
Note ON: Time 289440, Note Name: C#4, Velocity: 48
Note ON: Time 289440, Note Name: F#4, Velocity: 51
Note OFF: Time 289920, Note Name: C#4
Note ON: Time 289920, Note Name: F#3, Velocity: 48
Note OFF: Time 290400, Note Name: F#3
Note OFF: Time 290400, Note Name: F#4
Note ON: Time 290400, Note Name: F#5, Velocity: 55
Note OFF: Time 290880, Note Name: F#5
Note ON: Time 290880, Note Name: D5, Velocity: 50
Note OFF: Time 290960, Note Name: D5
Note ON: Time 290960, Note Name: E5, Velocity: 47
Note OFF: Time 291040, Note Name: E5
Note ON: Time 291040, Note Name: D5, Velocity: 52
Note OFF: Time 291120, Note Name: D5
Note ON: Time 291120, Note Name: E5, Velocity: 50
Note OFF: Time 291200, Note Name: E5
Note ON: Time 291200, Note Name: D5, Velocity: 55
Note OFF: Time 291280, Note Name: D5
Note ON: Time 291280, Note Name: E5, Velocity: 52
Note OFF: Time 291360, Note Name: E5
Note ON: Time 291360, Note Name: D5, Velocity: 56
Note OFF: Time 291440, Note Name: D5
Note ON: Time 291440, Note Name: E5, Velocity: 50
Note OFF: Time 291520, Note Name: E5
Note ON: Time 291520, Note Name: D5, Velocity: 53
Note OFF: Time 291600, Note Name: D5
Note ON: Time 291600, Note Name: E5, Velocity: 45
Note OFF: Time 291680, Note Name: E5
Note ON: Time 291680, Note Name: D5, Velocity: 50
Note OFF: Time 291760, Note Name: D5
Note ON: Time 291760, Note Name: E5, Velocity: 44
Note OFF: Time 291840, Note Name: E5
Note ON: Time 291840, Note Name: D4, Velocity: 55
Note ON: Time 291840, Note Name: B4, Velocity: 55
Note OFF: Time 292080, Note Name: B4
Note ON: Time 292080, Note Name: F4, Velocity: 47
Note OFF: Time 292320, Note Name: F4
Note OFF: Time 292320, Note Name: D4
Note ON: Time 292320, Note Name: C#4, Velocity: 51
Note ON: Time 292320, Note Name: F#4, Velocity: 51
Note OFF: Time 292800, Note Name: C#4
Note ON: Time 292800, Note Name: F#3, Velocity: 43
Note OFF: Time 293280, Note Name: F#3
Note OFF: Time 293280, Note Name: F#4
Note ON: Time 293280, Note Name: F#4, Velocity: 51
Note OFF: Time 293520, Note Name: F#4
Note ON: Time 293520, Note Name: G#4, Velocity: 51
Note OFF: Time 293640, Note Name: G#4
Note ON: Time 293640, Note Name: A#4, Velocity: 56
Note OFF: Time 293760, Note Name: A#4
Note ON: Time 293760, Note Name: B4, Velocity: 58
Note OFF: Time 293880, Note Name: B4
Note ON: Time 293880, Note Name: C#5, Velocity: 60
Note OFF: Time 294000, Note Name: C#5
Note ON: Time 294000, Note Name: D5, Velocity: 62
Note OFF: Time 294120, Note Name: D5
Note ON: Time 294120, Note Name: E5, Velocity: 64
Note OFF: Time 294240, Note Name: E5
Note ON: Time 294240, Note Name: F#5, Velocity: 66
Note OFF: Time 294360, Note Name: F#5
Note ON: Time 294360, Note Name: G5, Velocity: 69
Note OFF: Time 294480, Note Name: G5
Note ON: Time 294720, Note Name: G5, Velocity: 60
Note OFF: Time 295200, Note Name: G5
Note ON: Time 295200, Note Name: F#5, Velocity: 50
Note OFF: Time 295280, Note Name: F#5
Note ON: Time 295280, Note Name: G5, Velocity: 47
Note OFF: Time 295360, Note Name: G5
Note ON: Time 295360, Note Name: F#5, Velocity: 52
Note OFF: Time 295440, Note Name: F#5
Note ON: Time 295440, Note Name: G5, Velocity: 50
Note OFF: Time 295520, Note Name: G5
Note ON: Time 295520, Note Name: F#5, Velocity: 55
Note OFF: Time 295600, Note Name: F#5
Note ON: Time 295600, Note Name: G5, Velocity: 52
Note OFF: Time 295680, Note Name: G5
Note ON: Time 295680, Note Name: F#5, Velocity: 56
Note OFF: Time 295760, Note Name: F#5
Note ON: Time 295760, Note Name: G5, Velocity: 50
Note OFF: Time 295840, Note Name: G5
Note ON: Time 295840, Note Name: F#5, Velocity: 53
Note OFF: Time 295920, Note Name: F#5
Note ON: Time 295920, Note Name: G5, Velocity: 45
Note OFF: Time 296000, Note Name: G5
Note ON: Time 296000, Note Name: F#5, Velocity: 50
Note OFF: Time 296080, Note Name: F#5
Note ON: Time 296080, Note Name: G5, Velocity: 44
Note OFF: Time 296160, Note Name: G5
Note ON: Time 296160, Note Name: D5, Velocity: 60
Note OFF: Time 296640, Note Name: D5
Note ON: Time 296640, Note Name: B4, Velocity: 60
Note ON: Time 296640, Note Name: D4, Velocity: 45
Note OFF: Time 296720, Note Name: D4
Note ON: Time 296720, Note Name: E4, Velocity: 42
Note OFF: Time 296800, Note Name: E4
Note ON: Time 296800, Note Name: D4, Velocity: 46
Note OFF: Time 296880, Note Name: D4
Note ON: Time 296880, Note Name: E4, Velocity: 45
Note OFF: Time 296960, Note Name: E4
Note ON: Time 296960, Note Name: D4, Velocity: 49
Note OFF: Time 297040, Note Name: D4
Note ON: Time 297040, Note Name: E4, Velocity: 46
Note OFF: Time 297120, Note Name: E4
Note ON: Time 297120, Note Name: D4, Velocity: 50
Note OFF: Time 297200, Note Name: D4
Note ON: Time 297200, Note Name: E4, Velocity: 45
Note OFF: Time 297280, Note Name: E4
Note ON: Time 297280, Note Name: D4, Velocity: 47
Note OFF: Time 297360, Note Name: D4
Note ON: Time 297360, Note Name: E4, Velocity: 40
Note OFF: Time 297440, Note Name: E4
Note ON: Time 297440, Note Name: D4, Velocity: 45
Note OFF: Time 297520, Note Name: D4
Note ON: Time 297520, Note Name: E4, Velocity: 39
Note OFF: Time 297600, Note Name: E4
Note OFF: Time 297600, Note Name: B4
Note ON: Time 297600, Note Name: C#4, Velocity: 50
Note ON: Time 297600, Note Name: G4, Velocity: 60
Note OFF: Time 298080, Note Name: G4
Note OFF: Time 298080, Note Name: C#4
Note ON: Time 298080, Note Name: E4, Velocity: 62
Note OFF: Time 298200, Note Name: E4
Note ON: Time 298200, Note Name: F#4, Velocity: 63
Note OFF: Time 298320, Note Name: F#4
Note ON: Time 298320, Note Name: G4, Velocity: 64
Note OFF: Time 298440, Note Name: G4
Note ON: Time 298440, Note Name: A4, Velocity: 65
Note OFF: Time 298560, Note Name: A4
Note ON: Time 298560, Note Name: B4, Velocity: 67
Note OFF: Time 298680, Note Name: B4
Note ON: Time 298680, Note Name: C#5, Velocity: 66
Note OFF: Time 298800, Note Name: C#5
Note ON: Time 298800, Note Name: C#4, Velocity: 55
Note OFF: Time 298920, Note Name: C#4
Note ON: Time 298920, Note Name: D4, Velocity: 57
Note OFF: Time 299040, Note Name: D4
Note ON: Time 299040, Note Name: C#5, Velocity: 69
Note ON: Time 299040, Note Name: E4, Velocity: 57
Note OFF: Time 299160, Note Name: E4
Note ON: Time 299160, Note Name: F#4, Velocity: 55
Note OFF: Time 299280, Note Name: F#4
Note ON: Time 299280, Note Name: G4, Velocity: 57
Note OFF: Time 299400, Note Name: G4
Note ON: Time 299400, Note Name: A4, Velocity: 60
Note OFF: Time 299520, Note Name: A4
Note OFF: Time 299520, Note Name: C#5
Note ON: Time 299520, Note Name: G4, Velocity: 62
Note OFF: Time 299640, Note Name: G4
Note ON: Time 299640, Note Name: A4, Velocity: 63
Note OFF: Time 299760, Note Name: A4
Note ON: Time 299760, Note Name: B4, Velocity: 64
Note OFF: Time 299880, Note Name: B4
Note ON: Time 299880, Note Name: C#5, Velocity: 65
Note OFF: Time 300000, Note Name: C#5
Note ON: Time 300000, Note Name: D5, Velocity: 67
Note OFF: Time 300120, Note Name: D5
Note ON: Time 300120, Note Name: E5, Velocity: 66
Note OFF: Time 300240, Note Name: E5
Note ON: Time 300240, Note Name: E4, Velocity: 55
Note OFF: Time 300360, Note Name: E4
Note ON: Time 300360, Note Name: F#4, Velocity: 57
Note OFF: Time 300480, Note Name: F#4
Note ON: Time 300480, Note Name: E5, Velocity: 69
Note ON: Time 300480, Note Name: G4, Velocity: 57
Note OFF: Time 300600, Note Name: G4
Note ON: Time 300600, Note Name: A4, Velocity: 55
Note OFF: Time 300720, Note Name: A4
Note ON: Time 300720, Note Name: B4, Velocity: 57
Note OFF: Time 300840, Note Name: B4
Note ON: Time 300840, Note Name: C#5, Velocity: 60
Note OFF: Time 300960, Note Name: C#5
Note OFF: Time 300960, Note Name: E5
Note ON: Time 300960, Note Name: G5, Velocity: 74
Note OFF: Time 301080, Note Name: G5
Note ON: Time 301080, Note Name: F#5, Velocity: 72
Note OFF: Time 301200, Note Name: F#5
Note ON: Time 301200, Note Name: E5, Velocity: 71
Note OFF: Time 301320, Note Name: E5
Note ON: Time 301320, Note Name: D5, Velocity: 69
Note OFF: Time 301440, Note Name: D5
Note ON: Time 301440, Note Name: C#5, Velocity: 67
Note OFF: Time 301560, Note Name: C#5
Note ON: Time 301560, Note Name: B4, Velocity: 68
Note OFF: Time 301680, Note Name: B4
Note ON: Time 301680, Note Name: G4, Velocity: 64
Note OFF: Time 301800, Note Name: G4
Note ON: Time 301800, Note Name: F#4, Velocity: 61
Note OFF: Time 301920, Note Name: F#4
Note ON: Time 301920, Note Name: B4, Velocity: 75
Note ON: Time 301920, Note Name: E4, Velocity: 62
Note OFF: Time 302040, Note Name: E4
Note ON: Time 302040, Note Name: D4, Velocity: 60
Note OFF: Time 302160, Note Name: D4
Note ON: Time 302160, Note Name: C#4, Velocity: 57
Note OFF: Time 302280, Note Name: C#4
Note ON: Time 302280, Note Name: B3, Velocity: 55
Note OFF: Time 302400, Note Name: B3
Note OFF: Time 302400, Note Name: B4
Note ON: Time 302400, Note Name: E5, Velocity: 74
Note OFF: Time 302520, Note Name: E5
Note ON: Time 302520, Note Name: D5, Velocity: 72
Note OFF: Time 302640, Note Name: D5
Note ON: Time 302640, Note Name: C#5, Velocity: 71
Note OFF: Time 302760, Note Name: C#5
Note ON: Time 302760, Note Name: B4, Velocity: 69
Note OFF: Time 302880, Note Name: B4
Note ON: Time 302880, Note Name: A4, Velocity: 67
Note OFF: Time 303000, Note Name: A4
Note ON: Time 303000, Note Name: G4, Velocity: 72
Note OFF: Time 303120, Note Name: G4
Note ON: Time 303120, Note Name: E4, Velocity: 64
Note OFF: Time 303240, Note Name: E4
Note ON: Time 303240, Note Name: D4, Velocity: 61
Note OFF: Time 303360, Note Name: D4
Note ON: Time 303360, Note Name: G4, Velocity: 75
Note ON: Time 303360, Note Name: C#4, Velocity: 62
Note OFF: Time 303480, Note Name: C#4
Note ON: Time 303480, Note Name: B3, Velocity: 60
Note OFF: Time 303600, Note Name: B3
Note ON: Time 303600, Note Name: A3, Velocity: 57
Note OFF: Time 303720, Note Name: A3
Note ON: Time 303720, Note Name: G3, Velocity: 55
Note OFF: Time 303840, Note Name: G3
Note OFF: Time 303840, Note Name: G4
Note ON: Time 303840, Note Name: D4, Velocity: 73
Note ON: Time 303840, Note Name: F#4, Velocity: 73
Note OFF: Time 303960, Note Name: D4
Note ON: Time 303960, Note Name: C#4, Velocity: 68
Note OFF: Time 304080, Note Name: C#4
Note ON: Time 304080, Note Name: B3, Velocity: 63
Note OFF: Time 304200, Note Name: B3
Note ON: Time 304200, Note Name: A3, Velocity: 62
Note OFF: Time 304320, Note Name: A3
Note OFF: Time 304320, Note Name: F#4
Note ON: Time 304320, Note Name: G3, Velocity: 62
Note OFF: Time 304440, Note Name: G3
Note ON: Time 304440, Note Name: F#3, Velocity: 61
Note OFF: Time 304560, Note Name: F#3
Note ON: Time 304560, Note Name: F#4, Velocity: 63
Note OFF: Time 304680, Note Name: F#4
Note ON: Time 304680, Note Name: G4, Velocity: 65
Note OFF: Time 304800, Note Name: G4
Note ON: Time 304800, Note Name: A4, Velocity: 67
Note OFF: Time 304920, Note Name: A4
Note ON: Time 304920, Note Name: B4, Velocity: 69
Note OFF: Time 305040, Note Name: B4
Note ON: Time 305040, Note Name: C#5, Velocity: 72
Note OFF: Time 305160, Note Name: C#5
Note ON: Time 305160, Note Name: D5, Velocity: 74
Note OFF: Time 305280, Note Name: D5
Note ON: Time 305280, Note Name: F#4, Velocity: 73
Note ON: Time 305280, Note Name: A4, Velocity: 73
Note OFF: Time 305400, Note Name: F#4
Note ON: Time 305400, Note Name: E4, Velocity: 68
Note OFF: Time 305520, Note Name: E4
Note ON: Time 305520, Note Name: D4, Velocity: 63
Note OFF: Time 305640, Note Name: D4
Note ON: Time 305640, Note Name: C#4, Velocity: 62
Note OFF: Time 305760, Note Name: C#4
Note OFF: Time 305760, Note Name: A4
Note ON: Time 305760, Note Name: B3, Velocity: 62
Note OFF: Time 305880, Note Name: B3
Note ON: Time 305880, Note Name: A3, Velocity: 61
Note OFF: Time 306000, Note Name: A3
Note ON: Time 306000, Note Name: A4, Velocity: 63
Note OFF: Time 306120, Note Name: A4
Note ON: Time 306120, Note Name: B4, Velocity: 65
Note OFF: Time 306240, Note Name: B4
Note ON: Time 306240, Note Name: C#5, Velocity: 67
Note OFF: Time 306360, Note Name: C#5
Note ON: Time 306360, Note Name: D5, Velocity: 69
Note OFF: Time 306480, Note Name: D5
Note ON: Time 306480, Note Name: E5, Velocity: 72
Note OFF: Time 306600, Note Name: E5
Note ON: Time 306600, Note Name: F#5, Velocity: 74
Note OFF: Time 306720, Note Name: F#5
Note ON: Time 306720, Note Name: G4, Velocity: 73
Note ON: Time 306720, Note Name: B4, Velocity: 73
Note OFF: Time 306840, Note Name: G4
Note ON: Time 306840, Note Name: F#4, Velocity: 68
Note OFF: Time 306960, Note Name: F#4
Note ON: Time 306960, Note Name: E4, Velocity: 63
Note OFF: Time 307080, Note Name: E4
Note ON: Time 307080, Note Name: D4, Velocity: 62
Note OFF: Time 307200, Note Name: D4
Note OFF: Time 307200, Note Name: B4
Note ON: Time 307200, Note Name: C#4, Velocity: 62
Note OFF: Time 307320, Note Name: C#4
Note ON: Time 307320, Note Name: B3, Velocity: 61
Note OFF: Time 307440, Note Name: B3
Note ON: Time 307440, Note Name: B4, Velocity: 63
Note OFF: Time 307560, Note Name: B4
Note ON: Time 307560, Note Name: C#5, Velocity: 65
Note OFF: Time 307680, Note Name: C#5
Note ON: Time 307680, Note Name: G4, Velocity: 65
Note ON: Time 307680, Note Name: D5, Velocity: 67
Note OFF: Time 307800, Note Name: D5
Note ON: Time 307800, Note Name: E5, Velocity: 69
Note OFF: Time 307920, Note Name: E5
Note ON: Time 307920, Note Name: F#5, Velocity: 72
Note OFF: Time 308040, Note Name: F#5
Note ON: Time 308040, Note Name: G5, Velocity: 74
Note OFF: Time 308160, Note Name: G5
Note OFF: Time 308160, Note Name: G4
Note ON: Time 308160, Note Name: E5, Velocity: 80
Note ON: Time 308160, Note Name: G5, Velocity: 80
Note OFF: Time 308280, Note Name: E5
Note ON: Time 308280, Note Name: D5, Velocity: 74
Note OFF: Time 308400, Note Name: D5
Note ON: Time 308400, Note Name: C#5, Velocity: 69
Note OFF: Time 308520, Note Name: C#5
Note ON: Time 308520, Note Name: B4, Velocity: 68
Note OFF: Time 308640, Note Name: B4
Note OFF: Time 308640, Note Name: G5
Note ON: Time 308640, Note Name: A4, Velocity: 68
Note OFF: Time 308760, Note Name: A4
Note ON: Time 308760, Note Name: G4, Velocity: 67
Note OFF: Time 308880, Note Name: G4
Note ON: Time 308880, Note Name: G5, Velocity: 69
Note OFF: Time 309000, Note Name: G5
Note ON: Time 309000, Note Name: A5, Velocity: 68
Note OFF: Time 309120, Note Name: A5
Note ON: Time 309120, Note Name: G5, Velocity: 71
Note ON: Time 309120, Note Name: B5, Velocity: 73
Note OFF: Time 309240, Note Name: B5
Note ON: Time 309240, Note Name: C#6, Velocity: 75
Note OFF: Time 309360, Note Name: C#6
Note ON: Time 309360, Note Name: D6, Velocity: 79
Note OFF: Time 309480, Note Name: D6
Note ON: Time 309480, Note Name: E6, Velocity: 81
Note OFF: Time 309600, Note Name: E6
Note OFF: Time 309600, Note Name: G5
Note ON: Time 309600, Note Name: F#5, Velocity: 71
Note ON: Time 309600, Note Name: F#6, Velocity: 85
Note OFF: Time 309720, Note Name: F#6
Note ON: Time 309720, Note Name: E6, Velocity: 83
Note OFF: Time 309840, Note Name: E6
Note ON: Time 309840, Note Name: D6, Velocity: 80
Note OFF: Time 309960, Note Name: D6
Note ON: Time 309960, Note Name: C#6, Velocity: 78
Note OFF: Time 310080, Note Name: C#6
Note OFF: Time 310080, Note Name: F#5
Note ON: Time 310080, Note Name: B5, Velocity: 76
Note OFF: Time 310200, Note Name: B5
Note ON: Time 310200, Note Name: A5, Velocity: 73
Note OFF: Time 310320, Note Name: A5
Note ON: Time 310560, Note Name: A5, Velocity: 71
Note OFF: Time 311040, Note Name: A5
Note ON: Time 311040, Note Name: D5, Velocity: 71
Note ON: Time 311040, Note Name: D6, Velocity: 85
Note OFF: Time 311160, Note Name: D6
Note ON: Time 311160, Note Name: C#6, Velocity: 83
Note OFF: Time 311280, Note Name: C#6
Note ON: Time 311280, Note Name: B5, Velocity: 80
Note OFF: Time 311400, Note Name: B5
Note ON: Time 311400, Note Name: A5, Velocity: 78
Note OFF: Time 311520, Note Name: A5
Note OFF: Time 311520, Note Name: D5
Note ON: Time 311520, Note Name: G5, Velocity: 76
Note OFF: Time 311640, Note Name: G5
Note ON: Time 311640, Note Name: F#5, Velocity: 73
Note OFF: Time 311760, Note Name: F#5
Note ON: Time 312000, Note Name: F#5, Velocity: 71
Note OFF: Time 312480, Note Name: F#5
Note ON: Time 313200, Note Name: D5, Velocity: 69
Note OFF: Time 313320, Note Name: D5
Note ON: Time 313320, Note Name: E5, Velocity: 70
Note OFF: Time 313440, Note Name: E5
Note ON: Time 313440, Note Name: F#5, Velocity: 72
Note OFF: Time 313560, Note Name: F#5
Note ON: Time 313560, Note Name: G5, Velocity: 73
Note OFF: Time 313680, Note Name: G5
Note ON: Time 313680, Note Name: A5, Velocity: 74
Note OFF: Time 313800, Note Name: A5
Note ON: Time 313800, Note Name: A#5, Velocity: 75
Note OFF: Time 313920, Note Name: A#5
Note ON: Time 313920, Note Name: B5, Velocity: 76
Note OFF: Time 314040, Note Name: B5
Note ON: Time 314040, Note Name: A5, Velocity: 71
Note OFF: Time 314160, Note Name: A5
Note ON: Time 314160, Note Name: G5, Velocity: 71
Note OFF: Time 314280, Note Name: G5
Note ON: Time 314280, Note Name: F#5, Velocity: 70
Note OFF: Time 314400, Note Name: F#5
Note ON: Time 314400, Note Name: E5, Velocity: 69
Note OFF: Time 314520, Note Name: E5
Note ON: Time 314520, Note Name: D5, Velocity: 68
Note OFF: Time 314640, Note Name: D5
Note ON: Time 314640, Note Name: G5, Velocity: 77
Note OFF: Time 314760, Note Name: G5
Note ON: Time 314760, Note Name: F#5, Velocity: 71
Note OFF: Time 314880, Note Name: F#5
Note ON: Time 314880, Note Name: E5, Velocity: 70
Note OFF: Time 315000, Note Name: E5
Note ON: Time 315000, Note Name: D5, Velocity: 69
Note OFF: Time 315120, Note Name: D5
Note ON: Time 315120, Note Name: C5, Velocity: 68
Note OFF: Time 315240, Note Name: C5
Note ON: Time 315240, Note Name: B4, Velocity: 66
Note OFF: Time 315360, Note Name: B4
Note ON: Time 315360, Note Name: E5, Velocity: 78
Note OFF: Time 315480, Note Name: E5
Note ON: Time 315480, Note Name: D5, Velocity: 69
Note OFF: Time 315600, Note Name: D5
Note ON: Time 315600, Note Name: C#5, Velocity: 67
Note OFF: Time 315720, Note Name: C#5
Note ON: Time 315720, Note Name: B4, Velocity: 66
Note OFF: Time 315840, Note Name: B4
Note ON: Time 315840, Note Name: A4, Velocity: 67
Note OFF: Time 315960, Note Name: A4
Note ON: Time 315960, Note Name: G#4, Velocity: 63
Note OFF: Time 316080, Note Name: G#4
Note ON: Time 316080, Note Name: G4, Velocity: 63
Note ON: Time 316080, Note Name: E4, Velocity: 63
Note OFF: Time 316200, Note Name: E4
Note ON: Time 316200, Note Name: D4, Velocity: 59
Note OFF: Time 316320, Note Name: D4
Note ON: Time 316320, Note Name: C#4, Velocity: 63
Note OFF: Time 316440, Note Name: C#4
Note ON: Time 316440, Note Name: B3, Velocity: 59
Note OFF: Time 316560, Note Name: B3
Note ON: Time 316560, Note Name: A3, Velocity: 58
Note OFF: Time 316680, Note Name: A3
Note ON: Time 316680, Note Name: G#3, Velocity: 57
Note OFF: Time 316800, Note Name: G#3
Note ON: Time 316800, Note Name: E4, Velocity: 62
Note OFF: Time 316920, Note Name: E4
Note ON: Time 316920, Note Name: D4, Velocity: 57
Note OFF: Time 317040, Note Name: D4
Note ON: Time 317040, Note Name: C#4, Velocity: 57
Note OFF: Time 317160, Note Name: C#4
Note ON: Time 317160, Note Name: D4, Velocity: 57
Note OFF: Time 317280, Note Name: D4
Note OFF: Time 317280, Note Name: G4
Note ON: Time 317280, Note Name: F#4, Velocity: 70
Note ON: Time 317280, Note Name: E4, Velocity: 70
Note OFF: Time 317880, Note Name: E4
Note ON: Time 317880, Note Name: C#4, Velocity: 58
Note OFF: Time 318000, Note Name: C#4
Note ON: Time 318000, Note Name: D4, Velocity: 58
Note OFF: Time 318120, Note Name: D4
Note ON: Time 318120, Note Name: E4, Velocity: 58
Note OFF: Time 318240, Note Name: E4
Note OFF: Time 318240, Note Name: F#4
Note ON: Time 318240, Note Name: D4, Velocity: 65
Note ON: Time 318240, Note Name: F#4, Velocity: 65
Note OFF: Time 318720, Note Name: F#4
Note ON: Time 318720, Note Name: B4, Velocity: 68
Note OFF: Time 319200, Note Name: D4
Note ON: Time 319320, Note Name: D4, Velocity: 52
Note OFF: Time 319440, Note Name: D4
Note ON: Time 319440, Note Name: B3, Velocity: 57
Note OFF: Time 319560, Note Name: B3
Note ON: Time 319560, Note Name: F4, Velocity: 52
Note OFF: Time 319680, Note Name: F4
Note ON: Time 319680, Note Name: F#4, Velocity: 57
Note OFF: Time 319920, Note Name: B4
Note OFF: Time 320160, Note Name: F#4
Note ON: Time 320160, Note Name: D4, Velocity: 57
Note OFF: Time 320280, Note Name: D4
Note ON: Time 320280, Note Name: F#4, Velocity: 52
Note OFF: Time 320400, Note Name: F#4
Note ON: Time 320400, Note Name: G#4, Velocity: 57
Note ON: Time 320400, Note Name: F4, Velocity: 48
Note OFF: Time 320520, Note Name: F4
Note ON: Time 320520, Note Name: E4, Velocity: 52
Note OFF: Time 320640, Note Name: E4
Note OFF: Time 320640, Note Name: G#4
Note ON: Time 320640, Note Name: G4, Velocity: 63
Note ON: Time 320640, Note Name: A#3, Velocity: 57
Note OFF: Time 320760, Note Name: A#3
Note ON: Time 320760, Note Name: E4, Velocity: 50
Note OFF: Time 320880, Note Name: E4
Note OFF: Time 320880, Note Name: G4
Note ON: Time 320880, Note Name: F#4, Velocity: 58
Note ON: Time 320880, Note Name: D4, Velocity: 48
Note OFF: Time 321000, Note Name: D4
Note ON: Time 321000, Note Name: A3, Velocity: 51
Note OFF: Time 321120, Note Name: A3
Note ON: Time 321120, Note Name: A#3, Velocity: 68
Note OFF: Time 321360, Note Name: F#4
Note ON: Time 321360, Note Name: E4, Velocity: 57
Note OFF: Time 321600, Note Name: E4
Note OFF: Time 321600, Note Name: A#3
Note ON: Time 321600, Note Name: A#3, Velocity: 65
Note ON: Time 321840, Note Name: G3, Velocity: 65
Note OFF: Time 322080, Note Name: G3
Note ON: Time 322080, Note Name: E3, Velocity: 65
Note OFF: Time 322320, Note Name: A#3
Note ON: Time 322320, Note Name: A#3, Velocity: 65
Note OFF: Time 322560, Note Name: E3
Note ON: Time 322560, Note Name: F#3, Velocity: 65
Note OFF: Time 322680, Note Name: A#3
Note ON: Time 322680, Note Name: G#3, Velocity: 57
Note OFF: Time 322800, Note Name: G#3
Note ON: Time 322800, Note Name: A3, Velocity: 65
Note OFF: Time 322920, Note Name: F#3
Note ON: Time 322920, Note Name: F3, Velocity: 60
Note OFF: Time 323040, Note Name: F3
Note ON: Time 323040, Note Name: F#3, Velocity: 65
Note OFF: Time 323160, Note Name: A3
Note ON: Time 323160, Note Name: C#4, Velocity: 58
Note OFF: Time 323280, Note Name: C#4
Note ON: Time 323280, Note Name: D4, Velocity: 65
Note OFF: Time 323400, Note Name: F#3
Note ON: Time 323400, Note Name: G3, Velocity: 60
Note OFF: Time 323520, Note Name: G3
Note ON: Time 323520, Note Name: A3, Velocity: 65
Note OFF: Time 323640, Note Name: D4
Note ON: Time 323640, Note Name: C#4, Velocity: 58
Note OFF: Time 323760, Note Name: C#4
Note ON: Time 323760, Note Name: D4, Velocity: 65
Note OFF: Time 323880, Note Name: A3
Note ON: Time 323880, Note Name: A#3, Velocity: 60
Note OFF: Time 324000, Note Name: A#3
Note ON: Time 324000, Note Name: B3, Velocity: 65
Note OFF: Time 324120, Note Name: D4
Note ON: Time 324120, Note Name: F3, Velocity: 58
Note OFF: Time 324240, Note Name: F3
Note ON: Time 324240, Note Name: F#3, Velocity: 65
Note OFF: Time 324360, Note Name: B3
Note ON: Time 324360, Note Name: C#3, Velocity: 60
Note OFF: Time 324480, Note Name: C#3
Note ON: Time 324480, Note Name: D3, Velocity: 65
Note OFF: Time 324600, Note Name: F#3
Note ON: Time 324600, Note Name: F#3, Velocity: 59
Note OFF: Time 324720, Note Name: F#3
Note ON: Time 324720, Note Name: G3, Velocity: 65
Note OFF: Time 324840, Note Name: D3
Note ON: Time 324840, Note Name: D#3, Velocity: 60
Note OFF: Time 324960, Note Name: D#3
Note ON: Time 324960, Note Name: E3, Velocity: 65
Note OFF: Time 325080, Note Name: G3
Note ON: Time 325080, Note Name: A3, Velocity: 57
Note OFF: Time 325200, Note Name: A3
Note ON: Time 325200, Note Name: B3, Velocity: 65
Note OFF: Time 325320, Note Name: E3
Note ON: Time 325320, Note Name: F#3, Velocity: 60
Note OFF: Time 325440, Note Name: F#3
Note ON: Time 325440, Note Name: G3, Velocity: 65
Note OFF: Time 325560, Note Name: B3
Note ON: Time 325560, Note Name: A#3, Velocity: 59
Note OFF: Time 325680, Note Name: A#3
Note ON: Time 325680, Note Name: B3, Velocity: 65
Note OFF: Time 325800, Note Name: G3
Note ON: Time 325800, Note Name: F#3, Velocity: 60
Note OFF: Time 325920, Note Name: F#3
Note ON: Time 325920, Note Name: G3, Velocity: 65
Note OFF: Time 326040, Note Name: B3
Note ON: Time 326040, Note Name: D#4, Velocity: 56
Note OFF: Time 326160, Note Name: D#4
Note ON: Time 326160, Note Name: E4, Velocity: 65
Note OFF: Time 326280, Note Name: G3
Note ON: Time 326280, Note Name: A3, Velocity: 60
Note OFF: Time 326400, Note Name: A3
Note ON: Time 326400, Note Name: B3, Velocity: 65
Note OFF: Time 326520, Note Name: E4
Note ON: Time 326520, Note Name: F#4, Velocity: 59
Note OFF: Time 326640, Note Name: F#4
Note ON: Time 326640, Note Name: G4, Velocity: 65
Note OFF: Time 326760, Note Name: B3
Note ON: Time 326760, Note Name: A#3, Velocity: 60
Note OFF: Time 326880, Note Name: A#3
Note ON: Time 326880, Note Name: A3, Velocity: 60
Note OFF: Time 327120, Note Name: G4
Note ON: Time 327120, Note Name: G#4, Velocity: 72
Note OFF: Time 327360, Note Name: G#4
Note OFF: Time 327360, Note Name: A3
Note ON: Time 327360, Note Name: A4, Velocity: 78
Note ON: Time 327600, Note Name: E4, Velocity: 67
Note OFF: Time 327840, Note Name: E4
Note ON: Time 327840, Note Name: C#4, Velocity: 73
Note OFF: Time 328080, Note Name: C#4
Note OFF: Time 328080, Note Name: A4
Note ON: Time 328080, Note Name: A3, Velocity: 65
Note ON: Time 328080, Note Name: G4, Velocity: 65
Note OFF: Time 328320, Note Name: G4
Note ON: Time 328320, Note Name: F#4, Velocity: 73
Note OFF: Time 328560, Note Name: A3
Note ON: Time 328560, Note Name: A#3, Velocity: 65
Note OFF: Time 328800, Note Name: A#3
Note OFF: Time 328800, Note Name: F#4
Note ON: Time 328800, Note Name: B3, Velocity: 65
Note ON: Time 329040, Note Name: F#4, Velocity: 66
Note OFF: Time 329280, Note Name: F#4
Note ON: Time 329280, Note Name: D#4, Velocity: 71
Note OFF: Time 329520, Note Name: D#4
Note OFF: Time 329520, Note Name: B3
Note ON: Time 329520, Note Name: A3, Velocity: 65
Note ON: Time 329520, Note Name: B3, Velocity: 67
Note OFF: Time 329760, Note Name: A3
Note ON: Time 329760, Note Name: G3, Velocity: 65
Note OFF: Time 330000, Note Name: G3
Note OFF: Time 330000, Note Name: B3
Note ON: Time 330000, Note Name: B4, Velocity: 82
Note OFF: Time 330240, Note Name: B4
Note ON: Time 330240, Note Name: C5, Velocity: 86
Note ON: Time 330480, Note Name: G4, Velocity: 69
Note OFF: Time 330720, Note Name: G4
Note ON: Time 330720, Note Name: E4, Velocity: 75
Note OFF: Time 330960, Note Name: E4
Note OFF: Time 330960, Note Name: C5
Note ON: Time 330960, Note Name: C4, Velocity: 65
Note ON: Time 330960, Note Name: B4, Velocity: 70
Note OFF: Time 331200, Note Name: B4
Note ON: Time 331200, Note Name: A4, Velocity: 76
Note OFF: Time 331440, Note Name: A4
Note OFF: Time 331440, Note Name: C4
Note ON: Time 331440, Note Name: C#4, Velocity: 75
Note OFF: Time 331680, Note Name: C#4
Note ON: Time 331680, Note Name: D4, Velocity: 75
Note ON: Time 331920, Note Name: A4, Velocity: 69
Note OFF: Time 332160, Note Name: A4
Note ON: Time 332160, Note Name: F#4, Velocity: 74
Note OFF: Time 332400, Note Name: F#4
Note OFF: Time 332400, Note Name: D4
Note ON: Time 332400, Note Name: C4, Velocity: 69
Note ON: Time 332400, Note Name: D4, Velocity: 69
Note OFF: Time 332640, Note Name: C4
Note ON: Time 332640, Note Name: B3, Velocity: 63
Note OFF: Time 332760, Note Name: B3
Note ON: Time 332760, Note Name: C4, Velocity: 62
Note OFF: Time 332880, Note Name: D4
Note ON: Time 332880, Note Name: D5, Velocity: 72
Note OFF: Time 332904, Note Name: C4
Note ON: Time 333000, Note Name: C5, Velocity: 69
Note OFF: Time 333024, Note Name: D5
Note ON: Time 333120, Note Name: B4, Velocity: 72
Note OFF: Time 333144, Note Name: C5
Note OFF: Time 333840, Note Name: B4
Note ON: Time 333840, Note Name: E5, Velocity: 69
Note OFF: Time 334320, Note Name: E5
Note ON: Time 334320, Note Name: E5, Velocity: 69
Note OFF: Time 334440, Note Name: E5
Note ON: Time 334440, Note Name: D5, Velocity: 65
Note OFF: Time 334560, Note Name: D5
Note ON: Time 334560, Note Name: C5, Velocity: 74
Note OFF: Time 335040, Note Name: C5
Note ON: Time 335040, Note Name: C#5, Velocity: 69
Note OFF: Time 335280, Note Name: C#5
Note ON: Time 335280, Note Name: F#5, Velocity: 75
Note OFF: Time 335760, Note Name: F#5
Note ON: Time 335760, Note Name: F#5, Velocity: 70
Note OFF: Time 335880, Note Name: F#5
Note ON: Time 335880, Note Name: E5, Velocity: 65
Note OFF: Time 336000, Note Name: E5
Note ON: Time 336000, Note Name: D5, Velocity: 76
Note OFF: Time 336720, Note Name: D5
Note ON: Time 336720, Note Name: B4, Velocity: 69
Note OFF: Time 336840, Note Name: B4
Note ON: Time 336840, Note Name: G5, Velocity: 75
Note OFF: Time 337200, Note Name: G5
Note ON: Time 337200, Note Name: G5, Velocity: 69
Note OFF: Time 337320, Note Name: G5
Note ON: Time 337320, Note Name: F5, Velocity: 69
Note OFF: Time 337440, Note Name: F5
Note ON: Time 337440, Note Name: E5, Velocity: 76
Note OFF: Time 337680, Note Name: E5
Note ON: Time 337680, Note Name: G5, Velocity: 78
Note OFF: Time 337920, Note Name: G5
Note ON: Time 337920, Note Name: F#5, Velocity: 81
Note OFF: Time 338160, Note Name: F#5
Note ON: Time 338160, Note Name: G5, Velocity: 84
Note OFF: Time 338400, Note Name: G5
Note ON: Time 338400, Note Name: C6, Velocity: 86
Note OFF: Time 338640, Note Name: C6
Note ON: Time 338880, Note Name: A4, Velocity: 69
Note OFF: Time 338960, Note Name: A4
Note ON: Time 338960, Note Name: B4, Velocity: 63
Note OFF: Time 339040, Note Name: B4
Note ON: Time 339040, Note Name: A4, Velocity: 69
Note OFF: Time 339120, Note Name: A4
Note ON: Time 339120, Note Name: B4, Velocity: 64
Note OFF: Time 339200, Note Name: B4
Note ON: Time 339200, Note Name: A4, Velocity: 69
Note OFF: Time 339280, Note Name: A4
Note ON: Time 339280, Note Name: B4, Velocity: 63
Note OFF: Time 339360, Note Name: B4
Note ON: Time 339360, Note Name: A4, Velocity: 69
Note ON: Time 339360, Note Name: F#4, Velocity: 69
Note OFF: Time 339440, Note Name: A4
Note ON: Time 339440, Note Name: B4, Velocity: 64
Note OFF: Time 339520, Note Name: B4
Note ON: Time 339520, Note Name: A4, Velocity: 69
Note OFF: Time 339600, Note Name: A4
Note ON: Time 339600, Note Name: B4, Velocity: 64
Note OFF: Time 339680, Note Name: B4
Note ON: Time 339680, Note Name: A4, Velocity: 69
Note OFF: Time 339760, Note Name: A4
Note ON: Time 339760, Note Name: B4, Velocity: 63
Note OFF: Time 339840, Note Name: B4
Note OFF: Time 339840, Note Name: F#4
Note ON: Time 339840, Note Name: G4, Velocity: 69
Note OFF: Time 340320, Note Name: G4
Note ON: Time 340560, Note Name: G4, Velocity: 69
Note OFF: Time 340680, Note Name: G4
Note ON: Time 340680, Note Name: A4, Velocity: 62
Note OFF: Time 340800, Note Name: A4
Note ON: Time 340800, Note Name: B4, Velocity: 69
Note OFF: Time 340920, Note Name: B4
Note ON: Time 340920, Note Name: C5, Velocity: 65
Note OFF: Time 341040, Note Name: C5
Note ON: Time 341040, Note Name: D5, Velocity: 65
Note OFF: Time 341160, Note Name: D5
Note ON: Time 341160, Note Name: E5, Velocity: 65
Note OFF: Time 341280, Note Name: E5
Note ON: Time 341280, Note Name: B4, Velocity: 75
Note OFF: Time 341760, Note Name: B4
Note ON: Time 342000, Note Name: B4, Velocity: 69
Note OFF: Time 342120, Note Name: B4
Note ON: Time 342120, Note Name: C5, Velocity: 63
Note OFF: Time 342240, Note Name: C5
Note ON: Time 342240, Note Name: D5, Velocity: 69
Note OFF: Time 342360, Note Name: D5
Note ON: Time 342360, Note Name: E5, Velocity: 69
Note OFF: Time 342480, Note Name: E5
Note ON: Time 342480, Note Name: F#5, Velocity: 63
Note OFF: Time 342600, Note Name: F#5
Note ON: Time 342600, Note Name: G5, Velocity: 63
Note OFF: Time 342720, Note Name: G5
Note ON: Time 342720, Note Name: D5, Velocity: 75
Note OFF: Time 343200, Note Name: D5
Note ON: Time 343440, Note Name: D5, Velocity: 69
Note OFF: Time 343560, Note Name: D5
Note ON: Time 343560, Note Name: E5, Velocity: 63
Note OFF: Time 343680, Note Name: E5
Note ON: Time 343680, Note Name: F#5, Velocity: 69
Note OFF: Time 343800, Note Name: F#5
Note ON: Time 343800, Note Name: E5, Velocity: 65
Note OFF: Time 343920, Note Name: E5
Note ON: Time 343920, Note Name: F#5, Velocity: 65
Note OFF: Time 344040, Note Name: F#5
Note ON: Time 344040, Note Name: G5, Velocity: 65
Note OFF: Time 344160, Note Name: G5
Note ON: Time 344160, Note Name: A5, Velocity: 69
Note OFF: Time 344280, Note Name: A5
Note ON: Time 344280, Note Name: G#5, Velocity: 65
Note OFF: Time 344400, Note Name: G#5
Note ON: Time 344400, Note Name: A5, Velocity: 69
Note OFF: Time 344520, Note Name: A5
Note ON: Time 344520, Note Name: B5, Velocity: 69
Note OFF: Time 344640, Note Name: B5
Note ON: Time 344640, Note Name: C6, Velocity: 79
Note OFF: Time 344760, Note Name: C6
Note ON: Time 344760, Note Name: B5, Velocity: 71
Note OFF: Time 344880, Note Name: B5
Note ON: Time 344880, Note Name: A5, Velocity: 70
Note OFF: Time 345000, Note Name: A5
Note ON: Time 345000, Note Name: G5, Velocity: 67
Note OFF: Time 345120, Note Name: G5
Note ON: Time 345120, Note Name: F#5, Velocity: 70
Note OFF: Time 345240, Note Name: F#5
Note ON: Time 345240, Note Name: D#5, Velocity: 67
Note OFF: Time 345360, Note Name: D#5
Note ON: Time 345360, Note Name: D5, Velocity: 67
Note OFF: Time 345480, Note Name: D5
Note ON: Time 345480, Note Name: E5, Velocity: 67
Note OFF: Time 345600, Note Name: E5
Note ON: Time 345600, Note Name: F#5, Velocity: 75
Note OFF: Time 345720, Note Name: F#5
Note ON: Time 345720, Note Name: E5, Velocity: 73
Note OFF: Time 345840, Note Name: E5
Note ON: Time 345840, Note Name: D5, Velocity: 71
Note OFF: Time 345960, Note Name: D5
Note ON: Time 345960, Note Name: C5, Velocity: 69
Note OFF: Time 346080, Note Name: C5
Note ON: Time 346080, Note Name: B4, Velocity: 69
Note OFF: Time 346200, Note Name: B4
Note ON: Time 346200, Note Name: A4, Velocity: 64
Note OFF: Time 346320, Note Name: A4
Note ON: Time 346320, Note Name: G4, Velocity: 64
Note OFF: Time 346440, Note Name: G4
Note ON: Time 346440, Note Name: A4, Velocity: 64
Note OFF: Time 346560, Note Name: A4
Note ON: Time 346560, Note Name: B4, Velocity: 64
Note OFF: Time 346680, Note Name: B4
Note ON: Time 346680, Note Name: C5, Velocity: 66
Note OFF: Time 346800, Note Name: C5
Note ON: Time 346800, Note Name: D5, Velocity: 68
Note OFF: Time 346920, Note Name: D5
Note ON: Time 346920, Note Name: D#5, Velocity: 70
Note OFF: Time 347040, Note Name: D#5
Note ON: Time 347040, Note Name: E5, Velocity: 72
Note OFF: Time 347160, Note Name: E5
Note ON: Time 347160, Note Name: G5, Velocity: 66
Note OFF: Time 347280, Note Name: G5
Note ON: Time 347280, Note Name: F#5, Velocity: 69
Note OFF: Time 347400, Note Name: F#5
Note ON: Time 347400, Note Name: E5, Velocity: 66
Note OFF: Time 347520, Note Name: E5
Note ON: Time 347520, Note Name: D5, Velocity: 69
Note OFF: Time 347640, Note Name: D5
Note ON: Time 347640, Note Name: G5, Velocity: 64
Note OFF: Time 347760, Note Name: G5
Note ON: Time 347760, Note Name: F#5, Velocity: 67
Note OFF: Time 347880, Note Name: F#5
Note ON: Time 347880, Note Name: G5, Velocity: 63
Note OFF: Time 348000, Note Name: G5
Note ON: Time 348000, Note Name: C#5, Velocity: 69
Note OFF: Time 348480, Note Name: C#5
Note ON: Time 348480, Note Name: A4, Velocity: 63
Note ON: Time 348480, Note Name: C5, Velocity: 75
Note OFF: Time 348720, Note Name: A4
Note ON: Time 348720, Note Name: D#4, Velocity: 68
Note OFF: Time 348960, Note Name: D#4
Note ON: Time 348960, Note Name: F#4, Velocity: 68
Note OFF: Time 349200, Note Name: F#4
Note ON: Time 349200, Note Name: A4, Velocity: 68
Note OFF: Time 349440, Note Name: C5
Note ON: Time 349440, Note Name: B4, Velocity: 75
Note OFF: Time 349680, Note Name: A4
Note ON: Time 349680, Note Name: G4, Velocity: 69
Note OFF: Time 349920, Note Name: G4
Note OFF: Time 349920, Note Name: B4
Note ON: Time 349920, Note Name: C#5, Velocity: 73
Note OFF: Time 350160, Note Name: C#5
Note ON: Time 350160, Note Name: D5, Velocity: 76
Note OFF: Time 350400, Note Name: D5
Note ON: Time 350400, Note Name: G4, Velocity: 66
Note ON: Time 350400, Note Name: E5, Velocity: 78
Note OFF: Time 350640, Note Name: E5
Note OFF: Time 350640, Note Name: G4
Note ON: Time 350640, Note Name: F#5, Velocity: 81
Note OFF: Time 350880, Note Name: F#5
Note ON: Time 350880, Note Name: G5, Velocity: 90
Note OFF: Time 351600, Note Name: G5
Note ON: Time 351600, Note Name: F#5, Velocity: 80
Note OFF: Time 351840, Note Name: F#5
Note ON: Time 351840, Note Name: E5, Velocity: 85
Note OFF: Time 352080, Note Name: E5
Note ON: Time 352080, Note Name: G5, Velocity: 80
Note OFF: Time 352200, Note Name: G5
Note ON: Time 352200, Note Name: F#5, Velocity: 69
Note OFF: Time 352320, Note Name: F#5
Note ON: Time 352320, Note Name: F#4, Velocity: 79
Note OFF: Time 352800, Note Name: F#4
Note ON: Time 353520, Note Name: E5, Velocity: 80
Note OFF: Time 353640, Note Name: E5
Note ON: Time 353640, Note Name: D5, Velocity: 69
Note OFF: Time 353760, Note Name: D5
Note ON: Time 353760, Note Name: D4, Velocity: 79
Note OFF: Time 354240, Note Name: D4
Note ON: Time 354960, Note Name: B5, Velocity: 80
Note OFF: Time 355080, Note Name: B5
Note ON: Time 355080, Note Name: A5, Velocity: 69
Note OFF: Time 355200, Note Name: A5
Note ON: Time 355200, Note Name: F#5, Velocity: 70
Note OFF: Time 355320, Note Name: F#5
Note ON: Time 355320, Note Name: D5, Velocity: 64
Note OFF: Time 355440, Note Name: D5
Note ON: Time 355440, Note Name: C#5, Velocity: 64
Note OFF: Time 355560, Note Name: C#5
Note ON: Time 355560, Note Name: B4, Velocity: 64
Note OFF: Time 355680, Note Name: B4
Note ON: Time 355680, Note Name: A#4, Velocity: 73
Note ON: Time 355680, Note Name: C#4, Velocity: 62
Note OFF: Time 355800, Note Name: C#4
Note ON: Time 355800, Note Name: C4, Velocity: 62
Note OFF: Time 355920, Note Name: C4
Note ON: Time 355920, Note Name: C#4, Velocity: 62
Note OFF: Time 356040, Note Name: C#4
Note ON: Time 356040, Note Name: D#4, Velocity: 62
Note OFF: Time 356160, Note Name: D#4
Note OFF: Time 356160, Note Name: A#4
Note ON: Time 356160, Note Name: A4, Velocity: 69
Note ON: Time 356160, Note Name: E4, Velocity: 58
Note OFF: Time 356280, Note Name: E4
Note ON: Time 356280, Note Name: D#4, Velocity: 60
Note OFF: Time 356400, Note Name: D#4
Note ON: Time 356400, Note Name: E4, Velocity: 60
Note OFF: Time 356520, Note Name: E4
Note ON: Time 356520, Note Name: F#4, Velocity: 60
Note OFF: Time 356640, Note Name: F#4
Note ON: Time 356640, Note Name: G4, Velocity: 68
Note OFF: Time 356760, Note Name: G4
Note ON: Time 356760, Note Name: F#4, Velocity: 61
Note OFF: Time 356880, Note Name: F#4
Note OFF: Time 356880, Note Name: A4
Note ON: Time 356880, Note Name: B4, Velocity: 69
Note ON: Time 356880, Note Name: E4, Velocity: 58
Note OFF: Time 357000, Note Name: E4
Note OFF: Time 357000, Note Name: B4
Note ON: Time 357000, Note Name: D4, Velocity: 62
Note OFF: Time 357120, Note Name: D4
Note ON: Time 357120, Note Name: C#5, Velocity: 74
Note OFF: Time 357240, Note Name: C#5
Note ON: Time 357240, Note Name: C5, Velocity: 63
Note OFF: Time 357360, Note Name: C5
Note ON: Time 357360, Note Name: C#5, Velocity: 63
Note OFF: Time 357480, Note Name: C#5
Note ON: Time 357480, Note Name: D5, Velocity: 63
Note OFF: Time 357600, Note Name: D5
Note ON: Time 357600, Note Name: E5, Velocity: 68
Note OFF: Time 357720, Note Name: E5
Note ON: Time 357720, Note Name: D#5, Velocity: 67
Note OFF: Time 357840, Note Name: D#5
Note ON: Time 357840, Note Name: E5, Velocity: 68
Note OFF: Time 357960, Note Name: E5
Note ON: Time 357960, Note Name: F#5, Velocity: 70
Note OFF: Time 358080, Note Name: F#5
Note ON: Time 358080, Note Name: G5, Velocity: 71
Note OFF: Time 358200, Note Name: G5
Note ON: Time 358200, Note Name: F#5, Velocity: 68
Note OFF: Time 358320, Note Name: F#5
Note ON: Time 358320, Note Name: E5, Velocity: 64
Note OFF: Time 358440, Note Name: E5
Note ON: Time 358440, Note Name: D5, Velocity: 64
Note OFF: Time 358560, Note Name: D5
Note ON: Time 358560, Note Name: C#5, Velocity: 68
Note OFF: Time 358680, Note Name: C#5
Note ON: Time 358680, Note Name: A#4, Velocity: 60
Note OFF: Time 358800, Note Name: A#4
Note ON: Time 358800, Note Name: A4, Velocity: 60
Note OFF: Time 358920, Note Name: A4
Note ON: Time 358920, Note Name: B4, Velocity: 60
Note OFF: Time 359040, Note Name: B4
Note ON: Time 359040, Note Name: C5, Velocity: 68
Note OFF: Time 359160, Note Name: C5
Note ON: Time 359160, Note Name: B4, Velocity: 62
Note OFF: Time 359280, Note Name: B4
Note ON: Time 359280, Note Name: A4, Velocity: 62
Note OFF: Time 359400, Note Name: A4
Note ON: Time 359400, Note Name: G4, Velocity: 62
Note OFF: Time 359520, Note Name: G4
Note ON: Time 359520, Note Name: F#4, Velocity: 68
Note OFF: Time 359640, Note Name: F#4
Note ON: Time 359640, Note Name: G4, Velocity: 64
Note OFF: Time 359760, Note Name: G4
Note ON: Time 359760, Note Name: A4, Velocity: 64
Note OFF: Time 359880, Note Name: A4
Note ON: Time 359880, Note Name: B4, Velocity: 64
Note OFF: Time 360000, Note Name: B4
Note ON: Time 360000, Note Name: C5, Velocity: 77
Note OFF: Time 360080, Note Name: C5
Note ON: Time 360080, Note Name: D5, Velocity: 69
Note OFF: Time 360160, Note Name: D5
Note ON: Time 360160, Note Name: C5, Velocity: 74
Note OFF: Time 360240, Note Name: C5
Note ON: Time 360240, Note Name: D5, Velocity: 68
Note OFF: Time 360320, Note Name: D5
Note ON: Time 360320, Note Name: C5, Velocity: 71
Note OFF: Time 360400, Note Name: C5
Note ON: Time 360400, Note Name: D5, Velocity: 66
Note OFF: Time 360480, Note Name: D5
Note ON: Time 360480, Note Name: C5, Velocity: 70
Note OFF: Time 360560, Note Name: C5
Note ON: Time 360560, Note Name: D5, Velocity: 62
Note OFF: Time 360640, Note Name: D5
Note ON: Time 360640, Note Name: C5, Velocity: 69
Note OFF: Time 360720, Note Name: C5
Note ON: Time 360720, Note Name: D5, Velocity: 63
Note ON: Time 360720, Note Name: E4, Velocity: 57
Note OFF: Time 360800, Note Name: D5
Note ON: Time 360800, Note Name: C5, Velocity: 68
Note OFF: Time 360840, Note Name: E4
Note ON: Time 360840, Note Name: F#4, Velocity: 43
Note OFF: Time 360880, Note Name: C5
Note ON: Time 360880, Note Name: D5, Velocity: 67
Note OFF: Time 360960, Note Name: D5
Note OFF: Time 360960, Note Name: F#4
Note ON: Time 360960, Note Name: G4, Velocity: 64
Note ON: Time 360960, Note Name: B4, Velocity: 64
Note OFF: Time 361440, Note Name: B4
Note OFF: Time 361440, Note Name: G4
Note ON: Time 361440, Note Name: A4, Velocity: 77
Note OFF: Time 361520, Note Name: A4
Note ON: Time 361520, Note Name: B4, Velocity: 69
Note OFF: Time 361600, Note Name: B4
Note ON: Time 361600, Note Name: A4, Velocity: 74
Note OFF: Time 361680, Note Name: A4
Note ON: Time 361680, Note Name: B4, Velocity: 68
Note OFF: Time 361760, Note Name: B4
Note ON: Time 361760, Note Name: A4, Velocity: 71
Note OFF: Time 361840, Note Name: A4
Note ON: Time 361840, Note Name: B4, Velocity: 66
Note OFF: Time 361920, Note Name: B4
Note ON: Time 361920, Note Name: A4, Velocity: 70
Note OFF: Time 362000, Note Name: A4
Note ON: Time 362000, Note Name: B4, Velocity: 62
Note OFF: Time 362080, Note Name: B4
Note ON: Time 362080, Note Name: A4, Velocity: 69
Note OFF: Time 362160, Note Name: A4
Note ON: Time 362160, Note Name: B4, Velocity: 63
Note ON: Time 362160, Note Name: C#4, Velocity: 57
Note OFF: Time 362240, Note Name: B4
Note ON: Time 362240, Note Name: A4, Velocity: 68
Note OFF: Time 362280, Note Name: C#4
Note ON: Time 362280, Note Name: D#4, Velocity: 43
Note OFF: Time 362320, Note Name: A4
Note ON: Time 362320, Note Name: B4, Velocity: 67
Note OFF: Time 362400, Note Name: B4
Note OFF: Time 362400, Note Name: D#4
Note ON: Time 362400, Note Name: G#4, Velocity: 46
Note ON: Time 362400, Note Name: E4, Velocity: 64
Note OFF: Time 362520, Note Name: G#4
Note ON: Time 362520, Note Name: B4, Velocity: 40
Note OFF: Time 362640, Note Name: B4
Note ON: Time 362640, Note Name: G#4, Velocity: 46
Note OFF: Time 362760, Note Name: G#4
Note ON: Time 362760, Note Name: E4, Velocity: 43
Note OFF: Time 362880, Note Name: E4
Note OFF: Time 362880, Note Name: E4
Note ON: Time 362880, Note Name: G4, Velocity: 73
Note OFF: Time 362960, Note Name: G4
Note ON: Time 362960, Note Name: A4, Velocity: 66
Note OFF: Time 363040, Note Name: A4
Note ON: Time 363040, Note Name: G4, Velocity: 70
Note OFF: Time 363120, Note Name: G4
Note ON: Time 363120, Note Name: A4, Velocity: 65
Note OFF: Time 363200, Note Name: A4
Note ON: Time 363200, Note Name: G4, Velocity: 68
Note OFF: Time 363280, Note Name: G4
Note ON: Time 363280, Note Name: A4, Velocity: 63
Note OFF: Time 363360, Note Name: A4
Note ON: Time 363360, Note Name: G4, Velocity: 67
Note OFF: Time 363440, Note Name: G4
Note ON: Time 363440, Note Name: A4, Velocity: 59
Note OFF: Time 363520, Note Name: A4
Note ON: Time 363520, Note Name: G4, Velocity: 66
Note OFF: Time 363600, Note Name: G4
Note ON: Time 363600, Note Name: A4, Velocity: 60
Note ON: Time 363600, Note Name: B3, Velocity: 57
Note OFF: Time 363680, Note Name: A4
Note ON: Time 363680, Note Name: G4, Velocity: 65
Note OFF: Time 363720, Note Name: B3
Note ON: Time 363720, Note Name: C#4, Velocity: 43
Note OFF: Time 363760, Note Name: G4
Note ON: Time 363760, Note Name: A4, Velocity: 64
Note OFF: Time 363840, Note Name: A4
Note OFF: Time 363840, Note Name: C#4
Note ON: Time 363840, Note Name: F#4, Velocity: 52
Note ON: Time 363840, Note Name: D4, Velocity: 64
Note OFF: Time 363960, Note Name: F#4
Note ON: Time 363960, Note Name: A4, Velocity: 46
Note OFF: Time 364080, Note Name: A4
Note ON: Time 364080, Note Name: F#4, Velocity: 52
Note OFF: Time 364200, Note Name: F#4
Note ON: Time 364200, Note Name: D4, Velocity: 49
Note OFF: Time 364320, Note Name: D4
Note OFF: Time 364320, Note Name: D4
Note ON: Time 364320, Note Name: F#4, Velocity: 50
Note OFF: Time 364440, Note Name: F#4
Note ON: Time 364440, Note Name: E4, Velocity: 46
Note OFF: Time 364560, Note Name: E4
Note ON: Time 364560, Note Name: F#4, Velocity: 48
Note OFF: Time 364680, Note Name: F#4
Note ON: Time 364680, Note Name: G4, Velocity: 40
Note OFF: Time 364800, Note Name: G4
Note ON: Time 364800, Note Name: A4, Velocity: 48
Note OFF: Time 364920, Note Name: A4
Note ON: Time 364920, Note Name: B4, Velocity: 50
Note OFF: Time 365040, Note Name: B4
Note ON: Time 365040, Note Name: B5, Velocity: 73
Note ON: Time 365040, Note Name: C#5, Velocity: 60
Note OFF: Time 365160, Note Name: C#5
Note ON: Time 365160, Note Name: D#5, Velocity: 55
Note OFF: Time 365280, Note Name: D#5
Note OFF: Time 365280, Note Name: B5
Note ON: Time 365280, Note Name: E5, Velocity: 83
Note OFF: Time 365520, Note Name: E5
Note ON: Time 365520, Note Name: E6, Velocity: 84
Note OFF: Time 365760, Note Name: E6
Note ON: Time 365760, Note Name: E4, Velocity: 50
Note OFF: Time 365880, Note Name: E4
Note ON: Time 365880, Note Name: D4, Velocity: 46
Note OFF: Time 366000, Note Name: D4
Note ON: Time 366000, Note Name: E4, Velocity: 48
Note OFF: Time 366120, Note Name: E4
Note ON: Time 366120, Note Name: F#4, Velocity: 40
Note OFF: Time 366240, Note Name: F#4
Note ON: Time 366240, Note Name: G4, Velocity: 48
Note OFF: Time 366360, Note Name: G4
Note ON: Time 366360, Note Name: A4, Velocity: 50
Note OFF: Time 366480, Note Name: A4
Note ON: Time 366480, Note Name: A5, Velocity: 73
Note ON: Time 366480, Note Name: B4, Velocity: 61
Note OFF: Time 366600, Note Name: B4
Note ON: Time 366600, Note Name: C#5, Velocity: 55
Note OFF: Time 366720, Note Name: C#5
Note OFF: Time 366720, Note Name: A5
Note ON: Time 366720, Note Name: D5, Velocity: 83
Note OFF: Time 366960, Note Name: D5
Note ON: Time 366960, Note Name: D6, Velocity: 84
Note OFF: Time 367200, Note Name: D6
Note ON: Time 367200, Note Name: D4, Velocity: 50
Note OFF: Time 367320, Note Name: D4
Note ON: Time 367320, Note Name: C4, Velocity: 46
Note OFF: Time 367440, Note Name: C4
Note ON: Time 367440, Note Name: D4, Velocity: 48
Note OFF: Time 367560, Note Name: D4
Note ON: Time 367560, Note Name: D#4, Velocity: 40
Note OFF: Time 367680, Note Name: D#4
Note ON: Time 367680, Note Name: F4, Velocity: 48
Note OFF: Time 367800, Note Name: F4
Note ON: Time 367800, Note Name: G4, Velocity: 50
Note OFF: Time 367920, Note Name: G4
Note ON: Time 367920, Note Name: G5, Velocity: 73
Note ON: Time 367920, Note Name: A4, Velocity: 61
Note OFF: Time 368040, Note Name: A4
Note ON: Time 368040, Note Name: B4, Velocity: 55
Note OFF: Time 368160, Note Name: B4
Note OFF: Time 368160, Note Name: G5
Note ON: Time 368160, Note Name: C5, Velocity: 83
Note OFF: Time 368400, Note Name: C5
Note ON: Time 368400, Note Name: C6, Velocity: 84
Note OFF: Time 368760, Note Name: C6
Note ON: Time 368760, Note Name: E5, Velocity: 78
Note OFF: Time 368880, Note Name: E5
Note ON: Time 368880, Note Name: F5, Velocity: 84
Note OFF: Time 369000, Note Name: F5
Note ON: Time 369000, Note Name: G5, Velocity: 89
Note OFF: Time 369120, Note Name: G5
Note ON: Time 369120, Note Name: G#5, Velocity: 94
Note ON: Time 369240, Note Name: E4, Velocity: 55
Note OFF: Time 369360, Note Name: E4
Note OFF: Time 369360, Note Name: G#5
Note ON: Time 369360, Note Name: F4, Velocity: 57
Note OFF: Time 369480, Note Name: F4
Note ON: Time 369480, Note Name: G4, Velocity: 58
Note OFF: Time 369600, Note Name: G4
Note ON: Time 369600, Note Name: G#4, Velocity: 59
Note ON: Time 369720, Note Name: A#4, Velocity: 61
Note OFF: Time 369840, Note Name: A#4
Note ON: Time 369840, Note Name: C5, Velocity: 62
Note OFF: Time 369960, Note Name: C5
Note ON: Time 369960, Note Name: D5, Velocity: 65
Note OFF: Time 370080, Note Name: D5
Note ON: Time 370080, Note Name: D#5, Velocity: 70
Note OFF: Time 370200, Note Name: G#4
Note ON: Time 370200, Note Name: G4, Velocity: 58
Note OFF: Time 370320, Note Name: G4
Note ON: Time 370320, Note Name: A#4, Velocity: 62
Note ON: Time 370440, Note Name: G#4, Velocity: 58
Note OFF: Time 370464, Note Name: A#4
Note OFF: Time 370560, Note Name: D#5
Note ON: Time 370560, Note Name: G4, Velocity: 62
Note OFF: Time 370584, Note Name: G#4
Note ON: Time 370680, Note Name: F4, Velocity: 55
Note OFF: Time 370704, Note Name: G4
Note ON: Time 370800, Note Name: D#4, Velocity: 55
Note OFF: Time 370824, Note Name: F4
Note ON: Time 370920, Note Name: D4, Velocity: 55
Note OFF: Time 370944, Note Name: D#4
Note ON: Time 371040, Note Name: D#5, Velocity: 62
Note ON: Time 371040, Note Name: D#4, Velocity: 62
Note OFF: Time 371064, Note Name: D4
Note ON: Time 371160, Note Name: D5, Velocity: 58
Note OFF: Time 371184, Note Name: D#5
Note ON: Time 371280, Note Name: C5, Velocity: 58
Note OFF: Time 371304, Note Name: D5
Note ON: Time 371400, Note Name: A#4, Velocity: 58
Note OFF: Time 371424, Note Name: C5
Note OFF: Time 371520, Note Name: A#4
Note ON: Time 371520, Note Name: D#5, Velocity: 62
Note OFF: Time 371640, Note Name: D#5
Note ON: Time 371640, Note Name: A#4, Velocity: 55
Note ON: Time 371760, Note Name: D#5, Velocity: 62
Note OFF: Time 371784, Note Name: A#4
Note ON: Time 371880, Note Name: D5, Velocity: 55
Note OFF: Time 371904, Note Name: D#5
Note OFF: Time 372000, Note Name: D#4
Note ON: Time 372000, Note Name: C5, Velocity: 62
Note OFF: Time 372024, Note Name: D5
Note ON: Time 372120, Note Name: A#4, Velocity: 61
Note OFF: Time 372144, Note Name: C5
Note ON: Time 372240, Note Name: G#4, Velocity: 60
Note OFF: Time 372264, Note Name: A#4
Note ON: Time 372360, Note Name: G4, Velocity: 59
Note OFF: Time 372384, Note Name: G#4
Note OFF: Time 372480, Note Name: G4
Note ON: Time 372480, Note Name: G5, Velocity: 73
Note ON: Time 372480, Note Name: D#5, Velocity: 73
Note ON: Time 372600, Note Name: D5, Velocity: 60
Note OFF: Time 372624, Note Name: D#5
Note ON: Time 372720, Note Name: C5, Velocity: 66
Note OFF: Time 372744, Note Name: D5
Note ON: Time 372840, Note Name: A#4, Velocity: 60
Note OFF: Time 372864, Note Name: C5
Note ON: Time 372960, Note Name: D5, Velocity: 73
Note OFF: Time 372984, Note Name: A#4
Note OFF: Time 373080, Note Name: G5
Note ON: Time 373080, Note Name: F5, Velocity: 66
Note ON: Time 373200, Note Name: G#5, Velocity: 69
Note OFF: Time 373224, Note Name: F5
Note ON: Time 373320, Note Name: G5, Velocity: 62
Note OFF: Time 373344, Note Name: G#5
Note OFF: Time 373440, Note Name: D5
Note ON: Time 373440, Note Name: F5, Velocity: 69
Note OFF: Time 373464, Note Name: G5
Note ON: Time 373560, Note Name: D#5, Velocity: 68
Note OFF: Time 373584, Note Name: F5
Note ON: Time 373680, Note Name: D5, Velocity: 66
Note OFF: Time 373704, Note Name: D#5
Note ON: Time 373800, Note Name: C5, Velocity: 64
Note OFF: Time 373824, Note Name: D5
Note OFF: Time 373920, Note Name: C5
Note ON: Time 373920, Note Name: A#4, Velocity: 69
Note ON: Time 373920, Note Name: F4, Velocity: 69
Note ON: Time 374040, Note Name: G4, Velocity: 55
Note OFF: Time 374064, Note Name: F4
Note ON: Time 374160, Note Name: F4, Velocity: 62
Note OFF: Time 374184, Note Name: G4
Note ON: Time 374280, Note Name: D#4, Velocity: 58
Note OFF: Time 374304, Note Name: F4
Note ON: Time 374400, Note Name: D4, Velocity: 68
Note OFF: Time 374424, Note Name: D#4
Note ON: Time 374520, Note Name: C4, Velocity: 59
Note OFF: Time 374544, Note Name: D4
Note ON: Time 374640, Note Name: D4, Velocity: 59
Note OFF: Time 374664, Note Name: C4
Note ON: Time 374760, Note Name: D#4, Velocity: 59
Note OFF: Time 374784, Note Name: D4
Note ON: Time 374880, Note Name: F4, Velocity: 62
Note OFF: Time 374904, Note Name: D#4
Note OFF: Time 375000, Note Name: A#4
Note ON: Time 375000, Note Name: C5, Velocity: 59
Note ON: Time 375120, Note Name: D5, Velocity: 61
Note OFF: Time 375144, Note Name: C5
Note ON: Time 375240, Note Name: D#5, Velocity: 64
Note OFF: Time 375264, Note Name: D5
Note ON: Time 375360, Note Name: F5, Velocity: 70
Note OFF: Time 375384, Note Name: D#5
Note OFF: Time 375480, Note Name: F4
Note ON: Time 375480, Note Name: G4, Velocity: 60
Note ON: Time 375600, Note Name: G#4, Velocity: 63
Note OFF: Time 375624, Note Name: G4
Note ON: Time 375720, Note Name: A4, Velocity: 65
Note OFF: Time 375744, Note Name: G#4
Note ON: Time 375840, Note Name: A#4, Velocity: 68
Note OFF: Time 375864, Note Name: A4
Note OFF: Time 375960, Note Name: F5
Note ON: Time 375960, Note Name: G5, Velocity: 62
Note ON: Time 376080, Note Name: G#5, Velocity: 67
Note OFF: Time 376104, Note Name: G5
Note ON: Time 376200, Note Name: A5, Velocity: 70
Note OFF: Time 376224, Note Name: G#5
Note ON: Time 376320, Note Name: A#5, Velocity: 72
Note OFF: Time 376344, Note Name: A5
Note OFF: Time 376440, Note Name: A#4
Note ON: Time 376440, Note Name: C5, Velocity: 62
Note ON: Time 376560, Note Name: D5, Velocity: 65
Note OFF: Time 376584, Note Name: C5
Note ON: Time 376680, Note Name: D#5, Velocity: 69
Note OFF: Time 376704, Note Name: D5
Note OFF: Time 376800, Note Name: A#5
Note ON: Time 376800, Note Name: F5, Velocity: 61
Note ON: Time 376800, Note Name: G#5, Velocity: 72
Note OFF: Time 376824, Note Name: D#5
Note ON: Time 376920, Note Name: D#5, Velocity: 57
Note ON: Time 376920, Note Name: G5, Velocity: 68
Note OFF: Time 376944, Note Name: G#5
Note OFF: Time 376944, Note Name: F5
Note ON: Time 377040, Note Name: D5, Velocity: 54
Note ON: Time 377040, Note Name: F5, Velocity: 75
Note OFF: Time 377064, Note Name: D#5
Note OFF: Time 377064, Note Name: G5
Note OFF: Time 377160, Note Name: D5
Note ON: Time 377160, Note Name: D#5, Velocity: 70
Note OFF: Time 377184, Note Name: F5
Note OFF: Time 377280, Note Name: D#5
Note ON: Time 377280, Note Name: C6, Velocity: 87
Note OFF: Time 377520, Note Name: C6
Note ON: Time 377760, Note Name: G#4, Velocity: 75
Note OFF: Time 377840, Note Name: G#4
Note ON: Time 377840, Note Name: A#4, Velocity: 67
Note OFF: Time 377920, Note Name: A#4
Note ON: Time 377920, Note Name: G#4, Velocity: 72
Note OFF: Time 378000, Note Name: G#4
Note ON: Time 378000, Note Name: A#4, Velocity: 62
Note OFF: Time 378080, Note Name: A#4
Note ON: Time 378080, Note Name: G#4, Velocity: 67
Note OFF: Time 378160, Note Name: G#4
Note ON: Time 378160, Note Name: A#4, Velocity: 61
Note OFF: Time 378240, Note Name: A#4
Note ON: Time 378240, Note Name: G#4, Velocity: 67
Note OFF: Time 378320, Note Name: G#4
Note ON: Time 378320, Note Name: A#4, Velocity: 62
Note OFF: Time 378400, Note Name: A#4
Note ON: Time 378400, Note Name: G#4, Velocity: 67
Note OFF: Time 378480, Note Name: G#4
Note ON: Time 378480, Note Name: A#4, Velocity: 61
Note OFF: Time 378560, Note Name: A#4
Note ON: Time 378560, Note Name: G#4, Velocity: 67
Note OFF: Time 378640, Note Name: G#4
Note ON: Time 378640, Note Name: A#4, Velocity: 62
Note OFF: Time 378720, Note Name: A#4
Note ON: Time 378720, Note Name: F5, Velocity: 70
Note ON: Time 378840, Note Name: G5, Velocity: 72
Note OFF: Time 378864, Note Name: F5
Note ON: Time 378960, Note Name: G#5, Velocity: 73
Note OFF: Time 378984, Note Name: G5
Note ON: Time 379080, Note Name: A#5, Velocity: 75
Note OFF: Time 379104, Note Name: G#5
Note ON: Time 379200, Note Name: C6, Velocity: 76
Note OFF: Time 379224, Note Name: A#5
Note OFF: Time 379320, Note Name: C6
Note ON: Time 379320, Note Name: D6, Velocity: 78
Note OFF: Time 379440, Note Name: D6
Note ON: Time 379440, Note Name: D#6, Velocity: 80
Note OFF: Time 379560, Note Name: D#6
Note ON: Time 379560, Note Name: E6, Velocity: 81
Note OFF: Time 379680, Note Name: E6
Note ON: Time 379680, Note Name: F6, Velocity: 83
Note OFF: Time 379800, Note Name: F6
Note ON: Time 379800, Note Name: G6, Velocity: 84
Note OFF: Time 379920, Note Name: G6
Note ON: Time 379920, Note Name: G#6, Velocity: 86
Note OFF: Time 380160, Note Name: G#6
Note ON: Time 380160, Note Name: A#6, Velocity: 100
Note OFF: Time 380400, Note Name: A#6
Note ON: Time 380640, Note Name: G5, Velocity: 75
Note OFF: Time 380720, Note Name: G5
Note ON: Time 380720, Note Name: G#5, Velocity: 67
Note OFF: Time 380800, Note Name: G#5
Note ON: Time 380800, Note Name: G5, Velocity: 72
Note OFF: Time 380880, Note Name: G5
Note ON: Time 380880, Note Name: G#5, Velocity: 62
Note OFF: Time 380960, Note Name: G#5
Note ON: Time 380960, Note Name: G5, Velocity: 67
Note OFF: Time 381040, Note Name: G5
Note ON: Time 381040, Note Name: G#5, Velocity: 61
Note OFF: Time 381120, Note Name: G#5
Note ON: Time 381120, Note Name: G5, Velocity: 67
Note OFF: Time 381200, Note Name: G5
Note ON: Time 381200, Note Name: G#5, Velocity: 62
Note OFF: Time 381280, Note Name: G#5
Note ON: Time 381280, Note Name: G5, Velocity: 67
Note OFF: Time 381360, Note Name: G5
Note ON: Time 381360, Note Name: G#5, Velocity: 61
Note OFF: Time 381440, Note Name: G#5
Note ON: Time 381440, Note Name: G5, Velocity: 67
Note OFF: Time 381520, Note Name: G5
Note ON: Time 381520, Note Name: G#5, Velocity: 62
Note OFF: Time 381600, Note Name: G#5
Note ON: Time 381600, Note Name: D#5, Velocity: 70
Note ON: Time 381720, Note Name: F5, Velocity: 72
Note OFF: Time 381744, Note Name: D#5
Note ON: Time 381840, Note Name: G5, Velocity: 73
Note OFF: Time 381864, Note Name: F5
Note ON: Time 381960, Note Name: G#5, Velocity: 75
Note OFF: Time 381984, Note Name: G5
Note ON: Time 382080, Note Name: A#5, Velocity: 76
Note OFF: Time 382104, Note Name: G#5
Note OFF: Time 382200, Note Name: A#5
Note ON: Time 382200, Note Name: C6, Velocity: 78
Note OFF: Time 382320, Note Name: C6
Note ON: Time 382320, Note Name: C#6, Velocity: 80
Note OFF: Time 382440, Note Name: C#6
Note ON: Time 382440, Note Name: D6, Velocity: 81
Note OFF: Time 382560, Note Name: D6
Note ON: Time 382560, Note Name: D#6, Velocity: 83
Note OFF: Time 382680, Note Name: D#6
Note ON: Time 382680, Note Name: F6, Velocity: 84
Note OFF: Time 382800, Note Name: F6
Note ON: Time 382800, Note Name: F#6, Velocity: 86
Note OFF: Time 382920, Note Name: F#6
Note ON: Time 382920, Note Name: G6, Velocity: 88
Note OFF: Time 383040, Note Name: G6
Note ON: Time 383040, Note Name: G#6, Velocity: 90
Note ON: Time 383040, Note Name: A#5, Velocity: 70
Note OFF: Time 383160, Note Name: G#6
Note ON: Time 383160, Note Name: G#5, Velocity: 76
Note OFF: Time 383184, Note Name: A#5
Note ON: Time 383280, Note Name: G5, Velocity: 73
Note OFF: Time 383304, Note Name: G#5
Note ON: Time 383400, Note Name: F5, Velocity: 73
Note OFF: Time 383424, Note Name: G5
Note OFF: Time 383518, Note Name: F5
Note ON: Time 383520, Note Name: F5, Velocity: 72
Note ON: Time 383520, Note Name: D#5, Velocity: 72
Note OFF: Time 383640, Note Name: D#5
Note ON: Time 383640, Note Name: D5, Velocity: 72
Note OFF: Time 383760, Note Name: D5
Note ON: Time 383760, Note Name: C5, Velocity: 71
Note OFF: Time 383880, Note Name: C5
Note ON: Time 383880, Note Name: A#4, Velocity: 70
Note OFF: Time 384000, Note Name: A#4
Note ON: Time 384000, Note Name: A4, Velocity: 70
Note OFF: Time 384120, Note Name: A4
Note ON: Time 384120, Note Name: A#4, Velocity: 65
Note OFF: Time 384240, Note Name: A#4
Note ON: Time 384240, Note Name: F4, Velocity: 68
Note OFF: Time 384360, Note Name: F4
Note ON: Time 384360, Note Name: G#4, Velocity: 63
Note OFF: Time 384480, Note Name: G#4
Note OFF: Time 384480, Note Name: F5
Note ON: Time 384480, Note Name: G4, Velocity: 90
Note OFF: Time 384600, Note Name: G4
Note ON: Time 384600, Note Name: A#5, Velocity: 73
Note ON: Time 384720, Note Name: C6, Velocity: 74
Note OFF: Time 384744, Note Name: A#5
Note ON: Time 384840, Note Name: D6, Velocity: 75
Note OFF: Time 384864, Note Name: C6
Note ON: Time 384960, Note Name: A#5, Velocity: 77
Note ON: Time 384960, Note Name: D#6, Velocity: 77
Note OFF: Time 384984, Note Name: D6
Note OFF: Time 385080, Note Name: D#6
Note ON: Time 385080, Note Name: D6, Velocity: 78
Note OFF: Time 385200, Note Name: D6
Note ON: Time 385200, Note Name: D#6, Velocity: 79
Note OFF: Time 385320, Note Name: D#6
Note ON: Time 385320, Note Name: F6, Velocity: 81
Note OFF: Time 385440, Note Name: F6
Note ON: Time 385440, Note Name: G6, Velocity: 82
Note OFF: Time 385560, Note Name: G6
Note ON: Time 385560, Note Name: F6, Velocity: 83
Note OFF: Time 385680, Note Name: F6
Note ON: Time 385680, Note Name: G6, Velocity: 85
Note OFF: Time 385800, Note Name: G6
Note ON: Time 385800, Note Name: G#6, Velocity: 86
Note OFF: Time 385920, Note Name: G#6
Note OFF: Time 385920, Note Name: A#5
Note ON: Time 385920, Note Name: A#6, Velocity: 90
Note OFF: Time 386040, Note Name: A#6
Note ON: Time 386160, Note Name: G#5, Velocity: 73
Note ON: Time 386280, Note Name: G5, Velocity: 73
Note OFF: Time 386304, Note Name: G#5
Note OFF: Time 386398, Note Name: G5
Note ON: Time 386400, Note Name: G5, Velocity: 72
Note ON: Time 386400, Note Name: F5, Velocity: 72
Note OFF: Time 386520, Note Name: F5
Note ON: Time 386520, Note Name: E5, Velocity: 72
Note OFF: Time 386640, Note Name: E5
Note ON: Time 386640, Note Name: C#5, Velocity: 71
Note OFF: Time 386760, Note Name: C#5
Note ON: Time 386760, Note Name: C5, Velocity: 70
Note OFF: Time 386880, Note Name: C5
Note ON: Time 386880, Note Name: B4, Velocity: 70
Note OFF: Time 387000, Note Name: B4
Note ON: Time 387000, Note Name: C5, Velocity: 65
Note OFF: Time 387120, Note Name: C5
Note ON: Time 387120, Note Name: G4, Velocity: 68
Note OFF: Time 387240, Note Name: G4
Note ON: Time 387240, Note Name: A#4, Velocity: 63
Note OFF: Time 387360, Note Name: A#4
Note OFF: Time 387360, Note Name: G5
Note ON: Time 387360, Note Name: G#4, Velocity: 90
Note OFF: Time 387480, Note Name: G#4
Note ON: Time 387600, Note Name: C6, Velocity: 74
Note ON: Time 387720, Note Name: E6, Velocity: 75
Note OFF: Time 387744, Note Name: C6
Note ON: Time 387840, Note Name: C6, Velocity: 77
Note ON: Time 387840, Note Name: F6, Velocity: 77
Note OFF: Time 387864, Note Name: E6
Note OFF: Time 387960, Note Name: F6
Note ON: Time 387960, Note Name: G6, Velocity: 78
Note OFF: Time 388080, Note Name: G6
Note ON: Time 388080, Note Name: G#6, Velocity: 79
Note OFF: Time 388200, Note Name: G#6
Note ON: Time 388200, Note Name: G6, Velocity: 81
Note OFF: Time 388320, Note Name: G6
Note ON: Time 388320, Note Name: F6, Velocity: 79
Note OFF: Time 388440, Note Name: F6
Note ON: Time 388440, Note Name: D#6, Velocity: 77
Note OFF: Time 388560, Note Name: D#6
Note OFF: Time 388560, Note Name: C6
Note ON: Time 388560, Note Name: F#5, Velocity: 75
Note ON: Time 388560, Note Name: D6, Velocity: 75
Note OFF: Time 388680, Note Name: D6
Note ON: Time 388680, Note Name: C6, Velocity: 73
Note OFF: Time 388800, Note Name: C6
Note OFF: Time 388800, Note Name: F#5
Note ON: Time 388800, Note Name: B5, Velocity: 79
Note ON: Time 388800, Note Name: G5, Velocity: 73
Note OFF: Time 389040, Note Name: G5
Note OFF: Time 389040, Note Name: B5
Note ON: Time 389040, Note Name: D5, Velocity: 73
Note OFF: Time 389160, Note Name: D5
Note ON: Time 389280, Note Name: B3, Velocity: 73
Note OFF: Time 389340, Note Name: B3
Note ON: Time 389340, Note Name: C4, Velocity: 68
Note OFF: Time 389400, Note Name: C4
Note ON: Time 389400, Note Name: B3, Velocity: 73
Note OFF: Time 389460, Note Name: B3
Note ON: Time 389460, Note Name: C4, Velocity: 66
Note OFF: Time 389520, Note Name: C4
Note ON: Time 389520, Note Name: G3, Velocity: 73
Note OFF: Time 389640, Note Name: G3
Note ON: Time 389760, Note Name: B4, Velocity: 73
Note OFF: Time 389820, Note Name: B4
Note ON: Time 389820, Note Name: C5, Velocity: 68
Note OFF: Time 389880, Note Name: C5
Note ON: Time 389880, Note Name: B4, Velocity: 73
Note OFF: Time 389940, Note Name: B4
Note ON: Time 389940, Note Name: C5, Velocity: 66
Note OFF: Time 390000, Note Name: C5
Note ON: Time 390000, Note Name: G5, Velocity: 73
Note OFF: Time 390120, Note Name: G5
Note ON: Time 390240, Note Name: D#4, Velocity: 73
Note OFF: Time 390300, Note Name: D#4
Note ON: Time 390300, Note Name: F4, Velocity: 68
Note OFF: Time 390360, Note Name: F4
Note ON: Time 390360, Note Name: D#4, Velocity: 73
Note OFF: Time 390420, Note Name: D#4
Note ON: Time 390420, Note Name: F4, Velocity: 66
Note OFF: Time 390480, Note Name: F4
Note ON: Time 390480, Note Name: C4, Velocity: 73
Note OFF: Time 390600, Note Name: C4
Note ON: Time 390720, Note Name: D#5, Velocity: 75
Note OFF: Time 390780, Note Name: D#5
Note ON: Time 390780, Note Name: F5, Velocity: 70
Note OFF: Time 390840, Note Name: F5
Note ON: Time 390840, Note Name: D#5, Velocity: 75
Note OFF: Time 390900, Note Name: D#5
Note ON: Time 390900, Note Name: F5, Velocity: 68
Note OFF: Time 390960, Note Name: F5
Note ON: Time 390960, Note Name: C6, Velocity: 75
Note OFF: Time 391080, Note Name: C6
Note ON: Time 391200, Note Name: A4, Velocity: 77
Note OFF: Time 391260, Note Name: A4
Note ON: Time 391260, Note Name: A#4, Velocity: 72
Note OFF: Time 391320, Note Name: A#4
Note ON: Time 391320, Note Name: A4, Velocity: 78
Note OFF: Time 391380, Note Name: A4
Note ON: Time 391380, Note Name: A#4, Velocity: 70
Note OFF: Time 391440, Note Name: A#4
Note ON: Time 391440, Note Name: D4, Velocity: 78
Note OFF: Time 391560, Note Name: D4
Note ON: Time 391680, Note Name: F#5, Velocity: 79
Note OFF: Time 391740, Note Name: F#5
Note ON: Time 391740, Note Name: G5, Velocity: 74
Note OFF: Time 391800, Note Name: G5
Note ON: Time 391800, Note Name: F#5, Velocity: 80
Note OFF: Time 391860, Note Name: F#5
Note ON: Time 391860, Note Name: G5, Velocity: 72
Note OFF: Time 391920, Note Name: G5
Note ON: Time 391920, Note Name: D6, Velocity: 81
Note OFF: Time 392040, Note Name: D6
Note ON: Time 392160, Note Name: A#4, Velocity: 81
Note OFF: Time 392400, Note Name: A#4
Note ON: Time 392400, Note Name: G4, Velocity: 83
Note OFF: Time 392520, Note Name: G4
Note ON: Time 392640, Note Name: A#5, Velocity: 83
Note OFF: Time 392700, Note Name: A#5
Note ON: Time 392700, Note Name: C6, Velocity: 78
Note OFF: Time 392760, Note Name: C6
Note ON: Time 392760, Note Name: A#5, Velocity: 84
Note OFF: Time 392820, Note Name: A#5
Note ON: Time 392820, Note Name: C6, Velocity: 77
Note OFF: Time 392880, Note Name: C6
Note ON: Time 392880, Note Name: G6, Velocity: 86
Note OFF: Time 393000, Note Name: G6
Note ON: Time 393120, Note Name: E5, Velocity: 88
Note OFF: Time 393180, Note Name: E5
Note ON: Time 393180, Note Name: F5, Velocity: 82
Note OFF: Time 393240, Note Name: F5
Note ON: Time 393240, Note Name: E5, Velocity: 89
Note OFF: Time 393300, Note Name: E5
Note ON: Time 393300, Note Name: F5, Velocity: 81
Note OFF: Time 393360, Note Name: F5
Note ON: Time 393360, Note Name: C#5, Velocity: 90
Note OFF: Time 393480, Note Name: C#5
Note ON: Time 393600, Note Name: E6, Velocity: 92
Note OFF: Time 393660, Note Name: E6
Note ON: Time 393660, Note Name: F6, Velocity: 86
Note OFF: Time 393720, Note Name: F6
Note ON: Time 393720, Note Name: E6, Velocity: 93
Note OFF: Time 393780, Note Name: E6
Note ON: Time 393780, Note Name: F6, Velocity: 85
Note OFF: Time 393840, Note Name: F6
Note ON: Time 393840, Note Name: A5, Velocity: 93
Note ON: Time 393840, Note Name: A6, Velocity: 93
Note OFF: Time 393960, Note Name: A6
Note OFF: Time 393960, Note Name: A5
Note ON: Time 394080, Note Name: F6, Velocity: 94
Note ON: Time 394080, Note Name: F5, Velocity: 79
Note OFF: Time 394200, Note Name: F5
Note OFF: Time 394200, Note Name: F6
Note ON: Time 394320, Note Name: D6, Velocity: 95
Note ON: Time 394320, Note Name: D5, Velocity: 80
Note OFF: Time 394440, Note Name: D5
Note OFF: Time 394440, Note Name: D6
Note ON: Time 394560, Note Name: A5, Velocity: 97
Note ON: Time 394560, Note Name: A4, Velocity: 82
Note OFF: Time 394680, Note Name: A4
Note OFF: Time 394680, Note Name: A5
Note ON: Time 394800, Note Name: F5, Velocity: 98
Note ON: Time 394800, Note Name: F4, Velocity: 83
Note OFF: Time 394920, Note Name: F4
Note OFF: Time 394920, Note Name: F5
Note ON: Time 395040, Note Name: D5, Velocity: 101
Note ON: Time 395040, Note Name: D4, Velocity: 85
Note OFF: Time 395160, Note Name: D4
Note OFF: Time 395160, Note Name: D5
Note ON: Time 395280, Note Name: A4, Velocity: 93
Note ON: Time 395280, Note Name: A3, Velocity: 78
Note OFF: Time 395400, Note Name: A3
Note OFF: Time 395400, Note Name: A4
Note ON: Time 395520, Note Name: G#3, Velocity: 80
Note ON: Time 395520, Note Name: D4, Velocity: 80
Note ON: Time 395520, Note Name: G#4, Velocity: 95
Note OFF: Time 395640, Note Name: G#4
Note OFF: Time 395640, Note Name: D4
Note OFF: Time 395640, Note Name: G#3
Note ON: Time 395760, Note Name: G#5, Velocity: 96
Note ON: Time 395760, Note Name: D5, Velocity: 81
Note ON: Time 395760, Note Name: G#4, Velocity: 81
Note OFF: Time 395880, Note Name: G#4
Note OFF: Time 395880, Note Name: D5
Note OFF: Time 395880, Note Name: G#5
Note ON: Time 396000, Note Name: A5, Velocity: 98
Note ON: Time 396000, Note Name: C#5, Velocity: 82
Note ON: Time 396000, Note Name: A4, Velocity: 82
Note OFF: Time 396120, Note Name: A4
Note OFF: Time 396120, Note Name: C#5
Note OFF: Time 396120, Note Name: A5
Note ON: Time 396480, Note Name: A6, Velocity: 110
Note ON: Time 396480, Note Name: E6, Velocity: 93
Note ON: Time 396480, Note Name: C#6, Velocity: 93
Note ON: Time 396480, Note Name: A5, Velocity: 93
Note OFF: Time 396600, Note Name: A5
Note OFF: Time 396600, Note Name: A6
Note OFF: Time 396600, Note Name: E6
Note OFF: Time 396600, Note Name: C#6
Note ON: Time 399360, Note Name: A4, Velocity: 50
Note ON: Time 399840, Note Name: G4, Velocity: 45
Note OFF: Time 399864, Note Name: A4
Note ON: Time 400320, Note Name: F#4, Velocity: 50
Note OFF: Time 400344, Note Name: G4
Note ON: Time 400800, Note Name: G4, Velocity: 46
Note OFF: Time 400824, Note Name: F#4
Note ON: Time 401280, Note Name: A4, Velocity: 46
Note OFF: Time 401304, Note Name: G4
Note OFF: Time 401760, Note Name: A4
Note ON: Time 401760, Note Name: D4, Velocity: 50
Note OFF: Time 402240, Note Name: D4
Note ON: Time 402240, Note Name: D4, Velocity: 44
Note ON: Time 402240, Note Name: E4, Velocity: 44
Note ON: Time 402720, Note Name: C4, Velocity: 44
Note ON: Time 402720, Note Name: F#4, Velocity: 44
Note OFF: Time 402744, Note Name: E4
Note OFF: Time 402744, Note Name: D4
Note OFF: Time 403200, Note Name: C4
Note OFF: Time 403200, Note Name: F#4
Note ON: Time 403200, Note Name: G4, Velocity: 50
Note ON: Time 403200, Note Name: B3, Velocity: 50
Note ON: Time 403680, Note Name: C#4, Velocity: 41
Note OFF: Time 403704, Note Name: B3
Note OFF: Time 404160, Note Name: G4
Note ON: Time 404160, Note Name: F#4, Velocity: 44
Note ON: Time 404160, Note Name: D4, Velocity: 44
Note OFF: Time 404184, Note Name: C#4
Note OFF: Time 404640, Note Name: F#4
Note ON: Time 404640, Note Name: E4, Velocity: 50
Note OFF: Time 405120, Note Name: D4
Note ON: Time 405120, Note Name: C#4, Velocity: 42
Note OFF: Time 405600, Note Name: E4
Note ON: Time 405600, Note Name: A4, Velocity: 47
Note OFF: Time 406080, Note Name: C#4
Note ON: Time 406080, Note Name: D#4, Velocity: 48
Note ON: Time 406560, Note Name: E4, Velocity: 47
Note OFF: Time 406584, Note Name: D#4
Note ON: Time 407040, Note Name: F#4, Velocity: 48
Note OFF: Time 407064, Note Name: E4
Note OFF: Time 407520, Note Name: A4
Note ON: Time 407520, Note Name: B4, Velocity: 52
Note OFF: Time 408000, Note Name: F#4
Note ON: Time 408000, Note Name: C#5, Velocity: 54
Note ON: Time 408000, Note Name: E4, Velocity: 45
Note OFF: Time 408024, Note Name: B4
Note OFF: Time 408480, Note Name: E4
Note ON: Time 408480, Note Name: D5, Velocity: 54
Note ON: Time 408480, Note Name: D4, Velocity: 45
Note OFF: Time 408504, Note Name: C#5
Note OFF: Time 408960, Note Name: D5
Note ON: Time 408960, Note Name: A4, Velocity: 50
Note OFF: Time 409440, Note Name: A4
Note OFF: Time 409440, Note Name: D4
Note ON: Time 409440, Note Name: G4, Velocity: 47
Note ON: Time 409440, Note Name: E4, Velocity: 47
Note OFF: Time 409920, Note Name: E4
Note OFF: Time 409920, Note Name: G4
Note ON: Time 409920, Note Name: F#4, Velocity: 47
Note ON: Time 409920, Note Name: A3, Velocity: 39
Note OFF: Time 410400, Note Name: A3
Note ON: Time 410400, Note Name: A#3, Velocity: 50
Note OFF: Time 410880, Note Name: A#3
Note OFF: Time 410880, Note Name: F#4
Note ON: Time 410880, Note Name: E4, Velocity: 46
Note ON: Time 410880, Note Name: B3, Velocity: 46
Note OFF: Time 411360, Note Name: B3
Note ON: Time 411360, Note Name: C#4, Velocity: 46
Note OFF: Time 411840, Note Name: C#4
Note ON: Time 411840, Note Name: D4, Velocity: 50
Note OFF: Time 412320, Note Name: D4
Note OFF: Time 412320, Note Name: E4
Note ON: Time 412320, Note Name: A4, Velocity: 51
Note ON: Time 412320, Note Name: E5, Velocity: 60
Note ON: Time 412800, Note Name: B4, Velocity: 45
Note ON: Time 412800, Note Name: D5, Velocity: 54
Note OFF: Time 412824, Note Name: E5
Note OFF: Time 412824, Note Name: A4
Note ON: Time 413280, Note Name: C#5, Velocity: 58
Note OFF: Time 413304, Note Name: D5
Note OFF: Time 413760, Note Name: B4
Note ON: Time 413760, Note Name: A4, Velocity: 42
Note ON: Time 413760, Note Name: D5, Velocity: 53
Note OFF: Time 413784, Note Name: C#5
Note ON: Time 414240, Note Name: G4, Velocity: 42
Note ON: Time 414240, Note Name: E5, Velocity: 53
Note OFF: Time 414264, Note Name: D5
Note OFF: Time 414264, Note Name: A4
Note OFF: Time 414720, Note Name: G4
Note OFF: Time 414720, Note Name: E5
Note ON: Time 414720, Note Name: F#4, Velocity: 42
Note ON: Time 414720, Note Name: A4, Velocity: 50
Note ON: Time 415200, Note Name: G4, Velocity: 39
Note ON: Time 415200, Note Name: B4, Velocity: 46
Note OFF: Time 415224, Note Name: A4
Note OFF: Time 415224, Note Name: F#4
Note ON: Time 415680, Note Name: A4, Velocity: 39
Note ON: Time 415680, Note Name: C5, Velocity: 46
Note OFF: Time 415704, Note Name: G4
Note OFF: Time 415704, Note Name: B4
Note ON: Time 416160, Note Name: D5, Velocity: 52
Note ON: Time 416160, Note Name: D4, Velocity: 42
Note OFF: Time 416184, Note Name: A4
Note OFF: Time 416184, Note Name: C5
Note ON: Time 416640, Note Name: E4, Velocity: 44
Note OFF: Time 416664, Note Name: D4
Note OFF: Time 417120, Note Name: D5
Note ON: Time 417120, Note Name: C#5, Velocity: 52
Note ON: Time 417120, Note Name: F#4, Velocity: 44
Note OFF: Time 417144, Note Name: E4
Note OFF: Time 417600, Note Name: F#4
Note ON: Time 417600, Note Name: G4, Velocity: 50
Note OFF: Time 418080, Note Name: C#5
Note ON: Time 418080, Note Name: B4, Velocity: 46
Note OFF: Time 418560, Note Name: B4
Note OFF: Time 418560, Note Name: G4
Note ON: Time 418560, Note Name: F#4, Velocity: 39
Note ON: Time 418560, Note Name: A4, Velocity: 46
Note ON: Time 419520, Note Name: E4, Velocity: 39
Note ON: Time 419520, Note Name: G4, Velocity: 46
Note OFF: Time 419544, Note Name: A4
Note OFF: Time 419544, Note Name: F#4
Note ON: Time 420000, Note Name: D4, Velocity: 39
Note ON: Time 420000, Note Name: F#4, Velocity: 46
Note OFF: Time 420024, Note Name: E4
Note OFF: Time 420024, Note Name: G4
Note ON: Time 420480, Note Name: E4, Velocity: 50
Note OFF: Time 420504, Note Name: F#4
Note OFF: Time 420960, Note Name: D4
Note ON: Time 420960, Note Name: C#4, Velocity: 44
Note OFF: Time 421440, Note Name: E4
Note ON: Time 421440, Note Name: A4, Velocity: 54
Note OFF: Time 421920, Note Name: C#4
Note ON: Time 421920, Note Name: D#4, Velocity: 48
Note OFF: Time 422400, Note Name: A4
Note ON: Time 422400, Note Name: F#4, Velocity: 48
Note OFF: Time 422880, Note Name: F#4
Note ON: Time 422880, Note Name: B4, Velocity: 54
Note OFF: Time 423360, Note Name: D#4
Note ON: Time 423360, Note Name: E4, Velocity: 54
Note OFF: Time 423840, Note Name: E4
Note OFF: Time 423840, Note Name: B4
Note ON: Time 423840, Note Name: E5, Velocity: 67
Note ON: Time 424320, Note Name: D5, Velocity: 63
Note OFF: Time 424344, Note Name: E5
Note ON: Time 424800, Note Name: C#5, Velocity: 59
Note OFF: Time 424824, Note Name: D5
Note OFF: Time 425280, Note Name: C#5
Note ON: Time 425280, Note Name: F#5, Velocity: 64
Note ON: Time 425760, Note Name: E5, Velocity: 57
Note OFF: Time 425784, Note Name: F#5
Note ON: Time 426240, Note Name: D5, Velocity: 57
Note OFF: Time 426264, Note Name: E5
Note OFF: Time 426720, Note Name: D5
Note ON: Time 426720, Note Name: A5, Velocity: 71
Note ON: Time 427200, Note Name: G5, Velocity: 68
Note OFF: Time 427224, Note Name: A5
Note ON: Time 427680, Note Name: F#5, Velocity: 67
Note OFF: Time 427704, Note Name: G5
Note OFF: Time 428160, Note Name: F#5
Note ON: Time 428160, Note Name: B4, Velocity: 53
Note ON: Time 428160, Note Name: D#5, Velocity: 63
Note OFF: Time 428640, Note Name: D#5
Note OFF: Time 428640, Note Name: B4
Note ON: Time 428640, Note Name: A4, Velocity: 46
Note ON: Time 428640, Note Name: F#5, Velocity: 56
Note OFF: Time 429120, Note Name: F#5
Note OFF: Time 429120, Note Name: A4
Note ON: Time 429120, Note Name: G4, Velocity: 51
Note ON: Time 429120, Note Name: B4, Velocity: 62
Note OFF: Time 429600, Note Name: B4
Note OFF: Time 429600, Note Name: G4
Note ON: Time 429600, Note Name: F#4, Velocity: 42
Note ON: Time 429600, Note Name: A4, Velocity: 50
Note ON: Time 430080, Note Name: G#4, Velocity: 42
Note ON: Time 430080, Note Name: B4, Velocity: 49
Note OFF: Time 430104, Note Name: A4
Note OFF: Time 430104, Note Name: F#4
Note ON: Time 430560, Note Name: A4, Velocity: 50
Note ON: Time 430560, Note Name: C#5, Velocity: 57
Note OFF: Time 430584, Note Name: G#4
Note OFF: Time 430584, Note Name: B4
Note OFF: Time 431040, Note Name: A4
Note OFF: Time 431040, Note Name: C#5
Note ON: Time 431040, Note Name: B4, Velocity: 44
Note ON: Time 431040, Note Name: D5, Velocity: 61
Note ON: Time 431520, Note Name: E5, Velocity: 62
Note ON: Time 431520, Note Name: C#5, Velocity: 44
Note OFF: Time 431544, Note Name: D5
Note OFF: Time 431544, Note Name: B4
Note ON: Time 432000, Note Name: A4, Velocity: 55
Note OFF: Time 432024, Note Name: C#5
Note OFF: Time 432480, Note Name: A4
Note OFF: Time 432480, Note Name: E5
Note ON: Time 432480, Note Name: F4, Velocity: 49
Note ON: Time 432480, Note Name: D5, Velocity: 58
Note ON: Time 432960, Note Name: E4, Velocity: 46
Note ON: Time 432960, Note Name: C#5, Velocity: 54
Note OFF: Time 432984, Note Name: D5
Note OFF: Time 432984, Note Name: F4
Note ON: Time 433440, Note Name: D4, Velocity: 44
Note ON: Time 433440, Note Name: B4, Velocity: 52
Note OFF: Time 433464, Note Name: E4
Note OFF: Time 433464, Note Name: C#5
Note OFF: Time 435360, Note Name: D4
Note OFF: Time 435360, Note Name: B4
Note ON: Time 435360, Note Name: C#4, Velocity: 45
Note ON: Time 435360, Note Name: A4, Velocity: 53
Note OFF: Time 435840, Note Name: A4
Note OFF: Time 435840, Note Name: C#4
Note ON: Time 435840, Note Name: D#4, Velocity: 46
Note ON: Time 435840, Note Name: C5, Velocity: 55
Note OFF: Time 436800, Note Name: C5
Note OFF: Time 436800, Note Name: D#4
Note ON: Time 436800, Note Name: E4, Velocity: 45
Note ON: Time 436800, Note Name: B4, Velocity: 54
Note OFF: Time 437280, Note Name: B4
Note OFF: Time 437280, Note Name: E4
Note ON: Time 437280, Note Name: G4, Velocity: 42
Note ON: Time 437280, Note Name: C#5, Velocity: 53
Note OFF: Time 438240, Note Name: C#5
Note OFF: Time 438240, Note Name: G4
Note ON: Time 438240, Note Name: F#4, Velocity: 45
Note ON: Time 438240, Note Name: D5, Velocity: 57
Note OFF: Time 438720, Note Name: D5
Note OFF: Time 438720, Note Name: F#4
Note ON: Time 438720, Note Name: D#5, Velocity: 54
Note ON: Time 438720, Note Name: G4, Velocity: 45
Note OFF: Time 439200, Note Name: G4
Note OFF: Time 439680, Note Name: D#5
Note ON: Time 439680, Note Name: D5, Velocity: 58
Note OFF: Time 440160, Note Name: D5
Note ON: Time 440160, Note Name: C#5, Velocity: 55
Note OFF: Time 440640, Note Name: C#5
Note ON: Time 440640, Note Name: C5, Velocity: 55
Note OFF: Time 440880, Note Name: C5
Note ON: Time 441120, Note Name: A4, Velocity: 50
Note ON: Time 441120, Note Name: F5, Velocity: 50
Note OFF: Time 441200, Note Name: A4
Note ON: Time 441200, Note Name: A#4, Velocity: 44
Note OFF: Time 441280, Note Name: A#4
Note ON: Time 441280, Note Name: A4, Velocity: 50
Note OFF: Time 441360, Note Name: A4
Note ON: Time 441360, Note Name: A#4, Velocity: 44
Note OFF: Time 441440, Note Name: A#4
Note ON: Time 441440, Note Name: A4, Velocity: 50
Note OFF: Time 441520, Note Name: A4
Note ON: Time 441520, Note Name: A#4, Velocity: 44
Note OFF: Time 441600, Note Name: A#4
Note OFF: Time 441600, Note Name: F5
Note ON: Time 441600, Note Name: A4, Velocity: 50
Note ON: Time 441600, Note Name: D#5, Velocity: 45
Note OFF: Time 441680, Note Name: A4
Note ON: Time 441680, Note Name: A#4, Velocity: 45
Note OFF: Time 441760, Note Name: A#4
Note ON: Time 441760, Note Name: A4, Velocity: 50
Note OFF: Time 441840, Note Name: A4
Note ON: Time 441840, Note Name: A#4, Velocity: 49
Note OFF: Time 441900, Note Name: A#4
Note ON: Time 441900, Note Name: A4, Velocity: 46
Note OFF: Time 441960, Note Name: A4
Note ON: Time 441960, Note Name: G4, Velocity: 46
Note OFF: Time 442020, Note Name: G4
Note ON: Time 442020, Note Name: A4, Velocity: 46
Note OFF: Time 442080, Note Name: A4
Note OFF: Time 442080, Note Name: D#5
Note ON: Time 442080, Note Name: D5, Velocity: 50
Note ON: Time 442560, Note Name: D#5, Velocity: 46
Note OFF: Time 442584, Note Name: D5
Note ON: Time 442800, Note Name: A#4, Velocity: 43
Note ON: Time 442920, Note Name: A4, Velocity: 39
Note OFF: Time 442944, Note Name: A#4
Note ON: Time 443040, Note Name: G4, Velocity: 42
Note ON: Time 443040, Note Name: F5, Velocity: 46
Note OFF: Time 443064, Note Name: A4
Note OFF: Time 443064, Note Name: D#5
Note ON: Time 443160, Note Name: F4, Velocity: 41
Note OFF: Time 443184, Note Name: G4
Note ON: Time 443280, Note Name: D#4, Velocity: 39
Note OFF: Time 443304, Note Name: F4
Note ON: Time 443400, Note Name: D4, Velocity: 37
Note OFF: Time 443424, Note Name: D#4
Note OFF: Time 443520, Note Name: D4
Note OFF: Time 443520, Note Name: F5
Note ON: Time 443520, Note Name: G4, Velocity: 50
Note ON: Time 443520, Note Name: B4, Velocity: 50
Note OFF: Time 444000, Note Name: B4
Note OFF: Time 444000, Note Name: G4
Note ON: Time 444000, Note Name: C5, Velocity: 44
Note ON: Time 444240, Note Name: G4, Velocity: 40
Note ON: Time 444360, Note Name: F4, Velocity: 38
Note OFF: Time 444384, Note Name: G4
Note ON: Time 444480, Note Name: D#4, Velocity: 40
Note ON: Time 444480, Note Name: D5, Velocity: 44
Note OFF: Time 444504, Note Name: F4
Note OFF: Time 444504, Note Name: C5
Note ON: Time 444600, Note Name: D4, Velocity: 40
Note OFF: Time 444624, Note Name: D#4
Note ON: Time 444720, Note Name: C4, Velocity: 39
Note OFF: Time 444744, Note Name: D4
Note ON: Time 444840, Note Name: B3, Velocity: 38
Note OFF: Time 444864, Note Name: C4
Note OFF: Time 444960, Note Name: B3
Note OFF: Time 444960, Note Name: D5
Note ON: Time 444960, Note Name: D4, Velocity: 46
Note ON: Time 444960, Note Name: B4, Velocity: 55
Note OFF: Time 445200, Note Name: B4
Note OFF: Time 445440, Note Name: D4
Note ON: Time 445440, Note Name: G4, Velocity: 50
Note OFF: Time 445920, Note Name: G4
Note ON: Time 445920, Note Name: F4, Velocity: 46
Note OFF: Time 446400, Note Name: F4
Note ON: Time 446400, Note Name: E4, Velocity: 53
Note ON: Time 446880, Note Name: F4, Velocity: 50
Note OFF: Time 446904, Note Name: E4
Note ON: Time 447360, Note Name: G4, Velocity: 51
Note OFF: Time 447384, Note Name: F4
Note OFF: Time 447840, Note Name: G4
Note ON: Time 447840, Note Name: C4, Velocity: 58
Note OFF: Time 448320, Note Name: C4
Note ON: Time 448320, Note Name: D4, Velocity: 52
Note ON: Time 448320, Note Name: C5, Velocity: 52
Note ON: Time 448800, Note Name: E4, Velocity: 54
Note ON: Time 448800, Note Name: A#4, Velocity: 54
Note OFF: Time 448824, Note Name: C5
Note OFF: Time 448824, Note Name: D4
Note OFF: Time 449280, Note Name: A#4
Note ON: Time 449280, Note Name: F4, Velocity: 57
Note ON: Time 449280, Note Name: A4, Velocity: 63
Note OFF: Time 449304, Note Name: E4
Note OFF: Time 449760, Note Name: A4
Note OFF: Time 449760, Note Name: F4
Note ON: Time 449760, Note Name: G4, Velocity: 57
Note ON: Time 449760, Note Name: A#4, Velocity: 57
Note ON: Time 450240, Note Name: A4, Velocity: 58
Note ON: Time 450240, Note Name: C5, Velocity: 58
Note OFF: Time 450264, Note Name: A#4
Note OFF: Time 450264, Note Name: G4
Note OFF: Time 450720, Note Name: C5
Note ON: Time 450720, Note Name: D#4, Velocity: 70
Note ON: Time 450720, Note Name: F4, Velocity: 70
Note OFF: Time 450744, Note Name: A4
Note OFF: Time 450960, Note Name: F4
Note OFF: Time 450960, Note Name: D#4
Note ON: Time 450960, Note Name: C5, Velocity: 64
Note ON: Time 451200, Note Name: A5, Velocity: 72
Note OFF: Time 451280, Note Name: A5
Note ON: Time 451280, Note Name: A#5, Velocity: 57
Note OFF: Time 451360, Note Name: A#5
Note ON: Time 451360, Note Name: A5, Velocity: 72
Note OFF: Time 451440, Note Name: A5
Note OFF: Time 451440, Note Name: C5
Note ON: Time 451440, Note Name: A#5, Velocity: 57
Note ON: Time 451440, Note Name: F5, Velocity: 72
Note OFF: Time 451520, Note Name: A#5
Note ON: Time 451520, Note Name: A5, Velocity: 72
Note OFF: Time 451600, Note Name: A5
Note ON: Time 451600, Note Name: A#5, Velocity: 57
Note OFF: Time 451680, Note Name: A#5
Note ON: Time 451680, Note Name: A5, Velocity: 72
Note OFF: Time 451760, Note Name: A5
Note ON: Time 451760, Note Name: A#5, Velocity: 57
Note OFF: Time 451840, Note Name: A#5
Note ON: Time 451840, Note Name: A5, Velocity: 72
Note OFF: Time 451920, Note Name: A5
Note OFF: Time 451920, Note Name: F5
Note ON: Time 451920, Note Name: A#5, Velocity: 57
Note ON: Time 451920, Note Name: F#5, Velocity: 81
Note OFF: Time 452000, Note Name: A#5
Note ON: Time 452000, Note Name: A5, Velocity: 72
Note OFF: Time 452080, Note Name: A5
Note ON: Time 452080, Note Name: A#5, Velocity: 57
Note OFF: Time 452160, Note Name: A#5
Note OFF: Time 452160, Note Name: F#5
Note ON: Time 452400, Note Name: A#5, Velocity: 90
Note OFF: Time 452520, Note Name: A#5
Note ON: Time 452520, Note Name: A5, Velocity: 82
Note OFF: Time 452640, Note Name: A5
Note ON: Time 452640, Note Name: G5, Velocity: 81
Note OFF: Time 452760, Note Name: G5
Note ON: Time 452760, Note Name: F5, Velocity: 80
Note OFF: Time 452880, Note Name: F5
Note ON: Time 452880, Note Name: D#5, Velocity: 79
Note OFF: Time 453000, Note Name: D#5
Note ON: Time 453000, Note Name: D5, Velocity: 78
Note OFF: Time 453120, Note Name: D5
Note ON: Time 453360, Note Name: A#3, Velocity: 82
Note OFF: Time 453480, Note Name: A#3
Note ON: Time 453480, Note Name: G#3, Velocity: 73
Note OFF: Time 453600, Note Name: G#3
Note ON: Time 453600, Note Name: G3, Velocity: 72
Note OFF: Time 453720, Note Name: G3
Note ON: Time 453720, Note Name: F3, Velocity: 72
Note OFF: Time 453840, Note Name: F3
Note ON: Time 453840, Note Name: D#3, Velocity: 71
Note OFF: Time 453960, Note Name: D#3
Note ON: Time 453960, Note Name: D3, Velocity: 70
Note OFF: Time 454080, Note Name: D3
Note ON: Time 454320, Note Name: G5, Velocity: 95
Note OFF: Time 454440, Note Name: G5
Note ON: Time 454440, Note Name: F5, Velocity: 82
Note OFF: Time 454560, Note Name: F5
Note ON: Time 454560, Note Name: D#5, Velocity: 81
Note OFF: Time 454680, Note Name: D#5
Note ON: Time 454680, Note Name: D5, Velocity: 80
Note OFF: Time 454800, Note Name: D5
Note ON: Time 454800, Note Name: C5, Velocity: 79
Note OFF: Time 454920, Note Name: C5
Note ON: Time 454920, Note Name: A#4, Velocity: 78
Note OFF: Time 455040, Note Name: A#4
Note ON: Time 455280, Note Name: C4, Velocity: 82
Note OFF: Time 455400, Note Name: C4
Note ON: Time 455400, Note Name: A#3, Velocity: 73
Note OFF: Time 455520, Note Name: A#3
Note ON: Time 455520, Note Name: G#3, Velocity: 72
Note OFF: Time 455640, Note Name: G#3
Note ON: Time 455640, Note Name: G3, Velocity: 72
Note OFF: Time 455760, Note Name: G3
Note ON: Time 455760, Note Name: F3, Velocity: 71
Note OFF: Time 455880, Note Name: F3
Note ON: Time 455880, Note Name: E3, Velocity: 70
Note OFF: Time 456000, Note Name: E3
Note ON: Time 456240, Note Name: F5, Velocity: 92
Note OFF: Time 456360, Note Name: F5
Note ON: Time 456360, Note Name: E5, Velocity: 82
Note OFF: Time 456480, Note Name: E5
Note ON: Time 456480, Note Name: C#5, Velocity: 81
Note OFF: Time 456600, Note Name: C#5
Note ON: Time 456600, Note Name: C5, Velocity: 80
Note OFF: Time 456720, Note Name: C5
Note ON: Time 456720, Note Name: A#4, Velocity: 79
Note OFF: Time 456840, Note Name: A#4
Note ON: Time 456840, Note Name: A4, Velocity: 78
Note OFF: Time 456960, Note Name: A4
Note ON: Time 457200, Note Name: A3, Velocity: 82
Note OFF: Time 457320, Note Name: A3
Note ON: Time 457320, Note Name: G3, Velocity: 73
Note OFF: Time 457440, Note Name: G3
Note ON: Time 457440, Note Name: F#3, Velocity: 72
Note OFF: Time 457560, Note Name: F#3
Note ON: Time 457560, Note Name: D#3, Velocity: 72
Note OFF: Time 457680, Note Name: D#3
Note ON: Time 457680, Note Name: D3, Velocity: 71
Note OFF: Time 457800, Note Name: D3
Note ON: Time 457800, Note Name: C3, Velocity: 70
Note OFF: Time 457920, Note Name: C3
Note ON: Time 458160, Note Name: D6, Velocity: 90
Note OFF: Time 458280, Note Name: D6
Note ON: Time 458280, Note Name: C6, Velocity: 82
Note OFF: Time 458400, Note Name: C6
Note ON: Time 458400, Note Name: A#5, Velocity: 81
Note OFF: Time 458520, Note Name: A#5
Note ON: Time 458520, Note Name: A5, Velocity: 80
Note OFF: Time 458640, Note Name: A5
Note ON: Time 458640, Note Name: G5, Velocity: 79
Note OFF: Time 458760, Note Name: G5
Note ON: Time 458760, Note Name: F#5, Velocity: 78
Note OFF: Time 458880, Note Name: F#5
Note ON: Time 459120, Note Name: D4, Velocity: 82
Note OFF: Time 459240, Note Name: D4
Note ON: Time 459240, Note Name: C#4, Velocity: 73
Note OFF: Time 459360, Note Name: C#4
Note ON: Time 459360, Note Name: C4, Velocity: 72
Note OFF: Time 459480, Note Name: C4
Note ON: Time 459480, Note Name: A#3, Velocity: 72
Note OFF: Time 459600, Note Name: A#3
Note ON: Time 459600, Note Name: A3, Velocity: 71
Note OFF: Time 459720, Note Name: A3
Note ON: Time 459720, Note Name: G3, Velocity: 70
Note OFF: Time 459840, Note Name: G3
Note ON: Time 460080, Note Name: D#5, Velocity: 92
Note OFF: Time 460200, Note Name: D#5
Note ON: Time 460200, Note Name: D5, Velocity: 82
Note OFF: Time 460320, Note Name: D5
Note ON: Time 460320, Note Name: C5, Velocity: 81
Note OFF: Time 460440, Note Name: C5
Note ON: Time 460440, Note Name: A#4, Velocity: 80
Note OFF: Time 460560, Note Name: A#4
Note ON: Time 460560, Note Name: A4, Velocity: 79
Note OFF: Time 460680, Note Name: A4
Note ON: Time 460680, Note Name: G4, Velocity: 78
Note OFF: Time 460800, Note Name: G4
Note ON: Time 460800, Note Name: F4, Velocity: 78
Note OFF: Time 460920, Note Name: F4
Note ON: Time 460920, Note Name: E4, Velocity: 78
Note OFF: Time 461040, Note Name: E4
Note ON: Time 461040, Note Name: A#4, Velocity: 88
Note ON: Time 461040, Note Name: D4, Velocity: 88
Note OFF: Time 461160, Note Name: D4
Note ON: Time 461160, Note Name: C4, Velocity: 81
Note OFF: Time 461280, Note Name: C4
Note OFF: Time 461280, Note Name: A#4
Note ON: Time 461280, Note Name: A#3, Velocity: 80
Note OFF: Time 461400, Note Name: A#3
Note ON: Time 461400, Note Name: A3, Velocity: 80
Note OFF: Time 461520, Note Name: A3
Note ON: Time 461520, Note Name: G3, Velocity: 79
Note OFF: Time 461640, Note Name: G3
Note ON: Time 461640, Note Name: F3, Velocity: 78
Note OFF: Time 461760, Note Name: F3
Note ON: Time 461760, Note Name: E3, Velocity: 77
Note OFF: Time 461880, Note Name: E3
Note ON: Time 461880, Note Name: D3, Velocity: 75
Note OFF: Time 462000, Note Name: D3
Note ON: Time 462000, Note Name: C4, Velocity: 78
Note OFF: Time 462120, Note Name: C4
Note ON: Time 462120, Note Name: A#3, Velocity: 74
Note OFF: Time 462240, Note Name: A#3
Note ON: Time 462240, Note Name: A3, Velocity: 80
Note OFF: Time 462360, Note Name: A3
Note ON: Time 462360, Note Name: G3, Velocity: 82
Note OFF: Time 462480, Note Name: G3
Note ON: Time 462480, Note Name: F3, Velocity: 86
Note OFF: Time 462600, Note Name: F3
Note ON: Time 462600, Note Name: E3, Velocity: 89
Note OFF: Time 462720, Note Name: E3
Note ON: Time 462720, Note Name: A#3, Velocity: 95
Note ON: Time 462720, Note Name: D3, Velocity: 95
Note OFF: Time 462840, Note Name: D3
Note ON: Time 462840, Note Name: C3, Velocity: 87
Note OFF: Time 462960, Note Name: C3
Note OFF: Time 462960, Note Name: A#3
Note ON: Time 462960, Note Name: E3, Velocity: 81
Note OFF: Time 463080, Note Name: E3
Note ON: Time 463080, Note Name: G3, Velocity: 85
Note OFF: Time 463200, Note Name: G3
Note ON: Time 463200, Note Name: A#2, Velocity: 80
Note OFF: Time 463440, Note Name: A#2
Note ON: Time 463680, Note Name: E4, Velocity: 80
Note OFF: Time 463760, Note Name: E4
Note ON: Time 463760, Note Name: F4, Velocity: 74
Note OFF: Time 463840, Note Name: F4
Note ON: Time 463840, Note Name: E4, Velocity: 80
Note OFF: Time 463920, Note Name: E4
Note ON: Time 463920, Note Name: F4, Velocity: 74
Note OFF: Time 464000, Note Name: F4
Note ON: Time 464000, Note Name: E4, Velocity: 80
Note OFF: Time 464080, Note Name: E4
Note ON: Time 464080, Note Name: F4, Velocity: 75
Note OFF: Time 464160, Note Name: F4
Note ON: Time 464160, Note Name: E4, Velocity: 80
Note OFF: Time 464240, Note Name: E4
Note ON: Time 464240, Note Name: F4, Velocity: 73
Note OFF: Time 464320, Note Name: F4
Note ON: Time 464320, Note Name: E4, Velocity: 82
Note OFF: Time 464400, Note Name: E4
Note ON: Time 464400, Note Name: F4, Velocity: 74
Note OFF: Time 464460, Note Name: F4
Note ON: Time 464460, Note Name: E4, Velocity: 80
Note OFF: Time 464520, Note Name: E4
Note ON: Time 464520, Note Name: D4, Velocity: 73
Note OFF: Time 464580, Note Name: D4
Note ON: Time 464580, Note Name: E4, Velocity: 73
Note OFF: Time 464640, Note Name: E4
Note ON: Time 464640, Note Name: F4, Velocity: 86
Note OFF: Time 465120, Note Name: F4
Note ON: Time 465360, Note Name: F4, Velocity: 78
Note OFF: Time 465480, Note Name: F4
Note ON: Time 465480, Note Name: E4, Velocity: 74
Note OFF: Time 465600, Note Name: E4
Note ON: Time 465600, Note Name: D4, Velocity: 80
Note OFF: Time 465720, Note Name: D4
Note ON: Time 465720, Note Name: C4, Velocity: 74
Note OFF: Time 465840, Note Name: C4
Note ON: Time 465840, Note Name: A#3, Velocity: 74
Note OFF: Time 465960, Note Name: A#3
Note ON: Time 465960, Note Name: A3, Velocity: 74
Note OFF: Time 466080, Note Name: A3
Note ON: Time 466080, Note Name: D4, Velocity: 88
Note OFF: Time 466560, Note Name: D4
Note ON: Time 466800, Note Name: D4, Velocity: 78
Note OFF: Time 466920, Note Name: D4
Note ON: Time 466920, Note Name: C4, Velocity: 74
Note OFF: Time 467040, Note Name: C4
Note ON: Time 467040, Note Name: A#3, Velocity: 80
Note OFF: Time 467160, Note Name: A#3
Note ON: Time 467160, Note Name: A3, Velocity: 74
Note OFF: Time 467280, Note Name: A3
Note ON: Time 467280, Note Name: G3, Velocity: 74
Note OFF: Time 467400, Note Name: G3
Note ON: Time 467400, Note Name: F3, Velocity: 74
Note OFF: Time 467520, Note Name: F3
Note ON: Time 467520, Note Name: A#3, Velocity: 88
Note OFF: Time 468000, Note Name: A#3
Note ON: Time 468240, Note Name: A#4, Velocity: 78
Note OFF: Time 468360, Note Name: A#4
Note ON: Time 468360, Note Name: A4, Velocity: 72
Note OFF: Time 468480, Note Name: A4
Note ON: Time 468480, Note Name: G4, Velocity: 90
Note OFF: Time 468600, Note Name: G4
Note ON: Time 468600, Note Name: A4, Velocity: 73
Note OFF: Time 468720, Note Name: A4
Note ON: Time 468720, Note Name: G4, Velocity: 73
Note OFF: Time 468840, Note Name: G4
Note ON: Time 468840, Note Name: F4, Velocity: 73
Note OFF: Time 468960, Note Name: F4
Note ON: Time 468960, Note Name: E4, Velocity: 89
Note OFF: Time 469080, Note Name: E4
Note ON: Time 469080, Note Name: F4, Velocity: 74
Note OFF: Time 469200, Note Name: F4
Note ON: Time 469200, Note Name: E4, Velocity: 74
Note OFF: Time 469320, Note Name: E4
Note ON: Time 469320, Note Name: D4, Velocity: 74
Note OFF: Time 469440, Note Name: D4
Note ON: Time 469440, Note Name: C4, Velocity: 90
Note OFF: Time 469560, Note Name: C4
Note ON: Time 469560, Note Name: D4, Velocity: 73
Note OFF: Time 469680, Note Name: D4
Note ON: Time 469680, Note Name: E4, Velocity: 73
Note OFF: Time 469800, Note Name: E4
Note ON: Time 469800, Note Name: F4, Velocity: 73
Note OFF: Time 469920, Note Name: F4
Note ON: Time 469920, Note Name: F#4, Velocity: 88
Note OFF: Time 470040, Note Name: F#4
Note ON: Time 470040, Note Name: G4, Velocity: 73
Note OFF: Time 470160, Note Name: G4
Note ON: Time 470160, Note Name: A4, Velocity: 73
Note OFF: Time 470280, Note Name: A4
Note ON: Time 470280, Note Name: G4, Velocity: 73
Note OFF: Time 470400, Note Name: G4
Note ON: Time 470400, Note Name: F4, Velocity: 87
Note OFF: Time 470520, Note Name: F4
Note ON: Time 470520, Note Name: G4, Velocity: 75
Note OFF: Time 470640, Note Name: G4
Note ON: Time 470640, Note Name: A4, Velocity: 75
Note OFF: Time 470760, Note Name: A4
Note ON: Time 470760, Note Name: A#4, Velocity: 75
Note OFF: Time 470880, Note Name: A#4
Note ON: Time 470880, Note Name: B4, Velocity: 89
Note OFF: Time 471000, Note Name: B4
Note ON: Time 471000, Note Name: C5, Velocity: 73
Note OFF: Time 471120, Note Name: C5
Note ON: Time 471120, Note Name: D5, Velocity: 73
Note OFF: Time 471240, Note Name: D5
Note ON: Time 471240, Note Name: C5, Velocity: 73
Note OFF: Time 471360, Note Name: C5
Note ON: Time 471360, Note Name: D5, Velocity: 94
Note ON: Time 471360, Note Name: D#5, Velocity: 94
Note OFF: Time 471480, Note Name: D5
Note ON: Time 471480, Note Name: C5, Velocity: 73
Note OFF: Time 471600, Note Name: C5
Note OFF: Time 471600, Note Name: D#5
Note ON: Time 471600, Note Name: A#4, Velocity: 73
Note OFF: Time 471720, Note Name: A#4
Note ON: Time 471720, Note Name: A4, Velocity: 73
Note OFF: Time 471840, Note Name: A4
Note ON: Time 471840, Note Name: C4, Velocity: 85
Note OFF: Time 471920, Note Name: C4
Note ON: Time 471920, Note Name: D4, Velocity: 78
Note OFF: Time 472000, Note Name: D4
Note ON: Time 472000, Note Name: C4, Velocity: 85
Note OFF: Time 472080, Note Name: C4
Note ON: Time 472080, Note Name: D4, Velocity: 80
Note OFF: Time 472160, Note Name: D4
Note ON: Time 472160, Note Name: C4, Velocity: 85
Note OFF: Time 472240, Note Name: C4
Note ON: Time 472240, Note Name: D4, Velocity: 78
Note OFF: Time 472320, Note Name: D4
Note ON: Time 472320, Note Name: C4, Velocity: 85
Note OFF: Time 472400, Note Name: C4
Note ON: Time 472400, Note Name: D4, Velocity: 80
Note OFF: Time 472480, Note Name: D4
Note ON: Time 472480, Note Name: C4, Velocity: 85
Note OFF: Time 472560, Note Name: C4
Note ON: Time 472560, Note Name: D4, Velocity: 73
Note OFF: Time 472640, Note Name: D4
Note ON: Time 472640, Note Name: C4, Velocity: 82
Note OFF: Time 472720, Note Name: C4
Note ON: Time 472720, Note Name: D4, Velocity: 73
Note OFF: Time 472800, Note Name: D4
Note ON: Time 472800, Note Name: A#3, Velocity: 78
Note OFF: Time 473280, Note Name: A#3
Note ON: Time 473520, Note Name: A#3, Velocity: 65
Note OFF: Time 473640, Note Name: A#3
Note ON: Time 473640, Note Name: C4, Velocity: 60
Note OFF: Time 473760, Note Name: C4
Note ON: Time 473760, Note Name: D4, Velocity: 68
Note OFF: Time 473880, Note Name: D4
Note ON: Time 473880, Note Name: D#4, Velocity: 60
Note OFF: Time 474000, Note Name: D#4
Note ON: Time 474000, Note Name: D4, Velocity: 60
Note ON: Time 474000, Note Name: F4, Velocity: 60
Note OFF: Time 474120, Note Name: F4
Note OFF: Time 474120, Note Name: D4
Note ON: Time 474120, Note Name: C4, Velocity: 60
Note ON: Time 474120, Note Name: G4, Velocity: 60
Note OFF: Time 474240, Note Name: G4
Note OFF: Time 474240, Note Name: C4
Note ON: Time 474240, Note Name: A#3, Velocity: 60
Note ON: Time 474240, Note Name: D#4, Velocity: 72
Note OFF: Time 474360, Note Name: A#3
Note ON: Time 474360, Note Name: A3, Velocity: 60
Note OFF: Time 474480, Note Name: A3
Note ON: Time 474480, Note Name: G3, Velocity: 60
Note OFF: Time 474600, Note Name: G3
Note ON: Time 474600, Note Name: F3, Velocity: 60
Note OFF: Time 474720, Note Name: F3
Note OFF: Time 474720, Note Name: D#4
Note ON: Time 474720, Note Name: A#3, Velocity: 72
Note ON: Time 474960, Note Name: D4, Velocity: 65
Note OFF: Time 475080, Note Name: D4
Note ON: Time 475080, Note Name: D#4, Velocity: 56
Note OFF: Time 475200, Note Name: D#4
Note OFF: Time 475200, Note Name: A#3
Note ON: Time 475200, Note Name: F4, Velocity: 66
Note OFF: Time 475320, Note Name: F4
Note ON: Time 475320, Note Name: G4, Velocity: 60
Note OFF: Time 475440, Note Name: G4
Note ON: Time 475440, Note Name: A#3, Velocity: 60
Note ON: Time 475440, Note Name: A4, Velocity: 60
Note OFF: Time 475560, Note Name: A4
Note ON: Time 475560, Note Name: A#4, Velocity: 60
Note OFF: Time 475680, Note Name: A#4
Note ON: Time 475680, Note Name: G4, Velocity: 74
Note OFF: Time 475800, Note Name: A#3
Note ON: Time 475800, Note Name: B3, Velocity: 60
Note OFF: Time 475920, Note Name: B3
Note ON: Time 475920, Note Name: C4, Velocity: 60
Note OFF: Time 476040, Note Name: C4
Note ON: Time 476040, Note Name: D4, Velocity: 60
Note OFF: Time 476160, Note Name: D4
Note OFF: Time 476160, Note Name: G4
Note ON: Time 476160, Note Name: D#4, Velocity: 72
Note ON: Time 476400, Note Name: F4, Velocity: 66
Note OFF: Time 476520, Note Name: F4
Note ON: Time 476520, Note Name: G4, Velocity: 60
Note OFF: Time 476640, Note Name: G4
Note OFF: Time 476640, Note Name: D#4
Note ON: Time 476640, Note Name: A4, Velocity: 71
Note OFF: Time 476760, Note Name: A4
Note ON: Time 476760, Note Name: G4, Velocity: 62
Note OFF: Time 476880, Note Name: G4
Note ON: Time 476880, Note Name: D#4, Velocity: 55
Note ON: Time 476880, Note Name: A4, Velocity: 62
Note OFF: Time 477000, Note Name: A4
Note ON: Time 477000, Note Name: A#4, Velocity: 62
Note OFF: Time 477120, Note Name: A#4
Note ON: Time 477120, Note Name: C5, Velocity: 72
Note OFF: Time 477240, Note Name: C5
Note ON: Time 477240, Note Name: A#4, Velocity: 65
Note OFF: Time 477360, Note Name: A#4
Note OFF: Time 477360, Note Name: D#4
Note ON: Time 477360, Note Name: E4, Velocity: 59
Note ON: Time 477360, Note Name: C5, Velocity: 65
Note OFF: Time 477480, Note Name: C5
Note ON: Time 477480, Note Name: D5, Velocity: 65
Note OFF: Time 477600, Note Name: D5
Note ON: Time 477600, Note Name: D#5, Velocity: 78
Note OFF: Time 477720, Note Name: D#5
Note ON: Time 477720, Note Name: D5, Velocity: 69
Note OFF: Time 477840, Note Name: D5
Note OFF: Time 477840, Note Name: E4
Note ON: Time 477840, Note Name: F4, Velocity: 60
Note ON: Time 477840, Note Name: C5, Velocity: 72
Note OFF: Time 477960, Note Name: C5
Note ON: Time 477960, Note Name: D5, Velocity: 75
Note OFF: Time 478080, Note Name: D5
Note ON: Time 478080, Note Name: D#5, Velocity: 86
Note OFF: Time 478200, Note Name: D#5
Note ON: Time 478200, Note Name: D5, Velocity: 76
Note OFF: Time 478320, Note Name: D5
Note ON: Time 478320, Note Name: C#5, Velocity: 73
Note OFF: Time 478440, Note Name: C#5
Note ON: Time 478440, Note Name: C5, Velocity: 72
Note OFF: Time 478560, Note Name: C5
Note ON: Time 478560, Note Name: A#4, Velocity: 77
Note OFF: Time 478680, Note Name: A#4
Note ON: Time 478680, Note Name: A4, Velocity: 64
Note OFF: Time 478800, Note Name: A4
Note OFF: Time 478800, Note Name: F4
Note ON: Time 478800, Note Name: D#4, Velocity: 54
Note ON: Time 478800, Note Name: G4, Velocity: 63
Note OFF: Time 478920, Note Name: G4
Note ON: Time 478920, Note Name: A4, Velocity: 64
Note OFF: Time 479040, Note Name: A4
Note OFF: Time 479040, Note Name: D#4
Note ON: Time 479040, Note Name: D4, Velocity: 63
Note ON: Time 479040, Note Name: A#4, Velocity: 74
Note OFF: Time 479160, Note Name: A#4
Note ON: Time 479160, Note Name: A4, Velocity: 63
Note OFF: Time 479280, Note Name: A4
Note ON: Time 479280, Note Name: G4, Velocity: 62
Note OFF: Time 479400, Note Name: G4
Note ON: Time 479400, Note Name: F4, Velocity: 62
Note OFF: Time 479520, Note Name: D4
Note ON: Time 479520, Note Name: C4, Velocity: 65
Note OFF: Time 479640, Note Name: F4
Note ON: Time 479640, Note Name: F#5, Velocity: 68
Note OFF: Time 479760, Note Name: F#5
Note OFF: Time 479760, Note Name: C4
Note ON: Time 479760, Note Name: G5, Velocity: 74
Note OFF: Time 479880, Note Name: G5
Note ON: Time 479880, Note Name: F5, Velocity: 69
Note OFF: Time 480000, Note Name: F5
Note ON: Time 480000, Note Name: D#5, Velocity: 71
Note OFF: Time 480120, Note Name: D#5
Note ON: Time 480120, Note Name: D5, Velocity: 64
Note OFF: Time 480240, Note Name: D5
Note ON: Time 480240, Note Name: C5, Velocity: 67
Note OFF: Time 480360, Note Name: C5
Note ON: Time 480360, Note Name: A#4, Velocity: 69
Note OFF: Time 480480, Note Name: A#4
Note ON: Time 480480, Note Name: A4, Velocity: 74
Note OFF: Time 480600, Note Name: A4
Note ON: Time 480600, Note Name: A#4, Velocity: 65
Note OFF: Time 480720, Note Name: A#4
Note ON: Time 480720, Note Name: A4, Velocity: 67
Note OFF: Time 480840, Note Name: A4
Note ON: Time 480840, Note Name: G4, Velocity: 68
Note OFF: Time 480960, Note Name: G4
Note ON: Time 480960, Note Name: F4, Velocity: 81
Note OFF: Time 481080, Note Name: F4
Note ON: Time 481080, Note Name: G4, Velocity: 71
Note OFF: Time 481200, Note Name: G4
Note ON: Time 481200, Note Name: A4, Velocity: 71
Note OFF: Time 481320, Note Name: A4
Note ON: Time 481320, Note Name: A#4, Velocity: 71
Note OFF: Time 481440, Note Name: A#4
Note ON: Time 481440, Note Name: C5, Velocity: 80
Note OFF: Time 481560, Note Name: C5
Note ON: Time 481560, Note Name: C#5, Velocity: 70
Note OFF: Time 481680, Note Name: C#5
Note ON: Time 481680, Note Name: D5, Velocity: 70
Note OFF: Time 481800, Note Name: D5
Note ON: Time 481800, Note Name: C5, Velocity: 70
Note OFF: Time 481920, Note Name: C5
Note ON: Time 481920, Note Name: A#4, Velocity: 65
Note ON: Time 481920, Note Name: D5, Velocity: 81
Note OFF: Time 482040, Note Name: D5
Note ON: Time 482040, Note Name: E5, Velocity: 70
Note OFF: Time 482160, Note Name: E5
Note OFF: Time 482160, Note Name: A#4
Note ON: Time 482160, Note Name: F5, Velocity: 70
Note OFF: Time 482280, Note Name: F5
Note ON: Time 482280, Note Name: G5, Velocity: 81
Note OFF: Time 482520, Note Name: G5
Note ON: Time 482520, Note Name: C5, Velocity: 70
Note OFF: Time 482640, Note Name: C5
Note ON: Time 482640, Note Name: D5, Velocity: 71
Note OFF: Time 482760, Note Name: D5
Note ON: Time 482760, Note Name: E5, Velocity: 72
Note OFF: Time 482880, Note Name: E5
Note ON: Time 482880, Note Name: F5, Velocity: 73
Note OFF: Time 483000, Note Name: F5
Note ON: Time 483000, Note Name: G5, Velocity: 74
Note OFF: Time 483120, Note Name: G5
Note ON: Time 483120, Note Name: A5, Velocity: 75
Note OFF: Time 483240, Note Name: A5
Note ON: Time 483240, Note Name: A#5, Velocity: 76
Note OFF: Time 483360, Note Name: A#5
Note ON: Time 483360, Note Name: C6, Velocity: 77
Note OFF: Time 483480, Note Name: C6
Note ON: Time 483480, Note Name: A5, Velocity: 68
Note OFF: Time 483600, Note Name: A5
Note ON: Time 483600, Note Name: G5, Velocity: 73
Note OFF: Time 483720, Note Name: G5
Note ON: Time 483720, Note Name: F5, Velocity: 72
Note OFF: Time 483840, Note Name: F5
Note ON: Time 483840, Note Name: D#5, Velocity: 81
Note OFF: Time 483960, Note Name: D#5
Note ON: Time 483960, Note Name: D5, Velocity: 71
Note OFF: Time 484080, Note Name: D5
Note ON: Time 484080, Note Name: E5, Velocity: 71
Note OFF: Time 484200, Note Name: E5
Note ON: Time 484200, Note Name: F#5, Velocity: 71
Note OFF: Time 484320, Note Name: F#5
Note ON: Time 484320, Note Name: G5, Velocity: 79
Note OFF: Time 484440, Note Name: G5
Note ON: Time 484440, Note Name: A5, Velocity: 72
Note OFF: Time 484560, Note Name: A5
Note ON: Time 484560, Note Name: A#5, Velocity: 81
Note OFF: Time 484680, Note Name: A#5
Note ON: Time 484680, Note Name: C6, Velocity: 71
Note OFF: Time 484800, Note Name: C6
Note ON: Time 484800, Note Name: D6, Velocity: 85
Note OFF: Time 484920, Note Name: D6
Note ON: Time 484920, Note Name: A#5, Velocity: 76
Note OFF: Time 485040, Note Name: A#5
Note ON: Time 485040, Note Name: A5, Velocity: 76
Note OFF: Time 485160, Note Name: A5
Note ON: Time 485160, Note Name: G5, Velocity: 76
Note OFF: Time 485280, Note Name: G5
Note ON: Time 485280, Note Name: F5, Velocity: 82
Note OFF: Time 485400, Note Name: F5
Note ON: Time 485400, Note Name: D#5, Velocity: 73
Note OFF: Time 485520, Note Name: D#5
Note ON: Time 485520, Note Name: F5, Velocity: 76
Note OFF: Time 485640, Note Name: F5
Note ON: Time 485640, Note Name: G5, Velocity: 79
Note OFF: Time 485760, Note Name: G5
Note ON: Time 485760, Note Name: A5, Velocity: 82
Note OFF: Time 485880, Note Name: A5
Note ON: Time 485880, Note Name: A#5, Velocity: 84
Note OFF: Time 486000, Note Name: A#5
Note ON: Time 486000, Note Name: C6, Velocity: 87
Note OFF: Time 486120, Note Name: C6
Note ON: Time 486120, Note Name: D6, Velocity: 90
Note OFF: Time 486240, Note Name: D6
Note ON: Time 486240, Note Name: D#6, Velocity: 93
Note OFF: Time 486480, Note Name: D#6
Note ON: Time 486720, Note Name: A4, Velocity: 69
Note ON: Time 486720, Note Name: C5, Velocity: 74
Note OFF: Time 486800, Note Name: C5
Note ON: Time 486800, Note Name: D5, Velocity: 70
Note OFF: Time 486880, Note Name: D5
Note ON: Time 486880, Note Name: C5, Velocity: 74
Note OFF: Time 486960, Note Name: C5
Note ON: Time 486960, Note Name: D5, Velocity: 70
Note OFF: Time 487040, Note Name: D5
Note ON: Time 487040, Note Name: C5, Velocity: 74
Note OFF: Time 487120, Note Name: C5
Note ON: Time 487120, Note Name: D5, Velocity: 70
Note OFF: Time 487200, Note Name: D5
Note OFF: Time 487200, Note Name: A4
Note ON: Time 487200, Note Name: D#4, Velocity: 69
Note ON: Time 487200, Note Name: C5, Velocity: 74
Note OFF: Time 487280, Note Name: C5
Note ON: Time 487280, Note Name: D5, Velocity: 69
Note OFF: Time 487360, Note Name: D5
Note ON: Time 487360, Note Name: C5, Velocity: 74
Note OFF: Time 487440, Note Name: C5
Note ON: Time 487440, Note Name: D5, Velocity: 70
Note OFF: Time 487500, Note Name: D5
Note ON: Time 487500, Note Name: C5, Velocity: 74
Note OFF: Time 487560, Note Name: C5
Note ON: Time 487560, Note Name: A#4, Velocity: 68
Note OFF: Time 487620, Note Name: A#4
Note ON: Time 487620, Note Name: C5, Velocity: 68
Note OFF: Time 487680, Note Name: C5
Note OFF: Time 487680, Note Name: D#4
Note ON: Time 487680, Note Name: D4, Velocity: 69
Note ON: Time 487680, Note Name: A#4, Velocity: 81
Note OFF: Time 487920, Note Name: D4
Note ON: Time 487920, Note Name: C#4, Velocity: 69
Note OFF: Time 488160, Note Name: C#4
Note OFF: Time 488160, Note Name: A#4
Note ON: Time 488160, Note Name: G4, Velocity: 69
Note ON: Time 488160, Note Name: A#4, Velocity: 74
Note OFF: Time 488240, Note Name: A#4
Note ON: Time 488240, Note Name: C5, Velocity: 70
Note OFF: Time 488320, Note Name: C5
Note ON: Time 488320, Note Name: A#4, Velocity: 74
Note OFF: Time 488400, Note Name: A#4
Note ON: Time 488400, Note Name: C5, Velocity: 70
Note OFF: Time 488480, Note Name: C5
Note ON: Time 488480, Note Name: A#4, Velocity: 74
Note OFF: Time 488560, Note Name: A#4
Note ON: Time 488560, Note Name: C5, Velocity: 70
Note OFF: Time 488640, Note Name: C5
Note OFF: Time 488640, Note Name: G4
Note ON: Time 488640, Note Name: C#4, Velocity: 69
Note ON: Time 488640, Note Name: A#4, Velocity: 74
Note OFF: Time 488720, Note Name: A#4
Note ON: Time 488720, Note Name: C5, Velocity: 69
Note OFF: Time 488800, Note Name: C5
Note ON: Time 488800, Note Name: A#4, Velocity: 74
Note OFF: Time 488880, Note Name: A#4
Note ON: Time 488880, Note Name: C5, Velocity: 70
Note OFF: Time 488940, Note Name: C5
Note ON: Time 488940, Note Name: A#4, Velocity: 74
Note OFF: Time 489000, Note Name: A#4
Note ON: Time 489000, Note Name: A4, Velocity: 68
Note OFF: Time 489060, Note Name: A4
Note ON: Time 489060, Note Name: A#4, Velocity: 68
Note OFF: Time 489120, Note Name: A#4
Note OFF: Time 489120, Note Name: C#4
Note ON: Time 489120, Note Name: C4, Velocity: 69
Note ON: Time 489120, Note Name: A4, Velocity: 81
Note OFF: Time 489360, Note Name: A4
Note OFF: Time 489360, Note Name: C4
Note ON: Time 489360, Note Name: G#4, Velocity: 67
Note ON: Time 489360, Note Name: B3, Velocity: 62
Note OFF: Time 489600, Note Name: B3
Note OFF: Time 489600, Note Name: G#4
Note ON: Time 489600, Note Name: F4, Velocity: 69
Note ON: Time 489600, Note Name: G#4, Velocity: 74
Note OFF: Time 489680, Note Name: G#4
Note ON: Time 489680, Note Name: A#4, Velocity: 70
Note OFF: Time 489760, Note Name: A#4
Note ON: Time 489760, Note Name: G#4, Velocity: 74
Note OFF: Time 489840, Note Name: G#4
Note ON: Time 489840, Note Name: A#4, Velocity: 70
Note OFF: Time 489920, Note Name: A#4
Note ON: Time 489920, Note Name: G#4, Velocity: 74
Note OFF: Time 490000, Note Name: G#4
Note ON: Time 490000, Note Name: A#4, Velocity: 70
Note OFF: Time 490080, Note Name: A#4
Note OFF: Time 490080, Note Name: F4
Note ON: Time 490080, Note Name: B3, Velocity: 69
Note ON: Time 490080, Note Name: G#4, Velocity: 74
Note OFF: Time 490160, Note Name: G#4
Note ON: Time 490160, Note Name: A#4, Velocity: 69
Note OFF: Time 490240, Note Name: A#4
Note ON: Time 490240, Note Name: G#4, Velocity: 74
Note OFF: Time 490320, Note Name: G#4
Note ON: Time 490320, Note Name: A#4, Velocity: 70
Note OFF: Time 490380, Note Name: A#4
Note ON: Time 490380, Note Name: G#4, Velocity: 74
Note OFF: Time 490440, Note Name: G#4
Note ON: Time 490440, Note Name: G4, Velocity: 68
Note OFF: Time 490500, Note Name: G4
Note ON: Time 490500, Note Name: G#4, Velocity: 68
Note OFF: Time 490560, Note Name: G#4
Note OFF: Time 490560, Note Name: B3
Note ON: Time 490560, Note Name: A#3, Velocity: 69
Note ON: Time 490560, Note Name: G4, Velocity: 81
Note OFF: Time 490800, Note Name: A#3
Note ON: Time 490800, Note Name: E4, Velocity: 62
Note OFF: Time 491040, Note Name: E4
Note OFF: Time 491040, Note Name: G4
Note ON: Time 491760, Note Name: G4, Velocity: 62
Note OFF: Time 492000, Note Name: G4
Note ON: Time 492000, Note Name: E4, Velocity: 69
Note OFF: Time 492240, Note Name: E4
Note ON: Time 492240, Note Name: F4, Velocity: 61
Note OFF: Time 492480, Note Name: F4
Note ON: Time 493200, Note Name: A4, Velocity: 62
Note OFF: Time 493440, Note Name: A4
Note ON: Time 493440, Note Name: F#4, Velocity: 69
Note OFF: Time 493680, Note Name: F#4
Note ON: Time 493680, Note Name: G4, Velocity: 61
Note OFF: Time 493920, Note Name: G4
Note ON: Time 494640, Note Name: A#4, Velocity: 62
Note OFF: Time 494880, Note Name: A#4
Note ON: Time 494880, Note Name: G4, Velocity: 69
Note OFF: Time 495120, Note Name: G4
Note ON: Time 495120, Note Name: A4, Velocity: 61
Note OFF: Time 495360, Note Name: A4
Note ON: Time 495360, Note Name: A4, Velocity: 55
Note ON: Time 495360, Note Name: C5, Velocity: 61
Note OFF: Time 495480, Note Name: A4
Note ON: Time 495480, Note Name: F4, Velocity: 49
Note OFF: Time 495600, Note Name: F4
Note OFF: Time 495600, Note Name: C5
Note ON: Time 495600, Note Name: G4, Velocity: 55
Note ON: Time 495600, Note Name: F5, Velocity: 66
Note OFF: Time 495720, Note Name: G4
Note ON: Time 495720, Note Name: A4, Velocity: 50
Note OFF: Time 495840, Note Name: A4
Note ON: Time 495840, Note Name: A#4, Velocity: 55
Note OFF: Time 495960, Note Name: A#4
Note ON: Time 495960, Note Name: A4, Velocity: 48
Note OFF: Time 496080, Note Name: A4
Note OFF: Time 496080, Note Name: F5
Note ON: Time 496080, Note Name: A#4, Velocity: 55
Note ON: Time 496080, Note Name: D5, Velocity: 61
Note OFF: Time 496200, Note Name: A#4
Note ON: Time 496200, Note Name: F4, Velocity: 43
Note OFF: Time 496320, Note Name: F4
Note OFF: Time 496320, Note Name: D5
Note ON: Time 496320, Note Name: G4, Velocity: 55
Note ON: Time 496320, Note Name: C5, Velocity: 61
Note OFF: Time 496440, Note Name: G4
Note ON: Time 496440, Note Name: F#4, Velocity: 48
Note OFF: Time 496560, Note Name: F#4
Note OFF: Time 496560, Note Name: C5
Note ON: Time 496560, Note Name: G4, Velocity: 55
Note ON: Time 496560, Note Name: A#4, Velocity: 57
Note OFF: Time 496680, Note Name: G4
Note ON: Time 496680, Note Name: C4, Velocity: 49
Note OFF: Time 496800, Note Name: A#4
Note ON: Time 496800, Note Name: A4, Velocity: 61
Note OFF: Time 496920, Note Name: C4
Note OFF: Time 497040, Note Name: A4
Note ON: Time 497040, Note Name: G#4, Velocity: 58
Note OFF: Time 497280, Note Name: G#4
Note ON: Time 497280, Note Name: G4, Velocity: 49
Note ON: Time 497280, Note Name: G5, Velocity: 73
Note OFF: Time 497400, Note Name: G4
Note ON: Time 497400, Note Name: A4, Velocity: 59
Note OFF: Time 497520, Note Name: A4
Note ON: Time 497520, Note Name: B4, Velocity: 57
Note OFF: Time 497640, Note Name: B4
Note ON: Time 497640, Note Name: C5, Velocity: 55
Note OFF: Time 497760, Note Name: C5
Note ON: Time 497760, Note Name: C#5, Velocity: 53
Note OFF: Time 497880, Note Name: C#5
Note ON: Time 497880, Note Name: D5, Velocity: 51
Note OFF: Time 498000, Note Name: D5
Note OFF: Time 498000, Note Name: G5
Note ON: Time 498000, Note Name: D#5, Velocity: 59
Note ON: Time 498000, Note Name: F5, Velocity: 59
Note OFF: Time 498120, Note Name: D#5
Note ON: Time 498120, Note Name: D5, Velocity: 41
Note OFF: Time 498240, Note Name: D5
Note OFF: Time 498240, Note Name: F5
Note ON: Time 498240, Note Name: F5, Velocity: 52
Note OFF: Time 498480, Note Name: F5
Note ON: Time 498480, Note Name: D#5, Velocity: 47
Note OFF: Time 498720, Note Name: D#5
Note ON: Time 498720, Note Name: F#4, Velocity: 45
Note ON: Time 498720, Note Name: D5, Velocity: 52
Note OFF: Time 498840, Note Name: F#4
Note ON: Time 498840, Note Name: G4, Velocity: 41
Note OFF: Time 498960, Note Name: G4
Note OFF: Time 498960, Note Name: D5
Note ON: Time 498960, Note Name: G#4, Velocity: 45
Note ON: Time 498960, Note Name: C5, Velocity: 47
Note OFF: Time 499080, Note Name: G#4
Note ON: Time 499080, Note Name: G4, Velocity: 41
Note OFF: Time 499200, Note Name: G4
Note OFF: Time 499200, Note Name: C5
Note ON: Time 499200, Note Name: B4, Velocity: 52
Note OFF: Time 499440, Note Name: B4
Note ON: Time 499440, Note Name: C5, Velocity: 46
Note OFF: Time 499680, Note Name: C5
Note ON: Time 499680, Note Name: A4, Velocity: 57
Note ON: Time 499680, Note Name: F5, Velocity: 57
Note OFF: Time 499800, Note Name: A4
Note ON: Time 499800, Note Name: A#4, Velocity: 50
Note OFF: Time 499920, Note Name: A#4
Note OFF: Time 499920, Note Name: F5
Note ON: Time 499920, Note Name: A4, Velocity: 55
Note OFF: Time 500040, Note Name: A4
Note ON: Time 500040, Note Name: G4, Velocity: 49
Note OFF: Time 500160, Note Name: G4
Note ON: Time 500160, Note Name: F4, Velocity: 58
Note ON: Time 500160, Note Name: D#5, Velocity: 68
Note OFF: Time 500280, Note Name: F4
Note ON: Time 500280, Note Name: G4, Velocity: 55
Note OFF: Time 500400, Note Name: G4
Note ON: Time 500400, Note Name: A4, Velocity: 54
Note OFF: Time 500520, Note Name: A4
Note ON: Time 500520, Note Name: A#4, Velocity: 52
Note OFF: Time 500640, Note Name: A#4
Note ON: Time 500640, Note Name: B4, Velocity: 50
Note OFF: Time 500760, Note Name: B4
Note ON: Time 500760, Note Name: C5, Velocity: 49
Note OFF: Time 500880, Note Name: C5
Note OFF: Time 500880, Note Name: D#5
Note ON: Time 500880, Note Name: D5, Velocity: 59
Note ON: Time 500880, Note Name: D#5, Velocity: 59
Note OFF: Time 501000, Note Name: D5
Note ON: Time 501000, Note Name: C5, Velocity: 41
Note OFF: Time 501120, Note Name: C5
Note OFF: Time 501120, Note Name: D#5
Note ON: Time 501120, Note Name: D#5, Velocity: 52
Note OFF: Time 501360, Note Name: D#5
Note ON: Time 501360, Note Name: D5, Velocity: 47
Note OFF: Time 501600, Note Name: D5
Note ON: Time 501600, Note Name: E4, Velocity: 45
Note ON: Time 501600, Note Name: C5, Velocity: 52
Note OFF: Time 501720, Note Name: E4
Note ON: Time 501720, Note Name: F4, Velocity: 41
Note OFF: Time 501840, Note Name: F4
Note OFF: Time 501840, Note Name: C5
Note ON: Time 501840, Note Name: G4, Velocity: 45
Note ON: Time 501840, Note Name: A#4, Velocity: 47
Note OFF: Time 501960, Note Name: G4
Note ON: Time 501960, Note Name: F4, Velocity: 41
Note OFF: Time 502080, Note Name: F4
Note OFF: Time 502080, Note Name: A#4
Note ON: Time 502080, Note Name: A4, Velocity: 52
Note OFF: Time 502320, Note Name: A4
Note ON: Time 502320, Note Name: A#4, Velocity: 46
Note OFF: Time 502560, Note Name: A#4
Note ON: Time 502560, Note Name: B3, Velocity: 64
Note OFF: Time 502680, Note Name: B3
Note ON: Time 502680, Note Name: C4, Velocity: 57
Note OFF: Time 502800, Note Name: C4
Note ON: Time 502800, Note Name: B3, Velocity: 57
Note OFF: Time 502920, Note Name: B3
Note ON: Time 502920, Note Name: A3, Velocity: 57
Note OFF: Time 503040, Note Name: A3
Note ON: Time 503040, Note Name: G3, Velocity: 65
Note OFF: Time 503160, Note Name: G3
Note ON: Time 503160, Note Name: A3, Velocity: 58
Note OFF: Time 503280, Note Name: A3
Note ON: Time 503280, Note Name: B3, Velocity: 59
Note OFF: Time 503400, Note Name: B3
Note ON: Time 503400, Note Name: C4, Velocity: 59
Note OFF: Time 503520, Note Name: C4
Note ON: Time 503520, Note Name: C#4, Velocity: 65
Note OFF: Time 503640, Note Name: C#4
Note ON: Time 503640, Note Name: D4, Velocity: 58
Note OFF: Time 503760, Note Name: D4
Note ON: Time 503760, Note Name: D#4, Velocity: 58
Note OFF: Time 503880, Note Name: D#4
Note ON: Time 503880, Note Name: D4, Velocity: 58
Note OFF: Time 504000, Note Name: D4
Note ON: Time 504000, Note Name: C5, Velocity: 57
Note ON: Time 504000, Note Name: C4, Velocity: 64
Note OFF: Time 504120, Note Name: C4
Note ON: Time 504120, Note Name: D4, Velocity: 57
Note OFF: Time 504240, Note Name: D4
Note OFF: Time 504240, Note Name: C5
Note ON: Time 504240, Note Name: E4, Velocity: 57
Note OFF: Time 504360, Note Name: E4
Note ON: Time 504360, Note Name: F4, Velocity: 57
Note OFF: Time 504480, Note Name: F4
Note ON: Time 504480, Note Name: A#4, Velocity: 68
Note ON: Time 504480, Note Name: F#4, Velocity: 64
Note OFF: Time 504600, Note Name: F#4
Note ON: Time 504600, Note Name: G4, Velocity: 57
Note OFF: Time 504720, Note Name: G4
Note ON: Time 504720, Note Name: G#4, Velocity: 57
Note OFF: Time 504840, Note Name: G#4
Note ON: Time 504840, Note Name: G4, Velocity: 57
Note OFF: Time 504960, Note Name: G4
Note ON: Time 504960, Note Name: F4, Velocity: 63
Note OFF: Time 505080, Note Name: F4
Note ON: Time 505080, Note Name: E4, Velocity: 56
Note OFF: Time 505200, Note Name: E4
Note OFF: Time 505200, Note Name: A#4
Note ON: Time 505200, Note Name: A#4, Velocity: 59
Note ON: Time 505200, Note Name: C#4, Velocity: 56
Note OFF: Time 505320, Note Name: C#4
Note ON: Time 505320, Note Name: C4, Velocity: 56
Note OFF: Time 505440, Note Name: C4
Note OFF: Time 505440, Note Name: A#4
Note ON: Time 505440, Note Name: A4, Velocity: 64
Note OFF: Time 505560, Note Name: A4
Note ON: Time 505560, Note Name: A#4, Velocity: 57
Note OFF: Time 505680, Note Name: A#4
Note ON: Time 505680, Note Name: A4, Velocity: 57
Note OFF: Time 505800, Note Name: A4
Note ON: Time 505800, Note Name: G4, Velocity: 57
Note OFF: Time 505920, Note Name: G4
Note ON: Time 505920, Note Name: F4, Velocity: 65
Note OFF: Time 506040, Note Name: F4
Note ON: Time 506040, Note Name: G4, Velocity: 58
Note OFF: Time 506160, Note Name: G4
Note ON: Time 506160, Note Name: A4, Velocity: 59
Note OFF: Time 506280, Note Name: A4
Note ON: Time 506280, Note Name: A#4, Velocity: 59
Note OFF: Time 506400, Note Name: A#4
Note ON: Time 506400, Note Name: B4, Velocity: 65
Note OFF: Time 506520, Note Name: B4
Note ON: Time 506520, Note Name: C5, Velocity: 58
Note OFF: Time 506640, Note Name: C5
Note ON: Time 506640, Note Name: D5, Velocity: 58
Note OFF: Time 506760, Note Name: D5
Note ON: Time 506760, Note Name: C5, Velocity: 58
Note OFF: Time 506880, Note Name: C5
Note ON: Time 506880, Note Name: A#4, Velocity: 64
Note OFF: Time 507000, Note Name: A#4
Note ON: Time 507000, Note Name: C5, Velocity: 57
Note OFF: Time 507120, Note Name: C5
Note ON: Time 507120, Note Name: D5, Velocity: 57
Note OFF: Time 507240, Note Name: D5
Note ON: Time 507240, Note Name: D#5, Velocity: 57
Note OFF: Time 507360, Note Name: D#5
Note ON: Time 507360, Note Name: E5, Velocity: 64
Note OFF: Time 507480, Note Name: E5
Note ON: Time 507480, Note Name: F5, Velocity: 57
Note OFF: Time 507600, Note Name: F5
Note ON: Time 507600, Note Name: G5, Velocity: 57
Note OFF: Time 507720, Note Name: G5
Note ON: Time 507720, Note Name: F5, Velocity: 57
Note OFF: Time 507840, Note Name: F5
Note ON: Time 507840, Note Name: G4, Velocity: 66
Note ON: Time 507840, Note Name: B4, Velocity: 63
Note OFF: Time 507960, Note Name: B4
Note ON: Time 507960, Note Name: D5, Velocity: 56
Note OFF: Time 508080, Note Name: D5
Note OFF: Time 508080, Note Name: G4
Note ON: Time 508080, Note Name: F4, Velocity: 56
Note ON: Time 508080, Note Name: D#5, Velocity: 56
Note OFF: Time 508200, Note Name: D#5
Note ON: Time 508200, Note Name: F5, Velocity: 56
Note OFF: Time 508260, Note Name: F4
Note OFF: Time 508320, Note Name: F5
Note ON: Time 508320, Note Name: F4, Velocity: 68
Note ON: Time 508320, Note Name: B4, Velocity: 64
Note OFF: Time 508440, Note Name: B4
Note ON: Time 508440, Note Name: C5, Velocity: 57
Note OFF: Time 508560, Note Name: C5
Note OFF: Time 508560, Note Name: F4
Note ON: Time 508560, Note Name: D#4, Velocity: 62
Note ON: Time 508560, Note Name: D5, Velocity: 57
Note OFF: Time 508680, Note Name: D5
Note ON: Time 508680, Note Name: C5, Velocity: 57
Note OFF: Time 508740, Note Name: D#4
Note OFF: Time 508800, Note Name: C5
Note ON: Time 508800, Note Name: D4, Velocity: 66
Note ON: Time 508800, Note Name: D5, Velocity: 64
Note OFF: Time 508920, Note Name: D5
Note ON: Time 508920, Note Name: D#5, Velocity: 57
Note OFF: Time 509040, Note Name: D#5
Note OFF: Time 509040, Note Name: D4
Note ON: Time 509040, Note Name: C4, Velocity: 61
Note ON: Time 509040, Note Name: F5, Velocity: 57
Note OFF: Time 509160, Note Name: F5
Note ON: Time 509160, Note Name: D#5, Velocity: 57
Note OFF: Time 509220, Note Name: C4
Note OFF: Time 509280, Note Name: D#5
Note ON: Time 509280, Note Name: A4, Velocity: 63
Note OFF: Time 509400, Note Name: A4
Note ON: Time 509400, Note Name: C5, Velocity: 56
Note OFF: Time 509520, Note Name: C5
Note ON: Time 509520, Note Name: D5, Velocity: 56
Note OFF: Time 509640, Note Name: D5
Note ON: Time 509640, Note Name: D#5, Velocity: 56
Note OFF: Time 509760, Note Name: D#5
Note ON: Time 509760, Note Name: E5, Velocity: 64
Note OFF: Time 509880, Note Name: E5
Note ON: Time 509880, Note Name: F5, Velocity: 57
Note OFF: Time 510000, Note Name: F5
Note ON: Time 510000, Note Name: G5, Velocity: 57
Note OFF: Time 510120, Note Name: G5
Note ON: Time 510120, Note Name: F5, Velocity: 57
Note OFF: Time 510240, Note Name: F5
Note ON: Time 510240, Note Name: A5, Velocity: 64
Note OFF: Time 510360, Note Name: A5
Note ON: Time 510360, Note Name: A#5, Velocity: 57
Note OFF: Time 510480, Note Name: A#5
Note ON: Time 510480, Note Name: C6, Velocity: 57
Note OFF: Time 510600, Note Name: C6
Note ON: Time 510600, Note Name: A#5, Velocity: 57
Note OFF: Time 510720, Note Name: A#5
Note ON: Time 510720, Note Name: D#5, Velocity: 66
Note ON: Time 510720, Note Name: F#5, Velocity: 63
Note OFF: Time 510840, Note Name: F#5
Note ON: Time 510840, Note Name: G5, Velocity: 56
Note OFF: Time 510960, Note Name: G5
Note OFF: Time 510960, Note Name: D#5
Note ON: Time 510960, Note Name: D5, Velocity: 56
Note ON: Time 510960, Note Name: A5, Velocity: 56
Note OFF: Time 511080, Note Name: A5
Note ON: Time 511080, Note Name: G5, Velocity: 56
Note OFF: Time 511140, Note Name: D5
Note OFF: Time 511200, Note Name: G5
Note ON: Time 511200, Note Name: D5, Velocity: 68
Note ON: Time 511200, Note Name: G#5, Velocity: 64
Note OFF: Time 511320, Note Name: G#5
Note ON: Time 511320, Note Name: A5, Velocity: 57
Note OFF: Time 511440, Note Name: A5
Note OFF: Time 511440, Note Name: D5
Note ON: Time 511440, Note Name: C5, Velocity: 62
Note ON: Time 511440, Note Name: A#5, Velocity: 57
Note OFF: Time 511560, Note Name: A#5
Note ON: Time 511560, Note Name: A5, Velocity: 57
Note OFF: Time 511620, Note Name: C5
Note OFF: Time 511680, Note Name: A5
Note ON: Time 511680, Note Name: A#4, Velocity: 66
Note ON: Time 511680, Note Name: B5, Velocity: 64
Note OFF: Time 511800, Note Name: B5
Note ON: Time 511800, Note Name: C6, Velocity: 57
Note OFF: Time 511920, Note Name: C6
Note OFF: Time 511920, Note Name: A#4
Note ON: Time 511920, Note Name: A4, Velocity: 61
Note ON: Time 511920, Note Name: D6, Velocity: 57
Note OFF: Time 512040, Note Name: D6
Note ON: Time 512040, Note Name: C6, Velocity: 57
Note OFF: Time 512100, Note Name: A4
Note OFF: Time 512160, Note Name: C6
Note ON: Time 512160, Note Name: D5, Velocity: 66
Note ON: Time 512160, Note Name: E5, Velocity: 63
Note OFF: Time 512280, Note Name: E5
Note ON: Time 512280, Note Name: F#5, Velocity: 56
Note OFF: Time 512400, Note Name: F#5
Note OFF: Time 512400, Note Name: D5
Note ON: Time 512400, Note Name: C5, Velocity: 56
Note ON: Time 512400, Note Name: G5, Velocity: 56
Note OFF: Time 512520, Note Name: G5
Note ON: Time 512520, Note Name: F#5, Velocity: 56
Note OFF: Time 512580, Note Name: C5
Note OFF: Time 512640, Note Name: F#5
Note ON: Time 512640, Note Name: C5, Velocity: 68
Note ON: Time 512640, Note Name: G5, Velocity: 64
Note OFF: Time 512760, Note Name: G5
Note ON: Time 512760, Note Name: G#5, Velocity: 57
Note OFF: Time 512880, Note Name: G#5
Note OFF: Time 512880, Note Name: C5
Note ON: Time 512880, Note Name: A#4, Velocity: 62
Note ON: Time 512880, Note Name: A5, Velocity: 57
Note OFF: Time 513000, Note Name: A5
Note ON: Time 513000, Note Name: G5, Velocity: 57
Note OFF: Time 513060, Note Name: A#4
Note OFF: Time 513120, Note Name: G5
Note ON: Time 513120, Note Name: D5, Velocity: 66
Note ON: Time 513120, Note Name: A#5, Velocity: 64
Note OFF: Time 513240, Note Name: A#5
Note ON: Time 513240, Note Name: B5, Velocity: 57
Note OFF: Time 513360, Note Name: B5
Note OFF: Time 513360, Note Name: D5
Note ON: Time 513360, Note Name: D#5, Velocity: 61
Note ON: Time 513360, Note Name: C6, Velocity: 57
Note OFF: Time 513480, Note Name: C6
Note ON: Time 513480, Note Name: A#5, Velocity: 57
Note OFF: Time 513540, Note Name: D#5
Note OFF: Time 513600, Note Name: A#5
Note ON: Time 513600, Note Name: D5, Velocity: 66
Note ON: Time 513600, Note Name: G#5, Velocity: 63
Note OFF: Time 513720, Note Name: G#5
Note ON: Time 513720, Note Name: A5, Velocity: 56
Note OFF: Time 513840, Note Name: A5
Note OFF: Time 513840, Note Name: D5
Note ON: Time 513840, Note Name: C5, Velocity: 56
Note ON: Time 513840, Note Name: A#5, Velocity: 56
Note OFF: Time 513960, Note Name: A#5
Note ON: Time 513960, Note Name: A5, Velocity: 56
Note OFF: Time 514020, Note Name: C5
Note OFF: Time 514080, Note Name: A5
Note ON: Time 514080, Note Name: E5, Velocity: 68
Note ON: Time 514080, Note Name: C#6, Velocity: 64
Note OFF: Time 514200, Note Name: C#6
Note ON: Time 514200, Note Name: D6, Velocity: 57
Note OFF: Time 514320, Note Name: D6
Note OFF: Time 514320, Note Name: E5
Note ON: Time 514320, Note Name: F5, Velocity: 62
Note ON: Time 514320, Note Name: D#6, Velocity: 57
Note OFF: Time 514440, Note Name: D#6
Note ON: Time 514440, Note Name: D6, Velocity: 57
Note OFF: Time 514500, Note Name: F5
Note OFF: Time 514560, Note Name: D6
Note ON: Time 514560, Note Name: D#5, Velocity: 66
Note ON: Time 514560, Note Name: B5, Velocity: 64
Note OFF: Time 514680, Note Name: B5
Note ON: Time 514680, Note Name: C6, Velocity: 57
Note OFF: Time 514800, Note Name: C6
Note OFF: Time 514800, Note Name: D#5
Note ON: Time 514800, Note Name: D5, Velocity: 61
Note ON: Time 514800, Note Name: D6, Velocity: 57
Note OFF: Time 514920, Note Name: D6
Note ON: Time 514920, Note Name: A#5, Velocity: 57
Note OFF: Time 514980, Note Name: D5
Note OFF: Time 515040, Note Name: A#5
Note ON: Time 515040, Note Name: C#5, Velocity: 70
Note OFF: Time 515160, Note Name: C#5
Note ON: Time 515160, Note Name: D5, Velocity: 65
Note OFF: Time 515280, Note Name: D5
Note ON: Time 515280, Note Name: C5, Velocity: 71
Note ON: Time 515400, Note Name: A#4, Velocity: 67
Note OFF: Time 515424, Note Name: C5
Note OFF: Time 515520, Note Name: A#4
Note ON: Time 515520, Note Name: G#4, Velocity: 64
Note ON: Time 515520, Note Name: B4, Velocity: 83
Note OFF: Time 515640, Note Name: G#4
Note ON: Time 515640, Note Name: D4, Velocity: 61
Note OFF: Time 515760, Note Name: D4
Note OFF: Time 515760, Note Name: B4
Note ON: Time 515760, Note Name: G4, Velocity: 64
Note ON: Time 515760, Note Name: C5, Velocity: 76
Note ON: Time 515880, Note Name: E4, Velocity: 61
Note OFF: Time 515904, Note Name: C5
Note OFF: Time 515904, Note Name: G4
Note OFF: Time 516000, Note Name: E4
Note ON: Time 516000, Note Name: D4, Velocity: 64
Note ON: Time 516000, Note Name: A#4, Velocity: 82
Note OFF: Time 516120, Note Name: D4
Note ON: Time 516120, Note Name: E4, Velocity: 62
Note OFF: Time 516240, Note Name: E4
Note OFF: Time 516240, Note Name: A#4
Note ON: Time 516240, Note Name: C#4, Velocity: 64
Note ON: Time 516240, Note Name: A4, Velocity: 76
Note ON: Time 516360, Note Name: E4, Velocity: 61
Note OFF: Time 516384, Note Name: A4
Note OFF: Time 516384, Note Name: C#4
Note OFF: Time 516480, Note Name: E4
Note ON: Time 516480, Note Name: A#4, Velocity: 64
Note ON: Time 516480, Note Name: C#5, Velocity: 83
Note OFF: Time 516600, Note Name: A#4
Note ON: Time 516600, Note Name: E4, Velocity: 61
Note OFF: Time 516720, Note Name: E4
Note OFF: Time 516720, Note Name: C#5
Note ON: Time 516720, Note Name: A4, Velocity: 64
Note ON: Time 516720, Note Name: D5, Velocity: 76
Note ON: Time 516840, Note Name: F#4, Velocity: 64
Note OFF: Time 516864, Note Name: D5
Note OFF: Time 516864, Note Name: A4
Note OFF: Time 516960, Note Name: F#4
Note ON: Time 516960, Note Name: D#4, Velocity: 64
Note ON: Time 516960, Note Name: C5, Velocity: 83
Note OFF: Time 517080, Note Name: D#4
Note ON: Time 517080, Note Name: F#4, Velocity: 61
Note OFF: Time 517200, Note Name: F#4
Note OFF: Time 517200, Note Name: C5
Note ON: Time 517200, Note Name: D4, Velocity: 64
Note ON: Time 517200, Note Name: A#4, Velocity: 76
Note ON: Time 517320, Note Name: G4, Velocity: 62
Note OFF: Time 517344, Note Name: A#4
Note OFF: Time 517344, Note Name: D4
Note OFF: Time 517440, Note Name: G4
Note ON: Time 517440, Note Name: A#4, Velocity: 64
Note ON: Time 517440, Note Name: D#5, Velocity: 83
Note OFF: Time 517560, Note Name: A#4
Note ON: Time 517560, Note Name: A4, Velocity: 63
Note OFF: Time 517680, Note Name: A4
Note OFF: Time 517680, Note Name: D#5
Note ON: Time 517680, Note Name: A#4, Velocity: 64
Note ON: Time 517680, Note Name: E5, Velocity: 76
Note ON: Time 517800, Note Name: G4, Velocity: 62
Note OFF: Time 517824, Note Name: E5
Note OFF: Time 517824, Note Name: A#4
Note OFF: Time 517920, Note Name: G4
Note ON: Time 517920, Note Name: C#5, Velocity: 64
Note ON: Time 517920, Note Name: F#5, Velocity: 82
Note OFF: Time 518040, Note Name: C#5
Note ON: Time 518040, Note Name: C5, Velocity: 63
Note OFF: Time 518160, Note Name: C5
Note OFF: Time 518160, Note Name: F#5
Note ON: Time 518160, Note Name: C#5, Velocity: 64
Note ON: Time 518160, Note Name: G5, Velocity: 76
Note ON: Time 518280, Note Name: A#4, Velocity: 62
Note OFF: Time 518304, Note Name: G5
Note OFF: Time 518304, Note Name: C#5
Note OFF: Time 518400, Note Name: A#4
Note ON: Time 518400, Note Name: E4, Velocity: 78
Note ON: Time 518400, Note Name: G4, Velocity: 78
Note ON: Time 518400, Note Name: A#4, Velocity: 92
Note OFF: Time 518640, Note Name: A#4
Note OFF: Time 518640, Note Name: G4
Note OFF: Time 518640, Note Name: E4
Note ON: Time 518880, Note Name: C#6, Velocity: 74
Note ON: Time 518880, Note Name: A#5, Velocity: 74
Note ON: Time 518880, Note Name: E6, Velocity: 88
Note OFF: Time 518960, Note Name: E6
Note ON: Time 518960, Note Name: F6, Velocity: 80
Note OFF: Time 519040, Note Name: F6
Note ON: Time 519040, Note Name: E6, Velocity: 88
Note OFF: Time 519120, Note Name: E6
Note ON: Time 519120, Note Name: F6, Velocity: 79
Note OFF: Time 519200, Note Name: F6
Note ON: Time 519200, Note Name: E6, Velocity: 89
Note OFF: Time 519280, Note Name: E6
Note ON: Time 519280, Note Name: F6, Velocity: 82
Note OFF: Time 519360, Note Name: F6
Note ON: Time 519360, Note Name: E6, Velocity: 90
Note OFF: Time 519440, Note Name: E6
Note ON: Time 519440, Note Name: F6, Velocity: 82
Note OFF: Time 519520, Note Name: F6
Note ON: Time 519520, Note Name: E6, Velocity: 91
Note OFF: Time 519600, Note Name: E6
Note ON: Time 519600, Note Name: F6, Velocity: 81
Note OFF: Time 519660, Note Name: F6
Note ON: Time 519660, Note Name: E6, Velocity: 88
Note OFF: Time 519720, Note Name: E6
Note ON: Time 519720, Note Name: D6, Velocity: 84
Note OFF: Time 519780, Note Name: D6
Note ON: Time 519780, Note Name: E6, Velocity: 89
Note OFF: Time 519840, Note Name: E6
Note OFF: Time 519840, Note Name: A#5
Note OFF: Time 519840, Note Name: C#6
Note ON: Time 519840, Note Name: G6, Velocity: 98
Note ON: Time 520080, Note Name: A#3, Velocity: 92
Note OFF: Time 520140, Note Name: A#3
Note OFF: Time 520320, Note Name: G6
Note ON: Time 520320, Note Name: E5, Velocity: 88
Note OFF: Time 520400, Note Name: E5
Note ON: Time 520400, Note Name: F5, Velocity: 80
Note OFF: Time 520480, Note Name: F5
Note ON: Time 520480, Note Name: E5, Velocity: 88
Note OFF: Time 520560, Note Name: E5
Note ON: Time 520560, Note Name: F5, Velocity: 79
Note ON: Time 520560, Note Name: G6, Velocity: 88
Note OFF: Time 520640, Note Name: F5
Note ON: Time 520640, Note Name: E5, Velocity: 89
Note OFF: Time 520680, Note Name: G6
Note ON: Time 520680, Note Name: F6, Velocity: 79
Note OFF: Time 520720, Note Name: E5
Note ON: Time 520720, Note Name: F5, Velocity: 82
Note OFF: Time 520800, Note Name: F5
Note OFF: Time 520800, Note Name: F6
Note ON: Time 520800, Note Name: E5, Velocity: 90
Note ON: Time 520800, Note Name: E6, Velocity: 88
Note OFF: Time 520880, Note Name: E5
Note ON: Time 520880, Note Name: F5, Velocity: 82
Note OFF: Time 520920, Note Name: E6
Note ON: Time 520920, Note Name: C#6, Velocity: 79
Note OFF: Time 520960, Note Name: F5
Note ON: Time 520960, Note Name: E5, Velocity: 91
Note OFF: Time 521040, Note Name: E5
Note OFF: Time 521040, Note Name: C#6
Note ON: Time 521040, Note Name: C6, Velocity: 88
Note ON: Time 521040, Note Name: F5, Velocity: 81
Note OFF: Time 521100, Note Name: F5
Note ON: Time 521100, Note Name: E5, Velocity: 88
Note OFF: Time 521160, Note Name: E5
Note OFF: Time 521160, Note Name: C6
Note ON: Time 521160, Note Name: A#5, Velocity: 79
Note ON: Time 521160, Note Name: D5, Velocity: 84
Note OFF: Time 521220, Note Name: D5
Note ON: Time 521220, Note Name: E5, Velocity: 89
Note OFF: Time 521280, Note Name: E5
Note OFF: Time 521280, Note Name: A#5
Note ON: Time 521280, Note Name: F5, Velocity: 98
Note ON: Time 521520, Note Name: A5, Velocity: 92
Note OFF: Time 521580, Note Name: A5
Note OFF: Time 521760, Note Name: F5
Note ON: Time 521760, Note Name: A6, Velocity: 98
Note OFF: Time 522000, Note Name: A6
Note ON: Time 522000, Note Name: F5, Velocity: 86
Note OFF: Time 522120, Note Name: F5
Note ON: Time 522120, Note Name: E5, Velocity: 85
Note OFF: Time 522240, Note Name: E5
Note ON: Time 522240, Note Name: D5, Velocity: 83
Note OFF: Time 522360, Note Name: D5
Note ON: Time 522360, Note Name: C5, Velocity: 82
Note OFF: Time 522480, Note Name: C5
Note ON: Time 522480, Note Name: A#4, Velocity: 81
Note OFF: Time 522600, Note Name: A#4
Note ON: Time 522600, Note Name: A4, Velocity: 80
Note OFF: Time 522720, Note Name: A4
Note ON: Time 522720, Note Name: D5, Velocity: 98
Note ON: Time 522960, Note Name: F5, Velocity: 92
Note OFF: Time 523020, Note Name: F5
Note OFF: Time 523200, Note Name: D5
Note ON: Time 523200, Note Name: F6, Velocity: 98
Note OFF: Time 523440, Note Name: F6
Note ON: Time 523440, Note Name: D5, Velocity: 86
Note OFF: Time 523560, Note Name: D5
Note ON: Time 523560, Note Name: C5, Velocity: 85
Note OFF: Time 523680, Note Name: C5
Note ON: Time 523680, Note Name: A#4, Velocity: 83
Note OFF: Time 523800, Note Name: A#4
Note ON: Time 523800, Note Name: A4, Velocity: 82
Note OFF: Time 523920, Note Name: A4
Note ON: Time 523920, Note Name: G4, Velocity: 81
Note OFF: Time 524040, Note Name: G4
Note ON: Time 524040, Note Name: F4, Velocity: 80
Note OFF: Time 524160, Note Name: F4
Note ON: Time 524160, Note Name: A#4, Velocity: 98
Note ON: Time 524400, Note Name: D5, Velocity: 85
Note OFF: Time 524640, Note Name: D5
Note OFF: Time 524640, Note Name: A#4
Note ON: Time 524640, Note Name: D6, Velocity: 97
Note OFF: Time 524880, Note Name: D6
Note ON: Time 524880, Note Name: C6, Velocity: 95
Note OFF: Time 525120, Note Name: C6
Note ON: Time 525120, Note Name: A#5, Velocity: 92
Note OFF: Time 525360, Note Name: A#5
Note ON: Time 525360, Note Name: B5, Velocity: 90
Note OFF: Time 525600, Note Name: B5
Note ON: Time 525600, Note Name: C6, Velocity: 90
Note OFF: Time 525840, Note Name: C6
Note ON: Time 526080, Note Name: A#5, Velocity: 94
Note OFF: Time 526800, Note Name: A#5
Note ON: Time 526800, Note Name: A#5, Velocity: 87
Note OFF: Time 527040, Note Name: A#5
Note ON: Time 527040, Note Name: F5, Velocity: 74
Note ON: Time 527160, Note Name: G5, Velocity: 68
Note OFF: Time 527184, Note Name: F5
Note ON: Time 527280, Note Name: A5, Velocity: 68
Note OFF: Time 527304, Note Name: G5
Note ON: Time 527400, Note Name: A#5, Velocity: 68
Note OFF: Time 527424, Note Name: A5
Note ON: Time 527520, Note Name: B5, Velocity: 72
Note OFF: Time 527544, Note Name: A#5
Note ON: Time 527640, Note Name: C6, Velocity: 64
Note OFF: Time 527664, Note Name: B5
Note ON: Time 527760, Note Name: D6, Velocity: 69
Note OFF: Time 527784, Note Name: C6
Note ON: Time 527880, Note Name: C6, Velocity: 64
Note OFF: Time 527904, Note Name: D6
Note ON: Time 528000, Note Name: A#5, Velocity: 72
Note OFF: Time 528024, Note Name: C6
Note ON: Time 528120, Note Name: A5, Velocity: 64
Note OFF: Time 528144, Note Name: A#5
Note ON: Time 528240, Note Name: G5, Velocity: 71
Note OFF: Time 528264, Note Name: A5
Note ON: Time 528360, Note Name: F5, Velocity: 66
Note OFF: Time 528384, Note Name: G5
Note OFF: Time 528480, Note Name: F5
Note ON: Time 528480, Note Name: D6, Velocity: 90
Note OFF: Time 528720, Note Name: D6
Note ON: Time 528960, Note Name: C6, Velocity: 94
Note OFF: Time 529680, Note Name: C6
Note ON: Time 529680, Note Name: C6, Velocity: 87
Note OFF: Time 529920, Note Name: C6
Note ON: Time 529920, Note Name: G5, Velocity: 74
Note ON: Time 530040, Note Name: A5, Velocity: 68
Note OFF: Time 530064, Note Name: G5
Note ON: Time 530160, Note Name: A#5, Velocity: 68
Note OFF: Time 530184, Note Name: A5
Note ON: Time 530280, Note Name: C6, Velocity: 68
Note OFF: Time 530304, Note Name: A#5
Note ON: Time 530400, Note Name: C#6, Velocity: 72
Note OFF: Time 530424, Note Name: C6
Note ON: Time 530520, Note Name: D6, Velocity: 64
Note OFF: Time 530544, Note Name: C#6
Note ON: Time 530640, Note Name: D#6, Velocity: 69
Note OFF: Time 530664, Note Name: D6
Note ON: Time 530760, Note Name: D6, Velocity: 64
Note OFF: Time 530784, Note Name: D#6
Note ON: Time 530880, Note Name: C6, Velocity: 72
Note OFF: Time 530904, Note Name: D6
Note ON: Time 531000, Note Name: A#5, Velocity: 64
Note OFF: Time 531024, Note Name: C6
Note ON: Time 531120, Note Name: A5, Velocity: 71
Note OFF: Time 531144, Note Name: A#5
Note ON: Time 531240, Note Name: G5, Velocity: 66
Note OFF: Time 531264, Note Name: A5
Note OFF: Time 531360, Note Name: G5
Note ON: Time 531360, Note Name: F6, Velocity: 90
Note OFF: Time 531600, Note Name: F6
Note ON: Time 531840, Note Name: D#6, Velocity: 94
Note OFF: Time 532560, Note Name: D#6
Note ON: Time 532560, Note Name: D#6, Velocity: 87
Note OFF: Time 532800, Note Name: D#6
Note ON: Time 532800, Note Name: A#5, Velocity: 74
Note ON: Time 532920, Note Name: C6, Velocity: 68
Note OFF: Time 532944, Note Name: A#5
Note ON: Time 533040, Note Name: D6, Velocity: 68
Note OFF: Time 533064, Note Name: C6
Note ON: Time 533160, Note Name: D#6, Velocity: 68
Note OFF: Time 533184, Note Name: D6
Note ON: Time 533280, Note Name: E6, Velocity: 72
Note OFF: Time 533304, Note Name: D#6
Note ON: Time 533400, Note Name: F6, Velocity: 65
Note OFF: Time 533424, Note Name: E6
Note ON: Time 533520, Note Name: G6, Velocity: 70
Note OFF: Time 533544, Note Name: F6
Note ON: Time 533640, Note Name: F6, Velocity: 65
Note OFF: Time 533664, Note Name: G6
Note ON: Time 533760, Note Name: E6, Velocity: 74
Note OFF: Time 533784, Note Name: F6
Note ON: Time 533880, Note Name: F6, Velocity: 65
Note OFF: Time 533904, Note Name: E6
Note ON: Time 534000, Note Name: F#6, Velocity: 73
Note OFF: Time 534024, Note Name: F6
Note ON: Time 534120, Note Name: F6, Velocity: 68
Note OFF: Time 534144, Note Name: F#6
Note OFF: Time 534240, Note Name: F6
Note ON: Time 534240, Note Name: D6, Velocity: 75
Note ON: Time 534360, Note Name: D#6, Velocity: 70
Note OFF: Time 534384, Note Name: D6
Note ON: Time 534480, Note Name: F6, Velocity: 70
Note OFF: Time 534504, Note Name: D#6
Note ON: Time 534600, Note Name: D#6, Velocity: 71
Note OFF: Time 534624, Note Name: F6
Note OFF: Time 534720, Note Name: D#6
Note ON: Time 534720, Note Name: C6, Velocity: 76
Note ON: Time 534840, Note Name: C#6, Velocity: 71
Note OFF: Time 534864, Note Name: C6
Note ON: Time 534960, Note Name: D#6, Velocity: 71
Note OFF: Time 534984, Note Name: C#6
Note ON: Time 535080, Note Name: C#6, Velocity: 71
Note OFF: Time 535104, Note Name: D#6
Note OFF: Time 535200, Note Name: C#6
Note ON: Time 535200, Note Name: B5, Velocity: 77
Note ON: Time 535320, Note Name: C6, Velocity: 72
Note OFF: Time 535344, Note Name: B5
Note ON: Time 535440, Note Name: C#6, Velocity: 73
Note OFF: Time 535464, Note Name: C6
Note ON: Time 535560, Note Name: C6, Velocity: 73
Note OFF: Time 535584, Note Name: C#6
Note OFF: Time 535680, Note Name: C6
Note ON: Time 535680, Note Name: D#5, Velocity: 89
Note OFF: Time 535800, Note Name: D#5
Note ON: Time 535920, Note Name: F#6, Velocity: 95
Note OFF: Time 536160, Note Name: F#6
Note ON: Time 536160, Note Name: F#4, Velocity: 66
Note ON: Time 536160, Note Name: C5, Velocity: 66
Note ON: Time 536160, Note Name: F5, Velocity: 72
Note OFF: Time 536280, Note Name: F5
Note ON: Time 536280, Note Name: D#5, Velocity: 65
Note OFF: Time 536400, Note Name: D#5
Note ON: Time 536400, Note Name: F5, Velocity: 72
Note OFF: Time 536520, Note Name: F5
Note ON: Time 536520, Note Name: D#5, Velocity: 67
Note OFF: Time 536640, Note Name: D#5
Note ON: Time 536640, Note Name: F5, Velocity: 72
Note OFF: Time 536760, Note Name: F5
Note ON: Time 536760, Note Name: D#5, Velocity: 67
Note OFF: Time 536880, Note Name: D#5
Note ON: Time 536880, Note Name: D5, Velocity: 72
Note OFF: Time 537000, Note Name: D5
Note ON: Time 537000, Note Name: D#5, Velocity: 66
Note OFF: Time 537120, Note Name: D#5
Note OFF: Time 537120, Note Name: C5
Note ON: Time 537120, Note Name: D5, Velocity: 74
Note OFF: Time 537360, Note Name: F#4
Note ON: Time 537360, Note Name: A#3, Velocity: 73
Note ON: Time 537360, Note Name: F4, Velocity: 73
Note OFF: Time 537600, Note Name: F4
Note OFF: Time 537600, Note Name: A#3
Note OFF: Time 537600, Note Name: D5
Note ON: Time 537600, Note Name: A#4, Velocity: 75
Note OFF: Time 537840, Note Name: A#4
Note ON: Time 537840, Note Name: D5, Velocity: 69
Note OFF: Time 537960, Note Name: D5
Note ON: Time 537960, Note Name: D#5, Velocity: 61
Note OFF: Time 538080, Note Name: D#5
Note ON: Time 538080, Note Name: F5, Velocity: 66
Note OFF: Time 538200, Note Name: F5
Note ON: Time 538200, Note Name: G5, Velocity: 67
Note OFF: Time 538320, Note Name: G5
Note ON: Time 538320, Note Name: A5, Velocity: 68
Note OFF: Time 538440, Note Name: A5
Note ON: Time 538440, Note Name: A#5, Velocity: 69
Note OFF: Time 538560, Note Name: A#5
Note ON: Time 538560, Note Name: F5, Velocity: 78
Note ON: Time 538800, Note Name: D4, Velocity: 73
Note OFF: Time 539040, Note Name: D4
Note OFF: Time 539040, Note Name: F5
Note ON: Time 539040, Note Name: D5, Velocity: 75
Note OFF: Time 539280, Note Name: D5
Note ON: Time 539280, Note Name: F5, Velocity: 69
Note OFF: Time 539400, Note Name: F5
Note ON: Time 539400, Note Name: G5, Velocity: 61
Note OFF: Time 539520, Note Name: G5
Note ON: Time 539520, Note Name: A5, Velocity: 66
Note OFF: Time 539640, Note Name: A5
Note ON: Time 539640, Note Name: A#5, Velocity: 67
Note OFF: Time 539760, Note Name: A#5
Note ON: Time 539760, Note Name: C6, Velocity: 68
Note OFF: Time 539880, Note Name: C6
Note ON: Time 539880, Note Name: D6, Velocity: 69
Note OFF: Time 540000, Note Name: D6
Note ON: Time 540000, Note Name: G5, Velocity: 78
Note ON: Time 540240, Note Name: D#4, Velocity: 73
Note OFF: Time 540480, Note Name: D#4
Note OFF: Time 540480, Note Name: G5
Note ON: Time 540480, Note Name: D#5, Velocity: 75
Note OFF: Time 540720, Note Name: D#5
Note ON: Time 540720, Note Name: G5, Velocity: 69
Note OFF: Time 540840, Note Name: G5
Note ON: Time 540840, Note Name: A5, Velocity: 61
Note OFF: Time 540960, Note Name: A5
Note ON: Time 540960, Note Name: A#5, Velocity: 66
Note OFF: Time 541080, Note Name: A#5
Note ON: Time 541080, Note Name: B5, Velocity: 67
Note OFF: Time 541200, Note Name: B5
Note ON: Time 541200, Note Name: C6, Velocity: 68
Note OFF: Time 541320, Note Name: C6
Note ON: Time 541320, Note Name: D6, Velocity: 69
Note OFF: Time 541440, Note Name: D6
Note ON: Time 541440, Note Name: D#6, Velocity: 78
Note OFF: Time 541680, Note Name: D#6
Note ON: Time 541680, Note Name: E6, Velocity: 83
Note OFF: Time 542040, Note Name: E6
Note ON: Time 542040, Note Name: F6, Velocity: 73
Note OFF: Time 542160, Note Name: F6
Note ON: Time 542160, Note Name: D#6, Velocity: 81
Note OFF: Time 542280, Note Name: D#6
Note ON: Time 542280, Note Name: D6, Velocity: 78
Note OFF: Time 542400, Note Name: D6
Note ON: Time 542400, Note Name: C6, Velocity: 79
Note OFF: Time 542520, Note Name: C6
Note ON: Time 542520, Note Name: A#5, Velocity: 75
Note OFF: Time 542640, Note Name: A#5
Note ON: Time 542640, Note Name: A5, Velocity: 75
Note OFF: Time 542760, Note Name: A5
Note ON: Time 542760, Note Name: G5, Velocity: 75
Note OFF: Time 542880, Note Name: G5
Note ON: Time 542880, Note Name: F5, Velocity: 80
Note OFF: Time 543000, Note Name: F5
Note ON: Time 543000, Note Name: G5, Velocity: 70
Note OFF: Time 543120, Note Name: G5
Note ON: Time 543120, Note Name: F5, Velocity: 76
Note OFF: Time 543240, Note Name: F5
Note ON: Time 543240, Note Name: D#5, Velocity: 68
Note OFF: Time 543360, Note Name: D#5
Note ON: Time 543360, Note Name: D5, Velocity: 74
Note OFF: Time 543480, Note Name: D5
Note ON: Time 543480, Note Name: D#5, Velocity: 68
Note OFF: Time 543600, Note Name: D#5
Note ON: Time 543600, Note Name: F5, Velocity: 73
Note OFF: Time 543720, Note Name: F5
Note ON: Time 543720, Note Name: E5, Velocity: 66
Note OFF: Time 543840, Note Name: E5
Note ON: Time 543840, Note Name: F5, Velocity: 78
Note OFF: Time 544080, Note Name: F5
Note ON: Time 544800, Note Name: B3, Velocity: 78
Note OFF: Time 545040, Note Name: B3
Note ON: Time 545280, Note Name: D#5, Velocity: 64
Note OFF: Time 545360, Note Name: D#5
Note ON: Time 545360, Note Name: F5, Velocity: 59
Note OFF: Time 545440, Note Name: F5
Note ON: Time 545440, Note Name: D#5, Velocity: 64
Note OFF: Time 545520, Note Name: D#5
Note ON: Time 545520, Note Name: F5, Velocity: 59
Note OFF: Time 545600, Note Name: F5
Note ON: Time 545600, Note Name: D#5, Velocity: 64
Note OFF: Time 545680, Note Name: D#5
Note ON: Time 545680, Note Name: F5, Velocity: 58
Note OFF: Time 545760, Note Name: F5
Note ON: Time 545760, Note Name: D#5, Velocity: 64
Note OFF: Time 545840, Note Name: D#5
Note ON: Time 545840, Note Name: F5, Velocity: 59
Note OFF: Time 545920, Note Name: F5
Note ON: Time 545920, Note Name: D#5, Velocity: 64
Note OFF: Time 546000, Note Name: D#5
Note ON: Time 546000, Note Name: F5, Velocity: 58
Note OFF: Time 546060, Note Name: F5
Note ON: Time 546060, Note Name: D#5, Velocity: 61
Note OFF: Time 546120, Note Name: D#5
Note ON: Time 546120, Note Name: D5, Velocity: 58
Note OFF: Time 546180, Note Name: D5
Note ON: Time 546180, Note Name: D#5, Velocity: 58
Note OFF: Time 546240, Note Name: D#5
Note ON: Time 546240, Note Name: G5, Velocity: 64
Note OFF: Time 546720, Note Name: G5
Note ON: Time 546960, Note Name: G5, Velocity: 73
Note OFF: Time 547080, Note Name: G5
Note ON: Time 547080, Note Name: F5, Velocity: 74
Note OFF: Time 547200, Note Name: F5
Note ON: Time 547200, Note Name: D#5, Velocity: 72
Note OFF: Time 547320, Note Name: D#5
Note ON: Time 547320, Note Name: D5, Velocity: 69
Note OFF: Time 547440, Note Name: D5
Note ON: Time 547440, Note Name: C5, Velocity: 67
Note OFF: Time 547560, Note Name: C5
Note ON: Time 547560, Note Name: B4, Velocity: 64
Note OFF: Time 547680, Note Name: B4
Note ON: Time 547680, Note Name: C5, Velocity: 73
Note OFF: Time 548160, Note Name: C5
Note ON: Time 548160, Note Name: G4, Velocity: 73
Note ON: Time 548400, Note Name: C5, Velocity: 73
Note OFF: Time 548520, Note Name: C5
Note ON: Time 548520, Note Name: A#4, Velocity: 70
Note OFF: Time 548640, Note Name: A#4
Note OFF: Time 548640, Note Name: G4
Note ON: Time 548640, Note Name: C4, Velocity: 73
Note ON: Time 548640, Note Name: A4, Velocity: 72
Note OFF: Time 548760, Note Name: A4
Note ON: Time 548760, Note Name: G4, Velocity: 69
Note OFF: Time 548880, Note Name: G4
Note ON: Time 548880, Note Name: F4, Velocity: 67
Note OFF: Time 549000, Note Name: F4
Note ON: Time 549000, Note Name: E4, Velocity: 64
Note OFF: Time 549120, Note Name: E4
Note OFF: Time 549120, Note Name: C4
Note ON: Time 549120, Note Name: D4, Velocity: 64
Note OFF: Time 549240, Note Name: D4
Note ON: Time 549240, Note Name: C4, Velocity: 61
Note OFF: Time 549360, Note Name: C4
Note ON: Time 549360, Note Name: A#3, Velocity: 59
Note OFF: Time 549480, Note Name: A#3
Note ON: Time 549480, Note Name: A3, Velocity: 58
Note OFF: Time 549600, Note Name: A3
Note ON: Time 549600, Note Name: A4, Velocity: 73
Note OFF: Time 549840, Note Name: A4
Note ON: Time 549840, Note Name: D4, Velocity: 68
Note OFF: Time 549960, Note Name: D4
Note ON: Time 549960, Note Name: C4, Velocity: 64
Note OFF: Time 550080, Note Name: C4
Note ON: Time 550080, Note Name: A#3, Velocity: 68
Note OFF: Time 550200, Note Name: A#3
Note ON: Time 550200, Note Name: A3, Velocity: 65
Note OFF: Time 550320, Note Name: A3
Note ON: Time 550320, Note Name: G3, Velocity: 63
Note OFF: Time 550440, Note Name: G3
Note ON: Time 550440, Note Name: F3, Velocity: 60
Note OFF: Time 550560, Note Name: F3
Note ON: Time 550560, Note Name: E3, Velocity: 64
Note OFF: Time 550680, Note Name: E3
Note ON: Time 550680, Note Name: D3, Velocity: 64
Note OFF: Time 550800, Note Name: D3
Note ON: Time 550800, Note Name: C3, Velocity: 62
Note OFF: Time 550920, Note Name: C3
Note ON: Time 550920, Note Name: A#2, Velocity: 61
Note OFF: Time 551040, Note Name: A#2
Note ON: Time 551280, Note Name: D#5, Velocity: 76
Note OFF: Time 551400, Note Name: D#5
Note ON: Time 551400, Note Name: D5, Velocity: 71
Note OFF: Time 551520, Note Name: D5
Note ON: Time 551520, Note Name: C5, Velocity: 77
Note OFF: Time 551640, Note Name: C5
Note ON: Time 551640, Note Name: A#4, Velocity: 74
Note OFF: Time 551760, Note Name: A#4
Note ON: Time 551760, Note Name: A4, Velocity: 71
Note OFF: Time 551880, Note Name: A4
Note ON: Time 551880, Note Name: G4, Velocity: 68
Note OFF: Time 552000, Note Name: G4
Note ON: Time 552000, Note Name: F4, Velocity: 74
Note OFF: Time 552120, Note Name: F4
Note ON: Time 552120, Note Name: D#4, Velocity: 73
Note OFF: Time 552240, Note Name: D#4
Note ON: Time 552240, Note Name: D4, Velocity: 71
Note OFF: Time 552360, Note Name: D4
Note ON: Time 552360, Note Name: C4, Velocity: 69
Note OFF: Time 552480, Note Name: C4
Note ON: Time 552480, Note Name: C5, Velocity: 77
Note OFF: Time 552720, Note Name: C5
Note ON: Time 552720, Note Name: C4, Velocity: 74
Note OFF: Time 552840, Note Name: C4
Note ON: Time 552840, Note Name: A#3, Velocity: 70
Note OFF: Time 552960, Note Name: A#3
Note ON: Time 552960, Note Name: A3, Velocity: 76
Note OFF: Time 553080, Note Name: A3
Note ON: Time 553080, Note Name: G3, Velocity: 72
Note OFF: Time 553200, Note Name: G3
Note ON: Time 553200, Note Name: F3, Velocity: 70
Note OFF: Time 553320, Note Name: F3
Note ON: Time 553320, Note Name: D#3, Velocity: 68
Note OFF: Time 553440, Note Name: D#3
Note ON: Time 553440, Note Name: D3, Velocity: 72
Note OFF: Time 553560, Note Name: D3
Note ON: Time 553560, Note Name: C4, Velocity: 79
Note OFF: Time 553680, Note Name: C4
Note ON: Time 553680, Note Name: A#3, Velocity: 69
Note OFF: Time 553800, Note Name: A#3
Note ON: Time 553800, Note Name: A3, Velocity: 66
Note OFF: Time 553920, Note Name: A3
Note ON: Time 553920, Note Name: D4, Velocity: 61
Note ON: Time 553920, Note Name: D5, Velocity: 76
Note OFF: Time 554040, Note Name: D5
Note ON: Time 554040, Note Name: C5, Velocity: 72
Note OFF: Time 554160, Note Name: C5
Note OFF: Time 554160, Note Name: D4
Note ON: Time 554160, Note Name: F5, Velocity: 76
Note OFF: Time 554280, Note Name: F5
Note ON: Time 554280, Note Name: D#5, Velocity: 71
Note OFF: Time 554400, Note Name: D#5
Note ON: Time 554400, Note Name: D5, Velocity: 79
Note OFF: Time 554520, Note Name: D5
Note ON: Time 554520, Note Name: C5, Velocity: 76
Note OFF: Time 554640, Note Name: C5
Note ON: Time 554640, Note Name: A#4, Velocity: 74
Note OFF: Time 554760, Note Name: A#4
Note ON: Time 554760, Note Name: A4, Velocity: 71
Note OFF: Time 554880, Note Name: A4
Note ON: Time 554880, Note Name: G5, Velocity: 78
Note OFF: Time 555000, Note Name: G5
Note ON: Time 555000, Note Name: F5, Velocity: 76
Note OFF: Time 555120, Note Name: F5
Note ON: Time 555120, Note Name: D#5, Velocity: 73
Note OFF: Time 555240, Note Name: D#5
Note ON: Time 555240, Note Name: D5, Velocity: 71
Note OFF: Time 555360, Note Name: D5
Note ON: Time 555360, Note Name: D5, Velocity: 61
Note ON: Time 555360, Note Name: A#5, Velocity: 81
Note OFF: Time 555480, Note Name: A#5
Note ON: Time 555480, Note Name: A5, Velocity: 78
Note OFF: Time 555600, Note Name: A5
Note ON: Time 555600, Note Name: G5, Velocity: 75
Note OFF: Time 555720, Note Name: G5
Note ON: Time 555720, Note Name: F5, Velocity: 72
Note OFF: Time 555840, Note Name: F5
Note OFF: Time 555840, Note Name: D5
Note ON: Time 555840, Note Name: G4, Velocity: 86
Note ON: Time 555840, Note Name: D#5, Velocity: 86
Note OFF: Time 556080, Note Name: D#5
Note OFF: Time 556080, Note Name: G4
Note ON: Time 556080, Note Name: C5, Velocity: 86
Note OFF: Time 556320, Note Name: C5
Note ON: Time 556320, Note Name: A6, Velocity: 86
Note OFF: Time 556400, Note Name: A6
Note ON: Time 556400, Note Name: A#6, Velocity: 82
Note OFF: Time 556480, Note Name: A#6
Note ON: Time 556480, Note Name: A6, Velocity: 86
Note OFF: Time 556560, Note Name: A6
Note ON: Time 556560, Note Name: C6, Velocity: 86
Note ON: Time 556560, Note Name: A#6, Velocity: 81
Note OFF: Time 556640, Note Name: A#6
Note ON: Time 556640, Note Name: A6, Velocity: 86
Note OFF: Time 556720, Note Name: A6
Note ON: Time 556720, Note Name: A#6, Velocity: 81
Note OFF: Time 556800, Note Name: A#6
Note OFF: Time 556800, Note Name: C6
Note ON: Time 556800, Note Name: A6, Velocity: 86
Note OFF: Time 556880, Note Name: A6
Note ON: Time 556880, Note Name: A#6, Velocity: 80
Note OFF: Time 556960, Note Name: A#6
Note ON: Time 556960, Note Name: A6, Velocity: 86
Note OFF: Time 557040, Note Name: A6
Note ON: Time 557040, Note Name: A#6, Velocity: 86
Note ON: Time 557040, Note Name: F6, Velocity: 82
Note OFF: Time 557100, Note Name: A#6
Note ON: Time 557100, Note Name: A6, Velocity: 81
Note OFF: Time 557160, Note Name: A6
Note ON: Time 557160, Note Name: G6, Velocity: 80
Note OFF: Time 557220, Note Name: G6
Note ON: Time 557220, Note Name: A6, Velocity: 80
Note OFF: Time 557280, Note Name: A6
Note OFF: Time 557280, Note Name: F6
Note ON: Time 557280, Note Name: A#6, Velocity: 90
Note ON: Time 557520, Note Name: D6, Velocity: 88
Note OFF: Time 557760, Note Name: D6
Note OFF: Time 557760, Note Name: A#6
Note ON: Time 558000, Note Name: A#6, Velocity: 88
Note OFF: Time 558120, Note Name: A#6
Note ON: Time 558120, Note Name: A6, Velocity: 86
Note OFF: Time 558240, Note Name: A6
Note ON: Time 558240, Note Name: G6, Velocity: 83
Note OFF: Time 558360, Note Name: G6
Note ON: Time 558360, Note Name: F6, Velocity: 81
Note OFF: Time 558480, Note Name: F6
Note ON: Time 558480, Note Name: D#6, Velocity: 78
Note OFF: Time 558600, Note Name: D#6
Note ON: Time 558600, Note Name: D6, Velocity: 76
Note OFF: Time 558720, Note Name: D6
Note ON: Time 558720, Note Name: D#4, Velocity: 77
Note ON: Time 558720, Note Name: G6, Velocity: 88
Note OFF: Time 558960, Note Name: G6
Note OFF: Time 558960, Note Name: D#4
Note ON: Time 558960, Note Name: G5, Velocity: 81
Note OFF: Time 559200, Note Name: G5
Note ON: Time 559200, Note Name: G5, Velocity: 69
Note OFF: Time 559280, Note Name: G5
Note ON: Time 559280, Note Name: A5, Velocity: 64
Note OFF: Time 559360, Note Name: A5
Note ON: Time 559360, Note Name: G5, Velocity: 68
Note OFF: Time 559440, Note Name: G5
Note ON: Time 559440, Note Name: A5, Velocity: 66
Note ON: Time 559440, Note Name: G6, Velocity: 88
Note OFF: Time 559520, Note Name: A5
Note ON: Time 559520, Note Name: G5, Velocity: 69
Note OFF: Time 559560, Note Name: G6
Note ON: Time 559560, Note Name: F6, Velocity: 86
Note OFF: Time 559600, Note Name: G5
Note ON: Time 559600, Note Name: A5, Velocity: 66
Note OFF: Time 559680, Note Name: A5
Note OFF: Time 559680, Note Name: F6
Note ON: Time 559680, Note Name: G5, Velocity: 71
Note ON: Time 559680, Note Name: D#6, Velocity: 83
Note OFF: Time 559760, Note Name: G5
Note ON: Time 559760, Note Name: A5, Velocity: 65
Note OFF: Time 559800, Note Name: D#6
Note ON: Time 559800, Note Name: D6, Velocity: 81
Note OFF: Time 559840, Note Name: A5
Note ON: Time 559840, Note Name: G5, Velocity: 71
Note OFF: Time 559920, Note Name: G5
Note OFF: Time 559920, Note Name: D6
Note ON: Time 559920, Note Name: A5, Velocity: 69
Note ON: Time 559920, Note Name: C6, Velocity: 78
Note OFF: Time 560000, Note Name: A5
Note ON: Time 560000, Note Name: G5, Velocity: 73
Note OFF: Time 560040, Note Name: C6
Note ON: Time 560040, Note Name: A#5, Velocity: 76
Note OFF: Time 560080, Note Name: G5
Note ON: Time 560080, Note Name: A5, Velocity: 67
Note OFF: Time 560160, Note Name: A5
Note OFF: Time 560160, Note Name: A#5
Note ON: Time 560160, Note Name: D#6, Velocity: 88
Note ON: Time 560160, Note Name: G5, Velocity: 75
Note OFF: Time 560240, Note Name: G5
Note ON: Time 560240, Note Name: A5, Velocity: 70
Note OFF: Time 560320, Note Name: A5
Note ON: Time 560320, Note Name: G5, Velocity: 74
Note OFF: Time 560400, Note Name: G5
Note ON: Time 560400, Note Name: G#5, Velocity: 72
Note OFF: Time 560640, Note Name: G#5
Note OFF: Time 560640, Note Name: D#6
Note ON: Time 560640, Note Name: A5, Velocity: 78
Note OFF: Time 560880, Note Name: A5
Note ON: Time 560880, Note Name: D#6, Velocity: 88
Note OFF: Time 561000, Note Name: D#6
Note ON: Time 561000, Note Name: D6, Velocity: 82
Note OFF: Time 561120, Note Name: D6
Note ON: Time 561120, Note Name: C6, Velocity: 88
Note OFF: Time 561240, Note Name: C6
Note ON: Time 561240, Note Name: D6, Velocity: 82
Note OFF: Time 561360, Note Name: D6
Note ON: Time 561360, Note Name: E4, Velocity: 67
Note ON: Time 561360, Note Name: C6, Velocity: 83
Note OFF: Time 561480, Note Name: C6
Note ON: Time 561480, Note Name: A#5, Velocity: 83
Note OFF: Time 561600, Note Name: A#5
Note OFF: Time 561600, Note Name: E4
Note ON: Time 561600, Note Name: F4, Velocity: 72
Note ON: Time 561600, Note Name: A5, Velocity: 88
Note OFF: Time 561720, Note Name: A5
Note ON: Time 561720, Note Name: A#5, Velocity: 83
Note OFF: Time 561840, Note Name: A#5
Note OFF: Time 561840, Note Name: F4
Note ON: Time 561840, Note Name: A5, Velocity: 83
Note OFF: Time 561960, Note Name: A5
Note ON: Time 561960, Note Name: G5, Velocity: 83
Note OFF: Time 562080, Note Name: G5
Note ON: Time 562080, Note Name: F5, Velocity: 88
Note OFF: Time 562200, Note Name: F5
Note ON: Time 562200, Note Name: G5, Velocity: 82
Note OFF: Time 562320, Note Name: G5
Note ON: Time 562320, Note Name: A5, Velocity: 82
Note OFF: Time 562440, Note Name: A5
Note ON: Time 562440, Note Name: A#5, Velocity: 82
Note OFF: Time 562560, Note Name: A#5
Note ON: Time 562560, Note Name: B5, Velocity: 84
Note OFF: Time 562680, Note Name: B5
Note ON: Time 562680, Note Name: C6, Velocity: 85
Note OFF: Time 562800, Note Name: C6
Note ON: Time 562800, Note Name: D6, Velocity: 86
Note OFF: Time 562920, Note Name: D6
Note ON: Time 562920, Note Name: C6, Velocity: 84
Note OFF: Time 563040, Note Name: C6
Note ON: Time 563040, Note Name: A#5, Velocity: 89
Note OFF: Time 563160, Note Name: A#5
Note ON: Time 563160, Note Name: C6, Velocity: 90
Note OFF: Time 563280, Note Name: C6
Note ON: Time 563280, Note Name: D6, Velocity: 92
Note OFF: Time 563400, Note Name: D6
Note ON: Time 563400, Note Name: D#6, Velocity: 94
Note OFF: Time 563520, Note Name: D#6
Note ON: Time 563520, Note Name: F6, Velocity: 96
Note OFF: Time 563640, Note Name: F6
Note ON: Time 563640, Note Name: G#5, Velocity: 82
Note OFF: Time 563760, Note Name: G#5
Note ON: Time 563760, Note Name: A5, Velocity: 83
Note OFF: Time 563880, Note Name: A5
Note ON: Time 563880, Note Name: A#5, Velocity: 87
Note OFF: Time 564000, Note Name: A#5
Note ON: Time 564000, Note Name: C6, Velocity: 95
Note OFF: Time 564240, Note Name: C6
Note ON: Time 564240, Note Name: A#5, Velocity: 88
Note OFF: Time 564480, Note Name: A#5
Note ON: Time 564480, Note Name: G5, Velocity: 80
Note ON: Time 564480, Note Name: A#5, Velocity: 95
Note OFF: Time 564720, Note Name: A#5
Note OFF: Time 564720, Note Name: G5
Note ON: Time 564720, Note Name: F5, Velocity: 75
Note ON: Time 564720, Note Name: G#5, Velocity: 89
Note OFF: Time 564960, Note Name: G#5
Note OFF: Time 564960, Note Name: F5
Note ON: Time 564960, Note Name: A#4, Velocity: 75
Note ON: Time 564960, Note Name: G5, Velocity: 89
Note OFF: Time 565200, Note Name: G5
Note OFF: Time 565200, Note Name: A#4
Note ON: Time 565200, Note Name: G#4, Velocity: 71
Note ON: Time 565200, Note Name: F5, Velocity: 84
Note OFF: Time 565440, Note Name: F5
Note OFF: Time 565440, Note Name: G#4
Note ON: Time 565440, Note Name: G#6, Velocity: 100
Note ON: Time 565440, Note Name: F6, Velocity: 85
Note OFF: Time 565680, Note Name: F6
Note OFF: Time 565680, Note Name: G#6
Note ON: Time 565680, Note Name: D#6, Velocity: 80
Note ON: Time 565680, Note Name: G6, Velocity: 95
Note OFF: Time 565860, Note Name: G6
Note OFF: Time 565860, Note Name: D#6
Note ON: Time 565920, Note Name: G6, Velocity: 101
Note ON: Time 565920, Note Name: D#6, Velocity: 85
Note OFF: Time 566160, Note Name: D#6
Note OFF: Time 566160, Note Name: G6
Note ON: Time 566160, Note Name: C6, Velocity: 80
Note ON: Time 566160, Note Name: D#6, Velocity: 95
Note OFF: Time 566400, Note Name: D#6
Note OFF: Time 566400, Note Name: C6
Note ON: Time 566400, Note Name: D6, Velocity: 99
Note ON: Time 566400, Note Name: A#5, Velocity: 84
Note OFF: Time 566640, Note Name: A#5
Note OFF: Time 566640, Note Name: D6
Note ON: Time 566640, Note Name: F6, Velocity: 90
Note ON: Time 566640, Note Name: D6, Velocity: 76
Note OFF: Time 566820, Note Name: D6
Note OFF: Time 566820, Note Name: F6
Note ON: Time 566880, Note Name: C5, Velocity: 83
Note ON: Time 566880, Note Name: D#5, Velocity: 83
Note ON: Time 566880, Note Name: A5, Velocity: 98
Note OFF: Time 567120, Note Name: A5
Note OFF: Time 567120, Note Name: D#5
Note OFF: Time 567120, Note Name: C5
Note ON: Time 567120, Note Name: A#4, Velocity: 84
Note ON: Time 567120, Note Name: D5, Velocity: 84
Note ON: Time 567120, Note Name: A#5, Velocity: 99
Note OFF: Time 567360, Note Name: A#5
Note OFF: Time 567360, Note Name: D5
Note OFF: Time 567360, Note Name: A#4
Note ON: Time 567840, Note Name: G#5, Velocity: 62
Note OFF: Time 568080, Note Name: G#5
Note ON: Time 568320, Note Name: F#4, Velocity: 45
Note OFF: Time 568400, Note Name: F#4
Note ON: Time 568400, Note Name: G4, Velocity: 42
Note OFF: Time 568480, Note Name: G4
Note ON: Time 568480, Note Name: F#4, Velocity: 48
Note OFF: Time 568560, Note Name: F#4
Note ON: Time 568560, Note Name: G4, Velocity: 46
Note OFF: Time 568640, Note Name: G4
Note ON: Time 568640, Note Name: F#4, Velocity: 52
Note OFF: Time 568720, Note Name: F#4
Note ON: Time 568720, Note Name: G4, Velocity: 48
Note OFF: Time 568800, Note Name: G4
Note ON: Time 568800, Note Name: F#4, Velocity: 56
Note OFF: Time 568880, Note Name: F#4
Note ON: Time 568880, Note Name: G4, Velocity: 51
Note OFF: Time 568960, Note Name: G4
Note ON: Time 568960, Note Name: F#4, Velocity: 58
Note OFF: Time 569040, Note Name: F#4
Note ON: Time 569040, Note Name: G4, Velocity: 55
Note OFF: Time 569100, Note Name: G4
Note ON: Time 569100, Note Name: F#4, Velocity: 63
Note OFF: Time 569160, Note Name: F#4
Note ON: Time 569160, Note Name: G4, Velocity: 58
Note OFF: Time 569220, Note Name: G4
Note ON: Time 569220, Note Name: F#4, Velocity: 60
Note OFF: Time 569280, Note Name: F#4
Note ON: Time 569280, Note Name: F#5, Velocity: 93
Note OFF: Time 569520, Note Name: F#5
Note ON: Time 569760, Note Name: D#4, Velocity: 63
Note OFF: Time 569840, Note Name: D#4
Note ON: Time 569840, Note Name: F4, Velocity: 57
Note OFF: Time 569920, Note Name: F4
Note ON: Time 569920, Note Name: D#4, Velocity: 66
Note OFF: Time 570000, Note Name: D#4
Note ON: Time 570000, Note Name: F4, Velocity: 60
Note OFF: Time 570080, Note Name: F4
Note ON: Time 570080, Note Name: D#4, Velocity: 69
Note OFF: Time 570160, Note Name: D#4
Note ON: Time 570160, Note Name: F4, Velocity: 64
Note OFF: Time 570240, Note Name: F4
Note ON: Time 570240, Note Name: D#4, Velocity: 73
Note OFF: Time 570320, Note Name: D#4
Note ON: Time 570320, Note Name: F4, Velocity: 67
Note OFF: Time 570400, Note Name: F4
Note ON: Time 570400, Note Name: D#4, Velocity: 76
Note OFF: Time 570480, Note Name: D#4
Note ON: Time 570480, Note Name: F4, Velocity: 71
Note OFF: Time 570540, Note Name: F4
Note ON: Time 570540, Note Name: D#4, Velocity: 80
Note OFF: Time 570600, Note Name: D#4
Note ON: Time 570600, Note Name: D4, Velocity: 74
Note OFF: Time 570660, Note Name: D4
Note ON: Time 570660, Note Name: D#4, Velocity: 75
Note OFF: Time 570720, Note Name: D#4
Note ON: Time 570720, Note Name: F#4, Velocity: 83
Note OFF: Time 570840, Note Name: F#4
Note ON: Time 570840, Note Name: A2, Velocity: 63
Note OFF: Time 570960, Note Name: A2
Note ON: Time 570960, Note Name: C3, Velocity: 65
Note OFF: Time 571080, Note Name: C3
Note ON: Time 571080, Note Name: D#3, Velocity: 66
Note OFF: Time 571200, Note Name: D#3
Note ON: Time 571200, Note Name: F#3, Velocity: 68
Note OFF: Time 571320, Note Name: F#3
Note ON: Time 571320, Note Name: A3, Velocity: 70
Note OFF: Time 571440, Note Name: A3
Note ON: Time 571440, Note Name: C4, Velocity: 71
Note OFF: Time 571560, Note Name: C4
Note ON: Time 571560, Note Name: D#4, Velocity: 73
Note OFF: Time 571680, Note Name: D#4
Note ON: Time 571680, Note Name: F#4, Velocity: 78
Note OFF: Time 571800, Note Name: F#4
Note ON: Time 571800, Note Name: A3, Velocity: 64
Note OFF: Time 571920, Note Name: A3
Note ON: Time 571920, Note Name: C4, Velocity: 66
Note OFF: Time 572040, Note Name: C4
Note ON: Time 572040, Note Name: D#4, Velocity: 68
Note OFF: Time 572160, Note Name: D#4
Note ON: Time 572160, Note Name: F#4, Velocity: 69
Note OFF: Time 572280, Note Name: F#4
Note ON: Time 572280, Note Name: A4, Velocity: 71
Note OFF: Time 572400, Note Name: A4
Note ON: Time 572400, Note Name: C5, Velocity: 73
Note OFF: Time 572520, Note Name: C5
Note ON: Time 572520, Note Name: D#5, Velocity: 75
Note OFF: Time 572640, Note Name: D#5
Note ON: Time 572640, Note Name: F#5, Velocity: 81
Note OFF: Time 572760, Note Name: F#5
Note ON: Time 572760, Note Name: A4, Velocity: 66
Note OFF: Time 572880, Note Name: A4
Note ON: Time 572880, Note Name: C5, Velocity: 67
Note OFF: Time 573000, Note Name: C5
Note ON: Time 573000, Note Name: D#5, Velocity: 69
Note OFF: Time 573120, Note Name: D#5
Note ON: Time 573120, Note Name: F#5, Velocity: 71
Note OFF: Time 573240, Note Name: F#5
Note ON: Time 573240, Note Name: A5, Velocity: 72
Note OFF: Time 573360, Note Name: A5
Note ON: Time 573360, Note Name: C6, Velocity: 74
Note OFF: Time 573480, Note Name: C6
Note ON: Time 573480, Note Name: D#6, Velocity: 76
Note OFF: Time 573600, Note Name: D#6
Note ON: Time 573600, Note Name: F#6, Velocity: 86
Note OFF: Time 573720, Note Name: F#6
Note ON: Time 573720, Note Name: A4, Velocity: 67
Note OFF: Time 573840, Note Name: A4
Note ON: Time 573840, Note Name: C5, Velocity: 70
Note OFF: Time 573960, Note Name: C5
Note ON: Time 573960, Note Name: D#5, Velocity: 74
Note OFF: Time 574080, Note Name: D#5
Note ON: Time 574080, Note Name: F#5, Velocity: 77
Note OFF: Time 574200, Note Name: F#5
Note ON: Time 574200, Note Name: A3, Velocity: 63
Note OFF: Time 574320, Note Name: A3
Note ON: Time 574320, Note Name: C4, Velocity: 68
Note OFF: Time 574440, Note Name: C4
Note ON: Time 574440, Note Name: D#4, Velocity: 72
Note OFF: Time 574560, Note Name: D#4
Note ON: Time 574560, Note Name: F#4, Velocity: 76
Note OFF: Time 574680, Note Name: F#4
Note ON: Time 574680, Note Name: A2, Velocity: 64
Note OFF: Time 574800, Note Name: A2
Note ON: Time 574800, Note Name: C3, Velocity: 69
Note OFF: Time 574920, Note Name: C3
Note ON: Time 574920, Note Name: D#3, Velocity: 74
Note OFF: Time 575040, Note Name: D#3
Note ON: Time 575040, Note Name: F#3, Velocity: 79
Note OFF: Time 575520, Note Name: F#3
Note ON: Time 575520, Note Name: A2, Velocity: 79
Note ON: Time 575520, Note Name: F#2, Velocity: 79
Note ON: Time 575520, Note Name: D#3, Velocity: 79
Note OFF: Time 576240, Note Name: D#3
Note OFF: Time 576240, Note Name: F#2
Note OFF: Time 576240, Note Name: A2
Note ON: Time 576240, Note Name: F2, Velocity: 70
Note ON: Time 576240, Note Name: G#2, Velocity: 70
Note ON: Time 576240, Note Name: D3, Velocity: 70
Note OFF: Time 576480, Note Name: D3
Note OFF: Time 576480, Note Name: G#2
Note OFF: Time 576480, Note Name: F2
Note ON: Time 576480, Note Name: A#4, Velocity: 50
Note OFF: Time 576600, Note Name: A#4
Note ON: Time 576600, Note Name: G#4, Velocity: 45
Note OFF: Time 576720, Note Name: G#4
Note ON: Time 576720, Note Name: A#4, Velocity: 50
Note OFF: Time 576840, Note Name: A#4
Note ON: Time 576840, Note Name: G#4, Velocity: 45
Note OFF: Time 576960, Note Name: G#4
Note ON: Time 576960, Note Name: A#4, Velocity: 50
Note OFF: Time 577080, Note Name: A#4
Note ON: Time 577080, Note Name: G#4, Velocity: 45
Note OFF: Time 577200, Note Name: G#4
Note ON: Time 577200, Note Name: G4, Velocity: 50
Note OFF: Time 577320, Note Name: G4
Note ON: Time 577320, Note Name: G#4, Velocity: 45
Note OFF: Time 577440, Note Name: G#4
Note ON: Time 577440, Note Name: B4, Velocity: 58
Note ON: Time 577680, Note Name: G#3, Velocity: 53
Note OFF: Time 577920, Note Name: G#3
Note OFF: Time 577920, Note Name: B4
Note ON: Time 577920, Note Name: G#4, Velocity: 50
Note OFF: Time 578160, Note Name: G#4
Note ON: Time 578160, Note Name: B4, Velocity: 46
Note ON: Time 578160, Note Name: G5, Velocity: 55
Note OFF: Time 578280, Note Name: B4
Note ON: Time 578280, Note Name: A#4, Velocity: 50
Note OFF: Time 578400, Note Name: A#4
Note OFF: Time 578400, Note Name: G5
Note ON: Time 578400, Note Name: G#4, Velocity: 47
Note ON: Time 578400, Note Name: G#5, Velocity: 56
Note OFF: Time 578520, Note Name: G#4
Note ON: Time 578520, Note Name: F#4, Velocity: 48
Note OFF: Time 578640, Note Name: F#4
Note OFF: Time 578640, Note Name: G#5
Note ON: Time 578640, Note Name: F4, Velocity: 52
Note OFF: Time 578760, Note Name: F4
Note ON: Time 578760, Note Name: D#4, Velocity: 48
Note OFF: Time 578880, Note Name: D#4
Note ON: Time 578880, Note Name: G#4, Velocity: 58
Note ON: Time 579120, Note Name: F3, Velocity: 53
Note OFF: Time 579360, Note Name: F3
Note OFF: Time 579360, Note Name: G#4
Note ON: Time 579360, Note Name: F4, Velocity: 50
Note OFF: Time 579600, Note Name: F4
Note ON: Time 579600, Note Name: G#4, Velocity: 46
Note ON: Time 579600, Note Name: E5, Velocity: 55
Note OFF: Time 579720, Note Name: G#4
Note ON: Time 579720, Note Name: F#4, Velocity: 50
Note OFF: Time 579840, Note Name: F#4
Note OFF: Time 579840, Note Name: E5
Note ON: Time 579840, Note Name: F4, Velocity: 47
Note ON: Time 579840, Note Name: F5, Velocity: 56
Note OFF: Time 579960, Note Name: F4
Note ON: Time 579960, Note Name: D#4, Velocity: 48
Note OFF: Time 580080, Note Name: D#4
Note OFF: Time 580080, Note Name: F5
Note ON: Time 580080, Note Name: D4, Velocity: 52
Note OFF: Time 580200, Note Name: D4
Note ON: Time 580200, Note Name: B3, Velocity: 48
Note OFF: Time 580320, Note Name: B3
Note ON: Time 580320, Note Name: F#4, Velocity: 58
Note ON: Time 580560, Note Name: D#3, Velocity: 53
Note OFF: Time 580800, Note Name: D#3
Note OFF: Time 580800, Note Name: F#4
Note ON: Time 580800, Note Name: D#4, Velocity: 50
Note OFF: Time 581040, Note Name: D#4
Note ON: Time 581040, Note Name: F#4, Velocity: 46
Note ON: Time 581040, Note Name: D5, Velocity: 55
Note OFF: Time 581160, Note Name: F#4
Note ON: Time 581160, Note Name: F4, Velocity: 50
Note OFF: Time 581280, Note Name: F4
Note OFF: Time 581280, Note Name: D5
Note ON: Time 581280, Note Name: D#4, Velocity: 47
Note ON: Time 581280, Note Name: D#5, Velocity: 56
Note OFF: Time 581400, Note Name: D#4
Note ON: Time 581400, Note Name: C#4, Velocity: 48
Note OFF: Time 581520, Note Name: C#4
Note OFF: Time 581520, Note Name: D#5
Note ON: Time 581520, Note Name: D#4, Velocity: 56
Note ON: Time 581520, Note Name: B3, Velocity: 52
Note OFF: Time 581640, Note Name: B3
Note ON: Time 581640, Note Name: A#3, Velocity: 48
Note OFF: Time 581760, Note Name: A#3
Note ON: Time 581760, Note Name: A3, Velocity: 50
Note OFF: Time 581880, Note Name: D#4
Note ON: Time 581880, Note Name: F4, Velocity: 46
Note OFF: Time 582000, Note Name: F4
Note OFF: Time 582000, Note Name: A3
Note ON: Time 582000, Note Name: D#4, Velocity: 46
Note OFF: Time 582120, Note Name: D#4
Note ON: Time 582120, Note Name: D4, Velocity: 46
Note OFF: Time 582240, Note Name: D4
Note ON: Time 582240, Note Name: F#3, Velocity: 52
Note ON: Time 582240, Note Name: D#4, Velocity: 52
Note OFF: Time 582360, Note Name: D#4
Note ON: Time 582360, Note Name: C#4, Velocity: 48
Note OFF: Time 582480, Note Name: C#4
Note ON: Time 582480, Note Name: C4, Velocity: 48
Note OFF: Time 582600, Note Name: C4
Note ON: Time 582600, Note Name: B3, Velocity: 48
Note OFF: Time 582720, Note Name: B3
Note ON: Time 582720, Note Name: C4, Velocity: 54
Note OFF: Time 582840, Note Name: C4
Note ON: Time 582840, Note Name: B3, Velocity: 48
Note OFF: Time 582960, Note Name: B3
Note OFF: Time 582960, Note Name: F#3
Note ON: Time 582960, Note Name: F#3, Velocity: 48
Note ON: Time 582960, Note Name: C4, Velocity: 48
Note OFF: Time 583080, Note Name: C4
Note ON: Time 583080, Note Name: C#4, Velocity: 48
Note OFF: Time 583200, Note Name: C#4
Note OFF: Time 583200, Note Name: F#3
Note ON: Time 583200, Note Name: F#3, Velocity: 48
Note ON: Time 583200, Note Name: D#4, Velocity: 56
Note OFF: Time 583440, Note Name: D#4
Note OFF: Time 583440, Note Name: F#3
Note ON: Time 583440, Note Name: F3, Velocity: 48
Note OFF: Time 583680, Note Name: F3
Note ON: Time 583680, Note Name: C4, Velocity: 56
Note ON: Time 583680, Note Name: F3, Velocity: 48
Note OFF: Time 583920, Note Name: F3
Note ON: Time 583920, Note Name: D#3, Velocity: 45
Note OFF: Time 584160, Note Name: D#3
Note ON: Time 584160, Note Name: D3, Velocity: 55
Note OFF: Time 584400, Note Name: D3
Note OFF: Time 584400, Note Name: C4
Note ON: Time 584400, Note Name: C4, Velocity: 45
Note ON: Time 584400, Note Name: D#3, Velocity: 45
Note OFF: Time 584640, Note Name: D#3
Note OFF: Time 584640, Note Name: C4
Note ON: Time 584640, Note Name: D#3, Velocity: 52
Note ON: Time 584640, Note Name: C4, Velocity: 52
Note OFF: Time 584880, Note Name: C4
Note OFF: Time 584880, Note Name: D#3
Note ON: Time 584880, Note Name: D3, Velocity: 38
Note ON: Time 584880, Note Name: A#3, Velocity: 45
Note OFF: Time 585120, Note Name: A#3
Note OFF: Time 585120, Note Name: D3
Note ON: Time 585120, Note Name: D#3, Velocity: 43
Note ON: Time 585120, Note Name: A3, Velocity: 51
Note OFF: Time 585360, Note Name: A3
Note OFF: Time 585360, Note Name: D#3
Note ON: Time 585360, Note Name: D3, Velocity: 36
Note ON: Time 585360, Note Name: A#3, Velocity: 43
Note OFF: Time 585600, Note Name: A#3
Note OFF: Time 585600, Note Name: D3
Note ON: Time 585600, Note Name: A2, Velocity: 41
Note ON: Time 585600, Note Name: D#3, Velocity: 41
Note ON: Time 585600, Note Name: F#3, Velocity: 49
Note OFF: Time 585840, Note Name: F#3
Note OFF: Time 585840, Note Name: D#3
Note OFF: Time 585840, Note Name: A2
Note ON: Time 585840, Note Name: A#2, Velocity: 33
Note ON: Time 585840, Note Name: D3, Velocity: 33
Note ON: Time 585840, Note Name: F3, Velocity: 39
Note OFF: Time 586080, Note Name: F3
Note OFF: Time 586080, Note Name: D3
Note OFF: Time 586080, Note Name: A#2
Note ON: Time 586080, Note Name: F#3, Velocity: 45
Note ON: Time 586080, Note Name: A3, Velocity: 45
Note ON: Time 586080, Note Name: D#4, Velocity: 53
Note OFF: Time 586320, Note Name: D#4
Note OFF: Time 586320, Note Name: A3
Note OFF: Time 586320, Note Name: F#3
Note ON: Time 586320, Note Name: F3, Velocity: 35
Note ON: Time 586320, Note Name: A#3, Velocity: 35
Note ON: Time 586320, Note Name: D4, Velocity: 42
Note OFF: Time 586560, Note Name: D4
Note OFF: Time 586560, Note Name: A#3
Note OFF: Time 586560, Note Name: F3
Note ON: Time 586560, Note Name: D#4, Velocity: 43
Note ON: Time 586560, Note Name: F#4, Velocity: 43
Note ON: Time 586560, Note Name: A4, Velocity: 51
Note OFF: Time 586800, Note Name: A4
Note OFF: Time 586800, Note Name: F#4
Note OFF: Time 586800, Note Name: D#4
Note ON: Time 586800, Note Name: D4, Velocity: 35
Note ON: Time 586800, Note Name: F4, Velocity: 35
Note ON: Time 586800, Note Name: A#4, Velocity: 42
Note OFF: Time 587040, Note Name: A#4
Note OFF: Time 587040, Note Name: F4
Note OFF: Time 587040, Note Name: D4
Note ON: Time 587040, Note Name: A4, Velocity: 44
Note ON: Time 587040, Note Name: D#5, Velocity: 44
Note ON: Time 587040, Note Name: F#5, Velocity: 52
Note OFF: Time 587280, Note Name: F#5
Note OFF: Time 587280, Note Name: D#5
Note OFF: Time 587280, Note Name: A4
Note ON: Time 587280, Note Name: A#4, Velocity: 38
Note ON: Time 587280, Note Name: D5, Velocity: 38
Note ON: Time 587280, Note Name: F5, Velocity: 45
Note OFF: Time 587520, Note Name: F5
Note OFF: Time 587520, Note Name: D5
Note OFF: Time 587520, Note Name: A#4
Note ON: Time 587520, Note Name: A5, Velocity: 52
Note ON: Time 587520, Note Name: C5, Velocity: 44
Note ON: Time 587520, Note Name: D#5, Velocity: 44
Note OFF: Time 587580, Note Name: A5
Note ON: Time 587580, Note Name: A#5, Velocity: 47
Note OFF: Time 587640, Note Name: A#5
Note ON: Time 587640, Note Name: A5, Velocity: 52
Note OFF: Time 587700, Note Name: A5
Note ON: Time 587700, Note Name: A#5, Velocity: 47
Note OFF: Time 587760, Note Name: A#5
Note ON: Time 587760, Note Name: A5, Velocity: 52
Note OFF: Time 587820, Note Name: A5
Note ON: Time 587820, Note Name: A#5, Velocity: 46
Note OFF: Time 587880, Note Name: A#5
Note ON: Time 587880, Note Name: A5, Velocity: 52
Note OFF: Time 587940, Note Name: A5
Note ON: Time 587940, Note Name: A#5, Velocity: 47
Note OFF: Time 588000, Note Name: A#5
Note ON: Time 588000, Note Name: A5, Velocity: 52
Note OFF: Time 588060, Note Name: A5
Note ON: Time 588060, Note Name: A#5, Velocity: 47
Note OFF: Time 588120, Note Name: A#5
Note ON: Time 588120, Note Name: A5, Velocity: 52
Note OFF: Time 588180, Note Name: A5
Note ON: Time 588180, Note Name: A#5, Velocity: 48
Note OFF: Time 588240, Note Name: A#5
Note ON: Time 588240, Note Name: A5, Velocity: 52
Note OFF: Time 588320, Note Name: A5
Note ON: Time 588320, Note Name: G5, Velocity: 47
Note OFF: Time 588400, Note Name: G5
Note ON: Time 588400, Note Name: A5, Velocity: 47
Note OFF: Time 588480, Note Name: A5
Note OFF: Time 588480, Note Name: D#5
Note OFF: Time 588480, Note Name: C5
Note ON: Time 588480, Note Name: A#4, Velocity: 39
Note ON: Time 588480, Note Name: C#5, Velocity: 39
Note ON: Time 588480, Note Name: A#5, Velocity: 47
Note OFF: Time 588960, Note Name: A#5
Note OFF: Time 588960, Note Name: C#5
Note OFF: Time 588960, Note Name: A#4
Note ON: Time 588960, Note Name: E4, Velocity: 44
Note OFF: Time 589020, Note Name: E4
Note ON: Time 589020, Note Name: F4, Velocity: 39
Note OFF: Time 589080, Note Name: F4
Note ON: Time 589080, Note Name: E4, Velocity: 44
Note OFF: Time 589140, Note Name: E4
Note ON: Time 589140, Note Name: F4, Velocity: 39
Note OFF: Time 589200, Note Name: F4
Note ON: Time 589200, Note Name: E4, Velocity: 44
Note OFF: Time 589260, Note Name: E4
Note ON: Time 589260, Note Name: F4, Velocity: 39
Note OFF: Time 589320, Note Name: F4
Note ON: Time 589320, Note Name: E4, Velocity: 44
Note OFF: Time 589380, Note Name: E4
Note ON: Time 589380, Note Name: F4, Velocity: 39
Note OFF: Time 589440, Note Name: F4
Note ON: Time 589440, Note Name: A#4, Velocity: 40
Note ON: Time 589440, Note Name: C#5, Velocity: 48
Note ON: Time 589440, Note Name: E4, Velocity: 44
Note OFF: Time 589500, Note Name: E4
Note ON: Time 589500, Note Name: F4, Velocity: 39
Note OFF: Time 589560, Note Name: F4
Note ON: Time 589560, Note Name: E4, Velocity: 44
Note OFF: Time 589620, Note Name: E4
Note ON: Time 589620, Note Name: F4, Velocity: 40
Note OFF: Time 589680, Note Name: F4
Note ON: Time 589680, Note Name: E4, Velocity: 44
Note OFF: Time 589760, Note Name: E4
Note ON: Time 589760, Note Name: D4, Velocity: 39
Note OFF: Time 589840, Note Name: D4
Note ON: Time 589840, Note Name: E4, Velocity: 39
Note OFF: Time 589920, Note Name: E4
Note OFF: Time 589920, Note Name: C#5
Note OFF: Time 589920, Note Name: A#4
Note ON: Time 589920, Note Name: F4, Velocity: 46
Note ON: Time 589920, Note Name: C5, Velocity: 46
Note OFF: Time 590400, Note Name: C5
Note OFF: Time 590400, Note Name: F4
Note ON: Time 590400, Note Name: A4, Velocity: 46
Note OFF: Time 590460, Note Name: A4
Note ON: Time 590460, Note Name: A#4, Velocity: 42
Note OFF: Time 590520, Note Name: A#4
Note ON: Time 590520, Note Name: A4, Velocity: 46
Note OFF: Time 590580, Note Name: A4
Note ON: Time 590580, Note Name: A#4, Velocity: 42
Note OFF: Time 590640, Note Name: A#4
Note ON: Time 590640, Note Name: A4, Velocity: 46
Note OFF: Time 590700, Note Name: A4
Note ON: Time 590700, Note Name: A#4, Velocity: 41
Note OFF: Time 590760, Note Name: A#4
Note ON: Time 590760, Note Name: A4, Velocity: 46
Note OFF: Time 590820, Note Name: A4
Note ON: Time 590820, Note Name: A#4, Velocity: 42
Note OFF: Time 590880, Note Name: A#4
Note ON: Time 590880, Note Name: A4, Velocity: 46
Note ON: Time 590880, Note Name: D#5, Velocity: 52
Note OFF: Time 590940, Note Name: A4
Note ON: Time 590940, Note Name: A#4, Velocity: 42
Note OFF: Time 591000, Note Name: A#4
Note ON: Time 591000, Note Name: A4, Velocity: 46
Note OFF: Time 591060, Note Name: A4
Note ON: Time 591060, Note Name: A#4, Velocity: 43
Note OFF: Time 591120, Note Name: A#4
Note ON: Time 591120, Note Name: A4, Velocity: 46
Note OFF: Time 591200, Note Name: A4
Note ON: Time 591200, Note Name: G4, Velocity: 42
Note OFF: Time 591280, Note Name: G4
Note ON: Time 591280, Note Name: A4, Velocity: 42
Note OFF: Time 591360, Note Name: A4
Note OFF: Time 591360, Note Name: D#5
Note ON: Time 591360, Note Name: F4, Velocity: 37
Note ON: Time 591360, Note Name: C5, Velocity: 37
Note ON: Time 591360, Note Name: D#5, Velocity: 44
Note OFF: Time 591840, Note Name: D#5
Note OFF: Time 591840, Note Name: C5
Note OFF: Time 591840, Note Name: F4
Note ON: Time 591840, Note Name: F4, Velocity: 37
Note ON: Time 591840, Note Name: C5, Velocity: 37
Note ON: Time 591840, Note Name: D#5, Velocity: 44
Note OFF: Time 592560, Note Name: D#5
Note OFF: Time 592560, Note Name: C5
Note OFF: Time 592560, Note Name: F4
Note ON: Time 592560, Note Name: G5, Velocity: 44
Note ON: Time 592680, Note Name: F5, Velocity: 39
Note OFF: Time 592704, Note Name: G5
Note ON: Time 592800, Note Name: D#5, Velocity: 44
Note OFF: Time 592824, Note Name: F5
Note ON: Time 592920, Note Name: D5, Velocity: 39
Note OFF: Time 592944, Note Name: D#5
Note ON: Time 593040, Note Name: C5, Velocity: 39
Note OFF: Time 593064, Note Name: D5
Note ON: Time 593160, Note Name: B4, Velocity: 39
Note OFF: Time 593184, Note Name: C5
Note OFF: Time 593280, Note Name: B4
Note ON: Time 593280, Note Name: D#5, Velocity: 46
Note OFF: Time 593760, Note Name: D#5
Note ON: Time 594000, Note Name: G4, Velocity: 44
Note ON: Time 594120, Note Name: F4, Velocity: 39
Note OFF: Time 594144, Note Name: G4
Note ON: Time 594240, Note Name: D#4, Velocity: 44
Note OFF: Time 594264, Note Name: F4
Note ON: Time 594360, Note Name: D4, Velocity: 39
Note OFF: Time 594384, Note Name: D#4
Note ON: Time 594480, Note Name: C4, Velocity: 39
Note OFF: Time 594504, Note Name: D4
Note ON: Time 594600, Note Name: B3, Velocity: 39
Note OFF: Time 594624, Note Name: C4
Note OFF: Time 594720, Note Name: B3
Note ON: Time 594720, Note Name: D#4, Velocity: 46
Note OFF: Time 595200, Note Name: D#4
Note ON: Time 595440, Note Name: G5, Velocity: 44
Note ON: Time 595560, Note Name: F5, Velocity: 39
Note OFF: Time 595584, Note Name: G5
Note ON: Time 595680, Note Name: D#5, Velocity: 44
Note OFF: Time 595704, Note Name: F5
Note ON: Time 595800, Note Name: D5, Velocity: 39
Note OFF: Time 595824, Note Name: D#5
Note ON: Time 595920, Note Name: C5, Velocity: 39
Note OFF: Time 595944, Note Name: D5
Note ON: Time 596040, Note Name: B4, Velocity: 39
Note OFF: Time 596064, Note Name: C5
Note ON: Time 596160, Note Name: G5, Velocity: 46
Note OFF: Time 596184, Note Name: B4
Note ON: Time 596280, Note Name: F5, Velocity: 47
Note OFF: Time 596304, Note Name: G5
Note ON: Time 596400, Note Name: D#5, Velocity: 48
Note OFF: Time 596424, Note Name: F5
Note ON: Time 596520, Note Name: D5, Velocity: 48
Note OFF: Time 596544, Note Name: D#5
Note ON: Time 596640, Note Name: C5, Velocity: 49
Note OFF: Time 596664, Note Name: D5
Note ON: Time 596760, Note Name: A#4, Velocity: 51
Note OFF: Time 596784, Note Name: C5
Note ON: Time 596880, Note Name: A4, Velocity: 52
Note OFF: Time 596904, Note Name: A#4
Note ON: Time 597000, Note Name: G4, Velocity: 53
Note OFF: Time 597024, Note Name: A4
Note ON: Time 597120, Note Name: F4, Velocity: 55
Note OFF: Time 597144, Note Name: G4
Note ON: Time 597240, Note Name: D#4, Velocity: 56
Note OFF: Time 597264, Note Name: F4
Note ON: Time 597360, Note Name: D4, Velocity: 57
Note OFF: Time 597384, Note Name: D#4
Note ON: Time 597480, Note Name: C4, Velocity: 59
Note OFF: Time 597504, Note Name: D4
Note ON: Time 597600, Note Name: A#3, Velocity: 60
Note OFF: Time 597624, Note Name: C4
Note OFF: Time 597720, Note Name: A#3
Note ON: Time 597720, Note Name: A3, Velocity: 62
Note OFF: Time 597840, Note Name: A3
Note ON: Time 597840, Note Name: G3, Velocity: 63
Note OFF: Time 597960, Note Name: G3
Note ON: Time 597960, Note Name: F3, Velocity: 64
Note OFF: Time 598080, Note Name: F3
Note ON: Time 598080, Note Name: D#3, Velocity: 67
Note OFF: Time 598200, Note Name: D#3
Note ON: Time 598200, Note Name: D3, Velocity: 68
Note OFF: Time 598320, Note Name: D3
Note ON: Time 598320, Note Name: C3, Velocity: 71
Note OFF: Time 598440, Note Name: C3
Note ON: Time 598440, Note Name: A#2, Velocity: 72
Note OFF: Time 598560, Note Name: A#2
Note ON: Time 598560, Note Name: A2, Velocity: 76
Note OFF: Time 598680, Note Name: A2
Note ON: Time 598680, Note Name: G2, Velocity: 79
Note OFF: Time 598800, Note Name: G2
Note ON: Time 598800, Note Name: F2, Velocity: 85
Note OFF: Time 598920, Note Name: F2
Note ON: Time 598920, Note Name: E2, Velocity: 89
Note OFF: Time 599040, Note Name: E2
Note ON: Time 599040, Note Name: F2, Velocity: 99
Note ON: Time 599040, Note Name: F3, Velocity: 99
Note OFF: Time 599280, Note Name: F3
Note OFF: Time 599280, Note Name: F2
Note ON: Time 599520, Note Name: A4, Velocity: 95
Note ON: Time 599520, Note Name: A5, Velocity: 95
Note OFF: Time 599600, Note Name: A5
Note ON: Time 599600, Note Name: A#5, Velocity: 75
Note OFF: Time 599680, Note Name: A#5
Note ON: Time 599680, Note Name: A5, Velocity: 82
Note OFF: Time 599760, Note Name: A5
Note ON: Time 599760, Note Name: A#5, Velocity: 72
Note OFF: Time 599840, Note Name: A#5
Note ON: Time 599840, Note Name: A5, Velocity: 79
Note OFF: Time 599920, Note Name: A5
Note ON: Time 599920, Note Name: A#5, Velocity: 71
Note OFF: Time 600000, Note Name: A#5
Note ON: Time 600000, Note Name: A5, Velocity: 76
Note OFF: Time 600080, Note Name: A5
Note ON: Time 600080, Note Name: A#5, Velocity: 69
Note OFF: Time 600160, Note Name: A#5
Note ON: Time 600160, Note Name: A5, Velocity: 73
Note OFF: Time 600240, Note Name: A5
Note ON: Time 600240, Note Name: A#5, Velocity: 67
Note OFF: Time 600300, Note Name: A#5
Note ON: Time 600300, Note Name: A5, Velocity: 76
Note OFF: Time 600360, Note Name: A5
Note ON: Time 600360, Note Name: G5, Velocity: 73
Note OFF: Time 600420, Note Name: G5
Note ON: Time 600420, Note Name: A5, Velocity: 80
Note OFF: Time 600480, Note Name: A5
Note OFF: Time 600480, Note Name: A4
Note ON: Time 600480, Note Name: A#4, Velocity: 78
Note ON: Time 600480, Note Name: A#5, Velocity: 92
Note OFF: Time 600720, Note Name: A#5
Note OFF: Time 600720, Note Name: A#4
Note ON: Time 600960, Note Name: G3, Velocity: 75
Note ON: Time 600960, Note Name: G4, Velocity: 89
Note OFF: Time 601200, Note Name: G4
Note OFF: Time 601200, Note Name: G3
Note ON: Time 601440, Note Name: B4, Velocity: 95
Note ON: Time 601440, Note Name: B5, Velocity: 95
Note OFF: Time 601520, Note Name: B5
Note ON: Time 601520, Note Name: C6, Velocity: 75
Note OFF: Time 601600, Note Name: C6
Note ON: Time 601600, Note Name: B5, Velocity: 82
Note OFF: Time 601680, Note Name: B5
Note ON: Time 601680, Note Name: C6, Velocity: 72
Note OFF: Time 601760, Note Name: C6
Note ON: Time 601760, Note Name: B5, Velocity: 79
Note OFF: Time 601840, Note Name: B5
Note ON: Time 601840, Note Name: C6, Velocity: 71
Note OFF: Time 601920, Note Name: C6
Note ON: Time 601920, Note Name: B5, Velocity: 76
Note OFF: Time 602000, Note Name: B5
Note ON: Time 602000, Note Name: C6, Velocity: 69
Note OFF: Time 602080, Note Name: C6
Note ON: Time 602080, Note Name: B5, Velocity: 73
Note OFF: Time 602160, Note Name: B5
Note ON: Time 602160, Note Name: C6, Velocity: 67
Note OFF: Time 602220, Note Name: C6
Note ON: Time 602220, Note Name: B5, Velocity: 74
Note OFF: Time 602280, Note Name: B5
Note ON: Time 602280, Note Name: A5, Velocity: 70
Note OFF: Time 602340, Note Name: A5
Note ON: Time 602340, Note Name: B5, Velocity: 79
Note OFF: Time 602400, Note Name: B5
Note OFF: Time 602400, Note Name: B4
Note ON: Time 602400, Note Name: C5, Velocity: 78
Note ON: Time 602400, Note Name: C6, Velocity: 92
Note OFF: Time 602640, Note Name: C6
Note OFF: Time 602640, Note Name: C5
Note ON: Time 602880, Note Name: A3, Velocity: 75
Note ON: Time 602880, Note Name: A4, Velocity: 89
Note OFF: Time 603120, Note Name: A4
Note OFF: Time 603120, Note Name: A3
Note ON: Time 603360, Note Name: C#5, Velocity: 95
Note ON: Time 603360, Note Name: C#6, Velocity: 95
Note OFF: Time 603440, Note Name: C#6
Note ON: Time 603440, Note Name: D6, Velocity: 75
Note OFF: Time 603520, Note Name: D6
Note ON: Time 603520, Note Name: C#6, Velocity: 82
Note OFF: Time 603600, Note Name: C#6
Note ON: Time 603600, Note Name: D6, Velocity: 72
Note OFF: Time 603680, Note Name: D6
Note ON: Time 603680, Note Name: C#6, Velocity: 79
Note OFF: Time 603760, Note Name: C#6
Note ON: Time 603760, Note Name: D6, Velocity: 71
Note OFF: Time 603840, Note Name: D6
Note ON: Time 603840, Note Name: C#6, Velocity: 76
Note OFF: Time 603920, Note Name: C#6
Note ON: Time 603920, Note Name: D6, Velocity: 69
Note OFF: Time 604000, Note Name: D6
Note ON: Time 604000, Note Name: C#6, Velocity: 73
Note OFF: Time 604080, Note Name: C#6
Note ON: Time 604080, Note Name: D6, Velocity: 67
Note OFF: Time 604140, Note Name: D6
Note ON: Time 604140, Note Name: C#6, Velocity: 74
Note OFF: Time 604200, Note Name: C#6
Note ON: Time 604200, Note Name: B5, Velocity: 66
Note OFF: Time 604260, Note Name: B5
Note ON: Time 604260, Note Name: C#6, Velocity: 79
Note OFF: Time 604320, Note Name: C#6
Note OFF: Time 604320, Note Name: C#5
Note ON: Time 604320, Note Name: D5, Velocity: 78
Note ON: Time 604320, Note Name: D6, Velocity: 92
Note OFF: Time 604560, Note Name: D6
Note OFF: Time 604560, Note Name: D5
Note ON: Time 604800, Note Name: A#3, Velocity: 75
Note ON: Time 604800, Note Name: A#4, Velocity: 89
Note OFF: Time 605040, Note Name: A#4
Note OFF: Time 605040, Note Name: A#3
Note ON: Time 605280, Note Name: D5, Velocity: 95
Note ON: Time 605280, Note Name: D6, Velocity: 95
Note OFF: Time 605360, Note Name: D6
Note ON: Time 605360, Note Name: D#6, Velocity: 75
Note OFF: Time 605440, Note Name: D#6
Note ON: Time 605440, Note Name: D6, Velocity: 82
Note OFF: Time 605520, Note Name: D6
Note ON: Time 605520, Note Name: D#6, Velocity: 72
Note OFF: Time 605600, Note Name: D#6
Note ON: Time 605600, Note Name: D6, Velocity: 79
Note OFF: Time 605680, Note Name: D6
Note ON: Time 605680, Note Name: D#6, Velocity: 71
Note OFF: Time 605760, Note Name: D#6
Note ON: Time 605760, Note Name: D6, Velocity: 76
Note OFF: Time 605840, Note Name: D6
Note ON: Time 605840, Note Name: D#6, Velocity: 69
Note OFF: Time 605920, Note Name: D#6
Note ON: Time 605920, Note Name: D6, Velocity: 73
Note OFF: Time 606000, Note Name: D6
Note ON: Time 606000, Note Name: D#6, Velocity: 70
Note OFF: Time 606060, Note Name: D#6
Note ON: Time 606060, Note Name: D6, Velocity: 78
Note OFF: Time 606120, Note Name: D6
Note ON: Time 606120, Note Name: C6, Velocity: 73
Note OFF: Time 606180, Note Name: C6
Note ON: Time 606180, Note Name: D6, Velocity: 81
Note OFF: Time 606240, Note Name: D6
Note OFF: Time 606240, Note Name: D5
Note ON: Time 606240, Note Name: D#5, Velocity: 78
Note ON: Time 606240, Note Name: D#6, Velocity: 92
Note OFF: Time 606480, Note Name: D#6
Note OFF: Time 606480, Note Name: D#5
Note ON: Time 606720, Note Name: C4, Velocity: 75
Note ON: Time 606720, Note Name: C5, Velocity: 89
Note OFF: Time 606960, Note Name: C5
Note OFF: Time 606960, Note Name: C4
Note ON: Time 607200, Note Name: E5, Velocity: 95
Note ON: Time 607200, Note Name: E6, Velocity: 95
Note OFF: Time 607280, Note Name: E6
Note ON: Time 607280, Note Name: F6, Velocity: 75
Note OFF: Time 607360, Note Name: F6
Note ON: Time 607360, Note Name: E6, Velocity: 82
Note OFF: Time 607440, Note Name: E6
Note ON: Time 607440, Note Name: F6, Velocity: 72
Note OFF: Time 607520, Note Name: F6
Note ON: Time 607520, Note Name: E6, Velocity: 79
Note OFF: Time 607600, Note Name: E6
Note ON: Time 607600, Note Name: F6, Velocity: 71
Note OFF: Time 607680, Note Name: F6
Note ON: Time 607680, Note Name: E6, Velocity: 76
Note OFF: Time 607760, Note Name: E6
Note ON: Time 607760, Note Name: F6, Velocity: 69
Note OFF: Time 607840, Note Name: F6
Note ON: Time 607840, Note Name: E6, Velocity: 73
Note OFF: Time 607920, Note Name: E6
Note ON: Time 607920, Note Name: F6, Velocity: 67
Note OFF: Time 607980, Note Name: F6
Note ON: Time 607980, Note Name: E6, Velocity: 76
Note OFF: Time 608040, Note Name: E6
Note ON: Time 608040, Note Name: D6, Velocity: 70
Note OFF: Time 608100, Note Name: D6
Note ON: Time 608100, Note Name: E6, Velocity: 79
Note OFF: Time 608160, Note Name: E6
Note OFF: Time 608160, Note Name: E5
Note ON: Time 608160, Note Name: F5, Velocity: 78
Note ON: Time 608160, Note Name: F6, Velocity: 92
Note OFF: Time 608400, Note Name: F6
Note OFF: Time 608400, Note Name: F5
Note ON: Time 608640, Note Name: D4, Velocity: 75
Note ON: Time 608640, Note Name: D5, Velocity: 89
Note OFF: Time 608880, Note Name: D5
Note OFF: Time 608880, Note Name: D4
Note ON: Time 609120, Note Name: F#5, Velocity: 95
Note ON: Time 609120, Note Name: F#6, Velocity: 95
Note OFF: Time 609200, Note Name: F#6
Note ON: Time 609200, Note Name: G6, Velocity: 75
Note OFF: Time 609280, Note Name: G6
Note ON: Time 609280, Note Name: F#6, Velocity: 82
Note OFF: Time 609360, Note Name: F#6
Note ON: Time 609360, Note Name: G6, Velocity: 72
Note OFF: Time 609440, Note Name: G6
Note ON: Time 609440, Note Name: F#6, Velocity: 79
Note OFF: Time 609520, Note Name: F#6
Note ON: Time 609520, Note Name: G6, Velocity: 71
Note OFF: Time 609600, Note Name: G6
Note ON: Time 609600, Note Name: F#6, Velocity: 76
Note OFF: Time 609680, Note Name: F#6
Note ON: Time 609680, Note Name: G6, Velocity: 69
Note OFF: Time 609760, Note Name: G6
Note ON: Time 609760, Note Name: F#6, Velocity: 73
Note OFF: Time 609840, Note Name: F#6
Note ON: Time 609840, Note Name: G6, Velocity: 67
Note OFF: Time 609900, Note Name: G6
Note ON: Time 609900, Note Name: F#6, Velocity: 77
Note OFF: Time 609960, Note Name: F#6
Note ON: Time 609960, Note Name: E6, Velocity: 74
Note OFF: Time 610020, Note Name: E6
Note ON: Time 610020, Note Name: F#6, Velocity: 83
Note OFF: Time 610080, Note Name: F#6
Note OFF: Time 610080, Note Name: F#5
Note ON: Time 610080, Note Name: G5, Velocity: 78
Note ON: Time 610080, Note Name: G6, Velocity: 92
Note OFF: Time 610320, Note Name: G6
Note OFF: Time 610320, Note Name: G5
Note ON: Time 610560, Note Name: D#4, Velocity: 75
Note ON: Time 610560, Note Name: D#5, Velocity: 89
Note OFF: Time 610800, Note Name: D#5
Note OFF: Time 610800, Note Name: D#4
Note ON: Time 611040, Note Name: A6, Velocity: 89
Note ON: Time 611040, Note Name: F6, Velocity: 75
Note ON: Time 611040, Note Name: D#6, Velocity: 75
Note ON: Time 611040, Note Name: C6, Velocity: 75
Note ON: Time 611040, Note Name: A5, Velocity: 75
Note OFF: Time 611760, Note Name: A5
Note OFF: Time 611760, Note Name: D#6
Note OFF: Time 611760, Note Name: A6
Note OFF: Time 611760, Note Name: F6
Note OFF: Time 611760, Note Name: C6
Note ON: Time 612000, Note Name: A#6, Velocity: 93
Note ON: Time 612000, Note Name: F6, Velocity: 78
Note ON: Time 612000, Note Name: D6, Velocity: 78
Note ON: Time 612000, Note Name: A#5, Velocity: 78
Note OFF: Time 612720, Note Name: A#5
Note OFF: Time 612720, Note Name: A#6
Note OFF: Time 612720, Note Name: F6
Note OFF: Time 612720, Note Name: D6
Note ON: Time 612960, Note Name: A5, Velocity: 89
Note ON: Time 612960, Note Name: F5, Velocity: 75
Note ON: Time 612960, Note Name: D#5, Velocity: 75
Note ON: Time 612960, Note Name: C5, Velocity: 75
Note ON: Time 612960, Note Name: A4, Velocity: 75
Note OFF: Time 613680, Note Name: A4
Note OFF: Time 613680, Note Name: D#5
Note OFF: Time 613680, Note Name: A5
Note OFF: Time 613680, Note Name: F5
Note OFF: Time 613680, Note Name: C5
Note ON: Time 614400, Note Name: A#5, Velocity: 94
Note ON: Time 614400, Note Name: F5, Velocity: 79
Note ON: Time 614400, Note Name: D5, Velocity: 79
Note ON: Time 614400, Note Name: A#4, Velocity: 79
Note OFF: Time 616320, Note Name: A#4
Note OFF: Time 616320, Note Name: A#5
Note OFF: Time 616320, Note Name: F5
Note OFF: Time 616320, Note Name: D5
Track 2: Piano left
Note ON: Time 0, Note Name: F2, Velocity: 50
Note OFF: Time 80, Note Name: F2
Note ON: Time 80, Note Name: F3, Velocity: 46
Note OFF: Time 140, Note Name: F3
Note ON: Time 160, Note Name: F3, Velocity: 54
Note OFF: Time 240, Note Name: F3
Note ON: Time 640, Note Name: F1, Velocity: 30
Note ON: Time 640, Note Name: F2, Velocity: 36
Note OFF: Time 1080, Note Name: F2
Note OFF: Time 1080, Note Name: F1
Note ON: Time 1440, Note Name: F2, Velocity: 27
Note ON: Time 1440, Note Name: F3, Velocity: 32
Note OFF: Time 1680, Note Name: F3
Note OFF: Time 1680, Note Name: F2
Note ON: Time 2400, Note Name: C#2, Velocity: 28
Note ON: Time 2400, Note Name: C#3, Velocity: 34
Note OFF: Time 2640, Note Name: C#3
Note OFF: Time 2640, Note Name: C#2
Note ON: Time 3360, Note Name: A#1, Velocity: 26
Note ON: Time 3360, Note Name: A#2, Velocity: 31
Note OFF: Time 3600, Note Name: A#2
Note OFF: Time 3600, Note Name: A#1
Note ON: Time 4320, Note Name: F#1, Velocity: 20
Note ON: Time 4320, Note Name: F#2, Velocity: 24
Note OFF: Time 4560, Note Name: F#2
Note OFF: Time 4560, Note Name: F#1
Note ON: Time 6840, Note Name: F3, Velocity: 29
Note OFF: Time 6960, Note Name: F3
Note ON: Time 6960, Note Name: G#3, Velocity: 32
Note OFF: Time 7080, Note Name: G#3
Note ON: Time 7080, Note Name: F3, Velocity: 27
Note OFF: Time 7200, Note Name: F3
Note ON: Time 7200, Note Name: G#3, Velocity: 32
Note OFF: Time 7320, Note Name: G#3
Note ON: Time 7320, Note Name: F3, Velocity: 26
Note OFF: Time 7440, Note Name: F3
Note ON: Time 7440, Note Name: G#3, Velocity: 31
Note OFF: Time 7560, Note Name: G#3
Note ON: Time 7560, Note Name: C#3, Velocity: 25
Note OFF: Time 7680, Note Name: C#3
Note ON: Time 7680, Note Name: F#3, Velocity: 38
Note OFF: Time 7920, Note Name: F#3
Note ON: Time 7920, Note Name: C3, Velocity: 30
Note OFF: Time 8160, Note Name: C3
Note ON: Time 8160, Note Name: C#3, Velocity: 28
Note OFF: Time 8400, Note Name: C#3
Note ON: Time 8400, Note Name: F#2, Velocity: 28
Note OFF: Time 8640, Note Name: F#2
Note ON: Time 8880, Note Name: F#3, Velocity: 31
Note ON: Time 8880, Note Name: F#2, Velocity: 26
Note OFF: Time 9120, Note Name: F#2
Note OFF: Time 9120, Note Name: F#3
Note ON: Time 9600, Note Name: D#3, Velocity: 32
Note ON: Time 9600, Note Name: D#2, Velocity: 27
Note OFF: Time 9840, Note Name: D#2
Note OFF: Time 9840, Note Name: D#3
Note ON: Time 10080, Note Name: B1, Velocity: 27
Note ON: Time 10080, Note Name: B2, Velocity: 32
Note OFF: Time 10200, Note Name: B2
Note OFF: Time 10200, Note Name: B1
Note ON: Time 10200, Note Name: F#3, Velocity: 30
Note OFF: Time 10320, Note Name: F#3
Note ON: Time 10320, Note Name: G#3, Velocity: 31
Note OFF: Time 10440, Note Name: G#3
Note ON: Time 10440, Note Name: A#3, Velocity: 31
Note OFF: Time 10560, Note Name: A#3
Note ON: Time 10560, Note Name: B3, Velocity: 32
Note OFF: Time 10680, Note Name: B3
Note ON: Time 10680, Note Name: C#4, Velocity: 33
Note OFF: Time 10800, Note Name: C#4
Note ON: Time 10800, Note Name: D#4, Velocity: 34
Note OFF: Time 10920, Note Name: D#4
Note ON: Time 10920, Note Name: E4, Velocity: 35
Note OFF: Time 11040, Note Name: E4
Note ON: Time 11040, Note Name: D#4, Velocity: 36
Note OFF: Time 11160, Note Name: D#4
Note ON: Time 11160, Note Name: B3, Velocity: 33
Note ON: Time 11280, Note Name: F#4, Velocity: 39
Note OFF: Time 11292, Note Name: B3
Note ON: Time 11400, Note Name: E4, Velocity: 39
Note OFF: Time 11412, Note Name: F#4
Note ON: Time 11520, Note Name: D#4, Velocity: 40
Note OFF: Time 11532, Note Name: E4
Note ON: Time 11640, Note Name: C#4, Velocity: 41
Note OFF: Time 11652, Note Name: D#4
Note ON: Time 11760, Note Name: B3, Velocity: 42
Note OFF: Time 11772, Note Name: C#4
Note ON: Time 11880, Note Name: A#3, Velocity: 43
Note OFF: Time 11892, Note Name: B3
Note ON: Time 12000, Note Name: B3, Velocity: 43
Note OFF: Time 12012, Note Name: A#3
Note ON: Time 12120, Note Name: F#3, Velocity: 38
Note OFF: Time 12132, Note Name: B3
Note OFF: Time 12240, Note Name: F#3
Note ON: Time 12240, Note Name: G#3, Velocity: 44
Note ON: Time 12360, Note Name: A#3, Velocity: 44
Note OFF: Time 12372, Note Name: G#3
Note ON: Time 12480, Note Name: B3, Velocity: 43
Note OFF: Time 12492, Note Name: A#3
Note ON: Time 12600, Note Name: C#4, Velocity: 43
Note OFF: Time 12612, Note Name: B3
Note ON: Time 12720, Note Name: D#4, Velocity: 42
Note OFF: Time 12732, Note Name: C#4
Note ON: Time 12840, Note Name: E4, Velocity: 42
Note OFF: Time 12852, Note Name: D#4
Note ON: Time 12960, Note Name: D#4, Velocity: 42
Note OFF: Time 12972, Note Name: E4
Note OFF: Time 13080, Note Name: D#4
Note ON: Time 13080, Note Name: D#5, Velocity: 42
Note ON: Time 13200, Note Name: F#5, Velocity: 39
Note OFF: Time 13212, Note Name: D#5
Note ON: Time 13320, Note Name: E5, Velocity: 40
Note OFF: Time 13332, Note Name: F#5
Note ON: Time 13440, Note Name: D#5, Velocity: 42
Note OFF: Time 13452, Note Name: E5
Note ON: Time 13560, Note Name: C#5, Velocity: 44
Note OFF: Time 13572, Note Name: D#5
Note ON: Time 13680, Note Name: B4, Velocity: 45
Note OFF: Time 13692, Note Name: C#5
Note ON: Time 13800, Note Name: A#4, Velocity: 47
Note OFF: Time 13812, Note Name: B4
Note ON: Time 13920, Note Name: B4, Velocity: 50
Note OFF: Time 13932, Note Name: A#4
Note ON: Time 14040, Note Name: A#4, Velocity: 42
Note OFF: Time 14052, Note Name: B4
Note ON: Time 14160, Note Name: D#5, Velocity: 42
Note OFF: Time 14172, Note Name: A#4
Note ON: Time 14280, Note Name: C#5, Velocity: 42
Note OFF: Time 14292, Note Name: D#5
Note ON: Time 14400, Note Name: B4, Velocity: 49
Note OFF: Time 14412, Note Name: C#5
Note ON: Time 14520, Note Name: A#4, Velocity: 37
Note OFF: Time 14532, Note Name: B4
Note ON: Time 14640, Note Name: G#4, Velocity: 37
Note OFF: Time 14652, Note Name: A#4
Note ON: Time 14760, Note Name: F#4, Velocity: 37
Note OFF: Time 14772, Note Name: G#4
Note ON: Time 14880, Note Name: E4, Velocity: 46
Note OFF: Time 14892, Note Name: F#4
Note ON: Time 15000, Note Name: D#4, Velocity: 42
Note OFF: Time 15012, Note Name: E4
Note ON: Time 15120, Note Name: C#4, Velocity: 42
Note OFF: Time 15132, Note Name: D#4
Note ON: Time 15240, Note Name: B3, Velocity: 42
Note OFF: Time 15252, Note Name: C#4
Note ON: Time 15360, Note Name: A#3, Velocity: 42
Note OFF: Time 15372, Note Name: B3
Note OFF: Time 15480, Note Name: A#3
Note ON: Time 15480, Note Name: C#4, Velocity: 45
Note OFF: Time 15600, Note Name: C#4
Note ON: Time 15600, Note Name: B3, Velocity: 47
Note OFF: Time 15720, Note Name: B3
Note ON: Time 15720, Note Name: E4, Velocity: 50
Note OFF: Time 15840, Note Name: E4
Note ON: Time 15840, Note Name: D#4, Velocity: 50
Note OFF: Time 15960, Note Name: D#4
Note ON: Time 15960, Note Name: D4, Velocity: 39
Note OFF: Time 16080, Note Name: D4
Note ON: Time 16080, Note Name: C#4, Velocity: 47
Note OFF: Time 16200, Note Name: C#4
Note ON: Time 16200, Note Name: F#3, Velocity: 40
Note OFF: Time 16320, Note Name: F#3
Note ON: Time 16320, Note Name: C#4, Velocity: 34
Note ON: Time 16320, Note Name: F#4, Velocity: 40
Note ON: Time 16320, Note Name: F#3, Velocity: 34
Note OFF: Time 16680, Note Name: F#3
Note OFF: Time 16680, Note Name: F#4
Note OFF: Time 16680, Note Name: C#4
Note ON: Time 17040, Note Name: B2, Velocity: 32
Note ON: Time 17040, Note Name: B1, Velocity: 32
Note OFF: Time 17280, Note Name: B1
Note OFF: Time 17280, Note Name: B2
Note ON: Time 17760, Note Name: G#1, Velocity: 82
Note ON: Time 17760, Note Name: G#2, Velocity: 82
Note OFF: Time 18000, Note Name: G#2
Note OFF: Time 18000, Note Name: G#1
Note ON: Time 18840, Note Name: G#4, Velocity: 39
Note OFF: Time 18960, Note Name: G#4
Note ON: Time 18960, Note Name: C#4, Velocity: 41
Note OFF: Time 19080, Note Name: C#4
Note ON: Time 19080, Note Name: G#4, Velocity: 37
Note OFF: Time 19200, Note Name: G#4
Note ON: Time 19200, Note Name: A#4, Velocity: 42
Note OFF: Time 19320, Note Name: A#4
Note ON: Time 19320, Note Name: G#4, Velocity: 34
Note OFF: Time 19440, Note Name: G#4
Note ON: Time 19440, Note Name: C#4, Velocity: 41
Note OFF: Time 19560, Note Name: C#4
Note ON: Time 19560, Note Name: G#4, Velocity: 34
Note OFF: Time 19680, Note Name: G#4
Note ON: Time 19680, Note Name: G4, Velocity: 45
Note OFF: Time 20400, Note Name: G4
Note ON: Time 20400, Note Name: G4, Velocity: 52
Note OFF: Time 20880, Note Name: G4
Note ON: Time 20880, Note Name: G4, Velocity: 49
Note OFF: Time 21120, Note Name: G4
Note ON: Time 21120, Note Name: E4, Velocity: 57
Note OFF: Time 21360, Note Name: E4
Note ON: Time 21360, Note Name: D#4, Velocity: 52
Note OFF: Time 21600, Note Name: D#4
Note ON: Time 21600, Note Name: C#4, Velocity: 60
Note OFF: Time 21720, Note Name: C#4
Note ON: Time 21720, Note Name: G#3, Velocity: 37
Note OFF: Time 21840, Note Name: G#3
Note ON: Time 21840, Note Name: C#3, Velocity: 42
Note OFF: Time 21960, Note Name: C#3
Note ON: Time 21960, Note Name: G#3, Velocity: 37
Note OFF: Time 22080, Note Name: G#3
Note ON: Time 22080, Note Name: A3, Velocity: 44
Note OFF: Time 22200, Note Name: A3
Note ON: Time 22200, Note Name: G#3, Velocity: 37
Note OFF: Time 22320, Note Name: G#3
Note ON: Time 22320, Note Name: C#3, Velocity: 37
Note OFF: Time 22440, Note Name: C#3
Note ON: Time 22440, Note Name: G#3, Velocity: 37
Note OFF: Time 22560, Note Name: G#3
Note ON: Time 22560, Note Name: A3, Velocity: 46
Note OFF: Time 23280, Note Name: A3
Note ON: Time 23280, Note Name: G#3, Velocity: 40
Note OFF: Time 23520, Note Name: G#3
Note ON: Time 23520, Note Name: A#3, Velocity: 57
Note ON: Time 23520, Note Name: G3, Velocity: 57
Note OFF: Time 23640, Note Name: A#3
Note ON: Time 23640, Note Name: C#4, Velocity: 44
Note OFF: Time 23760, Note Name: C#4
Note ON: Time 23760, Note Name: A#3, Velocity: 52
Note OFF: Time 23880, Note Name: A#3
Note ON: Time 23880, Note Name: D#4, Velocity: 44
Note OFF: Time 24000, Note Name: D#4
Note ON: Time 24000, Note Name: E4, Velocity: 54
Note OFF: Time 24120, Note Name: E4
Note ON: Time 24120, Note Name: D#4, Velocity: 42
Note OFF: Time 24240, Note Name: D#4
Note ON: Time 24240, Note Name: A#3, Velocity: 46
Note OFF: Time 24360, Note Name: A#3
Note ON: Time 24360, Note Name: D#4, Velocity: 39
Note OFF: Time 24480, Note Name: D#4
Note OFF: Time 24480, Note Name: G3
Note ON: Time 24480, Note Name: G#3, Velocity: 55
Note ON: Time 24600, Note Name: B3, Velocity: 41
Note OFF: Time 24720, Note Name: B3
Note OFF: Time 24720, Note Name: G#3
Note ON: Time 24720, Note Name: G#3, Velocity: 42
Note OFF: Time 24840, Note Name: G#3
Note ON: Time 24840, Note Name: B3, Velocity: 42
Note OFF: Time 24960, Note Name: B3
Note ON: Time 24960, Note Name: C#4, Velocity: 53
Note OFF: Time 25080, Note Name: C#4
Note ON: Time 25080, Note Name: B3, Velocity: 37
Note OFF: Time 25200, Note Name: B3
Note ON: Time 25200, Note Name: G#3, Velocity: 45
Note ON: Time 25200, Note Name: B2, Velocity: 38
Note OFF: Time 25320, Note Name: G#3
Note ON: Time 25320, Note Name: B3, Velocity: 37
Note OFF: Time 25440, Note Name: B3
Note OFF: Time 25440, Note Name: B2
Note ON: Time 25440, Note Name: E3, Velocity: 49
Note ON: Time 25440, Note Name: C#3, Velocity: 41
Note OFF: Time 25680, Note Name: E3
Note ON: Time 25680, Note Name: C#4, Velocity: 57
Note OFF: Time 26160, Note Name: C#4
Note OFF: Time 26160, Note Name: C#3
Note ON: Time 26160, Note Name: B3, Velocity: 46
Note ON: Time 26160, Note Name: D#3, Velocity: 39
Note OFF: Time 26400, Note Name: D#3
Note OFF: Time 26400, Note Name: B3
Note ON: Time 26400, Note Name: B3, Velocity: 57
Note ON: Time 26400, Note Name: D#3, Velocity: 48
Note OFF: Time 26640, Note Name: B3
Note ON: Time 26640, Note Name: A#3, Velocity: 48
Note OFF: Time 26880, Note Name: A#3
Note ON: Time 26880, Note Name: G#3, Velocity: 55
Note OFF: Time 27120, Note Name: G#3
Note OFF: Time 27120, Note Name: D#3
Note ON: Time 27120, Note Name: D#3, Velocity: 41
Note ON: Time 27120, Note Name: G3, Velocity: 49
Note OFF: Time 27360, Note Name: G3
Note OFF: Time 27360, Note Name: D#3
Note ON: Time 28080, Note Name: G#2, Velocity: 20
Note ON: Time 28080, Note Name: G#3, Velocity: 24
Note OFF: Time 28320, Note Name: G#3
Note OFF: Time 28320, Note Name: G#2
Note ON: Time 29040, Note Name: E2, Velocity: 20
Note ON: Time 29040, Note Name: E3, Velocity: 24
Note OFF: Time 29280, Note Name: E3
Note OFF: Time 29280, Note Name: E2
Note ON: Time 30000, Note Name: C#3, Velocity: 24
Note ON: Time 30000, Note Name: C#2, Velocity: 20
Note OFF: Time 30240, Note Name: C#2
Note OFF: Time 30240, Note Name: C#3
Note ON: Time 30800, Note Name: A1, Velocity: 38
Note OFF: Time 30880, Note Name: A1
Note ON: Time 30880, Note Name: A2, Velocity: 32
Note OFF: Time 30940, Note Name: A2
Note ON: Time 30960, Note Name: A2, Velocity: 41
Note OFF: Time 31040, Note Name: A2
Note ON: Time 31040, Note Name: A3, Velocity: 32
Note OFF: Time 31100, Note Name: A3
Note ON: Time 31120, Note Name: A3, Velocity: 32
Note OFF: Time 31200, Note Name: A3
Note ON: Time 31600, Note Name: A2, Velocity: 32
Note ON: Time 31600, Note Name: A1, Velocity: 27
Note OFF: Time 31680, Note Name: A1
Note OFF: Time 31680, Note Name: A2
Note ON: Time 31680, Note Name: B2, Velocity: 39
Note ON: Time 31680, Note Name: A1, Velocity: 33
Note ON: Time 31680, Note Name: D2, Velocity: 33
Note ON: Time 31680, Note Name: E2, Velocity: 33
Note ON: Time 35040, Note Name: B3, Velocity: 42
Note OFF: Time 35160, Note Name: B3
Note ON: Time 35160, Note Name: G#3, Velocity: 36
Note OFF: Time 35280, Note Name: G#3
Note ON: Time 35280, Note Name: E3, Velocity: 37
Note OFF: Time 35400, Note Name: E3
Note ON: Time 35400, Note Name: D#3, Velocity: 37
Note OFF: Time 35520, Note Name: D#3
Note ON: Time 35520, Note Name: D3, Velocity: 48
Note ON: Time 35580, Note Name: E3, Velocity: 39
Note OFF: Time 35592, Note Name: D3
Note ON: Time 35640, Note Name: D3, Velocity: 48
Note OFF: Time 35652, Note Name: E3
Note ON: Time 35700, Note Name: E3, Velocity: 41
Note OFF: Time 35712, Note Name: D3
Note ON: Time 35760, Note Name: D3, Velocity: 40
Note OFF: Time 35772, Note Name: E3
Note ON: Time 35820, Note Name: E3, Velocity: 34
Note OFF: Time 35832, Note Name: D3
Note ON: Time 35880, Note Name: D3, Velocity: 40
Note OFF: Time 35892, Note Name: E3
Note ON: Time 35940, Note Name: E3, Velocity: 35
Note OFF: Time 35952, Note Name: D3
Note ON: Time 36000, Note Name: D3, Velocity: 40
Note OFF: Time 36012, Note Name: E3
Note ON: Time 36060, Note Name: E3, Velocity: 34
Note OFF: Time 36072, Note Name: D3
Note ON: Time 36120, Note Name: D3, Velocity: 40
Note OFF: Time 36132, Note Name: E3
Note ON: Time 36180, Note Name: E3, Velocity: 35
Note OFF: Time 36192, Note Name: D3
Note ON: Time 36240, Note Name: D3, Velocity: 40
Note OFF: Time 36252, Note Name: E3
Note ON: Time 36300, Note Name: E3, Velocity: 34
Note OFF: Time 36312, Note Name: D3
Note ON: Time 36360, Note Name: D3, Velocity: 40
Note OFF: Time 36372, Note Name: E3
Note ON: Time 36420, Note Name: E3, Velocity: 35
Note OFF: Time 36432, Note Name: D3
Note ON: Time 36480, Note Name: D3, Velocity: 40
Note OFF: Time 36492, Note Name: E3
Note ON: Time 36540, Note Name: E3, Velocity: 34
Note OFF: Time 36552, Note Name: D3
Note ON: Time 36600, Note Name: D3, Velocity: 40
Note OFF: Time 36612, Note Name: E3
Note ON: Time 36660, Note Name: E3, Velocity: 34
Note OFF: Time 36672, Note Name: D3
Note ON: Time 36720, Note Name: D3, Velocity: 40
Note OFF: Time 36732, Note Name: E3
Note ON: Time 36780, Note Name: E3, Velocity: 34
Note OFF: Time 36792, Note Name: D3
Note ON: Time 36840, Note Name: D3, Velocity: 40
Note OFF: Time 36852, Note Name: E3
Note ON: Time 36900, Note Name: E3, Velocity: 34
Note OFF: Time 36912, Note Name: D3
Note OFF: Time 36960, Note Name: E3
Note ON: Time 36960, Note Name: D#3, Velocity: 45
Note ON: Time 37020, Note Name: E3, Velocity: 38
Note OFF: Time 37032, Note Name: D#3
Note ON: Time 37080, Note Name: D#3, Velocity: 45
Note OFF: Time 37092, Note Name: E3
Note ON: Time 37140, Note Name: E3, Velocity: 41
Note OFF: Time 37152, Note Name: D#3
Note ON: Time 37200, Note Name: D#3, Velocity: 40
Note OFF: Time 37212, Note Name: E3
Note ON: Time 37260, Note Name: E3, Velocity: 34
Note OFF: Time 37272, Note Name: D#3
Note ON: Time 37320, Note Name: D#3, Velocity: 40
Note OFF: Time 37332, Note Name: E3
Note ON: Time 37380, Note Name: E3, Velocity: 35
Note OFF: Time 37392, Note Name: D#3
Note ON: Time 37440, Note Name: D#3, Velocity: 40
Note OFF: Time 37452, Note Name: E3
Note ON: Time 37500, Note Name: E3, Velocity: 35
Note OFF: Time 37512, Note Name: D#3
Note ON: Time 37560, Note Name: D#3, Velocity: 40
Note OFF: Time 37572, Note Name: E3
Note ON: Time 37620, Note Name: E3, Velocity: 35
Note OFF: Time 37632, Note Name: D#3
Note ON: Time 37680, Note Name: D#3, Velocity: 40
Note OFF: Time 37692, Note Name: E3
Note OFF: Time 37752, Note Name: D#3
Note ON: Time 37760, Note Name: E3, Velocity: 35
Note ON: Time 37840, Note Name: D#3, Velocity: 40
Note OFF: Time 37856, Note Name: E3
Note ON: Time 37920, Note Name: E3, Velocity: 42
Note OFF: Time 37936, Note Name: D#3
Note OFF: Time 37980, Note Name: E3
Note ON: Time 37980, Note Name: F#3, Velocity: 35
Note ON: Time 38040, Note Name: E3, Velocity: 44
Note OFF: Time 38052, Note Name: F#3
Note ON: Time 38100, Note Name: F#3, Velocity: 38
Note OFF: Time 38112, Note Name: E3
Note ON: Time 38160, Note Name: E3, Velocity: 40
Note OFF: Time 38172, Note Name: F#3
Note ON: Time 38220, Note Name: F#3, Velocity: 35
Note OFF: Time 38232, Note Name: E3
Note ON: Time 38280, Note Name: E3, Velocity: 40
Note OFF: Time 38292, Note Name: F#3
Note ON: Time 38340, Note Name: F#3, Velocity: 35
Note OFF: Time 38352, Note Name: E3
Note ON: Time 38400, Note Name: E3, Velocity: 40
Note OFF: Time 38412, Note Name: F#3
Note ON: Time 38460, Note Name: F#3, Velocity: 35
Note OFF: Time 38472, Note Name: E3
Note ON: Time 38520, Note Name: E3, Velocity: 40
Note OFF: Time 38532, Note Name: F#3
Note ON: Time 38580, Note Name: F#3, Velocity: 35
Note OFF: Time 38592, Note Name: E3
Note ON: Time 38640, Note Name: E3, Velocity: 40
Note OFF: Time 38652, Note Name: F#3
Note ON: Time 38700, Note Name: F#3, Velocity: 35
Note OFF: Time 38712, Note Name: E3
Note ON: Time 38760, Note Name: E3, Velocity: 40
Note OFF: Time 38772, Note Name: F#3
Note ON: Time 38820, Note Name: F#3, Velocity: 36
Note OFF: Time 38832, Note Name: E3
Note ON: Time 38880, Note Name: E3, Velocity: 40
Note OFF: Time 38892, Note Name: F#3
Note ON: Time 38940, Note Name: F#3, Velocity: 35
Note OFF: Time 38952, Note Name: E3
Note ON: Time 39000, Note Name: E3, Velocity: 40
Note OFF: Time 39012, Note Name: F#3
Note ON: Time 39060, Note Name: F#3, Velocity: 36
Note OFF: Time 39072, Note Name: E3
Note ON: Time 39120, Note Name: E3, Velocity: 40
Note OFF: Time 39132, Note Name: F#3
Note ON: Time 39200, Note Name: D#3, Velocity: 37
Note OFF: Time 39216, Note Name: E3
Note ON: Time 39280, Note Name: E3, Velocity: 37
Note OFF: Time 39296, Note Name: D#3
Note OFF: Time 39360, Note Name: A1
Note OFF: Time 39360, Note Name: E2
Note OFF: Time 39360, Note Name: B2
Note OFF: Time 39360, Note Name: E3
Note OFF: Time 39360, Note Name: D2
Note ON: Time 39360, Note Name: E3, Velocity: 41
Note ON: Time 39360, Note Name: C#3, Velocity: 34
Note ON: Time 39600, Note Name: A2, Velocity: 26
Note ON: Time 39600, Note Name: A1, Velocity: 22
Note OFF: Time 39840, Note Name: A1
Note OFF: Time 39840, Note Name: E3
Note OFF: Time 39840, Note Name: C#3
Note OFF: Time 39840, Note Name: A2
Note ON: Time 39840, Note Name: E3, Velocity: 41
Note ON: Time 39840, Note Name: C#3, Velocity: 34
Note OFF: Time 39870, Note Name: C#3
Note OFF: Time 39870, Note Name: E3
Note ON: Time 39960, Note Name: A2, Velocity: 28
Note ON: Time 39960, Note Name: A1, Velocity: 23
Note OFF: Time 40020, Note Name: A1
Note OFF: Time 40020, Note Name: A2
Note ON: Time 40080, Note Name: C#3, Velocity: 34
Note ON: Time 40080, Note Name: E3, Velocity: 41
Note OFF: Time 40320, Note Name: E3
Note OFF: Time 40320, Note Name: C#3
Note ON: Time 40320, Note Name: E3, Velocity: 41
Note ON: Time 40320, Note Name: C#3, Velocity: 34
Note ON: Time 40560, Note Name: A1, Velocity: 22
Note ON: Time 40560, Note Name: A2, Velocity: 26
Note OFF: Time 40800, Note Name: A2
Note OFF: Time 40800, Note Name: E3
Note OFF: Time 40800, Note Name: C#3
Note OFF: Time 40800, Note Name: A1
Note ON: Time 40800, Note Name: C#3, Velocity: 34
Note ON: Time 40800, Note Name: A3, Velocity: 41
Note OFF: Time 40830, Note Name: A3
Note OFF: Time 40830, Note Name: C#3
Note ON: Time 40920, Note Name: F#2, Velocity: 28
Note ON: Time 40920, Note Name: F#1, Velocity: 23
Note OFF: Time 40980, Note Name: F#1
Note OFF: Time 40980, Note Name: F#2
Note ON: Time 41040, Note Name: F#3, Velocity: 34
Note ON: Time 41040, Note Name: C#3, Velocity: 34
Note ON: Time 41040, Note Name: A3, Velocity: 41
Note OFF: Time 41280, Note Name: A3
Note OFF: Time 41280, Note Name: C#3
Note OFF: Time 41280, Note Name: F#3
Note ON: Time 41280, Note Name: A3, Velocity: 41
Note ON: Time 41280, Note Name: F#3, Velocity: 34
Note ON: Time 41520, Note Name: D2, Velocity: 22
Note ON: Time 41520, Note Name: D3, Velocity: 26
Note OFF: Time 41760, Note Name: D3
Note OFF: Time 41760, Note Name: A3
Note OFF: Time 41760, Note Name: F#3
Note OFF: Time 41760, Note Name: D2
Note ON: Time 41760, Note Name: A3, Velocity: 41
Note ON: Time 41760, Note Name: F#3, Velocity: 34
Note OFF: Time 41790, Note Name: F#3
Note OFF: Time 41790, Note Name: A3
Note ON: Time 41880, Note Name: D2, Velocity: 23
Note ON: Time 41880, Note Name: D3, Velocity: 28
Note OFF: Time 41940, Note Name: D3
Note OFF: Time 41940, Note Name: D2
Note ON: Time 42000, Note Name: A3, Velocity: 41
Note ON: Time 42000, Note Name: F#3, Velocity: 34
Note OFF: Time 42240, Note Name: F#3
Note OFF: Time 42240, Note Name: A3
Note ON: Time 42240, Note Name: A3, Velocity: 41
Note ON: Time 42240, Note Name: F#3, Velocity: 34
Note ON: Time 42480, Note Name: D3, Velocity: 26
Note ON: Time 42480, Note Name: D2, Velocity: 22
Note OFF: Time 42720, Note Name: D2
Note OFF: Time 42720, Note Name: A3
Note OFF: Time 42720, Note Name: F#3
Note OFF: Time 42720, Note Name: D3
Note ON: Time 42720, Note Name: F#3, Velocity: 34
Note ON: Time 42720, Note Name: D4, Velocity: 41
Note OFF: Time 42750, Note Name: D4
Note OFF: Time 42750, Note Name: F#3
Note ON: Time 42840, Note Name: B1, Velocity: 23
Note ON: Time 42840, Note Name: B2, Velocity: 28
Note OFF: Time 42900, Note Name: B2
Note OFF: Time 42900, Note Name: B1
Note ON: Time 42960, Note Name: F#3, Velocity: 34
Note ON: Time 42960, Note Name: B3, Velocity: 34
Note ON: Time 42960, Note Name: D4, Velocity: 41
Note OFF: Time 43198, Note Name: D4
Note OFF: Time 43198, Note Name: B3
Note OFF: Time 43200, Note Name: F#3
Note ON: Time 43440, Note Name: G2, Velocity: 22
Note ON: Time 43440, Note Name: G3, Velocity: 26
Note OFF: Time 43680, Note Name: G3
Note OFF: Time 43680, Note Name: G2
Note ON: Time 43800, Note Name: G2, Velocity: 23
Note ON: Time 43800, Note Name: G3, Velocity: 28
Note OFF: Time 43860, Note Name: G3
Note OFF: Time 43860, Note Name: G2
Note ON: Time 44400, Note Name: G2, Velocity: 23
Note ON: Time 44400, Note Name: G3, Velocity: 27
Note OFF: Time 44640, Note Name: G3
Note OFF: Time 44640, Note Name: G2
Note ON: Time 44760, Note Name: E2, Velocity: 26
Note ON: Time 44760, Note Name: E3, Velocity: 31
Note OFF: Time 44820, Note Name: E3
Note OFF: Time 44820, Note Name: E2
Note ON: Time 45360, Note Name: C4, Velocity: 31
Note ON: Time 45360, Note Name: C3, Velocity: 27
Note OFF: Time 45600, Note Name: C3
Note OFF: Time 45600, Note Name: C4
Note ON: Time 45720, Note Name: C3, Velocity: 28
Note ON: Time 45720, Note Name: C4, Velocity: 34
Note OFF: Time 45780, Note Name: C4
Note OFF: Time 45780, Note Name: C3
Note ON: Time 46320, Note Name: A3, Velocity: 34
Note ON: Time 46320, Note Name: A2, Velocity: 29
Note OFF: Time 46560, Note Name: A2
Note OFF: Time 46560, Note Name: A3
Note ON: Time 46680, Note Name: A2, Velocity: 31
Note ON: Time 46680, Note Name: A3, Velocity: 38
Note OFF: Time 46740, Note Name: A3
Note OFF: Time 46740, Note Name: A2
Note ON: Time 47280, Note Name: F2, Velocity: 32
Note ON: Time 47280, Note Name: F3, Velocity: 38
Note OFF: Time 47520, Note Name: F3
Note OFF: Time 47520, Note Name: F2
Note ON: Time 47640, Note Name: F3, Velocity: 45
Note ON: Time 47640, Note Name: F2, Velocity: 37
Note OFF: Time 47700, Note Name: F2
Note OFF: Time 47700, Note Name: F3
Note ON: Time 48240, Note Name: D2, Velocity: 41
Note ON: Time 48240, Note Name: D3, Velocity: 48
Note OFF: Time 48480, Note Name: D3
Note OFF: Time 48480, Note Name: D2
Note ON: Time 48600, Note Name: D3, Velocity: 57
Note ON: Time 48600, Note Name: D2, Velocity: 47
Note OFF: Time 48660, Note Name: D2
Note OFF: Time 48660, Note Name: D3
Note ON: Time 49200, Note Name: A1, Velocity: 48
Note ON: Time 49200, Note Name: C#2, Velocity: 48
Note ON: Time 49200, Note Name: E2, Velocity: 48
Note ON: Time 49200, Note Name: A2, Velocity: 57
Note OFF: Time 49440, Note Name: A2
Note OFF: Time 49440, Note Name: A1
Note OFF: Time 49440, Note Name: C#2
Note OFF: Time 49440, Note Name: E2
Note ON: Time 49560, Note Name: C#2, Velocity: 50
Note ON: Time 49560, Note Name: A1, Velocity: 50
Note ON: Time 49560, Note Name: A2, Velocity: 61
Note ON: Time 49560, Note Name: E2, Velocity: 50
Note OFF: Time 49620, Note Name: E2
Note OFF: Time 49620, Note Name: C#2
Note OFF: Time 49620, Note Name: A1
Note OFF: Time 49620, Note Name: A2
Note ON: Time 50160, Note Name: C#2, Velocity: 46
Note ON: Time 50160, Note Name: E2, Velocity: 46
Note ON: Time 50160, Note Name: A2, Velocity: 54
Note ON: Time 50160, Note Name: A1, Velocity: 46
Note OFF: Time 50400, Note Name: A1
Note OFF: Time 50400, Note Name: C#2
Note OFF: Time 50400, Note Name: E2
Note OFF: Time 50400, Note Name: A2
Note ON: Time 50520, Note Name: A1, Velocity: 47
Note ON: Time 50520, Note Name: E2, Velocity: 47
Note ON: Time 50520, Note Name: A2, Velocity: 58
Note ON: Time 50520, Note Name: C#2, Velocity: 47
Note OFF: Time 50580, Note Name: C#2
Note OFF: Time 50580, Note Name: A1
Note OFF: Time 50580, Note Name: E2
Note OFF: Time 50580, Note Name: A2
Note ON: Time 51120, Note Name: C#2, Velocity: 44
Note ON: Time 51120, Note Name: A1, Velocity: 44
Note ON: Time 51120, Note Name: A2, Velocity: 52
Note ON: Time 51120, Note Name: E2, Velocity: 44
Note OFF: Time 51360, Note Name: E2
Note OFF: Time 51360, Note Name: C#2
Note OFF: Time 51360, Note Name: A1
Note OFF: Time 51360, Note Name: A2
Note ON: Time 51480, Note Name: A1, Velocity: 45
Note ON: Time 51480, Note Name: A2, Velocity: 56
Note OFF: Time 51540, Note Name: A2
Note OFF: Time 51540, Note Name: A1
Note ON: Time 52080, Note Name: A2, Velocity: 44
Note ON: Time 52080, Note Name: A1, Velocity: 37
Note OFF: Time 52320, Note Name: A1
Note OFF: Time 52320, Note Name: A2
Note ON: Time 52440, Note Name: A1, Velocity: 35
Note ON: Time 52440, Note Name: A2, Velocity: 43
Note OFF: Time 52500, Note Name: A2
Note OFF: Time 52500, Note Name: A1
Note ON: Time 53040, Note Name: A1, Velocity: 28
Note ON: Time 53040, Note Name: A2, Velocity: 33
Note OFF: Time 53280, Note Name: A2
Note OFF: Time 53280, Note Name: A1
Note ON: Time 53400, Note Name: A2, Velocity: 32
Note ON: Time 53400, Note Name: A1, Velocity: 26
Note OFF: Time 53460, Note Name: A1
Note OFF: Time 53460, Note Name: A2
Note ON: Time 54000, Note Name: F1, Velocity: 17
Note ON: Time 54000, Note Name: F2, Velocity: 20
Note OFF: Time 54240, Note Name: F2
Note OFF: Time 54240, Note Name: F1
Note ON: Time 54360, Note Name: F2, Velocity: 22
Note ON: Time 54360, Note Name: F1, Velocity: 18
Note OFF: Time 54420, Note Name: F1
Note OFF: Time 54420, Note Name: F2
Note ON: Time 54720, Note Name: F1, Velocity: 25
Note ON: Time 54720, Note Name: F2, Velocity: 30
Note OFF: Time 54960, Note Name: F2
Note OFF: Time 54960, Note Name: F1
Note ON: Time 55200, Note Name: F3, Velocity: 25
Note ON: Time 55200, Note Name: A3, Velocity: 30
Note OFF: Time 55440, Note Name: A3
Note OFF: Time 55440, Note Name: F3
Note ON: Time 56160, Note Name: F2, Velocity: 46
Note ON: Time 56160, Note Name: F1, Velocity: 39
Note OFF: Time 56400, Note Name: F1
Note OFF: Time 56400, Note Name: F2
Note ON: Time 56640, Note Name: A3, Velocity: 33
Note ON: Time 56640, Note Name: C4, Velocity: 39
Note OFF: Time 56880, Note Name: C4
Note OFF: Time 56880, Note Name: A3
Note ON: Time 57600, Note Name: F2, Velocity: 55
Note ON: Time 57600, Note Name: F1, Velocity: 46
Note OFF: Time 57840, Note Name: F1
Note OFF: Time 57840, Note Name: F2
Note ON: Time 58080, Note Name: F4, Velocity: 54
Note ON: Time 58080, Note Name: C4, Velocity: 45
Note ON: Time 58080, Note Name: A3, Velocity: 45
Note ON: Time 58080, Note Name: F3, Velocity: 45
Note OFF: Time 58320, Note Name: F3
Note OFF: Time 58320, Note Name: F4
Note OFF: Time 58320, Note Name: C4
Note OFF: Time 58320, Note Name: A3
Note ON: Time 58560, Note Name: F1, Velocity: 48
Note ON: Time 58560, Note Name: F2, Velocity: 57
Note OFF: Time 58800, Note Name: F2
Note OFF: Time 58800, Note Name: F1
Note ON: Time 59040, Note Name: F4, Velocity: 66
Note ON: Time 59040, Note Name: C4, Velocity: 56
Note ON: Time 59040, Note Name: A3, Velocity: 56
Note ON: Time 59040, Note Name: F3, Velocity: 56
Note OFF: Time 59280, Note Name: F3
Note OFF: Time 59280, Note Name: F4
Note OFF: Time 59280, Note Name: C4
Note OFF: Time 59280, Note Name: A3
Note ON: Time 59520, Note Name: F1, Velocity: 63
Note ON: Time 59520, Note Name: F2, Velocity: 75
Note OFF: Time 60240, Note Name: F2
Note OFF: Time 60240, Note Name: F1
Note ON: Time 60240, Note Name: G2, Velocity: 54
Note OFF: Time 60360, Note Name: G2
Note ON: Time 60360, Note Name: A2, Velocity: 55
Note OFF: Time 60480, Note Name: A2
Note ON: Time 60480, Note Name: A#1, Velocity: 55
Note ON: Time 60480, Note Name: D2, Velocity: 55
Note ON: Time 60480, Note Name: A#2, Velocity: 65
Note ON: Time 60480, Note Name: F2, Velocity: 55
Note OFF: Time 60720, Note Name: F2
Note OFF: Time 60720, Note Name: A#1
Note OFF: Time 60720, Note Name: D2
Note OFF: Time 60720, Note Name: A#2
Note ON: Time 61920, Note Name: F3, Velocity: 40
Note OFF: Time 62160, Note Name: F3
Note ON: Time 62400, Note Name: A4, Velocity: 46
Note OFF: Time 62480, Note Name: A4
Note ON: Time 62480, Note Name: A#4, Velocity: 40
Note OFF: Time 62560, Note Name: A#4
Note ON: Time 62560, Note Name: A4, Velocity: 46
Note OFF: Time 62640, Note Name: A4
Note ON: Time 62640, Note Name: A#4, Velocity: 40
Note OFF: Time 62720, Note Name: A#4
Note ON: Time 62720, Note Name: A4, Velocity: 44
Note OFF: Time 62800, Note Name: A4
Note ON: Time 62800, Note Name: A#4, Velocity: 40
Note OFF: Time 62880, Note Name: A#4
Note ON: Time 62880, Note Name: A4, Velocity: 45
Note OFF: Time 62960, Note Name: A4
Note ON: Time 62960, Note Name: A#4, Velocity: 40
Note OFF: Time 63040, Note Name: A#4
Note ON: Time 63040, Note Name: A4, Velocity: 44
Note OFF: Time 63120, Note Name: A4
Note ON: Time 63120, Note Name: A#4, Velocity: 40
Note OFF: Time 63180, Note Name: A#4
Note ON: Time 63180, Note Name: A4, Velocity: 44
Note OFF: Time 63240, Note Name: A4
Note ON: Time 63240, Note Name: G4, Velocity: 40
Note OFF: Time 63300, Note Name: G4
Note ON: Time 63300, Note Name: A4, Velocity: 40
Note OFF: Time 63360, Note Name: A4
Note ON: Time 63360, Note Name: A#4, Velocity: 52
Note OFF: Time 63840, Note Name: A#4
Note ON: Time 64080, Note Name: A#4, Velocity: 52
Note ON: Time 64200, Note Name: A4, Velocity: 46
Note OFF: Time 64224, Note Name: A#4
Note ON: Time 64320, Note Name: G4, Velocity: 46
Note OFF: Time 64344, Note Name: A4
Note ON: Time 64440, Note Name: F4, Velocity: 46
Note OFF: Time 64464, Note Name: G4
Note ON: Time 64560, Note Name: D#4, Velocity: 48
Note OFF: Time 64584, Note Name: F4
Note ON: Time 64680, Note Name: D4, Velocity: 43
Note OFF: Time 64704, Note Name: D#4
Note ON: Time 64800, Note Name: G4, Velocity: 52
Note OFF: Time 64824, Note Name: D4
Note OFF: Time 65040, Note Name: G4
Note ON: Time 65520, Note Name: G4, Velocity: 52
Note ON: Time 65640, Note Name: F4, Velocity: 46
Note OFF: Time 65664, Note Name: G4
Note ON: Time 65760, Note Name: D#4, Velocity: 46
Note OFF: Time 65784, Note Name: F4
Note ON: Time 65880, Note Name: D4, Velocity: 46
Note OFF: Time 65904, Note Name: D#4
Note ON: Time 66000, Note Name: C4, Velocity: 49
Note OFF: Time 66024, Note Name: D4
Note ON: Time 66120, Note Name: A#3, Velocity: 45
Note OFF: Time 66144, Note Name: C4
Note ON: Time 66240, Note Name: D#4, Velocity: 52
Note OFF: Time 66264, Note Name: A#3
Note OFF: Time 66480, Note Name: D#4
Note ON: Time 66960, Note Name: D#4, Velocity: 52
Note ON: Time 67080, Note Name: D4, Velocity: 46
Note OFF: Time 67104, Note Name: D#4
Note ON: Time 67200, Note Name: C4, Velocity: 52
Note OFF: Time 67224, Note Name: D4
Note ON: Time 67320, Note Name: D4, Velocity: 46
Note OFF: Time 67344, Note Name: C4
Note ON: Time 67440, Note Name: C4, Velocity: 46
Note OFF: Time 67464, Note Name: D4
Note ON: Time 67560, Note Name: A#3, Velocity: 46
Note OFF: Time 67584, Note Name: C4
Note OFF: Time 67680, Note Name: A#3
Note ON: Time 67680, Note Name: A3, Velocity: 53
Note ON: Time 67800, Note Name: A#3, Velocity: 47
Note OFF: Time 67824, Note Name: A3
Note ON: Time 67920, Note Name: A3, Velocity: 47
Note OFF: Time 67944, Note Name: A#3
Note ON: Time 68040, Note Name: G3, Velocity: 47
Note OFF: Time 68064, Note Name: A3
Note ON: Time 68160, Note Name: F3, Velocity: 52
Note OFF: Time 68184, Note Name: G3
Note ON: Time 68280, Note Name: G3, Velocity: 47
Note OFF: Time 68304, Note Name: F3
Note ON: Time 68400, Note Name: A3, Velocity: 48
Note OFF: Time 68424, Note Name: G3
Note ON: Time 68520, Note Name: A#3, Velocity: 48
Note OFF: Time 68544, Note Name: A3
Note ON: Time 68640, Note Name: B3, Velocity: 52
Note OFF: Time 68664, Note Name: A#3
Note ON: Time 68760, Note Name: C4, Velocity: 49
Note OFF: Time 68784, Note Name: B3
Note ON: Time 68880, Note Name: D4, Velocity: 49
Note OFF: Time 68904, Note Name: C4
Note ON: Time 69000, Note Name: C4, Velocity: 49
Note OFF: Time 69024, Note Name: D4
Note OFF: Time 69120, Note Name: C4
Note ON: Time 69120, Note Name: A#3, Velocity: 52
Note ON: Time 69240, Note Name: C4, Velocity: 47
Note OFF: Time 69264, Note Name: A#3
Note ON: Time 69360, Note Name: D4, Velocity: 47
Note OFF: Time 69384, Note Name: C4
Note ON: Time 69480, Note Name: D#4, Velocity: 47
Note OFF: Time 69504, Note Name: D4
Note ON: Time 69600, Note Name: E4, Velocity: 52
Note OFF: Time 69624, Note Name: D#4
Note ON: Time 69720, Note Name: F4, Velocity: 45
Note OFF: Time 69744, Note Name: E4
Note ON: Time 69840, Note Name: G4, Velocity: 45
Note OFF: Time 69864, Note Name: F4
Note ON: Time 69960, Note Name: F4, Velocity: 45
Note OFF: Time 69984, Note Name: G4
Note ON: Time 70080, Note Name: D#4, Velocity: 52
Note OFF: Time 70104, Note Name: F4
Note ON: Time 70200, Note Name: D4, Velocity: 48
Note OFF: Time 70224, Note Name: D#4
Note ON: Time 70320, Note Name: C4, Velocity: 48
Note OFF: Time 70344, Note Name: D4
Note ON: Time 70440, Note Name: A#3, Velocity: 48
Note OFF: Time 70464, Note Name: C4
Note OFF: Time 70560, Note Name: A#3
Note ON: Time 70560, Note Name: A3, Velocity: 52
Note ON: Time 70680, Note Name: A#3, Velocity: 47
Note OFF: Time 70704, Note Name: A3
Note ON: Time 70800, Note Name: A3, Velocity: 47
Note OFF: Time 70824, Note Name: A#3
Note ON: Time 70920, Note Name: G3, Velocity: 47
Note OFF: Time 70944, Note Name: A3
Note ON: Time 71040, Note Name: F3, Velocity: 53
Note OFF: Time 71064, Note Name: G3
Note ON: Time 71160, Note Name: G3, Velocity: 47
Note OFF: Time 71184, Note Name: F3
Note ON: Time 71280, Note Name: A3, Velocity: 48
Note OFF: Time 71304, Note Name: G3
Note ON: Time 71400, Note Name: A#3, Velocity: 48
Note OFF: Time 71424, Note Name: A3
Note OFF: Time 71520, Note Name: A#3
Note ON: Time 71520, Note Name: B3, Velocity: 54
Note ON: Time 71640, Note Name: C4, Velocity: 47
Note OFF: Time 71664, Note Name: B3
Note ON: Time 71760, Note Name: D4, Velocity: 48
Note OFF: Time 71784, Note Name: C4
Note ON: Time 71880, Note Name: C4, Velocity: 48
Note OFF: Time 71904, Note Name: D4
Note OFF: Time 72000, Note Name: C4
Note ON: Time 72000, Note Name: A#3, Velocity: 55
Note ON: Time 72120, Note Name: C4, Velocity: 48
Note OFF: Time 72144, Note Name: A#3
Note ON: Time 72240, Note Name: D4, Velocity: 49
Note OFF: Time 72264, Note Name: C4
Note ON: Time 72360, Note Name: D#4, Velocity: 49
Note OFF: Time 72384, Note Name: D4
Note ON: Time 72480, Note Name: E4, Velocity: 56
Note OFF: Time 72504, Note Name: D#4
Note ON: Time 72600, Note Name: F4, Velocity: 51
Note OFF: Time 72624, Note Name: E4
Note ON: Time 72720, Note Name: G4, Velocity: 52
Note OFF: Time 72744, Note Name: F4
Note ON: Time 72840, Note Name: F4, Velocity: 52
Note OFF: Time 72864, Note Name: G4
Note OFF: Time 72960, Note Name: F4
Note ON: Time 72960, Note Name: A#3, Velocity: 57
Note OFF: Time 73080, Note Name: A#3
Note ON: Time 73080, Note Name: F#4, Velocity: 52
Note ON: Time 73200, Note Name: G4, Velocity: 53
Note OFF: Time 73224, Note Name: F#4
Note ON: Time 73320, Note Name: F#4, Velocity: 53
Note OFF: Time 73344, Note Name: G4
Note OFF: Time 73440, Note Name: F#4
Note ON: Time 73440, Note Name: A#3, Velocity: 61
Note OFF: Time 73560, Note Name: A#3
Note ON: Time 73560, Note Name: G4, Velocity: 53
Note ON: Time 73680, Note Name: A4, Velocity: 53
Note OFF: Time 73704, Note Name: G4
Note ON: Time 73800, Note Name: G4, Velocity: 53
Note OFF: Time 73824, Note Name: A4
Note OFF: Time 73920, Note Name: G4
Note ON: Time 73920, Note Name: F#4, Velocity: 59
Note OFF: Time 74040, Note Name: F#4
Note ON: Time 74040, Note Name: G4, Velocity: 55
Note ON: Time 74160, Note Name: A4, Velocity: 55
Note OFF: Time 74184, Note Name: G4
Note ON: Time 74280, Note Name: G4, Velocity: 55
Note OFF: Time 74304, Note Name: A4
Note OFF: Time 74400, Note Name: G4
Note ON: Time 74400, Note Name: E4, Velocity: 60
Note OFF: Time 74520, Note Name: E4
Note ON: Time 74520, Note Name: F4, Velocity: 54
Note ON: Time 74640, Note Name: G4, Velocity: 54
Note OFF: Time 74664, Note Name: F4
Note ON: Time 74760, Note Name: F4, Velocity: 55
Note OFF: Time 74784, Note Name: G4
Note OFF: Time 74880, Note Name: F4
Note ON: Time 74880, Note Name: E4, Velocity: 61
Note OFF: Time 75000, Note Name: E4
Note ON: Time 75000, Note Name: F4, Velocity: 57
Note ON: Time 75120, Note Name: G4, Velocity: 57
Note OFF: Time 75144, Note Name: F4
Note ON: Time 75240, Note Name: F4, Velocity: 57
Note OFF: Time 75264, Note Name: G4
Note OFF: Time 75360, Note Name: F4
Note ON: Time 75360, Note Name: D4, Velocity: 62
Note OFF: Time 75480, Note Name: D4
Note ON: Time 75480, Note Name: D#4, Velocity: 58
Note ON: Time 75600, Note Name: F4, Velocity: 59
Note OFF: Time 75624, Note Name: D#4
Note ON: Time 75720, Note Name: D#4, Velocity: 59
Note OFF: Time 75744, Note Name: F4
Note OFF: Time 75840, Note Name: D#4
Note ON: Time 75840, Note Name: C#4, Velocity: 63
Note OFF: Time 75960, Note Name: C#4
Note ON: Time 75960, Note Name: D4, Velocity: 59
Note ON: Time 76080, Note Name: D#4, Velocity: 59
Note OFF: Time 76104, Note Name: D4
Note ON: Time 76200, Note Name: D4, Velocity: 59
Note OFF: Time 76224, Note Name: D#4
Note OFF: Time 76320, Note Name: D4
Note ON: Time 76320, Note Name: C#4, Velocity: 65
Note OFF: Time 76440, Note Name: C#4
Note ON: Time 76440, Note Name: D4, Velocity: 58
Note ON: Time 76560, Note Name: D#4, Velocity: 58
Note OFF: Time 76584, Note Name: D4
Note ON: Time 76680, Note Name: D4, Velocity: 58
Note OFF: Time 76704, Note Name: D#4
Note OFF: Time 76800, Note Name: D4
Note ON: Time 76800, Note Name: B3, Velocity: 65
Note OFF: Time 76920, Note Name: B3
Note ON: Time 76920, Note Name: C4, Velocity: 60
Note OFF: Time 77040, Note Name: C4
Note ON: Time 77040, Note Name: D4, Velocity: 60
Note OFF: Time 77160, Note Name: D4
Note ON: Time 77160, Note Name: C4, Velocity: 60
Note OFF: Time 77280, Note Name: C4
Note ON: Time 77280, Note Name: A3, Velocity: 65
Note OFF: Time 77400, Note Name: A3
Note ON: Time 77400, Note Name: A#3, Velocity: 58
Note OFF: Time 77520, Note Name: A#3
Note ON: Time 77520, Note Name: C4, Velocity: 58
Note OFF: Time 77640, Note Name: C4
Note ON: Time 77640, Note Name: A#3, Velocity: 58
Note OFF: Time 77760, Note Name: A#3
Note ON: Time 78000, Note Name: A3, Velocity: 65
Note OFF: Time 78120, Note Name: A3
Note ON: Time 78240, Note Name: A4, Velocity: 76
Note OFF: Time 78960, Note Name: A4
Note ON: Time 79440, Note Name: F3, Velocity: 65
Note OFF: Time 79560, Note Name: F3
Note ON: Time 79680, Note Name: F4, Velocity: 76
Note OFF: Time 80400, Note Name: F4
Note ON: Time 80880, Note Name: D3, Velocity: 61
Note OFF: Time 81000, Note Name: D3
Note ON: Time 81120, Note Name: D4, Velocity: 68
Note ON: Time 81360, Note Name: C4, Velocity: 61
Note OFF: Time 81384, Note Name: D4
Note ON: Time 81600, Note Name: A#3, Velocity: 60
Note OFF: Time 81624, Note Name: C4
Note ON: Time 81840, Note Name: B3, Velocity: 60
Note OFF: Time 81864, Note Name: A#3
Note ON: Time 82080, Note Name: C4, Velocity: 70
Note OFF: Time 82104, Note Name: B3
Note OFF: Time 82200, Note Name: C4
Note ON: Time 82560, Note Name: A#3, Velocity: 71
Note OFF: Time 83280, Note Name: A#3
Note ON: Time 83280, Note Name: A#3, Velocity: 59
Note OFF: Time 83520, Note Name: A#3
Note ON: Time 83520, Note Name: A#3, Velocity: 65
Note ON: Time 83760, Note Name: A3, Velocity: 59
Note OFF: Time 83784, Note Name: A#3
Note ON: Time 84000, Note Name: G3, Velocity: 59
Note OFF: Time 84024, Note Name: A3
Note ON: Time 84240, Note Name: F3, Velocity: 59
Note OFF: Time 84264, Note Name: G3
Note ON: Time 84480, Note Name: E3, Velocity: 59
Note OFF: Time 84504, Note Name: F3
Note ON: Time 84720, Note Name: F3, Velocity: 59
Note OFF: Time 84744, Note Name: E3
Note OFF: Time 84960, Note Name: F3
Note ON: Time 84960, Note Name: C4, Velocity: 69
Note OFF: Time 85080, Note Name: C4
Note ON: Time 85440, Note Name: A#3, Velocity: 68
Note OFF: Time 86160, Note Name: A#3
Note ON: Time 86160, Note Name: A3, Velocity: 65
Note OFF: Time 86400, Note Name: A3
Note ON: Time 86400, Note Name: D4, Velocity: 71
Note OFF: Time 86520, Note Name: D4
Note ON: Time 86880, Note Name: C#4, Velocity: 70
Note OFF: Time 87600, Note Name: C#4
Note ON: Time 87600, Note Name: C4, Velocity: 62
Note OFF: Time 87840, Note Name: C4
Note ON: Time 87840, Note Name: F4, Velocity: 71
Note OFF: Time 87960, Note Name: F4
Note ON: Time 88320, Note Name: E4, Velocity: 70
Note OFF: Time 89040, Note Name: E4
Note ON: Time 89040, Note Name: D#4, Velocity: 61
Note OFF: Time 89280, Note Name: D#4
Note ON: Time 89280, Note Name: F2, Velocity: 73
Note OFF: Time 89520, Note Name: F2
Note ON: Time 89760, Note Name: A3, Velocity: 70
Note OFF: Time 89840, Note Name: A3
Note ON: Time 89840, Note Name: A#3, Velocity: 62
Note OFF: Time 89920, Note Name: A#3
Note ON: Time 89920, Note Name: A3, Velocity: 70
Note OFF: Time 90000, Note Name: A3
Note ON: Time 90000, Note Name: A#3, Velocity: 63
Note OFF: Time 90080, Note Name: A#3
Note ON: Time 90080, Note Name: A3, Velocity: 70
Note OFF: Time 90160, Note Name: A3
Note ON: Time 90160, Note Name: A#3, Velocity: 63
Note OFF: Time 90240, Note Name: A#3
Note ON: Time 90240, Note Name: A3, Velocity: 70
Note OFF: Time 90320, Note Name: A3
Note ON: Time 90320, Note Name: A#3, Velocity: 64
Note OFF: Time 90400, Note Name: A#3
Note ON: Time 90400, Note Name: A3, Velocity: 70
Note OFF: Time 90480, Note Name: A3
Note ON: Time 90480, Note Name: A#3, Velocity: 63
Note OFF: Time 90540, Note Name: A#3
Note ON: Time 90540, Note Name: A3, Velocity: 70
Note OFF: Time 90600, Note Name: A3
Note ON: Time 90600, Note Name: G3, Velocity: 65
Note OFF: Time 90660, Note Name: G3
Note ON: Time 90660, Note Name: A3, Velocity: 65
Note OFF: Time 90720, Note Name: A3
Note ON: Time 90720, Note Name: A#3, Velocity: 72
Note OFF: Time 91200, Note Name: A#3
Note ON: Time 91440, Note Name: A#3, Velocity: 62
Note ON: Time 91560, Note Name: A3, Velocity: 52
Note OFF: Time 91584, Note Name: A#3
Note ON: Time 91680, Note Name: G3, Velocity: 52
Note OFF: Time 91704, Note Name: A3
Note ON: Time 91800, Note Name: F3, Velocity: 52
Note OFF: Time 91824, Note Name: G3
Note ON: Time 91920, Note Name: D#3, Velocity: 58
Note OFF: Time 91944, Note Name: F3
Note ON: Time 92040, Note Name: D3, Velocity: 51
Note OFF: Time 92064, Note Name: D#3
Note ON: Time 92160, Note Name: G3, Velocity: 69
Note OFF: Time 92184, Note Name: D3
Note OFF: Time 92640, Note Name: G3
Note ON: Time 92880, Note Name: G3, Velocity: 62
Note ON: Time 93000, Note Name: F3, Velocity: 52
Note OFF: Time 93024, Note Name: G3
Note ON: Time 93120, Note Name: D#3, Velocity: 52
Note OFF: Time 93144, Note Name: F3
Note ON: Time 93240, Note Name: D3, Velocity: 52
Note OFF: Time 93264, Note Name: D#3
Note ON: Time 93360, Note Name: C3, Velocity: 58
Note OFF: Time 93384, Note Name: D3
Note ON: Time 93480, Note Name: A#2, Velocity: 51
Note OFF: Time 93504, Note Name: C3
Note ON: Time 93600, Note Name: D#3, Velocity: 69
Note OFF: Time 93624, Note Name: A#2
Note OFF: Time 94080, Note Name: D#3
Note ON: Time 94320, Note Name: D#3, Velocity: 56
Note ON: Time 94440, Note Name: D3, Velocity: 55
Note OFF: Time 94464, Note Name: D#3
Note ON: Time 94560, Note Name: C3, Velocity: 54
Note OFF: Time 94584, Note Name: D3
Note ON: Time 94680, Note Name: D3, Velocity: 53
Note OFF: Time 94704, Note Name: C3
Note ON: Time 94800, Note Name: C3, Velocity: 51
Note OFF: Time 94824, Note Name: D3
Note ON: Time 94920, Note Name: A#2, Velocity: 52
Note OFF: Time 94944, Note Name: C3
Note ON: Time 95040, Note Name: A2, Velocity: 56
Note OFF: Time 95064, Note Name: A#2
Note ON: Time 95160, Note Name: A#2, Velocity: 50
Note OFF: Time 95184, Note Name: A2
Note ON: Time 95280, Note Name: A2, Velocity: 50
Note OFF: Time 95304, Note Name: A#2
Note ON: Time 95400, Note Name: G2, Velocity: 50
Note OFF: Time 95424, Note Name: A2
Note OFF: Time 95520, Note Name: G2
Note ON: Time 95520, Note Name: F2, Velocity: 50
Note OFF: Time 95640, Note Name: F2
Note ON: Time 95640, Note Name: G2, Velocity: 52
Note ON: Time 95760, Note Name: A2, Velocity: 48
Note OFF: Time 95784, Note Name: G2
Note ON: Time 95880, Note Name: A#2, Velocity: 48
Note OFF: Time 95904, Note Name: A2
Note ON: Time 96000, Note Name: B2, Velocity: 48
Note OFF: Time 96024, Note Name: A#2
Note ON: Time 96120, Note Name: C3, Velocity: 48
Note OFF: Time 96144, Note Name: B2
Note ON: Time 96240, Note Name: D3, Velocity: 48
Note OFF: Time 96264, Note Name: C3
Note ON: Time 96360, Note Name: C3, Velocity: 48
Note OFF: Time 96384, Note Name: D3
Note OFF: Time 96480, Note Name: C3
Note ON: Time 96480, Note Name: A#2, Velocity: 51
Note ON: Time 96600, Note Name: C3, Velocity: 51
Note OFF: Time 96624, Note Name: A#2
Note ON: Time 96720, Note Name: D3, Velocity: 51
Note OFF: Time 96744, Note Name: C3
Note ON: Time 96840, Note Name: D#3, Velocity: 52
Note OFF: Time 96864, Note Name: D3
Note ON: Time 96960, Note Name: E3, Velocity: 53
Note OFF: Time 96984, Note Name: D#3
Note ON: Time 97080, Note Name: F3, Velocity: 53
Note OFF: Time 97104, Note Name: E3
Note ON: Time 97200, Note Name: G3, Velocity: 54
Note OFF: Time 97224, Note Name: F3
Note ON: Time 97320, Note Name: F3, Velocity: 51
Note OFF: Time 97344, Note Name: G3
Note ON: Time 97440, Note Name: D#3, Velocity: 54
Note OFF: Time 97464, Note Name: F3
Note ON: Time 97560, Note Name: D3, Velocity: 53
Note OFF: Time 97584, Note Name: D#3
Note ON: Time 97680, Note Name: C3, Velocity: 52
Note OFF: Time 97704, Note Name: D3
Note ON: Time 97800, Note Name: A#2, Velocity: 51
Note OFF: Time 97824, Note Name: C3
Note ON: Time 97920, Note Name: A2, Velocity: 56
Note OFF: Time 97944, Note Name: A#2
Note ON: Time 98040, Note Name: A#2, Velocity: 50
Note OFF: Time 98064, Note Name: A2
Note ON: Time 98160, Note Name: A2, Velocity: 50
Note OFF: Time 98184, Note Name: A#2
Note ON: Time 98280, Note Name: G2, Velocity: 50
Note OFF: Time 98304, Note Name: A2
Note OFF: Time 98400, Note Name: G2
Note ON: Time 98400, Note Name: F2, Velocity: 50
Note OFF: Time 98520, Note Name: F2
Note ON: Time 98520, Note Name: G2, Velocity: 52
Note ON: Time 98640, Note Name: A2, Velocity: 48
Note OFF: Time 98664, Note Name: G2
Note ON: Time 98760, Note Name: A#2, Velocity: 48
Note OFF: Time 98784, Note Name: A2
Note ON: Time 98880, Note Name: A2, Velocity: 48
Note OFF: Time 98904, Note Name: A#2
Note ON: Time 99000, Note Name: A#2, Velocity: 48
Note OFF: Time 99024, Note Name: A2
Note ON: Time 99120, Note Name: C3, Velocity: 48
Note OFF: Time 99144, Note Name: A#2
Note ON: Time 99240, Note Name: D3, Velocity: 48
Note OFF: Time 99264, Note Name: C3
Note OFF: Time 99360, Note Name: D3
Note ON: Time 99360, Note Name: D#3, Velocity: 51
Note ON: Time 99480, Note Name: F3, Velocity: 51
Note OFF: Time 99504, Note Name: D#3
Note ON: Time 99600, Note Name: G3, Velocity: 51
Note OFF: Time 99624, Note Name: F3
Note ON: Time 99720, Note Name: D#3, Velocity: 52
Note OFF: Time 99744, Note Name: G3
Note ON: Time 99840, Note Name: C#3, Velocity: 53
Note OFF: Time 99864, Note Name: D#3
Note ON: Time 99960, Note Name: D3, Velocity: 53
Note OFF: Time 99984, Note Name: C#3
Note ON: Time 100080, Note Name: E3, Velocity: 54
Note OFF: Time 100104, Note Name: D3
Note ON: Time 100200, Note Name: C#3, Velocity: 51
Note OFF: Time 100224, Note Name: E3
Note ON: Time 100320, Note Name: D3, Velocity: 54
Note OFF: Time 100344, Note Name: C#3
Note OFF: Time 100440, Note Name: D3
Note ON: Time 100440, Note Name: F3, Velocity: 53
Note OFF: Time 100560, Note Name: F3
Note ON: Time 100560, Note Name: A#3, Velocity: 52
Note OFF: Time 100680, Note Name: A#3
Note ON: Time 100680, Note Name: D4, Velocity: 51
Note OFF: Time 100800, Note Name: D4
Note ON: Time 100800, Note Name: F#3, Velocity: 56
Note ON: Time 100920, Note Name: G3, Velocity: 50
Note OFF: Time 100944, Note Name: F#3
Note ON: Time 101040, Note Name: A3, Velocity: 50
Note OFF: Time 101064, Note Name: G3
Note ON: Time 101160, Note Name: G3, Velocity: 50
Note OFF: Time 101184, Note Name: A3
Note OFF: Time 101280, Note Name: G3
Note ON: Time 101280, Note Name: D#3, Velocity: 50
Note OFF: Time 101400, Note Name: D#3
Note ON: Time 101400, Note Name: E3, Velocity: 52
Note ON: Time 101520, Note Name: F3, Velocity: 48
Note OFF: Time 101544, Note Name: E3
Note ON: Time 101640, Note Name: E3, Velocity: 48
Note OFF: Time 101664, Note Name: F3
Note ON: Time 101760, Note Name: F3, Velocity: 48
Note OFF: Time 101784, Note Name: E3
Note OFF: Time 101880, Note Name: F3
Note ON: Time 101880, Note Name: A3, Velocity: 48
Note OFF: Time 102000, Note Name: A3
Note ON: Time 102000, Note Name: C4, Velocity: 48
Note OFF: Time 102120, Note Name: C4
Note ON: Time 102120, Note Name: F4, Velocity: 48
Note OFF: Time 102240, Note Name: F4
Note ON: Time 102240, Note Name: B3, Velocity: 51
Note ON: Time 102360, Note Name: C4, Velocity: 51
Note OFF: Time 102384, Note Name: B3
Note ON: Time 102480, Note Name: D4, Velocity: 51
Note OFF: Time 102504, Note Name: C4
Note ON: Time 102600, Note Name: C4, Velocity: 52
Note OFF: Time 102624, Note Name: D4
Note ON: Time 102720, Note Name: G#3, Velocity: 53
Note OFF: Time 102744, Note Name: C4
Note ON: Time 102840, Note Name: A3, Velocity: 53
Note OFF: Time 102864, Note Name: G#3
Note ON: Time 102960, Note Name: A#3, Velocity: 54
Note OFF: Time 102984, Note Name: A3
Note ON: Time 103080, Note Name: A3, Velocity: 51
Note OFF: Time 103104, Note Name: A#3
Note ON: Time 103200, Note Name: A#3, Velocity: 54
Note OFF: Time 103224, Note Name: A3
Note ON: Time 103320, Note Name: A3, Velocity: 53
Note OFF: Time 103344, Note Name: A#3
Note ON: Time 103440, Note Name: G3, Velocity: 52
Note OFF: Time 103464, Note Name: A3
Note ON: Time 103560, Note Name: F3, Velocity: 51
Note OFF: Time 103584, Note Name: G3
Note ON: Time 103680, Note Name: D#3, Velocity: 51
Note OFF: Time 103704, Note Name: F3
Note ON: Time 103800, Note Name: F3, Velocity: 51
Note OFF: Time 103824, Note Name: D#3
Note ON: Time 103920, Note Name: G3, Velocity: 51
Note OFF: Time 103944, Note Name: F3
Note ON: Time 104040, Note Name: D#3, Velocity: 52
Note OFF: Time 104064, Note Name: G3
Note ON: Time 104160, Note Name: D3, Velocity: 53
Note OFF: Time 104184, Note Name: D#3
Note ON: Time 104280, Note Name: C#3, Velocity: 53
Note OFF: Time 104304, Note Name: D3
Note ON: Time 104400, Note Name: C3, Velocity: 54
Note OFF: Time 104424, Note Name: C#3
Note ON: Time 104520, Note Name: C#3, Velocity: 51
Note OFF: Time 104544, Note Name: C3
Note ON: Time 104640, Note Name: D3, Velocity: 54
Note OFF: Time 104664, Note Name: C#3
Note ON: Time 104760, Note Name: E3, Velocity: 53
Note OFF: Time 104784, Note Name: D3
Note ON: Time 104880, Note Name: F3, Velocity: 52
Note OFF: Time 104904, Note Name: E3
Note ON: Time 105000, Note Name: F#3, Velocity: 51
Note OFF: Time 105024, Note Name: F3
Note ON: Time 105120, Note Name: G3, Velocity: 51
Note OFF: Time 105144, Note Name: F#3
Note ON: Time 105240, Note Name: A3, Velocity: 51
Note OFF: Time 105264, Note Name: G3
Note ON: Time 105360, Note Name: A#3, Velocity: 51
Note OFF: Time 105384, Note Name: A3
Note ON: Time 105480, Note Name: B3, Velocity: 52
Note OFF: Time 105504, Note Name: A#3
Note ON: Time 105600, Note Name: C3, Velocity: 53
Note OFF: Time 105624, Note Name: B3
Note OFF: Time 105720, Note Name: C3
Note ON: Time 105720, Note Name: E3, Velocity: 53
Note OFF: Time 105840, Note Name: E3
Note ON: Time 105840, Note Name: G3, Velocity: 54
Note OFF: Time 105960, Note Name: G3
Note ON: Time 105960, Note Name: C4, Velocity: 51
Note OFF: Time 106080, Note Name: C4
Note ON: Time 106080, Note Name: F3, Velocity: 54
Note ON: Time 106200, Note Name: G3, Velocity: 53
Note OFF: Time 106224, Note Name: F3
Note ON: Time 106320, Note Name: G#3, Velocity: 52
Note OFF: Time 106344, Note Name: G3
Note ON: Time 106440, Note Name: A3, Velocity: 51
Note OFF: Time 106464, Note Name: G#3
Note ON: Time 106560, Note Name: A#2, Velocity: 51
Note OFF: Time 106584, Note Name: A3
Note OFF: Time 106680, Note Name: A#2
Note ON: Time 106680, Note Name: D3, Velocity: 51
Note OFF: Time 106800, Note Name: D3
Note ON: Time 106800, Note Name: F3, Velocity: 51
Note OFF: Time 106920, Note Name: F3
Note ON: Time 106920, Note Name: A#3, Velocity: 52
Note OFF: Time 107040, Note Name: A#3
Note ON: Time 107040, Note Name: E3, Velocity: 53
Note OFF: Time 107160, Note Name: E3
Note ON: Time 107160, Note Name: G3, Velocity: 53
Note OFF: Time 107280, Note Name: G3
Note ON: Time 107280, Note Name: A#3, Velocity: 54
Note OFF: Time 107400, Note Name: A#3
Note ON: Time 107400, Note Name: E4, Velocity: 51
Note OFF: Time 107520, Note Name: E4
Note ON: Time 107520, Note Name: G3, Velocity: 54
Note OFF: Time 107640, Note Name: G3
Note ON: Time 107640, Note Name: E3, Velocity: 53
Note OFF: Time 107760, Note Name: E3
Note ON: Time 107760, Note Name: G3, Velocity: 52
Note OFF: Time 107880, Note Name: G3
Note ON: Time 107880, Note Name: E3, Velocity: 51
Note OFF: Time 108000, Note Name: E3
Note ON: Time 108960, Note Name: F2, Velocity: 67
Note OFF: Time 109200, Note Name: F2
Note ON: Time 109440, Note Name: A3, Velocity: 70
Note OFF: Time 109520, Note Name: A3
Note ON: Time 109520, Note Name: A#3, Velocity: 64
Note OFF: Time 109600, Note Name: A#3
Note ON: Time 109600, Note Name: A3, Velocity: 70
Note OFF: Time 109680, Note Name: A3
Note ON: Time 109680, Note Name: A#3, Velocity: 62
Note OFF: Time 109760, Note Name: A#3
Note ON: Time 109760, Note Name: A3, Velocity: 70
Note OFF: Time 109840, Note Name: A3
Note ON: Time 109840, Note Name: A#3, Velocity: 62
Note OFF: Time 109920, Note Name: A#3
Note ON: Time 109920, Note Name: A3, Velocity: 68
Note OFF: Time 110000, Note Name: A3
Note ON: Time 110000, Note Name: A#3, Velocity: 59
Note OFF: Time 110080, Note Name: A#3
Note ON: Time 110080, Note Name: A3, Velocity: 68
Note OFF: Time 110160, Note Name: A3
Note ON: Time 110160, Note Name: A#3, Velocity: 61
Note OFF: Time 110220, Note Name: A#3
Note ON: Time 110220, Note Name: A3, Velocity: 68
Note OFF: Time 110280, Note Name: A3
Note ON: Time 110280, Note Name: G3, Velocity: 63
Note OFF: Time 110340, Note Name: G3
Note ON: Time 110340, Note Name: A3, Velocity: 63
Note OFF: Time 110400, Note Name: A3
Note ON: Time 110400, Note Name: A#3, Velocity: 63
Note OFF: Time 110880, Note Name: A#3
Note ON: Time 111840, Note Name: G2, Velocity: 67
Note OFF: Time 112080, Note Name: G2
Note ON: Time 112320, Note Name: B3, Velocity: 70
Note OFF: Time 112400, Note Name: B3
Note ON: Time 112400, Note Name: C4, Velocity: 64
Note OFF: Time 112480, Note Name: C4
Note ON: Time 112480, Note Name: B3, Velocity: 70
Note OFF: Time 112560, Note Name: B3
Note ON: Time 112560, Note Name: C4, Velocity: 62
Note OFF: Time 112640, Note Name: C4
Note ON: Time 112640, Note Name: B3, Velocity: 70
Note OFF: Time 112720, Note Name: B3
Note ON: Time 112720, Note Name: C4, Velocity: 62
Note OFF: Time 112800, Note Name: C4
Note ON: Time 112800, Note Name: B3, Velocity: 68
Note OFF: Time 112880, Note Name: B3
Note ON: Time 112880, Note Name: C4, Velocity: 59
Note OFF: Time 112960, Note Name: C4
Note ON: Time 112960, Note Name: B3, Velocity: 68
Note OFF: Time 113040, Note Name: B3
Note ON: Time 113040, Note Name: C4, Velocity: 61
Note OFF: Time 113100, Note Name: C4
Note ON: Time 113100, Note Name: B3, Velocity: 68
Note OFF: Time 113160, Note Name: B3
Note ON: Time 113160, Note Name: A3, Velocity: 63
Note OFF: Time 113220, Note Name: A3
Note ON: Time 113220, Note Name: B3, Velocity: 63
Note OFF: Time 113280, Note Name: B3
Note ON: Time 113280, Note Name: C4, Velocity: 63
Note OFF: Time 113520, Note Name: C4
Note ON: Time 113520, Note Name: G#2, Velocity: 63
Note OFF: Time 113760, Note Name: G#2
Note ON: Time 113760, Note Name: C4, Velocity: 70
Note OFF: Time 113840, Note Name: C4
Note ON: Time 113840, Note Name: C#4, Velocity: 64
Note OFF: Time 113920, Note Name: C#4
Note ON: Time 113920, Note Name: C4, Velocity: 70
Note OFF: Time 114000, Note Name: C4
Note ON: Time 114000, Note Name: C#4, Velocity: 62
Note OFF: Time 114080, Note Name: C#4
Note ON: Time 114080, Note Name: C4, Velocity: 70
Note OFF: Time 114160, Note Name: C4
Note ON: Time 114160, Note Name: C#4, Velocity: 62
Note OFF: Time 114240, Note Name: C#4
Note ON: Time 114240, Note Name: C4, Velocity: 68
Note OFF: Time 114320, Note Name: C4
Note ON: Time 114320, Note Name: C#4, Velocity: 59
Note OFF: Time 114400, Note Name: C#4
Note ON: Time 114400, Note Name: C4, Velocity: 68
Note OFF: Time 114480, Note Name: C4
Note ON: Time 114480, Note Name: C#4, Velocity: 61
Note OFF: Time 114540, Note Name: C#4
Note ON: Time 114540, Note Name: C4, Velocity: 68
Note OFF: Time 114600, Note Name: C4
Note ON: Time 114600, Note Name: A#3, Velocity: 63
Note OFF: Time 114660, Note Name: A#3
Note ON: Time 114660, Note Name: C4, Velocity: 63
Note OFF: Time 114720, Note Name: C4
Note ON: Time 114720, Note Name: C#4, Velocity: 63
Note OFF: Time 115200, Note Name: C#4
Note ON: Time 115440, Note Name: C#4, Velocity: 61
Note OFF: Time 115560, Note Name: C#4
Note ON: Time 115560, Note Name: C4, Velocity: 61
Note OFF: Time 115680, Note Name: C4
Note ON: Time 115680, Note Name: A#3, Velocity: 67
Note OFF: Time 115800, Note Name: A#3
Note ON: Time 115800, Note Name: G#3, Velocity: 61
Note OFF: Time 115920, Note Name: G#3
Note ON: Time 115920, Note Name: F#3, Velocity: 61
Note OFF: Time 116040, Note Name: F#3
Note ON: Time 116040, Note Name: F3, Velocity: 61
Note OFF: Time 116160, Note Name: F3
Note ON: Time 116160, Note Name: A#3, Velocity: 69
Note OFF: Time 116640, Note Name: A#3
Note ON: Time 116880, Note Name: A#3, Velocity: 63
Note OFF: Time 117000, Note Name: A#3
Note ON: Time 117000, Note Name: G#3, Velocity: 61
Note OFF: Time 117120, Note Name: G#3
Note ON: Time 117120, Note Name: F#3, Velocity: 57
Note OFF: Time 117240, Note Name: F#3
Note ON: Time 117240, Note Name: F3, Velocity: 58
Note OFF: Time 117360, Note Name: F3
Note ON: Time 117360, Note Name: D#3, Velocity: 58
Note OFF: Time 117480, Note Name: D#3
Note ON: Time 117480, Note Name: C#3, Velocity: 58
Note OFF: Time 117600, Note Name: C#3
Note ON: Time 117600, Note Name: F#3, Velocity: 64
Note OFF: Time 118080, Note Name: F#3
Note ON: Time 118320, Note Name: F#3, Velocity: 61
Note OFF: Time 118440, Note Name: F#3
Note ON: Time 118440, Note Name: F3, Velocity: 56
Note OFF: Time 118560, Note Name: F3
Note ON: Time 118560, Note Name: D#3, Velocity: 61
Note OFF: Time 118680, Note Name: D#3
Note ON: Time 118680, Note Name: F3, Velocity: 57
Note OFF: Time 118800, Note Name: F3
Note ON: Time 118800, Note Name: D#3, Velocity: 57
Note OFF: Time 118920, Note Name: D#3
Note ON: Time 118920, Note Name: C#3, Velocity: 57
Note OFF: Time 119040, Note Name: C#3
Note ON: Time 119040, Note Name: C3, Velocity: 61
Note OFF: Time 119160, Note Name: C3
Note ON: Time 119160, Note Name: C#3, Velocity: 55
Note OFF: Time 119280, Note Name: C#3
Note ON: Time 119280, Note Name: C3, Velocity: 55
Note OFF: Time 119400, Note Name: C3
Note ON: Time 119400, Note Name: A#2, Velocity: 55
Note OFF: Time 119520, Note Name: A#2
Note ON: Time 119520, Note Name: G#2, Velocity: 61
Note OFF: Time 119640, Note Name: G#2
Note ON: Time 119640, Note Name: A#2, Velocity: 55
Note OFF: Time 119760, Note Name: A#2
Note ON: Time 119760, Note Name: C3, Velocity: 56
Note OFF: Time 119880, Note Name: C3
Note ON: Time 119880, Note Name: C#3, Velocity: 57
Note OFF: Time 120000, Note Name: C#3
Note ON: Time 120000, Note Name: D3, Velocity: 62
Note OFF: Time 120120, Note Name: D3
Note ON: Time 120120, Note Name: D#3, Velocity: 57
Note OFF: Time 120240, Note Name: D#3
Note ON: Time 120240, Note Name: F3, Velocity: 57
Note OFF: Time 120360, Note Name: F3
Note ON: Time 120360, Note Name: D#3, Velocity: 57
Note OFF: Time 120480, Note Name: D#3
Note ON: Time 120480, Note Name: C#3, Velocity: 57
Note OFF: Time 120600, Note Name: C#3
Note ON: Time 120600, Note Name: D#3, Velocity: 57
Note OFF: Time 120720, Note Name: D#3
Note ON: Time 120720, Note Name: F3, Velocity: 59
Note OFF: Time 120840, Note Name: F3
Note ON: Time 120840, Note Name: F#3, Velocity: 59
Note OFF: Time 120960, Note Name: F#3
Note ON: Time 120960, Note Name: G3, Velocity: 61
Note OFF: Time 121080, Note Name: G3
Note ON: Time 121080, Note Name: G#3, Velocity: 62
Note OFF: Time 121200, Note Name: G#3
Note ON: Time 121200, Note Name: A#3, Velocity: 66
Note OFF: Time 121320, Note Name: A#3
Note ON: Time 121320, Note Name: G#3, Velocity: 62
Note OFF: Time 121440, Note Name: G#3
Note ON: Time 121440, Note Name: F#3, Velocity: 61
Note OFF: Time 121560, Note Name: F#3
Note ON: Time 121560, Note Name: F3, Velocity: 62
Note OFF: Time 121680, Note Name: F3
Note ON: Time 121680, Note Name: D#3, Velocity: 60
Note OFF: Time 121800, Note Name: D#3
Note ON: Time 121800, Note Name: C#3, Velocity: 58
Note OFF: Time 121920, Note Name: C#3
Note ON: Time 121920, Note Name: G#2, Velocity: 70
Note OFF: Time 122160, Note Name: G#2
Note ON: Time 122400, Note Name: D#3, Velocity: 86
Note ON: Time 122400, Note Name: F#2, Velocity: 75
Note OFF: Time 123120, Note Name: F#2
Note OFF: Time 123120, Note Name: D#3
Note ON: Time 123120, Note Name: F#2, Velocity: 65
Note ON: Time 123120, Note Name: D#3, Velocity: 74
Note OFF: Time 123360, Note Name: D#3
Note OFF: Time 123360, Note Name: F#2
Note ON: Time 123360, Note Name: D#3, Velocity: 80
Note ON: Time 123360, Note Name: F#2, Velocity: 70
Note OFF: Time 123600, Note Name: F#2
Note OFF: Time 123600, Note Name: D#3
Note ON: Time 123600, Note Name: F2, Velocity: 65
Note ON: Time 123600, Note Name: C#3, Velocity: 74
Note OFF: Time 123840, Note Name: C#3
Note OFF: Time 123840, Note Name: F2
Note ON: Time 123840, Note Name: D#2, Velocity: 70
Note ON: Time 123840, Note Name: C3, Velocity: 80
Note OFF: Time 124080, Note Name: C3
Note OFF: Time 124080, Note Name: D#2
Note ON: Time 124080, Note Name: C#3, Velocity: 77
Note ON: Time 124080, Note Name: C#2, Velocity: 67
Note OFF: Time 124320, Note Name: C#2
Note OFF: Time 124320, Note Name: C#3
Note ON: Time 124320, Note Name: C3, Velocity: 70
Note ON: Time 124320, Note Name: D#3, Velocity: 80
Note OFF: Time 124560, Note Name: D#3
Note OFF: Time 124560, Note Name: C3
Note ON: Time 124560, Note Name: F3, Velocity: 72
Note ON: Time 124560, Note Name: C#3, Velocity: 63
Note OFF: Time 124800, Note Name: C#3
Note OFF: Time 124800, Note Name: F3
Note ON: Time 126240, Note Name: C#2, Velocity: 63
Note ON: Time 126240, Note Name: C#3, Velocity: 72
Note OFF: Time 126480, Note Name: C#3
Note OFF: Time 126480, Note Name: C#2
Note ON: Time 126720, Note Name: C2, Velocity: 70
Note ON: Time 126720, Note Name: C3, Velocity: 80
Note OFF: Time 127440, Note Name: C3
Note OFF: Time 127440, Note Name: C2
Note ON: Time 127440, Note Name: A#2, Velocity: 73
Note ON: Time 127440, Note Name: A#1, Velocity: 64
Note OFF: Time 127680, Note Name: A#1
Note OFF: Time 127680, Note Name: A#2
Note ON: Time 127680, Note Name: D#3, Velocity: 81
Note ON: Time 127680, Note Name: D#2, Velocity: 71
Note OFF: Time 128160, Note Name: D#2
Note OFF: Time 128160, Note Name: D#3
Note ON: Time 129120, Note Name: G2, Velocity: 63
Note ON: Time 129120, Note Name: G3, Velocity: 72
Note OFF: Time 129360, Note Name: G3
Note OFF: Time 129360, Note Name: G2
Note ON: Time 129600, Note Name: F2, Velocity: 70
Note ON: Time 129600, Note Name: F3, Velocity: 80
Note OFF: Time 130320, Note Name: F3
Note OFF: Time 130320, Note Name: F2
Note ON: Time 130320, Note Name: D#3, Velocity: 72
Note ON: Time 130320, Note Name: D#2, Velocity: 63
Note OFF: Time 130560, Note Name: D#2
Note OFF: Time 130560, Note Name: D#3
Note ON: Time 130560, Note Name: G#3, Velocity: 80
Note ON: Time 130560, Note Name: G#2, Velocity: 70
Note OFF: Time 131040, Note Name: G#2
Note OFF: Time 131040, Note Name: G#3
Note ON: Time 131520, Note Name: G3, Velocity: 72
Note ON: Time 131520, Note Name: G2, Velocity: 63
Note OFF: Time 131760, Note Name: G2
Note OFF: Time 131760, Note Name: G3
Note ON: Time 132000, Note Name: G2, Velocity: 69
Note ON: Time 132000, Note Name: G3, Velocity: 79
Note OFF: Time 132240, Note Name: G3
Note OFF: Time 132240, Note Name: G2
Note ON: Time 132240, Note Name: F2, Velocity: 67
Note ON: Time 132240, Note Name: F3, Velocity: 77
Note OFF: Time 132480, Note Name: F3
Note OFF: Time 132480, Note Name: F2
Note ON: Time 132960, Note Name: D#4, Velocity: 68
Note ON: Time 132960, Note Name: D#3, Velocity: 68
Note OFF: Time 133200, Note Name: D#3
Note OFF: Time 133200, Note Name: D#4
Note ON: Time 133440, Note Name: D#4, Velocity: 68
Note OFF: Time 133680, Note Name: D#4
Note ON: Time 133680, Note Name: C#4, Velocity: 60
Note OFF: Time 133910, Note Name: C#4
Note ON: Time 133920, Note Name: C#4, Velocity: 68
Note OFF: Time 134160, Note Name: C#4
Note ON: Time 134160, Note Name: C4, Velocity: 59
Note OFF: Time 134400, Note Name: C4
Note ON: Time 134640, Note Name: C3, Velocity: 66
Note OFF: Time 134760, Note Name: C3
Note ON: Time 134880, Note Name: C4, Velocity: 74
Note OFF: Time 135360, Note Name: C4
Note ON: Time 136080, Note Name: G#2, Velocity: 66
Note OFF: Time 136200, Note Name: G#2
Note ON: Time 136320, Note Name: G#3, Velocity: 74
Note OFF: Time 136800, Note Name: G#3
Note ON: Time 137520, Note Name: F2, Velocity: 59
Note OFF: Time 137640, Note Name: F2
Note ON: Time 137760, Note Name: F3, Velocity: 66
Note OFF: Time 137880, Note Name: F3
Note ON: Time 138000, Note Name: A3, Velocity: 58
Note OFF: Time 138120, Note Name: A3
Note ON: Time 138240, Note Name: A#3, Velocity: 68
Note OFF: Time 138480, Note Name: A#3
Note ON: Time 138480, Note Name: D4, Velocity: 57
Note OFF: Time 138720, Note Name: D4
Note ON: Time 138720, Note Name: D#4, Velocity: 62
Note OFF: Time 138960, Note Name: D#4
Note ON: Time 139200, Note Name: A#3, Velocity: 67
Note ON: Time 139200, Note Name: C#4, Velocity: 73
Note OFF: Time 139918, Note Name: C#4
Note OFF: Time 139918, Note Name: A#3
Note ON: Time 139920, Note Name: C#4, Velocity: 69
Note ON: Time 139920, Note Name: A#3, Velocity: 63
Note OFF: Time 140158, Note Name: A#3
Note OFF: Time 140158, Note Name: C#4
Note ON: Time 140160, Note Name: A#3, Velocity: 65
Note ON: Time 140160, Note Name: C#4, Velocity: 71
Note OFF: Time 140400, Note Name: C#4
Note OFF: Time 140400, Note Name: A#3
Note ON: Time 140400, Note Name: C4, Velocity: 68
Note ON: Time 140400, Note Name: G#3, Velocity: 62
Note OFF: Time 140640, Note Name: G#3
Note OFF: Time 140640, Note Name: C4
Note ON: Time 140640, Note Name: C#3, Velocity: 64
Note ON: Time 140640, Note Name: A#3, Velocity: 70
Note OFF: Time 140880, Note Name: A#3
Note OFF: Time 140880, Note Name: C#3
Note ON: Time 140880, Note Name: G#3, Velocity: 62
Note ON: Time 140880, Note Name: C3, Velocity: 57
Note OFF: Time 141120, Note Name: C3
Note OFF: Time 141120, Note Name: G#3
Note ON: Time 141120, Note Name: G3, Velocity: 72
Note ON: Time 141120, Note Name: A#2, Velocity: 66
Note OFF: Time 141360, Note Name: A#2
Note OFF: Time 141360, Note Name: G3
Note ON: Time 141360, Note Name: G#3, Velocity: 68
Note ON: Time 141360, Note Name: C3, Velocity: 62
Note OFF: Time 141600, Note Name: C3
Note OFF: Time 141600, Note Name: G#3
Note ON: Time 141600, Note Name: G2, Velocity: 60
Note ON: Time 141720, Note Name: G#2, Velocity: 55
Note OFF: Time 141744, Note Name: G2
Note ON: Time 141840, Note Name: G2, Velocity: 55
Note OFF: Time 141864, Note Name: G#2
Note ON: Time 141960, Note Name: F2, Velocity: 55
Note OFF: Time 141984, Note Name: G2
Note ON: Time 142080, Note Name: D#2, Velocity: 55
Note OFF: Time 142104, Note Name: F2
Note ON: Time 142200, Note Name: F2, Velocity: 54
Note OFF: Time 142224, Note Name: D#2
Note ON: Time 142320, Note Name: G2, Velocity: 56
Note OFF: Time 142344, Note Name: F2
Note ON: Time 142440, Note Name: G#2, Velocity: 57
Note OFF: Time 142464, Note Name: G2
Note OFF: Time 142560, Note Name: G#2
Note ON: Time 142560, Note Name: A2, Velocity: 59
Note OFF: Time 142680, Note Name: A2
Note ON: Time 142680, Note Name: A#2, Velocity: 61
Note ON: Time 142800, Note Name: C3, Velocity: 62
Note OFF: Time 142824, Note Name: A#2
Note ON: Time 142920, Note Name: A#2, Velocity: 60
Note OFF: Time 142944, Note Name: C3
Note ON: Time 143040, Note Name: G2, Velocity: 62
Note OFF: Time 143064, Note Name: A#2
Note ON: Time 143160, Note Name: G#2, Velocity: 57
Note OFF: Time 143184, Note Name: G2
Note ON: Time 143280, Note Name: A#2, Velocity: 61
Note OFF: Time 143304, Note Name: G#2
Note ON: Time 143400, Note Name: C3, Velocity: 62
Note OFF: Time 143424, Note Name: A#2
Note ON: Time 143520, Note Name: C#3, Velocity: 64
Note OFF: Time 143544, Note Name: C3
Note ON: Time 143640, Note Name: D#3, Velocity: 65
Note OFF: Time 143664, Note Name: C#3
Note ON: Time 143760, Note Name: F3, Velocity: 67
Note OFF: Time 143784, Note Name: D#3
Note ON: Time 143880, Note Name: D#3, Velocity: 63
Note OFF: Time 143904, Note Name: F3
Note OFF: Time 144000, Note Name: D#3
Note ON: Time 144000, Note Name: C#3, Velocity: 72
Note OFF: Time 144120, Note Name: C#3
Note ON: Time 144120, Note Name: C3, Velocity: 71
Note OFF: Time 144240, Note Name: C3
Note ON: Time 144240, Note Name: A#2, Velocity: 69
Note OFF: Time 144360, Note Name: A#2
Note ON: Time 144360, Note Name: G#2, Velocity: 63
Note OFF: Time 144480, Note Name: G#2
Note ON: Time 144480, Note Name: D#4, Velocity: 71
Note ON: Time 144480, Note Name: F#3, Velocity: 65
Note OFF: Time 144720, Note Name: F#3
Note OFF: Time 144720, Note Name: D#4
Note ON: Time 144720, Note Name: C#4, Velocity: 68
Note ON: Time 144720, Note Name: F3, Velocity: 62
Note OFF: Time 144960, Note Name: F3
Note OFF: Time 144960, Note Name: C#4
Note ON: Time 144960, Note Name: D#3, Velocity: 64
Note ON: Time 144960, Note Name: C4, Velocity: 70
Note OFF: Time 145200, Note Name: C4
Note OFF: Time 145200, Note Name: D#3
Note ON: Time 145200, Note Name: C#3, Velocity: 57
Note ON: Time 145200, Note Name: A#3, Velocity: 62
Note OFF: Time 145440, Note Name: A#3
Note OFF: Time 145440, Note Name: C#3
Note ON: Time 145440, Note Name: A3, Velocity: 72
Note ON: Time 145440, Note Name: C3, Velocity: 66
Note OFF: Time 145680, Note Name: C3
Note OFF: Time 145680, Note Name: A3
Note ON: Time 145680, Note Name: C#3, Velocity: 62
Note ON: Time 145680, Note Name: A#3, Velocity: 68
Note OFF: Time 145920, Note Name: A#3
Note OFF: Time 145920, Note Name: C#3
Note ON: Time 145920, Note Name: A2, Velocity: 62
Note ON: Time 146040, Note Name: A#2, Velocity: 57
Note OFF: Time 146064, Note Name: A2
Note ON: Time 146160, Note Name: C3, Velocity: 61
Note OFF: Time 146184, Note Name: A#2
Note ON: Time 146280, Note Name: C#3, Velocity: 62
Note OFF: Time 146304, Note Name: C3
Note ON: Time 146400, Note Name: D#3, Velocity: 64
Note OFF: Time 146424, Note Name: C#3
Note ON: Time 146520, Note Name: F3, Velocity: 65
Note OFF: Time 146544, Note Name: D#3
Note ON: Time 146640, Note Name: F#3, Velocity: 67
Note OFF: Time 146664, Note Name: F3
Note ON: Time 146760, Note Name: F3, Velocity: 63
Note OFF: Time 146784, Note Name: F#3
Note OFF: Time 146880, Note Name: F3
Note ON: Time 146880, Note Name: D#3, Velocity: 72
Note OFF: Time 147000, Note Name: D#3
Note ON: Time 147000, Note Name: C#3, Velocity: 71
Note OFF: Time 147120, Note Name: C#3
Note ON: Time 147120, Note Name: C3, Velocity: 69
Note OFF: Time 147240, Note Name: C3
Note ON: Time 147240, Note Name: A#2, Velocity: 63
Note OFF: Time 147360, Note Name: A#2
Note ON: Time 147360, Note Name: G#2, Velocity: 71
Note ON: Time 147600, Note Name: G2, Velocity: 68
Note OFF: Time 147624, Note Name: G#2
Note ON: Time 147840, Note Name: F2, Velocity: 70
Note OFF: Time 147864, Note Name: G2
Note ON: Time 148080, Note Name: D#2, Velocity: 62
Note OFF: Time 148104, Note Name: F2
Note ON: Time 148320, Note Name: D2, Velocity: 72
Note OFF: Time 148344, Note Name: D#2
Note ON: Time 148560, Note Name: D#2, Velocity: 68
Note OFF: Time 148584, Note Name: D2
Note OFF: Time 148800, Note Name: D#2
Note ON: Time 148800, Note Name: A#2, Velocity: 71
Note ON: Time 149040, Note Name: G#2, Velocity: 68
Note OFF: Time 149064, Note Name: A#2
Note ON: Time 149280, Note Name: G2, Velocity: 70
Note OFF: Time 149304, Note Name: G#2
Note ON: Time 149520, Note Name: F2, Velocity: 62
Note OFF: Time 149544, Note Name: G2
Note ON: Time 149760, Note Name: E2, Velocity: 72
Note OFF: Time 149784, Note Name: F2
Note ON: Time 150000, Note Name: F2, Velocity: 68
Note OFF: Time 150024, Note Name: E2
Note OFF: Time 150240, Note Name: F2
Note ON: Time 150240, Note Name: F3, Velocity: 62
Note ON: Time 150360, Note Name: F#3, Velocity: 57
Note OFF: Time 150384, Note Name: F3
Note ON: Time 150480, Note Name: G#3, Velocity: 61
Note OFF: Time 150504, Note Name: F#3
Note ON: Time 150600, Note Name: A#3, Velocity: 62
Note OFF: Time 150624, Note Name: G#3
Note ON: Time 150720, Note Name: B3, Velocity: 64
Note OFF: Time 150744, Note Name: A#3
Note ON: Time 150840, Note Name: C#4, Velocity: 65
Note OFF: Time 150864, Note Name: B3
Note ON: Time 150960, Note Name: D#4, Velocity: 67
Note OFF: Time 150984, Note Name: C#4
Note ON: Time 151080, Note Name: C#4, Velocity: 63
Note OFF: Time 151104, Note Name: D#4
Note ON: Time 151200, Note Name: B3, Velocity: 72
Note OFF: Time 151224, Note Name: C#4
Note ON: Time 151320, Note Name: A#3, Velocity: 71
Note OFF: Time 151344, Note Name: B3
Note ON: Time 151440, Note Name: G#3, Velocity: 69
Note OFF: Time 151464, Note Name: A#3
Note ON: Time 151560, Note Name: F#3, Velocity: 63
Note OFF: Time 151584, Note Name: G#3
Note OFF: Time 151680, Note Name: F#3
Note ON: Time 151680, Note Name: G2, Velocity: 62
Note ON: Time 151800, Note Name: G#2, Velocity: 57
Note OFF: Time 151824, Note Name: G2
Note ON: Time 151920, Note Name: A#2, Velocity: 61
Note OFF: Time 151944, Note Name: G#2
Note ON: Time 152040, Note Name: B2, Velocity: 62
Note OFF: Time 152064, Note Name: A#2
Note ON: Time 152160, Note Name: C#3, Velocity: 64
Note OFF: Time 152184, Note Name: B2
Note ON: Time 152280, Note Name: D#3, Velocity: 65
Note OFF: Time 152304, Note Name: C#3
Note ON: Time 152400, Note Name: E3, Velocity: 67
Note OFF: Time 152424, Note Name: D#3
Note ON: Time 152520, Note Name: D#3, Velocity: 63
Note OFF: Time 152544, Note Name: E3
Note ON: Time 152640, Note Name: C#3, Velocity: 72
Note OFF: Time 152664, Note Name: D#3
Note ON: Time 152760, Note Name: B2, Velocity: 71
Note OFF: Time 152784, Note Name: C#3
Note ON: Time 152880, Note Name: A#2, Velocity: 69
Note OFF: Time 152904, Note Name: B2
Note ON: Time 153000, Note Name: G#2, Velocity: 63
Note OFF: Time 153024, Note Name: A#2
Note ON: Time 153120, Note Name: F#2, Velocity: 63
Note OFF: Time 153144, Note Name: G#2
Note ON: Time 153240, Note Name: E2, Velocity: 63
Note OFF: Time 153264, Note Name: F#2
Note ON: Time 153360, Note Name: D#2, Velocity: 63
Note OFF: Time 153384, Note Name: E2
Note ON: Time 153480, Note Name: D2, Velocity: 63
Note OFF: Time 153504, Note Name: D#2
Note OFF: Time 153600, Note Name: D2
Note ON: Time 153600, Note Name: D#2, Velocity: 63
Note OFF: Time 153720, Note Name: D#2
Note ON: Time 153720, Note Name: G2, Velocity: 63
Note OFF: Time 153840, Note Name: G2
Note ON: Time 153840, Note Name: A#2, Velocity: 63
Note OFF: Time 153960, Note Name: A#2
Note ON: Time 153960, Note Name: D#3, Velocity: 63
Note OFF: Time 154080, Note Name: D#3
Note ON: Time 154080, Note Name: G2, Velocity: 60
Note ON: Time 154080, Note Name: G3, Velocity: 84
Note OFF: Time 154160, Note Name: G3
Note ON: Time 154160, Note Name: G#3, Velocity: 70
Note OFF: Time 154240, Note Name: G#3
Note ON: Time 154240, Note Name: G3, Velocity: 74
Note OFF: Time 154320, Note Name: G3
Note ON: Time 154320, Note Name: G#3, Velocity: 67
Note OFF: Time 154400, Note Name: G#3
Note ON: Time 154400, Note Name: G3, Velocity: 73
Note OFF: Time 154480, Note Name: G3
Note ON: Time 154480, Note Name: G#3, Velocity: 64
Note OFF: Time 154560, Note Name: G#3
Note ON: Time 154560, Note Name: G3, Velocity: 72
Note OFF: Time 154640, Note Name: G3
Note ON: Time 154640, Note Name: G#3, Velocity: 64
Note OFF: Time 154720, Note Name: G#3
Note ON: Time 154720, Note Name: G3, Velocity: 70
Note OFF: Time 154800, Note Name: G3
Note ON: Time 154800, Note Name: G#3, Velocity: 64
Note OFF: Time 154860, Note Name: G#3
Note ON: Time 154860, Note Name: G3, Velocity: 75
Note OFF: Time 154920, Note Name: G3
Note ON: Time 154920, Note Name: F3, Velocity: 65
Note OFF: Time 154980, Note Name: F3
Note ON: Time 154980, Note Name: G3, Velocity: 70
Note OFF: Time 155040, Note Name: G3
Note OFF: Time 155040, Note Name: G2
Note ON: Time 155040, Note Name: G#2, Velocity: 75
Note ON: Time 155040, Note Name: G#3, Velocity: 83
Note OFF: Time 156000, Note Name: G#3
Note OFF: Time 156000, Note Name: G#2
Note ON: Time 156000, Note Name: D#3, Velocity: 70
Note ON: Time 156000, Note Name: D#2, Velocity: 59
Note OFF: Time 156480, Note Name: D#2
Note OFF: Time 156480, Note Name: D#3
Note ON: Time 156480, Note Name: C#2, Velocity: 59
Note ON: Time 156480, Note Name: C#3, Velocity: 70
Note OFF: Time 156960, Note Name: C#3
Note OFF: Time 156960, Note Name: C#2
Note ON: Time 156960, Note Name: F2, Velocity: 60
Note ON: Time 156960, Note Name: F3, Velocity: 84
Note OFF: Time 157040, Note Name: F3
Note ON: Time 157040, Note Name: F#3, Velocity: 70
Note OFF: Time 157120, Note Name: F#3
Note ON: Time 157120, Note Name: F3, Velocity: 74
Note OFF: Time 157200, Note Name: F3
Note ON: Time 157200, Note Name: F#3, Velocity: 67
Note OFF: Time 157280, Note Name: F#3
Note ON: Time 157280, Note Name: F3, Velocity: 73
Note OFF: Time 157360, Note Name: F3
Note ON: Time 157360, Note Name: F#3, Velocity: 64
Note OFF: Time 157440, Note Name: F#3
Note ON: Time 157440, Note Name: F3, Velocity: 72
Note OFF: Time 157520, Note Name: F3
Note ON: Time 157520, Note Name: F#3, Velocity: 64
Note OFF: Time 157600, Note Name: F#3
Note ON: Time 157600, Note Name: F3, Velocity: 70
Note OFF: Time 157680, Note Name: F3
Note ON: Time 157680, Note Name: F#3, Velocity: 64
Note OFF: Time 157740, Note Name: F#3
Note ON: Time 157740, Note Name: F3, Velocity: 75
Note OFF: Time 157800, Note Name: F3
Note ON: Time 157800, Note Name: D#3, Velocity: 65
Note OFF: Time 157860, Note Name: D#3
Note ON: Time 157860, Note Name: F3, Velocity: 70
Note OFF: Time 157920, Note Name: F3
Note OFF: Time 157920, Note Name: F2
Note ON: Time 157920, Note Name: F#3, Velocity: 83
Note ON: Time 157920, Note Name: F#2, Velocity: 75
Note OFF: Time 158400, Note Name: F#2
Note OFF: Time 158400, Note Name: F#3
Note ON: Time 158400, Note Name: C#2, Velocity: 59
Note ON: Time 158400, Note Name: C#3, Velocity: 70
Note OFF: Time 158880, Note Name: C#3
Note OFF: Time 158880, Note Name: C#2
Note ON: Time 158880, Note Name: D#2, Velocity: 47
Note ON: Time 158880, Note Name: D#3, Velocity: 56
Note OFF: Time 159360, Note Name: D#3
Note OFF: Time 159360, Note Name: D#2
Note ON: Time 159360, Note Name: B2, Velocity: 56
Note ON: Time 159360, Note Name: B1, Velocity: 47
Note OFF: Time 160080, Note Name: B1
Note OFF: Time 160080, Note Name: B2
Note ON: Time 160080, Note Name: A#2, Velocity: 45
Note ON: Time 160080, Note Name: A#1, Velocity: 38
Note OFF: Time 160320, Note Name: A#1
Note OFF: Time 160320, Note Name: A#2
Note ON: Time 160320, Note Name: G#2, Velocity: 45
Note ON: Time 160320, Note Name: G#1, Velocity: 38
Note OFF: Time 160560, Note Name: G#1
Note OFF: Time 160560, Note Name: G#2
Note ON: Time 160560, Note Name: A#2, Velocity: 45
Note ON: Time 160560, Note Name: A#1, Velocity: 38
Note OFF: Time 160800, Note Name: A#1
Note OFF: Time 160800, Note Name: A#2
Note ON: Time 160800, Note Name: B1, Velocity: 38
Note ON: Time 160800, Note Name: B2, Velocity: 45
Note OFF: Time 161040, Note Name: B2
Note OFF: Time 161040, Note Name: B1
Note ON: Time 161040, Note Name: C#3, Velocity: 45
Note ON: Time 161040, Note Name: C#2, Velocity: 38
Note OFF: Time 161280, Note Name: C#2
Note OFF: Time 161280, Note Name: C#3
Note ON: Time 161280, Note Name: F#1, Velocity: 39
Note ON: Time 161280, Note Name: F#2, Velocity: 39
Note OFF: Time 161760, Note Name: F#2
Note OFF: Time 161760, Note Name: F#1
Note ON: Time 162360, Note Name: C#3, Velocity: 35
Note OFF: Time 162480, Note Name: C#3
Note ON: Time 162480, Note Name: D#3, Velocity: 35
Note OFF: Time 162600, Note Name: D#3
Note ON: Time 162600, Note Name: F3, Velocity: 35
Note OFF: Time 162720, Note Name: F3
Note ON: Time 162720, Note Name: F#3, Velocity: 40
Note OFF: Time 162840, Note Name: F#3
Note ON: Time 162840, Note Name: A#2, Velocity: 35
Note OFF: Time 162960, Note Name: A#2
Note ON: Time 162960, Note Name: C#3, Velocity: 35
Note OFF: Time 163080, Note Name: C#3
Note ON: Time 163080, Note Name: F#3, Velocity: 35
Note OFF: Time 163200, Note Name: F#3
Note ON: Time 163200, Note Name: A#3, Velocity: 51
Note OFF: Time 163320, Note Name: A#3
Note ON: Time 163440, Note Name: B3, Velocity: 54
Note OFF: Time 163560, Note Name: B3
Note ON: Time 163680, Note Name: C#4, Velocity: 56
Note OFF: Time 164160, Note Name: C#4
Note ON: Time 165240, Note Name: G#3, Velocity: 44
Note OFF: Time 165360, Note Name: G#3
Note ON: Time 165360, Note Name: A#3, Velocity: 46
Note OFF: Time 165480, Note Name: A#3
Note ON: Time 165480, Note Name: C4, Velocity: 48
Note OFF: Time 165600, Note Name: C4
Note ON: Time 165600, Note Name: C#4, Velocity: 50
Note OFF: Time 165720, Note Name: C#4
Note ON: Time 165720, Note Name: F3, Velocity: 43
Note OFF: Time 165840, Note Name: F3
Note ON: Time 165840, Note Name: G#3, Velocity: 45
Note OFF: Time 165960, Note Name: G#3
Note ON: Time 165960, Note Name: C#4, Velocity: 45
Note OFF: Time 166080, Note Name: C#4
Note ON: Time 166080, Note Name: F3, Velocity: 73
Note OFF: Time 166200, Note Name: F3
Note ON: Time 166320, Note Name: F#3, Velocity: 75
Note OFF: Time 166440, Note Name: F#3
Note ON: Time 166560, Note Name: G#3, Velocity: 78
Note OFF: Time 167160, Note Name: G#3
Note ON: Time 167160, Note Name: F4, Velocity: 56
Note OFF: Time 167280, Note Name: F4
Note ON: Time 167280, Note Name: D#4, Velocity: 56
Note OFF: Time 167400, Note Name: D#4
Note ON: Time 167400, Note Name: C#4, Velocity: 56
Note OFF: Time 167520, Note Name: C#4
Note ON: Time 167520, Note Name: C4, Velocity: 56
Note OFF: Time 167640, Note Name: C4
Note ON: Time 167640, Note Name: A#3, Velocity: 56
Note OFF: Time 167760, Note Name: A#3
Note ON: Time 167760, Note Name: G#3, Velocity: 56
Note OFF: Time 167880, Note Name: G#3
Note ON: Time 167880, Note Name: F#3, Velocity: 56
Note OFF: Time 168000, Note Name: F#3
Note ON: Time 168000, Note Name: F3, Velocity: 56
Note OFF: Time 168240, Note Name: F3
Note ON: Time 168240, Note Name: G#3, Velocity: 56
Note OFF: Time 168480, Note Name: G#3
Note ON: Time 168480, Note Name: F#3, Velocity: 56
Note OFF: Time 168595, Note Name: F#3
Note ON: Time 168600, Note Name: F#3, Velocity: 56
Note OFF: Time 168720, Note Name: F#3
Note ON: Time 168720, Note Name: A#3, Velocity: 56
Note OFF: Time 168840, Note Name: A#3
Note ON: Time 168840, Note Name: D#4, Velocity: 56
Note OFF: Time 168960, Note Name: D#4
Note ON: Time 169560, Note Name: D4, Velocity: 56
Note OFF: Time 169680, Note Name: D4
Note ON: Time 169680, Note Name: D#4, Velocity: 56
Note OFF: Time 169800, Note Name: D#4
Note ON: Time 169800, Note Name: F4, Velocity: 56
Note OFF: Time 169920, Note Name: F4
Note ON: Time 169920, Note Name: D#4, Velocity: 56
Note OFF: Time 170040, Note Name: D#4
Note ON: Time 170040, Note Name: F#3, Velocity: 56
Note OFF: Time 170160, Note Name: F#3
Note ON: Time 170160, Note Name: A#3, Velocity: 56
Note OFF: Time 170280, Note Name: A#3
Note ON: Time 170280, Note Name: D#3, Velocity: 56
Note OFF: Time 170400, Note Name: D#3
Note ON: Time 170400, Note Name: F#3, Velocity: 64
Note OFF: Time 170520, Note Name: F#3
Note ON: Time 170640, Note Name: G#3, Velocity: 64
Note OFF: Time 170760, Note Name: G#3
Note ON: Time 170880, Note Name: A#3, Velocity: 64
Note OFF: Time 171480, Note Name: A#3
Note ON: Time 171480, Note Name: F#3, Velocity: 56
Note OFF: Time 171600, Note Name: F#3
Note ON: Time 171600, Note Name: F3, Velocity: 56
Note OFF: Time 171720, Note Name: F3
Note ON: Time 171720, Note Name: D#3, Velocity: 56
Note OFF: Time 171840, Note Name: D#3
Note ON: Time 171840, Note Name: D3, Velocity: 56
Note OFF: Time 171960, Note Name: D3
Note ON: Time 171960, Note Name: B2, Velocity: 56
Note OFF: Time 172080, Note Name: B2
Note ON: Time 172080, Note Name: A#2, Velocity: 56
Note OFF: Time 172200, Note Name: A#2
Note ON: Time 172200, Note Name: G#2, Velocity: 56
Note OFF: Time 172320, Note Name: G#2
Note ON: Time 172320, Note Name: G2, Velocity: 64
Note OFF: Time 172440, Note Name: G2
Note ON: Time 172560, Note Name: G#2, Velocity: 64
Note OFF: Time 172680, Note Name: G#2
Note ON: Time 172800, Note Name: A#2, Velocity: 69
Note OFF: Time 172920, Note Name: A#2
Note ON: Time 173040, Note Name: B2, Velocity: 74
Note OFF: Time 173160, Note Name: B2
Note ON: Time 173280, Note Name: B3, Velocity: 77
Note OFF: Time 173880, Note Name: B3
Note ON: Time 173880, Note Name: G#3, Velocity: 56
Note OFF: Time 174000, Note Name: G#3
Note ON: Time 174000, Note Name: F#3, Velocity: 56
Note OFF: Time 174120, Note Name: F#3
Note ON: Time 174120, Note Name: F3, Velocity: 56
Note OFF: Time 174240, Note Name: F3
Note ON: Time 174240, Note Name: D#3, Velocity: 56
Note ON: Time 174240, Note Name: A#3, Velocity: 56
Note OFF: Time 174720, Note Name: D#3
Note ON: Time 174720, Note Name: D3, Velocity: 56
Note OFF: Time 175200, Note Name: D3
Note OFF: Time 175200, Note Name: A#3
Note ON: Time 175200, Note Name: C#5, Velocity: 50
Note OFF: Time 175280, Note Name: C#5
Note ON: Time 175280, Note Name: D#5, Velocity: 44
Note OFF: Time 175360, Note Name: D#5
Note ON: Time 175360, Note Name: C#5, Velocity: 50
Note OFF: Time 175440, Note Name: C#5
Note ON: Time 175440, Note Name: D#5, Velocity: 46
Note OFF: Time 175520, Note Name: D#5
Note ON: Time 175520, Note Name: C#5, Velocity: 52
Note OFF: Time 175600, Note Name: C#5
Note ON: Time 175600, Note Name: D#5, Velocity: 47
Note OFF: Time 175680, Note Name: D#5
Note ON: Time 175680, Note Name: C#5, Velocity: 53
Note OFF: Time 175760, Note Name: C#5
Note ON: Time 175760, Note Name: D#5, Velocity: 45
Note OFF: Time 175840, Note Name: D#5
Note ON: Time 175840, Note Name: C#5, Velocity: 53
Note OFF: Time 175920, Note Name: C#5
Note ON: Time 175920, Note Name: D#5, Velocity: 47
Note OFF: Time 176000, Note Name: D#5
Note ON: Time 176000, Note Name: C#5, Velocity: 54
Note OFF: Time 176080, Note Name: C#5
Note ON: Time 176080, Note Name: D#5, Velocity: 49
Note OFF: Time 176160, Note Name: D#5
Note ON: Time 176160, Note Name: C#5, Velocity: 56
Note OFF: Time 176240, Note Name: C#5
Note ON: Time 176240, Note Name: D#5, Velocity: 49
Note OFF: Time 176320, Note Name: D#5
Note ON: Time 176320, Note Name: C#5, Velocity: 56
Note OFF: Time 176400, Note Name: C#5
Note ON: Time 176400, Note Name: D#5, Velocity: 51
Note OFF: Time 176480, Note Name: D#5
Note ON: Time 176480, Note Name: C#5, Velocity: 56
Note OFF: Time 176560, Note Name: C#5
Note ON: Time 176560, Note Name: D#5, Velocity: 50
Note OFF: Time 176640, Note Name: D#5
Note ON: Time 176640, Note Name: C#5, Velocity: 56
Note OFF: Time 176720, Note Name: C#5
Note ON: Time 176720, Note Name: D#5, Velocity: 50
Note OFF: Time 176800, Note Name: D#5
Note ON: Time 176800, Note Name: C#5, Velocity: 56
Note OFF: Time 176880, Note Name: C#5
Note ON: Time 176880, Note Name: D#5, Velocity: 51
Note OFF: Time 176940, Note Name: D#5
Note ON: Time 176940, Note Name: C#5, Velocity: 56
Note OFF: Time 177000, Note Name: C#5
Note ON: Time 177000, Note Name: B4, Velocity: 48
Note OFF: Time 177060, Note Name: B4
Note ON: Time 177060, Note Name: C#5, Velocity: 48
Note OFF: Time 177120, Note Name: C#5
Note ON: Time 177120, Note Name: D#5, Velocity: 61
Note ON: Time 177600, Note Name: B2, Velocity: 87
Note OFF: Time 177720, Note Name: B2
Note OFF: Time 178080, Note Name: D#5
Note ON: Time 178080, Note Name: B3, Velocity: 96
Note OFF: Time 179040, Note Name: B3
Note ON: Time 180480, Note Name: G#2, Velocity: 87
Note OFF: Time 180600, Note Name: G#2
Note ON: Time 180960, Note Name: G#3, Velocity: 96
Note OFF: Time 181920, Note Name: G#3
Note ON: Time 183360, Note Name: F2, Velocity: 87
Note OFF: Time 183480, Note Name: F2
Note ON: Time 183840, Note Name: F3, Velocity: 96
Note OFF: Time 184800, Note Name: F3
Note ON: Time 185760, Note Name: F3, Velocity: 67
Note ON: Time 185760, Note Name: D4, Velocity: 79
Note OFF: Time 185880, Note Name: D4
Note OFF: Time 185880, Note Name: F3
Note ON: Time 186000, Note Name: D#4, Velocity: 71
Note ON: Time 186000, Note Name: F#3, Velocity: 60
Note OFF: Time 186120, Note Name: F#3
Note OFF: Time 186120, Note Name: D#4
Note ON: Time 186240, Note Name: F3, Velocity: 66
Note ON: Time 186240, Note Name: D4, Velocity: 78
Note OFF: Time 186360, Note Name: D4
Note OFF: Time 186360, Note Name: F3
Note ON: Time 186480, Note Name: D#3, Velocity: 60
Note ON: Time 186480, Note Name: C4, Velocity: 71
Note OFF: Time 186600, Note Name: C4
Note OFF: Time 186600, Note Name: D#3
Note ON: Time 186720, Note Name: D3, Velocity: 67
Note ON: Time 186720, Note Name: A#3, Velocity: 79
Note OFF: Time 186840, Note Name: A#3
Note OFF: Time 186840, Note Name: D3
Note ON: Time 186960, Note Name: D#3, Velocity: 60
Note ON: Time 186960, Note Name: C4, Velocity: 71
Note OFF: Time 187080, Note Name: C4
Note OFF: Time 187080, Note Name: D#3
Note ON: Time 187200, Note Name: F3, Velocity: 67
Note ON: Time 187200, Note Name: D4, Velocity: 79
Note OFF: Time 187320, Note Name: D4
Note OFF: Time 187320, Note Name: F3
Note ON: Time 187440, Note Name: D#4, Velocity: 71
Note ON: Time 187440, Note Name: F#3, Velocity: 60
Note OFF: Time 187560, Note Name: F#3
Note OFF: Time 187560, Note Name: D#4
Note ON: Time 187680, Note Name: G3, Velocity: 67
Note ON: Time 187680, Note Name: E4, Velocity: 79
Note OFF: Time 187800, Note Name: E4
Note OFF: Time 187800, Note Name: G3
Note ON: Time 187920, Note Name: F4, Velocity: 71
Note ON: Time 187920, Note Name: G#3, Velocity: 60
Note OFF: Time 188040, Note Name: G#3
Note OFF: Time 188040, Note Name: F4
Note ON: Time 188160, Note Name: A#3, Velocity: 65
Note ON: Time 188160, Note Name: F#4, Velocity: 77
Note OFF: Time 188280, Note Name: F#4
Note OFF: Time 188280, Note Name: A#3
Note ON: Time 188400, Note Name: G#3, Velocity: 60
Note ON: Time 188400, Note Name: F4, Velocity: 71
Note OFF: Time 188520, Note Name: F4
Note OFF: Time 188520, Note Name: G#3
Note ON: Time 188640, Note Name: F#3, Velocity: 65
Note ON: Time 188640, Note Name: D#4, Velocity: 77
Note OFF: Time 188760, Note Name: D#4
Note OFF: Time 188760, Note Name: F#3
Note ON: Time 188880, Note Name: F4, Velocity: 71
Note ON: Time 188880, Note Name: G#3, Velocity: 60
Note OFF: Time 189000, Note Name: G#3
Note OFF: Time 189000, Note Name: F4
Note ON: Time 189120, Note Name: A#3, Velocity: 66
Note ON: Time 189120, Note Name: F#4, Velocity: 78
Note OFF: Time 189240, Note Name: F#4
Note OFF: Time 189240, Note Name: A#3
Note ON: Time 189360, Note Name: B3, Velocity: 60
Note ON: Time 189360, Note Name: G#4, Velocity: 71
Note OFF: Time 189480, Note Name: G#4
Note OFF: Time 189480, Note Name: B3
Note ON: Time 189600, Note Name: A4, Velocity: 78
Note ON: Time 189600, Note Name: F4, Velocity: 66
Note OFF: Time 189720, Note Name: F4
Note OFF: Time 189720, Note Name: A4
Note ON: Time 189840, Note Name: F#4, Velocity: 60
Note ON: Time 189840, Note Name: A#4, Velocity: 71
Note OFF: Time 189960, Note Name: A#4
Note OFF: Time 189960, Note Name: F#4
Note ON: Time 190080, Note Name: B4, Velocity: 79
Note ON: Time 190080, Note Name: G#4, Velocity: 67
Note OFF: Time 190200, Note Name: G#4
Note OFF: Time 190200, Note Name: B4
Note ON: Time 190320, Note Name: F#4, Velocity: 60
Note ON: Time 190320, Note Name: A#4, Velocity: 71
Note OFF: Time 190440, Note Name: A#4
Note OFF: Time 190440, Note Name: F#4
Note ON: Time 190560, Note Name: B3, Velocity: 67
Note ON: Time 190560, Note Name: G#4, Velocity: 79
Note OFF: Time 190680, Note Name: G#4
Note OFF: Time 190680, Note Name: B3
Note ON: Time 190800, Note Name: F#4, Velocity: 71
Note ON: Time 190800, Note Name: A#3, Velocity: 60
Note OFF: Time 190920, Note Name: A#3
Note OFF: Time 190920, Note Name: F#4
Note ON: Time 191040, Note Name: A#1, Velocity: 84
Note ON: Time 191040, Note Name: A#2, Velocity: 99
Note OFF: Time 192480, Note Name: A#2
Note OFF: Time 192480, Note Name: A#1
Note ON: Time 192480, Note Name: G#2, Velocity: 99
Note ON: Time 192480, Note Name: G#1, Velocity: 84
Note OFF: Time 193920, Note Name: G#1
Note OFF: Time 193920, Note Name: G#2
Note ON: Time 193920, Note Name: G#1, Velocity: 84
Note ON: Time 193920, Note Name: G#2, Velocity: 99
Note OFF: Time 194640, Note Name: G#2
Note OFF: Time 194640, Note Name: G#1
Note ON: Time 194880, Note Name: F#2, Velocity: 99
Note ON: Time 194880, Note Name: F#1, Velocity: 84
Note OFF: Time 195000, Note Name: F#1
Note OFF: Time 195000, Note Name: F#2
Note ON: Time 195360, Note Name: F2, Velocity: 99
Note ON: Time 195360, Note Name: F1, Velocity: 84
Note OFF: Time 195480, Note Name: F1
Note OFF: Time 195480, Note Name: F2
Note ON: Time 195840, Note Name: D#2, Velocity: 99
Note ON: Time 195840, Note Name: D#1, Velocity: 84
Note OFF: Time 195960, Note Name: D#1
Note OFF: Time 195960, Note Name: D#2
Note ON: Time 196320, Note Name: D1, Velocity: 84
Note ON: Time 196320, Note Name: D2, Velocity: 99
Note OFF: Time 196440, Note Name: D2
Note OFF: Time 196440, Note Name: D1
Note ON: Time 196800, Note Name: D#1, Velocity: 84
Note ON: Time 196800, Note Name: D#2, Velocity: 99
Note OFF: Time 196920, Note Name: D#2
Note OFF: Time 196920, Note Name: D#1
Note ON: Time 197040, Note Name: A#3, Velocity: 60
Note OFF: Time 197160, Note Name: A#3
Note ON: Time 197280, Note Name: G#3, Velocity: 68
Note OFF: Time 197400, Note Name: G#3
Note ON: Time 197520, Note Name: F#3, Velocity: 60
Note OFF: Time 197640, Note Name: F#3
Note ON: Time 197760, Note Name: F3, Velocity: 68
Note OFF: Time 197880, Note Name: F3
Note ON: Time 198000, Note Name: D#3, Velocity: 60
Note OFF: Time 198120, Note Name: D#3
Note ON: Time 198240, Note Name: C#3, Velocity: 66
Note ON: Time 198240, Note Name: A#3, Velocity: 78
Note OFF: Time 198360, Note Name: A#3
Note OFF: Time 198360, Note Name: C#3
Note ON: Time 198480, Note Name: A3, Velocity: 71
Note ON: Time 198480, Note Name: C3, Velocity: 60
Note OFF: Time 198600, Note Name: C3
Note OFF: Time 198600, Note Name: A3
Note ON: Time 198720, Note Name: A#2, Velocity: 60
Note ON: Time 198720, Note Name: F#3, Velocity: 71
Note OFF: Time 198840, Note Name: F#3
Note OFF: Time 198840, Note Name: A#2
Note ON: Time 198960, Note Name: G#2, Velocity: 60
Note ON: Time 198960, Note Name: F3, Velocity: 71
Note OFF: Time 199080, Note Name: F3
Note OFF: Time 199080, Note Name: G#2
Note ON: Time 199200, Note Name: F#2, Velocity: 60
Note ON: Time 199200, Note Name: D#3, Velocity: 71
Note OFF: Time 199320, Note Name: D#3
Note OFF: Time 199320, Note Name: F#2
Note ON: Time 199440, Note Name: F2, Velocity: 60
Note ON: Time 199440, Note Name: C#3, Velocity: 71
Note OFF: Time 199560, Note Name: C#3
Note OFF: Time 199560, Note Name: F2
Note ON: Time 199680, Note Name: D#3, Velocity: 71
Note ON: Time 199680, Note Name: D#2, Velocity: 60
Note OFF: Time 201120, Note Name: D#2
Note OFF: Time 201120, Note Name: D#3
Note ON: Time 201120, Note Name: C1, Velocity: 64
Note ON: Time 201120, Note Name: C2, Velocity: 71
Note OFF: Time 201200, Note Name: C2
Note ON: Time 201200, Note Name: C#2, Velocity: 65
Note OFF: Time 201280, Note Name: C#2
Note ON: Time 201280, Note Name: C2, Velocity: 71
Note OFF: Time 201360, Note Name: C2
Note ON: Time 201360, Note Name: C#2, Velocity: 66
Note OFF: Time 201440, Note Name: C#2
Note ON: Time 201440, Note Name: C2, Velocity: 71
Note OFF: Time 201520, Note Name: C2
Note ON: Time 201520, Note Name: C#2, Velocity: 66
Note OFF: Time 201600, Note Name: C#2
Note ON: Time 201600, Note Name: C2, Velocity: 71
Note OFF: Time 201680, Note Name: C2
Note ON: Time 201680, Note Name: C#2, Velocity: 66
Note OFF: Time 201760, Note Name: C#2
Note ON: Time 201760, Note Name: C2, Velocity: 71
Note OFF: Time 201840, Note Name: C2
Note ON: Time 201840, Note Name: C#2, Velocity: 67
Note OFF: Time 201920, Note Name: C#2
Note ON: Time 201920, Note Name: C2, Velocity: 71
Note OFF: Time 202000, Note Name: C2
Note ON: Time 202000, Note Name: C#2, Velocity: 66
Note OFF: Time 202080, Note Name: C#2
Note ON: Time 202080, Note Name: C2, Velocity: 71
Note OFF: Time 202160, Note Name: C2
Note ON: Time 202160, Note Name: C#2, Velocity: 67
Note OFF: Time 202240, Note Name: C#2
Note ON: Time 202240, Note Name: C2, Velocity: 71
Note OFF: Time 202320, Note Name: C2
Note ON: Time 202320, Note Name: C#2, Velocity: 66
Note OFF: Time 202400, Note Name: C#2
Note ON: Time 202400, Note Name: C2, Velocity: 71
Note OFF: Time 202480, Note Name: C2
Note ON: Time 202480, Note Name: C#2, Velocity: 66
Note OFF: Time 202560, Note Name: C#2
Note OFF: Time 202560, Note Name: C1
Note ON: Time 202560, Note Name: C2, Velocity: 71
Note OFF: Time 202640, Note Name: C2
Note ON: Time 202640, Note Name: C#2, Velocity: 68
Note OFF: Time 202720, Note Name: C#2
Note ON: Time 202720, Note Name: C2, Velocity: 71
Note OFF: Time 202800, Note Name: C2
Note ON: Time 202800, Note Name: A#1, Velocity: 68
Note OFF: Time 202920, Note Name: A#1
Note ON: Time 202920, Note Name: C2, Velocity: 68
Note OFF: Time 203040, Note Name: C2
Note ON: Time 203040, Note Name: A#1, Velocity: 86
Note OFF: Time 204000, Note Name: A#1
Note ON: Time 204480, Note Name: A#1, Velocity: 84
Note OFF: Time 204600, Note Name: A#1
Note ON: Time 204720, Note Name: C1, Velocity: 55
Note ON: Time 204720, Note Name: C2, Velocity: 65
Note OFF: Time 204840, Note Name: C2
Note OFF: Time 204840, Note Name: C1
Note ON: Time 204960, Note Name: C#2, Velocity: 66
Note ON: Time 204960, Note Name: C#1, Velocity: 56
Note OFF: Time 205080, Note Name: C#1
Note OFF: Time 205080, Note Name: C#2
Note ON: Time 205200, Note Name: D#1, Velocity: 56
Note ON: Time 205200, Note Name: D#2, Velocity: 67
Note OFF: Time 205320, Note Name: D#2
Note OFF: Time 205320, Note Name: D#1
Note ON: Time 205440, Note Name: F2, Velocity: 68
Note ON: Time 205440, Note Name: F1, Velocity: 57
Note OFF: Time 205560, Note Name: F1
Note OFF: Time 205560, Note Name: F2
Note ON: Time 205680, Note Name: F#1, Velocity: 58
Note ON: Time 205680, Note Name: F#2, Velocity: 69
Note OFF: Time 205800, Note Name: F#2
Note OFF: Time 205800, Note Name: F#1
Note ON: Time 205920, Note Name: C#1, Velocity: 59
Note ON: Time 205920, Note Name: C#2, Velocity: 70
Note OFF: Time 206880, Note Name: C#2
Note OFF: Time 206880, Note Name: C#1
Note ON: Time 206880, Note Name: C2, Velocity: 79
Note ON: Time 206880, Note Name: C1, Velocity: 62
Note OFF: Time 207840, Note Name: C1
Note OFF: Time 207840, Note Name: C2
Note ON: Time 208320, Note Name: E3, Velocity: 71
Note ON: Time 208320, Note Name: E2, Velocity: 71
Note OFF: Time 208400, Note Name: E3
Note ON: Time 208400, Note Name: F3, Velocity: 65
Note OFF: Time 208480, Note Name: F3
Note ON: Time 208480, Note Name: E3, Velocity: 63
Note OFF: Time 208560, Note Name: E3
Note ON: Time 208560, Note Name: F3, Velocity: 59
Note OFF: Time 208640, Note Name: F3
Note ON: Time 208640, Note Name: E3, Velocity: 63
Note OFF: Time 208720, Note Name: E3
Note ON: Time 208720, Note Name: F3, Velocity: 59
Note OFF: Time 208800, Note Name: F3
Note ON: Time 208800, Note Name: E3, Velocity: 63
Note OFF: Time 208880, Note Name: E3
Note ON: Time 208880, Note Name: F3, Velocity: 59
Note OFF: Time 208960, Note Name: F3
Note ON: Time 208960, Note Name: E3, Velocity: 63
Note OFF: Time 209040, Note Name: E3
Note ON: Time 209040, Note Name: F3, Velocity: 60
Note OFF: Time 209120, Note Name: F3
Note ON: Time 209120, Note Name: E3, Velocity: 63
Note OFF: Time 209200, Note Name: E3
Note ON: Time 209200, Note Name: F3, Velocity: 59
Note OFF: Time 209280, Note Name: F3
Note ON: Time 209280, Note Name: E3, Velocity: 63
Note OFF: Time 209360, Note Name: E3
Note ON: Time 209360, Note Name: F3, Velocity: 60
Note OFF: Time 209440, Note Name: F3
Note ON: Time 209440, Note Name: E3, Velocity: 63
Note OFF: Time 209520, Note Name: E3
Note ON: Time 209520, Note Name: F3, Velocity: 59
Note OFF: Time 209600, Note Name: F3
Note ON: Time 209600, Note Name: E3, Velocity: 63
Note OFF: Time 209680, Note Name: E3
Note ON: Time 209680, Note Name: F3, Velocity: 59
Note OFF: Time 209760, Note Name: F3
Note OFF: Time 209760, Note Name: E2
Note ON: Time 209760, Note Name: G3, Velocity: 71
Note OFF: Time 209840, Note Name: G3
Note ON: Time 209840, Note Name: G#3, Velocity: 66
Note OFF: Time 209920, Note Name: G#3
Note ON: Time 209920, Note Name: G3, Velocity: 63
Note OFF: Time 210000, Note Name: G3
Note ON: Time 210000, Note Name: G#3, Velocity: 60
Note OFF: Time 210080, Note Name: G#3
Note ON: Time 210080, Note Name: G3, Velocity: 63
Note OFF: Time 210160, Note Name: G3
Note ON: Time 210160, Note Name: G#3, Velocity: 59
Note OFF: Time 210240, Note Name: G#3
Note ON: Time 210240, Note Name: G3, Velocity: 63
Note OFF: Time 210320, Note Name: G3
Note ON: Time 210320, Note Name: G#3, Velocity: 60
Note OFF: Time 210400, Note Name: G#3
Note ON: Time 210400, Note Name: G3, Velocity: 63
Note OFF: Time 210480, Note Name: G3
Note ON: Time 210480, Note Name: G#3, Velocity: 59
Note OFF: Time 210560, Note Name: G#3
Note ON: Time 210560, Note Name: G3, Velocity: 63
Note OFF: Time 210640, Note Name: G3
Note ON: Time 210640, Note Name: G#3, Velocity: 59
Note OFF: Time 210720, Note Name: G#3
Note ON: Time 210720, Note Name: G3, Velocity: 63
Note OFF: Time 210800, Note Name: G3
Note ON: Time 210800, Note Name: G#3, Velocity: 60
Note OFF: Time 210880, Note Name: G#3
Note ON: Time 210880, Note Name: G3, Velocity: 63
Note OFF: Time 210960, Note Name: G3
Note ON: Time 210960, Note Name: G#3, Velocity: 59
Note OFF: Time 211040, Note Name: G#3
Note ON: Time 211040, Note Name: G3, Velocity: 63
Note OFF: Time 211120, Note Name: G3
Note ON: Time 211120, Note Name: G#3, Velocity: 59
Note OFF: Time 211200, Note Name: G#3
Note ON: Time 211200, Note Name: F1, Velocity: 89
Note OFF: Time 212160, Note Name: F1
Note ON: Time 212640, Note Name: A2, Velocity: 60
Note OFF: Time 212720, Note Name: A2
Note ON: Time 212720, Note Name: A#2, Velocity: 56
Note OFF: Time 212800, Note Name: A#2
Note ON: Time 212800, Note Name: A2, Velocity: 60
Note OFF: Time 212880, Note Name: A2
Note ON: Time 212880, Note Name: A#2, Velocity: 56
Note OFF: Time 212960, Note Name: A#2
Note ON: Time 212960, Note Name: A2, Velocity: 60
Note OFF: Time 213040, Note Name: A2
Note ON: Time 213040, Note Name: A#2, Velocity: 56
Note OFF: Time 213120, Note Name: A#2
Note ON: Time 213120, Note Name: A2, Velocity: 60
Note OFF: Time 213200, Note Name: A2
Note ON: Time 213200, Note Name: A#2, Velocity: 56
Note OFF: Time 213280, Note Name: A#2
Note ON: Time 213280, Note Name: A2, Velocity: 60
Note OFF: Time 213360, Note Name: A2
Note ON: Time 213360, Note Name: A#2, Velocity: 56
Note OFF: Time 213440, Note Name: A#2
Note ON: Time 213440, Note Name: A2, Velocity: 60
Note OFF: Time 213520, Note Name: A2
Note ON: Time 213520, Note Name: A#2, Velocity: 56
Note OFF: Time 213600, Note Name: A#2
Note ON: Time 213600, Note Name: A2, Velocity: 60
Note OFF: Time 213680, Note Name: A2
Note ON: Time 213680, Note Name: A#2, Velocity: 56
Note OFF: Time 213760, Note Name: A#2
Note ON: Time 213760, Note Name: A2, Velocity: 60
Note OFF: Time 213840, Note Name: A2
Note ON: Time 213840, Note Name: A#2, Velocity: 56
Note OFF: Time 213920, Note Name: A#2
Note ON: Time 213920, Note Name: A2, Velocity: 60
Note OFF: Time 214000, Note Name: A2
Note ON: Time 214000, Note Name: A#2, Velocity: 56
Note OFF: Time 214080, Note Name: A#2
Note ON: Time 215520, Note Name: A#1, Velocity: 71
Note OFF: Time 216960, Note Name: A#1
Note ON: Time 216960, Note Name: C#3, Velocity: 51
Note OFF: Time 217040, Note Name: C#3
Note ON: Time 217040, Note Name: D#3, Velocity: 47
Note OFF: Time 217120, Note Name: D#3
Note ON: Time 217120, Note Name: C#3, Velocity: 51
Note OFF: Time 217200, Note Name: C#3
Note ON: Time 217200, Note Name: D#3, Velocity: 47
Note OFF: Time 217280, Note Name: D#3
Note ON: Time 217280, Note Name: C#3, Velocity: 51
Note OFF: Time 217360, Note Name: C#3
Note ON: Time 217360, Note Name: D#3, Velocity: 47
Note OFF: Time 217440, Note Name: D#3
Note ON: Time 217440, Note Name: C#3, Velocity: 51
Note OFF: Time 217520, Note Name: C#3
Note ON: Time 217520, Note Name: D#3, Velocity: 47
Note OFF: Time 217600, Note Name: D#3
Note ON: Time 217600, Note Name: C#3, Velocity: 51
Note OFF: Time 217680, Note Name: C#3
Note ON: Time 217680, Note Name: D#3, Velocity: 47
Note OFF: Time 217760, Note Name: D#3
Note ON: Time 217760, Note Name: C#3, Velocity: 51
Note OFF: Time 217840, Note Name: C#3
Note ON: Time 217840, Note Name: D#3, Velocity: 47
Note OFF: Time 217920, Note Name: D#3
Note ON: Time 217920, Note Name: C#3, Velocity: 51
Note OFF: Time 218000, Note Name: C#3
Note ON: Time 218000, Note Name: D#3, Velocity: 47
Note OFF: Time 218080, Note Name: D#3
Note ON: Time 218080, Note Name: C#3, Velocity: 51
Note OFF: Time 218160, Note Name: C#3
Note ON: Time 218160, Note Name: D#3, Velocity: 51
Note OFF: Time 218220, Note Name: D#3
Note ON: Time 218220, Note Name: C#3, Velocity: 45
Note OFF: Time 218280, Note Name: C#3
Note ON: Time 218280, Note Name: C3, Velocity: 45
Note OFF: Time 218340, Note Name: C3
Note ON: Time 218340, Note Name: C#3, Velocity: 45
Note OFF: Time 218400, Note Name: C#3
Note ON: Time 218400, Note Name: D#3, Velocity: 50
Note OFF: Time 219840, Note Name: D#3
Note ON: Time 219840, Note Name: G#3, Velocity: 66
Note OFF: Time 220560, Note Name: G#3
Note ON: Time 220560, Note Name: G3, Velocity: 60
Note OFF: Time 220800, Note Name: G3
Note ON: Time 220800, Note Name: F3, Velocity: 66
Note OFF: Time 221040, Note Name: F3
Note ON: Time 221040, Note Name: D#3, Velocity: 53
Note OFF: Time 221280, Note Name: D#3
Note ON: Time 221280, Note Name: D3, Velocity: 66
Note OFF: Time 221520, Note Name: D3
Note ON: Time 221520, Note Name: D#3, Velocity: 55
Note OFF: Time 221760, Note Name: D#3
Note ON: Time 221760, Note Name: D#3, Velocity: 66
Note ON: Time 222720, Note Name: C4, Velocity: 55
Note OFF: Time 222960, Note Name: C4
Note ON: Time 222960, Note Name: C#4, Velocity: 59
Note OFF: Time 223200, Note Name: C#4
Note OFF: Time 223200, Note Name: D#3
Note ON: Time 223200, Note Name: D#3, Velocity: 57
Note ON: Time 223200, Note Name: B3, Velocity: 59
Note OFF: Time 223440, Note Name: B3
Note ON: Time 223440, Note Name: C4, Velocity: 53
Note OFF: Time 223680, Note Name: C4
Note ON: Time 223680, Note Name: A#3, Velocity: 59
Note OFF: Time 223920, Note Name: A#3
Note ON: Time 223920, Note Name: G#3, Velocity: 53
Note OFF: Time 224160, Note Name: G#3
Note OFF: Time 224160, Note Name: D#3
Note ON: Time 224160, Note Name: D#3, Velocity: 45
Note OFF: Time 224240, Note Name: D#3
Note ON: Time 224240, Note Name: F3, Velocity: 42
Note OFF: Time 224320, Note Name: F3
Note ON: Time 224320, Note Name: D#3, Velocity: 45
Note OFF: Time 224400, Note Name: D#3
Note ON: Time 224400, Note Name: F3, Velocity: 42
Note OFF: Time 224480, Note Name: F3
Note ON: Time 224480, Note Name: D#3, Velocity: 45
Note OFF: Time 224560, Note Name: D#3
Note ON: Time 224560, Note Name: F3, Velocity: 42
Note OFF: Time 224640, Note Name: F3
Note ON: Time 224640, Note Name: D#3, Velocity: 45
Note OFF: Time 224720, Note Name: D#3
Note ON: Time 224720, Note Name: F3, Velocity: 42
Note OFF: Time 224800, Note Name: F3
Note ON: Time 224800, Note Name: D#3, Velocity: 45
Note OFF: Time 224880, Note Name: D#3
Note ON: Time 224880, Note Name: F3, Velocity: 42
Note OFF: Time 224960, Note Name: F3
Note ON: Time 224960, Note Name: D#3, Velocity: 45
Note OFF: Time 225040, Note Name: D#3
Note ON: Time 225040, Note Name: F3, Velocity: 42
Note OFF: Time 225120, Note Name: F3
Note ON: Time 225120, Note Name: D#3, Velocity: 45
Note OFF: Time 225200, Note Name: D#3
Note ON: Time 225200, Note Name: F3, Velocity: 42
Note OFF: Time 225280, Note Name: F3
Note ON: Time 225280, Note Name: D#3, Velocity: 45
Note OFF: Time 225360, Note Name: D#3
Note ON: Time 225360, Note Name: F3, Velocity: 45
Note OFF: Time 225480, Note Name: F3
Note ON: Time 225480, Note Name: D#3, Velocity: 40
Note OFF: Time 225600, Note Name: D#3
Note ON: Time 225600, Note Name: F3, Velocity: 52
Note OFF: Time 225840, Note Name: F3
Note ON: Time 225840, Note Name: G3, Velocity: 47
Note OFF: Time 226080, Note Name: G3
Note ON: Time 226080, Note Name: G#3, Velocity: 40
Note OFF: Time 226200, Note Name: G#3
Note ON: Time 226200, Note Name: C3, Velocity: 40
Note OFF: Time 226320, Note Name: C3
Note ON: Time 226320, Note Name: D#3, Velocity: 40
Note OFF: Time 226440, Note Name: D#3
Note ON: Time 226440, Note Name: G#3, Velocity: 40
Note OFF: Time 226560, Note Name: G#3
Note ON: Time 226560, Note Name: C4, Velocity: 52
Note OFF: Time 226680, Note Name: C4
Note ON: Time 226800, Note Name: C#4, Velocity: 54
Note OFF: Time 226920, Note Name: C#4
Note ON: Time 227040, Note Name: D#4, Velocity: 61
Note OFF: Time 227520, Note Name: D#4
Note ON: Time 228600, Note Name: A#3, Velocity: 40
Note OFF: Time 228720, Note Name: A#3
Note ON: Time 228720, Note Name: C4, Velocity: 43
Note OFF: Time 228840, Note Name: C4
Note ON: Time 228840, Note Name: C#4, Velocity: 45
Note OFF: Time 228960, Note Name: C#4
Note ON: Time 228960, Note Name: C4, Velocity: 49
Note OFF: Time 229440, Note Name: C4
Note ON: Time 229560, Note Name: G#3, Velocity: 40
Note ON: Time 229680, Note Name: G3, Velocity: 44
Note OFF: Time 229704, Note Name: G#3
Note ON: Time 229800, Note Name: F3, Velocity: 40
Note OFF: Time 229824, Note Name: G3
Note ON: Time 229920, Note Name: D#3, Velocity: 49
Note OFF: Time 229944, Note Name: F3
Note ON: Time 230040, Note Name: G3, Velocity: 42
Note OFF: Time 230160, Note Name: G3
Note ON: Time 230160, Note Name: G#3, Velocity: 44
Note OFF: Time 230280, Note Name: G#3
Note ON: Time 230280, Note Name: A#3, Velocity: 47
Note OFF: Time 230400, Note Name: A#3
Note OFF: Time 230400, Note Name: D#3
Note ON: Time 231000, Note Name: F3, Velocity: 44
Note OFF: Time 231120, Note Name: F3
Note ON: Time 231120, Note Name: D#3, Velocity: 52
Note OFF: Time 231240, Note Name: D#3
Note ON: Time 231240, Note Name: C#3, Velocity: 46
Note OFF: Time 231360, Note Name: C#3
Note ON: Time 231360, Note Name: C3, Velocity: 53
Note OFF: Time 231600, Note Name: C3
Note ON: Time 231600, Note Name: D3, Velocity: 55
Note OFF: Time 231720, Note Name: D3
Note ON: Time 231720, Note Name: E3, Velocity: 58
Note OFF: Time 231840, Note Name: E3
Note ON: Time 231840, Note Name: F3, Velocity: 61
Note OFF: Time 232320, Note Name: F3
Note ON: Time 232920, Note Name: E3, Velocity: 55
Note OFF: Time 233040, Note Name: E3
Note ON: Time 233040, Note Name: F3, Velocity: 56
Note OFF: Time 233160, Note Name: F3
Note ON: Time 233160, Note Name: G3, Velocity: 58
Note OFF: Time 233280, Note Name: G3
Note ON: Time 233280, Note Name: G#3, Velocity: 64
Note OFF: Time 233400, Note Name: G#3
Note ON: Time 233520, Note Name: A#3, Velocity: 68
Note OFF: Time 233640, Note Name: A#3
Note ON: Time 233760, Note Name: C4, Velocity: 73
Note OFF: Time 234360, Note Name: C4
Note ON: Time 234360, Note Name: G#3, Velocity: 59
Note OFF: Time 234480, Note Name: G#3
Note ON: Time 234480, Note Name: G3, Velocity: 59
Note OFF: Time 234600, Note Name: G3
Note ON: Time 234600, Note Name: F3, Velocity: 59
Note OFF: Time 234720, Note Name: F3
Note ON: Time 234720, Note Name: C4, Velocity: 64
Note OFF: Time 234840, Note Name: C4
Note ON: Time 234840, Note Name: F4, Velocity: 69
Note ON: Time 234960, Note Name: E4, Velocity: 67
Note OFF: Time 234984, Note Name: F4
Note ON: Time 235080, Note Name: D4, Velocity: 65
Note OFF: Time 235104, Note Name: E4
Note ON: Time 235200, Note Name: C4, Velocity: 62
Note OFF: Time 235224, Note Name: D4
Note OFF: Time 235320, Note Name: C4
Note ON: Time 235320, Note Name: A#3, Velocity: 60
Note OFF: Time 235440, Note Name: A#3
Note ON: Time 235440, Note Name: G#3, Velocity: 57
Note OFF: Time 235560, Note Name: G#3
Note ON: Time 235560, Note Name: G3, Velocity: 55
Note OFF: Time 235680, Note Name: G3
Note ON: Time 235680, Note Name: F3, Velocity: 68
Note OFF: Time 235920, Note Name: F3
Note ON: Time 236160, Note Name: C4, Velocity: 64
Note OFF: Time 236280, Note Name: C4
Note ON: Time 236280, Note Name: D#4, Velocity: 69
Note ON: Time 236400, Note Name: C#4, Velocity: 67
Note OFF: Time 236424, Note Name: D#4
Note ON: Time 236520, Note Name: C4, Velocity: 65
Note OFF: Time 236544, Note Name: C#4
Note ON: Time 236640, Note Name: A#3, Velocity: 62
Note OFF: Time 236664, Note Name: C4
Note OFF: Time 236760, Note Name: A#3
Note ON: Time 236760, Note Name: A3, Velocity: 60
Note OFF: Time 236880, Note Name: A3
Note ON: Time 236880, Note Name: G3, Velocity: 57
Note OFF: Time 237000, Note Name: G3
Note ON: Time 237000, Note Name: F3, Velocity: 55
Note OFF: Time 237120, Note Name: F3
Note ON: Time 237120, Note Name: D#3, Velocity: 68
Note OFF: Time 237600, Note Name: D#3
Note ON: Time 237600, Note Name: C#3, Velocity: 64
Note OFF: Time 237720, Note Name: C#3
Note ON: Time 237720, Note Name: C#4, Velocity: 69
Note ON: Time 237840, Note Name: C4, Velocity: 67
Note OFF: Time 237864, Note Name: C#4
Note ON: Time 237960, Note Name: A#3, Velocity: 65
Note OFF: Time 237984, Note Name: C4
Note ON: Time 238080, Note Name: A3, Velocity: 62
Note OFF: Time 238104, Note Name: A#3
Note OFF: Time 238200, Note Name: A3
Note ON: Time 238200, Note Name: G3, Velocity: 60
Note OFF: Time 238320, Note Name: G3
Note ON: Time 238320, Note Name: F3, Velocity: 57
Note OFF: Time 238440, Note Name: F3
Note ON: Time 238440, Note Name: D#3, Velocity: 55
Note OFF: Time 238560, Note Name: D#3
Note ON: Time 238560, Note Name: C#3, Velocity: 68
Note OFF: Time 239040, Note Name: C#3
Note ON: Time 239040, Note Name: C3, Velocity: 64
Note OFF: Time 239160, Note Name: C3
Note ON: Time 239160, Note Name: C4, Velocity: 69
Note ON: Time 239280, Note Name: A#3, Velocity: 67
Note OFF: Time 239304, Note Name: C4
Note ON: Time 239400, Note Name: A3, Velocity: 65
Note OFF: Time 239424, Note Name: A#3
Note ON: Time 239520, Note Name: F#3, Velocity: 62
Note OFF: Time 239544, Note Name: A3
Note OFF: Time 239640, Note Name: F#3
Note ON: Time 239640, Note Name: F3, Velocity: 60
Note OFF: Time 239760, Note Name: F3
Note ON: Time 239760, Note Name: D#3, Velocity: 57
Note OFF: Time 239880, Note Name: D#3
Note ON: Time 239880, Note Name: C#3, Velocity: 55
Note OFF: Time 240000, Note Name: C#3
Note ON: Time 240000, Note Name: C3, Velocity: 68
Note OFF: Time 240480, Note Name: C3
Note ON: Time 240480, Note Name: D3, Velocity: 68
Note ON: Time 240480, Note Name: D2, Velocity: 57
Note OFF: Time 240600, Note Name: D2
Note OFF: Time 240600, Note Name: D3
Note ON: Time 240720, Note Name: D#3, Velocity: 71
Note ON: Time 240720, Note Name: D#2, Velocity: 60
Note OFF: Time 240840, Note Name: D#2
Note OFF: Time 240840, Note Name: D#3
Note ON: Time 240960, Note Name: F2, Velocity: 64
Note ON: Time 240960, Note Name: F3, Velocity: 76
Note OFF: Time 241560, Note Name: F3
Note OFF: Time 241560, Note Name: F2
Note ON: Time 241560, Note Name: D3, Velocity: 63
Note OFF: Time 241680, Note Name: D3
Note ON: Time 241680, Note Name: C3, Velocity: 63
Note OFF: Time 241800, Note Name: C3
Note ON: Time 241800, Note Name: A#2, Velocity: 63
Note OFF: Time 241920, Note Name: A#2
Note ON: Time 241920, Note Name: D#2, Velocity: 57
Note ON: Time 241920, Note Name: D#3, Velocity: 68
Note OFF: Time 242040, Note Name: D#3
Note OFF: Time 242040, Note Name: D#2
Note ON: Time 242160, Note Name: F2, Velocity: 57
Note ON: Time 242160, Note Name: F3, Velocity: 68
Note OFF: Time 242280, Note Name: F3
Note OFF: Time 242280, Note Name: F2
Note ON: Time 242400, Note Name: G2, Velocity: 59
Note ON: Time 242400, Note Name: G3, Velocity: 70
Note OFF: Time 243000, Note Name: G3
Note OFF: Time 243000, Note Name: G2
Note ON: Time 243000, Note Name: D#3, Velocity: 64
Note OFF: Time 243120, Note Name: D#3
Note ON: Time 243120, Note Name: B2, Velocity: 64
Note OFF: Time 243240, Note Name: B2
Note ON: Time 243240, Note Name: A#2, Velocity: 64
Note OFF: Time 243360, Note Name: A#2
Note ON: Time 243360, Note Name: G2, Velocity: 57
Note ON: Time 243360, Note Name: G3, Velocity: 68
Note OFF: Time 243480, Note Name: G3
Note OFF: Time 243480, Note Name: G2
Note ON: Time 243600, Note Name: G#2, Velocity: 60
Note ON: Time 243600, Note Name: G#3, Velocity: 71
Note OFF: Time 243720, Note Name: G#3
Note OFF: Time 243720, Note Name: G#2
Note ON: Time 243840, Note Name: A#2, Velocity: 61
Note ON: Time 243840, Note Name: A#3, Velocity: 72
Note OFF: Time 244440, Note Name: A#3
Note OFF: Time 244440, Note Name: A#2
Note ON: Time 244440, Note Name: G3, Velocity: 64
Note OFF: Time 244560, Note Name: G3
Note ON: Time 244560, Note Name: F3, Velocity: 64
Note OFF: Time 244680, Note Name: F3
Note ON: Time 244680, Note Name: D#3, Velocity: 64
Note OFF: Time 244800, Note Name: D#3
Note ON: Time 244800, Note Name: G#2, Velocity: 61
Note ON: Time 244800, Note Name: G#3, Velocity: 72
Note OFF: Time 244920, Note Name: G#3
Note OFF: Time 244920, Note Name: G#2
Note ON: Time 245040, Note Name: A#2, Velocity: 61
Note ON: Time 245040, Note Name: A#3, Velocity: 72
Note OFF: Time 245160, Note Name: A#3
Note OFF: Time 245160, Note Name: A#2
Note ON: Time 245280, Note Name: C3, Velocity: 63
Note ON: Time 245280, Note Name: C4, Velocity: 75
Note OFF: Time 245880, Note Name: C4
Note OFF: Time 245880, Note Name: C3
Note ON: Time 245880, Note Name: G#3, Velocity: 60
Note ON: Time 246000, Note Name: D#3, Velocity: 59
Note OFF: Time 246024, Note Name: G#3
Note ON: Time 246120, Note Name: C3, Velocity: 59
Note OFF: Time 246144, Note Name: D#3
Note OFF: Time 246240, Note Name: C3
Note ON: Time 246240, Note Name: G#3, Velocity: 69
Note OFF: Time 246360, Note Name: G#3
Note ON: Time 246360, Note Name: D#3, Velocity: 60
Note OFF: Time 246480, Note Name: D#3
Note ON: Time 246480, Note Name: C3, Velocity: 60
Note OFF: Time 246600, Note Name: C3
Note ON: Time 246600, Note Name: G#2, Velocity: 60
Note OFF: Time 246720, Note Name: G#2
Note ON: Time 246720, Note Name: D#3, Velocity: 63
Note OFF: Time 246840, Note Name: D#3
Note ON: Time 246840, Note Name: C3, Velocity: 58
Note OFF: Time 246960, Note Name: C3
Note ON: Time 246960, Note Name: G#2, Velocity: 58
Note OFF: Time 247080, Note Name: G#2
Note ON: Time 247080, Note Name: D#2, Velocity: 58
Note OFF: Time 247200, Note Name: D#2
Note ON: Time 247200, Note Name: F#2, Velocity: 63
Note OFF: Time 247320, Note Name: F#2
Note ON: Time 247320, Note Name: D#3, Velocity: 58
Note OFF: Time 247440, Note Name: D#3
Note ON: Time 247440, Note Name: C3, Velocity: 58
Note OFF: Time 247560, Note Name: C3
Note ON: Time 247560, Note Name: F#2, Velocity: 58
Note OFF: Time 247680, Note Name: F#2
Note ON: Time 247680, Note Name: F3, Velocity: 72
Note ON: Time 247680, Note Name: F2, Velocity: 61
Note OFF: Time 247800, Note Name: F2
Note OFF: Time 247800, Note Name: F3
Note ON: Time 247920, Note Name: F#2, Velocity: 61
Note ON: Time 247920, Note Name: F#3, Velocity: 72
Note OFF: Time 248040, Note Name: F#3
Note OFF: Time 248040, Note Name: F#2
Note ON: Time 248160, Note Name: G#2, Velocity: 63
Note ON: Time 248160, Note Name: G#3, Velocity: 75
Note OFF: Time 248760, Note Name: G#3
Note OFF: Time 248760, Note Name: G#2
Note ON: Time 248760, Note Name: F3, Velocity: 60
Note ON: Time 248880, Note Name: C#3, Velocity: 59
Note OFF: Time 248904, Note Name: F3
Note ON: Time 249000, Note Name: G#2, Velocity: 59
Note OFF: Time 249024, Note Name: C#3
Note OFF: Time 249120, Note Name: G#2
Note ON: Time 249120, Note Name: F3, Velocity: 69
Note OFF: Time 249240, Note Name: F3
Note ON: Time 249240, Note Name: C3, Velocity: 60
Note OFF: Time 249360, Note Name: C3
Note ON: Time 249360, Note Name: G#2, Velocity: 60
Note OFF: Time 249480, Note Name: G#2
Note ON: Time 249480, Note Name: F2, Velocity: 60
Note OFF: Time 249600, Note Name: F2
Note ON: Time 249600, Note Name: C#3, Velocity: 63
Note OFF: Time 249720, Note Name: C#3
Note ON: Time 249720, Note Name: G#2, Velocity: 58
Note OFF: Time 249840, Note Name: G#2
Note ON: Time 249840, Note Name: F2, Velocity: 58
Note OFF: Time 249960, Note Name: F2
Note ON: Time 249960, Note Name: C#2, Velocity: 58
Note OFF: Time 250080, Note Name: C#2
Note ON: Time 250080, Note Name: G#2, Velocity: 63
Note OFF: Time 250200, Note Name: G#2
Note ON: Time 250200, Note Name: F2, Velocity: 58
Note OFF: Time 250320, Note Name: F2
Note ON: Time 250320, Note Name: D#2, Velocity: 58
Note OFF: Time 250440, Note Name: D#2
Note ON: Time 250440, Note Name: C#2, Velocity: 58
Note OFF: Time 250560, Note Name: C#2
Note ON: Time 250560, Note Name: A#3, Velocity: 72
Note ON: Time 250560, Note Name: A#2, Velocity: 61
Note OFF: Time 250680, Note Name: A#2
Note OFF: Time 250680, Note Name: A#3
Note ON: Time 250800, Note Name: B3, Velocity: 72
Note ON: Time 250800, Note Name: B2, Velocity: 61
Note OFF: Time 250920, Note Name: B2
Note OFF: Time 250920, Note Name: B3
Note ON: Time 251040, Note Name: C#4, Velocity: 75
Note ON: Time 251040, Note Name: C#3, Velocity: 63
Note OFF: Time 251640, Note Name: C#3
Note OFF: Time 251640, Note Name: C#4
Note ON: Time 251640, Note Name: A#3, Velocity: 60
Note ON: Time 251760, Note Name: F#3, Velocity: 59
Note OFF: Time 251784, Note Name: A#3
Note ON: Time 251880, Note Name: C#3, Velocity: 59
Note OFF: Time 251904, Note Name: F#3
Note OFF: Time 252000, Note Name: C#3
Note ON: Time 252000, Note Name: A#3, Velocity: 69
Note OFF: Time 252120, Note Name: A#3
Note ON: Time 252120, Note Name: F#3, Velocity: 60
Note OFF: Time 252240, Note Name: F#3
Note ON: Time 252240, Note Name: C#3, Velocity: 60
Note OFF: Time 252360, Note Name: C#3
Note ON: Time 252360, Note Name: A#2, Velocity: 60
Note OFF: Time 252480, Note Name: A#2
Note ON: Time 252480, Note Name: F#3, Velocity: 63
Note OFF: Time 252600, Note Name: F#3
Note ON: Time 252600, Note Name: C#3, Velocity: 58
Note OFF: Time 252720, Note Name: C#3
Note ON: Time 252720, Note Name: A#2, Velocity: 58
Note OFF: Time 252840, Note Name: A#2
Note ON: Time 252840, Note Name: F#2, Velocity: 58
Note OFF: Time 252960, Note Name: F#2
Note ON: Time 252960, Note Name: C#3, Velocity: 63
Note OFF: Time 253080, Note Name: C#3
Note ON: Time 253080, Note Name: A#2, Velocity: 58
Note OFF: Time 253200, Note Name: A#2
Note ON: Time 253200, Note Name: G#2, Velocity: 58
Note OFF: Time 253320, Note Name: G#2
Note ON: Time 253320, Note Name: F#2, Velocity: 58
Note OFF: Time 253440, Note Name: F#2
Note ON: Time 253440, Note Name: D3, Velocity: 72
Note ON: Time 253440, Note Name: D2, Velocity: 61
Note OFF: Time 253560, Note Name: D2
Note OFF: Time 253560, Note Name: D3
Note ON: Time 253680, Note Name: E3, Velocity: 72
Note ON: Time 253680, Note Name: E2, Velocity: 61
Note OFF: Time 253800, Note Name: E2
Note OFF: Time 253800, Note Name: E3
Note ON: Time 253920, Note Name: F#3, Velocity: 75
Note ON: Time 253920, Note Name: F#2, Velocity: 63
Note OFF: Time 254520, Note Name: F#2
Note OFF: Time 254520, Note Name: F#3
Note ON: Time 254520, Note Name: D3, Velocity: 60
Note ON: Time 254640, Note Name: B2, Velocity: 59
Note OFF: Time 254664, Note Name: D3
Note ON: Time 254760, Note Name: F#2, Velocity: 59
Note OFF: Time 254784, Note Name: B2
Note OFF: Time 254880, Note Name: F#2
Note ON: Time 254880, Note Name: D3, Velocity: 69
Note OFF: Time 255000, Note Name: D3
Note ON: Time 255000, Note Name: B2, Velocity: 60
Note OFF: Time 255120, Note Name: B2
Note ON: Time 255120, Note Name: F#2, Velocity: 60
Note OFF: Time 255240, Note Name: F#2
Note ON: Time 255240, Note Name: D2, Velocity: 60
Note OFF: Time 255360, Note Name: D2
Note ON: Time 255360, Note Name: B2, Velocity: 63
Note OFF: Time 255480, Note Name: B2
Note ON: Time 255480, Note Name: F#2, Velocity: 58
Note OFF: Time 255600, Note Name: F#2
Note ON: Time 255600, Note Name: D2, Velocity: 58
Note OFF: Time 255720, Note Name: D2
Note ON: Time 255720, Note Name: B1, Velocity: 58
Note OFF: Time 255840, Note Name: B1
Note ON: Time 255840, Note Name: F#2, Velocity: 65
Note OFF: Time 255960, Note Name: F#2
Note ON: Time 255960, Note Name: D2, Velocity: 58
Note OFF: Time 256080, Note Name: D2
Note ON: Time 256080, Note Name: C#2, Velocity: 63
Note OFF: Time 256200, Note Name: C#2
Note ON: Time 256200, Note Name: B1, Velocity: 66
Note OFF: Time 256320, Note Name: B1
Note ON: Time 256320, Note Name: D5, Velocity: 65
Note ON: Time 256320, Note Name: F#1, Velocity: 74
Note OFF: Time 256560, Note Name: F#1
Note OFF: Time 256560, Note Name: D5
Note ON: Time 256560, Note Name: C#5, Velocity: 65
Note ON: Time 256680, Note Name: B4, Velocity: 65
Note OFF: Time 256704, Note Name: C#5
Note OFF: Time 256800, Note Name: B4
Note ON: Time 256800, Note Name: D5, Velocity: 65
Note ON: Time 256920, Note Name: B4, Velocity: 60
Note OFF: Time 256944, Note Name: D5
Note ON: Time 257040, Note Name: G4, Velocity: 61
Note OFF: Time 257064, Note Name: B4
Note ON: Time 257160, Note Name: F#4, Velocity: 61
Note OFF: Time 257184, Note Name: G4
Note OFF: Time 257280, Note Name: F#4
Note ON: Time 257280, Note Name: B4, Velocity: 65
Note ON: Time 257400, Note Name: F#4, Velocity: 58
Note OFF: Time 257424, Note Name: B4
Note ON: Time 257520, Note Name: E4, Velocity: 58
Note OFF: Time 257544, Note Name: F#4
Note ON: Time 257640, Note Name: D4, Velocity: 58
Note OFF: Time 257664, Note Name: E4
Note OFF: Time 257760, Note Name: D4
Note ON: Time 257760, Note Name: F#4, Velocity: 63
Note ON: Time 257880, Note Name: D4, Velocity: 54
Note OFF: Time 257904, Note Name: F#4
Note ON: Time 258000, Note Name: C#4, Velocity: 54
Note OFF: Time 258024, Note Name: D4
Note ON: Time 258120, Note Name: B3, Velocity: 54
Note OFF: Time 258144, Note Name: C#4
Note OFF: Time 258240, Note Name: B3
Note ON: Time 258240, Note Name: D4, Velocity: 59
Note ON: Time 258360, Note Name: B3, Velocity: 49
Note OFF: Time 258384, Note Name: D4
Note ON: Time 258480, Note Name: G3, Velocity: 50
Note OFF: Time 258504, Note Name: B3
Note ON: Time 258600, Note Name: F#3, Velocity: 50
Note OFF: Time 258624, Note Name: G3
Note OFF: Time 258720, Note Name: F#3
Note ON: Time 258720, Note Name: G3, Velocity: 59
Note OFF: Time 258840, Note Name: G3
Note ON: Time 258840, Note Name: F#3, Velocity: 41
Note ON: Time 258960, Note Name: G#3, Velocity: 41
Note OFF: Time 258984, Note Name: F#3
Note ON: Time 259080, Note Name: A#3, Velocity: 41
Note OFF: Time 259104, Note Name: G#3
Note OFF: Time 259200, Note Name: A#3
Note ON: Time 259200, Note Name: B3, Velocity: 40
Note ON: Time 259320, Note Name: C#4, Velocity: 36
Note OFF: Time 259344, Note Name: B3
Note ON: Time 259440, Note Name: D4, Velocity: 37
Note OFF: Time 259464, Note Name: C#4
Note ON: Time 259560, Note Name: E4, Velocity: 39
Note OFF: Time 259584, Note Name: D4
Note ON: Time 259680, Note Name: F#4, Velocity: 40
Note OFF: Time 259704, Note Name: E4
Note ON: Time 259800, Note Name: G4, Velocity: 41
Note OFF: Time 259824, Note Name: F#4
Note ON: Time 259920, Note Name: F#4, Velocity: 41
Note OFF: Time 259944, Note Name: G4
Note ON: Time 260040, Note Name: F4, Velocity: 40
Note OFF: Time 260064, Note Name: F#4
Note ON: Time 260160, Note Name: E4, Velocity: 38
Note OFF: Time 260184, Note Name: F4
Note ON: Time 260280, Note Name: D4, Velocity: 37
Note OFF: Time 260304, Note Name: E4
Note ON: Time 260400, Note Name: C#4, Velocity: 36
Note OFF: Time 260424, Note Name: D4
Note ON: Time 260520, Note Name: B3, Velocity: 35
Note OFF: Time 260544, Note Name: C#4
Note OFF: Time 260640, Note Name: B3
Note ON: Time 260640, Note Name: C#4, Velocity: 35
Note ON: Time 260760, Note Name: D4, Velocity: 37
Note OFF: Time 260784, Note Name: C#4
Note ON: Time 260880, Note Name: C#4, Velocity: 36
Note OFF: Time 260904, Note Name: D4
Note ON: Time 261000, Note Name: C4, Velocity: 36
Note OFF: Time 261024, Note Name: C#4
Note ON: Time 261120, Note Name: B3, Velocity: 35
Note OFF: Time 261144, Note Name: C4
Note ON: Time 261240, Note Name: A#3, Velocity: 34
Note OFF: Time 261264, Note Name: B3
Note ON: Time 261360, Note Name: G#3, Velocity: 33
Note OFF: Time 261384, Note Name: A#3
Note ON: Time 261480, Note Name: F#3, Velocity: 32
Note OFF: Time 261504, Note Name: G#3
Note ON: Time 261600, Note Name: G#3, Velocity: 36
Note OFF: Time 261624, Note Name: F#3
Note ON: Time 261720, Note Name: A#3, Velocity: 35
Note OFF: Time 261744, Note Name: G#3
Note ON: Time 261840, Note Name: B3, Velocity: 39
Note OFF: Time 261864, Note Name: A#3
Note ON: Time 261960, Note Name: A#3, Velocity: 34
Note OFF: Time 261984, Note Name: B3
Note ON: Time 262080, Note Name: B3, Velocity: 36
Note OFF: Time 262104, Note Name: A#3
Note ON: Time 262200, Note Name: C#4, Velocity: 34
Note OFF: Time 262224, Note Name: B3
Note ON: Time 262320, Note Name: D4, Velocity: 41
Note OFF: Time 262344, Note Name: C#4
Note ON: Time 262440, Note Name: C#4, Velocity: 35
Note OFF: Time 262464, Note Name: D4
Note ON: Time 262560, Note Name: D4, Velocity: 39
Note OFF: Time 262584, Note Name: C#4
Note ON: Time 262680, Note Name: E4, Velocity: 36
Note OFF: Time 262704, Note Name: D4
Note OFF: Time 262800, Note Name: E4
Note ON: Time 263040, Note Name: E4, Velocity: 36
Note OFF: Time 263520, Note Name: E4
Note ON: Time 263520, Note Name: B3, Velocity: 39
Note ON: Time 263640, Note Name: C#4, Velocity: 39
Note OFF: Time 263664, Note Name: B3
Note ON: Time 263760, Note Name: D4, Velocity: 34
Note OFF: Time 263784, Note Name: C#4
Note ON: Time 263880, Note Name: E4, Velocity: 34
Note OFF: Time 263904, Note Name: D4
Note ON: Time 264000, Note Name: F#4, Velocity: 39
Note OFF: Time 264024, Note Name: E4
Note ON: Time 264120, Note Name: G4, Velocity: 34
Note OFF: Time 264144, Note Name: F#4
Note OFF: Time 264240, Note Name: G4
Note ON: Time 264480, Note Name: G4, Velocity: 36
Note OFF: Time 264960, Note Name: G4
Note ON: Time 264960, Note Name: D4, Velocity: 39
Note ON: Time 265080, Note Name: E4, Velocity: 36
Note OFF: Time 265104, Note Name: D4
Note ON: Time 265200, Note Name: F#4, Velocity: 36
Note OFF: Time 265224, Note Name: E4
Note ON: Time 265320, Note Name: G#4, Velocity: 36
Note OFF: Time 265344, Note Name: F#4
Note ON: Time 265440, Note Name: A#4, Velocity: 39
Note OFF: Time 265464, Note Name: G#4
Note ON: Time 265560, Note Name: B4, Velocity: 35
Note OFF: Time 265584, Note Name: A#4
Note OFF: Time 265680, Note Name: B4
Note ON: Time 265920, Note Name: B4, Velocity: 36
Note OFF: Time 266400, Note Name: B4
Note ON: Time 266400, Note Name: A#4, Velocity: 33
Note OFF: Time 266480, Note Name: A#4
Note ON: Time 266480, Note Name: B4, Velocity: 27
Note OFF: Time 266560, Note Name: B4
Note ON: Time 266560, Note Name: A#4, Velocity: 32
Note OFF: Time 266640, Note Name: A#4
Note ON: Time 266640, Note Name: B4, Velocity: 28
Note OFF: Time 266720, Note Name: B4
Note ON: Time 266720, Note Name: A#4, Velocity: 32
Note OFF: Time 266800, Note Name: A#4
Note ON: Time 266800, Note Name: B4, Velocity: 32
Note OFF: Time 266880, Note Name: B4
Note ON: Time 266880, Note Name: A#4, Velocity: 33
Note OFF: Time 266960, Note Name: A#4
Note ON: Time 266960, Note Name: B4, Velocity: 33
Note OFF: Time 267040, Note Name: B4
Note ON: Time 267040, Note Name: A#4, Velocity: 28
Note OFF: Time 267120, Note Name: A#4
Note ON: Time 267120, Note Name: B4, Velocity: 33
Note OFF: Time 267180, Note Name: B4
Note ON: Time 267180, Note Name: A#4, Velocity: 29
Note OFF: Time 267240, Note Name: A#4
Note ON: Time 267240, Note Name: G#4, Velocity: 29
Note OFF: Time 267300, Note Name: G#4
Note ON: Time 267300, Note Name: A#4, Velocity: 30
Note OFF: Time 267360, Note Name: A#4
Note ON: Time 267360, Note Name: F#3, Velocity: 50
Note OFF: Time 267600, Note Name: F#3
Note ON: Time 268320, Note Name: B3, Velocity: 50
Note OFF: Time 268560, Note Name: B3
Note ON: Time 268800, Note Name: D5, Velocity: 36
Note OFF: Time 268880, Note Name: D5
Note ON: Time 268880, Note Name: E5, Velocity: 34
Note OFF: Time 268960, Note Name: E5
Note ON: Time 268960, Note Name: D5, Velocity: 37
Note OFF: Time 269040, Note Name: D5
Note ON: Time 269040, Note Name: E5, Velocity: 35
Note OFF: Time 269120, Note Name: E5
Note ON: Time 269120, Note Name: D5, Velocity: 39
Note OFF: Time 269200, Note Name: D5
Note ON: Time 269200, Note Name: E5, Velocity: 36
Note OFF: Time 269280, Note Name: E5
Note ON: Time 269280, Note Name: D5, Velocity: 40
Note OFF: Time 269360, Note Name: D5
Note ON: Time 269360, Note Name: E5, Velocity: 37
Note OFF: Time 269440, Note Name: E5
Note ON: Time 269440, Note Name: D5, Velocity: 41
Note OFF: Time 269520, Note Name: D5
Note ON: Time 269580, Note Name: D5, Velocity: 42
Note OFF: Time 269640, Note Name: D5
Note ON: Time 269640, Note Name: C#5, Velocity: 43
Note OFF: Time 269700, Note Name: C#5
Note ON: Time 269700, Note Name: D5, Velocity: 48
Note OFF: Time 269760, Note Name: D5
Note ON: Time 269760, Note Name: E5, Velocity: 54
Note OFF: Time 270240, Note Name: E5
Note ON: Time 270240, Note Name: A2, Velocity: 50
Note ON: Time 270240, Note Name: G4, Velocity: 41
Note OFF: Time 270480, Note Name: A2
Note OFF: Time 270720, Note Name: G4
Note ON: Time 270720, Note Name: C#4, Velocity: 36
Note OFF: Time 270800, Note Name: C#4
Note ON: Time 270800, Note Name: D4, Velocity: 34
Note OFF: Time 270880, Note Name: D4
Note ON: Time 270880, Note Name: C#4, Velocity: 37
Note OFF: Time 270960, Note Name: C#4
Note ON: Time 270960, Note Name: D4, Velocity: 35
Note OFF: Time 271040, Note Name: D4
Note ON: Time 271040, Note Name: C#4, Velocity: 39
Note OFF: Time 271120, Note Name: C#4
Note ON: Time 271120, Note Name: D4, Velocity: 36
Note OFF: Time 271200, Note Name: D4
Note ON: Time 271200, Note Name: C#4, Velocity: 40
Note OFF: Time 271280, Note Name: C#4
Note ON: Time 271280, Note Name: D4, Velocity: 37
Note OFF: Time 271360, Note Name: D4
Note ON: Time 271360, Note Name: C#4, Velocity: 41
Note OFF: Time 271440, Note Name: C#4
Note ON: Time 271440, Note Name: D4, Velocity: 37
Note OFF: Time 271500, Note Name: D4
Note ON: Time 271500, Note Name: C#4, Velocity: 43
Note OFF: Time 271560, Note Name: C#4
Note ON: Time 271560, Note Name: B3, Velocity: 43
Note OFF: Time 271620, Note Name: B3
Note ON: Time 271620, Note Name: C#4, Velocity: 48
Note OFF: Time 271680, Note Name: C#4
Note ON: Time 271680, Note Name: D4, Velocity: 54
Note ON: Time 271920, Note Name: A4, Velocity: 44
Note OFF: Time 272160, Note Name: A4
Note OFF: Time 272160, Note Name: D4
Note ON: Time 272160, Note Name: B4, Velocity: 50
Note OFF: Time 272400, Note Name: B4
Note ON: Time 272400, Note Name: G4, Velocity: 49
Note OFF: Time 272640, Note Name: G4
Note ON: Time 272640, Note Name: F#4, Velocity: 47
Note OFF: Time 272880, Note Name: F#4
Note ON: Time 272880, Note Name: F4, Velocity: 45
Note OFF: Time 273120, Note Name: F4
Note ON: Time 273120, Note Name: F#4, Velocity: 47
Note ON: Time 273120, Note Name: A3, Velocity: 47
Note OFF: Time 273600, Note Name: A3
Note ON: Time 273600, Note Name: G3, Velocity: 47
Note OFF: Time 274080, Note Name: F#4
Note ON: Time 274080, Note Name: E4, Velocity: 51
Note OFF: Time 274560, Note Name: E4
Note OFF: Time 274560, Note Name: G3
Note ON: Time 274560, Note Name: G3, Velocity: 47
Note ON: Time 274560, Note Name: E3, Velocity: 47
Note OFF: Time 275040, Note Name: E3
Note OFF: Time 275040, Note Name: G3
Note ON: Time 275040, Note Name: B3, Velocity: 47
Note ON: Time 275040, Note Name: F#3, Velocity: 47
Note OFF: Time 275520, Note Name: B3
Note ON: Time 275520, Note Name: A3, Velocity: 45
Note OFF: Time 276000, Note Name: A3
Note OFF: Time 276000, Note Name: F#3
Note ON: Time 276000, Note Name: E3, Velocity: 44
Note ON: Time 276000, Note Name: G3, Velocity: 44
Note OFF: Time 276960, Note Name: G3
Note OFF: Time 276960, Note Name: E3
Note ON: Time 276960, Note Name: D3, Velocity: 47
Note ON: Time 276960, Note Name: F#3, Velocity: 47
Note OFF: Time 277440, Note Name: F#3
Note OFF: Time 277440, Note Name: D3
Note ON: Time 277440, Note Name: D3, Velocity: 45
Note ON: Time 277440, Note Name: G3, Velocity: 45
Note OFF: Time 277920, Note Name: G3
Note OFF: Time 277920, Note Name: D3
Note ON: Time 277920, Note Name: D3, Velocity: 47
Note ON: Time 277920, Note Name: G3, Velocity: 47
Note OFF: Time 278160, Note Name: G3
Note ON: Time 278160, Note Name: F#3, Velocity: 43
Note OFF: Time 278400, Note Name: F#3
Note OFF: Time 278400, Note Name: D3
Note ON: Time 278400, Note Name: E3, Velocity: 47
Note ON: Time 278400, Note Name: A2, Velocity: 47
Note OFF: Time 278640, Note Name: E3
Note ON: Time 278640, Note Name: F#3, Velocity: 42
Note OFF: Time 278880, Note Name: F#3
Note OFF: Time 278880, Note Name: A2
Note ON: Time 278880, Note Name: F#3, Velocity: 47
Note ON: Time 278880, Note Name: G#3, Velocity: 47
Note OFF: Time 279120, Note Name: G#3
Note ON: Time 279120, Note Name: A3, Velocity: 42
Note OFF: Time 279360, Note Name: A3
Note OFF: Time 279360, Note Name: F#3
Note ON: Time 279360, Note Name: G3, Velocity: 52
Note ON: Time 279360, Note Name: E3, Velocity: 52
Note OFF: Time 279840, Note Name: E3
Note ON: Time 279840, Note Name: A#2, Velocity: 46
Note OFF: Time 280320, Note Name: A#2
Note OFF: Time 280320, Note Name: G3
Note ON: Time 280320, Note Name: F#3, Velocity: 46
Note OFF: Time 280560, Note Name: F#3
Note ON: Time 281760, Note Name: F#3, Velocity: 41
Note OFF: Time 281880, Note Name: F#3
Note ON: Time 281880, Note Name: E3, Velocity: 39
Note OFF: Time 282000, Note Name: E3
Note ON: Time 282000, Note Name: D3, Velocity: 39
Note OFF: Time 282120, Note Name: D3
Note ON: Time 282120, Note Name: C#3, Velocity: 39
Note OFF: Time 282240, Note Name: C#3
Note ON: Time 282240, Note Name: B2, Velocity: 39
Note ON: Time 282360, Note Name: C#3, Velocity: 38
Note OFF: Time 282384, Note Name: B2
Note ON: Time 282480, Note Name: D3, Velocity: 38
Note OFF: Time 282504, Note Name: C#3
Note ON: Time 282600, Note Name: E3, Velocity: 38
Note OFF: Time 282624, Note Name: D3
Note ON: Time 282720, Note Name: F#3, Velocity: 41
Note OFF: Time 282744, Note Name: E3
Note ON: Time 282840, Note Name: G3, Velocity: 38
Note OFF: Time 282864, Note Name: F#3
Note ON: Time 282960, Note Name: F#3, Velocity: 38
Note OFF: Time 282984, Note Name: G3
Note ON: Time 283080, Note Name: F3, Velocity: 38
Note OFF: Time 283104, Note Name: F#3
Note ON: Time 283200, Note Name: E3, Velocity: 41
Note OFF: Time 283224, Note Name: F3
Note ON: Time 283320, Note Name: D3, Velocity: 37
Note OFF: Time 283344, Note Name: E3
Note ON: Time 283440, Note Name: C#3, Velocity: 37
Note OFF: Time 283464, Note Name: D3
Note ON: Time 283560, Note Name: B2, Velocity: 37
Note OFF: Time 283584, Note Name: C#3
Note ON: Time 283680, Note Name: C#3, Velocity: 37
Note OFF: Time 283704, Note Name: B2
Note ON: Time 283800, Note Name: D3, Velocity: 36
Note OFF: Time 283824, Note Name: C#3
Note ON: Time 283920, Note Name: C#3, Velocity: 36
Note OFF: Time 283944, Note Name: D3
Note ON: Time 284040, Note Name: C3, Velocity: 36
Note OFF: Time 284064, Note Name: C#3
Note ON: Time 284160, Note Name: B2, Velocity: 41
Note OFF: Time 284184, Note Name: C3
Note ON: Time 284280, Note Name: A#2, Velocity: 34
Note OFF: Time 284304, Note Name: B2
Note ON: Time 284400, Note Name: G#2, Velocity: 34
Note OFF: Time 284424, Note Name: A#2
Note ON: Time 284520, Note Name: F#2, Velocity: 34
Note OFF: Time 284544, Note Name: G#2
Note ON: Time 284640, Note Name: G#2, Velocity: 40
Note OFF: Time 284664, Note Name: F#2
Note ON: Time 284760, Note Name: A#2, Velocity: 36
Note OFF: Time 284784, Note Name: G#2
Note ON: Time 284880, Note Name: B2, Velocity: 36
Note OFF: Time 284904, Note Name: A#2
Note ON: Time 285000, Note Name: A#2, Velocity: 36
Note OFF: Time 285024, Note Name: B2
Note ON: Time 285120, Note Name: B2, Velocity: 36
Note OFF: Time 285144, Note Name: A#2
Note ON: Time 285240, Note Name: C#3, Velocity: 38
Note OFF: Time 285264, Note Name: B2
Note ON: Time 285360, Note Name: D3, Velocity: 41
Note OFF: Time 285384, Note Name: C#3
Note ON: Time 285480, Note Name: C#3, Velocity: 43
Note OFF: Time 285504, Note Name: D3
Note ON: Time 285600, Note Name: D3, Velocity: 45
Note OFF: Time 285624, Note Name: C#3
Note ON: Time 285720, Note Name: E3, Velocity: 41
Note OFF: Time 285744, Note Name: D3
Note OFF: Time 285840, Note Name: E3
Note ON: Time 286080, Note Name: E3, Velocity: 44
Note OFF: Time 286560, Note Name: E3
Note ON: Time 286560, Note Name: B2, Velocity: 36
Note ON: Time 286680, Note Name: C#3, Velocity: 38
Note OFF: Time 286704, Note Name: B2
Note ON: Time 286800, Note Name: D3, Velocity: 41
Note OFF: Time 286824, Note Name: C#3
Note ON: Time 286920, Note Name: E3, Velocity: 43
Note OFF: Time 286944, Note Name: D3
Note ON: Time 287040, Note Name: F#3, Velocity: 45
Note OFF: Time 287064, Note Name: E3
Note ON: Time 287160, Note Name: G3, Velocity: 41
Note OFF: Time 287184, Note Name: F#3
Note OFF: Time 287280, Note Name: G3
Note ON: Time 287520, Note Name: G3, Velocity: 44
Note OFF: Time 288000, Note Name: G3
Note ON: Time 288000, Note Name: D3, Velocity: 36
Note ON: Time 288120, Note Name: E3, Velocity: 38
Note OFF: Time 288144, Note Name: D3
Note ON: Time 288240, Note Name: F#3, Velocity: 41
Note OFF: Time 288264, Note Name: E3
Note ON: Time 288360, Note Name: G#3, Velocity: 43
Note OFF: Time 288384, Note Name: F#3
Note ON: Time 288480, Note Name: A#3, Velocity: 45
Note OFF: Time 288504, Note Name: G#3
Note ON: Time 288600, Note Name: B3, Velocity: 41
Note OFF: Time 288624, Note Name: A#3
Note OFF: Time 288720, Note Name: B3
Note ON: Time 288960, Note Name: B3, Velocity: 44
Note OFF: Time 289440, Note Name: B3
Note ON: Time 289440, Note Name: A#3, Velocity: 40
Note OFF: Time 289520, Note Name: A#3
Note ON: Time 289520, Note Name: B3, Velocity: 37
Note OFF: Time 289600, Note Name: B3
Note ON: Time 289600, Note Name: A#3, Velocity: 40
Note OFF: Time 289680, Note Name: A#3
Note ON: Time 289680, Note Name: B3, Velocity: 36
Note OFF: Time 289760, Note Name: B3
Note ON: Time 289760, Note Name: A#3, Velocity: 40
Note OFF: Time 289840, Note Name: A#3
Note ON: Time 289840, Note Name: B3, Velocity: 34
Note OFF: Time 289920, Note Name: B3
Note ON: Time 289920, Note Name: A#3, Velocity: 40
Note OFF: Time 290000, Note Name: A#3
Note ON: Time 290000, Note Name: B3, Velocity: 37
Note OFF: Time 290080, Note Name: B3
Note ON: Time 290080, Note Name: A#3, Velocity: 40
Note OFF: Time 290160, Note Name: A#3
Note ON: Time 290160, Note Name: B3, Velocity: 36
Note OFF: Time 290240, Note Name: B3
Note ON: Time 290240, Note Name: A#3, Velocity: 40
Note OFF: Time 290320, Note Name: A#3
Note ON: Time 290320, Note Name: B3, Velocity: 36
Note OFF: Time 290400, Note Name: B3
Note ON: Time 290400, Note Name: F#2, Velocity: 36
Note OFF: Time 290640, Note Name: F#2
Note ON: Time 290640, Note Name: G#2, Velocity: 39
Note OFF: Time 290760, Note Name: G#2
Note ON: Time 290760, Note Name: A#2, Velocity: 42
Note OFF: Time 290880, Note Name: A#2
Note ON: Time 290880, Note Name: B2, Velocity: 45
Note OFF: Time 291000, Note Name: B2
Note ON: Time 291000, Note Name: C#3, Velocity: 45
Note OFF: Time 291120, Note Name: C#3
Note ON: Time 291120, Note Name: D3, Velocity: 44
Note OFF: Time 291240, Note Name: D3
Note ON: Time 291240, Note Name: E3, Velocity: 42
Note OFF: Time 291360, Note Name: E3
Note ON: Time 291360, Note Name: F#3, Velocity: 50
Note OFF: Time 291600, Note Name: F#3
Note ON: Time 291840, Note Name: B3, Velocity: 44
Note OFF: Time 292320, Note Name: B3
Note ON: Time 292320, Note Name: A#3, Velocity: 40
Note OFF: Time 292400, Note Name: A#3
Note ON: Time 292400, Note Name: B3, Velocity: 37
Note OFF: Time 292480, Note Name: B3
Note ON: Time 292480, Note Name: A#3, Velocity: 40
Note OFF: Time 292560, Note Name: A#3
Note ON: Time 292560, Note Name: B3, Velocity: 36
Note OFF: Time 292640, Note Name: B3
Note ON: Time 292640, Note Name: A#3, Velocity: 40
Note OFF: Time 292720, Note Name: A#3
Note ON: Time 292720, Note Name: B3, Velocity: 34
Note OFF: Time 292800, Note Name: B3
Note ON: Time 292800, Note Name: A#3, Velocity: 40
Note OFF: Time 292880, Note Name: A#3
Note ON: Time 292880, Note Name: B3, Velocity: 37
Note OFF: Time 292960, Note Name: B3
Note ON: Time 292960, Note Name: A#3, Velocity: 40
Note OFF: Time 293040, Note Name: A#3
Note ON: Time 293040, Note Name: B3, Velocity: 36
Note OFF: Time 293120, Note Name: B3
Note ON: Time 293120, Note Name: A#3, Velocity: 40
Note OFF: Time 293200, Note Name: A#3
Note ON: Time 293200, Note Name: B3, Velocity: 36
Note OFF: Time 293280, Note Name: B3
Note ON: Time 293280, Note Name: F#2, Velocity: 44
Note ON: Time 293280, Note Name: F#3, Velocity: 44
Note OFF: Time 293760, Note Name: F#3
Note OFF: Time 293760, Note Name: F#2
Note ON: Time 293760, Note Name: D3, Velocity: 40
Note OFF: Time 293840, Note Name: D3
Note ON: Time 293840, Note Name: E3, Velocity: 37
Note OFF: Time 293920, Note Name: E3
Note ON: Time 293920, Note Name: D3, Velocity: 40
Note OFF: Time 294000, Note Name: D3
Note ON: Time 294000, Note Name: E3, Velocity: 36
Note OFF: Time 294080, Note Name: E3
Note ON: Time 294080, Note Name: D3, Velocity: 40
Note OFF: Time 294160, Note Name: D3
Note ON: Time 294160, Note Name: E3, Velocity: 34
Note OFF: Time 294240, Note Name: E3
Note ON: Time 294240, Note Name: D3, Velocity: 40
Note OFF: Time 294320, Note Name: D3
Note ON: Time 294320, Note Name: E3, Velocity: 37
Note OFF: Time 294400, Note Name: E3
Note ON: Time 294400, Note Name: D3, Velocity: 40
Note OFF: Time 294480, Note Name: D3
Note ON: Time 294480, Note Name: E3, Velocity: 36
Note OFF: Time 294560, Note Name: E3
Note ON: Time 294560, Note Name: D3, Velocity: 40
Note OFF: Time 294640, Note Name: D3
Note ON: Time 294640, Note Name: E3, Velocity: 36
Note OFF: Time 294720, Note Name: E3
Note ON: Time 294720, Note Name: B2, Velocity: 33
Note OFF: Time 294960, Note Name: B2
Note ON: Time 294960, Note Name: C#2, Velocity: 28
Note ON: Time 294960, Note Name: A#2, Velocity: 34
Note OFF: Time 295200, Note Name: A#2
Note OFF: Time 295200, Note Name: C#2
Note ON: Time 295200, Note Name: D2, Velocity: 32
Note ON: Time 295200, Note Name: A2, Velocity: 32
Note OFF: Time 295320, Note Name: D2
Note ON: Time 295320, Note Name: E2, Velocity: 33
Note OFF: Time 295440, Note Name: E2
Note ON: Time 295440, Note Name: F#2, Velocity: 35
Note OFF: Time 295560, Note Name: F#2
Note ON: Time 295560, Note Name: G2, Velocity: 36
Note OFF: Time 295680, Note Name: G2
Note OFF: Time 295680, Note Name: A2
Note ON: Time 295680, Note Name: A2, Velocity: 38
Note OFF: Time 295800, Note Name: A2
Note ON: Time 295800, Note Name: B2, Velocity: 37
Note OFF: Time 295920, Note Name: B2
Note ON: Time 296160, Note Name: F#3, Velocity: 38
Note ON: Time 296160, Note Name: B2, Velocity: 33
Note OFF: Time 296640, Note Name: B2
Note OFF: Time 296640, Note Name: F#3
Note ON: Time 296640, Note Name: G2, Velocity: 32
Note OFF: Time 296760, Note Name: G2
Note ON: Time 296760, Note Name: A2, Velocity: 33
Note OFF: Time 296880, Note Name: A2
Note ON: Time 296880, Note Name: B2, Velocity: 35
Note OFF: Time 297000, Note Name: B2
Note ON: Time 297000, Note Name: C#3, Velocity: 36
Note OFF: Time 297120, Note Name: C#3
Note ON: Time 297120, Note Name: D3, Velocity: 38
Note OFF: Time 297240, Note Name: D3
Note ON: Time 297240, Note Name: E3, Velocity: 37
Note OFF: Time 297360, Note Name: E3
Note ON: Time 297600, Note Name: E3, Velocity: 38
Note OFF: Time 298080, Note Name: E3
Note ON: Time 298080, Note Name: C#3, Velocity: 45
Note OFF: Time 298200, Note Name: C#3
Note ON: Time 298200, Note Name: D3, Velocity: 48
Note OFF: Time 298320, Note Name: D3
Note ON: Time 298320, Note Name: E3, Velocity: 50
Note OFF: Time 298440, Note Name: E3
Note ON: Time 298440, Note Name: F#3, Velocity: 53
Note OFF: Time 298560, Note Name: F#3
Note ON: Time 298560, Note Name: G3, Velocity: 55
Note OFF: Time 298680, Note Name: G3
Note ON: Time 298680, Note Name: A3, Velocity: 48
Note OFF: Time 298800, Note Name: A3
Note ON: Time 299040, Note Name: A3, Velocity: 59
Note OFF: Time 299520, Note Name: A3
Note ON: Time 299520, Note Name: E3, Velocity: 45
Note OFF: Time 299640, Note Name: E3
Note ON: Time 299640, Note Name: F#3, Velocity: 48
Note OFF: Time 299760, Note Name: F#3
Note ON: Time 299760, Note Name: G3, Velocity: 50
Note OFF: Time 299880, Note Name: G3
Note ON: Time 299880, Note Name: A3, Velocity: 53
Note OFF: Time 300000, Note Name: A3
Note ON: Time 300000, Note Name: B3, Velocity: 55
Note OFF: Time 300120, Note Name: B3
Note ON: Time 300120, Note Name: C#4, Velocity: 48
Note OFF: Time 300240, Note Name: C#4
Note ON: Time 300480, Note Name: C#4, Velocity: 59
Note OFF: Time 300960, Note Name: C#4
Note ON: Time 300960, Note Name: E4, Velocity: 58
Note OFF: Time 301080, Note Name: E4
Note ON: Time 301080, Note Name: D4, Velocity: 56
Note OFF: Time 301200, Note Name: D4
Note ON: Time 301200, Note Name: C#4, Velocity: 53
Note OFF: Time 301320, Note Name: C#4
Note ON: Time 301320, Note Name: B3, Velocity: 51
Note OFF: Time 301440, Note Name: B3
Note ON: Time 301440, Note Name: A3, Velocity: 49
Note OFF: Time 301560, Note Name: A3
Note ON: Time 301560, Note Name: G3, Velocity: 44
Note OFF: Time 301680, Note Name: G3
Note ON: Time 301920, Note Name: G3, Velocity: 64
Note OFF: Time 302400, Note Name: G3
Note ON: Time 302400, Note Name: C#4, Velocity: 58
Note OFF: Time 302520, Note Name: C#4
Note ON: Time 302520, Note Name: B3, Velocity: 56
Note OFF: Time 302640, Note Name: B3
Note ON: Time 302640, Note Name: A3, Velocity: 53
Note OFF: Time 302760, Note Name: A3
Note ON: Time 302760, Note Name: G3, Velocity: 51
Note OFF: Time 302880, Note Name: G3
Note ON: Time 302880, Note Name: F#3, Velocity: 49
Note OFF: Time 303000, Note Name: F#3
Note ON: Time 303000, Note Name: E3, Velocity: 44
Note OFF: Time 303120, Note Name: E3
Note ON: Time 303360, Note Name: E3, Velocity: 64
Note OFF: Time 303840, Note Name: E3
Note ON: Time 303840, Note Name: D2, Velocity: 57
Note OFF: Time 303960, Note Name: D2
Note ON: Time 303960, Note Name: E2, Velocity: 47
Note OFF: Time 304080, Note Name: E2
Note ON: Time 304080, Note Name: F#2, Velocity: 50
Note OFF: Time 304200, Note Name: F#2
Note ON: Time 304200, Note Name: G2, Velocity: 53
Note OFF: Time 304320, Note Name: G2
Note ON: Time 304320, Note Name: G#2, Velocity: 56
Note OFF: Time 304440, Note Name: G#2
Note ON: Time 304440, Note Name: A2, Velocity: 50
Note OFF: Time 304560, Note Name: A2
Note ON: Time 304800, Note Name: F#3, Velocity: 65
Note ON: Time 304800, Note Name: A2, Velocity: 65
Note OFF: Time 305280, Note Name: A2
Note OFF: Time 305280, Note Name: F#3
Note ON: Time 305280, Note Name: F#2, Velocity: 57
Note OFF: Time 305400, Note Name: F#2
Note ON: Time 305400, Note Name: G2, Velocity: 47
Note OFF: Time 305520, Note Name: G2
Note ON: Time 305520, Note Name: A2, Velocity: 50
Note OFF: Time 305640, Note Name: A2
Note ON: Time 305640, Note Name: B2, Velocity: 53
Note OFF: Time 305760, Note Name: B2
Note ON: Time 305760, Note Name: C#3, Velocity: 56
Note OFF: Time 305880, Note Name: C#3
Note ON: Time 305880, Note Name: D3, Velocity: 50
Note OFF: Time 306000, Note Name: D3
Note ON: Time 306240, Note Name: D3, Velocity: 65
Note ON: Time 306240, Note Name: A3, Velocity: 65
Note OFF: Time 306720, Note Name: A3
Note OFF: Time 306720, Note Name: D3
Note ON: Time 306720, Note Name: G2, Velocity: 57
Note OFF: Time 306840, Note Name: G2
Note ON: Time 306840, Note Name: A2, Velocity: 47
Note OFF: Time 306960, Note Name: A2
Note ON: Time 306960, Note Name: B2, Velocity: 50
Note OFF: Time 307080, Note Name: B2
Note ON: Time 307080, Note Name: C#3, Velocity: 53
Note OFF: Time 307200, Note Name: C#3
Note ON: Time 307200, Note Name: D3, Velocity: 56
Note OFF: Time 307320, Note Name: D3
Note ON: Time 307320, Note Name: E3, Velocity: 50
Note OFF: Time 307440, Note Name: E3
Note ON: Time 307680, Note Name: E3, Velocity: 65
Note OFF: Time 308160, Note Name: E3
Note ON: Time 308160, Note Name: C#3, Velocity: 62
Note OFF: Time 308280, Note Name: C#3
Note ON: Time 308280, Note Name: D3, Velocity: 51
Note OFF: Time 308400, Note Name: D3
Note ON: Time 308400, Note Name: E3, Velocity: 55
Note OFF: Time 308520, Note Name: E3
Note ON: Time 308520, Note Name: F#3, Velocity: 58
Note OFF: Time 308640, Note Name: F#3
Note ON: Time 308640, Note Name: G3, Velocity: 61
Note OFF: Time 308760, Note Name: G3
Note ON: Time 308760, Note Name: A3, Velocity: 55
Note OFF: Time 308880, Note Name: A3
Note ON: Time 309120, Note Name: A3, Velocity: 71
Note OFF: Time 309600, Note Name: A3
Note ON: Time 309600, Note Name: D3, Velocity: 67
Note OFF: Time 309720, Note Name: D3
Note ON: Time 309720, Note Name: C#3, Velocity: 64
Note OFF: Time 309840, Note Name: C#3
Note ON: Time 309840, Note Name: B2, Velocity: 62
Note OFF: Time 309960, Note Name: B2
Note ON: Time 309960, Note Name: A2, Velocity: 60
Note OFF: Time 310080, Note Name: A2
Note ON: Time 310080, Note Name: G2, Velocity: 57
Note OFF: Time 310200, Note Name: G2
Note ON: Time 310200, Note Name: F#2, Velocity: 55
Note OFF: Time 310320, Note Name: F#2
Note ON: Time 310320, Note Name: F#3, Velocity: 55
Note OFF: Time 310440, Note Name: F#3
Note ON: Time 310440, Note Name: G3, Velocity: 58
Note OFF: Time 310560, Note Name: G3
Note ON: Time 310560, Note Name: A3, Velocity: 62
Note OFF: Time 310680, Note Name: A3
Note ON: Time 310680, Note Name: B3, Velocity: 65
Note OFF: Time 310800, Note Name: B3
Note ON: Time 310800, Note Name: C#4, Velocity: 69
Note OFF: Time 310920, Note Name: C#4
Note ON: Time 310920, Note Name: D4, Velocity: 72
Note OFF: Time 311040, Note Name: D4
Note ON: Time 311040, Note Name: B2, Velocity: 67
Note OFF: Time 311160, Note Name: B2
Note ON: Time 311160, Note Name: A2, Velocity: 64
Note OFF: Time 311280, Note Name: A2
Note ON: Time 311280, Note Name: G2, Velocity: 62
Note OFF: Time 311400, Note Name: G2
Note ON: Time 311400, Note Name: F#2, Velocity: 60
Note OFF: Time 311520, Note Name: F#2
Note ON: Time 311520, Note Name: E2, Velocity: 57
Note OFF: Time 311640, Note Name: E2
Note ON: Time 311640, Note Name: D2, Velocity: 55
Note OFF: Time 311760, Note Name: D2
Note ON: Time 311760, Note Name: D3, Velocity: 55
Note OFF: Time 311880, Note Name: D3
Note ON: Time 311880, Note Name: E3, Velocity: 58
Note OFF: Time 312000, Note Name: E3
Note ON: Time 312000, Note Name: F#3, Velocity: 62
Note OFF: Time 312120, Note Name: F#3
Note ON: Time 312120, Note Name: G3, Velocity: 65
Note OFF: Time 312240, Note Name: G3
Note ON: Time 312240, Note Name: A3, Velocity: 69
Note OFF: Time 312360, Note Name: A3
Note ON: Time 312360, Note Name: B3, Velocity: 72
Note OFF: Time 312478, Note Name: B3
Note ON: Time 312480, Note Name: G3, Velocity: 61
Note ON: Time 312480, Note Name: B3, Velocity: 72
Note OFF: Time 312600, Note Name: B3
Note OFF: Time 312600, Note Name: G3
Note ON: Time 312600, Note Name: A3, Velocity: 69
Note ON: Time 312600, Note Name: F#3, Velocity: 58
Note OFF: Time 312720, Note Name: F#3
Note OFF: Time 312720, Note Name: A3
Note ON: Time 312720, Note Name: E3, Velocity: 56
Note ON: Time 312720, Note Name: G3, Velocity: 67
Note OFF: Time 312840, Note Name: G3
Note OFF: Time 312840, Note Name: E3
Note ON: Time 312840, Note Name: D3, Velocity: 54
Note ON: Time 312840, Note Name: F#3, Velocity: 64
Note OFF: Time 312960, Note Name: F#3
Note OFF: Time 312960, Note Name: D3
Note ON: Time 312960, Note Name: C#3, Velocity: 52
Note ON: Time 312960, Note Name: E3, Velocity: 62
Note OFF: Time 313080, Note Name: E3
Note OFF: Time 313080, Note Name: C#3
Note ON: Time 313080, Note Name: B2, Velocity: 51
Note ON: Time 313080, Note Name: D3, Velocity: 60
Note OFF: Time 313200, Note Name: D3
Note OFF: Time 313200, Note Name: B2
Note ON: Time 313440, Note Name: B2, Velocity: 52
Note ON: Time 313440, Note Name: D3, Velocity: 60
Note OFF: Time 313920, Note Name: D3
Note OFF: Time 313920, Note Name: B2
Note ON: Time 313920, Note Name: G2, Velocity: 65
Note OFF: Time 314040, Note Name: G2
Note ON: Time 314040, Note Name: A2, Velocity: 59
Note OFF: Time 314160, Note Name: A2
Note ON: Time 314160, Note Name: B2, Velocity: 59
Note OFF: Time 314280, Note Name: B2
Note ON: Time 314280, Note Name: C3, Velocity: 58
Note OFF: Time 314400, Note Name: C3
Note ON: Time 314400, Note Name: D3, Velocity: 57
Note OFF: Time 314520, Note Name: D3
Note ON: Time 314520, Note Name: E3, Velocity: 56
Note OFF: Time 314640, Note Name: E3
Note ON: Time 314640, Note Name: B2, Velocity: 64
Note OFF: Time 314760, Note Name: B2
Note ON: Time 314760, Note Name: C3, Velocity: 59
Note OFF: Time 314880, Note Name: C3
Note ON: Time 314880, Note Name: D3, Velocity: 58
Note OFF: Time 315000, Note Name: D3
Note ON: Time 315000, Note Name: E3, Velocity: 57
Note OFF: Time 315120, Note Name: E3
Note ON: Time 315120, Note Name: F#3, Velocity: 55
Note OFF: Time 315240, Note Name: F#3
Note ON: Time 315240, Note Name: G3, Velocity: 54
Note OFF: Time 315360, Note Name: G3
Note ON: Time 315360, Note Name: A2, Velocity: 64
Note OFF: Time 315480, Note Name: A2
Note ON: Time 315480, Note Name: B2, Velocity: 58
Note OFF: Time 315600, Note Name: B2
Note ON: Time 315600, Note Name: C#3, Velocity: 57
Note OFF: Time 315720, Note Name: C#3
Note ON: Time 315720, Note Name: D3, Velocity: 55
Note OFF: Time 315840, Note Name: D3
Note ON: Time 315840, Note Name: E3, Velocity: 54
Note OFF: Time 315960, Note Name: E3
Note ON: Time 315960, Note Name: F3, Velocity: 58
Note OFF: Time 316080, Note Name: F3
Note ON: Time 316080, Note Name: A2, Velocity: 54
Note OFF: Time 316200, Note Name: A2
Note ON: Time 316200, Note Name: B2, Velocity: 51
Note OFF: Time 316320, Note Name: B2
Note ON: Time 316320, Note Name: C#3, Velocity: 54
Note OFF: Time 316440, Note Name: C#3
Note ON: Time 316440, Note Name: D3, Velocity: 52
Note OFF: Time 316560, Note Name: D3
Note ON: Time 316560, Note Name: C#3, Velocity: 52
Note OFF: Time 316680, Note Name: C#3
Note ON: Time 316680, Note Name: B2, Velocity: 52
Note OFF: Time 316800, Note Name: B2
Note ON: Time 316800, Note Name: A#2, Velocity: 60
Note OFF: Time 317400, Note Name: A#2
Note ON: Time 317400, Note Name: G#2, Velocity: 50
Note OFF: Time 317520, Note Name: G#2
Note ON: Time 317520, Note Name: F#2, Velocity: 50
Note OFF: Time 317640, Note Name: F#2
Note ON: Time 317640, Note Name: G#2, Velocity: 50
Note OFF: Time 317760, Note Name: G#2
Note ON: Time 317760, Note Name: A#2, Velocity: 60
Note OFF: Time 318240, Note Name: A#2
Note ON: Time 318240, Note Name: B2, Velocity: 50
Note OFF: Time 318360, Note Name: B2
Note ON: Time 318360, Note Name: C#3, Velocity: 46
Note OFF: Time 318480, Note Name: C#3
Note ON: Time 318480, Note Name: B2, Velocity: 46
Note OFF: Time 318600, Note Name: B2
Note ON: Time 318600, Note Name: A2, Velocity: 46
Note OFF: Time 318720, Note Name: A2
Note ON: Time 318720, Note Name: G#2, Velocity: 50
Note OFF: Time 318840, Note Name: G#2
Note ON: Time 318840, Note Name: D3, Velocity: 48
Note OFF: Time 318960, Note Name: D3
Note ON: Time 318960, Note Name: B2, Velocity: 48
Note OFF: Time 319080, Note Name: B2
Note ON: Time 319080, Note Name: F3, Velocity: 48
Note OFF: Time 319200, Note Name: F3
Note ON: Time 319200, Note Name: G#3, Velocity: 56
Note OFF: Time 319320, Note Name: G#3
Note ON: Time 319680, Note Name: A2, Velocity: 57
Note OFF: Time 319800, Note Name: A2
Note ON: Time 319800, Note Name: F#3, Velocity: 52
Note OFF: Time 319920, Note Name: F#3
Note ON: Time 319920, Note Name: D3, Velocity: 57
Note OFF: Time 320040, Note Name: D3
Note ON: Time 320040, Note Name: A3, Velocity: 52
Note OFF: Time 320160, Note Name: A3
Note ON: Time 320160, Note Name: F#3, Velocity: 57
Note OFF: Time 320280, Note Name: F#3
Note ON: Time 320280, Note Name: D4, Velocity: 49
Note OFF: Time 320400, Note Name: D4
Note ON: Time 320400, Note Name: B2, Velocity: 57
Note OFF: Time 320640, Note Name: B2
Note ON: Time 320640, Note Name: C#3, Velocity: 59
Note OFF: Time 320880, Note Name: C#3
Note ON: Time 320880, Note Name: D3, Velocity: 65
Note OFF: Time 321120, Note Name: D3
Note ON: Time 321120, Note Name: G1, Velocity: 80
Note OFF: Time 321360, Note Name: G1
Note ON: Time 321600, Note Name: C#3, Velocity: 71
Note OFF: Time 321680, Note Name: C#3
Note ON: Time 321680, Note Name: D3, Velocity: 63
Note OFF: Time 321760, Note Name: D3
Note ON: Time 321760, Note Name: C#3, Velocity: 71
Note OFF: Time 321840, Note Name: C#3
Note ON: Time 321840, Note Name: D3, Velocity: 62
Note OFF: Time 321920, Note Name: D3
Note ON: Time 321920, Note Name: C#3, Velocity: 71
Note OFF: Time 322000, Note Name: C#3
Note ON: Time 322000, Note Name: D3, Velocity: 63
Note OFF: Time 322080, Note Name: D3
Note ON: Time 322080, Note Name: C#3, Velocity: 71
Note OFF: Time 322160, Note Name: C#3
Note ON: Time 322160, Note Name: D3, Velocity: 65
Note OFF: Time 322240, Note Name: D3
Note ON: Time 322240, Note Name: C#3, Velocity: 71
Note OFF: Time 322320, Note Name: C#3
Note ON: Time 322320, Note Name: D3, Velocity: 65
Note OFF: Time 322380, Note Name: D3
Note ON: Time 322380, Note Name: C#3, Velocity: 65
Note OFF: Time 322440, Note Name: C#3
Note ON: Time 322440, Note Name: B2, Velocity: 65
Note OFF: Time 322500, Note Name: B2
Note ON: Time 322500, Note Name: C#3, Velocity: 65
Note OFF: Time 322560, Note Name: C#3
Note ON: Time 322560, Note Name: D3, Velocity: 73
Note OFF: Time 323040, Note Name: D3
Note ON: Time 323280, Note Name: D3, Velocity: 69
Note ON: Time 323400, Note Name: C#3, Velocity: 68
Note OFF: Time 323424, Note Name: D3
Note ON: Time 323520, Note Name: B2, Velocity: 66
Note OFF: Time 323544, Note Name: C#3
Note ON: Time 323640, Note Name: A2, Velocity: 65
Note OFF: Time 323664, Note Name: B2
Note ON: Time 323760, Note Name: G2, Velocity: 64
Note OFF: Time 323784, Note Name: A2
Note ON: Time 323880, Note Name: F#2, Velocity: 62
Note OFF: Time 323904, Note Name: G2
Note OFF: Time 324000, Note Name: F#2
Note ON: Time 324000, Note Name: B2, Velocity: 73
Note OFF: Time 324480, Note Name: B2
Note ON: Time 324720, Note Name: B2, Velocity: 69
Note ON: Time 324840, Note Name: A2, Velocity: 68
Note OFF: Time 324864, Note Name: B2
Note ON: Time 324960, Note Name: G2, Velocity: 66
Note OFF: Time 324984, Note Name: A2
Note ON: Time 325080, Note Name: F#2, Velocity: 65
Note OFF: Time 325104, Note Name: G2
Note ON: Time 325200, Note Name: E2, Velocity: 64
Note OFF: Time 325224, Note Name: F#2
Note ON: Time 325320, Note Name: D2, Velocity: 62
Note OFF: Time 325344, Note Name: E2
Note OFF: Time 325440, Note Name: D2
Note ON: Time 325440, Note Name: G2, Velocity: 73
Note OFF: Time 325920, Note Name: G2
Note ON: Time 326160, Note Name: G2, Velocity: 66
Note ON: Time 326280, Note Name: F#2, Velocity: 60
Note OFF: Time 326304, Note Name: G2
Note ON: Time 326400, Note Name: E2, Velocity: 66
Note OFF: Time 326424, Note Name: F#2
Note ON: Time 326520, Note Name: D#2, Velocity: 57
Note OFF: Time 326544, Note Name: E2
Note ON: Time 326640, Note Name: E2, Velocity: 57
Note OFF: Time 326664, Note Name: D#2
Note ON: Time 326760, Note Name: D2, Velocity: 57
Note OFF: Time 326784, Note Name: E2
Note ON: Time 326880, Note Name: C#2, Velocity: 66
Note OFF: Time 326904, Note Name: D2
Note ON: Time 327000, Note Name: D2, Velocity: 58
Note OFF: Time 327024, Note Name: C#2
Note ON: Time 327120, Note Name: C#2, Velocity: 58
Note OFF: Time 327144, Note Name: D2
Note ON: Time 327240, Note Name: B1, Velocity: 58
Note OFF: Time 327264, Note Name: C#2
Note ON: Time 327360, Note Name: A1, Velocity: 66
Note OFF: Time 327384, Note Name: B1
Note ON: Time 327480, Note Name: B1, Velocity: 61
Note OFF: Time 327504, Note Name: A1
Note ON: Time 327600, Note Name: C#2, Velocity: 61
Note OFF: Time 327624, Note Name: B1
Note ON: Time 327720, Note Name: D2, Velocity: 61
Note OFF: Time 327744, Note Name: C#2
Note ON: Time 327840, Note Name: D#2, Velocity: 66
Note OFF: Time 327864, Note Name: D2
Note ON: Time 327960, Note Name: E2, Velocity: 58
Note OFF: Time 327984, Note Name: D#2
Note ON: Time 328080, Note Name: F#2, Velocity: 58
Note OFF: Time 328104, Note Name: E2
Note ON: Time 328200, Note Name: E2, Velocity: 58
Note OFF: Time 328224, Note Name: F#2
Note ON: Time 328320, Note Name: D2, Velocity: 66
Note OFF: Time 328344, Note Name: E2
Note ON: Time 328440, Note Name: E2, Velocity: 58
Note OFF: Time 328464, Note Name: D2
Note ON: Time 328560, Note Name: D2, Velocity: 58
Note OFF: Time 328584, Note Name: E2
Note ON: Time 328680, Note Name: C#2, Velocity: 58
Note OFF: Time 328704, Note Name: D2
Note ON: Time 328800, Note Name: B1, Velocity: 66
Note OFF: Time 328824, Note Name: C#2
Note ON: Time 328920, Note Name: C#2, Velocity: 61
Note OFF: Time 328944, Note Name: B1
Note ON: Time 329040, Note Name: D2, Velocity: 61
Note OFF: Time 329064, Note Name: C#2
Note ON: Time 329160, Note Name: E2, Velocity: 61
Note OFF: Time 329184, Note Name: D2
Note ON: Time 329280, Note Name: F2, Velocity: 66
Note OFF: Time 329304, Note Name: E2
Note ON: Time 329400, Note Name: F#2, Velocity: 58
Note OFF: Time 329424, Note Name: F2
Note ON: Time 329520, Note Name: G2, Velocity: 58
Note OFF: Time 329544, Note Name: F#2
Note ON: Time 329640, Note Name: F#2, Velocity: 58
Note OFF: Time 329664, Note Name: G2
Note ON: Time 329760, Note Name: E2, Velocity: 66
Note OFF: Time 329784, Note Name: F#2
Note ON: Time 329880, Note Name: F2, Velocity: 58
Note OFF: Time 329904, Note Name: E2
Note ON: Time 330000, Note Name: E2, Velocity: 58
Note OFF: Time 330024, Note Name: F2
Note ON: Time 330120, Note Name: D2, Velocity: 58
Note OFF: Time 330144, Note Name: E2
Note ON: Time 330240, Note Name: C2, Velocity: 66
Note OFF: Time 330264, Note Name: D2
Note ON: Time 330360, Note Name: D2, Velocity: 61
Note OFF: Time 330384, Note Name: C2
Note ON: Time 330480, Note Name: E2, Velocity: 61
Note OFF: Time 330504, Note Name: D2
Note ON: Time 330600, Note Name: F2, Velocity: 61
Note OFF: Time 330624, Note Name: E2
Note ON: Time 330720, Note Name: F#2, Velocity: 66
Note OFF: Time 330744, Note Name: F2
Note ON: Time 330840, Note Name: G2, Velocity: 58
Note OFF: Time 330864, Note Name: F#2
Note ON: Time 330960, Note Name: A2, Velocity: 58
Note OFF: Time 330984, Note Name: G2
Note ON: Time 331080, Note Name: G2, Velocity: 58
Note OFF: Time 331104, Note Name: A2
Note ON: Time 331200, Note Name: F#2, Velocity: 66
Note OFF: Time 331224, Note Name: G2
Note ON: Time 331320, Note Name: G2, Velocity: 58
Note OFF: Time 331344, Note Name: F#2
Note ON: Time 331440, Note Name: F#2, Velocity: 58
Note OFF: Time 331464, Note Name: G2
Note ON: Time 331560, Note Name: E2, Velocity: 58
Note OFF: Time 331584, Note Name: F#2
Note ON: Time 331680, Note Name: D2, Velocity: 66
Note OFF: Time 331704, Note Name: E2
Note ON: Time 331800, Note Name: E2, Velocity: 61
Note OFF: Time 331824, Note Name: D2
Note ON: Time 331920, Note Name: F#2, Velocity: 61
Note OFF: Time 331944, Note Name: E2
Note ON: Time 332040, Note Name: G2, Velocity: 61
Note OFF: Time 332064, Note Name: F#2
Note ON: Time 332160, Note Name: G#2, Velocity: 66
Note OFF: Time 332184, Note Name: G2
Note ON: Time 332280, Note Name: A2, Velocity: 58
Note OFF: Time 332304, Note Name: G#2
Note ON: Time 332400, Note Name: B2, Velocity: 58
Note OFF: Time 332424, Note Name: A2
Note ON: Time 332520, Note Name: A2, Velocity: 58
Note OFF: Time 332544, Note Name: B2
Note OFF: Time 332640, Note Name: A2
Note ON: Time 332640, Note Name: G2, Velocity: 58
Note OFF: Time 332880, Note Name: G2
Note ON: Time 332880, Note Name: B3, Velocity: 54
Note ON: Time 333000, Note Name: A3, Velocity: 54
Note OFF: Time 333024, Note Name: B3
Note ON: Time 333120, Note Name: G3, Velocity: 64
Note OFF: Time 333144, Note Name: A3
Note ON: Time 333240, Note Name: A3, Velocity: 57
Note OFF: Time 333360, Note Name: G3
Note ON: Time 333360, Note Name: F3, Velocity: 57
Note ON: Time 333360, Note Name: B3, Velocity: 57
Note OFF: Time 333384, Note Name: A3
Note ON: Time 333480, Note Name: C4, Velocity: 57
Note OFF: Time 333504, Note Name: B3
Note OFF: Time 333600, Note Name: F3
Note ON: Time 333600, Note Name: C#4, Velocity: 64
Note ON: Time 333600, Note Name: E3, Velocity: 64
Note OFF: Time 333624, Note Name: C4
Note ON: Time 333720, Note Name: D4, Velocity: 57
Note OFF: Time 333744, Note Name: C#4
Note OFF: Time 333840, Note Name: E3
Note ON: Time 333840, Note Name: G#3, Velocity: 57
Note OFF: Time 333864, Note Name: D4
Note ON: Time 333960, Note Name: D4, Velocity: 57
Note OFF: Time 333984, Note Name: G#3
Note OFF: Time 334080, Note Name: D4
Note ON: Time 334080, Note Name: G#3, Velocity: 53
Note ON: Time 334080, Note Name: C4, Velocity: 49
Note OFF: Time 334200, Note Name: C4
Note ON: Time 334200, Note Name: D4, Velocity: 44
Note OFF: Time 334320, Note Name: D4
Note ON: Time 334320, Note Name: C4, Velocity: 49
Note OFF: Time 334440, Note Name: C4
Note ON: Time 334440, Note Name: B3, Velocity: 44
Note OFF: Time 334560, Note Name: B3
Note OFF: Time 334560, Note Name: G#3
Note ON: Time 334560, Note Name: A3, Velocity: 48
Note ON: Time 334680, Note Name: B3, Velocity: 44
Note OFF: Time 334800, Note Name: B3
Note OFF: Time 334800, Note Name: A3
Note ON: Time 334800, Note Name: C4, Velocity: 49
Note ON: Time 334800, Note Name: G3, Velocity: 48
Note OFF: Time 334920, Note Name: C4
Note ON: Time 334920, Note Name: D4, Velocity: 44
Note OFF: Time 335040, Note Name: D4
Note OFF: Time 335040, Note Name: G3
Note ON: Time 335040, Note Name: D#4, Velocity: 49
Note ON: Time 335040, Note Name: F#3, Velocity: 55
Note OFF: Time 335160, Note Name: D#4
Note ON: Time 335160, Note Name: E4, Velocity: 45
Note OFF: Time 335280, Note Name: E4
Note OFF: Time 335280, Note Name: F#3
Note ON: Time 335280, Note Name: A#3, Velocity: 49
Note OFF: Time 335400, Note Name: A#3
Note ON: Time 335400, Note Name: E4, Velocity: 46
Note OFF: Time 335520, Note Name: E4
Note ON: Time 335520, Note Name: D4, Velocity: 49
Note ON: Time 335520, Note Name: A#3, Velocity: 51
Note OFF: Time 335640, Note Name: D4
Note ON: Time 335640, Note Name: E4, Velocity: 45
Note OFF: Time 335760, Note Name: E4
Note ON: Time 335760, Note Name: D4, Velocity: 49
Note OFF: Time 335880, Note Name: D4
Note ON: Time 335880, Note Name: C#4, Velocity: 43
Note OFF: Time 336000, Note Name: C#4
Note OFF: Time 336000, Note Name: A#3
Note ON: Time 336000, Note Name: B3, Velocity: 48
Note ON: Time 336120, Note Name: C#4, Velocity: 42
Note OFF: Time 336240, Note Name: C#4
Note OFF: Time 336240, Note Name: B3
Note ON: Time 336240, Note Name: A3, Velocity: 48
Note ON: Time 336240, Note Name: D4, Velocity: 49
Note OFF: Time 336360, Note Name: D4
Note ON: Time 336360, Note Name: E4, Velocity: 45
Note OFF: Time 336480, Note Name: E4
Note OFF: Time 336480, Note Name: A3
Note ON: Time 336480, Note Name: F4, Velocity: 49
Note ON: Time 336480, Note Name: G3, Velocity: 55
Note OFF: Time 336600, Note Name: F4
Note ON: Time 336600, Note Name: F#4, Velocity: 45
Note OFF: Time 336720, Note Name: F#4
Note OFF: Time 336720, Note Name: G3
Note ON: Time 336720, Note Name: G4, Velocity: 49
Note OFF: Time 336840, Note Name: G4
Note ON: Time 336840, Note Name: F4, Velocity: 45
Note OFF: Time 336960, Note Name: F4
Note ON: Time 336960, Note Name: E4, Velocity: 49
Note ON: Time 336960, Note Name: B3, Velocity: 53
Note OFF: Time 337080, Note Name: E4
Note ON: Time 337080, Note Name: F4, Velocity: 45
Note OFF: Time 337200, Note Name: F4
Note ON: Time 337200, Note Name: E4, Velocity: 49
Note OFF: Time 337320, Note Name: E4
Note ON: Time 337320, Note Name: D4, Velocity: 45
Note OFF: Time 337440, Note Name: D4
Note OFF: Time 337440, Note Name: B3
Note ON: Time 337440, Note Name: C4, Velocity: 48
Note ON: Time 337560, Note Name: D4, Velocity: 49
Note OFF: Time 337680, Note Name: D4
Note OFF: Time 337680, Note Name: C4
Note ON: Time 337680, Note Name: E4, Velocity: 49
Note ON: Time 337680, Note Name: B3, Velocity: 50
Note OFF: Time 337800, Note Name: E4
Note ON: Time 337800, Note Name: D4, Velocity: 47
Note OFF: Time 337920, Note Name: D4
Note OFF: Time 337920, Note Name: B3
Note ON: Time 337920, Note Name: A3, Velocity: 51
Note ON: Time 337920, Note Name: C4, Velocity: 49
Note OFF: Time 338040, Note Name: C4
Note ON: Time 338040, Note Name: D4, Velocity: 47
Note OFF: Time 338160, Note Name: D4
Note OFF: Time 338160, Note Name: A3
Note ON: Time 338160, Note Name: C4, Velocity: 49
Note ON: Time 338160, Note Name: G3, Velocity: 52
Note OFF: Time 338280, Note Name: C4
Note ON: Time 338280, Note Name: B3, Velocity: 48
Note OFF: Time 338400, Note Name: B3
Note OFF: Time 338400, Note Name: G3
Note ON: Time 338400, Note Name: A3, Velocity: 49
Note ON: Time 338400, Note Name: F#3, Velocity: 54
Note OFF: Time 338520, Note Name: A3
Note ON: Time 338520, Note Name: B3, Velocity: 49
Note OFF: Time 338640, Note Name: B3
Note OFF: Time 338640, Note Name: F#3
Note ON: Time 338640, Note Name: E3, Velocity: 56
Note ON: Time 338640, Note Name: A3, Velocity: 49
Note OFF: Time 338760, Note Name: A3
Note ON: Time 338760, Note Name: G3, Velocity: 50
Note OFF: Time 338880, Note Name: G3
Note OFF: Time 338880, Note Name: E3
Note ON: Time 338880, Note Name: F#3, Velocity: 57
Note ON: Time 338880, Note Name: D#3, Velocity: 49
Note OFF: Time 339000, Note Name: D#3
Note ON: Time 339000, Note Name: D3, Velocity: 49
Note OFF: Time 339120, Note Name: D3
Note ON: Time 339120, Note Name: C3, Velocity: 54
Note OFF: Time 339240, Note Name: C3
Note ON: Time 339240, Note Name: D3, Velocity: 49
Note OFF: Time 339360, Note Name: D3
Note OFF: Time 339360, Note Name: F#3
Note ON: Time 339360, Note Name: D#3, Velocity: 53
Note OFF: Time 339480, Note Name: D#3
Note ON: Time 339480, Note Name: D3, Velocity: 49
Note OFF: Time 339600, Note Name: D3
Note ON: Time 339600, Note Name: D#3, Velocity: 53
Note OFF: Time 339720, Note Name: D#3
Note ON: Time 339720, Note Name: C3, Velocity: 49
Note OFF: Time 339840, Note Name: C3
Note ON: Time 340080, Note Name: B3, Velocity: 65
Note OFF: Time 340200, Note Name: B3
Note ON: Time 340320, Note Name: B2, Velocity: 73
Note ON: Time 340560, Note Name: A3, Velocity: 57
Note OFF: Time 340800, Note Name: A3
Note ON: Time 340800, Note Name: G3, Velocity: 63
Note OFF: Time 341040, Note Name: B2
Note OFF: Time 341280, Note Name: G3
Note ON: Time 341520, Note Name: G3, Velocity: 64
Note OFF: Time 341640, Note Name: G3
Note ON: Time 341760, Note Name: G2, Velocity: 69
Note ON: Time 342000, Note Name: F#3, Velocity: 53
Note OFF: Time 342240, Note Name: F#3
Note ON: Time 342240, Note Name: E3, Velocity: 61
Note OFF: Time 342480, Note Name: E3
Note OFF: Time 342480, Note Name: G2
Note ON: Time 342480, Note Name: D3, Velocity: 53
Note ON: Time 342480, Note Name: B2, Velocity: 53
Note OFF: Time 342720, Note Name: B2
Note OFF: Time 342720, Note Name: D3
Note ON: Time 342720, Note Name: A2, Velocity: 53
Note ON: Time 342720, Note Name: C3, Velocity: 53
Note OFF: Time 342960, Note Name: C3
Note OFF: Time 342960, Note Name: A2
Note ON: Time 342960, Note Name: C4, Velocity: 65
Note OFF: Time 343200, Note Name: C4
Note ON: Time 343200, Note Name: C3, Velocity: 53
Note ON: Time 343200, Note Name: E3, Velocity: 53
Note OFF: Time 343440, Note Name: E3
Note OFF: Time 343440, Note Name: C3
Note ON: Time 343440, Note Name: D3, Velocity: 50
Note ON: Time 343440, Note Name: B2, Velocity: 50
Note OFF: Time 343680, Note Name: B2
Note OFF: Time 343680, Note Name: D3
Note ON: Time 343680, Note Name: A2, Velocity: 53
Note ON: Time 343680, Note Name: C3, Velocity: 53
Note OFF: Time 343920, Note Name: C3
Note OFF: Time 343920, Note Name: A2
Note ON: Time 343920, Note Name: G2, Velocity: 50
Note ON: Time 343920, Note Name: B2, Velocity: 50
Note OFF: Time 344160, Note Name: B2
Note OFF: Time 344160, Note Name: G2
Note ON: Time 344160, Note Name: F#2, Velocity: 59
Note ON: Time 344160, Note Name: A2, Velocity: 59
Note OFF: Time 344400, Note Name: F#2
Note ON: Time 344400, Note Name: D#3, Velocity: 53
Note OFF: Time 344640, Note Name: D#3
Note OFF: Time 344640, Note Name: A2
Note ON: Time 344640, Note Name: D3, Velocity: 63
Note ON: Time 344880, Note Name: E3, Velocity: 53
Note OFF: Time 345120, Note Name: E3
Note ON: Time 345120, Note Name: F#3, Velocity: 53
Note OFF: Time 345360, Note Name: F#3
Note ON: Time 345360, Note Name: G3, Velocity: 53
Note OFF: Time 345600, Note Name: G3
Note ON: Time 345600, Note Name: A3, Velocity: 53
Note OFF: Time 345840, Note Name: A3
Note ON: Time 345840, Note Name: B3, Velocity: 56
Note OFF: Time 346080, Note Name: B3
Note ON: Time 346080, Note Name: C4, Velocity: 60
Note OFF: Time 346320, Note Name: C4
Note OFF: Time 346320, Note Name: D3
Note ON: Time 346320, Note Name: D3, Velocity: 53
Note ON: Time 346320, Note Name: B3, Velocity: 53
Note OFF: Time 346560, Note Name: B3
Note OFF: Time 346560, Note Name: D3
Note ON: Time 346560, Note Name: A3, Velocity: 53
Note ON: Time 346560, Note Name: C3, Velocity: 53
Note OFF: Time 346800, Note Name: C3
Note OFF: Time 346800, Note Name: A3
Note ON: Time 346800, Note Name: G3, Velocity: 49
Note ON: Time 346800, Note Name: B2, Velocity: 49
Note OFF: Time 347040, Note Name: B2
Note ON: Time 347040, Note Name: C3, Velocity: 53
Note OFF: Time 347280, Note Name: G3
Note ON: Time 347280, Note Name: C4, Velocity: 53
Note OFF: Time 347520, Note Name: C3
Note ON: Time 347520, Note Name: D3, Velocity: 58
Note OFF: Time 347760, Note Name: C4
Note ON: Time 347760, Note Name: B3, Velocity: 53
Note OFF: Time 348000, Note Name: B3
Note OFF: Time 348000, Note Name: D3
Note ON: Time 348000, Note Name: A#3, Velocity: 64
Note ON: Time 348000, Note Name: E3, Velocity: 64
Note OFF: Time 348120, Note Name: A#3
Note ON: Time 348120, Note Name: G4, Velocity: 55
Note OFF: Time 348240, Note Name: G4
Note ON: Time 348240, Note Name: F#4, Velocity: 56
Note OFF: Time 348360, Note Name: F#4
Note ON: Time 348360, Note Name: G4, Velocity: 56
Note OFF: Time 348480, Note Name: G4
Note OFF: Time 348480, Note Name: E3
Note ON: Time 348480, Note Name: F#3, Velocity: 61
Note ON: Time 348600, Note Name: A3, Velocity: 56
Note OFF: Time 348624, Note Name: F#3
Note ON: Time 348720, Note Name: G3, Velocity: 56
Note OFF: Time 348744, Note Name: A3
Note ON: Time 348840, Note Name: F#3, Velocity: 56
Note OFF: Time 348864, Note Name: G3
Note ON: Time 348960, Note Name: E3, Velocity: 60
Note OFF: Time 348984, Note Name: F#3
Note ON: Time 349080, Note Name: D3, Velocity: 55
Note OFF: Time 349104, Note Name: E3
Note ON: Time 349200, Note Name: E3, Velocity: 55
Note OFF: Time 349224, Note Name: D3
Note ON: Time 349320, Note Name: F#3, Velocity: 55
Note OFF: Time 349344, Note Name: E3
Note ON: Time 349440, Note Name: G3, Velocity: 61
Note OFF: Time 349464, Note Name: F#3
Note ON: Time 349560, Note Name: D3, Velocity: 55
Note OFF: Time 349584, Note Name: G3
Note ON: Time 349680, Note Name: G3, Velocity: 55
Note OFF: Time 349704, Note Name: D3
Note ON: Time 349800, Note Name: F#3, Velocity: 55
Note OFF: Time 349824, Note Name: G3
Note ON: Time 349920, Note Name: E3, Velocity: 60
Note OFF: Time 349944, Note Name: F#3
Note ON: Time 350040, Note Name: F#3, Velocity: 53
Note OFF: Time 350064, Note Name: E3
Note ON: Time 350160, Note Name: E3, Velocity: 53
Note OFF: Time 350184, Note Name: F#3
Note ON: Time 350280, Note Name: D3, Velocity: 53
Note OFF: Time 350304, Note Name: E3
Note ON: Time 350400, Note Name: C#3, Velocity: 60
Note OFF: Time 350424, Note Name: D3
Note ON: Time 350520, Note Name: D3, Velocity: 54
Note OFF: Time 350544, Note Name: C#3
Note ON: Time 350640, Note Name: C#3, Velocity: 55
Note OFF: Time 350664, Note Name: D3
Note ON: Time 350760, Note Name: B2, Velocity: 55
Note OFF: Time 350784, Note Name: C#3
Note OFF: Time 350880, Note Name: B2
Note ON: Time 350880, Note Name: D3, Velocity: 60
Note ON: Time 350880, Note Name: A2, Velocity: 60
Note OFF: Time 350960, Note Name: D3
Note ON: Time 350960, Note Name: E3, Velocity: 55
Note OFF: Time 351040, Note Name: E3
Note ON: Time 351040, Note Name: D3, Velocity: 60
Note OFF: Time 351120, Note Name: D3
Note OFF: Time 351120, Note Name: A2
Note ON: Time 351120, Note Name: E3, Velocity: 55
Note ON: Time 351120, Note Name: G#2, Velocity: 55
Note OFF: Time 351200, Note Name: E3
Note ON: Time 351200, Note Name: D3, Velocity: 60
Note OFF: Time 351280, Note Name: D3
Note ON: Time 351280, Note Name: E3, Velocity: 54
Note OFF: Time 351360, Note Name: E3
Note OFF: Time 351360, Note Name: G#2
Note ON: Time 351360, Note Name: D3, Velocity: 60
Note ON: Time 351360, Note Name: A2, Velocity: 63
Note OFF: Time 351440, Note Name: D3
Note ON: Time 351440, Note Name: E3, Velocity: 56
Note OFF: Time 351520, Note Name: E3
Note ON: Time 351520, Note Name: D3, Velocity: 60
Note OFF: Time 351600, Note Name: D3
Note ON: Time 351600, Note Name: E3, Velocity: 60
Note OFF: Time 351660, Note Name: E3
Note ON: Time 351660, Note Name: D3, Velocity: 55
Note OFF: Time 351720, Note Name: D3
Note ON: Time 351720, Note Name: C#3, Velocity: 55
Note OFF: Time 351780, Note Name: C#3
Note ON: Time 351780, Note Name: D3, Velocity: 55
Note OFF: Time 351840, Note Name: D3
Note ON: Time 351840, Note Name: C#3, Velocity: 60
Note OFF: Time 352320, Note Name: C#3
Note OFF: Time 352320, Note Name: A2
Note ON: Time 352560, Note Name: D3, Velocity: 61
Note ON: Time 352560, Note Name: B2, Velocity: 61
Note OFF: Time 352680, Note Name: D3
Note ON: Time 352680, Note Name: E3, Velocity: 56
Note OFF: Time 352800, Note Name: E3
Note OFF: Time 352800, Note Name: B2
Note ON: Time 352800, Note Name: A2, Velocity: 60
Note ON: Time 352800, Note Name: F#3, Velocity: 60
Note OFF: Time 352920, Note Name: F#3
Note ON: Time 352920, Note Name: G3, Velocity: 62
Note OFF: Time 353040, Note Name: G3
Note ON: Time 353040, Note Name: A3, Velocity: 64
Note OFF: Time 353160, Note Name: A3
Note ON: Time 353160, Note Name: B3, Velocity: 66
Note OFF: Time 353280, Note Name: B3
Note OFF: Time 353280, Note Name: A2
Note ON: Time 353280, Note Name: F#3, Velocity: 66
Note OFF: Time 353760, Note Name: F#3
Note ON: Time 354000, Note Name: G2, Velocity: 61
Note ON: Time 354000, Note Name: F#3, Velocity: 61
Note OFF: Time 354120, Note Name: F#3
Note ON: Time 354120, Note Name: G3, Velocity: 56
Note OFF: Time 354240, Note Name: G3
Note OFF: Time 354240, Note Name: G2
Note ON: Time 354240, Note Name: F#3, Velocity: 60
Note ON: Time 354240, Note Name: A3, Velocity: 60
Note OFF: Time 354360, Note Name: A3
Note ON: Time 354360, Note Name: B3, Velocity: 62
Note OFF: Time 354480, Note Name: B3
Note ON: Time 354480, Note Name: C#4, Velocity: 64
Note OFF: Time 354600, Note Name: C#4
Note ON: Time 354600, Note Name: D4, Velocity: 66
Note OFF: Time 354720, Note Name: D4
Note OFF: Time 354720, Note Name: F#3
Note ON: Time 354720, Note Name: A3, Velocity: 66
Note OFF: Time 355200, Note Name: A3
Note ON: Time 355440, Note Name: D3, Velocity: 53
Note ON: Time 355440, Note Name: A3, Velocity: 53
Note OFF: Time 355560, Note Name: A3
Note ON: Time 355560, Note Name: B3, Velocity: 47
Note OFF: Time 355680, Note Name: B3
Note OFF: Time 355680, Note Name: D3
Note ON: Time 355680, Note Name: E3, Velocity: 53
Note OFF: Time 355800, Note Name: E3
Note ON: Time 355800, Note Name: D#3, Velocity: 47
Note OFF: Time 355920, Note Name: D#3
Note ON: Time 355920, Note Name: E3, Velocity: 47
Note OFF: Time 356040, Note Name: E3
Note ON: Time 356040, Note Name: F#3, Velocity: 47
Note OFF: Time 356160, Note Name: F#3
Note ON: Time 356160, Note Name: G3, Velocity: 53
Note OFF: Time 356280, Note Name: G3
Note ON: Time 356280, Note Name: F#3, Velocity: 47
Note OFF: Time 356400, Note Name: F#3
Note ON: Time 356400, Note Name: G3, Velocity: 47
Note OFF: Time 356520, Note Name: G3
Note ON: Time 356520, Note Name: A3, Velocity: 47
Note OFF: Time 356640, Note Name: A3
Note ON: Time 356640, Note Name: B3, Velocity: 53
Note OFF: Time 356760, Note Name: B3
Note ON: Time 356760, Note Name: A3, Velocity: 47
Note OFF: Time 356880, Note Name: A3
Note ON: Time 356880, Note Name: G3, Velocity: 47
Note OFF: Time 357000, Note Name: G3
Note ON: Time 357000, Note Name: G#3, Velocity: 47
Note OFF: Time 357120, Note Name: G#3
Note ON: Time 357120, Note Name: A2, Velocity: 47
Note ON: Time 357120, Note Name: A3, Velocity: 47
Note OFF: Time 357240, Note Name: A3
Note ON: Time 357240, Note Name: G#3, Velocity: 42
Note OFF: Time 357360, Note Name: G#3
Note OFF: Time 357360, Note Name: A2
Note ON: Time 357360, Note Name: A3, Velocity: 46
Note OFF: Time 357480, Note Name: A3
Note ON: Time 357480, Note Name: B3, Velocity: 49
Note OFF: Time 357600, Note Name: B3
Note ON: Time 357600, Note Name: C#4, Velocity: 53
Note OFF: Time 357840, Note Name: C#4
Note ON: Time 357840, Note Name: C#3, Velocity: 47
Note ON: Time 357840, Note Name: A2, Velocity: 47
Note OFF: Time 357960, Note Name: C#3
Note ON: Time 357960, Note Name: D3, Velocity: 41
Note OFF: Time 358080, Note Name: D3
Note ON: Time 358080, Note Name: E3, Velocity: 52
Note OFF: Time 358320, Note Name: A2
Note ON: Time 358320, Note Name: B2, Velocity: 40
Note OFF: Time 358560, Note Name: B2
Note ON: Time 358560, Note Name: C#3, Velocity: 53
Note OFF: Time 358800, Note Name: C#3
Note OFF: Time 358800, Note Name: E3
Note ON: Time 358800, Note Name: F#3, Velocity: 47
Note ON: Time 358800, Note Name: D3, Velocity: 47
Note OFF: Time 358920, Note Name: F#3
Note ON: Time 358920, Note Name: G3, Velocity: 42
Note OFF: Time 359040, Note Name: G3
Note ON: Time 359040, Note Name: A3, Velocity: 47
Note OFF: Time 359160, Note Name: A3
Note ON: Time 359160, Note Name: G3, Velocity: 41
Note OFF: Time 359280, Note Name: G3
Note ON: Time 359280, Note Name: F#3, Velocity: 41
Note OFF: Time 359400, Note Name: F#3
Note ON: Time 359400, Note Name: E3, Velocity: 41
Note OFF: Time 359520, Note Name: E3
Note OFF: Time 359520, Note Name: D3
Note ON: Time 359520, Note Name: D3, Velocity: 47
Note OFF: Time 359640, Note Name: D3
Note ON: Time 359640, Note Name: E3, Velocity: 43
Note OFF: Time 359760, Note Name: E3
Note ON: Time 359760, Note Name: F#3, Velocity: 43
Note OFF: Time 359880, Note Name: F#3
Note ON: Time 359880, Note Name: G3, Velocity: 43
Note OFF: Time 360000, Note Name: G3
Note ON: Time 360000, Note Name: A3, Velocity: 43
Note OFF: Time 360120, Note Name: A3
Note ON: Time 360120, Note Name: B3, Velocity: 39
Note OFF: Time 360240, Note Name: B3
Note ON: Time 360240, Note Name: C4, Velocity: 43
Note OFF: Time 360360, Note Name: C4
Note ON: Time 360360, Note Name: D4, Velocity: 39
Note OFF: Time 360480, Note Name: D4
Note ON: Time 360480, Note Name: E4, Velocity: 49
Note OFF: Time 360600, Note Name: E4
Note ON: Time 360600, Note Name: D4, Velocity: 43
Note OFF: Time 360720, Note Name: D4
Note ON: Time 360720, Note Name: D3, Velocity: 43
Note OFF: Time 360960, Note Name: D3
Note ON: Time 360960, Note Name: G3, Velocity: 46
Note OFF: Time 361080, Note Name: G3
Note ON: Time 361080, Note Name: B3, Velocity: 40
Note OFF: Time 361200, Note Name: B3
Note ON: Time 361200, Note Name: G3, Velocity: 46
Note OFF: Time 361320, Note Name: G3
Note ON: Time 361320, Note Name: E3, Velocity: 43
Note OFF: Time 361440, Note Name: E3
Note ON: Time 361440, Note Name: F#3, Velocity: 43
Note OFF: Time 361560, Note Name: F#3
Note ON: Time 361560, Note Name: E3, Velocity: 39
Note OFF: Time 361680, Note Name: E3
Note ON: Time 361680, Note Name: F#3, Velocity: 43
Note OFF: Time 361800, Note Name: F#3
Note ON: Time 361800, Note Name: G3, Velocity: 39
Note OFF: Time 361920, Note Name: G3
Note ON: Time 361920, Note Name: A3, Velocity: 49
Note OFF: Time 362040, Note Name: A3
Note ON: Time 362040, Note Name: B3, Velocity: 43
Note OFF: Time 362160, Note Name: B3
Note ON: Time 362160, Note Name: B2, Velocity: 43
Note OFF: Time 362400, Note Name: B2
Note ON: Time 362400, Note Name: E3, Velocity: 52
Note OFF: Time 362880, Note Name: E3
Note ON: Time 362880, Note Name: E3, Velocity: 43
Note OFF: Time 363000, Note Name: E3
Note ON: Time 363000, Note Name: D3, Velocity: 39
Note OFF: Time 363120, Note Name: D3
Note ON: Time 363120, Note Name: E3, Velocity: 43
Note OFF: Time 363240, Note Name: E3
Note ON: Time 363240, Note Name: F#3, Velocity: 39
Note OFF: Time 363360, Note Name: F#3
Note ON: Time 363360, Note Name: G3, Velocity: 49
Note OFF: Time 363480, Note Name: G3
Note ON: Time 363480, Note Name: A3, Velocity: 43
Note OFF: Time 363600, Note Name: A3
Note ON: Time 363600, Note Name: A2, Velocity: 43
Note OFF: Time 363840, Note Name: A2
Note ON: Time 363840, Note Name: D3, Velocity: 52
Note OFF: Time 364320, Note Name: D3
Note ON: Time 364320, Note Name: A3, Velocity: 66
Note OFF: Time 364400, Note Name: A3
Note ON: Time 364400, Note Name: B3, Velocity: 59
Note OFF: Time 364480, Note Name: B3
Note ON: Time 364480, Note Name: A3, Velocity: 63
Note OFF: Time 364560, Note Name: A3
Note ON: Time 364560, Note Name: B3, Velocity: 58
Note OFF: Time 364640, Note Name: B3
Note ON: Time 364640, Note Name: A3, Velocity: 60
Note OFF: Time 364720, Note Name: A3
Note ON: Time 364720, Note Name: B3, Velocity: 57
Note OFF: Time 364800, Note Name: B3
Note ON: Time 364800, Note Name: A3, Velocity: 59
Note OFF: Time 364880, Note Name: A3
Note ON: Time 364880, Note Name: B3, Velocity: 53
Note OFF: Time 364960, Note Name: B3
Note ON: Time 364960, Note Name: A3, Velocity: 59
Note OFF: Time 365040, Note Name: A3
Note ON: Time 365040, Note Name: B3, Velocity: 54
Note OFF: Time 365120, Note Name: B3
Note ON: Time 365120, Note Name: A3, Velocity: 58
Note OFF: Time 365200, Note Name: A3
Note ON: Time 365200, Note Name: B3, Velocity: 57
Note OFF: Time 365280, Note Name: B3
Note ON: Time 365280, Note Name: G#3, Velocity: 54
Note OFF: Time 365400, Note Name: G#3
Note ON: Time 365400, Note Name: B3, Velocity: 42
Note OFF: Time 365520, Note Name: B3
Note ON: Time 365520, Note Name: G#3, Velocity: 50
Note OFF: Time 365640, Note Name: G#3
Note ON: Time 365640, Note Name: E3, Velocity: 40
Note OFF: Time 365760, Note Name: E3
Note ON: Time 365760, Note Name: G3, Velocity: 66
Note OFF: Time 365840, Note Name: G3
Note ON: Time 365840, Note Name: A3, Velocity: 59
Note OFF: Time 365920, Note Name: A3
Note ON: Time 365920, Note Name: G3, Velocity: 63
Note OFF: Time 366000, Note Name: G3
Note ON: Time 366000, Note Name: A3, Velocity: 58
Note OFF: Time 366080, Note Name: A3
Note ON: Time 366080, Note Name: G3, Velocity: 60
Note OFF: Time 366160, Note Name: G3
Note ON: Time 366160, Note Name: A3, Velocity: 57
Note OFF: Time 366240, Note Name: A3
Note ON: Time 366240, Note Name: G3, Velocity: 59
Note OFF: Time 366320, Note Name: G3
Note ON: Time 366320, Note Name: A3, Velocity: 53
Note OFF: Time 366400, Note Name: A3
Note ON: Time 366400, Note Name: G3, Velocity: 59
Note OFF: Time 366480, Note Name: G3
Note ON: Time 366480, Note Name: A3, Velocity: 54
Note OFF: Time 366560, Note Name: A3
Note ON: Time 366560, Note Name: G3, Velocity: 58
Note OFF: Time 366640, Note Name: G3
Note ON: Time 366640, Note Name: A3, Velocity: 57
Note OFF: Time 366720, Note Name: A3
Note ON: Time 366720, Note Name: F#3, Velocity: 54
Note OFF: Time 366840, Note Name: F#3
Note ON: Time 366840, Note Name: A3, Velocity: 42
Note OFF: Time 366960, Note Name: A3
Note ON: Time 366960, Note Name: F#3, Velocity: 50
Note OFF: Time 367080, Note Name: F#3
Note ON: Time 367080, Note Name: D3, Velocity: 40
Note OFF: Time 367200, Note Name: D3
Note ON: Time 367200, Note Name: F3, Velocity: 66
Note OFF: Time 367280, Note Name: F3
Note ON: Time 367280, Note Name: G3, Velocity: 59
Note OFF: Time 367360, Note Name: G3
Note ON: Time 367360, Note Name: F3, Velocity: 63
Note OFF: Time 367440, Note Name: F3
Note ON: Time 367440, Note Name: G3, Velocity: 58
Note OFF: Time 367520, Note Name: G3
Note ON: Time 367520, Note Name: F3, Velocity: 60
Note OFF: Time 367600, Note Name: F3
Note ON: Time 367600, Note Name: G3, Velocity: 57
Note OFF: Time 367680, Note Name: G3
Note ON: Time 367680, Note Name: F3, Velocity: 59
Note OFF: Time 367760, Note Name: F3
Note ON: Time 367760, Note Name: G3, Velocity: 53
Note OFF: Time 367840, Note Name: G3
Note ON: Time 367840, Note Name: F3, Velocity: 59
Note OFF: Time 367920, Note Name: F3
Note ON: Time 367920, Note Name: G3, Velocity: 54
Note OFF: Time 368000, Note Name: G3
Note ON: Time 368000, Note Name: F3, Velocity: 58
Note OFF: Time 368080, Note Name: F3
Note ON: Time 368080, Note Name: G3, Velocity: 57
Note OFF: Time 368160, Note Name: G3
Note ON: Time 368160, Note Name: D#3, Velocity: 54
Note OFF: Time 368280, Note Name: D#3
Note ON: Time 368280, Note Name: G3, Velocity: 49
Note OFF: Time 368400, Note Name: G3
Note ON: Time 368400, Note Name: D#3, Velocity: 59
Note OFF: Time 368520, Note Name: D#3
Note ON: Time 368520, Note Name: C3, Velocity: 54
Note OFF: Time 368640, Note Name: C3
Note ON: Time 368640, Note Name: G#3, Velocity: 73
Note OFF: Time 368880, Note Name: G#3
Note ON: Time 369120, Note Name: F2, Velocity: 66
Note OFF: Time 369200, Note Name: F2
Note ON: Time 369200, Note Name: G2, Velocity: 59
Note OFF: Time 369280, Note Name: G2
Note ON: Time 369280, Note Name: F2, Velocity: 63
Note OFF: Time 369360, Note Name: F2
Note ON: Time 369360, Note Name: G2, Velocity: 58
Note OFF: Time 369440, Note Name: G2
Note ON: Time 369440, Note Name: F2, Velocity: 60
Note OFF: Time 369520, Note Name: F2
Note ON: Time 369520, Note Name: G2, Velocity: 57
Note OFF: Time 369600, Note Name: G2
Note ON: Time 369600, Note Name: F2, Velocity: 59
Note OFF: Time 369680, Note Name: F2
Note ON: Time 369680, Note Name: G2, Velocity: 53
Note OFF: Time 369760, Note Name: G2
Note ON: Time 369760, Note Name: F2, Velocity: 59
Note OFF: Time 369840, Note Name: F2
Note ON: Time 369840, Note Name: G2, Velocity: 54
Note OFF: Time 369920, Note Name: G2
Note ON: Time 369920, Note Name: F2, Velocity: 58
Note OFF: Time 370000, Note Name: F2
Note ON: Time 370000, Note Name: G2, Velocity: 57
Note OFF: Time 370080, Note Name: G2
Note ON: Time 370080, Note Name: D#2, Velocity: 63
Note OFF: Time 370560, Note Name: D#2
Note ON: Time 370800, Note Name: D#2, Velocity: 53
Note ON: Time 370920, Note Name: F2, Velocity: 54
Note OFF: Time 370944, Note Name: D#2
Note ON: Time 371040, Note Name: G2, Velocity: 56
Note OFF: Time 371064, Note Name: F2
Note ON: Time 371160, Note Name: G#2, Velocity: 57
Note OFF: Time 371184, Note Name: G2
Note ON: Time 371280, Note Name: A#2, Velocity: 59
Note OFF: Time 371304, Note Name: G#2
Note ON: Time 371400, Note Name: C3, Velocity: 60
Note OFF: Time 371424, Note Name: A#2
Note OFF: Time 371520, Note Name: C3
Note ON: Time 371520, Note Name: G2, Velocity: 67
Note OFF: Time 371760, Note Name: G2
Note ON: Time 372240, Note Name: G2, Velocity: 53
Note ON: Time 372360, Note Name: G#2, Velocity: 54
Note OFF: Time 372384, Note Name: G2
Note ON: Time 372480, Note Name: A#2, Velocity: 56
Note OFF: Time 372504, Note Name: G#2
Note ON: Time 372600, Note Name: C3, Velocity: 57
Note OFF: Time 372624, Note Name: A#2
Note ON: Time 372720, Note Name: D3, Velocity: 59
Note OFF: Time 372744, Note Name: C3
Note ON: Time 372840, Note Name: D#3, Velocity: 60
Note OFF: Time 372864, Note Name: D3
Note OFF: Time 372960, Note Name: D#3
Note ON: Time 372960, Note Name: A#2, Velocity: 67
Note OFF: Time 373200, Note Name: A#2
Note ON: Time 373680, Note Name: A#2, Velocity: 53
Note ON: Time 373800, Note Name: C3, Velocity: 54
Note OFF: Time 373824, Note Name: A#2
Note ON: Time 373920, Note Name: D3, Velocity: 56
Note OFF: Time 373944, Note Name: C3
Note ON: Time 374040, Note Name: C3, Velocity: 57
Note OFF: Time 374064, Note Name: D3
Note ON: Time 374160, Note Name: D3, Velocity: 59
Note OFF: Time 374184, Note Name: C3
Note ON: Time 374280, Note Name: D#3, Velocity: 60
Note OFF: Time 374304, Note Name: D3
Note ON: Time 374400, Note Name: F3, Velocity: 62
Note OFF: Time 374424, Note Name: D#3
Note ON: Time 374520, Note Name: E3, Velocity: 56
Note OFF: Time 374544, Note Name: F3
Note ON: Time 374640, Note Name: F3, Velocity: 56
Note OFF: Time 374664, Note Name: E3
Note ON: Time 374760, Note Name: G3, Velocity: 56
Note OFF: Time 374784, Note Name: F3
Note ON: Time 374880, Note Name: G#3, Velocity: 63
Note OFF: Time 374904, Note Name: G3
Note ON: Time 375000, Note Name: G3, Velocity: 54
Note OFF: Time 375024, Note Name: G#3
Note ON: Time 375120, Note Name: F3, Velocity: 54
Note OFF: Time 375144, Note Name: G3
Note ON: Time 375240, Note Name: D#3, Velocity: 54
Note OFF: Time 375264, Note Name: F3
Note ON: Time 375360, Note Name: D3, Velocity: 61
Note OFF: Time 375384, Note Name: D#3
Note ON: Time 375480, Note Name: D#3, Velocity: 54
Note OFF: Time 375504, Note Name: D3
Note ON: Time 375600, Note Name: D3, Velocity: 54
Note OFF: Time 375624, Note Name: D#3
Note ON: Time 375720, Note Name: C3, Velocity: 54
Note OFF: Time 375744, Note Name: D3
Note ON: Time 375840, Note Name: A#2, Velocity: 56
Note OFF: Time 375864, Note Name: C3
Note ON: Time 375960, Note Name: C3, Velocity: 51
Note OFF: Time 375984, Note Name: A#2
Note ON: Time 376080, Note Name: A#2, Velocity: 51
Note OFF: Time 376104, Note Name: C3
Note ON: Time 376200, Note Name: G#2, Velocity: 51
Note OFF: Time 376224, Note Name: A#2
Note ON: Time 376320, Note Name: G2, Velocity: 56
Note OFF: Time 376344, Note Name: G#2
Note ON: Time 376440, Note Name: G#2, Velocity: 50
Note OFF: Time 376464, Note Name: G2
Note ON: Time 376560, Note Name: A#2, Velocity: 50
Note OFF: Time 376584, Note Name: G#2
Note ON: Time 376680, Note Name: C3, Velocity: 50
Note OFF: Time 376704, Note Name: A#2
Note ON: Time 376800, Note Name: D3, Velocity: 59
Note OFF: Time 376824, Note Name: C3
Note ON: Time 376920, Note Name: D#3, Velocity: 52
Note OFF: Time 376944, Note Name: D3
Note ON: Time 377040, Note Name: F3, Velocity: 57
Note OFF: Time 377064, Note Name: D#3
Note ON: Time 377160, Note Name: G3, Velocity: 62
Note OFF: Time 377184, Note Name: F3
Note OFF: Time 377280, Note Name: G3
Note ON: Time 377280, Note Name: G#2, Velocity: 60
Note ON: Time 377400, Note Name: A#2, Velocity: 61
Note OFF: Time 377424, Note Name: G#2
Note ON: Time 377520, Note Name: C3, Velocity: 62
Note OFF: Time 377544, Note Name: A#2
Note ON: Time 377640, Note Name: C#3, Velocity: 63
Note OFF: Time 377664, Note Name: C3
Note ON: Time 377760, Note Name: D#3, Velocity: 64
Note OFF: Time 377784, Note Name: C#3
Note OFF: Time 377880, Note Name: D#3
Note ON: Time 377880, Note Name: F3, Velocity: 65
Note OFF: Time 378000, Note Name: F3
Note ON: Time 378000, Note Name: G3, Velocity: 66
Note OFF: Time 378120, Note Name: G3
Note ON: Time 378120, Note Name: G#3, Velocity: 67
Note OFF: Time 378240, Note Name: G#3
Note ON: Time 378240, Note Name: A#3, Velocity: 69
Note OFF: Time 378360, Note Name: A#3
Note ON: Time 378360, Note Name: B3, Velocity: 70
Note OFF: Time 378480, Note Name: B3
Note ON: Time 378480, Note Name: C4, Velocity: 71
Note OFF: Time 378720, Note Name: C4
Note ON: Time 378720, Note Name: G#5, Velocity: 82
Note OFF: Time 378958, Note Name: G#5
Note ON: Time 379200, Note Name: F4, Velocity: 75
Note OFF: Time 379280, Note Name: F4
Note ON: Time 379280, Note Name: G4, Velocity: 67
Note OFF: Time 379360, Note Name: G4
Note ON: Time 379360, Note Name: F4, Velocity: 72
Note OFF: Time 379440, Note Name: F4
Note ON: Time 379440, Note Name: G4, Velocity: 62
Note OFF: Time 379520, Note Name: G4
Note ON: Time 379520, Note Name: F4, Velocity: 67
Note OFF: Time 379600, Note Name: F4
Note ON: Time 379600, Note Name: G4, Velocity: 61
Note OFF: Time 379680, Note Name: G4
Note ON: Time 379680, Note Name: F4, Velocity: 67
Note OFF: Time 379760, Note Name: F4
Note ON: Time 379760, Note Name: G4, Velocity: 62
Note OFF: Time 379840, Note Name: G4
Note ON: Time 379840, Note Name: F4, Velocity: 67
Note OFF: Time 379920, Note Name: F4
Note ON: Time 379920, Note Name: G4, Velocity: 61
Note OFF: Time 380000, Note Name: G4
Note ON: Time 380000, Note Name: F4, Velocity: 67
Note OFF: Time 380080, Note Name: F4
Note ON: Time 380080, Note Name: G4, Velocity: 62
Note OFF: Time 380160, Note Name: G4
Note ON: Time 380160, Note Name: G3, Velocity: 60
Note ON: Time 380280, Note Name: G#3, Velocity: 61
Note OFF: Time 380304, Note Name: G3
Note ON: Time 380400, Note Name: A#3, Velocity: 62
Note OFF: Time 380424, Note Name: G#3
Note ON: Time 380520, Note Name: C4, Velocity: 63
Note OFF: Time 380544, Note Name: A#3
Note ON: Time 380640, Note Name: D4, Velocity: 64
Note OFF: Time 380664, Note Name: C4
Note OFF: Time 380760, Note Name: D4
Note ON: Time 380760, Note Name: D#4, Velocity: 65
Note OFF: Time 380880, Note Name: D#4
Note ON: Time 380880, Note Name: F4, Velocity: 66
Note OFF: Time 381000, Note Name: F4
Note ON: Time 381000, Note Name: G4, Velocity: 67
Note OFF: Time 381120, Note Name: G4
Note ON: Time 381120, Note Name: G#4, Velocity: 69
Note OFF: Time 381240, Note Name: G#4
Note ON: Time 381240, Note Name: A4, Velocity: 70
Note OFF: Time 381360, Note Name: A4
Note ON: Time 381360, Note Name: A#4, Velocity: 71
Note OFF: Time 381600, Note Name: A#4
Note ON: Time 381600, Note Name: G3, Velocity: 93
Note OFF: Time 381840, Note Name: G3
Note ON: Time 382080, Note Name: D#2, Velocity: 75
Note OFF: Time 382160, Note Name: D#2
Note ON: Time 382160, Note Name: F2, Velocity: 67
Note OFF: Time 382240, Note Name: F2
Note ON: Time 382240, Note Name: D#2, Velocity: 72
Note OFF: Time 382320, Note Name: D#2
Note ON: Time 382320, Note Name: F2, Velocity: 62
Note OFF: Time 382400, Note Name: F2
Note ON: Time 382400, Note Name: D#2, Velocity: 67
Note OFF: Time 382480, Note Name: D#2
Note ON: Time 382480, Note Name: F2, Velocity: 61
Note OFF: Time 382560, Note Name: F2
Note ON: Time 382560, Note Name: D#2, Velocity: 67
Note OFF: Time 382640, Note Name: D#2
Note ON: Time 382640, Note Name: F2, Velocity: 62
Note OFF: Time 382720, Note Name: F2
Note ON: Time 382720, Note Name: D#2, Velocity: 67
Note OFF: Time 382800, Note Name: D#2
Note ON: Time 382800, Note Name: F2, Velocity: 61
Note OFF: Time 382880, Note Name: F2
Note ON: Time 382880, Note Name: D#2, Velocity: 67
Note OFF: Time 382960, Note Name: D#2
Note ON: Time 382960, Note Name: F2, Velocity: 62
Note OFF: Time 383040, Note Name: F2
Note ON: Time 383040, Note Name: A#1, Velocity: 97
Note OFF: Time 383280, Note Name: A#1
Note ON: Time 383520, Note Name: D3, Velocity: 75
Note OFF: Time 383600, Note Name: D3
Note ON: Time 383600, Note Name: D#3, Velocity: 67
Note OFF: Time 383680, Note Name: D#3
Note ON: Time 383680, Note Name: D3, Velocity: 72
Note OFF: Time 383760, Note Name: D3
Note ON: Time 383760, Note Name: D#3, Velocity: 62
Note OFF: Time 383840, Note Name: D#3
Note ON: Time 383840, Note Name: D3, Velocity: 67
Note OFF: Time 383920, Note Name: D3
Note ON: Time 383920, Note Name: D#3, Velocity: 61
Note OFF: Time 384000, Note Name: D#3
Note ON: Time 384000, Note Name: D3, Velocity: 67
Note OFF: Time 384080, Note Name: D3
Note ON: Time 384080, Note Name: D#3, Velocity: 62
Note OFF: Time 384160, Note Name: D#3
Note ON: Time 384160, Note Name: D3, Velocity: 67
Note OFF: Time 384240, Note Name: D3
Note ON: Time 384240, Note Name: D#3, Velocity: 61
Note OFF: Time 384320, Note Name: D#3
Note ON: Time 384320, Note Name: D3, Velocity: 67
Note OFF: Time 384400, Note Name: D3
Note ON: Time 384400, Note Name: D#3, Velocity: 62
Note OFF: Time 384480, Note Name: D#3
Note ON: Time 384480, Note Name: D#2, Velocity: 94
Note OFF: Time 384720, Note Name: D#2
Note ON: Time 384960, Note Name: G3, Velocity: 75
Note OFF: Time 385040, Note Name: G3
Note ON: Time 385040, Note Name: G#3, Velocity: 67
Note OFF: Time 385120, Note Name: G#3
Note ON: Time 385120, Note Name: G3, Velocity: 72
Note OFF: Time 385200, Note Name: G3
Note ON: Time 385200, Note Name: G#3, Velocity: 62
Note OFF: Time 385280, Note Name: G#3
Note ON: Time 385280, Note Name: G3, Velocity: 67
Note OFF: Time 385360, Note Name: G3
Note ON: Time 385360, Note Name: G#3, Velocity: 61
Note OFF: Time 385440, Note Name: G#3
Note ON: Time 385440, Note Name: G3, Velocity: 67
Note OFF: Time 385520, Note Name: G3
Note ON: Time 385520, Note Name: G#3, Velocity: 62
Note OFF: Time 385600, Note Name: G#3
Note ON: Time 385600, Note Name: G3, Velocity: 67
Note OFF: Time 385680, Note Name: G3
Note ON: Time 385680, Note Name: G#3, Velocity: 61
Note OFF: Time 385760, Note Name: G#3
Note ON: Time 385760, Note Name: G3, Velocity: 67
Note OFF: Time 385840, Note Name: G3
Note ON: Time 385840, Note Name: G#3, Velocity: 62
Note OFF: Time 385920, Note Name: G#3
Note ON: Time 385920, Note Name: C2, Velocity: 98
Note OFF: Time 386160, Note Name: C2
Note ON: Time 386400, Note Name: E3, Velocity: 75
Note OFF: Time 386480, Note Name: E3
Note ON: Time 386480, Note Name: F3, Velocity: 67
Note OFF: Time 386560, Note Name: F3
Note ON: Time 386560, Note Name: E3, Velocity: 72
Note OFF: Time 386640, Note Name: E3
Note ON: Time 386640, Note Name: F3, Velocity: 62
Note OFF: Time 386720, Note Name: F3
Note ON: Time 386720, Note Name: E3, Velocity: 67
Note OFF: Time 386800, Note Name: E3
Note ON: Time 386800, Note Name: F3, Velocity: 61
Note OFF: Time 386880, Note Name: F3
Note ON: Time 386880, Note Name: E3, Velocity: 67
Note OFF: Time 386960, Note Name: E3
Note ON: Time 386960, Note Name: F3, Velocity: 62
Note OFF: Time 387040, Note Name: F3
Note ON: Time 387040, Note Name: E3, Velocity: 67
Note OFF: Time 387120, Note Name: E3
Note ON: Time 387120, Note Name: F3, Velocity: 61
Note OFF: Time 387200, Note Name: F3
Note ON: Time 387200, Note Name: E3, Velocity: 67
Note OFF: Time 387280, Note Name: E3
Note ON: Time 387280, Note Name: F3, Velocity: 62
Note OFF: Time 387360, Note Name: F3
Note ON: Time 387360, Note Name: F2, Velocity: 95
Note OFF: Time 387600, Note Name: F2
Note ON: Time 387840, Note Name: G#3, Velocity: 75
Note OFF: Time 387920, Note Name: G#3
Note ON: Time 387920, Note Name: A#3, Velocity: 67
Note OFF: Time 388000, Note Name: A#3
Note ON: Time 388000, Note Name: G#3, Velocity: 72
Note OFF: Time 388080, Note Name: G#3
Note ON: Time 388080, Note Name: A#3, Velocity: 62
Note OFF: Time 388160, Note Name: A#3
Note ON: Time 388160, Note Name: G#3, Velocity: 67
Note OFF: Time 388240, Note Name: G#3
Note ON: Time 388240, Note Name: A#3, Velocity: 61
Note OFF: Time 388320, Note Name: A#3
Note ON: Time 388320, Note Name: G#3, Velocity: 67
Note OFF: Time 388400, Note Name: G#3
Note ON: Time 388400, Note Name: A#3, Velocity: 62
Note OFF: Time 388480, Note Name: A#3
Note ON: Time 388480, Note Name: G#3, Velocity: 67
Note OFF: Time 388560, Note Name: G#3
Note ON: Time 388560, Note Name: A#3, Velocity: 61
Note OFF: Time 388640, Note Name: A#3
Note ON: Time 388640, Note Name: G#3, Velocity: 67
Note OFF: Time 388720, Note Name: G#3
Note ON: Time 388720, Note Name: A#3, Velocity: 62
Note OFF: Time 388800, Note Name: A#3
Note ON: Time 388800, Note Name: G3, Velocity: 73
Note OFF: Time 389040, Note Name: G3
Note ON: Time 389040, Note Name: B3, Velocity: 65
Note OFF: Time 389160, Note Name: B3
Note ON: Time 389280, Note Name: G2, Velocity: 62
Note OFF: Time 389340, Note Name: G2
Note ON: Time 389340, Note Name: G#2, Velocity: 54
Note OFF: Time 389400, Note Name: G#2
Note ON: Time 389400, Note Name: G2, Velocity: 61
Note OFF: Time 389460, Note Name: G2
Note ON: Time 389460, Note Name: G#2, Velocity: 54
Note OFF: Time 389520, Note Name: G#2
Note ON: Time 390000, Note Name: D#4, Velocity: 64
Note OFF: Time 390120, Note Name: D#4
Note ON: Time 390240, Note Name: C3, Velocity: 62
Note OFF: Time 390300, Note Name: C3
Note ON: Time 390300, Note Name: D3, Velocity: 54
Note OFF: Time 390360, Note Name: D3
Note ON: Time 390360, Note Name: C3, Velocity: 61
Note OFF: Time 390420, Note Name: C3
Note ON: Time 390420, Note Name: D3, Velocity: 54
Note OFF: Time 390480, Note Name: D3
Note ON: Time 390960, Note Name: A3, Velocity: 66
Note OFF: Time 391080, Note Name: A3
Note ON: Time 391200, Note Name: F#2, Velocity: 65
Note OFF: Time 391260, Note Name: F#2
Note ON: Time 391260, Note Name: G2, Velocity: 57
Note OFF: Time 391320, Note Name: G2
Note ON: Time 391320, Note Name: F#2, Velocity: 65
Note OFF: Time 391380, Note Name: F#2
Note ON: Time 391380, Note Name: G2, Velocity: 57
Note OFF: Time 391440, Note Name: G2
Note ON: Time 391920, Note Name: A#3, Velocity: 68
Note OFF: Time 392040, Note Name: A#3
Note ON: Time 392160, Note Name: G2, Velocity: 69
Note OFF: Time 392220, Note Name: G2
Note ON: Time 392220, Note Name: G#2, Velocity: 61
Note OFF: Time 392280, Note Name: G#2
Note ON: Time 392280, Note Name: G2, Velocity: 68
Note OFF: Time 392340, Note Name: G2
Note ON: Time 392340, Note Name: G#2, Velocity: 61
Note OFF: Time 392400, Note Name: G#2
Note ON: Time 392880, Note Name: E4, Velocity: 75
Note OFF: Time 393000, Note Name: E4
Note ON: Time 393120, Note Name: C#3, Velocity: 75
Note OFF: Time 393180, Note Name: C#3
Note ON: Time 393180, Note Name: D3, Velocity: 65
Note OFF: Time 393240, Note Name: D3
Note ON: Time 393240, Note Name: C#3, Velocity: 74
Note OFF: Time 393300, Note Name: C#3
Note ON: Time 393300, Note Name: D3, Velocity: 66
Note OFF: Time 393360, Note Name: D3
Note ON: Time 393840, Note Name: A3, Velocity: 82
Note OFF: Time 393960, Note Name: A3
Note ON: Time 394080, Note Name: F3, Velocity: 67
Note OFF: Time 394200, Note Name: F3
Note ON: Time 394320, Note Name: D3, Velocity: 69
Note OFF: Time 394440, Note Name: D3
Note ON: Time 394560, Note Name: A2, Velocity: 70
Note OFF: Time 394680, Note Name: A2
Note ON: Time 394800, Note Name: F2, Velocity: 72
Note OFF: Time 394920, Note Name: F2
Note ON: Time 395040, Note Name: D2, Velocity: 73
Note OFF: Time 395160, Note Name: D2
Note ON: Time 395280, Note Name: A1, Velocity: 57
Note ON: Time 395280, Note Name: A2, Velocity: 68
Note OFF: Time 395400, Note Name: A2
Note OFF: Time 395400, Note Name: A1
Note ON: Time 395520, Note Name: A#2, Velocity: 70
Note ON: Time 395520, Note Name: A#1, Velocity: 58
Note OFF: Time 395640, Note Name: A#1
Note OFF: Time 395640, Note Name: A#2
Note ON: Time 395760, Note Name: A#1, Velocity: 59
Note ON: Time 395760, Note Name: A#2, Velocity: 71
Note OFF: Time 395880, Note Name: A#2
Note OFF: Time 395880, Note Name: A#1
Note ON: Time 396000, Note Name: A1, Velocity: 60
Note ON: Time 396000, Note Name: C#2, Velocity: 60
Note ON: Time 396000, Note Name: A2, Velocity: 72
Note ON: Time 396000, Note Name: E2, Velocity: 60
Note OFF: Time 396120, Note Name: E2
Note OFF: Time 396120, Note Name: A1
Note OFF: Time 396120, Note Name: C#2
Note OFF: Time 396120, Note Name: A2
Note ON: Time 396480, Note Name: A1, Velocity: 65
Note ON: Time 396480, Note Name: A2, Velocity: 76
Note ON: Time 396480, Note Name: C#2, Velocity: 65
Note ON: Time 396480, Note Name: E2, Velocity: 65
Note OFF: Time 396600, Note Name: E2
Note OFF: Time 396600, Note Name: A1
Note OFF: Time 396600, Note Name: A2
Note OFF: Time 396600, Note Name: C#2
Note ON: Time 405120, Note Name: A3, Velocity: 44
Note ON: Time 405600, Note Name: G3, Velocity: 42
Note OFF: Time 405624, Note Name: A3
Note ON: Time 406080, Note Name: F#3, Velocity: 42
Note OFF: Time 406104, Note Name: G3
Note ON: Time 406560, Note Name: G3, Velocity: 44
Note OFF: Time 406584, Note Name: F#3
Note ON: Time 407040, Note Name: A3, Velocity: 44
Note OFF: Time 407064, Note Name: G3
Note OFF: Time 408000, Note Name: A3
Note ON: Time 408000, Note Name: G3, Velocity: 44
Note ON: Time 408480, Note Name: F#3, Velocity: 40
Note OFF: Time 408504, Note Name: G3
Note OFF: Time 408960, Note Name: F#3
Note ON: Time 408960, Note Name: B3, Velocity: 47
Note OFF: Time 409440, Note Name: B3
Note ON: Time 409440, Note Name: C#3, Velocity: 40
Note OFF: Time 409920, Note Name: C#3
Note ON: Time 409920, Note Name: D3, Velocity: 40
Note OFF: Time 410400, Note Name: D3
Note ON: Time 410400, Note Name: G2, Velocity: 43
Note OFF: Time 410880, Note Name: G2
Note ON: Time 410880, Note Name: G#2, Velocity: 41
Note OFF: Time 411360, Note Name: G#2
Note ON: Time 411360, Note Name: A2, Velocity: 41
Note OFF: Time 411840, Note Name: A2
Note ON: Time 411840, Note Name: B2, Velocity: 37
Note OFF: Time 412320, Note Name: B2
Note ON: Time 412320, Note Name: F#2, Velocity: 47
Note ON: Time 412800, Note Name: G#2, Velocity: 47
Note OFF: Time 412824, Note Name: F#2
Note ON: Time 413280, Note Name: A2, Velocity: 47
Note OFF: Time 413304, Note Name: G#2
Note ON: Time 413760, Note Name: B2, Velocity: 46
Note OFF: Time 413784, Note Name: A2
Note ON: Time 414240, Note Name: C#3, Velocity: 47
Note OFF: Time 414264, Note Name: B2
Note OFF: Time 414720, Note Name: C#3
Note ON: Time 414720, Note Name: D3, Velocity: 47
Note ON: Time 415200, Note Name: D4, Velocity: 44
Note OFF: Time 415224, Note Name: D3
Note ON: Time 415680, Note Name: C4, Velocity: 44
Note OFF: Time 415704, Note Name: D4
Note ON: Time 416160, Note Name: B3, Velocity: 47
Note OFF: Time 416184, Note Name: C4
Note ON: Time 416640, Note Name: C#4, Velocity: 39
Note OFF: Time 416664, Note Name: B3
Note ON: Time 417120, Note Name: D4, Velocity: 40
Note OFF: Time 417144, Note Name: C#4
Note OFF: Time 417600, Note Name: D4
Note ON: Time 417600, Note Name: G3, Velocity: 42
Note ON: Time 418080, Note Name: A3, Velocity: 44
Note OFF: Time 418104, Note Name: G3
Note ON: Time 418560, Note Name: B3, Velocity: 47
Note OFF: Time 418584, Note Name: A3
Note OFF: Time 419040, Note Name: B3
Note ON: Time 419040, Note Name: E3, Velocity: 47
Note ON: Time 419520, Note Name: F#3, Velocity: 41
Note OFF: Time 419544, Note Name: E3
Note ON: Time 420000, Note Name: G3, Velocity: 41
Note OFF: Time 420024, Note Name: F#3
Note ON: Time 420480, Note Name: G#3, Velocity: 47
Note OFF: Time 420504, Note Name: G3
Note ON: Time 420960, Note Name: A3, Velocity: 45
Note OFF: Time 420984, Note Name: G#3
Note ON: Time 421440, Note Name: G3, Velocity: 45
Note OFF: Time 421464, Note Name: A3
Note OFF: Time 421920, Note Name: G3
Note ON: Time 421920, Note Name: F#3, Velocity: 44
Note OFF: Time 422400, Note Name: F#3
Note ON: Time 422400, Note Name: B3, Velocity: 45
Note OFF: Time 422880, Note Name: B3
Note ON: Time 422880, Note Name: A3, Velocity: 45
Note OFF: Time 423360, Note Name: A3
Note ON: Time 423360, Note Name: G3, Velocity: 44
Note ON: Time 423840, Note Name: C#4, Velocity: 51
Note OFF: Time 424320, Note Name: G3
Note ON: Time 424320, Note Name: B3, Velocity: 47
Note ON: Time 424320, Note Name: F3, Velocity: 39
Note OFF: Time 424344, Note Name: C#4
Note ON: Time 424800, Note Name: F#3, Velocity: 44
Note ON: Time 424800, Note Name: A#3, Velocity: 51
Note OFF: Time 424824, Note Name: F3
Note OFF: Time 424824, Note Name: B3
Note OFF: Time 425280, Note Name: A#3
Note ON: Time 425280, Note Name: D4, Velocity: 54
Note OFF: Time 425760, Note Name: F#3
Note ON: Time 425760, Note Name: C#4, Velocity: 54
Note ON: Time 425760, Note Name: G#3, Velocity: 54
Note OFF: Time 425784, Note Name: D4
Note ON: Time 426000, Note Name: A#3, Velocity: 48
Note OFF: Time 426024, Note Name: G#3
Note ON: Time 426240, Note Name: B3, Velocity: 44
Note ON: Time 426240, Note Name: D4, Velocity: 54
Note OFF: Time 426264, Note Name: A#3
Note OFF: Time 426264, Note Name: C#4
Note OFF: Time 426720, Note Name: B3
Note OFF: Time 426720, Note Name: D4
Note ON: Time 426720, Note Name: A3, Velocity: 46
Note ON: Time 426720, Note Name: C#4, Velocity: 55
Note OFF: Time 427200, Note Name: C#4
Note ON: Time 427200, Note Name: C#4, Velocity: 45
Note ON: Time 427200, Note Name: E4, Velocity: 54
Note OFF: Time 427224, Note Name: A3
Note ON: Time 427680, Note Name: D4, Velocity: 47
Note ON: Time 427680, Note Name: F#4, Velocity: 56
Note OFF: Time 427704, Note Name: E4
Note OFF: Time 427704, Note Name: C#4
Note OFF: Time 428160, Note Name: D4
Note OFF: Time 428160, Note Name: F#4
Note ON: Time 428160, Note Name: F#3, Velocity: 52
Note OFF: Time 428640, Note Name: F#3
Note ON: Time 428640, Note Name: D#3, Velocity: 51
Note OFF: Time 429120, Note Name: D#3
Note ON: Time 429120, Note Name: E3, Velocity: 54
Note OFF: Time 429600, Note Name: E3
Note ON: Time 429600, Note Name: E4, Velocity: 53
Note ON: Time 430080, Note Name: D4, Velocity: 52
Note OFF: Time 430104, Note Name: E4
Note ON: Time 430560, Note Name: C#4, Velocity: 59
Note OFF: Time 430584, Note Name: D4
Note OFF: Time 431040, Note Name: C#4
Note ON: Time 431040, Note Name: A2, Velocity: 50
Note ON: Time 431520, Note Name: G2, Velocity: 47
Note OFF: Time 431544, Note Name: A2
Note ON: Time 432000, Note Name: F#2, Velocity: 48
Note OFF: Time 432024, Note Name: G2
Note OFF: Time 432480, Note Name: F#2
Note ON: Time 432480, Note Name: G#2, Velocity: 47
Note ON: Time 432960, Note Name: A2, Velocity: 47
Note OFF: Time 432984, Note Name: G#2
Note OFF: Time 433920, Note Name: A2
Note ON: Time 433920, Note Name: G#2, Velocity: 43
Note OFF: Time 434400, Note Name: G#2
Note ON: Time 434400, Note Name: E2, Velocity: 43
Note OFF: Time 434880, Note Name: E2
Note ON: Time 434880, Note Name: A2, Velocity: 47
Note OFF: Time 435360, Note Name: A2
Note ON: Time 435360, Note Name: A3, Velocity: 43
Note OFF: Time 435840, Note Name: A3
Note ON: Time 435840, Note Name: F#3, Velocity: 43
Note OFF: Time 436320, Note Name: F#3
Note ON: Time 436320, Note Name: G3, Velocity: 47
Note OFF: Time 437280, Note Name: G3
Note ON: Time 437280, Note Name: E3, Velocity: 47
Note OFF: Time 437760, Note Name: E3
Note ON: Time 437760, Note Name: D#3, Velocity: 42
Note OFF: Time 438240, Note Name: D#3
Note ON: Time 438240, Note Name: D3, Velocity: 46
Note OFF: Time 438720, Note Name: D3
Note ON: Time 438720, Note Name: C3, Velocity: 46
Note OFF: Time 439200, Note Name: C3
Note ON: Time 439200, Note Name: A3, Velocity: 44
Note ON: Time 439200, Note Name: F3, Velocity: 30
Note OFF: Time 439680, Note Name: F3
Note OFF: Time 439680, Note Name: A3
Note ON: Time 439680, Note Name: A#3, Velocity: 46
Note ON: Time 439680, Note Name: A#2, Velocity: 39
Note OFF: Time 440160, Note Name: A#2
Note OFF: Time 440160, Note Name: A#3
Note ON: Time 440160, Note Name: A#2, Velocity: 39
Note ON: Time 440160, Note Name: E3, Velocity: 46
Note OFF: Time 440640, Note Name: E3
Note OFF: Time 440640, Note Name: A#2
Note ON: Time 440640, Note Name: F3, Velocity: 46
Note ON: Time 440640, Note Name: A2, Velocity: 46
Note OFF: Time 441120, Note Name: A2
Note OFF: Time 441120, Note Name: F3
Note ON: Time 441120, Note Name: C3, Velocity: 46
Note OFF: Time 441600, Note Name: C3
Note ON: Time 441600, Note Name: F2, Velocity: 46
Note OFF: Time 442080, Note Name: F2
Note ON: Time 442080, Note Name: A#2, Velocity: 46
Note OFF: Time 442560, Note Name: A#2
Note ON: Time 444960, Note Name: G2, Velocity: 46
Note OFF: Time 445440, Note Name: G2
Note ON: Time 445440, Note Name: B3, Velocity: 50
Note OFF: Time 445520, Note Name: B3
Note ON: Time 445520, Note Name: C4, Velocity: 44
Note OFF: Time 445600, Note Name: C4
Note ON: Time 445600, Note Name: B3, Velocity: 50
Note OFF: Time 445680, Note Name: B3
Note ON: Time 445680, Note Name: C4, Velocity: 44
Note OFF: Time 445760, Note Name: C4
Note ON: Time 445760, Note Name: B3, Velocity: 51
Note OFF: Time 445840, Note Name: B3
Note ON: Time 445840, Note Name: C4, Velocity: 44
Note OFF: Time 445920, Note Name: C4
Note ON: Time 445920, Note Name: B3, Velocity: 51
Note OFF: Time 446000, Note Name: B3
Note ON: Time 446000, Note Name: C4, Velocity: 46
Note OFF: Time 446080, Note Name: C4
Note ON: Time 446080, Note Name: B3, Velocity: 52
Note OFF: Time 446160, Note Name: B3
Note ON: Time 446160, Note Name: C4, Velocity: 51
Note OFF: Time 446220, Note Name: C4
Note ON: Time 446220, Note Name: B3, Velocity: 48
Note OFF: Time 446280, Note Name: B3
Note ON: Time 446280, Note Name: A3, Velocity: 48
Note OFF: Time 446340, Note Name: A3
Note ON: Time 446340, Note Name: B3, Velocity: 48
Note OFF: Time 446400, Note Name: B3
Note ON: Time 446400, Note Name: C4, Velocity: 48
Note OFF: Time 446880, Note Name: C4
Note ON: Time 447120, Note Name: C4, Velocity: 47
Note ON: Time 447240, Note Name: A#3, Velocity: 43
Note OFF: Time 447264, Note Name: C4
Note ON: Time 447360, Note Name: A3, Velocity: 47
Note OFF: Time 447384, Note Name: A#3
Note ON: Time 447480, Note Name: G3, Velocity: 46
Note OFF: Time 447504, Note Name: A3
Note ON: Time 447600, Note Name: F3, Velocity: 44
Note OFF: Time 447624, Note Name: G3
Note ON: Time 447720, Note Name: E3, Velocity: 42
Note OFF: Time 447744, Note Name: F3
Note OFF: Time 447840, Note Name: E3
Note ON: Time 447840, Note Name: A3, Velocity: 53
Note OFF: Time 448320, Note Name: A3
Note ON: Time 448560, Note Name: A3, Velocity: 52
Note ON: Time 448680, Note Name: G3, Velocity: 47
Note OFF: Time 448704, Note Name: A3
Note ON: Time 448800, Note Name: F3, Velocity: 51
Note OFF: Time 448824, Note Name: G3
Note ON: Time 448920, Note Name: E3, Velocity: 50
Note OFF: Time 448944, Note Name: F3
Note ON: Time 449040, Note Name: D3, Velocity: 48
Note OFF: Time 449064, Note Name: E3
Note ON: Time 449160, Note Name: C3, Velocity: 46
Note OFF: Time 449184, Note Name: D3
Note OFF: Time 449280, Note Name: C3
Note ON: Time 449280, Note Name: F3, Velocity: 57
Note OFF: Time 449760, Note Name: F3
Note ON: Time 450000, Note Name: F3, Velocity: 56
Note ON: Time 450120, Note Name: E3, Velocity: 51
Note OFF: Time 450144, Note Name: F3
Note ON: Time 450240, Note Name: D3, Velocity: 55
Note OFF: Time 450264, Note Name: E3
Note ON: Time 450360, Note Name: C3, Velocity: 54
Note OFF: Time 450384, Note Name: D3
Note ON: Time 450480, Note Name: A#2, Velocity: 52
Note OFF: Time 450504, Note Name: C3
Note ON: Time 450600, Note Name: A2, Velocity: 49
Note OFF: Time 450624, Note Name: A#2
Note OFF: Time 450720, Note Name: A2
Note ON: Time 450720, Note Name: C3, Velocity: 57
Note ON: Time 450840, Note Name: A#2, Velocity: 57
Note OFF: Time 450864, Note Name: C3
Note ON: Time 450960, Note Name: A2, Velocity: 57
Note OFF: Time 450984, Note Name: A#2
Note ON: Time 451080, Note Name: G2, Velocity: 58
Note OFF: Time 451104, Note Name: A2
Note OFF: Time 451200, Note Name: G2
Note ON: Time 451200, Note Name: F2, Velocity: 81
Note ON: Time 451200, Note Name: F1, Velocity: 71
Note OFF: Time 451680, Note Name: F1
Note OFF: Time 451680, Note Name: F2
Note ON: Time 451680, Note Name: D#2, Velocity: 72
Note ON: Time 451680, Note Name: D#1, Velocity: 63
Note OFF: Time 452160, Note Name: D#1
Note OFF: Time 452160, Note Name: D#2
Note ON: Time 452160, Note Name: D1, Velocity: 71
Note ON: Time 452160, Note Name: D2, Velocity: 81
Note OFF: Time 452640, Note Name: D2
Note OFF: Time 452640, Note Name: D1
Note ON: Time 452640, Note Name: D#2, Velocity: 73
Note ON: Time 452640, Note Name: D#1, Velocity: 64
Note OFF: Time 453120, Note Name: D#1
Note OFF: Time 453120, Note Name: D#2
Note ON: Time 453120, Note Name: F1, Velocity: 63
Note ON: Time 453120, Note Name: F2, Velocity: 72
Note OFF: Time 453600, Note Name: F2
Note OFF: Time 453600, Note Name: F1
Note ON: Time 453600, Note Name: D#2, Velocity: 81
Note ON: Time 453600, Note Name: D#1, Velocity: 71
Note OFF: Time 454080, Note Name: D#1
Note OFF: Time 454080, Note Name: D#2
Note ON: Time 454080, Note Name: F2, Velocity: 71
Note ON: Time 454080, Note Name: F1, Velocity: 62
Note OFF: Time 454560, Note Name: F1
Note OFF: Time 454560, Note Name: F2
Note ON: Time 454560, Note Name: G1, Velocity: 62
Note ON: Time 454560, Note Name: G2, Velocity: 71
Note OFF: Time 455040, Note Name: G2
Note OFF: Time 455040, Note Name: G1
Note ON: Time 455040, Note Name: E2, Velocity: 80
Note ON: Time 455040, Note Name: E1, Velocity: 70
Note OFF: Time 455520, Note Name: E1
Note OFF: Time 455520, Note Name: E2
Note ON: Time 455520, Note Name: F1, Velocity: 60
Note ON: Time 455520, Note Name: F2, Velocity: 69
Note OFF: Time 456000, Note Name: F2
Note OFF: Time 456000, Note Name: F1
Note ON: Time 456000, Note Name: G1, Velocity: 60
Note ON: Time 456000, Note Name: G2, Velocity: 69
Note OFF: Time 456480, Note Name: G2
Note OFF: Time 456480, Note Name: G1
Note ON: Time 456480, Note Name: F1, Velocity: 67
Note ON: Time 456480, Note Name: F2, Velocity: 77
Note OFF: Time 456960, Note Name: F2
Note OFF: Time 456960, Note Name: F1
Note ON: Time 456960, Note Name: G1, Velocity: 59
Note ON: Time 456960, Note Name: G2, Velocity: 67
Note OFF: Time 457440, Note Name: G2
Note OFF: Time 457440, Note Name: G1
Note ON: Time 457440, Note Name: A2, Velocity: 67
Note ON: Time 457440, Note Name: A1, Velocity: 59
Note OFF: Time 457920, Note Name: A1
Note OFF: Time 457920, Note Name: A2
Note ON: Time 457920, Note Name: F#1, Velocity: 64
Note ON: Time 457920, Note Name: F#2, Velocity: 73
Note OFF: Time 458400, Note Name: F#2
Note OFF: Time 458400, Note Name: F#1
Note ON: Time 458400, Note Name: G2, Velocity: 65
Note ON: Time 458400, Note Name: G1, Velocity: 57
Note OFF: Time 458880, Note Name: G1
Note OFF: Time 458880, Note Name: G2
Note ON: Time 458880, Note Name: A2, Velocity: 65
Note ON: Time 458880, Note Name: A1, Velocity: 57
Note OFF: Time 459360, Note Name: A1
Note OFF: Time 459360, Note Name: A2
Note ON: Time 459360, Note Name: G2, Velocity: 72
Note ON: Time 459360, Note Name: G1, Velocity: 63
Note OFF: Time 459840, Note Name: G1
Note OFF: Time 459840, Note Name: G2
Note ON: Time 459840, Note Name: A1, Velocity: 57
Note ON: Time 459840, Note Name: A2, Velocity: 65
Note OFF: Time 460320, Note Name: A2
Note OFF: Time 460320, Note Name: A1
Note ON: Time 460320, Note Name: A#1, Velocity: 69
Note OFF: Time 460440, Note Name: A#1
Note ON: Time 460440, Note Name: A#2, Velocity: 65
Note OFF: Time 460560, Note Name: A#2
Note ON: Time 460560, Note Name: C3, Velocity: 65
Note OFF: Time 460680, Note Name: C3
Note ON: Time 460680, Note Name: A#2, Velocity: 61
Note OFF: Time 460800, Note Name: A#2
Note ON: Time 460800, Note Name: A2, Velocity: 65
Note OFF: Time 460920, Note Name: A2
Note ON: Time 460920, Note Name: G2, Velocity: 69
Note OFF: Time 461040, Note Name: G2
Note ON: Time 461040, Note Name: F2, Velocity: 69
Note OFF: Time 461160, Note Name: F2
Note ON: Time 461160, Note Name: E2, Velocity: 69
Note OFF: Time 461280, Note Name: E2
Note ON: Time 461280, Note Name: G2, Velocity: 69
Note OFF: Time 461400, Note Name: G2
Note ON: Time 461400, Note Name: F2, Velocity: 65
Note OFF: Time 461520, Note Name: F2
Note ON: Time 461520, Note Name: E3, Velocity: 65
Note OFF: Time 461640, Note Name: E3
Note ON: Time 461640, Note Name: D3, Velocity: 65
Note OFF: Time 461760, Note Name: D3
Note ON: Time 461760, Note Name: C3, Velocity: 65
Note OFF: Time 461880, Note Name: C3
Note ON: Time 461880, Note Name: A#2, Velocity: 63
Note OFF: Time 462000, Note Name: A#2
Note ON: Time 462000, Note Name: A2, Velocity: 65
Note OFF: Time 462120, Note Name: A2
Note ON: Time 462120, Note Name: G2, Velocity: 60
Note OFF: Time 462240, Note Name: G2
Note ON: Time 462240, Note Name: F2, Velocity: 69
Note OFF: Time 462360, Note Name: F2
Note ON: Time 462360, Note Name: E2, Velocity: 71
Note OFF: Time 462480, Note Name: E2
Note ON: Time 462480, Note Name: D2, Velocity: 73
Note OFF: Time 462600, Note Name: D2
Note ON: Time 462600, Note Name: C2, Velocity: 75
Note OFF: Time 462720, Note Name: C2
Note ON: Time 463200, Note Name: G2, Velocity: 71
Note OFF: Time 463280, Note Name: G2
Note ON: Time 463280, Note Name: A2, Velocity: 65
Note OFF: Time 463360, Note Name: A2
Note ON: Time 463360, Note Name: G2, Velocity: 71
Note OFF: Time 463440, Note Name: G2
Note ON: Time 463440, Note Name: A2, Velocity: 65
Note OFF: Time 463520, Note Name: A2
Note ON: Time 463520, Note Name: G2, Velocity: 71
Note OFF: Time 463600, Note Name: G2
Note ON: Time 463600, Note Name: A2, Velocity: 66
Note OFF: Time 463680, Note Name: A2
Note ON: Time 463680, Note Name: G2, Velocity: 71
Note OFF: Time 463760, Note Name: G2
Note ON: Time 463760, Note Name: A2, Velocity: 65
Note OFF: Time 463840, Note Name: A2
Note ON: Time 463840, Note Name: G2, Velocity: 71
Note OFF: Time 463920, Note Name: G2
Note ON: Time 463920, Note Name: A2, Velocity: 66
Note OFF: Time 464000, Note Name: A2
Note ON: Time 464000, Note Name: G2, Velocity: 71
Note OFF: Time 464080, Note Name: G2
Note ON: Time 464080, Note Name: A2, Velocity: 66
Note OFF: Time 464160, Note Name: A2
Note ON: Time 464160, Note Name: F2, Velocity: 88
Note OFF: Time 464640, Note Name: F2
Note ON: Time 464880, Note Name: F2, Velocity: 75
Note OFF: Time 465000, Note Name: F2
Note ON: Time 465000, Note Name: G2, Velocity: 68
Note OFF: Time 465120, Note Name: G2
Note ON: Time 465120, Note Name: A2, Velocity: 75
Note OFF: Time 465240, Note Name: A2
Note ON: Time 465240, Note Name: A#2, Velocity: 74
Note OFF: Time 465360, Note Name: A#2
Note ON: Time 465360, Note Name: C3, Velocity: 74
Note OFF: Time 465480, Note Name: C3
Note ON: Time 465480, Note Name: D3, Velocity: 74
Note OFF: Time 465600, Note Name: D3
Note ON: Time 465600, Note Name: A2, Velocity: 87
Note OFF: Time 466080, Note Name: A2
Note ON: Time 466320, Note Name: A2, Velocity: 75
Note OFF: Time 466440, Note Name: A2
Note ON: Time 466440, Note Name: A#2, Velocity: 68
Note OFF: Time 466560, Note Name: A#2
Note ON: Time 466560, Note Name: C3, Velocity: 75
Note OFF: Time 466680, Note Name: C3
Note ON: Time 466680, Note Name: D3, Velocity: 74
Note OFF: Time 466800, Note Name: D3
Note ON: Time 466800, Note Name: E3, Velocity: 74
Note OFF: Time 466920, Note Name: E3
Note ON: Time 466920, Note Name: F3, Velocity: 74
Note OFF: Time 467040, Note Name: F3
Note ON: Time 467040, Note Name: C3, Velocity: 87
Note OFF: Time 467520, Note Name: C3
Note ON: Time 467760, Note Name: C3, Velocity: 67
Note OFF: Time 467880, Note Name: C3
Note ON: Time 467880, Note Name: D3, Velocity: 63
Note OFF: Time 468000, Note Name: D3
Note ON: Time 468000, Note Name: E3, Velocity: 73
Note OFF: Time 468120, Note Name: E3
Note ON: Time 468120, Note Name: D3, Velocity: 63
Note OFF: Time 468240, Note Name: D3
Note ON: Time 468240, Note Name: E3, Velocity: 63
Note OFF: Time 468360, Note Name: E3
Note ON: Time 468360, Note Name: F3, Velocity: 63
Note OFF: Time 468480, Note Name: F3
Note ON: Time 468480, Note Name: G3, Velocity: 74
Note OFF: Time 468600, Note Name: G3
Note ON: Time 468600, Note Name: F3, Velocity: 63
Note OFF: Time 468720, Note Name: F3
Note ON: Time 468720, Note Name: G3, Velocity: 63
Note OFF: Time 468840, Note Name: G3
Note ON: Time 468840, Note Name: A3, Velocity: 63
Note OFF: Time 468960, Note Name: A3
Note ON: Time 468960, Note Name: A#3, Velocity: 74
Note OFF: Time 469080, Note Name: A#3
Note ON: Time 469080, Note Name: A3, Velocity: 62
Note OFF: Time 469200, Note Name: A3
Note ON: Time 469200, Note Name: G3, Velocity: 62
Note OFF: Time 469320, Note Name: G3
Note ON: Time 469320, Note Name: A3, Velocity: 62
Note OFF: Time 469440, Note Name: A3
Note ON: Time 469440, Note Name: A#3, Velocity: 73
Note OFF: Time 469560, Note Name: A#3
Note ON: Time 469560, Note Name: A3, Velocity: 61
Note OFF: Time 469680, Note Name: A3
Note ON: Time 469680, Note Name: G3, Velocity: 62
Note OFF: Time 469800, Note Name: G3
Note ON: Time 469800, Note Name: F3, Velocity: 62
Note OFF: Time 469920, Note Name: F3
Note ON: Time 469920, Note Name: E3, Velocity: 74
Note OFF: Time 470040, Note Name: E3
Note ON: Time 470040, Note Name: D3, Velocity: 62
Note OFF: Time 470160, Note Name: D3
Note ON: Time 470160, Note Name: C3, Velocity: 62
Note OFF: Time 470280, Note Name: C3
Note ON: Time 470280, Note Name: D3, Velocity: 62
Note OFF: Time 470400, Note Name: D3
Note ON: Time 470400, Note Name: D#3, Velocity: 73
Note OFF: Time 470520, Note Name: D#3
Note ON: Time 470520, Note Name: D3, Velocity: 62
Note OFF: Time 470640, Note Name: D3
Note ON: Time 470640, Note Name: C3, Velocity: 62
Note OFF: Time 470760, Note Name: C3
Note ON: Time 470760, Note Name: A#2, Velocity: 62
Note OFF: Time 470880, Note Name: A#2
Note ON: Time 470880, Note Name: D3, Velocity: 76
Note OFF: Time 471000, Note Name: D3
Note ON: Time 471000, Note Name: C3, Velocity: 62
Note OFF: Time 471120, Note Name: C3
Note ON: Time 471120, Note Name: A#2, Velocity: 62
Note OFF: Time 471240, Note Name: A#2
Note ON: Time 471240, Note Name: A2, Velocity: 62
Note OFF: Time 471360, Note Name: A2
Note ON: Time 471360, Note Name: A#2, Velocity: 73
Note OFF: Time 471480, Note Name: A#2
Note ON: Time 471480, Note Name: A2, Velocity: 63
Note OFF: Time 471600, Note Name: A2
Note ON: Time 471600, Note Name: G2, Velocity: 63
Note OFF: Time 471720, Note Name: G2
Note ON: Time 471720, Note Name: F2, Velocity: 63
Note OFF: Time 471840, Note Name: F2
Note ON: Time 471840, Note Name: D#3, Velocity: 78
Note ON: Time 472080, Note Name: F1, Velocity: 98
Note OFF: Time 472320, Note Name: F1
Note ON: Time 472320, Note Name: A2, Velocity: 72
Note OFF: Time 472400, Note Name: A2
Note ON: Time 472400, Note Name: A#2, Velocity: 65
Note OFF: Time 472480, Note Name: A#2
Note ON: Time 472480, Note Name: A2, Velocity: 72
Note OFF: Time 472560, Note Name: A2
Note ON: Time 472560, Note Name: A#2, Velocity: 64
Note OFF: Time 472640, Note Name: A#2
Note ON: Time 472640, Note Name: A2, Velocity: 72
Note OFF: Time 472720, Note Name: A2
Note ON: Time 472720, Note Name: A#2, Velocity: 64
Note OFF: Time 472800, Note Name: A#2
Note OFF: Time 472800, Note Name: D#3
Note ON: Time 472800, Note Name: A2, Velocity: 72
Note ON: Time 472800, Note Name: D3, Velocity: 72
Note OFF: Time 472880, Note Name: A2
Note ON: Time 472880, Note Name: A#2, Velocity: 65
Note OFF: Time 472960, Note Name: A#2
Note ON: Time 472960, Note Name: A2, Velocity: 72
Note OFF: Time 473040, Note Name: A2
Note ON: Time 473040, Note Name: A#2, Velocity: 70
Note OFF: Time 473100, Note Name: A#2
Note ON: Time 473100, Note Name: A2, Velocity: 63
Note OFF: Time 473160, Note Name: A2
Note ON: Time 473160, Note Name: G2, Velocity: 63
Note OFF: Time 473220, Note Name: G2
Note ON: Time 473220, Note Name: A2, Velocity: 63
Note OFF: Time 473280, Note Name: A2
Note OFF: Time 473280, Note Name: D3
Note ON: Time 473280, Note Name: A#2, Velocity: 84
Note OFF: Time 473760, Note Name: A#2
Note ON: Time 474000, Note Name: A#2, Velocity: 60
Note OFF: Time 474120, Note Name: A#2
Note ON: Time 474120, Note Name: A2, Velocity: 54
Note OFF: Time 474240, Note Name: A2
Note ON: Time 474240, Note Name: G2, Velocity: 60
Note OFF: Time 474360, Note Name: G2
Note ON: Time 474360, Note Name: F2, Velocity: 53
Note OFF: Time 474480, Note Name: F2
Note ON: Time 474480, Note Name: D#2, Velocity: 53
Note OFF: Time 474600, Note Name: D#2
Note ON: Time 474600, Note Name: D2, Velocity: 53
Note OFF: Time 474720, Note Name: D2
Note ON: Time 474720, Note Name: G2, Velocity: 65
Note OFF: Time 475200, Note Name: G2
Note ON: Time 475440, Note Name: G2, Velocity: 60
Note OFF: Time 475560, Note Name: G2
Note ON: Time 475560, Note Name: F2, Velocity: 54
Note OFF: Time 475680, Note Name: F2
Note ON: Time 475680, Note Name: D#2, Velocity: 60
Note OFF: Time 475800, Note Name: D#2
Note ON: Time 475800, Note Name: D2, Velocity: 53
Note OFF: Time 475920, Note Name: D2
Note ON: Time 475920, Note Name: C2, Velocity: 53
Note OFF: Time 476040, Note Name: C2
Note ON: Time 476040, Note Name: B1, Velocity: 53
Note OFF: Time 476160, Note Name: B1
Note ON: Time 476160, Note Name: C2, Velocity: 65
Note OFF: Time 476640, Note Name: C2
Note ON: Time 476880, Note Name: D#3, Velocity: 60
Note OFF: Time 477000, Note Name: D#3
Note ON: Time 477000, Note Name: D3, Velocity: 53
Note OFF: Time 477120, Note Name: D3
Note ON: Time 477120, Note Name: C3, Velocity: 60
Note OFF: Time 477240, Note Name: C3
Note ON: Time 477240, Note Name: D3, Velocity: 53
Note OFF: Time 477360, Note Name: D3
Note ON: Time 477360, Note Name: C3, Velocity: 53
Note OFF: Time 477480, Note Name: C3
Note ON: Time 477480, Note Name: A#2, Velocity: 53
Note OFF: Time 477600, Note Name: A#2
Note ON: Time 477600, Note Name: A2, Velocity: 64
Note OFF: Time 477720, Note Name: A2
Note ON: Time 477720, Note Name: A#2, Velocity: 58
Note OFF: Time 477840, Note Name: A#2
Note ON: Time 477840, Note Name: A2, Velocity: 61
Note OFF: Time 477960, Note Name: A2
Note ON: Time 477960, Note Name: G2, Velocity: 64
Note OFF: Time 478080, Note Name: G2
Note ON: Time 478080, Note Name: F2, Velocity: 72
Note OFF: Time 478200, Note Name: F2
Note ON: Time 478200, Note Name: G2, Velocity: 60
Note OFF: Time 478320, Note Name: G2
Note ON: Time 478320, Note Name: A2, Velocity: 60
Note OFF: Time 478440, Note Name: A2
Note ON: Time 478440, Note Name: A#2, Velocity: 60
Note OFF: Time 478560, Note Name: A#2
Note ON: Time 478560, Note Name: C3, Velocity: 68
Note OFF: Time 478680, Note Name: C3
Note ON: Time 478680, Note Name: C#3, Velocity: 56
Note OFF: Time 478800, Note Name: C#3
Note ON: Time 478800, Note Name: D3, Velocity: 56
Note OFF: Time 478920, Note Name: D3
Note ON: Time 478920, Note Name: C3, Velocity: 56
Note OFF: Time 479040, Note Name: C3
Note ON: Time 479040, Note Name: A#2, Velocity: 66
Note OFF: Time 479160, Note Name: A#2
Note ON: Time 479160, Note Name: C3, Velocity: 57
Note OFF: Time 479280, Note Name: C3
Note ON: Time 479280, Note Name: D3, Velocity: 57
Note OFF: Time 479400, Note Name: D3
Note ON: Time 479400, Note Name: D#3, Velocity: 57
Note OFF: Time 479520, Note Name: D#3
Note ON: Time 479520, Note Name: E3, Velocity: 60
Note OFF: Time 479640, Note Name: E3
Note ON: Time 479640, Note Name: D#3, Velocity: 55
Note OFF: Time 479760, Note Name: D#3
Note ON: Time 479760, Note Name: D3, Velocity: 60
Note OFF: Time 479880, Note Name: D3
Note ON: Time 479880, Note Name: D#3, Velocity: 54
Note OFF: Time 480000, Note Name: D#3
Note ON: Time 480000, Note Name: F3, Velocity: 59
Note OFF: Time 480120, Note Name: F3
Note ON: Time 480120, Note Name: G3, Velocity: 56
Note OFF: Time 480240, Note Name: G3
Note ON: Time 480240, Note Name: A3, Velocity: 61
Note OFF: Time 480360, Note Name: A3
Note ON: Time 480360, Note Name: A#3, Velocity: 57
Note OFF: Time 480480, Note Name: A#3
Note ON: Time 480480, Note Name: C4, Velocity: 63
Note OFF: Time 480600, Note Name: C4
Note ON: Time 480600, Note Name: A#3, Velocity: 60
Note OFF: Time 480720, Note Name: A#3
Note ON: Time 480720, Note Name: C4, Velocity: 66
Note OFF: Time 480840, Note Name: C4
Note ON: Time 480840, Note Name: D4, Velocity: 62
Note OFF: Time 480960, Note Name: D4
Note ON: Time 480960, Note Name: D#4, Velocity: 68
Note OFF: Time 481080, Note Name: D#4
Note ON: Time 481080, Note Name: D4, Velocity: 63
Note OFF: Time 481200, Note Name: D4
Note ON: Time 481200, Note Name: C#4, Velocity: 62
Note OFF: Time 481320, Note Name: C#4
Note ON: Time 481320, Note Name: C4, Velocity: 60
Note OFF: Time 481440, Note Name: C4
Note ON: Time 481440, Note Name: A#3, Velocity: 65
Note OFF: Time 481560, Note Name: A#3
Note ON: Time 481560, Note Name: A3, Velocity: 60
Note OFF: Time 481680, Note Name: A3
Note ON: Time 481680, Note Name: G3, Velocity: 57
Note OFF: Time 481800, Note Name: G3
Note ON: Time 481800, Note Name: A3, Velocity: 55
Note OFF: Time 481920, Note Name: A3
Note ON: Time 481920, Note Name: A#3, Velocity: 63
Note OFF: Time 482040, Note Name: A#3
Note ON: Time 482040, Note Name: A3, Velocity: 57
Note OFF: Time 482160, Note Name: A3
Note ON: Time 482160, Note Name: G3, Velocity: 58
Note OFF: Time 482280, Note Name: G3
Note ON: Time 482280, Note Name: F3, Velocity: 58
Note OFF: Time 482400, Note Name: F3
Note ON: Time 482400, Note Name: G3, Velocity: 58
Note ON: Time 482400, Note Name: E3, Velocity: 50
Note OFF: Time 482480, Note Name: G3
Note ON: Time 482480, Note Name: A3, Velocity: 52
Note OFF: Time 482560, Note Name: A3
Note ON: Time 482560, Note Name: G3, Velocity: 58
Note OFF: Time 482640, Note Name: G3
Note ON: Time 482640, Note Name: A3, Velocity: 52
Note OFF: Time 482720, Note Name: A3
Note ON: Time 482720, Note Name: G3, Velocity: 58
Note OFF: Time 482800, Note Name: G3
Note ON: Time 482800, Note Name: A3, Velocity: 53
Note OFF: Time 482880, Note Name: A3
Note OFF: Time 482880, Note Name: E3
Note ON: Time 482880, Note Name: G3, Velocity: 58
Note ON: Time 482880, Note Name: A#2, Velocity: 58
Note OFF: Time 482960, Note Name: G3
Note ON: Time 482960, Note Name: A3, Velocity: 53
Note OFF: Time 483040, Note Name: A3
Note ON: Time 483040, Note Name: G3, Velocity: 58
Note OFF: Time 483120, Note Name: G3
Note ON: Time 483120, Note Name: A3, Velocity: 54
Note OFF: Time 483200, Note Name: A3
Note ON: Time 483200, Note Name: G3, Velocity: 58
Note OFF: Time 483280, Note Name: G3
Note ON: Time 483280, Note Name: A3, Velocity: 54
Note OFF: Time 483360, Note Name: A3
Note OFF: Time 483360, Note Name: A#2
Note ON: Time 483360, Note Name: F3, Velocity: 58
Note ON: Time 483360, Note Name: A2, Velocity: 51
Note OFF: Time 483840, Note Name: A2
Note OFF: Time 483840, Note Name: F3
Note ON: Time 483840, Note Name: A3, Velocity: 58
Note ON: Time 483840, Note Name: F#3, Velocity: 50
Note OFF: Time 483920, Note Name: A3
Note ON: Time 483920, Note Name: A#3, Velocity: 52
Note OFF: Time 484000, Note Name: A#3
Note ON: Time 484000, Note Name: A3, Velocity: 58
Note OFF: Time 484080, Note Name: A3
Note ON: Time 484080, Note Name: A#3, Velocity: 52
Note OFF: Time 484160, Note Name: A#3
Note ON: Time 484160, Note Name: A3, Velocity: 58
Note OFF: Time 484240, Note Name: A3
Note ON: Time 484240, Note Name: A#3, Velocity: 53
Note OFF: Time 484320, Note Name: A#3
Note OFF: Time 484320, Note Name: F#3
Note ON: Time 484320, Note Name: C3, Velocity: 58
Note ON: Time 484320, Note Name: A3, Velocity: 58
Note OFF: Time 484400, Note Name: A3
Note ON: Time 484400, Note Name: A#3, Velocity: 53
Note OFF: Time 484480, Note Name: A#3
Note ON: Time 484480, Note Name: A3, Velocity: 58
Note OFF: Time 484560, Note Name: A3
Note ON: Time 484560, Note Name: A#3, Velocity: 54
Note OFF: Time 484640, Note Name: A#3
Note ON: Time 484640, Note Name: A3, Velocity: 58
Note OFF: Time 484720, Note Name: A3
Note ON: Time 484720, Note Name: A#3, Velocity: 54
Note OFF: Time 484800, Note Name: A#3
Note OFF: Time 484800, Note Name: C3
Note ON: Time 484800, Note Name: G3, Velocity: 58
Note ON: Time 484800, Note Name: A#2, Velocity: 51
Note OFF: Time 485280, Note Name: A#2
Note OFF: Time 485280, Note Name: G3
Note ON: Time 485280, Note Name: G3, Velocity: 50
Note ON: Time 485280, Note Name: A#3, Velocity: 58
Note OFF: Time 485360, Note Name: A#3
Note ON: Time 485360, Note Name: C4, Velocity: 52
Note OFF: Time 485440, Note Name: C4
Note ON: Time 485440, Note Name: A#3, Velocity: 58
Note OFF: Time 485520, Note Name: A#3
Note ON: Time 485520, Note Name: C4, Velocity: 52
Note OFF: Time 485600, Note Name: C4
Note ON: Time 485600, Note Name: A#3, Velocity: 58
Note OFF: Time 485680, Note Name: A#3
Note ON: Time 485680, Note Name: C4, Velocity: 53
Note OFF: Time 485760, Note Name: C4
Note OFF: Time 485760, Note Name: G3
Note ON: Time 485760, Note Name: A#3, Velocity: 58
Note ON: Time 485760, Note Name: D3, Velocity: 58
Note OFF: Time 485840, Note Name: A#3
Note ON: Time 485840, Note Name: C4, Velocity: 53
Note OFF: Time 485920, Note Name: C4
Note ON: Time 485920, Note Name: A#3, Velocity: 58
Note OFF: Time 486000, Note Name: A#3
Note ON: Time 486000, Note Name: C4, Velocity: 54
Note OFF: Time 486080, Note Name: C4
Note ON: Time 486080, Note Name: A#3, Velocity: 58
Note OFF: Time 486160, Note Name: A#3
Note ON: Time 486160, Note Name: C4, Velocity: 54
Note OFF: Time 486240, Note Name: C4
Note OFF: Time 486240, Note Name: D3
Note ON: Time 486240, Note Name: A3, Velocity: 58
Note ON: Time 486240, Note Name: C3, Velocity: 51
Note OFF: Time 486480, Note Name: C3
Note ON: Time 486480, Note Name: F#2, Velocity: 52
Note OFF: Time 486720, Note Name: A3
Note OFF: Time 486840, Note Name: F#2
Note ON: Time 486840, Note Name: G2, Velocity: 48
Note OFF: Time 486960, Note Name: G2
Note ON: Time 486960, Note Name: A2, Velocity: 50
Note OFF: Time 487080, Note Name: A2
Note ON: Time 487080, Note Name: A#2, Velocity: 53
Note OFF: Time 487200, Note Name: A#2
Note ON: Time 487200, Note Name: C3, Velocity: 55
Note OFF: Time 487320, Note Name: C3
Note ON: Time 487320, Note Name: D3, Velocity: 58
Note OFF: Time 487440, Note Name: D3
Note ON: Time 487440, Note Name: E3, Velocity: 60
Note OFF: Time 487560, Note Name: E3
Note ON: Time 487560, Note Name: F#3, Velocity: 63
Note OFF: Time 487680, Note Name: F#3
Note ON: Time 487680, Note Name: G2, Velocity: 65
Note OFF: Time 487800, Note Name: G2
Note ON: Time 487800, Note Name: G3, Velocity: 55
Note OFF: Time 487920, Note Name: G3
Note ON: Time 487920, Note Name: F2, Velocity: 62
Note OFF: Time 488040, Note Name: F2
Note ON: Time 488040, Note Name: F3, Velocity: 51
Note OFF: Time 488160, Note Name: F3
Note ON: Time 488160, Note Name: E2, Velocity: 53
Note OFF: Time 488280, Note Name: E2
Note ON: Time 488280, Note Name: F2, Velocity: 48
Note OFF: Time 488400, Note Name: F2
Note ON: Time 488400, Note Name: G2, Velocity: 50
Note OFF: Time 488520, Note Name: G2
Note ON: Time 488520, Note Name: A2, Velocity: 53
Note OFF: Time 488640, Note Name: A2
Note ON: Time 488640, Note Name: A#2, Velocity: 55
Note OFF: Time 488760, Note Name: A#2
Note ON: Time 488760, Note Name: C3, Velocity: 58
Note OFF: Time 488880, Note Name: C3
Note ON: Time 488880, Note Name: D3, Velocity: 60
Note OFF: Time 489000, Note Name: D3
Note ON: Time 489000, Note Name: E3, Velocity: 63
Note OFF: Time 489120, Note Name: E3
Note ON: Time 489120, Note Name: F2, Velocity: 65
Note OFF: Time 489240, Note Name: F2
Note ON: Time 489240, Note Name: F3, Velocity: 55
Note OFF: Time 489360, Note Name: F3
Note ON: Time 489360, Note Name: D#2, Velocity: 62
Note OFF: Time 489480, Note Name: D#2
Note ON: Time 489480, Note Name: D#3, Velocity: 51
Note OFF: Time 489600, Note Name: D#3
Note ON: Time 489600, Note Name: D2, Velocity: 53
Note OFF: Time 489720, Note Name: D2
Note ON: Time 489720, Note Name: D#2, Velocity: 48
Note OFF: Time 489840, Note Name: D#2
Note ON: Time 489840, Note Name: F2, Velocity: 50
Note OFF: Time 489960, Note Name: F2
Note ON: Time 489960, Note Name: G2, Velocity: 53
Note OFF: Time 490080, Note Name: G2
Note ON: Time 490080, Note Name: G#2, Velocity: 55
Note OFF: Time 490200, Note Name: G#2
Note ON: Time 490200, Note Name: A#2, Velocity: 58
Note OFF: Time 490320, Note Name: A#2
Note ON: Time 490320, Note Name: C3, Velocity: 60
Note OFF: Time 490440, Note Name: C3
Note ON: Time 490440, Note Name: D3, Velocity: 63
Note OFF: Time 490560, Note Name: D3
Note ON: Time 490560, Note Name: D#2, Velocity: 74
Note OFF: Time 490680, Note Name: D#2
Note ON: Time 490680, Note Name: D#3, Velocity: 63
Note OFF: Time 490800, Note Name: D#3
Note ON: Time 490800, Note Name: C#3, Velocity: 71
Note ON: Time 490800, Note Name: C#2, Velocity: 58
Note OFF: Time 491040, Note Name: C#2
Note OFF: Time 491040, Note Name: C#3
Note ON: Time 491040, Note Name: A#1, Velocity: 66
Note ON: Time 491040, Note Name: C#3, Velocity: 66
Note OFF: Time 491120, Note Name: A#1
Note ON: Time 491120, Note Name: C2, Velocity: 52
Note OFF: Time 491160, Note Name: C#3
Note ON: Time 491160, Note Name: C3, Velocity: 53
Note OFF: Time 491200, Note Name: C2
Note ON: Time 491200, Note Name: A#1, Velocity: 66
Note OFF: Time 491280, Note Name: A#1
Note OFF: Time 491280, Note Name: C3
Note ON: Time 491280, Note Name: D3, Velocity: 53
Note ON: Time 491280, Note Name: C2, Velocity: 52
Note OFF: Time 491360, Note Name: C2
Note ON: Time 491360, Note Name: A#1, Velocity: 66
Note OFF: Time 491400, Note Name: D3
Note ON: Time 491400, Note Name: E3, Velocity: 53
Note OFF: Time 491440, Note Name: A#1
Note ON: Time 491440, Note Name: C2, Velocity: 52
Note OFF: Time 491520, Note Name: C2
Note OFF: Time 491520, Note Name: E3
Note ON: Time 491520, Note Name: A#1, Velocity: 66
Note ON: Time 491520, Note Name: F3, Velocity: 57
Note OFF: Time 491600, Note Name: A#1
Note ON: Time 491600, Note Name: C2, Velocity: 52
Note OFF: Time 491640, Note Name: F3
Note ON: Time 491640, Note Name: G3, Velocity: 59
Note OFF: Time 491680, Note Name: C2
Note ON: Time 491680, Note Name: A#1, Velocity: 66
Note OFF: Time 491760, Note Name: A#1
Note OFF: Time 491760, Note Name: G3
Note ON: Time 491760, Note Name: C2, Velocity: 52
Note ON: Time 491760, Note Name: A3, Velocity: 61
Note OFF: Time 491840, Note Name: C2
Note ON: Time 491840, Note Name: A#1, Velocity: 66
Note OFF: Time 491880, Note Name: A3
Note ON: Time 491880, Note Name: A#3, Velocity: 63
Note OFF: Time 491920, Note Name: A#1
Note ON: Time 491920, Note Name: C2, Velocity: 52
Note OFF: Time 492000, Note Name: C2
Note OFF: Time 492000, Note Name: A#3
Note ON: Time 492000, Note Name: A1, Velocity: 66
Note ON: Time 492000, Note Name: C4, Velocity: 65
Note OFF: Time 492120, Note Name: C4
Note ON: Time 492120, Note Name: A3, Velocity: 64
Note OFF: Time 492240, Note Name: A3
Note ON: Time 492240, Note Name: G3, Velocity: 62
Note OFF: Time 492360, Note Name: G3
Note ON: Time 492360, Note Name: F3, Velocity: 60
Note OFF: Time 492480, Note Name: F3
Note OFF: Time 492480, Note Name: A1
Note ON: Time 492480, Note Name: D#3, Velocity: 66
Note ON: Time 492480, Note Name: C2, Velocity: 66
Note OFF: Time 492560, Note Name: C2
Note ON: Time 492560, Note Name: D2, Velocity: 52
Note OFF: Time 492600, Note Name: D#3
Note ON: Time 492600, Note Name: D3, Velocity: 53
Note OFF: Time 492640, Note Name: D2
Note ON: Time 492640, Note Name: C2, Velocity: 66
Note OFF: Time 492720, Note Name: C2
Note OFF: Time 492720, Note Name: D3
Note ON: Time 492720, Note Name: D2, Velocity: 52
Note ON: Time 492720, Note Name: E3, Velocity: 53
Note OFF: Time 492800, Note Name: D2
Note ON: Time 492800, Note Name: C2, Velocity: 66
Note OFF: Time 492840, Note Name: E3
Note ON: Time 492840, Note Name: F#3, Velocity: 53
Note OFF: Time 492880, Note Name: C2
Note ON: Time 492880, Note Name: D2, Velocity: 52
Note OFF: Time 492960, Note Name: D2
Note OFF: Time 492960, Note Name: F#3
Note ON: Time 492960, Note Name: C2, Velocity: 66
Note ON: Time 492960, Note Name: G3, Velocity: 57
Note OFF: Time 493040, Note Name: C2
Note ON: Time 493040, Note Name: D2, Velocity: 52
Note OFF: Time 493080, Note Name: G3
Note ON: Time 493080, Note Name: A3, Velocity: 59
Note ON: Time 493119, Note Name: C2, Velocity: 66
Note OFF: Time 493120, Note Name: D2
Note OFF: Time 493199, Note Name: C2
Note OFF: Time 493200, Note Name: A3
Note ON: Time 493200, Note Name: D2, Velocity: 52
Note ON: Time 493200, Note Name: A#3, Velocity: 61
Note OFF: Time 493280, Note Name: D2
Note ON: Time 493280, Note Name: C2, Velocity: 66
Note OFF: Time 493320, Note Name: A#3
Note ON: Time 493320, Note Name: C4, Velocity: 63
Note OFF: Time 493360, Note Name: C2
Note ON: Time 493360, Note Name: D2, Velocity: 52
Note OFF: Time 493440, Note Name: D2
Note OFF: Time 493440, Note Name: C4
Note ON: Time 493440, Note Name: A#1, Velocity: 66
Note ON: Time 493440, Note Name: D4, Velocity: 65
Note OFF: Time 493560, Note Name: D4
Note ON: Time 493560, Note Name: A#3, Velocity: 64
Note OFF: Time 493680, Note Name: A#3
Note ON: Time 493680, Note Name: A3, Velocity: 62
Note OFF: Time 493800, Note Name: A3
Note ON: Time 493800, Note Name: G3, Velocity: 60
Note OFF: Time 493920, Note Name: G3
Note OFF: Time 493920, Note Name: A#1
Note ON: Time 493920, Note Name: F3, Velocity: 66
Note ON: Time 493920, Note Name: D2, Velocity: 66
Note OFF: Time 494000, Note Name: D2
Note ON: Time 494000, Note Name: D#2, Velocity: 52
Note OFF: Time 494040, Note Name: F3
Note ON: Time 494040, Note Name: D#3, Velocity: 53
Note OFF: Time 494080, Note Name: D#2
Note ON: Time 494080, Note Name: D2, Velocity: 66
Note OFF: Time 494160, Note Name: D2
Note OFF: Time 494160, Note Name: D#3
Note ON: Time 494160, Note Name: F3, Velocity: 53
Note ON: Time 494160, Note Name: D#2, Velocity: 52
Note OFF: Time 494240, Note Name: D#2
Note ON: Time 494240, Note Name: D2, Velocity: 66
Note OFF: Time 494280, Note Name: F3
Note ON: Time 494280, Note Name: G3, Velocity: 53
Note OFF: Time 494320, Note Name: D2
Note ON: Time 494320, Note Name: D#2, Velocity: 52
Note OFF: Time 494400, Note Name: D#2
Note OFF: Time 494400, Note Name: G3
Note ON: Time 494400, Note Name: A3, Velocity: 57
Note ON: Time 494400, Note Name: D2, Velocity: 66
Note OFF: Time 494480, Note Name: D2
Note ON: Time 494480, Note Name: D#2, Velocity: 52
Note OFF: Time 494520, Note Name: A3
Note ON: Time 494520, Note Name: A#3, Velocity: 59
Note OFF: Time 494560, Note Name: D#2
Note ON: Time 494560, Note Name: D2, Velocity: 66
Note OFF: Time 494640, Note Name: D2
Note OFF: Time 494640, Note Name: A#3
Note ON: Time 494640, Note Name: C4, Velocity: 61
Note ON: Time 494640, Note Name: D#2, Velocity: 52
Note OFF: Time 494720, Note Name: D#2
Note ON: Time 494720, Note Name: D2, Velocity: 66
Note OFF: Time 494760, Note Name: C4
Note ON: Time 494760, Note Name: D4, Velocity: 63
Note OFF: Time 494800, Note Name: D2
Note ON: Time 494800, Note Name: D#2, Velocity: 52
Note OFF: Time 494880, Note Name: D#2
Note OFF: Time 494880, Note Name: D4
Note ON: Time 494880, Note Name: C2, Velocity: 66
Note ON: Time 494880, Note Name: D#4, Velocity: 65
Note OFF: Time 495000, Note Name: D#4
Note ON: Time 495000, Note Name: C4, Velocity: 64
Note OFF: Time 495120, Note Name: C4
Note ON: Time 495120, Note Name: A#3, Velocity: 62
Note OFF: Time 495240, Note Name: A#3
Note ON: Time 495240, Note Name: A3, Velocity: 60
Note OFF: Time 495360, Note Name: A3
Note OFF: Time 495360, Note Name: C2
Note ON: Time 495360, Note Name: D#2, Velocity: 66
Note OFF: Time 495440, Note Name: D#2
Note ON: Time 495440, Note Name: F2, Velocity: 60
Note OFF: Time 495520, Note Name: F2
Note ON: Time 495520, Note Name: D#2, Velocity: 66
Note OFF: Time 495600, Note Name: D#2
Note ON: Time 495600, Note Name: F2, Velocity: 62
Note OFF: Time 495660, Note Name: F2
Note ON: Time 495660, Note Name: D#2, Velocity: 55
Note OFF: Time 495720, Note Name: D#2
Note ON: Time 495720, Note Name: D2, Velocity: 55
Note OFF: Time 495780, Note Name: D2
Note ON: Time 495780, Note Name: D#2, Velocity: 55
Note OFF: Time 495840, Note Name: D#2
Note ON: Time 495840, Note Name: D2, Velocity: 63
Note OFF: Time 496320, Note Name: D2
Note ON: Time 496320, Note Name: E2, Velocity: 63
Note OFF: Time 496560, Note Name: E2
Note ON: Time 496560, Note Name: E3, Velocity: 57
Note OFF: Time 496800, Note Name: E3
Note ON: Time 496800, Note Name: F3, Velocity: 37
Note ON: Time 496920, Note Name: D#4, Velocity: 49
Note OFF: Time 497040, Note Name: D#4
Note ON: Time 497040, Note Name: D4, Velocity: 48
Note OFF: Time 497160, Note Name: D4
Note ON: Time 497160, Note Name: C4, Velocity: 48
Note OFF: Time 497280, Note Name: C4
Note ON: Time 497280, Note Name: B3, Velocity: 48
Note OFF: Time 497400, Note Name: B3
Note ON: Time 497400, Note Name: C4, Velocity: 52
Note OFF: Time 497520, Note Name: C4
Note ON: Time 497520, Note Name: D4, Velocity: 49
Note OFF: Time 497640, Note Name: D4
Note ON: Time 497640, Note Name: D#4, Velocity: 46
Note OFF: Time 497760, Note Name: D#4
Note ON: Time 497760, Note Name: E4, Velocity: 53
Note OFF: Time 497880, Note Name: E4
Note ON: Time 497880, Note Name: F4, Velocity: 43
Note OFF: Time 498000, Note Name: F4
Note ON: Time 498000, Note Name: G4, Velocity: 49
Note OFF: Time 498120, Note Name: G4
Note ON: Time 498120, Note Name: F4, Velocity: 40
Note OFF: Time 498240, Note Name: F4
Note OFF: Time 498240, Note Name: F3
Note ON: Time 498240, Note Name: C4, Velocity: 45
Note ON: Time 498240, Note Name: F3, Velocity: 37
Note OFF: Time 498360, Note Name: C4
Note ON: Time 498360, Note Name: D4, Velocity: 41
Note OFF: Time 498480, Note Name: D4
Note ON: Time 498480, Note Name: D#4, Velocity: 45
Note OFF: Time 498600, Note Name: D#4
Note ON: Time 498600, Note Name: D4, Velocity: 39
Note OFF: Time 498720, Note Name: D4
Note ON: Time 499200, Note Name: F4, Velocity: 45
Note OFF: Time 499320, Note Name: F4
Note ON: Time 499320, Note Name: D#4, Velocity: 41
Note OFF: Time 499440, Note Name: D#4
Note ON: Time 499440, Note Name: D4, Velocity: 45
Note OFF: Time 499560, Note Name: D4
Note ON: Time 499560, Note Name: D#4, Velocity: 41
Note OFF: Time 499680, Note Name: D#4
Note OFF: Time 499680, Note Name: F3
Note ON: Time 499680, Note Name: C4, Velocity: 48
Note ON: Time 499680, Note Name: F3, Velocity: 37
Note OFF: Time 499800, Note Name: C4
Note ON: Time 499800, Note Name: D4, Velocity: 41
Note OFF: Time 499920, Note Name: D4
Note ON: Time 499920, Note Name: C4, Velocity: 48
Note OFF: Time 500040, Note Name: C4
Note ON: Time 500040, Note Name: A#3, Velocity: 41
Note OFF: Time 500160, Note Name: A#3
Note ON: Time 500160, Note Name: A3, Velocity: 48
Note OFF: Time 500280, Note Name: A3
Note ON: Time 500280, Note Name: A#3, Velocity: 52
Note OFF: Time 500400, Note Name: A#3
Note ON: Time 500400, Note Name: C4, Velocity: 49
Note OFF: Time 500520, Note Name: C4
Note ON: Time 500520, Note Name: D4, Velocity: 46
Note OFF: Time 500640, Note Name: D4
Note ON: Time 500640, Note Name: D#4, Velocity: 53
Note OFF: Time 500760, Note Name: D#4
Note ON: Time 500760, Note Name: E4, Velocity: 43
Note OFF: Time 500880, Note Name: E4
Note ON: Time 500880, Note Name: F4, Velocity: 49
Note OFF: Time 501000, Note Name: F4
Note ON: Time 501000, Note Name: D#4, Velocity: 40
Note OFF: Time 501120, Note Name: D#4
Note OFF: Time 501120, Note Name: F3
Note ON: Time 501120, Note Name: F3, Velocity: 37
Note ON: Time 501120, Note Name: A#3, Velocity: 45
Note OFF: Time 501240, Note Name: A#3
Note ON: Time 501240, Note Name: C4, Velocity: 41
Note OFF: Time 501360, Note Name: C4
Note ON: Time 501360, Note Name: D4, Velocity: 45
Note OFF: Time 501480, Note Name: D4
Note ON: Time 501480, Note Name: D#4, Velocity: 39
Note OFF: Time 501600, Note Name: D#4
Note ON: Time 502080, Note Name: D#4, Velocity: 45
Note OFF: Time 502200, Note Name: D#4
Note ON: Time 502200, Note Name: D4, Velocity: 41
Note OFF: Time 502320, Note Name: D4
Note OFF: Time 502320, Note Name: F3
Note ON: Time 502320, Note Name: C4, Velocity: 45
Note ON: Time 502320, Note Name: F#3, Velocity: 37
Note OFF: Time 502440, Note Name: C4
Note ON: Time 502440, Note Name: A#3, Velocity: 41
Note OFF: Time 502560, Note Name: A#3
Note OFF: Time 502560, Note Name: F#3
Note ON: Time 502560, Note Name: G3, Velocity: 77
Note ON: Time 502560, Note Name: G2, Velocity: 65
Note OFF: Time 502680, Note Name: G2
Note OFF: Time 502680, Note Name: G3
Note ON: Time 503040, Note Name: F2, Velocity: 72
Note ON: Time 503040, Note Name: F3, Velocity: 85
Note OFF: Time 503760, Note Name: F3
Note OFF: Time 503760, Note Name: F2
Note ON: Time 503760, Note Name: F3, Velocity: 72
Note ON: Time 503760, Note Name: F2, Velocity: 61
Note OFF: Time 504000, Note Name: F2
Note OFF: Time 504000, Note Name: F3
Note ON: Time 504000, Note Name: F3, Velocity: 74
Note ON: Time 504000, Note Name: F2, Velocity: 62
Note OFF: Time 504240, Note Name: F2
Note OFF: Time 504240, Note Name: F3
Note ON: Time 504240, Note Name: E2, Velocity: 54
Note ON: Time 504240, Note Name: E3, Velocity: 64
Note OFF: Time 504420, Note Name: E3
Note OFF: Time 504420, Note Name: E2
Note ON: Time 504480, Note Name: C#3, Velocity: 66
Note ON: Time 504480, Note Name: C#2, Velocity: 56
Note OFF: Time 504720, Note Name: C#2
Note OFF: Time 504720, Note Name: C#3
Note ON: Time 504720, Note Name: C2, Velocity: 50
Note ON: Time 504720, Note Name: C3, Velocity: 59
Note OFF: Time 504900, Note Name: C3
Note OFF: Time 504900, Note Name: C2
Note ON: Time 504960, Note Name: B1, Velocity: 56
Note ON: Time 504960, Note Name: B2, Velocity: 66
Note OFF: Time 505200, Note Name: B2
Note OFF: Time 505200, Note Name: B1
Note ON: Time 505200, Note Name: C2, Velocity: 47
Note ON: Time 505200, Note Name: C3, Velocity: 56
Note OFF: Time 505380, Note Name: C3
Note OFF: Time 505380, Note Name: C2
Note ON: Time 505440, Note Name: F3, Velocity: 77
Note ON: Time 505440, Note Name: F2, Velocity: 65
Note OFF: Time 505560, Note Name: F2
Note OFF: Time 505560, Note Name: F3
Note ON: Time 505920, Note Name: D#2, Velocity: 72
Note ON: Time 505920, Note Name: D#3, Velocity: 85
Note OFF: Time 506640, Note Name: D#3
Note OFF: Time 506640, Note Name: D#2
Note ON: Time 506640, Note Name: D#3, Velocity: 72
Note ON: Time 506640, Note Name: D#2, Velocity: 61
Note OFF: Time 506880, Note Name: D#2
Note OFF: Time 506880, Note Name: D#3
Note ON: Time 506880, Note Name: D#3, Velocity: 74
Note ON: Time 506880, Note Name: D#2, Velocity: 62
Note OFF: Time 507120, Note Name: D#2
Note OFF: Time 507120, Note Name: D#3
Note ON: Time 507120, Note Name: D3, Velocity: 64
Note ON: Time 507120, Note Name: D2, Velocity: 54
Note OFF: Time 507300, Note Name: D2
Note OFF: Time 507300, Note Name: D3
Note ON: Time 507360, Note Name: C3, Velocity: 66
Note ON: Time 507360, Note Name: C2, Velocity: 56
Note OFF: Time 507600, Note Name: C2
Note OFF: Time 507600, Note Name: C3
Note ON: Time 507600, Note Name: B2, Velocity: 59
Note ON: Time 507600, Note Name: B1, Velocity: 50
Note OFF: Time 507780, Note Name: B1
Note OFF: Time 507780, Note Name: B2
Note ON: Time 509280, Note Name: F3, Velocity: 66
Note ON: Time 509280, Note Name: F2, Velocity: 56
Note OFF: Time 509520, Note Name: F2
Note OFF: Time 509520, Note Name: F3
Note ON: Time 509520, Note Name: D#2, Velocity: 51
Note ON: Time 509520, Note Name: D#3, Velocity: 60
Note OFF: Time 509700, Note Name: D#3
Note OFF: Time 509700, Note Name: D#2
Note ON: Time 509760, Note Name: D#3, Velocity: 66
Note ON: Time 509760, Note Name: D#2, Velocity: 56
Note OFF: Time 510000, Note Name: D#2
Note OFF: Time 510000, Note Name: D#3
Note ON: Time 510000, Note Name: D2, Velocity: 51
Note ON: Time 510000, Note Name: D3, Velocity: 60
Note OFF: Time 510180, Note Name: D3
Note OFF: Time 510180, Note Name: D2
Note ON: Time 510240, Note Name: C2, Velocity: 56
Note ON: Time 510240, Note Name: C3, Velocity: 66
Note OFF: Time 510480, Note Name: C3
Note OFF: Time 510480, Note Name: C2
Note ON: Time 510480, Note Name: A#1, Velocity: 51
Note ON: Time 510480, Note Name: A#2, Velocity: 61
Note OFF: Time 510660, Note Name: A#2
Note OFF: Time 510660, Note Name: A#1
Note ON: Time 515040, Note Name: F#2, Velocity: 64
Note ON: Time 515040, Note Name: F#3, Velocity: 76
Note OFF: Time 515280, Note Name: F#3
Note OFF: Time 515280, Note Name: F#2
Note ON: Time 515280, Note Name: G3, Velocity: 66
Note ON: Time 515280, Note Name: G2, Velocity: 56
Note OFF: Time 515400, Note Name: G2
Note OFF: Time 515400, Note Name: G3
Note ON: Time 515520, Note Name: F2, Velocity: 61
Note ON: Time 515520, Note Name: F3, Velocity: 72
Note OFF: Time 515760, Note Name: F3
Note OFF: Time 515760, Note Name: F2
Note ON: Time 515760, Note Name: E3, Velocity: 66
Note ON: Time 515760, Note Name: E2, Velocity: 56
Note OFF: Time 515880, Note Name: E2
Note OFF: Time 515880, Note Name: E3
Note ON: Time 516000, Note Name: G3, Velocity: 72
Note ON: Time 516000, Note Name: G2, Velocity: 61
Note OFF: Time 516240, Note Name: G2
Note OFF: Time 516240, Note Name: G3
Note ON: Time 516240, Note Name: A3, Velocity: 66
Note ON: Time 516240, Note Name: A2, Velocity: 56
Note OFF: Time 516360, Note Name: A2
Note OFF: Time 516360, Note Name: A3
Note ON: Time 516480, Note Name: G2, Velocity: 62
Note ON: Time 516480, Note Name: G3, Velocity: 74
Note OFF: Time 516720, Note Name: G3
Note OFF: Time 516720, Note Name: G2
Note ON: Time 516720, Note Name: F#2, Velocity: 56
Note ON: Time 516720, Note Name: F#3, Velocity: 66
Note OFF: Time 516840, Note Name: F#3
Note OFF: Time 516840, Note Name: F#2
Note ON: Time 516960, Note Name: A2, Velocity: 64
Note ON: Time 516960, Note Name: A3, Velocity: 76
Note OFF: Time 517200, Note Name: A3
Note OFF: Time 517200, Note Name: A2
Note ON: Time 517200, Note Name: A#3, Velocity: 66
Note ON: Time 517200, Note Name: A#2, Velocity: 56
Note OFF: Time 517320, Note Name: A#2
Note OFF: Time 517320, Note Name: A#3
Note ON: Time 517440, Note Name: F#2, Velocity: 62
Note ON: Time 517440, Note Name: F#3, Velocity: 74
Note OFF: Time 517680, Note Name: F#3
Note OFF: Time 517680, Note Name: F#2
Note ON: Time 517680, Note Name: G2, Velocity: 56
Note ON: Time 517680, Note Name: G3, Velocity: 66
Note OFF: Time 517800, Note Name: G3
Note OFF: Time 517800, Note Name: G2
Note ON: Time 517920, Note Name: D#2, Velocity: 65
Note ON: Time 517920, Note Name: D#3, Velocity: 77
Note OFF: Time 518160, Note Name: D#3
Note OFF: Time 518160, Note Name: D#2
Note ON: Time 518160, Note Name: E2, Velocity: 56
Note ON: Time 518160, Note Name: E3, Velocity: 66
Note OFF: Time 518280, Note Name: E3
Note OFF: Time 518280, Note Name: E2
Note ON: Time 518400, Note Name: A#3, Velocity: 56
Note ON: Time 518400, Note Name: C#4, Velocity: 66
Note OFF: Time 518640, Note Name: C#4
Note OFF: Time 518640, Note Name: A#3
Note ON: Time 518880, Note Name: A#2, Velocity: 69
Note ON: Time 518880, Note Name: G2, Velocity: 65
Note OFF: Time 518960, Note Name: G2
Note ON: Time 518960, Note Name: A2, Velocity: 57
Note OFF: Time 519040, Note Name: A2
Note ON: Time 519040, Note Name: G2, Velocity: 65
Note OFF: Time 519120, Note Name: G2
Note ON: Time 519120, Note Name: A2, Velocity: 58
Note OFF: Time 519200, Note Name: A2
Note ON: Time 519200, Note Name: G2, Velocity: 66
Note OFF: Time 519280, Note Name: G2
Note ON: Time 519280, Note Name: A2, Velocity: 58
Note OFF: Time 519360, Note Name: A2
Note ON: Time 519360, Note Name: G2, Velocity: 66
Note OFF: Time 519440, Note Name: G2
Note ON: Time 519440, Note Name: A2, Velocity: 61
Note OFF: Time 519520, Note Name: A2
Note ON: Time 519520, Note Name: G2, Velocity: 67
Note OFF: Time 519600, Note Name: G2
Note ON: Time 519600, Note Name: A2, Velocity: 58
Note OFF: Time 519660, Note Name: A2
Note ON: Time 519660, Note Name: G2, Velocity: 69
Note OFF: Time 519720, Note Name: G2
Note ON: Time 519720, Note Name: F2, Velocity: 62
Note OFF: Time 519780, Note Name: F2
Note ON: Time 519780, Note Name: G2, Velocity: 66
Note OFF: Time 519840, Note Name: G2
Note OFF: Time 519840, Note Name: A#2
Note ON: Time 522000, Note Name: E4, Velocity: 62
Note OFF: Time 522240, Note Name: E4
Note ON: Time 522240, Note Name: F4, Velocity: 73
Note OFF: Time 522480, Note Name: F4
Note ON: Time 523440, Note Name: C#4, Velocity: 62
Note OFF: Time 523680, Note Name: C#4
Note ON: Time 523680, Note Name: D4, Velocity: 73
Note OFF: Time 523920, Note Name: D4
Note ON: Time 524880, Note Name: A#4, Velocity: 70
Note ON: Time 525000, Note Name: A4, Velocity: 65
Note OFF: Time 525024, Note Name: A#4
Note ON: Time 525120, Note Name: G4, Velocity: 70
Note OFF: Time 525144, Note Name: A4
Note ON: Time 525240, Note Name: A4, Velocity: 61
Note OFF: Time 525264, Note Name: G4
Note ON: Time 525360, Note Name: G4, Velocity: 67
Note OFF: Time 525384, Note Name: A4
Note ON: Time 525480, Note Name: F4, Velocity: 61
Note OFF: Time 525504, Note Name: G4
Note ON: Time 525600, Note Name: E4, Velocity: 68
Note OFF: Time 525624, Note Name: F4
Note ON: Time 525720, Note Name: F4, Velocity: 62
Note OFF: Time 525744, Note Name: E4
Note ON: Time 525840, Note Name: E4, Velocity: 62
Note OFF: Time 525864, Note Name: F4
Note ON: Time 525960, Note Name: D4, Velocity: 62
Note OFF: Time 525984, Note Name: E4
Note ON: Time 526080, Note Name: C4, Velocity: 66
Note OFF: Time 526104, Note Name: D4
Note ON: Time 526200, Note Name: D4, Velocity: 59
Note OFF: Time 526224, Note Name: C4
Note ON: Time 526320, Note Name: E4, Velocity: 63
Note OFF: Time 526344, Note Name: D4
Note ON: Time 526440, Note Name: F4, Velocity: 59
Note OFF: Time 526464, Note Name: E4
Note ON: Time 526560, Note Name: F#4, Velocity: 66
Note OFF: Time 526584, Note Name: F4
Note ON: Time 526680, Note Name: G4, Velocity: 59
Note OFF: Time 526704, Note Name: F#4
Note ON: Time 526800, Note Name: A4, Velocity: 65
Note OFF: Time 526824, Note Name: G4
Note ON: Time 526920, Note Name: G4, Velocity: 60
Note OFF: Time 526944, Note Name: A4
Note OFF: Time 527040, Note Name: G4
Note ON: Time 527040, Note Name: A#4, Velocity: 85
Note OFF: Time 527280, Note Name: A#4
Note ON: Time 527520, Note Name: A4, Velocity: 89
Note OFF: Time 528240, Note Name: A4
Note ON: Time 528240, Note Name: A4, Velocity: 82
Note OFF: Time 528480, Note Name: A4
Note ON: Time 528480, Note Name: F#4, Velocity: 68
Note ON: Time 528600, Note Name: G4, Velocity: 62
Note OFF: Time 528624, Note Name: F#4
Note ON: Time 528720, Note Name: F#4, Velocity: 62
Note OFF: Time 528744, Note Name: G4
Note ON: Time 528840, Note Name: E4, Velocity: 62
Note OFF: Time 528864, Note Name: F#4
Note ON: Time 528960, Note Name: D4, Velocity: 66
Note OFF: Time 528984, Note Name: E4
Note ON: Time 529080, Note Name: E4, Velocity: 59
Note OFF: Time 529104, Note Name: D4
Note ON: Time 529200, Note Name: F#4, Velocity: 63
Note OFF: Time 529224, Note Name: E4
Note ON: Time 529320, Note Name: G4, Velocity: 59
Note OFF: Time 529344, Note Name: F#4
Note ON: Time 529440, Note Name: G#4, Velocity: 66
Note OFF: Time 529464, Note Name: G4
Note ON: Time 529560, Note Name: A4, Velocity: 59
Note OFF: Time 529584, Note Name: G#4
Note ON: Time 529680, Note Name: A#4, Velocity: 65
Note OFF: Time 529704, Note Name: A4
Note ON: Time 529800, Note Name: A4, Velocity: 60
Note OFF: Time 529824, Note Name: A#4
Note OFF: Time 529920, Note Name: A4
Note ON: Time 529920, Note Name: C5, Velocity: 85
Note OFF: Time 530160, Note Name: C5
Note ON: Time 530400, Note Name: A#4, Velocity: 89
Note OFF: Time 531120, Note Name: A#4
Note ON: Time 531120, Note Name: A#4, Velocity: 82
Note OFF: Time 531360, Note Name: A#4
Note ON: Time 531360, Note Name: A4, Velocity: 68
Note ON: Time 531480, Note Name: A#4, Velocity: 62
Note OFF: Time 531504, Note Name: A4
Note ON: Time 531600, Note Name: A4, Velocity: 62
Note OFF: Time 531624, Note Name: A#4
Note ON: Time 531720, Note Name: G4, Velocity: 62
Note OFF: Time 531744, Note Name: A4
Note ON: Time 531840, Note Name: F4, Velocity: 66
Note OFF: Time 531864, Note Name: G4
Note ON: Time 531960, Note Name: G4, Velocity: 59
Note OFF: Time 531984, Note Name: F4
Note ON: Time 532080, Note Name: A4, Velocity: 63
Note OFF: Time 532104, Note Name: G4
Note ON: Time 532200, Note Name: A#4, Velocity: 59
Note OFF: Time 532224, Note Name: A4
Note ON: Time 532320, Note Name: B4, Velocity: 66
Note OFF: Time 532344, Note Name: A#4
Note ON: Time 532440, Note Name: C5, Velocity: 59
Note OFF: Time 532464, Note Name: B4
Note ON: Time 532560, Note Name: D5, Velocity: 65
Note OFF: Time 532584, Note Name: C5
Note ON: Time 532680, Note Name: C5, Velocity: 60
Note OFF: Time 532704, Note Name: D5
Note OFF: Time 532800, Note Name: C5
Note ON: Time 532800, Note Name: D#5, Velocity: 85
Note OFF: Time 533040, Note Name: D#5
Note ON: Time 533280, Note Name: D5, Velocity: 89
Note OFF: Time 534000, Note Name: D5
Note ON: Time 534000, Note Name: D#5, Velocity: 85
Note OFF: Time 534120, Note Name: D#5
Note ON: Time 534120, Note Name: C#5, Velocity: 76
Note OFF: Time 534240, Note Name: C#5
Note ON: Time 534240, Note Name: B4, Velocity: 86
Note ON: Time 534360, Note Name: C5, Velocity: 79
Note OFF: Time 534384, Note Name: B4
Note ON: Time 534480, Note Name: C#5, Velocity: 79
Note OFF: Time 534504, Note Name: C5
Note ON: Time 534600, Note Name: C5, Velocity: 80
Note OFF: Time 534624, Note Name: C#5
Note OFF: Time 534720, Note Name: C5
Note ON: Time 534720, Note Name: A4, Velocity: 86
Note ON: Time 534840, Note Name: A#4, Velocity: 83
Note OFF: Time 534864, Note Name: A4
Note ON: Time 534960, Note Name: C5, Velocity: 83
Note OFF: Time 534984, Note Name: A#4
Note ON: Time 535080, Note Name: A#4, Velocity: 83
Note OFF: Time 535104, Note Name: C5
Note OFF: Time 535200, Note Name: A#4
Note ON: Time 535200, Note Name: G#4, Velocity: 88
Note ON: Time 535320, Note Name: A4, Velocity: 84
Note OFF: Time 535344, Note Name: G#4
Note ON: Time 535440, Note Name: A#4, Velocity: 85
Note OFF: Time 535464, Note Name: A4
Note ON: Time 535560, Note Name: A4, Velocity: 85
Note OFF: Time 535584, Note Name: A#4
Note OFF: Time 535680, Note Name: A4
Note ON: Time 535680, Note Name: F1, Velocity: 84
Note OFF: Time 535800, Note Name: F1
Note ON: Time 536160, Note Name: A2, Velocity: 66
Note OFF: Time 536240, Note Name: A2
Note ON: Time 536240, Note Name: A#2, Velocity: 58
Note OFF: Time 536320, Note Name: A#2
Note ON: Time 536320, Note Name: A2, Velocity: 66
Note OFF: Time 536400, Note Name: A2
Note ON: Time 536400, Note Name: A#2, Velocity: 59
Note OFF: Time 536480, Note Name: A#2
Note ON: Time 536480, Note Name: A2, Velocity: 66
Note OFF: Time 536560, Note Name: A2
Note ON: Time 536560, Note Name: A#2, Velocity: 60
Note OFF: Time 536640, Note Name: A#2
Note ON: Time 536640, Note Name: A2, Velocity: 66
Note OFF: Time 536720, Note Name: A2
Note ON: Time 536720, Note Name: A#2, Velocity: 66
Note OFF: Time 536800, Note Name: A#2
Note ON: Time 536800, Note Name: A2, Velocity: 66
Note OFF: Time 536880, Note Name: A2
Note ON: Time 536880, Note Name: A#2, Velocity: 60
Note OFF: Time 536940, Note Name: A#2
Note ON: Time 536940, Note Name: A2, Velocity: 66
Note OFF: Time 537000, Note Name: A2
Note ON: Time 537000, Note Name: G2, Velocity: 60
Note OFF: Time 537060, Note Name: G2
Note ON: Time 537060, Note Name: A2, Velocity: 60
Note OFF: Time 537120, Note Name: A2
Note ON: Time 537120, Note Name: A#2, Velocity: 71
Note OFF: Time 537600, Note Name: A#2
Note ON: Time 537840, Note Name: A#2, Velocity: 60
Note OFF: Time 537960, Note Name: A#2
Note ON: Time 537960, Note Name: A2, Velocity: 52
Note OFF: Time 538080, Note Name: A2
Note ON: Time 538080, Note Name: G2, Velocity: 59
Note OFF: Time 538200, Note Name: G2
Note ON: Time 538200, Note Name: F2, Velocity: 59
Note OFF: Time 538320, Note Name: F2
Note ON: Time 538320, Note Name: D#2, Velocity: 63
Note OFF: Time 538440, Note Name: D#2
Note ON: Time 538440, Note Name: D2, Velocity: 64
Note OFF: Time 538560, Note Name: D2
Note ON: Time 538560, Note Name: F2, Velocity: 69
Note OFF: Time 539040, Note Name: F2
Note ON: Time 539280, Note Name: G2, Velocity: 60
Note OFF: Time 539400, Note Name: G2
Note ON: Time 539400, Note Name: F2, Velocity: 52
Note OFF: Time 539520, Note Name: F2
Note ON: Time 539520, Note Name: D#2, Velocity: 59
Note OFF: Time 539640, Note Name: D#2
Note ON: Time 539640, Note Name: D2, Velocity: 59
Note OFF: Time 539760, Note Name: D2
Note ON: Time 539760, Note Name: C2, Velocity: 63
Note OFF: Time 539880, Note Name: C2
Note ON: Time 539880, Note Name: A#1, Velocity: 64
Note OFF: Time 540000, Note Name: A#1
Note ON: Time 540000, Note Name: D#2, Velocity: 69
Note OFF: Time 540480, Note Name: D#2
Note ON: Time 540720, Note Name: D#2, Velocity: 60
Note OFF: Time 540840, Note Name: D#2
Note ON: Time 540840, Note Name: D2, Velocity: 52
Note OFF: Time 540960, Note Name: D2
Note ON: Time 540960, Note Name: C2, Velocity: 59
Note OFF: Time 541080, Note Name: C2
Note ON: Time 541080, Note Name: D2, Velocity: 59
Note OFF: Time 541200, Note Name: D2
Note ON: Time 541200, Note Name: C2, Velocity: 63
Note OFF: Time 541320, Note Name: C2
Note ON: Time 541320, Note Name: A#1, Velocity: 64
Note OFF: Time 541440, Note Name: A#1
Note ON: Time 541440, Note Name: A1, Velocity: 59
Note OFF: Time 541680, Note Name: A1
Note ON: Time 541680, Note Name: A2, Velocity: 60
Note OFF: Time 541800, Note Name: A2
Note ON: Time 541800, Note Name: G2, Velocity: 52
Note OFF: Time 541920, Note Name: G2
Note ON: Time 541920, Note Name: F3, Velocity: 59
Note ON: Time 541920, Note Name: F2, Velocity: 59
Note OFF: Time 542160, Note Name: F2
Note OFF: Time 542160, Note Name: F3
Note ON: Time 542400, Note Name: A4, Velocity: 59
Note OFF: Time 542480, Note Name: A4
Note ON: Time 542480, Note Name: A#4, Velocity: 54
Note OFF: Time 542560, Note Name: A#4
Note ON: Time 542560, Note Name: A4, Velocity: 59
Note OFF: Time 542640, Note Name: A4
Note ON: Time 542640, Note Name: A#4, Velocity: 54
Note OFF: Time 542720, Note Name: A#4
Note ON: Time 542720, Note Name: A4, Velocity: 59
Note OFF: Time 542800, Note Name: A4
Note ON: Time 542800, Note Name: A#4, Velocity: 53
Note OFF: Time 542880, Note Name: A#4
Note ON: Time 542880, Note Name: A4, Velocity: 59
Note OFF: Time 542960, Note Name: A4
Note ON: Time 542960, Note Name: A#4, Velocity: 54
Note OFF: Time 543040, Note Name: A#4
Note ON: Time 543040, Note Name: A4, Velocity: 59
Note OFF: Time 543120, Note Name: A4
Note ON: Time 543120, Note Name: A#4, Velocity: 53
Note OFF: Time 543180, Note Name: A#4
Note ON: Time 543180, Note Name: A4, Velocity: 56
Note OFF: Time 543240, Note Name: A4
Note ON: Time 543240, Note Name: G4, Velocity: 53
Note OFF: Time 543300, Note Name: G4
Note ON: Time 543300, Note Name: A4, Velocity: 53
Note OFF: Time 543360, Note Name: A4
Note ON: Time 543360, Note Name: A#4, Velocity: 59
Note ON: Time 543600, Note Name: A#2, Velocity: 73
Note OFF: Time 543720, Note Name: A#2
Note OFF: Time 543840, Note Name: A#4
Note ON: Time 543840, Note Name: D4, Velocity: 73
Note OFF: Time 543900, Note Name: D4
Note ON: Time 543900, Note Name: D#4, Velocity: 68
Note OFF: Time 543960, Note Name: D#4
Note ON: Time 543960, Note Name: D4, Velocity: 73
Note OFF: Time 544020, Note Name: D4
Note ON: Time 544020, Note Name: D#4, Velocity: 68
Note OFF: Time 544080, Note Name: D#4
Note ON: Time 544080, Note Name: A#4, Velocity: 73
Note OFF: Time 544200, Note Name: A#4
Note ON: Time 544200, Note Name: A4, Velocity: 74
Note OFF: Time 544320, Note Name: A4
Note ON: Time 544320, Note Name: G4, Velocity: 72
Note OFF: Time 544440, Note Name: G4
Note ON: Time 544440, Note Name: F4, Velocity: 69
Note OFF: Time 544560, Note Name: F4
Note ON: Time 544560, Note Name: D#4, Velocity: 67
Note OFF: Time 544680, Note Name: D#4
Note ON: Time 544680, Note Name: D4, Velocity: 64
Note OFF: Time 544800, Note Name: D4
Note ON: Time 544800, Note Name: G4, Velocity: 73
Note OFF: Time 545280, Note Name: G4
Note ON: Time 545520, Note Name: G4, Velocity: 73
Note OFF: Time 545640, Note Name: G4
Note ON: Time 545640, Note Name: F4, Velocity: 74
Note OFF: Time 545760, Note Name: F4
Note ON: Time 545760, Note Name: D#4, Velocity: 72
Note OFF: Time 545880, Note Name: D#4
Note ON: Time 545880, Note Name: D4, Velocity: 69
Note OFF: Time 546000, Note Name: D4
Note ON: Time 546000, Note Name: C4, Velocity: 67
Note OFF: Time 546120, Note Name: C4
Note ON: Time 546120, Note Name: B3, Velocity: 64
Note OFF: Time 546240, Note Name: B3
Note ON: Time 546240, Note Name: D#4, Velocity: 73
Note ON: Time 546480, Note Name: D#3, Velocity: 73
Note OFF: Time 546600, Note Name: D#3
Note OFF: Time 546720, Note Name: D#4
Note ON: Time 546720, Note Name: C4, Velocity: 73
Note OFF: Time 546780, Note Name: C4
Note ON: Time 546780, Note Name: D4, Velocity: 68
Note OFF: Time 546840, Note Name: D4
Note ON: Time 546840, Note Name: C4, Velocity: 73
Note OFF: Time 546900, Note Name: C4
Note ON: Time 546900, Note Name: D4, Velocity: 68
Note OFF: Time 546960, Note Name: D4
Note ON: Time 546960, Note Name: D#4, Velocity: 62
Note OFF: Time 547080, Note Name: D#4
Note ON: Time 547080, Note Name: D4, Velocity: 62
Note OFF: Time 547200, Note Name: D4
Note ON: Time 547200, Note Name: C4, Velocity: 61
Note OFF: Time 547320, Note Name: C4
Note ON: Time 547320, Note Name: B3, Velocity: 58
Note OFF: Time 547440, Note Name: B3
Note ON: Time 547440, Note Name: A3, Velocity: 56
Note OFF: Time 547560, Note Name: A3
Note ON: Time 547560, Note Name: G3, Velocity: 54
Note OFF: Time 547680, Note Name: G3
Note ON: Time 547680, Note Name: C2, Velocity: 73
Note ON: Time 547680, Note Name: D#4, Velocity: 62
Note OFF: Time 547920, Note Name: C2
Note OFF: Time 548160, Note Name: D#4
Note ON: Time 548160, Note Name: E3, Velocity: 59
Note OFF: Time 548240, Note Name: E3
Note ON: Time 548240, Note Name: F3, Velocity: 54
Note OFF: Time 548320, Note Name: F3
Note ON: Time 548320, Note Name: E3, Velocity: 59
Note OFF: Time 548400, Note Name: E3
Note ON: Time 548400, Note Name: F3, Velocity: 54
Note OFF: Time 548480, Note Name: F3
Note ON: Time 548480, Note Name: E3, Velocity: 59
Note OFF: Time 548560, Note Name: E3
Note ON: Time 548560, Note Name: F3, Velocity: 53
Note OFF: Time 548640, Note Name: F3
Note ON: Time 548640, Note Name: E3, Velocity: 59
Note OFF: Time 548720, Note Name: E3
Note ON: Time 548720, Note Name: F3, Velocity: 54
Note OFF: Time 548800, Note Name: F3
Note ON: Time 548800, Note Name: E3, Velocity: 59
Note OFF: Time 548880, Note Name: E3
Note ON: Time 548880, Note Name: F3, Velocity: 53
Note OFF: Time 548940, Note Name: F3
Note ON: Time 548940, Note Name: E3, Velocity: 56
Note OFF: Time 549000, Note Name: E3
Note ON: Time 549000, Note Name: D3, Velocity: 53
Note OFF: Time 549060, Note Name: D3
Note ON: Time 549060, Note Name: E3, Velocity: 53
Note OFF: Time 549120, Note Name: E3
Note ON: Time 549120, Note Name: F3, Velocity: 59
Note OFF: Time 549600, Note Name: F3
Note ON: Time 549840, Note Name: F3, Velocity: 64
Note OFF: Time 549960, Note Name: F3
Note ON: Time 549960, Note Name: E3, Velocity: 59
Note OFF: Time 550080, Note Name: E3
Note ON: Time 550080, Note Name: D3, Velocity: 65
Note OFF: Time 550200, Note Name: D3
Note ON: Time 550200, Note Name: C3, Velocity: 62
Note OFF: Time 550320, Note Name: C3
Note ON: Time 550320, Note Name: A#2, Velocity: 59
Note OFF: Time 550440, Note Name: A#2
Note ON: Time 550440, Note Name: A2, Velocity: 56
Note OFF: Time 550560, Note Name: A2
Note ON: Time 550560, Note Name: G3, Velocity: 86
Note OFF: Time 551040, Note Name: G3
Note ON: Time 551040, Note Name: A#3, Velocity: 76
Note OFF: Time 551280, Note Name: A#3
Note ON: Time 551280, Note Name: G3, Velocity: 64
Note OFF: Time 551400, Note Name: G3
Note ON: Time 551400, Note Name: F3, Velocity: 60
Note OFF: Time 551520, Note Name: F3
Note ON: Time 551520, Note Name: D#3, Velocity: 64
Note OFF: Time 551640, Note Name: D#3
Note ON: Time 551640, Note Name: D3, Velocity: 61
Note OFF: Time 551760, Note Name: D3
Note ON: Time 551760, Note Name: C3, Velocity: 60
Note OFF: Time 551880, Note Name: C3
Note ON: Time 551880, Note Name: A#2, Velocity: 59
Note OFF: Time 552000, Note Name: A#2
Note ON: Time 552000, Note Name: A3, Velocity: 64
Note OFF: Time 552480, Note Name: A3
Note ON: Time 552720, Note Name: A3, Velocity: 62
Note OFF: Time 552840, Note Name: A3
Note ON: Time 552840, Note Name: G3, Velocity: 59
Note OFF: Time 552960, Note Name: G3
Note ON: Time 552960, Note Name: F3, Velocity: 64
Note OFF: Time 553080, Note Name: F3
Note ON: Time 553080, Note Name: D#3, Velocity: 61
Note OFF: Time 553200, Note Name: D#3
Note ON: Time 553200, Note Name: D3, Velocity: 59
Note OFF: Time 553320, Note Name: D3
Note ON: Time 553320, Note Name: C3, Velocity: 57
Note OFF: Time 553440, Note Name: C3
Note ON: Time 553440, Note Name: A#2, Velocity: 61
Note OFF: Time 553560, Note Name: A#2
Note ON: Time 553560, Note Name: A3, Velocity: 67
Note OFF: Time 553680, Note Name: A3
Note ON: Time 553680, Note Name: G3, Velocity: 58
Note OFF: Time 553800, Note Name: G3
Note ON: Time 553800, Note Name: F3, Velocity: 56
Note OFF: Time 553920, Note Name: F3
Note ON: Time 553920, Note Name: A#3, Velocity: 64
Note OFF: Time 554040, Note Name: A#3
Note ON: Time 554040, Note Name: A3, Velocity: 61
Note OFF: Time 554160, Note Name: A3
Note ON: Time 554160, Note Name: D4, Velocity: 64
Note OFF: Time 554280, Note Name: D4
Note ON: Time 554280, Note Name: C4, Velocity: 60
Note OFF: Time 554400, Note Name: C4
Note ON: Time 554400, Note Name: A#3, Velocity: 67
Note OFF: Time 554520, Note Name: A#3
Note ON: Time 554520, Note Name: A3, Velocity: 64
Note OFF: Time 554640, Note Name: A3
Note ON: Time 554640, Note Name: G3, Velocity: 62
Note OFF: Time 554760, Note Name: G3
Note ON: Time 554760, Note Name: F3, Velocity: 60
Note OFF: Time 554880, Note Name: F3
Note ON: Time 554880, Note Name: D#3, Velocity: 66
Note OFF: Time 555000, Note Name: D#3
Note ON: Time 555000, Note Name: D3, Velocity: 64
Note OFF: Time 555120, Note Name: D3
Note ON: Time 555120, Note Name: C3, Velocity: 62
Note OFF: Time 555240, Note Name: C3
Note ON: Time 555240, Note Name: A#2, Velocity: 60
Note OFF: Time 555360, Note Name: A#2
Note ON: Time 555360, Note Name: G2, Velocity: 68
Note OFF: Time 555480, Note Name: G2
Note ON: Time 555480, Note Name: A2, Velocity: 66
Note OFF: Time 555600, Note Name: A2
Note ON: Time 555600, Note Name: A#2, Velocity: 63
Note OFF: Time 555720, Note Name: A#2
Note ON: Time 555720, Note Name: B2, Velocity: 61
Note OFF: Time 555840, Note Name: B2
Note ON: Time 555840, Note Name: C3, Velocity: 61
Note OFF: Time 555960, Note Name: C3
Note ON: Time 555960, Note Name: D3, Velocity: 62
Note OFF: Time 556080, Note Name: D3
Note ON: Time 556080, Note Name: D#3, Velocity: 64
Note OFF: Time 556200, Note Name: D#3
Note ON: Time 556200, Note Name: D3, Velocity: 62
Note OFF: Time 556320, Note Name: D3
Note ON: Time 556320, Note Name: C3, Velocity: 61
Note OFF: Time 556440, Note Name: C3
Note ON: Time 556440, Note Name: A#2, Velocity: 58
Note OFF: Time 556560, Note Name: A#2
Note ON: Time 556560, Note Name: A2, Velocity: 58
Note OFF: Time 556680, Note Name: A2
Note ON: Time 556680, Note Name: G2, Velocity: 57
Note OFF: Time 556800, Note Name: G2
Note ON: Time 556800, Note Name: F2, Velocity: 61
Note OFF: Time 556920, Note Name: F2
Note ON: Time 556920, Note Name: D#2, Velocity: 61
Note OFF: Time 557040, Note Name: D#2
Note ON: Time 557040, Note Name: D2, Velocity: 64
Note OFF: Time 557160, Note Name: D2
Note ON: Time 557160, Note Name: C2, Velocity: 66
Note OFF: Time 557280, Note Name: C2
Note ON: Time 557280, Note Name: A#1, Velocity: 76
Note OFF: Time 557520, Note Name: A#1
Note ON: Time 557760, Note Name: D3, Velocity: 64
Note OFF: Time 557840, Note Name: D3
Note ON: Time 557840, Note Name: D#3, Velocity: 59
Note OFF: Time 557920, Note Name: D#3
Note ON: Time 557920, Note Name: D3, Velocity: 65
Note OFF: Time 558000, Note Name: D3
Note ON: Time 558000, Note Name: D#3, Velocity: 60
Note OFF: Time 558080, Note Name: D#3
Note ON: Time 558080, Note Name: D3, Velocity: 66
Note OFF: Time 558160, Note Name: D3
Note ON: Time 558160, Note Name: D#3, Velocity: 61
Note OFF: Time 558240, Note Name: D#3
Note ON: Time 558240, Note Name: D3, Velocity: 67
Note OFF: Time 558320, Note Name: D3
Note ON: Time 558320, Note Name: D#3, Velocity: 62
Note OFF: Time 558400, Note Name: D#3
Note ON: Time 558400, Note Name: D3, Velocity: 68
Note OFF: Time 558480, Note Name: D3
Note ON: Time 558480, Note Name: D#3, Velocity: 65
Note OFF: Time 558540, Note Name: D#3
Note ON: Time 558540, Note Name: D3, Velocity: 69
Note OFF: Time 558600, Note Name: D3
Note ON: Time 558600, Note Name: C3, Velocity: 65
Note OFF: Time 558660, Note Name: C3
Note ON: Time 558660, Note Name: D3, Velocity: 65
Note OFF: Time 558720, Note Name: D3
Note ON: Time 558720, Note Name: D#3, Velocity: 72
Note OFF: Time 558960, Note Name: D#3
Note ON: Time 560880, Note Name: E3, Velocity: 67
Note OFF: Time 561120, Note Name: E3
Note ON: Time 561120, Note Name: F3, Velocity: 72
Note OFF: Time 561600, Note Name: F3
Note ON: Time 561840, Note Name: F3, Velocity: 72
Note OFF: Time 562080, Note Name: F3
Note ON: Time 562080, Note Name: D#4, Velocity: 61
Note ON: Time 562080, Note Name: F#4, Velocity: 72
Note OFF: Time 562800, Note Name: F#4
Note OFF: Time 562800, Note Name: D#4
Note ON: Time 562800, Note Name: F#4, Velocity: 66
Note ON: Time 562800, Note Name: D#4, Velocity: 56
Note OFF: Time 563040, Note Name: D#4
Note OFF: Time 563040, Note Name: F#4
Note ON: Time 563040, Note Name: D#4, Velocity: 59
Note ON: Time 563040, Note Name: F#4, Velocity: 70
Note OFF: Time 563280, Note Name: F#4
Note OFF: Time 563280, Note Name: D#4
Note ON: Time 563280, Note Name: F4, Velocity: 67
Note ON: Time 563280, Note Name: D4, Velocity: 56
Note OFF: Time 563520, Note Name: D4
Note OFF: Time 563520, Note Name: F4
Note ON: Time 563520, Note Name: C4, Velocity: 55
Note ON: Time 563520, Note Name: D#4, Velocity: 65
Note OFF: Time 563760, Note Name: D#4
Note OFF: Time 563760, Note Name: C4
Note ON: Time 563760, Note Name: D4, Velocity: 63
Note ON: Time 563760, Note Name: A#3, Velocity: 53
Note OFF: Time 564000, Note Name: A#3
Note OFF: Time 564000, Note Name: D4
Note ON: Time 564000, Note Name: D3, Velocity: 63
Note OFF: Time 564120, Note Name: D3
Note ON: Time 564120, Note Name: D#3, Velocity: 56
Note OFF: Time 564240, Note Name: D#3
Note ON: Time 564240, Note Name: D3, Velocity: 57
Note OFF: Time 564360, Note Name: D3
Note ON: Time 564360, Note Name: C3, Velocity: 57
Note OFF: Time 564480, Note Name: C3
Note ON: Time 564480, Note Name: A#2, Velocity: 63
Note OFF: Time 564600, Note Name: A#2
Note ON: Time 564600, Note Name: C3, Velocity: 58
Note OFF: Time 564720, Note Name: C3
Note ON: Time 564720, Note Name: D3, Velocity: 58
Note OFF: Time 564840, Note Name: D3
Note ON: Time 564840, Note Name: D#3, Velocity: 58
Note OFF: Time 564960, Note Name: D#3
Note ON: Time 564960, Note Name: E3, Velocity: 61
Note OFF: Time 565080, Note Name: E3
Note ON: Time 565080, Note Name: F3, Velocity: 62
Note OFF: Time 565200, Note Name: F3
Note ON: Time 565200, Note Name: G3, Velocity: 64
Note OFF: Time 565320, Note Name: G3
Note ON: Time 565320, Note Name: F3, Velocity: 62
Note OFF: Time 565440, Note Name: F3
Note ON: Time 565440, Note Name: D3, Velocity: 61
Note OFF: Time 565560, Note Name: D3
Note ON: Time 565560, Note Name: D#3, Velocity: 63
Note OFF: Time 565680, Note Name: D#3
Note ON: Time 565680, Note Name: F3, Velocity: 65
Note OFF: Time 565800, Note Name: F3
Note ON: Time 565800, Note Name: D#3, Velocity: 63
Note OFF: Time 565920, Note Name: D#3
Note ON: Time 565920, Note Name: B2, Velocity: 63
Note OFF: Time 566040, Note Name: B2
Note ON: Time 566040, Note Name: C3, Velocity: 63
Note OFF: Time 566160, Note Name: C3
Note ON: Time 566160, Note Name: D3, Velocity: 65
Note OFF: Time 566280, Note Name: D3
Note ON: Time 566280, Note Name: D#3, Velocity: 66
Note OFF: Time 566400, Note Name: D#3
Note ON: Time 566400, Note Name: E3, Velocity: 68
Note OFF: Time 566520, Note Name: E3
Note ON: Time 566520, Note Name: F3, Velocity: 70
Note OFF: Time 566640, Note Name: F3
Note ON: Time 566640, Note Name: G3, Velocity: 73
Note OFF: Time 566760, Note Name: G3
Note ON: Time 566760, Note Name: F3, Velocity: 69
Note OFF: Time 566880, Note Name: F3
Note ON: Time 566880, Note Name: F3, Velocity: 71
Note ON: Time 566880, Note Name: F2, Velocity: 60
Note OFF: Time 567120, Note Name: F2
Note OFF: Time 567120, Note Name: F3
Note ON: Time 567120, Note Name: A#1, Velocity: 56
Note ON: Time 567120, Note Name: A#2, Velocity: 67
Note OFF: Time 567360, Note Name: A#2
Note OFF: Time 567360, Note Name: A#1
Note ON: Time 568320, Note Name: A#1, Velocity: 45
Note OFF: Time 568560, Note Name: A#1
Note ON: Time 568800, Note Name: D3, Velocity: 56
Note OFF: Time 568880, Note Name: D3
Note ON: Time 568880, Note Name: D#3, Velocity: 51
Note OFF: Time 568960, Note Name: D#3
Note ON: Time 568960, Note Name: D3, Velocity: 59
Note OFF: Time 569040, Note Name: D3
Note ON: Time 569040, Note Name: D#3, Velocity: 55
Note OFF: Time 569100, Note Name: D#3
Note ON: Time 569100, Note Name: D3, Velocity: 63
Note OFF: Time 569160, Note Name: D3
Note ON: Time 569160, Note Name: D#3, Velocity: 56
Note OFF: Time 569220, Note Name: D#3
Note ON: Time 569220, Note Name: D3, Velocity: 58
Note OFF: Time 569280, Note Name: D3
Note ON: Time 569280, Note Name: D#3, Velocity: 67
Note ON: Time 569280, Note Name: D#4, Velocity: 67
Note OFF: Time 569520, Note Name: D#4
Note OFF: Time 569520, Note Name: D#3
Note ON: Time 569760, Note Name: F#5, Velocity: 57
Note OFF: Time 570240, Note Name: F#5
Note ON: Time 570240, Note Name: F#2, Velocity: 77
Note ON: Time 570240, Note Name: F#3, Velocity: 84
Note OFF: Time 570480, Note Name: F#3
Note OFF: Time 570480, Note Name: F#2
Note ON: Time 570720, Note Name: D#1, Velocity: 100
Note OFF: Time 570800, Note Name: D#1
Note ON: Time 570800, Note Name: F1, Velocity: 56
Note OFF: Time 570880, Note Name: F1
Note ON: Time 570880, Note Name: D#1, Velocity: 66
Note OFF: Time 570960, Note Name: D#1
Note ON: Time 570960, Note Name: F1, Velocity: 55
Note OFF: Time 571040, Note Name: F1
Note ON: Time 571040, Note Name: D#1, Velocity: 66
Note OFF: Time 571120, Note Name: D#1
Note ON: Time 571120, Note Name: F1, Velocity: 54
Note OFF: Time 571200, Note Name: F1
Note ON: Time 571200, Note Name: D#1, Velocity: 64
Note OFF: Time 571280, Note Name: D#1
Note ON: Time 571280, Note Name: F1, Velocity: 57
Note OFF: Time 571360, Note Name: F1
Note ON: Time 571360, Note Name: D#1, Velocity: 63
Note OFF: Time 571440, Note Name: D#1
Note ON: Time 571440, Note Name: F1, Velocity: 53
Note OFF: Time 571520, Note Name: F1
Note ON: Time 571520, Note Name: D#1, Velocity: 62
Note OFF: Time 571600, Note Name: D#1
Note ON: Time 571600, Note Name: F1, Velocity: 55
Note OFF: Time 571680, Note Name: F1
Note ON: Time 571680, Note Name: D#1, Velocity: 62
Note OFF: Time 571760, Note Name: D#1
Note ON: Time 571760, Note Name: F1, Velocity: 52
Note OFF: Time 571840, Note Name: F1
Note ON: Time 571840, Note Name: D#1, Velocity: 61
Note OFF: Time 571920, Note Name: D#1
Note ON: Time 571920, Note Name: F1, Velocity: 51
Note OFF: Time 572000, Note Name: F1
Note ON: Time 572000, Note Name: D#1, Velocity: 59
Note OFF: Time 572080, Note Name: D#1
Note ON: Time 572080, Note Name: F1, Velocity: 50
Note OFF: Time 572160, Note Name: F1
Note ON: Time 572160, Note Name: D#1, Velocity: 58
Note OFF: Time 572240, Note Name: D#1
Note ON: Time 572240, Note Name: F1, Velocity: 50
Note OFF: Time 572320, Note Name: F1
Note ON: Time 572320, Note Name: D#1, Velocity: 57
Note OFF: Time 572400, Note Name: D#1
Note ON: Time 572400, Note Name: F1, Velocity: 51
Note OFF: Time 572480, Note Name: F1
Note ON: Time 572480, Note Name: D#1, Velocity: 57
Note OFF: Time 572560, Note Name: D#1
Note ON: Time 572560, Note Name: F1, Velocity: 49
Note OFF: Time 572640, Note Name: F1
Note ON: Time 572640, Note Name: D#1, Velocity: 56
Note OFF: Time 572720, Note Name: D#1
Note ON: Time 572720, Note Name: F1, Velocity: 49
Note OFF: Time 572800, Note Name: F1
Note ON: Time 572800, Note Name: D#1, Velocity: 56
Note OFF: Time 572880, Note Name: D#1
Note ON: Time 572880, Note Name: F1, Velocity: 49
Note OFF: Time 572960, Note Name: F1
Note ON: Time 572960, Note Name: D#1, Velocity: 56
Note OFF: Time 573040, Note Name: D#1
Note ON: Time 573040, Note Name: F1, Velocity: 48
Note OFF: Time 573120, Note Name: F1
Note ON: Time 573120, Note Name: D#1, Velocity: 56
Note OFF: Time 573200, Note Name: D#1
Note ON: Time 573200, Note Name: F1, Velocity: 48
Note OFF: Time 573280, Note Name: F1
Note ON: Time 573280, Note Name: D#1, Velocity: 56
Note OFF: Time 573360, Note Name: D#1
Note ON: Time 573360, Note Name: F1, Velocity: 48
Note OFF: Time 573440, Note Name: F1
Note ON: Time 573440, Note Name: D#1, Velocity: 56
Note OFF: Time 573520, Note Name: D#1
Note ON: Time 573520, Note Name: F1, Velocity: 48
Note OFF: Time 573600, Note Name: F1
Note ON: Time 573600, Note Name: D#1, Velocity: 56
Note OFF: Time 573680, Note Name: D#1
Note ON: Time 573680, Note Name: F1, Velocity: 49
Note OFF: Time 573760, Note Name: F1
Note ON: Time 573760, Note Name: D#1, Velocity: 56
Note OFF: Time 573840, Note Name: D#1
Note ON: Time 573840, Note Name: F1, Velocity: 50
Note OFF: Time 573920, Note Name: F1
Note ON: Time 573920, Note Name: D#1, Velocity: 56
Note OFF: Time 574000, Note Name: D#1
Note ON: Time 574000, Note Name: F1, Velocity: 49
Note OFF: Time 574080, Note Name: F1
Note ON: Time 574080, Note Name: D#1, Velocity: 56
Note OFF: Time 574160, Note Name: D#1
Note ON: Time 574160, Note Name: F1, Velocity: 49
Note OFF: Time 574240, Note Name: F1
Note ON: Time 574240, Note Name: D#1, Velocity: 56
Note OFF: Time 574320, Note Name: D#1
Note ON: Time 574320, Note Name: F1, Velocity: 49
Note OFF: Time 574400, Note Name: F1
Note ON: Time 574400, Note Name: D#1, Velocity: 56
Note OFF: Time 574480, Note Name: D#1
Note ON: Time 574480, Note Name: F1, Velocity: 48
Note OFF: Time 574560, Note Name: F1
Note ON: Time 574560, Note Name: D#1, Velocity: 56
Note OFF: Time 574640, Note Name: D#1
Note ON: Time 574640, Note Name: F1, Velocity: 48
Note OFF: Time 574720, Note Name: F1
Note ON: Time 574720, Note Name: D#1, Velocity: 56
Note OFF: Time 574800, Note Name: D#1
Note ON: Time 574800, Note Name: F1, Velocity: 48
Note OFF: Time 574880, Note Name: F1
Note ON: Time 574880, Note Name: D#1, Velocity: 56
Note OFF: Time 574960, Note Name: D#1
Note ON: Time 574960, Note Name: F1, Velocity: 48
Note OFF: Time 575040, Note Name: F1
Note ON: Time 575040, Note Name: D#1, Velocity: 56
Note OFF: Time 575120, Note Name: D#1
Note ON: Time 575120, Note Name: F1, Velocity: 49
Note OFF: Time 575200, Note Name: F1
Note ON: Time 575200, Note Name: D#1, Velocity: 56
Note OFF: Time 575280, Note Name: D#1
Note ON: Time 575280, Note Name: F1, Velocity: 50
Note OFF: Time 575360, Note Name: F1
Note ON: Time 575360, Note Name: D#1, Velocity: 56
Note OFF: Time 575440, Note Name: D#1
Note ON: Time 575440, Note Name: F1, Velocity: 41
Note OFF: Time 575520, Note Name: F1
Note ON: Time 575520, Note Name: F1, Velocity: 30
Note ON: Time 575520, Note Name: A#1, Velocity: 54
Note OFF: Time 575600, Note Name: A#1
Note ON: Time 575600, Note Name: C2, Velocity: 44
Note OFF: Time 575680, Note Name: C2
Note ON: Time 575680, Note Name: A#1, Velocity: 52
Note OFF: Time 575760, Note Name: A#1
Note ON: Time 575760, Note Name: C2, Velocity: 39
Note OFF: Time 575840, Note Name: C2
Note ON: Time 575840, Note Name: A#1, Velocity: 49
Note OFF: Time 575920, Note Name: A#1
Note ON: Time 575920, Note Name: C2, Velocity: 38
Note OFF: Time 576000, Note Name: C2
Note OFF: Time 576000, Note Name: F1
Note ON: Time 576000, Note Name: F1, Velocity: 30
Note ON: Time 576000, Note Name: A#1, Velocity: 46
Note OFF: Time 576080, Note Name: A#1
Note ON: Time 576080, Note Name: C2, Velocity: 36
Note OFF: Time 576160, Note Name: C2
Note ON: Time 576160, Note Name: A#1, Velocity: 44
Note OFF: Time 576240, Note Name: A#1
Note ON: Time 576240, Note Name: C2, Velocity: 33
Note OFF: Time 576320, Note Name: C2
Note ON: Time 576320, Note Name: A#1, Velocity: 41
Note OFF: Time 576400, Note Name: A#1
Note ON: Time 576400, Note Name: C2, Velocity: 30
Note OFF: Time 576480, Note Name: C2
Note ON: Time 576480, Note Name: A#1, Velocity: 37
Note OFF: Time 576560, Note Name: A#1
Note ON: Time 576560, Note Name: C2, Velocity: 31
Note OFF: Time 576640, Note Name: C2
Note ON: Time 576640, Note Name: A#1, Velocity: 37
Note OFF: Time 576720, Note Name: A#1
Note ON: Time 576720, Note Name: C2, Velocity: 32
Note OFF: Time 576800, Note Name: C2
Note ON: Time 576800, Note Name: A#1, Velocity: 37
Note OFF: Time 576880, Note Name: A#1
Note ON: Time 576880, Note Name: C2, Velocity: 32
Note OFF: Time 576960, Note Name: C2
Note ON: Time 576960, Note Name: A#1, Velocity: 37
Note OFF: Time 577040, Note Name: A#1
Note ON: Time 577040, Note Name: C2, Velocity: 31
Note OFF: Time 577120, Note Name: C2
Note ON: Time 577120, Note Name: A#1, Velocity: 37
Note OFF: Time 577200, Note Name: A#1
Note ON: Time 577200, Note Name: C2, Velocity: 30
Note OFF: Time 577280, Note Name: C2
Note ON: Time 577280, Note Name: A#1, Velocity: 37
Note OFF: Time 577360, Note Name: A#1
Note ON: Time 577360, Note Name: C2, Velocity: 31
Note OFF: Time 577440, Note Name: C2
Note OFF: Time 577440, Note Name: F1
Note ON: Time 577440, Note Name: A#1, Velocity: 37
Note ON: Time 577440, Note Name: F1, Velocity: 30
Note OFF: Time 577520, Note Name: A#1
Note ON: Time 577520, Note Name: C2, Velocity: 31
Note OFF: Time 577600, Note Name: C2
Note ON: Time 577600, Note Name: A#1, Velocity: 37
Note OFF: Time 577680, Note Name: A#1
Note ON: Time 577680, Note Name: C2, Velocity: 30
Note OFF: Time 577760, Note Name: C2
Note ON: Time 577760, Note Name: A#1, Velocity: 37
Note OFF: Time 577840, Note Name: A#1
Note ON: Time 577840, Note Name: C2, Velocity: 31
Note OFF: Time 577920, Note Name: C2
Note ON: Time 577920, Note Name: A#1, Velocity: 37
Note OFF: Time 578000, Note Name: A#1
Note ON: Time 578000, Note Name: C2, Velocity: 31
Note OFF: Time 578080, Note Name: C2
Note ON: Time 578080, Note Name: A#1, Velocity: 37
Note OFF: Time 578160, Note Name: A#1
Note ON: Time 578160, Note Name: C2, Velocity: 30
Note OFF: Time 578240, Note Name: C2
Note ON: Time 578240, Note Name: A#1, Velocity: 37
Note OFF: Time 578320, Note Name: A#1
Note ON: Time 578320, Note Name: C2, Velocity: 31
Note OFF: Time 578400, Note Name: C2
Note ON: Time 578400, Note Name: A#1, Velocity: 37
Note OFF: Time 578480, Note Name: A#1
Note ON: Time 578480, Note Name: C2, Velocity: 31
Note OFF: Time 578560, Note Name: C2
Note ON: Time 578560, Note Name: A#1, Velocity: 37
Note OFF: Time 578640, Note Name: A#1
Note ON: Time 578640, Note Name: C2, Velocity: 30
Note OFF: Time 578720, Note Name: C2
Note ON: Time 578720, Note Name: A#1, Velocity: 37
Note OFF: Time 578800, Note Name: A#1
Note ON: Time 578800, Note Name: C2, Velocity: 31
Note OFF: Time 578880, Note Name: C2
Note OFF: Time 578880, Note Name: F1
Note ON: Time 578880, Note Name: A#1, Velocity: 37
Note ON: Time 578880, Note Name: F1, Velocity: 30
Note OFF: Time 578960, Note Name: A#1
Note ON: Time 578960, Note Name: C2, Velocity: 31
Note OFF: Time 579040, Note Name: C2
Note ON: Time 579040, Note Name: A#1, Velocity: 37
Note OFF: Time 579120, Note Name: A#1
Note ON: Time 579120, Note Name: C2, Velocity: 30
Note OFF: Time 579200, Note Name: C2
Note ON: Time 579200, Note Name: A#1, Velocity: 37
Note OFF: Time 579280, Note Name: A#1
Note ON: Time 579280, Note Name: C2, Velocity: 31
Note OFF: Time 579360, Note Name: C2
Note ON: Time 579360, Note Name: A#1, Velocity: 37
Note OFF: Time 579440, Note Name: A#1
Note ON: Time 579440, Note Name: C2, Velocity: 31
Note OFF: Time 579520, Note Name: C2
Note ON: Time 579520, Note Name: A#1, Velocity: 37
Note OFF: Time 579600, Note Name: A#1
Note ON: Time 579600, Note Name: C2, Velocity: 30
Note OFF: Time 579680, Note Name: C2
Note ON: Time 579680, Note Name: A#1, Velocity: 37
Note OFF: Time 579760, Note Name: A#1
Note ON: Time 579760, Note Name: C2, Velocity: 31
Note OFF: Time 579840, Note Name: C2
Note ON: Time 579840, Note Name: A#1, Velocity: 37
Note OFF: Time 579920, Note Name: A#1
Note ON: Time 579920, Note Name: C2, Velocity: 31
Note OFF: Time 580000, Note Name: C2
Note ON: Time 580000, Note Name: A#1, Velocity: 37
Note OFF: Time 580080, Note Name: A#1
Note ON: Time 580080, Note Name: C2, Velocity: 30
Note OFF: Time 580160, Note Name: C2
Note ON: Time 580160, Note Name: A#1, Velocity: 37
Note OFF: Time 580240, Note Name: A#1
Note ON: Time 580240, Note Name: C2, Velocity: 31
Note OFF: Time 580320, Note Name: C2
Note OFF: Time 580320, Note Name: F1
Note ON: Time 580320, Note Name: F1, Velocity: 30
Note ON: Time 580320, Note Name: A#1, Velocity: 37
Note OFF: Time 580400, Note Name: A#1
Note ON: Time 580400, Note Name: C2, Velocity: 31
Note OFF: Time 580480, Note Name: C2
Note ON: Time 580480, Note Name: A#1, Velocity: 37
Note OFF: Time 580560, Note Name: A#1
Note ON: Time 580560, Note Name: C2, Velocity: 30
Note OFF: Time 580640, Note Name: C2
Note ON: Time 580640, Note Name: A#1, Velocity: 37
Note OFF: Time 580720, Note Name: A#1
Note ON: Time 580720, Note Name: C2, Velocity: 31
Note OFF: Time 580800, Note Name: C2
Note ON: Time 580800, Note Name: A#1, Velocity: 37
Note OFF: Time 580880, Note Name: A#1
Note ON: Time 580880, Note Name: C2, Velocity: 31
Note OFF: Time 580960, Note Name: C2
Note ON: Time 580960, Note Name: A#1, Velocity: 37
Note OFF: Time 581040, Note Name: A#1
Note ON: Time 581040, Note Name: C2, Velocity: 30
Note OFF: Time 581120, Note Name: C2
Note ON: Time 581120, Note Name: A#1, Velocity: 37
Note OFF: Time 581200, Note Name: A#1
Note ON: Time 581200, Note Name: C2, Velocity: 31
Note OFF: Time 581280, Note Name: C2
Note ON: Time 581280, Note Name: A#1, Velocity: 37
Note OFF: Time 581360, Note Name: A#1
Note ON: Time 581360, Note Name: C2, Velocity: 31
Note OFF: Time 581440, Note Name: C2
Note ON: Time 581440, Note Name: A#1, Velocity: 37
Note OFF: Time 581520, Note Name: A#1
Note ON: Time 581520, Note Name: C2, Velocity: 30
Note OFF: Time 581600, Note Name: C2
Note ON: Time 581600, Note Name: A#1, Velocity: 37
Note OFF: Time 581680, Note Name: A#1
Note ON: Time 581680, Note Name: C2, Velocity: 31
Note OFF: Time 581760, Note Name: C2
Note OFF: Time 581760, Note Name: F1
Note ON: Time 581760, Note Name: F1, Velocity: 30
Note ON: Time 581760, Note Name: A#1, Velocity: 37
Note OFF: Time 581840, Note Name: A#1
Note ON: Time 581840, Note Name: C2, Velocity: 31
Note OFF: Time 581920, Note Name: C2
Note ON: Time 581920, Note Name: A#1, Velocity: 37
Note OFF: Time 582000, Note Name: A#1
Note ON: Time 582000, Note Name: C2, Velocity: 30
Note OFF: Time 582080, Note Name: C2
Note ON: Time 582080, Note Name: A#1, Velocity: 37
Note OFF: Time 582160, Note Name: A#1
Note ON: Time 582160, Note Name: C2, Velocity: 31
Note OFF: Time 582240, Note Name: C2
Note ON: Time 582240, Note Name: A#1, Velocity: 37
Note OFF: Time 582320, Note Name: A#1
Note ON: Time 582320, Note Name: C2, Velocity: 31
Note OFF: Time 582400, Note Name: C2
Note ON: Time 582400, Note Name: A#1, Velocity: 37
Note OFF: Time 582480, Note Name: A#1
Note ON: Time 582480, Note Name: C2, Velocity: 30
Note OFF: Time 582560, Note Name: C2
Note ON: Time 582560, Note Name: A#1, Velocity: 37
Note OFF: Time 582640, Note Name: A#1
Note ON: Time 582640, Note Name: C2, Velocity: 31
Note OFF: Time 582720, Note Name: C2
Note ON: Time 582720, Note Name: A#1, Velocity: 37
Note OFF: Time 582800, Note Name: A#1
Note ON: Time 582800, Note Name: C2, Velocity: 31
Note OFF: Time 582880, Note Name: C2
Note ON: Time 582880, Note Name: A#1, Velocity: 37
Note OFF: Time 582960, Note Name: A#1
Note ON: Time 582960, Note Name: C2, Velocity: 30
Note OFF: Time 583040, Note Name: C2
Note ON: Time 583040, Note Name: A#1, Velocity: 37
Note OFF: Time 583120, Note Name: A#1
Note ON: Time 583120, Note Name: C2, Velocity: 31
Note OFF: Time 583200, Note Name: C2
Note OFF: Time 583200, Note Name: F1
Note ON: Time 583200, Note Name: A#1, Velocity: 37
Note ON: Time 583200, Note Name: F1, Velocity: 30
Note OFF: Time 583280, Note Name: A#1
Note ON: Time 583280, Note Name: C2, Velocity: 31
Note OFF: Time 583360, Note Name: C2
Note ON: Time 583360, Note Name: A#1, Velocity: 37
Note OFF: Time 583440, Note Name: A#1
Note ON: Time 583440, Note Name: C2, Velocity: 30
Note OFF: Time 583520, Note Name: C2
Note ON: Time 583520, Note Name: A#1, Velocity: 37
Note OFF: Time 583600, Note Name: A#1
Note ON: Time 583600, Note Name: C2, Velocity: 31
Note OFF: Time 583680, Note Name: C2
Note ON: Time 583680, Note Name: A#1, Velocity: 37
Note OFF: Time 583760, Note Name: A#1
Note ON: Time 583760, Note Name: C2, Velocity: 31
Note OFF: Time 583840, Note Name: C2
Note ON: Time 583840, Note Name: A#1, Velocity: 37
Note OFF: Time 583920, Note Name: A#1
Note ON: Time 583920, Note Name: C2, Velocity: 30
Note OFF: Time 584000, Note Name: C2
Note ON: Time 584000, Note Name: A#1, Velocity: 37
Note OFF: Time 584080, Note Name: A#1
Note ON: Time 584080, Note Name: C2, Velocity: 31
Note OFF: Time 584160, Note Name: C2
Note ON: Time 584160, Note Name: A#1, Velocity: 37
Note OFF: Time 584240, Note Name: A#1
Note ON: Time 584240, Note Name: C2, Velocity: 31
Note OFF: Time 584320, Note Name: C2
Note ON: Time 584320, Note Name: A#1, Velocity: 37
Note OFF: Time 584400, Note Name: A#1
Note ON: Time 584400, Note Name: C2, Velocity: 30
Note OFF: Time 584480, Note Name: C2
Note ON: Time 584480, Note Name: A#1, Velocity: 37
Note OFF: Time 584560, Note Name: A#1
Note ON: Time 584560, Note Name: C2, Velocity: 31
Note OFF: Time 584640, Note Name: C2
Note OFF: Time 584640, Note Name: F1
Note ON: Time 584640, Note Name: F1, Velocity: 30
Note ON: Time 584640, Note Name: A#1, Velocity: 37
Note OFF: Time 584700, Note Name: A#1
Note ON: Time 584700, Note Name: C2, Velocity: 31
Note OFF: Time 584760, Note Name: C2
Note ON: Time 584760, Note Name: A#1, Velocity: 37
Note OFF: Time 584820, Note Name: A#1
Note ON: Time 584820, Note Name: C2, Velocity: 30
Note OFF: Time 584880, Note Name: C2
Note ON: Time 584880, Note Name: A#1, Velocity: 37
Note OFF: Time 584940, Note Name: A#1
Note ON: Time 584940, Note Name: C2, Velocity: 31
Note OFF: Time 585000, Note Name: C2
Note ON: Time 585000, Note Name: A#1, Velocity: 37
Note OFF: Time 585060, Note Name: A#1
Note ON: Time 585060, Note Name: C2, Velocity: 31
Note OFF: Time 585120, Note Name: C2
Note OFF: Time 585120, Note Name: F1
Note ON: Time 585120, Note Name: F1, Velocity: 30
Note ON: Time 585120, Note Name: A#1, Velocity: 37
Note OFF: Time 585180, Note Name: A#1
Note ON: Time 585180, Note Name: C2, Velocity: 30
Note OFF: Time 585240, Note Name: C2
Note ON: Time 585240, Note Name: A#1, Velocity: 37
Note OFF: Time 585300, Note Name: A#1
Note ON: Time 585300, Note Name: C2, Velocity: 31
Note OFF: Time 585360, Note Name: C2
Note ON: Time 585360, Note Name: A#1, Velocity: 37
Note OFF: Time 585420, Note Name: A#1
Note ON: Time 585420, Note Name: C2, Velocity: 31
Note OFF: Time 585480, Note Name: C2
Note ON: Time 585480, Note Name: A#1, Velocity: 37
Note OFF: Time 585540, Note Name: A#1
Note ON: Time 585540, Note Name: C2, Velocity: 30
Note OFF: Time 585600, Note Name: C2
Note OFF: Time 585600, Note Name: F1
Note ON: Time 585600, Note Name: F1, Velocity: 30
Note ON: Time 585600, Note Name: A#1, Velocity: 37
Note OFF: Time 585660, Note Name: A#1
Note ON: Time 585660, Note Name: C2, Velocity: 31
Note OFF: Time 585720, Note Name: C2
Note ON: Time 585720, Note Name: A#1, Velocity: 37
Note OFF: Time 585780, Note Name: A#1
Note ON: Time 585780, Note Name: C2, Velocity: 31
Note OFF: Time 585840, Note Name: C2
Note ON: Time 585840, Note Name: A#1, Velocity: 37
Note OFF: Time 585900, Note Name: A#1
Note ON: Time 585900, Note Name: C2, Velocity: 30
Note OFF: Time 585960, Note Name: C2
Note ON: Time 585960, Note Name: A#1, Velocity: 37
Note OFF: Time 586020, Note Name: A#1
Note ON: Time 586020, Note Name: C2, Velocity: 31
Note OFF: Time 586080, Note Name: C2
Note OFF: Time 586080, Note Name: F1
Note ON: Time 586080, Note Name: F1, Velocity: 30
Note ON: Time 586080, Note Name: A#1, Velocity: 37
Note OFF: Time 586140, Note Name: A#1
Note ON: Time 586140, Note Name: C2, Velocity: 31
Note OFF: Time 586200, Note Name: C2
Note ON: Time 586200, Note Name: A#1, Velocity: 37
Note OFF: Time 586260, Note Name: A#1
Note ON: Time 586260, Note Name: C2, Velocity: 31
Note OFF: Time 586320, Note Name: C2
Note ON: Time 586320, Note Name: A#1, Velocity: 37
Note OFF: Time 586380, Note Name: A#1
Note ON: Time 586380, Note Name: C2, Velocity: 30
Note OFF: Time 586440, Note Name: C2
Note ON: Time 586440, Note Name: A#1, Velocity: 37
Note OFF: Time 586500, Note Name: A#1
Note ON: Time 586500, Note Name: C2, Velocity: 31
Note OFF: Time 586560, Note Name: C2
Note OFF: Time 586560, Note Name: F1
Note ON: Time 586560, Note Name: F1, Velocity: 30
Note ON: Time 586560, Note Name: A#1, Velocity: 37
Note OFF: Time 586620, Note Name: A#1
Note ON: Time 586620, Note Name: C2, Velocity: 31
Note OFF: Time 586680, Note Name: C2
Note ON: Time 586680, Note Name: A#1, Velocity: 37
Note OFF: Time 586740, Note Name: A#1
Note ON: Time 586740, Note Name: C2, Velocity: 31
Note OFF: Time 586800, Note Name: C2
Note ON: Time 586800, Note Name: A#1, Velocity: 37
Note OFF: Time 586860, Note Name: A#1
Note ON: Time 586860, Note Name: C2, Velocity: 30
Note OFF: Time 586920, Note Name: C2
Note ON: Time 586920, Note Name: A#1, Velocity: 37
Note OFF: Time 586980, Note Name: A#1
Note ON: Time 586980, Note Name: C2, Velocity: 31
Note OFF: Time 587040, Note Name: C2
Note OFF: Time 587040, Note Name: F1
Note ON: Time 587040, Note Name: F1, Velocity: 30
Note ON: Time 587040, Note Name: A#1, Velocity: 37
Note OFF: Time 587100, Note Name: A#1
Note ON: Time 587100, Note Name: C2, Velocity: 31
Note OFF: Time 587160, Note Name: C2
Note ON: Time 587160, Note Name: A#1, Velocity: 37
Note OFF: Time 587220, Note Name: A#1
Note ON: Time 587220, Note Name: C2, Velocity: 37
Note ON: Time 587280, Note Name: A#1, Velocity: 37
Note OFF: Time 587300, Note Name: C2
Note OFF: Time 587360, Note Name: A#1
Note ON: Time 587360, Note Name: A1, Velocity: 35
Note OFF: Time 587440, Note Name: A1
Note ON: Time 587440, Note Name: A#1, Velocity: 35
Note OFF: Time 587520, Note Name: A#1
Note OFF: Time 587520, Note Name: F1
Note ON: Time 587520, Note Name: F#1, Velocity: 35
Note ON: Time 587520, Note Name: A#1, Velocity: 35
Note ON: Time 587520, Note Name: F#2, Velocity: 42
Note OFF: Time 588000, Note Name: F#2
Note OFF: Time 588000, Note Name: A#1
Note OFF: Time 588000, Note Name: F#1
Note ON: Time 588000, Note Name: G1, Velocity: 35
Note ON: Time 588000, Note Name: A#1, Velocity: 35
Note ON: Time 588000, Note Name: G2, Velocity: 42
Note OFF: Time 588960, Note Name: G2
Note OFF: Time 588960, Note Name: A#1
Note OFF: Time 588960, Note Name: G1
Note ON: Time 588960, Note Name: G3, Velocity: 37
Note OFF: Time 589020, Note Name: G3
Note ON: Time 589020, Note Name: A3, Velocity: 33
Note OFF: Time 589080, Note Name: A3
Note ON: Time 589080, Note Name: G3, Velocity: 37
Note OFF: Time 589140, Note Name: G3
Note ON: Time 589140, Note Name: A3, Velocity: 33
Note OFF: Time 589200, Note Name: A3
Note ON: Time 589200, Note Name: G3, Velocity: 37
Note OFF: Time 589260, Note Name: G3
Note ON: Time 589260, Note Name: A3, Velocity: 33
Note OFF: Time 589320, Note Name: A3
Note ON: Time 589320, Note Name: G3, Velocity: 37
Note OFF: Time 589380, Note Name: G3
Note ON: Time 589380, Note Name: A3, Velocity: 33
Note OFF: Time 589440, Note Name: A3
Note ON: Time 589440, Note Name: G3, Velocity: 37
Note OFF: Time 589500, Note Name: G3
Note ON: Time 589500, Note Name: A3, Velocity: 33
Note OFF: Time 589560, Note Name: A3
Note ON: Time 589560, Note Name: G3, Velocity: 37
Note OFF: Time 589620, Note Name: G3
Note ON: Time 589620, Note Name: A3, Velocity: 34
Note OFF: Time 589680, Note Name: A3
Note ON: Time 589680, Note Name: G3, Velocity: 37
Note OFF: Time 589760, Note Name: G3
Note ON: Time 589760, Note Name: F3, Velocity: 33
Note OFF: Time 589840, Note Name: F3
Note ON: Time 589840, Note Name: G3, Velocity: 33
Note OFF: Time 589920, Note Name: G3
Note ON: Time 589920, Note Name: A3, Velocity: 42
Note OFF: Time 590400, Note Name: A3
Note ON: Time 590400, Note Name: C4, Velocity: 39
Note OFF: Time 590460, Note Name: C4
Note ON: Time 590460, Note Name: D4, Velocity: 35
Note OFF: Time 590520, Note Name: D4
Note ON: Time 590520, Note Name: C4, Velocity: 39
Note OFF: Time 590580, Note Name: C4
Note ON: Time 590580, Note Name: D4, Velocity: 35
Note OFF: Time 590640, Note Name: D4
Note ON: Time 590640, Note Name: C4, Velocity: 39
Note OFF: Time 590700, Note Name: C4
Note ON: Time 590700, Note Name: D4, Velocity: 35
Note OFF: Time 590760, Note Name: D4
Note ON: Time 590760, Note Name: C4, Velocity: 39
Note OFF: Time 590820, Note Name: C4
Note ON: Time 590820, Note Name: D4, Velocity: 35
Note OFF: Time 590880, Note Name: D4
Note ON: Time 590880, Note Name: C4, Velocity: 39
Note ON: Time 590880, Note Name: F3, Velocity: 52
Note OFF: Time 590940, Note Name: C4
Note ON: Time 590940, Note Name: D4, Velocity: 35
Note OFF: Time 591000, Note Name: D4
Note ON: Time 591000, Note Name: C4, Velocity: 39
Note OFF: Time 591060, Note Name: C4
Note ON: Time 591060, Note Name: D4, Velocity: 36
Note OFF: Time 591120, Note Name: D4
Note ON: Time 591120, Note Name: C4, Velocity: 39
Note OFF: Time 591200, Note Name: C4
Note ON: Time 591200, Note Name: A#3, Velocity: 35
Note OFF: Time 591280, Note Name: A#3
Note ON: Time 591280, Note Name: C4, Velocity: 35
Note OFF: Time 591360, Note Name: C4
Note OFF: Time 591360, Note Name: F3
Note ON: Time 591360, Note Name: F3, Velocity: 34
Note ON: Time 591360, Note Name: A3, Velocity: 34
Note ON: Time 591360, Note Name: C4, Velocity: 40
Note OFF: Time 591840, Note Name: C4
Note OFF: Time 591840, Note Name: A3
Note OFF: Time 591840, Note Name: F3
Note ON: Time 591840, Note Name: F3, Velocity: 39
Note ON: Time 591840, Note Name: C4, Velocity: 47
Note ON: Time 591840, Note Name: A3, Velocity: 39
Note OFF: Time 592560, Note Name: A3
Note OFF: Time 592560, Note Name: C4
Note OFF: Time 592560, Note Name: F3
Note ON: Time 594000, Note Name: G3, Velocity: 37
Note ON: Time 594120, Note Name: F3, Velocity: 33
Note OFF: Time 594144, Note Name: G3
Note ON: Time 594240, Note Name: D#3, Velocity: 37
Note OFF: Time 594264, Note Name: F3
Note ON: Time 594360, Note Name: D3, Velocity: 33
Note OFF: Time 594384, Note Name: D#3
Note ON: Time 594480, Note Name: C3, Velocity: 33
Note OFF: Time 594504, Note Name: D3
Note ON: Time 594600, Note Name: B2, Velocity: 33
Note OFF: Time 594624, Note Name: C3
Note OFF: Time 594720, Note Name: B2
Note ON: Time 594720, Note Name: D#3, Velocity: 39
Note OFF: Time 595200, Note Name: D#3
Note ON: Time 595440, Note Name: G4, Velocity: 37
Note ON: Time 595560, Note Name: F4, Velocity: 33
Note OFF: Time 595584, Note Name: G4
Note ON: Time 595680, Note Name: D#4, Velocity: 37
Note OFF: Time 595704, Note Name: F4
Note ON: Time 595800, Note Name: D4, Velocity: 33
Note OFF: Time 595824, Note Name: D#4
Note ON: Time 595920, Note Name: C4, Velocity: 33
Note OFF: Time 595944, Note Name: D4
Note ON: Time 596040, Note Name: B3, Velocity: 33
Note OFF: Time 596064, Note Name: C4
Note ON: Time 596160, Note Name: G4, Velocity: 39
Note OFF: Time 596184, Note Name: B3
Note ON: Time 596280, Note Name: F4, Velocity: 39
Note OFF: Time 596304, Note Name: G4
Note ON: Time 596400, Note Name: D#4, Velocity: 40
Note OFF: Time 596424, Note Name: F4
Note ON: Time 596520, Note Name: D4, Velocity: 40
Note OFF: Time 596544, Note Name: D#4
Note ON: Time 596640, Note Name: C4, Velocity: 41
Note OFF: Time 596664, Note Name: D4
Note ON: Time 596760, Note Name: A#3, Velocity: 42
Note OFF: Time 596784, Note Name: C4
Note ON: Time 596880, Note Name: A3, Velocity: 44
Note OFF: Time 596904, Note Name: A#3
Note ON: Time 597000, Note Name: G3, Velocity: 45
Note OFF: Time 597024, Note Name: A3
Note ON: Time 597120, Note Name: F3, Velocity: 46
Note OFF: Time 597144, Note Name: G3
Note ON: Time 597240, Note Name: D#3, Velocity: 47
Note OFF: Time 597264, Note Name: F3
Note ON: Time 597360, Note Name: D3, Velocity: 48
Note OFF: Time 597384, Note Name: D#3
Note ON: Time 597480, Note Name: C3, Velocity: 49
Note OFF: Time 597504, Note Name: D3
Note ON: Time 597600, Note Name: A#2, Velocity: 50
Note OFF: Time 597624, Note Name: C3
Note OFF: Time 597720, Note Name: A#2
Note ON: Time 597720, Note Name: A2, Velocity: 52
Note OFF: Time 597840, Note Name: A2
Note ON: Time 597840, Note Name: G2, Velocity: 53
Note OFF: Time 597960, Note Name: G2
Note ON: Time 597960, Note Name: F2, Velocity: 55
Note OFF: Time 598080, Note Name: F2
Note ON: Time 598080, Note Name: D#2, Velocity: 56
Note OFF: Time 598200, Note Name: D#2
Note ON: Time 598200, Note Name: D2, Velocity: 57
Note OFF: Time 598320, Note Name: D2
Note ON: Time 598320, Note Name: C2, Velocity: 60
Note OFF: Time 598440, Note Name: C2
Note ON: Time 598440, Note Name: A#1, Velocity: 61
Note OFF: Time 598560, Note Name: A#1
Note ON: Time 598560, Note Name: A1, Velocity: 64
Note OFF: Time 598680, Note Name: A1
Note ON: Time 598680, Note Name: G1, Velocity: 67
Note OFF: Time 598800, Note Name: G1
Note ON: Time 598800, Note Name: F1, Velocity: 71
Note OFF: Time 598920, Note Name: F1
Note ON: Time 598920, Note Name: E1, Velocity: 75
Note OFF: Time 599040, Note Name: E1
Note ON: Time 599040, Note Name: F1, Velocity: 83
Note OFF: Time 599280, Note Name: F1
Note ON: Time 599520, Note Name: A2, Velocity: 79
Note OFF: Time 599600, Note Name: A2
Note ON: Time 599600, Note Name: A#2, Velocity: 56
Note OFF: Time 599680, Note Name: A#2
Note ON: Time 599680, Note Name: A2, Velocity: 61
Note OFF: Time 599760, Note Name: A2
Note ON: Time 599760, Note Name: A#2, Velocity: 53
Note OFF: Time 599840, Note Name: A#2
Note ON: Time 599840, Note Name: A2, Velocity: 59
Note OFF: Time 599920, Note Name: A2
Note ON: Time 599920, Note Name: A#2, Velocity: 52
Note OFF: Time 600000, Note Name: A#2
Note ON: Time 600000, Note Name: A2, Velocity: 57
Note OFF: Time 600080, Note Name: A2
Note ON: Time 600080, Note Name: A#2, Velocity: 52
Note OFF: Time 600160, Note Name: A#2
Note ON: Time 600160, Note Name: A2, Velocity: 55
Note OFF: Time 600240, Note Name: A2
Note ON: Time 600240, Note Name: A#2, Velocity: 50
Note OFF: Time 600300, Note Name: A#2
Note ON: Time 600300, Note Name: A2, Velocity: 58
Note OFF: Time 600360, Note Name: A2
Note ON: Time 600360, Note Name: G2, Velocity: 56
Note OFF: Time 600420, Note Name: G2
Note ON: Time 600420, Note Name: A2, Velocity: 63
Note OFF: Time 600480, Note Name: A2
Note ON: Time 600480, Note Name: A#2, Velocity: 68
Note OFF: Time 600720, Note Name: A#2
Note ON: Time 600960, Note Name: G1, Velocity: 69
Note OFF: Time 601200, Note Name: G1
Note ON: Time 601440, Note Name: B2, Velocity: 79
Note OFF: Time 601520, Note Name: B2
Note ON: Time 601520, Note Name: C3, Velocity: 56
Note OFF: Time 601600, Note Name: C3
Note ON: Time 601600, Note Name: B2, Velocity: 61
Note OFF: Time 601680, Note Name: B2
Note ON: Time 601680, Note Name: C3, Velocity: 53
Note OFF: Time 601760, Note Name: C3
Note ON: Time 601760, Note Name: B2, Velocity: 59
Note OFF: Time 601840, Note Name: B2
Note ON: Time 601840, Note Name: C3, Velocity: 52
Note OFF: Time 601920, Note Name: C3
Note ON: Time 601920, Note Name: B2, Velocity: 57
Note OFF: Time 602000, Note Name: B2
Note ON: Time 602000, Note Name: C3, Velocity: 52
Note OFF: Time 602080, Note Name: C3
Note ON: Time 602080, Note Name: B2, Velocity: 55
Note OFF: Time 602160, Note Name: B2
Note ON: Time 602160, Note Name: C3, Velocity: 50
Note OFF: Time 602220, Note Name: C3
Note ON: Time 602220, Note Name: B2, Velocity: 58
Note OFF: Time 602280, Note Name: B2
Note ON: Time 602280, Note Name: A2, Velocity: 52
Note OFF: Time 602340, Note Name: A2
Note ON: Time 602340, Note Name: B2, Velocity: 61
Note OFF: Time 602400, Note Name: B2
Note ON: Time 602400, Note Name: C3, Velocity: 68
Note OFF: Time 602640, Note Name: C3
Note ON: Time 602880, Note Name: A1, Velocity: 69
Note OFF: Time 603120, Note Name: A1
Note ON: Time 603360, Note Name: C#3, Velocity: 79
Note OFF: Time 603440, Note Name: C#3
Note ON: Time 603440, Note Name: D3, Velocity: 56
Note OFF: Time 603520, Note Name: D3
Note ON: Time 603520, Note Name: C#3, Velocity: 61
Note OFF: Time 603600, Note Name: C#3
Note ON: Time 603600, Note Name: D3, Velocity: 53
Note OFF: Time 603680, Note Name: D3
Note ON: Time 603680, Note Name: C#3, Velocity: 59
Note OFF: Time 603760, Note Name: C#3
Note ON: Time 603760, Note Name: D3, Velocity: 52
Note OFF: Time 603840, Note Name: D3
Note ON: Time 603840, Note Name: C#3, Velocity: 57
Note OFF: Time 603920, Note Name: C#3
Note ON: Time 603920, Note Name: D3, Velocity: 52
Note OFF: Time 604000, Note Name: D3
Note ON: Time 604000, Note Name: C#3, Velocity: 55
Note OFF: Time 604080, Note Name: C#3
Note ON: Time 604080, Note Name: D3, Velocity: 50
Note OFF: Time 604140, Note Name: D3
Note ON: Time 604140, Note Name: C#3, Velocity: 58
Note OFF: Time 604200, Note Name: C#3
Note ON: Time 604200, Note Name: B2, Velocity: 54
Note OFF: Time 604260, Note Name: B2
Note ON: Time 604260, Note Name: C#3, Velocity: 61
Note OFF: Time 604320, Note Name: C#3
Note ON: Time 604320, Note Name: D3, Velocity: 68
Note OFF: Time 604560, Note Name: D3
Note ON: Time 604800, Note Name: A#1, Velocity: 69
Note OFF: Time 605040, Note Name: A#1
Note ON: Time 605280, Note Name: D3, Velocity: 79
Note OFF: Time 605360, Note Name: D3
Note ON: Time 605360, Note Name: D#3, Velocity: 56
Note OFF: Time 605440, Note Name: D#3
Note ON: Time 605440, Note Name: D3, Velocity: 61
Note OFF: Time 605520, Note Name: D3
Note ON: Time 605520, Note Name: D#3, Velocity: 53
Note OFF: Time 605600, Note Name: D#3
Note ON: Time 605600, Note Name: D3, Velocity: 59
Note OFF: Time 605680, Note Name: D3
Note ON: Time 605680, Note Name: D#3, Velocity: 52
Note OFF: Time 605760, Note Name: D#3
Note ON: Time 605760, Note Name: D3, Velocity: 57
Note OFF: Time 605840, Note Name: D3
Note ON: Time 605840, Note Name: D#3, Velocity: 52
Note OFF: Time 605920, Note Name: D#3
Note ON: Time 605920, Note Name: D3, Velocity: 55
Note OFF: Time 606000, Note Name: D3
Note ON: Time 606000, Note Name: D#3, Velocity: 50
Note OFF: Time 606060, Note Name: D#3
Note ON: Time 606060, Note Name: D3, Velocity: 58
Note OFF: Time 606120, Note Name: D3
Note ON: Time 606120, Note Name: C3, Velocity: 53
Note OFF: Time 606180, Note Name: C3
Note ON: Time 606180, Note Name: D3, Velocity: 54
Note OFF: Time 606240, Note Name: D3
Note ON: Time 606240, Note Name: D#3, Velocity: 68
Note OFF: Time 606480, Note Name: D#3
Note ON: Time 606720, Note Name: C2, Velocity: 69
Note OFF: Time 606960, Note Name: C2
Note ON: Time 607200, Note Name: E3, Velocity: 79
Note OFF: Time 607280, Note Name: E3
Note ON: Time 607280, Note Name: F3, Velocity: 56
Note OFF: Time 607360, Note Name: F3
Note ON: Time 607360, Note Name: E3, Velocity: 61
Note OFF: Time 607440, Note Name: E3
Note ON: Time 607440, Note Name: F3, Velocity: 53
Note OFF: Time 607520, Note Name: F3
Note ON: Time 607520, Note Name: E3, Velocity: 59
Note OFF: Time 607600, Note Name: E3
Note ON: Time 607600, Note Name: F3, Velocity: 52
Note OFF: Time 607680, Note Name: F3
Note ON: Time 607680, Note Name: E3, Velocity: 57
Note OFF: Time 607760, Note Name: E3
Note ON: Time 607760, Note Name: F3, Velocity: 52
Note OFF: Time 607840, Note Name: F3
Note ON: Time 607840, Note Name: E3, Velocity: 55
Note OFF: Time 607920, Note Name: E3
Note ON: Time 607920, Note Name: F3, Velocity: 50
Note OFF: Time 607980, Note Name: F3
Note ON: Time 607980, Note Name: E3, Velocity: 56
Note OFF: Time 608040, Note Name: E3
Note ON: Time 608040, Note Name: D3, Velocity: 54
Note OFF: Time 608100, Note Name: D3
Note ON: Time 608100, Note Name: E3, Velocity: 59
Note OFF: Time 608160, Note Name: E3
Note ON: Time 608160, Note Name: F3, Velocity: 68
Note OFF: Time 608400, Note Name: F3
Note ON: Time 608640, Note Name: D2, Velocity: 69
Note OFF: Time 608880, Note Name: D2
Note ON: Time 609120, Note Name: F#3, Velocity: 79
Note OFF: Time 609200, Note Name: F#3
Note ON: Time 609200, Note Name: G3, Velocity: 56
Note OFF: Time 609280, Note Name: G3
Note ON: Time 609280, Note Name: F#3, Velocity: 61
Note OFF: Time 609360, Note Name: F#3
Note ON: Time 609360, Note Name: G3, Velocity: 53
Note OFF: Time 609440, Note Name: G3
Note ON: Time 609440, Note Name: F#3, Velocity: 59
Note OFF: Time 609520, Note Name: F#3
Note ON: Time 609520, Note Name: G3, Velocity: 52
Note OFF: Time 609600, Note Name: G3
Note ON: Time 609600, Note Name: F#3, Velocity: 57
Note OFF: Time 609680, Note Name: F#3
Note ON: Time 609680, Note Name: G3, Velocity: 52
Note OFF: Time 609760, Note Name: G3
Note ON: Time 609760, Note Name: F#3, Velocity: 55
Note OFF: Time 609840, Note Name: F#3
Note ON: Time 609840, Note Name: G3, Velocity: 50
Note OFF: Time 609900, Note Name: G3
Note ON: Time 609900, Note Name: F#3, Velocity: 54
Note OFF: Time 609960, Note Name: F#3
Note ON: Time 609960, Note Name: E3, Velocity: 49
Note OFF: Time 610020, Note Name: E3
Note ON: Time 610020, Note Name: F#3, Velocity: 54
Note OFF: Time 610080, Note Name: F#3
Note ON: Time 610080, Note Name: G3, Velocity: 68
Note OFF: Time 610320, Note Name: G3
Note ON: Time 610560, Note Name: D#2, Velocity: 69
Note OFF: Time 610800, Note Name: D#2
Note ON: Time 611040, Note Name: F4, Velocity: 84
Note ON: Time 611040, Note Name: D#4, Velocity: 71
Note ON: Time 611040, Note Name: C4, Velocity: 71
Note ON: Time 611040, Note Name: F3, Velocity: 71
Note OFF: Time 611760, Note Name: F3
Note OFF: Time 611760, Note Name: F4
Note OFF: Time 611760, Note Name: D#4
Note OFF: Time 611760, Note Name: C4
Note ON: Time 612000, Note Name: A#2, Velocity: 73
Note ON: Time 612000, Note Name: D3, Velocity: 73
Note ON: Time 612000, Note Name: F3, Velocity: 73
Note ON: Time 612000, Note Name: A#3, Velocity: 87
Note OFF: Time 612720, Note Name: A#3
Note OFF: Time 612720, Note Name: A#2
Note OFF: Time 612720, Note Name: D3
Note OFF: Time 612720, Note Name: F3
Note ON: Time 612960, Note Name: F3, Velocity: 79
Note ON: Time 612960, Note Name: D#3, Velocity: 67
Note ON: Time 612960, Note Name: C3, Velocity: 67
Note ON: Time 612960, Note Name: F2, Velocity: 67
Note OFF: Time 613680, Note Name: F2
Note OFF: Time 613680, Note Name: F3
Note OFF: Time 613680, Note Name: D#3
Note OFF: Time 613680, Note Name: C3
Note ON: Time 614400, Note Name: A#1, Velocity: 73
Note ON: Time 614400, Note Name: D2, Velocity: 73
Note ON: Time 614400, Note Name: F2, Velocity: 73
Note ON: Time 614400, Note Name: A#2, Velocity: 87
Note OFF: Time 616320, Note Name: A#2
Note OFF: Time 616320, Note Name: A#1
Note OFF: Time 616320, Note Name: D2
Note OFF: Time 616320, Note Name: F2
Track 3: Pedale
Track 4: Beethoven: Hammerklaviersonate 4. Satz
Track 5: Copyright  2008 by Bernd Krueger
Track 6: http://www.piano-midi.de/
Track 7: Edition: 2012-08-28
Track 8: Spur 8
Track 9: Spur 9
Track 10: Spur 10
Track 11: Spur 11
Track 12: Spur 12
Track 13: Spur 13
Track 14: Spur 14
Track 15: Spur 15
Track 16: Spur 16
