Processing beethoven_hammerklavier_3.mid...

Track 0: Hammerklaviersonate: 3. Satz
Track 1: Piano right
Note ON: Time 0, Note Name: A3, Velocity: 42
Note OFF: Time 720, Note Name: A3
Note ON: Time 720, Note Name: C#4, Velocity: 40
Note OFF: Time 1440, Note Name: C#4
Note ON: Time 1440, Note Name: F#4, Velocity: 40
Note ON: Time 1440, Note Name: C#4, Velocity: 40
Note ON: Time 1440, Note Name: C#5, Velocity: 48
Note ON: Time 1440, Note Name: A4, Velocity: 40
Note OFF: Time 1920, Note Name: A4
Note OFF: Time 1920, Note Name: C#5
Note ON: Time 1920, Note Name: A4, Velocity: 42
Note OFF: Time 2160, Note Name: A4
Note OFF: Time 2160, Note Name: C#4
Note OFF: Time 2160, Note Name: F#4
Note ON: Time 2160, Note Name: C#4, Velocity: 39
Note ON: Time 2160, Note Name: A4, Velocity: 47
Note OFF: Time 2400, Note Name: A4
Note OFF: Time 2400, Note Name: C#4
Note ON: Time 2400, Note Name: C#4, Velocity: 34
Note ON: Time 2400, Note Name: F#4, Velocity: 41
Note OFF: Time 2640, Note Name: F#4
Note OFF: Time 2640, Note Name: C#4
Note ON: Time 2640, Note Name: B3, Velocity: 34
Note ON: Time 2640, Note Name: F4, Velocity: 34
Note ON: Time 2640, Note Name: G#4, Velocity: 41
Note ON: Time 2640, Note Name: C#4, Velocity: 34
Note OFF: Time 2880, Note Name: C#4
Note OFF: Time 2880, Note Name: B3
Note OFF: Time 2880, Note Name: F4
Note OFF: Time 2880, Note Name: G#4
Note ON: Time 2880, Note Name: A3, Velocity: 42
Note ON: Time 2880, Note Name: F#4, Velocity: 42
Note ON: Time 2880, Note Name: A4, Velocity: 50
Note ON: Time 2880, Note Name: C#4, Velocity: 42
Note OFF: Time 3600, Note Name: C#4
Note OFF: Time 3600, Note Name: A3
Note OFF: Time 3600, Note Name: F#4
Note OFF: Time 3600, Note Name: A4
Note ON: Time 3600, Note Name: B3, Velocity: 47
Note ON: Time 3600, Note Name: B4, Velocity: 56
Note ON: Time 3600, Note Name: F#4, Velocity: 47
Note OFF: Time 4080, Note Name: F#4
Note OFF: Time 4080, Note Name: B4
Note OFF: Time 4080, Note Name: B3
Note ON: Time 4080, Note Name: F#4, Velocity: 46
Note ON: Time 4080, Note Name: D4, Velocity: 46
Note ON: Time 4080, Note Name: D5, Velocity: 55
Note OFF: Time 4318, Note Name: D4
Note OFF: Time 4318, Note Name: F#4
Note OFF: Time 4318, Note Name: D5
Note ON: Time 4320, Note Name: D4, Velocity: 52
Note ON: Time 4320, Note Name: D5, Velocity: 62
Note ON: Time 4320, Note Name: F#4, Velocity: 52
Note OFF: Time 4800, Note Name: F#4
Note OFF: Time 4800, Note Name: D5
Note OFF: Time 4800, Note Name: D4
Note ON: Time 4800, Note Name: F#4, Velocity: 48
Note ON: Time 4800, Note Name: C#5, Velocity: 57
Note ON: Time 4800, Note Name: C#4, Velocity: 48
Note OFF: Time 5038, Note Name: C#4
Note OFF: Time 5038, Note Name: C#5
Note OFF: Time 5038, Note Name: F#4
Note ON: Time 5040, Note Name: F#4, Velocity: 53
Note ON: Time 5040, Note Name: C#5, Velocity: 64
Note ON: Time 5040, Note Name: C#4, Velocity: 53
Note OFF: Time 5280, Note Name: C#4
Note OFF: Time 5280, Note Name: C#5
Note OFF: Time 5280, Note Name: F#4
Note ON: Time 5280, Note Name: F4, Velocity: 49
Note ON: Time 5280, Note Name: B4, Velocity: 49
Note ON: Time 5280, Note Name: C#5, Velocity: 49
Note ON: Time 5280, Note Name: F5, Velocity: 60
Note OFF: Time 5520, Note Name: F5
Note OFF: Time 5520, Note Name: F4
Note OFF: Time 5520, Note Name: B4
Note OFF: Time 5520, Note Name: C#5
Note ON: Time 5520, Note Name: C#5, Velocity: 57
Note ON: Time 5520, Note Name: A4, Velocity: 52
Note ON: Time 5520, Note Name: F#4, Velocity: 52
Note ON: Time 5520, Note Name: F#5, Velocity: 68
Note OFF: Time 5760, Note Name: F#5
Note OFF: Time 5760, Note Name: C#5
Note OFF: Time 5760, Note Name: A4
Note OFF: Time 5760, Note Name: F#4
Note ON: Time 5760, Note Name: G#5, Velocity: 72
Note ON: Time 5760, Note Name: C#5, Velocity: 61
Note ON: Time 5760, Note Name: G#4, Velocity: 61
Note OFF: Time 6480, Note Name: G#4
Note OFF: Time 6480, Note Name: C#5
Note OFF: Time 6480, Note Name: G#5
Note ON: Time 6480, Note Name: D5, Velocity: 51
Note ON: Time 6480, Note Name: B4, Velocity: 43
Note ON: Time 6480, Note Name: G#4, Velocity: 43
Note OFF: Time 7200, Note Name: G#4
Note OFF: Time 7200, Note Name: B4
Note OFF: Time 7200, Note Name: D5
Note ON: Time 7200, Note Name: G#4, Velocity: 42
Note ON: Time 7200, Note Name: B4, Velocity: 42
Note ON: Time 7200, Note Name: D5, Velocity: 50
Note ON: Time 7680, Note Name: D4, Velocity: 42
Note OFF: Time 7920, Note Name: D4
Note OFF: Time 7920, Note Name: G#4
Note OFF: Time 7920, Note Name: B4
Note OFF: Time 7920, Note Name: D5
Note ON: Time 7920, Note Name: C#4, Velocity: 36
Note ON: Time 7920, Note Name: A4, Velocity: 36
Note ON: Time 7920, Note Name: C#5, Velocity: 43
Note OFF: Time 8400, Note Name: C#5
Note OFF: Time 8400, Note Name: A4
Note OFF: Time 8400, Note Name: C#4
Note ON: Time 8400, Note Name: B3, Velocity: 35
Note ON: Time 8400, Note Name: D4, Velocity: 35
Note ON: Time 8400, Note Name: F4, Velocity: 35
Note ON: Time 8400, Note Name: B4, Velocity: 42
Note OFF: Time 8638, Note Name: B4
Note OFF: Time 8638, Note Name: B3
Note OFF: Time 8638, Note Name: D4
Note OFF: Time 8638, Note Name: F4
Note ON: Time 8640, Note Name: B3, Velocity: 40
Note ON: Time 8640, Note Name: D4, Velocity: 40
Note ON: Time 8640, Note Name: F4, Velocity: 40
Note ON: Time 8640, Note Name: B4, Velocity: 48
Note OFF: Time 9353, Note Name: B4
Note OFF: Time 9353, Note Name: B3
Note OFF: Time 9353, Note Name: D4
Note OFF: Time 9353, Note Name: F4
Note ON: Time 9360, Note Name: B3, Velocity: 39
Note ON: Time 9360, Note Name: F4, Velocity: 39
Note ON: Time 9360, Note Name: D4, Velocity: 39
Note ON: Time 9360, Note Name: B4, Velocity: 47
Note OFF: Time 9600, Note Name: B4
Note OFF: Time 9600, Note Name: B3
Note OFF: Time 9600, Note Name: F4
Note OFF: Time 9600, Note Name: D4
Note ON: Time 9600, Note Name: F#4, Velocity: 34
Note ON: Time 9600, Note Name: A3, Velocity: 34
Note ON: Time 9600, Note Name: C#4, Velocity: 34
Note ON: Time 9600, Note Name: A4, Velocity: 41
Note OFF: Time 9840, Note Name: A4
Note OFF: Time 9840, Note Name: F#4
Note OFF: Time 9840, Note Name: A3
Note OFF: Time 9840, Note Name: C#4
Note ON: Time 9840, Note Name: G#3, Velocity: 34
Note ON: Time 9840, Note Name: D4, Velocity: 34
Note ON: Time 9840, Note Name: F#4, Velocity: 34
Note ON: Time 9840, Note Name: G#4, Velocity: 41
Note OFF: Time 10080, Note Name: G#4
Note OFF: Time 10080, Note Name: G#3
Note OFF: Time 10080, Note Name: D4
Note OFF: Time 10080, Note Name: F#4
Note ON: Time 10080, Note Name: F#4, Velocity: 40
Note ON: Time 10080, Note Name: G#3, Velocity: 40
Note ON: Time 10080, Note Name: D#4, Velocity: 40
Note ON: Time 10080, Note Name: G#4, Velocity: 48
Note OFF: Time 10555, Note Name: G#4
Note OFF: Time 10555, Note Name: F#4
Note OFF: Time 10555, Note Name: G#3
Note OFF: Time 10555, Note Name: D#4
Note ON: Time 10560, Note Name: D#4, Velocity: 36
Note ON: Time 10560, Note Name: G#3, Velocity: 36
Note ON: Time 10560, Note Name: F#4, Velocity: 36
Note ON: Time 10560, Note Name: G#4, Velocity: 43
Note OFF: Time 10798, Note Name: G#4
Note OFF: Time 10798, Note Name: D#4
Note OFF: Time 10798, Note Name: G#3
Note OFF: Time 10798, Note Name: F#4
Note ON: Time 10800, Note Name: D#4, Velocity: 45
Note ON: Time 10800, Note Name: F#4, Velocity: 45
Note ON: Time 10800, Note Name: G#3, Velocity: 45
Note ON: Time 10800, Note Name: G#4, Velocity: 53
Note OFF: Time 11040, Note Name: G#4
Note OFF: Time 11040, Note Name: D#4
Note OFF: Time 11040, Note Name: F#4
Note OFF: Time 11040, Note Name: G#3
Note ON: Time 11040, Note Name: F#4, Velocity: 40
Note ON: Time 11040, Note Name: D#4, Velocity: 40
Note ON: Time 11040, Note Name: A3, Velocity: 40
Note ON: Time 11040, Note Name: A4, Velocity: 49
Note OFF: Time 11280, Note Name: A4
Note OFF: Time 11280, Note Name: F#4
Note OFF: Time 11280, Note Name: D#4
Note OFF: Time 11280, Note Name: A3
Note ON: Time 11280, Note Name: F#3, Velocity: 42
Note ON: Time 11280, Note Name: A3, Velocity: 42
Note ON: Time 11280, Note Name: D#4, Velocity: 42
Note ON: Time 11280, Note Name: F#4, Velocity: 52
Note OFF: Time 11520, Note Name: F#4
Note OFF: Time 11520, Note Name: F#3
Note OFF: Time 11520, Note Name: A3
Note OFF: Time 11520, Note Name: D#4
Note ON: Time 11520, Note Name: F#3, Velocity: 44
Note ON: Time 11520, Note Name: A3, Velocity: 44
Note ON: Time 11520, Note Name: D#4, Velocity: 44
Note ON: Time 11520, Note Name: F#4, Velocity: 53
Note OFF: Time 11760, Note Name: D#4
Note ON: Time 11760, Note Name: C4, Velocity: 45
Note OFF: Time 12000, Note Name: C4
Note ON: Time 12000, Note Name: C#4, Velocity: 46
Note OFF: Time 12240, Note Name: C#4
Note OFF: Time 12240, Note Name: F#3
Note OFF: Time 12240, Note Name: A3
Note OFF: Time 12240, Note Name: F#4
Note ON: Time 12240, Note Name: G#3, Velocity: 36
Note ON: Time 12240, Note Name: F4, Velocity: 55
Note ON: Time 12240, Note Name: F3, Velocity: 36
Note ON: Time 12240, Note Name: C#4, Velocity: 46
Note OFF: Time 12480, Note Name: C#4
Note OFF: Time 12480, Note Name: G#3
Note OFF: Time 12480, Note Name: F4
Note OFF: Time 12480, Note Name: F3
Note ON: Time 12480, Note Name: G#4, Velocity: 57
Note OFF: Time 12720, Note Name: G#4
Note ON: Time 12720, Note Name: B4, Velocity: 59
Note OFF: Time 12960, Note Name: B4
Note ON: Time 12960, Note Name: D4, Velocity: 50
Note ON: Time 12960, Note Name: F4, Velocity: 50
Note ON: Time 12960, Note Name: B4, Velocity: 60
Note OFF: Time 13200, Note Name: F4
Note ON: Time 13200, Note Name: G#4, Velocity: 50
Note OFF: Time 13440, Note Name: G#4
Note OFF: Time 13440, Note Name: B4
Note OFF: Time 13440, Note Name: D4
Note ON: Time 13440, Note Name: C#4, Velocity: 45
Note ON: Time 13440, Note Name: A4, Velocity: 50
Note ON: Time 13440, Note Name: F#4, Velocity: 45
Note OFF: Time 13678, Note Name: F#4
Note OFF: Time 13678, Note Name: A4
Note OFF: Time 13678, Note Name: C#4
Note ON: Time 13680, Note Name: A4, Velocity: 58
Note ON: Time 13680, Note Name: C#4, Velocity: 48
Note ON: Time 13680, Note Name: F#4, Velocity: 48
Note OFF: Time 13920, Note Name: F#4
Note OFF: Time 13920, Note Name: C#4
Note OFF: Time 13920, Note Name: A4
Note ON: Time 13920, Note Name: F4, Velocity: 42
Note ON: Time 13920, Note Name: G#4, Velocity: 51
Note ON: Time 13920, Note Name: B3, Velocity: 42
Note ON: Time 13920, Note Name: D4, Velocity: 42
Note OFF: Time 14160, Note Name: D4
Note OFF: Time 14160, Note Name: F4
Note OFF: Time 14160, Note Name: G#4
Note OFF: Time 14160, Note Name: B3
Note ON: Time 14160, Note Name: F#4, Velocity: 51
Note ON: Time 14160, Note Name: D#4, Velocity: 42
Note ON: Time 14160, Note Name: A3, Velocity: 42
Note OFF: Time 14280, Note Name: A3
Note ON: Time 14280, Note Name: C4, Velocity: 42
Note OFF: Time 14400, Note Name: C4
Note OFF: Time 14400, Note Name: D#4
Note OFF: Time 14400, Note Name: F#4
Note ON: Time 14400, Note Name: D#4, Velocity: 50
Note ON: Time 14400, Note Name: F#4, Velocity: 60
Note ON: Time 14400, Note Name: A3, Velocity: 50
Note ON: Time 14400, Note Name: C4, Velocity: 50
Note OFF: Time 14880, Note Name: C4
Note OFF: Time 14880, Note Name: D#4
Note OFF: Time 14880, Note Name: F#4
Note OFF: Time 14880, Note Name: A3
Note ON: Time 14880, Note Name: F4, Velocity: 50
Note ON: Time 14880, Note Name: C#4, Velocity: 45
Note ON: Time 14880, Note Name: G#3, Velocity: 45
Note OFF: Time 15120, Note Name: G#3
Note OFF: Time 15120, Note Name: C#4
Note OFF: Time 15120, Note Name: F4
Note ON: Time 15120, Note Name: F4, Velocity: 66
Note OFF: Time 15360, Note Name: F4
Note ON: Time 15360, Note Name: G#4, Velocity: 60
Note OFF: Time 15600, Note Name: G#4
Note ON: Time 15600, Note Name: F4, Velocity: 42
Note ON: Time 15600, Note Name: B4, Velocity: 63
Note ON: Time 15600, Note Name: G#4, Velocity: 42
Note OFF: Time 15720, Note Name: B4
Note ON: Time 15720, Note Name: D5, Velocity: 63
Note OFF: Time 15839, Note Name: D5
Note ON: Time 15840, Note Name: B4, Velocity: 50
Note ON: Time 15840, Note Name: D5, Velocity: 72
Note OFF: Time 16080, Note Name: G#4
Note OFF: Time 16080, Note Name: F4
Note ON: Time 16080, Note Name: F4, Velocity: 36
Note ON: Time 16080, Note Name: G#4, Velocity: 36
Note OFF: Time 16320, Note Name: G#4
Note OFF: Time 16320, Note Name: D5
Note OFF: Time 16320, Note Name: B4
Note OFF: Time 16320, Note Name: F4
Note ON: Time 16320, Note Name: F#4, Velocity: 48
Note ON: Time 16320, Note Name: C#5, Velocity: 54
Note ON: Time 16320, Note Name: A4, Velocity: 48
Note OFF: Time 16558, Note Name: A4
Note OFF: Time 16558, Note Name: C#5
Note OFF: Time 16558, Note Name: F#4
Note ON: Time 16560, Note Name: C#5, Velocity: 55
Note ON: Time 16560, Note Name: A4, Velocity: 46
Note ON: Time 16680, Note Name: F#4, Velocity: 46
Note OFF: Time 16800, Note Name: F#4
Note OFF: Time 16800, Note Name: A4
Note OFF: Time 16800, Note Name: C#5
Note ON: Time 16800, Note Name: D4, Velocity: 39
Note ON: Time 16800, Note Name: G#4, Velocity: 39
Note ON: Time 16800, Note Name: B4, Velocity: 47
Note ON: Time 16800, Note Name: F4, Velocity: 39
Note OFF: Time 17040, Note Name: F4
Note OFF: Time 17040, Note Name: D4
Note OFF: Time 17040, Note Name: G#4
Note OFF: Time 17040, Note Name: B4
Note ON: Time 17040, Note Name: C4, Velocity: 39
Note ON: Time 17040, Note Name: F#4, Velocity: 39
Note ON: Time 17040, Note Name: A4, Velocity: 47
Note ON: Time 17040, Note Name: D#4, Velocity: 39
Note OFF: Time 17278, Note Name: D#4
Note OFF: Time 17278, Note Name: C4
Note OFF: Time 17278, Note Name: F#4
Note OFF: Time 17278, Note Name: A4
Note ON: Time 17280, Note Name: F#4, Velocity: 45
Note ON: Time 17280, Note Name: A4, Velocity: 54
Note ON: Time 17520, Note Name: C4, Velocity: 44
Note ON: Time 17520, Note Name: D#4, Velocity: 44
Note OFF: Time 17760, Note Name: D#4
Note OFF: Time 17760, Note Name: F#4
Note OFF: Time 17760, Note Name: A4
Note OFF: Time 17760, Note Name: C4
Note ON: Time 17760, Note Name: C#4, Velocity: 38
Note ON: Time 17760, Note Name: F4, Velocity: 38
Note ON: Time 17760, Note Name: G#4, Velocity: 44
Note OFF: Time 17998, Note Name: G#4
Note OFF: Time 17998, Note Name: F4
Note OFF: Time 17998, Note Name: C#4
Note ON: Time 18000, Note Name: G#4, Velocity: 43
Note ON: Time 18000, Note Name: F4, Velocity: 35
Note ON: Time 18000, Note Name: C#4, Velocity: 35
Note OFF: Time 18480, Note Name: C#4
Note OFF: Time 18480, Note Name: F4
Note OFF: Time 18480, Note Name: G#4
Note ON: Time 18480, Note Name: E4, Velocity: 34
Note ON: Time 18480, Note Name: G4, Velocity: 39
Note ON: Time 18480, Note Name: C#4, Velocity: 34
Note OFF: Time 18660, Note Name: C#4
Note OFF: Time 18660, Note Name: G4
Note OFF: Time 18660, Note Name: E4
Note ON: Time 18660, Note Name: G4, Velocity: 53
Note OFF: Time 18720, Note Name: G4
Note ON: Time 18720, Note Name: B5, Velocity: 65
Note OFF: Time 19200, Note Name: B5
Note ON: Time 19200, Note Name: A5, Velocity: 62
Note OFF: Time 19440, Note Name: A5
Note ON: Time 19440, Note Name: G4, Velocity: 55
Note ON: Time 19440, Note Name: G5, Velocity: 65
Note OFF: Time 19920, Note Name: G5
Note ON: Time 19920, Note Name: F#5, Velocity: 64
Note OFF: Time 20160, Note Name: F#5
Note OFF: Time 20160, Note Name: G4
Note ON: Time 20160, Note Name: G4, Velocity: 55
Note ON: Time 20160, Note Name: E5, Velocity: 65
Note OFF: Time 20640, Note Name: E5
Note ON: Time 20640, Note Name: F#5, Velocity: 63
Note OFF: Time 20880, Note Name: F#5
Note OFF: Time 20880, Note Name: G4
Note ON: Time 20880, Note Name: G4, Velocity: 55
Note ON: Time 20880, Note Name: G5, Velocity: 65
Note OFF: Time 21360, Note Name: G5
Note OFF: Time 21360, Note Name: G4
Note ON: Time 21360, Note Name: F#4, Velocity: 64
Note OFF: Time 21598, Note Name: F#4
Note ON: Time 21600, Note Name: F#4, Velocity: 60
Note OFF: Time 21840, Note Name: F#4
Note ON: Time 21840, Note Name: F#4, Velocity: 45
Note ON: Time 21840, Note Name: A4, Velocity: 53
Note OFF: Time 22080, Note Name: A4
Note OFF: Time 22080, Note Name: F#4
Note ON: Time 22080, Note Name: F#4, Velocity: 43
Note ON: Time 22080, Note Name: A4, Velocity: 43
Note ON: Time 22080, Note Name: C#5, Velocity: 51
Note OFF: Time 22320, Note Name: C#5
Note OFF: Time 22320, Note Name: A4
Note OFF: Time 22320, Note Name: F#4
Note ON: Time 22320, Note Name: C#5, Velocity: 54
Note ON: Time 22320, Note Name: F4, Velocity: 45
Note ON: Time 22320, Note Name: G#4, Velocity: 45
Note OFF: Time 22795, Note Name: G#4
Note OFF: Time 22795, Note Name: F4
Note OFF: Time 22795, Note Name: C#5
Note ON: Time 22800, Note Name: C#5, Velocity: 43
Note ON: Time 22800, Note Name: G#4, Velocity: 36
Note ON: Time 22800, Note Name: F4, Velocity: 36
Note OFF: Time 23038, Note Name: F4
Note OFF: Time 23038, Note Name: G#4
Note OFF: Time 23038, Note Name: C#5
Note ON: Time 23040, Note Name: G#4, Velocity: 40
Note ON: Time 23040, Note Name: F4, Velocity: 40
Note ON: Time 23040, Note Name: C#5, Velocity: 48
Note OFF: Time 23520, Note Name: C#5
Note OFF: Time 23520, Note Name: F4
Note OFF: Time 23520, Note Name: G#4
Note ON: Time 23520, Note Name: F#4, Velocity: 36
Note ON: Time 23520, Note Name: A4, Velocity: 43
Note OFF: Time 23758, Note Name: F#4
Note OFF: Time 23758, Note Name: A4
Note ON: Time 23760, Note Name: F#4, Velocity: 37
Note ON: Time 23760, Note Name: A4, Velocity: 47
Note OFF: Time 23998, Note Name: A4
Note OFF: Time 23998, Note Name: F#4
Note ON: Time 24000, Note Name: C#4, Velocity: 37
Note ON: Time 24000, Note Name: F#4, Velocity: 45
Note OFF: Time 24240, Note Name: F#4
Note OFF: Time 24240, Note Name: C#4
Note ON: Time 24240, Note Name: G#4, Velocity: 44
Note ON: Time 24240, Note Name: F4, Velocity: 44
Note ON: Time 24240, Note Name: C#4, Velocity: 44
Note OFF: Time 24360, Note Name: F4
Note OFF: Time 24360, Note Name: G#4
Note ON: Time 24360, Note Name: F#4, Velocity: 47
Note ON: Time 24360, Note Name: A4, Velocity: 47
Note OFF: Time 24480, Note Name: A4
Note OFF: Time 24480, Note Name: F#4
Note OFF: Time 24480, Note Name: C#4
Note ON: Time 24480, Note Name: G#4, Velocity: 51
Note ON: Time 24480, Note Name: B4, Velocity: 51
Note ON: Time 24720, Note Name: D4, Velocity: 50
Note OFF: Time 24960, Note Name: D4
Note OFF: Time 24960, Note Name: B4
Note OFF: Time 24960, Note Name: G#4
Note ON: Time 24960, Note Name: C#4, Velocity: 47
Note ON: Time 24960, Note Name: F#4, Velocity: 47
Note ON: Time 24960, Note Name: A4, Velocity: 58
Note OFF: Time 25200, Note Name: A4
Note OFF: Time 25200, Note Name: F#4
Note OFF: Time 25200, Note Name: C#4
Note ON: Time 25200, Note Name: B3, Velocity: 51
Note ON: Time 25200, Note Name: A4, Velocity: 60
Note ON: Time 25200, Note Name: F4, Velocity: 51
Note ON: Time 25200, Note Name: D4, Velocity: 51
Note OFF: Time 25440, Note Name: A4
Note ON: Time 25440, Note Name: G#4, Velocity: 57
Note OFF: Time 25680, Note Name: G#4
Note OFF: Time 25680, Note Name: D4
Note OFF: Time 25680, Note Name: F4
Note OFF: Time 25680, Note Name: B3
Note ON: Time 25680, Note Name: F#4, Velocity: 54
Note ON: Time 25680, Note Name: D#4, Velocity: 45
Note ON: Time 25680, Note Name: A3, Velocity: 45
Note OFF: Time 25920, Note Name: A3
Note OFF: Time 25920, Note Name: D#4
Note OFF: Time 25920, Note Name: F#4
Note ON: Time 25920, Note Name: A3, Velocity: 50
Note ON: Time 25920, Note Name: C#4, Velocity: 50
Note ON: Time 25920, Note Name: F#4, Velocity: 60
Note OFF: Time 26160, Note Name: F#4
Note OFF: Time 26160, Note Name: A3
Note ON: Time 26160, Note Name: G3, Velocity: 50
Note ON: Time 26160, Note Name: E4, Velocity: 56
Note OFF: Time 26400, Note Name: E4
Note OFF: Time 26400, Note Name: G3
Note ON: Time 26400, Note Name: G#3, Velocity: 50
Note ON: Time 26400, Note Name: F4, Velocity: 56
Note OFF: Time 26638, Note Name: F4
Note OFF: Time 26638, Note Name: G#3
Note OFF: Time 26640, Note Name: C#4
Note ON: Time 26640, Note Name: G#3, Velocity: 50
Note ON: Time 26640, Note Name: C#4, Velocity: 50
Note ON: Time 26640, Note Name: F4, Velocity: 59
Note OFF: Time 27000, Note Name: F4
Note OFF: Time 27000, Note Name: C#4
Note OFF: Time 27000, Note Name: G#3
Note ON: Time 27000, Note Name: G#4, Velocity: 60
Note OFF: Time 27120, Note Name: G#4
Note ON: Time 27120, Note Name: B4, Velocity: 63
Note OFF: Time 27240, Note Name: B4
Note ON: Time 27240, Note Name: D5, Velocity: 66
Note OFF: Time 27359, Note Name: D5
Note ON: Time 27360, Note Name: G#4, Velocity: 36
Note ON: Time 27360, Note Name: B4, Velocity: 50
Note ON: Time 27360, Note Name: D5, Velocity: 71
Note ON: Time 27360, Note Name: F4, Velocity: 36
Note ON: Time 27360, Note Name: D4, Velocity: 36
Note OFF: Time 27600, Note Name: D4
Note OFF: Time 27600, Note Name: B4
Note OFF: Time 27600, Note Name: G#4
Note OFF: Time 27600, Note Name: F4
Note ON: Time 27600, Note Name: F4, Velocity: 36
Note ON: Time 27600, Note Name: G#4, Velocity: 36
Note OFF: Time 27840, Note Name: G#4
Note OFF: Time 27840, Note Name: F4
Note OFF: Time 27840, Note Name: D5
Note ON: Time 27840, Note Name: A4, Velocity: 48
Note ON: Time 27840, Note Name: C#5, Velocity: 54
Note OFF: Time 28080, Note Name: C#5
Note OFF: Time 28080, Note Name: A4
Note ON: Time 28080, Note Name: F4, Velocity: 39
Note ON: Time 28080, Note Name: D4, Velocity: 39
Note ON: Time 28080, Note Name: C#5, Velocity: 55
Note ON: Time 28080, Note Name: G#4, Velocity: 39
Note OFF: Time 28320, Note Name: C#5
Note ON: Time 28320, Note Name: B4, Velocity: 47
Note OFF: Time 28560, Note Name: B4
Note OFF: Time 28560, Note Name: G#4
Note OFF: Time 28560, Note Name: D4
Note OFF: Time 28560, Note Name: F4
Note ON: Time 28560, Note Name: D#4, Velocity: 39
Note ON: Time 28560, Note Name: F#4, Velocity: 39
Note ON: Time 28560, Note Name: A4, Velocity: 47
Note OFF: Time 28800, Note Name: A4
Note OFF: Time 28800, Note Name: F#4
Note OFF: Time 28800, Note Name: D#4
Note ON: Time 28800, Note Name: F#4, Velocity: 45
Note ON: Time 28800, Note Name: D#4, Velocity: 44
Note ON: Time 28800, Note Name: C4, Velocity: 44
Note ON: Time 28800, Note Name: A4, Velocity: 54
Note OFF: Time 29040, Note Name: C4
Note OFF: Time 29040, Note Name: D#4
Note ON: Time 29040, Note Name: C4, Velocity: 39
Note ON: Time 29040, Note Name: D#4, Velocity: 39
Note OFF: Time 29280, Note Name: D#4
Note OFF: Time 29280, Note Name: A4
Note OFF: Time 29280, Note Name: F#4
Note OFF: Time 29280, Note Name: C4
Note ON: Time 29280, Note Name: C#4, Velocity: 38
Note ON: Time 29280, Note Name: F4, Velocity: 38
Note ON: Time 29280, Note Name: G#4, Velocity: 44
Note OFF: Time 29520, Note Name: G#4
Note OFF: Time 29520, Note Name: F4
Note OFF: Time 29520, Note Name: C#4
Note ON: Time 29520, Note Name: F4, Velocity: 35
Note ON: Time 29520, Note Name: C#4, Velocity: 35
Note ON: Time 29520, Note Name: G#4, Velocity: 43
Note OFF: Time 29760, Note Name: G#4
Note OFF: Time 29760, Note Name: C#4
Note OFF: Time 29760, Note Name: F4
Note ON: Time 29760, Note Name: E4, Velocity: 34
Note ON: Time 29760, Note Name: G4, Velocity: 39
Note OFF: Time 30000, Note Name: G4
Note OFF: Time 30000, Note Name: E4
Note ON: Time 30000, Note Name: D4, Velocity: 34
Note OFF: Time 30180, Note Name: D4
Note ON: Time 30180, Note Name: G4, Velocity: 53
Note OFF: Time 30240, Note Name: G4
Note ON: Time 30240, Note Name: B5, Velocity: 65
Note ON: Time 30713, Note Name: A5, Velocity: 60
Note OFF: Time 30720, Note Name: B5
Note OFF: Time 30951, Note Name: A5
Note ON: Time 30960, Note Name: A5, Velocity: 65
Note OFF: Time 31200, Note Name: A5
Note ON: Time 31200, Note Name: G6, Velocity: 65
Note ON: Time 31200, Note Name: G5, Velocity: 46
Note OFF: Time 31440, Note Name: G5
Note OFF: Time 31440, Note Name: G6
Note ON: Time 31440, Note Name: F#5, Velocity: 54
Note ON: Time 31440, Note Name: F#6, Velocity: 64
Note OFF: Time 31678, Note Name: F#6
Note OFF: Time 31678, Note Name: F#5
Note ON: Time 31680, Note Name: F#6, Velocity: 69
Note ON: Time 31680, Note Name: F#5, Velocity: 58
Note OFF: Time 31920, Note Name: F#5
Note OFF: Time 31920, Note Name: F#6
Note ON: Time 31920, Note Name: E5, Velocity: 56
Note ON: Time 31920, Note Name: E6, Velocity: 67
Note OFF: Time 32160, Note Name: E6
Note OFF: Time 32160, Note Name: E5
Note ON: Time 32160, Note Name: F#5, Velocity: 60
Note ON: Time 32160, Note Name: F#6, Velocity: 71
Note OFF: Time 32398, Note Name: F#6
Note OFF: Time 32398, Note Name: F#5
Note ON: Time 32400, Note Name: F#6, Velocity: 75
Note ON: Time 32400, Note Name: F#5, Velocity: 63
Note OFF: Time 32640, Note Name: F#5
Note OFF: Time 32640, Note Name: F#6
Note ON: Time 32640, Note Name: G6, Velocity: 72
Note ON: Time 32640, Note Name: G5, Velocity: 61
Note OFF: Time 33000, Note Name: G5
Note OFF: Time 33000, Note Name: G6
Note ON: Time 33000, Note Name: F#5, Velocity: 64
Note ON: Time 33000, Note Name: F#4, Velocity: 57
Note OFF: Time 33119, Note Name: F#4
Note OFF: Time 33119, Note Name: F#5
Note ON: Time 33120, Note Name: F#4, Velocity: 54
Note ON: Time 33120, Note Name: F#5, Velocity: 54
Note OFF: Time 33360, Note Name: F#5
Note OFF: Time 33360, Note Name: F#4
Note ON: Time 33360, Note Name: A5, Velocity: 52
Note ON: Time 33360, Note Name: A4, Velocity: 52
Note OFF: Time 33600, Note Name: A4
Note OFF: Time 33600, Note Name: A5
Note ON: Time 33600, Note Name: C#6, Velocity: 59
Note ON: Time 33600, Note Name: C#5, Velocity: 59
Note OFF: Time 33838, Note Name: C#5
Note OFF: Time 33838, Note Name: C#6
Note ON: Time 33840, Note Name: C#5, Velocity: 62
Note ON: Time 33840, Note Name: C#6, Velocity: 62
Note OFF: Time 34320, Note Name: C#6
Note OFF: Time 34320, Note Name: C#5
Note ON: Time 34320, Note Name: C#6, Velocity: 57
Note ON: Time 34320, Note Name: C#5, Velocity: 57
Note OFF: Time 34558, Note Name: C#5
Note OFF: Time 34558, Note Name: C#6
Note ON: Time 34560, Note Name: C#6, Velocity: 63
Note ON: Time 34560, Note Name: C#5, Velocity: 53
Note OFF: Time 34800, Note Name: C#5
Note OFF: Time 34800, Note Name: C#6
Note ON: Time 34800, Note Name: D5, Velocity: 52
Note ON: Time 34800, Note Name: D6, Velocity: 62
Note OFF: Time 35040, Note Name: D6
Note OFF: Time 35040, Note Name: D5
Note ON: Time 35040, Note Name: G4, Velocity: 47
Note ON: Time 35040, Note Name: G5, Velocity: 56
Note OFF: Time 35280, Note Name: G5
Note OFF: Time 35280, Note Name: G4
Note ON: Time 35280, Note Name: B5, Velocity: 63
Note ON: Time 35280, Note Name: B4, Velocity: 53
Note OFF: Time 35520, Note Name: B4
Note OFF: Time 35520, Note Name: B5
Note ON: Time 35520, Note Name: C#4, Velocity: 48
Note ON: Time 35520, Note Name: C#5, Velocity: 57
Note OFF: Time 35760, Note Name: C#5
Note OFF: Time 35760, Note Name: C#4
Note ON: Time 35760, Note Name: F4, Velocity: 47
Note ON: Time 35760, Note Name: F5, Velocity: 56
Note OFF: Time 36000, Note Name: F5
Note OFF: Time 36000, Note Name: F4
Note ON: Time 36000, Note Name: F#5, Velocity: 63
Note ON: Time 36000, Note Name: F#4, Velocity: 53
Note OFF: Time 36240, Note Name: F#4
Note OFF: Time 36240, Note Name: F#5
Note ON: Time 36240, Note Name: C#5, Velocity: 57
Note ON: Time 36240, Note Name: C#6, Velocity: 68
Note OFF: Time 36600, Note Name: C#6
Note OFF: Time 36600, Note Name: C#5
Note ON: Time 36600, Note Name: G#4, Velocity: 41
Note ON: Time 36600, Note Name: G#5, Velocity: 49
Note OFF: Time 36720, Note Name: G#5
Note OFF: Time 36720, Note Name: G#4
Note ON: Time 36720, Note Name: A5, Velocity: 53
Note ON: Time 36720, Note Name: A4, Velocity: 45
Note OFF: Time 36960, Note Name: A4
Note OFF: Time 36960, Note Name: A5
Note ON: Time 36960, Note Name: A4, Velocity: 45
Note ON: Time 36960, Note Name: A5, Velocity: 54
Note OFF: Time 37320, Note Name: A5
Note OFF: Time 37320, Note Name: A4
Note ON: Time 37320, Note Name: F4, Velocity: 37
Note ON: Time 37320, Note Name: F5, Velocity: 44
Note OFF: Time 37440, Note Name: F5
Note OFF: Time 37440, Note Name: F4
Note ON: Time 38760, Note Name: C#5, Velocity: 44
Note OFF: Time 38998, Note Name: C#5
Note ON: Time 39000, Note Name: C#5, Velocity: 44
Note OFF: Time 39238, Note Name: C#5
Note ON: Time 39240, Note Name: C#5, Velocity: 44
Note ON: Time 39360, Note Name: F#5, Velocity: 55
Note OFF: Time 39478, Note Name: C#5
Note ON: Time 39480, Note Name: C#5, Velocity: 44
Note OFF: Time 39598, Note Name: F#5
Note ON: Time 39600, Note Name: F#5, Velocity: 63
Note OFF: Time 39718, Note Name: C#5
Note ON: Time 39720, Note Name: C#5, Velocity: 44
Note OFF: Time 39840, Note Name: F#5
Note ON: Time 39840, Note Name: A5, Velocity: 63
Note OFF: Time 39958, Note Name: C#5
Note ON: Time 39960, Note Name: C#5, Velocity: 48
Note OFF: Time 40080, Note Name: A5
Note ON: Time 40080, Note Name: C#6, Velocity: 68
Note OFF: Time 40198, Note Name: C#5
Note ON: Time 40200, Note Name: C#5, Velocity: 50
Note OFF: Time 40318, Note Name: C#6
Note OFF: Time 40320, Note Name: C#5
Note ON: Time 40320, Note Name: C#6, Velocity: 71
Note ON: Time 40440, Note Name: F5, Velocity: 52
Note ON: Time 40440, Note Name: B5, Velocity: 52
Note OFF: Time 40678, Note Name: B5
Note OFF: Time 40678, Note Name: F5
Note ON: Time 40680, Note Name: F5, Velocity: 37
Note ON: Time 40680, Note Name: B5, Velocity: 44
Note OFF: Time 40800, Note Name: C#6
Note ON: Time 40800, Note Name: E6, Velocity: 75
Note OFF: Time 40920, Note Name: E6
Note OFF: Time 40920, Note Name: B5
Note OFF: Time 40920, Note Name: F5
Note ON: Time 40920, Note Name: D6, Velocity: 67
Note OFF: Time 41040, Note Name: D6
Note ON: Time 41040, Note Name: D6, Velocity: 73
Note ON: Time 41160, Note Name: B4, Velocity: 44
Note OFF: Time 41280, Note Name: D6
Note ON: Time 41280, Note Name: F5, Velocity: 64
Note OFF: Time 41398, Note Name: B4
Note ON: Time 41400, Note Name: B4, Velocity: 44
Note OFF: Time 41520, Note Name: F5
Note ON: Time 41520, Note Name: B5, Velocity: 64
Note OFF: Time 41638, Note Name: B4
Note ON: Time 41640, Note Name: B4, Velocity: 44
Note OFF: Time 41760, Note Name: B5
Note ON: Time 41760, Note Name: B5, Velocity: 74
Note OFF: Time 41880, Note Name: B4
Note ON: Time 41880, Note Name: F4, Velocity: 44
Note OFF: Time 42000, Note Name: B5
Note ON: Time 42000, Note Name: B4, Velocity: 55
Note OFF: Time 42118, Note Name: F4
Note ON: Time 42120, Note Name: F4, Velocity: 39
Note OFF: Time 42240, Note Name: B4
Note ON: Time 42240, Note Name: C#5, Velocity: 63
Note OFF: Time 42358, Note Name: F4
Note OFF: Time 42360, Note Name: C#5
Note ON: Time 42360, Note Name: F4, Velocity: 37
Note ON: Time 42360, Note Name: D5, Velocity: 65
Note OFF: Time 42479, Note Name: D5
Note ON: Time 42480, Note Name: B4, Velocity: 40
Note ON: Time 42480, Note Name: D5, Velocity: 66
Note OFF: Time 42598, Note Name: F4
Note ON: Time 42600, Note Name: F4, Velocity: 37
Note ON: Time 42600, Note Name: B4, Velocity: 44
Note OFF: Time 42720, Note Name: D5
Note OFF: Time 42720, Note Name: B4
Note ON: Time 42720, Note Name: C#5, Velocity: 63
Note OFF: Time 42838, Note Name: F4
Note OFF: Time 42838, Note Name: B4
Note ON: Time 42840, Note Name: B4, Velocity: 44
Note ON: Time 42840, Note Name: F4, Velocity: 37
Note OFF: Time 43078, Note Name: F4
Note OFF: Time 43078, Note Name: B4
Note OFF: Time 43080, Note Name: C#5
Note ON: Time 43080, Note Name: F4, Velocity: 37
Note ON: Time 43080, Note Name: B4, Velocity: 66
Note OFF: Time 43200, Note Name: B4
Note OFF: Time 43200, Note Name: F4
Note ON: Time 43200, Note Name: B4, Velocity: 63
Note OFF: Time 43320, Note Name: B4
Note ON: Time 43320, Note Name: A4, Velocity: 54
Note OFF: Time 43560, Note Name: A4
Note ON: Time 43560, Note Name: C#5, Velocity: 63
Note OFF: Time 43800, Note Name: C#5
Note ON: Time 43800, Note Name: F#5, Velocity: 67
Note OFF: Time 44000, Note Name: F#5
Note ON: Time 44000, Note Name: A5, Velocity: 66
Note OFF: Time 44080, Note Name: A5
Note ON: Time 44080, Note Name: C#6, Velocity: 67
Note OFF: Time 44240, Note Name: C#6
Note ON: Time 44240, Note Name: F#6, Velocity: 70
Note OFF: Time 44320, Note Name: F#6
Note ON: Time 44320, Note Name: G#6, Velocity: 71
Note OFF: Time 44400, Note Name: G#6
Note ON: Time 44400, Note Name: A6, Velocity: 75
Note OFF: Time 44480, Note Name: A6
Note ON: Time 44480, Note Name: F#6, Velocity: 73
Note OFF: Time 44560, Note Name: F#6
Note ON: Time 44560, Note Name: C#6, Velocity: 63
Note OFF: Time 44640, Note Name: C#6
Note ON: Time 44640, Note Name: C#6, Velocity: 68
Note OFF: Time 44700, Note Name: C#6
Note ON: Time 44700, Note Name: D6, Velocity: 63
Note OFF: Time 44760, Note Name: D6
Note ON: Time 44760, Note Name: C#6, Velocity: 59
Note OFF: Time 44790, Note Name: C#6
Note ON: Time 44790, Note Name: D6, Velocity: 60
Note OFF: Time 44820, Note Name: D6
Note ON: Time 44820, Note Name: C#6, Velocity: 62
Note OFF: Time 44850, Note Name: C#6
Note ON: Time 44850, Note Name: D6, Velocity: 63
Note OFF: Time 44880, Note Name: D6
Note ON: Time 44880, Note Name: C#6, Velocity: 64
Note OFF: Time 44910, Note Name: C#6
Note ON: Time 44910, Note Name: D6, Velocity: 65
Note OFF: Time 44940, Note Name: D6
Note ON: Time 44940, Note Name: C#6, Velocity: 66
Note OFF: Time 45000, Note Name: C#6
Note ON: Time 45000, Note Name: C6, Velocity: 69
Note OFF: Time 45060, Note Name: C6
Note ON: Time 45060, Note Name: C#6, Velocity: 71
Note OFF: Time 45120, Note Name: C#6
Note ON: Time 45120, Note Name: E6, Velocity: 74
Note OFF: Time 45200, Note Name: E6
Note ON: Time 45200, Note Name: C#6, Velocity: 69
Note OFF: Time 45280, Note Name: C#6
Note ON: Time 45280, Note Name: D6, Velocity: 70
Note OFF: Time 45359, Note Name: D6
Note ON: Time 45360, Note Name: D6, Velocity: 76
Note OFF: Time 45440, Note Name: D6
Note ON: Time 45440, Note Name: E5, Velocity: 62
Note OFF: Time 45520, Note Name: E5
Note ON: Time 45520, Note Name: F5, Velocity: 62
Note OFF: Time 45600, Note Name: F5
Note ON: Time 45600, Note Name: F5, Velocity: 70
Note OFF: Time 45680, Note Name: F5
Note ON: Time 45680, Note Name: D6, Velocity: 59
Note OFF: Time 45760, Note Name: D6
Note ON: Time 45760, Note Name: C#6, Velocity: 60
Note OFF: Time 45839, Note Name: C#6
Note ON: Time 45840, Note Name: C#6, Velocity: 67
Note OFF: Time 45920, Note Name: C#6
Note ON: Time 45920, Note Name: A#5, Velocity: 58
Note OFF: Time 46000, Note Name: A#5
Note ON: Time 46000, Note Name: B5, Velocity: 53
Note OFF: Time 46079, Note Name: B5
Note ON: Time 46080, Note Name: B5, Velocity: 59
Note OFF: Time 46140, Note Name: B5
Note ON: Time 46140, Note Name: F4, Velocity: 46
Note OFF: Time 46200, Note Name: F4
Note ON: Time 46200, Note Name: F#4, Velocity: 47
Note OFF: Time 46260, Note Name: F#4
Note ON: Time 46260, Note Name: G#4, Velocity: 48
Note OFF: Time 46320, Note Name: G#4
Note ON: Time 46320, Note Name: A4, Velocity: 49
Note OFF: Time 46380, Note Name: A4
Note ON: Time 46380, Note Name: A#4, Velocity: 50
Note OFF: Time 46440, Note Name: A#4
Note ON: Time 46440, Note Name: B4, Velocity: 51
Note OFF: Time 46500, Note Name: B4
Note ON: Time 46500, Note Name: C5, Velocity: 52
Note OFF: Time 46560, Note Name: C5
Note ON: Time 46560, Note Name: C#5, Velocity: 54
Note OFF: Time 46640, Note Name: C#5
Note ON: Time 46640, Note Name: D5, Velocity: 55
Note OFF: Time 46720, Note Name: D5
Note ON: Time 46720, Note Name: D#5, Velocity: 57
Note OFF: Time 46800, Note Name: D#5
Note ON: Time 46800, Note Name: E5, Velocity: 58
Note OFF: Time 46880, Note Name: E5
Note ON: Time 46880, Note Name: C#5, Velocity: 60
Note OFF: Time 46960, Note Name: C#5
Note ON: Time 46960, Note Name: D5, Velocity: 61
Note OFF: Time 47039, Note Name: D5
Note ON: Time 47040, Note Name: D5, Velocity: 64
Note OFF: Time 47100, Note Name: D5
Note ON: Time 47100, Note Name: B5, Velocity: 62
Note OFF: Time 47160, Note Name: B5
Note ON: Time 47160, Note Name: G#5, Velocity: 56
Note OFF: Time 47220, Note Name: G#5
Note ON: Time 47220, Note Name: F5, Velocity: 56
Note OFF: Time 47280, Note Name: F5
Note ON: Time 47280, Note Name: D5, Velocity: 62
Note OFF: Time 47340, Note Name: D5
Note ON: Time 47340, Note Name: C5, Velocity: 57
Note OFF: Time 47400, Note Name: C5
Note ON: Time 47400, Note Name: D5, Velocity: 55
Note OFF: Time 47460, Note Name: D5
Note ON: Time 47460, Note Name: C#5, Velocity: 55
Note OFF: Time 47520, Note Name: C#5
Note ON: Time 47520, Note Name: C#5, Velocity: 57
Note ON: Time 47640, Note Name: F#4, Velocity: 48
Note OFF: Time 47760, Note Name: C#5
Note ON: Time 47760, Note Name: F#5, Velocity: 62
Note OFF: Time 47878, Note Name: F#4
Note ON: Time 47880, Note Name: F#4, Velocity: 48
Note OFF: Time 48120, Note Name: F#4
Note OFF: Time 48120, Note Name: F#5
Note ON: Time 48120, Note Name: C#5, Velocity: 56
Note OFF: Time 48240, Note Name: C#5
Note ON: Time 48240, Note Name: D5, Velocity: 62
Note ON: Time 48360, Note Name: B4, Velocity: 43
Note ON: Time 48360, Note Name: F4, Velocity: 36
Note OFF: Time 48598, Note Name: F4
Note OFF: Time 48598, Note Name: B4
Note ON: Time 48600, Note Name: F4, Velocity: 36
Note ON: Time 48600, Note Name: B4, Velocity: 43
Note OFF: Time 48720, Note Name: D5
Note ON: Time 48720, Note Name: C#5, Velocity: 56
Note OFF: Time 48838, Note Name: B4
Note OFF: Time 48838, Note Name: F4
Note ON: Time 48840, Note Name: F4, Velocity: 36
Note ON: Time 48840, Note Name: B4, Velocity: 43
Note OFF: Time 48960, Note Name: B4
Note OFF: Time 48960, Note Name: F4
Note OFF: Time 48960, Note Name: C#5
Note ON: Time 48960, Note Name: C#5, Velocity: 62
Note OFF: Time 49040, Note Name: C#5
Note ON: Time 49040, Note Name: C#6, Velocity: 57
Note OFF: Time 49120, Note Name: C#6
Note ON: Time 49120, Note Name: G#5, Velocity: 57
Note OFF: Time 49200, Note Name: G#5
Note ON: Time 49200, Note Name: B5, Velocity: 63
Note OFF: Time 49260, Note Name: B5
Note ON: Time 49260, Note Name: A5, Velocity: 65
Note OFF: Time 49320, Note Name: A5
Note ON: Time 49320, Note Name: F5, Velocity: 68
Note OFF: Time 49380, Note Name: F5
Note ON: Time 49380, Note Name: F#5, Velocity: 70
Note OFF: Time 49440, Note Name: F#5
Note ON: Time 49440, Note Name: G#5, Velocity: 71
Note OFF: Time 49500, Note Name: G#5
Note ON: Time 49500, Note Name: F#5, Velocity: 70
Note OFF: Time 49560, Note Name: F#5
Note ON: Time 49560, Note Name: A5, Velocity: 68
Note OFF: Time 49600, Note Name: A5
Note ON: Time 49600, Note Name: F#5, Velocity: 67
Note OFF: Time 49640, Note Name: F#5
Note ON: Time 49641, Note Name: C#5, Velocity: 65
Note ON: Time 49680, Note Name: E5, Velocity: 66
Note OFF: Time 49681, Note Name: C#5
Note OFF: Time 49800, Note Name: E5
Note ON: Time 49800, Note Name: D#5, Velocity: 62
Note ON: Time 49800, Note Name: B4, Velocity: 52
Note ON: Time 49800, Note Name: F4, Velocity: 43
Note OFF: Time 49920, Note Name: D#5
Note ON: Time 49920, Note Name: D5, Velocity: 62
Note OFF: Time 50038, Note Name: F4
Note OFF: Time 50038, Note Name: B4
Note OFF: Time 50040, Note Name: D5
Note ON: Time 50040, Note Name: D5, Velocity: 58
Note ON: Time 50040, Note Name: B4, Velocity: 48
Note ON: Time 50040, Note Name: F4, Velocity: 41
Note OFF: Time 50278, Note Name: F4
Note OFF: Time 50278, Note Name: B4
Note OFF: Time 50278, Note Name: D5
Note ON: Time 50280, Note Name: F4, Velocity: 41
Note ON: Time 50280, Note Name: B4, Velocity: 48
Note ON: Time 50280, Note Name: C#5, Velocity: 58
Note OFF: Time 50400, Note Name: C#5
Note OFF: Time 50400, Note Name: B4
Note OFF: Time 50400, Note Name: F4
Note ON: Time 50400, Note Name: C#5, Velocity: 60
Note ON: Time 50520, Note Name: F#4, Velocity: 40
Note OFF: Time 50760, Note Name: F#4
Note OFF: Time 50760, Note Name: C#5
Note ON: Time 50760, Note Name: F#5, Velocity: 62
Note OFF: Time 50998, Note Name: F#5
Note ON: Time 51000, Note Name: F#5, Velocity: 63
Note ON: Time 51240, Note Name: F#4, Velocity: 40
Note OFF: Time 51475, Note Name: F#5
Note OFF: Time 51480, Note Name: F#4
Note ON: Time 51480, Note Name: F#5, Velocity: 65
Note OFF: Time 51718, Note Name: F#5
Note ON: Time 51720, Note Name: F#5, Velocity: 67
Note ON: Time 51960, Note Name: B4, Velocity: 45
Note OFF: Time 52200, Note Name: B4
Note OFF: Time 52200, Note Name: F#5
Note ON: Time 52200, Note Name: B5, Velocity: 69
Note OFF: Time 52438, Note Name: B5
Note ON: Time 52440, Note Name: B5, Velocity: 71
Note ON: Time 52680, Note Name: B4, Velocity: 61
Note OFF: Time 52915, Note Name: B5
Note OFF: Time 52920, Note Name: B4
Note ON: Time 52920, Note Name: B4, Velocity: 62
Note ON: Time 52920, Note Name: B5, Velocity: 73
Note OFF: Time 53158, Note Name: B5
Note OFF: Time 53158, Note Name: B4
Note ON: Time 53160, Note Name: B4, Velocity: 63
Note ON: Time 53160, Note Name: B5, Velocity: 75
Note OFF: Time 53398, Note Name: B5
Note OFF: Time 53398, Note Name: B4
Note ON: Time 53400, Note Name: B4, Velocity: 64
Note ON: Time 53400, Note Name: B5, Velocity: 76
Note OFF: Time 53638, Note Name: B5
Note OFF: Time 53638, Note Name: B4
Note ON: Time 53640, Note Name: B4, Velocity: 65
Note ON: Time 53640, Note Name: B5, Velocity: 77
Note OFF: Time 53878, Note Name: B5
Note OFF: Time 53878, Note Name: B4
Note ON: Time 53880, Note Name: B4, Velocity: 66
Note ON: Time 53880, Note Name: B5, Velocity: 78
Note OFF: Time 53999, Note Name: B4
Note OFF: Time 54118, Note Name: B5
Note ON: Time 54120, Note Name: E6, Velocity: 80
Note ON: Time 54120, Note Name: B5, Velocity: 68
Note ON: Time 54120, Note Name: E5, Velocity: 68
Note OFF: Time 54358, Note Name: E5
Note OFF: Time 54358, Note Name: B5
Note OFF: Time 54358, Note Name: E6
Note ON: Time 54360, Note Name: D6, Velocity: 81
Note ON: Time 54360, Note Name: E6, Velocity: 81
Note ON: Time 54360, Note Name: B5, Velocity: 68
Note ON: Time 54360, Note Name: E5, Velocity: 68
Note OFF: Time 54598, Note Name: E5
Note OFF: Time 54598, Note Name: D6
Note OFF: Time 54598, Note Name: E6
Note OFF: Time 54598, Note Name: B5
Note ON: Time 54600, Note Name: E6, Velocity: 82
Note ON: Time 54600, Note Name: C#6, Velocity: 69
Note ON: Time 54600, Note Name: A5, Velocity: 69
Note ON: Time 54600, Note Name: E5, Velocity: 69
Note OFF: Time 54719, Note Name: E5
Note OFF: Time 54719, Note Name: E6
Note OFF: Time 54719, Note Name: C#6
Note OFF: Time 54719, Note Name: A5
Note ON: Time 54720, Note Name: E5, Velocity: 56
Note ON: Time 54720, Note Name: E6, Velocity: 73
Note OFF: Time 54840, Note Name: E6
Note ON: Time 54840, Note Name: G#5, Velocity: 57
Note OFF: Time 54960, Note Name: G#5
Note OFF: Time 54960, Note Name: E5
Note ON: Time 54960, Note Name: E5, Velocity: 54
Note ON: Time 54960, Note Name: B5, Velocity: 64
Note OFF: Time 55080, Note Name: B5
Note ON: Time 55080, Note Name: A5, Velocity: 60
Note OFF: Time 55200, Note Name: A5
Note OFF: Time 55200, Note Name: E5
Note ON: Time 55200, Note Name: F#5, Velocity: 51
Note ON: Time 55200, Note Name: G#5, Velocity: 60
Note OFF: Time 55320, Note Name: G#5
Note ON: Time 55320, Note Name: A5, Velocity: 60
Note OFF: Time 55440, Note Name: A5
Note ON: Time 55440, Note Name: C6, Velocity: 69
Note OFF: Time 55560, Note Name: F#5
Note ON: Time 55560, Note Name: F#5, Velocity: 60
Note OFF: Time 55680, Note Name: F#5
Note OFF: Time 55680, Note Name: C6
Note ON: Time 55680, Note Name: A5, Velocity: 65
Note ON: Time 55680, Note Name: B5, Velocity: 55
Note ON: Time 55800, Note Name: G5, Velocity: 57
Note OFF: Time 55920, Note Name: G5
Note ON: Time 55920, Note Name: F#5, Velocity: 60
Note OFF: Time 56040, Note Name: F#5
Note OFF: Time 56040, Note Name: A5
Note ON: Time 56040, Note Name: G5, Velocity: 55
Note OFF: Time 56160, Note Name: G5
Note ON: Time 56160, Note Name: F5, Velocity: 56
Note ON: Time 56280, Note Name: G#5, Velocity: 57
Note OFF: Time 56400, Note Name: G#5
Note OFF: Time 56400, Note Name: F5
Note OFF: Time 56400, Note Name: B5
Note ON: Time 56400, Note Name: E5, Velocity: 54
Note ON: Time 56400, Note Name: A#5, Velocity: 64
Note OFF: Time 56520, Note Name: A#5
Note ON: Time 56520, Note Name: A5, Velocity: 60
Note OFF: Time 56640, Note Name: A5
Note ON: Time 56640, Note Name: G#5, Velocity: 60
Note OFF: Time 56760, Note Name: G#5
Note ON: Time 56760, Note Name: A5, Velocity: 60
Note OFF: Time 56880, Note Name: A5
Note ON: Time 56880, Note Name: B5, Velocity: 69
Note OFF: Time 57000, Note Name: E5
Note ON: Time 57000, Note Name: E5, Velocity: 60
Note OFF: Time 57120, Note Name: E5
Note OFF: Time 57120, Note Name: B5
Note ON: Time 57120, Note Name: G5, Velocity: 65
Note ON: Time 57120, Note Name: A5, Velocity: 55
Note OFF: Time 57240, Note Name: G5
Note ON: Time 57240, Note Name: F#5, Velocity: 57
Note OFF: Time 57360, Note Name: F#5
Note ON: Time 57360, Note Name: F5, Velocity: 60
Note OFF: Time 57480, Note Name: F5
Note ON: Time 57480, Note Name: F#5, Velocity: 55
Note OFF: Time 57600, Note Name: F#5
Note ON: Time 57600, Note Name: D#5, Velocity: 50
Note OFF: Time 57720, Note Name: A5
Note ON: Time 57720, Note Name: F#5, Velocity: 53
Note OFF: Time 57840, Note Name: F#5
Note OFF: Time 57840, Note Name: D#5
Note ON: Time 57840, Note Name: E5, Velocity: 51
Note ON: Time 57840, Note Name: A5, Velocity: 61
Note OFF: Time 57960, Note Name: A5
Note ON: Time 57960, Note Name: G5, Velocity: 55
Note OFF: Time 58080, Note Name: G5
Note OFF: Time 58080, Note Name: E5
Note ON: Time 58080, Note Name: C#5, Velocity: 51
Note ON: Time 58080, Note Name: F#5, Velocity: 61
Note OFF: Time 58200, Note Name: F#5
Note ON: Time 58200, Note Name: G5, Velocity: 55
Note OFF: Time 58319, Note Name: G5
Note OFF: Time 58320, Note Name: C#5
Note ON: Time 58320, Note Name: G5, Velocity: 63
Note ON: Time 58320, Note Name: C#5, Velocity: 53
Note OFF: Time 58440, Note Name: G5
Note ON: Time 58440, Note Name: E5, Velocity: 57
Note OFF: Time 58560, Note Name: E5
Note OFF: Time 58560, Note Name: C#5
Note ON: Time 58560, Note Name: D5, Velocity: 56
Note ON: Time 58560, Note Name: G5, Velocity: 67
Note OFF: Time 58680, Note Name: G5
Note ON: Time 58680, Note Name: F#5, Velocity: 58
Note OFF: Time 58800, Note Name: F#5
Note OFF: Time 58800, Note Name: D5
Note ON: Time 58800, Note Name: E5, Velocity: 68
Note ON: Time 58800, Note Name: B4, Velocity: 57
Note OFF: Time 58920, Note Name: E5
Note ON: Time 58920, Note Name: F5, Velocity: 61
Note OFF: Time 59039, Note Name: F5
Note ON: Time 59040, Note Name: F5, Velocity: 71
Note OFF: Time 59160, Note Name: B4
Note ON: Time 59160, Note Name: F4, Velocity: 61
Note OFF: Time 59280, Note Name: F4
Note OFF: Time 59280, Note Name: F5
Note ON: Time 59280, Note Name: E4, Velocity: 57
Note ON: Time 59280, Note Name: A#4, Velocity: 68
Note ON: Time 59280, Note Name: E5, Velocity: 68
Note OFF: Time 59400, Note Name: A#4
Note ON: Time 59400, Note Name: A4, Velocity: 59
Note OFF: Time 59520, Note Name: A4
Note OFF: Time 59520, Note Name: E5
Note OFF: Time 59520, Note Name: E4
Note ON: Time 59520, Note Name: F#4, Velocity: 58
Note ON: Time 59520, Note Name: G#4, Velocity: 69
Note ON: Time 59520, Note Name: D5, Velocity: 69
Note OFF: Time 59640, Note Name: G#4
Note ON: Time 59640, Note Name: A4, Velocity: 60
Note OFF: Time 59760, Note Name: A4
Note OFF: Time 59760, Note Name: D5
Note OFF: Time 59760, Note Name: F#4
Note ON: Time 59760, Note Name: G5, Velocity: 74
Note ON: Time 59760, Note Name: C#5, Velocity: 67
Note OFF: Time 59880, Note Name: C#5
Note ON: Time 59880, Note Name: E5, Velocity: 62
Note OFF: Time 60000, Note Name: E5
Note OFF: Time 60000, Note Name: G5
Note ON: Time 60000, Note Name: F#5, Velocity: 71
Note ON: Time 60000, Note Name: D5, Velocity: 60
Note OFF: Time 60240, Note Name: D5
Note OFF: Time 60240, Note Name: F#5
Note ON: Time 60240, Note Name: F5, Velocity: 58
Note ON: Time 60240, Note Name: B5, Velocity: 69
Note ON: Time 60240, Note Name: B4, Velocity: 58
Note OFF: Time 60480, Note Name: B4
Note OFF: Time 60480, Note Name: F5
Note ON: Time 60480, Note Name: B4, Velocity: 61
Note ON: Time 60480, Note Name: G#5, Velocity: 72
Note ON: Time 60480, Note Name: D5, Velocity: 61
Note OFF: Time 60720, Note Name: D5
Note OFF: Time 60720, Note Name: B5
Note OFF: Time 60720, Note Name: B4
Note OFF: Time 60720, Note Name: G#5
Note ON: Time 60720, Note Name: D5, Velocity: 62
Note ON: Time 60720, Note Name: A4, Velocity: 62
Note ON: Time 60720, Note Name: A5, Velocity: 74
Note OFF: Time 60960, Note Name: A5
Note OFF: Time 60960, Note Name: A4
Note OFF: Time 60960, Note Name: D5
Note ON: Time 60960, Note Name: D5, Velocity: 80
Note ON: Time 60960, Note Name: D6, Velocity: 91
Note OFF: Time 61200, Note Name: D5
Note ON: Time 61200, Note Name: D5, Velocity: 82
Note ON: Time 61200, Note Name: G5, Velocity: 82
Note OFF: Time 61440, Note Name: G5
Note OFF: Time 61440, Note Name: D5
Note OFF: Time 61440, Note Name: D6
Note ON: Time 61440, Note Name: E5, Velocity: 73
Note ON: Time 61440, Note Name: C#5, Velocity: 73
Note ON: Time 61440, Note Name: C#6, Velocity: 87
Note ON: Time 61440, Note Name: G5, Velocity: 73
Note OFF: Time 61680, Note Name: G5
Note OFF: Time 61680, Note Name: E5
Note OFF: Time 61680, Note Name: C#5
Note OFF: Time 61680, Note Name: C#6
Note ON: Time 61680, Note Name: C#6, Velocity: 78
Note ON: Time 61680, Note Name: G5, Velocity: 78
Note ON: Time 61680, Note Name: G6, Velocity: 95
Note ON: Time 61680, Note Name: E6, Velocity: 80
Note OFF: Time 62280, Note Name: E6
Note OFF: Time 62280, Note Name: C#6
Note OFF: Time 62280, Note Name: G5
Note OFF: Time 62280, Note Name: G6
Note ON: Time 62280, Note Name: G4, Velocity: 50
Note OFF: Time 62400, Note Name: G4
Note ON: Time 62400, Note Name: E4, Velocity: 54
Note OFF: Time 62520, Note Name: E4
Note ON: Time 62520, Note Name: A#4, Velocity: 45
Note OFF: Time 62640, Note Name: A#4
Note ON: Time 62640, Note Name: G#4, Velocity: 52
Note OFF: Time 62760, Note Name: G#4
Note ON: Time 62760, Note Name: A4, Velocity: 45
Note OFF: Time 62880, Note Name: A4
Note ON: Time 62880, Note Name: E4, Velocity: 50
Note OFF: Time 63000, Note Name: E4
Note ON: Time 63000, Note Name: B4, Velocity: 45
Note OFF: Time 63120, Note Name: B4
Note ON: Time 63120, Note Name: A4, Velocity: 49
Note OFF: Time 63240, Note Name: A4
Note ON: Time 63240, Note Name: G4, Velocity: 45
Note OFF: Time 63360, Note Name: G4
Note ON: Time 63360, Note Name: F#4, Velocity: 49
Note OFF: Time 63600, Note Name: F#4
Note ON: Time 63840, Note Name: D2, Velocity: 58
Note OFF: Time 64560, Note Name: D2
Note ON: Time 64560, Note Name: D2, Velocity: 52
Note OFF: Time 64680, Note Name: D2
Note ON: Time 64680, Note Name: A1, Velocity: 46
Note OFF: Time 64800, Note Name: A1
Note ON: Time 64800, Note Name: A1, Velocity: 52
Note OFF: Time 65518, Note Name: A1
Note ON: Time 65520, Note Name: A1, Velocity: 52
Note OFF: Time 65998, Note Name: A1
Note ON: Time 66000, Note Name: A1, Velocity: 52
Note OFF: Time 66240, Note Name: A1
Note ON: Time 66240, Note Name: F#1, Velocity: 52
Note OFF: Time 66480, Note Name: F#1
Note ON: Time 66720, Note Name: D6, Velocity: 61
Note ON: Time 66720, Note Name: D5, Velocity: 53
Note OFF: Time 67440, Note Name: D5
Note OFF: Time 67440, Note Name: D6
Note ON: Time 67440, Note Name: D6, Velocity: 55
Note ON: Time 67440, Note Name: D5, Velocity: 48
Note OFF: Time 67560, Note Name: D5
Note OFF: Time 67560, Note Name: D6
Note ON: Time 67560, Note Name: A5, Velocity: 48
Note ON: Time 67560, Note Name: A4, Velocity: 42
Note OFF: Time 67679, Note Name: A4
Note OFF: Time 67679, Note Name: A5
Note ON: Time 67680, Note Name: A5, Velocity: 55
Note ON: Time 67680, Note Name: A4, Velocity: 48
Note OFF: Time 68398, Note Name: A4
Note OFF: Time 68398, Note Name: A5
Note ON: Time 68400, Note Name: A5, Velocity: 55
Note ON: Time 68400, Note Name: A4, Velocity: 48
Note OFF: Time 68878, Note Name: A4
Note OFF: Time 68878, Note Name: A5
Note ON: Time 68880, Note Name: A5, Velocity: 55
Note ON: Time 68880, Note Name: A4, Velocity: 48
Note OFF: Time 69120, Note Name: A4
Note OFF: Time 69120, Note Name: A5
Note ON: Time 69120, Note Name: F#5, Velocity: 53
Note ON: Time 69120, Note Name: F#4, Velocity: 45
Note OFF: Time 69360, Note Name: F#4
Note OFF: Time 69360, Note Name: F#5
Note ON: Time 69600, Note Name: D2, Velocity: 58
Note OFF: Time 70078, Note Name: D2
Note ON: Time 70080, Note Name: D2, Velocity: 56
Note OFF: Time 70318, Note Name: D2
Note ON: Time 70320, Note Name: D2, Velocity: 56
Note OFF: Time 70400, Note Name: D2
Note ON: Time 70400, Note Name: C#2, Velocity: 50
Note OFF: Time 70480, Note Name: C#2
Note ON: Time 70480, Note Name: D2, Velocity: 50
Note OFF: Time 70540, Note Name: D2
Note ON: Time 70560, Note Name: A1, Velocity: 52
Note OFF: Time 71038, Note Name: A1
Note ON: Time 71040, Note Name: A1, Velocity: 52
Note OFF: Time 71518, Note Name: A1
Note ON: Time 71520, Note Name: A1, Velocity: 52
Note OFF: Time 72000, Note Name: A1
Note ON: Time 72000, Note Name: F#1, Velocity: 52
Note OFF: Time 72240, Note Name: F#1
Note ON: Time 72480, Note Name: D6, Velocity: 70
Note ON: Time 72480, Note Name: D5, Velocity: 61
Note OFF: Time 72958, Note Name: D5
Note OFF: Time 72958, Note Name: D6
Note ON: Time 72960, Note Name: D5, Velocity: 61
Note ON: Time 72960, Note Name: D6, Velocity: 70
Note OFF: Time 73198, Note Name: D6
Note OFF: Time 73198, Note Name: D5
Note ON: Time 73200, Note Name: D6, Velocity: 68
Note ON: Time 73200, Note Name: D5, Velocity: 59
Note ON: Time 73280, Note Name: C#5, Velocity: 53
Note ON: Time 73280, Note Name: C#6, Velocity: 60
Note OFF: Time 73281, Note Name: D5
Note OFF: Time 73281, Note Name: D6
Note OFF: Time 73360, Note Name: C#5
Note OFF: Time 73360, Note Name: C#6
Note ON: Time 73360, Note Name: D5, Velocity: 53
Note ON: Time 73360, Note Name: D6, Velocity: 60
Note OFF: Time 73420, Note Name: D6
Note OFF: Time 73440, Note Name: D5
Note ON: Time 73440, Note Name: A5, Velocity: 67
Note ON: Time 73440, Note Name: A4, Velocity: 59
Note OFF: Time 73918, Note Name: A5
Note OFF: Time 73919, Note Name: A4
Note ON: Time 73920, Note Name: A4, Velocity: 62
Note ON: Time 73920, Note Name: A5, Velocity: 70
Note OFF: Time 74398, Note Name: A5
Note OFF: Time 74398, Note Name: A4
Note ON: Time 74400, Note Name: A4, Velocity: 61
Note ON: Time 74400, Note Name: A5, Velocity: 70
Note OFF: Time 74800, Note Name: A5
Note OFF: Time 74800, Note Name: A4
Note ON: Time 74800, Note Name: G4, Velocity: 45
Note ON: Time 74800, Note Name: G5, Velocity: 50
Note OFF: Time 74880, Note Name: G5
Note OFF: Time 74880, Note Name: G4
Note ON: Time 74880, Note Name: F#4, Velocity: 50
Note ON: Time 74880, Note Name: F#5, Velocity: 50
Note OFF: Time 75120, Note Name: F#5
Note OFF: Time 75120, Note Name: F#4
Note ON: Time 75120, Note Name: F#4, Velocity: 40
Note ON: Time 75120, Note Name: F#5, Velocity: 50
Note OFF: Time 75200, Note Name: F#4
Note ON: Time 75200, Note Name: E5, Velocity: 40
Note OFF: Time 75280, Note Name: E5
Note ON: Time 75280, Note Name: D5, Velocity: 40
Note OFF: Time 75360, Note Name: D5
Note ON: Time 75360, Note Name: C#5, Velocity: 50
Note OFF: Time 75440, Note Name: C#5
Note ON: Time 75440, Note Name: B4, Velocity: 41
Note OFF: Time 75520, Note Name: B4
Note ON: Time 75520, Note Name: A4, Velocity: 43
Note OFF: Time 75600, Note Name: A4
Note OFF: Time 75600, Note Name: F#5
Note ON: Time 75600, Note Name: G4, Velocity: 50
Note ON: Time 75600, Note Name: G5, Velocity: 50
Note OFF: Time 75680, Note Name: G4
Note ON: Time 75680, Note Name: A#4, Velocity: 42
Note OFF: Time 75760, Note Name: A#4
Note ON: Time 75760, Note Name: A4, Velocity: 42
Note OFF: Time 75840, Note Name: A4
Note ON: Time 75840, Note Name: G4, Velocity: 50
Note OFF: Time 75920, Note Name: G4
Note ON: Time 75920, Note Name: A4, Velocity: 40
Note OFF: Time 76000, Note Name: A4
Note ON: Time 76000, Note Name: B4, Velocity: 40
Note OFF: Time 76080, Note Name: B4
Note ON: Time 76080, Note Name: C#5, Velocity: 50
Note OFF: Time 76160, Note Name: C#5
Note ON: Time 76160, Note Name: D5, Velocity: 41
Note OFF: Time 76240, Note Name: D5
Note ON: Time 76240, Note Name: E5, Velocity: 41
Note OFF: Time 76320, Note Name: E5
Note OFF: Time 76320, Note Name: G5
Note ON: Time 76320, Note Name: A4, Velocity: 50
Note ON: Time 76320, Note Name: A5, Velocity: 50
Note OFF: Time 76560, Note Name: A5
Note OFF: Time 76560, Note Name: A4
Note ON: Time 76560, Note Name: A4, Velocity: 42
Note ON: Time 76560, Note Name: A5, Velocity: 52
Note OFF: Time 76640, Note Name: A4
Note ON: Time 76640, Note Name: G5, Velocity: 42
Note OFF: Time 76720, Note Name: G5
Note ON: Time 76720, Note Name: F#5, Velocity: 43
Note OFF: Time 76800, Note Name: F#5
Note ON: Time 76800, Note Name: E5, Velocity: 55
Note OFF: Time 76880, Note Name: E5
Note ON: Time 76880, Note Name: D5, Velocity: 45
Note OFF: Time 76960, Note Name: D5
Note ON: Time 76960, Note Name: C5, Velocity: 48
Note OFF: Time 77040, Note Name: C5
Note OFF: Time 77040, Note Name: A5
Note ON: Time 77040, Note Name: B4, Velocity: 57
Note ON: Time 77040, Note Name: B5, Velocity: 57
Note OFF: Time 77120, Note Name: B4
Note ON: Time 77120, Note Name: D5, Velocity: 48
Note OFF: Time 77200, Note Name: D5
Note ON: Time 77200, Note Name: C5, Velocity: 49
Note OFF: Time 77280, Note Name: C5
Note ON: Time 77280, Note Name: B4, Velocity: 60
Note OFF: Time 77360, Note Name: B4
Note ON: Time 77360, Note Name: C5, Velocity: 48
Note OFF: Time 77440, Note Name: C5
Note ON: Time 77440, Note Name: D5, Velocity: 49
Note OFF: Time 77520, Note Name: D5
Note ON: Time 77520, Note Name: E5, Velocity: 62
Note OFF: Time 77600, Note Name: E5
Note ON: Time 77600, Note Name: F#5, Velocity: 51
Note OFF: Time 77680, Note Name: F#5
Note ON: Time 77680, Note Name: G5, Velocity: 52
Note OFF: Time 77760, Note Name: B5
Note ON: Time 77760, Note Name: C#6, Velocity: 65
Note OFF: Time 77840, Note Name: G5
Note ON: Time 77840, Note Name: G5, Velocity: 53
Note OFF: Time 77920, Note Name: G5
Note ON: Time 77920, Note Name: F#5, Velocity: 54
Note OFF: Time 78000, Note Name: F#5
Note OFF: Time 78000, Note Name: C#6
Note ON: Time 78000, Note Name: E5, Velocity: 54
Note OFF: Time 78080, Note Name: E5
Note ON: Time 78080, Note Name: D5, Velocity: 54
Note OFF: Time 78160, Note Name: D5
Note ON: Time 78160, Note Name: C#5, Velocity: 55
Note OFF: Time 78240, Note Name: C#5
Note ON: Time 78240, Note Name: D6, Velocity: 70
Note ON: Time 78240, Note Name: D5, Velocity: 70
Note OFF: Time 78320, Note Name: D5
Note ON: Time 78320, Note Name: E5, Velocity: 57
Note OFF: Time 78400, Note Name: E5
Note ON: Time 78400, Note Name: F#5, Velocity: 61
Note OFF: Time 78480, Note Name: F#5
Note OFF: Time 78480, Note Name: D6
Note ON: Time 78480, Note Name: E5, Velocity: 72
Note ON: Time 78480, Note Name: E6, Velocity: 77
Note OFF: Time 78560, Note Name: E5
Note ON: Time 78560, Note Name: A#5, Velocity: 61
Note OFF: Time 78640, Note Name: A#5
Note ON: Time 78640, Note Name: A5, Velocity: 62
Note OFF: Time 78720, Note Name: A5
Note ON: Time 78720, Note Name: G5, Velocity: 75
Note OFF: Time 78800, Note Name: G5
Note ON: Time 78800, Note Name: F#5, Velocity: 60
Note OFF: Time 78880, Note Name: F#5
Note ON: Time 78880, Note Name: E5, Velocity: 61
Note OFF: Time 78960, Note Name: E5
Note OFF: Time 78960, Note Name: E6
Note ON: Time 78960, Note Name: F#5, Velocity: 77
Note ON: Time 78960, Note Name: F#6, Velocity: 83
Note OFF: Time 79040, Note Name: F#5
Note ON: Time 79040, Note Name: G5, Velocity: 63
Note OFF: Time 79120, Note Name: G5
Note ON: Time 79120, Note Name: A5, Velocity: 64
Note OFF: Time 79200, Note Name: A5
Note OFF: Time 79200, Note Name: F#6
Note ON: Time 79200, Note Name: G6, Velocity: 88
Note ON: Time 79200, Note Name: G5, Velocity: 72
Note OFF: Time 79280, Note Name: G5
Note ON: Time 79280, Note Name: F#5, Velocity: 61
Note OFF: Time 79360, Note Name: F#5
Note ON: Time 79360, Note Name: E5, Velocity: 62
Note OFF: Time 79440, Note Name: E5
Note OFF: Time 79440, Note Name: G6
Note ON: Time 79440, Note Name: A5, Velocity: 74
Note ON: Time 79440, Note Name: D#5, Velocity: 63
Note OFF: Time 79520, Note Name: D#5
Note ON: Time 79520, Note Name: D5, Velocity: 51
Note OFF: Time 79600, Note Name: D5
Note ON: Time 79600, Note Name: D#5, Velocity: 51
Note OFF: Time 79680, Note Name: D#5
Note OFF: Time 79680, Note Name: A5
Note ON: Time 79680, Note Name: B5, Velocity: 70
Note ON: Time 79680, Note Name: D5, Velocity: 65
Note OFF: Time 79760, Note Name: D5
Note ON: Time 79760, Note Name: C5, Velocity: 53
Note OFF: Time 79840, Note Name: C5
Note ON: Time 79840, Note Name: B4, Velocity: 54
Note OFF: Time 79920, Note Name: B4
Note OFF: Time 79920, Note Name: B5
Note ON: Time 79920, Note Name: D5, Velocity: 53
Note ON: Time 79920, Note Name: F5, Velocity: 70
Note OFF: Time 80000, Note Name: D5
Note ON: Time 80000, Note Name: C#5, Velocity: 48
Note OFF: Time 80080, Note Name: C#5
Note ON: Time 80080, Note Name: B4, Velocity: 47
Note OFF: Time 80160, Note Name: B4
Note ON: Time 80160, Note Name: G#4, Velocity: 52
Note OFF: Time 80240, Note Name: G#4
Note ON: Time 80240, Note Name: A4, Velocity: 46
Note OFF: Time 80320, Note Name: A4
Note ON: Time 80320, Note Name: B4, Velocity: 45
Note OFF: Time 80400, Note Name: B4
Note OFF: Time 80400, Note Name: F5
Note ON: Time 80400, Note Name: C#5, Velocity: 47
Note ON: Time 80400, Note Name: E5, Velocity: 58
Note OFF: Time 80480, Note Name: C#5
Note ON: Time 80480, Note Name: A#4, Velocity: 44
Note OFF: Time 80560, Note Name: A#4
Note ON: Time 80560, Note Name: A4, Velocity: 43
Note OFF: Time 80640, Note Name: A4
Note OFF: Time 80640, Note Name: E5
Note ON: Time 80640, Note Name: D#5, Velocity: 51
Note ON: Time 80640, Note Name: A5, Velocity: 61
Note OFF: Time 81360, Note Name: A5
Note OFF: Time 81360, Note Name: D#5
Note ON: Time 81360, Note Name: B5, Velocity: 52
Note ON: Time 81360, Note Name: F#5, Velocity: 44
Note ON: Time 81360, Note Name: B4, Velocity: 44
Note OFF: Time 81838, Note Name: B4
Note OFF: Time 81838, Note Name: F#5
Note OFF: Time 81838, Note Name: B5
Note ON: Time 81840, Note Name: F#5, Velocity: 51
Note ON: Time 81840, Note Name: D#5, Velocity: 43
Note ON: Time 81840, Note Name: B4, Velocity: 43
Note OFF: Time 82080, Note Name: B4
Note OFF: Time 82080, Note Name: D#5
Note OFF: Time 82080, Note Name: F#5
Note ON: Time 82080, Note Name: A5, Velocity: 61
Note OFF: Time 82200, Note Name: A5
Note ON: Time 82200, Note Name: F#5, Velocity: 57
Note OFF: Time 82320, Note Name: F#5
Note ON: Time 82320, Note Name: G6, Velocity: 66
Note ON: Time 82320, Note Name: G5, Velocity: 66
Note OFF: Time 82440, Note Name: G5
Note OFF: Time 82440, Note Name: G6
Note ON: Time 82440, Note Name: B4, Velocity: 62
Note ON: Time 82440, Note Name: B5, Velocity: 62
Note OFF: Time 82560, Note Name: B5
Note OFF: Time 82560, Note Name: B4
Note ON: Time 82560, Note Name: F#6, Velocity: 69
Note ON: Time 82560, Note Name: F#5, Velocity: 69
Note OFF: Time 82680, Note Name: F#5
Note OFF: Time 82680, Note Name: F#6
Note ON: Time 82680, Note Name: E6, Velocity: 62
Note ON: Time 82680, Note Name: E5, Velocity: 62
Note OFF: Time 82800, Note Name: E5
Note OFF: Time 82800, Note Name: E6
Note ON: Time 82800, Note Name: D6, Velocity: 52
Note ON: Time 82800, Note Name: D5, Velocity: 62
Note OFF: Time 82920, Note Name: D5
Note ON: Time 82920, Note Name: F5, Velocity: 65
Note OFF: Time 83040, Note Name: F5
Note ON: Time 83040, Note Name: G5, Velocity: 69
Note OFF: Time 83160, Note Name: G5
Note ON: Time 83160, Note Name: F#5, Velocity: 64
Note OFF: Time 83280, Note Name: F#5
Note OFF: Time 83280, Note Name: D6
Note ON: Time 83280, Note Name: C#5, Velocity: 54
Note ON: Time 83280, Note Name: A5, Velocity: 54
Note ON: Time 83280, Note Name: C#6, Velocity: 64
Note ON: Time 83280, Note Name: E5, Velocity: 54
Note OFF: Time 83400, Note Name: E5
Note OFF: Time 83400, Note Name: C#5
Note OFF: Time 83400, Note Name: A5
Note OFF: Time 83400, Note Name: C#6
Note ON: Time 83400, Note Name: C5, Velocity: 58
Note ON: Time 83400, Note Name: A5, Velocity: 58
Note ON: Time 83400, Note Name: C6, Velocity: 69
Note ON: Time 83400, Note Name: D#5, Velocity: 58
Note OFF: Time 83520, Note Name: D#5
Note OFF: Time 83520, Note Name: C5
Note OFF: Time 83520, Note Name: A5
Note OFF: Time 83520, Note Name: C6
Note ON: Time 83520, Note Name: C6, Velocity: 72
Note ON: Time 83520, Note Name: A5, Velocity: 61
Note OFF: Time 83580, Note Name: A5
Note ON: Time 83580, Note Name: F#5, Velocity: 71
Note OFF: Time 83640, Note Name: F#5
Note ON: Time 83640, Note Name: D#5, Velocity: 69
Note OFF: Time 83700, Note Name: D#5
Note ON: Time 83700, Note Name: C5, Velocity: 68
Note OFF: Time 83760, Note Name: C5
Note OFF: Time 83760, Note Name: C6
Note ON: Time 83760, Note Name: C5, Velocity: 66
Note ON: Time 83760, Note Name: A4, Velocity: 56
Note OFF: Time 83820, Note Name: A4
Note ON: Time 83820, Note Name: F#4, Velocity: 61
Note OFF: Time 83880, Note Name: F#4
Note ON: Time 83880, Note Name: D#4, Velocity: 59
Note OFF: Time 83940, Note Name: D#4
Note ON: Time 83940, Note Name: C4, Velocity: 58
Note OFF: Time 84000, Note Name: C4
Note ON: Time 84000, Note Name: A4, Velocity: 60
Note OFF: Time 84060, Note Name: A4
Note ON: Time 84060, Note Name: D#4, Velocity: 48
Note OFF: Time 84120, Note Name: D#4
Note OFF: Time 84120, Note Name: C5
Note ON: Time 84120, Note Name: B4, Velocity: 48
Note ON: Time 84120, Note Name: B3, Velocity: 40
Note ON: Time 84120, Note Name: D4, Velocity: 48
Note OFF: Time 84180, Note Name: D4
Note OFF: Time 84180, Note Name: B3
Note ON: Time 84180, Note Name: G4, Velocity: 48
Note OFF: Time 84240, Note Name: G4
Note OFF: Time 84240, Note Name: B4
Note ON: Time 84240, Note Name: A#3, Velocity: 35
Note ON: Time 84240, Note Name: A#4, Velocity: 41
Note ON: Time 84240, Note Name: G4, Velocity: 35
Note ON: Time 84240, Note Name: D4, Velocity: 35
Note OFF: Time 84720, Note Name: D4
Note OFF: Time 84720, Note Name: A#3
Note OFF: Time 84720, Note Name: A#4
Note OFF: Time 84720, Note Name: G4
Note ON: Time 84960, Note Name: A4, Velocity: 61
Note ON: Time 84960, Note Name: F#4, Velocity: 51
Note OFF: Time 85040, Note Name: F#4
Note ON: Time 85040, Note Name: D4, Velocity: 55
Note OFF: Time 85120, Note Name: D4
Note ON: Time 85120, Note Name: A3, Velocity: 55
Note OFF: Time 85200, Note Name: A3
Note OFF: Time 85200, Note Name: A4
Note ON: Time 85200, Note Name: A4, Velocity: 61
Note ON: Time 85200, Note Name: F#4, Velocity: 51
Note OFF: Time 85260, Note Name: F#4
Note ON: Time 85260, Note Name: D4, Velocity: 54
Note OFF: Time 85320, Note Name: D4
Note ON: Time 85320, Note Name: A3, Velocity: 55
Note OFF: Time 85380, Note Name: A3
Note ON: Time 85380, Note Name: F#4, Velocity: 55
Note OFF: Time 85440, Note Name: F#4
Note ON: Time 85440, Note Name: F#4, Velocity: 63
Note OFF: Time 85500, Note Name: F#4
Note ON: Time 85500, Note Name: D4, Velocity: 54
Note OFF: Time 85560, Note Name: D4
Note OFF: Time 85560, Note Name: A4
Note ON: Time 85560, Note Name: G#4, Velocity: 59
Note ON: Time 85560, Note Name: F4, Velocity: 50
Note OFF: Time 85620, Note Name: F4
Note ON: Time 85620, Note Name: D4, Velocity: 50
Note OFF: Time 85680, Note Name: D4
Note OFF: Time 85680, Note Name: G#4
Note ON: Time 85680, Note Name: E4, Velocity: 48
Note ON: Time 85680, Note Name: A#3, Velocity: 48
Note ON: Time 85680, Note Name: G3, Velocity: 48
Note ON: Time 85680, Note Name: G4, Velocity: 57
Note OFF: Time 85918, Note Name: G4
Note OFF: Time 85918, Note Name: E4
Note OFF: Time 85918, Note Name: A#3
Note OFF: Time 85918, Note Name: G3
Note ON: Time 87120, Note Name: D#4, Velocity: 38
Note ON: Time 87120, Note Name: F#4, Velocity: 45
Note OFF: Time 87595, Note Name: F#4
Note OFF: Time 87595, Note Name: D#4
Note ON: Time 87600, Note Name: D#4, Velocity: 36
Note ON: Time 87600, Note Name: F#4, Velocity: 36
Note ON: Time 87600, Note Name: B4, Velocity: 42
Note OFF: Time 87838, Note Name: B4
Note OFF: Time 87838, Note Name: F#4
Note OFF: Time 87838, Note Name: D#4
Note ON: Time 87840, Note Name: B3, Velocity: 38
Note ON: Time 87840, Note Name: D#4, Velocity: 38
Note ON: Time 87840, Note Name: B4, Velocity: 45
Note ON: Time 87840, Note Name: F#4, Velocity: 38
Note OFF: Time 88315, Note Name: F#4
Note OFF: Time 88315, Note Name: B3
Note OFF: Time 88315, Note Name: D#4
Note OFF: Time 88315, Note Name: B4
Note ON: Time 88320, Note Name: D#4, Velocity: 36
Note ON: Time 88320, Note Name: B3, Velocity: 36
Note ON: Time 88320, Note Name: B4, Velocity: 44
Note ON: Time 88320, Note Name: F#4, Velocity: 36
Note OFF: Time 88558, Note Name: F#4
Note OFF: Time 88558, Note Name: D#4
Note OFF: Time 88558, Note Name: B3
Note OFF: Time 88558, Note Name: B4
Note ON: Time 88560, Note Name: E4, Velocity: 38
Note ON: Time 88560, Note Name: B3, Velocity: 38
Note ON: Time 88560, Note Name: B4, Velocity: 45
Note OFF: Time 88798, Note Name: B4
Note OFF: Time 88798, Note Name: B3
Note OFF: Time 88798, Note Name: E4
Note ON: Time 88800, Note Name: A3, Velocity: 35
Note ON: Time 88800, Note Name: E4, Velocity: 35
Note ON: Time 88800, Note Name: C#4, Velocity: 35
Note ON: Time 88800, Note Name: A4, Velocity: 41
Note OFF: Time 89275, Note Name: A4
Note OFF: Time 89275, Note Name: A3
Note OFF: Time 89275, Note Name: E4
Note OFF: Time 89275, Note Name: C#4
Note ON: Time 89280, Note Name: A3, Velocity: 35
Note ON: Time 89280, Note Name: F#4, Velocity: 35
Note ON: Time 89280, Note Name: D4, Velocity: 35
Note ON: Time 89280, Note Name: A4, Velocity: 41
Note OFF: Time 89760, Note Name: A4
Note OFF: Time 89760, Note Name: A3
Note OFF: Time 89760, Note Name: F#4
Note OFF: Time 89760, Note Name: D4
Note ON: Time 89760, Note Name: F#4, Velocity: 33
Note OFF: Time 90000, Note Name: F#4
Note ON: Time 90000, Note Name: A3, Velocity: 42
Note OFF: Time 90480, Note Name: A3
Note ON: Time 90480, Note Name: A4, Velocity: 36
Note OFF: Time 90720, Note Name: A4
Note ON: Time 90720, Note Name: F#4, Velocity: 40
Note OFF: Time 91200, Note Name: F#4
Note ON: Time 91200, Note Name: F#6, Velocity: 59
Note ON: Time 91200, Note Name: F#5, Velocity: 49
Note ON: Time 91200, Note Name: A5, Velocity: 49
Note OFF: Time 91440, Note Name: A5
Note OFF: Time 91440, Note Name: F#5
Note OFF: Time 91440, Note Name: F#6
Note ON: Time 91440, Note Name: G5, Velocity: 53
Note ON: Time 91440, Note Name: E5, Velocity: 53
Note ON: Time 91440, Note Name: E6, Velocity: 63
Note OFF: Time 91920, Note Name: E6
Note OFF: Time 91920, Note Name: E5
Note OFF: Time 91920, Note Name: G5
Note ON: Time 91920, Note Name: A5, Velocity: 51
Note ON: Time 91920, Note Name: E5, Velocity: 43
Note ON: Time 91920, Note Name: A4, Velocity: 43
Note ON: Time 91920, Note Name: G5, Velocity: 43
Note OFF: Time 92158, Note Name: G5
Note OFF: Time 92158, Note Name: A5
Note OFF: Time 92158, Note Name: E5
Note OFF: Time 92158, Note Name: A4
Note ON: Time 92160, Note Name: A4, Velocity: 45
Note ON: Time 92160, Note Name: A5, Velocity: 54
Note ON: Time 92160, Note Name: F#5, Velocity: 45
Note OFF: Time 92640, Note Name: F#5
Note OFF: Time 92640, Note Name: A5
Note OFF: Time 92640, Note Name: A4
Note ON: Time 92640, Note Name: F#5, Velocity: 43
Note OFF: Time 92880, Note Name: F#5
Note ON: Time 92880, Note Name: A4, Velocity: 50
Note OFF: Time 93360, Note Name: A4
Note ON: Time 93360, Note Name: A4, Velocity: 39
Note ON: Time 93360, Note Name: A5, Velocity: 47
Note OFF: Time 93600, Note Name: A5
Note OFF: Time 93600, Note Name: A4
Note ON: Time 93600, Note Name: F#5, Velocity: 54
Note ON: Time 93600, Note Name: F#4, Velocity: 45
Note OFF: Time 94080, Note Name: F#4
Note OFF: Time 94080, Note Name: F#5
Note ON: Time 94080, Note Name: A4, Velocity: 40
Note ON: Time 94080, Note Name: A5, Velocity: 48
Note OFF: Time 94320, Note Name: A5
Note OFF: Time 94320, Note Name: A4
Note ON: Time 94320, Note Name: G5, Velocity: 56
Note ON: Time 94320, Note Name: B5, Velocity: 56
Note ON: Time 94320, Note Name: B4, Velocity: 47
Note OFF: Time 94800, Note Name: B4
Note OFF: Time 94800, Note Name: B5
Note OFF: Time 94800, Note Name: G5
Note ON: Time 94800, Note Name: C#6, Velocity: 54
Note ON: Time 94800, Note Name: E5, Velocity: 45
Note ON: Time 94800, Note Name: G5, Velocity: 45
Note ON: Time 94800, Note Name: C#5, Velocity: 45
Note OFF: Time 95040, Note Name: C#5
Note OFF: Time 95040, Note Name: C#6
Note OFF: Time 95040, Note Name: E5
Note OFF: Time 95040, Note Name: G5
Note ON: Time 95040, Note Name: F#5, Velocity: 50
Note ON: Time 95040, Note Name: D5, Velocity: 50
Note ON: Time 95040, Note Name: D6, Velocity: 60
Note OFF: Time 95760, Note Name: D6
Note OFF: Time 95760, Note Name: D5
Note OFF: Time 95760, Note Name: F#5
Note ON: Time 95760, Note Name: E6, Velocity: 68
Note ON: Time 95760, Note Name: C#6, Velocity: 56
Note ON: Time 95760, Note Name: E5, Velocity: 56
Note OFF: Time 96473, Note Name: E5
Note OFF: Time 96473, Note Name: C#6
Note OFF: Time 96473, Note Name: E6
Note ON: Time 96480, Note Name: E5, Velocity: 62
Note ON: Time 96480, Note Name: E6, Velocity: 73
Note ON: Time 96480, Note Name: C#6, Velocity: 62
Note OFF: Time 96960, Note Name: C#6
Note OFF: Time 96960, Note Name: E6
Note OFF: Time 96960, Note Name: E5
Note ON: Time 96960, Note Name: D#6, Velocity: 70
Note ON: Time 96960, Note Name: F#6, Velocity: 70
Note ON: Time 96960, Note Name: F#5, Velocity: 59
Note OFF: Time 97200, Note Name: F#5
Note OFF: Time 97200, Note Name: F#6
Note OFF: Time 97200, Note Name: D#6
Note ON: Time 97200, Note Name: G6, Velocity: 75
Note ON: Time 97200, Note Name: G5, Velocity: 63
Note ON: Time 97200, Note Name: E6, Velocity: 75
Note OFF: Time 97438, Note Name: E6
Note OFF: Time 97438, Note Name: G5
Note OFF: Time 97438, Note Name: G6
Note ON: Time 97440, Note Name: E6, Velocity: 80
Note ON: Time 97440, Note Name: A6, Velocity: 80
Note ON: Time 97440, Note Name: A5, Velocity: 68
Note OFF: Time 97678, Note Name: A5
Note OFF: Time 97678, Note Name: A6
Note OFF: Time 97678, Note Name: E6
Note ON: Time 97680, Note Name: E6, Velocity: 72
Note ON: Time 97680, Note Name: A6, Velocity: 85
Note ON: Time 97680, Note Name: G6, Velocity: 85
Note ON: Time 97680, Note Name: A5, Velocity: 72
Note OFF: Time 97918, Note Name: A5
Note OFF: Time 97918, Note Name: E6
Note OFF: Time 97918, Note Name: A6
Note OFF: Time 97918, Note Name: G6
Note ON: Time 97920, Note Name: A6, Velocity: 74
Note ON: Time 97920, Note Name: A5, Velocity: 62
Note OFF: Time 98160, Note Name: A5
Note OFF: Time 98160, Note Name: A6
Note ON: Time 98160, Note Name: A4, Velocity: 46
Note ON: Time 98160, Note Name: A5, Velocity: 55
Note OFF: Time 98400, Note Name: A5
Note OFF: Time 98400, Note Name: A4
Note ON: Time 98400, Note Name: F#4, Velocity: 46
Note ON: Time 98400, Note Name: F#5, Velocity: 55
Note OFF: Time 98638, Note Name: F#5
Note OFF: Time 98638, Note Name: F#4
Note ON: Time 98640, Note Name: F#4, Velocity: 51
Note ON: Time 98640, Note Name: F#5, Velocity: 60
Note OFF: Time 98880, Note Name: F#5
Note OFF: Time 98880, Note Name: F#4
Note ON: Time 98880, Note Name: D4, Velocity: 46
Note ON: Time 98880, Note Name: D5, Velocity: 55
Note OFF: Time 99120, Note Name: D5
Note OFF: Time 99120, Note Name: D4
Note ON: Time 99120, Note Name: E4, Velocity: 47
Note ON: Time 99120, Note Name: E5, Velocity: 56
Note OFF: Time 99360, Note Name: E5
Note OFF: Time 99360, Note Name: E4
Note ON: Time 99360, Note Name: F#4, Velocity: 51
Note ON: Time 99360, Note Name: F#5, Velocity: 60
Note OFF: Time 100080, Note Name: F#5
Note OFF: Time 100080, Note Name: F#4
Note ON: Time 100080, Note Name: G4, Velocity: 51
Note ON: Time 100080, Note Name: G5, Velocity: 60
Note OFF: Time 100560, Note Name: G5
Note OFF: Time 100560, Note Name: G4
Note ON: Time 100560, Note Name: B4, Velocity: 53
Note ON: Time 100560, Note Name: B5, Velocity: 63
Note OFF: Time 100798, Note Name: B5
Note OFF: Time 100798, Note Name: B4
Note ON: Time 100800, Note Name: B4, Velocity: 56
Note ON: Time 100800, Note Name: G5, Velocity: 56
Note ON: Time 100800, Note Name: B5, Velocity: 67
Note OFF: Time 101280, Note Name: B5
Note OFF: Time 101280, Note Name: G5
Note OFF: Time 101280, Note Name: B4
Note ON: Time 101280, Note Name: G5, Velocity: 55
Note ON: Time 101280, Note Name: A#5, Velocity: 65
Note ON: Time 101280, Note Name: A#4, Velocity: 55
Note OFF: Time 101518, Note Name: A#4
Note OFF: Time 101518, Note Name: A#5
Note OFF: Time 101518, Note Name: G5
Note ON: Time 101520, Note Name: A#4, Velocity: 55
Note ON: Time 101520, Note Name: A#5, Velocity: 65
Note OFF: Time 101760, Note Name: A#5
Note OFF: Time 101760, Note Name: A#4
Note ON: Time 101760, Note Name: E6, Velocity: 64
Note ON: Time 101760, Note Name: E5, Velocity: 54
Note OFF: Time 102000, Note Name: E5
Note OFF: Time 102000, Note Name: E6
Note ON: Time 102000, Note Name: F6, Velocity: 66
Note ON: Time 102000, Note Name: F5, Velocity: 56
Note OFF: Time 102120, Note Name: F5
Note OFF: Time 102120, Note Name: F6
Note ON: Time 102120, Note Name: F#5, Velocity: 57
Note ON: Time 102120, Note Name: F#6, Velocity: 68
Note OFF: Time 102239, Note Name: F#6
Note OFF: Time 102239, Note Name: F#5
Note ON: Time 102240, Note Name: F#6, Velocity: 69
Note ON: Time 102240, Note Name: F#5, Velocity: 58
Note OFF: Time 102960, Note Name: F#5
Note OFF: Time 102960, Note Name: F#6
Note ON: Time 102960, Note Name: D#5, Velocity: 68
Note OFF: Time 103080, Note Name: D#5
Note ON: Time 103080, Note Name: F#5, Velocity: 70
Note OFF: Time 103200, Note Name: F#5
Note ON: Time 103200, Note Name: G#5, Velocity: 69
Note OFF: Time 103320, Note Name: G#5
Note ON: Time 103320, Note Name: D#6, Velocity: 73
Note OFF: Time 103440, Note Name: D#6
Note ON: Time 103440, Note Name: F#6, Velocity: 74
Note OFF: Time 103560, Note Name: F#6
Note ON: Time 103560, Note Name: G#6, Velocity: 76
Note OFF: Time 103680, Note Name: G#6
Note ON: Time 103680, Note Name: F4, Velocity: 51
Note ON: Time 103680, Note Name: F5, Velocity: 60
Note OFF: Time 104400, Note Name: F5
Note OFF: Time 104400, Note Name: F4
Note ON: Time 104400, Note Name: G#4, Velocity: 51
Note ON: Time 104400, Note Name: G#5, Velocity: 60
Note OFF: Time 104640, Note Name: G#4
Note ON: Time 104640, Note Name: F5, Velocity: 57
Note OFF: Time 104880, Note Name: F5
Note OFF: Time 104880, Note Name: G#5
Note ON: Time 104880, Note Name: G#5, Velocity: 61
Note ON: Time 104880, Note Name: F#5, Velocity: 45
Note OFF: Time 105120, Note Name: F#5
Note OFF: Time 105120, Note Name: G#5
Note ON: Time 105120, Note Name: C#6, Velocity: 69
Note ON: Time 105120, Note Name: G#5, Velocity: 58
Note OFF: Time 105360, Note Name: G#5
Note ON: Time 105360, Note Name: C#5, Velocity: 60
Note OFF: Time 105600, Note Name: C#5
Note ON: Time 105600, Note Name: C#5, Velocity: 60
Note OFF: Time 105838, Note Name: C#5
Note OFF: Time 105840, Note Name: C#6
Note ON: Time 105840, Note Name: A5, Velocity: 68
Note ON: Time 105840, Note Name: C#5, Velocity: 57
Note OFF: Time 106080, Note Name: C#5
Note ON: Time 106080, Note Name: A4, Velocity: 56
Note OFF: Time 106320, Note Name: A4
Note OFF: Time 106320, Note Name: A5
Note ON: Time 106320, Note Name: C#5, Velocity: 51
Note ON: Time 106320, Note Name: F#5, Velocity: 60
Note ON: Time 106320, Note Name: F#4, Velocity: 51
Note OFF: Time 106558, Note Name: F#5
Note OFF: Time 106560, Note Name: F#4
Note OFF: Time 106560, Note Name: C#5
Note ON: Time 106560, Note Name: F#6, Velocity: 73
Note ON: Time 106560, Note Name: F#5, Velocity: 62
Note OFF: Time 106800, Note Name: F#5
Note ON: Time 106800, Note Name: D#6, Velocity: 70
Note OFF: Time 107040, Note Name: D#6
Note OFF: Time 107040, Note Name: F#6
Note ON: Time 107040, Note Name: F#5, Velocity: 59
Note ON: Time 107040, Note Name: D#6, Velocity: 70
Note ON: Time 107040, Note Name: F#6, Velocity: 70
Note OFF: Time 107278, Note Name: F#6
Note OFF: Time 107278, Note Name: D#6
Note OFF: Time 107278, Note Name: F#5
Note ON: Time 107280, Note Name: F#5, Velocity: 64
Note ON: Time 107280, Note Name: D#6, Velocity: 76
Note ON: Time 107280, Note Name: F#6, Velocity: 76
Note OFF: Time 107520, Note Name: F#6
Note OFF: Time 107520, Note Name: D#6
Note OFF: Time 107520, Note Name: F#5
Note ON: Time 107520, Note Name: D#6, Velocity: 73
Note ON: Time 107520, Note Name: G#5, Velocity: 62
Note ON: Time 107520, Note Name: F#5, Velocity: 62
Note OFF: Time 107760, Note Name: F#5
Note OFF: Time 107760, Note Name: G#5
Note OFF: Time 107760, Note Name: D#6
Note ON: Time 107760, Note Name: C#6, Velocity: 73
Note ON: Time 107760, Note Name: G#5, Velocity: 62
Note ON: Time 107760, Note Name: F5, Velocity: 62
Note OFF: Time 108000, Note Name: F5
Note OFF: Time 108000, Note Name: G#5
Note OFF: Time 108000, Note Name: C#6
Note ON: Time 108000, Note Name: B5, Velocity: 73
Note ON: Time 108000, Note Name: G#5, Velocity: 62
Note ON: Time 108000, Note Name: F5, Velocity: 62
Note OFF: Time 108480, Note Name: F5
Note OFF: Time 108480, Note Name: G#5
Note ON: Time 108480, Note Name: G#5, Velocity: 70
Note OFF: Time 108590, Note Name: G#5
Note ON: Time 108600, Note Name: F5, Velocity: 67
Note OFF: Time 108720, Note Name: F5
Note OFF: Time 108720, Note Name: B5
Note ON: Time 108720, Note Name: D3, Velocity: 61
Note OFF: Time 108840, Note Name: D3
Note ON: Time 108840, Note Name: F3, Velocity: 60
Note OFF: Time 108960, Note Name: F3
Note ON: Time 108960, Note Name: A#3, Velocity: 62
Note OFF: Time 109080, Note Name: A#3
Note ON: Time 109080, Note Name: D4, Velocity: 64
Note OFF: Time 109200, Note Name: D4
Note ON: Time 109200, Note Name: F4, Velocity: 67
Note OFF: Time 109320, Note Name: F4
Note ON: Time 109320, Note Name: A#4, Velocity: 69
Note OFF: Time 109438, Note Name: A#4
Note ON: Time 109440, Note Name: A#4, Velocity: 62
Note ON: Time 109440, Note Name: A#5, Velocity: 73
Note OFF: Time 109920, Note Name: A#5
Note OFF: Time 109920, Note Name: A#4
Note ON: Time 109920, Note Name: G4, Velocity: 56
Note ON: Time 109920, Note Name: G5, Velocity: 67
Note OFF: Time 110158, Note Name: G5
Note OFF: Time 110158, Note Name: G4
Note ON: Time 110160, Note Name: G4, Velocity: 62
Note ON: Time 110160, Note Name: G5, Velocity: 73
Note OFF: Time 110400, Note Name: G5
Note OFF: Time 110400, Note Name: G4
Note ON: Time 110400, Note Name: D#4, Velocity: 57
Note ON: Time 110400, Note Name: D#5, Velocity: 68
Note OFF: Time 110640, Note Name: D#5
Note OFF: Time 110640, Note Name: D#4
Note ON: Time 110640, Note Name: F5, Velocity: 68
Note ON: Time 110640, Note Name: A#4, Velocity: 57
Note ON: Time 110640, Note Name: F4, Velocity: 57
Note ON: Time 110640, Note Name: D5, Velocity: 57
Note OFF: Time 110760, Note Name: F4
Note ON: Time 110760, Note Name: G#4, Velocity: 68
Note OFF: Time 110880, Note Name: G#4
Note OFF: Time 110880, Note Name: D5
Note OFF: Time 110880, Note Name: A#4
Note OFF: Time 110880, Note Name: F5
Note ON: Time 110880, Note Name: G5, Velocity: 73
Note ON: Time 110880, Note Name: G4, Velocity: 62
Note ON: Time 110880, Note Name: A#4, Velocity: 62
Note ON: Time 110880, Note Name: D#5, Velocity: 62
Note OFF: Time 111360, Note Name: D#5
Note OFF: Time 111360, Note Name: G5
Note OFF: Time 111360, Note Name: G4
Note OFF: Time 111360, Note Name: A#4
Note ON: Time 111360, Note Name: B5, Velocity: 73
Note ON: Time 111360, Note Name: B4, Velocity: 62
Note OFF: Time 111600, Note Name: B4
Note OFF: Time 111600, Note Name: B5
Note ON: Time 111600, Note Name: G#5, Velocity: 75
Note ON: Time 111600, Note Name: G#4, Velocity: 63
Note OFF: Time 112080, Note Name: G#4
Note OFF: Time 112080, Note Name: G#5
Note ON: Time 112080, Note Name: F5, Velocity: 68
Note ON: Time 112080, Note Name: F4, Velocity: 57
Note OFF: Time 112320, Note Name: F4
Note OFF: Time 112320, Note Name: F5
Note ON: Time 112320, Note Name: C#6, Velocity: 84
Note ON: Time 112320, Note Name: C#5, Velocity: 71
Note OFF: Time 112800, Note Name: C#5
Note OFF: Time 112800, Note Name: C#6
Note ON: Time 112800, Note Name: A#4, Velocity: 66
Note ON: Time 112800, Note Name: A#5, Velocity: 78
Note OFF: Time 113040, Note Name: A#5
Note OFF: Time 113040, Note Name: A#4
Note ON: Time 113040, Note Name: G5, Velocity: 81
Note ON: Time 113040, Note Name: G4, Velocity: 68
Note OFF: Time 113520, Note Name: G4
Note OFF: Time 113520, Note Name: G5
Note ON: Time 113520, Note Name: D#5, Velocity: 54
Note ON: Time 113640, Note Name: D#4, Velocity: 27
Note ON: Time 113640, Note Name: G4, Velocity: 33
Note OFF: Time 113760, Note Name: G4
Note OFF: Time 113760, Note Name: D#4
Note OFF: Time 113760, Note Name: D#5
Note ON: Time 113760, Note Name: D#4, Velocity: 39
Note ON: Time 113760, Note Name: B4, Velocity: 46
Note ON: Time 113760, Note Name: G#4, Velocity: 39
Note OFF: Time 114000, Note Name: G#4
Note OFF: Time 114000, Note Name: D#4
Note OFF: Time 114240, Note Name: B4
Note ON: Time 114240, Note Name: G#4, Velocity: 52
Note OFF: Time 114480, Note Name: G#4
Note ON: Time 114480, Note Name: E5, Velocity: 58
Note OFF: Time 114960, Note Name: E5
Note ON: Time 114960, Note Name: C#5, Velocity: 56
Note OFF: Time 115200, Note Name: C#5
Note ON: Time 115200, Note Name: A#4, Velocity: 60
Note OFF: Time 115680, Note Name: A#4
Note ON: Time 115680, Note Name: F#5, Velocity: 68
Note ON: Time 115680, Note Name: F#6, Velocity: 80
Note OFF: Time 115920, Note Name: F#6
Note OFF: Time 115920, Note Name: F#5
Note ON: Time 115920, Note Name: D#5, Velocity: 73
Note ON: Time 115920, Note Name: D#6, Velocity: 87
Note OFF: Time 116400, Note Name: D#6
Note OFF: Time 116400, Note Name: D#5
Note ON: Time 116400, Note Name: C5, Velocity: 70
Note ON: Time 116400, Note Name: C6, Velocity: 83
Note OFF: Time 116640, Note Name: C6
Note OFF: Time 116640, Note Name: C5
Note ON: Time 116640, Note Name: G#5, Velocity: 74
Note ON: Time 116640, Note Name: G#6, Velocity: 87
Note OFF: Time 117120, Note Name: G#6
Note OFF: Time 117120, Note Name: G#5
Note ON: Time 117120, Note Name: E5, Velocity: 68
Note ON: Time 117120, Note Name: E6, Velocity: 80
Note OFF: Time 117360, Note Name: E6
Note OFF: Time 117360, Note Name: E5
Note ON: Time 117360, Note Name: C#5, Velocity: 73
Note ON: Time 117360, Note Name: C#6, Velocity: 87
Note OFF: Time 117840, Note Name: C#6
Note OFF: Time 117840, Note Name: C#5
Note ON: Time 117840, Note Name: A3, Velocity: 45
Note ON: Time 117840, Note Name: A4, Velocity: 53
Note OFF: Time 118080, Note Name: A4
Note OFF: Time 118080, Note Name: A3
Note ON: Time 118080, Note Name: A3, Velocity: 43
Note ON: Time 118080, Note Name: F#4, Velocity: 51
Note OFF: Time 118315, Note Name: A3
Note OFF: Time 118560, Note Name: F#4
Note ON: Time 118560, Note Name: D#4, Velocity: 56
Note OFF: Time 118800, Note Name: D#4
Note ON: Time 118800, Note Name: B5, Velocity: 63
Note OFF: Time 119280, Note Name: B5
Note ON: Time 119280, Note Name: G#5, Velocity: 53
Note OFF: Time 119520, Note Name: G#5
Note ON: Time 119520, Note Name: F5, Velocity: 51
Note OFF: Time 120000, Note Name: F5
Note ON: Time 120000, Note Name: C#6, Velocity: 59
Note ON: Time 120000, Note Name: C#5, Velocity: 54
Note OFF: Time 120240, Note Name: C#5
Note OFF: Time 120240, Note Name: C#6
Note ON: Time 120240, Note Name: A5, Velocity: 60
Note ON: Time 120240, Note Name: C#5, Velocity: 51
Note OFF: Time 120360, Note Name: C#5
Note ON: Time 120360, Note Name: F#5, Velocity: 51
Note OFF: Time 120598, Note Name: F#5
Note ON: Time 120600, Note Name: A4, Velocity: 51
Note OFF: Time 120720, Note Name: A4
Note OFF: Time 120720, Note Name: A5
Note ON: Time 120720, Note Name: D6, Velocity: 56
Note ON: Time 120720, Note Name: D5, Velocity: 50
Note OFF: Time 120960, Note Name: D5
Note OFF: Time 120960, Note Name: D6
Note ON: Time 120960, Note Name: B5, Velocity: 56
Note ON: Time 120960, Note Name: B4, Velocity: 47
Note OFF: Time 121440, Note Name: B4
Note OFF: Time 121440, Note Name: B5
Note ON: Time 121440, Note Name: G#4, Velocity: 42
Note ON: Time 121440, Note Name: G#5, Velocity: 50
Note OFF: Time 121680, Note Name: G#5
Note OFF: Time 121680, Note Name: G#4
Note ON: Time 121680, Note Name: F5, Velocity: 46
Note ON: Time 121680, Note Name: F4, Velocity: 39
Note OFF: Time 122160, Note Name: F4
Note OFF: Time 122160, Note Name: F5
Note ON: Time 122160, Note Name: D5, Velocity: 44
Note ON: Time 122160, Note Name: F4, Velocity: 37
Note ON: Time 122160, Note Name: G#4, Velocity: 37
Note ON: Time 122160, Note Name: B4, Velocity: 37
Note OFF: Time 122398, Note Name: B4
Note OFF: Time 122398, Note Name: G#4
Note OFF: Time 122398, Note Name: F4
Note OFF: Time 122398, Note Name: D5
Note ON: Time 122400, Note Name: B4, Velocity: 39
Note ON: Time 122400, Note Name: F4, Velocity: 27
Note ON: Time 122400, Note Name: D4, Velocity: 27
Note ON: Time 122400, Note Name: G#4, Velocity: 27
Note OFF: Time 122875, Note Name: G#4
Note OFF: Time 122875, Note Name: B4
Note OFF: Time 122875, Note Name: F4
Note OFF: Time 122875, Note Name: D4
Note ON: Time 122880, Note Name: G#4, Velocity: 36
Note ON: Time 122880, Note Name: B3, Velocity: 25
Note ON: Time 122880, Note Name: D4, Velocity: 25
Note ON: Time 122880, Note Name: F4, Velocity: 25
Note OFF: Time 123118, Note Name: F4
Note OFF: Time 123118, Note Name: G#4
Note OFF: Time 123118, Note Name: B3
Note OFF: Time 123118, Note Name: D4
Note ON: Time 123120, Note Name: F4, Velocity: 34
Note ON: Time 123120, Note Name: G#3, Velocity: 24
Note ON: Time 123120, Note Name: B3, Velocity: 24
Note ON: Time 123120, Note Name: D4, Velocity: 24
Note OFF: Time 123595, Note Name: D4
Note OFF: Time 123595, Note Name: F4
Note OFF: Time 123595, Note Name: G#3
Note OFF: Time 123595, Note Name: B3
Note ON: Time 123600, Note Name: D4, Velocity: 30
Note ON: Time 123600, Note Name: F3, Velocity: 21
Note ON: Time 123600, Note Name: G#3, Velocity: 21
Note ON: Time 123600, Note Name: B3, Velocity: 21
Note OFF: Time 123900, Note Name: B3
Note OFF: Time 123900, Note Name: D4
Note OFF: Time 123900, Note Name: F3
Note OFF: Time 123900, Note Name: G#3
Note ON: Time 123900, Note Name: B3, Velocity: 30
Note OFF: Time 123960, Note Name: B3
Note ON: Time 123960, Note Name: G#3, Velocity: 30
Note OFF: Time 124020, Note Name: G#3
Note ON: Time 124020, Note Name: F3, Velocity: 30
Note OFF: Time 124080, Note Name: F3
Note ON: Time 124080, Note Name: D3, Velocity: 30
Note OFF: Time 124140, Note Name: D3
Note ON: Time 124140, Note Name: B2, Velocity: 30
Note OFF: Time 124200, Note Name: B2
Note ON: Time 124200, Note Name: G#2, Velocity: 30
Note OFF: Time 124260, Note Name: G#2
Note ON: Time 124260, Note Name: B2, Velocity: 30
Note OFF: Time 124320, Note Name: B2
Note ON: Time 124320, Note Name: D3, Velocity: 35
Note OFF: Time 124380, Note Name: D3
Note ON: Time 124380, Note Name: F3, Velocity: 30
Note OFF: Time 124440, Note Name: F3
Note ON: Time 124440, Note Name: G#3, Velocity: 30
Note OFF: Time 124500, Note Name: G#3
Note ON: Time 124500, Note Name: B3, Velocity: 30
Note OFF: Time 124560, Note Name: B3
Note ON: Time 124560, Note Name: B3, Velocity: 30
Note ON: Time 124560, Note Name: D4, Velocity: 36
Note OFF: Time 124620, Note Name: D4
Note OFF: Time 124620, Note Name: B3
Note ON: Time 124620, Note Name: F4, Velocity: 30
Note OFF: Time 124680, Note Name: F4
Note ON: Time 124680, Note Name: G#4, Velocity: 30
Note OFF: Time 124740, Note Name: G#4
Note ON: Time 124740, Note Name: B4, Velocity: 30
Note OFF: Time 124800, Note Name: B4
Note ON: Time 124800, Note Name: D5, Velocity: 35
Note ON: Time 124800, Note Name: B4, Velocity: 29
Note OFF: Time 124860, Note Name: B4
Note OFF: Time 124860, Note Name: D5
Note ON: Time 124860, Note Name: F5, Velocity: 30
Note OFF: Time 124920, Note Name: F5
Note ON: Time 124920, Note Name: G#5, Velocity: 30
Note OFF: Time 124980, Note Name: G#5
Note ON: Time 124980, Note Name: B5, Velocity: 30
Note OFF: Time 125040, Note Name: B5
Note ON: Time 125040, Note Name: A5, Velocity: 22
Note ON: Time 125040, Note Name: D6, Velocity: 32
Note OFF: Time 125100, Note Name: D6
Note ON: Time 125100, Note Name: C6, Velocity: 28
Note OFF: Time 125160, Note Name: C6
Note ON: Time 125160, Note Name: D6, Velocity: 28
Note OFF: Time 125220, Note Name: D6
Note ON: Time 125220, Note Name: C#6, Velocity: 28
Note OFF: Time 125280, Note Name: C#6
Note OFF: Time 125280, Note Name: A5
Note ON: Time 125280, Note Name: A5, Velocity: 24
Note ON: Time 125280, Note Name: D6, Velocity: 35
Note OFF: Time 125340, Note Name: D6
Note ON: Time 125340, Note Name: C#5, Velocity: 24
Note OFF: Time 125400, Note Name: C#5
Note ON: Time 125400, Note Name: D6, Velocity: 28
Note OFF: Time 125460, Note Name: D6
Note ON: Time 125460, Note Name: C#6, Velocity: 28
Note OFF: Time 125520, Note Name: C#6
Note OFF: Time 125520, Note Name: A5
Note ON: Time 125520, Note Name: C#5, Velocity: 22
Note ON: Time 125520, Note Name: A5, Velocity: 32
Note OFF: Time 125580, Note Name: C#5
Note ON: Time 125580, Note Name: C#6, Velocity: 28
Note OFF: Time 125640, Note Name: C#6
Note ON: Time 125640, Note Name: D6, Velocity: 28
Note OFF: Time 125700, Note Name: D6
Note ON: Time 125700, Note Name: C#6, Velocity: 28
Note OFF: Time 125760, Note Name: C#6
Note OFF: Time 125760, Note Name: A5
Note ON: Time 125760, Note Name: B5, Velocity: 28
Note OFF: Time 125820, Note Name: B5
Note ON: Time 125820, Note Name: A4, Velocity: 24
Note OFF: Time 125880, Note Name: A4
Note ON: Time 125880, Note Name: B5, Velocity: 28
Note OFF: Time 125940, Note Name: B5
Note ON: Time 125940, Note Name: A5, Velocity: 26
Note OFF: Time 126000, Note Name: A5
Note ON: Time 126000, Note Name: A4, Velocity: 28
Note OFF: Time 126060, Note Name: A4
Note ON: Time 126060, Note Name: A5, Velocity: 28
Note OFF: Time 126120, Note Name: A5
Note ON: Time 126120, Note Name: B5, Velocity: 28
Note OFF: Time 126180, Note Name: B5
Note ON: Time 126180, Note Name: A5, Velocity: 28
Note OFF: Time 126240, Note Name: A5
Note ON: Time 126240, Note Name: G#5, Velocity: 34
Note OFF: Time 126300, Note Name: G#5
Note ON: Time 126300, Note Name: F#4, Velocity: 24
Note OFF: Time 126360, Note Name: F#4
Note ON: Time 126360, Note Name: G#5, Velocity: 28
Note OFF: Time 126420, Note Name: G#5
Note ON: Time 126420, Note Name: F#5, Velocity: 28
Note OFF: Time 126480, Note Name: F#5
Note ON: Time 126480, Note Name: G#4, Velocity: 28
Note OFF: Time 126540, Note Name: G#4
Note ON: Time 126540, Note Name: G#5, Velocity: 28
Note OFF: Time 126600, Note Name: G#5
Note ON: Time 126600, Note Name: A5, Velocity: 26
Note OFF: Time 126660, Note Name: A5
Note ON: Time 126660, Note Name: G#5, Velocity: 26
Note OFF: Time 126720, Note Name: G#5
Note ON: Time 126720, Note Name: A4, Velocity: 31
Note OFF: Time 126780, Note Name: A4
Note ON: Time 126780, Note Name: A5, Velocity: 31
Note OFF: Time 126840, Note Name: A5
Note ON: Time 126840, Note Name: B5, Velocity: 29
Note OFF: Time 126900, Note Name: B5
Note ON: Time 126900, Note Name: A5, Velocity: 30
Note OFF: Time 126960, Note Name: A5
Note ON: Time 126960, Note Name: B5, Velocity: 39
Note OFF: Time 127020, Note Name: B5
Note ON: Time 127020, Note Name: A#4, Velocity: 28
Note OFF: Time 127080, Note Name: A#4
Note ON: Time 127080, Note Name: B5, Velocity: 35
Note OFF: Time 127140, Note Name: B5
Note ON: Time 127140, Note Name: A#5, Velocity: 35
Note OFF: Time 127200, Note Name: A#5
Note ON: Time 127200, Note Name: B4, Velocity: 36
Note OFF: Time 127260, Note Name: B4
Note ON: Time 127260, Note Name: B5, Velocity: 37
Note OFF: Time 127320, Note Name: B5
Note ON: Time 127320, Note Name: C#6, Velocity: 37
Note OFF: Time 127380, Note Name: C#6
Note ON: Time 127380, Note Name: B5, Velocity: 38
Note OFF: Time 127440, Note Name: B5
Note ON: Time 127440, Note Name: C#6, Velocity: 49
Note OFF: Time 127500, Note Name: C#6
Note ON: Time 127500, Note Name: B5, Velocity: 40
Note OFF: Time 127560, Note Name: B5
Note ON: Time 127560, Note Name: B4, Velocity: 34
Note OFF: Time 127620, Note Name: B4
Note ON: Time 127620, Note Name: B5, Velocity: 42
Note OFF: Time 127680, Note Name: B5
Note ON: Time 127680, Note Name: B4, Velocity: 42
Note OFF: Time 127740, Note Name: B4
Note ON: Time 127740, Note Name: B5, Velocity: 44
Note OFF: Time 127800, Note Name: B5
Note ON: Time 127800, Note Name: C#6, Velocity: 42
Note OFF: Time 127860, Note Name: C#6
Note ON: Time 127860, Note Name: B5, Velocity: 42
Note OFF: Time 127920, Note Name: B5
Note ON: Time 127920, Note Name: E6, Velocity: 55
Note OFF: Time 127980, Note Name: E6
Note ON: Time 127980, Note Name: D6, Velocity: 46
Note OFF: Time 128040, Note Name: D6
Note ON: Time 128040, Note Name: D5, Velocity: 40
Note OFF: Time 128100, Note Name: D5
Note ON: Time 128100, Note Name: D6, Velocity: 48
Note OFF: Time 128160, Note Name: D6
Note ON: Time 128160, Note Name: D5, Velocity: 50
Note OFF: Time 128220, Note Name: D5
Note ON: Time 128220, Note Name: D6, Velocity: 50
Note OFF: Time 128280, Note Name: D6
Note ON: Time 128280, Note Name: E6, Velocity: 51
Note OFF: Time 128340, Note Name: E6
Note ON: Time 128340, Note Name: D6, Velocity: 51
Note OFF: Time 128400, Note Name: D6
Note ON: Time 128400, Note Name: E6, Velocity: 60
Note OFF: Time 128460, Note Name: E6
Note ON: Time 128460, Note Name: D6, Velocity: 43
Note OFF: Time 128520, Note Name: D6
Note ON: Time 128520, Note Name: D5, Velocity: 52
Note OFF: Time 128580, Note Name: D5
Note ON: Time 128580, Note Name: D6, Velocity: 53
Note OFF: Time 128640, Note Name: D6
Note ON: Time 128640, Note Name: C#5, Velocity: 52
Note OFF: Time 128700, Note Name: C#5
Note ON: Time 128700, Note Name: C#6, Velocity: 54
Note OFF: Time 128760, Note Name: C#6
Note ON: Time 128760, Note Name: D6, Velocity: 54
Note OFF: Time 128820, Note Name: D6
Note ON: Time 128820, Note Name: C#6, Velocity: 55
Note OFF: Time 128880, Note Name: C#6
Note ON: Time 128880, Note Name: D6, Velocity: 68
Note OFF: Time 128940, Note Name: D6
Note ON: Time 128940, Note Name: C#6, Velocity: 56
Note OFF: Time 129000, Note Name: C#6
Note ON: Time 129000, Note Name: C#5, Velocity: 47
Note OFF: Time 129060, Note Name: C#5
Note ON: Time 129060, Note Name: C#6, Velocity: 56
Note OFF: Time 129120, Note Name: C#6
Note ON: Time 129120, Note Name: F5, Velocity: 43
Note ON: Time 129120, Note Name: B5, Velocity: 57
Note OFF: Time 129180, Note Name: B5
Note OFF: Time 129180, Note Name: F5
Note ON: Time 129180, Note Name: F6, Velocity: 57
Note OFF: Time 129240, Note Name: F6
Note ON: Time 129240, Note Name: F#6, Velocity: 58
Note OFF: Time 129300, Note Name: F#6
Note ON: Time 129300, Note Name: F6, Velocity: 58
Note OFF: Time 129360, Note Name: F6
Note ON: Time 129360, Note Name: G#6, Velocity: 70
Note OFF: Time 129420, Note Name: G#6
Note ON: Time 129420, Note Name: F#6, Velocity: 59
Note OFF: Time 129480, Note Name: F#6
Note ON: Time 129480, Note Name: A5, Velocity: 50
Note ON: Time 129480, Note Name: F#5, Velocity: 50
Note OFF: Time 129540, Note Name: F#5
Note OFF: Time 129540, Note Name: A5
Note ON: Time 129540, Note Name: F#6, Velocity: 60
Note OFF: Time 129600, Note Name: F#6
Note ON: Time 129600, Note Name: A6, Velocity: 68
Note OFF: Time 129660, Note Name: A6
Note ON: Time 129660, Note Name: G#6, Velocity: 61
Note OFF: Time 129720, Note Name: G#6
Note ON: Time 129720, Note Name: G#5, Velocity: 61
Note OFF: Time 129780, Note Name: G#5
Note ON: Time 129780, Note Name: G#6, Velocity: 61
Note OFF: Time 129840, Note Name: G#6
Note ON: Time 129900, Note Name: G#6, Velocity: 51
Note OFF: Time 129960, Note Name: G#6
Note ON: Time 129960, Note Name: G#5, Velocity: 60
Note OFF: Time 130020, Note Name: G#5
Note ON: Time 130020, Note Name: G#6, Velocity: 55
Note OFF: Time 130080, Note Name: G#6
Note ON: Time 130140, Note Name: G#6, Velocity: 54
Note OFF: Time 130200, Note Name: G#6
Note ON: Time 130200, Note Name: G#5, Velocity: 59
Note OFF: Time 130260, Note Name: G#5
Note ON: Time 130260, Note Name: G#6, Velocity: 55
Note OFF: Time 130320, Note Name: G#6
Note ON: Time 130380, Note Name: G#5, Velocity: 53
Note OFF: Time 130440, Note Name: G#5
Note ON: Time 130440, Note Name: E6, Velocity: 64
Note OFF: Time 130500, Note Name: E6
Note ON: Time 130500, Note Name: D6, Velocity: 53
Note OFF: Time 130560, Note Name: D6
Note ON: Time 130560, Note Name: C#6, Velocity: 61
Note OFF: Time 130620, Note Name: C#6
Note ON: Time 130620, Note Name: D6, Velocity: 61
Note OFF: Time 130680, Note Name: D6
Note ON: Time 130680, Note Name: G#5, Velocity: 57
Note OFF: Time 130740, Note Name: G#5
Note ON: Time 130740, Note Name: D6, Velocity: 57
Note OFF: Time 130800, Note Name: D6
Note ON: Time 130860, Note Name: D6, Velocity: 56
Note OFF: Time 130920, Note Name: D6
Note ON: Time 130920, Note Name: G#5, Velocity: 64
Note OFF: Time 130980, Note Name: G#5
Note ON: Time 130980, Note Name: D6, Velocity: 56
Note OFF: Time 131040, Note Name: D6
Note ON: Time 131040, Note Name: D5, Velocity: 61
Note OFF: Time 131100, Note Name: D5
Note ON: Time 131100, Note Name: C#6, Velocity: 54
Note OFF: Time 131160, Note Name: C#6
Note ON: Time 131160, Note Name: E6, Velocity: 58
Note OFF: Time 131220, Note Name: E6
Note ON: Time 131220, Note Name: D6, Velocity: 53
Note OFF: Time 131280, Note Name: D6
Note ON: Time 131280, Note Name: C#6, Velocity: 66
Note OFF: Time 131340, Note Name: C#6
Note ON: Time 131340, Note Name: D6, Velocity: 51
Note OFF: Time 131400, Note Name: D6
Note ON: Time 131400, Note Name: D5, Velocity: 61
Note OFF: Time 131460, Note Name: D5
Note ON: Time 131460, Note Name: D6, Velocity: 54
Note OFF: Time 131520, Note Name: D6
Note ON: Time 131520, Note Name: D5, Velocity: 63
Note OFF: Time 131580, Note Name: D5
Note ON: Time 131580, Note Name: D6, Velocity: 57
Note OFF: Time 131640, Note Name: D6
Note ON: Time 131640, Note Name: E6, Velocity: 64
Note OFF: Time 131700, Note Name: E6
Note ON: Time 131700, Note Name: D6, Velocity: 57
Note OFF: Time 131758, Note Name: D6
Note ON: Time 131760, Note Name: D6, Velocity: 66
Note OFF: Time 131820, Note Name: D6
Note ON: Time 131820, Note Name: C#6, Velocity: 53
Note OFF: Time 131880, Note Name: C#6
Note ON: Time 131880, Note Name: C#5, Velocity: 59
Note OFF: Time 131940, Note Name: C#5
Note ON: Time 131940, Note Name: C#6, Velocity: 51
Note OFF: Time 132000, Note Name: C#6
Note ON: Time 132000, Note Name: C6, Velocity: 50
Note OFF: Time 132060, Note Name: C6
Note ON: Time 132060, Note Name: C#6, Velocity: 49
Note OFF: Time 132120, Note Name: C#6
Note ON: Time 132120, Note Name: C#5, Velocity: 48
Note OFF: Time 132180, Note Name: C#5
Note ON: Time 132180, Note Name: C#6, Velocity: 47
Note OFF: Time 132240, Note Name: C#6
Note ON: Time 132240, Note Name: A#5, Velocity: 55
Note OFF: Time 132300, Note Name: A#5
Note ON: Time 132300, Note Name: B5, Velocity: 46
Note OFF: Time 132360, Note Name: B5
Note ON: Time 132360, Note Name: B4, Velocity: 37
Note OFF: Time 132420, Note Name: B4
Note ON: Time 132420, Note Name: B5, Velocity: 44
Note OFF: Time 132480, Note Name: B5
Note ON: Time 132480, Note Name: B4, Velocity: 50
Note OFF: Time 132540, Note Name: B4
Note ON: Time 132540, Note Name: B5, Velocity: 44
Note OFF: Time 132600, Note Name: B5
Note ON: Time 132600, Note Name: C#6, Velocity: 45
Note OFF: Time 132660, Note Name: C#6
Note ON: Time 132660, Note Name: B5, Velocity: 46
Note OFF: Time 132720, Note Name: B5
Note ON: Time 132720, Note Name: A#5, Velocity: 55
Note OFF: Time 132780, Note Name: A#5
Note ON: Time 132780, Note Name: B5, Velocity: 48
Note OFF: Time 132840, Note Name: B5
Note ON: Time 132840, Note Name: B4, Velocity: 43
Note OFF: Time 132900, Note Name: B4
Note ON: Time 132900, Note Name: B5, Velocity: 51
Note OFF: Time 132960, Note Name: B5
Note ON: Time 132960, Note Name: B4, Velocity: 56
Note OFF: Time 133020, Note Name: B4
Note ON: Time 133020, Note Name: B5, Velocity: 54
Note OFF: Time 133080, Note Name: B5
Note ON: Time 133080, Note Name: C#6, Velocity: 55
Note OFF: Time 133140, Note Name: C#6
Note ON: Time 133140, Note Name: B5, Velocity: 56
Note OFF: Time 133200, Note Name: B5
Note ON: Time 133260, Note Name: C#6, Velocity: 49
Note OFF: Time 133320, Note Name: C#6
Note ON: Time 133320, Note Name: B4, Velocity: 43
Note OFF: Time 133380, Note Name: B4
Note ON: Time 133380, Note Name: B5, Velocity: 49
Note OFF: Time 133440, Note Name: B5
Note ON: Time 133500, Note Name: B5, Velocity: 45
Note OFF: Time 133560, Note Name: B5
Note ON: Time 133560, Note Name: A4, Velocity: 43
Note OFF: Time 133620, Note Name: A4
Note ON: Time 133620, Note Name: A5, Velocity: 43
Note OFF: Time 133680, Note Name: A5
Note ON: Time 133740, Note Name: A5, Velocity: 49
Note OFF: Time 133800, Note Name: A5
Note ON: Time 133800, Note Name: G#4, Velocity: 47
Note OFF: Time 133860, Note Name: G#4
Note ON: Time 133860, Note Name: G#5, Velocity: 54
Note OFF: Time 133920, Note Name: G#5
Note ON: Time 133920, Note Name: G#4, Velocity: 54
Note OFF: Time 133980, Note Name: G#4
Note ON: Time 133980, Note Name: G#5, Velocity: 54
Note OFF: Time 134040, Note Name: G#5
Note ON: Time 134040, Note Name: G5, Velocity: 51
Note OFF: Time 134100, Note Name: G5
Note ON: Time 134100, Note Name: G#5, Velocity: 51
Note OFF: Time 134160, Note Name: G#5
Note ON: Time 134160, Note Name: A5, Velocity: 61
Note OFF: Time 134220, Note Name: A5
Note ON: Time 134220, Note Name: G#5, Velocity: 43
Note OFF: Time 134280, Note Name: G#5
Note ON: Time 134280, Note Name: G#4, Velocity: 52
Note OFF: Time 134340, Note Name: G#4
Note ON: Time 134340, Note Name: G#5, Velocity: 52
Note OFF: Time 134400, Note Name: G#5
Note ON: Time 134400, Note Name: G#4, Velocity: 50
Note OFF: Time 134460, Note Name: G#4
Note ON: Time 134460, Note Name: G#5, Velocity: 51
Note OFF: Time 134520, Note Name: G#5
Note ON: Time 134520, Note Name: A5, Velocity: 51
Note OFF: Time 134580, Note Name: A5
Note ON: Time 134580, Note Name: G#5, Velocity: 50
Note OFF: Time 134640, Note Name: G#5
Note ON: Time 134640, Note Name: A5, Velocity: 61
Note OFF: Time 134700, Note Name: A5
Note ON: Time 134700, Note Name: G#5, Velocity: 50
Note OFF: Time 134760, Note Name: G#5
Note ON: Time 134760, Note Name: G#4, Velocity: 41
Note OFF: Time 134820, Note Name: G#4
Note ON: Time 134820, Note Name: G#5, Velocity: 49
Note OFF: Time 134880, Note Name: G#5
Note ON: Time 134880, Note Name: A4, Velocity: 49
Note OFF: Time 134940, Note Name: A4
Note ON: Time 134940, Note Name: A5, Velocity: 48
Note OFF: Time 135000, Note Name: A5
Note ON: Time 135000, Note Name: B5, Velocity: 48
Note OFF: Time 135060, Note Name: B5
Note ON: Time 135060, Note Name: A5, Velocity: 48
Note OFF: Time 135120, Note Name: A5
Note ON: Time 135120, Note Name: G#5, Velocity: 57
Note OFF: Time 135180, Note Name: G#5
Note ON: Time 135180, Note Name: F#5, Velocity: 47
Note OFF: Time 135240, Note Name: F#5
Note ON: Time 135240, Note Name: F#4, Velocity: 39
Note OFF: Time 135300, Note Name: F#4
Note ON: Time 135300, Note Name: F#5, Velocity: 47
Note OFF: Time 135360, Note Name: F#5
Note ON: Time 135360, Note Name: F5, Velocity: 53
Note OFF: Time 135420, Note Name: F5
Note ON: Time 135420, Note Name: F#5, Velocity: 46
Note OFF: Time 135480, Note Name: F#5
Note ON: Time 135480, Note Name: F#4, Velocity: 45
Note OFF: Time 135540, Note Name: F#4
Note ON: Time 135540, Note Name: F#5, Velocity: 46
Note OFF: Time 135600, Note Name: F#5
Note ON: Time 135600, Note Name: G#5, Velocity: 54
Note OFF: Time 135660, Note Name: G#5
Note ON: Time 135660, Note Name: F#5, Velocity: 39
Note OFF: Time 135720, Note Name: F#5
Note ON: Time 135720, Note Name: F#4, Velocity: 46
Note OFF: Time 135780, Note Name: F#4
Note ON: Time 135780, Note Name: F#5, Velocity: 46
Note OFF: Time 135840, Note Name: F#5
Note ON: Time 135840, Note Name: F5, Velocity: 45
Note OFF: Time 135900, Note Name: F5
Note ON: Time 135900, Note Name: F#5, Velocity: 41
Note OFF: Time 135960, Note Name: F#5
Note ON: Time 135960, Note Name: F#4, Velocity: 46
Note OFF: Time 136020, Note Name: F#4
Note ON: Time 136020, Note Name: F#5, Velocity: 40
Note OFF: Time 136080, Note Name: F#5
Note ON: Time 136140, Note Name: F#5, Velocity: 46
Note OFF: Time 136200, Note Name: F#5
Note ON: Time 136200, Note Name: F4, Velocity: 39
Note OFF: Time 136260, Note Name: F4
Note ON: Time 136260, Note Name: F5, Velocity: 46
Note OFF: Time 136320, Note Name: F5
Note ON: Time 136380, Note Name: A5, Velocity: 46
Note OFF: Time 136440, Note Name: A5
Note ON: Time 136440, Note Name: G#4, Velocity: 42
Note OFF: Time 136500, Note Name: G#4
Note ON: Time 136500, Note Name: G#5, Velocity: 46
Note OFF: Time 136560, Note Name: G#5
Note ON: Time 136620, Note Name: C#6, Velocity: 46
Note OFF: Time 136680, Note Name: C#6
Note ON: Time 136680, Note Name: B4, Velocity: 39
Note OFF: Time 136740, Note Name: B4
Note ON: Time 136740, Note Name: B5, Velocity: 46
Note OFF: Time 136800, Note Name: B5
Note ON: Time 136800, Note Name: C#6, Velocity: 46
Note OFF: Time 136860, Note Name: C#6
Note ON: Time 136860, Note Name: B4, Velocity: 39
Note OFF: Time 136920, Note Name: B4
Note ON: Time 136920, Note Name: C#6, Velocity: 46
Note OFF: Time 136980, Note Name: C#6
Note ON: Time 136980, Note Name: B5, Velocity: 46
Note OFF: Time 137040, Note Name: B5
Note ON: Time 137040, Note Name: A#5, Velocity: 54
Note OFF: Time 137100, Note Name: A#5
Note ON: Time 137100, Note Name: B5, Velocity: 46
Note OFF: Time 137160, Note Name: B5
Note ON: Time 137160, Note Name: B4, Velocity: 37
Note OFF: Time 137220, Note Name: B4
Note ON: Time 137220, Note Name: B5, Velocity: 46
Note OFF: Time 137278, Note Name: B5
Note ON: Time 137280, Note Name: B5, Velocity: 45
Note OFF: Time 137340, Note Name: B5
Note ON: Time 137340, Note Name: A5, Velocity: 46
Note OFF: Time 137400, Note Name: A5
Note ON: Time 137400, Note Name: A4, Velocity: 41
Note OFF: Time 137460, Note Name: A4
Note ON: Time 137460, Note Name: A5, Velocity: 46
Note OFF: Time 137520, Note Name: A5
Note ON: Time 137520, Note Name: B5, Velocity: 57
Note OFF: Time 137580, Note Name: B5
Note ON: Time 137580, Note Name: A4, Velocity: 39
Note OFF: Time 137640, Note Name: A4
Note ON: Time 137640, Note Name: B5, Velocity: 44
Note OFF: Time 137700, Note Name: B5
Note ON: Time 137700, Note Name: A5, Velocity: 46
Note OFF: Time 137758, Note Name: A5
Note ON: Time 137760, Note Name: A5, Velocity: 46
Note OFF: Time 137820, Note Name: A5
Note ON: Time 137820, Note Name: G#4, Velocity: 39
Note OFF: Time 137880, Note Name: G#4
Note ON: Time 137880, Note Name: A5, Velocity: 43
Note OFF: Time 137940, Note Name: A5
Note ON: Time 137940, Note Name: G#5, Velocity: 43
Note OFF: Time 137998, Note Name: G#5
Note ON: Time 138000, Note Name: G#5, Velocity: 55
Note OFF: Time 138060, Note Name: G#5
Note ON: Time 138060, Note Name: F#4, Velocity: 38
Note OFF: Time 138120, Note Name: F#4
Note ON: Time 138120, Note Name: G#5, Velocity: 39
Note OFF: Time 138180, Note Name: G#5
Note ON: Time 138180, Note Name: F#5, Velocity: 46
Note OFF: Time 138240, Note Name: F#5
Note ON: Time 138240, Note Name: F5, Velocity: 46
Note OFF: Time 138300, Note Name: F5
Note ON: Time 138300, Note Name: F#5, Velocity: 46
Note OFF: Time 138360, Note Name: F#5
Note ON: Time 138360, Note Name: F#4, Velocity: 41
Note OFF: Time 138420, Note Name: F#4
Note ON: Time 138420, Note Name: F#5, Velocity: 46
Note OFF: Time 138480, Note Name: F#5
Note ON: Time 138480, Note Name: G#5, Velocity: 54
Note OFF: Time 138540, Note Name: G#5
Note ON: Time 138540, Note Name: F#5, Velocity: 45
Note OFF: Time 138600, Note Name: F#5
Note ON: Time 138600, Note Name: F#4, Velocity: 38
Note OFF: Time 138660, Note Name: F#4
Note ON: Time 138660, Note Name: F#5, Velocity: 46
Note OFF: Time 138720, Note Name: F#5
Note ON: Time 138720, Note Name: F4, Velocity: 45
Note OFF: Time 138780, Note Name: F4
Note ON: Time 138780, Note Name: F5, Velocity: 42
Note OFF: Time 138840, Note Name: F5
Note ON: Time 138840, Note Name: F#5, Velocity: 46
Note OFF: Time 138900, Note Name: F#5
Note ON: Time 138900, Note Name: F5, Velocity: 46
Note OFF: Time 138960, Note Name: F5
Note ON: Time 138960, Note Name: F#5, Velocity: 57
Note OFF: Time 139020, Note Name: F#5
Note ON: Time 139020, Note Name: F4, Velocity: 39
Note OFF: Time 139080, Note Name: F4
Note ON: Time 139080, Note Name: F#5, Velocity: 45
Note OFF: Time 139140, Note Name: F#5
Note ON: Time 139140, Note Name: F5, Velocity: 46
Note OFF: Time 139200, Note Name: F5
Note ON: Time 139200, Note Name: G#4, Velocity: 51
Note OFF: Time 139260, Note Name: G#4
Note ON: Time 139260, Note Name: G#5, Velocity: 47
Note OFF: Time 139320, Note Name: G#5
Note ON: Time 139320, Note Name: A5, Velocity: 47
Note OFF: Time 139380, Note Name: A5
Note ON: Time 139380, Note Name: G#5, Velocity: 48
Note OFF: Time 139440, Note Name: G#5
Note ON: Time 139440, Note Name: B5, Velocity: 59
Note OFF: Time 139500, Note Name: B5
Note ON: Time 139500, Note Name: B4, Velocity: 42
Note OFF: Time 139560, Note Name: B4
Note ON: Time 139560, Note Name: D5, Velocity: 51
Note OFF: Time 139620, Note Name: D5
Note ON: Time 139620, Note Name: D6, Velocity: 53
Note OFF: Time 139680, Note Name: D6
Note ON: Time 139680, Note Name: C#6, Velocity: 58
Note OFF: Time 139740, Note Name: C#6
Note ON: Time 139740, Note Name: D6, Velocity: 55
Note OFF: Time 139800, Note Name: D6
Note ON: Time 139800, Note Name: D5, Velocity: 50
Note OFF: Time 139860, Note Name: D5
Note ON: Time 139860, Note Name: D6, Velocity: 57
Note OFF: Time 139920, Note Name: D6
Note ON: Time 139920, Note Name: E6, Velocity: 68
Note OFF: Time 139980, Note Name: E6
Note ON: Time 139980, Note Name: D6, Velocity: 58
Note OFF: Time 140040, Note Name: D6
Note ON: Time 140040, Note Name: D5, Velocity: 50
Note OFF: Time 140100, Note Name: D5
Note ON: Time 140100, Note Name: D6, Velocity: 61
Note OFF: Time 140158, Note Name: D6
Note ON: Time 140160, Note Name: D6, Velocity: 60
Note OFF: Time 140220, Note Name: D6
Note ON: Time 140220, Note Name: C#5, Velocity: 52
Note OFF: Time 140280, Note Name: C#5
Note ON: Time 140280, Note Name: D6, Velocity: 59
Note OFF: Time 140340, Note Name: D6
Note ON: Time 140340, Note Name: C#6, Velocity: 58
Note OFF: Time 140400, Note Name: C#6
Note ON: Time 140460, Note Name: D6, Velocity: 62
Note OFF: Time 140520, Note Name: D6
Note ON: Time 140520, Note Name: C#5, Velocity: 50
Note OFF: Time 140580, Note Name: C#5
Note ON: Time 140580, Note Name: C#6, Velocity: 54
Note OFF: Time 140640, Note Name: C#6
Note ON: Time 140700, Note Name: C#6, Velocity: 56
Note OFF: Time 140760, Note Name: C#6
Note ON: Time 140760, Note Name: B4, Velocity: 45
Note OFF: Time 140820, Note Name: B4
Note ON: Time 140820, Note Name: B5, Velocity: 49
Note OFF: Time 140880, Note Name: B5
Note ON: Time 140940, Note Name: B5, Velocity: 50
Note OFF: Time 141000, Note Name: B5
Note ON: Time 141000, Note Name: A4, Velocity: 40
Note OFF: Time 141060, Note Name: A4
Note ON: Time 141060, Note Name: A5, Velocity: 47
Note OFF: Time 141120, Note Name: A5
Note ON: Time 141120, Note Name: B5, Velocity: 57
Note OFF: Time 141180, Note Name: B5
Note ON: Time 141180, Note Name: A4, Velocity: 45
Note OFF: Time 141240, Note Name: A4
Note ON: Time 141240, Note Name: B5, Velocity: 54
Note OFF: Time 141300, Note Name: B5
Note ON: Time 141300, Note Name: A5, Velocity: 51
Note OFF: Time 141360, Note Name: A5
Note ON: Time 141360, Note Name: G#5, Velocity: 63
Note OFF: Time 141420, Note Name: G#5
Note ON: Time 141420, Note Name: A5, Velocity: 52
Note OFF: Time 141480, Note Name: A5
Note ON: Time 141480, Note Name: A4, Velocity: 42
Note OFF: Time 141540, Note Name: A4
Note ON: Time 141540, Note Name: A5, Velocity: 51
Note OFF: Time 141600, Note Name: A5
Note ON: Time 141600, Note Name: A5, Velocity: 49
Note OFF: Time 141660, Note Name: A5
Note ON: Time 141660, Note Name: G#4, Velocity: 42
Note OFF: Time 141720, Note Name: G#4
Note ON: Time 141720, Note Name: A5, Velocity: 48
Note OFF: Time 141780, Note Name: A5
Note ON: Time 141780, Note Name: G#5, Velocity: 47
Note OFF: Time 141840, Note Name: G#5
Note ON: Time 141900, Note Name: G#5, Velocity: 50
Note OFF: Time 141960, Note Name: G#5
Note ON: Time 141960, Note Name: G#4, Velocity: 41
Note OFF: Time 142020, Note Name: G#4
Note ON: Time 142020, Note Name: G#5, Velocity: 49
Note OFF: Time 142080, Note Name: G#5
Note ON: Time 142140, Note Name: G#6, Velocity: 48
Note OFF: Time 142200, Note Name: G#6
Note ON: Time 142200, Note Name: G#5, Velocity: 53
Note OFF: Time 142260, Note Name: G#5
Note ON: Time 142260, Note Name: G#6, Velocity: 48
Note OFF: Time 142320, Note Name: G#6
Note ON: Time 142380, Note Name: G6, Velocity: 44
Note OFF: Time 142440, Note Name: G6
Note ON: Time 142440, Note Name: G5, Velocity: 51
Note OFF: Time 142500, Note Name: G5
Note ON: Time 142500, Note Name: G6, Velocity: 47
Note OFF: Time 142560, Note Name: G6
Note ON: Time 142620, Note Name: G6, Velocity: 46
Note OFF: Time 142680, Note Name: G6
Note ON: Time 142680, Note Name: G5, Velocity: 52
Note OFF: Time 142740, Note Name: G5
Note ON: Time 142740, Note Name: G6, Velocity: 46
Note OFF: Time 142800, Note Name: G6
Note ON: Time 142860, Note Name: G6, Velocity: 45
Note OFF: Time 142920, Note Name: G6
Note ON: Time 142920, Note Name: B5, Velocity: 51
Note OFF: Time 142980, Note Name: B5
Note ON: Time 142980, Note Name: B6, Velocity: 45
Note OFF: Time 143040, Note Name: B6
Note ON: Time 143100, Note Name: B6, Velocity: 44
Note OFF: Time 143160, Note Name: B6
Note ON: Time 143160, Note Name: A5, Velocity: 48
Note OFF: Time 143220, Note Name: A5
Note ON: Time 143220, Note Name: A6, Velocity: 43
Note OFF: Time 143280, Note Name: A6
Note ON: Time 143340, Note Name: A6, Velocity: 43
Note OFF: Time 143400, Note Name: A6
Note ON: Time 143400, Note Name: G5, Velocity: 49
Note OFF: Time 143460, Note Name: G5
Note ON: Time 143460, Note Name: G6, Velocity: 45
Note OFF: Time 143520, Note Name: G6
Note ON: Time 143580, Note Name: G6, Velocity: 48
Note OFF: Time 143640, Note Name: G6
Note ON: Time 143640, Note Name: G5, Velocity: 57
Note OFF: Time 143700, Note Name: G5
Note ON: Time 143700, Note Name: G6, Velocity: 51
Note OFF: Time 143760, Note Name: G6
Note ON: Time 143820, Note Name: G6, Velocity: 55
Note OFF: Time 143880, Note Name: G6
Note ON: Time 143880, Note Name: G5, Velocity: 61
Note OFF: Time 143940, Note Name: G5
Note ON: Time 143940, Note Name: F#5, Velocity: 57
Note ON: Time 143940, Note Name: F#6, Velocity: 57
Note OFF: Time 144000, Note Name: F#6
Note OFF: Time 144000, Note Name: F#5
Note ON: Time 144060, Note Name: F#6, Velocity: 60
Note OFF: Time 144120, Note Name: F#6
Note ON: Time 144120, Note Name: E5, Velocity: 55
Note OFF: Time 144180, Note Name: E5
Note ON: Time 144180, Note Name: E6, Velocity: 63
Note OFF: Time 144240, Note Name: E6
Note ON: Time 144300, Note Name: E6, Velocity: 60
Note OFF: Time 144360, Note Name: E6
Note ON: Time 144360, Note Name: E5, Velocity: 53
Note OFF: Time 144420, Note Name: E5
Note ON: Time 144420, Note Name: E6, Velocity: 57
Note OFF: Time 144480, Note Name: E6
Note ON: Time 144540, Note Name: E6, Velocity: 53
Note OFF: Time 144600, Note Name: E6
Note ON: Time 144600, Note Name: E5, Velocity: 57
Note OFF: Time 144660, Note Name: E5
Note ON: Time 144660, Note Name: F#5, Velocity: 50
Note ON: Time 144660, Note Name: F#6, Velocity: 50
Note OFF: Time 144720, Note Name: F#6
Note OFF: Time 144720, Note Name: F#5
Note ON: Time 144780, Note Name: F#6, Velocity: 47
Note OFF: Time 144840, Note Name: F#6
Note ON: Time 144840, Note Name: G5, Velocity: 54
Note OFF: Time 144900, Note Name: G5
Note ON: Time 144900, Note Name: G6, Velocity: 44
Note OFF: Time 144960, Note Name: G6
Note ON: Time 145020, Note Name: G6, Velocity: 43
Note OFF: Time 145080, Note Name: G6
Note ON: Time 145080, Note Name: G5, Velocity: 50
Note OFF: Time 145140, Note Name: G5
Note ON: Time 145140, Note Name: G6, Velocity: 43
Note OFF: Time 145200, Note Name: G6
Note ON: Time 145260, Note Name: G6, Velocity: 43
Note OFF: Time 145320, Note Name: G6
Note ON: Time 145320, Note Name: G5, Velocity: 51
Note OFF: Time 145380, Note Name: G5
Note ON: Time 145380, Note Name: F#5, Velocity: 43
Note ON: Time 145380, Note Name: F#6, Velocity: 43
Note OFF: Time 145440, Note Name: F#6
Note OFF: Time 145440, Note Name: F#5
Note ON: Time 145440, Note Name: F#6, Velocity: 52
Note OFF: Time 145500, Note Name: F#6
Note ON: Time 145500, Note Name: F#5, Velocity: 43
Note OFF: Time 145560, Note Name: F#5
Note ON: Time 145560, Note Name: F#5, Velocity: 43
Note OFF: Time 145620, Note Name: F#5
Note ON: Time 145620, Note Name: F#6, Velocity: 43
Note OFF: Time 145680, Note Name: F#6
Note ON: Time 145680, Note Name: A6, Velocity: 50
Note OFF: Time 145740, Note Name: A6
Note ON: Time 145740, Note Name: A5, Velocity: 36
Note OFF: Time 145800, Note Name: A5
Note ON: Time 145800, Note Name: A5, Velocity: 43
Note OFF: Time 145860, Note Name: A5
Note ON: Time 145860, Note Name: A6, Velocity: 43
Note OFF: Time 145920, Note Name: A6
Note ON: Time 145920, Note Name: C#7, Velocity: 50
Note OFF: Time 145980, Note Name: C#7
Note ON: Time 145980, Note Name: C#6, Velocity: 43
Note OFF: Time 146040, Note Name: C#6
Note ON: Time 146040, Note Name: C#6, Velocity: 49
Note OFF: Time 146100, Note Name: C#6
Note ON: Time 146100, Note Name: C#7, Velocity: 43
Note OFF: Time 146160, Note Name: C#7
Note ON: Time 146220, Note Name: C#7, Velocity: 43
Note OFF: Time 146280, Note Name: C#7
Note ON: Time 146280, Note Name: C#6, Velocity: 49
Note OFF: Time 146340, Note Name: C#6
Note ON: Time 146340, Note Name: C#7, Velocity: 45
Note OFF: Time 146400, Note Name: C#7
Note ON: Time 146460, Note Name: C#6, Velocity: 48
Note OFF: Time 146520, Note Name: C#6
Note ON: Time 146520, Note Name: C#5, Velocity: 45
Note OFF: Time 146580, Note Name: C#5
Note ON: Time 146580, Note Name: C#6, Velocity: 51
Note OFF: Time 146640, Note Name: C#6
Note ON: Time 146700, Note Name: C#7, Velocity: 55
Note OFF: Time 146760, Note Name: C#7
Note ON: Time 146760, Note Name: C#6, Velocity: 65
Note OFF: Time 146820, Note Name: C#6
Note ON: Time 146820, Note Name: C#7, Velocity: 57
Note OFF: Time 146880, Note Name: C#7
Note ON: Time 146940, Note Name: C#6, Velocity: 60
Note OFF: Time 147000, Note Name: C#6
Note ON: Time 147000, Note Name: C#5, Velocity: 48
Note OFF: Time 147060, Note Name: C#5
Note ON: Time 147060, Note Name: C#6, Velocity: 63
Note OFF: Time 147120, Note Name: C#6
Note ON: Time 147180, Note Name: C#7, Velocity: 53
Note OFF: Time 147240, Note Name: C#7
Note ON: Time 147240, Note Name: C#6, Velocity: 61
Note OFF: Time 147300, Note Name: C#6
Note ON: Time 147300, Note Name: C#7, Velocity: 59
Note OFF: Time 147360, Note Name: C#7
Note ON: Time 147360, Note Name: A6, Velocity: 55
Note OFF: Time 147420, Note Name: A6
Note ON: Time 147420, Note Name: A5, Velocity: 54
Note OFF: Time 147480, Note Name: A5
Note ON: Time 147480, Note Name: A5, Velocity: 52
Note OFF: Time 147540, Note Name: A5
Note ON: Time 147540, Note Name: A6, Velocity: 49
Note OFF: Time 147600, Note Name: A6
Note ON: Time 147600, Note Name: A6, Velocity: 52
Note OFF: Time 147660, Note Name: A6
Note ON: Time 147660, Note Name: A5, Velocity: 41
Note OFF: Time 147720, Note Name: A5
Note ON: Time 147720, Note Name: A5, Velocity: 47
Note OFF: Time 147780, Note Name: A5
Note ON: Time 147780, Note Name: A6, Velocity: 44
Note OFF: Time 147840, Note Name: A6
Note ON: Time 147840, Note Name: F#6, Velocity: 52
Note OFF: Time 147900, Note Name: F#6
Note ON: Time 147900, Note Name: F#5, Velocity: 47
Note OFF: Time 147960, Note Name: F#5
Note ON: Time 147960, Note Name: F#5, Velocity: 47
Note OFF: Time 148020, Note Name: F#5
Note ON: Time 148020, Note Name: F#4, Velocity: 46
Note OFF: Time 148080, Note Name: F#4
Note ON: Time 148080, Note Name: F5, Velocity: 50
Note ON: Time 148080, Note Name: G#5, Velocity: 59
Note ON: Time 148080, Note Name: B4, Velocity: 50
Note OFF: Time 148140, Note Name: B4
Note OFF: Time 148140, Note Name: G#5
Note OFF: Time 148140, Note Name: F5
Note ON: Time 148140, Note Name: G#4, Velocity: 56
Note OFF: Time 148200, Note Name: G#4
Note ON: Time 148200, Note Name: F#5, Velocity: 50
Note ON: Time 148200, Note Name: A5, Velocity: 59
Note ON: Time 148200, Note Name: C#5, Velocity: 50
Note OFF: Time 148260, Note Name: C#5
Note OFF: Time 148260, Note Name: A5
Note OFF: Time 148260, Note Name: F#5
Note ON: Time 148260, Note Name: A4, Velocity: 62
Note OFF: Time 148320, Note Name: A4
Note ON: Time 148320, Note Name: G#5, Velocity: 55
Note ON: Time 148320, Note Name: B5, Velocity: 65
Note ON: Time 148320, Note Name: B4, Velocity: 55
Note OFF: Time 148560, Note Name: B4
Note OFF: Time 148560, Note Name: B5
Note OFF: Time 148560, Note Name: G#5
Note ON: Time 148560, Note Name: G#4, Velocity: 50
Note ON: Time 148560, Note Name: B4, Velocity: 59
Note ON: Time 148560, Note Name: D4, Velocity: 50
Note OFF: Time 148800, Note Name: D4
Note OFF: Time 148800, Note Name: B4
Note OFF: Time 148800, Note Name: G#4
Note ON: Time 148800, Note Name: C#4, Velocity: 50
Note ON: Time 148800, Note Name: F#4, Velocity: 50
Note ON: Time 148800, Note Name: A4, Velocity: 59
Note OFF: Time 149040, Note Name: A4
Note OFF: Time 149040, Note Name: F#4
Note OFF: Time 149040, Note Name: C#4
Note ON: Time 149040, Note Name: B3, Velocity: 51
Note ON: Time 149040, Note Name: D4, Velocity: 51
Note ON: Time 149040, Note Name: A4, Velocity: 65
Note ON: Time 149040, Note Name: F4, Velocity: 55
Note OFF: Time 149280, Note Name: F4
Note OFF: Time 149280, Note Name: B3
Note OFF: Time 149280, Note Name: D4
Note OFF: Time 149280, Note Name: A4
Note ON: Time 149280, Note Name: D4, Velocity: 50
Note ON: Time 149280, Note Name: B3, Velocity: 50
Note ON: Time 149280, Note Name: G#4, Velocity: 59
Note ON: Time 149280, Note Name: F4, Velocity: 59
Note OFF: Time 149520, Note Name: F4
Note OFF: Time 149520, Note Name: D4
Note OFF: Time 149520, Note Name: B3
Note OFF: Time 149520, Note Name: G#4
Note ON: Time 149520, Note Name: D#4, Velocity: 50
Note ON: Time 149520, Note Name: A3, Velocity: 50
Note ON: Time 149520, Note Name: F#4, Velocity: 59
Note OFF: Time 149760, Note Name: F#4
Note OFF: Time 149760, Note Name: A3
Note OFF: Time 149760, Note Name: D#4
Note ON: Time 149760, Note Name: D#4, Velocity: 56
Note ON: Time 149760, Note Name: F#4, Velocity: 66
Note ON: Time 149760, Note Name: A3, Velocity: 56
Note OFF: Time 150120, Note Name: D#4
Note ON: Time 150120, Note Name: C4, Velocity: 55
Note OFF: Time 150240, Note Name: C4
Note ON: Time 150240, Note Name: C#4, Velocity: 55
Note OFF: Time 150360, Note Name: C#4
Note ON: Time 150360, Note Name: C4, Velocity: 55
Note OFF: Time 150480, Note Name: C4
Note OFF: Time 150480, Note Name: A3
Note OFF: Time 150480, Note Name: F#4
Note ON: Time 150480, Note Name: G#3, Velocity: 50
Note ON: Time 150480, Note Name: F4, Velocity: 59
Note ON: Time 150480, Note Name: C#4, Velocity: 50
Note ON: Time 150840, Note Name: G#4, Velocity: 57
Note OFF: Time 150960, Note Name: G#4
Note ON: Time 150960, Note Name: B4, Velocity: 60
Note OFF: Time 151080, Note Name: B4
Note ON: Time 151080, Note Name: D5, Velocity: 63
Note OFF: Time 151200, Note Name: D5
Note OFF: Time 151200, Note Name: G#3
Note OFF: Time 151200, Note Name: F4
Note OFF: Time 151200, Note Name: C#4
Note ON: Time 151200, Note Name: G#4, Velocity: 55
Note ON: Time 151200, Note Name: D4, Velocity: 46
Note ON: Time 151200, Note Name: D5, Velocity: 65
Note ON: Time 151200, Note Name: F4, Velocity: 46
Note ON: Time 151200, Note Name: B4, Velocity: 55
Note OFF: Time 151438, Note Name: B4
Note OFF: Time 151438, Note Name: D5
Note OFF: Time 151438, Note Name: G#4
Note OFF: Time 151438, Note Name: D4
Note OFF: Time 151438, Note Name: F4
Note ON: Time 151440, Note Name: G#4, Velocity: 50
Note ON: Time 151440, Note Name: D5, Velocity: 59
Note ON: Time 151440, Note Name: D4, Velocity: 50
Note ON: Time 151440, Note Name: B4, Velocity: 50
Note OFF: Time 151678, Note Name: B4
Note OFF: Time 151678, Note Name: G#4
Note OFF: Time 151678, Note Name: D5
Note OFF: Time 151678, Note Name: D4
Note ON: Time 151680, Note Name: C#4, Velocity: 50
Note ON: Time 151680, Note Name: C#5, Velocity: 59
Note ON: Time 151680, Note Name: A4, Velocity: 50
Note OFF: Time 151918, Note Name: A4
Note OFF: Time 151918, Note Name: C#5
Note OFF: Time 151918, Note Name: C#4
Note ON: Time 151920, Note Name: G#4, Velocity: 55
Note ON: Time 151920, Note Name: C#5, Velocity: 65
Note ON: Time 151920, Note Name: F4, Velocity: 55
Note ON: Time 151920, Note Name: D4, Velocity: 55
Note OFF: Time 152158, Note Name: D4
Note OFF: Time 152158, Note Name: G#4
Note OFF: Time 152158, Note Name: C#5
Note OFF: Time 152158, Note Name: F4
Note ON: Time 152160, Note Name: G#4, Velocity: 50
Note ON: Time 152160, Note Name: B4, Velocity: 59
Note ON: Time 152160, Note Name: F4, Velocity: 59
Note ON: Time 152160, Note Name: D4, Velocity: 50
Note OFF: Time 152398, Note Name: D4
Note OFF: Time 152398, Note Name: G#4
Note OFF: Time 152398, Note Name: B4
Note OFF: Time 152398, Note Name: F4
Note ON: Time 152400, Note Name: D#4, Velocity: 50
Note ON: Time 152400, Note Name: F#4, Velocity: 50
Note ON: Time 152400, Note Name: A4, Velocity: 59
Note OFF: Time 152638, Note Name: A4
Note OFF: Time 152638, Note Name: F#4
Note OFF: Time 152638, Note Name: D#4
Note ON: Time 152640, Note Name: F#4, Velocity: 56
Note ON: Time 152640, Note Name: A4, Velocity: 66
Note ON: Time 152880, Note Name: C4, Velocity: 55
Note OFF: Time 153000, Note Name: C4
Note ON: Time 153000, Note Name: C#4, Velocity: 55
Note OFF: Time 153120, Note Name: C#4
Note OFF: Time 153120, Note Name: A4
Note OFF: Time 153120, Note Name: F#4
Note ON: Time 153120, Note Name: F4, Velocity: 51
Note ON: Time 153120, Note Name: G#4, Velocity: 51
Note ON: Time 153120, Note Name: C4, Velocity: 55
Note OFF: Time 153240, Note Name: C4
Note ON: Time 153240, Note Name: C#4, Velocity: 55
Note OFF: Time 153360, Note Name: C#4
Note OFF: Time 153360, Note Name: G#4
Note OFF: Time 153360, Note Name: F4
Note ON: Time 153360, Note Name: C#4, Velocity: 50
Note ON: Time 153360, Note Name: G#3, Velocity: 50
Note ON: Time 153360, Note Name: F4, Velocity: 50
Note ON: Time 153360, Note Name: G#4, Velocity: 59
Note OFF: Time 153600, Note Name: G#4
Note OFF: Time 153600, Note Name: C#4
Note OFF: Time 153600, Note Name: G#3
Note OFF: Time 153600, Note Name: F4
Note ON: Time 153600, Note Name: G3, Velocity: 33
Note ON: Time 153600, Note Name: A#3, Velocity: 33
Note ON: Time 153600, Note Name: E4, Velocity: 39
Note ON: Time 153600, Note Name: G4, Velocity: 48
Note OFF: Time 153840, Note Name: E4
Note OFF: Time 153840, Note Name: G3
Note OFF: Time 153840, Note Name: A#3
Note ON: Time 153840, Note Name: G3, Velocity: 33
Note ON: Time 153840, Note Name: B3, Velocity: 33
Note ON: Time 153840, Note Name: D4, Velocity: 39
Note OFF: Time 154020, Note Name: G4
Note ON: Time 154020, Note Name: G4, Velocity: 47
Note OFF: Time 154080, Note Name: G4
Note OFF: Time 154080, Note Name: D4
Note OFF: Time 154080, Note Name: B3
Note OFF: Time 154080, Note Name: G3
Note ON: Time 154080, Note Name: B5, Velocity: 63
Note ON: Time 154320, Note Name: B4, Velocity: 47
Note OFF: Time 154560, Note Name: B4
Note OFF: Time 154560, Note Name: B5
Note ON: Time 154560, Note Name: A4, Velocity: 37
Note ON: Time 154560, Note Name: A5, Velocity: 50
Note OFF: Time 154798, Note Name: A5
Note OFF: Time 154798, Note Name: A4
Note ON: Time 154800, Note Name: A4, Velocity: 40
Note ON: Time 154800, Note Name: A5, Velocity: 55
Note OFF: Time 155040, Note Name: A5
Note OFF: Time 155040, Note Name: A4
Note ON: Time 155040, Note Name: G4, Velocity: 35
Note ON: Time 155040, Note Name: G5, Velocity: 48
Note OFF: Time 155280, Note Name: G5
Note OFF: Time 155280, Note Name: G4
Note ON: Time 155280, Note Name: G4, Velocity: 36
Note ON: Time 155280, Note Name: B4, Velocity: 36
Note ON: Time 155280, Note Name: G5, Velocity: 49
Note OFF: Time 155400, Note Name: G5
Note OFF: Time 155400, Note Name: B4
Note ON: Time 155400, Note Name: D5, Velocity: 33
Note ON: Time 155400, Note Name: F#5, Velocity: 44
Note OFF: Time 155520, Note Name: F#5
Note OFF: Time 155520, Note Name: D5
Note OFF: Time 155520, Note Name: G4
Note ON: Time 155520, Note Name: G4, Velocity: 40
Note ON: Time 155520, Note Name: D5, Velocity: 48
Note ON: Time 155520, Note Name: F#5, Velocity: 55
Note OFF: Time 155760, Note Name: F#5
Note OFF: Time 155760, Note Name: D5
Note OFF: Time 155760, Note Name: G4
Note ON: Time 155760, Note Name: G4, Velocity: 36
Note ON: Time 155760, Note Name: C5, Velocity: 36
Note ON: Time 155760, Note Name: E5, Velocity: 49
Note OFF: Time 156000, Note Name: E5
Note OFF: Time 156000, Note Name: C5
Note OFF: Time 156000, Note Name: G4
Note ON: Time 156000, Note Name: E5, Velocity: 48
Note ON: Time 156000, Note Name: C5, Velocity: 35
Note ON: Time 156000, Note Name: G4, Velocity: 35
Note OFF: Time 156120, Note Name: G4
Note OFF: Time 156120, Note Name: C5
Note OFF: Time 156120, Note Name: E5
Note ON: Time 156120, Note Name: D#5, Velocity: 38
Note ON: Time 156120, Note Name: F#5, Velocity: 51
Note ON: Time 156120, Note Name: A4, Velocity: 38
Note ON: Time 156120, Note Name: C5, Velocity: 38
Note OFF: Time 156240, Note Name: C5
Note OFF: Time 156240, Note Name: D#5
Note OFF: Time 156240, Note Name: F#5
Note OFF: Time 156240, Note Name: A4
Note ON: Time 156240, Note Name: D#5, Velocity: 40
Note ON: Time 156240, Note Name: F#5, Velocity: 55
Note ON: Time 156240, Note Name: A4, Velocity: 40
Note ON: Time 156240, Note Name: C5, Velocity: 40
Note OFF: Time 156360, Note Name: C5
Note OFF: Time 156360, Note Name: D#5
Note OFF: Time 156360, Note Name: F#5
Note OFF: Time 156360, Note Name: A4
Note ON: Time 156360, Note Name: G5, Velocity: 50
Note ON: Time 156360, Note Name: D5, Velocity: 37
Note ON: Time 156360, Note Name: B4, Velocity: 37
Note OFF: Time 156480, Note Name: B4
Note OFF: Time 156480, Note Name: D5
Note OFF: Time 156480, Note Name: G5
Note ON: Time 156480, Note Name: B4, Velocity: 37
Note ON: Time 156480, Note Name: D5, Velocity: 37
Note ON: Time 156480, Note Name: G5, Velocity: 50
Note OFF: Time 156720, Note Name: G5
Note OFF: Time 156720, Note Name: D5
Note OFF: Time 156720, Note Name: B4
Note ON: Time 156720, Note Name: G4, Velocity: 40
Note OFF: Time 156840, Note Name: G4
Note ON: Time 156840, Note Name: F#3, Velocity: 30
Note ON: Time 156840, Note Name: F#4, Velocity: 36
Note OFF: Time 156960, Note Name: F#4
Note OFF: Time 156960, Note Name: F#3
Note ON: Time 156960, Note Name: F#3, Velocity: 34
Note ON: Time 156960, Note Name: F#4, Velocity: 40
Note OFF: Time 157198, Note Name: F#4
Note OFF: Time 157198, Note Name: F#3
Note ON: Time 157200, Note Name: A3, Velocity: 31
Note ON: Time 157200, Note Name: A4, Velocity: 37
Note ON: Time 157200, Note Name: F#4, Velocity: 31
Note ON: Time 157200, Note Name: C#4, Velocity: 31
Note OFF: Time 157438, Note Name: C#4
Note OFF: Time 157438, Note Name: A3
Note OFF: Time 157438, Note Name: A4
Note OFF: Time 157438, Note Name: F#4
Note ON: Time 157440, Note Name: C#4, Velocity: 31
Note ON: Time 157440, Note Name: C#5, Velocity: 37
Note ON: Time 157440, Note Name: A4, Velocity: 31
Note ON: Time 157440, Note Name: F#4, Velocity: 31
Note OFF: Time 157678, Note Name: F#4
Note OFF: Time 157678, Note Name: C#4
Note OFF: Time 157678, Note Name: C#5
Note OFF: Time 157678, Note Name: A4
Note ON: Time 157680, Note Name: C#4, Velocity: 34
Note ON: Time 157680, Note Name: C#5, Velocity: 41
Note ON: Time 157680, Note Name: G#4, Velocity: 34
Note ON: Time 157680, Note Name: F4, Velocity: 34
Note OFF: Time 158155, Note Name: F4
Note OFF: Time 158155, Note Name: C#4
Note OFF: Time 158155, Note Name: C#5
Note OFF: Time 158155, Note Name: G#4
Note ON: Time 158160, Note Name: C#4, Velocity: 29
Note ON: Time 158160, Note Name: C#5, Velocity: 35
Note ON: Time 158160, Note Name: A4, Velocity: 29
Note ON: Time 158160, Note Name: F#4, Velocity: 29
Note OFF: Time 158398, Note Name: F#4
Note OFF: Time 158398, Note Name: C#4
Note OFF: Time 158398, Note Name: C#5
Note OFF: Time 158398, Note Name: A4
Note ON: Time 158400, Note Name: C#4, Velocity: 36
Note ON: Time 158400, Note Name: A4, Velocity: 36
Note ON: Time 158400, Note Name: C#5, Velocity: 43
Note OFF: Time 158640, Note Name: C#5
Note OFF: Time 158640, Note Name: A4
Note OFF: Time 158640, Note Name: C#4
Note ON: Time 158640, Note Name: D4, Velocity: 34
Note ON: Time 158640, Note Name: G4, Velocity: 34
Note ON: Time 158640, Note Name: D5, Velocity: 40
Note OFF: Time 158880, Note Name: D5
Note OFF: Time 158880, Note Name: G4
Note OFF: Time 158880, Note Name: D4
Note ON: Time 158880, Note Name: G3, Velocity: 30
Note ON: Time 158880, Note Name: G4, Velocity: 36
Note OFF: Time 159120, Note Name: G4
Note OFF: Time 159120, Note Name: G3
Note ON: Time 159120, Note Name: B3, Velocity: 31
Note ON: Time 159120, Note Name: B4, Velocity: 37
Note OFF: Time 159360, Note Name: B4
Note OFF: Time 159360, Note Name: B3
Note ON: Time 159360, Note Name: C#4, Velocity: 37
Note OFF: Time 159600, Note Name: C#4
Note ON: Time 159600, Note Name: F4, Velocity: 31
Note ON: Time 159600, Note Name: F3, Velocity: 26
Note OFF: Time 159840, Note Name: F3
Note OFF: Time 159840, Note Name: F4
Note ON: Time 159840, Note Name: F#4, Velocity: 38
Note ON: Time 159840, Note Name: F#3, Velocity: 32
Note OFF: Time 160080, Note Name: F#3
Note OFF: Time 160080, Note Name: F#4
Note ON: Time 160080, Note Name: C#5, Velocity: 41
Note ON: Time 160080, Note Name: C#4, Velocity: 34
Note OFF: Time 160440, Note Name: C#4
Note OFF: Time 160440, Note Name: C#5
Note ON: Time 160440, Note Name: G#4, Velocity: 29
Note ON: Time 160440, Note Name: G#3, Velocity: 24
Note OFF: Time 160560, Note Name: G#3
Note OFF: Time 160560, Note Name: G#4
Note ON: Time 160560, Note Name: A4, Velocity: 31
Note ON: Time 160560, Note Name: A3, Velocity: 26
Note OFF: Time 160800, Note Name: A3
Note OFF: Time 160800, Note Name: A4
Note ON: Time 160800, Note Name: A5, Velocity: 42
Note ON: Time 160800, Note Name: A4, Velocity: 34
Note OFF: Time 161160, Note Name: A4
Note OFF: Time 161160, Note Name: A5
Note ON: Time 161160, Note Name: F5, Velocity: 25
Note ON: Time 161160, Note Name: F4, Velocity: 21
Note OFF: Time 161280, Note Name: F4
Note OFF: Time 161280, Note Name: F5
Note ON: Time 162480, Note Name: F#5, Velocity: 43
Note OFF: Time 162837, Note Name: F#5
Note ON: Time 162840, Note Name: F#5, Velocity: 44
Note OFF: Time 163078, Note Name: F#5
Note ON: Time 163080, Note Name: F#5, Velocity: 44
Note ON: Time 163200, Note Name: A5, Velocity: 61
Note OFF: Time 163318, Note Name: F#5
Note ON: Time 163320, Note Name: F#5, Velocity: 49
Note OFF: Time 163438, Note Name: A5
Note ON: Time 163440, Note Name: D6, Velocity: 74
Note OFF: Time 163558, Note Name: F#5
Note ON: Time 163560, Note Name: F#5, Velocity: 54
Note OFF: Time 163680, Note Name: D6
Note ON: Time 163680, Note Name: E6, Velocity: 71
Note OFF: Time 163798, Note Name: F#5
Note ON: Time 163800, Note Name: F#5, Velocity: 52
Note OFF: Time 163920, Note Name: E6
Note ON: Time 163920, Note Name: F#6, Velocity: 71
Note OFF: Time 164038, Note Name: F#5
Note ON: Time 164040, Note Name: F#5, Velocity: 45
Note OFF: Time 164160, Note Name: F#5
Note OFF: Time 164160, Note Name: F#6
Note ON: Time 164160, Note Name: F#6, Velocity: 69
Note OFF: Time 164190, Note Name: F#6
Note ON: Time 164190, Note Name: G6, Velocity: 61
Note OFF: Time 164220, Note Name: G6
Note ON: Time 164220, Note Name: F#6, Velocity: 67
Note OFF: Time 164250, Note Name: F#6
Note ON: Time 164250, Note Name: G6, Velocity: 63
Note OFF: Time 164280, Note Name: G6
Note ON: Time 164280, Note Name: F#6, Velocity: 63
Note OFF: Time 164310, Note Name: F#6
Note ON: Time 164310, Note Name: G6, Velocity: 71
Note OFF: Time 164340, Note Name: G6
Note ON: Time 164340, Note Name: F#6, Velocity: 69
Note OFF: Time 164370, Note Name: F#6
Note ON: Time 164370, Note Name: G6, Velocity: 78
Note OFF: Time 164400, Note Name: G6
Note ON: Time 164400, Note Name: A6, Velocity: 83
Note ON: Time 164520, Note Name: A5, Velocity: 57
Note OFF: Time 164640, Note Name: A6
Note ON: Time 164640, Note Name: G6, Velocity: 75
Note OFF: Time 164880, Note Name: G6
Note ON: Time 164880, Note Name: G6, Velocity: 77
Note OFF: Time 164995, Note Name: A5
Note ON: Time 165000, Note Name: A5, Velocity: 56
Note OFF: Time 165200, Note Name: G6
Note OFF: Time 165240, Note Name: A5
Note ON: Time 165240, Note Name: E6, Velocity: 68
Note OFF: Time 165360, Note Name: E6
Note ON: Time 165360, Note Name: C#6, Velocity: 62
Note OFF: Time 165480, Note Name: C#6
Note ON: Time 165480, Note Name: D6, Velocity: 65
Note OFF: Time 165600, Note Name: D6
Note ON: Time 165600, Note Name: D#6, Velocity: 74
Note OFF: Time 165720, Note Name: D#6
Note ON: Time 165720, Note Name: E6, Velocity: 64
Note OFF: Time 165920, Note Name: E6
Note ON: Time 165920, Note Name: G5, Velocity: 63
Note OFF: Time 166000, Note Name: G5
Note ON: Time 166000, Note Name: F#5, Velocity: 64
Note OFF: Time 166080, Note Name: F#5
Note ON: Time 166080, Note Name: G5, Velocity: 64
Note OFF: Time 166160, Note Name: G5
Note ON: Time 166160, Note Name: A5, Velocity: 66
Note OFF: Time 166240, Note Name: A5
Note ON: Time 166240, Note Name: A#5, Velocity: 68
Note OFF: Time 166320, Note Name: A#5
Note ON: Time 166320, Note Name: C#6, Velocity: 70
Note OFF: Time 166400, Note Name: C#6
Note ON: Time 166400, Note Name: B5, Velocity: 68
Note OFF: Time 166480, Note Name: B5
Note ON: Time 166480, Note Name: A5, Velocity: 66
Note OFF: Time 166560, Note Name: A5
Note ON: Time 166560, Note Name: G5, Velocity: 69
Note OFF: Time 166640, Note Name: G5
Note ON: Time 166640, Note Name: F#5, Velocity: 65
Note OFF: Time 166720, Note Name: F#5
Note ON: Time 166720, Note Name: G5, Velocity: 60
Note OFF: Time 166800, Note Name: G5
Note ON: Time 166800, Note Name: G#5, Velocity: 69
Note OFF: Time 166880, Note Name: G#5
Note ON: Time 166880, Note Name: A5, Velocity: 64
Note OFF: Time 166960, Note Name: A5
Note ON: Time 166960, Note Name: E5, Velocity: 59
Note OFF: Time 167040, Note Name: E5
Note ON: Time 167040, Note Name: G5, Velocity: 70
Note OFF: Time 167160, Note Name: G5
Note ON: Time 167160, Note Name: F#5, Velocity: 64
Note OFF: Time 167400, Note Name: F#5
Note ON: Time 167400, Note Name: A5, Velocity: 69
Note OFF: Time 167640, Note Name: A5
Note ON: Time 167640, Note Name: D6, Velocity: 76
Note OFF: Time 167878, Note Name: D6
Note ON: Time 167880, Note Name: D6, Velocity: 74
Note OFF: Time 168120, Note Name: D6
Note ON: Time 168120, Note Name: E6, Velocity: 78
Note OFF: Time 168360, Note Name: E6
Note ON: Time 168360, Note Name: F#6, Velocity: 68
Note OFF: Time 168479, Note Name: F#6
Note ON: Time 168480, Note Name: F#6, Velocity: 62
Note OFF: Time 168510, Note Name: F#6
Note ON: Time 168510, Note Name: G6, Velocity: 59
Note OFF: Time 168540, Note Name: G6
Note ON: Time 168540, Note Name: F#6, Velocity: 64
Note OFF: Time 168570, Note Name: F#6
Note ON: Time 168570, Note Name: G6, Velocity: 60
Note OFF: Time 168600, Note Name: G6
Note ON: Time 168600, Note Name: F#6, Velocity: 67
Note OFF: Time 168630, Note Name: F#6
Note ON: Time 168630, Note Name: G6, Velocity: 62
Note OFF: Time 168660, Note Name: G6
Note ON: Time 168660, Note Name: F#6, Velocity: 69
Note OFF: Time 168690, Note Name: F#6
Note ON: Time 168690, Note Name: G6, Velocity: 65
Note OFF: Time 168720, Note Name: G6
Note ON: Time 168720, Note Name: F#6, Velocity: 72
Note OFF: Time 168750, Note Name: F#6
Note ON: Time 168750, Note Name: G6, Velocity: 66
Note OFF: Time 168780, Note Name: G6
Note ON: Time 168780, Note Name: F#6, Velocity: 74
Note OFF: Time 168810, Note Name: F#6
Note ON: Time 168810, Note Name: G6, Velocity: 70
Note OFF: Time 168840, Note Name: G6
Note ON: Time 168840, Note Name: F#6, Velocity: 77
Note OFF: Time 168880, Note Name: F#6
Note ON: Time 168880, Note Name: F6, Velocity: 79
Note OFF: Time 168920, Note Name: F6
Note ON: Time 168920, Note Name: F#6, Velocity: 75
Note OFF: Time 168960, Note Name: F#6
Note ON: Time 168960, Note Name: A6, Velocity: 84
Note OFF: Time 169080, Note Name: A6
Note ON: Time 169080, Note Name: G6, Velocity: 67
Note OFF: Time 169200, Note Name: G6
Note ON: Time 169200, Note Name: G6, Velocity: 72
Note OFF: Time 169520, Note Name: G6
Note ON: Time 169520, Note Name: D#6, Velocity: 69
Note OFF: Time 169600, Note Name: D#6
Note ON: Time 169600, Note Name: E6, Velocity: 72
Note OFF: Time 169680, Note Name: E6
Note ON: Time 169680, Note Name: G6, Velocity: 72
Note OFF: Time 169760, Note Name: G6
Note ON: Time 169760, Note Name: F#6, Velocity: 67
Note OFF: Time 169840, Note Name: F#6
Note ON: Time 169840, Note Name: E6, Velocity: 64
Note OFF: Time 169918, Note Name: E6
Note ON: Time 169920, Note Name: E6, Velocity: 77
Note OFF: Time 170240, Note Name: E6
Note ON: Time 170240, Note Name: C6, Velocity: 67
Note OFF: Time 170320, Note Name: C6
Note ON: Time 170320, Note Name: C#6, Velocity: 64
Note OFF: Time 170400, Note Name: C#6
Note ON: Time 170400, Note Name: E6, Velocity: 76
Note OFF: Time 170480, Note Name: E6
Note ON: Time 170480, Note Name: D6, Velocity: 67
Note OFF: Time 170560, Note Name: D6
Note ON: Time 170560, Note Name: C#6, Velocity: 65
Note OFF: Time 170640, Note Name: C#6
Note ON: Time 170640, Note Name: B5, Velocity: 72
Note OFF: Time 170700, Note Name: B5
Note ON: Time 170700, Note Name: A#5, Velocity: 62
Note OFF: Time 170760, Note Name: A#5
Note ON: Time 170760, Note Name: D6, Velocity: 66
Note OFF: Time 170820, Note Name: D6
Note ON: Time 170820, Note Name: C#6, Velocity: 63
Note OFF: Time 170880, Note Name: C#6
Note ON: Time 170880, Note Name: C6, Velocity: 72
Note OFF: Time 170940, Note Name: C6
Note ON: Time 170940, Note Name: C#6, Velocity: 63
Note OFF: Time 171000, Note Name: C#6
Note ON: Time 171000, Note Name: E5, Velocity: 66
Note OFF: Time 171060, Note Name: E5
Note ON: Time 171060, Note Name: G5, Velocity: 60
Note OFF: Time 171120, Note Name: G5
Note ON: Time 171120, Note Name: F5, Velocity: 72
Note OFF: Time 171180, Note Name: F5
Note ON: Time 171180, Note Name: F#5, Velocity: 62
Note OFF: Time 171240, Note Name: F#5
Note ON: Time 171240, Note Name: C#5, Velocity: 66
Note OFF: Time 171300, Note Name: C#5
Note ON: Time 171300, Note Name: E5, Velocity: 61
Note OFF: Time 171360, Note Name: E5
Note ON: Time 171360, Note Name: D5, Velocity: 66
Note OFF: Time 171600, Note Name: D5
Note ON: Time 171600, Note Name: B5, Velocity: 70
Note OFF: Time 171960, Note Name: B5
Note ON: Time 171960, Note Name: F#5, Velocity: 59
Note OFF: Time 172080, Note Name: F#5
Note ON: Time 172080, Note Name: G5, Velocity: 66
Note ON: Time 172200, Note Name: A#4, Velocity: 39
Note ON: Time 172200, Note Name: E5, Velocity: 46
Note OFF: Time 172438, Note Name: E5
Note OFF: Time 172438, Note Name: A#4
Note ON: Time 172440, Note Name: A#4, Velocity: 37
Note ON: Time 172440, Note Name: E5, Velocity: 44
Note OFF: Time 172560, Note Name: G5
Note ON: Time 172560, Note Name: F#5, Velocity: 64
Note OFF: Time 172678, Note Name: E5
Note OFF: Time 172678, Note Name: A#4
Note ON: Time 172680, Note Name: A#4, Velocity: 39
Note ON: Time 172680, Note Name: E5, Velocity: 46
Note OFF: Time 172800, Note Name: E5
Note OFF: Time 172800, Note Name: A#4
Note OFF: Time 172800, Note Name: F#5
Note ON: Time 172800, Note Name: B4, Velocity: 43
Note ON: Time 172800, Note Name: D5, Velocity: 43
Note ON: Time 172800, Note Name: F#5, Velocity: 66
Note OFF: Time 172860, Note Name: F#5
Note ON: Time 172860, Note Name: F#6, Velocity: 56
Note OFF: Time 172920, Note Name: F#6
Note ON: Time 172920, Note Name: C#6, Velocity: 59
Note OFF: Time 172980, Note Name: C#6
Note ON: Time 172980, Note Name: D6, Velocity: 55
Note OFF: Time 173040, Note Name: D6
Note OFF: Time 173040, Note Name: D5
Note OFF: Time 173040, Note Name: B4
Note ON: Time 173040, Note Name: E6, Velocity: 66
Note OFF: Time 173100, Note Name: E6
Note ON: Time 173100, Note Name: D6, Velocity: 57
Note OFF: Time 173160, Note Name: D6
Note ON: Time 173160, Note Name: A#5, Velocity: 59
Note OFF: Time 173220, Note Name: A#5
Note ON: Time 173220, Note Name: B5, Velocity: 55
Note OFF: Time 173280, Note Name: B5
Note ON: Time 173280, Note Name: C#6, Velocity: 66
Note OFF: Time 173340, Note Name: C#6
Note ON: Time 173340, Note Name: B5, Velocity: 60
Note OFF: Time 173400, Note Name: B5
Note ON: Time 173400, Note Name: D6, Velocity: 66
Note OFF: Time 173440, Note Name: D6
Note ON: Time 173440, Note Name: B5, Velocity: 57
Note OFF: Time 173480, Note Name: B5
Note ON: Time 173481, Note Name: F#5, Velocity: 50
Note ON: Time 173520, Note Name: A5, Velocity: 66
Note OFF: Time 173521, Note Name: F#5
Note OFF: Time 173640, Note Name: A5
Note ON: Time 173640, Note Name: G5, Velocity: 60
Note ON: Time 173640, Note Name: A#4, Velocity: 31
Note ON: Time 173640, Note Name: E5, Velocity: 31
Note OFF: Time 173878, Note Name: E5
Note OFF: Time 173878, Note Name: A#4
Note OFF: Time 173878, Note Name: G5
Note ON: Time 173880, Note Name: E5, Velocity: 31
Note ON: Time 173880, Note Name: A#4, Velocity: 31
Note ON: Time 173880, Note Name: G5, Velocity: 60
Note OFF: Time 174118, Note Name: G5
Note OFF: Time 174118, Note Name: A#4
Note OFF: Time 174118, Note Name: E5
Note ON: Time 174120, Note Name: F#5, Velocity: 64
Note ON: Time 174120, Note Name: A#4, Velocity: 31
Note ON: Time 174120, Note Name: E5, Velocity: 37
Note OFF: Time 174240, Note Name: E5
Note OFF: Time 174240, Note Name: A#4
Note OFF: Time 174240, Note Name: F#5
Note ON: Time 174240, Note Name: F#5, Velocity: 72
Note ON: Time 174240, Note Name: D5, Velocity: 61
Note ON: Time 174240, Note Name: B4, Velocity: 61
Note OFF: Time 174359, Note Name: B4
Note OFF: Time 174359, Note Name: D5
Note ON: Time 174360, Note Name: F#4, Velocity: 53
Note OFF: Time 174597, Note Name: F#5
Note OFF: Time 174598, Note Name: F#4
Note ON: Time 174600, Note Name: F#4, Velocity: 59
Note ON: Time 174600, Note Name: D5, Velocity: 48
Note ON: Time 174600, Note Name: B4, Velocity: 46
Note ON: Time 174600, Note Name: F#5, Velocity: 71
Note OFF: Time 174719, Note Name: B4
Note OFF: Time 174719, Note Name: D5
Note ON: Time 174720, Note Name: A#4, Velocity: 58
Note ON: Time 174720, Note Name: E5, Velocity: 49
Note OFF: Time 174838, Note Name: F#4
Note OFF: Time 174838, Note Name: F#5
Note OFF: Time 174839, Note Name: A#4
Note OFF: Time 174839, Note Name: E5
Note ON: Time 174840, Note Name: A#4, Velocity: 54
Note ON: Time 174840, Note Name: F#5, Velocity: 70
Note ON: Time 174840, Note Name: F#4, Velocity: 59
Note ON: Time 174840, Note Name: E5, Velocity: 49
Note OFF: Time 174959, Note Name: E5
Note OFF: Time 174959, Note Name: A#4
Note OFF: Time 174959, Note Name: F#5
Note OFF: Time 174959, Note Name: F#4
Note ON: Time 174960, Note Name: B4, Velocity: 65
Note ON: Time 174960, Note Name: F#4, Velocity: 65
Note ON: Time 174960, Note Name: D5, Velocity: 65
Note ON: Time 174960, Note Name: F#5, Velocity: 77
Note OFF: Time 175079, Note Name: D5
Note OFF: Time 175079, Note Name: B4
Note OFF: Time 175079, Note Name: F#4
Note ON: Time 175080, Note Name: B4, Velocity: 56
Note OFF: Time 175317, Note Name: F#5
Note OFF: Time 175318, Note Name: B4
Note ON: Time 175320, Note Name: D5, Velocity: 61
Note ON: Time 175320, Note Name: B4, Velocity: 63
Note ON: Time 175320, Note Name: B5, Velocity: 75
Note ON: Time 175320, Note Name: F#5, Velocity: 51
Note OFF: Time 175439, Note Name: F#5
Note OFF: Time 175439, Note Name: D5
Note ON: Time 175440, Note Name: D#5, Velocity: 62
Note ON: Time 175440, Note Name: F#5, Velocity: 52
Note OFF: Time 175558, Note Name: B5
Note OFF: Time 175558, Note Name: B4
Note OFF: Time 175559, Note Name: D#5
Note OFF: Time 175559, Note Name: F#5
Note ON: Time 175560, Note Name: D#5, Velocity: 62
Note ON: Time 175560, Note Name: B4, Velocity: 62
Note ON: Time 175560, Note Name: F#5, Velocity: 52
Note ON: Time 175560, Note Name: B5, Velocity: 75
Note OFF: Time 175679, Note Name: B5
Note OFF: Time 175679, Note Name: D#5
Note OFF: Time 175679, Note Name: B4
Note OFF: Time 175679, Note Name: F#5
Note ON: Time 175680, Note Name: C5, Velocity: 63
Note ON: Time 175680, Note Name: F#5, Velocity: 63
Note ON: Time 175680, Note Name: D#5, Velocity: 63
Note ON: Time 175680, Note Name: C6, Velocity: 75
Note OFF: Time 175799, Note Name: C6
Note OFF: Time 175799, Note Name: C5
Note OFF: Time 175799, Note Name: F#5
Note OFF: Time 175799, Note Name: D#5
Note ON: Time 175800, Note Name: C5, Velocity: 63
Note ON: Time 175800, Note Name: F#5, Velocity: 63
Note ON: Time 175800, Note Name: D#5, Velocity: 63
Note ON: Time 175800, Note Name: C6, Velocity: 76
Note OFF: Time 176038, Note Name: C6
Note OFF: Time 176038, Note Name: C5
Note OFF: Time 176038, Note Name: F#5
Note OFF: Time 176038, Note Name: D#5
Note ON: Time 176040, Note Name: C5, Velocity: 65
Note ON: Time 176040, Note Name: F#5, Velocity: 78
Note ON: Time 176040, Note Name: D#5, Velocity: 65
Note ON: Time 176040, Note Name: C6, Velocity: 78
Note OFF: Time 176159, Note Name: D#5
Note OFF: Time 176159, Note Name: F#5
Note ON: Time 176160, Note Name: D#5, Velocity: 65
Note ON: Time 176160, Note Name: A5, Velocity: 78
Note OFF: Time 176278, Note Name: C5
Note OFF: Time 176278, Note Name: C6
Note OFF: Time 176279, Note Name: D#5
Note OFF: Time 176279, Note Name: A5
Note ON: Time 176280, Note Name: C5, Velocity: 66
Note ON: Time 176280, Note Name: A5, Velocity: 66
Note ON: Time 176280, Note Name: C6, Velocity: 79
Note ON: Time 176280, Note Name: D#5, Velocity: 66
Note OFF: Time 176399, Note Name: D#5
Note OFF: Time 176399, Note Name: C5
Note OFF: Time 176399, Note Name: A5
Note OFF: Time 176399, Note Name: C6
Note ON: Time 176400, Note Name: C#5, Velocity: 66
Note ON: Time 176400, Note Name: C#6, Velocity: 79
Note ON: Time 176400, Note Name: G#5, Velocity: 66
Note OFF: Time 176519, Note Name: G#5
Note OFF: Time 176519, Note Name: C#6
Note OFF: Time 176519, Note Name: C#5
Note ON: Time 176520, Note Name: G#5, Velocity: 67
Note ON: Time 176520, Note Name: C#5, Velocity: 67
Note ON: Time 176520, Note Name: C#6, Velocity: 80
Note OFF: Time 176758, Note Name: C#6
Note OFF: Time 176758, Note Name: C#5
Note OFF: Time 176758, Note Name: G#5
Note ON: Time 176760, Note Name: C#5, Velocity: 68
Note ON: Time 176760, Note Name: C#6, Velocity: 82
Note ON: Time 176760, Note Name: G#5, Velocity: 82
Note OFF: Time 176879, Note Name: G#5
Note OFF: Time 176879, Note Name: C#5
Note ON: Time 176880, Note Name: F#5, Velocity: 82
Note ON: Time 176880, Note Name: C#5, Velocity: 69
Note OFF: Time 176998, Note Name: C#6
Note OFF: Time 176999, Note Name: C#5
Note OFF: Time 176999, Note Name: F#5
Note ON: Time 177000, Note Name: F#5, Velocity: 69
Note ON: Time 177000, Note Name: C#5, Velocity: 69
Note ON: Time 177000, Note Name: C#6, Velocity: 83
Note OFF: Time 177119, Note Name: F#5
Note ON: Time 177120, Note Name: F5, Velocity: 67
Note OFF: Time 177238, Note Name: C#6
Note OFF: Time 177238, Note Name: C#5
Note OFF: Time 177240, Note Name: F5
Note ON: Time 177240, Note Name: C6, Velocity: 65
Note ON: Time 177240, Note Name: C5, Velocity: 60
Note OFF: Time 177360, Note Name: C5
Note OFF: Time 177360, Note Name: C6
Note ON: Time 177360, Note Name: D#6, Velocity: 59
Note ON: Time 177360, Note Name: D#5, Velocity: 59
Note OFF: Time 177480, Note Name: D#5
Note OFF: Time 177480, Note Name: D#6
Note ON: Time 177480, Note Name: C#6, Velocity: 59
Note ON: Time 177480, Note Name: C#5, Velocity: 59
Note OFF: Time 177600, Note Name: C#5
Note OFF: Time 177600, Note Name: C#6
Note ON: Time 177600, Note Name: C6, Velocity: 58
Note ON: Time 177600, Note Name: C5, Velocity: 58
Note OFF: Time 177720, Note Name: C5
Note OFF: Time 177720, Note Name: C6
Note ON: Time 177720, Note Name: C#5, Velocity: 57
Note ON: Time 177720, Note Name: C#6, Velocity: 57
Note OFF: Time 177840, Note Name: C#6
Note OFF: Time 177840, Note Name: C#5
Note ON: Time 177840, Note Name: E5, Velocity: 56
Note ON: Time 177840, Note Name: E6, Velocity: 56
Note OFF: Time 178080, Note Name: E6
Note OFF: Time 178080, Note Name: E5
Note ON: Time 178080, Note Name: D#5, Velocity: 55
Note ON: Time 178080, Note Name: D#6, Velocity: 55
Note OFF: Time 178680, Note Name: D#6
Note OFF: Time 178680, Note Name: D#5
Note ON: Time 178680, Note Name: C6, Velocity: 55
Note ON: Time 178680, Note Name: C5, Velocity: 46
Note OFF: Time 178800, Note Name: C5
Note OFF: Time 178800, Note Name: C6
Note ON: Time 178800, Note Name: D#6, Velocity: 63
Note ON: Time 178800, Note Name: D#5, Velocity: 53
Note OFF: Time 178920, Note Name: D#5
Note OFF: Time 178920, Note Name: D#6
Note ON: Time 178920, Note Name: C#6, Velocity: 55
Note ON: Time 178920, Note Name: C#5, Velocity: 46
Note OFF: Time 179040, Note Name: C#5
Note OFF: Time 179040, Note Name: C#6
Note ON: Time 179040, Note Name: C6, Velocity: 60
Note ON: Time 179040, Note Name: C5, Velocity: 51
Note OFF: Time 179160, Note Name: C5
Note OFF: Time 179160, Note Name: C6
Note ON: Time 179160, Note Name: C#5, Velocity: 45
Note ON: Time 179160, Note Name: C#6, Velocity: 53
Note OFF: Time 179280, Note Name: C#6
Note OFF: Time 179280, Note Name: C#5
Note ON: Time 179280, Note Name: D#5, Velocity: 50
Note ON: Time 179280, Note Name: D#6, Velocity: 59
Note OFF: Time 179520, Note Name: D#6
Note OFF: Time 179520, Note Name: D#5
Note ON: Time 179520, Note Name: C#6, Velocity: 55
Note ON: Time 179520, Note Name: C#5, Velocity: 46
Note OFF: Time 180120, Note Name: C#5
Note OFF: Time 180120, Note Name: C#6
Note ON: Time 180120, Note Name: A#4, Velocity: 47
Note ON: Time 180120, Note Name: A#5, Velocity: 56
Note OFF: Time 180240, Note Name: A#5
Note OFF: Time 180240, Note Name: A#4
Note ON: Time 180240, Note Name: C#5, Velocity: 56
Note ON: Time 180240, Note Name: C#6, Velocity: 66
Note OFF: Time 180360, Note Name: C#6
Note OFF: Time 180360, Note Name: C#5
Note ON: Time 180360, Note Name: B4, Velocity: 50
Note ON: Time 180360, Note Name: B5, Velocity: 59
Note OFF: Time 180480, Note Name: B5
Note OFF: Time 180480, Note Name: B4
Note ON: Time 180480, Note Name: A#4, Velocity: 56
Note ON: Time 180480, Note Name: A#5, Velocity: 67
Note OFF: Time 180600, Note Name: A#5
Note OFF: Time 180600, Note Name: A#4
Note ON: Time 180600, Note Name: B5, Velocity: 60
Note ON: Time 180600, Note Name: B4, Velocity: 51
Note OFF: Time 180719, Note Name: B4
Note OFF: Time 180719, Note Name: B5
Note ON: Time 180720, Note Name: B4, Velocity: 56
Note ON: Time 180720, Note Name: B5, Velocity: 67
Note OFF: Time 180840, Note Name: B5
Note OFF: Time 180840, Note Name: B4
Note ON: Time 180840, Note Name: G#4, Velocity: 51
Note ON: Time 180840, Note Name: G#5, Velocity: 61
Note OFF: Time 180960, Note Name: G#5
Note OFF: Time 180960, Note Name: G#4
Note ON: Time 180960, Note Name: B4, Velocity: 57
Note ON: Time 180960, Note Name: B5, Velocity: 68
Note OFF: Time 181080, Note Name: B5
Note OFF: Time 181080, Note Name: B4
Note ON: Time 181080, Note Name: A#4, Velocity: 52
Note ON: Time 181080, Note Name: A#5, Velocity: 62
Note OFF: Time 181200, Note Name: A#5
Note OFF: Time 181200, Note Name: A#4
Note ON: Time 181200, Note Name: G#4, Velocity: 56
Note ON: Time 181200, Note Name: G#5, Velocity: 67
Note OFF: Time 181320, Note Name: G#5
Note OFF: Time 181320, Note Name: G#4
Note ON: Time 181320, Note Name: A4, Velocity: 52
Note ON: Time 181320, Note Name: A5, Velocity: 62
Note OFF: Time 181437, Note Name: A5
Note OFF: Time 181437, Note Name: A4
Note ON: Time 181440, Note Name: A4, Velocity: 62
Note ON: Time 181440, Note Name: A5, Velocity: 74
Note OFF: Time 181680, Note Name: A5
Note OFF: Time 181680, Note Name: A4
Note ON: Time 181680, Note Name: G#5, Velocity: 69
Note ON: Time 181680, Note Name: C#5, Velocity: 58
Note ON: Time 181680, Note Name: G#4, Velocity: 58
Note OFF: Time 181920, Note Name: G#4
Note OFF: Time 181920, Note Name: C#5
Note OFF: Time 181920, Note Name: G#5
Note ON: Time 181920, Note Name: C#5, Velocity: 63
Note ON: Time 181920, Note Name: F#5, Velocity: 75
Note OFF: Time 182160, Note Name: F#5
Note ON: Time 182160, Note Name: B5, Velocity: 78
Note OFF: Time 182280, Note Name: C#5
Note ON: Time 182280, Note Name: C#5, Velocity: 67
Note OFF: Time 182400, Note Name: C#5
Note OFF: Time 182400, Note Name: B5
Note ON: Time 182400, Note Name: G#5, Velocity: 67
Note ON: Time 182400, Note Name: A#5, Velocity: 79
Note OFF: Time 182520, Note Name: G#5
Note ON: Time 182520, Note Name: F#5, Velocity: 67
Note OFF: Time 182640, Note Name: F#5
Note OFF: Time 182640, Note Name: A#5
Note ON: Time 182640, Note Name: F5, Velocity: 69
Note ON: Time 182640, Note Name: D#6, Velocity: 82
Note OFF: Time 182760, Note Name: F5
Note ON: Time 182760, Note Name: F#5, Velocity: 70
Note OFF: Time 182880, Note Name: F#5
Note ON: Time 182880, Note Name: D#5, Velocity: 73
Note ON: Time 182880, Note Name: F#5, Velocity: 87
Note OFF: Time 183120, Note Name: F#5
Note OFF: Time 183120, Note Name: D#5
Note OFF: Time 183120, Note Name: D#6
Note ON: Time 183120, Note Name: F#5, Velocity: 68
Note ON: Time 183120, Note Name: C#6, Velocity: 80
Note ON: Time 183120, Note Name: C#5, Velocity: 68
Note OFF: Time 183360, Note Name: C#5
Note OFF: Time 183360, Note Name: C#6
Note OFF: Time 183360, Note Name: F#5
Note ON: Time 183360, Note Name: F#6, Velocity: 94
Note ON: Time 183360, Note Name: F#5, Velocity: 79
Note OFF: Time 183840, Note Name: F#5
Note OFF: Time 183840, Note Name: F#6
Note ON: Time 183840, Note Name: F6, Velocity: 90
Note ON: Time 183840, Note Name: F5, Velocity: 76
Note OFF: Time 184080, Note Name: F5
Note OFF: Time 184080, Note Name: F6
Note ON: Time 184080, Note Name: B6, Velocity: 93
Note ON: Time 184080, Note Name: B5, Velocity: 83
Note ON: Time 184080, Note Name: F6, Velocity: 83
Note ON: Time 184080, Note Name: G#6, Velocity: 83
Note OFF: Time 184680, Note Name: G#6
Note OFF: Time 184680, Note Name: B6
Note OFF: Time 184680, Note Name: B5
Note OFF: Time 184680, Note Name: F6
Note ON: Time 184680, Note Name: B4, Velocity: 36
Note OFF: Time 184800, Note Name: B4
Note ON: Time 184800, Note Name: G#4, Velocity: 40
Note OFF: Time 184920, Note Name: G#4
Note ON: Time 184920, Note Name: D5, Velocity: 36
Note OFF: Time 185040, Note Name: D5
Note ON: Time 185040, Note Name: C5, Velocity: 40
Note OFF: Time 185160, Note Name: C5
Note ON: Time 185160, Note Name: C#5, Velocity: 36
Note OFF: Time 185280, Note Name: C#5
Note ON: Time 185280, Note Name: G#4, Velocity: 40
Note OFF: Time 185400, Note Name: G#4
Note ON: Time 185400, Note Name: D#5, Velocity: 36
Note OFF: Time 185520, Note Name: D#5
Note ON: Time 185520, Note Name: C#5, Velocity: 40
Note OFF: Time 185640, Note Name: C#5
Note ON: Time 185640, Note Name: B4, Velocity: 35
Note OFF: Time 185760, Note Name: B4
Note ON: Time 185760, Note Name: A#4, Velocity: 49
Note OFF: Time 186000, Note Name: A#4
Note ON: Time 186240, Note Name: F#2, Velocity: 58
Note OFF: Time 186960, Note Name: F#2
Note ON: Time 186960, Note Name: F#2, Velocity: 52
Note OFF: Time 187080, Note Name: F#2
Note ON: Time 187080, Note Name: C#2, Velocity: 46
Note OFF: Time 187198, Note Name: C#2
Note ON: Time 187200, Note Name: C#2, Velocity: 52
Note OFF: Time 187918, Note Name: C#2
Note ON: Time 187920, Note Name: C#2, Velocity: 52
Note OFF: Time 188398, Note Name: C#2
Note ON: Time 188400, Note Name: C#2, Velocity: 52
Note OFF: Time 188638, Note Name: C#2
Note ON: Time 188640, Note Name: A#1, Velocity: 52
Note OFF: Time 188880, Note Name: A#1
Note ON: Time 189120, Note Name: F#6, Velocity: 61
Note ON: Time 189120, Note Name: F#5, Velocity: 53
Note OFF: Time 189837, Note Name: F#5
Note OFF: Time 189837, Note Name: F#6
Note ON: Time 189840, Note Name: F#6, Velocity: 55
Note ON: Time 189840, Note Name: F#5, Velocity: 48
Note OFF: Time 189959, Note Name: F#5
Note OFF: Time 189959, Note Name: F#6
Note ON: Time 189960, Note Name: C#6, Velocity: 48
Note ON: Time 189960, Note Name: C#5, Velocity: 42
Note OFF: Time 190079, Note Name: C#5
Note OFF: Time 190079, Note Name: C#6
Note ON: Time 190080, Note Name: C#6, Velocity: 55
Note ON: Time 190080, Note Name: C#5, Velocity: 48
Note OFF: Time 190793, Note Name: C#5
Note OFF: Time 190793, Note Name: C#6
Note ON: Time 190800, Note Name: C#6, Velocity: 55
Note ON: Time 190800, Note Name: C#5, Velocity: 48
Note OFF: Time 191275, Note Name: C#5
Note OFF: Time 191275, Note Name: C#6
Note ON: Time 191280, Note Name: C#6, Velocity: 55
Note ON: Time 191280, Note Name: C#5, Velocity: 48
Note OFF: Time 191518, Note Name: C#5
Note OFF: Time 191518, Note Name: C#6
Note ON: Time 191520, Note Name: A#5, Velocity: 53
Note ON: Time 191520, Note Name: A#4, Velocity: 45
Note OFF: Time 191760, Note Name: A#4
Note OFF: Time 191760, Note Name: A#5
Note ON: Time 192000, Note Name: F#2, Velocity: 58
Note OFF: Time 192475, Note Name: F#2
Note ON: Time 192480, Note Name: F#2, Velocity: 58
Note OFF: Time 192718, Note Name: F#2
Note ON: Time 192720, Note Name: F#2, Velocity: 56
Note OFF: Time 192800, Note Name: F#2
Note ON: Time 192800, Note Name: F2, Velocity: 50
Note OFF: Time 192880, Note Name: F2
Note ON: Time 192880, Note Name: F#2, Velocity: 50
Note OFF: Time 192940, Note Name: F#2
Note ON: Time 192960, Note Name: C#2, Velocity: 52
Note OFF: Time 193435, Note Name: C#2
Note ON: Time 193440, Note Name: C#2, Velocity: 52
Note OFF: Time 193915, Note Name: C#2
Note ON: Time 193920, Note Name: C#2, Velocity: 52
Note OFF: Time 194395, Note Name: C#2
Note ON: Time 194400, Note Name: A#1, Velocity: 52
Note OFF: Time 194640, Note Name: A#1
Note ON: Time 194880, Note Name: F#6, Velocity: 67
Note ON: Time 194880, Note Name: F#5, Velocity: 59
Note OFF: Time 195593, Note Name: F#5
Note OFF: Time 195593, Note Name: F#6
Note ON: Time 195600, Note Name: F#6, Velocity: 65
Note ON: Time 195600, Note Name: F#5, Velocity: 57
Note ON: Time 195680, Note Name: F5, Velocity: 51
Note ON: Time 195680, Note Name: F6, Velocity: 58
Note OFF: Time 195681, Note Name: F#5
Note OFF: Time 195681, Note Name: F#6
Note OFF: Time 195760, Note Name: F5
Note OFF: Time 195760, Note Name: F6
Note ON: Time 195760, Note Name: F#5, Velocity: 51
Note ON: Time 195760, Note Name: F#6, Velocity: 58
Note OFF: Time 195820, Note Name: F#6
Note OFF: Time 195840, Note Name: F#5
Note ON: Time 195840, Note Name: C#6, Velocity: 67
Note ON: Time 195840, Note Name: C#5, Velocity: 59
Note OFF: Time 196315, Note Name: C#5
Note OFF: Time 196315, Note Name: C#6
Note ON: Time 196320, Note Name: C#5, Velocity: 62
Note ON: Time 196320, Note Name: C#6, Velocity: 70
Note OFF: Time 196795, Note Name: C#6
Note OFF: Time 196795, Note Name: C#5
Note ON: Time 196800, Note Name: C#5, Velocity: 63
Note ON: Time 196800, Note Name: C#6, Velocity: 72
Note OFF: Time 197200, Note Name: C#6
Note OFF: Time 197200, Note Name: C#5
Note ON: Time 197200, Note Name: B4, Velocity: 45
Note ON: Time 197200, Note Name: B5, Velocity: 50
Note OFF: Time 197280, Note Name: B5
Note OFF: Time 197280, Note Name: B4
Note ON: Time 197280, Note Name: A#4, Velocity: 50
Note ON: Time 197280, Note Name: A#5, Velocity: 50
Note OFF: Time 197520, Note Name: A#5
Note OFF: Time 197520, Note Name: A#4
Note ON: Time 197520, Note Name: A#4, Velocity: 40
Note ON: Time 197520, Note Name: A#5, Velocity: 55
Note OFF: Time 197600, Note Name: A#4
Note ON: Time 197600, Note Name: G#5, Velocity: 40
Note OFF: Time 197680, Note Name: G#5
Note ON: Time 197680, Note Name: F#5, Velocity: 40
Note OFF: Time 197760, Note Name: F#5
Note ON: Time 197760, Note Name: F5, Velocity: 50
Note OFF: Time 197840, Note Name: F5
Note ON: Time 197840, Note Name: D#5, Velocity: 41
Note OFF: Time 197920, Note Name: D#5
Note ON: Time 197920, Note Name: C#5, Velocity: 43
Note OFF: Time 198000, Note Name: C#5
Note OFF: Time 198000, Note Name: A#5
Note ON: Time 198000, Note Name: B4, Velocity: 50
Note ON: Time 198000, Note Name: B5, Velocity: 55
Note OFF: Time 198080, Note Name: B4
Note ON: Time 198080, Note Name: C#5, Velocity: 42
Note OFF: Time 198160, Note Name: C#5
Note ON: Time 198160, Note Name: A#4, Velocity: 42
Note OFF: Time 198240, Note Name: A#4
Note ON: Time 198240, Note Name: B4, Velocity: 50
Note OFF: Time 198320, Note Name: B4
Note ON: Time 198320, Note Name: C#5, Velocity: 40
Note OFF: Time 198400, Note Name: C#5
Note ON: Time 198400, Note Name: D#5, Velocity: 40
Note OFF: Time 198480, Note Name: D#5
Note ON: Time 198480, Note Name: F5, Velocity: 50
Note OFF: Time 198560, Note Name: F5
Note ON: Time 198560, Note Name: F#5, Velocity: 41
Note OFF: Time 198640, Note Name: F#5
Note ON: Time 198640, Note Name: G#5, Velocity: 41
Note OFF: Time 198720, Note Name: G#5
Note OFF: Time 198720, Note Name: B5
Note ON: Time 198720, Note Name: C#5, Velocity: 50
Note ON: Time 198720, Note Name: C#6, Velocity: 55
Note OFF: Time 198960, Note Name: C#6
Note OFF: Time 198960, Note Name: C#5
Note ON: Time 198960, Note Name: A#5, Velocity: 42
Note ON: Time 198960, Note Name: C#6, Velocity: 57
Note OFF: Time 199040, Note Name: A#5
Note ON: Time 199040, Note Name: G#5, Velocity: 42
Note OFF: Time 199120, Note Name: G#5
Note ON: Time 199120, Note Name: F#5, Velocity: 43
Note OFF: Time 199200, Note Name: F#5
Note ON: Time 199200, Note Name: E5, Velocity: 55
Note OFF: Time 199280, Note Name: E5
Note ON: Time 199280, Note Name: D#5, Velocity: 45
Note OFF: Time 199360, Note Name: D#5
Note ON: Time 199360, Note Name: C#5, Velocity: 48
Note OFF: Time 199440, Note Name: C#6
Note ON: Time 199440, Note Name: D#6, Velocity: 67
Note OFF: Time 199520, Note Name: C#5
Note ON: Time 199520, Note Name: D#5, Velocity: 48
Note OFF: Time 199600, Note Name: D#5
Note ON: Time 199600, Note Name: E5, Velocity: 49
Note OFF: Time 199680, Note Name: E5
Note ON: Time 199680, Note Name: D#5, Velocity: 60
Note OFF: Time 199760, Note Name: D#5
Note ON: Time 199760, Note Name: F5, Velocity: 48
Note OFF: Time 199840, Note Name: F5
Note ON: Time 199840, Note Name: F#5, Velocity: 49
Note OFF: Time 199920, Note Name: F#5
Note ON: Time 199920, Note Name: G#5, Velocity: 62
Note OFF: Time 200000, Note Name: G#5
Note ON: Time 200000, Note Name: A#5, Velocity: 51
Note OFF: Time 200080, Note Name: A#5
Note ON: Time 200080, Note Name: B5, Velocity: 52
Note OFF: Time 200160, Note Name: D#6
Note ON: Time 200160, Note Name: F6, Velocity: 71
Note OFF: Time 200240, Note Name: B5
Note ON: Time 200240, Note Name: B5, Velocity: 53
Note OFF: Time 200320, Note Name: B5
Note ON: Time 200320, Note Name: A#5, Velocity: 54
Note OFF: Time 200400, Note Name: A#5
Note OFF: Time 200400, Note Name: F6
Note ON: Time 200400, Note Name: G#5, Velocity: 54
Note OFF: Time 200480, Note Name: G#5
Note ON: Time 200480, Note Name: F#5, Velocity: 54
Note OFF: Time 200560, Note Name: F#5
Note ON: Time 200560, Note Name: F5, Velocity: 55
Note OFF: Time 200640, Note Name: F5
Note ON: Time 200640, Note Name: F#6, Velocity: 77
Note ON: Time 200640, Note Name: F#5, Velocity: 70
Note OFF: Time 200720, Note Name: F#5
Note ON: Time 200720, Note Name: G#5, Velocity: 57
Note OFF: Time 200800, Note Name: G#5
Note ON: Time 200800, Note Name: A#5, Velocity: 61
Note OFF: Time 200880, Note Name: A#5
Note OFF: Time 200880, Note Name: F#6
Note ON: Time 200880, Note Name: G#5, Velocity: 72
Note ON: Time 200880, Note Name: G#6, Velocity: 84
Note OFF: Time 200960, Note Name: G#5
Note ON: Time 200960, Note Name: B5, Velocity: 61
Note OFF: Time 201040, Note Name: B5
Note ON: Time 201040, Note Name: A#5, Velocity: 62
Note OFF: Time 201120, Note Name: A#5
Note ON: Time 201120, Note Name: G#5, Velocity: 75
Note OFF: Time 201200, Note Name: G#5
Note ON: Time 201200, Note Name: A#5, Velocity: 60
Note OFF: Time 201280, Note Name: A#5
Note ON: Time 201280, Note Name: B5, Velocity: 61
Note OFF: Time 201360, Note Name: B5
Note OFF: Time 201360, Note Name: G#6
Note ON: Time 201360, Note Name: A#6, Velocity: 91
Note ON: Time 201360, Note Name: A#5, Velocity: 77
Note OFF: Time 201440, Note Name: A#5
Note ON: Time 201440, Note Name: B5, Velocity: 63
Note OFF: Time 201520, Note Name: B5
Note ON: Time 201520, Note Name: C#6, Velocity: 64
Note OFF: Time 201600, Note Name: A#6
Note ON: Time 201600, Note Name: B6, Velocity: 96
Note OFF: Time 201680, Note Name: C#6
Note ON: Time 201680, Note Name: A#5, Velocity: 61
Note OFF: Time 201760, Note Name: A#5
Note ON: Time 201760, Note Name: B5, Velocity: 62
Note OFF: Time 201840, Note Name: B5
Note OFF: Time 201840, Note Name: B6
Note ON: Time 201840, Note Name: C#6, Velocity: 74
Note ON: Time 201840, Note Name: G5, Velocity: 63
Note OFF: Time 201920, Note Name: G5
Note ON: Time 201920, Note Name: F#5, Velocity: 51
Note OFF: Time 202000, Note Name: F#5
Note ON: Time 202000, Note Name: E5, Velocity: 51
Note OFF: Time 202080, Note Name: E5
Note OFF: Time 202080, Note Name: C#6
Note ON: Time 202080, Note Name: D#6, Velocity: 70
Note ON: Time 202080, Note Name: D#5, Velocity: 65
Note OFF: Time 202160, Note Name: D#5
Note ON: Time 202160, Note Name: E5, Velocity: 53
Note OFF: Time 202240, Note Name: E5
Note ON: Time 202240, Note Name: F#5, Velocity: 54
Note OFF: Time 202320, Note Name: D#6
Note ON: Time 202320, Note Name: A5, Velocity: 70
Note OFF: Time 202400, Note Name: F#5
Note ON: Time 202400, Note Name: F5, Velocity: 48
Note OFF: Time 202480, Note Name: F5
Note ON: Time 202480, Note Name: D#5, Velocity: 47
Note OFF: Time 202560, Note Name: D#5
Note ON: Time 202560, Note Name: C5, Velocity: 52
Note OFF: Time 202640, Note Name: C5
Note ON: Time 202640, Note Name: C#5, Velocity: 46
Note OFF: Time 202720, Note Name: C#5
Note ON: Time 202720, Note Name: D#5, Velocity: 45
Note OFF: Time 202800, Note Name: D#5
Note OFF: Time 202800, Note Name: A5
Note ON: Time 202800, Note Name: F5, Velocity: 47
Note ON: Time 202800, Note Name: G#5, Velocity: 58
Note OFF: Time 202880, Note Name: F5
Note ON: Time 202880, Note Name: D5, Velocity: 44
Note OFF: Time 202960, Note Name: D5
Note ON: Time 202960, Note Name: C#5, Velocity: 43
Note OFF: Time 203040, Note Name: C#5
Note OFF: Time 203040, Note Name: G#5
Note ON: Time 203040, Note Name: E5, Velocity: 51
Note ON: Time 203040, Note Name: G5, Velocity: 51
Note ON: Time 203040, Note Name: C#6, Velocity: 61
Note OFF: Time 203520, Note Name: E5
Note ON: Time 203520, Note Name: D#5, Velocity: 51
Note OFF: Time 203760, Note Name: D#5
Note OFF: Time 203760, Note Name: C#6
Note OFF: Time 203760, Note Name: G5
Note ON: Time 203760, Note Name: D#6, Velocity: 52
Note ON: Time 203760, Note Name: A#5, Velocity: 44
Note ON: Time 203760, Note Name: D#5, Velocity: 44
Note OFF: Time 204240, Note Name: D#5
Note OFF: Time 204240, Note Name: A#5
Note OFF: Time 204240, Note Name: D#6
Note ON: Time 204240, Note Name: C#5, Velocity: 43
Note ON: Time 204240, Note Name: D#5, Velocity: 43
Note ON: Time 204240, Note Name: A#5, Velocity: 51
Note OFF: Time 204480, Note Name: A#5
Note OFF: Time 204480, Note Name: D#5
Note OFF: Time 204480, Note Name: C#5
Note ON: Time 204480, Note Name: C#5, Velocity: 51
Note ON: Time 204480, Note Name: C#6, Velocity: 61
Note OFF: Time 204600, Note Name: C#6
Note OFF: Time 204600, Note Name: C#5
Note ON: Time 204600, Note Name: A#4, Velocity: 48
Note ON: Time 204600, Note Name: A#5, Velocity: 57
Note OFF: Time 204720, Note Name: A#5
Note OFF: Time 204720, Note Name: A#4
Note ON: Time 204720, Note Name: B5, Velocity: 74
Note ON: Time 204720, Note Name: B4, Velocity: 62
Note OFF: Time 204840, Note Name: B4
Note OFF: Time 204840, Note Name: B5
Note ON: Time 204840, Note Name: D#5, Velocity: 60
Note ON: Time 204840, Note Name: D#6, Velocity: 71
Note OFF: Time 204960, Note Name: D#6
Note OFF: Time 204960, Note Name: D#5
Note ON: Time 204960, Note Name: A#6, Velocity: 79
Note ON: Time 204960, Note Name: A#5, Velocity: 67
Note OFF: Time 205080, Note Name: A#5
Note OFF: Time 205080, Note Name: A#6
Note ON: Time 205080, Note Name: G#6, Velocity: 73
Note ON: Time 205080, Note Name: G#5, Velocity: 62
Note OFF: Time 205320, Note Name: G#5
Note OFF: Time 205320, Note Name: G#6
Note ON: Time 205320, Note Name: F#6, Velocity: 72
Note ON: Time 205320, Note Name: F#5, Velocity: 61
Note OFF: Time 205560, Note Name: F#5
Note OFF: Time 205560, Note Name: F#6
Note ON: Time 205560, Note Name: F#4, Velocity: 56
Note ON: Time 205560, Note Name: A#4, Velocity: 56
Note ON: Time 205560, Note Name: F#5, Velocity: 67
Note OFF: Time 205680, Note Name: F#5
Note OFF: Time 205680, Note Name: A#4
Note OFF: Time 205680, Note Name: F#4
Note ON: Time 205680, Note Name: F4, Velocity: 58
Note ON: Time 205680, Note Name: F5, Velocity: 69
Note ON: Time 205680, Note Name: G#4, Velocity: 58
Note OFF: Time 205800, Note Name: G#4
Note OFF: Time 205800, Note Name: F5
Note OFF: Time 205800, Note Name: F4
Note ON: Time 205800, Note Name: C#5, Velocity: 64
Note ON: Time 205800, Note Name: E4, Velocity: 64
Note ON: Time 205800, Note Name: E5, Velocity: 76
Note ON: Time 205800, Note Name: G4, Velocity: 64
Note OFF: Time 205920, Note Name: G4
Note OFF: Time 205920, Note Name: C#5
Note OFF: Time 205920, Note Name: E4
Note OFF: Time 205920, Note Name: E5
Note ON: Time 205920, Note Name: E4, Velocity: 46
Note ON: Time 205920, Note Name: G4, Velocity: 46
Note ON: Time 205920, Note Name: C#5, Velocity: 46
Note ON: Time 205920, Note Name: E5, Velocity: 55
Note OFF: Time 206400, Note Name: E5
Note OFF: Time 206400, Note Name: E4
Note OFF: Time 206400, Note Name: G4
Note OFF: Time 206400, Note Name: C#5
Note ON: Time 206400, Note Name: C#5, Velocity: 40
Note ON: Time 206400, Note Name: E5, Velocity: 51
Note OFF: Time 206460, Note Name: C#5
Note ON: Time 206460, Note Name: G4, Velocity: 40
Note OFF: Time 206520, Note Name: G4
Note OFF: Time 206520, Note Name: E5
Note ON: Time 206520, Note Name: D#5, Velocity: 40
Note ON: Time 206520, Note Name: B4, Velocity: 40
Note OFF: Time 206580, Note Name: B4
Note ON: Time 206580, Note Name: F#4, Velocity: 40
Note OFF: Time 206640, Note Name: F#4
Note OFF: Time 206640, Note Name: D#5
Note ON: Time 206640, Note Name: D4, Velocity: 29
Note ON: Time 206640, Note Name: F#4, Velocity: 29
Note ON: Time 206640, Note Name: A#4, Velocity: 29
Note ON: Time 206640, Note Name: D5, Velocity: 34
Note OFF: Time 207120, Note Name: D5
Note OFF: Time 207120, Note Name: D4
Note OFF: Time 207120, Note Name: F#4
Note OFF: Time 207120, Note Name: A#4
Note ON: Time 207360, Note Name: F#4, Velocity: 51
Note ON: Time 207360, Note Name: A#4, Velocity: 51
Note ON: Time 207360, Note Name: C#5, Velocity: 61
Note ON: Time 207360, Note Name: C#4, Velocity: 51
Note OFF: Time 207840, Note Name: C#4
Note OFF: Time 207840, Note Name: F#4
Note OFF: Time 207840, Note Name: A#4
Note ON: Time 207840, Note Name: A#4, Velocity: 40
Note OFF: Time 207900, Note Name: A#4
Note ON: Time 207900, Note Name: F#4, Velocity: 40
Note OFF: Time 207960, Note Name: F#4
Note OFF: Time 207960, Note Name: C#5
Note ON: Time 207960, Note Name: A4, Velocity: 40
Note ON: Time 207960, Note Name: C5, Velocity: 40
Note OFF: Time 208020, Note Name: A4
Note ON: Time 208020, Note Name: F#4, Velocity: 40
Note OFF: Time 208080, Note Name: F#4
Note OFF: Time 208080, Note Name: C5
Note ON: Time 208080, Note Name: F4, Velocity: 40
Note ON: Time 208080, Note Name: B4, Velocity: 48
Note ON: Time 208080, Note Name: G#4, Velocity: 40
Note ON: Time 208080, Note Name: D4, Velocity: 40
Note OFF: Time 208320, Note Name: D4
Note OFF: Time 208320, Note Name: F4
Note OFF: Time 208320, Note Name: B4
Note OFF: Time 208320, Note Name: G#4
Note ON: Time 209520, Note Name: G4, Velocity: 38
Note ON: Time 209520, Note Name: A#4, Velocity: 45
Note OFF: Time 209995, Note Name: A#4
Note OFF: Time 209995, Note Name: G4
Note ON: Time 210000, Note Name: G4, Velocity: 36
Note ON: Time 210000, Note Name: A#4, Velocity: 36
Note ON: Time 210000, Note Name: D#5, Velocity: 42
Note OFF: Time 210240, Note Name: D#5
Note OFF: Time 210240, Note Name: A#4
Note OFF: Time 210240, Note Name: G4
Note ON: Time 210240, Note Name: G4, Velocity: 38
Note ON: Time 210240, Note Name: D#4, Velocity: 38
Note ON: Time 210240, Note Name: A#4, Velocity: 38
Note ON: Time 210240, Note Name: D#5, Velocity: 45
Note OFF: Time 210720, Note Name: D#5
Note OFF: Time 210720, Note Name: G4
Note OFF: Time 210720, Note Name: D#4
Note OFF: Time 210720, Note Name: A#4
Note ON: Time 210720, Note Name: D#4, Velocity: 36
Note ON: Time 210720, Note Name: D#5, Velocity: 44
Note ON: Time 210720, Note Name: G4, Velocity: 36
Note OFF: Time 210960, Note Name: G4
Note OFF: Time 210960, Note Name: D#5
Note OFF: Time 210960, Note Name: D#4
Note ON: Time 210960, Note Name: D#4, Velocity: 38
Note ON: Time 210960, Note Name: F#4, Velocity: 38
Note ON: Time 210960, Note Name: D#5, Velocity: 45
Note OFF: Time 211200, Note Name: D#5
Note OFF: Time 211200, Note Name: F#4
Note OFF: Time 211200, Note Name: D#4
Note ON: Time 211200, Note Name: C#4, Velocity: 35
Note ON: Time 211200, Note Name: C#5, Velocity: 41
Note ON: Time 211200, Note Name: F4, Velocity: 35
Note OFF: Time 211680, Note Name: F4
Note OFF: Time 211680, Note Name: C#5
Note OFF: Time 211680, Note Name: C#4
Note ON: Time 211680, Note Name: C#4, Velocity: 35
Note ON: Time 211680, Note Name: F#4, Velocity: 35
Note ON: Time 211680, Note Name: A#4, Velocity: 35
Note ON: Time 211680, Note Name: C#5, Velocity: 41
Note OFF: Time 212160, Note Name: C#5
Note OFF: Time 212160, Note Name: C#4
Note OFF: Time 212160, Note Name: F#4
Note OFF: Time 212160, Note Name: A#4
Note ON: Time 212160, Note Name: A#4, Velocity: 33
Note OFF: Time 212400, Note Name: A#4
Note ON: Time 212400, Note Name: C#4, Velocity: 42
Note OFF: Time 212880, Note Name: C#4
Note ON: Time 212880, Note Name: C#5, Velocity: 36
Note OFF: Time 213120, Note Name: C#5
Note ON: Time 213120, Note Name: A#4, Velocity: 40
Note OFF: Time 213600, Note Name: A#4
Note ON: Time 213600, Note Name: A#5, Velocity: 59
Note ON: Time 213600, Note Name: C#5, Velocity: 49
Note ON: Time 213600, Note Name: A#4, Velocity: 49
Note OFF: Time 213840, Note Name: A#4
Note OFF: Time 213840, Note Name: C#5
Note OFF: Time 213840, Note Name: A#5
Note ON: Time 213840, Note Name: G#4, Velocity: 53
Note ON: Time 213840, Note Name: G#5, Velocity: 63
Note ON: Time 213840, Note Name: B4, Velocity: 53
Note OFF: Time 214320, Note Name: B4
Note OFF: Time 214320, Note Name: G#5
Note OFF: Time 214320, Note Name: G#4
Note ON: Time 214320, Note Name: C#5, Velocity: 51
Note ON: Time 214320, Note Name: B4, Velocity: 43
Note ON: Time 214320, Note Name: G#4, Velocity: 43
Note ON: Time 214320, Note Name: C#4, Velocity: 43
Note OFF: Time 214560, Note Name: C#4
Note OFF: Time 214560, Note Name: C#5
Note OFF: Time 214560, Note Name: B4
Note OFF: Time 214560, Note Name: G#4
Note ON: Time 214560, Note Name: C#5, Velocity: 54
Note ON: Time 214560, Note Name: C#4, Velocity: 45
Note ON: Time 214560, Note Name: A#4, Velocity: 45
Note OFF: Time 215040, Note Name: A#4
Note OFF: Time 215040, Note Name: C#4
Note OFF: Time 215040, Note Name: C#5
Note ON: Time 215040, Note Name: A#5, Velocity: 51
Note OFF: Time 215280, Note Name: A#5
Note ON: Time 215280, Note Name: C#5, Velocity: 50
Note OFF: Time 215760, Note Name: C#5
Note ON: Time 215760, Note Name: C#6, Velocity: 58
Note ON: Time 215760, Note Name: C#5, Velocity: 49
Note OFF: Time 216000, Note Name: C#5
Note OFF: Time 216000, Note Name: C#6
Note ON: Time 216000, Note Name: A#4, Velocity: 54
Note ON: Time 216000, Note Name: A#5, Velocity: 64
Note OFF: Time 216480, Note Name: A#5
Note OFF: Time 216480, Note Name: A#4
Note ON: Time 216480, Note Name: C#5, Velocity: 52
Note ON: Time 216480, Note Name: C#6, Velocity: 62
Note OFF: Time 216960, Note Name: C#6
Note OFF: Time 216960, Note Name: C#5
Note ON: Time 216960, Note Name: C#6, Velocity: 56
Note ON: Time 216960, Note Name: D#5, Velocity: 56
Note ON: Time 216960, Note Name: D#6, Velocity: 67
Note OFF: Time 217080, Note Name: C#6
Note ON: Time 217080, Note Name: B5, Velocity: 61
Note OFF: Time 217200, Note Name: B5
Note OFF: Time 217200, Note Name: D#6
Note OFF: Time 217200, Note Name: D#5
Note ON: Time 217200, Note Name: A#5, Velocity: 67
Note ON: Time 217200, Note Name: F6, Velocity: 67
Note ON: Time 217200, Note Name: F5, Velocity: 56
Note OFF: Time 217320, Note Name: A#5
Note ON: Time 217320, Note Name: B5, Velocity: 60
Note OFF: Time 217440, Note Name: B5
Note OFF: Time 217440, Note Name: F5
Note OFF: Time 217440, Note Name: F6
Note ON: Time 217440, Note Name: A#5, Velocity: 56
Note ON: Time 217440, Note Name: F#6, Velocity: 67
Note ON: Time 217440, Note Name: F#5, Velocity: 56
Note OFF: Time 218160, Note Name: F#5
Note OFF: Time 218160, Note Name: F#6
Note OFF: Time 218160, Note Name: A#5
Note ON: Time 218160, Note Name: G#5, Velocity: 48
Note ON: Time 218160, Note Name: F6, Velocity: 48
Note ON: Time 218160, Note Name: G#6, Velocity: 57
Note ON: Time 218640, Note Name: C#6, Velocity: 52
Note OFF: Time 218880, Note Name: C#6
Note OFF: Time 218880, Note Name: G#5
Note OFF: Time 218880, Note Name: F6
Note OFF: Time 218880, Note Name: G#6
Note ON: Time 218880, Note Name: A#6, Velocity: 43
Note ON: Time 218880, Note Name: F#6, Velocity: 36
Note ON: Time 218880, Note Name: C#6, Velocity: 36
Note ON: Time 218880, Note Name: A#5, Velocity: 36
Note OFF: Time 219360, Note Name: A#5
Note OFF: Time 219360, Note Name: A#6
Note OFF: Time 219360, Note Name: F#6
Note OFF: Time 219360, Note Name: C#6
Note ON: Time 219360, Note Name: A#4, Velocity: 36
Note ON: Time 219360, Note Name: C#5, Velocity: 36
Note ON: Time 219360, Note Name: A#5, Velocity: 43
Note OFF: Time 219598, Note Name: A#5
Note OFF: Time 219598, Note Name: C#5
Note OFF: Time 219598, Note Name: A#4
Note ON: Time 219600, Note Name: C#6, Velocity: 60
Note ON: Time 219600, Note Name: A#5, Velocity: 51
Note ON: Time 219600, Note Name: C#5, Velocity: 51
Note OFF: Time 219960, Note Name: C#5
Note OFF: Time 219960, Note Name: A#5
Note OFF: Time 219960, Note Name: C#6
Note ON: Time 219960, Note Name: D6, Velocity: 67
Note ON: Time 219960, Note Name: B5, Velocity: 57
Note ON: Time 219960, Note Name: D5, Velocity: 57
Note OFF: Time 220080, Note Name: D5
Note OFF: Time 220080, Note Name: B5
Note OFF: Time 220080, Note Name: D6
Note ON: Time 220080, Note Name: E6, Velocity: 72
Note ON: Time 220080, Note Name: C#6, Velocity: 60
Note ON: Time 220080, Note Name: E5, Velocity: 60
Note OFF: Time 220200, Note Name: E5
Note OFF: Time 220200, Note Name: C#6
Note OFF: Time 220200, Note Name: E6
Note ON: Time 220200, Note Name: F#6, Velocity: 56
Note ON: Time 220200, Note Name: D6, Velocity: 47
Note ON: Time 220200, Note Name: F#5, Velocity: 47
Note OFF: Time 220319, Note Name: F#5
Note OFF: Time 220319, Note Name: D6
Note OFF: Time 220319, Note Name: F#6
Note ON: Time 220320, Note Name: F#6, Velocity: 51
Note ON: Time 220320, Note Name: F#5, Velocity: 43
Note OFF: Time 220800, Note Name: F#5
Note OFF: Time 220800, Note Name: F#6
Note ON: Time 220800, Note Name: D6, Velocity: 40
Note ON: Time 220800, Note Name: D5, Velocity: 34
Note OFF: Time 221036, Note Name: D5
Note OFF: Time 221036, Note Name: D6
Note ON: Time 221040, Note Name: D6, Velocity: 46
Note ON: Time 221040, Note Name: D5, Velocity: 39
Note OFF: Time 221280, Note Name: D5
Note OFF: Time 221280, Note Name: D6
Note ON: Time 221280, Note Name: B5, Velocity: 43
Note ON: Time 221280, Note Name: B4, Velocity: 36
Note OFF: Time 221520, Note Name: B4
Note OFF: Time 221520, Note Name: B5
Note ON: Time 221520, Note Name: C#5, Velocity: 36
Note ON: Time 221520, Note Name: C#6, Velocity: 43
Note OFF: Time 221760, Note Name: C#6
Note OFF: Time 221760, Note Name: C#5
Note ON: Time 221760, Note Name: D5, Velocity: 39
Note ON: Time 221760, Note Name: D6, Velocity: 47
Note OFF: Time 222240, Note Name: D6
Note OFF: Time 222240, Note Name: D5
Note ON: Time 223200, Note Name: B4, Velocity: 39
Note ON: Time 223200, Note Name: B5, Velocity: 47
Note OFF: Time 223920, Note Name: B5
Note OFF: Time 223920, Note Name: B4
Note ON: Time 223920, Note Name: D5, Velocity: 39
Note ON: Time 223920, Note Name: D6, Velocity: 47
Note OFF: Time 224640, Note Name: D6
Note OFF: Time 224640, Note Name: D5
Note ON: Time 224640, Note Name: G6, Velocity: 80
Note ON: Time 224640, Note Name: G5, Velocity: 67
Note OFF: Time 225600, Note Name: G5
Note OFF: Time 225600, Note Name: G6
Note ON: Time 225600, Note Name: B4, Velocity: 45
Note ON: Time 225600, Note Name: D5, Velocity: 54
Note OFF: Time 225840, Note Name: D5
Note OFF: Time 225840, Note Name: B4
Note ON: Time 225840, Note Name: F#4, Velocity: 44
Note ON: Time 225840, Note Name: C5, Velocity: 52
Note OFF: Time 225960, Note Name: C5
Note OFF: Time 225960, Note Name: F#4
Note ON: Time 225960, Note Name: G4, Velocity: 40
Note ON: Time 225960, Note Name: B4, Velocity: 47
Note OFF: Time 226080, Note Name: B4
Note OFF: Time 226080, Note Name: G4
Note ON: Time 226080, Note Name: G4, Velocity: 43
Note ON: Time 226080, Note Name: B4, Velocity: 51
Note OFF: Time 226320, Note Name: B4
Note OFF: Time 226320, Note Name: G4
Note ON: Time 226560, Note Name: G2, Velocity: 58
Note OFF: Time 227035, Note Name: G2
Note ON: Time 227040, Note Name: G2, Velocity: 58
Note OFF: Time 227278, Note Name: G2
Note ON: Time 227280, Note Name: G2, Velocity: 56
Note OFF: Time 227360, Note Name: G2
Note ON: Time 227360, Note Name: F#2, Velocity: 50
Note OFF: Time 227440, Note Name: F#2
Note ON: Time 227440, Note Name: G2, Velocity: 50
Note OFF: Time 227500, Note Name: G2
Note ON: Time 227520, Note Name: D2, Velocity: 52
Note OFF: Time 227995, Note Name: D2
Note ON: Time 228000, Note Name: D2, Velocity: 52
Note OFF: Time 228475, Note Name: D2
Note ON: Time 228480, Note Name: D2, Velocity: 52
Note OFF: Time 228960, Note Name: D2
Note ON: Time 228960, Note Name: B1, Velocity: 48
Note OFF: Time 229200, Note Name: B1
Note ON: Time 229440, Note Name: G6, Velocity: 67
Note ON: Time 229440, Note Name: G5, Velocity: 59
Note OFF: Time 229915, Note Name: G5
Note OFF: Time 229915, Note Name: G6
Note ON: Time 229920, Note Name: G5, Velocity: 59
Note ON: Time 229920, Note Name: G6, Velocity: 67
Note OFF: Time 230158, Note Name: G6
Note OFF: Time 230158, Note Name: G5
Note ON: Time 230160, Note Name: G6, Velocity: 65
Note ON: Time 230160, Note Name: G5, Velocity: 57
Note ON: Time 230240, Note Name: F#5, Velocity: 51
Note ON: Time 230240, Note Name: F#6, Velocity: 58
Note OFF: Time 230241, Note Name: G5
Note OFF: Time 230241, Note Name: G6
Note OFF: Time 230320, Note Name: F#5
Note OFF: Time 230320, Note Name: F#6
Note ON: Time 230320, Note Name: G5, Velocity: 46
Note ON: Time 230320, Note Name: G6, Velocity: 55
Note OFF: Time 230380, Note Name: G6
Note OFF: Time 230400, Note Name: G5
Note ON: Time 230400, Note Name: D6, Velocity: 67
Note ON: Time 230400, Note Name: D5, Velocity: 59
Note OFF: Time 230875, Note Name: D5
Note OFF: Time 230875, Note Name: D6
Note ON: Time 230880, Note Name: D5, Velocity: 62
Note ON: Time 230880, Note Name: D6, Velocity: 70
Note OFF: Time 231355, Note Name: D6
Note OFF: Time 231355, Note Name: D5
Note ON: Time 231360, Note Name: D5, Velocity: 63
Note ON: Time 231360, Note Name: D6, Velocity: 72
Note OFF: Time 231835, Note Name: D6
Note OFF: Time 231835, Note Name: D5
Note ON: Time 231840, Note Name: D6, Velocity: 73
Note ON: Time 231840, Note Name: D5, Velocity: 64
Note OFF: Time 232315, Note Name: D5
Note OFF: Time 232315, Note Name: D6
Note ON: Time 232320, Note Name: D5, Velocity: 71
Note ON: Time 232320, Note Name: D6, Velocity: 80
Note OFF: Time 232795, Note Name: D6
Note OFF: Time 232795, Note Name: D5
Note ON: Time 232800, Note Name: D5, Velocity: 75
Note ON: Time 232800, Note Name: D6, Velocity: 84
Note OFF: Time 233120, Note Name: D6
Note OFF: Time 233120, Note Name: D5
Note ON: Time 233120, Note Name: C#5, Velocity: 63
Note ON: Time 233120, Note Name: C#6, Velocity: 72
Note OFF: Time 233200, Note Name: C#6
Note OFF: Time 233200, Note Name: C#5
Note ON: Time 233200, Note Name: D5, Velocity: 64
Note ON: Time 233200, Note Name: D6, Velocity: 73
Note OFF: Time 233278, Note Name: D6
Note OFF: Time 233278, Note Name: D5
Note ON: Time 233280, Note Name: F#5, Velocity: 74
Note ON: Time 233280, Note Name: D6, Velocity: 85
Note ON: Time 233280, Note Name: D5, Velocity: 74
Note OFF: Time 233755, Note Name: D5
Note OFF: Time 233755, Note Name: D6
Note OFF: Time 233755, Note Name: F#5
Note ON: Time 233760, Note Name: F#5, Velocity: 82
Note ON: Time 233760, Note Name: D5, Velocity: 82
Note ON: Time 233760, Note Name: D6, Velocity: 93
Note OFF: Time 234235, Note Name: D6
Note OFF: Time 234235, Note Name: D5
Note OFF: Time 234235, Note Name: F#5
Note ON: Time 234240, Note Name: F#5, Velocity: 86
Note ON: Time 234240, Note Name: F#6, Velocity: 97
Note OFF: Time 234560, Note Name: F#6
Note OFF: Time 234560, Note Name: F#5
Note ON: Time 234560, Note Name: F5, Velocity: 72
Note ON: Time 234560, Note Name: F6, Velocity: 82
Note OFF: Time 234640, Note Name: F6
Note OFF: Time 234640, Note Name: F5
Note ON: Time 234640, Note Name: F#5, Velocity: 73
Note ON: Time 234640, Note Name: F#6, Velocity: 83
Note OFF: Time 234718, Note Name: F#6
Note OFF: Time 234718, Note Name: F#5
Note ON: Time 234720, Note Name: F#5, Velocity: 85
Note ON: Time 234720, Note Name: F#6, Velocity: 97
Note OFF: Time 235195, Note Name: F#6
Note OFF: Time 235195, Note Name: F#5
Note ON: Time 235200, Note Name: F#5, Velocity: 103
Note ON: Time 235200, Note Name: F#6, Velocity: 103
Note OFF: Time 235560, Note Name: F#6
Note OFF: Time 235560, Note Name: F#5
Note ON: Time 235680, Note Name: F#5, Velocity: 103
Note ON: Time 235680, Note Name: F#6, Velocity: 103
Note OFF: Time 236040, Note Name: F#6
Note OFF: Time 236040, Note Name: F#5
Note ON: Time 236160, Note Name: F#6, Velocity: 102
Note ON: Time 236160, Note Name: F#5, Velocity: 102
Note OFF: Time 236279, Note Name: F#5
Note OFF: Time 236279, Note Name: F#6
Note ON: Time 236280, Note Name: F#6, Velocity: 102
Note OFF: Time 236518, Note Name: F#6
Note ON: Time 236520, Note Name: F#6, Velocity: 103
Note OFF: Time 236758, Note Name: F#6
Note ON: Time 236760, Note Name: F#6, Velocity: 104
Note OFF: Time 236998, Note Name: F#6
Note ON: Time 237000, Note Name: F#6, Velocity: 106
Note OFF: Time 237238, Note Name: F#6
Note ON: Time 237240, Note Name: F#6, Velocity: 107
Note OFF: Time 237478, Note Name: F#6
Note ON: Time 237480, Note Name: F#6, Velocity: 108
Note OFF: Time 237600, Note Name: F#6
Note ON: Time 237600, Note Name: C#5, Velocity: 48
Note OFF: Time 238080, Note Name: C#5
Note ON: Time 238080, Note Name: A4, Velocity: 42
Note OFF: Time 238318, Note Name: A4
Note ON: Time 238320, Note Name: A4, Velocity: 47
Note OFF: Time 238560, Note Name: A4
Note ON: Time 238560, Note Name: F#4, Velocity: 41
Note OFF: Time 238800, Note Name: F#4
Note ON: Time 238800, Note Name: F4, Velocity: 34
Note ON: Time 238800, Note Name: G#4, Velocity: 41
Note ON: Time 238800, Note Name: C#4, Velocity: 34
Note OFF: Time 239040, Note Name: C#4
Note OFF: Time 239040, Note Name: G#4
Note OFF: Time 239040, Note Name: F4
Note ON: Time 239040, Note Name: A3, Velocity: 42
Note ON: Time 239040, Note Name: F#4, Velocity: 42
Note ON: Time 239040, Note Name: A4, Velocity: 50
Note ON: Time 239040, Note Name: C#4, Velocity: 42
Note OFF: Time 239520, Note Name: C#4
Note OFF: Time 239520, Note Name: A3
Note OFF: Time 239520, Note Name: F#4
Note OFF: Time 239520, Note Name: A4
Note ON: Time 239520, Note Name: A#3, Velocity: 47
Note ON: Time 239520, Note Name: C#4, Velocity: 47
Note ON: Time 239520, Note Name: F#4, Velocity: 47
Note ON: Time 239520, Note Name: A#4, Velocity: 56
Note OFF: Time 239760, Note Name: A#4
Note OFF: Time 239760, Note Name: A#3
Note OFF: Time 239760, Note Name: C#4
Note OFF: Time 239760, Note Name: F#4
Note ON: Time 239760, Note Name: D4, Velocity: 51
Note ON: Time 239760, Note Name: B3, Velocity: 51
Note ON: Time 239760, Note Name: B4, Velocity: 61
Note ON: Time 239760, Note Name: F#4, Velocity: 51
Note OFF: Time 240240, Note Name: F#4
Note OFF: Time 240240, Note Name: D4
Note OFF: Time 240240, Note Name: B3
Note OFF: Time 240240, Note Name: B4
Note ON: Time 240240, Note Name: B4, Velocity: 55
Note ON: Time 240240, Note Name: F#4, Velocity: 55
Note ON: Time 240240, Note Name: D4, Velocity: 55
Note ON: Time 240240, Note Name: D5, Velocity: 66
Note OFF: Time 240480, Note Name: D5
Note OFF: Time 240480, Note Name: B4
Note OFF: Time 240480, Note Name: F#4
Note OFF: Time 240480, Note Name: D4
Note ON: Time 240480, Note Name: B4, Velocity: 67
Note ON: Time 240480, Note Name: D4, Velocity: 67
Note ON: Time 240480, Note Name: D5, Velocity: 79
Note ON: Time 240480, Note Name: F4, Velocity: 67
Note OFF: Time 240960, Note Name: F4
Note OFF: Time 240960, Note Name: B4
Note OFF: Time 240960, Note Name: D4
Note OFF: Time 240960, Note Name: D5
Note ON: Time 240960, Note Name: A4, Velocity: 55
Note ON: Time 240960, Note Name: F#4, Velocity: 55
Note ON: Time 240960, Note Name: C#5, Velocity: 65
Note ON: Time 240960, Note Name: C#4, Velocity: 55
Note OFF: Time 241198, Note Name: C#4
Note OFF: Time 241198, Note Name: A4
Note OFF: Time 241198, Note Name: F#4
Note OFF: Time 241198, Note Name: C#5
Note ON: Time 241200, Note Name: A4, Velocity: 63
Note ON: Time 241200, Note Name: F#4, Velocity: 63
Note ON: Time 241200, Note Name: C#5, Velocity: 76
Note ON: Time 241200, Note Name: C#4, Velocity: 63
Note OFF: Time 241440, Note Name: C#4
Note OFF: Time 241440, Note Name: A4
Note OFF: Time 241440, Note Name: F#4
Note OFF: Time 241440, Note Name: C#5
Note ON: Time 241440, Note Name: B3, Velocity: 55
Note ON: Time 241440, Note Name: D4, Velocity: 55
Note ON: Time 241440, Note Name: G#4, Velocity: 55
Note ON: Time 241440, Note Name: B4, Velocity: 68
Note OFF: Time 241680, Note Name: B4
Note OFF: Time 241680, Note Name: B3
Note OFF: Time 241680, Note Name: D4
Note OFF: Time 241680, Note Name: G#4
Note ON: Time 241680, Note Name: F#4, Velocity: 55
Note ON: Time 241680, Note Name: D#4, Velocity: 55
Note ON: Time 241680, Note Name: A3, Velocity: 55
Note ON: Time 241680, Note Name: A4, Velocity: 67
Note OFF: Time 241920, Note Name: A4
Note OFF: Time 241920, Note Name: F#4
Note OFF: Time 241920, Note Name: D#4
Note OFF: Time 241920, Note Name: A3
Note ON: Time 241920, Note Name: F#4, Velocity: 48
Note ON: Time 241920, Note Name: A3, Velocity: 48
Note ON: Time 241920, Note Name: A4, Velocity: 57
Note ON: Time 241920, Note Name: D#4, Velocity: 48
Note ON: Time 242160, Note Name: C#4, Velocity: 46
Note OFF: Time 242400, Note Name: D#4
Note OFF: Time 242400, Note Name: A4
Note OFF: Time 242400, Note Name: F#4
Note OFF: Time 242400, Note Name: A3
Note ON: Time 242400, Note Name: F4, Velocity: 46
Note ON: Time 242400, Note Name: G#3, Velocity: 46
Note ON: Time 242400, Note Name: G#4, Velocity: 55
Note OFF: Time 242640, Note Name: G#4
Note OFF: Time 242640, Note Name: C#4
Note OFF: Time 242640, Note Name: F4
Note OFF: Time 242640, Note Name: G#3
Note ON: Time 242640, Note Name: F4, Velocity: 53
Note ON: Time 242640, Note Name: C#4, Velocity: 53
Note ON: Time 242640, Note Name: G#4, Velocity: 64
Note ON: Time 242640, Note Name: G#3, Velocity: 53
Note OFF: Time 242880, Note Name: G#3
Note OFF: Time 242880, Note Name: F4
Note OFF: Time 242880, Note Name: C#4
Note OFF: Time 242880, Note Name: G#4
Note ON: Time 242880, Note Name: G3, Velocity: 49
Note ON: Time 242880, Note Name: A#3, Velocity: 49
Note ON: Time 242880, Note Name: E4, Velocity: 49
Note ON: Time 242880, Note Name: G4, Velocity: 60
Note OFF: Time 243120, Note Name: E4
Note OFF: Time 243120, Note Name: G3
Note OFF: Time 243120, Note Name: A#3
Note ON: Time 243120, Note Name: D4, Velocity: 52
Note ON: Time 243120, Note Name: B3, Velocity: 52
Note ON: Time 243120, Note Name: G3, Velocity: 52
Note OFF: Time 243300, Note Name: G3
Note OFF: Time 243300, Note Name: B3
Note OFF: Time 243300, Note Name: D4
Note ON: Time 243300, Note Name: G4, Velocity: 53
Note OFF: Time 243360, Note Name: G4
Note OFF: Time 243360, Note Name: G4
Note ON: Time 243360, Note Name: B5, Velocity: 65
Note ON: Time 243600, Note Name: B4, Velocity: 55
Note OFF: Time 243840, Note Name: B4
Note OFF: Time 243840, Note Name: B5
Note ON: Time 243840, Note Name: A4, Velocity: 52
Note ON: Time 243840, Note Name: A5, Velocity: 62
Note OFF: Time 244078, Note Name: A5
Note OFF: Time 244078, Note Name: A4
Note ON: Time 244080, Note Name: A4, Velocity: 55
Note ON: Time 244080, Note Name: A5, Velocity: 65
Note OFF: Time 244320, Note Name: A5
Note OFF: Time 244320, Note Name: A4
Note ON: Time 244320, Note Name: G4, Velocity: 51
Note ON: Time 244320, Note Name: G5, Velocity: 57
Note OFF: Time 244560, Note Name: G5
Note OFF: Time 244560, Note Name: G4
Note ON: Time 244560, Note Name: F#4, Velocity: 50
Note ON: Time 244560, Note Name: F#5, Velocity: 57
Note OFF: Time 244798, Note Name: F#5
Note OFF: Time 244798, Note Name: F#4
Note ON: Time 244800, Note Name: F#4, Velocity: 55
Note ON: Time 244800, Note Name: F#5, Velocity: 65
Note OFF: Time 245040, Note Name: F#5
Note OFF: Time 245040, Note Name: F#4
Note ON: Time 245040, Note Name: E4, Velocity: 52
Note ON: Time 245040, Note Name: E5, Velocity: 56
Note OFF: Time 245280, Note Name: E5
Note OFF: Time 245280, Note Name: E4
Note ON: Time 245280, Note Name: F#4, Velocity: 52
Note ON: Time 245280, Note Name: F#5, Velocity: 56
Note OFF: Time 245518, Note Name: F#5
Note OFF: Time 245518, Note Name: F#4
Note ON: Time 245520, Note Name: F#4, Velocity: 52
Note ON: Time 245520, Note Name: F#5, Velocity: 61
Note OFF: Time 245760, Note Name: F#5
Note OFF: Time 245760, Note Name: F#4
Note ON: Time 245760, Note Name: G4, Velocity: 55
Note ON: Time 245760, Note Name: G5, Velocity: 59
Note OFF: Time 246120, Note Name: G5
Note OFF: Time 246120, Note Name: G4
Note ON: Time 246120, Note Name: F#3, Velocity: 43
Note ON: Time 246120, Note Name: F#4, Velocity: 46
Note OFF: Time 246239, Note Name: F#4
Note OFF: Time 246239, Note Name: F#3
Note ON: Time 246240, Note Name: F#3, Velocity: 45
Note ON: Time 246240, Note Name: F#4, Velocity: 60
Note OFF: Time 246480, Note Name: F#4
Note OFF: Time 246480, Note Name: F#3
Note ON: Time 246480, Note Name: A3, Velocity: 45
Note ON: Time 246480, Note Name: A4, Velocity: 53
Note OFF: Time 246720, Note Name: A4
Note OFF: Time 246720, Note Name: A3
Note ON: Time 246720, Note Name: C#4, Velocity: 43
Note ON: Time 246720, Note Name: F#4, Velocity: 43
Note ON: Time 246720, Note Name: A4, Velocity: 43
Note ON: Time 246720, Note Name: C#5, Velocity: 51
Note OFF: Time 246958, Note Name: C#5
Note OFF: Time 246958, Note Name: C#4
Note OFF: Time 246958, Note Name: F#4
Note OFF: Time 246958, Note Name: A4
Note ON: Time 246960, Note Name: C#4, Velocity: 45
Note ON: Time 246960, Note Name: C#5, Velocity: 54
Note ON: Time 246960, Note Name: F4, Velocity: 45
Note ON: Time 246960, Note Name: G#4, Velocity: 45
Note OFF: Time 247440, Note Name: G#4
Note OFF: Time 247440, Note Name: C#4
Note OFF: Time 247440, Note Name: C#5
Note OFF: Time 247440, Note Name: F4
Note ON: Time 247440, Note Name: C#4, Velocity: 36
Note ON: Time 247440, Note Name: C#5, Velocity: 43
Note ON: Time 247440, Note Name: A4, Velocity: 36
Note ON: Time 247440, Note Name: F#4, Velocity: 36
Note OFF: Time 247678, Note Name: F#4
Note OFF: Time 247678, Note Name: C#4
Note OFF: Time 247678, Note Name: C#5
Note OFF: Time 247678, Note Name: A4
Note ON: Time 247680, Note Name: A4, Velocity: 40
Note ON: Time 247680, Note Name: C#4, Velocity: 40
Note ON: Time 247680, Note Name: C#5, Velocity: 48
Note OFF: Time 247920, Note Name: C#5
Note OFF: Time 247920, Note Name: C#4
Note OFF: Time 247920, Note Name: A4
Note ON: Time 247920, Note Name: D4, Velocity: 36
Note ON: Time 247920, Note Name: D5, Velocity: 43
Note ON: Time 247920, Note Name: G4, Velocity: 36
Note OFF: Time 248160, Note Name: G4
Note OFF: Time 248160, Note Name: D5
Note OFF: Time 248160, Note Name: D4
Note ON: Time 248160, Note Name: G3, Velocity: 36
Note ON: Time 248160, Note Name: G4, Velocity: 43
Note OFF: Time 248400, Note Name: G4
Note OFF: Time 248400, Note Name: G3
Note ON: Time 248400, Note Name: B3, Velocity: 37
Note ON: Time 248400, Note Name: B4, Velocity: 47
Note OFF: Time 248640, Note Name: B4
Note OFF: Time 248640, Note Name: B3
Note ON: Time 248640, Note Name: C#3, Velocity: 37
Note ON: Time 248640, Note Name: C#4, Velocity: 45
Note OFF: Time 248880, Note Name: C#4
Note OFF: Time 248880, Note Name: C#3
Note ON: Time 248880, Note Name: F4, Velocity: 44
Note ON: Time 248880, Note Name: F3, Velocity: 37
Note OFF: Time 249000, Note Name: F3
Note OFF: Time 249000, Note Name: F4
Note ON: Time 249000, Note Name: F#3, Velocity: 32
Note ON: Time 249000, Note Name: F#4, Velocity: 38
Note OFF: Time 249120, Note Name: F#4
Note OFF: Time 249120, Note Name: F#3
Note ON: Time 249120, Note Name: F#3, Velocity: 25
Note ON: Time 249120, Note Name: A#3, Velocity: 25
Note ON: Time 249120, Note Name: E4, Velocity: 25
Note ON: Time 249120, Note Name: F#4, Velocity: 52
Note OFF: Time 249480, Note Name: E4
Note OFF: Time 249480, Note Name: F#3
Note OFF: Time 249480, Note Name: A#3
Note ON: Time 249480, Note Name: F#4, Velocity: 25
Note OFF: Time 249600, Note Name: F#4
Note ON: Time 249600, Note Name: F#5, Velocity: 57
Note OFF: Time 249718, Note Name: F#4
Note ON: Time 249720, Note Name: F#4, Velocity: 25
Note OFF: Time 249840, Note Name: F#5
Note ON: Time 249840, Note Name: F#5, Velocity: 57
Note OFF: Time 249958, Note Name: F#4
Note ON: Time 249960, Note Name: F#4, Velocity: 25
Note OFF: Time 250198, Note Name: F#4
Note ON: Time 250200, Note Name: F#4, Velocity: 25
Note OFF: Time 250320, Note Name: F#5
Note ON: Time 250320, Note Name: C#5, Velocity: 50
Note OFF: Time 250438, Note Name: F#4
Note ON: Time 250440, Note Name: F#4, Velocity: 25
Note OFF: Time 250560, Note Name: C#5
Note ON: Time 250560, Note Name: E5, Velocity: 57
Note OFF: Time 250678, Note Name: F#4
Note ON: Time 250680, Note Name: F#4, Velocity: 25
Note OFF: Time 250800, Note Name: E5
Note ON: Time 250800, Note Name: D5, Velocity: 51
Note OFF: Time 250918, Note Name: F#4
Note ON: Time 250920, Note Name: D4, Velocity: 25
Note ON: Time 250920, Note Name: G#4, Velocity: 25
Note ON: Time 250920, Note Name: F4, Velocity: 25
Note OFF: Time 251040, Note Name: D5
Note ON: Time 251040, Note Name: B4, Velocity: 51
Note OFF: Time 251158, Note Name: D4
Note OFF: Time 251158, Note Name: F4
Note OFF: Time 251158, Note Name: G#4
Note ON: Time 251160, Note Name: D4, Velocity: 25
Note ON: Time 251160, Note Name: F4, Velocity: 25
Note ON: Time 251160, Note Name: G#4, Velocity: 25
Note OFF: Time 251398, Note Name: G#4
Note OFF: Time 251398, Note Name: F4
Note OFF: Time 251398, Note Name: D4
Note ON: Time 251400, Note Name: D4, Velocity: 25
Note ON: Time 251400, Note Name: F4, Velocity: 25
Note ON: Time 251400, Note Name: G#4, Velocity: 25
Note OFF: Time 251520, Note Name: B4
Note ON: Time 251520, Note Name: D5, Velocity: 56
Note OFF: Time 251638, Note Name: D4
Note OFF: Time 251638, Note Name: G#4
Note OFF: Time 251638, Note Name: F4
Note ON: Time 251640, Note Name: D4, Velocity: 25
Note ON: Time 251640, Note Name: F4, Velocity: 25
Note ON: Time 251640, Note Name: G#4, Velocity: 25
Note OFF: Time 251760, Note Name: D5
Note ON: Time 251760, Note Name: B4, Velocity: 53
Note OFF: Time 251878, Note Name: D4
Note OFF: Time 251878, Note Name: G#4
Note OFF: Time 251878, Note Name: F4
Note ON: Time 251880, Note Name: D4, Velocity: 25
Note ON: Time 251880, Note Name: F4, Velocity: 25
Note ON: Time 251880, Note Name: G#4, Velocity: 25
Note OFF: Time 251999, Note Name: G#4
Note OFF: Time 251999, Note Name: F4
Note OFF: Time 251999, Note Name: D4
Note OFF: Time 252000, Note Name: B4
Note ON: Time 252000, Note Name: C#4, Velocity: 34
Note ON: Time 252000, Note Name: F#4, Velocity: 34
Note ON: Time 252000, Note Name: A#4, Velocity: 48
Note OFF: Time 252080, Note Name: A#4
Note ON: Time 252080, Note Name: F#5, Velocity: 45
Note OFF: Time 252160, Note Name: F#5
Note ON: Time 252160, Note Name: C#5, Velocity: 48
Note OFF: Time 252240, Note Name: C#5
Note OFF: Time 252240, Note Name: F#4
Note OFF: Time 252240, Note Name: C#4
Note ON: Time 252240, Note Name: A#5, Velocity: 54
Note OFF: Time 252320, Note Name: A#5
Note ON: Time 252320, Note Name: F#5, Velocity: 51
Note OFF: Time 252400, Note Name: F#5
Note ON: Time 252400, Note Name: C#6, Velocity: 51
Note OFF: Time 252480, Note Name: C#6
Note ON: Time 252480, Note Name: F#5, Velocity: 57
Note OFF: Time 252560, Note Name: F#5
Note ON: Time 252560, Note Name: G6, Velocity: 63
Note OFF: Time 252640, Note Name: G6
Note ON: Time 252640, Note Name: F#6, Velocity: 59
Note OFF: Time 252720, Note Name: F#6
Note ON: Time 252720, Note Name: F6, Velocity: 64
Note OFF: Time 252800, Note Name: F6
Note ON: Time 252800, Note Name: F#6, Velocity: 59
Note OFF: Time 252880, Note Name: F#6
Note ON: Time 252880, Note Name: E6, Velocity: 59
Note OFF: Time 253040, Note Name: E6
Note ON: Time 253040, Note Name: C#6, Velocity: 57
Note OFF: Time 253120, Note Name: C#6
Note ON: Time 253120, Note Name: A#5, Velocity: 57
Note OFF: Time 253200, Note Name: A#5
Note ON: Time 253200, Note Name: C#5, Velocity: 34
Note ON: Time 253200, Note Name: G5, Velocity: 62
Note OFF: Time 253280, Note Name: G5
Note ON: Time 253280, Note Name: F#5, Velocity: 60
Note OFF: Time 253360, Note Name: F#5
Note ON: Time 253360, Note Name: E5, Velocity: 60
Note OFF: Time 253440, Note Name: C#5
Note OFF: Time 253520, Note Name: E5
Note ON: Time 253520, Note Name: C#5, Velocity: 59
Note OFF: Time 253600, Note Name: C#5
Note ON: Time 253600, Note Name: D5, Velocity: 59
Note OFF: Time 253680, Note Name: D5
Note ON: Time 253680, Note Name: B5, Velocity: 63
Note OFF: Time 253760, Note Name: B5
Note ON: Time 253760, Note Name: G#5, Velocity: 53
Note OFF: Time 253840, Note Name: G#5
Note ON: Time 253840, Note Name: D6, Velocity: 58
Note OFF: Time 254000, Note Name: D6
Note ON: Time 254000, Note Name: C#6, Velocity: 53
Note OFF: Time 254080, Note Name: C#6
Note ON: Time 254080, Note Name: B5, Velocity: 50
Note OFF: Time 254158, Note Name: B5
Note ON: Time 254160, Note Name: B4, Velocity: 42
Note ON: Time 254160, Note Name: D5, Velocity: 42
Note ON: Time 254160, Note Name: F5, Velocity: 42
Note ON: Time 254160, Note Name: G#5, Velocity: 42
Note ON: Time 254160, Note Name: B5, Velocity: 52
Note OFF: Time 254635, Note Name: B5
Note OFF: Time 254635, Note Name: F5
Note OFF: Time 254635, Note Name: B4
Note OFF: Time 254635, Note Name: D5
Note OFF: Time 254635, Note Name: G#5
Note ON: Time 254640, Note Name: B4, Velocity: 44
Note ON: Time 254640, Note Name: D5, Velocity: 44
Note ON: Time 254640, Note Name: F5, Velocity: 44
Note ON: Time 254640, Note Name: G#5, Velocity: 44
Note ON: Time 254640, Note Name: B5, Velocity: 56
Note OFF: Time 254880, Note Name: B5
Note OFF: Time 254880, Note Name: F5
Note OFF: Time 254880, Note Name: B4
Note OFF: Time 254880, Note Name: D5
Note OFF: Time 254880, Note Name: G#5
Note ON: Time 254880, Note Name: A#4, Velocity: 43
Note ON: Time 254880, Note Name: C#5, Velocity: 43
Note ON: Time 254880, Note Name: F#5, Velocity: 43
Note ON: Time 254880, Note Name: A#5, Velocity: 54
Note OFF: Time 256078, Note Name: A#5
Note OFF: Time 256078, Note Name: A#4
Note OFF: Time 256078, Note Name: C#5
Note OFF: Time 256078, Note Name: F#5
Note ON: Time 256080, Note Name: A#4, Velocity: 42
Note ON: Time 256080, Note Name: C#5, Velocity: 42
Note ON: Time 256080, Note Name: F#5, Velocity: 42
Note ON: Time 256080, Note Name: A#5, Velocity: 53
Note OFF: Time 256798, Note Name: A#5
Note OFF: Time 256798, Note Name: A#4
Note OFF: Time 256798, Note Name: C#5
Note OFF: Time 256798, Note Name: F#5
Note ON: Time 256800, Note Name: F#6, Velocity: 50
Note ON: Time 256800, Note Name: A#5, Velocity: 40
Note ON: Time 256800, Note Name: F#5, Velocity: 40
Note OFF: Time 257518, Note Name: F#5
Note OFF: Time 257518, Note Name: A#5
Note OFF: Time 257518, Note Name: F#6
Note ON: Time 257520, Note Name: F#5, Velocity: 36
Note ON: Time 257520, Note Name: A#5, Velocity: 36
Note ON: Time 257520, Note Name: F#6, Velocity: 46
Note OFF: Time 257995, Note Name: F#6
Note OFF: Time 257995, Note Name: A#5
Note OFF: Time 257995, Note Name: F#5
Note ON: Time 258000, Note Name: A#6, Velocity: 44
Note ON: Time 258000, Note Name: C#6, Velocity: 35
Note ON: Time 258000, Note Name: A#5, Velocity: 35
Note OFF: Time 258951, Note Name: A#5
Note OFF: Time 258951, Note Name: C#6
Note OFF: Time 258951, Note Name: A#6
Note ON: Time 258960, Note Name: C#5, Velocity: 35
Note OFF: Time 259200, Note Name: C#5
Note ON: Time 259200, Note Name: C#5, Velocity: 38
Note OFF: Time 259680, Note Name: C#5
Note ON: Time 259680, Note Name: A4, Velocity: 33
Note OFF: Time 259918, Note Name: A4
Note ON: Time 259920, Note Name: A4, Velocity: 37
Note OFF: Time 260160, Note Name: A4
Note ON: Time 260160, Note Name: F#4, Velocity: 32
Note OFF: Time 260400, Note Name: F#4
Note ON: Time 260400, Note Name: F4, Velocity: 27
Note ON: Time 260400, Note Name: G#4, Velocity: 32
Note ON: Time 260400, Note Name: C#4, Velocity: 27
Note OFF: Time 260640, Note Name: C#4
Note OFF: Time 260640, Note Name: G#4
Note OFF: Time 260640, Note Name: F4
Note ON: Time 260640, Note Name: F#4, Velocity: 33
Note ON: Time 260640, Note Name: A4, Velocity: 40
Note ON: Time 260640, Note Name: C#4, Velocity: 33
Note OFF: Time 261120, Note Name: C#4
Note OFF: Time 261120, Note Name: A4
Note OFF: Time 261120, Note Name: F#4
Note ON: Time 261120, Note Name: A#3, Velocity: 29
Note ON: Time 261120, Note Name: C#4, Velocity: 29
Note ON: Time 261120, Note Name: F#4, Velocity: 29
Note ON: Time 261120, Note Name: A#4, Velocity: 37
Note OFF: Time 261360, Note Name: A#4
Note OFF: Time 261360, Note Name: A#3
Note OFF: Time 261360, Note Name: C#4
Note OFF: Time 261360, Note Name: F#4
Note ON: Time 261360, Note Name: D4, Velocity: 36
Note ON: Time 261360, Note Name: B3, Velocity: 36
Note ON: Time 261360, Note Name: B4, Velocity: 46
Note ON: Time 261360, Note Name: F#4, Velocity: 36
Note OFF: Time 261840, Note Name: F#4
Note OFF: Time 261840, Note Name: D4
Note OFF: Time 261840, Note Name: B3
Note OFF: Time 261840, Note Name: B4
Note ON: Time 261840, Note Name: A#4, Velocity: 39
Note ON: Time 261840, Note Name: F#4, Velocity: 39
Note ON: Time 261840, Note Name: C#4, Velocity: 39
Note ON: Time 261840, Note Name: C#5, Velocity: 49
Note OFF: Time 262080, Note Name: C#5
Note OFF: Time 262080, Note Name: A#4
Note OFF: Time 262080, Note Name: F#4
Note OFF: Time 262080, Note Name: C#4
Note ON: Time 262080, Note Name: B4, Velocity: 44
Note ON: Time 262080, Note Name: D4, Velocity: 44
Note ON: Time 262080, Note Name: D5, Velocity: 56
Note ON: Time 262080, Note Name: F#4, Velocity: 44
Note OFF: Time 262318, Note Name: F#4
Note OFF: Time 262318, Note Name: B4
Note OFF: Time 262318, Note Name: D4
Note OFF: Time 262318, Note Name: D5
Note ON: Time 262320, Note Name: B4, Velocity: 28
Note ON: Time 262320, Note Name: G#4, Velocity: 28
Note ON: Time 262320, Note Name: D5, Velocity: 35
Note ON: Time 262320, Note Name: D4, Velocity: 28
Note OFF: Time 262795, Note Name: D4
Note OFF: Time 262795, Note Name: B4
Note OFF: Time 262795, Note Name: G#4
Note OFF: Time 262795, Note Name: D5
Note ON: Time 262800, Note Name: B4, Velocity: 33
Note ON: Time 262800, Note Name: G#4, Velocity: 33
Note ON: Time 262800, Note Name: D5, Velocity: 42
Note ON: Time 262800, Note Name: D4, Velocity: 33
Note OFF: Time 263275, Note Name: D4
Note OFF: Time 263275, Note Name: B4
Note OFF: Time 263275, Note Name: G#4
Note OFF: Time 263275, Note Name: D5
Note ON: Time 263280, Note Name: D4, Velocity: 25
Note ON: Time 263280, Note Name: G#4, Velocity: 25
Note ON: Time 263280, Note Name: B4, Velocity: 25
Note ON: Time 263280, Note Name: D5, Velocity: 32
Note OFF: Time 263400, Note Name: D5
Note OFF: Time 263400, Note Name: D4
Note OFF: Time 263400, Note Name: G#4
Note OFF: Time 263400, Note Name: B4
Note ON: Time 263400, Note Name: A#4, Velocity: 25
Note ON: Time 263400, Note Name: C#4, Velocity: 25
Note ON: Time 263400, Note Name: C#5, Velocity: 32
Note OFF: Time 263517, Note Name: C#5
Note OFF: Time 263517, Note Name: C#4
Note OFF: Time 263517, Note Name: A#4
Note ON: Time 263520, Note Name: C#4, Velocity: 33
Note ON: Time 263520, Note Name: A#4, Velocity: 33
Note ON: Time 263520, Note Name: C#5, Velocity: 39
Note OFF: Time 264960, Note Name: C#5
Note OFF: Time 264960, Note Name: A#4
Note OFF: Time 264960, Note Name: C#4
Note ON: Time 264960, Note Name: A#4, Velocity: 28
Note ON: Time 264960, Note Name: F#5, Velocity: 28
Note ON: Time 264960, Note Name: C#6, Velocity: 33
Note OFF: Time 266398, Note Name: C#6
Note OFF: Time 266398, Note Name: F#5
Note OFF: Time 266398, Note Name: A#4
Note ON: Time 266400, Note Name: A#4, Velocity: 28
Note ON: Time 266400, Note Name: F#5, Velocity: 28
Note ON: Time 266400, Note Name: C#6, Velocity: 33
Note OFF: Time 267120, Note Name: C#6
Note OFF: Time 267120, Note Name: F#5
Note OFF: Time 267120, Note Name: A#4
Note ON: Time 267120, Note Name: A#3, Velocity: 28
Note ON: Time 267120, Note Name: F#4, Velocity: 28
Note ON: Time 267120, Note Name: C#5, Velocity: 33
Note OFF: Time 267840, Note Name: C#5
Note OFF: Time 267840, Note Name: F#4
Note OFF: Time 267840, Note Name: A#3
Note ON: Time 268020, Note Name: A#3, Velocity: 24
Note ON: Time 268080, Note Name: F#4, Velocity: 24
Note ON: Time 268140, Note Name: C#5, Velocity: 33
Note OFF: Time 268320, Note Name: C#5
Note OFF: Time 268320, Note Name: F#4
Note OFF: Time 268320, Note Name: A#3
Track 2: Piano left
Note ON: Time 0, Note Name: A1, Velocity: 23
Note ON: Time 0, Note Name: A2, Velocity: 28
Note OFF: Time 720, Note Name: A2
Note OFF: Time 720, Note Name: A1
Note ON: Time 720, Note Name: C#2, Velocity: 21
Note ON: Time 720, Note Name: C#3, Velocity: 30
Note OFF: Time 1440, Note Name: C#3
Note OFF: Time 1440, Note Name: C#2
Note ON: Time 1440, Note Name: F#2, Velocity: 29
Note ON: Time 1440, Note Name: C#3, Velocity: 29
Note ON: Time 1440, Note Name: F#3, Velocity: 35
Note OFF: Time 2160, Note Name: F#3
Note OFF: Time 2160, Note Name: C#3
Note OFF: Time 2160, Note Name: F#2
Note ON: Time 2160, Note Name: F#2, Velocity: 29
Note ON: Time 2160, Note Name: C#3, Velocity: 29
Note ON: Time 2160, Note Name: F#3, Velocity: 35
Note OFF: Time 2400, Note Name: F#3
Note OFF: Time 2400, Note Name: C#3
Note OFF: Time 2400, Note Name: F#2
Note ON: Time 2400, Note Name: A2, Velocity: 26
Note ON: Time 2400, Note Name: C#3, Velocity: 26
Note ON: Time 2400, Note Name: A3, Velocity: 31
Note OFF: Time 2640, Note Name: A3
Note OFF: Time 2640, Note Name: C#3
Note OFF: Time 2640, Note Name: A2
Note ON: Time 2640, Note Name: G#2, Velocity: 26
Note ON: Time 2640, Note Name: C#3, Velocity: 26
Note ON: Time 2640, Note Name: G#3, Velocity: 31
Note OFF: Time 2880, Note Name: G#3
Note OFF: Time 2880, Note Name: C#3
Note OFF: Time 2880, Note Name: G#2
Note ON: Time 2880, Note Name: F#2, Velocity: 28
Note ON: Time 2880, Note Name: C#3, Velocity: 28
Note ON: Time 2880, Note Name: F#3, Velocity: 34
Note OFF: Time 3600, Note Name: F#3
Note OFF: Time 3600, Note Name: C#3
Note OFF: Time 3600, Note Name: F#2
Note ON: Time 3600, Note Name: D2, Velocity: 33
Note ON: Time 3600, Note Name: D3, Velocity: 39
Note OFF: Time 4080, Note Name: D3
Note OFF: Time 4080, Note Name: D2
Note ON: Time 4080, Note Name: B1, Velocity: 34
Note ON: Time 4080, Note Name: B2, Velocity: 40
Note OFF: Time 4318, Note Name: B2
Note OFF: Time 4318, Note Name: B1
Note ON: Time 4320, Note Name: B1, Velocity: 37
Note ON: Time 4320, Note Name: B2, Velocity: 46
Note OFF: Time 4800, Note Name: B2
Note OFF: Time 4800, Note Name: B1
Note ON: Time 4800, Note Name: A1, Velocity: 35
Note ON: Time 4800, Note Name: A2, Velocity: 42
Note OFF: Time 5038, Note Name: A2
Note OFF: Time 5038, Note Name: A1
Note ON: Time 5040, Note Name: A1, Velocity: 39
Note ON: Time 5040, Note Name: A2, Velocity: 48
Note OFF: Time 5280, Note Name: A2
Note OFF: Time 5280, Note Name: A1
Note ON: Time 5280, Note Name: G#1, Velocity: 38
Note ON: Time 5280, Note Name: G#2, Velocity: 45
Note OFF: Time 5520, Note Name: G#2
Note OFF: Time 5520, Note Name: G#1
Note ON: Time 5520, Note Name: F#1, Velocity: 40
Note ON: Time 5520, Note Name: F#2, Velocity: 48
Note OFF: Time 5760, Note Name: F#2
Note OFF: Time 5760, Note Name: F#1
Note ON: Time 5760, Note Name: F1, Velocity: 39
Note ON: Time 5760, Note Name: F2, Velocity: 48
Note OFF: Time 6480, Note Name: F2
Note OFF: Time 6480, Note Name: F1
Note ON: Time 6480, Note Name: B3, Velocity: 30
Note ON: Time 6480, Note Name: G#3, Velocity: 30
Note ON: Time 6480, Note Name: F3, Velocity: 30
Note ON: Time 6480, Note Name: D4, Velocity: 36
Note OFF: Time 7200, Note Name: D4
Note OFF: Time 7200, Note Name: B3
Note OFF: Time 7200, Note Name: G#3
Note OFF: Time 7200, Note Name: F3
Note ON: Time 7200, Note Name: F1, Velocity: 28
Note ON: Time 7200, Note Name: F2, Velocity: 34
Note OFF: Time 7920, Note Name: F2
Note OFF: Time 7920, Note Name: F1
Note ON: Time 7920, Note Name: F#1, Velocity: 25
Note ON: Time 7920, Note Name: F#2, Velocity: 30
Note OFF: Time 8400, Note Name: F#2
Note OFF: Time 8400, Note Name: F#1
Note ON: Time 8400, Note Name: G#1, Velocity: 26
Note ON: Time 8400, Note Name: G#2, Velocity: 31
Note OFF: Time 8638, Note Name: G#2
Note OFF: Time 8638, Note Name: G#1
Note ON: Time 8640, Note Name: G#1, Velocity: 29
Note ON: Time 8640, Note Name: G#2, Velocity: 35
Note OFF: Time 9353, Note Name: G#2
Note OFF: Time 9353, Note Name: G#1
Note ON: Time 9360, Note Name: G#1, Velocity: 29
Note ON: Time 9360, Note Name: G#2, Velocity: 35
Note OFF: Time 9600, Note Name: G#2
Note OFF: Time 9600, Note Name: G#1
Note ON: Time 9600, Note Name: A1, Velocity: 26
Note ON: Time 9600, Note Name: A2, Velocity: 31
Note OFF: Time 9840, Note Name: A2
Note OFF: Time 9840, Note Name: A1
Note ON: Time 9840, Note Name: B1, Velocity: 26
Note ON: Time 9840, Note Name: B2, Velocity: 31
Note OFF: Time 10080, Note Name: B2
Note OFF: Time 10080, Note Name: B1
Note ON: Time 10080, Note Name: C2, Velocity: 29
Note ON: Time 10080, Note Name: C3, Velocity: 35
Note OFF: Time 10555, Note Name: C3
Note OFF: Time 10555, Note Name: C2
Note ON: Time 10560, Note Name: C2, Velocity: 27
Note ON: Time 10560, Note Name: C3, Velocity: 32
Note OFF: Time 10798, Note Name: C3
Note OFF: Time 10798, Note Name: C2
Note ON: Time 10800, Note Name: C2, Velocity: 33
Note ON: Time 10800, Note Name: C3, Velocity: 40
Note OFF: Time 11038, Note Name: C3
Note OFF: Time 11038, Note Name: C2
Note ON: Time 11040, Note Name: C2, Velocity: 31
Note ON: Time 11040, Note Name: C3, Velocity: 37
Note OFF: Time 11278, Note Name: C3
Note OFF: Time 11278, Note Name: C2
Note ON: Time 11280, Note Name: C2, Velocity: 32
Note ON: Time 11280, Note Name: C3, Velocity: 39
Note OFF: Time 11520, Note Name: C3
Note OFF: Time 11520, Note Name: C2
Note ON: Time 11520, Note Name: C#2, Velocity: 32
Note ON: Time 11520, Note Name: C#3, Velocity: 39
Note OFF: Time 12240, Note Name: C#3
Note OFF: Time 12240, Note Name: C#2
Note ON: Time 12240, Note Name: C#2, Velocity: 27
Note ON: Time 12240, Note Name: C#3, Velocity: 32
Note OFF: Time 12480, Note Name: C#3
Note OFF: Time 12480, Note Name: C#2
Note ON: Time 12480, Note Name: C#3, Velocity: 31
Note ON: Time 12480, Note Name: F3, Velocity: 31
Note ON: Time 12480, Note Name: G#3, Velocity: 37
Note OFF: Time 12720, Note Name: G#3
Note OFF: Time 12720, Note Name: F3
Note OFF: Time 12720, Note Name: C#3
Note ON: Time 12720, Note Name: C#3, Velocity: 31
Note ON: Time 12720, Note Name: G#3, Velocity: 31
Note ON: Time 12720, Note Name: B3, Velocity: 37
Note OFF: Time 12960, Note Name: B3
Note OFF: Time 12960, Note Name: G#3
Note OFF: Time 12960, Note Name: C#3
Note ON: Time 12960, Note Name: C#3, Velocity: 36
Note ON: Time 12960, Note Name: B3, Velocity: 43
Note OFF: Time 13440, Note Name: B3
Note OFF: Time 13440, Note Name: C#3
Note ON: Time 13440, Note Name: C#3, Velocity: 28
Note ON: Time 13440, Note Name: A3, Velocity: 34
Note OFF: Time 13678, Note Name: A3
Note OFF: Time 13678, Note Name: C#3
Note ON: Time 13680, Note Name: C#3, Velocity: 36
Note ON: Time 13680, Note Name: A3, Velocity: 43
Note OFF: Time 13920, Note Name: A3
Note OFF: Time 13920, Note Name: C#3
Note ON: Time 13920, Note Name: C#3, Velocity: 32
Note ON: Time 13920, Note Name: G#3, Velocity: 38
Note OFF: Time 14160, Note Name: G#3
Note OFF: Time 14160, Note Name: C#3
Note ON: Time 14160, Note Name: C#3, Velocity: 32
Note ON: Time 14160, Note Name: F#3, Velocity: 38
Note OFF: Time 14400, Note Name: F#3
Note OFF: Time 14400, Note Name: C#3
Note ON: Time 14400, Note Name: C#3, Velocity: 36
Note ON: Time 14400, Note Name: F#3, Velocity: 43
Note OFF: Time 14880, Note Name: F#3
Note OFF: Time 14880, Note Name: C#3
Note ON: Time 14880, Note Name: C#3, Velocity: 28
Note ON: Time 14880, Note Name: F3, Velocity: 34
Note OFF: Time 15120, Note Name: F3
Note OFF: Time 15120, Note Name: C#3
Note ON: Time 15120, Note Name: C#3, Velocity: 36
Note ON: Time 15120, Note Name: F3, Velocity: 49
Note OFF: Time 15360, Note Name: F3
Note ON: Time 15360, Note Name: G#3, Velocity: 45
Note OFF: Time 15600, Note Name: G#3
Note OFF: Time 15600, Note Name: C#3
Note ON: Time 15600, Note Name: G#3, Velocity: 32
Note ON: Time 15600, Note Name: C#3, Velocity: 32
Note ON: Time 15600, Note Name: B3, Velocity: 38
Note OFF: Time 15720, Note Name: B3
Note ON: Time 15720, Note Name: D4, Velocity: 38
Note OFF: Time 15839, Note Name: D4
Note OFF: Time 15840, Note Name: C#3
Note OFF: Time 15840, Note Name: G#3
Note ON: Time 15840, Note Name: B3, Velocity: 36
Note ON: Time 15840, Note Name: C#3, Velocity: 36
Note ON: Time 15840, Note Name: D4, Velocity: 43
Note OFF: Time 16320, Note Name: D4
Note OFF: Time 16320, Note Name: C#3
Note OFF: Time 16320, Note Name: B3
Note ON: Time 16320, Note Name: A3, Velocity: 31
Note ON: Time 16320, Note Name: C#3, Velocity: 31
Note ON: Time 16320, Note Name: C#4, Velocity: 37
Note OFF: Time 16558, Note Name: C#4
Note OFF: Time 16558, Note Name: C#3
Note OFF: Time 16558, Note Name: A3
Note ON: Time 16560, Note Name: C#3, Velocity: 34
Note ON: Time 16560, Note Name: C#4, Velocity: 41
Note ON: Time 16560, Note Name: A3, Velocity: 34
Note OFF: Time 16800, Note Name: A3
Note OFF: Time 16800, Note Name: C#4
Note OFF: Time 16800, Note Name: C#3
Note ON: Time 16800, Note Name: C#3, Velocity: 30
Note ON: Time 16800, Note Name: B3, Velocity: 36
Note ON: Time 16800, Note Name: G#3, Velocity: 30
Note OFF: Time 17040, Note Name: G#3
Note OFF: Time 17040, Note Name: B3
Note OFF: Time 17040, Note Name: C#3
Note ON: Time 17040, Note Name: C#3, Velocity: 29
Note ON: Time 17040, Note Name: A3, Velocity: 35
Note ON: Time 17040, Note Name: F#3, Velocity: 29
Note OFF: Time 17278, Note Name: F#3
Note OFF: Time 17278, Note Name: A3
Note OFF: Time 17278, Note Name: C#3
Note ON: Time 17280, Note Name: F#3, Velocity: 32
Note ON: Time 17280, Note Name: C#3, Velocity: 32
Note ON: Time 17280, Note Name: A3, Velocity: 39
Note OFF: Time 17760, Note Name: A3
Note OFF: Time 17760, Note Name: C#3
Note OFF: Time 17760, Note Name: F#3
Note ON: Time 17760, Note Name: F3, Velocity: 25
Note ON: Time 17760, Note Name: C#3, Velocity: 25
Note ON: Time 17760, Note Name: G#3, Velocity: 29
Note OFF: Time 17998, Note Name: G#3
Note OFF: Time 17998, Note Name: C#3
Note OFF: Time 17998, Note Name: F3
Note ON: Time 18000, Note Name: F3, Velocity: 26
Note ON: Time 18000, Note Name: C#3, Velocity: 26
Note ON: Time 18000, Note Name: G#3, Velocity: 31
Note OFF: Time 18480, Note Name: G#3
Note OFF: Time 18480, Note Name: C#3
Note OFF: Time 18480, Note Name: F3
Note ON: Time 18480, Note Name: G3, Velocity: 21
Note ON: Time 18480, Note Name: E3, Velocity: 21
Note ON: Time 18480, Note Name: C#3, Velocity: 21
Note ON: Time 18480, Note Name: A#3, Velocity: 26
Note OFF: Time 18660, Note Name: A#3
Note OFF: Time 18660, Note Name: G3
Note OFF: Time 18660, Note Name: E3
Note OFF: Time 18660, Note Name: C#3
Note ON: Time 18720, Note Name: D3, Velocity: 32
Note ON: Time 18720, Note Name: G3, Velocity: 32
Note ON: Time 18730, Note Name: B3, Velocity: 43
Note OFF: Time 19440, Note Name: G3
Note OFF: Time 19440, Note Name: D3
Note ON: Time 19440, Note Name: B3, Velocity: 30
Note ON: Time 19440, Note Name: G3, Velocity: 30
Note ON: Time 19440, Note Name: D4, Velocity: 36
Note OFF: Time 19450, Note Name: B3
Note OFF: Time 19920, Note Name: B3
Note OFF: Time 19920, Note Name: D4
Note ON: Time 19920, Note Name: D4, Velocity: 30
Note OFF: Time 20160, Note Name: D4
Note OFF: Time 20160, Note Name: G3
Note ON: Time 20160, Note Name: E4, Velocity: 39
Note ON: Time 20160, Note Name: C4, Velocity: 33
Note OFF: Time 20880, Note Name: C4
Note OFF: Time 20880, Note Name: E4
Note ON: Time 20880, Note Name: B3, Velocity: 29
Note ON: Time 20880, Note Name: D4, Velocity: 35
Note OFF: Time 21360, Note Name: D4
Note OFF: Time 21360, Note Name: B3
Note ON: Time 21360, Note Name: D4, Velocity: 32
Note OFF: Time 21598, Note Name: D4
Note ON: Time 21600, Note Name: D4, Velocity: 35
Note OFF: Time 21840, Note Name: D4
Note ON: Time 21840, Note Name: C#4, Velocity: 31
Note OFF: Time 22080, Note Name: C#4
Note ON: Time 22080, Note Name: C#3, Velocity: 26
Note ON: Time 22080, Note Name: F#3, Velocity: 26
Note ON: Time 22080, Note Name: A3, Velocity: 26
Note ON: Time 22080, Note Name: C#4, Velocity: 31
Note OFF: Time 22320, Note Name: C#4
Note OFF: Time 22320, Note Name: C#3
Note OFF: Time 22320, Note Name: F#3
Note OFF: Time 22320, Note Name: A3
Note ON: Time 22320, Note Name: C#3, Velocity: 29
Note ON: Time 22320, Note Name: F3, Velocity: 29
Note ON: Time 22320, Note Name: G#3, Velocity: 29
Note ON: Time 22320, Note Name: C#4, Velocity: 35
Note OFF: Time 22795, Note Name: C#4
Note OFF: Time 22795, Note Name: C#3
Note OFF: Time 22795, Note Name: F3
Note OFF: Time 22795, Note Name: G#3
Note ON: Time 22800, Note Name: C#3, Velocity: 27
Note ON: Time 22800, Note Name: F3, Velocity: 27
Note ON: Time 22800, Note Name: G#3, Velocity: 27
Note ON: Time 22800, Note Name: C#4, Velocity: 32
Note OFF: Time 23038, Note Name: C#4
Note OFF: Time 23038, Note Name: C#3
Note OFF: Time 23038, Note Name: F3
Note OFF: Time 23038, Note Name: G#3
Note ON: Time 23040, Note Name: C#3, Velocity: 29
Note ON: Time 23040, Note Name: F3, Velocity: 29
Note ON: Time 23040, Note Name: G#3, Velocity: 29
Note ON: Time 23040, Note Name: C#4, Velocity: 35
Note OFF: Time 23520, Note Name: C#4
Note OFF: Time 23520, Note Name: C#3
Note OFF: Time 23520, Note Name: F3
Note OFF: Time 23520, Note Name: G#3
Note ON: Time 23520, Note Name: F#3, Velocity: 27
Note ON: Time 23520, Note Name: A3, Velocity: 27
Note ON: Time 23520, Note Name: C#4, Velocity: 32
Note OFF: Time 23758, Note Name: C#4
Note OFF: Time 23758, Note Name: A3
Note OFF: Time 23758, Note Name: F#3
Note ON: Time 23760, Note Name: F#3, Velocity: 27
Note ON: Time 23760, Note Name: A3, Velocity: 27
Note ON: Time 23760, Note Name: C#4, Velocity: 35
Note OFF: Time 23998, Note Name: C#4
Note OFF: Time 23998, Note Name: A3
Note OFF: Time 23998, Note Name: F#3
Note ON: Time 24000, Note Name: A3, Velocity: 34
Note OFF: Time 24240, Note Name: A3
Note ON: Time 24240, Note Name: G#3, Velocity: 33
Note ON: Time 24240, Note Name: B3, Velocity: 33
Note OFF: Time 24360, Note Name: B3
Note OFF: Time 24360, Note Name: G#3
Note ON: Time 24360, Note Name: F#3, Velocity: 38
Note ON: Time 24360, Note Name: A3, Velocity: 38
Note OFF: Time 24480, Note Name: A3
Note OFF: Time 24480, Note Name: F#3
Note ON: Time 24480, Note Name: C#2, Velocity: 43
Note ON: Time 24720, Note Name: F2, Velocity: 38
Note OFF: Time 24960, Note Name: F2
Note ON: Time 24960, Note Name: F#2, Velocity: 39
Note OFF: Time 25200, Note Name: F#2
Note ON: Time 25200, Note Name: G#2, Velocity: 42
Note OFF: Time 25560, Note Name: G#2
Note ON: Time 25560, Note Name: A2, Velocity: 45
Note OFF: Time 25680, Note Name: A2
Note ON: Time 25680, Note Name: B2, Velocity: 48
Note OFF: Time 25800, Note Name: B2
Note ON: Time 25800, Note Name: C3, Velocity: 50
Note OFF: Time 25920, Note Name: C3
Note OFF: Time 25920, Note Name: C#2
Note ON: Time 25920, Note Name: C#2, Velocity: 36
Note ON: Time 25920, Note Name: C#3, Velocity: 43
Note OFF: Time 26760, Note Name: C#3
Note OFF: Time 26760, Note Name: C#2
Note ON: Time 26760, Note Name: C#3, Velocity: 45
Note OFF: Time 26880, Note Name: C#3
Note ON: Time 26880, Note Name: F3, Velocity: 45
Note OFF: Time 27000, Note Name: F3
Note ON: Time 27000, Note Name: G#3, Velocity: 45
Note OFF: Time 27120, Note Name: G#3
Note ON: Time 27120, Note Name: B3, Velocity: 38
Note OFF: Time 27240, Note Name: B3
Note ON: Time 27240, Note Name: D4, Velocity: 38
Note OFF: Time 27359, Note Name: D4
Note ON: Time 27360, Note Name: C#2, Velocity: 36
Note ON: Time 27367, Note Name: C#3, Velocity: 43
Note OFF: Time 27600, Note Name: C#2
Note ON: Time 27600, Note Name: F2, Velocity: 31
Note ON: Time 27600, Note Name: C#3, Velocity: 31
Note ON: Time 27600, Note Name: F3, Velocity: 37
Note OFF: Time 27607, Note Name: C#3
Note OFF: Time 27840, Note Name: F2
Note OFF: Time 27840, Note Name: C#3
Note OFF: Time 27840, Note Name: F3
Note ON: Time 27840, Note Name: C#3, Velocity: 31
Note ON: Time 27840, Note Name: F#2, Velocity: 31
Note ON: Time 27840, Note Name: F#3, Velocity: 37
Note OFF: Time 28080, Note Name: F#3
Note OFF: Time 28080, Note Name: F#2
Note OFF: Time 28080, Note Name: C#3
Note ON: Time 28080, Note Name: G#2, Velocity: 34
Note ON: Time 28080, Note Name: G#3, Velocity: 41
Note ON: Time 28080, Note Name: C#3, Velocity: 34
Note OFF: Time 28440, Note Name: C#3
Note OFF: Time 28440, Note Name: G#3
Note OFF: Time 28440, Note Name: G#2
Note ON: Time 28440, Note Name: A3, Velocity: 45
Note ON: Time 28440, Note Name: A2, Velocity: 38
Note OFF: Time 28560, Note Name: A2
Note OFF: Time 28560, Note Name: A3
Note ON: Time 28560, Note Name: B3, Velocity: 48
Note ON: Time 28560, Note Name: B2, Velocity: 40
Note OFF: Time 28680, Note Name: B2
Note OFF: Time 28680, Note Name: B3
Note ON: Time 28680, Note Name: C4, Velocity: 50
Note ON: Time 28680, Note Name: C3, Velocity: 42
Note OFF: Time 28800, Note Name: C3
Note OFF: Time 28800, Note Name: C4
Note ON: Time 28800, Note Name: C#3, Velocity: 32
Note ON: Time 29040, Note Name: F#3, Velocity: 28
Note ON: Time 29040, Note Name: A3, Velocity: 35
Note OFF: Time 29280, Note Name: A3
Note OFF: Time 29280, Note Name: F#3
Note OFF: Time 29280, Note Name: C#3
Note ON: Time 29280, Note Name: F3, Velocity: 25
Note ON: Time 29280, Note Name: C#3, Velocity: 25
Note ON: Time 29280, Note Name: G#3, Velocity: 29
Note OFF: Time 29520, Note Name: G#3
Note OFF: Time 29520, Note Name: C#3
Note OFF: Time 29520, Note Name: F3
Note ON: Time 29520, Note Name: F3, Velocity: 26
Note ON: Time 29520, Note Name: C#3, Velocity: 26
Note ON: Time 29520, Note Name: G#3, Velocity: 31
Note OFF: Time 29760, Note Name: G#3
Note OFF: Time 29760, Note Name: C#3
Note OFF: Time 29760, Note Name: F3
Note ON: Time 29760, Note Name: A#3, Velocity: 26
Note ON: Time 29760, Note Name: E3, Velocity: 21
Note ON: Time 29760, Note Name: C#3, Velocity: 21
Note ON: Time 29760, Note Name: G3, Velocity: 21
Note OFF: Time 30000, Note Name: G3
Note OFF: Time 30000, Note Name: A#3
Note OFF: Time 30000, Note Name: E3
Note OFF: Time 30000, Note Name: C#3
Note ON: Time 30000, Note Name: D3, Velocity: 21
Note ON: Time 30000, Note Name: G3, Velocity: 21
Note ON: Time 30000, Note Name: B3, Velocity: 26
Note OFF: Time 30240, Note Name: B3
Note OFF: Time 30240, Note Name: G3
Note OFF: Time 30240, Note Name: D3
Note ON: Time 30240, Note Name: B3, Velocity: 43
Note ON: Time 30240, Note Name: G2, Velocity: 32
Note ON: Time 30240, Note Name: D3, Velocity: 32
Note OFF: Time 30960, Note Name: D3
Note OFF: Time 30960, Note Name: G2
Note OFF: Time 30960, Note Name: B3
Note ON: Time 30960, Note Name: G3, Velocity: 30
Note ON: Time 30960, Note Name: B2, Velocity: 30
Note ON: Time 30960, Note Name: D4, Velocity: 36
Note OFF: Time 31680, Note Name: D4
Note OFF: Time 31680, Note Name: B2
Note OFF: Time 31680, Note Name: G3
Note ON: Time 31680, Note Name: C3, Velocity: 30
Note ON: Time 31680, Note Name: E4, Velocity: 42
Note ON: Time 31680, Note Name: G3, Velocity: 30
Note OFF: Time 32400, Note Name: G3
Note OFF: Time 32400, Note Name: E4
Note OFF: Time 32400, Note Name: C3
Note ON: Time 32400, Note Name: B2, Velocity: 39
Note ON: Time 32400, Note Name: G3, Velocity: 39
Note ON: Time 32400, Note Name: D4, Velocity: 47
Note OFF: Time 32640, Note Name: D4
Note OFF: Time 32640, Note Name: G3
Note ON: Time 32640, Note Name: G3, Velocity: 35
Note OFF: Time 32880, Note Name: G3
Note OFF: Time 32880, Note Name: B2
Note ON: Time 32880, Note Name: D3, Velocity: 36
Note ON: Time 32880, Note Name: F#3, Velocity: 43
Note OFF: Time 33120, Note Name: F#3
Note OFF: Time 33120, Note Name: D3
Note ON: Time 33120, Note Name: D3, Velocity: 35
Note ON: Time 33120, Note Name: F#3, Velocity: 35
Note OFF: Time 33360, Note Name: F#3
Note OFF: Time 33360, Note Name: D3
Note ON: Time 33360, Note Name: C#3, Velocity: 31
Note ON: Time 33360, Note Name: F#3, Velocity: 31
Note ON: Time 33360, Note Name: A3, Velocity: 31
Note OFF: Time 33600, Note Name: A3
Note OFF: Time 33600, Note Name: F#3
Note OFF: Time 33600, Note Name: C#3
Note ON: Time 33600, Note Name: C#3, Velocity: 26
Note ON: Time 33600, Note Name: F#3, Velocity: 26
Note ON: Time 33600, Note Name: A3, Velocity: 26
Note ON: Time 33600, Note Name: C#4, Velocity: 31
Note OFF: Time 33838, Note Name: C#4
Note OFF: Time 33838, Note Name: C#3
Note OFF: Time 33838, Note Name: F#3
Note OFF: Time 33838, Note Name: A3
Note ON: Time 33840, Note Name: C#3, Velocity: 31
Note ON: Time 33840, Note Name: F3, Velocity: 31
Note ON: Time 33840, Note Name: G#3, Velocity: 31
Note ON: Time 33840, Note Name: C#4, Velocity: 38
Note OFF: Time 34320, Note Name: C#4
Note OFF: Time 34320, Note Name: C#3
Note OFF: Time 34320, Note Name: F3
Note OFF: Time 34320, Note Name: G#3
Note ON: Time 34320, Note Name: F#3, Velocity: 27
Note ON: Time 34320, Note Name: A3, Velocity: 27
Note ON: Time 34320, Note Name: C#4, Velocity: 32
Note OFF: Time 34558, Note Name: C#4
Note OFF: Time 34558, Note Name: A3
Note OFF: Time 34558, Note Name: F#3
Note ON: Time 34560, Note Name: A3, Velocity: 33
Note ON: Time 34560, Note Name: F#3, Velocity: 33
Note ON: Time 34560, Note Name: C#4, Velocity: 39
Note OFF: Time 34800, Note Name: C#4
Note OFF: Time 34800, Note Name: F#3
Note OFF: Time 34800, Note Name: A3
Note ON: Time 34800, Note Name: B2, Velocity: 26
Note ON: Time 34800, Note Name: D4, Velocity: 34
Note OFF: Time 35040, Note Name: D4
Note ON: Time 35040, Note Name: G3, Velocity: 31
Note OFF: Time 35280, Note Name: G3
Note OFF: Time 35280, Note Name: B2
Note ON: Time 35280, Note Name: B3, Velocity: 39
Note OFF: Time 35520, Note Name: B3
Note ON: Time 35520, Note Name: C#2, Velocity: 26
Note ON: Time 35520, Note Name: C#3, Velocity: 31
Note OFF: Time 35760, Note Name: C#2
Note ON: Time 35760, Note Name: F3, Velocity: 31
Note OFF: Time 36000, Note Name: F3
Note OFF: Time 36000, Note Name: C#3
Note ON: Time 36000, Note Name: C#3, Velocity: 33
Note ON: Time 36000, Note Name: F#2, Velocity: 33
Note ON: Time 36000, Note Name: F#3, Velocity: 39
Note OFF: Time 36240, Note Name: F#3
Note OFF: Time 36240, Note Name: F#2
Note OFF: Time 36240, Note Name: C#3
Note ON: Time 36240, Note Name: C#3, Velocity: 31
Note ON: Time 36240, Note Name: F2, Velocity: 31
Note ON: Time 36240, Note Name: G#3, Velocity: 37
Note OFF: Time 36720, Note Name: G#3
Note OFF: Time 36720, Note Name: F2
Note OFF: Time 36720, Note Name: C#3
Note ON: Time 36720, Note Name: C#3, Velocity: 28
Note ON: Time 36720, Note Name: F#2, Velocity: 28
Note ON: Time 36720, Note Name: F#3, Velocity: 33
Note OFF: Time 36960, Note Name: F#3
Note OFF: Time 36960, Note Name: F#2
Note OFF: Time 36960, Note Name: C#3
Note ON: Time 36960, Note Name: C#3, Velocity: 20
Note ON: Time 36960, Note Name: A3, Velocity: 32
Note OFF: Time 37320, Note Name: A3
Note ON: Time 37320, Note Name: F3, Velocity: 22
Note OFF: Time 37440, Note Name: F3
Note OFF: Time 37440, Note Name: C#3
Note ON: Time 37680, Note Name: F#2, Velocity: 26
Note OFF: Time 37800, Note Name: F#2
Note ON: Time 37920, Note Name: C#4, Velocity: 26
Note ON: Time 37920, Note Name: A3, Velocity: 20
Note ON: Time 37920, Note Name: F#3, Velocity: 20
Note ON: Time 37920, Note Name: C#3, Velocity: 20
Note OFF: Time 38040, Note Name: C#3
Note OFF: Time 38040, Note Name: C#4
Note OFF: Time 38040, Note Name: A3
Note OFF: Time 38040, Note Name: F#3
Note ON: Time 38160, Note Name: C#4, Velocity: 31
Note ON: Time 38160, Note Name: A3, Velocity: 24
Note ON: Time 38160, Note Name: F#3, Velocity: 24
Note ON: Time 38160, Note Name: C#3, Velocity: 24
Note OFF: Time 38280, Note Name: C#3
Note OFF: Time 38280, Note Name: C#4
Note OFF: Time 38280, Note Name: A3
Note OFF: Time 38280, Note Name: F#3
Note ON: Time 38400, Note Name: F#2, Velocity: 26
Note OFF: Time 38520, Note Name: F#2
Note ON: Time 38640, Note Name: C#4, Velocity: 26
Note ON: Time 38640, Note Name: A3, Velocity: 20
Note ON: Time 38640, Note Name: F#3, Velocity: 20
Note ON: Time 38640, Note Name: C#3, Velocity: 20
Note OFF: Time 38760, Note Name: C#3
Note OFF: Time 38760, Note Name: C#4
Note OFF: Time 38760, Note Name: A3
Note OFF: Time 38760, Note Name: F#3
Note ON: Time 38880, Note Name: C#3, Velocity: 23
Note ON: Time 38880, Note Name: F#3, Velocity: 23
Note ON: Time 38880, Note Name: A3, Velocity: 23
Note ON: Time 38880, Note Name: C#4, Velocity: 29
Note OFF: Time 39000, Note Name: C#4
Note OFF: Time 39000, Note Name: C#3
Note OFF: Time 39000, Note Name: F#3
Note OFF: Time 39000, Note Name: A3
Note ON: Time 39120, Note Name: F#2, Velocity: 26
Note OFF: Time 39240, Note Name: F#2
Note ON: Time 39360, Note Name: C#4, Velocity: 26
Note ON: Time 39360, Note Name: A3, Velocity: 20
Note ON: Time 39360, Note Name: F#3, Velocity: 20
Note ON: Time 39360, Note Name: C#3, Velocity: 20
Note OFF: Time 39480, Note Name: C#3
Note OFF: Time 39480, Note Name: C#4
Note OFF: Time 39480, Note Name: A3
Note OFF: Time 39480, Note Name: F#3
Note ON: Time 39600, Note Name: C#3, Velocity: 24
Note ON: Time 39600, Note Name: F#3, Velocity: 24
Note ON: Time 39600, Note Name: A3, Velocity: 24
Note ON: Time 39600, Note Name: C#4, Velocity: 30
Note OFF: Time 39720, Note Name: C#4
Note OFF: Time 39720, Note Name: C#3
Note OFF: Time 39720, Note Name: F#3
Note OFF: Time 39720, Note Name: A3
Note ON: Time 39840, Note Name: F#2, Velocity: 26
Note OFF: Time 39960, Note Name: F#2
Note ON: Time 40080, Note Name: C#4, Velocity: 26
Note ON: Time 40080, Note Name: A3, Velocity: 20
Note ON: Time 40080, Note Name: F#3, Velocity: 20
Note ON: Time 40080, Note Name: C#3, Velocity: 20
Note OFF: Time 40200, Note Name: C#3
Note OFF: Time 40200, Note Name: C#4
Note OFF: Time 40200, Note Name: A3
Note OFF: Time 40200, Note Name: F#3
Note ON: Time 40320, Note Name: F3, Velocity: 23
Note ON: Time 40320, Note Name: C#3, Velocity: 23
Note ON: Time 40320, Note Name: G#3, Velocity: 23
Note ON: Time 40320, Note Name: B3, Velocity: 23
Note ON: Time 40320, Note Name: C#4, Velocity: 29
Note OFF: Time 40440, Note Name: C#4
Note OFF: Time 40440, Note Name: G#3
Note OFF: Time 40440, Note Name: F3
Note OFF: Time 40440, Note Name: C#3
Note OFF: Time 40440, Note Name: B3
Note ON: Time 40560, Note Name: G#2, Velocity: 26
Note OFF: Time 40680, Note Name: G#2
Note ON: Time 40800, Note Name: D4, Velocity: 26
Note ON: Time 40800, Note Name: B3, Velocity: 20
Note ON: Time 40800, Note Name: G#3, Velocity: 20
Note ON: Time 40800, Note Name: F3, Velocity: 20
Note OFF: Time 40920, Note Name: F3
Note OFF: Time 40920, Note Name: D4
Note OFF: Time 40920, Note Name: B3
Note OFF: Time 40920, Note Name: G#3
Note ON: Time 41040, Note Name: F3, Velocity: 24
Note ON: Time 41040, Note Name: G#3, Velocity: 24
Note ON: Time 41040, Note Name: B3, Velocity: 24
Note ON: Time 41040, Note Name: D4, Velocity: 30
Note OFF: Time 41160, Note Name: D4
Note OFF: Time 41160, Note Name: F3
Note OFF: Time 41160, Note Name: G#3
Note OFF: Time 41160, Note Name: B3
Note ON: Time 41280, Note Name: G#2, Velocity: 26
Note OFF: Time 41400, Note Name: G#2
Note ON: Time 41520, Note Name: D4, Velocity: 26
Note ON: Time 41520, Note Name: B3, Velocity: 20
Note ON: Time 41520, Note Name: G#3, Velocity: 20
Note ON: Time 41520, Note Name: F3, Velocity: 20
Note OFF: Time 41640, Note Name: F3
Note OFF: Time 41640, Note Name: D4
Note OFF: Time 41640, Note Name: B3
Note OFF: Time 41640, Note Name: G#3
Note ON: Time 41760, Note Name: F3, Velocity: 23
Note ON: Time 41760, Note Name: G#3, Velocity: 23
Note ON: Time 41760, Note Name: B3, Velocity: 23
Note ON: Time 41760, Note Name: D4, Velocity: 29
Note OFF: Time 41880, Note Name: D4
Note OFF: Time 41880, Note Name: F3
Note OFF: Time 41880, Note Name: G#3
Note OFF: Time 41880, Note Name: B3
Note ON: Time 42000, Note Name: G#2, Velocity: 26
Note OFF: Time 42120, Note Name: G#2
Note ON: Time 42240, Note Name: D4, Velocity: 26
Note ON: Time 42240, Note Name: B3, Velocity: 20
Note ON: Time 42240, Note Name: G#3, Velocity: 20
Note ON: Time 42240, Note Name: F3, Velocity: 20
Note OFF: Time 42360, Note Name: F3
Note OFF: Time 42360, Note Name: D4
Note OFF: Time 42360, Note Name: B3
Note OFF: Time 42360, Note Name: G#3
Note ON: Time 42480, Note Name: F3, Velocity: 24
Note ON: Time 42480, Note Name: G#3, Velocity: 24
Note ON: Time 42480, Note Name: B3, Velocity: 24
Note ON: Time 42480, Note Name: D4, Velocity: 30
Note OFF: Time 42600, Note Name: D4
Note OFF: Time 42600, Note Name: F3
Note OFF: Time 42600, Note Name: G#3
Note OFF: Time 42600, Note Name: B3
Note ON: Time 42720, Note Name: G#2, Velocity: 26
Note OFF: Time 42840, Note Name: G#2
Note ON: Time 42960, Note Name: C#4, Velocity: 26
Note ON: Time 42960, Note Name: B3, Velocity: 20
Note ON: Time 42960, Note Name: G#3, Velocity: 20
Note ON: Time 42960, Note Name: F3, Velocity: 20
Note OFF: Time 43080, Note Name: F3
Note OFF: Time 43080, Note Name: C#4
Note OFF: Time 43080, Note Name: B3
Note OFF: Time 43080, Note Name: G#3
Note ON: Time 43200, Note Name: C#3, Velocity: 23
Note ON: Time 43200, Note Name: F#3, Velocity: 23
Note ON: Time 43200, Note Name: A3, Velocity: 23
Note ON: Time 43200, Note Name: C#4, Velocity: 29
Note OFF: Time 43320, Note Name: C#4
Note OFF: Time 43320, Note Name: C#3
Note OFF: Time 43320, Note Name: F#3
Note OFF: Time 43320, Note Name: A3
Note ON: Time 43440, Note Name: F#2, Velocity: 26
Note OFF: Time 43560, Note Name: F#2
Note ON: Time 43680, Note Name: C#4, Velocity: 26
Note ON: Time 43680, Note Name: A3, Velocity: 20
Note ON: Time 43680, Note Name: F#3, Velocity: 20
Note ON: Time 43680, Note Name: C#3, Velocity: 20
Note OFF: Time 43800, Note Name: C#3
Note OFF: Time 43800, Note Name: C#4
Note OFF: Time 43800, Note Name: A3
Note OFF: Time 43800, Note Name: F#3
Note ON: Time 43920, Note Name: C#3, Velocity: 24
Note ON: Time 43920, Note Name: F#3, Velocity: 24
Note ON: Time 43920, Note Name: A3, Velocity: 24
Note ON: Time 43920, Note Name: C#4, Velocity: 30
Note OFF: Time 44040, Note Name: C#4
Note OFF: Time 44040, Note Name: C#3
Note OFF: Time 44040, Note Name: F#3
Note OFF: Time 44040, Note Name: A3
Note ON: Time 44160, Note Name: F#2, Velocity: 26
Note OFF: Time 44280, Note Name: F#2
Note ON: Time 44400, Note Name: C#4, Velocity: 26
Note ON: Time 44400, Note Name: A3, Velocity: 20
Note ON: Time 44400, Note Name: F#3, Velocity: 20
Note ON: Time 44400, Note Name: C#3, Velocity: 20
Note OFF: Time 44520, Note Name: C#3
Note OFF: Time 44520, Note Name: C#4
Note OFF: Time 44520, Note Name: A3
Note OFF: Time 44520, Note Name: F#3
Note ON: Time 44640, Note Name: F3, Velocity: 25
Note ON: Time 44640, Note Name: C#3, Velocity: 25
Note ON: Time 44640, Note Name: G#3, Velocity: 25
Note ON: Time 44640, Note Name: B3, Velocity: 25
Note ON: Time 44640, Note Name: C#4, Velocity: 32
Note OFF: Time 44760, Note Name: C#4
Note OFF: Time 44760, Note Name: G#3
Note OFF: Time 44760, Note Name: F3
Note OFF: Time 44760, Note Name: C#3
Note OFF: Time 44760, Note Name: B3
Note ON: Time 44880, Note Name: G#2, Velocity: 30
Note OFF: Time 45000, Note Name: G#2
Note ON: Time 45120, Note Name: D4, Velocity: 32
Note ON: Time 45120, Note Name: B3, Velocity: 24
Note ON: Time 45120, Note Name: G#3, Velocity: 24
Note ON: Time 45120, Note Name: F3, Velocity: 24
Note OFF: Time 45240, Note Name: F3
Note OFF: Time 45240, Note Name: D4
Note OFF: Time 45240, Note Name: B3
Note OFF: Time 45240, Note Name: G#3
Note ON: Time 45360, Note Name: F3, Velocity: 28
Note ON: Time 45360, Note Name: G#3, Velocity: 28
Note ON: Time 45360, Note Name: B3, Velocity: 28
Note ON: Time 45360, Note Name: D4, Velocity: 35
Note OFF: Time 45480, Note Name: D4
Note OFF: Time 45480, Note Name: F3
Note OFF: Time 45480, Note Name: G#3
Note OFF: Time 45480, Note Name: B3
Note ON: Time 45600, Note Name: G#2, Velocity: 29
Note OFF: Time 45720, Note Name: G#2
Note ON: Time 45840, Note Name: D4, Velocity: 28
Note ON: Time 45840, Note Name: B3, Velocity: 21
Note ON: Time 45840, Note Name: G#3, Velocity: 21
Note ON: Time 45840, Note Name: F3, Velocity: 21
Note OFF: Time 45960, Note Name: F3
Note OFF: Time 45960, Note Name: D4
Note OFF: Time 45960, Note Name: B3
Note OFF: Time 45960, Note Name: G#3
Note ON: Time 46080, Note Name: F3, Velocity: 23
Note ON: Time 46080, Note Name: G#3, Velocity: 23
Note ON: Time 46080, Note Name: B3, Velocity: 23
Note ON: Time 46080, Note Name: D4, Velocity: 29
Note OFF: Time 46200, Note Name: D4
Note OFF: Time 46200, Note Name: F3
Note OFF: Time 46200, Note Name: G#3
Note OFF: Time 46200, Note Name: B3
Note ON: Time 46320, Note Name: G#2, Velocity: 29
Note OFF: Time 46440, Note Name: G#2
Note ON: Time 46560, Note Name: D4, Velocity: 31
Note ON: Time 46560, Note Name: B3, Velocity: 24
Note ON: Time 46560, Note Name: G#3, Velocity: 24
Note ON: Time 46560, Note Name: F3, Velocity: 24
Note OFF: Time 46680, Note Name: F3
Note OFF: Time 46680, Note Name: D4
Note OFF: Time 46680, Note Name: B3
Note OFF: Time 46680, Note Name: G#3
Note ON: Time 46800, Note Name: F3, Velocity: 28
Note ON: Time 46800, Note Name: G#3, Velocity: 28
Note ON: Time 46800, Note Name: B3, Velocity: 28
Note ON: Time 46800, Note Name: D4, Velocity: 35
Note OFF: Time 46920, Note Name: D4
Note OFF: Time 46920, Note Name: F3
Note OFF: Time 46920, Note Name: G#3
Note OFF: Time 46920, Note Name: B3
Note ON: Time 47040, Note Name: G#2, Velocity: 32
Note OFF: Time 47160, Note Name: G#2
Note ON: Time 47280, Note Name: C#4, Velocity: 32
Note ON: Time 47280, Note Name: B3, Velocity: 25
Note ON: Time 47280, Note Name: G#3, Velocity: 25
Note ON: Time 47280, Note Name: F3, Velocity: 25
Note OFF: Time 47400, Note Name: F3
Note OFF: Time 47400, Note Name: C#4
Note OFF: Time 47400, Note Name: B3
Note OFF: Time 47400, Note Name: G#3
Note ON: Time 47520, Note Name: F#3, Velocity: 28
Note ON: Time 47520, Note Name: A3, Velocity: 28
Note ON: Time 47520, Note Name: C#4, Velocity: 36
Note OFF: Time 47640, Note Name: C#4
Note OFF: Time 47640, Note Name: A3
Note OFF: Time 47640, Note Name: F#3
Note ON: Time 47760, Note Name: A2, Velocity: 32
Note OFF: Time 47880, Note Name: A2
Note ON: Time 48000, Note Name: C#4, Velocity: 32
Note ON: Time 48000, Note Name: A3, Velocity: 25
Note ON: Time 48000, Note Name: F#3, Velocity: 25
Note OFF: Time 48120, Note Name: F#3
Note OFF: Time 48120, Note Name: A3
Note OFF: Time 48120, Note Name: C#4
Note ON: Time 48240, Note Name: F3, Velocity: 30
Note ON: Time 48240, Note Name: G#3, Velocity: 30
Note ON: Time 48240, Note Name: B3, Velocity: 30
Note ON: Time 48240, Note Name: D4, Velocity: 37
Note OFF: Time 48360, Note Name: D4
Note OFF: Time 48360, Note Name: F3
Note OFF: Time 48360, Note Name: G#3
Note OFF: Time 48360, Note Name: B3
Note ON: Time 48480, Note Name: G#2, Velocity: 32
Note OFF: Time 48600, Note Name: G#2
Note ON: Time 48720, Note Name: C#4, Velocity: 32
Note ON: Time 48720, Note Name: B3, Velocity: 25
Note ON: Time 48720, Note Name: G#3, Velocity: 25
Note ON: Time 48720, Note Name: F3, Velocity: 25
Note OFF: Time 48840, Note Name: F3
Note OFF: Time 48840, Note Name: C#4
Note OFF: Time 48840, Note Name: B3
Note OFF: Time 48840, Note Name: G#3
Note ON: Time 48960, Note Name: F#3, Velocity: 28
Note ON: Time 48960, Note Name: A3, Velocity: 28
Note ON: Time 48960, Note Name: C#4, Velocity: 36
Note OFF: Time 49080, Note Name: C#4
Note OFF: Time 49080, Note Name: A3
Note OFF: Time 49080, Note Name: F#3
Note ON: Time 49200, Note Name: A2, Velocity: 32
Note OFF: Time 49320, Note Name: A2
Note ON: Time 49440, Note Name: C#3, Velocity: 25
Note ON: Time 49440, Note Name: C#4, Velocity: 32
Note ON: Time 49440, Note Name: A3, Velocity: 25
Note ON: Time 49440, Note Name: F#3, Velocity: 25
Note OFF: Time 49560, Note Name: F#3
Note OFF: Time 49560, Note Name: C#3
Note OFF: Time 49560, Note Name: C#4
Note OFF: Time 49560, Note Name: A3
Note ON: Time 49680, Note Name: C#3, Velocity: 30
Note ON: Time 49680, Note Name: F3, Velocity: 30
Note ON: Time 49680, Note Name: G#3, Velocity: 30
Note ON: Time 49680, Note Name: B3, Velocity: 30
Note ON: Time 49680, Note Name: C#4, Velocity: 37
Note OFF: Time 49800, Note Name: C#4
Note OFF: Time 49800, Note Name: G#3
Note OFF: Time 49800, Note Name: C#3
Note OFF: Time 49800, Note Name: F3
Note OFF: Time 49800, Note Name: B3
Note ON: Time 49920, Note Name: G#2, Velocity: 32
Note OFF: Time 50040, Note Name: G#2
Note ON: Time 50160, Note Name: C#4, Velocity: 32
Note ON: Time 50160, Note Name: B3, Velocity: 25
Note ON: Time 50160, Note Name: G#3, Velocity: 25
Note OFF: Time 50280, Note Name: G#3
Note OFF: Time 50280, Note Name: B3
Note OFF: Time 50280, Note Name: C#4
Note ON: Time 50400, Note Name: A3, Velocity: 30
Note ON: Time 50400, Note Name: C#4, Velocity: 39
Note OFF: Time 50520, Note Name: C#4
Note OFF: Time 50520, Note Name: A3
Note ON: Time 50640, Note Name: A2, Velocity: 35
Note OFF: Time 50760, Note Name: A2
Note ON: Time 50880, Note Name: C#4, Velocity: 36
Note ON: Time 50880, Note Name: A#3, Velocity: 28
Note OFF: Time 51000, Note Name: A#3
Note OFF: Time 51000, Note Name: C#4
Note ON: Time 51120, Note Name: A#3, Velocity: 34
Note ON: Time 51120, Note Name: C#4, Velocity: 42
Note OFF: Time 51240, Note Name: C#4
Note OFF: Time 51240, Note Name: A#3
Note ON: Time 51360, Note Name: A#2, Velocity: 40
Note OFF: Time 51480, Note Name: A#2
Note ON: Time 51600, Note Name: D#4, Velocity: 40
Note ON: Time 51600, Note Name: B3, Velocity: 31
Note OFF: Time 51720, Note Name: B3
Note OFF: Time 51720, Note Name: D#4
Note ON: Time 51840, Note Name: B3, Velocity: 36
Note ON: Time 51840, Note Name: D#4, Velocity: 47
Note OFF: Time 51960, Note Name: D#4
Note OFF: Time 51960, Note Name: B3
Note ON: Time 52080, Note Name: B2, Velocity: 42
Note OFF: Time 52200, Note Name: B2
Note ON: Time 52320, Note Name: E4, Velocity: 42
Note ON: Time 52320, Note Name: C#4, Velocity: 33
Note OFF: Time 52440, Note Name: C#4
Note OFF: Time 52440, Note Name: E4
Note ON: Time 52560, Note Name: C#4, Velocity: 40
Note ON: Time 52560, Note Name: E4, Velocity: 50
Note OFF: Time 52680, Note Name: E4
Note OFF: Time 52680, Note Name: C#4
Note ON: Time 52800, Note Name: C#3, Velocity: 44
Note OFF: Time 52920, Note Name: C#3
Note ON: Time 53040, Note Name: F#4, Velocity: 44
Note ON: Time 53040, Note Name: D#4, Velocity: 35
Note OFF: Time 53160, Note Name: D#4
Note OFF: Time 53160, Note Name: F#4
Note ON: Time 53280, Note Name: F#4, Velocity: 49
Note ON: Time 53280, Note Name: D#4, Velocity: 41
Note OFF: Time 53400, Note Name: D#4
Note OFF: Time 53400, Note Name: F#4
Note ON: Time 53400, Note Name: D#3, Velocity: 41
Note OFF: Time 53520, Note Name: D#3
Note ON: Time 53520, Note Name: G4, Velocity: 49
Note ON: Time 53520, Note Name: E4, Velocity: 41
Note OFF: Time 53640, Note Name: E4
Note OFF: Time 53640, Note Name: G4
Note ON: Time 53640, Note Name: E3, Velocity: 42
Note OFF: Time 53760, Note Name: E3
Note ON: Time 53760, Note Name: A4, Velocity: 51
Note ON: Time 53760, Note Name: F#4, Velocity: 42
Note OFF: Time 53880, Note Name: F#4
Note OFF: Time 53880, Note Name: A4
Note ON: Time 53880, Note Name: F#3, Velocity: 41
Note OFF: Time 54000, Note Name: F#3
Note ON: Time 54000, Note Name: G4, Velocity: 47
Note ON: Time 54000, Note Name: B4, Velocity: 56
Note OFF: Time 54120, Note Name: B4
Note OFF: Time 54120, Note Name: G4
Note ON: Time 54120, Note Name: G3, Velocity: 44
Note OFF: Time 54240, Note Name: G3
Note ON: Time 54240, Note Name: G#4, Velocity: 48
Note ON: Time 54240, Note Name: B4, Velocity: 57
Note OFF: Time 54360, Note Name: B4
Note OFF: Time 54360, Note Name: G#4
Note ON: Time 54360, Note Name: G#3, Velocity: 51
Note OFF: Time 54480, Note Name: G#3
Note ON: Time 54480, Note Name: A4, Velocity: 52
Note ON: Time 54480, Note Name: C#5, Velocity: 62
Note OFF: Time 54600, Note Name: C#5
Note OFF: Time 54600, Note Name: A4
Note ON: Time 54600, Note Name: A3, Velocity: 49
Note OFF: Time 54720, Note Name: A3
Note ON: Time 54720, Note Name: A4, Velocity: 40
Note ON: Time 54720, Note Name: C#5, Velocity: 48
Note OFF: Time 54960, Note Name: C#5
Note OFF: Time 54960, Note Name: A4
Note ON: Time 54960, Note Name: C#4, Velocity: 40
Note ON: Time 54960, Note Name: A3, Velocity: 34
Note OFF: Time 55200, Note Name: C#4
Note ON: Time 55200, Note Name: D#4, Velocity: 35
Note OFF: Time 55440, Note Name: A3
Note ON: Time 55440, Note Name: A3, Velocity: 33
Note OFF: Time 55560, Note Name: D#4
Note ON: Time 55560, Note Name: D#4, Velocity: 32
Note OFF: Time 55680, Note Name: D#4
Note ON: Time 55680, Note Name: F#4, Velocity: 38
Note OFF: Time 55800, Note Name: F#4
Note ON: Time 55800, Note Name: E4, Velocity: 34
Note OFF: Time 55920, Note Name: E4
Note ON: Time 55920, Note Name: D#4, Velocity: 39
Note OFF: Time 56040, Note Name: D#4
Note ON: Time 56040, Note Name: E4, Velocity: 35
Note OFF: Time 56160, Note Name: E4
Note OFF: Time 56160, Note Name: A3
Note ON: Time 56160, Note Name: A3, Velocity: 34
Note ON: Time 56160, Note Name: D4, Velocity: 48
Note OFF: Time 56400, Note Name: D4
Note ON: Time 56400, Note Name: C#4, Velocity: 40
Note OFF: Time 56880, Note Name: A3
Note ON: Time 56880, Note Name: A3, Velocity: 33
Note OFF: Time 57000, Note Name: C#4
Note ON: Time 57000, Note Name: C#4, Velocity: 32
Note OFF: Time 57120, Note Name: C#4
Note ON: Time 57120, Note Name: E4, Velocity: 38
Note OFF: Time 57240, Note Name: E4
Note ON: Time 57240, Note Name: D4, Velocity: 34
Note OFF: Time 57360, Note Name: D4
Note ON: Time 57360, Note Name: C#4, Velocity: 39
Note OFF: Time 57480, Note Name: C#4
Note ON: Time 57480, Note Name: D4, Velocity: 35
Note OFF: Time 57600, Note Name: D4
Note OFF: Time 57600, Note Name: A3
Note ON: Time 57600, Note Name: A3, Velocity: 33
Note ON: Time 57600, Note Name: D#4, Velocity: 39
Note ON: Time 57600, Note Name: C4, Velocity: 39
Note OFF: Time 57840, Note Name: C4
Note OFF: Time 57840, Note Name: D#4
Note ON: Time 57840, Note Name: E4, Velocity: 39
Note ON: Time 57840, Note Name: C#4, Velocity: 33
Note OFF: Time 58080, Note Name: C#4
Note OFF: Time 58080, Note Name: E4
Note OFF: Time 58080, Note Name: A3
Note ON: Time 58080, Note Name: D#4, Velocity: 39
Note ON: Time 58080, Note Name: A#3, Velocity: 33
Note OFF: Time 58200, Note Name: D#4
Note ON: Time 58200, Note Name: E4, Velocity: 39
Note OFF: Time 58319, Note Name: E4
Note OFF: Time 58320, Note Name: A#3
Note ON: Time 58320, Note Name: E4, Velocity: 45
Note ON: Time 58320, Note Name: A#3, Velocity: 38
Note OFF: Time 58440, Note Name: E4
Note ON: Time 58440, Note Name: C#4, Velocity: 39
Note OFF: Time 58560, Note Name: C#4
Note OFF: Time 58560, Note Name: A#3
Note ON: Time 58560, Note Name: E4, Velocity: 44
Note ON: Time 58560, Note Name: B3, Velocity: 37
Note OFF: Time 58680, Note Name: E4
Note ON: Time 58680, Note Name: D4, Velocity: 39
Note OFF: Time 58800, Note Name: D4
Note OFF: Time 58800, Note Name: B3
Note ON: Time 58800, Note Name: C#4, Velocity: 43
Note ON: Time 58800, Note Name: G#3, Velocity: 36
Note OFF: Time 58920, Note Name: C#4
Note ON: Time 58920, Note Name: D4, Velocity: 39
Note OFF: Time 59039, Note Name: D4
Note OFF: Time 59040, Note Name: G#3
Note ON: Time 59040, Note Name: G#3, Velocity: 39
Note ON: Time 59040, Note Name: D4, Velocity: 46
Note OFF: Time 59280, Note Name: D4
Note OFF: Time 59280, Note Name: G#3
Note ON: Time 59280, Note Name: C#4, Velocity: 42
Note ON: Time 59280, Note Name: G3, Velocity: 35
Note OFF: Time 59520, Note Name: G3
Note OFF: Time 59520, Note Name: C#4
Note ON: Time 59520, Note Name: A3, Velocity: 33
Note ON: Time 59520, Note Name: F#3, Velocity: 33
Note ON: Time 59520, Note Name: D4, Velocity: 39
Note OFF: Time 59760, Note Name: D4
Note OFF: Time 59760, Note Name: F#3
Note OFF: Time 59760, Note Name: A3
Note ON: Time 59760, Note Name: E3, Velocity: 45
Note ON: Time 59760, Note Name: A2, Velocity: 38
Note OFF: Time 59880, Note Name: E3
Note ON: Time 59880, Note Name: C#3, Velocity: 39
Note OFF: Time 60000, Note Name: C#3
Note OFF: Time 60000, Note Name: A2
Note ON: Time 60000, Note Name: E3, Velocity: 57
Note ON: Time 60000, Note Name: B2, Velocity: 43
Note OFF: Time 60120, Note Name: E3
Note ON: Time 60120, Note Name: D3, Velocity: 48
Note OFF: Time 60240, Note Name: D3
Note OFF: Time 60240, Note Name: B2
Note ON: Time 60240, Note Name: C#3, Velocity: 57
Note ON: Time 60240, Note Name: G#2, Velocity: 48
Note OFF: Time 60360, Note Name: C#3
Note ON: Time 60360, Note Name: D3, Velocity: 53
Note OFF: Time 60480, Note Name: D3
Note OFF: Time 60480, Note Name: G#2
Note ON: Time 60480, Note Name: F2, Velocity: 51
Note ON: Time 60480, Note Name: D3, Velocity: 67
Note OFF: Time 60600, Note Name: D3
Note ON: Time 60600, Note Name: G#2, Velocity: 59
Note OFF: Time 60720, Note Name: G#2
Note OFF: Time 60720, Note Name: F2
Note ON: Time 60720, Note Name: F#2, Velocity: 53
Note ON: Time 60720, Note Name: B2, Velocity: 69
Note OFF: Time 60840, Note Name: B2
Note ON: Time 60840, Note Name: A2, Velocity: 58
Note OFF: Time 60960, Note Name: A2
Note ON: Time 60960, Note Name: G#2, Velocity: 69
Note OFF: Time 61080, Note Name: G#2
Note OFF: Time 61080, Note Name: F#2
Note ON: Time 61080, Note Name: F2, Velocity: 45
Note ON: Time 61080, Note Name: A2, Velocity: 58
Note OFF: Time 61200, Note Name: A2
Note OFF: Time 61200, Note Name: F2
Note ON: Time 61200, Note Name: E2, Velocity: 57
Note ON: Time 61200, Note Name: A2, Velocity: 68
Note OFF: Time 61320, Note Name: A2
Note OFF: Time 61320, Note Name: E2
Note ON: Time 61320, Note Name: G#1, Velocity: 61
Note OFF: Time 61440, Note Name: G#1
Note ON: Time 61440, Note Name: A#1, Velocity: 72
Note OFF: Time 61560, Note Name: A#1
Note ON: Time 61560, Note Name: A1, Velocity: 63
Note OFF: Time 61680, Note Name: A1
Note ON: Time 61680, Note Name: G#1, Velocity: 72
Note OFF: Time 61800, Note Name: G#1
Note ON: Time 61800, Note Name: A1, Velocity: 62
Note OFF: Time 61910, Note Name: A1
Note ON: Time 61920, Note Name: A1, Velocity: 81
Note OFF: Time 62040, Note Name: A1
Note ON: Time 62040, Note Name: E3, Velocity: 43
Note OFF: Time 62160, Note Name: E3
Note ON: Time 62160, Note Name: C#3, Velocity: 47
Note OFF: Time 62280, Note Name: C#3
Note ON: Time 62280, Note Name: G3, Velocity: 43
Note OFF: Time 62400, Note Name: G3
Note ON: Time 62400, Note Name: E3, Velocity: 48
Note OFF: Time 62520, Note Name: E3
Note ON: Time 62520, Note Name: A#3, Velocity: 43
Note OFF: Time 62640, Note Name: A#3
Note ON: Time 62640, Note Name: G#3, Velocity: 47
Note OFF: Time 62760, Note Name: G#3
Note ON: Time 62760, Note Name: A3, Velocity: 43
Note OFF: Time 62880, Note Name: A3
Note ON: Time 62880, Note Name: E3, Velocity: 46
Note OFF: Time 63000, Note Name: E3
Note ON: Time 63000, Note Name: B3, Velocity: 39
Note OFF: Time 63120, Note Name: B3
Note ON: Time 63120, Note Name: A3, Velocity: 45
Note OFF: Time 63240, Note Name: A3
Note ON: Time 63240, Note Name: G3, Velocity: 40
Note OFF: Time 63360, Note Name: G3
Note ON: Time 63360, Note Name: D3, Velocity: 32
Note ON: Time 63360, Note Name: F#3, Velocity: 38
Note OFF: Time 63480, Note Name: F#3
Note ON: Time 63480, Note Name: B3, Velocity: 33
Note OFF: Time 63600, Note Name: B3
Note ON: Time 63600, Note Name: G#3, Velocity: 38
Note OFF: Time 63720, Note Name: G#3
Note ON: Time 63720, Note Name: A3, Velocity: 34
Note OFF: Time 63840, Note Name: A3
Note ON: Time 63840, Note Name: F#3, Velocity: 38
Note OFF: Time 63960, Note Name: F#3
Note ON: Time 63960, Note Name: B3, Velocity: 33
Note OFF: Time 64080, Note Name: B3
Note ON: Time 64080, Note Name: G#3, Velocity: 38
Note OFF: Time 64200, Note Name: G#3
Note ON: Time 64200, Note Name: A3, Velocity: 33
Note OFF: Time 64320, Note Name: A3
Note ON: Time 64320, Note Name: F#3, Velocity: 32
Note OFF: Time 64440, Note Name: F#3
Note ON: Time 64440, Note Name: B3, Velocity: 28
Note OFF: Time 64560, Note Name: B3
Note OFF: Time 64560, Note Name: D3
Note ON: Time 64560, Note Name: D3, Velocity: 27
Note ON: Time 64560, Note Name: F#3, Velocity: 32
Note OFF: Time 64680, Note Name: F#3
Note ON: Time 64680, Note Name: A3, Velocity: 28
Note OFF: Time 64800, Note Name: A3
Note OFF: Time 64800, Note Name: D3
Note ON: Time 64800, Note Name: C#3, Velocity: 32
Note ON: Time 64800, Note Name: E3, Velocity: 38
Note OFF: Time 64920, Note Name: E3
Note ON: Time 64920, Note Name: A3, Velocity: 33
Note OFF: Time 65040, Note Name: A3
Note OFF: Time 65040, Note Name: C#3
Note ON: Time 65040, Note Name: D3, Velocity: 32
Note ON: Time 65040, Note Name: F#3, Velocity: 38
Note OFF: Time 65160, Note Name: F#3
Note ON: Time 65160, Note Name: A3, Velocity: 34
Note OFF: Time 65280, Note Name: A3
Note OFF: Time 65280, Note Name: D3
Note ON: Time 65280, Note Name: E3, Velocity: 34
Note ON: Time 65280, Note Name: G3, Velocity: 41
Note OFF: Time 65400, Note Name: G3
Note ON: Time 65400, Note Name: A3, Velocity: 36
Note OFF: Time 65518, Note Name: E3
Note OFF: Time 65520, Note Name: A3
Note ON: Time 65520, Note Name: E3, Velocity: 34
Note ON: Time 65520, Note Name: G3, Velocity: 40
Note OFF: Time 65640, Note Name: G3
Note ON: Time 65640, Note Name: A3, Velocity: 34
Note OFF: Time 65760, Note Name: A3
Note OFF: Time 65760, Note Name: E3
Note ON: Time 65760, Note Name: D3, Velocity: 32
Note ON: Time 65760, Note Name: F#3, Velocity: 38
Note OFF: Time 65880, Note Name: F#3
Note ON: Time 65880, Note Name: A3, Velocity: 32
Note OFF: Time 66000, Note Name: A3
Note OFF: Time 66000, Note Name: D3
Note ON: Time 66000, Note Name: C#3, Velocity: 31
Note ON: Time 66000, Note Name: E3, Velocity: 37
Note OFF: Time 66120, Note Name: E3
Note ON: Time 66120, Note Name: A3, Velocity: 34
Note OFF: Time 66240, Note Name: A3
Note OFF: Time 66240, Note Name: C#3
Note ON: Time 66240, Note Name: D3, Velocity: 32
Note ON: Time 66240, Note Name: F#3, Velocity: 38
Note OFF: Time 66360, Note Name: F#3
Note ON: Time 66360, Note Name: B3, Velocity: 33
Note OFF: Time 66480, Note Name: B3
Note ON: Time 66480, Note Name: G#3, Velocity: 38
Note OFF: Time 66600, Note Name: G#3
Note ON: Time 66600, Note Name: A3, Velocity: 34
Note OFF: Time 66720, Note Name: A3
Note ON: Time 66720, Note Name: F#3, Velocity: 38
Note OFF: Time 66840, Note Name: F#3
Note ON: Time 66840, Note Name: B3, Velocity: 33
Note OFF: Time 66960, Note Name: B3
Note ON: Time 66960, Note Name: G#3, Velocity: 38
Note OFF: Time 67080, Note Name: G#3
Note ON: Time 67080, Note Name: A3, Velocity: 33
Note OFF: Time 67200, Note Name: A3
Note ON: Time 67200, Note Name: F#3, Velocity: 38
Note OFF: Time 67320, Note Name: F#3
Note ON: Time 67320, Note Name: B3, Velocity: 32
Note OFF: Time 67440, Note Name: B3
Note OFF: Time 67440, Note Name: D3
Note ON: Time 67440, Note Name: D3, Velocity: 29
Note ON: Time 67440, Note Name: F#3, Velocity: 34
Note OFF: Time 67560, Note Name: F#3
Note ON: Time 67560, Note Name: A3, Velocity: 29
Note OFF: Time 67680, Note Name: A3
Note OFF: Time 67680, Note Name: D3
Note ON: Time 67680, Note Name: C#3, Velocity: 27
Note ON: Time 67680, Note Name: E3, Velocity: 32
Note OFF: Time 67800, Note Name: E3
Note ON: Time 67800, Note Name: A3, Velocity: 28
Note OFF: Time 67920, Note Name: A3
Note OFF: Time 67920, Note Name: C#3
Note ON: Time 67920, Note Name: D3, Velocity: 28
Note ON: Time 67920, Note Name: F#3, Velocity: 34
Note OFF: Time 68040, Note Name: F#3
Note ON: Time 68040, Note Name: A3, Velocity: 31
Note OFF: Time 68160, Note Name: A3
Note OFF: Time 68160, Note Name: D3
Note ON: Time 68160, Note Name: E3, Velocity: 32
Note ON: Time 68160, Note Name: G3, Velocity: 39
Note OFF: Time 68280, Note Name: G3
Note ON: Time 68280, Note Name: A3, Velocity: 35
Note OFF: Time 68398, Note Name: E3
Note OFF: Time 68400, Note Name: A3
Note ON: Time 68400, Note Name: E3, Velocity: 34
Note ON: Time 68400, Note Name: G3, Velocity: 40
Note OFF: Time 68520, Note Name: G3
Note ON: Time 68520, Note Name: A3, Velocity: 34
Note OFF: Time 68640, Note Name: A3
Note OFF: Time 68640, Note Name: E3
Note ON: Time 68640, Note Name: D3, Velocity: 32
Note ON: Time 68640, Note Name: F#3, Velocity: 38
Note OFF: Time 68760, Note Name: F#3
Note ON: Time 68760, Note Name: A3, Velocity: 32
Note OFF: Time 68880, Note Name: A3
Note OFF: Time 68880, Note Name: D3
Note ON: Time 68880, Note Name: C#3, Velocity: 31
Note ON: Time 68880, Note Name: E3, Velocity: 37
Note OFF: Time 69000, Note Name: E3
Note ON: Time 69000, Note Name: A3, Velocity: 34
Note OFF: Time 69120, Note Name: A3
Note OFF: Time 69120, Note Name: C#3
Note ON: Time 69120, Note Name: D3, Velocity: 32
Note ON: Time 69120, Note Name: F#3, Velocity: 38
Note OFF: Time 69201, Note Name: F#3
Note ON: Time 69201, Note Name: B3, Velocity: 33
Note ON: Time 69280, Note Name: A3, Velocity: 33
Note OFF: Time 69281, Note Name: B3
Note OFF: Time 69360, Note Name: A3
Note ON: Time 69360, Note Name: G#3, Velocity: 38
Note ON: Time 69440, Note Name: B3, Velocity: 34
Note OFF: Time 69441, Note Name: G#3
Note OFF: Time 69520, Note Name: B3
Note ON: Time 69520, Note Name: A3, Velocity: 34
Note OFF: Time 69580, Note Name: A3
Note ON: Time 69600, Note Name: F#3, Velocity: 38
Note OFF: Time 69681, Note Name: F#3
Note ON: Time 69681, Note Name: B3, Velocity: 33
Note ON: Time 69760, Note Name: A3, Velocity: 33
Note OFF: Time 69761, Note Name: B3
Note OFF: Time 69820, Note Name: A3
Note ON: Time 69840, Note Name: G#3, Velocity: 38
Note ON: Time 69920, Note Name: B3, Velocity: 33
Note OFF: Time 69921, Note Name: G#3
Note OFF: Time 70000, Note Name: B3
Note ON: Time 70000, Note Name: A3, Velocity: 33
Note OFF: Time 70060, Note Name: A3
Note ON: Time 70080, Note Name: F#3, Velocity: 38
Note OFF: Time 70161, Note Name: F#3
Note ON: Time 70161, Note Name: B3, Velocity: 34
Note ON: Time 70240, Note Name: A3, Velocity: 34
Note OFF: Time 70241, Note Name: B3
Note OFF: Time 70300, Note Name: A3
Note OFF: Time 70320, Note Name: D3
Note ON: Time 70320, Note Name: D3, Velocity: 32
Note ON: Time 70320, Note Name: F#3, Velocity: 38
Note ON: Time 70400, Note Name: A#3, Velocity: 34
Note OFF: Time 70401, Note Name: F#3
Note OFF: Time 70480, Note Name: A#3
Note ON: Time 70480, Note Name: A3, Velocity: 34
Note OFF: Time 70540, Note Name: A3
Note OFF: Time 70560, Note Name: D3
Note ON: Time 70560, Note Name: C#3, Velocity: 32
Note ON: Time 70560, Note Name: E3, Velocity: 38
Note ON: Time 70640, Note Name: B3, Velocity: 33
Note OFF: Time 70641, Note Name: E3
Note OFF: Time 70720, Note Name: B3
Note ON: Time 70720, Note Name: A3, Velocity: 33
Note OFF: Time 70780, Note Name: A3
Note OFF: Time 70800, Note Name: C#3
Note ON: Time 70800, Note Name: D3, Velocity: 32
Note ON: Time 70800, Note Name: F#3, Velocity: 38
Note ON: Time 70880, Note Name: B3, Velocity: 34
Note OFF: Time 70881, Note Name: F#3
Note OFF: Time 70960, Note Name: B3
Note ON: Time 70960, Note Name: A3, Velocity: 34
Note OFF: Time 71020, Note Name: A3
Note OFF: Time 71040, Note Name: D3
Note ON: Time 71040, Note Name: E3, Velocity: 34
Note ON: Time 71040, Note Name: G3, Velocity: 41
Note ON: Time 71120, Note Name: B3, Velocity: 36
Note OFF: Time 71121, Note Name: G3
Note OFF: Time 71200, Note Name: B3
Note ON: Time 71200, Note Name: A3, Velocity: 36
Note OFF: Time 71260, Note Name: A3
Note OFF: Time 71278, Note Name: E3
Note ON: Time 71280, Note Name: E3, Velocity: 34
Note ON: Time 71280, Note Name: G3, Velocity: 40
Note ON: Time 71360, Note Name: B3, Velocity: 34
Note OFF: Time 71361, Note Name: G3
Note OFF: Time 71440, Note Name: B3
Note ON: Time 71440, Note Name: A3, Velocity: 34
Note OFF: Time 71500, Note Name: A3
Note OFF: Time 71520, Note Name: E3
Note ON: Time 71520, Note Name: D3, Velocity: 32
Note ON: Time 71520, Note Name: F#3, Velocity: 38
Note ON: Time 71600, Note Name: B3, Velocity: 32
Note OFF: Time 71601, Note Name: F#3
Note OFF: Time 71680, Note Name: B3
Note ON: Time 71680, Note Name: A3, Velocity: 32
Note OFF: Time 71740, Note Name: A3
Note OFF: Time 71760, Note Name: D3
Note ON: Time 71760, Note Name: C#3, Velocity: 31
Note ON: Time 71760, Note Name: E3, Velocity: 37
Note ON: Time 71840, Note Name: B3, Velocity: 34
Note OFF: Time 71841, Note Name: E3
Note OFF: Time 71920, Note Name: B3
Note ON: Time 71920, Note Name: A3, Velocity: 34
Note OFF: Time 71980, Note Name: A3
Note OFF: Time 72000, Note Name: C#3
Note ON: Time 72000, Note Name: D3, Velocity: 32
Note ON: Time 72000, Note Name: F#3, Velocity: 38
Note OFF: Time 72081, Note Name: F#3
Note ON: Time 72081, Note Name: B3, Velocity: 39
Note ON: Time 72160, Note Name: A3, Velocity: 39
Note OFF: Time 72161, Note Name: B3
Note OFF: Time 72240, Note Name: A3
Note ON: Time 72240, Note Name: G#3, Velocity: 46
Note ON: Time 72320, Note Name: B3, Velocity: 41
Note OFF: Time 72321, Note Name: G#3
Note OFF: Time 72400, Note Name: B3
Note ON: Time 72400, Note Name: A3, Velocity: 42
Note OFF: Time 72460, Note Name: A3
Note ON: Time 72480, Note Name: F#3, Velocity: 47
Note OFF: Time 72561, Note Name: F#3
Note ON: Time 72561, Note Name: B3, Velocity: 41
Note ON: Time 72640, Note Name: A3, Velocity: 42
Note OFF: Time 72641, Note Name: B3
Note OFF: Time 72700, Note Name: A3
Note ON: Time 72720, Note Name: G#3, Velocity: 49
Note ON: Time 72800, Note Name: B3, Velocity: 42
Note OFF: Time 72801, Note Name: G#3
Note OFF: Time 72880, Note Name: B3
Note ON: Time 72880, Note Name: A3, Velocity: 43
Note OFF: Time 72940, Note Name: A3
Note ON: Time 72960, Note Name: F#3, Velocity: 50
Note OFF: Time 73041, Note Name: F#3
Note ON: Time 73041, Note Name: B3, Velocity: 45
Note ON: Time 73120, Note Name: A3, Velocity: 45
Note OFF: Time 73121, Note Name: B3
Note OFF: Time 73180, Note Name: A3
Note OFF: Time 73200, Note Name: D3
Note ON: Time 73200, Note Name: D3, Velocity: 43
Note ON: Time 73200, Note Name: F#3, Velocity: 51
Note ON: Time 73280, Note Name: A#3, Velocity: 50
Note OFF: Time 73281, Note Name: F#3
Note OFF: Time 73360, Note Name: A#3
Note ON: Time 73360, Note Name: A3, Velocity: 50
Note OFF: Time 73420, Note Name: A3
Note OFF: Time 73440, Note Name: D3
Note ON: Time 73440, Note Name: C#3, Velocity: 44
Note ON: Time 73440, Note Name: E3, Velocity: 53
Note ON: Time 73520, Note Name: B3, Velocity: 46
Note OFF: Time 73521, Note Name: E3
Note OFF: Time 73600, Note Name: B3
Note ON: Time 73600, Note Name: A3, Velocity: 46
Note OFF: Time 73660, Note Name: A3
Note OFF: Time 73680, Note Name: C#3
Note ON: Time 73680, Note Name: D3, Velocity: 45
Note ON: Time 73680, Note Name: F#3, Velocity: 54
Note ON: Time 73760, Note Name: B3, Velocity: 48
Note OFF: Time 73761, Note Name: F#3
Note OFF: Time 73840, Note Name: B3
Note ON: Time 73840, Note Name: A3, Velocity: 49
Note OFF: Time 73900, Note Name: A3
Note OFF: Time 73920, Note Name: D3
Note ON: Time 73920, Note Name: E3, Velocity: 50
Note ON: Time 73920, Note Name: G3, Velocity: 60
Note ON: Time 74000, Note Name: B3, Velocity: 53
Note OFF: Time 74001, Note Name: G3
Note OFF: Time 74080, Note Name: B3
Note ON: Time 74080, Note Name: A3, Velocity: 54
Note OFF: Time 74140, Note Name: A3
Note OFF: Time 74160, Note Name: E3
Note ON: Time 74160, Note Name: E3, Velocity: 50
Note ON: Time 74160, Note Name: G3, Velocity: 60
Note ON: Time 74240, Note Name: B3, Velocity: 51
Note OFF: Time 74241, Note Name: G3
Note OFF: Time 74320, Note Name: B3
Note ON: Time 74320, Note Name: A3, Velocity: 51
Note OFF: Time 74380, Note Name: A3
Note OFF: Time 74400, Note Name: E3
Note ON: Time 74400, Note Name: D3, Velocity: 49
Note ON: Time 74400, Note Name: F#3, Velocity: 58
Note ON: Time 74480, Note Name: B3, Velocity: 49
Note OFF: Time 74481, Note Name: F#3
Note OFF: Time 74560, Note Name: B3
Note ON: Time 74560, Note Name: A3, Velocity: 50
Note OFF: Time 74620, Note Name: A3
Note OFF: Time 74640, Note Name: D3
Note ON: Time 74640, Note Name: C#3, Velocity: 49
Note ON: Time 74640, Note Name: E3, Velocity: 58
Note ON: Time 74720, Note Name: A3, Velocity: 53
Note OFF: Time 74721, Note Name: E3
Note OFF: Time 74800, Note Name: A3
Note ON: Time 74800, Note Name: G3, Velocity: 40
Note OFF: Time 74860, Note Name: G3
Note OFF: Time 74880, Note Name: C#3
Note ON: Time 74880, Note Name: F#3, Velocity: 40
Note ON: Time 74880, Note Name: D3, Velocity: 50
Note OFF: Time 74960, Note Name: F#3
Note ON: Time 74960, Note Name: A3, Velocity: 36
Note OFF: Time 75040, Note Name: A3
Note ON: Time 75040, Note Name: G3, Velocity: 36
Note OFF: Time 75120, Note Name: G3
Note ON: Time 75120, Note Name: F#3, Velocity: 40
Note OFF: Time 75200, Note Name: F#3
Note ON: Time 75200, Note Name: G3, Velocity: 38
Note OFF: Time 75280, Note Name: G3
Note ON: Time 75280, Note Name: A3, Velocity: 38
Note OFF: Time 75360, Note Name: A3
Note ON: Time 75360, Note Name: B3, Velocity: 40
Note OFF: Time 75440, Note Name: B3
Note ON: Time 75440, Note Name: C#4, Velocity: 37
Note OFF: Time 75520, Note Name: C#4
Note ON: Time 75520, Note Name: D4, Velocity: 37
Note OFF: Time 75600, Note Name: D4
Note OFF: Time 75600, Note Name: D3
Note ON: Time 75600, Note Name: E4, Velocity: 40
Note ON: Time 75600, Note Name: E3, Velocity: 50
Note OFF: Time 75840, Note Name: E4
Note ON: Time 75840, Note Name: E4, Velocity: 40
Note OFF: Time 75920, Note Name: E4
Note ON: Time 75920, Note Name: D4, Velocity: 36
Note OFF: Time 76000, Note Name: D4
Note ON: Time 76000, Note Name: C#4, Velocity: 36
Note OFF: Time 76080, Note Name: C#4
Note ON: Time 76080, Note Name: B3, Velocity: 40
Note OFF: Time 76160, Note Name: B3
Note ON: Time 76160, Note Name: A3, Velocity: 35
Note OFF: Time 76240, Note Name: A3
Note ON: Time 76240, Note Name: G3, Velocity: 35
Note OFF: Time 76320, Note Name: G3
Note OFF: Time 76320, Note Name: E3
Note ON: Time 76320, Note Name: C#4, Velocity: 40
Note ON: Time 76320, Note Name: F#3, Velocity: 50
Note OFF: Time 76400, Note Name: C#4
Note ON: Time 76400, Note Name: D4, Velocity: 36
Note OFF: Time 76480, Note Name: D4
Note ON: Time 76480, Note Name: C#4, Velocity: 37
Note OFF: Time 76560, Note Name: C#4
Note ON: Time 76560, Note Name: A3, Velocity: 42
Note OFF: Time 76640, Note Name: A3
Note ON: Time 76640, Note Name: B3, Velocity: 40
Note OFF: Time 76720, Note Name: B3
Note ON: Time 76720, Note Name: C4, Velocity: 41
Note OFF: Time 76800, Note Name: C4
Note ON: Time 76800, Note Name: D4, Velocity: 44
Note OFF: Time 76880, Note Name: D4
Note ON: Time 76880, Note Name: E4, Velocity: 41
Note OFF: Time 76960, Note Name: E4
Note ON: Time 76960, Note Name: F#4, Velocity: 41
Note OFF: Time 77040, Note Name: F#4
Note OFF: Time 77040, Note Name: F#3
Note ON: Time 77040, Note Name: G4, Velocity: 46
Note ON: Time 77040, Note Name: G3, Velocity: 57
Note OFF: Time 77360, Note Name: G4
Note ON: Time 77360, Note Name: F#4, Velocity: 43
Note OFF: Time 77440, Note Name: F#4
Note ON: Time 77440, Note Name: E4, Velocity: 44
Note OFF: Time 77520, Note Name: E4
Note ON: Time 77520, Note Name: D4, Velocity: 50
Note OFF: Time 77600, Note Name: D4
Note ON: Time 77600, Note Name: C4, Velocity: 44
Note OFF: Time 77680, Note Name: C4
Note ON: Time 77680, Note Name: B3, Velocity: 44
Note OFF: Time 77760, Note Name: B3
Note OFF: Time 77760, Note Name: G3
Note ON: Time 77760, Note Name: E4, Velocity: 52
Note ON: Time 77760, Note Name: A3, Velocity: 65
Note OFF: Time 77840, Note Name: E4
Note ON: Time 77840, Note Name: C#4, Velocity: 47
Note OFF: Time 77920, Note Name: C#4
Note ON: Time 77920, Note Name: D4, Velocity: 47
Note OFF: Time 78000, Note Name: D4
Note ON: Time 78000, Note Name: E4, Velocity: 54
Note OFF: Time 78080, Note Name: E4
Note ON: Time 78080, Note Name: F#4, Velocity: 51
Note OFF: Time 78160, Note Name: F#4
Note ON: Time 78160, Note Name: G4, Velocity: 52
Note OFF: Time 78240, Note Name: G4
Note OFF: Time 78240, Note Name: A3
Note ON: Time 78240, Note Name: B3, Velocity: 70
Note ON: Time 78240, Note Name: F#4, Velocity: 56
Note OFF: Time 78320, Note Name: F#4
Note ON: Time 78320, Note Name: E4, Velocity: 52
Note OFF: Time 78400, Note Name: E4
Note ON: Time 78400, Note Name: D4, Velocity: 52
Note OFF: Time 78480, Note Name: D4
Note OFF: Time 78480, Note Name: B3
Note ON: Time 78480, Note Name: A#4, Velocity: 58
Note ON: Time 78480, Note Name: C#4, Velocity: 72
Note OFF: Time 78560, Note Name: A#4
Note ON: Time 78560, Note Name: E4, Velocity: 52
Note OFF: Time 78640, Note Name: E4
Note ON: Time 78640, Note Name: F#4, Velocity: 53
Note OFF: Time 78720, Note Name: F#4
Note ON: Time 78720, Note Name: G4, Velocity: 60
Note OFF: Time 78800, Note Name: G4
Note ON: Time 78800, Note Name: A4, Velocity: 57
Note OFF: Time 78880, Note Name: A4
Note ON: Time 78880, Note Name: A#4, Velocity: 58
Note OFF: Time 78960, Note Name: A#4
Note OFF: Time 78960, Note Name: C#4
Note ON: Time 78960, Note Name: D#4, Velocity: 77
Note ON: Time 78960, Note Name: A4, Velocity: 62
Note OFF: Time 79040, Note Name: A4
Note ON: Time 79040, Note Name: G4, Velocity: 57
Note OFF: Time 79120, Note Name: G4
Note ON: Time 79120, Note Name: F#4, Velocity: 58
Note OFF: Time 79200, Note Name: F#4
Note OFF: Time 79200, Note Name: D#4
Note ON: Time 79200, Note Name: G4, Velocity: 58
Note ON: Time 79200, Note Name: E4, Velocity: 72
Note OFF: Time 79280, Note Name: G4
Note ON: Time 79280, Note Name: A#4, Velocity: 52
Note OFF: Time 79360, Note Name: A#4
Note ON: Time 79360, Note Name: C#5, Velocity: 53
Note OFF: Time 79440, Note Name: C#5
Note OFF: Time 79440, Note Name: E4
Note ON: Time 79440, Note Name: F#4, Velocity: 50
Note ON: Time 79440, Note Name: C5, Velocity: 51
Note OFF: Time 79520, Note Name: C5
Note ON: Time 79520, Note Name: B4, Velocity: 48
Note OFF: Time 79600, Note Name: B4
Note ON: Time 79600, Note Name: C5, Velocity: 49
Note OFF: Time 79680, Note Name: C5
Note OFF: Time 79680, Note Name: F#4
Note ON: Time 79680, Note Name: G4, Velocity: 65
Note ON: Time 79680, Note Name: B4, Velocity: 52
Note OFF: Time 79760, Note Name: B4
Note ON: Time 79760, Note Name: A4, Velocity: 48
Note OFF: Time 79840, Note Name: A4
Note OFF: Time 79840, Note Name: G4
Note ON: Time 79840, Note Name: G3, Velocity: 52
Note ON: Time 79840, Note Name: G4, Velocity: 52
Note OFF: Time 79920, Note Name: G4
Note OFF: Time 79920, Note Name: G3
Note ON: Time 79920, Note Name: B3, Velocity: 48
Note ON: Time 79920, Note Name: G#3, Velocity: 52
Note OFF: Time 80000, Note Name: B3
Note ON: Time 80000, Note Name: C#4, Velocity: 47
Note OFF: Time 80080, Note Name: C#4
Note ON: Time 80080, Note Name: D4, Velocity: 39
Note OFF: Time 80160, Note Name: D4
Note ON: Time 80160, Note Name: F4, Velocity: 45
Note OFF: Time 80240, Note Name: F4
Note ON: Time 80240, Note Name: E4, Velocity: 38
Note OFF: Time 80320, Note Name: E4
Note ON: Time 80320, Note Name: D4, Velocity: 37
Note OFF: Time 80400, Note Name: D4
Note OFF: Time 80400, Note Name: G#3
Note ON: Time 80400, Note Name: C#4, Velocity: 43
Note ON: Time 80400, Note Name: G3, Velocity: 38
Note OFF: Time 80480, Note Name: C#4
Note ON: Time 80480, Note Name: D#4, Velocity: 36
Note OFF: Time 80560, Note Name: D#4
Note ON: Time 80560, Note Name: E4, Velocity: 35
Note OFF: Time 80640, Note Name: E4
Note OFF: Time 80640, Note Name: G3
Note ON: Time 80640, Note Name: F#4, Velocity: 39
Note ON: Time 80640, Note Name: A4, Velocity: 46
Note OFF: Time 81360, Note Name: A4
Note OFF: Time 81360, Note Name: F#4
Note ON: Time 81360, Note Name: D#4, Velocity: 32
Note ON: Time 81360, Note Name: F#4, Velocity: 38
Note OFF: Time 81838, Note Name: F#4
Note OFF: Time 81838, Note Name: D#4
Note ON: Time 81840, Note Name: B3, Velocity: 26
Note ON: Time 81840, Note Name: D#4, Velocity: 26
Note ON: Time 81840, Note Name: F#4, Velocity: 31
Note OFF: Time 82080, Note Name: F#4
Note OFF: Time 82080, Note Name: D#4
Note OFF: Time 82080, Note Name: B3
Note ON: Time 82080, Note Name: E4, Velocity: 41
Note ON: Time 82080, Note Name: G4, Velocity: 41
Note OFF: Time 82440, Note Name: G4
Note OFF: Time 82440, Note Name: E4
Note ON: Time 82440, Note Name: G3, Velocity: 30
Note ON: Time 82440, Note Name: B3, Velocity: 36
Note OFF: Time 82560, Note Name: B3
Note OFF: Time 82560, Note Name: G3
Note ON: Time 82560, Note Name: G3, Velocity: 43
Note ON: Time 82560, Note Name: A4, Velocity: 43
Note OFF: Time 82680, Note Name: A4
Note ON: Time 82680, Note Name: G4, Velocity: 37
Note OFF: Time 82800, Note Name: G4
Note OFF: Time 82800, Note Name: G3
Note ON: Time 82800, Note Name: F#4, Velocity: 46
Note ON: Time 82800, Note Name: A3, Velocity: 39
Note OFF: Time 82920, Note Name: F#4
Note ON: Time 82920, Note Name: G#4, Velocity: 39
Note OFF: Time 83040, Note Name: G#4
Note ON: Time 83040, Note Name: B4, Velocity: 44
Note OFF: Time 83160, Note Name: B4
Note ON: Time 83160, Note Name: A4, Velocity: 40
Note OFF: Time 83280, Note Name: A4
Note OFF: Time 83280, Note Name: A3
Note ON: Time 83280, Note Name: A1, Velocity: 38
Note ON: Time 83280, Note Name: A2, Velocity: 45
Note OFF: Time 83400, Note Name: A2
Note OFF: Time 83400, Note Name: A1
Note ON: Time 83400, Note Name: G1, Velocity: 38
Note ON: Time 83400, Note Name: G2, Velocity: 45
Note OFF: Time 83460, Note Name: G2
Note OFF: Time 83460, Note Name: G1
Note ON: Time 83460, Note Name: F#1, Velocity: 39
Note ON: Time 83460, Note Name: F#2, Velocity: 46
Note OFF: Time 83520, Note Name: F#2
Note OFF: Time 83520, Note Name: F#1
Note ON: Time 83520, Note Name: F#1, Velocity: 52
Note OFF: Time 83580, Note Name: F#1
Note ON: Time 83580, Note Name: A1, Velocity: 44
Note OFF: Time 83640, Note Name: A1
Note ON: Time 83640, Note Name: C2, Velocity: 43
Note OFF: Time 83700, Note Name: C2
Note ON: Time 83700, Note Name: D#2, Velocity: 42
Note OFF: Time 83760, Note Name: D#2
Note ON: Time 83760, Note Name: F#2, Velocity: 41
Note OFF: Time 83820, Note Name: F#2
Note ON: Time 83820, Note Name: A2, Velocity: 40
Note OFF: Time 83880, Note Name: A2
Note ON: Time 83880, Note Name: C3, Velocity: 39
Note OFF: Time 83940, Note Name: C3
Note ON: Time 83940, Note Name: D#3, Velocity: 38
Note OFF: Time 84000, Note Name: D#3
Note ON: Time 84000, Note Name: F#3, Velocity: 36
Note OFF: Time 84060, Note Name: F#3
Note ON: Time 84060, Note Name: C4, Velocity: 27
Note OFF: Time 84120, Note Name: C4
Note ON: Time 84120, Note Name: G3, Velocity: 27
Note OFF: Time 84180, Note Name: G3
Note ON: Time 84180, Note Name: B3, Velocity: 27
Note OFF: Time 84240, Note Name: B3
Note ON: Time 84240, Note Name: G2, Velocity: 22
Note ON: Time 84240, Note Name: G3, Velocity: 26
Note OFF: Time 84720, Note Name: G3
Note OFF: Time 84720, Note Name: G2
Note ON: Time 84960, Note Name: A1, Velocity: 39
Note OFF: Time 85040, Note Name: A1
Note ON: Time 85040, Note Name: D2, Velocity: 34
Note OFF: Time 85120, Note Name: D2
Note ON: Time 85120, Note Name: F#2, Velocity: 34
Note OFF: Time 85200, Note Name: F#2
Note ON: Time 85200, Note Name: A2, Velocity: 39
Note ON: Time 85260, Note Name: D3, Velocity: 32
Note OFF: Time 85320, Note Name: D3
Note ON: Time 85320, Note Name: F#3, Velocity: 32
Note OFF: Time 85380, Note Name: F#3
Note ON: Time 85380, Note Name: A3, Velocity: 32
Note OFF: Time 85440, Note Name: A3
Note ON: Time 85440, Note Name: D3, Velocity: 38
Note OFF: Time 85500, Note Name: D3
Note ON: Time 85500, Note Name: F#3, Velocity: 34
Note OFF: Time 85560, Note Name: F#3
Note OFF: Time 85560, Note Name: A2
Note ON: Time 85560, Note Name: B2, Velocity: 28
Note ON: Time 85560, Note Name: D3, Velocity: 34
Note OFF: Time 85620, Note Name: D3
Note ON: Time 85620, Note Name: F3, Velocity: 34
Note OFF: Time 85680, Note Name: F3
Note OFF: Time 85680, Note Name: B2
Note ON: Time 85680, Note Name: C#3, Velocity: 32
Note ON: Time 85680, Note Name: E3, Velocity: 38
Note OFF: Time 85918, Note Name: E3
Note OFF: Time 85918, Note Name: C#3
Note ON: Time 85920, Note Name: A#2, Velocity: 25
Note ON: Time 85920, Note Name: C#3, Velocity: 25
Note ON: Time 85920, Note Name: E3, Velocity: 25
Note ON: Time 85920, Note Name: G3, Velocity: 30
Note OFF: Time 86280, Note Name: G3
Note OFF: Time 86280, Note Name: A#2
Note OFF: Time 86280, Note Name: C#3
Note OFF: Time 86280, Note Name: E3
Note ON: Time 86280, Note Name: B2, Velocity: 22
Note ON: Time 86280, Note Name: D#3, Velocity: 22
Note ON: Time 86280, Note Name: F#3, Velocity: 27
Note OFF: Time 86400, Note Name: F#3
Note OFF: Time 86400, Note Name: D#3
Note OFF: Time 86400, Note Name: B2
Note ON: Time 86400, Note Name: B2, Velocity: 25
Note ON: Time 86400, Note Name: D#3, Velocity: 25
Note ON: Time 86400, Note Name: F#3, Velocity: 30
Note OFF: Time 86875, Note Name: F#3
Note OFF: Time 86875, Note Name: D#3
Note OFF: Time 86875, Note Name: B2
Note ON: Time 86880, Note Name: B2, Velocity: 22
Note ON: Time 86880, Note Name: D#3, Velocity: 22
Note ON: Time 86880, Note Name: F#3, Velocity: 22
Note ON: Time 86880, Note Name: B3, Velocity: 27
Note OFF: Time 87118, Note Name: B3
Note OFF: Time 87118, Note Name: B2
Note OFF: Time 87118, Note Name: D#3
Note OFF: Time 87118, Note Name: F#3
Note ON: Time 87120, Note Name: B2, Velocity: 25
Note ON: Time 87120, Note Name: D#3, Velocity: 25
Note ON: Time 87120, Note Name: F#3, Velocity: 25
Note ON: Time 87120, Note Name: B3, Velocity: 30
Note OFF: Time 87595, Note Name: B3
Note OFF: Time 87595, Note Name: B2
Note OFF: Time 87595, Note Name: D#3
Note OFF: Time 87595, Note Name: F#3
Note ON: Time 87600, Note Name: B2, Velocity: 22
Note ON: Time 87600, Note Name: D#3, Velocity: 22
Note ON: Time 87600, Note Name: F#3, Velocity: 22
Note ON: Time 87600, Note Name: B3, Velocity: 27
Note OFF: Time 87838, Note Name: B3
Note OFF: Time 87838, Note Name: B2
Note OFF: Time 87838, Note Name: D#3
Note OFF: Time 87838, Note Name: F#3
Note ON: Time 87840, Note Name: B1, Velocity: 25
Note ON: Time 87840, Note Name: B2, Velocity: 30
Note OFF: Time 88078, Note Name: B2
Note OFF: Time 88078, Note Name: B1
Note ON: Time 88080, Note Name: F#1, Velocity: 25
Note ON: Time 88080, Note Name: F#2, Velocity: 30
Note OFF: Time 88555, Note Name: F#2
Note OFF: Time 88555, Note Name: F#1
Note ON: Time 88560, Note Name: G1, Velocity: 25
Note ON: Time 88560, Note Name: G2, Velocity: 30
Note OFF: Time 88798, Note Name: G2
Note OFF: Time 88798, Note Name: G1
Note ON: Time 88800, Note Name: A1, Velocity: 21
Note ON: Time 88800, Note Name: A2, Velocity: 25
Note OFF: Time 89275, Note Name: A2
Note OFF: Time 89275, Note Name: A1
Note ON: Time 89280, Note Name: D1, Velocity: 20
Note ON: Time 89280, Note Name: D2, Velocity: 24
Note OFF: Time 89760, Note Name: D2
Note OFF: Time 89760, Note Name: D1
Note ON: Time 89760, Note Name: F#3, Velocity: 22
Note OFF: Time 90000, Note Name: F#3
Note ON: Time 90000, Note Name: A2, Velocity: 24
Note OFF: Time 90480, Note Name: A2
Note ON: Time 90480, Note Name: A3, Velocity: 21
Note OFF: Time 90720, Note Name: A3
Note ON: Time 90720, Note Name: F#3, Velocity: 24
Note OFF: Time 91200, Note Name: F#3
Note ON: Time 91200, Note Name: A1, Velocity: 28
Note ON: Time 91200, Note Name: A2, Velocity: 34
Note OFF: Time 91440, Note Name: A2
Note OFF: Time 91440, Note Name: A1
Note ON: Time 91440, Note Name: B2, Velocity: 40
Note ON: Time 91440, Note Name: B1, Velocity: 27
Note ON: Time 91440, Note Name: A2, Velocity: 34
Note OFF: Time 91920, Note Name: A2
Note OFF: Time 91920, Note Name: B1
Note OFF: Time 91920, Note Name: B2
Note ON: Time 91920, Note Name: C#2, Velocity: 29
Note ON: Time 91920, Note Name: C#3, Velocity: 29
Note ON: Time 91920, Note Name: A2, Velocity: 29
Note OFF: Time 92158, Note Name: A2
Note OFF: Time 92158, Note Name: C#3
Note OFF: Time 92158, Note Name: C#2
Note ON: Time 92160, Note Name: A2, Velocity: 30
Note ON: Time 92160, Note Name: D2, Velocity: 30
Note ON: Time 92160, Note Name: D3, Velocity: 36
Note OFF: Time 92640, Note Name: D3
Note OFF: Time 92640, Note Name: D2
Note OFF: Time 92640, Note Name: A2
Note ON: Time 92640, Note Name: F#4, Velocity: 33
Note OFF: Time 92880, Note Name: F#4
Note ON: Time 92880, Note Name: A3, Velocity: 33
Note OFF: Time 93360, Note Name: A3
Note ON: Time 93360, Note Name: F#2, Velocity: 26
Note ON: Time 93360, Note Name: A2, Velocity: 26
Note ON: Time 93360, Note Name: F#3, Velocity: 31
Note OFF: Time 93600, Note Name: F#3
Note OFF: Time 93600, Note Name: A2
Note OFF: Time 93600, Note Name: F#2
Note ON: Time 93600, Note Name: A2, Velocity: 28
Note ON: Time 93600, Note Name: A3, Velocity: 33
Note OFF: Time 94080, Note Name: A3
Note OFF: Time 94080, Note Name: A2
Note ON: Time 94080, Note Name: F#2, Velocity: 28
Note ON: Time 94080, Note Name: A2, Velocity: 28
Note ON: Time 94080, Note Name: F#3, Velocity: 33
Note OFF: Time 94560, Note Name: F#3
Note OFF: Time 94560, Note Name: A2
Note OFF: Time 94560, Note Name: F#2
Note ON: Time 94560, Note Name: E2, Velocity: 28
Note ON: Time 94560, Note Name: A2, Velocity: 28
Note ON: Time 94560, Note Name: E3, Velocity: 34
Note OFF: Time 94800, Note Name: E3
Note OFF: Time 94800, Note Name: A2
Note OFF: Time 94800, Note Name: E2
Note ON: Time 94800, Note Name: A1, Velocity: 29
Note ON: Time 94800, Note Name: A2, Velocity: 34
Note OFF: Time 95040, Note Name: A2
Note OFF: Time 95040, Note Name: A1
Note ON: Time 95040, Note Name: D2, Velocity: 30
Note ON: Time 95040, Note Name: A2, Velocity: 36
Note OFF: Time 95760, Note Name: A2
Note OFF: Time 95760, Note Name: D2
Note ON: Time 95760, Note Name: A1, Velocity: 31
Note ON: Time 95760, Note Name: A2, Velocity: 37
Note OFF: Time 96473, Note Name: A2
Note OFF: Time 96473, Note Name: A1
Note ON: Time 96480, Note Name: A1, Velocity: 32
Note ON: Time 96480, Note Name: A2, Velocity: 38
Note OFF: Time 96960, Note Name: A2
Note OFF: Time 96960, Note Name: A1
Note ON: Time 96960, Note Name: G2, Velocity: 43
Note OFF: Time 97080, Note Name: G2
Note ON: Time 97080, Note Name: F#2, Velocity: 45
Note OFF: Time 97200, Note Name: F#2
Note ON: Time 97200, Note Name: E2, Velocity: 53
Note OFF: Time 97320, Note Name: E2
Note ON: Time 97320, Note Name: D2, Velocity: 48
Note OFF: Time 97440, Note Name: D2
Note ON: Time 97440, Note Name: C#2, Velocity: 64
Note OFF: Time 97520, Note Name: C#2
Note ON: Time 97520, Note Name: E2, Velocity: 53
Note OFF: Time 97600, Note Name: E2
Note ON: Time 97600, Note Name: A2, Velocity: 55
Note OFF: Time 97680, Note Name: A2
Note ON: Time 97680, Note Name: C#3, Velocity: 65
Note OFF: Time 97760, Note Name: C#3
Note ON: Time 97760, Note Name: E3, Velocity: 59
Note OFF: Time 97840, Note Name: E3
Note ON: Time 97840, Note Name: A3, Velocity: 59
Note OFF: Time 97920, Note Name: A3
Note ON: Time 97920, Note Name: F#2, Velocity: 36
Note ON: Time 97920, Note Name: F#3, Velocity: 43
Note OFF: Time 98640, Note Name: F#3
Note OFF: Time 98640, Note Name: F#2
Note ON: Time 98640, Note Name: A2, Velocity: 36
Note ON: Time 98640, Note Name: A3, Velocity: 43
Note OFF: Time 99360, Note Name: A3
Note OFF: Time 99360, Note Name: A2
Note ON: Time 99360, Note Name: D3, Velocity: 36
Note ON: Time 99360, Note Name: D4, Velocity: 43
Note OFF: Time 100080, Note Name: D4
Note OFF: Time 100080, Note Name: D3
Note ON: Time 100080, Note Name: B2, Velocity: 36
Note ON: Time 100080, Note Name: B3, Velocity: 43
Note OFF: Time 100560, Note Name: B3
Note OFF: Time 100560, Note Name: B2
Note ON: Time 100560, Note Name: G2, Velocity: 30
Note ON: Time 100560, Note Name: G3, Velocity: 36
Note OFF: Time 100800, Note Name: G3
Note OFF: Time 100800, Note Name: G2
Note ON: Time 100800, Note Name: E2, Velocity: 39
Note ON: Time 100800, Note Name: E3, Velocity: 47
Note OFF: Time 101280, Note Name: E3
Note OFF: Time 101280, Note Name: E2
Note ON: Time 101280, Note Name: E3, Velocity: 36
Note ON: Time 101280, Note Name: G3, Velocity: 43
Note OFF: Time 101518, Note Name: G3
Note OFF: Time 101518, Note Name: E3
Note ON: Time 101520, Note Name: C#3, Velocity: 36
Note ON: Time 101520, Note Name: E3, Velocity: 43
Note OFF: Time 102000, Note Name: E3
Note OFF: Time 102000, Note Name: C#3
Note ON: Time 102000, Note Name: B2, Velocity: 37
Note ON: Time 102000, Note Name: D3, Velocity: 44
Note OFF: Time 102120, Note Name: D3
Note OFF: Time 102120, Note Name: B2
Note ON: Time 102120, Note Name: A#2, Velocity: 38
Note ON: Time 102120, Note Name: C#3, Velocity: 45
Note OFF: Time 102239, Note Name: C#3
Note OFF: Time 102239, Note Name: A#2
Note ON: Time 102240, Note Name: A#2, Velocity: 47
Note OFF: Time 102360, Note Name: A#2
Note ON: Time 102360, Note Name: C#3, Velocity: 44
Note OFF: Time 102480, Note Name: C#3
Note ON: Time 102480, Note Name: F#3, Velocity: 47
Note OFF: Time 102600, Note Name: F#3
Note ON: Time 102600, Note Name: A#3, Velocity: 49
Note OFF: Time 102720, Note Name: A#3
Note ON: Time 102720, Note Name: C#4, Velocity: 51
Note OFF: Time 102840, Note Name: C#4
Note ON: Time 102840, Note Name: F#4, Velocity: 53
Note OFF: Time 102960, Note Name: F#4
Note ON: Time 102960, Note Name: G#4, Velocity: 56
Note ON: Time 102960, Note Name: F#4, Velocity: 47
Note ON: Time 102960, Note Name: D#4, Velocity: 47
Note ON: Time 102960, Note Name: C4, Velocity: 47
Note OFF: Time 103680, Note Name: C4
Note OFF: Time 103680, Note Name: G#4
Note OFF: Time 103680, Note Name: F#4
Note OFF: Time 103680, Note Name: D#4
Note ON: Time 103680, Note Name: G#2, Velocity: 42
Note ON: Time 103680, Note Name: G#3, Velocity: 50
Note OFF: Time 104160, Note Name: G#3
Note OFF: Time 104160, Note Name: G#2
Note ON: Time 104160, Note Name: F2, Velocity: 38
Note ON: Time 104160, Note Name: F3, Velocity: 45
Note OFF: Time 104398, Note Name: F3
Note OFF: Time 104398, Note Name: F2
Note ON: Time 104400, Note Name: F2, Velocity: 42
Note ON: Time 104400, Note Name: F3, Velocity: 50
Note OFF: Time 104640, Note Name: F3
Note OFF: Time 104640, Note Name: F2
Note ON: Time 104640, Note Name: C#2, Velocity: 38
Note ON: Time 104640, Note Name: C#3, Velocity: 45
Note OFF: Time 104880, Note Name: C#3
Note OFF: Time 104880, Note Name: C#2
Note ON: Time 104880, Note Name: D#2, Velocity: 38
Note ON: Time 104880, Note Name: D#3, Velocity: 45
Note OFF: Time 105120, Note Name: D#3
Note OFF: Time 105120, Note Name: D#2
Note ON: Time 105120, Note Name: F2, Velocity: 42
Note ON: Time 105120, Note Name: F3, Velocity: 50
Note OFF: Time 105600, Note Name: F3
Note OFF: Time 105600, Note Name: F2
Note ON: Time 105600, Note Name: F3, Velocity: 38
Note ON: Time 105600, Note Name: G#3, Velocity: 45
Note OFF: Time 105840, Note Name: G#3
Note OFF: Time 105840, Note Name: F3
Note ON: Time 105840, Note Name: F#3, Velocity: 42
Note ON: Time 105840, Note Name: A3, Velocity: 50
Note OFF: Time 106320, Note Name: A3
Note OFF: Time 106320, Note Name: F#3
Note ON: Time 106320, Note Name: C#4, Velocity: 48
Note ON: Time 106320, Note Name: A3, Velocity: 40
Note OFF: Time 106560, Note Name: A3
Note OFF: Time 106560, Note Name: C#4
Note ON: Time 106560, Note Name: C#4, Velocity: 50
Note ON: Time 106560, Note Name: A3, Velocity: 42
Note OFF: Time 107040, Note Name: A3
Note OFF: Time 107040, Note Name: C#4
Note ON: Time 107040, Note Name: C4, Velocity: 46
Note ON: Time 107040, Note Name: G#3, Velocity: 39
Note OFF: Time 107278, Note Name: G#3
Note OFF: Time 107278, Note Name: C4
Note ON: Time 107280, Note Name: G#3, Velocity: 42
Note ON: Time 107280, Note Name: C4, Velocity: 50
Note OFF: Time 107520, Note Name: C4
Note OFF: Time 107520, Note Name: G#3
Note ON: Time 107520, Note Name: D#4, Velocity: 46
Note ON: Time 107520, Note Name: C4, Velocity: 39
Note OFF: Time 107760, Note Name: C4
Note OFF: Time 107760, Note Name: D#4
Note ON: Time 107760, Note Name: F4, Velocity: 46
Note ON: Time 107760, Note Name: C#4, Velocity: 39
Note OFF: Time 108000, Note Name: C#4
Note OFF: Time 108000, Note Name: F4
Note ON: Time 108000, Note Name: D4, Velocity: 50
Note OFF: Time 108120, Note Name: D4
Note ON: Time 108120, Note Name: F4, Velocity: 45
Note OFF: Time 108240, Note Name: F4
Note ON: Time 108240, Note Name: G#4, Velocity: 48
Note OFF: Time 108360, Note Name: G#4
Note ON: Time 108360, Note Name: D5, Velocity: 51
Note OFF: Time 108480, Note Name: D5
Note ON: Time 108480, Note Name: F5, Velocity: 52
Note OFF: Time 108590, Note Name: F5
Note ON: Time 108600, Note Name: G#5, Velocity: 49
Note OFF: Time 108720, Note Name: G#5
Note ON: Time 108720, Note Name: D5, Velocity: 46
Note ON: Time 108720, Note Name: F5, Velocity: 46
Note ON: Time 108720, Note Name: G#5, Velocity: 46
Note ON: Time 108720, Note Name: A#5, Velocity: 55
Note OFF: Time 109200, Note Name: A#5
Note OFF: Time 109200, Note Name: D5
Note OFF: Time 109200, Note Name: F5
Note OFF: Time 109200, Note Name: G#5
Note ON: Time 109440, Note Name: G2, Velocity: 62
Note OFF: Time 109560, Note Name: G2
Note ON: Time 109560, Note Name: A#2, Velocity: 50
Note OFF: Time 109680, Note Name: A#2
Note ON: Time 109680, Note Name: D#3, Velocity: 50
Note OFF: Time 109800, Note Name: D#3
Note ON: Time 109800, Note Name: G3, Velocity: 47
Note OFF: Time 109920, Note Name: G3
Note ON: Time 109920, Note Name: A#3, Velocity: 54
Note OFF: Time 110040, Note Name: A#3
Note ON: Time 110040, Note Name: D#4, Velocity: 45
Note OFF: Time 110160, Note Name: D#4
Note ON: Time 110160, Note Name: A#2, Velocity: 53
Note OFF: Time 110280, Note Name: A#2
Note ON: Time 110280, Note Name: D#3, Velocity: 45
Note OFF: Time 110400, Note Name: D#3
Note ON: Time 110400, Note Name: G3, Velocity: 51
Note OFF: Time 110520, Note Name: G3
Note ON: Time 110520, Note Name: A#3, Velocity: 45
Note OFF: Time 110640, Note Name: A#3
Note ON: Time 110640, Note Name: G#3, Velocity: 45
Note OFF: Time 110760, Note Name: G#3
Note ON: Time 110760, Note Name: F3, Velocity: 45
Note OFF: Time 110880, Note Name: F3
Note ON: Time 110880, Note Name: D#3, Velocity: 55
Note OFF: Time 111000, Note Name: D#3
Note ON: Time 111000, Note Name: G3, Velocity: 49
Note OFF: Time 111120, Note Name: G3
Note ON: Time 111120, Note Name: A#3, Velocity: 49
Note OFF: Time 111240, Note Name: A#3
Note ON: Time 111240, Note Name: D#4, Velocity: 49
Note OFF: Time 111360, Note Name: D#4
Note ON: Time 111360, Note Name: G#2, Velocity: 54
Note OFF: Time 111480, Note Name: G#2
Note ON: Time 111480, Note Name: G#3, Velocity: 47
Note OFF: Time 111600, Note Name: G#3
Note ON: Time 111600, Note Name: B2, Velocity: 54
Note OFF: Time 111720, Note Name: B2
Note ON: Time 111720, Note Name: D#3, Velocity: 48
Note OFF: Time 111840, Note Name: D#3
Note ON: Time 111840, Note Name: G#3, Velocity: 51
Note OFF: Time 111960, Note Name: G#3
Note ON: Time 111960, Note Name: B3, Velocity: 45
Note OFF: Time 112080, Note Name: B3
Note ON: Time 112080, Note Name: C#3, Velocity: 45
Note OFF: Time 112200, Note Name: C#3
Note ON: Time 112200, Note Name: C#4, Velocity: 45
Note OFF: Time 112320, Note Name: C#4
Note ON: Time 112320, Note Name: A#2, Velocity: 65
Note OFF: Time 112440, Note Name: A#2
Note ON: Time 112440, Note Name: C#3, Velocity: 42
Note OFF: Time 112560, Note Name: C#3
Note ON: Time 112560, Note Name: F#3, Velocity: 51
Note OFF: Time 112680, Note Name: F#3
Note ON: Time 112680, Note Name: A#3, Velocity: 46
Note OFF: Time 112800, Note Name: A#3
Note ON: Time 112800, Note Name: C#3, Velocity: 58
Note OFF: Time 112920, Note Name: C#3
Note ON: Time 112920, Note Name: C#4, Velocity: 46
Note OFF: Time 113040, Note Name: C#4
Note ON: Time 113040, Note Name: D#3, Velocity: 58
Note OFF: Time 113160, Note Name: D#3
Note ON: Time 113160, Note Name: G3, Velocity: 47
Note OFF: Time 113280, Note Name: G3
Note ON: Time 113280, Note Name: A#3, Velocity: 55
Note OFF: Time 113400, Note Name: A#3
Note ON: Time 113400, Note Name: C#4, Velocity: 47
Note OFF: Time 113520, Note Name: C#4
Note ON: Time 113520, Note Name: G3, Velocity: 30
Note OFF: Time 113640, Note Name: G3
Note ON: Time 113640, Note Name: A#3, Velocity: 30
Note OFF: Time 113760, Note Name: A#3
Note ON: Time 113760, Note Name: G#3, Velocity: 39
Note OFF: Time 113880, Note Name: G#3
Note ON: Time 113880, Note Name: B3, Velocity: 26
Note OFF: Time 114000, Note Name: B3
Note ON: Time 114000, Note Name: D#4, Velocity: 26
Note OFF: Time 114120, Note Name: D#4
Note ON: Time 114120, Note Name: G#4, Velocity: 26
Note OFF: Time 114238, Note Name: G#4
Note ON: Time 114240, Note Name: C4, Velocity: 31
Note OFF: Time 114360, Note Name: C4
Note ON: Time 114360, Note Name: D#4, Velocity: 31
Note OFF: Time 114480, Note Name: D#4
Note ON: Time 114480, Note Name: C#4, Velocity: 40
Note OFF: Time 114600, Note Name: C#4
Note ON: Time 114600, Note Name: E4, Velocity: 34
Note OFF: Time 114720, Note Name: E4
Note ON: Time 114720, Note Name: G#4, Velocity: 34
Note OFF: Time 114840, Note Name: G#4
Note ON: Time 114840, Note Name: C#5, Velocity: 29
Note OFF: Time 114958, Note Name: C#5
Note ON: Time 114960, Note Name: F4, Velocity: 34
Note OFF: Time 115080, Note Name: F4
Note ON: Time 115080, Note Name: G#4, Velocity: 31
Note OFF: Time 115200, Note Name: G#4
Note ON: Time 115200, Note Name: F#3, Velocity: 39
Note OFF: Time 115320, Note Name: F#3
Note ON: Time 115320, Note Name: A#3, Velocity: 31
Note OFF: Time 115440, Note Name: A#3
Note ON: Time 115440, Note Name: C#4, Velocity: 31
Note OFF: Time 115560, Note Name: C#4
Note ON: Time 115560, Note Name: F#4, Velocity: 45
Note OFF: Time 115680, Note Name: F#4
Note ON: Time 115680, Note Name: D#2, Velocity: 59
Note OFF: Time 115800, Note Name: D#2
Note ON: Time 115800, Note Name: D#3, Velocity: 52
Note OFF: Time 115920, Note Name: D#3
Note ON: Time 115920, Note Name: F#2, Velocity: 58
Note OFF: Time 116040, Note Name: F#2
Note ON: Time 116040, Note Name: A#2, Velocity: 49
Note OFF: Time 116160, Note Name: A#2
Note ON: Time 116160, Note Name: D#3, Velocity: 57
Note OFF: Time 116280, Note Name: D#3
Note ON: Time 116280, Note Name: F#3, Velocity: 49
Note OFF: Time 116400, Note Name: F#3
Note ON: Time 116400, Note Name: G#2, Velocity: 53
Note OFF: Time 116520, Note Name: G#2
Note ON: Time 116520, Note Name: G#3, Velocity: 49
Note OFF: Time 116640, Note Name: G#3
Note ON: Time 116640, Note Name: E2, Velocity: 59
Note OFF: Time 116760, Note Name: E2
Note ON: Time 116760, Note Name: G#2, Velocity: 51
Note OFF: Time 116880, Note Name: G#2
Note ON: Time 116880, Note Name: C#3, Velocity: 52
Note OFF: Time 117000, Note Name: C#3
Note ON: Time 117000, Note Name: E3, Velocity: 50
Note OFF: Time 117120, Note Name: E3
Note ON: Time 117120, Note Name: G#2, Velocity: 50
Note OFF: Time 117240, Note Name: G#2
Note ON: Time 117240, Note Name: G#3, Velocity: 45
Note OFF: Time 117360, Note Name: G#3
Note ON: Time 117360, Note Name: A2, Velocity: 54
Note OFF: Time 117480, Note Name: A2
Note ON: Time 117480, Note Name: C#3, Velocity: 49
Note OFF: Time 117600, Note Name: C#3
Note ON: Time 117600, Note Name: E3, Velocity: 49
Note OFF: Time 117720, Note Name: E3
Note ON: Time 117720, Note Name: A3, Velocity: 49
Note OFF: Time 117838, Note Name: A3
Note ON: Time 117840, Note Name: C#3, Velocity: 37
Note OFF: Time 117960, Note Name: C#3
Note ON: Time 117960, Note Name: C#4, Velocity: 34
Note OFF: Time 118080, Note Name: C#4
Note ON: Time 118080, Note Name: D#3, Velocity: 39
Note ON: Time 118200, Note Name: F#3, Velocity: 31
Note ON: Time 118320, Note Name: A#3, Velocity: 31
Note OFF: Time 118440, Note Name: A#3
Note ON: Time 118440, Note Name: D#4, Velocity: 31
Note OFF: Time 118558, Note Name: D#4
Note OFF: Time 118560, Note Name: F#3
Note OFF: Time 118560, Note Name: D#3
Note ON: Time 118560, Note Name: G3, Velocity: 35
Note OFF: Time 118680, Note Name: G3
Note ON: Time 118680, Note Name: A#3, Velocity: 31
Note OFF: Time 118800, Note Name: A#3
Note ON: Time 118800, Note Name: G#3, Velocity: 37
Note OFF: Time 118920, Note Name: G#3
Note ON: Time 118920, Note Name: B3, Velocity: 34
Note OFF: Time 119040, Note Name: B3
Note ON: Time 119040, Note Name: D#4, Velocity: 34
Note OFF: Time 119160, Note Name: D#4
Note ON: Time 119160, Note Name: G#4, Velocity: 34
Note OFF: Time 119280, Note Name: G#4
Note ON: Time 119280, Note Name: C4, Velocity: 37
Note OFF: Time 119400, Note Name: C4
Note ON: Time 119400, Note Name: D#4, Velocity: 34
Note OFF: Time 119520, Note Name: D#4
Note ON: Time 119520, Note Name: C#4, Velocity: 41
Note OFF: Time 119640, Note Name: C#4
Note ON: Time 119640, Note Name: F4, Velocity: 31
Note OFF: Time 119760, Note Name: F4
Note ON: Time 119760, Note Name: G#4, Velocity: 31
Note OFF: Time 119880, Note Name: G#4
Note ON: Time 119880, Note Name: C#5, Velocity: 31
Note OFF: Time 119998, Note Name: C#5
Note ON: Time 120000, Note Name: F4, Velocity: 42
Note OFF: Time 120120, Note Name: F4
Note ON: Time 120120, Note Name: G#4, Velocity: 36
Note OFF: Time 120240, Note Name: G#4
Note ON: Time 120240, Note Name: F#4, Velocity: 42
Note OFF: Time 120360, Note Name: F#4
Note ON: Time 120360, Note Name: A4, Velocity: 34
Note OFF: Time 120480, Note Name: A4
Note ON: Time 120480, Note Name: C#5, Velocity: 34
Note OFF: Time 120600, Note Name: C#5
Note ON: Time 120600, Note Name: F#5, Velocity: 34
Note OFF: Time 120720, Note Name: F#5
Note ON: Time 120720, Note Name: B3, Velocity: 37
Note OFF: Time 120840, Note Name: B3
Note ON: Time 120840, Note Name: B4, Velocity: 34
Note ON: Time 120840, Note Name: B3, Velocity: 34
Note OFF: Time 120958, Note Name: B4
Note OFF: Time 120960, Note Name: B3
Note ON: Time 121080, Note Name: G#3, Velocity: 28
Note ON: Time 121080, Note Name: G#4, Velocity: 33
Note OFF: Time 121200, Note Name: G#4
Note OFF: Time 121200, Note Name: G#3
Note ON: Time 121320, Note Name: F4, Velocity: 33
Note ON: Time 121320, Note Name: F3, Velocity: 28
Note OFF: Time 121440, Note Name: F3
Note OFF: Time 121440, Note Name: F4
Note ON: Time 121800, Note Name: C#4, Velocity: 30
Note ON: Time 121800, Note Name: C#3, Velocity: 25
Note OFF: Time 121920, Note Name: C#3
Note OFF: Time 121920, Note Name: C#4
Note ON: Time 122040, Note Name: C#2, Velocity: 25
Note ON: Time 122040, Note Name: C#3, Velocity: 30
Note OFF: Time 122160, Note Name: C#3
Note OFF: Time 122160, Note Name: C#2
Note ON: Time 122520, Note Name: C#2, Velocity: 22
Note ON: Time 122520, Note Name: C#3, Velocity: 26
Note OFF: Time 122640, Note Name: C#3
Note OFF: Time 122640, Note Name: C#2
Note ON: Time 122760, Note Name: C#2, Velocity: 25
Note OFF: Time 122880, Note Name: C#2
Note ON: Time 123240, Note Name: C#2, Velocity: 22
Note OFF: Time 123360, Note Name: C#2
Note ON: Time 123480, Note Name: C#2, Velocity: 21
Note OFF: Time 123600, Note Name: C#2
Note ON: Time 123600, Note Name: C#2, Velocity: 21
Note OFF: Time 123840, Note Name: C#2
Note ON: Time 123840, Note Name: C#2, Velocity: 30
Note OFF: Time 124078, Note Name: C#2
Note ON: Time 124080, Note Name: C#2, Velocity: 24
Note OFF: Time 124318, Note Name: C#2
Note ON: Time 124320, Note Name: G#2, Velocity: 24
Note ON: Time 124320, Note Name: C#2, Velocity: 20
Note OFF: Time 124558, Note Name: C#2
Note OFF: Time 124558, Note Name: G#2
Note ON: Time 124560, Note Name: C#2, Velocity: 20
Note ON: Time 124560, Note Name: G#2, Velocity: 24
Note OFF: Time 124798, Note Name: G#2
Note OFF: Time 124798, Note Name: C#2
Note ON: Time 124800, Note Name: C#2, Velocity: 20
Note ON: Time 124800, Note Name: G#2, Velocity: 24
Note OFF: Time 125038, Note Name: G#2
Note OFF: Time 125038, Note Name: C#2
Note ON: Time 125040, Note Name: F#1, Velocity: 20
Note ON: Time 125040, Note Name: C#2, Velocity: 20
Note ON: Time 125040, Note Name: F#2, Velocity: 24
Note OFF: Time 125278, Note Name: F#2
Note OFF: Time 125278, Note Name: C#2
Note OFF: Time 125278, Note Name: F#1
Note ON: Time 125280, Note Name: F#1, Velocity: 20
Note ON: Time 125280, Note Name: C#2, Velocity: 20
Note ON: Time 125280, Note Name: F#2, Velocity: 24
Note OFF: Time 125518, Note Name: F#2
Note OFF: Time 125518, Note Name: C#2
Note OFF: Time 125518, Note Name: F#1
Note ON: Time 125520, Note Name: C#2, Velocity: 20
Note ON: Time 125520, Note Name: F#2, Velocity: 20
Note ON: Time 125520, Note Name: C#3, Velocity: 24
Note OFF: Time 125758, Note Name: C#3
Note OFF: Time 125758, Note Name: F#2
Note OFF: Time 125758, Note Name: C#2
Note ON: Time 125760, Note Name: C#2, Velocity: 20
Note ON: Time 125760, Note Name: F#2, Velocity: 20
Note ON: Time 125760, Note Name: C#3, Velocity: 24
Note OFF: Time 125998, Note Name: C#3
Note OFF: Time 125998, Note Name: F#2
Note OFF: Time 125998, Note Name: C#2
Note ON: Time 126000, Note Name: C#2, Velocity: 20
Note ON: Time 126000, Note Name: F#2, Velocity: 20
Note ON: Time 126000, Note Name: C#3, Velocity: 24
Note OFF: Time 126238, Note Name: C#3
Note OFF: Time 126238, Note Name: F#2
Note OFF: Time 126238, Note Name: C#2
Note ON: Time 126240, Note Name: C#2, Velocity: 20
Note ON: Time 126240, Note Name: F#2, Velocity: 20
Note ON: Time 126240, Note Name: C#3, Velocity: 24
Note OFF: Time 126478, Note Name: C#3
Note OFF: Time 126478, Note Name: F#2
Note OFF: Time 126478, Note Name: C#2
Note ON: Time 126480, Note Name: C#2, Velocity: 20
Note ON: Time 126480, Note Name: F2, Velocity: 20
Note ON: Time 126480, Note Name: C#3, Velocity: 24
Note OFF: Time 126718, Note Name: C#3
Note OFF: Time 126718, Note Name: F2
Note OFF: Time 126718, Note Name: C#2
Note ON: Time 126720, Note Name: C#2, Velocity: 28
Note ON: Time 126720, Note Name: F#2, Velocity: 28
Note ON: Time 126720, Note Name: C#3, Velocity: 34
Note OFF: Time 126958, Note Name: F#2
Note OFF: Time 126958, Note Name: C#2
Note OFF: Time 126958, Note Name: C#3
Note ON: Time 126960, Note Name: C#2, Velocity: 23
Note ON: Time 126960, Note Name: F#2, Velocity: 23
Note ON: Time 126960, Note Name: C#3, Velocity: 27
Note OFF: Time 127198, Note Name: C#3
Note OFF: Time 127198, Note Name: F#2
Note OFF: Time 127198, Note Name: C#2
Note ON: Time 127200, Note Name: D2, Velocity: 24
Note ON: Time 127200, Note Name: F#2, Velocity: 24
Note ON: Time 127200, Note Name: D3, Velocity: 28
Note OFF: Time 127438, Note Name: D3
Note OFF: Time 127438, Note Name: F#2
Note OFF: Time 127438, Note Name: D2
Note ON: Time 127440, Note Name: D2, Velocity: 25
Note ON: Time 127440, Note Name: F#2, Velocity: 25
Note ON: Time 127440, Note Name: D3, Velocity: 30
Note OFF: Time 127678, Note Name: D3
Note OFF: Time 127678, Note Name: F#2
Note OFF: Time 127678, Note Name: D2
Note ON: Time 127680, Note Name: D2, Velocity: 26
Note ON: Time 127680, Note Name: F#2, Velocity: 26
Note ON: Time 127680, Note Name: D3, Velocity: 31
Note OFF: Time 127918, Note Name: D3
Note OFF: Time 127918, Note Name: F#2
Note OFF: Time 127918, Note Name: D2
Note ON: Time 127920, Note Name: B1, Velocity: 27
Note ON: Time 127920, Note Name: F#2, Velocity: 27
Note ON: Time 127920, Note Name: B2, Velocity: 32
Note OFF: Time 128158, Note Name: B2
Note OFF: Time 128158, Note Name: F#2
Note OFF: Time 128158, Note Name: B1
Note ON: Time 128160, Note Name: B1, Velocity: 29
Note ON: Time 128160, Note Name: F#2, Velocity: 29
Note ON: Time 128160, Note Name: B2, Velocity: 35
Note OFF: Time 128398, Note Name: B2
Note OFF: Time 128398, Note Name: F#2
Note OFF: Time 128398, Note Name: B1
Note ON: Time 128400, Note Name: B2, Velocity: 29
Note ON: Time 128400, Note Name: F#3, Velocity: 29
Note ON: Time 128400, Note Name: B3, Velocity: 34
Note OFF: Time 128638, Note Name: B3
Note OFF: Time 128638, Note Name: F#3
Note OFF: Time 128638, Note Name: B2
Note ON: Time 128640, Note Name: A2, Velocity: 30
Note ON: Time 128640, Note Name: F#3, Velocity: 30
Note ON: Time 128640, Note Name: A3, Velocity: 36
Note OFF: Time 128878, Note Name: A3
Note OFF: Time 128878, Note Name: F#3
Note OFF: Time 128878, Note Name: A2
Note ON: Time 128880, Note Name: A2, Velocity: 31
Note ON: Time 128880, Note Name: F#3, Velocity: 31
Note ON: Time 128880, Note Name: A3, Velocity: 37
Note OFF: Time 129118, Note Name: A3
Note OFF: Time 129118, Note Name: F#3
Note OFF: Time 129118, Note Name: A2
Note ON: Time 129120, Note Name: G#2, Velocity: 32
Note ON: Time 129120, Note Name: C#3, Velocity: 32
Note ON: Time 129120, Note Name: G#3, Velocity: 38
Note OFF: Time 129358, Note Name: G#3
Note OFF: Time 129358, Note Name: C#3
Note OFF: Time 129358, Note Name: G#2
Note ON: Time 129360, Note Name: F#2, Velocity: 33
Note ON: Time 129360, Note Name: C#3, Velocity: 33
Note ON: Time 129360, Note Name: F#3, Velocity: 39
Note OFF: Time 129598, Note Name: F#3
Note OFF: Time 129598, Note Name: C#3
Note OFF: Time 129598, Note Name: F#2
Note ON: Time 129600, Note Name: F2, Velocity: 35
Note ON: Time 129600, Note Name: C#3, Velocity: 35
Note ON: Time 129600, Note Name: G#3, Velocity: 42
Note OFF: Time 129838, Note Name: G#3
Note OFF: Time 129838, Note Name: C#3
Note OFF: Time 129838, Note Name: F2
Note ON: Time 129840, Note Name: F2, Velocity: 34
Note ON: Time 129840, Note Name: C#3, Velocity: 34
Note ON: Time 129840, Note Name: G#3, Velocity: 40
Note OFF: Time 130078, Note Name: G#3
Note OFF: Time 130078, Note Name: C#3
Note OFF: Time 130078, Note Name: F2
Note ON: Time 130080, Note Name: F3, Velocity: 34
Note ON: Time 130080, Note Name: G#3, Velocity: 34
Note ON: Time 130080, Note Name: B3, Velocity: 34
Note ON: Time 130080, Note Name: C#4, Velocity: 40
Note OFF: Time 130318, Note Name: C#4
Note OFF: Time 130318, Note Name: F3
Note OFF: Time 130318, Note Name: G#3
Note OFF: Time 130318, Note Name: B3
Note ON: Time 130320, Note Name: F3, Velocity: 34
Note ON: Time 130320, Note Name: G#3, Velocity: 34
Note ON: Time 130320, Note Name: B3, Velocity: 34
Note ON: Time 130320, Note Name: D4, Velocity: 40
Note OFF: Time 130558, Note Name: D4
Note OFF: Time 130558, Note Name: F3
Note OFF: Time 130558, Note Name: G#3
Note OFF: Time 130558, Note Name: B3
Note ON: Time 130560, Note Name: F3, Velocity: 34
Note ON: Time 130560, Note Name: G#3, Velocity: 34
Note ON: Time 130560, Note Name: B3, Velocity: 34
Note ON: Time 130560, Note Name: D4, Velocity: 40
Note OFF: Time 130798, Note Name: D4
Note OFF: Time 130798, Note Name: F3
Note OFF: Time 130798, Note Name: G#3
Note OFF: Time 130798, Note Name: B3
Note ON: Time 130800, Note Name: F3, Velocity: 34
Note ON: Time 130800, Note Name: G#3, Velocity: 34
Note ON: Time 130800, Note Name: B3, Velocity: 34
Note ON: Time 130800, Note Name: D4, Velocity: 40
Note OFF: Time 131038, Note Name: D4
Note OFF: Time 131038, Note Name: F3
Note OFF: Time 131038, Note Name: G#3
Note OFF: Time 131038, Note Name: B3
Note ON: Time 131040, Note Name: F3, Velocity: 35
Note ON: Time 131040, Note Name: G#3, Velocity: 35
Note ON: Time 131040, Note Name: B3, Velocity: 35
Note ON: Time 131040, Note Name: D4, Velocity: 42
Note OFF: Time 131278, Note Name: D4
Note OFF: Time 131278, Note Name: F3
Note OFF: Time 131278, Note Name: G#3
Note OFF: Time 131278, Note Name: B3
Note ON: Time 131280, Note Name: F2, Velocity: 34
Note ON: Time 131280, Note Name: G#2, Velocity: 34
Note ON: Time 131280, Note Name: F3, Velocity: 40
Note OFF: Time 131518, Note Name: F3
Note OFF: Time 131518, Note Name: G#2
Note OFF: Time 131518, Note Name: F2
Note ON: Time 131520, Note Name: F2, Velocity: 34
Note ON: Time 131520, Note Name: G#2, Velocity: 34
Note ON: Time 131520, Note Name: F3, Velocity: 40
Note OFF: Time 131758, Note Name: F3
Note OFF: Time 131758, Note Name: G#2
Note OFF: Time 131758, Note Name: F2
Note ON: Time 131760, Note Name: F2, Velocity: 30
Note ON: Time 131760, Note Name: G#2, Velocity: 30
Note ON: Time 131760, Note Name: F3, Velocity: 36
Note OFF: Time 131998, Note Name: F3
Note OFF: Time 131998, Note Name: G#2
Note OFF: Time 131998, Note Name: F2
Note ON: Time 132000, Note Name: F#2, Velocity: 28
Note ON: Time 132000, Note Name: A2, Velocity: 28
Note ON: Time 132000, Note Name: F#3, Velocity: 33
Note OFF: Time 132238, Note Name: F#3
Note OFF: Time 132238, Note Name: A2
Note OFF: Time 132238, Note Name: F#2
Note ON: Time 132240, Note Name: G#2, Velocity: 26
Note ON: Time 132240, Note Name: B2, Velocity: 26
Note ON: Time 132240, Note Name: G#3, Velocity: 31
Note OFF: Time 132478, Note Name: G#3
Note OFF: Time 132478, Note Name: B2
Note OFF: Time 132478, Note Name: G#2
Note ON: Time 132480, Note Name: G#2, Velocity: 25
Note ON: Time 132480, Note Name: B2, Velocity: 25
Note ON: Time 132480, Note Name: G#3, Velocity: 30
Note OFF: Time 132718, Note Name: G#3
Note OFF: Time 132718, Note Name: B2
Note OFF: Time 132718, Note Name: G#2
Note ON: Time 132720, Note Name: G#3, Velocity: 26
Note ON: Time 132720, Note Name: B3, Velocity: 26
Note ON: Time 132720, Note Name: D4, Velocity: 26
Note ON: Time 132720, Note Name: F4, Velocity: 31
Note OFF: Time 132958, Note Name: F4
Note OFF: Time 132958, Note Name: G#3
Note OFF: Time 132958, Note Name: B3
Note OFF: Time 132958, Note Name: D4
Note ON: Time 132960, Note Name: G#3, Velocity: 29
Note ON: Time 132960, Note Name: B3, Velocity: 29
Note ON: Time 132960, Note Name: D4, Velocity: 29
Note ON: Time 132960, Note Name: F4, Velocity: 35
Note OFF: Time 133198, Note Name: F4
Note OFF: Time 133198, Note Name: G#3
Note OFF: Time 133198, Note Name: B3
Note OFF: Time 133198, Note Name: D4
Note ON: Time 133200, Note Name: B3, Velocity: 32
Note ON: Time 133200, Note Name: G#3, Velocity: 32
Note ON: Time 133200, Note Name: D4, Velocity: 32
Note ON: Time 133200, Note Name: F4, Velocity: 38
Note OFF: Time 133438, Note Name: F4
Note OFF: Time 133438, Note Name: B3
Note OFF: Time 133438, Note Name: G#3
Note OFF: Time 133438, Note Name: D4
Note ON: Time 133440, Note Name: A3, Velocity: 31
Note ON: Time 133440, Note Name: C#4, Velocity: 31
Note ON: Time 133440, Note Name: F#4, Velocity: 37
Note OFF: Time 133678, Note Name: F#4
Note OFF: Time 133678, Note Name: C#4
Note OFF: Time 133678, Note Name: A3
Note ON: Time 133680, Note Name: B3, Velocity: 30
Note ON: Time 133680, Note Name: D4, Velocity: 30
Note ON: Time 133680, Note Name: F#4, Velocity: 36
Note OFF: Time 133799, Note Name: F#4
Note OFF: Time 133799, Note Name: D4
Note OFF: Time 133799, Note Name: B3
Note ON: Time 133800, Note Name: C4, Velocity: 30
Note ON: Time 133800, Note Name: D#4, Velocity: 30
Note ON: Time 133800, Note Name: F#4, Velocity: 36
Note OFF: Time 133920, Note Name: F#4
Note OFF: Time 133920, Note Name: D#4
Note OFF: Time 133920, Note Name: C4
Note ON: Time 134040, Note Name: C4, Velocity: 31
Note ON: Time 134040, Note Name: D#4, Velocity: 31
Note ON: Time 134040, Note Name: F#4, Velocity: 31
Note ON: Time 134040, Note Name: G#4, Velocity: 37
Note OFF: Time 134160, Note Name: G#4
Note OFF: Time 134160, Note Name: C4
Note OFF: Time 134160, Note Name: D#4
Note OFF: Time 134160, Note Name: F#4
Note ON: Time 134280, Note Name: C4, Velocity: 29
Note ON: Time 134280, Note Name: D#4, Velocity: 29
Note ON: Time 134280, Note Name: F#4, Velocity: 34
Note OFF: Time 134400, Note Name: F#4
Note OFF: Time 134400, Note Name: D#4
Note OFF: Time 134400, Note Name: C4
Note ON: Time 134520, Note Name: F#4, Velocity: 28
Note ON: Time 134520, Note Name: C4, Velocity: 28
Note ON: Time 134520, Note Name: D#4, Velocity: 28
Note ON: Time 134520, Note Name: G#4, Velocity: 34
Note OFF: Time 134640, Note Name: G#4
Note OFF: Time 134640, Note Name: F#4
Note OFF: Time 134640, Note Name: C4
Note OFF: Time 134640, Note Name: D#4
Note ON: Time 134760, Note Name: C4, Velocity: 27
Note ON: Time 134760, Note Name: D#4, Velocity: 27
Note ON: Time 134760, Note Name: F#4, Velocity: 33
Note OFF: Time 134880, Note Name: F#4
Note OFF: Time 134880, Note Name: D#4
Note OFF: Time 134880, Note Name: C4
Note ON: Time 135000, Note Name: C4, Velocity: 27
Note ON: Time 135000, Note Name: D#4, Velocity: 27
Note ON: Time 135000, Note Name: F#4, Velocity: 27
Note ON: Time 135000, Note Name: A4, Velocity: 32
Note OFF: Time 135120, Note Name: A4
Note OFF: Time 135120, Note Name: C4
Note OFF: Time 135120, Note Name: D#4
Note OFF: Time 135120, Note Name: F#4
Note ON: Time 135240, Note Name: F#3, Velocity: 26
Note ON: Time 135240, Note Name: C3, Velocity: 26
Note ON: Time 135240, Note Name: D#3, Velocity: 26
Note ON: Time 135240, Note Name: A3, Velocity: 31
Note OFF: Time 135360, Note Name: A3
Note OFF: Time 135360, Note Name: F#3
Note OFF: Time 135360, Note Name: C3
Note OFF: Time 135360, Note Name: D#3
Note ON: Time 135480, Note Name: C#3, Velocity: 27
Note ON: Time 135480, Note Name: F#3, Velocity: 27
Note ON: Time 135480, Note Name: A3, Velocity: 32
Note OFF: Time 135600, Note Name: A3
Note OFF: Time 135600, Note Name: F#3
Note OFF: Time 135600, Note Name: C#3
Note ON: Time 135720, Note Name: A3, Velocity: 22
Note ON: Time 135720, Note Name: C#3, Velocity: 22
Note ON: Time 135720, Note Name: F#3, Velocity: 22
Note ON: Time 135720, Note Name: C4, Velocity: 26
Note OFF: Time 135840, Note Name: C4
Note OFF: Time 135840, Note Name: A3
Note OFF: Time 135840, Note Name: C#3
Note OFF: Time 135840, Note Name: F#3
Note ON: Time 135960, Note Name: A3, Velocity: 26
Note ON: Time 135960, Note Name: C#3, Velocity: 26
Note ON: Time 135960, Note Name: F#3, Velocity: 26
Note ON: Time 135960, Note Name: C#4, Velocity: 31
Note OFF: Time 136080, Note Name: C#4
Note OFF: Time 136080, Note Name: A3
Note OFF: Time 136080, Note Name: C#3
Note OFF: Time 136080, Note Name: F#3
Note ON: Time 136080, Note Name: F3, Velocity: 26
Note ON: Time 136080, Note Name: C#3, Velocity: 26
Note ON: Time 136080, Note Name: G#3, Velocity: 26
Note ON: Time 136080, Note Name: C#4, Velocity: 31
Note OFF: Time 136320, Note Name: C#4
Note OFF: Time 136320, Note Name: F3
Note OFF: Time 136320, Note Name: C#3
Note OFF: Time 136320, Note Name: G#3
Note ON: Time 136320, Note Name: C#3, Velocity: 26
Note ON: Time 136320, Note Name: F3, Velocity: 26
Note ON: Time 136320, Note Name: G#3, Velocity: 31
Note OFF: Time 136560, Note Name: G#3
Note OFF: Time 136560, Note Name: F3
Note OFF: Time 136560, Note Name: C#3
Note ON: Time 136560, Note Name: C#3, Velocity: 26
Note ON: Time 136560, Note Name: G#3, Velocity: 26
Note ON: Time 136560, Note Name: B3, Velocity: 31
Note OFF: Time 136800, Note Name: B3
Note OFF: Time 136800, Note Name: G#3
Note OFF: Time 136800, Note Name: C#3
Note ON: Time 136800, Note Name: C#3, Velocity: 27
Note ON: Time 136800, Note Name: G#3, Velocity: 27
Note ON: Time 136800, Note Name: B3, Velocity: 32
Note OFF: Time 137040, Note Name: B3
Note OFF: Time 137040, Note Name: G#3
Note OFF: Time 137040, Note Name: C#3
Note ON: Time 137040, Note Name: C#3, Velocity: 23
Note ON: Time 137040, Note Name: G#3, Velocity: 23
Note ON: Time 137040, Note Name: B3, Velocity: 27
Note OFF: Time 137280, Note Name: B3
Note OFF: Time 137280, Note Name: G#3
Note OFF: Time 137280, Note Name: C#3
Note ON: Time 137280, Note Name: C#3, Velocity: 26
Note ON: Time 137280, Note Name: F#3, Velocity: 26
Note ON: Time 137280, Note Name: A3, Velocity: 31
Note OFF: Time 137520, Note Name: A3
Note OFF: Time 137520, Note Name: F#3
Note OFF: Time 137520, Note Name: C#3
Note ON: Time 137520, Note Name: C#3, Velocity: 23
Note ON: Time 137520, Note Name: F#3, Velocity: 23
Note ON: Time 137520, Note Name: A3, Velocity: 27
Note OFF: Time 137760, Note Name: A3
Note OFF: Time 137760, Note Name: F#3
Note OFF: Time 137760, Note Name: C#3
Note ON: Time 137760, Note Name: B2, Velocity: 26
Note ON: Time 137760, Note Name: D3, Velocity: 26
Note ON: Time 137760, Note Name: F3, Velocity: 26
Note ON: Time 137760, Note Name: G#3, Velocity: 31
Note OFF: Time 138000, Note Name: G#3
Note OFF: Time 138000, Note Name: B2
Note OFF: Time 138000, Note Name: D3
Note OFF: Time 138000, Note Name: F3
Note ON: Time 138000, Note Name: A2, Velocity: 26
Note ON: Time 138000, Note Name: C3, Velocity: 26
Note ON: Time 138000, Note Name: D#3, Velocity: 26
Note ON: Time 138000, Note Name: F#3, Velocity: 31
Note OFF: Time 138240, Note Name: F#3
Note OFF: Time 138240, Note Name: A2
Note OFF: Time 138240, Note Name: C3
Note OFF: Time 138240, Note Name: D#3
Note ON: Time 138240, Note Name: D#3, Velocity: 27
Note ON: Time 138240, Note Name: A#2, Velocity: 27
Note ON: Time 138240, Note Name: B2, Velocity: 27
Note ON: Time 138240, Note Name: F#3, Velocity: 32
Note OFF: Time 138480, Note Name: F#3
Note OFF: Time 138480, Note Name: D#3
Note OFF: Time 138480, Note Name: A#2
Note OFF: Time 138480, Note Name: B2
Note ON: Time 138480, Note Name: D#3, Velocity: 23
Note ON: Time 138480, Note Name: A#2, Velocity: 23
Note ON: Time 138480, Note Name: B2, Velocity: 23
Note ON: Time 138480, Note Name: F#3, Velocity: 27
Note OFF: Time 138720, Note Name: F#3
Note OFF: Time 138720, Note Name: D#3
Note OFF: Time 138720, Note Name: A#2
Note OFF: Time 138720, Note Name: B2
Note ON: Time 138720, Note Name: G#2, Velocity: 26
Note ON: Time 138720, Note Name: C#3, Velocity: 26
Note ON: Time 138720, Note Name: F3, Velocity: 31
Note OFF: Time 138960, Note Name: F3
Note OFF: Time 138960, Note Name: C#3
Note OFF: Time 138960, Note Name: G#2
Note ON: Time 138960, Note Name: G#2, Velocity: 23
Note ON: Time 138960, Note Name: C#3, Velocity: 23
Note ON: Time 138960, Note Name: F3, Velocity: 27
Note OFF: Time 139200, Note Name: F3
Note OFF: Time 139200, Note Name: C#3
Note OFF: Time 139200, Note Name: G#2
Note ON: Time 139200, Note Name: C#3, Velocity: 26
Note ON: Time 139200, Note Name: F3, Velocity: 31
Note OFF: Time 139320, Note Name: F3
Note ON: Time 139320, Note Name: F3, Velocity: 31
Note ON: Time 139320, Note Name: G#3, Velocity: 31
Note OFF: Time 139440, Note Name: G#3
Note OFF: Time 139440, Note Name: F3
Note OFF: Time 139440, Note Name: C#3
Note ON: Time 139440, Note Name: B3, Velocity: 32
Note ON: Time 139440, Note Name: C#3, Velocity: 27
Note ON: Time 139440, Note Name: G#3, Velocity: 32
Note OFF: Time 139560, Note Name: G#3
Note OFF: Time 139560, Note Name: B3
Note ON: Time 139560, Note Name: D4, Velocity: 34
Note ON: Time 139560, Note Name: B3, Velocity: 34
Note OFF: Time 139680, Note Name: B3
Note OFF: Time 139680, Note Name: D4
Note OFF: Time 139680, Note Name: C#3
Note ON: Time 139680, Note Name: C#3, Velocity: 31
Note ON: Time 139680, Note Name: B3, Velocity: 31
Note ON: Time 139680, Note Name: D4, Velocity: 37
Note OFF: Time 139918, Note Name: D4
Note OFF: Time 139918, Note Name: B3
Note OFF: Time 139918, Note Name: C#3
Note ON: Time 139920, Note Name: C#3, Velocity: 32
Note ON: Time 139920, Note Name: B3, Velocity: 32
Note ON: Time 139920, Note Name: D4, Velocity: 38
Note OFF: Time 140158, Note Name: D4
Note OFF: Time 140158, Note Name: B3
Note OFF: Time 140158, Note Name: C#3
Note ON: Time 140160, Note Name: C#3, Velocity: 34
Note ON: Time 140160, Note Name: A3, Velocity: 34
Note ON: Time 140160, Note Name: C#4, Velocity: 41
Note OFF: Time 140398, Note Name: C#4
Note OFF: Time 140398, Note Name: A3
Note OFF: Time 140398, Note Name: C#3
Note ON: Time 140400, Note Name: C#3, Velocity: 35
Note ON: Time 140400, Note Name: A3, Velocity: 35
Note ON: Time 140400, Note Name: C#4, Velocity: 42
Note OFF: Time 140638, Note Name: C#4
Note OFF: Time 140638, Note Name: A3
Note OFF: Time 140638, Note Name: C#3
Note ON: Time 140640, Note Name: C#3, Velocity: 32
Note ON: Time 140640, Note Name: G#3, Velocity: 32
Note ON: Time 140640, Note Name: B3, Velocity: 38
Note OFF: Time 140878, Note Name: B3
Note OFF: Time 140878, Note Name: G#3
Note OFF: Time 140878, Note Name: C#3
Note ON: Time 140880, Note Name: C#3, Velocity: 29
Note ON: Time 140880, Note Name: F#3, Velocity: 29
Note ON: Time 140880, Note Name: A3, Velocity: 34
Note OFF: Time 141118, Note Name: A3
Note OFF: Time 141118, Note Name: F#3
Note OFF: Time 141118, Note Name: C#3
Note ON: Time 141120, Note Name: C#3, Velocity: 33
Note ON: Time 141120, Note Name: F#3, Velocity: 33
Note ON: Time 141120, Note Name: A3, Velocity: 40
Note OFF: Time 141358, Note Name: A3
Note OFF: Time 141358, Note Name: F#3
Note OFF: Time 141358, Note Name: C#3
Note ON: Time 141360, Note Name: A3, Velocity: 30
Note ON: Time 141360, Note Name: C#3, Velocity: 30
Note ON: Time 141360, Note Name: F#3, Velocity: 30
Note ON: Time 141360, Note Name: C4, Velocity: 36
Note OFF: Time 141598, Note Name: C4
Note OFF: Time 141598, Note Name: A3
Note OFF: Time 141598, Note Name: C#3
Note OFF: Time 141598, Note Name: F#3
Note ON: Time 141600, Note Name: F3, Velocity: 28
Note ON: Time 141600, Note Name: C#3, Velocity: 28
Note ON: Time 141600, Note Name: G#3, Velocity: 28
Note ON: Time 141600, Note Name: C#4, Velocity: 33
Note OFF: Time 141838, Note Name: C#4
Note OFF: Time 141838, Note Name: F3
Note OFF: Time 141838, Note Name: C#3
Note OFF: Time 141838, Note Name: G#3
Note ON: Time 141840, Note Name: F3, Velocity: 28
Note ON: Time 141840, Note Name: C#3, Velocity: 28
Note ON: Time 141840, Note Name: G#3, Velocity: 28
Note ON: Time 141840, Note Name: C#4, Velocity: 33
Note OFF: Time 142078, Note Name: C#4
Note OFF: Time 142078, Note Name: F3
Note OFF: Time 142078, Note Name: C#3
Note OFF: Time 142078, Note Name: G#3
Note ON: Time 142080, Note Name: F3, Velocity: 27
Note ON: Time 142080, Note Name: C#3, Velocity: 27
Note ON: Time 142080, Note Name: G#3, Velocity: 27
Note ON: Time 142080, Note Name: C#4, Velocity: 32
Note OFF: Time 142318, Note Name: C#4
Note OFF: Time 142318, Note Name: F3
Note OFF: Time 142318, Note Name: C#3
Note OFF: Time 142318, Note Name: G#3
Note ON: Time 142320, Note Name: E3, Velocity: 26
Note ON: Time 142320, Note Name: A#3, Velocity: 26
Note ON: Time 142320, Note Name: C#3, Velocity: 26
Note ON: Time 142320, Note Name: G3, Velocity: 26
Note ON: Time 142320, Note Name: C#4, Velocity: 32
Note OFF: Time 142558, Note Name: C#4
Note OFF: Time 142558, Note Name: C#3
Note OFF: Time 142558, Note Name: E3
Note OFF: Time 142558, Note Name: A#3
Note OFF: Time 142558, Note Name: G3
Note ON: Time 142560, Note Name: G3, Velocity: 26
Note ON: Time 142560, Note Name: D3, Velocity: 26
Note ON: Time 142560, Note Name: B3, Velocity: 26
Note ON: Time 142560, Note Name: D4, Velocity: 31
Note OFF: Time 142798, Note Name: D4
Note OFF: Time 142798, Note Name: G3
Note OFF: Time 142798, Note Name: D3
Note OFF: Time 142798, Note Name: B3
Note ON: Time 142800, Note Name: G3, Velocity: 25
Note ON: Time 142800, Note Name: D3, Velocity: 25
Note ON: Time 142800, Note Name: B3, Velocity: 25
Note ON: Time 142800, Note Name: D4, Velocity: 30
Note OFF: Time 143038, Note Name: D4
Note OFF: Time 143038, Note Name: G3
Note OFF: Time 143038, Note Name: D3
Note OFF: Time 143038, Note Name: B3
Note ON: Time 143040, Note Name: D3, Velocity: 24
Note ON: Time 143040, Note Name: B3, Velocity: 24
Note ON: Time 143040, Note Name: G3, Velocity: 24
Note ON: Time 143040, Note Name: D4, Velocity: 29
Note OFF: Time 143278, Note Name: D4
Note OFF: Time 143278, Note Name: D3
Note OFF: Time 143278, Note Name: B3
Note OFF: Time 143278, Note Name: G3
Note ON: Time 143280, Note Name: G3, Velocity: 24
Note ON: Time 143280, Note Name: D3, Velocity: 24
Note ON: Time 143280, Note Name: B3, Velocity: 24
Note ON: Time 143280, Note Name: D4, Velocity: 28
Note OFF: Time 143518, Note Name: D4
Note OFF: Time 143518, Note Name: G3
Note OFF: Time 143518, Note Name: D3
Note OFF: Time 143518, Note Name: B3
Note ON: Time 143520, Note Name: G3, Velocity: 26
Note ON: Time 143520, Note Name: B3, Velocity: 26
Note ON: Time 143520, Note Name: D4, Velocity: 31
Note OFF: Time 143758, Note Name: D4
Note OFF: Time 143758, Note Name: B3
Note OFF: Time 143758, Note Name: G3
Note ON: Time 143760, Note Name: B3, Velocity: 29
Note ON: Time 143760, Note Name: G3, Velocity: 29
Note ON: Time 143760, Note Name: D4, Velocity: 35
Note OFF: Time 143998, Note Name: D4
Note OFF: Time 143998, Note Name: G3
Note OFF: Time 143998, Note Name: B3
Note ON: Time 144000, Note Name: G3, Velocity: 33
Note ON: Time 144000, Note Name: C4, Velocity: 33
Note ON: Time 144000, Note Name: E4, Velocity: 39
Note OFF: Time 144238, Note Name: E4
Note OFF: Time 144238, Note Name: C4
Note OFF: Time 144238, Note Name: G3
Note ON: Time 144240, Note Name: G3, Velocity: 34
Note ON: Time 144240, Note Name: C4, Velocity: 34
Note ON: Time 144240, Note Name: E4, Velocity: 41
Note OFF: Time 144478, Note Name: E4
Note OFF: Time 144478, Note Name: C4
Note OFF: Time 144478, Note Name: G3
Note ON: Time 144480, Note Name: C4, Velocity: 30
Note ON: Time 144480, Note Name: G3, Velocity: 30
Note ON: Time 144480, Note Name: E4, Velocity: 36
Note OFF: Time 144718, Note Name: E4
Note OFF: Time 144718, Note Name: G3
Note OFF: Time 144718, Note Name: C4
Note ON: Time 144720, Note Name: G3, Velocity: 27
Note ON: Time 144720, Note Name: B3, Velocity: 27
Note ON: Time 144720, Note Name: D4, Velocity: 32
Note OFF: Time 144958, Note Name: D4
Note OFF: Time 144958, Note Name: B3
Note OFF: Time 144958, Note Name: G3
Note ON: Time 144960, Note Name: D3, Velocity: 24
Note ON: Time 144960, Note Name: G3, Velocity: 24
Note ON: Time 144960, Note Name: B3, Velocity: 24
Note ON: Time 144960, Note Name: D4, Velocity: 28
Note OFF: Time 145198, Note Name: D4
Note OFF: Time 145198, Note Name: D3
Note OFF: Time 145198, Note Name: G3
Note OFF: Time 145198, Note Name: B3
Note ON: Time 145200, Note Name: D3, Velocity: 24
Note ON: Time 145200, Note Name: A3, Velocity: 24
Note ON: Time 145200, Note Name: F#3, Velocity: 24
Note ON: Time 145200, Note Name: D4, Velocity: 28
Note OFF: Time 145438, Note Name: D4
Note OFF: Time 145438, Note Name: D3
Note OFF: Time 145438, Note Name: A3
Note OFF: Time 145438, Note Name: F#3
Note ON: Time 145440, Note Name: F#3, Velocity: 25
Note ON: Time 145440, Note Name: D3, Velocity: 25
Note ON: Time 145440, Note Name: A3, Velocity: 25
Note ON: Time 145440, Note Name: D4, Velocity: 30
Note OFF: Time 145678, Note Name: D4
Note OFF: Time 145678, Note Name: F#3
Note OFF: Time 145678, Note Name: D3
Note OFF: Time 145678, Note Name: A3
Note ON: Time 145680, Note Name: F#3, Velocity: 24
Note ON: Time 145680, Note Name: C#3, Velocity: 24
Note ON: Time 145680, Note Name: A3, Velocity: 24
Note ON: Time 145680, Note Name: C#4, Velocity: 28
Note OFF: Time 145918, Note Name: A3
Note OFF: Time 145918, Note Name: F#3
Note OFF: Time 145918, Note Name: C#3
Note OFF: Time 145918, Note Name: C#4
Note ON: Time 145920, Note Name: F#3, Velocity: 24
Note ON: Time 145920, Note Name: C#3, Velocity: 24
Note ON: Time 145920, Note Name: A3, Velocity: 24
Note ON: Time 145920, Note Name: C#4, Velocity: 28
Note OFF: Time 146158, Note Name: C#4
Note OFF: Time 146158, Note Name: F#3
Note OFF: Time 146158, Note Name: C#3
Note OFF: Time 146158, Note Name: A3
Note ON: Time 146160, Note Name: F3, Velocity: 24
Note ON: Time 146160, Note Name: C#3, Velocity: 24
Note ON: Time 146160, Note Name: G#3, Velocity: 24
Note ON: Time 146160, Note Name: C#4, Velocity: 28
Note OFF: Time 146398, Note Name: C#4
Note OFF: Time 146398, Note Name: F3
Note OFF: Time 146398, Note Name: C#3
Note OFF: Time 146398, Note Name: G#3
Note ON: Time 146400, Note Name: C#3, Velocity: 26
Note ON: Time 146400, Note Name: F3, Velocity: 26
Note ON: Time 146400, Note Name: G#3, Velocity: 26
Note ON: Time 146400, Note Name: C#4, Velocity: 31
Note OFF: Time 146638, Note Name: C#4
Note OFF: Time 146638, Note Name: C#3
Note OFF: Time 146638, Note Name: F3
Note OFF: Time 146638, Note Name: G#3
Note ON: Time 146640, Note Name: C#3, Velocity: 29
Note ON: Time 146640, Note Name: F3, Velocity: 29
Note ON: Time 146640, Note Name: G#3, Velocity: 29
Note ON: Time 146640, Note Name: C#4, Velocity: 35
Note OFF: Time 146878, Note Name: C#4
Note OFF: Time 146878, Note Name: C#3
Note OFF: Time 146878, Note Name: F3
Note OFF: Time 146878, Note Name: G#3
Note ON: Time 146880, Note Name: F3, Velocity: 34
Note ON: Time 146880, Note Name: C#3, Velocity: 34
Note ON: Time 146880, Note Name: G#3, Velocity: 34
Note ON: Time 146880, Note Name: C#4, Velocity: 41
Note OFF: Time 147118, Note Name: C#4
Note OFF: Time 147118, Note Name: F3
Note OFF: Time 147118, Note Name: C#3
Note OFF: Time 147118, Note Name: G#3
Note ON: Time 147120, Note Name: F3, Velocity: 36
Note ON: Time 147120, Note Name: C#3, Velocity: 36
Note ON: Time 147120, Note Name: G#3, Velocity: 36
Note ON: Time 147120, Note Name: C#4, Velocity: 43
Note OFF: Time 147358, Note Name: C#4
Note OFF: Time 147358, Note Name: F3
Note OFF: Time 147358, Note Name: C#3
Note OFF: Time 147358, Note Name: G#3
Note ON: Time 147360, Note Name: F#3, Velocity: 31
Note ON: Time 147360, Note Name: A3, Velocity: 31
Note ON: Time 147360, Note Name: C#4, Velocity: 37
Note OFF: Time 147598, Note Name: C#4
Note OFF: Time 147598, Note Name: A3
Note OFF: Time 147598, Note Name: F#3
Note ON: Time 147600, Note Name: F#3, Velocity: 26
Note ON: Time 147600, Note Name: A3, Velocity: 26
Note ON: Time 147600, Note Name: C#4, Velocity: 32
Note OFF: Time 147838, Note Name: C#4
Note OFF: Time 147838, Note Name: A3
Note OFF: Time 147838, Note Name: F#3
Note ON: Time 147840, Note Name: C#4, Velocity: 32
Note ON: Time 147840, Note Name: A3, Velocity: 32
Note OFF: Time 147959, Note Name: A3
Note OFF: Time 147959, Note Name: C#4
Note ON: Time 147960, Note Name: C#3, Velocity: 25
Note ON: Time 147960, Note Name: A2, Velocity: 25
Note ON: Time 147960, Note Name: A3, Velocity: 30
Note OFF: Time 148080, Note Name: A3
Note OFF: Time 148080, Note Name: A2
Note OFF: Time 148080, Note Name: C#3
Note ON: Time 148080, Note Name: G#2, Velocity: 32
Note ON: Time 148080, Note Name: C#3, Velocity: 32
Note ON: Time 148080, Note Name: G#3, Velocity: 37
Note OFF: Time 148200, Note Name: G#3
Note OFF: Time 148200, Note Name: C#3
Note OFF: Time 148200, Note Name: G#2
Note ON: Time 148200, Note Name: F#2, Velocity: 34
Note ON: Time 148200, Note Name: C#3, Velocity: 34
Note ON: Time 148200, Note Name: F#3, Velocity: 41
Note OFF: Time 148320, Note Name: F#3
Note OFF: Time 148320, Note Name: C#3
Note OFF: Time 148320, Note Name: F#2
Note ON: Time 148320, Note Name: C#2, Velocity: 37
Note ON: Time 148320, Note Name: C#3, Velocity: 44
Note OFF: Time 148439, Note Name: C#3
Note OFF: Time 148439, Note Name: C#2
Note ON: Time 148440, Note Name: C#2, Velocity: 61
Note OFF: Time 148680, Note Name: C#2
Note ON: Time 148680, Note Name: F1, Velocity: 39
Note ON: Time 148680, Note Name: F2, Velocity: 47
Note OFF: Time 148920, Note Name: F2
Note OFF: Time 148920, Note Name: F1
Note ON: Time 148920, Note Name: F#1, Velocity: 39
Note ON: Time 148920, Note Name: F#2, Velocity: 47
Note OFF: Time 149160, Note Name: F#2
Note OFF: Time 149160, Note Name: F#1
Note ON: Time 149160, Note Name: G#1, Velocity: 39
Note ON: Time 149160, Note Name: G#2, Velocity: 47
Note OFF: Time 149400, Note Name: G#2
Note OFF: Time 149400, Note Name: G#1
Note ON: Time 149400, Note Name: A1, Velocity: 41
Note ON: Time 149400, Note Name: A2, Velocity: 49
Note OFF: Time 149520, Note Name: A2
Note OFF: Time 149520, Note Name: A1
Note ON: Time 149520, Note Name: B1, Velocity: 44
Note ON: Time 149520, Note Name: B2, Velocity: 52
Note OFF: Time 149640, Note Name: B2
Note OFF: Time 149640, Note Name: B1
Note ON: Time 149640, Note Name: C2, Velocity: 46
Note ON: Time 149640, Note Name: C3, Velocity: 55
Note OFF: Time 149760, Note Name: C3
Note OFF: Time 149760, Note Name: C2
Note ON: Time 149760, Note Name: C#2, Velocity: 42
Note ON: Time 149760, Note Name: C#3, Velocity: 50
Note OFF: Time 149880, Note Name: C#3
Note OFF: Time 149880, Note Name: C#2
Note ON: Time 149880, Note Name: C2, Velocity: 36
Note ON: Time 149880, Note Name: C3, Velocity: 43
Note OFF: Time 150000, Note Name: C3
Note OFF: Time 150000, Note Name: C2
Note ON: Time 150000, Note Name: C#2, Velocity: 41
Note ON: Time 150000, Note Name: C#3, Velocity: 49
Note OFF: Time 150120, Note Name: C#3
Note OFF: Time 150120, Note Name: C#2
Note ON: Time 150120, Note Name: C2, Velocity: 36
Note ON: Time 150120, Note Name: C3, Velocity: 43
Note OFF: Time 150240, Note Name: C3
Note OFF: Time 150240, Note Name: C2
Note ON: Time 150240, Note Name: C#2, Velocity: 39
Note ON: Time 150240, Note Name: C#3, Velocity: 46
Note OFF: Time 150360, Note Name: C#3
Note OFF: Time 150360, Note Name: C#2
Note ON: Time 150360, Note Name: C2, Velocity: 35
Note ON: Time 150360, Note Name: C3, Velocity: 42
Note OFF: Time 150480, Note Name: C3
Note OFF: Time 150480, Note Name: C2
Note ON: Time 150480, Note Name: C#2, Velocity: 40
Note ON: Time 150480, Note Name: C#3, Velocity: 48
Note OFF: Time 150600, Note Name: C#3
Note OFF: Time 150600, Note Name: C#2
Note ON: Time 150600, Note Name: F3, Velocity: 36
Note OFF: Time 150720, Note Name: F3
Note ON: Time 150720, Note Name: G#3, Velocity: 46
Note OFF: Time 150840, Note Name: G#3
Note ON: Time 150840, Note Name: F3, Velocity: 36
Note OFF: Time 150960, Note Name: F3
Note ON: Time 150960, Note Name: G#3, Velocity: 44
Note OFF: Time 151080, Note Name: G#3
Note ON: Time 151080, Note Name: B3, Velocity: 36
Note OFF: Time 151200, Note Name: B3
Note ON: Time 151200, Note Name: C#3, Velocity: 31
Note ON: Time 151200, Note Name: F3, Velocity: 31
Note ON: Time 151200, Note Name: G#3, Velocity: 37
Note ON: Time 151200, Note Name: B3, Velocity: 44
Note OFF: Time 151320, Note Name: B3
Note OFF: Time 151320, Note Name: C#3
Note OFF: Time 151320, Note Name: F3
Note OFF: Time 151320, Note Name: G#3
Note ON: Time 151320, Note Name: C#2, Velocity: 51
Note ON: Time 151320, Note Name: C#3, Velocity: 61
Note OFF: Time 151560, Note Name: C#3
Note OFF: Time 151560, Note Name: C#2
Note ON: Time 151560, Note Name: F2, Velocity: 39
Note ON: Time 151560, Note Name: F3, Velocity: 47
Note OFF: Time 151800, Note Name: F3
Note OFF: Time 151800, Note Name: F2
Note ON: Time 151800, Note Name: F#2, Velocity: 39
Note ON: Time 151800, Note Name: F#3, Velocity: 47
Note OFF: Time 152040, Note Name: F#3
Note OFF: Time 152040, Note Name: F#2
Note ON: Time 152040, Note Name: G#2, Velocity: 39
Note ON: Time 152040, Note Name: G#3, Velocity: 47
Note OFF: Time 152280, Note Name: G#3
Note OFF: Time 152280, Note Name: G#2
Note ON: Time 152280, Note Name: A2, Velocity: 41
Note ON: Time 152280, Note Name: A3, Velocity: 49
Note OFF: Time 152400, Note Name: A3
Note OFF: Time 152400, Note Name: A2
Note ON: Time 152400, Note Name: B2, Velocity: 44
Note ON: Time 152400, Note Name: B3, Velocity: 52
Note OFF: Time 152520, Note Name: B3
Note OFF: Time 152520, Note Name: B2
Note ON: Time 152520, Note Name: C3, Velocity: 46
Note ON: Time 152520, Note Name: C4, Velocity: 55
Note OFF: Time 152760, Note Name: C4
Note OFF: Time 152760, Note Name: C3
Note ON: Time 152760, Note Name: C#3, Velocity: 36
Note ON: Time 152760, Note Name: C#4, Velocity: 43
Note OFF: Time 152880, Note Name: C#4
Note OFF: Time 152880, Note Name: C#3
Note ON: Time 152880, Note Name: C2, Velocity: 41
Note ON: Time 152880, Note Name: C3, Velocity: 49
Note OFF: Time 153000, Note Name: C3
Note OFF: Time 153000, Note Name: C2
Note ON: Time 153000, Note Name: C#2, Velocity: 36
Note ON: Time 153000, Note Name: C#3, Velocity: 43
Note OFF: Time 153120, Note Name: C#3
Note OFF: Time 153120, Note Name: C#2
Note ON: Time 153120, Note Name: C2, Velocity: 39
Note ON: Time 153120, Note Name: C3, Velocity: 46
Note OFF: Time 153240, Note Name: C3
Note OFF: Time 153240, Note Name: C2
Note ON: Time 153240, Note Name: C#2, Velocity: 35
Note ON: Time 153240, Note Name: C#3, Velocity: 42
Note OFF: Time 153360, Note Name: C#3
Note OFF: Time 153360, Note Name: C#2
Note ON: Time 153360, Note Name: C3, Velocity: 46
Note ON: Time 153360, Note Name: C2, Velocity: 39
Note OFF: Time 153480, Note Name: C2
Note OFF: Time 153480, Note Name: C3
Note ON: Time 153480, Note Name: C#2, Velocity: 35
Note ON: Time 153480, Note Name: C#3, Velocity: 42
Note OFF: Time 153600, Note Name: C#3
Note OFF: Time 153600, Note Name: C#2
Note ON: Time 153600, Note Name: C#2, Velocity: 34
Note OFF: Time 153720, Note Name: C#2
Note ON: Time 153720, Note Name: A#2, Velocity: 30
Note OFF: Time 153840, Note Name: A#2
Note ON: Time 153840, Note Name: D2, Velocity: 33
Note OFF: Time 153960, Note Name: D2
Note ON: Time 153960, Note Name: B2, Velocity: 30
Note OFF: Time 154080, Note Name: B2
Note ON: Time 154080, Note Name: G1, Velocity: 33
Note OFF: Time 154200, Note Name: G1
Note ON: Time 154200, Note Name: G2, Velocity: 28
Note OFF: Time 154320, Note Name: G2
Note ON: Time 154320, Note Name: D3, Velocity: 28
Note OFF: Time 154440, Note Name: D3
Note ON: Time 154440, Note Name: G2, Velocity: 28
Note OFF: Time 154560, Note Name: G2
Note ON: Time 154560, Note Name: D3, Velocity: 28
Note OFF: Time 154680, Note Name: D3
Note ON: Time 154680, Note Name: G2, Velocity: 28
Note OFF: Time 154800, Note Name: G2
Note ON: Time 154800, Note Name: B1, Velocity: 33
Note OFF: Time 154920, Note Name: B1
Note ON: Time 154920, Note Name: G2, Velocity: 28
Note OFF: Time 155040, Note Name: G2
Note ON: Time 155040, Note Name: G3, Velocity: 28
Note OFF: Time 155160, Note Name: G3
Note ON: Time 155160, Note Name: G2, Velocity: 28
Note OFF: Time 155280, Note Name: G2
Note ON: Time 155280, Note Name: G3, Velocity: 28
Note OFF: Time 155400, Note Name: G3
Note ON: Time 155400, Note Name: G2, Velocity: 28
Note OFF: Time 155520, Note Name: G2
Note ON: Time 155520, Note Name: C2, Velocity: 33
Note OFF: Time 155640, Note Name: C2
Note ON: Time 155640, Note Name: G2, Velocity: 29
Note OFF: Time 155760, Note Name: G2
Note ON: Time 155760, Note Name: G3, Velocity: 29
Note OFF: Time 155880, Note Name: G3
Note ON: Time 155880, Note Name: G2, Velocity: 29
Note OFF: Time 156000, Note Name: G2
Note ON: Time 156000, Note Name: G3, Velocity: 29
Note OFF: Time 156120, Note Name: G3
Note ON: Time 156120, Note Name: G2, Velocity: 29
Note OFF: Time 156240, Note Name: G2
Note ON: Time 156240, Note Name: G1, Velocity: 33
Note OFF: Time 156360, Note Name: G1
Note ON: Time 156360, Note Name: G2, Velocity: 28
Note OFF: Time 156480, Note Name: G2
Note ON: Time 156480, Note Name: G3, Velocity: 28
Note OFF: Time 156600, Note Name: G3
Note ON: Time 156600, Note Name: G2, Velocity: 28
Note OFF: Time 156720, Note Name: G2
Note ON: Time 156720, Note Name: G3, Velocity: 28
Note OFF: Time 156780, Note Name: G3
Note ON: Time 156780, Note Name: G2, Velocity: 24
Note OFF: Time 156840, Note Name: G2
Note ON: Time 156840, Note Name: D2, Velocity: 23
Note ON: Time 156840, Note Name: F#2, Velocity: 28
Note OFF: Time 156960, Note Name: F#2
Note OFF: Time 156960, Note Name: D2
Note ON: Time 156960, Note Name: D2, Velocity: 25
Note ON: Time 156960, Note Name: F#2, Velocity: 30
Note OFF: Time 157080, Note Name: F#2
Note OFF: Time 157080, Note Name: D2
Note ON: Time 157080, Note Name: A2, Velocity: 27
Note OFF: Time 157200, Note Name: A2
Note ON: Time 157200, Note Name: C#2, Velocity: 22
Note ON: Time 157200, Note Name: F#2, Velocity: 22
Note ON: Time 157200, Note Name: A2, Velocity: 27
Note OFF: Time 157320, Note Name: A2
Note OFF: Time 157320, Note Name: F#2
Note OFF: Time 157320, Note Name: C#2
Note ON: Time 157320, Note Name: C#3, Velocity: 27
Note OFF: Time 157440, Note Name: C#3
Note ON: Time 157440, Note Name: C#2, Velocity: 22
Note ON: Time 157440, Note Name: F#2, Velocity: 22
Note ON: Time 157440, Note Name: A2, Velocity: 27
Note OFF: Time 157560, Note Name: A2
Note OFF: Time 157560, Note Name: F#2
Note OFF: Time 157560, Note Name: C#2
Note ON: Time 157560, Note Name: C#3, Velocity: 27
Note OFF: Time 157680, Note Name: C#3
Note ON: Time 157680, Note Name: C#2, Velocity: 28
Note ON: Time 157680, Note Name: F2, Velocity: 28
Note ON: Time 157680, Note Name: G#2, Velocity: 33
Note OFF: Time 157800, Note Name: G#2
Note OFF: Time 157800, Note Name: F2
Note OFF: Time 157800, Note Name: C#2
Note ON: Time 157800, Note Name: C#3, Velocity: 28
Note OFF: Time 157920, Note Name: C#3
Note ON: Time 157920, Note Name: C#2, Velocity: 23
Note ON: Time 157920, Note Name: F2, Velocity: 23
Note ON: Time 157920, Note Name: G#2, Velocity: 28
Note OFF: Time 158040, Note Name: G#2
Note OFF: Time 158040, Note Name: F2
Note OFF: Time 158040, Note Name: C#2
Note ON: Time 158040, Note Name: C#3, Velocity: 28
Note OFF: Time 158160, Note Name: C#3
Note ON: Time 158160, Note Name: F#2, Velocity: 28
Note ON: Time 158160, Note Name: A2, Velocity: 28
Note OFF: Time 158280, Note Name: A2
Note OFF: Time 158280, Note Name: F#2
Note ON: Time 158280, Note Name: C#3, Velocity: 28
Note OFF: Time 158400, Note Name: C#3
Note ON: Time 158400, Note Name: F#2, Velocity: 26
Note ON: Time 158400, Note Name: A2, Velocity: 31
Note OFF: Time 158520, Note Name: A2
Note OFF: Time 158520, Note Name: F#2
Note ON: Time 158520, Note Name: C#3, Velocity: 26
Note OFF: Time 158640, Note Name: C#3
Note ON: Time 158640, Note Name: B1, Velocity: 22
Note ON: Time 158640, Note Name: B2, Velocity: 26
Note OFF: Time 158760, Note Name: B2
Note OFF: Time 158760, Note Name: B1
Note ON: Time 158760, Note Name: D3, Velocity: 26
Note OFF: Time 158880, Note Name: D3
Note ON: Time 158880, Note Name: B1, Velocity: 22
Note ON: Time 158880, Note Name: G2, Velocity: 26
Note OFF: Time 159000, Note Name: G2
Note OFF: Time 159000, Note Name: B1
Note ON: Time 159000, Note Name: B2, Velocity: 26
Note OFF: Time 159118, Note Name: B2
Note ON: Time 159120, Note Name: B1, Velocity: 26
Note ON: Time 159120, Note Name: B2, Velocity: 31
Note OFF: Time 159240, Note Name: B2
Note OFF: Time 159240, Note Name: B1
Note ON: Time 159240, Note Name: B2, Velocity: 24
Note OFF: Time 159360, Note Name: B2
Note ON: Time 159360, Note Name: C#2, Velocity: 20
Note ON: Time 159360, Note Name: C#3, Velocity: 24
Note OFF: Time 159480, Note Name: C#3
Note OFF: Time 159480, Note Name: C#2
Note ON: Time 159480, Note Name: C#3, Velocity: 24
Note OFF: Time 159600, Note Name: C#3
Note ON: Time 159600, Note Name: C#2, Velocity: 24
Note OFF: Time 159720, Note Name: C#2
Note ON: Time 159720, Note Name: F2, Velocity: 24
Note OFF: Time 159840, Note Name: F2
Note ON: Time 159840, Note Name: F#1, Velocity: 29
Note OFF: Time 159960, Note Name: F#1
Note ON: Time 159960, Note Name: C#2, Velocity: 22
Note ON: Time 159960, Note Name: F#2, Velocity: 26
Note OFF: Time 160080, Note Name: F#2
Note OFF: Time 160080, Note Name: C#2
Note ON: Time 160080, Note Name: F1, Velocity: 26
Note OFF: Time 160200, Note Name: F1
Note ON: Time 160200, Note Name: C#2, Velocity: 21
Note ON: Time 160200, Note Name: G#2, Velocity: 24
Note OFF: Time 160320, Note Name: G#2
Note OFF: Time 160320, Note Name: C#2
Note ON: Time 160320, Note Name: F1, Velocity: 23
Note OFF: Time 160440, Note Name: F1
Note ON: Time 160440, Note Name: C#2, Velocity: 19
Note ON: Time 160440, Note Name: G#2, Velocity: 22
Note OFF: Time 160560, Note Name: G#2
Note OFF: Time 160560, Note Name: C#2
Note ON: Time 160560, Note Name: F#1, Velocity: 24
Note OFF: Time 160680, Note Name: F#1
Note ON: Time 160680, Note Name: C#2, Velocity: 19
Note ON: Time 160680, Note Name: A2, Velocity: 23
Note OFF: Time 160800, Note Name: A2
Note OFF: Time 160800, Note Name: C#2
Note ON: Time 160800, Note Name: C#2, Velocity: 18
Note OFF: Time 160920, Note Name: C#2
Note ON: Time 160920, Note Name: C#3, Velocity: 18
Note ON: Time 160920, Note Name: F#2, Velocity: 15
Note OFF: Time 161040, Note Name: F#2
Note OFF: Time 161040, Note Name: C#3
Note ON: Time 161040, Note Name: C#2, Velocity: 18
Note OFF: Time 161160, Note Name: C#2
Note ON: Time 161160, Note Name: C#3, Velocity: 18
Note OFF: Time 161280, Note Name: C#3
Note ON: Time 161520, Note Name: D2, Velocity: 24
Note ON: Time 161520, Note Name: D3, Velocity: 29
Note OFF: Time 161640, Note Name: D3
Note OFF: Time 161640, Note Name: D2
Note ON: Time 161760, Note Name: A4, Velocity: 23
Note ON: Time 161760, Note Name: F#4, Velocity: 19
Note ON: Time 161760, Note Name: D4, Velocity: 19
Note ON: Time 161760, Note Name: A3, Velocity: 19
Note OFF: Time 161880, Note Name: A3
Note OFF: Time 161880, Note Name: A4
Note OFF: Time 161880, Note Name: F#4
Note OFF: Time 161880, Note Name: D4
Note ON: Time 162000, Note Name: A4, Velocity: 23
Note ON: Time 162000, Note Name: F#4, Velocity: 19
Note ON: Time 162000, Note Name: D4, Velocity: 19
Note ON: Time 162000, Note Name: A3, Velocity: 19
Note OFF: Time 162120, Note Name: A3
Note OFF: Time 162120, Note Name: A4
Note OFF: Time 162120, Note Name: F#4
Note OFF: Time 162120, Note Name: D4
Note ON: Time 162240, Note Name: D2, Velocity: 23
Note ON: Time 162240, Note Name: D3, Velocity: 28
Note OFF: Time 162360, Note Name: D3
Note OFF: Time 162360, Note Name: D2
Note ON: Time 162480, Note Name: A4, Velocity: 23
Note ON: Time 162480, Note Name: F#4, Velocity: 19
Note ON: Time 162480, Note Name: D4, Velocity: 19
Note ON: Time 162480, Note Name: A3, Velocity: 19
Note OFF: Time 162600, Note Name: A3
Note OFF: Time 162600, Note Name: A4
Note OFF: Time 162600, Note Name: F#4
Note OFF: Time 162600, Note Name: D4
Note ON: Time 162720, Note Name: A4, Velocity: 23
Note ON: Time 162720, Note Name: F#4, Velocity: 19
Note ON: Time 162720, Note Name: D4, Velocity: 19
Note ON: Time 162720, Note Name: A3, Velocity: 19
Note OFF: Time 162840, Note Name: A3
Note OFF: Time 162840, Note Name: A4
Note OFF: Time 162840, Note Name: F#4
Note OFF: Time 162840, Note Name: D4
Note ON: Time 162960, Note Name: D2, Velocity: 22
Note ON: Time 162960, Note Name: D3, Velocity: 27
Note OFF: Time 163080, Note Name: D3
Note OFF: Time 163080, Note Name: D2
Note ON: Time 163200, Note Name: A4, Velocity: 23
Note ON: Time 163200, Note Name: F#4, Velocity: 19
Note ON: Time 163200, Note Name: D4, Velocity: 19
Note ON: Time 163200, Note Name: A3, Velocity: 19
Note OFF: Time 163320, Note Name: A3
Note OFF: Time 163320, Note Name: A4
Note OFF: Time 163320, Note Name: F#4
Note OFF: Time 163320, Note Name: D4
Note ON: Time 163440, Note Name: A4, Velocity: 23
Note ON: Time 163440, Note Name: F#4, Velocity: 19
Note ON: Time 163440, Note Name: D4, Velocity: 19
Note ON: Time 163440, Note Name: A3, Velocity: 19
Note OFF: Time 163560, Note Name: A3
Note OFF: Time 163560, Note Name: A4
Note OFF: Time 163560, Note Name: F#4
Note OFF: Time 163560, Note Name: D4
Note ON: Time 163680, Note Name: D2, Velocity: 22
Note ON: Time 163680, Note Name: D3, Velocity: 26
Note OFF: Time 163800, Note Name: D3
Note OFF: Time 163800, Note Name: D2
Note ON: Time 163920, Note Name: A4, Velocity: 23
Note ON: Time 163920, Note Name: F#4, Velocity: 19
Note ON: Time 163920, Note Name: D4, Velocity: 19
Note ON: Time 163920, Note Name: A3, Velocity: 19
Note OFF: Time 164040, Note Name: A3
Note OFF: Time 164040, Note Name: A4
Note OFF: Time 164040, Note Name: F#4
Note OFF: Time 164040, Note Name: D4
Note ON: Time 164160, Note Name: A4, Velocity: 23
Note ON: Time 164160, Note Name: E4, Velocity: 19
Note ON: Time 164160, Note Name: C#4, Velocity: 19
Note ON: Time 164160, Note Name: A3, Velocity: 19
Note OFF: Time 164280, Note Name: A3
Note OFF: Time 164280, Note Name: A4
Note OFF: Time 164280, Note Name: E4
Note OFF: Time 164280, Note Name: C#4
Note ON: Time 164400, Note Name: C#2, Velocity: 22
Note ON: Time 164400, Note Name: C#3, Velocity: 27
Note OFF: Time 164520, Note Name: C#3
Note OFF: Time 164520, Note Name: C#2
Note ON: Time 164640, Note Name: A4, Velocity: 23
Note ON: Time 164640, Note Name: E4, Velocity: 19
Note ON: Time 164640, Note Name: C#4, Velocity: 19
Note ON: Time 164640, Note Name: A3, Velocity: 19
Note OFF: Time 164760, Note Name: A3
Note OFF: Time 164760, Note Name: A4
Note OFF: Time 164760, Note Name: E4
Note OFF: Time 164760, Note Name: C#4
Note ON: Time 164880, Note Name: A4, Velocity: 23
Note ON: Time 164880, Note Name: E4, Velocity: 19
Note ON: Time 164880, Note Name: C#4, Velocity: 19
Note ON: Time 164880, Note Name: A3, Velocity: 19
Note OFF: Time 165000, Note Name: A3
Note OFF: Time 165000, Note Name: A4
Note OFF: Time 165000, Note Name: E4
Note OFF: Time 165000, Note Name: C#4
Note ON: Time 165120, Note Name: C#2, Velocity: 22
Note ON: Time 165120, Note Name: C#3, Velocity: 26
Note OFF: Time 165240, Note Name: C#3
Note OFF: Time 165240, Note Name: C#2
Note ON: Time 165360, Note Name: A4, Velocity: 23
Note ON: Time 165360, Note Name: E4, Velocity: 19
Note ON: Time 165360, Note Name: C#4, Velocity: 19
Note ON: Time 165360, Note Name: A3, Velocity: 19
Note OFF: Time 165480, Note Name: A3
Note OFF: Time 165480, Note Name: A4
Note OFF: Time 165480, Note Name: E4
Note OFF: Time 165480, Note Name: C#4
Note ON: Time 165600, Note Name: A4, Velocity: 23
Note ON: Time 165600, Note Name: E4, Velocity: 19
Note ON: Time 165600, Note Name: C#4, Velocity: 19
Note ON: Time 165600, Note Name: A3, Velocity: 19
Note OFF: Time 165720, Note Name: A3
Note OFF: Time 165720, Note Name: A4
Note OFF: Time 165720, Note Name: E4
Note OFF: Time 165720, Note Name: C#4
Note ON: Time 165840, Note Name: C#2, Velocity: 22
Note ON: Time 165840, Note Name: C#3, Velocity: 27
Note OFF: Time 165960, Note Name: C#3
Note OFF: Time 165960, Note Name: C#2
Note ON: Time 166080, Note Name: A4, Velocity: 23
Note ON: Time 166080, Note Name: E4, Velocity: 19
Note ON: Time 166080, Note Name: C#4, Velocity: 19
Note ON: Time 166080, Note Name: A3, Velocity: 19
Note OFF: Time 166200, Note Name: A3
Note OFF: Time 166200, Note Name: A4
Note OFF: Time 166200, Note Name: E4
Note OFF: Time 166200, Note Name: C#4
Note ON: Time 166320, Note Name: A4, Velocity: 23
Note ON: Time 166320, Note Name: E4, Velocity: 19
Note ON: Time 166320, Note Name: C#4, Velocity: 19
Note ON: Time 166320, Note Name: A3, Velocity: 19
Note OFF: Time 166440, Note Name: A3
Note OFF: Time 166440, Note Name: A4
Note OFF: Time 166440, Note Name: E4
Note OFF: Time 166440, Note Name: C#4
Note ON: Time 166560, Note Name: C#2, Velocity: 22
Note ON: Time 166560, Note Name: C#3, Velocity: 26
Note OFF: Time 166680, Note Name: C#3
Note OFF: Time 166680, Note Name: C#2
Note ON: Time 166800, Note Name: A4, Velocity: 23
Note ON: Time 166800, Note Name: E4, Velocity: 19
Note ON: Time 166800, Note Name: C#4, Velocity: 19
Note ON: Time 166800, Note Name: A3, Velocity: 19
Note OFF: Time 166920, Note Name: A3
Note OFF: Time 166920, Note Name: A4
Note OFF: Time 166920, Note Name: E4
Note OFF: Time 166920, Note Name: C#4
Note ON: Time 167040, Note Name: A4, Velocity: 26
Note ON: Time 167040, Note Name: F#4, Velocity: 21
Note ON: Time 167040, Note Name: D4, Velocity: 21
Note ON: Time 167040, Note Name: A3, Velocity: 21
Note OFF: Time 167160, Note Name: A3
Note OFF: Time 167160, Note Name: A4
Note OFF: Time 167160, Note Name: F#4
Note OFF: Time 167160, Note Name: D4
Note ON: Time 167280, Note Name: D2, Velocity: 25
Note ON: Time 167280, Note Name: D3, Velocity: 31
Note OFF: Time 167400, Note Name: D3
Note OFF: Time 167400, Note Name: D2
Note ON: Time 167520, Note Name: F#4, Velocity: 26
Note ON: Time 167520, Note Name: D4, Velocity: 21
Note ON: Time 167520, Note Name: A3, Velocity: 21
Note ON: Time 167520, Note Name: F#3, Velocity: 21
Note OFF: Time 167640, Note Name: F#3
Note OFF: Time 167640, Note Name: F#4
Note OFF: Time 167640, Note Name: D4
Note OFF: Time 167640, Note Name: A3
Note ON: Time 167760, Note Name: F#4, Velocity: 26
Note ON: Time 167760, Note Name: D4, Velocity: 21
Note ON: Time 167760, Note Name: B3, Velocity: 21
Note ON: Time 167760, Note Name: F#3, Velocity: 21
Note OFF: Time 167880, Note Name: F#3
Note OFF: Time 167880, Note Name: F#4
Note OFF: Time 167880, Note Name: D4
Note OFF: Time 167880, Note Name: B3
Note ON: Time 168000, Note Name: B1, Velocity: 25
Note ON: Time 168000, Note Name: B2, Velocity: 29
Note OFF: Time 168120, Note Name: B2
Note OFF: Time 168120, Note Name: B1
Note ON: Time 168240, Note Name: F#4, Velocity: 26
Note ON: Time 168240, Note Name: D4, Velocity: 21
Note ON: Time 168240, Note Name: B3, Velocity: 21
Note ON: Time 168240, Note Name: F#3, Velocity: 21
Note OFF: Time 168360, Note Name: F#3
Note OFF: Time 168360, Note Name: F#4
Note OFF: Time 168360, Note Name: D4
Note OFF: Time 168360, Note Name: B3
Note ON: Time 168480, Note Name: C#4, Velocity: 21
Note ON: Time 168480, Note Name: F#4, Velocity: 26
Note ON: Time 168480, Note Name: E4, Velocity: 21
Note ON: Time 168480, Note Name: A#3, Velocity: 21
Note ON: Time 168480, Note Name: F#3, Velocity: 21
Note OFF: Time 168600, Note Name: F#3
Note OFF: Time 168600, Note Name: E4
Note OFF: Time 168600, Note Name: C#4
Note OFF: Time 168600, Note Name: F#4
Note OFF: Time 168600, Note Name: A#3
Note ON: Time 168720, Note Name: A#1, Velocity: 25
Note ON: Time 168720, Note Name: A#2, Velocity: 31
Note OFF: Time 168840, Note Name: A#2
Note OFF: Time 168840, Note Name: A#1
Note ON: Time 168960, Note Name: G3, Velocity: 21
Note ON: Time 168960, Note Name: G4, Velocity: 26
Note ON: Time 168960, Note Name: E4, Velocity: 21
Note ON: Time 168960, Note Name: C#4, Velocity: 21
Note ON: Time 168960, Note Name: A#3, Velocity: 21
Note OFF: Time 169080, Note Name: A#3
Note OFF: Time 169080, Note Name: E4
Note OFF: Time 169080, Note Name: G3
Note OFF: Time 169080, Note Name: G4
Note OFF: Time 169080, Note Name: C#4
Note ON: Time 169200, Note Name: G3, Velocity: 21
Note ON: Time 169200, Note Name: G4, Velocity: 26
Note ON: Time 169200, Note Name: E4, Velocity: 21
Note ON: Time 169200, Note Name: C#4, Velocity: 21
Note ON: Time 169200, Note Name: A#3, Velocity: 21
Note OFF: Time 169320, Note Name: A#3
Note OFF: Time 169320, Note Name: E4
Note OFF: Time 169320, Note Name: G3
Note OFF: Time 169320, Note Name: G4
Note OFF: Time 169320, Note Name: C#4
Note ON: Time 169440, Note Name: A#1, Velocity: 25
Note ON: Time 169440, Note Name: A#2, Velocity: 29
Note OFF: Time 169560, Note Name: A#2
Note OFF: Time 169560, Note Name: A#1
Note ON: Time 169680, Note Name: G3, Velocity: 21
Note ON: Time 169680, Note Name: G4, Velocity: 26
Note ON: Time 169680, Note Name: E4, Velocity: 21
Note ON: Time 169680, Note Name: C#4, Velocity: 21
Note ON: Time 169680, Note Name: A#3, Velocity: 21
Note OFF: Time 169800, Note Name: A#3
Note OFF: Time 169800, Note Name: E4
Note OFF: Time 169800, Note Name: G3
Note OFF: Time 169800, Note Name: G4
Note OFF: Time 169800, Note Name: C#4
Note ON: Time 169920, Note Name: C#4, Velocity: 21
Note ON: Time 169920, Note Name: G4, Velocity: 26
Note ON: Time 169920, Note Name: E4, Velocity: 21
Note ON: Time 169920, Note Name: A#3, Velocity: 21
Note ON: Time 169920, Note Name: G3, Velocity: 21
Note OFF: Time 170040, Note Name: G3
Note OFF: Time 170040, Note Name: E4
Note OFF: Time 170040, Note Name: C#4
Note OFF: Time 170040, Note Name: G4
Note OFF: Time 170040, Note Name: A#3
Note ON: Time 170160, Note Name: A#1, Velocity: 25
Note ON: Time 170160, Note Name: A#2, Velocity: 31
Note OFF: Time 170280, Note Name: A#2
Note OFF: Time 170280, Note Name: A#1
Note ON: Time 170400, Note Name: G3, Velocity: 21
Note ON: Time 170400, Note Name: G4, Velocity: 26
Note ON: Time 170400, Note Name: E4, Velocity: 21
Note ON: Time 170400, Note Name: C#4, Velocity: 21
Note ON: Time 170400, Note Name: A#3, Velocity: 21
Note OFF: Time 170520, Note Name: A#3
Note OFF: Time 170520, Note Name: E4
Note OFF: Time 170520, Note Name: G3
Note OFF: Time 170520, Note Name: G4
Note OFF: Time 170520, Note Name: C#4
Note ON: Time 170640, Note Name: F#3, Velocity: 21
Note ON: Time 170640, Note Name: F#4, Velocity: 26
Note ON: Time 170640, Note Name: E4, Velocity: 21
Note ON: Time 170640, Note Name: C#4, Velocity: 21
Note ON: Time 170640, Note Name: A#3, Velocity: 21
Note OFF: Time 170760, Note Name: A#3
Note OFF: Time 170760, Note Name: E4
Note OFF: Time 170760, Note Name: F#3
Note OFF: Time 170760, Note Name: F#4
Note OFF: Time 170760, Note Name: C#4
Note ON: Time 170880, Note Name: A#1, Velocity: 25
Note ON: Time 170880, Note Name: A#2, Velocity: 29
Note OFF: Time 171000, Note Name: A#2
Note OFF: Time 171000, Note Name: A#1
Note ON: Time 171120, Note Name: F#4, Velocity: 26
Note ON: Time 171120, Note Name: F#3, Velocity: 21
Note ON: Time 171120, Note Name: E4, Velocity: 21
Note ON: Time 171120, Note Name: C#4, Velocity: 21
Note ON: Time 171120, Note Name: A#3, Velocity: 21
Note OFF: Time 171240, Note Name: A#3
Note OFF: Time 171240, Note Name: E4
Note OFF: Time 171240, Note Name: F#4
Note OFF: Time 171240, Note Name: F#3
Note OFF: Time 171240, Note Name: C#4
Note ON: Time 171360, Note Name: B3, Velocity: 21
Note ON: Time 171360, Note Name: F#4, Velocity: 26
Note ON: Time 171360, Note Name: D4, Velocity: 21
Note ON: Time 171360, Note Name: F#3, Velocity: 21
Note OFF: Time 171480, Note Name: F#3
Note OFF: Time 171480, Note Name: B3
Note OFF: Time 171480, Note Name: F#4
Note OFF: Time 171480, Note Name: D4
Note ON: Time 171600, Note Name: B1, Velocity: 25
Note ON: Time 171600, Note Name: B2, Velocity: 31
Note OFF: Time 171720, Note Name: B2
Note OFF: Time 171720, Note Name: B1
Note ON: Time 171840, Note Name: F#4, Velocity: 26
Note ON: Time 171840, Note Name: D4, Velocity: 21
Note ON: Time 171840, Note Name: B3, Velocity: 21
Note ON: Time 171840, Note Name: F#3, Velocity: 21
Note OFF: Time 171960, Note Name: F#3
Note OFF: Time 171960, Note Name: F#4
Note OFF: Time 171960, Note Name: D4
Note OFF: Time 171960, Note Name: B3
Note ON: Time 172080, Note Name: F#4, Velocity: 26
Note ON: Time 172080, Note Name: E4, Velocity: 21
Note ON: Time 172080, Note Name: F#3, Velocity: 21
Note ON: Time 172080, Note Name: A#3, Velocity: 21
Note OFF: Time 172200, Note Name: A#3
Note OFF: Time 172200, Note Name: F#4
Note OFF: Time 172200, Note Name: E4
Note OFF: Time 172200, Note Name: F#3
Note ON: Time 172320, Note Name: C#2, Velocity: 25
Note ON: Time 172320, Note Name: C#3, Velocity: 29
Note OFF: Time 172440, Note Name: C#3
Note OFF: Time 172440, Note Name: C#2
Note ON: Time 172560, Note Name: F#4, Velocity: 26
Note ON: Time 172560, Note Name: E4, Velocity: 21
Note ON: Time 172560, Note Name: F#3, Velocity: 21
Note ON: Time 172560, Note Name: A#3, Velocity: 21
Note OFF: Time 172680, Note Name: A#3
Note OFF: Time 172680, Note Name: F#4
Note OFF: Time 172680, Note Name: E4
Note OFF: Time 172680, Note Name: F#3
Note ON: Time 172800, Note Name: B3, Velocity: 23
Note ON: Time 172800, Note Name: F#4, Velocity: 28
Note ON: Time 172800, Note Name: D4, Velocity: 23
Note ON: Time 172800, Note Name: F#3, Velocity: 23
Note OFF: Time 172920, Note Name: F#3
Note OFF: Time 172920, Note Name: B3
Note OFF: Time 172920, Note Name: F#4
Note OFF: Time 172920, Note Name: D4
Note ON: Time 173040, Note Name: B1, Velocity: 27
Note ON: Time 173040, Note Name: B2, Velocity: 34
Note OFF: Time 173160, Note Name: B2
Note OFF: Time 173160, Note Name: B1
Note ON: Time 173280, Note Name: F#4, Velocity: 29
Note ON: Time 173280, Note Name: D4, Velocity: 23
Note ON: Time 173280, Note Name: B3, Velocity: 23
Note ON: Time 173280, Note Name: F#3, Velocity: 23
Note OFF: Time 173400, Note Name: F#3
Note OFF: Time 173400, Note Name: F#4
Note OFF: Time 173400, Note Name: D4
Note OFF: Time 173400, Note Name: B3
Note ON: Time 173520, Note Name: F#4, Velocity: 29
Note ON: Time 173520, Note Name: E4, Velocity: 24
Note ON: Time 173520, Note Name: F#3, Velocity: 24
Note ON: Time 173520, Note Name: A#3, Velocity: 24
Note OFF: Time 173640, Note Name: A#3
Note OFF: Time 173640, Note Name: F#4
Note OFF: Time 173640, Note Name: E4
Note OFF: Time 173640, Note Name: F#3
Note ON: Time 173760, Note Name: C#2, Velocity: 29
Note ON: Time 173760, Note Name: C#3, Velocity: 33
Note OFF: Time 173880, Note Name: C#3
Note OFF: Time 173880, Note Name: C#2
Note ON: Time 174000, Note Name: F#4, Velocity: 30
Note ON: Time 174000, Note Name: E4, Velocity: 24
Note ON: Time 174000, Note Name: F#3, Velocity: 24
Note ON: Time 174000, Note Name: A#3, Velocity: 24
Note OFF: Time 174120, Note Name: A#3
Note OFF: Time 174120, Note Name: F#4
Note OFF: Time 174120, Note Name: E4
Note OFF: Time 174120, Note Name: F#3
Note ON: Time 174240, Note Name: B3, Velocity: 29
Note ON: Time 174240, Note Name: F#4, Velocity: 36
Note ON: Time 174240, Note Name: D4, Velocity: 29
Note ON: Time 174240, Note Name: F#3, Velocity: 29
Note OFF: Time 174360, Note Name: F#3
Note OFF: Time 174360, Note Name: B3
Note OFF: Time 174360, Note Name: F#4
Note OFF: Time 174360, Note Name: D4
Note ON: Time 174480, Note Name: D2, Velocity: 46
Note ON: Time 174480, Note Name: D3, Velocity: 58
Note OFF: Time 174600, Note Name: D3
Note OFF: Time 174600, Note Name: D2
Note ON: Time 174720, Note Name: C#4, Velocity: 39
Note ON: Time 174720, Note Name: F#3, Velocity: 31
Note ON: Time 174720, Note Name: C#3, Velocity: 31
Note OFF: Time 174840, Note Name: C#3
Note OFF: Time 174840, Note Name: F#3
Note OFF: Time 174840, Note Name: C#4
Note ON: Time 174960, Note Name: B3, Velocity: 39
Note ON: Time 174960, Note Name: F#3, Velocity: 31
Note ON: Time 174960, Note Name: B2, Velocity: 31
Note OFF: Time 175080, Note Name: B2
Note OFF: Time 175080, Note Name: F#3
Note OFF: Time 175080, Note Name: B3
Note ON: Time 175200, Note Name: B1, Velocity: 50
Note ON: Time 175200, Note Name: B2, Velocity: 62
Note OFF: Time 175320, Note Name: B2
Note OFF: Time 175320, Note Name: B1
Note ON: Time 175440, Note Name: A3, Velocity: 41
Note ON: Time 175440, Note Name: A2, Velocity: 33
Note OFF: Time 175560, Note Name: A2
Note OFF: Time 175560, Note Name: A3
Note ON: Time 175680, Note Name: G#3, Velocity: 42
Note ON: Time 175680, Note Name: G#2, Velocity: 33
Note OFF: Time 175800, Note Name: G#2
Note OFF: Time 175800, Note Name: G#3
Note ON: Time 175920, Note Name: G#1, Velocity: 53
Note ON: Time 175920, Note Name: G#2, Velocity: 67
Note OFF: Time 176040, Note Name: G#2
Note OFF: Time 176040, Note Name: G#1
Note ON: Time 176160, Note Name: F#3, Velocity: 44
Note ON: Time 176160, Note Name: F#2, Velocity: 36
Note OFF: Time 176280, Note Name: F#2
Note OFF: Time 176280, Note Name: F#3
Note ON: Time 176400, Note Name: F3, Velocity: 54
Note ON: Time 176400, Note Name: F2, Velocity: 43
Note OFF: Time 176520, Note Name: F2
Note OFF: Time 176520, Note Name: F3
Note ON: Time 176520, Note Name: F3, Velocity: 44
Note ON: Time 176520, Note Name: F4, Velocity: 55
Note OFF: Time 176640, Note Name: F4
Note OFF: Time 176640, Note Name: F3
Note ON: Time 176640, Note Name: F2, Velocity: 54
Note ON: Time 176640, Note Name: F3, Velocity: 66
Note OFF: Time 176760, Note Name: F3
Note OFF: Time 176760, Note Name: F2
Note ON: Time 176760, Note Name: F3, Velocity: 54
Note ON: Time 176760, Note Name: F4, Velocity: 68
Note OFF: Time 176880, Note Name: F4
Note OFF: Time 176880, Note Name: F3
Note ON: Time 176880, Note Name: D#3, Velocity: 57
Note ON: Time 176880, Note Name: D#2, Velocity: 46
Note OFF: Time 177000, Note Name: D#2
Note OFF: Time 177000, Note Name: D#3
Note ON: Time 177000, Note Name: D#3, Velocity: 46
Note ON: Time 177000, Note Name: D#4, Velocity: 57
Note OFF: Time 177120, Note Name: D#4
Note OFF: Time 177120, Note Name: D#3
Note ON: Time 177120, Note Name: C#2, Velocity: 44
Note ON: Time 177120, Note Name: C#3, Velocity: 44
Note OFF: Time 177360, Note Name: C#3
Note OFF: Time 177360, Note Name: C#2
Note ON: Time 177360, Note Name: C#4, Velocity: 25
Note ON: Time 177360, Note Name: F4, Velocity: 25
Note ON: Time 177360, Note Name: G#4, Velocity: 30
Note OFF: Time 177600, Note Name: G#4
Note OFF: Time 177600, Note Name: F4
Note ON: Time 177600, Note Name: F#4, Velocity: 24
Note ON: Time 177600, Note Name: A#4, Velocity: 29
Note OFF: Time 177840, Note Name: F#4
Note OFF: Time 177840, Note Name: C#4
Note ON: Time 177840, Note Name: G4, Velocity: 25
Note ON: Time 177840, Note Name: C#4, Velocity: 25
Note OFF: Time 177960, Note Name: G4
Note OFF: Time 177960, Note Name: A#4
Note ON: Time 177960, Note Name: A#4, Velocity: 30
Note ON: Time 177960, Note Name: G4, Velocity: 25
Note OFF: Time 178080, Note Name: G4
Note OFF: Time 178080, Note Name: A#4
Note ON: Time 178080, Note Name: A#4, Velocity: 25
Note ON: Time 178080, Note Name: C#5, Velocity: 30
Note OFF: Time 178200, Note Name: C#5
Note OFF: Time 178200, Note Name: A#4
Note ON: Time 178200, Note Name: G#4, Velocity: 24
Note ON: Time 178200, Note Name: B4, Velocity: 29
Note OFF: Time 178320, Note Name: B4
Note OFF: Time 178320, Note Name: G#4
Note ON: Time 178320, Note Name: G4, Velocity: 24
Note ON: Time 178320, Note Name: A#4, Velocity: 29
Note OFF: Time 178440, Note Name: A#4
Note OFF: Time 178440, Note Name: G4
Note ON: Time 178440, Note Name: G#4, Velocity: 24
Note ON: Time 178440, Note Name: B4, Velocity: 29
Note OFF: Time 178560, Note Name: B4
Note OFF: Time 178560, Note Name: G#4
Note OFF: Time 178560, Note Name: C#4
Note ON: Time 178560, Note Name: F#4, Velocity: 27
Note ON: Time 178560, Note Name: A#4, Velocity: 33
Note ON: Time 178560, Note Name: C#4, Velocity: 27
Note OFF: Time 178680, Note Name: A#4
Note OFF: Time 178680, Note Name: F#4
Note ON: Time 178680, Note Name: F#4, Velocity: 27
Note ON: Time 178680, Note Name: A4, Velocity: 33
Note OFF: Time 178800, Note Name: A4
Note OFF: Time 178800, Note Name: F#4
Note ON: Time 178800, Note Name: F4, Velocity: 27
Note ON: Time 178800, Note Name: G#4, Velocity: 33
Note OFF: Time 179280, Note Name: C#4
Note ON: Time 179280, Note Name: C#4, Velocity: 25
Note OFF: Time 179400, Note Name: G#4
Note OFF: Time 179400, Note Name: F4
Note ON: Time 179400, Note Name: G#4, Velocity: 30
Note ON: Time 179400, Note Name: F4, Velocity: 25
Note OFF: Time 179520, Note Name: F4
Note OFF: Time 179520, Note Name: G#4
Note ON: Time 179520, Note Name: G#4, Velocity: 25
Note ON: Time 179520, Note Name: B4, Velocity: 30
Note OFF: Time 179640, Note Name: B4
Note OFF: Time 179640, Note Name: G#4
Note ON: Time 179640, Note Name: F#4, Velocity: 24
Note ON: Time 179640, Note Name: A#4, Velocity: 29
Note OFF: Time 179760, Note Name: A#4
Note OFF: Time 179760, Note Name: F#4
Note ON: Time 179760, Note Name: F4, Velocity: 24
Note ON: Time 179760, Note Name: G#4, Velocity: 29
Note OFF: Time 179880, Note Name: G#4
Note OFF: Time 179880, Note Name: F4
Note ON: Time 179880, Note Name: F#4, Velocity: 24
Note ON: Time 179880, Note Name: A#4, Velocity: 29
Note OFF: Time 180000, Note Name: A#4
Note OFF: Time 180000, Note Name: F#4
Note OFF: Time 180000, Note Name: C#4
Note ON: Time 180000, Note Name: E4, Velocity: 28
Note ON: Time 180000, Note Name: G4, Velocity: 34
Note ON: Time 180000, Note Name: C#4, Velocity: 28
Note OFF: Time 180240, Note Name: G4
Note OFF: Time 180240, Note Name: E4
Note ON: Time 180240, Note Name: F4, Velocity: 24
Note ON: Time 180240, Note Name: G#4, Velocity: 29
Note OFF: Time 180480, Note Name: G#4
Note OFF: Time 180480, Note Name: F4
Note OFF: Time 180480, Note Name: C#4
Note ON: Time 180480, Note Name: D4, Velocity: 33
Note ON: Time 180480, Note Name: F4, Velocity: 33
Note ON: Time 180480, Note Name: G#4, Velocity: 39
Note OFF: Time 180720, Note Name: G#4
Note OFF: Time 180720, Note Name: F4
Note OFF: Time 180720, Note Name: D4
Note ON: Time 180720, Note Name: G#4, Velocity: 35
Note ON: Time 180720, Note Name: D4, Velocity: 29
Note OFF: Time 180840, Note Name: G#4
Note ON: Time 180840, Note Name: F4, Velocity: 31
Note OFF: Time 180960, Note Name: F4
Note OFF: Time 180960, Note Name: D4
Note ON: Time 180960, Note Name: D#4, Velocity: 33
Note ON: Time 180960, Note Name: G#4, Velocity: 39
Note OFF: Time 181080, Note Name: G#4
Note ON: Time 181080, Note Name: F#4, Velocity: 34
Note OFF: Time 181200, Note Name: F#4
Note OFF: Time 181200, Note Name: D#4
Note ON: Time 181200, Note Name: C4, Velocity: 34
Note ON: Time 181200, Note Name: F4, Velocity: 40
Note OFF: Time 181320, Note Name: F4
Note ON: Time 181320, Note Name: F#4, Velocity: 35
Note OFF: Time 181440, Note Name: F#4
Note OFF: Time 181440, Note Name: C4
Note ON: Time 181440, Note Name: C4, Velocity: 39
Note ON: Time 181440, Note Name: F#4, Velocity: 46
Note OFF: Time 181560, Note Name: F#4
Note ON: Time 181560, Note Name: D#4, Velocity: 40
Note OFF: Time 181680, Note Name: D#4
Note OFF: Time 181680, Note Name: C4
Note ON: Time 181680, Note Name: B3, Velocity: 38
Note ON: Time 181680, Note Name: F#4, Velocity: 45
Note OFF: Time 181800, Note Name: F#4
Note ON: Time 181800, Note Name: F4, Velocity: 40
Note OFF: Time 181920, Note Name: F4
Note OFF: Time 181920, Note Name: B3
Note ON: Time 181920, Note Name: A#3, Velocity: 42
Note ON: Time 181920, Note Name: F#4, Velocity: 50
Note OFF: Time 182040, Note Name: F#4
Note ON: Time 182040, Note Name: C#4, Velocity: 40
Note OFF: Time 182160, Note Name: C#4
Note OFF: Time 182160, Note Name: A#3
Note ON: Time 182160, Note Name: G#3, Velocity: 42
Note ON: Time 182160, Note Name: C#4, Velocity: 42
Note ON: Time 182160, Note Name: F#4, Velocity: 50
Note OFF: Time 182280, Note Name: F#4
Note ON: Time 182280, Note Name: F4, Velocity: 40
Note OFF: Time 182400, Note Name: F4
Note OFF: Time 182400, Note Name: C#4
Note OFF: Time 182400, Note Name: G#3
Note ON: Time 182400, Note Name: F#3, Velocity: 44
Note ON: Time 182400, Note Name: C#4, Velocity: 44
Note ON: Time 182400, Note Name: F#4, Velocity: 52
Note OFF: Time 182640, Note Name: F#4
Note OFF: Time 182640, Note Name: C#4
Note OFF: Time 182640, Note Name: F#3
Note ON: Time 182640, Note Name: B2, Velocity: 39
Note ON: Time 182640, Note Name: B3, Velocity: 47
Note OFF: Time 182880, Note Name: B3
Note OFF: Time 182880, Note Name: B2
Note ON: Time 182880, Note Name: B2, Velocity: 46
Note ON: Time 182880, Note Name: B3, Velocity: 55
Note OFF: Time 183000, Note Name: B3
Note ON: Time 183000, Note Name: F3, Velocity: 47
Note OFF: Time 183120, Note Name: F3
Note OFF: Time 183120, Note Name: B2
Note ON: Time 183120, Note Name: A#2, Velocity: 45
Note ON: Time 183120, Note Name: G#3, Velocity: 54
Note OFF: Time 183240, Note Name: G#3
Note ON: Time 183240, Note Name: F#3, Velocity: 49
Note OFF: Time 183360, Note Name: F#3
Note OFF: Time 183360, Note Name: A#2
Note ON: Time 183360, Note Name: A2, Velocity: 46
Note ON: Time 183360, Note Name: F3, Velocity: 55
Note OFF: Time 183480, Note Name: F3
Note ON: Time 183480, Note Name: D#3, Velocity: 50
Note OFF: Time 183600, Note Name: D#3
Note OFF: Time 183600, Note Name: A2
Note ON: Time 183600, Note Name: C3, Velocity: 57
Note ON: Time 183600, Note Name: G#2, Velocity: 48
Note OFF: Time 183720, Note Name: C3
Note ON: Time 183720, Note Name: C#3, Velocity: 52
Note OFF: Time 183840, Note Name: C#3
Note OFF: Time 183840, Note Name: G#2
Note ON: Time 183840, Note Name: D#2, Velocity: 61
Note OFF: Time 183960, Note Name: D#2
Note ON: Time 183960, Note Name: C#2, Velocity: 51
Note OFF: Time 184080, Note Name: C#2
Note ON: Time 184080, Note Name: C2, Velocity: 64
Note OFF: Time 184200, Note Name: C2
Note ON: Time 184200, Note Name: C#2, Velocity: 58
Note OFF: Time 184320, Note Name: C#2
Note ON: Time 184320, Note Name: C#2, Velocity: 72
Note OFF: Time 184440, Note Name: C#2
Note ON: Time 184440, Note Name: G#3, Velocity: 32
Note OFF: Time 184560, Note Name: G#3
Note ON: Time 184560, Note Name: F3, Velocity: 36
Note OFF: Time 184680, Note Name: F3
Note ON: Time 184680, Note Name: B3, Velocity: 31
Note OFF: Time 184800, Note Name: B3
Note ON: Time 184800, Note Name: G#3, Velocity: 36
Note OFF: Time 184920, Note Name: G#3
Note ON: Time 184920, Note Name: D4, Velocity: 28
Note OFF: Time 185040, Note Name: D4
Note ON: Time 185040, Note Name: C4, Velocity: 34
Note OFF: Time 185160, Note Name: C4
Note ON: Time 185160, Note Name: C#4, Velocity: 30
Note OFF: Time 185280, Note Name: C#4
Note ON: Time 185280, Note Name: G#3, Velocity: 34
Note OFF: Time 185400, Note Name: G#3
Note ON: Time 185400, Note Name: D#4, Velocity: 29
Note OFF: Time 185520, Note Name: D#4
Note ON: Time 185520, Note Name: C#4, Velocity: 34
Note OFF: Time 185640, Note Name: C#4
Note ON: Time 185640, Note Name: B3, Velocity: 30
Note OFF: Time 185760, Note Name: B3
Note ON: Time 185760, Note Name: F#3, Velocity: 32
Note ON: Time 185760, Note Name: A#3, Velocity: 38
Note OFF: Time 185880, Note Name: A#3
Note ON: Time 185880, Note Name: D#4, Velocity: 33
Note OFF: Time 186000, Note Name: D#4
Note ON: Time 186000, Note Name: C4, Velocity: 38
Note OFF: Time 186120, Note Name: C4
Note ON: Time 186120, Note Name: C#4, Velocity: 34
Note OFF: Time 186240, Note Name: C#4
Note ON: Time 186240, Note Name: A#3, Velocity: 38
Note OFF: Time 186360, Note Name: A#3
Note ON: Time 186360, Note Name: D#4, Velocity: 33
Note OFF: Time 186480, Note Name: D#4
Note ON: Time 186480, Note Name: C4, Velocity: 38
Note OFF: Time 186600, Note Name: C4
Note ON: Time 186600, Note Name: C#4, Velocity: 33
Note OFF: Time 186720, Note Name: C#4
Note ON: Time 186720, Note Name: A#3, Velocity: 38
Note OFF: Time 186840, Note Name: A#3
Note ON: Time 186840, Note Name: D#4, Velocity: 34
Note OFF: Time 186960, Note Name: D#4
Note OFF: Time 186960, Note Name: F#3
Note ON: Time 186960, Note Name: F#3, Velocity: 32
Note ON: Time 186960, Note Name: A#3, Velocity: 38
Note OFF: Time 187080, Note Name: A#3
Note ON: Time 187080, Note Name: C#4, Velocity: 34
Note OFF: Time 187200, Note Name: C#4
Note OFF: Time 187200, Note Name: F#3
Note ON: Time 187200, Note Name: F3, Velocity: 32
Note ON: Time 187200, Note Name: G#3, Velocity: 38
Note OFF: Time 187320, Note Name: G#3
Note ON: Time 187320, Note Name: C#4, Velocity: 33
Note OFF: Time 187440, Note Name: C#4
Note OFF: Time 187440, Note Name: F3
Note ON: Time 187440, Note Name: F#3, Velocity: 32
Note ON: Time 187440, Note Name: A#3, Velocity: 38
Note OFF: Time 187560, Note Name: A#3
Note ON: Time 187560, Note Name: C#4, Velocity: 34
Note OFF: Time 187680, Note Name: C#4
Note OFF: Time 187680, Note Name: F#3
Note ON: Time 187680, Note Name: G#3, Velocity: 34
Note ON: Time 187680, Note Name: B3, Velocity: 41
Note OFF: Time 187800, Note Name: B3
Note ON: Time 187800, Note Name: C#4, Velocity: 36
Note OFF: Time 187920, Note Name: C#4
Note OFF: Time 187920, Note Name: G#3
Note ON: Time 187920, Note Name: G#3, Velocity: 34
Note ON: Time 187920, Note Name: B3, Velocity: 40
Note OFF: Time 188040, Note Name: B3
Note ON: Time 188040, Note Name: C#4, Velocity: 34
Note OFF: Time 188160, Note Name: C#4
Note OFF: Time 188160, Note Name: G#3
Note ON: Time 188160, Note Name: F#3, Velocity: 32
Note ON: Time 188160, Note Name: A#3, Velocity: 38
Note OFF: Time 188280, Note Name: A#3
Note ON: Time 188280, Note Name: C#4, Velocity: 32
Note OFF: Time 188400, Note Name: C#4
Note OFF: Time 188400, Note Name: F#3
Note ON: Time 188400, Note Name: F3, Velocity: 31
Note ON: Time 188400, Note Name: G#3, Velocity: 37
Note OFF: Time 188520, Note Name: G#3
Note ON: Time 188520, Note Name: C#4, Velocity: 34
Note OFF: Time 188640, Note Name: C#4
Note OFF: Time 188640, Note Name: F3
Note ON: Time 188640, Note Name: F#3, Velocity: 32
Note ON: Time 188640, Note Name: A#3, Velocity: 38
Note OFF: Time 188760, Note Name: A#3
Note ON: Time 188760, Note Name: D#4, Velocity: 33
Note OFF: Time 188880, Note Name: D#4
Note ON: Time 188880, Note Name: C4, Velocity: 38
Note OFF: Time 189000, Note Name: C4
Note ON: Time 189000, Note Name: C#4, Velocity: 34
Note OFF: Time 189120, Note Name: C#4
Note ON: Time 189120, Note Name: A#3, Velocity: 38
Note OFF: Time 189240, Note Name: A#3
Note ON: Time 189240, Note Name: D#4, Velocity: 33
Note OFF: Time 189360, Note Name: D#4
Note ON: Time 189360, Note Name: C4, Velocity: 38
Note OFF: Time 189480, Note Name: C4
Note ON: Time 189480, Note Name: C#4, Velocity: 33
Note OFF: Time 189600, Note Name: C#4
Note ON: Time 189600, Note Name: A#3, Velocity: 38
Note OFF: Time 189720, Note Name: A#3
Note ON: Time 189720, Note Name: D#4, Velocity: 28
Note OFF: Time 189840, Note Name: D#4
Note OFF: Time 189840, Note Name: F#3
Note ON: Time 189840, Note Name: F#3, Velocity: 27
Note ON: Time 189840, Note Name: A#3, Velocity: 32
Note OFF: Time 189960, Note Name: A#3
Note ON: Time 189960, Note Name: C#4, Velocity: 28
Note OFF: Time 190080, Note Name: C#4
Note OFF: Time 190080, Note Name: F#3
Note ON: Time 190080, Note Name: F3, Velocity: 32
Note ON: Time 190080, Note Name: G#3, Velocity: 38
Note OFF: Time 190200, Note Name: G#3
Note ON: Time 190200, Note Name: C#4, Velocity: 33
Note OFF: Time 190320, Note Name: C#4
Note OFF: Time 190320, Note Name: F3
Note ON: Time 190320, Note Name: F#3, Velocity: 32
Note ON: Time 190320, Note Name: A#3, Velocity: 38
Note OFF: Time 190440, Note Name: A#3
Note ON: Time 190440, Note Name: C#4, Velocity: 34
Note OFF: Time 190560, Note Name: C#4
Note OFF: Time 190560, Note Name: F#3
Note ON: Time 190560, Note Name: G#3, Velocity: 34
Note ON: Time 190560, Note Name: B3, Velocity: 41
Note OFF: Time 190680, Note Name: B3
Note ON: Time 190680, Note Name: C#4, Velocity: 36
Note OFF: Time 190800, Note Name: C#4
Note OFF: Time 190800, Note Name: G#3
Note ON: Time 190800, Note Name: G#3, Velocity: 34
Note ON: Time 190800, Note Name: B3, Velocity: 40
Note OFF: Time 190920, Note Name: B3
Note ON: Time 190920, Note Name: C#4, Velocity: 34
Note OFF: Time 191040, Note Name: C#4
Note OFF: Time 191040, Note Name: G#3
Note ON: Time 191040, Note Name: F#3, Velocity: 32
Note ON: Time 191040, Note Name: A#3, Velocity: 38
Note OFF: Time 191160, Note Name: A#3
Note ON: Time 191160, Note Name: C#4, Velocity: 32
Note OFF: Time 191280, Note Name: C#4
Note OFF: Time 191280, Note Name: F#3
Note ON: Time 191280, Note Name: F3, Velocity: 26
Note ON: Time 191280, Note Name: G#3, Velocity: 31
Note OFF: Time 191400, Note Name: G#3
Note ON: Time 191400, Note Name: C#4, Velocity: 28
Note OFF: Time 191520, Note Name: C#4
Note OFF: Time 191520, Note Name: F3
Note ON: Time 191520, Note Name: F#3, Velocity: 32
Note ON: Time 191520, Note Name: A#3, Velocity: 38
Note OFF: Time 191601, Note Name: A#3
Note ON: Time 191601, Note Name: D#4, Velocity: 33
Note ON: Time 191680, Note Name: C#4, Velocity: 33
Note OFF: Time 191681, Note Name: D#4
Note OFF: Time 191760, Note Name: C#4
Note ON: Time 191760, Note Name: C4, Velocity: 38
Note ON: Time 191840, Note Name: D#4, Velocity: 34
Note OFF: Time 191841, Note Name: C4
Note OFF: Time 191920, Note Name: D#4
Note ON: Time 191920, Note Name: C#4, Velocity: 34
Note OFF: Time 191980, Note Name: C#4
Note ON: Time 192000, Note Name: A#3, Velocity: 38
Note OFF: Time 192081, Note Name: A#3
Note ON: Time 192081, Note Name: D#4, Velocity: 33
Note ON: Time 192160, Note Name: C#4, Velocity: 33
Note OFF: Time 192161, Note Name: D#4
Note OFF: Time 192220, Note Name: C#4
Note ON: Time 192240, Note Name: C4, Velocity: 38
Note ON: Time 192320, Note Name: D#4, Velocity: 33
Note OFF: Time 192321, Note Name: C4
Note OFF: Time 192400, Note Name: D#4
Note ON: Time 192400, Note Name: C#4, Velocity: 33
Note OFF: Time 192460, Note Name: C#4
Note ON: Time 192480, Note Name: A#3, Velocity: 38
Note OFF: Time 192561, Note Name: A#3
Note ON: Time 192561, Note Name: D#4, Velocity: 34
Note ON: Time 192640, Note Name: C#4, Velocity: 34
Note OFF: Time 192641, Note Name: D#4
Note OFF: Time 192700, Note Name: C#4
Note OFF: Time 192720, Note Name: F#3
Note ON: Time 192720, Note Name: F#3, Velocity: 32
Note ON: Time 192720, Note Name: A#3, Velocity: 38
Note ON: Time 192800, Note Name: D4, Velocity: 34
Note OFF: Time 192801, Note Name: A#3
Note OFF: Time 192880, Note Name: D4
Note ON: Time 192880, Note Name: C#4, Velocity: 34
Note OFF: Time 192940, Note Name: C#4
Note OFF: Time 192960, Note Name: F#3
Note ON: Time 192960, Note Name: F3, Velocity: 32
Note ON: Time 192960, Note Name: G#3, Velocity: 38
Note ON: Time 193040, Note Name: D#4, Velocity: 33
Note OFF: Time 193041, Note Name: G#3
Note OFF: Time 193120, Note Name: D#4
Note ON: Time 193120, Note Name: C#4, Velocity: 33
Note OFF: Time 193180, Note Name: C#4
Note OFF: Time 193200, Note Name: F3
Note ON: Time 193200, Note Name: F#3, Velocity: 32
Note ON: Time 193200, Note Name: A#3, Velocity: 38
Note ON: Time 193280, Note Name: D#4, Velocity: 34
Note OFF: Time 193281, Note Name: A#3
Note OFF: Time 193360, Note Name: D#4
Note ON: Time 193360, Note Name: C#4, Velocity: 34
Note OFF: Time 193420, Note Name: C#4
Note OFF: Time 193440, Note Name: F#3
Note ON: Time 193440, Note Name: G#3, Velocity: 34
Note ON: Time 193440, Note Name: B3, Velocity: 41
Note ON: Time 193520, Note Name: D#4, Velocity: 36
Note OFF: Time 193521, Note Name: B3
Note OFF: Time 193600, Note Name: D#4
Note ON: Time 193600, Note Name: C#4, Velocity: 36
Note OFF: Time 193660, Note Name: C#4
Note OFF: Time 193680, Note Name: G#3
Note ON: Time 193680, Note Name: G#3, Velocity: 34
Note ON: Time 193680, Note Name: B3, Velocity: 40
Note ON: Time 193760, Note Name: D#4, Velocity: 34
Note OFF: Time 193761, Note Name: B3
Note OFF: Time 193840, Note Name: D#4
Note ON: Time 193840, Note Name: C#4, Velocity: 34
Note OFF: Time 193900, Note Name: C#4
Note OFF: Time 193920, Note Name: G#3
Note ON: Time 193920, Note Name: F#3, Velocity: 32
Note ON: Time 193920, Note Name: A#3, Velocity: 38
Note ON: Time 194000, Note Name: D#4, Velocity: 32
Note OFF: Time 194001, Note Name: A#3
Note OFF: Time 194080, Note Name: D#4
Note ON: Time 194080, Note Name: C#4, Velocity: 32
Note OFF: Time 194140, Note Name: C#4
Note OFF: Time 194160, Note Name: F#3
Note ON: Time 194160, Note Name: F3, Velocity: 31
Note ON: Time 194160, Note Name: G#3, Velocity: 37
Note ON: Time 194240, Note Name: D#4, Velocity: 34
Note OFF: Time 194241, Note Name: G#3
Note OFF: Time 194320, Note Name: D#4
Note ON: Time 194320, Note Name: C#4, Velocity: 34
Note OFF: Time 194380, Note Name: C#4
Note OFF: Time 194400, Note Name: F3
Note ON: Time 194400, Note Name: F#3, Velocity: 32
Note ON: Time 194400, Note Name: A#3, Velocity: 38
Note OFF: Time 194481, Note Name: A#3
Note ON: Time 194481, Note Name: D#4, Velocity: 33
Note ON: Time 194560, Note Name: C#4, Velocity: 33
Note OFF: Time 194561, Note Name: D#4
Note OFF: Time 194640, Note Name: C#4
Note ON: Time 194640, Note Name: C4, Velocity: 39
Note ON: Time 194720, Note Name: D#4, Velocity: 34
Note OFF: Time 194721, Note Name: C4
Note OFF: Time 194800, Note Name: D#4
Note ON: Time 194800, Note Name: C#4, Velocity: 35
Note OFF: Time 194860, Note Name: C#4
Note ON: Time 194880, Note Name: A#3, Velocity: 39
Note OFF: Time 194961, Note Name: A#3
Note ON: Time 194961, Note Name: D#4, Velocity: 34
Note ON: Time 195040, Note Name: C#4, Velocity: 35
Note OFF: Time 195041, Note Name: D#4
Note OFF: Time 195100, Note Name: C#4
Note ON: Time 195120, Note Name: C4, Velocity: 41
Note ON: Time 195200, Note Name: D#4, Velocity: 35
Note OFF: Time 195201, Note Name: C4
Note OFF: Time 195280, Note Name: D#4
Note ON: Time 195280, Note Name: C#4, Velocity: 36
Note OFF: Time 195340, Note Name: C#4
Note ON: Time 195360, Note Name: A#3, Velocity: 42
Note OFF: Time 195441, Note Name: A#3
Note ON: Time 195441, Note Name: D#4, Velocity: 38
Note ON: Time 195520, Note Name: C#4, Velocity: 34
Note OFF: Time 195521, Note Name: D#4
Note OFF: Time 195580, Note Name: C#4
Note OFF: Time 195600, Note Name: F#3
Note ON: Time 195600, Note Name: F#3, Velocity: 32
Note ON: Time 195600, Note Name: A#3, Velocity: 38
Note ON: Time 195680, Note Name: D4, Velocity: 34
Note OFF: Time 195681, Note Name: A#3
Note OFF: Time 195760, Note Name: D4
Note ON: Time 195760, Note Name: C#4, Velocity: 34
Note OFF: Time 195820, Note Name: C#4
Note OFF: Time 195840, Note Name: F#3
Note ON: Time 195840, Note Name: F3, Velocity: 39
Note ON: Time 195840, Note Name: G#3, Velocity: 47
Note ON: Time 195920, Note Name: D#4, Velocity: 41
Note OFF: Time 195921, Note Name: G#3
Note OFF: Time 196000, Note Name: D#4
Note ON: Time 196000, Note Name: C#4, Velocity: 41
Note OFF: Time 196060, Note Name: C#4
Note OFF: Time 196080, Note Name: F3
Note ON: Time 196080, Note Name: F#3, Velocity: 40
Note ON: Time 196080, Note Name: A#3, Velocity: 49
Note ON: Time 196160, Note Name: D#4, Velocity: 44
Note OFF: Time 196161, Note Name: A#3
Note OFF: Time 196240, Note Name: D#4
Note ON: Time 196240, Note Name: C#4, Velocity: 46
Note OFF: Time 196300, Note Name: C#4
Note OFF: Time 196320, Note Name: F#3
Note ON: Time 196320, Note Name: G#3, Velocity: 47
Note ON: Time 196320, Note Name: B3, Velocity: 57
Note ON: Time 196400, Note Name: D#4, Velocity: 51
Note OFF: Time 196401, Note Name: B3
Note OFF: Time 196480, Note Name: D#4
Note ON: Time 196480, Note Name: C#4, Velocity: 53
Note OFF: Time 196540, Note Name: C#4
Note OFF: Time 196560, Note Name: G#3
Note ON: Time 196560, Note Name: G#3, Velocity: 50
Note ON: Time 196560, Note Name: B3, Velocity: 60
Note ON: Time 196640, Note Name: D#4, Velocity: 51
Note OFF: Time 196641, Note Name: B3
Note OFF: Time 196720, Note Name: D#4
Note ON: Time 196720, Note Name: C#4, Velocity: 51
Note OFF: Time 196780, Note Name: C#4
Note OFF: Time 196800, Note Name: G#3
Note ON: Time 196800, Note Name: F#3, Velocity: 49
Note ON: Time 196800, Note Name: A#3, Velocity: 58
Note ON: Time 196880, Note Name: D#4, Velocity: 49
Note OFF: Time 196881, Note Name: A#3
Note OFF: Time 196960, Note Name: D#4
Note ON: Time 196960, Note Name: C#4, Velocity: 50
Note OFF: Time 197020, Note Name: C#4
Note OFF: Time 197040, Note Name: F#3
Note ON: Time 197040, Note Name: F3, Velocity: 49
Note ON: Time 197040, Note Name: G#3, Velocity: 58
Note ON: Time 197120, Note Name: C#4, Velocity: 53
Note OFF: Time 197121, Note Name: G#3
Note OFF: Time 197200, Note Name: C#4
Note ON: Time 197200, Note Name: B3, Velocity: 40
Note OFF: Time 197260, Note Name: B3
Note OFF: Time 197280, Note Name: F3
Note ON: Time 197280, Note Name: A#3, Velocity: 40
Note ON: Time 197280, Note Name: F#3, Velocity: 50
Note OFF: Time 197360, Note Name: A#3
Note ON: Time 197360, Note Name: C#4, Velocity: 36
Note OFF: Time 197440, Note Name: C#4
Note ON: Time 197440, Note Name: B3, Velocity: 36
Note OFF: Time 197520, Note Name: B3
Note ON: Time 197520, Note Name: A#3, Velocity: 40
Note OFF: Time 197600, Note Name: A#3
Note ON: Time 197600, Note Name: B3, Velocity: 38
Note OFF: Time 197680, Note Name: B3
Note ON: Time 197680, Note Name: C#4, Velocity: 38
Note OFF: Time 197760, Note Name: C#4
Note ON: Time 197760, Note Name: D#4, Velocity: 40
Note OFF: Time 197840, Note Name: D#4
Note ON: Time 197840, Note Name: F4, Velocity: 37
Note OFF: Time 197920, Note Name: F4
Note ON: Time 197920, Note Name: F#4, Velocity: 37
Note OFF: Time 198000, Note Name: F#4
Note OFF: Time 198000, Note Name: F#3
Note ON: Time 198000, Note Name: G#4, Velocity: 40
Note ON: Time 198000, Note Name: G#3, Velocity: 50
Note OFF: Time 198320, Note Name: G#4
Note ON: Time 198320, Note Name: F#4, Velocity: 36
Note OFF: Time 198400, Note Name: F#4
Note ON: Time 198400, Note Name: F4, Velocity: 36
Note OFF: Time 198480, Note Name: F4
Note ON: Time 198480, Note Name: D#4, Velocity: 40
Note OFF: Time 198560, Note Name: D#4
Note ON: Time 198560, Note Name: C#4, Velocity: 35
Note OFF: Time 198640, Note Name: C#4
Note ON: Time 198640, Note Name: B3, Velocity: 35
Note OFF: Time 198720, Note Name: B3
Note OFF: Time 198720, Note Name: G#3
Note ON: Time 198720, Note Name: F4, Velocity: 40
Note ON: Time 198720, Note Name: A#3, Velocity: 50
Note OFF: Time 198800, Note Name: F4
Note ON: Time 198800, Note Name: F#4, Velocity: 36
Note OFF: Time 198880, Note Name: F#4
Note ON: Time 198880, Note Name: F4, Velocity: 37
Note OFF: Time 198960, Note Name: F4
Note ON: Time 198960, Note Name: C#4, Velocity: 42
Note OFF: Time 199040, Note Name: C#4
Note ON: Time 199040, Note Name: D#4, Velocity: 40
Note OFF: Time 199120, Note Name: D#4
Note ON: Time 199120, Note Name: E4, Velocity: 41
Note OFF: Time 199200, Note Name: E4
Note ON: Time 199200, Note Name: F#4, Velocity: 44
Note OFF: Time 199280, Note Name: F#4
Note ON: Time 199280, Note Name: G#4, Velocity: 41
Note OFF: Time 199360, Note Name: G#4
Note ON: Time 199360, Note Name: A#4, Velocity: 41
Note OFF: Time 199440, Note Name: A#4
Note OFF: Time 199440, Note Name: A#3
Note ON: Time 199440, Note Name: B4, Velocity: 46
Note ON: Time 199440, Note Name: B3, Velocity: 57
Note OFF: Time 199680, Note Name: B4
Note ON: Time 199680, Note Name: B4, Velocity: 48
Note OFF: Time 199760, Note Name: B4
Note ON: Time 199760, Note Name: A#4, Velocity: 43
Note OFF: Time 199840, Note Name: A#4
Note ON: Time 199840, Note Name: G#4, Velocity: 44
Note OFF: Time 199920, Note Name: G#4
Note ON: Time 199920, Note Name: F#4, Velocity: 50
Note OFF: Time 200000, Note Name: F#4
Note ON: Time 200000, Note Name: F4, Velocity: 44
Note OFF: Time 200080, Note Name: F4
Note ON: Time 200080, Note Name: D#4, Velocity: 44
Note OFF: Time 200160, Note Name: D#4
Note OFF: Time 200160, Note Name: B3
Note ON: Time 200160, Note Name: C#4, Velocity: 65
Note ON: Time 200240, Note Name: F4, Velocity: 47
Note OFF: Time 200320, Note Name: F4
Note ON: Time 200320, Note Name: F#4, Velocity: 47
Note OFF: Time 200400, Note Name: F#4
Note ON: Time 200400, Note Name: G#4, Velocity: 54
Note OFF: Time 200480, Note Name: G#4
Note ON: Time 200480, Note Name: A#4, Velocity: 51
Note OFF: Time 200560, Note Name: A#4
Note ON: Time 200560, Note Name: B4, Velocity: 52
Note OFF: Time 200640, Note Name: B4
Note OFF: Time 200640, Note Name: C#4
Note ON: Time 200640, Note Name: D#4, Velocity: 70
Note ON: Time 200640, Note Name: A#4, Velocity: 56
Note OFF: Time 200720, Note Name: A#4
Note ON: Time 200720, Note Name: G#4, Velocity: 52
Note OFF: Time 200800, Note Name: G#4
Note ON: Time 200800, Note Name: F#4, Velocity: 52
Note OFF: Time 200880, Note Name: F#4
Note OFF: Time 200880, Note Name: D#4
Note ON: Time 200880, Note Name: F4, Velocity: 72
Note ON: Time 200960, Note Name: G#4, Velocity: 52
Note OFF: Time 201040, Note Name: G#4
Note ON: Time 201040, Note Name: A#4, Velocity: 53
Note OFF: Time 201120, Note Name: A#4
Note ON: Time 201120, Note Name: B4, Velocity: 60
Note OFF: Time 201200, Note Name: B4
Note ON: Time 201200, Note Name: C#5, Velocity: 57
Note OFF: Time 201280, Note Name: C#5
Note ON: Time 201280, Note Name: D#5, Velocity: 58
Note OFF: Time 201360, Note Name: D#5
Note OFF: Time 201360, Note Name: F4
Note ON: Time 201360, Note Name: F#4, Velocity: 77
Note ON: Time 201360, Note Name: C#5, Velocity: 62
Note OFF: Time 201440, Note Name: C#5
Note ON: Time 201440, Note Name: B4, Velocity: 57
Note OFF: Time 201520, Note Name: B4
Note ON: Time 201520, Note Name: A#4, Velocity: 58
Note OFF: Time 201600, Note Name: A#4
Note OFF: Time 201600, Note Name: F#4
Note ON: Time 201600, Note Name: E5, Velocity: 58
Note ON: Time 201600, Note Name: G#4, Velocity: 72
Note OFF: Time 201680, Note Name: E5
Note ON: Time 201680, Note Name: C#5, Velocity: 52
Note OFF: Time 201760, Note Name: C#5
Note ON: Time 201760, Note Name: D#5, Velocity: 53
Note OFF: Time 201840, Note Name: D#5
Note OFF: Time 201840, Note Name: G#4
Note ON: Time 201840, Note Name: A#4, Velocity: 61
Note ON: Time 201840, Note Name: E5, Velocity: 51
Note OFF: Time 201920, Note Name: E5
Note ON: Time 201920, Note Name: A#3, Velocity: 48
Note ON: Time 201920, Note Name: F#4, Velocity: 48
Note OFF: Time 202000, Note Name: F#4
Note ON: Time 202000, Note Name: G4, Velocity: 49
Note OFF: Time 202080, Note Name: G4
Note OFF: Time 202080, Note Name: A#3
Note OFF: Time 202080, Note Name: A#4
Note ON: Time 202080, Note Name: B3, Velocity: 65
Note ON: Time 202080, Note Name: F#4, Velocity: 52
Note OFF: Time 202160, Note Name: F#4
Note ON: Time 202160, Note Name: E4, Velocity: 48
Note OFF: Time 202240, Note Name: E4
Note ON: Time 202240, Note Name: D#4, Velocity: 52
Note OFF: Time 202320, Note Name: D#4
Note OFF: Time 202320, Note Name: B3
Note ON: Time 202320, Note Name: D#4, Velocity: 48
Note ON: Time 202320, Note Name: C4, Velocity: 52
Note OFF: Time 202400, Note Name: D#4
Note ON: Time 202400, Note Name: F4, Velocity: 47
Note OFF: Time 202480, Note Name: F4
Note ON: Time 202480, Note Name: F#4, Velocity: 39
Note OFF: Time 202560, Note Name: F#4
Note ON: Time 202560, Note Name: A4, Velocity: 45
Note OFF: Time 202640, Note Name: A4
Note ON: Time 202640, Note Name: G#4, Velocity: 38
Note OFF: Time 202720, Note Name: G#4
Note ON: Time 202720, Note Name: F#4, Velocity: 37
Note OFF: Time 202800, Note Name: F#4
Note OFF: Time 202800, Note Name: C4
Note ON: Time 202800, Note Name: C#4, Velocity: 43
Note ON: Time 202800, Note Name: B3, Velocity: 38
Note OFF: Time 202880, Note Name: C#4
Note ON: Time 202880, Note Name: F4, Velocity: 36
Note OFF: Time 202960, Note Name: F4
Note ON: Time 202960, Note Name: G#4, Velocity: 35
Note OFF: Time 203040, Note Name: G#4
Note OFF: Time 203040, Note Name: B3
Note ON: Time 203040, Note Name: A#4, Velocity: 39
Note ON: Time 203040, Note Name: C#5, Velocity: 46
Note OFF: Time 203760, Note Name: C#5
Note OFF: Time 203760, Note Name: A#4
Note ON: Time 203760, Note Name: G4, Velocity: 32
Note ON: Time 203760, Note Name: A#4, Velocity: 38
Note OFF: Time 204240, Note Name: A#4
Note OFF: Time 204240, Note Name: G4
Note ON: Time 204240, Note Name: D#4, Velocity: 26
Note ON: Time 204240, Note Name: G4, Velocity: 31
Note OFF: Time 204480, Note Name: G4
Note OFF: Time 204480, Note Name: D#4
Note ON: Time 204480, Note Name: A#4, Velocity: 41
Note OFF: Time 204600, Note Name: A#4
Note ON: Time 204600, Note Name: G4, Velocity: 37
Note OFF: Time 204720, Note Name: G4
Note ON: Time 204720, Note Name: G#3, Velocity: 36
Note ON: Time 204720, Note Name: G#4, Velocity: 46
Note OFF: Time 204840, Note Name: G#4
Note ON: Time 204840, Note Name: D#4, Velocity: 37
Note OFF: Time 204960, Note Name: D#4
Note OFF: Time 204960, Note Name: G#3
Note ON: Time 204960, Note Name: B2, Velocity: 49
Note ON: Time 204960, Note Name: C#4, Velocity: 49
Note OFF: Time 205080, Note Name: C#4
Note ON: Time 205080, Note Name: B3, Velocity: 47
Note OFF: Time 205200, Note Name: B3
Note OFF: Time 205200, Note Name: B2
Note ON: Time 205200, Note Name: C#3, Velocity: 45
Note ON: Time 205200, Note Name: A#3, Velocity: 54
Note OFF: Time 205440, Note Name: A#3
Note OFF: Time 205440, Note Name: C#3
Note ON: Time 205440, Note Name: C#2, Velocity: 36
Note ON: Time 205440, Note Name: A#2, Velocity: 43
Note OFF: Time 205560, Note Name: A#2
Note OFF: Time 205560, Note Name: C#2
Note ON: Time 205560, Note Name: C#2, Velocity: 33
Note ON: Time 205560, Note Name: C#3, Velocity: 46
Note OFF: Time 205740, Note Name: C#3
Note OFF: Time 205740, Note Name: C#2
Note ON: Time 205740, Note Name: B1, Velocity: 45
Note ON: Time 205740, Note Name: B2, Velocity: 53
Note OFF: Time 205800, Note Name: B2
Note OFF: Time 205800, Note Name: B1
Note ON: Time 205800, Note Name: A#1, Velocity: 46
Note ON: Time 205800, Note Name: A#2, Velocity: 55
Note OFF: Time 205860, Note Name: A#2
Note OFF: Time 205860, Note Name: A#1
Note ON: Time 205860, Note Name: B1, Velocity: 48
Note ON: Time 205860, Note Name: B2, Velocity: 57
Note OFF: Time 205920, Note Name: B2
Note OFF: Time 205920, Note Name: B1
Note ON: Time 205920, Note Name: A#1, Velocity: 52
Note OFF: Time 205980, Note Name: A#1
Note ON: Time 205980, Note Name: C#2, Velocity: 44
Note OFF: Time 206040, Note Name: C#2
Note ON: Time 206040, Note Name: E2, Velocity: 43
Note OFF: Time 206100, Note Name: E2
Note ON: Time 206100, Note Name: G2, Velocity: 42
Note OFF: Time 206160, Note Name: G2
Note ON: Time 206160, Note Name: A#2, Velocity: 41
Note OFF: Time 206220, Note Name: A#2
Note ON: Time 206220, Note Name: C#3, Velocity: 40
Note OFF: Time 206280, Note Name: C#3
Note ON: Time 206280, Note Name: E3, Velocity: 39
Note OFF: Time 206340, Note Name: E3
Note ON: Time 206340, Note Name: G3, Velocity: 38
Note OFF: Time 206400, Note Name: G3
Note ON: Time 206400, Note Name: A#3, Velocity: 36
Note ON: Time 206400, Note Name: C#4, Velocity: 36
Note OFF: Time 206460, Note Name: C#4
Note OFF: Time 206460, Note Name: A#3
Note ON: Time 206460, Note Name: E4, Velocity: 27
Note OFF: Time 206520, Note Name: E4
Note ON: Time 206520, Note Name: B3, Velocity: 27
Note OFF: Time 206580, Note Name: B3
Note ON: Time 206580, Note Name: D#4, Velocity: 27
Note OFF: Time 206640, Note Name: D#4
Note ON: Time 206640, Note Name: B2, Velocity: 22
Note ON: Time 206640, Note Name: B3, Velocity: 26
Note OFF: Time 207120, Note Name: B3
Note OFF: Time 207120, Note Name: B2
Note ON: Time 207360, Note Name: C#2, Velocity: 39
Note OFF: Time 207440, Note Name: C#2
Note ON: Time 207440, Note Name: F#2, Velocity: 34
Note OFF: Time 207520, Note Name: F#2
Note ON: Time 207520, Note Name: A#2, Velocity: 34
Note OFF: Time 207600, Note Name: A#2
Note ON: Time 207600, Note Name: C#3, Velocity: 31
Note OFF: Time 207680, Note Name: C#3
Note ON: Time 207680, Note Name: F#3, Velocity: 31
Note OFF: Time 207760, Note Name: F#3
Note ON: Time 207760, Note Name: A#3, Velocity: 31
Note OFF: Time 207840, Note Name: A#3
Note ON: Time 207840, Note Name: C#3, Velocity: 39
Note ON: Time 207840, Note Name: F#3, Velocity: 38
Note OFF: Time 207900, Note Name: F#3
Note ON: Time 207900, Note Name: A#3, Velocity: 34
Note OFF: Time 207960, Note Name: A#3
Note OFF: Time 207960, Note Name: C#3
Note ON: Time 207960, Note Name: D#3, Velocity: 28
Note ON: Time 207960, Note Name: F#3, Velocity: 34
Note OFF: Time 208020, Note Name: F#3
Note ON: Time 208020, Note Name: A3, Velocity: 34
Note OFF: Time 208080, Note Name: A3
Note OFF: Time 208080, Note Name: D#3
Note ON: Time 208080, Note Name: D3, Velocity: 32
Note ON: Time 208080, Note Name: F3, Velocity: 32
Note ON: Time 208080, Note Name: G#3, Velocity: 32
Note ON: Time 208080, Note Name: B3, Velocity: 38
Note OFF: Time 208320, Note Name: B3
Note OFF: Time 208320, Note Name: D3
Note OFF: Time 208320, Note Name: F3
Note OFF: Time 208320, Note Name: G#3
Note ON: Time 208320, Note Name: D3, Velocity: 25
Note ON: Time 208320, Note Name: F3, Velocity: 25
Note ON: Time 208320, Note Name: G#3, Velocity: 25
Note ON: Time 208320, Note Name: B3, Velocity: 30
Note OFF: Time 208680, Note Name: B3
Note OFF: Time 208680, Note Name: D3
Note OFF: Time 208680, Note Name: F3
Note OFF: Time 208680, Note Name: G#3
Note ON: Time 208680, Note Name: D#3, Velocity: 22
Note ON: Time 208680, Note Name: G3, Velocity: 22
Note ON: Time 208680, Note Name: A#3, Velocity: 27
Note OFF: Time 208800, Note Name: A#3
Note OFF: Time 208800, Note Name: G3
Note OFF: Time 208800, Note Name: D#3
Note ON: Time 208800, Note Name: D#3, Velocity: 25
Note ON: Time 208800, Note Name: G3, Velocity: 25
Note ON: Time 208800, Note Name: A#3, Velocity: 30
Note OFF: Time 209275, Note Name: A#3
Note OFF: Time 209275, Note Name: G3
Note OFF: Time 209275, Note Name: D#3
Note ON: Time 209280, Note Name: D#3, Velocity: 22
Note ON: Time 209280, Note Name: G3, Velocity: 22
Note ON: Time 209280, Note Name: A#3, Velocity: 22
Note ON: Time 209280, Note Name: D#4, Velocity: 27
Note OFF: Time 209518, Note Name: D#4
Note OFF: Time 209518, Note Name: D#3
Note OFF: Time 209518, Note Name: G3
Note OFF: Time 209518, Note Name: A#3
Note ON: Time 209520, Note Name: D#3, Velocity: 25
Note ON: Time 209520, Note Name: G3, Velocity: 25
Note ON: Time 209520, Note Name: A#3, Velocity: 25
Note ON: Time 209520, Note Name: D#4, Velocity: 30
Note OFF: Time 209995, Note Name: D#4
Note OFF: Time 209995, Note Name: D#3
Note OFF: Time 209995, Note Name: G3
Note OFF: Time 209995, Note Name: A#3
Note ON: Time 210000, Note Name: D#3, Velocity: 22
Note ON: Time 210000, Note Name: G3, Velocity: 22
Note ON: Time 210000, Note Name: A#3, Velocity: 22
Note ON: Time 210000, Note Name: D#4, Velocity: 27
Note OFF: Time 210238, Note Name: D#4
Note OFF: Time 210238, Note Name: D#3
Note OFF: Time 210238, Note Name: G3
Note OFF: Time 210238, Note Name: A#3
Note ON: Time 210240, Note Name: D#2, Velocity: 25
Note ON: Time 210240, Note Name: D#3, Velocity: 30
Note OFF: Time 210480, Note Name: D#3
Note OFF: Time 210480, Note Name: D#2
Note ON: Time 210480, Note Name: A#1, Velocity: 25
Note ON: Time 210480, Note Name: A#2, Velocity: 30
Note OFF: Time 210960, Note Name: A#2
Note OFF: Time 210960, Note Name: A#1
Note ON: Time 210960, Note Name: B1, Velocity: 25
Note ON: Time 210960, Note Name: B2, Velocity: 30
Note OFF: Time 211200, Note Name: B2
Note OFF: Time 211200, Note Name: B1
Note ON: Time 211200, Note Name: C#2, Velocity: 21
Note ON: Time 211200, Note Name: C#3, Velocity: 25
Note OFF: Time 211680, Note Name: C#3
Note OFF: Time 211680, Note Name: C#2
Note ON: Time 211680, Note Name: F#1, Velocity: 20
Note ON: Time 211680, Note Name: F#2, Velocity: 24
Note OFF: Time 212160, Note Name: F#2
Note OFF: Time 212160, Note Name: F#1
Note ON: Time 212160, Note Name: A#3, Velocity: 22
Note OFF: Time 212400, Note Name: A#3
Note ON: Time 212400, Note Name: C#3, Velocity: 24
Note OFF: Time 212880, Note Name: C#3
Note ON: Time 212880, Note Name: C#4, Velocity: 21
Note OFF: Time 213120, Note Name: C#4
Note ON: Time 213120, Note Name: A#3, Velocity: 24
Note OFF: Time 213600, Note Name: A#3
Note ON: Time 213600, Note Name: C#2, Velocity: 28
Note ON: Time 213600, Note Name: C#3, Velocity: 34
Note OFF: Time 214080, Note Name: C#3
Note OFF: Time 214080, Note Name: C#2
Note ON: Time 214080, Note Name: D#2, Velocity: 27
Note ON: Time 214080, Note Name: D#3, Velocity: 40
Note OFF: Time 214200, Note Name: D#3
Note OFF: Time 214200, Note Name: D#2
Note ON: Time 214200, Note Name: C#2, Velocity: 27
Note ON: Time 214200, Note Name: C#3, Velocity: 40
Note OFF: Time 214320, Note Name: C#3
Note OFF: Time 214320, Note Name: C#2
Note ON: Time 214320, Note Name: D#3, Velocity: 29
Note ON: Time 214320, Note Name: C#3, Velocity: 29
Note ON: Time 214320, Note Name: D#2, Velocity: 29
Note OFF: Time 214440, Note Name: D#2
Note OFF: Time 214440, Note Name: C#3
Note OFF: Time 214440, Note Name: D#3
Note ON: Time 214440, Note Name: F2, Velocity: 29
Note ON: Time 214440, Note Name: C#3, Velocity: 29
Note ON: Time 214440, Note Name: F3, Velocity: 29
Note OFF: Time 214560, Note Name: F3
Note OFF: Time 214560, Note Name: C#3
Note OFF: Time 214560, Note Name: F2
Note ON: Time 214560, Note Name: C#3, Velocity: 30
Note ON: Time 214560, Note Name: F#2, Velocity: 30
Note ON: Time 214560, Note Name: F#3, Velocity: 36
Note OFF: Time 215040, Note Name: F#3
Note OFF: Time 215040, Note Name: F#2
Note OFF: Time 215040, Note Name: C#3
Note ON: Time 215040, Note Name: A#4, Velocity: 33
Note OFF: Time 215280, Note Name: A#4
Note ON: Time 215280, Note Name: C#4, Velocity: 37
Note OFF: Time 215760, Note Name: C#4
Note ON: Time 215760, Note Name: A#1, Velocity: 28
Note ON: Time 215760, Note Name: A#2, Velocity: 34
Note OFF: Time 216000, Note Name: A#2
Note OFF: Time 216000, Note Name: A#1
Note ON: Time 216000, Note Name: C#2, Velocity: 34
Note ON: Time 216000, Note Name: C#3, Velocity: 40
Note OFF: Time 216240, Note Name: C#3
Note OFF: Time 216240, Note Name: C#2
Note ON: Time 216240, Note Name: C#3, Velocity: 28
Note ON: Time 216240, Note Name: C#4, Velocity: 34
Note OFF: Time 216480, Note Name: C#4
Note OFF: Time 216480, Note Name: C#3
Note ON: Time 216480, Note Name: A#2, Velocity: 30
Note ON: Time 216480, Note Name: C#3, Velocity: 30
Note ON: Time 216480, Note Name: A#3, Velocity: 36
Note OFF: Time 216720, Note Name: A#3
Note OFF: Time 216720, Note Name: C#3
Note OFF: Time 216720, Note Name: A#2
Note ON: Time 216720, Note Name: G#2, Velocity: 36
Note ON: Time 216720, Note Name: C#3, Velocity: 36
Note ON: Time 216720, Note Name: G#3, Velocity: 43
Note OFF: Time 217200, Note Name: G#3
Note OFF: Time 217200, Note Name: C#3
Note OFF: Time 217200, Note Name: G#2
Note ON: Time 217200, Note Name: C#2, Velocity: 34
Note ON: Time 217200, Note Name: C#3, Velocity: 40
Note OFF: Time 217440, Note Name: C#3
Note OFF: Time 217440, Note Name: C#2
Note ON: Time 217440, Note Name: F#2, Velocity: 36
Note ON: Time 217440, Note Name: C#3, Velocity: 36
Note ON: Time 217440, Note Name: F#3, Velocity: 43
Note OFF: Time 218160, Note Name: F#3
Note OFF: Time 218160, Note Name: C#3
Note OFF: Time 218160, Note Name: F#2
Note ON: Time 218160, Note Name: C#2, Velocity: 28
Note ON: Time 218160, Note Name: C#3, Velocity: 33
Note OFF: Time 218880, Note Name: C#3
Note OFF: Time 218880, Note Name: C#2
Note ON: Time 218880, Note Name: F#1, Velocity: 22
Note ON: Time 218880, Note Name: F#2, Velocity: 26
Note OFF: Time 219360, Note Name: F#2
Note OFF: Time 219360, Note Name: F#1
Note ON: Time 219360, Note Name: F#2, Velocity: 22
Note ON: Time 219360, Note Name: F#3, Velocity: 26
Note OFF: Time 219598, Note Name: F#3
Note OFF: Time 219598, Note Name: F#2
Note ON: Time 219600, Note Name: F#2, Velocity: 25
Note ON: Time 219600, Note Name: F#3, Velocity: 29
Note OFF: Time 220080, Note Name: F#3
Note OFF: Time 220080, Note Name: F#2
Note ON: Time 220080, Note Name: F#2, Velocity: 36
Note ON: Time 220080, Note Name: F#3, Velocity: 43
Note OFF: Time 220260, Note Name: F#3
Note OFF: Time 220260, Note Name: F#2
Note ON: Time 220260, Note Name: E2, Velocity: 31
Note ON: Time 220260, Note Name: E3, Velocity: 36
Note OFF: Time 220320, Note Name: E3
Note OFF: Time 220320, Note Name: E2
Note ON: Time 220320, Note Name: D2, Velocity: 28
Note ON: Time 220320, Note Name: D3, Velocity: 33
Note OFF: Time 221040, Note Name: D3
Note OFF: Time 221040, Note Name: D2
Note ON: Time 221040, Note Name: F#2, Velocity: 25
Note ON: Time 221040, Note Name: F#3, Velocity: 30
Note OFF: Time 221760, Note Name: F#3
Note OFF: Time 221760, Note Name: F#2
Note ON: Time 221760, Note Name: B2, Velocity: 26
Note ON: Time 221760, Note Name: B3, Velocity: 31
Note OFF: Time 222240, Note Name: B3
Note OFF: Time 222240, Note Name: B2
Note ON: Time 222720, Note Name: B2, Velocity: 26
Note ON: Time 222720, Note Name: B3, Velocity: 31
Note OFF: Time 222960, Note Name: B3
Note OFF: Time 222960, Note Name: B2
Note ON: Time 222960, Note Name: G2, Velocity: 22
Note ON: Time 222960, Note Name: G3, Velocity: 26
Note OFF: Time 223080, Note Name: G3
Note OFF: Time 223080, Note Name: G2
Note ON: Time 223080, Note Name: D2, Velocity: 22
Note ON: Time 223080, Note Name: D3, Velocity: 26
Note OFF: Time 223197, Note Name: D3
Note OFF: Time 223197, Note Name: D2
Note ON: Time 223200, Note Name: D2, Velocity: 26
Note ON: Time 223200, Note Name: D3, Velocity: 31
Note OFF: Time 223680, Note Name: D3
Note OFF: Time 223680, Note Name: D2
Note ON: Time 223680, Note Name: B1, Velocity: 22
Note ON: Time 223680, Note Name: B2, Velocity: 26
Note OFF: Time 223918, Note Name: B2
Note OFF: Time 223918, Note Name: B1
Note ON: Time 223920, Note Name: B1, Velocity: 26
Note ON: Time 223920, Note Name: B2, Velocity: 31
Note OFF: Time 224160, Note Name: B2
Note OFF: Time 224160, Note Name: B1
Note ON: Time 224160, Note Name: G1, Velocity: 22
Note ON: Time 224160, Note Name: G2, Velocity: 27
Note OFF: Time 224400, Note Name: G2
Note OFF: Time 224400, Note Name: G1
Note ON: Time 224400, Note Name: A1, Velocity: 22
Note ON: Time 224400, Note Name: A2, Velocity: 27
Note OFF: Time 224640, Note Name: A2
Note OFF: Time 224640, Note Name: A1
Note ON: Time 224640, Note Name: B1, Velocity: 46
Note ON: Time 224640, Note Name: B2, Velocity: 55
Note OFF: Time 224880, Note Name: B2
Note OFF: Time 224880, Note Name: B1
Note ON: Time 224880, Note Name: B2, Velocity: 49
Note ON: Time 224880, Note Name: G3, Velocity: 58
Note OFF: Time 225120, Note Name: G3
Note OFF: Time 225120, Note Name: B2
Note ON: Time 225120, Note Name: C3, Velocity: 52
Note ON: Time 225120, Note Name: A3, Velocity: 62
Note OFF: Time 225360, Note Name: A3
Note OFF: Time 225360, Note Name: C3
Note ON: Time 225360, Note Name: D3, Velocity: 54
Note ON: Time 225360, Note Name: B3, Velocity: 65
Note OFF: Time 225600, Note Name: B3
Note OFF: Time 225600, Note Name: D3
Note ON: Time 225600, Note Name: B3, Velocity: 45
Note ON: Time 225600, Note Name: G3, Velocity: 38
Note OFF: Time 225840, Note Name: G3
Note OFF: Time 225840, Note Name: B3
Note ON: Time 225840, Note Name: D3, Velocity: 33
Note ON: Time 225840, Note Name: C4, Velocity: 39
Note ON: Time 225840, Note Name: A3, Velocity: 33
Note OFF: Time 225960, Note Name: A3
Note OFF: Time 225960, Note Name: C4
Note OFF: Time 225960, Note Name: D3
Note ON: Time 225960, Note Name: B3, Velocity: 34
Note ON: Time 225960, Note Name: G3, Velocity: 28
Note OFF: Time 226080, Note Name: G3
Note OFF: Time 226080, Note Name: B3
Note ON: Time 226080, Note Name: G3, Velocity: 36
Note ON: Time 226080, Note Name: B3, Velocity: 42
Note OFF: Time 226161, Note Name: B3
Note ON: Time 226161, Note Name: E4, Velocity: 37
Note ON: Time 226240, Note Name: D4, Velocity: 37
Note OFF: Time 226241, Note Name: E4
Note OFF: Time 226320, Note Name: D4
Note ON: Time 226320, Note Name: C#4, Velocity: 42
Note ON: Time 226400, Note Name: E4, Velocity: 38
Note OFF: Time 226401, Note Name: C#4
Note OFF: Time 226480, Note Name: E4
Note ON: Time 226480, Note Name: D4, Velocity: 38
Note OFF: Time 226540, Note Name: D4
Note ON: Time 226560, Note Name: B3, Velocity: 42
Note OFF: Time 226641, Note Name: B3
Note ON: Time 226641, Note Name: E4, Velocity: 37
Note ON: Time 226720, Note Name: D4, Velocity: 37
Note OFF: Time 226721, Note Name: E4
Note OFF: Time 226780, Note Name: D4
Note ON: Time 226800, Note Name: C#4, Velocity: 42
Note ON: Time 226880, Note Name: E4, Velocity: 37
Note OFF: Time 226881, Note Name: C#4
Note OFF: Time 226960, Note Name: E4
Note ON: Time 226960, Note Name: D4, Velocity: 37
Note OFF: Time 227020, Note Name: D4
Note ON: Time 227040, Note Name: B3, Velocity: 42
Note OFF: Time 227121, Note Name: B3
Note ON: Time 227121, Note Name: E4, Velocity: 38
Note ON: Time 227200, Note Name: D4, Velocity: 38
Note OFF: Time 227201, Note Name: E4
Note OFF: Time 227260, Note Name: D4
Note OFF: Time 227280, Note Name: G3
Note ON: Time 227280, Note Name: G3, Velocity: 36
Note ON: Time 227280, Note Name: B3, Velocity: 42
Note ON: Time 227360, Note Name: D#4, Velocity: 38
Note OFF: Time 227361, Note Name: B3
Note OFF: Time 227440, Note Name: D#4
Note ON: Time 227440, Note Name: D4, Velocity: 38
Note OFF: Time 227500, Note Name: D4
Note OFF: Time 227520, Note Name: G3
Note ON: Time 227520, Note Name: F#3, Velocity: 36
Note ON: Time 227520, Note Name: A3, Velocity: 42
Note ON: Time 227600, Note Name: E4, Velocity: 37
Note OFF: Time 227601, Note Name: A3
Note OFF: Time 227680, Note Name: E4
Note ON: Time 227680, Note Name: D4, Velocity: 37
Note OFF: Time 227740, Note Name: D4
Note OFF: Time 227760, Note Name: F#3
Note ON: Time 227760, Note Name: G3, Velocity: 36
Note ON: Time 227760, Note Name: B3, Velocity: 42
Note ON: Time 227840, Note Name: E4, Velocity: 38
Note OFF: Time 227841, Note Name: B3
Note OFF: Time 227920, Note Name: E4
Note ON: Time 227920, Note Name: D4, Velocity: 38
Note OFF: Time 227980, Note Name: D4
Note OFF: Time 228000, Note Name: G3
Note ON: Time 228000, Note Name: A3, Velocity: 38
Note ON: Time 228000, Note Name: C4, Velocity: 46
Note ON: Time 228080, Note Name: E4, Velocity: 40
Note OFF: Time 228081, Note Name: C4
Note OFF: Time 228160, Note Name: E4
Note ON: Time 228160, Note Name: D4, Velocity: 40
Note OFF: Time 228220, Note Name: D4
Note OFF: Time 228240, Note Name: A3
Note ON: Time 228240, Note Name: A3, Velocity: 38
Note ON: Time 228240, Note Name: C4, Velocity: 45
Note ON: Time 228320, Note Name: E4, Velocity: 38
Note OFF: Time 228321, Note Name: C4
Note OFF: Time 228400, Note Name: E4
Note ON: Time 228400, Note Name: D4, Velocity: 38
Note OFF: Time 228460, Note Name: D4
Note OFF: Time 228480, Note Name: A3
Note ON: Time 228480, Note Name: G3, Velocity: 36
Note ON: Time 228480, Note Name: B3, Velocity: 42
Note ON: Time 228560, Note Name: E4, Velocity: 36
Note OFF: Time 228561, Note Name: B3
Note OFF: Time 228640, Note Name: E4
Note ON: Time 228640, Note Name: D4, Velocity: 36
Note OFF: Time 228700, Note Name: D4
Note OFF: Time 228720, Note Name: G3
Note ON: Time 228720, Note Name: F#3, Velocity: 35
Note ON: Time 228720, Note Name: A#3, Velocity: 41
Note OFF: Time 228800, Note Name: A#3
Note ON: Time 228800, Note Name: E4, Velocity: 38
Note OFF: Time 228880, Note Name: E4
Note ON: Time 228880, Note Name: D4, Velocity: 38
Note OFF: Time 228940, Note Name: D4
Note OFF: Time 228960, Note Name: F#3
Note ON: Time 228960, Note Name: G3, Velocity: 36
Note ON: Time 228960, Note Name: B3, Velocity: 42
Note OFF: Time 229041, Note Name: B3
Note ON: Time 229041, Note Name: E4, Velocity: 37
Note ON: Time 229120, Note Name: D4, Velocity: 37
Note OFF: Time 229121, Note Name: E4
Note OFF: Time 229200, Note Name: D4
Note ON: Time 229200, Note Name: C#4, Velocity: 43
Note ON: Time 229280, Note Name: E4, Velocity: 38
Note OFF: Time 229281, Note Name: C#4
Note OFF: Time 229360, Note Name: E4
Note ON: Time 229360, Note Name: D4, Velocity: 39
Note OFF: Time 229420, Note Name: D4
Note ON: Time 229440, Note Name: B3, Velocity: 44
Note OFF: Time 229521, Note Name: B3
Note ON: Time 229521, Note Name: E4, Velocity: 38
Note ON: Time 229600, Note Name: D4, Velocity: 39
Note OFF: Time 229601, Note Name: E4
Note OFF: Time 229660, Note Name: D4
Note ON: Time 229680, Note Name: C#4, Velocity: 46
Note ON: Time 229760, Note Name: E4, Velocity: 39
Note OFF: Time 229761, Note Name: C#4
Note OFF: Time 229840, Note Name: E4
Note ON: Time 229840, Note Name: D4, Velocity: 40
Note OFF: Time 229900, Note Name: D4
Note ON: Time 229920, Note Name: B3, Velocity: 47
Note OFF: Time 230001, Note Name: B3
Note ON: Time 230001, Note Name: E4, Velocity: 42
Note ON: Time 230080, Note Name: D4, Velocity: 42
Note OFF: Time 230081, Note Name: E4
Note OFF: Time 230140, Note Name: D4
Note OFF: Time 230160, Note Name: G3
Note ON: Time 230160, Note Name: G3, Velocity: 40
Note ON: Time 230160, Note Name: B3, Velocity: 48
Note ON: Time 230240, Note Name: D#4, Velocity: 43
Note OFF: Time 230241, Note Name: B3
Note OFF: Time 230320, Note Name: D#4
Note ON: Time 230320, Note Name: D4, Velocity: 43
Note OFF: Time 230380, Note Name: D4
Note OFF: Time 230400, Note Name: G3
Note ON: Time 230400, Note Name: F#3, Velocity: 41
Note ON: Time 230400, Note Name: A3, Velocity: 50
Note ON: Time 230480, Note Name: E4, Velocity: 43
Note OFF: Time 230481, Note Name: A3
Note OFF: Time 230560, Note Name: E4
Note ON: Time 230560, Note Name: D4, Velocity: 43
Note OFF: Time 230620, Note Name: D4
Note OFF: Time 230640, Note Name: F#3
Note ON: Time 230640, Note Name: G3, Velocity: 42
Note ON: Time 230640, Note Name: B3, Velocity: 51
Note ON: Time 230720, Note Name: E4, Velocity: 45
Note OFF: Time 230721, Note Name: B3
Note OFF: Time 230800, Note Name: E4
Note ON: Time 230800, Note Name: D4, Velocity: 46
Note OFF: Time 230860, Note Name: D4
Note OFF: Time 230880, Note Name: G3
Note ON: Time 230880, Note Name: A3, Velocity: 47
Note ON: Time 230880, Note Name: C4, Velocity: 57
Note ON: Time 230960, Note Name: E4, Velocity: 50
Note OFF: Time 230961, Note Name: C4
Note OFF: Time 231040, Note Name: E4
Note ON: Time 231040, Note Name: D4, Velocity: 51
Note OFF: Time 231100, Note Name: D4
Note OFF: Time 231120, Note Name: A3
Note ON: Time 231120, Note Name: A3, Velocity: 47
Note ON: Time 231120, Note Name: C4, Velocity: 57
Note ON: Time 231200, Note Name: E4, Velocity: 48
Note OFF: Time 231201, Note Name: C4
Note OFF: Time 231280, Note Name: E4
Note ON: Time 231280, Note Name: D4, Velocity: 48
Note OFF: Time 231340, Note Name: D4
Note OFF: Time 231360, Note Name: A3
Note ON: Time 231360, Note Name: G3, Velocity: 46
Note ON: Time 231360, Note Name: B3, Velocity: 55
Note ON: Time 231440, Note Name: E4, Velocity: 46
Note OFF: Time 231441, Note Name: B3
Note OFF: Time 231520, Note Name: E4
Note ON: Time 231520, Note Name: D4, Velocity: 47
Note OFF: Time 231580, Note Name: D4
Note OFF: Time 231600, Note Name: G3
Note ON: Time 231600, Note Name: F#3, Velocity: 46
Note ON: Time 231600, Note Name: A#3, Velocity: 55
Note OFF: Time 231680, Note Name: A#3
Note ON: Time 231680, Note Name: E4, Velocity: 50
Note OFF: Time 231760, Note Name: E4
Note ON: Time 231760, Note Name: D4, Velocity: 38
Note OFF: Time 231820, Note Name: D4
Note OFF: Time 231840, Note Name: F#3
Note ON: Time 231840, Note Name: F#3, Velocity: 45
Note ON: Time 231840, Note Name: A#3, Velocity: 55
Note OFF: Time 231920, Note Name: A#3
Note ON: Time 231920, Note Name: E4, Velocity: 50
Note OFF: Time 232000, Note Name: E4
Note ON: Time 232000, Note Name: D4, Velocity: 51
Note OFF: Time 232060, Note Name: D4
Note OFF: Time 232080, Note Name: F#3
Note ON: Time 232080, Note Name: G3, Velocity: 50
Note ON: Time 232080, Note Name: B3, Velocity: 60
Note ON: Time 232160, Note Name: E4, Velocity: 54
Note OFF: Time 232161, Note Name: B3
Note OFF: Time 232240, Note Name: E4
Note ON: Time 232240, Note Name: D4, Velocity: 55
Note OFF: Time 232300, Note Name: D4
Note OFF: Time 232320, Note Name: G3
Note ON: Time 232320, Note Name: G#3, Velocity: 57
Note ON: Time 232320, Note Name: B3, Velocity: 69
Note ON: Time 232400, Note Name: E4, Velocity: 61
Note OFF: Time 232401, Note Name: B3
Note OFF: Time 232480, Note Name: E4
Note ON: Time 232480, Note Name: D4, Velocity: 63
Note OFF: Time 232540, Note Name: D4
Note OFF: Time 232560, Note Name: G#3
Note ON: Time 232560, Note Name: G#3, Velocity: 59
Note ON: Time 232560, Note Name: B3, Velocity: 70
Note OFF: Time 232640, Note Name: B3
Note ON: Time 232640, Note Name: E4, Velocity: 60
Note OFF: Time 232720, Note Name: E4
Note ON: Time 232720, Note Name: D4, Velocity: 61
Note OFF: Time 232780, Note Name: D4
Note OFF: Time 232800, Note Name: G#3
Note ON: Time 232800, Note Name: G#3, Velocity: 54
Note ON: Time 232800, Note Name: B3, Velocity: 60
Note ON: Time 232880, Note Name: F4, Velocity: 54
Note OFF: Time 232881, Note Name: B3
Note OFF: Time 232960, Note Name: F4
Note ON: Time 232960, Note Name: D4, Velocity: 55
Note OFF: Time 233020, Note Name: D4
Note OFF: Time 233040, Note Name: G#3
Note ON: Time 233040, Note Name: G#3, Velocity: 53
Note ON: Time 233040, Note Name: B3, Velocity: 63
Note ON: Time 233120, Note Name: F4, Velocity: 57
Note OFF: Time 233121, Note Name: B3
Note OFF: Time 233200, Note Name: F4
Note ON: Time 233200, Note Name: D4, Velocity: 57
Note OFF: Time 233260, Note Name: D4
Note OFF: Time 233280, Note Name: G#3
Note ON: Time 233280, Note Name: A3, Velocity: 55
Note ON: Time 233280, Note Name: D4, Velocity: 67
Note OFF: Time 233360, Note Name: D4
Note ON: Time 233360, Note Name: F#4, Velocity: 58
Note OFF: Time 233440, Note Name: F#4
Note ON: Time 233440, Note Name: E4, Velocity: 59
Note OFF: Time 233500, Note Name: E4
Note OFF: Time 233520, Note Name: A3
Note ON: Time 233520, Note Name: A#3, Velocity: 58
Note ON: Time 233520, Note Name: D4, Velocity: 70
Note ON: Time 233600, Note Name: F#4, Velocity: 62
Note OFF: Time 233601, Note Name: D4
Note OFF: Time 233680, Note Name: F#4
Note ON: Time 233680, Note Name: E4, Velocity: 64
Note OFF: Time 233740, Note Name: E4
Note OFF: Time 233760, Note Name: A#3
Note ON: Time 233760, Note Name: B3, Velocity: 66
Note ON: Time 233760, Note Name: D4, Velocity: 79
Note ON: Time 233840, Note Name: F#4, Velocity: 71
Note OFF: Time 233841, Note Name: D4
Note OFF: Time 233920, Note Name: F#4
Note ON: Time 233920, Note Name: E4, Velocity: 72
Note OFF: Time 233980, Note Name: E4
Note OFF: Time 234000, Note Name: B3
Note ON: Time 234000, Note Name: B3, Velocity: 68
Note ON: Time 234000, Note Name: D4, Velocity: 81
Note OFF: Time 234080, Note Name: D4
Note ON: Time 234080, Note Name: F#4, Velocity: 69
Note OFF: Time 234160, Note Name: F#4
Note ON: Time 234160, Note Name: E4, Velocity: 70
Note OFF: Time 234220, Note Name: E4
Note OFF: Time 234240, Note Name: B3
Note ON: Time 234240, Note Name: B3, Velocity: 62
Note ON: Time 234240, Note Name: D4, Velocity: 69
Note ON: Time 234320, Note Name: F#4, Velocity: 63
Note OFF: Time 234321, Note Name: D4
Note OFF: Time 234400, Note Name: F#4
Note ON: Time 234400, Note Name: E4, Velocity: 63
Note OFF: Time 234460, Note Name: E4
Note OFF: Time 234480, Note Name: B3
Note ON: Time 234480, Note Name: B3, Velocity: 61
Note ON: Time 234480, Note Name: D4, Velocity: 72
Note ON: Time 234560, Note Name: F4, Velocity: 65
Note OFF: Time 234561, Note Name: D4
Note OFF: Time 234640, Note Name: F4
Note ON: Time 234640, Note Name: F#4, Velocity: 66
Note OFF: Time 234700, Note Name: F#4
Note OFF: Time 234720, Note Name: B3
Note ON: Time 234720, Note Name: B3, Velocity: 63
Note ON: Time 234720, Note Name: D4, Velocity: 76
Note OFF: Time 234800, Note Name: D4
Note ON: Time 234800, Note Name: G4, Velocity: 66
Note OFF: Time 234880, Note Name: G4
Note ON: Time 234880, Note Name: F#4, Velocity: 67
Note OFF: Time 234940, Note Name: F#4
Note OFF: Time 234960, Note Name: B3
Note ON: Time 234960, Note Name: C4, Velocity: 66
Note ON: Time 234960, Note Name: D#4, Velocity: 79
Note OFF: Time 235040, Note Name: D#4
Note ON: Time 235040, Note Name: G#4, Velocity: 71
Note OFF: Time 235120, Note Name: G#4
Note ON: Time 235120, Note Name: F#4, Velocity: 73
Note OFF: Time 235180, Note Name: F#4
Note OFF: Time 235200, Note Name: C4
Note ON: Time 235200, Note Name: C4, Velocity: 71
Note ON: Time 235200, Note Name: D#4, Velocity: 84
Note OFF: Time 235280, Note Name: D#4
Note ON: Time 235280, Note Name: A4, Velocity: 72
Note OFF: Time 235360, Note Name: A4
Note ON: Time 235360, Note Name: F#4, Velocity: 72
Note OFF: Time 235420, Note Name: F#4
Note OFF: Time 235440, Note Name: C4
Note ON: Time 235440, Note Name: C3, Velocity: 73
Note ON: Time 235440, Note Name: D#3, Velocity: 86
Note OFF: Time 235520, Note Name: D#3
Note ON: Time 235520, Note Name: A3, Velocity: 74
Note OFF: Time 235600, Note Name: A3
Note ON: Time 235600, Note Name: F#3, Velocity: 74
Note OFF: Time 235660, Note Name: F#3
Note OFF: Time 235680, Note Name: C3
Note ON: Time 235680, Note Name: C4, Velocity: 69
Note ON: Time 235680, Note Name: D#4, Velocity: 82
Note OFF: Time 235760, Note Name: D#4
Note ON: Time 235760, Note Name: A4, Velocity: 73
Note OFF: Time 235840, Note Name: A4
Note ON: Time 235840, Note Name: F#4, Velocity: 73
Note OFF: Time 235900, Note Name: F#4
Note OFF: Time 235920, Note Name: C4
Note ON: Time 235920, Note Name: C3, Velocity: 71
Note ON: Time 235920, Note Name: D#3, Velocity: 84
Note OFF: Time 236000, Note Name: D#3
Note ON: Time 236000, Note Name: A3, Velocity: 76
Note OFF: Time 236080, Note Name: A3
Note ON: Time 236080, Note Name: F#3, Velocity: 76
Note OFF: Time 236140, Note Name: F#3
Note OFF: Time 236160, Note Name: C3
Note ON: Time 236160, Note Name: C4, Velocity: 81
Note OFF: Time 236196, Note Name: C4
Note ON: Time 236220, Note Name: A4, Velocity: 74
Note OFF: Time 236280, Note Name: A4
Note ON: Time 236280, Note Name: F#4, Velocity: 74
Note ON: Time 236280, Note Name: D#4, Velocity: 62
Note OFF: Time 236340, Note Name: D#4
Note OFF: Time 236340, Note Name: F#4
Note ON: Time 236340, Note Name: A4, Velocity: 74
Note OFF: Time 236400, Note Name: A4
Note ON: Time 236400, Note Name: C3, Velocity: 81
Note OFF: Time 236436, Note Name: C3
Note ON: Time 236460, Note Name: A3, Velocity: 75
Note OFF: Time 236520, Note Name: A3
Note ON: Time 236520, Note Name: D#3, Velocity: 63
Note ON: Time 236520, Note Name: F#3, Velocity: 75
Note OFF: Time 236580, Note Name: F#3
Note OFF: Time 236580, Note Name: D#3
Note ON: Time 236580, Note Name: A3, Velocity: 75
Note OFF: Time 236640, Note Name: A3
Note ON: Time 236640, Note Name: C4, Velocity: 81
Note OFF: Time 236676, Note Name: C4
Note ON: Time 236700, Note Name: A4, Velocity: 74
Note OFF: Time 236760, Note Name: A4
Note ON: Time 236760, Note Name: F#4, Velocity: 74
Note ON: Time 236760, Note Name: D#4, Velocity: 62
Note OFF: Time 236820, Note Name: D#4
Note OFF: Time 236820, Note Name: F#4
Note ON: Time 236820, Note Name: A4, Velocity: 74
Note OFF: Time 236880, Note Name: A4
Note ON: Time 236880, Note Name: C3, Velocity: 81
Note OFF: Time 236904, Note Name: C3
Note ON: Time 236920, Note Name: A3, Velocity: 73
Note OFF: Time 236960, Note Name: A3
Note ON: Time 236960, Note Name: D#3, Velocity: 73
Note ON: Time 236961, Note Name: F#3, Velocity: 73
Note OFF: Time 237000, Note Name: D#3
Note OFF: Time 237001, Note Name: F#3
Note ON: Time 237001, Note Name: A3, Velocity: 73
Note ON: Time 237040, Note Name: D#3, Velocity: 62
Note ON: Time 237040, Note Name: F#3, Velocity: 73
Note OFF: Time 237041, Note Name: A3
Note OFF: Time 237080, Note Name: F#3
Note OFF: Time 237080, Note Name: D#3
Note ON: Time 237080, Note Name: A3, Velocity: 73
Note OFF: Time 237120, Note Name: A3
Note ON: Time 237120, Note Name: C4, Velocity: 81
Note OFF: Time 237144, Note Name: C4
Note ON: Time 237160, Note Name: A4, Velocity: 73
Note OFF: Time 237200, Note Name: A4
Note ON: Time 237200, Note Name: D#4, Velocity: 73
Note ON: Time 237201, Note Name: F#4, Velocity: 73
Note OFF: Time 237240, Note Name: D#4
Note OFF: Time 237241, Note Name: F#4
Note ON: Time 237241, Note Name: A4, Velocity: 73
Note ON: Time 237280, Note Name: D#4, Velocity: 62
Note ON: Time 237280, Note Name: F#4, Velocity: 73
Note OFF: Time 237281, Note Name: A4
Note OFF: Time 237320, Note Name: F#4
Note OFF: Time 237320, Note Name: D#4
Note ON: Time 237320, Note Name: A4, Velocity: 73
Note OFF: Time 237360, Note Name: A4
Note ON: Time 237360, Note Name: C3, Velocity: 81
Note OFF: Time 237384, Note Name: C3
Note ON: Time 237400, Note Name: A3, Velocity: 74
Note OFF: Time 237440, Note Name: A3
Note ON: Time 237440, Note Name: D#3, Velocity: 74
Note ON: Time 237441, Note Name: F#3, Velocity: 74
Note OFF: Time 237480, Note Name: D#3
Note OFF: Time 237481, Note Name: F#3
Note ON: Time 237481, Note Name: A3, Velocity: 74
Note ON: Time 237520, Note Name: D#3, Velocity: 62
Note ON: Time 237520, Note Name: F#3, Velocity: 74
Note OFF: Time 237521, Note Name: A3
Note OFF: Time 237560, Note Name: F#3
Note OFF: Time 237560, Note Name: D#3
Note ON: Time 237560, Note Name: A3, Velocity: 74
Note OFF: Time 237600, Note Name: A3
Note ON: Time 237600, Note Name: C#4, Velocity: 38
Note OFF: Time 238080, Note Name: C#4
Note ON: Time 238080, Note Name: A3, Velocity: 33
Note OFF: Time 238318, Note Name: A3
Note ON: Time 238320, Note Name: A3, Velocity: 35
Note OFF: Time 238560, Note Name: A3
Note ON: Time 238560, Note Name: F#3, Velocity: 31
Note OFF: Time 238800, Note Name: F#3
Note ON: Time 238800, Note Name: C#3, Velocity: 26
Note ON: Time 238800, Note Name: G#3, Velocity: 31
Note OFF: Time 239040, Note Name: G#3
Note OFF: Time 239040, Note Name: C#3
Note ON: Time 239040, Note Name: F#2, Velocity: 28
Note ON: Time 239040, Note Name: F#3, Velocity: 34
Note OFF: Time 239520, Note Name: F#3
Note OFF: Time 239520, Note Name: F#2
Note ON: Time 239520, Note Name: F#2, Velocity: 35
Note ON: Time 239520, Note Name: F#3, Velocity: 41
Note OFF: Time 239760, Note Name: F#3
Note OFF: Time 239760, Note Name: F#2
Note ON: Time 239760, Note Name: B1, Velocity: 36
Note ON: Time 239760, Note Name: B2, Velocity: 43
Note OFF: Time 240240, Note Name: B2
Note OFF: Time 240240, Note Name: B1
Note ON: Time 240240, Note Name: B1, Velocity: 41
Note ON: Time 240240, Note Name: B2, Velocity: 49
Note OFF: Time 240480, Note Name: B2
Note OFF: Time 240480, Note Name: B1
Note ON: Time 240480, Note Name: G#1, Velocity: 47
Note ON: Time 240480, Note Name: G#2, Velocity: 58
Note OFF: Time 240960, Note Name: G#2
Note OFF: Time 240960, Note Name: G#1
Note ON: Time 240960, Note Name: A1, Velocity: 40
Note ON: Time 240960, Note Name: A2, Velocity: 47
Note OFF: Time 241198, Note Name: A2
Note OFF: Time 241198, Note Name: A1
Note ON: Time 241200, Note Name: A1, Velocity: 46
Note ON: Time 241200, Note Name: A2, Velocity: 57
Note OFF: Time 241440, Note Name: A2
Note OFF: Time 241440, Note Name: A1
Note ON: Time 241440, Note Name: B1, Velocity: 43
Note ON: Time 241440, Note Name: B2, Velocity: 51
Note OFF: Time 241680, Note Name: B2
Note OFF: Time 241680, Note Name: B1
Note ON: Time 241680, Note Name: C3, Velocity: 51
Note ON: Time 241680, Note Name: C2, Velocity: 42
Note OFF: Time 241920, Note Name: C2
Note OFF: Time 241920, Note Name: C3
Note ON: Time 241920, Note Name: C2, Velocity: 34
Note ON: Time 241920, Note Name: C3, Velocity: 42
Note OFF: Time 242160, Note Name: C3
Note OFF: Time 242160, Note Name: C2
Note ON: Time 242160, Note Name: C#2, Velocity: 38
Note ON: Time 242160, Note Name: C#3, Velocity: 45
Note OFF: Time 242520, Note Name: C#3
Note OFF: Time 242520, Note Name: C#2
Note ON: Time 242520, Note Name: C2, Velocity: 34
Note ON: Time 242520, Note Name: C3, Velocity: 40
Note OFF: Time 242640, Note Name: C3
Note OFF: Time 242640, Note Name: C2
Note ON: Time 242640, Note Name: C#2, Velocity: 39
Note ON: Time 242640, Note Name: C#3, Velocity: 48
Note OFF: Time 242880, Note Name: C#3
Note OFF: Time 242880, Note Name: C#2
Note ON: Time 242880, Note Name: C#2, Velocity: 38
Note ON: Time 242880, Note Name: C#3, Velocity: 45
Note OFF: Time 243120, Note Name: C#3
Note OFF: Time 243120, Note Name: C#2
Note ON: Time 243120, Note Name: D3, Velocity: 48
Note ON: Time 243120, Note Name: D2, Velocity: 40
Note OFF: Time 243360, Note Name: D2
Note OFF: Time 243360, Note Name: D3
Note ON: Time 243360, Note Name: G2, Velocity: 43
Note ON: Time 243360, Note Name: G1, Velocity: 32
Note ON: Time 243360, Note Name: D2, Velocity: 32
Note OFF: Time 244080, Note Name: D2
Note OFF: Time 244080, Note Name: G1
Note OFF: Time 244080, Note Name: G2
Note ON: Time 244080, Note Name: G2, Velocity: 30
Note ON: Time 244080, Note Name: B1, Velocity: 30
Note ON: Time 244080, Note Name: D3, Velocity: 36
Note OFF: Time 244800, Note Name: D3
Note OFF: Time 244800, Note Name: B1
Note OFF: Time 244800, Note Name: G2
Note ON: Time 244800, Note Name: C2, Velocity: 33
Note ON: Time 244800, Note Name: E3, Velocity: 39
Note ON: Time 244800, Note Name: G2, Velocity: 33
Note OFF: Time 245520, Note Name: G2
Note OFF: Time 245520, Note Name: E3
Note OFF: Time 245520, Note Name: C2
Note ON: Time 245520, Note Name: B1, Velocity: 29
Note ON: Time 245520, Note Name: G2, Velocity: 29
Note ON: Time 245520, Note Name: D3, Velocity: 35
Note OFF: Time 245760, Note Name: D3
Note OFF: Time 245760, Note Name: G2
Note OFF: Time 245760, Note Name: B1
Note ON: Time 245760, Note Name: G2, Velocity: 46
Note ON: Time 246000, Note Name: D2, Velocity: 32
Note OFF: Time 246120, Note Name: G2
Note ON: Time 246120, Note Name: F#2, Velocity: 38
Note OFF: Time 246239, Note Name: F#2
Note OFF: Time 246240, Note Name: D2
Note ON: Time 246240, Note Name: D2, Velocity: 29
Note ON: Time 246240, Note Name: F#2, Velocity: 35
Note OFF: Time 246480, Note Name: F#2
Note OFF: Time 246480, Note Name: D2
Note ON: Time 246480, Note Name: C#2, Velocity: 29
Note ON: Time 246480, Note Name: A2, Velocity: 31
Note OFF: Time 246720, Note Name: A2
Note OFF: Time 246720, Note Name: C#2
Note ON: Time 246720, Note Name: C#2, Velocity: 26
Note ON: Time 246720, Note Name: C#3, Velocity: 31
Note OFF: Time 246958, Note Name: C#3
Note OFF: Time 246958, Note Name: C#2
Note ON: Time 246960, Note Name: C#2, Velocity: 29
Note ON: Time 246960, Note Name: C#3, Velocity: 35
Note OFF: Time 247440, Note Name: C#3
Note OFF: Time 247440, Note Name: C#2
Note ON: Time 247440, Note Name: F#2, Velocity: 27
Note ON: Time 247440, Note Name: C#3, Velocity: 32
Note OFF: Time 247678, Note Name: C#3
Note OFF: Time 247678, Note Name: F#2
Note ON: Time 247680, Note Name: F#2, Velocity: 29
Note ON: Time 247680, Note Name: C#3, Velocity: 35
Note OFF: Time 247920, Note Name: F#2
Note ON: Time 247920, Note Name: B1, Velocity: 27
Note ON: Time 247920, Note Name: D3, Velocity: 32
Note OFF: Time 247929, Note Name: C#3
Note OFF: Time 248160, Note Name: D3
Note ON: Time 248160, Note Name: G2, Velocity: 32
Note OFF: Time 248400, Note Name: G2
Note ON: Time 248400, Note Name: B2, Velocity: 35
Note OFF: Time 248640, Note Name: B2
Note OFF: Time 248640, Note Name: B1
Note ON: Time 248640, Note Name: C#2, Velocity: 35
Note OFF: Time 248880, Note Name: C#2
Note ON: Time 248880, Note Name: C#2, Velocity: 33
Note ON: Time 248880, Note Name: F2, Velocity: 33
Note OFF: Time 249000, Note Name: F2
Note ON: Time 249000, Note Name: F#2, Velocity: 30
Note OFF: Time 249120, Note Name: F#2
Note OFF: Time 249120, Note Name: C#2
Note ON: Time 249120, Note Name: C#2, Velocity: 29
Note ON: Time 249120, Note Name: F#2, Velocity: 35
Note OFF: Time 249360, Note Name: F#2
Note OFF: Time 249360, Note Name: C#2
Note ON: Time 249360, Note Name: F#1, Velocity: 23
Note ON: Time 249360, Note Name: F#2, Velocity: 28
Note OFF: Time 249600, Note Name: F#2
Note OFF: Time 249600, Note Name: F#1
Note ON: Time 249600, Note Name: A#1, Velocity: 23
Note ON: Time 249600, Note Name: A#2, Velocity: 28
Note OFF: Time 249840, Note Name: A#2
Note OFF: Time 249840, Note Name: A#1
Note ON: Time 249840, Note Name: C#2, Velocity: 29
Note ON: Time 249840, Note Name: C#3, Velocity: 35
Note OFF: Time 250080, Note Name: C#3
Note OFF: Time 250080, Note Name: C#2
Note ON: Time 250080, Note Name: F#1, Velocity: 23
Note ON: Time 250080, Note Name: F#2, Velocity: 28
Note OFF: Time 250320, Note Name: F#2
Note OFF: Time 250320, Note Name: F#1
Note ON: Time 250320, Note Name: A#1, Velocity: 23
Note ON: Time 250320, Note Name: A#2, Velocity: 28
Note OFF: Time 250560, Note Name: A#2
Note OFF: Time 250560, Note Name: A#1
Note ON: Time 250560, Note Name: B1, Velocity: 26
Note ON: Time 250560, Note Name: B2, Velocity: 31
Note OFF: Time 250800, Note Name: B2
Note OFF: Time 250800, Note Name: B1
Note ON: Time 250800, Note Name: F#1, Velocity: 22
Note ON: Time 250800, Note Name: F#2, Velocity: 27
Note OFF: Time 251040, Note Name: F#2
Note OFF: Time 251040, Note Name: F#1
Note ON: Time 251040, Note Name: B1, Velocity: 22
Note ON: Time 251040, Note Name: B2, Velocity: 27
Note OFF: Time 251280, Note Name: B2
Note OFF: Time 251280, Note Name: B1
Note ON: Time 251280, Note Name: D2, Velocity: 26
Note ON: Time 251280, Note Name: D3, Velocity: 31
Note OFF: Time 251520, Note Name: D3
Note OFF: Time 251520, Note Name: D2
Note ON: Time 251520, Note Name: F#1, Velocity: 21
Note ON: Time 251520, Note Name: F#2, Velocity: 25
Note OFF: Time 251760, Note Name: F#2
Note OFF: Time 251760, Note Name: F#1
Note ON: Time 251760, Note Name: B1, Velocity: 21
Note ON: Time 251760, Note Name: B2, Velocity: 25
Note OFF: Time 252000, Note Name: B2
Note OFF: Time 252000, Note Name: B1
Note ON: Time 252000, Note Name: C#2, Velocity: 24
Note ON: Time 252000, Note Name: C#3, Velocity: 29
Note OFF: Time 252240, Note Name: C#3
Note OFF: Time 252240, Note Name: C#2
Note ON: Time 252240, Note Name: F#1, Velocity: 19
Note ON: Time 252240, Note Name: F#2, Velocity: 23
Note OFF: Time 252480, Note Name: F#2
Note OFF: Time 252480, Note Name: F#1
Note ON: Time 252480, Note Name: A#1, Velocity: 20
Note ON: Time 252480, Note Name: A#2, Velocity: 24
Note OFF: Time 252720, Note Name: A#2
Note OFF: Time 252720, Note Name: A#1
Note ON: Time 252720, Note Name: C#2, Velocity: 26
Note ON: Time 252720, Note Name: C#3, Velocity: 32
Note OFF: Time 252960, Note Name: C#3
Note OFF: Time 252960, Note Name: C#2
Note ON: Time 252960, Note Name: F#1, Velocity: 22
Note ON: Time 252960, Note Name: F#2, Velocity: 26
Note OFF: Time 253200, Note Name: F#2
Note OFF: Time 253200, Note Name: F#1
Note ON: Time 253200, Note Name: A#1, Velocity: 22
Note ON: Time 253200, Note Name: A#2, Velocity: 27
Note OFF: Time 253440, Note Name: A#2
Note OFF: Time 253440, Note Name: A#1
Note ON: Time 253440, Note Name: B1, Velocity: 30
Note ON: Time 253440, Note Name: B2, Velocity: 36
Note OFF: Time 253680, Note Name: B2
Note OFF: Time 253680, Note Name: B1
Note ON: Time 253680, Note Name: F#1, Velocity: 24
Note ON: Time 253680, Note Name: F#2, Velocity: 29
Note OFF: Time 253920, Note Name: F#2
Note OFF: Time 253920, Note Name: F#1
Note ON: Time 253920, Note Name: B1, Velocity: 22
Note ON: Time 253920, Note Name: B2, Velocity: 27
Note OFF: Time 254160, Note Name: B2
Note OFF: Time 254160, Note Name: B1
Note ON: Time 254160, Note Name: D2, Velocity: 29
Note ON: Time 254160, Note Name: D3, Velocity: 35
Note OFF: Time 254240, Note Name: D3
Note OFF: Time 254240, Note Name: D2
Note ON: Time 254240, Note Name: F#1, Velocity: 33
Note OFF: Time 254320, Note Name: F#1
Note ON: Time 254320, Note Name: B1, Velocity: 35
Note OFF: Time 254400, Note Name: B1
Note ON: Time 254400, Note Name: D2, Velocity: 42
Note OFF: Time 254480, Note Name: D2
Note ON: Time 254480, Note Name: F#2, Velocity: 40
Note OFF: Time 254560, Note Name: F#2
Note ON: Time 254560, Note Name: B2, Velocity: 38
Note OFF: Time 254640, Note Name: B2
Note ON: Time 254640, Note Name: D3, Velocity: 35
Note OFF: Time 254720, Note Name: D3
Note ON: Time 254720, Note Name: F#2, Velocity: 33
Note OFF: Time 254800, Note Name: F#2
Note ON: Time 254800, Note Name: D3, Velocity: 31
Note OFF: Time 254880, Note Name: D3
Note ON: Time 254880, Note Name: F#2, Velocity: 27
Note OFF: Time 254960, Note Name: F#2
Note ON: Time 254960, Note Name: C#3, Velocity: 20
Note OFF: Time 255040, Note Name: C#3
Note ON: Time 255040, Note Name: F#2, Velocity: 20
Note OFF: Time 255120, Note Name: F#2
Note ON: Time 255120, Note Name: F#3, Velocity: 27
Note OFF: Time 255200, Note Name: F#3
Note ON: Time 255200, Note Name: C#3, Velocity: 22
Note OFF: Time 255280, Note Name: C#3
Note ON: Time 255280, Note Name: F#3, Velocity: 22
Note OFF: Time 255360, Note Name: F#3
Note ON: Time 255360, Note Name: F#2, Velocity: 27
Note OFF: Time 255440, Note Name: F#2
Note ON: Time 255440, Note Name: C#3, Velocity: 23
Note OFF: Time 255520, Note Name: C#3
Note ON: Time 255520, Note Name: F#2, Velocity: 23
Note OFF: Time 255600, Note Name: F#2
Note ON: Time 255600, Note Name: F#3, Velocity: 27
Note OFF: Time 255680, Note Name: F#3
Note ON: Time 255680, Note Name: C#3, Velocity: 23
Note OFF: Time 255760, Note Name: C#3
Note ON: Time 255760, Note Name: F#3, Velocity: 23
Note OFF: Time 255840, Note Name: F#3
Note ON: Time 255840, Note Name: C#3, Velocity: 27
Note OFF: Time 255920, Note Name: C#3
Note ON: Time 255920, Note Name: F#2, Velocity: 21
Note OFF: Time 256000, Note Name: F#2
Note ON: Time 256000, Note Name: C#3, Velocity: 21
Note OFF: Time 256080, Note Name: C#3
Note ON: Time 256080, Note Name: F#3, Velocity: 27
Note OFF: Time 256160, Note Name: F#3
Note ON: Time 256160, Note Name: C#3, Velocity: 22
Note OFF: Time 256240, Note Name: C#3
Note ON: Time 256240, Note Name: F#3, Velocity: 22
Note OFF: Time 256320, Note Name: F#3
Note ON: Time 256320, Note Name: C#2, Velocity: 27
Note OFF: Time 256400, Note Name: C#2
Note ON: Time 256400, Note Name: F#2, Velocity: 23
Note OFF: Time 256480, Note Name: F#2
Note ON: Time 256480, Note Name: C#2, Velocity: 23
Note OFF: Time 256560, Note Name: C#2
Note ON: Time 256560, Note Name: C#3, Velocity: 27
Note OFF: Time 256640, Note Name: C#3
Note ON: Time 256640, Note Name: F#2, Velocity: 23
Note OFF: Time 256720, Note Name: F#2
Note ON: Time 256720, Note Name: C#3, Velocity: 23
Note OFF: Time 256800, Note Name: C#3
Note ON: Time 256800, Note Name: C#2, Velocity: 26
Note OFF: Time 256880, Note Name: C#2
Note ON: Time 256880, Note Name: F#2, Velocity: 22
Note OFF: Time 256960, Note Name: F#2
Note ON: Time 256960, Note Name: C#2, Velocity: 22
Note OFF: Time 257040, Note Name: C#2
Note ON: Time 257040, Note Name: C#3, Velocity: 27
Note OFF: Time 257120, Note Name: C#3
Note ON: Time 257120, Note Name: F#2, Velocity: 23
Note OFF: Time 257200, Note Name: F#2
Note ON: Time 257200, Note Name: C#3, Velocity: 23
Note OFF: Time 257280, Note Name: C#3
Note ON: Time 257280, Note Name: C#2, Velocity: 27
Note OFF: Time 257360, Note Name: C#2
Note ON: Time 257360, Note Name: F#2, Velocity: 23
Note OFF: Time 257440, Note Name: F#2
Note ON: Time 257440, Note Name: C#2, Velocity: 23
Note OFF: Time 257520, Note Name: C#2
Note ON: Time 257520, Note Name: C#3, Velocity: 27
Note OFF: Time 257600, Note Name: C#3
Note ON: Time 257600, Note Name: F#2, Velocity: 24
Note OFF: Time 257680, Note Name: F#2
Note ON: Time 257680, Note Name: C#3, Velocity: 24
Note OFF: Time 257760, Note Name: C#3
Note ON: Time 257760, Note Name: F#2, Velocity: 27
Note OFF: Time 257840, Note Name: F#2
Note ON: Time 257840, Note Name: C#2, Velocity: 23
Note OFF: Time 257920, Note Name: C#2
Note ON: Time 257920, Note Name: F#2, Velocity: 23
Note OFF: Time 258000, Note Name: F#2
Note ON: Time 258000, Note Name: F#1, Velocity: 27
Note OFF: Time 258080, Note Name: F#1
Note ON: Time 258080, Note Name: C#2, Velocity: 23
Note OFF: Time 258160, Note Name: C#2
Note ON: Time 258160, Note Name: F#1, Velocity: 23
Note OFF: Time 258240, Note Name: F#1
Note ON: Time 258240, Note Name: F#2, Velocity: 27
Note OFF: Time 258320, Note Name: F#2
Note ON: Time 258320, Note Name: C#2, Velocity: 24
Note OFF: Time 258400, Note Name: C#2
Note ON: Time 258400, Note Name: F#2, Velocity: 24
Note OFF: Time 258480, Note Name: F#2
Note ON: Time 258480, Note Name: F#1, Velocity: 27
Note OFF: Time 258560, Note Name: F#1
Note ON: Time 258560, Note Name: C#2, Velocity: 24
Note OFF: Time 258640, Note Name: C#2
Note ON: Time 258640, Note Name: F#1, Velocity: 24
Note OFF: Time 258720, Note Name: F#1
Note ON: Time 258720, Note Name: F#2, Velocity: 27
Note OFF: Time 258800, Note Name: F#2
Note ON: Time 258800, Note Name: C#2, Velocity: 23
Note OFF: Time 258880, Note Name: C#2
Note ON: Time 258880, Note Name: F#2, Velocity: 23
Note OFF: Time 258960, Note Name: F#2
Note ON: Time 258960, Note Name: C#2, Velocity: 27
Note OFF: Time 259040, Note Name: C#2
Note ON: Time 259040, Note Name: F#2, Velocity: 24
Note OFF: Time 259120, Note Name: F#2
Note ON: Time 259120, Note Name: C#2, Velocity: 24
Note OFF: Time 259200, Note Name: C#2
Note ON: Time 259200, Note Name: C#3, Velocity: 30
Note OFF: Time 259440, Note Name: C#3
Note ON: Time 259440, Note Name: C#4, Velocity: 26
Note OFF: Time 259680, Note Name: C#4
Note ON: Time 259680, Note Name: A3, Velocity: 26
Note OFF: Time 259918, Note Name: A3
Note ON: Time 259920, Note Name: A3, Velocity: 28
Note OFF: Time 260160, Note Name: A3
Note ON: Time 260160, Note Name: F#3, Velocity: 24
Note OFF: Time 260400, Note Name: F#3
Note ON: Time 260400, Note Name: F3, Velocity: 20
Note ON: Time 260400, Note Name: C#3, Velocity: 20
Note ON: Time 260400, Note Name: G#3, Velocity: 24
Note OFF: Time 260640, Note Name: G#3
Note OFF: Time 260640, Note Name: C#3
Note OFF: Time 260640, Note Name: F3
Note ON: Time 260640, Note Name: A3, Velocity: 33
Note ON: Time 260640, Note Name: F#3, Velocity: 27
Note OFF: Time 260880, Note Name: F#3
Note OFF: Time 260880, Note Name: A3
Note ON: Time 260880, Note Name: F#2, Velocity: 28
Note ON: Time 260880, Note Name: F#3, Velocity: 32
Note OFF: Time 261600, Note Name: F#3
Note OFF: Time 261600, Note Name: F#2
Note ON: Time 261600, Note Name: B1, Velocity: 28
Note ON: Time 261600, Note Name: B2, Velocity: 34
Note OFF: Time 261840, Note Name: B2
Note OFF: Time 261840, Note Name: B1
Note ON: Time 261840, Note Name: F#1, Velocity: 32
Note ON: Time 261840, Note Name: F#2, Velocity: 39
Note OFF: Time 262080, Note Name: F#2
Note OFF: Time 262080, Note Name: F#1
Note ON: Time 262080, Note Name: B1, Velocity: 42
Note OFF: Time 262320, Note Name: B1
Note ON: Time 262320, Note Name: F1, Velocity: 28
Note ON: Time 262320, Note Name: F2, Velocity: 34
Note OFF: Time 262795, Note Name: F2
Note OFF: Time 262795, Note Name: F1
Note ON: Time 262800, Note Name: F1, Velocity: 28
Note ON: Time 262800, Note Name: F2, Velocity: 34
Note OFF: Time 263275, Note Name: F2
Note OFF: Time 263275, Note Name: F1
Note ON: Time 263280, Note Name: F2, Velocity: 30
Note ON: Time 263280, Note Name: F1, Velocity: 25
Note OFF: Time 263400, Note Name: F1
Note OFF: Time 263400, Note Name: F2
Note ON: Time 263400, Note Name: F#1, Velocity: 26
Note ON: Time 263400, Note Name: F#2, Velocity: 31
Note OFF: Time 263517, Note Name: F#2
Note OFF: Time 263517, Note Name: F#1
Note ON: Time 263520, Note Name: F#1, Velocity: 28
Note ON: Time 263520, Note Name: F#2, Velocity: 34
Note OFF: Time 264240, Note Name: F#2
Note OFF: Time 264240, Note Name: F#1
Note ON: Time 264240, Note Name: F#2, Velocity: 24
Note ON: Time 264240, Note Name: C#3, Velocity: 24
Note ON: Time 264240, Note Name: A#3, Velocity: 29
Note OFF: Time 265680, Note Name: A#3
Note OFF: Time 265680, Note Name: C#3
Note OFF: Time 265680, Note Name: F#2
Note ON: Time 265680, Note Name: F#1, Velocity: 19
Note ON: Time 265680, Note Name: C#2, Velocity: 19
Note ON: Time 265680, Note Name: A#2, Velocity: 23
Note OFF: Time 267120, Note Name: A#2
Note OFF: Time 267120, Note Name: C#2
Note OFF: Time 267120, Note Name: F#1
Note ON: Time 267120, Note Name: F#1, Velocity: 19
Note ON: Time 267120, Note Name: C#2, Velocity: 19
Note ON: Time 267120, Note Name: A#2, Velocity: 23
Note OFF: Time 267840, Note Name: A#2
Note OFF: Time 267840, Note Name: C#2
Note OFF: Time 267840, Note Name: F#1
Note ON: Time 267840, Note Name: F#1, Velocity: 16
Note ON: Time 267900, Note Name: C#2, Velocity: 18
Note ON: Time 267960, Note Name: A#2, Velocity: 20
Note OFF: Time 268320, Note Name: A#2
Note OFF: Time 268320, Note Name: C#2
Note OFF: Time 268320, Note Name: F#1
Track 3: Pedale
Track 4: Beethoven: Hammerklaviersonate - 3. Satz
Track 5: Copyright  2008 by Bernd Krueger
Track 6: http://www.piano-midi.de/
Track 7: Edition: 2012-08-22
Track 8: Spur 8
Track 9: Spur 9
Track 10: Spur 10
Track 11: Spur 11
Track 12: Spur 12
Track 13: Spur 13
Track 14: Spur 14
Track 15: Spur 15
Track 16: Spur 16
