Processing beethoven_hammerklavier_1.mid...

Track 0: Hammerklaviersonate 1. Satz
Track 1: Piano right
Note ON: Time 1320, Note Name: D5, Velocity: 88
Note ON: Time 1320, Note Name: F5, Velocity: 88
Note ON: Time 1320, Note Name: A#5, Velocity: 88
Note ON: Time 1320, Note Name: D6, Velocity: 105
Note OFF: Time 1440, Note Name: D6
Note OFF: Time 1440, Note Name: D5
Note OFF: Time 1440, Note Name: F5
Note OFF: Time 1440, Note Name: A#5
Note ON: Time 1440, Note Name: F5, Velocity: 79
Note ON: Time 1440, Note Name: A#5, Velocity: 79
Note ON: Time 1440, Note Name: D5, Velocity: 79
Note ON: Time 1440, Note Name: D6, Velocity: 94
Note OFF: Time 1620, Note Name: D6
Note OFF: Time 1620, Note Name: F5
Note OFF: Time 1620, Note Name: A#5
Note OFF: Time 1620, Note Name: D5
Note ON: Time 1680, Note Name: D5, Velocity: 80
Note ON: Time 1680, Note Name: D#6, Velocity: 100
Note ON: Time 1680, Note Name: F5, Velocity: 80
Note ON: Time 1680, Note Name: A#5, Velocity: 80
Note OFF: Time 1725, Note Name: A#5
Note OFF: Time 1725, Note Name: D5
Note OFF: Time 1725, Note Name: D#6
Note OFF: Time 1725, Note Name: F5
Note ON: Time 1800, Note Name: D6, Velocity: 97
Note ON: Time 1800, Note Name: D5, Velocity: 82
Note ON: Time 1800, Note Name: A#5, Velocity: 82
Note ON: Time 1800, Note Name: F5, Velocity: 82
Note OFF: Time 1845, Note Name: F5
Note OFF: Time 1845, Note Name: D6
Note OFF: Time 1845, Note Name: D5
Note OFF: Time 1845, Note Name: A#5
Note ON: Time 1920, Note Name: F5, Velocity: 88
Note ON: Time 1920, Note Name: D5, Velocity: 88
Note ON: Time 1920, Note Name: A#5, Velocity: 88
Note ON: Time 1920, Note Name: D6, Velocity: 105
Note OFF: Time 2040, Note Name: D6
Note OFF: Time 2040, Note Name: F5
Note OFF: Time 2040, Note Name: D5
Note OFF: Time 2040, Note Name: A#5
Note ON: Time 2160, Note Name: D5, Velocity: 80
Note ON: Time 2160, Note Name: A#4, Velocity: 80
Note ON: Time 2160, Note Name: F5, Velocity: 80
Note ON: Time 2160, Note Name: A#5, Velocity: 96
Note OFF: Time 2280, Note Name: A#5
Note OFF: Time 2280, Note Name: D5
Note OFF: Time 2280, Note Name: A#4
Note OFF: Time 2280, Note Name: F5
Note ON: Time 3240, Note Name: A#5, Velocity: 88
Note ON: Time 3240, Note Name: D6, Velocity: 88
Note ON: Time 3240, Note Name: F5, Velocity: 88
Note ON: Time 3240, Note Name: F6, Velocity: 105
Note OFF: Time 3360, Note Name: F6
Note OFF: Time 3360, Note Name: A#5
Note OFF: Time 3360, Note Name: D6
Note OFF: Time 3360, Note Name: F5
Note ON: Time 3360, Note Name: F5, Velocity: 79
Note ON: Time 3360, Note Name: A#5, Velocity: 79
Note ON: Time 3360, Note Name: D6, Velocity: 79
Note ON: Time 3360, Note Name: F6, Velocity: 94
Note OFF: Time 3540, Note Name: F6
Note OFF: Time 3540, Note Name: F5
Note OFF: Time 3540, Note Name: A#5
Note OFF: Time 3540, Note Name: D6
Note ON: Time 3600, Note Name: A#5, Velocity: 80
Note ON: Time 3600, Note Name: D6, Velocity: 80
Note ON: Time 3600, Note Name: G6, Velocity: 100
Note ON: Time 3600, Note Name: F5, Velocity: 80
Note OFF: Time 3645, Note Name: F5
Note OFF: Time 3645, Note Name: A#5
Note OFF: Time 3645, Note Name: D6
Note OFF: Time 3645, Note Name: G6
Note ON: Time 3720, Note Name: F5, Velocity: 82
Note ON: Time 3720, Note Name: A#5, Velocity: 82
Note ON: Time 3720, Note Name: F6, Velocity: 97
Note ON: Time 3720, Note Name: D6, Velocity: 82
Note OFF: Time 3765, Note Name: D6
Note OFF: Time 3765, Note Name: F5
Note OFF: Time 3765, Note Name: A#5
Note OFF: Time 3765, Note Name: F6
Note ON: Time 3840, Note Name: F6, Velocity: 105
Note ON: Time 3840, Note Name: F5, Velocity: 88
Note ON: Time 3840, Note Name: A#5, Velocity: 88
Note ON: Time 3840, Note Name: D6, Velocity: 88
Note OFF: Time 3960, Note Name: D6
Note OFF: Time 3960, Note Name: F6
Note OFF: Time 3960, Note Name: F5
Note OFF: Time 3960, Note Name: A#5
Note ON: Time 4080, Note Name: D5, Velocity: 80
Note ON: Time 4080, Note Name: F5, Velocity: 80
Note ON: Time 4080, Note Name: A#5, Velocity: 80
Note ON: Time 4080, Note Name: D6, Velocity: 96
Note OFF: Time 4200, Note Name: D6
Note OFF: Time 4200, Note Name: D5
Note OFF: Time 4200, Note Name: F5
Note OFF: Time 4200, Note Name: A#5
Note ON: Time 4560, Note Name: A#4, Velocity: 50
Note OFF: Time 4680, Note Name: A#4
Note ON: Time 4680, Note Name: C5, Velocity: 45
Note OFF: Time 4800, Note Name: C5
Note ON: Time 4800, Note Name: D5, Velocity: 50
Note ON: Time 5040, Note Name: G4, Velocity: 39
Note OFF: Time 5280, Note Name: G4
Note OFF: Time 5280, Note Name: D5
Note ON: Time 5280, Note Name: A4, Velocity: 33
Note ON: Time 5280, Note Name: C5, Velocity: 39
Note OFF: Time 5520, Note Name: C5
Note OFF: Time 5520, Note Name: A4
Note ON: Time 5520, Note Name: G#4, Velocity: 42
Note ON: Time 5520, Note Name: C5, Velocity: 50
Note OFF: Time 5640, Note Name: C5
Note ON: Time 5640, Note Name: D5, Velocity: 46
Note OFF: Time 5760, Note Name: D5
Note OFF: Time 5760, Note Name: G#4
Note ON: Time 5760, Note Name: D#5, Velocity: 55
Note ON: Time 5760, Note Name: G4, Velocity: 46
Note OFF: Time 6000, Note Name: G4
Note ON: Time 6000, Note Name: A4, Velocity: 45
Note OFF: Time 6240, Note Name: A4
Note OFF: Time 6240, Note Name: D#5
Note ON: Time 6240, Note Name: A#4, Velocity: 38
Note ON: Time 6240, Note Name: D5, Velocity: 45
Note OFF: Time 6480, Note Name: D5
Note OFF: Time 6480, Note Name: A#4
Note ON: Time 6480, Note Name: G4, Velocity: 39
Note ON: Time 6480, Note Name: D5, Velocity: 47
Note OFF: Time 6600, Note Name: D5
Note ON: Time 6600, Note Name: D#5, Velocity: 50
Note OFF: Time 6720, Note Name: D#5
Note OFF: Time 6720, Note Name: G4
Note ON: Time 6720, Note Name: F4, Velocity: 45
Note ON: Time 6720, Note Name: F5, Velocity: 54
Note OFF: Time 6960, Note Name: F4
Note ON: Time 6960, Note Name: A#4, Velocity: 45
Note OFF: Time 7080, Note Name: F5
Note ON: Time 7080, Note Name: G5, Velocity: 52
Note OFF: Time 7200, Note Name: G5
Note OFF: Time 7200, Note Name: A#4
Note ON: Time 7200, Note Name: G4, Velocity: 42
Note ON: Time 7200, Note Name: F5, Velocity: 50
Note OFF: Time 7320, Note Name: F5
Note ON: Time 7320, Note Name: D#5, Velocity: 43
Note OFF: Time 7440, Note Name: G4
Note ON: Time 7440, Note Name: A4, Velocity: 43
Note OFF: Time 7560, Note Name: D#5
Note ON: Time 7560, Note Name: F5, Velocity: 45
Note OFF: Time 7680, Note Name: F5
Note OFF: Time 7680, Note Name: A4
Note ON: Time 7680, Note Name: A#4, Velocity: 35
Note ON: Time 7680, Note Name: F4, Velocity: 35
Note ON: Time 7680, Note Name: D#5, Velocity: 49
Note OFF: Time 7800, Note Name: D#5
Note ON: Time 7800, Note Name: D5, Velocity: 41
Note OFF: Time 7920, Note Name: D5
Note OFF: Time 7920, Note Name: F4
Note OFF: Time 7920, Note Name: A#4
Note ON: Time 7920, Note Name: C5, Velocity: 30
Note ON: Time 7920, Note Name: F5, Velocity: 43
Note ON: Time 7920, Note Name: G4, Velocity: 30
Note OFF: Time 8040, Note Name: F5
Note ON: Time 8040, Note Name: D#5, Velocity: 37
Note OFF: Time 8160, Note Name: D#5
Note OFF: Time 8160, Note Name: G4
Note OFF: Time 8160, Note Name: C5
Note ON: Time 8160, Note Name: A4, Velocity: 30
Note ON: Time 8160, Note Name: C5, Velocity: 35
Note OFF: Time 8400, Note Name: C5
Note OFF: Time 8400, Note Name: A4
Note ON: Time 8400, Note Name: A#5, Velocity: 50
Note OFF: Time 8520, Note Name: A#5
Note ON: Time 8520, Note Name: C6, Velocity: 45
Note OFF: Time 8640, Note Name: C6
Note ON: Time 8640, Note Name: D6, Velocity: 50
Note ON: Time 8880, Note Name: G5, Velocity: 39
Note OFF: Time 9120, Note Name: G5
Note OFF: Time 9120, Note Name: D6
Note ON: Time 9120, Note Name: A5, Velocity: 33
Note ON: Time 9120, Note Name: C6, Velocity: 39
Note OFF: Time 9360, Note Name: C6
Note OFF: Time 9360, Note Name: A5
Note ON: Time 9360, Note Name: C6, Velocity: 50
Note ON: Time 9360, Note Name: G#5, Velocity: 42
Note OFF: Time 9480, Note Name: C6
Note ON: Time 9480, Note Name: D6, Velocity: 46
Note OFF: Time 9600, Note Name: D6
Note OFF: Time 9600, Note Name: G#5
Note ON: Time 9600, Note Name: G5, Velocity: 46
Note ON: Time 9600, Note Name: D#6, Velocity: 55
Note OFF: Time 9840, Note Name: G5
Note ON: Time 9840, Note Name: A5, Velocity: 45
Note OFF: Time 10080, Note Name: A5
Note OFF: Time 10080, Note Name: D#6
Note ON: Time 10080, Note Name: D6, Velocity: 45
Note ON: Time 10080, Note Name: A#5, Velocity: 38
Note OFF: Time 10320, Note Name: A#5
Note OFF: Time 10320, Note Name: D6
Note ON: Time 10320, Note Name: G5, Velocity: 39
Note ON: Time 10320, Note Name: D6, Velocity: 51
Note OFF: Time 10440, Note Name: D6
Note ON: Time 10440, Note Name: D#6, Velocity: 55
Note OFF: Time 10560, Note Name: D#6
Note OFF: Time 10560, Note Name: G5
Note ON: Time 10560, Note Name: F6, Velocity: 59
Note ON: Time 10560, Note Name: F5, Velocity: 45
Note OFF: Time 10800, Note Name: F5
Note ON: Time 10800, Note Name: A#5, Velocity: 45
Note OFF: Time 10920, Note Name: F6
Note ON: Time 10920, Note Name: G6, Velocity: 57
Note OFF: Time 11040, Note Name: G6
Note OFF: Time 11040, Note Name: A#5
Note ON: Time 11040, Note Name: F6, Velocity: 55
Note ON: Time 11040, Note Name: G5, Velocity: 42
Note OFF: Time 11160, Note Name: F6
Note ON: Time 11160, Note Name: D#6, Velocity: 47
Note OFF: Time 11280, Note Name: G5
Note ON: Time 11280, Note Name: A5, Velocity: 43
Note OFF: Time 11400, Note Name: D#6
Note ON: Time 11400, Note Name: F6, Velocity: 50
Note OFF: Time 11520, Note Name: F6
Note OFF: Time 11520, Note Name: A5
Note ON: Time 11520, Note Name: D#6, Velocity: 57
Note ON: Time 11520, Note Name: F5, Velocity: 44
Note OFF: Time 11640, Note Name: D#6
Note ON: Time 11640, Note Name: D6, Velocity: 49
Note OFF: Time 11760, Note Name: F5
Note ON: Time 11760, Note Name: A#5, Velocity: 46
Note OFF: Time 11880, Note Name: D6
Note ON: Time 11880, Note Name: D#6, Velocity: 53
Note OFF: Time 12000, Note Name: D#6
Note ON: Time 12000, Note Name: D6, Velocity: 60
Note OFF: Time 12120, Note Name: D6
Note ON: Time 12120, Note Name: C6, Velocity: 49
Note OFF: Time 12240, Note Name: C6
Note OFF: Time 12240, Note Name: A#5
Note ON: Time 12240, Note Name: D6, Velocity: 55
Note ON: Time 12240, Note Name: A5, Velocity: 47
Note ON: Time 12240, Note Name: F5, Velocity: 47
Note OFF: Time 12360, Note Name: D6
Note ON: Time 12360, Note Name: D#6, Velocity: 51
Note OFF: Time 12480, Note Name: D#6
Note OFF: Time 12480, Note Name: F5
Note OFF: Time 12480, Note Name: A5
Note ON: Time 12480, Note Name: F5, Velocity: 52
Note ON: Time 12480, Note Name: G6, Velocity: 67
Note ON: Time 12480, Note Name: A#5, Velocity: 52
Note OFF: Time 12600, Note Name: G6
Note ON: Time 12600, Note Name: F6, Velocity: 53
Note OFF: Time 12720, Note Name: F6
Note OFF: Time 12720, Note Name: A#5
Note OFF: Time 12720, Note Name: F5
Note ON: Time 12720, Note Name: G6, Velocity: 58
Note ON: Time 12720, Note Name: A#5, Velocity: 41
Note OFF: Time 12840, Note Name: G6
Note ON: Time 12840, Note Name: F6, Velocity: 59
Note OFF: Time 12960, Note Name: F6
Note OFF: Time 12960, Note Name: A#5
Note ON: Time 12960, Note Name: F6, Velocity: 69
Note ON: Time 12960, Note Name: G5, Velocity: 53
Note OFF: Time 13080, Note Name: F6
Note ON: Time 13080, Note Name: D#6, Velocity: 55
Note OFF: Time 13200, Note Name: D#6
Note OFF: Time 13200, Note Name: G5
Note ON: Time 13200, Note Name: A5, Velocity: 43
Note ON: Time 13200, Note Name: F6, Velocity: 61
Note OFF: Time 13320, Note Name: F6
Note ON: Time 13320, Note Name: D#6, Velocity: 56
Note OFF: Time 13440, Note Name: D#6
Note OFF: Time 13440, Note Name: A5
Note ON: Time 13440, Note Name: D#6, Velocity: 74
Note ON: Time 13440, Note Name: F5, Velocity: 57
Note OFF: Time 13560, Note Name: D#6
Note ON: Time 13560, Note Name: D6, Velocity: 57
Note OFF: Time 13680, Note Name: D6
Note OFF: Time 13680, Note Name: F5
Note ON: Time 13680, Note Name: D#6, Velocity: 63
Note ON: Time 13680, Note Name: A#5, Velocity: 45
Note OFF: Time 13800, Note Name: D#6
Note ON: Time 13800, Note Name: D6, Velocity: 58
Note OFF: Time 13917, Note Name: D6
Note ON: Time 13920, Note Name: D6, Velocity: 75
Note OFF: Time 14040, Note Name: D6
Note ON: Time 14040, Note Name: C6, Velocity: 61
Note OFF: Time 14160, Note Name: C6
Note OFF: Time 14160, Note Name: A#5
Note ON: Time 14160, Note Name: D6, Velocity: 67
Note ON: Time 14160, Note Name: F5, Velocity: 47
Note ON: Time 14160, Note Name: A5, Velocity: 47
Note OFF: Time 14280, Note Name: D6
Note ON: Time 14280, Note Name: D#6, Velocity: 70
Note OFF: Time 14400, Note Name: D#6
Note OFF: Time 14400, Note Name: A5
Note OFF: Time 14400, Note Name: F5
Note ON: Time 14400, Note Name: G6, Velocity: 69
Note ON: Time 14400, Note Name: F5, Velocity: 58
Note ON: Time 14400, Note Name: A#5, Velocity: 58
Note OFF: Time 14520, Note Name: G6
Note ON: Time 14520, Note Name: F6, Velocity: 70
Note OFF: Time 14640, Note Name: F6
Note OFF: Time 14640, Note Name: A#5
Note OFF: Time 14640, Note Name: F5
Note ON: Time 14640, Note Name: A#5, Velocity: 60
Note ON: Time 14640, Note Name: E6, Velocity: 76
Note ON: Time 14760, Note Name: G6, Velocity: 72
Note OFF: Time 14880, Note Name: E6
Note OFF: Time 14880, Note Name: A#5
Note ON: Time 14880, Note Name: D#6, Velocity: 67
Note OFF: Time 15000, Note Name: G6
Note ON: Time 15000, Note Name: G#6, Velocity: 74
Note OFF: Time 15120, Note Name: D#6
Note ON: Time 15120, Note Name: C6, Velocity: 64
Note ON: Time 15120, Note Name: D#6, Velocity: 76
Note OFF: Time 15240, Note Name: G#6
Note ON: Time 15240, Note Name: A6, Velocity: 77
Note OFF: Time 15360, Note Name: A6
Note OFF: Time 15360, Note Name: D#6
Note OFF: Time 15360, Note Name: C6
Note ON: Time 15360, Note Name: A#5, Velocity: 73
Note ON: Time 15360, Note Name: C7, Velocity: 86
Note ON: Time 15360, Note Name: D6, Velocity: 73
Note OFF: Time 15480, Note Name: C7
Note ON: Time 15480, Note Name: A#6, Velocity: 72
Note OFF: Time 15600, Note Name: A#6
Note OFF: Time 15600, Note Name: D6
Note OFF: Time 15600, Note Name: A#5
Note ON: Time 15600, Note Name: A#5, Velocity: 71
Note ON: Time 15600, Note Name: A6, Velocity: 84
Note ON: Time 15600, Note Name: D#6, Velocity: 71
Note OFF: Time 15720, Note Name: A6
Note ON: Time 15720, Note Name: G6, Velocity: 74
Note OFF: Time 15840, Note Name: G6
Note OFF: Time 15840, Note Name: D#6
Note OFF: Time 15840, Note Name: A#5
Note ON: Time 15840, Note Name: F6, Velocity: 86
Note ON: Time 15840, Note Name: D6, Velocity: 72
Note ON: Time 15840, Note Name: A#5, Velocity: 72
Note OFF: Time 15960, Note Name: A#5
Note OFF: Time 15960, Note Name: D6
Note OFF: Time 15960, Note Name: F6
Note ON: Time 16080, Note Name: F6, Velocity: 80
Note ON: Time 16080, Note Name: A6, Velocity: 80
Note ON: Time 16080, Note Name: C6, Velocity: 67
Note ON: Time 16080, Note Name: A5, Velocity: 67
Note OFF: Time 16200, Note Name: A5
Note OFF: Time 16200, Note Name: F6
Note OFF: Time 16200, Note Name: A6
Note OFF: Time 16200, Note Name: C6
Note ON: Time 16320, Note Name: A#5, Velocity: 85
Note ON: Time 16320, Note Name: F6, Velocity: 85
Note ON: Time 16320, Note Name: D6, Velocity: 85
Note ON: Time 16320, Note Name: A#6, Velocity: 101
Note OFF: Time 16800, Note Name: A#6
Note OFF: Time 16800, Note Name: A#5
Note OFF: Time 16800, Note Name: F6
Note OFF: Time 16800, Note Name: D6
Note ON: Time 16800, Note Name: A#4, Velocity: 63
Note ON: Time 16800, Note Name: A#5, Velocity: 75
Note ON: Time 16800, Note Name: D5, Velocity: 63
Note OFF: Time 17280, Note Name: D5
Note OFF: Time 17280, Note Name: A#5
Note OFF: Time 17280, Note Name: A#4
Note ON: Time 17280, Note Name: F5, Velocity: 50
Note ON: Time 17280, Note Name: D6, Velocity: 59
Note ON: Time 17280, Note Name: D5, Velocity: 50
Note OFF: Time 17340, Note Name: D5
Note OFF: Time 17340, Note Name: D6
Note OFF: Time 17340, Note Name: F5
Note ON: Time 17520, Note Name: A#5, Velocity: 61
Note ON: Time 17520, Note Name: D5, Velocity: 51
Note ON: Time 17520, Note Name: A#4, Velocity: 51
Note OFF: Time 17580, Note Name: A#4
Note OFF: Time 17580, Note Name: D5
Note OFF: Time 17580, Note Name: A#5
Note ON: Time 17760, Note Name: D5, Velocity: 51
Note ON: Time 17760, Note Name: F5, Velocity: 51
Note ON: Time 17760, Note Name: D6, Velocity: 61
Note OFF: Time 17820, Note Name: D6
Note OFF: Time 17820, Note Name: F5
Note OFF: Time 17820, Note Name: D5
Note ON: Time 18000, Note Name: C5, Velocity: 51
Note ON: Time 18000, Note Name: D#5, Velocity: 51
Note ON: Time 18000, Note Name: C6, Velocity: 61
Note OFF: Time 18060, Note Name: C6
Note OFF: Time 18060, Note Name: D#5
Note OFF: Time 18060, Note Name: C5
Note ON: Time 18240, Note Name: D#6, Velocity: 116
Note ON: Time 18240, Note Name: G5, Velocity: 97
Note ON: Time 18240, Note Name: D#5, Velocity: 97
Note OFF: Time 18720, Note Name: D#5
Note OFF: Time 18720, Note Name: G5
Note OFF: Time 18720, Note Name: D#6
Note ON: Time 18720, Note Name: C6, Velocity: 75
Note ON: Time 18720, Note Name: D#5, Velocity: 63
Note ON: Time 18720, Note Name: C5, Velocity: 63
Note OFF: Time 19200, Note Name: C5
Note OFF: Time 19200, Note Name: D#5
Note OFF: Time 19200, Note Name: C6
Note ON: Time 19200, Note Name: D#6, Velocity: 59
Note ON: Time 19200, Note Name: D#5, Velocity: 50
Note ON: Time 19200, Note Name: G5, Velocity: 50
Note OFF: Time 19260, Note Name: G5
Note OFF: Time 19260, Note Name: D#5
Note OFF: Time 19260, Note Name: D#6
Note ON: Time 19440, Note Name: C#5, Velocity: 51
Note ON: Time 19440, Note Name: E5, Velocity: 51
Note ON: Time 19440, Note Name: C#6, Velocity: 61
Note OFF: Time 19500, Note Name: C#6
Note OFF: Time 19500, Note Name: E5
Note OFF: Time 19500, Note Name: C#5
Note ON: Time 19680, Note Name: F#5, Velocity: 51
Note ON: Time 19680, Note Name: D#6, Velocity: 61
Note ON: Time 19680, Note Name: D#5, Velocity: 51
Note OFF: Time 19740, Note Name: D#5
Note OFF: Time 19740, Note Name: D#6
Note OFF: Time 19740, Note Name: F#5
Note ON: Time 19920, Note Name: F5, Velocity: 51
Note ON: Time 19920, Note Name: D5, Velocity: 51
Note ON: Time 19920, Note Name: D6, Velocity: 61
Note OFF: Time 19980, Note Name: D6
Note OFF: Time 19980, Note Name: D5
Note OFF: Time 19980, Note Name: F5
Note ON: Time 20160, Note Name: F6, Velocity: 111
Note ON: Time 20160, Note Name: G#5, Velocity: 93
Note ON: Time 20160, Note Name: F5, Velocity: 93
Note OFF: Time 20640, Note Name: F5
Note OFF: Time 20640, Note Name: G#5
Note OFF: Time 20640, Note Name: F6
Note ON: Time 20640, Note Name: D6, Velocity: 75
Note ON: Time 20640, Note Name: D5, Velocity: 63
Note ON: Time 20640, Note Name: F5, Velocity: 63
Note OFF: Time 21120, Note Name: F5
Note OFF: Time 21120, Note Name: D5
Note OFF: Time 21120, Note Name: D6
Note ON: Time 21120, Note Name: G#5, Velocity: 50
Note ON: Time 21120, Note Name: F5, Velocity: 50
Note ON: Time 21120, Note Name: F6, Velocity: 59
Note OFF: Time 21180, Note Name: F6
Note OFF: Time 21180, Note Name: F5
Note OFF: Time 21180, Note Name: G#5
Note ON: Time 21360, Note Name: D5, Velocity: 51
Note ON: Time 21360, Note Name: F#5, Velocity: 51
Note ON: Time 21360, Note Name: D6, Velocity: 61
Note OFF: Time 21420, Note Name: D6
Note OFF: Time 21420, Note Name: F#5
Note OFF: Time 21420, Note Name: D5
Note ON: Time 21600, Note Name: G#5, Velocity: 51
Note ON: Time 21600, Note Name: F6, Velocity: 61
Note ON: Time 21600, Note Name: F5, Velocity: 51
Note OFF: Time 21660, Note Name: F5
Note OFF: Time 21660, Note Name: F6
Note OFF: Time 21660, Note Name: G#5
Note ON: Time 21840, Note Name: G5, Velocity: 51
Note ON: Time 21840, Note Name: D#5, Velocity: 51
Note ON: Time 21840, Note Name: D#6, Velocity: 61
Note OFF: Time 21900, Note Name: D#6
Note OFF: Time 21900, Note Name: D#5
Note OFF: Time 21900, Note Name: G5
Note ON: Time 22080, Note Name: G6, Velocity: 111
Note ON: Time 22080, Note Name: G5, Velocity: 93
Note ON: Time 22080, Note Name: A#5, Velocity: 93
Note OFF: Time 22560, Note Name: A#5
Note OFF: Time 22560, Note Name: G5
Note OFF: Time 22560, Note Name: G6
Note ON: Time 22560, Note Name: D#6, Velocity: 75
Note ON: Time 22560, Note Name: G5, Velocity: 63
Note ON: Time 22560, Note Name: D#5, Velocity: 63
Note ON: Time 22560, Note Name: A#5, Velocity: 63
Note OFF: Time 23040, Note Name: A#5
Note OFF: Time 23040, Note Name: D#6
Note OFF: Time 23040, Note Name: G5
Note OFF: Time 23040, Note Name: D#5
Note ON: Time 23040, Note Name: G5, Velocity: 50
Note ON: Time 23040, Note Name: G6, Velocity: 59
Note ON: Time 23040, Note Name: A#5, Velocity: 50
Note OFF: Time 23100, Note Name: A#5
Note OFF: Time 23100, Note Name: G6
Note OFF: Time 23100, Note Name: G5
Note ON: Time 23280, Note Name: E5, Velocity: 51
Note ON: Time 23280, Note Name: A#5, Velocity: 51
Note ON: Time 23280, Note Name: E6, Velocity: 61
Note OFF: Time 23340, Note Name: E6
Note OFF: Time 23340, Note Name: A#5
Note OFF: Time 23340, Note Name: E5
Note ON: Time 23520, Note Name: A#5, Velocity: 56
Note ON: Time 23520, Note Name: F#5, Velocity: 56
Note ON: Time 23520, Note Name: F#6, Velocity: 67
Note OFF: Time 23580, Note Name: F#6
Note OFF: Time 23580, Note Name: F#5
Note OFF: Time 23580, Note Name: A#5
Note ON: Time 23760, Note Name: F6, Velocity: 69
Note ON: Time 23760, Note Name: A#5, Velocity: 58
Note ON: Time 23760, Note Name: F5, Velocity: 58
Note OFF: Time 23820, Note Name: F5
Note OFF: Time 23820, Note Name: A#5
Note OFF: Time 23820, Note Name: F6
Note ON: Time 24000, Note Name: G#6, Velocity: 69
Note ON: Time 24000, Note Name: A#5, Velocity: 59
Note ON: Time 24000, Note Name: G#5, Velocity: 59
Note OFF: Time 24060, Note Name: G#5
Note OFF: Time 24060, Note Name: A#5
Note OFF: Time 24060, Note Name: G#6
Note ON: Time 24240, Note Name: F#5, Velocity: 62
Note ON: Time 24240, Note Name: F#6, Velocity: 74
Note ON: Time 24240, Note Name: A#5, Velocity: 62
Note OFF: Time 24300, Note Name: A#5
Note OFF: Time 24300, Note Name: F#6
Note OFF: Time 24300, Note Name: F#5
Note ON: Time 24480, Note Name: G#6, Velocity: 76
Note ON: Time 24480, Note Name: A#5, Velocity: 64
Note ON: Time 24480, Note Name: G#5, Velocity: 64
Note OFF: Time 24540, Note Name: G#5
Note OFF: Time 24540, Note Name: A#5
Note OFF: Time 24540, Note Name: G#6
Note ON: Time 24720, Note Name: A#5, Velocity: 66
Note ON: Time 24720, Note Name: G6, Velocity: 79
Note ON: Time 24720, Note Name: G5, Velocity: 66
Note OFF: Time 24780, Note Name: G5
Note OFF: Time 24780, Note Name: G6
Note OFF: Time 24780, Note Name: A#5
Note ON: Time 24960, Note Name: A#5, Velocity: 67
Note ON: Time 24960, Note Name: D#6, Velocity: 67
Note ON: Time 24960, Note Name: A#6, Velocity: 79
Note ON: Time 24960, Note Name: G6, Velocity: 67
Note OFF: Time 25020, Note Name: G6
Note OFF: Time 25020, Note Name: A#5
Note OFF: Time 25020, Note Name: D#6
Note OFF: Time 25020, Note Name: A#6
Note ON: Time 25200, Note Name: G#5, Velocity: 70
Note ON: Time 25200, Note Name: G#6, Velocity: 84
Note OFF: Time 25260, Note Name: G#6
Note OFF: Time 25260, Note Name: G#5
Note ON: Time 25440, Note Name: A#5, Velocity: 72
Note ON: Time 25440, Note Name: A#6, Velocity: 86
Note OFF: Time 25500, Note Name: A#6
Note OFF: Time 25500, Note Name: A#5
Note ON: Time 25680, Note Name: A6, Velocity: 89
Note ON: Time 25680, Note Name: A5, Velocity: 74
Note OFF: Time 25740, Note Name: A5
Note OFF: Time 25740, Note Name: A6
Note ON: Time 25920, Note Name: C6, Velocity: 84
Note ON: Time 25920, Note Name: C7, Velocity: 99
Note OFF: Time 26040, Note Name: C7
Note OFF: Time 26040, Note Name: C6
Note ON: Time 26160, Note Name: A#5, Velocity: 74
Note ON: Time 26160, Note Name: A#6, Velocity: 88
Note OFF: Time 26280, Note Name: A#6
Note OFF: Time 26280, Note Name: A#5
Note ON: Time 26400, Note Name: G5, Velocity: 82
Note ON: Time 26400, Note Name: G6, Velocity: 97
Note OFF: Time 26520, Note Name: G6
Note OFF: Time 26520, Note Name: G5
Note ON: Time 26640, Note Name: F6, Velocity: 90
Note ON: Time 26640, Note Name: F5, Velocity: 76
Note OFF: Time 26760, Note Name: F5
Note OFF: Time 26760, Note Name: F6
Note ON: Time 26880, Note Name: D#6, Velocity: 97
Note ON: Time 26880, Note Name: D#5, Velocity: 85
Note OFF: Time 27000, Note Name: D#5
Note OFF: Time 27000, Note Name: D#6
Note ON: Time 27120, Note Name: D6, Velocity: 82
Note ON: Time 27120, Note Name: D5, Velocity: 69
Note OFF: Time 27240, Note Name: D5
Note OFF: Time 27240, Note Name: D6
Note ON: Time 27360, Note Name: C6, Velocity: 87
Note ON: Time 27360, Note Name: C5, Velocity: 73
Note OFF: Time 27480, Note Name: C5
Note OFF: Time 27480, Note Name: C6
Note ON: Time 27600, Note Name: A#4, Velocity: 68
Note ON: Time 27600, Note Name: A#5, Velocity: 81
Note OFF: Time 27720, Note Name: A#5
Note OFF: Time 27720, Note Name: A#4
Note ON: Time 27840, Note Name: G4, Velocity: 75
Note ON: Time 27840, Note Name: G5, Velocity: 89
Note OFF: Time 27960, Note Name: G5
Note OFF: Time 27960, Note Name: G4
Note ON: Time 28080, Note Name: F4, Velocity: 66
Note ON: Time 28080, Note Name: F5, Velocity: 79
Note OFF: Time 28200, Note Name: F5
Note OFF: Time 28200, Note Name: F4
Note ON: Time 28320, Note Name: D#5, Velocity: 82
Note ON: Time 28320, Note Name: D#4, Velocity: 69
Note OFF: Time 28440, Note Name: D#4
Note OFF: Time 28440, Note Name: D#5
Note ON: Time 28560, Note Name: D4, Velocity: 64
Note ON: Time 28560, Note Name: D5, Velocity: 76
Note OFF: Time 28680, Note Name: D5
Note OFF: Time 28680, Note Name: D4
Note ON: Time 28800, Note Name: C5, Velocity: 80
Note ON: Time 28800, Note Name: C4, Velocity: 67
Note OFF: Time 28920, Note Name: C4
Note OFF: Time 28920, Note Name: C5
Note ON: Time 29040, Note Name: A#4, Velocity: 71
Note ON: Time 29040, Note Name: A#3, Velocity: 59
Note OFF: Time 29160, Note Name: A#3
Note OFF: Time 29160, Note Name: A#4
Note ON: Time 29280, Note Name: G4, Velocity: 78
Note ON: Time 29280, Note Name: G3, Velocity: 65
Note OFF: Time 29400, Note Name: G3
Note OFF: Time 29400, Note Name: G4
Note ON: Time 29520, Note Name: F4, Velocity: 72
Note ON: Time 29520, Note Name: F3, Velocity: 61
Note OFF: Time 29640, Note Name: F3
Note OFF: Time 29640, Note Name: F4
Note ON: Time 29760, Note Name: A4, Velocity: 77
Note OFF: Time 30000, Note Name: A4
Note ON: Time 30000, Note Name: F4, Velocity: 67
Note OFF: Time 30240, Note Name: F4
Note ON: Time 30240, Note Name: C5, Velocity: 73
Note OFF: Time 30480, Note Name: C5
Note ON: Time 30480, Note Name: F4, Velocity: 67
Note OFF: Time 30720, Note Name: F4
Note ON: Time 30720, Note Name: F5, Velocity: 71
Note OFF: Time 30960, Note Name: F5
Note ON: Time 30960, Note Name: F4, Velocity: 59
Note OFF: Time 31200, Note Name: F4
Note ON: Time 31200, Note Name: A5, Velocity: 68
Note OFF: Time 31440, Note Name: A5
Note ON: Time 31440, Note Name: F4, Velocity: 56
Note OFF: Time 31680, Note Name: F4
Note ON: Time 31680, Note Name: C6, Velocity: 62
Note OFF: Time 31920, Note Name: C6
Note ON: Time 31920, Note Name: F4, Velocity: 49
Note OFF: Time 32160, Note Name: F4
Note ON: Time 32160, Note Name: F6, Velocity: 54
Note OFF: Time 32400, Note Name: F6
Note ON: Time 32400, Note Name: F4, Velocity: 45
Note OFF: Time 32640, Note Name: F4
Note ON: Time 32640, Note Name: F6, Velocity: 52
Note OFF: Time 32880, Note Name: F6
Note ON: Time 32880, Note Name: F4, Velocity: 41
Note OFF: Time 33120, Note Name: F4
Note ON: Time 33120, Note Name: F6, Velocity: 48
Note OFF: Time 33360, Note Name: F6
Note ON: Time 33960, Note Name: A#5, Velocity: 77
Note ON: Time 33960, Note Name: D6, Velocity: 92
Note ON: Time 33960, Note Name: D5, Velocity: 77
Note ON: Time 33960, Note Name: F5, Velocity: 77
Note OFF: Time 34080, Note Name: F5
Note OFF: Time 34080, Note Name: A#5
Note OFF: Time 34080, Note Name: D6
Note OFF: Time 34080, Note Name: D5
Note ON: Time 34080, Note Name: D5, Velocity: 69
Note ON: Time 34080, Note Name: F5, Velocity: 69
Note ON: Time 34080, Note Name: D6, Velocity: 82
Note ON: Time 34080, Note Name: A#5, Velocity: 69
Note OFF: Time 34320, Note Name: A#5
Note OFF: Time 34320, Note Name: D5
Note OFF: Time 34320, Note Name: F5
Note OFF: Time 34320, Note Name: D6
Note ON: Time 34320, Note Name: D5, Velocity: 70
Note ON: Time 34320, Note Name: A#5, Velocity: 70
Note ON: Time 34320, Note Name: F5, Velocity: 70
Note ON: Time 34320, Note Name: D#6, Velocity: 89
Note OFF: Time 34365, Note Name: D#6
Note OFF: Time 34365, Note Name: D5
Note OFF: Time 34365, Note Name: A#5
Note OFF: Time 34365, Note Name: F5
Note ON: Time 34440, Note Name: F5, Velocity: 72
Note ON: Time 34440, Note Name: D5, Velocity: 72
Note ON: Time 34440, Note Name: D6, Velocity: 85
Note ON: Time 34440, Note Name: A#5, Velocity: 72
Note OFF: Time 34485, Note Name: A#5
Note OFF: Time 34485, Note Name: F5
Note OFF: Time 34485, Note Name: D5
Note OFF: Time 34485, Note Name: D6
Note ON: Time 34560, Note Name: D6, Velocity: 92
Note ON: Time 34560, Note Name: A#5, Velocity: 77
Note ON: Time 34560, Note Name: F5, Velocity: 77
Note ON: Time 34560, Note Name: D5, Velocity: 77
Note OFF: Time 34680, Note Name: D5
Note OFF: Time 34680, Note Name: D6
Note OFF: Time 34680, Note Name: A#5
Note OFF: Time 34680, Note Name: F5
Note ON: Time 34800, Note Name: A#4, Velocity: 70
Note ON: Time 34800, Note Name: A#5, Velocity: 84
Note ON: Time 34800, Note Name: F5, Velocity: 70
Note ON: Time 34800, Note Name: D5, Velocity: 70
Note OFF: Time 34920, Note Name: D5
Note OFF: Time 34920, Note Name: A#4
Note OFF: Time 34920, Note Name: A#5
Note OFF: Time 34920, Note Name: F5
Note ON: Time 35880, Note Name: A#5, Velocity: 77
Note ON: Time 35880, Note Name: F5, Velocity: 77
Note ON: Time 35880, Note Name: D6, Velocity: 92
Note ON: Time 35887, Note Name: D5, Velocity: 77
Note OFF: Time 36000, Note Name: D6
Note OFF: Time 36000, Note Name: A#5
Note OFF: Time 36000, Note Name: F5
Note ON: Time 36000, Note Name: D5, Velocity: 82
Note ON: Time 36000, Note Name: D6, Velocity: 99
Note OFF: Time 36007, Note Name: D5
Note OFF: Time 36240, Note Name: D6
Note OFF: Time 36240, Note Name: D5
Note ON: Time 36240, Note Name: F#5, Velocity: 70
Note ON: Time 36240, Note Name: D5, Velocity: 70
Note ON: Time 36240, Note Name: A5, Velocity: 70
Note ON: Time 36240, Note Name: D6, Velocity: 84
Note OFF: Time 36285, Note Name: D6
Note OFF: Time 36285, Note Name: F#5
Note OFF: Time 36285, Note Name: D5
Note OFF: Time 36285, Note Name: A5
Note ON: Time 36360, Note Name: D6, Velocity: 85
Note ON: Time 36360, Note Name: F#5, Velocity: 70
Note ON: Time 36360, Note Name: D5, Velocity: 72
Note ON: Time 36360, Note Name: A5, Velocity: 72
Note OFF: Time 36405, Note Name: A5
Note OFF: Time 36405, Note Name: D6
Note OFF: Time 36405, Note Name: F#5
Note OFF: Time 36405, Note Name: D5
Note ON: Time 36480, Note Name: A5, Velocity: 77
Note ON: Time 36480, Note Name: D5, Velocity: 77
Note ON: Time 36480, Note Name: D6, Velocity: 92
Note ON: Time 36480, Note Name: F#5, Velocity: 77
Note OFF: Time 36600, Note Name: F#5
Note OFF: Time 36600, Note Name: A5
Note OFF: Time 36600, Note Name: D5
Note OFF: Time 36600, Note Name: D6
Note ON: Time 36720, Note Name: A5, Velocity: 70
Note ON: Time 36720, Note Name: F#5, Velocity: 70
Note ON: Time 36720, Note Name: D5, Velocity: 70
Note ON: Time 36720, Note Name: D6, Velocity: 84
Note OFF: Time 36840, Note Name: D6
Note OFF: Time 36840, Note Name: A5
Note OFF: Time 36840, Note Name: F#5
Note OFF: Time 36840, Note Name: D5
Note ON: Time 37680, Note Name: F#4, Velocity: 33
Note ON: Time 37680, Note Name: D5, Velocity: 39
Note ON: Time 37680, Note Name: A4, Velocity: 33
Note OFF: Time 37800, Note Name: A4
Note OFF: Time 37800, Note Name: D5
Note OFF: Time 37800, Note Name: F#4
Note ON: Time 38160, Note Name: D5, Velocity: 42
Note ON: Time 38160, Note Name: A4, Velocity: 35
Note ON: Time 38160, Note Name: F#4, Velocity: 35
Note OFF: Time 38280, Note Name: F#4
Note OFF: Time 38280, Note Name: A4
Note OFF: Time 38280, Note Name: D5
Note ON: Time 38640, Note Name: A4, Velocity: 37
Note ON: Time 38640, Note Name: D5, Velocity: 44
Note ON: Time 38640, Note Name: F#4, Velocity: 37
Note OFF: Time 38760, Note Name: F#4
Note OFF: Time 38760, Note Name: D5
Note OFF: Time 38760, Note Name: A4
Note ON: Time 39120, Note Name: F#4, Velocity: 39
Note ON: Time 39120, Note Name: A4, Velocity: 39
Note ON: Time 39120, Note Name: D5, Velocity: 46
Note OFF: Time 39240, Note Name: D5
Note OFF: Time 39240, Note Name: A4
Note OFF: Time 39240, Note Name: F#4
Note ON: Time 39600, Note Name: D5, Velocity: 41
Note ON: Time 39600, Note Name: C5, Velocity: 41
Note ON: Time 39600, Note Name: F#5, Velocity: 49
Note ON: Time 39600, Note Name: A4, Velocity: 41
Note OFF: Time 39720, Note Name: A4
Note OFF: Time 39720, Note Name: D5
Note OFF: Time 39720, Note Name: C5
Note OFF: Time 39720, Note Name: F#5
Note ON: Time 40080, Note Name: A4, Velocity: 43
Note ON: Time 40080, Note Name: D5, Velocity: 43
Note ON: Time 40080, Note Name: F#5, Velocity: 51
Note ON: Time 40080, Note Name: C5, Velocity: 43
Note OFF: Time 40200, Note Name: C5
Note OFF: Time 40200, Note Name: A4
Note OFF: Time 40200, Note Name: D5
Note OFF: Time 40200, Note Name: F#5
Note ON: Time 40560, Note Name: A5, Velocity: 60
Note ON: Time 40560, Note Name: F#5, Velocity: 50
Note ON: Time 40560, Note Name: C5, Velocity: 50
Note ON: Time 40560, Note Name: A4, Velocity: 50
Note OFF: Time 40680, Note Name: A4
Note OFF: Time 40680, Note Name: A5
Note OFF: Time 40680, Note Name: F#5
Note OFF: Time 40680, Note Name: C5
Note ON: Time 41040, Note Name: C6, Velocity: 68
Note ON: Time 41040, Note Name: F#5, Velocity: 57
Note ON: Time 41040, Note Name: C5, Velocity: 57
Note ON: Time 41040, Note Name: A5, Velocity: 57
Note OFF: Time 41160, Note Name: A5
Note OFF: Time 41160, Note Name: C6
Note OFF: Time 41160, Note Name: F#5
Note OFF: Time 41160, Note Name: C5
Note ON: Time 41520, Note Name: F#5, Velocity: 64
Note ON: Time 41520, Note Name: C6, Velocity: 64
Note ON: Time 41520, Note Name: F#6, Velocity: 75
Note ON: Time 41520, Note Name: A5, Velocity: 64
Note OFF: Time 41640, Note Name: A5
Note OFF: Time 41640, Note Name: F#5
Note OFF: Time 41640, Note Name: C6
Note OFF: Time 41640, Note Name: F#6
Note ON: Time 42000, Note Name: A6, Velocity: 79
Note ON: Time 42000, Note Name: C6, Velocity: 66
Note ON: Time 42000, Note Name: A5, Velocity: 66
Note OFF: Time 42120, Note Name: A5
Note OFF: Time 42120, Note Name: C6
Note OFF: Time 42120, Note Name: A6
Note ON: Time 42480, Note Name: C6, Velocity: 69
Note ON: Time 42480, Note Name: A6, Velocity: 69
Note ON: Time 42480, Note Name: C7, Velocity: 82
Note OFF: Time 42600, Note Name: C7
Note OFF: Time 42600, Note Name: A6
Note OFF: Time 42600, Note Name: C6
Note ON: Time 42960, Note Name: C7, Velocity: 85
Note ON: Time 42960, Note Name: F#6, Velocity: 71
Note ON: Time 42960, Note Name: C6, Velocity: 71
Note ON: Time 42960, Note Name: A6, Velocity: 71
Note OFF: Time 43080, Note Name: A6
Note OFF: Time 43080, Note Name: C7
Note OFF: Time 43080, Note Name: F#6
Note OFF: Time 43080, Note Name: C6
Note ON: Time 43200, Note Name: A6, Velocity: 71
Note ON: Time 43200, Note Name: C7, Velocity: 85
Note ON: Time 43200, Note Name: C6, Velocity: 71
Note ON: Time 43200, Note Name: F#6, Velocity: 71
Note OFF: Time 43320, Note Name: F#6
Note OFF: Time 43320, Note Name: A6
Note OFF: Time 43320, Note Name: C7
Note OFF: Time 43320, Note Name: C6
Note ON: Time 43440, Note Name: C6, Velocity: 57
Note ON: Time 43440, Note Name: A5, Velocity: 57
Note OFF: Time 43560, Note Name: A5
Note OFF: Time 43560, Note Name: C6
Note ON: Time 43560, Note Name: B5, Velocity: 57
Note ON: Time 43560, Note Name: G#5, Velocity: 57
Note OFF: Time 43680, Note Name: G#5
Note OFF: Time 43680, Note Name: B5
Note ON: Time 43680, Note Name: C6, Velocity: 63
Note ON: Time 43680, Note Name: A5, Velocity: 63
Note OFF: Time 43920, Note Name: A5
Note OFF: Time 43920, Note Name: C6
Note ON: Time 43920, Note Name: F#4, Velocity: 52
Note ON: Time 43920, Note Name: A4, Velocity: 52
Note OFF: Time 44040, Note Name: A4
Note OFF: Time 44040, Note Name: F#4
Note ON: Time 44040, Note Name: A#4, Velocity: 52
Note ON: Time 44040, Note Name: G4, Velocity: 52
Note OFF: Time 44160, Note Name: G4
Note OFF: Time 44160, Note Name: A#4
Note ON: Time 44160, Note Name: A4, Velocity: 58
Note ON: Time 44160, Note Name: F#4, Velocity: 58
Note OFF: Time 44400, Note Name: F#4
Note OFF: Time 44400, Note Name: A4
Note ON: Time 44400, Note Name: A5, Velocity: 47
Note ON: Time 44400, Note Name: C6, Velocity: 47
Note OFF: Time 44520, Note Name: C6
Note OFF: Time 44520, Note Name: A5
Note ON: Time 44520, Note Name: B5, Velocity: 47
Note ON: Time 44520, Note Name: G#5, Velocity: 47
Note OFF: Time 44640, Note Name: G#5
Note OFF: Time 44640, Note Name: B5
Note ON: Time 44640, Note Name: C6, Velocity: 56
Note ON: Time 44640, Note Name: A5, Velocity: 56
Note OFF: Time 44880, Note Name: A5
Note OFF: Time 44880, Note Name: C6
Note ON: Time 44880, Note Name: F#6, Velocity: 47
Note OFF: Time 45000, Note Name: F#6
Note ON: Time 45000, Note Name: A6, Velocity: 47
Note OFF: Time 45120, Note Name: A6
Note ON: Time 45120, Note Name: C7, Velocity: 57
Note OFF: Time 45240, Note Name: C7
Note ON: Time 45240, Note Name: D7, Velocity: 48
Note OFF: Time 45360, Note Name: D7
Note ON: Time 45360, Note Name: C7, Velocity: 49
Note OFF: Time 45480, Note Name: C7
Note ON: Time 45480, Note Name: B6, Velocity: 50
Note OFF: Time 45600, Note Name: B6
Note ON: Time 45600, Note Name: C7, Velocity: 65
Note OFF: Time 45720, Note Name: C7
Note ON: Time 45720, Note Name: D7, Velocity: 57
Note OFF: Time 45840, Note Name: D7
Note ON: Time 45840, Note Name: E7, Velocity: 66
Note OFF: Time 45960, Note Name: E7
Note ON: Time 45960, Note Name: C7, Velocity: 58
Note OFF: Time 46080, Note Name: C7
Note ON: Time 46080, Note Name: A6, Velocity: 69
Note OFF: Time 46200, Note Name: A6
Note ON: Time 46200, Note Name: B6, Velocity: 56
Note OFF: Time 46320, Note Name: B6
Note ON: Time 46320, Note Name: C7, Velocity: 66
Note OFF: Time 46440, Note Name: C7
Note ON: Time 46440, Note Name: A6, Velocity: 54
Note OFF: Time 46560, Note Name: A6
Note ON: Time 46560, Note Name: F#6, Velocity: 66
Note OFF: Time 46680, Note Name: F#6
Note ON: Time 46680, Note Name: G6, Velocity: 53
Note OFF: Time 46800, Note Name: G6
Note ON: Time 46800, Note Name: A6, Velocity: 61
Note OFF: Time 46920, Note Name: A6
Note ON: Time 46920, Note Name: F#6, Velocity: 53
Note OFF: Time 47040, Note Name: F#6
Note ON: Time 47040, Note Name: C6, Velocity: 47
Note OFF: Time 47160, Note Name: C6
Note ON: Time 47160, Note Name: D6, Velocity: 47
Note OFF: Time 47280, Note Name: D6
Note ON: Time 47280, Note Name: E6, Velocity: 58
Note OFF: Time 47400, Note Name: E6
Note ON: Time 47400, Note Name: C6, Velocity: 47
Note OFF: Time 47520, Note Name: C6
Note ON: Time 47520, Note Name: A5, Velocity: 47
Note OFF: Time 47640, Note Name: A5
Note ON: Time 47640, Note Name: B5, Velocity: 47
Note OFF: Time 47760, Note Name: B5
Note ON: Time 47760, Note Name: C6, Velocity: 53
Note OFF: Time 47880, Note Name: C6
Note ON: Time 47880, Note Name: A5, Velocity: 47
Note OFF: Time 48000, Note Name: A5
Note ON: Time 48000, Note Name: F#5, Velocity: 47
Note OFF: Time 48120, Note Name: F#5
Note ON: Time 48120, Note Name: G5, Velocity: 47
Note OFF: Time 48240, Note Name: G5
Note ON: Time 48240, Note Name: A5, Velocity: 52
Note OFF: Time 48360, Note Name: A5
Note ON: Time 48360, Note Name: F#5, Velocity: 47
Note OFF: Time 48480, Note Name: F#5
Note ON: Time 48480, Note Name: D5, Velocity: 47
Note ON: Time 48480, Note Name: C5, Velocity: 47
Note ON: Time 48480, Note Name: A4, Velocity: 47
Note OFF: Time 48720, Note Name: A4
Note OFF: Time 48720, Note Name: C5
Note OFF: Time 48720, Note Name: D5
Note ON: Time 48960, Note Name: B6, Velocity: 57
Note OFF: Time 49080, Note Name: B6
Note ON: Time 49080, Note Name: C7, Velocity: 48
Note OFF: Time 49200, Note Name: C7
Note ON: Time 49200, Note Name: B6, Velocity: 49
Note OFF: Time 49320, Note Name: B6
Note ON: Time 49320, Note Name: A6, Velocity: 50
Note OFF: Time 49440, Note Name: A6
Note ON: Time 49440, Note Name: B6, Velocity: 65
Note OFF: Time 49560, Note Name: B6
Note ON: Time 49560, Note Name: C7, Velocity: 57
Note OFF: Time 49680, Note Name: C7
Note ON: Time 49680, Note Name: D7, Velocity: 66
Note OFF: Time 49800, Note Name: D7
Note ON: Time 49800, Note Name: B6, Velocity: 58
Note OFF: Time 49920, Note Name: B6
Note ON: Time 49920, Note Name: G6, Velocity: 69
Note OFF: Time 50040, Note Name: G6
Note ON: Time 50040, Note Name: A6, Velocity: 56
Note OFF: Time 50160, Note Name: A6
Note ON: Time 50160, Note Name: B6, Velocity: 66
Note OFF: Time 50280, Note Name: B6
Note ON: Time 50280, Note Name: G6, Velocity: 54
Note OFF: Time 50400, Note Name: G6
Note ON: Time 50400, Note Name: D6, Velocity: 66
Note OFF: Time 50520, Note Name: D6
Note ON: Time 50520, Note Name: F#6, Velocity: 53
Note OFF: Time 50640, Note Name: F#6
Note ON: Time 50640, Note Name: G6, Velocity: 61
Note OFF: Time 50760, Note Name: G6
Note ON: Time 50760, Note Name: D6, Velocity: 53
Note OFF: Time 50880, Note Name: D6
Note ON: Time 50880, Note Name: B5, Velocity: 47
Note OFF: Time 51000, Note Name: B5
Note ON: Time 51000, Note Name: C6, Velocity: 47
Note OFF: Time 51120, Note Name: C6
Note ON: Time 51120, Note Name: D6, Velocity: 58
Note OFF: Time 51240, Note Name: D6
Note ON: Time 51240, Note Name: B5, Velocity: 47
Note OFF: Time 51360, Note Name: B5
Note ON: Time 51360, Note Name: G5, Velocity: 47
Note OFF: Time 51480, Note Name: G5
Note ON: Time 51480, Note Name: A5, Velocity: 47
Note OFF: Time 51600, Note Name: A5
Note ON: Time 51600, Note Name: B5, Velocity: 53
Note OFF: Time 51720, Note Name: B5
Note ON: Time 51720, Note Name: G5, Velocity: 47
Note OFF: Time 51840, Note Name: G5
Note ON: Time 51840, Note Name: D5, Velocity: 47
Note OFF: Time 51960, Note Name: D5
Note ON: Time 51960, Note Name: F#5, Velocity: 47
Note OFF: Time 52080, Note Name: F#5
Note ON: Time 52080, Note Name: G5, Velocity: 52
Note OFF: Time 52200, Note Name: G5
Note ON: Time 52200, Note Name: B4, Velocity: 47
Note OFF: Time 52318, Note Name: B4
Note ON: Time 52320, Note Name: G4, Velocity: 40
Note OFF: Time 52440, Note Name: G4
Note ON: Time 52440, Note Name: A4, Velocity: 40
Note OFF: Time 52560, Note Name: A4
Note ON: Time 52560, Note Name: B4, Velocity: 45
Note OFF: Time 52678, Note Name: B4
Note ON: Time 52680, Note Name: G4, Velocity: 40
Note OFF: Time 52800, Note Name: G4
Note ON: Time 52800, Note Name: D4, Velocity: 40
Note ON: Time 52800, Note Name: A4, Velocity: 46
Note ON: Time 52800, Note Name: F#4, Velocity: 40
Note OFF: Time 53040, Note Name: F#4
Note OFF: Time 53040, Note Name: A4
Note OFF: Time 53040, Note Name: D4
Note ON: Time 53040, Note Name: E6, Velocity: 52
Note OFF: Time 53160, Note Name: E6
Note ON: Time 53160, Note Name: D6, Velocity: 47
Note OFF: Time 53280, Note Name: D6
Note ON: Time 53280, Note Name: E6, Velocity: 40
Note OFF: Time 53400, Note Name: E6
Note ON: Time 53400, Note Name: D6, Velocity: 40
Note OFF: Time 53520, Note Name: D6
Note ON: Time 53520, Note Name: C6, Velocity: 45
Note OFF: Time 53640, Note Name: C6
Note ON: Time 53640, Note Name: E6, Velocity: 40
Note OFF: Time 53760, Note Name: E6
Note ON: Time 53760, Note Name: C6, Velocity: 52
Note OFF: Time 53880, Note Name: C6
Note ON: Time 53880, Note Name: B5, Velocity: 42
Note OFF: Time 54000, Note Name: B5
Note ON: Time 54000, Note Name: A5, Velocity: 49
Note OFF: Time 54120, Note Name: A5
Note ON: Time 54120, Note Name: C6, Velocity: 43
Note OFF: Time 54240, Note Name: C6
Note ON: Time 54240, Note Name: A5, Velocity: 48
Note OFF: Time 54360, Note Name: A5
Note ON: Time 54360, Note Name: G5, Velocity: 40
Note OFF: Time 54480, Note Name: G5
Note ON: Time 54480, Note Name: F#5, Velocity: 45
Note OFF: Time 54600, Note Name: F#5
Note ON: Time 54600, Note Name: A5, Velocity: 40
Note OFF: Time 54720, Note Name: A5
Note ON: Time 54720, Note Name: E5, Velocity: 52
Note OFF: Time 54840, Note Name: E5
Note ON: Time 54840, Note Name: D5, Velocity: 42
Note OFF: Time 54960, Note Name: D5
Note ON: Time 54960, Note Name: C5, Velocity: 49
Note OFF: Time 55080, Note Name: C5
Note ON: Time 55080, Note Name: E5, Velocity: 43
Note OFF: Time 55200, Note Name: E5
Note ON: Time 55200, Note Name: C5, Velocity: 48
Note OFF: Time 55320, Note Name: C5
Note ON: Time 55320, Note Name: B4, Velocity: 40
Note OFF: Time 55440, Note Name: B4
Note ON: Time 55440, Note Name: A4, Velocity: 45
Note OFF: Time 55560, Note Name: A4
Note ON: Time 55560, Note Name: C5, Velocity: 40
Note OFF: Time 55680, Note Name: C5
Note ON: Time 55680, Note Name: A4, Velocity: 52
Note OFF: Time 55800, Note Name: A4
Note ON: Time 55800, Note Name: G4, Velocity: 42
Note OFF: Time 55920, Note Name: G4
Note ON: Time 55920, Note Name: F#4, Velocity: 49
Note OFF: Time 56040, Note Name: F#4
Note ON: Time 56040, Note Name: A4, Velocity: 43
Note OFF: Time 56160, Note Name: A4
Note ON: Time 56160, Note Name: C5, Velocity: 48
Note OFF: Time 56280, Note Name: C5
Note ON: Time 56280, Note Name: B4, Velocity: 40
Note OFF: Time 56400, Note Name: B4
Note ON: Time 56400, Note Name: A4, Velocity: 45
Note OFF: Time 56520, Note Name: A4
Note ON: Time 56520, Note Name: C5, Velocity: 40
Note OFF: Time 56640, Note Name: C5
Note ON: Time 56640, Note Name: D4, Velocity: 40
Note ON: Time 56640, Note Name: G4, Velocity: 46
Note OFF: Time 56880, Note Name: G4
Note OFF: Time 56880, Note Name: D4
Note ON: Time 56880, Note Name: D7, Velocity: 52
Note OFF: Time 57000, Note Name: D7
Note ON: Time 57000, Note Name: C7, Velocity: 47
Note OFF: Time 57120, Note Name: C7
Note ON: Time 57120, Note Name: D7, Velocity: 40
Note OFF: Time 57240, Note Name: D7
Note ON: Time 57240, Note Name: C7, Velocity: 40
Note OFF: Time 57360, Note Name: C7
Note ON: Time 57360, Note Name: B6, Velocity: 45
Note OFF: Time 57480, Note Name: B6
Note ON: Time 57480, Note Name: D7, Velocity: 40
Note OFF: Time 57600, Note Name: D7
Note ON: Time 57600, Note Name: B6, Velocity: 52
Note OFF: Time 57720, Note Name: B6
Note ON: Time 57720, Note Name: A6, Velocity: 42
Note OFF: Time 57840, Note Name: A6
Note ON: Time 57840, Note Name: G6, Velocity: 49
Note OFF: Time 57960, Note Name: G6
Note ON: Time 57960, Note Name: B6, Velocity: 43
Note OFF: Time 58080, Note Name: B6
Note ON: Time 58080, Note Name: B5, Velocity: 48
Note OFF: Time 58200, Note Name: B5
Note ON: Time 58200, Note Name: A5, Velocity: 40
Note OFF: Time 58320, Note Name: A5
Note ON: Time 58320, Note Name: G5, Velocity: 45
Note OFF: Time 58440, Note Name: G5
Note ON: Time 58440, Note Name: B5, Velocity: 40
Note OFF: Time 58560, Note Name: B5
Note ON: Time 58560, Note Name: D5, Velocity: 52
Note OFF: Time 58680, Note Name: D5
Note ON: Time 58680, Note Name: C5, Velocity: 42
Note OFF: Time 58800, Note Name: C5
Note ON: Time 58800, Note Name: B4, Velocity: 49
Note OFF: Time 58920, Note Name: B4
Note ON: Time 58920, Note Name: D5, Velocity: 43
Note OFF: Time 59040, Note Name: D5
Note ON: Time 59040, Note Name: B5, Velocity: 48
Note OFF: Time 59160, Note Name: B5
Note ON: Time 59160, Note Name: A5, Velocity: 40
Note OFF: Time 59280, Note Name: A5
Note ON: Time 59280, Note Name: G5, Velocity: 45
Note OFF: Time 59400, Note Name: G5
Note ON: Time 59400, Note Name: B5, Velocity: 40
Note OFF: Time 59520, Note Name: B5
Note ON: Time 59520, Note Name: D6, Velocity: 62
Note OFF: Time 59640, Note Name: D6
Note ON: Time 59640, Note Name: C6, Velocity: 51
Note OFF: Time 59760, Note Name: C6
Note ON: Time 59760, Note Name: B5, Velocity: 61
Note OFF: Time 59880, Note Name: B5
Note ON: Time 59880, Note Name: C6, Velocity: 52
Note OFF: Time 60000, Note Name: C6
Note ON: Time 60000, Note Name: E6, Velocity: 62
Note OFF: Time 60240, Note Name: E6
Note ON: Time 60240, Note Name: F#6, Velocity: 51
Note ON: Time 60240, Note Name: A5, Velocity: 51
Note ON: Time 60240, Note Name: D6, Velocity: 51
Note OFF: Time 60480, Note Name: D6
Note OFF: Time 60480, Note Name: A5
Note OFF: Time 60480, Note Name: F#6
Note ON: Time 60480, Note Name: G6, Velocity: 51
Note ON: Time 60480, Note Name: G5, Velocity: 51
Note ON: Time 60480, Note Name: D6, Velocity: 51
Note OFF: Time 60720, Note Name: D6
Note OFF: Time 60720, Note Name: G5
Note OFF: Time 60720, Note Name: G6
Note ON: Time 61680, Note Name: A4, Velocity: 40
Note ON: Time 61680, Note Name: F#4, Velocity: 34
Note OFF: Time 61920, Note Name: F#4
Note OFF: Time 61920, Note Name: A4
Note ON: Time 61920, Note Name: G4, Velocity: 32
Note ON: Time 61920, Note Name: B4, Velocity: 38
Note OFF: Time 62040, Note Name: B4
Note OFF: Time 62040, Note Name: G4
Note ON: Time 62160, Note Name: G6, Velocity: 47
Note ON: Time 62160, Note Name: B5, Velocity: 39
Note OFF: Time 62280, Note Name: B5
Note OFF: Time 62280, Note Name: G6
Note ON: Time 62280, Note Name: F#6, Velocity: 44
Note ON: Time 62280, Note Name: A5, Velocity: 37
Note OFF: Time 62400, Note Name: A5
Note OFF: Time 62400, Note Name: F#6
Note ON: Time 62400, Note Name: G6, Velocity: 47
Note ON: Time 62400, Note Name: B5, Velocity: 39
Note OFF: Time 62640, Note Name: B5
Note OFF: Time 62640, Note Name: G6
Note ON: Time 62640, Note Name: B5, Velocity: 33
Note ON: Time 62640, Note Name: G5, Velocity: 33
Note ON: Time 62640, Note Name: E6, Velocity: 39
Note OFF: Time 62880, Note Name: E6
Note OFF: Time 62880, Note Name: G5
Note OFF: Time 62880, Note Name: B5
Note ON: Time 62880, Note Name: D6, Velocity: 42
Note ON: Time 62880, Note Name: A5, Velocity: 35
Note ON: Time 62880, Note Name: F#5, Velocity: 35
Note OFF: Time 63120, Note Name: F#5
Note OFF: Time 63120, Note Name: A5
Note OFF: Time 63120, Note Name: D6
Note ON: Time 63120, Note Name: C#6, Velocity: 40
Note ON: Time 63120, Note Name: G5, Velocity: 30
Note ON: Time 63120, Note Name: E5, Velocity: 30
Note OFF: Time 63360, Note Name: E5
Note OFF: Time 63360, Note Name: G5
Note OFF: Time 63360, Note Name: C#6
Note ON: Time 63360, Note Name: G5, Velocity: 38
Note ON: Time 63360, Note Name: E6, Velocity: 45
Note OFF: Time 63600, Note Name: E6
Note OFF: Time 63600, Note Name: G5
Note ON: Time 63600, Note Name: F#5, Velocity: 30
Note ON: Time 63600, Note Name: D6, Velocity: 36
Note OFF: Time 63838, Note Name: F#5
Note OFF: Time 63838, Note Name: D6
Note ON: Time 63840, Note Name: D6, Velocity: 36
Note ON: Time 63840, Note Name: F#5, Velocity: 30
Note OFF: Time 64080, Note Name: F#5
Note OFF: Time 64080, Note Name: D6
Note ON: Time 64080, Note Name: G5, Velocity: 38
Note ON: Time 64080, Note Name: D6, Velocity: 45
Note OFF: Time 64200, Note Name: D6
Note OFF: Time 64200, Note Name: G5
Note ON: Time 64200, Note Name: C6, Velocity: 40
Note ON: Time 64200, Note Name: A5, Velocity: 34
Note OFF: Time 64320, Note Name: A5
Note OFF: Time 64320, Note Name: C6
Note ON: Time 64320, Note Name: B5, Velocity: 46
Note OFF: Time 64560, Note Name: B5
Note ON: Time 64560, Note Name: G5, Velocity: 43
Note ON: Time 64560, Note Name: G6, Velocity: 51
Note OFF: Time 64680, Note Name: G6
Note ON: Time 64800, Note Name: E6, Velocity: 46
Note OFF: Time 64920, Note Name: E6
Note OFF: Time 64920, Note Name: G5
Note ON: Time 65040, Note Name: C7, Velocity: 51
Note ON: Time 65040, Note Name: C6, Velocity: 43
Note OFF: Time 65160, Note Name: C6
Note OFF: Time 65160, Note Name: C7
Note ON: Time 65160, Note Name: A6, Velocity: 44
Note ON: Time 65160, Note Name: E6, Velocity: 37
Note OFF: Time 65280, Note Name: E6
Note OFF: Time 65280, Note Name: A6
Note ON: Time 65280, Note Name: F#6, Velocity: 51
Note OFF: Time 65520, Note Name: F#6
Note ON: Time 65520, Note Name: D6, Velocity: 47
Note ON: Time 65520, Note Name: D7, Velocity: 56
Note OFF: Time 65760, Note Name: D7
Note ON: Time 65760, Note Name: B6, Velocity: 53
Note OFF: Time 65880, Note Name: B6
Note OFF: Time 65880, Note Name: D6
Note ON: Time 66000, Note Name: G6, Velocity: 52
Note OFF: Time 66120, Note Name: G6
Note ON: Time 66120, Note Name: F#6, Velocity: 45
Note OFF: Time 66240, Note Name: F#6
Note ON: Time 66240, Note Name: G6, Velocity: 52
Note OFF: Time 66480, Note Name: G6
Note ON: Time 66480, Note Name: E6, Velocity: 47
Note OFF: Time 66720, Note Name: E6
Note ON: Time 66720, Note Name: C6, Velocity: 51
Note OFF: Time 66960, Note Name: C6
Note ON: Time 66960, Note Name: F#5, Velocity: 37
Note ON: Time 66960, Note Name: B5, Velocity: 44
Note OFF: Time 67200, Note Name: B5
Note OFF: Time 67200, Note Name: F#5
Note ON: Time 67200, Note Name: B5, Velocity: 44
Note ON: Time 67200, Note Name: F#5, Velocity: 44
Note OFF: Time 67440, Note Name: F#5
Note ON: Time 67440, Note Name: A5, Velocity: 50
Note OFF: Time 67560, Note Name: A5
Note ON: Time 67560, Note Name: G5, Velocity: 44
Note OFF: Time 67678, Note Name: G5
Note ON: Time 67680, Note Name: G5, Velocity: 49
Note OFF: Time 67920, Note Name: G5
Note OFF: Time 67920, Note Name: B5
Note ON: Time 67920, Note Name: E6, Velocity: 55
Note ON: Time 67920, Note Name: G5, Velocity: 46
Note ON: Time 67920, Note Name: A#5, Velocity: 46
Note OFF: Time 68160, Note Name: A#5
Note OFF: Time 68160, Note Name: E6
Note ON: Time 68160, Note Name: A5, Velocity: 44
Note OFF: Time 68400, Note Name: G5
Note ON: Time 68400, Note Name: G5, Velocity: 50
Note OFF: Time 68520, Note Name: G5
Note ON: Time 68520, Note Name: F5, Velocity: 44
Note OFF: Time 68640, Note Name: F5
Note ON: Time 68640, Note Name: F5, Velocity: 49
Note OFF: Time 68880, Note Name: F5
Note OFF: Time 68880, Note Name: A5
Note ON: Time 68880, Note Name: F5, Velocity: 55
Note ON: Time 68880, Note Name: G#5, Velocity: 55
Note ON: Time 68880, Note Name: D6, Velocity: 55
Note OFF: Time 69120, Note Name: D6
Note OFF: Time 69120, Note Name: G#5
Note ON: Time 69120, Note Name: G5, Velocity: 44
Note OFF: Time 69360, Note Name: F5
Note ON: Time 69360, Note Name: F5, Velocity: 50
Note OFF: Time 69480, Note Name: F5
Note ON: Time 69480, Note Name: E5, Velocity: 44
Note OFF: Time 69598, Note Name: E5
Note ON: Time 69600, Note Name: E5, Velocity: 49
Note OFF: Time 69840, Note Name: E5
Note OFF: Time 69840, Note Name: G5
Note ON: Time 69840, Note Name: C#6, Velocity: 55
Note ON: Time 69840, Note Name: E5, Velocity: 46
Note ON: Time 69840, Note Name: G5, Velocity: 46
Note OFF: Time 70080, Note Name: G5
Note OFF: Time 70080, Note Name: C#6
Note ON: Time 70080, Note Name: F#5, Velocity: 44
Note OFF: Time 70320, Note Name: E5
Note ON: Time 70320, Note Name: E5, Velocity: 50
Note OFF: Time 70440, Note Name: E5
Note ON: Time 70440, Note Name: D#5, Velocity: 44
Note OFF: Time 70560, Note Name: D#5
Note ON: Time 70560, Note Name: D5, Velocity: 49
Note OFF: Time 70800, Note Name: D5
Note OFF: Time 70800, Note Name: F#5
Note ON: Time 70800, Note Name: F5, Velocity: 46
Note ON: Time 70800, Note Name: D5, Velocity: 46
Note ON: Time 70800, Note Name: B5, Velocity: 55
Note OFF: Time 71040, Note Name: B5
Note OFF: Time 71040, Note Name: D5
Note OFF: Time 71040, Note Name: F5
Note ON: Time 71040, Note Name: D5, Velocity: 46
Note ON: Time 71040, Note Name: F5, Velocity: 55
Note OFF: Time 71160, Note Name: F5
Note ON: Time 71160, Note Name: E5, Velocity: 46
Note OFF: Time 71280, Note Name: D5
Note ON: Time 71280, Note Name: C#5, Velocity: 46
Note OFF: Time 71400, Note Name: E5
Note ON: Time 71400, Note Name: A5, Velocity: 48
Note OFF: Time 71520, Note Name: A5
Note OFF: Time 71520, Note Name: C#5
Note ON: Time 71520, Note Name: C5, Velocity: 46
Note ON: Time 71520, Note Name: D#5, Velocity: 55
Note OFF: Time 71640, Note Name: D#5
Note ON: Time 71640, Note Name: D5, Velocity: 47
Note OFF: Time 71760, Note Name: C5
Note ON: Time 71760, Note Name: B4, Velocity: 46
Note OFF: Time 71880, Note Name: D5
Note ON: Time 71880, Note Name: G5, Velocity: 49
Note OFF: Time 72000, Note Name: G5
Note OFF: Time 72000, Note Name: B4
Note ON: Time 72000, Note Name: D5, Velocity: 56
Note OFF: Time 72120, Note Name: D5
Note ON: Time 72120, Note Name: D6, Velocity: 44
Note OFF: Time 72240, Note Name: D6
Note ON: Time 72240, Note Name: C#6, Velocity: 45
Note OFF: Time 72360, Note Name: C#6
Note ON: Time 72360, Note Name: C6, Velocity: 46
Note OFF: Time 72480, Note Name: C6
Note ON: Time 72480, Note Name: A5, Velocity: 47
Note OFF: Time 72600, Note Name: A5
Note ON: Time 72600, Note Name: F#5, Velocity: 47
Note OFF: Time 72720, Note Name: F#5
Note ON: Time 72720, Note Name: D#5, Velocity: 48
Note OFF: Time 72840, Note Name: D#5
Note ON: Time 72840, Note Name: D5, Velocity: 49
Note OFF: Time 72960, Note Name: D5
Note ON: Time 72960, Note Name: C#5, Velocity: 50
Note OFF: Time 73080, Note Name: C#5
Note ON: Time 73080, Note Name: C5, Velocity: 51
Note OFF: Time 73200, Note Name: C5
Note ON: Time 73200, Note Name: A4, Velocity: 52
Note OFF: Time 73320, Note Name: A4
Note ON: Time 73320, Note Name: F#4, Velocity: 53
Note OFF: Time 73440, Note Name: F#4
Note ON: Time 73440, Note Name: D#4, Velocity: 61
Note ON: Time 73440, Note Name: G4, Velocity: 51
Note OFF: Time 73560, Note Name: D#4
Note ON: Time 73560, Note Name: D4, Velocity: 47
Note OFF: Time 73680, Note Name: D4
Note OFF: Time 73680, Note Name: G4
Note ON: Time 73680, Note Name: E5, Velocity: 58
Note ON: Time 73680, Note Name: G4, Velocity: 49
Note OFF: Time 73800, Note Name: E5
Note ON: Time 73800, Note Name: D5, Velocity: 47
Note OFF: Time 73920, Note Name: D5
Note OFF: Time 73920, Note Name: G4
Note ON: Time 73920, Note Name: D5, Velocity: 56
Note OFF: Time 74040, Note Name: D5
Note ON: Time 74040, Note Name: D6, Velocity: 44
Note OFF: Time 74160, Note Name: D6
Note ON: Time 74160, Note Name: C#6, Velocity: 45
Note OFF: Time 74280, Note Name: C#6
Note ON: Time 74280, Note Name: C6, Velocity: 46
Note OFF: Time 74400, Note Name: C6
Note ON: Time 74400, Note Name: A5, Velocity: 47
Note OFF: Time 74520, Note Name: A5
Note ON: Time 74520, Note Name: F#5, Velocity: 47
Note OFF: Time 74640, Note Name: F#5
Note ON: Time 74640, Note Name: D#5, Velocity: 48
Note OFF: Time 74760, Note Name: D#5
Note ON: Time 74760, Note Name: D5, Velocity: 49
Note OFF: Time 74880, Note Name: D5
Note ON: Time 74880, Note Name: C#5, Velocity: 50
Note OFF: Time 75000, Note Name: C#5
Note ON: Time 75000, Note Name: C5, Velocity: 51
Note OFF: Time 75120, Note Name: C5
Note ON: Time 75120, Note Name: A4, Velocity: 52
Note OFF: Time 75240, Note Name: A4
Note ON: Time 75240, Note Name: F#4, Velocity: 53
Note OFF: Time 75360, Note Name: F#4
Note ON: Time 75360, Note Name: G4, Velocity: 51
Note ON: Time 75360, Note Name: D#4, Velocity: 61
Note OFF: Time 75480, Note Name: D#4
Note ON: Time 75480, Note Name: D4, Velocity: 47
Note OFF: Time 75600, Note Name: D4
Note OFF: Time 75600, Note Name: G4
Note ON: Time 75600, Note Name: E5, Velocity: 58
Note ON: Time 75600, Note Name: G4, Velocity: 49
Note OFF: Time 75720, Note Name: E5
Note ON: Time 75720, Note Name: D5, Velocity: 47
Note OFF: Time 75840, Note Name: D5
Note OFF: Time 75840, Note Name: G4
Note ON: Time 75840, Note Name: D5, Velocity: 52
Note OFF: Time 75960, Note Name: D5
Note ON: Time 75960, Note Name: B4, Velocity: 45
Note ON: Time 75960, Note Name: G5, Velocity: 54
Note OFF: Time 76080, Note Name: G5
Note OFF: Time 76080, Note Name: B4
Note ON: Time 76080, Note Name: B5, Velocity: 58
Note ON: Time 76080, Note Name: D5, Velocity: 49
Note OFF: Time 76200, Note Name: D5
Note OFF: Time 76200, Note Name: B5
Note ON: Time 76200, Note Name: C5, Velocity: 44
Note ON: Time 76200, Note Name: A5, Velocity: 52
Note OFF: Time 76320, Note Name: A5
Note OFF: Time 76320, Note Name: C5
Note ON: Time 76320, Note Name: B4, Velocity: 58
Note ON: Time 76320, Note Name: G5, Velocity: 58
Note OFF: Time 76440, Note Name: B4
Note ON: Time 76440, Note Name: D#5, Velocity: 50
Note OFF: Time 76560, Note Name: D#5
Note ON: Time 76560, Note Name: E5, Velocity: 55
Note OFF: Time 76680, Note Name: E5
Note ON: Time 76680, Note Name: B4, Velocity: 50
Note OFF: Time 76800, Note Name: B4
Note ON: Time 76800, Note Name: A#4, Velocity: 54
Note OFF: Time 76920, Note Name: A#4
Note ON: Time 76920, Note Name: D#5, Velocity: 58
Note OFF: Time 77040, Note Name: D#5
Note ON: Time 77040, Note Name: E5, Velocity: 58
Note OFF: Time 77160, Note Name: E5
Note ON: Time 77160, Note Name: A#4, Velocity: 53
Note OFF: Time 77280, Note Name: A#4
Note OFF: Time 77280, Note Name: G5
Note ON: Time 77280, Note Name: A4, Velocity: 56
Note OFF: Time 77400, Note Name: A4
Note ON: Time 77400, Note Name: C#5, Velocity: 50
Note OFF: Time 77520, Note Name: C#5
Note ON: Time 77520, Note Name: D5, Velocity: 60
Note OFF: Time 77640, Note Name: D5
Note ON: Time 77640, Note Name: D6, Velocity: 54
Note OFF: Time 77760, Note Name: D6
Note ON: Time 77760, Note Name: D6, Velocity: 61
Note OFF: Time 77880, Note Name: D6
Note ON: Time 77880, Note Name: D7, Velocity: 48
Note OFF: Time 78000, Note Name: D7
Note ON: Time 78000, Note Name: C#7, Velocity: 49
Note OFF: Time 78120, Note Name: C#7
Note ON: Time 78120, Note Name: C7, Velocity: 50
Note OFF: Time 78240, Note Name: C7
Note ON: Time 78240, Note Name: A6, Velocity: 51
Note OFF: Time 78360, Note Name: A6
Note ON: Time 78360, Note Name: F#6, Velocity: 51
Note OFF: Time 78480, Note Name: F#6
Note ON: Time 78480, Note Name: D#6, Velocity: 52
Note OFF: Time 78600, Note Name: D#6
Note ON: Time 78600, Note Name: D6, Velocity: 53
Note OFF: Time 78720, Note Name: D6
Note ON: Time 78720, Note Name: C#6, Velocity: 55
Note OFF: Time 78840, Note Name: C#6
Note ON: Time 78840, Note Name: C6, Velocity: 60
Note OFF: Time 78960, Note Name: C6
Note ON: Time 78960, Note Name: A5, Velocity: 64
Note OFF: Time 79080, Note Name: A5
Note ON: Time 79080, Note Name: F#5, Velocity: 67
Note OFF: Time 79200, Note Name: F#5
Note ON: Time 79200, Note Name: D#5, Velocity: 72
Note ON: Time 79200, Note Name: G5, Velocity: 60
Note OFF: Time 79320, Note Name: D#5
Note ON: Time 79320, Note Name: D5, Velocity: 51
Note OFF: Time 79440, Note Name: D5
Note OFF: Time 79440, Note Name: G5
Note ON: Time 79440, Note Name: G5, Velocity: 53
Note ON: Time 79440, Note Name: E6, Velocity: 63
Note OFF: Time 79560, Note Name: E6
Note ON: Time 79560, Note Name: D6, Velocity: 51
Note OFF: Time 79680, Note Name: D6
Note OFF: Time 79680, Note Name: G5
Note ON: Time 79680, Note Name: D6, Velocity: 61
Note OFF: Time 79800, Note Name: D6
Note ON: Time 79800, Note Name: D7, Velocity: 48
Note OFF: Time 79920, Note Name: D7
Note ON: Time 79920, Note Name: C#7, Velocity: 49
Note OFF: Time 80040, Note Name: C#7
Note ON: Time 80040, Note Name: C7, Velocity: 50
Note OFF: Time 80160, Note Name: C7
Note ON: Time 80160, Note Name: A6, Velocity: 51
Note OFF: Time 80280, Note Name: A6
Note ON: Time 80280, Note Name: F#6, Velocity: 51
Note OFF: Time 80400, Note Name: F#6
Note ON: Time 80400, Note Name: D#6, Velocity: 52
Note OFF: Time 80520, Note Name: D#6
Note ON: Time 80520, Note Name: D6, Velocity: 53
Note OFF: Time 80640, Note Name: D6
Note ON: Time 80640, Note Name: C#6, Velocity: 57
Note OFF: Time 80760, Note Name: C#6
Note ON: Time 80760, Note Name: C6, Velocity: 59
Note OFF: Time 80880, Note Name: C6
Note ON: Time 80880, Note Name: A5, Velocity: 61
Note OFF: Time 81000, Note Name: A5
Note ON: Time 81000, Note Name: F#5, Velocity: 63
Note OFF: Time 81120, Note Name: F#5
Note ON: Time 81120, Note Name: G5, Velocity: 54
Note ON: Time 81120, Note Name: D#5, Velocity: 67
Note OFF: Time 81240, Note Name: D#5
Note ON: Time 81240, Note Name: D5, Velocity: 51
Note OFF: Time 81360, Note Name: D5
Note OFF: Time 81360, Note Name: G5
Note ON: Time 81360, Note Name: G5, Velocity: 53
Note ON: Time 81360, Note Name: E6, Velocity: 63
Note OFF: Time 81480, Note Name: E6
Note ON: Time 81480, Note Name: D6, Velocity: 51
Note OFF: Time 81600, Note Name: D6
Note OFF: Time 81600, Note Name: G5
Note ON: Time 81600, Note Name: D6, Velocity: 56
Note OFF: Time 81720, Note Name: D6
Note ON: Time 81720, Note Name: G5, Velocity: 54
Note ON: Time 81720, Note Name: B4, Velocity: 45
Note OFF: Time 81840, Note Name: B4
Note OFF: Time 81840, Note Name: G5
Note ON: Time 81840, Note Name: D5, Velocity: 49
Note ON: Time 81840, Note Name: B5, Velocity: 58
Note OFF: Time 81960, Note Name: B5
Note OFF: Time 81960, Note Name: D5
Note ON: Time 81960, Note Name: A5, Velocity: 52
Note ON: Time 81960, Note Name: C5, Velocity: 44
Note OFF: Time 82080, Note Name: C5
Note OFF: Time 82080, Note Name: A5
Note ON: Time 82080, Note Name: B4, Velocity: 58
Note ON: Time 82080, Note Name: G5, Velocity: 58
Note OFF: Time 82200, Note Name: B4
Note ON: Time 82200, Note Name: D#5, Velocity: 50
Note OFF: Time 82320, Note Name: D#5
Note ON: Time 82320, Note Name: E5, Velocity: 55
Note OFF: Time 82440, Note Name: E5
Note ON: Time 82440, Note Name: B4, Velocity: 50
Note OFF: Time 82560, Note Name: B4
Note ON: Time 82560, Note Name: A#4, Velocity: 54
Note OFF: Time 82680, Note Name: A#4
Note ON: Time 82680, Note Name: D#5, Velocity: 58
Note OFF: Time 82800, Note Name: D#5
Note ON: Time 82800, Note Name: E5, Velocity: 58
Note OFF: Time 82920, Note Name: E5
Note ON: Time 82920, Note Name: A#4, Velocity: 53
Note OFF: Time 83040, Note Name: A#4
Note OFF: Time 83040, Note Name: G5
Note ON: Time 83040, Note Name: A4, Velocity: 56
Note ON: Time 83040, Note Name: F#5, Velocity: 54
Note OFF: Time 83160, Note Name: A4
Note ON: Time 83160, Note Name: D5, Velocity: 50
Note OFF: Time 83280, Note Name: D5
Note OFF: Time 83280, Note Name: F#5
Note ON: Time 83280, Note Name: G5, Velocity: 54
Note ON: Time 83280, Note Name: G4, Velocity: 60
Note OFF: Time 83400, Note Name: G4
Note ON: Time 83400, Note Name: C5, Velocity: 50
Note OFF: Time 83520, Note Name: C5
Note OFF: Time 83520, Note Name: G5
Note ON: Time 83520, Note Name: G5, Velocity: 54
Note OFF: Time 83640, Note Name: G5
Note ON: Time 83640, Note Name: E5, Velocity: 47
Note ON: Time 83640, Note Name: C6, Velocity: 57
Note OFF: Time 83760, Note Name: C6
Note OFF: Time 83760, Note Name: E5
Note ON: Time 83760, Note Name: E6, Velocity: 62
Note ON: Time 83760, Note Name: G5, Velocity: 52
Note OFF: Time 83880, Note Name: G5
Note OFF: Time 83880, Note Name: E6
Note ON: Time 83880, Note Name: F5, Velocity: 47
Note ON: Time 83880, Note Name: D6, Velocity: 56
Note OFF: Time 84000, Note Name: D6
Note OFF: Time 84000, Note Name: F5
Note ON: Time 84000, Note Name: E5, Velocity: 63
Note ON: Time 84000, Note Name: C6, Velocity: 63
Note OFF: Time 84120, Note Name: E5
Note ON: Time 84120, Note Name: G#5, Velocity: 55
Note OFF: Time 84240, Note Name: G#5
Note ON: Time 84240, Note Name: A5, Velocity: 61
Note OFF: Time 84360, Note Name: A5
Note ON: Time 84360, Note Name: D#5, Velocity: 56
Note OFF: Time 84480, Note Name: D#5
Note ON: Time 84480, Note Name: D#5, Velocity: 61
Note OFF: Time 84600, Note Name: D#5
Note ON: Time 84600, Note Name: G#5, Velocity: 66
Note OFF: Time 84720, Note Name: G#5
Note ON: Time 84720, Note Name: A5, Velocity: 66
Note OFF: Time 84840, Note Name: A5
Note ON: Time 84840, Note Name: D#5, Velocity: 62
Note OFF: Time 84960, Note Name: D#5
Note OFF: Time 84960, Note Name: C6
Note ON: Time 84960, Note Name: D5, Velocity: 66
Note ON: Time 84960, Note Name: B5, Velocity: 63
Note OFF: Time 85080, Note Name: D5
Note ON: Time 85080, Note Name: G5, Velocity: 59
Note OFF: Time 85200, Note Name: G5
Note OFF: Time 85200, Note Name: B5
Note ON: Time 85200, Note Name: C6, Velocity: 64
Note ON: Time 85200, Note Name: C5, Velocity: 72
Note OFF: Time 85320, Note Name: C5
Note ON: Time 85320, Note Name: F5, Velocity: 60
Note OFF: Time 85440, Note Name: F5
Note OFF: Time 85440, Note Name: C6
Note ON: Time 85440, Note Name: C6, Velocity: 63
Note OFF: Time 85560, Note Name: C6
Note ON: Time 85560, Note Name: A5, Velocity: 55
Note ON: Time 85560, Note Name: F6, Velocity: 66
Note OFF: Time 85680, Note Name: F6
Note OFF: Time 85680, Note Name: A5
Note ON: Time 85680, Note Name: C6, Velocity: 60
Note ON: Time 85680, Note Name: A6, Velocity: 71
Note OFF: Time 85800, Note Name: A6
Note OFF: Time 85800, Note Name: C6
Note ON: Time 85800, Note Name: A#5, Velocity: 55
Note ON: Time 85800, Note Name: G6, Velocity: 65
Note OFF: Time 85920, Note Name: G6
Note OFF: Time 85920, Note Name: A#5
Note ON: Time 85920, Note Name: F6, Velocity: 73
Note ON: Time 85920, Note Name: G#5, Velocity: 73
Note OFF: Time 86040, Note Name: G#5
Note ON: Time 86040, Note Name: F5, Velocity: 63
Note OFF: Time 86160, Note Name: F5
Note ON: Time 86160, Note Name: G#5, Velocity: 70
Note OFF: Time 86280, Note Name: G#5
Note ON: Time 86280, Note Name: G5, Velocity: 65
Note OFF: Time 86400, Note Name: G5
Note ON: Time 86400, Note Name: G#5, Velocity: 70
Note OFF: Time 86520, Note Name: G#5
Note ON: Time 86520, Note Name: C#6, Velocity: 71
Note OFF: Time 86640, Note Name: C#6
Note ON: Time 86640, Note Name: D6, Velocity: 77
Note OFF: Time 86760, Note Name: D6
Note ON: Time 86760, Note Name: G#5, Velocity: 71
Note OFF: Time 86880, Note Name: G#5
Note OFF: Time 86880, Note Name: F6
Note ON: Time 86880, Note Name: G5, Velocity: 75
Note ON: Time 86880, Note Name: E6, Velocity: 78
Note OFF: Time 87000, Note Name: G5
Note ON: Time 87000, Note Name: B5, Velocity: 68
Note OFF: Time 87120, Note Name: B5
Note ON: Time 87120, Note Name: C6, Velocity: 82
Note OFF: Time 87240, Note Name: C6
Note ON: Time 87240, Note Name: G5, Velocity: 69
Note OFF: Time 87360, Note Name: G5
Note ON: Time 87360, Note Name: C6, Velocity: 74
Note OFF: Time 87600, Note Name: C6
Note OFF: Time 87600, Note Name: E6
Note ON: Time 87600, Note Name: E5, Velocity: 79
Note ON: Time 87600, Note Name: E6, Velocity: 93
Note ON: Time 87600, Note Name: C6, Velocity: 79
Note ON: Time 87600, Note Name: G5, Velocity: 79
Note OFF: Time 87840, Note Name: G5
Note OFF: Time 87840, Note Name: E5
Note OFF: Time 87840, Note Name: E6
Note OFF: Time 87840, Note Name: C6
Note ON: Time 87840, Note Name: B5, Velocity: 74
Note ON: Time 87840, Note Name: D6, Velocity: 88
Note OFF: Time 88080, Note Name: D6
Note OFF: Time 88080, Note Name: B5
Note ON: Time 88080, Note Name: C6, Velocity: 74
Note ON: Time 88080, Note Name: E6, Velocity: 86
Note OFF: Time 88200, Note Name: E6
Note OFF: Time 88200, Note Name: C6
Note ON: Time 88200, Note Name: F6, Velocity: 92
Note ON: Time 88200, Note Name: D6, Velocity: 78
Note OFF: Time 88320, Note Name: D6
Note OFF: Time 88320, Note Name: F6
Note ON: Time 88320, Note Name: E6, Velocity: 81
Note ON: Time 88320, Note Name: G6, Velocity: 96
Note OFF: Time 88440, Note Name: G6
Note OFF: Time 88440, Note Name: E6
Note ON: Time 88560, Note Name: C6, Velocity: 77
Note ON: Time 88560, Note Name: E6, Velocity: 91
Note OFF: Time 88680, Note Name: E6
Note OFF: Time 88680, Note Name: C6
Note ON: Time 89520, Note Name: G5, Velocity: 79
Note ON: Time 89520, Note Name: E5, Velocity: 79
Note ON: Time 89520, Note Name: E6, Velocity: 93
Note ON: Time 89520, Note Name: C6, Velocity: 79
Note OFF: Time 89760, Note Name: C6
Note OFF: Time 89760, Note Name: G5
Note OFF: Time 89760, Note Name: E5
Note OFF: Time 89760, Note Name: E6
Note ON: Time 89760, Note Name: D6, Velocity: 88
Note ON: Time 89760, Note Name: B5, Velocity: 74
Note OFF: Time 90000, Note Name: B5
Note OFF: Time 90000, Note Name: D6
Note ON: Time 90000, Note Name: E6, Velocity: 86
Note ON: Time 90000, Note Name: C6, Velocity: 74
Note OFF: Time 90120, Note Name: C6
Note OFF: Time 90120, Note Name: E6
Note ON: Time 90120, Note Name: D6, Velocity: 78
Note ON: Time 90120, Note Name: F6, Velocity: 92
Note OFF: Time 90240, Note Name: F6
Note OFF: Time 90240, Note Name: D6
Note ON: Time 90240, Note Name: E6, Velocity: 81
Note ON: Time 90240, Note Name: G6, Velocity: 96
Note OFF: Time 90360, Note Name: G6
Note OFF: Time 90360, Note Name: E6
Note ON: Time 90480, Note Name: E6, Velocity: 86
Note ON: Time 90480, Note Name: G5, Velocity: 86
Note ON: Time 90480, Note Name: A5, Velocity: 86
Note ON: Time 90480, Note Name: G6, Velocity: 103
Note OFF: Time 90720, Note Name: G6
Note OFF: Time 90720, Note Name: E6
Note OFF: Time 90720, Note Name: G5
Note OFF: Time 90720, Note Name: A5
Note ON: Time 90960, Note Name: E6, Velocity: 86
Note ON: Time 90960, Note Name: C#6, Velocity: 86
Note ON: Time 90960, Note Name: G6, Velocity: 103
Note ON: Time 90960, Note Name: G5, Velocity: 86
Note OFF: Time 91200, Note Name: G5
Note OFF: Time 91200, Note Name: E6
Note OFF: Time 91200, Note Name: C#6
Note OFF: Time 91200, Note Name: G6
Note ON: Time 91440, Note Name: G6, Velocity: 103
Note ON: Time 91440, Note Name: D6, Velocity: 86
Note ON: Time 91440, Note Name: B5, Velocity: 86
Note ON: Time 91440, Note Name: G5, Velocity: 86
Note OFF: Time 91680, Note Name: G5
Note OFF: Time 91680, Note Name: G6
Note OFF: Time 91680, Note Name: D6
Note OFF: Time 91680, Note Name: B5
Note ON: Time 91920, Note Name: G5, Velocity: 86
Note ON: Time 91920, Note Name: G6, Velocity: 103
Note ON: Time 91920, Note Name: C#6, Velocity: 86
Note ON: Time 91920, Note Name: A5, Velocity: 86
Note OFF: Time 92160, Note Name: A5
Note OFF: Time 92160, Note Name: G5
Note OFF: Time 92160, Note Name: G6
Note OFF: Time 92160, Note Name: C#6
Note ON: Time 92160, Note Name: G6, Velocity: 77
Note ON: Time 92160, Note Name: B5, Velocity: 65
Note ON: Time 92160, Note Name: D6, Velocity: 65
Note ON: Time 92160, Note Name: G5, Velocity: 65
Note OFF: Time 92640, Note Name: G5
Note OFF: Time 92640, Note Name: G6
Note OFF: Time 92640, Note Name: B5
Note OFF: Time 92640, Note Name: D6
Note ON: Time 92640, Note Name: G5, Velocity: 54
Note ON: Time 92640, Note Name: D6, Velocity: 64
Note ON: Time 92640, Note Name: B5, Velocity: 54
Note OFF: Time 93360, Note Name: B5
Note OFF: Time 93360, Note Name: D6
Note OFF: Time 93360, Note Name: G5
Note ON: Time 93360, Note Name: D5, Velocity: 53
Note ON: Time 93360, Note Name: B5, Velocity: 63
Note ON: Time 93360, Note Name: G5, Velocity: 53
Note OFF: Time 93600, Note Name: G5
Note OFF: Time 93600, Note Name: B5
Note OFF: Time 93600, Note Name: D5
Note ON: Time 93600, Note Name: D5, Velocity: 56
Note OFF: Time 93720, Note Name: D5
Note ON: Time 93720, Note Name: F#5, Velocity: 57
Note OFF: Time 93840, Note Name: F#5
Note ON: Time 93840, Note Name: G5, Velocity: 58
Note OFF: Time 93960, Note Name: G5
Note ON: Time 93960, Note Name: B5, Velocity: 59
Note OFF: Time 94080, Note Name: B5
Note ON: Time 94080, Note Name: C#6, Velocity: 60
Note OFF: Time 94200, Note Name: C#6
Note ON: Time 94200, Note Name: D6, Velocity: 61
Note OFF: Time 94320, Note Name: D6
Note ON: Time 94320, Note Name: E6, Velocity: 62
Note OFF: Time 94440, Note Name: E6
Note ON: Time 94440, Note Name: D6, Velocity: 62
Note OFF: Time 94560, Note Name: D6
Note ON: Time 94560, Note Name: F#6, Velocity: 63
Note OFF: Time 94680, Note Name: F#6
Note ON: Time 94680, Note Name: G6, Velocity: 64
Note OFF: Time 94800, Note Name: G6
Note ON: Time 94800, Note Name: A6, Velocity: 65
Note OFF: Time 94920, Note Name: A6
Note ON: Time 94920, Note Name: G6, Velocity: 66
Note OFF: Time 95040, Note Name: G6
Note ON: Time 95040, Note Name: A#6, Velocity: 67
Note OFF: Time 95160, Note Name: A#6
Note ON: Time 95160, Note Name: B6, Velocity: 68
Note OFF: Time 95280, Note Name: B6
Note ON: Time 95280, Note Name: C7, Velocity: 69
Note OFF: Time 95400, Note Name: C7
Note ON: Time 95400, Note Name: B6, Velocity: 70
Note OFF: Time 95520, Note Name: B6
Note ON: Time 95520, Note Name: D7, Velocity: 71
Note OFF: Time 95760, Note Name: D7
Note ON: Time 95760, Note Name: C6, Velocity: 70
Note ON: Time 95760, Note Name: A5, Velocity: 59
Note ON: Time 95760, Note Name: D5, Velocity: 59
Note OFF: Time 96000, Note Name: D5
Note OFF: Time 96000, Note Name: A5
Note OFF: Time 96000, Note Name: C6
Note ON: Time 96000, Note Name: D5, Velocity: 49
Note ON: Time 96000, Note Name: B5, Velocity: 58
Note ON: Time 96000, Note Name: G5, Velocity: 49
Note OFF: Time 96960, Note Name: G5
Note OFF: Time 96960, Note Name: B5
Note OFF: Time 96960, Note Name: D5
Note ON: Time 96960, Note Name: C6, Velocity: 57
Note ON: Time 96960, Note Name: G5, Velocity: 48
Note OFF: Time 97440, Note Name: G5
Note OFF: Time 97440, Note Name: C6
Note ON: Time 97440, Note Name: C6, Velocity: 51
Note ON: Time 97440, Note Name: D#6, Velocity: 61
Note ON: Time 97440, Note Name: G5, Velocity: 51
Note OFF: Time 97920, Note Name: G5
Note OFF: Time 97920, Note Name: D#6
Note OFF: Time 97920, Note Name: C6
Note ON: Time 97920, Note Name: G6, Velocity: 56
Note ON: Time 97920, Note Name: G5, Velocity: 56
Note ON: Time 97920, Note Name: D6, Velocity: 67
Note OFF: Time 98400, Note Name: D6
Note ON: Time 98400, Note Name: B5, Velocity: 61
Note OFF: Time 98880, Note Name: B5
Note OFF: Time 98880, Note Name: G5
Note OFF: Time 98880, Note Name: G6
Note ON: Time 98880, Note Name: C6, Velocity: 51
Note ON: Time 98880, Note Name: G5, Velocity: 51
Note ON: Time 98880, Note Name: D#6, Velocity: 60
Note OFF: Time 99360, Note Name: D#6
Note OFF: Time 99360, Note Name: G5
Note OFF: Time 99360, Note Name: C6
Note ON: Time 99360, Note Name: C6, Velocity: 63
Note ON: Time 99360, Note Name: G5, Velocity: 53
Note OFF: Time 99840, Note Name: G5
Note OFF: Time 99840, Note Name: C6
Note ON: Time 99840, Note Name: G5, Velocity: 56
Note ON: Time 99840, Note Name: A#5, Velocity: 66
Note OFF: Time 100320, Note Name: A#5
Note ON: Time 100320, Note Name: B5, Velocity: 59
Note OFF: Time 100800, Note Name: B5
Note OFF: Time 100800, Note Name: G5
Note ON: Time 100800, Note Name: D6, Velocity: 64
Note ON: Time 100800, Note Name: F#5, Velocity: 54
Note OFF: Time 101280, Note Name: F#5
Note OFF: Time 101280, Note Name: D6
Note ON: Time 101280, Note Name: A5, Velocity: 53
Note ON: Time 101280, Note Name: C6, Velocity: 63
Note ON: Time 101520, Note Name: D5, Velocity: 52
Note OFF: Time 101640, Note Name: C6
Note OFF: Time 101640, Note Name: A5
Note ON: Time 101640, Note Name: A5, Velocity: 57
Note ON: Time 101640, Note Name: F#5, Velocity: 48
Note OFF: Time 101760, Note Name: F#5
Note OFF: Time 101760, Note Name: A5
Note OFF: Time 101760, Note Name: D5
Note ON: Time 101760, Note Name: B5, Velocity: 58
Note ON: Time 101760, Note Name: D5, Velocity: 49
Note ON: Time 101760, Note Name: G5, Velocity: 49
Note OFF: Time 101841, Note Name: G5
Note ON: Time 101841, Note Name: A5, Velocity: 42
Note OFF: Time 101921, Note Name: A5
Note ON: Time 101921, Note Name: G5, Velocity: 49
Note OFF: Time 102000, Note Name: D5
Note ON: Time 102001, Note Name: A5, Velocity: 44
Note OFF: Time 102002, Note Name: G5
Note OFF: Time 102082, Note Name: A5
Note ON: Time 102082, Note Name: G5, Velocity: 49
Note OFF: Time 102162, Note Name: G5
Note ON: Time 102162, Note Name: A5, Velocity: 44
Note ON: Time 102240, Note Name: G5, Velocity: 50
Note OFF: Time 102243, Note Name: A5
Note OFF: Time 102321, Note Name: G5
Note ON: Time 102321, Note Name: A5, Velocity: 44
Note OFF: Time 102401, Note Name: A5
Note ON: Time 102401, Note Name: G5, Velocity: 50
Note ON: Time 102481, Note Name: A5, Velocity: 46
Note OFF: Time 102482, Note Name: G5
Note OFF: Time 102562, Note Name: A5
Note ON: Time 102562, Note Name: G5, Velocity: 51
Note OFF: Time 102642, Note Name: G5
Note ON: Time 102642, Note Name: A5, Velocity: 45
Note OFF: Time 102720, Note Name: B5
Note ON: Time 102720, Note Name: C6, Velocity: 67
Note ON: Time 102720, Note Name: G5, Velocity: 51
Note OFF: Time 102723, Note Name: A5
Note OFF: Time 102801, Note Name: G5
Note ON: Time 102801, Note Name: A5, Velocity: 44
Note OFF: Time 102881, Note Name: A5
Note ON: Time 102881, Note Name: G5, Velocity: 52
Note ON: Time 102961, Note Name: A5, Velocity: 47
Note OFF: Time 102962, Note Name: G5
Note OFF: Time 103042, Note Name: A5
Note ON: Time 103042, Note Name: G5, Velocity: 52
Note OFF: Time 103122, Note Name: G5
Note ON: Time 103122, Note Name: A5, Velocity: 47
Note OFF: Time 103200, Note Name: C6
Note ON: Time 103200, Note Name: G5, Velocity: 53
Note ON: Time 103200, Note Name: E6, Velocity: 73
Note OFF: Time 103203, Note Name: A5
Note OFF: Time 103281, Note Name: G5
Note ON: Time 103281, Note Name: A5, Velocity: 47
Note OFF: Time 103361, Note Name: A5
Note ON: Time 103361, Note Name: G5, Velocity: 54
Note ON: Time 103441, Note Name: A5, Velocity: 48
Note OFF: Time 103442, Note Name: G5
Note OFF: Time 103522, Note Name: A5
Note ON: Time 103522, Note Name: G5, Velocity: 54
Note OFF: Time 103602, Note Name: G5
Note ON: Time 103602, Note Name: A5, Velocity: 48
Note OFF: Time 103680, Note Name: E6
Note ON: Time 103680, Note Name: G5, Velocity: 55
Note ON: Time 103680, Note Name: G6, Velocity: 67
Note OFF: Time 103683, Note Name: A5
Note OFF: Time 103761, Note Name: G5
Note ON: Time 103761, Note Name: A5, Velocity: 47
Note OFF: Time 103841, Note Name: A5
Note ON: Time 103841, Note Name: G5, Velocity: 55
Note ON: Time 103921, Note Name: A5, Velocity: 50
Note OFF: Time 103922, Note Name: G5
Note OFF: Time 104002, Note Name: A5
Note ON: Time 104002, Note Name: G5, Velocity: 56
Note OFF: Time 104082, Note Name: G5
Note ON: Time 104082, Note Name: A5, Velocity: 51
Note ON: Time 104160, Note Name: G5, Velocity: 56
Note OFF: Time 104163, Note Name: A5
Note OFF: Time 104241, Note Name: G5
Note ON: Time 104241, Note Name: A5, Velocity: 50
Note OFF: Time 104321, Note Name: A5
Note ON: Time 104321, Note Name: G5, Velocity: 57
Note ON: Time 104401, Note Name: A5, Velocity: 51
Note OFF: Time 104402, Note Name: G5
Note OFF: Time 104482, Note Name: A5
Note ON: Time 104482, Note Name: G5, Velocity: 57
Note OFF: Time 104562, Note Name: G5
Note ON: Time 104562, Note Name: A5, Velocity: 51
Note OFF: Time 104640, Note Name: G6
Note ON: Time 104640, Note Name: E6, Velocity: 72
Note ON: Time 104640, Note Name: G5, Velocity: 58
Note OFF: Time 104643, Note Name: A5
Note OFF: Time 104721, Note Name: G5
Note ON: Time 104721, Note Name: A5, Velocity: 50
Note OFF: Time 104801, Note Name: A5
Note ON: Time 104801, Note Name: G5, Velocity: 59
Note ON: Time 104881, Note Name: A5, Velocity: 53
Note OFF: Time 104882, Note Name: G5
Note OFF: Time 104962, Note Name: A5
Note ON: Time 104962, Note Name: G5, Velocity: 59
Note OFF: Time 105042, Note Name: G5
Note ON: Time 105042, Note Name: A5, Velocity: 53
Note OFF: Time 105120, Note Name: E6
Note ON: Time 105120, Note Name: C6, Velocity: 77
Note ON: Time 105120, Note Name: G5, Velocity: 60
Note OFF: Time 105123, Note Name: A5
Note OFF: Time 105201, Note Name: G5
Note ON: Time 105201, Note Name: A5, Velocity: 52
Note OFF: Time 105281, Note Name: A5
Note ON: Time 105281, Note Name: G5, Velocity: 60
Note ON: Time 105361, Note Name: A5, Velocity: 55
Note OFF: Time 105362, Note Name: G5
Note OFF: Time 105442, Note Name: A5
Note ON: Time 105442, Note Name: G5, Velocity: 61
Note OFF: Time 105522, Note Name: G5
Note ON: Time 105522, Note Name: A5, Velocity: 54
Note OFF: Time 105600, Note Name: C6
Note ON: Time 105600, Note Name: G5, Velocity: 61
Note ON: Time 105600, Note Name: A#5, Velocity: 83
Note OFF: Time 105603, Note Name: A5
Note OFF: Time 105681, Note Name: G5
Note ON: Time 105681, Note Name: A5, Velocity: 53
Note OFF: Time 105761, Note Name: A5
Note ON: Time 105761, Note Name: G5, Velocity: 62
Note OFF: Time 105840, Note Name: A#5
Note ON: Time 105840, Note Name: B5, Velocity: 75
Note ON: Time 105841, Note Name: A5, Velocity: 56
Note OFF: Time 105842, Note Name: G5
Note OFF: Time 105922, Note Name: A5
Note ON: Time 105922, Note Name: G5, Velocity: 62
Note OFF: Time 106002, Note Name: G5
Note ON: Time 106002, Note Name: A5, Velocity: 56
Note ON: Time 106080, Note Name: G5, Velocity: 63
Note OFF: Time 106083, Note Name: A5
Note OFF: Time 106161, Note Name: G5
Note ON: Time 106161, Note Name: A5, Velocity: 55
Note OFF: Time 106241, Note Name: A5
Note ON: Time 106241, Note Name: G5, Velocity: 64
Note OFF: Time 106320, Note Name: B5
Note ON: Time 106320, Note Name: D6, Velocity: 86
Note ON: Time 106321, Note Name: A5, Velocity: 57
Note OFF: Time 106322, Note Name: G5
Note OFF: Time 106402, Note Name: A5
Note ON: Time 106402, Note Name: G5, Velocity: 64
Note OFF: Time 106482, Note Name: G5
Note ON: Time 106482, Note Name: A5, Velocity: 56
Note OFF: Time 106560, Note Name: D6
Note ON: Time 106560, Note Name: D6, Velocity: 75
Note OFF: Time 106563, Note Name: A5
Note OFF: Time 106641, Note Name: D6
Note ON: Time 106641, Note Name: E6, Velocity: 66
Note OFF: Time 106721, Note Name: E6
Note ON: Time 106721, Note Name: D6, Velocity: 75
Note ON: Time 106800, Note Name: D5, Velocity: 60
Note ON: Time 106801, Note Name: E6, Velocity: 64
Note OFF: Time 106802, Note Name: D6
Note OFF: Time 106882, Note Name: E6
Note ON: Time 106882, Note Name: D6, Velocity: 75
Note OFF: Time 106962, Note Name: D6
Note ON: Time 106962, Note Name: E6, Velocity: 68
Note OFF: Time 107040, Note Name: D5
Note ON: Time 107040, Note Name: D6, Velocity: 78
Note OFF: Time 107043, Note Name: E6
Note OFF: Time 107121, Note Name: D6
Note ON: Time 107121, Note Name: E6, Velocity: 69
Note OFF: Time 107201, Note Name: E6
Note ON: Time 107201, Note Name: D6, Velocity: 75
Note ON: Time 107280, Note Name: C#6, Velocity: 75
Note OFF: Time 107282, Note Name: D6
Note OFF: Time 107400, Note Name: C#6
Note ON: Time 107400, Note Name: D6, Velocity: 79
Note OFF: Time 107520, Note Name: D6
Note ON: Time 107520, Note Name: F6, Velocity: 73
Note ON: Time 107520, Note Name: D6, Velocity: 73
Note ON: Time 107520, Note Name: B6, Velocity: 73
Note ON: Time 107520, Note Name: D7, Velocity: 86
Note OFF: Time 107640, Note Name: D7
Note OFF: Time 107640, Note Name: F6
Note OFF: Time 107640, Note Name: D6
Note OFF: Time 107640, Note Name: B6
Note ON: Time 107760, Note Name: D6, Velocity: 66
Note ON: Time 107760, Note Name: F6, Velocity: 66
Note ON: Time 107760, Note Name: B6, Velocity: 66
Note ON: Time 107760, Note Name: D7, Velocity: 78
Note OFF: Time 108240, Note Name: D7
Note OFF: Time 108240, Note Name: D6
Note OFF: Time 108240, Note Name: F6
Note OFF: Time 108240, Note Name: B6
Note ON: Time 108240, Note Name: D6, Velocity: 66
Note ON: Time 108240, Note Name: C6, Velocity: 66
Note ON: Time 108240, Note Name: F6, Velocity: 66
Note ON: Time 108240, Note Name: C7, Velocity: 78
Note OFF: Time 108360, Note Name: C7
Note OFF: Time 108360, Note Name: D6
Note OFF: Time 108360, Note Name: C6
Note OFF: Time 108360, Note Name: F6
Note ON: Time 108480, Note Name: F6, Velocity: 67
Note ON: Time 108480, Note Name: B6, Velocity: 79
Note ON: Time 108480, Note Name: B5, Velocity: 67
Note ON: Time 108480, Note Name: D6, Velocity: 67
Note OFF: Time 108600, Note Name: D6
Note OFF: Time 108600, Note Name: F6
Note OFF: Time 108600, Note Name: B6
Note OFF: Time 108600, Note Name: B5
Note ON: Time 108720, Note Name: D6, Velocity: 70
Note ON: Time 108720, Note Name: C7, Velocity: 83
Note ON: Time 108720, Note Name: F6, Velocity: 70
Note ON: Time 108720, Note Name: C6, Velocity: 70
Note OFF: Time 108840, Note Name: C6
Note OFF: Time 108840, Note Name: D6
Note OFF: Time 108840, Note Name: C7
Note OFF: Time 108840, Note Name: F6
Note ON: Time 108960, Note Name: D7, Velocity: 82
Note ON: Time 108960, Note Name: D6, Velocity: 69
Note ON: Time 108960, Note Name: F6, Velocity: 69
Note OFF: Time 109080, Note Name: F6
Note OFF: Time 109080, Note Name: D6
Note OFF: Time 109080, Note Name: D7
Note ON: Time 109200, Note Name: B6, Velocity: 69
Note ON: Time 109200, Note Name: B5, Velocity: 58
Note ON: Time 109200, Note Name: D6, Velocity: 58
Note ON: Time 109200, Note Name: E6, Velocity: 58
Note OFF: Time 109320, Note Name: E6
Note OFF: Time 109320, Note Name: B6
Note OFF: Time 109320, Note Name: B5
Note OFF: Time 109320, Note Name: D6
Note ON: Time 109440, Note Name: E6, Velocity: 50
Note ON: Time 109440, Note Name: C7, Velocity: 59
Note ON: Time 109440, Note Name: C6, Velocity: 50
Note OFF: Time 109560, Note Name: C6
Note OFF: Time 109560, Note Name: C7
Note OFF: Time 109560, Note Name: E6
Note ON: Time 109680, Note Name: B5, Velocity: 45
Note ON: Time 109680, Note Name: D6, Velocity: 45
Note ON: Time 109680, Note Name: E6, Velocity: 45
Note ON: Time 109680, Note Name: B6, Velocity: 53
Note OFF: Time 109800, Note Name: B6
Note OFF: Time 109800, Note Name: B5
Note OFF: Time 109800, Note Name: D6
Note OFF: Time 109800, Note Name: E6
Note ON: Time 109920, Note Name: C7, Velocity: 59
Note ON: Time 109920, Note Name: E6, Velocity: 50
Note ON: Time 109920, Note Name: C6, Velocity: 50
Note OFF: Time 110040, Note Name: C6
Note OFF: Time 110040, Note Name: E6
Note OFF: Time 110040, Note Name: C7
Note ON: Time 110160, Note Name: C6, Velocity: 45
Note ON: Time 110160, Note Name: A6, Velocity: 53
Note ON: Time 110160, Note Name: E6, Velocity: 45
Note ON: Time 110160, Note Name: A5, Velocity: 45
Note OFF: Time 110280, Note Name: A5
Note OFF: Time 110280, Note Name: C6
Note OFF: Time 110280, Note Name: A6
Note OFF: Time 110280, Note Name: E6
Note ON: Time 110400, Note Name: A5, Velocity: 50
Note ON: Time 110400, Note Name: E6, Velocity: 50
Note ON: Time 110400, Note Name: G6, Velocity: 59
Note OFF: Time 110520, Note Name: G6
Note OFF: Time 110520, Note Name: E6
Note OFF: Time 110520, Note Name: A5
Note ON: Time 110640, Note Name: G6, Velocity: 53
Note ON: Time 110640, Note Name: A5, Velocity: 45
Note ON: Time 110640, Note Name: C#6, Velocity: 45
Note OFF: Time 110760, Note Name: C#6
Note OFF: Time 110760, Note Name: A5
Note OFF: Time 110760, Note Name: G6
Note ON: Time 110880, Note Name: F#6, Velocity: 59
Note ON: Time 110880, Note Name: A5, Velocity: 50
Note ON: Time 110880, Note Name: C6, Velocity: 50
Note OFF: Time 111000, Note Name: C6
Note OFF: Time 111000, Note Name: A5
Note OFF: Time 111000, Note Name: F#6
Note ON: Time 111120, Note Name: C6, Velocity: 45
Note ON: Time 111120, Note Name: A6, Velocity: 53
Note ON: Time 111120, Note Name: A5, Velocity: 45
Note OFF: Time 111240, Note Name: A5
Note OFF: Time 111240, Note Name: A6
Note OFF: Time 111240, Note Name: C6
Note ON: Time 111360, Note Name: G6, Velocity: 64
Note ON: Time 111360, Note Name: B5, Velocity: 55
Note ON: Time 111360, Note Name: G5, Velocity: 55
Note OFF: Time 111480, Note Name: G5
Note OFF: Time 111480, Note Name: B5
Note OFF: Time 111480, Note Name: G6
Note ON: Time 111600, Note Name: B5, Velocity: 50
Note ON: Time 111600, Note Name: D6, Velocity: 59
Note ON: Time 111600, Note Name: D5, Velocity: 50
Note OFF: Time 111720, Note Name: D5
Note OFF: Time 111720, Note Name: D6
Note OFF: Time 111720, Note Name: B5
Note ON: Time 111840, Note Name: C6, Velocity: 58
Note ON: Time 111840, Note Name: F#5, Velocity: 58
Note ON: Time 111840, Note Name: F#6, Velocity: 69
Note OFF: Time 111960, Note Name: F#6
Note OFF: Time 111960, Note Name: F#5
Note OFF: Time 111960, Note Name: C6
Note ON: Time 112080, Note Name: F#6, Velocity: 55
Note ON: Time 112080, Note Name: C6, Velocity: 55
Note ON: Time 112080, Note Name: A6, Velocity: 65
Note ON: Time 112080, Note Name: A5, Velocity: 55
Note OFF: Time 112200, Note Name: A5
Note OFF: Time 112200, Note Name: F#6
Note OFF: Time 112200, Note Name: C6
Note OFF: Time 112200, Note Name: A6
Note ON: Time 112320, Note Name: B5, Velocity: 63
Note ON: Time 112320, Note Name: G5, Velocity: 63
Note ON: Time 112320, Note Name: G6, Velocity: 75
Note OFF: Time 112440, Note Name: G6
Note OFF: Time 112440, Note Name: G5
Note OFF: Time 112440, Note Name: B5
Note ON: Time 112560, Note Name: B5, Velocity: 59
Note ON: Time 112560, Note Name: D5, Velocity: 59
Note ON: Time 112560, Note Name: D6, Velocity: 69
Note OFF: Time 112680, Note Name: D6
Note OFF: Time 112680, Note Name: D5
Note OFF: Time 112680, Note Name: B5
Note ON: Time 112800, Note Name: C6, Velocity: 69
Note ON: Time 112800, Note Name: F#6, Velocity: 80
Note ON: Time 112800, Note Name: F#5, Velocity: 69
Note OFF: Time 112920, Note Name: F#5
Note OFF: Time 112920, Note Name: F#6
Note OFF: Time 112920, Note Name: C6
Note ON: Time 113040, Note Name: F#6, Velocity: 64
Note ON: Time 113040, Note Name: C6, Velocity: 64
Note ON: Time 113040, Note Name: A5, Velocity: 64
Note ON: Time 113040, Note Name: A6, Velocity: 76
Note OFF: Time 113160, Note Name: A6
Note OFF: Time 113160, Note Name: F#6
Note OFF: Time 113160, Note Name: C6
Note OFF: Time 113160, Note Name: A5
Note ON: Time 113280, Note Name: G5, Velocity: 77
Note OFF: Time 113400, Note Name: G5
Note ON: Time 113400, Note Name: G6, Velocity: 70
Note OFF: Time 113520, Note Name: G6
Note ON: Time 113520, Note Name: D5, Velocity: 79
Note OFF: Time 113640, Note Name: D5
Note ON: Time 113640, Note Name: D6, Velocity: 73
Note OFF: Time 113760, Note Name: D6
Note ON: Time 113760, Note Name: F#5, Velocity: 82
Note OFF: Time 113880, Note Name: F#5
Note ON: Time 113880, Note Name: F#6, Velocity: 76
Note OFF: Time 114000, Note Name: F#6
Note ON: Time 114000, Note Name: A5, Velocity: 85
Note OFF: Time 114120, Note Name: A5
Note ON: Time 114120, Note Name: A6, Velocity: 79
Note OFF: Time 114240, Note Name: A6
Note ON: Time 114240, Note Name: G5, Velocity: 88
Note OFF: Time 114360, Note Name: G5
Note ON: Time 114360, Note Name: G6, Velocity: 82
Note OFF: Time 114480, Note Name: G6
Note ON: Time 114480, Note Name: D5, Velocity: 91
Note OFF: Time 114600, Note Name: D5
Note ON: Time 114600, Note Name: D6, Velocity: 86
Note OFF: Time 114720, Note Name: D6
Note ON: Time 114720, Note Name: F#5, Velocity: 94
Note OFF: Time 114840, Note Name: F#5
Note ON: Time 114840, Note Name: F#6, Velocity: 90
Note OFF: Time 114960, Note Name: F#6
Note ON: Time 114960, Note Name: A5, Velocity: 99
Note OFF: Time 115080, Note Name: A5
Note ON: Time 115080, Note Name: A6, Velocity: 92
Note OFF: Time 115200, Note Name: A6
Note ON: Time 115200, Note Name: G6, Velocity: 110
Note ON: Time 115200, Note Name: G5, Velocity: 91
Note OFF: Time 115380, Note Name: G5
Note OFF: Time 115380, Note Name: G6
Note ON: Time 115680, Note Name: A6, Velocity: 112
Note ON: Time 115680, Note Name: A5, Velocity: 94
Note OFF: Time 115860, Note Name: A5
Note OFF: Time 115860, Note Name: A6
Note ON: Time 116160, Note Name: A#5, Velocity: 99
Note ON: Time 116160, Note Name: A#6, Velocity: 118
Note OFF: Time 117000, Note Name: A#6
Note OFF: Time 117000, Note Name: A#5
Note ON: Time 118920, Note Name: A#3, Velocity: 57
Note OFF: Time 119040, Note Name: A#3
Note ON: Time 119040, Note Name: A#4, Velocity: 81
Note OFF: Time 119400, Note Name: A#4
Note ON: Time 119400, Note Name: A#4, Velocity: 71
Note OFF: Time 119520, Note Name: A#4
Note ON: Time 119520, Note Name: A#4, Velocity: 78
Note OFF: Time 119760, Note Name: A#4
Note ON: Time 121320, Note Name: F5, Velocity: 88
Note ON: Time 121320, Note Name: D6, Velocity: 105
Note ON: Time 121320, Note Name: A#5, Velocity: 88
Note ON: Time 121320, Note Name: D5, Velocity: 88
Note OFF: Time 121440, Note Name: D5
Note OFF: Time 121440, Note Name: F5
Note OFF: Time 121440, Note Name: D6
Note OFF: Time 121440, Note Name: A#5
Note ON: Time 121440, Note Name: D6, Velocity: 94
Note ON: Time 121440, Note Name: D5, Velocity: 79
Note ON: Time 121440, Note Name: A#5, Velocity: 79
Note ON: Time 121440, Note Name: F5, Velocity: 79
Note OFF: Time 121620, Note Name: F5
Note OFF: Time 121620, Note Name: D6
Note OFF: Time 121620, Note Name: D5
Note OFF: Time 121620, Note Name: A#5
Note ON: Time 121680, Note Name: D5, Velocity: 80
Note ON: Time 121680, Note Name: F5, Velocity: 80
Note ON: Time 121680, Note Name: D#6, Velocity: 100
Note ON: Time 121680, Note Name: A#5, Velocity: 80
Note OFF: Time 121725, Note Name: A#5
Note OFF: Time 121725, Note Name: D5
Note OFF: Time 121725, Note Name: F5
Note OFF: Time 121725, Note Name: D#6
Note ON: Time 121800, Note Name: D5, Velocity: 82
Note ON: Time 121800, Note Name: F5, Velocity: 82
Note ON: Time 121800, Note Name: A#5, Velocity: 82
Note ON: Time 121800, Note Name: D6, Velocity: 97
Note OFF: Time 121845, Note Name: D6
Note OFF: Time 121845, Note Name: D5
Note OFF: Time 121845, Note Name: F5
Note OFF: Time 121845, Note Name: A#5
Note ON: Time 121920, Note Name: F5, Velocity: 88
Note ON: Time 121920, Note Name: D6, Velocity: 105
Note ON: Time 121920, Note Name: A#5, Velocity: 88
Note ON: Time 121920, Note Name: D5, Velocity: 88
Note OFF: Time 122040, Note Name: D5
Note OFF: Time 122040, Note Name: F5
Note OFF: Time 122040, Note Name: D6
Note OFF: Time 122040, Note Name: A#5
Note ON: Time 122160, Note Name: A#4, Velocity: 80
Note ON: Time 122160, Note Name: A#5, Velocity: 96
Note ON: Time 122160, Note Name: F5, Velocity: 80
Note ON: Time 122160, Note Name: D5, Velocity: 80
Note OFF: Time 122280, Note Name: D5
Note OFF: Time 122280, Note Name: A#4
Note OFF: Time 122280, Note Name: A#5
Note OFF: Time 122280, Note Name: F5
Note ON: Time 123240, Note Name: F5, Velocity: 88
Note ON: Time 123240, Note Name: A#5, Velocity: 88
Note ON: Time 123240, Note Name: D6, Velocity: 88
Note ON: Time 123240, Note Name: F6, Velocity: 105
Note OFF: Time 123360, Note Name: F6
Note OFF: Time 123360, Note Name: F5
Note OFF: Time 123360, Note Name: A#5
Note OFF: Time 123360, Note Name: D6
Note ON: Time 123360, Note Name: F6, Velocity: 94
Note ON: Time 123360, Note Name: D6, Velocity: 79
Note ON: Time 123360, Note Name: A#5, Velocity: 79
Note ON: Time 123360, Note Name: F5, Velocity: 79
Note OFF: Time 123540, Note Name: F5
Note OFF: Time 123540, Note Name: F6
Note OFF: Time 123540, Note Name: D6
Note OFF: Time 123540, Note Name: A#5
Note ON: Time 123600, Note Name: A#5, Velocity: 80
Note ON: Time 123600, Note Name: G6, Velocity: 100
Note ON: Time 123600, Note Name: F5, Velocity: 80
Note ON: Time 123600, Note Name: D6, Velocity: 80
Note OFF: Time 123645, Note Name: D6
Note OFF: Time 123645, Note Name: A#5
Note OFF: Time 123645, Note Name: G6
Note OFF: Time 123645, Note Name: F5
Note ON: Time 123720, Note Name: A#5, Velocity: 82
Note ON: Time 123720, Note Name: D6, Velocity: 82
Note ON: Time 123720, Note Name: F6, Velocity: 97
Note ON: Time 123720, Note Name: F5, Velocity: 82
Note OFF: Time 123765, Note Name: F5
Note OFF: Time 123765, Note Name: A#5
Note OFF: Time 123765, Note Name: D6
Note OFF: Time 123765, Note Name: F6
Note ON: Time 123840, Note Name: F6, Velocity: 105
Note ON: Time 123840, Note Name: F5, Velocity: 88
Note ON: Time 123840, Note Name: A#5, Velocity: 88
Note ON: Time 123840, Note Name: D6, Velocity: 88
Note OFF: Time 123960, Note Name: D6
Note OFF: Time 123960, Note Name: F6
Note OFF: Time 123960, Note Name: F5
Note OFF: Time 123960, Note Name: A#5
Note ON: Time 124080, Note Name: D6, Velocity: 96
Note ON: Time 124080, Note Name: A#5, Velocity: 80
Note ON: Time 124080, Note Name: D5, Velocity: 80
Note ON: Time 124080, Note Name: F5, Velocity: 80
Note OFF: Time 124200, Note Name: F5
Note OFF: Time 124200, Note Name: D6
Note OFF: Time 124200, Note Name: A#5
Note OFF: Time 124200, Note Name: D5
Note ON: Time 124560, Note Name: A#4, Velocity: 50
Note OFF: Time 124680, Note Name: A#4
Note ON: Time 124680, Note Name: C5, Velocity: 45
Note OFF: Time 124800, Note Name: C5
Note ON: Time 124800, Note Name: D5, Velocity: 50
Note ON: Time 125040, Note Name: G4, Velocity: 39
Note OFF: Time 125280, Note Name: G4
Note OFF: Time 125280, Note Name: D5
Note ON: Time 125280, Note Name: C5, Velocity: 39
Note ON: Time 125280, Note Name: A4, Velocity: 33
Note OFF: Time 125520, Note Name: A4
Note OFF: Time 125520, Note Name: C5
Note ON: Time 125520, Note Name: C5, Velocity: 50
Note ON: Time 125520, Note Name: G#4, Velocity: 42
Note OFF: Time 125640, Note Name: C5
Note ON: Time 125640, Note Name: D5, Velocity: 46
Note OFF: Time 125760, Note Name: D5
Note OFF: Time 125760, Note Name: G#4
Note ON: Time 125760, Note Name: G4, Velocity: 46
Note ON: Time 125760, Note Name: D#5, Velocity: 55
Note OFF: Time 126000, Note Name: G4
Note ON: Time 126000, Note Name: A4, Velocity: 45
Note OFF: Time 126240, Note Name: A4
Note OFF: Time 126240, Note Name: D#5
Note ON: Time 126240, Note Name: A#4, Velocity: 38
Note ON: Time 126240, Note Name: D5, Velocity: 45
Note OFF: Time 126480, Note Name: D5
Note OFF: Time 126480, Note Name: A#4
Note ON: Time 126480, Note Name: G4, Velocity: 39
Note ON: Time 126480, Note Name: D5, Velocity: 47
Note OFF: Time 126600, Note Name: D5
Note ON: Time 126600, Note Name: D#5, Velocity: 50
Note OFF: Time 126720, Note Name: D#5
Note OFF: Time 126720, Note Name: G4
Note ON: Time 126720, Note Name: F5, Velocity: 54
Note ON: Time 126720, Note Name: F4, Velocity: 45
Note OFF: Time 126960, Note Name: F4
Note ON: Time 126960, Note Name: A#4, Velocity: 45
Note OFF: Time 127080, Note Name: F5
Note ON: Time 127080, Note Name: G5, Velocity: 52
Note OFF: Time 127200, Note Name: G5
Note OFF: Time 127200, Note Name: A#4
Note ON: Time 127200, Note Name: G4, Velocity: 42
Note ON: Time 127200, Note Name: F5, Velocity: 50
Note OFF: Time 127320, Note Name: F5
Note ON: Time 127320, Note Name: D#5, Velocity: 43
Note OFF: Time 127440, Note Name: G4
Note ON: Time 127440, Note Name: A4, Velocity: 43
Note OFF: Time 127560, Note Name: D#5
Note ON: Time 127560, Note Name: F5, Velocity: 45
Note OFF: Time 127680, Note Name: F5
Note OFF: Time 127680, Note Name: A4
Note ON: Time 127680, Note Name: D#5, Velocity: 49
Note ON: Time 127680, Note Name: F4, Velocity: 35
Note ON: Time 127680, Note Name: A#4, Velocity: 35
Note OFF: Time 127800, Note Name: D#5
Note ON: Time 127800, Note Name: D5, Velocity: 41
Note OFF: Time 127920, Note Name: D5
Note OFF: Time 127920, Note Name: A#4
Note OFF: Time 127920, Note Name: F4
Note ON: Time 127920, Note Name: C5, Velocity: 30
Note ON: Time 127920, Note Name: G4, Velocity: 30
Note ON: Time 127920, Note Name: F5, Velocity: 43
Note OFF: Time 128040, Note Name: F5
Note ON: Time 128040, Note Name: D#5, Velocity: 37
Note OFF: Time 128160, Note Name: D#5
Note OFF: Time 128160, Note Name: G4
Note OFF: Time 128160, Note Name: C5
Note ON: Time 128160, Note Name: A4, Velocity: 30
Note ON: Time 128160, Note Name: C5, Velocity: 35
Note OFF: Time 128400, Note Name: C5
Note OFF: Time 128400, Note Name: A4
Note ON: Time 128400, Note Name: A#5, Velocity: 50
Note OFF: Time 128520, Note Name: A#5
Note ON: Time 128520, Note Name: C6, Velocity: 45
Note OFF: Time 128640, Note Name: C6
Note ON: Time 128640, Note Name: D6, Velocity: 50
Note ON: Time 128880, Note Name: G5, Velocity: 39
Note OFF: Time 129120, Note Name: G5
Note OFF: Time 129120, Note Name: D6
Note ON: Time 129120, Note Name: A5, Velocity: 33
Note ON: Time 129120, Note Name: C6, Velocity: 39
Note OFF: Time 129360, Note Name: C6
Note OFF: Time 129360, Note Name: A5
Note ON: Time 129360, Note Name: G#5, Velocity: 42
Note ON: Time 129360, Note Name: C6, Velocity: 50
Note OFF: Time 129480, Note Name: C6
Note ON: Time 129480, Note Name: D6, Velocity: 46
Note OFF: Time 129600, Note Name: D6
Note OFF: Time 129600, Note Name: G#5
Note ON: Time 129600, Note Name: G5, Velocity: 46
Note ON: Time 129600, Note Name: D#6, Velocity: 55
Note OFF: Time 129840, Note Name: G5
Note ON: Time 129840, Note Name: A5, Velocity: 45
Note OFF: Time 130080, Note Name: A5
Note OFF: Time 130080, Note Name: D#6
Note ON: Time 130080, Note Name: A#5, Velocity: 38
Note ON: Time 130080, Note Name: D6, Velocity: 45
Note OFF: Time 130320, Note Name: D6
Note OFF: Time 130320, Note Name: A#5
Note ON: Time 130320, Note Name: D6, Velocity: 51
Note ON: Time 130320, Note Name: G5, Velocity: 39
Note OFF: Time 130440, Note Name: D6
Note ON: Time 130440, Note Name: D#6, Velocity: 55
Note OFF: Time 130560, Note Name: D#6
Note OFF: Time 130560, Note Name: G5
Note ON: Time 130560, Note Name: F5, Velocity: 45
Note ON: Time 130560, Note Name: F6, Velocity: 59
Note OFF: Time 130800, Note Name: F5
Note ON: Time 130800, Note Name: A#5, Velocity: 45
Note OFF: Time 130920, Note Name: F6
Note ON: Time 130920, Note Name: G6, Velocity: 57
Note OFF: Time 131040, Note Name: G6
Note OFF: Time 131040, Note Name: A#5
Note ON: Time 131040, Note Name: G5, Velocity: 42
Note ON: Time 131040, Note Name: F6, Velocity: 55
Note OFF: Time 131160, Note Name: F6
Note ON: Time 131160, Note Name: D#6, Velocity: 47
Note OFF: Time 131280, Note Name: G5
Note ON: Time 131280, Note Name: A5, Velocity: 43
Note OFF: Time 131400, Note Name: D#6
Note ON: Time 131400, Note Name: F6, Velocity: 50
Note OFF: Time 131520, Note Name: F6
Note OFF: Time 131520, Note Name: A5
Note ON: Time 131520, Note Name: D#6, Velocity: 57
Note ON: Time 131520, Note Name: F5, Velocity: 44
Note OFF: Time 131640, Note Name: D#6
Note ON: Time 131640, Note Name: D6, Velocity: 49
Note OFF: Time 131760, Note Name: F5
Note ON: Time 131760, Note Name: A#5, Velocity: 46
Note OFF: Time 131880, Note Name: D6
Note ON: Time 131880, Note Name: D#6, Velocity: 53
Note OFF: Time 132000, Note Name: D#6
Note ON: Time 132000, Note Name: D6, Velocity: 60
Note OFF: Time 132120, Note Name: D6
Note ON: Time 132120, Note Name: C6, Velocity: 49
Note OFF: Time 132240, Note Name: C6
Note OFF: Time 132240, Note Name: A#5
Note ON: Time 132240, Note Name: F5, Velocity: 47
Note ON: Time 132240, Note Name: D6, Velocity: 55
Note ON: Time 132240, Note Name: A5, Velocity: 47
Note OFF: Time 132360, Note Name: D6
Note ON: Time 132360, Note Name: D#6, Velocity: 51
Note OFF: Time 132480, Note Name: D#6
Note OFF: Time 132480, Note Name: A5
Note OFF: Time 132480, Note Name: F5
Note ON: Time 132480, Note Name: G6, Velocity: 67
Note ON: Time 132480, Note Name: F5, Velocity: 52
Note ON: Time 132480, Note Name: A#5, Velocity: 52
Note OFF: Time 132600, Note Name: G6
Note ON: Time 132600, Note Name: F6, Velocity: 53
Note OFF: Time 132720, Note Name: F6
Note OFF: Time 132720, Note Name: A#5
Note OFF: Time 132720, Note Name: F5
Note ON: Time 132720, Note Name: A#5, Velocity: 41
Note ON: Time 132720, Note Name: G6, Velocity: 58
Note OFF: Time 132840, Note Name: G6
Note ON: Time 132840, Note Name: F6, Velocity: 59
Note OFF: Time 132958, Note Name: F6
Note OFF: Time 132960, Note Name: A#5
Note ON: Time 132960, Note Name: G5, Velocity: 53
Note ON: Time 132960, Note Name: F6, Velocity: 69
Note OFF: Time 133080, Note Name: F6
Note ON: Time 133080, Note Name: D#6, Velocity: 55
Note OFF: Time 133200, Note Name: D#6
Note OFF: Time 133200, Note Name: G5
Note ON: Time 133200, Note Name: F6, Velocity: 61
Note ON: Time 133200, Note Name: A5, Velocity: 43
Note OFF: Time 133320, Note Name: F6
Note ON: Time 133320, Note Name: D#6, Velocity: 56
Note OFF: Time 133440, Note Name: D#6
Note OFF: Time 133440, Note Name: A5
Note ON: Time 133440, Note Name: F5, Velocity: 57
Note ON: Time 133440, Note Name: D#6, Velocity: 74
Note OFF: Time 133560, Note Name: D#6
Note ON: Time 133560, Note Name: D6, Velocity: 57
Note OFF: Time 133680, Note Name: D6
Note OFF: Time 133680, Note Name: F5
Note ON: Time 133680, Note Name: A#5, Velocity: 45
Note ON: Time 133680, Note Name: D#6, Velocity: 63
Note OFF: Time 133800, Note Name: D#6
Note ON: Time 133800, Note Name: D6, Velocity: 58
Note OFF: Time 133918, Note Name: D6
Note ON: Time 133920, Note Name: D6, Velocity: 75
Note OFF: Time 134040, Note Name: D6
Note ON: Time 134040, Note Name: C6, Velocity: 61
Note OFF: Time 134160, Note Name: C6
Note OFF: Time 134160, Note Name: A#5
Note ON: Time 134160, Note Name: D6, Velocity: 67
Note ON: Time 134160, Note Name: A5, Velocity: 47
Note ON: Time 134160, Note Name: F5, Velocity: 47
Note OFF: Time 134280, Note Name: D6
Note ON: Time 134280, Note Name: D#6, Velocity: 70
Note OFF: Time 134400, Note Name: D#6
Note OFF: Time 134400, Note Name: F5
Note OFF: Time 134400, Note Name: A5
Note ON: Time 134400, Note Name: A#5, Velocity: 58
Note ON: Time 134400, Note Name: G6, Velocity: 69
Note ON: Time 134400, Note Name: F5, Velocity: 58
Note OFF: Time 134520, Note Name: G6
Note ON: Time 134520, Note Name: F6, Velocity: 70
Note OFF: Time 134640, Note Name: F6
Note OFF: Time 134640, Note Name: F5
Note OFF: Time 134640, Note Name: A#5
Note ON: Time 134640, Note Name: A#5, Velocity: 60
Note ON: Time 134640, Note Name: E6, Velocity: 76
Note ON: Time 134760, Note Name: G6, Velocity: 72
Note OFF: Time 134880, Note Name: E6
Note OFF: Time 134880, Note Name: A#5
Note ON: Time 134880, Note Name: D#6, Velocity: 67
Note OFF: Time 135000, Note Name: G6
Note ON: Time 135000, Note Name: G#6, Velocity: 74
Note OFF: Time 135120, Note Name: D#6
Note ON: Time 135120, Note Name: D#6, Velocity: 76
Note ON: Time 135120, Note Name: C6, Velocity: 64
Note OFF: Time 135240, Note Name: G#6
Note ON: Time 135240, Note Name: A6, Velocity: 77
Note OFF: Time 135360, Note Name: A6
Note OFF: Time 135360, Note Name: C6
Note OFF: Time 135360, Note Name: D#6
Note ON: Time 135360, Note Name: D6, Velocity: 73
Note ON: Time 135360, Note Name: A#5, Velocity: 73
Note ON: Time 135360, Note Name: C7, Velocity: 86
Note OFF: Time 135480, Note Name: C7
Note ON: Time 135480, Note Name: A#6, Velocity: 72
Note OFF: Time 135600, Note Name: A#6
Note OFF: Time 135600, Note Name: A#5
Note OFF: Time 135600, Note Name: D6
Note ON: Time 135600, Note Name: A6, Velocity: 84
Note ON: Time 135600, Note Name: A#5, Velocity: 71
Note ON: Time 135600, Note Name: D#6, Velocity: 71
Note OFF: Time 135720, Note Name: A6
Note ON: Time 135720, Note Name: G6, Velocity: 74
Note OFF: Time 135840, Note Name: G6
Note OFF: Time 135840, Note Name: D#6
Note OFF: Time 135840, Note Name: A#5
Note ON: Time 135840, Note Name: F6, Velocity: 86
Note ON: Time 135840, Note Name: D6, Velocity: 72
Note ON: Time 135840, Note Name: A#5, Velocity: 72
Note OFF: Time 135960, Note Name: A#5
Note OFF: Time 135960, Note Name: D6
Note OFF: Time 135960, Note Name: F6
Note ON: Time 136080, Note Name: A6, Velocity: 80
Note ON: Time 136080, Note Name: C6, Velocity: 67
Note ON: Time 136080, Note Name: F6, Velocity: 80
Note ON: Time 136080, Note Name: A5, Velocity: 67
Note OFF: Time 136200, Note Name: A5
Note OFF: Time 136200, Note Name: A6
Note OFF: Time 136200, Note Name: C6
Note OFF: Time 136200, Note Name: F6
Note ON: Time 136320, Note Name: A#6, Velocity: 101
Note ON: Time 136320, Note Name: D6, Velocity: 85
Note ON: Time 136320, Note Name: F6, Velocity: 85
Note ON: Time 136320, Note Name: A#5, Velocity: 85
Note OFF: Time 136800, Note Name: A#5
Note OFF: Time 136800, Note Name: A#6
Note OFF: Time 136800, Note Name: D6
Note OFF: Time 136800, Note Name: F6
Note ON: Time 136800, Note Name: D5, Velocity: 63
Note ON: Time 136800, Note Name: A#4, Velocity: 63
Note ON: Time 136800, Note Name: A#5, Velocity: 75
Note OFF: Time 137280, Note Name: A#5
Note OFF: Time 137280, Note Name: A#4
Note OFF: Time 137280, Note Name: D5
Note ON: Time 137280, Note Name: D5, Velocity: 50
Note ON: Time 137280, Note Name: F5, Velocity: 50
Note ON: Time 137280, Note Name: D6, Velocity: 59
Note OFF: Time 137340, Note Name: D6
Note OFF: Time 137340, Note Name: F5
Note OFF: Time 137340, Note Name: D5
Note ON: Time 137520, Note Name: A#5, Velocity: 61
Note ON: Time 137520, Note Name: D5, Velocity: 51
Note ON: Time 137520, Note Name: A#4, Velocity: 51
Note OFF: Time 137580, Note Name: A#4
Note OFF: Time 137580, Note Name: D5
Note OFF: Time 137580, Note Name: A#5
Note ON: Time 137760, Note Name: F5, Velocity: 51
Note ON: Time 137760, Note Name: D5, Velocity: 51
Note ON: Time 137760, Note Name: D6, Velocity: 61
Note OFF: Time 137820, Note Name: D6
Note OFF: Time 137820, Note Name: D5
Note OFF: Time 137820, Note Name: F5
Note ON: Time 138000, Note Name: C5, Velocity: 51
Note ON: Time 138000, Note Name: C6, Velocity: 61
Note ON: Time 138000, Note Name: D#5, Velocity: 51
Note OFF: Time 138060, Note Name: D#5
Note OFF: Time 138060, Note Name: C6
Note OFF: Time 138060, Note Name: C5
Note ON: Time 138240, Note Name: D#5, Velocity: 97
Note ON: Time 138240, Note Name: G5, Velocity: 97
Note ON: Time 138240, Note Name: D#6, Velocity: 116
Note OFF: Time 138720, Note Name: D#6
Note OFF: Time 138720, Note Name: G5
Note OFF: Time 138720, Note Name: D#5
Note ON: Time 138720, Note Name: C6, Velocity: 75
Note ON: Time 138720, Note Name: D#5, Velocity: 63
Note ON: Time 138720, Note Name: C5, Velocity: 63
Note OFF: Time 139200, Note Name: C5
Note OFF: Time 139200, Note Name: D#5
Note OFF: Time 139200, Note Name: C6
Note ON: Time 139200, Note Name: D#6, Velocity: 59
Note ON: Time 139200, Note Name: D#5, Velocity: 50
Note ON: Time 139200, Note Name: G5, Velocity: 50
Note OFF: Time 139260, Note Name: G5
Note OFF: Time 139260, Note Name: D#5
Note OFF: Time 139260, Note Name: D#6
Note ON: Time 139440, Note Name: C#5, Velocity: 51
Note ON: Time 139440, Note Name: E5, Velocity: 51
Note ON: Time 139440, Note Name: C#6, Velocity: 61
Note OFF: Time 139500, Note Name: C#6
Note OFF: Time 139500, Note Name: E5
Note OFF: Time 139500, Note Name: C#5
Note ON: Time 139680, Note Name: D#6, Velocity: 61
Note ON: Time 139680, Note Name: D#5, Velocity: 51
Note ON: Time 139680, Note Name: F#5, Velocity: 51
Note OFF: Time 139740, Note Name: F#5
Note OFF: Time 139740, Note Name: D#5
Note OFF: Time 139740, Note Name: D#6
Note ON: Time 139920, Note Name: D6, Velocity: 61
Note ON: Time 139920, Note Name: F5, Velocity: 51
Note ON: Time 139920, Note Name: D5, Velocity: 51
Note OFF: Time 139980, Note Name: D5
Note OFF: Time 139980, Note Name: F5
Note OFF: Time 139980, Note Name: D6
Note ON: Time 140160, Note Name: F6, Velocity: 111
Note ON: Time 140160, Note Name: G#5, Velocity: 93
Note ON: Time 140160, Note Name: F5, Velocity: 93
Note OFF: Time 140640, Note Name: F5
Note OFF: Time 140640, Note Name: G#5
Note OFF: Time 140640, Note Name: F6
Note ON: Time 140640, Note Name: D5, Velocity: 63
Note ON: Time 140640, Note Name: D6, Velocity: 75
Note ON: Time 140640, Note Name: F5, Velocity: 63
Note OFF: Time 141120, Note Name: F5
Note OFF: Time 141120, Note Name: D6
Note OFF: Time 141120, Note Name: D5
Note ON: Time 141120, Note Name: G#5, Velocity: 50
Note ON: Time 141120, Note Name: F5, Velocity: 50
Note ON: Time 141120, Note Name: F6, Velocity: 59
Note OFF: Time 141180, Note Name: F6
Note OFF: Time 141180, Note Name: F5
Note OFF: Time 141180, Note Name: G#5
Note ON: Time 141360, Note Name: D6, Velocity: 61
Note ON: Time 141360, Note Name: D5, Velocity: 51
Note ON: Time 141360, Note Name: F#5, Velocity: 51
Note OFF: Time 141420, Note Name: F#5
Note OFF: Time 141420, Note Name: D5
Note OFF: Time 141420, Note Name: D6
Note ON: Time 141600, Note Name: F6, Velocity: 61
Note ON: Time 141600, Note Name: G#5, Velocity: 51
Note ON: Time 141600, Note Name: F5, Velocity: 51
Note OFF: Time 141660, Note Name: F5
Note OFF: Time 141660, Note Name: G#5
Note OFF: Time 141660, Note Name: F6
Note ON: Time 141840, Note Name: D#6, Velocity: 61
Note ON: Time 141840, Note Name: D#5, Velocity: 51
Note ON: Time 141840, Note Name: G5, Velocity: 51
Note OFF: Time 141900, Note Name: G5
Note OFF: Time 141900, Note Name: D#5
Note OFF: Time 141900, Note Name: D#6
Note ON: Time 142080, Note Name: G5, Velocity: 93
Note ON: Time 142080, Note Name: A#5, Velocity: 93
Note ON: Time 142080, Note Name: G6, Velocity: 111
Note OFF: Time 142560, Note Name: G6
Note OFF: Time 142560, Note Name: A#5
Note OFF: Time 142560, Note Name: G5
Note ON: Time 142560, Note Name: D#5, Velocity: 63
Note ON: Time 142560, Note Name: G5, Velocity: 63
Note ON: Time 142560, Note Name: A#5, Velocity: 63
Note ON: Time 142560, Note Name: D#6, Velocity: 75
Note OFF: Time 143040, Note Name: D#6
Note OFF: Time 143040, Note Name: D#5
Note OFF: Time 143040, Note Name: G5
Note OFF: Time 143040, Note Name: A#5
Note ON: Time 143040, Note Name: A#5, Velocity: 50
Note ON: Time 143040, Note Name: G5, Velocity: 50
Note ON: Time 143040, Note Name: G6, Velocity: 59
Note OFF: Time 143100, Note Name: G6
Note OFF: Time 143100, Note Name: G5
Note OFF: Time 143100, Note Name: A#5
Note ON: Time 143280, Note Name: A#5, Velocity: 51
Note ON: Time 143280, Note Name: E6, Velocity: 61
Note ON: Time 143280, Note Name: E5, Velocity: 51
Note OFF: Time 143340, Note Name: E5
Note OFF: Time 143340, Note Name: E6
Note OFF: Time 143340, Note Name: A#5
Note ON: Time 143520, Note Name: F#5, Velocity: 56
Note ON: Time 143520, Note Name: A#5, Velocity: 56
Note ON: Time 143520, Note Name: F#6, Velocity: 67
Note OFF: Time 143580, Note Name: F#6
Note OFF: Time 143580, Note Name: A#5
Note OFF: Time 143580, Note Name: F#5
Note ON: Time 143760, Note Name: A#5, Velocity: 58
Note ON: Time 143760, Note Name: F6, Velocity: 69
Note ON: Time 143760, Note Name: F5, Velocity: 58
Note OFF: Time 143820, Note Name: F5
Note OFF: Time 143820, Note Name: F6
Note OFF: Time 143820, Note Name: A#5
Note ON: Time 144000, Note Name: G#5, Velocity: 59
Note ON: Time 144000, Note Name: A#5, Velocity: 59
Note ON: Time 144000, Note Name: G#6, Velocity: 69
Note OFF: Time 144060, Note Name: G#6
Note OFF: Time 144060, Note Name: A#5
Note OFF: Time 144060, Note Name: G#5
Note ON: Time 144240, Note Name: F#5, Velocity: 62
Note ON: Time 144240, Note Name: A#5, Velocity: 62
Note ON: Time 144240, Note Name: F#6, Velocity: 74
Note OFF: Time 144300, Note Name: F#6
Note OFF: Time 144300, Note Name: A#5
Note OFF: Time 144300, Note Name: F#5
Note ON: Time 144480, Note Name: G#5, Velocity: 64
Note ON: Time 144480, Note Name: A#5, Velocity: 64
Note ON: Time 144480, Note Name: G#6, Velocity: 76
Note OFF: Time 144540, Note Name: G#6
Note OFF: Time 144540, Note Name: A#5
Note OFF: Time 144540, Note Name: G#5
Note ON: Time 144720, Note Name: G6, Velocity: 79
Note ON: Time 144720, Note Name: A#5, Velocity: 66
Note ON: Time 144720, Note Name: G5, Velocity: 66
Note OFF: Time 144780, Note Name: G5
Note OFF: Time 144780, Note Name: A#5
Note OFF: Time 144780, Note Name: G6
Note ON: Time 144960, Note Name: G6, Velocity: 67
Note ON: Time 144960, Note Name: A#5, Velocity: 67
Note ON: Time 144960, Note Name: A#6, Velocity: 79
Note ON: Time 144960, Note Name: D#6, Velocity: 67
Note OFF: Time 145020, Note Name: D#6
Note OFF: Time 145020, Note Name: G6
Note OFF: Time 145020, Note Name: A#5
Note OFF: Time 145020, Note Name: A#6
Note ON: Time 145200, Note Name: G#6, Velocity: 84
Note ON: Time 145200, Note Name: G#5, Velocity: 70
Note OFF: Time 145260, Note Name: G#5
Note OFF: Time 145260, Note Name: G#6
Note ON: Time 145440, Note Name: A#5, Velocity: 72
Note ON: Time 145440, Note Name: A#6, Velocity: 86
Note OFF: Time 145500, Note Name: A#6
Note OFF: Time 145500, Note Name: A#5
Note ON: Time 145680, Note Name: A6, Velocity: 89
Note ON: Time 145680, Note Name: A5, Velocity: 74
Note OFF: Time 145740, Note Name: A5
Note OFF: Time 145740, Note Name: A6
Note ON: Time 145920, Note Name: C6, Velocity: 84
Note ON: Time 145920, Note Name: C7, Velocity: 99
Note OFF: Time 146040, Note Name: C7
Note OFF: Time 146040, Note Name: C6
Note ON: Time 146160, Note Name: A#6, Velocity: 88
Note ON: Time 146160, Note Name: A#5, Velocity: 74
Note OFF: Time 146280, Note Name: A#5
Note OFF: Time 146280, Note Name: A#6
Note ON: Time 146400, Note Name: G6, Velocity: 97
Note ON: Time 146400, Note Name: G5, Velocity: 82
Note OFF: Time 146520, Note Name: G5
Note OFF: Time 146520, Note Name: G6
Note ON: Time 146640, Note Name: F5, Velocity: 76
Note ON: Time 146640, Note Name: F6, Velocity: 90
Note OFF: Time 146760, Note Name: F6
Note OFF: Time 146760, Note Name: F5
Note ON: Time 146880, Note Name: D#5, Velocity: 85
Note ON: Time 146880, Note Name: D#6, Velocity: 97
Note OFF: Time 147000, Note Name: D#6
Note OFF: Time 147000, Note Name: D#5
Note ON: Time 147120, Note Name: D6, Velocity: 82
Note ON: Time 147120, Note Name: D5, Velocity: 69
Note OFF: Time 147240, Note Name: D5
Note OFF: Time 147240, Note Name: D6
Note ON: Time 147360, Note Name: C5, Velocity: 73
Note ON: Time 147360, Note Name: C6, Velocity: 87
Note OFF: Time 147480, Note Name: C6
Note OFF: Time 147480, Note Name: C5
Note ON: Time 147600, Note Name: A#5, Velocity: 81
Note ON: Time 147600, Note Name: A#4, Velocity: 68
Note OFF: Time 147720, Note Name: A#4
Note OFF: Time 147720, Note Name: A#5
Note ON: Time 147840, Note Name: G5, Velocity: 89
Note ON: Time 147840, Note Name: G4, Velocity: 75
Note OFF: Time 147960, Note Name: G4
Note OFF: Time 147960, Note Name: G5
Note ON: Time 148080, Note Name: F5, Velocity: 79
Note ON: Time 148080, Note Name: F4, Velocity: 66
Note OFF: Time 148200, Note Name: F4
Note OFF: Time 148200, Note Name: F5
Note ON: Time 148320, Note Name: D#4, Velocity: 69
Note ON: Time 148320, Note Name: D#5, Velocity: 82
Note OFF: Time 148440, Note Name: D#5
Note OFF: Time 148440, Note Name: D#4
Note ON: Time 148560, Note Name: D4, Velocity: 64
Note ON: Time 148560, Note Name: D5, Velocity: 76
Note OFF: Time 148680, Note Name: D5
Note OFF: Time 148680, Note Name: D4
Note ON: Time 148800, Note Name: C4, Velocity: 67
Note ON: Time 148800, Note Name: C5, Velocity: 80
Note OFF: Time 148920, Note Name: C5
Note OFF: Time 148920, Note Name: C4
Note ON: Time 149040, Note Name: A#4, Velocity: 71
Note ON: Time 149040, Note Name: A#3, Velocity: 59
Note OFF: Time 149160, Note Name: A#3
Note OFF: Time 149160, Note Name: A#4
Note ON: Time 149280, Note Name: G4, Velocity: 78
Note ON: Time 149280, Note Name: G3, Velocity: 65
Note OFF: Time 149400, Note Name: G3
Note OFF: Time 149400, Note Name: G4
Note ON: Time 149520, Note Name: F4, Velocity: 72
Note ON: Time 149520, Note Name: F3, Velocity: 61
Note OFF: Time 149640, Note Name: F3
Note OFF: Time 149640, Note Name: F4
Note ON: Time 149760, Note Name: A4, Velocity: 77
Note OFF: Time 150000, Note Name: A4
Note ON: Time 150000, Note Name: F4, Velocity: 67
Note OFF: Time 150240, Note Name: F4
Note ON: Time 150240, Note Name: C5, Velocity: 73
Note OFF: Time 150480, Note Name: C5
Note ON: Time 150480, Note Name: F4, Velocity: 67
Note OFF: Time 150720, Note Name: F4
Note ON: Time 150720, Note Name: F5, Velocity: 71
Note OFF: Time 150960, Note Name: F5
Note ON: Time 150960, Note Name: F4, Velocity: 59
Note OFF: Time 151200, Note Name: F4
Note ON: Time 151200, Note Name: A5, Velocity: 68
Note OFF: Time 151440, Note Name: A5
Note ON: Time 151440, Note Name: F4, Velocity: 56
Note OFF: Time 151680, Note Name: F4
Note ON: Time 151680, Note Name: C6, Velocity: 62
Note OFF: Time 151920, Note Name: C6
Note ON: Time 151920, Note Name: F4, Velocity: 49
Note OFF: Time 152160, Note Name: F4
Note ON: Time 152160, Note Name: F6, Velocity: 54
Note OFF: Time 152400, Note Name: F6
Note ON: Time 152400, Note Name: F4, Velocity: 45
Note OFF: Time 152640, Note Name: F4
Note ON: Time 152640, Note Name: F6, Velocity: 52
Note OFF: Time 152880, Note Name: F6
Note ON: Time 152880, Note Name: F4, Velocity: 41
Note OFF: Time 153120, Note Name: F4
Note ON: Time 153120, Note Name: F6, Velocity: 48
Note OFF: Time 153360, Note Name: F6
Note ON: Time 153960, Note Name: A#5, Velocity: 77
Note ON: Time 153960, Note Name: D6, Velocity: 92
Note ON: Time 153960, Note Name: F5, Velocity: 77
Note ON: Time 153960, Note Name: D5, Velocity: 77
Note OFF: Time 154080, Note Name: D5
Note OFF: Time 154080, Note Name: A#5
Note OFF: Time 154080, Note Name: D6
Note OFF: Time 154080, Note Name: F5
Note ON: Time 154080, Note Name: A#5, Velocity: 69
Note ON: Time 154080, Note Name: F5, Velocity: 69
Note ON: Time 154080, Note Name: D6, Velocity: 82
Note ON: Time 154080, Note Name: D5, Velocity: 69
Note OFF: Time 154320, Note Name: D5
Note OFF: Time 154320, Note Name: A#5
Note OFF: Time 154320, Note Name: F5
Note OFF: Time 154320, Note Name: D6
Note ON: Time 154320, Note Name: A#5, Velocity: 70
Note ON: Time 154320, Note Name: F5, Velocity: 70
Note ON: Time 154320, Note Name: D#6, Velocity: 89
Note ON: Time 154320, Note Name: D5, Velocity: 70
Note OFF: Time 154365, Note Name: D5
Note OFF: Time 154365, Note Name: A#5
Note OFF: Time 154365, Note Name: F5
Note OFF: Time 154365, Note Name: D#6
Note ON: Time 154440, Note Name: A#5, Velocity: 72
Note ON: Time 154440, Note Name: D5, Velocity: 72
Note ON: Time 154440, Note Name: F5, Velocity: 72
Note ON: Time 154440, Note Name: D6, Velocity: 85
Note OFF: Time 154485, Note Name: D6
Note OFF: Time 154485, Note Name: A#5
Note OFF: Time 154485, Note Name: D5
Note OFF: Time 154485, Note Name: F5
Note ON: Time 154560, Note Name: A#5, Velocity: 77
Note ON: Time 154560, Note Name: D5, Velocity: 77
Note ON: Time 154560, Note Name: F5, Velocity: 77
Note ON: Time 154560, Note Name: D6, Velocity: 92
Note OFF: Time 154680, Note Name: D6
Note OFF: Time 154680, Note Name: A#5
Note OFF: Time 154680, Note Name: D5
Note OFF: Time 154680, Note Name: F5
Note ON: Time 154800, Note Name: A#5, Velocity: 84
Note ON: Time 154800, Note Name: D5, Velocity: 70
Note ON: Time 154800, Note Name: F5, Velocity: 70
Note ON: Time 154800, Note Name: A#4, Velocity: 70
Note OFF: Time 154920, Note Name: A#4
Note OFF: Time 154920, Note Name: A#5
Note OFF: Time 154920, Note Name: D5
Note OFF: Time 154920, Note Name: F5
Note ON: Time 155880, Note Name: F5, Velocity: 77
Note ON: Time 155880, Note Name: D6, Velocity: 92
Note ON: Time 155880, Note Name: A#5, Velocity: 77
Note ON: Time 155887, Note Name: D5, Velocity: 77
Note OFF: Time 156000, Note Name: A#5
Note OFF: Time 156000, Note Name: F5
Note OFF: Time 156000, Note Name: D6
Note ON: Time 156000, Note Name: D6, Velocity: 99
Note ON: Time 156000, Note Name: D5, Velocity: 82
Note OFF: Time 156007, Note Name: D5
Note OFF: Time 156240, Note Name: D5
Note OFF: Time 156240, Note Name: D6
Note ON: Time 156240, Note Name: A5, Velocity: 70
Note ON: Time 156240, Note Name: D5, Velocity: 70
Note ON: Time 156240, Note Name: F#5, Velocity: 70
Note ON: Time 156240, Note Name: D6, Velocity: 84
Note OFF: Time 156285, Note Name: D6
Note OFF: Time 156285, Note Name: A5
Note OFF: Time 156285, Note Name: D5
Note OFF: Time 156285, Note Name: F#5
Note ON: Time 156360, Note Name: D6, Velocity: 85
Note ON: Time 156360, Note Name: F#5, Velocity: 70
Note ON: Time 156360, Note Name: D5, Velocity: 72
Note ON: Time 156360, Note Name: A5, Velocity: 72
Note OFF: Time 156405, Note Name: A5
Note OFF: Time 156405, Note Name: D6
Note OFF: Time 156405, Note Name: F#5
Note OFF: Time 156405, Note Name: D5
Note ON: Time 156480, Note Name: A5, Velocity: 77
Note ON: Time 156480, Note Name: D6, Velocity: 92
Note ON: Time 156480, Note Name: D5, Velocity: 77
Note ON: Time 156480, Note Name: F#5, Velocity: 77
Note OFF: Time 156600, Note Name: F#5
Note OFF: Time 156600, Note Name: A5
Note OFF: Time 156600, Note Name: D6
Note OFF: Time 156600, Note Name: D5
Note ON: Time 156720, Note Name: D6, Velocity: 84
Note ON: Time 156720, Note Name: A5, Velocity: 70
Note ON: Time 156720, Note Name: D5, Velocity: 70
Note ON: Time 156720, Note Name: F#5, Velocity: 70
Note OFF: Time 156840, Note Name: F#5
Note OFF: Time 156840, Note Name: D6
Note OFF: Time 156840, Note Name: A5
Note OFF: Time 156840, Note Name: D5
Note ON: Time 157680, Note Name: F#4, Velocity: 33
Note ON: Time 157680, Note Name: D5, Velocity: 39
Note ON: Time 157680, Note Name: A4, Velocity: 33
Note OFF: Time 157800, Note Name: A4
Note OFF: Time 157800, Note Name: D5
Note OFF: Time 157800, Note Name: F#4
Note ON: Time 158160, Note Name: F#4, Velocity: 35
Note ON: Time 158160, Note Name: A4, Velocity: 35
Note ON: Time 158160, Note Name: D5, Velocity: 42
Note OFF: Time 158280, Note Name: D5
Note OFF: Time 158280, Note Name: A4
Note OFF: Time 158280, Note Name: F#4
Note ON: Time 158640, Note Name: A4, Velocity: 37
Note ON: Time 158640, Note Name: F#4, Velocity: 37
Note ON: Time 158640, Note Name: D5, Velocity: 44
Note OFF: Time 158760, Note Name: D5
Note OFF: Time 158760, Note Name: F#4
Note OFF: Time 158760, Note Name: A4
Note ON: Time 159120, Note Name: F#4, Velocity: 39
Note ON: Time 159120, Note Name: A4, Velocity: 39
Note ON: Time 159120, Note Name: D5, Velocity: 46
Note OFF: Time 159240, Note Name: D5
Note OFF: Time 159240, Note Name: A4
Note OFF: Time 159240, Note Name: F#4
Note ON: Time 159600, Note Name: D5, Velocity: 41
Note ON: Time 159600, Note Name: C5, Velocity: 41
Note ON: Time 159600, Note Name: F#5, Velocity: 49
Note ON: Time 159600, Note Name: A4, Velocity: 41
Note OFF: Time 159720, Note Name: A4
Note OFF: Time 159720, Note Name: D5
Note OFF: Time 159720, Note Name: C5
Note OFF: Time 159720, Note Name: F#5
Note ON: Time 160080, Note Name: A4, Velocity: 43
Note ON: Time 160080, Note Name: F#5, Velocity: 51
Note ON: Time 160080, Note Name: C5, Velocity: 43
Note ON: Time 160080, Note Name: D5, Velocity: 43
Note OFF: Time 160200, Note Name: D5
Note OFF: Time 160200, Note Name: A4
Note OFF: Time 160200, Note Name: F#5
Note OFF: Time 160200, Note Name: C5
Note ON: Time 160560, Note Name: A4, Velocity: 50
Note ON: Time 160560, Note Name: C5, Velocity: 50
Note ON: Time 160560, Note Name: A5, Velocity: 60
Note ON: Time 160560, Note Name: F#5, Velocity: 50
Note OFF: Time 160680, Note Name: F#5
Note OFF: Time 160680, Note Name: A4
Note OFF: Time 160680, Note Name: C5
Note OFF: Time 160680, Note Name: A5
Note ON: Time 161040, Note Name: F#5, Velocity: 57
Note ON: Time 161040, Note Name: C6, Velocity: 68
Note ON: Time 161040, Note Name: C5, Velocity: 57
Note ON: Time 161040, Note Name: A5, Velocity: 57
Note OFF: Time 161160, Note Name: A5
Note OFF: Time 161160, Note Name: F#5
Note OFF: Time 161160, Note Name: C6
Note OFF: Time 161160, Note Name: C5
Note ON: Time 161520, Note Name: C6, Velocity: 64
Note ON: Time 161520, Note Name: F#5, Velocity: 64
Note ON: Time 161520, Note Name: F#6, Velocity: 75
Note ON: Time 161520, Note Name: A5, Velocity: 64
Note OFF: Time 161640, Note Name: A5
Note OFF: Time 161640, Note Name: C6
Note OFF: Time 161640, Note Name: F#5
Note OFF: Time 161640, Note Name: F#6
Note ON: Time 162000, Note Name: C6, Velocity: 66
Note ON: Time 162000, Note Name: A5, Velocity: 66
Note ON: Time 162000, Note Name: A6, Velocity: 79
Note OFF: Time 162120, Note Name: A6
Note OFF: Time 162120, Note Name: A5
Note OFF: Time 162120, Note Name: C6
Note ON: Time 162480, Note Name: A6, Velocity: 69
Note ON: Time 162480, Note Name: C6, Velocity: 69
Note ON: Time 162480, Note Name: C7, Velocity: 82
Note OFF: Time 162600, Note Name: C7
Note OFF: Time 162600, Note Name: C6
Note OFF: Time 162600, Note Name: A6
Note ON: Time 162960, Note Name: C6, Velocity: 71
Note ON: Time 162960, Note Name: C7, Velocity: 85
Note ON: Time 162960, Note Name: F#6, Velocity: 71
Note ON: Time 162960, Note Name: A6, Velocity: 71
Note OFF: Time 163080, Note Name: A6
Note OFF: Time 163080, Note Name: C6
Note OFF: Time 163080, Note Name: C7
Note OFF: Time 163080, Note Name: F#6
Note ON: Time 163200, Note Name: A6, Velocity: 71
Note ON: Time 163200, Note Name: C7, Velocity: 85
Note ON: Time 163200, Note Name: C6, Velocity: 71
Note ON: Time 163200, Note Name: F#6, Velocity: 71
Note OFF: Time 163320, Note Name: F#6
Note OFF: Time 163320, Note Name: A6
Note OFF: Time 163320, Note Name: C7
Note OFF: Time 163320, Note Name: C6
Note ON: Time 163440, Note Name: C6, Velocity: 57
Note ON: Time 163440, Note Name: A5, Velocity: 57
Note OFF: Time 163560, Note Name: A5
Note OFF: Time 163560, Note Name: C6
Note ON: Time 163560, Note Name: G#5, Velocity: 57
Note ON: Time 163560, Note Name: B5, Velocity: 57
Note OFF: Time 163680, Note Name: B5
Note OFF: Time 163680, Note Name: G#5
Note ON: Time 163680, Note Name: A5, Velocity: 63
Note ON: Time 163680, Note Name: C6, Velocity: 63
Note OFF: Time 163920, Note Name: C6
Note OFF: Time 163920, Note Name: A5
Note ON: Time 163920, Note Name: F#4, Velocity: 52
Note ON: Time 163920, Note Name: A4, Velocity: 52
Note OFF: Time 164040, Note Name: A4
Note OFF: Time 164040, Note Name: F#4
Note ON: Time 164040, Note Name: A#4, Velocity: 52
Note ON: Time 164040, Note Name: G4, Velocity: 52
Note OFF: Time 164160, Note Name: G4
Note OFF: Time 164160, Note Name: A#4
Note ON: Time 164160, Note Name: A4, Velocity: 58
Note ON: Time 164160, Note Name: F#4, Velocity: 58
Note OFF: Time 164400, Note Name: F#4
Note OFF: Time 164400, Note Name: A4
Note ON: Time 164400, Note Name: C6, Velocity: 47
Note ON: Time 164400, Note Name: A5, Velocity: 47
Note OFF: Time 164520, Note Name: A5
Note OFF: Time 164520, Note Name: C6
Note ON: Time 164520, Note Name: G#5, Velocity: 47
Note ON: Time 164520, Note Name: B5, Velocity: 47
Note OFF: Time 164640, Note Name: B5
Note OFF: Time 164640, Note Name: G#5
Note ON: Time 164640, Note Name: A5, Velocity: 56
Note ON: Time 164640, Note Name: C6, Velocity: 56
Note OFF: Time 164880, Note Name: C6
Note OFF: Time 164880, Note Name: A5
Note ON: Time 164880, Note Name: F#6, Velocity: 47
Note OFF: Time 165000, Note Name: F#6
Note ON: Time 165000, Note Name: A6, Velocity: 47
Note OFF: Time 165120, Note Name: A6
Note ON: Time 165120, Note Name: C7, Velocity: 57
Note OFF: Time 165240, Note Name: C7
Note ON: Time 165240, Note Name: D7, Velocity: 48
Note OFF: Time 165360, Note Name: D7
Note ON: Time 165360, Note Name: C7, Velocity: 49
Note OFF: Time 165480, Note Name: C7
Note ON: Time 165480, Note Name: B6, Velocity: 50
Note OFF: Time 165600, Note Name: B6
Note ON: Time 165600, Note Name: C7, Velocity: 65
Note OFF: Time 165720, Note Name: C7
Note ON: Time 165720, Note Name: D7, Velocity: 57
Note OFF: Time 165840, Note Name: D7
Note ON: Time 165840, Note Name: E7, Velocity: 66
Note OFF: Time 165960, Note Name: E7
Note ON: Time 165960, Note Name: C7, Velocity: 58
Note OFF: Time 166080, Note Name: C7
Note ON: Time 166080, Note Name: A6, Velocity: 69
Note OFF: Time 166200, Note Name: A6
Note ON: Time 166200, Note Name: B6, Velocity: 56
Note OFF: Time 166320, Note Name: B6
Note ON: Time 166320, Note Name: C7, Velocity: 66
Note OFF: Time 166440, Note Name: C7
Note ON: Time 166440, Note Name: A6, Velocity: 54
Note OFF: Time 166560, Note Name: A6
Note ON: Time 166560, Note Name: F#6, Velocity: 66
Note OFF: Time 166680, Note Name: F#6
Note ON: Time 166680, Note Name: G6, Velocity: 53
Note OFF: Time 166800, Note Name: G6
Note ON: Time 166800, Note Name: A6, Velocity: 61
Note OFF: Time 166920, Note Name: A6
Note ON: Time 166920, Note Name: F#6, Velocity: 53
Note OFF: Time 167040, Note Name: F#6
Note ON: Time 167040, Note Name: C6, Velocity: 47
Note OFF: Time 167160, Note Name: C6
Note ON: Time 167160, Note Name: D6, Velocity: 47
Note OFF: Time 167280, Note Name: D6
Note ON: Time 167280, Note Name: E6, Velocity: 58
Note OFF: Time 167400, Note Name: E6
Note ON: Time 167400, Note Name: C6, Velocity: 47
Note OFF: Time 167520, Note Name: C6
Note ON: Time 167520, Note Name: A5, Velocity: 47
Note OFF: Time 167640, Note Name: A5
Note ON: Time 167640, Note Name: B5, Velocity: 47
Note OFF: Time 167760, Note Name: B5
Note ON: Time 167760, Note Name: C6, Velocity: 53
Note OFF: Time 167880, Note Name: C6
Note ON: Time 167880, Note Name: A5, Velocity: 47
Note OFF: Time 168000, Note Name: A5
Note ON: Time 168000, Note Name: F#5, Velocity: 47
Note OFF: Time 168120, Note Name: F#5
Note ON: Time 168120, Note Name: G5, Velocity: 47
Note OFF: Time 168240, Note Name: G5
Note ON: Time 168240, Note Name: A5, Velocity: 52
Note OFF: Time 168360, Note Name: A5
Note ON: Time 168360, Note Name: F#5, Velocity: 47
Note OFF: Time 168480, Note Name: F#5
Note ON: Time 168480, Note Name: C5, Velocity: 47
Note ON: Time 168480, Note Name: A4, Velocity: 47
Note ON: Time 168480, Note Name: D5, Velocity: 47
Note OFF: Time 168720, Note Name: D5
Note OFF: Time 168720, Note Name: A4
Note OFF: Time 168720, Note Name: C5
Note ON: Time 168960, Note Name: B6, Velocity: 57
Note OFF: Time 169080, Note Name: B6
Note ON: Time 169080, Note Name: C7, Velocity: 48
Note OFF: Time 169200, Note Name: C7
Note ON: Time 169200, Note Name: B6, Velocity: 49
Note OFF: Time 169320, Note Name: B6
Note ON: Time 169320, Note Name: A6, Velocity: 50
Note OFF: Time 169440, Note Name: A6
Note ON: Time 169440, Note Name: B6, Velocity: 65
Note OFF: Time 169560, Note Name: B6
Note ON: Time 169560, Note Name: C7, Velocity: 57
Note OFF: Time 169680, Note Name: C7
Note ON: Time 169680, Note Name: D7, Velocity: 66
Note OFF: Time 169800, Note Name: D7
Note ON: Time 169800, Note Name: B6, Velocity: 58
Note OFF: Time 169920, Note Name: B6
Note ON: Time 169920, Note Name: G6, Velocity: 69
Note OFF: Time 170040, Note Name: G6
Note ON: Time 170040, Note Name: A6, Velocity: 56
Note OFF: Time 170160, Note Name: A6
Note ON: Time 170160, Note Name: B6, Velocity: 66
Note OFF: Time 170280, Note Name: B6
Note ON: Time 170280, Note Name: G6, Velocity: 54
Note OFF: Time 170400, Note Name: G6
Note ON: Time 170400, Note Name: D6, Velocity: 66
Note OFF: Time 170520, Note Name: D6
Note ON: Time 170520, Note Name: F#6, Velocity: 53
Note OFF: Time 170640, Note Name: F#6
Note ON: Time 170640, Note Name: G6, Velocity: 61
Note OFF: Time 170760, Note Name: G6
Note ON: Time 170760, Note Name: D6, Velocity: 53
Note OFF: Time 170880, Note Name: D6
Note ON: Time 170880, Note Name: B5, Velocity: 47
Note OFF: Time 171000, Note Name: B5
Note ON: Time 171000, Note Name: C6, Velocity: 47
Note OFF: Time 171120, Note Name: C6
Note ON: Time 171120, Note Name: D6, Velocity: 58
Note OFF: Time 171240, Note Name: D6
Note ON: Time 171240, Note Name: B5, Velocity: 47
Note OFF: Time 171360, Note Name: B5
Note ON: Time 171360, Note Name: G5, Velocity: 47
Note OFF: Time 171480, Note Name: G5
Note ON: Time 171480, Note Name: A5, Velocity: 47
Note OFF: Time 171600, Note Name: A5
Note ON: Time 171600, Note Name: B5, Velocity: 53
Note OFF: Time 171720, Note Name: B5
Note ON: Time 171720, Note Name: G5, Velocity: 47
Note OFF: Time 171840, Note Name: G5
Note ON: Time 171840, Note Name: D5, Velocity: 47
Note OFF: Time 171960, Note Name: D5
Note ON: Time 171960, Note Name: F#5, Velocity: 47
Note OFF: Time 172080, Note Name: F#5
Note ON: Time 172080, Note Name: G5, Velocity: 52
Note OFF: Time 172200, Note Name: G5
Note ON: Time 172200, Note Name: B4, Velocity: 47
Note OFF: Time 172320, Note Name: B4
Note ON: Time 172320, Note Name: G4, Velocity: 40
Note OFF: Time 172440, Note Name: G4
Note ON: Time 172440, Note Name: A4, Velocity: 40
Note OFF: Time 172560, Note Name: A4
Note ON: Time 172560, Note Name: B4, Velocity: 45
Note OFF: Time 172678, Note Name: B4
Note ON: Time 172680, Note Name: G4, Velocity: 40
Note OFF: Time 172800, Note Name: G4
Note ON: Time 172800, Note Name: F#4, Velocity: 40
Note ON: Time 172800, Note Name: A4, Velocity: 46
Note ON: Time 172800, Note Name: D4, Velocity: 40
Note OFF: Time 173040, Note Name: D4
Note OFF: Time 173040, Note Name: A4
Note OFF: Time 173040, Note Name: F#4
Note ON: Time 173040, Note Name: E6, Velocity: 52
Note OFF: Time 173160, Note Name: E6
Note ON: Time 173160, Note Name: D6, Velocity: 47
Note OFF: Time 173280, Note Name: D6
Note ON: Time 173280, Note Name: E6, Velocity: 40
Note OFF: Time 173400, Note Name: E6
Note ON: Time 173400, Note Name: D6, Velocity: 40
Note OFF: Time 173520, Note Name: D6
Note ON: Time 173520, Note Name: C6, Velocity: 45
Note OFF: Time 173640, Note Name: C6
Note ON: Time 173640, Note Name: E6, Velocity: 40
Note OFF: Time 173760, Note Name: E6
Note ON: Time 173760, Note Name: C6, Velocity: 52
Note OFF: Time 173880, Note Name: C6
Note ON: Time 173880, Note Name: B5, Velocity: 42
Note OFF: Time 174000, Note Name: B5
Note ON: Time 174000, Note Name: A5, Velocity: 49
Note OFF: Time 174120, Note Name: A5
Note ON: Time 174120, Note Name: C6, Velocity: 43
Note OFF: Time 174240, Note Name: C6
Note ON: Time 174240, Note Name: A5, Velocity: 48
Note OFF: Time 174360, Note Name: A5
Note ON: Time 174360, Note Name: G5, Velocity: 40
Note OFF: Time 174480, Note Name: G5
Note ON: Time 174480, Note Name: F#5, Velocity: 45
Note OFF: Time 174600, Note Name: F#5
Note ON: Time 174600, Note Name: A5, Velocity: 40
Note OFF: Time 174720, Note Name: A5
Note ON: Time 174720, Note Name: E5, Velocity: 52
Note OFF: Time 174840, Note Name: E5
Note ON: Time 174840, Note Name: D5, Velocity: 42
Note OFF: Time 174960, Note Name: D5
Note ON: Time 174960, Note Name: C5, Velocity: 49
Note OFF: Time 175080, Note Name: C5
Note ON: Time 175080, Note Name: E5, Velocity: 43
Note OFF: Time 175200, Note Name: E5
Note ON: Time 175200, Note Name: C5, Velocity: 48
Note OFF: Time 175320, Note Name: C5
Note ON: Time 175320, Note Name: B4, Velocity: 40
Note OFF: Time 175440, Note Name: B4
Note ON: Time 175440, Note Name: A4, Velocity: 45
Note OFF: Time 175560, Note Name: A4
Note ON: Time 175560, Note Name: C5, Velocity: 40
Note OFF: Time 175680, Note Name: C5
Note ON: Time 175680, Note Name: A4, Velocity: 52
Note OFF: Time 175800, Note Name: A4
Note ON: Time 175800, Note Name: G4, Velocity: 42
Note OFF: Time 175920, Note Name: G4
Note ON: Time 175920, Note Name: F#4, Velocity: 49
Note OFF: Time 176040, Note Name: F#4
Note ON: Time 176040, Note Name: A4, Velocity: 43
Note OFF: Time 176160, Note Name: A4
Note ON: Time 176160, Note Name: C5, Velocity: 48
Note OFF: Time 176280, Note Name: C5
Note ON: Time 176280, Note Name: B4, Velocity: 40
Note OFF: Time 176400, Note Name: B4
Note ON: Time 176400, Note Name: A4, Velocity: 45
Note OFF: Time 176520, Note Name: A4
Note ON: Time 176520, Note Name: C5, Velocity: 40
Note OFF: Time 176640, Note Name: C5
Note ON: Time 176640, Note Name: D4, Velocity: 40
Note ON: Time 176640, Note Name: G4, Velocity: 46
Note OFF: Time 176880, Note Name: G4
Note OFF: Time 176880, Note Name: D4
Note ON: Time 176880, Note Name: D7, Velocity: 52
Note OFF: Time 177000, Note Name: D7
Note ON: Time 177000, Note Name: C7, Velocity: 47
Note OFF: Time 177120, Note Name: C7
Note ON: Time 177120, Note Name: D7, Velocity: 40
Note OFF: Time 177240, Note Name: D7
Note ON: Time 177240, Note Name: C7, Velocity: 40
Note OFF: Time 177360, Note Name: C7
Note ON: Time 177360, Note Name: B6, Velocity: 45
Note OFF: Time 177480, Note Name: B6
Note ON: Time 177480, Note Name: D7, Velocity: 40
Note OFF: Time 177600, Note Name: D7
Note ON: Time 177600, Note Name: B6, Velocity: 52
Note OFF: Time 177720, Note Name: B6
Note ON: Time 177720, Note Name: A6, Velocity: 42
Note OFF: Time 177840, Note Name: A6
Note ON: Time 177840, Note Name: G6, Velocity: 49
Note OFF: Time 177960, Note Name: G6
Note ON: Time 177960, Note Name: B6, Velocity: 43
Note OFF: Time 178080, Note Name: B6
Note ON: Time 178080, Note Name: B5, Velocity: 48
Note OFF: Time 178200, Note Name: B5
Note ON: Time 178200, Note Name: A5, Velocity: 40
Note OFF: Time 178320, Note Name: A5
Note ON: Time 178320, Note Name: G5, Velocity: 45
Note OFF: Time 178440, Note Name: G5
Note ON: Time 178440, Note Name: B5, Velocity: 40
Note OFF: Time 178560, Note Name: B5
Note ON: Time 178560, Note Name: D5, Velocity: 52
Note OFF: Time 178680, Note Name: D5
Note ON: Time 178680, Note Name: C5, Velocity: 42
Note OFF: Time 178800, Note Name: C5
Note ON: Time 178800, Note Name: B4, Velocity: 49
Note OFF: Time 178920, Note Name: B4
Note ON: Time 178920, Note Name: D5, Velocity: 43
Note OFF: Time 179040, Note Name: D5
Note ON: Time 179040, Note Name: B5, Velocity: 48
Note OFF: Time 179160, Note Name: B5
Note ON: Time 179160, Note Name: A5, Velocity: 40
Note OFF: Time 179280, Note Name: A5
Note ON: Time 179280, Note Name: G5, Velocity: 45
Note OFF: Time 179400, Note Name: G5
Note ON: Time 179400, Note Name: B5, Velocity: 40
Note OFF: Time 179520, Note Name: B5
Note ON: Time 179520, Note Name: D6, Velocity: 62
Note OFF: Time 179640, Note Name: D6
Note ON: Time 179640, Note Name: C6, Velocity: 51
Note OFF: Time 179760, Note Name: C6
Note ON: Time 179760, Note Name: B5, Velocity: 61
Note OFF: Time 179880, Note Name: B5
Note ON: Time 179880, Note Name: C6, Velocity: 52
Note OFF: Time 180000, Note Name: C6
Note ON: Time 180000, Note Name: E6, Velocity: 62
Note OFF: Time 180240, Note Name: E6
Note ON: Time 180240, Note Name: D6, Velocity: 51
Note ON: Time 180240, Note Name: A5, Velocity: 51
Note ON: Time 180240, Note Name: F#6, Velocity: 51
Note OFF: Time 180480, Note Name: F#6
Note OFF: Time 180480, Note Name: A5
Note OFF: Time 180480, Note Name: D6
Note ON: Time 180480, Note Name: G5, Velocity: 51
Note ON: Time 180480, Note Name: G6, Velocity: 51
Note ON: Time 180480, Note Name: D6, Velocity: 51
Note OFF: Time 180720, Note Name: D6
Note OFF: Time 180720, Note Name: G6
Note OFF: Time 180720, Note Name: G5
Note ON: Time 181680, Note Name: A4, Velocity: 40
Note ON: Time 181680, Note Name: F#4, Velocity: 34
Note OFF: Time 181920, Note Name: F#4
Note OFF: Time 181920, Note Name: A4
Note ON: Time 181920, Note Name: G4, Velocity: 32
Note ON: Time 181920, Note Name: B4, Velocity: 38
Note OFF: Time 182040, Note Name: B4
Note OFF: Time 182040, Note Name: G4
Note ON: Time 182160, Note Name: G6, Velocity: 47
Note ON: Time 182160, Note Name: B5, Velocity: 39
Note OFF: Time 182280, Note Name: B5
Note OFF: Time 182280, Note Name: G6
Note ON: Time 182280, Note Name: F#6, Velocity: 44
Note ON: Time 182280, Note Name: A5, Velocity: 37
Note OFF: Time 182400, Note Name: A5
Note OFF: Time 182400, Note Name: F#6
Note ON: Time 182400, Note Name: B5, Velocity: 39
Note ON: Time 182400, Note Name: G6, Velocity: 47
Note OFF: Time 182640, Note Name: G6
Note OFF: Time 182640, Note Name: B5
Note ON: Time 182640, Note Name: G5, Velocity: 33
Note ON: Time 182640, Note Name: B5, Velocity: 33
Note ON: Time 182640, Note Name: E6, Velocity: 39
Note OFF: Time 182880, Note Name: E6
Note OFF: Time 182880, Note Name: B5
Note OFF: Time 182880, Note Name: G5
Note ON: Time 182880, Note Name: A5, Velocity: 35
Note ON: Time 182880, Note Name: D6, Velocity: 42
Note ON: Time 182880, Note Name: F#5, Velocity: 35
Note OFF: Time 183120, Note Name: F#5
Note OFF: Time 183120, Note Name: D6
Note OFF: Time 183120, Note Name: A5
Note ON: Time 183120, Note Name: G5, Velocity: 30
Note ON: Time 183120, Note Name: E5, Velocity: 30
Note ON: Time 183120, Note Name: C#6, Velocity: 40
Note OFF: Time 183360, Note Name: C#6
Note OFF: Time 183360, Note Name: E5
Note OFF: Time 183360, Note Name: G5
Note ON: Time 183360, Note Name: E6, Velocity: 45
Note ON: Time 183360, Note Name: G5, Velocity: 38
Note OFF: Time 183600, Note Name: G5
Note OFF: Time 183600, Note Name: E6
Note ON: Time 183600, Note Name: D6, Velocity: 36
Note ON: Time 183600, Note Name: F#5, Velocity: 30
Note OFF: Time 183838, Note Name: F#5
Note OFF: Time 183838, Note Name: D6
Note ON: Time 183840, Note Name: F#5, Velocity: 30
Note ON: Time 183840, Note Name: D6, Velocity: 36
Note OFF: Time 184080, Note Name: D6
Note OFF: Time 184080, Note Name: F#5
Note ON: Time 184080, Note Name: G5, Velocity: 38
Note ON: Time 184080, Note Name: D6, Velocity: 45
Note OFF: Time 184200, Note Name: D6
Note OFF: Time 184200, Note Name: G5
Note ON: Time 184200, Note Name: A5, Velocity: 34
Note ON: Time 184200, Note Name: C6, Velocity: 40
Note OFF: Time 184320, Note Name: C6
Note OFF: Time 184320, Note Name: A5
Note ON: Time 184320, Note Name: B5, Velocity: 46
Note OFF: Time 184560, Note Name: B5
Note ON: Time 184560, Note Name: G6, Velocity: 51
Note ON: Time 184560, Note Name: G5, Velocity: 43
Note OFF: Time 184680, Note Name: G6
Note ON: Time 184800, Note Name: E6, Velocity: 46
Note OFF: Time 184920, Note Name: E6
Note OFF: Time 184920, Note Name: G5
Note ON: Time 185040, Note Name: C7, Velocity: 51
Note ON: Time 185040, Note Name: C6, Velocity: 43
Note OFF: Time 185160, Note Name: C6
Note OFF: Time 185160, Note Name: C7
Note ON: Time 185160, Note Name: E6, Velocity: 37
Note ON: Time 185160, Note Name: A6, Velocity: 44
Note OFF: Time 185280, Note Name: A6
Note OFF: Time 185280, Note Name: E6
Note ON: Time 185280, Note Name: F#6, Velocity: 51
Note OFF: Time 185520, Note Name: F#6
Note ON: Time 185520, Note Name: D6, Velocity: 47
Note ON: Time 185520, Note Name: D7, Velocity: 56
Note OFF: Time 185760, Note Name: D7
Note ON: Time 185760, Note Name: B6, Velocity: 53
Note OFF: Time 185880, Note Name: B6
Note OFF: Time 185880, Note Name: D6
Note ON: Time 186000, Note Name: G6, Velocity: 52
Note OFF: Time 186120, Note Name: G6
Note ON: Time 186120, Note Name: F#6, Velocity: 45
Note OFF: Time 186240, Note Name: F#6
Note ON: Time 186240, Note Name: G6, Velocity: 52
Note OFF: Time 186480, Note Name: G6
Note ON: Time 186480, Note Name: E6, Velocity: 47
Note OFF: Time 186720, Note Name: E6
Note ON: Time 186720, Note Name: C6, Velocity: 51
Note OFF: Time 186960, Note Name: C6
Note ON: Time 186960, Note Name: F#5, Velocity: 37
Note ON: Time 186960, Note Name: B5, Velocity: 44
Note OFF: Time 187200, Note Name: B5
Note OFF: Time 187200, Note Name: F#5
Note ON: Time 187200, Note Name: F#5, Velocity: 44
Note ON: Time 187200, Note Name: B5, Velocity: 44
Note OFF: Time 187440, Note Name: F#5
Note ON: Time 187440, Note Name: A5, Velocity: 50
Note OFF: Time 187560, Note Name: A5
Note ON: Time 187560, Note Name: G5, Velocity: 44
Note OFF: Time 187678, Note Name: G5
Note ON: Time 187680, Note Name: G5, Velocity: 49
Note OFF: Time 187920, Note Name: G5
Note OFF: Time 187920, Note Name: B5
Note ON: Time 187920, Note Name: A#5, Velocity: 46
Note ON: Time 187920, Note Name: E6, Velocity: 55
Note ON: Time 187920, Note Name: G5, Velocity: 46
Note OFF: Time 188160, Note Name: E6
Note OFF: Time 188160, Note Name: A#5
Note ON: Time 188160, Note Name: A5, Velocity: 44
Note OFF: Time 188400, Note Name: G5
Note ON: Time 188400, Note Name: G5, Velocity: 50
Note OFF: Time 188520, Note Name: G5
Note ON: Time 188520, Note Name: F5, Velocity: 44
Note OFF: Time 188640, Note Name: F5
Note ON: Time 188640, Note Name: F5, Velocity: 49
Note OFF: Time 188880, Note Name: F5
Note OFF: Time 188880, Note Name: A5
Note ON: Time 188880, Note Name: F5, Velocity: 55
Note ON: Time 188880, Note Name: D6, Velocity: 55
Note ON: Time 188880, Note Name: G#5, Velocity: 55
Note OFF: Time 189120, Note Name: G#5
Note OFF: Time 189120, Note Name: D6
Note ON: Time 189120, Note Name: G5, Velocity: 44
Note OFF: Time 189360, Note Name: F5
Note ON: Time 189360, Note Name: F5, Velocity: 50
Note OFF: Time 189480, Note Name: F5
Note ON: Time 189480, Note Name: E5, Velocity: 44
Note OFF: Time 189598, Note Name: E5
Note ON: Time 189600, Note Name: E5, Velocity: 49
Note OFF: Time 189840, Note Name: E5
Note OFF: Time 189840, Note Name: G5
Note ON: Time 189840, Note Name: G5, Velocity: 46
Note ON: Time 189840, Note Name: E5, Velocity: 46
Note ON: Time 189840, Note Name: C#6, Velocity: 55
Note OFF: Time 190080, Note Name: C#6
Note OFF: Time 190080, Note Name: G5
Note ON: Time 190080, Note Name: F#5, Velocity: 44
Note OFF: Time 190320, Note Name: E5
Note ON: Time 190320, Note Name: E5, Velocity: 50
Note OFF: Time 190440, Note Name: E5
Note ON: Time 190440, Note Name: D#5, Velocity: 44
Note OFF: Time 190560, Note Name: D#5
Note ON: Time 190560, Note Name: D5, Velocity: 49
Note OFF: Time 190800, Note Name: D5
Note OFF: Time 190800, Note Name: F#5
Note ON: Time 190800, Note Name: F5, Velocity: 46
Note ON: Time 190800, Note Name: B5, Velocity: 55
Note ON: Time 190800, Note Name: D5, Velocity: 46
Note OFF: Time 191040, Note Name: D5
Note OFF: Time 191040, Note Name: B5
Note OFF: Time 191040, Note Name: F5
Note ON: Time 191040, Note Name: F5, Velocity: 55
Note ON: Time 191040, Note Name: D5, Velocity: 46
Note OFF: Time 191160, Note Name: F5
Note ON: Time 191160, Note Name: E5, Velocity: 46
Note OFF: Time 191280, Note Name: D5
Note ON: Time 191280, Note Name: C#5, Velocity: 46
Note OFF: Time 191400, Note Name: E5
Note ON: Time 191400, Note Name: A5, Velocity: 48
Note OFF: Time 191520, Note Name: A5
Note OFF: Time 191520, Note Name: C#5
Note ON: Time 191520, Note Name: D#5, Velocity: 55
Note ON: Time 191520, Note Name: C5, Velocity: 46
Note OFF: Time 191640, Note Name: D#5
Note ON: Time 191640, Note Name: D5, Velocity: 47
Note OFF: Time 191760, Note Name: C5
Note ON: Time 191760, Note Name: B4, Velocity: 46
Note OFF: Time 191880, Note Name: D5
Note ON: Time 191880, Note Name: G5, Velocity: 49
Note OFF: Time 192000, Note Name: G5
Note OFF: Time 192000, Note Name: B4
Note ON: Time 192000, Note Name: D5, Velocity: 56
Note OFF: Time 192120, Note Name: D5
Note ON: Time 192120, Note Name: D6, Velocity: 44
Note OFF: Time 192240, Note Name: D6
Note ON: Time 192240, Note Name: C#6, Velocity: 45
Note OFF: Time 192360, Note Name: C#6
Note ON: Time 192360, Note Name: C6, Velocity: 46
Note OFF: Time 192480, Note Name: C6
Note ON: Time 192480, Note Name: A5, Velocity: 47
Note OFF: Time 192600, Note Name: A5
Note ON: Time 192600, Note Name: F#5, Velocity: 47
Note OFF: Time 192720, Note Name: F#5
Note ON: Time 192720, Note Name: D#5, Velocity: 48
Note OFF: Time 192840, Note Name: D#5
Note ON: Time 192840, Note Name: D5, Velocity: 49
Note OFF: Time 192960, Note Name: D5
Note ON: Time 192960, Note Name: C#5, Velocity: 50
Note OFF: Time 193080, Note Name: C#5
Note ON: Time 193080, Note Name: C5, Velocity: 51
Note OFF: Time 193200, Note Name: C5
Note ON: Time 193200, Note Name: A4, Velocity: 52
Note OFF: Time 193320, Note Name: A4
Note ON: Time 193320, Note Name: F#4, Velocity: 53
Note OFF: Time 193440, Note Name: F#4
Note ON: Time 193440, Note Name: G4, Velocity: 51
Note ON: Time 193440, Note Name: D#4, Velocity: 61
Note OFF: Time 193560, Note Name: D#4
Note ON: Time 193560, Note Name: D4, Velocity: 47
Note OFF: Time 193680, Note Name: D4
Note OFF: Time 193680, Note Name: G4
Note ON: Time 193680, Note Name: G4, Velocity: 49
Note ON: Time 193680, Note Name: E5, Velocity: 58
Note OFF: Time 193800, Note Name: E5
Note ON: Time 193800, Note Name: D5, Velocity: 47
Note OFF: Time 193920, Note Name: D5
Note OFF: Time 193920, Note Name: G4
Note ON: Time 193920, Note Name: D5, Velocity: 56
Note OFF: Time 194040, Note Name: D5
Note ON: Time 194040, Note Name: D6, Velocity: 44
Note OFF: Time 194160, Note Name: D6
Note ON: Time 194160, Note Name: C#6, Velocity: 45
Note OFF: Time 194280, Note Name: C#6
Note ON: Time 194280, Note Name: C6, Velocity: 46
Note OFF: Time 194400, Note Name: C6
Note ON: Time 194400, Note Name: A5, Velocity: 47
Note OFF: Time 194520, Note Name: A5
Note ON: Time 194520, Note Name: F#5, Velocity: 47
Note OFF: Time 194640, Note Name: F#5
Note ON: Time 194640, Note Name: D#5, Velocity: 48
Note OFF: Time 194760, Note Name: D#5
Note ON: Time 194760, Note Name: D5, Velocity: 49
Note OFF: Time 194880, Note Name: D5
Note ON: Time 194880, Note Name: C#5, Velocity: 50
Note OFF: Time 195000, Note Name: C#5
Note ON: Time 195000, Note Name: C5, Velocity: 51
Note OFF: Time 195120, Note Name: C5
Note ON: Time 195120, Note Name: A4, Velocity: 52
Note OFF: Time 195240, Note Name: A4
Note ON: Time 195240, Note Name: F#4, Velocity: 53
Note OFF: Time 195360, Note Name: F#4
Note ON: Time 195360, Note Name: G4, Velocity: 51
Note ON: Time 195360, Note Name: D#4, Velocity: 61
Note OFF: Time 195480, Note Name: D#4
Note ON: Time 195480, Note Name: D4, Velocity: 47
Note OFF: Time 195600, Note Name: D4
Note OFF: Time 195600, Note Name: G4
Note ON: Time 195600, Note Name: G4, Velocity: 49
Note ON: Time 195600, Note Name: E5, Velocity: 58
Note OFF: Time 195720, Note Name: E5
Note ON: Time 195720, Note Name: D5, Velocity: 47
Note OFF: Time 195840, Note Name: D5
Note OFF: Time 195840, Note Name: G4
Note ON: Time 195840, Note Name: D5, Velocity: 52
Note OFF: Time 195960, Note Name: D5
Note ON: Time 195960, Note Name: B4, Velocity: 45
Note ON: Time 195960, Note Name: G5, Velocity: 54
Note OFF: Time 196080, Note Name: G5
Note OFF: Time 196080, Note Name: B4
Note ON: Time 196080, Note Name: B5, Velocity: 58
Note ON: Time 196080, Note Name: D5, Velocity: 49
Note OFF: Time 196200, Note Name: D5
Note OFF: Time 196200, Note Name: B5
Note ON: Time 196200, Note Name: C5, Velocity: 44
Note ON: Time 196200, Note Name: A5, Velocity: 52
Note OFF: Time 196320, Note Name: A5
Note OFF: Time 196320, Note Name: C5
Note ON: Time 196320, Note Name: B4, Velocity: 58
Note ON: Time 196320, Note Name: G5, Velocity: 58
Note OFF: Time 196440, Note Name: B4
Note ON: Time 196440, Note Name: D#5, Velocity: 50
Note OFF: Time 196560, Note Name: D#5
Note ON: Time 196560, Note Name: E5, Velocity: 55
Note OFF: Time 196680, Note Name: E5
Note ON: Time 196680, Note Name: B4, Velocity: 50
Note OFF: Time 196800, Note Name: B4
Note ON: Time 196800, Note Name: A#4, Velocity: 54
Note OFF: Time 196920, Note Name: A#4
Note ON: Time 196920, Note Name: D#5, Velocity: 58
Note OFF: Time 197040, Note Name: D#5
Note ON: Time 197040, Note Name: E5, Velocity: 58
Note OFF: Time 197160, Note Name: E5
Note ON: Time 197160, Note Name: A#4, Velocity: 53
Note OFF: Time 197280, Note Name: A#4
Note OFF: Time 197280, Note Name: G5
Note ON: Time 197280, Note Name: A4, Velocity: 56
Note OFF: Time 197400, Note Name: A4
Note ON: Time 197400, Note Name: C#5, Velocity: 50
Note OFF: Time 197520, Note Name: C#5
Note ON: Time 197520, Note Name: D5, Velocity: 60
Note OFF: Time 197640, Note Name: D5
Note ON: Time 197640, Note Name: D6, Velocity: 54
Note OFF: Time 197760, Note Name: D6
Note ON: Time 197760, Note Name: D6, Velocity: 61
Note OFF: Time 197880, Note Name: D6
Note ON: Time 197880, Note Name: D7, Velocity: 48
Note OFF: Time 198000, Note Name: D7
Note ON: Time 198000, Note Name: C#7, Velocity: 49
Note OFF: Time 198120, Note Name: C#7
Note ON: Time 198120, Note Name: C7, Velocity: 50
Note OFF: Time 198240, Note Name: C7
Note ON: Time 198240, Note Name: A6, Velocity: 51
Note OFF: Time 198360, Note Name: A6
Note ON: Time 198360, Note Name: F#6, Velocity: 51
Note OFF: Time 198480, Note Name: F#6
Note ON: Time 198480, Note Name: D#6, Velocity: 52
Note OFF: Time 198600, Note Name: D#6
Note ON: Time 198600, Note Name: D6, Velocity: 53
Note OFF: Time 198720, Note Name: D6
Note ON: Time 198720, Note Name: C#6, Velocity: 55
Note OFF: Time 198840, Note Name: C#6
Note ON: Time 198840, Note Name: C6, Velocity: 56
Note OFF: Time 198960, Note Name: C6
Note ON: Time 198960, Note Name: A5, Velocity: 64
Note OFF: Time 199080, Note Name: A5
Note ON: Time 199080, Note Name: F#5, Velocity: 67
Note OFF: Time 199200, Note Name: F#5
Note ON: Time 199200, Note Name: D#5, Velocity: 72
Note ON: Time 199200, Note Name: G5, Velocity: 60
Note OFF: Time 199320, Note Name: D#5
Note ON: Time 199320, Note Name: D5, Velocity: 51
Note OFF: Time 199440, Note Name: D5
Note OFF: Time 199440, Note Name: G5
Note ON: Time 199440, Note Name: G5, Velocity: 53
Note ON: Time 199440, Note Name: E6, Velocity: 63
Note OFF: Time 199560, Note Name: E6
Note ON: Time 199560, Note Name: D6, Velocity: 51
Note OFF: Time 199680, Note Name: D6
Note OFF: Time 199680, Note Name: G5
Note ON: Time 199680, Note Name: D6, Velocity: 61
Note OFF: Time 199800, Note Name: D6
Note ON: Time 199800, Note Name: D7, Velocity: 48
Note OFF: Time 199920, Note Name: D7
Note ON: Time 199920, Note Name: C#7, Velocity: 49
Note OFF: Time 200040, Note Name: C#7
Note ON: Time 200040, Note Name: C7, Velocity: 50
Note OFF: Time 200160, Note Name: C7
Note ON: Time 200160, Note Name: A6, Velocity: 51
Note OFF: Time 200280, Note Name: A6
Note ON: Time 200280, Note Name: F#6, Velocity: 51
Note OFF: Time 200400, Note Name: F#6
Note ON: Time 200400, Note Name: D#6, Velocity: 52
Note OFF: Time 200520, Note Name: D#6
Note ON: Time 200520, Note Name: D6, Velocity: 53
Note OFF: Time 200640, Note Name: D6
Note ON: Time 200640, Note Name: C#6, Velocity: 57
Note OFF: Time 200760, Note Name: C#6
Note ON: Time 200760, Note Name: C6, Velocity: 53
Note OFF: Time 200880, Note Name: C6
Note ON: Time 200880, Note Name: A5, Velocity: 61
Note OFF: Time 201000, Note Name: A5
Note ON: Time 201000, Note Name: F#5, Velocity: 63
Note OFF: Time 201120, Note Name: F#5
Note ON: Time 201120, Note Name: D#5, Velocity: 67
Note ON: Time 201120, Note Name: G5, Velocity: 54
Note OFF: Time 201240, Note Name: D#5
Note ON: Time 201240, Note Name: D5, Velocity: 51
Note OFF: Time 201360, Note Name: D5
Note OFF: Time 201360, Note Name: G5
Note ON: Time 201360, Note Name: E6, Velocity: 63
Note ON: Time 201360, Note Name: G5, Velocity: 53
Note OFF: Time 201480, Note Name: E6
Note ON: Time 201480, Note Name: D6, Velocity: 51
Note OFF: Time 201600, Note Name: D6
Note OFF: Time 201600, Note Name: G5
Note ON: Time 201600, Note Name: D6, Velocity: 56
Note OFF: Time 201720, Note Name: D6
Note ON: Time 201720, Note Name: G5, Velocity: 54
Note ON: Time 201720, Note Name: B4, Velocity: 45
Note OFF: Time 201840, Note Name: B4
Note OFF: Time 201840, Note Name: G5
Note ON: Time 201840, Note Name: D5, Velocity: 49
Note ON: Time 201840, Note Name: B5, Velocity: 58
Note OFF: Time 201960, Note Name: B5
Note OFF: Time 201960, Note Name: D5
Note ON: Time 201960, Note Name: C5, Velocity: 44
Note ON: Time 201960, Note Name: A5, Velocity: 52
Note OFF: Time 202080, Note Name: A5
Note OFF: Time 202080, Note Name: C5
Note ON: Time 202080, Note Name: G5, Velocity: 58
Note ON: Time 202080, Note Name: B4, Velocity: 58
Note OFF: Time 202200, Note Name: B4
Note ON: Time 202200, Note Name: D#5, Velocity: 50
Note OFF: Time 202320, Note Name: D#5
Note ON: Time 202320, Note Name: E5, Velocity: 55
Note OFF: Time 202440, Note Name: E5
Note ON: Time 202440, Note Name: B4, Velocity: 50
Note OFF: Time 202560, Note Name: B4
Note ON: Time 202560, Note Name: A#4, Velocity: 54
Note OFF: Time 202680, Note Name: A#4
Note ON: Time 202680, Note Name: D#5, Velocity: 58
Note OFF: Time 202800, Note Name: D#5
Note ON: Time 202800, Note Name: E5, Velocity: 58
Note OFF: Time 202920, Note Name: E5
Note ON: Time 202920, Note Name: A#4, Velocity: 53
Note OFF: Time 203040, Note Name: A#4
Note OFF: Time 203040, Note Name: G5
Note ON: Time 203040, Note Name: F#5, Velocity: 54
Note ON: Time 203040, Note Name: A4, Velocity: 56
Note OFF: Time 203160, Note Name: A4
Note ON: Time 203160, Note Name: D5, Velocity: 50
Note OFF: Time 203280, Note Name: D5
Note OFF: Time 203280, Note Name: F#5
Note ON: Time 203280, Note Name: G5, Velocity: 54
Note ON: Time 203280, Note Name: G4, Velocity: 60
Note OFF: Time 203400, Note Name: G4
Note ON: Time 203400, Note Name: C5, Velocity: 50
Note OFF: Time 203520, Note Name: C5
Note OFF: Time 203520, Note Name: G5
Note ON: Time 203520, Note Name: G5, Velocity: 54
Note OFF: Time 203640, Note Name: G5
Note ON: Time 203640, Note Name: E5, Velocity: 47
Note ON: Time 203640, Note Name: C6, Velocity: 57
Note OFF: Time 203760, Note Name: C6
Note OFF: Time 203760, Note Name: E5
Note ON: Time 203760, Note Name: G5, Velocity: 52
Note ON: Time 203760, Note Name: E6, Velocity: 62
Note OFF: Time 203880, Note Name: E6
Note OFF: Time 203880, Note Name: G5
Note ON: Time 203880, Note Name: D6, Velocity: 56
Note ON: Time 203880, Note Name: F5, Velocity: 47
Note OFF: Time 204000, Note Name: F5
Note OFF: Time 204000, Note Name: D6
Note ON: Time 204000, Note Name: C6, Velocity: 63
Note ON: Time 204000, Note Name: E5, Velocity: 63
Note OFF: Time 204120, Note Name: E5
Note ON: Time 204120, Note Name: G#5, Velocity: 55
Note OFF: Time 204240, Note Name: G#5
Note ON: Time 204240, Note Name: A5, Velocity: 61
Note OFF: Time 204360, Note Name: A5
Note ON: Time 204360, Note Name: D#5, Velocity: 56
Note OFF: Time 204480, Note Name: D#5
Note ON: Time 204480, Note Name: D#5, Velocity: 61
Note OFF: Time 204600, Note Name: D#5
Note ON: Time 204600, Note Name: G#5, Velocity: 66
Note OFF: Time 204720, Note Name: G#5
Note ON: Time 204720, Note Name: A5, Velocity: 66
Note OFF: Time 204840, Note Name: A5
Note ON: Time 204840, Note Name: D#5, Velocity: 62
Note OFF: Time 204960, Note Name: D#5
Note OFF: Time 204960, Note Name: C6
Note ON: Time 204960, Note Name: B5, Velocity: 63
Note ON: Time 204960, Note Name: D5, Velocity: 66
Note OFF: Time 205080, Note Name: D5
Note ON: Time 205080, Note Name: G5, Velocity: 59
Note OFF: Time 205200, Note Name: G5
Note OFF: Time 205200, Note Name: B5
Note ON: Time 205200, Note Name: C5, Velocity: 72
Note ON: Time 205200, Note Name: C6, Velocity: 64
Note OFF: Time 205320, Note Name: C5
Note ON: Time 205320, Note Name: F5, Velocity: 60
Note OFF: Time 205440, Note Name: F5
Note OFF: Time 205440, Note Name: C6
Note ON: Time 205440, Note Name: C6, Velocity: 63
Note OFF: Time 205560, Note Name: C6
Note ON: Time 205560, Note Name: A5, Velocity: 55
Note ON: Time 205560, Note Name: F6, Velocity: 66
Note OFF: Time 205680, Note Name: F6
Note OFF: Time 205680, Note Name: A5
Note ON: Time 205680, Note Name: A6, Velocity: 71
Note ON: Time 205680, Note Name: C6, Velocity: 60
Note OFF: Time 205800, Note Name: C6
Note OFF: Time 205800, Note Name: A6
Note ON: Time 205800, Note Name: G6, Velocity: 65
Note ON: Time 205800, Note Name: A#5, Velocity: 55
Note OFF: Time 205920, Note Name: A#5
Note OFF: Time 205920, Note Name: G6
Note ON: Time 205920, Note Name: F6, Velocity: 73
Note ON: Time 205920, Note Name: G#5, Velocity: 73
Note OFF: Time 206040, Note Name: G#5
Note ON: Time 206040, Note Name: F5, Velocity: 63
Note OFF: Time 206160, Note Name: F5
Note ON: Time 206160, Note Name: G#5, Velocity: 70
Note OFF: Time 206280, Note Name: G#5
Note ON: Time 206280, Note Name: G5, Velocity: 65
Note OFF: Time 206400, Note Name: G5
Note ON: Time 206400, Note Name: G#5, Velocity: 70
Note OFF: Time 206520, Note Name: G#5
Note ON: Time 206520, Note Name: C#6, Velocity: 73
Note OFF: Time 206640, Note Name: C#6
Note ON: Time 206640, Note Name: D6, Velocity: 77
Note OFF: Time 206760, Note Name: D6
Note ON: Time 206760, Note Name: G#5, Velocity: 71
Note OFF: Time 206880, Note Name: G#5
Note OFF: Time 206880, Note Name: F6
Note ON: Time 206880, Note Name: G5, Velocity: 75
Note ON: Time 206880, Note Name: E6, Velocity: 78
Note OFF: Time 207000, Note Name: G5
Note ON: Time 207000, Note Name: B5, Velocity: 68
Note OFF: Time 207120, Note Name: B5
Note ON: Time 207120, Note Name: C6, Velocity: 82
Note OFF: Time 207240, Note Name: C6
Note ON: Time 207240, Note Name: G5, Velocity: 69
Note OFF: Time 207360, Note Name: G5
Note ON: Time 207360, Note Name: C6, Velocity: 74
Note OFF: Time 207600, Note Name: C6
Note OFF: Time 207600, Note Name: E6
Note ON: Time 207600, Note Name: E5, Velocity: 79
Note ON: Time 207600, Note Name: C6, Velocity: 79
Note ON: Time 207600, Note Name: G5, Velocity: 79
Note ON: Time 207600, Note Name: E6, Velocity: 93
Note OFF: Time 207840, Note Name: E6
Note OFF: Time 207840, Note Name: E5
Note OFF: Time 207840, Note Name: C6
Note OFF: Time 207840, Note Name: G5
Note ON: Time 207840, Note Name: B5, Velocity: 74
Note ON: Time 207840, Note Name: D6, Velocity: 88
Note OFF: Time 208080, Note Name: D6
Note OFF: Time 208080, Note Name: B5
Note ON: Time 208080, Note Name: C6, Velocity: 74
Note ON: Time 208080, Note Name: E6, Velocity: 86
Note OFF: Time 208200, Note Name: E6
Note OFF: Time 208200, Note Name: C6
Note ON: Time 208200, Note Name: F6, Velocity: 92
Note ON: Time 208200, Note Name: D6, Velocity: 78
Note OFF: Time 208320, Note Name: D6
Note OFF: Time 208320, Note Name: F6
Note ON: Time 208320, Note Name: G6, Velocity: 96
Note ON: Time 208320, Note Name: E6, Velocity: 81
Note OFF: Time 208440, Note Name: E6
Note OFF: Time 208440, Note Name: G6
Note ON: Time 208560, Note Name: C6, Velocity: 77
Note ON: Time 208560, Note Name: E6, Velocity: 91
Note OFF: Time 208680, Note Name: E6
Note OFF: Time 208680, Note Name: C6
Note ON: Time 209520, Note Name: E6, Velocity: 93
Note ON: Time 209520, Note Name: G5, Velocity: 79
Note ON: Time 209520, Note Name: C6, Velocity: 79
Note ON: Time 209520, Note Name: E5, Velocity: 79
Note OFF: Time 209760, Note Name: E5
Note OFF: Time 209760, Note Name: E6
Note OFF: Time 209760, Note Name: G5
Note OFF: Time 209760, Note Name: C6
Note ON: Time 209760, Note Name: B5, Velocity: 74
Note ON: Time 209760, Note Name: D6, Velocity: 88
Note OFF: Time 210000, Note Name: D6
Note OFF: Time 210000, Note Name: B5
Note ON: Time 210000, Note Name: E6, Velocity: 86
Note ON: Time 210000, Note Name: C6, Velocity: 74
Note OFF: Time 210120, Note Name: C6
Note OFF: Time 210120, Note Name: E6
Note ON: Time 210120, Note Name: D6, Velocity: 78
Note ON: Time 210120, Note Name: F6, Velocity: 92
Note OFF: Time 210240, Note Name: F6
Note OFF: Time 210240, Note Name: D6
Note ON: Time 210240, Note Name: G6, Velocity: 96
Note ON: Time 210240, Note Name: E6, Velocity: 81
Note OFF: Time 210360, Note Name: E6
Note OFF: Time 210360, Note Name: G6
Note ON: Time 210480, Note Name: G6, Velocity: 103
Note ON: Time 210480, Note Name: E6, Velocity: 86
Note ON: Time 210480, Note Name: A5, Velocity: 86
Note ON: Time 210480, Note Name: G5, Velocity: 86
Note OFF: Time 210720, Note Name: G5
Note OFF: Time 210720, Note Name: G6
Note OFF: Time 210720, Note Name: E6
Note OFF: Time 210720, Note Name: A5
Note ON: Time 210960, Note Name: C#6, Velocity: 86
Note ON: Time 210960, Note Name: E6, Velocity: 86
Note ON: Time 210960, Note Name: G6, Velocity: 103
Note ON: Time 210960, Note Name: G5, Velocity: 86
Note OFF: Time 211200, Note Name: G5
Note OFF: Time 211200, Note Name: C#6
Note OFF: Time 211200, Note Name: E6
Note OFF: Time 211200, Note Name: G6
Note ON: Time 211440, Note Name: G6, Velocity: 103
Note ON: Time 211440, Note Name: B5, Velocity: 86
Note ON: Time 211440, Note Name: D6, Velocity: 86
Note ON: Time 211440, Note Name: G5, Velocity: 86
Note OFF: Time 211680, Note Name: G5
Note OFF: Time 211680, Note Name: G6
Note OFF: Time 211680, Note Name: B5
Note OFF: Time 211680, Note Name: D6
Note ON: Time 211920, Note Name: G5, Velocity: 86
Note ON: Time 211920, Note Name: C#6, Velocity: 86
Note ON: Time 211920, Note Name: A5, Velocity: 86
Note ON: Time 211920, Note Name: G6, Velocity: 103
Note OFF: Time 212160, Note Name: G6
Note OFF: Time 212160, Note Name: G5
Note OFF: Time 212160, Note Name: C#6
Note OFF: Time 212160, Note Name: A5
Note ON: Time 212160, Note Name: G6, Velocity: 77
Note ON: Time 212160, Note Name: G5, Velocity: 65
Note ON: Time 212160, Note Name: B5, Velocity: 65
Note ON: Time 212160, Note Name: D6, Velocity: 65
Note OFF: Time 212640, Note Name: D6
Note OFF: Time 212640, Note Name: G6
Note OFF: Time 212640, Note Name: G5
Note OFF: Time 212640, Note Name: B5
Note ON: Time 212640, Note Name: D6, Velocity: 64
Note ON: Time 212640, Note Name: G5, Velocity: 54
Note ON: Time 212640, Note Name: B5, Velocity: 54
Note OFF: Time 213360, Note Name: B5
Note OFF: Time 213360, Note Name: G5
Note OFF: Time 213360, Note Name: D6
Note ON: Time 213360, Note Name: D5, Velocity: 53
Note ON: Time 213360, Note Name: G5, Velocity: 53
Note ON: Time 213360, Note Name: B5, Velocity: 63
Note OFF: Time 213600, Note Name: B5
Note OFF: Time 213600, Note Name: G5
Note OFF: Time 213600, Note Name: D5
Note ON: Time 213600, Note Name: D5, Velocity: 56
Note OFF: Time 213720, Note Name: D5
Note ON: Time 213720, Note Name: F#5, Velocity: 57
Note OFF: Time 213840, Note Name: F#5
Note ON: Time 213840, Note Name: G5, Velocity: 58
Note OFF: Time 213960, Note Name: G5
Note ON: Time 213960, Note Name: B5, Velocity: 59
Note OFF: Time 214080, Note Name: B5
Note ON: Time 214080, Note Name: C#6, Velocity: 60
Note OFF: Time 214200, Note Name: C#6
Note ON: Time 214200, Note Name: D6, Velocity: 61
Note OFF: Time 214320, Note Name: D6
Note ON: Time 214320, Note Name: E6, Velocity: 62
Note OFF: Time 214440, Note Name: E6
Note ON: Time 214440, Note Name: D6, Velocity: 62
Note OFF: Time 214560, Note Name: D6
Note ON: Time 214560, Note Name: F#6, Velocity: 63
Note OFF: Time 214680, Note Name: F#6
Note ON: Time 214680, Note Name: G6, Velocity: 64
Note OFF: Time 214800, Note Name: G6
Note ON: Time 214800, Note Name: A6, Velocity: 65
Note OFF: Time 214920, Note Name: A6
Note ON: Time 214920, Note Name: G6, Velocity: 66
Note OFF: Time 215040, Note Name: G6
Note ON: Time 215040, Note Name: A#6, Velocity: 67
Note OFF: Time 215160, Note Name: A#6
Note ON: Time 215160, Note Name: B6, Velocity: 68
Note OFF: Time 215280, Note Name: B6
Note ON: Time 215280, Note Name: C7, Velocity: 69
Note OFF: Time 215400, Note Name: C7
Note ON: Time 215400, Note Name: B6, Velocity: 70
Note OFF: Time 215520, Note Name: B6
Note ON: Time 215520, Note Name: D7, Velocity: 71
Note OFF: Time 215760, Note Name: D7
Note ON: Time 215760, Note Name: A5, Velocity: 59
Note ON: Time 215760, Note Name: D5, Velocity: 59
Note ON: Time 215760, Note Name: C6, Velocity: 70
Note OFF: Time 216000, Note Name: C6
Note OFF: Time 216000, Note Name: D5
Note OFF: Time 216000, Note Name: A5
Note ON: Time 216000, Note Name: B5, Velocity: 58
Note ON: Time 216000, Note Name: G5, Velocity: 49
Note ON: Time 216000, Note Name: D5, Velocity: 49
Note OFF: Time 216960, Note Name: D5
Note OFF: Time 216960, Note Name: G5
Note OFF: Time 216960, Note Name: B5
Note ON: Time 216960, Note Name: C6, Velocity: 57
Note ON: Time 216960, Note Name: G5, Velocity: 48
Note OFF: Time 217440, Note Name: G5
Note OFF: Time 217440, Note Name: C6
Note ON: Time 217440, Note Name: C6, Velocity: 51
Note ON: Time 217440, Note Name: G5, Velocity: 51
Note ON: Time 217440, Note Name: D#6, Velocity: 61
Note OFF: Time 217920, Note Name: D#6
Note OFF: Time 217920, Note Name: G5
Note OFF: Time 217920, Note Name: C6
Note ON: Time 217920, Note Name: G6, Velocity: 56
Note ON: Time 217920, Note Name: D6, Velocity: 67
Note ON: Time 217920, Note Name: G5, Velocity: 56
Note OFF: Time 218400, Note Name: D6
Note ON: Time 218400, Note Name: B5, Velocity: 61
Note OFF: Time 218880, Note Name: B5
Note OFF: Time 218880, Note Name: G5
Note OFF: Time 218880, Note Name: G6
Note ON: Time 218880, Note Name: C6, Velocity: 51
Note ON: Time 218880, Note Name: G5, Velocity: 51
Note ON: Time 218880, Note Name: D#6, Velocity: 60
Note OFF: Time 219360, Note Name: D#6
Note OFF: Time 219360, Note Name: G5
Note OFF: Time 219360, Note Name: C6
Note ON: Time 219360, Note Name: G5, Velocity: 53
Note ON: Time 219360, Note Name: C6, Velocity: 63
Note OFF: Time 219840, Note Name: C6
Note OFF: Time 219840, Note Name: G5
Note ON: Time 219840, Note Name: A#5, Velocity: 66
Note ON: Time 219840, Note Name: G5, Velocity: 56
Note OFF: Time 220320, Note Name: A#5
Note ON: Time 220320, Note Name: B5, Velocity: 59
Note OFF: Time 220800, Note Name: B5
Note OFF: Time 220800, Note Name: G5
Note ON: Time 220800, Note Name: F#5, Velocity: 54
Note ON: Time 220800, Note Name: D6, Velocity: 64
Note OFF: Time 221280, Note Name: D6
Note OFF: Time 221280, Note Name: F#5
Note ON: Time 221280, Note Name: C6, Velocity: 63
Note ON: Time 221280, Note Name: A5, Velocity: 53
Note ON: Time 221520, Note Name: D5, Velocity: 52
Note OFF: Time 221640, Note Name: A5
Note OFF: Time 221640, Note Name: C6
Note ON: Time 221640, Note Name: F#5, Velocity: 48
Note ON: Time 221640, Note Name: A5, Velocity: 57
Note OFF: Time 221760, Note Name: A5
Note OFF: Time 221760, Note Name: F#5
Note OFF: Time 221760, Note Name: D5
Note ON: Time 221760, Note Name: G5, Velocity: 49
Note ON: Time 221760, Note Name: D5, Velocity: 49
Note ON: Time 221760, Note Name: B5, Velocity: 58
Note OFF: Time 221841, Note Name: G5
Note ON: Time 221841, Note Name: A5, Velocity: 42
Note OFF: Time 221921, Note Name: A5
Note ON: Time 221921, Note Name: G5, Velocity: 49
Note OFF: Time 222000, Note Name: D5
Note ON: Time 222001, Note Name: A5, Velocity: 44
Note OFF: Time 222002, Note Name: G5
Note OFF: Time 222082, Note Name: A5
Note ON: Time 222082, Note Name: G5, Velocity: 49
Note OFF: Time 222162, Note Name: G5
Note ON: Time 222162, Note Name: A5, Velocity: 44
Note ON: Time 222240, Note Name: G5, Velocity: 50
Note OFF: Time 222243, Note Name: A5
Note OFF: Time 222321, Note Name: G5
Note ON: Time 222321, Note Name: A5, Velocity: 44
Note OFF: Time 222401, Note Name: A5
Note ON: Time 222401, Note Name: G5, Velocity: 50
Note ON: Time 222481, Note Name: A5, Velocity: 46
Note OFF: Time 222482, Note Name: G5
Note OFF: Time 222562, Note Name: A5
Note ON: Time 222562, Note Name: G5, Velocity: 51
Note OFF: Time 222642, Note Name: G5
Note ON: Time 222642, Note Name: A5, Velocity: 45
Note OFF: Time 222720, Note Name: B5
Note ON: Time 222720, Note Name: C6, Velocity: 67
Note ON: Time 222720, Note Name: G5, Velocity: 51
Note OFF: Time 222723, Note Name: A5
Note OFF: Time 222801, Note Name: G5
Note ON: Time 222801, Note Name: A5, Velocity: 44
Note OFF: Time 222881, Note Name: A5
Note ON: Time 222881, Note Name: G5, Velocity: 52
Note ON: Time 222961, Note Name: A5, Velocity: 47
Note OFF: Time 222962, Note Name: G5
Note OFF: Time 223042, Note Name: A5
Note ON: Time 223042, Note Name: G5, Velocity: 52
Note OFF: Time 223122, Note Name: G5
Note ON: Time 223122, Note Name: A5, Velocity: 47
Note OFF: Time 223200, Note Name: C6
Note ON: Time 223200, Note Name: G5, Velocity: 53
Note ON: Time 223200, Note Name: E6, Velocity: 73
Note OFF: Time 223203, Note Name: A5
Note OFF: Time 223281, Note Name: G5
Note ON: Time 223281, Note Name: A5, Velocity: 47
Note OFF: Time 223361, Note Name: A5
Note ON: Time 223361, Note Name: G5, Velocity: 54
Note ON: Time 223441, Note Name: A5, Velocity: 48
Note OFF: Time 223442, Note Name: G5
Note OFF: Time 223522, Note Name: A5
Note ON: Time 223522, Note Name: G5, Velocity: 54
Note OFF: Time 223602, Note Name: G5
Note ON: Time 223602, Note Name: A5, Velocity: 48
Note OFF: Time 223680, Note Name: E6
Note ON: Time 223680, Note Name: G6, Velocity: 67
Note ON: Time 223680, Note Name: G5, Velocity: 55
Note OFF: Time 223683, Note Name: A5
Note OFF: Time 223761, Note Name: G5
Note ON: Time 223761, Note Name: A5, Velocity: 47
Note OFF: Time 223841, Note Name: A5
Note ON: Time 223841, Note Name: G5, Velocity: 55
Note ON: Time 223921, Note Name: A5, Velocity: 50
Note OFF: Time 223922, Note Name: G5
Note OFF: Time 224002, Note Name: A5
Note ON: Time 224002, Note Name: G5, Velocity: 56
Note OFF: Time 224082, Note Name: G5
Note ON: Time 224082, Note Name: A5, Velocity: 51
Note ON: Time 224160, Note Name: G5, Velocity: 56
Note OFF: Time 224163, Note Name: A5
Note OFF: Time 224241, Note Name: G5
Note ON: Time 224241, Note Name: A5, Velocity: 50
Note OFF: Time 224321, Note Name: A5
Note ON: Time 224321, Note Name: G5, Velocity: 57
Note ON: Time 224401, Note Name: A5, Velocity: 51
Note OFF: Time 224402, Note Name: G5
Note OFF: Time 224482, Note Name: A5
Note ON: Time 224482, Note Name: G5, Velocity: 57
Note OFF: Time 224562, Note Name: G5
Note ON: Time 224562, Note Name: A5, Velocity: 51
Note OFF: Time 224640, Note Name: G6
Note ON: Time 224640, Note Name: E6, Velocity: 72
Note ON: Time 224640, Note Name: G5, Velocity: 58
Note OFF: Time 224643, Note Name: A5
Note OFF: Time 224721, Note Name: G5
Note ON: Time 224721, Note Name: A5, Velocity: 50
Note OFF: Time 224801, Note Name: A5
Note ON: Time 224801, Note Name: G5, Velocity: 59
Note ON: Time 224881, Note Name: A5, Velocity: 53
Note OFF: Time 224882, Note Name: G5
Note OFF: Time 224962, Note Name: A5
Note ON: Time 224962, Note Name: G5, Velocity: 59
Note OFF: Time 225042, Note Name: G5
Note ON: Time 225042, Note Name: A5, Velocity: 53
Note OFF: Time 225120, Note Name: E6
Note ON: Time 225120, Note Name: G5, Velocity: 60
Note ON: Time 225120, Note Name: C6, Velocity: 77
Note OFF: Time 225123, Note Name: A5
Note OFF: Time 225201, Note Name: G5
Note ON: Time 225201, Note Name: A5, Velocity: 52
Note OFF: Time 225281, Note Name: A5
Note ON: Time 225281, Note Name: G5, Velocity: 60
Note ON: Time 225361, Note Name: A5, Velocity: 55
Note OFF: Time 225362, Note Name: G5
Note OFF: Time 225442, Note Name: A5
Note ON: Time 225442, Note Name: G5, Velocity: 61
Note OFF: Time 225522, Note Name: G5
Note ON: Time 225522, Note Name: A5, Velocity: 54
Note OFF: Time 225600, Note Name: C6
Note ON: Time 225600, Note Name: A#5, Velocity: 83
Note ON: Time 225600, Note Name: G5, Velocity: 61
Note OFF: Time 225603, Note Name: A5
Note OFF: Time 225681, Note Name: G5
Note ON: Time 225681, Note Name: A5, Velocity: 53
Note OFF: Time 225761, Note Name: A5
Note ON: Time 225761, Note Name: G5, Velocity: 62
Note OFF: Time 225840, Note Name: A#5
Note ON: Time 225840, Note Name: B5, Velocity: 75
Note ON: Time 225841, Note Name: A5, Velocity: 56
Note OFF: Time 225842, Note Name: G5
Note OFF: Time 225922, Note Name: A5
Note ON: Time 225922, Note Name: G5, Velocity: 62
Note OFF: Time 226002, Note Name: G5
Note ON: Time 226002, Note Name: A5, Velocity: 56
Note ON: Time 226080, Note Name: G5, Velocity: 63
Note OFF: Time 226083, Note Name: A5
Note OFF: Time 226161, Note Name: G5
Note ON: Time 226161, Note Name: A5, Velocity: 55
Note OFF: Time 226241, Note Name: A5
Note ON: Time 226241, Note Name: G5, Velocity: 64
Note OFF: Time 226320, Note Name: B5
Note ON: Time 226320, Note Name: D6, Velocity: 86
Note ON: Time 226321, Note Name: A5, Velocity: 57
Note OFF: Time 226322, Note Name: G5
Note OFF: Time 226402, Note Name: A5
Note ON: Time 226402, Note Name: G5, Velocity: 64
Note OFF: Time 226482, Note Name: G5
Note ON: Time 226482, Note Name: A5, Velocity: 56
Note OFF: Time 226560, Note Name: D6
Note ON: Time 226560, Note Name: D6, Velocity: 75
Note OFF: Time 226563, Note Name: A5
Note OFF: Time 226641, Note Name: D6
Note ON: Time 226641, Note Name: E6, Velocity: 66
Note OFF: Time 226721, Note Name: E6
Note ON: Time 226721, Note Name: D6, Velocity: 75
Note ON: Time 226800, Note Name: D5, Velocity: 60
Note ON: Time 226801, Note Name: E6, Velocity: 64
Note OFF: Time 226802, Note Name: D6
Note OFF: Time 226882, Note Name: E6
Note ON: Time 226882, Note Name: D6, Velocity: 75
Note OFF: Time 226962, Note Name: D6
Note ON: Time 226962, Note Name: E6, Velocity: 68
Note OFF: Time 227040, Note Name: D5
Note ON: Time 227040, Note Name: D6, Velocity: 78
Note OFF: Time 227043, Note Name: E6
Note OFF: Time 227121, Note Name: D6
Note ON: Time 227121, Note Name: E6, Velocity: 69
Note OFF: Time 227201, Note Name: E6
Note ON: Time 227201, Note Name: D6, Velocity: 75
Note ON: Time 227280, Note Name: C#6, Velocity: 75
Note OFF: Time 227282, Note Name: D6
Note OFF: Time 227400, Note Name: C#6
Note ON: Time 227400, Note Name: D6, Velocity: 79
Note OFF: Time 227520, Note Name: D6
Note ON: Time 227520, Note Name: D6, Velocity: 73
Note ON: Time 227520, Note Name: B6, Velocity: 73
Note ON: Time 227520, Note Name: D7, Velocity: 86
Note ON: Time 227520, Note Name: F6, Velocity: 73
Note OFF: Time 227640, Note Name: F6
Note OFF: Time 227640, Note Name: D6
Note OFF: Time 227640, Note Name: B6
Note OFF: Time 227640, Note Name: D7
Note ON: Time 227760, Note Name: F6, Velocity: 66
Note ON: Time 227760, Note Name: B6, Velocity: 66
Note ON: Time 227760, Note Name: D6, Velocity: 66
Note ON: Time 227760, Note Name: D7, Velocity: 78
Note OFF: Time 228240, Note Name: D7
Note OFF: Time 228240, Note Name: F6
Note OFF: Time 228240, Note Name: B6
Note OFF: Time 228240, Note Name: D6
Note ON: Time 228240, Note Name: D6, Velocity: 66
Note ON: Time 228240, Note Name: C6, Velocity: 66
Note ON: Time 228240, Note Name: C7, Velocity: 78
Note ON: Time 228240, Note Name: F6, Velocity: 66
Note OFF: Time 228360, Note Name: F6
Note OFF: Time 228360, Note Name: D6
Note OFF: Time 228360, Note Name: C6
Note OFF: Time 228360, Note Name: C7
Note ON: Time 228480, Note Name: D6, Velocity: 67
Note ON: Time 228480, Note Name: B6, Velocity: 79
Note ON: Time 228480, Note Name: B5, Velocity: 67
Note ON: Time 228480, Note Name: F6, Velocity: 67
Note OFF: Time 228600, Note Name: F6
Note OFF: Time 228600, Note Name: D6
Note OFF: Time 228600, Note Name: B6
Note OFF: Time 228600, Note Name: B5
Note ON: Time 228720, Note Name: C7, Velocity: 83
Note ON: Time 228720, Note Name: F6, Velocity: 70
Note ON: Time 228720, Note Name: C6, Velocity: 70
Note ON: Time 228720, Note Name: D6, Velocity: 70
Note OFF: Time 228840, Note Name: D6
Note OFF: Time 228840, Note Name: C7
Note OFF: Time 228840, Note Name: F6
Note OFF: Time 228840, Note Name: C6
Note ON: Time 228960, Note Name: F6, Velocity: 69
Note ON: Time 228960, Note Name: D6, Velocity: 69
Note ON: Time 228960, Note Name: D7, Velocity: 82
Note OFF: Time 229080, Note Name: D7
Note OFF: Time 229080, Note Name: D6
Note OFF: Time 229080, Note Name: F6
Note ON: Time 229200, Note Name: E6, Velocity: 58
Note ON: Time 229200, Note Name: B6, Velocity: 69
Note ON: Time 229200, Note Name: B5, Velocity: 58
Note ON: Time 229200, Note Name: D6, Velocity: 58
Note OFF: Time 229320, Note Name: D6
Note OFF: Time 229320, Note Name: E6
Note OFF: Time 229320, Note Name: B6
Note OFF: Time 229320, Note Name: B5
Note ON: Time 229440, Note Name: C6, Velocity: 50
Note ON: Time 229440, Note Name: E6, Velocity: 50
Note ON: Time 229440, Note Name: C7, Velocity: 59
Note OFF: Time 229560, Note Name: C7
Note OFF: Time 229560, Note Name: E6
Note OFF: Time 229560, Note Name: C6
Note ON: Time 229680, Note Name: E6, Velocity: 45
Note ON: Time 229680, Note Name: D6, Velocity: 45
Note ON: Time 229680, Note Name: B5, Velocity: 45
Note ON: Time 229680, Note Name: B6, Velocity: 53
Note OFF: Time 229800, Note Name: B6
Note OFF: Time 229800, Note Name: E6
Note OFF: Time 229800, Note Name: D6
Note OFF: Time 229800, Note Name: B5
Note ON: Time 229920, Note Name: C6, Velocity: 50
Note ON: Time 229920, Note Name: E6, Velocity: 50
Note ON: Time 229920, Note Name: C7, Velocity: 59
Note OFF: Time 230040, Note Name: C7
Note OFF: Time 230040, Note Name: E6
Note OFF: Time 230040, Note Name: C6
Note ON: Time 230160, Note Name: C6, Velocity: 45
Note ON: Time 230160, Note Name: A5, Velocity: 45
Note ON: Time 230160, Note Name: A6, Velocity: 53
Note ON: Time 230160, Note Name: E6, Velocity: 45
Note OFF: Time 230280, Note Name: E6
Note OFF: Time 230280, Note Name: C6
Note OFF: Time 230280, Note Name: A5
Note OFF: Time 230280, Note Name: A6
Note ON: Time 230400, Note Name: G6, Velocity: 59
Note ON: Time 230400, Note Name: E6, Velocity: 50
Note ON: Time 230400, Note Name: A5, Velocity: 50
Note OFF: Time 230520, Note Name: A5
Note OFF: Time 230520, Note Name: E6
Note OFF: Time 230520, Note Name: G6
Note ON: Time 230640, Note Name: C#6, Velocity: 45
Note ON: Time 230640, Note Name: G6, Velocity: 53
Note ON: Time 230640, Note Name: A5, Velocity: 45
Note OFF: Time 230760, Note Name: A5
Note OFF: Time 230760, Note Name: G6
Note OFF: Time 230760, Note Name: C#6
Note ON: Time 230880, Note Name: A5, Velocity: 50
Note ON: Time 230880, Note Name: C6, Velocity: 50
Note ON: Time 230880, Note Name: F#6, Velocity: 59
Note OFF: Time 231000, Note Name: F#6
Note OFF: Time 231000, Note Name: C6
Note OFF: Time 231000, Note Name: A5
Note ON: Time 231120, Note Name: A5, Velocity: 45
Note ON: Time 231120, Note Name: A6, Velocity: 53
Note ON: Time 231120, Note Name: C6, Velocity: 45
Note OFF: Time 231240, Note Name: C6
Note OFF: Time 231240, Note Name: A6
Note OFF: Time 231240, Note Name: A5
Note ON: Time 231360, Note Name: G5, Velocity: 55
Note ON: Time 231360, Note Name: B5, Velocity: 55
Note ON: Time 231360, Note Name: G6, Velocity: 64
Note OFF: Time 231480, Note Name: G6
Note OFF: Time 231480, Note Name: B5
Note OFF: Time 231480, Note Name: G5
Note ON: Time 231600, Note Name: D6, Velocity: 59
Note ON: Time 231600, Note Name: D5, Velocity: 50
Note ON: Time 231600, Note Name: B5, Velocity: 50
Note OFF: Time 231720, Note Name: B5
Note OFF: Time 231720, Note Name: D5
Note OFF: Time 231720, Note Name: D6
Note ON: Time 231840, Note Name: F#6, Velocity: 69
Note ON: Time 231840, Note Name: C6, Velocity: 58
Note ON: Time 231840, Note Name: F#5, Velocity: 58
Note OFF: Time 231960, Note Name: F#5
Note OFF: Time 231960, Note Name: C6
Note OFF: Time 231960, Note Name: F#6
Note ON: Time 232080, Note Name: C6, Velocity: 55
Note ON: Time 232080, Note Name: A6, Velocity: 65
Note ON: Time 232080, Note Name: F#6, Velocity: 55
Note ON: Time 232080, Note Name: A5, Velocity: 55
Note OFF: Time 232200, Note Name: A5
Note OFF: Time 232200, Note Name: C6
Note OFF: Time 232200, Note Name: A6
Note OFF: Time 232200, Note Name: F#6
Note ON: Time 232320, Note Name: G5, Velocity: 63
Note ON: Time 232320, Note Name: G6, Velocity: 75
Note ON: Time 232320, Note Name: B5, Velocity: 63
Note OFF: Time 232440, Note Name: B5
Note OFF: Time 232440, Note Name: G6
Note OFF: Time 232440, Note Name: G5
Note ON: Time 232560, Note Name: D5, Velocity: 59
Note ON: Time 232560, Note Name: B5, Velocity: 59
Note ON: Time 232560, Note Name: D6, Velocity: 69
Note OFF: Time 232680, Note Name: D6
Note OFF: Time 232680, Note Name: B5
Note OFF: Time 232680, Note Name: D5
Note ON: Time 232800, Note Name: C6, Velocity: 69
Note ON: Time 232800, Note Name: F#5, Velocity: 69
Note ON: Time 232800, Note Name: F#6, Velocity: 80
Note OFF: Time 232920, Note Name: F#6
Note OFF: Time 232920, Note Name: F#5
Note OFF: Time 232920, Note Name: C6
Note ON: Time 233040, Note Name: F#6, Velocity: 64
Note ON: Time 233040, Note Name: A6, Velocity: 76
Note ON: Time 233040, Note Name: C6, Velocity: 64
Note ON: Time 233040, Note Name: A5, Velocity: 64
Note OFF: Time 233160, Note Name: A5
Note OFF: Time 233160, Note Name: F#6
Note OFF: Time 233160, Note Name: A6
Note OFF: Time 233160, Note Name: C6
Note ON: Time 233280, Note Name: G5, Velocity: 77
Note OFF: Time 233400, Note Name: G5
Note ON: Time 233400, Note Name: G6, Velocity: 70
Note OFF: Time 233520, Note Name: G6
Note ON: Time 233520, Note Name: D5, Velocity: 79
Note OFF: Time 233640, Note Name: D5
Note ON: Time 233640, Note Name: D6, Velocity: 73
Note OFF: Time 233760, Note Name: D6
Note ON: Time 233760, Note Name: F#5, Velocity: 82
Note OFF: Time 233880, Note Name: F#5
Note ON: Time 233880, Note Name: F#6, Velocity: 76
Note OFF: Time 234000, Note Name: F#6
Note ON: Time 234000, Note Name: A5, Velocity: 85
Note OFF: Time 234120, Note Name: A5
Note ON: Time 234120, Note Name: A6, Velocity: 79
Note OFF: Time 234240, Note Name: A6
Note ON: Time 234240, Note Name: G5, Velocity: 88
Note OFF: Time 234360, Note Name: G5
Note ON: Time 234360, Note Name: G6, Velocity: 82
Note OFF: Time 234480, Note Name: G6
Note ON: Time 234480, Note Name: D5, Velocity: 91
Note OFF: Time 234600, Note Name: D5
Note ON: Time 234600, Note Name: D6, Velocity: 86
Note OFF: Time 234720, Note Name: D6
Note ON: Time 234720, Note Name: F#5, Velocity: 94
Note OFF: Time 234840, Note Name: F#5
Note ON: Time 234840, Note Name: F#6, Velocity: 90
Note OFF: Time 234960, Note Name: F#6
Note ON: Time 234960, Note Name: A5, Velocity: 99
Note OFF: Time 235080, Note Name: A5
Note ON: Time 235080, Note Name: A6, Velocity: 92
Note OFF: Time 235200, Note Name: A6
Note ON: Time 235200, Note Name: G5, Velocity: 91
Note ON: Time 235200, Note Name: G6, Velocity: 110
Note OFF: Time 235380, Note Name: G6
Note OFF: Time 235380, Note Name: G5
Note ON: Time 235680, Note Name: A5, Velocity: 94
Note ON: Time 235680, Note Name: A6, Velocity: 112
Note OFF: Time 235860, Note Name: A6
Note OFF: Time 235860, Note Name: A5
Note ON: Time 236160, Note Name: B5, Velocity: 99
Note ON: Time 236160, Note Name: B6, Velocity: 118
Note OFF: Time 237120, Note Name: B6
Note OFF: Time 237120, Note Name: B5
Note ON: Time 237120, Note Name: B5, Velocity: 91
Note ON: Time 237120, Note Name: B6, Velocity: 110
Note OFF: Time 237300, Note Name: B6
Note OFF: Time 237300, Note Name: B5
Note ON: Time 237600, Note Name: C6, Velocity: 94
Note ON: Time 237600, Note Name: C7, Velocity: 112
Note OFF: Time 237780, Note Name: C7
Note OFF: Time 237780, Note Name: C6
Note ON: Time 238080, Note Name: D6, Velocity: 99
Note ON: Time 238080, Note Name: D7, Velocity: 118
Note OFF: Time 239040, Note Name: D7
Note OFF: Time 239040, Note Name: D6
Note ON: Time 239040, Note Name: D5, Velocity: 43
Note ON: Time 239040, Note Name: G5, Velocity: 43
Note ON: Time 239040, Note Name: D6, Velocity: 51
Note OFF: Time 239100, Note Name: D6
Note OFF: Time 239100, Note Name: G5
Note OFF: Time 239100, Note Name: D5
Note ON: Time 239280, Note Name: D6, Velocity: 46
Note ON: Time 239280, Note Name: G5, Velocity: 39
Note ON: Time 239280, Note Name: D5, Velocity: 39
Note OFF: Time 239760, Note Name: D5
Note OFF: Time 239760, Note Name: G5
Note OFF: Time 239760, Note Name: D6
Note ON: Time 239760, Note Name: G5, Velocity: 39
Note ON: Time 239760, Note Name: D#5, Velocity: 39
Note ON: Time 239760, Note Name: C6, Velocity: 46
Note OFF: Time 239880, Note Name: C6
Note OFF: Time 239880, Note Name: D#5
Note OFF: Time 239880, Note Name: G5
Note ON: Time 240000, Note Name: B5, Velocity: 47
Note ON: Time 240000, Note Name: F5, Velocity: 40
Note ON: Time 240000, Note Name: G5, Velocity: 40
Note OFF: Time 240120, Note Name: G5
Note OFF: Time 240120, Note Name: F5
Note OFF: Time 240120, Note Name: B5
Note ON: Time 240240, Note Name: C6, Velocity: 49
Note ON: Time 240240, Note Name: G5, Velocity: 42
Note ON: Time 240240, Note Name: D#5, Velocity: 42
Note OFF: Time 240360, Note Name: D#5
Note OFF: Time 240360, Note Name: G5
Note OFF: Time 240360, Note Name: C6
Note ON: Time 240480, Note Name: D5, Velocity: 41
Note ON: Time 240480, Note Name: D6, Velocity: 49
Note ON: Time 240480, Note Name: G5, Velocity: 41
Note OFF: Time 240600, Note Name: G5
Note OFF: Time 240600, Note Name: D6
Note OFF: Time 240600, Note Name: D5
Note ON: Time 240720, Note Name: G5, Velocity: 34
Note ON: Time 240720, Note Name: F5, Velocity: 34
Note ON: Time 240720, Note Name: B5, Velocity: 41
Note OFF: Time 240840, Note Name: B5
Note OFF: Time 240840, Note Name: F5
Note OFF: Time 240840, Note Name: G5
Note ON: Time 240960, Note Name: G5, Velocity: 43
Note ON: Time 240960, Note Name: D#5, Velocity: 43
Note ON: Time 240960, Note Name: D#6, Velocity: 51
Note OFF: Time 241020, Note Name: D#6
Note OFF: Time 241020, Note Name: D#5
Note OFF: Time 241020, Note Name: G5
Note ON: Time 241200, Note Name: G5, Velocity: 39
Note ON: Time 241200, Note Name: D#5, Velocity: 39
Note ON: Time 241200, Note Name: D#6, Velocity: 46
Note OFF: Time 241680, Note Name: D#6
Note OFF: Time 241680, Note Name: D#5
Note OFF: Time 241680, Note Name: G5
Note ON: Time 241680, Note Name: F5, Velocity: 39
Note ON: Time 241680, Note Name: G5, Velocity: 39
Note ON: Time 241680, Note Name: D6, Velocity: 46
Note ON: Time 241680, Note Name: D5, Velocity: 39
Note OFF: Time 241800, Note Name: D5
Note OFF: Time 241800, Note Name: F5
Note OFF: Time 241800, Note Name: G5
Note OFF: Time 241800, Note Name: D6
Note ON: Time 241920, Note Name: D#5, Velocity: 40
Note ON: Time 241920, Note Name: G5, Velocity: 40
Note ON: Time 241920, Note Name: C6, Velocity: 47
Note OFF: Time 242040, Note Name: C6
Note OFF: Time 242040, Note Name: G5
Note OFF: Time 242040, Note Name: D#5
Note ON: Time 242160, Note Name: F5, Velocity: 42
Note ON: Time 242160, Note Name: D5, Velocity: 42
Note ON: Time 242160, Note Name: G5, Velocity: 42
Note ON: Time 242160, Note Name: D6, Velocity: 49
Note OFF: Time 242280, Note Name: D6
Note OFF: Time 242280, Note Name: F5
Note OFF: Time 242280, Note Name: D5
Note OFF: Time 242280, Note Name: G5
Note ON: Time 242400, Note Name: D#6, Velocity: 49
Note ON: Time 242400, Note Name: D#5, Velocity: 41
Note ON: Time 242400, Note Name: G5, Velocity: 41
Note OFF: Time 242520, Note Name: G5
Note OFF: Time 242520, Note Name: D#5
Note OFF: Time 242520, Note Name: D#6
Note ON: Time 242640, Note Name: C6, Velocity: 41
Note ON: Time 242640, Note Name: G5, Velocity: 34
Note ON: Time 242640, Note Name: D#5, Velocity: 34
Note OFF: Time 242760, Note Name: D#5
Note OFF: Time 242760, Note Name: G5
Note OFF: Time 242760, Note Name: C6
Note ON: Time 242880, Note Name: G#5, Velocity: 47
Note ON: Time 242880, Note Name: F6, Velocity: 56
Note ON: Time 242880, Note Name: F5, Velocity: 47
Note OFF: Time 242940, Note Name: F5
Note OFF: Time 242940, Note Name: F6
Note OFF: Time 242940, Note Name: G#5
Note ON: Time 243120, Note Name: G#5, Velocity: 44
Note ON: Time 243120, Note Name: F5, Velocity: 44
Note ON: Time 243120, Note Name: F6, Velocity: 52
Note OFF: Time 243600, Note Name: F6
Note OFF: Time 243600, Note Name: F5
Note OFF: Time 243600, Note Name: G#5
Note ON: Time 243600, Note Name: G5, Velocity: 48
Note ON: Time 243600, Note Name: D#5, Velocity: 48
Note ON: Time 243600, Note Name: D#6, Velocity: 57
Note OFF: Time 243720, Note Name: D#6
Note OFF: Time 243720, Note Name: D#5
Note OFF: Time 243720, Note Name: G5
Note ON: Time 243840, Note Name: D6, Velocity: 61
Note ON: Time 243840, Note Name: F5, Velocity: 52
Note ON: Time 243840, Note Name: D5, Velocity: 52
Note OFF: Time 243960, Note Name: D5
Note OFF: Time 243960, Note Name: F5
Note OFF: Time 243960, Note Name: D6
Note ON: Time 244080, Note Name: D#6, Velocity: 66
Note ON: Time 244080, Note Name: G5, Velocity: 56
Note ON: Time 244080, Note Name: D#5, Velocity: 56
Note OFF: Time 244200, Note Name: D#5
Note OFF: Time 244200, Note Name: G5
Note OFF: Time 244200, Note Name: D#6
Note ON: Time 244320, Note Name: G#5, Velocity: 57
Note ON: Time 244320, Note Name: F5, Velocity: 57
Note ON: Time 244320, Note Name: F6, Velocity: 68
Note OFF: Time 244440, Note Name: F6
Note OFF: Time 244440, Note Name: F5
Note OFF: Time 244440, Note Name: G#5
Note ON: Time 244560, Note Name: D6, Velocity: 67
Note ON: Time 244560, Note Name: A#5, Velocity: 56
Note ON: Time 244560, Note Name: D5, Velocity: 56
Note ON: Time 244560, Note Name: F5, Velocity: 56
Note OFF: Time 244680, Note Name: F5
Note OFF: Time 244680, Note Name: D6
Note OFF: Time 244680, Note Name: A#5
Note OFF: Time 244680, Note Name: D5
Note ON: Time 244800, Note Name: G6, Velocity: 105
Note ON: Time 244800, Note Name: G5, Velocity: 87
Note ON: Time 244800, Note Name: D#6, Velocity: 87
Note OFF: Time 244980, Note Name: D#6
Note OFF: Time 244980, Note Name: G5
Note OFF: Time 244980, Note Name: G6
Note ON: Time 245280, Note Name: G#6, Velocity: 107
Note ON: Time 245280, Note Name: G#5, Velocity: 90
Note ON: Time 245280, Note Name: F6, Velocity: 90
Note OFF: Time 245460, Note Name: F6
Note OFF: Time 245460, Note Name: G#5
Note OFF: Time 245460, Note Name: G#6
Note ON: Time 245760, Note Name: A#6, Velocity: 113
Note ON: Time 245760, Note Name: A#5, Velocity: 94
Note ON: Time 245760, Note Name: G6, Velocity: 94
Note OFF: Time 246720, Note Name: G6
Note OFF: Time 246720, Note Name: A#5
Note OFF: Time 246720, Note Name: A#6
Note ON: Time 246720, Note Name: G4, Velocity: 50
Note ON: Time 246720, Note Name: D#4, Velocity: 42
Note OFF: Time 246900, Note Name: D#4
Note OFF: Time 246900, Note Name: G4
Note ON: Time 247200, Note Name: G#4, Velocity: 52
Note ON: Time 247200, Note Name: F4, Velocity: 44
Note OFF: Time 247380, Note Name: F4
Note OFF: Time 247380, Note Name: G#4
Note ON: Time 247680, Note Name: A#4, Velocity: 53
Note ON: Time 247680, Note Name: G4, Velocity: 45
Note OFF: Time 248520, Note Name: G4
Note OFF: Time 248520, Note Name: A#4
Note ON: Time 250440, Note Name: D#3, Velocity: 57
Note OFF: Time 250560, Note Name: D#3
Note ON: Time 250560, Note Name: D#4, Velocity: 77
Note OFF: Time 250917, Note Name: D#4
Note ON: Time 250920, Note Name: D#4, Velocity: 56
Note OFF: Time 251038, Note Name: D#4
Note ON: Time 251040, Note Name: D#4, Velocity: 63
Note OFF: Time 251280, Note Name: D#4
Note ON: Time 252360, Note Name: A#2, Velocity: 40
Note OFF: Time 252480, Note Name: A#2
Note ON: Time 252480, Note Name: D#3, Velocity: 44
Note OFF: Time 252838, Note Name: D#3
Note ON: Time 252840, Note Name: D#3, Velocity: 40
Note OFF: Time 252958, Note Name: D#3
Note ON: Time 252960, Note Name: D#3, Velocity: 43
Note OFF: Time 253200, Note Name: D#3
Note ON: Time 253200, Note Name: F3, Velocity: 44
Note OFF: Time 253290, Note Name: F3
Note ON: Time 253320, Note Name: D#3, Velocity: 40
Note OFF: Time 253410, Note Name: D#3
Note ON: Time 253440, Note Name: D#3, Velocity: 44
Note OFF: Time 253530, Note Name: D#3
Note ON: Time 253680, Note Name: C3, Velocity: 39
Note OFF: Time 253770, Note Name: C3
Note ON: Time 253920, Note Name: C3, Velocity: 39
Note OFF: Time 254400, Note Name: C3
Note ON: Time 254400, Note Name: G#3, Velocity: 47
Note OFF: Time 254490, Note Name: G#3
Note ON: Time 254640, Note Name: G#3, Velocity: 42
Note OFF: Time 254730, Note Name: G#3
Note ON: Time 254760, Note Name: G3, Velocity: 42
Note OFF: Time 254850, Note Name: G3
Note ON: Time 254880, Note Name: F3, Velocity: 47
Note OFF: Time 255000, Note Name: F3
Note ON: Time 255120, Note Name: F3, Velocity: 44
Note OFF: Time 255210, Note Name: F3
Note ON: Time 255240, Note Name: D#3, Velocity: 44
Note OFF: Time 255330, Note Name: D#3
Note ON: Time 255360, Note Name: D3, Velocity: 47
Note OFF: Time 255600, Note Name: D3
Note ON: Time 255840, Note Name: D3, Velocity: 39
Note OFF: Time 256320, Note Name: D3
Note ON: Time 256320, Note Name: A#3, Velocity: 50
Note OFF: Time 256410, Note Name: A#3
Note ON: Time 256560, Note Name: A#3, Velocity: 44
Note OFF: Time 256650, Note Name: A#3
Note ON: Time 256680, Note Name: G#3, Velocity: 44
Note OFF: Time 256770, Note Name: G#3
Note ON: Time 256800, Note Name: G3, Velocity: 48
Note OFF: Time 256920, Note Name: G3
Note ON: Time 257040, Note Name: G3, Velocity: 44
Note OFF: Time 257130, Note Name: G3
Note ON: Time 257160, Note Name: F3, Velocity: 44
Note OFF: Time 257250, Note Name: F3
Note ON: Time 257280, Note Name: E3, Velocity: 48
Note OFF: Time 257520, Note Name: E3
Note ON: Time 257760, Note Name: E3, Velocity: 39
Note OFF: Time 258240, Note Name: E3
Note ON: Time 258240, Note Name: C4, Velocity: 48
Note OFF: Time 258330, Note Name: C4
Note ON: Time 258480, Note Name: C4, Velocity: 44
Note OFF: Time 258570, Note Name: C4
Note ON: Time 258600, Note Name: A#3, Velocity: 44
Note OFF: Time 258690, Note Name: A#3
Note ON: Time 258720, Note Name: G#3, Velocity: 49
Note OFF: Time 258840, Note Name: G#3
Note ON: Time 258960, Note Name: G#3, Velocity: 45
Note OFF: Time 259050, Note Name: G#3
Note ON: Time 259080, Note Name: G3, Velocity: 46
Note OFF: Time 259170, Note Name: G3
Note ON: Time 259200, Note Name: F3, Velocity: 50
Note OFF: Time 259290, Note Name: F3
Note ON: Time 259440, Note Name: F3, Velocity: 47
Note OFF: Time 259530, Note Name: F3
Note ON: Time 259560, Note Name: G3, Velocity: 47
Note OFF: Time 259650, Note Name: G3
Note ON: Time 259680, Note Name: G#3, Velocity: 51
Note OFF: Time 259800, Note Name: G#3
Note ON: Time 259920, Note Name: G#3, Velocity: 48
Note OFF: Time 260010, Note Name: G#3
Note ON: Time 260040, Note Name: A#3, Velocity: 48
Note OFF: Time 260130, Note Name: A#3
Note ON: Time 260160, Note Name: G3, Velocity: 51
Note OFF: Time 260280, Note Name: G3
Note ON: Time 260400, Note Name: G3, Velocity: 49
Note OFF: Time 260490, Note Name: G3
Note ON: Time 260520, Note Name: F3, Velocity: 49
Note OFF: Time 260610, Note Name: F3
Note ON: Time 260640, Note Name: D#3, Velocity: 55
Note OFF: Time 260880, Note Name: D#3
Note ON: Time 261000, Note Name: F4, Velocity: 46
Note OFF: Time 261120, Note Name: F4
Note ON: Time 261120, Note Name: A#4, Velocity: 56
Note OFF: Time 261478, Note Name: A#4
Note ON: Time 261480, Note Name: A#4, Velocity: 47
Note OFF: Time 261598, Note Name: A#4
Note ON: Time 261600, Note Name: A#4, Velocity: 55
Note OFF: Time 261840, Note Name: A#4
Note ON: Time 261840, Note Name: C5, Velocity: 53
Note OFF: Time 261930, Note Name: C5
Note ON: Time 261960, Note Name: A#4, Velocity: 48
Note OFF: Time 262050, Note Name: A#4
Note ON: Time 262080, Note Name: A#4, Velocity: 57
Note OFF: Time 262170, Note Name: A#4
Note ON: Time 262320, Note Name: G4, Velocity: 48
Note OFF: Time 262410, Note Name: G4
Note ON: Time 262560, Note Name: G4, Velocity: 49
Note OFF: Time 263040, Note Name: G4
Note ON: Time 263040, Note Name: D#5, Velocity: 61
Note OFF: Time 263130, Note Name: D#5
Note ON: Time 263280, Note Name: D#5, Velocity: 57
Note OFF: Time 263370, Note Name: D#5
Note ON: Time 263400, Note Name: D5, Velocity: 57
Note OFF: Time 263490, Note Name: D5
Note ON: Time 263520, Note Name: C5, Velocity: 62
Note OFF: Time 263640, Note Name: C5
Note ON: Time 263760, Note Name: C5, Velocity: 58
Note OFF: Time 263850, Note Name: C5
Note ON: Time 263880, Note Name: A#4, Velocity: 58
Note OFF: Time 263970, Note Name: A#4
Note ON: Time 264000, Note Name: A4, Velocity: 64
Note OFF: Time 264240, Note Name: A4
Note ON: Time 264480, Note Name: A4, Velocity: 53
Note OFF: Time 264960, Note Name: A4
Note ON: Time 264960, Note Name: F5, Velocity: 65
Note OFF: Time 265050, Note Name: F5
Note ON: Time 265200, Note Name: F5, Velocity: 62
Note OFF: Time 265290, Note Name: F5
Note ON: Time 265320, Note Name: D#5, Velocity: 62
Note OFF: Time 265410, Note Name: D#5
Note ON: Time 265440, Note Name: D5, Velocity: 66
Note OFF: Time 265560, Note Name: D5
Note ON: Time 265680, Note Name: D5, Velocity: 63
Note OFF: Time 265770, Note Name: D5
Note ON: Time 265800, Note Name: C5, Velocity: 63
Note OFF: Time 265890, Note Name: C5
Note ON: Time 265920, Note Name: B4, Velocity: 67
Note OFF: Time 266160, Note Name: B4
Note ON: Time 266400, Note Name: B4, Velocity: 53
Note OFF: Time 266880, Note Name: B4
Note ON: Time 266880, Note Name: G5, Velocity: 71
Note OFF: Time 266970, Note Name: G5
Note ON: Time 267120, Note Name: G5, Velocity: 67
Note OFF: Time 267210, Note Name: G5
Note ON: Time 267240, Note Name: F5, Velocity: 67
Note OFF: Time 267330, Note Name: F5
Note ON: Time 267360, Note Name: D#5, Velocity: 68
Note OFF: Time 267480, Note Name: D#5
Note ON: Time 267600, Note Name: D#5, Velocity: 68
Note OFF: Time 267690, Note Name: D#5
Note ON: Time 267720, Note Name: D5, Velocity: 69
Note OFF: Time 267810, Note Name: D5
Note ON: Time 267840, Note Name: C5, Velocity: 71
Note OFF: Time 267930, Note Name: C5
Note ON: Time 268080, Note Name: C5, Velocity: 69
Note OFF: Time 268170, Note Name: C5
Note ON: Time 268200, Note Name: A#4, Velocity: 70
Note OFF: Time 268290, Note Name: A#4
Note ON: Time 268320, Note Name: G#4, Velocity: 74
Note OFF: Time 268440, Note Name: G#4
Note ON: Time 268560, Note Name: G#4, Velocity: 71
Note OFF: Time 268650, Note Name: G#4
Note ON: Time 268680, Note Name: G4, Velocity: 71
Note OFF: Time 268770, Note Name: G4
Note ON: Time 268800, Note Name: F4, Velocity: 76
Note OFF: Time 268920, Note Name: F4
Note ON: Time 269040, Note Name: F4, Velocity: 72
Note OFF: Time 269130, Note Name: F4
Note ON: Time 269160, Note Name: G4, Velocity: 73
Note OFF: Time 269250, Note Name: G4
Note ON: Time 269280, Note Name: G#4, Velocity: 76
Note OFF: Time 269520, Note Name: G#4
Note ON: Time 269520, Note Name: A#4, Velocity: 73
Note OFF: Time 269760, Note Name: A#4
Note ON: Time 269760, Note Name: D#4, Velocity: 62
Note ON: Time 269760, Note Name: A#4, Velocity: 62
Note ON: Time 269760, Note Name: G4, Velocity: 74
Note OFF: Time 270000, Note Name: A#4
Note OFF: Time 270000, Note Name: D#4
Note OFF: Time 270118, Note Name: G4
Note ON: Time 270120, Note Name: G4, Velocity: 64
Note OFF: Time 270238, Note Name: G4
Note ON: Time 270240, Note Name: G4, Velocity: 76
Note OFF: Time 270480, Note Name: G4
Note ON: Time 270480, Note Name: G#4, Velocity: 74
Note OFF: Time 270570, Note Name: G#4
Note ON: Time 270600, Note Name: A#4, Velocity: 70
Note ON: Time 270600, Note Name: G4, Velocity: 70
Note OFF: Time 270690, Note Name: G4
Note OFF: Time 270690, Note Name: A#4
Note ON: Time 270720, Note Name: D#5, Velocity: 74
Note ON: Time 270720, Note Name: G4, Velocity: 62
Note OFF: Time 270960, Note Name: G4
Note ON: Time 270960, Note Name: D#4, Velocity: 53
Note OFF: Time 271078, Note Name: D#5
Note ON: Time 271080, Note Name: D#5, Velocity: 64
Note OFF: Time 271200, Note Name: D#5
Note OFF: Time 271200, Note Name: D#4
Note ON: Time 271200, Note Name: D#4, Velocity: 64
Note ON: Time 271200, Note Name: D#5, Velocity: 76
Note OFF: Time 271440, Note Name: D#5
Note ON: Time 271440, Note Name: F5, Velocity: 74
Note OFF: Time 271530, Note Name: F5
Note ON: Time 271560, Note Name: D#5, Velocity: 70
Note OFF: Time 271650, Note Name: D#5
Note OFF: Time 271680, Note Name: D#4
Note ON: Time 271680, Note Name: D#4, Velocity: 62
Note ON: Time 271680, Note Name: D#5, Velocity: 74
Note OFF: Time 271770, Note Name: D#5
Note OFF: Time 271770, Note Name: D#4
Note ON: Time 271920, Note Name: C5, Velocity: 68
Note ON: Time 272040, Note Name: A#4, Velocity: 57
Note OFF: Time 272130, Note Name: A#4
Note OFF: Time 272130, Note Name: C5
Note ON: Time 272160, Note Name: G#4, Velocity: 62
Note ON: Time 272160, Note Name: C5, Velocity: 74
Note OFF: Time 272250, Note Name: G#4
Note ON: Time 272400, Note Name: G#4, Velocity: 73
Note OFF: Time 272490, Note Name: G#4
Note ON: Time 272520, Note Name: G4, Velocity: 64
Note OFF: Time 272610, Note Name: G4
Note OFF: Time 272640, Note Name: C5
Note ON: Time 272640, Note Name: F4, Velocity: 62
Note ON: Time 272640, Note Name: G#5, Velocity: 81
Note OFF: Time 272730, Note Name: G#5
Note OFF: Time 272880, Note Name: F4
Note ON: Time 272880, Note Name: G#5, Velocity: 71
Note OFF: Time 272970, Note Name: G#5
Note ON: Time 273000, Note Name: G5, Velocity: 67
Note OFF: Time 273090, Note Name: G5
Note ON: Time 273120, Note Name: F5, Velocity: 78
Note ON: Time 273120, Note Name: F4, Velocity: 64
Note OFF: Time 273240, Note Name: F5
Note ON: Time 273360, Note Name: F5, Velocity: 74
Note OFF: Time 273450, Note Name: F5
Note ON: Time 273480, Note Name: D#5, Velocity: 68
Note OFF: Time 273570, Note Name: D#5
Note OFF: Time 273600, Note Name: F4
Note ON: Time 273600, Note Name: D5, Velocity: 74
Note OFF: Time 273690, Note Name: D5
Note ON: Time 273840, Note Name: D5, Velocity: 68
Note OFF: Time 273930, Note Name: D5
Note ON: Time 273960, Note Name: C5, Velocity: 57
Note OFF: Time 274050, Note Name: C5
Note ON: Time 274080, Note Name: A#4, Velocity: 62
Note ON: Time 274080, Note Name: D5, Velocity: 74
Note OFF: Time 274170, Note Name: A#4
Note ON: Time 274320, Note Name: A#4, Velocity: 73
Note OFF: Time 274410, Note Name: A#4
Note ON: Time 274440, Note Name: G#4, Velocity: 64
Note OFF: Time 274530, Note Name: G#4
Note OFF: Time 274560, Note Name: D5
Note ON: Time 274560, Note Name: A#5, Velocity: 79
Note ON: Time 274560, Note Name: G4, Velocity: 62
Note OFF: Time 274650, Note Name: A#5
Note OFF: Time 274800, Note Name: G4
Note ON: Time 274800, Note Name: A#5, Velocity: 71
Note OFF: Time 274890, Note Name: A#5
Note ON: Time 274920, Note Name: G#5, Velocity: 67
Note OFF: Time 275010, Note Name: G#5
Note ON: Time 275040, Note Name: G5, Velocity: 78
Note ON: Time 275040, Note Name: G4, Velocity: 64
Note OFF: Time 275160, Note Name: G5
Note ON: Time 275280, Note Name: G5, Velocity: 74
Note OFF: Time 275370, Note Name: G5
Note ON: Time 275400, Note Name: F5, Velocity: 68
Note OFF: Time 275490, Note Name: F5
Note ON: Time 275520, Note Name: E5, Velocity: 74
Note OFF: Time 275760, Note Name: E5
Note OFF: Time 275760, Note Name: G4
Note ON: Time 275760, Note Name: E4, Velocity: 56
Note OFF: Time 276000, Note Name: E4
Note ON: Time 276000, Note Name: F4, Velocity: 59
Note OFF: Time 276240, Note Name: F4
Note ON: Time 276240, Note Name: G4, Velocity: 62
Note ON: Time 276240, Note Name: C4, Velocity: 51
Note OFF: Time 276330, Note Name: C4
Note ON: Time 276360, Note Name: A#3, Velocity: 49
Note OFF: Time 276450, Note Name: A#3
Note OFF: Time 276480, Note Name: G4
Note ON: Time 276480, Note Name: G#3, Velocity: 58
Note ON: Time 276480, Note Name: G#4, Velocity: 58
Note OFF: Time 276600, Note Name: G#3
Note ON: Time 276720, Note Name: F4, Velocity: 51
Note OFF: Time 276840, Note Name: F4
Note ON: Time 276840, Note Name: D#4, Velocity: 44
Note OFF: Time 276960, Note Name: D#4
Note ON: Time 276960, Note Name: D4, Velocity: 51
Note OFF: Time 277080, Note Name: D4
Note OFF: Time 277200, Note Name: G#4
Note ON: Time 277200, Note Name: D4, Velocity: 52
Note ON: Time 277200, Note Name: A4, Velocity: 52
Note OFF: Time 277320, Note Name: D4
Note ON: Time 277320, Note Name: C4, Velocity: 45
Note OFF: Time 277440, Note Name: C4
Note OFF: Time 277440, Note Name: A4
Note ON: Time 277440, Note Name: A#4, Velocity: 63
Note ON: Time 277440, Note Name: A#3, Velocity: 63
Note OFF: Time 277530, Note Name: A#4
Note OFF: Time 277680, Note Name: A#3
Note ON: Time 277680, Note Name: G5, Velocity: 62
Note OFF: Time 277770, Note Name: G5
Note ON: Time 277800, Note Name: F5, Velocity: 57
Note OFF: Time 277890, Note Name: F5
Note ON: Time 277920, Note Name: D#5, Velocity: 67
Note OFF: Time 278040, Note Name: D#5
Note ON: Time 278160, Note Name: D#5, Velocity: 63
Note OFF: Time 278250, Note Name: D#5
Note ON: Time 278280, Note Name: D5, Velocity: 57
Note OFF: Time 278370, Note Name: D5
Note ON: Time 278400, Note Name: C5, Velocity: 68
Note ON: Time 278640, Note Name: C4, Velocity: 47
Note OFF: Time 278880, Note Name: C4
Note ON: Time 278880, Note Name: F4, Velocity: 60
Note OFF: Time 279120, Note Name: C5
Note ON: Time 279120, Note Name: C#5, Velocity: 61
Note OFF: Time 279360, Note Name: C#5
Note OFF: Time 279360, Note Name: F4
Note ON: Time 279360, Note Name: F4, Velocity: 72
Note ON: Time 279360, Note Name: D5, Velocity: 72
Note OFF: Time 279450, Note Name: D5
Note OFF: Time 279450, Note Name: F4
Note ON: Time 279600, Note Name: G4, Velocity: 66
Note ON: Time 279600, Note Name: D#5, Velocity: 66
Note OFF: Time 279690, Note Name: D#5
Note OFF: Time 279690, Note Name: G4
Note ON: Time 279720, Note Name: D5, Velocity: 59
Note ON: Time 279720, Note Name: F4, Velocity: 59
Note OFF: Time 279810, Note Name: F4
Note OFF: Time 279810, Note Name: D5
Note ON: Time 279840, Note Name: C5, Velocity: 76
Note ON: Time 279840, Note Name: D#4, Velocity: 76
Note OFF: Time 279960, Note Name: D#4
Note OFF: Time 279960, Note Name: C5
Note ON: Time 280080, Note Name: B4, Velocity: 73
Note ON: Time 280080, Note Name: D4, Velocity: 76
Note OFF: Time 280170, Note Name: B4
Note OFF: Time 280200, Note Name: D4
Note ON: Time 280200, Note Name: G4, Velocity: 66
Note OFF: Time 280290, Note Name: G4
Note ON: Time 280320, Note Name: C5, Velocity: 67
Note ON: Time 280320, Note Name: D#5, Velocity: 79
Note OFF: Time 280677, Note Name: D#5
Note OFF: Time 280677, Note Name: C5
Note ON: Time 280680, Note Name: D#5, Velocity: 72
Note ON: Time 280680, Note Name: C5, Velocity: 61
Note OFF: Time 280799, Note Name: C5
Note OFF: Time 280799, Note Name: D#5
Note ON: Time 280800, Note Name: C5, Velocity: 64
Note ON: Time 280800, Note Name: D#5, Velocity: 76
Note OFF: Time 281040, Note Name: D#5
Note OFF: Time 281040, Note Name: C5
Note ON: Time 281040, Note Name: D5, Velocity: 67
Note ON: Time 281040, Note Name: F5, Velocity: 79
Note OFF: Time 281130, Note Name: F5
Note OFF: Time 281130, Note Name: D5
Note ON: Time 281160, Note Name: D#5, Velocity: 68
Note ON: Time 281160, Note Name: C5, Velocity: 57
Note OFF: Time 281250, Note Name: C5
Note OFF: Time 281250, Note Name: D#5
Note ON: Time 281280, Note Name: C5, Velocity: 67
Note ON: Time 281280, Note Name: D#5, Velocity: 79
Note OFF: Time 281370, Note Name: D#5
Note OFF: Time 281370, Note Name: C5
Note ON: Time 281520, Note Name: C5, Velocity: 69
Note ON: Time 281520, Note Name: G#4, Velocity: 58
Note OFF: Time 281610, Note Name: G#4
Note OFF: Time 281610, Note Name: C5
Note ON: Time 281760, Note Name: G#4, Velocity: 58
Note ON: Time 281760, Note Name: C5, Velocity: 69
Note OFF: Time 282240, Note Name: C5
Note OFF: Time 282240, Note Name: G#4
Note ON: Time 282240, Note Name: G#5, Velocity: 79
Note ON: Time 282240, Note Name: F5, Velocity: 67
Note OFF: Time 282330, Note Name: F5
Note OFF: Time 282330, Note Name: G#5
Note ON: Time 282480, Note Name: G#5, Velocity: 79
Note ON: Time 282480, Note Name: F5, Velocity: 67
Note OFF: Time 282570, Note Name: F5
Note OFF: Time 282570, Note Name: G#5
Note ON: Time 282600, Note Name: G5, Velocity: 75
Note ON: Time 282600, Note Name: D#5, Velocity: 63
Note OFF: Time 282690, Note Name: D#5
Note OFF: Time 282690, Note Name: G5
Note ON: Time 282720, Note Name: F5, Velocity: 79
Note ON: Time 282720, Note Name: C#5, Velocity: 67
Note OFF: Time 282840, Note Name: C#5
Note OFF: Time 282840, Note Name: F5
Note ON: Time 282960, Note Name: C#5, Velocity: 67
Note ON: Time 282960, Note Name: F5, Velocity: 79
Note OFF: Time 283050, Note Name: F5
Note OFF: Time 283050, Note Name: C#5
Note ON: Time 283080, Note Name: D#5, Velocity: 75
Note ON: Time 283080, Note Name: C5, Velocity: 63
Note OFF: Time 283170, Note Name: C5
Note OFF: Time 283170, Note Name: D#5
Note ON: Time 283200, Note Name: C#5, Velocity: 79
Note ON: Time 283200, Note Name: A#4, Velocity: 67
Note OFF: Time 283440, Note Name: A#4
Note OFF: Time 283440, Note Name: C#5
Note ON: Time 283680, Note Name: A#4, Velocity: 58
Note ON: Time 283680, Note Name: C#5, Velocity: 69
Note OFF: Time 284160, Note Name: C#5
Note OFF: Time 284160, Note Name: A#4
Note ON: Time 284160, Note Name: G5, Velocity: 67
Note ON: Time 284160, Note Name: A#5, Velocity: 79
Note OFF: Time 284250, Note Name: A#5
Note OFF: Time 284250, Note Name: G5
Note ON: Time 284400, Note Name: G5, Velocity: 67
Note ON: Time 284400, Note Name: A#5, Velocity: 79
Note OFF: Time 284490, Note Name: A#5
Note OFF: Time 284490, Note Name: G5
Note ON: Time 284520, Note Name: F5, Velocity: 63
Note ON: Time 284520, Note Name: G#5, Velocity: 75
Note OFF: Time 284610, Note Name: G#5
Note OFF: Time 284610, Note Name: F5
Note ON: Time 284640, Note Name: E5, Velocity: 67
Note ON: Time 284640, Note Name: G5, Velocity: 79
Note OFF: Time 284760, Note Name: G5
Note OFF: Time 284760, Note Name: E5
Note ON: Time 284880, Note Name: G5, Velocity: 79
Note ON: Time 284880, Note Name: E5, Velocity: 67
Note OFF: Time 284970, Note Name: E5
Note OFF: Time 284970, Note Name: G5
Note ON: Time 285000, Note Name: D5, Velocity: 63
Note ON: Time 285000, Note Name: F5, Velocity: 75
Note OFF: Time 285090, Note Name: F5
Note OFF: Time 285090, Note Name: D5
Note ON: Time 285120, Note Name: E5, Velocity: 79
Note ON: Time 285120, Note Name: C5, Velocity: 67
Note OFF: Time 285360, Note Name: C5
Note OFF: Time 285360, Note Name: E5
Note ON: Time 285600, Note Name: C5, Velocity: 58
Note ON: Time 285600, Note Name: F5, Velocity: 69
Note OFF: Time 286080, Note Name: F5
Note OFF: Time 286080, Note Name: C5
Note ON: Time 286080, Note Name: C6, Velocity: 79
Note ON: Time 286080, Note Name: G#5, Velocity: 67
Note OFF: Time 286170, Note Name: G#5
Note OFF: Time 286170, Note Name: C6
Note ON: Time 286320, Note Name: G#5, Velocity: 67
Note ON: Time 286320, Note Name: C6, Velocity: 79
Note OFF: Time 286410, Note Name: C6
Note OFF: Time 286410, Note Name: G#5
Note ON: Time 286440, Note Name: G5, Velocity: 63
Note ON: Time 286440, Note Name: A#5, Velocity: 75
Note OFF: Time 286530, Note Name: A#5
Note OFF: Time 286530, Note Name: G5
Note ON: Time 286560, Note Name: G#5, Velocity: 79
Note ON: Time 286560, Note Name: F5, Velocity: 67
Note OFF: Time 286680, Note Name: F5
Note OFF: Time 286680, Note Name: G#5
Note ON: Time 286800, Note Name: G5, Velocity: 68
Note ON: Time 286800, Note Name: A#5, Velocity: 80
Note OFF: Time 286890, Note Name: A#5
Note OFF: Time 286890, Note Name: G5
Note ON: Time 286920, Note Name: F5, Velocity: 65
Note ON: Time 286920, Note Name: G#5, Velocity: 77
Note OFF: Time 287010, Note Name: G#5
Note OFF: Time 287010, Note Name: F5
Note ON: Time 287040, Note Name: G5, Velocity: 79
Note ON: Time 287040, Note Name: D#5, Velocity: 67
Note OFF: Time 287130, Note Name: D#5
Note OFF: Time 287130, Note Name: G5
Note ON: Time 287280, Note Name: G#5, Velocity: 79
Note ON: Time 287280, Note Name: F6, Velocity: 79
Note OFF: Time 287370, Note Name: F6
Note OFF: Time 287370, Note Name: G#5
Note ON: Time 287400, Note Name: D#6, Velocity: 75
Note ON: Time 287400, Note Name: G5, Velocity: 63
Note OFF: Time 287490, Note Name: G5
Note OFF: Time 287490, Note Name: D#6
Note ON: Time 287520, Note Name: F5, Velocity: 67
Note ON: Time 287520, Note Name: D6, Velocity: 79
Note OFF: Time 287640, Note Name: D6
Note OFF: Time 287640, Note Name: F5
Note ON: Time 287760, Note Name: D#6, Velocity: 80
Note ON: Time 287760, Note Name: G5, Velocity: 68
Note OFF: Time 287850, Note Name: G5
Note OFF: Time 287850, Note Name: D#6
Note ON: Time 287880, Note Name: F5, Velocity: 65
Note ON: Time 287880, Note Name: D6, Velocity: 77
Note OFF: Time 287970, Note Name: D6
Note OFF: Time 287970, Note Name: F5
Note ON: Time 288000, Note Name: D#5, Velocity: 67
Note ON: Time 288000, Note Name: C6, Velocity: 79
Note OFF: Time 288090, Note Name: C6
Note OFF: Time 288090, Note Name: D#5
Note ON: Time 288240, Note Name: G5, Velocity: 67
Note ON: Time 288240, Note Name: A#5, Velocity: 79
Note OFF: Time 288330, Note Name: A#5
Note OFF: Time 288330, Note Name: G5
Note ON: Time 288360, Note Name: G#5, Velocity: 63
Note ON: Time 288360, Note Name: C6, Velocity: 75
Note OFF: Time 288450, Note Name: C6
Note OFF: Time 288450, Note Name: G#5
Note ON: Time 288480, Note Name: C#6, Velocity: 80
Note ON: Time 288480, Note Name: A#5, Velocity: 68
Note OFF: Time 288600, Note Name: A#5
Note OFF: Time 288600, Note Name: C#6
Note ON: Time 288720, Note Name: F5, Velocity: 70
Note ON: Time 288720, Note Name: G#5, Velocity: 82
Note OFF: Time 288810, Note Name: G#5
Note OFF: Time 288810, Note Name: F5
Note ON: Time 288840, Note Name: G5, Velocity: 67
Note ON: Time 288840, Note Name: A#5, Velocity: 80
Note OFF: Time 288930, Note Name: A#5
Note OFF: Time 288930, Note Name: G5
Note ON: Time 288960, Note Name: G#5, Velocity: 70
Note ON: Time 288960, Note Name: C6, Velocity: 82
Note OFF: Time 289050, Note Name: C6
Note OFF: Time 289050, Note Name: G#5
Note ON: Time 289200, Note Name: C5, Velocity: 71
Note ON: Time 289200, Note Name: D#5, Velocity: 83
Note OFF: Time 289290, Note Name: D#5
Note ON: Time 289320, Note Name: F5, Velocity: 80
Note OFF: Time 289410, Note Name: F5
Note OFF: Time 289440, Note Name: C5
Note ON: Time 289440, Note Name: G5, Velocity: 84
Note ON: Time 289440, Note Name: B4, Velocity: 71
Note OFF: Time 289680, Note Name: B4
Note OFF: Time 289680, Note Name: G5
Note ON: Time 289800, Note Name: B4, Velocity: 79
Note ON: Time 289800, Note Name: D5, Velocity: 94
Note OFF: Time 289920, Note Name: D5
Note OFF: Time 289920, Note Name: B4
Note ON: Time 289920, Note Name: G5, Velocity: 86
Note ON: Time 289920, Note Name: B5, Velocity: 102
Note OFF: Time 290760, Note Name: B5
Note OFF: Time 290760, Note Name: G5
Note ON: Time 290760, Note Name: B4, Velocity: 73
Note ON: Time 290760, Note Name: D5, Velocity: 87
Note OFF: Time 290880, Note Name: D5
Note OFF: Time 290880, Note Name: B4
Note ON: Time 290880, Note Name: G5, Velocity: 86
Note ON: Time 290880, Note Name: B5, Velocity: 102
Note OFF: Time 291600, Note Name: B5
Note OFF: Time 291600, Note Name: G5
Note ON: Time 291600, Note Name: B5, Velocity: 53
Note ON: Time 291600, Note Name: G5, Velocity: 45
Note ON: Time 291600, Note Name: D#6, Velocity: 53
Note OFF: Time 291720, Note Name: D#6
Note ON: Time 291720, Note Name: D6, Velocity: 45
Note OFF: Time 291840, Note Name: D6
Note OFF: Time 291840, Note Name: G5
Note OFF: Time 291840, Note Name: B5
Note ON: Time 291840, Note Name: D6, Velocity: 45
Note ON: Time 291840, Note Name: B5, Velocity: 45
Note ON: Time 291840, Note Name: G6, Velocity: 53
Note OFF: Time 291960, Note Name: G6
Note ON: Time 291960, Note Name: F6, Velocity: 45
Note OFF: Time 292080, Note Name: F6
Note OFF: Time 292080, Note Name: B5
Note OFF: Time 292080, Note Name: D6
Note ON: Time 292320, Note Name: B4, Velocity: 45
Note ON: Time 292320, Note Name: G5, Velocity: 53
Note ON: Time 292320, Note Name: D5, Velocity: 45
Note OFF: Time 292440, Note Name: G5
Note ON: Time 292440, Note Name: F5, Velocity: 45
Note OFF: Time 292560, Note Name: F5
Note OFF: Time 292560, Note Name: D5
Note OFF: Time 292560, Note Name: B4
Note ON: Time 292800, Note Name: G4, Velocity: 53
Note ON: Time 292800, Note Name: B3, Velocity: 45
Note ON: Time 292800, Note Name: D4, Velocity: 45
Note OFF: Time 292920, Note Name: G4
Note ON: Time 292920, Note Name: F4, Velocity: 45
Note OFF: Time 293040, Note Name: F4
Note OFF: Time 293040, Note Name: D4
Note OFF: Time 293040, Note Name: B3
Note ON: Time 293280, Note Name: D5, Velocity: 45
Note ON: Time 293280, Note Name: B4, Velocity: 45
Note ON: Time 293280, Note Name: G5, Velocity: 53
Note OFF: Time 293400, Note Name: G5
Note ON: Time 293400, Note Name: F5, Velocity: 45
Note OFF: Time 293520, Note Name: F5
Note OFF: Time 293520, Note Name: B4
Note OFF: Time 293520, Note Name: D5
Note ON: Time 293760, Note Name: G5, Velocity: 86
Note ON: Time 293760, Note Name: D#6, Velocity: 102
Note ON: Time 293760, Note Name: C6, Velocity: 86
Note OFF: Time 294600, Note Name: C6
Note OFF: Time 294600, Note Name: D#6
Note OFF: Time 294600, Note Name: G5
Note ON: Time 294600, Note Name: G5, Velocity: 73
Note ON: Time 294600, Note Name: D#5, Velocity: 87
Note ON: Time 294720, Note Name: C6, Velocity: 86
Note ON: Time 294720, Note Name: D#6, Velocity: 102
Note OFF: Time 295440, Note Name: D#6
Note OFF: Time 295440, Note Name: G5
Note OFF: Time 295440, Note Name: D#5
Note OFF: Time 295440, Note Name: C6
Note ON: Time 295440, Note Name: C6, Velocity: 53
Note ON: Time 295440, Note Name: G5, Velocity: 45
Note ON: Time 295440, Note Name: F6, Velocity: 53
Note OFF: Time 295560, Note Name: F6
Note ON: Time 295560, Note Name: D#6, Velocity: 45
Note OFF: Time 295680, Note Name: D#6
Note OFF: Time 295680, Note Name: G5
Note OFF: Time 295680, Note Name: C6
Note ON: Time 295680, Note Name: D#6, Velocity: 45
Note ON: Time 295680, Note Name: C6, Velocity: 45
Note ON: Time 295680, Note Name: G#6, Velocity: 53
Note OFF: Time 295800, Note Name: G#6
Note ON: Time 295800, Note Name: G6, Velocity: 45
Note OFF: Time 295920, Note Name: G6
Note OFF: Time 295920, Note Name: C6
Note OFF: Time 295920, Note Name: D#6
Note ON: Time 296160, Note Name: C5, Velocity: 45
Note ON: Time 296160, Note Name: D#5, Velocity: 45
Note ON: Time 296160, Note Name: G#5, Velocity: 53
Note ON: Time 296273, Note Name: G5, Velocity: 45
Note OFF: Time 296280, Note Name: G#5
Note OFF: Time 296393, Note Name: G5
Note OFF: Time 296400, Note Name: D#5
Note OFF: Time 296400, Note Name: C5
Note ON: Time 296640, Note Name: D#4, Velocity: 45
Note ON: Time 296640, Note Name: C4, Velocity: 45
Note ON: Time 296640, Note Name: G#4, Velocity: 53
Note OFF: Time 296760, Note Name: G#4
Note ON: Time 296760, Note Name: G4, Velocity: 45
Note OFF: Time 296880, Note Name: G4
Note OFF: Time 296880, Note Name: C4
Note OFF: Time 296880, Note Name: D#4
Note ON: Time 297120, Note Name: D#5, Velocity: 45
Note ON: Time 297120, Note Name: G#5, Velocity: 53
Note ON: Time 297120, Note Name: C5, Velocity: 45
Note OFF: Time 297240, Note Name: G#5
Note ON: Time 297240, Note Name: G5, Velocity: 45
Note OFF: Time 297360, Note Name: G5
Note OFF: Time 297360, Note Name: C5
Note OFF: Time 297360, Note Name: D#5
Note ON: Time 297600, Note Name: F5, Velocity: 86
Note ON: Time 297600, Note Name: D6, Velocity: 86
Note ON: Time 297600, Note Name: F6, Velocity: 102
Note OFF: Time 298440, Note Name: F6
Note OFF: Time 298440, Note Name: D6
Note OFF: Time 298440, Note Name: F5
Note ON: Time 298440, Note Name: D5, Velocity: 87
Note ON: Time 298440, Note Name: F5, Velocity: 73
Note OFF: Time 298560, Note Name: F5
Note OFF: Time 298560, Note Name: D5
Note ON: Time 298560, Note Name: F6, Velocity: 102
Note ON: Time 298560, Note Name: D6, Velocity: 86
Note ON: Time 298920, Note Name: F5, Velocity: 73
Note OFF: Time 299040, Note Name: F5
Note ON: Time 299040, Note Name: A#5, Velocity: 67
Note OFF: Time 299280, Note Name: A#5
Note OFF: Time 299280, Note Name: D6
Note OFF: Time 299280, Note Name: F6
Note ON: Time 299280, Note Name: D6, Velocity: 53
Note ON: Time 299280, Note Name: A#5, Velocity: 45
Note ON: Time 299280, Note Name: G6, Velocity: 53
Note OFF: Time 299400, Note Name: G6
Note ON: Time 299400, Note Name: F6, Velocity: 45
Note OFF: Time 299520, Note Name: F6
Note OFF: Time 299520, Note Name: A#5
Note OFF: Time 299520, Note Name: D6
Note ON: Time 299520, Note Name: D6, Velocity: 49
Note ON: Time 299520, Note Name: F6, Velocity: 49
Note ON: Time 299520, Note Name: A#6, Velocity: 58
Note OFF: Time 299640, Note Name: A#6
Note ON: Time 299640, Note Name: G#6, Velocity: 50
Note OFF: Time 299760, Note Name: G#6
Note OFF: Time 299760, Note Name: F6
Note OFF: Time 299760, Note Name: D6
Note ON: Time 300000, Note Name: A#5, Velocity: 63
Note ON: Time 300000, Note Name: F5, Velocity: 54
Note ON: Time 300000, Note Name: D5, Velocity: 54
Note ON: Time 300113, Note Name: G#5, Velocity: 54
Note OFF: Time 300120, Note Name: A#5
Note OFF: Time 300233, Note Name: G#5
Note OFF: Time 300240, Note Name: D5
Note OFF: Time 300240, Note Name: F5
Note ON: Time 300480, Note Name: F4, Velocity: 58
Note ON: Time 300480, Note Name: D4, Velocity: 58
Note ON: Time 300480, Note Name: A#4, Velocity: 68
Note OFF: Time 300600, Note Name: A#4
Note ON: Time 300600, Note Name: G#4, Velocity: 59
Note OFF: Time 300720, Note Name: G#4
Note OFF: Time 300720, Note Name: D4
Note OFF: Time 300720, Note Name: F4
Note ON: Time 300960, Note Name: F5, Velocity: 63
Note ON: Time 300960, Note Name: D5, Velocity: 63
Note ON: Time 300960, Note Name: A#5, Velocity: 74
Note OFF: Time 301080, Note Name: A#5
Note ON: Time 301080, Note Name: G#5, Velocity: 63
Note OFF: Time 301200, Note Name: G#5
Note OFF: Time 301200, Note Name: D5
Note OFF: Time 301200, Note Name: F5
Note ON: Time 301440, Note Name: D#6, Velocity: 86
Note ON: Time 301440, Note Name: G6, Velocity: 102
Note OFF: Time 302280, Note Name: G6
Note OFF: Time 302280, Note Name: D#6
Note ON: Time 302280, Note Name: G5, Velocity: 73
Note ON: Time 302280, Note Name: A#5, Velocity: 73
Note OFF: Time 302400, Note Name: A#5
Note OFF: Time 302400, Note Name: G5
Note ON: Time 302400, Note Name: G6, Velocity: 102
Note ON: Time 302400, Note Name: D#6, Velocity: 86
Note ON: Time 302760, Note Name: G5, Velocity: 87
Note OFF: Time 302880, Note Name: G5
Note ON: Time 302880, Note Name: C6, Velocity: 80
Note OFF: Time 303120, Note Name: C6
Note OFF: Time 303120, Note Name: D#6
Note OFF: Time 303120, Note Name: G6
Note ON: Time 303240, Note Name: F#5, Velocity: 73
Note ON: Time 303240, Note Name: A5, Velocity: 87
Note OFF: Time 303360, Note Name: A5
Note OFF: Time 303360, Note Name: F#5
Note ON: Time 303360, Note Name: A6, Velocity: 106
Note ON: Time 303360, Note Name: F#6, Velocity: 90
Note OFF: Time 304200, Note Name: F#6
Note OFF: Time 304200, Note Name: A6
Note ON: Time 304200, Note Name: A5, Velocity: 76
Note ON: Time 304200, Note Name: F#5, Velocity: 76
Note OFF: Time 304320, Note Name: F#5
Note OFF: Time 304320, Note Name: A5
Note ON: Time 304320, Note Name: A6, Velocity: 106
Note ON: Time 304320, Note Name: F#6, Velocity: 90
Note ON: Time 304680, Note Name: A5, Velocity: 91
Note OFF: Time 304800, Note Name: A5
Note ON: Time 304800, Note Name: D6, Velocity: 84
Note ON: Time 304800, Note Name: F#6, Velocity: 90
Note OFF: Time 305040, Note Name: F#6
Note OFF: Time 305040, Note Name: A6
Note OFF: Time 305040, Note Name: F#6
Note OFF: Time 305040, Note Name: D6
Note ON: Time 305160, Note Name: G#5, Velocity: 76
Note ON: Time 305160, Note Name: B5, Velocity: 91
Note OFF: Time 305280, Note Name: B5
Note OFF: Time 305280, Note Name: G#5
Note ON: Time 305280, Note Name: B6, Velocity: 97
Note ON: Time 305280, Note Name: D6, Velocity: 82
Note ON: Time 305280, Note Name: F6, Velocity: 82
Note ON: Time 305280, Note Name: G#6, Velocity: 82
Note ON: Time 305280, Note Name: B5, Velocity: 82
Note OFF: Time 306120, Note Name: B5
Note OFF: Time 306120, Note Name: F6
Note OFF: Time 306120, Note Name: B6
Note OFF: Time 306120, Note Name: D6
Note OFF: Time 306120, Note Name: G#6
Note ON: Time 306120, Note Name: G#5, Velocity: 76
Note ON: Time 306120, Note Name: B5, Velocity: 76
Note OFF: Time 306240, Note Name: B5
Note OFF: Time 306240, Note Name: G#5
Note ON: Time 306240, Note Name: F6, Velocity: 82
Note ON: Time 306240, Note Name: B5, Velocity: 82
Note ON: Time 306240, Note Name: D6, Velocity: 82
Note ON: Time 306240, Note Name: G#6, Velocity: 82
Note ON: Time 306240, Note Name: B6, Velocity: 97
Note OFF: Time 307080, Note Name: B6
Note OFF: Time 307080, Note Name: D6
Note OFF: Time 307080, Note Name: F6
Note OFF: Time 307080, Note Name: B5
Note OFF: Time 307080, Note Name: G#6
Note ON: Time 307080, Note Name: A#5, Velocity: 76
Note ON: Time 307080, Note Name: E5, Velocity: 76
Note ON: Time 307080, Note Name: G5, Velocity: 76
Note ON: Time 307080, Note Name: C#6, Velocity: 76
Note OFF: Time 307200, Note Name: C#6
Note OFF: Time 307200, Note Name: A#5
Note OFF: Time 307200, Note Name: E5
Note OFF: Time 307200, Note Name: G5
Note ON: Time 307200, Note Name: A#6, Velocity: 82
Note ON: Time 307200, Note Name: G6, Velocity: 82
Note ON: Time 307200, Note Name: C#7, Velocity: 97
Note ON: Time 307200, Note Name: E6, Velocity: 82
Note OFF: Time 308040, Note Name: E6
Note OFF: Time 308040, Note Name: A#6
Note OFF: Time 308040, Note Name: G6
Note OFF: Time 308040, Note Name: C#7
Note ON: Time 308040, Note Name: A#5, Velocity: 76
Note ON: Time 308040, Note Name: C#6, Velocity: 76
Note ON: Time 308040, Note Name: G5, Velocity: 76
Note ON: Time 308040, Note Name: E5, Velocity: 76
Note OFF: Time 308160, Note Name: E5
Note OFF: Time 308160, Note Name: A#5
Note OFF: Time 308160, Note Name: C#6
Note OFF: Time 308160, Note Name: G5
Note ON: Time 308160, Note Name: G6, Velocity: 82
Note ON: Time 308160, Note Name: E6, Velocity: 82
Note ON: Time 308160, Note Name: A#6, Velocity: 82
Note ON: Time 308160, Note Name: C#7, Velocity: 97
Note OFF: Time 309000, Note Name: C#7
Note OFF: Time 309000, Note Name: G6
Note OFF: Time 309000, Note Name: E6
Note OFF: Time 309000, Note Name: A#6
Note ON: Time 309000, Note Name: D6, Velocity: 83
Note ON: Time 309000, Note Name: A5, Velocity: 83
Note ON: Time 309000, Note Name: F#5, Velocity: 83
Note OFF: Time 309120, Note Name: F#5
Note OFF: Time 309120, Note Name: A5
Note OFF: Time 309120, Note Name: D6
Note ON: Time 309120, Note Name: D6, Velocity: 90
Note ON: Time 309120, Note Name: F#6, Velocity: 90
Note ON: Time 309120, Note Name: A6, Velocity: 90
Note ON: Time 309120, Note Name: D7, Velocity: 106
Note OFF: Time 309480, Note Name: D7
Note OFF: Time 309480, Note Name: D6
Note OFF: Time 309480, Note Name: F#6
Note OFF: Time 309480, Note Name: A6
Note ON: Time 309480, Note Name: D6, Velocity: 80
Note OFF: Time 309600, Note Name: D6
Note ON: Time 309600, Note Name: D7, Velocity: 100
Note OFF: Time 309960, Note Name: D7
Note ON: Time 309960, Note Name: D5, Velocity: 74
Note OFF: Time 310080, Note Name: D5
Note ON: Time 310080, Note Name: D6, Velocity: 93
Note OFF: Time 310440, Note Name: D6
Note ON: Time 310440, Note Name: D5, Velocity: 68
Note OFF: Time 310560, Note Name: D5
Note ON: Time 310560, Note Name: D6, Velocity: 85
Note OFF: Time 310920, Note Name: D6
Note ON: Time 310920, Note Name: D5, Velocity: 62
Note OFF: Time 311040, Note Name: D5
Note ON: Time 311040, Note Name: D6, Velocity: 78
Note OFF: Time 311400, Note Name: D6
Note ON: Time 311400, Note Name: D5, Velocity: 56
Note OFF: Time 311520, Note Name: D5
Note ON: Time 311520, Note Name: D6, Velocity: 70
Note OFF: Time 311880, Note Name: D6
Note ON: Time 311880, Note Name: D5, Velocity: 51
Note OFF: Time 312000, Note Name: D5
Note ON: Time 312000, Note Name: D6, Velocity: 63
Note OFF: Time 312360, Note Name: D6
Note ON: Time 312360, Note Name: D5, Velocity: 45
Note OFF: Time 312480, Note Name: D5
Note ON: Time 312480, Note Name: D6, Velocity: 55
Note OFF: Time 312840, Note Name: D6
Note ON: Time 312840, Note Name: D#5, Velocity: 39
Note OFF: Time 312960, Note Name: D#5
Note ON: Time 312960, Note Name: D#6, Velocity: 58
Note ON: Time 313440, Note Name: D#5, Velocity: 49
Note OFF: Time 313920, Note Name: D#5
Note OFF: Time 313920, Note Name: D#6
Note ON: Time 313920, Note Name: E6, Velocity: 57
Note ON: Time 313920, Note Name: E5, Velocity: 48
Note OFF: Time 314400, Note Name: E6
Note ON: Time 314400, Note Name: G5, Velocity: 61
Note OFF: Time 314880, Note Name: G5
Note OFF: Time 314880, Note Name: E5
Note ON: Time 314880, Note Name: F#5, Velocity: 67
Note ON: Time 314880, Note Name: B5, Velocity: 56
Note OFF: Time 315360, Note Name: F#5
Note ON: Time 315360, Note Name: D#5, Velocity: 61
Note OFF: Time 315840, Note Name: D#5
Note OFF: Time 315840, Note Name: B5
Note ON: Time 315840, Note Name: E5, Velocity: 51
Note ON: Time 315840, Note Name: B4, Velocity: 51
Note ON: Time 315840, Note Name: G5, Velocity: 60
Note OFF: Time 316320, Note Name: G5
Note OFF: Time 316320, Note Name: B4
Note OFF: Time 316320, Note Name: E5
Note ON: Time 316320, Note Name: B4, Velocity: 53
Note ON: Time 316320, Note Name: E5, Velocity: 63
Note OFF: Time 316800, Note Name: E5
Note OFF: Time 316800, Note Name: B4
Note ON: Time 316800, Note Name: D5, Velocity: 66
Note OFF: Time 317280, Note Name: D5
Note ON: Time 317280, Note Name: D#5, Velocity: 59
Note OFF: Time 317760, Note Name: D#5
Note ON: Time 317760, Note Name: F#5, Velocity: 64
Note OFF: Time 318240, Note Name: F#5
Note ON: Time 318240, Note Name: E5, Velocity: 63
Note OFF: Time 318480, Note Name: E5
Note ON: Time 318480, Note Name: C#5, Velocity: 57
Note OFF: Time 318720, Note Name: C#5
Note ON: Time 318720, Note Name: D#5, Velocity: 66
Note OFF: Time 318960, Note Name: D#5
Note ON: Time 318960, Note Name: D4, Velocity: 48
Note OFF: Time 319200, Note Name: D4
Note ON: Time 319200, Note Name: D#4, Velocity: 56
Note OFF: Time 319680, Note Name: D#4
Note ON: Time 319680, Note Name: F#4, Velocity: 64
Note OFF: Time 320160, Note Name: F#4
Note ON: Time 320160, Note Name: E4, Velocity: 52
Note OFF: Time 320400, Note Name: E4
Note ON: Time 320400, Note Name: C#4, Velocity: 48
Note OFF: Time 320640, Note Name: C#4
Note ON: Time 320640, Note Name: B4, Velocity: 59
Note ON: Time 320640, Note Name: D#5, Velocity: 59
Note OFF: Time 320760, Note Name: D#5
Note OFF: Time 320760, Note Name: B4
Note ON: Time 320760, Note Name: E5, Velocity: 48
Note OFF: Time 320880, Note Name: E5
Note ON: Time 320880, Note Name: D#5, Velocity: 48
Note OFF: Time 321000, Note Name: D#5
Note ON: Time 321000, Note Name: D5, Velocity: 48
Note OFF: Time 321120, Note Name: D5
Note ON: Time 321120, Note Name: D#5, Velocity: 55
Note OFF: Time 321240, Note Name: D#5
Note ON: Time 321240, Note Name: E5, Velocity: 48
Note OFF: Time 321360, Note Name: E5
Note ON: Time 321360, Note Name: F#5, Velocity: 48
Note OFF: Time 321480, Note Name: F#5
Note ON: Time 321480, Note Name: F5, Velocity: 48
Note OFF: Time 321600, Note Name: F5
Note ON: Time 321600, Note Name: G#5, Velocity: 57
Note OFF: Time 321720, Note Name: G#5
Note ON: Time 321720, Note Name: F#5, Velocity: 54
Note OFF: Time 321840, Note Name: F#5
Note ON: Time 321840, Note Name: F5, Velocity: 54
Note OFF: Time 321960, Note Name: F5
Note ON: Time 321960, Note Name: F#5, Velocity: 54
Note OFF: Time 322080, Note Name: F#5
Note ON: Time 322080, Note Name: E5, Velocity: 56
Note OFF: Time 322200, Note Name: E5
Note ON: Time 322200, Note Name: D#5, Velocity: 53
Note OFF: Time 322320, Note Name: D#5
Note ON: Time 322320, Note Name: E5, Velocity: 51
Note OFF: Time 322440, Note Name: E5
Note ON: Time 322440, Note Name: C#5, Velocity: 45
Note OFF: Time 322560, Note Name: C#5
Note ON: Time 322560, Note Name: D#4, Velocity: 59
Note ON: Time 322560, Note Name: D#5, Velocity: 59
Note OFF: Time 322680, Note Name: D#4
Note ON: Time 322680, Note Name: E4, Velocity: 48
Note OFF: Time 322800, Note Name: E4
Note OFF: Time 322800, Note Name: D#5
Note ON: Time 322800, Note Name: D#4, Velocity: 48
Note OFF: Time 322920, Note Name: D#4
Note ON: Time 322920, Note Name: D4, Velocity: 48
Note OFF: Time 323040, Note Name: D4
Note ON: Time 323040, Note Name: D#4, Velocity: 55
Note OFF: Time 323160, Note Name: D#4
Note ON: Time 323160, Note Name: E4, Velocity: 48
Note OFF: Time 323280, Note Name: E4
Note ON: Time 323280, Note Name: F#4, Velocity: 48
Note OFF: Time 323400, Note Name: F#4
Note ON: Time 323400, Note Name: F4, Velocity: 48
Note OFF: Time 323520, Note Name: F4
Note ON: Time 323520, Note Name: G#4, Velocity: 57
Note OFF: Time 323640, Note Name: G#4
Note ON: Time 323640, Note Name: F#4, Velocity: 54
Note OFF: Time 323760, Note Name: F#4
Note ON: Time 323760, Note Name: F4, Velocity: 54
Note OFF: Time 323880, Note Name: F4
Note ON: Time 323880, Note Name: F#4, Velocity: 54
Note OFF: Time 324000, Note Name: F#4
Note ON: Time 324000, Note Name: E4, Velocity: 56
Note OFF: Time 324120, Note Name: E4
Note ON: Time 324120, Note Name: D#4, Velocity: 53
Note OFF: Time 324240, Note Name: D#4
Note ON: Time 324240, Note Name: E4, Velocity: 51
Note OFF: Time 324360, Note Name: E4
Note ON: Time 324360, Note Name: F#4, Velocity: 45
Note OFF: Time 324480, Note Name: F#4
Note ON: Time 324480, Note Name: C#4, Velocity: 51
Note ON: Time 324480, Note Name: F#3, Velocity: 51
Note ON: Time 324480, Note Name: E4, Velocity: 61
Note OFF: Time 324720, Note Name: E4
Note OFF: Time 324720, Note Name: F#3
Note OFF: Time 324720, Note Name: C#4
Note ON: Time 326280, Note Name: F#4, Velocity: 63
Note OFF: Time 326370, Note Name: F#4
Note ON: Time 326400, Note Name: C#5, Velocity: 61
Note OFF: Time 326758, Note Name: C#5
Note ON: Time 326760, Note Name: C#5, Velocity: 54
Note OFF: Time 326878, Note Name: C#5
Note ON: Time 326880, Note Name: C#5, Velocity: 61
Note OFF: Time 327060, Note Name: C#5
Note ON: Time 327120, Note Name: D#5, Velocity: 48
Note OFF: Time 327210, Note Name: D#5
Note ON: Time 327240, Note Name: C#4, Velocity: 63
Note ON: Time 327240, Note Name: C#5, Velocity: 51
Note OFF: Time 327330, Note Name: C#5
Note OFF: Time 327330, Note Name: C#4
Note ON: Time 327360, Note Name: C#5, Velocity: 51
Note ON: Time 327360, Note Name: E4, Velocity: 61
Note OFF: Time 327480, Note Name: C#5
Note ON: Time 327600, Note Name: A#4, Velocity: 51
Note OFF: Time 327718, Note Name: E4
Note OFF: Time 327720, Note Name: A#4
Note ON: Time 327720, Note Name: E4, Velocity: 54
Note OFF: Time 327838, Note Name: E4
Note ON: Time 327840, Note Name: E4, Velocity: 61
Note OFF: Time 328020, Note Name: E4
Note ON: Time 328080, Note Name: F#4, Velocity: 48
Note OFF: Time 328170, Note Name: F#4
Note ON: Time 328200, Note Name: E4, Velocity: 51
Note OFF: Time 328290, Note Name: E4
Note ON: Time 328320, Note Name: E4, Velocity: 51
Note OFF: Time 328440, Note Name: E4
Note ON: Time 328560, Note Name: C#4, Velocity: 51
Note OFF: Time 328680, Note Name: C#4
Note ON: Time 329160, Note Name: F#4, Velocity: 63
Note OFF: Time 329250, Note Name: F#4
Note ON: Time 329280, Note Name: E5, Velocity: 67
Note OFF: Time 329638, Note Name: E5
Note ON: Time 329640, Note Name: E4, Velocity: 63
Note ON: Time 329640, Note Name: E5, Velocity: 54
Note OFF: Time 329730, Note Name: E4
Note OFF: Time 329758, Note Name: E5
Note ON: Time 329760, Note Name: C#5, Velocity: 61
Note ON: Time 329760, Note Name: E5, Velocity: 61
Note OFF: Time 329940, Note Name: E5
Note OFF: Time 330120, Note Name: C#5
Note ON: Time 330120, Note Name: C#5, Velocity: 54
Note OFF: Time 330240, Note Name: C#5
Note ON: Time 330240, Note Name: C#5, Velocity: 61
Note OFF: Time 330420, Note Name: C#5
Note ON: Time 331080, Note Name: C#5, Velocity: 63
Note OFF: Time 331170, Note Name: C#5
Note ON: Time 331200, Note Name: A#5, Velocity: 67
Note OFF: Time 331558, Note Name: A#5
Note ON: Time 331560, Note Name: C#4, Velocity: 63
Note ON: Time 331560, Note Name: A#5, Velocity: 54
Note OFF: Time 331650, Note Name: C#4
Note OFF: Time 331678, Note Name: A#5
Note ON: Time 331680, Note Name: A#4, Velocity: 61
Note ON: Time 331680, Note Name: A#5, Velocity: 61
Note OFF: Time 331860, Note Name: A#5
Note OFF: Time 332040, Note Name: A#4
Note ON: Time 332040, Note Name: A#4, Velocity: 54
Note OFF: Time 332158, Note Name: A#4
Note ON: Time 332160, Note Name: A#4, Velocity: 61
Note OFF: Time 332340, Note Name: A#4
Note ON: Time 332520, Note Name: E3, Velocity: 64
Note OFF: Time 332610, Note Name: E3
Note ON: Time 332640, Note Name: C#4, Velocity: 62
Note OFF: Time 333480, Note Name: C#4
Note ON: Time 333480, Note Name: G3, Velocity: 68
Note OFF: Time 333570, Note Name: G3
Note ON: Time 333600, Note Name: E4, Velocity: 71
Note OFF: Time 334200, Note Name: E4
Note ON: Time 334200, Note Name: G3, Velocity: 70
Note OFF: Time 334290, Note Name: G3
Note ON: Time 334320, Note Name: E4, Velocity: 76
Note OFF: Time 334680, Note Name: E4
Note ON: Time 334680, Note Name: G5, Velocity: 72
Note OFF: Time 334770, Note Name: G5
Note ON: Time 334800, Note Name: E6, Velocity: 78
Note OFF: Time 335160, Note Name: E6
Note ON: Time 335160, Note Name: G#3, Velocity: 74
Note OFF: Time 335250, Note Name: G#3
Note ON: Time 335280, Note Name: E4, Velocity: 79
Note OFF: Time 335640, Note Name: E4
Note ON: Time 335640, Note Name: G#5, Velocity: 76
Note OFF: Time 335730, Note Name: G#5
Note ON: Time 335760, Note Name: E6, Velocity: 83
Note OFF: Time 336120, Note Name: E6
Note ON: Time 336120, Note Name: A3, Velocity: 78
Note OFF: Time 336210, Note Name: A3
Note ON: Time 336240, Note Name: E4, Velocity: 84
Note OFF: Time 336600, Note Name: E4
Note ON: Time 336600, Note Name: A5, Velocity: 81
Note OFF: Time 336690, Note Name: A5
Note ON: Time 336720, Note Name: E6, Velocity: 88
Note OFF: Time 337080, Note Name: E6
Note ON: Time 337080, Note Name: A3, Velocity: 85
Note OFF: Time 337170, Note Name: A3
Note ON: Time 337200, Note Name: F4, Velocity: 93
Note OFF: Time 337560, Note Name: F4
Note ON: Time 337560, Note Name: A5, Velocity: 89
Note OFF: Time 337650, Note Name: A5
Note ON: Time 337680, Note Name: F6, Velocity: 101
Note OFF: Time 337920, Note Name: F6
Note ON: Time 337920, Note Name: D5, Velocity: 82
Note ON: Time 337920, Note Name: A#5, Velocity: 82
Note ON: Time 337920, Note Name: F5, Velocity: 82
Note ON: Time 337931, Note Name: D6, Velocity: 99
Note OFF: Time 338100, Note Name: F5
Note OFF: Time 338100, Note Name: D5
Note OFF: Time 338100, Note Name: A#5
Note OFF: Time 338111, Note Name: D6
Note ON: Time 338280, Note Name: D5, Velocity: 91
Note ON: Time 338280, Note Name: A#5, Velocity: 91
Note ON: Time 338280, Note Name: D6, Velocity: 111
Note ON: Time 338280, Note Name: F5, Velocity: 91
Note OFF: Time 338400, Note Name: F5
Note OFF: Time 338400, Note Name: D5
Note OFF: Time 338400, Note Name: A#5
Note OFF: Time 338400, Note Name: D6
Note ON: Time 338400, Note Name: F5, Velocity: 82
Note ON: Time 338400, Note Name: D6, Velocity: 99
Note ON: Time 338400, Note Name: A#5, Velocity: 82
Note ON: Time 338400, Note Name: D5, Velocity: 82
Note OFF: Time 338580, Note Name: D5
Note OFF: Time 338580, Note Name: F5
Note OFF: Time 338580, Note Name: D6
Note OFF: Time 338580, Note Name: A#5
Note ON: Time 338640, Note Name: D5, Velocity: 84
Note ON: Time 338640, Note Name: D#6, Velocity: 104
Note ON: Time 338640, Note Name: A#5, Velocity: 84
Note ON: Time 338640, Note Name: F5, Velocity: 84
Note OFF: Time 338685, Note Name: F5
Note OFF: Time 338685, Note Name: D5
Note OFF: Time 338685, Note Name: D#6
Note OFF: Time 338685, Note Name: A#5
Note ON: Time 338760, Note Name: D5, Velocity: 86
Note ON: Time 338760, Note Name: D6, Velocity: 102
Note ON: Time 338760, Note Name: F5, Velocity: 86
Note ON: Time 338760, Note Name: A#5, Velocity: 86
Note OFF: Time 338805, Note Name: A#5
Note OFF: Time 338805, Note Name: D5
Note OFF: Time 338805, Note Name: D6
Note OFF: Time 338805, Note Name: F5
Note ON: Time 338880, Note Name: F5, Velocity: 91
Note ON: Time 338880, Note Name: D5, Velocity: 91
Note ON: Time 338880, Note Name: A#5, Velocity: 91
Note ON: Time 338880, Note Name: D6, Velocity: 111
Note OFF: Time 339000, Note Name: D6
Note OFF: Time 339000, Note Name: F5
Note OFF: Time 339000, Note Name: D5
Note OFF: Time 339000, Note Name: A#5
Note ON: Time 339120, Note Name: D5, Velocity: 84
Note ON: Time 339120, Note Name: A#4, Velocity: 84
Note ON: Time 339120, Note Name: F5, Velocity: 84
Note ON: Time 339120, Note Name: A#5, Velocity: 101
Note OFF: Time 339240, Note Name: A#5
Note OFF: Time 339240, Note Name: D5
Note OFF: Time 339240, Note Name: A#4
Note OFF: Time 339240, Note Name: F5
Note ON: Time 339720, Note Name: F5, Velocity: 101
Note ON: Time 339720, Note Name: D5, Velocity: 93
Note OFF: Time 339840, Note Name: D5
Note OFF: Time 339840, Note Name: F5
Note ON: Time 339840, Note Name: A#5, Velocity: 82
Note ON: Time 339840, Note Name: F5, Velocity: 82
Note ON: Time 339840, Note Name: F6, Velocity: 99
Note OFF: Time 340020, Note Name: F6
Note OFF: Time 340020, Note Name: F5
Note OFF: Time 340020, Note Name: A#5
Note ON: Time 340200, Note Name: A#5, Velocity: 91
Note ON: Time 340200, Note Name: F5, Velocity: 91
Note ON: Time 340200, Note Name: F6, Velocity: 111
Note ON: Time 340200, Note Name: D6, Velocity: 91
Note OFF: Time 340320, Note Name: D6
Note OFF: Time 340320, Note Name: A#5
Note OFF: Time 340320, Note Name: F5
Note OFF: Time 340320, Note Name: F6
Note ON: Time 340320, Note Name: D6, Velocity: 82
Note ON: Time 340320, Note Name: A#5, Velocity: 82
Note ON: Time 340320, Note Name: F5, Velocity: 82
Note ON: Time 340320, Note Name: F6, Velocity: 99
Note OFF: Time 340500, Note Name: F6
Note OFF: Time 340500, Note Name: D6
Note OFF: Time 340500, Note Name: A#5
Note OFF: Time 340500, Note Name: F5
Note ON: Time 340560, Note Name: G6, Velocity: 104
Note ON: Time 340560, Note Name: D6, Velocity: 84
Note ON: Time 340560, Note Name: A#5, Velocity: 84
Note ON: Time 340560, Note Name: F5, Velocity: 84
Note OFF: Time 340605, Note Name: F5
Note OFF: Time 340605, Note Name: G6
Note OFF: Time 340605, Note Name: D6
Note OFF: Time 340605, Note Name: A#5
Note ON: Time 340680, Note Name: F6, Velocity: 102
Note ON: Time 340680, Note Name: D6, Velocity: 86
Note ON: Time 340680, Note Name: F5, Velocity: 86
Note ON: Time 340680, Note Name: A#5, Velocity: 86
Note OFF: Time 340725, Note Name: A#5
Note OFF: Time 340725, Note Name: F6
Note OFF: Time 340725, Note Name: D6
Note OFF: Time 340725, Note Name: F5
Note ON: Time 340800, Note Name: F6, Velocity: 111
Note ON: Time 340800, Note Name: D6, Velocity: 91
Note ON: Time 340800, Note Name: A#5, Velocity: 91
Note ON: Time 340800, Note Name: F5, Velocity: 91
Note OFF: Time 340920, Note Name: F5
Note OFF: Time 340920, Note Name: F6
Note OFF: Time 340920, Note Name: D6
Note OFF: Time 340920, Note Name: A#5
Note ON: Time 341040, Note Name: D6, Velocity: 101
Note ON: Time 341040, Note Name: D5, Velocity: 84
Note ON: Time 341040, Note Name: F5, Velocity: 84
Note ON: Time 341040, Note Name: A#5, Velocity: 84
Note OFF: Time 341160, Note Name: A#5
Note OFF: Time 341160, Note Name: D6
Note OFF: Time 341160, Note Name: D5
Note OFF: Time 341160, Note Name: F5
Note ON: Time 341520, Note Name: G5, Velocity: 45
Note ON: Time 341520, Note Name: A#5, Velocity: 54
Note OFF: Time 341640, Note Name: A#5
Note OFF: Time 341640, Note Name: G5
Note ON: Time 341640, Note Name: A5, Velocity: 43
Note ON: Time 341640, Note Name: C6, Velocity: 51
Note OFF: Time 341760, Note Name: C6
Note OFF: Time 341760, Note Name: A5
Note ON: Time 341760, Note Name: F5, Velocity: 51
Note ON: Time 341760, Note Name: D6, Velocity: 61
Note ON: Time 341760, Note Name: A#5, Velocity: 51
Note OFF: Time 342240, Note Name: A#5
Note OFF: Time 342240, Note Name: D6
Note OFF: Time 342240, Note Name: F5
Note ON: Time 342240, Note Name: F5, Velocity: 47
Note ON: Time 342240, Note Name: C6, Velocity: 56
Note ON: Time 342240, Note Name: A5, Velocity: 47
Note OFF: Time 342480, Note Name: A5
Note OFF: Time 342480, Note Name: C6
Note OFF: Time 342480, Note Name: F5
Note ON: Time 342480, Note Name: A4, Velocity: 47
Note ON: Time 342480, Note Name: C5, Velocity: 56
Note ON: Time 342480, Note Name: F4, Velocity: 41
Note OFF: Time 342600, Note Name: C5
Note OFF: Time 342600, Note Name: A4
Note ON: Time 342600, Note Name: B4, Velocity: 35
Note ON: Time 342600, Note Name: D5, Velocity: 46
Note OFF: Time 342720, Note Name: D5
Note OFF: Time 342720, Note Name: B4
Note OFF: Time 342720, Note Name: F4
Note ON: Time 342720, Note Name: G4, Velocity: 49
Note ON: Time 342720, Note Name: C5, Velocity: 49
Note ON: Time 342720, Note Name: D#5, Velocity: 58
Note OFF: Time 343200, Note Name: D#5
Note OFF: Time 343200, Note Name: C5
Note OFF: Time 343200, Note Name: G4
Note ON: Time 343200, Note Name: G4, Velocity: 43
Note ON: Time 343200, Note Name: D5, Velocity: 51
Note ON: Time 343200, Note Name: A#4, Velocity: 43
Note OFF: Time 343440, Note Name: A#4
Note OFF: Time 343440, Note Name: D5
Note OFF: Time 343440, Note Name: G4
Note ON: Time 343440, Note Name: D5, Velocity: 58
Note ON: Time 343440, Note Name: A#4, Velocity: 49
Note OFF: Time 343560, Note Name: D5
Note ON: Time 343560, Note Name: D#5, Velocity: 60
Note OFF: Time 343680, Note Name: D#5
Note ON: Time 343680, Note Name: F5, Velocity: 63
Note OFF: Time 343920, Note Name: A#4
Note ON: Time 343920, Note Name: G4, Velocity: 45
Note ON: Time 343920, Note Name: A#4, Velocity: 54
Note OFF: Time 344040, Note Name: F5
Note ON: Time 344040, Note Name: G5, Velocity: 60
Note OFF: Time 344160, Note Name: G5
Note OFF: Time 344160, Note Name: A#4
Note OFF: Time 344160, Note Name: G4
Note ON: Time 344160, Note Name: G4, Velocity: 62
Note ON: Time 344160, Note Name: F5, Velocity: 62
Note OFF: Time 344280, Note Name: F5
Note ON: Time 344280, Note Name: D#5, Velocity: 51
Note OFF: Time 344400, Note Name: G4
Note ON: Time 344400, Note Name: A4, Velocity: 57
Note OFF: Time 344520, Note Name: D#5
Note ON: Time 344520, Note Name: F5, Velocity: 50
Note OFF: Time 344640, Note Name: F5
Note OFF: Time 344640, Note Name: A4
Note ON: Time 344640, Note Name: A#4, Velocity: 51
Note ON: Time 344640, Note Name: D#5, Velocity: 60
Note OFF: Time 344760, Note Name: D#5
Note ON: Time 344760, Note Name: D5, Velocity: 46
Note OFF: Time 344880, Note Name: D5
Note OFF: Time 344880, Note Name: A#4
Note ON: Time 344880, Note Name: F4, Velocity: 41
Note ON: Time 344880, Note Name: G#4, Velocity: 41
Note ON: Time 344880, Note Name: D5, Velocity: 49
Note ON: Time 344880, Note Name: F5, Velocity: 49
Note OFF: Time 345000, Note Name: F5
Note OFF: Time 345000, Note Name: F4
Note OFF: Time 345000, Note Name: G#4
Note OFF: Time 345000, Note Name: D5
Note ON: Time 345000, Note Name: G4, Velocity: 37
Note ON: Time 345000, Note Name: C5, Velocity: 44
Note ON: Time 345000, Note Name: D#5, Velocity: 44
Note ON: Time 345000, Note Name: D#4, Velocity: 37
Note OFF: Time 345120, Note Name: D#4
Note OFF: Time 345120, Note Name: G4
Note OFF: Time 345120, Note Name: C5
Note OFF: Time 345120, Note Name: D#5
Note ON: Time 345120, Note Name: C4, Velocity: 34
Note ON: Time 345120, Note Name: C5, Velocity: 40
Note ON: Time 345120, Note Name: A4, Velocity: 40
Note OFF: Time 345360, Note Name: A4
Note OFF: Time 345360, Note Name: C5
Note OFF: Time 345360, Note Name: C4
Note ON: Time 345360, Note Name: D5, Velocity: 58
Note OFF: Time 345480, Note Name: D5
Note ON: Time 345480, Note Name: D#5, Velocity: 60
Note OFF: Time 345600, Note Name: D#5
Note ON: Time 345600, Note Name: F5, Velocity: 63
Note ON: Time 345720, Note Name: A4, Velocity: 45
Note OFF: Time 345840, Note Name: A4
Note ON: Time 345840, Note Name: A#4, Velocity: 54
Note OFF: Time 345960, Note Name: F5
Note ON: Time 345960, Note Name: G5, Velocity: 60
Note OFF: Time 346080, Note Name: G5
Note ON: Time 346080, Note Name: D#5, Velocity: 64
Note OFF: Time 346200, Note Name: A#4
Note ON: Time 346200, Note Name: F#4, Velocity: 47
Note OFF: Time 346320, Note Name: F#4
Note ON: Time 346320, Note Name: A4, Velocity: 53
Note OFF: Time 346440, Note Name: D#5
Note ON: Time 346440, Note Name: F5, Velocity: 50
Note OFF: Time 346560, Note Name: F5
Note ON: Time 346560, Note Name: D#5, Velocity: 60
Note OFF: Time 346680, Note Name: D#5
Note OFF: Time 346680, Note Name: A4
Note ON: Time 346680, Note Name: A#4, Velocity: 50
Note ON: Time 346680, Note Name: D5, Velocity: 50
Note OFF: Time 346800, Note Name: D5
Note OFF: Time 346800, Note Name: A#4
Note ON: Time 346800, Note Name: F5, Velocity: 57
Note ON: Time 346800, Note Name: F4, Velocity: 35
Note OFF: Time 346920, Note Name: F5
Note ON: Time 346920, Note Name: D#5, Velocity: 55
Note OFF: Time 347040, Note Name: D#5
Note ON: Time 347040, Note Name: C5, Velocity: 50
Note OFF: Time 347280, Note Name: C5
Note OFF: Time 347280, Note Name: F4
Note ON: Time 347280, Note Name: D#5, Velocity: 58
Note ON: Time 347280, Note Name: D#4, Velocity: 49
Note OFF: Time 347400, Note Name: D#4
Note OFF: Time 347400, Note Name: D#5
Note ON: Time 347400, Note Name: F5, Velocity: 60
Note ON: Time 347400, Note Name: F4, Velocity: 51
Note OFF: Time 347520, Note Name: F4
Note OFF: Time 347520, Note Name: F5
Note ON: Time 347520, Note Name: G5, Velocity: 63
Note ON: Time 347520, Note Name: G4, Velocity: 45
Note OFF: Time 347640, Note Name: G4
Note ON: Time 347640, Note Name: A4, Velocity: 45
Note OFF: Time 347760, Note Name: A4
Note ON: Time 347760, Note Name: A#4, Velocity: 54
Note OFF: Time 347880, Note Name: G5
Note ON: Time 347880, Note Name: G#5, Velocity: 60
Note OFF: Time 348000, Note Name: G#5
Note ON: Time 348000, Note Name: F5, Velocity: 64
Note OFF: Time 348120, Note Name: A#4
Note ON: Time 348120, Note Name: A4, Velocity: 47
Note OFF: Time 348240, Note Name: A4
Note ON: Time 348240, Note Name: A#4, Velocity: 53
Note OFF: Time 348360, Note Name: F5
Note ON: Time 348360, Note Name: G5, Velocity: 50
Note OFF: Time 348480, Note Name: G5
Note ON: Time 348480, Note Name: F5, Velocity: 60
Note OFF: Time 348600, Note Name: F5
Note ON: Time 348600, Note Name: D#5, Velocity: 50
Note OFF: Time 348720, Note Name: D#5
Note OFF: Time 348720, Note Name: A#4
Note ON: Time 348720, Note Name: A#4, Velocity: 35
Note ON: Time 348720, Note Name: G5, Velocity: 57
Note OFF: Time 348840, Note Name: G5
Note ON: Time 348840, Note Name: F5, Velocity: 55
Note OFF: Time 348960, Note Name: F5
Note ON: Time 348960, Note Name: D5, Velocity: 50
Note OFF: Time 349200, Note Name: D5
Note OFF: Time 349200, Note Name: A#4
Note ON: Time 349200, Note Name: F5, Velocity: 58
Note OFF: Time 349320, Note Name: F5
Note ON: Time 349320, Note Name: F#5, Velocity: 60
Note OFF: Time 349440, Note Name: F#5
Note ON: Time 349440, Note Name: G#5, Velocity: 63
Note ON: Time 349560, Note Name: A4, Velocity: 45
Note OFF: Time 349680, Note Name: A4
Note ON: Time 349680, Note Name: A#4, Velocity: 54
Note OFF: Time 349800, Note Name: G#5
Note ON: Time 349800, Note Name: A#5, Velocity: 60
Note OFF: Time 349920, Note Name: A#5
Note ON: Time 349920, Note Name: F#5, Velocity: 64
Note OFF: Time 350160, Note Name: F#5
Note OFF: Time 350160, Note Name: A#4
Note ON: Time 350160, Note Name: F#4, Velocity: 49
Note ON: Time 350160, Note Name: F#5, Velocity: 58
Note OFF: Time 350280, Note Name: F#5
Note OFF: Time 350280, Note Name: F#4
Note ON: Time 350280, Note Name: G#4, Velocity: 51
Note ON: Time 350280, Note Name: G#5, Velocity: 60
Note OFF: Time 350400, Note Name: G#5
Note OFF: Time 350400, Note Name: G#4
Note ON: Time 350400, Note Name: A#5, Velocity: 63
Note ON: Time 350400, Note Name: A#4, Velocity: 38
Note OFF: Time 350520, Note Name: A#4
Note ON: Time 350520, Note Name: C5, Velocity: 45
Note OFF: Time 350640, Note Name: C5
Note ON: Time 350640, Note Name: C#5, Velocity: 54
Note OFF: Time 350760, Note Name: A#5
Note ON: Time 350760, Note Name: B5, Velocity: 60
Note OFF: Time 350880, Note Name: B5
Note ON: Time 350880, Note Name: G#5, Velocity: 64
Note OFF: Time 351000, Note Name: C#5
Note ON: Time 351000, Note Name: F5, Velocity: 45
Note OFF: Time 351120, Note Name: F5
Note OFF: Time 351120, Note Name: G#5
Note ON: Time 351120, Note Name: F#5, Velocity: 47
Note ON: Time 351120, Note Name: A#5, Velocity: 56
Note OFF: Time 351240, Note Name: A#5
Note OFF: Time 351240, Note Name: F#5
Note ON: Time 351240, Note Name: B5, Velocity: 60
Note ON: Time 351240, Note Name: G#5, Velocity: 51
Note OFF: Time 351360, Note Name: G#5
Note OFF: Time 351360, Note Name: B5
Note ON: Time 351360, Note Name: A#5, Velocity: 65
Note ON: Time 351360, Note Name: C#6, Velocity: 65
Note OFF: Time 351600, Note Name: A#5
Note ON: Time 351600, Note Name: F#5, Velocity: 54
Note OFF: Time 351720, Note Name: C#6
Note ON: Time 351720, Note Name: D#6, Velocity: 64
Note OFF: Time 351840, Note Name: D#6
Note ON: Time 351840, Note Name: C#6, Velocity: 60
Note OFF: Time 351960, Note Name: C#6
Note ON: Time 351960, Note Name: B5, Velocity: 43
Note OFF: Time 352080, Note Name: F#5
Note ON: Time 352080, Note Name: F5, Velocity: 53
Note OFF: Time 352200, Note Name: B5
Note ON: Time 352200, Note Name: C#6, Velocity: 63
Note OFF: Time 352320, Note Name: C#6
Note ON: Time 352320, Note Name: B5, Velocity: 60
Note OFF: Time 352440, Note Name: B5
Note ON: Time 352440, Note Name: A#5, Velocity: 46
Note OFF: Time 352560, Note Name: F5
Note ON: Time 352560, Note Name: F#5, Velocity: 53
Note OFF: Time 352680, Note Name: A#5
Note ON: Time 352680, Note Name: B5, Velocity: 62
Note OFF: Time 352800, Note Name: B5
Note ON: Time 352800, Note Name: A#5, Velocity: 58
Note OFF: Time 352920, Note Name: A#5
Note OFF: Time 352920, Note Name: F#5
Note ON: Time 352920, Note Name: F5, Velocity: 41
Note ON: Time 352920, Note Name: G#5, Velocity: 48
Note OFF: Time 353040, Note Name: G#5
Note OFF: Time 353040, Note Name: F5
Note ON: Time 353040, Note Name: F#5, Velocity: 48
Note ON: Time 353040, Note Name: A#5, Velocity: 56
Note OFF: Time 353160, Note Name: A#5
Note OFF: Time 353160, Note Name: F#5
Note ON: Time 353160, Note Name: B5, Velocity: 60
Note ON: Time 353160, Note Name: G#5, Velocity: 50
Note OFF: Time 353280, Note Name: G#5
Note OFF: Time 353280, Note Name: B5
Note ON: Time 353280, Note Name: D#6, Velocity: 64
Note ON: Time 353280, Note Name: G#5, Velocity: 51
Note OFF: Time 353400, Note Name: G#5
Note OFF: Time 353400, Note Name: D#6
Note ON: Time 353400, Note Name: C#6, Velocity: 58
Note ON: Time 353400, Note Name: F5, Velocity: 46
Note OFF: Time 353520, Note Name: F5
Note OFF: Time 353520, Note Name: C#6
Note ON: Time 353520, Note Name: D#6, Velocity: 65
Note ON: Time 353520, Note Name: F#5, Velocity: 52
Note OFF: Time 353640, Note Name: D#6
Note ON: Time 353640, Note Name: C#6, Velocity: 58
Note OFF: Time 353760, Note Name: C#6
Note ON: Time 353760, Note Name: C#6, Velocity: 66
Note OFF: Time 353880, Note Name: C#6
Note OFF: Time 353880, Note Name: F#5
Note ON: Time 353880, Note Name: B5, Velocity: 58
Note ON: Time 353880, Note Name: E5, Velocity: 46
Note OFF: Time 354000, Note Name: E5
Note OFF: Time 354000, Note Name: B5
Note ON: Time 354000, Note Name: C#6, Velocity: 67
Note ON: Time 354000, Note Name: F5, Velocity: 53
Note OFF: Time 354120, Note Name: C#6
Note ON: Time 354120, Note Name: B5, Velocity: 60
Note OFF: Time 354240, Note Name: B5
Note ON: Time 354240, Note Name: B5, Velocity: 67
Note OFF: Time 354360, Note Name: B5
Note OFF: Time 354360, Note Name: F5
Note ON: Time 354360, Note Name: A#5, Velocity: 61
Note ON: Time 354360, Note Name: C#5, Velocity: 48
Note OFF: Time 354480, Note Name: C#5
Note OFF: Time 354480, Note Name: A#5
Note ON: Time 354480, Note Name: B5, Velocity: 68
Note ON: Time 354480, Note Name: F#5, Velocity: 54
Note OFF: Time 354600, Note Name: B5
Note ON: Time 354600, Note Name: A#5, Velocity: 61
Note OFF: Time 354720, Note Name: A#5
Note ON: Time 354720, Note Name: A#5, Velocity: 69
Note OFF: Time 354840, Note Name: A#5
Note OFF: Time 354840, Note Name: F#5
Note ON: Time 354840, Note Name: G#5, Velocity: 62
Note ON: Time 354840, Note Name: F5, Velocity: 49
Note OFF: Time 354960, Note Name: F5
Note OFF: Time 354960, Note Name: G#5
Note ON: Time 354960, Note Name: A#5, Velocity: 69
Note ON: Time 354960, Note Name: F#5, Velocity: 55
Note OFF: Time 355080, Note Name: F#5
Note OFF: Time 355080, Note Name: A#5
Note ON: Time 355080, Note Name: G#5, Velocity: 51
Note ON: Time 355080, Note Name: B5, Velocity: 63
Note OFF: Time 355200, Note Name: B5
Note OFF: Time 355200, Note Name: G#5
Note ON: Time 355200, Note Name: F5, Velocity: 56
Note ON: Time 355200, Note Name: D#6, Velocity: 70
Note OFF: Time 355320, Note Name: D#6
Note OFF: Time 355320, Note Name: F5
Note ON: Time 355320, Note Name: F#5, Velocity: 48
Note ON: Time 355320, Note Name: C#6, Velocity: 61
Note OFF: Time 355440, Note Name: C#6
Note OFF: Time 355440, Note Name: F#5
Note ON: Time 355440, Note Name: F#5, Velocity: 48
Note ON: Time 355440, Note Name: C#5, Velocity: 61
Note OFF: Time 355560, Note Name: C#5
Note ON: Time 355560, Note Name: C#6, Velocity: 63
Note OFF: Time 355678, Note Name: C#6
Note OFF: Time 355680, Note Name: F#5
Note ON: Time 355680, Note Name: C#6, Velocity: 71
Note ON: Time 355680, Note Name: E5, Velocity: 57
Note OFF: Time 355800, Note Name: E5
Note OFF: Time 355800, Note Name: C#6
Note ON: Time 355800, Note Name: B5, Velocity: 62
Note ON: Time 355800, Note Name: F5, Velocity: 49
Note OFF: Time 355920, Note Name: F5
Note OFF: Time 355920, Note Name: B5
Note ON: Time 355920, Note Name: B4, Velocity: 62
Note ON: Time 355920, Note Name: F5, Velocity: 49
Note OFF: Time 356040, Note Name: B4
Note ON: Time 356040, Note Name: B5, Velocity: 62
Note OFF: Time 356160, Note Name: B5
Note OFF: Time 356160, Note Name: F5
Note ON: Time 356160, Note Name: B5, Velocity: 72
Note ON: Time 356160, Note Name: F5, Velocity: 58
Note OFF: Time 356280, Note Name: F5
Note OFF: Time 356280, Note Name: B5
Note ON: Time 356280, Note Name: A#5, Velocity: 65
Note ON: Time 356280, Note Name: F#5, Velocity: 52
Note OFF: Time 356400, Note Name: F#5
Note OFF: Time 356400, Note Name: A#5
Note ON: Time 356400, Note Name: F#5, Velocity: 52
Note ON: Time 356400, Note Name: A#4, Velocity: 65
Note OFF: Time 356520, Note Name: A#4
Note ON: Time 356520, Note Name: A#5, Velocity: 67
Note OFF: Time 356638, Note Name: A#5
Note OFF: Time 356640, Note Name: F#5
Note ON: Time 356640, Note Name: A#5, Velocity: 75
Note OFF: Time 356760, Note Name: A#5
Note ON: Time 356760, Note Name: G#5, Velocity: 69
Note OFF: Time 356880, Note Name: G#5
Note ON: Time 356880, Note Name: A#5, Velocity: 70
Note ON: Time 356880, Note Name: C#5, Velocity: 53
Note OFF: Time 357000, Note Name: A#5
Note ON: Time 357000, Note Name: B5, Velocity: 70
Note OFF: Time 357120, Note Name: B5
Note OFF: Time 357120, Note Name: C#5
Note ON: Time 357120, Note Name: C#5, Velocity: 65
Note ON: Time 357120, Note Name: D#6, Velocity: 81
Note OFF: Time 357240, Note Name: D#6
Note OFF: Time 357240, Note Name: C#5
Note ON: Time 357240, Note Name: F#5, Velocity: 60
Note ON: Time 357240, Note Name: C#6, Velocity: 75
Note OFF: Time 357360, Note Name: F#5
Note ON: Time 357360, Note Name: B5, Velocity: 76
Note ON: Time 357360, Note Name: F5, Velocity: 60
Note OFF: Time 357480, Note Name: C#6
Note ON: Time 357480, Note Name: D6, Velocity: 81
Note OFF: Time 357600, Note Name: F5
Note OFF: Time 357600, Note Name: B5
Note ON: Time 357600, Note Name: A#5, Velocity: 61
Note ON: Time 357600, Note Name: F#5, Velocity: 61
Note OFF: Time 357720, Note Name: D6
Note ON: Time 357720, Note Name: D#6, Velocity: 80
Note OFF: Time 357840, Note Name: D#6
Note OFF: Time 357840, Note Name: F#5
Note OFF: Time 357840, Note Name: A#5
Note ON: Time 357840, Note Name: E6, Velocity: 83
Note ON: Time 357840, Note Name: A#5, Velocity: 61
Note ON: Time 357840, Note Name: F5, Velocity: 61
Note OFF: Time 357960, Note Name: E6
Note ON: Time 357960, Note Name: F6, Velocity: 87
Note OFF: Time 358080, Note Name: F6
Note OFF: Time 358080, Note Name: F5
Note OFF: Time 358080, Note Name: A#5
Note ON: Time 358080, Note Name: F#5, Velocity: 71
Note ON: Time 358080, Note Name: G#6, Velocity: 89
Note ON: Time 358080, Note Name: A#5, Velocity: 71
Note OFF: Time 358200, Note Name: G#6
Note ON: Time 358200, Note Name: F#6, Velocity: 85
Note OFF: Time 358320, Note Name: F#6
Note OFF: Time 358320, Note Name: A#5
Note OFF: Time 358320, Note Name: F#5
Note ON: Time 358320, Note Name: F#5, Velocity: 74
Note ON: Time 358320, Note Name: F6, Velocity: 91
Note ON: Time 358320, Note Name: A#5, Velocity: 74
Note OFF: Time 358440, Note Name: F6
Note ON: Time 358440, Note Name: D#6, Velocity: 82
Note OFF: Time 358560, Note Name: D#6
Note OFF: Time 358560, Note Name: A#5
Note OFF: Time 358560, Note Name: F#5
Note ON: Time 358560, Note Name: C#6, Velocity: 98
Note ON: Time 358560, Note Name: G#5, Velocity: 77
Note ON: Time 358560, Note Name: F5, Velocity: 77
Note OFF: Time 358680, Note Name: F5
Note OFF: Time 358680, Note Name: G#5
Note OFF: Time 358680, Note Name: C#6
Note ON: Time 358800, Note Name: F5, Velocity: 81
Note ON: Time 358800, Note Name: C#6, Velocity: 81
Note ON: Time 358800, Note Name: G#5, Velocity: 81
Note ON: Time 358800, Note Name: F6, Velocity: 103
Note OFF: Time 358920, Note Name: F6
Note OFF: Time 358920, Note Name: F5
Note OFF: Time 358920, Note Name: C#6
Note OFF: Time 358920, Note Name: G#5
Note ON: Time 359040, Note Name: F#5, Velocity: 97
Note ON: Time 359040, Note Name: C#6, Velocity: 97
Note ON: Time 359040, Note Name: A#5, Velocity: 97
Note ON: Time 359040, Note Name: F#6, Velocity: 115
Note OFF: Time 359520, Note Name: F#6
Note OFF: Time 359520, Note Name: F#5
Note OFF: Time 359520, Note Name: C#6
Note OFF: Time 359520, Note Name: A#5
Note ON: Time 359520, Note Name: A#3, Velocity: 63
Note ON: Time 359520, Note Name: F#4, Velocity: 75
Note ON: Time 359520, Note Name: C#4, Velocity: 63
Note OFF: Time 360000, Note Name: C#4
Note OFF: Time 360000, Note Name: F#4
Note OFF: Time 360000, Note Name: A#3
Note ON: Time 360000, Note Name: F#4, Velocity: 50
Note ON: Time 360000, Note Name: A#4, Velocity: 59
Note ON: Time 360000, Note Name: C#4, Velocity: 50
Note OFF: Time 360060, Note Name: C#4
Note OFF: Time 360060, Note Name: A#4
Note OFF: Time 360060, Note Name: F#4
Note ON: Time 360240, Note Name: F#4, Velocity: 61
Note ON: Time 360240, Note Name: C#4, Velocity: 51
Note ON: Time 360240, Note Name: A#3, Velocity: 51
Note OFF: Time 360300, Note Name: A#3
Note OFF: Time 360300, Note Name: C#4
Note OFF: Time 360300, Note Name: F#4
Note ON: Time 360480, Note Name: C#4, Velocity: 51
Note ON: Time 360480, Note Name: F#4, Velocity: 51
Note ON: Time 360480, Note Name: A#4, Velocity: 61
Note OFF: Time 360540, Note Name: A#4
Note OFF: Time 360540, Note Name: F#4
Note OFF: Time 360540, Note Name: C#4
Note ON: Time 360720, Note Name: F4, Velocity: 51
Note ON: Time 360720, Note Name: B3, Velocity: 51
Note ON: Time 360720, Note Name: D4, Velocity: 51
Note ON: Time 360720, Note Name: G#4, Velocity: 61
Note OFF: Time 360780, Note Name: G#4
Note OFF: Time 360780, Note Name: F4
Note OFF: Time 360780, Note Name: B3
Note OFF: Time 360780, Note Name: D4
Note ON: Time 360960, Note Name: B5, Velocity: 89
Note ON: Time 360960, Note Name: G#6, Velocity: 105
Note ON: Time 360960, Note Name: D6, Velocity: 89
Note ON: Time 360960, Note Name: F6, Velocity: 89
Note ON: Time 360960, Note Name: G#5, Velocity: 89
Note OFF: Time 361440, Note Name: G#5
Note OFF: Time 361440, Note Name: D6
Note OFF: Time 361440, Note Name: B5
Note OFF: Time 361440, Note Name: G#6
Note OFF: Time 361440, Note Name: F6
Note ON: Time 361440, Note Name: D4, Velocity: 63
Note ON: Time 361440, Note Name: G#4, Velocity: 75
Note ON: Time 361440, Note Name: F4, Velocity: 63
Note ON: Time 361440, Note Name: B3, Velocity: 63
Note OFF: Time 361920, Note Name: B3
Note OFF: Time 361920, Note Name: D4
Note OFF: Time 361920, Note Name: G#4
Note OFF: Time 361920, Note Name: F4
Note ON: Time 361920, Note Name: F4, Velocity: 50
Note ON: Time 361920, Note Name: G#4, Velocity: 50
Note ON: Time 361920, Note Name: D4, Velocity: 50
Note ON: Time 361920, Note Name: B4, Velocity: 59
Note OFF: Time 361980, Note Name: B4
Note OFF: Time 361980, Note Name: F4
Note OFF: Time 361980, Note Name: G#4
Note OFF: Time 361980, Note Name: D4
Note ON: Time 362160, Note Name: D4, Velocity: 51
Note ON: Time 362160, Note Name: G#4, Velocity: 61
Note ON: Time 362160, Note Name: F4, Velocity: 51
Note ON: Time 362160, Note Name: B3, Velocity: 51
Note OFF: Time 362220, Note Name: B3
Note OFF: Time 362220, Note Name: D4
Note OFF: Time 362220, Note Name: G#4
Note OFF: Time 362220, Note Name: F4
Note ON: Time 362400, Note Name: G#4, Velocity: 51
Note ON: Time 362400, Note Name: D4, Velocity: 51
Note ON: Time 362400, Note Name: F4, Velocity: 51
Note ON: Time 362400, Note Name: B4, Velocity: 61
Note OFF: Time 362460, Note Name: B4
Note OFF: Time 362460, Note Name: G#4
Note OFF: Time 362460, Note Name: D4
Note OFF: Time 362460, Note Name: F4
Note ON: Time 362640, Note Name: G4, Velocity: 51
Note ON: Time 362640, Note Name: C#4, Velocity: 51
Note ON: Time 362640, Note Name: E4, Velocity: 51
Note ON: Time 362640, Note Name: A#4, Velocity: 61
Note OFF: Time 362700, Note Name: A#4
Note OFF: Time 362700, Note Name: G4
Note OFF: Time 362700, Note Name: C#4
Note OFF: Time 362700, Note Name: E4
Note ON: Time 362880, Note Name: A#5, Velocity: 89
Note ON: Time 362880, Note Name: C#6, Velocity: 89
Note ON: Time 362880, Note Name: E6, Velocity: 89
Note ON: Time 362880, Note Name: A#6, Velocity: 105
Note OFF: Time 363360, Note Name: A#6
Note OFF: Time 363360, Note Name: A#5
Note OFF: Time 363360, Note Name: C#6
Note OFF: Time 363360, Note Name: E6
Note ON: Time 363360, Note Name: C#4, Velocity: 63
Note ON: Time 363360, Note Name: G4, Velocity: 63
Note ON: Time 363360, Note Name: E4, Velocity: 63
Note ON: Time 363360, Note Name: A#4, Velocity: 75
Note OFF: Time 363840, Note Name: A#4
Note OFF: Time 363840, Note Name: C#4
Note OFF: Time 363840, Note Name: G4
Note OFF: Time 363840, Note Name: E4
Note ON: Time 363840, Note Name: A#4, Velocity: 50
Note ON: Time 363840, Note Name: G4, Velocity: 50
Note ON: Time 363840, Note Name: C#5, Velocity: 59
Note ON: Time 363840, Note Name: E4, Velocity: 50
Note OFF: Time 363900, Note Name: E4
Note OFF: Time 363900, Note Name: A#4
Note OFF: Time 363900, Note Name: G4
Note OFF: Time 363900, Note Name: C#5
Note ON: Time 364080, Note Name: G4, Velocity: 51
Note ON: Time 364080, Note Name: E4, Velocity: 51
Note ON: Time 364080, Note Name: A#4, Velocity: 61
Note ON: Time 364080, Note Name: C#4, Velocity: 51
Note OFF: Time 364140, Note Name: C#4
Note OFF: Time 364140, Note Name: G4
Note OFF: Time 364140, Note Name: E4
Note OFF: Time 364140, Note Name: A#4
Note ON: Time 364320, Note Name: G4, Velocity: 51
Note ON: Time 364320, Note Name: A#4, Velocity: 51
Note ON: Time 364320, Note Name: E4, Velocity: 51
Note ON: Time 364320, Note Name: C#5, Velocity: 61
Note OFF: Time 364380, Note Name: C#5
Note OFF: Time 364380, Note Name: G4
Note OFF: Time 364380, Note Name: A#4
Note OFF: Time 364380, Note Name: E4
Note ON: Time 364560, Note Name: D4, Velocity: 51
Note ON: Time 364560, Note Name: B4, Velocity: 61
Note ON: Time 364560, Note Name: F#4, Velocity: 51
Note OFF: Time 364620, Note Name: F#4
Note OFF: Time 364620, Note Name: B4
Note OFF: Time 364620, Note Name: D4
Note ON: Time 364800, Note Name: B5, Velocity: 89
Note ON: Time 364800, Note Name: D6, Velocity: 89
Note ON: Time 364800, Note Name: B6, Velocity: 105
Note ON: Time 364800, Note Name: F#6, Velocity: 89
Note OFF: Time 365280, Note Name: F#6
Note OFF: Time 365280, Note Name: B5
Note OFF: Time 365280, Note Name: D6
Note OFF: Time 365280, Note Name: B6
Note ON: Time 365280, Note Name: B4, Velocity: 75
Note ON: Time 365280, Note Name: F#4, Velocity: 63
Note ON: Time 365280, Note Name: D4, Velocity: 63
Note OFF: Time 365760, Note Name: D4
Note OFF: Time 365760, Note Name: F#4
Note OFF: Time 365760, Note Name: B4
Note ON: Time 365760, Note Name: G#4, Velocity: 50
Note ON: Time 365760, Note Name: F4, Velocity: 50
Note ON: Time 365760, Note Name: B4, Velocity: 50
Note ON: Time 365760, Note Name: D5, Velocity: 59
Note OFF: Time 365820, Note Name: D5
Note OFF: Time 365820, Note Name: G#4
Note OFF: Time 365820, Note Name: F4
Note OFF: Time 365820, Note Name: B4
Note ON: Time 366000, Note Name: G#4, Velocity: 51
Note ON: Time 366000, Note Name: B4, Velocity: 61
Note ON: Time 366000, Note Name: F4, Velocity: 51
Note ON: Time 366000, Note Name: D4, Velocity: 51
Note OFF: Time 366060, Note Name: D4
Note OFF: Time 366060, Note Name: G#4
Note OFF: Time 366060, Note Name: B4
Note OFF: Time 366060, Note Name: F4
Note ON: Time 366240, Note Name: B4, Velocity: 56
Note ON: Time 366240, Note Name: D5, Velocity: 67
Note ON: Time 366240, Note Name: G#4, Velocity: 56
Note ON: Time 366240, Note Name: F4, Velocity: 56
Note OFF: Time 366300, Note Name: F4
Note OFF: Time 366300, Note Name: B4
Note OFF: Time 366300, Note Name: D5
Note OFF: Time 366300, Note Name: G#4
Note ON: Time 366480, Note Name: A#4, Velocity: 58
Note ON: Time 366480, Note Name: C#5, Velocity: 69
Note ON: Time 366480, Note Name: G4, Velocity: 58
Note ON: Time 366480, Note Name: E4, Velocity: 58
Note OFF: Time 366540, Note Name: E4
Note OFF: Time 366540, Note Name: A#4
Note OFF: Time 366540, Note Name: C#5
Note OFF: Time 366540, Note Name: G4
Note ON: Time 366720, Note Name: A#4, Velocity: 59
Note ON: Time 366720, Note Name: E5, Velocity: 69
Note ON: Time 366720, Note Name: G4, Velocity: 59
Note ON: Time 366720, Note Name: C#5, Velocity: 59
Note OFF: Time 366780, Note Name: C#5
Note OFF: Time 366780, Note Name: A#4
Note OFF: Time 366780, Note Name: E5
Note OFF: Time 366780, Note Name: G4
Note ON: Time 366960, Note Name: G4, Velocity: 62
Note ON: Time 366960, Note Name: A#4, Velocity: 62
Note ON: Time 366960, Note Name: E4, Velocity: 62
Note ON: Time 366960, Note Name: C#5, Velocity: 74
Note OFF: Time 367020, Note Name: C#5
Note OFF: Time 367020, Note Name: G4
Note OFF: Time 367020, Note Name: A#4
Note OFF: Time 367020, Note Name: E4
Note ON: Time 367200, Note Name: G4, Velocity: 65
Note ON: Time 367200, Note Name: C#5, Velocity: 65
Note ON: Time 367200, Note Name: A#4, Velocity: 65
Note ON: Time 367200, Note Name: E5, Velocity: 77
Note OFF: Time 367260, Note Name: E5
Note OFF: Time 367260, Note Name: G4
Note OFF: Time 367260, Note Name: C#5
Note OFF: Time 367260, Note Name: A#4
Note ON: Time 367440, Note Name: F#4, Velocity: 67
Note ON: Time 367440, Note Name: D5, Velocity: 81
Note ON: Time 367440, Note Name: B4, Velocity: 67
Note OFF: Time 367500, Note Name: B4
Note OFF: Time 367500, Note Name: D5
Note OFF: Time 367500, Note Name: F#4
Note ON: Time 367680, Note Name: F#5, Velocity: 82
Note ON: Time 367680, Note Name: D5, Velocity: 70
Note ON: Time 367680, Note Name: F#4, Velocity: 70
Note ON: Time 367680, Note Name: B4, Velocity: 70
Note OFF: Time 367740, Note Name: B4
Note OFF: Time 367740, Note Name: F#5
Note OFF: Time 367740, Note Name: D5
Note OFF: Time 367740, Note Name: F#4
Note ON: Time 367920, Note Name: B4, Velocity: 74
Note ON: Time 367920, Note Name: D5, Velocity: 89
Note ON: Time 367920, Note Name: F#4, Velocity: 74
Note OFF: Time 367980, Note Name: F#4
Note OFF: Time 367980, Note Name: D5
Note OFF: Time 367980, Note Name: B4
Note ON: Time 368160, Note Name: D5, Velocity: 77
Note ON: Time 368160, Note Name: B4, Velocity: 77
Note ON: Time 368160, Note Name: F#5, Velocity: 92
Note ON: Time 368160, Note Name: F#4, Velocity: 77
Note OFF: Time 368220, Note Name: F#4
Note OFF: Time 368220, Note Name: D5
Note OFF: Time 368220, Note Name: B4
Note OFF: Time 368220, Note Name: F#5
Note ON: Time 368400, Note Name: B4, Velocity: 80
Note ON: Time 368400, Note Name: G#4, Velocity: 80
Note ON: Time 368400, Note Name: F5, Velocity: 97
Note ON: Time 368400, Note Name: C#5, Velocity: 80
Note OFF: Time 368460, Note Name: C#5
Note OFF: Time 368460, Note Name: B4
Note OFF: Time 368460, Note Name: G#4
Note OFF: Time 368460, Note Name: F5
Note ON: Time 368640, Note Name: G#5, Velocity: 92
Note ON: Time 368640, Note Name: G#6, Velocity: 108
Note OFF: Time 368880, Note Name: G#6
Note OFF: Time 368880, Note Name: G#5
Note ON: Time 368880, Note Name: F#5, Velocity: 81
Note ON: Time 368880, Note Name: F#6, Velocity: 96
Note OFF: Time 369120, Note Name: F#6
Note OFF: Time 369120, Note Name: F#5
Note ON: Time 369120, Note Name: D#6, Velocity: 106
Note ON: Time 369120, Note Name: D#5, Velocity: 90
Note OFF: Time 369360, Note Name: D#5
Note OFF: Time 369360, Note Name: D#6
Note ON: Time 369360, Note Name: C#5, Velocity: 83
Note ON: Time 369360, Note Name: C#6, Velocity: 99
Note OFF: Time 369600, Note Name: C#6
Note OFF: Time 369600, Note Name: C#5
Note ON: Time 369600, Note Name: B4, Velocity: 93
Note ON: Time 369600, Note Name: B5, Velocity: 106
Note OFF: Time 369840, Note Name: B5
Note OFF: Time 369840, Note Name: B4
Note ON: Time 369840, Note Name: A#4, Velocity: 75
Note ON: Time 369840, Note Name: A#5, Velocity: 90
Note OFF: Time 370080, Note Name: A#5
Note OFF: Time 370080, Note Name: A#4
Note ON: Time 370080, Note Name: G#4, Velocity: 80
Note ON: Time 370080, Note Name: G#5, Velocity: 95
Note OFF: Time 370320, Note Name: G#5
Note OFF: Time 370320, Note Name: G#4
Note ON: Time 370320, Note Name: F#4, Velocity: 74
Note ON: Time 370320, Note Name: F#5, Velocity: 89
Note OFF: Time 370560, Note Name: F#5
Note OFF: Time 370560, Note Name: F#4
Note ON: Time 370560, Note Name: D#5, Velocity: 97
Note ON: Time 370560, Note Name: D#4, Velocity: 82
Note OFF: Time 370800, Note Name: D#4
Note OFF: Time 370800, Note Name: D#5
Note ON: Time 370800, Note Name: C#4, Velocity: 72
Note ON: Time 370800, Note Name: C#5, Velocity: 86
Note OFF: Time 371040, Note Name: C#5
Note OFF: Time 371040, Note Name: C#4
Note ON: Time 371040, Note Name: B3, Velocity: 75
Note ON: Time 371040, Note Name: B4, Velocity: 90
Note OFF: Time 371280, Note Name: B4
Note OFF: Time 371280, Note Name: B3
Note ON: Time 371280, Note Name: A#3, Velocity: 70
Note ON: Time 371280, Note Name: A#4, Velocity: 83
Note OFF: Time 371520, Note Name: A#4
Note OFF: Time 371520, Note Name: A#3
Note ON: Time 371520, Note Name: G#4, Velocity: 88
Note ON: Time 371520, Note Name: G#3, Velocity: 73
Note OFF: Time 371760, Note Name: G#3
Note OFF: Time 371760, Note Name: G#4
Note ON: Time 371760, Note Name: F#4, Velocity: 76
Note ON: Time 371760, Note Name: F#3, Velocity: 63
Note OFF: Time 372000, Note Name: F#3
Note OFF: Time 372000, Note Name: F#4
Note ON: Time 372000, Note Name: D#4, Velocity: 81
Note ON: Time 372000, Note Name: D#3, Velocity: 68
Note OFF: Time 372240, Note Name: D#3
Note OFF: Time 372240, Note Name: D#4
Note ON: Time 372240, Note Name: C#4, Velocity: 74
Note ON: Time 372240, Note Name: C#3, Velocity: 62
Note OFF: Time 372480, Note Name: C#3
Note OFF: Time 372480, Note Name: C#4
Note ON: Time 372480, Note Name: F4, Velocity: 77
Note OFF: Time 372720, Note Name: F4
Note ON: Time 372720, Note Name: C#4, Velocity: 67
Note OFF: Time 372960, Note Name: C#4
Note ON: Time 372960, Note Name: G#4, Velocity: 73
Note OFF: Time 373200, Note Name: G#4
Note ON: Time 373200, Note Name: C#4, Velocity: 67
Note OFF: Time 373440, Note Name: C#4
Note ON: Time 373440, Note Name: C#5, Velocity: 71
Note OFF: Time 373680, Note Name: C#5
Note ON: Time 373680, Note Name: C#4, Velocity: 59
Note OFF: Time 373920, Note Name: C#4
Note ON: Time 373920, Note Name: F5, Velocity: 68
Note OFF: Time 374160, Note Name: F5
Note ON: Time 374160, Note Name: C#4, Velocity: 56
Note OFF: Time 374400, Note Name: C#4
Note ON: Time 374400, Note Name: G#5, Velocity: 62
Note OFF: Time 374640, Note Name: G#5
Note ON: Time 374640, Note Name: C#4, Velocity: 49
Note OFF: Time 374880, Note Name: C#4
Note ON: Time 374880, Note Name: C#6, Velocity: 54
Note OFF: Time 375120, Note Name: C#6
Note ON: Time 375120, Note Name: C#4, Velocity: 45
Note OFF: Time 375360, Note Name: C#4
Note ON: Time 375360, Note Name: C#6, Velocity: 52
Note OFF: Time 375600, Note Name: C#6
Note ON: Time 375600, Note Name: C#4, Velocity: 41
Note OFF: Time 375840, Note Name: C#4
Note ON: Time 375840, Note Name: C#6, Velocity: 48
Note OFF: Time 376080, Note Name: C#6
Note ON: Time 376680, Note Name: B5, Velocity: 91
Note ON: Time 376680, Note Name: F#5, Velocity: 91
Note ON: Time 376680, Note Name: D6, Velocity: 111
Note ON: Time 376680, Note Name: D5, Velocity: 91
Note OFF: Time 376799, Note Name: D5
Note OFF: Time 376799, Note Name: B5
Note OFF: Time 376799, Note Name: F#5
Note OFF: Time 376799, Note Name: D6
Note ON: Time 376800, Note Name: F#5, Velocity: 82
Note ON: Time 376800, Note Name: D6, Velocity: 99
Note ON: Time 376800, Note Name: D5, Velocity: 82
Note ON: Time 376800, Note Name: B5, Velocity: 82
Note OFF: Time 377040, Note Name: B5
Note OFF: Time 377040, Note Name: F#5
Note OFF: Time 377040, Note Name: D6
Note OFF: Time 377040, Note Name: D5
Note ON: Time 377040, Note Name: B5, Velocity: 84
Note ON: Time 377040, Note Name: E6, Velocity: 105
Note ON: Time 377040, Note Name: D5, Velocity: 84
Note ON: Time 377040, Note Name: F#5, Velocity: 84
Note OFF: Time 377085, Note Name: F#5
Note OFF: Time 377085, Note Name: B5
Note OFF: Time 377085, Note Name: E6
Note OFF: Time 377085, Note Name: D5
Note ON: Time 377160, Note Name: F#5, Velocity: 86
Note ON: Time 377160, Note Name: D5, Velocity: 86
Note ON: Time 377160, Note Name: B5, Velocity: 86
Note ON: Time 377160, Note Name: D6, Velocity: 102
Note OFF: Time 377205, Note Name: D6
Note OFF: Time 377205, Note Name: F#5
Note OFF: Time 377205, Note Name: D5
Note OFF: Time 377205, Note Name: B5
Note ON: Time 377280, Note Name: D6, Velocity: 111
Note ON: Time 377280, Note Name: F#5, Velocity: 91
Note ON: Time 377280, Note Name: B5, Velocity: 91
Note ON: Time 377280, Note Name: D5, Velocity: 91
Note OFF: Time 377400, Note Name: D5
Note OFF: Time 377400, Note Name: D6
Note OFF: Time 377400, Note Name: F#5
Note OFF: Time 377400, Note Name: B5
Note ON: Time 377520, Note Name: B5, Velocity: 101
Note ON: Time 377520, Note Name: D5, Velocity: 84
Note ON: Time 377520, Note Name: F#5, Velocity: 84
Note ON: Time 377520, Note Name: B4, Velocity: 84
Note OFF: Time 377640, Note Name: B4
Note OFF: Time 377640, Note Name: B5
Note OFF: Time 377640, Note Name: D5
Note OFF: Time 377640, Note Name: F#5
Note ON: Time 378480, Note Name: F#5, Velocity: 33
Note ON: Time 378480, Note Name: B5, Velocity: 33
Note ON: Time 378480, Note Name: D5, Velocity: 33
Note ON: Time 378480, Note Name: D6, Velocity: 39
Note OFF: Time 378600, Note Name: D6
Note OFF: Time 378600, Note Name: F#5
Note OFF: Time 378600, Note Name: B5
Note OFF: Time 378600, Note Name: D5
Note ON: Time 378960, Note Name: D6, Velocity: 45
Note ON: Time 378960, Note Name: F#5, Velocity: 37
Note ON: Time 378960, Note Name: B5, Velocity: 37
Note ON: Time 378960, Note Name: D5, Velocity: 37
Note OFF: Time 379080, Note Name: D5
Note OFF: Time 379080, Note Name: D6
Note OFF: Time 379080, Note Name: F#5
Note OFF: Time 379080, Note Name: B5
Note ON: Time 379440, Note Name: B5, Velocity: 42
Note ON: Time 379440, Note Name: D6, Velocity: 50
Note ON: Time 379440, Note Name: G5, Velocity: 42
Note ON: Time 379440, Note Name: D5, Velocity: 42
Note OFF: Time 379560, Note Name: D5
Note OFF: Time 379560, Note Name: B5
Note OFF: Time 379560, Note Name: D6
Note OFF: Time 379560, Note Name: G5
Note ON: Time 379920, Note Name: D6, Velocity: 54
Note ON: Time 379920, Note Name: B5, Velocity: 46
Note ON: Time 379920, Note Name: G5, Velocity: 46
Note ON: Time 379920, Note Name: D5, Velocity: 46
Note OFF: Time 380040, Note Name: D5
Note OFF: Time 380040, Note Name: D6
Note OFF: Time 380040, Note Name: B5
Note OFF: Time 380040, Note Name: G5
Note ON: Time 380400, Note Name: B5, Velocity: 46
Note ON: Time 380400, Note Name: D5, Velocity: 46
Note ON: Time 380400, Note Name: G5, Velocity: 46
Note ON: Time 380400, Note Name: D6, Velocity: 55
Note OFF: Time 380520, Note Name: D6
Note OFF: Time 380520, Note Name: B5
Note OFF: Time 380520, Note Name: D5
Note OFF: Time 380520, Note Name: G5
Note ON: Time 380880, Note Name: G5, Velocity: 51
Note ON: Time 380880, Note Name: D5, Velocity: 51
Note ON: Time 380880, Note Name: D6, Velocity: 60
Note ON: Time 380880, Note Name: B5, Velocity: 51
Note OFF: Time 381000, Note Name: B5
Note OFF: Time 381000, Note Name: G5
Note OFF: Time 381000, Note Name: D5
Note OFF: Time 381000, Note Name: D6
Note ON: Time 381360, Note Name: C6, Velocity: 50
Note ON: Time 381360, Note Name: D#5, Velocity: 50
Note ON: Time 381360, Note Name: G5, Velocity: 50
Note ON: Time 381360, Note Name: D#6, Velocity: 60
Note OFF: Time 381480, Note Name: D#6
Note OFF: Time 381480, Note Name: C6
Note OFF: Time 381480, Note Name: D#5
Note OFF: Time 381480, Note Name: G5
Note ON: Time 381840, Note Name: G5, Velocity: 55
Note ON: Time 381840, Note Name: D#5, Velocity: 55
Note ON: Time 381840, Note Name: D#6, Velocity: 65
Note ON: Time 381840, Note Name: C6, Velocity: 55
Note OFF: Time 381960, Note Name: C6
Note OFF: Time 381960, Note Name: G5
Note OFF: Time 381960, Note Name: D#5
Note OFF: Time 381960, Note Name: D#6
Note ON: Time 382320, Note Name: D#6, Velocity: 65
Note ON: Time 382320, Note Name: C6, Velocity: 55
Note ON: Time 382320, Note Name: D#5, Velocity: 55
Note ON: Time 382320, Note Name: G5, Velocity: 55
Note OFF: Time 382440, Note Name: G5
Note OFF: Time 382440, Note Name: D#6
Note OFF: Time 382440, Note Name: C6
Note OFF: Time 382440, Note Name: D#5
Note ON: Time 382800, Note Name: C6, Velocity: 60
Note ON: Time 382800, Note Name: G5, Velocity: 60
Note ON: Time 382800, Note Name: D#5, Velocity: 60
Note ON: Time 382800, Note Name: D#6, Velocity: 71
Note OFF: Time 382920, Note Name: D#6
Note OFF: Time 382920, Note Name: C6
Note OFF: Time 382920, Note Name: G5
Note OFF: Time 382920, Note Name: D#5
Note ON: Time 383280, Note Name: D#5, Velocity: 59
Note ON: Time 383280, Note Name: D#6, Velocity: 70
Note ON: Time 383280, Note Name: C6, Velocity: 59
Note ON: Time 383280, Note Name: A5, Velocity: 59
Note OFF: Time 383400, Note Name: A5
Note OFF: Time 383400, Note Name: D#5
Note OFF: Time 383400, Note Name: D#6
Note OFF: Time 383400, Note Name: C6
Note ON: Time 383760, Note Name: D#5, Velocity: 64
Note ON: Time 383760, Note Name: C6, Velocity: 65
Note ON: Time 383760, Note Name: A5, Velocity: 65
Note ON: Time 383760, Note Name: D#6, Velocity: 76
Note OFF: Time 383880, Note Name: D#6
Note OFF: Time 383880, Note Name: D#5
Note OFF: Time 383880, Note Name: C6
Note OFF: Time 383880, Note Name: A5
Note ON: Time 384240, Note Name: D#6, Velocity: 75
Note ON: Time 384240, Note Name: D#5, Velocity: 63
Note ON: Time 384240, Note Name: A5, Velocity: 63
Note ON: Time 384240, Note Name: C6, Velocity: 63
Note OFF: Time 384360, Note Name: C6
Note OFF: Time 384360, Note Name: D#6
Note OFF: Time 384360, Note Name: D#5
Note OFF: Time 384360, Note Name: A5
Note ON: Time 384720, Note Name: A5, Velocity: 69
Note ON: Time 384720, Note Name: D#6, Velocity: 69
Note ON: Time 384720, Note Name: C6, Velocity: 69
Note ON: Time 384720, Note Name: A6, Velocity: 81
Note OFF: Time 384840, Note Name: A6
Note OFF: Time 384840, Note Name: A5
Note OFF: Time 384840, Note Name: D#6
Note OFF: Time 384840, Note Name: C6
Note ON: Time 385200, Note Name: C6, Velocity: 68
Note ON: Time 385200, Note Name: C7, Velocity: 80
Note ON: Time 385200, Note Name: D#6, Velocity: 68
Note ON: Time 385200, Note Name: A6, Velocity: 68
Note OFF: Time 385320, Note Name: A6
Note OFF: Time 385320, Note Name: C6
Note OFF: Time 385320, Note Name: C7
Note OFF: Time 385320, Note Name: D#6
Note ON: Time 385680, Note Name: D#6, Velocity: 74
Note ON: Time 385680, Note Name: C7, Velocity: 74
Note ON: Time 385680, Note Name: D#7, Velocity: 87
Note ON: Time 385680, Note Name: A6, Velocity: 74
Note OFF: Time 385800, Note Name: A6
Note OFF: Time 385800, Note Name: D#6
Note OFF: Time 385800, Note Name: C7
Note OFF: Time 385800, Note Name: D#7
Note ON: Time 385920, Note Name: D#6, Velocity: 75
Note ON: Time 385920, Note Name: D#7, Velocity: 88
Note ON: Time 385920, Note Name: A6, Velocity: 75
Note ON: Time 385920, Note Name: C7, Velocity: 75
Note OFF: Time 386160, Note Name: C7
Note OFF: Time 386160, Note Name: D#6
Note OFF: Time 386160, Note Name: D#7
Note OFF: Time 386160, Note Name: A6
Note ON: Time 386160, Note Name: C6, Velocity: 57
Note ON: Time 386160, Note Name: D#6, Velocity: 57
Note OFF: Time 386280, Note Name: D#6
Note OFF: Time 386280, Note Name: C6
Note ON: Time 386280, Note Name: B5, Velocity: 57
Note ON: Time 386280, Note Name: D6, Velocity: 57
Note OFF: Time 386400, Note Name: D6
Note OFF: Time 386400, Note Name: B5
Note ON: Time 386400, Note Name: C6, Velocity: 63
Note ON: Time 386400, Note Name: D#6, Velocity: 63
Note OFF: Time 386640, Note Name: D#6
Note OFF: Time 386640, Note Name: C6
Note ON: Time 386640, Note Name: A4, Velocity: 52
Note ON: Time 386640, Note Name: C5, Velocity: 52
Note OFF: Time 386760, Note Name: C5
Note OFF: Time 386760, Note Name: A4
Note ON: Time 386760, Note Name: C#5, Velocity: 52
Note ON: Time 386760, Note Name: A#4, Velocity: 52
Note OFF: Time 386880, Note Name: A#4
Note OFF: Time 386880, Note Name: C#5
Note ON: Time 386880, Note Name: C5, Velocity: 58
Note ON: Time 386880, Note Name: A4, Velocity: 58
Note OFF: Time 387120, Note Name: A4
Note OFF: Time 387120, Note Name: C5
Note ON: Time 387120, Note Name: C5, Velocity: 47
Note ON: Time 387120, Note Name: D#5, Velocity: 47
Note OFF: Time 387240, Note Name: D#5
Note OFF: Time 387240, Note Name: C5
Note ON: Time 387240, Note Name: D5, Velocity: 47
Note ON: Time 387240, Note Name: B4, Velocity: 47
Note OFF: Time 387360, Note Name: B4
Note OFF: Time 387360, Note Name: D5
Note ON: Time 387360, Note Name: D#5, Velocity: 56
Note ON: Time 387360, Note Name: C5, Velocity: 56
Note OFF: Time 387600, Note Name: C5
Note OFF: Time 387600, Note Name: D#5
Note ON: Time 387600, Note Name: A5, Velocity: 47
Note OFF: Time 387720, Note Name: A5
Note ON: Time 387720, Note Name: C6, Velocity: 47
Note OFF: Time 387840, Note Name: C6
Note ON: Time 387840, Note Name: D#6, Velocity: 57
Note OFF: Time 387960, Note Name: D#6
Note ON: Time 387960, Note Name: F6, Velocity: 48
Note OFF: Time 388080, Note Name: F6
Note ON: Time 388080, Note Name: D#6, Velocity: 49
Note OFF: Time 388200, Note Name: D#6
Note ON: Time 388200, Note Name: D6, Velocity: 50
Note OFF: Time 388320, Note Name: D6
Note ON: Time 388320, Note Name: D#6, Velocity: 65
Note OFF: Time 388440, Note Name: D#6
Note ON: Time 388440, Note Name: F6, Velocity: 57
Note OFF: Time 388560, Note Name: F6
Note ON: Time 388560, Note Name: G6, Velocity: 66
Note OFF: Time 388680, Note Name: G6
Note ON: Time 388680, Note Name: D#6, Velocity: 58
Note OFF: Time 388800, Note Name: D#6
Note ON: Time 388800, Note Name: C6, Velocity: 69
Note OFF: Time 388920, Note Name: C6
Note ON: Time 388920, Note Name: D6, Velocity: 56
Note OFF: Time 389040, Note Name: D6
Note ON: Time 389040, Note Name: D#6, Velocity: 66
Note OFF: Time 389160, Note Name: D#6
Note ON: Time 389160, Note Name: C6, Velocity: 54
Note OFF: Time 389280, Note Name: C6
Note ON: Time 389280, Note Name: A5, Velocity: 66
Note OFF: Time 389400, Note Name: A5
Note ON: Time 389400, Note Name: A#5, Velocity: 53
Note OFF: Time 389520, Note Name: A#5
Note ON: Time 389520, Note Name: C6, Velocity: 61
Note OFF: Time 389640, Note Name: C6
Note ON: Time 389640, Note Name: A5, Velocity: 53
Note OFF: Time 389760, Note Name: A5
Note ON: Time 389760, Note Name: D#5, Velocity: 47
Note OFF: Time 389880, Note Name: D#5
Note ON: Time 389880, Note Name: F5, Velocity: 47
Note OFF: Time 390000, Note Name: F5
Note ON: Time 390000, Note Name: G5, Velocity: 58
Note OFF: Time 390120, Note Name: G5
Note ON: Time 390120, Note Name: D#5, Velocity: 47
Note OFF: Time 390240, Note Name: D#5
Note ON: Time 390240, Note Name: C5, Velocity: 47
Note OFF: Time 390360, Note Name: C5
Note ON: Time 390360, Note Name: D5, Velocity: 47
Note OFF: Time 390480, Note Name: D5
Note ON: Time 390480, Note Name: D#5, Velocity: 53
Note OFF: Time 390600, Note Name: D#5
Note ON: Time 390600, Note Name: C5, Velocity: 47
Note OFF: Time 390720, Note Name: C5
Note ON: Time 390720, Note Name: A4, Velocity: 47
Note OFF: Time 390840, Note Name: A4
Note ON: Time 390840, Note Name: A#4, Velocity: 47
Note OFF: Time 390960, Note Name: A#4
Note ON: Time 390960, Note Name: C5, Velocity: 52
Note OFF: Time 391080, Note Name: C5
Note ON: Time 391080, Note Name: A4, Velocity: 47
Note OFF: Time 391200, Note Name: A4
Note ON: Time 391200, Note Name: F4, Velocity: 47
Note ON: Time 391200, Note Name: D#4, Velocity: 47
Note ON: Time 391200, Note Name: C4, Velocity: 47
Note OFF: Time 391440, Note Name: C4
Note OFF: Time 391440, Note Name: D#4
Note OFF: Time 391440, Note Name: F4
Note ON: Time 391680, Note Name: D6, Velocity: 57
Note OFF: Time 391800, Note Name: D6
Note ON: Time 391800, Note Name: D#6, Velocity: 48
Note OFF: Time 391920, Note Name: D#6
Note ON: Time 391920, Note Name: D6, Velocity: 49
Note OFF: Time 392040, Note Name: D6
Note ON: Time 392040, Note Name: C6, Velocity: 50
Note OFF: Time 392160, Note Name: C6
Note ON: Time 392160, Note Name: D6, Velocity: 65
Note OFF: Time 392280, Note Name: D6
Note ON: Time 392280, Note Name: D#6, Velocity: 57
Note OFF: Time 392400, Note Name: D#6
Note ON: Time 392400, Note Name: F6, Velocity: 66
Note OFF: Time 392520, Note Name: F6
Note ON: Time 392520, Note Name: D6, Velocity: 58
Note OFF: Time 392640, Note Name: D6
Note ON: Time 392640, Note Name: A#5, Velocity: 69
Note OFF: Time 392760, Note Name: A#5
Note ON: Time 392760, Note Name: C6, Velocity: 56
Note OFF: Time 392880, Note Name: C6
Note ON: Time 392880, Note Name: D6, Velocity: 66
Note OFF: Time 393000, Note Name: D6
Note ON: Time 393000, Note Name: A#5, Velocity: 54
Note OFF: Time 393120, Note Name: A#5
Note ON: Time 393120, Note Name: F5, Velocity: 66
Note OFF: Time 393240, Note Name: F5
Note ON: Time 393240, Note Name: A5, Velocity: 53
Note OFF: Time 393360, Note Name: A5
Note ON: Time 393360, Note Name: A#5, Velocity: 61
Note OFF: Time 393480, Note Name: A#5
Note ON: Time 393480, Note Name: F5, Velocity: 53
Note OFF: Time 393600, Note Name: F5
Note ON: Time 393600, Note Name: D5, Velocity: 47
Note OFF: Time 393720, Note Name: D5
Note ON: Time 393720, Note Name: D#5, Velocity: 47
Note OFF: Time 393840, Note Name: D#5
Note ON: Time 393840, Note Name: F5, Velocity: 58
Note OFF: Time 393960, Note Name: F5
Note ON: Time 393960, Note Name: D5, Velocity: 47
Note OFF: Time 394080, Note Name: D5
Note ON: Time 394080, Note Name: A#4, Velocity: 47
Note OFF: Time 394200, Note Name: A#4
Note ON: Time 394200, Note Name: C5, Velocity: 47
Note OFF: Time 394320, Note Name: C5
Note ON: Time 394320, Note Name: D5, Velocity: 53
Note OFF: Time 394440, Note Name: D5
Note ON: Time 394440, Note Name: A#4, Velocity: 47
Note OFF: Time 394560, Note Name: A#4
Note ON: Time 394560, Note Name: F4, Velocity: 47
Note OFF: Time 394680, Note Name: F4
Note ON: Time 394680, Note Name: A4, Velocity: 47
Note OFF: Time 394800, Note Name: A4
Note ON: Time 394800, Note Name: A#4, Velocity: 52
Note OFF: Time 394920, Note Name: A#4
Note ON: Time 394920, Note Name: D4, Velocity: 47
Note OFF: Time 395040, Note Name: D4
Note ON: Time 395040, Note Name: A#4, Velocity: 40
Note OFF: Time 395160, Note Name: A#4
Note ON: Time 395160, Note Name: C5, Velocity: 40
Note OFF: Time 395280, Note Name: C5
Note ON: Time 395280, Note Name: D5, Velocity: 45
Note OFF: Time 395398, Note Name: D5
Note ON: Time 395400, Note Name: A#4, Velocity: 40
Note OFF: Time 395520, Note Name: A#4
Note ON: Time 395520, Note Name: F4, Velocity: 40
Note ON: Time 395520, Note Name: C5, Velocity: 46
Note ON: Time 395520, Note Name: A4, Velocity: 40
Note OFF: Time 395760, Note Name: A4
Note OFF: Time 395760, Note Name: C5
Note OFF: Time 395760, Note Name: F4
Note ON: Time 395760, Note Name: G6, Velocity: 52
Note OFF: Time 395880, Note Name: G6
Note ON: Time 395880, Note Name: F6, Velocity: 47
Note OFF: Time 396000, Note Name: F6
Note ON: Time 396000, Note Name: G6, Velocity: 40
Note OFF: Time 396120, Note Name: G6
Note ON: Time 396120, Note Name: F6, Velocity: 40
Note OFF: Time 396240, Note Name: F6
Note ON: Time 396240, Note Name: D#6, Velocity: 45
Note OFF: Time 396360, Note Name: D#6
Note ON: Time 396360, Note Name: G6, Velocity: 40
Note OFF: Time 396480, Note Name: G6
Note ON: Time 396480, Note Name: D#6, Velocity: 52
Note OFF: Time 396600, Note Name: D#6
Note ON: Time 396600, Note Name: D6, Velocity: 42
Note OFF: Time 396720, Note Name: D6
Note ON: Time 396720, Note Name: C6, Velocity: 49
Note OFF: Time 396840, Note Name: C6
Note ON: Time 396840, Note Name: D#6, Velocity: 43
Note OFF: Time 396960, Note Name: D#6
Note ON: Time 396960, Note Name: C6, Velocity: 48
Note OFF: Time 397080, Note Name: C6
Note ON: Time 397080, Note Name: A#5, Velocity: 40
Note OFF: Time 397200, Note Name: A#5
Note ON: Time 397200, Note Name: A5, Velocity: 45
Note OFF: Time 397320, Note Name: A5
Note ON: Time 397320, Note Name: C6, Velocity: 40
Note OFF: Time 397440, Note Name: C6
Note ON: Time 397440, Note Name: F#5, Velocity: 52
Note OFF: Time 397560, Note Name: F#5
Note ON: Time 397560, Note Name: F5, Velocity: 42
Note OFF: Time 397680, Note Name: F5
Note ON: Time 397680, Note Name: D#5, Velocity: 49
Note OFF: Time 397800, Note Name: D#5
Note ON: Time 397800, Note Name: F#5, Velocity: 43
Note OFF: Time 397920, Note Name: F#5
Note ON: Time 397920, Note Name: D#5, Velocity: 48
Note OFF: Time 398040, Note Name: D#5
Note ON: Time 398040, Note Name: D5, Velocity: 40
Note OFF: Time 398160, Note Name: D5
Note ON: Time 398160, Note Name: C5, Velocity: 45
Note OFF: Time 398280, Note Name: C5
Note ON: Time 398280, Note Name: D#5, Velocity: 40
Note OFF: Time 398400, Note Name: D#5
Note ON: Time 398400, Note Name: C5, Velocity: 52
Note OFF: Time 398520, Note Name: C5
Note ON: Time 398520, Note Name: A#4, Velocity: 42
Note OFF: Time 398640, Note Name: A#4
Note ON: Time 398640, Note Name: A4, Velocity: 49
Note OFF: Time 398760, Note Name: A4
Note ON: Time 398760, Note Name: C5, Velocity: 43
Note OFF: Time 398880, Note Name: C5
Note ON: Time 398880, Note Name: D#4, Velocity: 48
Note OFF: Time 399000, Note Name: D#4
Note ON: Time 399000, Note Name: D4, Velocity: 40
Note OFF: Time 399120, Note Name: D4
Note ON: Time 399120, Note Name: C4, Velocity: 45
Note OFF: Time 399240, Note Name: C4
Note ON: Time 399240, Note Name: D#4, Velocity: 40
Note OFF: Time 399360, Note Name: D#4
Note ON: Time 399360, Note Name: F4, Velocity: 40
Note ON: Time 399360, Note Name: A#4, Velocity: 46
Note OFF: Time 399600, Note Name: A#4
Note OFF: Time 399600, Note Name: F4
Note ON: Time 399600, Note Name: F6, Velocity: 52
Note OFF: Time 399720, Note Name: F6
Note ON: Time 399720, Note Name: D#6, Velocity: 47
Note OFF: Time 399840, Note Name: D#6
Note ON: Time 399840, Note Name: F6, Velocity: 40
Note OFF: Time 399960, Note Name: F6
Note ON: Time 399960, Note Name: D#6, Velocity: 40
Note OFF: Time 400080, Note Name: D#6
Note ON: Time 400080, Note Name: D6, Velocity: 45
Note OFF: Time 400200, Note Name: D6
Note ON: Time 400200, Note Name: F6, Velocity: 40
Note OFF: Time 400320, Note Name: F6
Note ON: Time 400320, Note Name: D6, Velocity: 52
Note OFF: Time 400440, Note Name: D6
Note ON: Time 400440, Note Name: C6, Velocity: 42
Note OFF: Time 400560, Note Name: C6
Note ON: Time 400560, Note Name: A#5, Velocity: 49
Note OFF: Time 400680, Note Name: A#5
Note ON: Time 400680, Note Name: D6, Velocity: 43
Note OFF: Time 400800, Note Name: D6
Note ON: Time 400800, Note Name: F5, Velocity: 48
Note OFF: Time 400920, Note Name: F5
Note ON: Time 400920, Note Name: D#5, Velocity: 40
Note OFF: Time 401040, Note Name: D#5
Note ON: Time 401040, Note Name: D5, Velocity: 45
Note OFF: Time 401160, Note Name: D5
Note ON: Time 401160, Note Name: F5, Velocity: 40
Note OFF: Time 401280, Note Name: F5
Note ON: Time 401280, Note Name: A#5, Velocity: 52
Note OFF: Time 401400, Note Name: A#5
Note ON: Time 401400, Note Name: G5, Velocity: 42
Note OFF: Time 401520, Note Name: G5
Note ON: Time 401520, Note Name: F5, Velocity: 49
Note OFF: Time 401640, Note Name: F5
Note ON: Time 401640, Note Name: A#5, Velocity: 43
Note OFF: Time 401760, Note Name: A#5
Note ON: Time 401760, Note Name: D5, Velocity: 48
Note OFF: Time 401880, Note Name: D5
Note ON: Time 401880, Note Name: C5, Velocity: 40
Note OFF: Time 402000, Note Name: C5
Note ON: Time 402000, Note Name: A#4, Velocity: 45
Note OFF: Time 402120, Note Name: A#4
Note ON: Time 402120, Note Name: D5, Velocity: 40
Note OFF: Time 402240, Note Name: D5
Note ON: Time 402240, Note Name: D6, Velocity: 62
Note ON: Time 402240, Note Name: D5, Velocity: 62
Note OFF: Time 402360, Note Name: D6
Note ON: Time 402360, Note Name: C6, Velocity: 51
Note OFF: Time 402480, Note Name: C6
Note ON: Time 402480, Note Name: A#5, Velocity: 61
Note OFF: Time 402600, Note Name: A#5
Note ON: Time 402600, Note Name: D6, Velocity: 52
Note OFF: Time 402720, Note Name: D6
Note OFF: Time 402720, Note Name: D5
Note ON: Time 402720, Note Name: D#6, Velocity: 52
Note ON: Time 402720, Note Name: F#5, Velocity: 62
Note OFF: Time 402840, Note Name: D#6
Note ON: Time 402840, Note Name: D6, Velocity: 59
Note OFF: Time 402960, Note Name: D6
Note ON: Time 402960, Note Name: D#6, Velocity: 62
Note OFF: Time 403080, Note Name: D#6
Note ON: Time 403080, Note Name: F6, Velocity: 65
Note OFF: Time 403200, Note Name: F6
Note OFF: Time 403200, Note Name: F#5
Note ON: Time 403200, Note Name: F5, Velocity: 51
Note ON: Time 403200, Note Name: F6, Velocity: 51
Note OFF: Time 403440, Note Name: F6
Note OFF: Time 403440, Note Name: F5
Note ON: Time 404400, Note Name: C5, Velocity: 40
Note ON: Time 404400, Note Name: A4, Velocity: 34
Note OFF: Time 404640, Note Name: A4
Note OFF: Time 404640, Note Name: C5
Note ON: Time 404640, Note Name: D5, Velocity: 38
Note ON: Time 404640, Note Name: A#4, Velocity: 32
Note OFF: Time 404760, Note Name: A#4
Note OFF: Time 404760, Note Name: D5
Note ON: Time 404880, Note Name: A#6, Velocity: 47
Note OFF: Time 405000, Note Name: A#6
Note ON: Time 405000, Note Name: A6, Velocity: 44
Note OFF: Time 405120, Note Name: A6
Note ON: Time 405120, Note Name: A#6, Velocity: 47
Note OFF: Time 405360, Note Name: A#6
Note ON: Time 405360, Note Name: G6, Velocity: 39
Note ON: Time 405360, Note Name: A#5, Velocity: 33
Note ON: Time 405360, Note Name: G5, Velocity: 33
Note OFF: Time 405600, Note Name: G5
Note OFF: Time 405600, Note Name: A#5
Note OFF: Time 405600, Note Name: G6
Note ON: Time 405600, Note Name: A5, Velocity: 35
Note ON: Time 405600, Note Name: F6, Velocity: 42
Note ON: Time 405600, Note Name: F5, Velocity: 35
Note OFF: Time 405840, Note Name: F5
Note OFF: Time 405840, Note Name: F6
Note OFF: Time 405840, Note Name: A5
Note ON: Time 405840, Note Name: E6, Velocity: 40
Note ON: Time 405840, Note Name: G5, Velocity: 30
Note ON: Time 405840, Note Name: E5, Velocity: 30
Note OFF: Time 406080, Note Name: E5
Note OFF: Time 406080, Note Name: G5
Note OFF: Time 406080, Note Name: E6
Note ON: Time 406080, Note Name: G5, Velocity: 38
Note ON: Time 406080, Note Name: G6, Velocity: 45
Note ON: Time 406080, Note Name: A#5, Velocity: 38
Note OFF: Time 406320, Note Name: A#5
Note OFF: Time 406320, Note Name: G6
Note OFF: Time 406320, Note Name: G5
Note ON: Time 406320, Note Name: A5, Velocity: 30
Note ON: Time 406320, Note Name: F5, Velocity: 30
Note ON: Time 406320, Note Name: F6, Velocity: 36
Note OFF: Time 406560, Note Name: F6
Note OFF: Time 406560, Note Name: F5
Note OFF: Time 406560, Note Name: A5
Note ON: Time 406560, Note Name: A5, Velocity: 30
Note ON: Time 406560, Note Name: F6, Velocity: 36
Note OFF: Time 406800, Note Name: F6
Note OFF: Time 406800, Note Name: A5
Note ON: Time 406800, Note Name: A#4, Velocity: 38
Note ON: Time 406800, Note Name: F5, Velocity: 45
Note OFF: Time 406920, Note Name: F5
Note OFF: Time 406920, Note Name: A#4
Note ON: Time 406920, Note Name: D#5, Velocity: 40
Note ON: Time 406920, Note Name: C5, Velocity: 34
Note OFF: Time 407040, Note Name: C5
Note OFF: Time 407040, Note Name: D#5
Note ON: Time 407040, Note Name: D5, Velocity: 46
Note OFF: Time 407280, Note Name: D5
Note ON: Time 407280, Note Name: A#5, Velocity: 51
Note ON: Time 407280, Note Name: A#4, Velocity: 43
Note OFF: Time 407520, Note Name: A#5
Note ON: Time 407520, Note Name: G5, Velocity: 46
Note OFF: Time 407640, Note Name: G5
Note OFF: Time 407640, Note Name: A#4
Note ON: Time 407760, Note Name: D#5, Velocity: 43
Note ON: Time 407760, Note Name: D#6, Velocity: 51
Note OFF: Time 407880, Note Name: D#6
Note OFF: Time 407880, Note Name: D#5
Note ON: Time 407880, Note Name: G5, Velocity: 37
Note ON: Time 407880, Note Name: C6, Velocity: 44
Note OFF: Time 408000, Note Name: C6
Note OFF: Time 408000, Note Name: G5
Note ON: Time 408000, Note Name: A5, Velocity: 51
Note OFF: Time 408240, Note Name: A5
Note ON: Time 408240, Note Name: F5, Velocity: 47
Note ON: Time 408240, Note Name: F6, Velocity: 56
Note OFF: Time 408480, Note Name: F6
Note ON: Time 408480, Note Name: D6, Velocity: 53
Note OFF: Time 408600, Note Name: D6
Note OFF: Time 408600, Note Name: F5
Note ON: Time 408720, Note Name: A#5, Velocity: 52
Note OFF: Time 408840, Note Name: A#5
Note ON: Time 408840, Note Name: A5, Velocity: 45
Note OFF: Time 408960, Note Name: A5
Note ON: Time 408960, Note Name: A#5, Velocity: 52
Note OFF: Time 409200, Note Name: A#5
Note ON: Time 409200, Note Name: G5, Velocity: 37
Note ON: Time 409200, Note Name: G6, Velocity: 47
Note OFF: Time 409440, Note Name: G6
Note OFF: Time 409440, Note Name: G5
Note ON: Time 409440, Note Name: D#6, Velocity: 51
Note ON: Time 409440, Note Name: D#5, Velocity: 37
Note ON: Time 409440, Note Name: G5, Velocity: 37
Note OFF: Time 409680, Note Name: G5
Note OFF: Time 409680, Note Name: D#5
Note OFF: Time 409680, Note Name: D#6
Note ON: Time 409680, Note Name: D6, Velocity: 44
Note ON: Time 409680, Note Name: A5, Velocity: 37
Note ON: Time 409680, Note Name: D5, Velocity: 37
Note OFF: Time 409918, Note Name: D5
Note OFF: Time 409918, Note Name: A5
Note OFF: Time 409918, Note Name: D6
Note ON: Time 409920, Note Name: D5, Velocity: 36
Note ON: Time 409920, Note Name: A5, Velocity: 44
Note ON: Time 409920, Note Name: D6, Velocity: 44
Note OFF: Time 410160, Note Name: A5
Note OFF: Time 410160, Note Name: D5
Note ON: Time 410160, Note Name: C6, Velocity: 50
Note OFF: Time 410280, Note Name: C6
Note ON: Time 410280, Note Name: A#5, Velocity: 44
Note OFF: Time 410398, Note Name: A#5
Note ON: Time 410400, Note Name: A#5, Velocity: 49
Note OFF: Time 410640, Note Name: A#5
Note OFF: Time 410640, Note Name: D6
Note ON: Time 410640, Note Name: G6, Velocity: 55
Note ON: Time 410640, Note Name: A#5, Velocity: 46
Note ON: Time 410640, Note Name: C#6, Velocity: 46
Note OFF: Time 410880, Note Name: C#6
Note OFF: Time 410880, Note Name: G6
Note ON: Time 410880, Note Name: C6, Velocity: 44
Note OFF: Time 411120, Note Name: A#5
Note ON: Time 411120, Note Name: A#5, Velocity: 50
Note OFF: Time 411240, Note Name: A#5
Note ON: Time 411240, Note Name: G#5, Velocity: 44
Note OFF: Time 411358, Note Name: G#5
Note ON: Time 411360, Note Name: G#5, Velocity: 49
Note OFF: Time 411600, Note Name: G#5
Note OFF: Time 411600, Note Name: C6
Note ON: Time 411600, Note Name: G#5, Velocity: 55
Note ON: Time 411600, Note Name: F6, Velocity: 55
Note ON: Time 411600, Note Name: B5, Velocity: 55
Note OFF: Time 411840, Note Name: B5
Note OFF: Time 411840, Note Name: F6
Note ON: Time 411840, Note Name: A#5, Velocity: 44
Note OFF: Time 412080, Note Name: G#5
Note ON: Time 412080, Note Name: G#5, Velocity: 50
Note OFF: Time 412200, Note Name: G#5
Note ON: Time 412200, Note Name: G5, Velocity: 44
Note OFF: Time 412318, Note Name: G5
Note ON: Time 412320, Note Name: G5, Velocity: 49
Note OFF: Time 412560, Note Name: G5
Note OFF: Time 412560, Note Name: A#5
Note ON: Time 412560, Note Name: G5, Velocity: 46
Note ON: Time 412560, Note Name: E6, Velocity: 55
Note ON: Time 412560, Note Name: A#5, Velocity: 46
Note OFF: Time 412800, Note Name: A#5
Note OFF: Time 412800, Note Name: E6
Note ON: Time 412800, Note Name: A5, Velocity: 44
Note OFF: Time 413040, Note Name: G5
Note ON: Time 413040, Note Name: G5, Velocity: 50
Note OFF: Time 413160, Note Name: G5
Note ON: Time 413160, Note Name: F5, Velocity: 44
Note OFF: Time 413278, Note Name: F5
Note ON: Time 413280, Note Name: F5, Velocity: 49
Note OFF: Time 413520, Note Name: F5
Note OFF: Time 413520, Note Name: A5
Note ON: Time 413520, Note Name: G#5, Velocity: 46
Note ON: Time 413520, Note Name: D6, Velocity: 55
Note ON: Time 413520, Note Name: F5, Velocity: 46
Note OFF: Time 413760, Note Name: F5
Note OFF: Time 413760, Note Name: D6
Note OFF: Time 413760, Note Name: G#5
Note ON: Time 413760, Note Name: G#5, Velocity: 55
Note ON: Time 413760, Note Name: F5, Velocity: 46
Note OFF: Time 413880, Note Name: G#5
Note ON: Time 413880, Note Name: G5, Velocity: 46
Note OFF: Time 414000, Note Name: F5
Note ON: Time 414000, Note Name: D#5, Velocity: 46
Note OFF: Time 414120, Note Name: G5
Note ON: Time 414120, Note Name: C6, Velocity: 48
Note OFF: Time 414240, Note Name: C6
Note OFF: Time 414240, Note Name: D#5
Note ON: Time 414240, Note Name: F#5, Velocity: 55
Note ON: Time 414240, Note Name: D#5, Velocity: 46
Note OFF: Time 414360, Note Name: F#5
Note ON: Time 414360, Note Name: F5, Velocity: 47
Note OFF: Time 414480, Note Name: D#5
Note ON: Time 414480, Note Name: D5, Velocity: 46
Note OFF: Time 414600, Note Name: F5
Note ON: Time 414600, Note Name: A#5, Velocity: 49
Note OFF: Time 414720, Note Name: A#5
Note OFF: Time 414720, Note Name: D5
Note ON: Time 414720, Note Name: F5, Velocity: 56
Note OFF: Time 414840, Note Name: F5
Note ON: Time 414840, Note Name: F6, Velocity: 49
Note OFF: Time 414960, Note Name: F6
Note ON: Time 414960, Note Name: E6, Velocity: 50
Note OFF: Time 415080, Note Name: E6
Note ON: Time 415080, Note Name: D#6, Velocity: 50
Note OFF: Time 415200, Note Name: D#6
Note ON: Time 415200, Note Name: C6, Velocity: 51
Note OFF: Time 415320, Note Name: C6
Note ON: Time 415320, Note Name: A5, Velocity: 52
Note OFF: Time 415440, Note Name: A5
Note ON: Time 415440, Note Name: F#5, Velocity: 53
Note OFF: Time 415560, Note Name: F#5
Note ON: Time 415560, Note Name: F5, Velocity: 54
Note OFF: Time 415680, Note Name: F5
Note ON: Time 415680, Note Name: E5, Velocity: 55
Note OFF: Time 415800, Note Name: E5
Note ON: Time 415800, Note Name: D#5, Velocity: 56
Note OFF: Time 415920, Note Name: D#5
Note ON: Time 415920, Note Name: C5, Velocity: 56
Note OFF: Time 416040, Note Name: C5
Note ON: Time 416040, Note Name: A4, Velocity: 57
Note OFF: Time 416160, Note Name: A4
Note ON: Time 416160, Note Name: F#4, Velocity: 61
Note ON: Time 416160, Note Name: A#4, Velocity: 51
Note OFF: Time 416280, Note Name: F#4
Note ON: Time 416280, Note Name: F4, Velocity: 47
Note OFF: Time 416400, Note Name: F4
Note OFF: Time 416400, Note Name: A#4
Note ON: Time 416400, Note Name: G5, Velocity: 58
Note ON: Time 416400, Note Name: A#4, Velocity: 49
Note OFF: Time 416520, Note Name: G5
Note ON: Time 416520, Note Name: F5, Velocity: 47
Note OFF: Time 416640, Note Name: F5
Note OFF: Time 416640, Note Name: A#4
Note ON: Time 416640, Note Name: F5, Velocity: 56
Note OFF: Time 416760, Note Name: F5
Note ON: Time 416760, Note Name: F6, Velocity: 50
Note OFF: Time 416880, Note Name: F6
Note ON: Time 416880, Note Name: E6, Velocity: 51
Note OFF: Time 417000, Note Name: E6
Note ON: Time 417000, Note Name: D#6, Velocity: 52
Note OFF: Time 417120, Note Name: D#6
Note ON: Time 417120, Note Name: C6, Velocity: 53
Note OFF: Time 417240, Note Name: C6
Note ON: Time 417240, Note Name: A5, Velocity: 54
Note OFF: Time 417360, Note Name: A5
Note ON: Time 417360, Note Name: F#5, Velocity: 55
Note OFF: Time 417480, Note Name: F#5
Note ON: Time 417480, Note Name: F5, Velocity: 57
Note OFF: Time 417600, Note Name: F5
Note ON: Time 417600, Note Name: E5, Velocity: 58
Note OFF: Time 417720, Note Name: E5
Note ON: Time 417720, Note Name: D#5, Velocity: 59
Note OFF: Time 417840, Note Name: D#5
Note ON: Time 417840, Note Name: C5, Velocity: 60
Note OFF: Time 417960, Note Name: C5
Note ON: Time 417960, Note Name: A4, Velocity: 61
Note OFF: Time 418080, Note Name: A4
Note ON: Time 418080, Note Name: F#4, Velocity: 64
Note ON: Time 418080, Note Name: A#4, Velocity: 64
Note OFF: Time 418200, Note Name: F#4
Note ON: Time 418200, Note Name: F4, Velocity: 47
Note OFF: Time 418320, Note Name: F4
Note OFF: Time 418320, Note Name: A#4
Note ON: Time 418320, Note Name: A#4, Velocity: 49
Note ON: Time 418320, Note Name: G5, Velocity: 58
Note OFF: Time 418440, Note Name: G5
Note ON: Time 418440, Note Name: F5, Velocity: 47
Note OFF: Time 418560, Note Name: F5
Note OFF: Time 418560, Note Name: A#4
Note ON: Time 418560, Note Name: F5, Velocity: 52
Note OFF: Time 418680, Note Name: F5
Note ON: Time 418680, Note Name: D5, Velocity: 45
Note ON: Time 418680, Note Name: A#5, Velocity: 54
Note OFF: Time 418800, Note Name: A#5
Note OFF: Time 418800, Note Name: D5
Note ON: Time 418800, Note Name: F5, Velocity: 49
Note ON: Time 418800, Note Name: D6, Velocity: 58
Note OFF: Time 418920, Note Name: D6
Note OFF: Time 418920, Note Name: F5
Note ON: Time 418920, Note Name: C6, Velocity: 52
Note ON: Time 418920, Note Name: D#5, Velocity: 44
Note OFF: Time 419040, Note Name: D#5
Note OFF: Time 419040, Note Name: C6
Note ON: Time 419040, Note Name: A#5, Velocity: 58
Note ON: Time 419040, Note Name: D5, Velocity: 58
Note OFF: Time 419160, Note Name: D5
Note ON: Time 419160, Note Name: F#5, Velocity: 50
Note OFF: Time 419280, Note Name: F#5
Note ON: Time 419280, Note Name: G5, Velocity: 55
Note OFF: Time 419400, Note Name: G5
Note ON: Time 419400, Note Name: D5, Velocity: 50
Note OFF: Time 419520, Note Name: D5
Note ON: Time 419520, Note Name: C#5, Velocity: 54
Note OFF: Time 419640, Note Name: C#5
Note ON: Time 419640, Note Name: F#5, Velocity: 58
Note OFF: Time 419760, Note Name: F#5
Note ON: Time 419760, Note Name: G5, Velocity: 58
Note OFF: Time 419880, Note Name: G5
Note ON: Time 419880, Note Name: C#5, Velocity: 53
Note OFF: Time 420000, Note Name: C#5
Note OFF: Time 420000, Note Name: A#5
Note ON: Time 420000, Note Name: C5, Velocity: 56
Note OFF: Time 420120, Note Name: C5
Note ON: Time 420120, Note Name: E5, Velocity: 50
Note OFF: Time 420240, Note Name: E5
Note ON: Time 420240, Note Name: F5, Velocity: 60
Note OFF: Time 420360, Note Name: F5
Note ON: Time 420360, Note Name: F6, Velocity: 54
Note OFF: Time 420480, Note Name: F6
Note ON: Time 420480, Note Name: F6, Velocity: 61
Note OFF: Time 420600, Note Name: F6
Note ON: Time 420600, Note Name: F7, Velocity: 48
Note OFF: Time 420720, Note Name: F7
Note ON: Time 420720, Note Name: E7, Velocity: 49
Note OFF: Time 420840, Note Name: E7
Note ON: Time 420840, Note Name: D#7, Velocity: 50
Note OFF: Time 420960, Note Name: D#7
Note ON: Time 420960, Note Name: C7, Velocity: 51
Note OFF: Time 421080, Note Name: C7
Note ON: Time 421080, Note Name: A6, Velocity: 51
Note OFF: Time 421200, Note Name: A6
Note ON: Time 421200, Note Name: F#6, Velocity: 52
Note OFF: Time 421320, Note Name: F#6
Note ON: Time 421320, Note Name: F6, Velocity: 53
Note OFF: Time 421440, Note Name: F6
Note ON: Time 421440, Note Name: E6, Velocity: 55
Note OFF: Time 421560, Note Name: E6
Note ON: Time 421560, Note Name: D#6, Velocity: 60
Note OFF: Time 421680, Note Name: D#6
Note ON: Time 421680, Note Name: C6, Velocity: 64
Note OFF: Time 421800, Note Name: C6
Note ON: Time 421800, Note Name: A5, Velocity: 67
Note OFF: Time 421920, Note Name: A5
Note ON: Time 421920, Note Name: A#5, Velocity: 60
Note ON: Time 421920, Note Name: F#5, Velocity: 72
Note OFF: Time 422040, Note Name: F#5
Note ON: Time 422040, Note Name: F5, Velocity: 51
Note OFF: Time 422160, Note Name: F5
Note OFF: Time 422160, Note Name: A#5
Note ON: Time 422160, Note Name: G6, Velocity: 63
Note ON: Time 422160, Note Name: A#5, Velocity: 53
Note OFF: Time 422280, Note Name: G6
Note ON: Time 422280, Note Name: F6, Velocity: 51
Note OFF: Time 422400, Note Name: F6
Note OFF: Time 422400, Note Name: A#5
Note ON: Time 422520, Note Name: F6, Velocity: 48
Note OFF: Time 422640, Note Name: F6
Note ON: Time 422640, Note Name: E6, Velocity: 49
Note OFF: Time 422760, Note Name: E6
Note ON: Time 422760, Note Name: D#6, Velocity: 50
Note OFF: Time 422880, Note Name: D#6
Note ON: Time 422880, Note Name: C6, Velocity: 51
Note OFF: Time 423000, Note Name: C6
Note ON: Time 423000, Note Name: A5, Velocity: 51
Note OFF: Time 423120, Note Name: A5
Note ON: Time 423120, Note Name: F#5, Velocity: 52
Note OFF: Time 423240, Note Name: F#5
Note ON: Time 423240, Note Name: F5, Velocity: 53
Note OFF: Time 423360, Note Name: F5
Note ON: Time 423360, Note Name: E5, Velocity: 57
Note OFF: Time 423480, Note Name: E5
Note ON: Time 423480, Note Name: D#5, Velocity: 59
Note OFF: Time 423600, Note Name: D#5
Note ON: Time 423600, Note Name: C5, Velocity: 61
Note OFF: Time 423720, Note Name: C5
Note ON: Time 423720, Note Name: A4, Velocity: 63
Note OFF: Time 423840, Note Name: A4
Note ON: Time 423840, Note Name: A#4, Velocity: 54
Note ON: Time 423840, Note Name: F#4, Velocity: 67
Note OFF: Time 423960, Note Name: F#4
Note ON: Time 423960, Note Name: F4, Velocity: 51
Note OFF: Time 424080, Note Name: F4
Note OFF: Time 424080, Note Name: A#4
Note ON: Time 424080, Note Name: G5, Velocity: 63
Note ON: Time 424080, Note Name: A#4, Velocity: 53
Note OFF: Time 424200, Note Name: G5
Note ON: Time 424200, Note Name: F5, Velocity: 51
Note OFF: Time 424320, Note Name: F5
Note OFF: Time 424320, Note Name: A#4
Note ON: Time 424320, Note Name: F5, Velocity: 56
Note OFF: Time 424440, Note Name: F5
Note ON: Time 424440, Note Name: A#5, Velocity: 54
Note ON: Time 424440, Note Name: D5, Velocity: 45
Note OFF: Time 424560, Note Name: D5
Note OFF: Time 424560, Note Name: A#5
Note ON: Time 424560, Note Name: F5, Velocity: 49
Note ON: Time 424560, Note Name: D6, Velocity: 58
Note OFF: Time 424680, Note Name: D6
Note OFF: Time 424680, Note Name: F5
Note ON: Time 424680, Note Name: C6, Velocity: 52
Note ON: Time 424680, Note Name: D#5, Velocity: 44
Note OFF: Time 424800, Note Name: D#5
Note OFF: Time 424800, Note Name: C6
Note ON: Time 424800, Note Name: D5, Velocity: 58
Note ON: Time 424800, Note Name: A#5, Velocity: 58
Note OFF: Time 424920, Note Name: D5
Note ON: Time 424920, Note Name: F#5, Velocity: 50
Note OFF: Time 425040, Note Name: F#5
Note ON: Time 425040, Note Name: G5, Velocity: 55
Note OFF: Time 425160, Note Name: G5
Note ON: Time 425160, Note Name: D5, Velocity: 50
Note OFF: Time 425280, Note Name: D5
Note ON: Time 425280, Note Name: C#5, Velocity: 54
Note OFF: Time 425400, Note Name: C#5
Note ON: Time 425400, Note Name: F#5, Velocity: 58
Note OFF: Time 425520, Note Name: F#5
Note ON: Time 425520, Note Name: G5, Velocity: 58
Note OFF: Time 425640, Note Name: G5
Note ON: Time 425640, Note Name: C#5, Velocity: 53
Note OFF: Time 425760, Note Name: C#5
Note OFF: Time 425760, Note Name: A#5
Note ON: Time 425760, Note Name: C5, Velocity: 56
Note ON: Time 425760, Note Name: A5, Velocity: 54
Note OFF: Time 425880, Note Name: C5
Note ON: Time 425880, Note Name: F5, Velocity: 50
Note OFF: Time 426000, Note Name: F5
Note OFF: Time 426000, Note Name: A5
Note ON: Time 426000, Note Name: A#5, Velocity: 54
Note ON: Time 426000, Note Name: A#4, Velocity: 60
Note OFF: Time 426120, Note Name: A#4
Note ON: Time 426120, Note Name: D#5, Velocity: 50
Note OFF: Time 426240, Note Name: D#5
Note OFF: Time 426240, Note Name: A#5
Note ON: Time 426240, Note Name: A#5, Velocity: 54
Note OFF: Time 426360, Note Name: A#5
Note ON: Time 426360, Note Name: D#6, Velocity: 57
Note ON: Time 426360, Note Name: G5, Velocity: 47
Note OFF: Time 426480, Note Name: G5
Note OFF: Time 426480, Note Name: D#6
Note ON: Time 426480, Note Name: A#5, Velocity: 52
Note ON: Time 426480, Note Name: G6, Velocity: 62
Note OFF: Time 426600, Note Name: G6
Note OFF: Time 426600, Note Name: A#5
Note ON: Time 426600, Note Name: F6, Velocity: 56
Note ON: Time 426600, Note Name: G#5, Velocity: 47
Note OFF: Time 426720, Note Name: G#5
Note OFF: Time 426720, Note Name: F6
Note ON: Time 426720, Note Name: D#6, Velocity: 63
Note ON: Time 426720, Note Name: G5, Velocity: 63
Note OFF: Time 426840, Note Name: G5
Note ON: Time 426840, Note Name: B5, Velocity: 55
Note OFF: Time 426960, Note Name: B5
Note ON: Time 426960, Note Name: C6, Velocity: 61
Note OFF: Time 427080, Note Name: C6
Note ON: Time 427080, Note Name: G5, Velocity: 56
Note OFF: Time 427200, Note Name: G5
Note ON: Time 427200, Note Name: F#5, Velocity: 61
Note OFF: Time 427320, Note Name: F#5
Note ON: Time 427320, Note Name: B5, Velocity: 64
Note OFF: Time 427440, Note Name: B5
Note ON: Time 427440, Note Name: C6, Velocity: 66
Note OFF: Time 427560, Note Name: C6
Note ON: Time 427560, Note Name: F#5, Velocity: 62
Note OFF: Time 427680, Note Name: F#5
Note OFF: Time 427680, Note Name: D#6
Note ON: Time 427680, Note Name: F5, Velocity: 66
Note ON: Time 427680, Note Name: D6, Velocity: 63
Note OFF: Time 427800, Note Name: F5
Note ON: Time 427800, Note Name: A#5, Velocity: 59
Note OFF: Time 427920, Note Name: A#5
Note OFF: Time 427920, Note Name: D6
Note ON: Time 427920, Note Name: D#5, Velocity: 66
Note ON: Time 427920, Note Name: D#6, Velocity: 64
Note OFF: Time 428040, Note Name: D#5
Note ON: Time 428040, Note Name: G#5, Velocity: 60
Note OFF: Time 428160, Note Name: G#5
Note OFF: Time 428160, Note Name: D#6
Note ON: Time 428160, Note Name: D#6, Velocity: 63
Note ON: Time 428280, Note Name: C6, Velocity: 55
Note OFF: Time 428400, Note Name: C6
Note OFF: Time 428400, Note Name: D#6
Note ON: Time 428400, Note Name: D#6, Velocity: 60
Note ON: Time 428400, Note Name: G#6, Velocity: 71
Note OFF: Time 428520, Note Name: D#6
Note ON: Time 428520, Note Name: C#6, Velocity: 55
Note OFF: Time 428640, Note Name: C#6
Note OFF: Time 428640, Note Name: G#6
Note ON: Time 428640, Note Name: C#6, Velocity: 68
Note ON: Time 428640, Note Name: G#6, Velocity: 73
Note OFF: Time 428760, Note Name: C#6
Note ON: Time 428760, Note Name: B5, Velocity: 63
Note OFF: Time 428880, Note Name: B5
Note ON: Time 428880, Note Name: A#5, Velocity: 70
Note OFF: Time 429000, Note Name: A#5
Note ON: Time 429000, Note Name: B5, Velocity: 65
Note OFF: Time 429120, Note Name: B5
Note ON: Time 429120, Note Name: B5, Velocity: 70
Note OFF: Time 429240, Note Name: B5
Note ON: Time 429240, Note Name: E6, Velocity: 73
Note OFF: Time 429360, Note Name: E6
Note ON: Time 429360, Note Name: F6, Velocity: 77
Note OFF: Time 429480, Note Name: F6
Note ON: Time 429480, Note Name: B5, Velocity: 71
Note OFF: Time 429600, Note Name: B5
Note OFF: Time 429600, Note Name: G#6
Note ON: Time 429600, Note Name: G6, Velocity: 78
Note ON: Time 429600, Note Name: A#5, Velocity: 75
Note OFF: Time 429720, Note Name: A#5
Note ON: Time 429720, Note Name: D6, Velocity: 68
Note OFF: Time 429840, Note Name: D6
Note ON: Time 429840, Note Name: D#6, Velocity: 82
Note OFF: Time 429960, Note Name: D#6
Note ON: Time 429960, Note Name: A#5, Velocity: 69
Note OFF: Time 430080, Note Name: A#5
Note ON: Time 430080, Note Name: G5, Velocity: 83
Note OFF: Time 430320, Note Name: G5
Note OFF: Time 430320, Note Name: G6
Note ON: Time 430320, Note Name: G6, Velocity: 93
Note ON: Time 430320, Note Name: D#6, Velocity: 79
Note ON: Time 430320, Note Name: G5, Velocity: 79
Note ON: Time 430320, Note Name: A#5, Velocity: 79
Note OFF: Time 430560, Note Name: A#5
Note OFF: Time 430560, Note Name: G6
Note OFF: Time 430560, Note Name: D#6
Note OFF: Time 430560, Note Name: G5
Note ON: Time 430560, Note Name: D6, Velocity: 74
Note ON: Time 430560, Note Name: F6, Velocity: 88
Note OFF: Time 430800, Note Name: F6
Note OFF: Time 430800, Note Name: D6
Note ON: Time 430800, Note Name: G6, Velocity: 86
Note ON: Time 430800, Note Name: D#6, Velocity: 74
Note OFF: Time 430920, Note Name: D#6
Note OFF: Time 430920, Note Name: G6
Note ON: Time 430920, Note Name: F6, Velocity: 78
Note ON: Time 430920, Note Name: G#6, Velocity: 92
Note OFF: Time 431040, Note Name: G#6
Note OFF: Time 431040, Note Name: F6
Note ON: Time 431040, Note Name: A#6, Velocity: 96
Note ON: Time 431040, Note Name: G6, Velocity: 81
Note OFF: Time 431160, Note Name: G6
Note OFF: Time 431160, Note Name: A#6
Note ON: Time 431280, Note Name: G6, Velocity: 91
Note ON: Time 431280, Note Name: D#6, Velocity: 77
Note OFF: Time 431400, Note Name: D#6
Note OFF: Time 431400, Note Name: G6
Note ON: Time 432240, Note Name: G6, Velocity: 93
Note ON: Time 432240, Note Name: G5, Velocity: 79
Note ON: Time 432240, Note Name: A#5, Velocity: 79
Note ON: Time 432240, Note Name: D#6, Velocity: 79
Note OFF: Time 432480, Note Name: D#6
Note OFF: Time 432480, Note Name: G6
Note OFF: Time 432480, Note Name: G5
Note OFF: Time 432480, Note Name: A#5
Note ON: Time 432480, Note Name: F6, Velocity: 88
Note ON: Time 432480, Note Name: D6, Velocity: 74
Note OFF: Time 432720, Note Name: D6
Note OFF: Time 432720, Note Name: F6
Note ON: Time 432720, Note Name: D#6, Velocity: 74
Note ON: Time 432720, Note Name: G6, Velocity: 86
Note OFF: Time 432840, Note Name: G6
Note OFF: Time 432840, Note Name: D#6
Note ON: Time 432840, Note Name: F6, Velocity: 78
Note ON: Time 432840, Note Name: G#6, Velocity: 92
Note OFF: Time 432960, Note Name: G#6
Note OFF: Time 432960, Note Name: F6
Note ON: Time 432960, Note Name: G6, Velocity: 81
Note ON: Time 432960, Note Name: A#6, Velocity: 96
Note OFF: Time 433080, Note Name: A#6
Note OFF: Time 433080, Note Name: G6
Note ON: Time 433200, Note Name: G5, Velocity: 86
Note ON: Time 433200, Note Name: A#4, Velocity: 86
Note ON: Time 433200, Note Name: C5, Velocity: 86
Note ON: Time 433200, Note Name: A#5, Velocity: 103
Note OFF: Time 433440, Note Name: A#5
Note OFF: Time 433440, Note Name: G5
Note OFF: Time 433440, Note Name: A#4
Note OFF: Time 433440, Note Name: C5
Note ON: Time 433680, Note Name: E5, Velocity: 86
Note ON: Time 433680, Note Name: A#4, Velocity: 86
Note ON: Time 433680, Note Name: G5, Velocity: 86
Note ON: Time 433680, Note Name: A#5, Velocity: 103
Note OFF: Time 433920, Note Name: A#5
Note OFF: Time 433920, Note Name: E5
Note OFF: Time 433920, Note Name: A#4
Note OFF: Time 433920, Note Name: G5
Note ON: Time 434160, Note Name: A#5, Velocity: 103
Note ON: Time 434160, Note Name: D5, Velocity: 86
Note ON: Time 434160, Note Name: F5, Velocity: 86
Note ON: Time 434160, Note Name: A#4, Velocity: 86
Note OFF: Time 434400, Note Name: A#4
Note OFF: Time 434400, Note Name: A#5
Note OFF: Time 434400, Note Name: D5
Note OFF: Time 434400, Note Name: F5
Note ON: Time 434640, Note Name: C5, Velocity: 79
Note ON: Time 434640, Note Name: A#5, Velocity: 94
Note ON: Time 434640, Note Name: A#4, Velocity: 79
Note ON: Time 434640, Note Name: E5, Velocity: 79
Note OFF: Time 434880, Note Name: E5
Note OFF: Time 434880, Note Name: C5
Note OFF: Time 434880, Note Name: A#5
Note OFF: Time 434880, Note Name: A#4
Note ON: Time 434880, Note Name: D5, Velocity: 65
Note ON: Time 434880, Note Name: A#5, Velocity: 77
Note ON: Time 434880, Note Name: A#4, Velocity: 65
Note ON: Time 434880, Note Name: F5, Velocity: 65
Note OFF: Time 435360, Note Name: F5
Note OFF: Time 435360, Note Name: D5
Note OFF: Time 435360, Note Name: A#5
Note OFF: Time 435360, Note Name: A#4
Note ON: Time 435360, Note Name: F5, Velocity: 64
Note ON: Time 435360, Note Name: D5, Velocity: 54
Note OFF: Time 436080, Note Name: D5
Note OFF: Time 436080, Note Name: F5
Note ON: Time 436080, Note Name: D5, Velocity: 63
Note OFF: Time 436198, Note Name: D5
Note ON: Time 436320, Note Name: F5, Velocity: 56
Note OFF: Time 436440, Note Name: F5
Note ON: Time 436440, Note Name: A5, Velocity: 57
Note OFF: Time 436560, Note Name: A5
Note ON: Time 436560, Note Name: A#5, Velocity: 58
Note OFF: Time 436680, Note Name: A#5
Note ON: Time 436680, Note Name: D6, Velocity: 59
Note OFF: Time 436800, Note Name: D6
Note ON: Time 436800, Note Name: E6, Velocity: 60
Note OFF: Time 436920, Note Name: E6
Note ON: Time 436920, Note Name: F6, Velocity: 61
Note OFF: Time 437040, Note Name: F6
Note ON: Time 437040, Note Name: G6, Velocity: 62
Note OFF: Time 437160, Note Name: G6
Note ON: Time 437160, Note Name: F6, Velocity: 62
Note OFF: Time 437280, Note Name: F6
Note ON: Time 437280, Note Name: A6, Velocity: 63
Note OFF: Time 437400, Note Name: A6
Note ON: Time 437400, Note Name: A#6, Velocity: 64
Note OFF: Time 437520, Note Name: A#6
Note ON: Time 437520, Note Name: C7, Velocity: 65
Note OFF: Time 437640, Note Name: C7
Note ON: Time 437640, Note Name: A#6, Velocity: 66
Note OFF: Time 437760, Note Name: A#6
Note ON: Time 437760, Note Name: C#7, Velocity: 67
Note OFF: Time 437880, Note Name: C#7
Note ON: Time 437880, Note Name: D7, Velocity: 68
Note OFF: Time 438000, Note Name: D7
Note ON: Time 438000, Note Name: D#7, Velocity: 69
Note OFF: Time 438120, Note Name: D#7
Note ON: Time 438120, Note Name: D7, Velocity: 70
Note OFF: Time 438240, Note Name: D7
Note ON: Time 438240, Note Name: F7, Velocity: 71
Note OFF: Time 438480, Note Name: F7
Note ON: Time 438480, Note Name: D#5, Velocity: 70
Note ON: Time 438480, Note Name: C5, Velocity: 59
Note OFF: Time 438720, Note Name: C5
Note OFF: Time 438720, Note Name: D#5
Note ON: Time 438720, Note Name: D5, Velocity: 58
Note ON: Time 439200, Note Name: D6, Velocity: 59
Note OFF: Time 439680, Note Name: D6
Note OFF: Time 439680, Note Name: D5
Note ON: Time 439680, Note Name: D#6, Velocity: 57
Note ON: Time 439680, Note Name: D#5, Velocity: 48
Note OFF: Time 440160, Note Name: D#5
Note OFF: Time 440160, Note Name: D#6
Note ON: Time 440160, Note Name: F#6, Velocity: 61
Note ON: Time 440160, Note Name: F#5, Velocity: 51
Note OFF: Time 440640, Note Name: F#5
Note OFF: Time 440640, Note Name: F#6
Note ON: Time 440640, Note Name: A#5, Velocity: 62
Note ON: Time 441120, Note Name: F5, Velocity: 57
Note ON: Time 441120, Note Name: D5, Velocity: 51
Note OFF: Time 441600, Note Name: D5
Note OFF: Time 441600, Note Name: F5
Note OFF: Time 441600, Note Name: A#5
Note ON: Time 441600, Note Name: F#5, Velocity: 59
Note ON: Time 441840, Note Name: F#6, Velocity: 60
Note OFF: Time 442080, Note Name: F#6
Note OFF: Time 442080, Note Name: F#5
Note ON: Time 442080, Note Name: D#6, Velocity: 63
Note ON: Time 442080, Note Name: D#5, Velocity: 53
Note OFF: Time 442560, Note Name: D#5
Note OFF: Time 442560, Note Name: D#6
Note ON: Time 442560, Note Name: C#5, Velocity: 56
Note ON: Time 442560, Note Name: C#6, Velocity: 66
Note OFF: Time 443040, Note Name: C#6
Note OFF: Time 443040, Note Name: C#5
Note ON: Time 443040, Note Name: D6, Velocity: 59
Note ON: Time 443040, Note Name: D5, Velocity: 56
Note OFF: Time 443520, Note Name: D5
Note OFF: Time 443520, Note Name: D6
Note ON: Time 443520, Note Name: F5, Velocity: 54
Note ON: Time 443520, Note Name: F6, Velocity: 64
Note OFF: Time 444000, Note Name: F6
Note OFF: Time 444000, Note Name: F5
Note ON: Time 444000, Note Name: D#6, Velocity: 63
Note ON: Time 444000, Note Name: D#5, Velocity: 53
Note OFF: Time 444360, Note Name: D#5
Note OFF: Time 444360, Note Name: D#6
Note ON: Time 444360, Note Name: C5, Velocity: 48
Note ON: Time 444360, Note Name: C6, Velocity: 57
Note OFF: Time 444480, Note Name: C6
Note OFF: Time 444480, Note Name: C5
Note ON: Time 444480, Note Name: D6, Velocity: 58
Note ON: Time 444480, Note Name: A#5, Velocity: 49
Note ON: Time 444480, Note Name: F5, Velocity: 49
Note OFF: Time 444561, Note Name: A#5
Note ON: Time 444561, Note Name: C6, Velocity: 42
Note OFF: Time 444641, Note Name: C6
Note ON: Time 444641, Note Name: A#5, Velocity: 49
Note ON: Time 444721, Note Name: C6, Velocity: 44
Note OFF: Time 444722, Note Name: A#5
Note OFF: Time 444802, Note Name: C6
Note ON: Time 444802, Note Name: A#5, Velocity: 49
Note OFF: Time 444882, Note Name: A#5
Note ON: Time 444882, Note Name: C6, Velocity: 44
Note ON: Time 444960, Note Name: A#5, Velocity: 50
Note OFF: Time 444963, Note Name: C6
Note OFF: Time 445041, Note Name: A#5
Note ON: Time 445041, Note Name: C6, Velocity: 44
Note OFF: Time 445121, Note Name: C6
Note ON: Time 445121, Note Name: A#5, Velocity: 50
Note ON: Time 445201, Note Name: C6, Velocity: 46
Note OFF: Time 445202, Note Name: A#5
Note OFF: Time 445282, Note Name: C6
Note ON: Time 445282, Note Name: A#5, Velocity: 51
Note OFF: Time 445362, Note Name: A#5
Note ON: Time 445362, Note Name: C6, Velocity: 45
Note OFF: Time 445440, Note Name: F5
Note OFF: Time 445440, Note Name: D6
Note ON: Time 445440, Note Name: D#5, Velocity: 56
Note ON: Time 445440, Note Name: A#5, Velocity: 51
Note ON: Time 445440, Note Name: D#6, Velocity: 67
Note OFF: Time 445443, Note Name: C6
Note OFF: Time 445521, Note Name: A#5
Note ON: Time 445521, Note Name: C6, Velocity: 44
Note OFF: Time 445601, Note Name: C6
Note ON: Time 445601, Note Name: A#5, Velocity: 52
Note ON: Time 445681, Note Name: C6, Velocity: 47
Note OFF: Time 445682, Note Name: A#5
Note OFF: Time 445762, Note Name: C6
Note ON: Time 445762, Note Name: A#5, Velocity: 52
Note OFF: Time 445842, Note Name: A#5
Note ON: Time 445842, Note Name: C6, Velocity: 47
Note OFF: Time 445920, Note Name: D#5
Note OFF: Time 445920, Note Name: D#6
Note ON: Time 445920, Note Name: G5, Velocity: 62
Note ON: Time 445920, Note Name: A#5, Velocity: 53
Note ON: Time 445920, Note Name: G6, Velocity: 73
Note OFF: Time 445923, Note Name: C6
Note OFF: Time 446001, Note Name: A#5
Note ON: Time 446001, Note Name: C6, Velocity: 47
Note OFF: Time 446081, Note Name: C6
Note ON: Time 446081, Note Name: A#5, Velocity: 54
Note ON: Time 446161, Note Name: C6, Velocity: 48
Note OFF: Time 446162, Note Name: A#5
Note OFF: Time 446242, Note Name: C6
Note ON: Time 446242, Note Name: A#5, Velocity: 54
Note OFF: Time 446322, Note Name: A#5
Note ON: Time 446322, Note Name: C6, Velocity: 48
Note OFF: Time 446400, Note Name: G5
Note OFF: Time 446400, Note Name: G6
Note ON: Time 446400, Note Name: A#5, Velocity: 55
Note ON: Time 446400, Note Name: A#6, Velocity: 85
Note OFF: Time 446403, Note Name: C6
Note OFF: Time 446481, Note Name: A#5
Note ON: Time 446481, Note Name: C6, Velocity: 47
Note OFF: Time 446561, Note Name: C6
Note ON: Time 446561, Note Name: A#5, Velocity: 55
Note ON: Time 446641, Note Name: C6, Velocity: 50
Note OFF: Time 446642, Note Name: A#5
Note OFF: Time 446722, Note Name: C6
Note ON: Time 446722, Note Name: A#5, Velocity: 56
Note OFF: Time 446802, Note Name: A#5
Note ON: Time 446802, Note Name: C6, Velocity: 51
Note ON: Time 446880, Note Name: A#5, Velocity: 56
Note OFF: Time 446883, Note Name: C6
Note OFF: Time 446961, Note Name: A#5
Note ON: Time 446961, Note Name: C6, Velocity: 50
Note OFF: Time 447041, Note Name: C6
Note ON: Time 447041, Note Name: A#5, Velocity: 57
Note ON: Time 447121, Note Name: C6, Velocity: 51
Note OFF: Time 447122, Note Name: A#5
Note OFF: Time 447202, Note Name: C6
Note ON: Time 447202, Note Name: A#5, Velocity: 57
Note OFF: Time 447282, Note Name: A#5
Note ON: Time 447282, Note Name: C6, Velocity: 51
Note OFF: Time 447360, Note Name: A#6
Note ON: Time 447360, Note Name: G5, Velocity: 61
Note ON: Time 447360, Note Name: A#5, Velocity: 58
Note ON: Time 447360, Note Name: G6, Velocity: 72
Note OFF: Time 447363, Note Name: C6
Note OFF: Time 447441, Note Name: A#5
Note ON: Time 447441, Note Name: C6, Velocity: 50
Note OFF: Time 447521, Note Name: C6
Note ON: Time 447521, Note Name: A#5, Velocity: 59
Note ON: Time 447601, Note Name: C6, Velocity: 53
Note OFF: Time 447602, Note Name: A#5
Note OFF: Time 447682, Note Name: C6
Note ON: Time 447682, Note Name: A#5, Velocity: 59
Note OFF: Time 447762, Note Name: A#5
Note ON: Time 447762, Note Name: C6, Velocity: 53
Note OFF: Time 447840, Note Name: G5
Note OFF: Time 447840, Note Name: G6
Note ON: Time 447840, Note Name: D#5, Velocity: 65
Note ON: Time 447840, Note Name: D#6, Velocity: 77
Note ON: Time 447840, Note Name: A#5, Velocity: 60
Note OFF: Time 447843, Note Name: C6
Note OFF: Time 447921, Note Name: A#5
Note ON: Time 447921, Note Name: C6, Velocity: 52
Note OFF: Time 448001, Note Name: C6
Note ON: Time 448001, Note Name: A#5, Velocity: 60
Note ON: Time 448081, Note Name: C6, Velocity: 55
Note OFF: Time 448082, Note Name: A#5
Note OFF: Time 448162, Note Name: C6
Note ON: Time 448162, Note Name: A#5, Velocity: 61
Note OFF: Time 448242, Note Name: A#5
Note ON: Time 448242, Note Name: C6, Velocity: 54
Note OFF: Time 448320, Note Name: D#6
Note OFF: Time 448320, Note Name: D#5
Note ON: Time 448320, Note Name: A#5, Velocity: 61
Note ON: Time 448320, Note Name: C#5, Velocity: 65
Note ON: Time 448320, Note Name: C#6, Velocity: 83
Note OFF: Time 448323, Note Name: C6
Note OFF: Time 448401, Note Name: A#5
Note ON: Time 448401, Note Name: C6, Velocity: 53
Note OFF: Time 448481, Note Name: C6
Note ON: Time 448481, Note Name: A#5, Velocity: 62
Note OFF: Time 448560, Note Name: C#5
Note OFF: Time 448560, Note Name: C#6
Note ON: Time 448560, Note Name: D6, Velocity: 75
Note ON: Time 448560, Note Name: D5, Velocity: 65
Note ON: Time 448561, Note Name: C6, Velocity: 56
Note OFF: Time 448562, Note Name: A#5
Note OFF: Time 448642, Note Name: C6
Note ON: Time 448642, Note Name: A#5, Velocity: 62
Note OFF: Time 448722, Note Name: A#5
Note ON: Time 448722, Note Name: C6, Velocity: 56
Note ON: Time 448800, Note Name: A#5, Velocity: 63
Note OFF: Time 448803, Note Name: C6
Note OFF: Time 448881, Note Name: A#5
Note ON: Time 448881, Note Name: C6, Velocity: 55
Note OFF: Time 448961, Note Name: C6
Note ON: Time 448961, Note Name: A#5, Velocity: 64
Note OFF: Time 449040, Note Name: D5
Note OFF: Time 449040, Note Name: D6
Note ON: Time 449040, Note Name: F5, Velocity: 74
Note ON: Time 449040, Note Name: F6, Velocity: 86
Note ON: Time 449041, Note Name: C6, Velocity: 57
Note OFF: Time 449042, Note Name: A#5
Note OFF: Time 449122, Note Name: C6
Note ON: Time 449122, Note Name: A#5, Velocity: 64
Note OFF: Time 449202, Note Name: A#5
Note ON: Time 449202, Note Name: C6, Velocity: 56
Note OFF: Time 449280, Note Name: F6
Note OFF: Time 449280, Note Name: F5
Note ON: Time 449280, Note Name: F6, Velocity: 86
Note ON: Time 449280, Note Name: A5, Velocity: 75
Note OFF: Time 449283, Note Name: C6
Note OFF: Time 449361, Note Name: A5
Note ON: Time 449361, Note Name: A#5, Velocity: 66
Note OFF: Time 449441, Note Name: A#5
Note ON: Time 449441, Note Name: A5, Velocity: 75
Note ON: Time 449521, Note Name: A#5, Velocity: 64
Note OFF: Time 449522, Note Name: A5
Note OFF: Time 449602, Note Name: A#5
Note ON: Time 449602, Note Name: A5, Velocity: 75
Note OFF: Time 449682, Note Name: A5
Note ON: Time 449682, Note Name: A#5, Velocity: 68
Note ON: Time 449760, Note Name: A5, Velocity: 78
Note OFF: Time 449763, Note Name: A#5
Note OFF: Time 449841, Note Name: A5
Note ON: Time 449841, Note Name: A#5, Velocity: 69
Note OFF: Time 449880, Note Name: F6
Note ON: Time 449880, Note Name: D#6, Velocity: 86
Note OFF: Time 449921, Note Name: A#5
Note ON: Time 449921, Note Name: A5, Velocity: 75
Note OFF: Time 450000, Note Name: D#6
Note ON: Time 450000, Note Name: G5, Velocity: 79
Note ON: Time 450000, Note Name: C6, Velocity: 79
Note OFF: Time 450002, Note Name: A5
Note OFF: Time 450120, Note Name: C6
Note OFF: Time 450120, Note Name: G5
Note ON: Time 450120, Note Name: A5, Velocity: 79
Note ON: Time 450120, Note Name: F6, Velocity: 79
Note OFF: Time 450240, Note Name: F6
Note OFF: Time 450240, Note Name: A5
Note ON: Time 450240, Note Name: G#5, Velocity: 87
Note ON: Time 450240, Note Name: F5, Velocity: 87
Note ON: Time 450240, Note Name: D6, Velocity: 87
Note ON: Time 450240, Note Name: F6, Velocity: 103
Note OFF: Time 450360, Note Name: F6
Note OFF: Time 450360, Note Name: G#5
Note OFF: Time 450360, Note Name: F5
Note OFF: Time 450360, Note Name: D6
Note ON: Time 450480, Note Name: F6, Velocity: 79
Note ON: Time 450480, Note Name: G#6, Velocity: 79
Note ON: Time 450480, Note Name: F7, Velocity: 93
Note ON: Time 450480, Note Name: D7, Velocity: 79
Note OFF: Time 450960, Note Name: D7
Note OFF: Time 450960, Note Name: F6
Note OFF: Time 450960, Note Name: G#6
Note OFF: Time 450960, Note Name: F7
Note ON: Time 450960, Note Name: D#7, Velocity: 78
Note ON: Time 450960, Note Name: G#6, Velocity: 66
Note ON: Time 450960, Note Name: D#6, Velocity: 66
Note ON: Time 450960, Note Name: F6, Velocity: 66
Note OFF: Time 451080, Note Name: F6
Note OFF: Time 451080, Note Name: D#7
Note OFF: Time 451080, Note Name: G#6
Note OFF: Time 451080, Note Name: D#6
Note ON: Time 451200, Note Name: D6, Velocity: 67
Note ON: Time 451200, Note Name: D7, Velocity: 79
Note ON: Time 451200, Note Name: F6, Velocity: 67
Note ON: Time 451200, Note Name: G#6, Velocity: 67
Note OFF: Time 451320, Note Name: G#6
Note OFF: Time 451320, Note Name: D6
Note OFF: Time 451320, Note Name: D7
Note OFF: Time 451320, Note Name: F6
Note ON: Time 451440, Note Name: D#6, Velocity: 70
Note ON: Time 451440, Note Name: F6, Velocity: 70
Note ON: Time 451440, Note Name: D#7, Velocity: 83
Note ON: Time 451440, Note Name: G#6, Velocity: 70
Note OFF: Time 451560, Note Name: G#6
Note OFF: Time 451560, Note Name: D#6
Note OFF: Time 451560, Note Name: F6
Note OFF: Time 451560, Note Name: D#7
Note ON: Time 451680, Note Name: G#6, Velocity: 69
Note ON: Time 451680, Note Name: F7, Velocity: 82
Note ON: Time 451680, Note Name: F6, Velocity: 69
Note OFF: Time 451800, Note Name: F6
Note OFF: Time 451800, Note Name: F7
Note OFF: Time 451800, Note Name: G#6
Note ON: Time 451920, Note Name: D7, Velocity: 69
Note ON: Time 451920, Note Name: G6, Velocity: 58
Note ON: Time 451920, Note Name: F6, Velocity: 58
Note ON: Time 451920, Note Name: D6, Velocity: 58
Note OFF: Time 452040, Note Name: D6
Note OFF: Time 452040, Note Name: D7
Note OFF: Time 452040, Note Name: G6
Note OFF: Time 452040, Note Name: F6
Note ON: Time 452160, Note Name: D#6, Velocity: 50
Note ON: Time 452160, Note Name: D#7, Velocity: 59
Note ON: Time 452160, Note Name: G6, Velocity: 50
Note OFF: Time 452280, Note Name: G6
Note OFF: Time 452280, Note Name: D#7
Note OFF: Time 452280, Note Name: D#6
Note ON: Time 452400, Note Name: D6, Velocity: 45
Note ON: Time 452400, Note Name: D7, Velocity: 53
Note ON: Time 452400, Note Name: G6, Velocity: 45
Note ON: Time 452400, Note Name: F6, Velocity: 45
Note OFF: Time 452520, Note Name: F6
Note OFF: Time 452520, Note Name: D6
Note OFF: Time 452520, Note Name: D7
Note OFF: Time 452520, Note Name: G6
Note ON: Time 452640, Note Name: D#7, Velocity: 59
Note ON: Time 452640, Note Name: D#6, Velocity: 50
Note ON: Time 452640, Note Name: G6, Velocity: 50
Note OFF: Time 452760, Note Name: G6
Note OFF: Time 452760, Note Name: D#6
Note OFF: Time 452760, Note Name: D#7
Note ON: Time 452880, Note Name: G6, Velocity: 45
Note ON: Time 452880, Note Name: C6, Velocity: 45
Note ON: Time 452880, Note Name: C7, Velocity: 53
Note OFF: Time 453000, Note Name: C7
Note OFF: Time 453000, Note Name: C6
Note OFF: Time 453000, Note Name: G6
Note ON: Time 453120, Note Name: C6, Velocity: 50
Note ON: Time 453120, Note Name: A#6, Velocity: 59
Note ON: Time 453120, Note Name: G6, Velocity: 50
Note OFF: Time 453240, Note Name: G6
Note OFF: Time 453240, Note Name: A#6
Note OFF: Time 453240, Note Name: C6
Note ON: Time 453360, Note Name: E6, Velocity: 45
Note ON: Time 453360, Note Name: C6, Velocity: 45
Note ON: Time 453360, Note Name: A#6, Velocity: 53
Note OFF: Time 453480, Note Name: A#6
Note OFF: Time 453480, Note Name: C6
Note OFF: Time 453480, Note Name: E6
Note ON: Time 453600, Note Name: D#6, Velocity: 50
Note ON: Time 453600, Note Name: C6, Velocity: 50
Note ON: Time 453600, Note Name: A6, Velocity: 59
Note OFF: Time 453720, Note Name: A6
Note OFF: Time 453720, Note Name: C6
Note OFF: Time 453720, Note Name: D#6
Note ON: Time 453840, Note Name: C6, Velocity: 45
Note ON: Time 453840, Note Name: C7, Velocity: 53
Note ON: Time 453840, Note Name: D#6, Velocity: 45
Note OFF: Time 453960, Note Name: D#6
Note OFF: Time 453960, Note Name: C7
Note OFF: Time 453960, Note Name: C6
Note ON: Time 454080, Note Name: D6, Velocity: 55
Note ON: Time 454080, Note Name: A#5, Velocity: 55
Note ON: Time 454080, Note Name: A#6, Velocity: 64
Note OFF: Time 454200, Note Name: A#6
Note OFF: Time 454200, Note Name: A#5
Note OFF: Time 454200, Note Name: D6
Note ON: Time 454320, Note Name: F5, Velocity: 50
Note ON: Time 454320, Note Name: D6, Velocity: 50
Note ON: Time 454320, Note Name: F6, Velocity: 59
Note OFF: Time 454440, Note Name: F6
Note OFF: Time 454440, Note Name: D6
Note OFF: Time 454440, Note Name: F5
Note ON: Time 454560, Note Name: F6, Velocity: 58
Note ON: Time 454560, Note Name: A5, Velocity: 58
Note ON: Time 454560, Note Name: A6, Velocity: 69
Note ON: Time 454560, Note Name: D#6, Velocity: 58
Note OFF: Time 454680, Note Name: D#6
Note OFF: Time 454680, Note Name: F6
Note OFF: Time 454680, Note Name: A5
Note OFF: Time 454680, Note Name: A6
Note ON: Time 454800, Note Name: C7, Velocity: 65
Note ON: Time 454800, Note Name: F6, Velocity: 55
Note ON: Time 454800, Note Name: D#6, Velocity: 55
Note ON: Time 454800, Note Name: C6, Velocity: 55
Note OFF: Time 454920, Note Name: C6
Note OFF: Time 454920, Note Name: C7
Note OFF: Time 454920, Note Name: F6
Note OFF: Time 454920, Note Name: D#6
Note ON: Time 455040, Note Name: D6, Velocity: 63
Note ON: Time 455040, Note Name: A#6, Velocity: 75
Note ON: Time 455040, Note Name: A#5, Velocity: 63
Note OFF: Time 455160, Note Name: A#5
Note OFF: Time 455160, Note Name: A#6
Note OFF: Time 455160, Note Name: D6
Note ON: Time 455280, Note Name: F6, Velocity: 69
Note ON: Time 455280, Note Name: D6, Velocity: 59
Note ON: Time 455280, Note Name: F5, Velocity: 59
Note OFF: Time 455400, Note Name: F5
Note OFF: Time 455400, Note Name: D6
Note OFF: Time 455400, Note Name: F6
Note ON: Time 455520, Note Name: A5, Velocity: 69
Note ON: Time 455520, Note Name: D#6, Velocity: 69
Note ON: Time 455520, Note Name: F6, Velocity: 69
Note ON: Time 455520, Note Name: A6, Velocity: 80
Note OFF: Time 455640, Note Name: A6
Note OFF: Time 455640, Note Name: A5
Note OFF: Time 455640, Note Name: D#6
Note OFF: Time 455640, Note Name: F6
Note ON: Time 455760, Note Name: D#6, Velocity: 64
Note ON: Time 455760, Note Name: F6, Velocity: 64
Note ON: Time 455760, Note Name: C7, Velocity: 76
Note ON: Time 455760, Note Name: C6, Velocity: 64
Note OFF: Time 455880, Note Name: C6
Note OFF: Time 455880, Note Name: D#6
Note OFF: Time 455880, Note Name: F6
Note OFF: Time 455880, Note Name: C7
Note ON: Time 456000, Note Name: A#5, Velocity: 77
Note OFF: Time 456120, Note Name: A#5
Note ON: Time 456120, Note Name: A#6, Velocity: 70
Note OFF: Time 456240, Note Name: A#6
Note ON: Time 456240, Note Name: F5, Velocity: 79
Note OFF: Time 456360, Note Name: F5
Note ON: Time 456360, Note Name: F6, Velocity: 73
Note OFF: Time 456480, Note Name: F6
Note ON: Time 456480, Note Name: A5, Velocity: 82
Note OFF: Time 456600, Note Name: A5
Note ON: Time 456600, Note Name: A6, Velocity: 76
Note OFF: Time 456720, Note Name: A6
Note ON: Time 456720, Note Name: C6, Velocity: 85
Note OFF: Time 456840, Note Name: C6
Note ON: Time 456840, Note Name: C7, Velocity: 79
Note OFF: Time 456960, Note Name: C7
Note ON: Time 456960, Note Name: A#5, Velocity: 88
Note OFF: Time 457080, Note Name: A#5
Note ON: Time 457080, Note Name: A#6, Velocity: 82
Note OFF: Time 457200, Note Name: A#6
Note ON: Time 457200, Note Name: F5, Velocity: 91
Note OFF: Time 457320, Note Name: F5
Note ON: Time 457320, Note Name: F6, Velocity: 81
Note OFF: Time 457440, Note Name: F6
Note ON: Time 457440, Note Name: A4, Velocity: 89
Note OFF: Time 457560, Note Name: A4
Note ON: Time 457560, Note Name: A5, Velocity: 81
Note OFF: Time 457680, Note Name: A5
Note ON: Time 457680, Note Name: C5, Velocity: 90
Note OFF: Time 457800, Note Name: C5
Note ON: Time 457800, Note Name: C6, Velocity: 80
Note OFF: Time 457920, Note Name: C6
Note ON: Time 457920, Note Name: A#4, Velocity: 88
Note OFF: Time 458040, Note Name: A#4
Note ON: Time 458040, Note Name: A#5, Velocity: 82
Note OFF: Time 458160, Note Name: A#5
Note ON: Time 458160, Note Name: F4, Velocity: 91
Note OFF: Time 458280, Note Name: F4
Note ON: Time 458280, Note Name: F5, Velocity: 81
Note OFF: Time 458400, Note Name: F5
Note ON: Time 458400, Note Name: B4, Velocity: 89
Note OFF: Time 458520, Note Name: B4
Note ON: Time 458520, Note Name: B5, Velocity: 81
Note OFF: Time 458640, Note Name: B5
Note ON: Time 458640, Note Name: D5, Velocity: 90
Note OFF: Time 458760, Note Name: D5
Note ON: Time 458760, Note Name: D6, Velocity: 80
Note OFF: Time 458880, Note Name: D6
Note ON: Time 458880, Note Name: C5, Velocity: 88
Note OFF: Time 459000, Note Name: C5
Note ON: Time 459000, Note Name: C6, Velocity: 82
Note OFF: Time 459120, Note Name: C6
Note ON: Time 459120, Note Name: G4, Velocity: 91
Note OFF: Time 459240, Note Name: G4
Note ON: Time 459240, Note Name: G5, Velocity: 81
Note OFF: Time 459360, Note Name: G5
Note ON: Time 459360, Note Name: B4, Velocity: 89
Note OFF: Time 459480, Note Name: B4
Note ON: Time 459480, Note Name: B5, Velocity: 81
Note OFF: Time 459600, Note Name: B5
Note ON: Time 459600, Note Name: D5, Velocity: 90
Note OFF: Time 459720, Note Name: D5
Note ON: Time 459720, Note Name: D6, Velocity: 80
Note OFF: Time 459840, Note Name: D6
Note ON: Time 459840, Note Name: C5, Velocity: 88
Note OFF: Time 459960, Note Name: C5
Note ON: Time 459960, Note Name: C6, Velocity: 82
Note OFF: Time 460080, Note Name: C6
Note ON: Time 460080, Note Name: G4, Velocity: 91
Note OFF: Time 460200, Note Name: G4
Note ON: Time 460200, Note Name: G5, Velocity: 81
Note OFF: Time 460320, Note Name: G5
Note ON: Time 460320, Note Name: C5, Velocity: 89
Note OFF: Time 460440, Note Name: C5
Note ON: Time 460440, Note Name: C6, Velocity: 81
Note OFF: Time 460560, Note Name: C6
Note ON: Time 460560, Note Name: D#5, Velocity: 90
Note OFF: Time 460680, Note Name: D#5
Note ON: Time 460680, Note Name: D#6, Velocity: 80
Note OFF: Time 460800, Note Name: D#6
Note ON: Time 460800, Note Name: D5, Velocity: 88
Note OFF: Time 460920, Note Name: D5
Note ON: Time 460920, Note Name: D6, Velocity: 82
Note OFF: Time 461040, Note Name: D6
Note ON: Time 461040, Note Name: A4, Velocity: 91
Note OFF: Time 461160, Note Name: A4
Note ON: Time 461160, Note Name: A5, Velocity: 80
Note OFF: Time 461280, Note Name: A5
Note ON: Time 461280, Note Name: C#5, Velocity: 88
Note OFF: Time 461400, Note Name: C#5
Note ON: Time 461400, Note Name: C#6, Velocity: 80
Note OFF: Time 461520, Note Name: C#6
Note ON: Time 461520, Note Name: E5, Velocity: 88
Note OFF: Time 461640, Note Name: E5
Note ON: Time 461640, Note Name: E6, Velocity: 78
Note OFF: Time 461760, Note Name: E6
Note ON: Time 461760, Note Name: D5, Velocity: 86
Note OFF: Time 461880, Note Name: D5
Note ON: Time 461880, Note Name: D6, Velocity: 79
Note OFF: Time 462000, Note Name: D6
Note ON: Time 462000, Note Name: A4, Velocity: 88
Note OFF: Time 462120, Note Name: A4
Note ON: Time 462120, Note Name: A5, Velocity: 78
Note OFF: Time 462240, Note Name: A5
Note ON: Time 462240, Note Name: D5, Velocity: 85
Note OFF: Time 462360, Note Name: D5
Note ON: Time 462360, Note Name: D6, Velocity: 77
Note OFF: Time 462480, Note Name: D6
Note ON: Time 462480, Note Name: F5, Velocity: 85
Note OFF: Time 462600, Note Name: F5
Note ON: Time 462600, Note Name: F6, Velocity: 76
Note OFF: Time 462720, Note Name: F6
Note ON: Time 462720, Note Name: D#5, Velocity: 83
Note OFF: Time 462840, Note Name: D#5
Note ON: Time 462840, Note Name: D#6, Velocity: 77
Note OFF: Time 462960, Note Name: D#6
Note ON: Time 462960, Note Name: A#4, Velocity: 85
Note OFF: Time 463080, Note Name: A#4
Note ON: Time 463080, Note Name: A#5, Velocity: 76
Note OFF: Time 463200, Note Name: A#5
Note ON: Time 463200, Note Name: D5, Velocity: 82
Note OFF: Time 463320, Note Name: D5
Note ON: Time 463320, Note Name: D6, Velocity: 75
Note OFF: Time 463440, Note Name: D6
Note ON: Time 463440, Note Name: F5, Velocity: 83
Note OFF: Time 463560, Note Name: F5
Note ON: Time 463560, Note Name: F6, Velocity: 73
Note OFF: Time 463680, Note Name: F6
Note ON: Time 463680, Note Name: D#5, Velocity: 80
Note OFF: Time 463800, Note Name: D#5
Note ON: Time 463800, Note Name: D#6, Velocity: 75
Note OFF: Time 463920, Note Name: D#6
Note ON: Time 463920, Note Name: A#4, Velocity: 82
Note OFF: Time 464040, Note Name: A#4
Note ON: Time 464040, Note Name: A#5, Velocity: 73
Note OFF: Time 464160, Note Name: A#5
Note ON: Time 464160, Note Name: D#5, Velocity: 80
Note OFF: Time 464280, Note Name: D#5
Note ON: Time 464280, Note Name: D#6, Velocity: 72
Note OFF: Time 464400, Note Name: D#6
Note ON: Time 464400, Note Name: F#5, Velocity: 81
Note OFF: Time 464520, Note Name: F#5
Note ON: Time 464520, Note Name: F#6, Velocity: 71
Note OFF: Time 464640, Note Name: F#6
Note ON: Time 464640, Note Name: F5, Velocity: 78
Note OFF: Time 464760, Note Name: F5
Note ON: Time 464760, Note Name: F6, Velocity: 72
Note OFF: Time 464880, Note Name: F6
Note ON: Time 464880, Note Name: C5, Velocity: 80
Note OFF: Time 465000, Note Name: C5
Note ON: Time 465000, Note Name: C6, Velocity: 71
Note OFF: Time 465120, Note Name: C6
Note ON: Time 465120, Note Name: D#5, Velocity: 78
Note OFF: Time 465240, Note Name: D#5
Note ON: Time 465240, Note Name: D#6, Velocity: 70
Note OFF: Time 465360, Note Name: D#6
Note ON: Time 465360, Note Name: F#5, Velocity: 78
Note OFF: Time 465480, Note Name: F#5
Note ON: Time 465480, Note Name: F#6, Velocity: 69
Note OFF: Time 465600, Note Name: F#6
Note ON: Time 465600, Note Name: C#5, Velocity: 75
Note OFF: Time 465720, Note Name: C#5
Note ON: Time 465720, Note Name: C#6, Velocity: 70
Note OFF: Time 465840, Note Name: C#6
Note ON: Time 465840, Note Name: A4, Velocity: 77
Note OFF: Time 465960, Note Name: A4
Note ON: Time 465960, Note Name: A5, Velocity: 68
Note OFF: Time 466080, Note Name: A5
Note ON: Time 466080, Note Name: C5, Velocity: 75
Note OFF: Time 466200, Note Name: C5
Note ON: Time 466200, Note Name: C6, Velocity: 68
Note OFF: Time 466320, Note Name: C6
Note ON: Time 466320, Note Name: D#5, Velocity: 75
Note OFF: Time 466440, Note Name: D#5
Note ON: Time 466440, Note Name: D#6, Velocity: 67
Note OFF: Time 466560, Note Name: D#6
Note ON: Time 466560, Note Name: F#4, Velocity: 73
Note OFF: Time 466680, Note Name: F#4
Note ON: Time 466680, Note Name: F#5, Velocity: 68
Note OFF: Time 466800, Note Name: F#5
Note ON: Time 466800, Note Name: F4, Velocity: 75
Note OFF: Time 466920, Note Name: F4
Note ON: Time 466920, Note Name: F5, Velocity: 66
Note OFF: Time 467040, Note Name: F5
Note ON: Time 467040, Note Name: A4, Velocity: 72
Note OFF: Time 467160, Note Name: A4
Note ON: Time 467160, Note Name: A5, Velocity: 66
Note OFF: Time 467280, Note Name: A5
Note ON: Time 467280, Note Name: D#5, Velocity: 72
Note OFF: Time 467400, Note Name: D#5
Note ON: Time 467400, Note Name: D#6, Velocity: 64
Note OFF: Time 467520, Note Name: D#6
Note ON: Time 467520, Note Name: B4, Velocity: 40
Note ON: Time 467520, Note Name: D5, Velocity: 58
Note OFF: Time 467640, Note Name: B4
Note ON: Time 467640, Note Name: A#4, Velocity: 34
Note OFF: Time 467760, Note Name: A#4
Note ON: Time 467760, Note Name: B4, Velocity: 40
Note OFF: Time 467880, Note Name: B4
Note ON: Time 467880, Note Name: A#4, Velocity: 35
Note OFF: Time 468000, Note Name: A#4
Note ON: Time 468000, Note Name: B4, Velocity: 40
Note OFF: Time 468120, Note Name: B4
Note ON: Time 468120, Note Name: A#4, Velocity: 35
Note OFF: Time 468240, Note Name: A#4
Note ON: Time 468240, Note Name: B4, Velocity: 40
Note OFF: Time 468360, Note Name: B4
Note ON: Time 468360, Note Name: A#4, Velocity: 36
Note OFF: Time 468480, Note Name: A#4
Note OFF: Time 468480, Note Name: D5
Note ON: Time 468480, Note Name: B4, Velocity: 40
Note ON: Time 468480, Note Name: D#5, Velocity: 48
Note OFF: Time 468600, Note Name: B4
Note ON: Time 468600, Note Name: A#4, Velocity: 34
Note OFF: Time 468720, Note Name: A#4
Note ON: Time 468720, Note Name: B4, Velocity: 40
Note OFF: Time 468840, Note Name: B4
Note ON: Time 468840, Note Name: A#4, Velocity: 35
Note OFF: Time 468960, Note Name: A#4
Note OFF: Time 468960, Note Name: D#5
Note ON: Time 468960, Note Name: F#5, Velocity: 51
Note ON: Time 468960, Note Name: B4, Velocity: 40
Note OFF: Time 469080, Note Name: B4
Note ON: Time 469080, Note Name: A#4, Velocity: 35
Note OFF: Time 469200, Note Name: A#4
Note ON: Time 469200, Note Name: B4, Velocity: 40
Note OFF: Time 469320, Note Name: B4
Note ON: Time 469320, Note Name: A#4, Velocity: 36
Note OFF: Time 469440, Note Name: A#4
Note OFF: Time 469440, Note Name: F#5
Note ON: Time 469440, Note Name: A#5, Velocity: 60
Note ON: Time 469440, Note Name: B4, Velocity: 40
Note OFF: Time 469560, Note Name: B4
Note ON: Time 469560, Note Name: A#4, Velocity: 34
Note OFF: Time 469680, Note Name: A#4
Note ON: Time 469680, Note Name: B4, Velocity: 40
Note OFF: Time 469800, Note Name: B4
Note ON: Time 469800, Note Name: A#4, Velocity: 35
Note OFF: Time 469920, Note Name: A#4
Note ON: Time 469920, Note Name: B4, Velocity: 40
Note OFF: Time 470040, Note Name: B4
Note ON: Time 470040, Note Name: A#4, Velocity: 35
Note OFF: Time 470160, Note Name: A#4
Note ON: Time 470160, Note Name: B4, Velocity: 40
Note OFF: Time 470280, Note Name: B4
Note ON: Time 470280, Note Name: A#4, Velocity: 36
Note OFF: Time 470400, Note Name: A#4
Note OFF: Time 470400, Note Name: A#5
Note ON: Time 470400, Note Name: B4, Velocity: 40
Note ON: Time 470400, Note Name: F#5, Velocity: 62
Note OFF: Time 470520, Note Name: B4
Note ON: Time 470520, Note Name: A#4, Velocity: 34
Note OFF: Time 470640, Note Name: A#4
Note ON: Time 470640, Note Name: B4, Velocity: 40
Note OFF: Time 470760, Note Name: B4
Note ON: Time 470760, Note Name: A#4, Velocity: 35
Note OFF: Time 470880, Note Name: A#4
Note OFF: Time 470880, Note Name: F#5
Note ON: Time 470880, Note Name: B4, Velocity: 40
Note ON: Time 470880, Note Name: D#5, Velocity: 51
Note OFF: Time 471000, Note Name: B4
Note ON: Time 471000, Note Name: A#4, Velocity: 35
Note OFF: Time 471120, Note Name: A#4
Note ON: Time 471120, Note Name: A#4, Velocity: 40
Note OFF: Time 471240, Note Name: A#4
Note ON: Time 471240, Note Name: C5, Velocity: 36
Note OFF: Time 471360, Note Name: C5
Note OFF: Time 471360, Note Name: D#5
Note ON: Time 471360, Note Name: D5, Velocity: 52
Note ON: Time 471360, Note Name: A#4, Velocity: 39
Note OFF: Time 471441, Note Name: A#4
Note ON: Time 471441, Note Name: C5, Velocity: 33
Note OFF: Time 471521, Note Name: C5
Note ON: Time 471521, Note Name: A#4, Velocity: 39
Note ON: Time 471601, Note Name: C5, Velocity: 35
Note OFF: Time 471602, Note Name: A#4
Note OFF: Time 471682, Note Name: C5
Note ON: Time 471682, Note Name: A#4, Velocity: 39
Note OFF: Time 471762, Note Name: A#4
Note ON: Time 471762, Note Name: C5, Velocity: 35
Note ON: Time 471840, Note Name: A#4, Velocity: 40
Note OFF: Time 471843, Note Name: C5
Note OFF: Time 471921, Note Name: A#4
Note ON: Time 471921, Note Name: C5, Velocity: 35
Note OFF: Time 472001, Note Name: C5
Note ON: Time 472001, Note Name: A#4, Velocity: 40
Note ON: Time 472081, Note Name: C5, Velocity: 36
Note OFF: Time 472082, Note Name: A#4
Note OFF: Time 472162, Note Name: C5
Note ON: Time 472162, Note Name: A#4, Velocity: 40
Note OFF: Time 472242, Note Name: A#4
Note ON: Time 472242, Note Name: C5, Velocity: 36
Note OFF: Time 472320, Note Name: D5
Note ON: Time 472320, Note Name: D#5, Velocity: 60
Note ON: Time 472320, Note Name: A#4, Velocity: 40
Note OFF: Time 472323, Note Name: C5
Note OFF: Time 472401, Note Name: A#4
Note ON: Time 472401, Note Name: C5, Velocity: 35
Note OFF: Time 472481, Note Name: C5
Note ON: Time 472481, Note Name: A#4, Velocity: 41
Note ON: Time 472561, Note Name: C5, Velocity: 37
Note OFF: Time 472562, Note Name: A#4
Note OFF: Time 472642, Note Name: C5
Note ON: Time 472642, Note Name: A#4, Velocity: 41
Note OFF: Time 472722, Note Name: A#4
Note ON: Time 472722, Note Name: C5, Velocity: 37
Note ON: Time 472800, Note Name: A#4, Velocity: 42
Note OFF: Time 472803, Note Name: C5
Note OFF: Time 472881, Note Name: A#4
Note ON: Time 472881, Note Name: C5, Velocity: 37
Note OFF: Time 472961, Note Name: C5
Note ON: Time 472961, Note Name: A#4, Velocity: 43
Note OFF: Time 473040, Note Name: D#5
Note ON: Time 473040, Note Name: G5, Velocity: 65
Note ON: Time 473041, Note Name: C5, Velocity: 38
Note OFF: Time 473042, Note Name: A#4
Note OFF: Time 473122, Note Name: C5
Note ON: Time 473122, Note Name: A#4, Velocity: 43
Note OFF: Time 473202, Note Name: A#4
Note ON: Time 473202, Note Name: C5, Velocity: 38
Note OFF: Time 473280, Note Name: G5
Note ON: Time 473280, Note Name: A#5, Velocity: 74
Note ON: Time 473280, Note Name: A#4, Velocity: 44
Note OFF: Time 473283, Note Name: C5
Note OFF: Time 473361, Note Name: A#4
Note ON: Time 473361, Note Name: C5, Velocity: 37
Note OFF: Time 473441, Note Name: C5
Note ON: Time 473441, Note Name: A#4, Velocity: 44
Note ON: Time 473521, Note Name: C5, Velocity: 40
Note OFF: Time 473522, Note Name: A#4
Note OFF: Time 473602, Note Name: C5
Note ON: Time 473602, Note Name: A#4, Velocity: 45
Note OFF: Time 473682, Note Name: A#4
Note ON: Time 473682, Note Name: C5, Velocity: 40
Note ON: Time 473760, Note Name: A#4, Velocity: 45
Note OFF: Time 473763, Note Name: C5
Note OFF: Time 473841, Note Name: A#4
Note ON: Time 473841, Note Name: C5, Velocity: 40
Note OFF: Time 473921, Note Name: C5
Note ON: Time 473921, Note Name: A#4, Velocity: 45
Note OFF: Time 474000, Note Name: A#5
Note ON: Time 474000, Note Name: G#5, Velocity: 65
Note ON: Time 474001, Note Name: C5, Velocity: 40
Note OFF: Time 474002, Note Name: A#4
Note OFF: Time 474082, Note Name: C5
Note ON: Time 474082, Note Name: A#4, Velocity: 45
Note OFF: Time 474162, Note Name: A#4
Note ON: Time 474162, Note Name: C5, Velocity: 40
Note OFF: Time 474240, Note Name: G#5
Note ON: Time 474240, Note Name: A#4, Velocity: 46
Note ON: Time 474240, Note Name: G5, Velocity: 64
Note OFF: Time 474243, Note Name: C5
Note OFF: Time 474321, Note Name: A#4
Note ON: Time 474321, Note Name: C5, Velocity: 40
Note OFF: Time 474401, Note Name: C5
Note ON: Time 474401, Note Name: A#4, Velocity: 47
Note OFF: Time 474480, Note Name: G5
Note ON: Time 474480, Note Name: F5, Velocity: 64
Note ON: Time 474481, Note Name: C5, Velocity: 42
Note OFF: Time 474482, Note Name: A#4
Note OFF: Time 474562, Note Name: C5
Note ON: Time 474562, Note Name: A#4, Velocity: 47
Note OFF: Time 474642, Note Name: A#4
Note ON: Time 474642, Note Name: C5, Velocity: 42
Note OFF: Time 474720, Note Name: F5
Note ON: Time 474720, Note Name: A#4, Velocity: 48
Note ON: Time 474720, Note Name: D#5, Velocity: 69
Note OFF: Time 474723, Note Name: C5
Note OFF: Time 474801, Note Name: A#4
Note ON: Time 474801, Note Name: C5, Velocity: 41
Note OFF: Time 474881, Note Name: C5
Note ON: Time 474881, Note Name: A#4, Velocity: 48
Note OFF: Time 474960, Note Name: D#5
Note ON: Time 474960, Note Name: D5, Velocity: 69
Note ON: Time 474961, Note Name: C5, Velocity: 44
Note OFF: Time 474962, Note Name: A#4
Note OFF: Time 475042, Note Name: C5
Note ON: Time 475042, Note Name: A#4, Velocity: 48
Note OFF: Time 475122, Note Name: A#4
Note ON: Time 475122, Note Name: C5, Velocity: 43
Note OFF: Time 475200, Note Name: D5
Note ON: Time 475200, Note Name: D#5, Velocity: 66
Note ON: Time 475200, Note Name: A#4, Velocity: 43
Note OFF: Time 475203, Note Name: C5
Note OFF: Time 475281, Note Name: A#4
Note ON: Time 475281, Note Name: C5, Velocity: 37
Note OFF: Time 475361, Note Name: C5
Note ON: Time 475361, Note Name: A#4, Velocity: 44
Note ON: Time 475441, Note Name: C5, Velocity: 39
Note OFF: Time 475442, Note Name: A#4
Note OFF: Time 475522, Note Name: C5
Note ON: Time 475522, Note Name: A#4, Velocity: 42
Note OFF: Time 475602, Note Name: A#4
Note ON: Time 475602, Note Name: C5, Velocity: 38
Note ON: Time 475680, Note Name: A#4, Velocity: 43
Note OFF: Time 475683, Note Name: C5
Note OFF: Time 475761, Note Name: A#4
Note ON: Time 475761, Note Name: C5, Velocity: 36
Note OFF: Time 475841, Note Name: C5
Note ON: Time 475841, Note Name: A#4, Velocity: 42
Note OFF: Time 475920, Note Name: D#5
Note ON: Time 475920, Note Name: D5, Velocity: 63
Note ON: Time 475921, Note Name: C5, Velocity: 37
Note OFF: Time 475922, Note Name: A#4
Note OFF: Time 476002, Note Name: C5
Note ON: Time 476002, Note Name: A#4, Velocity: 41
Note OFF: Time 476082, Note Name: A#4
Note ON: Time 476082, Note Name: C5, Velocity: 36
Note OFF: Time 476160, Note Name: D5
Note ON: Time 476160, Note Name: F5, Velocity: 60
Note ON: Time 476160, Note Name: A#4, Velocity: 39
Note OFF: Time 476163, Note Name: C5
Note OFF: Time 476241, Note Name: A#4
Note ON: Time 476241, Note Name: C5, Velocity: 33
Note OFF: Time 476321, Note Name: C5
Note ON: Time 476321, Note Name: A#4, Velocity: 38
Note OFF: Time 476400, Note Name: F5
Note ON: Time 476400, Note Name: D#5, Velocity: 57
Note ON: Time 476401, Note Name: C5, Velocity: 34
Note OFF: Time 476402, Note Name: A#4
Note OFF: Time 476482, Note Name: C5
Note ON: Time 476482, Note Name: A#4, Velocity: 37
Note OFF: Time 476562, Note Name: A#4
Note ON: Time 476562, Note Name: C5, Velocity: 33
Note ON: Time 476640, Note Name: A#4, Velocity: 37
Note OFF: Time 476643, Note Name: C5
Note OFF: Time 476721, Note Name: A#4
Note ON: Time 476721, Note Name: C5, Velocity: 32
Note OFF: Time 476801, Note Name: C5
Note ON: Time 476801, Note Name: A#4, Velocity: 37
Note OFF: Time 476880, Note Name: D#5
Note ON: Time 476880, Note Name: D5, Velocity: 55
Note ON: Time 476881, Note Name: C5, Velocity: 32
Note OFF: Time 476882, Note Name: A#4
Note OFF: Time 476962, Note Name: C5
Note ON: Time 476962, Note Name: A#4, Velocity: 36
Note OFF: Time 477042, Note Name: A#4
Note ON: Time 477042, Note Name: C5, Velocity: 31
Note OFF: Time 477120, Note Name: D5
Note ON: Time 477120, Note Name: A#4, Velocity: 50
Note ON: Time 477120, Note Name: D5, Velocity: 39
Note OFF: Time 477123, Note Name: C5
Note OFF: Time 477181, Note Name: D5
Note ON: Time 477181, Note Name: D#5, Velocity: 33
Note ON: Time 477241, Note Name: D5, Velocity: 38
Note OFF: Time 477241, Note Name: D#5
Note OFF: Time 477301, Note Name: D5
Note ON: Time 477301, Note Name: D#5, Velocity: 34
Note ON: Time 477361, Note Name: D5, Velocity: 37
Note OFF: Time 477362, Note Name: D#5
Note OFF: Time 477422, Note Name: D5
Note ON: Time 477422, Note Name: D#5, Velocity: 33
Note ON: Time 477480, Note Name: D5, Velocity: 37
Note OFF: Time 477482, Note Name: D#5
Note OFF: Time 477541, Note Name: D5
Note ON: Time 477541, Note Name: D#5, Velocity: 32
Note ON: Time 477601, Note Name: D5, Velocity: 37
Note OFF: Time 477601, Note Name: D#5
Note OFF: Time 477661, Note Name: D5
Note ON: Time 477661, Note Name: D#5, Velocity: 32
Note ON: Time 477721, Note Name: D5, Velocity: 36
Note OFF: Time 477722, Note Name: D#5
Note OFF: Time 477782, Note Name: D5
Note ON: Time 477782, Note Name: D#5, Velocity: 31
Note ON: Time 477840, Note Name: D5, Velocity: 37
Note OFF: Time 477842, Note Name: D#5
Note OFF: Time 477900, Note Name: D5
Note ON: Time 477907, Note Name: D#5, Velocity: 32
Note ON: Time 477960, Note Name: D5, Velocity: 36
Note OFF: Time 477967, Note Name: D#5
Note ON: Time 478010, Note Name: C5, Velocity: 32
Note OFF: Time 478020, Note Name: D5
Note OFF: Time 478070, Note Name: C5
Note OFF: Time 478080, Note Name: A#4
Note ON: Time 478080, Note Name: D5, Velocity: 41
Note ON: Time 478200, Note Name: D#5, Velocity: 37
Note OFF: Time 478212, Note Name: D5
Note ON: Time 478320, Note Name: D5, Velocity: 41
Note OFF: Time 478332, Note Name: D#5
Note ON: Time 478440, Note Name: C5, Velocity: 37
Note OFF: Time 478452, Note Name: D5
Note ON: Time 478560, Note Name: A#4, Velocity: 42
Note OFF: Time 478572, Note Name: C5
Note ON: Time 478680, Note Name: A4, Velocity: 37
Note OFF: Time 478692, Note Name: A#4
Note ON: Time 478800, Note Name: A#4, Velocity: 40
Note OFF: Time 478812, Note Name: A4
Note ON: Time 478920, Note Name: C5, Velocity: 37
Note OFF: Time 478932, Note Name: A#4
Note ON: Time 479040, Note Name: D5, Velocity: 41
Note OFF: Time 479052, Note Name: C5
Note ON: Time 479160, Note Name: D#5, Velocity: 42
Note OFF: Time 479172, Note Name: D5
Note ON: Time 479280, Note Name: F5, Velocity: 43
Note OFF: Time 479292, Note Name: D#5
Note ON: Time 479400, Note Name: G5, Velocity: 44
Note OFF: Time 479412, Note Name: F5
Note ON: Time 479520, Note Name: A5, Velocity: 45
Note OFF: Time 479532, Note Name: G5
Note ON: Time 479640, Note Name: A#5, Velocity: 46
Note OFF: Time 479652, Note Name: A5
Note ON: Time 479760, Note Name: C6, Velocity: 47
Note OFF: Time 479772, Note Name: A#5
Note ON: Time 479880, Note Name: D6, Velocity: 48
Note OFF: Time 479892, Note Name: C6
Note ON: Time 480000, Note Name: D#6, Velocity: 49
Note OFF: Time 480012, Note Name: D6
Note ON: Time 480120, Note Name: F6, Velocity: 46
Note OFF: Time 480132, Note Name: D#6
Note ON: Time 480240, Note Name: D#6, Velocity: 48
Note OFF: Time 480252, Note Name: F6
Note ON: Time 480360, Note Name: D6, Velocity: 47
Note OFF: Time 480372, Note Name: D#6
Note ON: Time 480480, Note Name: C6, Velocity: 46
Note OFF: Time 480492, Note Name: D6
Note ON: Time 480600, Note Name: A#5, Velocity: 45
Note OFF: Time 480612, Note Name: C6
Note ON: Time 480720, Note Name: A5, Velocity: 44
Note OFF: Time 480732, Note Name: A#5
Note ON: Time 480840, Note Name: G5, Velocity: 43
Note OFF: Time 480852, Note Name: A5
Note ON: Time 480960, Note Name: F5, Velocity: 42
Note OFF: Time 480972, Note Name: G5
Note ON: Time 481080, Note Name: D#5, Velocity: 41
Note OFF: Time 481092, Note Name: F5
Note ON: Time 481200, Note Name: D5, Velocity: 40
Note OFF: Time 481212, Note Name: D#5
Note ON: Time 481320, Note Name: C5, Velocity: 39
Note OFF: Time 481332, Note Name: D5
Note ON: Time 481440, Note Name: A#4, Velocity: 38
Note OFF: Time 481452, Note Name: C5
Note ON: Time 481560, Note Name: A4, Velocity: 37
Note OFF: Time 481572, Note Name: A#4
Note ON: Time 481680, Note Name: G4, Velocity: 35
Note OFF: Time 481692, Note Name: A4
Note ON: Time 481800, Note Name: F4, Velocity: 34
Note OFF: Time 481812, Note Name: G4
Note OFF: Time 481920, Note Name: F4
Note ON: Time 481920, Note Name: D5, Velocity: 37
Note ON: Time 481920, Note Name: F4, Velocity: 31
Note OFF: Time 482277, Note Name: F4
Note OFF: Time 482277, Note Name: D5
Note ON: Time 482280, Note Name: F4, Velocity: 25
Note ON: Time 482280, Note Name: D5, Velocity: 30
Note OFF: Time 482399, Note Name: D5
Note OFF: Time 482399, Note Name: F4
Note ON: Time 482400, Note Name: D5, Velocity: 39
Note ON: Time 482400, Note Name: F4, Velocity: 33
Note OFF: Time 482640, Note Name: F4
Note OFF: Time 482640, Note Name: D5
Note ON: Time 482760, Note Name: D4, Velocity: 71
Note ON: Time 482760, Note Name: F4, Velocity: 71
Note ON: Time 482760, Note Name: G4, Velocity: 85
Note OFF: Time 482880, Note Name: G4
Note OFF: Time 482880, Note Name: F4
Note OFF: Time 482880, Note Name: D4
Note ON: Time 482880, Note Name: D#4, Velocity: 88
Note ON: Time 482880, Note Name: D#5, Velocity: 105
Note ON: Time 482880, Note Name: G4, Velocity: 88
Note OFF: Time 483237, Note Name: G4
Note OFF: Time 483237, Note Name: D#4
Note OFF: Time 483237, Note Name: D#5
Note ON: Time 483240, Note Name: D#4, Velocity: 59
Note ON: Time 483240, Note Name: G4, Velocity: 59
Note ON: Time 483240, Note Name: D#5, Velocity: 72
Note OFF: Time 483359, Note Name: D#5
Note OFF: Time 483359, Note Name: G4
Note OFF: Time 483359, Note Name: D#4
Note ON: Time 483360, Note Name: D#5, Velocity: 94
Note ON: Time 483360, Note Name: G4, Velocity: 79
Note ON: Time 483360, Note Name: D#4, Velocity: 79
Note OFF: Time 483600, Note Name: D#4
Note OFF: Time 483600, Note Name: G4
Note OFF: Time 483600, Note Name: D#5
Note ON: Time 483720, Note Name: G4, Velocity: 30
Note ON: Time 483720, Note Name: F4, Velocity: 25
Note OFF: Time 483840, Note Name: F4
Note OFF: Time 483840, Note Name: G4
Note ON: Time 483840, Note Name: G4, Velocity: 31
Note ON: Time 483840, Note Name: D#5, Velocity: 37
Note OFF: Time 484197, Note Name: D#5
Note OFF: Time 484197, Note Name: G4
Note ON: Time 484200, Note Name: D#5, Velocity: 30
Note ON: Time 484200, Note Name: G4, Velocity: 25
Note OFF: Time 484319, Note Name: G4
Note OFF: Time 484319, Note Name: D#5
Note ON: Time 484320, Note Name: D#5, Velocity: 39
Note ON: Time 484320, Note Name: G4, Velocity: 33
Note OFF: Time 484560, Note Name: G4
Note OFF: Time 484560, Note Name: D#5
Note ON: Time 484680, Note Name: E4, Velocity: 71
Note ON: Time 484680, Note Name: G4, Velocity: 71
Note ON: Time 484680, Note Name: A4, Velocity: 85
Note OFF: Time 484800, Note Name: A4
Note OFF: Time 484800, Note Name: G4
Note OFF: Time 484800, Note Name: E4
Note ON: Time 484800, Note Name: F4, Velocity: 88
Note ON: Time 484800, Note Name: F5, Velocity: 105
Note ON: Time 484800, Note Name: A4, Velocity: 88
Note OFF: Time 485157, Note Name: A4
Note OFF: Time 485157, Note Name: F5
Note OFF: Time 485157, Note Name: F4
Note ON: Time 485160, Note Name: F5, Velocity: 72
Note ON: Time 485160, Note Name: A4, Velocity: 59
Note ON: Time 485160, Note Name: F4, Velocity: 59
Note OFF: Time 485279, Note Name: F4
Note OFF: Time 485279, Note Name: A4
Note OFF: Time 485279, Note Name: F5
Note ON: Time 485280, Note Name: A4, Velocity: 79
Note ON: Time 485280, Note Name: F5, Velocity: 94
Note ON: Time 485280, Note Name: F4, Velocity: 79
Note OFF: Time 485520, Note Name: F4
Note OFF: Time 485520, Note Name: F5
Note OFF: Time 485520, Note Name: A4
Note ON: Time 485640, Note Name: G4, Velocity: 25
Note ON: Time 485640, Note Name: A4, Velocity: 30
Note OFF: Time 485760, Note Name: A4
Note OFF: Time 485760, Note Name: G4
Note ON: Time 485760, Note Name: F5, Velocity: 37
Note ON: Time 485760, Note Name: A4, Velocity: 31
Note OFF: Time 486117, Note Name: A4
Note OFF: Time 486117, Note Name: F5
Note ON: Time 486120, Note Name: A4, Velocity: 25
Note ON: Time 486120, Note Name: F5, Velocity: 30
Note OFF: Time 486239, Note Name: F5
Note OFF: Time 486239, Note Name: A4
Note ON: Time 486240, Note Name: F5, Velocity: 39
Note ON: Time 486240, Note Name: A4, Velocity: 33
Note OFF: Time 486480, Note Name: A4
Note OFF: Time 486480, Note Name: F5
Note ON: Time 486600, Note Name: F4, Velocity: 65
Note ON: Time 486600, Note Name: G#4, Velocity: 65
Note ON: Time 486600, Note Name: A#4, Velocity: 78
Note OFF: Time 486720, Note Name: A#4
Note OFF: Time 486720, Note Name: G#4
Note OFF: Time 486720, Note Name: F4
Note ON: Time 486720, Note Name: G4, Velocity: 80
Note ON: Time 486720, Note Name: A#4, Velocity: 80
Note ON: Time 486720, Note Name: G5, Velocity: 96
Note OFF: Time 487077, Note Name: G5
Note OFF: Time 487077, Note Name: A#4
Note OFF: Time 487077, Note Name: G4
Note ON: Time 487080, Note Name: G4, Velocity: 54
Note ON: Time 487080, Note Name: G5, Velocity: 66
Note ON: Time 487080, Note Name: A#4, Velocity: 54
Note OFF: Time 487199, Note Name: A#4
Note OFF: Time 487199, Note Name: G5
Note OFF: Time 487199, Note Name: G4
Note ON: Time 487200, Note Name: G5, Velocity: 86
Note ON: Time 487200, Note Name: A#4, Velocity: 72
Note ON: Time 487200, Note Name: G4, Velocity: 72
Note OFF: Time 487440, Note Name: G4
Note OFF: Time 487440, Note Name: A#4
Note OFF: Time 487440, Note Name: G5
Note ON: Time 488520, Note Name: G4, Velocity: 74
Note ON: Time 488520, Note Name: D#5, Velocity: 90
Note OFF: Time 488640, Note Name: D#5
Note OFF: Time 488640, Note Name: G4
Note ON: Time 488640, Note Name: A4, Velocity: 92
Note ON: Time 488640, Note Name: C5, Velocity: 92
Note ON: Time 488640, Note Name: A5, Velocity: 110
Note ON: Time 488640, Note Name: D#5, Velocity: 92
Note OFF: Time 488997, Note Name: D#5
Note OFF: Time 488997, Note Name: A4
Note OFF: Time 488997, Note Name: C5
Note OFF: Time 488997, Note Name: A5
Note ON: Time 489000, Note Name: A4, Velocity: 67
Note ON: Time 489000, Note Name: C5, Velocity: 67
Note ON: Time 489000, Note Name: D#5, Velocity: 67
Note ON: Time 489000, Note Name: A5, Velocity: 82
Note OFF: Time 489119, Note Name: A5
Note OFF: Time 489119, Note Name: A4
Note OFF: Time 489119, Note Name: C5
Note OFF: Time 489119, Note Name: D#5
Note ON: Time 489120, Note Name: A5, Velocity: 108
Note ON: Time 489120, Note Name: C5, Velocity: 90
Note ON: Time 489120, Note Name: A4, Velocity: 90
Note ON: Time 489120, Note Name: D#5, Velocity: 90
Note OFF: Time 489360, Note Name: D#5
Note OFF: Time 489360, Note Name: A5
Note OFF: Time 489360, Note Name: C5
Note OFF: Time 489360, Note Name: A4
Note ON: Time 490920, Note Name: D6, Velocity: 57
Note ON: Time 490920, Note Name: A#5, Velocity: 47
Note ON: Time 490920, Note Name: F5, Velocity: 47
Note ON: Time 490920, Note Name: D5, Velocity: 47
Note OFF: Time 491040, Note Name: D5
Note OFF: Time 491040, Note Name: D6
Note OFF: Time 491040, Note Name: A#5
Note OFF: Time 491040, Note Name: F5
Note ON: Time 491040, Note Name: A#5, Velocity: 42
Note ON: Time 491040, Note Name: D5, Velocity: 42
Note ON: Time 491040, Note Name: D6, Velocity: 51
Note ON: Time 491040, Note Name: F5, Velocity: 42
Note OFF: Time 491220, Note Name: F5
Note OFF: Time 491220, Note Name: A#5
Note OFF: Time 491220, Note Name: D5
Note OFF: Time 491220, Note Name: D6
Note ON: Time 491280, Note Name: F5, Velocity: 45
Note ON: Time 491280, Note Name: A#5, Velocity: 45
Note ON: Time 491280, Note Name: D5, Velocity: 45
Note ON: Time 491280, Note Name: D#6, Velocity: 55
Note OFF: Time 491340, Note Name: D#6
Note OFF: Time 491340, Note Name: F5
Note OFF: Time 491340, Note Name: A#5
Note OFF: Time 491340, Note Name: D5
Note ON: Time 491400, Note Name: A#5, Velocity: 47
Note ON: Time 491400, Note Name: D6, Velocity: 55
Note ON: Time 491400, Note Name: F5, Velocity: 47
Note ON: Time 491400, Note Name: D5, Velocity: 47
Note OFF: Time 491460, Note Name: D5
Note OFF: Time 491460, Note Name: A#5
Note OFF: Time 491460, Note Name: D6
Note OFF: Time 491460, Note Name: F5
Note ON: Time 491520, Note Name: D6, Velocity: 62
Note ON: Time 491520, Note Name: F5, Velocity: 51
Note ON: Time 491520, Note Name: D5, Velocity: 51
Note ON: Time 491520, Note Name: A#5, Velocity: 51
Note OFF: Time 491580, Note Name: A#5
Note OFF: Time 491580, Note Name: D6
Note OFF: Time 491580, Note Name: F5
Note OFF: Time 491580, Note Name: D5
Note ON: Time 491760, Note Name: D5, Velocity: 49
Note ON: Time 491760, Note Name: A#4, Velocity: 49
Note ON: Time 491760, Note Name: F5, Velocity: 49
Note ON: Time 491760, Note Name: A#5, Velocity: 59
Note OFF: Time 491820, Note Name: A#5
Note OFF: Time 491820, Note Name: D5
Note OFF: Time 491820, Note Name: A#4
Note OFF: Time 491820, Note Name: F5
Note ON: Time 492000, Note Name: F4, Velocity: 76
Note ON: Time 492000, Note Name: A#4, Velocity: 76
Note ON: Time 492000, Note Name: D4, Velocity: 76
Note ON: Time 492000, Note Name: D5, Velocity: 92
Note OFF: Time 492060, Note Name: D5
Note OFF: Time 492060, Note Name: F4
Note OFF: Time 492060, Note Name: A#4
Note OFF: Time 492060, Note Name: D4
Note ON: Time 492240, Note Name: D4, Velocity: 70
Note ON: Time 492240, Note Name: F4, Velocity: 70
Note ON: Time 492240, Note Name: A#3, Velocity: 70
Note ON: Time 492240, Note Name: A#4, Velocity: 84
Note OFF: Time 492300, Note Name: A#4
Note OFF: Time 492300, Note Name: D4
Note OFF: Time 492300, Note Name: F4
Note OFF: Time 492300, Note Name: A#3
Note ON: Time 492480, Note Name: F5, Velocity: 42
Note ON: Time 492480, Note Name: D6, Velocity: 42
Note ON: Time 492480, Note Name: A#5, Velocity: 42
Note ON: Time 492480, Note Name: F6, Velocity: 51
Note OFF: Time 492837, Note Name: F6
Note OFF: Time 492837, Note Name: F5
Note OFF: Time 492837, Note Name: D6
Note OFF: Time 492837, Note Name: A#5
Note ON: Time 492840, Note Name: D6, Velocity: 47
Note ON: Time 492840, Note Name: F5, Velocity: 47
Note ON: Time 492840, Note Name: F6, Velocity: 57
Note ON: Time 492840, Note Name: A#5, Velocity: 47
Note OFF: Time 492960, Note Name: A#5
Note OFF: Time 492960, Note Name: D6
Note OFF: Time 492960, Note Name: F5
Note OFF: Time 492960, Note Name: F6
Note ON: Time 492960, Note Name: A#5, Velocity: 42
Note ON: Time 492960, Note Name: F5, Velocity: 42
Note ON: Time 492960, Note Name: D6, Velocity: 42
Note ON: Time 492960, Note Name: F6, Velocity: 51
Note OFF: Time 493140, Note Name: F6
Note OFF: Time 493140, Note Name: A#5
Note OFF: Time 493140, Note Name: F5
Note OFF: Time 493140, Note Name: D6
Note ON: Time 493200, Note Name: G6, Velocity: 55
Note ON: Time 493200, Note Name: D6, Velocity: 45
Note ON: Time 493200, Note Name: F5, Velocity: 45
Note ON: Time 493200, Note Name: A#5, Velocity: 45
Note OFF: Time 493260, Note Name: A#5
Note OFF: Time 493260, Note Name: G6
Note OFF: Time 493260, Note Name: D6
Note OFF: Time 493260, Note Name: F5
Note ON: Time 493320, Note Name: F5, Velocity: 47
Note ON: Time 493320, Note Name: F6, Velocity: 55
Note ON: Time 493320, Note Name: A#5, Velocity: 47
Note ON: Time 493320, Note Name: D6, Velocity: 47
Note OFF: Time 493380, Note Name: D6
Note OFF: Time 493380, Note Name: F5
Note OFF: Time 493380, Note Name: F6
Note OFF: Time 493380, Note Name: A#5
Note ON: Time 493440, Note Name: F6, Velocity: 62
Note ON: Time 493440, Note Name: A#5, Velocity: 51
Note ON: Time 493440, Note Name: F5, Velocity: 51
Note ON: Time 493440, Note Name: D6, Velocity: 51
Note OFF: Time 493500, Note Name: D6
Note OFF: Time 493500, Note Name: F6
Note OFF: Time 493500, Note Name: A#5
Note OFF: Time 493500, Note Name: F5
Note ON: Time 493680, Note Name: F5, Velocity: 49
Note ON: Time 493680, Note Name: D5, Velocity: 49
Note ON: Time 493680, Note Name: A#5, Velocity: 49
Note ON: Time 493680, Note Name: D6, Velocity: 59
Note OFF: Time 493740, Note Name: D6
Note OFF: Time 493740, Note Name: F5
Note OFF: Time 493740, Note Name: D5
Note OFF: Time 493740, Note Name: A#5
Note ON: Time 493920, Note Name: F5, Velocity: 92
Note ON: Time 493920, Note Name: A#4, Velocity: 76
Note ON: Time 493920, Note Name: F4, Velocity: 76
Note ON: Time 493920, Note Name: D5, Velocity: 76
Note OFF: Time 493980, Note Name: D5
Note OFF: Time 493980, Note Name: F5
Note OFF: Time 493980, Note Name: A#4
Note OFF: Time 493980, Note Name: F4
Note ON: Time 494160, Note Name: D5, Velocity: 84
Note ON: Time 494160, Note Name: F4, Velocity: 70
Note ON: Time 494160, Note Name: D4, Velocity: 70
Note ON: Time 494160, Note Name: A#4, Velocity: 70
Note OFF: Time 494220, Note Name: A#4
Note OFF: Time 494220, Note Name: D5
Note OFF: Time 494220, Note Name: F4
Note OFF: Time 494220, Note Name: D4
Note ON: Time 494400, Note Name: F6, Velocity: 55
Note ON: Time 494400, Note Name: D6, Velocity: 45
Note OFF: Time 494460, Note Name: D6
Note OFF: Time 494460, Note Name: F6
Note ON: Time 494640, Note Name: D6, Velocity: 53
Note ON: Time 494640, Note Name: A#5, Velocity: 44
Note OFF: Time 494700, Note Name: A#5
Note OFF: Time 494700, Note Name: D6
Note ON: Time 494880, Note Name: F5, Velocity: 90
Note ON: Time 494880, Note Name: D5, Velocity: 74
Note OFF: Time 494940, Note Name: D5
Note OFF: Time 494940, Note Name: F5
Note ON: Time 495120, Note Name: D5, Velocity: 75
Note ON: Time 495120, Note Name: A#4, Velocity: 63
Note OFF: Time 495180, Note Name: A#4
Note OFF: Time 495180, Note Name: D5
Note ON: Time 495360, Note Name: D6, Velocity: 55
Note ON: Time 495360, Note Name: A#5, Velocity: 45
Note OFF: Time 495420, Note Name: A#5
Note OFF: Time 495420, Note Name: D6
Note ON: Time 495600, Note Name: A#5, Velocity: 53
Note ON: Time 495600, Note Name: F5, Velocity: 44
Note OFF: Time 495660, Note Name: F5
Note OFF: Time 495660, Note Name: A#5
Note ON: Time 495840, Note Name: D5, Velocity: 90
Note ON: Time 495840, Note Name: A#4, Velocity: 74
Note OFF: Time 495900, Note Name: A#4
Note OFF: Time 495900, Note Name: D5
Note ON: Time 496080, Note Name: A#4, Velocity: 75
Note ON: Time 496080, Note Name: F4, Velocity: 63
Note OFF: Time 496140, Note Name: F4
Note OFF: Time 496140, Note Name: A#4
Note ON: Time 496320, Note Name: A#5, Velocity: 55
Note ON: Time 496320, Note Name: F5, Velocity: 45
Note OFF: Time 496380, Note Name: F5
Note OFF: Time 496380, Note Name: A#5
Note ON: Time 496560, Note Name: F5, Velocity: 53
Note ON: Time 496560, Note Name: D5, Velocity: 44
Note OFF: Time 496620, Note Name: D5
Note OFF: Time 496620, Note Name: F5
Note ON: Time 496800, Note Name: A#4, Velocity: 90
Note ON: Time 496800, Note Name: F4, Velocity: 74
Note OFF: Time 496860, Note Name: F4
Note OFF: Time 496860, Note Name: A#4
Note ON: Time 497040, Note Name: D4, Velocity: 63
Note ON: Time 497040, Note Name: F4, Velocity: 75
Note OFF: Time 497100, Note Name: F4
Note OFF: Time 497100, Note Name: D4
Note ON: Time 497280, Note Name: A4, Velocity: 42
Note ON: Time 497280, Note Name: D#5, Velocity: 52
Note OFF: Time 498240, Note Name: D#5
Note OFF: Time 498240, Note Name: A4
Note ON: Time 498240, Note Name: D5, Velocity: 45
Note ON: Time 498240, Note Name: F5, Velocity: 55
Note OFF: Time 498300, Note Name: F5
Note OFF: Time 498300, Note Name: D5
Note ON: Time 498480, Note Name: A#4, Velocity: 44
Note ON: Time 498480, Note Name: D5, Velocity: 53
Note OFF: Time 498540, Note Name: D5
Note OFF: Time 498540, Note Name: A#4
Note ON: Time 498720, Note Name: D4, Velocity: 61
Note ON: Time 498720, Note Name: F4, Velocity: 75
Note OFF: Time 498780, Note Name: F4
Note OFF: Time 498780, Note Name: D4
Note ON: Time 498960, Note Name: A#3, Velocity: 57
Note ON: Time 498960, Note Name: D4, Velocity: 68
Note OFF: Time 499020, Note Name: D4
Note OFF: Time 499020, Note Name: A#3
Note ON: Time 499200, Note Name: A#4, Velocity: 51
Note ON: Time 499200, Note Name: D5, Velocity: 62
Note OFF: Time 499260, Note Name: D5
Note OFF: Time 499260, Note Name: A#4
Note ON: Time 499440, Note Name: F4, Velocity: 49
Note ON: Time 499440, Note Name: A#4, Velocity: 59
Note OFF: Time 499500, Note Name: A#4
Note OFF: Time 499500, Note Name: F4
Note ON: Time 499680, Note Name: D4, Velocity: 79
Note ON: Time 499680, Note Name: A#3, Velocity: 65
Note OFF: Time 499740, Note Name: A#3
Note OFF: Time 499740, Note Name: D4
Note ON: Time 499920, Note Name: A#3, Velocity: 72
Note ON: Time 499920, Note Name: F3, Velocity: 60
Note OFF: Time 499980, Note Name: F3
Note OFF: Time 499980, Note Name: A#3
Note ON: Time 500160, Note Name: F4, Velocity: 51
Note ON: Time 500160, Note Name: A#4, Velocity: 62
Note OFF: Time 500220, Note Name: A#4
Note OFF: Time 500220, Note Name: F4
Note ON: Time 500400, Note Name: D4, Velocity: 49
Note ON: Time 500400, Note Name: F4, Velocity: 59
Note OFF: Time 500460, Note Name: F4
Note OFF: Time 500460, Note Name: D4
Note ON: Time 500640, Note Name: F3, Velocity: 65
Note ON: Time 500640, Note Name: A#3, Velocity: 79
Note OFF: Time 500700, Note Name: A#3
Note OFF: Time 500700, Note Name: F3
Note ON: Time 500880, Note Name: D3, Velocity: 60
Note ON: Time 500880, Note Name: F3, Velocity: 72
Note OFF: Time 500940, Note Name: F3
Note OFF: Time 500940, Note Name: D3
Note ON: Time 501120, Note Name: A3, Velocity: 42
Note ON: Time 501120, Note Name: D#4, Velocity: 52
Note OFF: Time 502080, Note Name: D#4
Note OFF: Time 502080, Note Name: A3
Note ON: Time 502440, Note Name: A3, Velocity: 42
Note ON: Time 502440, Note Name: F#4, Velocity: 51
Note ON: Time 502440, Note Name: D#4, Velocity: 42
Note OFF: Time 502500, Note Name: D#4
Note OFF: Time 502500, Note Name: F#4
Note OFF: Time 502500, Note Name: A3
Note ON: Time 502560, Note Name: F#4, Velocity: 45
Note ON: Time 502560, Note Name: D#4, Velocity: 37
Note ON: Time 502560, Note Name: A3, Velocity: 37
Note OFF: Time 502620, Note Name: A3
Note OFF: Time 502620, Note Name: D#4
Note OFF: Time 502620, Note Name: F#4
Note ON: Time 502800, Note Name: A#3, Velocity: 40
Note ON: Time 502800, Note Name: F4, Velocity: 49
Note ON: Time 502800, Note Name: D4, Velocity: 40
Note OFF: Time 502860, Note Name: D4
Note OFF: Time 502860, Note Name: F4
Note OFF: Time 502860, Note Name: A#3
Note ON: Time 503400, Note Name: F#3, Velocity: 41
Note ON: Time 503400, Note Name: C4, Velocity: 41
Note ON: Time 503400, Note Name: A3, Velocity: 41
Note ON: Time 503400, Note Name: D#4, Velocity: 49
Note OFF: Time 503460, Note Name: D#4
Note OFF: Time 503460, Note Name: F#3
Note OFF: Time 503460, Note Name: C4
Note OFF: Time 503460, Note Name: A3
Note ON: Time 503520, Note Name: F#3, Velocity: 35
Note ON: Time 503520, Note Name: A3, Velocity: 35
Note ON: Time 503520, Note Name: C4, Velocity: 35
Note ON: Time 503520, Note Name: D#4, Velocity: 43
Note OFF: Time 503580, Note Name: D#4
Note OFF: Time 503580, Note Name: F#3
Note OFF: Time 503580, Note Name: A3
Note OFF: Time 503580, Note Name: C4
Note ON: Time 503760, Note Name: F3, Velocity: 38
Note ON: Time 503760, Note Name: A#3, Velocity: 38
Note ON: Time 503760, Note Name: D4, Velocity: 46
Note OFF: Time 503820, Note Name: D4
Note OFF: Time 503820, Note Name: A#3
Note OFF: Time 503820, Note Name: F3
Note ON: Time 504360, Note Name: D#4, Velocity: 46
Note ON: Time 504360, Note Name: F#3, Velocity: 38
Note ON: Time 504360, Note Name: A3, Velocity: 38
Note ON: Time 504360, Note Name: C4, Velocity: 38
Note OFF: Time 504420, Note Name: C4
Note OFF: Time 504420, Note Name: D#4
Note OFF: Time 504420, Note Name: F#3
Note OFF: Time 504420, Note Name: A3
Note ON: Time 504480, Note Name: C4, Velocity: 33
Note ON: Time 504480, Note Name: A3, Velocity: 33
Note ON: Time 504480, Note Name: D#4, Velocity: 40
Note ON: Time 504480, Note Name: F#3, Velocity: 33
Note OFF: Time 504540, Note Name: F#3
Note OFF: Time 504540, Note Name: C4
Note OFF: Time 504540, Note Name: A3
Note OFF: Time 504540, Note Name: D#4
Note ON: Time 504720, Note Name: D4, Velocity: 43
Note ON: Time 504720, Note Name: F3, Velocity: 35
Note ON: Time 504720, Note Name: A#3, Velocity: 35
Note OFF: Time 504780, Note Name: A#3
Note OFF: Time 504780, Note Name: F3
Note OFF: Time 504780, Note Name: D4
Note ON: Time 505320, Note Name: D#3, Velocity: 35
Note ON: Time 505320, Note Name: A#3, Velocity: 35
Note ON: Time 505320, Note Name: F#3, Velocity: 35
Note ON: Time 505320, Note Name: C4, Velocity: 43
Note OFF: Time 505380, Note Name: C4
Note OFF: Time 505380, Note Name: D#3
Note OFF: Time 505380, Note Name: A#3
Note OFF: Time 505380, Note Name: F#3
Note ON: Time 505440, Note Name: D#3, Velocity: 31
Note ON: Time 505440, Note Name: F#3, Velocity: 31
Note ON: Time 505440, Note Name: A#3, Velocity: 31
Note ON: Time 505440, Note Name: C4, Velocity: 37
Note OFF: Time 505500, Note Name: C4
Note OFF: Time 505500, Note Name: D#3
Note OFF: Time 505500, Note Name: F#3
Note OFF: Time 505500, Note Name: A#3
Note ON: Time 505680, Note Name: A#3, Velocity: 40
Note ON: Time 505680, Note Name: D3, Velocity: 32
Note ON: Time 505680, Note Name: F3, Velocity: 32
Note OFF: Time 505740, Note Name: F3
Note OFF: Time 505740, Note Name: D3
Note OFF: Time 505740, Note Name: A#3
Note ON: Time 506280, Note Name: D3, Velocity: 33
Note ON: Time 506280, Note Name: F3, Velocity: 33
Note ON: Time 506280, Note Name: A#3, Velocity: 33
Note ON: Time 506280, Note Name: D4, Velocity: 40
Note OFF: Time 506340, Note Name: D4
Note OFF: Time 506340, Note Name: D3
Note OFF: Time 506340, Note Name: F3
Note OFF: Time 506340, Note Name: A#3
Note ON: Time 506400, Note Name: F3, Velocity: 29
Note ON: Time 506400, Note Name: D3, Velocity: 29
Note ON: Time 506400, Note Name: A#3, Velocity: 29
Note ON: Time 506400, Note Name: D4, Velocity: 36
Note OFF: Time 506460, Note Name: D4
Note OFF: Time 506460, Note Name: F3
Note OFF: Time 506460, Note Name: D3
Note OFF: Time 506460, Note Name: A#3
Note ON: Time 506640, Note Name: F3, Velocity: 32
Note ON: Time 506640, Note Name: D3, Velocity: 32
Note ON: Time 506640, Note Name: A#3, Velocity: 39
Note OFF: Time 506700, Note Name: A#3
Note OFF: Time 506700, Note Name: D3
Note OFF: Time 506700, Note Name: F3
Note ON: Time 507120, Note Name: F3, Velocity: 26
Note ON: Time 507120, Note Name: D4, Velocity: 32
Note ON: Time 507120, Note Name: A#3, Velocity: 26
Note ON: Time 507120, Note Name: D3, Velocity: 26
Note OFF: Time 507360, Note Name: D3
Note OFF: Time 507360, Note Name: F3
Note OFF: Time 507360, Note Name: D4
Note OFF: Time 507360, Note Name: A#3
Note ON: Time 508320, Note Name: F6, Velocity: 100
Note ON: Time 508320, Note Name: D6, Velocity: 100
Note ON: Time 508320, Note Name: A#5, Velocity: 100
Note ON: Time 508320, Note Name: A#6, Velocity: 119
Note OFF: Time 508560, Note Name: A#6
Note OFF: Time 508560, Note Name: F6
Note OFF: Time 508560, Note Name: D6
Note OFF: Time 508560, Note Name: A#5
Note ON: Time 508800, Note Name: A#4, Velocity: 119
Note ON: Time 508800, Note Name: A#3, Velocity: 100
Note OFF: Time 509760, Note Name: A#3
Note OFF: Time 509760, Note Name: A#4
Track 2: Piano left
Note ON: Time 840, Note Name: A#1, Velocity: 96
Note OFF: Time 960, Note Name: A#1
Note ON: Time 960, Note Name: D4, Velocity: 93
Note ON: Time 960, Note Name: F3, Velocity: 78
Note ON: Time 960, Note Name: A#3, Velocity: 78
Note OFF: Time 1320, Note Name: A#3
Note OFF: Time 1320, Note Name: F3
Note OFF: Time 1320, Note Name: D4
Note ON: Time 1320, Note Name: F3, Velocity: 69
Note ON: Time 1320, Note Name: D4, Velocity: 84
Note ON: Time 1320, Note Name: A#3, Velocity: 69
Note OFF: Time 1440, Note Name: A#3
Note OFF: Time 1440, Note Name: D4
Note OFF: Time 1440, Note Name: F3
Note ON: Time 1440, Note Name: D4, Velocity: 93
Note ON: Time 1440, Note Name: A#3, Velocity: 78
Note ON: Time 1440, Note Name: F3, Velocity: 78
Note OFF: Time 1620, Note Name: F3
Note OFF: Time 1620, Note Name: A#3
Note OFF: Time 1620, Note Name: D4
Note ON: Time 1680, Note Name: D4, Velocity: 88
Note ON: Time 1680, Note Name: A#3, Velocity: 75
Note ON: Time 1680, Note Name: F3, Velocity: 75
Note OFF: Time 1725, Note Name: F3
Note OFF: Time 1725, Note Name: A#3
Note OFF: Time 1725, Note Name: D4
Note ON: Time 1800, Note Name: A#3, Velocity: 78
Note ON: Time 1800, Note Name: D4, Velocity: 93
Note ON: Time 1800, Note Name: F3, Velocity: 78
Note OFF: Time 1845, Note Name: F3
Note OFF: Time 1845, Note Name: D4
Note OFF: Time 1845, Note Name: A#3
Note ON: Time 1920, Note Name: D4, Velocity: 93
Note ON: Time 1920, Note Name: F3, Velocity: 78
Note ON: Time 1920, Note Name: A#3, Velocity: 78
Note OFF: Time 2040, Note Name: A#3
Note OFF: Time 2040, Note Name: F3
Note OFF: Time 2040, Note Name: D4
Note ON: Time 2160, Note Name: F3, Velocity: 78
Note ON: Time 2160, Note Name: D3, Velocity: 78
Note ON: Time 2160, Note Name: A#3, Velocity: 93
Note OFF: Time 2280, Note Name: A#3
Note OFF: Time 2280, Note Name: D3
Note OFF: Time 2280, Note Name: F3
Note ON: Time 2760, Note Name: A#1, Velocity: 96
Note OFF: Time 2880, Note Name: A#1
Note ON: Time 2880, Note Name: A#3, Velocity: 78
Note ON: Time 2880, Note Name: F3, Velocity: 78
Note ON: Time 2880, Note Name: D4, Velocity: 78
Note ON: Time 2880, Note Name: F4, Velocity: 93
Note OFF: Time 3240, Note Name: F4
Note OFF: Time 3240, Note Name: A#3
Note OFF: Time 3240, Note Name: F3
Note OFF: Time 3240, Note Name: D4
Note ON: Time 3240, Note Name: A#3, Velocity: 69
Note ON: Time 3240, Note Name: F3, Velocity: 69
Note ON: Time 3240, Note Name: D4, Velocity: 69
Note ON: Time 3240, Note Name: F4, Velocity: 84
Note OFF: Time 3360, Note Name: F4
Note OFF: Time 3360, Note Name: A#3
Note OFF: Time 3360, Note Name: F3
Note OFF: Time 3360, Note Name: D4
Note ON: Time 3360, Note Name: A#3, Velocity: 78
Note ON: Time 3360, Note Name: F4, Velocity: 93
Note ON: Time 3360, Note Name: D4, Velocity: 78
Note ON: Time 3360, Note Name: F3, Velocity: 78
Note OFF: Time 3540, Note Name: F3
Note OFF: Time 3540, Note Name: A#3
Note OFF: Time 3540, Note Name: F4
Note OFF: Time 3540, Note Name: D4
Note ON: Time 3600, Note Name: D4, Velocity: 75
Note ON: Time 3600, Note Name: A#3, Velocity: 75
Note ON: Time 3600, Note Name: F4, Velocity: 88
Note ON: Time 3600, Note Name: F3, Velocity: 75
Note OFF: Time 3645, Note Name: F3
Note OFF: Time 3645, Note Name: D4
Note OFF: Time 3645, Note Name: A#3
Note OFF: Time 3645, Note Name: F4
Note ON: Time 3720, Note Name: D4, Velocity: 78
Note ON: Time 3720, Note Name: A#3, Velocity: 78
Note ON: Time 3720, Note Name: F4, Velocity: 93
Note ON: Time 3720, Note Name: F3, Velocity: 78
Note OFF: Time 3765, Note Name: F3
Note OFF: Time 3765, Note Name: D4
Note OFF: Time 3765, Note Name: A#3
Note OFF: Time 3765, Note Name: F4
Note ON: Time 3840, Note Name: A#3, Velocity: 78
Note ON: Time 3840, Note Name: F4, Velocity: 93
Note ON: Time 3840, Note Name: F3, Velocity: 78
Note ON: Time 3840, Note Name: D4, Velocity: 78
Note OFF: Time 3960, Note Name: D4
Note OFF: Time 3960, Note Name: A#3
Note OFF: Time 3960, Note Name: F4
Note OFF: Time 3960, Note Name: F3
Note ON: Time 4080, Note Name: A#3, Velocity: 78
Note ON: Time 4080, Note Name: D4, Velocity: 93
Note ON: Time 4080, Note Name: F3, Velocity: 78
Note OFF: Time 4200, Note Name: F3
Note OFF: Time 4200, Note Name: D4
Note OFF: Time 4200, Note Name: A#3
Note ON: Time 5040, Note Name: E4, Velocity: 29
Note OFF: Time 5280, Note Name: E4
Note ON: Time 5280, Note Name: F4, Velocity: 29
Note OFF: Time 5520, Note Name: F4
Note ON: Time 5520, Note Name: B3, Velocity: 40
Note OFF: Time 5760, Note Name: B3
Note ON: Time 5760, Note Name: C4, Velocity: 40
Note OFF: Time 6000, Note Name: C4
Note ON: Time 6000, Note Name: F#3, Velocity: 36
Note OFF: Time 6240, Note Name: F#3
Note ON: Time 6240, Note Name: G3, Velocity: 36
Note OFF: Time 6480, Note Name: G3
Note ON: Time 6480, Note Name: D#3, Velocity: 40
Note OFF: Time 6720, Note Name: D#3
Note ON: Time 6720, Note Name: D3, Velocity: 40
Note OFF: Time 6960, Note Name: D3
Note ON: Time 6960, Note Name: C#3, Velocity: 35
Note OFF: Time 7200, Note Name: C#3
Note ON: Time 7200, Note Name: C3, Velocity: 35
Note OFF: Time 7440, Note Name: C3
Note ON: Time 7440, Note Name: F2, Velocity: 40
Note OFF: Time 7680, Note Name: F2
Note ON: Time 7680, Note Name: A#2, Velocity: 38
Note OFF: Time 7920, Note Name: A#2
Note ON: Time 7920, Note Name: D#2, Velocity: 30
Note OFF: Time 8160, Note Name: D#2
Note ON: Time 8160, Note Name: F2, Velocity: 27
Note OFF: Time 8400, Note Name: F2
Note ON: Time 8880, Note Name: E5, Velocity: 29
Note OFF: Time 9120, Note Name: E5
Note ON: Time 9120, Note Name: F5, Velocity: 29
Note OFF: Time 9360, Note Name: F5
Note ON: Time 9360, Note Name: B4, Velocity: 40
Note OFF: Time 9600, Note Name: B4
Note ON: Time 9600, Note Name: C5, Velocity: 40
Note OFF: Time 9840, Note Name: C5
Note ON: Time 9840, Note Name: F#4, Velocity: 36
Note OFF: Time 10080, Note Name: F#4
Note ON: Time 10080, Note Name: G4, Velocity: 36
Note OFF: Time 10320, Note Name: G4
Note ON: Time 10320, Note Name: D#4, Velocity: 40
Note OFF: Time 10560, Note Name: D#4
Note ON: Time 10560, Note Name: D4, Velocity: 40
Note OFF: Time 10800, Note Name: D4
Note ON: Time 10800, Note Name: C#4, Velocity: 35
Note OFF: Time 11040, Note Name: C#4
Note ON: Time 11040, Note Name: C4, Velocity: 35
Note OFF: Time 11280, Note Name: C4
Note ON: Time 11280, Note Name: F3, Velocity: 40
Note OFF: Time 11520, Note Name: F3
Note ON: Time 11520, Note Name: A#3, Velocity: 36
Note OFF: Time 11760, Note Name: A#3
Note ON: Time 11760, Note Name: F#3, Velocity: 43
Note OFF: Time 12000, Note Name: F#3
Note ON: Time 12000, Note Name: F3, Velocity: 44
Note OFF: Time 12240, Note Name: F3
Note ON: Time 12240, Note Name: D#3, Velocity: 45
Note OFF: Time 12480, Note Name: D#3
Note ON: Time 12480, Note Name: D3, Velocity: 46
Note OFF: Time 12720, Note Name: D3
Note ON: Time 12720, Note Name: C#3, Velocity: 47
Note OFF: Time 12960, Note Name: C#3
Note ON: Time 12960, Note Name: C3, Velocity: 48
Note OFF: Time 13200, Note Name: C3
Note ON: Time 13200, Note Name: F2, Velocity: 50
Note OFF: Time 13440, Note Name: F2
Note ON: Time 13440, Note Name: A#2, Velocity: 50
Note OFF: Time 13680, Note Name: A#2
Note ON: Time 13680, Note Name: F#2, Velocity: 52
Note OFF: Time 13920, Note Name: F#2
Note ON: Time 13920, Note Name: F2, Velocity: 53
Note OFF: Time 14160, Note Name: F2
Note ON: Time 14160, Note Name: D#2, Velocity: 54
Note OFF: Time 14400, Note Name: D#2
Note ON: Time 14400, Note Name: D2, Velocity: 55
Note OFF: Time 14640, Note Name: D2
Note ON: Time 14640, Note Name: C#2, Velocity: 56
Note OFF: Time 14880, Note Name: C#2
Note ON: Time 14880, Note Name: C2, Velocity: 57
Note OFF: Time 15120, Note Name: C2
Note ON: Time 15120, Note Name: F#1, Velocity: 58
Note OFF: Time 15360, Note Name: F#1
Note ON: Time 15360, Note Name: G1, Velocity: 67
Note OFF: Time 15600, Note Name: G1
Note ON: Time 15600, Note Name: D#2, Velocity: 61
Note OFF: Time 15840, Note Name: D#2
Note ON: Time 15840, Note Name: F2, Velocity: 70
Note OFF: Time 15960, Note Name: F2
Note ON: Time 16080, Note Name: F1, Velocity: 66
Note ON: Time 16080, Note Name: F2, Velocity: 66
Note OFF: Time 16200, Note Name: F2
Note OFF: Time 16200, Note Name: F1
Note ON: Time 16320, Note Name: A#2, Velocity: 68
Note ON: Time 16320, Note Name: A#1, Velocity: 57
Note OFF: Time 16440, Note Name: A#1
Note OFF: Time 16440, Note Name: A#2
Note ON: Time 16440, Note Name: F3, Velocity: 47
Note ON: Time 16440, Note Name: A#3, Velocity: 47
Note ON: Time 16440, Note Name: D4, Velocity: 56
Note OFF: Time 16560, Note Name: D4
Note OFF: Time 16560, Note Name: A#3
Note OFF: Time 16560, Note Name: F3
Note ON: Time 16560, Note Name: D4, Velocity: 56
Note ON: Time 16560, Note Name: A#3, Velocity: 47
Note ON: Time 16560, Note Name: F3, Velocity: 47
Note OFF: Time 16680, Note Name: F3
Note OFF: Time 16680, Note Name: A#3
Note OFF: Time 16680, Note Name: D4
Note ON: Time 16680, Note Name: F3, Velocity: 47
Note ON: Time 16680, Note Name: D4, Velocity: 56
Note ON: Time 16680, Note Name: A#3, Velocity: 47
Note OFF: Time 16800, Note Name: A#3
Note OFF: Time 16800, Note Name: D4
Note OFF: Time 16800, Note Name: F3
Note ON: Time 16920, Note Name: D4, Velocity: 53
Note ON: Time 16920, Note Name: F3, Velocity: 45
Note ON: Time 16920, Note Name: A#3, Velocity: 45
Note OFF: Time 17040, Note Name: A#3
Note OFF: Time 17040, Note Name: F3
Note OFF: Time 17040, Note Name: D4
Note ON: Time 17040, Note Name: A#3, Velocity: 45
Note ON: Time 17040, Note Name: F3, Velocity: 45
Note ON: Time 17040, Note Name: D4, Velocity: 54
Note OFF: Time 17160, Note Name: D4
Note OFF: Time 17160, Note Name: F3
Note OFF: Time 17160, Note Name: A#3
Note ON: Time 17160, Note Name: A#3, Velocity: 45
Note ON: Time 17160, Note Name: F3, Velocity: 45
Note ON: Time 17160, Note Name: D4, Velocity: 54
Note OFF: Time 17280, Note Name: D4
Note OFF: Time 17280, Note Name: F3
Note OFF: Time 17280, Note Name: A#3
Note ON: Time 17400, Note Name: F3, Velocity: 37
Note ON: Time 17400, Note Name: A#3, Velocity: 37
Note ON: Time 17400, Note Name: D4, Velocity: 44
Note OFF: Time 17460, Note Name: D4
Note OFF: Time 17460, Note Name: A#3
Note OFF: Time 17460, Note Name: F3
Note ON: Time 17640, Note Name: A#3, Velocity: 44
Note ON: Time 17640, Note Name: D3, Velocity: 37
Note OFF: Time 17700, Note Name: D3
Note OFF: Time 17700, Note Name: A#3
Note ON: Time 17880, Note Name: F3, Velocity: 37
Note ON: Time 17880, Note Name: A#3, Velocity: 37
Note ON: Time 17880, Note Name: D4, Velocity: 44
Note OFF: Time 17940, Note Name: D4
Note OFF: Time 17940, Note Name: A#3
Note OFF: Time 17940, Note Name: F3
Note ON: Time 18120, Note Name: C4, Velocity: 44
Note ON: Time 18120, Note Name: D#3, Velocity: 37
Note ON: Time 18120, Note Name: A#3, Velocity: 37
Note OFF: Time 18180, Note Name: A#3
Note OFF: Time 18180, Note Name: D#3
Note OFF: Time 18180, Note Name: C4
Note ON: Time 18240, Note Name: A#2, Velocity: 78
Note ON: Time 18240, Note Name: A#1, Velocity: 65
Note OFF: Time 18360, Note Name: A#1
Note OFF: Time 18360, Note Name: A#2
Note ON: Time 18360, Note Name: A#3, Velocity: 54
Note ON: Time 18360, Note Name: D#4, Velocity: 64
Note ON: Time 18360, Note Name: G3, Velocity: 54
Note OFF: Time 18480, Note Name: G3
Note OFF: Time 18480, Note Name: D#4
Note OFF: Time 18480, Note Name: A#3
Note ON: Time 18480, Note Name: D#4, Velocity: 64
Note ON: Time 18480, Note Name: G3, Velocity: 54
Note ON: Time 18480, Note Name: A#3, Velocity: 54
Note OFF: Time 18600, Note Name: A#3
Note OFF: Time 18600, Note Name: G3
Note OFF: Time 18600, Note Name: D#4
Note ON: Time 18600, Note Name: D#4, Velocity: 64
Note ON: Time 18600, Note Name: A#3, Velocity: 54
Note ON: Time 18600, Note Name: G3, Velocity: 54
Note OFF: Time 18720, Note Name: G3
Note OFF: Time 18720, Note Name: A#3
Note OFF: Time 18720, Note Name: D#4
Note ON: Time 18840, Note Name: A#3, Velocity: 45
Note ON: Time 18840, Note Name: C4, Velocity: 53
Note ON: Time 18840, Note Name: D#3, Velocity: 45
Note OFF: Time 18960, Note Name: D#3
Note OFF: Time 18960, Note Name: C4
Note OFF: Time 18960, Note Name: A#3
Note ON: Time 18960, Note Name: A#3, Velocity: 45
Note ON: Time 18960, Note Name: C4, Velocity: 54
Note ON: Time 18960, Note Name: D#3, Velocity: 45
Note OFF: Time 19080, Note Name: D#3
Note OFF: Time 19080, Note Name: C4
Note OFF: Time 19080, Note Name: A#3
Note ON: Time 19080, Note Name: C4, Velocity: 54
Note ON: Time 19080, Note Name: A#3, Velocity: 45
Note ON: Time 19080, Note Name: D#3, Velocity: 45
Note OFF: Time 19200, Note Name: D#3
Note OFF: Time 19200, Note Name: A#3
Note OFF: Time 19200, Note Name: C4
Note ON: Time 19320, Note Name: A#3, Velocity: 37
Note ON: Time 19320, Note Name: D#4, Velocity: 44
Note ON: Time 19320, Note Name: G3, Velocity: 37
Note OFF: Time 19380, Note Name: G3
Note OFF: Time 19380, Note Name: D#4
Note OFF: Time 19380, Note Name: A#3
Note ON: Time 19560, Note Name: E3, Velocity: 37
Note ON: Time 19560, Note Name: A#3, Velocity: 37
Note ON: Time 19560, Note Name: C#4, Velocity: 44
Note OFF: Time 19620, Note Name: C#4
Note OFF: Time 19620, Note Name: A#3
Note OFF: Time 19620, Note Name: E3
Note ON: Time 19800, Note Name: F#3, Velocity: 37
Note ON: Time 19800, Note Name: D#4, Velocity: 44
Note ON: Time 19800, Note Name: A#3, Velocity: 37
Note OFF: Time 19860, Note Name: A#3
Note OFF: Time 19860, Note Name: D#4
Note OFF: Time 19860, Note Name: F#3
Note ON: Time 20040, Note Name: D4, Velocity: 44
Note ON: Time 20040, Note Name: F3, Velocity: 37
Note ON: Time 20040, Note Name: A#3, Velocity: 37
Note OFF: Time 20100, Note Name: A#3
Note OFF: Time 20100, Note Name: F3
Note OFF: Time 20100, Note Name: D4
Note ON: Time 20160, Note Name: A#2, Velocity: 74
Note ON: Time 20160, Note Name: A#1, Velocity: 62
Note OFF: Time 20280, Note Name: A#1
Note OFF: Time 20280, Note Name: A#2
Note ON: Time 20280, Note Name: A#3, Velocity: 51
Note ON: Time 20280, Note Name: G#3, Velocity: 51
Note ON: Time 20280, Note Name: F4, Velocity: 61
Note OFF: Time 20400, Note Name: F4
Note OFF: Time 20400, Note Name: G#3
Note OFF: Time 20400, Note Name: A#3
Note ON: Time 20400, Note Name: F4, Velocity: 61
Note ON: Time 20400, Note Name: G#3, Velocity: 51
Note ON: Time 20400, Note Name: A#3, Velocity: 51
Note OFF: Time 20520, Note Name: A#3
Note OFF: Time 20520, Note Name: G#3
Note OFF: Time 20520, Note Name: F4
Note ON: Time 20520, Note Name: F4, Velocity: 61
Note ON: Time 20520, Note Name: G#3, Velocity: 51
Note ON: Time 20520, Note Name: A#3, Velocity: 51
Note OFF: Time 20640, Note Name: A#3
Note OFF: Time 20640, Note Name: G#3
Note OFF: Time 20640, Note Name: F4
Note ON: Time 20760, Note Name: A#3, Velocity: 45
Note ON: Time 20760, Note Name: F3, Velocity: 45
Note ON: Time 20760, Note Name: D4, Velocity: 53
Note OFF: Time 20880, Note Name: D4
Note OFF: Time 20880, Note Name: F3
Note OFF: Time 20880, Note Name: A#3
Note ON: Time 20880, Note Name: D4, Velocity: 54
Note ON: Time 20880, Note Name: A#3, Velocity: 45
Note ON: Time 20880, Note Name: F3, Velocity: 45
Note OFF: Time 21000, Note Name: F3
Note OFF: Time 21000, Note Name: A#3
Note OFF: Time 21000, Note Name: D4
Note ON: Time 21000, Note Name: A#3, Velocity: 45
Note ON: Time 21000, Note Name: D4, Velocity: 54
Note ON: Time 21000, Note Name: F3, Velocity: 45
Note OFF: Time 21120, Note Name: F3
Note OFF: Time 21120, Note Name: D4
Note OFF: Time 21120, Note Name: A#3
Note ON: Time 21240, Note Name: A#3, Velocity: 37
Note ON: Time 21240, Note Name: F4, Velocity: 44
Note ON: Time 21240, Note Name: G#3, Velocity: 37
Note OFF: Time 21300, Note Name: G#3
Note OFF: Time 21300, Note Name: F4
Note OFF: Time 21300, Note Name: A#3
Note ON: Time 21480, Note Name: A#3, Velocity: 37
Note ON: Time 21480, Note Name: F#3, Velocity: 37
Note ON: Time 21480, Note Name: D4, Velocity: 44
Note OFF: Time 21540, Note Name: D4
Note OFF: Time 21540, Note Name: F#3
Note OFF: Time 21540, Note Name: A#3
Note ON: Time 21720, Note Name: A#3, Velocity: 37
Note ON: Time 21720, Note Name: F4, Velocity: 44
Note ON: Time 21720, Note Name: G#3, Velocity: 37
Note OFF: Time 21780, Note Name: G#3
Note OFF: Time 21780, Note Name: F4
Note OFF: Time 21780, Note Name: A#3
Note ON: Time 21960, Note Name: A#3, Velocity: 37
Note ON: Time 21960, Note Name: D#4, Velocity: 44
Note ON: Time 21960, Note Name: G3, Velocity: 37
Note OFF: Time 22020, Note Name: G3
Note OFF: Time 22020, Note Name: D#4
Note OFF: Time 22020, Note Name: A#3
Note ON: Time 22080, Note Name: A#2, Velocity: 74
Note ON: Time 22080, Note Name: A#1, Velocity: 62
Note OFF: Time 22200, Note Name: A#1
Note OFF: Time 22200, Note Name: A#2
Note ON: Time 22200, Note Name: D#4, Velocity: 51
Note ON: Time 22200, Note Name: G4, Velocity: 61
Note ON: Time 22200, Note Name: A#3, Velocity: 51
Note OFF: Time 22320, Note Name: A#3
Note OFF: Time 22320, Note Name: G4
Note OFF: Time 22320, Note Name: D#4
Note ON: Time 22320, Note Name: G4, Velocity: 61
Note ON: Time 22320, Note Name: A#3, Velocity: 51
Note ON: Time 22320, Note Name: D#4, Velocity: 51
Note OFF: Time 22440, Note Name: D#4
Note OFF: Time 22440, Note Name: A#3
Note OFF: Time 22440, Note Name: G4
Note ON: Time 22440, Note Name: G4, Velocity: 61
Note ON: Time 22440, Note Name: A#3, Velocity: 51
Note ON: Time 22440, Note Name: D#4, Velocity: 51
Note OFF: Time 22560, Note Name: D#4
Note OFF: Time 22560, Note Name: A#3
Note OFF: Time 22560, Note Name: G4
Note ON: Time 22680, Note Name: A#3, Velocity: 45
Note ON: Time 22680, Note Name: D#4, Velocity: 53
Note ON: Time 22680, Note Name: G3, Velocity: 45
Note OFF: Time 22800, Note Name: G3
Note OFF: Time 22800, Note Name: D#4
Note OFF: Time 22800, Note Name: A#3
Note ON: Time 22800, Note Name: D#4, Velocity: 54
Note ON: Time 22800, Note Name: A#3, Velocity: 45
Note ON: Time 22800, Note Name: G3, Velocity: 45
Note OFF: Time 22920, Note Name: G3
Note OFF: Time 22920, Note Name: A#3
Note OFF: Time 22920, Note Name: D#4
Note ON: Time 22920, Note Name: A#3, Velocity: 45
Note ON: Time 22920, Note Name: D#4, Velocity: 54
Note ON: Time 22920, Note Name: G3, Velocity: 45
Note OFF: Time 23040, Note Name: G3
Note OFF: Time 23040, Note Name: D#4
Note OFF: Time 23040, Note Name: A#3
Note ON: Time 23160, Note Name: A#3, Velocity: 33
Note ON: Time 23160, Note Name: G4, Velocity: 39
Note ON: Time 23160, Note Name: D#4, Velocity: 33
Note OFF: Time 23220, Note Name: D#4
Note OFF: Time 23220, Note Name: G4
Note OFF: Time 23220, Note Name: A#3
Note ON: Time 23400, Note Name: E4, Velocity: 39
Note ON: Time 23400, Note Name: A#3, Velocity: 33
Note ON: Time 23400, Note Name: C#4, Velocity: 33
Note OFF: Time 23460, Note Name: C#4
Note OFF: Time 23460, Note Name: A#3
Note OFF: Time 23460, Note Name: E4
Note ON: Time 23640, Note Name: D#4, Velocity: 36
Note ON: Time 23640, Note Name: A#3, Velocity: 36
Note ON: Time 23640, Note Name: F#4, Velocity: 44
Note OFF: Time 23700, Note Name: F#4
Note OFF: Time 23700, Note Name: A#3
Note OFF: Time 23700, Note Name: D#4
Note ON: Time 23880, Note Name: D4, Velocity: 37
Note ON: Time 23880, Note Name: A#3, Velocity: 37
Note ON: Time 23880, Note Name: F4, Velocity: 45
Note OFF: Time 23940, Note Name: F4
Note OFF: Time 23940, Note Name: A#3
Note OFF: Time 23940, Note Name: D4
Note ON: Time 24120, Note Name: A#3, Velocity: 39
Note ON: Time 24120, Note Name: F4, Velocity: 39
Note ON: Time 24120, Note Name: G#4, Velocity: 46
Note OFF: Time 24180, Note Name: G#4
Note OFF: Time 24180, Note Name: F4
Note OFF: Time 24180, Note Name: A#3
Note ON: Time 24360, Note Name: A#3, Velocity: 40
Note ON: Time 24360, Note Name: F#4, Velocity: 48
Note ON: Time 24360, Note Name: D4, Velocity: 40
Note OFF: Time 24420, Note Name: D4
Note OFF: Time 24420, Note Name: F#4
Note OFF: Time 24420, Note Name: A#3
Note ON: Time 24600, Note Name: G#4, Velocity: 50
Note ON: Time 24600, Note Name: F4, Velocity: 42
Note ON: Time 24600, Note Name: A#3, Velocity: 42
Note OFF: Time 24660, Note Name: A#3
Note OFF: Time 24660, Note Name: F4
Note OFF: Time 24660, Note Name: G#4
Note ON: Time 24840, Note Name: A#3, Velocity: 43
Note ON: Time 24840, Note Name: G4, Velocity: 52
Note ON: Time 24840, Note Name: D#4, Velocity: 43
Note OFF: Time 24900, Note Name: D#4
Note OFF: Time 24900, Note Name: G4
Note OFF: Time 24900, Note Name: A#3
Note ON: Time 25080, Note Name: C4, Velocity: 45
Note ON: Time 25080, Note Name: G4, Velocity: 53
Note ON: Time 25080, Note Name: D#4, Velocity: 45
Note ON: Time 25080, Note Name: A#3, Velocity: 45
Note OFF: Time 25140, Note Name: A#3
Note OFF: Time 25140, Note Name: C4
Note OFF: Time 25140, Note Name: G4
Note OFF: Time 25140, Note Name: D#4
Note ON: Time 25320, Note Name: G#4, Velocity: 54
Note ON: Time 25320, Note Name: A#3, Velocity: 45
Note ON: Time 25320, Note Name: D#4, Velocity: 45
Note ON: Time 25320, Note Name: C4, Velocity: 45
Note OFF: Time 25380, Note Name: C4
Note OFF: Time 25380, Note Name: G#4
Note OFF: Time 25380, Note Name: A#3
Note OFF: Time 25380, Note Name: D#4
Note ON: Time 25560, Note Name: A#4, Velocity: 56
Note ON: Time 25560, Note Name: A#3, Velocity: 47
Note ON: Time 25560, Note Name: C4, Velocity: 47
Note ON: Time 25560, Note Name: D#4, Velocity: 47
Note OFF: Time 25620, Note Name: D#4
Note OFF: Time 25620, Note Name: A#4
Note OFF: Time 25620, Note Name: A#3
Note OFF: Time 25620, Note Name: C4
Note ON: Time 25800, Note Name: C4, Velocity: 48
Note ON: Time 25800, Note Name: D#4, Velocity: 48
Note ON: Time 25800, Note Name: A#3, Velocity: 48
Note ON: Time 25800, Note Name: A4, Velocity: 58
Note OFF: Time 25860, Note Name: A4
Note OFF: Time 25860, Note Name: C4
Note OFF: Time 25860, Note Name: D#4
Note OFF: Time 25860, Note Name: A#3
Note ON: Time 26040, Note Name: C5, Velocity: 66
Note ON: Time 26040, Note Name: C4, Velocity: 56
Note OFF: Time 26100, Note Name: C4
Note OFF: Time 26100, Note Name: C5
Note ON: Time 26280, Note Name: A#4, Velocity: 66
Note ON: Time 26280, Note Name: A#3, Velocity: 56
Note OFF: Time 26340, Note Name: A#3
Note OFF: Time 26340, Note Name: A#4
Note ON: Time 26520, Note Name: G3, Velocity: 56
Note ON: Time 26520, Note Name: G4, Velocity: 66
Note OFF: Time 26580, Note Name: G4
Note OFF: Time 26580, Note Name: G3
Note ON: Time 26760, Note Name: F4, Velocity: 66
Note ON: Time 26760, Note Name: F3, Velocity: 56
Note OFF: Time 26820, Note Name: F3
Note OFF: Time 26820, Note Name: F4
Note ON: Time 27000, Note Name: D#3, Velocity: 50
Note ON: Time 27000, Note Name: D#4, Velocity: 59
Note OFF: Time 27060, Note Name: D#4
Note OFF: Time 27060, Note Name: D#3
Note ON: Time 27240, Note Name: D4, Velocity: 59
Note ON: Time 27240, Note Name: D3, Velocity: 50
Note OFF: Time 27300, Note Name: D3
Note OFF: Time 27300, Note Name: D4
Note ON: Time 27480, Note Name: C3, Velocity: 50
Note ON: Time 27480, Note Name: C4, Velocity: 59
Note OFF: Time 27540, Note Name: C4
Note OFF: Time 27540, Note Name: C3
Note ON: Time 27720, Note Name: A#3, Velocity: 59
Note ON: Time 27720, Note Name: A#2, Velocity: 50
Note OFF: Time 27780, Note Name: A#2
Note OFF: Time 27780, Note Name: A#3
Note ON: Time 27960, Note Name: G3, Velocity: 59
Note ON: Time 27960, Note Name: G2, Velocity: 50
Note OFF: Time 28020, Note Name: G2
Note OFF: Time 28020, Note Name: G3
Note ON: Time 28200, Note Name: F2, Velocity: 50
Note ON: Time 28200, Note Name: F3, Velocity: 59
Note OFF: Time 28260, Note Name: F3
Note OFF: Time 28260, Note Name: F2
Note ON: Time 28440, Note Name: D#2, Velocity: 47
Note ON: Time 28440, Note Name: D#3, Velocity: 56
Note OFF: Time 28500, Note Name: D#3
Note OFF: Time 28500, Note Name: D#2
Note ON: Time 28680, Note Name: D3, Velocity: 56
Note ON: Time 28680, Note Name: D2, Velocity: 47
Note OFF: Time 28740, Note Name: D2
Note OFF: Time 28740, Note Name: D3
Note ON: Time 28920, Note Name: C3, Velocity: 53
Note ON: Time 28920, Note Name: C2, Velocity: 45
Note OFF: Time 28980, Note Name: C2
Note OFF: Time 28980, Note Name: C3
Note ON: Time 29160, Note Name: A#1, Velocity: 45
Note ON: Time 29160, Note Name: A#2, Velocity: 53
Note OFF: Time 29220, Note Name: A#2
Note OFF: Time 29220, Note Name: A#1
Note ON: Time 29400, Note Name: G1, Velocity: 45
Note ON: Time 29400, Note Name: G2, Velocity: 53
Note OFF: Time 29460, Note Name: G2
Note OFF: Time 29460, Note Name: G1
Note ON: Time 29640, Note Name: F1, Velocity: 45
Note ON: Time 29640, Note Name: F2, Velocity: 53
Note OFF: Time 29700, Note Name: F2
Note OFF: Time 29700, Note Name: F1
Note ON: Time 29880, Note Name: A1, Velocity: 42
Note OFF: Time 30000, Note Name: A1
Note ON: Time 30120, Note Name: F1, Velocity: 28
Note OFF: Time 30240, Note Name: F1
Note ON: Time 30360, Note Name: C2, Velocity: 39
Note OFF: Time 30480, Note Name: C2
Note ON: Time 30600, Note Name: F1, Velocity: 27
Note OFF: Time 30720, Note Name: F1
Note ON: Time 30840, Note Name: F2, Velocity: 37
Note OFF: Time 30960, Note Name: F2
Note ON: Time 31080, Note Name: F1, Velocity: 26
Note OFF: Time 31200, Note Name: F1
Note ON: Time 31320, Note Name: A2, Velocity: 34
Note OFF: Time 31440, Note Name: A2
Note ON: Time 31560, Note Name: F1, Velocity: 24
Note OFF: Time 31680, Note Name: F1
Note ON: Time 31800, Note Name: C3, Velocity: 32
Note OFF: Time 31920, Note Name: C3
Note ON: Time 32040, Note Name: F1, Velocity: 23
Note OFF: Time 32160, Note Name: F1
Note ON: Time 32280, Note Name: F3, Velocity: 29
Note OFF: Time 32400, Note Name: F3
Note ON: Time 32520, Note Name: F1, Velocity: 24
Note OFF: Time 32640, Note Name: F1
Note ON: Time 32760, Note Name: F3, Velocity: 28
Note OFF: Time 32880, Note Name: F3
Note ON: Time 33000, Note Name: F1, Velocity: 21
Note OFF: Time 33120, Note Name: F1
Note ON: Time 33240, Note Name: F3, Velocity: 21
Note OFF: Time 33360, Note Name: F3
Note ON: Time 33480, Note Name: A#1, Velocity: 77
Note OFF: Time 33600, Note Name: A#1
Note ON: Time 33600, Note Name: D4, Velocity: 81
Note ON: Time 33600, Note Name: F3, Velocity: 68
Note ON: Time 33600, Note Name: A#3, Velocity: 68
Note OFF: Time 33960, Note Name: A#3
Note OFF: Time 33960, Note Name: F3
Note OFF: Time 33960, Note Name: D4
Note ON: Time 33960, Note Name: D4, Velocity: 73
Note ON: Time 33960, Note Name: A#3, Velocity: 61
Note ON: Time 33960, Note Name: F3, Velocity: 61
Note OFF: Time 34080, Note Name: F3
Note OFF: Time 34080, Note Name: A#3
Note OFF: Time 34080, Note Name: D4
Note ON: Time 34080, Note Name: F3, Velocity: 68
Note ON: Time 34080, Note Name: A#3, Velocity: 68
Note ON: Time 34080, Note Name: D4, Velocity: 81
Note OFF: Time 34320, Note Name: D4
Note OFF: Time 34320, Note Name: A#3
Note OFF: Time 34320, Note Name: F3
Note ON: Time 34320, Note Name: F3, Velocity: 66
Note ON: Time 34320, Note Name: D4, Velocity: 77
Note ON: Time 34320, Note Name: A#3, Velocity: 66
Note OFF: Time 34365, Note Name: A#3
Note OFF: Time 34365, Note Name: D4
Note OFF: Time 34365, Note Name: F3
Note ON: Time 34440, Note Name: F3, Velocity: 68
Note ON: Time 34440, Note Name: D4, Velocity: 81
Note ON: Time 34440, Note Name: A#3, Velocity: 68
Note OFF: Time 34485, Note Name: A#3
Note OFF: Time 34485, Note Name: D4
Note OFF: Time 34485, Note Name: F3
Note ON: Time 34560, Note Name: F3, Velocity: 68
Note ON: Time 34560, Note Name: D4, Velocity: 81
Note ON: Time 34560, Note Name: A#3, Velocity: 68
Note OFF: Time 34680, Note Name: A#3
Note OFF: Time 34680, Note Name: D4
Note OFF: Time 34680, Note Name: F3
Note ON: Time 34800, Note Name: D3, Velocity: 68
Note ON: Time 34800, Note Name: A#3, Velocity: 81
Note ON: Time 34800, Note Name: F3, Velocity: 68
Note OFF: Time 34920, Note Name: F3
Note OFF: Time 34920, Note Name: A#3
Note OFF: Time 34920, Note Name: D3
Note ON: Time 35400, Note Name: A#1, Velocity: 84
Note OFF: Time 35520, Note Name: A#1
Note ON: Time 35520, Note Name: D4, Velocity: 81
Note ON: Time 35520, Note Name: D3, Velocity: 68
Note ON: Time 35520, Note Name: A#3, Velocity: 68
Note ON: Time 35520, Note Name: F3, Velocity: 68
Note OFF: Time 35880, Note Name: F3
Note OFF: Time 35880, Note Name: D4
Note OFF: Time 35880, Note Name: D3
Note OFF: Time 35880, Note Name: A#3
Note ON: Time 35880, Note Name: A#3, Velocity: 61
Note ON: Time 35880, Note Name: D3, Velocity: 61
Note ON: Time 35880, Note Name: F3, Velocity: 61
Note ON: Time 35880, Note Name: D4, Velocity: 73
Note OFF: Time 36000, Note Name: D4
Note OFF: Time 36000, Note Name: A#3
Note OFF: Time 36000, Note Name: D3
Note OFF: Time 36000, Note Name: F3
Note ON: Time 36000, Note Name: D4, Velocity: 97
Note ON: Time 36000, Note Name: D3, Velocity: 81
Note OFF: Time 36240, Note Name: D3
Note OFF: Time 36240, Note Name: D4
Note ON: Time 36240, Note Name: A3, Velocity: 66
Note ON: Time 36240, Note Name: D4, Velocity: 77
Note ON: Time 36240, Note Name: D3, Velocity: 66
Note ON: Time 36240, Note Name: F#3, Velocity: 66
Note OFF: Time 36285, Note Name: F#3
Note OFF: Time 36285, Note Name: A3
Note OFF: Time 36285, Note Name: D4
Note OFF: Time 36285, Note Name: D3
Note ON: Time 36360, Note Name: D4, Velocity: 81
Note ON: Time 36360, Note Name: F#3, Velocity: 68
Note ON: Time 36360, Note Name: A3, Velocity: 68
Note ON: Time 36360, Note Name: D3, Velocity: 68
Note OFF: Time 36405, Note Name: D3
Note OFF: Time 36405, Note Name: D4
Note OFF: Time 36405, Note Name: F#3
Note OFF: Time 36405, Note Name: A3
Note ON: Time 36480, Note Name: A3, Velocity: 68
Note ON: Time 36480, Note Name: F#3, Velocity: 68
Note ON: Time 36480, Note Name: D4, Velocity: 81
Note ON: Time 36480, Note Name: D3, Velocity: 68
Note OFF: Time 36600, Note Name: D3
Note OFF: Time 36600, Note Name: A3
Note OFF: Time 36600, Note Name: F#3
Note OFF: Time 36600, Note Name: D4
Note ON: Time 36720, Note Name: A3, Velocity: 68
Note ON: Time 36720, Note Name: D3, Velocity: 68
Note ON: Time 36720, Note Name: F#3, Velocity: 68
Note ON: Time 36720, Note Name: D4, Velocity: 81
Note OFF: Time 36840, Note Name: D4
Note OFF: Time 36840, Note Name: A3
Note OFF: Time 36840, Note Name: D3
Note OFF: Time 36840, Note Name: F#3
Note ON: Time 37320, Note Name: D3, Velocity: 39
Note OFF: Time 37440, Note Name: D3
Note ON: Time 37440, Note Name: D4, Velocity: 45
Note OFF: Time 37800, Note Name: D4
Note ON: Time 37800, Note Name: D3, Velocity: 40
Note OFF: Time 37920, Note Name: D3
Note ON: Time 37920, Note Name: D4, Velocity: 47
Note OFF: Time 38280, Note Name: D4
Note ON: Time 38280, Note Name: D3, Velocity: 42
Note OFF: Time 38400, Note Name: D3
Note ON: Time 38400, Note Name: D4, Velocity: 49
Note OFF: Time 38760, Note Name: D4
Note ON: Time 38760, Note Name: D3, Velocity: 41
Note OFF: Time 38880, Note Name: D3
Note ON: Time 38880, Note Name: D4, Velocity: 52
Note OFF: Time 39240, Note Name: D4
Note ON: Time 39240, Note Name: D3, Velocity: 44
Note OFF: Time 39360, Note Name: D3
Note ON: Time 39360, Note Name: A3, Velocity: 55
Note ON: Time 39360, Note Name: C4, Velocity: 55
Note OFF: Time 39720, Note Name: C4
Note OFF: Time 39720, Note Name: A3
Note ON: Time 39720, Note Name: D3, Velocity: 46
Note OFF: Time 39840, Note Name: D3
Note ON: Time 39840, Note Name: C4, Velocity: 58
Note ON: Time 39840, Note Name: A3, Velocity: 58
Note OFF: Time 40200, Note Name: A3
Note OFF: Time 40200, Note Name: C4
Note ON: Time 40200, Note Name: D3, Velocity: 50
Note OFF: Time 40320, Note Name: D3
Note ON: Time 40320, Note Name: A3, Velocity: 60
Note ON: Time 40320, Note Name: F#3, Velocity: 60
Note OFF: Time 40680, Note Name: F#3
Note OFF: Time 40680, Note Name: A3
Note ON: Time 40680, Note Name: D3, Velocity: 52
Note OFF: Time 40800, Note Name: D3
Note ON: Time 40800, Note Name: A2, Velocity: 63
Note OFF: Time 41160, Note Name: A2
Note ON: Time 41160, Note Name: D3, Velocity: 52
Note OFF: Time 41280, Note Name: D3
Note ON: Time 41280, Note Name: A2, Velocity: 65
Note OFF: Time 41640, Note Name: A2
Note ON: Time 41640, Note Name: D3, Velocity: 57
Note OFF: Time 41760, Note Name: D3
Note ON: Time 41760, Note Name: G2, Velocity: 68
Note OFF: Time 42120, Note Name: G2
Note ON: Time 42120, Note Name: D3, Velocity: 57
Note OFF: Time 42240, Note Name: D3
Note ON: Time 42240, Note Name: F#2, Velocity: 71
Note OFF: Time 42600, Note Name: F#2
Note ON: Time 42600, Note Name: D3, Velocity: 59
Note OFF: Time 42720, Note Name: D3
Note ON: Time 42720, Note Name: D#2, Velocity: 73
Note OFF: Time 43080, Note Name: D#2
Note ON: Time 43080, Note Name: D3, Velocity: 67
Note OFF: Time 43200, Note Name: D3
Note ON: Time 43200, Note Name: D2, Velocity: 67
Note ON: Time 43200, Note Name: D3, Velocity: 73
Note OFF: Time 43440, Note Name: D3
Note OFF: Time 43440, Note Name: D2
Note ON: Time 43440, Note Name: D#5, Velocity: 48
Note OFF: Time 43560, Note Name: D#5
Note ON: Time 43560, Note Name: D5, Velocity: 48
Note OFF: Time 43680, Note Name: D5
Note ON: Time 43680, Note Name: D#5, Velocity: 54
Note OFF: Time 43920, Note Name: D#5
Note ON: Time 43920, Note Name: D5, Velocity: 44
Note OFF: Time 44040, Note Name: D5
Note ON: Time 44040, Note Name: C#5, Velocity: 44
Note OFF: Time 44160, Note Name: C#5
Note ON: Time 44160, Note Name: D5, Velocity: 44
Note OFF: Time 44400, Note Name: D5
Note ON: Time 44400, Note Name: D#4, Velocity: 43
Note OFF: Time 44520, Note Name: D#4
Note ON: Time 44520, Note Name: D4, Velocity: 43
Note OFF: Time 44640, Note Name: D4
Note ON: Time 44640, Note Name: D#4, Velocity: 51
Note OFF: Time 44880, Note Name: D#4
Note ON: Time 44880, Note Name: D4, Velocity: 43
Note OFF: Time 45000, Note Name: D4
Note ON: Time 45000, Note Name: C#4, Velocity: 43
Note OFF: Time 45120, Note Name: C#4
Note ON: Time 45120, Note Name: D4, Velocity: 51
Note OFF: Time 45360, Note Name: D4
Note ON: Time 45480, Note Name: D3, Velocity: 42
Note OFF: Time 45600, Note Name: D3
Note ON: Time 45600, Note Name: F#3, Velocity: 51
Note OFF: Time 45840, Note Name: F#3
Note ON: Time 45960, Note Name: A3, Velocity: 40
Note OFF: Time 46080, Note Name: A3
Note ON: Time 46080, Note Name: C4, Velocity: 51
Note OFF: Time 46320, Note Name: C4
Note ON: Time 46440, Note Name: F#4, Velocity: 43
Note OFF: Time 46560, Note Name: F#4
Note ON: Time 46560, Note Name: A4, Velocity: 51
Note OFF: Time 46800, Note Name: A4
Note ON: Time 46800, Note Name: C5, Velocity: 45
Note OFF: Time 46920, Note Name: C5
Note ON: Time 46920, Note Name: A4, Velocity: 45
Note OFF: Time 47040, Note Name: A4
Note ON: Time 47040, Note Name: A5, Velocity: 40
Note OFF: Time 47160, Note Name: A5
Note ON: Time 47160, Note Name: B5, Velocity: 40
Note OFF: Time 47280, Note Name: B5
Note ON: Time 47280, Note Name: C6, Velocity: 44
Note OFF: Time 47400, Note Name: C6
Note ON: Time 47400, Note Name: A5, Velocity: 40
Note OFF: Time 47520, Note Name: A5
Note ON: Time 47520, Note Name: C5, Velocity: 40
Note OFF: Time 47640, Note Name: C5
Note ON: Time 47640, Note Name: D5, Velocity: 40
Note OFF: Time 47760, Note Name: D5
Note ON: Time 47760, Note Name: E5, Velocity: 45
Note OFF: Time 47880, Note Name: E5
Note ON: Time 47880, Note Name: C5, Velocity: 40
Note OFF: Time 48000, Note Name: C5
Note ON: Time 48000, Note Name: A4, Velocity: 40
Note OFF: Time 48120, Note Name: A4
Note ON: Time 48120, Note Name: B4, Velocity: 40
Note OFF: Time 48240, Note Name: B4
Note ON: Time 48240, Note Name: C5, Velocity: 45
Note OFF: Time 48360, Note Name: C5
Note ON: Time 48360, Note Name: A4, Velocity: 40
Note OFF: Time 48478, Note Name: A4
Note ON: Time 48480, Note Name: F#4, Velocity: 40
Note OFF: Time 48600, Note Name: F#4
Note ON: Time 48600, Note Name: G4, Velocity: 40
Note OFF: Time 48720, Note Name: G4
Note ON: Time 48720, Note Name: A4, Velocity: 45
Note OFF: Time 48840, Note Name: A4
Note ON: Time 48840, Note Name: F#4, Velocity: 40
Note OFF: Time 48960, Note Name: F#4
Note ON: Time 48960, Note Name: B4, Velocity: 51
Note ON: Time 48960, Note Name: D4, Velocity: 48
Note ON: Time 48960, Note Name: G4, Velocity: 48
Note OFF: Time 49200, Note Name: G4
Note OFF: Time 49200, Note Name: D4
Note OFF: Time 49200, Note Name: B4
Note ON: Time 49320, Note Name: D3, Velocity: 42
Note OFF: Time 49440, Note Name: D3
Note ON: Time 49440, Note Name: G3, Velocity: 51
Note OFF: Time 49680, Note Name: G3
Note ON: Time 49800, Note Name: B3, Velocity: 40
Note OFF: Time 49920, Note Name: B3
Note ON: Time 49920, Note Name: D4, Velocity: 51
Note OFF: Time 50160, Note Name: D4
Note ON: Time 50280, Note Name: G4, Velocity: 43
Note OFF: Time 50400, Note Name: G4
Note ON: Time 50400, Note Name: B4, Velocity: 51
Note OFF: Time 50640, Note Name: B4
Note ON: Time 50760, Note Name: D5, Velocity: 45
Note OFF: Time 50880, Note Name: D5
Note ON: Time 50880, Note Name: G5, Velocity: 40
Note OFF: Time 51000, Note Name: G5
Note ON: Time 51000, Note Name: A5, Velocity: 40
Note OFF: Time 51120, Note Name: A5
Note ON: Time 51120, Note Name: B5, Velocity: 44
Note OFF: Time 51240, Note Name: B5
Note ON: Time 51240, Note Name: G5, Velocity: 40
Note OFF: Time 51358, Note Name: G5
Note ON: Time 51360, Note Name: B4, Velocity: 40
Note OFF: Time 51480, Note Name: B4
Note ON: Time 51480, Note Name: C5, Velocity: 40
Note OFF: Time 51600, Note Name: C5
Note ON: Time 51600, Note Name: D5, Velocity: 45
Note OFF: Time 51720, Note Name: D5
Note ON: Time 51720, Note Name: B4, Velocity: 40
Note OFF: Time 51840, Note Name: B4
Note ON: Time 51840, Note Name: G4, Velocity: 40
Note OFF: Time 51960, Note Name: G4
Note ON: Time 51960, Note Name: A4, Velocity: 40
Note OFF: Time 52080, Note Name: A4
Note ON: Time 52080, Note Name: B4, Velocity: 45
Note OFF: Time 52198, Note Name: B4
Note ON: Time 52200, Note Name: G4, Velocity: 40
Note OFF: Time 52318, Note Name: G4
Note ON: Time 52320, Note Name: B4, Velocity: 40
Note OFF: Time 52440, Note Name: B4
Note ON: Time 52440, Note Name: C5, Velocity: 40
Note OFF: Time 52560, Note Name: C5
Note ON: Time 52560, Note Name: D5, Velocity: 45
Note OFF: Time 52680, Note Name: D5
Note ON: Time 52680, Note Name: B4, Velocity: 40
Note OFF: Time 52800, Note Name: B4
Note ON: Time 52800, Note Name: C5, Velocity: 40
Note OFF: Time 52920, Note Name: C5
Note ON: Time 52920, Note Name: D5, Velocity: 40
Note OFF: Time 53040, Note Name: D5
Note ON: Time 53040, Note Name: C5, Velocity: 45
Note OFF: Time 53160, Note Name: C5
Note ON: Time 53160, Note Name: B4, Velocity: 40
Note OFF: Time 53280, Note Name: B4
Note ON: Time 53280, Note Name: C5, Velocity: 40
Note OFF: Time 53400, Note Name: C5
Note ON: Time 53400, Note Name: D5, Velocity: 40
Note OFF: Time 53520, Note Name: D5
Note ON: Time 53520, Note Name: E5, Velocity: 45
Note OFF: Time 53640, Note Name: E5
Note ON: Time 53640, Note Name: C5, Velocity: 40
Note OFF: Time 53760, Note Name: C5
Note ON: Time 53760, Note Name: A4, Velocity: 46
Note OFF: Time 53880, Note Name: A4
Note ON: Time 53880, Note Name: B4, Velocity: 38
Note OFF: Time 54000, Note Name: B4
Note ON: Time 54000, Note Name: C5, Velocity: 45
Note OFF: Time 54120, Note Name: C5
Note ON: Time 54120, Note Name: A4, Velocity: 40
Note OFF: Time 54240, Note Name: A4
Note ON: Time 54240, Note Name: F#4, Velocity: 45
Note OFF: Time 54360, Note Name: F#4
Note ON: Time 54360, Note Name: G4, Velocity: 36
Note OFF: Time 54480, Note Name: G4
Note ON: Time 54480, Note Name: A4, Velocity: 41
Note OFF: Time 54600, Note Name: A4
Note ON: Time 54600, Note Name: F#4, Velocity: 36
Note OFF: Time 54720, Note Name: F#4
Note ON: Time 54720, Note Name: C4, Velocity: 46
Note OFF: Time 54840, Note Name: C4
Note ON: Time 54840, Note Name: D4, Velocity: 38
Note OFF: Time 54960, Note Name: D4
Note ON: Time 54960, Note Name: E4, Velocity: 45
Note OFF: Time 55080, Note Name: E4
Note ON: Time 55080, Note Name: C4, Velocity: 40
Note OFF: Time 55200, Note Name: C4
Note ON: Time 55200, Note Name: A3, Velocity: 45
Note OFF: Time 55320, Note Name: A3
Note ON: Time 55320, Note Name: B3, Velocity: 36
Note OFF: Time 55440, Note Name: B3
Note ON: Time 55440, Note Name: C4, Velocity: 41
Note OFF: Time 55560, Note Name: C4
Note ON: Time 55560, Note Name: A3, Velocity: 36
Note OFF: Time 55680, Note Name: A3
Note ON: Time 55680, Note Name: F#3, Velocity: 46
Note OFF: Time 55800, Note Name: F#3
Note ON: Time 55800, Note Name: G3, Velocity: 38
Note OFF: Time 55920, Note Name: G3
Note ON: Time 55920, Note Name: A3, Velocity: 45
Note OFF: Time 56040, Note Name: A3
Note ON: Time 56040, Note Name: F#3, Velocity: 40
Note OFF: Time 56160, Note Name: F#3
Note ON: Time 56160, Note Name: A4, Velocity: 45
Note OFF: Time 56280, Note Name: A4
Note ON: Time 56280, Note Name: G4, Velocity: 36
Note OFF: Time 56400, Note Name: G4
Note ON: Time 56400, Note Name: F#4, Velocity: 41
Note OFF: Time 56520, Note Name: F#4
Note ON: Time 56520, Note Name: A4, Velocity: 36
Note OFF: Time 56640, Note Name: A4
Note ON: Time 56640, Note Name: B4, Velocity: 40
Note OFF: Time 56760, Note Name: B4
Note ON: Time 56760, Note Name: C5, Velocity: 40
Note OFF: Time 56880, Note Name: C5
Note ON: Time 56880, Note Name: B4, Velocity: 45
Note OFF: Time 57000, Note Name: B4
Note ON: Time 57000, Note Name: A4, Velocity: 40
Note OFF: Time 57120, Note Name: A4
Note ON: Time 57120, Note Name: B4, Velocity: 40
Note OFF: Time 57240, Note Name: B4
Note ON: Time 57240, Note Name: C5, Velocity: 40
Note OFF: Time 57360, Note Name: C5
Note ON: Time 57360, Note Name: D5, Velocity: 45
Note OFF: Time 57480, Note Name: D5
Note ON: Time 57480, Note Name: B4, Velocity: 40
Note OFF: Time 57600, Note Name: B4
Note ON: Time 57600, Note Name: G4, Velocity: 46
Note OFF: Time 57720, Note Name: G4
Note ON: Time 57720, Note Name: A4, Velocity: 38
Note OFF: Time 57840, Note Name: A4
Note ON: Time 57840, Note Name: B4, Velocity: 45
Note OFF: Time 57960, Note Name: B4
Note ON: Time 57960, Note Name: G4, Velocity: 40
Note OFF: Time 58080, Note Name: G4
Note ON: Time 58080, Note Name: D4, Velocity: 45
Note OFF: Time 58200, Note Name: D4
Note ON: Time 58200, Note Name: F#4, Velocity: 36
Note OFF: Time 58320, Note Name: F#4
Note ON: Time 58320, Note Name: G4, Velocity: 41
Note OFF: Time 58440, Note Name: G4
Note ON: Time 58440, Note Name: D4, Velocity: 36
Note OFF: Time 58560, Note Name: D4
Note ON: Time 58560, Note Name: B3, Velocity: 46
Note OFF: Time 58680, Note Name: B3
Note ON: Time 58680, Note Name: C4, Velocity: 38
Note OFF: Time 58800, Note Name: C4
Note ON: Time 58800, Note Name: D4, Velocity: 45
Note OFF: Time 58920, Note Name: D4
Note ON: Time 58920, Note Name: B3, Velocity: 40
Note OFF: Time 59040, Note Name: B3
Note ON: Time 59040, Note Name: G3, Velocity: 45
Note OFF: Time 59160, Note Name: G3
Note ON: Time 59160, Note Name: A3, Velocity: 36
Note OFF: Time 59280, Note Name: A3
Note ON: Time 59280, Note Name: B3, Velocity: 41
Note OFF: Time 59400, Note Name: B3
Note ON: Time 59400, Note Name: G3, Velocity: 36
Note OFF: Time 59520, Note Name: G3
Note ON: Time 59520, Note Name: D3, Velocity: 46
Note OFF: Time 59640, Note Name: D3
Note ON: Time 59640, Note Name: F#3, Velocity: 38
Note OFF: Time 59760, Note Name: F#3
Note ON: Time 59760, Note Name: G3, Velocity: 45
Note OFF: Time 59880, Note Name: G3
Note ON: Time 59880, Note Name: D3, Velocity: 40
Note OFF: Time 60000, Note Name: D3
Note ON: Time 60000, Note Name: C3, Velocity: 45
Note OFF: Time 60120, Note Name: C3
Note ON: Time 60120, Note Name: G3, Velocity: 36
Note OFF: Time 60240, Note Name: G3
Note ON: Time 60240, Note Name: D3, Velocity: 41
Note OFF: Time 60360, Note Name: D3
Note ON: Time 60360, Note Name: C3, Velocity: 36
Note OFF: Time 60480, Note Name: C3
Note ON: Time 60480, Note Name: B2, Velocity: 36
Note OFF: Time 60720, Note Name: B2
Note ON: Time 60720, Note Name: G2, Velocity: 34
Note ON: Time 60720, Note Name: G3, Velocity: 40
Note OFF: Time 60960, Note Name: G3
Note OFF: Time 60960, Note Name: G2
Note ON: Time 60960, Note Name: E3, Velocity: 36
Note ON: Time 60960, Note Name: C3, Velocity: 30
Note OFF: Time 61080, Note Name: C3
Note OFF: Time 61080, Note Name: E3
Note ON: Time 61200, Note Name: C4, Velocity: 40
Note OFF: Time 61320, Note Name: C4
Note ON: Time 61320, Note Name: A3, Velocity: 36
Note OFF: Time 61440, Note Name: A3
Note ON: Time 61440, Note Name: F#3, Velocity: 36
Note OFF: Time 61680, Note Name: F#3
Note ON: Time 61680, Note Name: D3, Velocity: 31
Note ON: Time 61680, Note Name: D4, Velocity: 36
Note OFF: Time 61920, Note Name: D4
Note OFF: Time 61920, Note Name: D3
Note ON: Time 61920, Note Name: B3, Velocity: 36
Note ON: Time 61920, Note Name: G3, Velocity: 30
Note OFF: Time 62040, Note Name: G3
Note OFF: Time 62040, Note Name: B3
Note ON: Time 62160, Note Name: E4, Velocity: 36
Note ON: Time 62160, Note Name: G3, Velocity: 30
Note OFF: Time 62640, Note Name: G3
Note OFF: Time 62640, Note Name: E4
Note ON: Time 62640, Note Name: G3, Velocity: 30
Note ON: Time 62640, Note Name: E4, Velocity: 36
Note OFF: Time 62880, Note Name: E4
Note OFF: Time 62880, Note Name: G3
Note ON: Time 62880, Note Name: F#4, Velocity: 40
Note ON: Time 62880, Note Name: A3, Velocity: 34
Note OFF: Time 63120, Note Name: A3
Note OFF: Time 63120, Note Name: F#4
Note ON: Time 63120, Note Name: A3, Velocity: 25
Note ON: Time 63120, Note Name: G4, Velocity: 30
Note OFF: Time 63240, Note Name: G4
Note ON: Time 63240, Note Name: A4, Velocity: 36
Note OFF: Time 63360, Note Name: A4
Note OFF: Time 63360, Note Name: A3
Note ON: Time 63360, Note Name: A4, Velocity: 36
Note ON: Time 63360, Note Name: D4, Velocity: 30
Note OFF: Time 63600, Note Name: A4
Note ON: Time 63600, Note Name: B4, Velocity: 36
Note OFF: Time 63780, Note Name: B4
Note ON: Time 63780, Note Name: C#5, Velocity: 31
Note OFF: Time 63840, Note Name: C#5
Note ON: Time 63840, Note Name: D5, Velocity: 36
Note OFF: Time 64080, Note Name: D5
Note OFF: Time 64080, Note Name: D4
Note ON: Time 64080, Note Name: E5, Velocity: 37
Note OFF: Time 64200, Note Name: E5
Note ON: Time 64200, Note Name: F#5, Velocity: 36
Note OFF: Time 64320, Note Name: F#5
Note ON: Time 64320, Note Name: G5, Velocity: 36
Note OFF: Time 64560, Note Name: G5
Note ON: Time 64560, Note Name: D5, Velocity: 36
Note ON: Time 64560, Note Name: B4, Velocity: 30
Note OFF: Time 64800, Note Name: B4
Note OFF: Time 64800, Note Name: D5
Note ON: Time 64800, Note Name: C5, Velocity: 30
Note ON: Time 64800, Note Name: E5, Velocity: 36
Note OFF: Time 64920, Note Name: E5
Note OFF: Time 64920, Note Name: C5
Note ON: Time 65040, Note Name: A4, Velocity: 36
Note OFF: Time 65160, Note Name: A4
Note ON: Time 65160, Note Name: C5, Velocity: 32
Note OFF: Time 65280, Note Name: C5
Note ON: Time 65280, Note Name: D5, Velocity: 36
Note OFF: Time 65520, Note Name: D5
Note ON: Time 65520, Note Name: F#4, Velocity: 30
Note ON: Time 65520, Note Name: A4, Velocity: 36
Note OFF: Time 65760, Note Name: A4
Note OFF: Time 65760, Note Name: F#4
Note ON: Time 65760, Note Name: G4, Velocity: 33
Note ON: Time 65760, Note Name: B4, Velocity: 36
Note OFF: Time 65880, Note Name: B4
Note OFF: Time 65880, Note Name: G4
Note ON: Time 66240, Note Name: G4, Velocity: 30
Note ON: Time 66240, Note Name: E4, Velocity: 30
Note ON: Time 66240, Note Name: B4, Velocity: 36
Note OFF: Time 66480, Note Name: B4
Note OFF: Time 66480, Note Name: E4
Note OFF: Time 66480, Note Name: G4
Note ON: Time 66480, Note Name: C5, Velocity: 36
Note ON: Time 66480, Note Name: G4, Velocity: 30
Note ON: Time 66480, Note Name: E4, Velocity: 30
Note OFF: Time 66720, Note Name: E4
Note OFF: Time 66720, Note Name: G4
Note OFF: Time 66720, Note Name: C5
Note ON: Time 66720, Note Name: E4, Velocity: 30
Note ON: Time 66720, Note Name: G4, Velocity: 36
Note ON: Time 66720, Note Name: C5, Velocity: 36
Note OFF: Time 66840, Note Name: G4
Note ON: Time 66840, Note Name: A4, Velocity: 30
Note OFF: Time 66960, Note Name: A4
Note OFF: Time 66960, Note Name: C5
Note OFF: Time 66960, Note Name: E4
Note ON: Time 66960, Note Name: F#4, Velocity: 30
Note ON: Time 66960, Note Name: D#4, Velocity: 30
Note ON: Time 66960, Note Name: B4, Velocity: 36
Note OFF: Time 67200, Note Name: B4
Note OFF: Time 67200, Note Name: D#4
Note OFF: Time 67200, Note Name: F#4
Note ON: Time 67200, Note Name: B4, Velocity: 36
Note ON: Time 67200, Note Name: F#4, Velocity: 30
Note ON: Time 67200, Note Name: D#4, Velocity: 30
Note OFF: Time 67440, Note Name: D#4
Note OFF: Time 67440, Note Name: F#4
Note OFF: Time 67440, Note Name: B4
Note ON: Time 67440, Note Name: D#4, Velocity: 31
Note ON: Time 67440, Note Name: B3, Velocity: 26
Note OFF: Time 67680, Note Name: B3
Note OFF: Time 67680, Note Name: D#4
Note ON: Time 67680, Note Name: E4, Velocity: 30
Note ON: Time 67680, Note Name: G4, Velocity: 36
Note OFF: Time 67920, Note Name: G4
Note OFF: Time 67920, Note Name: E4
Note ON: Time 67920, Note Name: D4, Velocity: 34
Note ON: Time 67920, Note Name: F4, Velocity: 40
Note OFF: Time 68040, Note Name: F4
Note OFF: Time 68040, Note Name: D4
Note ON: Time 68040, Note Name: E4, Velocity: 36
Note ON: Time 68040, Note Name: C#4, Velocity: 30
Note OFF: Time 68160, Note Name: C#4
Note OFF: Time 68160, Note Name: E4
Note ON: Time 68160, Note Name: C#4, Velocity: 30
Note ON: Time 68160, Note Name: E4, Velocity: 36
Note OFF: Time 68400, Note Name: E4
Note OFF: Time 68400, Note Name: C#4
Note ON: Time 68400, Note Name: A3, Velocity: 26
Note ON: Time 68400, Note Name: C#4, Velocity: 31
Note OFF: Time 68640, Note Name: C#4
Note OFF: Time 68640, Note Name: A3
Note ON: Time 68640, Note Name: D4, Velocity: 30
Note ON: Time 68640, Note Name: F4, Velocity: 36
Note OFF: Time 68880, Note Name: F4
Note OFF: Time 68880, Note Name: D4
Note ON: Time 68880, Note Name: D#4, Velocity: 40
Note ON: Time 68880, Note Name: C4, Velocity: 34
Note OFF: Time 69000, Note Name: C4
Note OFF: Time 69000, Note Name: D#4
Note ON: Time 69000, Note Name: D4, Velocity: 36
Note ON: Time 69000, Note Name: B3, Velocity: 30
Note OFF: Time 69119, Note Name: B3
Note OFF: Time 69119, Note Name: D4
Note ON: Time 69120, Note Name: B3, Velocity: 30
Note ON: Time 69120, Note Name: D4, Velocity: 36
Note OFF: Time 69360, Note Name: D4
Note OFF: Time 69360, Note Name: B3
Note ON: Time 69360, Note Name: B3, Velocity: 31
Note ON: Time 69360, Note Name: G3, Velocity: 26
Note OFF: Time 69600, Note Name: G3
Note OFF: Time 69600, Note Name: B3
Note ON: Time 69600, Note Name: C4, Velocity: 30
Note ON: Time 69600, Note Name: E4, Velocity: 36
Note OFF: Time 69840, Note Name: E4
Note OFF: Time 69840, Note Name: C4
Note ON: Time 69840, Note Name: D#4, Velocity: 40
Note ON: Time 69840, Note Name: B3, Velocity: 34
Note OFF: Time 69960, Note Name: B3
Note OFF: Time 69960, Note Name: D#4
Note ON: Time 69960, Note Name: A#3, Velocity: 30
Note ON: Time 69960, Note Name: C#4, Velocity: 36
Note OFF: Time 70079, Note Name: C#4
Note OFF: Time 70079, Note Name: A#3
Note ON: Time 70080, Note Name: A#3, Velocity: 30
Note ON: Time 70080, Note Name: C#4, Velocity: 36
Note OFF: Time 70320, Note Name: C#4
Note OFF: Time 70320, Note Name: A#3
Note ON: Time 70320, Note Name: A#3, Velocity: 31
Note ON: Time 70320, Note Name: F#3, Velocity: 26
Note OFF: Time 70560, Note Name: F#3
Note OFF: Time 70560, Note Name: A#3
Note ON: Time 70560, Note Name: D4, Velocity: 36
Note ON: Time 70560, Note Name: B3, Velocity: 30
Note OFF: Time 70800, Note Name: B3
Note OFF: Time 70800, Note Name: D4
Note ON: Time 70800, Note Name: C#4, Velocity: 40
Note ON: Time 70800, Note Name: A3, Velocity: 34
Note OFF: Time 70920, Note Name: A3
Note OFF: Time 70920, Note Name: C#4
Note ON: Time 70920, Note Name: B3, Velocity: 36
Note ON: Time 70920, Note Name: G#3, Velocity: 30
Note OFF: Time 71040, Note Name: G#3
Note OFF: Time 71040, Note Name: B3
Note ON: Time 71040, Note Name: B3, Velocity: 36
Note ON: Time 71040, Note Name: G#3, Velocity: 30
Note OFF: Time 71280, Note Name: G#3
Note OFF: Time 71280, Note Name: B3
Note ON: Time 71280, Note Name: A3, Velocity: 36
Note ON: Time 71280, Note Name: E4, Velocity: 30
Note OFF: Time 71400, Note Name: A3
Note ON: Time 71400, Note Name: G3, Velocity: 30
Note OFF: Time 71520, Note Name: G3
Note OFF: Time 71520, Note Name: E4
Note ON: Time 71520, Note Name: F#3, Velocity: 30
Note ON: Time 71520, Note Name: A3, Velocity: 36
Note OFF: Time 71760, Note Name: A3
Note OFF: Time 71760, Note Name: F#3
Note ON: Time 71760, Note Name: G3, Velocity: 36
Note ON: Time 71760, Note Name: B3, Velocity: 30
Note OFF: Time 71880, Note Name: G3
Note ON: Time 71880, Note Name: B2, Velocity: 32
Note OFF: Time 72000, Note Name: B2
Note OFF: Time 72000, Note Name: B3
Note ON: Time 72000, Note Name: D3, Velocity: 25
Note ON: Time 72000, Note Name: C4, Velocity: 30
Note ON: Time 72000, Note Name: A2, Velocity: 25
Note OFF: Time 73440, Note Name: A2
Note OFF: Time 73440, Note Name: C4
Note OFF: Time 73440, Note Name: D3
Note ON: Time 73440, Note Name: B3, Velocity: 30
Note ON: Time 73440, Note Name: B2, Velocity: 25
Note ON: Time 73440, Note Name: D3, Velocity: 25
Note OFF: Time 73920, Note Name: D3
Note OFF: Time 73920, Note Name: B2
Note OFF: Time 73920, Note Name: B3
Note ON: Time 73920, Note Name: A2, Velocity: 25
Note ON: Time 73920, Note Name: C4, Velocity: 30
Note ON: Time 73920, Note Name: D3, Velocity: 25
Note OFF: Time 75360, Note Name: D3
Note OFF: Time 75360, Note Name: C4
Note OFF: Time 75360, Note Name: A2
Note ON: Time 75360, Note Name: B2, Velocity: 25
Note ON: Time 75360, Note Name: D3, Velocity: 25
Note ON: Time 75360, Note Name: B3, Velocity: 30
Note OFF: Time 75840, Note Name: B3
Note OFF: Time 75840, Note Name: D3
Note OFF: Time 75840, Note Name: B2
Note ON: Time 75840, Note Name: B2, Velocity: 30
Note ON: Time 75840, Note Name: B1, Velocity: 25
Note OFF: Time 76320, Note Name: B1
Note OFF: Time 76320, Note Name: B2
Note ON: Time 76320, Note Name: E2, Velocity: 23
Note ON: Time 76320, Note Name: E3, Velocity: 28
Note OFF: Time 76800, Note Name: E3
Note OFF: Time 76800, Note Name: E2
Note ON: Time 76800, Note Name: C#3, Velocity: 30
Note ON: Time 76800, Note Name: C#2, Velocity: 25
Note OFF: Time 77280, Note Name: C#2
Note OFF: Time 77280, Note Name: C#3
Note ON: Time 77280, Note Name: D3, Velocity: 29
Note ON: Time 77280, Note Name: D2, Velocity: 24
Note OFF: Time 77520, Note Name: D2
Note OFF: Time 77520, Note Name: D3
Note ON: Time 77760, Note Name: A3, Velocity: 25
Note ON: Time 77760, Note Name: C5, Velocity: 30
Note ON: Time 77760, Note Name: D4, Velocity: 25
Note OFF: Time 79200, Note Name: D4
Note OFF: Time 79200, Note Name: C5
Note OFF: Time 79200, Note Name: A3
Note ON: Time 79200, Note Name: B4, Velocity: 30
Note ON: Time 79200, Note Name: B3, Velocity: 25
Note ON: Time 79200, Note Name: D4, Velocity: 25
Note OFF: Time 79680, Note Name: D4
Note OFF: Time 79680, Note Name: B3
Note OFF: Time 79680, Note Name: B4
Note ON: Time 79680, Note Name: C4, Velocity: 30
Note ON: Time 79680, Note Name: A2, Velocity: 25
Note ON: Time 79680, Note Name: D3, Velocity: 25
Note OFF: Time 81120, Note Name: D3
Note OFF: Time 81120, Note Name: A2
Note OFF: Time 81120, Note Name: C4
Note ON: Time 81120, Note Name: B2, Velocity: 25
Note ON: Time 81120, Note Name: B3, Velocity: 30
Note ON: Time 81120, Note Name: D3, Velocity: 25
Note OFF: Time 81360, Note Name: D3
Note OFF: Time 81360, Note Name: B3
Note OFF: Time 81360, Note Name: B2
Note ON: Time 81360, Note Name: B3, Velocity: 30
Note OFF: Time 81600, Note Name: B3
Note ON: Time 81600, Note Name: B3, Velocity: 30
Note OFF: Time 82080, Note Name: B3
Note ON: Time 82080, Note Name: E4, Velocity: 28
Note OFF: Time 82560, Note Name: E4
Note ON: Time 82560, Note Name: C#4, Velocity: 30
Note OFF: Time 83040, Note Name: C#4
Note ON: Time 83040, Note Name: D4, Velocity: 29
Note OFF: Time 83280, Note Name: D4
Note ON: Time 83280, Note Name: D#4, Velocity: 29
Note OFF: Time 83520, Note Name: D#4
Note ON: Time 83520, Note Name: E4, Velocity: 31
Note OFF: Time 84000, Note Name: E4
Note ON: Time 84000, Note Name: A4, Velocity: 30
Note OFF: Time 84480, Note Name: A4
Note ON: Time 84480, Note Name: F#4, Velocity: 33
Note OFF: Time 84960, Note Name: F#4
Note ON: Time 84960, Note Name: G4, Velocity: 34
Note OFF: Time 85200, Note Name: G4
Note ON: Time 85200, Note Name: G#4, Velocity: 34
Note OFF: Time 85440, Note Name: G#4
Note ON: Time 85440, Note Name: A4, Velocity: 36
Note OFF: Time 85920, Note Name: A4
Note ON: Time 85920, Note Name: C#5, Velocity: 35
Note OFF: Time 86400, Note Name: C#5
Note ON: Time 86400, Note Name: B4, Velocity: 39
Note OFF: Time 86880, Note Name: B4
Note ON: Time 86880, Note Name: C4, Velocity: 39
Note ON: Time 86880, Note Name: C5, Velocity: 39
Note OFF: Time 87600, Note Name: C5
Note OFF: Time 87600, Note Name: C4
Note ON: Time 87600, Note Name: C2, Velocity: 56
Note ON: Time 87600, Note Name: C3, Velocity: 66
Note OFF: Time 87840, Note Name: C3
Note OFF: Time 87840, Note Name: C2
Note ON: Time 88560, Note Name: E4, Velocity: 82
Note ON: Time 88560, Note Name: C4, Velocity: 69
Note OFF: Time 88680, Note Name: C4
Note OFF: Time 88680, Note Name: E4
Note ON: Time 88800, Note Name: B3, Velocity: 67
Note ON: Time 88800, Note Name: D4, Velocity: 79
Note OFF: Time 89040, Note Name: D4
Note OFF: Time 89040, Note Name: B3
Note ON: Time 89040, Note Name: C4, Velocity: 68
Note ON: Time 89040, Note Name: E4, Velocity: 81
Note OFF: Time 89160, Note Name: E4
Note OFF: Time 89160, Note Name: C4
Note ON: Time 89160, Note Name: F4, Velocity: 84
Note ON: Time 89160, Note Name: D4, Velocity: 71
Note OFF: Time 89280, Note Name: D4
Note OFF: Time 89280, Note Name: F4
Note ON: Time 89280, Note Name: G4, Velocity: 88
Note ON: Time 89280, Note Name: E4, Velocity: 74
Note OFF: Time 89400, Note Name: E4
Note OFF: Time 89400, Note Name: G4
Note ON: Time 89520, Note Name: C3, Velocity: 66
Note ON: Time 89520, Note Name: C2, Velocity: 56
Note OFF: Time 89760, Note Name: C2
Note OFF: Time 89760, Note Name: C3
Note ON: Time 90480, Note Name: C#2, Velocity: 62
Note ON: Time 90480, Note Name: C#3, Velocity: 74
Note OFF: Time 90720, Note Name: C#3
Note OFF: Time 90720, Note Name: C#2
Note ON: Time 90960, Note Name: A2, Velocity: 79
Note ON: Time 90960, Note Name: A1, Velocity: 67
Note OFF: Time 91200, Note Name: A1
Note OFF: Time 91200, Note Name: A2
Note ON: Time 91440, Note Name: D3, Velocity: 74
Note ON: Time 91440, Note Name: D2, Velocity: 62
Note OFF: Time 91680, Note Name: D2
Note OFF: Time 91680, Note Name: D3
Note ON: Time 91920, Note Name: E3, Velocity: 79
Note ON: Time 91920, Note Name: E2, Velocity: 67
Note OFF: Time 92160, Note Name: E2
Note OFF: Time 92160, Note Name: E3
Note ON: Time 92160, Note Name: D2, Velocity: 50
Note OFF: Time 92280, Note Name: D2
Note ON: Time 92280, Note Name: F#2, Velocity: 50
Note OFF: Time 92400, Note Name: F#2
Note ON: Time 92400, Note Name: G2, Velocity: 50
Note OFF: Time 92520, Note Name: G2
Note ON: Time 92520, Note Name: B2, Velocity: 50
Note OFF: Time 92640, Note Name: B2
Note ON: Time 92640, Note Name: D3, Velocity: 50
Note OFF: Time 92760, Note Name: D3
Note ON: Time 92760, Note Name: F#3, Velocity: 50
Note OFF: Time 92880, Note Name: F#3
Note ON: Time 92880, Note Name: G3, Velocity: 50
Note OFF: Time 93000, Note Name: G3
Note ON: Time 93000, Note Name: B3, Velocity: 50
Note OFF: Time 93120, Note Name: B3
Note ON: Time 93120, Note Name: D4, Velocity: 50
Note OFF: Time 93240, Note Name: D4
Note ON: Time 93240, Note Name: F#4, Velocity: 50
Note OFF: Time 93360, Note Name: F#4
Note ON: Time 93360, Note Name: G4, Velocity: 50
Note OFF: Time 93480, Note Name: G4
Note ON: Time 93480, Note Name: B4, Velocity: 50
Note OFF: Time 93600, Note Name: B4
Note ON: Time 93840, Note Name: G4, Velocity: 43
Note OFF: Time 93960, Note Name: G4
Note ON: Time 93960, Note Name: B4, Velocity: 44
Note OFF: Time 94080, Note Name: B4
Note ON: Time 94080, Note Name: C#5, Velocity: 45
Note OFF: Time 94200, Note Name: C#5
Note ON: Time 94200, Note Name: D5, Velocity: 46
Note OFF: Time 94320, Note Name: D5
Note ON: Time 94320, Note Name: E5, Velocity: 47
Note OFF: Time 94440, Note Name: E5
Note ON: Time 94440, Note Name: D5, Velocity: 48
Note OFF: Time 94560, Note Name: D5
Note ON: Time 94560, Note Name: F#5, Velocity: 50
Note OFF: Time 94680, Note Name: F#5
Note ON: Time 94680, Note Name: G5, Velocity: 51
Note OFF: Time 94800, Note Name: G5
Note ON: Time 94800, Note Name: A5, Velocity: 52
Note OFF: Time 94920, Note Name: A5
Note ON: Time 94920, Note Name: G5, Velocity: 53
Note OFF: Time 95040, Note Name: G5
Note ON: Time 95040, Note Name: A#5, Velocity: 54
Note OFF: Time 95160, Note Name: A#5
Note ON: Time 95160, Note Name: B5, Velocity: 55
Note OFF: Time 95280, Note Name: B5
Note ON: Time 95280, Note Name: C6, Velocity: 56
Note OFF: Time 95400, Note Name: C6
Note ON: Time 95400, Note Name: B5, Velocity: 58
Note OFF: Time 95520, Note Name: B5
Note ON: Time 95520, Note Name: D6, Velocity: 59
Note OFF: Time 95760, Note Name: D6
Note ON: Time 95760, Note Name: D4, Velocity: 60
Note OFF: Time 95840, Note Name: D4
Note ON: Time 95840, Note Name: E4, Velocity: 63
Note OFF: Time 95920, Note Name: E4
Note ON: Time 95920, Note Name: F#4, Velocity: 66
Note OFF: Time 96000, Note Name: F#4
Note ON: Time 96000, Note Name: G3, Velocity: 40
Note OFF: Time 96160, Note Name: G3
Note ON: Time 96160, Note Name: B4, Velocity: 32
Note OFF: Time 96320, Note Name: B4
Note ON: Time 96320, Note Name: G4, Velocity: 32
Note OFF: Time 96480, Note Name: G4
Note ON: Time 96480, Note Name: F#4, Velocity: 40
Note OFF: Time 96640, Note Name: F#4
Note ON: Time 96640, Note Name: B4, Velocity: 33
Note OFF: Time 96800, Note Name: B4
Note ON: Time 96800, Note Name: G4, Velocity: 33
Note OFF: Time 96960, Note Name: G4
Note ON: Time 96960, Note Name: D#4, Velocity: 40
Note OFF: Time 97120, Note Name: D#4
Note ON: Time 97120, Note Name: C5, Velocity: 31
Note OFF: Time 97280, Note Name: C5
Note ON: Time 97280, Note Name: G4, Velocity: 31
Note OFF: Time 97440, Note Name: G4
Note ON: Time 97440, Note Name: C4, Velocity: 40
Note OFF: Time 97600, Note Name: C4
Note ON: Time 97600, Note Name: C5, Velocity: 33
Note OFF: Time 97760, Note Name: C5
Note ON: Time 97760, Note Name: G4, Velocity: 33
Note OFF: Time 97920, Note Name: G4
Note ON: Time 97920, Note Name: B3, Velocity: 40
Note OFF: Time 98080, Note Name: B3
Note ON: Time 98080, Note Name: B4, Velocity: 31
Note OFF: Time 98240, Note Name: B4
Note ON: Time 98240, Note Name: G4, Velocity: 31
Note OFF: Time 98400, Note Name: G4
Note ON: Time 98400, Note Name: G3, Velocity: 40
Note OFF: Time 98560, Note Name: G3
Note ON: Time 98560, Note Name: B4, Velocity: 32
Note OFF: Time 98720, Note Name: B4
Note ON: Time 98720, Note Name: G4, Velocity: 32
Note OFF: Time 98880, Note Name: G4
Note ON: Time 98880, Note Name: C4, Velocity: 40
Note OFF: Time 99040, Note Name: C4
Note ON: Time 99040, Note Name: C5, Velocity: 33
Note OFF: Time 99200, Note Name: C5
Note ON: Time 99200, Note Name: G4, Velocity: 33
Note OFF: Time 99360, Note Name: G4
Note ON: Time 99360, Note Name: D#4, Velocity: 40
Note OFF: Time 99520, Note Name: D#4
Note ON: Time 99520, Note Name: C5, Velocity: 32
Note OFF: Time 99680, Note Name: C5
Note ON: Time 99680, Note Name: G4, Velocity: 32
Note OFF: Time 99840, Note Name: G4
Note ON: Time 99840, Note Name: D4, Velocity: 40
Note OFF: Time 100000, Note Name: D4
Note ON: Time 100000, Note Name: A#4, Velocity: 32
Note OFF: Time 100160, Note Name: A#4
Note ON: Time 100160, Note Name: G4, Velocity: 32
Note OFF: Time 100320, Note Name: G4
Note ON: Time 100320, Note Name: D4, Velocity: 40
Note OFF: Time 100480, Note Name: D4
Note ON: Time 100480, Note Name: B4, Velocity: 36
Note OFF: Time 100640, Note Name: B4
Note ON: Time 100640, Note Name: G4, Velocity: 36
Note OFF: Time 100800, Note Name: G4
Note ON: Time 100800, Note Name: D4, Velocity: 40
Note OFF: Time 100960, Note Name: D4
Note ON: Time 100960, Note Name: C5, Velocity: 33
Note OFF: Time 101120, Note Name: C5
Note ON: Time 101120, Note Name: A4, Velocity: 33
Note OFF: Time 101280, Note Name: A4
Note ON: Time 101280, Note Name: D3, Velocity: 40
Note OFF: Time 101440, Note Name: D3
Note ON: Time 101440, Note Name: D4, Velocity: 34
Note OFF: Time 101600, Note Name: D4
Note ON: Time 101600, Note Name: C4, Velocity: 34
Note OFF: Time 101760, Note Name: C4
Note ON: Time 101760, Note Name: G2, Velocity: 40
Note OFF: Time 101880, Note Name: G2
Note ON: Time 101880, Note Name: G3, Velocity: 33
Note OFF: Time 102000, Note Name: G3
Note ON: Time 102000, Note Name: B3, Velocity: 33
Note OFF: Time 102120, Note Name: B3
Note ON: Time 102120, Note Name: G3, Velocity: 33
Note OFF: Time 102240, Note Name: G3
Note ON: Time 102240, Note Name: F#3, Velocity: 41
Note OFF: Time 102360, Note Name: F#3
Note ON: Time 102360, Note Name: G3, Velocity: 35
Note OFF: Time 102480, Note Name: G3
Note ON: Time 102480, Note Name: G4, Velocity: 35
Note OFF: Time 102600, Note Name: G4
Note ON: Time 102600, Note Name: G3, Velocity: 35
Note OFF: Time 102720, Note Name: G3
Note ON: Time 102720, Note Name: E3, Velocity: 42
Note OFF: Time 102840, Note Name: E3
Note ON: Time 102840, Note Name: G3, Velocity: 36
Note OFF: Time 102960, Note Name: G3
Note ON: Time 102960, Note Name: G4, Velocity: 36
Note OFF: Time 103080, Note Name: G4
Note ON: Time 103080, Note Name: G3, Velocity: 37
Note OFF: Time 103200, Note Name: G3
Note ON: Time 103200, Note Name: C3, Velocity: 44
Note OFF: Time 103320, Note Name: C3
Note ON: Time 103320, Note Name: G3, Velocity: 37
Note OFF: Time 103440, Note Name: G3
Note ON: Time 103440, Note Name: E4, Velocity: 37
Note OFF: Time 103560, Note Name: E4
Note ON: Time 103560, Note Name: G3, Velocity: 38
Note OFF: Time 103680, Note Name: G3
Note ON: Time 103680, Note Name: B2, Velocity: 45
Note OFF: Time 103800, Note Name: B2
Note ON: Time 103800, Note Name: G3, Velocity: 37
Note OFF: Time 103920, Note Name: G3
Note ON: Time 103920, Note Name: D4, Velocity: 37
Note OFF: Time 104040, Note Name: D4
Note ON: Time 104040, Note Name: G3, Velocity: 37
Note OFF: Time 104160, Note Name: G3
Note ON: Time 104160, Note Name: G2, Velocity: 46
Note OFF: Time 104280, Note Name: G2
Note ON: Time 104280, Note Name: G3, Velocity: 39
Note OFF: Time 104400, Note Name: G3
Note ON: Time 104400, Note Name: B3, Velocity: 40
Note OFF: Time 104520, Note Name: B3
Note ON: Time 104520, Note Name: G3, Velocity: 40
Note OFF: Time 104640, Note Name: G3
Note ON: Time 104640, Note Name: C3, Velocity: 48
Note OFF: Time 104760, Note Name: C3
Note ON: Time 104760, Note Name: G3, Velocity: 42
Note OFF: Time 104880, Note Name: G3
Note ON: Time 104880, Note Name: E4, Velocity: 42
Note OFF: Time 105000, Note Name: E4
Note ON: Time 105000, Note Name: G3, Velocity: 42
Note OFF: Time 105120, Note Name: G3
Note ON: Time 105120, Note Name: E3, Velocity: 51
Note OFF: Time 105240, Note Name: E3
Note ON: Time 105240, Note Name: G3, Velocity: 43
Note OFF: Time 105360, Note Name: G3
Note ON: Time 105360, Note Name: G4, Velocity: 43
Note OFF: Time 105480, Note Name: G4
Note ON: Time 105480, Note Name: G3, Velocity: 43
Note OFF: Time 105600, Note Name: G3
Note ON: Time 105600, Note Name: D3, Velocity: 50
Note OFF: Time 105720, Note Name: D3
Note ON: Time 105720, Note Name: E3, Velocity: 44
Note OFF: Time 105840, Note Name: E3
Note ON: Time 105840, Note Name: F#3, Velocity: 48
Note OFF: Time 105960, Note Name: F#3
Note ON: Time 105960, Note Name: G3, Velocity: 51
Note OFF: Time 106080, Note Name: G3
Note ON: Time 106080, Note Name: A3, Velocity: 54
Note OFF: Time 106200, Note Name: A3
Note ON: Time 106200, Note Name: B3, Velocity: 55
Note OFF: Time 106320, Note Name: B3
Note ON: Time 106320, Note Name: A3, Velocity: 55
Note OFF: Time 106440, Note Name: A3
Note ON: Time 106440, Note Name: G3, Velocity: 54
Note OFF: Time 106560, Note Name: G3
Note ON: Time 106560, Note Name: F#3, Velocity: 54
Note OFF: Time 106680, Note Name: F#3
Note ON: Time 106680, Note Name: G3, Velocity: 49
Note OFF: Time 106800, Note Name: G3
Note ON: Time 106800, Note Name: F#3, Velocity: 49
Note OFF: Time 106920, Note Name: F#3
Note ON: Time 106920, Note Name: E3, Velocity: 49
Note OFF: Time 107040, Note Name: E3
Note ON: Time 107040, Note Name: D3, Velocity: 54
Note OFF: Time 107160, Note Name: D3
Note ON: Time 107160, Note Name: C3, Velocity: 50
Note OFF: Time 107280, Note Name: C3
Note ON: Time 107280, Note Name: B2, Velocity: 59
Note OFF: Time 107400, Note Name: B2
Note ON: Time 107400, Note Name: A2, Velocity: 66
Note OFF: Time 107520, Note Name: A2
Note ON: Time 107520, Note Name: G1, Velocity: 66
Note OFF: Time 107640, Note Name: G1
Note ON: Time 107640, Note Name: G2, Velocity: 56
Note OFF: Time 107760, Note Name: G2
Note ON: Time 107760, Note Name: G1, Velocity: 66
Note OFF: Time 107880, Note Name: G1
Note ON: Time 107880, Note Name: G2, Velocity: 56
Note OFF: Time 108000, Note Name: G2
Note ON: Time 108000, Note Name: G1, Velocity: 66
Note OFF: Time 108120, Note Name: G1
Note ON: Time 108120, Note Name: G2, Velocity: 57
Note OFF: Time 108240, Note Name: G2
Note ON: Time 108240, Note Name: G1, Velocity: 66
Note OFF: Time 108360, Note Name: G1
Note ON: Time 108360, Note Name: G2, Velocity: 57
Note OFF: Time 108480, Note Name: G2
Note ON: Time 108480, Note Name: G1, Velocity: 66
Note OFF: Time 108600, Note Name: G1
Note ON: Time 108600, Note Name: G2, Velocity: 57
Note OFF: Time 108720, Note Name: G2
Note ON: Time 108720, Note Name: G1, Velocity: 66
Note OFF: Time 108840, Note Name: G1
Note ON: Time 108840, Note Name: G2, Velocity: 58
Note OFF: Time 108960, Note Name: G2
Note ON: Time 108960, Note Name: G1, Velocity: 66
Note OFF: Time 109080, Note Name: G1
Note ON: Time 109080, Note Name: G2, Velocity: 59
Note OFF: Time 109200, Note Name: G2
Note ON: Time 109200, Note Name: G#1, Velocity: 45
Note OFF: Time 109320, Note Name: G#1
Note ON: Time 109320, Note Name: G#2, Velocity: 34
Note OFF: Time 109440, Note Name: G#2
Note ON: Time 109440, Note Name: A1, Velocity: 43
Note OFF: Time 109560, Note Name: A1
Note ON: Time 109560, Note Name: A2, Velocity: 33
Note OFF: Time 109680, Note Name: A2
Note ON: Time 109680, Note Name: G#1, Velocity: 43
Note OFF: Time 109800, Note Name: G#1
Note ON: Time 109800, Note Name: G#2, Velocity: 33
Note OFF: Time 109920, Note Name: G#2
Note ON: Time 109920, Note Name: A1, Velocity: 43
Note OFF: Time 110040, Note Name: A1
Note ON: Time 110040, Note Name: A2, Velocity: 34
Note OFF: Time 110160, Note Name: A2
Note ON: Time 110160, Note Name: C2, Velocity: 43
Note OFF: Time 110280, Note Name: C2
Note ON: Time 110280, Note Name: C3, Velocity: 35
Note OFF: Time 110400, Note Name: C3
Note ON: Time 110400, Note Name: C#2, Velocity: 43
Note OFF: Time 110520, Note Name: C#2
Note ON: Time 110520, Note Name: C#3, Velocity: 33
Note OFF: Time 110640, Note Name: C#3
Note ON: Time 110640, Note Name: E2, Velocity: 43
Note OFF: Time 110760, Note Name: E2
Note ON: Time 110760, Note Name: E3, Velocity: 33
Note OFF: Time 110880, Note Name: E3
Note ON: Time 110880, Note Name: D2, Velocity: 43
Note OFF: Time 111000, Note Name: D2
Note ON: Time 111000, Note Name: D3, Velocity: 34
Note OFF: Time 111120, Note Name: D3
Note ON: Time 111120, Note Name: D2, Velocity: 43
Note OFF: Time 111240, Note Name: D2
Note ON: Time 111240, Note Name: D3, Velocity: 35
Note OFF: Time 111360, Note Name: D3
Note ON: Time 111360, Note Name: D2, Velocity: 47
Note OFF: Time 111480, Note Name: D2
Note ON: Time 111480, Note Name: D3, Velocity: 36
Note OFF: Time 111600, Note Name: D3
Note ON: Time 111600, Note Name: G2, Velocity: 48
Note OFF: Time 111720, Note Name: G2
Note ON: Time 111720, Note Name: G3, Velocity: 37
Note OFF: Time 111840, Note Name: G3
Note ON: Time 111840, Note Name: D2, Velocity: 50
Note OFF: Time 111960, Note Name: D2
Note ON: Time 111960, Note Name: D3, Velocity: 40
Note OFF: Time 112078, Note Name: D3
Note ON: Time 112080, Note Name: D3, Velocity: 53
Note OFF: Time 112200, Note Name: D3
Note ON: Time 112200, Note Name: D4, Velocity: 44
Note OFF: Time 112320, Note Name: D4
Note ON: Time 112320, Note Name: D2, Velocity: 54
Note OFF: Time 112440, Note Name: D2
Note ON: Time 112440, Note Name: D3, Velocity: 42
Note OFF: Time 112560, Note Name: D3
Note ON: Time 112560, Note Name: G2, Velocity: 57
Note OFF: Time 112680, Note Name: G2
Note ON: Time 112680, Note Name: G3, Velocity: 44
Note OFF: Time 112800, Note Name: G3
Note ON: Time 112800, Note Name: D2, Velocity: 58
Note OFF: Time 112920, Note Name: D2
Note ON: Time 112920, Note Name: D3, Velocity: 47
Note OFF: Time 113038, Note Name: D3
Note ON: Time 113040, Note Name: D3, Velocity: 61
Note OFF: Time 113160, Note Name: D3
Note ON: Time 113160, Note Name: D4, Velocity: 51
Note OFF: Time 113280, Note Name: D4
Note ON: Time 113280, Note Name: G2, Velocity: 59
Note OFF: Time 113400, Note Name: G2
Note ON: Time 113400, Note Name: G3, Velocity: 50
Note OFF: Time 113520, Note Name: G3
Note ON: Time 113520, Note Name: D2, Velocity: 61
Note OFF: Time 113640, Note Name: D2
Note ON: Time 113640, Note Name: D3, Velocity: 51
Note OFF: Time 113760, Note Name: D3
Note ON: Time 113760, Note Name: F#2, Velocity: 64
Note OFF: Time 113880, Note Name: F#2
Note ON: Time 113880, Note Name: F#3, Velocity: 55
Note OFF: Time 114000, Note Name: F#3
Note ON: Time 114000, Note Name: A2, Velocity: 67
Note OFF: Time 114120, Note Name: A2
Note ON: Time 114120, Note Name: A3, Velocity: 58
Note OFF: Time 114240, Note Name: A3
Note ON: Time 114240, Note Name: G2, Velocity: 68
Note OFF: Time 114360, Note Name: G2
Note ON: Time 114360, Note Name: G3, Velocity: 63
Note OFF: Time 114480, Note Name: G3
Note ON: Time 114480, Note Name: D2, Velocity: 71
Note OFF: Time 114600, Note Name: D2
Note ON: Time 114600, Note Name: D3, Velocity: 63
Note OFF: Time 114720, Note Name: D3
Note ON: Time 114720, Note Name: F#1, Velocity: 74
Note OFF: Time 114840, Note Name: F#1
Note ON: Time 114840, Note Name: F#2, Velocity: 64
Note OFF: Time 114960, Note Name: F#2
Note ON: Time 114960, Note Name: A1, Velocity: 76
Note OFF: Time 115080, Note Name: A1
Note ON: Time 115080, Note Name: A2, Velocity: 67
Note OFF: Time 115200, Note Name: A2
Note ON: Time 115200, Note Name: G1, Velocity: 69
Note ON: Time 115200, Note Name: G2, Velocity: 81
Note OFF: Time 115380, Note Name: G2
Note OFF: Time 115380, Note Name: G1
Note ON: Time 115680, Note Name: A1, Velocity: 69
Note ON: Time 115680, Note Name: A2, Velocity: 81
Note OFF: Time 115860, Note Name: A2
Note OFF: Time 115860, Note Name: A1
Note ON: Time 116160, Note Name: A#1, Velocity: 72
Note ON: Time 116160, Note Name: A#2, Velocity: 86
Note OFF: Time 117000, Note Name: A#2
Note OFF: Time 117000, Note Name: A#1
Note ON: Time 117000, Note Name: A#2, Velocity: 50
Note OFF: Time 117120, Note Name: A#2
Note ON: Time 117120, Note Name: A#3, Velocity: 71
Note OFF: Time 117480, Note Name: A#3
Note ON: Time 117480, Note Name: A#3, Velocity: 58
Note OFF: Time 117600, Note Name: A#3
Note ON: Time 117600, Note Name: A#3, Velocity: 65
Note OFF: Time 117840, Note Name: A#3
Note ON: Time 118920, Note Name: D3, Velocity: 50
Note OFF: Time 119040, Note Name: D3
Note ON: Time 119040, Note Name: D4, Velocity: 71
Note OFF: Time 119400, Note Name: D4
Note ON: Time 119400, Note Name: D4, Velocity: 58
Note OFF: Time 119520, Note Name: D4
Note ON: Time 119520, Note Name: D4, Velocity: 64
Note OFF: Time 119760, Note Name: D4
Note ON: Time 120840, Note Name: A#1, Velocity: 96
Note OFF: Time 120960, Note Name: A#1
Note ON: Time 120960, Note Name: F3, Velocity: 78
Note ON: Time 120960, Note Name: D4, Velocity: 93
Note ON: Time 120960, Note Name: A#3, Velocity: 78
Note OFF: Time 121320, Note Name: A#3
Note OFF: Time 121320, Note Name: D4
Note OFF: Time 121320, Note Name: F3
Note ON: Time 121320, Note Name: A#3, Velocity: 69
Note ON: Time 121320, Note Name: D4, Velocity: 84
Note ON: Time 121320, Note Name: F3, Velocity: 69
Note OFF: Time 121440, Note Name: F3
Note OFF: Time 121440, Note Name: D4
Note OFF: Time 121440, Note Name: A#3
Note ON: Time 121440, Note Name: A#3, Velocity: 78
Note ON: Time 121440, Note Name: F3, Velocity: 78
Note ON: Time 121440, Note Name: D4, Velocity: 93
Note OFF: Time 121620, Note Name: D4
Note OFF: Time 121620, Note Name: F3
Note OFF: Time 121620, Note Name: A#3
Note ON: Time 121680, Note Name: A#3, Velocity: 75
Note ON: Time 121680, Note Name: D4, Velocity: 88
Note ON: Time 121680, Note Name: F3, Velocity: 75
Note OFF: Time 121725, Note Name: F3
Note OFF: Time 121725, Note Name: D4
Note OFF: Time 121725, Note Name: A#3
Note ON: Time 121800, Note Name: A#3, Velocity: 78
Note ON: Time 121800, Note Name: F3, Velocity: 78
Note ON: Time 121800, Note Name: D4, Velocity: 93
Note OFF: Time 121845, Note Name: D4
Note OFF: Time 121845, Note Name: F3
Note OFF: Time 121845, Note Name: A#3
Note ON: Time 121920, Note Name: D4, Velocity: 93
Note ON: Time 121920, Note Name: F3, Velocity: 78
Note ON: Time 121920, Note Name: A#3, Velocity: 78
Note OFF: Time 122040, Note Name: A#3
Note OFF: Time 122040, Note Name: F3
Note OFF: Time 122040, Note Name: D4
Note ON: Time 122160, Note Name: D3, Velocity: 78
Note ON: Time 122160, Note Name: A#3, Velocity: 93
Note ON: Time 122160, Note Name: F3, Velocity: 78
Note OFF: Time 122280, Note Name: F3
Note OFF: Time 122280, Note Name: A#3
Note OFF: Time 122280, Note Name: D3
Note ON: Time 122760, Note Name: A#1, Velocity: 96
Note OFF: Time 122880, Note Name: A#1
Note ON: Time 122880, Note Name: D4, Velocity: 78
Note ON: Time 122880, Note Name: A#3, Velocity: 78
Note ON: Time 122880, Note Name: F4, Velocity: 93
Note ON: Time 122880, Note Name: F3, Velocity: 78
Note OFF: Time 123240, Note Name: F3
Note OFF: Time 123240, Note Name: D4
Note OFF: Time 123240, Note Name: A#3
Note OFF: Time 123240, Note Name: F4
Note ON: Time 123240, Note Name: F3, Velocity: 69
Note ON: Time 123240, Note Name: F4, Velocity: 84
Note ON: Time 123240, Note Name: D4, Velocity: 69
Note ON: Time 123240, Note Name: A#3, Velocity: 69
Note OFF: Time 123360, Note Name: A#3
Note OFF: Time 123360, Note Name: F3
Note OFF: Time 123360, Note Name: F4
Note OFF: Time 123360, Note Name: D4
Note ON: Time 123360, Note Name: A#3, Velocity: 78
Note ON: Time 123360, Note Name: F4, Velocity: 93
Note ON: Time 123360, Note Name: D4, Velocity: 78
Note ON: Time 123360, Note Name: F3, Velocity: 78
Note OFF: Time 123540, Note Name: F3
Note OFF: Time 123540, Note Name: A#3
Note OFF: Time 123540, Note Name: F4
Note OFF: Time 123540, Note Name: D4
Note ON: Time 123600, Note Name: F3, Velocity: 75
Note ON: Time 123600, Note Name: A#3, Velocity: 75
Note ON: Time 123600, Note Name: F4, Velocity: 88
Note ON: Time 123600, Note Name: D4, Velocity: 75
Note OFF: Time 123645, Note Name: D4
Note OFF: Time 123645, Note Name: F3
Note OFF: Time 123645, Note Name: A#3
Note OFF: Time 123645, Note Name: F4
Note ON: Time 123720, Note Name: A#3, Velocity: 78
Note ON: Time 123720, Note Name: F4, Velocity: 93
Note ON: Time 123720, Note Name: F3, Velocity: 78
Note ON: Time 123720, Note Name: D4, Velocity: 78
Note OFF: Time 123765, Note Name: D4
Note OFF: Time 123765, Note Name: A#3
Note OFF: Time 123765, Note Name: F4
Note OFF: Time 123765, Note Name: F3
Note ON: Time 123840, Note Name: F3, Velocity: 78
Note ON: Time 123840, Note Name: D4, Velocity: 78
Note ON: Time 123840, Note Name: F4, Velocity: 93
Note ON: Time 123840, Note Name: A#3, Velocity: 78
Note OFF: Time 123960, Note Name: A#3
Note OFF: Time 123960, Note Name: F3
Note OFF: Time 123960, Note Name: D4
Note OFF: Time 123960, Note Name: F4
Note ON: Time 124080, Note Name: A#3, Velocity: 78
Note ON: Time 124080, Note Name: D4, Velocity: 93
Note ON: Time 124080, Note Name: F3, Velocity: 78
Note OFF: Time 124200, Note Name: F3
Note OFF: Time 124200, Note Name: D4
Note OFF: Time 124200, Note Name: A#3
Note ON: Time 125040, Note Name: E4, Velocity: 29
Note OFF: Time 125280, Note Name: E4
Note ON: Time 125280, Note Name: F4, Velocity: 29
Note OFF: Time 125520, Note Name: F4
Note ON: Time 125520, Note Name: B3, Velocity: 40
Note OFF: Time 125760, Note Name: B3
Note ON: Time 125760, Note Name: C4, Velocity: 40
Note OFF: Time 126000, Note Name: C4
Note ON: Time 126000, Note Name: F#3, Velocity: 36
Note OFF: Time 126240, Note Name: F#3
Note ON: Time 126240, Note Name: G3, Velocity: 36
Note OFF: Time 126480, Note Name: G3
Note ON: Time 126480, Note Name: D#3, Velocity: 40
Note OFF: Time 126720, Note Name: D#3
Note ON: Time 126720, Note Name: D3, Velocity: 40
Note OFF: Time 126960, Note Name: D3
Note ON: Time 126960, Note Name: C#3, Velocity: 35
Note OFF: Time 127200, Note Name: C#3
Note ON: Time 127200, Note Name: C3, Velocity: 35
Note OFF: Time 127440, Note Name: C3
Note ON: Time 127440, Note Name: F2, Velocity: 40
Note OFF: Time 127680, Note Name: F2
Note ON: Time 127680, Note Name: A#2, Velocity: 38
Note OFF: Time 127920, Note Name: A#2
Note ON: Time 127920, Note Name: D#2, Velocity: 30
Note OFF: Time 128160, Note Name: D#2
Note ON: Time 128160, Note Name: F2, Velocity: 27
Note OFF: Time 128400, Note Name: F2
Note ON: Time 128880, Note Name: E5, Velocity: 29
Note OFF: Time 129120, Note Name: E5
Note ON: Time 129120, Note Name: F5, Velocity: 29
Note OFF: Time 129360, Note Name: F5
Note ON: Time 129360, Note Name: B4, Velocity: 40
Note OFF: Time 129600, Note Name: B4
Note ON: Time 129600, Note Name: C5, Velocity: 40
Note OFF: Time 129840, Note Name: C5
Note ON: Time 129840, Note Name: F#4, Velocity: 36
Note OFF: Time 130080, Note Name: F#4
Note ON: Time 130080, Note Name: G4, Velocity: 36
Note OFF: Time 130320, Note Name: G4
Note ON: Time 130320, Note Name: D#4, Velocity: 40
Note OFF: Time 130560, Note Name: D#4
Note ON: Time 130560, Note Name: D4, Velocity: 40
Note OFF: Time 130800, Note Name: D4
Note ON: Time 130800, Note Name: C#4, Velocity: 35
Note OFF: Time 131040, Note Name: C#4
Note ON: Time 131040, Note Name: C4, Velocity: 35
Note OFF: Time 131280, Note Name: C4
Note ON: Time 131280, Note Name: F3, Velocity: 40
Note OFF: Time 131520, Note Name: F3
Note ON: Time 131520, Note Name: A#3, Velocity: 36
Note OFF: Time 131760, Note Name: A#3
Note ON: Time 131760, Note Name: F#3, Velocity: 43
Note OFF: Time 132000, Note Name: F#3
Note ON: Time 132000, Note Name: F3, Velocity: 44
Note OFF: Time 132240, Note Name: F3
Note ON: Time 132240, Note Name: D#3, Velocity: 45
Note OFF: Time 132480, Note Name: D#3
Note ON: Time 132480, Note Name: D3, Velocity: 46
Note OFF: Time 132720, Note Name: D3
Note ON: Time 132720, Note Name: C#3, Velocity: 47
Note OFF: Time 132960, Note Name: C#3
Note ON: Time 132960, Note Name: C3, Velocity: 48
Note OFF: Time 133200, Note Name: C3
Note ON: Time 133200, Note Name: F2, Velocity: 50
Note OFF: Time 133440, Note Name: F2
Note ON: Time 133440, Note Name: A#2, Velocity: 50
Note OFF: Time 133680, Note Name: A#2
Note ON: Time 133680, Note Name: F#2, Velocity: 52
Note OFF: Time 133920, Note Name: F#2
Note ON: Time 133920, Note Name: F2, Velocity: 53
Note OFF: Time 134160, Note Name: F2
Note ON: Time 134160, Note Name: D#2, Velocity: 54
Note OFF: Time 134400, Note Name: D#2
Note ON: Time 134400, Note Name: D2, Velocity: 55
Note OFF: Time 134640, Note Name: D2
Note ON: Time 134640, Note Name: C#2, Velocity: 56
Note OFF: Time 134880, Note Name: C#2
Note ON: Time 134880, Note Name: C2, Velocity: 57
Note OFF: Time 135120, Note Name: C2
Note ON: Time 135120, Note Name: F#1, Velocity: 58
Note OFF: Time 135360, Note Name: F#1
Note ON: Time 135360, Note Name: G1, Velocity: 67
Note OFF: Time 135600, Note Name: G1
Note ON: Time 135600, Note Name: D#2, Velocity: 61
Note OFF: Time 135840, Note Name: D#2
Note ON: Time 135840, Note Name: F2, Velocity: 70
Note OFF: Time 135960, Note Name: F2
Note ON: Time 136080, Note Name: F1, Velocity: 66
Note ON: Time 136080, Note Name: F2, Velocity: 66
Note OFF: Time 136200, Note Name: F2
Note OFF: Time 136200, Note Name: F1
Note ON: Time 136320, Note Name: A#1, Velocity: 57
Note ON: Time 136320, Note Name: A#2, Velocity: 68
Note OFF: Time 136440, Note Name: A#2
Note OFF: Time 136440, Note Name: A#1
Note ON: Time 136440, Note Name: D4, Velocity: 56
Note ON: Time 136440, Note Name: F3, Velocity: 47
Note ON: Time 136440, Note Name: A#3, Velocity: 47
Note OFF: Time 136560, Note Name: A#3
Note OFF: Time 136560, Note Name: F3
Note OFF: Time 136560, Note Name: D4
Note ON: Time 136560, Note Name: F3, Velocity: 47
Note ON: Time 136560, Note Name: D4, Velocity: 56
Note ON: Time 136560, Note Name: A#3, Velocity: 47
Note OFF: Time 136680, Note Name: A#3
Note OFF: Time 136680, Note Name: D4
Note OFF: Time 136680, Note Name: F3
Note ON: Time 136680, Note Name: D4, Velocity: 56
Note ON: Time 136680, Note Name: F3, Velocity: 47
Note ON: Time 136680, Note Name: A#3, Velocity: 47
Note OFF: Time 136800, Note Name: A#3
Note OFF: Time 136800, Note Name: F3
Note OFF: Time 136800, Note Name: D4
Note ON: Time 136920, Note Name: F3, Velocity: 45
Note ON: Time 136920, Note Name: A#3, Velocity: 45
Note ON: Time 136920, Note Name: D4, Velocity: 53
Note OFF: Time 137040, Note Name: D4
Note OFF: Time 137040, Note Name: A#3
Note OFF: Time 137040, Note Name: F3
Note ON: Time 137040, Note Name: A#3, Velocity: 45
Note ON: Time 137040, Note Name: F3, Velocity: 45
Note ON: Time 137040, Note Name: D4, Velocity: 54
Note OFF: Time 137160, Note Name: D4
Note OFF: Time 137160, Note Name: F3
Note OFF: Time 137160, Note Name: A#3
Note ON: Time 137160, Note Name: D4, Velocity: 54
Note ON: Time 137160, Note Name: F3, Velocity: 45
Note ON: Time 137160, Note Name: A#3, Velocity: 45
Note OFF: Time 137280, Note Name: A#3
Note OFF: Time 137280, Note Name: F3
Note OFF: Time 137280, Note Name: D4
Note ON: Time 137400, Note Name: F3, Velocity: 37
Note ON: Time 137400, Note Name: D4, Velocity: 44
Note ON: Time 137400, Note Name: A#3, Velocity: 37
Note OFF: Time 137460, Note Name: A#3
Note OFF: Time 137460, Note Name: D4
Note OFF: Time 137460, Note Name: F3
Note ON: Time 137640, Note Name: A#3, Velocity: 44
Note ON: Time 137640, Note Name: D3, Velocity: 37
Note OFF: Time 137700, Note Name: D3
Note OFF: Time 137700, Note Name: A#3
Note ON: Time 137880, Note Name: D4, Velocity: 44
Note ON: Time 137880, Note Name: A#3, Velocity: 37
Note ON: Time 137880, Note Name: F3, Velocity: 37
Note OFF: Time 137940, Note Name: F3
Note OFF: Time 137940, Note Name: A#3
Note OFF: Time 137940, Note Name: D4
Note ON: Time 138120, Note Name: A#3, Velocity: 37
Note ON: Time 138120, Note Name: C4, Velocity: 44
Note ON: Time 138120, Note Name: D#3, Velocity: 37
Note OFF: Time 138180, Note Name: D#3
Note OFF: Time 138180, Note Name: C4
Note OFF: Time 138180, Note Name: A#3
Note ON: Time 138240, Note Name: A#1, Velocity: 65
Note ON: Time 138240, Note Name: A#2, Velocity: 78
Note OFF: Time 138360, Note Name: A#2
Note OFF: Time 138360, Note Name: A#1
Note ON: Time 138360, Note Name: G3, Velocity: 54
Note ON: Time 138360, Note Name: D#4, Velocity: 64
Note ON: Time 138360, Note Name: A#3, Velocity: 54
Note OFF: Time 138480, Note Name: A#3
Note OFF: Time 138480, Note Name: D#4
Note OFF: Time 138480, Note Name: G3
Note ON: Time 138480, Note Name: G3, Velocity: 54
Note ON: Time 138480, Note Name: A#3, Velocity: 54
Note ON: Time 138480, Note Name: D#4, Velocity: 64
Note OFF: Time 138600, Note Name: D#4
Note OFF: Time 138600, Note Name: A#3
Note OFF: Time 138600, Note Name: G3
Note ON: Time 138600, Note Name: A#3, Velocity: 54
Note ON: Time 138600, Note Name: D#4, Velocity: 64
Note ON: Time 138600, Note Name: G3, Velocity: 54
Note OFF: Time 138720, Note Name: G3
Note OFF: Time 138720, Note Name: D#4
Note OFF: Time 138720, Note Name: A#3
Note ON: Time 138840, Note Name: C4, Velocity: 53
Note ON: Time 138840, Note Name: D#3, Velocity: 45
Note ON: Time 138840, Note Name: A#3, Velocity: 45
Note OFF: Time 138960, Note Name: A#3
Note OFF: Time 138960, Note Name: D#3
Note OFF: Time 138960, Note Name: C4
Note ON: Time 138960, Note Name: D#3, Velocity: 45
Note ON: Time 138960, Note Name: A#3, Velocity: 45
Note ON: Time 138960, Note Name: C4, Velocity: 54
Note OFF: Time 139080, Note Name: C4
Note OFF: Time 139080, Note Name: A#3
Note OFF: Time 139080, Note Name: D#3
Note ON: Time 139080, Note Name: C4, Velocity: 54
Note ON: Time 139080, Note Name: D#3, Velocity: 45
Note ON: Time 139080, Note Name: A#3, Velocity: 45
Note OFF: Time 139200, Note Name: A#3
Note OFF: Time 139200, Note Name: D#3
Note OFF: Time 139200, Note Name: C4
Note ON: Time 139320, Note Name: G3, Velocity: 37
Note ON: Time 139320, Note Name: D#4, Velocity: 44
Note ON: Time 139320, Note Name: A#3, Velocity: 37
Note OFF: Time 139380, Note Name: A#3
Note OFF: Time 139380, Note Name: D#4
Note OFF: Time 139380, Note Name: G3
Note ON: Time 139560, Note Name: A#3, Velocity: 37
Note ON: Time 139560, Note Name: C#4, Velocity: 44
Note ON: Time 139560, Note Name: E3, Velocity: 37
Note OFF: Time 139620, Note Name: E3
Note OFF: Time 139620, Note Name: C#4
Note OFF: Time 139620, Note Name: A#3
Note ON: Time 139800, Note Name: A#3, Velocity: 37
Note ON: Time 139800, Note Name: D#4, Velocity: 44
Note ON: Time 139800, Note Name: F#3, Velocity: 37
Note OFF: Time 139860, Note Name: F#3
Note OFF: Time 139860, Note Name: D#4
Note OFF: Time 139860, Note Name: A#3
Note ON: Time 140040, Note Name: A#3, Velocity: 37
Note ON: Time 140040, Note Name: F3, Velocity: 37
Note ON: Time 140040, Note Name: D4, Velocity: 44
Note OFF: Time 140100, Note Name: D4
Note OFF: Time 140100, Note Name: F3
Note OFF: Time 140100, Note Name: A#3
Note ON: Time 140160, Note Name: A#1, Velocity: 62
Note ON: Time 140160, Note Name: A#2, Velocity: 74
Note OFF: Time 140280, Note Name: A#2
Note OFF: Time 140280, Note Name: A#1
Note ON: Time 140280, Note Name: A#3, Velocity: 51
Note ON: Time 140280, Note Name: G#3, Velocity: 51
Note ON: Time 140280, Note Name: F4, Velocity: 61
Note OFF: Time 140400, Note Name: F4
Note OFF: Time 140400, Note Name: G#3
Note OFF: Time 140400, Note Name: A#3
Note ON: Time 140400, Note Name: G#3, Velocity: 51
Note ON: Time 140400, Note Name: A#3, Velocity: 51
Note ON: Time 140400, Note Name: F4, Velocity: 61
Note OFF: Time 140520, Note Name: F4
Note OFF: Time 140520, Note Name: A#3
Note OFF: Time 140520, Note Name: G#3
Note ON: Time 140520, Note Name: F4, Velocity: 61
Note ON: Time 140520, Note Name: A#3, Velocity: 51
Note ON: Time 140520, Note Name: G#3, Velocity: 51
Note OFF: Time 140640, Note Name: G#3
Note OFF: Time 140640, Note Name: A#3
Note OFF: Time 140640, Note Name: F4
Note ON: Time 140760, Note Name: A#3, Velocity: 45
Note ON: Time 140760, Note Name: D4, Velocity: 53
Note ON: Time 140760, Note Name: F3, Velocity: 45
Note OFF: Time 140880, Note Name: F3
Note OFF: Time 140880, Note Name: D4
Note OFF: Time 140880, Note Name: A#3
Note ON: Time 140880, Note Name: A#3, Velocity: 45
Note ON: Time 140880, Note Name: D4, Velocity: 54
Note ON: Time 140880, Note Name: F3, Velocity: 45
Note OFF: Time 141000, Note Name: F3
Note OFF: Time 141000, Note Name: D4
Note OFF: Time 141000, Note Name: A#3
Note ON: Time 141000, Note Name: F3, Velocity: 45
Note ON: Time 141000, Note Name: D4, Velocity: 54
Note ON: Time 141000, Note Name: A#3, Velocity: 45
Note OFF: Time 141120, Note Name: A#3
Note OFF: Time 141120, Note Name: D4
Note OFF: Time 141120, Note Name: F3
Note ON: Time 141240, Note Name: A#3, Velocity: 37
Note ON: Time 141240, Note Name: F4, Velocity: 44
Note ON: Time 141240, Note Name: G#3, Velocity: 37
Note OFF: Time 141300, Note Name: G#3
Note OFF: Time 141300, Note Name: F4
Note OFF: Time 141300, Note Name: A#3
Note ON: Time 141480, Note Name: D4, Velocity: 44
Note ON: Time 141480, Note Name: F#3, Velocity: 37
Note ON: Time 141480, Note Name: A#3, Velocity: 37
Note OFF: Time 141540, Note Name: A#3
Note OFF: Time 141540, Note Name: F#3
Note OFF: Time 141540, Note Name: D4
Note ON: Time 141720, Note Name: G#3, Velocity: 37
Note ON: Time 141720, Note Name: A#3, Velocity: 37
Note ON: Time 141720, Note Name: F4, Velocity: 44
Note OFF: Time 141780, Note Name: F4
Note OFF: Time 141780, Note Name: A#3
Note OFF: Time 141780, Note Name: G#3
Note ON: Time 141960, Note Name: D#4, Velocity: 44
Note ON: Time 141960, Note Name: A#3, Velocity: 37
Note ON: Time 141960, Note Name: G3, Velocity: 37
Note OFF: Time 142020, Note Name: G3
Note OFF: Time 142020, Note Name: A#3
Note OFF: Time 142020, Note Name: D#4
Note ON: Time 142080, Note Name: A#2, Velocity: 74
Note ON: Time 142080, Note Name: A#1, Velocity: 62
Note OFF: Time 142200, Note Name: A#1
Note OFF: Time 142200, Note Name: A#2
Note ON: Time 142200, Note Name: G4, Velocity: 61
Note ON: Time 142200, Note Name: A#3, Velocity: 51
Note ON: Time 142200, Note Name: D#4, Velocity: 51
Note OFF: Time 142320, Note Name: D#4
Note OFF: Time 142320, Note Name: A#3
Note OFF: Time 142320, Note Name: G4
Note ON: Time 142320, Note Name: A#3, Velocity: 51
Note ON: Time 142320, Note Name: G4, Velocity: 61
Note ON: Time 142320, Note Name: D#4, Velocity: 51
Note OFF: Time 142440, Note Name: D#4
Note OFF: Time 142440, Note Name: G4
Note OFF: Time 142440, Note Name: A#3
Note ON: Time 142440, Note Name: G4, Velocity: 61
Note ON: Time 142440, Note Name: D#4, Velocity: 51
Note ON: Time 142440, Note Name: A#3, Velocity: 51
Note OFF: Time 142560, Note Name: A#3
Note OFF: Time 142560, Note Name: D#4
Note OFF: Time 142560, Note Name: G4
Note ON: Time 142680, Note Name: G3, Velocity: 45
Note ON: Time 142680, Note Name: A#3, Velocity: 45
Note ON: Time 142680, Note Name: D#4, Velocity: 53
Note OFF: Time 142800, Note Name: D#4
Note OFF: Time 142800, Note Name: A#3
Note OFF: Time 142800, Note Name: G3
Note ON: Time 142800, Note Name: G3, Velocity: 45
Note ON: Time 142800, Note Name: A#3, Velocity: 45
Note ON: Time 142800, Note Name: D#4, Velocity: 54
Note OFF: Time 142920, Note Name: D#4
Note OFF: Time 142920, Note Name: A#3
Note OFF: Time 142920, Note Name: G3
Note ON: Time 142920, Note Name: G3, Velocity: 45
Note ON: Time 142920, Note Name: D#4, Velocity: 54
Note ON: Time 142920, Note Name: A#3, Velocity: 45
Note OFF: Time 143040, Note Name: A#3
Note OFF: Time 143040, Note Name: D#4
Note OFF: Time 143040, Note Name: G3
Note ON: Time 143160, Note Name: D#4, Velocity: 33
Note ON: Time 143160, Note Name: G4, Velocity: 39
Note ON: Time 143160, Note Name: A#3, Velocity: 33
Note OFF: Time 143220, Note Name: A#3
Note OFF: Time 143220, Note Name: G4
Note OFF: Time 143220, Note Name: D#4
Note ON: Time 143400, Note Name: E4, Velocity: 39
Note ON: Time 143400, Note Name: C#4, Velocity: 33
Note ON: Time 143400, Note Name: A#3, Velocity: 33
Note OFF: Time 143460, Note Name: A#3
Note OFF: Time 143460, Note Name: C#4
Note OFF: Time 143460, Note Name: E4
Note ON: Time 143640, Note Name: D#4, Velocity: 36
Note ON: Time 143640, Note Name: F#4, Velocity: 44
Note ON: Time 143640, Note Name: A#3, Velocity: 36
Note OFF: Time 143700, Note Name: A#3
Note OFF: Time 143700, Note Name: F#4
Note OFF: Time 143700, Note Name: D#4
Note ON: Time 143880, Note Name: A#3, Velocity: 37
Note ON: Time 143880, Note Name: F4, Velocity: 45
Note ON: Time 143880, Note Name: D4, Velocity: 37
Note OFF: Time 143940, Note Name: D4
Note OFF: Time 143940, Note Name: F4
Note OFF: Time 143940, Note Name: A#3
Note ON: Time 144120, Note Name: A#3, Velocity: 39
Note ON: Time 144120, Note Name: G#4, Velocity: 46
Note ON: Time 144120, Note Name: F4, Velocity: 39
Note OFF: Time 144180, Note Name: F4
Note OFF: Time 144180, Note Name: G#4
Note OFF: Time 144180, Note Name: A#3
Note ON: Time 144360, Note Name: A#3, Velocity: 40
Note ON: Time 144360, Note Name: D4, Velocity: 40
Note ON: Time 144360, Note Name: F#4, Velocity: 48
Note OFF: Time 144420, Note Name: F#4
Note OFF: Time 144420, Note Name: D4
Note OFF: Time 144420, Note Name: A#3
Note ON: Time 144600, Note Name: F4, Velocity: 42
Note ON: Time 144600, Note Name: A#3, Velocity: 42
Note ON: Time 144600, Note Name: G#4, Velocity: 50
Note OFF: Time 144660, Note Name: G#4
Note OFF: Time 144660, Note Name: A#3
Note OFF: Time 144660, Note Name: F4
Note ON: Time 144840, Note Name: A#3, Velocity: 43
Note ON: Time 144840, Note Name: D#4, Velocity: 43
Note ON: Time 144840, Note Name: G4, Velocity: 52
Note OFF: Time 144900, Note Name: G4
Note OFF: Time 144900, Note Name: D#4
Note OFF: Time 144900, Note Name: A#3
Note ON: Time 145080, Note Name: G4, Velocity: 53
Note ON: Time 145080, Note Name: A#3, Velocity: 45
Note ON: Time 145080, Note Name: D#4, Velocity: 45
Note ON: Time 145080, Note Name: C4, Velocity: 45
Note OFF: Time 145140, Note Name: C4
Note OFF: Time 145140, Note Name: G4
Note OFF: Time 145140, Note Name: A#3
Note OFF: Time 145140, Note Name: D#4
Note ON: Time 145320, Note Name: D#4, Velocity: 45
Note ON: Time 145320, Note Name: C4, Velocity: 45
Note ON: Time 145320, Note Name: G#4, Velocity: 54
Note ON: Time 145320, Note Name: A#3, Velocity: 45
Note OFF: Time 145380, Note Name: A#3
Note OFF: Time 145380, Note Name: D#4
Note OFF: Time 145380, Note Name: C4
Note OFF: Time 145380, Note Name: G#4
Note ON: Time 145560, Note Name: A#3, Velocity: 47
Note ON: Time 145560, Note Name: C4, Velocity: 47
Note ON: Time 145560, Note Name: D#4, Velocity: 47
Note ON: Time 145560, Note Name: A#4, Velocity: 56
Note OFF: Time 145620, Note Name: A#4
Note OFF: Time 145620, Note Name: A#3
Note OFF: Time 145620, Note Name: C4
Note OFF: Time 145620, Note Name: D#4
Note ON: Time 145800, Note Name: C4, Velocity: 48
Note ON: Time 145800, Note Name: A#3, Velocity: 48
Note ON: Time 145800, Note Name: A4, Velocity: 58
Note ON: Time 145800, Note Name: D#4, Velocity: 48
Note OFF: Time 145860, Note Name: D#4
Note OFF: Time 145860, Note Name: C4
Note OFF: Time 145860, Note Name: A#3
Note OFF: Time 145860, Note Name: A4
Note ON: Time 146040, Note Name: C4, Velocity: 56
Note ON: Time 146040, Note Name: C5, Velocity: 66
Note OFF: Time 146100, Note Name: C5
Note OFF: Time 146100, Note Name: C4
Note ON: Time 146280, Note Name: A#3, Velocity: 56
Note ON: Time 146280, Note Name: A#4, Velocity: 66
Note OFF: Time 146340, Note Name: A#4
Note OFF: Time 146340, Note Name: A#3
Note ON: Time 146520, Note Name: G4, Velocity: 66
Note ON: Time 146520, Note Name: G3, Velocity: 56
Note OFF: Time 146580, Note Name: G3
Note OFF: Time 146580, Note Name: G4
Note ON: Time 146760, Note Name: F3, Velocity: 56
Note ON: Time 146760, Note Name: F4, Velocity: 66
Note OFF: Time 146820, Note Name: F4
Note OFF: Time 146820, Note Name: F3
Note ON: Time 147000, Note Name: D#4, Velocity: 59
Note ON: Time 147000, Note Name: D#3, Velocity: 50
Note OFF: Time 147060, Note Name: D#3
Note OFF: Time 147060, Note Name: D#4
Note ON: Time 147240, Note Name: D4, Velocity: 59
Note ON: Time 147240, Note Name: D3, Velocity: 50
Note OFF: Time 147300, Note Name: D3
Note OFF: Time 147300, Note Name: D4
Note ON: Time 147480, Note Name: C4, Velocity: 59
Note ON: Time 147480, Note Name: C3, Velocity: 50
Note OFF: Time 147540, Note Name: C3
Note OFF: Time 147540, Note Name: C4
Note ON: Time 147720, Note Name: A#2, Velocity: 50
Note ON: Time 147720, Note Name: A#3, Velocity: 59
Note OFF: Time 147780, Note Name: A#3
Note OFF: Time 147780, Note Name: A#2
Note ON: Time 147960, Note Name: G2, Velocity: 50
Note ON: Time 147960, Note Name: G3, Velocity: 59
Note OFF: Time 148020, Note Name: G3
Note OFF: Time 148020, Note Name: G2
Note ON: Time 148200, Note Name: F3, Velocity: 59
Note ON: Time 148200, Note Name: F2, Velocity: 50
Note OFF: Time 148260, Note Name: F2
Note OFF: Time 148260, Note Name: F3
Note ON: Time 148440, Note Name: D#3, Velocity: 56
Note ON: Time 148440, Note Name: D#2, Velocity: 47
Note OFF: Time 148500, Note Name: D#2
Note OFF: Time 148500, Note Name: D#3
Note ON: Time 148680, Note Name: D2, Velocity: 47
Note ON: Time 148680, Note Name: D3, Velocity: 56
Note OFF: Time 148740, Note Name: D3
Note OFF: Time 148740, Note Name: D2
Note ON: Time 148920, Note Name: C2, Velocity: 45
Note ON: Time 148920, Note Name: C3, Velocity: 53
Note OFF: Time 148980, Note Name: C3
Note OFF: Time 148980, Note Name: C2
Note ON: Time 149160, Note Name: A#2, Velocity: 53
Note ON: Time 149160, Note Name: A#1, Velocity: 45
Note OFF: Time 149220, Note Name: A#1
Note OFF: Time 149220, Note Name: A#2
Note ON: Time 149400, Note Name: G1, Velocity: 45
Note ON: Time 149400, Note Name: G2, Velocity: 53
Note OFF: Time 149460, Note Name: G2
Note OFF: Time 149460, Note Name: G1
Note ON: Time 149640, Note Name: F2, Velocity: 53
Note ON: Time 149640, Note Name: F1, Velocity: 45
Note OFF: Time 149700, Note Name: F1
Note OFF: Time 149700, Note Name: F2
Note ON: Time 149880, Note Name: A1, Velocity: 42
Note OFF: Time 150000, Note Name: A1
Note ON: Time 150120, Note Name: F1, Velocity: 28
Note OFF: Time 150240, Note Name: F1
Note ON: Time 150360, Note Name: C2, Velocity: 39
Note OFF: Time 150480, Note Name: C2
Note ON: Time 150600, Note Name: F1, Velocity: 27
Note OFF: Time 150720, Note Name: F1
Note ON: Time 150840, Note Name: F2, Velocity: 37
Note OFF: Time 150960, Note Name: F2
Note ON: Time 151080, Note Name: F1, Velocity: 26
Note OFF: Time 151200, Note Name: F1
Note ON: Time 151320, Note Name: A2, Velocity: 34
Note OFF: Time 151440, Note Name: A2
Note ON: Time 151560, Note Name: F1, Velocity: 24
Note OFF: Time 151680, Note Name: F1
Note ON: Time 151800, Note Name: C3, Velocity: 32
Note OFF: Time 151920, Note Name: C3
Note ON: Time 152040, Note Name: F1, Velocity: 23
Note OFF: Time 152160, Note Name: F1
Note ON: Time 152280, Note Name: F3, Velocity: 29
Note OFF: Time 152400, Note Name: F3
Note ON: Time 152520, Note Name: F1, Velocity: 24
Note OFF: Time 152640, Note Name: F1
Note ON: Time 152760, Note Name: F3, Velocity: 28
Note OFF: Time 152880, Note Name: F3
Note ON: Time 153000, Note Name: F1, Velocity: 21
Note OFF: Time 153120, Note Name: F1
Note ON: Time 153240, Note Name: F3, Velocity: 21
Note OFF: Time 153360, Note Name: F3
Note ON: Time 153480, Note Name: A#1, Velocity: 84
Note OFF: Time 153600, Note Name: A#1
Note ON: Time 153600, Note Name: F3, Velocity: 68
Note ON: Time 153600, Note Name: A#3, Velocity: 68
Note ON: Time 153600, Note Name: D4, Velocity: 81
Note OFF: Time 153960, Note Name: D4
Note OFF: Time 153960, Note Name: A#3
Note OFF: Time 153960, Note Name: F3
Note ON: Time 153960, Note Name: F3, Velocity: 61
Note ON: Time 153960, Note Name: A#3, Velocity: 61
Note ON: Time 153960, Note Name: D4, Velocity: 73
Note OFF: Time 154080, Note Name: D4
Note OFF: Time 154080, Note Name: A#3
Note OFF: Time 154080, Note Name: F3
Note ON: Time 154080, Note Name: D4, Velocity: 81
Note ON: Time 154080, Note Name: A#3, Velocity: 68
Note ON: Time 154080, Note Name: F3, Velocity: 68
Note OFF: Time 154320, Note Name: F3
Note OFF: Time 154320, Note Name: A#3
Note OFF: Time 154320, Note Name: D4
Note ON: Time 154320, Note Name: D4, Velocity: 77
Note ON: Time 154320, Note Name: A#3, Velocity: 66
Note ON: Time 154320, Note Name: F3, Velocity: 66
Note OFF: Time 154365, Note Name: F3
Note OFF: Time 154365, Note Name: A#3
Note OFF: Time 154365, Note Name: D4
Note ON: Time 154440, Note Name: F3, Velocity: 68
Note ON: Time 154440, Note Name: D4, Velocity: 81
Note ON: Time 154440, Note Name: A#3, Velocity: 68
Note OFF: Time 154485, Note Name: A#3
Note OFF: Time 154485, Note Name: D4
Note OFF: Time 154485, Note Name: F3
Note ON: Time 154560, Note Name: A#3, Velocity: 68
Note ON: Time 154560, Note Name: D4, Velocity: 81
Note ON: Time 154560, Note Name: F3, Velocity: 68
Note OFF: Time 154680, Note Name: F3
Note OFF: Time 154680, Note Name: D4
Note OFF: Time 154680, Note Name: A#3
Note ON: Time 154800, Note Name: D3, Velocity: 68
Note ON: Time 154800, Note Name: F3, Velocity: 68
Note ON: Time 154800, Note Name: A#3, Velocity: 81
Note OFF: Time 154920, Note Name: A#3
Note OFF: Time 154920, Note Name: F3
Note OFF: Time 154920, Note Name: D3
Note ON: Time 155400, Note Name: A#1, Velocity: 84
Note OFF: Time 155520, Note Name: A#1
Note ON: Time 155520, Note Name: F3, Velocity: 68
Note ON: Time 155520, Note Name: D3, Velocity: 68
Note ON: Time 155520, Note Name: A#3, Velocity: 68
Note ON: Time 155520, Note Name: D4, Velocity: 81
Note OFF: Time 155880, Note Name: D4
Note OFF: Time 155880, Note Name: F3
Note OFF: Time 155880, Note Name: D3
Note OFF: Time 155880, Note Name: A#3
Note ON: Time 155880, Note Name: F3, Velocity: 61
Note ON: Time 155880, Note Name: D4, Velocity: 73
Note ON: Time 155880, Note Name: D3, Velocity: 61
Note ON: Time 155880, Note Name: A#3, Velocity: 61
Note OFF: Time 156000, Note Name: A#3
Note OFF: Time 156000, Note Name: F3
Note OFF: Time 156000, Note Name: D4
Note OFF: Time 156000, Note Name: D3
Note ON: Time 156000, Note Name: D3, Velocity: 81
Note ON: Time 156000, Note Name: D4, Velocity: 97
Note OFF: Time 156240, Note Name: D4
Note OFF: Time 156240, Note Name: D3
Note ON: Time 156240, Note Name: D3, Velocity: 66
Note ON: Time 156240, Note Name: D4, Velocity: 77
Note ON: Time 156240, Note Name: F#3, Velocity: 66
Note ON: Time 156240, Note Name: A3, Velocity: 66
Note OFF: Time 156285, Note Name: A3
Note OFF: Time 156285, Note Name: D3
Note OFF: Time 156285, Note Name: D4
Note OFF: Time 156285, Note Name: F#3
Note ON: Time 156360, Note Name: D3, Velocity: 68
Note ON: Time 156360, Note Name: A3, Velocity: 68
Note ON: Time 156360, Note Name: F#3, Velocity: 68
Note ON: Time 156360, Note Name: D4, Velocity: 81
Note OFF: Time 156405, Note Name: D4
Note OFF: Time 156405, Note Name: D3
Note OFF: Time 156405, Note Name: A3
Note OFF: Time 156405, Note Name: F#3
Note ON: Time 156480, Note Name: F#3, Velocity: 68
Note ON: Time 156480, Note Name: A3, Velocity: 68
Note ON: Time 156480, Note Name: D3, Velocity: 68
Note ON: Time 156480, Note Name: D4, Velocity: 81
Note OFF: Time 156600, Note Name: D4
Note OFF: Time 156600, Note Name: F#3
Note OFF: Time 156600, Note Name: A3
Note OFF: Time 156600, Note Name: D3
Note ON: Time 156720, Note Name: D3, Velocity: 68
Note ON: Time 156720, Note Name: D4, Velocity: 81
Note ON: Time 156720, Note Name: F#3, Velocity: 68
Note ON: Time 156720, Note Name: A3, Velocity: 68
Note OFF: Time 156840, Note Name: A3
Note OFF: Time 156840, Note Name: D3
Note OFF: Time 156840, Note Name: D4
Note OFF: Time 156840, Note Name: F#3
Note ON: Time 157320, Note Name: D3, Velocity: 39
Note OFF: Time 157440, Note Name: D3
Note ON: Time 157440, Note Name: D4, Velocity: 45
Note OFF: Time 157800, Note Name: D4
Note ON: Time 157800, Note Name: D3, Velocity: 40
Note OFF: Time 157920, Note Name: D3
Note ON: Time 157920, Note Name: D4, Velocity: 47
Note OFF: Time 158280, Note Name: D4
Note ON: Time 158280, Note Name: D3, Velocity: 42
Note OFF: Time 158400, Note Name: D3
Note ON: Time 158400, Note Name: D4, Velocity: 49
Note OFF: Time 158760, Note Name: D4
Note ON: Time 158760, Note Name: D3, Velocity: 41
Note OFF: Time 158880, Note Name: D3
Note ON: Time 158880, Note Name: D4, Velocity: 52
Note OFF: Time 159240, Note Name: D4
Note ON: Time 159240, Note Name: D3, Velocity: 44
Note OFF: Time 159360, Note Name: D3
Note ON: Time 159360, Note Name: C4, Velocity: 55
Note ON: Time 159360, Note Name: A3, Velocity: 55
Note OFF: Time 159720, Note Name: A3
Note OFF: Time 159720, Note Name: C4
Note ON: Time 159720, Note Name: D3, Velocity: 46
Note OFF: Time 159840, Note Name: D3
Note ON: Time 159840, Note Name: C4, Velocity: 58
Note ON: Time 159840, Note Name: A3, Velocity: 58
Note OFF: Time 160200, Note Name: A3
Note OFF: Time 160200, Note Name: C4
Note ON: Time 160200, Note Name: D3, Velocity: 50
Note OFF: Time 160320, Note Name: D3
Note ON: Time 160320, Note Name: A3, Velocity: 60
Note ON: Time 160320, Note Name: F#3, Velocity: 60
Note OFF: Time 160680, Note Name: F#3
Note OFF: Time 160680, Note Name: A3
Note ON: Time 160680, Note Name: D3, Velocity: 52
Note OFF: Time 160800, Note Name: D3
Note ON: Time 160800, Note Name: A2, Velocity: 63
Note OFF: Time 161160, Note Name: A2
Note ON: Time 161160, Note Name: D3, Velocity: 52
Note OFF: Time 161280, Note Name: D3
Note ON: Time 161280, Note Name: A2, Velocity: 65
Note OFF: Time 161640, Note Name: A2
Note ON: Time 161640, Note Name: D3, Velocity: 57
Note OFF: Time 161760, Note Name: D3
Note ON: Time 161760, Note Name: G2, Velocity: 68
Note OFF: Time 162120, Note Name: G2
Note ON: Time 162120, Note Name: D3, Velocity: 57
Note OFF: Time 162240, Note Name: D3
Note ON: Time 162240, Note Name: F#2, Velocity: 71
Note OFF: Time 162600, Note Name: F#2
Note ON: Time 162600, Note Name: D3, Velocity: 59
Note OFF: Time 162720, Note Name: D3
Note ON: Time 162720, Note Name: D#2, Velocity: 73
Note OFF: Time 163080, Note Name: D#2
Note ON: Time 163080, Note Name: D3, Velocity: 67
Note OFF: Time 163200, Note Name: D3
Note ON: Time 163200, Note Name: D3, Velocity: 73
Note ON: Time 163200, Note Name: D2, Velocity: 67
Note OFF: Time 163440, Note Name: D2
Note OFF: Time 163440, Note Name: D3
Note ON: Time 163440, Note Name: D#5, Velocity: 48
Note OFF: Time 163560, Note Name: D#5
Note ON: Time 163560, Note Name: D5, Velocity: 48
Note OFF: Time 163680, Note Name: D5
Note ON: Time 163680, Note Name: D#5, Velocity: 54
Note OFF: Time 163920, Note Name: D#5
Note ON: Time 163920, Note Name: D5, Velocity: 44
Note OFF: Time 164040, Note Name: D5
Note ON: Time 164040, Note Name: C#5, Velocity: 44
Note OFF: Time 164160, Note Name: C#5
Note ON: Time 164160, Note Name: D5, Velocity: 44
Note OFF: Time 164400, Note Name: D5
Note ON: Time 164400, Note Name: D#4, Velocity: 43
Note OFF: Time 164520, Note Name: D#4
Note ON: Time 164520, Note Name: D4, Velocity: 43
Note OFF: Time 164640, Note Name: D4
Note ON: Time 164640, Note Name: D#4, Velocity: 51
Note OFF: Time 164880, Note Name: D#4
Note ON: Time 164880, Note Name: D4, Velocity: 43
Note OFF: Time 165000, Note Name: D4
Note ON: Time 165000, Note Name: C#4, Velocity: 43
Note OFF: Time 165120, Note Name: C#4
Note ON: Time 165120, Note Name: D4, Velocity: 51
Note OFF: Time 165360, Note Name: D4
Note ON: Time 165480, Note Name: D3, Velocity: 42
Note OFF: Time 165600, Note Name: D3
Note ON: Time 165600, Note Name: F#3, Velocity: 51
Note OFF: Time 165840, Note Name: F#3
Note ON: Time 165960, Note Name: A3, Velocity: 40
Note OFF: Time 166080, Note Name: A3
Note ON: Time 166080, Note Name: C4, Velocity: 51
Note OFF: Time 166320, Note Name: C4
Note ON: Time 166440, Note Name: F#4, Velocity: 43
Note OFF: Time 166560, Note Name: F#4
Note ON: Time 166560, Note Name: A4, Velocity: 51
Note OFF: Time 166800, Note Name: A4
Note ON: Time 166800, Note Name: C5, Velocity: 45
Note OFF: Time 166920, Note Name: C5
Note ON: Time 166920, Note Name: A4, Velocity: 45
Note OFF: Time 167040, Note Name: A4
Note ON: Time 167040, Note Name: A5, Velocity: 40
Note OFF: Time 167160, Note Name: A5
Note ON: Time 167160, Note Name: B5, Velocity: 40
Note OFF: Time 167280, Note Name: B5
Note ON: Time 167280, Note Name: C6, Velocity: 44
Note OFF: Time 167400, Note Name: C6
Note ON: Time 167400, Note Name: A5, Velocity: 40
Note OFF: Time 167520, Note Name: A5
Note ON: Time 167520, Note Name: C5, Velocity: 40
Note OFF: Time 167640, Note Name: C5
Note ON: Time 167640, Note Name: D5, Velocity: 40
Note OFF: Time 167760, Note Name: D5
Note ON: Time 167760, Note Name: E5, Velocity: 45
Note OFF: Time 167880, Note Name: E5
Note ON: Time 167880, Note Name: C5, Velocity: 40
Note OFF: Time 168000, Note Name: C5
Note ON: Time 168000, Note Name: A4, Velocity: 40
Note OFF: Time 168120, Note Name: A4
Note ON: Time 168120, Note Name: B4, Velocity: 40
Note OFF: Time 168240, Note Name: B4
Note ON: Time 168240, Note Name: C5, Velocity: 45
Note OFF: Time 168360, Note Name: C5
Note ON: Time 168360, Note Name: A4, Velocity: 40
Note OFF: Time 168478, Note Name: A4
Note ON: Time 168480, Note Name: F#4, Velocity: 40
Note OFF: Time 168600, Note Name: F#4
Note ON: Time 168600, Note Name: G4, Velocity: 40
Note OFF: Time 168720, Note Name: G4
Note ON: Time 168720, Note Name: A4, Velocity: 45
Note OFF: Time 168840, Note Name: A4
Note ON: Time 168840, Note Name: F#4, Velocity: 40
Note OFF: Time 168960, Note Name: F#4
Note ON: Time 168960, Note Name: G4, Velocity: 48
Note ON: Time 168960, Note Name: B4, Velocity: 51
Note ON: Time 168960, Note Name: D4, Velocity: 48
Note OFF: Time 169200, Note Name: D4
Note OFF: Time 169200, Note Name: B4
Note OFF: Time 169200, Note Name: G4
Note ON: Time 169320, Note Name: D3, Velocity: 42
Note OFF: Time 169440, Note Name: D3
Note ON: Time 169440, Note Name: G3, Velocity: 51
Note OFF: Time 169680, Note Name: G3
Note ON: Time 169800, Note Name: B3, Velocity: 40
Note OFF: Time 169920, Note Name: B3
Note ON: Time 169920, Note Name: D4, Velocity: 51
Note OFF: Time 170160, Note Name: D4
Note ON: Time 170280, Note Name: G4, Velocity: 43
Note OFF: Time 170400, Note Name: G4
Note ON: Time 170400, Note Name: B4, Velocity: 51
Note OFF: Time 170640, Note Name: B4
Note ON: Time 170760, Note Name: D5, Velocity: 45
Note OFF: Time 170880, Note Name: D5
Note ON: Time 170880, Note Name: G5, Velocity: 40
Note OFF: Time 171000, Note Name: G5
Note ON: Time 171000, Note Name: A5, Velocity: 40
Note OFF: Time 171120, Note Name: A5
Note ON: Time 171120, Note Name: B5, Velocity: 44
Note OFF: Time 171240, Note Name: B5
Note ON: Time 171240, Note Name: G5, Velocity: 40
Note OFF: Time 171358, Note Name: G5
Note ON: Time 171360, Note Name: B4, Velocity: 40
Note OFF: Time 171480, Note Name: B4
Note ON: Time 171480, Note Name: C5, Velocity: 40
Note OFF: Time 171600, Note Name: C5
Note ON: Time 171600, Note Name: D5, Velocity: 45
Note OFF: Time 171720, Note Name: D5
Note ON: Time 171720, Note Name: B4, Velocity: 40
Note OFF: Time 171840, Note Name: B4
Note ON: Time 171840, Note Name: G4, Velocity: 40
Note OFF: Time 171960, Note Name: G4
Note ON: Time 171960, Note Name: A4, Velocity: 40
Note OFF: Time 172080, Note Name: A4
Note ON: Time 172080, Note Name: B4, Velocity: 45
Note OFF: Time 172198, Note Name: B4
Note ON: Time 172200, Note Name: G4, Velocity: 40
Note OFF: Time 172318, Note Name: G4
Note ON: Time 172320, Note Name: B4, Velocity: 40
Note OFF: Time 172440, Note Name: B4
Note ON: Time 172440, Note Name: C5, Velocity: 40
Note OFF: Time 172560, Note Name: C5
Note ON: Time 172560, Note Name: D5, Velocity: 45
Note OFF: Time 172680, Note Name: D5
Note ON: Time 172680, Note Name: B4, Velocity: 40
Note OFF: Time 172800, Note Name: B4
Note ON: Time 172800, Note Name: C5, Velocity: 40
Note OFF: Time 172920, Note Name: C5
Note ON: Time 172920, Note Name: D5, Velocity: 40
Note OFF: Time 173040, Note Name: D5
Note ON: Time 173040, Note Name: C5, Velocity: 45
Note OFF: Time 173160, Note Name: C5
Note ON: Time 173160, Note Name: B4, Velocity: 40
Note OFF: Time 173280, Note Name: B4
Note ON: Time 173280, Note Name: C5, Velocity: 40
Note OFF: Time 173400, Note Name: C5
Note ON: Time 173400, Note Name: D5, Velocity: 40
Note OFF: Time 173520, Note Name: D5
Note ON: Time 173520, Note Name: E5, Velocity: 45
Note OFF: Time 173640, Note Name: E5
Note ON: Time 173640, Note Name: C5, Velocity: 40
Note OFF: Time 173760, Note Name: C5
Note ON: Time 173760, Note Name: A4, Velocity: 46
Note OFF: Time 173880, Note Name: A4
Note ON: Time 173880, Note Name: B4, Velocity: 38
Note OFF: Time 174000, Note Name: B4
Note ON: Time 174000, Note Name: C5, Velocity: 45
Note OFF: Time 174120, Note Name: C5
Note ON: Time 174120, Note Name: A4, Velocity: 40
Note OFF: Time 174240, Note Name: A4
Note ON: Time 174240, Note Name: F#4, Velocity: 45
Note OFF: Time 174360, Note Name: F#4
Note ON: Time 174360, Note Name: G4, Velocity: 36
Note OFF: Time 174480, Note Name: G4
Note ON: Time 174480, Note Name: A4, Velocity: 41
Note OFF: Time 174600, Note Name: A4
Note ON: Time 174600, Note Name: F#4, Velocity: 36
Note OFF: Time 174720, Note Name: F#4
Note ON: Time 174720, Note Name: C4, Velocity: 46
Note OFF: Time 174840, Note Name: C4
Note ON: Time 174840, Note Name: D4, Velocity: 38
Note OFF: Time 174960, Note Name: D4
Note ON: Time 174960, Note Name: E4, Velocity: 45
Note OFF: Time 175080, Note Name: E4
Note ON: Time 175080, Note Name: C4, Velocity: 40
Note OFF: Time 175200, Note Name: C4
Note ON: Time 175200, Note Name: A3, Velocity: 45
Note OFF: Time 175320, Note Name: A3
Note ON: Time 175320, Note Name: B3, Velocity: 36
Note OFF: Time 175440, Note Name: B3
Note ON: Time 175440, Note Name: C4, Velocity: 41
Note OFF: Time 175560, Note Name: C4
Note ON: Time 175560, Note Name: A3, Velocity: 36
Note OFF: Time 175680, Note Name: A3
Note ON: Time 175680, Note Name: F#3, Velocity: 46
Note OFF: Time 175800, Note Name: F#3
Note ON: Time 175800, Note Name: G3, Velocity: 38
Note OFF: Time 175920, Note Name: G3
Note ON: Time 175920, Note Name: A3, Velocity: 45
Note OFF: Time 176040, Note Name: A3
Note ON: Time 176040, Note Name: F#3, Velocity: 40
Note OFF: Time 176160, Note Name: F#3
Note ON: Time 176160, Note Name: A4, Velocity: 45
Note OFF: Time 176280, Note Name: A4
Note ON: Time 176280, Note Name: G4, Velocity: 36
Note OFF: Time 176400, Note Name: G4
Note ON: Time 176400, Note Name: F#4, Velocity: 41
Note OFF: Time 176520, Note Name: F#4
Note ON: Time 176520, Note Name: A4, Velocity: 36
Note OFF: Time 176640, Note Name: A4
Note ON: Time 176640, Note Name: B4, Velocity: 40
Note OFF: Time 176760, Note Name: B4
Note ON: Time 176760, Note Name: C5, Velocity: 40
Note OFF: Time 176880, Note Name: C5
Note ON: Time 176880, Note Name: B4, Velocity: 45
Note OFF: Time 177000, Note Name: B4
Note ON: Time 177000, Note Name: A4, Velocity: 40
Note OFF: Time 177120, Note Name: A4
Note ON: Time 177120, Note Name: B4, Velocity: 40
Note OFF: Time 177240, Note Name: B4
Note ON: Time 177240, Note Name: C5, Velocity: 40
Note OFF: Time 177360, Note Name: C5
Note ON: Time 177360, Note Name: D5, Velocity: 45
Note OFF: Time 177480, Note Name: D5
Note ON: Time 177480, Note Name: B4, Velocity: 40
Note OFF: Time 177600, Note Name: B4
Note ON: Time 177600, Note Name: G4, Velocity: 46
Note OFF: Time 177720, Note Name: G4
Note ON: Time 177720, Note Name: A4, Velocity: 38
Note OFF: Time 177840, Note Name: A4
Note ON: Time 177840, Note Name: B4, Velocity: 45
Note OFF: Time 177960, Note Name: B4
Note ON: Time 177960, Note Name: G4, Velocity: 40
Note OFF: Time 178080, Note Name: G4
Note ON: Time 178080, Note Name: D4, Velocity: 45
Note OFF: Time 178200, Note Name: D4
Note ON: Time 178200, Note Name: F#4, Velocity: 36
Note OFF: Time 178320, Note Name: F#4
Note ON: Time 178320, Note Name: G4, Velocity: 41
Note OFF: Time 178440, Note Name: G4
Note ON: Time 178440, Note Name: D4, Velocity: 36
Note OFF: Time 178560, Note Name: D4
Note ON: Time 178560, Note Name: B3, Velocity: 46
Note OFF: Time 178680, Note Name: B3
Note ON: Time 178680, Note Name: C4, Velocity: 38
Note OFF: Time 178800, Note Name: C4
Note ON: Time 178800, Note Name: D4, Velocity: 45
Note OFF: Time 178920, Note Name: D4
Note ON: Time 178920, Note Name: B3, Velocity: 40
Note OFF: Time 179040, Note Name: B3
Note ON: Time 179040, Note Name: G3, Velocity: 45
Note OFF: Time 179160, Note Name: G3
Note ON: Time 179160, Note Name: A3, Velocity: 36
Note OFF: Time 179280, Note Name: A3
Note ON: Time 179280, Note Name: B3, Velocity: 41
Note OFF: Time 179400, Note Name: B3
Note ON: Time 179400, Note Name: G3, Velocity: 36
Note OFF: Time 179520, Note Name: G3
Note ON: Time 179520, Note Name: D3, Velocity: 46
Note OFF: Time 179640, Note Name: D3
Note ON: Time 179640, Note Name: F#3, Velocity: 38
Note OFF: Time 179760, Note Name: F#3
Note ON: Time 179760, Note Name: G3, Velocity: 45
Note OFF: Time 179880, Note Name: G3
Note ON: Time 179880, Note Name: D3, Velocity: 40
Note OFF: Time 180000, Note Name: D3
Note ON: Time 180000, Note Name: C3, Velocity: 45
Note OFF: Time 180120, Note Name: C3
Note ON: Time 180120, Note Name: G3, Velocity: 36
Note OFF: Time 180240, Note Name: G3
Note ON: Time 180240, Note Name: D3, Velocity: 41
Note OFF: Time 180360, Note Name: D3
Note ON: Time 180360, Note Name: C3, Velocity: 36
Note OFF: Time 180480, Note Name: C3
Note ON: Time 180480, Note Name: B2, Velocity: 36
Note OFF: Time 180720, Note Name: B2
Note ON: Time 180720, Note Name: G2, Velocity: 34
Note ON: Time 180720, Note Name: G3, Velocity: 40
Note OFF: Time 180960, Note Name: G3
Note OFF: Time 180960, Note Name: G2
Note ON: Time 180960, Note Name: E3, Velocity: 36
Note ON: Time 180960, Note Name: C3, Velocity: 30
Note OFF: Time 181080, Note Name: C3
Note OFF: Time 181080, Note Name: E3
Note ON: Time 181200, Note Name: C4, Velocity: 40
Note OFF: Time 181320, Note Name: C4
Note ON: Time 181320, Note Name: A3, Velocity: 36
Note OFF: Time 181440, Note Name: A3
Note ON: Time 181440, Note Name: F#3, Velocity: 36
Note OFF: Time 181680, Note Name: F#3
Note ON: Time 181680, Note Name: D3, Velocity: 31
Note ON: Time 181680, Note Name: D4, Velocity: 36
Note OFF: Time 181920, Note Name: D4
Note OFF: Time 181920, Note Name: D3
Note ON: Time 181920, Note Name: G3, Velocity: 30
Note ON: Time 181920, Note Name: B3, Velocity: 36
Note OFF: Time 182040, Note Name: B3
Note OFF: Time 182040, Note Name: G3
Note ON: Time 182160, Note Name: E4, Velocity: 36
Note ON: Time 182160, Note Name: G3, Velocity: 30
Note OFF: Time 182640, Note Name: G3
Note OFF: Time 182640, Note Name: E4
Note ON: Time 182640, Note Name: G3, Velocity: 30
Note ON: Time 182640, Note Name: E4, Velocity: 36
Note OFF: Time 182880, Note Name: E4
Note OFF: Time 182880, Note Name: G3
Note ON: Time 182880, Note Name: F#4, Velocity: 40
Note ON: Time 182880, Note Name: A3, Velocity: 34
Note OFF: Time 183120, Note Name: A3
Note OFF: Time 183120, Note Name: F#4
Note ON: Time 183120, Note Name: G4, Velocity: 30
Note ON: Time 183120, Note Name: A3, Velocity: 25
Note OFF: Time 183240, Note Name: G4
Note ON: Time 183240, Note Name: A4, Velocity: 36
Note OFF: Time 183360, Note Name: A4
Note OFF: Time 183360, Note Name: A3
Note ON: Time 183360, Note Name: D4, Velocity: 30
Note ON: Time 183360, Note Name: A4, Velocity: 36
Note OFF: Time 183600, Note Name: A4
Note ON: Time 183600, Note Name: B4, Velocity: 36
Note OFF: Time 183780, Note Name: B4
Note ON: Time 183780, Note Name: C#5, Velocity: 31
Note OFF: Time 183840, Note Name: C#5
Note ON: Time 183840, Note Name: D5, Velocity: 36
Note OFF: Time 184080, Note Name: D5
Note OFF: Time 184080, Note Name: D4
Note ON: Time 184080, Note Name: E5, Velocity: 37
Note OFF: Time 184200, Note Name: E5
Note ON: Time 184200, Note Name: F#5, Velocity: 36
Note OFF: Time 184320, Note Name: F#5
Note ON: Time 184320, Note Name: G5, Velocity: 36
Note OFF: Time 184560, Note Name: G5
Note ON: Time 184560, Note Name: B4, Velocity: 30
Note ON: Time 184560, Note Name: D5, Velocity: 36
Note OFF: Time 184800, Note Name: D5
Note OFF: Time 184800, Note Name: B4
Note ON: Time 184800, Note Name: E5, Velocity: 36
Note ON: Time 184800, Note Name: C5, Velocity: 30
Note OFF: Time 184920, Note Name: C5
Note OFF: Time 184920, Note Name: E5
Note ON: Time 185040, Note Name: A4, Velocity: 36
Note OFF: Time 185160, Note Name: A4
Note ON: Time 185160, Note Name: C5, Velocity: 32
Note OFF: Time 185280, Note Name: C5
Note ON: Time 185280, Note Name: D5, Velocity: 36
Note OFF: Time 185520, Note Name: D5
Note ON: Time 185520, Note Name: A4, Velocity: 36
Note ON: Time 185520, Note Name: F#4, Velocity: 30
Note OFF: Time 185760, Note Name: F#4
Note OFF: Time 185760, Note Name: A4
Note ON: Time 185760, Note Name: G4, Velocity: 33
Note ON: Time 185760, Note Name: B4, Velocity: 36
Note OFF: Time 185880, Note Name: B4
Note OFF: Time 185880, Note Name: G4
Note ON: Time 186240, Note Name: E4, Velocity: 30
Note ON: Time 186240, Note Name: G4, Velocity: 30
Note ON: Time 186240, Note Name: B4, Velocity: 36
Note OFF: Time 186480, Note Name: B4
Note OFF: Time 186480, Note Name: G4
Note OFF: Time 186480, Note Name: E4
Note ON: Time 186480, Note Name: E4, Velocity: 30
Note ON: Time 186480, Note Name: C5, Velocity: 36
Note ON: Time 186480, Note Name: G4, Velocity: 30
Note OFF: Time 186720, Note Name: G4
Note OFF: Time 186720, Note Name: C5
Note OFF: Time 186720, Note Name: E4
Note ON: Time 186720, Note Name: G4, Velocity: 36
Note ON: Time 186720, Note Name: E4, Velocity: 30
Note ON: Time 186720, Note Name: C5, Velocity: 36
Note OFF: Time 186840, Note Name: G4
Note ON: Time 186840, Note Name: A4, Velocity: 30
Note OFF: Time 186960, Note Name: A4
Note OFF: Time 186960, Note Name: C5
Note OFF: Time 186960, Note Name: E4
Note ON: Time 186960, Note Name: D#4, Velocity: 30
Note ON: Time 186960, Note Name: F#4, Velocity: 30
Note ON: Time 186960, Note Name: B4, Velocity: 36
Note OFF: Time 187200, Note Name: B4
Note OFF: Time 187200, Note Name: F#4
Note OFF: Time 187200, Note Name: D#4
Note ON: Time 187200, Note Name: F#4, Velocity: 30
Note ON: Time 187200, Note Name: B4, Velocity: 36
Note ON: Time 187200, Note Name: D#4, Velocity: 30
Note OFF: Time 187440, Note Name: D#4
Note OFF: Time 187440, Note Name: B4
Note OFF: Time 187440, Note Name: F#4
Note ON: Time 187440, Note Name: D#4, Velocity: 31
Note ON: Time 187440, Note Name: B3, Velocity: 26
Note OFF: Time 187680, Note Name: B3
Note OFF: Time 187680, Note Name: D#4
Note ON: Time 187680, Note Name: G4, Velocity: 36
Note ON: Time 187680, Note Name: E4, Velocity: 30
Note OFF: Time 187920, Note Name: E4
Note OFF: Time 187920, Note Name: G4
Note ON: Time 187920, Note Name: F4, Velocity: 40
Note ON: Time 187920, Note Name: D4, Velocity: 34
Note OFF: Time 188040, Note Name: D4
Note OFF: Time 188040, Note Name: F4
Note ON: Time 188040, Note Name: E4, Velocity: 36
Note ON: Time 188040, Note Name: C#4, Velocity: 30
Note OFF: Time 188159, Note Name: C#4
Note OFF: Time 188159, Note Name: E4
Note ON: Time 188160, Note Name: E4, Velocity: 36
Note ON: Time 188160, Note Name: C#4, Velocity: 30
Note OFF: Time 188400, Note Name: C#4
Note OFF: Time 188400, Note Name: E4
Note ON: Time 188400, Note Name: C#4, Velocity: 31
Note ON: Time 188400, Note Name: A3, Velocity: 26
Note OFF: Time 188640, Note Name: A3
Note OFF: Time 188640, Note Name: C#4
Note ON: Time 188640, Note Name: F4, Velocity: 36
Note ON: Time 188640, Note Name: D4, Velocity: 30
Note OFF: Time 188880, Note Name: D4
Note OFF: Time 188880, Note Name: F4
Note ON: Time 188880, Note Name: D#4, Velocity: 40
Note ON: Time 188880, Note Name: C4, Velocity: 34
Note OFF: Time 189000, Note Name: C4
Note OFF: Time 189000, Note Name: D#4
Note ON: Time 189000, Note Name: D4, Velocity: 36
Note ON: Time 189000, Note Name: B3, Velocity: 30
Note OFF: Time 189120, Note Name: B3
Note OFF: Time 189120, Note Name: D4
Note ON: Time 189120, Note Name: B3, Velocity: 30
Note ON: Time 189120, Note Name: D4, Velocity: 36
Note OFF: Time 189360, Note Name: D4
Note OFF: Time 189360, Note Name: B3
Note ON: Time 189360, Note Name: G3, Velocity: 26
Note ON: Time 189360, Note Name: B3, Velocity: 31
Note OFF: Time 189600, Note Name: B3
Note OFF: Time 189600, Note Name: G3
Note ON: Time 189600, Note Name: C4, Velocity: 30
Note ON: Time 189600, Note Name: E4, Velocity: 36
Note OFF: Time 189840, Note Name: E4
Note OFF: Time 189840, Note Name: C4
Note ON: Time 189840, Note Name: B3, Velocity: 34
Note ON: Time 189840, Note Name: D#4, Velocity: 40
Note OFF: Time 189960, Note Name: D#4
Note OFF: Time 189960, Note Name: B3
Note ON: Time 189960, Note Name: A#3, Velocity: 30
Note ON: Time 189960, Note Name: C#4, Velocity: 36
Note OFF: Time 190079, Note Name: C#4
Note OFF: Time 190079, Note Name: A#3
Note ON: Time 190080, Note Name: A#3, Velocity: 30
Note ON: Time 190080, Note Name: C#4, Velocity: 36
Note OFF: Time 190320, Note Name: C#4
Note OFF: Time 190320, Note Name: A#3
Note ON: Time 190320, Note Name: F#3, Velocity: 26
Note ON: Time 190320, Note Name: A#3, Velocity: 31
Note OFF: Time 190560, Note Name: A#3
Note OFF: Time 190560, Note Name: F#3
Note ON: Time 190560, Note Name: B3, Velocity: 30
Note ON: Time 190560, Note Name: D4, Velocity: 36
Note OFF: Time 190800, Note Name: D4
Note OFF: Time 190800, Note Name: B3
Note ON: Time 190800, Note Name: A3, Velocity: 34
Note ON: Time 190800, Note Name: C#4, Velocity: 40
Note OFF: Time 190920, Note Name: C#4
Note OFF: Time 190920, Note Name: A3
Note ON: Time 190920, Note Name: B3, Velocity: 36
Note ON: Time 190920, Note Name: G#3, Velocity: 30
Note OFF: Time 191039, Note Name: G#3
Note OFF: Time 191039, Note Name: B3
Note ON: Time 191040, Note Name: B3, Velocity: 36
Note ON: Time 191040, Note Name: G#3, Velocity: 30
Note OFF: Time 191280, Note Name: G#3
Note OFF: Time 191280, Note Name: B3
Note ON: Time 191280, Note Name: A3, Velocity: 36
Note ON: Time 191280, Note Name: E4, Velocity: 30
Note OFF: Time 191400, Note Name: A3
Note ON: Time 191400, Note Name: G3, Velocity: 30
Note OFF: Time 191520, Note Name: G3
Note OFF: Time 191520, Note Name: E4
Note ON: Time 191520, Note Name: A3, Velocity: 36
Note ON: Time 191520, Note Name: F#3, Velocity: 30
Note OFF: Time 191760, Note Name: F#3
Note OFF: Time 191760, Note Name: A3
Note ON: Time 191760, Note Name: G3, Velocity: 36
Note ON: Time 191760, Note Name: B3, Velocity: 30
Note OFF: Time 191880, Note Name: G3
Note ON: Time 191880, Note Name: B2, Velocity: 32
Note OFF: Time 192000, Note Name: B2
Note OFF: Time 192000, Note Name: B3
Note ON: Time 192000, Note Name: A2, Velocity: 25
Note ON: Time 192000, Note Name: D3, Velocity: 25
Note ON: Time 192000, Note Name: C4, Velocity: 30
Note OFF: Time 193440, Note Name: C4
Note OFF: Time 193440, Note Name: D3
Note OFF: Time 193440, Note Name: A2
Note ON: Time 193440, Note Name: B3, Velocity: 30
Note ON: Time 193440, Note Name: B2, Velocity: 25
Note ON: Time 193440, Note Name: D3, Velocity: 25
Note OFF: Time 193920, Note Name: D3
Note OFF: Time 193920, Note Name: B2
Note OFF: Time 193920, Note Name: B3
Note ON: Time 193920, Note Name: A2, Velocity: 25
Note ON: Time 193920, Note Name: C4, Velocity: 30
Note ON: Time 193920, Note Name: D3, Velocity: 25
Note OFF: Time 195360, Note Name: D3
Note OFF: Time 195360, Note Name: C4
Note OFF: Time 195360, Note Name: A2
Note ON: Time 195360, Note Name: B2, Velocity: 25
Note ON: Time 195360, Note Name: B3, Velocity: 30
Note ON: Time 195360, Note Name: D3, Velocity: 25
Note OFF: Time 195840, Note Name: D3
Note OFF: Time 195840, Note Name: B3
Note OFF: Time 195840, Note Name: B2
Note ON: Time 195840, Note Name: B1, Velocity: 25
Note ON: Time 195840, Note Name: B2, Velocity: 30
Note OFF: Time 196320, Note Name: B2
Note OFF: Time 196320, Note Name: B1
Note ON: Time 196320, Note Name: E3, Velocity: 28
Note ON: Time 196320, Note Name: E2, Velocity: 23
Note OFF: Time 196800, Note Name: E2
Note OFF: Time 196800, Note Name: E3
Note ON: Time 196800, Note Name: C#2, Velocity: 25
Note ON: Time 196800, Note Name: C#3, Velocity: 30
Note OFF: Time 197280, Note Name: C#3
Note OFF: Time 197280, Note Name: C#2
Note ON: Time 197280, Note Name: D3, Velocity: 29
Note ON: Time 197280, Note Name: D2, Velocity: 24
Note OFF: Time 197520, Note Name: D2
Note OFF: Time 197520, Note Name: D3
Note ON: Time 197760, Note Name: D4, Velocity: 25
Note ON: Time 197760, Note Name: C5, Velocity: 30
Note ON: Time 197760, Note Name: A3, Velocity: 25
Note OFF: Time 199200, Note Name: A3
Note OFF: Time 199200, Note Name: C5
Note OFF: Time 199200, Note Name: D4
Note ON: Time 199200, Note Name: B4, Velocity: 30
Note ON: Time 199200, Note Name: B3, Velocity: 25
Note ON: Time 199200, Note Name: D4, Velocity: 25
Note OFF: Time 199680, Note Name: D4
Note OFF: Time 199680, Note Name: B3
Note OFF: Time 199680, Note Name: B4
Note ON: Time 199680, Note Name: A2, Velocity: 25
Note ON: Time 199680, Note Name: D3, Velocity: 25
Note ON: Time 199680, Note Name: C4, Velocity: 30
Note OFF: Time 201120, Note Name: C4
Note OFF: Time 201120, Note Name: D3
Note OFF: Time 201120, Note Name: A2
Note ON: Time 201120, Note Name: D3, Velocity: 25
Note ON: Time 201120, Note Name: B2, Velocity: 25
Note ON: Time 201120, Note Name: B3, Velocity: 30
Note OFF: Time 201360, Note Name: B3
Note OFF: Time 201360, Note Name: B2
Note OFF: Time 201360, Note Name: D3
Note ON: Time 201360, Note Name: B3, Velocity: 30
Note OFF: Time 201598, Note Name: B3
Note ON: Time 201600, Note Name: B3, Velocity: 30
Note OFF: Time 202080, Note Name: B3
Note ON: Time 202080, Note Name: E4, Velocity: 28
Note OFF: Time 202560, Note Name: E4
Note ON: Time 202560, Note Name: C#4, Velocity: 30
Note OFF: Time 203040, Note Name: C#4
Note ON: Time 203040, Note Name: D4, Velocity: 29
Note OFF: Time 203280, Note Name: D4
Note ON: Time 203280, Note Name: D#4, Velocity: 29
Note OFF: Time 203520, Note Name: D#4
Note ON: Time 203520, Note Name: E4, Velocity: 31
Note OFF: Time 204000, Note Name: E4
Note ON: Time 204000, Note Name: A4, Velocity: 30
Note OFF: Time 204480, Note Name: A4
Note ON: Time 204480, Note Name: F#4, Velocity: 33
Note OFF: Time 204960, Note Name: F#4
Note ON: Time 204960, Note Name: G4, Velocity: 34
Note OFF: Time 205200, Note Name: G4
Note ON: Time 205200, Note Name: G#4, Velocity: 34
Note OFF: Time 205440, Note Name: G#4
Note ON: Time 205440, Note Name: A4, Velocity: 36
Note OFF: Time 205920, Note Name: A4
Note ON: Time 205920, Note Name: C#5, Velocity: 35
Note OFF: Time 206400, Note Name: C#5
Note ON: Time 206400, Note Name: B4, Velocity: 39
Note OFF: Time 206880, Note Name: B4
Note ON: Time 206880, Note Name: C4, Velocity: 39
Note ON: Time 206880, Note Name: C5, Velocity: 39
Note OFF: Time 207600, Note Name: C5
Note OFF: Time 207600, Note Name: C4
Note ON: Time 207600, Note Name: C3, Velocity: 66
Note ON: Time 207600, Note Name: C2, Velocity: 56
Note OFF: Time 207840, Note Name: C2
Note OFF: Time 207840, Note Name: C3
Note ON: Time 208560, Note Name: C4, Velocity: 69
Note ON: Time 208560, Note Name: E4, Velocity: 82
Note OFF: Time 208680, Note Name: E4
Note OFF: Time 208680, Note Name: C4
Note ON: Time 208800, Note Name: B3, Velocity: 67
Note ON: Time 208800, Note Name: D4, Velocity: 79
Note OFF: Time 209040, Note Name: D4
Note OFF: Time 209040, Note Name: B3
Note ON: Time 209040, Note Name: C4, Velocity: 68
Note ON: Time 209040, Note Name: E4, Velocity: 81
Note OFF: Time 209160, Note Name: E4
Note OFF: Time 209160, Note Name: C4
Note ON: Time 209160, Note Name: D4, Velocity: 71
Note ON: Time 209160, Note Name: F4, Velocity: 84
Note OFF: Time 209280, Note Name: F4
Note OFF: Time 209280, Note Name: D4
Note ON: Time 209280, Note Name: E4, Velocity: 74
Note ON: Time 209280, Note Name: G4, Velocity: 88
Note OFF: Time 209400, Note Name: G4
Note OFF: Time 209400, Note Name: E4
Note ON: Time 209520, Note Name: C2, Velocity: 56
Note ON: Time 209520, Note Name: C3, Velocity: 66
Note OFF: Time 209760, Note Name: C3
Note OFF: Time 209760, Note Name: C2
Note ON: Time 210480, Note Name: C#2, Velocity: 62
Note ON: Time 210480, Note Name: C#3, Velocity: 74
Note OFF: Time 210720, Note Name: C#3
Note OFF: Time 210720, Note Name: C#2
Note ON: Time 210960, Note Name: A2, Velocity: 79
Note ON: Time 210960, Note Name: A1, Velocity: 67
Note OFF: Time 211200, Note Name: A1
Note OFF: Time 211200, Note Name: A2
Note ON: Time 211440, Note Name: D2, Velocity: 62
Note ON: Time 211440, Note Name: D3, Velocity: 74
Note OFF: Time 211680, Note Name: D3
Note OFF: Time 211680, Note Name: D2
Note ON: Time 211920, Note Name: E2, Velocity: 67
Note ON: Time 211920, Note Name: E3, Velocity: 79
Note OFF: Time 212160, Note Name: E3
Note OFF: Time 212160, Note Name: E2
Note ON: Time 212160, Note Name: D2, Velocity: 50
Note OFF: Time 212280, Note Name: D2
Note ON: Time 212280, Note Name: F#2, Velocity: 50
Note OFF: Time 212400, Note Name: F#2
Note ON: Time 212400, Note Name: G2, Velocity: 50
Note OFF: Time 212520, Note Name: G2
Note ON: Time 212520, Note Name: B2, Velocity: 50
Note OFF: Time 212640, Note Name: B2
Note ON: Time 212640, Note Name: D3, Velocity: 50
Note OFF: Time 212760, Note Name: D3
Note ON: Time 212760, Note Name: F#3, Velocity: 50
Note OFF: Time 212880, Note Name: F#3
Note ON: Time 212880, Note Name: G3, Velocity: 50
Note OFF: Time 213000, Note Name: G3
Note ON: Time 213000, Note Name: B3, Velocity: 50
Note OFF: Time 213120, Note Name: B3
Note ON: Time 213120, Note Name: D4, Velocity: 50
Note OFF: Time 213240, Note Name: D4
Note ON: Time 213240, Note Name: F#4, Velocity: 50
Note OFF: Time 213360, Note Name: F#4
Note ON: Time 213360, Note Name: G4, Velocity: 50
Note OFF: Time 213480, Note Name: G4
Note ON: Time 213480, Note Name: B4, Velocity: 50
Note OFF: Time 213600, Note Name: B4
Note ON: Time 213840, Note Name: G4, Velocity: 43
Note OFF: Time 213960, Note Name: G4
Note ON: Time 213960, Note Name: B4, Velocity: 44
Note OFF: Time 214080, Note Name: B4
Note ON: Time 214080, Note Name: C#5, Velocity: 45
Note OFF: Time 214200, Note Name: C#5
Note ON: Time 214200, Note Name: D5, Velocity: 46
Note OFF: Time 214320, Note Name: D5
Note ON: Time 214320, Note Name: E5, Velocity: 47
Note OFF: Time 214440, Note Name: E5
Note ON: Time 214440, Note Name: D5, Velocity: 48
Note OFF: Time 214560, Note Name: D5
Note ON: Time 214560, Note Name: F#5, Velocity: 50
Note OFF: Time 214680, Note Name: F#5
Note ON: Time 214680, Note Name: G5, Velocity: 51
Note OFF: Time 214800, Note Name: G5
Note ON: Time 214800, Note Name: A5, Velocity: 52
Note OFF: Time 214920, Note Name: A5
Note ON: Time 214920, Note Name: G5, Velocity: 53
Note OFF: Time 215040, Note Name: G5
Note ON: Time 215040, Note Name: A#5, Velocity: 54
Note OFF: Time 215160, Note Name: A#5
Note ON: Time 215160, Note Name: B5, Velocity: 55
Note OFF: Time 215280, Note Name: B5
Note ON: Time 215280, Note Name: C6, Velocity: 56
Note OFF: Time 215400, Note Name: C6
Note ON: Time 215400, Note Name: B5, Velocity: 58
Note OFF: Time 215520, Note Name: B5
Note ON: Time 215520, Note Name: D6, Velocity: 59
Note OFF: Time 215760, Note Name: D6
Note ON: Time 215760, Note Name: D4, Velocity: 60
Note OFF: Time 215840, Note Name: D4
Note ON: Time 215840, Note Name: E4, Velocity: 63
Note OFF: Time 215920, Note Name: E4
Note ON: Time 215920, Note Name: F#4, Velocity: 66
Note OFF: Time 216000, Note Name: F#4
Note ON: Time 216000, Note Name: G3, Velocity: 40
Note OFF: Time 216160, Note Name: G3
Note ON: Time 216160, Note Name: B4, Velocity: 32
Note OFF: Time 216320, Note Name: B4
Note ON: Time 216320, Note Name: G4, Velocity: 32
Note OFF: Time 216480, Note Name: G4
Note ON: Time 216480, Note Name: F#4, Velocity: 40
Note OFF: Time 216640, Note Name: F#4
Note ON: Time 216640, Note Name: B4, Velocity: 33
Note OFF: Time 216800, Note Name: B4
Note ON: Time 216800, Note Name: G4, Velocity: 33
Note OFF: Time 216960, Note Name: G4
Note ON: Time 216960, Note Name: D#4, Velocity: 40
Note OFF: Time 217120, Note Name: D#4
Note ON: Time 217120, Note Name: C5, Velocity: 31
Note OFF: Time 217280, Note Name: C5
Note ON: Time 217280, Note Name: G4, Velocity: 31
Note OFF: Time 217440, Note Name: G4
Note ON: Time 217440, Note Name: C4, Velocity: 40
Note OFF: Time 217600, Note Name: C4
Note ON: Time 217600, Note Name: C5, Velocity: 33
Note OFF: Time 217760, Note Name: C5
Note ON: Time 217760, Note Name: G4, Velocity: 33
Note OFF: Time 217920, Note Name: G4
Note ON: Time 217920, Note Name: B3, Velocity: 40
Note OFF: Time 218080, Note Name: B3
Note ON: Time 218080, Note Name: B4, Velocity: 31
Note OFF: Time 218240, Note Name: B4
Note ON: Time 218240, Note Name: G4, Velocity: 31
Note OFF: Time 218400, Note Name: G4
Note ON: Time 218400, Note Name: G3, Velocity: 40
Note OFF: Time 218560, Note Name: G3
Note ON: Time 218560, Note Name: B4, Velocity: 32
Note OFF: Time 218720, Note Name: B4
Note ON: Time 218720, Note Name: G4, Velocity: 32
Note OFF: Time 218880, Note Name: G4
Note ON: Time 218880, Note Name: C4, Velocity: 40
Note OFF: Time 219040, Note Name: C4
Note ON: Time 219040, Note Name: C5, Velocity: 33
Note OFF: Time 219200, Note Name: C5
Note ON: Time 219200, Note Name: G4, Velocity: 33
Note OFF: Time 219360, Note Name: G4
Note ON: Time 219360, Note Name: D#4, Velocity: 40
Note OFF: Time 219520, Note Name: D#4
Note ON: Time 219520, Note Name: C5, Velocity: 32
Note OFF: Time 219680, Note Name: C5
Note ON: Time 219680, Note Name: G4, Velocity: 32
Note OFF: Time 219840, Note Name: G4
Note ON: Time 219840, Note Name: D4, Velocity: 40
Note OFF: Time 220000, Note Name: D4
Note ON: Time 220000, Note Name: A#4, Velocity: 32
Note OFF: Time 220160, Note Name: A#4
Note ON: Time 220160, Note Name: G4, Velocity: 32
Note OFF: Time 220320, Note Name: G4
Note ON: Time 220320, Note Name: D4, Velocity: 40
Note OFF: Time 220480, Note Name: D4
Note ON: Time 220480, Note Name: B4, Velocity: 36
Note OFF: Time 220640, Note Name: B4
Note ON: Time 220640, Note Name: G4, Velocity: 36
Note OFF: Time 220800, Note Name: G4
Note ON: Time 220800, Note Name: D4, Velocity: 40
Note OFF: Time 220960, Note Name: D4
Note ON: Time 220960, Note Name: C5, Velocity: 33
Note OFF: Time 221120, Note Name: C5
Note ON: Time 221120, Note Name: A4, Velocity: 33
Note OFF: Time 221280, Note Name: A4
Note ON: Time 221280, Note Name: D3, Velocity: 40
Note OFF: Time 221440, Note Name: D3
Note ON: Time 221440, Note Name: D4, Velocity: 34
Note OFF: Time 221600, Note Name: D4
Note ON: Time 221600, Note Name: C4, Velocity: 34
Note OFF: Time 221760, Note Name: C4
Note ON: Time 221760, Note Name: G2, Velocity: 40
Note OFF: Time 221880, Note Name: G2
Note ON: Time 221880, Note Name: G3, Velocity: 33
Note OFF: Time 222000, Note Name: G3
Note ON: Time 222000, Note Name: B3, Velocity: 33
Note OFF: Time 222120, Note Name: B3
Note ON: Time 222120, Note Name: G3, Velocity: 33
Note OFF: Time 222240, Note Name: G3
Note ON: Time 222240, Note Name: F#3, Velocity: 41
Note OFF: Time 222360, Note Name: F#3
Note ON: Time 222360, Note Name: G3, Velocity: 35
Note OFF: Time 222480, Note Name: G3
Note ON: Time 222480, Note Name: G4, Velocity: 35
Note OFF: Time 222600, Note Name: G4
Note ON: Time 222600, Note Name: G3, Velocity: 35
Note OFF: Time 222720, Note Name: G3
Note ON: Time 222720, Note Name: E3, Velocity: 42
Note OFF: Time 222840, Note Name: E3
Note ON: Time 222840, Note Name: G3, Velocity: 36
Note OFF: Time 222960, Note Name: G3
Note ON: Time 222960, Note Name: G4, Velocity: 36
Note OFF: Time 223080, Note Name: G4
Note ON: Time 223080, Note Name: G3, Velocity: 37
Note OFF: Time 223200, Note Name: G3
Note ON: Time 223200, Note Name: C3, Velocity: 44
Note OFF: Time 223320, Note Name: C3
Note ON: Time 223320, Note Name: G3, Velocity: 37
Note OFF: Time 223440, Note Name: G3
Note ON: Time 223440, Note Name: E4, Velocity: 37
Note OFF: Time 223560, Note Name: E4
Note ON: Time 223560, Note Name: G3, Velocity: 38
Note OFF: Time 223680, Note Name: G3
Note ON: Time 223680, Note Name: B2, Velocity: 45
Note OFF: Time 223800, Note Name: B2
Note ON: Time 223800, Note Name: G3, Velocity: 37
Note OFF: Time 223920, Note Name: G3
Note ON: Time 223920, Note Name: D4, Velocity: 37
Note OFF: Time 224040, Note Name: D4
Note ON: Time 224040, Note Name: G3, Velocity: 37
Note OFF: Time 224160, Note Name: G3
Note ON: Time 224160, Note Name: G2, Velocity: 46
Note OFF: Time 224280, Note Name: G2
Note ON: Time 224280, Note Name: G3, Velocity: 39
Note OFF: Time 224400, Note Name: G3
Note ON: Time 224400, Note Name: B3, Velocity: 40
Note OFF: Time 224520, Note Name: B3
Note ON: Time 224520, Note Name: G3, Velocity: 40
Note OFF: Time 224640, Note Name: G3
Note ON: Time 224640, Note Name: C3, Velocity: 48
Note OFF: Time 224760, Note Name: C3
Note ON: Time 224760, Note Name: G3, Velocity: 42
Note OFF: Time 224880, Note Name: G3
Note ON: Time 224880, Note Name: E4, Velocity: 42
Note OFF: Time 225000, Note Name: E4
Note ON: Time 225000, Note Name: G3, Velocity: 42
Note OFF: Time 225120, Note Name: G3
Note ON: Time 225120, Note Name: E3, Velocity: 51
Note OFF: Time 225240, Note Name: E3
Note ON: Time 225240, Note Name: G3, Velocity: 43
Note OFF: Time 225360, Note Name: G3
Note ON: Time 225360, Note Name: G4, Velocity: 43
Note OFF: Time 225480, Note Name: G4
Note ON: Time 225480, Note Name: G3, Velocity: 43
Note OFF: Time 225600, Note Name: G3
Note ON: Time 225600, Note Name: D3, Velocity: 50
Note OFF: Time 225720, Note Name: D3
Note ON: Time 225720, Note Name: E3, Velocity: 44
Note OFF: Time 225840, Note Name: E3
Note ON: Time 225840, Note Name: F#3, Velocity: 48
Note OFF: Time 225960, Note Name: F#3
Note ON: Time 225960, Note Name: G3, Velocity: 51
Note OFF: Time 226080, Note Name: G3
Note ON: Time 226080, Note Name: A3, Velocity: 54
Note OFF: Time 226200, Note Name: A3
Note ON: Time 226200, Note Name: B3, Velocity: 55
Note OFF: Time 226320, Note Name: B3
Note ON: Time 226320, Note Name: A3, Velocity: 55
Note OFF: Time 226440, Note Name: A3
Note ON: Time 226440, Note Name: G3, Velocity: 54
Note OFF: Time 226560, Note Name: G3
Note ON: Time 226560, Note Name: F#3, Velocity: 54
Note OFF: Time 226680, Note Name: F#3
Note ON: Time 226680, Note Name: G3, Velocity: 49
Note OFF: Time 226800, Note Name: G3
Note ON: Time 226800, Note Name: F#3, Velocity: 49
Note OFF: Time 226920, Note Name: F#3
Note ON: Time 226920, Note Name: E3, Velocity: 49
Note OFF: Time 227040, Note Name: E3
Note ON: Time 227040, Note Name: D3, Velocity: 54
Note OFF: Time 227160, Note Name: D3
Note ON: Time 227160, Note Name: C3, Velocity: 50
Note OFF: Time 227280, Note Name: C3
Note ON: Time 227280, Note Name: B2, Velocity: 59
Note OFF: Time 227400, Note Name: B2
Note ON: Time 227400, Note Name: A2, Velocity: 66
Note OFF: Time 227520, Note Name: A2
Note ON: Time 227520, Note Name: G1, Velocity: 66
Note OFF: Time 227640, Note Name: G1
Note ON: Time 227640, Note Name: G2, Velocity: 56
Note OFF: Time 227760, Note Name: G2
Note ON: Time 227760, Note Name: G1, Velocity: 66
Note OFF: Time 227880, Note Name: G1
Note ON: Time 227880, Note Name: G2, Velocity: 56
Note OFF: Time 228000, Note Name: G2
Note ON: Time 228000, Note Name: G1, Velocity: 66
Note OFF: Time 228120, Note Name: G1
Note ON: Time 228120, Note Name: G2, Velocity: 57
Note OFF: Time 228240, Note Name: G2
Note ON: Time 228240, Note Name: G1, Velocity: 66
Note OFF: Time 228360, Note Name: G1
Note ON: Time 228360, Note Name: G2, Velocity: 57
Note OFF: Time 228480, Note Name: G2
Note ON: Time 228480, Note Name: G1, Velocity: 66
Note OFF: Time 228600, Note Name: G1
Note ON: Time 228600, Note Name: G2, Velocity: 57
Note OFF: Time 228720, Note Name: G2
Note ON: Time 228720, Note Name: G1, Velocity: 66
Note OFF: Time 228840, Note Name: G1
Note ON: Time 228840, Note Name: G2, Velocity: 58
Note OFF: Time 228960, Note Name: G2
Note ON: Time 228960, Note Name: G1, Velocity: 66
Note OFF: Time 229080, Note Name: G1
Note ON: Time 229080, Note Name: G2, Velocity: 59
Note OFF: Time 229200, Note Name: G2
Note ON: Time 229200, Note Name: G#1, Velocity: 45
Note OFF: Time 229320, Note Name: G#1
Note ON: Time 229320, Note Name: G#2, Velocity: 34
Note OFF: Time 229440, Note Name: G#2
Note ON: Time 229440, Note Name: A1, Velocity: 43
Note OFF: Time 229560, Note Name: A1
Note ON: Time 229560, Note Name: A2, Velocity: 33
Note OFF: Time 229680, Note Name: A2
Note ON: Time 229680, Note Name: G#1, Velocity: 43
Note OFF: Time 229800, Note Name: G#1
Note ON: Time 229800, Note Name: G#2, Velocity: 33
Note OFF: Time 229920, Note Name: G#2
Note ON: Time 229920, Note Name: A1, Velocity: 43
Note OFF: Time 230040, Note Name: A1
Note ON: Time 230040, Note Name: A2, Velocity: 34
Note OFF: Time 230160, Note Name: A2
Note ON: Time 230160, Note Name: C2, Velocity: 43
Note OFF: Time 230280, Note Name: C2
Note ON: Time 230280, Note Name: C3, Velocity: 35
Note OFF: Time 230400, Note Name: C3
Note ON: Time 230400, Note Name: C#2, Velocity: 43
Note OFF: Time 230520, Note Name: C#2
Note ON: Time 230520, Note Name: C#3, Velocity: 33
Note OFF: Time 230640, Note Name: C#3
Note ON: Time 230640, Note Name: E2, Velocity: 43
Note OFF: Time 230760, Note Name: E2
Note ON: Time 230760, Note Name: E3, Velocity: 33
Note OFF: Time 230880, Note Name: E3
Note ON: Time 230880, Note Name: D2, Velocity: 43
Note OFF: Time 231000, Note Name: D2
Note ON: Time 231000, Note Name: D3, Velocity: 34
Note OFF: Time 231120, Note Name: D3
Note ON: Time 231120, Note Name: D2, Velocity: 43
Note OFF: Time 231240, Note Name: D2
Note ON: Time 231240, Note Name: D3, Velocity: 35
Note OFF: Time 231360, Note Name: D3
Note ON: Time 231360, Note Name: D2, Velocity: 47
Note OFF: Time 231480, Note Name: D2
Note ON: Time 231480, Note Name: D3, Velocity: 36
Note OFF: Time 231600, Note Name: D3
Note ON: Time 231600, Note Name: G2, Velocity: 48
Note OFF: Time 231720, Note Name: G2
Note ON: Time 231720, Note Name: G3, Velocity: 37
Note OFF: Time 231840, Note Name: G3
Note ON: Time 231840, Note Name: D2, Velocity: 50
Note OFF: Time 231960, Note Name: D2
Note ON: Time 231960, Note Name: D3, Velocity: 40
Note OFF: Time 232080, Note Name: D3
Note ON: Time 232080, Note Name: D3, Velocity: 53
Note OFF: Time 232200, Note Name: D3
Note ON: Time 232200, Note Name: D4, Velocity: 44
Note OFF: Time 232320, Note Name: D4
Note ON: Time 232320, Note Name: D2, Velocity: 54
Note OFF: Time 232440, Note Name: D2
Note ON: Time 232440, Note Name: D3, Velocity: 42
Note OFF: Time 232560, Note Name: D3
Note ON: Time 232560, Note Name: G2, Velocity: 57
Note OFF: Time 232680, Note Name: G2
Note ON: Time 232680, Note Name: G3, Velocity: 44
Note OFF: Time 232800, Note Name: G3
Note ON: Time 232800, Note Name: D2, Velocity: 58
Note OFF: Time 232920, Note Name: D2
Note ON: Time 232920, Note Name: D3, Velocity: 47
Note OFF: Time 233040, Note Name: D3
Note ON: Time 233040, Note Name: D3, Velocity: 61
Note OFF: Time 233160, Note Name: D3
Note ON: Time 233160, Note Name: D4, Velocity: 51
Note OFF: Time 233280, Note Name: D4
Note ON: Time 233280, Note Name: G2, Velocity: 59
Note OFF: Time 233400, Note Name: G2
Note ON: Time 233400, Note Name: G3, Velocity: 50
Note OFF: Time 233520, Note Name: G3
Note ON: Time 233520, Note Name: D2, Velocity: 61
Note OFF: Time 233640, Note Name: D2
Note ON: Time 233640, Note Name: D3, Velocity: 51
Note OFF: Time 233760, Note Name: D3
Note ON: Time 233760, Note Name: F#2, Velocity: 64
Note OFF: Time 233880, Note Name: F#2
Note ON: Time 233880, Note Name: F#3, Velocity: 55
Note OFF: Time 234000, Note Name: F#3
Note ON: Time 234000, Note Name: A2, Velocity: 67
Note OFF: Time 234120, Note Name: A2
Note ON: Time 234120, Note Name: A3, Velocity: 58
Note OFF: Time 234240, Note Name: A3
Note ON: Time 234240, Note Name: G2, Velocity: 68
Note OFF: Time 234360, Note Name: G2
Note ON: Time 234360, Note Name: G3, Velocity: 63
Note OFF: Time 234480, Note Name: G3
Note ON: Time 234480, Note Name: D2, Velocity: 71
Note OFF: Time 234600, Note Name: D2
Note ON: Time 234600, Note Name: D3, Velocity: 63
Note OFF: Time 234720, Note Name: D3
Note ON: Time 234720, Note Name: F#1, Velocity: 74
Note OFF: Time 234840, Note Name: F#1
Note ON: Time 234840, Note Name: F#2, Velocity: 64
Note OFF: Time 234960, Note Name: F#2
Note ON: Time 234960, Note Name: A1, Velocity: 76
Note OFF: Time 235080, Note Name: A1
Note ON: Time 235080, Note Name: A2, Velocity: 67
Note OFF: Time 235200, Note Name: A2
Note ON: Time 235200, Note Name: G2, Velocity: 81
Note ON: Time 235200, Note Name: G1, Velocity: 69
Note OFF: Time 235380, Note Name: G1
Note OFF: Time 235380, Note Name: G2
Note ON: Time 235680, Note Name: A1, Velocity: 69
Note ON: Time 235680, Note Name: A2, Velocity: 81
Note OFF: Time 235860, Note Name: A2
Note OFF: Time 235860, Note Name: A1
Note ON: Time 236160, Note Name: B1, Velocity: 72
Note ON: Time 236160, Note Name: B2, Velocity: 86
Note OFF: Time 237120, Note Name: B2
Note OFF: Time 237120, Note Name: B1
Note ON: Time 237120, Note Name: B2, Velocity: 81
Note ON: Time 237120, Note Name: B1, Velocity: 69
Note OFF: Time 237300, Note Name: B1
Note OFF: Time 237300, Note Name: B2
Note ON: Time 237600, Note Name: C3, Velocity: 81
Note ON: Time 237600, Note Name: C2, Velocity: 69
Note OFF: Time 237780, Note Name: C2
Note OFF: Time 237780, Note Name: C3
Note ON: Time 238080, Note Name: D3, Velocity: 86
Note ON: Time 238080, Note Name: D2, Velocity: 72
Note OFF: Time 239040, Note Name: D2
Note OFF: Time 239040, Note Name: D3
Note ON: Time 239040, Note Name: B4, Velocity: 39
Note OFF: Time 239160, Note Name: B4
Note ON: Time 239160, Note Name: G4, Velocity: 33
Note OFF: Time 239280, Note Name: G4
Note ON: Time 239280, Note Name: B4, Velocity: 39
Note OFF: Time 239400, Note Name: B4
Note ON: Time 239400, Note Name: G4, Velocity: 33
Note OFF: Time 239520, Note Name: G4
Note ON: Time 239520, Note Name: B4, Velocity: 39
Note OFF: Time 239640, Note Name: B4
Note ON: Time 239640, Note Name: G4, Velocity: 34
Note OFF: Time 239760, Note Name: G4
Note ON: Time 239760, Note Name: C5, Velocity: 39
Note OFF: Time 239880, Note Name: C5
Note ON: Time 239880, Note Name: G4, Velocity: 34
Note OFF: Time 240000, Note Name: G4
Note ON: Time 240000, Note Name: D5, Velocity: 39
Note OFF: Time 240120, Note Name: D5
Note ON: Time 240120, Note Name: G4, Velocity: 34
Note OFF: Time 240240, Note Name: G4
Note ON: Time 240240, Note Name: C5, Velocity: 39
Note OFF: Time 240360, Note Name: C5
Note ON: Time 240360, Note Name: G4, Velocity: 34
Note OFF: Time 240480, Note Name: G4
Note ON: Time 240480, Note Name: B4, Velocity: 39
Note OFF: Time 240600, Note Name: B4
Note ON: Time 240600, Note Name: G4, Velocity: 35
Note OFF: Time 240720, Note Name: G4
Note ON: Time 240720, Note Name: D5, Velocity: 27
Note OFF: Time 240840, Note Name: D5
Note ON: Time 240840, Note Name: G4, Velocity: 20
Note OFF: Time 240960, Note Name: G4
Note ON: Time 240960, Note Name: C5, Velocity: 39
Note OFF: Time 241080, Note Name: C5
Note ON: Time 241080, Note Name: G4, Velocity: 33
Note OFF: Time 241200, Note Name: G4
Note ON: Time 241200, Note Name: C5, Velocity: 39
Note OFF: Time 241320, Note Name: C5
Note ON: Time 241320, Note Name: G4, Velocity: 33
Note OFF: Time 241440, Note Name: G4
Note ON: Time 241440, Note Name: C5, Velocity: 39
Note OFF: Time 241560, Note Name: C5
Note ON: Time 241560, Note Name: G4, Velocity: 34
Note OFF: Time 241680, Note Name: G4
Note ON: Time 241680, Note Name: B4, Velocity: 39
Note OFF: Time 241800, Note Name: B4
Note ON: Time 241800, Note Name: G4, Velocity: 34
Note OFF: Time 241920, Note Name: G4
Note ON: Time 241920, Note Name: C5, Velocity: 39
Note OFF: Time 242040, Note Name: C5
Note ON: Time 242040, Note Name: G4, Velocity: 34
Note OFF: Time 242160, Note Name: G4
Note ON: Time 242160, Note Name: B4, Velocity: 39
Note OFF: Time 242280, Note Name: B4
Note ON: Time 242280, Note Name: G4, Velocity: 34
Note OFF: Time 242400, Note Name: G4
Note ON: Time 242400, Note Name: C5, Velocity: 39
Note OFF: Time 242520, Note Name: C5
Note ON: Time 242520, Note Name: G4, Velocity: 35
Note OFF: Time 242640, Note Name: G4
Note ON: Time 242640, Note Name: C5, Velocity: 27
Note OFF: Time 242760, Note Name: C5
Note ON: Time 242760, Note Name: C4, Velocity: 20
Note OFF: Time 242880, Note Name: C4
Note ON: Time 242880, Note Name: A#4, Velocity: 42
Note OFF: Time 243000, Note Name: A#4
Note ON: Time 243000, Note Name: A#3, Velocity: 36
Note OFF: Time 243120, Note Name: A#3
Note ON: Time 243120, Note Name: D4, Velocity: 44
Note ON: Time 243120, Note Name: A#4, Velocity: 44
Note OFF: Time 243240, Note Name: A#4
Note OFF: Time 243240, Note Name: D4
Note ON: Time 243240, Note Name: A#3, Velocity: 38
Note OFF: Time 243360, Note Name: A#3
Note ON: Time 243360, Note Name: A#4, Velocity: 46
Note ON: Time 243360, Note Name: D4, Velocity: 46
Note OFF: Time 243480, Note Name: D4
Note OFF: Time 243480, Note Name: A#4
Note ON: Time 243480, Note Name: A#3, Velocity: 41
Note OFF: Time 243600, Note Name: A#3
Note ON: Time 243600, Note Name: A#4, Velocity: 48
Note ON: Time 243600, Note Name: D#4, Velocity: 48
Note OFF: Time 243720, Note Name: D#4
Note OFF: Time 243720, Note Name: A#4
Note ON: Time 243720, Note Name: A#3, Velocity: 43
Note OFF: Time 243840, Note Name: A#3
Note ON: Time 243840, Note Name: F4, Velocity: 50
Note ON: Time 243840, Note Name: A#4, Velocity: 50
Note OFF: Time 243960, Note Name: A#4
Note OFF: Time 243960, Note Name: F4
Note ON: Time 243960, Note Name: A#3, Velocity: 44
Note OFF: Time 244080, Note Name: A#3
Note ON: Time 244080, Note Name: A#4, Velocity: 52
Note ON: Time 244080, Note Name: D#4, Velocity: 52
Note OFF: Time 244200, Note Name: D#4
Note OFF: Time 244200, Note Name: A#4
Note ON: Time 244200, Note Name: A#3, Velocity: 46
Note OFF: Time 244320, Note Name: A#3
Note ON: Time 244320, Note Name: A#4, Velocity: 54
Note ON: Time 244320, Note Name: D4, Velocity: 54
Note OFF: Time 244440, Note Name: D4
Note OFF: Time 244440, Note Name: A#4
Note ON: Time 244440, Note Name: A#3, Velocity: 49
Note OFF: Time 244560, Note Name: A#3
Note ON: Time 244560, Note Name: G#2, Velocity: 44
Note OFF: Time 244680, Note Name: G#2
Note ON: Time 244680, Note Name: G#3, Velocity: 33
Note OFF: Time 244800, Note Name: G#3
Note ON: Time 244800, Note Name: G2, Velocity: 77
Note OFF: Time 244920, Note Name: G2
Note ON: Time 244920, Note Name: G3, Velocity: 70
Note OFF: Time 245034, Note Name: G3
Note ON: Time 245040, Note Name: G3, Velocity: 70
Note OFF: Time 245160, Note Name: G3
Note ON: Time 245160, Note Name: G4, Velocity: 70
Note OFF: Time 245280, Note Name: G4
Note ON: Time 245280, Note Name: F2, Velocity: 77
Note OFF: Time 245400, Note Name: F2
Note ON: Time 245400, Note Name: F3, Velocity: 69
Note OFF: Time 245514, Note Name: F3
Note ON: Time 245520, Note Name: F3, Velocity: 69
Note OFF: Time 245640, Note Name: F3
Note ON: Time 245640, Note Name: F4, Velocity: 69
Note OFF: Time 245760, Note Name: F4
Note ON: Time 245760, Note Name: D#2, Velocity: 85
Note OFF: Time 245880, Note Name: D#2
Note ON: Time 245880, Note Name: D#3, Velocity: 67
Note OFF: Time 245994, Note Name: D#3
Note ON: Time 246000, Note Name: D#4, Velocity: 82
Note ON: Time 246000, Note Name: D#3, Velocity: 69
Note OFF: Time 246720, Note Name: D#3
Note OFF: Time 246720, Note Name: D#4
Note ON: Time 246960, Note Name: G3, Velocity: 40
Note OFF: Time 247080, Note Name: G3
Note ON: Time 247080, Note Name: A#3, Velocity: 35
Note OFF: Time 247200, Note Name: A#3
Note ON: Time 247440, Note Name: F3, Velocity: 40
Note OFF: Time 247560, Note Name: F3
Note ON: Time 247560, Note Name: G#3, Velocity: 34
Note OFF: Time 247680, Note Name: G#3
Note ON: Time 247920, Note Name: G3, Velocity: 40
Note OFF: Time 248520, Note Name: G3
Note ON: Time 248520, Note Name: D#3, Velocity: 93
Note OFF: Time 248640, Note Name: D#3
Note ON: Time 248640, Note Name: D#4, Velocity: 90
Note OFF: Time 248997, Note Name: D#4
Note ON: Time 249000, Note Name: D#4, Velocity: 61
Note OFF: Time 249117, Note Name: D#4
Note ON: Time 249120, Note Name: D#4, Velocity: 66
Note OFF: Time 249360, Note Name: D#4
Note ON: Time 250440, Note Name: G3, Velocity: 91
Note OFF: Time 250560, Note Name: G3
Note ON: Time 250560, Note Name: G4, Velocity: 80
Note OFF: Time 250917, Note Name: G4
Note ON: Time 250920, Note Name: G4, Velocity: 63
Note OFF: Time 251037, Note Name: G4
Note ON: Time 251040, Note Name: G4, Velocity: 69
Note OFF: Time 251280, Note Name: G4
Note ON: Time 253320, Note Name: D#2, Velocity: 40
Note OFF: Time 253440, Note Name: D#2
Note ON: Time 253440, Note Name: G#2, Velocity: 44
Note OFF: Time 253798, Note Name: G#2
Note ON: Time 253800, Note Name: G#2, Velocity: 40
Note OFF: Time 253918, Note Name: G#2
Note ON: Time 253920, Note Name: G#2, Velocity: 43
Note OFF: Time 254160, Note Name: G#2
Note ON: Time 254160, Note Name: A#2, Velocity: 44
Note OFF: Time 254250, Note Name: A#2
Note ON: Time 254280, Note Name: G#2, Velocity: 40
Note OFF: Time 254370, Note Name: G#2
Note ON: Time 254400, Note Name: G#2, Velocity: 44
Note OFF: Time 254468, Note Name: G#2
Note ON: Time 254640, Note Name: F2, Velocity: 39
Note OFF: Time 254730, Note Name: F2
Note ON: Time 254880, Note Name: F2, Velocity: 39
Note OFF: Time 255360, Note Name: F2
Note ON: Time 255360, Note Name: A#2, Velocity: 44
Note OFF: Time 255450, Note Name: A#2
Note ON: Time 255600, Note Name: A#2, Velocity: 44
Note OFF: Time 255690, Note Name: A#2
Note ON: Time 255720, Note Name: G#2, Velocity: 44
Note OFF: Time 255810, Note Name: G#2
Note ON: Time 255840, Note Name: G2, Velocity: 44
Note OFF: Time 255960, Note Name: G2
Note ON: Time 256080, Note Name: G2, Velocity: 44
Note OFF: Time 256170, Note Name: G2
Note ON: Time 256200, Note Name: F2, Velocity: 44
Note OFF: Time 256290, Note Name: F2
Note ON: Time 256320, Note Name: E2, Velocity: 44
Note OFF: Time 256560, Note Name: E2
Note ON: Time 256800, Note Name: E2, Velocity: 39
Note OFF: Time 257280, Note Name: E2
Note ON: Time 257280, Note Name: C3, Velocity: 44
Note OFF: Time 257370, Note Name: C3
Note ON: Time 257520, Note Name: C3, Velocity: 44
Note OFF: Time 257610, Note Name: C3
Note ON: Time 257640, Note Name: A#2, Velocity: 44
Note OFF: Time 257730, Note Name: A#2
Note ON: Time 257760, Note Name: G#2, Velocity: 44
Note OFF: Time 257880, Note Name: G#2
Note ON: Time 258000, Note Name: G#2, Velocity: 44
Note OFF: Time 258090, Note Name: G#2
Note ON: Time 258120, Note Name: G2, Velocity: 44
Note OFF: Time 258210, Note Name: G2
Note ON: Time 258240, Note Name: F2, Velocity: 44
Note OFF: Time 258480, Note Name: F2
Note ON: Time 258600, Note Name: C3, Velocity: 37
Note OFF: Time 258690, Note Name: C3
Note ON: Time 258720, Note Name: F3, Velocity: 37
Note OFF: Time 258840, Note Name: F3
Note ON: Time 258960, Note Name: F3, Velocity: 38
Note OFF: Time 259050, Note Name: F3
Note ON: Time 259080, Note Name: D#3, Velocity: 38
Note OFF: Time 259170, Note Name: D#3
Note ON: Time 259200, Note Name: D3, Velocity: 46
Note OFF: Time 259290, Note Name: D3
Note ON: Time 259440, Note Name: D3, Velocity: 39
Note OFF: Time 259530, Note Name: D3
Note ON: Time 259560, Note Name: C3, Velocity: 39
Note OFF: Time 259650, Note Name: C3
Note ON: Time 259680, Note Name: A#2, Velocity: 39
Note OFF: Time 259800, Note Name: A#2
Note ON: Time 259920, Note Name: C3, Velocity: 40
Note OFF: Time 260010, Note Name: C3
Note ON: Time 260040, Note Name: D3, Velocity: 40
Note OFF: Time 260130, Note Name: D3
Note ON: Time 260160, Note Name: D#3, Velocity: 48
Note OFF: Time 260280, Note Name: D#3
Note ON: Time 260400, Note Name: G2, Velocity: 41
Note OFF: Time 260640, Note Name: G2
Note ON: Time 260640, Note Name: A2, Velocity: 42
Note OFF: Time 260880, Note Name: A2
Note ON: Time 260880, Note Name: C3, Velocity: 42
Note ON: Time 260880, Note Name: F3, Velocity: 47
Note OFF: Time 261000, Note Name: F3
Note ON: Time 261000, Note Name: D#3, Velocity: 47
Note OFF: Time 261120, Note Name: D#3
Note OFF: Time 261120, Note Name: C3
Note ON: Time 261120, Note Name: A#2, Velocity: 51
Note ON: Time 261120, Note Name: D3, Velocity: 43
Note OFF: Time 261210, Note Name: A#2
Note OFF: Time 261360, Note Name: D3
Note ON: Time 261360, Note Name: A#2, Velocity: 43
Note OFF: Time 261450, Note Name: A#2
Note ON: Time 261480, Note Name: C3, Velocity: 44
Note OFF: Time 261570, Note Name: C3
Note ON: Time 261600, Note Name: D3, Velocity: 44
Note OFF: Time 261720, Note Name: D3
Note ON: Time 261840, Note Name: D#3, Velocity: 44
Note OFF: Time 261930, Note Name: D#3
Note ON: Time 261960, Note Name: A#3, Velocity: 48
Note ON: Time 261960, Note Name: F3, Velocity: 45
Note OFF: Time 262050, Note Name: F3
Note OFF: Time 262080, Note Name: A#3
Note ON: Time 262080, Note Name: D#3, Velocity: 54
Note ON: Time 262080, Note Name: D#4, Velocity: 54
Note OFF: Time 262200, Note Name: D#3
Note OFF: Time 262438, Note Name: D#4
Note ON: Time 262440, Note Name: D#4, Velocity: 50
Note OFF: Time 262558, Note Name: D#4
Note ON: Time 262560, Note Name: D#4, Velocity: 54
Note OFF: Time 262800, Note Name: D#4
Note ON: Time 262800, Note Name: F4, Velocity: 55
Note OFF: Time 262890, Note Name: F4
Note ON: Time 262920, Note Name: D#4, Velocity: 51
Note OFF: Time 263010, Note Name: D#4
Note ON: Time 263040, Note Name: C3, Velocity: 56
Note ON: Time 263040, Note Name: D#4, Velocity: 56
Note OFF: Time 263108, Note Name: D#4
Note OFF: Time 263130, Note Name: C3
Note ON: Time 263280, Note Name: C4, Velocity: 50
Note ON: Time 263280, Note Name: C3, Velocity: 48
Note OFF: Time 263370, Note Name: C3
Note OFF: Time 263370, Note Name: C4
Note ON: Time 263400, Note Name: D3, Velocity: 48
Note OFF: Time 263490, Note Name: D3
Note ON: Time 263520, Note Name: E3, Velocity: 48
Note ON: Time 263520, Note Name: C4, Velocity: 51
Note OFF: Time 263640, Note Name: E3
Note ON: Time 263760, Note Name: F3, Velocity: 49
Note OFF: Time 263850, Note Name: F3
Note ON: Time 263880, Note Name: G3, Velocity: 49
Note OFF: Time 263970, Note Name: G3
Note OFF: Time 264000, Note Name: C4
Note ON: Time 264000, Note Name: F4, Velocity: 59
Note ON: Time 264000, Note Name: F3, Velocity: 59
Note OFF: Time 264090, Note Name: F4
Note OFF: Time 264120, Note Name: F3
Note ON: Time 264240, Note Name: F4, Velocity: 59
Note OFF: Time 264330, Note Name: F4
Note ON: Time 264360, Note Name: D#4, Velocity: 60
Note OFF: Time 264450, Note Name: D#4
Note ON: Time 264480, Note Name: F3, Velocity: 50
Note ON: Time 264480, Note Name: D4, Velocity: 60
Note OFF: Time 264600, Note Name: D4
Note OFF: Time 264600, Note Name: F3
Note ON: Time 264720, Note Name: F3, Velocity: 51
Note ON: Time 264720, Note Name: D4, Velocity: 61
Note OFF: Time 264810, Note Name: D4
Note OFF: Time 264810, Note Name: F3
Note ON: Time 264840, Note Name: D#3, Velocity: 51
Note ON: Time 264840, Note Name: C4, Velocity: 61
Note OFF: Time 264930, Note Name: C4
Note OFF: Time 264930, Note Name: D#3
Note ON: Time 264960, Note Name: D3, Velocity: 61
Note ON: Time 264960, Note Name: B3, Velocity: 61
Note OFF: Time 265050, Note Name: D3
Note OFF: Time 265200, Note Name: B3
Note ON: Time 265200, Note Name: D3, Velocity: 52
Note OFF: Time 265290, Note Name: D3
Note ON: Time 265320, Note Name: D#3, Velocity: 52
Note OFF: Time 265410, Note Name: D#3
Note ON: Time 265440, Note Name: B3, Velocity: 55
Note ON: Time 265440, Note Name: F3, Velocity: 52
Note OFF: Time 265560, Note Name: F3
Note ON: Time 265680, Note Name: G3, Velocity: 53
Note OFF: Time 265770, Note Name: G3
Note ON: Time 265800, Note Name: G#3, Velocity: 53
Note OFF: Time 265890, Note Name: G#3
Note OFF: Time 265920, Note Name: B3
Note ON: Time 265920, Note Name: G4, Velocity: 64
Note ON: Time 265920, Note Name: G3, Velocity: 64
Note OFF: Time 266010, Note Name: G4
Note OFF: Time 266040, Note Name: G3
Note ON: Time 266160, Note Name: G4, Velocity: 65
Note OFF: Time 266250, Note Name: G4
Note ON: Time 266280, Note Name: F4, Velocity: 65
Note OFF: Time 266370, Note Name: F4
Note ON: Time 266400, Note Name: D#4, Velocity: 65
Note ON: Time 266400, Note Name: G3, Velocity: 55
Note OFF: Time 266520, Note Name: G3
Note OFF: Time 266520, Note Name: D#4
Note ON: Time 266640, Note Name: D#4, Velocity: 66
Note ON: Time 266640, Note Name: G3, Velocity: 55
Note OFF: Time 266730, Note Name: G3
Note OFF: Time 266730, Note Name: D#4
Note ON: Time 266760, Note Name: D4, Velocity: 66
Note ON: Time 266760, Note Name: F3, Velocity: 55
Note OFF: Time 266850, Note Name: F3
Note OFF: Time 266850, Note Name: D4
Note ON: Time 266880, Note Name: D#3, Velocity: 66
Note ON: Time 266880, Note Name: C4, Velocity: 66
Note OFF: Time 266970, Note Name: C4
Note OFF: Time 266970, Note Name: D#3
Note ON: Time 267120, Note Name: D#3, Velocity: 56
Note ON: Time 267120, Note Name: C4, Velocity: 59
Note OFF: Time 267210, Note Name: D#3
Note ON: Time 267240, Note Name: F3, Velocity: 56
Note OFF: Time 267330, Note Name: F3
Note ON: Time 267360, Note Name: G3, Velocity: 57
Note OFF: Time 267480, Note Name: G3
Note OFF: Time 267600, Note Name: C4
Note ON: Time 267600, Note Name: A3, Velocity: 57
Note ON: Time 267600, Note Name: G4, Velocity: 57
Note OFF: Time 267690, Note Name: G4
Note OFF: Time 267690, Note Name: A3
Note ON: Time 267720, Note Name: F4, Velocity: 58
Note ON: Time 267720, Note Name: B3, Velocity: 58
Note OFF: Time 267810, Note Name: B3
Note OFF: Time 267810, Note Name: F4
Note ON: Time 267840, Note Name: C4, Velocity: 69
Note ON: Time 267840, Note Name: D#4, Velocity: 69
Note OFF: Time 267930, Note Name: D#4
Note OFF: Time 267930, Note Name: C4
Note ON: Time 268080, Note Name: F4, Velocity: 58
Note ON: Time 268080, Note Name: D3, Velocity: 58
Note OFF: Time 268170, Note Name: D3
Note OFF: Time 268170, Note Name: F4
Note ON: Time 268200, Note Name: G4, Velocity: 59
Note ON: Time 268200, Note Name: E3, Velocity: 59
Note OFF: Time 268290, Note Name: E3
Note OFF: Time 268290, Note Name: G4
Note ON: Time 268320, Note Name: F3, Velocity: 59
Note ON: Time 268320, Note Name: C4, Velocity: 59
Note OFF: Time 268440, Note Name: C4
Note OFF: Time 268440, Note Name: F3
Note ON: Time 268560, Note Name: C4, Velocity: 59
Note ON: Time 268560, Note Name: F2, Velocity: 59
Note OFF: Time 268650, Note Name: F2
Note OFF: Time 268650, Note Name: C4
Note ON: Time 268680, Note Name: G2, Velocity: 55
Note ON: Time 268680, Note Name: A#3, Velocity: 60
Note OFF: Time 268770, Note Name: A#3
Note OFF: Time 268770, Note Name: G2
Note ON: Time 268800, Note Name: C4, Velocity: 72
Note ON: Time 268800, Note Name: G#2, Velocity: 72
Note OFF: Time 268920, Note Name: G#2
Note OFF: Time 268920, Note Name: C4
Note ON: Time 269040, Note Name: A#2, Velocity: 51
Note ON: Time 269040, Note Name: D4, Velocity: 61
Note OFF: Time 269280, Note Name: D4
Note OFF: Time 269280, Note Name: A#2
Note ON: Time 269280, Note Name: B2, Velocity: 51
Note ON: Time 269280, Note Name: D#4, Velocity: 61
Note OFF: Time 269520, Note Name: D#4
Note OFF: Time 269520, Note Name: B2
Note ON: Time 269520, Note Name: D4, Velocity: 62
Note ON: Time 269520, Note Name: A#2, Velocity: 62
Note OFF: Time 269610, Note Name: A#2
Note OFF: Time 269610, Note Name: D4
Note ON: Time 269640, Note Name: D4, Velocity: 62
Note ON: Time 269640, Note Name: A#1, Velocity: 62
Note ON: Time 269640, Note Name: F4, Velocity: 62
Note OFF: Time 269730, Note Name: F4
Note OFF: Time 269730, Note Name: A#1
Note OFF: Time 269730, Note Name: D4
Note ON: Time 269760, Note Name: D#2, Velocity: 61
Note OFF: Time 270118, Note Name: D#2
Note ON: Time 270120, Note Name: D#2, Velocity: 54
Note OFF: Time 270210, Note Name: D#2
Note ON: Time 270240, Note Name: D#2, Velocity: 54
Note OFF: Time 270480, Note Name: D#2
Note ON: Time 270480, Note Name: F2, Velocity: 61
Note OFF: Time 270570, Note Name: F2
Note ON: Time 270600, Note Name: D#2, Velocity: 54
Note OFF: Time 270690, Note Name: D#2
Note ON: Time 270720, Note Name: C3, Velocity: 61
Note ON: Time 270720, Note Name: D#2, Velocity: 51
Note OFF: Time 270960, Note Name: D#2
Note ON: Time 270960, Note Name: C2, Velocity: 43
Note OFF: Time 271078, Note Name: C3
Note ON: Time 271080, Note Name: C3, Velocity: 54
Note OFF: Time 271170, Note Name: C3
Note OFF: Time 271200, Note Name: C2
Note ON: Time 271200, Note Name: C3, Velocity: 62
Note ON: Time 271200, Note Name: C2, Velocity: 52
Note OFF: Time 271440, Note Name: C3
Note ON: Time 271440, Note Name: D3, Velocity: 61
Note OFF: Time 271530, Note Name: D3
Note ON: Time 271560, Note Name: C3, Velocity: 54
Note OFF: Time 271650, Note Name: C3
Note OFF: Time 271680, Note Name: C2
Note ON: Time 271680, Note Name: C3, Velocity: 61
Note ON: Time 271680, Note Name: G#2, Velocity: 51
Note OFF: Time 271770, Note Name: G#2
Note OFF: Time 271800, Note Name: C3
Note ON: Time 271920, Note Name: G#2, Velocity: 62
Note ON: Time 272040, Note Name: G2, Velocity: 57
Note OFF: Time 272130, Note Name: G2
Note OFF: Time 272130, Note Name: G#2
Note ON: Time 272160, Note Name: F2, Velocity: 53
Note ON: Time 272160, Note Name: G#2, Velocity: 63
Note OFF: Time 272250, Note Name: F2
Note ON: Time 272400, Note Name: F2, Velocity: 54
Note OFF: Time 272490, Note Name: F2
Note ON: Time 272520, Note Name: D#2, Velocity: 54
Note OFF: Time 272610, Note Name: D#2
Note OFF: Time 272640, Note Name: G#2
Note ON: Time 272640, Note Name: D2, Velocity: 51
Note ON: Time 272640, Note Name: F3, Velocity: 56
Note OFF: Time 272730, Note Name: F3
Note OFF: Time 272880, Note Name: D2
Note ON: Time 272880, Note Name: F3, Velocity: 56
Note OFF: Time 272970, Note Name: F3
Note ON: Time 273000, Note Name: D#3, Velocity: 59
Note OFF: Time 273090, Note Name: D#3
Note ON: Time 273120, Note Name: D3, Velocity: 59
Note ON: Time 273120, Note Name: D2, Velocity: 52
Note OFF: Time 273240, Note Name: D3
Note ON: Time 273360, Note Name: D3, Velocity: 56
Note OFF: Time 273450, Note Name: D3
Note ON: Time 273480, Note Name: C3, Velocity: 52
Note OFF: Time 273570, Note Name: C3
Note OFF: Time 273600, Note Name: D2
Note ON: Time 273600, Note Name: A#2, Velocity: 61
Note OFF: Time 273720, Note Name: A#2
Note ON: Time 273840, Note Name: A#2, Velocity: 62
Note OFF: Time 273930, Note Name: A#2
Note ON: Time 273960, Note Name: G#2, Velocity: 57
Note OFF: Time 274050, Note Name: G#2
Note ON: Time 274080, Note Name: A#2, Velocity: 63
Note ON: Time 274080, Note Name: G2, Velocity: 53
Note OFF: Time 274170, Note Name: G2
Note ON: Time 274320, Note Name: G2, Velocity: 54
Note OFF: Time 274410, Note Name: G2
Note ON: Time 274440, Note Name: F2, Velocity: 54
Note OFF: Time 274530, Note Name: F2
Note OFF: Time 274560, Note Name: A#2
Note ON: Time 274560, Note Name: E2, Velocity: 51
Note ON: Time 274560, Note Name: G3, Velocity: 56
Note OFF: Time 274650, Note Name: G3
Note OFF: Time 274800, Note Name: E2
Note ON: Time 274800, Note Name: G3, Velocity: 56
Note OFF: Time 274890, Note Name: G3
Note ON: Time 274920, Note Name: F3, Velocity: 59
Note OFF: Time 275010, Note Name: F3
Note ON: Time 275040, Note Name: E2, Velocity: 52
Note ON: Time 275040, Note Name: E3, Velocity: 59
Note OFF: Time 275160, Note Name: E3
Note ON: Time 275280, Note Name: E3, Velocity: 56
Note OFF: Time 275370, Note Name: E3
Note ON: Time 275400, Note Name: D3, Velocity: 52
Note OFF: Time 275490, Note Name: D3
Note OFF: Time 275520, Note Name: E2
Note ON: Time 275520, Note Name: C3, Velocity: 61
Note OFF: Time 275640, Note Name: C3
Note ON: Time 275760, Note Name: G3, Velocity: 51
Note ON: Time 275760, Note Name: C3, Velocity: 43
Note OFF: Time 275850, Note Name: C3
Note OFF: Time 275850, Note Name: G3
Note ON: Time 275880, Note Name: C#4, Velocity: 41
Note ON: Time 275880, Note Name: A#2, Velocity: 34
Note OFF: Time 275970, Note Name: A#2
Note OFF: Time 275970, Note Name: C#4
Note ON: Time 276000, Note Name: C3, Velocity: 51
Note ON: Time 276000, Note Name: C4, Velocity: 51
Note ON: Time 276000, Note Name: G#2, Velocity: 43
Note OFF: Time 276090, Note Name: G#2
Note OFF: Time 276090, Note Name: C4
Note OFF: Time 276090, Note Name: C3
Note ON: Time 276240, Note Name: G2, Velocity: 45
Note ON: Time 276240, Note Name: E3, Velocity: 54
Note OFF: Time 276330, Note Name: E3
Note OFF: Time 276330, Note Name: G2
Note ON: Time 276480, Note Name: F2, Velocity: 50
Note ON: Time 276480, Note Name: F3, Velocity: 50
Note OFF: Time 276720, Note Name: F3
Note ON: Time 276720, Note Name: C3, Velocity: 42
Note OFF: Time 276960, Note Name: C3
Note ON: Time 276960, Note Name: F3, Velocity: 52
Note OFF: Time 277200, Note Name: F3
Note OFF: Time 277200, Note Name: F2
Note ON: Time 277200, Note Name: D#3, Velocity: 42
Note ON: Time 277200, Note Name: F#2, Velocity: 42
Note OFF: Time 277440, Note Name: F#2
Note OFF: Time 277440, Note Name: D#3
Note ON: Time 277440, Note Name: D3, Velocity: 56
Note ON: Time 277440, Note Name: G2, Velocity: 51
Note OFF: Time 277530, Note Name: D3
Note ON: Time 277680, Note Name: D3, Velocity: 54
Note OFF: Time 277920, Note Name: D3
Note ON: Time 277920, Note Name: G3, Velocity: 59
Note OFF: Time 278160, Note Name: G3
Note OFF: Time 278160, Note Name: G2
Note ON: Time 278160, Note Name: G2, Velocity: 47
Note ON: Time 278160, Note Name: F3, Velocity: 56
Note OFF: Time 278400, Note Name: F3
Note OFF: Time 278400, Note Name: G2
Note ON: Time 278400, Note Name: G#2, Velocity: 46
Note ON: Time 278400, Note Name: D#3, Velocity: 55
Note OFF: Time 278640, Note Name: D#3
Note ON: Time 278640, Note Name: G#3, Velocity: 58
Note OFF: Time 278760, Note Name: G#3
Note ON: Time 278760, Note Name: G3, Velocity: 50
Note OFF: Time 278880, Note Name: G3
Note ON: Time 278880, Note Name: F3, Velocity: 59
Note OFF: Time 279000, Note Name: F3
Note OFF: Time 279120, Note Name: G#2
Note ON: Time 279120, Note Name: F3, Velocity: 61
Note ON: Time 279120, Note Name: A2, Velocity: 41
Note OFF: Time 279240, Note Name: F3
Note ON: Time 279240, Note Name: D#3, Velocity: 53
Note OFF: Time 279360, Note Name: D#3
Note OFF: Time 279360, Note Name: A2
Note ON: Time 279360, Note Name: D3, Velocity: 67
Note ON: Time 279360, Note Name: A#2, Velocity: 51
Note OFF: Time 279450, Note Name: A#2
Note OFF: Time 279450, Note Name: D3
Note ON: Time 279600, Note Name: B2, Velocity: 53
Note ON: Time 279600, Note Name: A#3, Velocity: 52
Note OFF: Time 279690, Note Name: A#3
Note ON: Time 279720, Note Name: G#3, Velocity: 47
Note OFF: Time 279810, Note Name: G#3
Note OFF: Time 279840, Note Name: B2
Note ON: Time 279840, Note Name: G3, Velocity: 60
Note ON: Time 279840, Note Name: C3, Velocity: 59
Note OFF: Time 279960, Note Name: C3
Note OFF: Time 279960, Note Name: G3
Note ON: Time 280080, Note Name: F3, Velocity: 66
Note ON: Time 280080, Note Name: D3, Velocity: 56
Note OFF: Time 280320, Note Name: D3
Note OFF: Time 280320, Note Name: F3
Note ON: Time 280320, Note Name: D#3, Velocity: 66
Note ON: Time 280320, Note Name: C3, Velocity: 47
Note OFF: Time 280560, Note Name: C3
Note OFF: Time 280560, Note Name: D#3
Note ON: Time 281160, Note Name: D#3, Velocity: 61
Note ON: Time 281160, Note Name: C3, Velocity: 51
Note OFF: Time 281250, Note Name: C3
Note OFF: Time 281280, Note Name: D#3
Note ON: Time 281280, Note Name: G#3, Velocity: 67
Note ON: Time 281280, Note Name: F3, Velocity: 56
Note OFF: Time 281637, Note Name: F3
Note OFF: Time 281637, Note Name: G#3
Note ON: Time 281640, Note Name: F3, Velocity: 51
Note ON: Time 281640, Note Name: G#3, Velocity: 61
Note OFF: Time 281759, Note Name: G#3
Note OFF: Time 281759, Note Name: F3
Note ON: Time 281760, Note Name: F3, Velocity: 54
Note ON: Time 281760, Note Name: G#3, Velocity: 64
Note OFF: Time 282000, Note Name: G#3
Note OFF: Time 282000, Note Name: F3
Note ON: Time 282000, Note Name: G3, Velocity: 56
Note ON: Time 282000, Note Name: A#3, Velocity: 67
Note OFF: Time 282090, Note Name: A#3
Note OFF: Time 282090, Note Name: G3
Note ON: Time 282120, Note Name: F3, Velocity: 48
Note ON: Time 282120, Note Name: G#3, Velocity: 57
Note OFF: Time 282210, Note Name: G#3
Note OFF: Time 282210, Note Name: F3
Note ON: Time 282240, Note Name: G#3, Velocity: 67
Note ON: Time 282240, Note Name: F3, Velocity: 56
Note OFF: Time 282330, Note Name: F3
Note OFF: Time 282330, Note Name: G#3
Note ON: Time 282480, Note Name: F3, Velocity: 58
Note ON: Time 282480, Note Name: C#3, Velocity: 49
Note OFF: Time 282570, Note Name: C#3
Note OFF: Time 282570, Note Name: F3
Note ON: Time 282720, Note Name: C#3, Velocity: 49
Note ON: Time 282720, Note Name: F3, Velocity: 58
Note OFF: Time 283200, Note Name: F3
Note OFF: Time 283200, Note Name: C#3
Note ON: Time 283200, Note Name: C#4, Velocity: 67
Note ON: Time 283200, Note Name: A#3, Velocity: 56
Note OFF: Time 283290, Note Name: A#3
Note OFF: Time 283290, Note Name: C#4
Note ON: Time 283440, Note Name: C#4, Velocity: 67
Note ON: Time 283440, Note Name: A#3, Velocity: 56
Note OFF: Time 283530, Note Name: A#3
Note OFF: Time 283530, Note Name: C#4
Note ON: Time 283560, Note Name: C4, Velocity: 63
Note ON: Time 283560, Note Name: G#3, Velocity: 53
Note OFF: Time 283650, Note Name: G#3
Note OFF: Time 283650, Note Name: C4
Note ON: Time 283680, Note Name: G3, Velocity: 56
Note ON: Time 283680, Note Name: A#3, Velocity: 67
Note OFF: Time 283800, Note Name: A#3
Note OFF: Time 283800, Note Name: G3
Note ON: Time 283920, Note Name: A#3, Velocity: 67
Note ON: Time 283920, Note Name: G3, Velocity: 56
Note OFF: Time 284010, Note Name: G3
Note OFF: Time 284010, Note Name: A#3
Note ON: Time 284040, Note Name: G#3, Velocity: 63
Note ON: Time 284040, Note Name: F3, Velocity: 53
Note OFF: Time 284130, Note Name: F3
Note OFF: Time 284130, Note Name: G#3
Note ON: Time 284160, Note Name: G3, Velocity: 67
Note ON: Time 284160, Note Name: E3, Velocity: 56
Note OFF: Time 284400, Note Name: E3
Note OFF: Time 284400, Note Name: G3
Note ON: Time 284640, Note Name: G3, Velocity: 58
Note ON: Time 284640, Note Name: E3, Velocity: 49
Note OFF: Time 285120, Note Name: E3
Note OFF: Time 285120, Note Name: G3
Note ON: Time 285120, Note Name: C4, Velocity: 56
Note ON: Time 285120, Note Name: E4, Velocity: 67
Note OFF: Time 285210, Note Name: E4
Note OFF: Time 285210, Note Name: C4
Note ON: Time 285360, Note Name: C4, Velocity: 56
Note ON: Time 285360, Note Name: D#4, Velocity: 67
Note OFF: Time 285450, Note Name: D#4
Note OFF: Time 285450, Note Name: C4
Note ON: Time 285480, Note Name: C#4, Velocity: 63
Note ON: Time 285480, Note Name: A#3, Velocity: 53
Note OFF: Time 285570, Note Name: A#3
Note OFF: Time 285570, Note Name: C#4
Note ON: Time 285600, Note Name: C4, Velocity: 67
Note ON: Time 285600, Note Name: G#3, Velocity: 56
Note OFF: Time 285720, Note Name: G#3
Note OFF: Time 285720, Note Name: C4
Note ON: Time 285840, Note Name: G#3, Velocity: 56
Note ON: Time 285840, Note Name: C4, Velocity: 67
Note OFF: Time 285930, Note Name: C4
Note OFF: Time 285930, Note Name: G#3
Note ON: Time 285960, Note Name: G3, Velocity: 53
Note ON: Time 285960, Note Name: A#3, Velocity: 63
Note OFF: Time 286050, Note Name: A#3
Note OFF: Time 286050, Note Name: G3
Note ON: Time 286080, Note Name: G#3, Velocity: 67
Note ON: Time 286080, Note Name: F3, Velocity: 56
Note OFF: Time 286170, Note Name: F3
Note OFF: Time 286170, Note Name: G#3
Note ON: Time 286320, Note Name: D3, Velocity: 56
Note ON: Time 286320, Note Name: F3, Velocity: 67
Note OFF: Time 286410, Note Name: F3
Note OFF: Time 286410, Note Name: D3
Note ON: Time 286440, Note Name: D#3, Velocity: 53
Note ON: Time 286440, Note Name: G3, Velocity: 63
Note OFF: Time 286530, Note Name: G3
Note OFF: Time 286530, Note Name: D#3
Note ON: Time 286560, Note Name: G#3, Velocity: 67
Note ON: Time 286560, Note Name: F3, Velocity: 56
Note OFF: Time 286680, Note Name: F3
Note OFF: Time 286680, Note Name: G#3
Note ON: Time 286800, Note Name: C3, Velocity: 56
Note ON: Time 286800, Note Name: D#3, Velocity: 67
Note OFF: Time 286890, Note Name: D#3
Note OFF: Time 286890, Note Name: C3
Note ON: Time 286920, Note Name: D3, Velocity: 53
Note ON: Time 286920, Note Name: F3, Velocity: 63
Note OFF: Time 287010, Note Name: F3
Note OFF: Time 287010, Note Name: D3
Note ON: Time 287040, Note Name: G3, Velocity: 67
Note ON: Time 287040, Note Name: D#3, Velocity: 56
Note OFF: Time 287130, Note Name: D#3
Note OFF: Time 287130, Note Name: G3
Note ON: Time 287280, Note Name: B2, Velocity: 56
Note ON: Time 287280, Note Name: D3, Velocity: 67
Note OFF: Time 287370, Note Name: D3
Note OFF: Time 287370, Note Name: B2
Note ON: Time 287400, Note Name: D#3, Velocity: 63
Note ON: Time 287400, Note Name: C3, Velocity: 53
Note OFF: Time 287490, Note Name: C3
Note OFF: Time 287490, Note Name: D#3
Note ON: Time 287520, Note Name: D3, Velocity: 56
Note ON: Time 287520, Note Name: F3, Velocity: 67
Note OFF: Time 287640, Note Name: F3
Note OFF: Time 287640, Note Name: D3
Note ON: Time 287760, Note Name: C3, Velocity: 67
Note ON: Time 287760, Note Name: A2, Velocity: 56
Note OFF: Time 287850, Note Name: A2
Note OFF: Time 287850, Note Name: C3
Note ON: Time 287880, Note Name: B2, Velocity: 53
Note ON: Time 287880, Note Name: D3, Velocity: 63
Note OFF: Time 287970, Note Name: D3
Note OFF: Time 287970, Note Name: B2
Note ON: Time 288000, Note Name: D#3, Velocity: 67
Note ON: Time 288000, Note Name: C3, Velocity: 56
Note OFF: Time 288090, Note Name: C3
Note OFF: Time 288090, Note Name: D#3
Note ON: Time 288240, Note Name: C#4, Velocity: 56
Note ON: Time 288240, Note Name: F4, Velocity: 67
Note OFF: Time 288330, Note Name: F4
Note OFF: Time 288330, Note Name: C#4
Note ON: Time 288360, Note Name: D#4, Velocity: 63
Note ON: Time 288360, Note Name: C4, Velocity: 53
Note OFF: Time 288450, Note Name: C4
Note OFF: Time 288450, Note Name: D#4
Note ON: Time 288480, Note Name: C#4, Velocity: 68
Note ON: Time 288480, Note Name: A#3, Velocity: 57
Note OFF: Time 288600, Note Name: A#3
Note OFF: Time 288600, Note Name: C#4
Note ON: Time 288720, Note Name: C4, Velocity: 57
Note ON: Time 288720, Note Name: D#4, Velocity: 69
Note OFF: Time 288810, Note Name: D#4
Note OFF: Time 288810, Note Name: C4
Note ON: Time 288840, Note Name: C#4, Velocity: 65
Note ON: Time 288840, Note Name: A#3, Velocity: 55
Note OFF: Time 288930, Note Name: A#3
Note OFF: Time 288930, Note Name: C#4
Note ON: Time 288960, Note Name: C4, Velocity: 70
Note ON: Time 288960, Note Name: G#3, Velocity: 58
Note OFF: Time 289050, Note Name: G#3
Note OFF: Time 289050, Note Name: C4
Note ON: Time 289200, Note Name: G#3, Velocity: 59
Note ON: Time 289200, Note Name: C4, Velocity: 71
Note OFF: Time 289290, Note Name: C4
Note OFF: Time 289290, Note Name: G#3
Note ON: Time 289440, Note Name: G3, Velocity: 59
Note ON: Time 289440, Note Name: D4, Velocity: 71
Note OFF: Time 289680, Note Name: D4
Note OFF: Time 289680, Note Name: G3
Note ON: Time 290280, Note Name: G4, Velocity: 64
Note ON: Time 290280, Note Name: B4, Velocity: 76
Note OFF: Time 290399, Note Name: B4
Note OFF: Time 290399, Note Name: G4
Note ON: Time 290400, Note Name: G4, Velocity: 71
Note ON: Time 290400, Note Name: B4, Velocity: 84
Note OFF: Time 290760, Note Name: B4
Note OFF: Time 290760, Note Name: G4
Note ON: Time 290760, Note Name: B3, Velocity: 68
Note ON: Time 290760, Note Name: G3, Velocity: 57
Note OFF: Time 290879, Note Name: G3
Note OFF: Time 290879, Note Name: B3
Note ON: Time 290880, Note Name: G3, Velocity: 63
Note ON: Time 290880, Note Name: B3, Velocity: 75
Note OFF: Time 291240, Note Name: B3
Note OFF: Time 291240, Note Name: G3
Note ON: Time 291240, Note Name: G2, Velocity: 51
Note ON: Time 291240, Note Name: B2, Velocity: 60
Note OFF: Time 291359, Note Name: B2
Note OFF: Time 291359, Note Name: G2
Note ON: Time 291360, Note Name: G2, Velocity: 56
Note ON: Time 291360, Note Name: B2, Velocity: 67
Note OFF: Time 291600, Note Name: B2
Note OFF: Time 291600, Note Name: G2
Note ON: Time 292080, Note Name: D#6, Velocity: 53
Note OFF: Time 292200, Note Name: D#6
Note ON: Time 292200, Note Name: D6, Velocity: 47
Note OFF: Time 292320, Note Name: D6
Note ON: Time 292560, Note Name: D#5, Velocity: 53
Note OFF: Time 292680, Note Name: D#5
Note ON: Time 292680, Note Name: D5, Velocity: 47
Note OFF: Time 292800, Note Name: D5
Note ON: Time 293040, Note Name: D#4, Velocity: 53
Note OFF: Time 293160, Note Name: D#4
Note ON: Time 293160, Note Name: D4, Velocity: 47
Note OFF: Time 293280, Note Name: D4
Note ON: Time 293520, Note Name: D#5, Velocity: 53
Note OFF: Time 293640, Note Name: D#5
Note ON: Time 293640, Note Name: D5, Velocity: 47
Note OFF: Time 293760, Note Name: D5
Note ON: Time 293760, Note Name: C4, Velocity: 75
Note OFF: Time 294120, Note Name: C4
Note ON: Time 294120, Note Name: D#5, Velocity: 76
Note ON: Time 294120, Note Name: C5, Velocity: 64
Note OFF: Time 294239, Note Name: C5
Note OFF: Time 294239, Note Name: D#5
Note ON: Time 294240, Note Name: C5, Velocity: 71
Note ON: Time 294240, Note Name: D#5, Velocity: 84
Note OFF: Time 294600, Note Name: D#5
Note OFF: Time 294600, Note Name: C5
Note ON: Time 294600, Note Name: C4, Velocity: 57
Note ON: Time 294600, Note Name: D#4, Velocity: 68
Note OFF: Time 294719, Note Name: D#4
Note OFF: Time 294719, Note Name: C4
Note ON: Time 294720, Note Name: C4, Velocity: 63
Note ON: Time 294720, Note Name: D#4, Velocity: 75
Note OFF: Time 295080, Note Name: D#4
Note OFF: Time 295080, Note Name: C4
Note ON: Time 295080, Note Name: C3, Velocity: 51
Note ON: Time 295080, Note Name: D#3, Velocity: 60
Note OFF: Time 295199, Note Name: D#3
Note OFF: Time 295199, Note Name: C3
Note ON: Time 295200, Note Name: D#3, Velocity: 67
Note ON: Time 295200, Note Name: C3, Velocity: 56
Note OFF: Time 295440, Note Name: C3
Note OFF: Time 295440, Note Name: D#3
Note ON: Time 295920, Note Name: F6, Velocity: 53
Note OFF: Time 296040, Note Name: F6
Note ON: Time 296040, Note Name: D#6, Velocity: 47
Note OFF: Time 296160, Note Name: D#6
Note ON: Time 296400, Note Name: F5, Velocity: 53
Note OFF: Time 296520, Note Name: F5
Note ON: Time 296520, Note Name: D#5, Velocity: 47
Note OFF: Time 296640, Note Name: D#5
Note ON: Time 296880, Note Name: F4, Velocity: 53
Note OFF: Time 297000, Note Name: F4
Note ON: Time 297000, Note Name: D#4, Velocity: 47
Note OFF: Time 297120, Note Name: D#4
Note ON: Time 297360, Note Name: F5, Velocity: 53
Note OFF: Time 297480, Note Name: F5
Note ON: Time 297480, Note Name: D#5, Velocity: 47
Note OFF: Time 297600, Note Name: D#5
Note ON: Time 297600, Note Name: A#3, Velocity: 75
Note OFF: Time 297960, Note Name: A#3
Note ON: Time 297960, Note Name: D5, Velocity: 76
Note ON: Time 297960, Note Name: A#4, Velocity: 64
Note OFF: Time 298079, Note Name: A#4
Note OFF: Time 298079, Note Name: D5
Note ON: Time 298080, Note Name: D5, Velocity: 84
Note ON: Time 298080, Note Name: A#4, Velocity: 71
Note OFF: Time 298440, Note Name: A#4
Note OFF: Time 298440, Note Name: D5
Note ON: Time 298440, Note Name: D4, Velocity: 68
Note ON: Time 298440, Note Name: A#3, Velocity: 57
Note OFF: Time 298559, Note Name: A#3
Note OFF: Time 298559, Note Name: D4
Note ON: Time 298560, Note Name: A#3, Velocity: 63
Note ON: Time 298560, Note Name: D4, Velocity: 75
Note OFF: Time 298920, Note Name: D4
Note OFF: Time 298920, Note Name: A#3
Note ON: Time 298920, Note Name: A#2, Velocity: 51
Note ON: Time 298920, Note Name: D3, Velocity: 60
Note OFF: Time 299039, Note Name: D3
Note OFF: Time 299039, Note Name: A#2
Note ON: Time 299040, Note Name: A#2, Velocity: 56
Note ON: Time 299040, Note Name: D3, Velocity: 67
Note OFF: Time 299280, Note Name: D3
Note OFF: Time 299280, Note Name: A#2
Note ON: Time 299760, Note Name: G6, Velocity: 60
Note OFF: Time 299880, Note Name: G6
Note ON: Time 299880, Note Name: F6, Velocity: 54
Note OFF: Time 300000, Note Name: F6
Note ON: Time 300240, Note Name: G5, Velocity: 66
Note OFF: Time 300360, Note Name: G5
Note ON: Time 300360, Note Name: F5, Velocity: 59
Note OFF: Time 300480, Note Name: F5
Note ON: Time 300720, Note Name: G4, Velocity: 71
Note OFF: Time 300840, Note Name: G4
Note ON: Time 300840, Note Name: F4, Velocity: 64
Note OFF: Time 300960, Note Name: F4
Note ON: Time 301200, Note Name: G5, Velocity: 76
Note OFF: Time 301320, Note Name: G5
Note ON: Time 301320, Note Name: F5, Velocity: 69
Note OFF: Time 301440, Note Name: F5
Note ON: Time 301440, Note Name: D#4, Velocity: 75
Note ON: Time 301440, Note Name: D#5, Velocity: 75
Note OFF: Time 301800, Note Name: D#5
Note OFF: Time 301800, Note Name: D#4
Note ON: Time 301800, Note Name: G5, Velocity: 76
Note ON: Time 301800, Note Name: D#5, Velocity: 64
Note OFF: Time 301919, Note Name: D#5
Note OFF: Time 301919, Note Name: G5
Note ON: Time 301920, Note Name: D#5, Velocity: 71
Note ON: Time 301920, Note Name: G5, Velocity: 84
Note OFF: Time 302280, Note Name: G5
Note OFF: Time 302280, Note Name: D#5
Note ON: Time 302280, Note Name: G4, Velocity: 68
Note ON: Time 302280, Note Name: D#4, Velocity: 57
Note OFF: Time 302399, Note Name: D#4
Note OFF: Time 302399, Note Name: G4
Note ON: Time 302400, Note Name: D#4, Velocity: 63
Note ON: Time 302400, Note Name: G4, Velocity: 75
Note OFF: Time 302760, Note Name: G4
Note OFF: Time 302760, Note Name: D#4
Note ON: Time 302760, Note Name: D#3, Velocity: 58
Note ON: Time 302760, Note Name: D#4, Velocity: 69
Note OFF: Time 302879, Note Name: D#4
Note OFF: Time 302879, Note Name: D#3
Note ON: Time 302880, Note Name: D#4, Velocity: 77
Note ON: Time 302880, Note Name: D#3, Velocity: 64
Note OFF: Time 303120, Note Name: D#3
Note OFF: Time 303120, Note Name: D#4
Note ON: Time 303720, Note Name: D5, Velocity: 79
Note ON: Time 303720, Note Name: D4, Velocity: 67
Note OFF: Time 303839, Note Name: D4
Note OFF: Time 303839, Note Name: D5
Note ON: Time 303840, Note Name: D5, Velocity: 88
Note ON: Time 303840, Note Name: D4, Velocity: 74
Note OFF: Time 304200, Note Name: D4
Note OFF: Time 304200, Note Name: D5
Note ON: Time 304200, Note Name: D3, Velocity: 59
Note ON: Time 304200, Note Name: D4, Velocity: 71
Note OFF: Time 304319, Note Name: D4
Note OFF: Time 304319, Note Name: D3
Note ON: Time 304320, Note Name: D4, Velocity: 78
Note ON: Time 304320, Note Name: D3, Velocity: 66
Note OFF: Time 304680, Note Name: D3
Note OFF: Time 304680, Note Name: D4
Note ON: Time 304680, Note Name: D3, Velocity: 72
Note ON: Time 304680, Note Name: D2, Velocity: 60
Note OFF: Time 304799, Note Name: D2
Note OFF: Time 304799, Note Name: D3
Note ON: Time 304800, Note Name: D3, Velocity: 80
Note ON: Time 304800, Note Name: D2, Velocity: 67
Note OFF: Time 305040, Note Name: D2
Note OFF: Time 305040, Note Name: D3
Note ON: Time 305640, Note Name: D4, Velocity: 59
Note ON: Time 305640, Note Name: F4, Velocity: 59
Note ON: Time 305640, Note Name: G#4, Velocity: 59
Note ON: Time 305640, Note Name: D5, Velocity: 71
Note ON: Time 305640, Note Name: B4, Velocity: 59
Note OFF: Time 305759, Note Name: B4
Note OFF: Time 305759, Note Name: G#4
Note OFF: Time 305759, Note Name: D4
Note OFF: Time 305759, Note Name: F4
Note OFF: Time 305759, Note Name: D5
Note ON: Time 305760, Note Name: G#4, Velocity: 66
Note ON: Time 305760, Note Name: B4, Velocity: 66
Note ON: Time 305760, Note Name: D4, Velocity: 66
Note ON: Time 305760, Note Name: D5, Velocity: 78
Note ON: Time 305760, Note Name: F4, Velocity: 66
Note OFF: Time 306120, Note Name: F4
Note OFF: Time 306120, Note Name: D4
Note OFF: Time 306120, Note Name: G#4
Note OFF: Time 306120, Note Name: B4
Note OFF: Time 306120, Note Name: D5
Note ON: Time 306120, Note Name: G#3, Velocity: 53
Note ON: Time 306120, Note Name: F3, Velocity: 53
Note ON: Time 306120, Note Name: D3, Velocity: 53
Note ON: Time 306120, Note Name: B3, Velocity: 53
Note ON: Time 306120, Note Name: D4, Velocity: 64
Note OFF: Time 306239, Note Name: D4
Note OFF: Time 306239, Note Name: D3
Note OFF: Time 306239, Note Name: G#3
Note OFF: Time 306239, Note Name: F3
Note OFF: Time 306239, Note Name: B3
Note ON: Time 306240, Note Name: D4, Velocity: 78
Note ON: Time 306240, Note Name: D3, Velocity: 66
Note ON: Time 306240, Note Name: B3, Velocity: 66
Note ON: Time 306240, Note Name: G#3, Velocity: 66
Note ON: Time 306240, Note Name: F3, Velocity: 66
Note OFF: Time 306600, Note Name: F3
Note OFF: Time 306600, Note Name: B3
Note OFF: Time 306600, Note Name: D4
Note OFF: Time 306600, Note Name: D3
Note OFF: Time 306600, Note Name: G#3
Note ON: Time 306600, Note Name: G#2, Velocity: 53
Note ON: Time 306600, Note Name: D2, Velocity: 53
Note ON: Time 306600, Note Name: F2, Velocity: 53
Note ON: Time 306600, Note Name: B2, Velocity: 53
Note ON: Time 306600, Note Name: D3, Velocity: 64
Note OFF: Time 306719, Note Name: D3
Note OFF: Time 306719, Note Name: F2
Note OFF: Time 306719, Note Name: G#2
Note OFF: Time 306719, Note Name: D2
Note OFF: Time 306719, Note Name: B2
Note ON: Time 306720, Note Name: B2, Velocity: 66
Note ON: Time 306720, Note Name: D3, Velocity: 78
Note ON: Time 306720, Note Name: D2, Velocity: 66
Note ON: Time 306720, Note Name: F2, Velocity: 66
Note ON: Time 306720, Note Name: G#2, Velocity: 66
Note OFF: Time 307080, Note Name: G#2
Note OFF: Time 307080, Note Name: D2
Note OFF: Time 307080, Note Name: B2
Note OFF: Time 307080, Note Name: D3
Note OFF: Time 307080, Note Name: F2
Note ON: Time 307560, Note Name: G4, Velocity: 59
Note ON: Time 307560, Note Name: D4, Velocity: 59
Note ON: Time 307560, Note Name: A#4, Velocity: 59
Note ON: Time 307560, Note Name: E5, Velocity: 71
Note OFF: Time 307679, Note Name: E5
Note OFF: Time 307679, Note Name: G4
Note OFF: Time 307679, Note Name: D4
Note OFF: Time 307679, Note Name: A#4
Note ON: Time 307680, Note Name: E5, Velocity: 78
Note ON: Time 307680, Note Name: D4, Velocity: 66
Note ON: Time 307680, Note Name: A#4, Velocity: 66
Note ON: Time 307680, Note Name: G4, Velocity: 66
Note OFF: Time 308040, Note Name: G4
Note OFF: Time 308040, Note Name: E5
Note OFF: Time 308040, Note Name: D4
Note OFF: Time 308040, Note Name: A#4
Note ON: Time 308040, Note Name: A#3, Velocity: 53
Note ON: Time 308040, Note Name: D3, Velocity: 53
Note ON: Time 308040, Note Name: E4, Velocity: 64
Note ON: Time 308040, Note Name: G3, Velocity: 53
Note OFF: Time 308159, Note Name: G3
Note OFF: Time 308159, Note Name: A#3
Note OFF: Time 308159, Note Name: D3
Note OFF: Time 308159, Note Name: E4
Note ON: Time 308160, Note Name: A#3, Velocity: 66
Note ON: Time 308160, Note Name: D3, Velocity: 66
Note ON: Time 308160, Note Name: E4, Velocity: 78
Note ON: Time 308160, Note Name: G3, Velocity: 66
Note OFF: Time 308520, Note Name: G3
Note OFF: Time 308520, Note Name: A#3
Note OFF: Time 308520, Note Name: D3
Note OFF: Time 308520, Note Name: E4
Note ON: Time 308520, Note Name: A#2, Velocity: 53
Note ON: Time 308520, Note Name: G2, Velocity: 53
Note ON: Time 308520, Note Name: E3, Velocity: 64
Note ON: Time 308520, Note Name: D2, Velocity: 53
Note OFF: Time 308639, Note Name: D2
Note OFF: Time 308639, Note Name: A#2
Note OFF: Time 308639, Note Name: G2
Note OFF: Time 308639, Note Name: E3
Note ON: Time 308640, Note Name: G2, Velocity: 66
Note ON: Time 308640, Note Name: D2, Velocity: 66
Note ON: Time 308640, Note Name: E3, Velocity: 78
Note ON: Time 308640, Note Name: A#2, Velocity: 66
Note OFF: Time 309000, Note Name: A#2
Note OFF: Time 309000, Note Name: G2
Note OFF: Time 309000, Note Name: D2
Note OFF: Time 309000, Note Name: E3
Note ON: Time 309480, Note Name: D5, Velocity: 67
Note ON: Time 309480, Note Name: D4, Velocity: 56
Note ON: Time 309480, Note Name: F#4, Velocity: 56
Note ON: Time 309480, Note Name: A4, Velocity: 56
Note OFF: Time 309599, Note Name: A4
Note OFF: Time 309599, Note Name: D5
Note OFF: Time 309599, Note Name: D4
Note OFF: Time 309599, Note Name: F#4
Note ON: Time 309600, Note Name: D5, Velocity: 81
Note ON: Time 309600, Note Name: A4, Velocity: 68
Note ON: Time 309600, Note Name: F#4, Velocity: 68
Note ON: Time 309600, Note Name: D4, Velocity: 68
Note OFF: Time 309957, Note Name: D4
Note OFF: Time 309957, Note Name: D5
Note OFF: Time 309957, Note Name: A4
Note OFF: Time 309957, Note Name: F#4
Note ON: Time 309960, Note Name: D3, Velocity: 52
Note ON: Time 309960, Note Name: D4, Velocity: 62
Note OFF: Time 310079, Note Name: D4
Note OFF: Time 310079, Note Name: D3
Note ON: Time 310080, Note Name: D4, Velocity: 69
Note ON: Time 310080, Note Name: D3, Velocity: 58
Note OFF: Time 310440, Note Name: D3
Note OFF: Time 310440, Note Name: D4
Note ON: Time 310440, Note Name: D3, Velocity: 57
Note ON: Time 310440, Note Name: D2, Velocity: 47
Note OFF: Time 310559, Note Name: D2
Note OFF: Time 310559, Note Name: D3
Note ON: Time 310560, Note Name: D2, Velocity: 54
Note ON: Time 310560, Note Name: D3, Velocity: 64
Note OFF: Time 310920, Note Name: D3
Note OFF: Time 310920, Note Name: D2
Note ON: Time 310920, Note Name: D3, Velocity: 52
Note OFF: Time 311040, Note Name: D3
Note ON: Time 311040, Note Name: D2, Velocity: 59
Note OFF: Time 311400, Note Name: D2
Note ON: Time 311400, Note Name: D4, Velocity: 47
Note OFF: Time 311520, Note Name: D4
Note ON: Time 311520, Note Name: D3, Velocity: 53
Note OFF: Time 311880, Note Name: D3
Note ON: Time 311880, Note Name: D4, Velocity: 42
Note OFF: Time 312000, Note Name: D4
Note ON: Time 312000, Note Name: D3, Velocity: 46
Note OFF: Time 312360, Note Name: D3
Note ON: Time 312360, Note Name: D4, Velocity: 37
Note OFF: Time 312480, Note Name: D4
Note ON: Time 312480, Note Name: D3, Velocity: 42
Note OFF: Time 312840, Note Name: D3
Note ON: Time 312840, Note Name: B4, Velocity: 32
Note OFF: Time 312960, Note Name: B4
Note ON: Time 312960, Note Name: B3, Velocity: 40
Note OFF: Time 313120, Note Name: B3
Note ON: Time 313120, Note Name: B4, Velocity: 32
Note OFF: Time 313280, Note Name: B4
Note ON: Time 313280, Note Name: A#4, Velocity: 32
Note OFF: Time 313440, Note Name: A#4
Note ON: Time 313440, Note Name: B4, Velocity: 40
Note OFF: Time 313600, Note Name: B4
Note ON: Time 313600, Note Name: F#4, Velocity: 33
Note OFF: Time 313760, Note Name: F#4
Note ON: Time 313760, Note Name: B4, Velocity: 33
Note OFF: Time 313920, Note Name: B4
Note ON: Time 313920, Note Name: G4, Velocity: 40
Note OFF: Time 314080, Note Name: G4
Note ON: Time 314080, Note Name: B4, Velocity: 31
Note OFF: Time 314240, Note Name: B4
Note ON: Time 314240, Note Name: G4, Velocity: 31
Note OFF: Time 314400, Note Name: G4
Note ON: Time 314400, Note Name: B4, Velocity: 40
Note OFF: Time 314560, Note Name: B4
Note ON: Time 314560, Note Name: E4, Velocity: 33
Note OFF: Time 314720, Note Name: E4
Note ON: Time 314720, Note Name: B4, Velocity: 33
Note OFF: Time 314880, Note Name: B4
Note ON: Time 314880, Note Name: D#4, Velocity: 40
Note OFF: Time 315040, Note Name: D#4
Note ON: Time 315040, Note Name: B4, Velocity: 31
Note OFF: Time 315200, Note Name: B4
Note ON: Time 315200, Note Name: D#4, Velocity: 31
Note OFF: Time 315360, Note Name: D#4
Note ON: Time 315360, Note Name: B4, Velocity: 40
Note OFF: Time 315520, Note Name: B4
Note ON: Time 315520, Note Name: B3, Velocity: 32
Note OFF: Time 315680, Note Name: B3
Note ON: Time 315680, Note Name: B4, Velocity: 32
Note OFF: Time 315840, Note Name: B4
Note ON: Time 315840, Note Name: B3, Velocity: 40
Note OFF: Time 316000, Note Name: B3
Note ON: Time 316000, Note Name: E4, Velocity: 33
Note OFF: Time 316160, Note Name: E4
Note ON: Time 316160, Note Name: B3, Velocity: 33
Note OFF: Time 316320, Note Name: B3
Note ON: Time 316320, Note Name: G4, Velocity: 40
Note OFF: Time 316480, Note Name: G4
Note ON: Time 316480, Note Name: E4, Velocity: 32
Note OFF: Time 316640, Note Name: E4
Note ON: Time 316640, Note Name: G4, Velocity: 32
Note OFF: Time 316800, Note Name: G4
Note ON: Time 316800, Note Name: F#4, Velocity: 40
Note OFF: Time 316960, Note Name: F#4
Note ON: Time 316960, Note Name: B4, Velocity: 32
Note OFF: Time 317120, Note Name: B4
Note ON: Time 317120, Note Name: F#4, Velocity: 32
Note OFF: Time 317280, Note Name: F#4
Note ON: Time 317280, Note Name: B4, Velocity: 40
Note OFF: Time 317440, Note Name: B4
Note ON: Time 317440, Note Name: F#4, Velocity: 36
Note OFF: Time 317600, Note Name: F#4
Note ON: Time 317600, Note Name: B4, Velocity: 36
Note OFF: Time 317760, Note Name: B4
Note ON: Time 317760, Note Name: F#4, Velocity: 40
Note OFF: Time 317920, Note Name: F#4
Note ON: Time 317920, Note Name: A#4, Velocity: 33
Note OFF: Time 318080, Note Name: A#4
Note ON: Time 318080, Note Name: F#4, Velocity: 33
Note OFF: Time 318240, Note Name: F#4
Note ON: Time 318240, Note Name: A#4, Velocity: 40
Note OFF: Time 318400, Note Name: A#4
Note ON: Time 318400, Note Name: F#4, Velocity: 34
Note OFF: Time 318560, Note Name: F#4
Note ON: Time 318560, Note Name: A#4, Velocity: 34
Note OFF: Time 318720, Note Name: A#4
Note ON: Time 318720, Note Name: F#4, Velocity: 40
Note OFF: Time 318880, Note Name: F#4
Note ON: Time 318880, Note Name: B4, Velocity: 32
Note OFF: Time 319040, Note Name: B4
Note ON: Time 319040, Note Name: F#4, Velocity: 32
Note OFF: Time 319200, Note Name: F#4
Note ON: Time 319200, Note Name: B4, Velocity: 40
Note OFF: Time 319360, Note Name: B4
Note ON: Time 319360, Note Name: F#4, Velocity: 36
Note OFF: Time 319520, Note Name: F#4
Note ON: Time 319520, Note Name: B4, Velocity: 36
Note OFF: Time 319680, Note Name: B4
Note ON: Time 319680, Note Name: A#4, Velocity: 40
Note OFF: Time 319840, Note Name: A#4
Note ON: Time 319840, Note Name: C#5, Velocity: 33
Note OFF: Time 320000, Note Name: C#5
Note ON: Time 320000, Note Name: A#4, Velocity: 33
Note OFF: Time 320160, Note Name: A#4
Note ON: Time 320160, Note Name: C#5, Velocity: 40
Note OFF: Time 320320, Note Name: C#5
Note ON: Time 320320, Note Name: A#4, Velocity: 34
Note OFF: Time 320480, Note Name: A#4
Note ON: Time 320480, Note Name: C#5, Velocity: 34
Note OFF: Time 320640, Note Name: C#5
Note ON: Time 320640, Note Name: F#4, Velocity: 40
Note OFF: Time 320800, Note Name: F#4
Note ON: Time 320800, Note Name: B4, Velocity: 32
Note OFF: Time 320960, Note Name: B4
Note ON: Time 320960, Note Name: F#4, Velocity: 32
Note OFF: Time 321120, Note Name: F#4
Note ON: Time 321120, Note Name: B4, Velocity: 40
Note OFF: Time 321280, Note Name: B4
Note ON: Time 321280, Note Name: F#4, Velocity: 36
Note OFF: Time 321440, Note Name: F#4
Note ON: Time 321440, Note Name: B4, Velocity: 36
Note OFF: Time 321600, Note Name: B4
Note ON: Time 321600, Note Name: F#4, Velocity: 40
Note OFF: Time 321760, Note Name: F#4
Note ON: Time 321760, Note Name: A#4, Velocity: 33
Note OFF: Time 321920, Note Name: A#4
Note ON: Time 321920, Note Name: F#4, Velocity: 33
Note OFF: Time 322080, Note Name: F#4
Note ON: Time 322080, Note Name: A#4, Velocity: 40
Note OFF: Time 322240, Note Name: A#4
Note ON: Time 322240, Note Name: F#4, Velocity: 34
Note OFF: Time 322400, Note Name: F#4
Note ON: Time 322400, Note Name: A#4, Velocity: 34
Note OFF: Time 322560, Note Name: A#4
Note ON: Time 322560, Note Name: F#4, Velocity: 40
Note OFF: Time 322720, Note Name: F#4
Note ON: Time 322720, Note Name: B4, Velocity: 32
Note OFF: Time 322880, Note Name: B4
Note ON: Time 322880, Note Name: F#4, Velocity: 32
Note OFF: Time 323040, Note Name: F#4
Note ON: Time 323040, Note Name: B4, Velocity: 40
Note OFF: Time 323200, Note Name: B4
Note ON: Time 323200, Note Name: F#4, Velocity: 36
Note OFF: Time 323360, Note Name: F#4
Note ON: Time 323360, Note Name: B4, Velocity: 36
Note OFF: Time 323520, Note Name: B4
Note ON: Time 323520, Note Name: A#4, Velocity: 40
Note OFF: Time 323680, Note Name: A#4
Note ON: Time 323680, Note Name: C#5, Velocity: 33
Note OFF: Time 323840, Note Name: C#5
Note ON: Time 323840, Note Name: A#4, Velocity: 33
Note OFF: Time 324000, Note Name: A#4
Note ON: Time 324000, Note Name: C#5, Velocity: 40
Note OFF: Time 324160, Note Name: C#5
Note ON: Time 324360, Note Name: F#1, Velocity: 70
Note OFF: Time 324480, Note Name: F#1
Note ON: Time 324480, Note Name: A#1, Velocity: 68
Note OFF: Time 324838, Note Name: A#1
Note ON: Time 324840, Note Name: A#1, Velocity: 61
Note OFF: Time 324958, Note Name: A#1
Note ON: Time 324960, Note Name: A#1, Velocity: 68
Note OFF: Time 325140, Note Name: A#1
Note ON: Time 325200, Note Name: B1, Velocity: 64
Note OFF: Time 325290, Note Name: B1
Note ON: Time 325320, Note Name: F#3, Velocity: 63
Note ON: Time 325320, Note Name: A#1, Velocity: 61
Note OFF: Time 325410, Note Name: A#1
Note OFF: Time 325410, Note Name: F#3
Note ON: Time 325440, Note Name: A#1, Velocity: 61
Note ON: Time 325440, Note Name: A#3, Velocity: 61
Note OFF: Time 325620, Note Name: A#1
Note ON: Time 325680, Note Name: F#1, Velocity: 61
Note OFF: Time 325798, Note Name: A#3
Note ON: Time 325800, Note Name: A#3, Velocity: 54
Note OFF: Time 325860, Note Name: F#1
Note OFF: Time 325918, Note Name: A#3
Note ON: Time 325920, Note Name: A#3, Velocity: 61
Note OFF: Time 326100, Note Name: A#3
Note ON: Time 326160, Note Name: B3, Velocity: 48
Note OFF: Time 326205, Note Name: B3
Note ON: Time 326280, Note Name: A#3, Velocity: 51
Note OFF: Time 326370, Note Name: A#3
Note ON: Time 326400, Note Name: A#3, Velocity: 51
Note OFF: Time 326520, Note Name: A#3
Note ON: Time 326640, Note Name: F#3, Velocity: 51
Note OFF: Time 326760, Note Name: F#3
Note ON: Time 328200, Note Name: F#1, Velocity: 63
Note OFF: Time 328320, Note Name: F#1
Note ON: Time 328320, Note Name: E2, Velocity: 61
Note OFF: Time 328678, Note Name: E2
Note ON: Time 328680, Note Name: F#2, Velocity: 63
Note ON: Time 328680, Note Name: E2, Velocity: 54
Note OFF: Time 328798, Note Name: E2
Note OFF: Time 328800, Note Name: F#2
Note ON: Time 328800, Note Name: E3, Velocity: 61
Note ON: Time 328800, Note Name: E2, Velocity: 61
Note OFF: Time 328980, Note Name: E2
Note OFF: Time 329160, Note Name: E3
Note ON: Time 329160, Note Name: E3, Velocity: 54
Note OFF: Time 329280, Note Name: E3
Note ON: Time 329280, Note Name: E3, Velocity: 61
Note OFF: Time 329460, Note Name: E3
Note ON: Time 330120, Note Name: C#2, Velocity: 63
Note OFF: Time 330240, Note Name: C#2
Note ON: Time 330240, Note Name: A#2, Velocity: 61
Note OFF: Time 330598, Note Name: A#2
Note ON: Time 330600, Note Name: C#3, Velocity: 63
Note ON: Time 330600, Note Name: A#2, Velocity: 54
Note OFF: Time 330718, Note Name: A#2
Note OFF: Time 330720, Note Name: C#3
Note ON: Time 330720, Note Name: A#3, Velocity: 61
Note ON: Time 330720, Note Name: A#2, Velocity: 61
Note OFF: Time 330900, Note Name: A#2
Note OFF: Time 331080, Note Name: A#3
Note ON: Time 331080, Note Name: A#3, Velocity: 54
Note OFF: Time 331198, Note Name: A#3
Note ON: Time 331200, Note Name: A#3, Velocity: 61
Note OFF: Time 331380, Note Name: A#3
Note ON: Time 332040, Note Name: E2, Velocity: 63
Note OFF: Time 332130, Note Name: E2
Note ON: Time 332160, Note Name: C#3, Velocity: 72
Note OFF: Time 333000, Note Name: C#3
Note ON: Time 333000, Note Name: G2, Velocity: 66
Note OFF: Time 333090, Note Name: G2
Note ON: Time 333120, Note Name: E3, Velocity: 75
Note OFF: Time 333960, Note Name: E3
Note ON: Time 333960, Note Name: G2, Velocity: 69
Note OFF: Time 334050, Note Name: G2
Note ON: Time 334080, Note Name: E3, Velocity: 77
Note OFF: Time 334440, Note Name: E3
Note ON: Time 334440, Note Name: G4, Velocity: 71
Note OFF: Time 334530, Note Name: G4
Note ON: Time 334560, Note Name: E5, Velocity: 77
Note OFF: Time 334920, Note Name: E5
Note ON: Time 334920, Note Name: G#2, Velocity: 73
Note OFF: Time 335010, Note Name: G#2
Note ON: Time 335040, Note Name: E3, Velocity: 71
Note OFF: Time 335400, Note Name: E3
Note ON: Time 335400, Note Name: G#4, Velocity: 74
Note OFF: Time 335490, Note Name: G#4
Note ON: Time 335520, Note Name: E5, Velocity: 79
Note OFF: Time 335880, Note Name: E5
Note ON: Time 335880, Note Name: A2, Velocity: 76
Note OFF: Time 335970, Note Name: A2
Note ON: Time 336000, Note Name: E3, Velocity: 75
Note OFF: Time 336360, Note Name: E3
Note ON: Time 336360, Note Name: A4, Velocity: 78
Note OFF: Time 336450, Note Name: A4
Note ON: Time 336480, Note Name: E5, Velocity: 86
Note OFF: Time 336840, Note Name: E5
Note ON: Time 336840, Note Name: A2, Velocity: 83
Note OFF: Time 336930, Note Name: A2
Note ON: Time 336960, Note Name: F3, Velocity: 93
Note OFF: Time 337320, Note Name: F3
Note ON: Time 337320, Note Name: A4, Velocity: 86
Note OFF: Time 337410, Note Name: A4
Note ON: Time 337440, Note Name: F5, Velocity: 97
Note OFF: Time 337800, Note Name: F5
Note ON: Time 337800, Note Name: A#2, Velocity: 100
Note ON: Time 337800, Note Name: A#1, Velocity: 88
Note OFF: Time 337920, Note Name: A#1
Note OFF: Time 337920, Note Name: A#2
Note ON: Time 337920, Note Name: A#2, Velocity: 110
Note ON: Time 337920, Note Name: A#3, Velocity: 110
Note OFF: Time 338160, Note Name: A#3
Note OFF: Time 338160, Note Name: A#2
Note ON: Time 338160, Note Name: C4, Velocity: 97
Note OFF: Time 338280, Note Name: C4
Note ON: Time 338280, Note Name: A#3, Velocity: 88
Note OFF: Time 338400, Note Name: A#3
Note ON: Time 338400, Note Name: F3, Velocity: 97
Note OFF: Time 338640, Note Name: F3
Note ON: Time 338640, Note Name: G3, Velocity: 97
Note OFF: Time 338760, Note Name: G3
Note ON: Time 338760, Note Name: F3, Velocity: 90
Note OFF: Time 338880, Note Name: F3
Note ON: Time 338880, Note Name: D3, Velocity: 97
Note OFF: Time 339120, Note Name: D3
Note ON: Time 339120, Note Name: D#3, Velocity: 97
Note OFF: Time 339240, Note Name: D#3
Note ON: Time 339240, Note Name: D3, Velocity: 91
Note OFF: Time 339360, Note Name: D3
Note ON: Time 339360, Note Name: A#2, Velocity: 97
Note OFF: Time 339600, Note Name: A#2
Note ON: Time 339600, Note Name: C3, Velocity: 97
Note OFF: Time 339720, Note Name: C3
Note ON: Time 339720, Note Name: A#2, Velocity: 97
Note OFF: Time 339780, Note Name: A#2
Note ON: Time 339780, Note Name: D2, Velocity: 88
Note OFF: Time 339810, Note Name: D2
Note ON: Time 339810, Note Name: D3, Velocity: 89
Note OFF: Time 339840, Note Name: D3
Note ON: Time 339840, Note Name: D4, Velocity: 110
Note OFF: Time 340080, Note Name: D4
Note ON: Time 340080, Note Name: D#4, Velocity: 97
Note OFF: Time 340200, Note Name: D#4
Note ON: Time 340200, Note Name: D4, Velocity: 88
Note OFF: Time 340320, Note Name: D4
Note ON: Time 340320, Note Name: A#3, Velocity: 97
Note OFF: Time 340560, Note Name: A#3
Note ON: Time 340560, Note Name: D4, Velocity: 97
Note OFF: Time 340680, Note Name: D4
Note ON: Time 340680, Note Name: A#3, Velocity: 90
Note OFF: Time 340800, Note Name: A#3
Note ON: Time 340800, Note Name: F3, Velocity: 97
Note OFF: Time 341040, Note Name: F3
Note ON: Time 341040, Note Name: A#3, Velocity: 93
Note OFF: Time 341160, Note Name: A#3
Note ON: Time 341160, Note Name: F3, Velocity: 88
Note OFF: Time 341280, Note Name: F3
Note ON: Time 341280, Note Name: D3, Velocity: 78
Note OFF: Time 341400, Note Name: D3
Note ON: Time 341400, Note Name: A#2, Velocity: 73
Note OFF: Time 341520, Note Name: A#2
Note ON: Time 341520, Note Name: D#3, Velocity: 40
Note OFF: Time 341640, Note Name: D#3
Note ON: Time 341640, Note Name: C3, Velocity: 35
Note OFF: Time 341760, Note Name: C3
Note ON: Time 341760, Note Name: A#2, Velocity: 29
Note OFF: Time 342000, Note Name: A#2
Note ON: Time 342000, Note Name: C3, Velocity: 34
Note OFF: Time 342120, Note Name: C3
Note ON: Time 342120, Note Name: A#2, Velocity: 31
Note OFF: Time 342240, Note Name: A#2
Note ON: Time 342240, Note Name: F2, Velocity: 30
Note ON: Time 342240, Note Name: F3, Velocity: 36
Note OFF: Time 342480, Note Name: F3
Note OFF: Time 342480, Note Name: F2
Note ON: Time 342480, Note Name: D#3, Velocity: 33
Note OFF: Time 342600, Note Name: D#3
Note ON: Time 342600, Note Name: D3, Velocity: 30
Note OFF: Time 342720, Note Name: D3
Note ON: Time 342720, Note Name: C3, Velocity: 35
Note OFF: Time 342960, Note Name: C3
Note ON: Time 342960, Note Name: D3, Velocity: 33
Note OFF: Time 343080, Note Name: D3
Note ON: Time 343080, Note Name: C3, Velocity: 29
Note OFF: Time 343200, Note Name: C3
Note ON: Time 343200, Note Name: G2, Velocity: 28
Note ON: Time 343200, Note Name: G3, Velocity: 34
Note OFF: Time 343440, Note Name: G3
Note OFF: Time 343440, Note Name: G2
Note ON: Time 343440, Note Name: F3, Velocity: 28
Note ON: Time 343440, Note Name: G#3, Velocity: 33
Note OFF: Time 343560, Note Name: G#3
Note OFF: Time 343560, Note Name: F3
Note ON: Time 343560, Note Name: D#3, Velocity: 28
Note ON: Time 343560, Note Name: G3, Velocity: 33
Note OFF: Time 343680, Note Name: G3
Note OFF: Time 343680, Note Name: D#3
Note ON: Time 343680, Note Name: D3, Velocity: 31
Note ON: Time 343680, Note Name: F3, Velocity: 37
Note OFF: Time 343920, Note Name: F3
Note OFF: Time 343920, Note Name: D3
Note ON: Time 343920, Note Name: C#3, Velocity: 27
Note ON: Time 343920, Note Name: E3, Velocity: 32
Note OFF: Time 344160, Note Name: E3
Note OFF: Time 344160, Note Name: C#3
Note ON: Time 344160, Note Name: C3, Velocity: 32
Note ON: Time 344160, Note Name: D#3, Velocity: 38
Note OFF: Time 344400, Note Name: D#3
Note OFF: Time 344400, Note Name: C3
Note ON: Time 344400, Note Name: F2, Velocity: 25
Note ON: Time 344400, Note Name: C3, Velocity: 30
Note OFF: Time 344640, Note Name: C3
Note OFF: Time 344640, Note Name: F2
Note ON: Time 344640, Note Name: G2, Velocity: 28
Note ON: Time 344640, Note Name: A#2, Velocity: 33
Note OFF: Time 344880, Note Name: A#2
Note OFF: Time 344880, Note Name: G2
Note ON: Time 344880, Note Name: D2, Velocity: 28
Note ON: Time 344880, Note Name: B2, Velocity: 33
Note OFF: Time 345000, Note Name: B2
Note OFF: Time 345000, Note Name: D2
Note ON: Time 345000, Note Name: D#2, Velocity: 24
Note ON: Time 345000, Note Name: C3, Velocity: 29
Note OFF: Time 345120, Note Name: C3
Note OFF: Time 345120, Note Name: D#2
Note ON: Time 345120, Note Name: F2, Velocity: 24
Note ON: Time 345120, Note Name: C3, Velocity: 29
Note OFF: Time 345360, Note Name: C3
Note OFF: Time 345360, Note Name: F2
Note ON: Time 345360, Note Name: F3, Velocity: 28
Note ON: Time 345360, Note Name: A#3, Velocity: 33
Note OFF: Time 345480, Note Name: A#3
Note ON: Time 345480, Note Name: C4, Velocity: 33
Note OFF: Time 345600, Note Name: C4
Note OFF: Time 345600, Note Name: F3
Note ON: Time 345600, Note Name: F3, Velocity: 31
Note ON: Time 345600, Note Name: D4, Velocity: 37
Note OFF: Time 345960, Note Name: D4
Note ON: Time 345960, Note Name: D#4, Velocity: 32
Note OFF: Time 346080, Note Name: D#4
Note ON: Time 346080, Note Name: C4, Velocity: 38
Note OFF: Time 346440, Note Name: C4
Note ON: Time 346440, Note Name: D4, Velocity: 30
Note OFF: Time 346560, Note Name: D4
Note ON: Time 346560, Note Name: C4, Velocity: 36
Note OFF: Time 346680, Note Name: C4
Note ON: Time 346680, Note Name: A#3, Velocity: 30
Note OFF: Time 346800, Note Name: A#3
Note ON: Time 346800, Note Name: D4, Velocity: 35
Note OFF: Time 346920, Note Name: D4
Note ON: Time 346920, Note Name: C4, Velocity: 30
Note OFF: Time 347040, Note Name: C4
Note ON: Time 347040, Note Name: A3, Velocity: 36
Note OFF: Time 347280, Note Name: A3
Note OFF: Time 347280, Note Name: F3
Note ON: Time 347280, Note Name: A#3, Velocity: 28
Note ON: Time 347280, Note Name: C4, Velocity: 33
Note OFF: Time 347400, Note Name: C4
Note ON: Time 347400, Note Name: D4, Velocity: 33
Note OFF: Time 347520, Note Name: D4
Note OFF: Time 347520, Note Name: A#3
Note ON: Time 347520, Note Name: A#3, Velocity: 31
Note ON: Time 347520, Note Name: D#4, Velocity: 37
Note OFF: Time 347880, Note Name: D#4
Note ON: Time 347880, Note Name: F4, Velocity: 32
Note OFF: Time 348000, Note Name: F4
Note ON: Time 348000, Note Name: D4, Velocity: 38
Note OFF: Time 348360, Note Name: D4
Note ON: Time 348360, Note Name: D#4, Velocity: 30
Note OFF: Time 348480, Note Name: D#4
Note ON: Time 348480, Note Name: D4, Velocity: 36
Note OFF: Time 348600, Note Name: D4
Note ON: Time 348600, Note Name: C4, Velocity: 30
Note OFF: Time 348720, Note Name: C4
Note OFF: Time 348720, Note Name: A#3
Note ON: Time 348720, Note Name: A#3, Velocity: 31
Note ON: Time 348720, Note Name: D#4, Velocity: 35
Note OFF: Time 348840, Note Name: D#4
Note ON: Time 348840, Note Name: D4, Velocity: 30
Note OFF: Time 348960, Note Name: D4
Note OFF: Time 349200, Note Name: A#3
Note ON: Time 349200, Note Name: A#3, Velocity: 28
Note ON: Time 349200, Note Name: D4, Velocity: 33
Note OFF: Time 349320, Note Name: D4
Note ON: Time 349320, Note Name: D#4, Velocity: 33
Note OFF: Time 349440, Note Name: D#4
Note OFF: Time 349440, Note Name: A#3
Note ON: Time 349440, Note Name: A#3, Velocity: 31
Note ON: Time 349440, Note Name: F4, Velocity: 37
Note OFF: Time 349800, Note Name: F4
Note ON: Time 349800, Note Name: F#4, Velocity: 32
Note OFF: Time 349920, Note Name: F#4
Note OFF: Time 349920, Note Name: A#3
Note ON: Time 349920, Note Name: D#4, Velocity: 38
Note OFF: Time 350160, Note Name: D#4
Note ON: Time 350160, Note Name: C#4, Velocity: 28
Note ON: Time 350160, Note Name: D#4, Velocity: 33
Note OFF: Time 350280, Note Name: D#4
Note ON: Time 350280, Note Name: F4, Velocity: 33
Note OFF: Time 350400, Note Name: F4
Note OFF: Time 350400, Note Name: C#4
Note ON: Time 350400, Note Name: C#4, Velocity: 31
Note ON: Time 350400, Note Name: F#4, Velocity: 37
Note OFF: Time 350760, Note Name: F#4
Note ON: Time 350760, Note Name: G#4, Velocity: 32
Note OFF: Time 350880, Note Name: G#4
Note ON: Time 350880, Note Name: F4, Velocity: 38
Note OFF: Time 351000, Note Name: F4
Note ON: Time 351000, Note Name: B4, Velocity: 38
Note OFF: Time 351120, Note Name: B4
Note ON: Time 351120, Note Name: A#4, Velocity: 40
Note OFF: Time 351240, Note Name: A#4
Note ON: Time 351240, Note Name: G#4, Velocity: 40
Note OFF: Time 351360, Note Name: G#4
Note OFF: Time 351360, Note Name: C#4
Note ON: Time 351360, Note Name: C#4, Velocity: 31
Note ON: Time 351360, Note Name: F#4, Velocity: 40
Note OFF: Time 351600, Note Name: F#4
Note ON: Time 351600, Note Name: A#4, Velocity: 35
Note OFF: Time 352080, Note Name: A#4
Note ON: Time 352080, Note Name: G#4, Velocity: 41
Note OFF: Time 352320, Note Name: C#4
Note ON: Time 352320, Note Name: C#4, Velocity: 45
Note OFF: Time 352560, Note Name: G#4
Note ON: Time 352560, Note Name: F#4, Velocity: 39
Note OFF: Time 352800, Note Name: F#4
Note ON: Time 352800, Note Name: C#5, Velocity: 46
Note OFF: Time 353040, Note Name: C#5
Note ON: Time 353040, Note Name: B4, Velocity: 43
Note OFF: Time 353280, Note Name: B4
Note OFF: Time 353280, Note Name: C#4
Note ON: Time 353280, Note Name: C#4, Velocity: 47
Note ON: Time 353280, Note Name: B4, Velocity: 55
Note OFF: Time 353400, Note Name: B4
Note ON: Time 353400, Note Name: A#4, Velocity: 49
Note OFF: Time 353520, Note Name: A#4
Note ON: Time 353520, Note Name: B4, Velocity: 54
Note OFF: Time 353640, Note Name: B4
Note ON: Time 353640, Note Name: A#4, Velocity: 50
Note OFF: Time 353760, Note Name: A#4
Note ON: Time 353760, Note Name: A#4, Velocity: 55
Note OFF: Time 353880, Note Name: A#4
Note ON: Time 353880, Note Name: G#4, Velocity: 47
Note OFF: Time 354000, Note Name: G#4
Note ON: Time 354000, Note Name: A#4, Velocity: 56
Note OFF: Time 354120, Note Name: A#4
Note ON: Time 354120, Note Name: G#4, Velocity: 49
Note OFF: Time 354240, Note Name: G#4
Note OFF: Time 354240, Note Name: C#4
Note ON: Time 354240, Note Name: C#4, Velocity: 49
Note ON: Time 354240, Note Name: G#4, Velocity: 56
Note OFF: Time 354360, Note Name: G#4
Note ON: Time 354360, Note Name: G4, Velocity: 49
Note OFF: Time 354480, Note Name: G4
Note ON: Time 354480, Note Name: D#5, Velocity: 57
Note OFF: Time 354600, Note Name: D#5
Note ON: Time 354600, Note Name: C#5, Velocity: 50
Note OFF: Time 354720, Note Name: C#5
Note ON: Time 354720, Note Name: C#5, Velocity: 57
Note OFF: Time 354960, Note Name: C#5
Note ON: Time 354960, Note Name: B4, Velocity: 51
Note OFF: Time 355200, Note Name: B4
Note OFF: Time 355200, Note Name: C#4
Note ON: Time 355200, Note Name: C#4, Velocity: 51
Note ON: Time 355200, Note Name: A4, Velocity: 58
Note OFF: Time 355320, Note Name: A4
Note ON: Time 355320, Note Name: A#4, Velocity: 54
Note OFF: Time 355440, Note Name: A#4
Note ON: Time 355440, Note Name: B4, Velocity: 54
Note OFF: Time 355560, Note Name: B4
Note ON: Time 355560, Note Name: A#4, Velocity: 54
Note OFF: Time 355680, Note Name: A#4
Note OFF: Time 355680, Note Name: C#4
Note ON: Time 355680, Note Name: C#4, Velocity: 52
Note ON: Time 355680, Note Name: G4, Velocity: 59
Note OFF: Time 355800, Note Name: G4
Note ON: Time 355800, Note Name: G#4, Velocity: 52
Note OFF: Time 355920, Note Name: G#4
Note ON: Time 355920, Note Name: A#4, Velocity: 52
Note OFF: Time 356040, Note Name: A#4
Note ON: Time 356040, Note Name: G#4, Velocity: 53
Note OFF: Time 356160, Note Name: G#4
Note OFF: Time 356160, Note Name: C#4
Note ON: Time 356160, Note Name: C#4, Velocity: 53
Note ON: Time 356160, Note Name: F4, Velocity: 60
Note OFF: Time 356280, Note Name: F4
Note ON: Time 356280, Note Name: F#4, Velocity: 57
Note OFF: Time 356400, Note Name: F#4
Note ON: Time 356400, Note Name: G#4, Velocity: 56
Note OFF: Time 356520, Note Name: G#4
Note ON: Time 356520, Note Name: F#4, Velocity: 56
Note OFF: Time 356640, Note Name: F#4
Note OFF: Time 356640, Note Name: C#4
Note ON: Time 356640, Note Name: C#4, Velocity: 54
Note ON: Time 356640, Note Name: F#4, Velocity: 62
Note OFF: Time 356760, Note Name: F#4
Note ON: Time 356760, Note Name: F4, Velocity: 57
Note OFF: Time 356880, Note Name: F4
Note OFF: Time 356880, Note Name: C#4
Note ON: Time 356880, Note Name: B3, Velocity: 55
Note ON: Time 356880, Note Name: F#4, Velocity: 57
Note OFF: Time 357000, Note Name: F#4
Note ON: Time 357000, Note Name: G#4, Velocity: 57
Note OFF: Time 357120, Note Name: G#4
Note OFF: Time 357120, Note Name: B3
Note ON: Time 357120, Note Name: A#3, Velocity: 46
Note ON: Time 357120, Note Name: A#4, Velocity: 59
Note OFF: Time 357360, Note Name: A#4
Note OFF: Time 357360, Note Name: A#3
Note ON: Time 357360, Note Name: G#3, Velocity: 44
Note ON: Time 357360, Note Name: G#4, Velocity: 55
Note OFF: Time 357600, Note Name: G#4
Note OFF: Time 357600, Note Name: G#3
Note ON: Time 357600, Note Name: D#4, Velocity: 61
Note ON: Time 357600, Note Name: D#3, Velocity: 48
Note OFF: Time 357840, Note Name: D#3
Note OFF: Time 357840, Note Name: D#4
Note ON: Time 357840, Note Name: D4, Velocity: 56
Note ON: Time 357840, Note Name: D3, Velocity: 45
Note OFF: Time 358080, Note Name: D3
Note OFF: Time 358080, Note Name: D4
Note ON: Time 358080, Note Name: C#3, Velocity: 49
Note ON: Time 358080, Note Name: C#4, Velocity: 62
Note OFF: Time 358320, Note Name: C#4
Note OFF: Time 358320, Note Name: C#3
Note ON: Time 358320, Note Name: C#2, Velocity: 48
Note ON: Time 358320, Note Name: C#3, Velocity: 61
Note OFF: Time 358680, Note Name: C#3
Note ON: Time 358680, Note Name: B2, Velocity: 71
Note OFF: Time 358800, Note Name: B2
Note OFF: Time 358800, Note Name: C#2
Note ON: Time 358800, Note Name: A#2, Velocity: 73
Note ON: Time 358800, Note Name: C#2, Velocity: 58
Note OFF: Time 358920, Note Name: A#2
Note ON: Time 358920, Note Name: G#2, Velocity: 78
Note OFF: Time 359040, Note Name: G#2
Note OFF: Time 359040, Note Name: C#2
Note ON: Time 359040, Note Name: F#2, Velocity: 78
Note ON: Time 359040, Note Name: F#1, Velocity: 64
Note OFF: Time 359160, Note Name: F#1
Note OFF: Time 359160, Note Name: F#2
Note ON: Time 359160, Note Name: C#3, Velocity: 51
Note ON: Time 359160, Note Name: F#3, Velocity: 51
Note ON: Time 359160, Note Name: A#3, Velocity: 61
Note OFF: Time 359279, Note Name: A#3
Note OFF: Time 359279, Note Name: F#3
Note OFF: Time 359279, Note Name: C#3
Note ON: Time 359280, Note Name: A#3, Velocity: 61
Note ON: Time 359280, Note Name: F#3, Velocity: 51
Note ON: Time 359280, Note Name: C#3, Velocity: 51
Note OFF: Time 359399, Note Name: C#3
Note OFF: Time 359399, Note Name: F#3
Note OFF: Time 359399, Note Name: A#3
Note ON: Time 359400, Note Name: C#3, Velocity: 51
Note ON: Time 359400, Note Name: A#3, Velocity: 61
Note ON: Time 359400, Note Name: F#3, Velocity: 51
Note OFF: Time 359518, Note Name: A#3
Note OFF: Time 359520, Note Name: F#3
Note OFF: Time 359520, Note Name: C#3
Note ON: Time 359640, Note Name: F#3, Velocity: 53
Note ON: Time 359640, Note Name: A#2, Velocity: 45
Note ON: Time 359640, Note Name: C#3, Velocity: 45
Note OFF: Time 359759, Note Name: C#3
Note OFF: Time 359759, Note Name: A#2
Note OFF: Time 359759, Note Name: F#3
Note ON: Time 359760, Note Name: C#3, Velocity: 45
Note ON: Time 359760, Note Name: A#2, Velocity: 45
Note ON: Time 359760, Note Name: F#3, Velocity: 54
Note OFF: Time 359879, Note Name: F#3
Note OFF: Time 359879, Note Name: A#2
Note OFF: Time 359879, Note Name: C#3
Note ON: Time 359880, Note Name: C#3, Velocity: 45
Note ON: Time 359880, Note Name: A#2, Velocity: 45
Note ON: Time 359880, Note Name: F#3, Velocity: 54
Note OFF: Time 360000, Note Name: F#3
Note OFF: Time 360000, Note Name: A#2
Note OFF: Time 360000, Note Name: C#3
Note ON: Time 360120, Note Name: C#3, Velocity: 37
Note ON: Time 360120, Note Name: F#3, Velocity: 37
Note ON: Time 360120, Note Name: A#3, Velocity: 44
Note OFF: Time 360180, Note Name: A#3
Note OFF: Time 360180, Note Name: F#3
Note OFF: Time 360180, Note Name: C#3
Note ON: Time 360360, Note Name: C#3, Velocity: 37
Note ON: Time 360360, Note Name: F#3, Velocity: 44
Note ON: Time 360360, Note Name: A#2, Velocity: 37
Note OFF: Time 360420, Note Name: A#2
Note OFF: Time 360420, Note Name: F#3
Note OFF: Time 360420, Note Name: C#3
Note ON: Time 360600, Note Name: C#3, Velocity: 37
Note ON: Time 360600, Note Name: F#3, Velocity: 37
Note ON: Time 360600, Note Name: A#3, Velocity: 44
Note OFF: Time 360660, Note Name: A#3
Note OFF: Time 360660, Note Name: F#3
Note OFF: Time 360660, Note Name: C#3
Note ON: Time 360840, Note Name: D3, Velocity: 37
Note ON: Time 360840, Note Name: G#3, Velocity: 44
Note ON: Time 360840, Note Name: B2, Velocity: 37
Note ON: Time 360840, Note Name: F3, Velocity: 37
Note OFF: Time 360900, Note Name: F3
Note OFF: Time 360900, Note Name: D3
Note OFF: Time 360900, Note Name: G#3
Note OFF: Time 360900, Note Name: B2
Note ON: Time 360960, Note Name: F#2, Velocity: 71
Note ON: Time 360960, Note Name: F#1, Velocity: 59
Note OFF: Time 361080, Note Name: F#1
Note OFF: Time 361080, Note Name: F#2
Note ON: Time 361080, Note Name: G#3, Velocity: 51
Note ON: Time 361080, Note Name: F3, Velocity: 51
Note ON: Time 361080, Note Name: B3, Velocity: 61
Note ON: Time 361080, Note Name: D3, Velocity: 51
Note OFF: Time 361199, Note Name: D3
Note OFF: Time 361199, Note Name: G#3
Note OFF: Time 361199, Note Name: F3
Note OFF: Time 361199, Note Name: B3
Note ON: Time 361200, Note Name: G#3, Velocity: 51
Note ON: Time 361200, Note Name: B3, Velocity: 61
Note ON: Time 361200, Note Name: D3, Velocity: 51
Note ON: Time 361200, Note Name: F3, Velocity: 51
Note OFF: Time 361319, Note Name: F3
Note OFF: Time 361319, Note Name: G#3
Note OFF: Time 361319, Note Name: B3
Note OFF: Time 361319, Note Name: D3
Note ON: Time 361320, Note Name: G#3, Velocity: 51
Note ON: Time 361320, Note Name: B3, Velocity: 61
Note ON: Time 361320, Note Name: F3, Velocity: 51
Note ON: Time 361320, Note Name: D3, Velocity: 51
Note OFF: Time 361440, Note Name: D3
Note OFF: Time 361440, Note Name: G#3
Note OFF: Time 361440, Note Name: B3
Note OFF: Time 361440, Note Name: F3
Note ON: Time 361560, Note Name: D3, Velocity: 45
Note ON: Time 361560, Note Name: F3, Velocity: 45
Note ON: Time 361560, Note Name: G#3, Velocity: 53
Note ON: Time 361560, Note Name: B2, Velocity: 45
Note OFF: Time 361679, Note Name: B2
Note OFF: Time 361679, Note Name: D3
Note OFF: Time 361679, Note Name: F3
Note OFF: Time 361679, Note Name: G#3
Note ON: Time 361680, Note Name: D3, Velocity: 45
Note ON: Time 361680, Note Name: F3, Velocity: 45
Note ON: Time 361680, Note Name: G#3, Velocity: 54
Note ON: Time 361680, Note Name: B2, Velocity: 45
Note OFF: Time 361799, Note Name: B2
Note OFF: Time 361799, Note Name: D3
Note OFF: Time 361799, Note Name: F3
Note OFF: Time 361799, Note Name: G#3
Note ON: Time 361800, Note Name: D3, Velocity: 45
Note ON: Time 361800, Note Name: G#3, Velocity: 54
Note ON: Time 361800, Note Name: F3, Velocity: 45
Note ON: Time 361800, Note Name: B2, Velocity: 45
Note OFF: Time 361920, Note Name: B2
Note OFF: Time 361920, Note Name: D3
Note OFF: Time 361920, Note Name: G#3
Note OFF: Time 361920, Note Name: F3
Note ON: Time 362040, Note Name: G#3, Velocity: 37
Note ON: Time 362040, Note Name: F3, Velocity: 37
Note ON: Time 362040, Note Name: B3, Velocity: 44
Note ON: Time 362040, Note Name: D3, Velocity: 37
Note OFF: Time 362100, Note Name: D3
Note OFF: Time 362100, Note Name: G#3
Note OFF: Time 362100, Note Name: F3
Note OFF: Time 362100, Note Name: B3
Note ON: Time 362280, Note Name: D3, Velocity: 37
Note ON: Time 362280, Note Name: B2, Velocity: 37
Note ON: Time 362280, Note Name: F3, Velocity: 37
Note ON: Time 362280, Note Name: G#3, Velocity: 44
Note OFF: Time 362340, Note Name: G#3
Note OFF: Time 362340, Note Name: D3
Note OFF: Time 362340, Note Name: B2
Note OFF: Time 362340, Note Name: F3
Note ON: Time 362520, Note Name: G#3, Velocity: 37
Note ON: Time 362520, Note Name: D3, Velocity: 37
Note ON: Time 362520, Note Name: B3, Velocity: 44
Note ON: Time 362520, Note Name: F3, Velocity: 37
Note OFF: Time 362580, Note Name: F3
Note OFF: Time 362580, Note Name: G#3
Note OFF: Time 362580, Note Name: D3
Note OFF: Time 362580, Note Name: B3
Note ON: Time 362760, Note Name: G3, Velocity: 37
Note ON: Time 362760, Note Name: A#3, Velocity: 44
Note ON: Time 362760, Note Name: C#3, Velocity: 37
Note ON: Time 362760, Note Name: E3, Velocity: 37
Note OFF: Time 362820, Note Name: E3
Note OFF: Time 362820, Note Name: G3
Note OFF: Time 362820, Note Name: A#3
Note OFF: Time 362820, Note Name: C#3
Note ON: Time 362880, Note Name: F#2, Velocity: 71
Note ON: Time 362880, Note Name: F#1, Velocity: 59
Note OFF: Time 363000, Note Name: F#1
Note OFF: Time 363000, Note Name: F#2
Note ON: Time 363000, Note Name: A#3, Velocity: 51
Note ON: Time 363000, Note Name: E3, Velocity: 51
Note ON: Time 363000, Note Name: C#4, Velocity: 61
Note OFF: Time 363119, Note Name: C#4
Note OFF: Time 363119, Note Name: E3
Note OFF: Time 363119, Note Name: A#3
Note ON: Time 363120, Note Name: C#4, Velocity: 61
Note ON: Time 363120, Note Name: E3, Velocity: 51
Note ON: Time 363120, Note Name: A#3, Velocity: 51
Note OFF: Time 363239, Note Name: A#3
Note OFF: Time 363239, Note Name: E3
Note OFF: Time 363239, Note Name: C#4
Note ON: Time 363240, Note Name: C#4, Velocity: 61
Note ON: Time 363240, Note Name: E3, Velocity: 51
Note ON: Time 363240, Note Name: A#3, Velocity: 51
Note OFF: Time 363360, Note Name: A#3
Note OFF: Time 363360, Note Name: E3
Note OFF: Time 363360, Note Name: C#4
Note ON: Time 363480, Note Name: G3, Velocity: 45
Note ON: Time 363480, Note Name: E3, Velocity: 45
Note ON: Time 363480, Note Name: C#3, Velocity: 45
Note ON: Time 363480, Note Name: A#3, Velocity: 53
Note OFF: Time 363599, Note Name: A#3
Note OFF: Time 363599, Note Name: G3
Note OFF: Time 363599, Note Name: E3
Note OFF: Time 363599, Note Name: C#3
Note ON: Time 363600, Note Name: G3, Velocity: 45
Note ON: Time 363600, Note Name: A#3, Velocity: 54
Note ON: Time 363600, Note Name: E3, Velocity: 45
Note ON: Time 363600, Note Name: C#3, Velocity: 45
Note OFF: Time 363719, Note Name: C#3
Note OFF: Time 363719, Note Name: G3
Note OFF: Time 363719, Note Name: A#3
Note OFF: Time 363719, Note Name: E3
Note ON: Time 363720, Note Name: G3, Velocity: 45
Note ON: Time 363720, Note Name: E3, Velocity: 45
Note ON: Time 363720, Note Name: A#3, Velocity: 54
Note ON: Time 363720, Note Name: C#3, Velocity: 45
Note OFF: Time 363840, Note Name: C#3
Note OFF: Time 363840, Note Name: G3
Note OFF: Time 363840, Note Name: E3
Note OFF: Time 363840, Note Name: A#3
Note ON: Time 363960, Note Name: A#3, Velocity: 37
Note ON: Time 363960, Note Name: G3, Velocity: 37
Note ON: Time 363960, Note Name: C#4, Velocity: 44
Note ON: Time 363960, Note Name: E3, Velocity: 37
Note OFF: Time 364020, Note Name: E3
Note OFF: Time 364020, Note Name: A#3
Note OFF: Time 364020, Note Name: G3
Note OFF: Time 364020, Note Name: C#4
Note ON: Time 364200, Note Name: G3, Velocity: 37
Note ON: Time 364200, Note Name: E3, Velocity: 37
Note ON: Time 364200, Note Name: C#3, Velocity: 37
Note ON: Time 364200, Note Name: A#3, Velocity: 44
Note OFF: Time 364260, Note Name: A#3
Note OFF: Time 364260, Note Name: G3
Note OFF: Time 364260, Note Name: E3
Note OFF: Time 364260, Note Name: C#3
Note ON: Time 364440, Note Name: A#3, Velocity: 37
Note ON: Time 364440, Note Name: E3, Velocity: 37
Note ON: Time 364440, Note Name: C#4, Velocity: 44
Note ON: Time 364440, Note Name: G3, Velocity: 37
Note OFF: Time 364500, Note Name: G3
Note OFF: Time 364500, Note Name: A#3
Note OFF: Time 364500, Note Name: E3
Note OFF: Time 364500, Note Name: C#4
Note ON: Time 364680, Note Name: F#3, Velocity: 37
Note ON: Time 364680, Note Name: B3, Velocity: 44
Note ON: Time 364680, Note Name: D3, Velocity: 37
Note OFF: Time 364740, Note Name: D3
Note OFF: Time 364740, Note Name: B3
Note OFF: Time 364740, Note Name: F#3
Note ON: Time 364800, Note Name: F#2, Velocity: 71
Note ON: Time 364800, Note Name: F#1, Velocity: 59
Note OFF: Time 364920, Note Name: F#1
Note OFF: Time 364920, Note Name: F#2
Note ON: Time 364920, Note Name: B3, Velocity: 51
Note ON: Time 364920, Note Name: D4, Velocity: 61
Note ON: Time 364920, Note Name: F#3, Velocity: 51
Note OFF: Time 365039, Note Name: F#3
Note OFF: Time 365039, Note Name: D4
Note OFF: Time 365039, Note Name: B3
Note ON: Time 365040, Note Name: D4, Velocity: 61
Note ON: Time 365040, Note Name: F#3, Velocity: 51
Note ON: Time 365040, Note Name: B3, Velocity: 51
Note OFF: Time 365159, Note Name: B3
Note OFF: Time 365159, Note Name: F#3
Note OFF: Time 365159, Note Name: D4
Note ON: Time 365160, Note Name: D4, Velocity: 61
Note ON: Time 365160, Note Name: F#3, Velocity: 51
Note ON: Time 365160, Note Name: B3, Velocity: 51
Note OFF: Time 365280, Note Name: B3
Note OFF: Time 365280, Note Name: F#3
Note OFF: Time 365280, Note Name: D4
Note ON: Time 365400, Note Name: F#3, Velocity: 45
Note ON: Time 365400, Note Name: B3, Velocity: 53
Note ON: Time 365400, Note Name: D3, Velocity: 45
Note OFF: Time 365519, Note Name: D3
Note OFF: Time 365519, Note Name: B3
Note OFF: Time 365519, Note Name: F#3
Note ON: Time 365520, Note Name: B3, Velocity: 54
Note ON: Time 365520, Note Name: F#3, Velocity: 45
Note ON: Time 365520, Note Name: D3, Velocity: 45
Note OFF: Time 365639, Note Name: D3
Note OFF: Time 365639, Note Name: F#3
Note OFF: Time 365639, Note Name: B3
Note ON: Time 365640, Note Name: F#3, Velocity: 45
Note ON: Time 365640, Note Name: B3, Velocity: 54
Note ON: Time 365640, Note Name: D3, Velocity: 45
Note OFF: Time 365760, Note Name: D3
Note OFF: Time 365760, Note Name: B3
Note OFF: Time 365760, Note Name: F#3
Note ON: Time 365880, Note Name: G#3, Velocity: 37
Note ON: Time 365880, Note Name: F3, Velocity: 37
Note ON: Time 365880, Note Name: D4, Velocity: 44
Note ON: Time 365880, Note Name: B3, Velocity: 37
Note OFF: Time 365940, Note Name: B3
Note OFF: Time 365940, Note Name: G#3
Note OFF: Time 365940, Note Name: F3
Note OFF: Time 365940, Note Name: D4
Note ON: Time 366120, Note Name: G#3, Velocity: 37
Note ON: Time 366120, Note Name: B3, Velocity: 44
Note ON: Time 366120, Note Name: D3, Velocity: 37
Note ON: Time 366120, Note Name: F3, Velocity: 37
Note OFF: Time 366180, Note Name: F3
Note OFF: Time 366180, Note Name: G#3
Note OFF: Time 366180, Note Name: B3
Note OFF: Time 366180, Note Name: D3
Note ON: Time 366360, Note Name: F3, Velocity: 41
Note ON: Time 366360, Note Name: B3, Velocity: 41
Note ON: Time 366360, Note Name: G#3, Velocity: 41
Note ON: Time 366360, Note Name: D4, Velocity: 49
Note OFF: Time 366420, Note Name: D4
Note OFF: Time 366420, Note Name: F3
Note OFF: Time 366420, Note Name: B3
Note OFF: Time 366420, Note Name: G#3
Note ON: Time 366600, Note Name: G3, Velocity: 42
Note ON: Time 366600, Note Name: A#3, Velocity: 42
Note ON: Time 366600, Note Name: E3, Velocity: 42
Note ON: Time 366600, Note Name: C#4, Velocity: 51
Note OFF: Time 366660, Note Name: C#4
Note OFF: Time 366660, Note Name: G3
Note OFF: Time 366660, Note Name: A#3
Note OFF: Time 366660, Note Name: E3
Note ON: Time 366840, Note Name: A#3, Velocity: 44
Note ON: Time 366840, Note Name: G3, Velocity: 44
Note ON: Time 366840, Note Name: C#4, Velocity: 44
Note ON: Time 366840, Note Name: E4, Velocity: 52
Note OFF: Time 366900, Note Name: E4
Note OFF: Time 366900, Note Name: A#3
Note OFF: Time 366900, Note Name: G3
Note OFF: Time 366900, Note Name: C#4
Note ON: Time 367080, Note Name: G3, Velocity: 45
Note ON: Time 367080, Note Name: E3, Velocity: 45
Note ON: Time 367080, Note Name: C#4, Velocity: 54
Note ON: Time 367080, Note Name: A#3, Velocity: 45
Note OFF: Time 367140, Note Name: A#3
Note OFF: Time 367140, Note Name: G3
Note OFF: Time 367140, Note Name: E3
Note OFF: Time 367140, Note Name: C#4
Note ON: Time 367320, Note Name: A#3, Velocity: 48
Note ON: Time 367320, Note Name: E4, Velocity: 57
Note ON: Time 367320, Note Name: C#4, Velocity: 48
Note ON: Time 367320, Note Name: F#3, Velocity: 48
Note OFF: Time 367380, Note Name: F#3
Note OFF: Time 367380, Note Name: A#3
Note OFF: Time 367380, Note Name: E4
Note OFF: Time 367380, Note Name: C#4
Note ON: Time 367560, Note Name: F#3, Velocity: 49
Note ON: Time 367560, Note Name: D4, Velocity: 60
Note ON: Time 367560, Note Name: B3, Velocity: 49
Note OFF: Time 367620, Note Name: B3
Note OFF: Time 367620, Note Name: D4
Note OFF: Time 367620, Note Name: F#3
Note ON: Time 367800, Note Name: F#3, Velocity: 52
Note ON: Time 367800, Note Name: D4, Velocity: 61
Note ON: Time 367800, Note Name: B3, Velocity: 52
Note OFF: Time 367860, Note Name: B3
Note OFF: Time 367860, Note Name: D4
Note OFF: Time 367860, Note Name: F#3
Note ON: Time 368040, Note Name: D4, Velocity: 65
Note ON: Time 368040, Note Name: F#3, Velocity: 54
Note ON: Time 368040, Note Name: B3, Velocity: 54
Note OFF: Time 368100, Note Name: B3
Note OFF: Time 368100, Note Name: F#3
Note OFF: Time 368100, Note Name: D4
Note ON: Time 368280, Note Name: D4, Velocity: 68
Note ON: Time 368280, Note Name: F#3, Velocity: 57
Note ON: Time 368280, Note Name: B3, Velocity: 57
Note OFF: Time 368340, Note Name: B3
Note OFF: Time 368340, Note Name: F#3
Note OFF: Time 368340, Note Name: D4
Note ON: Time 368520, Note Name: B3, Velocity: 58
Note ON: Time 368520, Note Name: C#4, Velocity: 58
Note ON: Time 368520, Note Name: G#3, Velocity: 58
Note ON: Time 368520, Note Name: F4, Velocity: 70
Note OFF: Time 368580, Note Name: F4
Note OFF: Time 368580, Note Name: B3
Note OFF: Time 368580, Note Name: C#4
Note OFF: Time 368580, Note Name: G#3
Note ON: Time 368760, Note Name: G#4, Velocity: 72
Note ON: Time 368760, Note Name: G#3, Velocity: 61
Note OFF: Time 368820, Note Name: G#3
Note OFF: Time 368820, Note Name: G#4
Note ON: Time 369000, Note Name: F#4, Velocity: 72
Note ON: Time 369000, Note Name: F#3, Velocity: 61
Note OFF: Time 369060, Note Name: F#3
Note OFF: Time 369060, Note Name: F#4
Note ON: Time 369240, Note Name: D#3, Velocity: 61
Note ON: Time 369240, Note Name: D#4, Velocity: 72
Note OFF: Time 369300, Note Name: D#4
Note OFF: Time 369300, Note Name: D#3
Note ON: Time 369480, Note Name: C#4, Velocity: 72
Note ON: Time 369480, Note Name: C#3, Velocity: 61
Note OFF: Time 369540, Note Name: C#3
Note OFF: Time 369540, Note Name: C#4
Note ON: Time 369720, Note Name: B2, Velocity: 55
Note ON: Time 369720, Note Name: B3, Velocity: 64
Note OFF: Time 369780, Note Name: B3
Note OFF: Time 369780, Note Name: B2
Note ON: Time 369960, Note Name: A#3, Velocity: 64
Note ON: Time 369960, Note Name: A#2, Velocity: 55
Note OFF: Time 370020, Note Name: A#2
Note OFF: Time 370020, Note Name: A#3
Note ON: Time 370200, Note Name: G#2, Velocity: 55
Note ON: Time 370200, Note Name: G#3, Velocity: 64
Note OFF: Time 370260, Note Name: G#3
Note OFF: Time 370260, Note Name: G#2
Note ON: Time 370440, Note Name: F#3, Velocity: 64
Note ON: Time 370440, Note Name: F#2, Velocity: 55
Note OFF: Time 370500, Note Name: F#2
Note OFF: Time 370500, Note Name: F#3
Note ON: Time 370680, Note Name: D#3, Velocity: 64
Note ON: Time 370680, Note Name: D#2, Velocity: 55
Note OFF: Time 370740, Note Name: D#2
Note OFF: Time 370740, Note Name: D#3
Note ON: Time 370920, Note Name: C#2, Velocity: 55
Note ON: Time 370920, Note Name: C#3, Velocity: 64
Note OFF: Time 370980, Note Name: C#3
Note OFF: Time 370980, Note Name: C#2
Note ON: Time 371160, Note Name: B1, Velocity: 51
Note ON: Time 371160, Note Name: B2, Velocity: 61
Note OFF: Time 371220, Note Name: B2
Note OFF: Time 371220, Note Name: B1
Note ON: Time 371400, Note Name: A#2, Velocity: 61
Note ON: Time 371400, Note Name: A#1, Velocity: 51
Note OFF: Time 371460, Note Name: A#1
Note OFF: Time 371460, Note Name: A#2
Note ON: Time 371640, Note Name: G#2, Velocity: 57
Note ON: Time 371640, Note Name: G#1, Velocity: 49
Note OFF: Time 371700, Note Name: G#1
Note OFF: Time 371700, Note Name: G#2
Note ON: Time 371880, Note Name: F#1, Velocity: 48
Note ON: Time 371880, Note Name: F#2, Velocity: 56
Note OFF: Time 371940, Note Name: F#2
Note OFF: Time 371940, Note Name: F#1
Note ON: Time 372120, Note Name: D#2, Velocity: 55
Note OFF: Time 372180, Note Name: D#2
Note ON: Time 372360, Note Name: C#2, Velocity: 54
Note OFF: Time 372420, Note Name: C#2
Note ON: Time 372600, Note Name: F2, Velocity: 42
Note OFF: Time 372720, Note Name: F2
Note ON: Time 372840, Note Name: C#2, Velocity: 28
Note OFF: Time 372960, Note Name: C#2
Note ON: Time 373080, Note Name: G#2, Velocity: 39
Note OFF: Time 373200, Note Name: G#2
Note ON: Time 373320, Note Name: C#2, Velocity: 27
Note OFF: Time 373440, Note Name: C#2
Note ON: Time 373560, Note Name: C#3, Velocity: 37
Note OFF: Time 373680, Note Name: C#3
Note ON: Time 373800, Note Name: C#2, Velocity: 26
Note OFF: Time 373920, Note Name: C#2
Note ON: Time 374040, Note Name: F3, Velocity: 34
Note OFF: Time 374160, Note Name: F3
Note ON: Time 374280, Note Name: C#2, Velocity: 24
Note OFF: Time 374400, Note Name: C#2
Note ON: Time 374520, Note Name: G#3, Velocity: 32
Note OFF: Time 374640, Note Name: G#3
Note ON: Time 374760, Note Name: C#2, Velocity: 23
Note OFF: Time 374880, Note Name: C#2
Note ON: Time 375000, Note Name: C#4, Velocity: 29
Note OFF: Time 375118, Note Name: C#4
Note ON: Time 375240, Note Name: C#2, Velocity: 24
Note OFF: Time 375360, Note Name: C#2
Note ON: Time 375480, Note Name: C#4, Velocity: 28
Note OFF: Time 375598, Note Name: C#4
Note ON: Time 375720, Note Name: C#2, Velocity: 21
Note OFF: Time 375840, Note Name: C#2
Note ON: Time 375960, Note Name: F#3, Velocity: 21
Note ON: Time 375960, Note Name: C#4, Velocity: 21
Note OFF: Time 376080, Note Name: C#4
Note OFF: Time 376080, Note Name: F#3
Note ON: Time 376200, Note Name: B1, Velocity: 101
Note OFF: Time 376320, Note Name: B1
Note ON: Time 376320, Note Name: D4, Velocity: 97
Note ON: Time 376320, Note Name: F#3, Velocity: 81
Note ON: Time 376320, Note Name: B3, Velocity: 81
Note OFF: Time 376677, Note Name: B3
Note OFF: Time 376677, Note Name: F#3
Note OFF: Time 376677, Note Name: D4
Note ON: Time 376680, Note Name: D4, Velocity: 88
Note ON: Time 376680, Note Name: B3, Velocity: 73
Note ON: Time 376680, Note Name: F#3, Velocity: 73
Note OFF: Time 376799, Note Name: F#3
Note OFF: Time 376799, Note Name: B3
Note OFF: Time 376799, Note Name: D4
Note ON: Time 376800, Note Name: F#3, Velocity: 81
Note ON: Time 376800, Note Name: B3, Velocity: 81
Note ON: Time 376800, Note Name: D4, Velocity: 97
Note OFF: Time 377040, Note Name: D4
Note OFF: Time 377040, Note Name: B3
Note OFF: Time 377040, Note Name: F#3
Note ON: Time 377040, Note Name: F#3, Velocity: 79
Note ON: Time 377040, Note Name: D4, Velocity: 91
Note ON: Time 377040, Note Name: B3, Velocity: 79
Note OFF: Time 377085, Note Name: B3
Note OFF: Time 377085, Note Name: D4
Note OFF: Time 377085, Note Name: F#3
Note ON: Time 377160, Note Name: F#3, Velocity: 81
Note ON: Time 377160, Note Name: D4, Velocity: 97
Note ON: Time 377160, Note Name: B3, Velocity: 81
Note OFF: Time 377205, Note Name: B3
Note OFF: Time 377205, Note Name: D4
Note OFF: Time 377205, Note Name: F#3
Note ON: Time 377280, Note Name: F#3, Velocity: 81
Note ON: Time 377280, Note Name: D4, Velocity: 97
Note ON: Time 377280, Note Name: B3, Velocity: 81
Note OFF: Time 377400, Note Name: B3
Note OFF: Time 377400, Note Name: D4
Note OFF: Time 377400, Note Name: F#3
Note ON: Time 377520, Note Name: D3, Velocity: 81
Note ON: Time 377520, Note Name: B3, Velocity: 97
Note ON: Time 377520, Note Name: F#3, Velocity: 81
Note OFF: Time 377640, Note Name: F#3
Note OFF: Time 377640, Note Name: B3
Note OFF: Time 377640, Note Name: D3
Note ON: Time 378120, Note Name: B2, Velocity: 39
Note OFF: Time 378240, Note Name: B2
Note ON: Time 378240, Note Name: D4, Velocity: 45
Note OFF: Time 378600, Note Name: D4
Note ON: Time 378600, Note Name: B2, Velocity: 42
Note OFF: Time 378720, Note Name: B2
Note ON: Time 378720, Note Name: D4, Velocity: 49
Note OFF: Time 379080, Note Name: D4
Note ON: Time 379080, Note Name: B2, Velocity: 45
Note OFF: Time 379200, Note Name: B2
Note ON: Time 379200, Note Name: D4, Velocity: 53
Note OFF: Time 379560, Note Name: D4
Note ON: Time 379560, Note Name: G2, Velocity: 45
Note OFF: Time 379680, Note Name: G2
Note ON: Time 379680, Note Name: B3, Velocity: 58
Note OFF: Time 380040, Note Name: B3
Note ON: Time 380040, Note Name: G2, Velocity: 51
Note OFF: Time 380160, Note Name: G2
Note ON: Time 380160, Note Name: B3, Velocity: 57
Note OFF: Time 380520, Note Name: B3
Note ON: Time 380520, Note Name: G2, Velocity: 49
Note OFF: Time 380640, Note Name: G2
Note ON: Time 380640, Note Name: B3, Velocity: 62
Note OFF: Time 381000, Note Name: B3
Note ON: Time 381000, Note Name: G2, Velocity: 54
Note OFF: Time 381120, Note Name: G2
Note ON: Time 381120, Note Name: B3, Velocity: 61
Note OFF: Time 381480, Note Name: B3
Note ON: Time 381480, Note Name: C2, Velocity: 52
Note OFF: Time 381600, Note Name: C2
Note ON: Time 381600, Note Name: D#3, Velocity: 67
Note OFF: Time 381960, Note Name: D#3
Note ON: Time 381960, Note Name: C2, Velocity: 58
Note OFF: Time 382080, Note Name: C2
Note ON: Time 382080, Note Name: D#3, Velocity: 65
Note OFF: Time 382440, Note Name: D#3
Note ON: Time 382440, Note Name: C2, Velocity: 55
Note OFF: Time 382560, Note Name: C2
Note ON: Time 382560, Note Name: D#3, Velocity: 71
Note OFF: Time 382920, Note Name: D#3
Note ON: Time 382920, Note Name: C2, Velocity: 61
Note OFF: Time 383040, Note Name: C2
Note ON: Time 383040, Note Name: D#3, Velocity: 69
Note OFF: Time 383400, Note Name: D#3
Note ON: Time 383400, Note Name: F1, Velocity: 58
Note OFF: Time 383520, Note Name: F1
Note ON: Time 383520, Note Name: A2, Velocity: 74
Note OFF: Time 383880, Note Name: A2
Note ON: Time 383880, Note Name: F1, Velocity: 64
Note OFF: Time 384000, Note Name: F1
Note ON: Time 384000, Note Name: A2, Velocity: 72
Note OFF: Time 384360, Note Name: A2
Note ON: Time 384360, Note Name: F2, Velocity: 61
Note OFF: Time 384480, Note Name: F2
Note ON: Time 384480, Note Name: C2, Velocity: 79
Note OFF: Time 384840, Note Name: C2
Note ON: Time 384840, Note Name: F2, Velocity: 68
Note OFF: Time 384960, Note Name: F2
Note ON: Time 384960, Note Name: A1, Velocity: 76
Note OFF: Time 385320, Note Name: A1
Note ON: Time 385320, Note Name: F2, Velocity: 65
Note OFF: Time 385440, Note Name: F2
Note ON: Time 385440, Note Name: F#1, Velocity: 83
Note OFF: Time 385800, Note Name: F#1
Note ON: Time 385800, Note Name: F2, Velocity: 71
Note OFF: Time 385920, Note Name: F2
Note ON: Time 385920, Note Name: F1, Velocity: 78
Note ON: Time 385920, Note Name: F2, Velocity: 85
Note OFF: Time 386160, Note Name: F2
Note OFF: Time 386160, Note Name: F1
Note ON: Time 386160, Note Name: F#5, Velocity: 48
Note OFF: Time 386280, Note Name: F#5
Note ON: Time 386280, Note Name: F5, Velocity: 48
Note OFF: Time 386400, Note Name: F5
Note ON: Time 386400, Note Name: F#5, Velocity: 54
Note OFF: Time 386640, Note Name: F#5
Note ON: Time 386640, Note Name: F5, Velocity: 44
Note OFF: Time 386760, Note Name: F5
Note ON: Time 386760, Note Name: E5, Velocity: 44
Note OFF: Time 386880, Note Name: E5
Note ON: Time 386880, Note Name: F5, Velocity: 44
Note OFF: Time 387120, Note Name: F5
Note ON: Time 387120, Note Name: F#4, Velocity: 43
Note OFF: Time 387240, Note Name: F#4
Note ON: Time 387240, Note Name: F4, Velocity: 43
Note OFF: Time 387360, Note Name: F4
Note ON: Time 387360, Note Name: F#4, Velocity: 51
Note OFF: Time 387600, Note Name: F#4
Note ON: Time 387600, Note Name: F4, Velocity: 43
Note OFF: Time 387720, Note Name: F4
Note ON: Time 387720, Note Name: E4, Velocity: 43
Note OFF: Time 387840, Note Name: E4
Note ON: Time 387840, Note Name: F3, Velocity: 40
Note ON: Time 387840, Note Name: A3, Velocity: 40
Note ON: Time 387840, Note Name: C4, Velocity: 40
Note ON: Time 387840, Note Name: D#4, Velocity: 51
Note OFF: Time 388080, Note Name: D#4
Note OFF: Time 388080, Note Name: F3
Note OFF: Time 388080, Note Name: A3
Note OFF: Time 388080, Note Name: C4
Note ON: Time 388200, Note Name: F3, Velocity: 42
Note OFF: Time 388320, Note Name: F3
Note ON: Time 388320, Note Name: A3, Velocity: 51
Note OFF: Time 388560, Note Name: A3
Note ON: Time 388680, Note Name: C4, Velocity: 40
Note OFF: Time 388800, Note Name: C4
Note ON: Time 388800, Note Name: F4, Velocity: 51
Note OFF: Time 389040, Note Name: F4
Note ON: Time 389160, Note Name: A4, Velocity: 43
Note OFF: Time 389280, Note Name: A4
Note ON: Time 389280, Note Name: C5, Velocity: 51
Note OFF: Time 389520, Note Name: C5
Note ON: Time 389520, Note Name: D#5, Velocity: 45
Note OFF: Time 389640, Note Name: D#5
Note ON: Time 389640, Note Name: C5, Velocity: 45
Note OFF: Time 389760, Note Name: C5
Note ON: Time 389760, Note Name: G4, Velocity: 40
Note OFF: Time 389880, Note Name: G4
Note ON: Time 389880, Note Name: A4, Velocity: 40
Note OFF: Time 390000, Note Name: A4
Note ON: Time 390000, Note Name: A#4, Velocity: 44
Note OFF: Time 390120, Note Name: A#4
Note ON: Time 390120, Note Name: G4, Velocity: 40
Note OFF: Time 390240, Note Name: G4
Note ON: Time 390240, Note Name: D#4, Velocity: 40
Note OFF: Time 390360, Note Name: D#4
Note ON: Time 390360, Note Name: F4, Velocity: 40
Note OFF: Time 390480, Note Name: F4
Note ON: Time 390480, Note Name: G4, Velocity: 45
Note OFF: Time 390600, Note Name: G4
Note ON: Time 390600, Note Name: D#4, Velocity: 40
Note OFF: Time 390720, Note Name: D#4
Note ON: Time 390720, Note Name: C4, Velocity: 40
Note OFF: Time 390840, Note Name: C4
Note ON: Time 390840, Note Name: D4, Velocity: 40
Note OFF: Time 390960, Note Name: D4
Note ON: Time 390960, Note Name: D#4, Velocity: 45
Note OFF: Time 391080, Note Name: D#4
Note ON: Time 391080, Note Name: C4, Velocity: 40
Note OFF: Time 391200, Note Name: C4
Note ON: Time 391200, Note Name: A3, Velocity: 40
Note OFF: Time 391320, Note Name: A3
Note ON: Time 391320, Note Name: A#3, Velocity: 40
Note OFF: Time 391440, Note Name: A#3
Note ON: Time 391440, Note Name: C4, Velocity: 45
Note OFF: Time 391560, Note Name: C4
Note ON: Time 391560, Note Name: A3, Velocity: 40
Note OFF: Time 391680, Note Name: A3
Note ON: Time 391680, Note Name: D4, Velocity: 51
Note ON: Time 391680, Note Name: F3, Velocity: 48
Note ON: Time 391680, Note Name: A#3, Velocity: 48
Note OFF: Time 391920, Note Name: A#3
Note OFF: Time 391920, Note Name: F3
Note OFF: Time 391920, Note Name: D4
Note ON: Time 392040, Note Name: F3, Velocity: 42
Note OFF: Time 392160, Note Name: F3
Note ON: Time 392160, Note Name: A#3, Velocity: 51
Note OFF: Time 392400, Note Name: A#3
Note ON: Time 392520, Note Name: D4, Velocity: 40
Note OFF: Time 392640, Note Name: D4
Note ON: Time 392640, Note Name: F4, Velocity: 51
Note OFF: Time 392880, Note Name: F4
Note ON: Time 393000, Note Name: A#4, Velocity: 43
Note OFF: Time 393120, Note Name: A#4
Note ON: Time 393120, Note Name: D5, Velocity: 51
Note OFF: Time 393360, Note Name: D5
Note ON: Time 393360, Note Name: D4, Velocity: 45
Note OFF: Time 393480, Note Name: D4
Note ON: Time 393480, Note Name: A#3, Velocity: 45
Note OFF: Time 393600, Note Name: A#3
Note ON: Time 393600, Note Name: A#4, Velocity: 40
Note OFF: Time 393720, Note Name: A#4
Note ON: Time 393720, Note Name: C5, Velocity: 40
Note OFF: Time 393840, Note Name: C5
Note ON: Time 393840, Note Name: D5, Velocity: 44
Note OFF: Time 393960, Note Name: D5
Note ON: Time 393960, Note Name: A#4, Velocity: 40
Note OFF: Time 394080, Note Name: A#4
Note ON: Time 394080, Note Name: D4, Velocity: 40
Note OFF: Time 394200, Note Name: D4
Note ON: Time 394200, Note Name: D#4, Velocity: 40
Note OFF: Time 394320, Note Name: D#4
Note ON: Time 394320, Note Name: F4, Velocity: 45
Note OFF: Time 394440, Note Name: F4
Note ON: Time 394440, Note Name: D4, Velocity: 40
Note OFF: Time 394560, Note Name: D4
Note ON: Time 394560, Note Name: A#3, Velocity: 40
Note OFF: Time 394680, Note Name: A#3
Note ON: Time 394680, Note Name: C4, Velocity: 40
Note OFF: Time 394800, Note Name: C4
Note ON: Time 394800, Note Name: D4, Velocity: 45
Note OFF: Time 394920, Note Name: D4
Note ON: Time 394920, Note Name: A#3, Velocity: 40
Note OFF: Time 395038, Note Name: A#3
Note ON: Time 395040, Note Name: D5, Velocity: 40
Note OFF: Time 395160, Note Name: D5
Note ON: Time 395160, Note Name: D#5, Velocity: 40
Note OFF: Time 395280, Note Name: D#5
Note ON: Time 395280, Note Name: F5, Velocity: 45
Note OFF: Time 395400, Note Name: F5
Note ON: Time 395400, Note Name: D5, Velocity: 40
Note OFF: Time 395520, Note Name: D5
Note ON: Time 395520, Note Name: D#5, Velocity: 40
Note OFF: Time 395640, Note Name: D#5
Note ON: Time 395640, Note Name: F5, Velocity: 40
Note OFF: Time 395760, Note Name: F5
Note ON: Time 395760, Note Name: D#5, Velocity: 45
Note OFF: Time 395880, Note Name: D#5
Note ON: Time 395880, Note Name: D5, Velocity: 40
Note OFF: Time 396000, Note Name: D5
Note ON: Time 396000, Note Name: D#5, Velocity: 40
Note OFF: Time 396120, Note Name: D#5
Note ON: Time 396120, Note Name: F5, Velocity: 40
Note OFF: Time 396240, Note Name: F5
Note ON: Time 396240, Note Name: G5, Velocity: 45
Note OFF: Time 396360, Note Name: G5
Note ON: Time 396360, Note Name: D#5, Velocity: 40
Note OFF: Time 396480, Note Name: D#5
Note ON: Time 396480, Note Name: C5, Velocity: 46
Note OFF: Time 396600, Note Name: C5
Note ON: Time 396600, Note Name: D5, Velocity: 38
Note OFF: Time 396720, Note Name: D5
Note ON: Time 396720, Note Name: D#5, Velocity: 45
Note OFF: Time 396840, Note Name: D#5
Note ON: Time 396840, Note Name: C5, Velocity: 40
Note OFF: Time 396960, Note Name: C5
Note ON: Time 396960, Note Name: A4, Velocity: 45
Note OFF: Time 397080, Note Name: A4
Note ON: Time 397080, Note Name: A#4, Velocity: 36
Note OFF: Time 397200, Note Name: A#4
Note ON: Time 397200, Note Name: C5, Velocity: 41
Note OFF: Time 397320, Note Name: C5
Note ON: Time 397320, Note Name: A4, Velocity: 36
Note OFF: Time 397440, Note Name: A4
Note ON: Time 397440, Note Name: D#4, Velocity: 46
Note OFF: Time 397560, Note Name: D#4
Note ON: Time 397560, Note Name: F4, Velocity: 38
Note OFF: Time 397680, Note Name: F4
Note ON: Time 397680, Note Name: F#4, Velocity: 45
Note OFF: Time 397800, Note Name: F#4
Note ON: Time 397800, Note Name: D#4, Velocity: 40
Note OFF: Time 397920, Note Name: D#4
Note ON: Time 397920, Note Name: C4, Velocity: 45
Note OFF: Time 398040, Note Name: C4
Note ON: Time 398040, Note Name: D4, Velocity: 36
Note OFF: Time 398160, Note Name: D4
Note ON: Time 398160, Note Name: D#4, Velocity: 41
Note OFF: Time 398280, Note Name: D#4
Note ON: Time 398280, Note Name: C4, Velocity: 36
Note OFF: Time 398400, Note Name: C4
Note ON: Time 398400, Note Name: A3, Velocity: 46
Note OFF: Time 398520, Note Name: A3
Note ON: Time 398520, Note Name: A#3, Velocity: 38
Note OFF: Time 398640, Note Name: A#3
Note ON: Time 398640, Note Name: C4, Velocity: 45
Note OFF: Time 398760, Note Name: C4
Note ON: Time 398760, Note Name: A3, Velocity: 40
Note OFF: Time 398880, Note Name: A3
Note ON: Time 398880, Note Name: C5, Velocity: 45
Note OFF: Time 399000, Note Name: C5
Note ON: Time 399000, Note Name: A#4, Velocity: 36
Note OFF: Time 399120, Note Name: A#4
Note ON: Time 399120, Note Name: A4, Velocity: 41
Note OFF: Time 399240, Note Name: A4
Note ON: Time 399240, Note Name: C5, Velocity: 36
Note OFF: Time 399360, Note Name: C5
Note ON: Time 399360, Note Name: D5, Velocity: 40
Note OFF: Time 399480, Note Name: D5
Note ON: Time 399480, Note Name: D#5, Velocity: 40
Note OFF: Time 399600, Note Name: D#5
Note ON: Time 399600, Note Name: D5, Velocity: 45
Note OFF: Time 399720, Note Name: D5
Note ON: Time 399720, Note Name: C5, Velocity: 40
Note OFF: Time 399840, Note Name: C5
Note ON: Time 399840, Note Name: D5, Velocity: 40
Note OFF: Time 399960, Note Name: D5
Note ON: Time 399960, Note Name: D#5, Velocity: 40
Note OFF: Time 400080, Note Name: D#5
Note ON: Time 400080, Note Name: F5, Velocity: 45
Note OFF: Time 400200, Note Name: F5
Note ON: Time 400200, Note Name: D5, Velocity: 40
Note OFF: Time 400320, Note Name: D5
Note ON: Time 400320, Note Name: A#4, Velocity: 46
Note OFF: Time 400440, Note Name: A#4
Note ON: Time 400440, Note Name: C5, Velocity: 38
Note OFF: Time 400560, Note Name: C5
Note ON: Time 400560, Note Name: D5, Velocity: 45
Note OFF: Time 400680, Note Name: D5
Note ON: Time 400680, Note Name: A#4, Velocity: 40
Note OFF: Time 400800, Note Name: A#4
Note ON: Time 400800, Note Name: F4, Velocity: 45
Note OFF: Time 400920, Note Name: F4
Note ON: Time 400920, Note Name: A4, Velocity: 36
Note OFF: Time 401040, Note Name: A4
Note ON: Time 401040, Note Name: A#4, Velocity: 41
Note OFF: Time 401160, Note Name: A#4
Note ON: Time 401160, Note Name: F4, Velocity: 36
Note OFF: Time 401280, Note Name: F4
Note ON: Time 401280, Note Name: D4, Velocity: 46
Note OFF: Time 401400, Note Name: D4
Note ON: Time 401400, Note Name: D#4, Velocity: 38
Note OFF: Time 401520, Note Name: D#4
Note ON: Time 401520, Note Name: F4, Velocity: 45
Note OFF: Time 401640, Note Name: F4
Note ON: Time 401640, Note Name: D4, Velocity: 40
Note OFF: Time 401760, Note Name: D4
Note ON: Time 401760, Note Name: A#3, Velocity: 45
Note OFF: Time 401880, Note Name: A#3
Note ON: Time 401880, Note Name: C4, Velocity: 36
Note OFF: Time 402000, Note Name: C4
Note ON: Time 402000, Note Name: D4, Velocity: 41
Note OFF: Time 402120, Note Name: D4
Note ON: Time 402120, Note Name: A#3, Velocity: 36
Note OFF: Time 402240, Note Name: A#3
Note ON: Time 402240, Note Name: F3, Velocity: 46
Note OFF: Time 402360, Note Name: F3
Note ON: Time 402360, Note Name: A3, Velocity: 38
Note OFF: Time 402480, Note Name: A3
Note ON: Time 402480, Note Name: A#3, Velocity: 45
Note OFF: Time 402600, Note Name: A#3
Note ON: Time 402600, Note Name: F3, Velocity: 40
Note OFF: Time 402720, Note Name: F3
Note ON: Time 402720, Note Name: D#3, Velocity: 45
Note OFF: Time 402840, Note Name: D#3
Note ON: Time 402840, Note Name: A#3, Velocity: 36
Note OFF: Time 402960, Note Name: A#3
Note ON: Time 402960, Note Name: F3, Velocity: 41
Note OFF: Time 403080, Note Name: F3
Note ON: Time 403080, Note Name: D#3, Velocity: 36
Note OFF: Time 403200, Note Name: D#3
Note ON: Time 403200, Note Name: D3, Velocity: 36
Note OFF: Time 403440, Note Name: D3
Note ON: Time 403440, Note Name: A#2, Velocity: 34
Note ON: Time 403440, Note Name: A#3, Velocity: 40
Note OFF: Time 403680, Note Name: A#3
Note OFF: Time 403680, Note Name: A#2
Note ON: Time 403680, Note Name: G3, Velocity: 36
Note ON: Time 403680, Note Name: D#3, Velocity: 30
Note OFF: Time 403800, Note Name: D#3
Note OFF: Time 403800, Note Name: G3
Note ON: Time 403920, Note Name: D#4, Velocity: 40
Note OFF: Time 404040, Note Name: D#4
Note ON: Time 404040, Note Name: C4, Velocity: 36
Note OFF: Time 404160, Note Name: C4
Note ON: Time 404160, Note Name: A3, Velocity: 36
Note OFF: Time 404400, Note Name: A3
Note ON: Time 404400, Note Name: F3, Velocity: 34
Note ON: Time 404400, Note Name: F4, Velocity: 36
Note OFF: Time 404640, Note Name: F4
Note OFF: Time 404640, Note Name: F3
Note ON: Time 404640, Note Name: D4, Velocity: 36
Note ON: Time 404640, Note Name: A#3, Velocity: 30
Note OFF: Time 404760, Note Name: A#3
Note OFF: Time 404760, Note Name: D4
Note ON: Time 405360, Note Name: E4, Velocity: 30
Note ON: Time 405360, Note Name: C#4, Velocity: 26
Note ON: Time 405360, Note Name: A#3, Velocity: 26
Note ON: Time 405360, Note Name: G4, Velocity: 36
Note OFF: Time 405600, Note Name: G4
Note OFF: Time 405600, Note Name: E4
Note OFF: Time 405600, Note Name: C#4
Note OFF: Time 405600, Note Name: A#3
Note ON: Time 405600, Note Name: F4, Velocity: 34
Note ON: Time 405600, Note Name: A4, Velocity: 40
Note ON: Time 405600, Note Name: C4, Velocity: 34
Note OFF: Time 405840, Note Name: C4
Note OFF: Time 405840, Note Name: A4
Note OFF: Time 405840, Note Name: F4
Note ON: Time 405840, Note Name: G4, Velocity: 27
Note ON: Time 405840, Note Name: C4, Velocity: 25
Note ON: Time 405840, Note Name: A#4, Velocity: 30
Note OFF: Time 405960, Note Name: A#4
Note OFF: Time 405960, Note Name: G4
Note ON: Time 405960, Note Name: C5, Velocity: 36
Note OFF: Time 406080, Note Name: C5
Note OFF: Time 406080, Note Name: C4
Note ON: Time 406080, Note Name: C5, Velocity: 36
Note ON: Time 406080, Note Name: F4, Velocity: 30
Note OFF: Time 406320, Note Name: F4
Note OFF: Time 406320, Note Name: C5
Note ON: Time 406320, Note Name: F4, Velocity: 30
Note ON: Time 406320, Note Name: D5, Velocity: 36
Note OFF: Time 406500, Note Name: D5
Note ON: Time 406500, Note Name: E5, Velocity: 31
Note OFF: Time 406560, Note Name: E5
Note OFF: Time 406560, Note Name: F4
Note ON: Time 406560, Note Name: F4, Velocity: 30
Note ON: Time 406560, Note Name: F5, Velocity: 36
Note OFF: Time 406800, Note Name: F5
Note OFF: Time 406800, Note Name: F4
Note ON: Time 406800, Note Name: G4, Velocity: 37
Note OFF: Time 406920, Note Name: G4
Note ON: Time 406920, Note Name: A4, Velocity: 36
Note OFF: Time 407040, Note Name: A4
Note ON: Time 407040, Note Name: A#4, Velocity: 36
Note OFF: Time 407278, Note Name: A#4
Note ON: Time 407280, Note Name: F4, Velocity: 36
Note ON: Time 407280, Note Name: D4, Velocity: 30
Note OFF: Time 407520, Note Name: D4
Note OFF: Time 407520, Note Name: F4
Note ON: Time 407520, Note Name: D#4, Velocity: 30
Note ON: Time 407520, Note Name: G4, Velocity: 36
Note OFF: Time 407640, Note Name: G4
Note OFF: Time 407640, Note Name: D#4
Note ON: Time 407760, Note Name: C5, Velocity: 36
Note OFF: Time 407880, Note Name: C5
Note ON: Time 407880, Note Name: D#5, Velocity: 32
Note OFF: Time 408000, Note Name: D#5
Note ON: Time 408000, Note Name: F5, Velocity: 36
Note OFF: Time 408238, Note Name: F5
Note ON: Time 408240, Note Name: A4, Velocity: 30
Note ON: Time 408240, Note Name: C5, Velocity: 36
Note OFF: Time 408480, Note Name: C5
Note OFF: Time 408480, Note Name: A4
Note ON: Time 408480, Note Name: A#4, Velocity: 30
Note ON: Time 408480, Note Name: D5, Velocity: 36
Note OFF: Time 408600, Note Name: D5
Note OFF: Time 408600, Note Name: A#4
Note ON: Time 408720, Note Name: G4, Velocity: 41
Note OFF: Time 408840, Note Name: G4
Note ON: Time 408840, Note Name: F#4, Velocity: 36
Note OFF: Time 408960, Note Name: F#4
Note ON: Time 408960, Note Name: G4, Velocity: 36
Note OFF: Time 409200, Note Name: G4
Note ON: Time 409200, Note Name: D#5, Velocity: 36
Note ON: Time 409200, Note Name: A#4, Velocity: 30
Note ON: Time 409200, Note Name: G4, Velocity: 30
Note OFF: Time 409440, Note Name: G4
Note OFF: Time 409440, Note Name: A#4
Note OFF: Time 409440, Note Name: D#5
Note ON: Time 409440, Note Name: G4, Velocity: 30
Note ON: Time 409440, Note Name: C5, Velocity: 36
Note OFF: Time 409680, Note Name: C5
Note OFF: Time 409680, Note Name: G4
Note ON: Time 409680, Note Name: A4, Velocity: 30
Note ON: Time 409680, Note Name: F#4, Velocity: 30
Note OFF: Time 409918, Note Name: F#4
Note OFF: Time 409918, Note Name: A4
Note ON: Time 409920, Note Name: A4, Velocity: 30
Note ON: Time 409920, Note Name: F#4, Velocity: 30
Note OFF: Time 410160, Note Name: F#4
Note OFF: Time 410160, Note Name: A4
Note ON: Time 410160, Note Name: F#4, Velocity: 31
Note ON: Time 410160, Note Name: D4, Velocity: 26
Note OFF: Time 410400, Note Name: D4
Note OFF: Time 410400, Note Name: F#4
Note ON: Time 410400, Note Name: G4, Velocity: 30
Note ON: Time 410400, Note Name: A#4, Velocity: 36
Note OFF: Time 410640, Note Name: A#4
Note OFF: Time 410640, Note Name: G4
Note ON: Time 410640, Note Name: F4, Velocity: 34
Note ON: Time 410640, Note Name: G#4, Velocity: 40
Note OFF: Time 410760, Note Name: G#4
Note OFF: Time 410760, Note Name: F4
Note ON: Time 410760, Note Name: G4, Velocity: 36
Note ON: Time 410760, Note Name: E4, Velocity: 30
Note OFF: Time 410879, Note Name: E4
Note OFF: Time 410879, Note Name: G4
Note ON: Time 410880, Note Name: E4, Velocity: 30
Note ON: Time 410880, Note Name: G4, Velocity: 36
Note OFF: Time 411120, Note Name: G4
Note OFF: Time 411120, Note Name: E4
Note ON: Time 411120, Note Name: C4, Velocity: 26
Note ON: Time 411120, Note Name: E4, Velocity: 31
Note OFF: Time 411360, Note Name: E4
Note OFF: Time 411360, Note Name: C4
Note ON: Time 411360, Note Name: F4, Velocity: 30
Note ON: Time 411360, Note Name: G#4, Velocity: 36
Note OFF: Time 411600, Note Name: G#4
Note OFF: Time 411600, Note Name: F4
Note ON: Time 411600, Note Name: F#4, Velocity: 40
Note ON: Time 411600, Note Name: D#4, Velocity: 34
Note OFF: Time 411720, Note Name: D#4
Note OFF: Time 411720, Note Name: F#4
Note ON: Time 411720, Note Name: F4, Velocity: 36
Note ON: Time 411720, Note Name: D4, Velocity: 30
Note OFF: Time 411839, Note Name: D4
Note OFF: Time 411839, Note Name: F4
Note ON: Time 411840, Note Name: D4, Velocity: 30
Note ON: Time 411840, Note Name: F4, Velocity: 36
Note OFF: Time 412080, Note Name: F4
Note OFF: Time 412080, Note Name: D4
Note ON: Time 412080, Note Name: D4, Velocity: 31
Note ON: Time 412080, Note Name: A#3, Velocity: 26
Note OFF: Time 412320, Note Name: A#3
Note OFF: Time 412320, Note Name: D4
Note ON: Time 412320, Note Name: D#4, Velocity: 30
Note ON: Time 412320, Note Name: G4, Velocity: 36
Note OFF: Time 412560, Note Name: G4
Note OFF: Time 412560, Note Name: D#4
Note ON: Time 412560, Note Name: F4, Velocity: 40
Note ON: Time 412560, Note Name: D4, Velocity: 34
Note OFF: Time 412680, Note Name: D4
Note OFF: Time 412680, Note Name: F4
Note ON: Time 412680, Note Name: C#4, Velocity: 30
Note ON: Time 412680, Note Name: E4, Velocity: 36
Note OFF: Time 412799, Note Name: E4
Note OFF: Time 412799, Note Name: C#4
Note ON: Time 412800, Note Name: C#4, Velocity: 30
Note ON: Time 412800, Note Name: E4, Velocity: 36
Note OFF: Time 413040, Note Name: E4
Note OFF: Time 413040, Note Name: C#4
Note ON: Time 413040, Note Name: C#4, Velocity: 31
Note ON: Time 413040, Note Name: A3, Velocity: 26
Note OFF: Time 413280, Note Name: A3
Note OFF: Time 413280, Note Name: C#4
Note ON: Time 413280, Note Name: F4, Velocity: 36
Note ON: Time 413280, Note Name: D4, Velocity: 30
Note OFF: Time 413520, Note Name: D4
Note OFF: Time 413520, Note Name: F4
Note ON: Time 413520, Note Name: D#4, Velocity: 40
Note ON: Time 413520, Note Name: C4, Velocity: 34
Note OFF: Time 413640, Note Name: C4
Note OFF: Time 413640, Note Name: D#4
Note ON: Time 413640, Note Name: D4, Velocity: 36
Note ON: Time 413640, Note Name: B3, Velocity: 30
Note OFF: Time 413759, Note Name: B3
Note OFF: Time 413759, Note Name: D4
Note ON: Time 413760, Note Name: D4, Velocity: 36
Note ON: Time 413760, Note Name: B3, Velocity: 30
Note OFF: Time 414000, Note Name: B3
Note OFF: Time 414000, Note Name: D4
Note ON: Time 414000, Note Name: C4, Velocity: 36
Note ON: Time 414000, Note Name: D#4, Velocity: 30
Note OFF: Time 414120, Note Name: C4
Note ON: Time 414120, Note Name: A#3, Velocity: 30
Note OFF: Time 414240, Note Name: A#3
Note OFF: Time 414240, Note Name: D#4
Note ON: Time 414240, Note Name: A3, Velocity: 30
Note ON: Time 414240, Note Name: C4, Velocity: 36
Note OFF: Time 414480, Note Name: C4
Note OFF: Time 414480, Note Name: A3
Note ON: Time 414480, Note Name: A#3, Velocity: 36
Note ON: Time 414480, Note Name: D4, Velocity: 30
Note OFF: Time 414600, Note Name: A#3
Note ON: Time 414600, Note Name: D3, Velocity: 32
Note OFF: Time 414720, Note Name: D3
Note OFF: Time 414720, Note Name: D4
Note ON: Time 414720, Note Name: F3, Velocity: 25
Note ON: Time 414720, Note Name: D#4, Velocity: 30
Note ON: Time 414720, Note Name: C3, Velocity: 25
Note OFF: Time 416160, Note Name: C3
Note OFF: Time 416160, Note Name: D#4
Note OFF: Time 416160, Note Name: F3
Note ON: Time 416160, Note Name: D4, Velocity: 30
Note ON: Time 416160, Note Name: D3, Velocity: 25
Note ON: Time 416160, Note Name: F3, Velocity: 25
Note OFF: Time 416640, Note Name: F3
Note OFF: Time 416640, Note Name: D3
Note OFF: Time 416640, Note Name: D4
Note ON: Time 416640, Note Name: C2, Velocity: 25
Note ON: Time 416640, Note Name: D#3, Velocity: 30
Note ON: Time 416640, Note Name: F2, Velocity: 25
Note OFF: Time 418080, Note Name: F2
Note OFF: Time 418080, Note Name: D#3
Note OFF: Time 418080, Note Name: C2
Note ON: Time 418080, Note Name: D2, Velocity: 25
Note ON: Time 418080, Note Name: F2, Velocity: 25
Note ON: Time 418080, Note Name: D3, Velocity: 30
Note OFF: Time 418560, Note Name: D3
Note OFF: Time 418560, Note Name: F2
Note OFF: Time 418560, Note Name: D2
Note ON: Time 418560, Note Name: D3, Velocity: 30
Note ON: Time 418560, Note Name: D2, Velocity: 25
Note OFF: Time 419040, Note Name: D2
Note OFF: Time 419040, Note Name: D3
Note ON: Time 419040, Note Name: G2, Velocity: 23
Note ON: Time 419040, Note Name: G3, Velocity: 28
Note OFF: Time 419520, Note Name: G3
Note OFF: Time 419520, Note Name: G2
Note ON: Time 419520, Note Name: E3, Velocity: 30
Note ON: Time 419520, Note Name: E2, Velocity: 25
Note OFF: Time 420000, Note Name: E2
Note OFF: Time 420000, Note Name: E3
Note ON: Time 420000, Note Name: F3, Velocity: 29
Note ON: Time 420000, Note Name: F2, Velocity: 24
Note OFF: Time 420240, Note Name: F2
Note OFF: Time 420240, Note Name: F3
Note ON: Time 420480, Note Name: C4, Velocity: 25
Note ON: Time 420480, Note Name: D#5, Velocity: 30
Note ON: Time 420480, Note Name: F4, Velocity: 25
Note OFF: Time 421920, Note Name: F4
Note OFF: Time 421920, Note Name: D#5
Note OFF: Time 421920, Note Name: C4
Note ON: Time 421920, Note Name: D5, Velocity: 30
Note ON: Time 421920, Note Name: D4, Velocity: 25
Note ON: Time 421920, Note Name: F4, Velocity: 25
Note OFF: Time 422400, Note Name: F4
Note OFF: Time 422400, Note Name: D4
Note OFF: Time 422400, Note Name: D5
Note ON: Time 422400, Note Name: D#4, Velocity: 30
Note ON: Time 422400, Note Name: C3, Velocity: 25
Note ON: Time 422400, Note Name: F3, Velocity: 25
Note OFF: Time 423840, Note Name: F3
Note OFF: Time 423840, Note Name: C3
Note OFF: Time 423840, Note Name: D#4
Note ON: Time 423840, Note Name: D3, Velocity: 25
Note ON: Time 423840, Note Name: D4, Velocity: 30
Note ON: Time 423840, Note Name: F3, Velocity: 25
Note OFF: Time 424320, Note Name: F3
Note OFF: Time 424320, Note Name: D4
Note OFF: Time 424320, Note Name: D3
Note ON: Time 424320, Note Name: D3, Velocity: 25
Note ON: Time 424320, Note Name: D4, Velocity: 30
Note OFF: Time 424800, Note Name: D4
Note OFF: Time 424800, Note Name: D3
Note ON: Time 424800, Note Name: G3, Velocity: 23
Note ON: Time 424800, Note Name: G4, Velocity: 28
Note OFF: Time 425280, Note Name: G4
Note OFF: Time 425280, Note Name: G3
Note ON: Time 425280, Note Name: E3, Velocity: 25
Note ON: Time 425280, Note Name: E4, Velocity: 30
Note OFF: Time 425760, Note Name: E4
Note OFF: Time 425760, Note Name: E3
Note ON: Time 425760, Note Name: F3, Velocity: 24
Note ON: Time 425760, Note Name: F4, Velocity: 29
Note OFF: Time 426000, Note Name: F4
Note OFF: Time 426000, Note Name: F3
Note ON: Time 426000, Note Name: F#3, Velocity: 24
Note ON: Time 426000, Note Name: F#4, Velocity: 29
Note OFF: Time 426240, Note Name: F#4
Note OFF: Time 426240, Note Name: F#3
Note ON: Time 426240, Note Name: G3, Velocity: 26
Note ON: Time 426240, Note Name: G4, Velocity: 31
Note OFF: Time 426720, Note Name: G4
Note OFF: Time 426720, Note Name: G3
Note ON: Time 426720, Note Name: C4, Velocity: 25
Note ON: Time 426720, Note Name: C5, Velocity: 30
Note OFF: Time 427200, Note Name: C5
Note OFF: Time 427200, Note Name: C4
Note ON: Time 427200, Note Name: A3, Velocity: 28
Note ON: Time 427200, Note Name: A4, Velocity: 33
Note OFF: Time 427680, Note Name: A4
Note OFF: Time 427680, Note Name: A3
Note ON: Time 427680, Note Name: A#3, Velocity: 28
Note ON: Time 427680, Note Name: A#4, Velocity: 34
Note OFF: Time 427920, Note Name: A#4
Note OFF: Time 427920, Note Name: A#3
Note ON: Time 427920, Note Name: B3, Velocity: 28
Note ON: Time 427920, Note Name: B4, Velocity: 34
Note OFF: Time 428160, Note Name: B4
Note OFF: Time 428160, Note Name: B3
Note ON: Time 428160, Note Name: C4, Velocity: 30
Note ON: Time 428160, Note Name: C5, Velocity: 36
Note OFF: Time 428640, Note Name: C5
Note OFF: Time 428640, Note Name: C4
Note ON: Time 428640, Note Name: E4, Velocity: 29
Note ON: Time 428640, Note Name: E5, Velocity: 35
Note OFF: Time 429120, Note Name: E5
Note OFF: Time 429120, Note Name: E4
Note ON: Time 429120, Note Name: D4, Velocity: 34
Note ON: Time 429120, Note Name: D5, Velocity: 39
Note OFF: Time 429600, Note Name: D5
Note OFF: Time 429600, Note Name: D4
Note ON: Time 429600, Note Name: D#4, Velocity: 39
Note ON: Time 429600, Note Name: D#5, Velocity: 39
Note OFF: Time 430320, Note Name: D#5
Note OFF: Time 430320, Note Name: D#4
Note ON: Time 430320, Note Name: D#2, Velocity: 56
Note ON: Time 430320, Note Name: D#3, Velocity: 66
Note OFF: Time 430560, Note Name: D#3
Note OFF: Time 430560, Note Name: D#2
Note ON: Time 431280, Note Name: G4, Velocity: 82
Note ON: Time 431280, Note Name: D#4, Velocity: 69
Note OFF: Time 431400, Note Name: D#4
Note OFF: Time 431400, Note Name: G4
Note ON: Time 431520, Note Name: D4, Velocity: 67
Note ON: Time 431520, Note Name: F4, Velocity: 79
Note OFF: Time 431760, Note Name: F4
Note OFF: Time 431760, Note Name: D4
Note ON: Time 431760, Note Name: D#4, Velocity: 68
Note ON: Time 431760, Note Name: G4, Velocity: 81
Note OFF: Time 431880, Note Name: G4
Note OFF: Time 431880, Note Name: D#4
Note ON: Time 431880, Note Name: G#4, Velocity: 84
Note ON: Time 431880, Note Name: F4, Velocity: 71
Note OFF: Time 432000, Note Name: F4
Note OFF: Time 432000, Note Name: G#4
Note ON: Time 432000, Note Name: A#4, Velocity: 88
Note ON: Time 432000, Note Name: G4, Velocity: 74
Note OFF: Time 432120, Note Name: G4
Note OFF: Time 432120, Note Name: A#4
Note ON: Time 432240, Note Name: D#3, Velocity: 66
Note ON: Time 432240, Note Name: D#2, Velocity: 56
Note OFF: Time 432480, Note Name: D#2
Note OFF: Time 432480, Note Name: D#3
Note ON: Time 433200, Note Name: E2, Velocity: 62
Note ON: Time 433200, Note Name: E3, Velocity: 74
Note OFF: Time 433440, Note Name: E3
Note OFF: Time 433440, Note Name: E2
Note ON: Time 433680, Note Name: C3, Velocity: 79
Note ON: Time 433680, Note Name: C2, Velocity: 67
Note OFF: Time 433920, Note Name: C2
Note OFF: Time 433920, Note Name: C3
Note ON: Time 434160, Note Name: F3, Velocity: 74
Note ON: Time 434160, Note Name: F2, Velocity: 62
Note OFF: Time 434400, Note Name: F2
Note OFF: Time 434400, Note Name: F3
Note ON: Time 434640, Note Name: G3, Velocity: 72
Note ON: Time 434640, Note Name: G2, Velocity: 61
Note OFF: Time 434880, Note Name: G2
Note OFF: Time 434880, Note Name: G3
Note ON: Time 434880, Note Name: F2, Velocity: 50
Note OFF: Time 435000, Note Name: F2
Note ON: Time 435000, Note Name: A2, Velocity: 50
Note OFF: Time 435120, Note Name: A2
Note ON: Time 435120, Note Name: A#2, Velocity: 50
Note OFF: Time 435240, Note Name: A#2
Note ON: Time 435240, Note Name: D3, Velocity: 50
Note OFF: Time 435360, Note Name: D3
Note ON: Time 435360, Note Name: F3, Velocity: 50
Note OFF: Time 435480, Note Name: F3
Note ON: Time 435480, Note Name: A3, Velocity: 50
Note OFF: Time 435600, Note Name: A3
Note ON: Time 435600, Note Name: A#3, Velocity: 50
Note OFF: Time 435720, Note Name: A#3
Note ON: Time 435720, Note Name: D4, Velocity: 50
Note OFF: Time 435840, Note Name: D4
Note ON: Time 435840, Note Name: F4, Velocity: 50
Note OFF: Time 435960, Note Name: F4
Note ON: Time 435960, Note Name: A4, Velocity: 50
Note OFF: Time 436080, Note Name: A4
Note ON: Time 436080, Note Name: A#4, Velocity: 50
Note OFF: Time 436200, Note Name: A#4
Note ON: Time 436200, Note Name: D5, Velocity: 50
Note OFF: Time 436320, Note Name: D5
Note ON: Time 436560, Note Name: A#4, Velocity: 43
Note OFF: Time 436680, Note Name: A#4
Note ON: Time 436680, Note Name: D5, Velocity: 44
Note OFF: Time 436800, Note Name: D5
Note ON: Time 436800, Note Name: E5, Velocity: 45
Note OFF: Time 436920, Note Name: E5
Note ON: Time 436920, Note Name: F5, Velocity: 46
Note OFF: Time 437040, Note Name: F5
Note ON: Time 437040, Note Name: G5, Velocity: 47
Note OFF: Time 437160, Note Name: G5
Note ON: Time 437160, Note Name: F5, Velocity: 48
Note OFF: Time 437280, Note Name: F5
Note ON: Time 437280, Note Name: A5, Velocity: 50
Note OFF: Time 437400, Note Name: A5
Note ON: Time 437400, Note Name: A#5, Velocity: 51
Note OFF: Time 437520, Note Name: A#5
Note ON: Time 437520, Note Name: C6, Velocity: 52
Note OFF: Time 437640, Note Name: C6
Note ON: Time 437640, Note Name: A#5, Velocity: 53
Note OFF: Time 437760, Note Name: A#5
Note ON: Time 437760, Note Name: C#6, Velocity: 54
Note OFF: Time 437880, Note Name: C#6
Note ON: Time 437880, Note Name: D6, Velocity: 55
Note OFF: Time 438000, Note Name: D6
Note ON: Time 438000, Note Name: D#6, Velocity: 56
Note OFF: Time 438120, Note Name: D#6
Note ON: Time 438120, Note Name: D6, Velocity: 58
Note OFF: Time 438240, Note Name: D6
Note ON: Time 438240, Note Name: F6, Velocity: 59
Note OFF: Time 438480, Note Name: F6
Note ON: Time 438480, Note Name: F4, Velocity: 60
Note OFF: Time 438560, Note Name: F4
Note ON: Time 438560, Note Name: G4, Velocity: 63
Note OFF: Time 438640, Note Name: G4
Note ON: Time 438640, Note Name: A4, Velocity: 66
Note OFF: Time 438720, Note Name: A4
Note ON: Time 438720, Note Name: A#3, Velocity: 40
Note OFF: Time 438880, Note Name: A#3
Note ON: Time 438880, Note Name: A#4, Velocity: 32
Note OFF: Time 439040, Note Name: A#4
Note ON: Time 439040, Note Name: A4, Velocity: 32
Note OFF: Time 439200, Note Name: A4
Note ON: Time 439200, Note Name: A#4, Velocity: 40
Note OFF: Time 439360, Note Name: A#4
Note ON: Time 439360, Note Name: A4, Velocity: 33
Note OFF: Time 439520, Note Name: A4
Note ON: Time 439520, Note Name: A#4, Velocity: 33
Note OFF: Time 439680, Note Name: A#4
Note ON: Time 439680, Note Name: F#4, Velocity: 40
Note OFF: Time 439840, Note Name: F#4
Note ON: Time 439840, Note Name: A#4, Velocity: 31
Note OFF: Time 440000, Note Name: A#4
Note ON: Time 440000, Note Name: F#4, Velocity: 31
Note OFF: Time 440160, Note Name: F#4
Note ON: Time 440160, Note Name: A#4, Velocity: 40
Note OFF: Time 440320, Note Name: A#4
Note ON: Time 440320, Note Name: D#4, Velocity: 33
Note OFF: Time 440480, Note Name: D#4
Note ON: Time 440480, Note Name: A#4, Velocity: 33
Note OFF: Time 440640, Note Name: A#4
Note ON: Time 440640, Note Name: D4, Velocity: 40
Note OFF: Time 440800, Note Name: D4
Note ON: Time 440800, Note Name: A#4, Velocity: 31
Note OFF: Time 440960, Note Name: A#4
Note ON: Time 440960, Note Name: F4, Velocity: 31
Note OFF: Time 441120, Note Name: F4
Note ON: Time 441120, Note Name: A#3, Velocity: 40
Note OFF: Time 441280, Note Name: A#3
Note ON: Time 441280, Note Name: A#4, Velocity: 32
Note OFF: Time 441440, Note Name: A#4
Note ON: Time 441440, Note Name: F4, Velocity: 32
Note OFF: Time 441600, Note Name: F4
Note ON: Time 441600, Note Name: D#4, Velocity: 40
Note OFF: Time 441760, Note Name: D#4
Note ON: Time 441760, Note Name: A#4, Velocity: 33
Note OFF: Time 441920, Note Name: A#4
Note ON: Time 441920, Note Name: D#4, Velocity: 33
Note OFF: Time 442080, Note Name: D#4
Note ON: Time 442080, Note Name: F#4, Velocity: 40
Note OFF: Time 442240, Note Name: F#4
Note ON: Time 442240, Note Name: A#4, Velocity: 32
Note OFF: Time 442400, Note Name: A#4
Note ON: Time 442400, Note Name: F#4, Velocity: 32
Note OFF: Time 442560, Note Name: F#4
Note ON: Time 442560, Note Name: F4, Velocity: 40
Note OFF: Time 442720, Note Name: F4
Note ON: Time 442720, Note Name: A#4, Velocity: 32
Note OFF: Time 442880, Note Name: A#4
Note ON: Time 442880, Note Name: F4, Velocity: 32
Note OFF: Time 443040, Note Name: F4
Note ON: Time 443040, Note Name: B4, Velocity: 40
Note OFF: Time 443200, Note Name: B4
Note ON: Time 443200, Note Name: F4, Velocity: 36
Note OFF: Time 443360, Note Name: F4
Note ON: Time 443360, Note Name: B4, Velocity: 36
Note OFF: Time 443520, Note Name: B4
Note ON: Time 443520, Note Name: F4, Velocity: 40
Note OFF: Time 443680, Note Name: F4
Note ON: Time 443680, Note Name: C5, Velocity: 33
Note OFF: Time 443840, Note Name: C5
Note ON: Time 443840, Note Name: A4, Velocity: 33
Note OFF: Time 444000, Note Name: A4
Note ON: Time 444000, Note Name: F3, Velocity: 40
Note OFF: Time 444160, Note Name: F3
Note ON: Time 444160, Note Name: C4, Velocity: 34
Note OFF: Time 444320, Note Name: C4
Note ON: Time 444320, Note Name: A3, Velocity: 34
Note OFF: Time 444480, Note Name: A3
Note ON: Time 444480, Note Name: A#2, Velocity: 40
Note OFF: Time 444600, Note Name: A#2
Note ON: Time 444600, Note Name: A#3, Velocity: 33
Note OFF: Time 444720, Note Name: A#3
Note ON: Time 444720, Note Name: D4, Velocity: 33
Note OFF: Time 444840, Note Name: D4
Note ON: Time 444840, Note Name: A#3, Velocity: 33
Note OFF: Time 444960, Note Name: A#3
Note ON: Time 444960, Note Name: F3, Velocity: 41
Note OFF: Time 445080, Note Name: F3
Note ON: Time 445080, Note Name: A#3, Velocity: 35
Note OFF: Time 445200, Note Name: A#3
Note ON: Time 445200, Note Name: G#4, Velocity: 35
Note OFF: Time 445320, Note Name: G#4
Note ON: Time 445320, Note Name: A#3, Velocity: 35
Note OFF: Time 445440, Note Name: A#3
Note ON: Time 445440, Note Name: G3, Velocity: 42
Note OFF: Time 445560, Note Name: G3
Note ON: Time 445560, Note Name: A#3, Velocity: 36
Note OFF: Time 445680, Note Name: A#3
Note ON: Time 445680, Note Name: A#4, Velocity: 36
Note OFF: Time 445800, Note Name: A#4
Note ON: Time 445800, Note Name: A#3, Velocity: 37
Note OFF: Time 445920, Note Name: A#3
Note ON: Time 445920, Note Name: D#3, Velocity: 44
Note OFF: Time 446040, Note Name: D#3
Note ON: Time 446040, Note Name: A#3, Velocity: 37
Note OFF: Time 446160, Note Name: A#3
Note ON: Time 446160, Note Name: G4, Velocity: 37
Note OFF: Time 446280, Note Name: G4
Note ON: Time 446280, Note Name: A#3, Velocity: 38
Note OFF: Time 446400, Note Name: A#3
Note ON: Time 446400, Note Name: D3, Velocity: 45
Note OFF: Time 446520, Note Name: D3
Note ON: Time 446520, Note Name: A#3, Velocity: 37
Note OFF: Time 446640, Note Name: A#3
Note ON: Time 446640, Note Name: F4, Velocity: 37
Note OFF: Time 446760, Note Name: F4
Note ON: Time 446760, Note Name: A#3, Velocity: 37
Note OFF: Time 446880, Note Name: A#3
Note ON: Time 446880, Note Name: A#2, Velocity: 46
Note OFF: Time 447000, Note Name: A#2
Note ON: Time 447000, Note Name: A#3, Velocity: 39
Note OFF: Time 447120, Note Name: A#3
Note ON: Time 447120, Note Name: D4, Velocity: 40
Note OFF: Time 447240, Note Name: D4
Note ON: Time 447240, Note Name: A#3, Velocity: 40
Note OFF: Time 447360, Note Name: A#3
Note ON: Time 447360, Note Name: D#3, Velocity: 48
Note OFF: Time 447480, Note Name: D#3
Note ON: Time 447480, Note Name: A#3, Velocity: 42
Note OFF: Time 447600, Note Name: A#3
Note ON: Time 447600, Note Name: G4, Velocity: 42
Note OFF: Time 447720, Note Name: G4
Note ON: Time 447720, Note Name: A#3, Velocity: 42
Note OFF: Time 447840, Note Name: A#3
Note ON: Time 447840, Note Name: G3, Velocity: 51
Note OFF: Time 447960, Note Name: G3
Note ON: Time 447960, Note Name: A#3, Velocity: 43
Note OFF: Time 448080, Note Name: A#3
Note ON: Time 448080, Note Name: A#4, Velocity: 43
Note OFF: Time 448200, Note Name: A#4
Note ON: Time 448200, Note Name: A#3, Velocity: 43
Note OFF: Time 448320, Note Name: A#3
Note ON: Time 448320, Note Name: F3, Velocity: 50
Note OFF: Time 448440, Note Name: F3
Note ON: Time 448440, Note Name: A#3, Velocity: 44
Note OFF: Time 448560, Note Name: A#3
Note ON: Time 448560, Note Name: A3, Velocity: 48
Note OFF: Time 448680, Note Name: A3
Note ON: Time 448680, Note Name: A#3, Velocity: 51
Note OFF: Time 448800, Note Name: A#3
Note ON: Time 448800, Note Name: F3, Velocity: 54
Note OFF: Time 448920, Note Name: F3
Note ON: Time 448920, Note Name: D3, Velocity: 55
Note OFF: Time 449040, Note Name: D3
Note ON: Time 449040, Note Name: C3, Velocity: 55
Note OFF: Time 449160, Note Name: C3
Note ON: Time 449160, Note Name: A#2, Velocity: 54
Note OFF: Time 449280, Note Name: A#2
Note ON: Time 449280, Note Name: F2, Velocity: 54
Note OFF: Time 449400, Note Name: F2
Note ON: Time 449400, Note Name: G2, Velocity: 49
Note OFF: Time 449520, Note Name: G2
Note ON: Time 449520, Note Name: A2, Velocity: 49
Note OFF: Time 449640, Note Name: A2
Note ON: Time 449640, Note Name: A#2, Velocity: 49
Note OFF: Time 449760, Note Name: A#2
Note ON: Time 449760, Note Name: C3, Velocity: 54
Note OFF: Time 449880, Note Name: C3
Note ON: Time 449880, Note Name: D3, Velocity: 50
Note OFF: Time 450000, Note Name: D3
Note ON: Time 450000, Note Name: D#3, Velocity: 59
Note OFF: Time 450120, Note Name: D#3
Note ON: Time 450120, Note Name: F3, Velocity: 66
Note OFF: Time 450240, Note Name: F3
Note ON: Time 450240, Note Name: A#1, Velocity: 66
Note OFF: Time 450360, Note Name: A#1
Note ON: Time 450360, Note Name: A#2, Velocity: 56
Note OFF: Time 450480, Note Name: A#2
Note ON: Time 450480, Note Name: A#1, Velocity: 66
Note OFF: Time 450600, Note Name: A#1
Note ON: Time 450600, Note Name: A#2, Velocity: 56
Note OFF: Time 450720, Note Name: A#2
Note ON: Time 450720, Note Name: A#1, Velocity: 66
Note OFF: Time 450840, Note Name: A#1
Note ON: Time 450840, Note Name: A#2, Velocity: 57
Note OFF: Time 450960, Note Name: A#2
Note ON: Time 450960, Note Name: A#1, Velocity: 66
Note OFF: Time 451080, Note Name: A#1
Note ON: Time 451080, Note Name: A#2, Velocity: 57
Note OFF: Time 451200, Note Name: A#2
Note ON: Time 451200, Note Name: A#1, Velocity: 66
Note OFF: Time 451320, Note Name: A#1
Note ON: Time 451320, Note Name: A#2, Velocity: 57
Note OFF: Time 451440, Note Name: A#2
Note ON: Time 451440, Note Name: A#1, Velocity: 66
Note OFF: Time 451560, Note Name: A#1
Note ON: Time 451560, Note Name: A#2, Velocity: 58
Note OFF: Time 451680, Note Name: A#2
Note ON: Time 451680, Note Name: A#1, Velocity: 66
Note OFF: Time 451800, Note Name: A#1
Note ON: Time 451800, Note Name: A#2, Velocity: 59
Note OFF: Time 451920, Note Name: A#2
Note ON: Time 451920, Note Name: B1, Velocity: 45
Note OFF: Time 452040, Note Name: B1
Note ON: Time 452040, Note Name: B2, Velocity: 34
Note OFF: Time 452160, Note Name: B2
Note ON: Time 452160, Note Name: C2, Velocity: 43
Note OFF: Time 452280, Note Name: C2
Note ON: Time 452280, Note Name: C3, Velocity: 33
Note OFF: Time 452400, Note Name: C3
Note ON: Time 452400, Note Name: B1, Velocity: 43
Note OFF: Time 452520, Note Name: B1
Note ON: Time 452520, Note Name: B2, Velocity: 33
Note OFF: Time 452640, Note Name: B2
Note ON: Time 452640, Note Name: C2, Velocity: 43
Note OFF: Time 452760, Note Name: C2
Note ON: Time 452760, Note Name: C3, Velocity: 34
Note OFF: Time 452880, Note Name: C3
Note ON: Time 452880, Note Name: D#2, Velocity: 43
Note OFF: Time 453000, Note Name: D#2
Note ON: Time 453000, Note Name: D#3, Velocity: 35
Note OFF: Time 453120, Note Name: D#3
Note ON: Time 453120, Note Name: E2, Velocity: 43
Note OFF: Time 453240, Note Name: E2
Note ON: Time 453240, Note Name: E3, Velocity: 33
Note OFF: Time 453360, Note Name: E3
Note ON: Time 453360, Note Name: G2, Velocity: 43
Note OFF: Time 453480, Note Name: G2
Note ON: Time 453480, Note Name: G3, Velocity: 33
Note OFF: Time 453600, Note Name: G3
Note ON: Time 453600, Note Name: F2, Velocity: 43
Note OFF: Time 453720, Note Name: F2
Note ON: Time 453720, Note Name: F3, Velocity: 34
Note OFF: Time 453840, Note Name: F3
Note ON: Time 453840, Note Name: F2, Velocity: 43
Note OFF: Time 453960, Note Name: F2
Note ON: Time 453960, Note Name: F3, Velocity: 35
Note OFF: Time 454080, Note Name: F3
Note ON: Time 454080, Note Name: F2, Velocity: 47
Note OFF: Time 454200, Note Name: F2
Note ON: Time 454200, Note Name: F3, Velocity: 36
Note OFF: Time 454320, Note Name: F3
Note ON: Time 454320, Note Name: A#2, Velocity: 48
Note OFF: Time 454440, Note Name: A#2
Note ON: Time 454440, Note Name: A#3, Velocity: 37
Note OFF: Time 454560, Note Name: A#3
Note ON: Time 454560, Note Name: F2, Velocity: 50
Note OFF: Time 454680, Note Name: F2
Note ON: Time 454680, Note Name: F3, Velocity: 40
Note OFF: Time 454798, Note Name: F3
Note ON: Time 454800, Note Name: F3, Velocity: 53
Note OFF: Time 454920, Note Name: F3
Note ON: Time 454920, Note Name: F4, Velocity: 44
Note OFF: Time 455040, Note Name: F4
Note ON: Time 455040, Note Name: F2, Velocity: 54
Note OFF: Time 455160, Note Name: F2
Note ON: Time 455160, Note Name: F3, Velocity: 42
Note OFF: Time 455280, Note Name: F3
Note ON: Time 455280, Note Name: A#2, Velocity: 57
Note OFF: Time 455400, Note Name: A#2
Note ON: Time 455400, Note Name: A#3, Velocity: 44
Note OFF: Time 455520, Note Name: A#3
Note ON: Time 455520, Note Name: F2, Velocity: 58
Note OFF: Time 455640, Note Name: F2
Note ON: Time 455640, Note Name: F3, Velocity: 47
Note OFF: Time 455758, Note Name: F3
Note ON: Time 455760, Note Name: F3, Velocity: 61
Note OFF: Time 455880, Note Name: F3
Note ON: Time 455880, Note Name: F4, Velocity: 51
Note OFF: Time 456000, Note Name: F4
Note ON: Time 456000, Note Name: A#2, Velocity: 59
Note OFF: Time 456120, Note Name: A#2
Note ON: Time 456120, Note Name: A#3, Velocity: 50
Note OFF: Time 456240, Note Name: A#3
Note ON: Time 456240, Note Name: F2, Velocity: 61
Note OFF: Time 456360, Note Name: F2
Note ON: Time 456360, Note Name: F3, Velocity: 51
Note OFF: Time 456480, Note Name: F3
Note ON: Time 456480, Note Name: A2, Velocity: 64
Note OFF: Time 456600, Note Name: A2
Note ON: Time 456600, Note Name: A3, Velocity: 55
Note OFF: Time 456720, Note Name: A3
Note ON: Time 456720, Note Name: C3, Velocity: 67
Note OFF: Time 456840, Note Name: C3
Note ON: Time 456840, Note Name: C4, Velocity: 58
Note OFF: Time 456960, Note Name: C4
Note ON: Time 456960, Note Name: A#2, Velocity: 68
Note OFF: Time 457080, Note Name: A#2
Note ON: Time 457080, Note Name: A#3, Velocity: 63
Note OFF: Time 457200, Note Name: A#3
Note ON: Time 457200, Note Name: F2, Velocity: 71
Note OFF: Time 457320, Note Name: F2
Note ON: Time 457320, Note Name: F3, Velocity: 63
Note OFF: Time 457440, Note Name: F3
Note ON: Time 457440, Note Name: A1, Velocity: 71
Note OFF: Time 457560, Note Name: A1
Note ON: Time 457560, Note Name: A2, Velocity: 60
Note OFF: Time 457680, Note Name: A2
Note ON: Time 457680, Note Name: C2, Velocity: 71
Note OFF: Time 457800, Note Name: C2
Note ON: Time 457800, Note Name: C3, Velocity: 63
Note OFF: Time 457920, Note Name: C3
Note ON: Time 457920, Note Name: A#1, Velocity: 68
Note OFF: Time 458040, Note Name: A#1
Note ON: Time 458040, Note Name: A#2, Velocity: 63
Note OFF: Time 458160, Note Name: A#2
Note ON: Time 458160, Note Name: F1, Velocity: 71
Note OFF: Time 458280, Note Name: F1
Note ON: Time 458280, Note Name: F2, Velocity: 63
Note OFF: Time 458400, Note Name: F2
Note ON: Time 458400, Note Name: B1, Velocity: 71
Note OFF: Time 458520, Note Name: B1
Note ON: Time 458520, Note Name: B2, Velocity: 60
Note OFF: Time 458640, Note Name: B2
Note ON: Time 458640, Note Name: D2, Velocity: 71
Note OFF: Time 458760, Note Name: D2
Note ON: Time 458760, Note Name: D3, Velocity: 63
Note OFF: Time 458880, Note Name: D3
Note ON: Time 458880, Note Name: C2, Velocity: 68
Note OFF: Time 459000, Note Name: C2
Note ON: Time 459000, Note Name: C3, Velocity: 63
Note OFF: Time 459120, Note Name: C3
Note ON: Time 459120, Note Name: G1, Velocity: 71
Note OFF: Time 459240, Note Name: G1
Note ON: Time 459240, Note Name: G2, Velocity: 63
Note OFF: Time 459360, Note Name: G2
Note ON: Time 459360, Note Name: B1, Velocity: 71
Note OFF: Time 459480, Note Name: B1
Note ON: Time 459480, Note Name: B2, Velocity: 60
Note OFF: Time 459600, Note Name: B2
Note ON: Time 459600, Note Name: D2, Velocity: 71
Note OFF: Time 459720, Note Name: D2
Note ON: Time 459720, Note Name: D3, Velocity: 63
Note OFF: Time 459840, Note Name: D3
Note ON: Time 459840, Note Name: C2, Velocity: 68
Note OFF: Time 459960, Note Name: C2
Note ON: Time 459960, Note Name: C3, Velocity: 63
Note OFF: Time 460080, Note Name: C3
Note ON: Time 460080, Note Name: G1, Velocity: 71
Note OFF: Time 460200, Note Name: G1
Note ON: Time 460200, Note Name: G2, Velocity: 63
Note OFF: Time 460320, Note Name: G2
Note ON: Time 460320, Note Name: C2, Velocity: 71
Note OFF: Time 460440, Note Name: C2
Note ON: Time 460440, Note Name: C3, Velocity: 60
Note OFF: Time 460560, Note Name: C3
Note ON: Time 460560, Note Name: D#2, Velocity: 71
Note OFF: Time 460680, Note Name: D#2
Note ON: Time 460680, Note Name: D#3, Velocity: 63
Note OFF: Time 460800, Note Name: D#3
Note ON: Time 460800, Note Name: D2, Velocity: 68
Note OFF: Time 460920, Note Name: D2
Note ON: Time 460920, Note Name: D3, Velocity: 63
Note OFF: Time 461040, Note Name: D3
Note ON: Time 461040, Note Name: A1, Velocity: 71
Note OFF: Time 461160, Note Name: A1
Note ON: Time 461160, Note Name: A2, Velocity: 62
Note OFF: Time 461280, Note Name: A2
Note ON: Time 461280, Note Name: C#2, Velocity: 70
Note OFF: Time 461400, Note Name: C#2
Note ON: Time 461400, Note Name: C#3, Velocity: 59
Note OFF: Time 461520, Note Name: C#3
Note ON: Time 461520, Note Name: E2, Velocity: 69
Note OFF: Time 461640, Note Name: E2
Note ON: Time 461640, Note Name: E3, Velocity: 61
Note OFF: Time 461760, Note Name: E3
Note ON: Time 461760, Note Name: D2, Velocity: 66
Note OFF: Time 461880, Note Name: D2
Note ON: Time 461880, Note Name: D3, Velocity: 61
Note OFF: Time 462000, Note Name: D3
Note ON: Time 462000, Note Name: A1, Velocity: 68
Note OFF: Time 462120, Note Name: A1
Note ON: Time 462120, Note Name: A2, Velocity: 61
Note OFF: Time 462240, Note Name: A2
Note ON: Time 462240, Note Name: D2, Velocity: 68
Note OFF: Time 462360, Note Name: D2
Note ON: Time 462360, Note Name: D3, Velocity: 57
Note OFF: Time 462480, Note Name: D3
Note ON: Time 462480, Note Name: F2, Velocity: 67
Note OFF: Time 462600, Note Name: F2
Note ON: Time 462600, Note Name: F3, Velocity: 59
Note OFF: Time 462720, Note Name: F3
Note ON: Time 462720, Note Name: D#2, Velocity: 64
Note OFF: Time 462840, Note Name: D#2
Note ON: Time 462840, Note Name: D#3, Velocity: 59
Note OFF: Time 462960, Note Name: D#3
Note ON: Time 462960, Note Name: A#1, Velocity: 66
Note OFF: Time 463080, Note Name: A#1
Note ON: Time 463080, Note Name: A#2, Velocity: 59
Note OFF: Time 463200, Note Name: A#2
Note ON: Time 463200, Note Name: D2, Velocity: 66
Note OFF: Time 463320, Note Name: D2
Note ON: Time 463320, Note Name: D3, Velocity: 55
Note OFF: Time 463440, Note Name: D3
Note ON: Time 463440, Note Name: F2, Velocity: 66
Note OFF: Time 463560, Note Name: F2
Note ON: Time 463560, Note Name: F3, Velocity: 57
Note OFF: Time 463680, Note Name: F3
Note ON: Time 463680, Note Name: D#2, Velocity: 62
Note OFF: Time 463800, Note Name: D#2
Note ON: Time 463800, Note Name: D#3, Velocity: 57
Note OFF: Time 463920, Note Name: D#3
Note ON: Time 463920, Note Name: A#1, Velocity: 64
Note OFF: Time 464040, Note Name: A#1
Note ON: Time 464040, Note Name: A#2, Velocity: 57
Note OFF: Time 464160, Note Name: A#2
Note ON: Time 464160, Note Name: D#2, Velocity: 63
Note OFF: Time 464280, Note Name: D#2
Note ON: Time 464280, Note Name: D#3, Velocity: 54
Note OFF: Time 464400, Note Name: D#3
Note ON: Time 464400, Note Name: F#2, Velocity: 63
Note OFF: Time 464520, Note Name: F#2
Note ON: Time 464520, Note Name: F#3, Velocity: 56
Note OFF: Time 464640, Note Name: F#3
Note ON: Time 464640, Note Name: F2, Velocity: 60
Note OFF: Time 464760, Note Name: F2
Note ON: Time 464760, Note Name: F3, Velocity: 56
Note OFF: Time 464880, Note Name: F3
Note ON: Time 464880, Note Name: C2, Velocity: 62
Note OFF: Time 465000, Note Name: C2
Note ON: Time 465000, Note Name: C3, Velocity: 55
Note OFF: Time 465120, Note Name: C3
Note ON: Time 465120, Note Name: D#2, Velocity: 62
Note OFF: Time 465240, Note Name: D#2
Note ON: Time 465240, Note Name: D#3, Velocity: 52
Note OFF: Time 465360, Note Name: D#3
Note ON: Time 465360, Note Name: F#2, Velocity: 61
Note OFF: Time 465480, Note Name: F#2
Note ON: Time 465480, Note Name: F#3, Velocity: 54
Note OFF: Time 465600, Note Name: F#3
Note ON: Time 465600, Note Name: C#2, Velocity: 58
Note OFF: Time 465720, Note Name: C#2
Note ON: Time 465720, Note Name: C#3, Velocity: 54
Note OFF: Time 465840, Note Name: C#3
Note ON: Time 465840, Note Name: A1, Velocity: 60
Note OFF: Time 465960, Note Name: A1
Note ON: Time 465960, Note Name: A2, Velocity: 53
Note OFF: Time 466080, Note Name: A2
Note ON: Time 466080, Note Name: C2, Velocity: 60
Note OFF: Time 466200, Note Name: C2
Note ON: Time 466200, Note Name: C3, Velocity: 50
Note OFF: Time 466320, Note Name: C3
Note ON: Time 466320, Note Name: D#2, Velocity: 59
Note OFF: Time 466440, Note Name: D#2
Note ON: Time 466440, Note Name: D#3, Velocity: 52
Note OFF: Time 466560, Note Name: D#3
Note ON: Time 466560, Note Name: F#1, Velocity: 56
Note OFF: Time 466680, Note Name: F#1
Note ON: Time 466680, Note Name: F#2, Velocity: 52
Note OFF: Time 466800, Note Name: F#2
Note ON: Time 466800, Note Name: F1, Velocity: 58
Note OFF: Time 466920, Note Name: F1
Note ON: Time 466920, Note Name: F2, Velocity: 51
Note OFF: Time 467040, Note Name: F2
Note ON: Time 467040, Note Name: A1, Velocity: 58
Note OFF: Time 467160, Note Name: A1
Note ON: Time 467160, Note Name: A2, Velocity: 49
Note OFF: Time 467280, Note Name: A2
Note ON: Time 467280, Note Name: D#2, Velocity: 57
Note OFF: Time 467400, Note Name: D#2
Note ON: Time 467400, Note Name: D#3, Velocity: 51
Note OFF: Time 467520, Note Name: D#3
Note ON: Time 467520, Note Name: A#1, Velocity: 37
Note ON: Time 467520, Note Name: A#2, Velocity: 44
Note OFF: Time 468000, Note Name: A#2
Note OFF: Time 468000, Note Name: A#1
Note ON: Time 468000, Note Name: G#2, Velocity: 32
Note ON: Time 468000, Note Name: G#3, Velocity: 38
Note OFF: Time 468480, Note Name: G#3
Note OFF: Time 468480, Note Name: G#2
Note ON: Time 468480, Note Name: F#2, Velocity: 33
Note ON: Time 468480, Note Name: F#3, Velocity: 39
Note OFF: Time 468960, Note Name: F#3
Note OFF: Time 468960, Note Name: F#2
Note ON: Time 468960, Note Name: D#2, Velocity: 24
Note ON: Time 468960, Note Name: D#3, Velocity: 29
Note OFF: Time 469440, Note Name: D#3
Note OFF: Time 469440, Note Name: D#2
Note ON: Time 469440, Note Name: D2, Velocity: 34
Note ON: Time 469440, Note Name: D3, Velocity: 40
Note OFF: Time 469920, Note Name: D3
Note OFF: Time 469920, Note Name: D2
Note ON: Time 469920, Note Name: A#1, Velocity: 26
Note ON: Time 469920, Note Name: A#2, Velocity: 31
Note OFF: Time 470400, Note Name: A#2
Note OFF: Time 470400, Note Name: A#1
Note ON: Time 470400, Note Name: D#2, Velocity: 34
Note ON: Time 470400, Note Name: D#3, Velocity: 40
Note OFF: Time 470880, Note Name: D#3
Note OFF: Time 470880, Note Name: D#2
Note ON: Time 470880, Note Name: F#3, Velocity: 30
Note ON: Time 470880, Note Name: A#3, Velocity: 37
Note OFF: Time 471120, Note Name: A#3
Note OFF: Time 471120, Note Name: F#3
Note ON: Time 471120, Note Name: G3, Velocity: 30
Note ON: Time 471120, Note Name: A#3, Velocity: 39
Note OFF: Time 471240, Note Name: A#3
Note ON: Time 471240, Note Name: C4, Velocity: 39
Note OFF: Time 471360, Note Name: C4
Note OFF: Time 471360, Note Name: G3
Note ON: Time 471360, Note Name: F3, Velocity: 46
Note ON: Time 471360, Note Name: A#3, Velocity: 31
Note OFF: Time 471441, Note Name: A#3
Note ON: Time 471441, Note Name: C4, Velocity: 26
Note OFF: Time 471521, Note Name: C4
Note ON: Time 471521, Note Name: A#3, Velocity: 31
Note OFF: Time 471600, Note Name: F3
Note ON: Time 471600, Note Name: G3, Velocity: 40
Note ON: Time 471601, Note Name: C4, Velocity: 27
Note OFF: Time 471602, Note Name: A#3
Note OFF: Time 471682, Note Name: C4
Note ON: Time 471682, Note Name: A#3, Velocity: 31
Note OFF: Time 471762, Note Name: A#3
Note ON: Time 471762, Note Name: C4, Velocity: 27
Note OFF: Time 471840, Note Name: G3
Note ON: Time 471840, Note Name: G#3, Velocity: 46
Note ON: Time 471840, Note Name: A#3, Velocity: 32
Note OFF: Time 471843, Note Name: C4
Note OFF: Time 471921, Note Name: A#3
Note ON: Time 471921, Note Name: C4, Velocity: 27
Note OFF: Time 472001, Note Name: C4
Note ON: Time 472001, Note Name: A#3, Velocity: 32
Note OFF: Time 472080, Note Name: G#3
Note ON: Time 472080, Note Name: F3, Velocity: 40
Note ON: Time 472081, Note Name: C4, Velocity: 28
Note OFF: Time 472082, Note Name: A#3
Note OFF: Time 472162, Note Name: C4
Note ON: Time 472162, Note Name: A#3, Velocity: 32
Note OFF: Time 472242, Note Name: A#3
Note ON: Time 472242, Note Name: C4, Velocity: 28
Note OFF: Time 472320, Note Name: F3
Note ON: Time 472320, Note Name: A#3, Velocity: 32
Note ON: Time 472320, Note Name: G3, Velocity: 46
Note OFF: Time 472323, Note Name: C4
Note OFF: Time 472401, Note Name: A#3
Note ON: Time 472401, Note Name: C4, Velocity: 27
Note OFF: Time 472481, Note Name: C4
Note ON: Time 472481, Note Name: A#3, Velocity: 32
Note OFF: Time 472560, Note Name: G3
Note ON: Time 472560, Note Name: G#3, Velocity: 40
Note ON: Time 472561, Note Name: C4, Velocity: 29
Note OFF: Time 472562, Note Name: A#3
Note OFF: Time 472642, Note Name: C4
Note ON: Time 472642, Note Name: A#3, Velocity: 32
Note OFF: Time 472722, Note Name: A#3
Note ON: Time 472722, Note Name: C4, Velocity: 29
Note OFF: Time 472800, Note Name: G#3
Note ON: Time 472800, Note Name: G3, Velocity: 46
Note ON: Time 472800, Note Name: A#3, Velocity: 33
Note OFF: Time 472803, Note Name: C4
Note OFF: Time 472881, Note Name: A#3
Note ON: Time 472881, Note Name: C4, Velocity: 29
Note OFF: Time 472961, Note Name: C4
Note ON: Time 472961, Note Name: A#3, Velocity: 34
Note OFF: Time 473040, Note Name: G3
Note ON: Time 473040, Note Name: D#3, Velocity: 40
Note ON: Time 473041, Note Name: C4, Velocity: 30
Note OFF: Time 473042, Note Name: A#3
Note OFF: Time 473122, Note Name: C4
Note ON: Time 473122, Note Name: A#3, Velocity: 34
Note OFF: Time 473202, Note Name: A#3
Note ON: Time 473202, Note Name: C4, Velocity: 30
Note OFF: Time 473280, Note Name: D#3
Note ON: Time 473280, Note Name: A#3, Velocity: 35
Note ON: Time 473280, Note Name: D3, Velocity: 46
Note OFF: Time 473283, Note Name: C4
Note OFF: Time 473361, Note Name: A#3
Note ON: Time 473361, Note Name: C4, Velocity: 29
Note OFF: Time 473441, Note Name: C4
Note ON: Time 473441, Note Name: A#3, Velocity: 35
Note OFF: Time 473520, Note Name: D3
Note ON: Time 473520, Note Name: D#3, Velocity: 40
Note ON: Time 473521, Note Name: C4, Velocity: 32
Note OFF: Time 473522, Note Name: A#3
Note OFF: Time 473602, Note Name: C4
Note ON: Time 473602, Note Name: A#3, Velocity: 35
Note OFF: Time 473682, Note Name: A#3
Note ON: Time 473682, Note Name: C4, Velocity: 32
Note OFF: Time 473760, Note Name: D#3
Note ON: Time 473760, Note Name: F3, Velocity: 46
Note ON: Time 473760, Note Name: A#3, Velocity: 35
Note OFF: Time 473763, Note Name: C4
Note OFF: Time 473841, Note Name: A#3
Note ON: Time 473841, Note Name: C4, Velocity: 32
Note OFF: Time 473921, Note Name: C4
Note ON: Time 473921, Note Name: A#3, Velocity: 36
Note OFF: Time 474000, Note Name: F3
Note ON: Time 474000, Note Name: D3, Velocity: 40
Note ON: Time 474001, Note Name: C4, Velocity: 32
Note OFF: Time 474002, Note Name: A#3
Note OFF: Time 474082, Note Name: C4
Note ON: Time 474082, Note Name: A#3, Velocity: 36
Note OFF: Time 474162, Note Name: A#3
Note ON: Time 474162, Note Name: C4, Velocity: 32
Note OFF: Time 474240, Note Name: D3
Note ON: Time 474240, Note Name: D#3, Velocity: 46
Note ON: Time 474240, Note Name: A#3, Velocity: 36
Note OFF: Time 474243, Note Name: C4
Note OFF: Time 474321, Note Name: A#3
Note ON: Time 474321, Note Name: C4, Velocity: 32
Note OFF: Time 474401, Note Name: C4
Note ON: Time 474401, Note Name: A#3, Velocity: 37
Note OFF: Time 474480, Note Name: D#3
Note ON: Time 474480, Note Name: F3, Velocity: 40
Note ON: Time 474481, Note Name: C4, Velocity: 33
Note OFF: Time 474482, Note Name: A#3
Note OFF: Time 474562, Note Name: C4
Note ON: Time 474562, Note Name: A#3, Velocity: 37
Note OFF: Time 474642, Note Name: A#3
Note ON: Time 474642, Note Name: C4, Velocity: 33
Note OFF: Time 474720, Note Name: F3
Note ON: Time 474720, Note Name: G3, Velocity: 46
Note ON: Time 474720, Note Name: A#3, Velocity: 38
Note OFF: Time 474723, Note Name: C4
Note OFF: Time 474801, Note Name: A#3
Note ON: Time 474801, Note Name: C4, Velocity: 32
Note OFF: Time 474881, Note Name: C4
Note ON: Time 474881, Note Name: A#3, Velocity: 38
Note OFF: Time 474960, Note Name: G3
Note ON: Time 474960, Note Name: G#3, Velocity: 40
Note ON: Time 474961, Note Name: C4, Velocity: 35
Note OFF: Time 474962, Note Name: A#3
Note OFF: Time 475042, Note Name: C4
Note ON: Time 475042, Note Name: A#3, Velocity: 38
Note OFF: Time 475122, Note Name: A#3
Note ON: Time 475122, Note Name: C4, Velocity: 34
Note OFF: Time 475200, Note Name: G#3
Note ON: Time 475200, Note Name: G3, Velocity: 40
Note ON: Time 475200, Note Name: A#3, Velocity: 34
Note OFF: Time 475203, Note Name: C4
Note OFF: Time 475281, Note Name: A#3
Note ON: Time 475281, Note Name: C4, Velocity: 29
Note OFF: Time 475361, Note Name: C4
Note ON: Time 475361, Note Name: A#3, Velocity: 34
Note ON: Time 475441, Note Name: C4, Velocity: 30
Note OFF: Time 475442, Note Name: A#3
Note OFF: Time 475522, Note Name: C4
Note ON: Time 475522, Note Name: A#3, Velocity: 33
Note OFF: Time 475602, Note Name: A#3
Note ON: Time 475602, Note Name: C4, Velocity: 29
Note ON: Time 475680, Note Name: A#3, Velocity: 34
Note OFF: Time 475683, Note Name: C4
Note OFF: Time 475761, Note Name: A#3
Note ON: Time 475761, Note Name: C4, Velocity: 29
Note OFF: Time 475841, Note Name: C4
Note ON: Time 475841, Note Name: A#3, Velocity: 33
Note OFF: Time 475920, Note Name: G3
Note ON: Time 475920, Note Name: G#3, Velocity: 31
Note ON: Time 475921, Note Name: C4, Velocity: 29
Note OFF: Time 475922, Note Name: A#3
Note OFF: Time 476002, Note Name: C4
Note ON: Time 476002, Note Name: A#3, Velocity: 32
Note OFF: Time 476082, Note Name: A#3
Note ON: Time 476082, Note Name: C4, Velocity: 27
Note OFF: Time 476160, Note Name: G#3
Note ON: Time 476160, Note Name: G3, Velocity: 37
Note ON: Time 476160, Note Name: A#3, Velocity: 30
Note OFF: Time 476163, Note Name: C4
Note OFF: Time 476241, Note Name: A#3
Note ON: Time 476241, Note Name: C4, Velocity: 26
Note OFF: Time 476321, Note Name: C4
Note ON: Time 476321, Note Name: A#3, Velocity: 30
Note ON: Time 476401, Note Name: C4, Velocity: 27
Note OFF: Time 476402, Note Name: A#3
Note OFF: Time 476482, Note Name: C4
Note ON: Time 476482, Note Name: A#3, Velocity: 29
Note OFF: Time 476562, Note Name: A#3
Note ON: Time 476562, Note Name: C4, Velocity: 26
Note ON: Time 476640, Note Name: A#3, Velocity: 30
Note OFF: Time 476643, Note Name: C4
Note OFF: Time 476721, Note Name: A#3
Note ON: Time 476721, Note Name: C4, Velocity: 26
Note OFF: Time 476801, Note Name: C4
Note ON: Time 476801, Note Name: A#3, Velocity: 29
Note OFF: Time 476880, Note Name: G3
Note ON: Time 476880, Note Name: F3, Velocity: 27
Note ON: Time 476881, Note Name: C4, Velocity: 25
Note OFF: Time 476882, Note Name: A#3
Note OFF: Time 476962, Note Name: C4
Note ON: Time 476962, Note Name: A#3, Velocity: 28
Note OFF: Time 477042, Note Name: A#3
Note ON: Time 477042, Note Name: C4, Velocity: 24
Note OFF: Time 477120, Note Name: F3
Note ON: Time 477120, Note Name: F3, Velocity: 30
Note ON: Time 477120, Note Name: D4, Velocity: 36
Note OFF: Time 477123, Note Name: C4
Note ON: Time 477127, Note Name: A#3, Velocity: 30
Note OFF: Time 478080, Note Name: D4
Note OFF: Time 478080, Note Name: F3
Note OFF: Time 478087, Note Name: A#3
Note ON: Time 478320, Note Name: A#4, Velocity: 36
Note ON: Time 478440, Note Name: A4, Velocity: 33
Note OFF: Time 478452, Note Name: A#4
Note ON: Time 478560, Note Name: G4, Velocity: 37
Note OFF: Time 478572, Note Name: A4
Note ON: Time 478680, Note Name: F4, Velocity: 33
Note OFF: Time 478692, Note Name: G4
Note ON: Time 478800, Note Name: G4, Velocity: 36
Note OFF: Time 478812, Note Name: F4
Note ON: Time 478920, Note Name: A4, Velocity: 33
Note OFF: Time 478932, Note Name: G4
Note ON: Time 479040, Note Name: A#4, Velocity: 36
Note OFF: Time 479052, Note Name: A4
Note ON: Time 479160, Note Name: C5, Velocity: 37
Note OFF: Time 479172, Note Name: A#4
Note ON: Time 479280, Note Name: D5, Velocity: 38
Note OFF: Time 479292, Note Name: C5
Note ON: Time 479400, Note Name: D#5, Velocity: 39
Note OFF: Time 479412, Note Name: D5
Note ON: Time 479520, Note Name: F5, Velocity: 40
Note OFF: Time 479532, Note Name: D#5
Note ON: Time 479640, Note Name: G5, Velocity: 41
Note OFF: Time 479652, Note Name: F5
Note ON: Time 479760, Note Name: A5, Velocity: 42
Note OFF: Time 479772, Note Name: G5
Note ON: Time 479880, Note Name: A#5, Velocity: 43
Note OFF: Time 479892, Note Name: A5
Note OFF: Time 480012, Note Name: A#5
Note ON: Time 480120, Note Name: F2, Velocity: 33
Note ON: Time 480240, Note Name: G2, Velocity: 33
Note OFF: Time 480252, Note Name: F2
Note ON: Time 480360, Note Name: A2, Velocity: 32
Note OFF: Time 480372, Note Name: G2
Note ON: Time 480480, Note Name: A#2, Velocity: 32
Note OFF: Time 480492, Note Name: A2
Note ON: Time 480600, Note Name: C3, Velocity: 31
Note OFF: Time 480612, Note Name: A#2
Note ON: Time 480720, Note Name: D3, Velocity: 31
Note OFF: Time 480732, Note Name: C3
Note ON: Time 480840, Note Name: D#3, Velocity: 30
Note OFF: Time 480852, Note Name: D3
Note ON: Time 480960, Note Name: F3, Velocity: 30
Note OFF: Time 480972, Note Name: D#3
Note ON: Time 481080, Note Name: G3, Velocity: 30
Note OFF: Time 481092, Note Name: F3
Note ON: Time 481200, Note Name: A3, Velocity: 29
Note OFF: Time 481212, Note Name: G3
Note ON: Time 481320, Note Name: A#3, Velocity: 29
Note OFF: Time 481332, Note Name: A3
Note ON: Time 481440, Note Name: C4, Velocity: 28
Note OFF: Time 481452, Note Name: A#3
Note ON: Time 481560, Note Name: D4, Velocity: 28
Note OFF: Time 481572, Note Name: C4
Note ON: Time 481680, Note Name: D#4, Velocity: 27
Note OFF: Time 481692, Note Name: D4
Note ON: Time 481800, Note Name: D4, Velocity: 27
Note OFF: Time 481812, Note Name: D#4
Note OFF: Time 481920, Note Name: D4
Note ON: Time 481920, Note Name: D4, Velocity: 32
Note ON: Time 481920, Note Name: A#3, Velocity: 27
Note OFF: Time 482277, Note Name: A#3
Note OFF: Time 482277, Note Name: D4
Note ON: Time 482280, Note Name: D4, Velocity: 26
Note ON: Time 482280, Note Name: A#3, Velocity: 22
Note OFF: Time 482399, Note Name: A#3
Note OFF: Time 482399, Note Name: D4
Note ON: Time 482400, Note Name: D4, Velocity: 32
Note ON: Time 482400, Note Name: A#3, Velocity: 27
Note OFF: Time 482640, Note Name: A#3
Note OFF: Time 482640, Note Name: D4
Note ON: Time 482760, Note Name: B1, Velocity: 62
Note ON: Time 482760, Note Name: B2, Velocity: 74
Note OFF: Time 482880, Note Name: B2
Note OFF: Time 482880, Note Name: B1
Note ON: Time 482880, Note Name: C3, Velocity: 92
Note ON: Time 482880, Note Name: C2, Velocity: 77
Note OFF: Time 483237, Note Name: C2
Note OFF: Time 483237, Note Name: C3
Note ON: Time 483240, Note Name: C3, Velocity: 62
Note ON: Time 483240, Note Name: C2, Velocity: 52
Note OFF: Time 483359, Note Name: C2
Note OFF: Time 483359, Note Name: C3
Note ON: Time 483360, Note Name: C3, Velocity: 78
Note ON: Time 483360, Note Name: C2, Velocity: 63
Note OFF: Time 483600, Note Name: C2
Note OFF: Time 483600, Note Name: C3
Note ON: Time 483720, Note Name: B3, Velocity: 22
Note ON: Time 483720, Note Name: D4, Velocity: 26
Note OFF: Time 483840, Note Name: D4
Note OFF: Time 483840, Note Name: B3
Note ON: Time 483840, Note Name: D#4, Velocity: 32
Note ON: Time 483840, Note Name: C4, Velocity: 27
Note OFF: Time 484197, Note Name: C4
Note OFF: Time 484197, Note Name: D#4
Note ON: Time 484200, Note Name: D#4, Velocity: 26
Note ON: Time 484200, Note Name: C4, Velocity: 22
Note OFF: Time 484319, Note Name: C4
Note OFF: Time 484319, Note Name: D#4
Note ON: Time 484320, Note Name: D#4, Velocity: 32
Note ON: Time 484320, Note Name: C4, Velocity: 27
Note OFF: Time 484560, Note Name: C4
Note OFF: Time 484560, Note Name: D#4
Note ON: Time 484680, Note Name: C#2, Velocity: 62
Note ON: Time 484680, Note Name: C#3, Velocity: 74
Note OFF: Time 484800, Note Name: C#3
Note OFF: Time 484800, Note Name: C#2
Note ON: Time 484800, Note Name: D3, Velocity: 92
Note ON: Time 484800, Note Name: D2, Velocity: 77
Note OFF: Time 485157, Note Name: D2
Note OFF: Time 485157, Note Name: D3
Note ON: Time 485160, Note Name: D3, Velocity: 62
Note ON: Time 485160, Note Name: D2, Velocity: 52
Note OFF: Time 485279, Note Name: D2
Note OFF: Time 485279, Note Name: D3
Note ON: Time 485280, Note Name: D3, Velocity: 78
Note ON: Time 485280, Note Name: D2, Velocity: 63
Note OFF: Time 485520, Note Name: D2
Note OFF: Time 485520, Note Name: D3
Note ON: Time 485640, Note Name: C#4, Velocity: 22
Note ON: Time 485640, Note Name: E4, Velocity: 26
Note OFF: Time 485760, Note Name: E4
Note OFF: Time 485760, Note Name: C#4
Note ON: Time 485760, Note Name: F4, Velocity: 32
Note ON: Time 485760, Note Name: D4, Velocity: 27
Note OFF: Time 486117, Note Name: D4
Note OFF: Time 486117, Note Name: F4
Note ON: Time 486120, Note Name: F4, Velocity: 26
Note ON: Time 486120, Note Name: D4, Velocity: 22
Note OFF: Time 486239, Note Name: D4
Note OFF: Time 486239, Note Name: F4
Note ON: Time 486240, Note Name: F4, Velocity: 32
Note ON: Time 486240, Note Name: D4, Velocity: 27
Note OFF: Time 486480, Note Name: D4
Note OFF: Time 486480, Note Name: F4
Note ON: Time 486600, Note Name: D2, Velocity: 57
Note ON: Time 486600, Note Name: D3, Velocity: 68
Note OFF: Time 486720, Note Name: D3
Note OFF: Time 486720, Note Name: D2
Note ON: Time 486720, Note Name: D#3, Velocity: 84
Note ON: Time 486720, Note Name: D#2, Velocity: 70
Note OFF: Time 487077, Note Name: D#2
Note OFF: Time 487077, Note Name: D#3
Note ON: Time 487080, Note Name: D#3, Velocity: 57
Note ON: Time 487080, Note Name: D#2, Velocity: 48
Note OFF: Time 487199, Note Name: D#2
Note OFF: Time 487199, Note Name: D#3
Note ON: Time 487200, Note Name: D#3, Velocity: 71
Note ON: Time 487200, Note Name: D#2, Velocity: 58
Note OFF: Time 487440, Note Name: D#2
Note OFF: Time 487440, Note Name: D#3
Note ON: Time 488520, Note Name: D#2, Velocity: 66
Note ON: Time 488520, Note Name: D#3, Velocity: 77
Note OFF: Time 488640, Note Name: D#3
Note OFF: Time 488640, Note Name: D#2
Note ON: Time 488640, Note Name: F2, Velocity: 96
Note ON: Time 488640, Note Name: F1, Velocity: 80
Note OFF: Time 488997, Note Name: F1
Note OFF: Time 488997, Note Name: F2
Note ON: Time 489000, Note Name: F2, Velocity: 72
Note ON: Time 489000, Note Name: F1, Velocity: 59
Note OFF: Time 489119, Note Name: F1
Note OFF: Time 489119, Note Name: F2
Note ON: Time 489120, Note Name: F2, Velocity: 89
Note ON: Time 489120, Note Name: F1, Velocity: 73
Note OFF: Time 489360, Note Name: F1
Note OFF: Time 489360, Note Name: F2
Note ON: Time 490320, Note Name: F#1, Velocity: 33
Note ON: Time 490440, Note Name: F1, Velocity: 29
Note OFF: Time 490452, Note Name: F#1
Note ON: Time 490560, Note Name: F#1, Velocity: 33
Note OFF: Time 490572, Note Name: F1
Note ON: Time 490680, Note Name: F1, Velocity: 29
Note OFF: Time 490692, Note Name: F#1
Note ON: Time 490800, Note Name: F#1, Velocity: 33
Note OFF: Time 490812, Note Name: F1
Note ON: Time 490920, Note Name: F1, Velocity: 29
Note OFF: Time 490932, Note Name: F#1
Note ON: Time 491040, Note Name: A1, Velocity: 33
Note OFF: Time 491052, Note Name: F1
Note ON: Time 491160, Note Name: A#1, Velocity: 28
Note OFF: Time 491172, Note Name: A1
Note ON: Time 491280, Note Name: A1, Velocity: 35
Note OFF: Time 491292, Note Name: A#1
Note ON: Time 491400, Note Name: A#1, Velocity: 30
Note OFF: Time 491412, Note Name: A1
Note ON: Time 491520, Note Name: F#1, Velocity: 36
Note OFF: Time 491532, Note Name: A#1
Note ON: Time 491640, Note Name: F1, Velocity: 32
Note OFF: Time 491652, Note Name: F#1
Note ON: Time 491760, Note Name: F#1, Velocity: 38
Note OFF: Time 491772, Note Name: F1
Note ON: Time 491880, Note Name: F1, Velocity: 43
Note OFF: Time 491892, Note Name: F#1
Note ON: Time 492000, Note Name: A#1, Velocity: 63
Note ON: Time 492000, Note Name: F#2, Velocity: 63
Note OFF: Time 492012, Note Name: F1
Note OFF: Time 492120, Note Name: F#2
Note ON: Time 492120, Note Name: F2, Velocity: 53
Note OFF: Time 492240, Note Name: F2
Note ON: Time 492240, Note Name: F#2, Velocity: 61
Note OFF: Time 492360, Note Name: F#2
Note ON: Time 492360, Note Name: F2, Velocity: 55
Note OFF: Time 492480, Note Name: F2
Note OFF: Time 492480, Note Name: A#1
Note ON: Time 492480, Note Name: F#1, Velocity: 42
Note ON: Time 492600, Note Name: F1, Velocity: 29
Note OFF: Time 492612, Note Name: F#1
Note ON: Time 492720, Note Name: F#1, Velocity: 33
Note OFF: Time 492732, Note Name: F1
Note ON: Time 492840, Note Name: F1, Velocity: 29
Note OFF: Time 492852, Note Name: F#1
Note ON: Time 492960, Note Name: A1, Velocity: 33
Note OFF: Time 492972, Note Name: F1
Note ON: Time 493080, Note Name: A#1, Velocity: 28
Note OFF: Time 493092, Note Name: A1
Note ON: Time 493200, Note Name: A1, Velocity: 35
Note OFF: Time 493212, Note Name: A#1
Note ON: Time 493320, Note Name: A#1, Velocity: 30
Note OFF: Time 493332, Note Name: A1
Note ON: Time 493440, Note Name: F#1, Velocity: 36
Note OFF: Time 493452, Note Name: A#1
Note ON: Time 493560, Note Name: F1, Velocity: 32
Note OFF: Time 493572, Note Name: F#1
Note ON: Time 493680, Note Name: F#1, Velocity: 38
Note OFF: Time 493692, Note Name: F1
Note ON: Time 493800, Note Name: F1, Velocity: 34
Note OFF: Time 493812, Note Name: F#1
Note ON: Time 493920, Note Name: A#1, Velocity: 63
Note ON: Time 493920, Note Name: F#2, Velocity: 63
Note OFF: Time 493932, Note Name: F1
Note OFF: Time 494040, Note Name: F#2
Note ON: Time 494040, Note Name: F2, Velocity: 53
Note OFF: Time 494160, Note Name: F2
Note ON: Time 494160, Note Name: F#2, Velocity: 61
Note OFF: Time 494280, Note Name: F#2
Note ON: Time 494280, Note Name: F2, Velocity: 55
Note OFF: Time 494400, Note Name: F2
Note OFF: Time 494400, Note Name: A#1
Note ON: Time 494400, Note Name: F#1, Velocity: 36
Note ON: Time 494520, Note Name: F1, Velocity: 32
Note OFF: Time 494532, Note Name: F#1
Note ON: Time 494640, Note Name: F#1, Velocity: 38
Note OFF: Time 494652, Note Name: F1
Note ON: Time 494760, Note Name: F1, Velocity: 34
Note OFF: Time 494772, Note Name: F#1
Note ON: Time 494880, Note Name: A#1, Velocity: 50
Note ON: Time 494880, Note Name: F#2, Velocity: 50
Note OFF: Time 494892, Note Name: F1
Note OFF: Time 495000, Note Name: F#2
Note ON: Time 495000, Note Name: F2, Velocity: 53
Note OFF: Time 495120, Note Name: F2
Note ON: Time 495120, Note Name: F#2, Velocity: 61
Note OFF: Time 495240, Note Name: F#2
Note ON: Time 495240, Note Name: F2, Velocity: 55
Note OFF: Time 495360, Note Name: F2
Note OFF: Time 495360, Note Name: A#1
Note ON: Time 495360, Note Name: F#1, Velocity: 36
Note ON: Time 495480, Note Name: F1, Velocity: 32
Note OFF: Time 495492, Note Name: F#1
Note ON: Time 495600, Note Name: F#1, Velocity: 38
Note OFF: Time 495612, Note Name: F1
Note ON: Time 495720, Note Name: F1, Velocity: 34
Note OFF: Time 495732, Note Name: F#1
Note ON: Time 495840, Note Name: A#1, Velocity: 63
Note ON: Time 495840, Note Name: F#2, Velocity: 63
Note OFF: Time 495852, Note Name: F1
Note OFF: Time 495960, Note Name: F#2
Note ON: Time 495960, Note Name: F2, Velocity: 53
Note OFF: Time 496080, Note Name: F2
Note ON: Time 496080, Note Name: F#2, Velocity: 61
Note OFF: Time 496200, Note Name: F#2
Note ON: Time 496200, Note Name: F2, Velocity: 55
Note OFF: Time 496320, Note Name: F2
Note OFF: Time 496320, Note Name: A#1
Note ON: Time 496320, Note Name: F#1, Velocity: 46
Note ON: Time 496440, Note Name: F1, Velocity: 32
Note OFF: Time 496452, Note Name: F#1
Note ON: Time 496560, Note Name: F#1, Velocity: 38
Note OFF: Time 496572, Note Name: F1
Note ON: Time 496680, Note Name: F1, Velocity: 34
Note OFF: Time 496692, Note Name: F#1
Note ON: Time 496800, Note Name: A#1, Velocity: 63
Note ON: Time 496800, Note Name: F#2, Velocity: 63
Note OFF: Time 496812, Note Name: F1
Note OFF: Time 496920, Note Name: F#2
Note ON: Time 496920, Note Name: F2, Velocity: 53
Note OFF: Time 497040, Note Name: F2
Note ON: Time 497040, Note Name: F#2, Velocity: 61
Note OFF: Time 497160, Note Name: F#2
Note ON: Time 497160, Note Name: F2, Velocity: 55
Note OFF: Time 497280, Note Name: F2
Note OFF: Time 497280, Note Name: A#1
Note ON: Time 497280, Note Name: A#2, Velocity: 35
Note ON: Time 497280, Note Name: F#3, Velocity: 39
Note ON: Time 497400, Note Name: F3, Velocity: 34
Note OFF: Time 497412, Note Name: F#3
Note ON: Time 497520, Note Name: F#3, Velocity: 40
Note OFF: Time 497532, Note Name: F3
Note ON: Time 497640, Note Name: F3, Velocity: 36
Note OFF: Time 497652, Note Name: F#3
Note OFF: Time 497760, Note Name: A#2
Note ON: Time 497760, Note Name: F#3, Velocity: 39
Note OFF: Time 497772, Note Name: F3
Note ON: Time 497880, Note Name: F3, Velocity: 34
Note OFF: Time 497892, Note Name: F#3
Note ON: Time 498000, Note Name: F#3, Velocity: 40
Note OFF: Time 498012, Note Name: F3
Note ON: Time 498120, Note Name: F3, Velocity: 36
Note OFF: Time 498132, Note Name: F#3
Note OFF: Time 498252, Note Name: F3
Note ON: Time 498480, Note Name: F#1, Velocity: 48
Note OFF: Time 498600, Note Name: F#1
Note ON: Time 498600, Note Name: F1, Velocity: 43
Note OFF: Time 498720, Note Name: F1
Note ON: Time 498720, Note Name: A#1, Velocity: 60
Note ON: Time 498720, Note Name: F#2, Velocity: 60
Note OFF: Time 498840, Note Name: F#2
Note ON: Time 498840, Note Name: F2, Velocity: 51
Note OFF: Time 498960, Note Name: F2
Note ON: Time 498960, Note Name: F#2, Velocity: 59
Note OFF: Time 499080, Note Name: F#2
Note ON: Time 499080, Note Name: F2, Velocity: 53
Note OFF: Time 499200, Note Name: F2
Note OFF: Time 499200, Note Name: A#1
Note ON: Time 499200, Note Name: F#1, Velocity: 46
Note ON: Time 499320, Note Name: F1, Velocity: 41
Note OFF: Time 499332, Note Name: F#1
Note ON: Time 499440, Note Name: F#1, Velocity: 48
Note OFF: Time 499452, Note Name: F1
Note ON: Time 499560, Note Name: F1, Velocity: 43
Note OFF: Time 499572, Note Name: F#1
Note ON: Time 499680, Note Name: A#1, Velocity: 60
Note ON: Time 499680, Note Name: F#2, Velocity: 60
Note OFF: Time 499692, Note Name: F1
Note OFF: Time 499800, Note Name: F#2
Note ON: Time 499800, Note Name: F2, Velocity: 51
Note OFF: Time 499920, Note Name: F2
Note ON: Time 499920, Note Name: F#2, Velocity: 59
Note OFF: Time 500040, Note Name: F#2
Note ON: Time 500040, Note Name: F2, Velocity: 53
Note OFF: Time 500160, Note Name: F2
Note OFF: Time 500160, Note Name: A#1
Note ON: Time 500160, Note Name: F#1, Velocity: 46
Note ON: Time 500280, Note Name: F1, Velocity: 41
Note OFF: Time 500292, Note Name: F#1
Note ON: Time 500400, Note Name: F#1, Velocity: 48
Note OFF: Time 500412, Note Name: F1
Note ON: Time 500520, Note Name: F1, Velocity: 43
Note OFF: Time 500532, Note Name: F#1
Note ON: Time 500640, Note Name: A#1, Velocity: 60
Note ON: Time 500640, Note Name: F#2, Velocity: 60
Note OFF: Time 500652, Note Name: F1
Note OFF: Time 500760, Note Name: F#2
Note ON: Time 500760, Note Name: F2, Velocity: 51
Note OFF: Time 500880, Note Name: F2
Note ON: Time 500880, Note Name: F#2, Velocity: 59
Note OFF: Time 501000, Note Name: F#2
Note ON: Time 501000, Note Name: F2, Velocity: 53
Note OFF: Time 501120, Note Name: F2
Note OFF: Time 501120, Note Name: A#1
Note ON: Time 501120, Note Name: A#1, Velocity: 35
Note ON: Time 501120, Note Name: F#2, Velocity: 39
Note ON: Time 501240, Note Name: F2, Velocity: 34
Note OFF: Time 501252, Note Name: F#2
Note ON: Time 501360, Note Name: F#2, Velocity: 40
Note OFF: Time 501372, Note Name: F2
Note ON: Time 501480, Note Name: F2, Velocity: 36
Note OFF: Time 501492, Note Name: F#2
Note ON: Time 501600, Note Name: F#2, Velocity: 39
Note OFF: Time 501612, Note Name: F2
Note ON: Time 501720, Note Name: F2, Velocity: 34
Note OFF: Time 501732, Note Name: F#2
Note ON: Time 501840, Note Name: F#2, Velocity: 40
Note OFF: Time 501852, Note Name: F2
Note ON: Time 501960, Note Name: F2, Velocity: 36
Note OFF: Time 501972, Note Name: F#2
Note OFF: Time 502080, Note Name: F2
Note OFF: Time 502080, Note Name: A#1
Note ON: Time 502080, Note Name: A2, Velocity: 39
Note ON: Time 502200, Note Name: A#2, Velocity: 34
Note OFF: Time 502212, Note Name: A2
Note ON: Time 502320, Note Name: A2, Velocity: 40
Note OFF: Time 502332, Note Name: A#2
Note ON: Time 502440, Note Name: A#2, Velocity: 36
Note OFF: Time 502452, Note Name: A2
Note ON: Time 502560, Note Name: A2, Velocity: 39
Note OFF: Time 502572, Note Name: A#2
Note ON: Time 502680, Note Name: A#2, Velocity: 34
Note OFF: Time 502692, Note Name: A2
Note ON: Time 502800, Note Name: A2, Velocity: 40
Note OFF: Time 502812, Note Name: A#2
Note ON: Time 502920, Note Name: A#2, Velocity: 36
Note OFF: Time 502932, Note Name: A2
Note OFF: Time 503040, Note Name: A#2
Note ON: Time 503040, Note Name: A#1, Velocity: 35
Note ON: Time 503040, Note Name: F#2, Velocity: 39
Note ON: Time 503160, Note Name: F2, Velocity: 34
Note OFF: Time 503172, Note Name: F#2
Note ON: Time 503280, Note Name: F#2, Velocity: 39
Note OFF: Time 503292, Note Name: F2
Note ON: Time 503400, Note Name: F2, Velocity: 35
Note OFF: Time 503412, Note Name: F#2
Note ON: Time 503520, Note Name: F#2, Velocity: 37
Note OFF: Time 503532, Note Name: F2
Note ON: Time 503640, Note Name: F2, Velocity: 32
Note OFF: Time 503652, Note Name: F#2
Note ON: Time 503760, Note Name: F#2, Velocity: 38
Note OFF: Time 503772, Note Name: F2
Note ON: Time 503880, Note Name: F2, Velocity: 34
Note OFF: Time 503892, Note Name: F#2
Note OFF: Time 504000, Note Name: F2
Note OFF: Time 504000, Note Name: A#1
Note ON: Time 504000, Note Name: A1, Velocity: 36
Note ON: Time 504120, Note Name: A#1, Velocity: 31
Note OFF: Time 504132, Note Name: A1
Note ON: Time 504240, Note Name: A1, Velocity: 36
Note OFF: Time 504252, Note Name: A#1
Note ON: Time 504360, Note Name: A#1, Velocity: 32
Note OFF: Time 504372, Note Name: A1
Note ON: Time 504480, Note Name: A1, Velocity: 35
Note OFF: Time 504492, Note Name: A#1
Note ON: Time 504600, Note Name: A#1, Velocity: 30
Note OFF: Time 504612, Note Name: A1
Note ON: Time 504720, Note Name: A1, Velocity: 35
Note OFF: Time 504732, Note Name: A#1
Note ON: Time 504840, Note Name: A#1, Velocity: 31
Note OFF: Time 504852, Note Name: A1
Note OFF: Time 504960, Note Name: A#1
Note ON: Time 504960, Note Name: F#1, Velocity: 33
Note ON: Time 505080, Note Name: F1, Velocity: 29
Note OFF: Time 505092, Note Name: F#1
Note ON: Time 505200, Note Name: F#1, Velocity: 34
Note OFF: Time 505212, Note Name: F1
Note ON: Time 505320, Note Name: F1, Velocity: 30
Note OFF: Time 505332, Note Name: F#1
Note ON: Time 505440, Note Name: F#1, Velocity: 32
Note OFF: Time 505452, Note Name: F1
Note ON: Time 505560, Note Name: F1, Velocity: 28
Note OFF: Time 505572, Note Name: F#1
Note ON: Time 505680, Note Name: F2, Velocity: 32
Note ON: Time 505680, Note Name: A#1, Velocity: 32
Note OFF: Time 505692, Note Name: F1
Note ON: Time 505800, Note Name: F1, Velocity: 29
Note OFF: Time 505812, Note Name: A#1
Note OFF: Time 505812, Note Name: F2
Note OFF: Time 505920, Note Name: F1
Note ON: Time 505920, Note Name: F2, Velocity: 32
Note ON: Time 505920, Note Name: A#1, Velocity: 31
Note ON: Time 506040, Note Name: F1, Velocity: 27
Note OFF: Time 506052, Note Name: A#1
Note OFF: Time 506052, Note Name: F2
Note ON: Time 506160, Note Name: F2, Velocity: 32
Note ON: Time 506160, Note Name: A#1, Velocity: 32
Note OFF: Time 506172, Note Name: F1
Note ON: Time 506280, Note Name: F1, Velocity: 28
Note OFF: Time 506292, Note Name: A#1
Note OFF: Time 506292, Note Name: F2
Note ON: Time 506400, Note Name: F2, Velocity: 32
Note ON: Time 506400, Note Name: A#1, Velocity: 31
Note OFF: Time 506412, Note Name: F1
Note ON: Time 506520, Note Name: F1, Velocity: 27
Note OFF: Time 506532, Note Name: A#1
Note OFF: Time 506532, Note Name: F2
Note ON: Time 506640, Note Name: F2, Velocity: 32
Note ON: Time 506640, Note Name: A#1, Velocity: 32
Note OFF: Time 506652, Note Name: F1
Note ON: Time 506760, Note Name: F1, Velocity: 28
Note OFF: Time 506772, Note Name: A#1
Note OFF: Time 506772, Note Name: F2
Note OFF: Time 506880, Note Name: F1
Note ON: Time 506880, Note Name: F2, Velocity: 27
Note OFF: Time 507000, Note Name: F2
Note ON: Time 507000, Note Name: A#1, Velocity: 23
Note OFF: Time 507120, Note Name: A#1
Note ON: Time 507120, Note Name: F2, Velocity: 27
Note OFF: Time 507240, Note Name: F2
Note ON: Time 507240, Note Name: A#1, Velocity: 24
Note OFF: Time 507360, Note Name: A#1
Note ON: Time 507360, Note Name: F2, Velocity: 44
Note OFF: Time 507480, Note Name: F2
Note ON: Time 507480, Note Name: A#1, Velocity: 49
Note OFF: Time 507600, Note Name: A#1
Note ON: Time 507600, Note Name: A#2, Velocity: 55
Note ON: Time 507600, Note Name: F2, Velocity: 55
Note OFF: Time 507720, Note Name: F2
Note OFF: Time 507720, Note Name: A#2
Note ON: Time 507720, Note Name: A#1, Velocity: 60
Note OFF: Time 507840, Note Name: A#1
Note ON: Time 507840, Note Name: F2, Velocity: 66
Note ON: Time 507840, Note Name: A#2, Velocity: 66
Note OFF: Time 507960, Note Name: A#2
Note OFF: Time 507960, Note Name: F2
Note ON: Time 507960, Note Name: A#1, Velocity: 70
Note OFF: Time 508080, Note Name: A#1
Note ON: Time 508080, Note Name: F2, Velocity: 75
Note ON: Time 508080, Note Name: A#2, Velocity: 75
Note OFF: Time 508200, Note Name: A#2
Note OFF: Time 508200, Note Name: F2
Note ON: Time 508200, Note Name: A#1, Velocity: 81
Note OFF: Time 508320, Note Name: A#1
Note ON: Time 508320, Note Name: A#2, Velocity: 81
Note ON: Time 508320, Note Name: D3, Velocity: 81
Note ON: Time 508320, Note Name: F3, Velocity: 81
Note ON: Time 508320, Note Name: A#3, Velocity: 97
Note OFF: Time 508560, Note Name: A#3
Note OFF: Time 508560, Note Name: A#2
Note OFF: Time 508560, Note Name: D3
Note OFF: Time 508560, Note Name: F3
Note ON: Time 508800, Note Name: A#1, Velocity: 76
Note ON: Time 508800, Note Name: A#2, Velocity: 92
Note OFF: Time 509760, Note Name: A#2
Note OFF: Time 509760, Note Name: A#1
Track 3: Pedale
Track 4: Beethoven: Hammerklaviersonate 1. Satz
Track 5: Copyright  2008 by Bernd Krueger
Track 6: http://www.piano-midi.de/
Track 7: Edition: 2012-08-15
Track 8: Spur 8
Track 9: Spur 9
Track 10: Spur 10
Track 11: Spur 11
Track 12: Spur 12
Track 13: Spur 13
Track 14: Spur 14
Track 15: Spur 15
Track 16: Spur 16
