Processing beethoven_opus22_2.mid...

Track 0: Grande Sonata Opus 22 2. movement
Track 1: Piano right
Note ON: Time 1440, Note Name: G4, Velocity: 38
Note OFF: Time 1620, Note Name: G4
Note ON: Time 1620, Note Name: G#4, Velocity: 36
Note OFF: Time 1680, Note Name: G#4
Note ON: Time 1680, Note Name: G4, Velocity: 39
Note OFF: Time 1800, Note Name: G4
Note ON: Time 1800, Note Name: F4, Velocity: 36
Note OFF: Time 1920, Note Name: F4
Note ON: Time 1920, Note Name: G4, Velocity: 40
Note OFF: Time 2040, Note Name: G4
Note ON: Time 2040, Note Name: G#4, Velocity: 36
Note OFF: Time 2160, Note Name: G#4
Note ON: Time 2160, Note Name: A4, Velocity: 44
Note OFF: Time 2880, Note Name: A4
Note ON: Time 2880, Note Name: A#4, Velocity: 51
Note OFF: Time 3780, Note Name: A#4
Note ON: Time 3780, Note Name: C5, Velocity: 39
Note OFF: Time 3840, Note Name: C5
Note ON: Time 3840, Note Name: A#4, Velocity: 49
Note OFF: Time 3960, Note Name: A#4
Note ON: Time 3960, Note Name: A4, Velocity: 42
Note OFF: Time 4080, Note Name: A4
Note ON: Time 4080, Note Name: A#4, Velocity: 51
Note OFF: Time 4200, Note Name: A#4
Note ON: Time 4200, Note Name: B4, Velocity: 46
Note OFF: Time 4320, Note Name: B4
Note ON: Time 4320, Note Name: B4, Velocity: 50
Note ON: Time 4680, Note Name: C5, Velocity: 39
Note OFF: Time 4710, Note Name: C5
Note ON: Time 4710, Note Name: B4, Velocity: 33
Note OFF: Time 4740, Note Name: B4
Note OFF: Time 4740, Note Name: B4
Note ON: Time 4740, Note Name: A4, Velocity: 41
Note OFF: Time 4770, Note Name: A4
Note ON: Time 4770, Note Name: B4, Velocity: 37
Note OFF: Time 4800, Note Name: B4
Note ON: Time 4800, Note Name: D5, Velocity: 53
Note OFF: Time 4980, Note Name: D5
Note ON: Time 4980, Note Name: C5, Velocity: 44
Note OFF: Time 5040, Note Name: C5
Note ON: Time 5040, Note Name: F4, Velocity: 55
Note OFF: Time 5940, Note Name: F4
Note ON: Time 5940, Note Name: G4, Velocity: 39
Note OFF: Time 6000, Note Name: G4
Note ON: Time 6000, Note Name: F4, Velocity: 46
Note OFF: Time 6120, Note Name: F4
Note ON: Time 6120, Note Name: E4, Velocity: 42
Note OFF: Time 6240, Note Name: E4
Note ON: Time 6240, Note Name: F4, Velocity: 49
Note OFF: Time 6360, Note Name: F4
Note ON: Time 6360, Note Name: G4, Velocity: 46
Note OFF: Time 6480, Note Name: G4
Note ON: Time 6480, Note Name: G#4, Velocity: 55
Note OFF: Time 7320, Note Name: G#4
Note ON: Time 7320, Note Name: G4, Velocity: 47
Note OFF: Time 7440, Note Name: G4
Note ON: Time 7440, Note Name: F4, Velocity: 48
Note OFF: Time 7560, Note Name: F4
Note ON: Time 7560, Note Name: E4, Velocity: 44
Note OFF: Time 7680, Note Name: E4
Note ON: Time 7680, Note Name: F4, Velocity: 49
Note OFF: Time 7800, Note Name: F4
Note ON: Time 7800, Note Name: G4, Velocity: 44
Note OFF: Time 7920, Note Name: G4
Note ON: Time 7920, Note Name: G#4, Velocity: 50
Note OFF: Time 8040, Note Name: G#4
Note ON: Time 8040, Note Name: A#4, Velocity: 45
Note OFF: Time 8160, Note Name: A#4
Note ON: Time 8160, Note Name: C5, Velocity: 54
Note OFF: Time 8280, Note Name: C5
Note ON: Time 8280, Note Name: B4, Velocity: 45
Note OFF: Time 8400, Note Name: B4
Note ON: Time 8400, Note Name: C5, Velocity: 48
Note OFF: Time 8520, Note Name: C5
Note ON: Time 8520, Note Name: G#4, Velocity: 39
Note OFF: Time 8640, Note Name: G#4
Note ON: Time 8640, Note Name: F#4, Velocity: 58
Note OFF: Time 9360, Note Name: F#4
Note ON: Time 9360, Note Name: G4, Velocity: 55
Note OFF: Time 10200, Note Name: G4
Note ON: Time 10200, Note Name: D#4, Velocity: 55
Note OFF: Time 10320, Note Name: D#4
Note ON: Time 10320, Note Name: G4, Velocity: 59
Note OFF: Time 10440, Note Name: G4
Note ON: Time 10440, Note Name: A#4, Velocity: 62
Note OFF: Time 10560, Note Name: A#4
Note ON: Time 10560, Note Name: D#5, Velocity: 66
Note OFF: Time 10680, Note Name: D#5
Note ON: Time 10680, Note Name: G5, Velocity: 69
Note OFF: Time 10800, Note Name: G5
Note ON: Time 10800, Note Name: A#5, Velocity: 72
Note OFF: Time 11760, Note Name: A#5
Note ON: Time 11760, Note Name: G5, Velocity: 69
Note OFF: Time 12000, Note Name: G5
Note ON: Time 12000, Note Name: D#5, Velocity: 65
Note OFF: Time 12240, Note Name: D#5
Note ON: Time 12240, Note Name: A#4, Velocity: 65
Note OFF: Time 12480, Note Name: A#4
Note ON: Time 12480, Note Name: G4, Velocity: 68
Note OFF: Time 12720, Note Name: G4
Note ON: Time 12720, Note Name: D#4, Velocity: 66
Note OFF: Time 12960, Note Name: D#4
Note ON: Time 12960, Note Name: C4, Velocity: 72
Note OFF: Time 13680, Note Name: C4
Note ON: Time 13680, Note Name: C6, Velocity: 72
Note OFF: Time 14640, Note Name: C6
Note ON: Time 14640, Note Name: A#5, Velocity: 67
Note OFF: Time 14760, Note Name: A#5
Note ON: Time 14760, Note Name: G#5, Velocity: 61
Note OFF: Time 14880, Note Name: G#5
Note ON: Time 14880, Note Name: G5, Velocity: 67
Note OFF: Time 15000, Note Name: G5
Note ON: Time 15000, Note Name: F5, Velocity: 60
Note OFF: Time 15110, Note Name: F5
Note ON: Time 15120, Note Name: F5, Velocity: 67
Note OFF: Time 15360, Note Name: F5
Note ON: Time 15360, Note Name: D#5, Velocity: 60
Note OFF: Time 16080, Note Name: D#5
Note ON: Time 16080, Note Name: D#5, Velocity: 56
Note OFF: Time 16320, Note Name: D#5
Note ON: Time 16320, Note Name: D#5, Velocity: 54
Note OFF: Time 16560, Note Name: D#5
Note ON: Time 16560, Note Name: D#5, Velocity: 53
Note OFF: Time 16590, Note Name: D#5
Note ON: Time 16590, Note Name: F5, Velocity: 43
Note OFF: Time 16620, Note Name: F5
Note ON: Time 16620, Note Name: D#5, Velocity: 54
Note OFF: Time 16650, Note Name: D#5
Note ON: Time 16650, Note Name: F5, Velocity: 46
Note OFF: Time 16680, Note Name: F5
Note ON: Time 16680, Note Name: D#5, Velocity: 52
Note OFF: Time 16710, Note Name: D#5
Note ON: Time 16710, Note Name: F5, Velocity: 44
Note OFF: Time 16740, Note Name: F5
Note ON: Time 16740, Note Name: D#5, Velocity: 51
Note OFF: Time 16760, Note Name: D#5
Note ON: Time 16760, Note Name: D5, Velocity: 43
Note OFF: Time 16780, Note Name: D5
Note ON: Time 16780, Note Name: D#5, Velocity: 43
Note OFF: Time 16800, Note Name: D#5
Note ON: Time 16800, Note Name: F5, Velocity: 54
Note OFF: Time 17040, Note Name: F5
Note ON: Time 17040, Note Name: D5, Velocity: 47
Note OFF: Time 17280, Note Name: D5
Note ON: Time 17280, Note Name: D#5, Velocity: 47
Note OFF: Time 17520, Note Name: D#5
Note ON: Time 17520, Note Name: A#4, Velocity: 43
Note OFF: Time 17736, Note Name: A#4
Note ON: Time 17760, Note Name: A#4, Velocity: 43
Note OFF: Time 17976, Note Name: A#4
Note ON: Time 18000, Note Name: A#4, Velocity: 49
Note OFF: Time 18240, Note Name: A#4
Note ON: Time 18240, Note Name: C5, Velocity: 41
Note OFF: Time 18480, Note Name: C5
Note ON: Time 18480, Note Name: G#4, Velocity: 32
Note OFF: Time 18720, Note Name: G#4
Note ON: Time 18720, Note Name: D#4, Velocity: 36
Note ON: Time 18720, Note Name: G4, Velocity: 43
Note OFF: Time 18960, Note Name: G4
Note ON: Time 18960, Note Name: G#4, Velocity: 37
Note OFF: Time 19200, Note Name: G#4
Note OFF: Time 19200, Note Name: D#4
Note ON: Time 19200, Note Name: D4, Velocity: 27
Note ON: Time 19200, Note Name: F4, Velocity: 32
Note OFF: Time 19440, Note Name: F4
Note OFF: Time 19440, Note Name: D4
Note ON: Time 19440, Note Name: D#4, Velocity: 47
Note OFF: Time 19680, Note Name: D#4
Note ON: Time 19680, Note Name: A#3, Velocity: 38
Note OFF: Time 19896, Note Name: A#3
Note ON: Time 19920, Note Name: A#3, Velocity: 38
Note OFF: Time 20136, Note Name: A#3
Note ON: Time 20160, Note Name: A#3, Velocity: 34
Note OFF: Time 20190, Note Name: A#3
Note ON: Time 20190, Note Name: C4, Velocity: 27
Note OFF: Time 20220, Note Name: C4
Note ON: Time 20220, Note Name: A#3, Velocity: 34
Note OFF: Time 20250, Note Name: A#3
Note ON: Time 20250, Note Name: C4, Velocity: 29
Note OFF: Time 20280, Note Name: C4
Note ON: Time 20280, Note Name: A#3, Velocity: 33
Note OFF: Time 20310, Note Name: A#3
Note ON: Time 20310, Note Name: C4, Velocity: 27
Note OFF: Time 20340, Note Name: C4
Note ON: Time 20340, Note Name: A#3, Velocity: 32
Note OFF: Time 20360, Note Name: A#3
Note ON: Time 20360, Note Name: A3, Velocity: 27
Note OFF: Time 20380, Note Name: A3
Note ON: Time 20380, Note Name: A#3, Velocity: 27
Note OFF: Time 20400, Note Name: A#3
Note ON: Time 20400, Note Name: C4, Velocity: 34
Note OFF: Time 20640, Note Name: C4
Note ON: Time 20640, Note Name: G#3, Velocity: 28
Note OFF: Time 20880, Note Name: G#3
Note ON: Time 20880, Note Name: D#3, Velocity: 28
Note ON: Time 20880, Note Name: G3, Velocity: 34
Note OFF: Time 20910, Note Name: G3
Note ON: Time 20910, Note Name: G#3, Velocity: 27
Note OFF: Time 20940, Note Name: G#3
Note ON: Time 20940, Note Name: G3, Velocity: 34
Note OFF: Time 20970, Note Name: G3
Note ON: Time 20970, Note Name: G#3, Velocity: 29
Note OFF: Time 21000, Note Name: G#3
Note ON: Time 21000, Note Name: G3, Velocity: 33
Note OFF: Time 21030, Note Name: G3
Note ON: Time 21030, Note Name: G#3, Velocity: 27
Note OFF: Time 21060, Note Name: G#3
Note ON: Time 21060, Note Name: G3, Velocity: 32
Note OFF: Time 21080, Note Name: G3
Note ON: Time 21080, Note Name: F3, Velocity: 27
Note OFF: Time 21100, Note Name: F3
Note ON: Time 21100, Note Name: G3, Velocity: 27
Note OFF: Time 21120, Note Name: G3
Note ON: Time 21120, Note Name: G#3, Velocity: 34
Note ON: Time 21355, Note Name: F3, Velocity: 28
Note OFF: Time 21360, Note Name: G#3
Note OFF: Time 21360, Note Name: D#3
Note OFF: Time 21595, Note Name: F3
Note ON: Time 21600, Note Name: D#3, Velocity: 28
Note OFF: Time 22080, Note Name: D#3
Note ON: Time 22080, Note Name: D3, Velocity: 33
Note ON: Time 22080, Note Name: F3, Velocity: 39
Note OFF: Time 22320, Note Name: F3
Note OFF: Time 22320, Note Name: D3
Note ON: Time 22320, Note Name: D#3, Velocity: 28
Note OFF: Time 22800, Note Name: D#3
Note ON: Time 22800, Note Name: D3, Velocity: 34
Note ON: Time 22800, Note Name: F3, Velocity: 40
Note OFF: Time 23040, Note Name: F3
Note OFF: Time 23040, Note Name: D3
Note ON: Time 23040, Note Name: D#3, Velocity: 28
Note OFF: Time 23520, Note Name: D#3
Note ON: Time 23520, Note Name: D3, Velocity: 36
Note ON: Time 23520, Note Name: F3, Velocity: 36
Note ON: Time 23520, Note Name: A#3, Velocity: 43
Note OFF: Time 23740, Note Name: A#3
Note OFF: Time 23740, Note Name: F3
Note OFF: Time 23740, Note Name: D3
Note ON: Time 23760, Note Name: D3, Velocity: 23
Note ON: Time 23760, Note Name: F3, Velocity: 23
Note ON: Time 23760, Note Name: A#3, Velocity: 28
Note OFF: Time 24480, Note Name: A#3
Note OFF: Time 24480, Note Name: F3
Note OFF: Time 24480, Note Name: D3
Note ON: Time 24480, Note Name: D#3, Velocity: 25
Note OFF: Time 24960, Note Name: D#3
Note ON: Time 25200, Note Name: G3, Velocity: 32
Note OFF: Time 25440, Note Name: G3
Note ON: Time 25440, Note Name: A#3, Velocity: 37
Note OFF: Time 25680, Note Name: A#3
Note ON: Time 25680, Note Name: D#4, Velocity: 42
Note OFF: Time 25910, Note Name: D#4
Note ON: Time 25920, Note Name: G3, Velocity: 38
Note ON: Time 25920, Note Name: A#3, Velocity: 38
Note ON: Time 25920, Note Name: D#4, Velocity: 38
Note ON: Time 25920, Note Name: G4, Velocity: 45
Note OFF: Time 26870, Note Name: G4
Note OFF: Time 26870, Note Name: G3
Note OFF: Time 26870, Note Name: A#3
Note OFF: Time 26870, Note Name: D#4
Note ON: Time 26880, Note Name: A#3, Velocity: 36
Note ON: Time 26880, Note Name: D#4, Velocity: 36
Note ON: Time 26880, Note Name: G4, Velocity: 43
Note OFF: Time 27110, Note Name: G4
Note OFF: Time 27110, Note Name: D#4
Note OFF: Time 27110, Note Name: A#3
Note ON: Time 27120, Note Name: D#4, Velocity: 35
Note ON: Time 27120, Note Name: G4, Velocity: 42
Note OFF: Time 27350, Note Name: G4
Note OFF: Time 27350, Note Name: D#4
Note ON: Time 27360, Note Name: D#4, Velocity: 23
Note ON: Time 27360, Note Name: G4, Velocity: 34
Note OFF: Time 27390, Note Name: G4
Note ON: Time 27390, Note Name: G#4, Velocity: 27
Note OFF: Time 27420, Note Name: G#4
Note ON: Time 27420, Note Name: G4, Velocity: 34
Note OFF: Time 27450, Note Name: G4
Note ON: Time 27450, Note Name: G#4, Velocity: 29
Note OFF: Time 27480, Note Name: G#4
Note ON: Time 27480, Note Name: G4, Velocity: 33
Note OFF: Time 27510, Note Name: G4
Note ON: Time 27510, Note Name: G#4, Velocity: 27
Note OFF: Time 27540, Note Name: G#4
Note ON: Time 27540, Note Name: G4, Velocity: 32
Note OFF: Time 27560, Note Name: G4
Note ON: Time 27560, Note Name: F4, Velocity: 27
Note OFF: Time 27580, Note Name: F4
Note ON: Time 27580, Note Name: G4, Velocity: 27
Note OFF: Time 27600, Note Name: G4
Note ON: Time 27600, Note Name: F4, Velocity: 38
Note ON: Time 27600, Note Name: G#4, Velocity: 45
Note OFF: Time 27840, Note Name: G#4
Note OFF: Time 27840, Note Name: F4
Note OFF: Time 27840, Note Name: D#4
Note ON: Time 27840, Note Name: A#3, Velocity: 32
Note ON: Time 27840, Note Name: D4, Velocity: 32
Note ON: Time 27840, Note Name: F4, Velocity: 38
Note OFF: Time 28070, Note Name: F4
Note OFF: Time 28070, Note Name: D4
Note OFF: Time 28070, Note Name: A#3
Note ON: Time 28080, Note Name: A#3, Velocity: 28
Note ON: Time 28080, Note Name: D4, Velocity: 28
Note ON: Time 28080, Note Name: F4, Velocity: 34
Note OFF: Time 28800, Note Name: F4
Note OFF: Time 28800, Note Name: D4
Note ON: Time 28800, Note Name: D#4, Velocity: 32
Note OFF: Time 29040, Note Name: D#4
Note OFF: Time 29040, Note Name: A#3
Note ON: Time 29520, Note Name: G3, Velocity: 36
Note ON: Time 29520, Note Name: A#3, Velocity: 43
Note OFF: Time 29760, Note Name: A#3
Note OFF: Time 29760, Note Name: G3
Note ON: Time 29760, Note Name: A#3, Velocity: 40
Note ON: Time 29760, Note Name: D#4, Velocity: 48
Note OFF: Time 30000, Note Name: D#4
Note OFF: Time 30000, Note Name: A#3
Note ON: Time 30000, Note Name: D#4, Velocity: 45
Note ON: Time 30000, Note Name: G4, Velocity: 54
Note OFF: Time 30230, Note Name: G4
Note OFF: Time 30240, Note Name: D#4
Note ON: Time 30240, Note Name: G4, Velocity: 51
Note ON: Time 30240, Note Name: A#4, Velocity: 60
Note ON: Time 31200, Note Name: D#5, Velocity: 70
Note OFF: Time 31419, Note Name: D#5
Note ON: Time 31440, Note Name: D#5, Velocity: 64
Note OFF: Time 31659, Note Name: D#5
Note ON: Time 31680, Note Name: D#5, Velocity: 67
Note OFF: Time 31908, Note Name: D#5
Note OFF: Time 31920, Note Name: A#4
Note OFF: Time 31920, Note Name: G4
Note ON: Time 31920, Note Name: F#4, Velocity: 44
Note ON: Time 31920, Note Name: A4, Velocity: 44
Note ON: Time 31920, Note Name: D#5, Velocity: 57
Note OFF: Time 32148, Note Name: D#5
Note OFF: Time 32160, Note Name: A4
Note OFF: Time 32160, Note Name: F#4
Note ON: Time 32160, Note Name: D#5, Velocity: 64
Note ON: Time 32160, Note Name: F#4, Velocity: 50
Note ON: Time 32160, Note Name: A#4, Velocity: 50
Note OFF: Time 32388, Note Name: D#5
Note OFF: Time 32390, Note Name: A#4
Note OFF: Time 32390, Note Name: F#4
Note ON: Time 32400, Note Name: F#4, Velocity: 45
Note ON: Time 32400, Note Name: C5, Velocity: 45
Note ON: Time 32400, Note Name: D#5, Velocity: 68
Note OFF: Time 32880, Note Name: F#4
Note ON: Time 32880, Note Name: F4, Velocity: 38
Note OFF: Time 33120, Note Name: F4
Note OFF: Time 33120, Note Name: D#5
Note OFF: Time 33120, Note Name: C5
Note ON: Time 33360, Note Name: F#4, Velocity: 34
Note ON: Time 33360, Note Name: C5, Velocity: 34
Note ON: Time 33360, Note Name: D#5, Velocity: 40
Note OFF: Time 33600, Note Name: F#4
Note ON: Time 33600, Note Name: F4, Velocity: 29
Note OFF: Time 33840, Note Name: F4
Note OFF: Time 33840, Note Name: D#5
Note OFF: Time 33840, Note Name: C5
Note ON: Time 34080, Note Name: F#4, Velocity: 34
Note ON: Time 34080, Note Name: A#4, Velocity: 34
Note ON: Time 34080, Note Name: C#5, Velocity: 40
Note OFF: Time 34320, Note Name: F#4
Note ON: Time 34320, Note Name: F4, Velocity: 27
Note OFF: Time 34560, Note Name: F4
Note OFF: Time 34560, Note Name: C#5
Note OFF: Time 34560, Note Name: A#4
Note ON: Time 34800, Note Name: C#5, Velocity: 34
Note ON: Time 34800, Note Name: D#4, Velocity: 34
Note ON: Time 34800, Note Name: F#4, Velocity: 40
Note OFF: Time 35040, Note Name: C#5
Note ON: Time 35040, Note Name: B4, Velocity: 34
Note OFF: Time 35280, Note Name: B4
Note OFF: Time 35280, Note Name: F#4
Note OFF: Time 35280, Note Name: D#4
Note ON: Time 35520, Note Name: B4, Velocity: 34
Note ON: Time 35520, Note Name: C#4, Velocity: 34
Note ON: Time 35520, Note Name: G4, Velocity: 40
Note OFF: Time 35760, Note Name: B4
Note ON: Time 35760, Note Name: A#4, Velocity: 34
Note OFF: Time 36000, Note Name: A#4
Note OFF: Time 36000, Note Name: G4
Note OFF: Time 36000, Note Name: C#4
Note ON: Time 36240, Note Name: A#4, Velocity: 34
Note ON: Time 36240, Note Name: C4, Velocity: 34
Note ON: Time 36240, Note Name: D#4, Velocity: 40
Note OFF: Time 36480, Note Name: A#4
Note ON: Time 36480, Note Name: A4, Velocity: 34
Note OFF: Time 36720, Note Name: A4
Note OFF: Time 36720, Note Name: D#4
Note OFF: Time 36720, Note Name: C4
Note ON: Time 36720, Note Name: D4, Velocity: 34
Note ON: Time 36720, Note Name: A#4, Velocity: 34
Note OFF: Time 37200, Note Name: A#4
Note OFF: Time 37200, Note Name: D4
Note ON: Time 38160, Note Name: D5, Velocity: 57
Note OFF: Time 38640, Note Name: D5
Note ON: Time 38640, Note Name: C5, Velocity: 48
Note OFF: Time 38760, Note Name: C5
Note ON: Time 38760, Note Name: A#4, Velocity: 47
Note OFF: Time 38880, Note Name: A#4
Note ON: Time 38880, Note Name: C4, Velocity: 30
Note ON: Time 38880, Note Name: D#4, Velocity: 35
Note ON: Time 38880, Note Name: A#4, Velocity: 54
Note OFF: Time 39120, Note Name: A#4
Note ON: Time 39120, Note Name: A4, Velocity: 47
Note OFF: Time 39350, Note Name: D#4
Note OFF: Time 39360, Note Name: A4
Note OFF: Time 39360, Note Name: C4
Note ON: Time 39360, Note Name: A#3, Velocity: 43
Note ON: Time 39360, Note Name: D#4, Velocity: 37
Note ON: Time 39360, Note Name: G4, Velocity: 51
Note OFF: Time 39480, Note Name: G4
Note OFF: Time 39480, Note Name: A#3
Note ON: Time 39480, Note Name: A3, Velocity: 36
Note ON: Time 39480, Note Name: F4, Velocity: 43
Note OFF: Time 39590, Note Name: F4
Note OFF: Time 39590, Note Name: A3
Note OFF: Time 39590, Note Name: D#4
Note ON: Time 39600, Note Name: A3, Velocity: 48
Note ON: Time 39600, Note Name: D#4, Velocity: 35
Note ON: Time 39600, Note Name: F4, Velocity: 50
Note OFF: Time 40080, Note Name: A3
Note ON: Time 40080, Note Name: G3, Velocity: 45
Note OFF: Time 40200, Note Name: G3
Note ON: Time 40200, Note Name: F3, Velocity: 38
Note OFF: Time 40310, Note Name: F3
Note ON: Time 40320, Note Name: F3, Velocity: 51
Note OFF: Time 40560, Note Name: F4
Note ON: Time 40560, Note Name: G4, Velocity: 44
Note OFF: Time 40680, Note Name: F3
Note ON: Time 40680, Note Name: D#3, Velocity: 38
Note OFF: Time 40800, Note Name: D#3
Note OFF: Time 40800, Note Name: G4
Note ON: Time 40800, Note Name: D3, Velocity: 38
Note ON: Time 40800, Note Name: A4, Velocity: 46
Note OFF: Time 40920, Note Name: D3
Note ON: Time 40920, Note Name: D#3, Velocity: 38
Note OFF: Time 41040, Note Name: D#3
Note OFF: Time 41040, Note Name: A4
Note OFF: Time 41040, Note Name: D#4
Note ON: Time 41040, Note Name: A#4, Velocity: 51
Note ON: Time 41040, Note Name: D3, Velocity: 51
Note OFF: Time 41160, Note Name: A#4
Note ON: Time 41160, Note Name: C5, Velocity: 44
Note OFF: Time 41200, Note Name: C5
Note ON: Time 41200, Note Name: A#4, Velocity: 38
Note OFF: Time 41240, Note Name: A#4
Note ON: Time 41240, Note Name: A4, Velocity: 38
Note OFF: Time 41280, Note Name: A4
Note ON: Time 41280, Note Name: A#4, Velocity: 51
Note OFF: Time 41400, Note Name: A#4
Note ON: Time 41400, Note Name: C5, Velocity: 47
Note OFF: Time 41520, Note Name: C5
Note OFF: Time 41520, Note Name: D3
Note ON: Time 41520, Note Name: D5, Velocity: 49
Note OFF: Time 41640, Note Name: D5
Note ON: Time 41640, Note Name: D#5, Velocity: 50
Note OFF: Time 41730, Note Name: D#5
Note ON: Time 41730, Note Name: D5, Velocity: 48
Note OFF: Time 41760, Note Name: D5
Note ON: Time 41760, Note Name: F5, Velocity: 57
Note OFF: Time 42480, Note Name: F5
Note ON: Time 42480, Note Name: E5, Velocity: 47
Note OFF: Time 42600, Note Name: E5
Note ON: Time 42600, Note Name: F5, Velocity: 52
Note OFF: Time 42720, Note Name: F5
Note ON: Time 42720, Note Name: G5, Velocity: 53
Note OFF: Time 42840, Note Name: G5
Note ON: Time 42840, Note Name: F5, Velocity: 51
Note OFF: Time 42960, Note Name: F5
Note ON: Time 42960, Note Name: D#5, Velocity: 53
Note OFF: Time 43080, Note Name: D#5
Note ON: Time 43080, Note Name: D5, Velocity: 51
Note OFF: Time 43190, Note Name: D5
Note ON: Time 43200, Note Name: D#4, Velocity: 30
Note ON: Time 43200, Note Name: G4, Velocity: 35
Note ON: Time 43200, Note Name: D5, Velocity: 57
Note OFF: Time 43440, Note Name: D5
Note ON: Time 43440, Note Name: C5, Velocity: 47
Note OFF: Time 43670, Note Name: G4
Note OFF: Time 43680, Note Name: C5
Note OFF: Time 43680, Note Name: D#4
Note ON: Time 43680, Note Name: D4, Velocity: 36
Note ON: Time 43680, Note Name: A#4, Velocity: 51
Note ON: Time 43680, Note Name: F4, Velocity: 43
Note OFF: Time 43800, Note Name: F4
Note OFF: Time 43800, Note Name: A#4
Note OFF: Time 43800, Note Name: D4
Note ON: Time 43800, Note Name: C4, Velocity: 30
Note ON: Time 43800, Note Name: A4, Velocity: 43
Note ON: Time 43800, Note Name: D#4, Velocity: 36
Note OFF: Time 43910, Note Name: D#4
Note OFF: Time 43910, Note Name: A4
Note OFF: Time 43910, Note Name: C4
Note ON: Time 43920, Note Name: C4, Velocity: 40
Note ON: Time 43920, Note Name: A4, Velocity: 50
Note ON: Time 43920, Note Name: D#4, Velocity: 35
Note OFF: Time 44390, Note Name: D#4
Note OFF: Time 44400, Note Name: A4
Note OFF: Time 44400, Note Name: C4
Note ON: Time 44400, Note Name: D#4, Velocity: 35
Note ON: Time 44400, Note Name: A#3, Velocity: 45
Note ON: Time 44400, Note Name: G4, Velocity: 51
Note OFF: Time 44520, Note Name: G4
Note OFF: Time 44520, Note Name: A#3
Note ON: Time 44520, Note Name: F4, Velocity: 43
Note ON: Time 44520, Note Name: A3, Velocity: 38
Note OFF: Time 44630, Note Name: A3
Note OFF: Time 44630, Note Name: D#4
Note OFF: Time 44640, Note Name: F4
Note ON: Time 44640, Note Name: D#4, Velocity: 35
Note ON: Time 44640, Note Name: F4, Velocity: 54
Note ON: Time 44640, Note Name: A3, Velocity: 51
Note OFF: Time 44760, Note Name: A3
Note ON: Time 44760, Note Name: G3, Velocity: 38
Note OFF: Time 44880, Note Name: G3
Note OFF: Time 44880, Note Name: F4
Note ON: Time 44880, Note Name: F3, Velocity: 38
Note ON: Time 44880, Note Name: G4, Velocity: 44
Note OFF: Time 45000, Note Name: F3
Note ON: Time 45000, Note Name: D#3, Velocity: 38
Note OFF: Time 45120, Note Name: D#3
Note OFF: Time 45120, Note Name: G4
Note ON: Time 45120, Note Name: D3, Velocity: 38
Note ON: Time 45120, Note Name: A4, Velocity: 46
Note OFF: Time 45240, Note Name: D3
Note ON: Time 45240, Note Name: C3, Velocity: 38
Note OFF: Time 45360, Note Name: C3
Note OFF: Time 45360, Note Name: A4
Note OFF: Time 45360, Note Name: D#4
Note ON: Time 45360, Note Name: D4, Velocity: 54
Note ON: Time 45360, Note Name: A#4, Velocity: 54
Note OFF: Time 45600, Note Name: A#4
Note OFF: Time 45600, Note Name: D4
Note ON: Time 45600, Note Name: C#5, Velocity: 40
Note OFF: Time 45840, Note Name: C#5
Note ON: Time 45840, Note Name: D5, Velocity: 44
Note OFF: Time 46080, Note Name: D5
Note ON: Time 46320, Note Name: E5, Velocity: 41
Note OFF: Time 46560, Note Name: E5
Note ON: Time 46560, Note Name: F5, Velocity: 44
Note OFF: Time 46800, Note Name: F5
Note ON: Time 47040, Note Name: A5, Velocity: 40
Note OFF: Time 47280, Note Name: A5
Note ON: Time 47280, Note Name: A#5, Velocity: 44
Note OFF: Time 47520, Note Name: A#5
Note ON: Time 47760, Note Name: F#5, Velocity: 41
Note OFF: Time 48000, Note Name: F#5
Note ON: Time 48000, Note Name: G5, Velocity: 44
Note OFF: Time 48240, Note Name: G5
Note ON: Time 48480, Note Name: D5, Velocity: 40
Note OFF: Time 48720, Note Name: D5
Note ON: Time 48720, Note Name: D#5, Velocity: 42
Note OFF: Time 48960, Note Name: D#5
Note ON: Time 49200, Note Name: B4, Velocity: 38
Note OFF: Time 49440, Note Name: B4
Note ON: Time 49440, Note Name: C5, Velocity: 42
Note OFF: Time 49680, Note Name: C5
Note ON: Time 49920, Note Name: F5, Velocity: 59
Note OFF: Time 50520, Note Name: F5
Note ON: Time 50520, Note Name: G5, Velocity: 60
Note OFF: Time 50580, Note Name: G5
Note ON: Time 50580, Note Name: A5, Velocity: 62
Note OFF: Time 50640, Note Name: A5
Note ON: Time 50640, Note Name: A#5, Velocity: 64
Note OFF: Time 50700, Note Name: A#5
Note ON: Time 50700, Note Name: C6, Velocity: 66
Note OFF: Time 50760, Note Name: C6
Note ON: Time 50760, Note Name: D6, Velocity: 68
Note OFF: Time 50820, Note Name: D6
Note ON: Time 50820, Note Name: D#6, Velocity: 70
Note OFF: Time 50880, Note Name: D#6
Note ON: Time 50880, Note Name: F6, Velocity: 72
Note OFF: Time 51360, Note Name: F6
Note ON: Time 51360, Note Name: D#6, Velocity: 70
Note OFF: Time 51600, Note Name: D#6
Note ON: Time 51600, Note Name: C6, Velocity: 66
Note OFF: Time 51840, Note Name: C6
Note ON: Time 51840, Note Name: A#5, Velocity: 58
Note OFF: Time 52140, Note Name: A#5
Note ON: Time 52140, Note Name: A5, Velocity: 50
Note OFF: Time 52200, Note Name: A5
Note ON: Time 52200, Note Name: D6, Velocity: 57
Note ON: Time 52260, Note Name: C6, Velocity: 54
Note OFF: Time 52266, Note Name: D6
Note ON: Time 52320, Note Name: A#5, Velocity: 53
Note OFF: Time 52326, Note Name: C6
Note ON: Time 52380, Note Name: A5, Velocity: 51
Note OFF: Time 52386, Note Name: A#5
Note ON: Time 52440, Note Name: G5, Velocity: 49
Note OFF: Time 52446, Note Name: A5
Note ON: Time 52500, Note Name: F5, Velocity: 47
Note OFF: Time 52506, Note Name: G5
Note ON: Time 52560, Note Name: E5, Velocity: 53
Note OFF: Time 52566, Note Name: F5
Note ON: Time 52620, Note Name: F5, Velocity: 51
Note OFF: Time 52626, Note Name: E5
Note ON: Time 52680, Note Name: A#5, Velocity: 59
Note OFF: Time 52686, Note Name: F5
Note ON: Time 52740, Note Name: A5, Velocity: 54
Note OFF: Time 52746, Note Name: A#5
Note ON: Time 52800, Note Name: G5, Velocity: 54
Note OFF: Time 52806, Note Name: A5
Note ON: Time 52860, Note Name: F5, Velocity: 52
Note OFF: Time 52866, Note Name: G5
Note ON: Time 52920, Note Name: D#5, Velocity: 50
Note OFF: Time 52926, Note Name: F5
Note ON: Time 52980, Note Name: D5, Velocity: 50
Note OFF: Time 52986, Note Name: D#5
Note ON: Time 53040, Note Name: C#5, Velocity: 52
Note OFF: Time 53046, Note Name: D5
Note ON: Time 53100, Note Name: D5, Velocity: 46
Note OFF: Time 53106, Note Name: C#5
Note ON: Time 53160, Note Name: G5, Velocity: 56
Note OFF: Time 53166, Note Name: D5
Note ON: Time 53220, Note Name: F5, Velocity: 55
Note OFF: Time 53226, Note Name: G5
Note ON: Time 53280, Note Name: D#5, Velocity: 54
Note OFF: Time 53286, Note Name: F5
Note ON: Time 53340, Note Name: D5, Velocity: 52
Note OFF: Time 53346, Note Name: D#5
Note ON: Time 53400, Note Name: C5, Velocity: 50
Note OFF: Time 53406, Note Name: D5
Note ON: Time 53460, Note Name: A#4, Velocity: 48
Note OFF: Time 53466, Note Name: C5
Note ON: Time 53520, Note Name: A4, Velocity: 46
Note OFF: Time 53526, Note Name: A#4
Note ON: Time 53580, Note Name: A#4, Velocity: 45
Note OFF: Time 53586, Note Name: A4
Note ON: Time 53640, Note Name: D#5, Velocity: 52
Note OFF: Time 53646, Note Name: A#4
Note ON: Time 53700, Note Name: D5, Velocity: 51
Note OFF: Time 53706, Note Name: D#5
Note ON: Time 53760, Note Name: C5, Velocity: 49
Note OFF: Time 53766, Note Name: D5
Note ON: Time 53820, Note Name: A#4, Velocity: 47
Note OFF: Time 53826, Note Name: C5
Note ON: Time 53880, Note Name: A4, Velocity: 44
Note OFF: Time 53886, Note Name: A#4
Note ON: Time 53940, Note Name: G4, Velocity: 42
Note OFF: Time 53946, Note Name: A4
Note ON: Time 54000, Note Name: E4, Velocity: 39
Note OFF: Time 54006, Note Name: G4
Note OFF: Time 54060, Note Name: E4
Note ON: Time 54060, Note Name: F4, Velocity: 39
Note OFF: Time 54120, Note Name: F4
Note ON: Time 54120, Note Name: F#4, Velocity: 40
Note OFF: Time 54180, Note Name: F#4
Note ON: Time 54180, Note Name: G4, Velocity: 41
Note OFF: Time 54240, Note Name: G4
Note ON: Time 54240, Note Name: G#4, Velocity: 42
Note OFF: Time 54300, Note Name: G#4
Note ON: Time 54300, Note Name: A4, Velocity: 42
Note OFF: Time 54360, Note Name: A4
Note ON: Time 54360, Note Name: A#4, Velocity: 43
Note OFF: Time 54420, Note Name: A#4
Note ON: Time 54420, Note Name: B4, Velocity: 44
Note OFF: Time 54480, Note Name: B4
Note ON: Time 54480, Note Name: C5, Velocity: 45
Note OFF: Time 54540, Note Name: C5
Note ON: Time 54540, Note Name: C#5, Velocity: 45
Note OFF: Time 54600, Note Name: C#5
Note ON: Time 54600, Note Name: D5, Velocity: 46
Note OFF: Time 54660, Note Name: D5
Note ON: Time 54660, Note Name: D#5, Velocity: 47
Note OFF: Time 54720, Note Name: D#5
Note ON: Time 54720, Note Name: E5, Velocity: 49
Note OFF: Time 54780, Note Name: E5
Note ON: Time 54780, Note Name: F5, Velocity: 50
Note OFF: Time 54840, Note Name: F5
Note ON: Time 54840, Note Name: F#5, Velocity: 52
Note OFF: Time 54900, Note Name: F#5
Note ON: Time 54900, Note Name: G5, Velocity: 54
Note OFF: Time 54960, Note Name: G5
Note ON: Time 54960, Note Name: G#5, Velocity: 56
Note OFF: Time 55020, Note Name: G#5
Note ON: Time 55020, Note Name: A5, Velocity: 58
Note OFF: Time 55080, Note Name: A5
Note ON: Time 55080, Note Name: A#5, Velocity: 60
Note OFF: Time 55140, Note Name: A#5
Note ON: Time 55140, Note Name: B5, Velocity: 61
Note OFF: Time 55200, Note Name: B5
Note ON: Time 55200, Note Name: C6, Velocity: 64
Note OFF: Time 55248, Note Name: C6
Note ON: Time 55248, Note Name: C#6, Velocity: 65
Note OFF: Time 55296, Note Name: C#6
Note ON: Time 55296, Note Name: D6, Velocity: 67
Note OFF: Time 55344, Note Name: D6
Note ON: Time 55344, Note Name: D#6, Velocity: 69
Note OFF: Time 55392, Note Name: D#6
Note ON: Time 55392, Note Name: E6, Velocity: 70
Note OFF: Time 55440, Note Name: E6
Note ON: Time 55440, Note Name: F6, Velocity: 80
Note OFF: Time 55740, Note Name: F6
Note ON: Time 55740, Note Name: D#6, Velocity: 69
Note OFF: Time 55800, Note Name: D#6
Note ON: Time 55800, Note Name: C6, Velocity: 66
Note OFF: Time 55860, Note Name: C6
Note ON: Time 55860, Note Name: A5, Velocity: 63
Note OFF: Time 55920, Note Name: A5
Note ON: Time 55920, Note Name: F5, Velocity: 60
Note OFF: Time 55980, Note Name: F5
Note ON: Time 55980, Note Name: D#5, Velocity: 57
Note OFF: Time 56040, Note Name: D#5
Note ON: Time 56040, Note Name: C5, Velocity: 54
Note OFF: Time 56100, Note Name: C5
Note ON: Time 56100, Note Name: A4, Velocity: 51
Note OFF: Time 56160, Note Name: A4
Note ON: Time 56160, Note Name: A#4, Velocity: 56
Note OFF: Time 56640, Note Name: A#4
Note ON: Time 57360, Note Name: A#4, Velocity: 56
Note ON: Time 57360, Note Name: C#5, Velocity: 67
Note OFF: Time 57840, Note Name: C#5
Note ON: Time 57840, Note Name: D5, Velocity: 54
Note OFF: Time 58080, Note Name: D5
Note OFF: Time 58080, Note Name: A#4
Note ON: Time 58080, Note Name: A4, Velocity: 50
Note ON: Time 58080, Note Name: D#5, Velocity: 59
Note OFF: Time 58260, Note Name: D#5
Note ON: Time 58260, Note Name: C5, Velocity: 53
Note OFF: Time 58320, Note Name: C5
Note OFF: Time 58320, Note Name: A4
Note ON: Time 58320, Note Name: D4, Velocity: 46
Note ON: Time 58320, Note Name: A#4, Velocity: 56
Note OFF: Time 58800, Note Name: A#4
Note OFF: Time 58800, Note Name: D4
Note ON: Time 59520, Note Name: C#4, Velocity: 60
Note ON: Time 59520, Note Name: A#3, Velocity: 50
Note OFF: Time 60000, Note Name: C#4
Note ON: Time 60000, Note Name: D4, Velocity: 48
Note OFF: Time 60240, Note Name: D4
Note OFF: Time 60240, Note Name: A#3
Note ON: Time 60240, Note Name: D#4, Velocity: 53
Note ON: Time 60240, Note Name: A3, Velocity: 45
Note OFF: Time 60420, Note Name: D#4
Note ON: Time 60420, Note Name: C4, Velocity: 43
Note OFF: Time 60480, Note Name: C4
Note OFF: Time 60480, Note Name: A3
Note ON: Time 60480, Note Name: A#3, Velocity: 48
Note OFF: Time 60720, Note Name: A#3
Note ON: Time 60720, Note Name: A3, Velocity: 43
Note ON: Time 60720, Note Name: D#4, Velocity: 51
Note OFF: Time 61080, Note Name: D#4
Note ON: Time 61080, Note Name: C4, Velocity: 44
Note OFF: Time 61200, Note Name: C4
Note OFF: Time 61200, Note Name: A3
Note ON: Time 61200, Note Name: A#3, Velocity: 48
Note OFF: Time 61440, Note Name: A#3
Note ON: Time 61440, Note Name: A3, Velocity: 43
Note ON: Time 61440, Note Name: D#4, Velocity: 51
Note OFF: Time 61800, Note Name: D#4
Note ON: Time 61800, Note Name: C4, Velocity: 44
Note OFF: Time 61920, Note Name: C4
Note OFF: Time 61920, Note Name: A3
Note ON: Time 61920, Note Name: A#3, Velocity: 48
Note OFF: Time 62160, Note Name: A#3
Note ON: Time 62160, Note Name: D#4, Velocity: 59
Note ON: Time 62160, Note Name: A3, Velocity: 50
Note OFF: Time 62280, Note Name: D#4
Note ON: Time 62280, Note Name: D4, Velocity: 55
Note OFF: Time 62400, Note Name: D4
Note OFF: Time 62400, Note Name: A3
Note ON: Time 62400, Note Name: D#4, Velocity: 69
Note ON: Time 62400, Note Name: A3, Velocity: 51
Note OFF: Time 62520, Note Name: D#4
Note ON: Time 62520, Note Name: C4, Velocity: 62
Note OFF: Time 62640, Note Name: C4
Note OFF: Time 62640, Note Name: A3
Note ON: Time 62640, Note Name: B3, Velocity: 39
Note OFF: Time 62680, Note Name: B3
Note ON: Time 62680, Note Name: C4, Velocity: 38
Note OFF: Time 62720, Note Name: C4
Note ON: Time 62720, Note Name: D4, Velocity: 32
Note OFF: Time 62760, Note Name: D4
Note ON: Time 62760, Note Name: C4, Velocity: 42
Note ON: Time 62760, Note Name: A3, Velocity: 35
Note OFF: Time 63360, Note Name: A3
Note OFF: Time 63360, Note Name: C4
Note ON: Time 63360, Note Name: A#3, Velocity: 39
Note OFF: Time 63840, Note Name: A#3
Note ON: Time 66240, Note Name: B3, Velocity: 33
Note OFF: Time 66420, Note Name: B3
Note ON: Time 66420, Note Name: C4, Velocity: 28
Note OFF: Time 66480, Note Name: C4
Note ON: Time 66480, Note Name: B3, Velocity: 34
Note OFF: Time 66600, Note Name: B3
Note ON: Time 66600, Note Name: A3, Velocity: 29
Note OFF: Time 66720, Note Name: A3
Note ON: Time 66720, Note Name: B3, Velocity: 38
Note OFF: Time 66840, Note Name: B3
Note ON: Time 66840, Note Name: C4, Velocity: 37
Note OFF: Time 66960, Note Name: C4
Note ON: Time 66960, Note Name: F3, Velocity: 25
Note ON: Time 66960, Note Name: C#4, Velocity: 34
Note ON: Time 66960, Note Name: G#3, Velocity: 25
Note ON: Time 66960, Note Name: B3, Velocity: 25
Note OFF: Time 67680, Note Name: C#4
Note ON: Time 67680, Note Name: D4, Velocity: 34
Note OFF: Time 68160, Note Name: D4
Note OFF: Time 68160, Note Name: B3
Note OFF: Time 68160, Note Name: G#3
Note OFF: Time 68160, Note Name: F3
Note ON: Time 68580, Note Name: D#4, Velocity: 28
Note OFF: Time 68640, Note Name: D#4
Note ON: Time 68640, Note Name: D4, Velocity: 38
Note OFF: Time 68760, Note Name: D4
Note ON: Time 68760, Note Name: C#4, Velocity: 33
Note OFF: Time 68880, Note Name: C#4
Note ON: Time 68880, Note Name: D4, Velocity: 39
Note OFF: Time 69000, Note Name: D4
Note ON: Time 69000, Note Name: D#4, Velocity: 41
Note OFF: Time 69120, Note Name: D#4
Note ON: Time 69120, Note Name: D4, Velocity: 25
Note ON: Time 69120, Note Name: E4, Velocity: 34
Note ON: Time 69120, Note Name: G#3, Velocity: 25
Note ON: Time 69120, Note Name: B3, Velocity: 25
Note OFF: Time 69840, Note Name: E4
Note ON: Time 69840, Note Name: F4, Velocity: 34
Note OFF: Time 70320, Note Name: F4
Note OFF: Time 70320, Note Name: B3
Note OFF: Time 70320, Note Name: G#3
Note OFF: Time 70320, Note Name: D4
Note ON: Time 70740, Note Name: C5, Velocity: 45
Note ON: Time 70740, Note Name: C4, Velocity: 38
Note OFF: Time 70800, Note Name: C4
Note OFF: Time 70800, Note Name: C5
Note ON: Time 70800, Note Name: B3, Velocity: 44
Note ON: Time 70800, Note Name: B4, Velocity: 52
Note OFF: Time 70920, Note Name: B4
Note OFF: Time 70920, Note Name: B3
Note ON: Time 70920, Note Name: A3, Velocity: 43
Note ON: Time 70920, Note Name: A4, Velocity: 51
Note OFF: Time 71040, Note Name: A4
Note OFF: Time 71040, Note Name: A3
Note ON: Time 71040, Note Name: B3, Velocity: 50
Note ON: Time 71040, Note Name: B4, Velocity: 59
Note OFF: Time 71160, Note Name: B4
Note OFF: Time 71160, Note Name: B3
Note ON: Time 71160, Note Name: C5, Velocity: 61
Note ON: Time 71160, Note Name: C4, Velocity: 51
Note OFF: Time 71280, Note Name: C4
Note OFF: Time 71280, Note Name: C5
Note ON: Time 71280, Note Name: C#5, Velocity: 70
Note ON: Time 71280, Note Name: C#4, Velocity: 59
Note OFF: Time 72000, Note Name: C#4
Note OFF: Time 72000, Note Name: C#5
Note ON: Time 72000, Note Name: D4, Velocity: 41
Note ON: Time 72000, Note Name: D5, Velocity: 49
Note OFF: Time 72180, Note Name: D5
Note OFF: Time 72180, Note Name: D4
Note ON: Time 72180, Note Name: D#5, Velocity: 52
Note OFF: Time 72240, Note Name: D#5
Note ON: Time 72240, Note Name: D5, Velocity: 57
Note OFF: Time 72360, Note Name: D5
Note ON: Time 72360, Note Name: C#5, Velocity: 52
Note OFF: Time 72480, Note Name: C#5
Note ON: Time 72480, Note Name: D5, Velocity: 52
Note OFF: Time 72600, Note Name: D5
Note ON: Time 72600, Note Name: D#5, Velocity: 52
Note OFF: Time 72720, Note Name: D#5
Note ON: Time 72720, Note Name: F5, Velocity: 58
Note OFF: Time 72840, Note Name: F5
Note ON: Time 72840, Note Name: G5, Velocity: 55
Note OFF: Time 72960, Note Name: G5
Note ON: Time 72960, Note Name: G#5, Velocity: 62
Note OFF: Time 73080, Note Name: G#5
Note ON: Time 73080, Note Name: G5, Velocity: 55
Note OFF: Time 73200, Note Name: G5
Note ON: Time 73200, Note Name: G#5, Velocity: 66
Note OFF: Time 73320, Note Name: G#5
Note ON: Time 73320, Note Name: F5, Velocity: 60
Note OFF: Time 73440, Note Name: F5
Note ON: Time 73440, Note Name: F5, Velocity: 70
Note OFF: Time 74160, Note Name: F5
Note ON: Time 74160, Note Name: G4, Velocity: 41
Note ON: Time 74160, Note Name: E5, Velocity: 49
Note OFF: Time 74340, Note Name: E5
Note OFF: Time 74340, Note Name: G4
Note ON: Time 74340, Note Name: G#4, Velocity: 48
Note OFF: Time 74400, Note Name: G#4
Note ON: Time 74400, Note Name: G4, Velocity: 52
Note OFF: Time 74520, Note Name: G4
Note ON: Time 74520, Note Name: F#4, Velocity: 48
Note OFF: Time 74640, Note Name: F#4
Note ON: Time 74640, Note Name: G4, Velocity: 48
Note OFF: Time 74760, Note Name: G4
Note ON: Time 74760, Note Name: A4, Velocity: 48
Note OFF: Time 74880, Note Name: A4
Note ON: Time 74880, Note Name: A#4, Velocity: 55
Note OFF: Time 75000, Note Name: A#4
Note ON: Time 75000, Note Name: C5, Velocity: 50
Note OFF: Time 75120, Note Name: C5
Note ON: Time 75120, Note Name: C#5, Velocity: 64
Note OFF: Time 75240, Note Name: C#5
Note ON: Time 75240, Note Name: C5, Velocity: 60
Note OFF: Time 75360, Note Name: C5
Note ON: Time 75360, Note Name: C#5, Velocity: 68
Note OFF: Time 75480, Note Name: C#5
Note ON: Time 75480, Note Name: A#4, Velocity: 64
Note OFF: Time 75600, Note Name: A#4
Note ON: Time 75600, Note Name: A#4, Velocity: 70
Note OFF: Time 76320, Note Name: A#4
Note ON: Time 76320, Note Name: C5, Velocity: 49
Note ON: Time 76320, Note Name: A4, Velocity: 41
Note OFF: Time 76500, Note Name: A4
Note OFF: Time 76500, Note Name: C5
Note ON: Time 76500, Note Name: C#5, Velocity: 48
Note OFF: Time 76560, Note Name: C#5
Note ON: Time 76560, Note Name: C5, Velocity: 52
Note OFF: Time 76680, Note Name: C5
Note ON: Time 76680, Note Name: B4, Velocity: 48
Note OFF: Time 76800, Note Name: B4
Note ON: Time 76800, Note Name: C5, Velocity: 48
Note OFF: Time 76920, Note Name: C5
Note ON: Time 76920, Note Name: D5, Velocity: 48
Note OFF: Time 77040, Note Name: D5
Note ON: Time 77040, Note Name: D#5, Velocity: 60
Note OFF: Time 77160, Note Name: D#5
Note ON: Time 77160, Note Name: F5, Velocity: 56
Note OFF: Time 77280, Note Name: F5
Note ON: Time 77280, Note Name: F#5, Velocity: 64
Note OFF: Time 77400, Note Name: F#5
Note ON: Time 77400, Note Name: F5, Velocity: 58
Note OFF: Time 77520, Note Name: F5
Note ON: Time 77520, Note Name: F#5, Velocity: 67
Note OFF: Time 77640, Note Name: F#5
Note ON: Time 77640, Note Name: D#5, Velocity: 64
Note OFF: Time 77760, Note Name: D#5
Note ON: Time 77760, Note Name: D#5, Velocity: 70
Note OFF: Time 78480, Note Name: D#5
Note ON: Time 78480, Note Name: F4, Velocity: 41
Note ON: Time 78480, Note Name: D5, Velocity: 49
Note OFF: Time 78660, Note Name: D5
Note OFF: Time 78660, Note Name: F4
Note ON: Time 78660, Note Name: F#4, Velocity: 48
Note OFF: Time 78720, Note Name: F#4
Note ON: Time 78720, Note Name: F4, Velocity: 52
Note OFF: Time 78840, Note Name: F4
Note ON: Time 78840, Note Name: E4, Velocity: 48
Note OFF: Time 78960, Note Name: E4
Note ON: Time 78960, Note Name: F4, Velocity: 48
Note OFF: Time 79080, Note Name: F4
Note ON: Time 79080, Note Name: G4, Velocity: 48
Note OFF: Time 79200, Note Name: G4
Note ON: Time 79200, Note Name: G#4, Velocity: 60
Note OFF: Time 79320, Note Name: G#4
Note ON: Time 79320, Note Name: A#4, Velocity: 54
Note OFF: Time 79440, Note Name: A#4
Note ON: Time 79440, Note Name: B4, Velocity: 64
Note OFF: Time 79560, Note Name: B4
Note ON: Time 79560, Note Name: A#4, Velocity: 56
Note OFF: Time 79680, Note Name: A#4
Note ON: Time 79680, Note Name: B4, Velocity: 67
Note OFF: Time 79800, Note Name: B4
Note ON: Time 79800, Note Name: G#4, Velocity: 59
Note OFF: Time 79920, Note Name: G#4
Note ON: Time 79920, Note Name: G#4, Velocity: 70
Note OFF: Time 80640, Note Name: G#4
Note ON: Time 80640, Note Name: G4, Velocity: 41
Note ON: Time 80640, Note Name: A#4, Velocity: 49
Note OFF: Time 80820, Note Name: A#4
Note ON: Time 80820, Note Name: B4, Velocity: 48
Note OFF: Time 80880, Note Name: B4
Note ON: Time 80880, Note Name: A#4, Velocity: 53
Note OFF: Time 81000, Note Name: A#4
Note ON: Time 81000, Note Name: A4, Velocity: 49
Note OFF: Time 81120, Note Name: A4
Note ON: Time 81120, Note Name: A#4, Velocity: 50
Note OFF: Time 81240, Note Name: A#4
Note ON: Time 81240, Note Name: B4, Velocity: 50
Note OFF: Time 81360, Note Name: B4
Note ON: Time 81360, Note Name: C#5, Velocity: 64
Note OFF: Time 81480, Note Name: C#5
Note ON: Time 81480, Note Name: D#5, Velocity: 60
Note OFF: Time 81590, Note Name: G4
Note OFF: Time 81600, Note Name: D#5
Note ON: Time 81600, Note Name: E5, Velocity: 70
Note ON: Time 81600, Note Name: G4, Velocity: 45
Note OFF: Time 81720, Note Name: E5
Note ON: Time 81720, Note Name: D#5, Velocity: 64
Note OFF: Time 81816, Note Name: G4
Note OFF: Time 81840, Note Name: D#5
Note ON: Time 81840, Note Name: G4, Velocity: 45
Note ON: Time 81840, Note Name: E5, Velocity: 75
Note OFF: Time 81960, Note Name: E5
Note ON: Time 81960, Note Name: C#5, Velocity: 69
Note OFF: Time 82080, Note Name: C#5
Note OFF: Time 82080, Note Name: G4
Note ON: Time 82080, Note Name: G#4, Velocity: 49
Note ON: Time 82080, Note Name: B4, Velocity: 49
Note OFF: Time 82200, Note Name: B4
Note ON: Time 82200, Note Name: C#5, Velocity: 46
Note OFF: Time 82320, Note Name: C#5
Note ON: Time 82320, Note Name: D#5, Velocity: 52
Note OFF: Time 82440, Note Name: D#5
Note ON: Time 82440, Note Name: C#5, Velocity: 45
Note OFF: Time 82560, Note Name: C#5
Note OFF: Time 82560, Note Name: G#4
Note ON: Time 82560, Note Name: D#5, Velocity: 51
Note OFF: Time 82680, Note Name: D#5
Note ON: Time 82680, Note Name: B4, Velocity: 48
Note OFF: Time 82800, Note Name: B4
Note ON: Time 82800, Note Name: A#4, Velocity: 49
Note OFF: Time 82920, Note Name: A#4
Note ON: Time 82920, Note Name: B4, Velocity: 44
Note OFF: Time 83040, Note Name: B4
Note ON: Time 83040, Note Name: C#5, Velocity: 52
Note OFF: Time 83160, Note Name: C#5
Note ON: Time 83160, Note Name: B4, Velocity: 46
Note OFF: Time 83280, Note Name: B4
Note ON: Time 83280, Note Name: C#5, Velocity: 49
Note OFF: Time 83400, Note Name: C#5
Note ON: Time 83400, Note Name: A#4, Velocity: 42
Note OFF: Time 83520, Note Name: A#4
Note ON: Time 83520, Note Name: G#4, Velocity: 49
Note OFF: Time 83640, Note Name: G#4
Note ON: Time 83640, Note Name: A#4, Velocity: 45
Note OFF: Time 83760, Note Name: A#4
Note ON: Time 83760, Note Name: B4, Velocity: 49
Note ON: Time 83760, Note Name: D#5, Velocity: 60
Note OFF: Time 83880, Note Name: B4
Note ON: Time 83880, Note Name: A#4, Velocity: 45
Note OFF: Time 83990, Note Name: D#5
Note OFF: Time 84000, Note Name: A#4
Note ON: Time 84000, Note Name: B4, Velocity: 49
Note ON: Time 84000, Note Name: D#5, Velocity: 60
Note OFF: Time 84120, Note Name: B4
Note ON: Time 84120, Note Name: G#4, Velocity: 45
Note OFF: Time 84240, Note Name: G#4
Note OFF: Time 84240, Note Name: D#5
Note ON: Time 84240, Note Name: E5, Velocity: 65
Note ON: Time 84240, Note Name: G4, Velocity: 44
Note OFF: Time 84360, Note Name: G4
Note ON: Time 84360, Note Name: G#4, Velocity: 41
Note OFF: Time 84480, Note Name: G#4
Note ON: Time 84480, Note Name: A#4, Velocity: 46
Note OFF: Time 84600, Note Name: A#4
Note ON: Time 84600, Note Name: G#4, Velocity: 40
Note OFF: Time 84720, Note Name: G#4
Note OFF: Time 84720, Note Name: E5
Note ON: Time 84720, Note Name: A#4, Velocity: 45
Note ON: Time 84720, Note Name: D#5, Velocity: 60
Note OFF: Time 84840, Note Name: A#4
Note ON: Time 84840, Note Name: G4, Velocity: 43
Note OFF: Time 84960, Note Name: G4
Note OFF: Time 84960, Note Name: D#5
Note ON: Time 84960, Note Name: G#4, Velocity: 44
Note OFF: Time 85080, Note Name: G#4
Note ON: Time 85080, Note Name: A#4, Velocity: 39
Note OFF: Time 85200, Note Name: A#4
Note ON: Time 85200, Note Name: B4, Velocity: 46
Note OFF: Time 85320, Note Name: B4
Note ON: Time 85320, Note Name: A#4, Velocity: 41
Note OFF: Time 85440, Note Name: A#4
Note ON: Time 85440, Note Name: B4, Velocity: 44
Note OFF: Time 85560, Note Name: B4
Note ON: Time 85560, Note Name: G#4, Velocity: 37
Note OFF: Time 85680, Note Name: G#4
Note ON: Time 85680, Note Name: F4, Velocity: 44
Note OFF: Time 85800, Note Name: F4
Note ON: Time 85800, Note Name: F#4, Velocity: 40
Note OFF: Time 85920, Note Name: F#4
Note ON: Time 85920, Note Name: D5, Velocity: 60
Note ON: Time 85920, Note Name: G#4, Velocity: 44
Note OFF: Time 86040, Note Name: G#4
Note ON: Time 86040, Note Name: F#4, Velocity: 40
Note OFF: Time 86150, Note Name: D5
Note OFF: Time 86160, Note Name: F#4
Note ON: Time 86160, Note Name: D5, Velocity: 60
Note ON: Time 86160, Note Name: G#4, Velocity: 44
Note OFF: Time 86280, Note Name: G#4
Note ON: Time 86280, Note Name: F4, Velocity: 40
Note OFF: Time 86400, Note Name: F4
Note OFF: Time 86400, Note Name: D5
Note ON: Time 86400, Note Name: D#5, Velocity: 65
Note ON: Time 86400, Note Name: D#4, Velocity: 44
Note OFF: Time 86520, Note Name: D#4
Note ON: Time 86520, Note Name: F4, Velocity: 41
Note OFF: Time 86640, Note Name: F4
Note ON: Time 86640, Note Name: F#4, Velocity: 46
Note OFF: Time 86760, Note Name: F#4
Note ON: Time 86760, Note Name: F4, Velocity: 40
Note OFF: Time 86880, Note Name: F4
Note OFF: Time 86880, Note Name: D#5
Note ON: Time 86880, Note Name: A#4, Velocity: 60
Note ON: Time 86880, Note Name: F#4, Velocity: 45
Note OFF: Time 87000, Note Name: F#4
Note ON: Time 87000, Note Name: D#4, Velocity: 43
Note OFF: Time 87120, Note Name: D#4
Note OFF: Time 87120, Note Name: A#4
Note ON: Time 87120, Note Name: D4, Velocity: 44
Note OFF: Time 87240, Note Name: D4
Note ON: Time 87240, Note Name: D#4, Velocity: 39
Note OFF: Time 87360, Note Name: D#4
Note ON: Time 87360, Note Name: F4, Velocity: 46
Note OFF: Time 87480, Note Name: F4
Note ON: Time 87480, Note Name: D#4, Velocity: 41
Note OFF: Time 87600, Note Name: D#4
Note ON: Time 87600, Note Name: F4, Velocity: 44
Note OFF: Time 87720, Note Name: F4
Note ON: Time 87720, Note Name: D4, Velocity: 37
Note OFF: Time 87840, Note Name: D4
Note ON: Time 87840, Note Name: D#4, Velocity: 44
Note OFF: Time 87960, Note Name: D#4
Note ON: Time 87960, Note Name: F4, Velocity: 40
Note OFF: Time 88080, Note Name: F4
Note ON: Time 88080, Note Name: F#4, Velocity: 44
Note ON: Time 88080, Note Name: A#4, Velocity: 60
Note OFF: Time 88200, Note Name: F#4
Note ON: Time 88200, Note Name: F4, Velocity: 40
Note OFF: Time 88310, Note Name: A#4
Note OFF: Time 88320, Note Name: F4
Note ON: Time 88320, Note Name: A#4, Velocity: 60
Note ON: Time 88320, Note Name: F#4, Velocity: 44
Note OFF: Time 88440, Note Name: F#4
Note ON: Time 88440, Note Name: D#4, Velocity: 40
Note OFF: Time 88560, Note Name: D#4
Note OFF: Time 88560, Note Name: A#4
Note ON: Time 88560, Note Name: B4, Velocity: 65
Note ON: Time 88560, Note Name: F4, Velocity: 44
Note OFF: Time 88680, Note Name: F4
Note ON: Time 88680, Note Name: F#4, Velocity: 41
Note OFF: Time 88800, Note Name: F#4
Note ON: Time 88800, Note Name: G#4, Velocity: 46
Note OFF: Time 88920, Note Name: G#4
Note ON: Time 88920, Note Name: F#4, Velocity: 40
Note OFF: Time 89040, Note Name: F#4
Note OFF: Time 89040, Note Name: B4
Note ON: Time 89040, Note Name: A#4, Velocity: 60
Note ON: Time 89040, Note Name: G#4, Velocity: 45
Note OFF: Time 89160, Note Name: G#4
Note ON: Time 89160, Note Name: F4, Velocity: 43
Note OFF: Time 89280, Note Name: F4
Note OFF: Time 89280, Note Name: A#4
Note ON: Time 89280, Note Name: F#4, Velocity: 44
Note OFF: Time 89400, Note Name: F#4
Note ON: Time 89400, Note Name: G#4, Velocity: 39
Note OFF: Time 89520, Note Name: G#4
Note ON: Time 89520, Note Name: A#4, Velocity: 46
Note OFF: Time 89640, Note Name: A#4
Note ON: Time 89640, Note Name: G#4, Velocity: 41
Note OFF: Time 89760, Note Name: G#4
Note ON: Time 89760, Note Name: A#4, Velocity: 44
Note OFF: Time 89880, Note Name: A#4
Note ON: Time 89880, Note Name: F#4, Velocity: 37
Note OFF: Time 90000, Note Name: F#4
Note ON: Time 90000, Note Name: D#4, Velocity: 44
Note OFF: Time 90120, Note Name: D#4
Note ON: Time 90120, Note Name: F4, Velocity: 40
Note OFF: Time 90240, Note Name: F4
Note ON: Time 90240, Note Name: F#4, Velocity: 44
Note ON: Time 90240, Note Name: A4, Velocity: 60
Note OFF: Time 90360, Note Name: F#4
Note ON: Time 90360, Note Name: F4, Velocity: 40
Note OFF: Time 90470, Note Name: A4
Note OFF: Time 90480, Note Name: F4
Note ON: Time 90480, Note Name: F#4, Velocity: 44
Note ON: Time 90480, Note Name: A4, Velocity: 60
Note OFF: Time 90600, Note Name: F#4
Note ON: Time 90600, Note Name: D#4, Velocity: 40
Note OFF: Time 90720, Note Name: D#4
Note OFF: Time 90720, Note Name: A4
Note ON: Time 90720, Note Name: A#4, Velocity: 65
Note ON: Time 90720, Note Name: D4, Velocity: 44
Note OFF: Time 90840, Note Name: D4
Note ON: Time 90840, Note Name: D#4, Velocity: 41
Note OFF: Time 90960, Note Name: D#4
Note ON: Time 90960, Note Name: F4, Velocity: 46
Note OFF: Time 91080, Note Name: F4
Note ON: Time 91080, Note Name: D#4, Velocity: 40
Note OFF: Time 91200, Note Name: D#4
Note ON: Time 91200, Note Name: D4, Velocity: 45
Note OFF: Time 91320, Note Name: D4
Note ON: Time 91320, Note Name: D#4, Velocity: 43
Note OFF: Time 91440, Note Name: D#4
Note ON: Time 91440, Note Name: F4, Velocity: 44
Note OFF: Time 91560, Note Name: F4
Note ON: Time 91560, Note Name: F#4, Velocity: 39
Note OFF: Time 91680, Note Name: F#4
Note ON: Time 91680, Note Name: G#4, Velocity: 46
Note OFF: Time 91800, Note Name: G#4
Note ON: Time 91800, Note Name: F#4, Velocity: 41
Note OFF: Time 91920, Note Name: F#4
Note ON: Time 91920, Note Name: F4, Velocity: 44
Note OFF: Time 92040, Note Name: F4
Note ON: Time 92040, Note Name: G#4, Velocity: 37
Note OFF: Time 92160, Note Name: G#4
Note ON: Time 92160, Note Name: F#4, Velocity: 44
Note OFF: Time 92280, Note Name: F#4
Note ON: Time 92280, Note Name: F4, Velocity: 40
Note OFF: Time 92400, Note Name: F4
Note OFF: Time 92400, Note Name: A#4
Note ON: Time 92400, Note Name: A4, Velocity: 60
Note ON: Time 92400, Note Name: D#4, Velocity: 44
Note OFF: Time 92520, Note Name: D#4
Note ON: Time 92520, Note Name: F4, Velocity: 40
Note OFF: Time 92630, Note Name: A4
Note OFF: Time 92640, Note Name: F4
Note ON: Time 92640, Note Name: A4, Velocity: 60
Note ON: Time 92640, Note Name: F#4, Velocity: 44
Note OFF: Time 92760, Note Name: F#4
Note ON: Time 92760, Note Name: D#4, Velocity: 40
Note OFF: Time 92880, Note Name: D#4
Note OFF: Time 92880, Note Name: A4
Note ON: Time 92880, Note Name: A#3, Velocity: 44
Note ON: Time 92880, Note Name: A#4, Velocity: 65
Note OFF: Time 93000, Note Name: A#3
Note ON: Time 93000, Note Name: C4, Velocity: 41
Note OFF: Time 93120, Note Name: C4
Note ON: Time 93120, Note Name: D4, Velocity: 46
Note OFF: Time 93240, Note Name: D4
Note ON: Time 93240, Note Name: C4, Velocity: 40
Note OFF: Time 93360, Note Name: C4
Note ON: Time 93360, Note Name: A#3, Velocity: 45
Note OFF: Time 93480, Note Name: A#3
Note ON: Time 93480, Note Name: C4, Velocity: 43
Note OFF: Time 93600, Note Name: C4
Note ON: Time 93600, Note Name: D4, Velocity: 44
Note OFF: Time 93720, Note Name: D4
Note ON: Time 93720, Note Name: D#4, Velocity: 39
Note OFF: Time 93840, Note Name: D#4
Note ON: Time 93840, Note Name: F4, Velocity: 46
Note OFF: Time 93960, Note Name: F4
Note ON: Time 93960, Note Name: D#4, Velocity: 41
Note OFF: Time 94080, Note Name: D#4
Note ON: Time 94080, Note Name: D4, Velocity: 44
Note OFF: Time 94200, Note Name: D4
Note ON: Time 94200, Note Name: F4, Velocity: 37
Note OFF: Time 94320, Note Name: F4
Note ON: Time 94320, Note Name: D#4, Velocity: 44
Note OFF: Time 94440, Note Name: D#4
Note ON: Time 94440, Note Name: D4, Velocity: 40
Note OFF: Time 94560, Note Name: D4
Note OFF: Time 94560, Note Name: A#4
Note ON: Time 94560, Note Name: A4, Velocity: 60
Note ON: Time 94560, Note Name: C4, Velocity: 44
Note OFF: Time 94680, Note Name: C4
Note ON: Time 94680, Note Name: D4, Velocity: 40
Note OFF: Time 94790, Note Name: A4
Note OFF: Time 94800, Note Name: D4
Note ON: Time 94800, Note Name: D#4, Velocity: 44
Note ON: Time 94800, Note Name: A4, Velocity: 60
Note OFF: Time 94920, Note Name: D#4
Note ON: Time 94920, Note Name: C4, Velocity: 40
Note OFF: Time 95040, Note Name: C4
Note OFF: Time 95040, Note Name: A4
Note ON: Time 95040, Note Name: A#3, Velocity: 44
Note OFF: Time 95160, Note Name: A#3
Note ON: Time 95160, Note Name: C4, Velocity: 37
Note OFF: Time 95280, Note Name: C4
Note ON: Time 95280, Note Name: D4, Velocity: 44
Note OFF: Time 95400, Note Name: D4
Note ON: Time 95400, Note Name: C#4, Velocity: 38
Note OFF: Time 95520, Note Name: C#4
Note ON: Time 95520, Note Name: D4, Velocity: 41
Note OFF: Time 95640, Note Name: D4
Note ON: Time 95640, Note Name: A#3, Velocity: 34
Note OFF: Time 95760, Note Name: A#3
Note ON: Time 95760, Note Name: D4, Velocity: 44
Note ON: Time 95880, Note Name: E4, Velocity: 39
Note OFF: Time 95892, Note Name: D4
Note ON: Time 96000, Note Name: F4, Velocity: 40
Note OFF: Time 96012, Note Name: E4
Note ON: Time 96120, Note Name: E4, Velocity: 33
Note OFF: Time 96132, Note Name: F4
Note ON: Time 96240, Note Name: F4, Velocity: 39
Note OFF: Time 96252, Note Name: E4
Note ON: Time 96360, Note Name: D4, Velocity: 34
Note OFF: Time 96372, Note Name: F4
Note ON: Time 96480, Note Name: F4, Velocity: 47
Note OFF: Time 96492, Note Name: D4
Note ON: Time 96600, Note Name: G4, Velocity: 43
Note OFF: Time 96612, Note Name: F4
Note ON: Time 96720, Note Name: G#4, Velocity: 50
Note OFF: Time 96732, Note Name: G4
Note ON: Time 96840, Note Name: G4, Velocity: 42
Note OFF: Time 96852, Note Name: G#4
Note ON: Time 96960, Note Name: G#4, Velocity: 53
Note OFF: Time 96972, Note Name: G4
Note ON: Time 97080, Note Name: F4, Velocity: 37
Note OFF: Time 97092, Note Name: G#4
Note ON: Time 97200, Note Name: G#4, Velocity: 41
Note OFF: Time 97212, Note Name: F4
Note ON: Time 97320, Note Name: B4, Velocity: 36
Note OFF: Time 97332, Note Name: G#4
Note ON: Time 97440, Note Name: C5, Velocity: 41
Note OFF: Time 97452, Note Name: B4
Note ON: Time 97560, Note Name: B4, Velocity: 37
Note OFF: Time 97572, Note Name: C5
Note ON: Time 97680, Note Name: D5, Velocity: 41
Note OFF: Time 97692, Note Name: B4
Note ON: Time 97800, Note Name: C5, Velocity: 36
Note OFF: Time 97812, Note Name: D5
Note ON: Time 97920, Note Name: A#4, Velocity: 41
Note OFF: Time 97932, Note Name: C5
Note ON: Time 98040, Note Name: G#4, Velocity: 36
Note OFF: Time 98052, Note Name: A#4
Note ON: Time 98160, Note Name: G4, Velocity: 41
Note OFF: Time 98172, Note Name: G#4
Note ON: Time 98280, Note Name: F4, Velocity: 35
Note OFF: Time 98292, Note Name: G4
Note ON: Time 98400, Note Name: E4, Velocity: 35
Note OFF: Time 98412, Note Name: F4
Note ON: Time 98520, Note Name: F4, Velocity: 29
Note OFF: Time 98532, Note Name: E4
Note ON: Time 98640, Note Name: G4, Velocity: 41
Note OFF: Time 98652, Note Name: F4
Note ON: Time 98760, Note Name: F4, Velocity: 36
Note OFF: Time 98772, Note Name: G4
Note ON: Time 98880, Note Name: G#4, Velocity: 41
Note OFF: Time 98892, Note Name: F4
Note ON: Time 99000, Note Name: F4, Velocity: 32
Note OFF: Time 99012, Note Name: G#4
Note ON: Time 99120, Note Name: C4, Velocity: 38
Note OFF: Time 99132, Note Name: F4
Note ON: Time 99240, Note Name: D4, Velocity: 32
Note OFF: Time 99252, Note Name: C4
Note OFF: Time 99360, Note Name: D4
Note ON: Time 99360, Note Name: D#4, Velocity: 38
Note OFF: Time 99840, Note Name: D#4
Note ON: Time 100800, Note Name: G4, Velocity: 38
Note OFF: Time 100980, Note Name: G4
Note ON: Time 100980, Note Name: G#4, Velocity: 36
Note OFF: Time 101040, Note Name: G#4
Note ON: Time 101040, Note Name: G4, Velocity: 39
Note OFF: Time 101160, Note Name: G4
Note ON: Time 101160, Note Name: F4, Velocity: 36
Note OFF: Time 101280, Note Name: F4
Note ON: Time 101280, Note Name: G4, Velocity: 40
Note OFF: Time 101400, Note Name: G4
Note ON: Time 101400, Note Name: G#4, Velocity: 36
Note OFF: Time 101520, Note Name: G#4
Note ON: Time 101520, Note Name: A4, Velocity: 44
Note OFF: Time 102240, Note Name: A4
Note ON: Time 102240, Note Name: A#4, Velocity: 51
Note OFF: Time 103140, Note Name: A#4
Note ON: Time 103140, Note Name: C5, Velocity: 39
Note OFF: Time 103200, Note Name: C5
Note ON: Time 103200, Note Name: A#4, Velocity: 49
Note OFF: Time 103320, Note Name: A#4
Note ON: Time 103320, Note Name: A4, Velocity: 42
Note OFF: Time 103440, Note Name: A4
Note ON: Time 103440, Note Name: A#4, Velocity: 51
Note OFF: Time 103560, Note Name: A#4
Note ON: Time 103560, Note Name: B4, Velocity: 46
Note OFF: Time 103680, Note Name: B4
Note ON: Time 103680, Note Name: B4, Velocity: 50
Note ON: Time 104040, Note Name: C5, Velocity: 39
Note OFF: Time 104070, Note Name: C5
Note ON: Time 104070, Note Name: B4, Velocity: 33
Note OFF: Time 104100, Note Name: B4
Note OFF: Time 104100, Note Name: B4
Note ON: Time 104100, Note Name: A4, Velocity: 41
Note OFF: Time 104130, Note Name: A4
Note ON: Time 104130, Note Name: B4, Velocity: 37
Note OFF: Time 104160, Note Name: B4
Note ON: Time 104160, Note Name: D5, Velocity: 53
Note OFF: Time 104340, Note Name: D5
Note ON: Time 104340, Note Name: C5, Velocity: 44
Note OFF: Time 104400, Note Name: C5
Note ON: Time 104400, Note Name: F4, Velocity: 55
Note OFF: Time 105300, Note Name: F4
Note ON: Time 105300, Note Name: G4, Velocity: 39
Note OFF: Time 105360, Note Name: G4
Note ON: Time 105360, Note Name: F4, Velocity: 46
Note OFF: Time 105480, Note Name: F4
Note ON: Time 105480, Note Name: E4, Velocity: 42
Note OFF: Time 105600, Note Name: E4
Note ON: Time 105600, Note Name: F4, Velocity: 49
Note OFF: Time 105720, Note Name: F4
Note ON: Time 105720, Note Name: G4, Velocity: 46
Note OFF: Time 105840, Note Name: G4
Note ON: Time 105840, Note Name: G#4, Velocity: 55
Note OFF: Time 106620, Note Name: G#4
Note ON: Time 106620, Note Name: G4, Velocity: 47
Note OFF: Time 106680, Note Name: G4
Note ON: Time 106680, Note Name: F4, Velocity: 48
Note OFF: Time 106740, Note Name: F4
Note ON: Time 106740, Note Name: E4, Velocity: 48
Note OFF: Time 106800, Note Name: E4
Note ON: Time 106800, Note Name: F4, Velocity: 49
Note OFF: Time 106860, Note Name: F4
Note ON: Time 106860, Note Name: G4, Velocity: 50
Note OFF: Time 106920, Note Name: G4
Note ON: Time 106920, Note Name: G#4, Velocity: 50
Note OFF: Time 106980, Note Name: G#4
Note ON: Time 106980, Note Name: A#4, Velocity: 51
Note OFF: Time 107040, Note Name: A#4
Note ON: Time 107040, Note Name: C5, Velocity: 52
Note OFF: Time 107100, Note Name: C5
Note ON: Time 107100, Note Name: D5, Velocity: 51
Note OFF: Time 107160, Note Name: D5
Note ON: Time 107160, Note Name: D#5, Velocity: 53
Note OFF: Time 107220, Note Name: D#5
Note ON: Time 107220, Note Name: E5, Velocity: 54
Note OFF: Time 107280, Note Name: E5
Note ON: Time 107280, Note Name: F5, Velocity: 56
Note OFF: Time 107340, Note Name: F5
Note ON: Time 107340, Note Name: G5, Velocity: 57
Note OFF: Time 107400, Note Name: G5
Note ON: Time 107400, Note Name: G#5, Velocity: 59
Note OFF: Time 107460, Note Name: G#5
Note ON: Time 107460, Note Name: A#5, Velocity: 60
Note OFF: Time 107520, Note Name: A#5
Note ON: Time 107520, Note Name: C6, Velocity: 63
Note OFF: Time 107580, Note Name: C6
Note ON: Time 107580, Note Name: B5, Velocity: 59
Note OFF: Time 107640, Note Name: B5
Note ON: Time 107640, Note Name: D6, Velocity: 63
Note OFF: Time 107700, Note Name: D6
Note ON: Time 107700, Note Name: C6, Velocity: 61
Note OFF: Time 107760, Note Name: C6
Note ON: Time 107760, Note Name: A#5, Velocity: 60
Note OFF: Time 107820, Note Name: A#5
Note ON: Time 107820, Note Name: G#5, Velocity: 58
Note OFF: Time 107880, Note Name: G#5
Note ON: Time 107880, Note Name: G5, Velocity: 56
Note OFF: Time 107940, Note Name: G5
Note ON: Time 107940, Note Name: F5, Velocity: 53
Note OFF: Time 108000, Note Name: F5
Note ON: Time 108000, Note Name: F#5, Velocity: 58
Note OFF: Time 108720, Note Name: F#5
Note ON: Time 108720, Note Name: G5, Velocity: 55
Note OFF: Time 109560, Note Name: G5
Note ON: Time 109560, Note Name: D#4, Velocity: 55
Note OFF: Time 109680, Note Name: D#4
Note ON: Time 109680, Note Name: G4, Velocity: 59
Note OFF: Time 109800, Note Name: G4
Note ON: Time 109800, Note Name: A#4, Velocity: 62
Note OFF: Time 109920, Note Name: A#4
Note ON: Time 109920, Note Name: D#5, Velocity: 66
Note OFF: Time 110040, Note Name: D#5
Note ON: Time 110040, Note Name: G5, Velocity: 69
Note OFF: Time 110160, Note Name: G5
Note ON: Time 110160, Note Name: A#5, Velocity: 72
Note OFF: Time 111000, Note Name: A#5
Note ON: Time 111000, Note Name: F#5, Velocity: 55
Note OFF: Time 111120, Note Name: F#5
Note ON: Time 111120, Note Name: G5, Velocity: 62
Note OFF: Time 111240, Note Name: G5
Note ON: Time 111240, Note Name: D5, Velocity: 57
Note OFF: Time 111360, Note Name: D5
Note ON: Time 111360, Note Name: D#5, Velocity: 64
Note OFF: Time 111480, Note Name: D#5
Note ON: Time 111480, Note Name: A4, Velocity: 57
Note OFF: Time 111600, Note Name: A4
Note ON: Time 111600, Note Name: A#4, Velocity: 66
Note OFF: Time 111720, Note Name: A#4
Note ON: Time 111720, Note Name: F#4, Velocity: 57
Note OFF: Time 111840, Note Name: F#4
Note ON: Time 111840, Note Name: G4, Velocity: 68
Note OFF: Time 111960, Note Name: G4
Note ON: Time 111960, Note Name: D4, Velocity: 59
Note OFF: Time 112080, Note Name: D4
Note ON: Time 112080, Note Name: D#4, Velocity: 69
Note OFF: Time 112200, Note Name: D#4
Note ON: Time 112200, Note Name: G4, Velocity: 57
Note OFF: Time 112320, Note Name: G4
Note ON: Time 112320, Note Name: G4, Velocity: 69
Note OFF: Time 112560, Note Name: G4
Note ON: Time 112560, Note Name: C4, Velocity: 63
Note OFF: Time 113280, Note Name: C4
Note ON: Time 113280, Note Name: C5, Velocity: 69
Note OFF: Time 114000, Note Name: C5
Note ON: Time 114000, Note Name: C6, Velocity: 69
Note OFF: Time 114060, Note Name: C6
Note ON: Time 114060, Note Name: B5, Velocity: 62
Note OFF: Time 114120, Note Name: B5
Note ON: Time 114120, Note Name: D6, Velocity: 69
Note OFF: Time 114180, Note Name: D6
Note ON: Time 114180, Note Name: C6, Velocity: 68
Note OFF: Time 114240, Note Name: C6
Note ON: Time 114240, Note Name: A#5, Velocity: 67
Note OFF: Time 114300, Note Name: A#5
Note ON: Time 114300, Note Name: G#5, Velocity: 65
Note OFF: Time 114360, Note Name: G#5
Note ON: Time 114360, Note Name: G5, Velocity: 64
Note OFF: Time 114420, Note Name: G5
Note ON: Time 114420, Note Name: F5, Velocity: 62
Note OFF: Time 114470, Note Name: F5
Note ON: Time 114480, Note Name: F5, Velocity: 67
Note OFF: Time 114720, Note Name: F5
Note ON: Time 114720, Note Name: D#5, Velocity: 60
Note OFF: Time 115440, Note Name: D#5
Note ON: Time 115440, Note Name: D#5, Velocity: 56
Note OFF: Time 115680, Note Name: D#5
Note ON: Time 115680, Note Name: D#5, Velocity: 54
Note OFF: Time 115920, Note Name: D#5
Note ON: Time 115920, Note Name: D#5, Velocity: 53
Note OFF: Time 115950, Note Name: D#5
Note ON: Time 115950, Note Name: F5, Velocity: 43
Note OFF: Time 115980, Note Name: F5
Note ON: Time 115980, Note Name: D#5, Velocity: 54
Note OFF: Time 116010, Note Name: D#5
Note ON: Time 116010, Note Name: F5, Velocity: 46
Note OFF: Time 116040, Note Name: F5
Note ON: Time 116040, Note Name: D#5, Velocity: 52
Note OFF: Time 116070, Note Name: D#5
Note ON: Time 116070, Note Name: F5, Velocity: 44
Note OFF: Time 116100, Note Name: F5
Note ON: Time 116100, Note Name: D#5, Velocity: 51
Note OFF: Time 116120, Note Name: D#5
Note ON: Time 116120, Note Name: D5, Velocity: 43
Note OFF: Time 116140, Note Name: D5
Note ON: Time 116140, Note Name: D#5, Velocity: 43
Note OFF: Time 116160, Note Name: D#5
Note ON: Time 116160, Note Name: F5, Velocity: 54
Note OFF: Time 116400, Note Name: F5
Note ON: Time 116400, Note Name: D5, Velocity: 47
Note OFF: Time 116640, Note Name: D5
Note ON: Time 116640, Note Name: D#5, Velocity: 47
Note OFF: Time 116880, Note Name: D#5
Note ON: Time 116880, Note Name: A#4, Velocity: 43
Note OFF: Time 117096, Note Name: A#4
Note ON: Time 117120, Note Name: A#4, Velocity: 43
Note OFF: Time 117336, Note Name: A#4
Note ON: Time 117360, Note Name: A#4, Velocity: 49
Note OFF: Time 117600, Note Name: A#4
Note ON: Time 117600, Note Name: C5, Velocity: 41
Note OFF: Time 117840, Note Name: C5
Note ON: Time 117840, Note Name: G#4, Velocity: 32
Note OFF: Time 118080, Note Name: G#4
Note ON: Time 118080, Note Name: G4, Velocity: 43
Note ON: Time 118080, Note Name: D#4, Velocity: 36
Note OFF: Time 118320, Note Name: G4
Note ON: Time 118320, Note Name: G#4, Velocity: 37
Note OFF: Time 118560, Note Name: G#4
Note OFF: Time 118560, Note Name: D#4
Note ON: Time 118560, Note Name: F4, Velocity: 32
Note ON: Time 118560, Note Name: D4, Velocity: 27
Note OFF: Time 118800, Note Name: D4
Note OFF: Time 118800, Note Name: F4
Note ON: Time 118800, Note Name: D#4, Velocity: 47
Note OFF: Time 119040, Note Name: D#4
Note ON: Time 119040, Note Name: A#3, Velocity: 38
Note OFF: Time 119256, Note Name: A#3
Note ON: Time 119280, Note Name: A#3, Velocity: 38
Note OFF: Time 119496, Note Name: A#3
Note ON: Time 119520, Note Name: A#3, Velocity: 34
Note OFF: Time 119550, Note Name: A#3
Note ON: Time 119550, Note Name: C4, Velocity: 27
Note OFF: Time 119580, Note Name: C4
Note ON: Time 119580, Note Name: A#3, Velocity: 34
Note OFF: Time 119610, Note Name: A#3
Note ON: Time 119610, Note Name: C4, Velocity: 29
Note OFF: Time 119640, Note Name: C4
Note ON: Time 119640, Note Name: A#3, Velocity: 33
Note OFF: Time 119670, Note Name: A#3
Note ON: Time 119670, Note Name: C4, Velocity: 27
Note OFF: Time 119700, Note Name: C4
Note ON: Time 119700, Note Name: A#3, Velocity: 32
Note OFF: Time 119720, Note Name: A#3
Note ON: Time 119720, Note Name: A3, Velocity: 27
Note OFF: Time 119740, Note Name: A3
Note ON: Time 119740, Note Name: A#3, Velocity: 27
Note OFF: Time 119760, Note Name: A#3
Note ON: Time 119760, Note Name: C4, Velocity: 34
Note OFF: Time 120000, Note Name: C4
Note ON: Time 120000, Note Name: G#3, Velocity: 28
Note OFF: Time 120240, Note Name: G#3
Note ON: Time 120240, Note Name: D#3, Velocity: 28
Note ON: Time 120240, Note Name: G3, Velocity: 34
Note OFF: Time 120270, Note Name: G3
Note ON: Time 120270, Note Name: G#3, Velocity: 27
Note OFF: Time 120300, Note Name: G#3
Note ON: Time 120300, Note Name: G3, Velocity: 34
Note OFF: Time 120330, Note Name: G3
Note ON: Time 120330, Note Name: G#3, Velocity: 29
Note OFF: Time 120360, Note Name: G#3
Note ON: Time 120360, Note Name: G3, Velocity: 33
Note OFF: Time 120390, Note Name: G3
Note ON: Time 120390, Note Name: G#3, Velocity: 27
Note OFF: Time 120420, Note Name: G#3
Note ON: Time 120420, Note Name: G3, Velocity: 32
Note OFF: Time 120440, Note Name: G3
Note ON: Time 120440, Note Name: F3, Velocity: 27
Note OFF: Time 120460, Note Name: F3
Note ON: Time 120460, Note Name: G3, Velocity: 27
Note OFF: Time 120480, Note Name: G3
Note ON: Time 120480, Note Name: G#3, Velocity: 34
Note ON: Time 120715, Note Name: F3, Velocity: 28
Note OFF: Time 120720, Note Name: G#3
Note OFF: Time 120720, Note Name: D#3
Note OFF: Time 120955, Note Name: F3
Note ON: Time 120960, Note Name: D#3, Velocity: 30
Note OFF: Time 121200, Note Name: D#3
Note ON: Time 121200, Note Name: G3, Velocity: 28
Note OFF: Time 121440, Note Name: G3
Note ON: Time 121440, Note Name: A#3, Velocity: 29
Note OFF: Time 121680, Note Name: A#3
Note ON: Time 121680, Note Name: G3, Velocity: 34
Note OFF: Time 121920, Note Name: G3
Note ON: Time 121920, Note Name: A#3, Velocity: 31
Note OFF: Time 122160, Note Name: A#3
Note ON: Time 122160, Note Name: D#4, Velocity: 31
Note OFF: Time 122400, Note Name: D#4
Note ON: Time 122400, Note Name: A#3, Velocity: 32
Note OFF: Time 122640, Note Name: A#3
Note ON: Time 122640, Note Name: D#4, Velocity: 37
Note OFF: Time 122880, Note Name: D#4
Note ON: Time 122880, Note Name: G4, Velocity: 42
Note OFF: Time 123110, Note Name: G4
Note ON: Time 123120, Note Name: G4, Velocity: 45
Note ON: Time 123120, Note Name: A#3, Velocity: 38
Note ON: Time 123120, Note Name: D#4, Velocity: 38
Note ON: Time 123120, Note Name: G3, Velocity: 38
Note OFF: Time 124070, Note Name: G3
Note OFF: Time 124070, Note Name: G4
Note OFF: Time 124070, Note Name: A#3
Note OFF: Time 124070, Note Name: D#4
Note ON: Time 124080, Note Name: G4, Velocity: 43
Note ON: Time 124080, Note Name: D#4, Velocity: 36
Note ON: Time 124080, Note Name: A#3, Velocity: 36
Note OFF: Time 124310, Note Name: A#3
Note OFF: Time 124310, Note Name: D#4
Note OFF: Time 124310, Note Name: G4
Note ON: Time 124320, Note Name: D#4, Velocity: 35
Note ON: Time 124320, Note Name: G4, Velocity: 42
Note OFF: Time 124550, Note Name: G4
Note OFF: Time 124550, Note Name: D#4
Note ON: Time 124560, Note Name: D#4, Velocity: 23
Note ON: Time 124560, Note Name: G4, Velocity: 34
Note OFF: Time 124590, Note Name: G4
Note ON: Time 124590, Note Name: G#4, Velocity: 27
Note OFF: Time 124620, Note Name: G#4
Note ON: Time 124620, Note Name: G4, Velocity: 34
Note OFF: Time 124650, Note Name: G4
Note ON: Time 124650, Note Name: G#4, Velocity: 29
Note OFF: Time 124680, Note Name: G#4
Note ON: Time 124680, Note Name: G4, Velocity: 33
Note OFF: Time 124710, Note Name: G4
Note ON: Time 124710, Note Name: G#4, Velocity: 27
Note OFF: Time 124740, Note Name: G#4
Note ON: Time 124740, Note Name: G4, Velocity: 32
Note OFF: Time 124760, Note Name: G4
Note ON: Time 124760, Note Name: F4, Velocity: 27
Note OFF: Time 124780, Note Name: F4
Note ON: Time 124780, Note Name: G4, Velocity: 27
Note OFF: Time 124800, Note Name: G4
Note ON: Time 124800, Note Name: F4, Velocity: 38
Note ON: Time 124800, Note Name: G#4, Velocity: 45
Note OFF: Time 125040, Note Name: G#4
Note OFF: Time 125040, Note Name: F4
Note OFF: Time 125040, Note Name: D#4
Note ON: Time 125040, Note Name: D4, Velocity: 32
Note ON: Time 125040, Note Name: F4, Velocity: 38
Note ON: Time 125040, Note Name: A#3, Velocity: 32
Note OFF: Time 125270, Note Name: A#3
Note OFF: Time 125270, Note Name: F4
Note OFF: Time 125270, Note Name: D4
Note ON: Time 125280, Note Name: D4, Velocity: 28
Note ON: Time 125280, Note Name: F4, Velocity: 34
Note ON: Time 125280, Note Name: A#3, Velocity: 28
Note OFF: Time 126000, Note Name: F4
Note OFF: Time 126000, Note Name: D4
Note ON: Time 126000, Note Name: D#4, Velocity: 32
Note OFF: Time 126240, Note Name: D#4
Note OFF: Time 126240, Note Name: A#3
Note ON: Time 126720, Note Name: A#3, Velocity: 43
Note ON: Time 126720, Note Name: F#3, Velocity: 36
Note OFF: Time 126960, Note Name: F#3
Note OFF: Time 126960, Note Name: A#3
Note ON: Time 126960, Note Name: A#3, Velocity: 40
Note ON: Time 126960, Note Name: D#4, Velocity: 48
Note OFF: Time 127200, Note Name: D#4
Note OFF: Time 127200, Note Name: A#3
Note ON: Time 127200, Note Name: F#4, Velocity: 54
Note ON: Time 127200, Note Name: D#4, Velocity: 45
Note OFF: Time 127430, Note Name: F#4
Note OFF: Time 127440, Note Name: D#4
Note ON: Time 127440, Note Name: F#4, Velocity: 51
Note ON: Time 127440, Note Name: A#4, Velocity: 60
Note ON: Time 128400, Note Name: D#5, Velocity: 70
Note OFF: Time 128619, Note Name: D#5
Note ON: Time 128640, Note Name: D#5, Velocity: 64
Note OFF: Time 128859, Note Name: D#5
Note ON: Time 128880, Note Name: D#5, Velocity: 67
Note OFF: Time 129108, Note Name: D#5
Note OFF: Time 129120, Note Name: A#4
Note OFF: Time 129120, Note Name: F#4
Note ON: Time 129120, Note Name: G#4, Velocity: 44
Note ON: Time 129120, Note Name: D#5, Velocity: 57
Note OFF: Time 129348, Note Name: D#5
Note OFF: Time 129360, Note Name: G#4
Note ON: Time 129360, Note Name: A#4, Velocity: 50
Note ON: Time 129360, Note Name: F#4, Velocity: 50
Note ON: Time 129360, Note Name: D#5, Velocity: 64
Note OFF: Time 129588, Note Name: D#5
Note OFF: Time 129590, Note Name: F#4
Note OFF: Time 129590, Note Name: A#4
Note ON: Time 129600, Note Name: D#5, Velocity: 68
Note ON: Time 129600, Note Name: B4, Velocity: 45
Note ON: Time 129600, Note Name: F4, Velocity: 45
Note OFF: Time 130080, Note Name: D#5
Note ON: Time 130080, Note Name: C#5, Velocity: 38
Note OFF: Time 130320, Note Name: C#5
Note OFF: Time 130320, Note Name: F4
Note OFF: Time 130320, Note Name: B4
Note ON: Time 130560, Note Name: G#4, Velocity: 34
Note ON: Time 130560, Note Name: D#5, Velocity: 40
Note ON: Time 130560, Note Name: B4, Velocity: 34
Note OFF: Time 130800, Note Name: D#5
Note ON: Time 130800, Note Name: C#5, Velocity: 29
Note OFF: Time 131040, Note Name: C#5
Note OFF: Time 131040, Note Name: B4
Note OFF: Time 131040, Note Name: G#4
Note ON: Time 131280, Note Name: D#5, Velocity: 40
Note ON: Time 131280, Note Name: F#4, Velocity: 34
Note ON: Time 131280, Note Name: A#4, Velocity: 34
Note OFF: Time 131520, Note Name: D#5
Note ON: Time 131520, Note Name: C#5, Velocity: 27
Note OFF: Time 131760, Note Name: C#5
Note OFF: Time 131760, Note Name: A#4
Note OFF: Time 131760, Note Name: F#4
Note ON: Time 132000, Note Name: C#5, Velocity: 40
Note ON: Time 132000, Note Name: G#4, Velocity: 34
Note ON: Time 132000, Note Name: D#4, Velocity: 34
Note OFF: Time 132240, Note Name: C#5
Note ON: Time 132240, Note Name: B4, Velocity: 27
Note OFF: Time 132480, Note Name: B4
Note OFF: Time 132480, Note Name: D#4
Note OFF: Time 132480, Note Name: G#4
Note ON: Time 132720, Note Name: C#4, Velocity: 34
Note ON: Time 132720, Note Name: B4, Velocity: 40
Note ON: Time 132720, Note Name: F#4, Velocity: 34
Note OFF: Time 132960, Note Name: B4
Note ON: Time 132960, Note Name: A#4, Velocity: 27
Note OFF: Time 133200, Note Name: A#4
Note OFF: Time 133200, Note Name: F#4
Note OFF: Time 133200, Note Name: C#4
Note ON: Time 133440, Note Name: A#4, Velocity: 40
Note ON: Time 133440, Note Name: F4, Velocity: 34
Note ON: Time 133440, Note Name: B3, Velocity: 34
Note OFF: Time 133680, Note Name: A#4
Note ON: Time 133680, Note Name: G#4, Velocity: 27
Note OFF: Time 133910, Note Name: F4
Note OFF: Time 133920, Note Name: G#4
Note OFF: Time 133920, Note Name: B3
Note ON: Time 133920, Note Name: G#4, Velocity: 45
Note ON: Time 133920, Note Name: B3, Velocity: 68
Note ON: Time 133920, Note Name: F4, Velocity: 45
Note OFF: Time 134400, Note Name: B3
Note ON: Time 134400, Note Name: A#3, Velocity: 38
Note OFF: Time 134640, Note Name: A#3
Note OFF: Time 134640, Note Name: F4
Note OFF: Time 134640, Note Name: G#4
Note ON: Time 134880, Note Name: G#4, Velocity: 34
Note ON: Time 134880, Note Name: B3, Velocity: 40
Note ON: Time 134880, Note Name: F4, Velocity: 34
Note OFF: Time 135120, Note Name: B3
Note ON: Time 135120, Note Name: A#3, Velocity: 29
Note OFF: Time 135360, Note Name: A#3
Note OFF: Time 135360, Note Name: F4
Note OFF: Time 135360, Note Name: G#4
Note ON: Time 135600, Note Name: F#4, Velocity: 34
Note ON: Time 135600, Note Name: B3, Velocity: 40
Note ON: Time 135600, Note Name: D#4, Velocity: 34
Note OFF: Time 135840, Note Name: B3
Note ON: Time 135840, Note Name: A#3, Velocity: 27
Note OFF: Time 136080, Note Name: A#3
Note OFF: Time 136080, Note Name: D#4
Note OFF: Time 136080, Note Name: F#4
Note ON: Time 136320, Note Name: F#4, Velocity: 40
Note ON: Time 136320, Note Name: G#3, Velocity: 34
Note ON: Time 136320, Note Name: B3, Velocity: 34
Note OFF: Time 136560, Note Name: F#4
Note ON: Time 136560, Note Name: E4, Velocity: 27
Note OFF: Time 136800, Note Name: E4
Note OFF: Time 136800, Note Name: B3
Note OFF: Time 136800, Note Name: G#3
Note ON: Time 137040, Note Name: F#3, Velocity: 34
Note ON: Time 137040, Note Name: E4, Velocity: 40
Note ON: Time 137040, Note Name: C4, Velocity: 34
Note OFF: Time 137280, Note Name: E4
Note ON: Time 137280, Note Name: D#4, Velocity: 27
Note OFF: Time 137520, Note Name: D#4
Note OFF: Time 137520, Note Name: C4
Note OFF: Time 137520, Note Name: F#3
Note ON: Time 137760, Note Name: F3, Velocity: 34
Note ON: Time 137760, Note Name: D#4, Velocity: 40
Note ON: Time 137760, Note Name: G#3, Velocity: 34
Note OFF: Time 138000, Note Name: D#4
Note ON: Time 138000, Note Name: D4, Velocity: 27
Note OFF: Time 138240, Note Name: D4
Note OFF: Time 138240, Note Name: G#3
Note OFF: Time 138240, Note Name: F3
Note ON: Time 138240, Note Name: D#4, Velocity: 34
Note ON: Time 138240, Note Name: G3, Velocity: 34
Note OFF: Time 138720, Note Name: G3
Note OFF: Time 138720, Note Name: D#4
Note ON: Time 139680, Note Name: G5, Velocity: 57
Note OFF: Time 140160, Note Name: G5
Note ON: Time 140160, Note Name: F5, Velocity: 48
Note OFF: Time 140280, Note Name: F5
Note ON: Time 140280, Note Name: D#5, Velocity: 47
Note OFF: Time 140400, Note Name: D#5
Note ON: Time 140400, Note Name: F4, Velocity: 30
Note ON: Time 140400, Note Name: D#5, Velocity: 54
Note ON: Time 140400, Note Name: G#4, Velocity: 35
Note OFF: Time 140640, Note Name: D#5
Note ON: Time 140640, Note Name: D5, Velocity: 47
Note OFF: Time 140870, Note Name: G#4
Note OFF: Time 140880, Note Name: D5
Note OFF: Time 140880, Note Name: F4
Note ON: Time 140880, Note Name: C5, Velocity: 51
Note ON: Time 140880, Note Name: G#4, Velocity: 37
Note ON: Time 140880, Note Name: D#4, Velocity: 43
Note OFF: Time 141000, Note Name: D#4
Note OFF: Time 141000, Note Name: C5
Note ON: Time 141000, Note Name: A#4, Velocity: 43
Note ON: Time 141000, Note Name: D4, Velocity: 36
Note OFF: Time 141110, Note Name: D4
Note OFF: Time 141110, Note Name: A#4
Note OFF: Time 141110, Note Name: G#4
Note ON: Time 141120, Note Name: G#4, Velocity: 35
Note ON: Time 141120, Note Name: A#4, Velocity: 50
Note ON: Time 141120, Note Name: D4, Velocity: 48
Note OFF: Time 141600, Note Name: D4
Note ON: Time 141600, Note Name: C4, Velocity: 45
Note OFF: Time 141720, Note Name: C4
Note ON: Time 141720, Note Name: A#3, Velocity: 38
Note OFF: Time 141830, Note Name: A#3
Note ON: Time 141840, Note Name: A#3, Velocity: 51
Note OFF: Time 142080, Note Name: A#4
Note ON: Time 142080, Note Name: C5, Velocity: 44
Note OFF: Time 142200, Note Name: A#3
Note ON: Time 142200, Note Name: G#3, Velocity: 38
Note OFF: Time 142320, Note Name: G#3
Note OFF: Time 142320, Note Name: C5
Note ON: Time 142320, Note Name: G3, Velocity: 38
Note ON: Time 142320, Note Name: D5, Velocity: 46
Note OFF: Time 142440, Note Name: G3
Note ON: Time 142440, Note Name: G#3, Velocity: 38
Note OFF: Time 142560, Note Name: G#3
Note OFF: Time 142560, Note Name: D5
Note OFF: Time 142560, Note Name: G#4
Note ON: Time 142560, Note Name: G3, Velocity: 51
Note ON: Time 142560, Note Name: D#5, Velocity: 51
Note OFF: Time 142680, Note Name: D#5
Note ON: Time 142680, Note Name: F5, Velocity: 44
Note OFF: Time 142720, Note Name: F5
Note ON: Time 142720, Note Name: D#5, Velocity: 38
Note OFF: Time 142760, Note Name: D#5
Note ON: Time 142760, Note Name: D5, Velocity: 38
Note OFF: Time 142800, Note Name: D5
Note ON: Time 142800, Note Name: D#5, Velocity: 51
Note OFF: Time 142920, Note Name: D#5
Note ON: Time 142920, Note Name: F5, Velocity: 47
Note OFF: Time 143040, Note Name: F5
Note OFF: Time 143040, Note Name: G3
Note ON: Time 143040, Note Name: G5, Velocity: 49
Note OFF: Time 143160, Note Name: G5
Note ON: Time 143160, Note Name: G#5, Velocity: 50
Note OFF: Time 143250, Note Name: G#5
Note ON: Time 143250, Note Name: G5, Velocity: 48
Note OFF: Time 143280, Note Name: G5
Note ON: Time 143280, Note Name: A#5, Velocity: 57
Note OFF: Time 144000, Note Name: A#5
Note ON: Time 144000, Note Name: A5, Velocity: 47
Note OFF: Time 144120, Note Name: A5
Note ON: Time 144120, Note Name: A#5, Velocity: 52
Note OFF: Time 144240, Note Name: A#5
Note ON: Time 144240, Note Name: C6, Velocity: 53
Note OFF: Time 144360, Note Name: C6
Note ON: Time 144360, Note Name: A#5, Velocity: 51
Note OFF: Time 144480, Note Name: A#5
Note ON: Time 144480, Note Name: G#5, Velocity: 53
Note OFF: Time 144600, Note Name: G#5
Note ON: Time 144600, Note Name: G5, Velocity: 51
Note OFF: Time 144710, Note Name: G5
Note ON: Time 144720, Note Name: G#4, Velocity: 30
Note ON: Time 144720, Note Name: C5, Velocity: 35
Note ON: Time 144720, Note Name: G5, Velocity: 57
Note OFF: Time 144960, Note Name: G5
Note ON: Time 144960, Note Name: F5, Velocity: 47
Note OFF: Time 145190, Note Name: C5
Note OFF: Time 145200, Note Name: F5
Note OFF: Time 145200, Note Name: G#4
Note ON: Time 145200, Note Name: A#4, Velocity: 43
Note ON: Time 145200, Note Name: D#5, Velocity: 51
Note ON: Time 145200, Note Name: G4, Velocity: 36
Note OFF: Time 145320, Note Name: G4
Note OFF: Time 145320, Note Name: D#5
Note OFF: Time 145320, Note Name: A#4
Note ON: Time 145320, Note Name: D5, Velocity: 43
Note ON: Time 145320, Note Name: F4, Velocity: 30
Note ON: Time 145320, Note Name: G#4, Velocity: 36
Note OFF: Time 145430, Note Name: G#4
Note OFF: Time 145440, Note Name: F4
Note OFF: Time 145440, Note Name: D5
Note ON: Time 145440, Note Name: F4, Velocity: 40
Note ON: Time 145440, Note Name: D5, Velocity: 50
Note ON: Time 145440, Note Name: G#4, Velocity: 35
Note OFF: Time 145910, Note Name: G#4
Note OFF: Time 145920, Note Name: D5
Note OFF: Time 145920, Note Name: F4
Note ON: Time 145920, Note Name: D#4, Velocity: 45
Note ON: Time 145920, Note Name: C5, Velocity: 51
Note ON: Time 145920, Note Name: G#4, Velocity: 35
Note OFF: Time 146040, Note Name: C5
Note OFF: Time 146040, Note Name: D#4
Note ON: Time 146040, Note Name: A#4, Velocity: 43
Note ON: Time 146040, Note Name: D4, Velocity: 38
Note OFF: Time 146150, Note Name: D4
Note OFF: Time 146150, Note Name: G#4
Note OFF: Time 146160, Note Name: A#4
Note ON: Time 146160, Note Name: G#4, Velocity: 35
Note ON: Time 146160, Note Name: D4, Velocity: 51
Note ON: Time 146160, Note Name: A#4, Velocity: 54
Note OFF: Time 146280, Note Name: D4
Note ON: Time 146280, Note Name: C4, Velocity: 38
Note OFF: Time 146400, Note Name: C4
Note OFF: Time 146400, Note Name: A#4
Note ON: Time 146400, Note Name: A#3, Velocity: 38
Note ON: Time 146400, Note Name: C5, Velocity: 44
Note OFF: Time 146520, Note Name: A#3
Note ON: Time 146520, Note Name: G#3, Velocity: 38
Note OFF: Time 146640, Note Name: G#3
Note OFF: Time 146640, Note Name: C5
Note ON: Time 146640, Note Name: D5, Velocity: 46
Note ON: Time 146640, Note Name: G3, Velocity: 38
Note OFF: Time 146760, Note Name: G3
Note ON: Time 146760, Note Name: F3, Velocity: 38
Note OFF: Time 146880, Note Name: F3
Note OFF: Time 146880, Note Name: D5
Note OFF: Time 146880, Note Name: G#4
Note ON: Time 146880, Note Name: D#5, Velocity: 54
Note ON: Time 146880, Note Name: G4, Velocity: 54
Note OFF: Time 147120, Note Name: G4
Note OFF: Time 147120, Note Name: D#5
Note ON: Time 147120, Note Name: F#5, Velocity: 40
Note OFF: Time 147360, Note Name: F#5
Note ON: Time 147360, Note Name: G5, Velocity: 44
Note OFF: Time 147600, Note Name: G5
Note ON: Time 147840, Note Name: A5, Velocity: 41
Note OFF: Time 148080, Note Name: A5
Note ON: Time 148080, Note Name: A#5, Velocity: 44
Note OFF: Time 148320, Note Name: A#5
Note ON: Time 148560, Note Name: D6, Velocity: 40
Note OFF: Time 148800, Note Name: D6
Note ON: Time 148800, Note Name: D#6, Velocity: 44
Note OFF: Time 149040, Note Name: D#6
Note ON: Time 149280, Note Name: B5, Velocity: 41
Note OFF: Time 149520, Note Name: B5
Note ON: Time 149520, Note Name: C6, Velocity: 44
Note OFF: Time 149760, Note Name: C6
Note ON: Time 150000, Note Name: B4, Velocity: 40
Note OFF: Time 150240, Note Name: B4
Note ON: Time 150240, Note Name: C5, Velocity: 42
Note OFF: Time 150480, Note Name: C5
Note ON: Time 150720, Note Name: E4, Velocity: 38
Note OFF: Time 150960, Note Name: E4
Note ON: Time 150960, Note Name: F4, Velocity: 42
Note OFF: Time 151200, Note Name: F4
Note ON: Time 151440, Note Name: A#4, Velocity: 59
Note OFF: Time 152040, Note Name: A#4
Note ON: Time 152040, Note Name: C5, Velocity: 60
Note OFF: Time 152100, Note Name: C5
Note ON: Time 152100, Note Name: D5, Velocity: 62
Note OFF: Time 152160, Note Name: D5
Note ON: Time 152160, Note Name: D#5, Velocity: 64
Note OFF: Time 152220, Note Name: D#5
Note ON: Time 152220, Note Name: F5, Velocity: 66
Note OFF: Time 152280, Note Name: F5
Note ON: Time 152280, Note Name: G5, Velocity: 68
Note OFF: Time 152340, Note Name: G5
Note ON: Time 152340, Note Name: G#5, Velocity: 70
Note OFF: Time 152400, Note Name: G#5
Note ON: Time 152400, Note Name: A#5, Velocity: 72
Note OFF: Time 152880, Note Name: A#5
Note ON: Time 152880, Note Name: G#5, Velocity: 70
Note OFF: Time 153120, Note Name: G#5
Note ON: Time 153120, Note Name: F5, Velocity: 66
Note OFF: Time 153360, Note Name: F5
Note ON: Time 153360, Note Name: D#5, Velocity: 58
Note OFF: Time 153660, Note Name: D#5
Note ON: Time 153660, Note Name: D5, Velocity: 50
Note OFF: Time 153720, Note Name: D5
Note ON: Time 153720, Note Name: G5, Velocity: 57
Note ON: Time 153780, Note Name: F5, Velocity: 54
Note OFF: Time 153786, Note Name: G5
Note ON: Time 153840, Note Name: D#5, Velocity: 53
Note OFF: Time 153846, Note Name: F5
Note ON: Time 153900, Note Name: D5, Velocity: 51
Note OFF: Time 153906, Note Name: D#5
Note ON: Time 153960, Note Name: C5, Velocity: 49
Note OFF: Time 153966, Note Name: D5
Note ON: Time 154020, Note Name: A#4, Velocity: 47
Note OFF: Time 154026, Note Name: C5
Note ON: Time 154080, Note Name: A4, Velocity: 53
Note OFF: Time 154086, Note Name: A#4
Note ON: Time 154140, Note Name: A#4, Velocity: 51
Note OFF: Time 154146, Note Name: A4
Note ON: Time 154200, Note Name: D#5, Velocity: 59
Note OFF: Time 154206, Note Name: A#4
Note ON: Time 154260, Note Name: D5, Velocity: 54
Note OFF: Time 154266, Note Name: D#5
Note ON: Time 154320, Note Name: C5, Velocity: 54
Note OFF: Time 154326, Note Name: D5
Note ON: Time 154380, Note Name: A#4, Velocity: 52
Note OFF: Time 154386, Note Name: C5
Note ON: Time 154440, Note Name: G#4, Velocity: 50
Note OFF: Time 154446, Note Name: A#4
Note ON: Time 154500, Note Name: G4, Velocity: 50
Note OFF: Time 154506, Note Name: G#4
Note ON: Time 154560, Note Name: F#4, Velocity: 52
Note OFF: Time 154566, Note Name: G4
Note ON: Time 154620, Note Name: G4, Velocity: 46
Note OFF: Time 154626, Note Name: F#4
Note ON: Time 154680, Note Name: C5, Velocity: 56
Note OFF: Time 154686, Note Name: G4
Note ON: Time 154740, Note Name: A#4, Velocity: 55
Note OFF: Time 154746, Note Name: C5
Note ON: Time 154800, Note Name: G#4, Velocity: 54
Note OFF: Time 154806, Note Name: A#4
Note ON: Time 154860, Note Name: G4, Velocity: 52
Note OFF: Time 154866, Note Name: G#4
Note ON: Time 154920, Note Name: F4, Velocity: 50
Note OFF: Time 154926, Note Name: G4
Note ON: Time 154980, Note Name: D#4, Velocity: 48
Note OFF: Time 154986, Note Name: F4
Note ON: Time 155040, Note Name: D4, Velocity: 46
Note OFF: Time 155046, Note Name: D#4
Note ON: Time 155100, Note Name: D#4, Velocity: 45
Note OFF: Time 155106, Note Name: D4
Note ON: Time 155160, Note Name: G#4, Velocity: 52
Note OFF: Time 155166, Note Name: D#4
Note ON: Time 155220, Note Name: G4, Velocity: 51
Note OFF: Time 155226, Note Name: G#4
Note ON: Time 155280, Note Name: F4, Velocity: 49
Note OFF: Time 155286, Note Name: G4
Note ON: Time 155340, Note Name: D#4, Velocity: 47
Note OFF: Time 155346, Note Name: F4
Note ON: Time 155400, Note Name: D4, Velocity: 44
Note OFF: Time 155406, Note Name: D#4
Note ON: Time 155460, Note Name: C4, Velocity: 42
Note OFF: Time 155466, Note Name: D4
Note ON: Time 155520, Note Name: A3, Velocity: 39
Note OFF: Time 155526, Note Name: C4
Note OFF: Time 155580, Note Name: A3
Note ON: Time 155580, Note Name: A#3, Velocity: 39
Note OFF: Time 155640, Note Name: A#3
Note ON: Time 155640, Note Name: B3, Velocity: 40
Note OFF: Time 155700, Note Name: B3
Note ON: Time 155700, Note Name: C4, Velocity: 41
Note OFF: Time 155760, Note Name: C4
Note ON: Time 155760, Note Name: C#4, Velocity: 42
Note OFF: Time 155820, Note Name: C#4
Note ON: Time 155820, Note Name: D4, Velocity: 42
Note OFF: Time 155880, Note Name: D4
Note ON: Time 155880, Note Name: D#4, Velocity: 43
Note OFF: Time 155940, Note Name: D#4
Note ON: Time 155940, Note Name: E4, Velocity: 44
Note OFF: Time 156000, Note Name: E4
Note ON: Time 156000, Note Name: F4, Velocity: 45
Note OFF: Time 156060, Note Name: F4
Note ON: Time 156060, Note Name: F#4, Velocity: 45
Note OFF: Time 156120, Note Name: F#4
Note ON: Time 156120, Note Name: G4, Velocity: 46
Note OFF: Time 156180, Note Name: G4
Note ON: Time 156180, Note Name: G#4, Velocity: 47
Note OFF: Time 156240, Note Name: G#4
Note ON: Time 156240, Note Name: A4, Velocity: 49
Note OFF: Time 156300, Note Name: A4
Note ON: Time 156300, Note Name: A#4, Velocity: 50
Note OFF: Time 156360, Note Name: A#4
Note ON: Time 156360, Note Name: B4, Velocity: 52
Note OFF: Time 156420, Note Name: B4
Note ON: Time 156420, Note Name: C5, Velocity: 54
Note OFF: Time 156480, Note Name: C5
Note ON: Time 156480, Note Name: C#5, Velocity: 56
Note OFF: Time 156540, Note Name: C#5
Note ON: Time 156540, Note Name: D5, Velocity: 58
Note OFF: Time 156600, Note Name: D5
Note ON: Time 156600, Note Name: D#5, Velocity: 60
Note OFF: Time 156660, Note Name: D#5
Note ON: Time 156660, Note Name: E5, Velocity: 61
Note OFF: Time 156720, Note Name: E5
Note ON: Time 156720, Note Name: F5, Velocity: 64
Note OFF: Time 156768, Note Name: F5
Note ON: Time 156768, Note Name: F#5, Velocity: 65
Note OFF: Time 156816, Note Name: F#5
Note ON: Time 156816, Note Name: G5, Velocity: 67
Note OFF: Time 156864, Note Name: G5
Note ON: Time 156864, Note Name: G#5, Velocity: 69
Note OFF: Time 156912, Note Name: G#5
Note ON: Time 156912, Note Name: A5, Velocity: 70
Note OFF: Time 156960, Note Name: A5
Note ON: Time 156960, Note Name: A#5, Velocity: 80
Note OFF: Time 157260, Note Name: A#5
Note ON: Time 157260, Note Name: G#5, Velocity: 69
Note OFF: Time 157320, Note Name: G#5
Note ON: Time 157320, Note Name: F5, Velocity: 66
Note OFF: Time 157380, Note Name: F5
Note ON: Time 157380, Note Name: D5, Velocity: 63
Note OFF: Time 157440, Note Name: D5
Note ON: Time 157440, Note Name: A#4, Velocity: 60
Note OFF: Time 157500, Note Name: A#4
Note ON: Time 157500, Note Name: G#4, Velocity: 57
Note OFF: Time 157560, Note Name: G#4
Note ON: Time 157560, Note Name: F4, Velocity: 54
Note OFF: Time 157620, Note Name: F4
Note ON: Time 157620, Note Name: D4, Velocity: 51
Note OFF: Time 157680, Note Name: D4
Note ON: Time 157680, Note Name: D#4, Velocity: 56
Note OFF: Time 158160, Note Name: D#4
Note ON: Time 158880, Note Name: D#5, Velocity: 56
Note ON: Time 158880, Note Name: F#5, Velocity: 67
Note OFF: Time 159360, Note Name: F#5
Note ON: Time 159360, Note Name: G5, Velocity: 54
Note OFF: Time 159600, Note Name: G5
Note OFF: Time 159600, Note Name: D#5
Note ON: Time 159600, Note Name: G#5, Velocity: 59
Note ON: Time 159600, Note Name: D5, Velocity: 50
Note OFF: Time 159780, Note Name: G#5
Note ON: Time 159780, Note Name: F5, Velocity: 53
Note OFF: Time 159840, Note Name: F5
Note OFF: Time 159840, Note Name: D5
Note ON: Time 159840, Note Name: G4, Velocity: 48
Note ON: Time 159840, Note Name: D#5, Velocity: 56
Note OFF: Time 160320, Note Name: D#5
Note OFF: Time 160320, Note Name: G4
Note ON: Time 161040, Note Name: F#4, Velocity: 60
Note ON: Time 161040, Note Name: D#4, Velocity: 50
Note OFF: Time 161520, Note Name: F#4
Note ON: Time 161520, Note Name: G4, Velocity: 48
Note OFF: Time 161760, Note Name: G4
Note OFF: Time 161760, Note Name: D#4
Note ON: Time 161760, Note Name: G#4, Velocity: 53
Note ON: Time 161760, Note Name: D4, Velocity: 45
Note OFF: Time 161940, Note Name: G#4
Note ON: Time 161940, Note Name: F4, Velocity: 43
Note OFF: Time 162000, Note Name: F4
Note OFF: Time 162000, Note Name: D4
Note ON: Time 162000, Note Name: D#4, Velocity: 48
Note OFF: Time 162240, Note Name: D#4
Note ON: Time 162240, Note Name: G#4, Velocity: 51
Note ON: Time 162240, Note Name: D4, Velocity: 43
Note OFF: Time 162600, Note Name: G#4
Note ON: Time 162600, Note Name: F4, Velocity: 44
Note OFF: Time 162720, Note Name: F4
Note OFF: Time 162720, Note Name: D4
Note ON: Time 162720, Note Name: D#4, Velocity: 48
Note OFF: Time 162960, Note Name: D#4
Note ON: Time 162960, Note Name: G#4, Velocity: 51
Note ON: Time 162960, Note Name: D4, Velocity: 43
Note OFF: Time 163320, Note Name: G#4
Note ON: Time 163320, Note Name: F4, Velocity: 44
Note OFF: Time 163440, Note Name: F4
Note OFF: Time 163440, Note Name: D4
Note ON: Time 163440, Note Name: D#4, Velocity: 48
Note OFF: Time 163680, Note Name: D#4
Note ON: Time 163680, Note Name: G#4, Velocity: 60
Note ON: Time 163680, Note Name: G#3, Velocity: 50
Note OFF: Time 163800, Note Name: G#4
Note ON: Time 163800, Note Name: G4, Velocity: 56
Note OFF: Time 163910, Note Name: G#3
Note OFF: Time 163920, Note Name: G4
Note ON: Time 163920, Note Name: G#3, Velocity: 49
Note ON: Time 163920, Note Name: G#4, Velocity: 66
Note OFF: Time 164040, Note Name: G#4
Note ON: Time 164040, Note Name: F4, Velocity: 61
Note OFF: Time 164150, Note Name: G#3
Note OFF: Time 164160, Note Name: F4
Note ON: Time 164160, Note Name: E4, Velocity: 35
Note OFF: Time 164200, Note Name: E4
Note ON: Time 164200, Note Name: F4, Velocity: 34
Note OFF: Time 164240, Note Name: F4
Note ON: Time 164240, Note Name: G4, Velocity: 28
Note OFF: Time 164280, Note Name: G4
Note ON: Time 164280, Note Name: G#3, Velocity: 31
Note ON: Time 164280, Note Name: F4, Velocity: 37
Note OFF: Time 164880, Note Name: F4
Note OFF: Time 164880, Note Name: G#3
Note ON: Time 164880, Note Name: G3, Velocity: 27
Note ON: Time 164880, Note Name: D#4, Velocity: 27
Note OFF: Time 165360, Note Name: D#4
Note OFF: Time 165360, Note Name: G3
Track 2: Piano left
Note ON: Time 0, Note Name: D#3, Velocity: 18
Note ON: Time 0, Note Name: G3, Velocity: 18
Note ON: Time 0, Note Name: A#3, Velocity: 22
Note OFF: Time 216, Note Name: A#3
Note OFF: Time 216, Note Name: G3
Note OFF: Time 216, Note Name: D#3
Note ON: Time 240, Note Name: D#3, Velocity: 15
Note ON: Time 240, Note Name: G3, Velocity: 15
Note ON: Time 240, Note Name: A#3, Velocity: 18
Note OFF: Time 456, Note Name: A#3
Note OFF: Time 456, Note Name: G3
Note OFF: Time 456, Note Name: D#3
Note ON: Time 480, Note Name: D#3, Velocity: 15
Note ON: Time 480, Note Name: G3, Velocity: 15
Note ON: Time 480, Note Name: A#3, Velocity: 18
Note OFF: Time 696, Note Name: A#3
Note OFF: Time 696, Note Name: G3
Note OFF: Time 696, Note Name: D#3
Note ON: Time 720, Note Name: D#3, Velocity: 17
Note ON: Time 720, Note Name: G3, Velocity: 17
Note ON: Time 720, Note Name: A#3, Velocity: 20
Note OFF: Time 936, Note Name: A#3
Note OFF: Time 936, Note Name: G3
Note OFF: Time 936, Note Name: D#3
Note ON: Time 960, Note Name: D#3, Velocity: 15
Note ON: Time 960, Note Name: G3, Velocity: 15
Note ON: Time 960, Note Name: A#3, Velocity: 18
Note OFF: Time 1176, Note Name: A#3
Note OFF: Time 1176, Note Name: G3
Note OFF: Time 1176, Note Name: D#3
Note ON: Time 1200, Note Name: D#3, Velocity: 15
Note ON: Time 1200, Note Name: G3, Velocity: 15
Note ON: Time 1200, Note Name: A#3, Velocity: 18
Note OFF: Time 1416, Note Name: A#3
Note OFF: Time 1416, Note Name: G3
Note OFF: Time 1416, Note Name: D#3
Note ON: Time 1440, Note Name: D#3, Velocity: 18
Note ON: Time 1440, Note Name: G3, Velocity: 18
Note ON: Time 1440, Note Name: A#3, Velocity: 21
Note OFF: Time 1656, Note Name: A#3
Note OFF: Time 1656, Note Name: G3
Note OFF: Time 1656, Note Name: D#3
Note ON: Time 1680, Note Name: D#3, Velocity: 15
Note ON: Time 1680, Note Name: G3, Velocity: 15
Note ON: Time 1680, Note Name: A#3, Velocity: 18
Note OFF: Time 1896, Note Name: A#3
Note OFF: Time 1896, Note Name: G3
Note OFF: Time 1896, Note Name: D#3
Note ON: Time 1920, Note Name: D#3, Velocity: 15
Note ON: Time 1920, Note Name: G3, Velocity: 15
Note ON: Time 1920, Note Name: A#3, Velocity: 18
Note OFF: Time 2136, Note Name: A#3
Note OFF: Time 2136, Note Name: G3
Note OFF: Time 2136, Note Name: D#3
Note ON: Time 2160, Note Name: D#3, Velocity: 18
Note ON: Time 2160, Note Name: G3, Velocity: 18
Note ON: Time 2160, Note Name: A#3, Velocity: 22
Note OFF: Time 2376, Note Name: A#3
Note OFF: Time 2376, Note Name: G3
Note OFF: Time 2376, Note Name: D#3
Note ON: Time 2400, Note Name: D#3, Velocity: 15
Note ON: Time 2400, Note Name: G3, Velocity: 15
Note ON: Time 2400, Note Name: A#3, Velocity: 18
Note OFF: Time 2616, Note Name: A#3
Note OFF: Time 2616, Note Name: G3
Note OFF: Time 2616, Note Name: D#3
Note ON: Time 2640, Note Name: D#3, Velocity: 15
Note ON: Time 2640, Note Name: G3, Velocity: 15
Note ON: Time 2640, Note Name: A#3, Velocity: 18
Note OFF: Time 2856, Note Name: A#3
Note OFF: Time 2856, Note Name: G3
Note OFF: Time 2856, Note Name: D#3
Note ON: Time 2880, Note Name: D#3, Velocity: 17
Note ON: Time 2880, Note Name: G3, Velocity: 17
Note ON: Time 2880, Note Name: A#3, Velocity: 20
Note OFF: Time 3096, Note Name: A#3
Note OFF: Time 3096, Note Name: G3
Note OFF: Time 3096, Note Name: D#3
Note ON: Time 3120, Note Name: D#3, Velocity: 15
Note ON: Time 3120, Note Name: G3, Velocity: 15
Note ON: Time 3120, Note Name: A#3, Velocity: 18
Note OFF: Time 3336, Note Name: A#3
Note OFF: Time 3336, Note Name: G3
Note OFF: Time 3336, Note Name: D#3
Note ON: Time 3360, Note Name: D#3, Velocity: 15
Note ON: Time 3360, Note Name: G3, Velocity: 15
Note ON: Time 3360, Note Name: A#3, Velocity: 18
Note OFF: Time 3576, Note Name: A#3
Note OFF: Time 3576, Note Name: G3
Note OFF: Time 3576, Note Name: D#3
Note ON: Time 3600, Note Name: D#3, Velocity: 18
Note ON: Time 3600, Note Name: G3, Velocity: 18
Note ON: Time 3600, Note Name: A#3, Velocity: 21
Note OFF: Time 3816, Note Name: A#3
Note OFF: Time 3816, Note Name: G3
Note OFF: Time 3816, Note Name: D#3
Note ON: Time 3840, Note Name: D#3, Velocity: 15
Note ON: Time 3840, Note Name: G3, Velocity: 15
Note ON: Time 3840, Note Name: A#3, Velocity: 18
Note OFF: Time 4056, Note Name: A#3
Note OFF: Time 4056, Note Name: G3
Note OFF: Time 4056, Note Name: D#3
Note ON: Time 4080, Note Name: D#3, Velocity: 15
Note ON: Time 4080, Note Name: G3, Velocity: 15
Note ON: Time 4080, Note Name: A#3, Velocity: 18
Note OFF: Time 4296, Note Name: A#3
Note OFF: Time 4296, Note Name: G3
Note OFF: Time 4296, Note Name: D#3
Note ON: Time 4320, Note Name: D3, Velocity: 18
Note ON: Time 4320, Note Name: G#3, Velocity: 18
Note ON: Time 4320, Note Name: A#3, Velocity: 22
Note OFF: Time 4536, Note Name: A#3
Note OFF: Time 4536, Note Name: G#3
Note OFF: Time 4536, Note Name: D3
Note ON: Time 4560, Note Name: D3, Velocity: 15
Note ON: Time 4560, Note Name: G#3, Velocity: 15
Note ON: Time 4560, Note Name: A#3, Velocity: 18
Note OFF: Time 4776, Note Name: A#3
Note OFF: Time 4776, Note Name: G#3
Note OFF: Time 4776, Note Name: D3
Note ON: Time 4800, Note Name: D3, Velocity: 15
Note ON: Time 4800, Note Name: G#3, Velocity: 15
Note ON: Time 4800, Note Name: A#3, Velocity: 18
Note OFF: Time 5016, Note Name: A#3
Note OFF: Time 5016, Note Name: G#3
Note OFF: Time 5016, Note Name: D3
Note ON: Time 5040, Note Name: D3, Velocity: 17
Note ON: Time 5040, Note Name: G#3, Velocity: 17
Note ON: Time 5040, Note Name: A#3, Velocity: 20
Note OFF: Time 5256, Note Name: A#3
Note OFF: Time 5256, Note Name: G#3
Note OFF: Time 5256, Note Name: D3
Note ON: Time 5280, Note Name: D3, Velocity: 15
Note ON: Time 5280, Note Name: G#3, Velocity: 15
Note ON: Time 5280, Note Name: A#3, Velocity: 18
Note OFF: Time 5496, Note Name: A#3
Note OFF: Time 5496, Note Name: G#3
Note OFF: Time 5496, Note Name: D3
Note ON: Time 5520, Note Name: D3, Velocity: 15
Note ON: Time 5520, Note Name: G#3, Velocity: 15
Note ON: Time 5520, Note Name: A#3, Velocity: 18
Note OFF: Time 5736, Note Name: A#3
Note OFF: Time 5736, Note Name: G#3
Note OFF: Time 5736, Note Name: D3
Note ON: Time 5760, Note Name: D3, Velocity: 18
Note ON: Time 5760, Note Name: G#3, Velocity: 18
Note ON: Time 5760, Note Name: A#3, Velocity: 21
Note OFF: Time 5976, Note Name: A#3
Note OFF: Time 5976, Note Name: G#3
Note OFF: Time 5976, Note Name: D3
Note ON: Time 6000, Note Name: D3, Velocity: 15
Note ON: Time 6000, Note Name: G#3, Velocity: 15
Note ON: Time 6000, Note Name: A#3, Velocity: 18
Note OFF: Time 6216, Note Name: A#3
Note OFF: Time 6216, Note Name: G#3
Note OFF: Time 6216, Note Name: D3
Note ON: Time 6240, Note Name: D3, Velocity: 15
Note ON: Time 6240, Note Name: G#3, Velocity: 15
Note ON: Time 6240, Note Name: A#3, Velocity: 18
Note OFF: Time 6456, Note Name: A#3
Note OFF: Time 6456, Note Name: G#3
Note OFF: Time 6456, Note Name: D3
Note ON: Time 6480, Note Name: F3, Velocity: 18
Note ON: Time 6480, Note Name: D3, Velocity: 18
Note ON: Time 6480, Note Name: G#3, Velocity: 18
Note ON: Time 6480, Note Name: A#3, Velocity: 22
Note OFF: Time 6696, Note Name: A#3
Note OFF: Time 6696, Note Name: F3
Note OFF: Time 6696, Note Name: D3
Note OFF: Time 6696, Note Name: G#3
Note ON: Time 6720, Note Name: F3, Velocity: 15
Note ON: Time 6720, Note Name: D3, Velocity: 15
Note ON: Time 6720, Note Name: G#3, Velocity: 15
Note ON: Time 6720, Note Name: A#3, Velocity: 18
Note OFF: Time 6936, Note Name: A#3
Note OFF: Time 6936, Note Name: F3
Note OFF: Time 6936, Note Name: D3
Note OFF: Time 6936, Note Name: G#3
Note ON: Time 6960, Note Name: F3, Velocity: 15
Note ON: Time 6960, Note Name: D3, Velocity: 15
Note ON: Time 6960, Note Name: G#3, Velocity: 15
Note ON: Time 6960, Note Name: A#3, Velocity: 18
Note OFF: Time 7176, Note Name: A#3
Note OFF: Time 7176, Note Name: F3
Note OFF: Time 7176, Note Name: D3
Note OFF: Time 7176, Note Name: G#3
Note ON: Time 7200, Note Name: F3, Velocity: 17
Note ON: Time 7200, Note Name: D3, Velocity: 17
Note ON: Time 7200, Note Name: G#3, Velocity: 17
Note ON: Time 7200, Note Name: A#3, Velocity: 20
Note OFF: Time 7416, Note Name: A#3
Note OFF: Time 7416, Note Name: F3
Note OFF: Time 7416, Note Name: D3
Note OFF: Time 7416, Note Name: G#3
Note ON: Time 7440, Note Name: F3, Velocity: 15
Note ON: Time 7440, Note Name: D3, Velocity: 15
Note ON: Time 7440, Note Name: G#3, Velocity: 15
Note ON: Time 7440, Note Name: A#3, Velocity: 18
Note OFF: Time 7656, Note Name: A#3
Note OFF: Time 7656, Note Name: F3
Note OFF: Time 7656, Note Name: D3
Note OFF: Time 7656, Note Name: G#3
Note ON: Time 7680, Note Name: F3, Velocity: 15
Note ON: Time 7680, Note Name: D3, Velocity: 15
Note ON: Time 7680, Note Name: G#3, Velocity: 15
Note ON: Time 7680, Note Name: A#3, Velocity: 18
Note OFF: Time 7896, Note Name: A#3
Note OFF: Time 7896, Note Name: F3
Note OFF: Time 7896, Note Name: D3
Note OFF: Time 7896, Note Name: G#3
Note ON: Time 7920, Note Name: F3, Velocity: 18
Note ON: Time 7920, Note Name: D3, Velocity: 18
Note ON: Time 7920, Note Name: G#3, Velocity: 18
Note ON: Time 7920, Note Name: A#3, Velocity: 21
Note OFF: Time 8136, Note Name: A#3
Note OFF: Time 8136, Note Name: F3
Note OFF: Time 8136, Note Name: D3
Note OFF: Time 8136, Note Name: G#3
Note ON: Time 8160, Note Name: F3, Velocity: 15
Note ON: Time 8160, Note Name: D3, Velocity: 15
Note ON: Time 8160, Note Name: G#3, Velocity: 15
Note ON: Time 8160, Note Name: A#3, Velocity: 18
Note OFF: Time 8376, Note Name: A#3
Note OFF: Time 8376, Note Name: F3
Note OFF: Time 8376, Note Name: D3
Note OFF: Time 8376, Note Name: G#3
Note ON: Time 8400, Note Name: F3, Velocity: 15
Note ON: Time 8400, Note Name: D3, Velocity: 15
Note ON: Time 8400, Note Name: G#3, Velocity: 15
Note ON: Time 8400, Note Name: A#3, Velocity: 18
Note OFF: Time 8616, Note Name: A#3
Note OFF: Time 8616, Note Name: F3
Note OFF: Time 8616, Note Name: D3
Note OFF: Time 8616, Note Name: G#3
Note ON: Time 8640, Note Name: D#3, Velocity: 18
Note ON: Time 8640, Note Name: G#3, Velocity: 18
Note ON: Time 8640, Note Name: A#3, Velocity: 22
Note OFF: Time 8856, Note Name: A#3
Note OFF: Time 8856, Note Name: G#3
Note OFF: Time 8856, Note Name: D#3
Note ON: Time 8880, Note Name: D#3, Velocity: 15
Note ON: Time 8880, Note Name: G#3, Velocity: 15
Note ON: Time 8880, Note Name: A#3, Velocity: 18
Note OFF: Time 9096, Note Name: A#3
Note OFF: Time 9096, Note Name: G#3
Note OFF: Time 9096, Note Name: D#3
Note ON: Time 9120, Note Name: D#3, Velocity: 15
Note ON: Time 9120, Note Name: G#3, Velocity: 15
Note ON: Time 9120, Note Name: A#3, Velocity: 18
Note OFF: Time 9336, Note Name: A#3
Note OFF: Time 9336, Note Name: G#3
Note OFF: Time 9336, Note Name: D#3
Note ON: Time 9360, Note Name: D#3, Velocity: 17
Note ON: Time 9360, Note Name: G3, Velocity: 17
Note ON: Time 9360, Note Name: A#3, Velocity: 20
Note OFF: Time 9576, Note Name: A#3
Note OFF: Time 9576, Note Name: G3
Note OFF: Time 9576, Note Name: D#3
Note ON: Time 9600, Note Name: D#3, Velocity: 15
Note ON: Time 9600, Note Name: G3, Velocity: 15
Note ON: Time 9600, Note Name: A#3, Velocity: 18
Note OFF: Time 9816, Note Name: A#3
Note OFF: Time 9816, Note Name: G3
Note OFF: Time 9816, Note Name: D#3
Note ON: Time 9840, Note Name: D#3, Velocity: 15
Note ON: Time 9840, Note Name: G3, Velocity: 15
Note ON: Time 9840, Note Name: A#3, Velocity: 18
Note OFF: Time 10056, Note Name: A#3
Note OFF: Time 10056, Note Name: G3
Note OFF: Time 10056, Note Name: D#3
Note ON: Time 10080, Note Name: D#3, Velocity: 36
Note OFF: Time 10320, Note Name: D#3
Note ON: Time 10320, Note Name: A#2, Velocity: 40
Note OFF: Time 10560, Note Name: A#2
Note ON: Time 10560, Note Name: G#2, Velocity: 43
Note OFF: Time 10800, Note Name: G#2
Note ON: Time 10800, Note Name: G2, Velocity: 48
Note OFF: Time 11040, Note Name: G2
Note ON: Time 11040, Note Name: G2, Velocity: 29
Note ON: Time 11040, Note Name: A#2, Velocity: 29
Note ON: Time 11040, Note Name: D#3, Velocity: 35
Note OFF: Time 11256, Note Name: D#3
Note OFF: Time 11256, Note Name: A#2
Note OFF: Time 11256, Note Name: G2
Note ON: Time 11280, Note Name: G2, Velocity: 29
Note ON: Time 11280, Note Name: A#2, Velocity: 29
Note ON: Time 11280, Note Name: D#3, Velocity: 35
Note OFF: Time 11496, Note Name: D#3
Note OFF: Time 11496, Note Name: A#2
Note OFF: Time 11496, Note Name: G2
Note ON: Time 11520, Note Name: G2, Velocity: 29
Note ON: Time 11520, Note Name: A#2, Velocity: 29
Note ON: Time 11520, Note Name: D#3, Velocity: 35
Note OFF: Time 11736, Note Name: D#3
Note OFF: Time 11736, Note Name: A#2
Note OFF: Time 11736, Note Name: G2
Note ON: Time 11760, Note Name: G2, Velocity: 27
Note ON: Time 11760, Note Name: A#2, Velocity: 27
Note ON: Time 11760, Note Name: D#3, Velocity: 32
Note OFF: Time 11976, Note Name: D#3
Note OFF: Time 11976, Note Name: A#2
Note OFF: Time 11976, Note Name: G2
Note ON: Time 12000, Note Name: G2, Velocity: 27
Note ON: Time 12000, Note Name: A#2, Velocity: 27
Note ON: Time 12000, Note Name: D#3, Velocity: 32
Note OFF: Time 12216, Note Name: D#3
Note OFF: Time 12216, Note Name: A#2
Note OFF: Time 12216, Note Name: G2
Note ON: Time 12240, Note Name: G2, Velocity: 29
Note ON: Time 12240, Note Name: A#2, Velocity: 29
Note ON: Time 12240, Note Name: D#3, Velocity: 35
Note OFF: Time 12456, Note Name: D#3
Note OFF: Time 12456, Note Name: A#2
Note OFF: Time 12456, Note Name: G2
Note ON: Time 12480, Note Name: G2, Velocity: 25
Note ON: Time 12480, Note Name: A#2, Velocity: 25
Note ON: Time 12480, Note Name: D#3, Velocity: 30
Note OFF: Time 12696, Note Name: D#3
Note OFF: Time 12696, Note Name: A#2
Note OFF: Time 12696, Note Name: G2
Note ON: Time 12720, Note Name: G2, Velocity: 25
Note ON: Time 12720, Note Name: A#2, Velocity: 25
Note ON: Time 12720, Note Name: D#3, Velocity: 30
Note OFF: Time 12936, Note Name: D#3
Note OFF: Time 12936, Note Name: A#2
Note OFF: Time 12936, Note Name: G2
Note ON: Time 12960, Note Name: G#2, Velocity: 31
Note ON: Time 12960, Note Name: C3, Velocity: 31
Note ON: Time 12960, Note Name: D#3, Velocity: 38
Note OFF: Time 13176, Note Name: D#3
Note OFF: Time 13176, Note Name: C3
Note OFF: Time 13176, Note Name: G#2
Note ON: Time 13200, Note Name: G#2, Velocity: 27
Note ON: Time 13200, Note Name: C3, Velocity: 27
Note ON: Time 13200, Note Name: D#3, Velocity: 33
Note OFF: Time 13416, Note Name: D#3
Note OFF: Time 13416, Note Name: C3
Note OFF: Time 13416, Note Name: G#2
Note ON: Time 13440, Note Name: G#2, Velocity: 27
Note ON: Time 13440, Note Name: C3, Velocity: 27
Note ON: Time 13440, Note Name: D#3, Velocity: 33
Note OFF: Time 13656, Note Name: D#3
Note OFF: Time 13656, Note Name: C3
Note OFF: Time 13656, Note Name: G#2
Note ON: Time 13680, Note Name: G#2, Velocity: 31
Note ON: Time 13680, Note Name: C3, Velocity: 31
Note ON: Time 13680, Note Name: E3, Velocity: 38
Note OFF: Time 13896, Note Name: E3
Note OFF: Time 13896, Note Name: C3
Note OFF: Time 13896, Note Name: G#2
Note ON: Time 13920, Note Name: G#2, Velocity: 27
Note ON: Time 13920, Note Name: C3, Velocity: 27
Note ON: Time 13920, Note Name: E3, Velocity: 33
Note OFF: Time 14136, Note Name: E3
Note OFF: Time 14136, Note Name: C3
Note OFF: Time 14136, Note Name: G#2
Note ON: Time 14160, Note Name: G#2, Velocity: 27
Note ON: Time 14160, Note Name: C3, Velocity: 27
Note ON: Time 14160, Note Name: E3, Velocity: 33
Note OFF: Time 14376, Note Name: E3
Note OFF: Time 14376, Note Name: C3
Note OFF: Time 14376, Note Name: G#2
Note ON: Time 14400, Note Name: G#2, Velocity: 31
Note ON: Time 14400, Note Name: C3, Velocity: 31
Note ON: Time 14400, Note Name: F3, Velocity: 38
Note OFF: Time 14616, Note Name: F3
Note OFF: Time 14616, Note Name: C3
Note OFF: Time 14616, Note Name: G#2
Note ON: Time 14640, Note Name: G#2, Velocity: 25
Note ON: Time 14640, Note Name: C3, Velocity: 25
Note ON: Time 14640, Note Name: F3, Velocity: 30
Note OFF: Time 14856, Note Name: F3
Note OFF: Time 14856, Note Name: C3
Note OFF: Time 14856, Note Name: G#2
Note ON: Time 14880, Note Name: G#2, Velocity: 25
Note ON: Time 14880, Note Name: C3, Velocity: 25
Note ON: Time 14880, Note Name: F3, Velocity: 30
Note OFF: Time 15096, Note Name: F3
Note OFF: Time 15096, Note Name: C3
Note OFF: Time 15096, Note Name: G#2
Note ON: Time 15120, Note Name: A#2, Velocity: 29
Note ON: Time 15120, Note Name: D#3, Velocity: 29
Note ON: Time 15120, Note Name: G3, Velocity: 35
Note OFF: Time 15336, Note Name: G3
Note OFF: Time 15336, Note Name: D#3
Note OFF: Time 15336, Note Name: A#2
Note ON: Time 15360, Note Name: A#2, Velocity: 23
Note ON: Time 15360, Note Name: D#3, Velocity: 23
Note ON: Time 15360, Note Name: G3, Velocity: 28
Note OFF: Time 15576, Note Name: G3
Note OFF: Time 15576, Note Name: D#3
Note OFF: Time 15576, Note Name: A#2
Note ON: Time 15600, Note Name: A#2, Velocity: 23
Note ON: Time 15600, Note Name: D#3, Velocity: 23
Note ON: Time 15600, Note Name: G3, Velocity: 28
Note OFF: Time 15816, Note Name: G3
Note OFF: Time 15816, Note Name: D#3
Note OFF: Time 15816, Note Name: A#2
Note ON: Time 15840, Note Name: A#2, Velocity: 20
Note ON: Time 15840, Note Name: D#3, Velocity: 20
Note ON: Time 15840, Note Name: G3, Velocity: 25
Note OFF: Time 16056, Note Name: G3
Note OFF: Time 16056, Note Name: D#3
Note OFF: Time 16056, Note Name: A#2
Note ON: Time 16080, Note Name: A#2, Velocity: 18
Note ON: Time 16080, Note Name: D#3, Velocity: 18
Note ON: Time 16080, Note Name: G3, Velocity: 21
Note OFF: Time 16296, Note Name: G3
Note OFF: Time 16296, Note Name: D#3
Note OFF: Time 16296, Note Name: A#2
Note ON: Time 16320, Note Name: A#2, Velocity: 17
Note ON: Time 16320, Note Name: D#3, Velocity: 17
Note ON: Time 16320, Note Name: G3, Velocity: 21
Note OFF: Time 16536, Note Name: G3
Note OFF: Time 16536, Note Name: D#3
Note OFF: Time 16536, Note Name: A#2
Note ON: Time 16560, Note Name: A#2, Velocity: 20
Note ON: Time 16560, Note Name: F3, Velocity: 20
Note ON: Time 16560, Note Name: G#3, Velocity: 24
Note OFF: Time 16776, Note Name: G#3
Note OFF: Time 16776, Note Name: F3
Note OFF: Time 16776, Note Name: A#2
Note ON: Time 16800, Note Name: A#2, Velocity: 17
Note ON: Time 16800, Note Name: F3, Velocity: 17
Note ON: Time 16800, Note Name: G#3, Velocity: 20
Note OFF: Time 17016, Note Name: G#3
Note OFF: Time 17016, Note Name: F3
Note OFF: Time 17016, Note Name: A#2
Note ON: Time 17040, Note Name: A#2, Velocity: 16
Note ON: Time 17040, Note Name: F3, Velocity: 16
Note ON: Time 17040, Note Name: G#3, Velocity: 20
Note OFF: Time 17256, Note Name: G#3
Note OFF: Time 17256, Note Name: F3
Note OFF: Time 17256, Note Name: A#2
Note ON: Time 17280, Note Name: D#3, Velocity: 26
Note ON: Time 17280, Note Name: G3, Velocity: 31
Note OFF: Time 17760, Note Name: G3
Note OFF: Time 17760, Note Name: D#3
Note ON: Time 18720, Note Name: A#2, Velocity: 26
Note ON: Time 18720, Note Name: A#3, Velocity: 31
Note OFF: Time 19200, Note Name: A#3
Note ON: Time 19200, Note Name: G#3, Velocity: 29
Note OFF: Time 19440, Note Name: G#3
Note OFF: Time 19440, Note Name: A#2
Note ON: Time 19440, Note Name: D#3, Velocity: 26
Note ON: Time 19440, Note Name: G3, Velocity: 31
Note OFF: Time 19920, Note Name: G3
Note OFF: Time 19920, Note Name: D#3
Note ON: Time 20880, Note Name: A#2, Velocity: 31
Note ON: Time 20880, Note Name: A#1, Velocity: 26
Note OFF: Time 21360, Note Name: A#2
Note ON: Time 21360, Note Name: G#2, Velocity: 22
Note ON: Time 21360, Note Name: F3, Velocity: 27
Note OFF: Time 21600, Note Name: F3
Note OFF: Time 21600, Note Name: G#2
Note OFF: Time 21600, Note Name: A#1
Note ON: Time 21600, Note Name: D#2, Velocity: 20
Note ON: Time 21600, Note Name: G2, Velocity: 24
Note OFF: Time 22080, Note Name: G2
Note OFF: Time 22080, Note Name: D#2
Note ON: Time 22080, Note Name: A#1, Velocity: 27
Note ON: Time 22080, Note Name: G#2, Velocity: 32
Note OFF: Time 22320, Note Name: G#2
Note OFF: Time 22320, Note Name: A#1
Note ON: Time 22320, Note Name: D#2, Velocity: 22
Note ON: Time 22320, Note Name: G2, Velocity: 26
Note OFF: Time 22800, Note Name: G2
Note OFF: Time 22800, Note Name: D#2
Note ON: Time 22800, Note Name: A#1, Velocity: 28
Note ON: Time 22800, Note Name: G#2, Velocity: 34
Note OFF: Time 23040, Note Name: G#2
Note OFF: Time 23040, Note Name: A#1
Note ON: Time 23040, Note Name: D#2, Velocity: 21
Note ON: Time 23040, Note Name: G2, Velocity: 25
Note OFF: Time 23520, Note Name: G2
Note OFF: Time 23520, Note Name: D#2
Note ON: Time 23520, Note Name: A#1, Velocity: 29
Note ON: Time 23520, Note Name: G#2, Velocity: 35
Note OFF: Time 23740, Note Name: G#2
Note OFF: Time 23740, Note Name: A#1
Note ON: Time 23760, Note Name: D#2, Velocity: 21
Note ON: Time 23760, Note Name: G#2, Velocity: 25
Note OFF: Time 24470, Note Name: D#2
Note OFF: Time 24480, Note Name: G#2
Note ON: Time 24480, Note Name: D#2, Velocity: 19
Note ON: Time 24480, Note Name: G2, Velocity: 23
Note OFF: Time 24960, Note Name: G2
Note OFF: Time 24960, Note Name: D#2
Note ON: Time 25920, Note Name: D#2, Velocity: 32
Note OFF: Time 26160, Note Name: D#2
Note ON: Time 26160, Note Name: G2, Velocity: 32
Note OFF: Time 26400, Note Name: G2
Note ON: Time 26400, Note Name: A#2, Velocity: 32
Note OFF: Time 26640, Note Name: A#2
Note ON: Time 26640, Note Name: D#3, Velocity: 36
Note OFF: Time 26880, Note Name: D#3
Note ON: Time 26880, Note Name: G3, Velocity: 38
Note OFF: Time 27120, Note Name: G3
Note ON: Time 27120, Note Name: A#3, Velocity: 40
Note OFF: Time 27350, Note Name: A#3
Note ON: Time 27360, Note Name: A#2, Velocity: 36
Note ON: Time 27360, Note Name: A#3, Velocity: 43
Note OFF: Time 27840, Note Name: A#3
Note OFF: Time 27840, Note Name: A#2
Note ON: Time 27840, Note Name: A#2, Velocity: 33
Note ON: Time 27840, Note Name: G#3, Velocity: 39
Note OFF: Time 28070, Note Name: G#3
Note OFF: Time 28070, Note Name: A#2
Note ON: Time 28080, Note Name: D#3, Velocity: 32
Note ON: Time 28080, Note Name: G#3, Velocity: 38
Note OFF: Time 28800, Note Name: G#3
Note ON: Time 28800, Note Name: G3, Velocity: 30
Note OFF: Time 29040, Note Name: G3
Note OFF: Time 29040, Note Name: D#3
Note ON: Time 30240, Note Name: D#2, Velocity: 37
Note OFF: Time 30480, Note Name: D#2
Note ON: Time 30480, Note Name: G2, Velocity: 40
Note OFF: Time 30720, Note Name: G2
Note ON: Time 30720, Note Name: A#2, Velocity: 44
Note OFF: Time 30960, Note Name: A#2
Note ON: Time 30960, Note Name: D#3, Velocity: 49
Note OFF: Time 31200, Note Name: D#3
Note ON: Time 31200, Note Name: G3, Velocity: 53
Note OFF: Time 31440, Note Name: G3
Note ON: Time 31440, Note Name: A#3, Velocity: 57
Note OFF: Time 31670, Note Name: A#3
Note ON: Time 31680, Note Name: D#4, Velocity: 62
Note OFF: Time 31920, Note Name: D#4
Note ON: Time 31920, Note Name: C4, Velocity: 58
Note OFF: Time 32160, Note Name: C4
Note ON: Time 32160, Note Name: A#3, Velocity: 54
Note OFF: Time 32390, Note Name: A#3
Note ON: Time 32400, Note Name: A3, Velocity: 53
Note OFF: Time 33120, Note Name: A3
Note ON: Time 33120, Note Name: G#3, Velocity: 43
Note OFF: Time 33840, Note Name: G#3
Note ON: Time 33840, Note Name: A#3, Velocity: 40
Note OFF: Time 34560, Note Name: A#3
Note ON: Time 34560, Note Name: D#3, Velocity: 35
Note OFF: Time 35280, Note Name: D#3
Note ON: Time 35280, Note Name: E3, Velocity: 35
Note OFF: Time 36000, Note Name: E3
Note ON: Time 36000, Note Name: F3, Velocity: 35
Note OFF: Time 36720, Note Name: F3
Note ON: Time 36720, Note Name: A#1, Velocity: 35
Note ON: Time 36960, Note Name: A#2, Velocity: 29
Note OFF: Time 37176, Note Name: A#2
Note ON: Time 37200, Note Name: A#2, Velocity: 29
Note OFF: Time 37416, Note Name: A#2
Note ON: Time 37440, Note Name: A#2, Velocity: 32
Note OFF: Time 37656, Note Name: A#2
Note ON: Time 37680, Note Name: A#2, Velocity: 29
Note OFF: Time 37896, Note Name: A#2
Note ON: Time 37920, Note Name: A#2, Velocity: 29
Note OFF: Time 38136, Note Name: A#2
Note ON: Time 38160, Note Name: A#2, Velocity: 32
Note OFF: Time 38376, Note Name: A#2
Note ON: Time 38400, Note Name: A#2, Velocity: 27
Note OFF: Time 38616, Note Name: A#2
Note ON: Time 38640, Note Name: A#2, Velocity: 27
Note OFF: Time 38856, Note Name: A#2
Note OFF: Time 38880, Note Name: A#1
Note ON: Time 38880, Note Name: A#2, Velocity: 32
Note OFF: Time 39096, Note Name: A#2
Note ON: Time 39120, Note Name: A#2, Velocity: 28
Note OFF: Time 39336, Note Name: A#2
Note ON: Time 39360, Note Name: A#2, Velocity: 28
Note OFF: Time 39576, Note Name: A#2
Note ON: Time 39600, Note Name: A#2, Velocity: 32
Note OFF: Time 39816, Note Name: A#2
Note ON: Time 39840, Note Name: A#2, Velocity: 28
Note OFF: Time 40056, Note Name: A#2
Note ON: Time 40080, Note Name: A#2, Velocity: 28
Note OFF: Time 40296, Note Name: A#2
Note ON: Time 40320, Note Name: A#2, Velocity: 32
Note OFF: Time 40536, Note Name: A#2
Note ON: Time 40560, Note Name: A#2, Velocity: 28
Note OFF: Time 40776, Note Name: A#2
Note ON: Time 40800, Note Name: A#2, Velocity: 28
Note OFF: Time 41016, Note Name: A#2
Note ON: Time 41040, Note Name: A#2, Velocity: 32
Note OFF: Time 41256, Note Name: A#2
Note ON: Time 41280, Note Name: A#2, Velocity: 28
Note OFF: Time 41496, Note Name: A#2
Note ON: Time 41520, Note Name: A#2, Velocity: 28
Note OFF: Time 41736, Note Name: A#2
Note ON: Time 41760, Note Name: A#2, Velocity: 32
Note OFF: Time 41976, Note Name: A#2
Note ON: Time 42000, Note Name: A#2, Velocity: 28
Note OFF: Time 42216, Note Name: A#2
Note ON: Time 42240, Note Name: A#2, Velocity: 28
Note OFF: Time 42456, Note Name: A#2
Note ON: Time 42480, Note Name: A#2, Velocity: 32
Note OFF: Time 42696, Note Name: A#2
Note ON: Time 42720, Note Name: A#2, Velocity: 28
Note OFF: Time 42936, Note Name: A#2
Note ON: Time 42960, Note Name: A#2, Velocity: 28
Note OFF: Time 43176, Note Name: A#2
Note ON: Time 43200, Note Name: A#2, Velocity: 32
Note OFF: Time 43416, Note Name: A#2
Note ON: Time 43440, Note Name: A#2, Velocity: 28
Note OFF: Time 43656, Note Name: A#2
Note ON: Time 43680, Note Name: A#2, Velocity: 28
Note OFF: Time 43896, Note Name: A#2
Note ON: Time 43920, Note Name: A#2, Velocity: 32
Note OFF: Time 44136, Note Name: A#2
Note ON: Time 44160, Note Name: A#2, Velocity: 28
Note OFF: Time 44376, Note Name: A#2
Note ON: Time 44400, Note Name: A#2, Velocity: 28
Note OFF: Time 44616, Note Name: A#2
Note ON: Time 44640, Note Name: A#2, Velocity: 32
Note OFF: Time 44856, Note Name: A#2
Note ON: Time 44880, Note Name: A#2, Velocity: 28
Note OFF: Time 45096, Note Name: A#2
Note ON: Time 45120, Note Name: A#2, Velocity: 28
Note OFF: Time 45336, Note Name: A#2
Note ON: Time 45360, Note Name: A#2, Velocity: 32
Note OFF: Time 45840, Note Name: A#2
Note ON: Time 46080, Note Name: A#3, Velocity: 28
Note ON: Time 46080, Note Name: F3, Velocity: 23
Note ON: Time 46080, Note Name: D3, Velocity: 23
Note OFF: Time 46560, Note Name: D3
Note OFF: Time 46560, Note Name: F3
Note OFF: Time 46560, Note Name: A#3
Note ON: Time 46800, Note Name: D4, Velocity: 23
Note ON: Time 46800, Note Name: F4, Velocity: 23
Note ON: Time 46800, Note Name: A#4, Velocity: 28
Note OFF: Time 47280, Note Name: A#4
Note OFF: Time 47280, Note Name: F4
Note OFF: Time 47280, Note Name: D4
Note ON: Time 47520, Note Name: D#4, Velocity: 23
Note ON: Time 47520, Note Name: G4, Velocity: 23
Note ON: Time 47520, Note Name: A#4, Velocity: 28
Note OFF: Time 48000, Note Name: A#4
Note OFF: Time 48000, Note Name: G4
Note OFF: Time 48000, Note Name: D#4
Note ON: Time 48240, Note Name: D#4, Velocity: 28
Note ON: Time 48240, Note Name: A#3, Velocity: 23
Note ON: Time 48240, Note Name: G3, Velocity: 23
Note OFF: Time 48720, Note Name: G3
Note OFF: Time 48720, Note Name: A#3
Note OFF: Time 48720, Note Name: D#4
Note ON: Time 48960, Note Name: E3, Velocity: 23
Note ON: Time 48960, Note Name: C4, Velocity: 28
Note ON: Time 48960, Note Name: A#3, Velocity: 23
Note OFF: Time 49440, Note Name: A#3
Note OFF: Time 49440, Note Name: C4
Note OFF: Time 49440, Note Name: E3
Note ON: Time 49680, Note Name: F3, Velocity: 35
Note ON: Time 49920, Note Name: D4, Velocity: 29
Note ON: Time 49920, Note Name: A#3, Velocity: 24
Note OFF: Time 50160, Note Name: A#3
Note OFF: Time 50160, Note Name: D4
Note ON: Time 50160, Note Name: D4, Velocity: 31
Note ON: Time 50160, Note Name: A#3, Velocity: 25
Note OFF: Time 50400, Note Name: A#3
Note OFF: Time 50400, Note Name: D4
Note ON: Time 50400, Note Name: A#3, Velocity: 32
Note ON: Time 50400, Note Name: D4, Velocity: 39
Note OFF: Time 50640, Note Name: D4
Note OFF: Time 50640, Note Name: A#3
Note ON: Time 50640, Note Name: A#3, Velocity: 35
Note ON: Time 50640, Note Name: D4, Velocity: 42
Note OFF: Time 50880, Note Name: D4
Note OFF: Time 50880, Note Name: A#3
Note ON: Time 50880, Note Name: A#3, Velocity: 39
Note ON: Time 50880, Note Name: D4, Velocity: 46
Note OFF: Time 51110, Note Name: F3
Note OFF: Time 51120, Note Name: D4
Note OFF: Time 51120, Note Name: A#3
Note ON: Time 51120, Note Name: F3, Velocity: 37
Note ON: Time 51120, Note Name: D#4, Velocity: 44
Note ON: Time 51120, Note Name: A3, Velocity: 37
Note OFF: Time 51360, Note Name: A3
Note OFF: Time 51360, Note Name: D#4
Note ON: Time 51360, Note Name: A3, Velocity: 33
Note ON: Time 51360, Note Name: D#4, Velocity: 39
Note OFF: Time 51600, Note Name: D#4
Note OFF: Time 51600, Note Name: A3
Note ON: Time 51600, Note Name: A3, Velocity: 32
Note ON: Time 51600, Note Name: D#4, Velocity: 38
Note OFF: Time 51840, Note Name: D#4
Note OFF: Time 51840, Note Name: A3
Note OFF: Time 51840, Note Name: F3
Note ON: Time 51840, Note Name: D4, Velocity: 40
Note ON: Time 51840, Note Name: A#3, Velocity: 38
Note OFF: Time 52320, Note Name: A#3
Note OFF: Time 52320, Note Name: D4
Note ON: Time 54000, Note Name: F2, Velocity: 35
Note ON: Time 54240, Note Name: D3, Velocity: 29
Note ON: Time 54240, Note Name: A#2, Velocity: 24
Note OFF: Time 54480, Note Name: A#2
Note OFF: Time 54480, Note Name: D3
Note ON: Time 54480, Note Name: D3, Velocity: 30
Note ON: Time 54480, Note Name: A#2, Velocity: 25
Note OFF: Time 54720, Note Name: A#2
Note OFF: Time 54720, Note Name: D3
Note ON: Time 54720, Note Name: A#2, Velocity: 31
Note ON: Time 54720, Note Name: D3, Velocity: 38
Note OFF: Time 54960, Note Name: D3
Note OFF: Time 54960, Note Name: A#2
Note ON: Time 54960, Note Name: A#2, Velocity: 34
Note ON: Time 54960, Note Name: D3, Velocity: 41
Note OFF: Time 55200, Note Name: D3
Note OFF: Time 55200, Note Name: A#2
Note ON: Time 55200, Note Name: A#2, Velocity: 38
Note ON: Time 55200, Note Name: D3, Velocity: 45
Note OFF: Time 55430, Note Name: F2
Note OFF: Time 55440, Note Name: D3
Note OFF: Time 55440, Note Name: A#2
Note ON: Time 55440, Note Name: F2, Velocity: 45
Note ON: Time 55440, Note Name: D#3, Velocity: 54
Note ON: Time 55440, Note Name: A2, Velocity: 45
Note OFF: Time 55680, Note Name: A2
Note OFF: Time 55680, Note Name: D#3
Note ON: Time 55680, Note Name: C3, Velocity: 33
Note ON: Time 55680, Note Name: D#3, Velocity: 39
Note OFF: Time 55920, Note Name: D#3
Note OFF: Time 55920, Note Name: C3
Note ON: Time 55920, Note Name: C3, Velocity: 32
Note ON: Time 55920, Note Name: D#3, Velocity: 38
Note OFF: Time 56160, Note Name: D#3
Note OFF: Time 56160, Note Name: C3
Note OFF: Time 56160, Note Name: F2
Note ON: Time 56160, Note Name: A#2, Velocity: 44
Note OFF: Time 56400, Note Name: A#2
Note ON: Time 56400, Note Name: D3, Velocity: 39
Note OFF: Time 56640, Note Name: D3
Note ON: Time 56640, Note Name: F3, Velocity: 39
Note OFF: Time 56880, Note Name: F3
Note ON: Time 56880, Note Name: A#3, Velocity: 44
Note OFF: Time 57120, Note Name: A#3
Note ON: Time 57120, Note Name: D4, Velocity: 38
Note OFF: Time 57360, Note Name: D4
Note ON: Time 57360, Note Name: E4, Velocity: 38
Note OFF: Time 57600, Note Name: E4
Note ON: Time 57600, Note Name: F4, Velocity: 44
Note OFF: Time 58080, Note Name: F4
Note ON: Time 58080, Note Name: C4, Velocity: 44
Note ON: Time 58080, Note Name: F3, Velocity: 37
Note OFF: Time 58260, Note Name: C4
Note ON: Time 58260, Note Name: D#4, Velocity: 40
Note OFF: Time 58320, Note Name: D#4
Note OFF: Time 58320, Note Name: F3
Note ON: Time 58320, Note Name: A#1, Velocity: 44
Note OFF: Time 58560, Note Name: A#1
Note ON: Time 58560, Note Name: D2, Velocity: 39
Note OFF: Time 58800, Note Name: D2
Note ON: Time 58800, Note Name: F2, Velocity: 39
Note OFF: Time 59040, Note Name: F2
Note ON: Time 59040, Note Name: A#2, Velocity: 44
Note OFF: Time 59280, Note Name: A#2
Note ON: Time 59280, Note Name: D3, Velocity: 38
Note OFF: Time 59520, Note Name: D3
Note ON: Time 59520, Note Name: E3, Velocity: 34
Note OFF: Time 59760, Note Name: E3
Note ON: Time 59760, Note Name: F3, Velocity: 39
Note OFF: Time 60240, Note Name: F3
Note ON: Time 60240, Note Name: C3, Velocity: 39
Note ON: Time 60240, Note Name: F2, Velocity: 33
Note OFF: Time 60420, Note Name: C3
Note ON: Time 60420, Note Name: D#3, Velocity: 36
Note OFF: Time 60480, Note Name: D#3
Note OFF: Time 60480, Note Name: F2
Note ON: Time 60480, Note Name: A#2, Velocity: 34
Note ON: Time 60480, Note Name: D3, Velocity: 40
Note OFF: Time 60720, Note Name: D3
Note OFF: Time 60720, Note Name: A#2
Note ON: Time 60720, Note Name: F2, Velocity: 33
Note ON: Time 60720, Note Name: C3, Velocity: 39
Note OFF: Time 61080, Note Name: C3
Note ON: Time 61080, Note Name: D#3, Velocity: 34
Note OFF: Time 61200, Note Name: D#3
Note OFF: Time 61200, Note Name: F2
Note ON: Time 61200, Note Name: A#2, Velocity: 34
Note ON: Time 61200, Note Name: D3, Velocity: 40
Note OFF: Time 61440, Note Name: D3
Note OFF: Time 61440, Note Name: A#2
Note ON: Time 61440, Note Name: F2, Velocity: 33
Note ON: Time 61440, Note Name: C3, Velocity: 39
Note OFF: Time 61800, Note Name: C3
Note ON: Time 61800, Note Name: D#3, Velocity: 34
Note OFF: Time 61920, Note Name: D#3
Note OFF: Time 61920, Note Name: F2
Note ON: Time 61920, Note Name: A#2, Velocity: 34
Note ON: Time 61920, Note Name: D3, Velocity: 40
Note OFF: Time 62160, Note Name: D3
Note OFF: Time 62160, Note Name: A#2
Note ON: Time 62160, Note Name: F2, Velocity: 38
Note ON: Time 62160, Note Name: C3, Velocity: 45
Note OFF: Time 62280, Note Name: C3
Note ON: Time 62280, Note Name: B2, Velocity: 42
Note OFF: Time 62400, Note Name: B2
Note OFF: Time 62400, Note Name: F2
Note ON: Time 62400, Note Name: F2, Velocity: 39
Note ON: Time 62400, Note Name: C3, Velocity: 52
Note OFF: Time 62520, Note Name: C3
Note ON: Time 62520, Note Name: D#3, Velocity: 48
Note OFF: Time 62640, Note Name: D#3
Note OFF: Time 62640, Note Name: F2
Note ON: Time 62760, Note Name: A#2, Velocity: 29
Note ON: Time 62760, Note Name: D#3, Velocity: 35
Note OFF: Time 63360, Note Name: D#3
Note ON: Time 63360, Note Name: D3, Velocity: 35
Note OFF: Time 63840, Note Name: D3
Note OFF: Time 63840, Note Name: A#2
Note ON: Time 64800, Note Name: G2, Velocity: 25
Note ON: Time 64800, Note Name: G1, Velocity: 21
Note OFF: Time 65016, Note Name: G1
Note OFF: Time 65016, Note Name: G2
Note ON: Time 65040, Note Name: G1, Velocity: 17
Note ON: Time 65040, Note Name: G2, Velocity: 21
Note OFF: Time 65256, Note Name: G2
Note OFF: Time 65256, Note Name: G1
Note ON: Time 65280, Note Name: G1, Velocity: 17
Note ON: Time 65280, Note Name: G2, Velocity: 21
Note OFF: Time 65496, Note Name: G2
Note OFF: Time 65496, Note Name: G1
Note ON: Time 65520, Note Name: G1, Velocity: 17
Note ON: Time 65520, Note Name: G2, Velocity: 21
Note OFF: Time 65736, Note Name: G2
Note OFF: Time 65736, Note Name: G1
Note ON: Time 65760, Note Name: G1, Velocity: 17
Note ON: Time 65760, Note Name: G2, Velocity: 21
Note OFF: Time 65976, Note Name: G2
Note OFF: Time 65976, Note Name: G1
Note ON: Time 66000, Note Name: G1, Velocity: 17
Note ON: Time 66000, Note Name: G2, Velocity: 21
Note OFF: Time 66216, Note Name: G2
Note OFF: Time 66216, Note Name: G1
Note ON: Time 66240, Note Name: G1, Velocity: 17
Note ON: Time 66240, Note Name: G2, Velocity: 21
Note OFF: Time 66456, Note Name: G2
Note OFF: Time 66456, Note Name: G1
Note ON: Time 66480, Note Name: G1, Velocity: 17
Note ON: Time 66480, Note Name: G2, Velocity: 21
Note OFF: Time 66696, Note Name: G2
Note OFF: Time 66696, Note Name: G1
Note ON: Time 66720, Note Name: G1, Velocity: 17
Note ON: Time 66720, Note Name: G2, Velocity: 21
Note OFF: Time 66936, Note Name: G2
Note OFF: Time 66936, Note Name: G1
Note ON: Time 66960, Note Name: G2, Velocity: 25
Note ON: Time 66960, Note Name: G1, Velocity: 21
Note OFF: Time 67176, Note Name: G1
Note OFF: Time 67176, Note Name: G2
Note ON: Time 67200, Note Name: G1, Velocity: 17
Note ON: Time 67200, Note Name: G2, Velocity: 21
Note OFF: Time 67416, Note Name: G2
Note OFF: Time 67416, Note Name: G1
Note ON: Time 67440, Note Name: G1, Velocity: 17
Note ON: Time 67440, Note Name: G2, Velocity: 21
Note OFF: Time 67656, Note Name: G2
Note OFF: Time 67656, Note Name: G1
Note ON: Time 67680, Note Name: G1, Velocity: 17
Note ON: Time 67680, Note Name: G2, Velocity: 21
Note OFF: Time 67896, Note Name: G2
Note OFF: Time 67896, Note Name: G1
Note ON: Time 67920, Note Name: G1, Velocity: 17
Note ON: Time 67920, Note Name: G2, Velocity: 21
Note OFF: Time 68136, Note Name: G2
Note OFF: Time 68136, Note Name: G1
Note ON: Time 68160, Note Name: G1, Velocity: 17
Note ON: Time 68160, Note Name: G2, Velocity: 21
Note OFF: Time 68376, Note Name: G2
Note OFF: Time 68376, Note Name: G1
Note ON: Time 68400, Note Name: G1, Velocity: 17
Note ON: Time 68400, Note Name: G2, Velocity: 21
Note OFF: Time 68616, Note Name: G2
Note OFF: Time 68616, Note Name: G1
Note ON: Time 68640, Note Name: G1, Velocity: 17
Note ON: Time 68640, Note Name: G2, Velocity: 21
Note OFF: Time 68856, Note Name: G2
Note OFF: Time 68856, Note Name: G1
Note ON: Time 68880, Note Name: G1, Velocity: 17
Note ON: Time 68880, Note Name: G2, Velocity: 21
Note OFF: Time 69096, Note Name: G2
Note OFF: Time 69096, Note Name: G1
Note ON: Time 69120, Note Name: G2, Velocity: 25
Note ON: Time 69120, Note Name: G1, Velocity: 21
Note OFF: Time 69336, Note Name: G1
Note OFF: Time 69336, Note Name: G2
Note ON: Time 69360, Note Name: G1, Velocity: 17
Note ON: Time 69360, Note Name: G2, Velocity: 21
Note OFF: Time 69576, Note Name: G2
Note OFF: Time 69576, Note Name: G1
Note ON: Time 69600, Note Name: G1, Velocity: 17
Note ON: Time 69600, Note Name: G2, Velocity: 21
Note OFF: Time 69816, Note Name: G2
Note OFF: Time 69816, Note Name: G1
Note ON: Time 69840, Note Name: G1, Velocity: 17
Note ON: Time 69840, Note Name: G2, Velocity: 21
Note OFF: Time 70056, Note Name: G2
Note OFF: Time 70056, Note Name: G1
Note ON: Time 70080, Note Name: G1, Velocity: 17
Note ON: Time 70080, Note Name: G2, Velocity: 21
Note OFF: Time 70296, Note Name: G2
Note OFF: Time 70296, Note Name: G1
Note ON: Time 70320, Note Name: G1, Velocity: 17
Note ON: Time 70320, Note Name: G2, Velocity: 21
Note OFF: Time 70536, Note Name: G2
Note OFF: Time 70536, Note Name: G1
Note ON: Time 70560, Note Name: G1, Velocity: 17
Note ON: Time 70560, Note Name: G2, Velocity: 21
Note OFF: Time 70776, Note Name: G2
Note OFF: Time 70776, Note Name: G1
Note ON: Time 70800, Note Name: G1, Velocity: 17
Note ON: Time 70800, Note Name: G2, Velocity: 21
Note OFF: Time 71016, Note Name: G2
Note OFF: Time 71016, Note Name: G1
Note ON: Time 71040, Note Name: G1, Velocity: 17
Note ON: Time 71040, Note Name: G2, Velocity: 21
Note OFF: Time 71256, Note Name: G2
Note OFF: Time 71256, Note Name: G1
Note ON: Time 71280, Note Name: G1, Velocity: 48
Note ON: Time 71280, Note Name: G2, Velocity: 60
Note OFF: Time 71520, Note Name: G2
Note OFF: Time 71520, Note Name: G1
Note ON: Time 71520, Note Name: G2, Velocity: 20
Note ON: Time 71520, Note Name: B2, Velocity: 20
Note ON: Time 71520, Note Name: D3, Velocity: 20
Note ON: Time 71520, Note Name: F3, Velocity: 26
Note OFF: Time 71736, Note Name: F3
Note OFF: Time 71736, Note Name: G2
Note OFF: Time 71736, Note Name: B2
Note OFF: Time 71736, Note Name: D3
Note ON: Time 71760, Note Name: G2, Velocity: 20
Note ON: Time 71760, Note Name: B2, Velocity: 20
Note ON: Time 71760, Note Name: D3, Velocity: 20
Note ON: Time 71760, Note Name: F3, Velocity: 26
Note OFF: Time 71976, Note Name: F3
Note OFF: Time 71976, Note Name: G2
Note OFF: Time 71976, Note Name: B2
Note OFF: Time 71976, Note Name: D3
Note ON: Time 72000, Note Name: G2, Velocity: 23
Note ON: Time 72000, Note Name: B2, Velocity: 23
Note ON: Time 72000, Note Name: D3, Velocity: 23
Note ON: Time 72000, Note Name: F3, Velocity: 29
Note OFF: Time 72216, Note Name: F3
Note OFF: Time 72216, Note Name: G2
Note OFF: Time 72216, Note Name: B2
Note OFF: Time 72216, Note Name: D3
Note ON: Time 72240, Note Name: G2, Velocity: 20
Note ON: Time 72240, Note Name: B2, Velocity: 20
Note ON: Time 72240, Note Name: D3, Velocity: 20
Note ON: Time 72240, Note Name: F3, Velocity: 26
Note OFF: Time 72456, Note Name: F3
Note OFF: Time 72456, Note Name: G2
Note OFF: Time 72456, Note Name: B2
Note OFF: Time 72456, Note Name: D3
Note ON: Time 72480, Note Name: G2, Velocity: 20
Note ON: Time 72480, Note Name: B2, Velocity: 20
Note ON: Time 72480, Note Name: D3, Velocity: 20
Note ON: Time 72480, Note Name: F3, Velocity: 26
Note OFF: Time 72696, Note Name: F3
Note OFF: Time 72696, Note Name: G2
Note OFF: Time 72696, Note Name: B2
Note OFF: Time 72696, Note Name: D3
Note ON: Time 72720, Note Name: G2, Velocity: 24
Note ON: Time 72720, Note Name: B2, Velocity: 24
Note ON: Time 72720, Note Name: D3, Velocity: 24
Note ON: Time 72720, Note Name: F3, Velocity: 30
Note OFF: Time 72936, Note Name: F3
Note OFF: Time 72936, Note Name: G2
Note OFF: Time 72936, Note Name: B2
Note OFF: Time 72936, Note Name: D3
Note ON: Time 72960, Note Name: G2, Velocity: 23
Note ON: Time 72960, Note Name: B2, Velocity: 23
Note ON: Time 72960, Note Name: D3, Velocity: 23
Note ON: Time 72960, Note Name: F3, Velocity: 30
Note OFF: Time 73176, Note Name: F3
Note OFF: Time 73176, Note Name: G2
Note OFF: Time 73176, Note Name: B2
Note OFF: Time 73176, Note Name: D3
Note ON: Time 73200, Note Name: G2, Velocity: 24
Note ON: Time 73200, Note Name: B2, Velocity: 24
Note ON: Time 73200, Note Name: D3, Velocity: 24
Note ON: Time 73200, Note Name: F3, Velocity: 31
Note OFF: Time 73416, Note Name: F3
Note OFF: Time 73416, Note Name: G2
Note OFF: Time 73416, Note Name: B2
Note OFF: Time 73416, Note Name: D3
Note ON: Time 73440, Note Name: C2, Velocity: 48
Note ON: Time 73440, Note Name: C3, Velocity: 60
Note OFF: Time 73680, Note Name: C3
Note OFF: Time 73680, Note Name: C2
Note ON: Time 73680, Note Name: C3, Velocity: 20
Note ON: Time 73680, Note Name: G3, Velocity: 20
Note ON: Time 73680, Note Name: A#3, Velocity: 26
Note OFF: Time 73896, Note Name: A#3
Note OFF: Time 73896, Note Name: G3
Note OFF: Time 73896, Note Name: C3
Note ON: Time 73920, Note Name: C3, Velocity: 20
Note ON: Time 73920, Note Name: G3, Velocity: 20
Note ON: Time 73920, Note Name: A#3, Velocity: 26
Note OFF: Time 74136, Note Name: A#3
Note OFF: Time 74136, Note Name: G3
Note OFF: Time 74136, Note Name: C3
Note ON: Time 74160, Note Name: C3, Velocity: 23
Note ON: Time 74160, Note Name: G3, Velocity: 23
Note ON: Time 74160, Note Name: A#3, Velocity: 29
Note OFF: Time 74376, Note Name: A#3
Note OFF: Time 74376, Note Name: G3
Note OFF: Time 74376, Note Name: C3
Note ON: Time 74400, Note Name: C3, Velocity: 20
Note ON: Time 74400, Note Name: G3, Velocity: 20
Note ON: Time 74400, Note Name: A#3, Velocity: 26
Note OFF: Time 74616, Note Name: A#3
Note OFF: Time 74616, Note Name: G3
Note OFF: Time 74616, Note Name: C3
Note ON: Time 74640, Note Name: C3, Velocity: 20
Note ON: Time 74640, Note Name: G3, Velocity: 20
Note ON: Time 74640, Note Name: A#3, Velocity: 26
Note OFF: Time 74856, Note Name: A#3
Note OFF: Time 74856, Note Name: G3
Note OFF: Time 74856, Note Name: C3
Note ON: Time 74880, Note Name: C3, Velocity: 24
Note ON: Time 74880, Note Name: G3, Velocity: 24
Note ON: Time 74880, Note Name: A#3, Velocity: 30
Note OFF: Time 75096, Note Name: A#3
Note OFF: Time 75096, Note Name: G3
Note OFF: Time 75096, Note Name: C3
Note ON: Time 75120, Note Name: C3, Velocity: 23
Note ON: Time 75120, Note Name: G3, Velocity: 23
Note ON: Time 75120, Note Name: A#3, Velocity: 30
Note OFF: Time 75336, Note Name: A#3
Note OFF: Time 75336, Note Name: G3
Note OFF: Time 75336, Note Name: C3
Note ON: Time 75360, Note Name: C3, Velocity: 24
Note ON: Time 75360, Note Name: G3, Velocity: 24
Note ON: Time 75360, Note Name: A#3, Velocity: 31
Note OFF: Time 75576, Note Name: A#3
Note OFF: Time 75576, Note Name: G3
Note OFF: Time 75576, Note Name: C3
Note ON: Time 75600, Note Name: F2, Velocity: 48
Note ON: Time 75600, Note Name: F3, Velocity: 60
Note OFF: Time 75840, Note Name: F3
Note OFF: Time 75840, Note Name: F2
Note ON: Time 75840, Note Name: F3, Velocity: 20
Note ON: Time 75840, Note Name: C4, Velocity: 20
Note ON: Time 75840, Note Name: D#4, Velocity: 26
Note OFF: Time 76056, Note Name: D#4
Note OFF: Time 76056, Note Name: C4
Note OFF: Time 76056, Note Name: F3
Note ON: Time 76080, Note Name: F3, Velocity: 20
Note ON: Time 76080, Note Name: C4, Velocity: 20
Note ON: Time 76080, Note Name: D#4, Velocity: 26
Note OFF: Time 76296, Note Name: D#4
Note OFF: Time 76296, Note Name: C4
Note OFF: Time 76296, Note Name: F3
Note ON: Time 76320, Note Name: F3, Velocity: 23
Note ON: Time 76320, Note Name: C4, Velocity: 23
Note ON: Time 76320, Note Name: D#4, Velocity: 29
Note OFF: Time 76536, Note Name: D#4
Note OFF: Time 76536, Note Name: C4
Note OFF: Time 76536, Note Name: F3
Note ON: Time 76560, Note Name: F3, Velocity: 20
Note ON: Time 76560, Note Name: C4, Velocity: 20
Note ON: Time 76560, Note Name: D#4, Velocity: 26
Note OFF: Time 76776, Note Name: D#4
Note OFF: Time 76776, Note Name: C4
Note OFF: Time 76776, Note Name: F3
Note ON: Time 76800, Note Name: F3, Velocity: 20
Note ON: Time 76800, Note Name: C4, Velocity: 20
Note ON: Time 76800, Note Name: D#4, Velocity: 26
Note OFF: Time 77016, Note Name: D#4
Note OFF: Time 77016, Note Name: C4
Note OFF: Time 77016, Note Name: F3
Note ON: Time 77040, Note Name: F3, Velocity: 24
Note ON: Time 77040, Note Name: C4, Velocity: 24
Note ON: Time 77040, Note Name: D#4, Velocity: 30
Note OFF: Time 77256, Note Name: D#4
Note OFF: Time 77256, Note Name: C4
Note OFF: Time 77256, Note Name: F3
Note ON: Time 77280, Note Name: F3, Velocity: 24
Note ON: Time 77280, Note Name: C4, Velocity: 24
Note ON: Time 77280, Note Name: D#4, Velocity: 31
Note OFF: Time 77496, Note Name: D#4
Note OFF: Time 77496, Note Name: C4
Note OFF: Time 77496, Note Name: F3
Note ON: Time 77520, Note Name: F3, Velocity: 26
Note ON: Time 77520, Note Name: C4, Velocity: 26
Note ON: Time 77520, Note Name: D#4, Velocity: 33
Note OFF: Time 77736, Note Name: D#4
Note OFF: Time 77736, Note Name: C4
Note OFF: Time 77736, Note Name: F3
Note ON: Time 77760, Note Name: A#1, Velocity: 48
Note ON: Time 77760, Note Name: A#2, Velocity: 60
Note OFF: Time 78000, Note Name: A#2
Note OFF: Time 78000, Note Name: A#1
Note ON: Time 78000, Note Name: A#2, Velocity: 20
Note ON: Time 78000, Note Name: F3, Velocity: 20
Note ON: Time 78000, Note Name: G#3, Velocity: 26
Note OFF: Time 78216, Note Name: G#3
Note OFF: Time 78216, Note Name: F3
Note OFF: Time 78216, Note Name: A#2
Note ON: Time 78240, Note Name: A#2, Velocity: 20
Note ON: Time 78240, Note Name: F3, Velocity: 20
Note ON: Time 78240, Note Name: G#3, Velocity: 26
Note OFF: Time 78456, Note Name: G#3
Note OFF: Time 78456, Note Name: F3
Note OFF: Time 78456, Note Name: A#2
Note ON: Time 78480, Note Name: A#2, Velocity: 23
Note ON: Time 78480, Note Name: F3, Velocity: 23
Note ON: Time 78480, Note Name: G#3, Velocity: 29
Note OFF: Time 78696, Note Name: G#3
Note OFF: Time 78696, Note Name: F3
Note OFF: Time 78696, Note Name: A#2
Note ON: Time 78720, Note Name: A#2, Velocity: 20
Note ON: Time 78720, Note Name: F3, Velocity: 20
Note ON: Time 78720, Note Name: G#3, Velocity: 26
Note OFF: Time 78936, Note Name: G#3
Note OFF: Time 78936, Note Name: F3
Note OFF: Time 78936, Note Name: A#2
Note ON: Time 78960, Note Name: A#2, Velocity: 20
Note ON: Time 78960, Note Name: F3, Velocity: 20
Note ON: Time 78960, Note Name: G#3, Velocity: 26
Note OFF: Time 79176, Note Name: G#3
Note OFF: Time 79176, Note Name: F3
Note OFF: Time 79176, Note Name: A#2
Note ON: Time 79200, Note Name: A#2, Velocity: 24
Note ON: Time 79200, Note Name: F3, Velocity: 24
Note ON: Time 79200, Note Name: G#3, Velocity: 30
Note OFF: Time 79416, Note Name: G#3
Note OFF: Time 79416, Note Name: F3
Note OFF: Time 79416, Note Name: A#2
Note ON: Time 79440, Note Name: A#2, Velocity: 23
Note ON: Time 79440, Note Name: F3, Velocity: 23
Note ON: Time 79440, Note Name: G#3, Velocity: 30
Note OFF: Time 79656, Note Name: G#3
Note OFF: Time 79656, Note Name: F3
Note OFF: Time 79656, Note Name: A#2
Note ON: Time 79680, Note Name: A#2, Velocity: 24
Note ON: Time 79680, Note Name: F3, Velocity: 24
Note ON: Time 79680, Note Name: G#3, Velocity: 31
Note OFF: Time 79896, Note Name: G#3
Note OFF: Time 79896, Note Name: F3
Note OFF: Time 79896, Note Name: A#2
Note ON: Time 79920, Note Name: D#2, Velocity: 48
Note ON: Time 79920, Note Name: D#3, Velocity: 60
Note OFF: Time 80160, Note Name: D#3
Note OFF: Time 80160, Note Name: D#2
Note ON: Time 80160, Note Name: D#3, Velocity: 20
Note ON: Time 80160, Note Name: A#3, Velocity: 20
Note ON: Time 80160, Note Name: C#4, Velocity: 26
Note OFF: Time 80376, Note Name: C#4
Note OFF: Time 80376, Note Name: A#3
Note OFF: Time 80376, Note Name: D#3
Note ON: Time 80400, Note Name: D#3, Velocity: 20
Note ON: Time 80400, Note Name: A#3, Velocity: 20
Note ON: Time 80400, Note Name: C#4, Velocity: 26
Note OFF: Time 80616, Note Name: C#4
Note OFF: Time 80616, Note Name: A#3
Note OFF: Time 80616, Note Name: D#3
Note ON: Time 80640, Note Name: D#3, Velocity: 23
Note ON: Time 80640, Note Name: A#3, Velocity: 23
Note ON: Time 80640, Note Name: C#4, Velocity: 29
Note OFF: Time 80856, Note Name: C#4
Note OFF: Time 80856, Note Name: A#3
Note OFF: Time 80856, Note Name: D#3
Note ON: Time 80880, Note Name: D#3, Velocity: 20
Note ON: Time 80880, Note Name: A#3, Velocity: 20
Note ON: Time 80880, Note Name: C#4, Velocity: 26
Note OFF: Time 81096, Note Name: C#4
Note OFF: Time 81096, Note Name: A#3
Note OFF: Time 81096, Note Name: D#3
Note ON: Time 81120, Note Name: D#3, Velocity: 21
Note ON: Time 81120, Note Name: A#3, Velocity: 21
Note ON: Time 81120, Note Name: C#4, Velocity: 27
Note OFF: Time 81336, Note Name: C#4
Note OFF: Time 81336, Note Name: A#3
Note OFF: Time 81336, Note Name: D#3
Note ON: Time 81360, Note Name: D#3, Velocity: 26
Note ON: Time 81360, Note Name: A#3, Velocity: 26
Note ON: Time 81360, Note Name: C#4, Velocity: 33
Note OFF: Time 81576, Note Name: C#4
Note OFF: Time 81576, Note Name: A#3
Note OFF: Time 81576, Note Name: D#3
Note ON: Time 81600, Note Name: D#3, Velocity: 27
Note ON: Time 81600, Note Name: A#3, Velocity: 27
Note ON: Time 81600, Note Name: C#4, Velocity: 35
Note OFF: Time 81816, Note Name: C#4
Note OFF: Time 81816, Note Name: A#3
Note OFF: Time 81816, Note Name: D#3
Note ON: Time 81840, Note Name: D#3, Velocity: 29
Note ON: Time 81840, Note Name: A#3, Velocity: 29
Note ON: Time 81840, Note Name: C#4, Velocity: 39
Note OFF: Time 82056, Note Name: C#4
Note OFF: Time 82056, Note Name: A#3
Note OFF: Time 82056, Note Name: D#3
Note ON: Time 82080, Note Name: D#3, Velocity: 24
Note ON: Time 82080, Note Name: B3, Velocity: 24
Note ON: Time 82080, Note Name: D#4, Velocity: 29
Note OFF: Time 82560, Note Name: D#4
Note OFF: Time 82560, Note Name: B3
Note OFF: Time 82560, Note Name: D#3
Note ON: Time 82800, Note Name: C#4, Velocity: 41
Note OFF: Time 82920, Note Name: C#4
Note ON: Time 82920, Note Name: D#4, Velocity: 34
Note OFF: Time 83040, Note Name: D#4
Note ON: Time 83040, Note Name: E4, Velocity: 41
Note OFF: Time 83160, Note Name: E4
Note ON: Time 83160, Note Name: D#4, Velocity: 36
Note OFF: Time 83280, Note Name: D#4
Note ON: Time 83280, Note Name: E4, Velocity: 41
Note OFF: Time 83400, Note Name: E4
Note ON: Time 83400, Note Name: C#4, Velocity: 37
Note OFF: Time 83520, Note Name: C#4
Note ON: Time 83520, Note Name: B3, Velocity: 41
Note OFF: Time 83640, Note Name: B3
Note ON: Time 83640, Note Name: C#4, Velocity: 38
Note OFF: Time 83760, Note Name: C#4
Note ON: Time 83760, Note Name: D#4, Velocity: 41
Note OFF: Time 83880, Note Name: D#4
Note ON: Time 83880, Note Name: C#4, Velocity: 35
Note OFF: Time 84000, Note Name: C#4
Note ON: Time 84000, Note Name: D#4, Velocity: 41
Note OFF: Time 84120, Note Name: D#4
Note ON: Time 84120, Note Name: B3, Velocity: 35
Note OFF: Time 84240, Note Name: B3
Note ON: Time 84240, Note Name: A#3, Velocity: 41
Note OFF: Time 84360, Note Name: A#3
Note ON: Time 84360, Note Name: B3, Velocity: 34
Note OFF: Time 84480, Note Name: B3
Note ON: Time 84480, Note Name: C#4, Velocity: 41
Note OFF: Time 84600, Note Name: C#4
Note ON: Time 84600, Note Name: B3, Velocity: 36
Note OFF: Time 84720, Note Name: B3
Note ON: Time 84720, Note Name: C#4, Velocity: 41
Note OFF: Time 84840, Note Name: C#4
Note ON: Time 84840, Note Name: A#3, Velocity: 37
Note OFF: Time 84960, Note Name: A#3
Note ON: Time 84960, Note Name: B3, Velocity: 41
Note OFF: Time 85080, Note Name: B3
Note ON: Time 85080, Note Name: C#4, Velocity: 34
Note OFF: Time 85200, Note Name: C#4
Note ON: Time 85200, Note Name: D#4, Velocity: 41
Note OFF: Time 85320, Note Name: D#4
Note ON: Time 85320, Note Name: C#4, Velocity: 36
Note OFF: Time 85440, Note Name: C#4
Note ON: Time 85440, Note Name: D#4, Velocity: 41
Note OFF: Time 85560, Note Name: D#4
Note ON: Time 85560, Note Name: B3, Velocity: 37
Note OFF: Time 85680, Note Name: B3
Note ON: Time 85680, Note Name: G#3, Velocity: 41
Note OFF: Time 85800, Note Name: G#3
Note ON: Time 85800, Note Name: A#3, Velocity: 38
Note OFF: Time 85920, Note Name: A#3
Note ON: Time 85920, Note Name: B3, Velocity: 41
Note OFF: Time 86040, Note Name: B3
Note ON: Time 86040, Note Name: A#3, Velocity: 35
Note OFF: Time 86160, Note Name: A#3
Note ON: Time 86160, Note Name: B3, Velocity: 41
Note OFF: Time 86280, Note Name: B3
Note ON: Time 86280, Note Name: G#3, Velocity: 35
Note OFF: Time 86400, Note Name: G#3
Note ON: Time 86400, Note Name: F#3, Velocity: 41
Note OFF: Time 86520, Note Name: F#3
Note ON: Time 86520, Note Name: G#3, Velocity: 34
Note OFF: Time 86640, Note Name: G#3
Note ON: Time 86640, Note Name: A#3, Velocity: 41
Note OFF: Time 86760, Note Name: A#3
Note ON: Time 86760, Note Name: G#3, Velocity: 36
Note OFF: Time 86880, Note Name: G#3
Note ON: Time 86880, Note Name: A#3, Velocity: 41
Note OFF: Time 87000, Note Name: A#3
Note ON: Time 87000, Note Name: F#3, Velocity: 37
Note OFF: Time 87120, Note Name: F#3
Note ON: Time 87120, Note Name: F3, Velocity: 41
Note OFF: Time 87240, Note Name: F3
Note ON: Time 87240, Note Name: F#3, Velocity: 34
Note OFF: Time 87360, Note Name: F#3
Note ON: Time 87360, Note Name: G#3, Velocity: 41
Note OFF: Time 87480, Note Name: G#3
Note ON: Time 87480, Note Name: F#3, Velocity: 36
Note OFF: Time 87600, Note Name: F#3
Note ON: Time 87600, Note Name: G#3, Velocity: 41
Note OFF: Time 87720, Note Name: G#3
Note ON: Time 87720, Note Name: F3, Velocity: 37
Note OFF: Time 87840, Note Name: F3
Note ON: Time 87840, Note Name: F#3, Velocity: 41
Note OFF: Time 87960, Note Name: F#3
Note ON: Time 87960, Note Name: G#3, Velocity: 38
Note OFF: Time 88080, Note Name: G#3
Note ON: Time 88080, Note Name: A#3, Velocity: 41
Note OFF: Time 88200, Note Name: A#3
Note ON: Time 88200, Note Name: G#3, Velocity: 35
Note OFF: Time 88320, Note Name: G#3
Note ON: Time 88320, Note Name: A#3, Velocity: 41
Note OFF: Time 88440, Note Name: A#3
Note ON: Time 88440, Note Name: F#3, Velocity: 35
Note OFF: Time 88560, Note Name: F#3
Note ON: Time 88560, Note Name: D3, Velocity: 41
Note OFF: Time 88680, Note Name: D3
Note ON: Time 88680, Note Name: D#3, Velocity: 34
Note OFF: Time 88800, Note Name: D#3
Note ON: Time 88800, Note Name: F3, Velocity: 41
Note OFF: Time 88920, Note Name: F3
Note ON: Time 88920, Note Name: D#3, Velocity: 36
Note OFF: Time 89040, Note Name: D#3
Note ON: Time 89040, Note Name: F3, Velocity: 41
Note OFF: Time 89160, Note Name: F3
Note ON: Time 89160, Note Name: D3, Velocity: 37
Note OFF: Time 89280, Note Name: D3
Note ON: Time 89280, Note Name: D#3, Velocity: 41
Note OFF: Time 89400, Note Name: D#3
Note ON: Time 89400, Note Name: F3, Velocity: 34
Note OFF: Time 89520, Note Name: F3
Note ON: Time 89520, Note Name: F#3, Velocity: 41
Note OFF: Time 89640, Note Name: F#3
Note ON: Time 89640, Note Name: F3, Velocity: 36
Note OFF: Time 89760, Note Name: F3
Note ON: Time 89760, Note Name: F#3, Velocity: 41
Note OFF: Time 89880, Note Name: F#3
Note ON: Time 89880, Note Name: D#3, Velocity: 37
Note OFF: Time 90000, Note Name: D#3
Note ON: Time 90000, Note Name: C3, Velocity: 41
Note OFF: Time 90120, Note Name: C3
Note ON: Time 90120, Note Name: D3, Velocity: 38
Note OFF: Time 90240, Note Name: D3
Note ON: Time 90240, Note Name: D#3, Velocity: 41
Note OFF: Time 90360, Note Name: D#3
Note ON: Time 90360, Note Name: D3, Velocity: 35
Note OFF: Time 90480, Note Name: D3
Note ON: Time 90480, Note Name: D#3, Velocity: 41
Note OFF: Time 90600, Note Name: D#3
Note ON: Time 90600, Note Name: B2, Velocity: 35
Note OFF: Time 90720, Note Name: B2
Note ON: Time 90720, Note Name: A#2, Velocity: 41
Note ON: Time 90840, Note Name: C3, Velocity: 34
Note OFF: Time 90960, Note Name: C3
Note ON: Time 90960, Note Name: D3, Velocity: 41
Note OFF: Time 91080, Note Name: D3
Note ON: Time 91080, Note Name: C3, Velocity: 36
Note OFF: Time 91200, Note Name: C3
Note ON: Time 91200, Note Name: A#2, Velocity: 41
Note OFF: Time 91320, Note Name: A#2
Note ON: Time 91320, Note Name: C3, Velocity: 37
Note OFF: Time 91440, Note Name: C3
Note ON: Time 91440, Note Name: D3, Velocity: 41
Note OFF: Time 91560, Note Name: D3
Note ON: Time 91560, Note Name: D#3, Velocity: 34
Note OFF: Time 91680, Note Name: D#3
Note ON: Time 91680, Note Name: F3, Velocity: 41
Note OFF: Time 91800, Note Name: F3
Note ON: Time 91800, Note Name: D#3, Velocity: 36
Note OFF: Time 91920, Note Name: D#3
Note ON: Time 91920, Note Name: D3, Velocity: 41
Note OFF: Time 92040, Note Name: D3
Note ON: Time 92040, Note Name: F3, Velocity: 37
Note OFF: Time 92160, Note Name: F3
Note ON: Time 92160, Note Name: D#3, Velocity: 41
Note OFF: Time 92280, Note Name: D#3
Note ON: Time 92280, Note Name: D3, Velocity: 38
Note OFF: Time 92390, Note Name: A#2
Note OFF: Time 92400, Note Name: D3
Note ON: Time 92400, Note Name: A#2, Velocity: 39
Note ON: Time 92400, Note Name: C3, Velocity: 41
Note OFF: Time 92520, Note Name: C3
Note ON: Time 92520, Note Name: D3, Velocity: 35
Note OFF: Time 92630, Note Name: A#2
Note OFF: Time 92640, Note Name: D3
Note ON: Time 92640, Note Name: A#2, Velocity: 39
Note ON: Time 92640, Note Name: D#3, Velocity: 41
Note OFF: Time 92760, Note Name: D#3
Note ON: Time 92760, Note Name: C3, Velocity: 35
Note OFF: Time 92870, Note Name: A#2
Note OFF: Time 92880, Note Name: C3
Note ON: Time 92880, Note Name: D3, Velocity: 41
Note ON: Time 92880, Note Name: A#2, Velocity: 41
Note OFF: Time 93000, Note Name: D3
Note ON: Time 93000, Note Name: D#3, Velocity: 34
Note OFF: Time 93120, Note Name: D#3
Note ON: Time 93120, Note Name: F3, Velocity: 41
Note OFF: Time 93240, Note Name: F3
Note ON: Time 93240, Note Name: D#3, Velocity: 36
Note OFF: Time 93360, Note Name: D#3
Note ON: Time 93360, Note Name: D3, Velocity: 41
Note OFF: Time 93480, Note Name: D3
Note ON: Time 93480, Note Name: D#3, Velocity: 37
Note OFF: Time 93600, Note Name: D#3
Note ON: Time 93600, Note Name: F3, Velocity: 41
Note OFF: Time 93720, Note Name: F3
Note ON: Time 93720, Note Name: F#3, Velocity: 34
Note OFF: Time 93840, Note Name: F#3
Note ON: Time 93840, Note Name: G#3, Velocity: 41
Note OFF: Time 93960, Note Name: G#3
Note ON: Time 93960, Note Name: F#3, Velocity: 36
Note OFF: Time 94080, Note Name: F#3
Note ON: Time 94080, Note Name: F3, Velocity: 41
Note OFF: Time 94200, Note Name: F3
Note ON: Time 94200, Note Name: G#3, Velocity: 37
Note OFF: Time 94320, Note Name: G#3
Note ON: Time 94320, Note Name: F#3, Velocity: 41
Note OFF: Time 94440, Note Name: F#3
Note ON: Time 94440, Note Name: F3, Velocity: 38
Note OFF: Time 94550, Note Name: A#2
Note OFF: Time 94560, Note Name: F3
Note ON: Time 94560, Note Name: A#2, Velocity: 39
Note ON: Time 94560, Note Name: D#3, Velocity: 41
Note OFF: Time 94680, Note Name: D#3
Note ON: Time 94680, Note Name: F3, Velocity: 35
Note OFF: Time 94790, Note Name: A#2
Note OFF: Time 94800, Note Name: F3
Note ON: Time 94800, Note Name: A#2, Velocity: 39
Note ON: Time 94800, Note Name: F#3, Velocity: 41
Note OFF: Time 94920, Note Name: F#3
Note ON: Time 94920, Note Name: D#3, Velocity: 35
Note OFF: Time 95030, Note Name: A#2
Note OFF: Time 95040, Note Name: D#3
Note ON: Time 95040, Note Name: A#2, Velocity: 39
Note ON: Time 95040, Note Name: D3, Velocity: 39
Note ON: Time 95040, Note Name: F3, Velocity: 39
Note OFF: Time 95520, Note Name: F3
Note OFF: Time 95520, Note Name: D3
Note OFF: Time 95520, Note Name: A#2
Note ON: Time 99360, Note Name: D#2, Velocity: 25
Note OFF: Time 99576, Note Name: D#2
Note ON: Time 99600, Note Name: A#3, Velocity: 20
Note ON: Time 99600, Note Name: G3, Velocity: 17
Note ON: Time 99600, Note Name: D#3, Velocity: 17
Note OFF: Time 99816, Note Name: D#3
Note OFF: Time 99816, Note Name: G3
Note OFF: Time 99816, Note Name: A#3
Note ON: Time 99840, Note Name: D#3, Velocity: 17
Note ON: Time 99840, Note Name: G3, Velocity: 17
Note ON: Time 99840, Note Name: A#3, Velocity: 20
Note OFF: Time 100056, Note Name: A#3
Note OFF: Time 100056, Note Name: G3
Note OFF: Time 100056, Note Name: D#3
Note ON: Time 100080, Note Name: D#3, Velocity: 19
Note ON: Time 100080, Note Name: G3, Velocity: 19
Note ON: Time 100080, Note Name: A#3, Velocity: 23
Note OFF: Time 100296, Note Name: A#3
Note OFF: Time 100296, Note Name: G3
Note OFF: Time 100296, Note Name: D#3
Note ON: Time 100320, Note Name: G3, Velocity: 17
Note ON: Time 100320, Note Name: D#3, Velocity: 17
Note ON: Time 100320, Note Name: A#3, Velocity: 20
Note OFF: Time 100536, Note Name: A#3
Note OFF: Time 100536, Note Name: D#3
Note OFF: Time 100536, Note Name: G3
Note ON: Time 100560, Note Name: D#3, Velocity: 17
Note ON: Time 100560, Note Name: G3, Velocity: 17
Note ON: Time 100560, Note Name: A#3, Velocity: 20
Note OFF: Time 100776, Note Name: A#3
Note OFF: Time 100776, Note Name: G3
Note OFF: Time 100776, Note Name: D#3
Note ON: Time 100800, Note Name: A#3, Velocity: 24
Note ON: Time 100800, Note Name: G3, Velocity: 20
Note ON: Time 100800, Note Name: D#3, Velocity: 20
Note OFF: Time 101016, Note Name: D#3
Note OFF: Time 101016, Note Name: G3
Note OFF: Time 101016, Note Name: A#3
Note ON: Time 101040, Note Name: D#3, Velocity: 17
Note ON: Time 101040, Note Name: G3, Velocity: 17
Note ON: Time 101040, Note Name: A#3, Velocity: 21
Note OFF: Time 101256, Note Name: A#3
Note OFF: Time 101256, Note Name: G3
Note OFF: Time 101256, Note Name: D#3
Note ON: Time 101280, Note Name: D#3, Velocity: 17
Note ON: Time 101280, Note Name: G3, Velocity: 17
Note ON: Time 101280, Note Name: A#3, Velocity: 21
Note OFF: Time 101496, Note Name: A#3
Note OFF: Time 101496, Note Name: G3
Note OFF: Time 101496, Note Name: D#3
Note ON: Time 101520, Note Name: G3, Velocity: 21
Note ON: Time 101520, Note Name: D#3, Velocity: 21
Note ON: Time 101520, Note Name: A#3, Velocity: 25
Note OFF: Time 101736, Note Name: A#3
Note OFF: Time 101736, Note Name: D#3
Note OFF: Time 101736, Note Name: G3
Note ON: Time 101760, Note Name: D#3, Velocity: 17
Note ON: Time 101760, Note Name: G3, Velocity: 17
Note ON: Time 101760, Note Name: A#3, Velocity: 20
Note OFF: Time 101976, Note Name: A#3
Note OFF: Time 101976, Note Name: G3
Note OFF: Time 101976, Note Name: D#3
Note ON: Time 102000, Note Name: A#3, Velocity: 20
Note ON: Time 102000, Note Name: G3, Velocity: 17
Note ON: Time 102000, Note Name: D#3, Velocity: 17
Note OFF: Time 102216, Note Name: D#3
Note OFF: Time 102216, Note Name: G3
Note OFF: Time 102216, Note Name: A#3
Note ON: Time 102240, Note Name: D#3, Velocity: 19
Note ON: Time 102240, Note Name: G3, Velocity: 19
Note ON: Time 102240, Note Name: A#3, Velocity: 23
Note OFF: Time 102456, Note Name: A#3
Note OFF: Time 102456, Note Name: G3
Note OFF: Time 102456, Note Name: D#3
Note ON: Time 102480, Note Name: D#3, Velocity: 17
Note ON: Time 102480, Note Name: G3, Velocity: 17
Note ON: Time 102480, Note Name: A#3, Velocity: 20
Note OFF: Time 102696, Note Name: A#3
Note OFF: Time 102696, Note Name: G3
Note OFF: Time 102696, Note Name: D#3
Note ON: Time 102720, Note Name: G3, Velocity: 17
Note ON: Time 102720, Note Name: D#3, Velocity: 17
Note ON: Time 102720, Note Name: A#3, Velocity: 20
Note OFF: Time 102936, Note Name: A#3
Note OFF: Time 102936, Note Name: D#3
Note OFF: Time 102936, Note Name: G3
Note ON: Time 102960, Note Name: D#3, Velocity: 20
Note ON: Time 102960, Note Name: G3, Velocity: 20
Note ON: Time 102960, Note Name: A#3, Velocity: 24
Note OFF: Time 103176, Note Name: A#3
Note OFF: Time 103176, Note Name: G3
Note OFF: Time 103176, Note Name: D#3
Note ON: Time 103200, Note Name: A#3, Velocity: 21
Note ON: Time 103200, Note Name: G3, Velocity: 17
Note ON: Time 103200, Note Name: D#3, Velocity: 17
Note OFF: Time 103416, Note Name: D#3
Note OFF: Time 103416, Note Name: G3
Note OFF: Time 103416, Note Name: A#3
Note ON: Time 103440, Note Name: D#3, Velocity: 17
Note ON: Time 103440, Note Name: G3, Velocity: 17
Note ON: Time 103440, Note Name: A#3, Velocity: 21
Note OFF: Time 103656, Note Name: A#3
Note OFF: Time 103656, Note Name: G3
Note OFF: Time 103656, Note Name: D#3
Note ON: Time 103680, Note Name: D3, Velocity: 21
Note ON: Time 103680, Note Name: G#3, Velocity: 21
Note ON: Time 103680, Note Name: A#3, Velocity: 25
Note OFF: Time 103896, Note Name: A#3
Note OFF: Time 103896, Note Name: G#3
Note OFF: Time 103896, Note Name: D3
Note ON: Time 103920, Note Name: G#3, Velocity: 17
Note ON: Time 103920, Note Name: D3, Velocity: 17
Note ON: Time 103920, Note Name: A#3, Velocity: 20
Note OFF: Time 104136, Note Name: A#3
Note OFF: Time 104136, Note Name: D3
Note OFF: Time 104136, Note Name: G#3
Note ON: Time 104160, Note Name: D3, Velocity: 17
Note ON: Time 104160, Note Name: G#3, Velocity: 17
Note ON: Time 104160, Note Name: A#3, Velocity: 20
Note OFF: Time 104376, Note Name: A#3
Note OFF: Time 104376, Note Name: G#3
Note OFF: Time 104376, Note Name: D3
Note ON: Time 104400, Note Name: A#3, Velocity: 23
Note ON: Time 104400, Note Name: G#3, Velocity: 19
Note ON: Time 104400, Note Name: D3, Velocity: 19
Note OFF: Time 104616, Note Name: D3
Note OFF: Time 104616, Note Name: G#3
Note OFF: Time 104616, Note Name: A#3
Note ON: Time 104640, Note Name: D3, Velocity: 17
Note ON: Time 104640, Note Name: G#3, Velocity: 17
Note ON: Time 104640, Note Name: A#3, Velocity: 20
Note OFF: Time 104856, Note Name: A#3
Note OFF: Time 104856, Note Name: G#3
Note OFF: Time 104856, Note Name: D3
Note ON: Time 104880, Note Name: D3, Velocity: 17
Note ON: Time 104880, Note Name: G#3, Velocity: 17
Note ON: Time 104880, Note Name: A#3, Velocity: 20
Note OFF: Time 105096, Note Name: A#3
Note OFF: Time 105096, Note Name: G#3
Note OFF: Time 105096, Note Name: D3
Note ON: Time 105120, Note Name: G#3, Velocity: 20
Note ON: Time 105120, Note Name: D3, Velocity: 20
Note ON: Time 105120, Note Name: A#3, Velocity: 24
Note OFF: Time 105336, Note Name: A#3
Note OFF: Time 105336, Note Name: D3
Note OFF: Time 105336, Note Name: G#3
Note ON: Time 105360, Note Name: D3, Velocity: 17
Note ON: Time 105360, Note Name: G#3, Velocity: 17
Note ON: Time 105360, Note Name: A#3, Velocity: 21
Note OFF: Time 105576, Note Name: A#3
Note OFF: Time 105576, Note Name: G#3
Note OFF: Time 105576, Note Name: D3
Note ON: Time 105600, Note Name: A#3, Velocity: 21
Note ON: Time 105600, Note Name: G#3, Velocity: 17
Note ON: Time 105600, Note Name: D3, Velocity: 17
Note OFF: Time 105816, Note Name: D3
Note OFF: Time 105816, Note Name: G#3
Note OFF: Time 105816, Note Name: A#3
Note ON: Time 105840, Note Name: F3, Velocity: 21
Note ON: Time 105840, Note Name: D3, Velocity: 21
Note ON: Time 105840, Note Name: G#3, Velocity: 21
Note ON: Time 105840, Note Name: A#3, Velocity: 25
Note OFF: Time 106056, Note Name: A#3
Note OFF: Time 106056, Note Name: F3
Note OFF: Time 106056, Note Name: D3
Note OFF: Time 106056, Note Name: G#3
Note ON: Time 106080, Note Name: A#3, Velocity: 20
Note ON: Time 106080, Note Name: F3, Velocity: 17
Note ON: Time 106080, Note Name: D3, Velocity: 17
Note ON: Time 106080, Note Name: G#3, Velocity: 17
Note OFF: Time 106296, Note Name: G#3
Note OFF: Time 106296, Note Name: A#3
Note OFF: Time 106296, Note Name: F3
Note OFF: Time 106296, Note Name: D3
Note ON: Time 106320, Note Name: F3, Velocity: 17
Note ON: Time 106320, Note Name: D3, Velocity: 17
Note ON: Time 106320, Note Name: G#3, Velocity: 17
Note ON: Time 106320, Note Name: A#3, Velocity: 20
Note OFF: Time 106536, Note Name: A#3
Note OFF: Time 106536, Note Name: F3
Note OFF: Time 106536, Note Name: D3
Note OFF: Time 106536, Note Name: G#3
Note ON: Time 106560, Note Name: G#3, Velocity: 20
Note ON: Time 106560, Note Name: A#3, Velocity: 25
Note ON: Time 106560, Note Name: F3, Velocity: 20
Note ON: Time 106560, Note Name: D3, Velocity: 20
Note OFF: Time 106776, Note Name: D3
Note OFF: Time 106776, Note Name: G#3
Note OFF: Time 106776, Note Name: A#3
Note OFF: Time 106776, Note Name: F3
Note ON: Time 106800, Note Name: F3, Velocity: 19
Note ON: Time 106800, Note Name: D3, Velocity: 19
Note ON: Time 106800, Note Name: G#3, Velocity: 19
Note ON: Time 106800, Note Name: A#3, Velocity: 23
Note OFF: Time 107016, Note Name: A#3
Note OFF: Time 107016, Note Name: F3
Note OFF: Time 107016, Note Name: D3
Note OFF: Time 107016, Note Name: G#3
Note ON: Time 107040, Note Name: G#3, Velocity: 20
Note ON: Time 107040, Note Name: F3, Velocity: 20
Note ON: Time 107040, Note Name: D3, Velocity: 20
Note ON: Time 107040, Note Name: A#3, Velocity: 24
Note OFF: Time 107256, Note Name: A#3
Note OFF: Time 107256, Note Name: G#3
Note OFF: Time 107256, Note Name: F3
Note OFF: Time 107256, Note Name: D3
Note ON: Time 107280, Note Name: F3, Velocity: 25
Note ON: Time 107280, Note Name: D3, Velocity: 25
Note ON: Time 107280, Note Name: A#3, Velocity: 30
Note ON: Time 107280, Note Name: G#3, Velocity: 25
Note OFF: Time 107496, Note Name: G#3
Note OFF: Time 107496, Note Name: F3
Note OFF: Time 107496, Note Name: D3
Note OFF: Time 107496, Note Name: A#3
Note ON: Time 107520, Note Name: G#3, Velocity: 22
Note ON: Time 107520, Note Name: D3, Velocity: 22
Note ON: Time 107520, Note Name: F3, Velocity: 22
Note ON: Time 107520, Note Name: A#3, Velocity: 27
Note OFF: Time 107736, Note Name: A#3
Note OFF: Time 107736, Note Name: G#3
Note OFF: Time 107736, Note Name: D3
Note OFF: Time 107736, Note Name: F3
Note ON: Time 107760, Note Name: F3, Velocity: 22
Note ON: Time 107760, Note Name: D3, Velocity: 22
Note ON: Time 107760, Note Name: G#3, Velocity: 22
Note ON: Time 107760, Note Name: A#3, Velocity: 28
Note OFF: Time 107976, Note Name: A#3
Note OFF: Time 107976, Note Name: F3
Note OFF: Time 107976, Note Name: D3
Note OFF: Time 107976, Note Name: G#3
Note ON: Time 108000, Note Name: G#3, Velocity: 21
Note ON: Time 108000, Note Name: D#3, Velocity: 21
Note ON: Time 108000, Note Name: A#3, Velocity: 25
Note OFF: Time 108216, Note Name: A#3
Note OFF: Time 108216, Note Name: D#3
Note OFF: Time 108216, Note Name: G#3
Note ON: Time 108240, Note Name: D#3, Velocity: 17
Note ON: Time 108240, Note Name: G#3, Velocity: 17
Note ON: Time 108240, Note Name: A#3, Velocity: 20
Note OFF: Time 108456, Note Name: A#3
Note OFF: Time 108456, Note Name: G#3
Note OFF: Time 108456, Note Name: D#3
Note ON: Time 108480, Note Name: A#3, Velocity: 20
Note ON: Time 108480, Note Name: G#3, Velocity: 17
Note ON: Time 108480, Note Name: D#3, Velocity: 17
Note OFF: Time 108696, Note Name: D#3
Note OFF: Time 108696, Note Name: G#3
Note OFF: Time 108696, Note Name: A#3
Note ON: Time 108720, Note Name: D#3, Velocity: 19
Note ON: Time 108720, Note Name: G3, Velocity: 19
Note ON: Time 108720, Note Name: A#3, Velocity: 23
Note OFF: Time 108936, Note Name: A#3
Note OFF: Time 108936, Note Name: G3
Note OFF: Time 108936, Note Name: D#3
Note ON: Time 108960, Note Name: D#3, Velocity: 17
Note ON: Time 108960, Note Name: G3, Velocity: 17
Note ON: Time 108960, Note Name: A#3, Velocity: 20
Note OFF: Time 109176, Note Name: A#3
Note OFF: Time 109176, Note Name: G3
Note OFF: Time 109176, Note Name: D#3
Note ON: Time 109200, Note Name: G3, Velocity: 17
Note ON: Time 109200, Note Name: D#3, Velocity: 17
Note ON: Time 109200, Note Name: A#3, Velocity: 20
Note OFF: Time 109416, Note Name: A#3
Note OFF: Time 109416, Note Name: D#3
Note OFF: Time 109416, Note Name: G3
Note ON: Time 109440, Note Name: D#3, Velocity: 36
Note OFF: Time 109680, Note Name: D#3
Note ON: Time 109680, Note Name: A#2, Velocity: 40
Note OFF: Time 109920, Note Name: A#2
Note ON: Time 109920, Note Name: G#2, Velocity: 43
Note OFF: Time 110160, Note Name: G#2
Note ON: Time 110160, Note Name: G2, Velocity: 48
Note OFF: Time 110400, Note Name: G2
Note ON: Time 110400, Note Name: D#3, Velocity: 35
Note ON: Time 110400, Note Name: A#2, Velocity: 29
Note ON: Time 110400, Note Name: G2, Velocity: 29
Note OFF: Time 110616, Note Name: G2
Note OFF: Time 110616, Note Name: A#2
Note OFF: Time 110616, Note Name: D#3
Note ON: Time 110640, Note Name: G2, Velocity: 29
Note ON: Time 110640, Note Name: A#2, Velocity: 29
Note ON: Time 110640, Note Name: D#3, Velocity: 35
Note OFF: Time 110856, Note Name: D#3
Note OFF: Time 110856, Note Name: A#2
Note OFF: Time 110856, Note Name: G2
Note ON: Time 110880, Note Name: D#3, Velocity: 35
Note ON: Time 110880, Note Name: G2, Velocity: 29
Note ON: Time 110880, Note Name: A#2, Velocity: 29
Note OFF: Time 111096, Note Name: A#2
Note OFF: Time 111096, Note Name: G2
Note OFF: Time 111096, Note Name: D#3
Note ON: Time 111120, Note Name: G2, Velocity: 27
Note ON: Time 111120, Note Name: A#2, Velocity: 27
Note ON: Time 111120, Note Name: D#3, Velocity: 32
Note OFF: Time 111336, Note Name: D#3
Note OFF: Time 111336, Note Name: A#2
Note OFF: Time 111336, Note Name: G2
Note ON: Time 111360, Note Name: G2, Velocity: 27
Note ON: Time 111360, Note Name: D#3, Velocity: 32
Note ON: Time 111360, Note Name: A#2, Velocity: 27
Note OFF: Time 111576, Note Name: A#2
Note OFF: Time 111576, Note Name: D#3
Note OFF: Time 111576, Note Name: G2
Note ON: Time 111600, Note Name: D#3, Velocity: 35
Note ON: Time 111600, Note Name: A#2, Velocity: 29
Note ON: Time 111600, Note Name: G2, Velocity: 29
Note OFF: Time 111816, Note Name: G2
Note OFF: Time 111816, Note Name: A#2
Note OFF: Time 111816, Note Name: D#3
Note ON: Time 111840, Note Name: G2, Velocity: 25
Note ON: Time 111840, Note Name: A#2, Velocity: 25
Note ON: Time 111840, Note Name: D#3, Velocity: 30
Note OFF: Time 112056, Note Name: D#3
Note OFF: Time 112056, Note Name: A#2
Note OFF: Time 112056, Note Name: G2
Note ON: Time 112080, Note Name: D#3, Velocity: 30
Note ON: Time 112080, Note Name: G2, Velocity: 25
Note ON: Time 112080, Note Name: A#2, Velocity: 25
Note OFF: Time 112296, Note Name: A#2
Note OFF: Time 112296, Note Name: G2
Note OFF: Time 112296, Note Name: D#3
Note ON: Time 112320, Note Name: G#2, Velocity: 32
Note ON: Time 112320, Note Name: C3, Velocity: 34
Note ON: Time 112320, Note Name: D#3, Velocity: 48
Note OFF: Time 112560, Note Name: D#3
Note OFF: Time 112560, Note Name: C3
Note OFF: Time 112560, Note Name: G#2
Note ON: Time 112560, Note Name: G#2, Velocity: 29
Note ON: Time 112560, Note Name: D#3, Velocity: 35
Note ON: Time 112560, Note Name: C3, Velocity: 29
Note OFF: Time 112776, Note Name: C3
Note OFF: Time 112776, Note Name: D#3
Note OFF: Time 112776, Note Name: G#2
Note ON: Time 112800, Note Name: D#3, Velocity: 35
Note ON: Time 112800, Note Name: C3, Velocity: 29
Note ON: Time 112800, Note Name: G#2, Velocity: 29
Note OFF: Time 113016, Note Name: G#2
Note OFF: Time 113016, Note Name: C3
Note OFF: Time 113016, Note Name: D#3
Note ON: Time 113040, Note Name: G#2, Velocity: 34
Note ON: Time 113040, Note Name: C3, Velocity: 34
Note ON: Time 113040, Note Name: E3, Velocity: 41
Note OFF: Time 113256, Note Name: E3
Note OFF: Time 113256, Note Name: C3
Note OFF: Time 113256, Note Name: G#2
Note ON: Time 113280, Note Name: E3, Velocity: 35
Note ON: Time 113280, Note Name: G#2, Velocity: 29
Note ON: Time 113280, Note Name: C3, Velocity: 29
Note OFF: Time 113496, Note Name: C3
Note OFF: Time 113496, Note Name: G#2
Note OFF: Time 113496, Note Name: E3
Note ON: Time 113520, Note Name: G#2, Velocity: 33
Note ON: Time 113520, Note Name: C3, Velocity: 33
Note ON: Time 113520, Note Name: E3, Velocity: 39
Note OFF: Time 113736, Note Name: E3
Note OFF: Time 113736, Note Name: C3
Note OFF: Time 113736, Note Name: G#2
Note ON: Time 113760, Note Name: G#2, Velocity: 37
Note ON: Time 113760, Note Name: F3, Velocity: 44
Note ON: Time 113760, Note Name: C3, Velocity: 37
Note OFF: Time 113976, Note Name: C3
Note OFF: Time 113976, Note Name: F3
Note OFF: Time 113976, Note Name: G#2
Note ON: Time 114000, Note Name: F3, Velocity: 36
Note ON: Time 114000, Note Name: C3, Velocity: 30
Note ON: Time 114000, Note Name: G#2, Velocity: 30
Note OFF: Time 114216, Note Name: G#2
Note OFF: Time 114216, Note Name: C3
Note OFF: Time 114216, Note Name: F3
Note ON: Time 114240, Note Name: G#2, Velocity: 30
Note ON: Time 114240, Note Name: C3, Velocity: 30
Note ON: Time 114240, Note Name: F3, Velocity: 36
Note OFF: Time 114456, Note Name: F3
Note OFF: Time 114456, Note Name: C3
Note OFF: Time 114456, Note Name: G#2
Note ON: Time 114480, Note Name: G3, Velocity: 35
Note ON: Time 114480, Note Name: A#2, Velocity: 29
Note ON: Time 114480, Note Name: D#3, Velocity: 29
Note OFF: Time 114696, Note Name: D#3
Note OFF: Time 114696, Note Name: A#2
Note OFF: Time 114696, Note Name: G3
Note ON: Time 114720, Note Name: A#2, Velocity: 23
Note ON: Time 114720, Note Name: D#3, Velocity: 23
Note ON: Time 114720, Note Name: G3, Velocity: 28
Note OFF: Time 114936, Note Name: G3
Note OFF: Time 114936, Note Name: D#3
Note OFF: Time 114936, Note Name: A#2
Note ON: Time 114960, Note Name: A#2, Velocity: 23
Note ON: Time 114960, Note Name: G3, Velocity: 28
Note ON: Time 114960, Note Name: D#3, Velocity: 23
Note OFF: Time 115176, Note Name: D#3
Note OFF: Time 115176, Note Name: G3
Note OFF: Time 115176, Note Name: A#2
Note ON: Time 115200, Note Name: G3, Velocity: 32
Note ON: Time 115200, Note Name: D#3, Velocity: 26
Note ON: Time 115200, Note Name: A#2, Velocity: 26
Note OFF: Time 115416, Note Name: A#2
Note OFF: Time 115416, Note Name: D#3
Note OFF: Time 115416, Note Name: G3
Note ON: Time 115440, Note Name: A#2, Velocity: 23
Note ON: Time 115440, Note Name: D#3, Velocity: 23
Note ON: Time 115440, Note Name: G3, Velocity: 27
Note OFF: Time 115656, Note Name: G3
Note OFF: Time 115656, Note Name: D#3
Note OFF: Time 115656, Note Name: A#2
Note ON: Time 115680, Note Name: G3, Velocity: 27
Note ON: Time 115680, Note Name: A#2, Velocity: 22
Note ON: Time 115680, Note Name: D#3, Velocity: 22
Note OFF: Time 115896, Note Name: D#3
Note OFF: Time 115896, Note Name: A#2
Note OFF: Time 115896, Note Name: G3
Note ON: Time 115920, Note Name: A#2, Velocity: 25
Note ON: Time 115920, Note Name: F3, Velocity: 25
Note ON: Time 115920, Note Name: G#3, Velocity: 31
Note OFF: Time 116136, Note Name: G#3
Note OFF: Time 116136, Note Name: F3
Note OFF: Time 116136, Note Name: A#2
Note ON: Time 116160, Note Name: A#2, Velocity: 22
Note ON: Time 116160, Note Name: G#3, Velocity: 26
Note ON: Time 116160, Note Name: F3, Velocity: 22
Note OFF: Time 116376, Note Name: F3
Note OFF: Time 116376, Note Name: G#3
Note OFF: Time 116376, Note Name: A#2
Note ON: Time 116400, Note Name: G#3, Velocity: 26
Note ON: Time 116400, Note Name: F3, Velocity: 21
Note ON: Time 116400, Note Name: A#2, Velocity: 21
Note OFF: Time 116616, Note Name: A#2
Note OFF: Time 116616, Note Name: F3
Note OFF: Time 116616, Note Name: G#3
Note ON: Time 116640, Note Name: D#3, Velocity: 26
Note ON: Time 116640, Note Name: G3, Velocity: 31
Note OFF: Time 117120, Note Name: G3
Note OFF: Time 117120, Note Name: D#3
Note ON: Time 118080, Note Name: A#2, Velocity: 26
Note ON: Time 118080, Note Name: A#3, Velocity: 31
Note OFF: Time 118560, Note Name: A#3
Note ON: Time 118560, Note Name: G#3, Velocity: 29
Note OFF: Time 118800, Note Name: G#3
Note OFF: Time 118800, Note Name: A#2
Note ON: Time 118800, Note Name: G3, Velocity: 31
Note ON: Time 118800, Note Name: D#3, Velocity: 26
Note OFF: Time 119280, Note Name: D#3
Note OFF: Time 119280, Note Name: G3
Note ON: Time 120240, Note Name: A#2, Velocity: 31
Note ON: Time 120240, Note Name: A#1, Velocity: 26
Note OFF: Time 120720, Note Name: A#2
Note ON: Time 120720, Note Name: G#2, Velocity: 22
Note ON: Time 120720, Note Name: F3, Velocity: 27
Note OFF: Time 120960, Note Name: F3
Note OFF: Time 120960, Note Name: G#2
Note OFF: Time 120960, Note Name: A#1
Note ON: Time 120960, Note Name: D#2, Velocity: 27
Note ON: Time 120960, Note Name: G2, Velocity: 27
Note OFF: Time 121440, Note Name: G2
Note OFF: Time 121440, Note Name: D#2
Note ON: Time 123120, Note Name: D#2, Velocity: 32
Note OFF: Time 123360, Note Name: D#2
Note ON: Time 123360, Note Name: G2, Velocity: 32
Note OFF: Time 123600, Note Name: G2
Note ON: Time 123600, Note Name: A#2, Velocity: 32
Note OFF: Time 123840, Note Name: A#2
Note ON: Time 123840, Note Name: D#3, Velocity: 36
Note OFF: Time 124080, Note Name: D#3
Note ON: Time 124080, Note Name: G3, Velocity: 38
Note OFF: Time 124320, Note Name: G3
Note ON: Time 124320, Note Name: A#3, Velocity: 40
Note OFF: Time 124550, Note Name: A#3
Note ON: Time 124560, Note Name: A#2, Velocity: 36
Note ON: Time 124560, Note Name: A#3, Velocity: 43
Note OFF: Time 125040, Note Name: A#3
Note OFF: Time 125040, Note Name: A#2
Note ON: Time 125040, Note Name: A#2, Velocity: 33
Note ON: Time 125040, Note Name: G#3, Velocity: 39
Note OFF: Time 125270, Note Name: G#3
Note OFF: Time 125270, Note Name: A#2
Note ON: Time 125280, Note Name: G#3, Velocity: 38
Note ON: Time 125280, Note Name: D#3, Velocity: 32
Note OFF: Time 126000, Note Name: G#3
Note ON: Time 126000, Note Name: G3, Velocity: 30
Note OFF: Time 126240, Note Name: G3
Note OFF: Time 126240, Note Name: D#3
Note ON: Time 127440, Note Name: D#2, Velocity: 37
Note OFF: Time 127680, Note Name: D#2
Note ON: Time 127680, Note Name: F#2, Velocity: 40
Note OFF: Time 127920, Note Name: F#2
Note ON: Time 127920, Note Name: A#2, Velocity: 44
Note OFF: Time 128160, Note Name: A#2
Note ON: Time 128160, Note Name: D#3, Velocity: 49
Note OFF: Time 128400, Note Name: D#3
Note ON: Time 128400, Note Name: F#3, Velocity: 53
Note OFF: Time 128640, Note Name: F#3
Note ON: Time 128640, Note Name: A#3, Velocity: 57
Note OFF: Time 128870, Note Name: A#3
Note ON: Time 128880, Note Name: D#4, Velocity: 62
Note OFF: Time 129120, Note Name: D#4
Note ON: Time 129120, Note Name: B3, Velocity: 58
Note OFF: Time 129360, Note Name: B3
Note ON: Time 129360, Note Name: A#3, Velocity: 54
Note OFF: Time 129590, Note Name: A#3
Note ON: Time 129600, Note Name: G#3, Velocity: 53
Note OFF: Time 130320, Note Name: G#3
Note ON: Time 130320, Note Name: F3, Velocity: 43
Note OFF: Time 131040, Note Name: F3
Note ON: Time 131040, Note Name: F#3, Velocity: 40
Note OFF: Time 131760, Note Name: F#3
Note ON: Time 131760, Note Name: B2, Velocity: 32
Note OFF: Time 132480, Note Name: B2
Note ON: Time 132480, Note Name: C#3, Velocity: 32
Note OFF: Time 133200, Note Name: C#3
Note ON: Time 133200, Note Name: C#2, Velocity: 32
Note OFF: Time 133920, Note Name: C#2
Note ON: Time 133920, Note Name: D2, Velocity: 53
Note OFF: Time 134640, Note Name: D2
Note ON: Time 134640, Note Name: D3, Velocity: 43
Note OFF: Time 135360, Note Name: D3
Note ON: Time 135360, Note Name: D#3, Velocity: 40
Note OFF: Time 136080, Note Name: D#3
Note ON: Time 136080, Note Name: G#2, Velocity: 32
Note OFF: Time 136800, Note Name: G#2
Note ON: Time 136800, Note Name: A2, Velocity: 32
Note OFF: Time 137520, Note Name: A2
Note ON: Time 137520, Note Name: A#2, Velocity: 32
Note OFF: Time 138240, Note Name: A#2
Note ON: Time 138240, Note Name: D#2, Velocity: 35
Note ON: Time 138480, Note Name: D#3, Velocity: 29
Note OFF: Time 138696, Note Name: D#3
Note ON: Time 138720, Note Name: D#3, Velocity: 29
Note OFF: Time 138936, Note Name: D#3
Note ON: Time 138960, Note Name: D#3, Velocity: 32
Note OFF: Time 139176, Note Name: D#3
Note ON: Time 139200, Note Name: D#3, Velocity: 29
Note OFF: Time 139416, Note Name: D#3
Note ON: Time 139440, Note Name: D#3, Velocity: 29
Note OFF: Time 139656, Note Name: D#3
Note ON: Time 139680, Note Name: D#3, Velocity: 32
Note OFF: Time 139896, Note Name: D#3
Note ON: Time 139920, Note Name: D#3, Velocity: 27
Note OFF: Time 140136, Note Name: D#3
Note ON: Time 140160, Note Name: D#3, Velocity: 27
Note OFF: Time 140376, Note Name: D#3
Note OFF: Time 140400, Note Name: D#2
Note ON: Time 140400, Note Name: D#3, Velocity: 32
Note OFF: Time 140616, Note Name: D#3
Note ON: Time 140640, Note Name: D#3, Velocity: 28
Note OFF: Time 140856, Note Name: D#3
Note ON: Time 140880, Note Name: D#3, Velocity: 28
Note OFF: Time 141096, Note Name: D#3
Note ON: Time 141120, Note Name: D#3, Velocity: 32
Note OFF: Time 141336, Note Name: D#3
Note ON: Time 141360, Note Name: D#3, Velocity: 28
Note OFF: Time 141576, Note Name: D#3
Note ON: Time 141600, Note Name: D#3, Velocity: 28
Note OFF: Time 141816, Note Name: D#3
Note ON: Time 141840, Note Name: D#3, Velocity: 32
Note OFF: Time 142056, Note Name: D#3
Note ON: Time 142080, Note Name: D#3, Velocity: 28
Note OFF: Time 142296, Note Name: D#3
Note ON: Time 142320, Note Name: D#3, Velocity: 28
Note OFF: Time 142536, Note Name: D#3
Note ON: Time 142560, Note Name: D#3, Velocity: 32
Note OFF: Time 142776, Note Name: D#3
Note ON: Time 142800, Note Name: D#3, Velocity: 28
Note OFF: Time 143016, Note Name: D#3
Note ON: Time 143040, Note Name: D#3, Velocity: 28
Note OFF: Time 143256, Note Name: D#3
Note ON: Time 143280, Note Name: D#3, Velocity: 32
Note OFF: Time 143496, Note Name: D#3
Note ON: Time 143520, Note Name: D#3, Velocity: 28
Note OFF: Time 143736, Note Name: D#3
Note ON: Time 143760, Note Name: D#3, Velocity: 28
Note OFF: Time 143976, Note Name: D#3
Note ON: Time 144000, Note Name: D#3, Velocity: 32
Note OFF: Time 144216, Note Name: D#3
Note ON: Time 144240, Note Name: D#3, Velocity: 28
Note OFF: Time 144456, Note Name: D#3
Note ON: Time 144480, Note Name: D#3, Velocity: 28
Note OFF: Time 144696, Note Name: D#3
Note ON: Time 144720, Note Name: D#3, Velocity: 32
Note OFF: Time 144936, Note Name: D#3
Note ON: Time 144960, Note Name: D#3, Velocity: 28
Note OFF: Time 145176, Note Name: D#3
Note ON: Time 145200, Note Name: D#3, Velocity: 28
Note OFF: Time 145416, Note Name: D#3
Note ON: Time 145440, Note Name: D#3, Velocity: 32
Note OFF: Time 145656, Note Name: D#3
Note ON: Time 145680, Note Name: D#3, Velocity: 28
Note OFF: Time 145896, Note Name: D#3
Note ON: Time 145920, Note Name: D#3, Velocity: 28
Note OFF: Time 146136, Note Name: D#3
Note ON: Time 146160, Note Name: D#3, Velocity: 32
Note OFF: Time 146376, Note Name: D#3
Note ON: Time 146400, Note Name: D#3, Velocity: 28
Note OFF: Time 146616, Note Name: D#3
Note ON: Time 146640, Note Name: D#3, Velocity: 28
Note OFF: Time 146856, Note Name: D#3
Note ON: Time 146880, Note Name: D#3, Velocity: 32
Note OFF: Time 147360, Note Name: D#3
Note ON: Time 147600, Note Name: D#4, Velocity: 28
Note ON: Time 147600, Note Name: A#3, Velocity: 23
Note ON: Time 147600, Note Name: G3, Velocity: 23
Note OFF: Time 148080, Note Name: G3
Note OFF: Time 148080, Note Name: A#3
Note OFF: Time 148080, Note Name: D#4
Note ON: Time 148320, Note Name: G4, Velocity: 23
Note ON: Time 148320, Note Name: A#4, Velocity: 23
Note ON: Time 148320, Note Name: D#5, Velocity: 28
Note OFF: Time 148800, Note Name: D#5
Note OFF: Time 148800, Note Name: A#4
Note OFF: Time 148800, Note Name: G4
Note ON: Time 149040, Note Name: G#4, Velocity: 23
Note ON: Time 149040, Note Name: C5, Velocity: 23
Note ON: Time 149040, Note Name: D#5, Velocity: 28
Note OFF: Time 149520, Note Name: D#5
Note OFF: Time 149520, Note Name: C5
Note OFF: Time 149520, Note Name: G#4
Note ON: Time 149760, Note Name: D#4, Velocity: 28
Note ON: Time 149760, Note Name: C4, Velocity: 23
Note ON: Time 149760, Note Name: G#3, Velocity: 23
Note OFF: Time 150240, Note Name: G#3
Note OFF: Time 150240, Note Name: C4
Note OFF: Time 150240, Note Name: D#4
Note ON: Time 150480, Note Name: A3, Velocity: 23
Note ON: Time 150480, Note Name: D#4, Velocity: 28
Note ON: Time 150480, Note Name: C4, Velocity: 23
Note OFF: Time 150960, Note Name: C4
Note OFF: Time 150960, Note Name: D#4
Note OFF: Time 150960, Note Name: A3
Note ON: Time 151200, Note Name: A#3, Velocity: 35
Note ON: Time 151440, Note Name: G4, Velocity: 29
Note ON: Time 151440, Note Name: D#4, Velocity: 24
Note OFF: Time 151680, Note Name: D#4
Note OFF: Time 151680, Note Name: G4
Note ON: Time 151680, Note Name: G4, Velocity: 30
Note ON: Time 151680, Note Name: D#4, Velocity: 25
Note OFF: Time 151920, Note Name: D#4
Note OFF: Time 151920, Note Name: G4
Note ON: Time 151920, Note Name: D#4, Velocity: 31
Note ON: Time 151920, Note Name: G4, Velocity: 38
Note OFF: Time 152160, Note Name: G4
Note OFF: Time 152160, Note Name: D#4
Note ON: Time 152160, Note Name: D#4, Velocity: 35
Note ON: Time 152160, Note Name: G4, Velocity: 42
Note OFF: Time 152400, Note Name: G4
Note OFF: Time 152400, Note Name: D#4
Note ON: Time 152400, Note Name: D#4, Velocity: 39
Note ON: Time 152400, Note Name: G4, Velocity: 46
Note OFF: Time 152630, Note Name: A#3
Note OFF: Time 152640, Note Name: G4
Note OFF: Time 152640, Note Name: D#4
Note ON: Time 152640, Note Name: A#3, Velocity: 37
Note ON: Time 152640, Note Name: G#4, Velocity: 44
Note ON: Time 152640, Note Name: D4, Velocity: 37
Note OFF: Time 152880, Note Name: D4
Note OFF: Time 152880, Note Name: G#4
Note ON: Time 152880, Note Name: D4, Velocity: 33
Note ON: Time 152880, Note Name: G#4, Velocity: 39
Note OFF: Time 153120, Note Name: G#4
Note OFF: Time 153120, Note Name: D4
Note ON: Time 153120, Note Name: D4, Velocity: 32
Note ON: Time 153120, Note Name: G#4, Velocity: 38
Note OFF: Time 153360, Note Name: G#4
Note OFF: Time 153360, Note Name: D4
Note OFF: Time 153360, Note Name: A#3
Note ON: Time 153360, Note Name: G4, Velocity: 40
Note ON: Time 153360, Note Name: D#4, Velocity: 38
Note OFF: Time 153840, Note Name: D#4
Note OFF: Time 153840, Note Name: G4
Note ON: Time 155520, Note Name: A#2, Velocity: 35
Note ON: Time 155760, Note Name: G3, Velocity: 29
Note ON: Time 155760, Note Name: D#3, Velocity: 24
Note OFF: Time 156000, Note Name: D#3
Note OFF: Time 156000, Note Name: G3
Note ON: Time 156000, Note Name: G3, Velocity: 32
Note ON: Time 156000, Note Name: D#3, Velocity: 27
Note OFF: Time 156240, Note Name: D#3
Note OFF: Time 156240, Note Name: G3
Note ON: Time 156240, Note Name: D#3, Velocity: 35
Note ON: Time 156240, Note Name: G3, Velocity: 43
Note OFF: Time 156480, Note Name: G3
Note OFF: Time 156480, Note Name: D#3
Note ON: Time 156480, Note Name: D#3, Velocity: 41
Note ON: Time 156480, Note Name: G3, Velocity: 49
Note OFF: Time 156720, Note Name: G3
Note OFF: Time 156720, Note Name: D#3
Note ON: Time 156720, Note Name: D#3, Velocity: 47
Note ON: Time 156720, Note Name: G3, Velocity: 55
Note OFF: Time 156950, Note Name: A#2
Note OFF: Time 156960, Note Name: G3
Note OFF: Time 156960, Note Name: D#3
Note ON: Time 156960, Note Name: A#2, Velocity: 45
Note ON: Time 156960, Note Name: G#3, Velocity: 62
Note ON: Time 156960, Note Name: D3, Velocity: 52
Note OFF: Time 157200, Note Name: D3
Note OFF: Time 157200, Note Name: G#3
Note ON: Time 157200, Note Name: D3, Velocity: 33
Note ON: Time 157200, Note Name: G#3, Velocity: 39
Note OFF: Time 157440, Note Name: G#3
Note OFF: Time 157440, Note Name: D3
Note ON: Time 157440, Note Name: D3, Velocity: 32
Note ON: Time 157440, Note Name: G#3, Velocity: 38
Note OFF: Time 157680, Note Name: G#3
Note OFF: Time 157680, Note Name: D3
Note OFF: Time 157680, Note Name: A#2
Note ON: Time 157680, Note Name: D#3, Velocity: 44
Note OFF: Time 157920, Note Name: D#3
Note ON: Time 157920, Note Name: G3, Velocity: 39
Note OFF: Time 158160, Note Name: G3
Note ON: Time 158160, Note Name: A#3, Velocity: 39
Note OFF: Time 158400, Note Name: A#3
Note ON: Time 158400, Note Name: D#4, Velocity: 44
Note OFF: Time 158640, Note Name: D#4
Note ON: Time 158640, Note Name: G4, Velocity: 38
Note OFF: Time 158880, Note Name: G4
Note ON: Time 158880, Note Name: A4, Velocity: 38
Note OFF: Time 159120, Note Name: A4
Note ON: Time 159120, Note Name: A#4, Velocity: 44
Note OFF: Time 159600, Note Name: A#4
Note ON: Time 159600, Note Name: F4, Velocity: 44
Note ON: Time 159600, Note Name: A#3, Velocity: 37
Note OFF: Time 159780, Note Name: F4
Note ON: Time 159780, Note Name: G#4, Velocity: 40
Note OFF: Time 159840, Note Name: G#4
Note OFF: Time 159840, Note Name: A#3
Note ON: Time 159840, Note Name: D#2, Velocity: 44
Note OFF: Time 160080, Note Name: D#2
Note ON: Time 160080, Note Name: G2, Velocity: 39
Note OFF: Time 160320, Note Name: G2
Note ON: Time 160320, Note Name: A#2, Velocity: 39
Note OFF: Time 160560, Note Name: A#2
Note ON: Time 160560, Note Name: D#3, Velocity: 44
Note OFF: Time 160800, Note Name: D#3
Note ON: Time 160800, Note Name: G3, Velocity: 38
Note OFF: Time 161040, Note Name: G3
Note ON: Time 161040, Note Name: A3, Velocity: 34
Note OFF: Time 161280, Note Name: A3
Note ON: Time 161280, Note Name: A#3, Velocity: 39
Note OFF: Time 161760, Note Name: A#3
Note ON: Time 161760, Note Name: F3, Velocity: 39
Note ON: Time 161760, Note Name: A#2, Velocity: 33
Note OFF: Time 161940, Note Name: F3
Note ON: Time 161940, Note Name: G#3, Velocity: 36
Note OFF: Time 162000, Note Name: G#3
Note OFF: Time 162000, Note Name: A#2
Note ON: Time 162000, Note Name: D#3, Velocity: 34
Note ON: Time 162000, Note Name: G3, Velocity: 40
Note OFF: Time 162240, Note Name: G3
Note OFF: Time 162240, Note Name: D#3
Note ON: Time 162240, Note Name: A#2, Velocity: 33
Note ON: Time 162240, Note Name: F3, Velocity: 39
Note OFF: Time 162600, Note Name: F3
Note ON: Time 162600, Note Name: G#3, Velocity: 34
Note OFF: Time 162720, Note Name: G#3
Note OFF: Time 162720, Note Name: A#2
Note ON: Time 162720, Note Name: D#3, Velocity: 34
Note ON: Time 162720, Note Name: G3, Velocity: 40
Note OFF: Time 162960, Note Name: G3
Note OFF: Time 162960, Note Name: D#3
Note ON: Time 162960, Note Name: A#2, Velocity: 33
Note ON: Time 162960, Note Name: F3, Velocity: 39
Note OFF: Time 163320, Note Name: F3
Note ON: Time 163320, Note Name: G#3, Velocity: 34
Note OFF: Time 163440, Note Name: G#3
Note OFF: Time 163440, Note Name: A#2
Note ON: Time 163440, Note Name: D#3, Velocity: 34
Note ON: Time 163440, Note Name: G3, Velocity: 40
Note OFF: Time 163680, Note Name: G3
Note OFF: Time 163680, Note Name: D#3
Note ON: Time 163680, Note Name: A#2, Velocity: 38
Note ON: Time 163680, Note Name: F3, Velocity: 46
Note OFF: Time 163800, Note Name: F3
Note ON: Time 163800, Note Name: E3, Velocity: 43
Note OFF: Time 163920, Note Name: E3
Note OFF: Time 163920, Note Name: A#2
Note ON: Time 163920, Note Name: A#2, Velocity: 38
Note ON: Time 163920, Note Name: F3, Velocity: 51
Note OFF: Time 164040, Note Name: F3
Note ON: Time 164040, Note Name: D3, Velocity: 47
Note OFF: Time 164160, Note Name: D3
Note OFF: Time 164160, Note Name: A#2
Note ON: Time 164280, Note Name: D#2, Velocity: 26
Note ON: Time 164280, Note Name: D3, Velocity: 31
Note ON: Time 164280, Note Name: A#2, Velocity: 26
Note OFF: Time 164880, Note Name: D3
Note ON: Time 164880, Note Name: D#3, Velocity: 25
Note OFF: Time 165360, Note Name: D#3
Note OFF: Time 165360, Note Name: A#2
Note OFF: Time 165360, Note Name: D#2
Track 3: Pedale
Track 4: Beethoven: Grande Sonate Opus 22 - 2. movement
Track 5: Copyright  2009 by Bernd Krueger
Track 6: http://www.piano-midi.de/
Track 7: Edition: 2012-05-28
Track 8: Spur 8
Track 9: Spur 9
Track 10: Spur 10
Track 11: Spur 11
Track 12: Spur 12
Track 13: Spur 13
Track 14: Spur 14
Track 15: Spur 15
Track 16: Spur 16
