Processing beethoven_opus10_3.mid...

Track 0: Sonate Opus 10 No. 1 3. Satz
Track 1: Piano right
Note ON: Time 720, Note Name: C4, Velocity: 40
Note OFF: Time 960, Note Name: C4
Note ON: Time 960, Note Name: B3, Velocity: 45
Note OFF: Time 1200, Note Name: B3
Note ON: Time 1200, Note Name: C4, Velocity: 40
Note OFF: Time 1440, Note Name: C4
Note ON: Time 1440, Note Name: F4, Velocity: 45
Note OFF: Time 1560, Note Name: F4
Note ON: Time 1680, Note Name: F4, Velocity: 38
Note OFF: Time 1800, Note Name: F4
Note ON: Time 1920, Note Name: D#4, Velocity: 45
Note OFF: Time 2400, Note Name: D#4
Note ON: Time 2640, Note Name: C4, Velocity: 40
Note OFF: Time 2880, Note Name: C4
Note ON: Time 2880, Note Name: B3, Velocity: 45
Note OFF: Time 3120, Note Name: B3
Note ON: Time 3120, Note Name: C4, Velocity: 40
Note OFF: Time 3360, Note Name: C4
Note ON: Time 3360, Note Name: G#4, Velocity: 45
Note OFF: Time 3480, Note Name: G#4
Note ON: Time 3600, Note Name: G#4, Velocity: 38
Note OFF: Time 3720, Note Name: G#4
Note ON: Time 3840, Note Name: G4, Velocity: 45
Note OFF: Time 4320, Note Name: G4
Note ON: Time 4560, Note Name: C4, Velocity: 40
Note OFF: Time 4800, Note Name: C4
Note ON: Time 4800, Note Name: B3, Velocity: 45
Note OFF: Time 5040, Note Name: B3
Note ON: Time 5040, Note Name: C4, Velocity: 40
Note OFF: Time 5280, Note Name: C4
Note ON: Time 5280, Note Name: C5, Velocity: 45
Note OFF: Time 5400, Note Name: C5
Note ON: Time 5520, Note Name: C5, Velocity: 38
Note OFF: Time 5640, Note Name: C5
Note ON: Time 5760, Note Name: C5, Velocity: 45
Note OFF: Time 6000, Note Name: C5
Note ON: Time 6000, Note Name: D5, Velocity: 45
Note OFF: Time 6060, Note Name: D5
Note ON: Time 6060, Note Name: C5, Velocity: 45
Note OFF: Time 6120, Note Name: C5
Note ON: Time 6120, Note Name: B4, Velocity: 40
Note OFF: Time 6180, Note Name: B4
Note ON: Time 6180, Note Name: C5, Velocity: 45
Note OFF: Time 6240, Note Name: C5
Note ON: Time 6240, Note Name: D#5, Velocity: 50
Note OFF: Time 6480, Note Name: D#5
Note ON: Time 6480, Note Name: D5, Velocity: 45
Note OFF: Time 6720, Note Name: D5
Note ON: Time 6720, Note Name: F5, Velocity: 56
Note OFF: Time 6960, Note Name: F5
Note ON: Time 6960, Note Name: D#5, Velocity: 53
Note OFF: Time 7200, Note Name: D#5
Note ON: Time 7200, Note Name: D5, Velocity: 50
Note OFF: Time 7440, Note Name: D5
Note ON: Time 7440, Note Name: C5, Velocity: 47
Note OFF: Time 7680, Note Name: C5
Note ON: Time 7680, Note Name: B4, Velocity: 51
Note OFF: Time 8160, Note Name: B4
Note ON: Time 8400, Note Name: G3, Velocity: 40
Note OFF: Time 8640, Note Name: G3
Note ON: Time 8640, Note Name: F#3, Velocity: 45
Note OFF: Time 8880, Note Name: F#3
Note ON: Time 8880, Note Name: G3, Velocity: 40
Note OFF: Time 9120, Note Name: G3
Note ON: Time 9120, Note Name: C4, Velocity: 45
Note OFF: Time 9240, Note Name: C4
Note ON: Time 9360, Note Name: C4, Velocity: 38
Note OFF: Time 9480, Note Name: C4
Note ON: Time 9600, Note Name: B3, Velocity: 45
Note OFF: Time 10080, Note Name: B3
Note ON: Time 10320, Note Name: G3, Velocity: 40
Note OFF: Time 10560, Note Name: G3
Note ON: Time 10560, Note Name: F#3, Velocity: 45
Note OFF: Time 10800, Note Name: F#3
Note ON: Time 10800, Note Name: G3, Velocity: 40
Note OFF: Time 11040, Note Name: G3
Note ON: Time 11040, Note Name: D#4, Velocity: 45
Note OFF: Time 11160, Note Name: D#4
Note ON: Time 11280, Note Name: D#4, Velocity: 38
Note OFF: Time 11400, Note Name: D#4
Note ON: Time 11520, Note Name: D4, Velocity: 45
Note OFF: Time 12000, Note Name: D4
Note ON: Time 12240, Note Name: G3, Velocity: 45
Note OFF: Time 12360, Note Name: G3
Note ON: Time 12480, Note Name: B3, Velocity: 51
Note OFF: Time 12600, Note Name: B3
Note ON: Time 12720, Note Name: D4, Velocity: 45
Note OFF: Time 12840, Note Name: D4
Note ON: Time 12960, Note Name: F4, Velocity: 45
Note OFF: Time 13080, Note Name: F4
Note ON: Time 13200, Note Name: G#4, Velocity: 45
Note OFF: Time 13320, Note Name: G#4
Note ON: Time 13440, Note Name: B4, Velocity: 55
Note OFF: Time 13560, Note Name: B4
Note ON: Time 13680, Note Name: D5, Velocity: 53
Note OFF: Time 13800, Note Name: D5
Note ON: Time 13920, Note Name: F5, Velocity: 56
Note OFF: Time 14040, Note Name: F5
Note ON: Time 14160, Note Name: G#5, Velocity: 60
Note OFF: Time 14280, Note Name: G#5
Note ON: Time 14400, Note Name: G5, Velocity: 63
Note OFF: Time 14520, Note Name: G5
Note ON: Time 14640, Note Name: F5, Velocity: 59
Note OFF: Time 14760, Note Name: F5
Note ON: Time 14880, Note Name: D#5, Velocity: 55
Note OFF: Time 15000, Note Name: D#5
Note ON: Time 15120, Note Name: D5, Velocity: 54
Note OFF: Time 15240, Note Name: D5
Note ON: Time 15360, Note Name: C5, Velocity: 62
Note OFF: Time 15840, Note Name: C5
Note ON: Time 16080, Note Name: C5, Velocity: 50
Note OFF: Time 16320, Note Name: C5
Note ON: Time 16320, Note Name: B4, Velocity: 57
Note OFF: Time 16560, Note Name: B4
Note ON: Time 16560, Note Name: C5, Velocity: 53
Note OFF: Time 16800, Note Name: C5
Note ON: Time 16800, Note Name: C6, Velocity: 60
Note OFF: Time 16920, Note Name: C6
Note ON: Time 17040, Note Name: C6, Velocity: 52
Note OFF: Time 17160, Note Name: C6
Note ON: Time 17280, Note Name: C6, Velocity: 60
Note OFF: Time 17760, Note Name: C6
Note ON: Time 18000, Note Name: F6, Velocity: 59
Note OFF: Time 18240, Note Name: F6
Note ON: Time 18240, Note Name: D#6, Velocity: 65
Note OFF: Time 18480, Note Name: D#6
Note ON: Time 18480, Note Name: D6, Velocity: 60
Note OFF: Time 18720, Note Name: D6
Note ON: Time 18720, Note Name: C6, Velocity: 66
Note OFF: Time 18960, Note Name: C6
Note ON: Time 18960, Note Name: B5, Velocity: 60
Note OFF: Time 19200, Note Name: B5
Note ON: Time 19200, Note Name: D6, Velocity: 69
Note OFF: Time 19440, Note Name: D6
Note ON: Time 19440, Note Name: C6, Velocity: 60
Note OFF: Time 19680, Note Name: C6
Note ON: Time 19920, Note Name: C5, Velocity: 50
Note OFF: Time 20160, Note Name: C5
Note ON: Time 20160, Note Name: B4, Velocity: 57
Note OFF: Time 20400, Note Name: B4
Note ON: Time 20400, Note Name: C5, Velocity: 53
Note OFF: Time 20640, Note Name: C5
Note ON: Time 20640, Note Name: C6, Velocity: 60
Note OFF: Time 20760, Note Name: C6
Note ON: Time 20880, Note Name: C6, Velocity: 52
Note OFF: Time 21000, Note Name: C6
Note ON: Time 21120, Note Name: C6, Velocity: 60
Note OFF: Time 21600, Note Name: C6
Note ON: Time 21600, Note Name: D6, Velocity: 60
Note OFF: Time 21660, Note Name: D6
Note ON: Time 21660, Note Name: C6, Velocity: 60
Note OFF: Time 21720, Note Name: C6
Note ON: Time 21720, Note Name: B5, Velocity: 60
Note OFF: Time 21780, Note Name: B5
Note ON: Time 21780, Note Name: C6, Velocity: 60
Note OFF: Time 21840, Note Name: C6
Note ON: Time 21840, Note Name: F6, Velocity: 59
Note OFF: Time 22080, Note Name: F6
Note ON: Time 22080, Note Name: D#6, Velocity: 65
Note OFF: Time 22320, Note Name: D#6
Note ON: Time 22320, Note Name: D6, Velocity: 60
Note OFF: Time 22560, Note Name: D6
Note ON: Time 22560, Note Name: C6, Velocity: 66
Note OFF: Time 22800, Note Name: C6
Note ON: Time 22800, Note Name: B5, Velocity: 60
Note OFF: Time 23040, Note Name: B5
Note ON: Time 23040, Note Name: C6, Velocity: 69
Note OFF: Time 23160, Note Name: C6
Note ON: Time 23160, Note Name: D6, Velocity: 63
Note OFF: Time 23280, Note Name: D6
Note ON: Time 23280, Note Name: C6, Velocity: 63
Note OFF: Time 23400, Note Name: C6
Note ON: Time 23400, Note Name: B5, Velocity: 63
Note OFF: Time 23520, Note Name: B5
Note ON: Time 23520, Note Name: C6, Velocity: 69
Note OFF: Time 23640, Note Name: C6
Note ON: Time 23640, Note Name: D#6, Velocity: 73
Note OFF: Time 23760, Note Name: D#6
Note ON: Time 23760, Note Name: D6, Velocity: 72
Note OFF: Time 23880, Note Name: D6
Note ON: Time 23880, Note Name: C6, Velocity: 71
Note OFF: Time 24000, Note Name: C6
Note ON: Time 24000, Note Name: B5, Velocity: 72
Note OFF: Time 24120, Note Name: B5
Note ON: Time 24120, Note Name: C6, Velocity: 65
Note OFF: Time 24240, Note Name: C6
Note ON: Time 24240, Note Name: B5, Velocity: 65
Note OFF: Time 24360, Note Name: B5
Note ON: Time 24360, Note Name: G#5, Velocity: 65
Note OFF: Time 24480, Note Name: G#5
Note ON: Time 24480, Note Name: G5, Velocity: 69
Note OFF: Time 24600, Note Name: G5
Note ON: Time 24600, Note Name: F5, Velocity: 63
Note OFF: Time 24720, Note Name: F5
Note ON: Time 24720, Note Name: D#5, Velocity: 63
Note OFF: Time 24840, Note Name: D#5
Note ON: Time 24840, Note Name: D5, Velocity: 63
Note OFF: Time 24960, Note Name: D5
Note ON: Time 24960, Note Name: C5, Velocity: 69
Note OFF: Time 25080, Note Name: C5
Note ON: Time 25080, Note Name: D5, Velocity: 63
Note OFF: Time 25200, Note Name: D5
Note ON: Time 25200, Note Name: C5, Velocity: 63
Note OFF: Time 25320, Note Name: C5
Note ON: Time 25320, Note Name: B4, Velocity: 61
Note OFF: Time 25440, Note Name: B4
Note ON: Time 25440, Note Name: C5, Velocity: 66
Note OFF: Time 25560, Note Name: C5
Note ON: Time 25560, Note Name: D#5, Velocity: 72
Note OFF: Time 25680, Note Name: D#5
Note ON: Time 25680, Note Name: D5, Velocity: 70
Note OFF: Time 25800, Note Name: D5
Note ON: Time 25800, Note Name: C5, Velocity: 67
Note OFF: Time 25920, Note Name: C5
Note ON: Time 25920, Note Name: B4, Velocity: 69
Note OFF: Time 26040, Note Name: B4
Note ON: Time 26040, Note Name: C5, Velocity: 63
Note OFF: Time 26160, Note Name: C5
Note ON: Time 26160, Note Name: B4, Velocity: 63
Note OFF: Time 26280, Note Name: B4
Note ON: Time 26280, Note Name: G#4, Velocity: 63
Note OFF: Time 26400, Note Name: G#4
Note ON: Time 26400, Note Name: G4, Velocity: 69
Note OFF: Time 26520, Note Name: G4
Note ON: Time 26520, Note Name: F4, Velocity: 63
Note OFF: Time 26640, Note Name: F4
Note ON: Time 26640, Note Name: D#4, Velocity: 63
Note OFF: Time 26760, Note Name: D#4
Note ON: Time 26760, Note Name: D4, Velocity: 63
Note OFF: Time 26880, Note Name: D4
Note ON: Time 26880, Note Name: C4, Velocity: 77
Note OFF: Time 27000, Note Name: C4
Note ON: Time 27000, Note Name: D4, Velocity: 69
Note OFF: Time 27120, Note Name: D4
Note ON: Time 27120, Note Name: C4, Velocity: 69
Note OFF: Time 27240, Note Name: C4
Note ON: Time 27240, Note Name: B3, Velocity: 69
Note OFF: Time 27360, Note Name: B3
Note ON: Time 27360, Note Name: C4, Velocity: 77
Note OFF: Time 27480, Note Name: C4
Note ON: Time 27480, Note Name: D#4, Velocity: 69
Note OFF: Time 27600, Note Name: D#4
Note ON: Time 27600, Note Name: D4, Velocity: 69
Note OFF: Time 27720, Note Name: D4
Note ON: Time 27720, Note Name: C4, Velocity: 69
Note OFF: Time 27840, Note Name: C4
Note ON: Time 27840, Note Name: B3, Velocity: 77
Note OFF: Time 27960, Note Name: B3
Note ON: Time 27960, Note Name: G4, Velocity: 69
Note OFF: Time 28080, Note Name: G4
Note ON: Time 28080, Note Name: D4, Velocity: 69
Note OFF: Time 28200, Note Name: D4
Note ON: Time 28200, Note Name: B3, Velocity: 69
Note OFF: Time 28320, Note Name: B3
Note ON: Time 28320, Note Name: G3, Velocity: 79
Note OFF: Time 28440, Note Name: G3
Note ON: Time 28440, Note Name: G4, Velocity: 69
Note OFF: Time 28560, Note Name: G4
Note ON: Time 28560, Note Name: D#4, Velocity: 69
Note OFF: Time 28680, Note Name: D#4
Note ON: Time 28680, Note Name: C4, Velocity: 69
Note OFF: Time 28800, Note Name: C4
Note ON: Time 28800, Note Name: G3, Velocity: 81
Note OFF: Time 28920, Note Name: G3
Note ON: Time 28920, Note Name: G4, Velocity: 69
Note OFF: Time 29040, Note Name: G4
Note ON: Time 29040, Note Name: D4, Velocity: 69
Note OFF: Time 29160, Note Name: D4
Note ON: Time 29160, Note Name: B3, Velocity: 69
Note OFF: Time 29280, Note Name: B3
Note ON: Time 29280, Note Name: G3, Velocity: 80
Note OFF: Time 29400, Note Name: G3
Note ON: Time 29400, Note Name: G4, Velocity: 69
Note OFF: Time 29520, Note Name: G4
Note ON: Time 29520, Note Name: D#4, Velocity: 69
Note OFF: Time 29640, Note Name: D#4
Note ON: Time 29640, Note Name: C4, Velocity: 69
Note OFF: Time 29760, Note Name: C4
Note ON: Time 29760, Note Name: G3, Velocity: 80
Note OFF: Time 29880, Note Name: G3
Note ON: Time 29880, Note Name: G4, Velocity: 69
Note OFF: Time 30000, Note Name: G4
Note ON: Time 30000, Note Name: D4, Velocity: 69
Note OFF: Time 30120, Note Name: D4
Note ON: Time 30120, Note Name: B3, Velocity: 69
Note OFF: Time 30240, Note Name: B3
Note ON: Time 30240, Note Name: G3, Velocity: 80
Note OFF: Time 30360, Note Name: G3
Note ON: Time 30360, Note Name: G4, Velocity: 69
Note OFF: Time 30480, Note Name: G4
Note ON: Time 30480, Note Name: D#4, Velocity: 69
Note OFF: Time 30600, Note Name: D#4
Note ON: Time 30600, Note Name: C4, Velocity: 69
Note OFF: Time 30720, Note Name: C4
Note ON: Time 30720, Note Name: G3, Velocity: 74
Note ON: Time 30720, Note Name: B3, Velocity: 74
Note ON: Time 30720, Note Name: D4, Velocity: 74
Note ON: Time 30720, Note Name: G4, Velocity: 89
Note OFF: Time 31680, Note Name: G4
Note OFF: Time 31680, Note Name: G3
Note OFF: Time 31680, Note Name: B3
Note OFF: Time 31680, Note Name: D4
Note ON: Time 31920, Note Name: A#3, Velocity: 40
Note OFF: Time 32040, Note Name: A#3
Note ON: Time 32160, Note Name: C4, Velocity: 37
Note OFF: Time 32280, Note Name: C4
Note ON: Time 32400, Note Name: D4, Velocity: 37
Note OFF: Time 32520, Note Name: D4
Note ON: Time 32640, Note Name: G3, Velocity: 39
Note ON: Time 32640, Note Name: A#3, Velocity: 39
Note ON: Time 32640, Note Name: D#4, Velocity: 46
Note OFF: Time 32760, Note Name: D#4
Note ON: Time 32880, Note Name: F4, Velocity: 40
Note OFF: Time 33000, Note Name: F4
Note ON: Time 33120, Note Name: G4, Velocity: 40
Note OFF: Time 33240, Note Name: G4
Note OFF: Time 33600, Note Name: A#3
Note OFF: Time 33600, Note Name: G3
Note ON: Time 33600, Note Name: A#3, Velocity: 38
Note ON: Time 33600, Note Name: D4, Velocity: 38
Note ON: Time 33600, Note Name: F4, Velocity: 45
Note OFF: Time 33720, Note Name: F4
Note OFF: Time 33720, Note Name: D4
Note OFF: Time 33720, Note Name: A#3
Note ON: Time 34080, Note Name: A#3, Velocity: 33
Note ON: Time 34080, Note Name: D#4, Velocity: 39
Note OFF: Time 34200, Note Name: D#4
Note OFF: Time 34200, Note Name: A#3
Note ON: Time 34560, Note Name: G#3, Velocity: 37
Note ON: Time 34560, Note Name: A#3, Velocity: 37
Note ON: Time 34560, Note Name: D4, Velocity: 37
Note ON: Time 34560, Note Name: G#4, Velocity: 45
Note OFF: Time 35520, Note Name: G#4
Note OFF: Time 35520, Note Name: G#3
Note OFF: Time 35520, Note Name: A#3
Note OFF: Time 35520, Note Name: D4
Note ON: Time 35760, Note Name: A#3, Velocity: 40
Note OFF: Time 35880, Note Name: A#3
Note ON: Time 36000, Note Name: C4, Velocity: 37
Note OFF: Time 36120, Note Name: C4
Note ON: Time 36240, Note Name: D4, Velocity: 37
Note OFF: Time 36360, Note Name: D4
Note ON: Time 36480, Note Name: G3, Velocity: 39
Note ON: Time 36480, Note Name: A#3, Velocity: 39
Note ON: Time 36480, Note Name: D#4, Velocity: 46
Note OFF: Time 36600, Note Name: D#4
Note ON: Time 36720, Note Name: F4, Velocity: 40
Note OFF: Time 36840, Note Name: F4
Note ON: Time 36960, Note Name: G4, Velocity: 40
Note OFF: Time 37080, Note Name: G4
Note OFF: Time 37440, Note Name: A#3
Note OFF: Time 37440, Note Name: G3
Note ON: Time 37440, Note Name: F3, Velocity: 38
Note ON: Time 37440, Note Name: C4, Velocity: 38
Note ON: Time 37440, Note Name: F4, Velocity: 45
Note OFF: Time 37560, Note Name: F4
Note OFF: Time 37560, Note Name: C4
Note OFF: Time 37560, Note Name: F3
Note ON: Time 37920, Note Name: C4, Velocity: 33
Note ON: Time 37920, Note Name: F3, Velocity: 33
Note ON: Time 37920, Note Name: D#4, Velocity: 39
Note OFF: Time 38040, Note Name: D#4
Note OFF: Time 38040, Note Name: F3
Note OFF: Time 38040, Note Name: C4
Note ON: Time 38400, Note Name: D3, Velocity: 31
Note ON: Time 38400, Note Name: F3, Velocity: 31
Note ON: Time 38400, Note Name: A#3, Velocity: 37
Note OFF: Time 39360, Note Name: A#3
Note OFF: Time 39360, Note Name: F3
Note OFF: Time 39360, Note Name: D3
Note ON: Time 39600, Note Name: A#3, Velocity: 40
Note OFF: Time 39720, Note Name: A#3
Note ON: Time 39840, Note Name: C4, Velocity: 37
Note OFF: Time 39960, Note Name: C4
Note ON: Time 40080, Note Name: D4, Velocity: 37
Note OFF: Time 40200, Note Name: D4
Note ON: Time 40320, Note Name: G3, Velocity: 39
Note ON: Time 40320, Note Name: A#3, Velocity: 39
Note ON: Time 40320, Note Name: D#4, Velocity: 46
Note OFF: Time 40440, Note Name: D#4
Note ON: Time 40560, Note Name: F4, Velocity: 40
Note OFF: Time 40680, Note Name: F4
Note ON: Time 40800, Note Name: G4, Velocity: 40
Note OFF: Time 40920, Note Name: G4
Note OFF: Time 41280, Note Name: A#3
Note OFF: Time 41280, Note Name: G3
Note ON: Time 41280, Note Name: A#3, Velocity: 38
Note ON: Time 41280, Note Name: D4, Velocity: 38
Note ON: Time 41280, Note Name: F4, Velocity: 45
Note OFF: Time 41400, Note Name: F4
Note OFF: Time 41400, Note Name: D4
Note OFF: Time 41400, Note Name: A#3
Note ON: Time 41760, Note Name: A#3, Velocity: 33
Note ON: Time 41760, Note Name: D#4, Velocity: 39
Note OFF: Time 41880, Note Name: D#4
Note OFF: Time 41880, Note Name: A#3
Note ON: Time 42195, Note Name: C4, Velocity: 45
Note ON: Time 42210, Note Name: D#4, Velocity: 50
Note ON: Time 42225, Note Name: G#4, Velocity: 63
Note ON: Time 42240, Note Name: C5, Velocity: 72
Note OFF: Time 43200, Note Name: G#4
Note OFF: Time 43200, Note Name: C4
Note OFF: Time 43200, Note Name: D#4
Note OFF: Time 43440, Note Name: C5
Note ON: Time 43440, Note Name: C5, Velocity: 48
Note OFF: Time 43560, Note Name: C5
Note ON: Time 43680, Note Name: A#4, Velocity: 53
Note OFF: Time 43800, Note Name: A#4
Note ON: Time 43920, Note Name: G#4, Velocity: 50
Note OFF: Time 44040, Note Name: G#4
Note ON: Time 44160, Note Name: G4, Velocity: 53
Note OFF: Time 44400, Note Name: G4
Note ON: Time 44400, Note Name: F4, Velocity: 48
Note OFF: Time 44640, Note Name: F4
Note ON: Time 44640, Note Name: D#4, Velocity: 48
Note OFF: Time 44760, Note Name: D#4
Note ON: Time 44880, Note Name: D4, Velocity: 48
Note OFF: Time 45000, Note Name: D4
Note ON: Time 45120, Note Name: F3, Velocity: 45
Note ON: Time 45120, Note Name: G#3, Velocity: 45
Note ON: Time 45120, Note Name: C4, Velocity: 53
Note OFF: Time 45600, Note Name: C4
Note ON: Time 45600, Note Name: A#3, Velocity: 49
Note OFF: Time 46080, Note Name: A#3
Note OFF: Time 46080, Note Name: G#3
Note OFF: Time 46080, Note Name: F3
Note ON: Time 46080, Note Name: D#3, Velocity: 41
Note ON: Time 46080, Note Name: G3, Velocity: 41
Note ON: Time 46080, Note Name: A#3, Velocity: 49
Note OFF: Time 47040, Note Name: A#3
Note OFF: Time 47040, Note Name: G3
Note OFF: Time 47040, Note Name: D#3
Note ON: Time 47280, Note Name: A#4, Velocity: 48
Note OFF: Time 47400, Note Name: A#4
Note ON: Time 47520, Note Name: G#4, Velocity: 53
Note OFF: Time 47640, Note Name: G#4
Note ON: Time 47760, Note Name: G4, Velocity: 50
Note OFF: Time 47880, Note Name: G4
Note ON: Time 48000, Note Name: G4, Velocity: 53
Note OFF: Time 48240, Note Name: G4
Note ON: Time 48240, Note Name: F4, Velocity: 48
Note OFF: Time 48480, Note Name: F4
Note ON: Time 48480, Note Name: D#4, Velocity: 48
Note OFF: Time 48600, Note Name: D#4
Note ON: Time 48720, Note Name: D4, Velocity: 48
Note OFF: Time 48840, Note Name: D4
Note ON: Time 48960, Note Name: F3, Velocity: 45
Note ON: Time 48960, Note Name: G#3, Velocity: 45
Note ON: Time 48960, Note Name: C4, Velocity: 53
Note OFF: Time 49440, Note Name: C4
Note ON: Time 49440, Note Name: A#3, Velocity: 49
Note OFF: Time 49920, Note Name: A#3
Note OFF: Time 49920, Note Name: G#3
Note OFF: Time 49920, Note Name: F3
Note ON: Time 49920, Note Name: D#3, Velocity: 54
Note ON: Time 49920, Note Name: G3, Velocity: 54
Note ON: Time 49920, Note Name: A#3, Velocity: 54
Note OFF: Time 50880, Note Name: A#3
Note OFF: Time 50880, Note Name: G3
Note OFF: Time 50880, Note Name: D#3
Note ON: Time 51120, Note Name: A#5, Velocity: 48
Note ON: Time 51120, Note Name: A#4, Velocity: 48
Note OFF: Time 51240, Note Name: A#4
Note OFF: Time 51240, Note Name: A#5
Note ON: Time 51360, Note Name: G#5, Velocity: 53
Note ON: Time 51360, Note Name: G#4, Velocity: 53
Note OFF: Time 51480, Note Name: G#4
Note OFF: Time 51480, Note Name: G#5
Note ON: Time 51600, Note Name: G5, Velocity: 50
Note ON: Time 51600, Note Name: G4, Velocity: 50
Note OFF: Time 51720, Note Name: G4
Note OFF: Time 51720, Note Name: G5
Note ON: Time 51840, Note Name: G5, Velocity: 55
Note ON: Time 51840, Note Name: G4, Velocity: 55
Note OFF: Time 52080, Note Name: G4
Note OFF: Time 52080, Note Name: G5
Note ON: Time 52080, Note Name: F5, Velocity: 48
Note ON: Time 52080, Note Name: F4, Velocity: 48
Note OFF: Time 52320, Note Name: F4
Note OFF: Time 52320, Note Name: F5
Note ON: Time 52320, Note Name: D#5, Velocity: 48
Note ON: Time 52320, Note Name: D#4, Velocity: 48
Note OFF: Time 52440, Note Name: D#4
Note OFF: Time 52440, Note Name: D#5
Note ON: Time 52560, Note Name: D5, Velocity: 48
Note ON: Time 52560, Note Name: D4, Velocity: 48
Note OFF: Time 52680, Note Name: D4
Note OFF: Time 52680, Note Name: D5
Note ON: Time 52800, Note Name: C4, Velocity: 55
Note ON: Time 52800, Note Name: C5, Velocity: 55
Note OFF: Time 52920, Note Name: C5
Note OFF: Time 52920, Note Name: C4
Note ON: Time 53040, Note Name: A#3, Velocity: 48
Note ON: Time 53040, Note Name: A#4, Velocity: 48
Note OFF: Time 53160, Note Name: A#4
Note OFF: Time 53160, Note Name: A#3
Note ON: Time 53280, Note Name: C4, Velocity: 48
Note ON: Time 53280, Note Name: C5, Velocity: 48
Note OFF: Time 53400, Note Name: C5
Note OFF: Time 53400, Note Name: C4
Note ON: Time 53520, Note Name: D4, Velocity: 48
Note ON: Time 53520, Note Name: D5, Velocity: 48
Note OFF: Time 53640, Note Name: D5
Note OFF: Time 53640, Note Name: D4
Note ON: Time 53760, Note Name: D#4, Velocity: 48
Note OFF: Time 53880, Note Name: D#4
Note ON: Time 53880, Note Name: D#5, Velocity: 43
Note OFF: Time 54000, Note Name: D#5
Note ON: Time 54000, Note Name: D#4, Velocity: 48
Note OFF: Time 54120, Note Name: D#4
Note ON: Time 54120, Note Name: D#5, Velocity: 42
Note OFF: Time 54240, Note Name: D#5
Note ON: Time 54240, Note Name: D#4, Velocity: 49
Note OFF: Time 54360, Note Name: D#4
Note ON: Time 54360, Note Name: D#5, Velocity: 43
Note OFF: Time 54480, Note Name: D#5
Note ON: Time 54480, Note Name: D#4, Velocity: 50
Note OFF: Time 54600, Note Name: D#4
Note ON: Time 54600, Note Name: D#5, Velocity: 45
Note OFF: Time 54720, Note Name: D#5
Note ON: Time 54720, Note Name: D#4, Velocity: 51
Note OFF: Time 54840, Note Name: D#4
Note ON: Time 54840, Note Name: D#5, Velocity: 44
Note OFF: Time 54960, Note Name: D#5
Note ON: Time 54960, Note Name: D#4, Velocity: 52
Note OFF: Time 55080, Note Name: D#4
Note ON: Time 55080, Note Name: D#5, Velocity: 47
Note OFF: Time 55200, Note Name: D#5
Note ON: Time 55200, Note Name: D#4, Velocity: 53
Note OFF: Time 55320, Note Name: D#4
Note ON: Time 55320, Note Name: D#5, Velocity: 47
Note OFF: Time 55440, Note Name: D#5
Note ON: Time 55440, Note Name: D#4, Velocity: 53
Note OFF: Time 55560, Note Name: D#4
Note ON: Time 55560, Note Name: D#5, Velocity: 47
Note OFF: Time 55680, Note Name: D#5
Note ON: Time 55680, Note Name: D#4, Velocity: 54
Note OFF: Time 55800, Note Name: D#4
Note ON: Time 55800, Note Name: D#5, Velocity: 48
Note OFF: Time 55920, Note Name: D#5
Note ON: Time 55920, Note Name: D#4, Velocity: 55
Note OFF: Time 56040, Note Name: D#4
Note ON: Time 56040, Note Name: D#5, Velocity: 48
Note OFF: Time 56160, Note Name: D#5
Note ON: Time 56160, Note Name: D#4, Velocity: 55
Note OFF: Time 56280, Note Name: D#4
Note ON: Time 56280, Note Name: D#5, Velocity: 48
Note OFF: Time 56400, Note Name: D#5
Note ON: Time 56400, Note Name: D#4, Velocity: 56
Note OFF: Time 56520, Note Name: D#4
Note ON: Time 56520, Note Name: D#5, Velocity: 51
Note OFF: Time 56640, Note Name: D#5
Note ON: Time 56640, Note Name: D#4, Velocity: 57
Note OFF: Time 56760, Note Name: D#4
Note ON: Time 56760, Note Name: D#5, Velocity: 49
Note OFF: Time 56880, Note Name: D#5
Note ON: Time 56880, Note Name: D#4, Velocity: 58
Note OFF: Time 57000, Note Name: D#4
Note ON: Time 57000, Note Name: D#5, Velocity: 53
Note OFF: Time 57120, Note Name: D#5
Note ON: Time 57120, Note Name: D#4, Velocity: 59
Note OFF: Time 57240, Note Name: D#4
Note ON: Time 57240, Note Name: D#5, Velocity: 54
Note OFF: Time 57360, Note Name: D#5
Note ON: Time 57360, Note Name: D#4, Velocity: 60
Note OFF: Time 57480, Note Name: D#4
Note ON: Time 57480, Note Name: D#5, Velocity: 54
Note OFF: Time 57600, Note Name: D#5
Note ON: Time 57600, Note Name: D#4, Velocity: 70
Note ON: Time 57600, Note Name: D#5, Velocity: 70
Note OFF: Time 58080, Note Name: D#5
Note OFF: Time 58080, Note Name: D#4
Note ON: Time 58320, Note Name: D#5, Velocity: 74
Note OFF: Time 58560, Note Name: D#5
Note ON: Time 58560, Note Name: D5, Velocity: 84
Note OFF: Time 58800, Note Name: D5
Note ON: Time 58800, Note Name: D#5, Velocity: 77
Note OFF: Time 59040, Note Name: D#5
Note ON: Time 59040, Note Name: C6, Velocity: 86
Note ON: Time 59040, Note Name: G#5, Velocity: 86
Note OFF: Time 59160, Note Name: G#5
Note OFF: Time 59160, Note Name: C6
Note ON: Time 59280, Note Name: G#5, Velocity: 79
Note ON: Time 59280, Note Name: C6, Velocity: 79
Note OFF: Time 59400, Note Name: C6
Note OFF: Time 59400, Note Name: G#5
Note ON: Time 59520, Note Name: G#5, Velocity: 92
Note ON: Time 59520, Note Name: C6, Velocity: 92
Note OFF: Time 60000, Note Name: G#5
Note OFF: Time 60120, Note Name: C6
Note ON: Time 60120, Note Name: A#5, Velocity: 74
Note OFF: Time 60240, Note Name: A#5
Note ON: Time 60240, Note Name: G#5, Velocity: 73
Note OFF: Time 60360, Note Name: G#5
Note ON: Time 60360, Note Name: G5, Velocity: 72
Note OFF: Time 60480, Note Name: G5
Note ON: Time 60480, Note Name: F5, Velocity: 72
Note OFF: Time 60600, Note Name: F5
Note ON: Time 60600, Note Name: D#5, Velocity: 72
Note OFF: Time 60720, Note Name: D#5
Note ON: Time 60720, Note Name: D5, Velocity: 71
Note OFF: Time 60840, Note Name: D5
Note ON: Time 60840, Note Name: C5, Velocity: 70
Note OFF: Time 60960, Note Name: C5
Note ON: Time 60960, Note Name: B4, Velocity: 69
Note OFF: Time 61080, Note Name: B4
Note ON: Time 61080, Note Name: A#4, Velocity: 68
Note OFF: Time 61200, Note Name: A#4
Note ON: Time 61200, Note Name: A4, Velocity: 67
Note OFF: Time 61320, Note Name: A4
Note ON: Time 61320, Note Name: G#4, Velocity: 66
Note OFF: Time 61440, Note Name: G#4
Note ON: Time 61440, Note Name: G4, Velocity: 66
Note OFF: Time 61600, Note Name: G4
Note ON: Time 61600, Note Name: G#4, Velocity: 62
Note OFF: Time 61760, Note Name: G#4
Note ON: Time 61760, Note Name: A#4, Velocity: 62
Note OFF: Time 61920, Note Name: A#4
Note ON: Time 61920, Note Name: G#4, Velocity: 66
Note OFF: Time 62080, Note Name: G#4
Note ON: Time 62080, Note Name: G4, Velocity: 62
Note OFF: Time 62240, Note Name: G4
Note ON: Time 62240, Note Name: F4, Velocity: 62
Note OFF: Time 62400, Note Name: F4
Note ON: Time 62400, Note Name: D#4, Velocity: 66
Note OFF: Time 62560, Note Name: D#4
Note ON: Time 62560, Note Name: D4, Velocity: 62
Note OFF: Time 62720, Note Name: D4
Note ON: Time 62720, Note Name: C4, Velocity: 62
Note OFF: Time 62880, Note Name: C4
Note ON: Time 62880, Note Name: A#3, Velocity: 66
Note OFF: Time 63040, Note Name: A#3
Note ON: Time 63040, Note Name: G#3, Velocity: 60
Note OFF: Time 63200, Note Name: G#3
Note ON: Time 63200, Note Name: G3, Velocity: 63
Note OFF: Time 63360, Note Name: G3
Note ON: Time 63480, Note Name: F3, Velocity: 59
Note OFF: Time 63600, Note Name: F3
Note ON: Time 63600, Note Name: G#3, Velocity: 63
Note OFF: Time 63720, Note Name: G#3
Note ON: Time 63720, Note Name: C4, Velocity: 67
Note OFF: Time 63840, Note Name: C4
Note ON: Time 63840, Note Name: F4, Velocity: 72
Note OFF: Time 64080, Note Name: F4
Note ON: Time 64440, Note Name: F3, Velocity: 63
Note OFF: Time 64560, Note Name: F3
Note ON: Time 64560, Note Name: G#3, Velocity: 66
Note OFF: Time 64680, Note Name: G#3
Note ON: Time 64680, Note Name: A#3, Velocity: 69
Note OFF: Time 64800, Note Name: A#3
Note ON: Time 64800, Note Name: D4, Velocity: 72
Note OFF: Time 65040, Note Name: D4
Note ON: Time 65280, Note Name: D5, Velocity: 67
Note OFF: Time 65400, Note Name: D5
Note ON: Time 65400, Note Name: D6, Velocity: 60
Note OFF: Time 65520, Note Name: D6
Note ON: Time 65520, Note Name: D5, Velocity: 67
Note OFF: Time 65640, Note Name: D5
Note ON: Time 65640, Note Name: D6, Velocity: 60
Note OFF: Time 65760, Note Name: D6
Note ON: Time 65760, Note Name: D5, Velocity: 67
Note OFF: Time 65880, Note Name: D5
Note ON: Time 65880, Note Name: D6, Velocity: 59
Note OFF: Time 66000, Note Name: D6
Note ON: Time 66000, Note Name: D5, Velocity: 67
Note OFF: Time 66120, Note Name: D5
Note ON: Time 66120, Note Name: D6, Velocity: 61
Note OFF: Time 66240, Note Name: D6
Note ON: Time 66240, Note Name: D5, Velocity: 67
Note OFF: Time 66360, Note Name: D5
Note ON: Time 66360, Note Name: D6, Velocity: 59
Note OFF: Time 66480, Note Name: D6
Note ON: Time 66480, Note Name: D5, Velocity: 67
Note OFF: Time 66600, Note Name: D5
Note ON: Time 66600, Note Name: D6, Velocity: 59
Note OFF: Time 66720, Note Name: D6
Note ON: Time 66720, Note Name: D5, Velocity: 67
Note OFF: Time 66840, Note Name: D5
Note ON: Time 66840, Note Name: D6, Velocity: 59
Note OFF: Time 66960, Note Name: D6
Note ON: Time 66960, Note Name: D5, Velocity: 67
Note OFF: Time 67080, Note Name: D5
Note ON: Time 67080, Note Name: D6, Velocity: 60
Note OFF: Time 67200, Note Name: D6
Note ON: Time 67200, Note Name: D#5, Velocity: 67
Note OFF: Time 67320, Note Name: D#5
Note ON: Time 67320, Note Name: D#6, Velocity: 60
Note OFF: Time 67440, Note Name: D#6
Note ON: Time 67440, Note Name: D#5, Velocity: 69
Note OFF: Time 67560, Note Name: D#5
Note ON: Time 67560, Note Name: D#6, Velocity: 62
Note OFF: Time 67680, Note Name: D#6
Note ON: Time 67680, Note Name: D#5, Velocity: 71
Note OFF: Time 67800, Note Name: D#5
Note ON: Time 67800, Note Name: D#6, Velocity: 63
Note OFF: Time 67920, Note Name: D#6
Note ON: Time 67920, Note Name: D#5, Velocity: 72
Note OFF: Time 68040, Note Name: D#5
Note ON: Time 68040, Note Name: D#6, Velocity: 67
Note OFF: Time 68160, Note Name: D#6
Note ON: Time 68160, Note Name: D#5, Velocity: 75
Note OFF: Time 68280, Note Name: D#5
Note ON: Time 68280, Note Name: D#6, Velocity: 67
Note OFF: Time 68400, Note Name: D#6
Note ON: Time 68400, Note Name: D#5, Velocity: 77
Note OFF: Time 68520, Note Name: D#5
Note ON: Time 68520, Note Name: D#6, Velocity: 69
Note OFF: Time 68640, Note Name: D#6
Note ON: Time 68640, Note Name: E5, Velocity: 80
Note OFF: Time 68760, Note Name: E5
Note ON: Time 68760, Note Name: E6, Velocity: 71
Note OFF: Time 68880, Note Name: E6
Note ON: Time 68880, Note Name: E5, Velocity: 81
Note OFF: Time 69000, Note Name: E5
Note ON: Time 69000, Note Name: E6, Velocity: 73
Note OFF: Time 69120, Note Name: E6
Note ON: Time 69240, Note Name: F5, Velocity: 71
Note OFF: Time 69360, Note Name: F5
Note ON: Time 69360, Note Name: G#5, Velocity: 76
Note OFF: Time 69480, Note Name: G#5
Note ON: Time 69480, Note Name: C6, Velocity: 81
Note OFF: Time 69600, Note Name: C6
Note ON: Time 69600, Note Name: F6, Velocity: 86
Note OFF: Time 69840, Note Name: F6
Note ON: Time 70200, Note Name: D5, Velocity: 75
Note OFF: Time 70320, Note Name: D5
Note ON: Time 70320, Note Name: F5, Velocity: 79
Note OFF: Time 70440, Note Name: F5
Note ON: Time 70440, Note Name: G#5, Velocity: 82
Note OFF: Time 70560, Note Name: G#5
Note ON: Time 70560, Note Name: D6, Velocity: 86
Note OFF: Time 70800, Note Name: D6
Note ON: Time 71040, Note Name: D#5, Velocity: 80
Note ON: Time 71040, Note Name: A#5, Velocity: 80
Note ON: Time 71040, Note Name: G5, Velocity: 80
Note ON: Time 71040, Note Name: D#6, Velocity: 94
Note OFF: Time 71520, Note Name: D#6
Note OFF: Time 71520, Note Name: D#5
Note OFF: Time 71520, Note Name: A#5
Note OFF: Time 71520, Note Name: G5
Note ON: Time 71520, Note Name: A#5, Velocity: 63
Note OFF: Time 71640, Note Name: A#5
Note ON: Time 71760, Note Name: A#5, Velocity: 63
Note OFF: Time 71880, Note Name: A#5
Note ON: Time 72000, Note Name: A#5, Velocity: 70
Note OFF: Time 72240, Note Name: A#5
Note ON: Time 72480, Note Name: A#5, Velocity: 63
Note OFF: Time 72600, Note Name: A#5
Note ON: Time 72720, Note Name: A#5, Velocity: 63
Note OFF: Time 72840, Note Name: A#5
Note ON: Time 72960, Note Name: A#5, Velocity: 69
Note OFF: Time 73200, Note Name: A#5
Note ON: Time 73440, Note Name: F3, Velocity: 60
Note ON: Time 73440, Note Name: G#3, Velocity: 60
Note ON: Time 73440, Note Name: D4, Velocity: 72
Note OFF: Time 73680, Note Name: D4
Note OFF: Time 73680, Note Name: G#3
Note OFF: Time 73680, Note Name: F3
Note ON: Time 74400, Note Name: F3, Velocity: 33
Note ON: Time 74400, Note Name: G#3, Velocity: 33
Note ON: Time 74400, Note Name: D4, Velocity: 39
Note OFF: Time 74520, Note Name: D4
Note OFF: Time 74520, Note Name: G#3
Note OFF: Time 74520, Note Name: F3
Note ON: Time 74880, Note Name: G3, Velocity: 37
Note ON: Time 74880, Note Name: D#4, Velocity: 45
Note OFF: Time 75000, Note Name: D#4
Note OFF: Time 75000, Note Name: G3
Note ON: Time 75360, Note Name: C4, Velocity: 35
Note ON: Time 75360, Note Name: D#4, Velocity: 35
Note ON: Time 75360, Note Name: F4, Velocity: 41
Note OFF: Time 75480, Note Name: F4
Note OFF: Time 75480, Note Name: D#4
Note OFF: Time 75480, Note Name: C4
Note ON: Time 75840, Note Name: A#3, Velocity: 37
Note ON: Time 75840, Note Name: D#4, Velocity: 37
Note ON: Time 75840, Note Name: G4, Velocity: 45
Note OFF: Time 75960, Note Name: G4
Note OFF: Time 75960, Note Name: D#4
Note OFF: Time 75960, Note Name: A#3
Note ON: Time 76320, Note Name: G#3, Velocity: 33
Note ON: Time 76320, Note Name: D4, Velocity: 33
Note ON: Time 76320, Note Name: F4, Velocity: 39
Note OFF: Time 76440, Note Name: F4
Note OFF: Time 76440, Note Name: D4
Note OFF: Time 76440, Note Name: G#3
Note ON: Time 76800, Note Name: G3, Velocity: 37
Note ON: Time 76800, Note Name: D#4, Velocity: 45
Note OFF: Time 76920, Note Name: D#4
Note OFF: Time 76920, Note Name: G3
Note ON: Time 77280, Note Name: A#5, Velocity: 63
Note OFF: Time 77400, Note Name: A#5
Note ON: Time 77400, Note Name: C6, Velocity: 59
Note OFF: Time 77520, Note Name: C6
Note ON: Time 77520, Note Name: A#5, Velocity: 63
Note OFF: Time 77640, Note Name: A#5
Note ON: Time 77640, Note Name: A5, Velocity: 59
Note OFF: Time 77760, Note Name: A5
Note ON: Time 77760, Note Name: A#5, Velocity: 70
Note OFF: Time 78000, Note Name: A#5
Note ON: Time 78240, Note Name: A#5, Velocity: 63
Note OFF: Time 78360, Note Name: A#5
Note ON: Time 78360, Note Name: C6, Velocity: 58
Note OFF: Time 78480, Note Name: C6
Note ON: Time 78480, Note Name: A#5, Velocity: 63
Note OFF: Time 78600, Note Name: A#5
Note ON: Time 78600, Note Name: A5, Velocity: 57
Note OFF: Time 78720, Note Name: A5
Note ON: Time 78720, Note Name: A#5, Velocity: 69
Note OFF: Time 78960, Note Name: A#5
Note ON: Time 79200, Note Name: F3, Velocity: 60
Note ON: Time 79200, Note Name: G#3, Velocity: 60
Note ON: Time 79200, Note Name: D4, Velocity: 72
Note OFF: Time 79440, Note Name: D4
Note OFF: Time 79440, Note Name: G#3
Note OFF: Time 79440, Note Name: F3
Note ON: Time 80160, Note Name: D#3, Velocity: 55
Note ON: Time 80160, Note Name: F#3, Velocity: 55
Note ON: Time 80160, Note Name: A3, Velocity: 55
Note ON: Time 80160, Note Name: D#4, Velocity: 66
Note OFF: Time 81120, Note Name: D#4
Note OFF: Time 81120, Note Name: D#3
Note OFF: Time 81120, Note Name: F#3
Note OFF: Time 81120, Note Name: A3
Note ON: Time 81120, Note Name: C4, Velocity: 35
Note ON: Time 81120, Note Name: D#4, Velocity: 35
Note ON: Time 81120, Note Name: F4, Velocity: 41
Note OFF: Time 81240, Note Name: F4
Note OFF: Time 81240, Note Name: D#4
Note OFF: Time 81240, Note Name: C4
Note ON: Time 81600, Note Name: A#3, Velocity: 37
Note ON: Time 81600, Note Name: D#4, Velocity: 37
Note ON: Time 81600, Note Name: G4, Velocity: 45
Note OFF: Time 81720, Note Name: G4
Note OFF: Time 81720, Note Name: D#4
Note OFF: Time 81720, Note Name: A#3
Note ON: Time 82080, Note Name: G#3, Velocity: 33
Note ON: Time 82080, Note Name: D4, Velocity: 33
Note ON: Time 82080, Note Name: F4, Velocity: 39
Note OFF: Time 82200, Note Name: F4
Note OFF: Time 82200, Note Name: D4
Note OFF: Time 82200, Note Name: G#3
Note ON: Time 82560, Note Name: G3, Velocity: 37
Note ON: Time 82560, Note Name: D#4, Velocity: 45
Note OFF: Time 82800, Note Name: D#4
Note OFF: Time 82800, Note Name: G3
Note ON: Time 83040, Note Name: D4, Velocity: 30
Note ON: Time 83040, Note Name: G#4, Velocity: 36
Note OFF: Time 83280, Note Name: G#4
Note OFF: Time 83280, Note Name: D4
Note ON: Time 83280, Note Name: D#4, Velocity: 27
Note ON: Time 83280, Note Name: G4, Velocity: 32
Note OFF: Time 83520, Note Name: G4
Note OFF: Time 83520, Note Name: D#4
Note ON: Time 84000, Note Name: G#4, Velocity: 31
Note ON: Time 84000, Note Name: D5, Velocity: 37
Note OFF: Time 84240, Note Name: D5
Note OFF: Time 84240, Note Name: G#4
Note ON: Time 84240, Note Name: G4, Velocity: 27
Note ON: Time 84240, Note Name: D#5, Velocity: 32
Note OFF: Time 84480, Note Name: D#5
Note OFF: Time 84480, Note Name: G4
Note ON: Time 84960, Note Name: G#5, Velocity: 37
Note ON: Time 84960, Note Name: D5, Velocity: 31
Note OFF: Time 85200, Note Name: D5
Note OFF: Time 85200, Note Name: G#5
Note ON: Time 85200, Note Name: D#5, Velocity: 27
Note ON: Time 85200, Note Name: G5, Velocity: 32
Note OFF: Time 85440, Note Name: G5
Note OFF: Time 85440, Note Name: D#5
Note ON: Time 85920, Note Name: D6, Velocity: 43
Note ON: Time 85920, Note Name: G#5, Velocity: 36
Note OFF: Time 86160, Note Name: G#5
Note OFF: Time 86160, Note Name: D6
Note ON: Time 86160, Note Name: G5, Velocity: 30
Note ON: Time 86160, Note Name: D#6, Velocity: 36
Note OFF: Time 86400, Note Name: D#6
Note OFF: Time 86400, Note Name: G5
Note ON: Time 86880, Note Name: G3, Velocity: 48
Note ON: Time 86880, Note Name: A#3, Velocity: 48
Note ON: Time 86880, Note Name: D#4, Velocity: 57
Note OFF: Time 87360, Note Name: D#4
Note OFF: Time 87360, Note Name: A#3
Note OFF: Time 87360, Note Name: G3
Note ON: Time 89040, Note Name: C4, Velocity: 40
Note OFF: Time 89280, Note Name: C4
Note ON: Time 89280, Note Name: B3, Velocity: 45
Note OFF: Time 89520, Note Name: B3
Note ON: Time 89520, Note Name: C4, Velocity: 40
Note OFF: Time 89760, Note Name: C4
Note ON: Time 89760, Note Name: F4, Velocity: 45
Note OFF: Time 89880, Note Name: F4
Note ON: Time 90000, Note Name: F4, Velocity: 38
Note OFF: Time 90120, Note Name: F4
Note ON: Time 90240, Note Name: D#4, Velocity: 45
Note OFF: Time 90720, Note Name: D#4
Note ON: Time 90960, Note Name: C4, Velocity: 40
Note OFF: Time 91200, Note Name: C4
Note ON: Time 91200, Note Name: B3, Velocity: 45
Note OFF: Time 91440, Note Name: B3
Note ON: Time 91440, Note Name: C4, Velocity: 40
Note OFF: Time 91680, Note Name: C4
Note ON: Time 91680, Note Name: G#4, Velocity: 45
Note OFF: Time 91800, Note Name: G#4
Note ON: Time 91920, Note Name: G#4, Velocity: 38
Note OFF: Time 92040, Note Name: G#4
Note ON: Time 92160, Note Name: G4, Velocity: 45
Note OFF: Time 92640, Note Name: G4
Note ON: Time 92880, Note Name: C4, Velocity: 40
Note OFF: Time 93120, Note Name: C4
Note ON: Time 93120, Note Name: B3, Velocity: 45
Note OFF: Time 93360, Note Name: B3
Note ON: Time 93360, Note Name: C4, Velocity: 40
Note OFF: Time 93600, Note Name: C4
Note ON: Time 93600, Note Name: C5, Velocity: 45
Note OFF: Time 93720, Note Name: C5
Note ON: Time 93840, Note Name: C5, Velocity: 38
Note OFF: Time 93960, Note Name: C5
Note ON: Time 94080, Note Name: C5, Velocity: 45
Note OFF: Time 94320, Note Name: C5
Note ON: Time 94320, Note Name: D5, Velocity: 45
Note OFF: Time 94380, Note Name: D5
Note ON: Time 94380, Note Name: C5, Velocity: 45
Note OFF: Time 94440, Note Name: C5
Note ON: Time 94440, Note Name: B4, Velocity: 40
Note OFF: Time 94500, Note Name: B4
Note ON: Time 94500, Note Name: C5, Velocity: 45
Note OFF: Time 94560, Note Name: C5
Note ON: Time 94560, Note Name: D#5, Velocity: 50
Note OFF: Time 94800, Note Name: D#5
Note ON: Time 94800, Note Name: D5, Velocity: 45
Note OFF: Time 95040, Note Name: D5
Note ON: Time 95040, Note Name: F5, Velocity: 56
Note OFF: Time 95280, Note Name: F5
Note ON: Time 95280, Note Name: D#5, Velocity: 53
Note OFF: Time 95520, Note Name: D#5
Note ON: Time 95520, Note Name: D5, Velocity: 50
Note OFF: Time 95760, Note Name: D5
Note ON: Time 95760, Note Name: C5, Velocity: 47
Note OFF: Time 96000, Note Name: C5
Note ON: Time 96000, Note Name: B4, Velocity: 51
Note OFF: Time 96480, Note Name: B4
Note ON: Time 96720, Note Name: G3, Velocity: 40
Note OFF: Time 96960, Note Name: G3
Note ON: Time 96960, Note Name: F#3, Velocity: 45
Note OFF: Time 97200, Note Name: F#3
Note ON: Time 97200, Note Name: G3, Velocity: 40
Note OFF: Time 97440, Note Name: G3
Note ON: Time 97440, Note Name: C4, Velocity: 45
Note OFF: Time 97560, Note Name: C4
Note ON: Time 97680, Note Name: C4, Velocity: 38
Note OFF: Time 97800, Note Name: C4
Note ON: Time 97920, Note Name: B3, Velocity: 45
Note OFF: Time 98400, Note Name: B3
Note ON: Time 98640, Note Name: G3, Velocity: 40
Note OFF: Time 98880, Note Name: G3
Note ON: Time 98880, Note Name: F#3, Velocity: 45
Note OFF: Time 99120, Note Name: F#3
Note ON: Time 99120, Note Name: G3, Velocity: 40
Note OFF: Time 99360, Note Name: G3
Note ON: Time 99360, Note Name: D#4, Velocity: 45
Note OFF: Time 99480, Note Name: D#4
Note ON: Time 99600, Note Name: D#4, Velocity: 38
Note OFF: Time 99720, Note Name: D#4
Note ON: Time 99840, Note Name: D4, Velocity: 45
Note OFF: Time 100320, Note Name: D4
Note ON: Time 100560, Note Name: G3, Velocity: 45
Note OFF: Time 100680, Note Name: G3
Note ON: Time 100800, Note Name: B3, Velocity: 51
Note OFF: Time 100920, Note Name: B3
Note ON: Time 101040, Note Name: D4, Velocity: 45
Note OFF: Time 101160, Note Name: D4
Note ON: Time 101280, Note Name: F4, Velocity: 45
Note OFF: Time 101400, Note Name: F4
Note ON: Time 101520, Note Name: G#4, Velocity: 45
Note OFF: Time 101640, Note Name: G#4
Note ON: Time 101760, Note Name: B4, Velocity: 55
Note OFF: Time 101880, Note Name: B4
Note ON: Time 102000, Note Name: D5, Velocity: 53
Note OFF: Time 102120, Note Name: D5
Note ON: Time 102240, Note Name: F5, Velocity: 56
Note OFF: Time 102360, Note Name: F5
Note ON: Time 102480, Note Name: G#5, Velocity: 60
Note OFF: Time 102600, Note Name: G#5
Note ON: Time 102720, Note Name: G5, Velocity: 63
Note OFF: Time 102840, Note Name: G5
Note ON: Time 102960, Note Name: F5, Velocity: 59
Note OFF: Time 103080, Note Name: F5
Note ON: Time 103200, Note Name: D#5, Velocity: 55
Note OFF: Time 103320, Note Name: D#5
Note ON: Time 103440, Note Name: D5, Velocity: 54
Note OFF: Time 103560, Note Name: D5
Note ON: Time 103680, Note Name: C5, Velocity: 62
Note OFF: Time 104160, Note Name: C5
Note ON: Time 104400, Note Name: C5, Velocity: 50
Note OFF: Time 104640, Note Name: C5
Note ON: Time 104640, Note Name: B4, Velocity: 57
Note OFF: Time 104880, Note Name: B4
Note ON: Time 104880, Note Name: C5, Velocity: 53
Note OFF: Time 105120, Note Name: C5
Note ON: Time 105120, Note Name: C6, Velocity: 60
Note OFF: Time 105240, Note Name: C6
Note ON: Time 105360, Note Name: C6, Velocity: 52
Note OFF: Time 105480, Note Name: C6
Note ON: Time 105600, Note Name: C6, Velocity: 60
Note OFF: Time 106080, Note Name: C6
Note ON: Time 106320, Note Name: F6, Velocity: 59
Note OFF: Time 106560, Note Name: F6
Note ON: Time 106560, Note Name: D#6, Velocity: 65
Note OFF: Time 106800, Note Name: D#6
Note ON: Time 106800, Note Name: D6, Velocity: 60
Note OFF: Time 107040, Note Name: D6
Note ON: Time 107040, Note Name: C6, Velocity: 66
Note OFF: Time 107280, Note Name: C6
Note ON: Time 107280, Note Name: B5, Velocity: 60
Note OFF: Time 107520, Note Name: B5
Note ON: Time 107520, Note Name: D6, Velocity: 69
Note OFF: Time 107760, Note Name: D6
Note ON: Time 107760, Note Name: C6, Velocity: 60
Note OFF: Time 108000, Note Name: C6
Note ON: Time 108240, Note Name: C5, Velocity: 50
Note OFF: Time 108480, Note Name: C5
Note ON: Time 108480, Note Name: B4, Velocity: 57
Note OFF: Time 108720, Note Name: B4
Note ON: Time 108720, Note Name: C5, Velocity: 53
Note OFF: Time 108960, Note Name: C5
Note ON: Time 108960, Note Name: C6, Velocity: 60
Note OFF: Time 109080, Note Name: C6
Note ON: Time 109200, Note Name: C6, Velocity: 52
Note OFF: Time 109320, Note Name: C6
Note ON: Time 109440, Note Name: C6, Velocity: 60
Note OFF: Time 109920, Note Name: C6
Note ON: Time 109920, Note Name: D6, Velocity: 60
Note OFF: Time 109980, Note Name: D6
Note ON: Time 109980, Note Name: C6, Velocity: 60
Note OFF: Time 110040, Note Name: C6
Note ON: Time 110040, Note Name: B5, Velocity: 60
Note OFF: Time 110100, Note Name: B5
Note ON: Time 110100, Note Name: C6, Velocity: 60
Note OFF: Time 110160, Note Name: C6
Note ON: Time 110160, Note Name: F6, Velocity: 59
Note OFF: Time 110400, Note Name: F6
Note ON: Time 110400, Note Name: D#6, Velocity: 65
Note OFF: Time 110640, Note Name: D#6
Note ON: Time 110640, Note Name: D6, Velocity: 60
Note OFF: Time 110880, Note Name: D6
Note ON: Time 110880, Note Name: C6, Velocity: 66
Note OFF: Time 111120, Note Name: C6
Note ON: Time 111120, Note Name: B5, Velocity: 60
Note OFF: Time 111360, Note Name: B5
Note ON: Time 111360, Note Name: C6, Velocity: 69
Note OFF: Time 111480, Note Name: C6
Note ON: Time 111480, Note Name: D6, Velocity: 63
Note OFF: Time 111600, Note Name: D6
Note ON: Time 111600, Note Name: C6, Velocity: 63
Note OFF: Time 111720, Note Name: C6
Note ON: Time 111720, Note Name: B5, Velocity: 63
Note OFF: Time 111840, Note Name: B5
Note ON: Time 111840, Note Name: C6, Velocity: 69
Note OFF: Time 111960, Note Name: C6
Note ON: Time 111960, Note Name: D#6, Velocity: 73
Note OFF: Time 112080, Note Name: D#6
Note ON: Time 112080, Note Name: D6, Velocity: 72
Note OFF: Time 112200, Note Name: D6
Note ON: Time 112200, Note Name: C6, Velocity: 71
Note OFF: Time 112320, Note Name: C6
Note ON: Time 112320, Note Name: B5, Velocity: 72
Note OFF: Time 112440, Note Name: B5
Note ON: Time 112440, Note Name: C6, Velocity: 65
Note OFF: Time 112560, Note Name: C6
Note ON: Time 112560, Note Name: B5, Velocity: 65
Note OFF: Time 112680, Note Name: B5
Note ON: Time 112680, Note Name: G#5, Velocity: 65
Note OFF: Time 112800, Note Name: G#5
Note ON: Time 112800, Note Name: G5, Velocity: 69
Note OFF: Time 112920, Note Name: G5
Note ON: Time 112920, Note Name: F5, Velocity: 63
Note OFF: Time 113040, Note Name: F5
Note ON: Time 113040, Note Name: D#5, Velocity: 63
Note OFF: Time 113160, Note Name: D#5
Note ON: Time 113160, Note Name: D5, Velocity: 63
Note OFF: Time 113280, Note Name: D5
Note ON: Time 113280, Note Name: C5, Velocity: 69
Note OFF: Time 113400, Note Name: C5
Note ON: Time 113400, Note Name: D5, Velocity: 63
Note OFF: Time 113520, Note Name: D5
Note ON: Time 113520, Note Name: C5, Velocity: 63
Note OFF: Time 113640, Note Name: C5
Note ON: Time 113640, Note Name: B4, Velocity: 61
Note OFF: Time 113760, Note Name: B4
Note ON: Time 113760, Note Name: C5, Velocity: 66
Note OFF: Time 113880, Note Name: C5
Note ON: Time 113880, Note Name: D#5, Velocity: 72
Note OFF: Time 114000, Note Name: D#5
Note ON: Time 114000, Note Name: D5, Velocity: 70
Note OFF: Time 114120, Note Name: D5
Note ON: Time 114120, Note Name: C5, Velocity: 67
Note OFF: Time 114240, Note Name: C5
Note ON: Time 114240, Note Name: B4, Velocity: 69
Note OFF: Time 114360, Note Name: B4
Note ON: Time 114360, Note Name: C5, Velocity: 63
Note OFF: Time 114480, Note Name: C5
Note ON: Time 114480, Note Name: B4, Velocity: 63
Note OFF: Time 114600, Note Name: B4
Note ON: Time 114600, Note Name: G#4, Velocity: 63
Note OFF: Time 114720, Note Name: G#4
Note ON: Time 114720, Note Name: G4, Velocity: 69
Note OFF: Time 114840, Note Name: G4
Note ON: Time 114840, Note Name: F4, Velocity: 63
Note OFF: Time 114960, Note Name: F4
Note ON: Time 114960, Note Name: D#4, Velocity: 63
Note OFF: Time 115080, Note Name: D#4
Note ON: Time 115080, Note Name: D4, Velocity: 63
Note OFF: Time 115200, Note Name: D4
Note ON: Time 115200, Note Name: C4, Velocity: 77
Note OFF: Time 115320, Note Name: C4
Note ON: Time 115320, Note Name: D4, Velocity: 69
Note OFF: Time 115440, Note Name: D4
Note ON: Time 115440, Note Name: C4, Velocity: 69
Note OFF: Time 115560, Note Name: C4
Note ON: Time 115560, Note Name: B3, Velocity: 69
Note OFF: Time 115680, Note Name: B3
Note ON: Time 115680, Note Name: C4, Velocity: 77
Note OFF: Time 115800, Note Name: C4
Note ON: Time 115800, Note Name: D#4, Velocity: 69
Note OFF: Time 115920, Note Name: D#4
Note ON: Time 115920, Note Name: D4, Velocity: 69
Note OFF: Time 116040, Note Name: D4
Note ON: Time 116040, Note Name: C4, Velocity: 69
Note OFF: Time 116160, Note Name: C4
Note ON: Time 116160, Note Name: B3, Velocity: 77
Note OFF: Time 116280, Note Name: B3
Note ON: Time 116280, Note Name: G4, Velocity: 69
Note OFF: Time 116400, Note Name: G4
Note ON: Time 116400, Note Name: D4, Velocity: 69
Note OFF: Time 116520, Note Name: D4
Note ON: Time 116520, Note Name: B3, Velocity: 69
Note OFF: Time 116640, Note Name: B3
Note ON: Time 116640, Note Name: G3, Velocity: 79
Note OFF: Time 116760, Note Name: G3
Note ON: Time 116760, Note Name: G4, Velocity: 69
Note OFF: Time 116880, Note Name: G4
Note ON: Time 116880, Note Name: D#4, Velocity: 69
Note OFF: Time 117000, Note Name: D#4
Note ON: Time 117000, Note Name: C4, Velocity: 69
Note OFF: Time 117120, Note Name: C4
Note ON: Time 117120, Note Name: G3, Velocity: 81
Note OFF: Time 117240, Note Name: G3
Note ON: Time 117240, Note Name: G4, Velocity: 69
Note OFF: Time 117360, Note Name: G4
Note ON: Time 117360, Note Name: D4, Velocity: 69
Note OFF: Time 117480, Note Name: D4
Note ON: Time 117480, Note Name: B3, Velocity: 69
Note OFF: Time 117600, Note Name: B3
Note ON: Time 117600, Note Name: G3, Velocity: 80
Note OFF: Time 117720, Note Name: G3
Note ON: Time 117720, Note Name: G4, Velocity: 69
Note OFF: Time 117840, Note Name: G4
Note ON: Time 117840, Note Name: D#4, Velocity: 69
Note OFF: Time 117960, Note Name: D#4
Note ON: Time 117960, Note Name: C4, Velocity: 69
Note OFF: Time 118080, Note Name: C4
Note ON: Time 118080, Note Name: G3, Velocity: 80
Note OFF: Time 118200, Note Name: G3
Note ON: Time 118200, Note Name: G4, Velocity: 69
Note OFF: Time 118320, Note Name: G4
Note ON: Time 118320, Note Name: D4, Velocity: 69
Note OFF: Time 118440, Note Name: D4
Note ON: Time 118440, Note Name: B3, Velocity: 69
Note OFF: Time 118560, Note Name: B3
Note ON: Time 118560, Note Name: G3, Velocity: 80
Note OFF: Time 118680, Note Name: G3
Note ON: Time 118680, Note Name: G4, Velocity: 69
Note OFF: Time 118800, Note Name: G4
Note ON: Time 118800, Note Name: D#4, Velocity: 69
Note OFF: Time 118920, Note Name: D#4
Note ON: Time 118920, Note Name: C4, Velocity: 69
Note OFF: Time 119040, Note Name: C4
Note ON: Time 119040, Note Name: G3, Velocity: 74
Note ON: Time 119040, Note Name: B3, Velocity: 74
Note ON: Time 119040, Note Name: D4, Velocity: 74
Note ON: Time 119040, Note Name: G4, Velocity: 89
Note OFF: Time 120000, Note Name: G4
Note OFF: Time 120000, Note Name: G3
Note OFF: Time 120000, Note Name: B3
Note OFF: Time 120000, Note Name: D4
Note ON: Time 120240, Note Name: A#3, Velocity: 40
Note OFF: Time 120360, Note Name: A#3
Note ON: Time 120480, Note Name: C4, Velocity: 37
Note OFF: Time 120600, Note Name: C4
Note ON: Time 120720, Note Name: D4, Velocity: 37
Note OFF: Time 120840, Note Name: D4
Note ON: Time 120960, Note Name: G3, Velocity: 39
Note ON: Time 120960, Note Name: A#3, Velocity: 39
Note ON: Time 120960, Note Name: D#4, Velocity: 46
Note OFF: Time 121080, Note Name: D#4
Note ON: Time 121200, Note Name: F4, Velocity: 40
Note OFF: Time 121320, Note Name: F4
Note ON: Time 121440, Note Name: G4, Velocity: 40
Note OFF: Time 121560, Note Name: G4
Note OFF: Time 121920, Note Name: A#3
Note OFF: Time 121920, Note Name: G3
Note ON: Time 121920, Note Name: A#3, Velocity: 38
Note ON: Time 121920, Note Name: D4, Velocity: 38
Note ON: Time 121920, Note Name: F4, Velocity: 45
Note OFF: Time 122040, Note Name: F4
Note OFF: Time 122040, Note Name: D4
Note OFF: Time 122040, Note Name: A#3
Note ON: Time 122400, Note Name: A#3, Velocity: 33
Note ON: Time 122400, Note Name: D#4, Velocity: 39
Note OFF: Time 122520, Note Name: D#4
Note OFF: Time 122520, Note Name: A#3
Note ON: Time 122880, Note Name: G#3, Velocity: 37
Note ON: Time 122880, Note Name: A#3, Velocity: 37
Note ON: Time 122880, Note Name: D4, Velocity: 37
Note ON: Time 122880, Note Name: G#4, Velocity: 45
Note OFF: Time 123840, Note Name: G#4
Note OFF: Time 123840, Note Name: G#3
Note OFF: Time 123840, Note Name: A#3
Note OFF: Time 123840, Note Name: D4
Note ON: Time 124080, Note Name: A#3, Velocity: 40
Note OFF: Time 124200, Note Name: A#3
Note ON: Time 124320, Note Name: C4, Velocity: 37
Note OFF: Time 124440, Note Name: C4
Note ON: Time 124560, Note Name: D4, Velocity: 37
Note OFF: Time 124680, Note Name: D4
Note ON: Time 124800, Note Name: G3, Velocity: 39
Note ON: Time 124800, Note Name: A#3, Velocity: 39
Note ON: Time 124800, Note Name: D#4, Velocity: 46
Note OFF: Time 124920, Note Name: D#4
Note ON: Time 125040, Note Name: F4, Velocity: 40
Note OFF: Time 125160, Note Name: F4
Note ON: Time 125280, Note Name: G4, Velocity: 40
Note OFF: Time 125400, Note Name: G4
Note OFF: Time 125760, Note Name: A#3
Note OFF: Time 125760, Note Name: G3
Note ON: Time 125760, Note Name: F3, Velocity: 38
Note ON: Time 125760, Note Name: C4, Velocity: 38
Note ON: Time 125760, Note Name: F4, Velocity: 45
Note OFF: Time 125880, Note Name: F4
Note OFF: Time 125880, Note Name: C4
Note OFF: Time 125880, Note Name: F3
Note ON: Time 126240, Note Name: C4, Velocity: 33
Note ON: Time 126240, Note Name: F3, Velocity: 33
Note ON: Time 126240, Note Name: D#4, Velocity: 39
Note OFF: Time 126360, Note Name: D#4
Note OFF: Time 126360, Note Name: F3
Note OFF: Time 126360, Note Name: C4
Note ON: Time 126720, Note Name: D3, Velocity: 31
Note ON: Time 126720, Note Name: F3, Velocity: 31
Note ON: Time 126720, Note Name: A#3, Velocity: 37
Note OFF: Time 127680, Note Name: A#3
Note OFF: Time 127680, Note Name: F3
Note OFF: Time 127680, Note Name: D3
Note ON: Time 127920, Note Name: A#3, Velocity: 40
Note OFF: Time 128040, Note Name: A#3
Note ON: Time 128160, Note Name: C4, Velocity: 37
Note OFF: Time 128280, Note Name: C4
Note ON: Time 128400, Note Name: D4, Velocity: 37
Note OFF: Time 128520, Note Name: D4
Note ON: Time 128640, Note Name: G3, Velocity: 39
Note ON: Time 128640, Note Name: A#3, Velocity: 39
Note ON: Time 128640, Note Name: D#4, Velocity: 46
Note OFF: Time 128760, Note Name: D#4
Note ON: Time 128880, Note Name: F4, Velocity: 40
Note OFF: Time 129000, Note Name: F4
Note ON: Time 129120, Note Name: G4, Velocity: 40
Note OFF: Time 129240, Note Name: G4
Note OFF: Time 129600, Note Name: A#3
Note OFF: Time 129600, Note Name: G3
Note ON: Time 129600, Note Name: A#3, Velocity: 38
Note ON: Time 129600, Note Name: D4, Velocity: 38
Note ON: Time 129600, Note Name: F4, Velocity: 45
Note OFF: Time 129720, Note Name: F4
Note OFF: Time 129720, Note Name: D4
Note OFF: Time 129720, Note Name: A#3
Note ON: Time 130080, Note Name: A#3, Velocity: 33
Note ON: Time 130080, Note Name: D#4, Velocity: 39
Note OFF: Time 130200, Note Name: D#4
Note OFF: Time 130200, Note Name: A#3
Note ON: Time 130515, Note Name: C4, Velocity: 45
Note ON: Time 130530, Note Name: D#4, Velocity: 50
Note ON: Time 130545, Note Name: G#4, Velocity: 63
Note ON: Time 130560, Note Name: C5, Velocity: 72
Note OFF: Time 131520, Note Name: G#4
Note OFF: Time 131520, Note Name: C4
Note OFF: Time 131520, Note Name: D#4
Note OFF: Time 131760, Note Name: C5
Note ON: Time 131760, Note Name: C5, Velocity: 48
Note OFF: Time 131880, Note Name: C5
Note ON: Time 132000, Note Name: A#4, Velocity: 53
Note OFF: Time 132120, Note Name: A#4
Note ON: Time 132240, Note Name: G#4, Velocity: 50
Note OFF: Time 132360, Note Name: G#4
Note ON: Time 132480, Note Name: G4, Velocity: 53
Note OFF: Time 132720, Note Name: G4
Note ON: Time 132720, Note Name: F4, Velocity: 48
Note OFF: Time 132960, Note Name: F4
Note ON: Time 132960, Note Name: D#4, Velocity: 48
Note OFF: Time 133080, Note Name: D#4
Note ON: Time 133200, Note Name: D4, Velocity: 48
Note OFF: Time 133320, Note Name: D4
Note ON: Time 133440, Note Name: F3, Velocity: 45
Note ON: Time 133440, Note Name: G#3, Velocity: 45
Note ON: Time 133440, Note Name: C4, Velocity: 53
Note OFF: Time 133920, Note Name: C4
Note ON: Time 133920, Note Name: A#3, Velocity: 49
Note OFF: Time 134400, Note Name: A#3
Note OFF: Time 134400, Note Name: G#3
Note OFF: Time 134400, Note Name: F3
Note ON: Time 134400, Note Name: D#3, Velocity: 41
Note ON: Time 134400, Note Name: G3, Velocity: 41
Note ON: Time 134400, Note Name: A#3, Velocity: 49
Note OFF: Time 135360, Note Name: A#3
Note OFF: Time 135360, Note Name: G3
Note OFF: Time 135360, Note Name: D#3
Note ON: Time 135600, Note Name: A#4, Velocity: 48
Note OFF: Time 135720, Note Name: A#4
Note ON: Time 135840, Note Name: G#4, Velocity: 53
Note OFF: Time 135960, Note Name: G#4
Note ON: Time 136080, Note Name: G4, Velocity: 50
Note OFF: Time 136200, Note Name: G4
Note ON: Time 136320, Note Name: G4, Velocity: 53
Note OFF: Time 136560, Note Name: G4
Note ON: Time 136560, Note Name: F4, Velocity: 48
Note OFF: Time 136800, Note Name: F4
Note ON: Time 136800, Note Name: D#4, Velocity: 48
Note OFF: Time 136920, Note Name: D#4
Note ON: Time 137040, Note Name: D4, Velocity: 48
Note OFF: Time 137160, Note Name: D4
Note ON: Time 137280, Note Name: F3, Velocity: 45
Note ON: Time 137280, Note Name: G#3, Velocity: 45
Note ON: Time 137280, Note Name: C4, Velocity: 53
Note OFF: Time 137760, Note Name: C4
Note ON: Time 137760, Note Name: A#3, Velocity: 49
Note OFF: Time 138240, Note Name: A#3
Note OFF: Time 138240, Note Name: G#3
Note OFF: Time 138240, Note Name: F3
Note ON: Time 138240, Note Name: D#3, Velocity: 54
Note ON: Time 138240, Note Name: G3, Velocity: 54
Note ON: Time 138240, Note Name: A#3, Velocity: 54
Note OFF: Time 139200, Note Name: A#3
Note OFF: Time 139200, Note Name: G3
Note OFF: Time 139200, Note Name: D#3
Note ON: Time 139440, Note Name: A#5, Velocity: 48
Note ON: Time 139440, Note Name: A#4, Velocity: 48
Note OFF: Time 139560, Note Name: A#4
Note OFF: Time 139560, Note Name: A#5
Note ON: Time 139680, Note Name: G#5, Velocity: 53
Note ON: Time 139680, Note Name: G#4, Velocity: 53
Note OFF: Time 139800, Note Name: G#4
Note OFF: Time 139800, Note Name: G#5
Note ON: Time 139920, Note Name: G5, Velocity: 50
Note ON: Time 139920, Note Name: G4, Velocity: 50
Note OFF: Time 140040, Note Name: G4
Note OFF: Time 140040, Note Name: G5
Note ON: Time 140160, Note Name: G5, Velocity: 55
Note ON: Time 140160, Note Name: G4, Velocity: 55
Note OFF: Time 140400, Note Name: G4
Note OFF: Time 140400, Note Name: G5
Note ON: Time 140400, Note Name: F5, Velocity: 48
Note ON: Time 140400, Note Name: F4, Velocity: 48
Note OFF: Time 140640, Note Name: F4
Note OFF: Time 140640, Note Name: F5
Note ON: Time 140640, Note Name: D#5, Velocity: 48
Note ON: Time 140640, Note Name: D#4, Velocity: 48
Note OFF: Time 140760, Note Name: D#4
Note OFF: Time 140760, Note Name: D#5
Note ON: Time 140880, Note Name: D5, Velocity: 48
Note ON: Time 140880, Note Name: D4, Velocity: 48
Note OFF: Time 141000, Note Name: D4
Note OFF: Time 141000, Note Name: D5
Note ON: Time 141120, Note Name: C4, Velocity: 55
Note ON: Time 141120, Note Name: C5, Velocity: 55
Note OFF: Time 141240, Note Name: C5
Note OFF: Time 141240, Note Name: C4
Note ON: Time 141360, Note Name: A#3, Velocity: 48
Note ON: Time 141360, Note Name: A#4, Velocity: 48
Note OFF: Time 141480, Note Name: A#4
Note OFF: Time 141480, Note Name: A#3
Note ON: Time 141600, Note Name: C4, Velocity: 48
Note ON: Time 141600, Note Name: C5, Velocity: 48
Note OFF: Time 141720, Note Name: C5
Note OFF: Time 141720, Note Name: C4
Note ON: Time 141840, Note Name: D4, Velocity: 48
Note ON: Time 141840, Note Name: D5, Velocity: 48
Note OFF: Time 141960, Note Name: D5
Note OFF: Time 141960, Note Name: D4
Note ON: Time 142080, Note Name: D#4, Velocity: 48
Note OFF: Time 142200, Note Name: D#4
Note ON: Time 142200, Note Name: D#5, Velocity: 43
Note OFF: Time 142320, Note Name: D#5
Note ON: Time 142320, Note Name: D#4, Velocity: 48
Note OFF: Time 142440, Note Name: D#4
Note ON: Time 142440, Note Name: D#5, Velocity: 42
Note OFF: Time 142560, Note Name: D#5
Note ON: Time 142560, Note Name: D#4, Velocity: 49
Note OFF: Time 142680, Note Name: D#4
Note ON: Time 142680, Note Name: D#5, Velocity: 43
Note OFF: Time 142800, Note Name: D#5
Note ON: Time 142800, Note Name: D#4, Velocity: 50
Note OFF: Time 142920, Note Name: D#4
Note ON: Time 142920, Note Name: D#5, Velocity: 45
Note OFF: Time 143040, Note Name: D#5
Note ON: Time 143040, Note Name: D#4, Velocity: 51
Note OFF: Time 143160, Note Name: D#4
Note ON: Time 143160, Note Name: D#5, Velocity: 44
Note OFF: Time 143280, Note Name: D#5
Note ON: Time 143280, Note Name: D#4, Velocity: 52
Note OFF: Time 143400, Note Name: D#4
Note ON: Time 143400, Note Name: D#5, Velocity: 47
Note OFF: Time 143520, Note Name: D#5
Note ON: Time 143520, Note Name: D#4, Velocity: 53
Note OFF: Time 143640, Note Name: D#4
Note ON: Time 143640, Note Name: D#5, Velocity: 47
Note OFF: Time 143760, Note Name: D#5
Note ON: Time 143760, Note Name: D#4, Velocity: 53
Note OFF: Time 143880, Note Name: D#4
Note ON: Time 143880, Note Name: D#5, Velocity: 47
Note OFF: Time 144000, Note Name: D#5
Note ON: Time 144000, Note Name: D#4, Velocity: 54
Note OFF: Time 144120, Note Name: D#4
Note ON: Time 144120, Note Name: D#5, Velocity: 48
Note OFF: Time 144240, Note Name: D#5
Note ON: Time 144240, Note Name: D#4, Velocity: 55
Note OFF: Time 144360, Note Name: D#4
Note ON: Time 144360, Note Name: D#5, Velocity: 48
Note OFF: Time 144480, Note Name: D#5
Note ON: Time 144480, Note Name: D#4, Velocity: 55
Note OFF: Time 144600, Note Name: D#4
Note ON: Time 144600, Note Name: D#5, Velocity: 48
Note OFF: Time 144720, Note Name: D#5
Note ON: Time 144720, Note Name: D#4, Velocity: 56
Note OFF: Time 144840, Note Name: D#4
Note ON: Time 144840, Note Name: D#5, Velocity: 51
Note OFF: Time 144960, Note Name: D#5
Note ON: Time 144960, Note Name: D#4, Velocity: 57
Note OFF: Time 145080, Note Name: D#4
Note ON: Time 145080, Note Name: D#5, Velocity: 49
Note OFF: Time 145200, Note Name: D#5
Note ON: Time 145200, Note Name: D#4, Velocity: 58
Note OFF: Time 145320, Note Name: D#4
Note ON: Time 145320, Note Name: D#5, Velocity: 53
Note OFF: Time 145440, Note Name: D#5
Note ON: Time 145440, Note Name: D#4, Velocity: 59
Note OFF: Time 145560, Note Name: D#4
Note ON: Time 145560, Note Name: D#5, Velocity: 54
Note OFF: Time 145680, Note Name: D#5
Note ON: Time 145680, Note Name: D#4, Velocity: 60
Note OFF: Time 145800, Note Name: D#4
Note ON: Time 145800, Note Name: D#5, Velocity: 54
Note OFF: Time 145920, Note Name: D#5
Note ON: Time 145920, Note Name: D#4, Velocity: 70
Note ON: Time 145920, Note Name: D#5, Velocity: 70
Note OFF: Time 146400, Note Name: D#5
Note OFF: Time 146400, Note Name: D#4
Note ON: Time 146640, Note Name: D#5, Velocity: 74
Note OFF: Time 146880, Note Name: D#5
Note ON: Time 146880, Note Name: D5, Velocity: 84
Note OFF: Time 147120, Note Name: D5
Note ON: Time 147120, Note Name: D#5, Velocity: 77
Note OFF: Time 147360, Note Name: D#5
Note ON: Time 147360, Note Name: C6, Velocity: 86
Note ON: Time 147360, Note Name: G#5, Velocity: 86
Note OFF: Time 147480, Note Name: G#5
Note OFF: Time 147480, Note Name: C6
Note ON: Time 147600, Note Name: G#5, Velocity: 79
Note ON: Time 147600, Note Name: C6, Velocity: 79
Note OFF: Time 147720, Note Name: C6
Note OFF: Time 147720, Note Name: G#5
Note ON: Time 147840, Note Name: G#5, Velocity: 92
Note ON: Time 147840, Note Name: C6, Velocity: 92
Note OFF: Time 148320, Note Name: G#5
Note OFF: Time 148440, Note Name: C6
Note ON: Time 148440, Note Name: A#5, Velocity: 74
Note OFF: Time 148560, Note Name: A#5
Note ON: Time 148560, Note Name: G#5, Velocity: 73
Note OFF: Time 148680, Note Name: G#5
Note ON: Time 148680, Note Name: G5, Velocity: 72
Note OFF: Time 148800, Note Name: G5
Note ON: Time 148800, Note Name: F5, Velocity: 72
Note OFF: Time 148920, Note Name: F5
Note ON: Time 148920, Note Name: D#5, Velocity: 72
Note OFF: Time 149040, Note Name: D#5
Note ON: Time 149040, Note Name: D5, Velocity: 71
Note OFF: Time 149160, Note Name: D5
Note ON: Time 149160, Note Name: C5, Velocity: 70
Note OFF: Time 149280, Note Name: C5
Note ON: Time 149280, Note Name: B4, Velocity: 69
Note OFF: Time 149400, Note Name: B4
Note ON: Time 149400, Note Name: A#4, Velocity: 68
Note OFF: Time 149520, Note Name: A#4
Note ON: Time 149520, Note Name: A4, Velocity: 67
Note OFF: Time 149640, Note Name: A4
Note ON: Time 149640, Note Name: G#4, Velocity: 66
Note OFF: Time 149760, Note Name: G#4
Note ON: Time 149760, Note Name: G4, Velocity: 66
Note OFF: Time 149920, Note Name: G4
Note ON: Time 149920, Note Name: G#4, Velocity: 62
Note OFF: Time 150080, Note Name: G#4
Note ON: Time 150080, Note Name: A#4, Velocity: 62
Note OFF: Time 150240, Note Name: A#4
Note ON: Time 150240, Note Name: G#4, Velocity: 66
Note OFF: Time 150400, Note Name: G#4
Note ON: Time 150400, Note Name: G4, Velocity: 62
Note OFF: Time 150560, Note Name: G4
Note ON: Time 150560, Note Name: F4, Velocity: 62
Note OFF: Time 150720, Note Name: F4
Note ON: Time 150720, Note Name: D#4, Velocity: 66
Note OFF: Time 150880, Note Name: D#4
Note ON: Time 150880, Note Name: D4, Velocity: 62
Note OFF: Time 151040, Note Name: D4
Note ON: Time 151040, Note Name: C4, Velocity: 62
Note OFF: Time 151200, Note Name: C4
Note ON: Time 151200, Note Name: A#3, Velocity: 66
Note OFF: Time 151360, Note Name: A#3
Note ON: Time 151360, Note Name: G#3, Velocity: 60
Note OFF: Time 151520, Note Name: G#3
Note ON: Time 151520, Note Name: G3, Velocity: 63
Note OFF: Time 151680, Note Name: G3
Note ON: Time 151800, Note Name: F3, Velocity: 59
Note OFF: Time 151920, Note Name: F3
Note ON: Time 151920, Note Name: G#3, Velocity: 63
Note OFF: Time 152040, Note Name: G#3
Note ON: Time 152040, Note Name: C4, Velocity: 67
Note OFF: Time 152160, Note Name: C4
Note ON: Time 152160, Note Name: F4, Velocity: 72
Note OFF: Time 152400, Note Name: F4
Note ON: Time 152760, Note Name: F3, Velocity: 63
Note OFF: Time 152880, Note Name: F3
Note ON: Time 152880, Note Name: G#3, Velocity: 66
Note OFF: Time 153000, Note Name: G#3
Note ON: Time 153000, Note Name: A#3, Velocity: 69
Note OFF: Time 153120, Note Name: A#3
Note ON: Time 153120, Note Name: D4, Velocity: 72
Note OFF: Time 153360, Note Name: D4
Note ON: Time 153600, Note Name: D5, Velocity: 67
Note OFF: Time 153720, Note Name: D5
Note ON: Time 153720, Note Name: D6, Velocity: 60
Note OFF: Time 153840, Note Name: D6
Note ON: Time 153840, Note Name: D5, Velocity: 67
Note OFF: Time 153960, Note Name: D5
Note ON: Time 153960, Note Name: D6, Velocity: 60
Note OFF: Time 154080, Note Name: D6
Note ON: Time 154080, Note Name: D5, Velocity: 67
Note OFF: Time 154200, Note Name: D5
Note ON: Time 154200, Note Name: D6, Velocity: 59
Note OFF: Time 154320, Note Name: D6
Note ON: Time 154320, Note Name: D5, Velocity: 67
Note OFF: Time 154440, Note Name: D5
Note ON: Time 154440, Note Name: D6, Velocity: 61
Note OFF: Time 154560, Note Name: D6
Note ON: Time 154560, Note Name: D5, Velocity: 67
Note OFF: Time 154680, Note Name: D5
Note ON: Time 154680, Note Name: D6, Velocity: 59
Note OFF: Time 154800, Note Name: D6
Note ON: Time 154800, Note Name: D5, Velocity: 67
Note OFF: Time 154920, Note Name: D5
Note ON: Time 154920, Note Name: D6, Velocity: 59
Note OFF: Time 155040, Note Name: D6
Note ON: Time 155040, Note Name: D5, Velocity: 67
Note OFF: Time 155160, Note Name: D5
Note ON: Time 155160, Note Name: D6, Velocity: 59
Note OFF: Time 155280, Note Name: D6
Note ON: Time 155280, Note Name: D5, Velocity: 67
Note OFF: Time 155400, Note Name: D5
Note ON: Time 155400, Note Name: D6, Velocity: 60
Note OFF: Time 155520, Note Name: D6
Note ON: Time 155520, Note Name: D#5, Velocity: 67
Note OFF: Time 155640, Note Name: D#5
Note ON: Time 155640, Note Name: D#6, Velocity: 60
Note OFF: Time 155760, Note Name: D#6
Note ON: Time 155760, Note Name: D#5, Velocity: 69
Note OFF: Time 155880, Note Name: D#5
Note ON: Time 155880, Note Name: D#6, Velocity: 62
Note OFF: Time 156000, Note Name: D#6
Note ON: Time 156000, Note Name: D#5, Velocity: 71
Note OFF: Time 156120, Note Name: D#5
Note ON: Time 156120, Note Name: D#6, Velocity: 63
Note OFF: Time 156240, Note Name: D#6
Note ON: Time 156240, Note Name: D#5, Velocity: 72
Note OFF: Time 156360, Note Name: D#5
Note ON: Time 156360, Note Name: D#6, Velocity: 67
Note OFF: Time 156480, Note Name: D#6
Note ON: Time 156480, Note Name: D#5, Velocity: 75
Note OFF: Time 156600, Note Name: D#5
Note ON: Time 156600, Note Name: D#6, Velocity: 67
Note OFF: Time 156720, Note Name: D#6
Note ON: Time 156720, Note Name: D#5, Velocity: 77
Note OFF: Time 156840, Note Name: D#5
Note ON: Time 156840, Note Name: D#6, Velocity: 69
Note OFF: Time 156960, Note Name: D#6
Note ON: Time 156960, Note Name: E5, Velocity: 80
Note OFF: Time 157080, Note Name: E5
Note ON: Time 157080, Note Name: E6, Velocity: 71
Note OFF: Time 157200, Note Name: E6
Note ON: Time 157200, Note Name: E5, Velocity: 81
Note OFF: Time 157320, Note Name: E5
Note ON: Time 157320, Note Name: E6, Velocity: 73
Note OFF: Time 157440, Note Name: E6
Note ON: Time 157560, Note Name: F5, Velocity: 71
Note OFF: Time 157680, Note Name: F5
Note ON: Time 157680, Note Name: G#5, Velocity: 76
Note OFF: Time 157800, Note Name: G#5
Note ON: Time 157800, Note Name: C6, Velocity: 81
Note OFF: Time 157920, Note Name: C6
Note ON: Time 157920, Note Name: F6, Velocity: 86
Note OFF: Time 158160, Note Name: F6
Note ON: Time 158520, Note Name: D5, Velocity: 75
Note OFF: Time 158640, Note Name: D5
Note ON: Time 158640, Note Name: F5, Velocity: 79
Note OFF: Time 158760, Note Name: F5
Note ON: Time 158760, Note Name: G#5, Velocity: 82
Note OFF: Time 158880, Note Name: G#5
Note ON: Time 158880, Note Name: D6, Velocity: 86
Note OFF: Time 159120, Note Name: D6
Note ON: Time 159360, Note Name: D#5, Velocity: 80
Note ON: Time 159360, Note Name: A#5, Velocity: 80
Note ON: Time 159360, Note Name: G5, Velocity: 80
Note ON: Time 159360, Note Name: D#6, Velocity: 94
Note OFF: Time 159840, Note Name: D#6
Note OFF: Time 159840, Note Name: D#5
Note OFF: Time 159840, Note Name: A#5
Note OFF: Time 159840, Note Name: G5
Note ON: Time 159840, Note Name: A#5, Velocity: 63
Note OFF: Time 159960, Note Name: A#5
Note ON: Time 160080, Note Name: A#5, Velocity: 63
Note OFF: Time 160200, Note Name: A#5
Note ON: Time 160320, Note Name: A#5, Velocity: 70
Note OFF: Time 160560, Note Name: A#5
Note ON: Time 160800, Note Name: A#5, Velocity: 63
Note OFF: Time 160920, Note Name: A#5
Note ON: Time 161040, Note Name: A#5, Velocity: 63
Note OFF: Time 161160, Note Name: A#5
Note ON: Time 161280, Note Name: A#5, Velocity: 69
Note OFF: Time 161520, Note Name: A#5
Note ON: Time 161760, Note Name: F3, Velocity: 60
Note ON: Time 161760, Note Name: G#3, Velocity: 60
Note ON: Time 161760, Note Name: D4, Velocity: 72
Note OFF: Time 162000, Note Name: D4
Note OFF: Time 162000, Note Name: G#3
Note OFF: Time 162000, Note Name: F3
Note ON: Time 162720, Note Name: F3, Velocity: 33
Note ON: Time 162720, Note Name: G#3, Velocity: 33
Note ON: Time 162720, Note Name: D4, Velocity: 39
Note OFF: Time 162840, Note Name: D4
Note OFF: Time 162840, Note Name: G#3
Note OFF: Time 162840, Note Name: F3
Note ON: Time 163200, Note Name: G3, Velocity: 37
Note ON: Time 163200, Note Name: D#4, Velocity: 45
Note OFF: Time 163320, Note Name: D#4
Note OFF: Time 163320, Note Name: G3
Note ON: Time 163680, Note Name: C4, Velocity: 35
Note ON: Time 163680, Note Name: D#4, Velocity: 35
Note ON: Time 163680, Note Name: F4, Velocity: 41
Note OFF: Time 163800, Note Name: F4
Note OFF: Time 163800, Note Name: D#4
Note OFF: Time 163800, Note Name: C4
Note ON: Time 164160, Note Name: A#3, Velocity: 37
Note ON: Time 164160, Note Name: D#4, Velocity: 37
Note ON: Time 164160, Note Name: G4, Velocity: 45
Note OFF: Time 164280, Note Name: G4
Note OFF: Time 164280, Note Name: D#4
Note OFF: Time 164280, Note Name: A#3
Note ON: Time 164640, Note Name: G#3, Velocity: 33
Note ON: Time 164640, Note Name: D4, Velocity: 33
Note ON: Time 164640, Note Name: F4, Velocity: 39
Note OFF: Time 164760, Note Name: F4
Note OFF: Time 164760, Note Name: D4
Note OFF: Time 164760, Note Name: G#3
Note ON: Time 165120, Note Name: G3, Velocity: 37
Note ON: Time 165120, Note Name: D#4, Velocity: 45
Note OFF: Time 165240, Note Name: D#4
Note OFF: Time 165240, Note Name: G3
Note ON: Time 165600, Note Name: A#5, Velocity: 63
Note OFF: Time 165720, Note Name: A#5
Note ON: Time 165720, Note Name: C6, Velocity: 59
Note OFF: Time 165840, Note Name: C6
Note ON: Time 165840, Note Name: A#5, Velocity: 63
Note OFF: Time 165960, Note Name: A#5
Note ON: Time 165960, Note Name: A5, Velocity: 59
Note OFF: Time 166080, Note Name: A5
Note ON: Time 166080, Note Name: A#5, Velocity: 70
Note OFF: Time 166320, Note Name: A#5
Note ON: Time 166560, Note Name: A#5, Velocity: 63
Note OFF: Time 166680, Note Name: A#5
Note ON: Time 166680, Note Name: C6, Velocity: 58
Note OFF: Time 166800, Note Name: C6
Note ON: Time 166800, Note Name: A#5, Velocity: 63
Note OFF: Time 166920, Note Name: A#5
Note ON: Time 166920, Note Name: A5, Velocity: 57
Note OFF: Time 167040, Note Name: A5
Note ON: Time 167040, Note Name: A#5, Velocity: 69
Note OFF: Time 167280, Note Name: A#5
Note ON: Time 167520, Note Name: F3, Velocity: 60
Note ON: Time 167520, Note Name: G#3, Velocity: 60
Note ON: Time 167520, Note Name: D4, Velocity: 72
Note OFF: Time 167760, Note Name: D4
Note OFF: Time 167760, Note Name: G#3
Note OFF: Time 167760, Note Name: F3
Note ON: Time 168480, Note Name: D#3, Velocity: 55
Note ON: Time 168480, Note Name: F#3, Velocity: 55
Note ON: Time 168480, Note Name: A3, Velocity: 55
Note ON: Time 168480, Note Name: D#4, Velocity: 66
Note OFF: Time 169440, Note Name: D#4
Note OFF: Time 169440, Note Name: D#3
Note OFF: Time 169440, Note Name: F#3
Note OFF: Time 169440, Note Name: A3
Note ON: Time 169440, Note Name: C4, Velocity: 35
Note ON: Time 169440, Note Name: D#4, Velocity: 35
Note ON: Time 169440, Note Name: F4, Velocity: 41
Note OFF: Time 169560, Note Name: F4
Note OFF: Time 169560, Note Name: D#4
Note OFF: Time 169560, Note Name: C4
Note ON: Time 169920, Note Name: A#3, Velocity: 37
Note ON: Time 169920, Note Name: D#4, Velocity: 37
Note ON: Time 169920, Note Name: G4, Velocity: 45
Note OFF: Time 170040, Note Name: G4
Note OFF: Time 170040, Note Name: D#4
Note OFF: Time 170040, Note Name: A#3
Note ON: Time 170400, Note Name: G#3, Velocity: 33
Note ON: Time 170400, Note Name: D4, Velocity: 33
Note ON: Time 170400, Note Name: F4, Velocity: 39
Note OFF: Time 170520, Note Name: F4
Note OFF: Time 170520, Note Name: D4
Note OFF: Time 170520, Note Name: G#3
Note ON: Time 170880, Note Name: G3, Velocity: 37
Note ON: Time 170880, Note Name: D#4, Velocity: 45
Note OFF: Time 171120, Note Name: D#4
Note OFF: Time 171120, Note Name: G3
Note ON: Time 171360, Note Name: D4, Velocity: 30
Note ON: Time 171360, Note Name: G#4, Velocity: 36
Note OFF: Time 171600, Note Name: G#4
Note OFF: Time 171600, Note Name: D4
Note ON: Time 171600, Note Name: D#4, Velocity: 27
Note ON: Time 171600, Note Name: G4, Velocity: 32
Note OFF: Time 171840, Note Name: G4
Note OFF: Time 171840, Note Name: D#4
Note ON: Time 172320, Note Name: G#4, Velocity: 31
Note ON: Time 172320, Note Name: D5, Velocity: 37
Note OFF: Time 172560, Note Name: D5
Note OFF: Time 172560, Note Name: G#4
Note ON: Time 172560, Note Name: G4, Velocity: 27
Note ON: Time 172560, Note Name: D#5, Velocity: 32
Note OFF: Time 172800, Note Name: D#5
Note OFF: Time 172800, Note Name: G4
Note ON: Time 173280, Note Name: G#5, Velocity: 37
Note ON: Time 173280, Note Name: D5, Velocity: 31
Note OFF: Time 173520, Note Name: D5
Note OFF: Time 173520, Note Name: G#5
Note ON: Time 173520, Note Name: D#5, Velocity: 27
Note ON: Time 173520, Note Name: G5, Velocity: 32
Note OFF: Time 173760, Note Name: G5
Note OFF: Time 173760, Note Name: D#5
Note ON: Time 174240, Note Name: D6, Velocity: 43
Note ON: Time 174240, Note Name: G#5, Velocity: 36
Note OFF: Time 174480, Note Name: G#5
Note OFF: Time 174480, Note Name: D6
Note ON: Time 174480, Note Name: G5, Velocity: 30
Note ON: Time 174480, Note Name: D#6, Velocity: 36
Note OFF: Time 174720, Note Name: D#6
Note OFF: Time 174720, Note Name: G5
Note ON: Time 175200, Note Name: G3, Velocity: 48
Note ON: Time 175200, Note Name: A#3, Velocity: 48
Note ON: Time 175200, Note Name: D#4, Velocity: 57
Note OFF: Time 175680, Note Name: D#4
Note OFF: Time 175680, Note Name: A#3
Note OFF: Time 175680, Note Name: G3
Note ON: Time 179280, Note Name: D#4, Velocity: 40
Note OFF: Time 179520, Note Name: D#4
Note ON: Time 179520, Note Name: D4, Velocity: 45
Note OFF: Time 179760, Note Name: D4
Note ON: Time 179760, Note Name: D#4, Velocity: 40
Note OFF: Time 180000, Note Name: D#4
Note ON: Time 180000, Note Name: A#4, Velocity: 45
Note OFF: Time 180120, Note Name: A#4
Note ON: Time 180240, Note Name: A#4, Velocity: 38
Note OFF: Time 180360, Note Name: A#4
Note ON: Time 180480, Note Name: C#4, Velocity: 45
Note OFF: Time 180720, Note Name: C#4
Note ON: Time 180720, Note Name: D4, Velocity: 40
Note OFF: Time 180960, Note Name: D4
Note ON: Time 180960, Note Name: A#4, Velocity: 45
Note OFF: Time 181080, Note Name: A#4
Note ON: Time 181200, Note Name: A#4, Velocity: 38
Note OFF: Time 181320, Note Name: A#4
Note ON: Time 183120, Note Name: F4, Velocity: 40
Note OFF: Time 183360, Note Name: F4
Note ON: Time 183360, Note Name: E4, Velocity: 45
Note OFF: Time 183600, Note Name: E4
Note ON: Time 183600, Note Name: F4, Velocity: 40
Note OFF: Time 183840, Note Name: F4
Note ON: Time 183840, Note Name: A#4, Velocity: 45
Note OFF: Time 183960, Note Name: A#4
Note ON: Time 184080, Note Name: A#4, Velocity: 38
Note OFF: Time 184200, Note Name: A#4
Note ON: Time 184320, Note Name: D#4, Velocity: 45
Note OFF: Time 184560, Note Name: D#4
Note ON: Time 184560, Note Name: E4, Velocity: 40
Note OFF: Time 184800, Note Name: E4
Note ON: Time 184800, Note Name: A#4, Velocity: 45
Note OFF: Time 184920, Note Name: A#4
Note ON: Time 185040, Note Name: A#4, Velocity: 38
Note OFF: Time 185160, Note Name: A#4
Note ON: Time 185280, Note Name: E4, Velocity: 45
Note OFF: Time 185520, Note Name: E4
Note ON: Time 185520, Note Name: F4, Velocity: 41
Note OFF: Time 185760, Note Name: F4
Note ON: Time 185760, Note Name: C#5, Velocity: 46
Note OFF: Time 185880, Note Name: C#5
Note ON: Time 186000, Note Name: C#5, Velocity: 40
Note OFF: Time 186120, Note Name: C#5
Note ON: Time 186240, Note Name: F#4, Velocity: 47
Note OFF: Time 186480, Note Name: F#4
Note ON: Time 186480, Note Name: G4, Velocity: 43
Note OFF: Time 186720, Note Name: G4
Note ON: Time 186720, Note Name: C#5, Velocity: 48
Note OFF: Time 186840, Note Name: C#5
Note ON: Time 186960, Note Name: C#5, Velocity: 41
Note OFF: Time 187080, Note Name: C#5
Note ON: Time 187200, Note Name: C5, Velocity: 49
Note OFF: Time 187440, Note Name: C5
Note ON: Time 187440, Note Name: A#4, Velocity: 42
Note OFF: Time 187680, Note Name: A#4
Note ON: Time 187680, Note Name: A4, Velocity: 47
Note OFF: Time 187920, Note Name: A4
Note ON: Time 187920, Note Name: A#4, Velocity: 42
Note OFF: Time 188160, Note Name: A#4
Note ON: Time 188160, Note Name: G4, Velocity: 49
Note OFF: Time 188400, Note Name: G4
Note ON: Time 188400, Note Name: G#4, Velocity: 44
Note OFF: Time 188640, Note Name: G#4
Note ON: Time 188640, Note Name: F5, Velocity: 50
Note OFF: Time 188760, Note Name: F5
Note ON: Time 188880, Note Name: F5, Velocity: 44
Note OFF: Time 189000, Note Name: F5
Note ON: Time 189120, Note Name: B4, Velocity: 52
Note OFF: Time 189360, Note Name: B4
Note ON: Time 189360, Note Name: C5, Velocity: 47
Note OFF: Time 189600, Note Name: C5
Note ON: Time 189600, Note Name: G#5, Velocity: 54
Note OFF: Time 189720, Note Name: G#5
Note ON: Time 189840, Note Name: G#5, Velocity: 47
Note OFF: Time 189960, Note Name: G#5
Note ON: Time 190080, Note Name: E5, Velocity: 56
Note OFF: Time 190320, Note Name: E5
Note ON: Time 190320, Note Name: F5, Velocity: 50
Note OFF: Time 190560, Note Name: F5
Note ON: Time 190560, Note Name: B5, Velocity: 57
Note OFF: Time 190680, Note Name: B5
Note ON: Time 190800, Note Name: B5, Velocity: 50
Note OFF: Time 190920, Note Name: B5
Note ON: Time 191040, Note Name: G5, Velocity: 63
Note OFF: Time 191280, Note Name: G5
Note ON: Time 191280, Note Name: G#5, Velocity: 56
Note OFF: Time 191520, Note Name: G#5
Note ON: Time 191520, Note Name: D6, Velocity: 66
Note OFF: Time 191640, Note Name: D6
Note ON: Time 191760, Note Name: D6, Velocity: 60
Note OFF: Time 191880, Note Name: D6
Note ON: Time 192000, Note Name: C#6, Velocity: 79
Note OFF: Time 192240, Note Name: C#6
Note ON: Time 192240, Note Name: D6, Velocity: 72
Note OFF: Time 192480, Note Name: D6
Note ON: Time 192480, Note Name: F6, Velocity: 69
Note OFF: Time 192600, Note Name: F6
Note ON: Time 192720, Note Name: F6, Velocity: 64
Note OFF: Time 192840, Note Name: F6
Note ON: Time 192960, Note Name: F6, Velocity: 76
Note OFF: Time 193920, Note Name: F6
Note ON: Time 194160, Note Name: G#4, Velocity: 65
Note OFF: Time 194376, Note Name: G#4
Note ON: Time 194400, Note Name: G#4, Velocity: 65
Note OFF: Time 194616, Note Name: G#4
Note ON: Time 194640, Note Name: G#4, Velocity: 65
Note OFF: Time 194856, Note Name: G#4
Note ON: Time 194880, Note Name: B3, Velocity: 74
Note OFF: Time 195840, Note Name: B3
Note ON: Time 196080, Note Name: G#2, Velocity: 64
Note OFF: Time 196296, Note Name: G#2
Note ON: Time 196320, Note Name: G#2, Velocity: 64
Note OFF: Time 196536, Note Name: G#2
Note ON: Time 196560, Note Name: G#2, Velocity: 64
Note OFF: Time 196776, Note Name: G#2
Note ON: Time 196800, Note Name: B1, Velocity: 78
Note OFF: Time 197040, Note Name: B1
Note ON: Time 197040, Note Name: G#2, Velocity: 70
Note OFF: Time 197256, Note Name: G#2
Note ON: Time 197280, Note Name: G#2, Velocity: 70
Note OFF: Time 197496, Note Name: G#2
Note ON: Time 197520, Note Name: G#2, Velocity: 70
Note OFF: Time 197736, Note Name: G#2
Note ON: Time 197760, Note Name: B1, Velocity: 86
Note OFF: Time 198460, Note Name: B1
Note ON: Time 198480, Note Name: C4, Velocity: 40
Note OFF: Time 198720, Note Name: C4
Note ON: Time 198720, Note Name: B3, Velocity: 45
Note OFF: Time 198960, Note Name: B3
Note ON: Time 198960, Note Name: C4, Velocity: 40
Note OFF: Time 199200, Note Name: C4
Note ON: Time 199200, Note Name: F4, Velocity: 45
Note OFF: Time 199320, Note Name: F4
Note ON: Time 199440, Note Name: F4, Velocity: 38
Note OFF: Time 199560, Note Name: F4
Note ON: Time 199680, Note Name: D#4, Velocity: 45
Note OFF: Time 200160, Note Name: D#4
Note ON: Time 200400, Note Name: C4, Velocity: 40
Note OFF: Time 200640, Note Name: C4
Note ON: Time 200640, Note Name: B3, Velocity: 45
Note OFF: Time 200880, Note Name: B3
Note ON: Time 200880, Note Name: C4, Velocity: 40
Note OFF: Time 201120, Note Name: C4
Note ON: Time 201120, Note Name: G#4, Velocity: 45
Note OFF: Time 201240, Note Name: G#4
Note ON: Time 201360, Note Name: G#4, Velocity: 38
Note OFF: Time 201480, Note Name: G#4
Note ON: Time 201600, Note Name: G4, Velocity: 45
Note OFF: Time 202080, Note Name: G4
Note ON: Time 202320, Note Name: C4, Velocity: 40
Note OFF: Time 202560, Note Name: C4
Note ON: Time 202560, Note Name: B3, Velocity: 45
Note OFF: Time 202800, Note Name: B3
Note ON: Time 202800, Note Name: C4, Velocity: 40
Note OFF: Time 203040, Note Name: C4
Note ON: Time 203040, Note Name: C5, Velocity: 45
Note OFF: Time 203160, Note Name: C5
Note ON: Time 203280, Note Name: C5, Velocity: 38
Note OFF: Time 203400, Note Name: C5
Note ON: Time 203520, Note Name: C5, Velocity: 45
Note OFF: Time 203760, Note Name: C5
Note ON: Time 203760, Note Name: D5, Velocity: 45
Note OFF: Time 203820, Note Name: D5
Note ON: Time 203820, Note Name: C5, Velocity: 45
Note OFF: Time 203880, Note Name: C5
Note ON: Time 203880, Note Name: B4, Velocity: 40
Note OFF: Time 203940, Note Name: B4
Note ON: Time 203940, Note Name: C5, Velocity: 45
Note OFF: Time 204000, Note Name: C5
Note ON: Time 204000, Note Name: D#5, Velocity: 50
Note OFF: Time 204240, Note Name: D#5
Note ON: Time 204240, Note Name: D5, Velocity: 45
Note OFF: Time 204480, Note Name: D5
Note ON: Time 204480, Note Name: F5, Velocity: 56
Note OFF: Time 204720, Note Name: F5
Note ON: Time 204720, Note Name: D#5, Velocity: 53
Note OFF: Time 204960, Note Name: D#5
Note ON: Time 204960, Note Name: D5, Velocity: 50
Note OFF: Time 205200, Note Name: D5
Note ON: Time 205200, Note Name: C5, Velocity: 47
Note OFF: Time 205440, Note Name: C5
Note ON: Time 205440, Note Name: B4, Velocity: 51
Note OFF: Time 205920, Note Name: B4
Note ON: Time 206160, Note Name: G3, Velocity: 40
Note OFF: Time 206400, Note Name: G3
Note ON: Time 206400, Note Name: F#3, Velocity: 45
Note OFF: Time 206640, Note Name: F#3
Note ON: Time 206640, Note Name: G3, Velocity: 40
Note OFF: Time 206880, Note Name: G3
Note ON: Time 206880, Note Name: C4, Velocity: 45
Note OFF: Time 207000, Note Name: C4
Note ON: Time 207120, Note Name: C4, Velocity: 38
Note OFF: Time 207240, Note Name: C4
Note ON: Time 207360, Note Name: B3, Velocity: 45
Note OFF: Time 207840, Note Name: B3
Note ON: Time 208080, Note Name: G3, Velocity: 40
Note OFF: Time 208320, Note Name: G3
Note ON: Time 208320, Note Name: F#3, Velocity: 45
Note OFF: Time 208560, Note Name: F#3
Note ON: Time 208560, Note Name: G3, Velocity: 40
Note OFF: Time 208800, Note Name: G3
Note ON: Time 208800, Note Name: D#4, Velocity: 45
Note OFF: Time 208920, Note Name: D#4
Note ON: Time 209040, Note Name: D#4, Velocity: 38
Note OFF: Time 209160, Note Name: D#4
Note ON: Time 209280, Note Name: D4, Velocity: 45
Note OFF: Time 209760, Note Name: D4
Note ON: Time 210000, Note Name: G3, Velocity: 45
Note OFF: Time 210120, Note Name: G3
Note ON: Time 210240, Note Name: B3, Velocity: 51
Note OFF: Time 210360, Note Name: B3
Note ON: Time 210480, Note Name: D4, Velocity: 45
Note OFF: Time 210600, Note Name: D4
Note ON: Time 210720, Note Name: F4, Velocity: 45
Note OFF: Time 210840, Note Name: F4
Note ON: Time 210960, Note Name: G#4, Velocity: 45
Note OFF: Time 211080, Note Name: G#4
Note ON: Time 211200, Note Name: B4, Velocity: 55
Note OFF: Time 211320, Note Name: B4
Note ON: Time 211440, Note Name: D5, Velocity: 53
Note OFF: Time 211560, Note Name: D5
Note ON: Time 211680, Note Name: F5, Velocity: 56
Note OFF: Time 211800, Note Name: F5
Note ON: Time 211920, Note Name: G#5, Velocity: 60
Note OFF: Time 212040, Note Name: G#5
Note ON: Time 212160, Note Name: G5, Velocity: 63
Note OFF: Time 212280, Note Name: G5
Note ON: Time 212400, Note Name: F5, Velocity: 59
Note OFF: Time 212520, Note Name: F5
Note ON: Time 212640, Note Name: D#5, Velocity: 55
Note OFF: Time 212760, Note Name: D#5
Note ON: Time 212880, Note Name: D5, Velocity: 54
Note OFF: Time 213000, Note Name: D5
Note ON: Time 213120, Note Name: C5, Velocity: 62
Note OFF: Time 213600, Note Name: C5
Note ON: Time 213840, Note Name: C5, Velocity: 50
Note OFF: Time 214080, Note Name: C5
Note ON: Time 214080, Note Name: B4, Velocity: 57
Note OFF: Time 214320, Note Name: B4
Note ON: Time 214320, Note Name: C5, Velocity: 53
Note OFF: Time 214560, Note Name: C5
Note ON: Time 214560, Note Name: C6, Velocity: 60
Note OFF: Time 214680, Note Name: C6
Note ON: Time 214800, Note Name: C6, Velocity: 52
Note OFF: Time 214920, Note Name: C6
Note ON: Time 215040, Note Name: C6, Velocity: 60
Note OFF: Time 215520, Note Name: C6
Note ON: Time 215760, Note Name: F6, Velocity: 59
Note OFF: Time 216000, Note Name: F6
Note ON: Time 216000, Note Name: D#6, Velocity: 65
Note OFF: Time 216240, Note Name: D#6
Note ON: Time 216240, Note Name: D6, Velocity: 60
Note OFF: Time 216480, Note Name: D6
Note ON: Time 216480, Note Name: C6, Velocity: 66
Note OFF: Time 216720, Note Name: C6
Note ON: Time 216720, Note Name: B5, Velocity: 60
Note OFF: Time 216960, Note Name: B5
Note ON: Time 216960, Note Name: D6, Velocity: 69
Note OFF: Time 217200, Note Name: D6
Note ON: Time 217200, Note Name: C6, Velocity: 60
Note OFF: Time 217440, Note Name: C6
Note ON: Time 217680, Note Name: C5, Velocity: 50
Note OFF: Time 217920, Note Name: C5
Note ON: Time 217920, Note Name: B4, Velocity: 54
Note OFF: Time 218016, Note Name: B4
Note ON: Time 218016, Note Name: C5, Velocity: 54
Note OFF: Time 218112, Note Name: C5
Note ON: Time 218112, Note Name: C#5, Velocity: 55
Note OFF: Time 218208, Note Name: C#5
Note ON: Time 218208, Note Name: D5, Velocity: 56
Note OFF: Time 218304, Note Name: D5
Note ON: Time 218304, Note Name: D#5, Velocity: 56
Note OFF: Time 218400, Note Name: D#5
Note ON: Time 218400, Note Name: E5, Velocity: 57
Note OFF: Time 218520, Note Name: E5
Note ON: Time 218520, Note Name: F5, Velocity: 58
Note OFF: Time 218640, Note Name: F5
Note ON: Time 218640, Note Name: F#5, Velocity: 59
Note OFF: Time 218760, Note Name: F#5
Note ON: Time 218760, Note Name: G5, Velocity: 59
Note OFF: Time 218880, Note Name: G5
Note ON: Time 218880, Note Name: G#5, Velocity: 60
Note OFF: Time 219000, Note Name: G#5
Note ON: Time 219000, Note Name: A5, Velocity: 61
Note OFF: Time 219120, Note Name: A5
Note ON: Time 219120, Note Name: A#5, Velocity: 62
Note OFF: Time 219240, Note Name: A#5
Note ON: Time 219240, Note Name: B5, Velocity: 62
Note OFF: Time 219360, Note Name: B5
Note ON: Time 219360, Note Name: C6, Velocity: 68
Note OFF: Time 219600, Note Name: C6
Note ON: Time 219600, Note Name: F6, Velocity: 63
Note OFF: Time 219840, Note Name: F6
Note ON: Time 219840, Note Name: D#6, Velocity: 65
Note OFF: Time 220080, Note Name: D#6
Note ON: Time 220080, Note Name: D6, Velocity: 60
Note OFF: Time 220320, Note Name: D6
Note ON: Time 220320, Note Name: C6, Velocity: 66
Note OFF: Time 220560, Note Name: C6
Note ON: Time 220560, Note Name: B5, Velocity: 60
Note OFF: Time 220800, Note Name: B5
Note ON: Time 220800, Note Name: C6, Velocity: 69
Note OFF: Time 220920, Note Name: C6
Note ON: Time 220920, Note Name: D6, Velocity: 63
Note OFF: Time 221040, Note Name: D6
Note ON: Time 221040, Note Name: C6, Velocity: 63
Note OFF: Time 221160, Note Name: C6
Note ON: Time 221160, Note Name: B5, Velocity: 63
Note OFF: Time 221280, Note Name: B5
Note ON: Time 221280, Note Name: C6, Velocity: 69
Note OFF: Time 221400, Note Name: C6
Note ON: Time 221400, Note Name: D#6, Velocity: 73
Note OFF: Time 221520, Note Name: D#6
Note ON: Time 221520, Note Name: D6, Velocity: 72
Note OFF: Time 221640, Note Name: D6
Note ON: Time 221640, Note Name: C6, Velocity: 71
Note OFF: Time 221760, Note Name: C6
Note ON: Time 221760, Note Name: B5, Velocity: 72
Note OFF: Time 221880, Note Name: B5
Note ON: Time 221880, Note Name: C6, Velocity: 65
Note OFF: Time 222000, Note Name: C6
Note ON: Time 222000, Note Name: B5, Velocity: 65
Note OFF: Time 222120, Note Name: B5
Note ON: Time 222120, Note Name: G#5, Velocity: 65
Note OFF: Time 222240, Note Name: G#5
Note ON: Time 222240, Note Name: G5, Velocity: 69
Note OFF: Time 222360, Note Name: G5
Note ON: Time 222360, Note Name: F5, Velocity: 63
Note OFF: Time 222480, Note Name: F5
Note ON: Time 222480, Note Name: D#5, Velocity: 63
Note OFF: Time 222600, Note Name: D#5
Note ON: Time 222600, Note Name: D5, Velocity: 63
Note OFF: Time 222720, Note Name: D5
Note ON: Time 222720, Note Name: C5, Velocity: 69
Note OFF: Time 222840, Note Name: C5
Note ON: Time 222840, Note Name: D5, Velocity: 63
Note OFF: Time 222960, Note Name: D5
Note ON: Time 222960, Note Name: C5, Velocity: 63
Note OFF: Time 223080, Note Name: C5
Note ON: Time 223080, Note Name: B4, Velocity: 61
Note OFF: Time 223200, Note Name: B4
Note ON: Time 223200, Note Name: C5, Velocity: 66
Note OFF: Time 223320, Note Name: C5
Note ON: Time 223320, Note Name: D#5, Velocity: 72
Note OFF: Time 223440, Note Name: D#5
Note ON: Time 223440, Note Name: D5, Velocity: 70
Note OFF: Time 223560, Note Name: D5
Note ON: Time 223560, Note Name: C5, Velocity: 67
Note OFF: Time 223680, Note Name: C5
Note ON: Time 223680, Note Name: B4, Velocity: 69
Note OFF: Time 223800, Note Name: B4
Note ON: Time 223800, Note Name: C5, Velocity: 63
Note OFF: Time 223920, Note Name: C5
Note ON: Time 223920, Note Name: B4, Velocity: 63
Note OFF: Time 224040, Note Name: B4
Note ON: Time 224040, Note Name: G#4, Velocity: 63
Note OFF: Time 224160, Note Name: G#4
Note ON: Time 224160, Note Name: G4, Velocity: 69
Note OFF: Time 224280, Note Name: G4
Note ON: Time 224280, Note Name: F4, Velocity: 63
Note OFF: Time 224400, Note Name: F4
Note ON: Time 224400, Note Name: D#4, Velocity: 63
Note OFF: Time 224520, Note Name: D#4
Note ON: Time 224520, Note Name: D4, Velocity: 63
Note OFF: Time 224640, Note Name: D4
Note ON: Time 224640, Note Name: C4, Velocity: 77
Note OFF: Time 224760, Note Name: C4
Note ON: Time 224760, Note Name: D4, Velocity: 69
Note OFF: Time 224880, Note Name: D4
Note ON: Time 224880, Note Name: C4, Velocity: 69
Note OFF: Time 225000, Note Name: C4
Note ON: Time 225000, Note Name: B3, Velocity: 69
Note OFF: Time 225120, Note Name: B3
Note ON: Time 225120, Note Name: C4, Velocity: 77
Note OFF: Time 225240, Note Name: C4
Note ON: Time 225240, Note Name: D#4, Velocity: 69
Note OFF: Time 225360, Note Name: D#4
Note ON: Time 225360, Note Name: D4, Velocity: 69
Note OFF: Time 225480, Note Name: D4
Note ON: Time 225480, Note Name: C4, Velocity: 69
Note OFF: Time 225600, Note Name: C4
Note ON: Time 225600, Note Name: B3, Velocity: 77
Note OFF: Time 225720, Note Name: B3
Note ON: Time 225720, Note Name: G4, Velocity: 69
Note OFF: Time 225840, Note Name: G4
Note ON: Time 225840, Note Name: D4, Velocity: 69
Note OFF: Time 225960, Note Name: D4
Note ON: Time 225960, Note Name: B3, Velocity: 69
Note OFF: Time 226080, Note Name: B3
Note ON: Time 226080, Note Name: G3, Velocity: 79
Note OFF: Time 226200, Note Name: G3
Note ON: Time 226200, Note Name: G4, Velocity: 69
Note OFF: Time 226320, Note Name: G4
Note ON: Time 226320, Note Name: D#4, Velocity: 69
Note OFF: Time 226440, Note Name: D#4
Note ON: Time 226440, Note Name: C4, Velocity: 69
Note OFF: Time 226560, Note Name: C4
Note ON: Time 226560, Note Name: G3, Velocity: 81
Note OFF: Time 226680, Note Name: G3
Note ON: Time 226680, Note Name: G4, Velocity: 69
Note OFF: Time 226800, Note Name: G4
Note ON: Time 226800, Note Name: D4, Velocity: 69
Note OFF: Time 226920, Note Name: D4
Note ON: Time 226920, Note Name: B3, Velocity: 69
Note OFF: Time 227040, Note Name: B3
Note ON: Time 227040, Note Name: G3, Velocity: 80
Note OFF: Time 227160, Note Name: G3
Note ON: Time 227160, Note Name: G4, Velocity: 69
Note OFF: Time 227280, Note Name: G4
Note ON: Time 227280, Note Name: D#4, Velocity: 69
Note OFF: Time 227400, Note Name: D#4
Note ON: Time 227400, Note Name: C4, Velocity: 69
Note OFF: Time 227520, Note Name: C4
Note ON: Time 227520, Note Name: G3, Velocity: 80
Note OFF: Time 227640, Note Name: G3
Note ON: Time 227640, Note Name: G4, Velocity: 69
Note OFF: Time 227760, Note Name: G4
Note ON: Time 227760, Note Name: D4, Velocity: 69
Note OFF: Time 227880, Note Name: D4
Note ON: Time 227880, Note Name: B3, Velocity: 69
Note OFF: Time 228000, Note Name: B3
Note ON: Time 228000, Note Name: G3, Velocity: 80
Note OFF: Time 228120, Note Name: G3
Note ON: Time 228120, Note Name: G4, Velocity: 69
Note OFF: Time 228240, Note Name: G4
Note ON: Time 228240, Note Name: D#4, Velocity: 69
Note OFF: Time 228360, Note Name: D#4
Note ON: Time 228360, Note Name: C4, Velocity: 69
Note OFF: Time 228480, Note Name: C4
Note ON: Time 228480, Note Name: G3, Velocity: 74
Note ON: Time 228480, Note Name: B3, Velocity: 74
Note ON: Time 228480, Note Name: D4, Velocity: 74
Note ON: Time 228480, Note Name: G4, Velocity: 89
Note OFF: Time 229440, Note Name: G4
Note OFF: Time 229440, Note Name: G3
Note OFF: Time 229440, Note Name: B3
Note OFF: Time 229440, Note Name: D4
Note ON: Time 229680, Note Name: G4, Velocity: 40
Note OFF: Time 229800, Note Name: G4
Note ON: Time 229920, Note Name: A4, Velocity: 37
Note OFF: Time 230040, Note Name: A4
Note ON: Time 230160, Note Name: B4, Velocity: 37
Note OFF: Time 230280, Note Name: B4
Note ON: Time 230400, Note Name: E4, Velocity: 39
Note ON: Time 230400, Note Name: G4, Velocity: 39
Note ON: Time 230400, Note Name: C5, Velocity: 46
Note OFF: Time 230520, Note Name: C5
Note ON: Time 230640, Note Name: D5, Velocity: 40
Note OFF: Time 230760, Note Name: D5
Note ON: Time 230880, Note Name: E5, Velocity: 40
Note OFF: Time 231000, Note Name: E5
Note OFF: Time 231360, Note Name: G4
Note OFF: Time 231360, Note Name: E4
Note ON: Time 231360, Note Name: D4, Velocity: 38
Note ON: Time 231360, Note Name: G4, Velocity: 38
Note ON: Time 231360, Note Name: D5, Velocity: 45
Note OFF: Time 231480, Note Name: D5
Note OFF: Time 231480, Note Name: G4
Note OFF: Time 231480, Note Name: D4
Note ON: Time 231840, Note Name: E4, Velocity: 33
Note ON: Time 231840, Note Name: G4, Velocity: 33
Note ON: Time 231840, Note Name: C5, Velocity: 39
Note OFF: Time 231960, Note Name: C5
Note OFF: Time 231960, Note Name: G4
Note OFF: Time 231960, Note Name: E4
Note ON: Time 232320, Note Name: F4, Velocity: 37
Note ON: Time 232320, Note Name: G4, Velocity: 37
Note ON: Time 232320, Note Name: B4, Velocity: 37
Note ON: Time 232320, Note Name: F5, Velocity: 45
Note OFF: Time 233280, Note Name: F5
Note OFF: Time 233280, Note Name: F4
Note OFF: Time 233280, Note Name: G4
Note OFF: Time 233280, Note Name: B4
Note ON: Time 233520, Note Name: G4, Velocity: 40
Note OFF: Time 233640, Note Name: G4
Note ON: Time 233760, Note Name: A4, Velocity: 37
Note OFF: Time 233880, Note Name: A4
Note ON: Time 234000, Note Name: B4, Velocity: 37
Note OFF: Time 234120, Note Name: B4
Note ON: Time 234240, Note Name: E4, Velocity: 39
Note ON: Time 234240, Note Name: G4, Velocity: 39
Note ON: Time 234240, Note Name: C5, Velocity: 46
Note OFF: Time 234360, Note Name: C5
Note ON: Time 234480, Note Name: D5, Velocity: 40
Note OFF: Time 234600, Note Name: D5
Note ON: Time 234720, Note Name: E5, Velocity: 40
Note OFF: Time 234840, Note Name: E5
Note OFF: Time 235200, Note Name: G4
Note OFF: Time 235200, Note Name: E4
Note ON: Time 235200, Note Name: D4, Velocity: 38
Note ON: Time 235200, Note Name: A4, Velocity: 38
Note ON: Time 235200, Note Name: D5, Velocity: 45
Note OFF: Time 235320, Note Name: D5
Note OFF: Time 235320, Note Name: A4
Note OFF: Time 235320, Note Name: D4
Note ON: Time 235680, Note Name: A4, Velocity: 33
Note ON: Time 235680, Note Name: D4, Velocity: 33
Note ON: Time 235680, Note Name: C5, Velocity: 39
Note OFF: Time 235800, Note Name: C5
Note OFF: Time 235800, Note Name: D4
Note OFF: Time 235800, Note Name: A4
Note ON: Time 236160, Note Name: B3, Velocity: 31
Note ON: Time 236160, Note Name: D4, Velocity: 31
Note ON: Time 236160, Note Name: G4, Velocity: 37
Note OFF: Time 237120, Note Name: G4
Note OFF: Time 237120, Note Name: D4
Note OFF: Time 237120, Note Name: B3
Note ON: Time 237360, Note Name: G4, Velocity: 40
Note OFF: Time 237480, Note Name: G4
Note ON: Time 237600, Note Name: A4, Velocity: 37
Note OFF: Time 237720, Note Name: A4
Note ON: Time 237840, Note Name: B4, Velocity: 37
Note OFF: Time 237960, Note Name: B4
Note ON: Time 238080, Note Name: E4, Velocity: 39
Note ON: Time 238080, Note Name: G4, Velocity: 39
Note ON: Time 238080, Note Name: C5, Velocity: 46
Note OFF: Time 238200, Note Name: C5
Note ON: Time 238320, Note Name: D5, Velocity: 40
Note OFF: Time 238440, Note Name: D5
Note ON: Time 238560, Note Name: E5, Velocity: 40
Note OFF: Time 238680, Note Name: E5
Note OFF: Time 239040, Note Name: G4
Note OFF: Time 239040, Note Name: E4
Note ON: Time 239040, Note Name: D4, Velocity: 38
Note ON: Time 239040, Note Name: G4, Velocity: 38
Note ON: Time 239040, Note Name: D5, Velocity: 45
Note OFF: Time 239160, Note Name: D5
Note OFF: Time 239160, Note Name: G4
Note OFF: Time 239160, Note Name: D4
Note ON: Time 239520, Note Name: E4, Velocity: 33
Note ON: Time 239520, Note Name: G4, Velocity: 33
Note ON: Time 239520, Note Name: C5, Velocity: 39
Note OFF: Time 239640, Note Name: C5
Note OFF: Time 239640, Note Name: G4
Note OFF: Time 239640, Note Name: E4
Note ON: Time 239955, Note Name: A4, Velocity: 45
Note ON: Time 239970, Note Name: C5, Velocity: 50
Note ON: Time 239985, Note Name: F5, Velocity: 71
Note ON: Time 240000, Note Name: A5, Velocity: 80
Note OFF: Time 240960, Note Name: F5
Note OFF: Time 240960, Note Name: A4
Note OFF: Time 240960, Note Name: C5
Note OFF: Time 241200, Note Name: A5
Note ON: Time 241200, Note Name: A5, Velocity: 48
Note OFF: Time 241320, Note Name: A5
Note ON: Time 241440, Note Name: G5, Velocity: 53
Note OFF: Time 241560, Note Name: G5
Note ON: Time 241680, Note Name: F5, Velocity: 50
Note OFF: Time 241800, Note Name: F5
Note ON: Time 241920, Note Name: E5, Velocity: 53
Note OFF: Time 242160, Note Name: E5
Note ON: Time 242160, Note Name: D5, Velocity: 48
Note OFF: Time 242400, Note Name: D5
Note ON: Time 242400, Note Name: C5, Velocity: 48
Note OFF: Time 242520, Note Name: C5
Note ON: Time 242640, Note Name: B4, Velocity: 48
Note OFF: Time 242760, Note Name: B4
Note ON: Time 242880, Note Name: D4, Velocity: 45
Note ON: Time 242880, Note Name: F4, Velocity: 45
Note ON: Time 242880, Note Name: A4, Velocity: 53
Note OFF: Time 243360, Note Name: A4
Note ON: Time 243360, Note Name: G4, Velocity: 49
Note OFF: Time 243840, Note Name: G4
Note OFF: Time 243840, Note Name: F4
Note OFF: Time 243840, Note Name: D4
Note ON: Time 243840, Note Name: C4, Velocity: 41
Note ON: Time 243840, Note Name: E4, Velocity: 41
Note ON: Time 243840, Note Name: G4, Velocity: 49
Note OFF: Time 244800, Note Name: G4
Note OFF: Time 244800, Note Name: E4
Note OFF: Time 244800, Note Name: C4
Note ON: Time 245040, Note Name: G5, Velocity: 48
Note OFF: Time 245160, Note Name: G5
Note ON: Time 245280, Note Name: F5, Velocity: 53
Note OFF: Time 245400, Note Name: F5
Note ON: Time 245520, Note Name: E5, Velocity: 50
Note OFF: Time 245640, Note Name: E5
Note ON: Time 245760, Note Name: E5, Velocity: 53
Note OFF: Time 246000, Note Name: E5
Note ON: Time 246000, Note Name: D5, Velocity: 48
Note OFF: Time 246240, Note Name: D5
Note ON: Time 246240, Note Name: C5, Velocity: 48
Note OFF: Time 246360, Note Name: C5
Note ON: Time 246480, Note Name: B4, Velocity: 48
Note OFF: Time 246600, Note Name: B4
Note ON: Time 246720, Note Name: D4, Velocity: 45
Note ON: Time 246720, Note Name: F4, Velocity: 45
Note ON: Time 246720, Note Name: G#4, Velocity: 53
Note OFF: Time 247200, Note Name: G#4
Note ON: Time 247200, Note Name: G4, Velocity: 49
Note OFF: Time 247680, Note Name: G4
Note OFF: Time 247680, Note Name: F4
Note OFF: Time 247680, Note Name: D4
Note ON: Time 247680, Note Name: C4, Velocity: 54
Note ON: Time 247680, Note Name: D#4, Velocity: 54
Note ON: Time 247680, Note Name: G4, Velocity: 54
Note OFF: Time 248640, Note Name: G4
Note OFF: Time 248640, Note Name: D#4
Note OFF: Time 248640, Note Name: C4
Note ON: Time 248880, Note Name: G5, Velocity: 48
Note ON: Time 248880, Note Name: G4, Velocity: 48
Note OFF: Time 249000, Note Name: G4
Note OFF: Time 249000, Note Name: G5
Note ON: Time 249120, Note Name: F5, Velocity: 53
Note ON: Time 249120, Note Name: F4, Velocity: 53
Note OFF: Time 249240, Note Name: F4
Note OFF: Time 249240, Note Name: F5
Note ON: Time 249360, Note Name: D#5, Velocity: 50
Note ON: Time 249360, Note Name: D#4, Velocity: 50
Note OFF: Time 249480, Note Name: D#4
Note OFF: Time 249480, Note Name: D#5
Note ON: Time 249600, Note Name: D#5, Velocity: 55
Note ON: Time 249600, Note Name: D#4, Velocity: 55
Note OFF: Time 249840, Note Name: D#4
Note OFF: Time 249840, Note Name: D#5
Note ON: Time 249840, Note Name: D5, Velocity: 48
Note ON: Time 249840, Note Name: D4, Velocity: 48
Note OFF: Time 250080, Note Name: D4
Note OFF: Time 250080, Note Name: D5
Note ON: Time 250080, Note Name: C5, Velocity: 48
Note ON: Time 250080, Note Name: C4, Velocity: 48
Note OFF: Time 250200, Note Name: C4
Note OFF: Time 250200, Note Name: C5
Note ON: Time 250320, Note Name: B4, Velocity: 48
Note ON: Time 250320, Note Name: B3, Velocity: 48
Note OFF: Time 250440, Note Name: B3
Note OFF: Time 250440, Note Name: B4
Note ON: Time 250560, Note Name: G#3, Velocity: 55
Note ON: Time 250560, Note Name: G#4, Velocity: 55
Note OFF: Time 250680, Note Name: G#4
Note OFF: Time 250680, Note Name: G#3
Note ON: Time 250800, Note Name: G3, Velocity: 48
Note ON: Time 250800, Note Name: G4, Velocity: 48
Note OFF: Time 250920, Note Name: G4
Note OFF: Time 250920, Note Name: G3
Note ON: Time 251040, Note Name: A3, Velocity: 48
Note ON: Time 251040, Note Name: A4, Velocity: 48
Note OFF: Time 251160, Note Name: A4
Note OFF: Time 251160, Note Name: A3
Note ON: Time 251280, Note Name: B3, Velocity: 48
Note ON: Time 251280, Note Name: B4, Velocity: 48
Note OFF: Time 251400, Note Name: B4
Note OFF: Time 251400, Note Name: B3
Note ON: Time 251520, Note Name: C4, Velocity: 49
Note ON: Time 251520, Note Name: C5, Velocity: 58
Note OFF: Time 252000, Note Name: C5
Note OFF: Time 252000, Note Name: C4
Note ON: Time 252240, Note Name: C5, Velocity: 54
Note OFF: Time 252480, Note Name: C5
Note ON: Time 252480, Note Name: B4, Velocity: 60
Note OFF: Time 252720, Note Name: B4
Note ON: Time 252720, Note Name: C5, Velocity: 55
Note OFF: Time 252960, Note Name: C5
Note ON: Time 252960, Note Name: D5, Velocity: 52
Note ON: Time 252960, Note Name: F5, Velocity: 62
Note OFF: Time 253080, Note Name: F5
Note OFF: Time 253080, Note Name: D5
Note ON: Time 253200, Note Name: D5, Velocity: 48
Note ON: Time 253200, Note Name: F5, Velocity: 57
Note OFF: Time 253320, Note Name: F5
Note OFF: Time 253320, Note Name: D5
Note ON: Time 253440, Note Name: C5, Velocity: 55
Note ON: Time 253440, Note Name: D#5, Velocity: 65
Note OFF: Time 253920, Note Name: D#5
Note OFF: Time 253920, Note Name: C5
Note ON: Time 254160, Note Name: C5, Velocity: 61
Note OFF: Time 254400, Note Name: C5
Note ON: Time 254400, Note Name: B4, Velocity: 68
Note OFF: Time 254640, Note Name: B4
Note ON: Time 254640, Note Name: C5, Velocity: 63
Note OFF: Time 254880, Note Name: C5
Note ON: Time 254880, Note Name: F5, Velocity: 58
Note ON: Time 254880, Note Name: G#5, Velocity: 69
Note OFF: Time 255000, Note Name: G#5
Note OFF: Time 255000, Note Name: F5
Note ON: Time 255120, Note Name: F5, Velocity: 54
Note ON: Time 255120, Note Name: G#5, Velocity: 64
Note OFF: Time 255240, Note Name: G#5
Note OFF: Time 255240, Note Name: F5
Note ON: Time 255360, Note Name: D#5, Velocity: 70
Note ON: Time 255360, Note Name: G5, Velocity: 70
Note OFF: Time 255840, Note Name: G5
Note OFF: Time 255840, Note Name: D#5
Note ON: Time 256080, Note Name: C6, Velocity: 74
Note OFF: Time 256320, Note Name: C6
Note ON: Time 256320, Note Name: B5, Velocity: 84
Note OFF: Time 256560, Note Name: B5
Note ON: Time 256560, Note Name: C6, Velocity: 77
Note OFF: Time 256800, Note Name: C6
Note ON: Time 256800, Note Name: F6, Velocity: 94
Note ON: Time 256800, Note Name: D6, Velocity: 94
Note OFF: Time 256920, Note Name: D6
Note OFF: Time 256920, Note Name: F6
Note ON: Time 257040, Note Name: D6, Velocity: 86
Note ON: Time 257040, Note Name: F6, Velocity: 86
Note OFF: Time 257160, Note Name: F6
Note OFF: Time 257160, Note Name: D6
Note ON: Time 257280, Note Name: D6, Velocity: 101
Note ON: Time 257280, Note Name: F6, Velocity: 101
Note OFF: Time 257760, Note Name: D6
Note OFF: Time 257880, Note Name: F6
Note ON: Time 257880, Note Name: D#6, Velocity: 74
Note OFF: Time 258000, Note Name: D#6
Note ON: Time 258000, Note Name: D6, Velocity: 73
Note OFF: Time 258120, Note Name: D6
Note ON: Time 258120, Note Name: C6, Velocity: 72
Note OFF: Time 258240, Note Name: C6
Note ON: Time 258240, Note Name: B5, Velocity: 72
Note OFF: Time 258360, Note Name: B5
Note ON: Time 258360, Note Name: C6, Velocity: 72
Note OFF: Time 258480, Note Name: C6
Note ON: Time 258480, Note Name: D6, Velocity: 71
Note OFF: Time 258600, Note Name: D6
Note ON: Time 258600, Note Name: C6, Velocity: 70
Note OFF: Time 258720, Note Name: C6
Note ON: Time 258720, Note Name: B5, Velocity: 69
Note OFF: Time 258840, Note Name: B5
Note ON: Time 258840, Note Name: G#5, Velocity: 68
Note OFF: Time 258960, Note Name: G#5
Note ON: Time 258960, Note Name: G5, Velocity: 67
Note OFF: Time 259080, Note Name: G5
Note ON: Time 259080, Note Name: F5, Velocity: 66
Note OFF: Time 259200, Note Name: F5
Note ON: Time 259200, Note Name: D#5, Velocity: 66
Note OFF: Time 259360, Note Name: D#5
Note ON: Time 259360, Note Name: F5, Velocity: 62
Note OFF: Time 259520, Note Name: F5
Note ON: Time 259520, Note Name: G5, Velocity: 62
Note OFF: Time 259680, Note Name: G5
Note ON: Time 259680, Note Name: F5, Velocity: 66
Note OFF: Time 259840, Note Name: F5
Note ON: Time 259840, Note Name: D#5, Velocity: 62
Note OFF: Time 260000, Note Name: D#5
Note ON: Time 260000, Note Name: D5, Velocity: 62
Note OFF: Time 260160, Note Name: D5
Note ON: Time 260160, Note Name: C5, Velocity: 66
Note OFF: Time 260320, Note Name: C5
Note ON: Time 260320, Note Name: A#4, Velocity: 62
Note OFF: Time 260480, Note Name: A#4
Note ON: Time 260480, Note Name: G#4, Velocity: 62
Note OFF: Time 260640, Note Name: G#4
Note ON: Time 260640, Note Name: G4, Velocity: 66
Note OFF: Time 260800, Note Name: G4
Note ON: Time 260800, Note Name: F4, Velocity: 60
Note OFF: Time 260960, Note Name: F4
Note ON: Time 260960, Note Name: D#4, Velocity: 63
Note OFF: Time 261120, Note Name: D#4
Note ON: Time 261240, Note Name: D4, Velocity: 59
Note OFF: Time 261360, Note Name: D4
Note ON: Time 261360, Note Name: F4, Velocity: 63
Note OFF: Time 261480, Note Name: F4
Note ON: Time 261480, Note Name: G#4, Velocity: 67
Note OFF: Time 261600, Note Name: G#4
Note ON: Time 261600, Note Name: D5, Velocity: 72
Note OFF: Time 261840, Note Name: D5
Note ON: Time 262200, Note Name: B3, Velocity: 63
Note OFF: Time 262320, Note Name: B3
Note ON: Time 262320, Note Name: D4, Velocity: 66
Note OFF: Time 262440, Note Name: D4
Note ON: Time 262440, Note Name: F4, Velocity: 69
Note OFF: Time 262560, Note Name: F4
Note ON: Time 262560, Note Name: B4, Velocity: 72
Note OFF: Time 262800, Note Name: B4
Note ON: Time 263040, Note Name: B4, Velocity: 67
Note OFF: Time 263160, Note Name: B4
Note ON: Time 263160, Note Name: B5, Velocity: 60
Note OFF: Time 263280, Note Name: B5
Note ON: Time 263280, Note Name: B4, Velocity: 67
Note OFF: Time 263400, Note Name: B4
Note ON: Time 263400, Note Name: B5, Velocity: 60
Note OFF: Time 263520, Note Name: B5
Note ON: Time 263520, Note Name: B4, Velocity: 67
Note OFF: Time 263640, Note Name: B4
Note ON: Time 263640, Note Name: B5, Velocity: 59
Note OFF: Time 263760, Note Name: B5
Note ON: Time 263760, Note Name: B4, Velocity: 67
Note OFF: Time 263880, Note Name: B4
Note ON: Time 263880, Note Name: B5, Velocity: 61
Note OFF: Time 264000, Note Name: B5
Note ON: Time 264000, Note Name: B4, Velocity: 67
Note OFF: Time 264120, Note Name: B4
Note ON: Time 264120, Note Name: B5, Velocity: 59
Note OFF: Time 264240, Note Name: B5
Note ON: Time 264240, Note Name: B4, Velocity: 67
Note OFF: Time 264360, Note Name: B4
Note ON: Time 264360, Note Name: B5, Velocity: 59
Note OFF: Time 264480, Note Name: B5
Note ON: Time 264480, Note Name: B4, Velocity: 67
Note OFF: Time 264600, Note Name: B4
Note ON: Time 264600, Note Name: B5, Velocity: 59
Note OFF: Time 264720, Note Name: B5
Note ON: Time 264720, Note Name: B4, Velocity: 67
Note OFF: Time 264840, Note Name: B4
Note ON: Time 264840, Note Name: B5, Velocity: 60
Note OFF: Time 264960, Note Name: B5
Note ON: Time 264960, Note Name: C5, Velocity: 67
Note OFF: Time 265080, Note Name: C5
Note ON: Time 265080, Note Name: C6, Velocity: 60
Note OFF: Time 265200, Note Name: C6
Note ON: Time 265200, Note Name: C5, Velocity: 69
Note OFF: Time 265320, Note Name: C5
Note ON: Time 265320, Note Name: C6, Velocity: 62
Note OFF: Time 265440, Note Name: C6
Note ON: Time 265440, Note Name: C5, Velocity: 71
Note OFF: Time 265560, Note Name: C5
Note ON: Time 265560, Note Name: C6, Velocity: 63
Note OFF: Time 265680, Note Name: C6
Note ON: Time 265680, Note Name: C5, Velocity: 72
Note OFF: Time 265800, Note Name: C5
Note ON: Time 265800, Note Name: C6, Velocity: 67
Note OFF: Time 265920, Note Name: C6
Note ON: Time 265920, Note Name: C5, Velocity: 75
Note OFF: Time 266040, Note Name: C5
Note ON: Time 266040, Note Name: C6, Velocity: 67
Note OFF: Time 266160, Note Name: C6
Note ON: Time 266160, Note Name: C5, Velocity: 77
Note OFF: Time 266280, Note Name: C5
Note ON: Time 266280, Note Name: C6, Velocity: 69
Note OFF: Time 266400, Note Name: C6
Note ON: Time 266400, Note Name: C5, Velocity: 80
Note OFF: Time 266520, Note Name: C5
Note ON: Time 266520, Note Name: C6, Velocity: 71
Note OFF: Time 266640, Note Name: C6
Note ON: Time 266640, Note Name: C5, Velocity: 81
Note OFF: Time 266760, Note Name: C5
Note ON: Time 266760, Note Name: C6, Velocity: 73
Note OFF: Time 266880, Note Name: C6
Note ON: Time 267000, Note Name: F5, Velocity: 71
Note OFF: Time 267120, Note Name: F5
Note ON: Time 267120, Note Name: G#5, Velocity: 76
Note OFF: Time 267240, Note Name: G#5
Note ON: Time 267240, Note Name: D6, Velocity: 81
Note OFF: Time 267360, Note Name: D6
Note ON: Time 267360, Note Name: F6, Velocity: 86
Note OFF: Time 267600, Note Name: F6
Note ON: Time 267960, Note Name: D5, Velocity: 75
Note OFF: Time 268080, Note Name: D5
Note ON: Time 268080, Note Name: F5, Velocity: 79
Note OFF: Time 268200, Note Name: F5
Note ON: Time 268200, Note Name: B5, Velocity: 82
Note OFF: Time 268320, Note Name: B5
Note ON: Time 268320, Note Name: D6, Velocity: 86
Note OFF: Time 268560, Note Name: D6
Note ON: Time 268800, Note Name: C5, Velocity: 80
Note ON: Time 268800, Note Name: G5, Velocity: 80
Note ON: Time 268800, Note Name: D#5, Velocity: 80
Note ON: Time 268800, Note Name: C6, Velocity: 94
Note OFF: Time 269280, Note Name: C6
Note OFF: Time 269280, Note Name: C5
Note OFF: Time 269280, Note Name: G5
Note OFF: Time 269280, Note Name: D#5
Note ON: Time 269280, Note Name: G5, Velocity: 63
Note OFF: Time 269400, Note Name: G5
Note ON: Time 269520, Note Name: G5, Velocity: 63
Note OFF: Time 269640, Note Name: G5
Note ON: Time 269760, Note Name: G5, Velocity: 70
Note OFF: Time 270000, Note Name: G5
Note ON: Time 270240, Note Name: G5, Velocity: 63
Note OFF: Time 270360, Note Name: G5
Note ON: Time 270480, Note Name: G5, Velocity: 63
Note OFF: Time 270600, Note Name: G5
Note ON: Time 270720, Note Name: G5, Velocity: 69
Note OFF: Time 270960, Note Name: G5
Note ON: Time 271200, Note Name: D3, Velocity: 60
Note ON: Time 271200, Note Name: F3, Velocity: 60
Note ON: Time 271200, Note Name: B3, Velocity: 72
Note OFF: Time 271440, Note Name: B3
Note OFF: Time 271440, Note Name: F3
Note OFF: Time 271440, Note Name: D3
Note ON: Time 272160, Note Name: D3, Velocity: 33
Note ON: Time 272160, Note Name: F3, Velocity: 33
Note ON: Time 272160, Note Name: B3, Velocity: 39
Note OFF: Time 272280, Note Name: B3
Note OFF: Time 272280, Note Name: F3
Note OFF: Time 272280, Note Name: D3
Note ON: Time 272640, Note Name: C3, Velocity: 37
Note ON: Time 272640, Note Name: D#3, Velocity: 37
Note ON: Time 272640, Note Name: C4, Velocity: 45
Note OFF: Time 272760, Note Name: C4
Note OFF: Time 272760, Note Name: D#3
Note OFF: Time 272760, Note Name: C3
Note ON: Time 273120, Note Name: A3, Velocity: 35
Note ON: Time 273120, Note Name: C4, Velocity: 35
Note ON: Time 273120, Note Name: D4, Velocity: 41
Note OFF: Time 273240, Note Name: D4
Note OFF: Time 273240, Note Name: C4
Note OFF: Time 273240, Note Name: A3
Note ON: Time 273600, Note Name: G3, Velocity: 37
Note ON: Time 273600, Note Name: C4, Velocity: 37
Note ON: Time 273600, Note Name: D#4, Velocity: 45
Note OFF: Time 273720, Note Name: D#4
Note OFF: Time 273720, Note Name: C4
Note OFF: Time 273720, Note Name: G3
Note ON: Time 274080, Note Name: F3, Velocity: 33
Note ON: Time 274080, Note Name: B3, Velocity: 33
Note ON: Time 274080, Note Name: D4, Velocity: 39
Note OFF: Time 274200, Note Name: D4
Note OFF: Time 274200, Note Name: B3
Note OFF: Time 274200, Note Name: F3
Note ON: Time 274560, Note Name: D#3, Velocity: 37
Note ON: Time 274560, Note Name: G3, Velocity: 37
Note ON: Time 274560, Note Name: C4, Velocity: 45
Note OFF: Time 274680, Note Name: C4
Note OFF: Time 274680, Note Name: G3
Note OFF: Time 274680, Note Name: D#3
Note ON: Time 275040, Note Name: G5, Velocity: 63
Note OFF: Time 275160, Note Name: G5
Note ON: Time 275160, Note Name: G#5, Velocity: 59
Note OFF: Time 275280, Note Name: G#5
Note ON: Time 275280, Note Name: G5, Velocity: 63
Note OFF: Time 275400, Note Name: G5
Note ON: Time 275400, Note Name: F#5, Velocity: 59
Note OFF: Time 275520, Note Name: F#5
Note ON: Time 275520, Note Name: G5, Velocity: 70
Note OFF: Time 275760, Note Name: G5
Note ON: Time 276000, Note Name: G5, Velocity: 63
Note OFF: Time 276120, Note Name: G5
Note ON: Time 276120, Note Name: G#5, Velocity: 58
Note OFF: Time 276240, Note Name: G#5
Note ON: Time 276240, Note Name: G5, Velocity: 63
Note OFF: Time 276360, Note Name: G5
Note ON: Time 276360, Note Name: F#5, Velocity: 57
Note OFF: Time 276480, Note Name: F#5
Note ON: Time 276480, Note Name: G5, Velocity: 69
Note OFF: Time 276720, Note Name: G5
Note ON: Time 276960, Note Name: D3, Velocity: 60
Note ON: Time 276960, Note Name: F3, Velocity: 60
Note ON: Time 276960, Note Name: B3, Velocity: 72
Note OFF: Time 277200, Note Name: B3
Note OFF: Time 277200, Note Name: F3
Note OFF: Time 277200, Note Name: D3
Note ON: Time 277920, Note Name: C3, Velocity: 55
Note ON: Time 277920, Note Name: D#3, Velocity: 55
Note ON: Time 277920, Note Name: F#3, Velocity: 55
Note ON: Time 277920, Note Name: C4, Velocity: 66
Note OFF: Time 278880, Note Name: C4
Note OFF: Time 278880, Note Name: C3
Note OFF: Time 278880, Note Name: D#3
Note OFF: Time 278880, Note Name: F#3
Note ON: Time 278880, Note Name: A3, Velocity: 35
Note ON: Time 278880, Note Name: C4, Velocity: 35
Note ON: Time 278880, Note Name: D4, Velocity: 41
Note OFF: Time 279000, Note Name: D4
Note OFF: Time 279000, Note Name: C4
Note OFF: Time 279000, Note Name: A3
Note ON: Time 279360, Note Name: G3, Velocity: 37
Note ON: Time 279360, Note Name: C4, Velocity: 37
Note ON: Time 279360, Note Name: D#4, Velocity: 45
Note OFF: Time 279480, Note Name: D#4
Note OFF: Time 279480, Note Name: C4
Note OFF: Time 279480, Note Name: G3
Note ON: Time 279840, Note Name: F3, Velocity: 33
Note ON: Time 279840, Note Name: B3, Velocity: 33
Note ON: Time 279840, Note Name: D4, Velocity: 39
Note OFF: Time 279960, Note Name: D4
Note OFF: Time 279960, Note Name: B3
Note OFF: Time 279960, Note Name: F3
Note ON: Time 280320, Note Name: D#3, Velocity: 37
Note ON: Time 280320, Note Name: G3, Velocity: 37
Note ON: Time 280320, Note Name: C4, Velocity: 45
Note OFF: Time 280560, Note Name: C4
Note OFF: Time 280560, Note Name: G3
Note OFF: Time 280560, Note Name: D#3
Note ON: Time 280800, Note Name: B3, Velocity: 30
Note ON: Time 280800, Note Name: F4, Velocity: 36
Note OFF: Time 281040, Note Name: F4
Note OFF: Time 281040, Note Name: B3
Note ON: Time 281040, Note Name: C4, Velocity: 27
Note ON: Time 281040, Note Name: D#4, Velocity: 32
Note OFF: Time 281280, Note Name: D#4
Note OFF: Time 281280, Note Name: C4
Note ON: Time 281760, Note Name: F4, Velocity: 31
Note ON: Time 281760, Note Name: B4, Velocity: 37
Note OFF: Time 282000, Note Name: B4
Note OFF: Time 282000, Note Name: F4
Note ON: Time 282000, Note Name: D#4, Velocity: 27
Note ON: Time 282000, Note Name: C5, Velocity: 32
Note OFF: Time 282240, Note Name: C5
Note OFF: Time 282240, Note Name: D#4
Note ON: Time 282720, Note Name: F5, Velocity: 37
Note ON: Time 282720, Note Name: B4, Velocity: 31
Note OFF: Time 282960, Note Name: B4
Note OFF: Time 282960, Note Name: F5
Note ON: Time 282960, Note Name: C5, Velocity: 27
Note ON: Time 282960, Note Name: D#5, Velocity: 32
Note OFF: Time 283200, Note Name: D#5
Note OFF: Time 283200, Note Name: C5
Note ON: Time 283680, Note Name: B5, Velocity: 43
Note ON: Time 283680, Note Name: F5, Velocity: 36
Note OFF: Time 283920, Note Name: F5
Note OFF: Time 283920, Note Name: B5
Note ON: Time 283920, Note Name: D#5, Velocity: 30
Note ON: Time 283920, Note Name: C6, Velocity: 36
Note OFF: Time 284160, Note Name: C6
Note OFF: Time 284160, Note Name: D#5
Note ON: Time 284640, Note Name: C4, Velocity: 36
Note ON: Time 284640, Note Name: F#4, Velocity: 44
Note OFF: Time 284880, Note Name: F#4
Note OFF: Time 284880, Note Name: C4
Note ON: Time 284880, Note Name: C#4, Velocity: 33
Note ON: Time 284880, Note Name: F4, Velocity: 40
Note OFF: Time 285120, Note Name: F4
Note OFF: Time 285120, Note Name: C#4
Note ON: Time 285600, Note Name: F4, Velocity: 43
Note ON: Time 285600, Note Name: C#5, Velocity: 52
Note OFF: Time 285840, Note Name: C#5
Note OFF: Time 285840, Note Name: F4
Note ON: Time 285840, Note Name: F#4, Velocity: 38
Note ON: Time 285840, Note Name: C5, Velocity: 45
Note OFF: Time 286080, Note Name: C5
Note OFF: Time 286080, Note Name: F#4
Note ON: Time 286560, Note Name: F5, Velocity: 65
Note ON: Time 286560, Note Name: C#5, Velocity: 54
Note OFF: Time 286800, Note Name: C#5
Note OFF: Time 286800, Note Name: F5
Note ON: Time 286800, Note Name: C5, Velocity: 47
Note ON: Time 286800, Note Name: F#5, Velocity: 57
Note OFF: Time 287040, Note Name: F#5
Note OFF: Time 287040, Note Name: C5
Note ON: Time 287520, Note Name: C#6, Velocity: 76
Note ON: Time 287520, Note Name: F5, Velocity: 63
Note OFF: Time 287760, Note Name: F5
Note OFF: Time 287760, Note Name: C#6
Note ON: Time 287760, Note Name: F#5, Velocity: 55
Note ON: Time 287760, Note Name: C6, Velocity: 65
Note OFF: Time 288000, Note Name: C6
Note OFF: Time 288000, Note Name: F#5
Note ON: Time 288000, Note Name: D#6, Velocity: 84
Note ON: Time 288000, Note Name: F#5, Velocity: 78
Note OFF: Time 289920, Note Name: F#5
Note OFF: Time 289920, Note Name: D#6
Note ON: Time 289920, Note Name: C#6, Velocity: 59
Note ON: Time 289920, Note Name: D#5, Velocity: 40
Note OFF: Time 290400, Note Name: C#6
Note ON: Time 290400, Note Name: C6, Velocity: 54
Note OFF: Time 290880, Note Name: C6
Note OFF: Time 290880, Note Name: D#5
Note ON: Time 290880, Note Name: A#5, Velocity: 57
Note ON: Time 290880, Note Name: C5, Velocity: 40
Note OFF: Time 291360, Note Name: A#5
Note ON: Time 291360, Note Name: G#5, Velocity: 50
Note OFF: Time 291600, Note Name: G#5
Note ON: Time 291600, Note Name: F5, Velocity: 41
Note OFF: Time 291680, Note Name: F5
Note ON: Time 291680, Note Name: F#5, Velocity: 36
Note OFF: Time 291760, Note Name: F#5
Note ON: Time 291760, Note Name: G#5, Velocity: 36
Note OFF: Time 291840, Note Name: G#5
Note ON: Time 291840, Note Name: F#5, Velocity: 50
Note OFF: Time 292800, Note Name: F#5
Note OFF: Time 292800, Note Name: C5
Note ON: Time 293040, Note Name: G#3, Velocity: 34
Note OFF: Time 293160, Note Name: G#3
Note ON: Time 293280, Note Name: A#3, Velocity: 31
Note OFF: Time 293400, Note Name: A#3
Note ON: Time 293520, Note Name: C4, Velocity: 31
Note OFF: Time 293640, Note Name: C4
Note ON: Time 293760, Note Name: F3, Velocity: 33
Note ON: Time 293760, Note Name: G#3, Velocity: 33
Note ON: Time 293760, Note Name: C#4, Velocity: 39
Note OFF: Time 293880, Note Name: C#4
Note ON: Time 294000, Note Name: D#4, Velocity: 34
Note OFF: Time 294120, Note Name: D#4
Note ON: Time 294240, Note Name: F4, Velocity: 34
Note OFF: Time 294360, Note Name: F4
Note OFF: Time 294720, Note Name: G#3
Note OFF: Time 294720, Note Name: F3
Note ON: Time 294720, Note Name: G#3, Velocity: 32
Note ON: Time 294720, Note Name: D#4, Velocity: 38
Note OFF: Time 294840, Note Name: D#4
Note OFF: Time 294840, Note Name: G#3
Note ON: Time 295200, Note Name: G#3, Velocity: 27
Note ON: Time 295200, Note Name: C#4, Velocity: 33
Note OFF: Time 295320, Note Name: C#4
Note OFF: Time 295320, Note Name: G#3
Note ON: Time 295680, Note Name: F#3, Velocity: 31
Note ON: Time 295680, Note Name: G#3, Velocity: 31
Note ON: Time 295680, Note Name: C4, Velocity: 31
Note ON: Time 295680, Note Name: F#4, Velocity: 37
Note OFF: Time 296880, Note Name: F#4
Note OFF: Time 296880, Note Name: F#3
Note OFF: Time 296880, Note Name: G#3
Note OFF: Time 296880, Note Name: C4
Note ON: Time 296880, Note Name: G#3, Velocity: 34
Note OFF: Time 297000, Note Name: G#3
Note ON: Time 297120, Note Name: A#3, Velocity: 31
Note OFF: Time 297240, Note Name: A#3
Note ON: Time 297360, Note Name: C4, Velocity: 31
Note OFF: Time 297480, Note Name: C4
Note ON: Time 297600, Note Name: F3, Velocity: 33
Note ON: Time 297600, Note Name: G#3, Velocity: 33
Note ON: Time 297600, Note Name: C#4, Velocity: 39
Note OFF: Time 297720, Note Name: C#4
Note ON: Time 297840, Note Name: D#4, Velocity: 34
Note OFF: Time 297960, Note Name: D#4
Note ON: Time 298080, Note Name: F4, Velocity: 34
Note OFF: Time 298200, Note Name: F4
Note OFF: Time 298560, Note Name: G#3
Note OFF: Time 298560, Note Name: F3
Note ON: Time 298560, Note Name: D#3, Velocity: 32
Note ON: Time 298560, Note Name: A#3, Velocity: 32
Note ON: Time 298560, Note Name: D#4, Velocity: 38
Note OFF: Time 298680, Note Name: D#4
Note OFF: Time 298680, Note Name: A#3
Note OFF: Time 298680, Note Name: D#3
Note ON: Time 299040, Note Name: A#3, Velocity: 27
Note ON: Time 299040, Note Name: D#3, Velocity: 27
Note ON: Time 299040, Note Name: C#4, Velocity: 33
Note OFF: Time 299160, Note Name: C#4
Note OFF: Time 299160, Note Name: D#3
Note OFF: Time 299160, Note Name: A#3
Note ON: Time 299520, Note Name: C3, Velocity: 26
Note ON: Time 299520, Note Name: D#3, Velocity: 26
Note ON: Time 299520, Note Name: G#3, Velocity: 31
Note OFF: Time 300480, Note Name: G#3
Note OFF: Time 300480, Note Name: D#3
Note OFF: Time 300480, Note Name: C3
Note ON: Time 300720, Note Name: G#3, Velocity: 34
Note OFF: Time 300840, Note Name: G#3
Note ON: Time 300960, Note Name: A#3, Velocity: 31
Note OFF: Time 301080, Note Name: A#3
Note ON: Time 301200, Note Name: C4, Velocity: 31
Note OFF: Time 301320, Note Name: C4
Note ON: Time 301440, Note Name: F3, Velocity: 33
Note ON: Time 301440, Note Name: G#3, Velocity: 33
Note ON: Time 301440, Note Name: C#4, Velocity: 39
Note OFF: Time 301560, Note Name: C#4
Note ON: Time 301680, Note Name: D#4, Velocity: 34
Note OFF: Time 301800, Note Name: D#4
Note ON: Time 301920, Note Name: F4, Velocity: 34
Note OFF: Time 302040, Note Name: F4
Note OFF: Time 302400, Note Name: G#3
Note OFF: Time 302400, Note Name: F3
Note ON: Time 302400, Note Name: G#3, Velocity: 32
Note ON: Time 302400, Note Name: D#4, Velocity: 38
Note OFF: Time 302520, Note Name: D#4
Note OFF: Time 302520, Note Name: G#3
Note ON: Time 302880, Note Name: G#3, Velocity: 27
Note ON: Time 302880, Note Name: C#4, Velocity: 33
Note OFF: Time 303000, Note Name: C#4
Note OFF: Time 303000, Note Name: G#3
Note ON: Time 303360, Note Name: F#3, Velocity: 28
Note ON: Time 303360, Note Name: G#3, Velocity: 28
Note ON: Time 303360, Note Name: C4, Velocity: 28
Note ON: Time 303360, Note Name: F#4, Velocity: 35
Note OFF: Time 304080, Note Name: F#4
Note ON: Time 304080, Note Name: D#4, Velocity: 30
Note OFF: Time 304318, Note Name: C4
Note OFF: Time 304320, Note Name: D#4
Note ON: Time 304320, Note Name: C4, Velocity: 34
Note OFF: Time 305280, Note Name: C4
Note OFF: Time 305280, Note Name: G#3
Note OFF: Time 305280, Note Name: F#3
Note ON: Time 305918, Note Name: F#3, Velocity: 40
Note ON: Time 306025, Note Name: A3, Velocity: 43
Note ON: Time 306131, Note Name: C4, Velocity: 46
Note ON: Time 306240, Note Name: F#4, Velocity: 49
Note OFF: Time 306960, Note Name: F#4
Note ON: Time 306960, Note Name: D#4, Velocity: 30
Note OFF: Time 307197, Note Name: C4
Note OFF: Time 307200, Note Name: D#4
Note ON: Time 307200, Note Name: C4, Velocity: 34
Note OFF: Time 308160, Note Name: C4
Note OFF: Time 308160, Note Name: A3
Note OFF: Time 308160, Note Name: F#3
Note ON: Time 308799, Note Name: G3, Velocity: 63
Note OFF: Time 308905, Note Name: G3
Note ON: Time 308905, Note Name: C4, Velocity: 65
Note ON: Time 309011, Note Name: D#4, Velocity: 67
Note OFF: Time 309012, Note Name: C4
Note OFF: Time 309120, Note Name: D#4
Note ON: Time 309120, Note Name: G4, Velocity: 70
Note OFF: Time 309240, Note Name: G4
Note ON: Time 309360, Note Name: D#4, Velocity: 63
Note OFF: Time 309480, Note Name: D#4
Note ON: Time 309600, Note Name: C4, Velocity: 67
Note OFF: Time 309720, Note Name: C4
Note ON: Time 309840, Note Name: G3, Velocity: 63
Note OFF: Time 309960, Note Name: G3
Note ON: Time 312240, Note Name: C4, Velocity: 44
Note OFF: Time 312360, Note Name: C4
Note ON: Time 312480, Note Name: D4, Velocity: 47
Note OFF: Time 312600, Note Name: D4
Note ON: Time 312720, Note Name: E4, Velocity: 51
Note OFF: Time 312840, Note Name: E4
Note ON: Time 312960, Note Name: F4, Velocity: 54
Note OFF: Time 313080, Note Name: F4
Note ON: Time 313200, Note Name: G4, Velocity: 46
Note OFF: Time 313320, Note Name: G4
Note ON: Time 313440, Note Name: G#4, Velocity: 47
Note OFF: Time 313560, Note Name: G#4
Note ON: Time 313680, Note Name: C6, Velocity: 56
Note OFF: Time 313920, Note Name: C6
Note ON: Time 313920, Note Name: B5, Velocity: 65
Note OFF: Time 314160, Note Name: B5
Note ON: Time 314160, Note Name: C6, Velocity: 55
Note OFF: Time 314400, Note Name: C6
Note ON: Time 314400, Note Name: F6, Velocity: 66
Note OFF: Time 314520, Note Name: F6
Note ON: Time 314640, Note Name: F6, Velocity: 54
Note OFF: Time 314760, Note Name: F6
Note ON: Time 314880, Note Name: E6, Velocity: 66
Note OFF: Time 315360, Note Name: E6
Note ON: Time 316080, Note Name: C4, Velocity: 44
Note OFF: Time 316200, Note Name: C4
Note ON: Time 316320, Note Name: D4, Velocity: 47
Note OFF: Time 316440, Note Name: D4
Note ON: Time 316560, Note Name: E4, Velocity: 51
Note OFF: Time 316680, Note Name: E4
Note ON: Time 316800, Note Name: F4, Velocity: 54
Note OFF: Time 316920, Note Name: F4
Note ON: Time 317040, Note Name: G4, Velocity: 46
Note OFF: Time 317160, Note Name: G4
Note ON: Time 317280, Note Name: G#4, Velocity: 47
Note OFF: Time 317400, Note Name: G#4
Note ON: Time 317520, Note Name: C6, Velocity: 56
Note OFF: Time 317760, Note Name: C6
Note ON: Time 317760, Note Name: B5, Velocity: 65
Note OFF: Time 318000, Note Name: B5
Note ON: Time 318000, Note Name: C6, Velocity: 55
Note OFF: Time 318240, Note Name: C6
Note ON: Time 318240, Note Name: F6, Velocity: 66
Note OFF: Time 318360, Note Name: F6
Note ON: Time 318480, Note Name: F6, Velocity: 54
Note OFF: Time 318600, Note Name: F6
Note ON: Time 318720, Note Name: E6, Velocity: 66
Note OFF: Time 319200, Note Name: E6
Note ON: Time 319440, Note Name: C5, Velocity: 50
Note OFF: Time 319680, Note Name: C5
Note ON: Time 319680, Note Name: B4, Velocity: 57
Note OFF: Time 319920, Note Name: B4
Note ON: Time 319920, Note Name: C5, Velocity: 47
Note OFF: Time 320160, Note Name: C5
Note ON: Time 320160, Note Name: F5, Velocity: 57
Note OFF: Time 320280, Note Name: F5
Note ON: Time 320400, Note Name: F5, Velocity: 45
Note OFF: Time 320520, Note Name: F5
Note ON: Time 320640, Note Name: E5, Velocity: 55
Note OFF: Time 321120, Note Name: E5
Note ON: Time 321360, Note Name: C4, Velocity: 45
Note OFF: Time 321600, Note Name: C4
Note ON: Time 321600, Note Name: B3, Velocity: 51
Note OFF: Time 321838, Note Name: B3
Note ON: Time 321840, Note Name: C4, Velocity: 43
Note OFF: Time 322080, Note Name: C4
Note ON: Time 322080, Note Name: F4, Velocity: 51
Note OFF: Time 322200, Note Name: F4
Note ON: Time 322320, Note Name: F4, Velocity: 40
Note OFF: Time 322440, Note Name: F4
Note ON: Time 322560, Note Name: E4, Velocity: 49
Note OFF: Time 323040, Note Name: E4
Note ON: Time 323280, Note Name: C2, Velocity: 30
Note OFF: Time 323518, Note Name: C2
Note ON: Time 323520, Note Name: C2, Velocity: 40
Note OFF: Time 324000, Note Name: C2
Note ON: Time 324240, Note Name: C2, Velocity: 26
Note OFF: Time 324480, Note Name: C2
Note ON: Time 324480, Note Name: C2, Velocity: 33
Note OFF: Time 324960, Note Name: C2
Track 2: Piano left
Note ON: Time 720, Note Name: C3, Velocity: 36
Note OFF: Time 960, Note Name: C3
Note ON: Time 960, Note Name: B2, Velocity: 38
Note OFF: Time 1200, Note Name: B2
Note ON: Time 1200, Note Name: C3, Velocity: 35
Note OFF: Time 1440, Note Name: C3
Note ON: Time 1440, Note Name: F3, Velocity: 38
Note OFF: Time 1560, Note Name: F3
Note ON: Time 1680, Note Name: F3, Velocity: 34
Note OFF: Time 1800, Note Name: F3
Note ON: Time 1920, Note Name: D#3, Velocity: 38
Note OFF: Time 2400, Note Name: D#3
Note ON: Time 2640, Note Name: C3, Velocity: 36
Note OFF: Time 2880, Note Name: C3
Note ON: Time 2880, Note Name: B2, Velocity: 38
Note OFF: Time 3120, Note Name: B2
Note ON: Time 3120, Note Name: C3, Velocity: 35
Note OFF: Time 3360, Note Name: C3
Note ON: Time 3360, Note Name: G#3, Velocity: 38
Note OFF: Time 3480, Note Name: G#3
Note ON: Time 3600, Note Name: G#3, Velocity: 34
Note OFF: Time 3720, Note Name: G#3
Note ON: Time 3840, Note Name: G3, Velocity: 38
Note OFF: Time 4320, Note Name: G3
Note ON: Time 5760, Note Name: G#3, Velocity: 38
Note ON: Time 5760, Note Name: C4, Velocity: 38
Note ON: Time 5760, Note Name: F#4, Velocity: 38
Note OFF: Time 7680, Note Name: F#4
Note OFF: Time 7680, Note Name: C4
Note OFF: Time 7680, Note Name: G#3
Note ON: Time 7680, Note Name: G4, Velocity: 38
Note ON: Time 7680, Note Name: D4, Velocity: 32
Note ON: Time 7680, Note Name: G3, Velocity: 32
Note OFF: Time 8160, Note Name: G3
Note OFF: Time 8160, Note Name: D4
Note OFF: Time 8160, Note Name: G4
Note ON: Time 8400, Note Name: G2, Velocity: 36
Note OFF: Time 8640, Note Name: G2
Note ON: Time 8640, Note Name: F#2, Velocity: 38
Note OFF: Time 8880, Note Name: F#2
Note ON: Time 8880, Note Name: G2, Velocity: 35
Note OFF: Time 9120, Note Name: G2
Note ON: Time 9120, Note Name: C3, Velocity: 38
Note OFF: Time 9240, Note Name: C3
Note ON: Time 9360, Note Name: C3, Velocity: 34
Note OFF: Time 9480, Note Name: C3
Note ON: Time 9600, Note Name: B2, Velocity: 38
Note OFF: Time 10080, Note Name: B2
Note ON: Time 10320, Note Name: G2, Velocity: 36
Note OFF: Time 10560, Note Name: G2
Note ON: Time 10560, Note Name: F#2, Velocity: 38
Note OFF: Time 10800, Note Name: F#2
Note ON: Time 10800, Note Name: G2, Velocity: 35
Note OFF: Time 11040, Note Name: G2
Note ON: Time 11040, Note Name: D#3, Velocity: 38
Note OFF: Time 11160, Note Name: D#3
Note ON: Time 11280, Note Name: D#3, Velocity: 34
Note OFF: Time 11400, Note Name: D#3
Note ON: Time 11520, Note Name: D3, Velocity: 38
Note OFF: Time 12000, Note Name: D3
Note ON: Time 12240, Note Name: G2, Velocity: 37
Note OFF: Time 12360, Note Name: G2
Note ON: Time 12480, Note Name: B2, Velocity: 43
Note OFF: Time 12600, Note Name: B2
Note ON: Time 12720, Note Name: D3, Velocity: 37
Note OFF: Time 12840, Note Name: D3
Note ON: Time 12960, Note Name: F3, Velocity: 37
Note OFF: Time 13080, Note Name: F3
Note ON: Time 13200, Note Name: G#3, Velocity: 37
Note OFF: Time 13320, Note Name: G#3
Note ON: Time 13440, Note Name: B3, Velocity: 46
Note OFF: Time 13560, Note Name: B3
Note ON: Time 13680, Note Name: D4, Velocity: 45
Note OFF: Time 13800, Note Name: D4
Note ON: Time 13920, Note Name: F4, Velocity: 47
Note OFF: Time 14040, Note Name: F4
Note ON: Time 14160, Note Name: G#4, Velocity: 50
Note OFF: Time 14280, Note Name: G#4
Note ON: Time 14400, Note Name: G4, Velocity: 53
Note OFF: Time 14520, Note Name: G4
Note ON: Time 14640, Note Name: F4, Velocity: 50
Note OFF: Time 14760, Note Name: F4
Note ON: Time 14880, Note Name: D#4, Velocity: 46
Note OFF: Time 15000, Note Name: D#4
Note ON: Time 15120, Note Name: D4, Velocity: 45
Note OFF: Time 15240, Note Name: D4
Note ON: Time 15360, Note Name: C4, Velocity: 42
Note OFF: Time 15480, Note Name: C4
Note ON: Time 15600, Note Name: D#4, Velocity: 32
Note ON: Time 15600, Note Name: G4, Velocity: 38
Note OFF: Time 15720, Note Name: G4
Note OFF: Time 15720, Note Name: D#4
Note ON: Time 15840, Note Name: D#4, Velocity: 32
Note ON: Time 15840, Note Name: G4, Velocity: 38
Note OFF: Time 15960, Note Name: G4
Note OFF: Time 15960, Note Name: D#4
Note ON: Time 16080, Note Name: D#4, Velocity: 32
Note ON: Time 16080, Note Name: G4, Velocity: 38
Note OFF: Time 16200, Note Name: G4
Note OFF: Time 16200, Note Name: D#4
Note ON: Time 16320, Note Name: C4, Velocity: 42
Note OFF: Time 16440, Note Name: C4
Note ON: Time 16560, Note Name: E4, Velocity: 31
Note ON: Time 16560, Note Name: G4, Velocity: 31
Note ON: Time 16560, Note Name: A#4, Velocity: 37
Note OFF: Time 16680, Note Name: A#4
Note OFF: Time 16680, Note Name: G4
Note OFF: Time 16680, Note Name: E4
Note ON: Time 16800, Note Name: E4, Velocity: 31
Note ON: Time 16800, Note Name: G4, Velocity: 31
Note ON: Time 16800, Note Name: A#4, Velocity: 37
Note OFF: Time 16920, Note Name: A#4
Note OFF: Time 16920, Note Name: G4
Note OFF: Time 16920, Note Name: E4
Note ON: Time 17040, Note Name: E4, Velocity: 31
Note ON: Time 17040, Note Name: G4, Velocity: 31
Note ON: Time 17040, Note Name: A#4, Velocity: 37
Note OFF: Time 17160, Note Name: A#4
Note OFF: Time 17160, Note Name: G4
Note OFF: Time 17160, Note Name: E4
Note ON: Time 17280, Note Name: C4, Velocity: 42
Note OFF: Time 17400, Note Name: C4
Note ON: Time 17520, Note Name: F4, Velocity: 32
Note ON: Time 17520, Note Name: G#4, Velocity: 38
Note OFF: Time 17640, Note Name: G#4
Note OFF: Time 17640, Note Name: F4
Note ON: Time 17760, Note Name: F4, Velocity: 32
Note ON: Time 17760, Note Name: G#4, Velocity: 38
Note OFF: Time 17880, Note Name: G#4
Note OFF: Time 17880, Note Name: F4
Note ON: Time 18000, Note Name: F4, Velocity: 32
Note ON: Time 18000, Note Name: G#4, Velocity: 38
Note OFF: Time 18120, Note Name: G#4
Note OFF: Time 18120, Note Name: F4
Note ON: Time 18240, Note Name: C4, Velocity: 42
Note OFF: Time 18360, Note Name: C4
Note ON: Time 18480, Note Name: F4, Velocity: 31
Note ON: Time 18480, Note Name: G#4, Velocity: 31
Note ON: Time 18480, Note Name: B4, Velocity: 37
Note OFF: Time 18600, Note Name: B4
Note OFF: Time 18600, Note Name: G#4
Note OFF: Time 18600, Note Name: F4
Note ON: Time 18720, Note Name: F4, Velocity: 31
Note ON: Time 18720, Note Name: G#4, Velocity: 31
Note ON: Time 18720, Note Name: B4, Velocity: 37
Note OFF: Time 18840, Note Name: B4
Note OFF: Time 18840, Note Name: G#4
Note OFF: Time 18840, Note Name: F4
Note ON: Time 18960, Note Name: F4, Velocity: 31
Note ON: Time 18960, Note Name: G#4, Velocity: 31
Note ON: Time 18960, Note Name: B4, Velocity: 37
Note OFF: Time 19080, Note Name: B4
Note OFF: Time 19080, Note Name: G#4
Note OFF: Time 19080, Note Name: F4
Note ON: Time 19200, Note Name: C4, Velocity: 42
Note OFF: Time 19320, Note Name: C4
Note ON: Time 19440, Note Name: D#4, Velocity: 32
Note ON: Time 19440, Note Name: G4, Velocity: 38
Note OFF: Time 19560, Note Name: G4
Note OFF: Time 19560, Note Name: D#4
Note ON: Time 19680, Note Name: D#4, Velocity: 32
Note ON: Time 19680, Note Name: G4, Velocity: 38
Note OFF: Time 19800, Note Name: G4
Note OFF: Time 19800, Note Name: D#4
Note ON: Time 19920, Note Name: D#4, Velocity: 32
Note ON: Time 19920, Note Name: G4, Velocity: 38
Note OFF: Time 20040, Note Name: G4
Note OFF: Time 20040, Note Name: D#4
Note ON: Time 20160, Note Name: C4, Velocity: 42
Note OFF: Time 20280, Note Name: C4
Note ON: Time 20400, Note Name: E4, Velocity: 31
Note ON: Time 20400, Note Name: G4, Velocity: 31
Note ON: Time 20400, Note Name: A#4, Velocity: 37
Note OFF: Time 20520, Note Name: A#4
Note OFF: Time 20520, Note Name: G4
Note OFF: Time 20520, Note Name: E4
Note ON: Time 20640, Note Name: E4, Velocity: 31
Note ON: Time 20640, Note Name: G4, Velocity: 31
Note ON: Time 20640, Note Name: A#4, Velocity: 37
Note OFF: Time 20760, Note Name: A#4
Note OFF: Time 20760, Note Name: G4
Note OFF: Time 20760, Note Name: E4
Note ON: Time 20880, Note Name: E4, Velocity: 31
Note ON: Time 20880, Note Name: G4, Velocity: 31
Note ON: Time 20880, Note Name: A#4, Velocity: 37
Note OFF: Time 21000, Note Name: A#4
Note OFF: Time 21000, Note Name: G4
Note OFF: Time 21000, Note Name: E4
Note ON: Time 21120, Note Name: C4, Velocity: 42
Note OFF: Time 21240, Note Name: C4
Note ON: Time 21360, Note Name: F4, Velocity: 32
Note ON: Time 21360, Note Name: G#4, Velocity: 38
Note OFF: Time 21480, Note Name: G#4
Note OFF: Time 21480, Note Name: F4
Note ON: Time 21600, Note Name: F4, Velocity: 32
Note ON: Time 21600, Note Name: G#4, Velocity: 38
Note OFF: Time 21720, Note Name: G#4
Note OFF: Time 21720, Note Name: F4
Note ON: Time 21840, Note Name: F4, Velocity: 32
Note ON: Time 21840, Note Name: G#4, Velocity: 38
Note OFF: Time 21960, Note Name: G#4
Note OFF: Time 21960, Note Name: F4
Note ON: Time 22080, Note Name: C4, Velocity: 42
Note OFF: Time 22200, Note Name: C4
Note ON: Time 22320, Note Name: F4, Velocity: 31
Note ON: Time 22320, Note Name: G#4, Velocity: 31
Note ON: Time 22320, Note Name: B4, Velocity: 37
Note OFF: Time 22440, Note Name: B4
Note OFF: Time 22440, Note Name: G#4
Note OFF: Time 22440, Note Name: F4
Note ON: Time 22560, Note Name: F4, Velocity: 31
Note ON: Time 22560, Note Name: G#4, Velocity: 31
Note ON: Time 22560, Note Name: B4, Velocity: 37
Note OFF: Time 22680, Note Name: B4
Note OFF: Time 22680, Note Name: G#4
Note OFF: Time 22680, Note Name: F4
Note ON: Time 22800, Note Name: F4, Velocity: 31
Note ON: Time 22800, Note Name: G#4, Velocity: 31
Note ON: Time 22800, Note Name: B4, Velocity: 37
Note OFF: Time 22920, Note Name: B4
Note OFF: Time 22920, Note Name: G#4
Note OFF: Time 22920, Note Name: F4
Note ON: Time 23040, Note Name: C4, Velocity: 36
Note ON: Time 23040, Note Name: D#4, Velocity: 36
Note ON: Time 23040, Note Name: G4, Velocity: 36
Note ON: Time 23047, Note Name: C5, Velocity: 44
Note OFF: Time 23520, Note Name: G4
Note OFF: Time 23520, Note Name: C4
Note OFF: Time 23520, Note Name: D#4
Note OFF: Time 23527, Note Name: C5
Note ON: Time 23760, Note Name: F#4, Velocity: 42
Note OFF: Time 24000, Note Name: F#4
Note ON: Time 24000, Note Name: G4, Velocity: 52
Note OFF: Time 24480, Note Name: G4
Note ON: Time 24720, Note Name: B3, Velocity: 48
Note OFF: Time 24960, Note Name: B3
Note ON: Time 24960, Note Name: C4, Velocity: 57
Note OFF: Time 25440, Note Name: C4
Note ON: Time 25680, Note Name: F#3, Velocity: 54
Note OFF: Time 25920, Note Name: F#3
Note ON: Time 25920, Note Name: G3, Velocity: 63
Note OFF: Time 26400, Note Name: G3
Note ON: Time 26640, Note Name: B2, Velocity: 57
Note OFF: Time 26880, Note Name: B2
Note ON: Time 26880, Note Name: C3, Velocity: 66
Note OFF: Time 27360, Note Name: C3
Note ON: Time 27600, Note Name: F#2, Velocity: 58
Note OFF: Time 27840, Note Name: F#2
Note ON: Time 27840, Note Name: G2, Velocity: 67
Note OFF: Time 28320, Note Name: G2
Note ON: Time 28320, Note Name: C2, Velocity: 82
Note ON: Time 28320, Note Name: C3, Velocity: 96
Note OFF: Time 28560, Note Name: C3
Note OFF: Time 28560, Note Name: C2
Note ON: Time 28800, Note Name: G1, Velocity: 55
Note ON: Time 28800, Note Name: G2, Velocity: 66
Note OFF: Time 29040, Note Name: G2
Note OFF: Time 29040, Note Name: G1
Note ON: Time 29280, Note Name: C2, Velocity: 82
Note ON: Time 29280, Note Name: C3, Velocity: 97
Note OFF: Time 29520, Note Name: C3
Note OFF: Time 29520, Note Name: C2
Note ON: Time 29760, Note Name: G1, Velocity: 57
Note ON: Time 29760, Note Name: G2, Velocity: 68
Note OFF: Time 30000, Note Name: G2
Note OFF: Time 30000, Note Name: G1
Note ON: Time 30240, Note Name: C2, Velocity: 82
Note ON: Time 30240, Note Name: C3, Velocity: 97
Note OFF: Time 30480, Note Name: C3
Note OFF: Time 30480, Note Name: C2
Note ON: Time 30720, Note Name: G1, Velocity: 66
Note ON: Time 30720, Note Name: B1, Velocity: 66
Note ON: Time 30720, Note Name: D2, Velocity: 66
Note ON: Time 30720, Note Name: G2, Velocity: 78
Note OFF: Time 31680, Note Name: G2
Note OFF: Time 31680, Note Name: G1
Note OFF: Time 31680, Note Name: B1
Note OFF: Time 31680, Note Name: D2
Note ON: Time 32640, Note Name: D#2, Velocity: 26
Note ON: Time 32640, Note Name: D#3, Velocity: 31
Note OFF: Time 33600, Note Name: D#3
Note OFF: Time 33600, Note Name: D#2
Note ON: Time 33600, Note Name: G#2, Velocity: 25
Note ON: Time 33600, Note Name: G#3, Velocity: 30
Note OFF: Time 33720, Note Name: G#3
Note OFF: Time 33720, Note Name: G#2
Note ON: Time 34080, Note Name: G2, Velocity: 23
Note ON: Time 34080, Note Name: G3, Velocity: 27
Note OFF: Time 34200, Note Name: G3
Note OFF: Time 34200, Note Name: G2
Note ON: Time 34560, Note Name: A#2, Velocity: 27
Note ON: Time 34560, Note Name: F2, Velocity: 27
Note ON: Time 34560, Note Name: F3, Velocity: 32
Note OFF: Time 35520, Note Name: F3
Note OFF: Time 35520, Note Name: F2
Note OFF: Time 35520, Note Name: A#2
Note ON: Time 36480, Note Name: D#2, Velocity: 26
Note ON: Time 36480, Note Name: D#3, Velocity: 31
Note OFF: Time 37440, Note Name: D#3
Note OFF: Time 37440, Note Name: D#2
Note ON: Time 37440, Note Name: G#1, Velocity: 25
Note ON: Time 37440, Note Name: G#2, Velocity: 30
Note OFF: Time 37560, Note Name: G#2
Note OFF: Time 37560, Note Name: G#1
Note ON: Time 37920, Note Name: A1, Velocity: 23
Note ON: Time 37920, Note Name: A2, Velocity: 27
Note OFF: Time 38040, Note Name: A2
Note OFF: Time 38040, Note Name: A1
Note ON: Time 38400, Note Name: A#1, Velocity: 22
Note ON: Time 38400, Note Name: A#2, Velocity: 27
Note OFF: Time 39360, Note Name: A#2
Note OFF: Time 39360, Note Name: A#1
Note ON: Time 40320, Note Name: D#2, Velocity: 26
Note ON: Time 40320, Note Name: D#3, Velocity: 31
Note OFF: Time 41280, Note Name: D#3
Note OFF: Time 41280, Note Name: D#2
Note ON: Time 41280, Note Name: G#2, Velocity: 25
Note ON: Time 41280, Note Name: G#3, Velocity: 30
Note OFF: Time 41400, Note Name: G#3
Note OFF: Time 41400, Note Name: G#2
Note ON: Time 41760, Note Name: G2, Velocity: 23
Note ON: Time 41760, Note Name: G3, Velocity: 27
Note OFF: Time 41880, Note Name: G3
Note OFF: Time 41880, Note Name: G2
Note ON: Time 42135, Note Name: G#2, Velocity: 28
Note ON: Time 42150, Note Name: C3, Velocity: 32
Note ON: Time 42165, Note Name: D#3, Velocity: 36
Note ON: Time 42180, Note Name: G#3, Velocity: 40
Note OFF: Time 42720, Note Name: G#3
Note OFF: Time 42720, Note Name: G#2
Note OFF: Time 42720, Note Name: C3
Note OFF: Time 42720, Note Name: D#3
Note ON: Time 44160, Note Name: A#2, Velocity: 80
Note ON: Time 45360, Note Name: A#1, Velocity: 49
Note OFF: Time 45480, Note Name: A#1
Note ON: Time 45600, Note Name: C2, Velocity: 53
Note OFF: Time 45720, Note Name: C2
Note ON: Time 45840, Note Name: D2, Velocity: 45
Note OFF: Time 45960, Note Name: D2
Note ON: Time 46080, Note Name: D#2, Velocity: 53
Note OFF: Time 46200, Note Name: D#2
Note ON: Time 46320, Note Name: F2, Velocity: 49
Note OFF: Time 46440, Note Name: F2
Note ON: Time 46560, Note Name: G2, Velocity: 51
Note OFF: Time 46680, Note Name: G2
Note ON: Time 47040, Note Name: F2, Velocity: 53
Note OFF: Time 47520, Note Name: F2
Note ON: Time 47520, Note Name: D#2, Velocity: 50
Note OFF: Time 48000, Note Name: D#2
Note OFF: Time 48000, Note Name: A#2
Note ON: Time 48000, Note Name: A#2, Velocity: 80
Note ON: Time 49200, Note Name: A#1, Velocity: 49
Note OFF: Time 49320, Note Name: A#1
Note ON: Time 49440, Note Name: C2, Velocity: 53
Note OFF: Time 49560, Note Name: C2
Note ON: Time 49680, Note Name: D2, Velocity: 45
Note OFF: Time 49800, Note Name: D2
Note ON: Time 49920, Note Name: D#2, Velocity: 53
Note OFF: Time 50040, Note Name: D#2
Note ON: Time 50160, Note Name: F2, Velocity: 49
Note OFF: Time 50280, Note Name: F2
Note ON: Time 50400, Note Name: G2, Velocity: 51
Note OFF: Time 50520, Note Name: G2
Note ON: Time 50880, Note Name: F2, Velocity: 53
Note OFF: Time 51360, Note Name: F2
Note ON: Time 51360, Note Name: D#2, Velocity: 50
Note OFF: Time 51840, Note Name: D#2
Note OFF: Time 51840, Note Name: A#2
Note ON: Time 51840, Note Name: G#2, Velocity: 45
Note ON: Time 51840, Note Name: C3, Velocity: 45
Note ON: Time 51840, Note Name: F3, Velocity: 53
Note OFF: Time 52320, Note Name: F3
Note OFF: Time 52320, Note Name: C3
Note OFF: Time 52320, Note Name: G#2
Note ON: Time 52800, Note Name: A#2, Velocity: 42
Note ON: Time 52800, Note Name: F3, Velocity: 42
Note ON: Time 52800, Note Name: G#3, Velocity: 50
Note OFF: Time 53280, Note Name: G#3
Note OFF: Time 53280, Note Name: F3
Note OFF: Time 53280, Note Name: A#2
Note ON: Time 53760, Note Name: G3, Velocity: 58
Note ON: Time 53760, Note Name: D#3, Velocity: 49
Note OFF: Time 54240, Note Name: D#3
Note OFF: Time 54240, Note Name: G3
Note ON: Time 54480, Note Name: D#3, Velocity: 54
Note OFF: Time 54720, Note Name: D#3
Note ON: Time 54720, Note Name: D3, Velocity: 60
Note OFF: Time 54960, Note Name: D3
Note ON: Time 54960, Note Name: D#3, Velocity: 55
Note OFF: Time 55200, Note Name: D#3
Note ON: Time 55200, Note Name: C3, Velocity: 52
Note ON: Time 55200, Note Name: G#3, Velocity: 62
Note OFF: Time 55320, Note Name: G#3
Note OFF: Time 55320, Note Name: C3
Note ON: Time 55440, Note Name: C3, Velocity: 48
Note ON: Time 55440, Note Name: G#3, Velocity: 57
Note OFF: Time 55560, Note Name: G#3
Note OFF: Time 55560, Note Name: C3
Note ON: Time 55680, Note Name: G3, Velocity: 65
Note ON: Time 55680, Note Name: A#2, Velocity: 55
Note OFF: Time 56160, Note Name: A#2
Note OFF: Time 56160, Note Name: G3
Note ON: Time 56400, Note Name: D#3, Velocity: 61
Note OFF: Time 56640, Note Name: D#3
Note ON: Time 56640, Note Name: D3, Velocity: 68
Note OFF: Time 56880, Note Name: D3
Note ON: Time 56880, Note Name: D#3, Velocity: 63
Note OFF: Time 57120, Note Name: D#3
Note ON: Time 57120, Note Name: G#3, Velocity: 58
Note ON: Time 57120, Note Name: C4, Velocity: 69
Note OFF: Time 57240, Note Name: C4
Note OFF: Time 57240, Note Name: G#3
Note ON: Time 57360, Note Name: G#3, Velocity: 54
Note ON: Time 57360, Note Name: C4, Velocity: 64
Note OFF: Time 57480, Note Name: C4
Note OFF: Time 57480, Note Name: G#3
Note ON: Time 57600, Note Name: A#3, Velocity: 71
Note ON: Time 57600, Note Name: G3, Velocity: 71
Note OFF: Time 57840, Note Name: G3
Note OFF: Time 57840, Note Name: A#3
Note ON: Time 57840, Note Name: D#3, Velocity: 62
Note OFF: Time 57960, Note Name: D#3
Note ON: Time 57960, Note Name: D#4, Velocity: 54
Note OFF: Time 58080, Note Name: D#4
Note ON: Time 58080, Note Name: D#3, Velocity: 63
Note OFF: Time 58200, Note Name: D#3
Note ON: Time 58200, Note Name: D#4, Velocity: 56
Note OFF: Time 58320, Note Name: D#4
Note ON: Time 58320, Note Name: D#3, Velocity: 63
Note OFF: Time 58440, Note Name: D#3
Note ON: Time 58440, Note Name: D#4, Velocity: 57
Note OFF: Time 58560, Note Name: D#4
Note ON: Time 58560, Note Name: D#3, Velocity: 63
Note OFF: Time 58680, Note Name: D#3
Note ON: Time 58680, Note Name: D#4, Velocity: 55
Note OFF: Time 58800, Note Name: D#4
Note ON: Time 58800, Note Name: D#3, Velocity: 64
Note OFF: Time 58920, Note Name: D#3
Note ON: Time 58920, Note Name: D#4, Velocity: 59
Note OFF: Time 59040, Note Name: D#4
Note ON: Time 59040, Note Name: D#3, Velocity: 65
Note OFF: Time 59160, Note Name: D#3
Note ON: Time 59160, Note Name: D#4, Velocity: 58
Note OFF: Time 59280, Note Name: D#4
Note ON: Time 59280, Note Name: D#3, Velocity: 66
Note OFF: Time 59400, Note Name: D#3
Note ON: Time 59400, Note Name: D#4, Velocity: 61
Note OFF: Time 59520, Note Name: D#4
Note ON: Time 59520, Note Name: D3, Velocity: 49
Note ON: Time 59520, Note Name: F3, Velocity: 49
Note ON: Time 59520, Note Name: G#3, Velocity: 49
Note ON: Time 59520, Note Name: A#3, Velocity: 49
Note ON: Time 59547, Note Name: D4, Velocity: 66
Note OFF: Time 61440, Note Name: A#3
Note OFF: Time 61440, Note Name: G#3
Note OFF: Time 61440, Note Name: D3
Note OFF: Time 61440, Note Name: F3
Note ON: Time 61440, Note Name: D#3, Velocity: 49
Note ON: Time 61440, Note Name: G3, Velocity: 49
Note ON: Time 61440, Note Name: A#3, Velocity: 49
Note ON: Time 61440, Note Name: D#4, Velocity: 66
Note OFF: Time 61467, Note Name: D4
Note OFF: Time 61920, Note Name: A#3
Note OFF: Time 61920, Note Name: D#3
Note OFF: Time 61920, Note Name: G3
Note OFF: Time 61920, Note Name: D#4
Note ON: Time 63360, Note Name: G#1, Velocity: 73
Note ON: Time 63360, Note Name: G#2, Velocity: 73
Note OFF: Time 63600, Note Name: G#2
Note OFF: Time 63600, Note Name: G#1
Note ON: Time 64080, Note Name: G#1, Velocity: 63
Note ON: Time 64080, Note Name: G#2, Velocity: 63
Note OFF: Time 64200, Note Name: G#2
Note OFF: Time 64200, Note Name: G#1
Note ON: Time 64320, Note Name: A#1, Velocity: 70
Note ON: Time 64320, Note Name: A#2, Velocity: 70
Note OFF: Time 64560, Note Name: A#2
Note OFF: Time 64560, Note Name: A#1
Note ON: Time 65040, Note Name: A#1, Velocity: 63
Note ON: Time 65040, Note Name: A#2, Velocity: 63
Note OFF: Time 65160, Note Name: A#2
Note OFF: Time 65160, Note Name: A#1
Note ON: Time 65520, Note Name: G#4, Velocity: 63
Note OFF: Time 65640, Note Name: G#4
Note ON: Time 65640, Note Name: A#4, Velocity: 65
Note OFF: Time 65760, Note Name: A#4
Note ON: Time 65760, Note Name: C5, Velocity: 69
Note OFF: Time 65880, Note Name: C5
Note ON: Time 65880, Note Name: A#4, Velocity: 67
Note OFF: Time 66000, Note Name: A#4
Note ON: Time 66000, Note Name: G#4, Velocity: 65
Note OFF: Time 66120, Note Name: G#4
Note ON: Time 66120, Note Name: G4, Velocity: 64
Note OFF: Time 66240, Note Name: G4
Note ON: Time 66240, Note Name: F4, Velocity: 67
Note OFF: Time 66400, Note Name: F4
Note ON: Time 66400, Note Name: D#4, Velocity: 61
Note OFF: Time 66560, Note Name: D#4
Note ON: Time 66560, Note Name: D4, Velocity: 61
Note OFF: Time 66720, Note Name: D4
Note ON: Time 66720, Note Name: C4, Velocity: 67
Note OFF: Time 66880, Note Name: C4
Note ON: Time 66880, Note Name: A#3, Velocity: 62
Note OFF: Time 67040, Note Name: A#3
Note ON: Time 67040, Note Name: G#3, Velocity: 62
Note OFF: Time 67200, Note Name: G#3
Note ON: Time 67200, Note Name: G3, Velocity: 67
Note OFF: Time 67360, Note Name: G3
Note ON: Time 67360, Note Name: G#3, Velocity: 63
Note OFF: Time 67520, Note Name: G#3
Note ON: Time 67520, Note Name: A#3, Velocity: 63
Note OFF: Time 67680, Note Name: A#3
Note ON: Time 67680, Note Name: G#3, Velocity: 67
Note OFF: Time 67840, Note Name: G#3
Note ON: Time 67840, Note Name: G3, Velocity: 60
Note OFF: Time 68000, Note Name: G3
Note ON: Time 68000, Note Name: F3, Velocity: 60
Note OFF: Time 68160, Note Name: F3
Note ON: Time 68160, Note Name: D#3, Velocity: 70
Note OFF: Time 68320, Note Name: D#3
Note ON: Time 68320, Note Name: D3, Velocity: 63
Note OFF: Time 68480, Note Name: D3
Note ON: Time 68480, Note Name: C3, Velocity: 66
Note OFF: Time 68640, Note Name: C3
Note ON: Time 68640, Note Name: A#2, Velocity: 74
Note OFF: Time 68800, Note Name: A#2
Note ON: Time 68800, Note Name: G#2, Velocity: 67
Note OFF: Time 68960, Note Name: G#2
Note ON: Time 68960, Note Name: G2, Velocity: 67
Note OFF: Time 69120, Note Name: G2
Note ON: Time 69120, Note Name: G#1, Velocity: 73
Note ON: Time 69120, Note Name: G#2, Velocity: 73
Note OFF: Time 69360, Note Name: G#2
Note OFF: Time 69360, Note Name: G#1
Note ON: Time 69840, Note Name: G#1, Velocity: 63
Note ON: Time 69840, Note Name: G#2, Velocity: 63
Note OFF: Time 69960, Note Name: G#2
Note OFF: Time 69960, Note Name: G#1
Note ON: Time 70080, Note Name: A#1, Velocity: 70
Note ON: Time 70080, Note Name: A#2, Velocity: 70
Note OFF: Time 70320, Note Name: A#2
Note OFF: Time 70320, Note Name: A#1
Note ON: Time 70800, Note Name: A#1, Velocity: 63
Note ON: Time 70800, Note Name: A#2, Velocity: 63
Note OFF: Time 70920, Note Name: A#2
Note OFF: Time 70920, Note Name: A#1
Note ON: Time 71040, Note Name: D#2, Velocity: 59
Note ON: Time 71040, Note Name: G2, Velocity: 59
Note ON: Time 71040, Note Name: A#2, Velocity: 59
Note ON: Time 71040, Note Name: D#3, Velocity: 70
Note OFF: Time 71520, Note Name: D#3
Note OFF: Time 71520, Note Name: D#2
Note OFF: Time 71520, Note Name: G2
Note OFF: Time 71520, Note Name: A#2
Note ON: Time 71520, Note Name: E4, Velocity: 53
Note ON: Time 71520, Note Name: G4, Velocity: 63
Note OFF: Time 71640, Note Name: G4
Note OFF: Time 71640, Note Name: E4
Note ON: Time 71760, Note Name: E4, Velocity: 53
Note ON: Time 71760, Note Name: G4, Velocity: 63
Note OFF: Time 71880, Note Name: G4
Note OFF: Time 71880, Note Name: E4
Note ON: Time 72000, Note Name: F4, Velocity: 59
Note ON: Time 72000, Note Name: G#4, Velocity: 70
Note OFF: Time 72240, Note Name: G#4
Note OFF: Time 72240, Note Name: F4
Note ON: Time 72480, Note Name: E4, Velocity: 53
Note ON: Time 72480, Note Name: G4, Velocity: 63
Note OFF: Time 72600, Note Name: G4
Note OFF: Time 72600, Note Name: E4
Note ON: Time 72720, Note Name: E4, Velocity: 53
Note ON: Time 72720, Note Name: G4, Velocity: 63
Note OFF: Time 72840, Note Name: G4
Note OFF: Time 72840, Note Name: E4
Note ON: Time 72960, Note Name: F4, Velocity: 59
Note ON: Time 72960, Note Name: G#4, Velocity: 70
Note OFF: Time 73200, Note Name: G#4
Note OFF: Time 73200, Note Name: F4
Note ON: Time 73440, Note Name: A#1, Velocity: 63
Note ON: Time 73440, Note Name: A#2, Velocity: 74
Note OFF: Time 73680, Note Name: A#2
Note OFF: Time 73680, Note Name: A#1
Note ON: Time 74400, Note Name: B1, Velocity: 30
Note ON: Time 74400, Note Name: B2, Velocity: 36
Note OFF: Time 74520, Note Name: B2
Note OFF: Time 74520, Note Name: B1
Note ON: Time 74880, Note Name: C2, Velocity: 32
Note ON: Time 74880, Note Name: C3, Velocity: 38
Note OFF: Time 75000, Note Name: C3
Note OFF: Time 75000, Note Name: C2
Note ON: Time 75360, Note Name: A1, Velocity: 30
Note ON: Time 75360, Note Name: A2, Velocity: 36
Note OFF: Time 75480, Note Name: A2
Note OFF: Time 75480, Note Name: A1
Note ON: Time 75840, Note Name: A#1, Velocity: 32
Note ON: Time 75840, Note Name: A#2, Velocity: 38
Note OFF: Time 75960, Note Name: A#2
Note OFF: Time 75960, Note Name: A#1
Note ON: Time 76320, Note Name: A#1, Velocity: 27
Note ON: Time 76320, Note Name: A#2, Velocity: 33
Note OFF: Time 76440, Note Name: A#2
Note OFF: Time 76440, Note Name: A#1
Note ON: Time 76800, Note Name: D#2, Velocity: 32
Note ON: Time 76800, Note Name: D#3, Velocity: 38
Note OFF: Time 76920, Note Name: D#3
Note OFF: Time 76920, Note Name: D#2
Note ON: Time 77280, Note Name: E4, Velocity: 53
Note ON: Time 77280, Note Name: G4, Velocity: 63
Note OFF: Time 77400, Note Name: G4
Note OFF: Time 77400, Note Name: E4
Note ON: Time 77520, Note Name: E4, Velocity: 53
Note ON: Time 77520, Note Name: G4, Velocity: 63
Note OFF: Time 77640, Note Name: G4
Note OFF: Time 77640, Note Name: E4
Note ON: Time 77760, Note Name: F4, Velocity: 59
Note ON: Time 77760, Note Name: G#4, Velocity: 70
Note OFF: Time 78000, Note Name: G#4
Note OFF: Time 78000, Note Name: F4
Note ON: Time 78240, Note Name: E4, Velocity: 53
Note ON: Time 78240, Note Name: G4, Velocity: 63
Note OFF: Time 78360, Note Name: G4
Note OFF: Time 78360, Note Name: E4
Note ON: Time 78480, Note Name: E4, Velocity: 53
Note ON: Time 78480, Note Name: G4, Velocity: 63
Note OFF: Time 78600, Note Name: G4
Note OFF: Time 78600, Note Name: E4
Note ON: Time 78720, Note Name: F4, Velocity: 59
Note ON: Time 78720, Note Name: G#4, Velocity: 70
Note OFF: Time 78960, Note Name: G#4
Note OFF: Time 78960, Note Name: F4
Note ON: Time 79200, Note Name: A#1, Velocity: 63
Note ON: Time 79200, Note Name: A#2, Velocity: 74
Note OFF: Time 79440, Note Name: A#2
Note OFF: Time 79440, Note Name: A#1
Note ON: Time 80160, Note Name: B1, Velocity: 55
Note ON: Time 80160, Note Name: D#2, Velocity: 55
Note ON: Time 80160, Note Name: F#2, Velocity: 55
Note ON: Time 80160, Note Name: B2, Velocity: 65
Note OFF: Time 81120, Note Name: B2
Note OFF: Time 81120, Note Name: B1
Note OFF: Time 81120, Note Name: D#2
Note OFF: Time 81120, Note Name: F#2
Note ON: Time 81120, Note Name: A1, Velocity: 30
Note ON: Time 81120, Note Name: A2, Velocity: 36
Note OFF: Time 81240, Note Name: A2
Note OFF: Time 81240, Note Name: A1
Note ON: Time 81600, Note Name: A#1, Velocity: 32
Note ON: Time 81600, Note Name: A#2, Velocity: 38
Note OFF: Time 81720, Note Name: A#2
Note OFF: Time 81720, Note Name: A#1
Note ON: Time 82080, Note Name: A#1, Velocity: 27
Note ON: Time 82080, Note Name: A#2, Velocity: 33
Note OFF: Time 82200, Note Name: A#2
Note OFF: Time 82200, Note Name: A#1
Note ON: Time 82560, Note Name: D#2, Velocity: 32
Note OFF: Time 82800, Note Name: D#2
Note ON: Time 82800, Note Name: D#3, Velocity: 27
Note OFF: Time 83040, Note Name: D#3
Note ON: Time 83520, Note Name: D#2, Velocity: 32
Note OFF: Time 83760, Note Name: D#2
Note ON: Time 83760, Note Name: D#3, Velocity: 28
Note OFF: Time 84000, Note Name: D#3
Note ON: Time 84480, Note Name: D#2, Velocity: 32
Note OFF: Time 84720, Note Name: D#2
Note ON: Time 84720, Note Name: D#3, Velocity: 28
Note OFF: Time 84960, Note Name: D#3
Note ON: Time 85440, Note Name: D#2, Velocity: 32
Note OFF: Time 85680, Note Name: D#2
Note ON: Time 85680, Note Name: D#3, Velocity: 27
Note OFF: Time 85920, Note Name: D#3
Note ON: Time 86400, Note Name: D#2, Velocity: 32
Note OFF: Time 86880, Note Name: D#2
Note ON: Time 89040, Note Name: C3, Velocity: 36
Note OFF: Time 89280, Note Name: C3
Note ON: Time 89280, Note Name: B2, Velocity: 38
Note OFF: Time 89520, Note Name: B2
Note ON: Time 89520, Note Name: C3, Velocity: 35
Note OFF: Time 89760, Note Name: C3
Note ON: Time 89760, Note Name: F3, Velocity: 38
Note OFF: Time 89880, Note Name: F3
Note ON: Time 90000, Note Name: F3, Velocity: 34
Note OFF: Time 90120, Note Name: F3
Note ON: Time 90240, Note Name: D#3, Velocity: 38
Note OFF: Time 90720, Note Name: D#3
Note ON: Time 90960, Note Name: C3, Velocity: 36
Note OFF: Time 91200, Note Name: C3
Note ON: Time 91200, Note Name: B2, Velocity: 38
Note OFF: Time 91440, Note Name: B2
Note ON: Time 91440, Note Name: C3, Velocity: 35
Note OFF: Time 91680, Note Name: C3
Note ON: Time 91680, Note Name: G#3, Velocity: 38
Note OFF: Time 91800, Note Name: G#3
Note ON: Time 91920, Note Name: G#3, Velocity: 34
Note OFF: Time 92040, Note Name: G#3
Note ON: Time 92160, Note Name: G3, Velocity: 38
Note OFF: Time 92640, Note Name: G3
Note ON: Time 94080, Note Name: G#3, Velocity: 38
Note ON: Time 94080, Note Name: C4, Velocity: 38
Note ON: Time 94080, Note Name: F#4, Velocity: 38
Note OFF: Time 96000, Note Name: F#4
Note OFF: Time 96000, Note Name: C4
Note OFF: Time 96000, Note Name: G#3
Note ON: Time 96000, Note Name: G4, Velocity: 38
Note ON: Time 96000, Note Name: D4, Velocity: 32
Note ON: Time 96000, Note Name: G3, Velocity: 32
Note OFF: Time 96480, Note Name: G3
Note OFF: Time 96480, Note Name: D4
Note OFF: Time 96480, Note Name: G4
Note ON: Time 96720, Note Name: G2, Velocity: 36
Note OFF: Time 96960, Note Name: G2
Note ON: Time 96960, Note Name: F#2, Velocity: 38
Note OFF: Time 97200, Note Name: F#2
Note ON: Time 97200, Note Name: G2, Velocity: 35
Note OFF: Time 97440, Note Name: G2
Note ON: Time 97440, Note Name: C3, Velocity: 38
Note OFF: Time 97560, Note Name: C3
Note ON: Time 97680, Note Name: C3, Velocity: 34
Note OFF: Time 97800, Note Name: C3
Note ON: Time 97920, Note Name: B2, Velocity: 38
Note OFF: Time 98400, Note Name: B2
Note ON: Time 98640, Note Name: G2, Velocity: 36
Note OFF: Time 98880, Note Name: G2
Note ON: Time 98880, Note Name: F#2, Velocity: 38
Note OFF: Time 99120, Note Name: F#2
Note ON: Time 99120, Note Name: G2, Velocity: 35
Note OFF: Time 99360, Note Name: G2
Note ON: Time 99360, Note Name: D#3, Velocity: 38
Note OFF: Time 99480, Note Name: D#3
Note ON: Time 99600, Note Name: D#3, Velocity: 34
Note OFF: Time 99720, Note Name: D#3
Note ON: Time 99840, Note Name: D3, Velocity: 38
Note OFF: Time 100320, Note Name: D3
Note ON: Time 100560, Note Name: G2, Velocity: 37
Note OFF: Time 100680, Note Name: G2
Note ON: Time 100800, Note Name: B2, Velocity: 43
Note OFF: Time 100920, Note Name: B2
Note ON: Time 101040, Note Name: D3, Velocity: 37
Note OFF: Time 101160, Note Name: D3
Note ON: Time 101280, Note Name: F3, Velocity: 37
Note OFF: Time 101400, Note Name: F3
Note ON: Time 101520, Note Name: G#3, Velocity: 37
Note OFF: Time 101640, Note Name: G#3
Note ON: Time 101760, Note Name: B3, Velocity: 46
Note OFF: Time 101880, Note Name: B3
Note ON: Time 102000, Note Name: D4, Velocity: 45
Note OFF: Time 102120, Note Name: D4
Note ON: Time 102240, Note Name: F4, Velocity: 47
Note OFF: Time 102360, Note Name: F4
Note ON: Time 102480, Note Name: G#4, Velocity: 50
Note OFF: Time 102600, Note Name: G#4
Note ON: Time 102720, Note Name: G4, Velocity: 53
Note OFF: Time 102840, Note Name: G4
Note ON: Time 102960, Note Name: F4, Velocity: 50
Note OFF: Time 103080, Note Name: F4
Note ON: Time 103200, Note Name: D#4, Velocity: 46
Note OFF: Time 103320, Note Name: D#4
Note ON: Time 103440, Note Name: D4, Velocity: 45
Note OFF: Time 103560, Note Name: D4
Note ON: Time 103680, Note Name: C4, Velocity: 42
Note OFF: Time 103800, Note Name: C4
Note ON: Time 103920, Note Name: D#4, Velocity: 32
Note ON: Time 103920, Note Name: G4, Velocity: 38
Note OFF: Time 104040, Note Name: G4
Note OFF: Time 104040, Note Name: D#4
Note ON: Time 104160, Note Name: D#4, Velocity: 32
Note ON: Time 104160, Note Name: G4, Velocity: 38
Note OFF: Time 104280, Note Name: G4
Note OFF: Time 104280, Note Name: D#4
Note ON: Time 104400, Note Name: D#4, Velocity: 32
Note ON: Time 104400, Note Name: G4, Velocity: 38
Note OFF: Time 104520, Note Name: G4
Note OFF: Time 104520, Note Name: D#4
Note ON: Time 104640, Note Name: C4, Velocity: 42
Note OFF: Time 104760, Note Name: C4
Note ON: Time 104880, Note Name: E4, Velocity: 31
Note ON: Time 104880, Note Name: G4, Velocity: 31
Note ON: Time 104880, Note Name: A#4, Velocity: 37
Note OFF: Time 105000, Note Name: A#4
Note OFF: Time 105000, Note Name: G4
Note OFF: Time 105000, Note Name: E4
Note ON: Time 105120, Note Name: E4, Velocity: 31
Note ON: Time 105120, Note Name: G4, Velocity: 31
Note ON: Time 105120, Note Name: A#4, Velocity: 37
Note OFF: Time 105240, Note Name: A#4
Note OFF: Time 105240, Note Name: G4
Note OFF: Time 105240, Note Name: E4
Note ON: Time 105360, Note Name: E4, Velocity: 31
Note ON: Time 105360, Note Name: G4, Velocity: 31
Note ON: Time 105360, Note Name: A#4, Velocity: 37
Note OFF: Time 105480, Note Name: A#4
Note OFF: Time 105480, Note Name: G4
Note OFF: Time 105480, Note Name: E4
Note ON: Time 105600, Note Name: C4, Velocity: 42
Note OFF: Time 105720, Note Name: C4
Note ON: Time 105840, Note Name: F4, Velocity: 32
Note ON: Time 105840, Note Name: G#4, Velocity: 38
Note OFF: Time 105960, Note Name: G#4
Note OFF: Time 105960, Note Name: F4
Note ON: Time 106080, Note Name: F4, Velocity: 32
Note ON: Time 106080, Note Name: G#4, Velocity: 38
Note OFF: Time 106200, Note Name: G#4
Note OFF: Time 106200, Note Name: F4
Note ON: Time 106320, Note Name: F4, Velocity: 32
Note ON: Time 106320, Note Name: G#4, Velocity: 38
Note OFF: Time 106440, Note Name: G#4
Note OFF: Time 106440, Note Name: F4
Note ON: Time 106560, Note Name: C4, Velocity: 42
Note OFF: Time 106680, Note Name: C4
Note ON: Time 106800, Note Name: F4, Velocity: 31
Note ON: Time 106800, Note Name: G#4, Velocity: 31
Note ON: Time 106800, Note Name: B4, Velocity: 37
Note OFF: Time 106920, Note Name: B4
Note OFF: Time 106920, Note Name: G#4
Note OFF: Time 106920, Note Name: F4
Note ON: Time 107040, Note Name: F4, Velocity: 31
Note ON: Time 107040, Note Name: G#4, Velocity: 31
Note ON: Time 107040, Note Name: B4, Velocity: 37
Note OFF: Time 107160, Note Name: B4
Note OFF: Time 107160, Note Name: G#4
Note OFF: Time 107160, Note Name: F4
Note ON: Time 107280, Note Name: F4, Velocity: 31
Note ON: Time 107280, Note Name: G#4, Velocity: 31
Note ON: Time 107280, Note Name: B4, Velocity: 37
Note OFF: Time 107400, Note Name: B4
Note OFF: Time 107400, Note Name: G#4
Note OFF: Time 107400, Note Name: F4
Note ON: Time 107520, Note Name: C4, Velocity: 42
Note OFF: Time 107640, Note Name: C4
Note ON: Time 107760, Note Name: D#4, Velocity: 32
Note ON: Time 107760, Note Name: G4, Velocity: 38
Note OFF: Time 107880, Note Name: G4
Note OFF: Time 107880, Note Name: D#4
Note ON: Time 108000, Note Name: D#4, Velocity: 32
Note ON: Time 108000, Note Name: G4, Velocity: 38
Note OFF: Time 108120, Note Name: G4
Note OFF: Time 108120, Note Name: D#4
Note ON: Time 108240, Note Name: D#4, Velocity: 32
Note ON: Time 108240, Note Name: G4, Velocity: 38
Note OFF: Time 108360, Note Name: G4
Note OFF: Time 108360, Note Name: D#4
Note ON: Time 108480, Note Name: C4, Velocity: 42
Note OFF: Time 108600, Note Name: C4
Note ON: Time 108720, Note Name: E4, Velocity: 31
Note ON: Time 108720, Note Name: G4, Velocity: 31
Note ON: Time 108720, Note Name: A#4, Velocity: 37
Note OFF: Time 108840, Note Name: A#4
Note OFF: Time 108840, Note Name: G4
Note OFF: Time 108840, Note Name: E4
Note ON: Time 108960, Note Name: E4, Velocity: 31
Note ON: Time 108960, Note Name: G4, Velocity: 31
Note ON: Time 108960, Note Name: A#4, Velocity: 37
Note OFF: Time 109080, Note Name: A#4
Note OFF: Time 109080, Note Name: G4
Note OFF: Time 109080, Note Name: E4
Note ON: Time 109200, Note Name: E4, Velocity: 31
Note ON: Time 109200, Note Name: G4, Velocity: 31
Note ON: Time 109200, Note Name: A#4, Velocity: 37
Note OFF: Time 109320, Note Name: A#4
Note OFF: Time 109320, Note Name: G4
Note OFF: Time 109320, Note Name: E4
Note ON: Time 109440, Note Name: C4, Velocity: 42
Note OFF: Time 109560, Note Name: C4
Note ON: Time 109680, Note Name: F4, Velocity: 32
Note ON: Time 109680, Note Name: G#4, Velocity: 38
Note OFF: Time 109800, Note Name: G#4
Note OFF: Time 109800, Note Name: F4
Note ON: Time 109920, Note Name: F4, Velocity: 32
Note ON: Time 109920, Note Name: G#4, Velocity: 38
Note OFF: Time 110040, Note Name: G#4
Note OFF: Time 110040, Note Name: F4
Note ON: Time 110160, Note Name: F4, Velocity: 32
Note ON: Time 110160, Note Name: G#4, Velocity: 38
Note OFF: Time 110280, Note Name: G#4
Note OFF: Time 110280, Note Name: F4
Note ON: Time 110400, Note Name: C4, Velocity: 42
Note OFF: Time 110520, Note Name: C4
Note ON: Time 110640, Note Name: F4, Velocity: 31
Note ON: Time 110640, Note Name: G#4, Velocity: 31
Note ON: Time 110640, Note Name: B4, Velocity: 37
Note OFF: Time 110760, Note Name: B4
Note OFF: Time 110760, Note Name: G#4
Note OFF: Time 110760, Note Name: F4
Note ON: Time 110880, Note Name: F4, Velocity: 31
Note ON: Time 110880, Note Name: G#4, Velocity: 31
Note ON: Time 110880, Note Name: B4, Velocity: 37
Note OFF: Time 111000, Note Name: B4
Note OFF: Time 111000, Note Name: G#4
Note OFF: Time 111000, Note Name: F4
Note ON: Time 111120, Note Name: F4, Velocity: 31
Note ON: Time 111120, Note Name: G#4, Velocity: 31
Note ON: Time 111120, Note Name: B4, Velocity: 37
Note OFF: Time 111240, Note Name: B4
Note OFF: Time 111240, Note Name: G#4
Note OFF: Time 111240, Note Name: F4
Note ON: Time 111360, Note Name: C4, Velocity: 36
Note ON: Time 111360, Note Name: D#4, Velocity: 36
Note ON: Time 111360, Note Name: G4, Velocity: 36
Note ON: Time 111367, Note Name: C5, Velocity: 44
Note OFF: Time 111840, Note Name: G4
Note OFF: Time 111840, Note Name: C4
Note OFF: Time 111840, Note Name: D#4
Note OFF: Time 111847, Note Name: C5
Note ON: Time 112080, Note Name: F#4, Velocity: 42
Note OFF: Time 112320, Note Name: F#4
Note ON: Time 112320, Note Name: G4, Velocity: 52
Note OFF: Time 112800, Note Name: G4
Note ON: Time 113040, Note Name: B3, Velocity: 48
Note OFF: Time 113280, Note Name: B3
Note ON: Time 113280, Note Name: C4, Velocity: 57
Note OFF: Time 113760, Note Name: C4
Note ON: Time 114000, Note Name: F#3, Velocity: 54
Note OFF: Time 114240, Note Name: F#3
Note ON: Time 114240, Note Name: G3, Velocity: 63
Note OFF: Time 114720, Note Name: G3
Note ON: Time 114960, Note Name: B2, Velocity: 57
Note OFF: Time 115200, Note Name: B2
Note ON: Time 115200, Note Name: C3, Velocity: 66
Note OFF: Time 115680, Note Name: C3
Note ON: Time 115920, Note Name: F#2, Velocity: 58
Note OFF: Time 116160, Note Name: F#2
Note ON: Time 116160, Note Name: G2, Velocity: 67
Note OFF: Time 116640, Note Name: G2
Note ON: Time 116640, Note Name: C2, Velocity: 82
Note ON: Time 116640, Note Name: C3, Velocity: 96
Note OFF: Time 116880, Note Name: C3
Note OFF: Time 116880, Note Name: C2
Note ON: Time 117120, Note Name: G1, Velocity: 55
Note ON: Time 117120, Note Name: G2, Velocity: 66
Note OFF: Time 117360, Note Name: G2
Note OFF: Time 117360, Note Name: G1
Note ON: Time 117600, Note Name: C2, Velocity: 82
Note ON: Time 117600, Note Name: C3, Velocity: 97
Note OFF: Time 117840, Note Name: C3
Note OFF: Time 117840, Note Name: C2
Note ON: Time 118080, Note Name: G1, Velocity: 57
Note ON: Time 118080, Note Name: G2, Velocity: 68
Note OFF: Time 118320, Note Name: G2
Note OFF: Time 118320, Note Name: G1
Note ON: Time 118560, Note Name: C2, Velocity: 82
Note ON: Time 118560, Note Name: C3, Velocity: 97
Note OFF: Time 118800, Note Name: C3
Note OFF: Time 118800, Note Name: C2
Note ON: Time 119040, Note Name: G1, Velocity: 66
Note ON: Time 119040, Note Name: B1, Velocity: 66
Note ON: Time 119040, Note Name: D2, Velocity: 66
Note ON: Time 119040, Note Name: G2, Velocity: 78
Note OFF: Time 120000, Note Name: G2
Note OFF: Time 120000, Note Name: G1
Note OFF: Time 120000, Note Name: B1
Note OFF: Time 120000, Note Name: D2
Note ON: Time 120960, Note Name: D#2, Velocity: 26
Note ON: Time 120960, Note Name: D#3, Velocity: 31
Note OFF: Time 121920, Note Name: D#3
Note OFF: Time 121920, Note Name: D#2
Note ON: Time 121920, Note Name: G#2, Velocity: 25
Note ON: Time 121920, Note Name: G#3, Velocity: 30
Note OFF: Time 122040, Note Name: G#3
Note OFF: Time 122040, Note Name: G#2
Note ON: Time 122400, Note Name: G2, Velocity: 23
Note ON: Time 122400, Note Name: G3, Velocity: 27
Note OFF: Time 122520, Note Name: G3
Note OFF: Time 122520, Note Name: G2
Note ON: Time 122880, Note Name: A#2, Velocity: 27
Note ON: Time 122880, Note Name: F2, Velocity: 27
Note ON: Time 122880, Note Name: F3, Velocity: 32
Note OFF: Time 123840, Note Name: F3
Note OFF: Time 123840, Note Name: F2
Note OFF: Time 123840, Note Name: A#2
Note ON: Time 124800, Note Name: D#2, Velocity: 26
Note ON: Time 124800, Note Name: D#3, Velocity: 31
Note OFF: Time 125760, Note Name: D#3
Note OFF: Time 125760, Note Name: D#2
Note ON: Time 125760, Note Name: G#1, Velocity: 25
Note ON: Time 125760, Note Name: G#2, Velocity: 30
Note OFF: Time 125880, Note Name: G#2
Note OFF: Time 125880, Note Name: G#1
Note ON: Time 126240, Note Name: A1, Velocity: 23
Note ON: Time 126240, Note Name: A2, Velocity: 27
Note OFF: Time 126360, Note Name: A2
Note OFF: Time 126360, Note Name: A1
Note ON: Time 126720, Note Name: A#1, Velocity: 22
Note ON: Time 126720, Note Name: A#2, Velocity: 27
Note OFF: Time 127680, Note Name: A#2
Note OFF: Time 127680, Note Name: A#1
Note ON: Time 128640, Note Name: D#2, Velocity: 26
Note ON: Time 128640, Note Name: D#3, Velocity: 31
Note OFF: Time 129600, Note Name: D#3
Note OFF: Time 129600, Note Name: D#2
Note ON: Time 129600, Note Name: G#2, Velocity: 25
Note ON: Time 129600, Note Name: G#3, Velocity: 30
Note OFF: Time 129720, Note Name: G#3
Note OFF: Time 129720, Note Name: G#2
Note ON: Time 130080, Note Name: G2, Velocity: 23
Note ON: Time 130080, Note Name: G3, Velocity: 27
Note OFF: Time 130200, Note Name: G3
Note OFF: Time 130200, Note Name: G2
Note ON: Time 130455, Note Name: G#2, Velocity: 28
Note ON: Time 130470, Note Name: C3, Velocity: 32
Note ON: Time 130485, Note Name: D#3, Velocity: 36
Note ON: Time 130500, Note Name: G#3, Velocity: 40
Note OFF: Time 131040, Note Name: G#3
Note OFF: Time 131040, Note Name: G#2
Note OFF: Time 131040, Note Name: C3
Note OFF: Time 131040, Note Name: D#3
Note ON: Time 132480, Note Name: A#2, Velocity: 80
Note ON: Time 133680, Note Name: A#1, Velocity: 49
Note OFF: Time 133800, Note Name: A#1
Note ON: Time 133920, Note Name: C2, Velocity: 53
Note OFF: Time 134040, Note Name: C2
Note ON: Time 134160, Note Name: D2, Velocity: 45
Note OFF: Time 134280, Note Name: D2
Note ON: Time 134400, Note Name: D#2, Velocity: 53
Note OFF: Time 134520, Note Name: D#2
Note ON: Time 134640, Note Name: F2, Velocity: 49
Note OFF: Time 134760, Note Name: F2
Note ON: Time 134880, Note Name: G2, Velocity: 51
Note OFF: Time 135000, Note Name: G2
Note ON: Time 135360, Note Name: F2, Velocity: 53
Note OFF: Time 135840, Note Name: F2
Note ON: Time 135840, Note Name: D#2, Velocity: 50
Note OFF: Time 136320, Note Name: D#2
Note OFF: Time 136320, Note Name: A#2
Note ON: Time 136320, Note Name: A#2, Velocity: 80
Note ON: Time 137520, Note Name: A#1, Velocity: 49
Note OFF: Time 137640, Note Name: A#1
Note ON: Time 137760, Note Name: C2, Velocity: 53
Note OFF: Time 137880, Note Name: C2
Note ON: Time 138000, Note Name: D2, Velocity: 45
Note OFF: Time 138120, Note Name: D2
Note ON: Time 138240, Note Name: D#2, Velocity: 53
Note OFF: Time 138360, Note Name: D#2
Note ON: Time 138480, Note Name: F2, Velocity: 49
Note OFF: Time 138600, Note Name: F2
Note ON: Time 138720, Note Name: G2, Velocity: 51
Note OFF: Time 138840, Note Name: G2
Note ON: Time 139200, Note Name: F2, Velocity: 53
Note OFF: Time 139680, Note Name: F2
Note ON: Time 139680, Note Name: D#2, Velocity: 50
Note OFF: Time 140160, Note Name: D#2
Note OFF: Time 140160, Note Name: A#2
Note ON: Time 140160, Note Name: G#2, Velocity: 45
Note ON: Time 140160, Note Name: C3, Velocity: 45
Note ON: Time 140160, Note Name: F3, Velocity: 53
Note OFF: Time 140640, Note Name: F3
Note OFF: Time 140640, Note Name: C3
Note OFF: Time 140640, Note Name: G#2
Note ON: Time 141120, Note Name: F3, Velocity: 42
Note ON: Time 141120, Note Name: A#2, Velocity: 42
Note ON: Time 141120, Note Name: G#3, Velocity: 50
Note OFF: Time 141600, Note Name: G#3
Note OFF: Time 141600, Note Name: A#2
Note OFF: Time 141600, Note Name: F3
Note ON: Time 142080, Note Name: D#3, Velocity: 49
Note ON: Time 142080, Note Name: G3, Velocity: 58
Note OFF: Time 142560, Note Name: G3
Note OFF: Time 142560, Note Name: D#3
Note ON: Time 142800, Note Name: D#3, Velocity: 54
Note OFF: Time 143040, Note Name: D#3
Note ON: Time 143040, Note Name: D3, Velocity: 60
Note OFF: Time 143280, Note Name: D3
Note ON: Time 143280, Note Name: D#3, Velocity: 55
Note OFF: Time 143520, Note Name: D#3
Note ON: Time 143520, Note Name: C3, Velocity: 52
Note ON: Time 143520, Note Name: G#3, Velocity: 62
Note OFF: Time 143640, Note Name: G#3
Note OFF: Time 143640, Note Name: C3
Note ON: Time 143760, Note Name: G#3, Velocity: 57
Note ON: Time 143760, Note Name: C3, Velocity: 48
Note OFF: Time 143880, Note Name: C3
Note OFF: Time 143880, Note Name: G#3
Note ON: Time 144000, Note Name: G3, Velocity: 65
Note ON: Time 144000, Note Name: A#2, Velocity: 55
Note OFF: Time 144480, Note Name: A#2
Note OFF: Time 144480, Note Name: G3
Note ON: Time 144720, Note Name: D#3, Velocity: 61
Note OFF: Time 144960, Note Name: D#3
Note ON: Time 144960, Note Name: D3, Velocity: 68
Note OFF: Time 145200, Note Name: D3
Note ON: Time 145200, Note Name: D#3, Velocity: 63
Note OFF: Time 145440, Note Name: D#3
Note ON: Time 145440, Note Name: G#3, Velocity: 58
Note ON: Time 145440, Note Name: C4, Velocity: 69
Note OFF: Time 145560, Note Name: C4
Note OFF: Time 145560, Note Name: G#3
Note ON: Time 145680, Note Name: G#3, Velocity: 54
Note ON: Time 145680, Note Name: C4, Velocity: 64
Note OFF: Time 145800, Note Name: C4
Note OFF: Time 145800, Note Name: G#3
Note ON: Time 145920, Note Name: G3, Velocity: 71
Note ON: Time 145920, Note Name: A#3, Velocity: 71
Note OFF: Time 146160, Note Name: A#3
Note OFF: Time 146160, Note Name: G3
Note ON: Time 146160, Note Name: D#3, Velocity: 62
Note OFF: Time 146280, Note Name: D#3
Note ON: Time 146280, Note Name: D#4, Velocity: 54
Note OFF: Time 146400, Note Name: D#4
Note ON: Time 146400, Note Name: D#3, Velocity: 63
Note OFF: Time 146520, Note Name: D#3
Note ON: Time 146520, Note Name: D#4, Velocity: 56
Note OFF: Time 146640, Note Name: D#4
Note ON: Time 146640, Note Name: D#3, Velocity: 63
Note OFF: Time 146760, Note Name: D#3
Note ON: Time 146760, Note Name: D#4, Velocity: 57
Note OFF: Time 146880, Note Name: D#4
Note ON: Time 146880, Note Name: D#3, Velocity: 63
Note OFF: Time 147000, Note Name: D#3
Note ON: Time 147000, Note Name: D#4, Velocity: 55
Note OFF: Time 147120, Note Name: D#4
Note ON: Time 147120, Note Name: D#3, Velocity: 64
Note OFF: Time 147240, Note Name: D#3
Note ON: Time 147240, Note Name: D#4, Velocity: 59
Note OFF: Time 147360, Note Name: D#4
Note ON: Time 147360, Note Name: D#3, Velocity: 65
Note OFF: Time 147480, Note Name: D#3
Note ON: Time 147480, Note Name: D#4, Velocity: 58
Note OFF: Time 147600, Note Name: D#4
Note ON: Time 147600, Note Name: D#3, Velocity: 66
Note OFF: Time 147720, Note Name: D#3
Note ON: Time 147720, Note Name: D#4, Velocity: 61
Note OFF: Time 147840, Note Name: D#4
Note ON: Time 147840, Note Name: F3, Velocity: 49
Note ON: Time 147840, Note Name: D3, Velocity: 49
Note ON: Time 147840, Note Name: G#3, Velocity: 49
Note ON: Time 147840, Note Name: A#3, Velocity: 49
Note ON: Time 147867, Note Name: D4, Velocity: 66
Note OFF: Time 149760, Note Name: A#3
Note OFF: Time 149760, Note Name: G#3
Note OFF: Time 149760, Note Name: F3
Note OFF: Time 149760, Note Name: D3
Note ON: Time 149760, Note Name: G3, Velocity: 49
Note ON: Time 149760, Note Name: D#3, Velocity: 49
Note ON: Time 149760, Note Name: D#4, Velocity: 66
Note ON: Time 149760, Note Name: A#3, Velocity: 49
Note OFF: Time 149787, Note Name: D4
Note OFF: Time 150240, Note Name: D#4
Note OFF: Time 150240, Note Name: G3
Note OFF: Time 150240, Note Name: D#3
Note OFF: Time 150240, Note Name: A#3
Note ON: Time 151680, Note Name: G#2, Velocity: 73
Note ON: Time 151680, Note Name: G#1, Velocity: 73
Note OFF: Time 151920, Note Name: G#1
Note OFF: Time 151920, Note Name: G#2
Note ON: Time 152400, Note Name: G#2, Velocity: 63
Note ON: Time 152400, Note Name: G#1, Velocity: 63
Note OFF: Time 152520, Note Name: G#1
Note OFF: Time 152520, Note Name: G#2
Note ON: Time 152640, Note Name: A#1, Velocity: 70
Note ON: Time 152640, Note Name: A#2, Velocity: 70
Note OFF: Time 152880, Note Name: A#2
Note OFF: Time 152880, Note Name: A#1
Note ON: Time 153360, Note Name: A#2, Velocity: 63
Note ON: Time 153360, Note Name: A#1, Velocity: 63
Note OFF: Time 153480, Note Name: A#1
Note OFF: Time 153480, Note Name: A#2
Note ON: Time 153840, Note Name: G#4, Velocity: 63
Note OFF: Time 153960, Note Name: G#4
Note ON: Time 153960, Note Name: A#4, Velocity: 65
Note OFF: Time 154080, Note Name: A#4
Note ON: Time 154080, Note Name: C5, Velocity: 69
Note OFF: Time 154200, Note Name: C5
Note ON: Time 154200, Note Name: A#4, Velocity: 67
Note OFF: Time 154320, Note Name: A#4
Note ON: Time 154320, Note Name: G#4, Velocity: 65
Note OFF: Time 154440, Note Name: G#4
Note ON: Time 154440, Note Name: G4, Velocity: 64
Note OFF: Time 154560, Note Name: G4
Note ON: Time 154560, Note Name: F4, Velocity: 67
Note OFF: Time 154720, Note Name: F4
Note ON: Time 154720, Note Name: D#4, Velocity: 61
Note OFF: Time 154880, Note Name: D#4
Note ON: Time 154880, Note Name: D4, Velocity: 61
Note OFF: Time 155040, Note Name: D4
Note ON: Time 155040, Note Name: C4, Velocity: 67
Note OFF: Time 155200, Note Name: C4
Note ON: Time 155200, Note Name: A#3, Velocity: 62
Note OFF: Time 155360, Note Name: A#3
Note ON: Time 155360, Note Name: G#3, Velocity: 62
Note OFF: Time 155520, Note Name: G#3
Note ON: Time 155520, Note Name: G3, Velocity: 67
Note OFF: Time 155680, Note Name: G3
Note ON: Time 155680, Note Name: G#3, Velocity: 63
Note OFF: Time 155840, Note Name: G#3
Note ON: Time 155840, Note Name: A#3, Velocity: 63
Note OFF: Time 156000, Note Name: A#3
Note ON: Time 156000, Note Name: G#3, Velocity: 67
Note OFF: Time 156160, Note Name: G#3
Note ON: Time 156160, Note Name: G3, Velocity: 60
Note OFF: Time 156320, Note Name: G3
Note ON: Time 156320, Note Name: F3, Velocity: 60
Note OFF: Time 156480, Note Name: F3
Note ON: Time 156480, Note Name: D#3, Velocity: 70
Note OFF: Time 156640, Note Name: D#3
Note ON: Time 156640, Note Name: D3, Velocity: 63
Note OFF: Time 156800, Note Name: D3
Note ON: Time 156800, Note Name: C3, Velocity: 66
Note OFF: Time 156960, Note Name: C3
Note ON: Time 156960, Note Name: A#2, Velocity: 74
Note OFF: Time 157120, Note Name: A#2
Note ON: Time 157120, Note Name: G#2, Velocity: 67
Note OFF: Time 157280, Note Name: G#2
Note ON: Time 157280, Note Name: G2, Velocity: 67
Note OFF: Time 157440, Note Name: G2
Note ON: Time 157440, Note Name: G#2, Velocity: 73
Note ON: Time 157440, Note Name: G#1, Velocity: 73
Note OFF: Time 157680, Note Name: G#1
Note OFF: Time 157680, Note Name: G#2
Note ON: Time 158160, Note Name: G#1, Velocity: 63
Note ON: Time 158160, Note Name: G#2, Velocity: 63
Note OFF: Time 158280, Note Name: G#2
Note OFF: Time 158280, Note Name: G#1
Note ON: Time 158400, Note Name: A#1, Velocity: 70
Note ON: Time 158400, Note Name: A#2, Velocity: 70
Note OFF: Time 158640, Note Name: A#2
Note OFF: Time 158640, Note Name: A#1
Note ON: Time 159120, Note Name: A#2, Velocity: 63
Note ON: Time 159120, Note Name: A#1, Velocity: 63
Note OFF: Time 159240, Note Name: A#1
Note OFF: Time 159240, Note Name: A#2
Note ON: Time 159360, Note Name: D#3, Velocity: 70
Note ON: Time 159360, Note Name: D#2, Velocity: 59
Note ON: Time 159360, Note Name: G2, Velocity: 59
Note ON: Time 159360, Note Name: A#2, Velocity: 59
Note OFF: Time 159840, Note Name: A#2
Note OFF: Time 159840, Note Name: D#3
Note OFF: Time 159840, Note Name: D#2
Note OFF: Time 159840, Note Name: G2
Note ON: Time 159840, Note Name: G4, Velocity: 63
Note ON: Time 159840, Note Name: E4, Velocity: 53
Note OFF: Time 159960, Note Name: E4
Note OFF: Time 159960, Note Name: G4
Note ON: Time 160080, Note Name: E4, Velocity: 53
Note ON: Time 160080, Note Name: G4, Velocity: 63
Note OFF: Time 160200, Note Name: G4
Note OFF: Time 160200, Note Name: E4
Note ON: Time 160320, Note Name: G#4, Velocity: 70
Note ON: Time 160320, Note Name: F4, Velocity: 59
Note OFF: Time 160560, Note Name: F4
Note OFF: Time 160560, Note Name: G#4
Note ON: Time 160800, Note Name: E4, Velocity: 53
Note ON: Time 160800, Note Name: G4, Velocity: 63
Note OFF: Time 160920, Note Name: G4
Note OFF: Time 160920, Note Name: E4
Note ON: Time 161040, Note Name: E4, Velocity: 53
Note ON: Time 161040, Note Name: G4, Velocity: 63
Note OFF: Time 161160, Note Name: G4
Note OFF: Time 161160, Note Name: E4
Note ON: Time 161280, Note Name: G#4, Velocity: 70
Note ON: Time 161280, Note Name: F4, Velocity: 59
Note OFF: Time 161520, Note Name: F4
Note OFF: Time 161520, Note Name: G#4
Note ON: Time 161760, Note Name: A#1, Velocity: 63
Note ON: Time 161760, Note Name: A#2, Velocity: 74
Note OFF: Time 162000, Note Name: A#2
Note OFF: Time 162000, Note Name: A#1
Note ON: Time 162720, Note Name: B2, Velocity: 36
Note ON: Time 162720, Note Name: B1, Velocity: 30
Note OFF: Time 162840, Note Name: B1
Note OFF: Time 162840, Note Name: B2
Note ON: Time 163200, Note Name: C2, Velocity: 32
Note ON: Time 163200, Note Name: C3, Velocity: 38
Note OFF: Time 163320, Note Name: C3
Note OFF: Time 163320, Note Name: C2
Note ON: Time 163680, Note Name: A2, Velocity: 36
Note ON: Time 163680, Note Name: A1, Velocity: 30
Note OFF: Time 163800, Note Name: A1
Note OFF: Time 163800, Note Name: A2
Note ON: Time 164160, Note Name: A#2, Velocity: 38
Note ON: Time 164160, Note Name: A#1, Velocity: 32
Note OFF: Time 164280, Note Name: A#1
Note OFF: Time 164280, Note Name: A#2
Note ON: Time 164640, Note Name: A#1, Velocity: 27
Note ON: Time 164640, Note Name: A#2, Velocity: 33
Note OFF: Time 164760, Note Name: A#2
Note OFF: Time 164760, Note Name: A#1
Note ON: Time 165120, Note Name: D#2, Velocity: 32
Note ON: Time 165120, Note Name: D#3, Velocity: 38
Note OFF: Time 165240, Note Name: D#3
Note OFF: Time 165240, Note Name: D#2
Note ON: Time 165600, Note Name: G4, Velocity: 63
Note ON: Time 165600, Note Name: E4, Velocity: 53
Note OFF: Time 165720, Note Name: E4
Note OFF: Time 165720, Note Name: G4
Note ON: Time 165840, Note Name: E4, Velocity: 53
Note ON: Time 165840, Note Name: G4, Velocity: 63
Note OFF: Time 165960, Note Name: G4
Note OFF: Time 165960, Note Name: E4
Note ON: Time 166080, Note Name: G#4, Velocity: 70
Note ON: Time 166080, Note Name: F4, Velocity: 59
Note OFF: Time 166320, Note Name: F4
Note OFF: Time 166320, Note Name: G#4
Note ON: Time 166560, Note Name: E4, Velocity: 53
Note ON: Time 166560, Note Name: G4, Velocity: 63
Note OFF: Time 166680, Note Name: G4
Note OFF: Time 166680, Note Name: E4
Note ON: Time 166800, Note Name: E4, Velocity: 53
Note ON: Time 166800, Note Name: G4, Velocity: 63
Note OFF: Time 166920, Note Name: G4
Note OFF: Time 166920, Note Name: E4
Note ON: Time 167040, Note Name: G#4, Velocity: 70
Note ON: Time 167040, Note Name: F4, Velocity: 59
Note OFF: Time 167280, Note Name: F4
Note OFF: Time 167280, Note Name: G#4
Note ON: Time 167520, Note Name: A#2, Velocity: 74
Note ON: Time 167520, Note Name: A#1, Velocity: 63
Note OFF: Time 167760, Note Name: A#1
Note OFF: Time 167760, Note Name: A#2
Note ON: Time 168480, Note Name: D#2, Velocity: 55
Note ON: Time 168480, Note Name: F#2, Velocity: 55
Note ON: Time 168480, Note Name: B2, Velocity: 65
Note ON: Time 168480, Note Name: B1, Velocity: 55
Note OFF: Time 169440, Note Name: B1
Note OFF: Time 169440, Note Name: D#2
Note OFF: Time 169440, Note Name: F#2
Note OFF: Time 169440, Note Name: B2
Note ON: Time 169440, Note Name: A1, Velocity: 30
Note ON: Time 169440, Note Name: A2, Velocity: 36
Note OFF: Time 169560, Note Name: A2
Note OFF: Time 169560, Note Name: A1
Note ON: Time 169920, Note Name: A#2, Velocity: 38
Note ON: Time 169920, Note Name: A#1, Velocity: 32
Note OFF: Time 170040, Note Name: A#1
Note OFF: Time 170040, Note Name: A#2
Note ON: Time 170400, Note Name: A#1, Velocity: 27
Note ON: Time 170400, Note Name: A#2, Velocity: 33
Note OFF: Time 170520, Note Name: A#2
Note OFF: Time 170520, Note Name: A#1
Note ON: Time 170880, Note Name: D#2, Velocity: 32
Note OFF: Time 171120, Note Name: D#2
Note ON: Time 171120, Note Name: D#3, Velocity: 27
Note OFF: Time 171360, Note Name: D#3
Note ON: Time 171840, Note Name: D#2, Velocity: 32
Note OFF: Time 172080, Note Name: D#2
Note ON: Time 172080, Note Name: D#3, Velocity: 28
Note OFF: Time 172320, Note Name: D#3
Note ON: Time 172800, Note Name: D#2, Velocity: 32
Note OFF: Time 173040, Note Name: D#2
Note ON: Time 173040, Note Name: D#3, Velocity: 28
Note OFF: Time 173280, Note Name: D#3
Note ON: Time 173760, Note Name: D#2, Velocity: 32
Note OFF: Time 174000, Note Name: D#2
Note ON: Time 174000, Note Name: D#3, Velocity: 27
Note OFF: Time 174240, Note Name: D#3
Note ON: Time 174720, Note Name: D#2, Velocity: 32
Note OFF: Time 175200, Note Name: D#2
Note ON: Time 177360, Note Name: C3, Velocity: 36
Note OFF: Time 177600, Note Name: C3
Note ON: Time 177600, Note Name: B2, Velocity: 42
Note OFF: Time 177840, Note Name: B2
Note ON: Time 177840, Note Name: C3, Velocity: 35
Note OFF: Time 178080, Note Name: C3
Note ON: Time 178080, Note Name: A#3, Velocity: 45
Note ON: Time 178080, Note Name: G3, Velocity: 37
Note OFF: Time 178200, Note Name: G3
Note OFF: Time 178200, Note Name: A#3
Note ON: Time 178320, Note Name: A#3, Velocity: 42
Note ON: Time 178320, Note Name: G3, Velocity: 35
Note OFF: Time 178440, Note Name: G3
Note OFF: Time 178440, Note Name: A#3
Note ON: Time 178560, Note Name: A#3, Velocity: 77
Note ON: Time 178560, Note Name: G3, Velocity: 64
Note OFF: Time 180480, Note Name: G3
Note OFF: Time 180480, Note Name: A#3
Note ON: Time 180480, Note Name: A#3, Velocity: 38
Note ON: Time 180480, Note Name: G#3, Velocity: 32
Note OFF: Time 180960, Note Name: G#3
Note OFF: Time 180960, Note Name: A#3
Note ON: Time 181200, Note Name: A#2, Velocity: 36
Note OFF: Time 181440, Note Name: A#2
Note ON: Time 181440, Note Name: A2, Velocity: 42
Note OFF: Time 181680, Note Name: A2
Note ON: Time 181680, Note Name: A#2, Velocity: 35
Note OFF: Time 181920, Note Name: A#2
Note ON: Time 181920, Note Name: A#3, Velocity: 45
Note ON: Time 181920, Note Name: G#3, Velocity: 37
Note OFF: Time 182040, Note Name: G#3
Note OFF: Time 182040, Note Name: A#3
Note ON: Time 182160, Note Name: A#3, Velocity: 42
Note ON: Time 182160, Note Name: G#3, Velocity: 35
Note OFF: Time 182280, Note Name: G#3
Note OFF: Time 182280, Note Name: A#3
Note ON: Time 182400, Note Name: A#3, Velocity: 77
Note ON: Time 182400, Note Name: G#3, Velocity: 64
Note OFF: Time 184320, Note Name: G#3
Note OFF: Time 184320, Note Name: A#3
Note ON: Time 184320, Note Name: A#3, Velocity: 38
Note ON: Time 184320, Note Name: G3, Velocity: 32
Note OFF: Time 184800, Note Name: G3
Note OFF: Time 184800, Note Name: A#3
Note ON: Time 185280, Note Name: A#3, Velocity: 33
Note ON: Time 185280, Note Name: C#4, Velocity: 39
Note ON: Time 185280, Note Name: F3, Velocity: 33
Note OFF: Time 185760, Note Name: F3
Note OFF: Time 185760, Note Name: C#4
Note OFF: Time 185760, Note Name: A#3
Note ON: Time 186240, Note Name: G3, Velocity: 34
Note ON: Time 186240, Note Name: A#3, Velocity: 34
Note ON: Time 186240, Note Name: C4, Velocity: 40
Note ON: Time 186240, Note Name: E3, Velocity: 34
Note OFF: Time 186720, Note Name: E3
Note OFF: Time 186720, Note Name: G3
Note OFF: Time 186720, Note Name: A#3
Note OFF: Time 186720, Note Name: C4
Note ON: Time 188160, Note Name: F3, Velocity: 43
Note ON: Time 188160, Note Name: G#3, Velocity: 43
Note ON: Time 188160, Note Name: C4, Velocity: 53
Note OFF: Time 188640, Note Name: C4
Note OFF: Time 188640, Note Name: G#3
Note OFF: Time 188640, Note Name: F3
Note ON: Time 189120, Note Name: D#3, Velocity: 45
Note ON: Time 189120, Note Name: F3, Velocity: 45
Note ON: Time 189120, Note Name: G#3, Velocity: 45
Note ON: Time 189120, Note Name: C4, Velocity: 55
Note OFF: Time 189600, Note Name: C4
Note OFF: Time 189600, Note Name: D#3
Note OFF: Time 189600, Note Name: F3
Note OFF: Time 189600, Note Name: G#3
Note ON: Time 190080, Note Name: D3, Velocity: 49
Note ON: Time 190080, Note Name: F3, Velocity: 49
Note ON: Time 190080, Note Name: G#3, Velocity: 49
Note ON: Time 190080, Note Name: B3, Velocity: 58
Note OFF: Time 190560, Note Name: B3
Note OFF: Time 190560, Note Name: D3
Note OFF: Time 190560, Note Name: F3
Note OFF: Time 190560, Note Name: G#3
Note ON: Time 191040, Note Name: C3, Velocity: 52
Note ON: Time 191040, Note Name: D3, Velocity: 52
Note ON: Time 191040, Note Name: F3, Velocity: 52
Note ON: Time 191040, Note Name: G#3, Velocity: 63
Note OFF: Time 191520, Note Name: G#3
Note OFF: Time 191520, Note Name: C3
Note OFF: Time 191520, Note Name: D3
Note OFF: Time 191520, Note Name: F3
Note ON: Time 192000, Note Name: B2, Velocity: 58
Note ON: Time 192000, Note Name: D3, Velocity: 58
Note ON: Time 192000, Note Name: F3, Velocity: 58
Note ON: Time 192000, Note Name: G#3, Velocity: 70
Note OFF: Time 192480, Note Name: G#3
Note OFF: Time 192480, Note Name: B2
Note OFF: Time 192480, Note Name: D3
Note OFF: Time 192480, Note Name: F3
Note ON: Time 193200, Note Name: G#5, Velocity: 65
Note OFF: Time 193416, Note Name: G#5
Note ON: Time 193440, Note Name: G#5, Velocity: 65
Note OFF: Time 193656, Note Name: G#5
Note ON: Time 193680, Note Name: G#5, Velocity: 65
Note OFF: Time 193896, Note Name: G#5
Note ON: Time 193920, Note Name: B4, Velocity: 69
Note OFF: Time 194880, Note Name: B4
Note ON: Time 195120, Note Name: G#3, Velocity: 65
Note OFF: Time 195336, Note Name: G#3
Note ON: Time 195360, Note Name: G#3, Velocity: 65
Note OFF: Time 195576, Note Name: G#3
Note ON: Time 195600, Note Name: G#3, Velocity: 65
Note OFF: Time 195816, Note Name: G#3
Note ON: Time 195840, Note Name: B2, Velocity: 69
Note OFF: Time 196080, Note Name: B2
Note ON: Time 196080, Note Name: G#3, Velocity: 64
Note OFF: Time 196296, Note Name: G#3
Note ON: Time 196320, Note Name: G#3, Velocity: 64
Note OFF: Time 196536, Note Name: G#3
Note ON: Time 196560, Note Name: G#3, Velocity: 64
Note OFF: Time 196800, Note Name: G#3
Note ON: Time 196800, Note Name: B2, Velocity: 75
Note OFF: Time 197040, Note Name: B2
Note ON: Time 197040, Note Name: G#3, Velocity: 69
Note OFF: Time 197256, Note Name: G#3
Note ON: Time 197280, Note Name: G#3, Velocity: 69
Note OFF: Time 197496, Note Name: G#3
Note ON: Time 197520, Note Name: G#3, Velocity: 69
Note OFF: Time 197736, Note Name: G#3
Note ON: Time 197760, Note Name: B2, Velocity: 88
Note OFF: Time 198460, Note Name: B2
Note ON: Time 198480, Note Name: C3, Velocity: 36
Note OFF: Time 198720, Note Name: C3
Note ON: Time 198720, Note Name: B2, Velocity: 38
Note OFF: Time 198960, Note Name: B2
Note ON: Time 198960, Note Name: C3, Velocity: 35
Note OFF: Time 199200, Note Name: C3
Note ON: Time 199200, Note Name: F3, Velocity: 38
Note OFF: Time 199320, Note Name: F3
Note ON: Time 199440, Note Name: F3, Velocity: 34
Note OFF: Time 199560, Note Name: F3
Note ON: Time 199680, Note Name: D#3, Velocity: 38
Note OFF: Time 200160, Note Name: D#3
Note ON: Time 200400, Note Name: C3, Velocity: 36
Note OFF: Time 200640, Note Name: C3
Note ON: Time 200640, Note Name: B2, Velocity: 38
Note OFF: Time 200880, Note Name: B2
Note ON: Time 200880, Note Name: C3, Velocity: 35
Note OFF: Time 201120, Note Name: C3
Note ON: Time 201120, Note Name: G#3, Velocity: 38
Note OFF: Time 201240, Note Name: G#3
Note ON: Time 201360, Note Name: G#3, Velocity: 34
Note OFF: Time 201480, Note Name: G#3
Note ON: Time 201600, Note Name: G3, Velocity: 38
Note OFF: Time 202080, Note Name: G3
Note ON: Time 203520, Note Name: G#3, Velocity: 38
Note ON: Time 203520, Note Name: C4, Velocity: 38
Note ON: Time 203520, Note Name: F#4, Velocity: 38
Note OFF: Time 205440, Note Name: F#4
Note OFF: Time 205440, Note Name: C4
Note OFF: Time 205440, Note Name: G#3
Note ON: Time 205440, Note Name: G4, Velocity: 38
Note ON: Time 205440, Note Name: D4, Velocity: 32
Note ON: Time 205440, Note Name: G3, Velocity: 32
Note OFF: Time 205920, Note Name: G3
Note OFF: Time 205920, Note Name: D4
Note OFF: Time 205920, Note Name: G4
Note ON: Time 206160, Note Name: G2, Velocity: 36
Note OFF: Time 206400, Note Name: G2
Note ON: Time 206400, Note Name: F#2, Velocity: 38
Note OFF: Time 206640, Note Name: F#2
Note ON: Time 206640, Note Name: G2, Velocity: 35
Note OFF: Time 206880, Note Name: G2
Note ON: Time 206880, Note Name: C3, Velocity: 38
Note OFF: Time 207000, Note Name: C3
Note ON: Time 207120, Note Name: C3, Velocity: 34
Note OFF: Time 207240, Note Name: C3
Note ON: Time 207360, Note Name: B2, Velocity: 38
Note OFF: Time 207840, Note Name: B2
Note ON: Time 208080, Note Name: G2, Velocity: 36
Note OFF: Time 208320, Note Name: G2
Note ON: Time 208320, Note Name: F#2, Velocity: 38
Note OFF: Time 208560, Note Name: F#2
Note ON: Time 208560, Note Name: G2, Velocity: 35
Note OFF: Time 208800, Note Name: G2
Note ON: Time 208800, Note Name: D#3, Velocity: 38
Note OFF: Time 208920, Note Name: D#3
Note ON: Time 209040, Note Name: D#3, Velocity: 34
Note OFF: Time 209160, Note Name: D#3
Note ON: Time 209280, Note Name: D3, Velocity: 38
Note OFF: Time 209760, Note Name: D3
Note ON: Time 210000, Note Name: G2, Velocity: 37
Note OFF: Time 210120, Note Name: G2
Note ON: Time 210240, Note Name: B2, Velocity: 43
Note OFF: Time 210360, Note Name: B2
Note ON: Time 210480, Note Name: D3, Velocity: 37
Note OFF: Time 210600, Note Name: D3
Note ON: Time 210720, Note Name: F3, Velocity: 37
Note OFF: Time 210840, Note Name: F3
Note ON: Time 210960, Note Name: G#3, Velocity: 37
Note OFF: Time 211080, Note Name: G#3
Note ON: Time 211200, Note Name: B3, Velocity: 46
Note OFF: Time 211320, Note Name: B3
Note ON: Time 211440, Note Name: D4, Velocity: 45
Note OFF: Time 211560, Note Name: D4
Note ON: Time 211680, Note Name: F4, Velocity: 47
Note OFF: Time 211800, Note Name: F4
Note ON: Time 211920, Note Name: G#4, Velocity: 50
Note OFF: Time 212040, Note Name: G#4
Note ON: Time 212160, Note Name: G4, Velocity: 53
Note OFF: Time 212280, Note Name: G4
Note ON: Time 212400, Note Name: F4, Velocity: 50
Note OFF: Time 212520, Note Name: F4
Note ON: Time 212640, Note Name: D#4, Velocity: 46
Note OFF: Time 212760, Note Name: D#4
Note ON: Time 212880, Note Name: D4, Velocity: 45
Note OFF: Time 213000, Note Name: D4
Note ON: Time 213120, Note Name: C4, Velocity: 42
Note OFF: Time 213240, Note Name: C4
Note ON: Time 213360, Note Name: D#4, Velocity: 32
Note ON: Time 213360, Note Name: G4, Velocity: 38
Note OFF: Time 213480, Note Name: G4
Note OFF: Time 213480, Note Name: D#4
Note ON: Time 213600, Note Name: D#4, Velocity: 32
Note ON: Time 213600, Note Name: G4, Velocity: 38
Note OFF: Time 213720, Note Name: G4
Note OFF: Time 213720, Note Name: D#4
Note ON: Time 213840, Note Name: D#4, Velocity: 32
Note ON: Time 213840, Note Name: G4, Velocity: 38
Note OFF: Time 213960, Note Name: G4
Note OFF: Time 213960, Note Name: D#4
Note ON: Time 214080, Note Name: C4, Velocity: 42
Note OFF: Time 214200, Note Name: C4
Note ON: Time 214320, Note Name: E4, Velocity: 31
Note ON: Time 214320, Note Name: G4, Velocity: 31
Note ON: Time 214320, Note Name: A#4, Velocity: 37
Note OFF: Time 214440, Note Name: A#4
Note OFF: Time 214440, Note Name: G4
Note OFF: Time 214440, Note Name: E4
Note ON: Time 214560, Note Name: E4, Velocity: 31
Note ON: Time 214560, Note Name: G4, Velocity: 31
Note ON: Time 214560, Note Name: A#4, Velocity: 37
Note OFF: Time 214680, Note Name: A#4
Note OFF: Time 214680, Note Name: G4
Note OFF: Time 214680, Note Name: E4
Note ON: Time 214800, Note Name: E4, Velocity: 31
Note ON: Time 214800, Note Name: G4, Velocity: 31
Note ON: Time 214800, Note Name: A#4, Velocity: 37
Note OFF: Time 214920, Note Name: A#4
Note OFF: Time 214920, Note Name: G4
Note OFF: Time 214920, Note Name: E4
Note ON: Time 215040, Note Name: C4, Velocity: 42
Note OFF: Time 215160, Note Name: C4
Note ON: Time 215280, Note Name: F4, Velocity: 32
Note ON: Time 215280, Note Name: G#4, Velocity: 38
Note OFF: Time 215400, Note Name: G#4
Note OFF: Time 215400, Note Name: F4
Note ON: Time 215520, Note Name: F4, Velocity: 32
Note ON: Time 215520, Note Name: G#4, Velocity: 38
Note OFF: Time 215640, Note Name: G#4
Note OFF: Time 215640, Note Name: F4
Note ON: Time 215760, Note Name: F4, Velocity: 32
Note ON: Time 215760, Note Name: G#4, Velocity: 38
Note OFF: Time 215880, Note Name: G#4
Note OFF: Time 215880, Note Name: F4
Note ON: Time 216000, Note Name: C4, Velocity: 42
Note OFF: Time 216120, Note Name: C4
Note ON: Time 216240, Note Name: F4, Velocity: 31
Note ON: Time 216240, Note Name: G#4, Velocity: 31
Note ON: Time 216240, Note Name: B4, Velocity: 37
Note OFF: Time 216360, Note Name: B4
Note OFF: Time 216360, Note Name: G#4
Note OFF: Time 216360, Note Name: F4
Note ON: Time 216480, Note Name: F4, Velocity: 31
Note ON: Time 216480, Note Name: G#4, Velocity: 31
Note ON: Time 216480, Note Name: B4, Velocity: 37
Note OFF: Time 216600, Note Name: B4
Note OFF: Time 216600, Note Name: G#4
Note OFF: Time 216600, Note Name: F4
Note ON: Time 216720, Note Name: F4, Velocity: 31
Note ON: Time 216720, Note Name: G#4, Velocity: 31
Note ON: Time 216720, Note Name: B4, Velocity: 37
Note OFF: Time 216840, Note Name: B4
Note OFF: Time 216840, Note Name: G#4
Note OFF: Time 216840, Note Name: F4
Note ON: Time 216960, Note Name: C4, Velocity: 42
Note OFF: Time 217080, Note Name: C4
Note ON: Time 217200, Note Name: D#4, Velocity: 32
Note ON: Time 217200, Note Name: G4, Velocity: 38
Note OFF: Time 217320, Note Name: G4
Note OFF: Time 217320, Note Name: D#4
Note ON: Time 217440, Note Name: D#4, Velocity: 32
Note ON: Time 217440, Note Name: G4, Velocity: 38
Note OFF: Time 217560, Note Name: G4
Note OFF: Time 217560, Note Name: D#4
Note ON: Time 217680, Note Name: D#4, Velocity: 32
Note ON: Time 217680, Note Name: G4, Velocity: 38
Note OFF: Time 217800, Note Name: G4
Note OFF: Time 217800, Note Name: D#4
Note ON: Time 217920, Note Name: C4, Velocity: 42
Note OFF: Time 218040, Note Name: C4
Note ON: Time 218160, Note Name: E4, Velocity: 31
Note ON: Time 218160, Note Name: G4, Velocity: 31
Note ON: Time 218160, Note Name: A#4, Velocity: 37
Note OFF: Time 218280, Note Name: A#4
Note OFF: Time 218280, Note Name: G4
Note OFF: Time 218280, Note Name: E4
Note ON: Time 218400, Note Name: E4, Velocity: 31
Note ON: Time 218400, Note Name: G4, Velocity: 31
Note ON: Time 218400, Note Name: A#4, Velocity: 37
Note OFF: Time 218520, Note Name: A#4
Note OFF: Time 218520, Note Name: G4
Note OFF: Time 218520, Note Name: E4
Note ON: Time 218640, Note Name: E4, Velocity: 31
Note ON: Time 218640, Note Name: G4, Velocity: 31
Note ON: Time 218640, Note Name: A#4, Velocity: 37
Note OFF: Time 218760, Note Name: A#4
Note OFF: Time 218760, Note Name: G4
Note OFF: Time 218760, Note Name: E4
Note ON: Time 218880, Note Name: C4, Velocity: 42
Note OFF: Time 219000, Note Name: C4
Note ON: Time 219120, Note Name: F4, Velocity: 32
Note ON: Time 219120, Note Name: G#4, Velocity: 38
Note OFF: Time 219240, Note Name: G#4
Note OFF: Time 219240, Note Name: F4
Note ON: Time 219360, Note Name: F4, Velocity: 32
Note ON: Time 219360, Note Name: G#4, Velocity: 38
Note OFF: Time 219480, Note Name: G#4
Note OFF: Time 219480, Note Name: F4
Note ON: Time 219600, Note Name: F4, Velocity: 32
Note ON: Time 219600, Note Name: G#4, Velocity: 38
Note OFF: Time 219720, Note Name: G#4
Note OFF: Time 219720, Note Name: F4
Note ON: Time 219840, Note Name: C4, Velocity: 42
Note OFF: Time 219960, Note Name: C4
Note ON: Time 220080, Note Name: F4, Velocity: 31
Note ON: Time 220080, Note Name: G#4, Velocity: 31
Note ON: Time 220080, Note Name: B4, Velocity: 37
Note OFF: Time 220200, Note Name: B4
Note OFF: Time 220200, Note Name: G#4
Note OFF: Time 220200, Note Name: F4
Note ON: Time 220320, Note Name: F4, Velocity: 31
Note ON: Time 220320, Note Name: G#4, Velocity: 31
Note ON: Time 220320, Note Name: B4, Velocity: 37
Note OFF: Time 220440, Note Name: B4
Note OFF: Time 220440, Note Name: G#4
Note OFF: Time 220440, Note Name: F4
Note ON: Time 220560, Note Name: F4, Velocity: 31
Note ON: Time 220560, Note Name: G#4, Velocity: 31
Note ON: Time 220560, Note Name: B4, Velocity: 37
Note OFF: Time 220680, Note Name: B4
Note OFF: Time 220680, Note Name: G#4
Note OFF: Time 220680, Note Name: F4
Note ON: Time 220800, Note Name: C4, Velocity: 36
Note ON: Time 220800, Note Name: D#4, Velocity: 36
Note ON: Time 220800, Note Name: G4, Velocity: 36
Note ON: Time 220807, Note Name: C5, Velocity: 44
Note OFF: Time 221280, Note Name: G4
Note OFF: Time 221280, Note Name: C4
Note OFF: Time 221280, Note Name: D#4
Note OFF: Time 221287, Note Name: C5
Note ON: Time 221520, Note Name: F#4, Velocity: 42
Note OFF: Time 221760, Note Name: F#4
Note ON: Time 221760, Note Name: G4, Velocity: 52
Note OFF: Time 222240, Note Name: G4
Note ON: Time 222480, Note Name: B3, Velocity: 48
Note OFF: Time 222720, Note Name: B3
Note ON: Time 222720, Note Name: C4, Velocity: 57
Note OFF: Time 223200, Note Name: C4
Note ON: Time 223440, Note Name: F#3, Velocity: 54
Note OFF: Time 223680, Note Name: F#3
Note ON: Time 223680, Note Name: G3, Velocity: 63
Note OFF: Time 224160, Note Name: G3
Note ON: Time 224400, Note Name: B2, Velocity: 57
Note OFF: Time 224640, Note Name: B2
Note ON: Time 224640, Note Name: C3, Velocity: 66
Note OFF: Time 225120, Note Name: C3
Note ON: Time 225360, Note Name: F#2, Velocity: 58
Note OFF: Time 225600, Note Name: F#2
Note ON: Time 225600, Note Name: G2, Velocity: 67
Note OFF: Time 226080, Note Name: G2
Note ON: Time 226080, Note Name: C2, Velocity: 82
Note ON: Time 226080, Note Name: C3, Velocity: 96
Note OFF: Time 226320, Note Name: C3
Note OFF: Time 226320, Note Name: C2
Note ON: Time 226560, Note Name: G1, Velocity: 55
Note ON: Time 226560, Note Name: G2, Velocity: 66
Note OFF: Time 226800, Note Name: G2
Note OFF: Time 226800, Note Name: G1
Note ON: Time 227040, Note Name: C2, Velocity: 82
Note ON: Time 227040, Note Name: C3, Velocity: 97
Note OFF: Time 227280, Note Name: C3
Note OFF: Time 227280, Note Name: C2
Note ON: Time 227520, Note Name: G1, Velocity: 57
Note ON: Time 227520, Note Name: G2, Velocity: 68
Note OFF: Time 227760, Note Name: G2
Note OFF: Time 227760, Note Name: G1
Note ON: Time 228000, Note Name: C2, Velocity: 82
Note ON: Time 228000, Note Name: C3, Velocity: 97
Note OFF: Time 228240, Note Name: C3
Note OFF: Time 228240, Note Name: C2
Note ON: Time 228480, Note Name: G1, Velocity: 66
Note ON: Time 228480, Note Name: B1, Velocity: 66
Note ON: Time 228480, Note Name: D2, Velocity: 66
Note ON: Time 228480, Note Name: G2, Velocity: 78
Note OFF: Time 229440, Note Name: G2
Note OFF: Time 229440, Note Name: G1
Note OFF: Time 229440, Note Name: B1
Note OFF: Time 229440, Note Name: D2
Note ON: Time 230400, Note Name: G3, Velocity: 26
Note ON: Time 230400, Note Name: C3, Velocity: 26
Note ON: Time 230400, Note Name: C4, Velocity: 31
Note OFF: Time 231360, Note Name: C4
Note OFF: Time 231360, Note Name: C3
Note OFF: Time 231360, Note Name: G3
Note ON: Time 231360, Note Name: G3, Velocity: 25
Note ON: Time 231360, Note Name: F3, Velocity: 25
Note ON: Time 231360, Note Name: B3, Velocity: 30
Note OFF: Time 231480, Note Name: B3
Note OFF: Time 231480, Note Name: F3
Note OFF: Time 231480, Note Name: G3
Note ON: Time 231840, Note Name: E3, Velocity: 23
Note ON: Time 231840, Note Name: G3, Velocity: 23
Note ON: Time 231840, Note Name: C4, Velocity: 27
Note OFF: Time 231960, Note Name: C4
Note OFF: Time 231960, Note Name: G3
Note OFF: Time 231960, Note Name: E3
Note ON: Time 232320, Note Name: G3, Velocity: 27
Note ON: Time 232320, Note Name: D3, Velocity: 27
Note ON: Time 232320, Note Name: D4, Velocity: 32
Note OFF: Time 233280, Note Name: D4
Note OFF: Time 233280, Note Name: D3
Note OFF: Time 233280, Note Name: G3
Note ON: Time 234240, Note Name: G3, Velocity: 26
Note ON: Time 234240, Note Name: C3, Velocity: 26
Note ON: Time 234240, Note Name: C4, Velocity: 31
Note OFF: Time 235200, Note Name: C4
Note OFF: Time 235200, Note Name: C3
Note OFF: Time 235200, Note Name: G3
Note ON: Time 235200, Note Name: F3, Velocity: 25
Note ON: Time 235200, Note Name: A3, Velocity: 30
Note OFF: Time 235320, Note Name: A3
Note OFF: Time 235320, Note Name: F3
Note ON: Time 235680, Note Name: F#3, Velocity: 23
Note ON: Time 235680, Note Name: A3, Velocity: 27
Note OFF: Time 235800, Note Name: A3
Note OFF: Time 235800, Note Name: F#3
Note ON: Time 236160, Note Name: G2, Velocity: 22
Note ON: Time 236160, Note Name: G3, Velocity: 27
Note OFF: Time 237120, Note Name: G3
Note OFF: Time 237120, Note Name: G2
Note ON: Time 238080, Note Name: G3, Velocity: 26
Note ON: Time 238080, Note Name: C3, Velocity: 26
Note ON: Time 238080, Note Name: C4, Velocity: 31
Note OFF: Time 239040, Note Name: C4
Note OFF: Time 239040, Note Name: C3
Note OFF: Time 239040, Note Name: G3
Note ON: Time 239040, Note Name: G3, Velocity: 25
Note ON: Time 239040, Note Name: F3, Velocity: 25
Note ON: Time 239040, Note Name: B3, Velocity: 30
Note OFF: Time 239160, Note Name: B3
Note OFF: Time 239160, Note Name: F3
Note OFF: Time 239160, Note Name: G3
Note ON: Time 239520, Note Name: G3, Velocity: 23
Note ON: Time 239520, Note Name: E3, Velocity: 23
Note ON: Time 239520, Note Name: C4, Velocity: 27
Note OFF: Time 239640, Note Name: C4
Note OFF: Time 239640, Note Name: E3
Note OFF: Time 239640, Note Name: G3
Note ON: Time 239895, Note Name: F3, Velocity: 28
Note ON: Time 239910, Note Name: A3, Velocity: 32
Note ON: Time 239925, Note Name: C4, Velocity: 36
Note ON: Time 239940, Note Name: F4, Velocity: 40
Note OFF: Time 240480, Note Name: F4
Note OFF: Time 240480, Note Name: F3
Note OFF: Time 240480, Note Name: A3
Note OFF: Time 240480, Note Name: C4
Note ON: Time 241920, Note Name: G3, Velocity: 80
Note ON: Time 243120, Note Name: G2, Velocity: 49
Note OFF: Time 243240, Note Name: G2
Note ON: Time 243360, Note Name: A2, Velocity: 53
Note OFF: Time 243480, Note Name: A2
Note ON: Time 243600, Note Name: B2, Velocity: 45
Note OFF: Time 243720, Note Name: B2
Note ON: Time 243840, Note Name: C3, Velocity: 53
Note OFF: Time 243960, Note Name: C3
Note ON: Time 244080, Note Name: D3, Velocity: 49
Note OFF: Time 244200, Note Name: D3
Note ON: Time 244320, Note Name: E3, Velocity: 51
Note OFF: Time 244440, Note Name: E3
Note ON: Time 244800, Note Name: D3, Velocity: 53
Note OFF: Time 245280, Note Name: D3
Note ON: Time 245280, Note Name: C3, Velocity: 50
Note OFF: Time 245760, Note Name: C3
Note OFF: Time 245760, Note Name: G3
Note ON: Time 245760, Note Name: G3, Velocity: 80
Note ON: Time 246960, Note Name: G2, Velocity: 49
Note OFF: Time 247080, Note Name: G2
Note ON: Time 247200, Note Name: A2, Velocity: 53
Note OFF: Time 247320, Note Name: A2
Note ON: Time 247440, Note Name: B2, Velocity: 45
Note OFF: Time 247560, Note Name: B2
Note ON: Time 247680, Note Name: C3, Velocity: 53
Note OFF: Time 247800, Note Name: C3
Note ON: Time 247920, Note Name: D3, Velocity: 49
Note OFF: Time 248040, Note Name: D3
Note ON: Time 248160, Note Name: D#3, Velocity: 51
Note OFF: Time 248280, Note Name: D#3
Note ON: Time 248640, Note Name: D3, Velocity: 53
Note OFF: Time 249120, Note Name: D3
Note ON: Time 249120, Note Name: C3, Velocity: 50
Note OFF: Time 249600, Note Name: C3
Note OFF: Time 249600, Note Name: G3
Note ON: Time 249600, Note Name: D3, Velocity: 45
Note ON: Time 249600, Note Name: F3, Velocity: 53
Note ON: Time 249600, Note Name: F2, Velocity: 45
Note ON: Time 249600, Note Name: G#2, Velocity: 45
Note OFF: Time 250080, Note Name: G#2
Note OFF: Time 250080, Note Name: D3
Note OFF: Time 250080, Note Name: F3
Note OFF: Time 250080, Note Name: F2
Note ON: Time 250560, Note Name: B2, Velocity: 42
Note ON: Time 250560, Note Name: G2, Velocity: 42
Note ON: Time 250560, Note Name: D3, Velocity: 42
Note ON: Time 250560, Note Name: F3, Velocity: 50
Note OFF: Time 251040, Note Name: F3
Note OFF: Time 251040, Note Name: B2
Note OFF: Time 251040, Note Name: G2
Note OFF: Time 251040, Note Name: D3
Note ON: Time 251520, Note Name: D#3, Velocity: 58
Note ON: Time 251520, Note Name: C3, Velocity: 49
Note OFF: Time 251760, Note Name: C3
Note OFF: Time 251760, Note Name: D#3
Note ON: Time 251760, Note Name: G3, Velocity: 48
Note OFF: Time 251880, Note Name: G3
Note ON: Time 252000, Note Name: G3, Velocity: 48
Note OFF: Time 252120, Note Name: G3
Note ON: Time 252240, Note Name: G3, Velocity: 48
Note OFF: Time 252360, Note Name: G3
Note ON: Time 252480, Note Name: G3, Velocity: 54
Note OFF: Time 252720, Note Name: G3
Note ON: Time 252720, Note Name: G3, Velocity: 47
Note OFF: Time 252840, Note Name: G3
Note ON: Time 252960, Note Name: B2, Velocity: 47
Note OFF: Time 253080, Note Name: B2
Note ON: Time 253200, Note Name: G3, Velocity: 47
Note OFF: Time 253320, Note Name: G3
Note ON: Time 253440, Note Name: C3, Velocity: 63
Note OFF: Time 253680, Note Name: C3
Note ON: Time 253680, Note Name: G3, Velocity: 52
Note OFF: Time 253800, Note Name: G3
Note ON: Time 253920, Note Name: G3, Velocity: 52
Note OFF: Time 254040, Note Name: G3
Note ON: Time 254160, Note Name: G3, Velocity: 52
Note OFF: Time 254280, Note Name: G3
Note ON: Time 254400, Note Name: G3, Velocity: 59
Note OFF: Time 254640, Note Name: G3
Note ON: Time 254640, Note Name: G3, Velocity: 52
Note OFF: Time 254760, Note Name: G3
Note ON: Time 254880, Note Name: B2, Velocity: 52
Note OFF: Time 255000, Note Name: B2
Note ON: Time 255120, Note Name: G3, Velocity: 52
Note OFF: Time 255240, Note Name: G3
Note ON: Time 255360, Note Name: C3, Velocity: 69
Note OFF: Time 255600, Note Name: C3
Note ON: Time 255600, Note Name: G3, Velocity: 55
Note OFF: Time 255720, Note Name: G3
Note ON: Time 255840, Note Name: G3, Velocity: 55
Note OFF: Time 255960, Note Name: G3
Note ON: Time 256080, Note Name: G3, Velocity: 55
Note OFF: Time 256200, Note Name: G3
Note ON: Time 256320, Note Name: G3, Velocity: 71
Note OFF: Time 256560, Note Name: G3
Note ON: Time 256560, Note Name: G3, Velocity: 62
Note OFF: Time 256680, Note Name: G3
Note ON: Time 256800, Note Name: B2, Velocity: 57
Note ON: Time 256800, Note Name: D3, Velocity: 57
Note ON: Time 256800, Note Name: F3, Velocity: 57
Note ON: Time 256800, Note Name: G3, Velocity: 68
Note OFF: Time 256920, Note Name: G3
Note OFF: Time 256920, Note Name: B2
Note OFF: Time 256920, Note Name: D3
Note OFF: Time 256920, Note Name: F3
Note ON: Time 257040, Note Name: B2, Velocity: 58
Note ON: Time 257040, Note Name: D3, Velocity: 58
Note ON: Time 257040, Note Name: F3, Velocity: 58
Note ON: Time 257040, Note Name: G3, Velocity: 69
Note OFF: Time 257160, Note Name: G3
Note OFF: Time 257160, Note Name: B2
Note OFF: Time 257160, Note Name: D3
Note OFF: Time 257160, Note Name: F3
Note ON: Time 257280, Note Name: G3, Velocity: 72
Note ON: Time 257280, Note Name: B2, Velocity: 53
Note ON: Time 257280, Note Name: D3, Velocity: 53
Note ON: Time 257280, Note Name: F3, Velocity: 53
Note OFF: Time 259200, Note Name: F3
Note OFF: Time 259200, Note Name: G3
Note OFF: Time 259200, Note Name: B2
Note OFF: Time 259200, Note Name: D3
Note ON: Time 259200, Note Name: C3, Velocity: 49
Note ON: Time 259200, Note Name: D#3, Velocity: 49
Note ON: Time 259200, Note Name: G3, Velocity: 66
Note OFF: Time 259680, Note Name: G3
Note OFF: Time 259680, Note Name: D#3
Note OFF: Time 259680, Note Name: C3
Note ON: Time 261120, Note Name: F2, Velocity: 73
Note OFF: Time 261360, Note Name: F2
Note ON: Time 261840, Note Name: F3, Velocity: 63
Note OFF: Time 261960, Note Name: F3
Note ON: Time 262080, Note Name: G2, Velocity: 70
Note OFF: Time 262320, Note Name: G2
Note ON: Time 262800, Note Name: G3, Velocity: 63
Note OFF: Time 262920, Note Name: G3
Note ON: Time 263280, Note Name: F4, Velocity: 63
Note OFF: Time 263400, Note Name: F4
Note ON: Time 263400, Note Name: G4, Velocity: 65
Note OFF: Time 263520, Note Name: G4
Note ON: Time 263520, Note Name: G#4, Velocity: 69
Note OFF: Time 263640, Note Name: G#4
Note ON: Time 263640, Note Name: G4, Velocity: 67
Note OFF: Time 263760, Note Name: G4
Note ON: Time 263760, Note Name: F4, Velocity: 65
Note OFF: Time 263880, Note Name: F4
Note ON: Time 263880, Note Name: D#4, Velocity: 64
Note OFF: Time 264000, Note Name: D#4
Note ON: Time 264000, Note Name: D4, Velocity: 67
Note OFF: Time 264160, Note Name: D4
Note ON: Time 264160, Note Name: C4, Velocity: 61
Note OFF: Time 264320, Note Name: C4
Note ON: Time 264320, Note Name: B3, Velocity: 61
Note OFF: Time 264480, Note Name: B3
Note ON: Time 264480, Note Name: G#3, Velocity: 67
Note OFF: Time 264640, Note Name: G#3
Note ON: Time 264640, Note Name: G3, Velocity: 62
Note OFF: Time 264800, Note Name: G3
Note ON: Time 264800, Note Name: F3, Velocity: 62
Note OFF: Time 264960, Note Name: F3
Note ON: Time 264960, Note Name: D#3, Velocity: 67
Note OFF: Time 265120, Note Name: D#3
Note ON: Time 265120, Note Name: F3, Velocity: 63
Note OFF: Time 265280, Note Name: F3
Note ON: Time 265280, Note Name: G3, Velocity: 63
Note OFF: Time 265440, Note Name: G3
Note ON: Time 265440, Note Name: F3, Velocity: 67
Note OFF: Time 265600, Note Name: F3
Note ON: Time 265600, Note Name: D#3, Velocity: 60
Note OFF: Time 265760, Note Name: D#3
Note ON: Time 265760, Note Name: D3, Velocity: 60
Note OFF: Time 265920, Note Name: D3
Note ON: Time 265920, Note Name: C3, Velocity: 70
Note OFF: Time 266080, Note Name: C3
Note ON: Time 266080, Note Name: A#2, Velocity: 63
Note OFF: Time 266240, Note Name: A#2
Note ON: Time 266240, Note Name: G#2, Velocity: 66
Note OFF: Time 266400, Note Name: G#2
Note ON: Time 266400, Note Name: G2, Velocity: 74
Note OFF: Time 266560, Note Name: G2
Note ON: Time 266560, Note Name: F2, Velocity: 67
Note OFF: Time 266720, Note Name: F2
Note ON: Time 266720, Note Name: D#2, Velocity: 67
Note OFF: Time 266880, Note Name: D#2
Note ON: Time 266880, Note Name: F1, Velocity: 73
Note ON: Time 266880, Note Name: F2, Velocity: 73
Note OFF: Time 267120, Note Name: F2
Note OFF: Time 267120, Note Name: F1
Note ON: Time 267600, Note Name: F1, Velocity: 63
Note ON: Time 267600, Note Name: F2, Velocity: 63
Note OFF: Time 267720, Note Name: F2
Note OFF: Time 267720, Note Name: F1
Note ON: Time 267840, Note Name: G1, Velocity: 70
Note ON: Time 267840, Note Name: G2, Velocity: 70
Note OFF: Time 268080, Note Name: G2
Note OFF: Time 268080, Note Name: G1
Note ON: Time 268560, Note Name: G1, Velocity: 63
Note ON: Time 268560, Note Name: G2, Velocity: 63
Note OFF: Time 268680, Note Name: G2
Note OFF: Time 268680, Note Name: G1
Note ON: Time 268800, Note Name: C2, Velocity: 59
Note ON: Time 268800, Note Name: D#2, Velocity: 59
Note ON: Time 268800, Note Name: G2, Velocity: 59
Note ON: Time 268800, Note Name: C3, Velocity: 70
Note OFF: Time 269280, Note Name: C3
Note OFF: Time 269280, Note Name: C2
Note OFF: Time 269280, Note Name: D#2
Note OFF: Time 269280, Note Name: G2
Note ON: Time 269280, Note Name: C#4, Velocity: 53
Note ON: Time 269280, Note Name: E4, Velocity: 63
Note OFF: Time 269400, Note Name: E4
Note OFF: Time 269400, Note Name: C#4
Note ON: Time 269520, Note Name: C#4, Velocity: 53
Note ON: Time 269520, Note Name: E4, Velocity: 63
Note OFF: Time 269640, Note Name: E4
Note OFF: Time 269640, Note Name: C#4
Note ON: Time 269760, Note Name: D4, Velocity: 59
Note ON: Time 269760, Note Name: F4, Velocity: 70
Note OFF: Time 270000, Note Name: F4
Note OFF: Time 270000, Note Name: D4
Note ON: Time 270240, Note Name: C#4, Velocity: 53
Note ON: Time 270240, Note Name: E4, Velocity: 63
Note OFF: Time 270360, Note Name: E4
Note OFF: Time 270360, Note Name: C#4
Note ON: Time 270480, Note Name: C#4, Velocity: 53
Note ON: Time 270480, Note Name: E4, Velocity: 63
Note OFF: Time 270600, Note Name: E4
Note OFF: Time 270600, Note Name: C#4
Note ON: Time 270720, Note Name: D4, Velocity: 59
Note ON: Time 270720, Note Name: F4, Velocity: 70
Note OFF: Time 270960, Note Name: F4
Note OFF: Time 270960, Note Name: D4
Note ON: Time 271200, Note Name: G1, Velocity: 63
Note ON: Time 271200, Note Name: G2, Velocity: 74
Note OFF: Time 271440, Note Name: G2
Note OFF: Time 271440, Note Name: G1
Note ON: Time 272160, Note Name: G1, Velocity: 30
Note ON: Time 272160, Note Name: G2, Velocity: 36
Note OFF: Time 272280, Note Name: G2
Note OFF: Time 272280, Note Name: G1
Note ON: Time 272640, Note Name: G#1, Velocity: 32
Note ON: Time 272640, Note Name: G#2, Velocity: 38
Note OFF: Time 272760, Note Name: G#2
Note OFF: Time 272760, Note Name: G#1
Note ON: Time 273120, Note Name: F#1, Velocity: 30
Note ON: Time 273120, Note Name: F#2, Velocity: 36
Note OFF: Time 273240, Note Name: F#2
Note OFF: Time 273240, Note Name: F#1
Note ON: Time 273600, Note Name: G1, Velocity: 32
Note ON: Time 273600, Note Name: G2, Velocity: 38
Note OFF: Time 273720, Note Name: G2
Note OFF: Time 273720, Note Name: G1
Note ON: Time 274080, Note Name: G1, Velocity: 27
Note ON: Time 274080, Note Name: G2, Velocity: 33
Note OFF: Time 274200, Note Name: G2
Note OFF: Time 274200, Note Name: G1
Note ON: Time 274560, Note Name: C2, Velocity: 32
Note ON: Time 274560, Note Name: C3, Velocity: 38
Note OFF: Time 274680, Note Name: C3
Note OFF: Time 274680, Note Name: C2
Note ON: Time 275040, Note Name: C#4, Velocity: 53
Note ON: Time 275040, Note Name: E4, Velocity: 63
Note OFF: Time 275160, Note Name: E4
Note OFF: Time 275160, Note Name: C#4
Note ON: Time 275280, Note Name: C#4, Velocity: 53
Note ON: Time 275280, Note Name: E4, Velocity: 63
Note OFF: Time 275400, Note Name: E4
Note OFF: Time 275400, Note Name: C#4
Note ON: Time 275520, Note Name: D4, Velocity: 59
Note ON: Time 275520, Note Name: F4, Velocity: 70
Note OFF: Time 275760, Note Name: F4
Note OFF: Time 275760, Note Name: D4
Note ON: Time 276000, Note Name: C#4, Velocity: 53
Note ON: Time 276000, Note Name: E4, Velocity: 63
Note OFF: Time 276120, Note Name: E4
Note OFF: Time 276120, Note Name: C#4
Note ON: Time 276240, Note Name: E4, Velocity: 53
Note ON: Time 276240, Note Name: C#4, Velocity: 63
Note OFF: Time 276360, Note Name: C#4
Note OFF: Time 276360, Note Name: E4
Note ON: Time 276480, Note Name: D4, Velocity: 59
Note ON: Time 276480, Note Name: F4, Velocity: 70
Note OFF: Time 276720, Note Name: F4
Note OFF: Time 276720, Note Name: D4
Note ON: Time 276960, Note Name: G1, Velocity: 63
Note ON: Time 276960, Note Name: G2, Velocity: 74
Note OFF: Time 277200, Note Name: G2
Note OFF: Time 277200, Note Name: G1
Note ON: Time 277920, Note Name: G#1, Velocity: 55
Note ON: Time 277920, Note Name: C2, Velocity: 55
Note ON: Time 277920, Note Name: D#2, Velocity: 55
Note ON: Time 277920, Note Name: G#2, Velocity: 65
Note OFF: Time 278880, Note Name: G#2
Note OFF: Time 278880, Note Name: G#1
Note OFF: Time 278880, Note Name: C2
Note OFF: Time 278880, Note Name: D#2
Note ON: Time 278880, Note Name: F#1, Velocity: 30
Note ON: Time 278880, Note Name: F#2, Velocity: 36
Note OFF: Time 279000, Note Name: F#2
Note OFF: Time 279000, Note Name: F#1
Note ON: Time 279360, Note Name: G1, Velocity: 32
Note ON: Time 279360, Note Name: G2, Velocity: 38
Note OFF: Time 279480, Note Name: G2
Note OFF: Time 279480, Note Name: G1
Note ON: Time 279840, Note Name: G1, Velocity: 27
Note ON: Time 279840, Note Name: G2, Velocity: 33
Note OFF: Time 279960, Note Name: G2
Note OFF: Time 279960, Note Name: G1
Note ON: Time 280320, Note Name: C2, Velocity: 32
Note OFF: Time 280560, Note Name: C2
Note ON: Time 280560, Note Name: C3, Velocity: 27
Note OFF: Time 280800, Note Name: C3
Note ON: Time 281280, Note Name: C2, Velocity: 32
Note OFF: Time 281520, Note Name: C2
Note ON: Time 281520, Note Name: C3, Velocity: 28
Note OFF: Time 281760, Note Name: C3
Note ON: Time 282240, Note Name: C2, Velocity: 32
Note OFF: Time 282480, Note Name: C2
Note ON: Time 282480, Note Name: C3, Velocity: 28
Note OFF: Time 282720, Note Name: C3
Note ON: Time 283200, Note Name: C2, Velocity: 32
Note OFF: Time 283440, Note Name: C2
Note ON: Time 283440, Note Name: C3, Velocity: 27
Note OFF: Time 283680, Note Name: C3
Note ON: Time 284160, Note Name: G#1, Velocity: 36
Note OFF: Time 284400, Note Name: G#1
Note ON: Time 284400, Note Name: G#2, Velocity: 32
Note OFF: Time 284640, Note Name: G#2
Note ON: Time 285120, Note Name: G#1, Velocity: 42
Note OFF: Time 285360, Note Name: G#1
Note ON: Time 285360, Note Name: G#2, Velocity: 38
Note OFF: Time 285600, Note Name: G#2
Note ON: Time 286080, Note Name: G#1, Velocity: 55
Note OFF: Time 286320, Note Name: G#1
Note ON: Time 286320, Note Name: G#2, Velocity: 51
Note OFF: Time 286560, Note Name: G#2
Note ON: Time 287040, Note Name: G#1, Velocity: 64
Note OFF: Time 287280, Note Name: G#1
Note ON: Time 287280, Note Name: G#2, Velocity: 56
Note OFF: Time 287520, Note Name: G#2
Note ON: Time 288000, Note Name: G#1, Velocity: 65
Note ON: Time 288000, Note Name: G#2, Velocity: 70
Note OFF: Time 292800, Note Name: G#2
Note OFF: Time 292800, Note Name: G#1
Note ON: Time 293760, Note Name: C#2, Velocity: 21
Note ON: Time 293760, Note Name: C#3, Velocity: 26
Note OFF: Time 294720, Note Name: C#3
Note OFF: Time 294720, Note Name: C#2
Note ON: Time 294720, Note Name: F#2, Velocity: 20
Note ON: Time 294720, Note Name: C3, Velocity: 25
Note OFF: Time 294840, Note Name: C3
Note OFF: Time 294840, Note Name: F#2
Note ON: Time 295200, Note Name: F2, Velocity: 19
Note ON: Time 295200, Note Name: C#3, Velocity: 23
Note OFF: Time 295320, Note Name: C#3
Note OFF: Time 295320, Note Name: F2
Note ON: Time 295680, Note Name: G#2, Velocity: 22
Note ON: Time 295680, Note Name: D#3, Velocity: 27
Note OFF: Time 296880, Note Name: D#3
Note OFF: Time 296880, Note Name: G#2
Note ON: Time 297600, Note Name: C#2, Velocity: 21
Note ON: Time 297600, Note Name: C#3, Velocity: 26
Note OFF: Time 298560, Note Name: C#3
Note OFF: Time 298560, Note Name: C#2
Note ON: Time 298560, Note Name: F#1, Velocity: 20
Note ON: Time 298560, Note Name: F#2, Velocity: 25
Note OFF: Time 298680, Note Name: F#2
Note OFF: Time 298680, Note Name: F#1
Note ON: Time 299040, Note Name: G1, Velocity: 19
Note ON: Time 299040, Note Name: G2, Velocity: 23
Note OFF: Time 299160, Note Name: G2
Note OFF: Time 299160, Note Name: G1
Note ON: Time 299520, Note Name: G#1, Velocity: 18
Note ON: Time 299520, Note Name: G#2, Velocity: 22
Note OFF: Time 300480, Note Name: G#2
Note OFF: Time 300480, Note Name: G#1
Note ON: Time 301440, Note Name: C#2, Velocity: 21
Note ON: Time 301440, Note Name: C#3, Velocity: 26
Note OFF: Time 302400, Note Name: C#3
Note OFF: Time 302400, Note Name: C#2
Note ON: Time 302400, Note Name: F#2, Velocity: 20
Note ON: Time 302400, Note Name: C3, Velocity: 25
Note OFF: Time 302520, Note Name: C3
Note OFF: Time 302520, Note Name: F#2
Note ON: Time 302880, Note Name: F2, Velocity: 19
Note ON: Time 302880, Note Name: C#3, Velocity: 23
Note OFF: Time 303000, Note Name: C#3
Note OFF: Time 303000, Note Name: F2
Note ON: Time 303360, Note Name: G#2, Velocity: 24
Note ON: Time 303360, Note Name: C3, Velocity: 24
Note ON: Time 303360, Note Name: D#3, Velocity: 28
Note OFF: Time 305280, Note Name: D#3
Note OFF: Time 305280, Note Name: C3
Note OFF: Time 305280, Note Name: G#2
Note ON: Time 305280, Note Name: A1, Velocity: 30
Note OFF: Time 305360, Note Name: A1
Note ON: Time 305360, Note Name: C2, Velocity: 32
Note ON: Time 305440, Note Name: D#2, Velocity: 33
Note OFF: Time 305440, Note Name: C2
Note OFF: Time 305520, Note Name: D#2
Note ON: Time 305520, Note Name: F#2, Velocity: 34
Note ON: Time 305599, Note Name: A2, Velocity: 36
Note OFF: Time 305600, Note Name: F#2
Note ON: Time 305705, Note Name: C3, Velocity: 37
Note ON: Time 305812, Note Name: D#3, Velocity: 39
Note OFF: Time 308154, Note Name: A2
Note OFF: Time 308160, Note Name: D#3
Note OFF: Time 308160, Note Name: C3
Note ON: Time 308160, Note Name: G1, Velocity: 60
Note OFF: Time 308267, Note Name: G1
Note ON: Time 308267, Note Name: C2, Velocity: 61
Note OFF: Time 308373, Note Name: C2
Note ON: Time 308373, Note Name: D#2, Velocity: 62
Note ON: Time 308479, Note Name: G2, Velocity: 63
Note OFF: Time 308480, Note Name: D#2
Note OFF: Time 308586, Note Name: G2
Note ON: Time 308586, Note Name: C3, Velocity: 63
Note OFF: Time 308692, Note Name: C3
Note ON: Time 308692, Note Name: D#3, Velocity: 64
Note OFF: Time 308799, Note Name: D#3
Note ON: Time 310080, Note Name: D#3, Velocity: 70
Note OFF: Time 310200, Note Name: D#3
Note ON: Time 310320, Note Name: C3, Velocity: 57
Note OFF: Time 310440, Note Name: C3
Note ON: Time 310560, Note Name: G1, Velocity: 42
Note ON: Time 310560, Note Name: G2, Velocity: 42
Note ON: Time 310560, Note Name: B2, Velocity: 63
Note OFF: Time 310680, Note Name: B2
Note ON: Time 310800, Note Name: D3, Velocity: 53
Note OFF: Time 310920, Note Name: D3
Note OFF: Time 311040, Note Name: G2
Note OFF: Time 311040, Note Name: G1
Note ON: Time 311040, Note Name: C3, Velocity: 43
Note ON: Time 311040, Note Name: C2, Velocity: 64
Note OFF: Time 311160, Note Name: C2
Note OFF: Time 311280, Note Name: C3
Note ON: Time 311280, Note Name: C3, Velocity: 38
Note OFF: Time 311400, Note Name: C3
Note ON: Time 311520, Note Name: C3, Velocity: 38
Note OFF: Time 311640, Note Name: C3
Note ON: Time 311760, Note Name: C3, Velocity: 38
Note OFF: Time 311880, Note Name: C3
Note ON: Time 312000, Note Name: C3, Velocity: 41
Note OFF: Time 312120, Note Name: C3
Note ON: Time 312240, Note Name: A#3, Velocity: 37
Note ON: Time 312240, Note Name: G3, Velocity: 31
Note OFF: Time 312360, Note Name: G3
Note OFF: Time 312360, Note Name: A#3
Note ON: Time 312480, Note Name: A#3, Velocity: 37
Note ON: Time 312480, Note Name: G3, Velocity: 31
Note OFF: Time 312600, Note Name: G3
Note OFF: Time 312600, Note Name: A#3
Note ON: Time 312720, Note Name: A#3, Velocity: 37
Note ON: Time 312720, Note Name: G3, Velocity: 31
Note OFF: Time 312840, Note Name: G3
Note OFF: Time 312840, Note Name: A#3
Note ON: Time 312960, Note Name: C3, Velocity: 43
Note OFF: Time 313080, Note Name: C3
Note ON: Time 313200, Note Name: F3, Velocity: 31
Note ON: Time 313200, Note Name: G#3, Velocity: 36
Note OFF: Time 313320, Note Name: G#3
Note OFF: Time 313320, Note Name: F3
Note ON: Time 313440, Note Name: F3, Velocity: 31
Note ON: Time 313440, Note Name: G#3, Velocity: 36
Note OFF: Time 313560, Note Name: G#3
Note OFF: Time 313560, Note Name: F3
Note ON: Time 313680, Note Name: F3, Velocity: 31
Note ON: Time 313680, Note Name: G#3, Velocity: 36
Note OFF: Time 313800, Note Name: G#3
Note OFF: Time 313800, Note Name: F3
Note ON: Time 313920, Note Name: C3, Velocity: 41
Note OFF: Time 314040, Note Name: C3
Note ON: Time 314160, Note Name: B3, Velocity: 36
Note ON: Time 314160, Note Name: G#3, Velocity: 31
Note ON: Time 314160, Note Name: F3, Velocity: 31
Note OFF: Time 314280, Note Name: F3
Note OFF: Time 314280, Note Name: G#3
Note OFF: Time 314280, Note Name: B3
Note ON: Time 314400, Note Name: B3, Velocity: 36
Note ON: Time 314400, Note Name: G#3, Velocity: 31
Note ON: Time 314400, Note Name: F3, Velocity: 31
Note OFF: Time 314520, Note Name: F3
Note OFF: Time 314520, Note Name: G#3
Note OFF: Time 314520, Note Name: B3
Note ON: Time 314640, Note Name: B3, Velocity: 36
Note ON: Time 314640, Note Name: G#3, Velocity: 31
Note ON: Time 314640, Note Name: F3, Velocity: 31
Note OFF: Time 314760, Note Name: F3
Note OFF: Time 314760, Note Name: G#3
Note OFF: Time 314760, Note Name: B3
Note ON: Time 314880, Note Name: C3, Velocity: 43
Note OFF: Time 315120, Note Name: C3
Note ON: Time 315120, Note Name: E3, Velocity: 32
Note ON: Time 315120, Note Name: G3, Velocity: 32
Note ON: Time 315120, Note Name: C4, Velocity: 38
Note OFF: Time 315240, Note Name: C4
Note OFF: Time 315240, Note Name: G3
Note OFF: Time 315240, Note Name: E3
Note ON: Time 315360, Note Name: E3, Velocity: 32
Note ON: Time 315360, Note Name: G3, Velocity: 32
Note ON: Time 315360, Note Name: C4, Velocity: 38
Note OFF: Time 315480, Note Name: C4
Note OFF: Time 315480, Note Name: G3
Note OFF: Time 315480, Note Name: E3
Note ON: Time 315600, Note Name: E3, Velocity: 32
Note ON: Time 315600, Note Name: G3, Velocity: 32
Note ON: Time 315600, Note Name: C4, Velocity: 38
Note OFF: Time 315720, Note Name: C4
Note OFF: Time 315720, Note Name: G3
Note OFF: Time 315720, Note Name: E3
Note ON: Time 315840, Note Name: C3, Velocity: 41
Note OFF: Time 315960, Note Name: C3
Note ON: Time 316080, Note Name: A#3, Velocity: 37
Note ON: Time 316080, Note Name: G3, Velocity: 31
Note OFF: Time 316200, Note Name: G3
Note OFF: Time 316200, Note Name: A#3
Note ON: Time 316320, Note Name: A#3, Velocity: 37
Note ON: Time 316320, Note Name: G3, Velocity: 31
Note OFF: Time 316440, Note Name: G3
Note OFF: Time 316440, Note Name: A#3
Note ON: Time 316560, Note Name: A#3, Velocity: 37
Note ON: Time 316560, Note Name: G3, Velocity: 31
Note OFF: Time 316680, Note Name: G3
Note OFF: Time 316680, Note Name: A#3
Note ON: Time 316800, Note Name: C3, Velocity: 43
Note OFF: Time 316920, Note Name: C3
Note ON: Time 317040, Note Name: F3, Velocity: 31
Note ON: Time 317040, Note Name: G#3, Velocity: 36
Note OFF: Time 317160, Note Name: G#3
Note OFF: Time 317160, Note Name: F3
Note ON: Time 317280, Note Name: F3, Velocity: 31
Note ON: Time 317280, Note Name: G#3, Velocity: 36
Note OFF: Time 317400, Note Name: G#3
Note OFF: Time 317400, Note Name: F3
Note ON: Time 317520, Note Name: F3, Velocity: 31
Note ON: Time 317520, Note Name: G#3, Velocity: 36
Note OFF: Time 317640, Note Name: G#3
Note OFF: Time 317640, Note Name: F3
Note ON: Time 317760, Note Name: C3, Velocity: 41
Note OFF: Time 317880, Note Name: C3
Note ON: Time 318000, Note Name: B3, Velocity: 36
Note ON: Time 318000, Note Name: G#3, Velocity: 31
Note ON: Time 318000, Note Name: F3, Velocity: 31
Note OFF: Time 318120, Note Name: F3
Note OFF: Time 318120, Note Name: G#3
Note OFF: Time 318120, Note Name: B3
Note ON: Time 318240, Note Name: B3, Velocity: 36
Note ON: Time 318240, Note Name: G#3, Velocity: 31
Note ON: Time 318240, Note Name: F3, Velocity: 31
Note OFF: Time 318360, Note Name: F3
Note OFF: Time 318360, Note Name: G#3
Note OFF: Time 318360, Note Name: B3
Note ON: Time 318480, Note Name: B3, Velocity: 36
Note ON: Time 318480, Note Name: G#3, Velocity: 31
Note ON: Time 318480, Note Name: F3, Velocity: 31
Note OFF: Time 318600, Note Name: F3
Note OFF: Time 318600, Note Name: G#3
Note OFF: Time 318600, Note Name: B3
Note ON: Time 318720, Note Name: C3, Velocity: 43
Note OFF: Time 318960, Note Name: C3
Note ON: Time 318960, Note Name: E3, Velocity: 32
Note ON: Time 318960, Note Name: G3, Velocity: 32
Note ON: Time 318960, Note Name: C4, Velocity: 38
Note OFF: Time 319080, Note Name: C4
Note OFF: Time 319080, Note Name: G3
Note OFF: Time 319080, Note Name: E3
Note ON: Time 319200, Note Name: E3, Velocity: 32
Note ON: Time 319200, Note Name: G3, Velocity: 32
Note ON: Time 319200, Note Name: C4, Velocity: 38
Note OFF: Time 319320, Note Name: C4
Note OFF: Time 319320, Note Name: G3
Note OFF: Time 319320, Note Name: E3
Note ON: Time 319440, Note Name: E3, Velocity: 32
Note ON: Time 319440, Note Name: G3, Velocity: 32
Note ON: Time 319440, Note Name: C4, Velocity: 38
Note OFF: Time 319560, Note Name: C4
Note OFF: Time 319560, Note Name: G3
Note OFF: Time 319560, Note Name: E3
Note ON: Time 319680, Note Name: C3, Velocity: 40
Note OFF: Time 319800, Note Name: C3
Note ON: Time 319920, Note Name: B3, Velocity: 36
Note ON: Time 319920, Note Name: G#3, Velocity: 30
Note ON: Time 319920, Note Name: F3, Velocity: 30
Note OFF: Time 320040, Note Name: F3
Note OFF: Time 320040, Note Name: G#3
Note OFF: Time 320040, Note Name: B3
Note ON: Time 320160, Note Name: B3, Velocity: 35
Note ON: Time 320160, Note Name: G#3, Velocity: 29
Note ON: Time 320160, Note Name: F3, Velocity: 29
Note OFF: Time 320280, Note Name: F3
Note OFF: Time 320280, Note Name: G#3
Note OFF: Time 320280, Note Name: B3
Note ON: Time 320400, Note Name: B3, Velocity: 34
Note ON: Time 320400, Note Name: G#3, Velocity: 29
Note ON: Time 320400, Note Name: F3, Velocity: 29
Note OFF: Time 320520, Note Name: F3
Note OFF: Time 320520, Note Name: G#3
Note OFF: Time 320520, Note Name: B3
Note ON: Time 320640, Note Name: C3, Velocity: 40
Note OFF: Time 320880, Note Name: C3
Note ON: Time 320880, Note Name: E3, Velocity: 29
Note ON: Time 320880, Note Name: G3, Velocity: 29
Note ON: Time 320880, Note Name: C4, Velocity: 35
Note OFF: Time 321000, Note Name: C4
Note OFF: Time 321000, Note Name: G3
Note OFF: Time 321000, Note Name: E3
Note ON: Time 321120, Note Name: E3, Velocity: 29
Note ON: Time 321120, Note Name: G3, Velocity: 29
Note ON: Time 321120, Note Name: C4, Velocity: 35
Note OFF: Time 321240, Note Name: C4
Note OFF: Time 321240, Note Name: G3
Note OFF: Time 321240, Note Name: E3
Note ON: Time 321360, Note Name: E3, Velocity: 28
Note ON: Time 321360, Note Name: G3, Velocity: 28
Note ON: Time 321360, Note Name: C4, Velocity: 34
Note OFF: Time 321480, Note Name: C4
Note OFF: Time 321480, Note Name: G3
Note OFF: Time 321480, Note Name: E3
Note ON: Time 321600, Note Name: C3, Velocity: 36
Note OFF: Time 321720, Note Name: C3
Note ON: Time 321840, Note Name: B3, Velocity: 32
Note ON: Time 321840, Note Name: G#3, Velocity: 27
Note ON: Time 321840, Note Name: F3, Velocity: 27
Note OFF: Time 321960, Note Name: F3
Note OFF: Time 321960, Note Name: G#3
Note OFF: Time 321960, Note Name: B3
Note ON: Time 322080, Note Name: B3, Velocity: 31
Note ON: Time 322080, Note Name: G#3, Velocity: 27
Note ON: Time 322080, Note Name: F3, Velocity: 27
Note OFF: Time 322200, Note Name: F3
Note OFF: Time 322200, Note Name: G#3
Note OFF: Time 322200, Note Name: B3
Note ON: Time 322320, Note Name: B3, Velocity: 30
Note ON: Time 322320, Note Name: G#3, Velocity: 26
Note ON: Time 322320, Note Name: F3, Velocity: 26
Note OFF: Time 322440, Note Name: F3
Note OFF: Time 322440, Note Name: G#3
Note OFF: Time 322440, Note Name: B3
Note ON: Time 322560, Note Name: C3, Velocity: 32
Note OFF: Time 322800, Note Name: C3
Note ON: Time 322800, Note Name: E3, Velocity: 23
Note ON: Time 322800, Note Name: G3, Velocity: 23
Note ON: Time 322800, Note Name: C4, Velocity: 27
Note OFF: Time 322920, Note Name: C4
Note OFF: Time 322920, Note Name: G3
Note OFF: Time 322920, Note Name: E3
Note ON: Time 323040, Note Name: E3, Velocity: 23
Note ON: Time 323040, Note Name: G3, Velocity: 23
Note ON: Time 323040, Note Name: C4, Velocity: 27
Note OFF: Time 323160, Note Name: C4
Note OFF: Time 323160, Note Name: G3
Note OFF: Time 323160, Note Name: E3
Note ON: Time 323280, Note Name: E3, Velocity: 22
Note ON: Time 323280, Note Name: G3, Velocity: 22
Note ON: Time 323280, Note Name: C4, Velocity: 27
Note OFF: Time 323400, Note Name: C4
Note OFF: Time 323400, Note Name: G3
Note OFF: Time 323400, Note Name: E3
Note ON: Time 323520, Note Name: C3, Velocity: 32
Note OFF: Time 323760, Note Name: C3
Note ON: Time 323760, Note Name: E3, Velocity: 22
Note ON: Time 323760, Note Name: G3, Velocity: 22
Note ON: Time 323760, Note Name: C4, Velocity: 26
Note OFF: Time 323880, Note Name: C4
Note OFF: Time 323880, Note Name: G3
Note OFF: Time 323880, Note Name: E3
Note ON: Time 324000, Note Name: E3, Velocity: 21
Note ON: Time 324000, Note Name: G3, Velocity: 21
Note ON: Time 324000, Note Name: C4, Velocity: 26
Note OFF: Time 324120, Note Name: C4
Note OFF: Time 324120, Note Name: G3
Note OFF: Time 324120, Note Name: E3
Note ON: Time 324240, Note Name: E3, Velocity: 21
Note ON: Time 324240, Note Name: G3, Velocity: 21
Note ON: Time 324240, Note Name: C4, Velocity: 25
Note OFF: Time 324360, Note Name: C4
Note OFF: Time 324360, Note Name: G3
Note OFF: Time 324360, Note Name: E3
Note ON: Time 324480, Note Name: C3, Velocity: 20
Note ON: Time 324480, Note Name: E3, Velocity: 20
Note ON: Time 324480, Note Name: G3, Velocity: 24
Note OFF: Time 324960, Note Name: G3
Note OFF: Time 324960, Note Name: E3
Note OFF: Time 324960, Note Name: C3
Track 3: Pedale
Track 4: Beethoven: Sonate Nr. 5 3. Satz
Track 5: Copyright  2008 by Bernd Krueger
Track 6: http://www.piano-midi.de/
Track 7: Edition: 1012-05-09
Track 8: Spur 8
Track 9: Spur 9
Track 10: Spur 10
Track 11: Spur 11
Track 12: Spur 12
Track 13: Spur 13
Track 14: Spur 14
Track 15: Spur 15
Track 16: Spur 16
