Processing beethoven_les_adieux_1.mid...

Track 0: Sonate Les adieux 1. Satz
Track 1: Piano right
Note ON: Time 0, Note Name: G4, Velocity: 40
Note ON: Time 0, Note Name: D#4, Velocity: 34
Note OFF: Time 480, Note Name: D#4
Note OFF: Time 480, Note Name: G4
Note ON: Time 480, Note Name: F4, Velocity: 39
Note ON: Time 480, Note Name: A#3, Velocity: 33
Note OFF: Time 960, Note Name: A#3
Note OFF: Time 960, Note Name: F4
Note ON: Time 960, Note Name: G3, Velocity: 33
Note ON: Time 960, Note Name: D#4, Velocity: 39
Note OFF: Time 1680, Note Name: D#4
Note OFF: Time 1680, Note Name: G3
Note ON: Time 1680, Note Name: D#4, Velocity: 44
Note OFF: Time 1860, Note Name: D#4
Note ON: Time 1860, Note Name: G#4, Velocity: 37
Note OFF: Time 1920, Note Name: G#4
Note ON: Time 1920, Note Name: G4, Velocity: 44
Note OFF: Time 2160, Note Name: G4
Note ON: Time 2160, Note Name: G4, Velocity: 46
Note OFF: Time 2340, Note Name: G4
Note ON: Time 2340, Note Name: C#5, Velocity: 44
Note OFF: Time 2400, Note Name: C#5
Note ON: Time 2400, Note Name: C5, Velocity: 50
Note OFF: Time 2640, Note Name: C5
Note ON: Time 2640, Note Name: C5, Velocity: 55
Note OFF: Time 2700, Note Name: C5
Note ON: Time 2700, Note Name: D5, Velocity: 48
Note OFF: Time 2720, Note Name: D5
Note ON: Time 2720, Note Name: C5, Velocity: 48
Note OFF: Time 2740, Note Name: C5
Note ON: Time 2740, Note Name: B4, Velocity: 48
Note OFF: Time 2760, Note Name: B4
Note ON: Time 2760, Note Name: C5, Velocity: 55
Note OFF: Time 2820, Note Name: C5
Note ON: Time 2820, Note Name: D5, Velocity: 48
Note OFF: Time 2880, Note Name: D5
Note ON: Time 2880, Note Name: D#5, Velocity: 58
Note ON: Time 2880, Note Name: D#4, Velocity: 44
Note OFF: Time 3120, Note Name: D#4
Note ON: Time 3120, Note Name: F#4, Velocity: 39
Note ON: Time 3120, Note Name: D#4, Velocity: 33
Note OFF: Time 3240, Note Name: D#5
Note ON: Time 3240, Note Name: C5, Velocity: 44
Note OFF: Time 3360, Note Name: C5
Note OFF: Time 3360, Note Name: D#4
Note OFF: Time 3360, Note Name: F#4
Note ON: Time 3360, Note Name: B4, Velocity: 46
Note ON: Time 3360, Note Name: D4, Velocity: 32
Note ON: Time 3360, Note Name: G4, Velocity: 37
Note OFF: Time 3600, Note Name: G4
Note OFF: Time 3600, Note Name: D4
Note OFF: Time 3600, Note Name: B4
Note ON: Time 3600, Note Name: G5, Velocity: 62
Note OFF: Time 3720, Note Name: G5
Note ON: Time 3720, Note Name: D#6, Velocity: 58
Note OFF: Time 3840, Note Name: D#6
Note ON: Time 3840, Note Name: D#6, Velocity: 63
Note ON: Time 3840, Note Name: D#5, Velocity: 48
Note OFF: Time 4080, Note Name: D#5
Note ON: Time 4080, Note Name: F#5, Velocity: 48
Note ON: Time 4080, Note Name: D#5, Velocity: 40
Note OFF: Time 4200, Note Name: D#6
Note ON: Time 4200, Note Name: C6, Velocity: 53
Note OFF: Time 4320, Note Name: C6
Note OFF: Time 4320, Note Name: D#5
Note OFF: Time 4320, Note Name: F#5
Note ON: Time 4320, Note Name: D5, Velocity: 40
Note ON: Time 4320, Note Name: G5, Velocity: 40
Note ON: Time 4320, Note Name: B5, Velocity: 50
Note OFF: Time 4558, Note Name: B5
Note OFF: Time 4558, Note Name: G5
Note OFF: Time 4558, Note Name: D5
Note ON: Time 4560, Note Name: A#5, Velocity: 60
Note ON: Time 4560, Note Name: D5, Velocity: 46
Note ON: Time 4560, Note Name: G5, Velocity: 46
Note OFF: Time 4800, Note Name: G5
Note OFF: Time 4800, Note Name: D5
Note OFF: Time 4800, Note Name: A#5
Note ON: Time 4800, Note Name: A#5, Velocity: 68
Note ON: Time 4800, Note Name: D5, Velocity: 55
Note OFF: Time 5040, Note Name: D5
Note ON: Time 5040, Note Name: D#5, Velocity: 55
Note OFF: Time 5280, Note Name: D#5
Note ON: Time 5280, Note Name: F5, Velocity: 46
Note OFF: Time 5360, Note Name: F5
Note OFF: Time 5360, Note Name: A#5
Note ON: Time 5360, Note Name: A#4, Velocity: 51
Note OFF: Time 5440, Note Name: A#4
Note ON: Time 5440, Note Name: C5, Velocity: 46
Note OFF: Time 5520, Note Name: C5
Note ON: Time 5520, Note Name: A4, Velocity: 55
Note OFF: Time 5600, Note Name: A4
Note ON: Time 5600, Note Name: A#4, Velocity: 46
Note OFF: Time 5680, Note Name: A#4
Note ON: Time 5680, Note Name: G#4, Velocity: 46
Note OFF: Time 5720, Note Name: G#4
Note ON: Time 5760, Note Name: A#3, Velocity: 34
Note ON: Time 5760, Note Name: E4, Velocity: 40
Note ON: Time 5760, Note Name: G4, Velocity: 40
Note ON: Time 5760, Note Name: C#4, Velocity: 34
Note OFF: Time 6240, Note Name: C#4
Note OFF: Time 6240, Note Name: A#3
Note OFF: Time 6240, Note Name: E4
Note OFF: Time 6240, Note Name: G4
Note ON: Time 6240, Note Name: D4, Velocity: 33
Note ON: Time 6240, Note Name: F4, Velocity: 39
Note ON: Time 6240, Note Name: G#3, Velocity: 33
Note OFF: Time 6720, Note Name: G#3
Note OFF: Time 6720, Note Name: F4
Note OFF: Time 6720, Note Name: D4
Note ON: Time 6720, Note Name: F#3, Velocity: 33
Note ON: Time 6720, Note Name: D#4, Velocity: 39
Note OFF: Time 7440, Note Name: D#4
Note OFF: Time 7440, Note Name: F#3
Note ON: Time 7440, Note Name: F#4, Velocity: 44
Note ON: Time 7440, Note Name: D#4, Velocity: 34
Note OFF: Time 7620, Note Name: F#4
Note ON: Time 7620, Note Name: B4, Velocity: 37
Note OFF: Time 7680, Note Name: B4
Note OFF: Time 7680, Note Name: D#4
Note ON: Time 7680, Note Name: B4, Velocity: 44
Note ON: Time 7680, Note Name: E4, Velocity: 34
Note OFF: Time 7920, Note Name: E4
Note OFF: Time 7920, Note Name: B4
Note ON: Time 7920, Note Name: E4, Velocity: 34
Note ON: Time 7920, Note Name: A#4, Velocity: 46
Note OFF: Time 8100, Note Name: A#4
Note ON: Time 8100, Note Name: E5, Velocity: 44
Note OFF: Time 8160, Note Name: E5
Note OFF: Time 8160, Note Name: E4
Note ON: Time 8160, Note Name: D#5, Velocity: 50
Note ON: Time 8160, Note Name: D#4, Velocity: 34
Note OFF: Time 8400, Note Name: D#4
Note OFF: Time 8400, Note Name: D#5
Note ON: Time 8400, Note Name: D#5, Velocity: 55
Note OFF: Time 8460, Note Name: D#5
Note ON: Time 8460, Note Name: F5, Velocity: 48
Note OFF: Time 8480, Note Name: F5
Note ON: Time 8480, Note Name: D#5, Velocity: 48
Note OFF: Time 8500, Note Name: D#5
Note ON: Time 8500, Note Name: D5, Velocity: 48
Note OFF: Time 8520, Note Name: D5
Note ON: Time 8520, Note Name: D#5, Velocity: 55
Note OFF: Time 8580, Note Name: D#5
Note ON: Time 8580, Note Name: F5, Velocity: 48
Note OFF: Time 8640, Note Name: F5
Note ON: Time 8640, Note Name: F#5, Velocity: 58
Note ON: Time 8640, Note Name: C5, Velocity: 37
Note OFF: Time 8880, Note Name: C5
Note ON: Time 8880, Note Name: C5, Velocity: 44
Note OFF: Time 9000, Note Name: F#5
Note ON: Time 9000, Note Name: D#5, Velocity: 49
Note OFF: Time 9120, Note Name: D#5
Note OFF: Time 9120, Note Name: C5
Note ON: Time 9120, Note Name: D5, Velocity: 46
Note ON: Time 9120, Note Name: A#4, Velocity: 37
Note OFF: Time 9360, Note Name: A#4
Note OFF: Time 9360, Note Name: D5
Note ON: Time 9360, Note Name: A#4, Velocity: 37
Note ON: Time 9360, Note Name: C#5, Velocity: 55
Note OFF: Time 9420, Note Name: C#5
Note ON: Time 9420, Note Name: D#5, Velocity: 48
Note OFF: Time 9440, Note Name: D#5
Note ON: Time 9440, Note Name: C#5, Velocity: 48
Note OFF: Time 9460, Note Name: C#5
Note ON: Time 9460, Note Name: C5, Velocity: 48
Note OFF: Time 9480, Note Name: C5
Note ON: Time 9480, Note Name: C#5, Velocity: 55
Note OFF: Time 9540, Note Name: C#5
Note ON: Time 9540, Note Name: D#5, Velocity: 48
Note OFF: Time 9600, Note Name: D#5
Note ON: Time 9600, Note Name: E5, Velocity: 58
Note OFF: Time 9840, Note Name: A#4
Note ON: Time 9840, Note Name: A#4, Velocity: 44
Note OFF: Time 9960, Note Name: E5
Note ON: Time 9960, Note Name: D#5, Velocity: 49
Note OFF: Time 10020, Note Name: D#5
Note ON: Time 10020, Note Name: C#5, Velocity: 44
Note OFF: Time 10080, Note Name: C#5
Note OFF: Time 10080, Note Name: A#4
Note ON: Time 10080, Note Name: B4, Velocity: 46
Note ON: Time 10080, Note Name: G#4, Velocity: 37
Note OFF: Time 10320, Note Name: G#4
Note OFF: Time 10320, Note Name: B4
Note ON: Time 10320, Note Name: D#4, Velocity: 42
Note ON: Time 10320, Note Name: D#5, Velocity: 55
Note ON: Time 10320, Note Name: A#4, Velocity: 42
Note OFF: Time 10560, Note Name: A#4
Note OFF: Time 10560, Note Name: D#5
Note OFF: Time 10560, Note Name: D#4
Note ON: Time 10560, Note Name: D5, Velocity: 51
Note ON: Time 10560, Note Name: G#4, Velocity: 39
Note ON: Time 10560, Note Name: D4, Velocity: 39
Note ON: Time 10560, Note Name: A#4, Velocity: 39
Note OFF: Time 10800, Note Name: A#4
Note OFF: Time 10800, Note Name: D5
Note OFF: Time 10800, Note Name: G#4
Note OFF: Time 10800, Note Name: D4
Note ON: Time 11160, Note Name: D4, Velocity: 32
Note ON: Time 11160, Note Name: A#4, Velocity: 38
Note ON: Time 11160, Note Name: D5, Velocity: 45
Note ON: Time 11160, Note Name: G#4, Velocity: 32
Note OFF: Time 11279, Note Name: G#4
Note OFF: Time 11279, Note Name: D4
Note OFF: Time 11279, Note Name: A#4
Note OFF: Time 11279, Note Name: D5
Note ON: Time 11280, Note Name: A#4, Velocity: 39
Note ON: Time 11280, Note Name: D#4, Velocity: 33
Note ON: Time 11280, Note Name: F#4, Velocity: 33
Note ON: Time 11280, Note Name: D#5, Velocity: 47
Note OFF: Time 11399, Note Name: D#5
Note OFF: Time 11399, Note Name: A#4
Note OFF: Time 11399, Note Name: D#4
Note OFF: Time 11399, Note Name: F#4
Note ON: Time 11400, Note Name: F#4, Velocity: 30
Note ON: Time 11400, Note Name: D#5, Velocity: 43
Note ON: Time 11400, Note Name: A#4, Velocity: 36
Note ON: Time 11400, Note Name: D#4, Velocity: 30
Note OFF: Time 11519, Note Name: D#4
Note OFF: Time 11519, Note Name: F#4
Note OFF: Time 11519, Note Name: D#5
Note OFF: Time 11519, Note Name: A#4
Note ON: Time 11520, Note Name: F5, Velocity: 55
Note ON: Time 11520, Note Name: F4, Velocity: 39
Note ON: Time 11520, Note Name: A#4, Velocity: 46
Note OFF: Time 11760, Note Name: A#4
Note OFF: Time 11760, Note Name: F4
Note OFF: Time 11760, Note Name: F5
Note ON: Time 12120, Note Name: D5, Velocity: 45
Note ON: Time 12120, Note Name: A#4, Velocity: 38
Note OFF: Time 12239, Note Name: A#4
Note OFF: Time 12239, Note Name: D5
Note ON: Time 12240, Note Name: A#4, Velocity: 39
Note ON: Time 12240, Note Name: D#5, Velocity: 47
Note OFF: Time 12359, Note Name: D#5
Note OFF: Time 12359, Note Name: A#4
Note ON: Time 12360, Note Name: D#5, Velocity: 43
Note ON: Time 12360, Note Name: A#4, Velocity: 36
Note OFF: Time 12479, Note Name: A#4
Note OFF: Time 12479, Note Name: D#5
Note ON: Time 12480, Note Name: F5, Velocity: 55
Note ON: Time 12480, Note Name: A#4, Velocity: 46
Note OFF: Time 12720, Note Name: A#4
Note OFF: Time 12720, Note Name: F5
Note ON: Time 13080, Note Name: A#4, Velocity: 41
Note ON: Time 13080, Note Name: F5, Velocity: 49
Note OFF: Time 13199, Note Name: F5
Note OFF: Time 13199, Note Name: A#4
Note ON: Time 13200, Note Name: G5, Velocity: 54
Note ON: Time 13200, Note Name: A#4, Velocity: 44
Note OFF: Time 13319, Note Name: A#4
Note OFF: Time 13319, Note Name: G5
Note ON: Time 13320, Note Name: G#4, Velocity: 42
Note ON: Time 13320, Note Name: G#5, Velocity: 51
Note OFF: Time 13439, Note Name: G#5
Note OFF: Time 13439, Note Name: G#4
Note ON: Time 13440, Note Name: G#4, Velocity: 46
Note ON: Time 13440, Note Name: G#5, Velocity: 55
Note OFF: Time 13680, Note Name: G#5
Note OFF: Time 13680, Note Name: G#4
Note ON: Time 14040, Note Name: F5, Velocity: 49
Note ON: Time 14040, Note Name: A#4, Velocity: 41
Note OFF: Time 14159, Note Name: A#4
Note OFF: Time 14159, Note Name: F5
Note ON: Time 14160, Note Name: G5, Velocity: 54
Note ON: Time 14160, Note Name: A#4, Velocity: 44
Note OFF: Time 14279, Note Name: A#4
Note OFF: Time 14279, Note Name: G5
Note ON: Time 14280, Note Name: G#5, Velocity: 51
Note ON: Time 14280, Note Name: G#4, Velocity: 42
Note OFF: Time 14399, Note Name: G#4
Note OFF: Time 14399, Note Name: G#5
Note ON: Time 14640, Note Name: G#5, Velocity: 44
Note ON: Time 14640, Note Name: G#4, Velocity: 36
Note OFF: Time 14880, Note Name: G#4
Note OFF: Time 14880, Note Name: G#5
Note ON: Time 15120, Note Name: G#4, Velocity: 36
Note ON: Time 15120, Note Name: G#5, Velocity: 44
Note OFF: Time 15360, Note Name: G#5
Note OFF: Time 15360, Note Name: G#4
Note ON: Time 15360, Note Name: G#5, Velocity: 77
Note ON: Time 15360, Note Name: G#4, Velocity: 64
Note OFF: Time 16080, Note Name: G#4
Note OFF: Time 16080, Note Name: G#5
Note ON: Time 16080, Note Name: G4, Velocity: 59
Note ON: Time 16080, Note Name: D5, Velocity: 70
Note OFF: Time 16200, Note Name: D5
Note ON: Time 16200, Note Name: G5, Velocity: 67
Note OFF: Time 16260, Note Name: G5
Note OFF: Time 16320, Note Name: G4
Note ON: Time 16320, Note Name: G4, Velocity: 59
Note ON: Time 16320, Note Name: G5, Velocity: 70
Note OFF: Time 16560, Note Name: G5
Note OFF: Time 16560, Note Name: G4
Note ON: Time 16560, Note Name: C5, Velocity: 70
Note ON: Time 16560, Note Name: F4, Velocity: 59
Note OFF: Time 16680, Note Name: C5
Note ON: Time 16680, Note Name: F5, Velocity: 67
Note OFF: Time 16740, Note Name: F5
Note OFF: Time 16800, Note Name: F4
Note ON: Time 16800, Note Name: F4, Velocity: 59
Note ON: Time 16800, Note Name: F5, Velocity: 70
Note OFF: Time 17040, Note Name: F5
Note OFF: Time 17040, Note Name: F4
Note ON: Time 17040, Note Name: A#4, Velocity: 70
Note ON: Time 17040, Note Name: D#4, Velocity: 59
Note OFF: Time 17160, Note Name: A#4
Note ON: Time 17160, Note Name: D#5, Velocity: 67
Note OFF: Time 17220, Note Name: D#5
Note OFF: Time 17280, Note Name: D#4
Note ON: Time 17280, Note Name: G#4, Velocity: 59
Note ON: Time 17280, Note Name: D#4, Velocity: 59
Note ON: Time 17280, Note Name: D#5, Velocity: 70
Note ON: Time 17280, Note Name: A#4, Velocity: 59
Note OFF: Time 17760, Note Name: D#5
Note OFF: Time 17760, Note Name: D#4
Note ON: Time 17760, Note Name: D5, Velocity: 59
Note ON: Time 17760, Note Name: D4, Velocity: 50
Note OFF: Time 18000, Note Name: D4
Note OFF: Time 18000, Note Name: A#4
Note OFF: Time 18000, Note Name: G#4
Note OFF: Time 18000, Note Name: D5
Note ON: Time 18000, Note Name: D#5, Velocity: 59
Note ON: Time 18000, Note Name: A#4, Velocity: 50
Note ON: Time 18000, Note Name: D#4, Velocity: 50
Note OFF: Time 18240, Note Name: D#4
Note OFF: Time 18240, Note Name: A#4
Note OFF: Time 18240, Note Name: D#5
Note ON: Time 18240, Note Name: F4, Velocity: 48
Note ON: Time 18240, Note Name: A#4, Velocity: 48
Note ON: Time 18240, Note Name: F5, Velocity: 57
Note OFF: Time 18480, Note Name: F5
Note OFF: Time 18480, Note Name: A#4
Note OFF: Time 18480, Note Name: F4
Note ON: Time 18480, Note Name: G4, Velocity: 51
Note ON: Time 18480, Note Name: A#4, Velocity: 51
Note ON: Time 18480, Note Name: G5, Velocity: 60
Note OFF: Time 18720, Note Name: G5
Note OFF: Time 18720, Note Name: A#4
Note OFF: Time 18720, Note Name: G4
Note ON: Time 18720, Note Name: A#4, Velocity: 54
Note ON: Time 18720, Note Name: G#5, Velocity: 64
Note ON: Time 18720, Note Name: G#4, Velocity: 54
Note OFF: Time 18960, Note Name: G#4
Note OFF: Time 18960, Note Name: G#5
Note OFF: Time 18960, Note Name: A#4
Note ON: Time 18960, Note Name: A#4, Velocity: 57
Note ON: Time 18960, Note Name: A#5, Velocity: 68
Note OFF: Time 19200, Note Name: A#5
Note OFF: Time 19200, Note Name: A#4
Note ON: Time 19200, Note Name: G4, Velocity: 66
Note ON: Time 19200, Note Name: A#4, Velocity: 66
Note ON: Time 19200, Note Name: A#5, Velocity: 78
Note OFF: Time 19440, Note Name: A#5
Note OFF: Time 19440, Note Name: A#4
Note OFF: Time 19440, Note Name: G4
Note ON: Time 19680, Note Name: A#5, Velocity: 81
Note ON: Time 19680, Note Name: A#4, Velocity: 69
Note OFF: Time 19920, Note Name: A#4
Note OFF: Time 19920, Note Name: A#5
Note ON: Time 20160, Note Name: A#5, Velocity: 78
Note ON: Time 20160, Note Name: A#6, Velocity: 93
Note OFF: Time 20880, Note Name: A#6
Note OFF: Time 20880, Note Name: A#5
Note ON: Time 20880, Note Name: A#5, Velocity: 65
Note ON: Time 20880, Note Name: A#4, Velocity: 55
Note OFF: Time 21840, Note Name: A#4
Note OFF: Time 21840, Note Name: A#5
Note ON: Time 21840, Note Name: G4, Velocity: 62
Note ON: Time 21840, Note Name: G5, Velocity: 62
Note OFF: Time 22080, Note Name: G5
Note OFF: Time 22080, Note Name: G4
Note ON: Time 22080, Note Name: F5, Velocity: 65
Note ON: Time 22080, Note Name: F4, Velocity: 55
Note OFF: Time 22320, Note Name: F4
Note OFF: Time 22320, Note Name: F5
Note ON: Time 22320, Note Name: D5, Velocity: 57
Note ON: Time 22320, Note Name: D4, Velocity: 48
Note OFF: Time 22560, Note Name: D4
Note OFF: Time 22560, Note Name: D5
Note ON: Time 22560, Note Name: B4, Velocity: 57
Note ON: Time 22560, Note Name: B3, Velocity: 48
Note OFF: Time 22800, Note Name: B3
Note OFF: Time 22800, Note Name: B4
Note ON: Time 22800, Note Name: A#4, Velocity: 56
Note ON: Time 22800, Note Name: A#3, Velocity: 47
Note OFF: Time 23038, Note Name: A#3
Note OFF: Time 23038, Note Name: A#4
Note ON: Time 23040, Note Name: A#4, Velocity: 78
Note ON: Time 23040, Note Name: A#3, Velocity: 66
Note OFF: Time 23280, Note Name: A#3
Note OFF: Time 23280, Note Name: A#4
Note ON: Time 23520, Note Name: A#5, Velocity: 81
Note ON: Time 23520, Note Name: A#4, Velocity: 69
Note OFF: Time 23760, Note Name: A#4
Note OFF: Time 23760, Note Name: A#5
Note ON: Time 24000, Note Name: A#5, Velocity: 78
Note ON: Time 24000, Note Name: A#6, Velocity: 93
Note OFF: Time 24720, Note Name: A#6
Note OFF: Time 24720, Note Name: A#5
Note ON: Time 24720, Note Name: A#4, Velocity: 55
Note ON: Time 24720, Note Name: A#5, Velocity: 65
Note OFF: Time 25680, Note Name: A#5
Note OFF: Time 25680, Note Name: A#4
Note ON: Time 25680, Note Name: G4, Velocity: 62
Note ON: Time 25680, Note Name: G5, Velocity: 62
Note OFF: Time 25920, Note Name: G5
Note OFF: Time 25920, Note Name: G4
Note ON: Time 25920, Note Name: E4, Velocity: 55
Note ON: Time 25920, Note Name: E5, Velocity: 65
Note OFF: Time 26160, Note Name: E5
Note OFF: Time 26160, Note Name: E4
Note ON: Time 26160, Note Name: F5, Velocity: 57
Note ON: Time 26160, Note Name: F4, Velocity: 48
Note OFF: Time 26400, Note Name: F4
Note OFF: Time 26400, Note Name: F5
Note ON: Time 26400, Note Name: C5, Velocity: 57
Note ON: Time 26400, Note Name: C4, Velocity: 48
Note OFF: Time 26640, Note Name: C4
Note OFF: Time 26640, Note Name: C5
Note ON: Time 26640, Note Name: D#4, Velocity: 47
Note ON: Time 26640, Note Name: D#5, Velocity: 56
Note OFF: Time 26880, Note Name: D#5
Note OFF: Time 26880, Note Name: D#4
Note ON: Time 26880, Note Name: D5, Velocity: 56
Note ON: Time 26880, Note Name: D4, Velocity: 56
Note OFF: Time 27000, Note Name: D4
Note OFF: Time 27000, Note Name: D5
Note ON: Time 27000, Note Name: A#4, Velocity: 49
Note OFF: Time 27120, Note Name: A#4
Note ON: Time 27120, Note Name: A4, Velocity: 51
Note OFF: Time 27240, Note Name: A4
Note ON: Time 27240, Note Name: A#4, Velocity: 53
Note OFF: Time 27360, Note Name: A#4
Note ON: Time 27360, Note Name: C5, Velocity: 55
Note ON: Time 27360, Note Name: A4, Velocity: 46
Note OFF: Time 27480, Note Name: A4
Note OFF: Time 27480, Note Name: C5
Note ON: Time 27480, Note Name: A#4, Velocity: 48
Note ON: Time 27480, Note Name: D5, Velocity: 57
Note OFF: Time 27600, Note Name: D5
Note OFF: Time 27600, Note Name: A#4
Note ON: Time 27600, Note Name: C5, Velocity: 50
Note ON: Time 27600, Note Name: D#5, Velocity: 59
Note OFF: Time 27720, Note Name: D#5
Note OFF: Time 27720, Note Name: C5
Note ON: Time 27720, Note Name: D5, Velocity: 51
Note ON: Time 27720, Note Name: F5, Velocity: 61
Note OFF: Time 27840, Note Name: F5
Note OFF: Time 27840, Note Name: D5
Note ON: Time 27840, Note Name: D#5, Velocity: 53
Note ON: Time 27840, Note Name: G5, Velocity: 63
Note OFF: Time 28320, Note Name: G5
Note OFF: Time 28320, Note Name: D#5
Note ON: Time 28320, Note Name: C6, Velocity: 62
Note ON: Time 28320, Note Name: G#5, Velocity: 52
Note OFF: Time 28440, Note Name: G#5
Note OFF: Time 28440, Note Name: C6
Note ON: Time 28440, Note Name: A#5, Velocity: 59
Note ON: Time 28440, Note Name: G5, Velocity: 50
Note OFF: Time 28560, Note Name: G5
Note OFF: Time 28560, Note Name: A#5
Note ON: Time 28560, Note Name: F5, Velocity: 47
Note ON: Time 28560, Note Name: G#5, Velocity: 56
Note OFF: Time 28680, Note Name: G#5
Note OFF: Time 28680, Note Name: F5
Note ON: Time 28680, Note Name: G5, Velocity: 53
Note ON: Time 28680, Note Name: D#5, Velocity: 45
Note OFF: Time 28800, Note Name: D#5
Note OFF: Time 28800, Note Name: G5
Note ON: Time 28800, Note Name: F5, Velocity: 61
Note ON: Time 28800, Note Name: D5, Velocity: 51
Note OFF: Time 29040, Note Name: D5
Note OFF: Time 29040, Note Name: F5
Note ON: Time 29280, Note Name: C7, Velocity: 68
Note ON: Time 29280, Note Name: G#6, Velocity: 57
Note OFF: Time 29400, Note Name: G#6
Note OFF: Time 29400, Note Name: C7
Note ON: Time 29400, Note Name: A#6, Velocity: 64
Note ON: Time 29400, Note Name: G6, Velocity: 55
Note OFF: Time 29520, Note Name: G6
Note OFF: Time 29520, Note Name: A#6
Note ON: Time 29520, Note Name: F6, Velocity: 51
Note ON: Time 29520, Note Name: G#6, Velocity: 61
Note OFF: Time 29640, Note Name: G#6
Note OFF: Time 29640, Note Name: F6
Note ON: Time 29640, Note Name: G6, Velocity: 58
Note ON: Time 29640, Note Name: D#6, Velocity: 49
Note OFF: Time 29760, Note Name: D#6
Note OFF: Time 29760, Note Name: G6
Note ON: Time 29760, Note Name: F6, Velocity: 67
Note ON: Time 29760, Note Name: D6, Velocity: 56
Note OFF: Time 30000, Note Name: D6
Note OFF: Time 30000, Note Name: F6
Note ON: Time 30000, Note Name: C6, Velocity: 68
Note ON: Time 30000, Note Name: D5, Velocity: 57
Note OFF: Time 30120, Note Name: D5
Note OFF: Time 30120, Note Name: C6
Note ON: Time 30120, Note Name: A#5, Velocity: 67
Note ON: Time 30120, Note Name: D#5, Velocity: 56
Note OFF: Time 30240, Note Name: D#5
Note OFF: Time 30240, Note Name: A#5
Note ON: Time 30240, Note Name: B4, Velocity: 56
Note ON: Time 30240, Note Name: G#5, Velocity: 67
Note OFF: Time 30360, Note Name: G#5
Note OFF: Time 30360, Note Name: B4
Note ON: Time 30360, Note Name: G5, Velocity: 66
Note ON: Time 30360, Note Name: C5, Velocity: 56
Note OFF: Time 30480, Note Name: C5
Note OFF: Time 30480, Note Name: G5
Note ON: Time 30480, Note Name: G4, Velocity: 55
Note ON: Time 30480, Note Name: F5, Velocity: 64
Note OFF: Time 30570, Note Name: F5
Note OFF: Time 30570, Note Name: G4
Note ON: Time 30600, Note Name: D#5, Velocity: 53
Note ON: Time 30600, Note Name: F#5, Velocity: 63
Note OFF: Time 30690, Note Name: F#5
Note OFF: Time 30690, Note Name: D#5
Note ON: Time 30720, Note Name: G5, Velocity: 61
Note ON: Time 30720, Note Name: D5, Velocity: 51
Note OFF: Time 30810, Note Name: D5
Note OFF: Time 30810, Note Name: G5
Note ON: Time 30840, Note Name: D5, Velocity: 55
Note ON: Time 30840, Note Name: F#5, Velocity: 55
Note ON: Time 30840, Note Name: A5, Velocity: 64
Note OFF: Time 30930, Note Name: A5
Note OFF: Time 30930, Note Name: F#5
Note OFF: Time 30930, Note Name: D5
Note ON: Time 30960, Note Name: D5, Velocity: 57
Note ON: Time 30960, Note Name: G5, Velocity: 57
Note ON: Time 30960, Note Name: B5, Velocity: 68
Note OFF: Time 31050, Note Name: B5
Note OFF: Time 31050, Note Name: G5
Note OFF: Time 31050, Note Name: D5
Note ON: Time 31080, Note Name: D5, Velocity: 60
Note ON: Time 31080, Note Name: B5, Velocity: 71
Note ON: Time 31080, Note Name: G5, Velocity: 60
Note OFF: Time 31170, Note Name: G5
Note OFF: Time 31170, Note Name: B5
Note OFF: Time 31170, Note Name: D5
Note ON: Time 31200, Note Name: D#5, Velocity: 63
Note ON: Time 31200, Note Name: G5, Velocity: 63
Note ON: Time 31200, Note Name: C6, Velocity: 75
Note OFF: Time 31290, Note Name: C6
Note OFF: Time 31290, Note Name: G5
Note OFF: Time 31290, Note Name: D#5
Note ON: Time 31320, Note Name: F5, Velocity: 67
Note ON: Time 31320, Note Name: B5, Velocity: 67
Note ON: Time 31320, Note Name: D6, Velocity: 79
Note OFF: Time 31410, Note Name: D6
Note OFF: Time 31410, Note Name: B5
Note OFF: Time 31410, Note Name: F5
Note ON: Time 31440, Note Name: G5, Velocity: 69
Note ON: Time 31440, Note Name: C6, Velocity: 69
Note ON: Time 31440, Note Name: D#6, Velocity: 82
Note OFF: Time 31530, Note Name: D#6
Note OFF: Time 31530, Note Name: C6
Note OFF: Time 31530, Note Name: G5
Note ON: Time 31560, Note Name: E6, Velocity: 85
Note ON: Time 31560, Note Name: C6, Velocity: 72
Note ON: Time 31560, Note Name: G5, Velocity: 72
Note OFF: Time 31650, Note Name: G5
Note OFF: Time 31650, Note Name: C6
Note OFF: Time 31650, Note Name: E6
Note ON: Time 31680, Note Name: E6, Velocity: 89
Note ON: Time 31680, Note Name: C6, Velocity: 74
Note ON: Time 31680, Note Name: G5, Velocity: 74
Note OFF: Time 31800, Note Name: G5
Note OFF: Time 31800, Note Name: C6
Note OFF: Time 31800, Note Name: E6
Note ON: Time 32160, Note Name: F6, Velocity: 92
Note ON: Time 32160, Note Name: F5, Velocity: 92
Note ON: Time 32160, Note Name: C6, Velocity: 92
Note OFF: Time 32280, Note Name: C6
Note OFF: Time 32280, Note Name: F5
Note OFF: Time 32280, Note Name: F6
Note ON: Time 32640, Note Name: A#4, Velocity: 65
Note ON: Time 32640, Note Name: D#5, Velocity: 84
Note OFF: Time 33360, Note Name: D#5
Note ON: Time 33360, Note Name: F5, Velocity: 85
Note OFF: Time 33480, Note Name: F5
Note ON: Time 33600, Note Name: F#5, Velocity: 93
Note OFF: Time 33840, Note Name: A#4
Note ON: Time 33840, Note Name: A#4, Velocity: 61
Note OFF: Time 33960, Note Name: A#4
Note ON: Time 33960, Note Name: A4, Velocity: 52
Note OFF: Time 34080, Note Name: A4
Note ON: Time 34080, Note Name: A#4, Velocity: 61
Note OFF: Time 34200, Note Name: A#4
Note ON: Time 34200, Note Name: A4, Velocity: 54
Note OFF: Time 34320, Note Name: A4
Note ON: Time 34320, Note Name: A#4, Velocity: 61
Note OFF: Time 34440, Note Name: A#4
Note ON: Time 34440, Note Name: A4, Velocity: 54
Note OFF: Time 34560, Note Name: A4
Note OFF: Time 34560, Note Name: F#5
Note ON: Time 34560, Note Name: A#4, Velocity: 65
Note ON: Time 34560, Note Name: D#5, Velocity: 84
Note OFF: Time 35280, Note Name: D#5
Note ON: Time 35280, Note Name: F5, Velocity: 85
Note OFF: Time 35400, Note Name: F5
Note ON: Time 35520, Note Name: G5, Velocity: 93
Note OFF: Time 35760, Note Name: A#4
Note ON: Time 35760, Note Name: A#4, Velocity: 61
Note OFF: Time 35880, Note Name: A#4
Note ON: Time 35880, Note Name: A4, Velocity: 52
Note OFF: Time 36000, Note Name: A4
Note ON: Time 36000, Note Name: A#4, Velocity: 61
Note OFF: Time 36120, Note Name: A#4
Note ON: Time 36120, Note Name: A4, Velocity: 54
Note OFF: Time 36240, Note Name: A4
Note ON: Time 36240, Note Name: A#4, Velocity: 61
Note OFF: Time 36360, Note Name: A#4
Note ON: Time 36360, Note Name: A4, Velocity: 54
Note OFF: Time 36480, Note Name: A4
Note OFF: Time 36480, Note Name: G5
Note ON: Time 36480, Note Name: F#5, Velocity: 70
Note OFF: Time 36720, Note Name: F#5
Note ON: Time 36720, Note Name: A#4, Velocity: 51
Note OFF: Time 36840, Note Name: A#4
Note ON: Time 36840, Note Name: A4, Velocity: 44
Note OFF: Time 36960, Note Name: A4
Note ON: Time 36960, Note Name: A#4, Velocity: 51
Note OFF: Time 37080, Note Name: A#4
Note ON: Time 37080, Note Name: A4, Velocity: 43
Note OFF: Time 37200, Note Name: A4
Note ON: Time 37200, Note Name: A#4, Velocity: 51
Note OFF: Time 37320, Note Name: A#4
Note ON: Time 37320, Note Name: A4, Velocity: 45
Note OFF: Time 37440, Note Name: A4
Note ON: Time 37440, Note Name: F5, Velocity: 70
Note OFF: Time 37680, Note Name: F5
Note ON: Time 37680, Note Name: C5, Velocity: 51
Note OFF: Time 37800, Note Name: C5
Note ON: Time 37800, Note Name: B4, Velocity: 44
Note OFF: Time 37920, Note Name: B4
Note ON: Time 37920, Note Name: C5, Velocity: 51
Note OFF: Time 38040, Note Name: C5
Note ON: Time 38040, Note Name: B4, Velocity: 43
Note OFF: Time 38160, Note Name: B4
Note ON: Time 38160, Note Name: C5, Velocity: 51
Note OFF: Time 38280, Note Name: C5
Note ON: Time 38280, Note Name: B4, Velocity: 45
Note OFF: Time 38400, Note Name: B4
Note ON: Time 38400, Note Name: F5, Velocity: 70
Note OFF: Time 38520, Note Name: F5
Note ON: Time 38640, Note Name: D5, Velocity: 51
Note OFF: Time 38760, Note Name: D5
Note ON: Time 38760, Note Name: C5, Velocity: 44
Note OFF: Time 38880, Note Name: C5
Note ON: Time 38880, Note Name: F5, Velocity: 70
Note OFF: Time 39000, Note Name: F5
Note ON: Time 39120, Note Name: C5, Velocity: 51
Note OFF: Time 39240, Note Name: C5
Note ON: Time 39240, Note Name: A#4, Velocity: 44
Note OFF: Time 39360, Note Name: A#4
Note ON: Time 39360, Note Name: F5, Velocity: 70
Note OFF: Time 39480, Note Name: F5
Note ON: Time 39600, Note Name: A#4, Velocity: 51
Note OFF: Time 39720, Note Name: A#4
Note ON: Time 39720, Note Name: A4, Velocity: 44
Note OFF: Time 39840, Note Name: A4
Note ON: Time 39840, Note Name: F5, Velocity: 70
Note OFF: Time 39960, Note Name: F5
Note ON: Time 40080, Note Name: C5, Velocity: 51
Note OFF: Time 40200, Note Name: C5
Note ON: Time 40200, Note Name: A#4, Velocity: 44
Note OFF: Time 40320, Note Name: A#4
Note ON: Time 40320, Note Name: F#5, Velocity: 70
Note OFF: Time 40560, Note Name: F#5
Note ON: Time 40560, Note Name: A#4, Velocity: 51
Note OFF: Time 40680, Note Name: A#4
Note ON: Time 40680, Note Name: A4, Velocity: 44
Note OFF: Time 40800, Note Name: A4
Note ON: Time 40800, Note Name: A#4, Velocity: 51
Note OFF: Time 40920, Note Name: A#4
Note ON: Time 40920, Note Name: A4, Velocity: 43
Note OFF: Time 41040, Note Name: A4
Note ON: Time 41040, Note Name: A#4, Velocity: 51
Note OFF: Time 41160, Note Name: A#4
Note ON: Time 41160, Note Name: A4, Velocity: 45
Note OFF: Time 41280, Note Name: A4
Note ON: Time 41280, Note Name: F5, Velocity: 70
Note OFF: Time 41520, Note Name: F5
Note ON: Time 41520, Note Name: C5, Velocity: 51
Note OFF: Time 41640, Note Name: C5
Note ON: Time 41640, Note Name: B4, Velocity: 44
Note OFF: Time 41760, Note Name: B4
Note ON: Time 41760, Note Name: C5, Velocity: 51
Note OFF: Time 41880, Note Name: C5
Note ON: Time 41880, Note Name: B4, Velocity: 43
Note OFF: Time 42000, Note Name: B4
Note ON: Time 42000, Note Name: C5, Velocity: 51
Note OFF: Time 42120, Note Name: C5
Note ON: Time 42120, Note Name: B4, Velocity: 45
Note OFF: Time 42240, Note Name: B4
Note ON: Time 42240, Note Name: F5, Velocity: 70
Note OFF: Time 42360, Note Name: F5
Note ON: Time 42480, Note Name: D5, Velocity: 51
Note OFF: Time 42600, Note Name: D5
Note ON: Time 42600, Note Name: C5, Velocity: 44
Note OFF: Time 42720, Note Name: C5
Note ON: Time 42720, Note Name: F5, Velocity: 70
Note OFF: Time 42840, Note Name: F5
Note ON: Time 42960, Note Name: C5, Velocity: 51
Note OFF: Time 43080, Note Name: C5
Note ON: Time 43080, Note Name: B4, Velocity: 44
Note OFF: Time 43200, Note Name: B4
Note ON: Time 43200, Note Name: F5, Velocity: 70
Note OFF: Time 43320, Note Name: F5
Note ON: Time 43440, Note Name: D5, Velocity: 51
Note OFF: Time 43560, Note Name: D5
Note ON: Time 43560, Note Name: C5, Velocity: 44
Note OFF: Time 43680, Note Name: C5
Note ON: Time 43680, Note Name: F5, Velocity: 64
Note OFF: Time 43920, Note Name: F5
Note ON: Time 43920, Note Name: C5, Velocity: 59
Note ON: Time 43920, Note Name: D#5, Velocity: 70
Note ON: Time 44160, Note Name: F4, Velocity: 45
Note OFF: Time 44400, Note Name: D#5
Note OFF: Time 44400, Note Name: C5
Note ON: Time 44400, Note Name: D5, Velocity: 65
Note ON: Time 44400, Note Name: A#4, Velocity: 55
Note OFF: Time 44640, Note Name: A#4
Note OFF: Time 44640, Note Name: D5
Note OFF: Time 44640, Note Name: F4
Note ON: Time 44640, Note Name: C5, Velocity: 65
Note ON: Time 44640, Note Name: A4, Velocity: 55
Note OFF: Time 44880, Note Name: A4
Note OFF: Time 44880, Note Name: C5
Note ON: Time 44880, Note Name: C6, Velocity: 59
Note ON: Time 44880, Note Name: D#6, Velocity: 70
Note ON: Time 45120, Note Name: F5, Velocity: 45
Note OFF: Time 45360, Note Name: D#6
Note OFF: Time 45360, Note Name: C6
Note ON: Time 45360, Note Name: A#5, Velocity: 55
Note ON: Time 45360, Note Name: D6, Velocity: 65
Note OFF: Time 45600, Note Name: D6
Note OFF: Time 45600, Note Name: A#5
Note OFF: Time 45600, Note Name: F5
Note ON: Time 45600, Note Name: C6, Velocity: 65
Note ON: Time 45600, Note Name: A5, Velocity: 55
Note OFF: Time 45840, Note Name: A5
Note OFF: Time 45840, Note Name: C6
Note ON: Time 45840, Note Name: G6, Velocity: 77
Note ON: Time 45840, Note Name: C6, Velocity: 64
Note ON: Time 45840, Note Name: A5, Velocity: 64
Note OFF: Time 46080, Note Name: A5
Note OFF: Time 46080, Note Name: C6
Note ON: Time 46080, Note Name: F5, Velocity: 65
Note ON: Time 46080, Note Name: A#5, Velocity: 65
Note OFF: Time 46320, Note Name: A#5
Note OFF: Time 46320, Note Name: F5
Note OFF: Time 46320, Note Name: G6
Note ON: Time 46320, Note Name: F5, Velocity: 63
Note ON: Time 46320, Note Name: F6, Velocity: 75
Note ON: Time 46320, Note Name: A#5, Velocity: 63
Note OFF: Time 46560, Note Name: A#5
Note OFF: Time 46560, Note Name: F6
Note OFF: Time 46560, Note Name: F5
Note ON: Time 46560, Note Name: G5, Velocity: 69
Note ON: Time 46560, Note Name: A#5, Velocity: 69
Note OFF: Time 46800, Note Name: A#5
Note OFF: Time 46800, Note Name: G5
Note ON: Time 46800, Note Name: D#6, Velocity: 79
Note ON: Time 46800, Note Name: C6, Velocity: 67
Note ON: Time 46800, Note Name: A5, Velocity: 67
Note OFF: Time 47040, Note Name: A5
Note OFF: Time 47040, Note Name: C6
Note OFF: Time 47040, Note Name: D#6
Note ON: Time 47040, Note Name: D6, Velocity: 88
Note ON: Time 47160, Note Name: F5, Velocity: 49
Note OFF: Time 47280, Note Name: F5
Note ON: Time 47280, Note Name: G5, Velocity: 55
Note OFF: Time 47400, Note Name: G5
Note ON: Time 47400, Note Name: F5, Velocity: 50
Note OFF: Time 47520, Note Name: F5
Note ON: Time 47520, Note Name: G5, Velocity: 55
Note OFF: Time 47640, Note Name: G5
Note ON: Time 47640, Note Name: F5, Velocity: 47
Note OFF: Time 47760, Note Name: F5
Note ON: Time 47760, Note Name: G5, Velocity: 55
Note OFF: Time 47880, Note Name: G5
Note ON: Time 47880, Note Name: F5, Velocity: 48
Note OFF: Time 48000, Note Name: F5
Note OFF: Time 48000, Note Name: D6
Note ON: Time 48000, Note Name: C6, Velocity: 80
Note ON: Time 48120, Note Name: D#5, Velocity: 46
Note OFF: Time 48240, Note Name: D#5
Note ON: Time 48240, Note Name: F5, Velocity: 54
Note OFF: Time 48360, Note Name: F5
Note ON: Time 48360, Note Name: D#5, Velocity: 50
Note OFF: Time 48480, Note Name: D#5
Note ON: Time 48480, Note Name: F5, Velocity: 53
Note OFF: Time 48600, Note Name: F5
Note ON: Time 48600, Note Name: D#5, Velocity: 47
Note OFF: Time 48720, Note Name: D#5
Note ON: Time 48720, Note Name: F5, Velocity: 53
Note OFF: Time 48840, Note Name: F5
Note ON: Time 48840, Note Name: D#5, Velocity: 48
Note OFF: Time 48960, Note Name: D#5
Note OFF: Time 48960, Note Name: C6
Note ON: Time 48960, Note Name: A#5, Velocity: 70
Note ON: Time 48960, Note Name: D5, Velocity: 53
Note OFF: Time 49080, Note Name: D5
Note ON: Time 49080, Note Name: A#4, Velocity: 48
Note OFF: Time 49200, Note Name: A#4
Note ON: Time 49200, Note Name: C5, Velocity: 53
Note OFF: Time 49320, Note Name: C5
Note ON: Time 49320, Note Name: A#4, Velocity: 48
Note OFF: Time 49440, Note Name: A#4
Note OFF: Time 49440, Note Name: A#5
Note ON: Time 49440, Note Name: G5, Velocity: 68
Note ON: Time 49560, Note Name: A#4, Velocity: 48
Note OFF: Time 49680, Note Name: A#4
Note OFF: Time 49680, Note Name: G5
Note ON: Time 49680, Note Name: F5, Velocity: 60
Note ON: Time 49800, Note Name: A#4, Velocity: 48
Note OFF: Time 49920, Note Name: A#4
Note OFF: Time 49920, Note Name: F5
Note ON: Time 49920, Note Name: F5, Velocity: 68
Note ON: Time 49920, Note Name: A#4, Velocity: 53
Note OFF: Time 50040, Note Name: A#4
Note ON: Time 50040, Note Name: F4, Velocity: 48
Note OFF: Time 50160, Note Name: F4
Note OFF: Time 50160, Note Name: F5
Note ON: Time 50160, Note Name: A4, Velocity: 53
Note ON: Time 50160, Note Name: D#5, Velocity: 58
Note OFF: Time 50280, Note Name: A4
Note ON: Time 50280, Note Name: F4, Velocity: 48
Note OFF: Time 50400, Note Name: F4
Note OFF: Time 50400, Note Name: D#5
Note ON: Time 50400, Note Name: A#4, Velocity: 53
Note ON: Time 50400, Note Name: D5, Velocity: 66
Note OFF: Time 50520, Note Name: A#4
Note ON: Time 50520, Note Name: F4, Velocity: 48
Note OFF: Time 50640, Note Name: F4
Note OFF: Time 50640, Note Name: D5
Note ON: Time 50640, Note Name: C5, Velocity: 57
Note ON: Time 50760, Note Name: F4, Velocity: 48
Note OFF: Time 50880, Note Name: F4
Note OFF: Time 50880, Note Name: C5
Note ON: Time 50880, Note Name: D5, Velocity: 79
Note ON: Time 51000, Note Name: F4, Velocity: 44
Note OFF: Time 51120, Note Name: F4
Note ON: Time 51120, Note Name: G4, Velocity: 49
Note OFF: Time 51240, Note Name: G4
Note ON: Time 51240, Note Name: F4, Velocity: 45
Note OFF: Time 51360, Note Name: F4
Note ON: Time 51360, Note Name: G4, Velocity: 49
Note OFF: Time 51480, Note Name: G4
Note ON: Time 51480, Note Name: F4, Velocity: 42
Note OFF: Time 51600, Note Name: F4
Note ON: Time 51600, Note Name: G4, Velocity: 49
Note OFF: Time 51720, Note Name: G4
Note ON: Time 51720, Note Name: F4, Velocity: 43
Note OFF: Time 51840, Note Name: F4
Note OFF: Time 51840, Note Name: D5
Note ON: Time 51840, Note Name: C5, Velocity: 72
Note ON: Time 51960, Note Name: D#4, Velocity: 41
Note OFF: Time 52080, Note Name: D#4
Note ON: Time 52080, Note Name: F4, Velocity: 48
Note OFF: Time 52200, Note Name: F4
Note ON: Time 52200, Note Name: D#4, Velocity: 45
Note OFF: Time 52320, Note Name: D#4
Note ON: Time 52320, Note Name: F4, Velocity: 47
Note OFF: Time 52440, Note Name: F4
Note ON: Time 52440, Note Name: D#4, Velocity: 42
Note OFF: Time 52560, Note Name: D#4
Note ON: Time 52560, Note Name: F4, Velocity: 47
Note OFF: Time 52680, Note Name: F4
Note ON: Time 52680, Note Name: D#4, Velocity: 43
Note OFF: Time 52800, Note Name: D#4
Note OFF: Time 52800, Note Name: C5
Note ON: Time 52800, Note Name: A#4, Velocity: 63
Note ON: Time 52800, Note Name: D4, Velocity: 47
Note OFF: Time 52920, Note Name: D4
Note ON: Time 52920, Note Name: A#3, Velocity: 43
Note OFF: Time 53040, Note Name: A#3
Note ON: Time 53040, Note Name: C4, Velocity: 47
Note OFF: Time 53160, Note Name: C4
Note ON: Time 53160, Note Name: A#3, Velocity: 43
Note OFF: Time 53280, Note Name: A#3
Note OFF: Time 53280, Note Name: A#4
Note ON: Time 53280, Note Name: G4, Velocity: 61
Note ON: Time 53400, Note Name: A#3, Velocity: 43
Note OFF: Time 53520, Note Name: A#3
Note OFF: Time 53520, Note Name: G4
Note ON: Time 53520, Note Name: F4, Velocity: 54
Note ON: Time 53640, Note Name: A#3, Velocity: 43
Note OFF: Time 53760, Note Name: A#3
Note OFF: Time 53760, Note Name: F4
Note ON: Time 53760, Note Name: A#3, Velocity: 47
Note ON: Time 53760, Note Name: F4, Velocity: 61
Note OFF: Time 53880, Note Name: A#3
Note ON: Time 53880, Note Name: F3, Velocity: 43
Note OFF: Time 54000, Note Name: F3
Note OFF: Time 54000, Note Name: F4
Note ON: Time 54000, Note Name: D#4, Velocity: 52
Note ON: Time 54000, Note Name: A3, Velocity: 47
Note OFF: Time 54120, Note Name: A3
Note ON: Time 54120, Note Name: F3, Velocity: 43
Note OFF: Time 54240, Note Name: F3
Note OFF: Time 54240, Note Name: D#4
Note ON: Time 54240, Note Name: A#3, Velocity: 47
Note ON: Time 54240, Note Name: D4, Velocity: 59
Note OFF: Time 54360, Note Name: A#3
Note ON: Time 54360, Note Name: F3, Velocity: 43
Note OFF: Time 54480, Note Name: F3
Note OFF: Time 54480, Note Name: D4
Note ON: Time 54480, Note Name: C4, Velocity: 51
Note ON: Time 54600, Note Name: F3, Velocity: 43
Note OFF: Time 54720, Note Name: F3
Note OFF: Time 54720, Note Name: C4
Note ON: Time 54720, Note Name: A#3, Velocity: 57
Note ON: Time 54840, Note Name: F#3, Velocity: 46
Note ON: Time 54960, Note Name: D3, Velocity: 55
Note OFF: Time 55200, Note Name: D3
Note OFF: Time 55200, Note Name: F#3
Note OFF: Time 55320, Note Name: A#3
Note ON: Time 55330, Note Name: F3, Velocity: 47
Note ON: Time 55440, Note Name: D3, Velocity: 47
Note OFF: Time 55450, Note Name: F3
Note OFF: Time 55560, Note Name: D3
Note ON: Time 55560, Note Name: A#3, Velocity: 47
Note OFF: Time 55800, Note Name: A#3
Note ON: Time 55800, Note Name: A#3, Velocity: 47
Note OFF: Time 55920, Note Name: A#3
Note ON: Time 55920, Note Name: A3, Velocity: 51
Note OFF: Time 56040, Note Name: A3
Note ON: Time 56040, Note Name: A#3, Velocity: 49
Note OFF: Time 56160, Note Name: A#3
Note ON: Time 56160, Note Name: C4, Velocity: 52
Note OFF: Time 56280, Note Name: C4
Note ON: Time 56280, Note Name: D4, Velocity: 44
Note OFF: Time 56400, Note Name: D4
Note ON: Time 56400, Note Name: D#4, Velocity: 51
Note OFF: Time 56520, Note Name: D#4
Note ON: Time 56520, Note Name: C4, Velocity: 47
Note OFF: Time 56640, Note Name: C4
Note ON: Time 56640, Note Name: A#4, Velocity: 57
Note ON: Time 56760, Note Name: F#4, Velocity: 46
Note ON: Time 56880, Note Name: D4, Velocity: 55
Note OFF: Time 57120, Note Name: D4
Note OFF: Time 57120, Note Name: F#4
Note OFF: Time 57240, Note Name: A#4
Note ON: Time 57250, Note Name: F4, Velocity: 47
Note ON: Time 57360, Note Name: D4, Velocity: 47
Note OFF: Time 57370, Note Name: F4
Note OFF: Time 57480, Note Name: D4
Note ON: Time 57480, Note Name: A#4, Velocity: 47
Note ON: Time 57600, Note Name: F4, Velocity: 47
Note OFF: Time 57720, Note Name: A#4
Note ON: Time 57720, Note Name: A#4, Velocity: 47
Note OFF: Time 57840, Note Name: A#4
Note ON: Time 57840, Note Name: A4, Velocity: 51
Note OFF: Time 57960, Note Name: A4
Note ON: Time 57960, Note Name: A#4, Velocity: 49
Note OFF: Time 58080, Note Name: A#4
Note OFF: Time 58080, Note Name: F4
Note ON: Time 58080, Note Name: C5, Velocity: 52
Note OFF: Time 58200, Note Name: C5
Note ON: Time 58200, Note Name: D5, Velocity: 44
Note OFF: Time 58320, Note Name: D5
Note ON: Time 58320, Note Name: D#5, Velocity: 51
Note OFF: Time 58440, Note Name: D#5
Note ON: Time 58440, Note Name: C5, Velocity: 47
Note OFF: Time 58560, Note Name: C5
Note ON: Time 58560, Note Name: D5, Velocity: 51
Note OFF: Time 58680, Note Name: D5
Note ON: Time 58680, Note Name: C5, Velocity: 42
Note OFF: Time 58800, Note Name: C5
Note ON: Time 58800, Note Name: A#4, Velocity: 49
Note OFF: Time 59160, Note Name: A#4
Note ON: Time 59160, Note Name: G4, Velocity: 41
Note OFF: Time 59280, Note Name: G4
Note ON: Time 59280, Note Name: F4, Velocity: 48
Note OFF: Time 59640, Note Name: F4
Note ON: Time 59640, Note Name: D#4, Velocity: 42
Note OFF: Time 59760, Note Name: D#4
Note ON: Time 59760, Note Name: D4, Velocity: 48
Note OFF: Time 60120, Note Name: D4
Note ON: Time 60120, Note Name: C4, Velocity: 42
Note OFF: Time 60240, Note Name: C4
Note ON: Time 60240, Note Name: A#3, Velocity: 47
Note OFF: Time 60600, Note Name: A#3
Note ON: Time 60600, Note Name: G3, Velocity: 41
Note OFF: Time 60720, Note Name: G3
Note ON: Time 60720, Note Name: F3, Velocity: 47
Note OFF: Time 61080, Note Name: F3
Note ON: Time 61080, Note Name: D#3, Velocity: 38
Note OFF: Time 61200, Note Name: D#3
Note ON: Time 61200, Note Name: D3, Velocity: 43
Note OFF: Time 61560, Note Name: D3
Note ON: Time 61560, Note Name: C3, Velocity: 37
Note OFF: Time 61680, Note Name: C3
Note ON: Time 61680, Note Name: A#2, Velocity: 44
Note OFF: Time 62040, Note Name: A#2
Note ON: Time 62040, Note Name: C3, Velocity: 36
Note OFF: Time 62160, Note Name: C3
Note ON: Time 62160, Note Name: A#2, Velocity: 41
Note OFF: Time 62640, Note Name: A#2
Note ON: Time 64320, Note Name: A#4, Velocity: 45
Note ON: Time 64320, Note Name: F5, Velocity: 53
Note OFF: Time 65280, Note Name: F5
Note OFF: Time 65280, Note Name: A#4
Note ON: Time 65280, Note Name: A#4, Velocity: 43
Note ON: Time 65280, Note Name: G5, Velocity: 51
Note OFF: Time 66240, Note Name: G5
Note OFF: Time 66240, Note Name: A#4
Note ON: Time 66240, Note Name: G#5, Velocity: 77
Note ON: Time 66240, Note Name: G#4, Velocity: 64
Note OFF: Time 66960, Note Name: G#4
Note OFF: Time 66960, Note Name: G#5
Note ON: Time 66960, Note Name: G4, Velocity: 59
Note ON: Time 66960, Note Name: D5, Velocity: 70
Note OFF: Time 67080, Note Name: D5
Note ON: Time 67080, Note Name: G5, Velocity: 67
Note OFF: Time 67140, Note Name: G5
Note OFF: Time 67200, Note Name: G4
Note ON: Time 67200, Note Name: G5, Velocity: 70
Note ON: Time 67200, Note Name: G4, Velocity: 59
Note OFF: Time 67440, Note Name: G4
Note OFF: Time 67440, Note Name: G5
Note ON: Time 67440, Note Name: C5, Velocity: 70
Note ON: Time 67440, Note Name: F4, Velocity: 59
Note OFF: Time 67560, Note Name: C5
Note ON: Time 67560, Note Name: F5, Velocity: 67
Note OFF: Time 67620, Note Name: F5
Note OFF: Time 67680, Note Name: F4
Note ON: Time 67680, Note Name: F5, Velocity: 70
Note ON: Time 67680, Note Name: F4, Velocity: 59
Note OFF: Time 67920, Note Name: F4
Note OFF: Time 67920, Note Name: F5
Note ON: Time 67920, Note Name: D#4, Velocity: 59
Note ON: Time 67920, Note Name: A#4, Velocity: 70
Note OFF: Time 68040, Note Name: A#4
Note ON: Time 68040, Note Name: D#5, Velocity: 67
Note OFF: Time 68100, Note Name: D#5
Note OFF: Time 68160, Note Name: D#4
Note ON: Time 68160, Note Name: D#4, Velocity: 59
Note ON: Time 68160, Note Name: A#4, Velocity: 59
Note ON: Time 68160, Note Name: G#4, Velocity: 59
Note ON: Time 68160, Note Name: D#5, Velocity: 70
Note OFF: Time 68640, Note Name: D#5
Note OFF: Time 68640, Note Name: D#4
Note ON: Time 68640, Note Name: D5, Velocity: 59
Note ON: Time 68640, Note Name: D4, Velocity: 50
Note OFF: Time 68880, Note Name: D4
Note OFF: Time 68880, Note Name: A#4
Note OFF: Time 68880, Note Name: G#4
Note OFF: Time 68880, Note Name: D5
Note ON: Time 68880, Note Name: D#5, Velocity: 59
Note ON: Time 68880, Note Name: A#4, Velocity: 50
Note ON: Time 68880, Note Name: D#4, Velocity: 50
Note OFF: Time 69120, Note Name: D#4
Note OFF: Time 69120, Note Name: A#4
Note OFF: Time 69120, Note Name: D#5
Note ON: Time 69120, Note Name: A#4, Velocity: 48
Note ON: Time 69120, Note Name: F4, Velocity: 48
Note ON: Time 69120, Note Name: F5, Velocity: 57
Note OFF: Time 69360, Note Name: F5
Note OFF: Time 69360, Note Name: F4
Note OFF: Time 69360, Note Name: A#4
Note ON: Time 69360, Note Name: A#4, Velocity: 51
Note ON: Time 69360, Note Name: G5, Velocity: 60
Note ON: Time 69360, Note Name: G4, Velocity: 51
Note OFF: Time 69600, Note Name: G4
Note OFF: Time 69600, Note Name: G5
Note OFF: Time 69600, Note Name: A#4
Note ON: Time 69600, Note Name: G#4, Velocity: 54
Note ON: Time 69600, Note Name: A#4, Velocity: 54
Note ON: Time 69600, Note Name: G#5, Velocity: 64
Note OFF: Time 69840, Note Name: G#5
Note OFF: Time 69840, Note Name: A#4
Note OFF: Time 69840, Note Name: G#4
Note ON: Time 69840, Note Name: A#4, Velocity: 57
Note ON: Time 69840, Note Name: A#5, Velocity: 68
Note OFF: Time 70080, Note Name: A#5
Note OFF: Time 70080, Note Name: A#4
Note ON: Time 70080, Note Name: A#4, Velocity: 66
Note ON: Time 70080, Note Name: A#5, Velocity: 78
Note ON: Time 70080, Note Name: G4, Velocity: 66
Note OFF: Time 70320, Note Name: G4
Note OFF: Time 70320, Note Name: A#5
Note OFF: Time 70320, Note Name: A#4
Note ON: Time 70560, Note Name: A#5, Velocity: 81
Note ON: Time 70560, Note Name: A#4, Velocity: 69
Note OFF: Time 70800, Note Name: A#4
Note OFF: Time 70800, Note Name: A#5
Note ON: Time 71040, Note Name: A#5, Velocity: 78
Note ON: Time 71040, Note Name: A#6, Velocity: 93
Note OFF: Time 71760, Note Name: A#6
Note OFF: Time 71760, Note Name: A#5
Note ON: Time 71760, Note Name: A#5, Velocity: 65
Note ON: Time 71760, Note Name: A#4, Velocity: 55
Note OFF: Time 72720, Note Name: A#4
Note OFF: Time 72720, Note Name: A#5
Note ON: Time 72720, Note Name: G4, Velocity: 62
Note ON: Time 72720, Note Name: G5, Velocity: 62
Note OFF: Time 72960, Note Name: G5
Note OFF: Time 72960, Note Name: G4
Note ON: Time 72960, Note Name: F5, Velocity: 65
Note ON: Time 72960, Note Name: F4, Velocity: 55
Note OFF: Time 73200, Note Name: F4
Note OFF: Time 73200, Note Name: F5
Note ON: Time 73200, Note Name: D5, Velocity: 57
Note ON: Time 73200, Note Name: D4, Velocity: 48
Note OFF: Time 73440, Note Name: D4
Note OFF: Time 73440, Note Name: D5
Note ON: Time 73440, Note Name: B4, Velocity: 57
Note ON: Time 73440, Note Name: B3, Velocity: 48
Note OFF: Time 73680, Note Name: B3
Note OFF: Time 73680, Note Name: B4
Note ON: Time 73680, Note Name: A#3, Velocity: 47
Note ON: Time 73680, Note Name: A#4, Velocity: 56
Note OFF: Time 73920, Note Name: A#4
Note OFF: Time 73920, Note Name: A#3
Note ON: Time 73920, Note Name: A#3, Velocity: 66
Note ON: Time 73920, Note Name: A#4, Velocity: 78
Note OFF: Time 74160, Note Name: A#4
Note OFF: Time 74160, Note Name: A#3
Note ON: Time 74400, Note Name: A#5, Velocity: 81
Note ON: Time 74400, Note Name: A#4, Velocity: 69
Note OFF: Time 74640, Note Name: A#4
Note OFF: Time 74640, Note Name: A#5
Note ON: Time 74880, Note Name: A#5, Velocity: 78
Note ON: Time 74880, Note Name: A#6, Velocity: 93
Note OFF: Time 75600, Note Name: A#6
Note OFF: Time 75600, Note Name: A#5
Note ON: Time 75600, Note Name: A#5, Velocity: 65
Note ON: Time 75600, Note Name: A#4, Velocity: 55
Note OFF: Time 76560, Note Name: A#4
Note OFF: Time 76560, Note Name: A#5
Note ON: Time 76560, Note Name: G5, Velocity: 62
Note ON: Time 76560, Note Name: G4, Velocity: 62
Note OFF: Time 76800, Note Name: G4
Note OFF: Time 76800, Note Name: G5
Note ON: Time 76800, Note Name: E4, Velocity: 55
Note ON: Time 76800, Note Name: E5, Velocity: 65
Note OFF: Time 77040, Note Name: E5
Note OFF: Time 77040, Note Name: E4
Note ON: Time 77040, Note Name: F4, Velocity: 48
Note ON: Time 77040, Note Name: F5, Velocity: 57
Note OFF: Time 77280, Note Name: F5
Note OFF: Time 77280, Note Name: F4
Note ON: Time 77280, Note Name: C5, Velocity: 57
Note ON: Time 77280, Note Name: C4, Velocity: 48
Note OFF: Time 77520, Note Name: C4
Note OFF: Time 77520, Note Name: C5
Note ON: Time 77520, Note Name: D#4, Velocity: 47
Note ON: Time 77520, Note Name: D#5, Velocity: 56
Note OFF: Time 77760, Note Name: D#5
Note OFF: Time 77760, Note Name: D#4
Note ON: Time 77760, Note Name: D4, Velocity: 56
Note ON: Time 77760, Note Name: D5, Velocity: 56
Note OFF: Time 77880, Note Name: D5
Note OFF: Time 77880, Note Name: D4
Note ON: Time 77880, Note Name: A#4, Velocity: 49
Note OFF: Time 78000, Note Name: A#4
Note ON: Time 78000, Note Name: A4, Velocity: 51
Note OFF: Time 78120, Note Name: A4
Note ON: Time 78120, Note Name: A#4, Velocity: 53
Note OFF: Time 78240, Note Name: A#4
Note ON: Time 78240, Note Name: C5, Velocity: 55
Note ON: Time 78240, Note Name: A4, Velocity: 46
Note OFF: Time 78360, Note Name: A4
Note OFF: Time 78360, Note Name: C5
Note ON: Time 78360, Note Name: D5, Velocity: 57
Note ON: Time 78360, Note Name: A#4, Velocity: 48
Note OFF: Time 78480, Note Name: A#4
Note OFF: Time 78480, Note Name: D5
Note ON: Time 78480, Note Name: C5, Velocity: 50
Note ON: Time 78480, Note Name: D#5, Velocity: 59
Note OFF: Time 78600, Note Name: D#5
Note OFF: Time 78600, Note Name: C5
Note ON: Time 78600, Note Name: F5, Velocity: 61
Note ON: Time 78600, Note Name: D5, Velocity: 51
Note OFF: Time 78720, Note Name: D5
Note OFF: Time 78720, Note Name: F5
Note ON: Time 78720, Note Name: G5, Velocity: 63
Note ON: Time 78720, Note Name: D#5, Velocity: 53
Note OFF: Time 79200, Note Name: D#5
Note OFF: Time 79200, Note Name: G5
Note ON: Time 79200, Note Name: C6, Velocity: 62
Note ON: Time 79200, Note Name: G#5, Velocity: 52
Note OFF: Time 79320, Note Name: G#5
Note OFF: Time 79320, Note Name: C6
Note ON: Time 79320, Note Name: G5, Velocity: 50
Note ON: Time 79320, Note Name: A#5, Velocity: 59
Note OFF: Time 79440, Note Name: A#5
Note OFF: Time 79440, Note Name: G5
Note ON: Time 79440, Note Name: F5, Velocity: 47
Note ON: Time 79440, Note Name: G#5, Velocity: 56
Note OFF: Time 79560, Note Name: G#5
Note OFF: Time 79560, Note Name: F5
Note ON: Time 79560, Note Name: D#5, Velocity: 45
Note ON: Time 79560, Note Name: G5, Velocity: 53
Note OFF: Time 79680, Note Name: G5
Note OFF: Time 79680, Note Name: D#5
Note ON: Time 79680, Note Name: F5, Velocity: 61
Note ON: Time 79680, Note Name: D5, Velocity: 51
Note OFF: Time 79920, Note Name: D5
Note OFF: Time 79920, Note Name: F5
Note ON: Time 80160, Note Name: C7, Velocity: 68
Note ON: Time 80160, Note Name: G#6, Velocity: 57
Note OFF: Time 80280, Note Name: G#6
Note OFF: Time 80280, Note Name: C7
Note ON: Time 80280, Note Name: A#6, Velocity: 64
Note ON: Time 80280, Note Name: G6, Velocity: 55
Note OFF: Time 80400, Note Name: G6
Note OFF: Time 80400, Note Name: A#6
Note ON: Time 80400, Note Name: F6, Velocity: 51
Note ON: Time 80400, Note Name: G#6, Velocity: 61
Note OFF: Time 80520, Note Name: G#6
Note OFF: Time 80520, Note Name: F6
Note ON: Time 80520, Note Name: D#6, Velocity: 49
Note ON: Time 80520, Note Name: G6, Velocity: 58
Note OFF: Time 80640, Note Name: G6
Note OFF: Time 80640, Note Name: D#6
Note ON: Time 80640, Note Name: F6, Velocity: 67
Note ON: Time 80640, Note Name: D6, Velocity: 56
Note OFF: Time 80880, Note Name: D6
Note OFF: Time 80880, Note Name: F6
Note ON: Time 80880, Note Name: C6, Velocity: 68
Note ON: Time 80880, Note Name: D5, Velocity: 57
Note OFF: Time 81000, Note Name: D5
Note OFF: Time 81000, Note Name: C6
Note ON: Time 81000, Note Name: D#5, Velocity: 56
Note ON: Time 81000, Note Name: A#5, Velocity: 67
Note OFF: Time 81120, Note Name: A#5
Note OFF: Time 81120, Note Name: D#5
Note ON: Time 81120, Note Name: G#5, Velocity: 67
Note ON: Time 81120, Note Name: B4, Velocity: 56
Note OFF: Time 81240, Note Name: B4
Note OFF: Time 81240, Note Name: G#5
Note ON: Time 81240, Note Name: G5, Velocity: 66
Note ON: Time 81240, Note Name: C5, Velocity: 56
Note OFF: Time 81360, Note Name: C5
Note OFF: Time 81360, Note Name: G5
Note ON: Time 81360, Note Name: G4, Velocity: 55
Note ON: Time 81360, Note Name: F5, Velocity: 64
Note OFF: Time 81450, Note Name: F5
Note OFF: Time 81450, Note Name: G4
Note ON: Time 81480, Note Name: D#5, Velocity: 53
Note ON: Time 81480, Note Name: F#5, Velocity: 63
Note OFF: Time 81570, Note Name: F#5
Note OFF: Time 81570, Note Name: D#5
Note ON: Time 81600, Note Name: G5, Velocity: 61
Note ON: Time 81600, Note Name: D5, Velocity: 51
Note OFF: Time 81690, Note Name: D5
Note OFF: Time 81690, Note Name: G5
Note ON: Time 81720, Note Name: A5, Velocity: 64
Note ON: Time 81720, Note Name: D5, Velocity: 55
Note ON: Time 81720, Note Name: F#5, Velocity: 55
Note OFF: Time 81810, Note Name: F#5
Note OFF: Time 81810, Note Name: D5
Note OFF: Time 81810, Note Name: A5
Note ON: Time 81840, Note Name: D5, Velocity: 57
Note ON: Time 81840, Note Name: G5, Velocity: 57
Note ON: Time 81840, Note Name: B5, Velocity: 68
Note OFF: Time 81930, Note Name: B5
Note OFF: Time 81930, Note Name: G5
Note OFF: Time 81930, Note Name: D5
Note ON: Time 81960, Note Name: B5, Velocity: 71
Note ON: Time 81960, Note Name: D5, Velocity: 60
Note ON: Time 81960, Note Name: G5, Velocity: 60
Note OFF: Time 82050, Note Name: G5
Note OFF: Time 82050, Note Name: D5
Note OFF: Time 82050, Note Name: B5
Note ON: Time 82080, Note Name: C6, Velocity: 75
Note ON: Time 82080, Note Name: G5, Velocity: 63
Note ON: Time 82080, Note Name: D#5, Velocity: 63
Note OFF: Time 82170, Note Name: D#5
Note OFF: Time 82170, Note Name: G5
Note OFF: Time 82170, Note Name: C6
Note ON: Time 82200, Note Name: F5, Velocity: 67
Note ON: Time 82200, Note Name: D6, Velocity: 79
Note ON: Time 82200, Note Name: B5, Velocity: 67
Note OFF: Time 82290, Note Name: B5
Note OFF: Time 82290, Note Name: D6
Note OFF: Time 82290, Note Name: F5
Note ON: Time 82320, Note Name: C6, Velocity: 69
Note ON: Time 82320, Note Name: D#6, Velocity: 82
Note ON: Time 82320, Note Name: G5, Velocity: 69
Note OFF: Time 82410, Note Name: G5
Note OFF: Time 82410, Note Name: D#6
Note OFF: Time 82410, Note Name: C6
Note ON: Time 82440, Note Name: G5, Velocity: 72
Note ON: Time 82440, Note Name: C6, Velocity: 72
Note ON: Time 82440, Note Name: E6, Velocity: 85
Note OFF: Time 82530, Note Name: E6
Note OFF: Time 82530, Note Name: C6
Note OFF: Time 82530, Note Name: G5
Note ON: Time 82560, Note Name: E6, Velocity: 89
Note ON: Time 82560, Note Name: G5, Velocity: 74
Note ON: Time 82560, Note Name: C6, Velocity: 74
Note OFF: Time 82680, Note Name: C6
Note OFF: Time 82680, Note Name: G5
Note OFF: Time 82680, Note Name: E6
Note ON: Time 83040, Note Name: C6, Velocity: 92
Note ON: Time 83040, Note Name: F5, Velocity: 92
Note ON: Time 83040, Note Name: F6, Velocity: 92
Note OFF: Time 83160, Note Name: F6
Note OFF: Time 83160, Note Name: F5
Note OFF: Time 83160, Note Name: C6
Note ON: Time 83520, Note Name: D#5, Velocity: 84
Note ON: Time 83520, Note Name: A#4, Velocity: 65
Note OFF: Time 84240, Note Name: D#5
Note ON: Time 84240, Note Name: F5, Velocity: 85
Note OFF: Time 84360, Note Name: F5
Note ON: Time 84480, Note Name: F#5, Velocity: 93
Note OFF: Time 84720, Note Name: A#4
Note ON: Time 84720, Note Name: A#4, Velocity: 61
Note OFF: Time 84840, Note Name: A#4
Note ON: Time 84840, Note Name: A4, Velocity: 52
Note OFF: Time 84960, Note Name: A4
Note ON: Time 84960, Note Name: A#4, Velocity: 61
Note OFF: Time 85080, Note Name: A#4
Note ON: Time 85080, Note Name: A4, Velocity: 54
Note OFF: Time 85200, Note Name: A4
Note ON: Time 85200, Note Name: A#4, Velocity: 61
Note OFF: Time 85320, Note Name: A#4
Note ON: Time 85320, Note Name: A4, Velocity: 54
Note OFF: Time 85440, Note Name: A4
Note OFF: Time 85440, Note Name: F#5
Note ON: Time 85440, Note Name: D#5, Velocity: 84
Note ON: Time 85440, Note Name: A#4, Velocity: 65
Note OFF: Time 86160, Note Name: D#5
Note ON: Time 86160, Note Name: F5, Velocity: 85
Note OFF: Time 86280, Note Name: F5
Note ON: Time 86400, Note Name: G5, Velocity: 93
Note OFF: Time 86640, Note Name: A#4
Note ON: Time 86640, Note Name: A#4, Velocity: 61
Note OFF: Time 86760, Note Name: A#4
Note ON: Time 86760, Note Name: A4, Velocity: 52
Note OFF: Time 86880, Note Name: A4
Note ON: Time 86880, Note Name: A#4, Velocity: 61
Note OFF: Time 87000, Note Name: A#4
Note ON: Time 87000, Note Name: A4, Velocity: 54
Note OFF: Time 87120, Note Name: A4
Note ON: Time 87120, Note Name: A#4, Velocity: 61
Note OFF: Time 87240, Note Name: A#4
Note ON: Time 87240, Note Name: A4, Velocity: 54
Note OFF: Time 87360, Note Name: A4
Note OFF: Time 87360, Note Name: G5
Note ON: Time 87360, Note Name: F#5, Velocity: 70
Note OFF: Time 87600, Note Name: F#5
Note ON: Time 87600, Note Name: A#4, Velocity: 51
Note OFF: Time 87720, Note Name: A#4
Note ON: Time 87720, Note Name: A4, Velocity: 44
Note OFF: Time 87840, Note Name: A4
Note ON: Time 87840, Note Name: A#4, Velocity: 51
Note OFF: Time 87960, Note Name: A#4
Note ON: Time 87960, Note Name: A4, Velocity: 43
Note OFF: Time 88080, Note Name: A4
Note ON: Time 88080, Note Name: A#4, Velocity: 51
Note OFF: Time 88200, Note Name: A#4
Note ON: Time 88200, Note Name: A4, Velocity: 45
Note OFF: Time 88320, Note Name: A4
Note ON: Time 88320, Note Name: F5, Velocity: 70
Note OFF: Time 88560, Note Name: F5
Note ON: Time 88560, Note Name: C5, Velocity: 51
Note OFF: Time 88680, Note Name: C5
Note ON: Time 88680, Note Name: B4, Velocity: 44
Note OFF: Time 88800, Note Name: B4
Note ON: Time 88800, Note Name: C5, Velocity: 51
Note OFF: Time 88920, Note Name: C5
Note ON: Time 88920, Note Name: B4, Velocity: 43
Note OFF: Time 89040, Note Name: B4
Note ON: Time 89040, Note Name: C5, Velocity: 51
Note OFF: Time 89160, Note Name: C5
Note ON: Time 89160, Note Name: B4, Velocity: 45
Note OFF: Time 89280, Note Name: B4
Note ON: Time 89280, Note Name: F5, Velocity: 70
Note OFF: Time 89400, Note Name: F5
Note ON: Time 89520, Note Name: D5, Velocity: 51
Note OFF: Time 89640, Note Name: D5
Note ON: Time 89640, Note Name: C5, Velocity: 44
Note OFF: Time 89760, Note Name: C5
Note ON: Time 89760, Note Name: F5, Velocity: 70
Note OFF: Time 89880, Note Name: F5
Note ON: Time 90000, Note Name: C5, Velocity: 51
Note OFF: Time 90120, Note Name: C5
Note ON: Time 90120, Note Name: A#4, Velocity: 44
Note OFF: Time 90240, Note Name: A#4
Note ON: Time 90240, Note Name: F5, Velocity: 70
Note OFF: Time 90360, Note Name: F5
Note ON: Time 90480, Note Name: A#4, Velocity: 51
Note OFF: Time 90600, Note Name: A#4
Note ON: Time 90600, Note Name: A4, Velocity: 44
Note OFF: Time 90720, Note Name: A4
Note ON: Time 90720, Note Name: F5, Velocity: 70
Note OFF: Time 90840, Note Name: F5
Note ON: Time 90960, Note Name: C5, Velocity: 51
Note OFF: Time 91080, Note Name: C5
Note ON: Time 91080, Note Name: A#4, Velocity: 44
Note OFF: Time 91200, Note Name: A#4
Note ON: Time 91200, Note Name: F#5, Velocity: 70
Note OFF: Time 91440, Note Name: F#5
Note ON: Time 91440, Note Name: A#4, Velocity: 51
Note OFF: Time 91560, Note Name: A#4
Note ON: Time 91560, Note Name: A4, Velocity: 44
Note OFF: Time 91680, Note Name: A4
Note ON: Time 91680, Note Name: A#4, Velocity: 51
Note OFF: Time 91800, Note Name: A#4
Note ON: Time 91800, Note Name: A4, Velocity: 43
Note OFF: Time 91920, Note Name: A4
Note ON: Time 91920, Note Name: A#4, Velocity: 51
Note OFF: Time 92040, Note Name: A#4
Note ON: Time 92040, Note Name: A4, Velocity: 45
Note OFF: Time 92160, Note Name: A4
Note ON: Time 92160, Note Name: F5, Velocity: 70
Note OFF: Time 92400, Note Name: F5
Note ON: Time 92400, Note Name: C5, Velocity: 51
Note OFF: Time 92520, Note Name: C5
Note ON: Time 92520, Note Name: B4, Velocity: 44
Note OFF: Time 92640, Note Name: B4
Note ON: Time 92640, Note Name: C5, Velocity: 51
Note OFF: Time 92760, Note Name: C5
Note ON: Time 92760, Note Name: B4, Velocity: 43
Note OFF: Time 92880, Note Name: B4
Note ON: Time 92880, Note Name: C5, Velocity: 51
Note OFF: Time 93000, Note Name: C5
Note ON: Time 93000, Note Name: B4, Velocity: 45
Note OFF: Time 93120, Note Name: B4
Note ON: Time 93120, Note Name: F5, Velocity: 70
Note OFF: Time 93240, Note Name: F5
Note ON: Time 93360, Note Name: D5, Velocity: 51
Note OFF: Time 93480, Note Name: D5
Note ON: Time 93480, Note Name: C5, Velocity: 44
Note OFF: Time 93600, Note Name: C5
Note ON: Time 93600, Note Name: F5, Velocity: 70
Note OFF: Time 93720, Note Name: F5
Note ON: Time 93840, Note Name: C5, Velocity: 51
Note OFF: Time 93960, Note Name: C5
Note ON: Time 93960, Note Name: B4, Velocity: 44
Note OFF: Time 94080, Note Name: B4
Note ON: Time 94080, Note Name: F5, Velocity: 70
Note OFF: Time 94200, Note Name: F5
Note ON: Time 94320, Note Name: D5, Velocity: 51
Note OFF: Time 94440, Note Name: D5
Note ON: Time 94440, Note Name: C5, Velocity: 44
Note OFF: Time 94560, Note Name: C5
Note ON: Time 94560, Note Name: F5, Velocity: 64
Note OFF: Time 94800, Note Name: F5
Note ON: Time 94800, Note Name: C5, Velocity: 59
Note ON: Time 94800, Note Name: D#5, Velocity: 70
Note ON: Time 95040, Note Name: F4, Velocity: 45
Note OFF: Time 95280, Note Name: D#5
Note OFF: Time 95280, Note Name: C5
Note ON: Time 95280, Note Name: D5, Velocity: 65
Note ON: Time 95280, Note Name: A#4, Velocity: 55
Note OFF: Time 95520, Note Name: A#4
Note OFF: Time 95520, Note Name: D5
Note OFF: Time 95520, Note Name: F4
Note ON: Time 95520, Note Name: C5, Velocity: 65
Note ON: Time 95520, Note Name: A4, Velocity: 55
Note OFF: Time 95760, Note Name: A4
Note OFF: Time 95760, Note Name: C5
Note ON: Time 95760, Note Name: C6, Velocity: 59
Note ON: Time 95760, Note Name: D#6, Velocity: 70
Note ON: Time 96000, Note Name: F5, Velocity: 45
Note OFF: Time 96240, Note Name: D#6
Note OFF: Time 96240, Note Name: C6
Note ON: Time 96240, Note Name: D6, Velocity: 65
Note ON: Time 96240, Note Name: A#5, Velocity: 55
Note OFF: Time 96480, Note Name: A#5
Note OFF: Time 96480, Note Name: D6
Note OFF: Time 96480, Note Name: F5
Note ON: Time 96480, Note Name: A5, Velocity: 55
Note ON: Time 96480, Note Name: C6, Velocity: 65
Note OFF: Time 96720, Note Name: C6
Note OFF: Time 96720, Note Name: A5
Note ON: Time 96720, Note Name: A5, Velocity: 64
Note ON: Time 96720, Note Name: C6, Velocity: 64
Note ON: Time 96720, Note Name: G6, Velocity: 77
Note OFF: Time 96960, Note Name: C6
Note OFF: Time 96960, Note Name: A5
Note ON: Time 96960, Note Name: A#5, Velocity: 65
Note ON: Time 96960, Note Name: F5, Velocity: 65
Note OFF: Time 97200, Note Name: F5
Note OFF: Time 97200, Note Name: A#5
Note OFF: Time 97200, Note Name: G6
Note ON: Time 97200, Note Name: A#5, Velocity: 63
Note ON: Time 97200, Note Name: F5, Velocity: 63
Note ON: Time 97200, Note Name: F6, Velocity: 75
Note OFF: Time 97440, Note Name: F6
Note OFF: Time 97440, Note Name: F5
Note OFF: Time 97440, Note Name: A#5
Note ON: Time 97440, Note Name: A#5, Velocity: 69
Note ON: Time 97440, Note Name: G5, Velocity: 69
Note OFF: Time 97680, Note Name: G5
Note OFF: Time 97680, Note Name: A#5
Note ON: Time 97680, Note Name: D#6, Velocity: 79
Note ON: Time 97680, Note Name: A5, Velocity: 67
Note ON: Time 97680, Note Name: C6, Velocity: 67
Note OFF: Time 97920, Note Name: C6
Note OFF: Time 97920, Note Name: A5
Note OFF: Time 97920, Note Name: D#6
Note ON: Time 97920, Note Name: D6, Velocity: 88
Note ON: Time 98040, Note Name: F5, Velocity: 49
Note OFF: Time 98160, Note Name: F5
Note ON: Time 98160, Note Name: G5, Velocity: 55
Note OFF: Time 98280, Note Name: G5
Note ON: Time 98280, Note Name: F5, Velocity: 50
Note OFF: Time 98400, Note Name: F5
Note ON: Time 98400, Note Name: G5, Velocity: 55
Note OFF: Time 98520, Note Name: G5
Note ON: Time 98520, Note Name: F5, Velocity: 47
Note OFF: Time 98640, Note Name: F5
Note ON: Time 98640, Note Name: G5, Velocity: 55
Note OFF: Time 98760, Note Name: G5
Note ON: Time 98760, Note Name: F5, Velocity: 48
Note OFF: Time 98880, Note Name: F5
Note OFF: Time 98880, Note Name: D6
Note ON: Time 98880, Note Name: C6, Velocity: 80
Note ON: Time 99000, Note Name: D#5, Velocity: 46
Note OFF: Time 99120, Note Name: D#5
Note ON: Time 99120, Note Name: F5, Velocity: 54
Note OFF: Time 99240, Note Name: F5
Note ON: Time 99240, Note Name: D#5, Velocity: 50
Note OFF: Time 99360, Note Name: D#5
Note ON: Time 99360, Note Name: F5, Velocity: 53
Note OFF: Time 99480, Note Name: F5
Note ON: Time 99480, Note Name: D#5, Velocity: 47
Note OFF: Time 99600, Note Name: D#5
Note ON: Time 99600, Note Name: F5, Velocity: 53
Note OFF: Time 99720, Note Name: F5
Note ON: Time 99720, Note Name: D#5, Velocity: 48
Note OFF: Time 99840, Note Name: D#5
Note OFF: Time 99840, Note Name: C6
Note ON: Time 99840, Note Name: D5, Velocity: 53
Note ON: Time 99840, Note Name: A#5, Velocity: 70
Note OFF: Time 99960, Note Name: D5
Note ON: Time 99960, Note Name: A#4, Velocity: 48
Note OFF: Time 100080, Note Name: A#4
Note ON: Time 100080, Note Name: C5, Velocity: 53
Note OFF: Time 100200, Note Name: C5
Note ON: Time 100200, Note Name: A#4, Velocity: 48
Note OFF: Time 100320, Note Name: A#4
Note OFF: Time 100320, Note Name: A#5
Note ON: Time 100320, Note Name: G5, Velocity: 68
Note ON: Time 100440, Note Name: A#4, Velocity: 48
Note OFF: Time 100560, Note Name: A#4
Note OFF: Time 100560, Note Name: G5
Note ON: Time 100560, Note Name: F5, Velocity: 60
Note ON: Time 100680, Note Name: A#4, Velocity: 48
Note OFF: Time 100800, Note Name: A#4
Note OFF: Time 100800, Note Name: F5
Note ON: Time 100800, Note Name: A#4, Velocity: 53
Note ON: Time 100800, Note Name: F5, Velocity: 68
Note OFF: Time 100920, Note Name: A#4
Note ON: Time 100920, Note Name: F4, Velocity: 48
Note OFF: Time 101040, Note Name: F4
Note OFF: Time 101040, Note Name: F5
Note ON: Time 101040, Note Name: A4, Velocity: 53
Note ON: Time 101040, Note Name: D#5, Velocity: 58
Note OFF: Time 101160, Note Name: A4
Note ON: Time 101160, Note Name: F4, Velocity: 48
Note OFF: Time 101280, Note Name: F4
Note OFF: Time 101280, Note Name: D#5
Note ON: Time 101280, Note Name: D5, Velocity: 66
Note ON: Time 101280, Note Name: A#4, Velocity: 53
Note OFF: Time 101400, Note Name: A#4
Note ON: Time 101400, Note Name: F4, Velocity: 48
Note OFF: Time 101520, Note Name: F4
Note OFF: Time 101520, Note Name: D5
Note ON: Time 101520, Note Name: C5, Velocity: 57
Note ON: Time 101640, Note Name: F4, Velocity: 48
Note OFF: Time 101760, Note Name: F4
Note OFF: Time 101760, Note Name: C5
Note ON: Time 101760, Note Name: D5, Velocity: 79
Note ON: Time 101880, Note Name: F4, Velocity: 44
Note OFF: Time 102000, Note Name: F4
Note ON: Time 102000, Note Name: G4, Velocity: 49
Note OFF: Time 102120, Note Name: G4
Note ON: Time 102120, Note Name: F4, Velocity: 45
Note OFF: Time 102240, Note Name: F4
Note ON: Time 102240, Note Name: G4, Velocity: 49
Note OFF: Time 102360, Note Name: G4
Note ON: Time 102360, Note Name: F4, Velocity: 42
Note OFF: Time 102480, Note Name: F4
Note ON: Time 102480, Note Name: G4, Velocity: 49
Note OFF: Time 102600, Note Name: G4
Note ON: Time 102600, Note Name: F4, Velocity: 43
Note OFF: Time 102720, Note Name: F4
Note OFF: Time 102720, Note Name: D5
Note ON: Time 102720, Note Name: C5, Velocity: 72
Note ON: Time 102840, Note Name: D#4, Velocity: 41
Note OFF: Time 102960, Note Name: D#4
Note ON: Time 102960, Note Name: F4, Velocity: 48
Note OFF: Time 103080, Note Name: F4
Note ON: Time 103080, Note Name: D#4, Velocity: 45
Note OFF: Time 103200, Note Name: D#4
Note ON: Time 103200, Note Name: F4, Velocity: 47
Note OFF: Time 103320, Note Name: F4
Note ON: Time 103320, Note Name: D#4, Velocity: 42
Note OFF: Time 103440, Note Name: D#4
Note ON: Time 103440, Note Name: F4, Velocity: 47
Note OFF: Time 103560, Note Name: F4
Note ON: Time 103560, Note Name: D#4, Velocity: 43
Note OFF: Time 103680, Note Name: D#4
Note OFF: Time 103680, Note Name: C5
Note ON: Time 103680, Note Name: A#4, Velocity: 63
Note ON: Time 103680, Note Name: D4, Velocity: 47
Note OFF: Time 103800, Note Name: D4
Note ON: Time 103800, Note Name: A#3, Velocity: 43
Note OFF: Time 103920, Note Name: A#3
Note ON: Time 103920, Note Name: C4, Velocity: 47
Note OFF: Time 104040, Note Name: C4
Note ON: Time 104040, Note Name: A#3, Velocity: 43
Note OFF: Time 104160, Note Name: A#3
Note OFF: Time 104160, Note Name: A#4
Note ON: Time 104160, Note Name: G4, Velocity: 61
Note ON: Time 104280, Note Name: A#3, Velocity: 43
Note OFF: Time 104400, Note Name: A#3
Note OFF: Time 104400, Note Name: G4
Note ON: Time 104400, Note Name: F4, Velocity: 54
Note ON: Time 104520, Note Name: A#3, Velocity: 43
Note OFF: Time 104640, Note Name: A#3
Note OFF: Time 104640, Note Name: F4
Note ON: Time 104640, Note Name: A#3, Velocity: 47
Note ON: Time 104640, Note Name: F4, Velocity: 61
Note OFF: Time 104760, Note Name: A#3
Note ON: Time 104760, Note Name: F3, Velocity: 43
Note OFF: Time 104880, Note Name: F3
Note OFF: Time 104880, Note Name: F4
Note ON: Time 104880, Note Name: A3, Velocity: 47
Note ON: Time 104880, Note Name: D#4, Velocity: 52
Note OFF: Time 105000, Note Name: A3
Note ON: Time 105000, Note Name: F3, Velocity: 43
Note OFF: Time 105120, Note Name: F3
Note OFF: Time 105120, Note Name: D#4
Note ON: Time 105120, Note Name: D4, Velocity: 59
Note ON: Time 105120, Note Name: A#3, Velocity: 47
Note OFF: Time 105240, Note Name: A#3
Note ON: Time 105240, Note Name: F3, Velocity: 43
Note OFF: Time 105360, Note Name: F3
Note OFF: Time 105360, Note Name: D4
Note ON: Time 105360, Note Name: C4, Velocity: 51
Note ON: Time 105480, Note Name: F3, Velocity: 43
Note OFF: Time 105600, Note Name: F3
Note OFF: Time 105600, Note Name: C4
Note ON: Time 105600, Note Name: A#3, Velocity: 57
Note ON: Time 105720, Note Name: F#3, Velocity: 46
Note ON: Time 105840, Note Name: D3, Velocity: 55
Note OFF: Time 106080, Note Name: D3
Note OFF: Time 106080, Note Name: F#3
Note OFF: Time 106200, Note Name: A#3
Note ON: Time 106210, Note Name: F3, Velocity: 47
Note ON: Time 106320, Note Name: D3, Velocity: 47
Note OFF: Time 106330, Note Name: F3
Note OFF: Time 106440, Note Name: D3
Note ON: Time 106440, Note Name: A#3, Velocity: 47
Note OFF: Time 106680, Note Name: A#3
Note ON: Time 106680, Note Name: A#3, Velocity: 47
Note OFF: Time 106800, Note Name: A#3
Note ON: Time 106800, Note Name: A3, Velocity: 51
Note OFF: Time 106920, Note Name: A3
Note ON: Time 106920, Note Name: A#3, Velocity: 49
Note OFF: Time 107040, Note Name: A#3
Note ON: Time 107040, Note Name: C4, Velocity: 52
Note OFF: Time 107160, Note Name: C4
Note ON: Time 107160, Note Name: D4, Velocity: 44
Note OFF: Time 107280, Note Name: D4
Note ON: Time 107280, Note Name: D#4, Velocity: 51
Note OFF: Time 107400, Note Name: D#4
Note ON: Time 107400, Note Name: C4, Velocity: 47
Note OFF: Time 107520, Note Name: C4
Note ON: Time 107520, Note Name: A#4, Velocity: 57
Note ON: Time 107640, Note Name: F#4, Velocity: 46
Note ON: Time 107760, Note Name: D4, Velocity: 55
Note OFF: Time 108000, Note Name: D4
Note OFF: Time 108000, Note Name: F#4
Note OFF: Time 108120, Note Name: A#4
Note ON: Time 108130, Note Name: F4, Velocity: 47
Note ON: Time 108240, Note Name: D4, Velocity: 47
Note OFF: Time 108250, Note Name: F4
Note OFF: Time 108360, Note Name: D4
Note ON: Time 108360, Note Name: A#4, Velocity: 47
Note ON: Time 108480, Note Name: F4, Velocity: 47
Note OFF: Time 108600, Note Name: A#4
Note ON: Time 108600, Note Name: A#4, Velocity: 47
Note OFF: Time 108720, Note Name: A#4
Note ON: Time 108720, Note Name: A4, Velocity: 51
Note OFF: Time 108840, Note Name: A4
Note ON: Time 108840, Note Name: A#4, Velocity: 49
Note OFF: Time 108960, Note Name: A#4
Note OFF: Time 108960, Note Name: F4
Note ON: Time 108960, Note Name: C5, Velocity: 52
Note OFF: Time 109080, Note Name: C5
Note ON: Time 109080, Note Name: D5, Velocity: 44
Note OFF: Time 109200, Note Name: D5
Note ON: Time 109200, Note Name: D#5, Velocity: 51
Note OFF: Time 109320, Note Name: D#5
Note ON: Time 109320, Note Name: C5, Velocity: 47
Note OFF: Time 109440, Note Name: C5
Note ON: Time 109440, Note Name: D5, Velocity: 51
Note OFF: Time 109560, Note Name: D5
Note ON: Time 109560, Note Name: C5, Velocity: 42
Note OFF: Time 109680, Note Name: C5
Note ON: Time 109680, Note Name: A#4, Velocity: 49
Note OFF: Time 110040, Note Name: A#4
Note ON: Time 110040, Note Name: G4, Velocity: 41
Note OFF: Time 110160, Note Name: G4
Note ON: Time 110160, Note Name: F4, Velocity: 48
Note OFF: Time 110520, Note Name: F4
Note ON: Time 110520, Note Name: D#4, Velocity: 42
Note OFF: Time 110640, Note Name: D#4
Note ON: Time 110640, Note Name: D4, Velocity: 48
Note OFF: Time 111000, Note Name: D4
Note ON: Time 111000, Note Name: C4, Velocity: 42
Note OFF: Time 111120, Note Name: C4
Note ON: Time 111120, Note Name: A#3, Velocity: 47
Note OFF: Time 111480, Note Name: A#3
Note ON: Time 111480, Note Name: G3, Velocity: 41
Note OFF: Time 111600, Note Name: G3
Note ON: Time 111600, Note Name: F3, Velocity: 47
Note OFF: Time 111960, Note Name: F3
Note ON: Time 111960, Note Name: D#3, Velocity: 38
Note OFF: Time 112080, Note Name: D#3
Note ON: Time 112080, Note Name: D3, Velocity: 43
Note OFF: Time 112440, Note Name: D3
Note ON: Time 112440, Note Name: C3, Velocity: 37
Note OFF: Time 112560, Note Name: C3
Note ON: Time 112560, Note Name: A#2, Velocity: 44
Note OFF: Time 112920, Note Name: A#2
Note ON: Time 112920, Note Name: C3, Velocity: 36
Note OFF: Time 113040, Note Name: C3
Note ON: Time 113040, Note Name: A#2, Velocity: 41
Note OFF: Time 113520, Note Name: A#2
Note ON: Time 115200, Note Name: A#4, Velocity: 45
Note ON: Time 115200, Note Name: F5, Velocity: 53
Note OFF: Time 116160, Note Name: F5
Note OFF: Time 116160, Note Name: A#4
Note ON: Time 116160, Note Name: G#5, Velocity: 51
Note ON: Time 116160, Note Name: G#4, Velocity: 43
Note OFF: Time 117120, Note Name: G#4
Note OFF: Time 117120, Note Name: G#5
Note ON: Time 117120, Note Name: G4, Velocity: 73
Note ON: Time 117120, Note Name: G5, Velocity: 88
Note OFF: Time 117840, Note Name: G5
Note OFF: Time 117840, Note Name: G4
Note ON: Time 117840, Note Name: D5, Velocity: 79
Note OFF: Time 117960, Note Name: D5
Note ON: Time 117960, Note Name: G5, Velocity: 76
Note OFF: Time 118020, Note Name: G5
Note ON: Time 118080, Note Name: G5, Velocity: 79
Note ON: Time 118080, Note Name: G4, Velocity: 66
Note OFF: Time 118320, Note Name: G4
Note OFF: Time 118320, Note Name: G5
Note ON: Time 118320, Note Name: C5, Velocity: 78
Note OFF: Time 118440, Note Name: C5
Note ON: Time 118440, Note Name: F5, Velocity: 74
Note OFF: Time 118500, Note Name: F5
Note ON: Time 118560, Note Name: F4, Velocity: 65
Note ON: Time 118560, Note Name: F5, Velocity: 77
Note OFF: Time 118800, Note Name: F5
Note OFF: Time 118800, Note Name: F4
Note ON: Time 118800, Note Name: C5, Velocity: 77
Note OFF: Time 118920, Note Name: C5
Note ON: Time 118920, Note Name: D#5, Velocity: 73
Note OFF: Time 118980, Note Name: D#5
Note ON: Time 119040, Note Name: D#4, Velocity: 63
Note ON: Time 119040, Note Name: D#5, Velocity: 75
Note OFF: Time 119280, Note Name: D#5
Note OFF: Time 119280, Note Name: D#4
Note ON: Time 119280, Note Name: A4, Velocity: 74
Note OFF: Time 119400, Note Name: A4
Note ON: Time 119400, Note Name: D5, Velocity: 71
Note OFF: Time 119460, Note Name: D5
Note ON: Time 119520, Note Name: D4, Velocity: 62
Note ON: Time 119520, Note Name: D5, Velocity: 74
Note ON: Time 119520, Note Name: G4, Velocity: 62
Note OFF: Time 119760, Note Name: G4
Note OFF: Time 119760, Note Name: D5
Note OFF: Time 119760, Note Name: D4
Note ON: Time 119760, Note Name: C5, Velocity: 64
Note ON: Time 119760, Note Name: G5, Velocity: 64
Note OFF: Time 119880, Note Name: G5
Note ON: Time 119880, Note Name: C6, Velocity: 57
Note OFF: Time 119940, Note Name: C6
Note OFF: Time 120000, Note Name: C5
Note ON: Time 120000, Note Name: F4, Velocity: 45
Note OFF: Time 120960, Note Name: F4
Note ON: Time 120960, Note Name: D#4, Velocity: 45
Note OFF: Time 121920, Note Name: D#4
Note ON: Time 121920, Note Name: F#4, Velocity: 38
Note ON: Time 121920, Note Name: A4, Velocity: 38
Note ON: Time 121920, Note Name: D#5, Velocity: 45
Note OFF: Time 123600, Note Name: D#5
Note OFF: Time 123600, Note Name: A4
Note OFF: Time 123600, Note Name: F#4
Note ON: Time 123600, Note Name: A#4, Velocity: 45
Note ON: Time 123600, Note Name: C#5, Velocity: 45
Note ON: Time 123600, Note Name: F4, Velocity: 45
Note OFF: Time 123720, Note Name: F4
Note OFF: Time 123720, Note Name: C#5
Note OFF: Time 123720, Note Name: A#4
Note ON: Time 123840, Note Name: C#5, Velocity: 55
Note OFF: Time 124800, Note Name: C#5
Note ON: Time 124800, Note Name: C5, Velocity: 50
Note OFF: Time 125760, Note Name: C5
Note ON: Time 125760, Note Name: D5, Velocity: 45
Note ON: Time 125760, Note Name: C5, Velocity: 45
Note ON: Time 125760, Note Name: A5, Velocity: 45
Note ON: Time 125760, Note Name: F#5, Velocity: 45
Note OFF: Time 127680, Note Name: F#5
Note OFF: Time 127680, Note Name: D5
Note OFF: Time 127680, Note Name: C5
Note OFF: Time 127680, Note Name: A5
Note ON: Time 127680, Note Name: C5, Velocity: 55
Note OFF: Time 128640, Note Name: C5
Note ON: Time 128640, Note Name: B4, Velocity: 50
Note OFF: Time 129600, Note Name: B4
Note ON: Time 129600, Note Name: B4, Velocity: 45
Note ON: Time 129600, Note Name: D#5, Velocity: 45
Note ON: Time 129600, Note Name: A5, Velocity: 45
Note ON: Time 129600, Note Name: F#5, Velocity: 45
Note OFF: Time 131520, Note Name: F#5
Note OFF: Time 131520, Note Name: B4
Note OFF: Time 131520, Note Name: D#5
Note OFF: Time 131520, Note Name: A5
Note ON: Time 131520, Note Name: B4, Velocity: 55
Note OFF: Time 132480, Note Name: B4
Note ON: Time 132480, Note Name: A#4, Velocity: 50
Note OFF: Time 133440, Note Name: A#4
Note ON: Time 133440, Note Name: D5, Velocity: 45
Note ON: Time 133440, Note Name: F5, Velocity: 45
Note ON: Time 133440, Note Name: A#4, Velocity: 45
Note ON: Time 133440, Note Name: G#5, Velocity: 45
Note OFF: Time 134640, Note Name: G#5
Note OFF: Time 134640, Note Name: D5
Note OFF: Time 134640, Note Name: F5
Note OFF: Time 134640, Note Name: A#4
Note ON: Time 134640, Note Name: A#5, Velocity: 62
Note OFF: Time 134880, Note Name: A#5
Note ON: Time 134880, Note Name: B5, Velocity: 69
Note OFF: Time 135120, Note Name: B5
Note ON: Time 135120, Note Name: A#5, Velocity: 62
Note OFF: Time 135360, Note Name: A#5
Note ON: Time 135360, Note Name: D5, Velocity: 45
Note ON: Time 135360, Note Name: A#4, Velocity: 45
Note ON: Time 135360, Note Name: F5, Velocity: 45
Note ON: Time 135360, Note Name: G#5, Velocity: 45
Note OFF: Time 136560, Note Name: G#5
Note OFF: Time 136560, Note Name: D5
Note OFF: Time 136560, Note Name: A#4
Note OFF: Time 136560, Note Name: F5
Note ON: Time 136560, Note Name: A#5, Velocity: 62
Note ON: Time 136560, Note Name: F5, Velocity: 52
Note OFF: Time 136800, Note Name: F5
Note OFF: Time 136800, Note Name: A#5
Note ON: Time 136800, Note Name: F#5, Velocity: 58
Note ON: Time 136800, Note Name: B5, Velocity: 69
Note OFF: Time 137040, Note Name: B5
Note OFF: Time 137040, Note Name: F#5
Note ON: Time 137040, Note Name: A#5, Velocity: 62
Note ON: Time 137040, Note Name: F5, Velocity: 52
Note OFF: Time 137280, Note Name: F5
Note OFF: Time 137280, Note Name: A#5
Note ON: Time 137280, Note Name: G5, Velocity: 64
Note ON: Time 137280, Note Name: A#5, Velocity: 64
Note ON: Time 137280, Note Name: D#5, Velocity: 64
Note ON: Time 137280, Note Name: D#6, Velocity: 77
Note OFF: Time 138000, Note Name: D#6
Note OFF: Time 138000, Note Name: G5
Note OFF: Time 138000, Note Name: A#5
Note OFF: Time 138000, Note Name: D#5
Note ON: Time 138000, Note Name: F5, Velocity: 45
Note ON: Time 138000, Note Name: G#5, Velocity: 62
Note OFF: Time 138120, Note Name: G#5
Note ON: Time 138120, Note Name: C#6, Velocity: 52
Note OFF: Time 138180, Note Name: C#6
Note OFF: Time 138240, Note Name: F5
Note ON: Time 138240, Note Name: F#5, Velocity: 51
Note ON: Time 138240, Note Name: C#6, Velocity: 61
Note OFF: Time 138480, Note Name: C#6
Note OFF: Time 138480, Note Name: F#5
Note ON: Time 138480, Note Name: F5, Velocity: 51
Note ON: Time 138480, Note Name: B4, Velocity: 51
Note OFF: Time 138600, Note Name: F5
Note ON: Time 138600, Note Name: B5, Velocity: 51
Note OFF: Time 138660, Note Name: B5
Note OFF: Time 138720, Note Name: B4
Note ON: Time 138720, Note Name: B5, Velocity: 55
Note ON: Time 138720, Note Name: G#5, Velocity: 46
Note ON: Time 138720, Note Name: B4, Velocity: 46
Note OFF: Time 138960, Note Name: B4
Note OFF: Time 138960, Note Name: G#5
Note OFF: Time 138960, Note Name: B5
Note ON: Time 138960, Note Name: F#4, Velocity: 47
Note ON: Time 138960, Note Name: A#5, Velocity: 47
Note ON: Time 138960, Note Name: F#5, Velocity: 47
Note OFF: Time 139200, Note Name: F#5
Note OFF: Time 139200, Note Name: A#5
Note OFF: Time 139200, Note Name: F#4
Note ON: Time 139200, Note Name: G#5, Velocity: 50
Note ON: Time 139200, Note Name: G#4, Velocity: 42
Note OFF: Time 139440, Note Name: G#4
Note OFF: Time 139440, Note Name: G#5
Note ON: Time 139440, Note Name: F#4, Velocity: 38
Note ON: Time 139440, Note Name: F#5, Velocity: 45
Note OFF: Time 139680, Note Name: F#5
Note OFF: Time 139680, Note Name: F#4
Note ON: Time 139680, Note Name: F5, Velocity: 50
Note ON: Time 139680, Note Name: F4, Velocity: 42
Note OFF: Time 139920, Note Name: F4
Note OFF: Time 139920, Note Name: F5
Note ON: Time 139920, Note Name: F#4, Velocity: 39
Note ON: Time 139920, Note Name: F#5, Velocity: 47
Note OFF: Time 140160, Note Name: F#5
Note OFF: Time 140160, Note Name: F#4
Note ON: Time 140160, Note Name: B4, Velocity: 38
Note ON: Time 140160, Note Name: G#4, Velocity: 38
Note ON: Time 140160, Note Name: G#5, Velocity: 45
Note OFF: Time 141120, Note Name: G#5
Note OFF: Time 141120, Note Name: G#4
Note OFF: Time 141120, Note Name: B4
Note ON: Time 141120, Note Name: G#5, Velocity: 45
Note ON: Time 141120, Note Name: B4, Velocity: 38
Note ON: Time 141120, Note Name: G#4, Velocity: 38
Note OFF: Time 142080, Note Name: G#4
Note OFF: Time 142080, Note Name: B4
Note OFF: Time 142080, Note Name: G#5
Note ON: Time 142080, Note Name: G4, Velocity: 38
Note ON: Time 142080, Note Name: C5, Velocity: 38
Note ON: Time 142080, Note Name: G5, Velocity: 45
Note OFF: Time 143040, Note Name: G5
Note OFF: Time 143040, Note Name: C5
Note OFF: Time 143040, Note Name: G4
Note ON: Time 143040, Note Name: F5, Velocity: 44
Note ON: Time 143040, Note Name: F4, Velocity: 37
Note ON: Time 143040, Note Name: G4, Velocity: 37
Note ON: Time 143040, Note Name: B4, Velocity: 37
Note OFF: Time 144000, Note Name: B4
Note OFF: Time 144000, Note Name: F5
Note OFF: Time 144000, Note Name: F4
Note OFF: Time 144000, Note Name: G4
Note ON: Time 144000, Note Name: D#4, Velocity: 36
Note ON: Time 144000, Note Name: D#5, Velocity: 42
Note ON: Time 144000, Note Name: G4, Velocity: 36
Note ON: Time 144000, Note Name: C5, Velocity: 36
Note OFF: Time 144960, Note Name: C5
Note OFF: Time 144960, Note Name: D#4
Note OFF: Time 144960, Note Name: D#5
Note OFF: Time 144960, Note Name: G4
Note ON: Time 144960, Note Name: D5, Velocity: 41
Note ON: Time 144960, Note Name: B4, Velocity: 35
Note ON: Time 144960, Note Name: F4, Velocity: 35
Note ON: Time 144964, Note Name: G#4, Velocity: 35
Note OFF: Time 145920, Note Name: G#4
Note OFF: Time 145920, Note Name: D5
Note OFF: Time 145920, Note Name: B4
Note OFF: Time 145920, Note Name: F4
Note ON: Time 145920, Note Name: G4, Velocity: 34
Note ON: Time 145920, Note Name: D#4, Velocity: 34
Note ON: Time 145920, Note Name: C5, Velocity: 40
Note OFF: Time 146880, Note Name: C5
Note OFF: Time 146880, Note Name: D#4
Note OFF: Time 146880, Note Name: G4
Note ON: Time 146880, Note Name: F4, Velocity: 33
Note ON: Time 146880, Note Name: D4, Velocity: 33
Note ON: Time 146880, Note Name: B3, Velocity: 33
Note ON: Time 146880, Note Name: G#4, Velocity: 39
Note OFF: Time 147840, Note Name: G#4
Note OFF: Time 147840, Note Name: F4
Note OFF: Time 147840, Note Name: D4
Note OFF: Time 147840, Note Name: B3
Note ON: Time 147840, Note Name: C4, Velocity: 32
Note ON: Time 147840, Note Name: D#4, Velocity: 32
Note ON: Time 147840, Note Name: G4, Velocity: 38
Note OFF: Time 148738, Note Name: C4
Note OFF: Time 148800, Note Name: G4
Note OFF: Time 148800, Note Name: D#4
Note ON: Time 148800, Note Name: G#4, Velocity: 37
Note ON: Time 148800, Note Name: D#4, Velocity: 31
Note ON: Time 148800, Note Name: C4, Velocity: 31
Note OFF: Time 149698, Note Name: C4
Note OFF: Time 149760, Note Name: D#4
Note OFF: Time 149760, Note Name: G#4
Note ON: Time 149760, Note Name: D#4, Velocity: 30
Note ON: Time 149760, Note Name: G#4, Velocity: 36
Note OFF: Time 150720, Note Name: G#4
Note OFF: Time 150720, Note Name: D#4
Note ON: Time 150720, Note Name: D4, Velocity: 30
Note ON: Time 150720, Note Name: G#4, Velocity: 36
Note OFF: Time 151680, Note Name: G#4
Note OFF: Time 151680, Note Name: D4
Note ON: Time 151680, Note Name: G#4, Velocity: 36
Note ON: Time 151680, Note Name: D#4, Velocity: 30
Note OFF: Time 152640, Note Name: D#4
Note OFF: Time 152640, Note Name: G#4
Note ON: Time 152640, Note Name: D#4, Velocity: 30
Note ON: Time 152640, Note Name: G#4, Velocity: 36
Note OFF: Time 153600, Note Name: G#4
Note OFF: Time 153600, Note Name: D#4
Note ON: Time 153600, Note Name: D#4, Velocity: 30
Note ON: Time 153600, Note Name: G#4, Velocity: 36
Note OFF: Time 154320, Note Name: G#4
Note OFF: Time 154320, Note Name: D#4
Note ON: Time 154320, Note Name: G#3, Velocity: 50
Note OFF: Time 154440, Note Name: G#3
Note ON: Time 154440, Note Name: G#4, Velocity: 52
Note OFF: Time 154560, Note Name: G#4
Note ON: Time 154560, Note Name: G#3, Velocity: 55
Note OFF: Time 154680, Note Name: G#3
Note ON: Time 154680, Note Name: G#4, Velocity: 56
Note OFF: Time 154788, Note Name: G#4
Note ON: Time 154800, Note Name: G#4, Velocity: 59
Note OFF: Time 154920, Note Name: G#4
Note ON: Time 154920, Note Name: G#5, Velocity: 61
Note OFF: Time 155040, Note Name: G#5
Note ON: Time 155040, Note Name: G#4, Velocity: 64
Note OFF: Time 155160, Note Name: G#4
Note ON: Time 155160, Note Name: G#5, Velocity: 66
Note OFF: Time 155280, Note Name: G#5
Note ON: Time 155280, Note Name: G#4, Velocity: 69
Note OFF: Time 155400, Note Name: G#4
Note ON: Time 155400, Note Name: G#5, Velocity: 71
Note OFF: Time 155508, Note Name: G#5
Note ON: Time 155520, Note Name: G#5, Velocity: 84
Note ON: Time 155520, Note Name: G#4, Velocity: 68
Note OFF: Time 156240, Note Name: G#4
Note OFF: Time 156240, Note Name: G#5
Note ON: Time 156240, Note Name: G4, Velocity: 59
Note ON: Time 156240, Note Name: D5, Velocity: 70
Note OFF: Time 156360, Note Name: D5
Note ON: Time 156360, Note Name: G5, Velocity: 67
Note OFF: Time 156420, Note Name: G5
Note OFF: Time 156480, Note Name: G4
Note ON: Time 156480, Note Name: G5, Velocity: 70
Note ON: Time 156480, Note Name: G4, Velocity: 59
Note OFF: Time 156720, Note Name: G4
Note OFF: Time 156720, Note Name: G5
Note ON: Time 156720, Note Name: C5, Velocity: 70
Note ON: Time 156720, Note Name: F4, Velocity: 59
Note OFF: Time 156840, Note Name: C5
Note ON: Time 156840, Note Name: F5, Velocity: 67
Note OFF: Time 156900, Note Name: F5
Note OFF: Time 156960, Note Name: F4
Note ON: Time 156960, Note Name: F5, Velocity: 70
Note ON: Time 156960, Note Name: F4, Velocity: 59
Note OFF: Time 157200, Note Name: F4
Note OFF: Time 157200, Note Name: F5
Note ON: Time 157200, Note Name: D#4, Velocity: 59
Note ON: Time 157200, Note Name: A#4, Velocity: 70
Note OFF: Time 157320, Note Name: A#4
Note ON: Time 157320, Note Name: D#5, Velocity: 67
Note OFF: Time 157380, Note Name: D#5
Note OFF: Time 157440, Note Name: D#4
Note ON: Time 157440, Note Name: A#4, Velocity: 59
Note ON: Time 157440, Note Name: D#4, Velocity: 59
Note ON: Time 157440, Note Name: D#5, Velocity: 70
Note ON: Time 157440, Note Name: G#4, Velocity: 59
Note OFF: Time 157920, Note Name: D#5
Note OFF: Time 157920, Note Name: D#4
Note ON: Time 157920, Note Name: D5, Velocity: 59
Note ON: Time 157920, Note Name: D4, Velocity: 50
Note OFF: Time 158160, Note Name: D4
Note OFF: Time 158160, Note Name: G#4
Note OFF: Time 158160, Note Name: A#4
Note OFF: Time 158160, Note Name: D5
Note ON: Time 158160, Note Name: D#5, Velocity: 59
Note ON: Time 158160, Note Name: A#4, Velocity: 50
Note ON: Time 158160, Note Name: D#4, Velocity: 50
Note OFF: Time 158400, Note Name: D#4
Note OFF: Time 158400, Note Name: A#4
Note OFF: Time 158400, Note Name: D#5
Note ON: Time 158400, Note Name: F4, Velocity: 48
Note ON: Time 158400, Note Name: A#4, Velocity: 48
Note ON: Time 158400, Note Name: F5, Velocity: 57
Note OFF: Time 158640, Note Name: F5
Note OFF: Time 158640, Note Name: A#4
Note OFF: Time 158640, Note Name: F4
Note ON: Time 158640, Note Name: A#4, Velocity: 51
Note ON: Time 158640, Note Name: G4, Velocity: 51
Note ON: Time 158640, Note Name: G5, Velocity: 60
Note OFF: Time 158880, Note Name: G5
Note OFF: Time 158880, Note Name: G4
Note OFF: Time 158880, Note Name: A#4
Note ON: Time 158880, Note Name: G#4, Velocity: 54
Note ON: Time 158880, Note Name: G#5, Velocity: 64
Note ON: Time 158880, Note Name: A#4, Velocity: 54
Note OFF: Time 159120, Note Name: A#4
Note OFF: Time 159120, Note Name: G#5
Note OFF: Time 159120, Note Name: G#4
Note ON: Time 159120, Note Name: A#5, Velocity: 68
Note ON: Time 159120, Note Name: A#4, Velocity: 57
Note OFF: Time 159360, Note Name: A#4
Note OFF: Time 159360, Note Name: A#5
Note ON: Time 159360, Note Name: G4, Velocity: 66
Note ON: Time 159360, Note Name: A#5, Velocity: 78
Note ON: Time 159360, Note Name: A#4, Velocity: 66
Note OFF: Time 159600, Note Name: A#4
Note OFF: Time 159600, Note Name: A#5
Note OFF: Time 159600, Note Name: G4
Note ON: Time 159840, Note Name: A#5, Velocity: 81
Note ON: Time 159840, Note Name: A#4, Velocity: 69
Note OFF: Time 160080, Note Name: A#4
Note OFF: Time 160080, Note Name: A#5
Note ON: Time 160320, Note Name: A#6, Velocity: 93
Note ON: Time 160320, Note Name: A#5, Velocity: 78
Note OFF: Time 161040, Note Name: A#5
Note OFF: Time 161040, Note Name: A#6
Note ON: Time 161040, Note Name: A#5, Velocity: 65
Note ON: Time 161040, Note Name: A#4, Velocity: 55
Note OFF: Time 162000, Note Name: A#4
Note OFF: Time 162000, Note Name: A#5
Note ON: Time 162000, Note Name: G5, Velocity: 62
Note ON: Time 162000, Note Name: G4, Velocity: 62
Note OFF: Time 162240, Note Name: G4
Note OFF: Time 162240, Note Name: G5
Note ON: Time 162240, Note Name: F4, Velocity: 55
Note ON: Time 162240, Note Name: F5, Velocity: 65
Note OFF: Time 162480, Note Name: F5
Note OFF: Time 162480, Note Name: F4
Note ON: Time 162480, Note Name: D4, Velocity: 48
Note ON: Time 162480, Note Name: D5, Velocity: 57
Note OFF: Time 162720, Note Name: D5
Note OFF: Time 162720, Note Name: D4
Note ON: Time 162720, Note Name: B4, Velocity: 57
Note ON: Time 162720, Note Name: B3, Velocity: 48
Note OFF: Time 162960, Note Name: B3
Note OFF: Time 162960, Note Name: B4
Note ON: Time 162960, Note Name: A#3, Velocity: 47
Note ON: Time 162960, Note Name: A#4, Velocity: 56
Note OFF: Time 163200, Note Name: A#4
Note OFF: Time 163200, Note Name: A#3
Note ON: Time 163200, Note Name: A#4, Velocity: 78
Note ON: Time 163200, Note Name: A#3, Velocity: 66
Note OFF: Time 163440, Note Name: A#3
Note OFF: Time 163440, Note Name: A#4
Note ON: Time 163680, Note Name: A#5, Velocity: 81
Note ON: Time 163680, Note Name: A#4, Velocity: 69
Note OFF: Time 163920, Note Name: A#4
Note OFF: Time 163920, Note Name: A#5
Note ON: Time 164160, Note Name: A#6, Velocity: 93
Note ON: Time 164160, Note Name: A#5, Velocity: 78
Note OFF: Time 164880, Note Name: A#5
Note OFF: Time 164880, Note Name: A#6
Note ON: Time 164880, Note Name: A#5, Velocity: 65
Note ON: Time 164880, Note Name: A#4, Velocity: 55
Note OFF: Time 165840, Note Name: A#4
Note OFF: Time 165840, Note Name: A#5
Note ON: Time 165840, Note Name: G5, Velocity: 62
Note ON: Time 165840, Note Name: G4, Velocity: 62
Note OFF: Time 166080, Note Name: G4
Note OFF: Time 166080, Note Name: G5
Note ON: Time 166080, Note Name: E4, Velocity: 55
Note ON: Time 166080, Note Name: E5, Velocity: 65
Note OFF: Time 166320, Note Name: E5
Note OFF: Time 166320, Note Name: E4
Note ON: Time 166320, Note Name: F5, Velocity: 57
Note ON: Time 166320, Note Name: F4, Velocity: 48
Note OFF: Time 166560, Note Name: F4
Note OFF: Time 166560, Note Name: F5
Note ON: Time 166560, Note Name: C4, Velocity: 48
Note ON: Time 166560, Note Name: C5, Velocity: 57
Note OFF: Time 166800, Note Name: C5
Note OFF: Time 166800, Note Name: C4
Note ON: Time 166800, Note Name: D#4, Velocity: 47
Note ON: Time 166800, Note Name: D#5, Velocity: 56
Note OFF: Time 167040, Note Name: D#5
Note OFF: Time 167040, Note Name: D#4
Note ON: Time 167040, Note Name: D5, Velocity: 56
Note ON: Time 167040, Note Name: D4, Velocity: 56
Note OFF: Time 167160, Note Name: D4
Note OFF: Time 167160, Note Name: D5
Note ON: Time 167160, Note Name: A#4, Velocity: 49
Note OFF: Time 167280, Note Name: A#4
Note ON: Time 167280, Note Name: A4, Velocity: 51
Note OFF: Time 167400, Note Name: A4
Note ON: Time 167400, Note Name: A#4, Velocity: 53
Note OFF: Time 167520, Note Name: A#4
Note ON: Time 167520, Note Name: C5, Velocity: 55
Note ON: Time 167520, Note Name: A4, Velocity: 46
Note OFF: Time 167640, Note Name: A4
Note OFF: Time 167640, Note Name: C5
Note ON: Time 167640, Note Name: D5, Velocity: 57
Note ON: Time 167640, Note Name: A#4, Velocity: 48
Note OFF: Time 167760, Note Name: A#4
Note OFF: Time 167760, Note Name: D5
Note ON: Time 167760, Note Name: D#5, Velocity: 59
Note ON: Time 167760, Note Name: C5, Velocity: 50
Note OFF: Time 167880, Note Name: C5
Note OFF: Time 167880, Note Name: D#5
Note ON: Time 167880, Note Name: D5, Velocity: 51
Note ON: Time 167880, Note Name: F5, Velocity: 61
Note OFF: Time 168000, Note Name: F5
Note OFF: Time 168000, Note Name: D5
Note ON: Time 168000, Note Name: G5, Velocity: 63
Note ON: Time 168000, Note Name: D#5, Velocity: 53
Note OFF: Time 168480, Note Name: D#5
Note OFF: Time 168480, Note Name: G5
Note ON: Time 168480, Note Name: G#5, Velocity: 52
Note ON: Time 168480, Note Name: C6, Velocity: 62
Note OFF: Time 168600, Note Name: C6
Note OFF: Time 168600, Note Name: G#5
Note ON: Time 168600, Note Name: A#5, Velocity: 59
Note ON: Time 168600, Note Name: G5, Velocity: 50
Note OFF: Time 168720, Note Name: G5
Note OFF: Time 168720, Note Name: A#5
Note ON: Time 168720, Note Name: F5, Velocity: 47
Note ON: Time 168720, Note Name: G#5, Velocity: 56
Note OFF: Time 168840, Note Name: G#5
Note OFF: Time 168840, Note Name: F5
Note ON: Time 168840, Note Name: D#5, Velocity: 45
Note ON: Time 168840, Note Name: G5, Velocity: 53
Note OFF: Time 168960, Note Name: G5
Note OFF: Time 168960, Note Name: D#5
Note ON: Time 168960, Note Name: F5, Velocity: 67
Note ON: Time 168960, Note Name: D5, Velocity: 56
Note OFF: Time 169200, Note Name: D5
Note OFF: Time 169200, Note Name: F5
Note ON: Time 169200, Note Name: G#5, Velocity: 68
Note ON: Time 169200, Note Name: B4, Velocity: 57
Note OFF: Time 169320, Note Name: B4
Note OFF: Time 169320, Note Name: G#5
Note ON: Time 169320, Note Name: C5, Velocity: 56
Note ON: Time 169320, Note Name: G5, Velocity: 67
Note OFF: Time 169440, Note Name: G5
Note OFF: Time 169440, Note Name: C5
Note ON: Time 169440, Note Name: G4, Velocity: 56
Note ON: Time 169440, Note Name: F5, Velocity: 67
Note OFF: Time 169560, Note Name: F5
Note OFF: Time 169560, Note Name: G4
Note ON: Time 169560, Note Name: F#5, Velocity: 66
Note ON: Time 169560, Note Name: D#5, Velocity: 56
Note OFF: Time 169680, Note Name: D#5
Note OFF: Time 169680, Note Name: F#5
Note ON: Time 169680, Note Name: D5, Velocity: 55
Note ON: Time 169680, Note Name: G5, Velocity: 64
Note OFF: Time 169770, Note Name: G5
Note OFF: Time 169770, Note Name: D5
Note ON: Time 169800, Note Name: F5, Velocity: 53
Note ON: Time 169800, Note Name: D5, Velocity: 53
Note ON: Time 169800, Note Name: A5, Velocity: 63
Note OFF: Time 169890, Note Name: A5
Note OFF: Time 169890, Note Name: D5
Note OFF: Time 169890, Note Name: F5
Note ON: Time 169920, Note Name: G5, Velocity: 51
Note ON: Time 169920, Note Name: D5, Velocity: 51
Note ON: Time 169920, Note Name: B5, Velocity: 61
Note OFF: Time 170010, Note Name: B5
Note OFF: Time 170010, Note Name: D5
Note OFF: Time 170010, Note Name: G5
Note ON: Time 170040, Note Name: G5, Velocity: 55
Note ON: Time 170040, Note Name: D5, Velocity: 55
Note ON: Time 170040, Note Name: B5, Velocity: 64
Note OFF: Time 170130, Note Name: B5
Note OFF: Time 170130, Note Name: D5
Note OFF: Time 170130, Note Name: G5
Note ON: Time 170160, Note Name: D#5, Velocity: 57
Note ON: Time 170160, Note Name: G5, Velocity: 57
Note ON: Time 170160, Note Name: C6, Velocity: 68
Note OFF: Time 170250, Note Name: C6
Note OFF: Time 170250, Note Name: G5
Note OFF: Time 170250, Note Name: D#5
Note ON: Time 170280, Note Name: F5, Velocity: 60
Note ON: Time 170280, Note Name: D6, Velocity: 71
Note ON: Time 170280, Note Name: B5, Velocity: 60
Note OFF: Time 170370, Note Name: B5
Note OFF: Time 170370, Note Name: D6
Note OFF: Time 170370, Note Name: F5
Note ON: Time 170400, Note Name: D#6, Velocity: 75
Note ON: Time 170400, Note Name: C6, Velocity: 63
Note ON: Time 170400, Note Name: G5, Velocity: 63
Note OFF: Time 170490, Note Name: G5
Note OFF: Time 170490, Note Name: C6
Note OFF: Time 170490, Note Name: D#6
Note ON: Time 170520, Note Name: G5, Velocity: 67
Note ON: Time 170520, Note Name: E6, Velocity: 79
Note ON: Time 170520, Note Name: C6, Velocity: 67
Note OFF: Time 170610, Note Name: C6
Note OFF: Time 170610, Note Name: E6
Note OFF: Time 170610, Note Name: G5
Note ON: Time 170640, Note Name: F6, Velocity: 82
Note ON: Time 170640, Note Name: C6, Velocity: 69
Note ON: Time 170640, Note Name: F5, Velocity: 69
Note OFF: Time 170730, Note Name: F5
Note OFF: Time 170730, Note Name: C6
Note OFF: Time 170730, Note Name: F6
Note ON: Time 170760, Note Name: F6, Velocity: 85
Note ON: Time 170760, Note Name: C6, Velocity: 72
Note ON: Time 170760, Note Name: F5, Velocity: 72
Note OFF: Time 170850, Note Name: F5
Note OFF: Time 170850, Note Name: C6
Note OFF: Time 170850, Note Name: F6
Note ON: Time 170880, Note Name: A#5, Velocity: 81
Note ON: Time 170880, Note Name: D6, Velocity: 93
Note ON: Time 170880, Note Name: F5, Velocity: 77
Note OFF: Time 171000, Note Name: F5
Note OFF: Time 171000, Note Name: D6
Note OFF: Time 171000, Note Name: A#5
Note ON: Time 171360, Note Name: D#6, Velocity: 92
Note ON: Time 171360, Note Name: A#5, Velocity: 92
Note ON: Time 171360, Note Name: D#5, Velocity: 92
Note OFF: Time 171480, Note Name: D#5
Note OFF: Time 171480, Note Name: A#5
Note OFF: Time 171480, Note Name: D#6
Note ON: Time 171840, Note Name: G#4, Velocity: 84
Note ON: Time 171840, Note Name: D#4, Velocity: 65
Note OFF: Time 172560, Note Name: G#4
Note ON: Time 172560, Note Name: A#4, Velocity: 85
Note OFF: Time 172680, Note Name: A#4
Note ON: Time 172800, Note Name: B4, Velocity: 93
Note OFF: Time 173040, Note Name: D#4
Note ON: Time 173040, Note Name: D#4, Velocity: 61
Note OFF: Time 173160, Note Name: D#4
Note ON: Time 173160, Note Name: D4, Velocity: 52
Note OFF: Time 173280, Note Name: D4
Note ON: Time 173280, Note Name: D#4, Velocity: 61
Note OFF: Time 173400, Note Name: D#4
Note ON: Time 173400, Note Name: D4, Velocity: 54
Note OFF: Time 173520, Note Name: D4
Note ON: Time 173520, Note Name: D#4, Velocity: 61
Note OFF: Time 173640, Note Name: D#4
Note ON: Time 173640, Note Name: D4, Velocity: 54
Note OFF: Time 173760, Note Name: D4
Note OFF: Time 173760, Note Name: B4
Note ON: Time 173760, Note Name: G#4, Velocity: 84
Note ON: Time 173760, Note Name: D#4, Velocity: 65
Note OFF: Time 174480, Note Name: G#4
Note ON: Time 174480, Note Name: A#4, Velocity: 85
Note OFF: Time 174600, Note Name: A#4
Note ON: Time 174720, Note Name: C5, Velocity: 93
Note OFF: Time 174960, Note Name: D#4
Note ON: Time 174960, Note Name: D#4, Velocity: 61
Note OFF: Time 175080, Note Name: D#4
Note ON: Time 175080, Note Name: D4, Velocity: 52
Note OFF: Time 175200, Note Name: D4
Note ON: Time 175200, Note Name: D#4, Velocity: 61
Note OFF: Time 175320, Note Name: D#4
Note ON: Time 175320, Note Name: D4, Velocity: 54
Note OFF: Time 175440, Note Name: D4
Note ON: Time 175440, Note Name: D#4, Velocity: 61
Note OFF: Time 175560, Note Name: D#4
Note ON: Time 175560, Note Name: D4, Velocity: 54
Note OFF: Time 175680, Note Name: D4
Note OFF: Time 175680, Note Name: C5
Note ON: Time 175680, Note Name: B4, Velocity: 70
Note OFF: Time 175920, Note Name: B4
Note ON: Time 175920, Note Name: D#4, Velocity: 51
Note OFF: Time 176040, Note Name: D#4
Note ON: Time 176040, Note Name: D4, Velocity: 44
Note OFF: Time 176160, Note Name: D4
Note ON: Time 176160, Note Name: D#4, Velocity: 51
Note OFF: Time 176280, Note Name: D#4
Note ON: Time 176280, Note Name: D4, Velocity: 43
Note OFF: Time 176400, Note Name: D4
Note ON: Time 176400, Note Name: D#4, Velocity: 51
Note OFF: Time 176520, Note Name: D#4
Note ON: Time 176520, Note Name: D4, Velocity: 45
Note OFF: Time 176640, Note Name: D4
Note ON: Time 176640, Note Name: A#4, Velocity: 70
Note OFF: Time 176880, Note Name: A#4
Note ON: Time 176880, Note Name: F4, Velocity: 51
Note OFF: Time 177000, Note Name: F4
Note ON: Time 177000, Note Name: E4, Velocity: 44
Note OFF: Time 177120, Note Name: E4
Note ON: Time 177120, Note Name: F4, Velocity: 51
Note OFF: Time 177240, Note Name: F4
Note ON: Time 177240, Note Name: E4, Velocity: 43
Note OFF: Time 177360, Note Name: E4
Note ON: Time 177360, Note Name: F4, Velocity: 51
Note OFF: Time 177480, Note Name: F4
Note ON: Time 177480, Note Name: E4, Velocity: 45
Note OFF: Time 177600, Note Name: E4
Note ON: Time 177600, Note Name: A#4, Velocity: 70
Note OFF: Time 177720, Note Name: A#4
Note ON: Time 177840, Note Name: G4, Velocity: 51
Note OFF: Time 177960, Note Name: G4
Note ON: Time 177960, Note Name: F4, Velocity: 44
Note OFF: Time 178080, Note Name: F4
Note ON: Time 178080, Note Name: A#4, Velocity: 70
Note OFF: Time 178200, Note Name: A#4
Note ON: Time 178320, Note Name: F4, Velocity: 51
Note OFF: Time 178440, Note Name: F4
Note ON: Time 178440, Note Name: D#4, Velocity: 44
Note OFF: Time 178560, Note Name: D#4
Note ON: Time 178560, Note Name: A#4, Velocity: 70
Note OFF: Time 178680, Note Name: A#4
Note ON: Time 178800, Note Name: D#4, Velocity: 51
Note OFF: Time 178920, Note Name: D#4
Note ON: Time 178920, Note Name: D4, Velocity: 44
Note OFF: Time 179040, Note Name: D4
Note ON: Time 179040, Note Name: A#4, Velocity: 70
Note OFF: Time 179160, Note Name: A#4
Note ON: Time 179280, Note Name: F4, Velocity: 51
Note OFF: Time 179400, Note Name: F4
Note ON: Time 179400, Note Name: D#4, Velocity: 44
Note OFF: Time 179520, Note Name: D#4
Note ON: Time 179520, Note Name: B5, Velocity: 70
Note OFF: Time 179760, Note Name: B5
Note ON: Time 179760, Note Name: D#5, Velocity: 51
Note OFF: Time 179880, Note Name: D#5
Note ON: Time 179880, Note Name: D5, Velocity: 44
Note OFF: Time 180000, Note Name: D5
Note ON: Time 180000, Note Name: D#5, Velocity: 51
Note OFF: Time 180120, Note Name: D#5
Note ON: Time 180120, Note Name: D5, Velocity: 43
Note OFF: Time 180240, Note Name: D5
Note ON: Time 180240, Note Name: D#5, Velocity: 51
Note OFF: Time 180360, Note Name: D#5
Note ON: Time 180360, Note Name: D5, Velocity: 45
Note OFF: Time 180480, Note Name: D5
Note ON: Time 180480, Note Name: A#5, Velocity: 70
Note OFF: Time 180720, Note Name: A#5
Note ON: Time 180720, Note Name: F5, Velocity: 51
Note OFF: Time 180840, Note Name: F5
Note ON: Time 180840, Note Name: E5, Velocity: 44
Note OFF: Time 180960, Note Name: E5
Note ON: Time 180960, Note Name: F5, Velocity: 51
Note OFF: Time 181080, Note Name: F5
Note ON: Time 181080, Note Name: E5, Velocity: 43
Note OFF: Time 181200, Note Name: E5
Note ON: Time 181200, Note Name: F5, Velocity: 51
Note OFF: Time 181320, Note Name: F5
Note ON: Time 181320, Note Name: E5, Velocity: 45
Note OFF: Time 181440, Note Name: E5
Note ON: Time 181440, Note Name: A#5, Velocity: 70
Note OFF: Time 181560, Note Name: A#5
Note ON: Time 181680, Note Name: G5, Velocity: 51
Note OFF: Time 181800, Note Name: G5
Note ON: Time 181800, Note Name: F5, Velocity: 44
Note OFF: Time 181920, Note Name: F5
Note ON: Time 181920, Note Name: A#5, Velocity: 70
Note OFF: Time 182040, Note Name: A#5
Note ON: Time 182160, Note Name: F5, Velocity: 51
Note OFF: Time 182280, Note Name: F5
Note ON: Time 182280, Note Name: E5, Velocity: 44
Note OFF: Time 182400, Note Name: E5
Note ON: Time 182400, Note Name: A#5, Velocity: 70
Note OFF: Time 182520, Note Name: A#5
Note ON: Time 182640, Note Name: G5, Velocity: 51
Note OFF: Time 182760, Note Name: G5
Note ON: Time 182760, Note Name: F5, Velocity: 44
Note OFF: Time 182880, Note Name: F5
Note ON: Time 182880, Note Name: A#5, Velocity: 64
Note OFF: Time 183120, Note Name: A#5
Note ON: Time 183120, Note Name: G#5, Velocity: 70
Note ON: Time 183120, Note Name: F5, Velocity: 59
Note ON: Time 183360, Note Name: A#4, Velocity: 45
Note OFF: Time 183600, Note Name: F5
Note OFF: Time 183600, Note Name: G#5
Note ON: Time 183600, Note Name: G5, Velocity: 65
Note ON: Time 183600, Note Name: D#5, Velocity: 55
Note OFF: Time 183840, Note Name: D#5
Note OFF: Time 183840, Note Name: G5
Note OFF: Time 183840, Note Name: A#4
Note ON: Time 183840, Note Name: F5, Velocity: 65
Note ON: Time 183840, Note Name: D5, Velocity: 55
Note OFF: Time 184080, Note Name: D5
Note OFF: Time 184080, Note Name: F5
Note ON: Time 184080, Note Name: F6, Velocity: 59
Note ON: Time 184080, Note Name: G#6, Velocity: 70
Note ON: Time 184320, Note Name: A#5, Velocity: 45
Note OFF: Time 184560, Note Name: G#6
Note OFF: Time 184560, Note Name: F6
Note ON: Time 184560, Note Name: D#6, Velocity: 55
Note ON: Time 184560, Note Name: G6, Velocity: 65
Note OFF: Time 184800, Note Name: G6
Note OFF: Time 184800, Note Name: D#6
Note OFF: Time 184800, Note Name: A#5
Note ON: Time 184800, Note Name: F6, Velocity: 65
Note ON: Time 184800, Note Name: D6, Velocity: 55
Note OFF: Time 185040, Note Name: D6
Note OFF: Time 185040, Note Name: F6
Note ON: Time 185040, Note Name: D6, Velocity: 64
Note ON: Time 185040, Note Name: F6, Velocity: 64
Note ON: Time 185040, Note Name: C7, Velocity: 77
Note OFF: Time 185280, Note Name: F6
Note OFF: Time 185280, Note Name: D6
Note ON: Time 185280, Note Name: D#6, Velocity: 65
Note ON: Time 185280, Note Name: A#5, Velocity: 65
Note OFF: Time 185520, Note Name: A#5
Note OFF: Time 185520, Note Name: D#6
Note OFF: Time 185520, Note Name: C7
Note ON: Time 185520, Note Name: A#6, Velocity: 75
Note ON: Time 185520, Note Name: D#6, Velocity: 63
Note ON: Time 185520, Note Name: A#5, Velocity: 63
Note OFF: Time 185760, Note Name: A#5
Note OFF: Time 185760, Note Name: D#6
Note OFF: Time 185760, Note Name: A#6
Note ON: Time 185760, Note Name: D#6, Velocity: 69
Note ON: Time 185760, Note Name: C6, Velocity: 69
Note OFF: Time 186000, Note Name: C6
Note OFF: Time 186000, Note Name: D#6
Note ON: Time 186000, Note Name: G#6, Velocity: 79
Note ON: Time 186000, Note Name: F6, Velocity: 67
Note ON: Time 186000, Note Name: D6, Velocity: 67
Note OFF: Time 186240, Note Name: D6
Note OFF: Time 186240, Note Name: F6
Note OFF: Time 186240, Note Name: G#6
Note ON: Time 186240, Note Name: G5, Velocity: 70
Note ON: Time 186240, Note Name: G6, Velocity: 88
Note ON: Time 186360, Note Name: A#5, Velocity: 49
Note OFF: Time 186480, Note Name: A#5
Note ON: Time 186480, Note Name: C6, Velocity: 55
Note OFF: Time 186600, Note Name: C6
Note ON: Time 186600, Note Name: A#5, Velocity: 50
Note OFF: Time 186720, Note Name: A#5
Note ON: Time 186720, Note Name: C6, Velocity: 55
Note OFF: Time 186840, Note Name: C6
Note ON: Time 186840, Note Name: A#5, Velocity: 47
Note OFF: Time 186960, Note Name: A#5
Note ON: Time 186960, Note Name: C6, Velocity: 55
Note OFF: Time 187080, Note Name: C6
Note ON: Time 187080, Note Name: A#5, Velocity: 48
Note OFF: Time 187200, Note Name: A#5
Note OFF: Time 187200, Note Name: G6
Note OFF: Time 187200, Note Name: G5
Note ON: Time 187200, Note Name: F5, Velocity: 70
Note ON: Time 187200, Note Name: F6, Velocity: 80
Note ON: Time 187320, Note Name: G#5, Velocity: 46
Note OFF: Time 187440, Note Name: G#5
Note ON: Time 187440, Note Name: A#5, Velocity: 54
Note OFF: Time 187560, Note Name: A#5
Note ON: Time 187560, Note Name: G#5, Velocity: 50
Note OFF: Time 187680, Note Name: G#5
Note ON: Time 187680, Note Name: A#5, Velocity: 53
Note OFF: Time 187800, Note Name: A#5
Note ON: Time 187800, Note Name: G#5, Velocity: 47
Note OFF: Time 187920, Note Name: G#5
Note ON: Time 187920, Note Name: A#5, Velocity: 53
Note OFF: Time 188040, Note Name: A#5
Note ON: Time 188040, Note Name: G#5, Velocity: 48
Note OFF: Time 188160, Note Name: G#5
Note OFF: Time 188160, Note Name: F6
Note OFF: Time 188160, Note Name: F5
Note ON: Time 188160, Note Name: D#6, Velocity: 70
Note ON: Time 188160, Note Name: G5, Velocity: 53
Note OFF: Time 188280, Note Name: G5
Note ON: Time 188280, Note Name: D#5, Velocity: 48
Note OFF: Time 188400, Note Name: D#5
Note ON: Time 188400, Note Name: F5, Velocity: 53
Note OFF: Time 188520, Note Name: F5
Note ON: Time 188520, Note Name: D#5, Velocity: 48
Note OFF: Time 188640, Note Name: D#5
Note OFF: Time 188640, Note Name: D#6
Note ON: Time 188640, Note Name: C6, Velocity: 68
Note ON: Time 188760, Note Name: D#5, Velocity: 48
Note OFF: Time 188880, Note Name: D#5
Note OFF: Time 188880, Note Name: C6
Note ON: Time 188880, Note Name: A#5, Velocity: 60
Note ON: Time 189000, Note Name: D#5, Velocity: 48
Note OFF: Time 189120, Note Name: D#5
Note OFF: Time 189120, Note Name: A#5
Note ON: Time 189120, Note Name: A#5, Velocity: 68
Note ON: Time 189120, Note Name: D#5, Velocity: 53
Note OFF: Time 189240, Note Name: D#5
Note ON: Time 189240, Note Name: A#4, Velocity: 48
Note OFF: Time 189360, Note Name: A#4
Note OFF: Time 189360, Note Name: A#5
Note ON: Time 189360, Note Name: D5, Velocity: 53
Note ON: Time 189360, Note Name: G#5, Velocity: 58
Note OFF: Time 189480, Note Name: D5
Note ON: Time 189480, Note Name: A#4, Velocity: 48
Note OFF: Time 189600, Note Name: A#4
Note OFF: Time 189600, Note Name: G#5
Note ON: Time 189600, Note Name: D#5, Velocity: 53
Note ON: Time 189600, Note Name: G5, Velocity: 66
Note OFF: Time 189720, Note Name: D#5
Note ON: Time 189720, Note Name: A#4, Velocity: 48
Note OFF: Time 189840, Note Name: A#4
Note OFF: Time 189840, Note Name: G5
Note ON: Time 189840, Note Name: G#4, Velocity: 53
Note ON: Time 189840, Note Name: F5, Velocity: 57
Note OFF: Time 189960, Note Name: G#4
Note ON: Time 189960, Note Name: A#4, Velocity: 48
Note OFF: Time 190080, Note Name: A#4
Note OFF: Time 190080, Note Name: F5
Note ON: Time 190080, Note Name: G4, Velocity: 65
Note ON: Time 190080, Note Name: G5, Velocity: 79
Note ON: Time 190200, Note Name: A#4, Velocity: 44
Note OFF: Time 190320, Note Name: A#4
Note ON: Time 190320, Note Name: C5, Velocity: 49
Note OFF: Time 190440, Note Name: C5
Note ON: Time 190440, Note Name: A#4, Velocity: 45
Note OFF: Time 190560, Note Name: A#4
Note ON: Time 190560, Note Name: C5, Velocity: 49
Note OFF: Time 190680, Note Name: C5
Note ON: Time 190680, Note Name: A#4, Velocity: 42
Note OFF: Time 190800, Note Name: A#4
Note ON: Time 190800, Note Name: C5, Velocity: 49
Note OFF: Time 190920, Note Name: C5
Note ON: Time 190920, Note Name: A#4, Velocity: 43
Note OFF: Time 191040, Note Name: A#4
Note OFF: Time 191040, Note Name: G5
Note OFF: Time 191040, Note Name: G4
Note ON: Time 191040, Note Name: F4, Velocity: 65
Note ON: Time 191040, Note Name: F5, Velocity: 72
Note ON: Time 191160, Note Name: G#4, Velocity: 41
Note OFF: Time 191280, Note Name: G#4
Note ON: Time 191280, Note Name: A#4, Velocity: 48
Note OFF: Time 191400, Note Name: A#4
Note ON: Time 191400, Note Name: G#4, Velocity: 45
Note OFF: Time 191520, Note Name: G#4
Note ON: Time 191520, Note Name: A#4, Velocity: 47
Note OFF: Time 191640, Note Name: A#4
Note ON: Time 191640, Note Name: G#4, Velocity: 42
Note OFF: Time 191760, Note Name: G#4
Note ON: Time 191760, Note Name: A#4, Velocity: 47
Note OFF: Time 191880, Note Name: A#4
Note ON: Time 191880, Note Name: G#4, Velocity: 43
Note OFF: Time 192000, Note Name: G#4
Note OFF: Time 192000, Note Name: F5
Note OFF: Time 192000, Note Name: F4
Note ON: Time 192000, Note Name: G4, Velocity: 47
Note ON: Time 192000, Note Name: D#5, Velocity: 63
Note OFF: Time 192120, Note Name: G4
Note ON: Time 192120, Note Name: D#4, Velocity: 43
Note OFF: Time 192240, Note Name: D#4
Note ON: Time 192240, Note Name: F4, Velocity: 47
Note OFF: Time 192360, Note Name: F4
Note ON: Time 192360, Note Name: D#4, Velocity: 43
Note OFF: Time 192480, Note Name: D#4
Note OFF: Time 192480, Note Name: D#5
Note ON: Time 192480, Note Name: C5, Velocity: 61
Note ON: Time 192480, Note Name: C4, Velocity: 47
Note ON: Time 192480, Note Name: G#4, Velocity: 51
Note OFF: Time 192600, Note Name: C4
Note ON: Time 192600, Note Name: D#4, Velocity: 43
Note OFF: Time 192720, Note Name: D#4
Note OFF: Time 192720, Note Name: G#4
Note OFF: Time 192720, Note Name: C5
Note ON: Time 192720, Note Name: G4, Velocity: 45
Note ON: Time 192720, Note Name: A#3, Velocity: 47
Note ON: Time 192720, Note Name: A#4, Velocity: 54
Note OFF: Time 192840, Note Name: A#3
Note ON: Time 192840, Note Name: D#4, Velocity: 43
Note OFF: Time 192960, Note Name: D#4
Note OFF: Time 192960, Note Name: A#4
Note OFF: Time 192960, Note Name: G4
Note ON: Time 192960, Note Name: G4, Velocity: 47
Note ON: Time 192960, Note Name: A#4, Velocity: 61
Note OFF: Time 193080, Note Name: G4
Note ON: Time 193080, Note Name: A#3, Velocity: 43
Note OFF: Time 193200, Note Name: A#3
Note OFF: Time 193200, Note Name: A#4
Note ON: Time 193200, Note Name: G#4, Velocity: 52
Note ON: Time 193200, Note Name: F4, Velocity: 47
Note OFF: Time 193320, Note Name: F4
Note ON: Time 193320, Note Name: G#3, Velocity: 43
Note OFF: Time 193440, Note Name: G#3
Note OFF: Time 193440, Note Name: G#4
Note ON: Time 193440, Note Name: G4, Velocity: 59
Note ON: Time 193440, Note Name: D#4, Velocity: 47
Note OFF: Time 193560, Note Name: D#4
Note ON: Time 193560, Note Name: G3, Velocity: 43
Note OFF: Time 193680, Note Name: G3
Note OFF: Time 193680, Note Name: G4
Note ON: Time 193680, Note Name: F4, Velocity: 51
Note ON: Time 193680, Note Name: D4, Velocity: 51
Note ON: Time 193800, Note Name: F3, Velocity: 43
Note OFF: Time 193920, Note Name: F3
Note OFF: Time 193920, Note Name: D4
Note OFF: Time 193920, Note Name: F4
Note ON: Time 193920, Note Name: D#4, Velocity: 57
Note ON: Time 194040, Note Name: B3, Velocity: 46
Note ON: Time 194160, Note Name: G3, Velocity: 55
Note OFF: Time 194400, Note Name: G3
Note OFF: Time 194400, Note Name: B3
Note OFF: Time 194520, Note Name: D#4
Note ON: Time 194530, Note Name: A#3, Velocity: 47
Note ON: Time 194640, Note Name: G3, Velocity: 47
Note OFF: Time 194650, Note Name: A#3
Note OFF: Time 194760, Note Name: G3
Note ON: Time 194760, Note Name: D#4, Velocity: 47
Note ON: Time 194880, Note Name: A#3, Velocity: 47
Note OFF: Time 195000, Note Name: D#4
Note ON: Time 195000, Note Name: D#4, Velocity: 47
Note OFF: Time 195120, Note Name: D#4
Note ON: Time 195120, Note Name: D4, Velocity: 51
Note OFF: Time 195240, Note Name: D4
Note ON: Time 195240, Note Name: D#4, Velocity: 49
Note OFF: Time 195360, Note Name: D#4
Note OFF: Time 195360, Note Name: A#3
Note ON: Time 195360, Note Name: F4, Velocity: 52
Note OFF: Time 195480, Note Name: F4
Note ON: Time 195480, Note Name: G4, Velocity: 44
Note OFF: Time 195600, Note Name: G4
Note ON: Time 195600, Note Name: G#4, Velocity: 51
Note OFF: Time 195720, Note Name: G#4
Note ON: Time 195720, Note Name: F4, Velocity: 47
Note OFF: Time 195840, Note Name: F4
Note ON: Time 195840, Note Name: D#5, Velocity: 57
Note ON: Time 195960, Note Name: B4, Velocity: 46
Note ON: Time 196080, Note Name: G4, Velocity: 55
Note OFF: Time 196320, Note Name: G4
Note OFF: Time 196320, Note Name: B4
Note OFF: Time 196440, Note Name: D#5
Note ON: Time 196450, Note Name: A#4, Velocity: 47
Note ON: Time 196560, Note Name: G4, Velocity: 47
Note OFF: Time 196570, Note Name: A#4
Note OFF: Time 196680, Note Name: G4
Note ON: Time 196680, Note Name: D#5, Velocity: 47
Note ON: Time 196800, Note Name: A#4, Velocity: 47
Note OFF: Time 196920, Note Name: D#5
Note ON: Time 196920, Note Name: D#5, Velocity: 47
Note OFF: Time 197040, Note Name: D#5
Note ON: Time 197040, Note Name: D5, Velocity: 51
Note OFF: Time 197160, Note Name: D5
Note ON: Time 197160, Note Name: D#5, Velocity: 49
Note OFF: Time 197280, Note Name: D#5
Note OFF: Time 197280, Note Name: A#4
Note ON: Time 197280, Note Name: F5, Velocity: 52
Note OFF: Time 197400, Note Name: F5
Note ON: Time 197400, Note Name: G5, Velocity: 44
Note OFF: Time 197520, Note Name: G5
Note ON: Time 197520, Note Name: G#5, Velocity: 51
Note OFF: Time 197640, Note Name: G#5
Note ON: Time 197640, Note Name: F5, Velocity: 47
Note OFF: Time 197760, Note Name: F5
Note ON: Time 197760, Note Name: G5, Velocity: 51
Note OFF: Time 197880, Note Name: G5
Note ON: Time 197880, Note Name: F5, Velocity: 42
Note OFF: Time 198000, Note Name: F5
Note ON: Time 198000, Note Name: D#5, Velocity: 49
Note OFF: Time 198360, Note Name: D#5
Note ON: Time 198360, Note Name: C5, Velocity: 41
Note OFF: Time 198480, Note Name: C5
Note ON: Time 198480, Note Name: A#4, Velocity: 48
Note OFF: Time 198840, Note Name: A#4
Note ON: Time 198840, Note Name: G#4, Velocity: 42
Note OFF: Time 198960, Note Name: G#4
Note ON: Time 198960, Note Name: G4, Velocity: 48
Note OFF: Time 199320, Note Name: G4
Note ON: Time 199320, Note Name: F4, Velocity: 42
Note OFF: Time 199440, Note Name: F4
Note ON: Time 199440, Note Name: D#4, Velocity: 47
Note OFF: Time 199800, Note Name: D#4
Note ON: Time 199800, Note Name: C4, Velocity: 41
Note OFF: Time 199920, Note Name: C4
Note ON: Time 199920, Note Name: A#3, Velocity: 47
Note OFF: Time 200280, Note Name: A#3
Note ON: Time 200280, Note Name: G#3, Velocity: 38
Note OFF: Time 200400, Note Name: G#3
Note ON: Time 200400, Note Name: G3, Velocity: 43
Note OFF: Time 200760, Note Name: G3
Note ON: Time 200760, Note Name: F3, Velocity: 37
Note OFF: Time 200880, Note Name: F3
Note ON: Time 200880, Note Name: D#3, Velocity: 44
Note OFF: Time 201240, Note Name: D#3
Note ON: Time 201240, Note Name: F3, Velocity: 36
Note OFF: Time 201360, Note Name: F3
Note ON: Time 201360, Note Name: D#3, Velocity: 41
Note OFF: Time 201840, Note Name: D#3
Note ON: Time 203520, Note Name: D#5, Velocity: 45
Note ON: Time 203520, Note Name: A#5, Velocity: 53
Note OFF: Time 204480, Note Name: A#5
Note OFF: Time 204480, Note Name: D#5
Note ON: Time 204480, Note Name: C#6, Velocity: 55
Note ON: Time 204480, Note Name: C#5, Velocity: 46
Note OFF: Time 205440, Note Name: C#5
Note OFF: Time 205440, Note Name: C#6
Note ON: Time 205440, Note Name: C6, Velocity: 84
Note ON: Time 205440, Note Name: C5, Velocity: 70
Note OFF: Time 206160, Note Name: C5
Note OFF: Time 206160, Note Name: C6
Note ON: Time 206160, Note Name: C5, Velocity: 59
Note ON: Time 206160, Note Name: F5, Velocity: 70
Note OFF: Time 206280, Note Name: F5
Note OFF: Time 206280, Note Name: C5
Note ON: Time 206280, Note Name: C#5, Velocity: 56
Note ON: Time 206280, Note Name: A#5, Velocity: 67
Note OFF: Time 206340, Note Name: A#5
Note OFF: Time 206340, Note Name: C#5
Note ON: Time 206400, Note Name: A#5, Velocity: 70
Note ON: Time 206400, Note Name: C#5, Velocity: 59
Note OFF: Time 206640, Note Name: C#5
Note OFF: Time 206640, Note Name: A#5
Note ON: Time 206640, Note Name: A#4, Velocity: 59
Note ON: Time 206640, Note Name: D#5, Velocity: 70
Note OFF: Time 206760, Note Name: D#5
Note OFF: Time 206760, Note Name: A#4
Note ON: Time 206760, Note Name: C5, Velocity: 56
Note ON: Time 206760, Note Name: G#5, Velocity: 67
Note OFF: Time 206820, Note Name: G#5
Note OFF: Time 206820, Note Name: C5
Note ON: Time 206880, Note Name: G#5, Velocity: 70
Note ON: Time 206880, Note Name: C5, Velocity: 59
Note OFF: Time 207120, Note Name: C5
Note OFF: Time 207120, Note Name: G#5
Note ON: Time 207120, Note Name: G#4, Velocity: 59
Note ON: Time 207120, Note Name: C#5, Velocity: 70
Note OFF: Time 207240, Note Name: C#5
Note OFF: Time 207240, Note Name: G#4
Note ON: Time 207240, Note Name: G5, Velocity: 67
Note ON: Time 207240, Note Name: A#4, Velocity: 56
Note OFF: Time 207300, Note Name: A#4
Note OFF: Time 207300, Note Name: G5
Note ON: Time 207360, Note Name: G5, Velocity: 70
Note ON: Time 207360, Note Name: A#4, Velocity: 59
Note OFF: Time 207600, Note Name: A#4
Note OFF: Time 207600, Note Name: G5
Note ON: Time 207600, Note Name: C5, Velocity: 70
Note ON: Time 207600, Note Name: G4, Velocity: 59
Note OFF: Time 207720, Note Name: G4
Note OFF: Time 207720, Note Name: C5
Note ON: Time 207720, Note Name: G#4, Velocity: 56
Note ON: Time 207720, Note Name: F5, Velocity: 67
Note OFF: Time 207780, Note Name: F5
Note OFF: Time 207780, Note Name: G#4
Note ON: Time 207840, Note Name: G#4, Velocity: 59
Note ON: Time 207840, Note Name: F5, Velocity: 70
Note OFF: Time 208078, Note Name: F5
Note OFF: Time 208078, Note Name: G#4
Note ON: Time 208080, Note Name: F5, Velocity: 70
Note ON: Time 208080, Note Name: F4, Velocity: 59
Note OFF: Time 208318, Note Name: F4
Note OFF: Time 208318, Note Name: F5
Note ON: Time 208320, Note Name: F5, Velocity: 70
Note ON: Time 208320, Note Name: F4, Velocity: 59
Note OFF: Time 208800, Note Name: F4
Note OFF: Time 208800, Note Name: F5
Note ON: Time 208800, Note Name: E4, Velocity: 50
Note ON: Time 208800, Note Name: E5, Velocity: 59
Note OFF: Time 209040, Note Name: E5
Note OFF: Time 209040, Note Name: E4
Note ON: Time 209040, Note Name: C5, Velocity: 50
Note ON: Time 209040, Note Name: F4, Velocity: 50
Note ON: Time 209040, Note Name: F5, Velocity: 59
Note OFF: Time 209280, Note Name: F5
Note OFF: Time 209280, Note Name: F4
Note OFF: Time 209280, Note Name: C5
Note ON: Time 209280, Note Name: C5, Velocity: 48
Note ON: Time 209280, Note Name: G4, Velocity: 48
Note ON: Time 209280, Note Name: G5, Velocity: 57
Note OFF: Time 209520, Note Name: G5
Note OFF: Time 209520, Note Name: G4
Note OFF: Time 209520, Note Name: C5
Note ON: Time 209520, Note Name: G#5, Velocity: 60
Note ON: Time 209520, Note Name: C5, Velocity: 51
Note ON: Time 209520, Note Name: G#4, Velocity: 51
Note OFF: Time 209760, Note Name: G#4
Note OFF: Time 209760, Note Name: C5
Note OFF: Time 209760, Note Name: G#5
Note ON: Time 209760, Note Name: A#4, Velocity: 54
Note ON: Time 209760, Note Name: C5, Velocity: 54
Note ON: Time 209760, Note Name: A#5, Velocity: 64
Note OFF: Time 210000, Note Name: A#5
Note OFF: Time 210000, Note Name: C5
Note OFF: Time 210000, Note Name: A#4
Note ON: Time 210000, Note Name: G4, Velocity: 57
Note ON: Time 210000, Note Name: C5, Velocity: 57
Note ON: Time 210000, Note Name: E5, Velocity: 57
Note ON: Time 210000, Note Name: G5, Velocity: 68
Note OFF: Time 210240, Note Name: G5
Note OFF: Time 210240, Note Name: G4
Note OFF: Time 210240, Note Name: C5
Note OFF: Time 210240, Note Name: E5
Note ON: Time 210240, Note Name: F5, Velocity: 66
Note ON: Time 210240, Note Name: G#4, Velocity: 66
Note ON: Time 210240, Note Name: G#5, Velocity: 78
Note ON: Time 210240, Note Name: C5, Velocity: 66
Note OFF: Time 210480, Note Name: C5
Note OFF: Time 210480, Note Name: F5
Note OFF: Time 210480, Note Name: G#4
Note OFF: Time 210480, Note Name: G#5
Note ON: Time 210720, Note Name: C5, Velocity: 75
Note ON: Time 210720, Note Name: C6, Velocity: 89
Note OFF: Time 210960, Note Name: C6
Note OFF: Time 210960, Note Name: C5
Note ON: Time 211200, Note Name: C7, Velocity: 102
Note ON: Time 211200, Note Name: C6, Velocity: 85
Note OFF: Time 211920, Note Name: C6
Note OFF: Time 211920, Note Name: C7
Note ON: Time 211920, Note Name: C6, Velocity: 65
Note ON: Time 211920, Note Name: C5, Velocity: 55
Note OFF: Time 212880, Note Name: C5
Note OFF: Time 212880, Note Name: C6
Note ON: Time 212880, Note Name: G#5, Velocity: 62
Note ON: Time 212880, Note Name: G#4, Velocity: 62
Note OFF: Time 213120, Note Name: G#4
Note OFF: Time 213120, Note Name: G#5
Note ON: Time 213120, Note Name: G4, Velocity: 55
Note ON: Time 213120, Note Name: G5, Velocity: 65
Note OFF: Time 213360, Note Name: G5
Note OFF: Time 213360, Note Name: G4
Note ON: Time 213360, Note Name: E5, Velocity: 57
Note ON: Time 213360, Note Name: E4, Velocity: 48
Note OFF: Time 213600, Note Name: E4
Note OFF: Time 213600, Note Name: E5
Note ON: Time 213600, Note Name: C#4, Velocity: 48
Note ON: Time 213600, Note Name: C#5, Velocity: 57
Note OFF: Time 213840, Note Name: C#5
Note OFF: Time 213840, Note Name: C#4
Note ON: Time 213840, Note Name: C5, Velocity: 56
Note ON: Time 213840, Note Name: C4, Velocity: 47
Note OFF: Time 214078, Note Name: C4
Note OFF: Time 214078, Note Name: C5
Note ON: Time 214080, Note Name: C4, Velocity: 66
Note ON: Time 214080, Note Name: C5, Velocity: 78
Note OFF: Time 214320, Note Name: C5
Note OFF: Time 214320, Note Name: C4
Note ON: Time 214560, Note Name: C5, Velocity: 75
Note ON: Time 214560, Note Name: C6, Velocity: 89
Note OFF: Time 214800, Note Name: C6
Note OFF: Time 214800, Note Name: C5
Note ON: Time 215040, Note Name: C6, Velocity: 85
Note ON: Time 215040, Note Name: C7, Velocity: 102
Note OFF: Time 215760, Note Name: C7
Note OFF: Time 215760, Note Name: C6
Note ON: Time 215760, Note Name: C6, Velocity: 65
Note ON: Time 215760, Note Name: C5, Velocity: 55
Note OFF: Time 216720, Note Name: C5
Note OFF: Time 216720, Note Name: C6
Note ON: Time 216720, Note Name: G#4, Velocity: 62
Note ON: Time 216720, Note Name: G#5, Velocity: 62
Note OFF: Time 216960, Note Name: G#5
Note OFF: Time 216960, Note Name: G#4
Note ON: Time 216960, Note Name: F5, Velocity: 65
Note ON: Time 216960, Note Name: F4, Velocity: 55
Note OFF: Time 217200, Note Name: F4
Note OFF: Time 217200, Note Name: F5
Note ON: Time 217200, Note Name: D5, Velocity: 57
Note ON: Time 217200, Note Name: D4, Velocity: 48
Note OFF: Time 217440, Note Name: D4
Note OFF: Time 217440, Note Name: D5
Note ON: Time 217440, Note Name: B4, Velocity: 57
Note ON: Time 217440, Note Name: B3, Velocity: 48
Note OFF: Time 217680, Note Name: B3
Note OFF: Time 217680, Note Name: B4
Note ON: Time 217680, Note Name: A#4, Velocity: 56
Note ON: Time 217680, Note Name: A#3, Velocity: 47
Note OFF: Time 217920, Note Name: A#3
Note OFF: Time 217920, Note Name: A#4
Note ON: Time 217920, Note Name: A#4, Velocity: 78
Note ON: Time 217920, Note Name: A#3, Velocity: 66
Note OFF: Time 218160, Note Name: A#3
Note OFF: Time 218160, Note Name: A#4
Note ON: Time 218400, Note Name: A#4, Velocity: 75
Note ON: Time 218400, Note Name: A#5, Velocity: 89
Note OFF: Time 218640, Note Name: A#5
Note OFF: Time 218640, Note Name: A#4
Note ON: Time 218880, Note Name: A#6, Velocity: 102
Note ON: Time 218880, Note Name: A#5, Velocity: 85
Note OFF: Time 219600, Note Name: A#5
Note OFF: Time 219600, Note Name: A#6
Note ON: Time 219600, Note Name: A#5, Velocity: 65
Note ON: Time 219600, Note Name: A#4, Velocity: 55
Note OFF: Time 220560, Note Name: A#4
Note OFF: Time 220560, Note Name: A#5
Note ON: Time 220560, Note Name: F#4, Velocity: 62
Note ON: Time 220560, Note Name: F#5, Velocity: 62
Note OFF: Time 220800, Note Name: F#5
Note OFF: Time 220800, Note Name: F#4
Note ON: Time 220800, Note Name: F4, Velocity: 55
Note ON: Time 220800, Note Name: F5, Velocity: 65
Note OFF: Time 221040, Note Name: F5
Note OFF: Time 221040, Note Name: F4
Note ON: Time 221040, Note Name: D5, Velocity: 57
Note ON: Time 221040, Note Name: D4, Velocity: 48
Note OFF: Time 221280, Note Name: D4
Note OFF: Time 221280, Note Name: D5
Note ON: Time 221280, Note Name: B3, Velocity: 48
Note ON: Time 221280, Note Name: B4, Velocity: 57
Note OFF: Time 221520, Note Name: B4
Note OFF: Time 221520, Note Name: B3
Note ON: Time 221520, Note Name: A#4, Velocity: 56
Note ON: Time 221520, Note Name: A#3, Velocity: 47
Note OFF: Time 221758, Note Name: A#3
Note OFF: Time 221758, Note Name: A#4
Note ON: Time 221760, Note Name: A#4, Velocity: 78
Note ON: Time 221760, Note Name: A#3, Velocity: 66
Note OFF: Time 222000, Note Name: A#3
Note OFF: Time 222000, Note Name: A#4
Note ON: Time 222240, Note Name: A#5, Velocity: 89
Note ON: Time 222240, Note Name: A#4, Velocity: 75
Note OFF: Time 222480, Note Name: A#4
Note OFF: Time 222480, Note Name: A#5
Note ON: Time 222720, Note Name: A#5, Velocity: 78
Note ON: Time 222720, Note Name: A#6, Velocity: 90
Note OFF: Time 222960, Note Name: A#6
Note OFF: Time 222960, Note Name: A#5
Note ON: Time 223200, Note Name: B5, Velocity: 86
Note ON: Time 223200, Note Name: B6, Velocity: 103
Note OFF: Time 223440, Note Name: B6
Note OFF: Time 223440, Note Name: B5
Note ON: Time 223680, Note Name: B4, Velocity: 55
Note OFF: Time 224640, Note Name: B4
Note ON: Time 224640, Note Name: A#4, Velocity: 50
Note OFF: Time 225600, Note Name: A#4
Note ON: Time 225600, Note Name: G#4, Velocity: 48
Note OFF: Time 225840, Note Name: G#4
Note ON: Time 227520, Note Name: C5, Velocity: 55
Note OFF: Time 228480, Note Name: C5
Note ON: Time 228480, Note Name: A#4, Velocity: 50
Note OFF: Time 229440, Note Name: A#4
Note ON: Time 229440, Note Name: A4, Velocity: 48
Note OFF: Time 229680, Note Name: A4
Note ON: Time 231360, Note Name: F5, Velocity: 55
Note OFF: Time 232320, Note Name: F5
Note ON: Time 232320, Note Name: D#5, Velocity: 50
Note OFF: Time 233280, Note Name: D#5
Note ON: Time 233280, Note Name: D5, Velocity: 48
Note OFF: Time 233520, Note Name: D5
Note ON: Time 235200, Note Name: A#4, Velocity: 51
Note ON: Time 235200, Note Name: A#5, Velocity: 60
Note OFF: Time 236160, Note Name: A#5
Note OFF: Time 236160, Note Name: A#4
Note ON: Time 236160, Note Name: G#4, Velocity: 52
Note ON: Time 236160, Note Name: G#5, Velocity: 61
Note OFF: Time 237120, Note Name: G#5
Note OFF: Time 237120, Note Name: G#4
Note ON: Time 237120, Note Name: G4, Velocity: 59
Note ON: Time 237120, Note Name: G5, Velocity: 70
Note OFF: Time 238560, Note Name: G5
Note OFF: Time 238560, Note Name: G4
Note ON: Time 238560, Note Name: G#4, Velocity: 38
Note ON: Time 238560, Note Name: G#5, Velocity: 45
Note OFF: Time 238800, Note Name: G#5
Note OFF: Time 238800, Note Name: G#4
Note ON: Time 238800, Note Name: F4, Velocity: 34
Note ON: Time 238800, Note Name: F5, Velocity: 40
Note OFF: Time 239040, Note Name: F5
Note OFF: Time 239040, Note Name: F4
Note ON: Time 239040, Note Name: D#5, Velocity: 39
Note ON: Time 239040, Note Name: G5, Velocity: 47
Note OFF: Time 240000, Note Name: G5
Note OFF: Time 240000, Note Name: D#5
Note ON: Time 240000, Note Name: A#4, Velocity: 40
Note ON: Time 240000, Note Name: F5, Velocity: 48
Note OFF: Time 240960, Note Name: F5
Note OFF: Time 240960, Note Name: A#4
Note ON: Time 240960, Note Name: G4, Velocity: 40
Note ON: Time 240960, Note Name: D#5, Velocity: 48
Note OFF: Time 241440, Note Name: D#5
Note OFF: Time 241440, Note Name: G4
Note ON: Time 241440, Note Name: G#4, Velocity: 35
Note ON: Time 241440, Note Name: C5, Velocity: 42
Note OFF: Time 241680, Note Name: C5
Note OFF: Time 241680, Note Name: G#4
Note ON: Time 241680, Note Name: A#4, Velocity: 41
Note ON: Time 241680, Note Name: G4, Velocity: 34
Note OFF: Time 241918, Note Name: G4
Note OFF: Time 241918, Note Name: A#4
Note ON: Time 241920, Note Name: G4, Velocity: 39
Note ON: Time 241920, Note Name: A#4, Velocity: 46
Note OFF: Time 242160, Note Name: A#4
Note OFF: Time 242160, Note Name: G4
Note ON: Time 242160, Note Name: F4, Velocity: 34
Note ON: Time 242160, Note Name: G#4, Velocity: 40
Note OFF: Time 242400, Note Name: G#4
Note OFF: Time 242400, Note Name: F4
Note ON: Time 242400, Note Name: D#4, Velocity: 34
Note ON: Time 242400, Note Name: G4, Velocity: 40
Note OFF: Time 242640, Note Name: G4
Note OFF: Time 242640, Note Name: D#4
Note ON: Time 242640, Note Name: A#3, Velocity: 34
Note ON: Time 242640, Note Name: F4, Velocity: 40
Note OFF: Time 242880, Note Name: F4
Note OFF: Time 242880, Note Name: A#3
Note ON: Time 242880, Note Name: D#4, Velocity: 42
Note OFF: Time 243000, Note Name: D#4
Note ON: Time 243000, Note Name: A#3, Velocity: 36
Note OFF: Time 243120, Note Name: A#3
Note ON: Time 243120, Note Name: C4, Velocity: 36
Note OFF: Time 243240, Note Name: C4
Note ON: Time 243240, Note Name: A#3, Velocity: 36
Note OFF: Time 243360, Note Name: A#3
Note ON: Time 243360, Note Name: A3, Velocity: 42
Note OFF: Time 243480, Note Name: A3
Note ON: Time 243480, Note Name: A#3, Velocity: 36
Note OFF: Time 243600, Note Name: A#3
Note ON: Time 243600, Note Name: G4, Velocity: 36
Note OFF: Time 243720, Note Name: G4
Note ON: Time 243720, Note Name: D#4, Velocity: 36
Note OFF: Time 243840, Note Name: D#4
Note ON: Time 243840, Note Name: D4, Velocity: 42
Note OFF: Time 243960, Note Name: D4
Note ON: Time 243960, Note Name: D#4, Velocity: 36
Note OFF: Time 244080, Note Name: D#4
Note ON: Time 244080, Note Name: F4, Velocity: 36
Note OFF: Time 244200, Note Name: F4
Note ON: Time 244200, Note Name: G4, Velocity: 36
Note OFF: Time 244320, Note Name: G4
Note ON: Time 244320, Note Name: G#4, Velocity: 42
Note OFF: Time 244440, Note Name: G#4
Note ON: Time 244440, Note Name: A4, Velocity: 37
Note OFF: Time 244560, Note Name: A4
Note ON: Time 244560, Note Name: C5, Velocity: 37
Note OFF: Time 244680, Note Name: C5
Note ON: Time 244680, Note Name: A#4, Velocity: 37
Note OFF: Time 244800, Note Name: A#4
Note ON: Time 244800, Note Name: A4, Velocity: 42
Note OFF: Time 244920, Note Name: A4
Note ON: Time 244920, Note Name: A#4, Velocity: 35
Note OFF: Time 245040, Note Name: A#4
Note ON: Time 245040, Note Name: C5, Velocity: 35
Note OFF: Time 245160, Note Name: C5
Note ON: Time 245160, Note Name: A#4, Velocity: 35
Note OFF: Time 245280, Note Name: A#4
Note ON: Time 245280, Note Name: A4, Velocity: 42
Note OFF: Time 245400, Note Name: A4
Note ON: Time 245400, Note Name: A#4, Velocity: 35
Note OFF: Time 245520, Note Name: A#4
Note ON: Time 245520, Note Name: G5, Velocity: 35
Note OFF: Time 245640, Note Name: G5
Note ON: Time 245640, Note Name: D#5, Velocity: 35
Note OFF: Time 245760, Note Name: D#5
Note ON: Time 245760, Note Name: D5, Velocity: 47
Note OFF: Time 245880, Note Name: D5
Note ON: Time 245880, Note Name: D#5, Velocity: 40
Note OFF: Time 246000, Note Name: D#5
Note ON: Time 246000, Note Name: F5, Velocity: 40
Note OFF: Time 246120, Note Name: F5
Note ON: Time 246120, Note Name: G5, Velocity: 40
Note OFF: Time 246240, Note Name: G5
Note ON: Time 246240, Note Name: G#5, Velocity: 48
Note OFF: Time 246360, Note Name: G#5
Note ON: Time 246360, Note Name: A5, Velocity: 39
Note OFF: Time 246480, Note Name: A5
Note ON: Time 246480, Note Name: C6, Velocity: 39
Note OFF: Time 246600, Note Name: C6
Note ON: Time 246600, Note Name: A#5, Velocity: 39
Note OFF: Time 246720, Note Name: A#5
Note ON: Time 246720, Note Name: A5, Velocity: 46
Note OFF: Time 246840, Note Name: A5
Note ON: Time 246840, Note Name: A#5, Velocity: 38
Note OFF: Time 246960, Note Name: A#5
Note ON: Time 246960, Note Name: C6, Velocity: 39
Note OFF: Time 247080, Note Name: C6
Note ON: Time 247080, Note Name: A#5, Velocity: 39
Note OFF: Time 247200, Note Name: A#5
Note ON: Time 247200, Note Name: A5, Velocity: 48
Note OFF: Time 247320, Note Name: A5
Note ON: Time 247320, Note Name: A#5, Velocity: 40
Note OFF: Time 247440, Note Name: A#5
Note ON: Time 247440, Note Name: G6, Velocity: 41
Note OFF: Time 247560, Note Name: G6
Note ON: Time 247560, Note Name: D#6, Velocity: 41
Note OFF: Time 247680, Note Name: D#6
Note ON: Time 247680, Note Name: D6, Velocity: 57
Note OFF: Time 247800, Note Name: D6
Note ON: Time 247800, Note Name: D#6, Velocity: 50
Note OFF: Time 247920, Note Name: D#6
Note ON: Time 247920, Note Name: F6, Velocity: 50
Note OFF: Time 248040, Note Name: F6
Note ON: Time 248040, Note Name: G6, Velocity: 51
Note OFF: Time 248160, Note Name: G6
Note ON: Time 248160, Note Name: G#6, Velocity: 61
Note OFF: Time 248280, Note Name: G#6
Note ON: Time 248280, Note Name: A6, Velocity: 50
Note OFF: Time 248400, Note Name: A6
Note ON: Time 248400, Note Name: C7, Velocity: 50
Note OFF: Time 248520, Note Name: C7
Note ON: Time 248520, Note Name: A#6, Velocity: 51
Note OFF: Time 248640, Note Name: A#6
Note ON: Time 248640, Note Name: A6, Velocity: 63
Note OFF: Time 248760, Note Name: A6
Note ON: Time 248760, Note Name: A#6, Velocity: 54
Note OFF: Time 248880, Note Name: A#6
Note ON: Time 248880, Note Name: G#6, Velocity: 53
Note OFF: Time 249000, Note Name: G#6
Note ON: Time 249000, Note Name: G6, Velocity: 53
Note OFF: Time 249120, Note Name: G6
Note ON: Time 249120, Note Name: F6, Velocity: 60
Note OFF: Time 249240, Note Name: F6
Note ON: Time 249240, Note Name: D#6, Velocity: 51
Note OFF: Time 249360, Note Name: D#6
Note ON: Time 249360, Note Name: D6, Velocity: 51
Note OFF: Time 249480, Note Name: D6
Note ON: Time 249480, Note Name: C6, Velocity: 50
Note OFF: Time 249600, Note Name: C6
Note ON: Time 249600, Note Name: A#5, Velocity: 59
Note OFF: Time 249720, Note Name: A#5
Note ON: Time 249720, Note Name: G#5, Velocity: 45
Note OFF: Time 249840, Note Name: G#5
Note ON: Time 249840, Note Name: G5, Velocity: 45
Note OFF: Time 249960, Note Name: G5
Note ON: Time 249960, Note Name: F5, Velocity: 45
Note OFF: Time 250080, Note Name: F5
Note ON: Time 250080, Note Name: D#5, Velocity: 52
Note OFF: Time 250200, Note Name: D#5
Note ON: Time 250200, Note Name: D5, Velocity: 47
Note OFF: Time 250320, Note Name: D5
Note ON: Time 250320, Note Name: F5, Velocity: 43
Note OFF: Time 250440, Note Name: F5
Note ON: Time 250440, Note Name: G#5, Velocity: 41
Note OFF: Time 250560, Note Name: G#5
Note ON: Time 250560, Note Name: D#5, Velocity: 39
Note ON: Time 250560, Note Name: G5, Velocity: 47
Note OFF: Time 251520, Note Name: G5
Note OFF: Time 251520, Note Name: D#5
Note ON: Time 251520, Note Name: A#4, Velocity: 40
Note ON: Time 251520, Note Name: F5, Velocity: 48
Note OFF: Time 252480, Note Name: F5
Note OFF: Time 252480, Note Name: A#4
Note ON: Time 252480, Note Name: G4, Velocity: 40
Note ON: Time 252480, Note Name: D#5, Velocity: 48
Note OFF: Time 252960, Note Name: D#5
Note OFF: Time 252960, Note Name: G4
Note ON: Time 252960, Note Name: G#4, Velocity: 35
Note ON: Time 252960, Note Name: C5, Velocity: 42
Note OFF: Time 253200, Note Name: C5
Note OFF: Time 253200, Note Name: G#4
Note ON: Time 253200, Note Name: A#4, Velocity: 41
Note ON: Time 253200, Note Name: G4, Velocity: 34
Note OFF: Time 253438, Note Name: G4
Note OFF: Time 253438, Note Name: A#4
Note ON: Time 253440, Note Name: G4, Velocity: 39
Note ON: Time 253440, Note Name: A#4, Velocity: 46
Note OFF: Time 253680, Note Name: A#4
Note OFF: Time 253680, Note Name: G4
Note ON: Time 253680, Note Name: F4, Velocity: 34
Note ON: Time 253680, Note Name: G#4, Velocity: 40
Note OFF: Time 253920, Note Name: G#4
Note OFF: Time 253920, Note Name: F4
Note ON: Time 253920, Note Name: D#4, Velocity: 34
Note ON: Time 253920, Note Name: G4, Velocity: 40
Note OFF: Time 254160, Note Name: G4
Note OFF: Time 254160, Note Name: D#4
Note ON: Time 254160, Note Name: A#3, Velocity: 34
Note ON: Time 254160, Note Name: F4, Velocity: 40
Note OFF: Time 254400, Note Name: F4
Note OFF: Time 254400, Note Name: A#3
Note ON: Time 254400, Note Name: D#4, Velocity: 42
Note OFF: Time 254520, Note Name: D#4
Note ON: Time 254520, Note Name: A#3, Velocity: 36
Note OFF: Time 254640, Note Name: A#3
Note ON: Time 254640, Note Name: C4, Velocity: 36
Note OFF: Time 254760, Note Name: C4
Note ON: Time 254760, Note Name: A#3, Velocity: 36
Note OFF: Time 254880, Note Name: A#3
Note ON: Time 254880, Note Name: A3, Velocity: 42
Note OFF: Time 255000, Note Name: A3
Note ON: Time 255000, Note Name: A#3, Velocity: 36
Note OFF: Time 255120, Note Name: A#3
Note ON: Time 255120, Note Name: G4, Velocity: 36
Note OFF: Time 255240, Note Name: G4
Note ON: Time 255240, Note Name: D#4, Velocity: 36
Note OFF: Time 255360, Note Name: D#4
Note ON: Time 255360, Note Name: D4, Velocity: 42
Note OFF: Time 255480, Note Name: D4
Note ON: Time 255480, Note Name: D#4, Velocity: 36
Note OFF: Time 255600, Note Name: D#4
Note ON: Time 255600, Note Name: F4, Velocity: 36
Note OFF: Time 255720, Note Name: F4
Note ON: Time 255720, Note Name: G4, Velocity: 36
Note OFF: Time 255840, Note Name: G4
Note ON: Time 255840, Note Name: G#4, Velocity: 42
Note OFF: Time 255960, Note Name: G#4
Note ON: Time 255960, Note Name: A4, Velocity: 37
Note OFF: Time 256080, Note Name: A4
Note ON: Time 256080, Note Name: C5, Velocity: 37
Note OFF: Time 256200, Note Name: C5
Note ON: Time 256200, Note Name: A#4, Velocity: 37
Note OFF: Time 256320, Note Name: A#4
Note ON: Time 256320, Note Name: A4, Velocity: 42
Note OFF: Time 256440, Note Name: A4
Note ON: Time 256440, Note Name: A#4, Velocity: 35
Note OFF: Time 256560, Note Name: A#4
Note ON: Time 256560, Note Name: C5, Velocity: 35
Note OFF: Time 256680, Note Name: C5
Note ON: Time 256680, Note Name: A#4, Velocity: 35
Note OFF: Time 256800, Note Name: A#4
Note ON: Time 256800, Note Name: A4, Velocity: 42
Note OFF: Time 256920, Note Name: A4
Note ON: Time 256920, Note Name: A#4, Velocity: 37
Note OFF: Time 257040, Note Name: A#4
Note ON: Time 257040, Note Name: G5, Velocity: 37
Note OFF: Time 257160, Note Name: G5
Note ON: Time 257160, Note Name: D#5, Velocity: 37
Note OFF: Time 257280, Note Name: D#5
Note ON: Time 257280, Note Name: D5, Velocity: 51
Note OFF: Time 257400, Note Name: D5
Note ON: Time 257400, Note Name: D#5, Velocity: 42
Note OFF: Time 257520, Note Name: D#5
Note ON: Time 257520, Note Name: F5, Velocity: 42
Note OFF: Time 257640, Note Name: F5
Note ON: Time 257640, Note Name: G5, Velocity: 42
Note OFF: Time 257760, Note Name: G5
Note ON: Time 257760, Note Name: G#5, Velocity: 51
Note OFF: Time 257880, Note Name: G#5
Note ON: Time 257880, Note Name: A5, Velocity: 43
Note OFF: Time 258000, Note Name: A5
Note ON: Time 258000, Note Name: C6, Velocity: 42
Note OFF: Time 258120, Note Name: C6
Note ON: Time 258120, Note Name: A#5, Velocity: 42
Note OFF: Time 258240, Note Name: A#5
Note ON: Time 258240, Note Name: A5, Velocity: 53
Note OFF: Time 258360, Note Name: A5
Note ON: Time 258360, Note Name: A#5, Velocity: 44
Note OFF: Time 258480, Note Name: A#5
Note ON: Time 258480, Note Name: C6, Velocity: 45
Note OFF: Time 258600, Note Name: C6
Note ON: Time 258600, Note Name: A#5, Velocity: 46
Note OFF: Time 258720, Note Name: A#5
Note ON: Time 258720, Note Name: A5, Velocity: 54
Note OFF: Time 258840, Note Name: A5
Note ON: Time 258840, Note Name: A#5, Velocity: 45
Note OFF: Time 258960, Note Name: A#5
Note ON: Time 258960, Note Name: G6, Velocity: 47
Note OFF: Time 259080, Note Name: G6
Note ON: Time 259080, Note Name: D#6, Velocity: 47
Note OFF: Time 259200, Note Name: D#6
Note ON: Time 259200, Note Name: D6, Velocity: 57
Note OFF: Time 259320, Note Name: D6
Note ON: Time 259320, Note Name: D#6, Velocity: 50
Note OFF: Time 259440, Note Name: D#6
Note ON: Time 259440, Note Name: F6, Velocity: 50
Note OFF: Time 259560, Note Name: F6
Note ON: Time 259560, Note Name: G6, Velocity: 51
Note OFF: Time 259680, Note Name: G6
Note ON: Time 259680, Note Name: G#6, Velocity: 65
Note OFF: Time 259800, Note Name: G#6
Note ON: Time 259800, Note Name: A6, Velocity: 52
Note OFF: Time 259920, Note Name: A6
Note ON: Time 259920, Note Name: C7, Velocity: 54
Note OFF: Time 260040, Note Name: C7
Note ON: Time 260040, Note Name: A#6, Velocity: 51
Note OFF: Time 260158, Note Name: A#6
Note ON: Time 260160, Note Name: A#6, Velocity: 73
Note OFF: Time 260280, Note Name: A#6
Note ON: Time 260280, Note Name: A#4, Velocity: 47
Note OFF: Time 260400, Note Name: A#4
Note ON: Time 260400, Note Name: C5, Velocity: 47
Note OFF: Time 260520, Note Name: C5
Note ON: Time 260520, Note Name: A#4, Velocity: 47
Note OFF: Time 260640, Note Name: A#4
Note ON: Time 260640, Note Name: A4, Velocity: 56
Note OFF: Time 260760, Note Name: A4
Note ON: Time 260760, Note Name: A#4, Velocity: 41
Note OFF: Time 260880, Note Name: A#4
Note ON: Time 260880, Note Name: G5, Velocity: 42
Note OFF: Time 261000, Note Name: G5
Note ON: Time 261000, Note Name: D#5, Velocity: 44
Note OFF: Time 261120, Note Name: D#5
Note ON: Time 261120, Note Name: D5, Velocity: 59
Note OFF: Time 261240, Note Name: D5
Note ON: Time 261240, Note Name: D#5, Velocity: 48
Note OFF: Time 261360, Note Name: D#5
Note ON: Time 261360, Note Name: F5, Velocity: 45
Note OFF: Time 261480, Note Name: F5
Note ON: Time 261480, Note Name: G5, Velocity: 42
Note OFF: Time 261600, Note Name: G5
Note ON: Time 261600, Note Name: G#5, Velocity: 54
Note OFF: Time 261720, Note Name: G#5
Note ON: Time 261720, Note Name: A5, Velocity: 41
Note OFF: Time 261840, Note Name: A5
Note ON: Time 261840, Note Name: C6, Velocity: 41
Note OFF: Time 261960, Note Name: C6
Note ON: Time 261960, Note Name: A#5, Velocity: 41
Note OFF: Time 262080, Note Name: A#5
Note ON: Time 262080, Note Name: A#5, Velocity: 60
Note OFF: Time 262200, Note Name: A#5
Note ON: Time 262200, Note Name: A#3, Velocity: 39
Note OFF: Time 262320, Note Name: A#3
Note ON: Time 262320, Note Name: C4, Velocity: 36
Note OFF: Time 262440, Note Name: C4
Note ON: Time 262440, Note Name: A#3, Velocity: 36
Note OFF: Time 262560, Note Name: A#3
Note ON: Time 262560, Note Name: A3, Velocity: 45
Note OFF: Time 262680, Note Name: A3
Note ON: Time 262680, Note Name: A#3, Velocity: 34
Note OFF: Time 262800, Note Name: A#3
Note ON: Time 262800, Note Name: G4, Velocity: 34
Note OFF: Time 262920, Note Name: G4
Note ON: Time 262920, Note Name: D#4, Velocity: 37
Note OFF: Time 263040, Note Name: D#4
Note ON: Time 263040, Note Name: A3, Velocity: 50
Note OFF: Time 263160, Note Name: A3
Note ON: Time 263160, Note Name: A#3, Velocity: 37
Note OFF: Time 263280, Note Name: A#3
Note ON: Time 263280, Note Name: G#4, Velocity: 35
Note OFF: Time 263400, Note Name: G#4
Note ON: Time 263400, Note Name: F4, Velocity: 35
Note OFF: Time 263520, Note Name: F4
Note ON: Time 263520, Note Name: D4, Velocity: 45
Note OFF: Time 263640, Note Name: D4
Note ON: Time 263640, Note Name: C5, Velocity: 39
Note OFF: Time 263760, Note Name: C5
Note ON: Time 263760, Note Name: A#4, Velocity: 39
Note OFF: Time 263880, Note Name: A#4
Note ON: Time 263880, Note Name: D4, Velocity: 39
Note OFF: Time 264000, Note Name: D4
Note ON: Time 264000, Note Name: D#4, Velocity: 55
Note OFF: Time 264960, Note Name: D#4
Note ON: Time 264960, Note Name: A#3, Velocity: 50
Note OFF: Time 265920, Note Name: A#3
Note ON: Time 265920, Note Name: G3, Velocity: 48
Note OFF: Time 266160, Note Name: G3
Note ON: Time 267840, Note Name: D#4, Velocity: 46
Note ON: Time 267840, Note Name: G4, Velocity: 55
Note OFF: Time 268800, Note Name: G4
Note OFF: Time 268800, Note Name: D#4
Note ON: Time 268800, Note Name: F4, Velocity: 50
Note ON: Time 268800, Note Name: A#3, Velocity: 42
Note OFF: Time 269760, Note Name: A#3
Note OFF: Time 269760, Note Name: F4
Note ON: Time 269760, Note Name: D#4, Velocity: 48
Note ON: Time 269760, Note Name: G3, Velocity: 40
Note OFF: Time 270000, Note Name: G3
Note OFF: Time 270000, Note Name: D#4
Note ON: Time 271440, Note Name: D#4, Velocity: 31
Note ON: Time 271440, Note Name: G4, Velocity: 39
Note OFF: Time 271680, Note Name: G4
Note OFF: Time 271680, Note Name: D#4
Note ON: Time 271680, Note Name: A#3, Velocity: 42
Note ON: Time 271680, Note Name: F4, Velocity: 52
Note OFF: Time 272640, Note Name: F4
Note OFF: Time 272640, Note Name: A#3
Note ON: Time 272640, Note Name: G3, Velocity: 37
Note ON: Time 272640, Note Name: D#4, Velocity: 46
Note OFF: Time 272880, Note Name: D#4
Note OFF: Time 272880, Note Name: G3
Note ON: Time 273360, Note Name: D#5, Velocity: 31
Note ON: Time 273360, Note Name: G5, Velocity: 39
Note OFF: Time 273600, Note Name: G5
Note OFF: Time 273600, Note Name: D#5
Note ON: Time 273600, Note Name: A#4, Velocity: 44
Note ON: Time 273600, Note Name: F5, Velocity: 46
Note OFF: Time 274560, Note Name: F5
Note OFF: Time 274560, Note Name: A#4
Note ON: Time 274560, Note Name: G4, Velocity: 33
Note ON: Time 274560, Note Name: D#5, Velocity: 39
Note OFF: Time 274800, Note Name: D#5
Note OFF: Time 274800, Note Name: G4
Note ON: Time 275280, Note Name: D#6, Velocity: 37
Note ON: Time 275280, Note Name: G6, Velocity: 45
Note OFF: Time 275520, Note Name: G6
Note OFF: Time 275520, Note Name: D#6
Note ON: Time 275760, Note Name: D#6, Velocity: 41
Note ON: Time 275760, Note Name: G6, Velocity: 49
Note OFF: Time 276000, Note Name: G6
Note OFF: Time 276000, Note Name: D#6
Note ON: Time 276000, Note Name: A#5, Velocity: 45
Note ON: Time 276000, Note Name: F6, Velocity: 53
Note OFF: Time 276240, Note Name: F6
Note OFF: Time 276240, Note Name: A#5
Note ON: Time 276240, Note Name: D#6, Velocity: 50
Note ON: Time 276240, Note Name: G5, Velocity: 42
Note OFF: Time 276478, Note Name: G5
Note OFF: Time 276478, Note Name: D#6
Note ON: Time 276480, Note Name: G5, Velocity: 41
Note ON: Time 276480, Note Name: D#6, Velocity: 49
Note OFF: Time 276718, Note Name: G5
Note OFF: Time 276720, Note Name: D#6
Note ON: Time 277680, Note Name: D#4, Velocity: 38
Note ON: Time 277680, Note Name: G4, Velocity: 45
Note OFF: Time 277920, Note Name: G4
Note OFF: Time 277920, Note Name: D#4
Note ON: Time 277920, Note Name: A#3, Velocity: 41
Note ON: Time 277920, Note Name: F4, Velocity: 49
Note OFF: Time 278160, Note Name: F4
Note OFF: Time 278160, Note Name: A#3
Note ON: Time 278160, Note Name: D#4, Velocity: 46
Note ON: Time 278160, Note Name: G3, Velocity: 39
Note OFF: Time 278398, Note Name: G3
Note OFF: Time 278398, Note Name: D#4
Note ON: Time 278400, Note Name: G3, Velocity: 38
Note ON: Time 278400, Note Name: D#4, Velocity: 45
Note OFF: Time 278638, Note Name: G3
Note OFF: Time 278640, Note Name: D#4
Note ON: Time 279360, Note Name: F3, Velocity: 43
Note ON: Time 279360, Note Name: A#3, Velocity: 51
Note OFF: Time 279838, Note Name: F3
Note OFF: Time 280080, Note Name: A#3
Note ON: Time 280080, Note Name: D#3, Velocity: 46
Note ON: Time 280080, Note Name: G3, Velocity: 55
Note OFF: Time 280200, Note Name: G3
Note OFF: Time 280200, Note Name: D#3
Note ON: Time 280320, Note Name: F3, Velocity: 48
Note ON: Time 280320, Note Name: A#3, Velocity: 57
Note OFF: Time 280798, Note Name: F3
Note OFF: Time 281040, Note Name: A#3
Note ON: Time 281040, Note Name: D#3, Velocity: 52
Note ON: Time 281040, Note Name: G3, Velocity: 62
Note OFF: Time 281160, Note Name: G3
Note OFF: Time 281160, Note Name: D#3
Note ON: Time 281280, Note Name: F3, Velocity: 53
Note ON: Time 281280, Note Name: A#3, Velocity: 63
Note OFF: Time 281758, Note Name: F3
Note OFF: Time 282000, Note Name: A#3
Note ON: Time 282000, Note Name: D#3, Velocity: 56
Note ON: Time 282000, Note Name: G3, Velocity: 67
Note OFF: Time 282120, Note Name: G3
Note OFF: Time 282120, Note Name: D#3
Note ON: Time 282240, Note Name: D3, Velocity: 59
Note ON: Time 282240, Note Name: F3, Velocity: 59
Note ON: Time 282240, Note Name: A#3, Velocity: 70
Note OFF: Time 282960, Note Name: A#3
Note OFF: Time 282960, Note Name: F3
Note OFF: Time 282960, Note Name: D3
Note ON: Time 282960, Note Name: D4, Velocity: 75
Note ON: Time 282960, Note Name: F3, Velocity: 63
Note ON: Time 282960, Note Name: G#3, Velocity: 63
Note OFF: Time 283080, Note Name: G#3
Note OFF: Time 283080, Note Name: F3
Note OFF: Time 283080, Note Name: D4
Note ON: Time 283200, Note Name: G3, Velocity: 41
Note ON: Time 283200, Note Name: D#4, Velocity: 41
Note OFF: Time 283440, Note Name: D#4
Note OFF: Time 283440, Note Name: G3
Note ON: Time 285120, Note Name: D#4, Velocity: 41
Note OFF: Time 285240, Note Name: D#4
Note ON: Time 285240, Note Name: F4, Velocity: 35
Note OFF: Time 285360, Note Name: F4
Note ON: Time 285360, Note Name: D#4, Velocity: 35
Note OFF: Time 285480, Note Name: D#4
Note ON: Time 285480, Note Name: D4, Velocity: 35
Note OFF: Time 285600, Note Name: D4
Note ON: Time 285600, Note Name: D#4, Velocity: 41
Note OFF: Time 285720, Note Name: D#4
Note ON: Time 285720, Note Name: F4, Velocity: 37
Note OFF: Time 285840, Note Name: F4
Note ON: Time 285840, Note Name: G4, Velocity: 37
Note OFF: Time 285960, Note Name: G4
Note ON: Time 285960, Note Name: G#4, Velocity: 37
Note OFF: Time 286080, Note Name: G#4
Note ON: Time 286080, Note Name: A#4, Velocity: 46
Note OFF: Time 286200, Note Name: A#4
Note ON: Time 286200, Note Name: C5, Velocity: 40
Note OFF: Time 286320, Note Name: C5
Note ON: Time 286320, Note Name: D5, Velocity: 41
Note OFF: Time 286440, Note Name: D5
Note ON: Time 286440, Note Name: D#5, Velocity: 43
Note OFF: Time 286560, Note Name: D#5
Note ON: Time 286560, Note Name: F5, Velocity: 44
Note OFF: Time 286680, Note Name: F5
Note ON: Time 286680, Note Name: G5, Velocity: 45
Note OFF: Time 286800, Note Name: G5
Note ON: Time 286800, Note Name: G#5, Velocity: 47
Note OFF: Time 286920, Note Name: G#5
Note ON: Time 286920, Note Name: A#5, Velocity: 48
Note OFF: Time 287040, Note Name: A#5
Note ON: Time 287040, Note Name: C6, Velocity: 55
Note OFF: Time 287200, Note Name: C6
Note ON: Time 287200, Note Name: D6, Velocity: 48
Note OFF: Time 287360, Note Name: D6
Note ON: Time 287360, Note Name: D#6, Velocity: 49
Note OFF: Time 287520, Note Name: D#6
Note ON: Time 287520, Note Name: F6, Velocity: 51
Note OFF: Time 287640, Note Name: F6
Note ON: Time 287640, Note Name: G6, Velocity: 54
Note OFF: Time 287760, Note Name: G6
Note ON: Time 287760, Note Name: G#6, Velocity: 58
Note OFF: Time 287880, Note Name: G#6
Note ON: Time 287880, Note Name: A#6, Velocity: 61
Note OFF: Time 288000, Note Name: A#6
Note ON: Time 288000, Note Name: C7, Velocity: 64
Note OFF: Time 288480, Note Name: C7
Note ON: Time 288480, Note Name: A#6, Velocity: 52
Note OFF: Time 288720, Note Name: A#6
Note ON: Time 288960, Note Name: D#6, Velocity: 57
Note OFF: Time 289080, Note Name: D#6
Note ON: Time 289080, Note Name: F6, Velocity: 42
Note OFF: Time 289200, Note Name: F6
Note ON: Time 289200, Note Name: D#6, Velocity: 43
Note OFF: Time 289320, Note Name: D#6
Note ON: Time 289320, Note Name: D6, Velocity: 45
Note OFF: Time 289440, Note Name: D6
Note ON: Time 289440, Note Name: D#6, Velocity: 47
Note OFF: Time 289536, Note Name: D#6
Note ON: Time 289536, Note Name: F6, Velocity: 48
Note OFF: Time 289632, Note Name: F6
Note ON: Time 289632, Note Name: G6, Velocity: 49
Note OFF: Time 289728, Note Name: G6
Note ON: Time 289728, Note Name: G#6, Velocity: 51
Note OFF: Time 289824, Note Name: G#6
Note ON: Time 289824, Note Name: A#6, Velocity: 52
Note OFF: Time 289920, Note Name: A#6
Note ON: Time 289920, Note Name: C7, Velocity: 62
Note OFF: Time 290400, Note Name: C7
Note ON: Time 290400, Note Name: A#6, Velocity: 48
Note OFF: Time 290640, Note Name: A#6
Note ON: Time 290880, Note Name: D#6, Velocity: 65
Note OFF: Time 291000, Note Name: D#6
Note ON: Time 291000, Note Name: F6, Velocity: 50
Note OFF: Time 291120, Note Name: F6
Note ON: Time 291120, Note Name: D#6, Velocity: 54
Note OFF: Time 291240, Note Name: D#6
Note ON: Time 291240, Note Name: D6, Velocity: 58
Note OFF: Time 291360, Note Name: D6
Note ON: Time 291360, Note Name: D#6, Velocity: 62
Note OFF: Time 291456, Note Name: D#6
Note ON: Time 291456, Note Name: F6, Velocity: 64
Note OFF: Time 291552, Note Name: F6
Note ON: Time 291552, Note Name: G6, Velocity: 67
Note OFF: Time 291648, Note Name: G6
Note ON: Time 291648, Note Name: G#6, Velocity: 71
Note OFF: Time 291744, Note Name: G#6
Note ON: Time 291744, Note Name: A#6, Velocity: 74
Note OFF: Time 291840, Note Name: A#6
Note ON: Time 291840, Note Name: C6, Velocity: 77
Note ON: Time 291840, Note Name: C7, Velocity: 77
Note OFF: Time 292800, Note Name: C7
Note OFF: Time 292800, Note Name: C6
Note ON: Time 292800, Note Name: A#5, Velocity: 68
Note ON: Time 292800, Note Name: A#6, Velocity: 68
Note OFF: Time 293040, Note Name: A#6
Note OFF: Time 293040, Note Name: A#5
Note ON: Time 293760, Note Name: F3, Velocity: 79
Note ON: Time 293760, Note Name: G#3, Velocity: 79
Note ON: Time 293760, Note Name: A#3, Velocity: 79
Note ON: Time 293760, Note Name: D4, Velocity: 93
Note OFF: Time 293880, Note Name: D4
Note OFF: Time 293880, Note Name: F3
Note OFF: Time 293880, Note Name: G#3
Note OFF: Time 293880, Note Name: A#3
Note ON: Time 294720, Note Name: G3, Velocity: 79
Note ON: Time 294720, Note Name: A#3, Velocity: 79
Note ON: Time 294720, Note Name: D#4, Velocity: 93
Note OFF: Time 294840, Note Name: D#4
Note OFF: Time 294840, Note Name: A#3
Note OFF: Time 294840, Note Name: G3
Track 2: Piano left
Note ON: Time 960, Note Name: C2, Velocity: 27
Note ON: Time 960, Note Name: C3, Velocity: 32
Note OFF: Time 1680, Note Name: C3
Note OFF: Time 1680, Note Name: C2
Note ON: Time 1680, Note Name: C3, Velocity: 27
Note ON: Time 1680, Note Name: D#3, Velocity: 32
Note OFF: Time 1920, Note Name: D#3
Note OFF: Time 1920, Note Name: C3
Note ON: Time 1920, Note Name: A#2, Velocity: 28
Note ON: Time 1920, Note Name: E3, Velocity: 33
Note OFF: Time 2158, Note Name: E3
Note OFF: Time 2158, Note Name: A#2
Note ON: Time 2160, Note Name: A#2, Velocity: 28
Note ON: Time 2160, Note Name: E3, Velocity: 34
Note OFF: Time 2398, Note Name: E3
Note OFF: Time 2398, Note Name: A#2
Note ON: Time 2400, Note Name: A2, Velocity: 30
Note ON: Time 2400, Note Name: F3, Velocity: 36
Note OFF: Time 2640, Note Name: F3
Note OFF: Time 2640, Note Name: A2
Note ON: Time 2640, Note Name: F#3, Velocity: 38
Note ON: Time 2640, Note Name: G#2, Velocity: 32
Note OFF: Time 2880, Note Name: G#2
Note OFF: Time 2880, Note Name: F#3
Note ON: Time 2880, Note Name: G3, Velocity: 40
Note ON: Time 2880, Note Name: G2, Velocity: 34
Note OFF: Time 3120, Note Name: G3
Note ON: Time 3120, Note Name: A3, Velocity: 26
Note OFF: Time 3360, Note Name: A3
Note ON: Time 3360, Note Name: B3, Velocity: 29
Note OFF: Time 3600, Note Name: B3
Note OFF: Time 3600, Note Name: G2
Note ON: Time 3840, Note Name: G4, Velocity: 44
Note ON: Time 3840, Note Name: G3, Velocity: 44
Note OFF: Time 4080, Note Name: G4
Note ON: Time 4080, Note Name: A4, Velocity: 37
Note OFF: Time 4320, Note Name: A4
Note ON: Time 4320, Note Name: B4, Velocity: 33
Note OFF: Time 4560, Note Name: B4
Note OFF: Time 4560, Note Name: G3
Note ON: Time 4560, Note Name: A#4, Velocity: 33
Note ON: Time 4560, Note Name: G4, Velocity: 24
Note OFF: Time 4800, Note Name: G4
Note OFF: Time 4800, Note Name: A#4
Note ON: Time 4800, Note Name: G#4, Velocity: 45
Note ON: Time 4800, Note Name: F4, Velocity: 45
Note ON: Time 4800, Note Name: A#4, Velocity: 53
Note OFF: Time 5040, Note Name: F4
Note OFF: Time 5040, Note Name: G#4
Note ON: Time 5040, Note Name: D#4, Velocity: 39
Note ON: Time 5040, Note Name: G4, Velocity: 46
Note OFF: Time 5280, Note Name: G4
Note OFF: Time 5280, Note Name: D#4
Note ON: Time 5280, Note Name: D4, Velocity: 43
Note ON: Time 5280, Note Name: F4, Velocity: 51
Note OFF: Time 5520, Note Name: F4
Note OFF: Time 5520, Note Name: D4
Note OFF: Time 5520, Note Name: A#4
Note ON: Time 5520, Note Name: D4, Velocity: 46
Note ON: Time 5520, Note Name: A#3, Velocity: 39
Note OFF: Time 5760, Note Name: A#3
Note OFF: Time 5760, Note Name: D4
Note ON: Time 6240, Note Name: A#2, Velocity: 32
Note ON: Time 6240, Note Name: A#1, Velocity: 27
Note OFF: Time 6720, Note Name: A#1
Note OFF: Time 6720, Note Name: A#2
Note ON: Time 6720, Note Name: B1, Velocity: 27
Note ON: Time 6720, Note Name: B2, Velocity: 32
Note OFF: Time 7440, Note Name: B2
Note OFF: Time 7440, Note Name: B1
Note ON: Time 7440, Note Name: B2, Velocity: 27
Note ON: Time 7440, Note Name: F#3, Velocity: 32
Note OFF: Time 7680, Note Name: F#3
Note OFF: Time 7680, Note Name: B2
Note ON: Time 7680, Note Name: F#3, Velocity: 33
Note ON: Time 7680, Note Name: C#3, Velocity: 28
Note OFF: Time 7918, Note Name: C#3
Note OFF: Time 7918, Note Name: F#3
Note ON: Time 7920, Note Name: F#3, Velocity: 34
Note ON: Time 7920, Note Name: C#3, Velocity: 28
Note OFF: Time 8158, Note Name: C#3
Note OFF: Time 8158, Note Name: F#3
Note ON: Time 8160, Note Name: B2, Velocity: 30
Note ON: Time 8160, Note Name: F#3, Velocity: 36
Note OFF: Time 8398, Note Name: F#3
Note OFF: Time 8398, Note Name: B2
Note ON: Time 8400, Note Name: A#2, Velocity: 32
Note ON: Time 8400, Note Name: F#3, Velocity: 38
Note OFF: Time 8640, Note Name: A#2
Note ON: Time 8640, Note Name: A2, Velocity: 40
Note OFF: Time 8880, Note Name: F#3
Note ON: Time 8880, Note Name: F3, Velocity: 34
Note OFF: Time 9120, Note Name: F3
Note OFF: Time 9120, Note Name: A2
Note ON: Time 9120, Note Name: F3, Velocity: 30
Note ON: Time 9120, Note Name: A#2, Velocity: 25
Note OFF: Time 9360, Note Name: A#2
Note OFF: Time 9360, Note Name: F3
Note ON: Time 9360, Note Name: G#2, Velocity: 32
Note ON: Time 9360, Note Name: E3, Velocity: 38
Note OFF: Time 9600, Note Name: G#2
Note ON: Time 9600, Note Name: G2, Velocity: 40
Note OFF: Time 9840, Note Name: E3
Note ON: Time 9840, Note Name: D#3, Velocity: 34
Note OFF: Time 10080, Note Name: D#3
Note OFF: Time 10080, Note Name: G2
Note ON: Time 10080, Note Name: D#3, Velocity: 30
Note ON: Time 10080, Note Name: G#2, Velocity: 25
Note OFF: Time 10320, Note Name: G#2
Note OFF: Time 10320, Note Name: D#3
Note ON: Time 10320, Note Name: F#3, Velocity: 31
Note ON: Time 10320, Note Name: F#2, Velocity: 26
Note ON: Time 10320, Note Name: A#2, Velocity: 26
Note OFF: Time 10560, Note Name: A#2
Note OFF: Time 10560, Note Name: F#2
Note OFF: Time 10560, Note Name: F#3
Note ON: Time 10560, Note Name: F2, Velocity: 27
Note ON: Time 10560, Note Name: A#2, Velocity: 27
Note ON: Time 10560, Note Name: F3, Velocity: 32
Note OFF: Time 10800, Note Name: F3
Note OFF: Time 10800, Note Name: A#2
Note OFF: Time 10800, Note Name: F2
Note ON: Time 11160, Note Name: A#2, Velocity: 34
Note ON: Time 11160, Note Name: F3, Velocity: 40
Note ON: Time 11160, Note Name: F2, Velocity: 28
Note OFF: Time 11279, Note Name: F2
Note OFF: Time 11279, Note Name: F3
Note OFF: Time 11279, Note Name: A#2
Note ON: Time 11280, Note Name: D#2, Velocity: 28
Note ON: Time 11280, Note Name: A#2, Velocity: 34
Note ON: Time 11280, Note Name: D#3, Velocity: 40
Note OFF: Time 11399, Note Name: D#3
Note OFF: Time 11399, Note Name: A#2
Note OFF: Time 11399, Note Name: D#2
Note ON: Time 11400, Note Name: A#2, Velocity: 28
Note ON: Time 11400, Note Name: D#2, Velocity: 23
Note ON: Time 11400, Note Name: D#3, Velocity: 34
Note OFF: Time 11519, Note Name: D#3
Note OFF: Time 11519, Note Name: D#2
Note OFF: Time 11519, Note Name: A#2
Note ON: Time 11520, Note Name: A#2, Velocity: 39
Note ON: Time 11520, Note Name: D3, Velocity: 47
Note ON: Time 11520, Note Name: D2, Velocity: 33
Note OFF: Time 11760, Note Name: D2
Note OFF: Time 11760, Note Name: D3
Note OFF: Time 11760, Note Name: A#2
Note ON: Time 12120, Note Name: F4, Velocity: 34
Note ON: Time 12120, Note Name: G#4, Velocity: 40
Note OFF: Time 12239, Note Name: G#4
Note OFF: Time 12239, Note Name: F4
Note ON: Time 12240, Note Name: F#4, Velocity: 40
Note ON: Time 12240, Note Name: D#4, Velocity: 34
Note OFF: Time 12359, Note Name: D#4
Note OFF: Time 12359, Note Name: F#4
Note ON: Time 12360, Note Name: F#4, Velocity: 34
Note ON: Time 12360, Note Name: D#4, Velocity: 28
Note OFF: Time 12479, Note Name: D#4
Note OFF: Time 12479, Note Name: F#4
Note ON: Time 12480, Note Name: D4, Velocity: 39
Note ON: Time 12480, Note Name: F4, Velocity: 47
Note OFF: Time 12720, Note Name: F4
Note OFF: Time 12720, Note Name: D4
Note ON: Time 13080, Note Name: F4, Velocity: 44
Note ON: Time 13080, Note Name: D4, Velocity: 37
Note OFF: Time 13199, Note Name: D4
Note OFF: Time 13199, Note Name: F4
Note ON: Time 13200, Note Name: D#4, Velocity: 46
Note ON: Time 13200, Note Name: C#4, Velocity: 39
Note OFF: Time 13319, Note Name: C#4
Note OFF: Time 13319, Note Name: D#4
Note ON: Time 13320, Note Name: B3, Velocity: 33
Note ON: Time 13320, Note Name: D#4, Velocity: 40
Note OFF: Time 13439, Note Name: D#4
Note OFF: Time 13439, Note Name: B3
Note ON: Time 13440, Note Name: B3, Velocity: 39
Note ON: Time 13440, Note Name: D#4, Velocity: 47
Note OFF: Time 13680, Note Name: D#4
Note OFF: Time 13680, Note Name: B3
Note ON: Time 14040, Note Name: D4, Velocity: 37
Note ON: Time 14040, Note Name: F4, Velocity: 44
Note OFF: Time 14159, Note Name: F4
Note OFF: Time 14159, Note Name: D4
Note ON: Time 14160, Note Name: C#4, Velocity: 39
Note ON: Time 14160, Note Name: D#4, Velocity: 46
Note OFF: Time 14279, Note Name: D#4
Note OFF: Time 14279, Note Name: C#4
Note ON: Time 14280, Note Name: C4, Velocity: 33
Note ON: Time 14280, Note Name: D#4, Velocity: 40
Note OFF: Time 14399, Note Name: D#4
Note OFF: Time 14399, Note Name: C4
Note ON: Time 14640, Note Name: C4, Velocity: 31
Note ON: Time 14640, Note Name: D#4, Velocity: 37
Note OFF: Time 14880, Note Name: D#4
Note OFF: Time 14880, Note Name: C4
Note ON: Time 15120, Note Name: D#4, Velocity: 37
Note ON: Time 15120, Note Name: C4, Velocity: 31
Note OFF: Time 15360, Note Name: C4
Note OFF: Time 15360, Note Name: D#4
Note ON: Time 15360, Note Name: D#4, Velocity: 77
Note ON: Time 15360, Note Name: C4, Velocity: 64
Note OFF: Time 16080, Note Name: C4
Note OFF: Time 16080, Note Name: D#4
Note ON: Time 16080, Note Name: D4, Velocity: 60
Note ON: Time 16080, Note Name: B3, Velocity: 51
Note OFF: Time 16200, Note Name: B3
Note OFF: Time 16200, Note Name: D4
Note ON: Time 16200, Note Name: C#4, Velocity: 59
Note ON: Time 16200, Note Name: A#3, Velocity: 50
Note OFF: Time 16260, Note Name: A#3
Note OFF: Time 16260, Note Name: C#4
Note ON: Time 16320, Note Name: A#3, Velocity: 56
Note ON: Time 16320, Note Name: C#4, Velocity: 67
Note OFF: Time 16560, Note Name: C#4
Note OFF: Time 16560, Note Name: A#3
Note ON: Time 16560, Note Name: A3, Velocity: 51
Note ON: Time 16560, Note Name: C4, Velocity: 60
Note OFF: Time 16680, Note Name: C4
Note OFF: Time 16680, Note Name: A3
Note ON: Time 16680, Note Name: G#3, Velocity: 50
Note ON: Time 16680, Note Name: B3, Velocity: 59
Note OFF: Time 16740, Note Name: B3
Note OFF: Time 16740, Note Name: G#3
Note ON: Time 16800, Note Name: G#3, Velocity: 56
Note ON: Time 16800, Note Name: B3, Velocity: 67
Note OFF: Time 17040, Note Name: B3
Note OFF: Time 17040, Note Name: G#3
Note ON: Time 17040, Note Name: A#3, Velocity: 60
Note ON: Time 17040, Note Name: G3, Velocity: 51
Note OFF: Time 17160, Note Name: G3
Note OFF: Time 17160, Note Name: A#3
Note ON: Time 17160, Note Name: F#3, Velocity: 50
Note ON: Time 17160, Note Name: A3, Velocity: 59
Note OFF: Time 17220, Note Name: A3
Note OFF: Time 17220, Note Name: F#3
Note ON: Time 17280, Note Name: G#3, Velocity: 67
Note ON: Time 17280, Note Name: F3, Velocity: 56
Note OFF: Time 18000, Note Name: F3
Note OFF: Time 18000, Note Name: G#3
Note ON: Time 18000, Note Name: G3, Velocity: 45
Note ON: Time 18000, Note Name: D#3, Velocity: 38
Note OFF: Time 18240, Note Name: D#3
Note OFF: Time 18240, Note Name: G3
Note ON: Time 18240, Note Name: D3, Velocity: 40
Note ON: Time 18240, Note Name: F3, Velocity: 48
Note OFF: Time 18480, Note Name: F3
Note OFF: Time 18480, Note Name: D3
Note ON: Time 18480, Note Name: C3, Velocity: 42
Note ON: Time 18480, Note Name: D#3, Velocity: 50
Note OFF: Time 18720, Note Name: D#3
Note OFF: Time 18720, Note Name: C3
Note ON: Time 18720, Note Name: A#2, Velocity: 45
Note ON: Time 18720, Note Name: D3, Velocity: 53
Note OFF: Time 18960, Note Name: D3
Note OFF: Time 18960, Note Name: A#2
Note ON: Time 18960, Note Name: F3, Velocity: 56
Note ON: Time 18960, Note Name: A#2, Velocity: 47
Note ON: Time 18960, Note Name: D3, Velocity: 47
Note OFF: Time 19200, Note Name: D3
Note OFF: Time 19200, Note Name: A#2
Note OFF: Time 19200, Note Name: F3
Note ON: Time 19200, Note Name: D#2, Velocity: 56
Note OFF: Time 19320, Note Name: D#2
Note ON: Time 19320, Note Name: A#2, Velocity: 40
Note OFF: Time 19440, Note Name: A#2
Note ON: Time 19440, Note Name: G3, Velocity: 40
Note OFF: Time 19560, Note Name: G3
Note ON: Time 19560, Note Name: A#2, Velocity: 40
Note OFF: Time 19680, Note Name: A#2
Note ON: Time 19680, Note Name: D#2, Velocity: 54
Note OFF: Time 19800, Note Name: D#2
Note ON: Time 19800, Note Name: A#2, Velocity: 44
Note OFF: Time 19920, Note Name: A#2
Note ON: Time 19920, Note Name: G3, Velocity: 43
Note OFF: Time 20040, Note Name: G3
Note ON: Time 20040, Note Name: A#2, Velocity: 43
Note OFF: Time 20160, Note Name: A#2
Note ON: Time 20160, Note Name: F2, Velocity: 58
Note OFF: Time 20280, Note Name: F2
Note ON: Time 20280, Note Name: A#2, Velocity: 49
Note OFF: Time 20400, Note Name: A#2
Note ON: Time 20400, Note Name: G#3, Velocity: 49
Note OFF: Time 20520, Note Name: G#3
Note ON: Time 20520, Note Name: A#2, Velocity: 47
Note OFF: Time 20640, Note Name: A#2
Note ON: Time 20640, Note Name: F2, Velocity: 53
Note OFF: Time 20760, Note Name: F2
Note ON: Time 20760, Note Name: A#2, Velocity: 44
Note OFF: Time 20880, Note Name: A#2
Note ON: Time 20880, Note Name: G#3, Velocity: 44
Note OFF: Time 21000, Note Name: G#3
Note ON: Time 21000, Note Name: A#2, Velocity: 44
Note OFF: Time 21120, Note Name: A#2
Note ON: Time 21120, Note Name: G2, Velocity: 53
Note OFF: Time 21240, Note Name: G2
Note ON: Time 21240, Note Name: A#2, Velocity: 43
Note OFF: Time 21360, Note Name: A#2
Note ON: Time 21360, Note Name: A#3, Velocity: 43
Note OFF: Time 21480, Note Name: A#3
Note ON: Time 21480, Note Name: A#2, Velocity: 43
Note OFF: Time 21600, Note Name: A#2
Note ON: Time 21600, Note Name: G2, Velocity: 53
Note OFF: Time 21720, Note Name: G2
Note ON: Time 21720, Note Name: A#2, Velocity: 43
Note OFF: Time 21840, Note Name: A#2
Note ON: Time 21840, Note Name: A#3, Velocity: 43
Note OFF: Time 21960, Note Name: A#3
Note ON: Time 21960, Note Name: A#2, Velocity: 43
Note OFF: Time 22080, Note Name: A#2
Note ON: Time 22080, Note Name: G#2, Velocity: 53
Note OFF: Time 22200, Note Name: G#2
Note ON: Time 22200, Note Name: A#2, Velocity: 44
Note OFF: Time 22320, Note Name: A#2
Note ON: Time 22320, Note Name: G#3, Velocity: 44
Note OFF: Time 22440, Note Name: G#3
Note ON: Time 22440, Note Name: A#2, Velocity: 44
Note OFF: Time 22560, Note Name: A#2
Note ON: Time 22560, Note Name: A#1, Velocity: 53
Note OFF: Time 22680, Note Name: A#1
Note ON: Time 22680, Note Name: A#2, Velocity: 46
Note OFF: Time 22800, Note Name: A#2
Note ON: Time 22800, Note Name: F3, Velocity: 46
Note OFF: Time 22920, Note Name: F3
Note ON: Time 22920, Note Name: A#2, Velocity: 46
Note OFF: Time 23040, Note Name: A#2
Note ON: Time 23040, Note Name: D#2, Velocity: 56
Note OFF: Time 23160, Note Name: D#2
Note ON: Time 23160, Note Name: A#2, Velocity: 40
Note OFF: Time 23280, Note Name: A#2
Note ON: Time 23280, Note Name: G3, Velocity: 40
Note OFF: Time 23400, Note Name: G3
Note ON: Time 23400, Note Name: A#2, Velocity: 40
Note OFF: Time 23520, Note Name: A#2
Note ON: Time 23520, Note Name: D#2, Velocity: 54
Note OFF: Time 23640, Note Name: D#2
Note ON: Time 23640, Note Name: A#2, Velocity: 44
Note OFF: Time 23760, Note Name: A#2
Note ON: Time 23760, Note Name: G3, Velocity: 43
Note OFF: Time 23880, Note Name: G3
Note ON: Time 23880, Note Name: A#2, Velocity: 43
Note OFF: Time 24000, Note Name: A#2
Note ON: Time 24000, Note Name: F2, Velocity: 58
Note OFF: Time 24120, Note Name: F2
Note ON: Time 24120, Note Name: A#2, Velocity: 49
Note OFF: Time 24240, Note Name: A#2
Note ON: Time 24240, Note Name: G#3, Velocity: 49
Note OFF: Time 24360, Note Name: G#3
Note ON: Time 24360, Note Name: A#2, Velocity: 47
Note OFF: Time 24480, Note Name: A#2
Note ON: Time 24480, Note Name: F2, Velocity: 53
Note OFF: Time 24600, Note Name: F2
Note ON: Time 24600, Note Name: A#2, Velocity: 44
Note OFF: Time 24720, Note Name: A#2
Note ON: Time 24720, Note Name: G#3, Velocity: 44
Note OFF: Time 24840, Note Name: G#3
Note ON: Time 24840, Note Name: A#2, Velocity: 44
Note OFF: Time 24960, Note Name: A#2
Note ON: Time 24960, Note Name: G2, Velocity: 53
Note OFF: Time 25080, Note Name: G2
Note ON: Time 25080, Note Name: D#3, Velocity: 43
Note OFF: Time 25200, Note Name: D#3
Note ON: Time 25200, Note Name: A#3, Velocity: 43
Note OFF: Time 25320, Note Name: A#3
Note ON: Time 25320, Note Name: D#3, Velocity: 43
Note OFF: Time 25440, Note Name: D#3
Note ON: Time 25440, Note Name: G2, Velocity: 53
Note OFF: Time 25560, Note Name: G2
Note ON: Time 25560, Note Name: D#3, Velocity: 43
Note OFF: Time 25680, Note Name: D#3
Note ON: Time 25680, Note Name: A#3, Velocity: 43
Note OFF: Time 25800, Note Name: A#3
Note ON: Time 25800, Note Name: D#3, Velocity: 43
Note OFF: Time 25920, Note Name: D#3
Note ON: Time 25920, Note Name: G#2, Velocity: 53
Note OFF: Time 26040, Note Name: G#2
Note ON: Time 26040, Note Name: D#3, Velocity: 44
Note OFF: Time 26160, Note Name: D#3
Note ON: Time 26160, Note Name: C4, Velocity: 44
Note OFF: Time 26280, Note Name: C4
Note ON: Time 26280, Note Name: D#3, Velocity: 44
Note OFF: Time 26400, Note Name: D#3
Note ON: Time 26400, Note Name: A2, Velocity: 53
Note OFF: Time 26520, Note Name: A2
Note ON: Time 26520, Note Name: F3, Velocity: 46
Note OFF: Time 26640, Note Name: F3
Note ON: Time 26640, Note Name: C4, Velocity: 46
Note OFF: Time 26760, Note Name: C4
Note ON: Time 26760, Note Name: F3, Velocity: 46
Note OFF: Time 26880, Note Name: F3
Note ON: Time 26880, Note Name: A#2, Velocity: 52
Note ON: Time 26880, Note Name: A#3, Velocity: 52
Note OFF: Time 27120, Note Name: A#3
Note OFF: Time 27120, Note Name: A#2
Note ON: Time 27120, Note Name: D#4, Velocity: 46
Note OFF: Time 27240, Note Name: D#4
Note ON: Time 27240, Note Name: D4, Velocity: 49
Note OFF: Time 27360, Note Name: D4
Note ON: Time 27360, Note Name: C4, Velocity: 48
Note OFF: Time 27480, Note Name: C4
Note ON: Time 27480, Note Name: A#3, Velocity: 47
Note OFF: Time 27600, Note Name: A#3
Note ON: Time 27600, Note Name: A3, Velocity: 46
Note OFF: Time 27720, Note Name: A3
Note ON: Time 27720, Note Name: G#3, Velocity: 45
Note OFF: Time 27840, Note Name: G#3
Note ON: Time 27840, Note Name: G3, Velocity: 44
Note OFF: Time 27960, Note Name: G3
Note ON: Time 27960, Note Name: F3, Velocity: 43
Note OFF: Time 28080, Note Name: F3
Note ON: Time 28080, Note Name: D#3, Velocity: 42
Note OFF: Time 28200, Note Name: D#3
Note ON: Time 28200, Note Name: D3, Velocity: 41
Note OFF: Time 28320, Note Name: D3
Note ON: Time 28320, Note Name: D#3, Velocity: 40
Note OFF: Time 28440, Note Name: D#3
Note ON: Time 28440, Note Name: F3, Velocity: 42
Note OFF: Time 28560, Note Name: F3
Note ON: Time 28560, Note Name: G3, Velocity: 44
Note OFF: Time 28680, Note Name: G3
Note ON: Time 28680, Note Name: G#3, Velocity: 46
Note OFF: Time 28800, Note Name: G#3
Note ON: Time 28800, Note Name: A#3, Velocity: 48
Note OFF: Time 29040, Note Name: A#3
Note ON: Time 29040, Note Name: C4, Velocity: 42
Note OFF: Time 29160, Note Name: C4
Note ON: Time 29160, Note Name: D4, Velocity: 46
Note OFF: Time 29280, Note Name: D4
Note ON: Time 29280, Note Name: D#4, Velocity: 44
Note OFF: Time 29400, Note Name: D#4
Note ON: Time 29400, Note Name: F4, Velocity: 46
Note OFF: Time 29520, Note Name: F4
Note ON: Time 29520, Note Name: G4, Velocity: 48
Note OFF: Time 29640, Note Name: G4
Note ON: Time 29640, Note Name: G#4, Velocity: 50
Note OFF: Time 29760, Note Name: G#4
Note ON: Time 29760, Note Name: A#4, Velocity: 57
Note OFF: Time 30000, Note Name: A#4
Note ON: Time 30000, Note Name: G#4, Velocity: 46
Note OFF: Time 30120, Note Name: G#4
Note ON: Time 30120, Note Name: G4, Velocity: 53
Note OFF: Time 30240, Note Name: G4
Note ON: Time 30240, Note Name: F4, Velocity: 52
Note OFF: Time 30360, Note Name: F4
Note ON: Time 30360, Note Name: D#4, Velocity: 51
Note OFF: Time 30480, Note Name: D#4
Note ON: Time 30480, Note Name: D4, Velocity: 50
Note OFF: Time 30570, Note Name: D4
Note ON: Time 30600, Note Name: C4, Velocity: 49
Note OFF: Time 30690, Note Name: C4
Note ON: Time 30720, Note Name: B3, Velocity: 47
Note OFF: Time 30810, Note Name: B3
Note ON: Time 30840, Note Name: A3, Velocity: 48
Note OFF: Time 30930, Note Name: A3
Note ON: Time 30960, Note Name: G3, Velocity: 51
Note OFF: Time 31050, Note Name: G3
Note ON: Time 31080, Note Name: F3, Velocity: 55
Note OFF: Time 31170, Note Name: F3
Note ON: Time 31200, Note Name: D#3, Velocity: 59
Note OFF: Time 31290, Note Name: D#3
Note ON: Time 31320, Note Name: D3, Velocity: 62
Note OFF: Time 31410, Note Name: D3
Note ON: Time 31440, Note Name: C3, Velocity: 66
Note OFF: Time 31530, Note Name: C3
Note ON: Time 31560, Note Name: A#2, Velocity: 58
Note ON: Time 31560, Note Name: C3, Velocity: 69
Note OFF: Time 31650, Note Name: C3
Note OFF: Time 31650, Note Name: A#2
Note ON: Time 31680, Note Name: C3, Velocity: 72
Note ON: Time 31680, Note Name: A#2, Velocity: 61
Note OFF: Time 31800, Note Name: A#2
Note OFF: Time 31800, Note Name: C3
Note ON: Time 32160, Note Name: C3, Velocity: 75
Note ON: Time 32160, Note Name: A2, Velocity: 63
Note OFF: Time 32280, Note Name: A2
Note OFF: Time 32280, Note Name: C3
Note ON: Time 32640, Note Name: F#2, Velocity: 71
Note ON: Time 32640, Note Name: C3, Velocity: 65
Note OFF: Time 33360, Note Name: F#2
Note ON: Time 33360, Note Name: F2, Velocity: 71
Note OFF: Time 33480, Note Name: F2
Note ON: Time 33600, Note Name: D#2, Velocity: 80
Note OFF: Time 34560, Note Name: D#2
Note OFF: Time 34560, Note Name: C3
Note ON: Time 34560, Note Name: F#2, Velocity: 71
Note ON: Time 34560, Note Name: C3, Velocity: 65
Note OFF: Time 35280, Note Name: F#2
Note ON: Time 35280, Note Name: F2, Velocity: 71
Note OFF: Time 35400, Note Name: F2
Note ON: Time 35520, Note Name: E2, Velocity: 80
Note OFF: Time 36480, Note Name: E2
Note OFF: Time 36480, Note Name: C3
Note ON: Time 36480, Note Name: C3, Velocity: 48
Note ON: Time 36480, Note Name: F2, Velocity: 40
Note OFF: Time 36720, Note Name: F2
Note OFF: Time 36720, Note Name: C3
Note ON: Time 37440, Note Name: D3, Velocity: 48
Note ON: Time 37440, Note Name: F2, Velocity: 40
Note OFF: Time 37680, Note Name: F2
Note OFF: Time 37680, Note Name: D3
Note ON: Time 38400, Note Name: F2, Velocity: 40
Note ON: Time 38400, Note Name: D#3, Velocity: 48
Note OFF: Time 38640, Note Name: D#3
Note OFF: Time 38640, Note Name: F2
Note ON: Time 38880, Note Name: F2, Velocity: 40
Note ON: Time 38880, Note Name: D3, Velocity: 48
Note OFF: Time 39120, Note Name: D3
Note OFF: Time 39120, Note Name: F2
Note ON: Time 39360, Note Name: F2, Velocity: 40
Note ON: Time 39360, Note Name: C3, Velocity: 48
Note OFF: Time 39600, Note Name: C3
Note OFF: Time 39600, Note Name: F2
Note ON: Time 39840, Note Name: F2, Velocity: 40
Note ON: Time 39840, Note Name: D3, Velocity: 48
Note OFF: Time 40080, Note Name: D3
Note OFF: Time 40080, Note Name: F2
Note ON: Time 40320, Note Name: C3, Velocity: 48
Note ON: Time 40320, Note Name: F2, Velocity: 40
Note OFF: Time 40560, Note Name: F2
Note OFF: Time 40560, Note Name: C3
Note ON: Time 41280, Note Name: D3, Velocity: 48
Note ON: Time 41280, Note Name: F2, Velocity: 40
Note OFF: Time 41520, Note Name: F2
Note OFF: Time 41520, Note Name: D3
Note ON: Time 42240, Note Name: F2, Velocity: 40
Note ON: Time 42240, Note Name: D#3, Velocity: 48
Note OFF: Time 42480, Note Name: D#3
Note OFF: Time 42480, Note Name: F2
Note ON: Time 42720, Note Name: F2, Velocity: 40
Note ON: Time 42720, Note Name: D3, Velocity: 48
Note OFF: Time 42960, Note Name: D3
Note OFF: Time 42960, Note Name: F2
Note ON: Time 43200, Note Name: D#3, Velocity: 48
Note ON: Time 43200, Note Name: F2, Velocity: 40
Note OFF: Time 43440, Note Name: F2
Note OFF: Time 43440, Note Name: D#3
Note ON: Time 43680, Note Name: F3, Velocity: 48
Note OFF: Time 43920, Note Name: F3
Note ON: Time 43920, Note Name: G3, Velocity: 38
Note OFF: Time 44040, Note Name: G3
Note ON: Time 44040, Note Name: A3, Velocity: 40
Note OFF: Time 44160, Note Name: A3
Note ON: Time 44160, Note Name: A#3, Velocity: 42
Note OFF: Time 44280, Note Name: A#3
Note ON: Time 44280, Note Name: C4, Velocity: 44
Note OFF: Time 44400, Note Name: C4
Note ON: Time 44400, Note Name: D4, Velocity: 46
Note OFF: Time 44520, Note Name: D4
Note ON: Time 44520, Note Name: D#4, Velocity: 48
Note OFF: Time 44640, Note Name: D#4
Note ON: Time 44640, Note Name: F4, Velocity: 50
Note OFF: Time 44880, Note Name: F4
Note ON: Time 44880, Note Name: G4, Velocity: 38
Note OFF: Time 45000, Note Name: G4
Note ON: Time 45000, Note Name: A4, Velocity: 40
Note OFF: Time 45120, Note Name: A4
Note ON: Time 45120, Note Name: A#4, Velocity: 42
Note OFF: Time 45240, Note Name: A#4
Note ON: Time 45240, Note Name: C5, Velocity: 44
Note OFF: Time 45360, Note Name: C5
Note ON: Time 45360, Note Name: D5, Velocity: 46
Note OFF: Time 45480, Note Name: D5
Note ON: Time 45480, Note Name: D#5, Velocity: 48
Note OFF: Time 45600, Note Name: D#5
Note ON: Time 45600, Note Name: F5, Velocity: 50
Note OFF: Time 45840, Note Name: F5
Note ON: Time 45840, Note Name: D#5, Velocity: 47
Note OFF: Time 46080, Note Name: D#5
Note ON: Time 46080, Note Name: D5, Velocity: 56
Note OFF: Time 46320, Note Name: D5
Note ON: Time 46320, Note Name: C#5, Velocity: 46
Note OFF: Time 46560, Note Name: C#5
Note ON: Time 46560, Note Name: C5, Velocity: 55
Note OFF: Time 46800, Note Name: C5
Note ON: Time 46800, Note Name: F4, Velocity: 47
Note OFF: Time 47040, Note Name: F4
Note ON: Time 47040, Note Name: A#3, Velocity: 39
Note ON: Time 47280, Note Name: C#4, Velocity: 39
Note ON: Time 47280, Note Name: E4, Velocity: 39
Note OFF: Time 47760, Note Name: E4
Note OFF: Time 47760, Note Name: C#4
Note ON: Time 47760, Note Name: D4, Velocity: 39
Note ON: Time 47760, Note Name: F4, Velocity: 39
Note OFF: Time 48000, Note Name: F4
Note OFF: Time 48000, Note Name: D4
Note OFF: Time 48000, Note Name: A#3
Note ON: Time 48000, Note Name: A#3, Velocity: 39
Note ON: Time 48240, Note Name: F#4, Velocity: 39
Note ON: Time 48240, Note Name: A4, Velocity: 39
Note OFF: Time 48720, Note Name: A4
Note OFF: Time 48720, Note Name: F#4
Note ON: Time 48720, Note Name: F4, Velocity: 39
Note OFF: Time 48960, Note Name: F4
Note OFF: Time 48960, Note Name: A#3
Note ON: Time 48960, Note Name: A#3, Velocity: 39
Note ON: Time 49200, Note Name: D4, Velocity: 33
Note ON: Time 49200, Note Name: F4, Velocity: 39
Note OFF: Time 49440, Note Name: F4
Note OFF: Time 49440, Note Name: D4
Note ON: Time 49440, Note Name: D#4, Velocity: 33
Note ON: Time 49440, Note Name: G4, Velocity: 39
Note OFF: Time 49680, Note Name: G4
Note OFF: Time 49680, Note Name: D#4
Note ON: Time 49680, Note Name: D4, Velocity: 30
Note ON: Time 49680, Note Name: F4, Velocity: 39
Note OFF: Time 49920, Note Name: F4
Note OFF: Time 49920, Note Name: D4
Note OFF: Time 49920, Note Name: A#3
Note ON: Time 49920, Note Name: D4, Velocity: 39
Note ON: Time 49920, Note Name: F3, Velocity: 39
Note OFF: Time 50160, Note Name: D4
Note ON: Time 50160, Note Name: D#4, Velocity: 39
Note ON: Time 50160, Note Name: C4, Velocity: 33
Note OFF: Time 50400, Note Name: C4
Note OFF: Time 50400, Note Name: D#4
Note ON: Time 50400, Note Name: A#3, Velocity: 33
Note ON: Time 50400, Note Name: D4, Velocity: 39
Note OFF: Time 50640, Note Name: D4
Note OFF: Time 50640, Note Name: A#3
Note ON: Time 50640, Note Name: C4, Velocity: 39
Note ON: Time 50640, Note Name: A3, Velocity: 30
Note OFF: Time 50880, Note Name: A3
Note OFF: Time 50880, Note Name: C4
Note OFF: Time 50880, Note Name: F3
Note ON: Time 50880, Note Name: A#2, Velocity: 35
Note ON: Time 51120, Note Name: C#3, Velocity: 35
Note ON: Time 51120, Note Name: E3, Velocity: 35
Note OFF: Time 51600, Note Name: E3
Note OFF: Time 51600, Note Name: C#3
Note ON: Time 51600, Note Name: F3, Velocity: 35
Note ON: Time 51600, Note Name: D3, Velocity: 35
Note OFF: Time 51840, Note Name: D3
Note OFF: Time 51840, Note Name: F3
Note OFF: Time 51840, Note Name: A#2
Note ON: Time 51840, Note Name: A#2, Velocity: 35
Note ON: Time 52080, Note Name: F#3, Velocity: 35
Note ON: Time 52080, Note Name: A3, Velocity: 35
Note OFF: Time 52560, Note Name: A3
Note OFF: Time 52560, Note Name: F#3
Note ON: Time 52560, Note Name: F3, Velocity: 35
Note OFF: Time 52800, Note Name: F3
Note OFF: Time 52800, Note Name: A#2
Note ON: Time 52800, Note Name: A#2, Velocity: 35
Note ON: Time 53040, Note Name: D3, Velocity: 29
Note ON: Time 53040, Note Name: F3, Velocity: 35
Note OFF: Time 53280, Note Name: F3
Note OFF: Time 53280, Note Name: D3
Note ON: Time 53280, Note Name: G3, Velocity: 35
Note ON: Time 53280, Note Name: D#3, Velocity: 29
Note OFF: Time 53520, Note Name: D#3
Note OFF: Time 53520, Note Name: G3
Note ON: Time 53520, Note Name: D3, Velocity: 27
Note ON: Time 53520, Note Name: F3, Velocity: 35
Note OFF: Time 53760, Note Name: F3
Note OFF: Time 53760, Note Name: D3
Note OFF: Time 53760, Note Name: A#2
Note ON: Time 53760, Note Name: F2, Velocity: 35
Note ON: Time 53760, Note Name: D3, Velocity: 35
Note OFF: Time 54000, Note Name: D3
Note ON: Time 54000, Note Name: C3, Velocity: 29
Note ON: Time 54000, Note Name: D#3, Velocity: 35
Note OFF: Time 54240, Note Name: D#3
Note OFF: Time 54240, Note Name: C3
Note ON: Time 54240, Note Name: A#2, Velocity: 29
Note ON: Time 54240, Note Name: D3, Velocity: 35
Note OFF: Time 54480, Note Name: D3
Note OFF: Time 54480, Note Name: A#2
Note ON: Time 54480, Note Name: A2, Velocity: 27
Note ON: Time 54480, Note Name: C3, Velocity: 35
Note OFF: Time 54720, Note Name: C3
Note OFF: Time 54720, Note Name: A2
Note OFF: Time 54720, Note Name: F2
Note ON: Time 54720, Note Name: A#2, Velocity: 43
Note ON: Time 54720, Note Name: A#1, Velocity: 43
Note OFF: Time 55080, Note Name: A#1
Note OFF: Time 55080, Note Name: A#2
Note ON: Time 55080, Note Name: F#2, Velocity: 39
Note OFF: Time 55200, Note Name: F#2
Note ON: Time 55200, Note Name: F2, Velocity: 45
Note OFF: Time 55440, Note Name: F2
Note ON: Time 55440, Note Name: A#1, Velocity: 38
Note OFF: Time 55680, Note Name: A#1
Note ON: Time 55680, Note Name: F1, Velocity: 55
Note ON: Time 55680, Note Name: F3, Velocity: 47
Note OFF: Time 55920, Note Name: F1
Note ON: Time 55920, Note Name: D#3, Velocity: 44
Note OFF: Time 56040, Note Name: D#3
Note ON: Time 56040, Note Name: D3, Velocity: 36
Note OFF: Time 56160, Note Name: D3
Note OFF: Time 56160, Note Name: F3
Note ON: Time 56160, Note Name: C3, Velocity: 43
Note OFF: Time 56280, Note Name: C3
Note ON: Time 56280, Note Name: A#2, Velocity: 39
Note OFF: Time 56400, Note Name: A#2
Note ON: Time 56400, Note Name: A2, Velocity: 39
Note ON: Time 56400, Note Name: F2, Velocity: 39
Note OFF: Time 56520, Note Name: F2
Note OFF: Time 56520, Note Name: A2
Note ON: Time 56520, Note Name: F3, Velocity: 39
Note OFF: Time 56640, Note Name: F3
Note ON: Time 56640, Note Name: A#2, Velocity: 43
Note OFF: Time 57000, Note Name: A#2
Note ON: Time 57000, Note Name: F#3, Velocity: 39
Note OFF: Time 57120, Note Name: F#3
Note ON: Time 57120, Note Name: F3, Velocity: 45
Note OFF: Time 57360, Note Name: F3
Note ON: Time 57360, Note Name: A#2, Velocity: 38
Note OFF: Time 57600, Note Name: A#2
Note ON: Time 57600, Note Name: F2, Velocity: 55
Note OFF: Time 57840, Note Name: F2
Note ON: Time 57840, Note Name: D#4, Velocity: 44
Note OFF: Time 57960, Note Name: D#4
Note ON: Time 57960, Note Name: D4, Velocity: 36
Note OFF: Time 58080, Note Name: D4
Note ON: Time 58080, Note Name: C4, Velocity: 43
Note OFF: Time 58200, Note Name: C4
Note ON: Time 58200, Note Name: A#3, Velocity: 39
Note OFF: Time 58320, Note Name: A#3
Note ON: Time 58320, Note Name: A3, Velocity: 39
Note ON: Time 58320, Note Name: F3, Velocity: 39
Note OFF: Time 58440, Note Name: F3
Note OFF: Time 58440, Note Name: A3
Note ON: Time 58440, Note Name: C4, Velocity: 39
Note OFF: Time 58560, Note Name: C4
Note ON: Time 58560, Note Name: A#3, Velocity: 39
Note ON: Time 58560, Note Name: D4, Velocity: 39
Note OFF: Time 58920, Note Name: D4
Note OFF: Time 58920, Note Name: A#3
Note ON: Time 58920, Note Name: C4, Velocity: 33
Note OFF: Time 59040, Note Name: C4
Note ON: Time 59040, Note Name: A#3, Velocity: 39
Note OFF: Time 59400, Note Name: A#3
Note ON: Time 59400, Note Name: G3, Velocity: 34
Note OFF: Time 59520, Note Name: G3
Note ON: Time 59520, Note Name: F3, Velocity: 39
Note OFF: Time 59880, Note Name: F3
Note ON: Time 59880, Note Name: D#3, Velocity: 35
Note OFF: Time 60000, Note Name: D#3
Note ON: Time 60000, Note Name: D3, Velocity: 39
Note OFF: Time 60360, Note Name: D3
Note ON: Time 60360, Note Name: C3, Velocity: 33
Note OFF: Time 60480, Note Name: C3
Note ON: Time 60480, Note Name: A#2, Velocity: 39
Note OFF: Time 60840, Note Name: A#2
Note ON: Time 60840, Note Name: G2, Velocity: 31
Note OFF: Time 60960, Note Name: G2
Note ON: Time 60960, Note Name: F2, Velocity: 39
Note OFF: Time 61320, Note Name: F2
Note ON: Time 61320, Note Name: D#2, Velocity: 34
Note OFF: Time 61440, Note Name: D#2
Note ON: Time 61440, Note Name: D2, Velocity: 39
Note OFF: Time 61800, Note Name: D2
Note ON: Time 61800, Note Name: C2, Velocity: 35
Note OFF: Time 61920, Note Name: C2
Note ON: Time 61920, Note Name: A#1, Velocity: 39
Note OFF: Time 62280, Note Name: A#1
Note ON: Time 62280, Note Name: G#4, Velocity: 37
Note ON: Time 62280, Note Name: F4, Velocity: 30
Note OFF: Time 62400, Note Name: F4
Note OFF: Time 62400, Note Name: G#4
Note ON: Time 62400, Note Name: F4, Velocity: 36
Note ON: Time 62400, Note Name: G#4, Velocity: 42
Note OFF: Time 63360, Note Name: G#4
Note OFF: Time 63360, Note Name: F4
Note ON: Time 63360, Note Name: D#4, Velocity: 36
Note ON: Time 63360, Note Name: G4, Velocity: 42
Note OFF: Time 64320, Note Name: G4
Note OFF: Time 64320, Note Name: D#4
Note ON: Time 64320, Note Name: D4, Velocity: 36
Note ON: Time 64320, Note Name: F4, Velocity: 42
Note OFF: Time 65280, Note Name: F4
Note OFF: Time 65280, Note Name: D4
Note ON: Time 65280, Note Name: D#4, Velocity: 42
Note ON: Time 65280, Note Name: C#4, Velocity: 36
Note OFF: Time 66240, Note Name: C#4
Note OFF: Time 66240, Note Name: D#4
Note ON: Time 66240, Note Name: D#4, Velocity: 77
Note ON: Time 66240, Note Name: C4, Velocity: 64
Note OFF: Time 66960, Note Name: C4
Note OFF: Time 66960, Note Name: D#4
Note ON: Time 66960, Note Name: B3, Velocity: 51
Note ON: Time 66960, Note Name: D4, Velocity: 60
Note OFF: Time 67080, Note Name: D4
Note OFF: Time 67080, Note Name: B3
Note ON: Time 67080, Note Name: A#3, Velocity: 50
Note ON: Time 67080, Note Name: C#4, Velocity: 59
Note OFF: Time 67140, Note Name: C#4
Note OFF: Time 67140, Note Name: A#3
Note ON: Time 67200, Note Name: A#3, Velocity: 56
Note ON: Time 67200, Note Name: C#4, Velocity: 67
Note OFF: Time 67440, Note Name: C#4
Note OFF: Time 67440, Note Name: A#3
Note ON: Time 67440, Note Name: A3, Velocity: 51
Note ON: Time 67440, Note Name: C4, Velocity: 60
Note OFF: Time 67560, Note Name: C4
Note OFF: Time 67560, Note Name: A3
Note ON: Time 67560, Note Name: B3, Velocity: 59
Note ON: Time 67560, Note Name: G#3, Velocity: 50
Note OFF: Time 67620, Note Name: G#3
Note OFF: Time 67620, Note Name: B3
Note ON: Time 67680, Note Name: G#3, Velocity: 56
Note ON: Time 67680, Note Name: B3, Velocity: 67
Note OFF: Time 67920, Note Name: B3
Note OFF: Time 67920, Note Name: G#3
Note ON: Time 67920, Note Name: G3, Velocity: 51
Note ON: Time 67920, Note Name: A#3, Velocity: 60
Note OFF: Time 68040, Note Name: A#3
Note OFF: Time 68040, Note Name: G3
Note ON: Time 68040, Note Name: F#3, Velocity: 50
Note ON: Time 68040, Note Name: A3, Velocity: 59
Note OFF: Time 68100, Note Name: A3
Note OFF: Time 68100, Note Name: F#3
Note ON: Time 68160, Note Name: G#3, Velocity: 67
Note ON: Time 68160, Note Name: F3, Velocity: 56
Note OFF: Time 68880, Note Name: F3
Note OFF: Time 68880, Note Name: G#3
Note ON: Time 68880, Note Name: D#3, Velocity: 38
Note ON: Time 68880, Note Name: G3, Velocity: 45
Note OFF: Time 69120, Note Name: G3
Note OFF: Time 69120, Note Name: D#3
Note ON: Time 69120, Note Name: F3, Velocity: 48
Note ON: Time 69120, Note Name: D3, Velocity: 40
Note OFF: Time 69360, Note Name: D3
Note OFF: Time 69360, Note Name: F3
Note ON: Time 69360, Note Name: C3, Velocity: 42
Note ON: Time 69360, Note Name: D#3, Velocity: 50
Note OFF: Time 69600, Note Name: D#3
Note OFF: Time 69600, Note Name: C3
Note ON: Time 69600, Note Name: A#2, Velocity: 45
Note ON: Time 69600, Note Name: D3, Velocity: 53
Note OFF: Time 69840, Note Name: D3
Note OFF: Time 69840, Note Name: A#2
Note ON: Time 69840, Note Name: F3, Velocity: 56
Note ON: Time 69840, Note Name: D3, Velocity: 47
Note ON: Time 69840, Note Name: A#2, Velocity: 47
Note OFF: Time 70080, Note Name: A#2
Note OFF: Time 70080, Note Name: D3
Note OFF: Time 70080, Note Name: F3
Note ON: Time 70080, Note Name: D#2, Velocity: 56
Note OFF: Time 70200, Note Name: D#2
Note ON: Time 70200, Note Name: A#2, Velocity: 40
Note OFF: Time 70320, Note Name: A#2
Note ON: Time 70320, Note Name: G3, Velocity: 40
Note OFF: Time 70440, Note Name: G3
Note ON: Time 70440, Note Name: A#2, Velocity: 40
Note OFF: Time 70560, Note Name: A#2
Note ON: Time 70560, Note Name: D#2, Velocity: 54
Note OFF: Time 70680, Note Name: D#2
Note ON: Time 70680, Note Name: A#2, Velocity: 44
Note OFF: Time 70800, Note Name: A#2
Note ON: Time 70800, Note Name: G3, Velocity: 43
Note OFF: Time 70920, Note Name: G3
Note ON: Time 70920, Note Name: A#2, Velocity: 43
Note OFF: Time 71040, Note Name: A#2
Note ON: Time 71040, Note Name: F2, Velocity: 58
Note OFF: Time 71160, Note Name: F2
Note ON: Time 71160, Note Name: A#2, Velocity: 49
Note OFF: Time 71280, Note Name: A#2
Note ON: Time 71280, Note Name: G#3, Velocity: 49
Note OFF: Time 71400, Note Name: G#3
Note ON: Time 71400, Note Name: A#2, Velocity: 47
Note OFF: Time 71520, Note Name: A#2
Note ON: Time 71520, Note Name: F2, Velocity: 53
Note OFF: Time 71640, Note Name: F2
Note ON: Time 71640, Note Name: A#2, Velocity: 44
Note OFF: Time 71760, Note Name: A#2
Note ON: Time 71760, Note Name: G#3, Velocity: 44
Note OFF: Time 71880, Note Name: G#3
Note ON: Time 71880, Note Name: A#2, Velocity: 44
Note OFF: Time 72000, Note Name: A#2
Note ON: Time 72000, Note Name: G2, Velocity: 53
Note OFF: Time 72120, Note Name: G2
Note ON: Time 72120, Note Name: A#2, Velocity: 43
Note OFF: Time 72240, Note Name: A#2
Note ON: Time 72240, Note Name: A#3, Velocity: 43
Note OFF: Time 72360, Note Name: A#3
Note ON: Time 72360, Note Name: A#2, Velocity: 43
Note OFF: Time 72480, Note Name: A#2
Note ON: Time 72480, Note Name: G2, Velocity: 53
Note OFF: Time 72600, Note Name: G2
Note ON: Time 72600, Note Name: A#2, Velocity: 43
Note OFF: Time 72720, Note Name: A#2
Note ON: Time 72720, Note Name: A#3, Velocity: 43
Note OFF: Time 72840, Note Name: A#3
Note ON: Time 72840, Note Name: A#2, Velocity: 43
Note OFF: Time 72960, Note Name: A#2
Note ON: Time 72960, Note Name: G#2, Velocity: 53
Note OFF: Time 73080, Note Name: G#2
Note ON: Time 73080, Note Name: A#2, Velocity: 44
Note OFF: Time 73200, Note Name: A#2
Note ON: Time 73200, Note Name: G#3, Velocity: 44
Note OFF: Time 73320, Note Name: G#3
Note ON: Time 73320, Note Name: A#2, Velocity: 44
Note OFF: Time 73440, Note Name: A#2
Note ON: Time 73440, Note Name: A#1, Velocity: 53
Note OFF: Time 73560, Note Name: A#1
Note ON: Time 73560, Note Name: A#2, Velocity: 46
Note OFF: Time 73680, Note Name: A#2
Note ON: Time 73680, Note Name: F3, Velocity: 46
Note OFF: Time 73800, Note Name: F3
Note ON: Time 73800, Note Name: A#2, Velocity: 46
Note OFF: Time 73920, Note Name: A#2
Note ON: Time 73920, Note Name: D#2, Velocity: 56
Note OFF: Time 74040, Note Name: D#2
Note ON: Time 74040, Note Name: A#2, Velocity: 40
Note OFF: Time 74160, Note Name: A#2
Note ON: Time 74160, Note Name: G3, Velocity: 40
Note OFF: Time 74280, Note Name: G3
Note ON: Time 74280, Note Name: A#2, Velocity: 40
Note OFF: Time 74400, Note Name: A#2
Note ON: Time 74400, Note Name: D#2, Velocity: 54
Note OFF: Time 74520, Note Name: D#2
Note ON: Time 74520, Note Name: A#2, Velocity: 44
Note OFF: Time 74640, Note Name: A#2
Note ON: Time 74640, Note Name: G3, Velocity: 43
Note OFF: Time 74760, Note Name: G3
Note ON: Time 74760, Note Name: A#2, Velocity: 43
Note OFF: Time 74880, Note Name: A#2
Note ON: Time 74880, Note Name: F2, Velocity: 58
Note OFF: Time 75000, Note Name: F2
Note ON: Time 75000, Note Name: A#2, Velocity: 49
Note OFF: Time 75120, Note Name: A#2
Note ON: Time 75120, Note Name: G#3, Velocity: 49
Note OFF: Time 75240, Note Name: G#3
Note ON: Time 75240, Note Name: A#2, Velocity: 47
Note OFF: Time 75360, Note Name: A#2
Note ON: Time 75360, Note Name: F2, Velocity: 53
Note OFF: Time 75480, Note Name: F2
Note ON: Time 75480, Note Name: A#2, Velocity: 44
Note OFF: Time 75600, Note Name: A#2
Note ON: Time 75600, Note Name: G#3, Velocity: 44
Note OFF: Time 75720, Note Name: G#3
Note ON: Time 75720, Note Name: A#2, Velocity: 44
Note OFF: Time 75840, Note Name: A#2
Note ON: Time 75840, Note Name: G2, Velocity: 53
Note OFF: Time 75960, Note Name: G2
Note ON: Time 75960, Note Name: D#3, Velocity: 43
Note OFF: Time 76080, Note Name: D#3
Note ON: Time 76080, Note Name: A#3, Velocity: 43
Note OFF: Time 76200, Note Name: A#3
Note ON: Time 76200, Note Name: D#3, Velocity: 43
Note OFF: Time 76320, Note Name: D#3
Note ON: Time 76320, Note Name: G2, Velocity: 53
Note OFF: Time 76440, Note Name: G2
Note ON: Time 76440, Note Name: D#3, Velocity: 43
Note OFF: Time 76560, Note Name: D#3
Note ON: Time 76560, Note Name: A#3, Velocity: 43
Note OFF: Time 76680, Note Name: A#3
Note ON: Time 76680, Note Name: D#3, Velocity: 43
Note OFF: Time 76800, Note Name: D#3
Note ON: Time 76800, Note Name: G#2, Velocity: 53
Note OFF: Time 76920, Note Name: G#2
Note ON: Time 76920, Note Name: D#3, Velocity: 44
Note OFF: Time 77040, Note Name: D#3
Note ON: Time 77040, Note Name: C4, Velocity: 44
Note OFF: Time 77160, Note Name: C4
Note ON: Time 77160, Note Name: D#3, Velocity: 44
Note OFF: Time 77280, Note Name: D#3
Note ON: Time 77280, Note Name: A2, Velocity: 53
Note OFF: Time 77400, Note Name: A2
Note ON: Time 77400, Note Name: F3, Velocity: 46
Note OFF: Time 77520, Note Name: F3
Note ON: Time 77520, Note Name: C4, Velocity: 46
Note OFF: Time 77640, Note Name: C4
Note ON: Time 77640, Note Name: F3, Velocity: 46
Note OFF: Time 77760, Note Name: F3
Note ON: Time 77760, Note Name: A#2, Velocity: 52
Note ON: Time 77760, Note Name: A#3, Velocity: 52
Note OFF: Time 78000, Note Name: A#3
Note OFF: Time 78000, Note Name: A#2
Note ON: Time 78000, Note Name: D#4, Velocity: 46
Note OFF: Time 78120, Note Name: D#4
Note ON: Time 78120, Note Name: D4, Velocity: 49
Note OFF: Time 78240, Note Name: D4
Note ON: Time 78240, Note Name: C4, Velocity: 48
Note OFF: Time 78360, Note Name: C4
Note ON: Time 78360, Note Name: A#3, Velocity: 47
Note OFF: Time 78480, Note Name: A#3
Note ON: Time 78480, Note Name: A3, Velocity: 46
Note OFF: Time 78600, Note Name: A3
Note ON: Time 78600, Note Name: G#3, Velocity: 45
Note OFF: Time 78720, Note Name: G#3
Note ON: Time 78720, Note Name: G3, Velocity: 44
Note OFF: Time 78840, Note Name: G3
Note ON: Time 78840, Note Name: F3, Velocity: 43
Note OFF: Time 78960, Note Name: F3
Note ON: Time 78960, Note Name: D#3, Velocity: 42
Note OFF: Time 79080, Note Name: D#3
Note ON: Time 79080, Note Name: D3, Velocity: 41
Note OFF: Time 79200, Note Name: D3
Note ON: Time 79200, Note Name: D#3, Velocity: 40
Note OFF: Time 79320, Note Name: D#3
Note ON: Time 79320, Note Name: F3, Velocity: 42
Note OFF: Time 79440, Note Name: F3
Note ON: Time 79440, Note Name: G3, Velocity: 44
Note OFF: Time 79560, Note Name: G3
Note ON: Time 79560, Note Name: G#3, Velocity: 46
Note OFF: Time 79680, Note Name: G#3
Note ON: Time 79680, Note Name: A#3, Velocity: 48
Note OFF: Time 79920, Note Name: A#3
Note ON: Time 79920, Note Name: C4, Velocity: 42
Note OFF: Time 80040, Note Name: C4
Note ON: Time 80040, Note Name: D4, Velocity: 46
Note OFF: Time 80160, Note Name: D4
Note ON: Time 80160, Note Name: D#4, Velocity: 44
Note OFF: Time 80280, Note Name: D#4
Note ON: Time 80280, Note Name: F4, Velocity: 46
Note OFF: Time 80400, Note Name: F4
Note ON: Time 80400, Note Name: G4, Velocity: 48
Note OFF: Time 80520, Note Name: G4
Note ON: Time 80520, Note Name: G#4, Velocity: 50
Note OFF: Time 80640, Note Name: G#4
Note ON: Time 80640, Note Name: A#4, Velocity: 57
Note OFF: Time 80880, Note Name: A#4
Note ON: Time 80880, Note Name: G#4, Velocity: 46
Note OFF: Time 81000, Note Name: G#4
Note ON: Time 81000, Note Name: G4, Velocity: 53
Note OFF: Time 81120, Note Name: G4
Note ON: Time 81120, Note Name: F4, Velocity: 52
Note OFF: Time 81240, Note Name: F4
Note ON: Time 81240, Note Name: D#4, Velocity: 51
Note OFF: Time 81360, Note Name: D#4
Note ON: Time 81360, Note Name: D4, Velocity: 50
Note OFF: Time 81450, Note Name: D4
Note ON: Time 81480, Note Name: C4, Velocity: 49
Note OFF: Time 81570, Note Name: C4
Note ON: Time 81600, Note Name: B3, Velocity: 47
Note OFF: Time 81690, Note Name: B3
Note ON: Time 81720, Note Name: A3, Velocity: 48
Note OFF: Time 81810, Note Name: A3
Note ON: Time 81840, Note Name: G3, Velocity: 51
Note OFF: Time 81930, Note Name: G3
Note ON: Time 81960, Note Name: F3, Velocity: 55
Note OFF: Time 82050, Note Name: F3
Note ON: Time 82080, Note Name: D#3, Velocity: 59
Note OFF: Time 82170, Note Name: D#3
Note ON: Time 82200, Note Name: D3, Velocity: 62
Note OFF: Time 82290, Note Name: D3
Note ON: Time 82320, Note Name: C3, Velocity: 66
Note OFF: Time 82410, Note Name: C3
Note ON: Time 82440, Note Name: A#2, Velocity: 58
Note ON: Time 82440, Note Name: C3, Velocity: 69
Note OFF: Time 82530, Note Name: C3
Note OFF: Time 82530, Note Name: A#2
Note ON: Time 82560, Note Name: A#2, Velocity: 61
Note ON: Time 82560, Note Name: C3, Velocity: 72
Note OFF: Time 82680, Note Name: C3
Note OFF: Time 82680, Note Name: A#2
Note ON: Time 83040, Note Name: C3, Velocity: 75
Note ON: Time 83040, Note Name: A2, Velocity: 63
Note OFF: Time 83160, Note Name: A2
Note OFF: Time 83160, Note Name: C3
Note ON: Time 83520, Note Name: C3, Velocity: 65
Note ON: Time 83520, Note Name: F#2, Velocity: 71
Note OFF: Time 84240, Note Name: F#2
Note ON: Time 84240, Note Name: F2, Velocity: 71
Note OFF: Time 84360, Note Name: F2
Note ON: Time 84480, Note Name: D#2, Velocity: 80
Note OFF: Time 85440, Note Name: D#2
Note OFF: Time 85440, Note Name: C3
Note ON: Time 85440, Note Name: C3, Velocity: 65
Note ON: Time 85440, Note Name: F#2, Velocity: 71
Note OFF: Time 86160, Note Name: F#2
Note ON: Time 86160, Note Name: F2, Velocity: 71
Note OFF: Time 86280, Note Name: F2
Note ON: Time 86400, Note Name: E2, Velocity: 80
Note OFF: Time 87360, Note Name: E2
Note OFF: Time 87360, Note Name: C3
Note ON: Time 87360, Note Name: F2, Velocity: 40
Note ON: Time 87360, Note Name: C3, Velocity: 48
Note OFF: Time 87600, Note Name: C3
Note OFF: Time 87600, Note Name: F2
Note ON: Time 88320, Note Name: F2, Velocity: 40
Note ON: Time 88320, Note Name: D3, Velocity: 48
Note OFF: Time 88560, Note Name: D3
Note OFF: Time 88560, Note Name: F2
Note ON: Time 89280, Note Name: D#3, Velocity: 48
Note ON: Time 89280, Note Name: F2, Velocity: 40
Note OFF: Time 89520, Note Name: F2
Note OFF: Time 89520, Note Name: D#3
Note ON: Time 89760, Note Name: F2, Velocity: 40
Note ON: Time 89760, Note Name: D3, Velocity: 48
Note OFF: Time 90000, Note Name: D3
Note OFF: Time 90000, Note Name: F2
Note ON: Time 90240, Note Name: F2, Velocity: 40
Note ON: Time 90240, Note Name: C3, Velocity: 48
Note OFF: Time 90480, Note Name: C3
Note OFF: Time 90480, Note Name: F2
Note ON: Time 90720, Note Name: F2, Velocity: 40
Note ON: Time 90720, Note Name: D3, Velocity: 48
Note OFF: Time 90960, Note Name: D3
Note OFF: Time 90960, Note Name: F2
Note ON: Time 91200, Note Name: F2, Velocity: 40
Note ON: Time 91200, Note Name: C3, Velocity: 48
Note OFF: Time 91440, Note Name: C3
Note OFF: Time 91440, Note Name: F2
Note ON: Time 92160, Note Name: F2, Velocity: 40
Note ON: Time 92160, Note Name: D3, Velocity: 48
Note OFF: Time 92400, Note Name: D3
Note OFF: Time 92400, Note Name: F2
Note ON: Time 93120, Note Name: F2, Velocity: 40
Note ON: Time 93120, Note Name: D#3, Velocity: 48
Note OFF: Time 93360, Note Name: D#3
Note OFF: Time 93360, Note Name: F2
Note ON: Time 93600, Note Name: F2, Velocity: 40
Note ON: Time 93600, Note Name: D3, Velocity: 48
Note OFF: Time 93840, Note Name: D3
Note OFF: Time 93840, Note Name: F2
Note ON: Time 94080, Note Name: D#3, Velocity: 48
Note ON: Time 94080, Note Name: F2, Velocity: 40
Note OFF: Time 94320, Note Name: F2
Note OFF: Time 94320, Note Name: D#3
Note ON: Time 94567, Note Name: F3, Velocity: 48
Note ON: Time 94800, Note Name: G3, Velocity: 38
Note OFF: Time 94807, Note Name: F3
Note OFF: Time 94920, Note Name: G3
Note ON: Time 94920, Note Name: A3, Velocity: 40
Note OFF: Time 95040, Note Name: A3
Note ON: Time 95040, Note Name: A#3, Velocity: 42
Note OFF: Time 95160, Note Name: A#3
Note ON: Time 95160, Note Name: C4, Velocity: 44
Note OFF: Time 95280, Note Name: C4
Note ON: Time 95280, Note Name: D4, Velocity: 46
Note OFF: Time 95400, Note Name: D4
Note ON: Time 95400, Note Name: D#4, Velocity: 48
Note OFF: Time 95520, Note Name: D#4
Note ON: Time 95520, Note Name: F4, Velocity: 50
Note OFF: Time 95760, Note Name: F4
Note ON: Time 95760, Note Name: G4, Velocity: 38
Note OFF: Time 95880, Note Name: G4
Note ON: Time 95880, Note Name: A4, Velocity: 40
Note OFF: Time 96000, Note Name: A4
Note ON: Time 96000, Note Name: A#4, Velocity: 42
Note OFF: Time 96120, Note Name: A#4
Note ON: Time 96120, Note Name: C5, Velocity: 44
Note OFF: Time 96240, Note Name: C5
Note ON: Time 96240, Note Name: D5, Velocity: 46
Note OFF: Time 96360, Note Name: D5
Note ON: Time 96360, Note Name: D#5, Velocity: 48
Note OFF: Time 96480, Note Name: D#5
Note ON: Time 96480, Note Name: F5, Velocity: 50
Note OFF: Time 96720, Note Name: F5
Note ON: Time 96720, Note Name: D#5, Velocity: 47
Note OFF: Time 96960, Note Name: D#5
Note ON: Time 96960, Note Name: D5, Velocity: 56
Note OFF: Time 97200, Note Name: D5
Note ON: Time 97200, Note Name: C#5, Velocity: 46
Note OFF: Time 97440, Note Name: C#5
Note ON: Time 97440, Note Name: C5, Velocity: 55
Note OFF: Time 97680, Note Name: C5
Note ON: Time 97680, Note Name: F4, Velocity: 47
Note OFF: Time 97920, Note Name: F4
Note ON: Time 97920, Note Name: A#3, Velocity: 39
Note ON: Time 98160, Note Name: E4, Velocity: 39
Note ON: Time 98160, Note Name: C#4, Velocity: 39
Note OFF: Time 98640, Note Name: C#4
Note OFF: Time 98640, Note Name: E4
Note ON: Time 98640, Note Name: D4, Velocity: 39
Note ON: Time 98640, Note Name: F4, Velocity: 39
Note OFF: Time 98880, Note Name: F4
Note OFF: Time 98880, Note Name: D4
Note OFF: Time 98880, Note Name: A#3
Note ON: Time 98880, Note Name: A#3, Velocity: 39
Note ON: Time 99120, Note Name: F#4, Velocity: 39
Note ON: Time 99120, Note Name: A4, Velocity: 39
Note OFF: Time 99600, Note Name: A4
Note OFF: Time 99600, Note Name: F#4
Note ON: Time 99600, Note Name: F4, Velocity: 39
Note OFF: Time 99840, Note Name: F4
Note OFF: Time 99840, Note Name: A#3
Note ON: Time 99840, Note Name: A#3, Velocity: 39
Note ON: Time 100080, Note Name: D4, Velocity: 33
Note ON: Time 100080, Note Name: F4, Velocity: 39
Note OFF: Time 100320, Note Name: F4
Note OFF: Time 100320, Note Name: D4
Note ON: Time 100320, Note Name: G4, Velocity: 39
Note ON: Time 100320, Note Name: D#4, Velocity: 33
Note OFF: Time 100560, Note Name: D#4
Note OFF: Time 100560, Note Name: G4
Note ON: Time 100560, Note Name: F4, Velocity: 39
Note ON: Time 100560, Note Name: D4, Velocity: 30
Note OFF: Time 100800, Note Name: D4
Note OFF: Time 100800, Note Name: F4
Note OFF: Time 100800, Note Name: A#3
Note ON: Time 100800, Note Name: D4, Velocity: 39
Note ON: Time 100800, Note Name: F3, Velocity: 39
Note OFF: Time 101040, Note Name: D4
Note ON: Time 101040, Note Name: D#4, Velocity: 39
Note ON: Time 101040, Note Name: C4, Velocity: 33
Note OFF: Time 101280, Note Name: C4
Note OFF: Time 101280, Note Name: D#4
Note ON: Time 101280, Note Name: A#3, Velocity: 33
Note ON: Time 101280, Note Name: D4, Velocity: 39
Note OFF: Time 101520, Note Name: D4
Note OFF: Time 101520, Note Name: A#3
Note ON: Time 101520, Note Name: C4, Velocity: 39
Note ON: Time 101520, Note Name: A3, Velocity: 30
Note OFF: Time 101760, Note Name: A3
Note OFF: Time 101760, Note Name: C4
Note OFF: Time 101760, Note Name: F3
Note ON: Time 101760, Note Name: A#2, Velocity: 35
Note ON: Time 102000, Note Name: C#3, Velocity: 35
Note ON: Time 102000, Note Name: E3, Velocity: 35
Note OFF: Time 102480, Note Name: E3
Note OFF: Time 102480, Note Name: C#3
Note ON: Time 102480, Note Name: D3, Velocity: 35
Note ON: Time 102480, Note Name: F3, Velocity: 35
Note OFF: Time 102720, Note Name: F3
Note OFF: Time 102720, Note Name: D3
Note OFF: Time 102720, Note Name: A#2
Note ON: Time 102720, Note Name: A#2, Velocity: 35
Note ON: Time 102960, Note Name: F#3, Velocity: 35
Note ON: Time 102960, Note Name: A3, Velocity: 35
Note OFF: Time 103440, Note Name: A3
Note OFF: Time 103440, Note Name: F#3
Note ON: Time 103440, Note Name: F3, Velocity: 35
Note OFF: Time 103680, Note Name: F3
Note OFF: Time 103680, Note Name: A#2
Note ON: Time 103680, Note Name: A#2, Velocity: 35
Note ON: Time 103920, Note Name: F3, Velocity: 35
Note ON: Time 103920, Note Name: D3, Velocity: 29
Note OFF: Time 104160, Note Name: D3
Note OFF: Time 104160, Note Name: F3
Note ON: Time 104160, Note Name: G3, Velocity: 35
Note ON: Time 104160, Note Name: D#3, Velocity: 29
Note OFF: Time 104400, Note Name: D#3
Note OFF: Time 104400, Note Name: G3
Note ON: Time 104400, Note Name: D3, Velocity: 27
Note ON: Time 104400, Note Name: F3, Velocity: 35
Note OFF: Time 104640, Note Name: F3
Note OFF: Time 104640, Note Name: D3
Note OFF: Time 104640, Note Name: A#2
Note ON: Time 104640, Note Name: D3, Velocity: 35
Note ON: Time 104640, Note Name: F2, Velocity: 35
Note OFF: Time 104880, Note Name: D3
Note ON: Time 104880, Note Name: D#3, Velocity: 35
Note ON: Time 104880, Note Name: C3, Velocity: 29
Note OFF: Time 105120, Note Name: C3
Note OFF: Time 105120, Note Name: D#3
Note ON: Time 105120, Note Name: A#2, Velocity: 29
Note ON: Time 105120, Note Name: D3, Velocity: 35
Note OFF: Time 105360, Note Name: D3
Note OFF: Time 105360, Note Name: A#2
Note ON: Time 105360, Note Name: A2, Velocity: 27
Note ON: Time 105360, Note Name: C3, Velocity: 35
Note OFF: Time 105600, Note Name: C3
Note OFF: Time 105600, Note Name: A2
Note OFF: Time 105600, Note Name: F2
Note ON: Time 105600, Note Name: A#1, Velocity: 43
Note ON: Time 105600, Note Name: A#2, Velocity: 43
Note OFF: Time 105960, Note Name: A#2
Note OFF: Time 105960, Note Name: A#1
Note ON: Time 105960, Note Name: F#2, Velocity: 39
Note OFF: Time 106080, Note Name: F#2
Note ON: Time 106080, Note Name: F2, Velocity: 45
Note OFF: Time 106320, Note Name: F2
Note ON: Time 106320, Note Name: A#1, Velocity: 38
Note OFF: Time 106560, Note Name: A#1
Note ON: Time 106560, Note Name: F1, Velocity: 55
Note ON: Time 106560, Note Name: F3, Velocity: 47
Note OFF: Time 106800, Note Name: F1
Note ON: Time 106800, Note Name: D#3, Velocity: 44
Note OFF: Time 106920, Note Name: D#3
Note ON: Time 106920, Note Name: D3, Velocity: 36
Note OFF: Time 107040, Note Name: D3
Note OFF: Time 107040, Note Name: F3
Note ON: Time 107040, Note Name: C3, Velocity: 43
Note OFF: Time 107160, Note Name: C3
Note ON: Time 107160, Note Name: A#2, Velocity: 39
Note OFF: Time 107280, Note Name: A#2
Note ON: Time 107280, Note Name: F2, Velocity: 39
Note ON: Time 107280, Note Name: A2, Velocity: 39
Note OFF: Time 107400, Note Name: A2
Note OFF: Time 107400, Note Name: F2
Note ON: Time 107400, Note Name: F3, Velocity: 39
Note OFF: Time 107520, Note Name: F3
Note ON: Time 107520, Note Name: A#2, Velocity: 43
Note OFF: Time 107880, Note Name: A#2
Note ON: Time 107880, Note Name: F#3, Velocity: 39
Note OFF: Time 108000, Note Name: F#3
Note ON: Time 108000, Note Name: F3, Velocity: 45
Note OFF: Time 108240, Note Name: F3
Note ON: Time 108240, Note Name: A#2, Velocity: 38
Note OFF: Time 108480, Note Name: A#2
Note ON: Time 108480, Note Name: F2, Velocity: 55
Note OFF: Time 108720, Note Name: F2
Note ON: Time 108720, Note Name: D#4, Velocity: 44
Note OFF: Time 108840, Note Name: D#4
Note ON: Time 108840, Note Name: D4, Velocity: 36
Note OFF: Time 108960, Note Name: D4
Note ON: Time 108960, Note Name: C4, Velocity: 43
Note OFF: Time 109080, Note Name: C4
Note ON: Time 109080, Note Name: A#3, Velocity: 39
Note OFF: Time 109200, Note Name: A#3
Note ON: Time 109200, Note Name: F3, Velocity: 39
Note ON: Time 109200, Note Name: A3, Velocity: 39
Note OFF: Time 109320, Note Name: A3
Note OFF: Time 109320, Note Name: F3
Note ON: Time 109320, Note Name: C4, Velocity: 39
Note OFF: Time 109440, Note Name: C4
Note ON: Time 109440, Note Name: D4, Velocity: 39
Note ON: Time 109440, Note Name: A#3, Velocity: 39
Note OFF: Time 109800, Note Name: A#3
Note OFF: Time 109800, Note Name: D4
Note ON: Time 109800, Note Name: C4, Velocity: 33
Note OFF: Time 109920, Note Name: C4
Note ON: Time 109920, Note Name: A#3, Velocity: 39
Note OFF: Time 110280, Note Name: A#3
Note ON: Time 110280, Note Name: G3, Velocity: 34
Note OFF: Time 110400, Note Name: G3
Note ON: Time 110400, Note Name: F3, Velocity: 39
Note OFF: Time 110760, Note Name: F3
Note ON: Time 110760, Note Name: D#3, Velocity: 35
Note OFF: Time 110880, Note Name: D#3
Note ON: Time 110880, Note Name: D3, Velocity: 39
Note OFF: Time 111240, Note Name: D3
Note ON: Time 111240, Note Name: C3, Velocity: 33
Note OFF: Time 111360, Note Name: C3
Note ON: Time 111360, Note Name: A#2, Velocity: 39
Note OFF: Time 111720, Note Name: A#2
Note ON: Time 111720, Note Name: G2, Velocity: 31
Note OFF: Time 111840, Note Name: G2
Note ON: Time 111840, Note Name: F2, Velocity: 39
Note OFF: Time 112200, Note Name: F2
Note ON: Time 112200, Note Name: D#2, Velocity: 34
Note OFF: Time 112320, Note Name: D#2
Note ON: Time 112320, Note Name: D2, Velocity: 39
Note OFF: Time 112680, Note Name: D2
Note ON: Time 112680, Note Name: C2, Velocity: 35
Note OFF: Time 112800, Note Name: C2
Note ON: Time 112800, Note Name: A#1, Velocity: 39
Note OFF: Time 113160, Note Name: A#1
Note ON: Time 113160, Note Name: F4, Velocity: 30
Note ON: Time 113160, Note Name: G#4, Velocity: 37
Note OFF: Time 113280, Note Name: G#4
Note OFF: Time 113280, Note Name: F4
Note ON: Time 113280, Note Name: G#4, Velocity: 42
Note ON: Time 113280, Note Name: F4, Velocity: 36
Note OFF: Time 114240, Note Name: F4
Note OFF: Time 114240, Note Name: G#4
Note ON: Time 114240, Note Name: D#4, Velocity: 36
Note ON: Time 114240, Note Name: G4, Velocity: 42
Note OFF: Time 115200, Note Name: G4
Note OFF: Time 115200, Note Name: D#4
Note ON: Time 115200, Note Name: D4, Velocity: 36
Note ON: Time 115200, Note Name: F4, Velocity: 42
Note OFF: Time 116160, Note Name: F4
Note OFF: Time 116160, Note Name: D4
Note ON: Time 116160, Note Name: D#4, Velocity: 42
Note ON: Time 116160, Note Name: C4, Velocity: 36
Note OFF: Time 117120, Note Name: C4
Note OFF: Time 117120, Note Name: D#4
Note ON: Time 117120, Note Name: D4, Velocity: 77
Note ON: Time 117120, Note Name: B3, Velocity: 64
Note OFF: Time 117840, Note Name: B3
Note OFF: Time 117840, Note Name: D4
Note ON: Time 117840, Note Name: A#3, Velocity: 51
Note ON: Time 117840, Note Name: D4, Velocity: 60
Note OFF: Time 118080, Note Name: D4
Note OFF: Time 118080, Note Name: A#3
Note ON: Time 118080, Note Name: G#3, Velocity: 56
Note ON: Time 118080, Note Name: C4, Velocity: 67
Note OFF: Time 118320, Note Name: C4
Note OFF: Time 118320, Note Name: G#3
Note ON: Time 118560, Note Name: B3, Velocity: 67
Note ON: Time 118560, Note Name: G#3, Velocity: 56
Note OFF: Time 118800, Note Name: G#3
Note OFF: Time 118800, Note Name: B3
Note ON: Time 119040, Note Name: C4, Velocity: 62
Note ON: Time 119040, Note Name: G3, Velocity: 52
Note OFF: Time 119280, Note Name: G3
Note OFF: Time 119280, Note Name: C4
Note ON: Time 119280, Note Name: C4, Velocity: 49
Note ON: Time 119280, Note Name: F#3, Velocity: 41
Note OFF: Time 119520, Note Name: F#3
Note OFF: Time 119520, Note Name: C4
Note ON: Time 119520, Note Name: B3, Velocity: 61
Note ON: Time 119520, Note Name: F3, Velocity: 51
Note ON: Time 119520, Note Name: G3, Velocity: 51
Note OFF: Time 119760, Note Name: G3
Note OFF: Time 119760, Note Name: F3
Note OFF: Time 119760, Note Name: B3
Note ON: Time 119760, Note Name: G3, Velocity: 34
Note ON: Time 119760, Note Name: C4, Velocity: 41
Note ON: Time 119760, Note Name: D#3, Velocity: 34
Note OFF: Time 120000, Note Name: D#3
Note OFF: Time 120000, Note Name: C4
Note OFF: Time 120000, Note Name: G3
Note ON: Time 122160, Note Name: C3, Velocity: 50
Note OFF: Time 122280, Note Name: C3
Note ON: Time 122280, Note Name: F#3, Velocity: 41
Note OFF: Time 122340, Note Name: F#3
Note ON: Time 122400, Note Name: F#3, Velocity: 48
Note OFF: Time 122520, Note Name: F#3
Note ON: Time 122640, Note Name: A2, Velocity: 47
Note OFF: Time 122760, Note Name: A2
Note ON: Time 122760, Note Name: D#3, Velocity: 37
Note OFF: Time 122820, Note Name: D#3
Note ON: Time 122880, Note Name: D#3, Velocity: 48
Note OFF: Time 123000, Note Name: D#3
Note ON: Time 123120, Note Name: F2, Velocity: 48
Note OFF: Time 123240, Note Name: F2
Note ON: Time 123240, Note Name: C3, Velocity: 39
Note OFF: Time 123300, Note Name: C3
Note ON: Time 123360, Note Name: C3, Velocity: 48
Note OFF: Time 123480, Note Name: C3
Note ON: Time 123600, Note Name: C#3, Velocity: 45
Note OFF: Time 123720, Note Name: C#3
Note ON: Time 126000, Note Name: D4, Velocity: 50
Note OFF: Time 126120, Note Name: D4
Note ON: Time 126120, Note Name: A4, Velocity: 41
Note OFF: Time 126180, Note Name: A4
Note ON: Time 126240, Note Name: A4, Velocity: 48
Note OFF: Time 126360, Note Name: A4
Note ON: Time 126480, Note Name: F#3, Velocity: 47
Note OFF: Time 126600, Note Name: F#3
Note ON: Time 126600, Note Name: C4, Velocity: 37
Note OFF: Time 126660, Note Name: C4
Note ON: Time 126720, Note Name: C4, Velocity: 48
Note OFF: Time 126840, Note Name: C4
Note ON: Time 126960, Note Name: D3, Velocity: 48
Note OFF: Time 127080, Note Name: D3
Note ON: Time 127080, Note Name: A3, Velocity: 39
Note OFF: Time 127140, Note Name: A3
Note ON: Time 127200, Note Name: A3, Velocity: 48
Note OFF: Time 127320, Note Name: A3
Note ON: Time 127440, Note Name: D2, Velocity: 48
Note OFF: Time 127560, Note Name: D2
Note ON: Time 127560, Note Name: D3, Velocity: 39
Note OFF: Time 127620, Note Name: D3
Note ON: Time 129840, Note Name: F#3, Velocity: 50
Note OFF: Time 129960, Note Name: F#3
Note ON: Time 129960, Note Name: D#4, Velocity: 41
Note OFF: Time 130020, Note Name: D#4
Note ON: Time 130080, Note Name: D#4, Velocity: 48
Note OFF: Time 130200, Note Name: D#4
Note ON: Time 130320, Note Name: D#3, Velocity: 47
Note OFF: Time 130440, Note Name: D#3
Note ON: Time 130440, Note Name: B3, Velocity: 37
Note OFF: Time 130500, Note Name: B3
Note ON: Time 130560, Note Name: B3, Velocity: 48
Note OFF: Time 130680, Note Name: B3
Note ON: Time 130800, Note Name: B2, Velocity: 48
Note OFF: Time 130920, Note Name: B2
Note ON: Time 130920, Note Name: F#3, Velocity: 39
Note OFF: Time 130980, Note Name: F#3
Note ON: Time 131040, Note Name: F#3, Velocity: 48
Note OFF: Time 131160, Note Name: F#3
Note ON: Time 131280, Note Name: F#2, Velocity: 48
Note OFF: Time 131400, Note Name: F#2
Note ON: Time 131400, Note Name: D#3, Velocity: 39
Note OFF: Time 131460, Note Name: D#3
Note ON: Time 133680, Note Name: G#3, Velocity: 50
Note OFF: Time 133800, Note Name: G#3
Note ON: Time 133800, Note Name: F4, Velocity: 41
Note OFF: Time 133860, Note Name: F4
Note ON: Time 133920, Note Name: F4, Velocity: 48
Note OFF: Time 134040, Note Name: F4
Note ON: Time 134160, Note Name: F3, Velocity: 47
Note OFF: Time 134280, Note Name: F3
Note ON: Time 134280, Note Name: D4, Velocity: 37
Note OFF: Time 134340, Note Name: D4
Note ON: Time 134400, Note Name: D4, Velocity: 48
Note OFF: Time 134520, Note Name: D4
Note ON: Time 134640, Note Name: D3, Velocity: 40
Note ON: Time 134640, Note Name: F3, Velocity: 48
Note OFF: Time 134760, Note Name: F3
Note OFF: Time 134760, Note Name: D3
Note ON: Time 134760, Note Name: F3, Velocity: 33
Note ON: Time 134760, Note Name: G#3, Velocity: 39
Note OFF: Time 134820, Note Name: G#3
Note OFF: Time 134820, Note Name: F3
Note ON: Time 134880, Note Name: F3, Velocity: 40
Note ON: Time 134880, Note Name: G#3, Velocity: 48
Note OFF: Time 135000, Note Name: G#3
Note OFF: Time 135000, Note Name: F3
Note ON: Time 135120, Note Name: F3, Velocity: 48
Note ON: Time 135120, Note Name: D3, Velocity: 40
Note OFF: Time 135240, Note Name: D3
Note OFF: Time 135240, Note Name: F3
Note ON: Time 135240, Note Name: F3, Velocity: 33
Note ON: Time 135240, Note Name: G#3, Velocity: 39
Note OFF: Time 135300, Note Name: G#3
Note OFF: Time 135300, Note Name: F3
Note ON: Time 135600, Note Name: G#3, Velocity: 50
Note OFF: Time 135720, Note Name: G#3
Note ON: Time 135720, Note Name: F4, Velocity: 41
Note OFF: Time 135780, Note Name: F4
Note ON: Time 135840, Note Name: F4, Velocity: 48
Note OFF: Time 135960, Note Name: F4
Note ON: Time 136080, Note Name: F3, Velocity: 47
Note OFF: Time 136200, Note Name: F3
Note ON: Time 136200, Note Name: D4, Velocity: 37
Note OFF: Time 136260, Note Name: D4
Note ON: Time 136320, Note Name: D4, Velocity: 48
Note OFF: Time 136440, Note Name: D4
Note ON: Time 136560, Note Name: D5, Velocity: 52
Note OFF: Time 136800, Note Name: D5
Note ON: Time 136800, Note Name: D#5, Velocity: 58
Note OFF: Time 137040, Note Name: D#5
Note ON: Time 137040, Note Name: D5, Velocity: 52
Note OFF: Time 137280, Note Name: D5
Note ON: Time 137280, Note Name: A#4, Velocity: 77
Note ON: Time 137280, Note Name: G4, Velocity: 64
Note ON: Time 137280, Note Name: C#4, Velocity: 64
Note OFF: Time 138000, Note Name: C#4
Note OFF: Time 138000, Note Name: G4
Note OFF: Time 138000, Note Name: A#4
Note ON: Time 138000, Note Name: G#4, Velocity: 43
Note ON: Time 138000, Note Name: B3, Velocity: 43
Note ON: Time 138000, Note Name: F4, Velocity: 43
Note OFF: Time 138240, Note Name: F4
Note OFF: Time 138240, Note Name: B3
Note OFF: Time 138240, Note Name: G#4
Note ON: Time 138240, Note Name: F#4, Velocity: 48
Note ON: Time 138240, Note Name: A#3, Velocity: 40
Note ON: Time 138240, Note Name: C#4, Velocity: 40
Note OFF: Time 138480, Note Name: C#4
Note OFF: Time 138480, Note Name: A#3
Note OFF: Time 138480, Note Name: F#4
Note ON: Time 138480, Note Name: G#3, Velocity: 42
Note ON: Time 138480, Note Name: C#4, Velocity: 42
Note OFF: Time 138720, Note Name: C#4
Note OFF: Time 138720, Note Name: G#3
Note ON: Time 138720, Note Name: F3, Velocity: 42
Note ON: Time 138720, Note Name: C#4, Velocity: 42
Note OFF: Time 138960, Note Name: C#4
Note OFF: Time 138960, Note Name: F3
Note ON: Time 138960, Note Name: C#4, Velocity: 42
Note ON: Time 138960, Note Name: F#3, Velocity: 42
Note OFF: Time 139200, Note Name: F#3
Note OFF: Time 139200, Note Name: C#4
Note ON: Time 139200, Note Name: D#4, Velocity: 48
Note ON: Time 139200, Note Name: B3, Velocity: 40
Note OFF: Time 139440, Note Name: B3
Note OFF: Time 139440, Note Name: D#4
Note ON: Time 139440, Note Name: A#3, Velocity: 34
Note ON: Time 139440, Note Name: C#4, Velocity: 40
Note OFF: Time 139680, Note Name: C#4
Note OFF: Time 139680, Note Name: A#3
Note ON: Time 139680, Note Name: B3, Velocity: 40
Note ON: Time 139680, Note Name: G#3, Velocity: 34
Note OFF: Time 139920, Note Name: G#3
Note OFF: Time 139920, Note Name: B3
Note ON: Time 139920, Note Name: F#3, Velocity: 34
Note ON: Time 139920, Note Name: A#3, Velocity: 40
Note OFF: Time 140160, Note Name: A#3
Note OFF: Time 140160, Note Name: F#3
Note ON: Time 140400, Note Name: F2, Velocity: 50
Note OFF: Time 140520, Note Name: F2
Note ON: Time 140520, Note Name: C#3, Velocity: 41
Note OFF: Time 140580, Note Name: C#3
Note ON: Time 140640, Note Name: C#3, Velocity: 48
Note OFF: Time 140760, Note Name: C#3
Note ON: Time 140880, Note Name: F3, Velocity: 47
Note OFF: Time 141000, Note Name: F3
Note ON: Time 141000, Note Name: C#4, Velocity: 37
Note OFF: Time 141060, Note Name: C#4
Note ON: Time 141360, Note Name: F2, Velocity: 50
Note OFF: Time 141480, Note Name: F2
Note ON: Time 141480, Note Name: D3, Velocity: 41
Note OFF: Time 141540, Note Name: D3
Note ON: Time 141600, Note Name: D3, Velocity: 48
Note OFF: Time 141720, Note Name: D3
Note ON: Time 141840, Note Name: F3, Velocity: 47
Note OFF: Time 141960, Note Name: F3
Note ON: Time 141960, Note Name: D4, Velocity: 37
Note OFF: Time 142020, Note Name: D4
Note ON: Time 142320, Note Name: D#2, Velocity: 50
Note OFF: Time 142440, Note Name: D#2
Note ON: Time 142440, Note Name: C3, Velocity: 41
Note OFF: Time 142500, Note Name: C3
Note ON: Time 142560, Note Name: C3, Velocity: 47
Note OFF: Time 142680, Note Name: C3
Note ON: Time 142800, Note Name: D#3, Velocity: 46
Note OFF: Time 142920, Note Name: D#3
Note ON: Time 142920, Note Name: C4, Velocity: 36
Note OFF: Time 142980, Note Name: C4
Note ON: Time 143280, Note Name: D2, Velocity: 48
Note OFF: Time 143400, Note Name: D2
Note ON: Time 143400, Note Name: B2, Velocity: 39
Note OFF: Time 143460, Note Name: B2
Note ON: Time 143520, Note Name: B2, Velocity: 46
Note OFF: Time 143640, Note Name: B2
Note ON: Time 143760, Note Name: D3, Velocity: 45
Note OFF: Time 143880, Note Name: D3
Note ON: Time 143880, Note Name: B3, Velocity: 35
Note OFF: Time 143940, Note Name: B3
Note ON: Time 144240, Note Name: C2, Velocity: 47
Note OFF: Time 144360, Note Name: C2
Note ON: Time 144360, Note Name: C3, Velocity: 38
Note OFF: Time 144420, Note Name: C3
Note ON: Time 144480, Note Name: C3, Velocity: 45
Note OFF: Time 144600, Note Name: C3
Note ON: Time 144720, Note Name: C3, Velocity: 44
Note OFF: Time 144840, Note Name: C3
Note ON: Time 144840, Note Name: C4, Velocity: 34
Note OFF: Time 144900, Note Name: C4
Note ON: Time 145200, Note Name: C2, Velocity: 46
Note OFF: Time 145320, Note Name: C2
Note ON: Time 145320, Note Name: C3, Velocity: 37
Note OFF: Time 145380, Note Name: C3
Note ON: Time 145440, Note Name: C3, Velocity: 44
Note OFF: Time 145560, Note Name: C3
Note ON: Time 145680, Note Name: C3, Velocity: 42
Note OFF: Time 145800, Note Name: C3
Note ON: Time 145800, Note Name: C4, Velocity: 33
Note OFF: Time 145860, Note Name: C4
Note ON: Time 146160, Note Name: C2, Velocity: 45
Note OFF: Time 146280, Note Name: C2
Note ON: Time 146280, Note Name: C3, Velocity: 36
Note OFF: Time 146340, Note Name: C3
Note ON: Time 146400, Note Name: C3, Velocity: 42
Note OFF: Time 146520, Note Name: C3
Note ON: Time 146640, Note Name: C3, Velocity: 41
Note OFF: Time 146760, Note Name: C3
Note ON: Time 146760, Note Name: C4, Velocity: 32
Note OFF: Time 146820, Note Name: C4
Note ON: Time 147120, Note Name: C2, Velocity: 43
Note OFF: Time 147240, Note Name: C2
Note ON: Time 147240, Note Name: C3, Velocity: 35
Note OFF: Time 147300, Note Name: C3
Note ON: Time 147360, Note Name: C3, Velocity: 41
Note OFF: Time 147480, Note Name: C3
Note ON: Time 147600, Note Name: C3, Velocity: 40
Note OFF: Time 147720, Note Name: C3
Note ON: Time 147720, Note Name: C4, Velocity: 31
Note OFF: Time 147780, Note Name: C4
Note ON: Time 148080, Note Name: C2, Velocity: 42
Note OFF: Time 148200, Note Name: C2
Note ON: Time 148200, Note Name: C3, Velocity: 34
Note OFF: Time 148260, Note Name: C3
Note ON: Time 148320, Note Name: C3, Velocity: 40
Note OFF: Time 148440, Note Name: C3
Note ON: Time 148560, Note Name: C3, Velocity: 39
Note OFF: Time 148680, Note Name: C3
Note ON: Time 148680, Note Name: C4, Velocity: 30
Note OFF: Time 148740, Note Name: C4
Note ON: Time 149040, Note Name: C2, Velocity: 41
Note OFF: Time 149160, Note Name: C2
Note ON: Time 149160, Note Name: C3, Velocity: 33
Note OFF: Time 149220, Note Name: C3
Note ON: Time 149280, Note Name: C3, Velocity: 39
Note OFF: Time 149400, Note Name: C3
Note ON: Time 149520, Note Name: C3, Velocity: 38
Note OFF: Time 149640, Note Name: C3
Note ON: Time 149640, Note Name: C4, Velocity: 29
Note OFF: Time 149700, Note Name: C4
Note ON: Time 150000, Note Name: C3, Velocity: 40
Note OFF: Time 150120, Note Name: C3
Note ON: Time 150120, Note Name: C4, Velocity: 32
Note OFF: Time 150180, Note Name: C4
Note ON: Time 150240, Note Name: C3, Velocity: 37
Note OFF: Time 150360, Note Name: C3
Note ON: Time 150360, Note Name: C4, Velocity: 29
Note OFF: Time 150420, Note Name: C4
Note ON: Time 150960, Note Name: B2, Velocity: 40
Note OFF: Time 151080, Note Name: B2
Note ON: Time 151080, Note Name: B3, Velocity: 32
Note OFF: Time 151140, Note Name: B3
Note ON: Time 151200, Note Name: B2, Velocity: 37
Note OFF: Time 151320, Note Name: B2
Note ON: Time 151320, Note Name: B3, Velocity: 29
Note OFF: Time 151380, Note Name: B3
Note ON: Time 151920, Note Name: C3, Velocity: 40
Note OFF: Time 152040, Note Name: C3
Note ON: Time 152040, Note Name: C4, Velocity: 32
Note OFF: Time 152100, Note Name: C4
Note ON: Time 152160, Note Name: C3, Velocity: 37
Note OFF: Time 152280, Note Name: C3
Note ON: Time 152280, Note Name: C4, Velocity: 29
Note OFF: Time 152340, Note Name: C4
Note ON: Time 152880, Note Name: C3, Velocity: 40
Note OFF: Time 153000, Note Name: C3
Note ON: Time 153000, Note Name: C4, Velocity: 32
Note OFF: Time 153060, Note Name: C4
Note ON: Time 153120, Note Name: C3, Velocity: 37
Note OFF: Time 153240, Note Name: C3
Note ON: Time 153240, Note Name: C4, Velocity: 29
Note OFF: Time 153300, Note Name: C4
Note ON: Time 153840, Note Name: C3, Velocity: 40
Note OFF: Time 153960, Note Name: C3
Note ON: Time 153960, Note Name: C4, Velocity: 32
Note OFF: Time 154020, Note Name: C4
Note ON: Time 154080, Note Name: C3, Velocity: 37
Note OFF: Time 154200, Note Name: C3
Note ON: Time 154200, Note Name: C4, Velocity: 29
Note OFF: Time 154260, Note Name: C4
Note ON: Time 154320, Note Name: C3, Velocity: 40
Note OFF: Time 154440, Note Name: C3
Note ON: Time 154440, Note Name: C4, Velocity: 40
Note OFF: Time 154560, Note Name: C4
Note ON: Time 154560, Note Name: C3, Velocity: 45
Note OFF: Time 154680, Note Name: C3
Note ON: Time 154680, Note Name: C4, Velocity: 48
Note OFF: Time 154788, Note Name: C4
Note ON: Time 154800, Note Name: C4, Velocity: 52
Note OFF: Time 154920, Note Name: C4
Note ON: Time 154920, Note Name: D#4, Velocity: 56
Note OFF: Time 155040, Note Name: D#4
Note ON: Time 155040, Note Name: C4, Velocity: 59
Note OFF: Time 155160, Note Name: C4
Note ON: Time 155160, Note Name: D#4, Velocity: 63
Note OFF: Time 155280, Note Name: D#4
Note ON: Time 155280, Note Name: C4, Velocity: 67
Note OFF: Time 155400, Note Name: C4
Note ON: Time 155400, Note Name: D#4, Velocity: 70
Note OFF: Time 155508, Note Name: D#4
Note ON: Time 155520, Note Name: D#4, Velocity: 77
Note ON: Time 155520, Note Name: C4, Velocity: 64
Note OFF: Time 156240, Note Name: C4
Note OFF: Time 156240, Note Name: D#4
Note ON: Time 156240, Note Name: B3, Velocity: 51
Note ON: Time 156240, Note Name: D4, Velocity: 60
Note OFF: Time 156360, Note Name: D4
Note OFF: Time 156360, Note Name: B3
Note ON: Time 156360, Note Name: C#4, Velocity: 59
Note ON: Time 156360, Note Name: A#3, Velocity: 50
Note OFF: Time 156420, Note Name: A#3
Note OFF: Time 156420, Note Name: C#4
Note ON: Time 156480, Note Name: C#4, Velocity: 67
Note ON: Time 156480, Note Name: A#3, Velocity: 56
Note OFF: Time 156720, Note Name: A#3
Note OFF: Time 156720, Note Name: C#4
Note ON: Time 156720, Note Name: A3, Velocity: 51
Note ON: Time 156720, Note Name: C4, Velocity: 60
Note OFF: Time 156840, Note Name: C4
Note OFF: Time 156840, Note Name: A3
Note ON: Time 156840, Note Name: G#3, Velocity: 50
Note ON: Time 156840, Note Name: B3, Velocity: 59
Note OFF: Time 156900, Note Name: B3
Note OFF: Time 156900, Note Name: G#3
Note ON: Time 156960, Note Name: B3, Velocity: 67
Note ON: Time 156960, Note Name: G#3, Velocity: 56
Note OFF: Time 157200, Note Name: G#3
Note OFF: Time 157200, Note Name: B3
Note ON: Time 157200, Note Name: G3, Velocity: 51
Note ON: Time 157200, Note Name: A#3, Velocity: 60
Note OFF: Time 157320, Note Name: A#3
Note OFF: Time 157320, Note Name: G3
Note ON: Time 157320, Note Name: A3, Velocity: 59
Note ON: Time 157320, Note Name: F#3, Velocity: 50
Note OFF: Time 157380, Note Name: F#3
Note OFF: Time 157380, Note Name: A3
Note ON: Time 157440, Note Name: G#3, Velocity: 67
Note ON: Time 157440, Note Name: F3, Velocity: 56
Note OFF: Time 158160, Note Name: F3
Note OFF: Time 158160, Note Name: G#3
Note ON: Time 158160, Note Name: D#3, Velocity: 38
Note ON: Time 158160, Note Name: G3, Velocity: 45
Note OFF: Time 158400, Note Name: G3
Note OFF: Time 158400, Note Name: D#3
Note ON: Time 158400, Note Name: D3, Velocity: 40
Note ON: Time 158400, Note Name: F3, Velocity: 48
Note OFF: Time 158640, Note Name: F3
Note OFF: Time 158640, Note Name: D3
Note ON: Time 158640, Note Name: C3, Velocity: 42
Note ON: Time 158640, Note Name: D#3, Velocity: 50
Note OFF: Time 158880, Note Name: D#3
Note OFF: Time 158880, Note Name: C3
Note ON: Time 158880, Note Name: A#2, Velocity: 45
Note ON: Time 158880, Note Name: D3, Velocity: 53
Note OFF: Time 159120, Note Name: D3
Note OFF: Time 159120, Note Name: A#2
Note ON: Time 159120, Note Name: F3, Velocity: 56
Note ON: Time 159120, Note Name: A#2, Velocity: 47
Note ON: Time 159120, Note Name: D3, Velocity: 47
Note OFF: Time 159360, Note Name: D3
Note OFF: Time 159360, Note Name: A#2
Note OFF: Time 159360, Note Name: F3
Note ON: Time 159360, Note Name: D#2, Velocity: 56
Note OFF: Time 159480, Note Name: D#2
Note ON: Time 159480, Note Name: A#2, Velocity: 40
Note OFF: Time 159600, Note Name: A#2
Note ON: Time 159600, Note Name: G3, Velocity: 40
Note OFF: Time 159720, Note Name: G3
Note ON: Time 159720, Note Name: A#2, Velocity: 40
Note OFF: Time 159840, Note Name: A#2
Note ON: Time 159840, Note Name: D#2, Velocity: 54
Note OFF: Time 159960, Note Name: D#2
Note ON: Time 159960, Note Name: A#2, Velocity: 44
Note OFF: Time 160080, Note Name: A#2
Note ON: Time 160080, Note Name: G3, Velocity: 43
Note OFF: Time 160200, Note Name: G3
Note ON: Time 160200, Note Name: A#2, Velocity: 43
Note OFF: Time 160320, Note Name: A#2
Note ON: Time 160320, Note Name: F2, Velocity: 58
Note OFF: Time 160440, Note Name: F2
Note ON: Time 160440, Note Name: A#2, Velocity: 49
Note OFF: Time 160560, Note Name: A#2
Note ON: Time 160560, Note Name: G#3, Velocity: 49
Note OFF: Time 160680, Note Name: G#3
Note ON: Time 160680, Note Name: A#2, Velocity: 47
Note OFF: Time 160800, Note Name: A#2
Note ON: Time 160800, Note Name: F2, Velocity: 53
Note OFF: Time 160920, Note Name: F2
Note ON: Time 160920, Note Name: A#2, Velocity: 44
Note OFF: Time 161040, Note Name: A#2
Note ON: Time 161040, Note Name: G#3, Velocity: 44
Note OFF: Time 161160, Note Name: G#3
Note ON: Time 161160, Note Name: A#2, Velocity: 44
Note OFF: Time 161280, Note Name: A#2
Note ON: Time 161280, Note Name: G2, Velocity: 53
Note OFF: Time 161400, Note Name: G2
Note ON: Time 161400, Note Name: A#2, Velocity: 43
Note OFF: Time 161520, Note Name: A#2
Note ON: Time 161520, Note Name: A#3, Velocity: 43
Note OFF: Time 161640, Note Name: A#3
Note ON: Time 161640, Note Name: A#2, Velocity: 43
Note OFF: Time 161760, Note Name: A#2
Note ON: Time 161760, Note Name: G2, Velocity: 53
Note OFF: Time 161880, Note Name: G2
Note ON: Time 161880, Note Name: A#2, Velocity: 43
Note OFF: Time 162000, Note Name: A#2
Note ON: Time 162000, Note Name: A#3, Velocity: 43
Note OFF: Time 162120, Note Name: A#3
Note ON: Time 162120, Note Name: A#2, Velocity: 43
Note OFF: Time 162240, Note Name: A#2
Note ON: Time 162240, Note Name: G#2, Velocity: 53
Note OFF: Time 162360, Note Name: G#2
Note ON: Time 162360, Note Name: A#2, Velocity: 44
Note OFF: Time 162480, Note Name: A#2
Note ON: Time 162480, Note Name: G#3, Velocity: 44
Note OFF: Time 162600, Note Name: G#3
Note ON: Time 162600, Note Name: A#2, Velocity: 44
Note OFF: Time 162720, Note Name: A#2
Note ON: Time 162720, Note Name: A#1, Velocity: 53
Note OFF: Time 162840, Note Name: A#1
Note ON: Time 162840, Note Name: A#2, Velocity: 46
Note OFF: Time 162960, Note Name: A#2
Note ON: Time 162960, Note Name: F3, Velocity: 46
Note OFF: Time 163080, Note Name: F3
Note ON: Time 163080, Note Name: A#2, Velocity: 46
Note OFF: Time 163200, Note Name: A#2
Note ON: Time 163200, Note Name: D#2, Velocity: 56
Note OFF: Time 163320, Note Name: D#2
Note ON: Time 163320, Note Name: A#2, Velocity: 40
Note OFF: Time 163440, Note Name: A#2
Note ON: Time 163440, Note Name: G3, Velocity: 40
Note OFF: Time 163560, Note Name: G3
Note ON: Time 163560, Note Name: A#2, Velocity: 40
Note OFF: Time 163680, Note Name: A#2
Note ON: Time 163680, Note Name: D#2, Velocity: 54
Note OFF: Time 163800, Note Name: D#2
Note ON: Time 163800, Note Name: A#2, Velocity: 44
Note OFF: Time 163920, Note Name: A#2
Note ON: Time 163920, Note Name: G#3, Velocity: 43
Note OFF: Time 164040, Note Name: G#3
Note ON: Time 164040, Note Name: A#2, Velocity: 43
Note OFF: Time 164160, Note Name: A#2
Note ON: Time 164160, Note Name: G2, Velocity: 58
Note OFF: Time 164280, Note Name: G2
Note ON: Time 164280, Note Name: D#3, Velocity: 49
Note OFF: Time 164400, Note Name: D#3
Note ON: Time 164400, Note Name: A#3, Velocity: 49
Note OFF: Time 164520, Note Name: A#3
Note ON: Time 164520, Note Name: D#3, Velocity: 47
Note OFF: Time 164640, Note Name: D#3
Note ON: Time 164640, Note Name: G2, Velocity: 53
Note OFF: Time 164760, Note Name: G2
Note ON: Time 164760, Note Name: D#3, Velocity: 44
Note OFF: Time 164880, Note Name: D#3
Note ON: Time 164880, Note Name: A#3, Velocity: 44
Note OFF: Time 165000, Note Name: A#3
Note ON: Time 165000, Note Name: D#3, Velocity: 44
Note OFF: Time 165120, Note Name: D#3
Note ON: Time 165120, Note Name: G2, Velocity: 53
Note OFF: Time 165240, Note Name: G2
Note ON: Time 165240, Note Name: D#3, Velocity: 43
Note OFF: Time 165360, Note Name: D#3
Note ON: Time 165360, Note Name: A#3, Velocity: 43
Note OFF: Time 165480, Note Name: A#3
Note ON: Time 165480, Note Name: D#3, Velocity: 43
Note OFF: Time 165600, Note Name: D#3
Note ON: Time 165600, Note Name: G2, Velocity: 53
Note OFF: Time 165720, Note Name: G2
Note ON: Time 165720, Note Name: D#3, Velocity: 43
Note OFF: Time 165840, Note Name: D#3
Note ON: Time 165840, Note Name: A#3, Velocity: 43
Note OFF: Time 165960, Note Name: A#3
Note ON: Time 165960, Note Name: D#3, Velocity: 43
Note OFF: Time 166080, Note Name: D#3
Note ON: Time 166080, Note Name: G#2, Velocity: 53
Note OFF: Time 166200, Note Name: G#2
Note ON: Time 166200, Note Name: D#3, Velocity: 44
Note OFF: Time 166320, Note Name: D#3
Note ON: Time 166320, Note Name: C4, Velocity: 44
Note OFF: Time 166440, Note Name: C4
Note ON: Time 166440, Note Name: D#3, Velocity: 44
Note OFF: Time 166560, Note Name: D#3
Note ON: Time 166560, Note Name: A2, Velocity: 53
Note OFF: Time 166680, Note Name: A2
Note ON: Time 166680, Note Name: F3, Velocity: 46
Note OFF: Time 166800, Note Name: F3
Note ON: Time 166800, Note Name: C4, Velocity: 46
Note OFF: Time 166920, Note Name: C4
Note ON: Time 166920, Note Name: F3, Velocity: 46
Note OFF: Time 167040, Note Name: F3
Note ON: Time 167040, Note Name: A#2, Velocity: 52
Note OFF: Time 167280, Note Name: A#2
Note ON: Time 167280, Note Name: D#4, Velocity: 46
Note OFF: Time 167400, Note Name: D#4
Note ON: Time 167400, Note Name: D4, Velocity: 49
Note OFF: Time 167520, Note Name: D4
Note ON: Time 167520, Note Name: C4, Velocity: 48
Note OFF: Time 167640, Note Name: C4
Note ON: Time 167640, Note Name: A#3, Velocity: 47
Note OFF: Time 167760, Note Name: A#3
Note ON: Time 167760, Note Name: A3, Velocity: 46
Note OFF: Time 167880, Note Name: A3
Note ON: Time 167880, Note Name: G#3, Velocity: 45
Note OFF: Time 168000, Note Name: G#3
Note ON: Time 168000, Note Name: G3, Velocity: 44
Note OFF: Time 168120, Note Name: G3
Note ON: Time 168120, Note Name: F3, Velocity: 43
Note OFF: Time 168240, Note Name: F3
Note ON: Time 168240, Note Name: D#3, Velocity: 42
Note OFF: Time 168360, Note Name: D#3
Note ON: Time 168360, Note Name: D3, Velocity: 41
Note OFF: Time 168480, Note Name: D3
Note ON: Time 168480, Note Name: D#3, Velocity: 40
Note OFF: Time 168600, Note Name: D#3
Note ON: Time 168600, Note Name: F3, Velocity: 42
Note OFF: Time 168720, Note Name: F3
Note ON: Time 168720, Note Name: G3, Velocity: 44
Note OFF: Time 168840, Note Name: G3
Note ON: Time 168840, Note Name: G#3, Velocity: 46
Note OFF: Time 168960, Note Name: G#3
Note ON: Time 168960, Note Name: A#3, Velocity: 57
Note OFF: Time 169200, Note Name: A#3
Note ON: Time 169200, Note Name: F4, Velocity: 46
Note OFF: Time 169320, Note Name: F4
Note ON: Time 169320, Note Name: D#4, Velocity: 53
Note OFF: Time 169440, Note Name: D#4
Note ON: Time 169440, Note Name: D4, Velocity: 52
Note OFF: Time 169560, Note Name: D4
Note ON: Time 169560, Note Name: C4, Velocity: 51
Note OFF: Time 169680, Note Name: C4
Note ON: Time 169680, Note Name: B3, Velocity: 50
Note OFF: Time 169770, Note Name: B3
Note ON: Time 169800, Note Name: A3, Velocity: 49
Note OFF: Time 169890, Note Name: A3
Note ON: Time 169920, Note Name: G3, Velocity: 47
Note OFF: Time 170010, Note Name: G3
Note ON: Time 170040, Note Name: F3, Velocity: 48
Note OFF: Time 170130, Note Name: F3
Note ON: Time 170160, Note Name: D#3, Velocity: 51
Note OFF: Time 170250, Note Name: D#3
Note ON: Time 170280, Note Name: D3, Velocity: 55
Note OFF: Time 170370, Note Name: D3
Note ON: Time 170400, Note Name: C3, Velocity: 59
Note OFF: Time 170490, Note Name: C3
Note ON: Time 170520, Note Name: A#2, Velocity: 62
Note OFF: Time 170610, Note Name: A#2
Note ON: Time 170640, Note Name: C3, Velocity: 66
Note ON: Time 170640, Note Name: A2, Velocity: 66
Note OFF: Time 170730, Note Name: A2
Note OFF: Time 170730, Note Name: C3
Note ON: Time 170760, Note Name: A2, Velocity: 58
Note ON: Time 170760, Note Name: C3, Velocity: 69
Note OFF: Time 170850, Note Name: C3
Note OFF: Time 170850, Note Name: A2
Note ON: Time 170880, Note Name: A#2, Velocity: 72
Note ON: Time 170880, Note Name: G#2, Velocity: 61
Note OFF: Time 171000, Note Name: G#2
Note OFF: Time 171000, Note Name: A#2
Note ON: Time 171360, Note Name: G2, Velocity: 63
Note ON: Time 171360, Note Name: A#2, Velocity: 75
Note OFF: Time 171480, Note Name: A#2
Note OFF: Time 171480, Note Name: G2
Note ON: Time 171840, Note Name: F3, Velocity: 65
Note ON: Time 171840, Note Name: B2, Velocity: 71
Note OFF: Time 172560, Note Name: B2
Note ON: Time 172560, Note Name: A#2, Velocity: 71
Note OFF: Time 172680, Note Name: A#2
Note ON: Time 172800, Note Name: G#2, Velocity: 80
Note OFF: Time 173760, Note Name: G#2
Note OFF: Time 173760, Note Name: F3
Note ON: Time 173760, Note Name: F3, Velocity: 65
Note ON: Time 173760, Note Name: B2, Velocity: 71
Note OFF: Time 174480, Note Name: B2
Note ON: Time 174480, Note Name: A#2, Velocity: 71
Note OFF: Time 174600, Note Name: A#2
Note ON: Time 174720, Note Name: A2, Velocity: 80
Note OFF: Time 175680, Note Name: A2
Note OFF: Time 175680, Note Name: F3
Note ON: Time 175680, Note Name: F3, Velocity: 48
Note ON: Time 175680, Note Name: A#2, Velocity: 40
Note OFF: Time 175920, Note Name: A#2
Note OFF: Time 175920, Note Name: F3
Note ON: Time 176640, Note Name: A#2, Velocity: 40
Note ON: Time 176640, Note Name: G3, Velocity: 48
Note OFF: Time 176880, Note Name: G3
Note OFF: Time 176880, Note Name: A#2
Note ON: Time 177600, Note Name: G#3, Velocity: 48
Note ON: Time 177600, Note Name: A#2, Velocity: 40
Note OFF: Time 177840, Note Name: A#2
Note OFF: Time 177840, Note Name: G#3
Note ON: Time 178080, Note Name: G3, Velocity: 48
Note ON: Time 178080, Note Name: A#2, Velocity: 40
Note OFF: Time 178320, Note Name: A#2
Note OFF: Time 178320, Note Name: G3
Note ON: Time 178560, Note Name: F3, Velocity: 48
Note ON: Time 178560, Note Name: A#2, Velocity: 40
Note OFF: Time 178800, Note Name: A#2
Note OFF: Time 178800, Note Name: F3
Note ON: Time 179040, Note Name: A#2, Velocity: 40
Note ON: Time 179040, Note Name: G3, Velocity: 48
Note OFF: Time 179280, Note Name: G3
Note OFF: Time 179280, Note Name: A#2
Note ON: Time 179520, Note Name: A#3, Velocity: 40
Note ON: Time 179520, Note Name: F4, Velocity: 48
Note OFF: Time 179760, Note Name: F4
Note OFF: Time 179760, Note Name: A#3
Note ON: Time 180480, Note Name: A#3, Velocity: 40
Note ON: Time 180480, Note Name: G4, Velocity: 48
Note OFF: Time 180720, Note Name: G4
Note OFF: Time 180720, Note Name: A#3
Note ON: Time 181440, Note Name: A#3, Velocity: 40
Note ON: Time 181440, Note Name: G#4, Velocity: 48
Note OFF: Time 181680, Note Name: G#4
Note OFF: Time 181680, Note Name: A#3
Note ON: Time 181920, Note Name: A#3, Velocity: 40
Note ON: Time 181920, Note Name: G4, Velocity: 48
Note OFF: Time 182160, Note Name: G4
Note OFF: Time 182160, Note Name: A#3
Note ON: Time 182400, Note Name: A#3, Velocity: 40
Note ON: Time 182400, Note Name: G#4, Velocity: 48
Note OFF: Time 182640, Note Name: G#4
Note OFF: Time 182640, Note Name: A#3
Note ON: Time 182880, Note Name: A#3, Velocity: 48
Note OFF: Time 183120, Note Name: A#3
Note ON: Time 183120, Note Name: C4, Velocity: 38
Note OFF: Time 183240, Note Name: C4
Note ON: Time 183240, Note Name: D4, Velocity: 40
Note OFF: Time 183360, Note Name: D4
Note ON: Time 183360, Note Name: D#4, Velocity: 42
Note OFF: Time 183480, Note Name: D#4
Note ON: Time 183480, Note Name: F4, Velocity: 44
Note OFF: Time 183600, Note Name: F4
Note ON: Time 183600, Note Name: G4, Velocity: 46
Note OFF: Time 183720, Note Name: G4
Note ON: Time 183720, Note Name: G#4, Velocity: 48
Note OFF: Time 183840, Note Name: G#4
Note ON: Time 183840, Note Name: A#4, Velocity: 50
Note OFF: Time 184080, Note Name: A#4
Note ON: Time 184080, Note Name: C5, Velocity: 38
Note OFF: Time 184200, Note Name: C5
Note ON: Time 184200, Note Name: D5, Velocity: 40
Note OFF: Time 184320, Note Name: D5
Note ON: Time 184320, Note Name: D#5, Velocity: 42
Note OFF: Time 184440, Note Name: D#5
Note ON: Time 184440, Note Name: F5, Velocity: 44
Note OFF: Time 184560, Note Name: F5
Note ON: Time 184560, Note Name: G5, Velocity: 46
Note OFF: Time 184680, Note Name: G5
Note ON: Time 184680, Note Name: G#5, Velocity: 48
Note OFF: Time 184800, Note Name: G#5
Note ON: Time 184800, Note Name: A#5, Velocity: 50
Note OFF: Time 185040, Note Name: A#5
Note ON: Time 185040, Note Name: G#5, Velocity: 47
Note OFF: Time 185280, Note Name: G#5
Note ON: Time 185280, Note Name: G5, Velocity: 56
Note OFF: Time 185520, Note Name: G5
Note ON: Time 185520, Note Name: F#5, Velocity: 46
Note OFF: Time 185760, Note Name: F#5
Note ON: Time 185760, Note Name: F5, Velocity: 55
Note OFF: Time 186000, Note Name: F5
Note ON: Time 186000, Note Name: A#4, Velocity: 47
Note OFF: Time 186240, Note Name: A#4
Note ON: Time 186240, Note Name: D#4, Velocity: 39
Note ON: Time 186480, Note Name: F#4, Velocity: 39
Note ON: Time 186480, Note Name: A4, Velocity: 39
Note OFF: Time 186960, Note Name: A4
Note OFF: Time 186960, Note Name: F#4
Note ON: Time 186960, Note Name: G4, Velocity: 39
Note ON: Time 186960, Note Name: A#4, Velocity: 39
Note OFF: Time 187200, Note Name: A#4
Note OFF: Time 187200, Note Name: G4
Note OFF: Time 187200, Note Name: D#4
Note ON: Time 187200, Note Name: D#4, Velocity: 39
Note ON: Time 187440, Note Name: D5, Velocity: 39
Note ON: Time 187440, Note Name: B4, Velocity: 39
Note OFF: Time 187920, Note Name: B4
Note OFF: Time 187920, Note Name: D5
Note ON: Time 187920, Note Name: A#4, Velocity: 39
Note OFF: Time 188160, Note Name: A#4
Note OFF: Time 188160, Note Name: D#4
Note ON: Time 188160, Note Name: D#4, Velocity: 39
Note ON: Time 188400, Note Name: G4, Velocity: 33
Note ON: Time 188400, Note Name: A#4, Velocity: 39
Note OFF: Time 188640, Note Name: A#4
Note OFF: Time 188640, Note Name: G4
Note ON: Time 188640, Note Name: C5, Velocity: 39
Note ON: Time 188640, Note Name: G#4, Velocity: 33
Note OFF: Time 188880, Note Name: G#4
Note OFF: Time 188880, Note Name: C5
Note ON: Time 188880, Note Name: G4, Velocity: 30
Note ON: Time 188880, Note Name: A#4, Velocity: 39
Note OFF: Time 189120, Note Name: A#4
Note OFF: Time 189120, Note Name: G4
Note OFF: Time 189120, Note Name: D#4
Note ON: Time 189120, Note Name: G4, Velocity: 39
Note ON: Time 189120, Note Name: A#3, Velocity: 39
Note OFF: Time 189360, Note Name: G4
Note ON: Time 189360, Note Name: F4, Velocity: 33
Note ON: Time 189360, Note Name: G#4, Velocity: 39
Note OFF: Time 189600, Note Name: G#4
Note OFF: Time 189600, Note Name: F4
Note ON: Time 189600, Note Name: G4, Velocity: 39
Note ON: Time 189600, Note Name: D#4, Velocity: 33
Note OFF: Time 189840, Note Name: D#4
Note OFF: Time 189840, Note Name: G4
Note ON: Time 189840, Note Name: D4, Velocity: 30
Note ON: Time 189840, Note Name: F4, Velocity: 39
Note OFF: Time 190080, Note Name: F4
Note OFF: Time 190080, Note Name: D4
Note OFF: Time 190080, Note Name: A#3
Note ON: Time 190080, Note Name: D#3, Velocity: 35
Note ON: Time 190320, Note Name: F#3, Velocity: 38
Note ON: Time 190320, Note Name: A3, Velocity: 53
Note OFF: Time 190800, Note Name: A3
Note OFF: Time 190800, Note Name: F#3
Note ON: Time 190800, Note Name: A#3, Velocity: 35
Note ON: Time 190800, Note Name: G3, Velocity: 35
Note OFF: Time 191040, Note Name: G3
Note OFF: Time 191040, Note Name: A#3
Note OFF: Time 191040, Note Name: D#3
Note ON: Time 191040, Note Name: D#3, Velocity: 35
Note ON: Time 191280, Note Name: B3, Velocity: 38
Note ON: Time 191280, Note Name: D4, Velocity: 50
Note OFF: Time 191760, Note Name: D4
Note OFF: Time 191760, Note Name: B3
Note ON: Time 191760, Note Name: A#3, Velocity: 35
Note OFF: Time 192000, Note Name: A#3
Note OFF: Time 192000, Note Name: D#3
Note ON: Time 192000, Note Name: D#3, Velocity: 29
Note ON: Time 192000, Note Name: G3, Velocity: 29
Note ON: Time 192000, Note Name: A#3, Velocity: 35
Note OFF: Time 192480, Note Name: A#3
Note OFF: Time 192480, Note Name: G3
Note OFF: Time 192480, Note Name: D#3
Note ON: Time 192480, Note Name: G#3, Velocity: 35
Note ON: Time 192480, Note Name: G#2, Velocity: 29
Note ON: Time 192480, Note Name: D#3, Velocity: 29
Note OFF: Time 192720, Note Name: D#3
Note OFF: Time 192720, Note Name: G#2
Note OFF: Time 192720, Note Name: G#3
Note ON: Time 192720, Note Name: D#2, Velocity: 27
Note ON: Time 192720, Note Name: D#3, Velocity: 35
Note OFF: Time 192960, Note Name: D#3
Note OFF: Time 192960, Note Name: D#2
Note ON: Time 192960, Note Name: A#1, Velocity: 35
Note OFF: Time 193200, Note Name: A#1
Note ON: Time 193200, Note Name: A#2, Velocity: 35
Note OFF: Time 193440, Note Name: A#2
Note ON: Time 193440, Note Name: A#1, Velocity: 35
Note OFF: Time 193680, Note Name: A#1
Note ON: Time 193680, Note Name: A#2, Velocity: 35
Note OFF: Time 193920, Note Name: A#2
Note ON: Time 193920, Note Name: D#3, Velocity: 43
Note ON: Time 193920, Note Name: D#2, Velocity: 43
Note OFF: Time 194280, Note Name: D#2
Note OFF: Time 194280, Note Name: D#3
Note ON: Time 194280, Note Name: B2, Velocity: 39
Note OFF: Time 194400, Note Name: B2
Note ON: Time 194400, Note Name: A#2, Velocity: 45
Note OFF: Time 194640, Note Name: A#2
Note ON: Time 194640, Note Name: D#2, Velocity: 38
Note OFF: Time 194880, Note Name: D#2
Note ON: Time 194880, Note Name: A#1, Velocity: 55
Note OFF: Time 195120, Note Name: A#1
Note ON: Time 195120, Note Name: G#3, Velocity: 44
Note OFF: Time 195240, Note Name: G#3
Note ON: Time 195240, Note Name: G3, Velocity: 36
Note OFF: Time 195360, Note Name: G3
Note ON: Time 195360, Note Name: F3, Velocity: 43
Note OFF: Time 195480, Note Name: F3
Note ON: Time 195480, Note Name: D#3, Velocity: 39
Note OFF: Time 195600, Note Name: D#3
Note ON: Time 195600, Note Name: D3, Velocity: 39
Note ON: Time 195600, Note Name: A#2, Velocity: 39
Note OFF: Time 195720, Note Name: D3
Note ON: Time 195720, Note Name: A#3, Velocity: 39
Note OFF: Time 195840, Note Name: A#3
Note OFF: Time 195840, Note Name: A#2
Note ON: Time 195840, Note Name: D#3, Velocity: 43
Note OFF: Time 196200, Note Name: D#3
Note ON: Time 196200, Note Name: B3, Velocity: 39
Note OFF: Time 196320, Note Name: B3
Note ON: Time 196320, Note Name: A#3, Velocity: 45
Note OFF: Time 196560, Note Name: A#3
Note ON: Time 196560, Note Name: D#3, Velocity: 38
Note OFF: Time 196800, Note Name: D#3
Note ON: Time 196800, Note Name: A#2, Velocity: 55
Note OFF: Time 197040, Note Name: A#2
Note ON: Time 197040, Note Name: G#4, Velocity: 44
Note OFF: Time 197160, Note Name: G#4
Note ON: Time 197160, Note Name: G4, Velocity: 36
Note OFF: Time 197280, Note Name: G4
Note ON: Time 197280, Note Name: F4, Velocity: 43
Note OFF: Time 197400, Note Name: F4
Note ON: Time 197400, Note Name: D#4, Velocity: 39
Note OFF: Time 197520, Note Name: D#4
Note ON: Time 197520, Note Name: A#3, Velocity: 39
Note ON: Time 197520, Note Name: D4, Velocity: 39
Note OFF: Time 197640, Note Name: D4
Note OFF: Time 197640, Note Name: A#3
Note ON: Time 197640, Note Name: F4, Velocity: 39
Note OFF: Time 197760, Note Name: F4
Note ON: Time 197760, Note Name: D#4, Velocity: 39
Note ON: Time 197760, Note Name: G4, Velocity: 39
Note OFF: Time 198120, Note Name: G4
Note OFF: Time 198120, Note Name: D#4
Note ON: Time 198120, Note Name: F4, Velocity: 33
Note OFF: Time 198240, Note Name: F4
Note ON: Time 198240, Note Name: D#4, Velocity: 39
Note OFF: Time 198600, Note Name: D#4
Note ON: Time 198600, Note Name: C4, Velocity: 34
Note OFF: Time 198720, Note Name: C4
Note ON: Time 198720, Note Name: A#3, Velocity: 39
Note OFF: Time 199080, Note Name: A#3
Note ON: Time 199080, Note Name: G#3, Velocity: 35
Note OFF: Time 199200, Note Name: G#3
Note ON: Time 199200, Note Name: G3, Velocity: 39
Note OFF: Time 199560, Note Name: G3
Note ON: Time 199560, Note Name: F3, Velocity: 33
Note OFF: Time 199680, Note Name: F3
Note ON: Time 199680, Note Name: D#3, Velocity: 39
Note OFF: Time 200040, Note Name: D#3
Note ON: Time 200040, Note Name: C3, Velocity: 31
Note OFF: Time 200160, Note Name: C3
Note ON: Time 200160, Note Name: A#2, Velocity: 39
Note OFF: Time 200520, Note Name: A#2
Note ON: Time 200520, Note Name: G#2, Velocity: 34
Note OFF: Time 200640, Note Name: G#2
Note ON: Time 200640, Note Name: G2, Velocity: 39
Note OFF: Time 201000, Note Name: G2
Note ON: Time 201000, Note Name: F2, Velocity: 35
Note OFF: Time 201120, Note Name: F2
Note ON: Time 201120, Note Name: D#2, Velocity: 39
Note OFF: Time 201480, Note Name: D#2
Note ON: Time 201480, Note Name: C#5, Velocity: 37
Note ON: Time 201480, Note Name: A#4, Velocity: 30
Note OFF: Time 201600, Note Name: A#4
Note OFF: Time 201600, Note Name: C#5
Note ON: Time 201600, Note Name: A#4, Velocity: 36
Note ON: Time 201600, Note Name: C#5, Velocity: 42
Note OFF: Time 202560, Note Name: C#5
Note OFF: Time 202560, Note Name: A#4
Note ON: Time 202560, Note Name: G#4, Velocity: 36
Note ON: Time 202560, Note Name: C5, Velocity: 42
Note OFF: Time 203520, Note Name: C5
Note OFF: Time 203520, Note Name: G#4
Note ON: Time 203520, Note Name: A#4, Velocity: 42
Note ON: Time 203520, Note Name: G4, Velocity: 36
Note OFF: Time 204480, Note Name: G4
Note OFF: Time 204480, Note Name: A#4
Note ON: Time 204480, Note Name: F4, Velocity: 36
Note ON: Time 204480, Note Name: G#4, Velocity: 42
Note OFF: Time 205440, Note Name: G#4
Note OFF: Time 205440, Note Name: F4
Note ON: Time 205440, Note Name: G4, Velocity: 84
Note ON: Time 205440, Note Name: D#4, Velocity: 70
Note OFF: Time 206160, Note Name: D#4
Note OFF: Time 206160, Note Name: G4
Note ON: Time 206160, Note Name: D#4, Velocity: 51
Note ON: Time 206160, Note Name: A4, Velocity: 60
Note OFF: Time 206280, Note Name: A4
Note OFF: Time 206280, Note Name: D#4
Note ON: Time 206280, Note Name: F4, Velocity: 59
Note ON: Time 206280, Note Name: C#4, Velocity: 50
Note OFF: Time 206340, Note Name: C#4
Note OFF: Time 206340, Note Name: F4
Note ON: Time 206400, Note Name: F4, Velocity: 67
Note ON: Time 206400, Note Name: C#4, Velocity: 56
Note OFF: Time 206640, Note Name: C#4
Note OFF: Time 206640, Note Name: F4
Note ON: Time 206640, Note Name: C#4, Velocity: 51
Note ON: Time 206640, Note Name: G4, Velocity: 60
Note OFF: Time 206760, Note Name: G4
Note OFF: Time 206760, Note Name: C#4
Note ON: Time 206760, Note Name: D#4, Velocity: 59
Note ON: Time 206760, Note Name: C4, Velocity: 50
Note OFF: Time 206820, Note Name: C4
Note OFF: Time 206820, Note Name: D#4
Note ON: Time 206880, Note Name: D#4, Velocity: 67
Note ON: Time 206880, Note Name: C4, Velocity: 56
Note OFF: Time 207120, Note Name: C4
Note OFF: Time 207120, Note Name: D#4
Note ON: Time 207120, Note Name: F4, Velocity: 60
Note ON: Time 207120, Note Name: C4, Velocity: 44
Note OFF: Time 207240, Note Name: C4
Note OFF: Time 207240, Note Name: F4
Note ON: Time 207240, Note Name: A#3, Velocity: 50
Note ON: Time 207240, Note Name: C#4, Velocity: 59
Note OFF: Time 207300, Note Name: C#4
Note OFF: Time 207300, Note Name: A#3
Note ON: Time 207360, Note Name: C#4, Velocity: 67
Note ON: Time 207360, Note Name: A#3, Velocity: 56
Note OFF: Time 207600, Note Name: A#3
Note OFF: Time 207600, Note Name: C#4
Note ON: Time 207600, Note Name: E4, Velocity: 60
Note ON: Time 207600, Note Name: A#3, Velocity: 51
Note OFF: Time 207720, Note Name: A#3
Note OFF: Time 207720, Note Name: E4
Note ON: Time 207720, Note Name: C4, Velocity: 59
Note ON: Time 207720, Note Name: G#3, Velocity: 50
Note OFF: Time 207780, Note Name: G#3
Note OFF: Time 207780, Note Name: C4
Note ON: Time 207840, Note Name: G#3, Velocity: 56
Note ON: Time 207840, Note Name: C4, Velocity: 67
Note OFF: Time 208078, Note Name: C4
Note OFF: Time 208078, Note Name: G#3
Note ON: Time 208080, Note Name: G#3, Velocity: 56
Note ON: Time 208080, Note Name: B3, Velocity: 67
Note OFF: Time 208318, Note Name: B3
Note OFF: Time 208318, Note Name: G#3
Note ON: Time 208320, Note Name: A#3, Velocity: 67
Note ON: Time 208320, Note Name: G3, Velocity: 56
Note OFF: Time 209040, Note Name: G3
Note OFF: Time 209040, Note Name: A#3
Note ON: Time 209040, Note Name: F3, Velocity: 38
Note ON: Time 209040, Note Name: G#3, Velocity: 45
Note OFF: Time 209280, Note Name: G#3
Note OFF: Time 209280, Note Name: F3
Note ON: Time 209280, Note Name: G3, Velocity: 48
Note ON: Time 209280, Note Name: E3, Velocity: 40
Note OFF: Time 209520, Note Name: E3
Note OFF: Time 209520, Note Name: G3
Note ON: Time 209520, Note Name: D3, Velocity: 42
Note ON: Time 209520, Note Name: F3, Velocity: 50
Note OFF: Time 209760, Note Name: F3
Note OFF: Time 209760, Note Name: D3
Note ON: Time 209760, Note Name: E3, Velocity: 53
Note ON: Time 209760, Note Name: C3, Velocity: 45
Note OFF: Time 210000, Note Name: C3
Note OFF: Time 210000, Note Name: E3
Note ON: Time 210000, Note Name: C3, Velocity: 47
Note ON: Time 210000, Note Name: G3, Velocity: 47
Note ON: Time 210000, Note Name: A#3, Velocity: 56
Note ON: Time 210000, Note Name: E3, Velocity: 47
Note OFF: Time 210240, Note Name: E3
Note OFF: Time 210240, Note Name: C3
Note OFF: Time 210240, Note Name: G3
Note OFF: Time 210240, Note Name: A#3
Note ON: Time 210240, Note Name: F2, Velocity: 56
Note OFF: Time 210360, Note Name: F2
Note ON: Time 210360, Note Name: C3, Velocity: 40
Note OFF: Time 210480, Note Name: C3
Note ON: Time 210480, Note Name: G#3, Velocity: 40
Note OFF: Time 210600, Note Name: G#3
Note ON: Time 210600, Note Name: C3, Velocity: 40
Note OFF: Time 210720, Note Name: C3
Note ON: Time 210720, Note Name: F2, Velocity: 54
Note OFF: Time 210840, Note Name: F2
Note ON: Time 210840, Note Name: C3, Velocity: 44
Note OFF: Time 210960, Note Name: C3
Note ON: Time 210960, Note Name: G#3, Velocity: 43
Note OFF: Time 211080, Note Name: G#3
Note ON: Time 211080, Note Name: C3, Velocity: 43
Note OFF: Time 211200, Note Name: C3
Note ON: Time 211200, Note Name: G2, Velocity: 58
Note OFF: Time 211320, Note Name: G2
Note ON: Time 211320, Note Name: C3, Velocity: 49
Note OFF: Time 211440, Note Name: C3
Note ON: Time 211440, Note Name: A#3, Velocity: 49
Note OFF: Time 211560, Note Name: A#3
Note ON: Time 211560, Note Name: C3, Velocity: 47
Note OFF: Time 211680, Note Name: C3
Note ON: Time 211680, Note Name: G2, Velocity: 53
Note OFF: Time 211800, Note Name: G2
Note ON: Time 211800, Note Name: C3, Velocity: 44
Note OFF: Time 211920, Note Name: C3
Note ON: Time 211920, Note Name: A#3, Velocity: 44
Note OFF: Time 212040, Note Name: A#3
Note ON: Time 212040, Note Name: C3, Velocity: 44
Note OFF: Time 212160, Note Name: C3
Note ON: Time 212160, Note Name: G#2, Velocity: 53
Note OFF: Time 212280, Note Name: G#2
Note ON: Time 212280, Note Name: C3, Velocity: 43
Note OFF: Time 212400, Note Name: C3
Note ON: Time 212400, Note Name: C4, Velocity: 43
Note OFF: Time 212520, Note Name: C4
Note ON: Time 212520, Note Name: C3, Velocity: 43
Note OFF: Time 212640, Note Name: C3
Note ON: Time 212640, Note Name: G#2, Velocity: 53
Note OFF: Time 212760, Note Name: G#2
Note ON: Time 212760, Note Name: C3, Velocity: 43
Note OFF: Time 212880, Note Name: C3
Note ON: Time 212880, Note Name: C4, Velocity: 43
Note OFF: Time 213000, Note Name: C4
Note ON: Time 213000, Note Name: C3, Velocity: 43
Note OFF: Time 213120, Note Name: C3
Note ON: Time 213120, Note Name: A#2, Velocity: 53
Note OFF: Time 213240, Note Name: A#2
Note ON: Time 213240, Note Name: C3, Velocity: 44
Note OFF: Time 213360, Note Name: C3
Note ON: Time 213360, Note Name: A#3, Velocity: 44
Note OFF: Time 213480, Note Name: A#3
Note ON: Time 213480, Note Name: C3, Velocity: 44
Note OFF: Time 213600, Note Name: C3
Note ON: Time 213600, Note Name: C2, Velocity: 53
Note OFF: Time 213720, Note Name: C2
Note ON: Time 213720, Note Name: C3, Velocity: 46
Note OFF: Time 213840, Note Name: C3
Note ON: Time 213840, Note Name: G3, Velocity: 46
Note OFF: Time 213960, Note Name: G3
Note ON: Time 213960, Note Name: C3, Velocity: 46
Note OFF: Time 214080, Note Name: C3
Note ON: Time 214080, Note Name: F2, Velocity: 56
Note OFF: Time 214200, Note Name: F2
Note ON: Time 214200, Note Name: C3, Velocity: 40
Note OFF: Time 214320, Note Name: C3
Note ON: Time 214320, Note Name: G#3, Velocity: 40
Note OFF: Time 214440, Note Name: G#3
Note ON: Time 214440, Note Name: C3, Velocity: 40
Note OFF: Time 214560, Note Name: C3
Note ON: Time 214560, Note Name: F2, Velocity: 54
Note OFF: Time 214680, Note Name: F2
Note ON: Time 214680, Note Name: C3, Velocity: 44
Note OFF: Time 214800, Note Name: C3
Note ON: Time 214800, Note Name: G#3, Velocity: 43
Note OFF: Time 214920, Note Name: G#3
Note ON: Time 214920, Note Name: C3, Velocity: 43
Note OFF: Time 215040, Note Name: C3
Note ON: Time 215040, Note Name: G2, Velocity: 58
Note OFF: Time 215160, Note Name: G2
Note ON: Time 215160, Note Name: C3, Velocity: 49
Note OFF: Time 215280, Note Name: C3
Note ON: Time 215280, Note Name: A#3, Velocity: 49
Note OFF: Time 215400, Note Name: A#3
Note ON: Time 215400, Note Name: C3, Velocity: 47
Note OFF: Time 215520, Note Name: C3
Note ON: Time 215520, Note Name: G2, Velocity: 53
Note OFF: Time 215640, Note Name: G2
Note ON: Time 215640, Note Name: C3, Velocity: 44
Note OFF: Time 215760, Note Name: C3
Note ON: Time 215760, Note Name: A#3, Velocity: 44
Note OFF: Time 215880, Note Name: A#3
Note ON: Time 215880, Note Name: C3, Velocity: 44
Note OFF: Time 216000, Note Name: C3
Note ON: Time 216000, Note Name: G#2, Velocity: 53
Note OFF: Time 216120, Note Name: G#2
Note ON: Time 216120, Note Name: C3, Velocity: 43
Note OFF: Time 216240, Note Name: C3
Note ON: Time 216240, Note Name: C4, Velocity: 43
Note OFF: Time 216360, Note Name: C4
Note ON: Time 216360, Note Name: C3, Velocity: 43
Note OFF: Time 216480, Note Name: C3
Note ON: Time 216480, Note Name: F2, Velocity: 53
Note OFF: Time 216600, Note Name: F2
Note ON: Time 216600, Note Name: C3, Velocity: 43
Note OFF: Time 216720, Note Name: C3
Note ON: Time 216720, Note Name: G#3, Velocity: 43
Note OFF: Time 216840, Note Name: G#3
Note ON: Time 216840, Note Name: C3, Velocity: 43
Note OFF: Time 216960, Note Name: C3
Note ON: Time 216960, Note Name: D2, Velocity: 53
Note OFF: Time 217080, Note Name: D2
Note ON: Time 217080, Note Name: A#2, Velocity: 44
Note OFF: Time 217200, Note Name: A#2
Note ON: Time 217200, Note Name: F3, Velocity: 44
Note OFF: Time 217320, Note Name: F3
Note ON: Time 217320, Note Name: A#2, Velocity: 44
Note OFF: Time 217440, Note Name: A#2
Note ON: Time 217440, Note Name: D2, Velocity: 53
Note OFF: Time 217560, Note Name: D2
Note ON: Time 217560, Note Name: A#2, Velocity: 46
Note OFF: Time 217680, Note Name: A#2
Note ON: Time 217680, Note Name: F3, Velocity: 46
Note OFF: Time 217800, Note Name: F3
Note ON: Time 217800, Note Name: A#2, Velocity: 46
Note OFF: Time 217920, Note Name: A#2
Note ON: Time 217920, Note Name: D#2, Velocity: 56
Note OFF: Time 218040, Note Name: D#2
Note ON: Time 218040, Note Name: A#2, Velocity: 40
Note OFF: Time 218160, Note Name: A#2
Note ON: Time 218160, Note Name: F#3, Velocity: 40
Note OFF: Time 218280, Note Name: F#3
Note ON: Time 218280, Note Name: A#2, Velocity: 40
Note OFF: Time 218400, Note Name: A#2
Note ON: Time 218400, Note Name: D#2, Velocity: 54
Note OFF: Time 218520, Note Name: D#2
Note ON: Time 218520, Note Name: A#2, Velocity: 44
Note OFF: Time 218640, Note Name: A#2
Note ON: Time 218640, Note Name: F#3, Velocity: 43
Note OFF: Time 218760, Note Name: F#3
Note ON: Time 218760, Note Name: A#2, Velocity: 43
Note OFF: Time 218880, Note Name: A#2
Note ON: Time 218880, Note Name: F2, Velocity: 58
Note OFF: Time 219000, Note Name: F2
Note ON: Time 219000, Note Name: A#2, Velocity: 49
Note OFF: Time 219120, Note Name: A#2
Note ON: Time 219120, Note Name: G#3, Velocity: 49
Note OFF: Time 219240, Note Name: G#3
Note ON: Time 219240, Note Name: A#2, Velocity: 47
Note OFF: Time 219360, Note Name: A#2
Note ON: Time 219360, Note Name: F2, Velocity: 53
Note OFF: Time 219480, Note Name: F2
Note ON: Time 219480, Note Name: A#2, Velocity: 44
Note OFF: Time 219600, Note Name: A#2
Note ON: Time 219600, Note Name: G#3, Velocity: 44
Note OFF: Time 219720, Note Name: G#3
Note ON: Time 219720, Note Name: A#2, Velocity: 44
Note OFF: Time 219840, Note Name: A#2
Note ON: Time 219840, Note Name: F#2, Velocity: 53
Note OFF: Time 219960, Note Name: F#2
Note ON: Time 219960, Note Name: A#2, Velocity: 43
Note OFF: Time 220080, Note Name: A#2
Note ON: Time 220080, Note Name: A#3, Velocity: 43
Note OFF: Time 220200, Note Name: A#3
Note ON: Time 220200, Note Name: A#2, Velocity: 43
Note OFF: Time 220320, Note Name: A#2
Note ON: Time 220320, Note Name: F#2, Velocity: 53
Note OFF: Time 220440, Note Name: F#2
Note ON: Time 220440, Note Name: A#2, Velocity: 43
Note OFF: Time 220560, Note Name: A#2
Note ON: Time 220560, Note Name: A#3, Velocity: 43
Note OFF: Time 220680, Note Name: A#3
Note ON: Time 220680, Note Name: A#2, Velocity: 43
Note OFF: Time 220800, Note Name: A#2
Note ON: Time 220800, Note Name: G#2, Velocity: 53
Note OFF: Time 220920, Note Name: G#2
Note ON: Time 220920, Note Name: A#2, Velocity: 44
Note OFF: Time 221040, Note Name: A#2
Note ON: Time 221040, Note Name: G#3, Velocity: 44
Note OFF: Time 221160, Note Name: G#3
Note ON: Time 221160, Note Name: A#2, Velocity: 44
Note OFF: Time 221280, Note Name: A#2
Note ON: Time 221280, Note Name: A#1, Velocity: 53
Note OFF: Time 221400, Note Name: A#1
Note ON: Time 221400, Note Name: A#2, Velocity: 46
Note OFF: Time 221520, Note Name: A#2
Note ON: Time 221520, Note Name: F3, Velocity: 46
Note OFF: Time 221640, Note Name: F3
Note ON: Time 221640, Note Name: A#2, Velocity: 46
Note OFF: Time 221760, Note Name: A#2
Note ON: Time 221760, Note Name: D#2, Velocity: 56
Note OFF: Time 221880, Note Name: D#2
Note ON: Time 221880, Note Name: A#2, Velocity: 40
Note OFF: Time 222000, Note Name: A#2
Note ON: Time 222000, Note Name: F#3, Velocity: 40
Note OFF: Time 222120, Note Name: F#3
Note ON: Time 222120, Note Name: A#2, Velocity: 40
Note OFF: Time 222240, Note Name: A#2
Note ON: Time 222240, Note Name: F2, Velocity: 54
Note OFF: Time 222360, Note Name: F2
Note ON: Time 222360, Note Name: A#2, Velocity: 44
Note OFF: Time 222480, Note Name: A#2
Note ON: Time 222480, Note Name: G#3, Velocity: 43
Note OFF: Time 222600, Note Name: G#3
Note ON: Time 222600, Note Name: A#2, Velocity: 43
Note OFF: Time 222720, Note Name: A#2
Note ON: Time 222720, Note Name: G2, Velocity: 56
Note OFF: Time 222840, Note Name: G2
Note ON: Time 222840, Note Name: D#3, Velocity: 40
Note OFF: Time 222960, Note Name: D#3
Note ON: Time 222960, Note Name: A#3, Velocity: 40
Note OFF: Time 223080, Note Name: A#3
Note ON: Time 223080, Note Name: D#3, Velocity: 40
Note OFF: Time 223200, Note Name: D#3
Note ON: Time 223200, Note Name: G#2, Velocity: 54
Note OFF: Time 223320, Note Name: G#2
Note ON: Time 223320, Note Name: D#3, Velocity: 44
Note OFF: Time 223440, Note Name: D#3
Note ON: Time 223440, Note Name: B3, Velocity: 43
Note OFF: Time 223560, Note Name: B3
Note ON: Time 223560, Note Name: D#3, Velocity: 43
Note OFF: Time 223680, Note Name: D#3
Note ON: Time 225600, Note Name: B3, Velocity: 43
Note OFF: Time 226560, Note Name: B3
Note ON: Time 226560, Note Name: A#3, Velocity: 44
Note OFF: Time 227520, Note Name: A#3
Note ON: Time 227520, Note Name: A3, Velocity: 46
Note OFF: Time 227760, Note Name: A3
Note ON: Time 229440, Note Name: C4, Velocity: 43
Note OFF: Time 230400, Note Name: C4
Note ON: Time 230400, Note Name: A#3, Velocity: 44
Note OFF: Time 231360, Note Name: A#3
Note ON: Time 231360, Note Name: G#3, Velocity: 46
Note OFF: Time 231600, Note Name: G#3
Note ON: Time 233280, Note Name: F4, Velocity: 36
Note ON: Time 233280, Note Name: G#4, Velocity: 43
Note OFF: Time 234240, Note Name: G#4
Note OFF: Time 234240, Note Name: F4
Note ON: Time 234240, Note Name: D#4, Velocity: 39
Note ON: Time 234240, Note Name: G4, Velocity: 47
Note OFF: Time 235200, Note Name: G4
Note OFF: Time 235200, Note Name: D#4
Note ON: Time 235200, Note Name: D4, Velocity: 40
Note ON: Time 235200, Note Name: F4, Velocity: 48
Note OFF: Time 236160, Note Name: F4
Note OFF: Time 236160, Note Name: D4
Note ON: Time 236160, Note Name: C4, Velocity: 43
Note ON: Time 236160, Note Name: D#4, Velocity: 51
Note OFF: Time 237120, Note Name: D#4
Note OFF: Time 237120, Note Name: C4
Note ON: Time 237120, Note Name: B3, Velocity: 55
Note ON: Time 237120, Note Name: D4, Velocity: 64
Note OFF: Time 238080, Note Name: D4
Note OFF: Time 238080, Note Name: B3
Note ON: Time 238080, Note Name: D#4, Velocity: 41
Note ON: Time 238080, Note Name: A#3, Velocity: 34
Note OFF: Time 238560, Note Name: D#4
Note ON: Time 238560, Note Name: F4, Velocity: 36
Note OFF: Time 238800, Note Name: F4
Note ON: Time 238800, Note Name: D4, Velocity: 36
Note OFF: Time 239040, Note Name: D4
Note OFF: Time 239040, Note Name: A#3
Note ON: Time 239160, Note Name: A#3, Velocity: 36
Note OFF: Time 239280, Note Name: A#3
Note ON: Time 239280, Note Name: C4, Velocity: 36
Note OFF: Time 239400, Note Name: C4
Note ON: Time 239400, Note Name: A#3, Velocity: 36
Note OFF: Time 239520, Note Name: A#3
Note ON: Time 239520, Note Name: A3, Velocity: 42
Note OFF: Time 239640, Note Name: A3
Note ON: Time 239640, Note Name: A#3, Velocity: 36
Note OFF: Time 239760, Note Name: A#3
Note ON: Time 239760, Note Name: G3, Velocity: 36
Note OFF: Time 239880, Note Name: G3
Note ON: Time 239880, Note Name: D#3, Velocity: 36
Note OFF: Time 240000, Note Name: D#3
Note ON: Time 240000, Note Name: G#3, Velocity: 42
Note OFF: Time 240120, Note Name: G#3
Note ON: Time 240120, Note Name: F3, Velocity: 36
Note OFF: Time 240240, Note Name: F3
Note ON: Time 240240, Note Name: D3, Velocity: 36
Note OFF: Time 240360, Note Name: D3
Note ON: Time 240360, Note Name: A#2, Velocity: 36
Note OFF: Time 240480, Note Name: A#2
Note ON: Time 240480, Note Name: G#2, Velocity: 43
Note OFF: Time 240600, Note Name: G#2
Note ON: Time 240600, Note Name: F2, Velocity: 36
Note OFF: Time 240720, Note Name: F2
Note ON: Time 240720, Note Name: D2, Velocity: 36
Note OFF: Time 240840, Note Name: D2
Note ON: Time 240840, Note Name: A#1, Velocity: 36
Note OFF: Time 240960, Note Name: A#1
Note ON: Time 240960, Note Name: D#2, Velocity: 45
Note OFF: Time 241080, Note Name: D#2
Note ON: Time 241080, Note Name: F2, Velocity: 36
Note OFF: Time 241200, Note Name: F2
Note ON: Time 241200, Note Name: G2, Velocity: 36
Note OFF: Time 241320, Note Name: G2
Note ON: Time 241320, Note Name: G#2, Velocity: 36
Note OFF: Time 241440, Note Name: G#2
Note ON: Time 241440, Note Name: A#2, Velocity: 43
Note OFF: Time 241560, Note Name: A#2
Note ON: Time 241560, Note Name: C3, Velocity: 36
Note OFF: Time 241680, Note Name: C3
Note ON: Time 241680, Note Name: D3, Velocity: 36
Note OFF: Time 241800, Note Name: D3
Note ON: Time 241800, Note Name: D#3, Velocity: 36
Note OFF: Time 241920, Note Name: D#3
Note ON: Time 241920, Note Name: A#2, Velocity: 33
Note ON: Time 241920, Note Name: F3, Velocity: 42
Note OFF: Time 242040, Note Name: F3
Note ON: Time 242040, Note Name: G3, Velocity: 30
Note OFF: Time 242160, Note Name: G3
Note ON: Time 242160, Note Name: G#3, Velocity: 30
Note OFF: Time 242280, Note Name: G#3
Note ON: Time 242280, Note Name: A3, Velocity: 30
Note OFF: Time 242400, Note Name: A3
Note ON: Time 242400, Note Name: A#3, Velocity: 39
Note OFF: Time 242640, Note Name: A#3
Note ON: Time 242640, Note Name: G#3, Velocity: 33
Note OFF: Time 242880, Note Name: G#3
Note OFF: Time 242880, Note Name: A#2
Note ON: Time 242880, Note Name: G3, Velocity: 39
Note ON: Time 242880, Note Name: D#3, Velocity: 33
Note OFF: Time 243840, Note Name: D#3
Note OFF: Time 243840, Note Name: G3
Note ON: Time 243840, Note Name: A#2, Velocity: 33
Note ON: Time 243840, Note Name: F3, Velocity: 39
Note OFF: Time 244800, Note Name: F3
Note OFF: Time 244800, Note Name: A#2
Note ON: Time 244800, Note Name: D#4, Velocity: 33
Note ON: Time 244800, Note Name: G4, Velocity: 39
Note OFF: Time 245760, Note Name: G4
Note OFF: Time 245760, Note Name: D#4
Note ON: Time 245760, Note Name: A#3, Velocity: 33
Note ON: Time 245760, Note Name: F4, Velocity: 39
Note OFF: Time 246720, Note Name: F4
Note OFF: Time 246720, Note Name: A#3
Note ON: Time 246720, Note Name: D#5, Velocity: 33
Note ON: Time 246720, Note Name: G5, Velocity: 39
Note OFF: Time 247680, Note Name: G5
Note OFF: Time 247680, Note Name: D#5
Note ON: Time 247680, Note Name: A#4, Velocity: 36
Note ON: Time 247680, Note Name: D5, Velocity: 36
Note ON: Time 247680, Note Name: F5, Velocity: 43
Note OFF: Time 248160, Note Name: F5
Note OFF: Time 248160, Note Name: D5
Note OFF: Time 248160, Note Name: A#4
Note ON: Time 248160, Note Name: G#4, Velocity: 39
Note ON: Time 248160, Note Name: A#4, Velocity: 39
Note ON: Time 248160, Note Name: D5, Velocity: 39
Note ON: Time 248160, Note Name: F5, Velocity: 46
Note OFF: Time 248640, Note Name: F5
Note OFF: Time 248640, Note Name: G#4
Note OFF: Time 248640, Note Name: A#4
Note OFF: Time 248640, Note Name: D5
Note ON: Time 248640, Note Name: G4, Velocity: 40
Note ON: Time 248640, Note Name: A#4, Velocity: 48
Note OFF: Time 249120, Note Name: A#4
Note OFF: Time 249120, Note Name: G4
Note ON: Time 249120, Note Name: D#4, Velocity: 39
Note ON: Time 249120, Note Name: G4, Velocity: 46
Note OFF: Time 249600, Note Name: G4
Note OFF: Time 249600, Note Name: D#4
Note ON: Time 249600, Note Name: A#3, Velocity: 37
Note ON: Time 249600, Note Name: F4, Velocity: 37
Note ON: Time 249600, Note Name: G#4, Velocity: 44
Note OFF: Time 250080, Note Name: G#4
Note OFF: Time 250080, Note Name: F4
Note OFF: Time 250080, Note Name: A#3
Note ON: Time 250080, Note Name: A#3, Velocity: 34
Note ON: Time 250080, Note Name: F4, Velocity: 34
Note ON: Time 250080, Note Name: G#4, Velocity: 41
Note OFF: Time 250560, Note Name: G#4
Note OFF: Time 250560, Note Name: F4
Note OFF: Time 250560, Note Name: A#3
Note ON: Time 250680, Note Name: A#3, Velocity: 36
Note OFF: Time 250800, Note Name: A#3
Note ON: Time 250800, Note Name: C4, Velocity: 36
Note OFF: Time 250920, Note Name: C4
Note ON: Time 250920, Note Name: A#3, Velocity: 36
Note OFF: Time 251040, Note Name: A#3
Note ON: Time 251040, Note Name: A3, Velocity: 42
Note OFF: Time 251160, Note Name: A3
Note ON: Time 251160, Note Name: A#3, Velocity: 36
Note OFF: Time 251280, Note Name: A#3
Note ON: Time 251280, Note Name: G3, Velocity: 36
Note OFF: Time 251400, Note Name: G3
Note ON: Time 251400, Note Name: D#3, Velocity: 36
Note OFF: Time 251520, Note Name: D#3
Note ON: Time 251520, Note Name: G#3, Velocity: 42
Note OFF: Time 251640, Note Name: G#3
Note ON: Time 251640, Note Name: F3, Velocity: 36
Note OFF: Time 251760, Note Name: F3
Note ON: Time 251760, Note Name: D3, Velocity: 36
Note OFF: Time 251880, Note Name: D3
Note ON: Time 251880, Note Name: A#2, Velocity: 36
Note OFF: Time 252000, Note Name: A#2
Note ON: Time 252000, Note Name: G#2, Velocity: 43
Note OFF: Time 252120, Note Name: G#2
Note ON: Time 252120, Note Name: F2, Velocity: 36
Note OFF: Time 252240, Note Name: F2
Note ON: Time 252240, Note Name: D2, Velocity: 36
Note OFF: Time 252360, Note Name: D2
Note ON: Time 252360, Note Name: A#1, Velocity: 36
Note OFF: Time 252480, Note Name: A#1
Note ON: Time 252480, Note Name: D#2, Velocity: 45
Note OFF: Time 252600, Note Name: D#2
Note ON: Time 252600, Note Name: F2, Velocity: 36
Note OFF: Time 252720, Note Name: F2
Note ON: Time 252720, Note Name: G2, Velocity: 36
Note OFF: Time 252840, Note Name: G2
Note ON: Time 252840, Note Name: G#2, Velocity: 36
Note OFF: Time 252960, Note Name: G#2
Note ON: Time 252960, Note Name: A#2, Velocity: 43
Note OFF: Time 253080, Note Name: A#2
Note ON: Time 253080, Note Name: C3, Velocity: 36
Note OFF: Time 253200, Note Name: C3
Note ON: Time 253200, Note Name: D3, Velocity: 36
Note OFF: Time 253320, Note Name: D3
Note ON: Time 253320, Note Name: D#3, Velocity: 36
Note OFF: Time 253440, Note Name: D#3
Note ON: Time 253440, Note Name: A#2, Velocity: 33
Note ON: Time 253440, Note Name: F3, Velocity: 42
Note OFF: Time 253560, Note Name: F3
Note ON: Time 253560, Note Name: G3, Velocity: 30
Note OFF: Time 253680, Note Name: G3
Note ON: Time 253680, Note Name: G#3, Velocity: 30
Note OFF: Time 253800, Note Name: G#3
Note ON: Time 253800, Note Name: A3, Velocity: 30
Note OFF: Time 253920, Note Name: A3
Note ON: Time 253920, Note Name: A#3, Velocity: 39
Note OFF: Time 254160, Note Name: A#3
Note ON: Time 254160, Note Name: G#3, Velocity: 33
Note OFF: Time 254400, Note Name: G#3
Note OFF: Time 254400, Note Name: A#2
Note ON: Time 254400, Note Name: G3, Velocity: 39
Note ON: Time 254400, Note Name: D#3, Velocity: 33
Note OFF: Time 255360, Note Name: D#3
Note OFF: Time 255360, Note Name: G3
Note ON: Time 255360, Note Name: A#2, Velocity: 33
Note ON: Time 255360, Note Name: F3, Velocity: 39
Note OFF: Time 256320, Note Name: F3
Note OFF: Time 256320, Note Name: A#2
Note ON: Time 256320, Note Name: D#4, Velocity: 33
Note ON: Time 256320, Note Name: G4, Velocity: 39
Note OFF: Time 257280, Note Name: G4
Note OFF: Time 257280, Note Name: D#4
Note ON: Time 257280, Note Name: A#3, Velocity: 33
Note ON: Time 257280, Note Name: F4, Velocity: 39
Note OFF: Time 258240, Note Name: F4
Note OFF: Time 258240, Note Name: A#3
Note ON: Time 258240, Note Name: D#5, Velocity: 33
Note ON: Time 258240, Note Name: G5, Velocity: 39
Note OFF: Time 259200, Note Name: G5
Note OFF: Time 259200, Note Name: D#5
Note ON: Time 259200, Note Name: A#4, Velocity: 36
Note ON: Time 259200, Note Name: F5, Velocity: 43
Note OFF: Time 259680, Note Name: F5
Note OFF: Time 259680, Note Name: A#4
Note ON: Time 259680, Note Name: G#4, Velocity: 39
Note ON: Time 259680, Note Name: A#4, Velocity: 39
Note ON: Time 259680, Note Name: F5, Velocity: 46
Note OFF: Time 260160, Note Name: F5
Note OFF: Time 260160, Note Name: A#4
Note OFF: Time 260160, Note Name: G#4
Note ON: Time 260160, Note Name: G4, Velocity: 40
Note ON: Time 260160, Note Name: A#4, Velocity: 48
Note OFF: Time 260278, Note Name: A#4
Note OFF: Time 260400, Note Name: G4
Note ON: Time 260400, Note Name: D#4, Velocity: 39
Note ON: Time 260400, Note Name: G4, Velocity: 46
Note OFF: Time 260880, Note Name: G4
Note OFF: Time 260880, Note Name: D#4
Note ON: Time 260880, Note Name: D#4, Velocity: 40
Note ON: Time 260880, Note Name: G4, Velocity: 48
Note OFF: Time 261120, Note Name: G4
Note OFF: Time 261120, Note Name: D#4
Note ON: Time 261120, Note Name: A#3, Velocity: 37
Note ON: Time 261120, Note Name: F4, Velocity: 44
Note OFF: Time 261600, Note Name: F4
Note OFF: Time 261600, Note Name: A#3
Note ON: Time 261600, Note Name: G#3, Velocity: 34
Note ON: Time 261600, Note Name: A#3, Velocity: 34
Note ON: Time 261600, Note Name: F4, Velocity: 41
Note OFF: Time 262080, Note Name: F4
Note OFF: Time 262080, Note Name: A#3
Note OFF: Time 262080, Note Name: G#3
Note ON: Time 262080, Note Name: G3, Velocity: 40
Note ON: Time 262080, Note Name: A#3, Velocity: 48
Note OFF: Time 262198, Note Name: A#3
Note OFF: Time 262320, Note Name: G3
Note ON: Time 262320, Note Name: D#3, Velocity: 33
Note ON: Time 262320, Note Name: G3, Velocity: 39
Note OFF: Time 262800, Note Name: G3
Note OFF: Time 262800, Note Name: D#3
Note ON: Time 262800, Note Name: D#3, Velocity: 34
Note ON: Time 262800, Note Name: G3, Velocity: 40
Note OFF: Time 263040, Note Name: G3
Note OFF: Time 263040, Note Name: D#3
Note ON: Time 263040, Note Name: F3, Velocity: 31
Note ON: Time 263040, Note Name: A#2, Velocity: 31
Note ON: Time 263040, Note Name: G#3, Velocity: 37
Note OFF: Time 263520, Note Name: G#3
Note OFF: Time 263520, Note Name: A#2
Note OFF: Time 263520, Note Name: F3
Note ON: Time 263520, Note Name: A#2, Velocity: 28
Note ON: Time 263520, Note Name: F3, Velocity: 28
Note ON: Time 263520, Note Name: G#3, Velocity: 34
Note OFF: Time 264000, Note Name: G#3
Note OFF: Time 264000, Note Name: F3
Note OFF: Time 264000, Note Name: A#2
Note ON: Time 265920, Note Name: D#3, Velocity: 43
Note OFF: Time 266880, Note Name: D#3
Note ON: Time 266880, Note Name: A#2, Velocity: 44
Note OFF: Time 267840, Note Name: A#2
Note ON: Time 267840, Note Name: G2, Velocity: 37
Note OFF: Time 268080, Note Name: G2
Note ON: Time 269760, Note Name: G3, Velocity: 43
Note ON: Time 269760, Note Name: D#3, Velocity: 36
Note OFF: Time 270720, Note Name: D#3
Note OFF: Time 270720, Note Name: G3
Note ON: Time 270720, Note Name: F3, Velocity: 44
Note ON: Time 270720, Note Name: A#2, Velocity: 37
Note OFF: Time 271680, Note Name: A#2
Note OFF: Time 271680, Note Name: F3
Note ON: Time 271680, Note Name: G2, Velocity: 27
Note ON: Time 271680, Note Name: D#3, Velocity: 33
Note OFF: Time 271920, Note Name: D#3
Note OFF: Time 271920, Note Name: G2
Note ON: Time 272400, Note Name: D#3, Velocity: 26
Note ON: Time 272400, Note Name: G3, Velocity: 31
Note OFF: Time 272638, Note Name: G3
Note OFF: Time 272640, Note Name: D#3
Note ON: Time 272640, Note Name: A#2, Velocity: 31
Note ON: Time 272640, Note Name: F3, Velocity: 37
Note OFF: Time 273600, Note Name: F3
Note OFF: Time 273600, Note Name: A#2
Note ON: Time 273600, Note Name: G2, Velocity: 27
Note ON: Time 273600, Note Name: D#3, Velocity: 33
Note OFF: Time 273840, Note Name: D#3
Note OFF: Time 273840, Note Name: G2
Note ON: Time 274320, Note Name: D#4, Velocity: 26
Note ON: Time 274320, Note Name: G4, Velocity: 31
Note OFF: Time 274558, Note Name: G4
Note OFF: Time 274560, Note Name: D#4
Note ON: Time 274560, Note Name: A#3, Velocity: 31
Note ON: Time 274560, Note Name: F4, Velocity: 37
Note OFF: Time 275520, Note Name: F4
Note OFF: Time 275520, Note Name: A#3
Note ON: Time 275520, Note Name: G3, Velocity: 31
Note ON: Time 275520, Note Name: D#4, Velocity: 37
Note OFF: Time 275760, Note Name: D#4
Note OFF: Time 275760, Note Name: G3
Note ON: Time 276720, Note Name: D#5, Velocity: 38
Note ON: Time 276720, Note Name: G5, Velocity: 45
Note OFF: Time 276960, Note Name: G5
Note OFF: Time 276960, Note Name: D#5
Note ON: Time 276960, Note Name: A#4, Velocity: 41
Note ON: Time 276960, Note Name: F5, Velocity: 49
Note OFF: Time 277200, Note Name: F5
Note OFF: Time 277200, Note Name: A#4
Note ON: Time 277200, Note Name: D#5, Velocity: 46
Note ON: Time 277200, Note Name: G4, Velocity: 39
Note OFF: Time 277438, Note Name: G4
Note OFF: Time 277438, Note Name: D#5
Note ON: Time 277440, Note Name: G4, Velocity: 38
Note ON: Time 277440, Note Name: D#5, Velocity: 45
Note OFF: Time 277678, Note Name: G4
Note OFF: Time 277680, Note Name: D#5
Note ON: Time 278640, Note Name: D#3, Velocity: 38
Note ON: Time 278640, Note Name: G3, Velocity: 45
Note OFF: Time 278880, Note Name: G3
Note OFF: Time 278880, Note Name: D#3
Note ON: Time 278880, Note Name: A#2, Velocity: 41
Note ON: Time 278880, Note Name: F3, Velocity: 49
Note OFF: Time 279120, Note Name: F3
Note OFF: Time 279120, Note Name: A#2
Note ON: Time 279120, Note Name: D#3, Velocity: 46
Note ON: Time 279120, Note Name: G2, Velocity: 39
Note OFF: Time 279360, Note Name: G2
Note OFF: Time 279360, Note Name: D#3
Note ON: Time 279600, Note Name: D3, Velocity: 47
Note ON: Time 279600, Note Name: F3, Velocity: 56
Note OFF: Time 279720, Note Name: F3
Note OFF: Time 279720, Note Name: D3
Note ON: Time 279840, Note Name: D#2, Velocity: 59
Note OFF: Time 279960, Note Name: D#2
Note ON: Time 280560, Note Name: D3, Velocity: 54
Note ON: Time 280560, Note Name: F3, Velocity: 63
Note OFF: Time 280680, Note Name: F3
Note OFF: Time 280680, Note Name: D3
Note ON: Time 280800, Note Name: D#2, Velocity: 65
Note OFF: Time 280920, Note Name: D#2
Note ON: Time 281520, Note Name: D3, Velocity: 59
Note ON: Time 281520, Note Name: F3, Velocity: 70
Note OFF: Time 281640, Note Name: F3
Note OFF: Time 281640, Note Name: D3
Note ON: Time 281760, Note Name: D#2, Velocity: 73
Note OFF: Time 281880, Note Name: D#2
Note ON: Time 282480, Note Name: A#2, Velocity: 77
Note OFF: Time 282600, Note Name: A#2
Note ON: Time 282720, Note Name: A#1, Velocity: 80
Note OFF: Time 282840, Note Name: A#1
Note ON: Time 282960, Note Name: A#2, Velocity: 82
Note OFF: Time 283080, Note Name: A#2
Note ON: Time 283200, Note Name: D#2, Velocity: 30
Note OFF: Time 284151, Note Name: D#2
Note ON: Time 284160, Note Name: D#2, Velocity: 30
Note ON: Time 284160, Note Name: D2, Velocity: 24
Note OFF: Time 285111, Note Name: D2
Note OFF: Time 285111, Note Name: D#2
Note ON: Time 285120, Note Name: C2, Velocity: 24
Note ON: Time 285120, Note Name: D#2, Velocity: 30
Note OFF: Time 286071, Note Name: D#2
Note OFF: Time 286071, Note Name: C2
Note ON: Time 286080, Note Name: A#1, Velocity: 24
Note ON: Time 286080, Note Name: D#2, Velocity: 30
Note OFF: Time 287031, Note Name: D#2
Note OFF: Time 287031, Note Name: A#1
Note ON: Time 287040, Note Name: G#1, Velocity: 24
Note ON: Time 287040, Note Name: D#2, Velocity: 30
Note OFF: Time 287991, Note Name: D#2
Note OFF: Time 287991, Note Name: G#1
Note ON: Time 288000, Note Name: G1, Velocity: 24
Note ON: Time 288000, Note Name: D#2, Velocity: 30
Note OFF: Time 288951, Note Name: D#2
Note OFF: Time 288951, Note Name: G1
Note ON: Time 288960, Note Name: G#1, Velocity: 24
Note ON: Time 288960, Note Name: D#2, Velocity: 30
Note OFF: Time 289911, Note Name: D#2
Note OFF: Time 289911, Note Name: G#1
Note ON: Time 289920, Note Name: G1, Velocity: 24
Note ON: Time 289920, Note Name: D#2, Velocity: 30
Note OFF: Time 290871, Note Name: D#2
Note OFF: Time 290871, Note Name: G1
Note ON: Time 290880, Note Name: G#1, Velocity: 24
Note ON: Time 290880, Note Name: D#2, Velocity: 30
Note OFF: Time 291831, Note Name: D#2
Note OFF: Time 291831, Note Name: G#1
Note ON: Time 291840, Note Name: G1, Velocity: 26
Note ON: Time 291840, Note Name: D#2, Velocity: 33
Note OFF: Time 292080, Note Name: D#2
Note OFF: Time 292080, Note Name: G1
Note ON: Time 293760, Note Name: A#1, Velocity: 53
Note ON: Time 293760, Note Name: D2, Velocity: 53
Note ON: Time 293760, Note Name: F2, Velocity: 53
Note ON: Time 293760, Note Name: A#2, Velocity: 63
Note OFF: Time 294000, Note Name: A#2
Note OFF: Time 294000, Note Name: A#1
Note OFF: Time 294000, Note Name: D2
Note OFF: Time 294000, Note Name: F2
Note ON: Time 294720, Note Name: D#2, Velocity: 53
Note ON: Time 294720, Note Name: G2, Velocity: 53
Note ON: Time 294720, Note Name: A#2, Velocity: 53
Note ON: Time 294720, Note Name: D#3, Velocity: 63
Note OFF: Time 294960, Note Name: D#3
Note OFF: Time 294960, Note Name: D#2
Note OFF: Time 294960, Note Name: G2
Note OFF: Time 294960, Note Name: A#2
Track 3: Pedale
Track 4: Beethoven: Les adieux  1. Satz
Track 5: Copyright  2008 by Bernd Krueger
Track 6: http://www.piano-midi.de/
Track 7: Edition: 2012-08-06
Track 8: Spur 8
Track 9: Spur 9
Track 10: Spur 10
Track 11: Spur 11
Track 12: Spur 12
Track 13: Spur 13
Track 14: Spur 14
Track 15: Spur 15
Track 16: Spur 16
