Processing chp_op18.mid...

Track 0: Grand Valse Brillante in Es-Dur Opus 18
Track 1: Piano right
Note ON: Time 0, Note Name: A#4, Velocity: 80
Note OFF: Time 960, Note Name: A#4
Note ON: Time 960, Note Name: A#4, Velocity: 74
Note OFF: Time 1080, Note Name: A#4
Note ON: Time 1200, Note Name: A#4, Velocity: 70
Note OFF: Time 1320, Note Name: A#4
Note ON: Time 1440, Note Name: A#4, Velocity: 79
Note OFF: Time 2400, Note Name: A#4
Note ON: Time 2400, Note Name: A#4, Velocity: 75
Note OFF: Time 2520, Note Name: A#4
Note ON: Time 2640, Note Name: A#4, Velocity: 69
Note OFF: Time 2760, Note Name: A#4
Note ON: Time 2880, Note Name: A#4, Velocity: 78
Note OFF: Time 3360, Note Name: A#4
Note ON: Time 3360, Note Name: A#4, Velocity: 72
Note OFF: Time 3480, Note Name: A#4
Note ON: Time 3600, Note Name: A#4, Velocity: 67
Note OFF: Time 3720, Note Name: A#4
Note ON: Time 3840, Note Name: A#4, Velocity: 74
Note OFF: Time 4320, Note Name: A#4
Note ON: Time 4320, Note Name: A#4, Velocity: 69
Note OFF: Time 4440, Note Name: A#4
Note ON: Time 4560, Note Name: A#4, Velocity: 66
Note OFF: Time 4680, Note Name: A#4
Note ON: Time 4800, Note Name: A#4, Velocity: 73
Note OFF: Time 5280, Note Name: A#4
Note ON: Time 5280, Note Name: A#4, Velocity: 59
Note OFF: Time 5400, Note Name: A#4
Note ON: Time 5520, Note Name: A#4, Velocity: 59
Note OFF: Time 5640, Note Name: A#4
Note ON: Time 5760, Note Name: A#4, Velocity: 72
Note OFF: Time 6240, Note Name: A#4
Note ON: Time 6240, Note Name: D5, Velocity: 60
Note ON: Time 6480, Note Name: D#5, Velocity: 49
Note OFF: Time 6500, Note Name: D5
Note ON: Time 6720, Note Name: D5, Velocity: 57
Note ON: Time 6720, Note Name: F5, Velocity: 57
Note OFF: Time 6740, Note Name: D#5
Note OFF: Time 7080, Note Name: F5
Note OFF: Time 7080, Note Name: D5
Note ON: Time 7200, Note Name: A#4, Velocity: 67
Note OFF: Time 7440, Note Name: A#4
Note ON: Time 7680, Note Name: D#5, Velocity: 64
Note ON: Time 7920, Note Name: F5, Velocity: 48
Note OFF: Time 7940, Note Name: D#5
Note ON: Time 8160, Note Name: D#5, Velocity: 56
Note ON: Time 8160, Note Name: G5, Velocity: 56
Note OFF: Time 8180, Note Name: F5
Note OFF: Time 8520, Note Name: G5
Note OFF: Time 8520, Note Name: D#5
Note ON: Time 8640, Note Name: A#4, Velocity: 72
Note OFF: Time 8880, Note Name: A#4
Note ON: Time 9120, Note Name: F5, Velocity: 67
Note ON: Time 9360, Note Name: G5, Velocity: 52
Note OFF: Time 9380, Note Name: F5
Note ON: Time 9600, Note Name: F5, Velocity: 75
Note ON: Time 9600, Note Name: G#5, Velocity: 75
Note OFF: Time 9620, Note Name: G5
Note OFF: Time 9960, Note Name: G#5
Note OFF: Time 9960, Note Name: F5
Note ON: Time 10080, Note Name: A#5, Velocity: 82
Note ON: Time 10080, Note Name: G5, Velocity: 82
Note ON: Time 10080, Note Name: C#5, Velocity: 69
Note OFF: Time 11040, Note Name: C#5
Note OFF: Time 11040, Note Name: G5
Note OFF: Time 11040, Note Name: A#5
Note ON: Time 11040, Note Name: A#5, Velocity: 68
Note ON: Time 11040, Note Name: G5, Velocity: 68
Note ON: Time 11040, Note Name: C#5, Velocity: 57
Note OFF: Time 11280, Note Name: C#5
Note OFF: Time 11280, Note Name: G5
Note OFF: Time 11280, Note Name: A#5
Note ON: Time 11280, Note Name: A#5, Velocity: 58
Note ON: Time 11280, Note Name: G5, Velocity: 58
Note ON: Time 11280, Note Name: C#5, Velocity: 49
Note OFF: Time 11520, Note Name: C#5
Note OFF: Time 11520, Note Name: G5
Note OFF: Time 11520, Note Name: A#5
Note ON: Time 11520, Note Name: A#5, Velocity: 63
Note ON: Time 11520, Note Name: C#5, Velocity: 63
Note ON: Time 11520, Note Name: G5, Velocity: 63
Note OFF: Time 12000, Note Name: A#5
Note ON: Time 12000, Note Name: C6, Velocity: 52
Note ON: Time 12240, Note Name: A#5, Velocity: 48
Note OFF: Time 12260, Note Name: C6
Note OFF: Time 12480, Note Name: C#5
Note ON: Time 12480, Note Name: C5, Velocity: 54
Note ON: Time 12480, Note Name: G#5, Velocity: 54
Note OFF: Time 12500, Note Name: G5
Note OFF: Time 12500, Note Name: A#5
Note OFF: Time 12720, Note Name: C5
Note OFF: Time 12720, Note Name: G#5
Note ON: Time 12960, Note Name: G#5, Velocity: 67
Note ON: Time 12960, Note Name: B4, Velocity: 67
Note ON: Time 13440, Note Name: A#5, Velocity: 47
Note OFF: Time 13460, Note Name: G#5
Note ON: Time 13680, Note Name: G#5, Velocity: 44
Note OFF: Time 13700, Note Name: A#5
Note OFF: Time 13920, Note Name: B4
Note ON: Time 13920, Note Name: A#4, Velocity: 54
Note ON: Time 13920, Note Name: G5, Velocity: 54
Note OFF: Time 13940, Note Name: G#5
Note OFF: Time 14160, Note Name: G5
Note OFF: Time 14160, Note Name: A#4
Note ON: Time 14400, Note Name: G5, Velocity: 66
Note ON: Time 14400, Note Name: A#4, Velocity: 66
Note ON: Time 14880, Note Name: G#5, Velocity: 59
Note OFF: Time 14900, Note Name: G5
Note ON: Time 15120, Note Name: G5, Velocity: 53
Note OFF: Time 15140, Note Name: G#5
Note OFF: Time 15360, Note Name: A#4
Note ON: Time 15360, Note Name: G#4, Velocity: 59
Note ON: Time 15360, Note Name: F5, Velocity: 59
Note OFF: Time 15380, Note Name: G5
Note OFF: Time 15600, Note Name: F5
Note OFF: Time 15600, Note Name: G#4
Note ON: Time 15840, Note Name: F5, Velocity: 64
Note ON: Time 15840, Note Name: G#4, Velocity: 64
Note ON: Time 16320, Note Name: G5, Velocity: 60
Note OFF: Time 16340, Note Name: F5
Note ON: Time 16560, Note Name: F5, Velocity: 49
Note OFF: Time 16580, Note Name: G5
Note OFF: Time 16800, Note Name: G#4
Note ON: Time 16800, Note Name: D#5, Velocity: 53
Note ON: Time 16800, Note Name: G4, Velocity: 53
Note OFF: Time 16820, Note Name: F5
Note OFF: Time 17040, Note Name: G4
Note OFF: Time 17040, Note Name: D#5
Note ON: Time 17280, Note Name: A#4, Velocity: 65
Note OFF: Time 17520, Note Name: A#4
Note ON: Time 17760, Note Name: D5, Velocity: 49
Note ON: Time 18000, Note Name: D#5, Velocity: 60
Note OFF: Time 18020, Note Name: D5
Note ON: Time 18240, Note Name: D5, Velocity: 63
Note ON: Time 18240, Note Name: F5, Velocity: 63
Note OFF: Time 18260, Note Name: D#5
Note OFF: Time 18600, Note Name: F5
Note OFF: Time 18600, Note Name: D5
Note ON: Time 18720, Note Name: A#4, Velocity: 69
Note OFF: Time 18960, Note Name: A#4
Note ON: Time 19200, Note Name: D#5, Velocity: 68
Note ON: Time 19440, Note Name: F5, Velocity: 64
Note OFF: Time 19460, Note Name: D#5
Note ON: Time 19680, Note Name: D#5, Velocity: 73
Note ON: Time 19680, Note Name: G5, Velocity: 73
Note OFF: Time 19700, Note Name: F5
Note OFF: Time 20040, Note Name: G5
Note OFF: Time 20040, Note Name: D#5
Note ON: Time 20160, Note Name: A#4, Velocity: 76
Note OFF: Time 20400, Note Name: A#4
Note ON: Time 20640, Note Name: F5, Velocity: 72
Note ON: Time 20880, Note Name: G5, Velocity: 62
Note OFF: Time 20900, Note Name: F5
Note ON: Time 21120, Note Name: F5, Velocity: 75
Note ON: Time 21120, Note Name: G#5, Velocity: 75
Note OFF: Time 21140, Note Name: G5
Note OFF: Time 21480, Note Name: G#5
Note OFF: Time 21480, Note Name: F5
Note ON: Time 21600, Note Name: A#5, Velocity: 89
Note ON: Time 21600, Note Name: G5, Velocity: 89
Note ON: Time 21600, Note Name: C#5, Velocity: 75
Note OFF: Time 22320, Note Name: C#5
Note OFF: Time 22320, Note Name: G5
Note OFF: Time 22320, Note Name: A#5
Note ON: Time 22320, Note Name: G5, Velocity: 74
Note ON: Time 22320, Note Name: A#5, Velocity: 74
Note OFF: Time 22560, Note Name: A#5
Note OFF: Time 22560, Note Name: G5
Note ON: Time 22560, Note Name: C#5, Velocity: 80
Note ON: Time 22800, Note Name: A#5, Velocity: 73
Note ON: Time 22800, Note Name: G5, Velocity: 73
Note OFF: Time 23040, Note Name: G5
Note OFF: Time 23040, Note Name: A#5
Note OFF: Time 23040, Note Name: C#5
Note ON: Time 23040, Note Name: C#5, Velocity: 64
Note ON: Time 23280, Note Name: A#5, Velocity: 72
Note ON: Time 23520, Note Name: C6, Velocity: 64
Note OFF: Time 23540, Note Name: A#5
Note ON: Time 23760, Note Name: A#5, Velocity: 58
Note OFF: Time 23780, Note Name: C6
Note OFF: Time 24000, Note Name: C#5
Note ON: Time 24000, Note Name: C5, Velocity: 54
Note ON: Time 24000, Note Name: G#5, Velocity: 54
Note OFF: Time 24020, Note Name: A#5
Note OFF: Time 24240, Note Name: G#5
Note OFF: Time 24240, Note Name: C5
Note ON: Time 24480, Note Name: B4, Velocity: 65
Note ON: Time 24720, Note Name: G#5, Velocity: 69
Note ON: Time 24960, Note Name: A#5, Velocity: 65
Note OFF: Time 24980, Note Name: G#5
Note ON: Time 25200, Note Name: G#5, Velocity: 63
Note OFF: Time 25220, Note Name: A#5
Note OFF: Time 25440, Note Name: B4
Note ON: Time 25440, Note Name: A#4, Velocity: 51
Note ON: Time 25440, Note Name: G5, Velocity: 51
Note OFF: Time 25460, Note Name: G#5
Note OFF: Time 25680, Note Name: G5
Note OFF: Time 25680, Note Name: A#4
Note ON: Time 25920, Note Name: A#4, Velocity: 63
Note ON: Time 26160, Note Name: G5, Velocity: 46
Note ON: Time 26400, Note Name: G#5, Velocity: 58
Note OFF: Time 26420, Note Name: G5
Note ON: Time 26640, Note Name: G5, Velocity: 45
Note OFF: Time 26660, Note Name: G#5
Note OFF: Time 26880, Note Name: A#4
Note ON: Time 26880, Note Name: G#4, Velocity: 50
Note ON: Time 26880, Note Name: F5, Velocity: 50
Note OFF: Time 26900, Note Name: G5
Note OFF: Time 27360, Note Name: F5
Note OFF: Time 27360, Note Name: G#4
Note ON: Time 27360, Note Name: G4, Velocity: 59
Note ON: Time 27360, Note Name: D#5, Velocity: 59
Note OFF: Time 27600, Note Name: D#5
Note OFF: Time 27600, Note Name: G4
Note ON: Time 27840, Note Name: A#4, Velocity: 57
Note OFF: Time 27960, Note Name: A#4
Note ON: Time 28080, Note Name: A#4, Velocity: 50
Note OFF: Time 28200, Note Name: A#4
Note ON: Time 28320, Note Name: A#4, Velocity: 56
Note OFF: Time 28440, Note Name: A#4
Note ON: Time 28560, Note Name: A#4, Velocity: 58
Note OFF: Time 28680, Note Name: A#4
Note ON: Time 28800, Note Name: A#4, Velocity: 78
Note OFF: Time 29280, Note Name: A#4
Note ON: Time 29280, Note Name: D5, Velocity: 65
Note ON: Time 29520, Note Name: D#5, Velocity: 57
Note OFF: Time 29540, Note Name: D5
Note ON: Time 29760, Note Name: D5, Velocity: 66
Note ON: Time 29760, Note Name: F5, Velocity: 66
Note OFF: Time 29780, Note Name: D#5
Note OFF: Time 30120, Note Name: F5
Note OFF: Time 30120, Note Name: D5
Note ON: Time 30240, Note Name: A#4, Velocity: 69
Note OFF: Time 30480, Note Name: A#4
Note ON: Time 30720, Note Name: D#5, Velocity: 66
Note ON: Time 30960, Note Name: F5, Velocity: 56
Note OFF: Time 30980, Note Name: D#5
Note ON: Time 31200, Note Name: D#5, Velocity: 73
Note ON: Time 31200, Note Name: G5, Velocity: 73
Note OFF: Time 31220, Note Name: F5
Note OFF: Time 31560, Note Name: G5
Note OFF: Time 31560, Note Name: D#5
Note ON: Time 31680, Note Name: A#4, Velocity: 77
Note OFF: Time 31920, Note Name: A#4
Note ON: Time 32160, Note Name: F5, Velocity: 75
Note ON: Time 32400, Note Name: G5, Velocity: 58
Note OFF: Time 32420, Note Name: F5
Note ON: Time 32640, Note Name: F5, Velocity: 75
Note ON: Time 32640, Note Name: G#5, Velocity: 75
Note OFF: Time 32660, Note Name: G5
Note OFF: Time 33000, Note Name: G#5
Note OFF: Time 33000, Note Name: F5
Note ON: Time 33120, Note Name: A#5, Velocity: 85
Note ON: Time 33120, Note Name: G5, Velocity: 85
Note ON: Time 33120, Note Name: C#5, Velocity: 72
Note OFF: Time 34080, Note Name: C#5
Note OFF: Time 34080, Note Name: G5
Note OFF: Time 34080, Note Name: A#5
Note ON: Time 34080, Note Name: A#5, Velocity: 69
Note ON: Time 34080, Note Name: G5, Velocity: 69
Note ON: Time 34080, Note Name: C#5, Velocity: 58
Note OFF: Time 34320, Note Name: C#5
Note OFF: Time 34320, Note Name: G5
Note OFF: Time 34320, Note Name: A#5
Note ON: Time 34320, Note Name: A#5, Velocity: 47
Note ON: Time 34320, Note Name: G5, Velocity: 47
Note ON: Time 34320, Note Name: C#5, Velocity: 39
Note OFF: Time 34560, Note Name: C#5
Note OFF: Time 34560, Note Name: G5
Note OFF: Time 34560, Note Name: A#5
Note ON: Time 34560, Note Name: A#5, Velocity: 65
Note ON: Time 34560, Note Name: C#5, Velocity: 65
Note ON: Time 34560, Note Name: G5, Velocity: 65
Note ON: Time 35040, Note Name: C6, Velocity: 53
Note OFF: Time 35060, Note Name: A#5
Note ON: Time 35280, Note Name: A#5, Velocity: 49
Note OFF: Time 35300, Note Name: C6
Note OFF: Time 35520, Note Name: C#5
Note OFF: Time 35520, Note Name: G5
Note ON: Time 35520, Note Name: C5, Velocity: 51
Note ON: Time 35520, Note Name: G#5, Velocity: 51
Note OFF: Time 35540, Note Name: A#5
Note OFF: Time 35760, Note Name: G#5
Note OFF: Time 35760, Note Name: C5
Note ON: Time 36000, Note Name: G#5, Velocity: 68
Note ON: Time 36000, Note Name: B4, Velocity: 68
Note ON: Time 36480, Note Name: A#5, Velocity: 47
Note OFF: Time 36500, Note Name: G#5
Note ON: Time 36720, Note Name: G#5, Velocity: 46
Note OFF: Time 36740, Note Name: A#5
Note OFF: Time 36960, Note Name: B4
Note ON: Time 36960, Note Name: A#4, Velocity: 53
Note ON: Time 36960, Note Name: G5, Velocity: 53
Note OFF: Time 36980, Note Name: G#5
Note OFF: Time 37200, Note Name: G5
Note OFF: Time 37200, Note Name: A#4
Note ON: Time 37440, Note Name: G5, Velocity: 68
Note ON: Time 37440, Note Name: A#4, Velocity: 68
Note ON: Time 37920, Note Name: G#5, Velocity: 51
Note OFF: Time 37940, Note Name: G5
Note ON: Time 38160, Note Name: G5, Velocity: 49
Note OFF: Time 38180, Note Name: G#5
Note OFF: Time 38400, Note Name: A#4
Note ON: Time 38400, Note Name: G#4, Velocity: 61
Note ON: Time 38400, Note Name: F5, Velocity: 61
Note OFF: Time 38420, Note Name: G5
Note OFF: Time 38640, Note Name: F5
Note OFF: Time 38640, Note Name: G#4
Note ON: Time 38880, Note Name: F5, Velocity: 74
Note ON: Time 38880, Note Name: G#4, Velocity: 74
Note ON: Time 39360, Note Name: G5, Velocity: 69
Note OFF: Time 39380, Note Name: F5
Note ON: Time 39600, Note Name: F5, Velocity: 53
Note OFF: Time 39620, Note Name: G5
Note OFF: Time 39840, Note Name: G#4
Note ON: Time 39840, Note Name: D#5, Velocity: 68
Note ON: Time 39840, Note Name: G4, Velocity: 68
Note OFF: Time 39860, Note Name: F5
Note OFF: Time 40080, Note Name: G4
Note OFF: Time 40080, Note Name: D#5
Note ON: Time 40320, Note Name: A#4, Velocity: 70
Note OFF: Time 40560, Note Name: A#4
Note ON: Time 40800, Note Name: D5, Velocity: 68
Note ON: Time 41040, Note Name: D#5, Velocity: 60
Note OFF: Time 41060, Note Name: D5
Note ON: Time 41280, Note Name: D5, Velocity: 63
Note ON: Time 41280, Note Name: F5, Velocity: 63
Note OFF: Time 41300, Note Name: D#5
Note OFF: Time 41640, Note Name: F5
Note OFF: Time 41640, Note Name: D5
Note ON: Time 41760, Note Name: A#4, Velocity: 72
Note OFF: Time 42000, Note Name: A#4
Note ON: Time 42240, Note Name: D#5, Velocity: 65
Note ON: Time 42480, Note Name: F5, Velocity: 60
Note OFF: Time 42500, Note Name: D#5
Note ON: Time 42720, Note Name: D#5, Velocity: 68
Note ON: Time 42720, Note Name: G5, Velocity: 68
Note OFF: Time 42740, Note Name: F5
Note OFF: Time 43080, Note Name: G5
Note OFF: Time 43080, Note Name: D#5
Note ON: Time 43200, Note Name: A#4, Velocity: 76
Note OFF: Time 43440, Note Name: A#4
Note ON: Time 43680, Note Name: F5, Velocity: 77
Note ON: Time 43920, Note Name: G5, Velocity: 70
Note OFF: Time 43940, Note Name: F5
Note ON: Time 44160, Note Name: F5, Velocity: 77
Note ON: Time 44160, Note Name: G#5, Velocity: 77
Note OFF: Time 44180, Note Name: G5
Note OFF: Time 44520, Note Name: G#5
Note OFF: Time 44520, Note Name: F5
Note ON: Time 44640, Note Name: A#5, Velocity: 84
Note ON: Time 44640, Note Name: G5, Velocity: 84
Note ON: Time 44640, Note Name: C#5, Velocity: 71
Note OFF: Time 45360, Note Name: C#5
Note OFF: Time 45360, Note Name: G5
Note OFF: Time 45360, Note Name: A#5
Note ON: Time 45360, Note Name: G5, Velocity: 72
Note ON: Time 45360, Note Name: A#5, Velocity: 72
Note OFF: Time 45600, Note Name: A#5
Note OFF: Time 45600, Note Name: G5
Note ON: Time 45600, Note Name: C#5, Velocity: 80
Note ON: Time 45840, Note Name: A#5, Velocity: 65
Note ON: Time 45840, Note Name: G5, Velocity: 65
Note OFF: Time 46080, Note Name: G5
Note OFF: Time 46080, Note Name: A#5
Note OFF: Time 46080, Note Name: C#5
Note ON: Time 46080, Note Name: C#5, Velocity: 67
Note ON: Time 46320, Note Name: A#5, Velocity: 58
Note ON: Time 46560, Note Name: C6, Velocity: 48
Note OFF: Time 46580, Note Name: A#5
Note ON: Time 46800, Note Name: A#5, Velocity: 60
Note OFF: Time 46820, Note Name: C6
Note OFF: Time 47040, Note Name: C#5
Note ON: Time 47040, Note Name: C5, Velocity: 54
Note ON: Time 47040, Note Name: G#5, Velocity: 54
Note OFF: Time 47060, Note Name: A#5
Note OFF: Time 47280, Note Name: G#5
Note OFF: Time 47280, Note Name: C5
Note ON: Time 47520, Note Name: B4, Velocity: 70
Note ON: Time 47760, Note Name: G#5, Velocity: 69
Note ON: Time 48000, Note Name: A#5, Velocity: 45
Note OFF: Time 48020, Note Name: G#5
Note ON: Time 48240, Note Name: G#5, Velocity: 65
Note OFF: Time 48260, Note Name: A#5
Note OFF: Time 48480, Note Name: B4
Note ON: Time 48480, Note Name: A#4, Velocity: 55
Note ON: Time 48480, Note Name: G5, Velocity: 55
Note OFF: Time 48500, Note Name: G#5
Note OFF: Time 48720, Note Name: G5
Note OFF: Time 48720, Note Name: A#4
Note ON: Time 48960, Note Name: A#4, Velocity: 65
Note ON: Time 49200, Note Name: G5, Velocity: 50
Note ON: Time 49440, Note Name: G#5, Velocity: 44
Note OFF: Time 49460, Note Name: G5
Note ON: Time 49680, Note Name: G5, Velocity: 62
Note OFF: Time 49700, Note Name: G#5
Note OFF: Time 49920, Note Name: A#4
Note ON: Time 49920, Note Name: G#4, Velocity: 57
Note ON: Time 49920, Note Name: F5, Velocity: 57
Note OFF: Time 49940, Note Name: G5
Note OFF: Time 50400, Note Name: F5
Note OFF: Time 50400, Note Name: G#4
Note ON: Time 50400, Note Name: G4, Velocity: 48
Note ON: Time 50400, Note Name: D#5, Velocity: 48
Note OFF: Time 50640, Note Name: D#5
Note OFF: Time 50640, Note Name: G4
Note ON: Time 50880, Note Name: D#5, Velocity: 53
Note OFF: Time 51000, Note Name: D#5
Note ON: Time 51120, Note Name: D#5, Velocity: 64
Note OFF: Time 51240, Note Name: D#5
Note ON: Time 51360, Note Name: D#5, Velocity: 67
Note OFF: Time 51480, Note Name: D#5
Note ON: Time 51600, Note Name: D#5, Velocity: 69
Note OFF: Time 51720, Note Name: D#5
Note ON: Time 51840, Note Name: D#5, Velocity: 75
Note OFF: Time 51960, Note Name: D#5
Note ON: Time 52080, Note Name: D#5, Velocity: 64
Note OFF: Time 52200, Note Name: D#5
Note ON: Time 52320, Note Name: D#5, Velocity: 75
Note OFF: Time 52440, Note Name: D#5
Note ON: Time 52560, Note Name: D#5, Velocity: 74
Note OFF: Time 52680, Note Name: D#5
Note ON: Time 52800, Note Name: D#5, Velocity: 69
Note OFF: Time 52920, Note Name: D#5
Note ON: Time 53040, Note Name: D#5, Velocity: 69
Note OFF: Time 53160, Note Name: D#5
Note ON: Time 53280, Note Name: F5, Velocity: 65
Note ON: Time 53520, Note Name: D#5, Velocity: 58
Note OFF: Time 53540, Note Name: F5
Note ON: Time 53760, Note Name: C5, Velocity: 56
Note OFF: Time 53780, Note Name: D#5
Note ON: Time 54000, Note Name: G#4, Velocity: 49
Note OFF: Time 54020, Note Name: C5
Note ON: Time 54240, Note Name: D#4, Velocity: 49
Note OFF: Time 54260, Note Name: G#4
Note OFF: Time 54480, Note Name: D#4
Note ON: Time 54480, Note Name: E4, Velocity: 51
Note OFF: Time 54720, Note Name: E4
Note ON: Time 54720, Note Name: F4, Velocity: 58
Note OFF: Time 54840, Note Name: F4
Note ON: Time 54960, Note Name: F4, Velocity: 51
Note OFF: Time 55080, Note Name: F4
Note ON: Time 55200, Note Name: F4, Velocity: 55
Note OFF: Time 55320, Note Name: F4
Note ON: Time 55440, Note Name: F4, Velocity: 51
Note OFF: Time 55560, Note Name: F4
Note ON: Time 55680, Note Name: F4, Velocity: 54
Note OFF: Time 55800, Note Name: F4
Note ON: Time 55920, Note Name: F4, Velocity: 58
Note OFF: Time 56040, Note Name: F4
Note ON: Time 56160, Note Name: D#4, Velocity: 61
Note ON: Time 56400, Note Name: G#4, Velocity: 53
Note OFF: Time 56420, Note Name: D#4
Note ON: Time 56640, Note Name: C5, Velocity: 48
Note OFF: Time 56660, Note Name: G#4
Note ON: Time 56880, Note Name: D#5, Velocity: 64
Note OFF: Time 56900, Note Name: C5
Note ON: Time 57120, Note Name: G#5, Velocity: 61
Note OFF: Time 57140, Note Name: D#5
Note ON: Time 57360, Note Name: E5, Velocity: 52
Note OFF: Time 57380, Note Name: G#5
Note OFF: Time 57600, Note Name: E5
Note ON: Time 57600, Note Name: F5, Velocity: 52
Note OFF: Time 57720, Note Name: F5
Note ON: Time 57840, Note Name: F5, Velocity: 44
Note OFF: Time 57960, Note Name: F5
Note ON: Time 58080, Note Name: F5, Velocity: 68
Note OFF: Time 58200, Note Name: F5
Note ON: Time 58320, Note Name: F5, Velocity: 60
Note OFF: Time 58440, Note Name: F5
Note ON: Time 58560, Note Name: F5, Velocity: 53
Note OFF: Time 58680, Note Name: F5
Note ON: Time 58800, Note Name: F5, Velocity: 73
Note OFF: Time 58920, Note Name: F5
Note ON: Time 59040, Note Name: F5, Velocity: 77
Note ON: Time 59200, Note Name: G5, Velocity: 55
Note OFF: Time 59220, Note Name: F5
Note ON: Time 59360, Note Name: F5, Velocity: 55
Note OFF: Time 59380, Note Name: G5
Note ON: Time 59520, Note Name: D#5, Velocity: 65
Note OFF: Time 59540, Note Name: F5
Note ON: Time 59760, Note Name: G#5, Velocity: 57
Note OFF: Time 59780, Note Name: D#5
Note ON: Time 60000, Note Name: C6, Velocity: 51
Note OFF: Time 60020, Note Name: G#5
Note OFF: Time 60240, Note Name: C6
Note ON: Time 60480, Note Name: F6, Velocity: 66
Note ON: Time 60960, Note Name: D#6, Velocity: 51
Note OFF: Time 60980, Note Name: F6
Note ON: Time 61200, Note Name: C#6, Velocity: 45
Note OFF: Time 61220, Note Name: D#6
Note ON: Time 61440, Note Name: G5, Velocity: 50
Note OFF: Time 61460, Note Name: C#6
Note OFF: Time 61680, Note Name: G5
Note ON: Time 61920, Note Name: A#5, Velocity: 58
Note ON: Time 62400, Note Name: G#5, Velocity: 43
Note OFF: Time 62420, Note Name: A#5
Note ON: Time 62640, Note Name: D#5, Velocity: 44
Note OFF: Time 62660, Note Name: G#5
Note ON: Time 62880, Note Name: C5, Velocity: 38
Note OFF: Time 62900, Note Name: D#5
Note OFF: Time 63120, Note Name: C5
Note ON: Time 63360, Note Name: D#5, Velocity: 48
Note OFF: Time 63480, Note Name: D#5
Note ON: Time 63600, Note Name: D#5, Velocity: 44
Note OFF: Time 63720, Note Name: D#5
Note ON: Time 63840, Note Name: D#5, Velocity: 65
Note OFF: Time 63960, Note Name: D#5
Note ON: Time 64080, Note Name: D#5, Velocity: 69
Note OFF: Time 64200, Note Name: D#5
Note ON: Time 64320, Note Name: D#5, Velocity: 63
Note OFF: Time 64440, Note Name: D#5
Note ON: Time 64560, Note Name: D#5, Velocity: 71
Note OFF: Time 64680, Note Name: D#5
Note ON: Time 64800, Note Name: F5, Velocity: 61
Note ON: Time 65040, Note Name: D#5, Velocity: 59
Note OFF: Time 65060, Note Name: F5
Note ON: Time 65280, Note Name: C5, Velocity: 52
Note OFF: Time 65300, Note Name: D#5
Note ON: Time 65520, Note Name: G#4, Velocity: 52
Note OFF: Time 65540, Note Name: C5
Note ON: Time 65760, Note Name: D#4, Velocity: 47
Note OFF: Time 65780, Note Name: G#4
Note OFF: Time 66000, Note Name: D#4
Note ON: Time 66000, Note Name: E4, Velocity: 55
Note OFF: Time 66240, Note Name: E4
Note ON: Time 66240, Note Name: F4, Velocity: 57
Note OFF: Time 66360, Note Name: F4
Note ON: Time 66480, Note Name: F4, Velocity: 47
Note OFF: Time 66600, Note Name: F4
Note ON: Time 66720, Note Name: F4, Velocity: 59
Note OFF: Time 66840, Note Name: F4
Note ON: Time 66960, Note Name: F4, Velocity: 55
Note OFF: Time 67080, Note Name: F4
Note ON: Time 67200, Note Name: F4, Velocity: 61
Note OFF: Time 67320, Note Name: F4
Note ON: Time 67440, Note Name: F4, Velocity: 63
Note OFF: Time 67560, Note Name: F4
Note ON: Time 67680, Note Name: D#4, Velocity: 58
Note ON: Time 67920, Note Name: G#4, Velocity: 54
Note OFF: Time 67940, Note Name: D#4
Note ON: Time 68160, Note Name: C5, Velocity: 50
Note OFF: Time 68180, Note Name: G#4
Note ON: Time 68400, Note Name: D#5, Velocity: 43
Note OFF: Time 68420, Note Name: C5
Note ON: Time 68640, Note Name: G#5, Velocity: 52
Note OFF: Time 68660, Note Name: D#5
Note ON: Time 68880, Note Name: E5, Velocity: 47
Note OFF: Time 68900, Note Name: G#5
Note OFF: Time 69120, Note Name: E5
Note ON: Time 69120, Note Name: F5, Velocity: 58
Note OFF: Time 69240, Note Name: F5
Note ON: Time 69360, Note Name: F5, Velocity: 50
Note OFF: Time 69480, Note Name: F5
Note ON: Time 69600, Note Name: F5, Velocity: 61
Note OFF: Time 69720, Note Name: F5
Note ON: Time 69840, Note Name: F5, Velocity: 57
Note OFF: Time 69960, Note Name: F5
Note ON: Time 70080, Note Name: F5, Velocity: 65
Note OFF: Time 70200, Note Name: F5
Note ON: Time 70320, Note Name: F5, Velocity: 65
Note OFF: Time 70440, Note Name: F5
Note ON: Time 70560, Note Name: F5, Velocity: 75
Note ON: Time 70720, Note Name: G5, Velocity: 55
Note OFF: Time 70740, Note Name: F5
Note ON: Time 70880, Note Name: F5, Velocity: 55
Note OFF: Time 70900, Note Name: G5
Note ON: Time 71040, Note Name: D#5, Velocity: 66
Note OFF: Time 71060, Note Name: F5
Note ON: Time 71280, Note Name: G#5, Velocity: 64
Note OFF: Time 71300, Note Name: D#5
Note ON: Time 71520, Note Name: C6, Velocity: 60
Note OFF: Time 71540, Note Name: G#5
Note OFF: Time 71760, Note Name: C6
Note ON: Time 72000, Note Name: F6, Velocity: 67
Note ON: Time 72480, Note Name: D#6, Velocity: 52
Note OFF: Time 72500, Note Name: F6
Note ON: Time 72720, Note Name: C#6, Velocity: 48
Note OFF: Time 72740, Note Name: D#6
Note ON: Time 72960, Note Name: G5, Velocity: 52
Note OFF: Time 72980, Note Name: C#6
Note OFF: Time 73200, Note Name: G5
Note ON: Time 73440, Note Name: G#5, Velocity: 65
Note OFF: Time 74400, Note Name: G#5
Note ON: Time 74400, Note Name: C5, Velocity: 55
Note OFF: Time 74480, Note Name: C5
Note ON: Time 74480, Note Name: D5, Velocity: 49
Note OFF: Time 74560, Note Name: D5
Note ON: Time 74560, Note Name: C5, Velocity: 65
Note OFF: Time 74640, Note Name: C5
Note ON: Time 74640, Note Name: D5, Velocity: 53
Note OFF: Time 74720, Note Name: D5
Note ON: Time 74720, Note Name: C5, Velocity: 67
Note OFF: Time 74800, Note Name: C5
Note ON: Time 74800, Note Name: B4, Velocity: 56
Note OFF: Time 74880, Note Name: B4
Note ON: Time 74880, Note Name: A#4, Velocity: 87
Note ON: Time 75360, Note Name: D5, Velocity: 62
Note OFF: Time 75380, Note Name: A#4
Note ON: Time 75600, Note Name: D#5, Velocity: 62
Note OFF: Time 75620, Note Name: D5
Note ON: Time 75840, Note Name: D5, Velocity: 67
Note ON: Time 75840, Note Name: F5, Velocity: 67
Note OFF: Time 75860, Note Name: D#5
Note OFF: Time 76200, Note Name: F5
Note OFF: Time 76200, Note Name: D5
Note ON: Time 76320, Note Name: A#4, Velocity: 85
Note OFF: Time 76560, Note Name: A#4
Note ON: Time 76800, Note Name: D#5, Velocity: 73
Note ON: Time 77040, Note Name: F5, Velocity: 69
Note OFF: Time 77060, Note Name: D#5
Note ON: Time 77280, Note Name: D#5, Velocity: 76
Note ON: Time 77280, Note Name: G5, Velocity: 76
Note OFF: Time 77300, Note Name: F5
Note OFF: Time 77640, Note Name: G5
Note OFF: Time 77640, Note Name: D#5
Note ON: Time 77760, Note Name: A#4, Velocity: 87
Note OFF: Time 78000, Note Name: A#4
Note ON: Time 78240, Note Name: F5, Velocity: 73
Note ON: Time 78480, Note Name: G5, Velocity: 68
Note OFF: Time 78500, Note Name: F5
Note ON: Time 78720, Note Name: F5, Velocity: 83
Note ON: Time 78720, Note Name: G#5, Velocity: 83
Note OFF: Time 78740, Note Name: G5
Note OFF: Time 79080, Note Name: G#5
Note OFF: Time 79080, Note Name: F5
Note ON: Time 79200, Note Name: A#5, Velocity: 77
Note ON: Time 79200, Note Name: G5, Velocity: 77
Note ON: Time 79200, Note Name: C#5, Velocity: 65
Note OFF: Time 80160, Note Name: C#5
Note OFF: Time 80160, Note Name: G5
Note OFF: Time 80160, Note Name: A#5
Note ON: Time 80160, Note Name: A#5, Velocity: 75
Note ON: Time 80160, Note Name: G5, Velocity: 75
Note ON: Time 80160, Note Name: C#5, Velocity: 63
Note OFF: Time 80400, Note Name: C#5
Note OFF: Time 80400, Note Name: G5
Note OFF: Time 80400, Note Name: A#5
Note ON: Time 80400, Note Name: A#5, Velocity: 69
Note ON: Time 80400, Note Name: G5, Velocity: 69
Note ON: Time 80400, Note Name: C#5, Velocity: 58
Note OFF: Time 80640, Note Name: C#5
Note OFF: Time 80640, Note Name: G5
Note OFF: Time 80640, Note Name: A#5
Note ON: Time 80640, Note Name: A#5, Velocity: 70
Note ON: Time 80640, Note Name: C#5, Velocity: 59
Note ON: Time 80640, Note Name: G5, Velocity: 70
Note ON: Time 81120, Note Name: C6, Velocity: 59
Note OFF: Time 81140, Note Name: A#5
Note ON: Time 81360, Note Name: A#5, Velocity: 50
Note OFF: Time 81380, Note Name: C6
Note OFF: Time 81600, Note Name: C#5
Note OFF: Time 81600, Note Name: G5
Note ON: Time 81600, Note Name: C5, Velocity: 53
Note ON: Time 81600, Note Name: G#5, Velocity: 53
Note OFF: Time 81620, Note Name: A#5
Note OFF: Time 81840, Note Name: G#5
Note OFF: Time 81840, Note Name: C5
Note ON: Time 82080, Note Name: G#5, Velocity: 69
Note ON: Time 82080, Note Name: B4, Velocity: 69
Note ON: Time 82560, Note Name: A#5, Velocity: 47
Note OFF: Time 82580, Note Name: G#5
Note ON: Time 82800, Note Name: G#5, Velocity: 46
Note OFF: Time 82820, Note Name: A#5
Note OFF: Time 83040, Note Name: B4
Note ON: Time 83040, Note Name: A#4, Velocity: 52
Note ON: Time 83040, Note Name: G5, Velocity: 52
Note OFF: Time 83060, Note Name: G#5
Note OFF: Time 83280, Note Name: G5
Note OFF: Time 83280, Note Name: A#4
Note ON: Time 83520, Note Name: G5, Velocity: 66
Note ON: Time 83520, Note Name: A#4, Velocity: 66
Note ON: Time 84000, Note Name: G#5, Velocity: 53
Note OFF: Time 84020, Note Name: G5
Note ON: Time 84240, Note Name: G5, Velocity: 47
Note OFF: Time 84260, Note Name: G#5
Note OFF: Time 84480, Note Name: A#4
Note ON: Time 84480, Note Name: G#4, Velocity: 56
Note ON: Time 84480, Note Name: F5, Velocity: 56
Note OFF: Time 84500, Note Name: G5
Note OFF: Time 84720, Note Name: F5
Note OFF: Time 84720, Note Name: G#4
Note ON: Time 84960, Note Name: F5, Velocity: 64
Note ON: Time 84960, Note Name: G#4, Velocity: 64
Note ON: Time 85440, Note Name: G5, Velocity: 52
Note OFF: Time 85460, Note Name: F5
Note ON: Time 85680, Note Name: F5, Velocity: 48
Note OFF: Time 85700, Note Name: G5
Note OFF: Time 85920, Note Name: G#4
Note ON: Time 85920, Note Name: D#5, Velocity: 53
Note ON: Time 85920, Note Name: G4, Velocity: 53
Note OFF: Time 85940, Note Name: F5
Note OFF: Time 86160, Note Name: G4
Note OFF: Time 86160, Note Name: D#5
Note ON: Time 86400, Note Name: A#4, Velocity: 44
Note OFF: Time 86640, Note Name: A#4
Note ON: Time 86640, Note Name: D5, Velocity: 46
Note OFF: Time 86880, Note Name: D5
Note ON: Time 86880, Note Name: D#5, Velocity: 57
Note OFF: Time 87120, Note Name: D#5
Note ON: Time 87120, Note Name: E5, Velocity: 44
Note OFF: Time 87360, Note Name: E5
Note ON: Time 87360, Note Name: D5, Velocity: 56
Note ON: Time 87360, Note Name: F5, Velocity: 56
Note OFF: Time 87720, Note Name: F5
Note OFF: Time 87720, Note Name: D5
Note ON: Time 87840, Note Name: A#4, Velocity: 65
Note OFF: Time 88080, Note Name: A#4
Note ON: Time 88080, Note Name: D5, Velocity: 63
Note OFF: Time 88320, Note Name: D5
Note ON: Time 88320, Note Name: D#5, Velocity: 57
Note OFF: Time 88560, Note Name: D#5
Note ON: Time 88560, Note Name: F5, Velocity: 51
Note OFF: Time 88800, Note Name: F5
Note ON: Time 88800, Note Name: D#5, Velocity: 64
Note ON: Time 88800, Note Name: G5, Velocity: 64
Note OFF: Time 89160, Note Name: G5
Note OFF: Time 89160, Note Name: D#5
Note ON: Time 89280, Note Name: A#4, Velocity: 68
Note OFF: Time 89520, Note Name: A#4
Note ON: Time 89520, Note Name: E5, Velocity: 73
Note OFF: Time 89760, Note Name: E5
Note ON: Time 89760, Note Name: F5, Velocity: 70
Note OFF: Time 90000, Note Name: F5
Note ON: Time 90000, Note Name: G5, Velocity: 64
Note OFF: Time 90240, Note Name: G5
Note ON: Time 90240, Note Name: F5, Velocity: 80
Note ON: Time 90240, Note Name: G#5, Velocity: 80
Note OFF: Time 90600, Note Name: G#5
Note OFF: Time 90600, Note Name: F5
Note ON: Time 90720, Note Name: A#5, Velocity: 74
Note ON: Time 90720, Note Name: G5, Velocity: 74
Note ON: Time 90720, Note Name: C#5, Velocity: 62
Note OFF: Time 91440, Note Name: C#5
Note OFF: Time 91440, Note Name: G5
Note OFF: Time 91440, Note Name: A#5
Note ON: Time 91440, Note Name: G5, Velocity: 44
Note ON: Time 91440, Note Name: A#5, Velocity: 44
Note OFF: Time 91680, Note Name: A#5
Note OFF: Time 91680, Note Name: G5
Note ON: Time 91680, Note Name: C#5, Velocity: 62
Note ON: Time 91920, Note Name: A#5, Velocity: 52
Note ON: Time 91920, Note Name: G5, Velocity: 52
Note OFF: Time 92160, Note Name: G5
Note OFF: Time 92160, Note Name: A#5
Note OFF: Time 92160, Note Name: C#5
Note ON: Time 92160, Note Name: C#5, Velocity: 48
Note ON: Time 92400, Note Name: A#5, Velocity: 56
Note ON: Time 92640, Note Name: C6, Velocity: 54
Note OFF: Time 92660, Note Name: A#5
Note ON: Time 92880, Note Name: A#5, Velocity: 51
Note OFF: Time 92900, Note Name: C6
Note OFF: Time 93120, Note Name: C#5
Note ON: Time 93120, Note Name: C5, Velocity: 56
Note ON: Time 93120, Note Name: G#5, Velocity: 56
Note OFF: Time 93140, Note Name: A#5
Note OFF: Time 93360, Note Name: G#5
Note OFF: Time 93360, Note Name: C5
Note ON: Time 93600, Note Name: B4, Velocity: 47
Note ON: Time 93840, Note Name: G#5, Velocity: 51
Note ON: Time 94080, Note Name: A#5, Velocity: 54
Note OFF: Time 94100, Note Name: G#5
Note ON: Time 94320, Note Name: G#5, Velocity: 50
Note OFF: Time 94340, Note Name: A#5
Note OFF: Time 94560, Note Name: B4
Note ON: Time 94560, Note Name: A#4, Velocity: 50
Note ON: Time 94560, Note Name: G5, Velocity: 50
Note OFF: Time 94580, Note Name: G#5
Note OFF: Time 94800, Note Name: G5
Note OFF: Time 94800, Note Name: A#4
Note ON: Time 95040, Note Name: A#4, Velocity: 63
Note ON: Time 95280, Note Name: G5, Velocity: 46
Note ON: Time 95520, Note Name: G#5, Velocity: 59
Note OFF: Time 95540, Note Name: G5
Note ON: Time 95760, Note Name: G5, Velocity: 54
Note OFF: Time 95780, Note Name: G#5
Note OFF: Time 96000, Note Name: A#4
Note ON: Time 96000, Note Name: G#4, Velocity: 50
Note ON: Time 96000, Note Name: F5, Velocity: 50
Note OFF: Time 96020, Note Name: G5
Note OFF: Time 96480, Note Name: F5
Note OFF: Time 96480, Note Name: G#4
Note ON: Time 96480, Note Name: G4, Velocity: 45
Note ON: Time 96480, Note Name: D#5, Velocity: 45
Note OFF: Time 96720, Note Name: D#5
Note OFF: Time 96720, Note Name: G4
Note ON: Time 96960, Note Name: D#5, Velocity: 59
Note OFF: Time 97080, Note Name: D#5
Note ON: Time 97200, Note Name: D#5, Velocity: 52
Note OFF: Time 97320, Note Name: D#5
Note ON: Time 97440, Note Name: D#5, Velocity: 61
Note OFF: Time 97560, Note Name: D#5
Note ON: Time 97680, Note Name: D#5, Velocity: 57
Note OFF: Time 97800, Note Name: D#5
Note ON: Time 97920, Note Name: D#5, Velocity: 64
Note OFF: Time 98040, Note Name: D#5
Note ON: Time 98160, Note Name: D#5, Velocity: 67
Note OFF: Time 98280, Note Name: D#5
Note ON: Time 98400, Note Name: D#5, Velocity: 70
Note OFF: Time 98520, Note Name: D#5
Note ON: Time 98640, Note Name: D#5, Velocity: 64
Note OFF: Time 98760, Note Name: D#5
Note ON: Time 98880, Note Name: D#5, Velocity: 71
Note OFF: Time 99000, Note Name: D#5
Note ON: Time 99120, Note Name: D#5, Velocity: 67
Note OFF: Time 99240, Note Name: D#5
Note ON: Time 99360, Note Name: F5, Velocity: 61
Note OFF: Time 99600, Note Name: F5
Note ON: Time 99600, Note Name: D#5, Velocity: 57
Note OFF: Time 99840, Note Name: D#5
Note ON: Time 99840, Note Name: C5, Velocity: 50
Note OFF: Time 100080, Note Name: C5
Note ON: Time 100080, Note Name: G#4, Velocity: 56
Note OFF: Time 100320, Note Name: G#4
Note ON: Time 100320, Note Name: D#4, Velocity: 51
Note OFF: Time 100560, Note Name: D#4
Note ON: Time 100560, Note Name: E4, Velocity: 55
Note OFF: Time 100800, Note Name: E4
Note ON: Time 100800, Note Name: F4, Velocity: 68
Note OFF: Time 100920, Note Name: F4
Note ON: Time 101040, Note Name: F4, Velocity: 62
Note OFF: Time 101160, Note Name: F4
Note ON: Time 101280, Note Name: F4, Velocity: 62
Note OFF: Time 101400, Note Name: F4
Note ON: Time 101520, Note Name: F4, Velocity: 53
Note OFF: Time 101640, Note Name: F4
Note ON: Time 101760, Note Name: F4, Velocity: 55
Note OFF: Time 101880, Note Name: F4
Note ON: Time 102000, Note Name: F4, Velocity: 62
Note OFF: Time 102120, Note Name: F4
Note ON: Time 102240, Note Name: D#4, Velocity: 68
Note OFF: Time 102480, Note Name: D#4
Note ON: Time 102480, Note Name: G#4, Velocity: 55
Note OFF: Time 102720, Note Name: G#4
Note ON: Time 102720, Note Name: C5, Velocity: 50
Note OFF: Time 102960, Note Name: C5
Note ON: Time 102960, Note Name: D#5, Velocity: 58
Note OFF: Time 103200, Note Name: D#5
Note ON: Time 103200, Note Name: G#5, Velocity: 59
Note OFF: Time 103440, Note Name: G#5
Note ON: Time 103440, Note Name: E5, Velocity: 56
Note OFF: Time 103680, Note Name: E5
Note ON: Time 103680, Note Name: F5, Velocity: 41
Note OFF: Time 103800, Note Name: F5
Note ON: Time 103920, Note Name: F5, Velocity: 63
Note OFF: Time 104040, Note Name: F5
Note ON: Time 104160, Note Name: F5, Velocity: 61
Note OFF: Time 104280, Note Name: F5
Note ON: Time 104400, Note Name: F5, Velocity: 63
Note OFF: Time 104520, Note Name: F5
Note ON: Time 104640, Note Name: F5, Velocity: 58
Note OFF: Time 104760, Note Name: F5
Note ON: Time 104880, Note Name: F5, Velocity: 54
Note OFF: Time 105000, Note Name: F5
Note ON: Time 105120, Note Name: F5, Velocity: 58
Note OFF: Time 105280, Note Name: F5
Note ON: Time 105280, Note Name: G5, Velocity: 52
Note OFF: Time 105440, Note Name: G5
Note ON: Time 105440, Note Name: F5, Velocity: 52
Note OFF: Time 105600, Note Name: F5
Note ON: Time 105600, Note Name: D#5, Velocity: 55
Note OFF: Time 105840, Note Name: D#5
Note ON: Time 105840, Note Name: G#5, Velocity: 68
Note OFF: Time 106080, Note Name: G#5
Note ON: Time 106080, Note Name: C6, Velocity: 49
Note OFF: Time 106320, Note Name: C6
Note ON: Time 106560, Note Name: F6, Velocity: 55
Note OFF: Time 107040, Note Name: F6
Note ON: Time 107040, Note Name: D#6, Velocity: 55
Note OFF: Time 107280, Note Name: D#6
Note ON: Time 107280, Note Name: C#6, Velocity: 51
Note OFF: Time 107520, Note Name: C#6
Note ON: Time 107520, Note Name: G5, Velocity: 55
Note OFF: Time 107760, Note Name: G5
Note ON: Time 108000, Note Name: A#5, Velocity: 60
Note OFF: Time 108480, Note Name: A#5
Note ON: Time 108480, Note Name: G#5, Velocity: 58
Note OFF: Time 108720, Note Name: G#5
Note ON: Time 108720, Note Name: D#5, Velocity: 50
Note OFF: Time 108960, Note Name: D#5
Note ON: Time 108960, Note Name: C5, Velocity: 38
Note OFF: Time 109200, Note Name: C5
Note ON: Time 109440, Note Name: D#5, Velocity: 48
Note OFF: Time 109560, Note Name: D#5
Note ON: Time 109680, Note Name: D#5, Velocity: 55
Note OFF: Time 109800, Note Name: D#5
Note ON: Time 109920, Note Name: D#5, Velocity: 66
Note OFF: Time 110040, Note Name: D#5
Note ON: Time 110160, Note Name: D#5, Velocity: 73
Note OFF: Time 110280, Note Name: D#5
Note ON: Time 110400, Note Name: D#5, Velocity: 69
Note OFF: Time 110520, Note Name: D#5
Note ON: Time 110640, Note Name: D#5, Velocity: 64
Note OFF: Time 110760, Note Name: D#5
Note ON: Time 110880, Note Name: F5, Velocity: 53
Note OFF: Time 111120, Note Name: F5
Note ON: Time 111120, Note Name: D#5, Velocity: 61
Note OFF: Time 111360, Note Name: D#5
Note ON: Time 111360, Note Name: C5, Velocity: 50
Note OFF: Time 111600, Note Name: C5
Note ON: Time 111600, Note Name: G#4, Velocity: 40
Note OFF: Time 111840, Note Name: G#4
Note ON: Time 111840, Note Name: D#4, Velocity: 48
Note OFF: Time 112080, Note Name: D#4
Note ON: Time 112080, Note Name: E4, Velocity: 43
Note OFF: Time 112320, Note Name: E4
Note ON: Time 112320, Note Name: F4, Velocity: 43
Note OFF: Time 112440, Note Name: F4
Note ON: Time 112560, Note Name: F4, Velocity: 50
Note OFF: Time 112680, Note Name: F4
Note ON: Time 112800, Note Name: F4, Velocity: 53
Note OFF: Time 112920, Note Name: F4
Note ON: Time 113040, Note Name: F4, Velocity: 56
Note OFF: Time 113160, Note Name: F4
Note ON: Time 113280, Note Name: F4, Velocity: 46
Note OFF: Time 113400, Note Name: F4
Note ON: Time 113520, Note Name: F4, Velocity: 43
Note OFF: Time 113640, Note Name: F4
Note ON: Time 113760, Note Name: D#4, Velocity: 48
Note OFF: Time 114000, Note Name: D#4
Note ON: Time 114000, Note Name: G#4, Velocity: 48
Note OFF: Time 114240, Note Name: G#4
Note ON: Time 114240, Note Name: C5, Velocity: 45
Note OFF: Time 114480, Note Name: C5
Note ON: Time 114480, Note Name: D#5, Velocity: 61
Note OFF: Time 114720, Note Name: D#5
Note ON: Time 114720, Note Name: G#5, Velocity: 52
Note OFF: Time 114960, Note Name: G#5
Note ON: Time 114960, Note Name: E5, Velocity: 45
Note OFF: Time 115200, Note Name: E5
Note ON: Time 115200, Note Name: F5, Velocity: 50
Note OFF: Time 115320, Note Name: F5
Note ON: Time 115440, Note Name: F5, Velocity: 45
Note OFF: Time 115560, Note Name: F5
Note ON: Time 115680, Note Name: F5, Velocity: 60
Note OFF: Time 115800, Note Name: F5
Note ON: Time 115920, Note Name: F5, Velocity: 65
Note OFF: Time 116040, Note Name: F5
Note ON: Time 116160, Note Name: F5, Velocity: 66
Note OFF: Time 116280, Note Name: F5
Note ON: Time 116400, Note Name: F5, Velocity: 51
Note OFF: Time 116520, Note Name: F5
Note ON: Time 116640, Note Name: F5, Velocity: 70
Note OFF: Time 116800, Note Name: F5
Note ON: Time 116800, Note Name: G5, Velocity: 55
Note OFF: Time 116960, Note Name: G5
Note ON: Time 116960, Note Name: F5, Velocity: 48
Note OFF: Time 117120, Note Name: F5
Note ON: Time 117120, Note Name: D#5, Velocity: 55
Note OFF: Time 117360, Note Name: D#5
Note ON: Time 117360, Note Name: G#5, Velocity: 51
Note OFF: Time 117600, Note Name: G#5
Note ON: Time 117600, Note Name: C6, Velocity: 46
Note OFF: Time 117840, Note Name: C6
Note ON: Time 118080, Note Name: F6, Velocity: 55
Note OFF: Time 118560, Note Name: F6
Note ON: Time 118560, Note Name: D#6, Velocity: 42
Note OFF: Time 118800, Note Name: D#6
Note ON: Time 118800, Note Name: C#6, Velocity: 39
Note OFF: Time 119040, Note Name: C#6
Note ON: Time 119040, Note Name: G5, Velocity: 47
Note OFF: Time 119280, Note Name: G5
Note ON: Time 119520, Note Name: G#5, Velocity: 57
Note OFF: Time 120480, Note Name: G#5
Note ON: Time 120480, Note Name: G#4, Velocity: 55
Note OFF: Time 120960, Note Name: G#4
Note ON: Time 120960, Note Name: D#5, Velocity: 62
Note ON: Time 120960, Note Name: F#5, Velocity: 62
Note ON: Time 121920, Note Name: B4, Velocity: 48
Note ON: Time 121920, Note Name: D5, Velocity: 48
Note OFF: Time 121940, Note Name: F#5
Note OFF: Time 121940, Note Name: D#5
Note ON: Time 122400, Note Name: C5, Velocity: 48
Note ON: Time 122400, Note Name: D#5, Velocity: 48
Note OFF: Time 122420, Note Name: B4
Note OFF: Time 122420, Note Name: D5
Note OFF: Time 122640, Note Name: C5
Note OFF: Time 122640, Note Name: D#5
Note ON: Time 122880, Note Name: G#4, Velocity: 50
Note OFF: Time 123000, Note Name: G#4
Note ON: Time 123120, Note Name: G#4, Velocity: 42
Note OFF: Time 123240, Note Name: G#4
Note ON: Time 123360, Note Name: G#4, Velocity: 56
Note OFF: Time 123840, Note Name: G#4
Note ON: Time 123840, Note Name: F#5, Velocity: 60
Note ON: Time 123840, Note Name: A#5, Velocity: 60
Note ON: Time 124800, Note Name: E5, Velocity: 48
Note ON: Time 124800, Note Name: G5, Velocity: 48
Note OFF: Time 124820, Note Name: A#5
Note OFF: Time 124820, Note Name: F#5
Note ON: Time 125280, Note Name: F5, Velocity: 49
Note ON: Time 125280, Note Name: G#5, Velocity: 49
Note OFF: Time 125300, Note Name: E5
Note OFF: Time 125300, Note Name: G5
Note OFF: Time 125520, Note Name: F5
Note OFF: Time 125520, Note Name: G#5
Note ON: Time 125760, Note Name: G#4, Velocity: 49
Note OFF: Time 125880, Note Name: G#4
Note ON: Time 126000, Note Name: G#4, Velocity: 42
Note OFF: Time 126120, Note Name: G#4
Note ON: Time 126240, Note Name: G#4, Velocity: 55
Note OFF: Time 126720, Note Name: G#4
Note ON: Time 126720, Note Name: D#5, Velocity: 58
Note ON: Time 126720, Note Name: F#5, Velocity: 58
Note ON: Time 127680, Note Name: B4, Velocity: 44
Note ON: Time 127680, Note Name: D5, Velocity: 44
Note OFF: Time 127700, Note Name: F#5
Note OFF: Time 127700, Note Name: D#5
Note ON: Time 128160, Note Name: C5, Velocity: 48
Note ON: Time 128160, Note Name: D#5, Velocity: 48
Note OFF: Time 128180, Note Name: B4
Note OFF: Time 128180, Note Name: D5
Note OFF: Time 128400, Note Name: C5
Note OFF: Time 128400, Note Name: D#5
Note ON: Time 128640, Note Name: G#4, Velocity: 51
Note OFF: Time 128760, Note Name: G#4
Note ON: Time 128880, Note Name: G#4, Velocity: 43
Note OFF: Time 129000, Note Name: G#4
Note ON: Time 129120, Note Name: G#4, Velocity: 52
Note OFF: Time 129600, Note Name: G#4
Note ON: Time 129600, Note Name: A#4, Velocity: 53
Note ON: Time 129600, Note Name: F#5, Velocity: 53
Note OFF: Time 130080, Note Name: F#5
Note OFF: Time 130080, Note Name: A#4
Note ON: Time 130080, Note Name: G#4, Velocity: 45
Note ON: Time 130080, Note Name: F5, Velocity: 45
Note OFF: Time 130560, Note Name: F5
Note OFF: Time 130560, Note Name: G#4
Note ON: Time 130560, Note Name: F#4, Velocity: 49
Note ON: Time 130560, Note Name: D#5, Velocity: 49
Note OFF: Time 131040, Note Name: D#5
Note OFF: Time 131040, Note Name: F#4
Note ON: Time 131040, Note Name: F4, Velocity: 47
Note ON: Time 131040, Note Name: C#5, Velocity: 47
Note OFF: Time 131280, Note Name: C#5
Note OFF: Time 131280, Note Name: F4
Note ON: Time 131520, Note Name: G#4, Velocity: 40
Note OFF: Time 131640, Note Name: G#4
Note ON: Time 131760, Note Name: G#4, Velocity: 36
Note OFF: Time 131880, Note Name: G#4
Note ON: Time 132000, Note Name: G#4, Velocity: 40
Note OFF: Time 132480, Note Name: G#4
Note ON: Time 132480, Note Name: D#5, Velocity: 47
Note ON: Time 132480, Note Name: F#5, Velocity: 47
Note ON: Time 133440, Note Name: B4, Velocity: 42
Note ON: Time 133440, Note Name: D5, Velocity: 42
Note OFF: Time 133460, Note Name: F#5
Note OFF: Time 133460, Note Name: D#5
Note ON: Time 133920, Note Name: C5, Velocity: 42
Note ON: Time 133920, Note Name: D#5, Velocity: 42
Note OFF: Time 133940, Note Name: B4
Note OFF: Time 133940, Note Name: D5
Note OFF: Time 134160, Note Name: C5
Note OFF: Time 134160, Note Name: D#5
Note ON: Time 134400, Note Name: G#4, Velocity: 44
Note OFF: Time 134520, Note Name: G#4
Note ON: Time 134640, Note Name: G#4, Velocity: 39
Note OFF: Time 134760, Note Name: G#4
Note ON: Time 134880, Note Name: G#4, Velocity: 53
Note OFF: Time 135360, Note Name: G#4
Note ON: Time 135360, Note Name: F#5, Velocity: 64
Note ON: Time 135360, Note Name: A#5, Velocity: 64
Note ON: Time 136320, Note Name: E5, Velocity: 52
Note ON: Time 136320, Note Name: G5, Velocity: 52
Note OFF: Time 136340, Note Name: A#5
Note OFF: Time 136340, Note Name: F#5
Note ON: Time 136800, Note Name: F5, Velocity: 52
Note ON: Time 136800, Note Name: G#5, Velocity: 52
Note OFF: Time 136820, Note Name: E5
Note OFF: Time 136820, Note Name: G5
Note OFF: Time 137040, Note Name: F5
Note OFF: Time 137040, Note Name: G#5
Note ON: Time 137280, Note Name: G#4, Velocity: 45
Note OFF: Time 137400, Note Name: G#4
Note ON: Time 137520, Note Name: G#4, Velocity: 36
Note OFF: Time 137640, Note Name: G#4
Note ON: Time 137760, Note Name: G#4, Velocity: 55
Note OFF: Time 138240, Note Name: G#4
Note ON: Time 138240, Note Name: G#5, Velocity: 63
Note OFF: Time 138480, Note Name: G#5
Note ON: Time 138720, Note Name: A#4, Velocity: 63
Note ON: Time 138960, Note Name: G#5, Velocity: 49
Note OFF: Time 139200, Note Name: G#5
Note OFF: Time 139200, Note Name: A#4
Note ON: Time 139200, Note Name: F#5, Velocity: 56
Note ON: Time 139200, Note Name: D#5, Velocity: 56
Note OFF: Time 140160, Note Name: D#5
Note ON: Time 140160, Note Name: G#4, Velocity: 53
Note OFF: Time 140400, Note Name: F#5
Note ON: Time 140400, Note Name: F#5, Velocity: 46
Note OFF: Time 140640, Note Name: F#5
Note OFF: Time 140640, Note Name: G#4
Note ON: Time 140640, Note Name: C#5, Velocity: 50
Note ON: Time 140640, Note Name: F5, Velocity: 50
Note OFF: Time 141600, Note Name: C#5
Note ON: Time 141600, Note Name: F#4, Velocity: 40
Note OFF: Time 141840, Note Name: F5
Note ON: Time 141840, Note Name: F5, Velocity: 40
Note OFF: Time 142080, Note Name: F5
Note OFF: Time 142080, Note Name: F#4
Note ON: Time 142080, Note Name: F#4, Velocity: 38
Note ON: Time 142080, Note Name: D#5, Velocity: 38
Note OFF: Time 142560, Note Name: D#5
Note OFF: Time 142560, Note Name: F#4
Note ON: Time 142560, Note Name: F4, Velocity: 36
Note ON: Time 142560, Note Name: C#5, Velocity: 36
Note OFF: Time 143040, Note Name: C#5
Note OFF: Time 143040, Note Name: F4
Note ON: Time 143040, Note Name: G#4, Velocity: 43
Note OFF: Time 143160, Note Name: G#4
Note ON: Time 143280, Note Name: G#4, Velocity: 35
Note OFF: Time 143400, Note Name: G#4
Note ON: Time 143520, Note Name: G#4, Velocity: 43
Note OFF: Time 144000, Note Name: G#4
Note ON: Time 144000, Note Name: D#5, Velocity: 48
Note ON: Time 144000, Note Name: F#5, Velocity: 48
Note ON: Time 144960, Note Name: B4, Velocity: 45
Note ON: Time 144960, Note Name: D5, Velocity: 45
Note OFF: Time 144980, Note Name: F#5
Note OFF: Time 144980, Note Name: D#5
Note ON: Time 145440, Note Name: C5, Velocity: 45
Note ON: Time 145440, Note Name: D#5, Velocity: 45
Note OFF: Time 145460, Note Name: B4
Note OFF: Time 145460, Note Name: D5
Note OFF: Time 145680, Note Name: C5
Note OFF: Time 145680, Note Name: D#5
Note ON: Time 145920, Note Name: G#4, Velocity: 47
Note OFF: Time 146040, Note Name: G#4
Note ON: Time 146160, Note Name: G#4, Velocity: 42
Note OFF: Time 146280, Note Name: G#4
Note ON: Time 146400, Note Name: G#4, Velocity: 56
Note OFF: Time 146880, Note Name: G#4
Note ON: Time 146880, Note Name: F#5, Velocity: 60
Note ON: Time 146880, Note Name: A#5, Velocity: 60
Note ON: Time 147840, Note Name: E5, Velocity: 48
Note ON: Time 147840, Note Name: G5, Velocity: 48
Note OFF: Time 147860, Note Name: A#5
Note OFF: Time 147860, Note Name: F#5
Note ON: Time 148320, Note Name: F5, Velocity: 49
Note ON: Time 148320, Note Name: G#5, Velocity: 49
Note OFF: Time 148340, Note Name: E5
Note OFF: Time 148340, Note Name: G5
Note OFF: Time 148560, Note Name: F5
Note OFF: Time 148560, Note Name: G#5
Note ON: Time 148800, Note Name: G#4, Velocity: 47
Note OFF: Time 148920, Note Name: G#4
Note ON: Time 149040, Note Name: G#4, Velocity: 40
Note OFF: Time 149160, Note Name: G#4
Note ON: Time 149280, Note Name: G#4, Velocity: 55
Note OFF: Time 149760, Note Name: G#4
Note ON: Time 149760, Note Name: D#5, Velocity: 58
Note ON: Time 149760, Note Name: F#5, Velocity: 58
Note ON: Time 150720, Note Name: B4, Velocity: 44
Note ON: Time 150720, Note Name: D5, Velocity: 44
Note OFF: Time 150740, Note Name: F#5
Note OFF: Time 150740, Note Name: D#5
Note ON: Time 151200, Note Name: C5, Velocity: 48
Note ON: Time 151200, Note Name: D#5, Velocity: 48
Note OFF: Time 151220, Note Name: B4
Note OFF: Time 151220, Note Name: D5
Note OFF: Time 151440, Note Name: C5
Note OFF: Time 151440, Note Name: D#5
Note ON: Time 151680, Note Name: G#4, Velocity: 44
Note OFF: Time 151800, Note Name: G#4
Note ON: Time 151920, Note Name: G#4, Velocity: 39
Note OFF: Time 152040, Note Name: G#4
Note ON: Time 152160, Note Name: G#4, Velocity: 52
Note OFF: Time 152640, Note Name: G#4
Note ON: Time 152640, Note Name: A#4, Velocity: 53
Note ON: Time 152640, Note Name: F#5, Velocity: 53
Note OFF: Time 153120, Note Name: F#5
Note OFF: Time 153120, Note Name: A#4
Note ON: Time 153120, Note Name: G#4, Velocity: 46
Note ON: Time 153120, Note Name: F5, Velocity: 46
Note OFF: Time 153600, Note Name: F5
Note OFF: Time 153600, Note Name: G#4
Note ON: Time 153600, Note Name: F#4, Velocity: 49
Note ON: Time 153600, Note Name: D#5, Velocity: 49
Note OFF: Time 154080, Note Name: D#5
Note OFF: Time 154080, Note Name: F#4
Note ON: Time 154080, Note Name: F4, Velocity: 47
Note ON: Time 154080, Note Name: C#5, Velocity: 47
Note OFF: Time 154320, Note Name: C#5
Note OFF: Time 154320, Note Name: F4
Note ON: Time 154560, Note Name: G#4, Velocity: 40
Note OFF: Time 154680, Note Name: G#4
Note ON: Time 154800, Note Name: G#4, Velocity: 33
Note OFF: Time 154920, Note Name: G#4
Note ON: Time 155040, Note Name: G#4, Velocity: 40
Note OFF: Time 155520, Note Name: G#4
Note ON: Time 155520, Note Name: D#5, Velocity: 47
Note ON: Time 155520, Note Name: F#5, Velocity: 47
Note ON: Time 156480, Note Name: B4, Velocity: 42
Note ON: Time 156480, Note Name: D5, Velocity: 42
Note OFF: Time 156500, Note Name: F#5
Note OFF: Time 156500, Note Name: D#5
Note ON: Time 156960, Note Name: C5, Velocity: 42
Note ON: Time 156960, Note Name: D#5, Velocity: 42
Note OFF: Time 156980, Note Name: B4
Note OFF: Time 156980, Note Name: D5
Note OFF: Time 157200, Note Name: C5
Note OFF: Time 157200, Note Name: D#5
Note ON: Time 157440, Note Name: G#4, Velocity: 37
Note OFF: Time 157560, Note Name: G#4
Note ON: Time 157680, Note Name: G#4, Velocity: 29
Note OFF: Time 157800, Note Name: G#4
Note ON: Time 157920, Note Name: G#4, Velocity: 53
Note OFF: Time 158400, Note Name: G#4
Note ON: Time 158400, Note Name: F#5, Velocity: 64
Note ON: Time 158400, Note Name: A#5, Velocity: 64
Note ON: Time 159360, Note Name: E5, Velocity: 52
Note ON: Time 159360, Note Name: G5, Velocity: 52
Note OFF: Time 159380, Note Name: A#5
Note OFF: Time 159380, Note Name: F#5
Note ON: Time 159840, Note Name: F5, Velocity: 52
Note ON: Time 159840, Note Name: G#5, Velocity: 52
Note OFF: Time 159860, Note Name: E5
Note OFF: Time 159860, Note Name: G5
Note OFF: Time 160080, Note Name: F5
Note OFF: Time 160080, Note Name: G#5
Note ON: Time 160320, Note Name: G#4, Velocity: 45
Note OFF: Time 160440, Note Name: G#4
Note ON: Time 160560, Note Name: G#4, Velocity: 41
Note OFF: Time 160680, Note Name: G#4
Note ON: Time 160800, Note Name: G#4, Velocity: 55
Note OFF: Time 161280, Note Name: G#4
Note ON: Time 161280, Note Name: G#5, Velocity: 63
Note OFF: Time 161520, Note Name: G#5
Note ON: Time 161760, Note Name: A#4, Velocity: 63
Note ON: Time 162000, Note Name: G#5, Velocity: 49
Note OFF: Time 162240, Note Name: G#5
Note OFF: Time 162240, Note Name: A#4
Note ON: Time 162240, Note Name: F#5, Velocity: 56
Note ON: Time 162240, Note Name: D#5, Velocity: 56
Note OFF: Time 163200, Note Name: D#5
Note ON: Time 163200, Note Name: G#4, Velocity: 53
Note OFF: Time 163440, Note Name: F#5
Note ON: Time 163440, Note Name: F#5, Velocity: 46
Note OFF: Time 163680, Note Name: F#5
Note OFF: Time 163680, Note Name: G#4
Note ON: Time 163680, Note Name: C#5, Velocity: 50
Note ON: Time 163680, Note Name: F5, Velocity: 50
Note OFF: Time 164640, Note Name: C#5
Note ON: Time 164640, Note Name: F#4, Velocity: 40
Note OFF: Time 164880, Note Name: F5
Note ON: Time 164880, Note Name: F5, Velocity: 40
Note OFF: Time 165120, Note Name: F5
Note OFF: Time 165120, Note Name: F#4
Note ON: Time 165120, Note Name: F#4, Velocity: 38
Note ON: Time 165120, Note Name: D#5, Velocity: 38
Note OFF: Time 165600, Note Name: D#5
Note OFF: Time 165600, Note Name: F#4
Note ON: Time 165600, Note Name: F4, Velocity: 36
Note ON: Time 165600, Note Name: C#5, Velocity: 36
Note OFF: Time 166080, Note Name: C#5
Note OFF: Time 166080, Note Name: F4
Note ON: Time 166560, Note Name: F4, Velocity: 77
Note ON: Time 166560, Note Name: F5, Velocity: 77
Note OFF: Time 166800, Note Name: F5
Note OFF: Time 166800, Note Name: F4
Note ON: Time 166980, Note Name: F5, Velocity: 69
Note OFF: Time 167040, Note Name: F5
Note ON: Time 167040, Note Name: G4, Velocity: 82
Note ON: Time 167040, Note Name: D#5, Velocity: 82
Note OFF: Time 167280, Note Name: D#5
Note OFF: Time 167280, Note Name: G4
Note ON: Time 167520, Note Name: G4, Velocity: 68
Note OFF: Time 167760, Note Name: G4
Note ON: Time 167940, Note Name: F5, Velocity: 55
Note OFF: Time 168000, Note Name: F5
Note ON: Time 168000, Note Name: G4, Velocity: 67
Note ON: Time 168000, Note Name: D#5, Velocity: 67
Note OFF: Time 168240, Note Name: D#5
Note OFF: Time 168240, Note Name: G4
Note ON: Time 168480, Note Name: G4, Velocity: 81
Note OFF: Time 168720, Note Name: G4
Note ON: Time 168900, Note Name: F5, Velocity: 59
Note OFF: Time 168960, Note Name: F5
Note ON: Time 168960, Note Name: G4, Velocity: 69
Note ON: Time 168960, Note Name: D#5, Velocity: 69
Note OFF: Time 169200, Note Name: D#5
Note OFF: Time 169200, Note Name: G4
Note ON: Time 169440, Note Name: G4, Velocity: 66
Note OFF: Time 169680, Note Name: G4
Note ON: Time 169920, Note Name: G#4, Velocity: 59
Note OFF: Time 170160, Note Name: G#4
Note ON: Time 170160, Note Name: C5, Velocity: 47
Note OFF: Time 170400, Note Name: C5
Note ON: Time 170400, Note Name: D#5, Velocity: 53
Note OFF: Time 170640, Note Name: D#5
Note ON: Time 170640, Note Name: G#5, Velocity: 53
Note OFF: Time 170880, Note Name: G#5
Note ON: Time 170880, Note Name: C6, Velocity: 59
Note OFF: Time 171120, Note Name: C6
Note ON: Time 171360, Note Name: G#5, Velocity: 63
Note OFF: Time 171520, Note Name: G#5
Note ON: Time 171520, Note Name: A#5, Velocity: 44
Note OFF: Time 171680, Note Name: A#5
Note ON: Time 171680, Note Name: G#5, Velocity: 51
Note OFF: Time 171840, Note Name: G#5
Note ON: Time 171840, Note Name: F5, Velocity: 36
Note OFF: Time 172080, Note Name: F5
Note ON: Time 172080, Note Name: D5, Velocity: 58
Note OFF: Time 172320, Note Name: D5
Note ON: Time 172320, Note Name: D#5, Velocity: 63
Note OFF: Time 172560, Note Name: D#5
Note ON: Time 172740, Note Name: F5, Velocity: 64
Note OFF: Time 172800, Note Name: F5
Note ON: Time 172800, Note Name: G4, Velocity: 78
Note ON: Time 172800, Note Name: D#5, Velocity: 78
Note OFF: Time 173040, Note Name: D#5
Note OFF: Time 173040, Note Name: G4
Note ON: Time 173280, Note Name: G4, Velocity: 60
Note OFF: Time 173520, Note Name: G4
Note ON: Time 173700, Note Name: F5, Velocity: 53
Note OFF: Time 173760, Note Name: F5
Note ON: Time 173760, Note Name: G4, Velocity: 71
Note ON: Time 173760, Note Name: D#5, Velocity: 71
Note OFF: Time 174000, Note Name: D#5
Note OFF: Time 174000, Note Name: G4
Note ON: Time 174240, Note Name: G4, Velocity: 81
Note OFF: Time 174480, Note Name: G4
Note ON: Time 174660, Note Name: F5, Velocity: 51
Note OFF: Time 174720, Note Name: F5
Note ON: Time 174720, Note Name: G4, Velocity: 72
Note ON: Time 174720, Note Name: D#5, Velocity: 72
Note OFF: Time 174960, Note Name: D#5
Note OFF: Time 174960, Note Name: G4
Note ON: Time 175200, Note Name: G4, Velocity: 72
Note OFF: Time 175440, Note Name: G4
Note ON: Time 175680, Note Name: D#4, Velocity: 64
Note OFF: Time 175840, Note Name: D#4
Note ON: Time 175840, Note Name: F4, Velocity: 52
Note OFF: Time 176000, Note Name: F4
Note ON: Time 176000, Note Name: D#4, Velocity: 60
Note OFF: Time 176160, Note Name: D#4
Note ON: Time 176160, Note Name: D4, Velocity: 44
Note OFF: Time 176400, Note Name: D4
Note ON: Time 176400, Note Name: D#4, Velocity: 54
Note OFF: Time 176640, Note Name: D#4
Note ON: Time 176640, Note Name: C5, Velocity: 58
Note OFF: Time 176880, Note Name: C5
Note ON: Time 176880, Note Name: A#4, Velocity: 53
Note OFF: Time 177120, Note Name: A#4
Note ON: Time 177120, Note Name: G#4, Velocity: 48
Note OFF: Time 177180, Note Name: G#4
Note ON: Time 177180, Note Name: A#4, Velocity: 41
Note OFF: Time 177240, Note Name: A#4
Note ON: Time 177240, Note Name: G#4, Velocity: 64
Note OFF: Time 177360, Note Name: G#4
Note ON: Time 177360, Note Name: G4, Velocity: 49
Note OFF: Time 177600, Note Name: G4
Note ON: Time 177600, Note Name: G#4, Velocity: 71
Note OFF: Time 177840, Note Name: G#4
Note ON: Time 177840, Note Name: A#4, Velocity: 66
Note OFF: Time 178080, Note Name: A#4
Note ON: Time 178080, Note Name: C5, Velocity: 77
Note OFF: Time 178320, Note Name: C5
Note ON: Time 178320, Note Name: C#5, Velocity: 56
Note OFF: Time 178500, Note Name: C#5
Note ON: Time 178500, Note Name: F5, Velocity: 69
Note OFF: Time 178560, Note Name: F5
Note ON: Time 178560, Note Name: G4, Velocity: 85
Note ON: Time 178560, Note Name: D#5, Velocity: 85
Note OFF: Time 178800, Note Name: D#5
Note OFF: Time 178800, Note Name: G4
Note ON: Time 179040, Note Name: G4, Velocity: 63
Note OFF: Time 179280, Note Name: G4
Note ON: Time 179460, Note Name: F5, Velocity: 57
Note OFF: Time 179520, Note Name: F5
Note ON: Time 179520, Note Name: G4, Velocity: 70
Note ON: Time 179520, Note Name: D#5, Velocity: 70
Note OFF: Time 179760, Note Name: D#5
Note OFF: Time 179760, Note Name: G4
Note ON: Time 180000, Note Name: G4, Velocity: 86
Note OFF: Time 180240, Note Name: G4
Note ON: Time 180420, Note Name: F5, Velocity: 67
Note OFF: Time 180480, Note Name: F5
Note ON: Time 180480, Note Name: G4, Velocity: 74
Note ON: Time 180480, Note Name: D#5, Velocity: 74
Note OFF: Time 180720, Note Name: D#5
Note OFF: Time 180720, Note Name: G4
Note ON: Time 180960, Note Name: G4, Velocity: 65
Note OFF: Time 181200, Note Name: G4
Note ON: Time 181440, Note Name: G#4, Velocity: 57
Note OFF: Time 181680, Note Name: G#4
Note ON: Time 181680, Note Name: C5, Velocity: 38
Note OFF: Time 181920, Note Name: C5
Note ON: Time 181920, Note Name: D#5, Velocity: 43
Note OFF: Time 182160, Note Name: D#5
Note ON: Time 182160, Note Name: G#5, Velocity: 53
Note OFF: Time 182400, Note Name: G#5
Note ON: Time 182400, Note Name: C6, Velocity: 57
Note OFF: Time 182640, Note Name: C6
Note ON: Time 182880, Note Name: G#5, Velocity: 67
Note OFF: Time 183040, Note Name: G#5
Note ON: Time 183040, Note Name: A#5, Velocity: 52
Note OFF: Time 183200, Note Name: A#5
Note ON: Time 183200, Note Name: G#5, Velocity: 58
Note OFF: Time 183360, Note Name: G#5
Note ON: Time 183360, Note Name: F5, Velocity: 64
Note OFF: Time 183600, Note Name: F5
Note ON: Time 183600, Note Name: D5, Velocity: 50
Note OFF: Time 183840, Note Name: D5
Note ON: Time 183840, Note Name: D#5, Velocity: 68
Note OFF: Time 184080, Note Name: D#5
Note ON: Time 184260, Note Name: F5, Velocity: 67
Note OFF: Time 184320, Note Name: F5
Note ON: Time 184320, Note Name: G4, Velocity: 81
Note ON: Time 184320, Note Name: D#5, Velocity: 81
Note OFF: Time 184560, Note Name: D#5
Note OFF: Time 184560, Note Name: G4
Note ON: Time 184800, Note Name: G4, Velocity: 72
Note OFF: Time 185040, Note Name: G4
Note ON: Time 185220, Note Name: F5, Velocity: 67
Note OFF: Time 185280, Note Name: F5
Note ON: Time 185280, Note Name: G4, Velocity: 72
Note ON: Time 185280, Note Name: D#5, Velocity: 72
Note OFF: Time 185520, Note Name: D#5
Note OFF: Time 185520, Note Name: G4
Note ON: Time 185760, Note Name: G4, Velocity: 86
Note OFF: Time 186000, Note Name: G4
Note ON: Time 186180, Note Name: F5, Velocity: 64
Note OFF: Time 186240, Note Name: F5
Note ON: Time 186240, Note Name: G4, Velocity: 72
Note ON: Time 186240, Note Name: D#5, Velocity: 72
Note OFF: Time 186480, Note Name: D#5
Note OFF: Time 186480, Note Name: G4
Note ON: Time 186720, Note Name: G4, Velocity: 63
Note OFF: Time 186960, Note Name: G4
Note ON: Time 187200, Note Name: G#4, Velocity: 45
Note OFF: Time 187260, Note Name: G#4
Note ON: Time 187260, Note Name: A#4, Velocity: 37
Note OFF: Time 187320, Note Name: A#4
Note ON: Time 187320, Note Name: G#4, Velocity: 46
Note OFF: Time 187440, Note Name: G#4
Note ON: Time 187440, Note Name: G4, Velocity: 39
Note OFF: Time 187680, Note Name: G4
Note ON: Time 187680, Note Name: G#4, Velocity: 58
Note OFF: Time 187920, Note Name: G#4
Note ON: Time 187920, Note Name: A#4, Velocity: 53
Note OFF: Time 188160, Note Name: A#4
Note ON: Time 188160, Note Name: C5, Velocity: 58
Note OFF: Time 188400, Note Name: C5
Note ON: Time 188400, Note Name: C#5, Velocity: 54
Note OFF: Time 188640, Note Name: C#5
Note ON: Time 188640, Note Name: D#5, Velocity: 60
Note OFF: Time 188880, Note Name: D#5
Note ON: Time 188880, Note Name: F5, Velocity: 57
Note OFF: Time 189120, Note Name: F5
Note ON: Time 189120, Note Name: F#5, Velocity: 67
Note OFF: Time 189360, Note Name: F#5
Note ON: Time 189360, Note Name: G5, Velocity: 59
Note OFF: Time 189600, Note Name: G5
Note ON: Time 189600, Note Name: A#5, Velocity: 68
Note OFF: Time 189960, Note Name: A#5
Note ON: Time 189960, Note Name: G#5, Velocity: 47
Note OFF: Time 190080, Note Name: G#5
Note ON: Time 190080, Note Name: D#5, Velocity: 55
Note ON: Time 190080, Note Name: F#5, Velocity: 55
Note ON: Time 191040, Note Name: B4, Velocity: 48
Note ON: Time 191040, Note Name: D5, Velocity: 48
Note OFF: Time 191060, Note Name: F#5
Note OFF: Time 191060, Note Name: D#5
Note ON: Time 191520, Note Name: C5, Velocity: 48
Note ON: Time 191520, Note Name: D#5, Velocity: 48
Note OFF: Time 191540, Note Name: B4
Note OFF: Time 191540, Note Name: D5
Note OFF: Time 191760, Note Name: C5
Note OFF: Time 191760, Note Name: D#5
Note ON: Time 192000, Note Name: G#4, Velocity: 43
Note OFF: Time 192120, Note Name: G#4
Note ON: Time 192240, Note Name: G#4, Velocity: 37
Note OFF: Time 192360, Note Name: G#4
Note ON: Time 192480, Note Name: G#4, Velocity: 56
Note OFF: Time 192960, Note Name: G#4
Note ON: Time 192960, Note Name: F#5, Velocity: 60
Note ON: Time 192960, Note Name: A#5, Velocity: 60
Note ON: Time 193920, Note Name: E5, Velocity: 48
Note ON: Time 193920, Note Name: G5, Velocity: 48
Note OFF: Time 193940, Note Name: A#5
Note OFF: Time 193940, Note Name: F#5
Note ON: Time 194400, Note Name: F5, Velocity: 49
Note ON: Time 194400, Note Name: G#5, Velocity: 49
Note OFF: Time 194420, Note Name: E5
Note OFF: Time 194420, Note Name: G5
Note OFF: Time 194640, Note Name: F5
Note OFF: Time 194640, Note Name: G#5
Note ON: Time 194880, Note Name: G#4, Velocity: 42
Note OFF: Time 195000, Note Name: G#4
Note ON: Time 195120, Note Name: G#4, Velocity: 35
Note OFF: Time 195240, Note Name: G#4
Note ON: Time 195360, Note Name: G#4, Velocity: 55
Note OFF: Time 195840, Note Name: G#4
Note ON: Time 195840, Note Name: D#5, Velocity: 58
Note ON: Time 195840, Note Name: F#5, Velocity: 58
Note ON: Time 196800, Note Name: B4, Velocity: 44
Note ON: Time 196800, Note Name: D5, Velocity: 44
Note OFF: Time 196820, Note Name: F#5
Note OFF: Time 196820, Note Name: D#5
Note ON: Time 197280, Note Name: C5, Velocity: 48
Note ON: Time 197280, Note Name: D#5, Velocity: 48
Note OFF: Time 197300, Note Name: B4
Note OFF: Time 197300, Note Name: D5
Note OFF: Time 197520, Note Name: C5
Note OFF: Time 197520, Note Name: D#5
Note ON: Time 197760, Note Name: G#4, Velocity: 44
Note OFF: Time 197880, Note Name: G#4
Note ON: Time 198000, Note Name: G#4, Velocity: 44
Note OFF: Time 198120, Note Name: G#4
Note ON: Time 198240, Note Name: G#4, Velocity: 52
Note OFF: Time 198720, Note Name: G#4
Note ON: Time 198720, Note Name: A#4, Velocity: 53
Note ON: Time 198720, Note Name: F#5, Velocity: 53
Note OFF: Time 199200, Note Name: F#5
Note OFF: Time 199200, Note Name: A#4
Note ON: Time 199200, Note Name: G#4, Velocity: 51
Note ON: Time 199200, Note Name: F5, Velocity: 51
Note OFF: Time 199680, Note Name: F5
Note OFF: Time 199680, Note Name: G#4
Note ON: Time 199680, Note Name: F#4, Velocity: 49
Note ON: Time 199680, Note Name: D#5, Velocity: 49
Note OFF: Time 200160, Note Name: D#5
Note OFF: Time 200160, Note Name: F#4
Note ON: Time 200160, Note Name: F4, Velocity: 47
Note ON: Time 200160, Note Name: C#5, Velocity: 47
Note OFF: Time 200400, Note Name: C#5
Note OFF: Time 200400, Note Name: F4
Note ON: Time 200640, Note Name: G#4, Velocity: 40
Note OFF: Time 200760, Note Name: G#4
Note ON: Time 200880, Note Name: G#4, Velocity: 37
Note OFF: Time 201000, Note Name: G#4
Note ON: Time 201120, Note Name: G#4, Velocity: 40
Note OFF: Time 201600, Note Name: G#4
Note ON: Time 201600, Note Name: D#5, Velocity: 47
Note ON: Time 201600, Note Name: F#5, Velocity: 47
Note ON: Time 202560, Note Name: B4, Velocity: 42
Note ON: Time 202560, Note Name: D5, Velocity: 42
Note OFF: Time 202580, Note Name: F#5
Note OFF: Time 202580, Note Name: D#5
Note ON: Time 203040, Note Name: C5, Velocity: 42
Note ON: Time 203040, Note Name: D#5, Velocity: 42
Note OFF: Time 203060, Note Name: B4
Note OFF: Time 203060, Note Name: D5
Note OFF: Time 203280, Note Name: C5
Note OFF: Time 203280, Note Name: D#5
Note ON: Time 203520, Note Name: G#4, Velocity: 37
Note OFF: Time 203640, Note Name: G#4
Note ON: Time 203760, Note Name: G#4, Velocity: 35
Note OFF: Time 203880, Note Name: G#4
Note ON: Time 204000, Note Name: G#4, Velocity: 53
Note OFF: Time 204480, Note Name: G#4
Note ON: Time 204480, Note Name: F#5, Velocity: 64
Note ON: Time 204480, Note Name: A#5, Velocity: 64
Note ON: Time 205440, Note Name: E5, Velocity: 52
Note ON: Time 205440, Note Name: G5, Velocity: 52
Note OFF: Time 205460, Note Name: A#5
Note OFF: Time 205460, Note Name: F#5
Note ON: Time 205920, Note Name: F5, Velocity: 52
Note ON: Time 205920, Note Name: G#5, Velocity: 52
Note OFF: Time 205940, Note Name: E5
Note OFF: Time 205940, Note Name: G5
Note OFF: Time 206160, Note Name: F5
Note OFF: Time 206160, Note Name: G#5
Note ON: Time 206400, Note Name: G#4, Velocity: 45
Note OFF: Time 206520, Note Name: G#4
Note ON: Time 206640, Note Name: G#4, Velocity: 36
Note OFF: Time 206760, Note Name: G#4
Note ON: Time 206880, Note Name: G#4, Velocity: 55
Note OFF: Time 207360, Note Name: G#4
Note ON: Time 207360, Note Name: G#5, Velocity: 63
Note OFF: Time 207600, Note Name: G#5
Note ON: Time 207840, Note Name: A#4, Velocity: 63
Note ON: Time 208080, Note Name: G#5, Velocity: 49
Note OFF: Time 208320, Note Name: G#5
Note OFF: Time 208320, Note Name: A#4
Note ON: Time 208320, Note Name: F#5, Velocity: 56
Note ON: Time 208320, Note Name: D#5, Velocity: 56
Note OFF: Time 209280, Note Name: D#5
Note ON: Time 209280, Note Name: G#4, Velocity: 53
Note OFF: Time 209520, Note Name: F#5
Note ON: Time 209520, Note Name: F#5, Velocity: 46
Note OFF: Time 209760, Note Name: F#5
Note OFF: Time 209760, Note Name: G#4
Note ON: Time 209760, Note Name: C#5, Velocity: 50
Note ON: Time 209760, Note Name: F5, Velocity: 50
Note OFF: Time 210720, Note Name: C#5
Note ON: Time 210720, Note Name: F#4, Velocity: 40
Note OFF: Time 210960, Note Name: F5
Note ON: Time 210960, Note Name: F5, Velocity: 40
Note OFF: Time 211200, Note Name: F5
Note OFF: Time 211200, Note Name: F#4
Note ON: Time 211200, Note Name: F#4, Velocity: 38
Note ON: Time 211200, Note Name: D#5, Velocity: 38
Note OFF: Time 211680, Note Name: D#5
Note OFF: Time 211680, Note Name: F#4
Note ON: Time 211680, Note Name: F4, Velocity: 36
Note ON: Time 211680, Note Name: C#5, Velocity: 36
Note OFF: Time 211920, Note Name: C#5
Note OFF: Time 211920, Note Name: F4
Note ON: Time 212160, Note Name: C#4, Velocity: 52
Note OFF: Time 212280, Note Name: C#4
Note ON: Time 212400, Note Name: C#4, Velocity: 52
Note OFF: Time 212520, Note Name: C#4
Note ON: Time 212640, Note Name: C#4, Velocity: 52
Note OFF: Time 213120, Note Name: C#4
Note ON: Time 213120, Note Name: F4, Velocity: 72
Note ON: Time 213120, Note Name: G#4, Velocity: 72
Note OFF: Time 213360, Note Name: G#4
Note OFF: Time 213360, Note Name: F4
Note ON: Time 214080, Note Name: F4, Velocity: 69
Note ON: Time 214080, Note Name: G#4, Velocity: 69
Note OFF: Time 214320, Note Name: G#4
Note OFF: Time 214320, Note Name: F4
Note ON: Time 214560, Note Name: G#4, Velocity: 66
Note OFF: Time 214620, Note Name: G#4
Note ON: Time 214620, Note Name: A#4, Velocity: 66
Note OFF: Time 214680, Note Name: A#4
Note ON: Time 214680, Note Name: F4, Velocity: 72
Note ON: Time 214680, Note Name: G#4, Velocity: 72
Note OFF: Time 214800, Note Name: G#4
Note OFF: Time 214800, Note Name: F4
Note ON: Time 215280, Note Name: D#4, Velocity: 60
Note ON: Time 215280, Note Name: F#4, Velocity: 60
Note OFF: Time 215520, Note Name: F#4
Note OFF: Time 215520, Note Name: D#4
Note ON: Time 215520, Note Name: F4, Velocity: 72
Note ON: Time 215520, Note Name: G#4, Velocity: 72
Note OFF: Time 216000, Note Name: G#4
Note OFF: Time 216000, Note Name: F4
Note ON: Time 216000, Note Name: F#4, Velocity: 76
Note ON: Time 216000, Note Name: A#4, Velocity: 76
Note OFF: Time 216240, Note Name: A#4
Note OFF: Time 216240, Note Name: F#4
Note ON: Time 216960, Note Name: A#4, Velocity: 81
Note ON: Time 216960, Note Name: C#5, Velocity: 81
Note OFF: Time 217200, Note Name: C#5
Note OFF: Time 217200, Note Name: A#4
Note ON: Time 217440, Note Name: A#4, Velocity: 87
Note ON: Time 217440, Note Name: F#5, Velocity: 87
Note OFF: Time 218880, Note Name: F#5
Note OFF: Time 218880, Note Name: A#4
Note ON: Time 218880, Note Name: G#4, Velocity: 58
Note ON: Time 218880, Note Name: F5, Velocity: 58
Note OFF: Time 219120, Note Name: F5
Note OFF: Time 219120, Note Name: G#4
Note ON: Time 219600, Note Name: D#5, Velocity: 54
Note OFF: Time 219720, Note Name: D#5
Note ON: Time 219840, Note Name: F#4, Velocity: 58
Note ON: Time 219840, Note Name: D#5, Velocity: 58
Note OFF: Time 220320, Note Name: D#5
Note OFF: Time 220320, Note Name: F#4
Note ON: Time 220320, Note Name: G#4, Velocity: 60
Note ON: Time 220320, Note Name: F5, Velocity: 60
Note OFF: Time 220560, Note Name: F5
Note OFF: Time 220560, Note Name: G#4
Note ON: Time 221040, Note Name: D#5, Velocity: 50
Note OFF: Time 221160, Note Name: D#5
Note ON: Time 221280, Note Name: F#4, Velocity: 56
Note ON: Time 221280, Note Name: D#5, Velocity: 56
Note OFF: Time 221760, Note Name: D#5
Note OFF: Time 221760, Note Name: F#4
Note ON: Time 221760, Note Name: G#4, Velocity: 60
Note ON: Time 221760, Note Name: F5, Velocity: 60
Note OFF: Time 222000, Note Name: F5
Note OFF: Time 222000, Note Name: G#4
Note ON: Time 222480, Note Name: D#5, Velocity: 51
Note OFF: Time 222600, Note Name: D#5
Note ON: Time 222720, Note Name: F#4, Velocity: 57
Note ON: Time 222720, Note Name: D#5, Velocity: 57
Note OFF: Time 223200, Note Name: D#5
Note OFF: Time 223200, Note Name: F#4
Note ON: Time 223200, Note Name: E4, Velocity: 68
Note ON: Time 223200, Note Name: C5, Velocity: 68
Note OFF: Time 223440, Note Name: C5
Note OFF: Time 223440, Note Name: E4
Note ON: Time 223920, Note Name: C#5, Velocity: 56
Note OFF: Time 224040, Note Name: C#5
Note ON: Time 224160, Note Name: F4, Velocity: 62
Note ON: Time 224160, Note Name: C#5, Velocity: 62
Note OFF: Time 224640, Note Name: C#5
Note OFF: Time 224640, Note Name: F4
Note ON: Time 224640, Note Name: F5, Velocity: 86
Note ON: Time 224640, Note Name: G#5, Velocity: 86
Note OFF: Time 224880, Note Name: G#5
Note OFF: Time 224880, Note Name: F5
Note ON: Time 225360, Note Name: G#5, Velocity: 72
Note ON: Time 225360, Note Name: F5, Velocity: 72
Note OFF: Time 225480, Note Name: F5
Note OFF: Time 225480, Note Name: G#5
Note ON: Time 225600, Note Name: F5, Velocity: 80
Note ON: Time 225600, Note Name: G#5, Velocity: 80
Note OFF: Time 226080, Note Name: G#5
Note OFF: Time 226080, Note Name: F5
Note ON: Time 226080, Note Name: G#5, Velocity: 77
Note OFF: Time 226140, Note Name: G#5
Note ON: Time 226140, Note Name: A#5, Velocity: 78
Note OFF: Time 226200, Note Name: A#5
Note ON: Time 226200, Note Name: F5, Velocity: 86
Note ON: Time 226200, Note Name: G#5, Velocity: 86
Note OFF: Time 226320, Note Name: G#5
Note OFF: Time 226320, Note Name: F5
Note ON: Time 226800, Note Name: D#5, Velocity: 80
Note ON: Time 226800, Note Name: F#5, Velocity: 80
Note OFF: Time 227040, Note Name: F#5
Note OFF: Time 227040, Note Name: D#5
Note ON: Time 227040, Note Name: F5, Velocity: 80
Note ON: Time 227040, Note Name: G#5, Velocity: 80
Note OFF: Time 227520, Note Name: G#5
Note OFF: Time 227520, Note Name: F5
Note ON: Time 227520, Note Name: A#5, Velocity: 88
Note ON: Time 227520, Note Name: F#5, Velocity: 88
Note OFF: Time 227760, Note Name: F#5
Note OFF: Time 227760, Note Name: A#5
Note ON: Time 228480, Note Name: C#6, Velocity: 88
Note ON: Time 228480, Note Name: A#5, Velocity: 88
Note OFF: Time 228720, Note Name: A#5
Note OFF: Time 228720, Note Name: C#6
Note ON: Time 228960, Note Name: F#6, Velocity: 94
Note ON: Time 228960, Note Name: A#5, Velocity: 94
Note OFF: Time 230400, Note Name: A#5
Note OFF: Time 230400, Note Name: F#6
Note ON: Time 230400, Note Name: F6, Velocity: 58
Note ON: Time 230400, Note Name: G#5, Velocity: 58
Note OFF: Time 230640, Note Name: G#5
Note OFF: Time 230640, Note Name: F6
Note ON: Time 231120, Note Name: D#6, Velocity: 48
Note OFF: Time 231240, Note Name: D#6
Note ON: Time 231360, Note Name: F#5, Velocity: 56
Note ON: Time 231360, Note Name: D#6, Velocity: 56
Note OFF: Time 231840, Note Name: D#6
Note OFF: Time 231840, Note Name: F#5
Note ON: Time 231840, Note Name: F6, Velocity: 59
Note ON: Time 231840, Note Name: G#5, Velocity: 59
Note OFF: Time 232080, Note Name: G#5
Note OFF: Time 232080, Note Name: F6
Note ON: Time 232560, Note Name: D#6, Velocity: 55
Note OFF: Time 232680, Note Name: D#6
Note ON: Time 232800, Note Name: F#5, Velocity: 55
Note ON: Time 232800, Note Name: D#6, Velocity: 55
Note OFF: Time 233280, Note Name: D#6
Note OFF: Time 233280, Note Name: F#5
Note ON: Time 233280, Note Name: G#5, Velocity: 59
Note ON: Time 233280, Note Name: F6, Velocity: 59
Note OFF: Time 233520, Note Name: F6
Note OFF: Time 233520, Note Name: G#5
Note ON: Time 234000, Note Name: D#6, Velocity: 50
Note OFF: Time 234120, Note Name: D#6
Note ON: Time 234240, Note Name: F#5, Velocity: 55
Note ON: Time 234240, Note Name: D#6, Velocity: 55
Note OFF: Time 234720, Note Name: D#6
Note OFF: Time 234720, Note Name: F#5
Note ON: Time 234720, Note Name: C#6, Velocity: 59
Note ON: Time 234720, Note Name: F5, Velocity: 59
Note OFF: Time 235200, Note Name: F5
Note OFF: Time 235200, Note Name: C#6
Note ON: Time 235680, Note Name: C#4, Velocity: 67
Note OFF: Time 236160, Note Name: C#4
Note ON: Time 236160, Note Name: F4, Velocity: 72
Note ON: Time 236160, Note Name: G#4, Velocity: 72
Note OFF: Time 236400, Note Name: G#4
Note OFF: Time 236400, Note Name: F4
Note ON: Time 237120, Note Name: F4, Velocity: 69
Note ON: Time 237120, Note Name: G#4, Velocity: 69
Note OFF: Time 237360, Note Name: G#4
Note OFF: Time 237360, Note Name: F4
Note ON: Time 237600, Note Name: G#4, Velocity: 66
Note OFF: Time 237660, Note Name: G#4
Note ON: Time 237660, Note Name: A#4, Velocity: 66
Note OFF: Time 237720, Note Name: A#4
Note ON: Time 237720, Note Name: F4, Velocity: 72
Note ON: Time 237720, Note Name: G#4, Velocity: 72
Note OFF: Time 237840, Note Name: G#4
Note OFF: Time 237840, Note Name: F4
Note ON: Time 238320, Note Name: D#4, Velocity: 68
Note ON: Time 238320, Note Name: F#4, Velocity: 68
Note OFF: Time 238560, Note Name: F#4
Note OFF: Time 238560, Note Name: D#4
Note ON: Time 238560, Note Name: F4, Velocity: 72
Note ON: Time 238560, Note Name: G#4, Velocity: 72
Note OFF: Time 239040, Note Name: G#4
Note OFF: Time 239040, Note Name: F4
Note ON: Time 239040, Note Name: F#4, Velocity: 76
Note ON: Time 239040, Note Name: A#4, Velocity: 76
Note OFF: Time 239280, Note Name: A#4
Note OFF: Time 239280, Note Name: F#4
Note ON: Time 240000, Note Name: A#4, Velocity: 81
Note ON: Time 240000, Note Name: C#5, Velocity: 81
Note OFF: Time 240240, Note Name: C#5
Note OFF: Time 240240, Note Name: A#4
Note ON: Time 240480, Note Name: A#4, Velocity: 87
Note ON: Time 240480, Note Name: F#5, Velocity: 87
Note OFF: Time 241920, Note Name: F#5
Note OFF: Time 241920, Note Name: A#4
Note ON: Time 241920, Note Name: G#4, Velocity: 61
Note ON: Time 241920, Note Name: F5, Velocity: 61
Note OFF: Time 242160, Note Name: F5
Note OFF: Time 242160, Note Name: G#4
Note ON: Time 242640, Note Name: D#5, Velocity: 52
Note OFF: Time 242760, Note Name: D#5
Note ON: Time 242880, Note Name: F#4, Velocity: 56
Note ON: Time 242880, Note Name: D#5, Velocity: 56
Note OFF: Time 243360, Note Name: D#5
Note OFF: Time 243360, Note Name: F#4
Note ON: Time 243360, Note Name: G#4, Velocity: 60
Note ON: Time 243360, Note Name: F5, Velocity: 60
Note OFF: Time 243600, Note Name: F5
Note OFF: Time 243600, Note Name: G#4
Note ON: Time 244080, Note Name: D#5, Velocity: 52
Note OFF: Time 244200, Note Name: D#5
Note ON: Time 244320, Note Name: F#4, Velocity: 56
Note ON: Time 244320, Note Name: D#5, Velocity: 56
Note OFF: Time 244800, Note Name: D#5
Note OFF: Time 244800, Note Name: F#4
Note ON: Time 244800, Note Name: G#4, Velocity: 60
Note ON: Time 244800, Note Name: F5, Velocity: 60
Note OFF: Time 245040, Note Name: F5
Note OFF: Time 245040, Note Name: G#4
Note ON: Time 245520, Note Name: D#5, Velocity: 55
Note OFF: Time 245640, Note Name: D#5
Note ON: Time 245760, Note Name: F#4, Velocity: 57
Note ON: Time 245760, Note Name: D#5, Velocity: 57
Note OFF: Time 246240, Note Name: D#5
Note OFF: Time 246240, Note Name: F#4
Note ON: Time 246240, Note Name: E4, Velocity: 68
Note ON: Time 246240, Note Name: C5, Velocity: 68
Note OFF: Time 246480, Note Name: C5
Note OFF: Time 246480, Note Name: E4
Note ON: Time 246960, Note Name: C#5, Velocity: 58
Note OFF: Time 247080, Note Name: C#5
Note ON: Time 247200, Note Name: F4, Velocity: 62
Note ON: Time 247200, Note Name: C#5, Velocity: 62
Note OFF: Time 247680, Note Name: C#5
Note OFF: Time 247680, Note Name: F4
Note ON: Time 247680, Note Name: F5, Velocity: 86
Note ON: Time 247680, Note Name: G#5, Velocity: 86
Note OFF: Time 247920, Note Name: G#5
Note OFF: Time 247920, Note Name: F5
Note ON: Time 248400, Note Name: G#5, Velocity: 80
Note ON: Time 248400, Note Name: F5, Velocity: 80
Note OFF: Time 248520, Note Name: F5
Note OFF: Time 248520, Note Name: G#5
Note ON: Time 248640, Note Name: F5, Velocity: 80
Note ON: Time 248640, Note Name: G#5, Velocity: 80
Note OFF: Time 249120, Note Name: G#5
Note OFF: Time 249120, Note Name: F5
Note ON: Time 249120, Note Name: G#5, Velocity: 77
Note OFF: Time 249180, Note Name: G#5
Note ON: Time 249180, Note Name: A#5, Velocity: 78
Note OFF: Time 249240, Note Name: A#5
Note ON: Time 249240, Note Name: F5, Velocity: 86
Note ON: Time 249240, Note Name: G#5, Velocity: 86
Note OFF: Time 249360, Note Name: G#5
Note OFF: Time 249360, Note Name: F5
Note ON: Time 249840, Note Name: D#5, Velocity: 75
Note ON: Time 249840, Note Name: F#5, Velocity: 75
Note OFF: Time 250080, Note Name: F#5
Note OFF: Time 250080, Note Name: D#5
Note ON: Time 250080, Note Name: F5, Velocity: 80
Note ON: Time 250080, Note Name: G#5, Velocity: 80
Note OFF: Time 250560, Note Name: G#5
Note OFF: Time 250560, Note Name: F5
Note ON: Time 250560, Note Name: A#5, Velocity: 88
Note ON: Time 250560, Note Name: F#5, Velocity: 88
Note OFF: Time 250800, Note Name: F#5
Note OFF: Time 250800, Note Name: A#5
Note ON: Time 251520, Note Name: C#6, Velocity: 92
Note ON: Time 251520, Note Name: A#5, Velocity: 92
Note OFF: Time 251760, Note Name: A#5
Note OFF: Time 251760, Note Name: C#6
Note ON: Time 252000, Note Name: F#6, Velocity: 101
Note ON: Time 252000, Note Name: A#5, Velocity: 101
Note OFF: Time 253440, Note Name: A#5
Note OFF: Time 253440, Note Name: F#6
Note ON: Time 253440, Note Name: F6, Velocity: 59
Note ON: Time 253440, Note Name: G#5, Velocity: 59
Note OFF: Time 253680, Note Name: G#5
Note OFF: Time 253680, Note Name: F6
Note ON: Time 254160, Note Name: D#6, Velocity: 56
Note OFF: Time 254280, Note Name: D#6
Note ON: Time 254400, Note Name: F#5, Velocity: 56
Note ON: Time 254400, Note Name: D#6, Velocity: 56
Note OFF: Time 254880, Note Name: D#6
Note OFF: Time 254880, Note Name: F#5
Note ON: Time 254880, Note Name: F6, Velocity: 59
Note ON: Time 254880, Note Name: G#5, Velocity: 59
Note OFF: Time 255120, Note Name: G#5
Note OFF: Time 255120, Note Name: F6
Note ON: Time 255600, Note Name: D#6, Velocity: 51
Note OFF: Time 255720, Note Name: D#6
Note ON: Time 255840, Note Name: F#5, Velocity: 55
Note ON: Time 255840, Note Name: D#6, Velocity: 55
Note OFF: Time 256320, Note Name: D#6
Note OFF: Time 256320, Note Name: F#5
Note ON: Time 256320, Note Name: G#5, Velocity: 59
Note ON: Time 256320, Note Name: F6, Velocity: 59
Note OFF: Time 256560, Note Name: F6
Note OFF: Time 256560, Note Name: G#5
Note ON: Time 257040, Note Name: D#6, Velocity: 52
Note OFF: Time 257160, Note Name: D#6
Note ON: Time 257280, Note Name: F#5, Velocity: 55
Note ON: Time 257280, Note Name: D#6, Velocity: 55
Note OFF: Time 257760, Note Name: D#6
Note OFF: Time 257760, Note Name: F#5
Note ON: Time 257760, Note Name: C#6, Velocity: 59
Note ON: Time 257760, Note Name: F5, Velocity: 59
Note OFF: Time 258240, Note Name: F5
Note OFF: Time 258240, Note Name: C#6
Note ON: Time 258720, Note Name: F5, Velocity: 50
Note OFF: Time 259130, Note Name: F5
Note ON: Time 259140, Note Name: F5, Velocity: 45
Note OFF: Time 259200, Note Name: F5
Note ON: Time 259200, Note Name: F#5, Velocity: 52
Note OFF: Time 259440, Note Name: F#5
Note ON: Time 259620, Note Name: F#5, Velocity: 41
Note OFF: Time 259680, Note Name: F#5
Note ON: Time 259680, Note Name: E5, Velocity: 46
Note OFF: Time 259920, Note Name: E5
Note ON: Time 260100, Note Name: E5, Velocity: 43
Note OFF: Time 260160, Note Name: E5
Note ON: Time 260160, Note Name: F5, Velocity: 50
Note OFF: Time 260400, Note Name: F5
Note ON: Time 260580, Note Name: F5, Velocity: 46
Note OFF: Time 260640, Note Name: F5
Note ON: Time 260640, Note Name: F#5, Velocity: 53
Note OFF: Time 260880, Note Name: F#5
Note ON: Time 261060, Note Name: F#5, Velocity: 44
Note OFF: Time 261120, Note Name: F#5
Note ON: Time 261120, Note Name: E5, Velocity: 50
Note OFF: Time 261360, Note Name: E5
Note ON: Time 261540, Note Name: E5, Velocity: 45
Note OFF: Time 261600, Note Name: E5
Note ON: Time 261600, Note Name: F5, Velocity: 50
Note OFF: Time 261840, Note Name: F5
Note ON: Time 262020, Note Name: F5, Velocity: 50
Note OFF: Time 262080, Note Name: F5
Note ON: Time 262080, Note Name: C#6, Velocity: 57
Note OFF: Time 262320, Note Name: C#6
Note ON: Time 262500, Note Name: C#6, Velocity: 50
Note OFF: Time 262560, Note Name: C#6
Note ON: Time 262560, Note Name: C6, Velocity: 59
Note OFF: Time 262800, Note Name: C6
Note ON: Time 262980, Note Name: C6, Velocity: 56
Note OFF: Time 263040, Note Name: C6
Note ON: Time 263040, Note Name: B5, Velocity: 66
Note OFF: Time 263280, Note Name: B5
Note ON: Time 263460, Note Name: B5, Velocity: 64
Note OFF: Time 263520, Note Name: B5
Note ON: Time 263520, Note Name: A#5, Velocity: 75
Note OFF: Time 263760, Note Name: A#5
Note ON: Time 263940, Note Name: A#5, Velocity: 63
Note OFF: Time 264000, Note Name: A#5
Note ON: Time 264000, Note Name: A5, Velocity: 73
Note OFF: Time 264240, Note Name: A5
Note ON: Time 264420, Note Name: A5, Velocity: 63
Note OFF: Time 264480, Note Name: A5
Note ON: Time 264480, Note Name: G#5, Velocity: 70
Note OFF: Time 264720, Note Name: G#5
Note ON: Time 264900, Note Name: G#5, Velocity: 58
Note OFF: Time 264960, Note Name: G#5
Note ON: Time 264960, Note Name: G5, Velocity: 67
Note OFF: Time 265200, Note Name: G5
Note ON: Time 265380, Note Name: G5, Velocity: 54
Note OFF: Time 265440, Note Name: G5
Note ON: Time 265440, Note Name: F#5, Velocity: 65
Note OFF: Time 265680, Note Name: F#5
Note ON: Time 265860, Note Name: F#5, Velocity: 51
Note OFF: Time 265920, Note Name: F#5
Note ON: Time 265920, Note Name: F5, Velocity: 63
Note OFF: Time 266160, Note Name: F5
Note ON: Time 266340, Note Name: F5, Velocity: 49
Note OFF: Time 266400, Note Name: F5
Note ON: Time 266400, Note Name: E5, Velocity: 60
Note OFF: Time 266640, Note Name: E5
Note ON: Time 266820, Note Name: E5, Velocity: 46
Note OFF: Time 266880, Note Name: E5
Note ON: Time 266880, Note Name: D#5, Velocity: 58
Note OFF: Time 267120, Note Name: D#5
Note ON: Time 267300, Note Name: D#5, Velocity: 44
Note OFF: Time 267360, Note Name: D#5
Note ON: Time 267360, Note Name: C5, Velocity: 54
Note OFF: Time 267600, Note Name: C5
Note ON: Time 267780, Note Name: C5, Velocity: 44
Note OFF: Time 267840, Note Name: C5
Note ON: Time 267840, Note Name: C#5, Velocity: 52
Note OFF: Time 268080, Note Name: C#5
Note ON: Time 268260, Note Name: C#5, Velocity: 38
Note OFF: Time 268320, Note Name: C#5
Note ON: Time 268320, Note Name: A4, Velocity: 48
Note OFF: Time 268560, Note Name: A4
Note ON: Time 268740, Note Name: A4, Velocity: 39
Note OFF: Time 268800, Note Name: A4
Note ON: Time 268800, Note Name: A#4, Velocity: 50
Note OFF: Time 269040, Note Name: A#4
Note ON: Time 269220, Note Name: A#4, Velocity: 39
Note OFF: Time 269280, Note Name: A#4
Note ON: Time 269280, Note Name: C#5, Velocity: 50
Note OFF: Time 269520, Note Name: C#5
Note ON: Time 269700, Note Name: C#5, Velocity: 39
Note OFF: Time 269760, Note Name: C#5
Note ON: Time 269760, Note Name: D#5, Velocity: 50
Note OFF: Time 270000, Note Name: D#5
Note ON: Time 270180, Note Name: D#5, Velocity: 37
Note OFF: Time 270240, Note Name: D#5
Note ON: Time 270240, Note Name: E5, Velocity: 51
Note OFF: Time 270480, Note Name: E5
Note ON: Time 270660, Note Name: E5, Velocity: 40
Note OFF: Time 270720, Note Name: E5
Note ON: Time 270720, Note Name: F#5, Velocity: 54
Note OFF: Time 270960, Note Name: F#5
Note ON: Time 271140, Note Name: F#5, Velocity: 44
Note OFF: Time 271200, Note Name: F#5
Note ON: Time 271200, Note Name: E5, Velocity: 55
Note OFF: Time 271440, Note Name: E5
Note ON: Time 271620, Note Name: E5, Velocity: 44
Note OFF: Time 271680, Note Name: E5
Note ON: Time 271680, Note Name: F5, Velocity: 58
Note OFF: Time 271920, Note Name: F5
Note ON: Time 272100, Note Name: F5, Velocity: 49
Note OFF: Time 272160, Note Name: F5
Note ON: Time 272160, Note Name: F#5, Velocity: 62
Note OFF: Time 272400, Note Name: F#5
Note ON: Time 272580, Note Name: F#5, Velocity: 51
Note OFF: Time 272640, Note Name: F#5
Note ON: Time 272640, Note Name: E5, Velocity: 68
Note OFF: Time 272880, Note Name: E5
Note ON: Time 273060, Note Name: E5, Velocity: 54
Note OFF: Time 273120, Note Name: E5
Note ON: Time 273120, Note Name: F5, Velocity: 73
Note OFF: Time 273360, Note Name: F5
Note ON: Time 273540, Note Name: F5, Velocity: 71
Note OFF: Time 273600, Note Name: F5
Note ON: Time 273600, Note Name: F6, Velocity: 83
Note OFF: Time 273840, Note Name: F6
Note ON: Time 274020, Note Name: F6, Velocity: 68
Note OFF: Time 274080, Note Name: F6
Note ON: Time 274080, Note Name: C#6, Velocity: 80
Note OFF: Time 274320, Note Name: C#6
Note ON: Time 274500, Note Name: C#6, Velocity: 63
Note OFF: Time 274560, Note Name: C#6
Note ON: Time 274560, Note Name: A#5, Velocity: 76
Note OFF: Time 274800, Note Name: A#5
Note ON: Time 274980, Note Name: A#5, Velocity: 57
Note OFF: Time 275040, Note Name: A#5
Note ON: Time 275040, Note Name: F#5, Velocity: 71
Note OFF: Time 275280, Note Name: F#5
Note ON: Time 275460, Note Name: F#5, Velocity: 52
Note OFF: Time 275520, Note Name: F#5
Note ON: Time 275520, Note Name: D#5, Velocity: 66
Note OFF: Time 275760, Note Name: D#5
Note ON: Time 275940, Note Name: D#5, Velocity: 44
Note OFF: Time 276000, Note Name: D#5
Note ON: Time 276000, Note Name: C5, Velocity: 57
Note OFF: Time 276240, Note Name: C5
Note ON: Time 276420, Note Name: F#5, Velocity: 41
Note OFF: Time 276480, Note Name: F#5
Note ON: Time 276480, Note Name: F5, Velocity: 55
Note OFF: Time 276720, Note Name: F5
Note ON: Time 276900, Note Name: F5, Velocity: 42
Note OFF: Time 276960, Note Name: F5
Note ON: Time 276960, Note Name: E5, Velocity: 53
Note OFF: Time 277200, Note Name: E5
Note ON: Time 277380, Note Name: E5, Velocity: 42
Note OFF: Time 277440, Note Name: E5
Note ON: Time 277440, Note Name: D#5, Velocity: 55
Note OFF: Time 277680, Note Name: D#5
Note ON: Time 277860, Note Name: D#5, Velocity: 43
Note OFF: Time 277920, Note Name: D#5
Note ON: Time 277920, Note Name: D5, Velocity: 56
Note OFF: Time 278160, Note Name: D5
Note ON: Time 278340, Note Name: D5, Velocity: 44
Note OFF: Time 278400, Note Name: D5
Note ON: Time 278400, Note Name: C#5, Velocity: 58
Note OFF: Time 278640, Note Name: C#5
Note ON: Time 278820, Note Name: C#5, Velocity: 46
Note OFF: Time 278880, Note Name: C#5
Note ON: Time 278880, Note Name: C5, Velocity: 60
Note OFF: Time 279120, Note Name: C5
Note ON: Time 279300, Note Name: C5, Velocity: 46
Note OFF: Time 279360, Note Name: C5
Note ON: Time 279360, Note Name: B4, Velocity: 62
Note OFF: Time 279600, Note Name: B4
Note ON: Time 279780, Note Name: B4, Velocity: 49
Note OFF: Time 279840, Note Name: B4
Note ON: Time 279840, Note Name: A#4, Velocity: 64
Note OFF: Time 280080, Note Name: A#4
Note ON: Time 280260, Note Name: A#4, Velocity: 48
Note OFF: Time 280320, Note Name: A#4
Note ON: Time 280320, Note Name: A4, Velocity: 66
Note OFF: Time 280560, Note Name: A4
Note ON: Time 280740, Note Name: A4, Velocity: 47
Note OFF: Time 280800, Note Name: A4
Note ON: Time 280800, Note Name: G#4, Velocity: 67
Note OFF: Time 281040, Note Name: G#4
Note ON: Time 281220, Note Name: G#4, Velocity: 51
Note OFF: Time 281280, Note Name: G#4
Note ON: Time 281280, Note Name: G4, Velocity: 69
Note OFF: Time 281520, Note Name: G4
Note ON: Time 281700, Note Name: G4, Velocity: 55
Note OFF: Time 281760, Note Name: G4
Note ON: Time 281760, Note Name: F#4, Velocity: 71
Note OFF: Time 282000, Note Name: F#4
Note ON: Time 282240, Note Name: F4, Velocity: 72
Note ON: Time 282240, Note Name: G#4, Velocity: 72
Note OFF: Time 282480, Note Name: G#4
Note OFF: Time 282480, Note Name: F4
Note ON: Time 283200, Note Name: F4, Velocity: 69
Note ON: Time 283200, Note Name: G#4, Velocity: 69
Note OFF: Time 283680, Note Name: G#4
Note OFF: Time 283680, Note Name: F4
Note ON: Time 283680, Note Name: G#4, Velocity: 66
Note OFF: Time 283740, Note Name: G#4
Note ON: Time 283740, Note Name: A#4, Velocity: 66
Note OFF: Time 283800, Note Name: A#4
Note ON: Time 283800, Note Name: F4, Velocity: 72
Note ON: Time 283800, Note Name: G#4, Velocity: 72
Note OFF: Time 283920, Note Name: G#4
Note OFF: Time 283920, Note Name: F4
Note ON: Time 284400, Note Name: D#4, Velocity: 68
Note ON: Time 284400, Note Name: F#4, Velocity: 68
Note OFF: Time 284640, Note Name: F#4
Note OFF: Time 284640, Note Name: D#4
Note ON: Time 284640, Note Name: F4, Velocity: 72
Note ON: Time 284640, Note Name: G#4, Velocity: 72
Note OFF: Time 285120, Note Name: G#4
Note OFF: Time 285120, Note Name: F4
Note ON: Time 285120, Note Name: F#4, Velocity: 76
Note ON: Time 285120, Note Name: A#4, Velocity: 76
Note OFF: Time 285360, Note Name: A#4
Note OFF: Time 285360, Note Name: F#4
Note ON: Time 286080, Note Name: A#4, Velocity: 81
Note ON: Time 286080, Note Name: C#5, Velocity: 81
Note OFF: Time 286320, Note Name: C#5
Note OFF: Time 286320, Note Name: A#4
Note ON: Time 286560, Note Name: A#4, Velocity: 87
Note ON: Time 286560, Note Name: F#5, Velocity: 87
Note OFF: Time 288000, Note Name: F#5
Note OFF: Time 288000, Note Name: A#4
Note ON: Time 288000, Note Name: G#4, Velocity: 61
Note ON: Time 288000, Note Name: F5, Velocity: 61
Note OFF: Time 288240, Note Name: F5
Note OFF: Time 288240, Note Name: G#4
Note ON: Time 288720, Note Name: D#5, Velocity: 52
Note OFF: Time 288840, Note Name: D#5
Note ON: Time 288960, Note Name: F#4, Velocity: 56
Note ON: Time 288960, Note Name: D#5, Velocity: 56
Note OFF: Time 289440, Note Name: D#5
Note OFF: Time 289440, Note Name: F#4
Note ON: Time 289440, Note Name: G#4, Velocity: 60
Note ON: Time 289440, Note Name: F5, Velocity: 60
Note OFF: Time 289680, Note Name: F5
Note OFF: Time 289680, Note Name: G#4
Note ON: Time 290160, Note Name: D#5, Velocity: 53
Note OFF: Time 290280, Note Name: D#5
Note ON: Time 290400, Note Name: F#4, Velocity: 56
Note ON: Time 290400, Note Name: D#5, Velocity: 56
Note OFF: Time 290880, Note Name: D#5
Note OFF: Time 290880, Note Name: F#4
Note ON: Time 290880, Note Name: G#4, Velocity: 60
Note ON: Time 290880, Note Name: F5, Velocity: 60
Note OFF: Time 291120, Note Name: F5
Note OFF: Time 291120, Note Name: G#4
Note ON: Time 291600, Note Name: D#5, Velocity: 53
Note OFF: Time 291720, Note Name: D#5
Note ON: Time 291840, Note Name: F#4, Velocity: 57
Note ON: Time 291840, Note Name: D#5, Velocity: 57
Note OFF: Time 292320, Note Name: D#5
Note OFF: Time 292320, Note Name: F#4
Note ON: Time 292320, Note Name: E4, Velocity: 68
Note ON: Time 292320, Note Name: C5, Velocity: 68
Note OFF: Time 292560, Note Name: C5
Note OFF: Time 292560, Note Name: E4
Note ON: Time 293040, Note Name: C#5, Velocity: 57
Note OFF: Time 293160, Note Name: C#5
Note ON: Time 293280, Note Name: F4, Velocity: 62
Note ON: Time 293280, Note Name: C#5, Velocity: 62
Note OFF: Time 293760, Note Name: C#5
Note OFF: Time 293760, Note Name: F4
Note ON: Time 293760, Note Name: F5, Velocity: 86
Note ON: Time 293760, Note Name: G#5, Velocity: 86
Note OFF: Time 294000, Note Name: G#5
Note OFF: Time 294000, Note Name: F5
Note ON: Time 294480, Note Name: G#5, Velocity: 76
Note ON: Time 294480, Note Name: F5, Velocity: 76
Note OFF: Time 294600, Note Name: F5
Note OFF: Time 294600, Note Name: G#5
Note ON: Time 294720, Note Name: F5, Velocity: 80
Note ON: Time 294720, Note Name: G#5, Velocity: 80
Note OFF: Time 295200, Note Name: G#5
Note OFF: Time 295200, Note Name: F5
Note ON: Time 295200, Note Name: G#5, Velocity: 77
Note OFF: Time 295260, Note Name: G#5
Note ON: Time 295260, Note Name: A#5, Velocity: 78
Note OFF: Time 295320, Note Name: A#5
Note ON: Time 295320, Note Name: F5, Velocity: 86
Note ON: Time 295320, Note Name: G#5, Velocity: 86
Note OFF: Time 295440, Note Name: G#5
Note OFF: Time 295440, Note Name: F5
Note ON: Time 295920, Note Name: D#5, Velocity: 76
Note ON: Time 295920, Note Name: F#5, Velocity: 76
Note OFF: Time 296160, Note Name: F#5
Note OFF: Time 296160, Note Name: D#5
Note ON: Time 296160, Note Name: F5, Velocity: 80
Note ON: Time 296160, Note Name: G#5, Velocity: 80
Note OFF: Time 296640, Note Name: G#5
Note OFF: Time 296640, Note Name: F5
Note ON: Time 296640, Note Name: A#5, Velocity: 88
Note ON: Time 296640, Note Name: F#5, Velocity: 88
Note OFF: Time 296880, Note Name: F#5
Note OFF: Time 296880, Note Name: A#5
Note ON: Time 297600, Note Name: C#6, Velocity: 92
Note ON: Time 297600, Note Name: A#5, Velocity: 92
Note OFF: Time 297840, Note Name: A#5
Note OFF: Time 297840, Note Name: C#6
Note ON: Time 298080, Note Name: F#6, Velocity: 96
Note ON: Time 298080, Note Name: A#5, Velocity: 96
Note OFF: Time 299520, Note Name: A#5
Note OFF: Time 299520, Note Name: F#6
Note ON: Time 299520, Note Name: F6, Velocity: 59
Note ON: Time 299520, Note Name: G#5, Velocity: 59
Note OFF: Time 299760, Note Name: G#5
Note OFF: Time 299760, Note Name: F6
Note ON: Time 300240, Note Name: D#6, Velocity: 52
Note OFF: Time 300360, Note Name: D#6
Note ON: Time 300480, Note Name: F#5, Velocity: 56
Note ON: Time 300480, Note Name: D#6, Velocity: 56
Note OFF: Time 300960, Note Name: D#6
Note OFF: Time 300960, Note Name: F#5
Note ON: Time 300960, Note Name: F6, Velocity: 59
Note ON: Time 300960, Note Name: G#5, Velocity: 59
Note OFF: Time 301200, Note Name: G#5
Note OFF: Time 301200, Note Name: F6
Note ON: Time 301680, Note Name: D#6, Velocity: 52
Note OFF: Time 301800, Note Name: D#6
Note ON: Time 301920, Note Name: F#5, Velocity: 55
Note ON: Time 301920, Note Name: D#6, Velocity: 55
Note OFF: Time 302400, Note Name: D#6
Note OFF: Time 302400, Note Name: F#5
Note ON: Time 302400, Note Name: G#5, Velocity: 59
Note ON: Time 302400, Note Name: F6, Velocity: 59
Note OFF: Time 302640, Note Name: F6
Note OFF: Time 302640, Note Name: G#5
Note ON: Time 303120, Note Name: D#6, Velocity: 53
Note OFF: Time 303240, Note Name: D#6
Note ON: Time 303360, Note Name: F#5, Velocity: 55
Note ON: Time 303360, Note Name: D#6, Velocity: 55
Note OFF: Time 303840, Note Name: D#6
Note OFF: Time 303840, Note Name: F#5
Note ON: Time 303840, Note Name: C#6, Velocity: 59
Note ON: Time 303840, Note Name: F5, Velocity: 59
Note OFF: Time 304320, Note Name: F5
Note OFF: Time 304320, Note Name: C#6
Note ON: Time 304800, Note Name: F5, Velocity: 50
Note OFF: Time 305210, Note Name: F5
Note ON: Time 305220, Note Name: F5, Velocity: 45
Note OFF: Time 305280, Note Name: F5
Note ON: Time 305280, Note Name: F#5, Velocity: 52
Note OFF: Time 305520, Note Name: F#5
Note ON: Time 305700, Note Name: F#5, Velocity: 44
Note OFF: Time 305760, Note Name: F#5
Note ON: Time 305760, Note Name: E5, Velocity: 50
Note OFF: Time 306000, Note Name: E5
Note ON: Time 306180, Note Name: E5, Velocity: 43
Note OFF: Time 306240, Note Name: E5
Note ON: Time 306240, Note Name: F5, Velocity: 50
Note OFF: Time 306480, Note Name: F5
Note ON: Time 306660, Note Name: F5, Velocity: 46
Note OFF: Time 306720, Note Name: F5
Note ON: Time 306720, Note Name: F#5, Velocity: 53
Note OFF: Time 306960, Note Name: F#5
Note ON: Time 307140, Note Name: F#5, Velocity: 44
Note OFF: Time 307200, Note Name: F#5
Note ON: Time 307200, Note Name: E5, Velocity: 50
Note OFF: Time 307440, Note Name: E5
Note ON: Time 307620, Note Name: E5, Velocity: 45
Note OFF: Time 307680, Note Name: E5
Note ON: Time 307680, Note Name: F5, Velocity: 50
Note OFF: Time 307920, Note Name: F5
Note ON: Time 308100, Note Name: F5, Velocity: 50
Note OFF: Time 308160, Note Name: F5
Note ON: Time 308160, Note Name: C#6, Velocity: 57
Note OFF: Time 308400, Note Name: C#6
Note ON: Time 308580, Note Name: C#6, Velocity: 50
Note OFF: Time 308640, Note Name: C#6
Note ON: Time 308640, Note Name: C6, Velocity: 59
Note OFF: Time 308880, Note Name: C6
Note ON: Time 309060, Note Name: C6, Velocity: 56
Note OFF: Time 309120, Note Name: C6
Note ON: Time 309120, Note Name: B5, Velocity: 66
Note OFF: Time 309360, Note Name: B5
Note ON: Time 309540, Note Name: B5, Velocity: 64
Note OFF: Time 309600, Note Name: B5
Note ON: Time 309600, Note Name: A#5, Velocity: 75
Note OFF: Time 309840, Note Name: A#5
Note ON: Time 310020, Note Name: A#5, Velocity: 63
Note OFF: Time 310080, Note Name: A#5
Note ON: Time 310080, Note Name: A5, Velocity: 73
Note OFF: Time 310320, Note Name: A5
Note ON: Time 310500, Note Name: A5, Velocity: 63
Note OFF: Time 310560, Note Name: A5
Note ON: Time 310560, Note Name: G#5, Velocity: 70
Note OFF: Time 310800, Note Name: G#5
Note ON: Time 310980, Note Name: G#5, Velocity: 58
Note OFF: Time 311040, Note Name: G#5
Note ON: Time 311040, Note Name: G5, Velocity: 67
Note OFF: Time 311280, Note Name: G5
Note ON: Time 311460, Note Name: G5, Velocity: 54
Note OFF: Time 311520, Note Name: G5
Note ON: Time 311520, Note Name: F#5, Velocity: 65
Note OFF: Time 311760, Note Name: F#5
Note ON: Time 311940, Note Name: F#5, Velocity: 51
Note OFF: Time 312000, Note Name: F#5
Note ON: Time 312000, Note Name: F5, Velocity: 63
Note OFF: Time 312240, Note Name: F5
Note ON: Time 312420, Note Name: F5, Velocity: 49
Note OFF: Time 312480, Note Name: F5
Note ON: Time 312480, Note Name: E5, Velocity: 60
Note OFF: Time 312720, Note Name: E5
Note ON: Time 312900, Note Name: E5, Velocity: 46
Note OFF: Time 312960, Note Name: E5
Note ON: Time 312960, Note Name: D#5, Velocity: 58
Note OFF: Time 313200, Note Name: D#5
Note ON: Time 313380, Note Name: D#5, Velocity: 44
Note OFF: Time 313440, Note Name: D#5
Note ON: Time 313440, Note Name: C5, Velocity: 54
Note OFF: Time 313680, Note Name: C5
Note ON: Time 313860, Note Name: C5, Velocity: 44
Note OFF: Time 313920, Note Name: C5
Note ON: Time 313920, Note Name: C#5, Velocity: 52
Note OFF: Time 314160, Note Name: C#5
Note ON: Time 314340, Note Name: C#5, Velocity: 38
Note OFF: Time 314400, Note Name: C#5
Note ON: Time 314400, Note Name: A4, Velocity: 50
Note OFF: Time 314640, Note Name: A4
Note ON: Time 314820, Note Name: A4, Velocity: 39
Note OFF: Time 314880, Note Name: A4
Note ON: Time 314880, Note Name: A#4, Velocity: 50
Note OFF: Time 315120, Note Name: A#4
Note ON: Time 315300, Note Name: A#4, Velocity: 39
Note OFF: Time 315360, Note Name: A#4
Note ON: Time 315360, Note Name: C#5, Velocity: 50
Note OFF: Time 315600, Note Name: C#5
Note ON: Time 315780, Note Name: C#5, Velocity: 39
Note OFF: Time 315840, Note Name: C#5
Note ON: Time 315840, Note Name: D#5, Velocity: 50
Note OFF: Time 316080, Note Name: D#5
Note ON: Time 316260, Note Name: D#5, Velocity: 37
Note OFF: Time 316320, Note Name: D#5
Note ON: Time 316320, Note Name: E5, Velocity: 51
Note OFF: Time 316560, Note Name: E5
Note ON: Time 316740, Note Name: E5, Velocity: 40
Note OFF: Time 316800, Note Name: E5
Note ON: Time 316800, Note Name: F#5, Velocity: 54
Note OFF: Time 317040, Note Name: F#5
Note ON: Time 317220, Note Name: F#5, Velocity: 44
Note OFF: Time 317280, Note Name: F#5
Note ON: Time 317280, Note Name: E5, Velocity: 55
Note OFF: Time 317520, Note Name: E5
Note ON: Time 317700, Note Name: E5, Velocity: 44
Note OFF: Time 317760, Note Name: E5
Note ON: Time 317760, Note Name: F5, Velocity: 58
Note OFF: Time 318000, Note Name: F5
Note ON: Time 318180, Note Name: F5, Velocity: 49
Note OFF: Time 318240, Note Name: F5
Note ON: Time 318240, Note Name: F#5, Velocity: 62
Note OFF: Time 318480, Note Name: F#5
Note ON: Time 318660, Note Name: F#5, Velocity: 51
Note OFF: Time 318720, Note Name: F#5
Note ON: Time 318720, Note Name: E5, Velocity: 68
Note OFF: Time 318960, Note Name: E5
Note ON: Time 319140, Note Name: E5, Velocity: 54
Note OFF: Time 319200, Note Name: E5
Note ON: Time 319200, Note Name: F5, Velocity: 73
Note OFF: Time 319440, Note Name: F5
Note ON: Time 319620, Note Name: F5, Velocity: 71
Note OFF: Time 319680, Note Name: F5
Note ON: Time 319680, Note Name: F6, Velocity: 83
Note OFF: Time 319920, Note Name: F6
Note ON: Time 320100, Note Name: F6, Velocity: 68
Note OFF: Time 320160, Note Name: F6
Note ON: Time 320160, Note Name: C#6, Velocity: 80
Note OFF: Time 320400, Note Name: C#6
Note ON: Time 320580, Note Name: C#6, Velocity: 63
Note OFF: Time 320640, Note Name: C#6
Note ON: Time 320640, Note Name: A#5, Velocity: 76
Note OFF: Time 320880, Note Name: A#5
Note ON: Time 321060, Note Name: A#5, Velocity: 57
Note OFF: Time 321120, Note Name: A#5
Note ON: Time 321120, Note Name: F#5, Velocity: 71
Note OFF: Time 321360, Note Name: F#5
Note ON: Time 321540, Note Name: F#5, Velocity: 52
Note OFF: Time 321600, Note Name: F#5
Note ON: Time 321600, Note Name: D#5, Velocity: 66
Note OFF: Time 321840, Note Name: D#5
Note ON: Time 322020, Note Name: D#5, Velocity: 44
Note OFF: Time 322080, Note Name: D#5
Note ON: Time 322080, Note Name: C5, Velocity: 57
Note OFF: Time 322320, Note Name: C5
Note ON: Time 322500, Note Name: F#5, Velocity: 41
Note OFF: Time 322560, Note Name: F#5
Note ON: Time 322560, Note Name: F5, Velocity: 55
Note OFF: Time 322800, Note Name: F5
Note ON: Time 322980, Note Name: F5, Velocity: 42
Note OFF: Time 323040, Note Name: F5
Note ON: Time 323040, Note Name: E5, Velocity: 53
Note OFF: Time 323280, Note Name: E5
Note ON: Time 323460, Note Name: E5, Velocity: 42
Note OFF: Time 323520, Note Name: E5
Note ON: Time 323520, Note Name: D#5, Velocity: 55
Note OFF: Time 323760, Note Name: D#5
Note ON: Time 323940, Note Name: D#5, Velocity: 43
Note OFF: Time 324000, Note Name: D#5
Note ON: Time 324000, Note Name: D5, Velocity: 56
Note OFF: Time 324240, Note Name: D5
Note ON: Time 324420, Note Name: D5, Velocity: 44
Note OFF: Time 324480, Note Name: D5
Note ON: Time 324480, Note Name: C#5, Velocity: 58
Note OFF: Time 324720, Note Name: C#5
Note ON: Time 324900, Note Name: C#5, Velocity: 46
Note OFF: Time 324960, Note Name: C#5
Note ON: Time 324960, Note Name: C5, Velocity: 60
Note OFF: Time 325200, Note Name: C5
Note ON: Time 325380, Note Name: C5, Velocity: 46
Note OFF: Time 325440, Note Name: C5
Note ON: Time 325440, Note Name: B4, Velocity: 62
Note OFF: Time 325680, Note Name: B4
Note ON: Time 325860, Note Name: B4, Velocity: 49
Note OFF: Time 325920, Note Name: B4
Note ON: Time 325920, Note Name: A#4, Velocity: 64
Note OFF: Time 326160, Note Name: A#4
Note ON: Time 326340, Note Name: A#4, Velocity: 48
Note OFF: Time 326400, Note Name: A#4
Note ON: Time 326400, Note Name: A4, Velocity: 66
Note OFF: Time 326640, Note Name: A4
Note ON: Time 326820, Note Name: A4, Velocity: 47
Note OFF: Time 326880, Note Name: A4
Note ON: Time 326880, Note Name: G#4, Velocity: 67
Note OFF: Time 327120, Note Name: G#4
Note ON: Time 327300, Note Name: G#4, Velocity: 51
Note OFF: Time 327360, Note Name: G#4
Note ON: Time 327360, Note Name: G4, Velocity: 69
Note OFF: Time 327600, Note Name: G4
Note ON: Time 327780, Note Name: G4, Velocity: 55
Note OFF: Time 327840, Note Name: G4
Note ON: Time 327840, Note Name: F#4, Velocity: 71
Note OFF: Time 328080, Note Name: F#4
Note ON: Time 328320, Note Name: F4, Velocity: 72
Note ON: Time 328320, Note Name: G#4, Velocity: 72
Note OFF: Time 328560, Note Name: G#4
Note OFF: Time 328560, Note Name: F4
Note ON: Time 329280, Note Name: F4, Velocity: 69
Note ON: Time 329280, Note Name: G#4, Velocity: 69
Note OFF: Time 329760, Note Name: G#4
Note OFF: Time 329760, Note Name: F4
Note ON: Time 329760, Note Name: G#4, Velocity: 66
Note OFF: Time 329820, Note Name: G#4
Note ON: Time 329820, Note Name: A#4, Velocity: 66
Note OFF: Time 329880, Note Name: A#4
Note ON: Time 329880, Note Name: F4, Velocity: 72
Note ON: Time 329880, Note Name: G#4, Velocity: 72
Note OFF: Time 330000, Note Name: G#4
Note OFF: Time 330000, Note Name: F4
Note ON: Time 330480, Note Name: D#4, Velocity: 68
Note ON: Time 330480, Note Name: F#4, Velocity: 68
Note OFF: Time 330720, Note Name: F#4
Note OFF: Time 330720, Note Name: D#4
Note ON: Time 330720, Note Name: F4, Velocity: 72
Note ON: Time 330720, Note Name: G#4, Velocity: 72
Note OFF: Time 331200, Note Name: G#4
Note OFF: Time 331200, Note Name: F4
Note ON: Time 331200, Note Name: F#4, Velocity: 76
Note ON: Time 331200, Note Name: A#4, Velocity: 76
Note OFF: Time 331440, Note Name: A#4
Note OFF: Time 331440, Note Name: F#4
Note ON: Time 332160, Note Name: A#4, Velocity: 81
Note ON: Time 332160, Note Name: C#5, Velocity: 81
Note OFF: Time 332400, Note Name: C#5
Note OFF: Time 332400, Note Name: A#4
Note ON: Time 332640, Note Name: A#4, Velocity: 87
Note ON: Time 332640, Note Name: F#5, Velocity: 87
Note OFF: Time 334080, Note Name: F#5
Note OFF: Time 334080, Note Name: A#4
Note ON: Time 334080, Note Name: G#4, Velocity: 61
Note ON: Time 334080, Note Name: F5, Velocity: 61
Note OFF: Time 334320, Note Name: F5
Note OFF: Time 334320, Note Name: G#4
Note ON: Time 334800, Note Name: D#5, Velocity: 54
Note OFF: Time 334920, Note Name: D#5
Note ON: Time 335040, Note Name: F#4, Velocity: 56
Note ON: Time 335040, Note Name: D#5, Velocity: 56
Note OFF: Time 335520, Note Name: D#5
Note OFF: Time 335520, Note Name: F#4
Note ON: Time 335520, Note Name: G#4, Velocity: 60
Note ON: Time 335520, Note Name: F5, Velocity: 60
Note OFF: Time 335760, Note Name: F5
Note OFF: Time 335760, Note Name: G#4
Note ON: Time 336240, Note Name: D#5, Velocity: 54
Note OFF: Time 336360, Note Name: D#5
Note ON: Time 336480, Note Name: F#4, Velocity: 56
Note ON: Time 336480, Note Name: D#5, Velocity: 56
Note OFF: Time 336960, Note Name: D#5
Note OFF: Time 336960, Note Name: F#4
Note ON: Time 336960, Note Name: G#4, Velocity: 60
Note ON: Time 336960, Note Name: F5, Velocity: 60
Note OFF: Time 337200, Note Name: F5
Note OFF: Time 337200, Note Name: G#4
Note ON: Time 337680, Note Name: D#5, Velocity: 55
Note OFF: Time 337800, Note Name: D#5
Note ON: Time 337920, Note Name: F#4, Velocity: 57
Note ON: Time 337920, Note Name: D#5, Velocity: 57
Note OFF: Time 338400, Note Name: D#5
Note OFF: Time 338400, Note Name: F#4
Note ON: Time 338400, Note Name: E4, Velocity: 68
Note ON: Time 338400, Note Name: C5, Velocity: 68
Note OFF: Time 338640, Note Name: C5
Note OFF: Time 338640, Note Name: E4
Note ON: Time 339120, Note Name: C#5, Velocity: 57
Note OFF: Time 339240, Note Name: C#5
Note ON: Time 339360, Note Name: F4, Velocity: 62
Note ON: Time 339360, Note Name: C#5, Velocity: 62
Note OFF: Time 339840, Note Name: C#5
Note OFF: Time 339840, Note Name: F4
Note ON: Time 339840, Note Name: F5, Velocity: 86
Note ON: Time 339840, Note Name: G#5, Velocity: 86
Note OFF: Time 340080, Note Name: G#5
Note OFF: Time 340080, Note Name: F5
Note ON: Time 340560, Note Name: G#5, Velocity: 77
Note ON: Time 340560, Note Name: F5, Velocity: 77
Note OFF: Time 340680, Note Name: F5
Note OFF: Time 340680, Note Name: G#5
Note ON: Time 340800, Note Name: F5, Velocity: 80
Note ON: Time 340800, Note Name: G#5, Velocity: 80
Note OFF: Time 341280, Note Name: G#5
Note OFF: Time 341280, Note Name: F5
Note ON: Time 341280, Note Name: G#5, Velocity: 77
Note OFF: Time 341340, Note Name: G#5
Note ON: Time 341340, Note Name: A#5, Velocity: 78
Note OFF: Time 341400, Note Name: A#5
Note ON: Time 341400, Note Name: F5, Velocity: 86
Note ON: Time 341400, Note Name: G#5, Velocity: 86
Note OFF: Time 341520, Note Name: G#5
Note OFF: Time 341520, Note Name: F5
Note ON: Time 342000, Note Name: D#5, Velocity: 77
Note ON: Time 342000, Note Name: F#5, Velocity: 77
Note OFF: Time 342240, Note Name: F#5
Note OFF: Time 342240, Note Name: D#5
Note ON: Time 342240, Note Name: F5, Velocity: 80
Note ON: Time 342240, Note Name: G#5, Velocity: 80
Note OFF: Time 342720, Note Name: G#5
Note OFF: Time 342720, Note Name: F5
Note ON: Time 342720, Note Name: A#5, Velocity: 88
Note ON: Time 342720, Note Name: F#5, Velocity: 88
Note OFF: Time 342960, Note Name: F#5
Note OFF: Time 342960, Note Name: A#5
Note ON: Time 343680, Note Name: C#6, Velocity: 92
Note ON: Time 343680, Note Name: A#5, Velocity: 92
Note OFF: Time 343920, Note Name: A#5
Note OFF: Time 343920, Note Name: C#6
Note ON: Time 344160, Note Name: F#6, Velocity: 95
Note ON: Time 344160, Note Name: A#5, Velocity: 95
Note OFF: Time 345600, Note Name: A#5
Note OFF: Time 345600, Note Name: F#6
Note ON: Time 345600, Note Name: F6, Velocity: 59
Note ON: Time 345600, Note Name: G#5, Velocity: 59
Note OFF: Time 345840, Note Name: G#5
Note OFF: Time 345840, Note Name: F6
Note ON: Time 346320, Note Name: D#6, Velocity: 53
Note OFF: Time 346440, Note Name: D#6
Note ON: Time 346560, Note Name: F#5, Velocity: 56
Note ON: Time 346560, Note Name: D#6, Velocity: 56
Note OFF: Time 347040, Note Name: D#6
Note OFF: Time 347040, Note Name: F#5
Note ON: Time 347040, Note Name: F6, Velocity: 59
Note ON: Time 347040, Note Name: G#5, Velocity: 59
Note OFF: Time 347280, Note Name: G#5
Note OFF: Time 347280, Note Name: F6
Note ON: Time 347760, Note Name: D#6, Velocity: 52
Note OFF: Time 347880, Note Name: D#6
Note ON: Time 348000, Note Name: F#5, Velocity: 55
Note ON: Time 348000, Note Name: D#6, Velocity: 55
Note OFF: Time 348480, Note Name: D#6
Note OFF: Time 348480, Note Name: F#5
Note ON: Time 348480, Note Name: G#5, Velocity: 59
Note ON: Time 348480, Note Name: F6, Velocity: 59
Note OFF: Time 348720, Note Name: F6
Note OFF: Time 348720, Note Name: G#5
Note ON: Time 349200, Note Name: D#6, Velocity: 52
Note OFF: Time 349320, Note Name: D#6
Note ON: Time 349440, Note Name: F#5, Velocity: 55
Note ON: Time 349440, Note Name: D#6, Velocity: 55
Note OFF: Time 349920, Note Name: D#6
Note OFF: Time 349920, Note Name: F#5
Note ON: Time 349920, Note Name: C#6, Velocity: 59
Note ON: Time 349920, Note Name: F5, Velocity: 59
Note OFF: Time 350400, Note Name: F5
Note OFF: Time 350400, Note Name: C#6
Note ON: Time 350880, Note Name: C#5, Velocity: 51
Note OFF: Time 351120, Note Name: C#5
Note ON: Time 351120, Note Name: C#5, Velocity: 51
Note OFF: Time 351360, Note Name: C#5
Note ON: Time 351360, Note Name: C#5, Velocity: 54
Note OFF: Time 351600, Note Name: C#5
Note ON: Time 351600, Note Name: D#5, Velocity: 55
Note OFF: Time 351840, Note Name: D#5
Note ON: Time 351840, Note Name: C#5, Velocity: 54
Note OFF: Time 352080, Note Name: C#5
Note ON: Time 352080, Note Name: C5, Velocity: 48
Note OFF: Time 352320, Note Name: C5
Note ON: Time 352320, Note Name: C#5, Velocity: 49
Note OFF: Time 352560, Note Name: C#5
Note ON: Time 352560, Note Name: D5, Velocity: 51
Note OFF: Time 352800, Note Name: D5
Note ON: Time 352800, Note Name: F5, Velocity: 53
Note OFF: Time 353760, Note Name: F5
Note ON: Time 353760, Note Name: D#5, Velocity: 50
Note OFF: Time 354240, Note Name: D#5
Note ON: Time 354240, Note Name: G#4, Velocity: 50
Note OFF: Time 354480, Note Name: G#4
Note ON: Time 354480, Note Name: A#4, Velocity: 50
Note OFF: Time 354720, Note Name: A#4
Note ON: Time 354720, Note Name: G#4, Velocity: 50
Note OFF: Time 354960, Note Name: G#4
Note ON: Time 354960, Note Name: G4, Velocity: 50
Note OFF: Time 355200, Note Name: G4
Note ON: Time 355200, Note Name: G#4, Velocity: 50
Note OFF: Time 355440, Note Name: G#4
Note ON: Time 355440, Note Name: A4, Velocity: 50
Note OFF: Time 355680, Note Name: A4
Note ON: Time 355680, Note Name: A#4, Velocity: 61
Note OFF: Time 356160, Note Name: A#4
Note ON: Time 356160, Note Name: F#4, Velocity: 50
Note OFF: Time 356280, Note Name: F#4
Note ON: Time 356400, Note Name: A#4, Velocity: 51
Note OFF: Time 356640, Note Name: A#4
Note ON: Time 356640, Note Name: B4, Velocity: 54
Note OFF: Time 356880, Note Name: B4
Note ON: Time 356880, Note Name: C5, Velocity: 56
Note OFF: Time 357120, Note Name: C5
Note ON: Time 357120, Note Name: C#5, Velocity: 50
Note OFF: Time 357180, Note Name: C#5
Note ON: Time 357180, Note Name: D#5, Velocity: 50
Note OFF: Time 357240, Note Name: D#5
Note ON: Time 357240, Note Name: C#5, Velocity: 50
Note OFF: Time 357360, Note Name: C#5
Note ON: Time 357360, Note Name: C5, Velocity: 55
Note OFF: Time 357600, Note Name: C5
Note ON: Time 357600, Note Name: C#5, Velocity: 57
Note OFF: Time 357840, Note Name: C#5
Note ON: Time 357840, Note Name: A#5, Velocity: 58
Note OFF: Time 358080, Note Name: A#5
Note ON: Time 358080, Note Name: G#5, Velocity: 60
Note OFF: Time 358320, Note Name: G#5
Note ON: Time 358320, Note Name: F#5, Velocity: 62
Note OFF: Time 358560, Note Name: F#5
Note ON: Time 358560, Note Name: F5, Velocity: 64
Note OFF: Time 359520, Note Name: F5
Note ON: Time 359520, Note Name: D#5, Velocity: 56
Note OFF: Time 360000, Note Name: D#5
Note ON: Time 360000, Note Name: G#4, Velocity: 52
Note OFF: Time 360160, Note Name: G#4
Note ON: Time 360160, Note Name: A#4, Velocity: 50
Note OFF: Time 360320, Note Name: A#4
Note ON: Time 360320, Note Name: G#4, Velocity: 50
Note OFF: Time 360480, Note Name: G#4
Note ON: Time 360480, Note Name: G4, Velocity: 52
Note OFF: Time 360720, Note Name: G4
Note ON: Time 360720, Note Name: G#4, Velocity: 50
Note OFF: Time 360960, Note Name: G#4
Note ON: Time 360960, Note Name: B4, Velocity: 56
Note OFF: Time 361200, Note Name: B4
Note ON: Time 361200, Note Name: A#4, Velocity: 50
Note OFF: Time 361440, Note Name: A#4
Note ON: Time 361440, Note Name: F#4, Velocity: 50
Note OFF: Time 361560, Note Name: F#4
Note ON: Time 361680, Note Name: C4, Velocity: 42
Note OFF: Time 361920, Note Name: C4
Note ON: Time 361920, Note Name: C#4, Velocity: 43
Note OFF: Time 362160, Note Name: C#4
Note ON: Time 362160, Note Name: F4, Velocity: 45
Note OFF: Time 362400, Note Name: F4
Note ON: Time 362400, Note Name: F#4, Velocity: 47
Note OFF: Time 362640, Note Name: F#4
Note ON: Time 362640, Note Name: A#4, Velocity: 48
Note OFF: Time 362880, Note Name: A#4
Note ON: Time 362880, Note Name: C#5, Velocity: 50
Note OFF: Time 363120, Note Name: C#5
Note ON: Time 363120, Note Name: D#5, Velocity: 51
Note OFF: Time 363360, Note Name: D#5
Note ON: Time 363360, Note Name: C#5, Velocity: 53
Note OFF: Time 363600, Note Name: C#5
Note ON: Time 363600, Note Name: C5, Velocity: 55
Note OFF: Time 363840, Note Name: C5
Note ON: Time 363840, Note Name: C#5, Velocity: 56
Note OFF: Time 364080, Note Name: C#5
Note ON: Time 364080, Note Name: D5, Velocity: 58
Note OFF: Time 364260, Note Name: D5
Note ON: Time 364260, Note Name: D5, Velocity: 54
Note OFF: Time 364320, Note Name: D5
Note ON: Time 364320, Note Name: F5, Velocity: 67
Note OFF: Time 365280, Note Name: F5
Note ON: Time 365280, Note Name: D#5, Velocity: 59
Note OFF: Time 365760, Note Name: D#5
Note ON: Time 365760, Note Name: G#4, Velocity: 50
Note OFF: Time 366000, Note Name: G#4
Note ON: Time 366000, Note Name: A#4, Velocity: 50
Note OFF: Time 366240, Note Name: A#4
Note ON: Time 366240, Note Name: G#4, Velocity: 41
Note OFF: Time 366300, Note Name: G#4
Note ON: Time 366300, Note Name: A#4, Velocity: 41
Note OFF: Time 366360, Note Name: A#4
Note ON: Time 366360, Note Name: G#4, Velocity: 49
Note OFF: Time 366480, Note Name: G#4
Note ON: Time 366480, Note Name: G4, Velocity: 50
Note OFF: Time 366720, Note Name: G4
Note ON: Time 366720, Note Name: G#4, Velocity: 52
Note OFF: Time 366960, Note Name: G#4
Note ON: Time 366960, Note Name: A4, Velocity: 55
Note OFF: Time 367200, Note Name: A4
Note ON: Time 367200, Note Name: A#4, Velocity: 64
Note OFF: Time 367680, Note Name: A#4
Note ON: Time 367680, Note Name: F#4, Velocity: 54
Note OFF: Time 367800, Note Name: F#4
Note ON: Time 367920, Note Name: A#4, Velocity: 53
Note OFF: Time 368160, Note Name: A#4
Note ON: Time 368160, Note Name: B4, Velocity: 55
Note OFF: Time 368400, Note Name: B4
Note ON: Time 368400, Note Name: C5, Velocity: 57
Note OFF: Time 368640, Note Name: C5
Note ON: Time 368640, Note Name: C#5, Velocity: 50
Note OFF: Time 368700, Note Name: C#5
Note ON: Time 368700, Note Name: D#5, Velocity: 50
Note OFF: Time 368760, Note Name: D#5
Note ON: Time 368760, Note Name: C#5, Velocity: 59
Note OFF: Time 368880, Note Name: C#5
Note ON: Time 368880, Note Name: C5, Velocity: 57
Note OFF: Time 369120, Note Name: C5
Note ON: Time 369120, Note Name: C#5, Velocity: 58
Note OFF: Time 369280, Note Name: C#5
Note ON: Time 369280, Note Name: B5, Velocity: 67
Note OFF: Time 369440, Note Name: B5
Note ON: Time 369440, Note Name: A#5, Velocity: 65
Note OFF: Time 369600, Note Name: A#5
Note ON: Time 369600, Note Name: A#5, Velocity: 63
Note OFF: Time 369760, Note Name: A#5
Note ON: Time 369760, Note Name: G#5, Velocity: 61
Note OFF: Time 369920, Note Name: G#5
Note ON: Time 369920, Note Name: F#5, Velocity: 59
Note OFF: Time 370080, Note Name: F#5
Note ON: Time 370080, Note Name: F5, Velocity: 57
Note OFF: Time 371040, Note Name: F5
Note ON: Time 371040, Note Name: D#5, Velocity: 55
Note OFF: Time 371520, Note Name: D#5
Note ON: Time 371520, Note Name: G#4, Velocity: 46
Note OFF: Time 371680, Note Name: G#4
Note ON: Time 371680, Note Name: A#4, Velocity: 46
Note OFF: Time 371840, Note Name: A#4
Note ON: Time 371840, Note Name: G#4, Velocity: 46
Note OFF: Time 372000, Note Name: G#4
Note ON: Time 372000, Note Name: G4, Velocity: 46
Note OFF: Time 372240, Note Name: G4
Note ON: Time 372240, Note Name: G#4, Velocity: 47
Note OFF: Time 372480, Note Name: G#4
Note ON: Time 372480, Note Name: B4, Velocity: 49
Note OFF: Time 372720, Note Name: B4
Note ON: Time 372720, Note Name: A#4, Velocity: 45
Note OFF: Time 372960, Note Name: A#4
Note ON: Time 372960, Note Name: F#4, Velocity: 39
Note OFF: Time 373200, Note Name: F#4
Note ON: Time 373920, Note Name: A#4, Velocity: 39
Note OFF: Time 374040, Note Name: A#4
Note ON: Time 374160, Note Name: A#4, Velocity: 39
Note OFF: Time 374280, Note Name: A#4
Note ON: Time 374400, Note Name: A#4, Velocity: 39
Note OFF: Time 374640, Note Name: A#4
Note ON: Time 375360, Note Name: A#4, Velocity: 39
Note OFF: Time 375480, Note Name: A#4
Note ON: Time 375600, Note Name: A#4, Velocity: 39
Note OFF: Time 375720, Note Name: A#4
Note ON: Time 375840, Note Name: A#4, Velocity: 39
Note OFF: Time 376080, Note Name: A#4
Note ON: Time 376800, Note Name: A#4, Velocity: 39
Note OFF: Time 376920, Note Name: A#4
Note ON: Time 377040, Note Name: A#4, Velocity: 39
Note OFF: Time 377160, Note Name: A#4
Note ON: Time 377280, Note Name: A#4, Velocity: 39
Note OFF: Time 377520, Note Name: A#4
Note ON: Time 377760, Note Name: A#4, Velocity: 94
Note ON: Time 377760, Note Name: A#5, Velocity: 94
Note OFF: Time 377880, Note Name: A#5
Note OFF: Time 377880, Note Name: A#4
Note ON: Time 378000, Note Name: A#4, Velocity: 91
Note ON: Time 378000, Note Name: A#5, Velocity: 91
Note OFF: Time 378120, Note Name: A#5
Note OFF: Time 378120, Note Name: A#4
Note ON: Time 378240, Note Name: A#4, Velocity: 95
Note ON: Time 378240, Note Name: A#5, Velocity: 95
Note OFF: Time 378480, Note Name: A#5
Note OFF: Time 378480, Note Name: A#4
Note ON: Time 378720, Note Name: A#4, Velocity: 95
Note ON: Time 378720, Note Name: A#5, Velocity: 95
Note OFF: Time 378840, Note Name: A#5
Note OFF: Time 378840, Note Name: A#4
Note ON: Time 378960, Note Name: A#4, Velocity: 91
Note ON: Time 378960, Note Name: A#5, Velocity: 91
Note OFF: Time 379080, Note Name: A#5
Note OFF: Time 379080, Note Name: A#4
Note ON: Time 379200, Note Name: A#4, Velocity: 95
Note ON: Time 379200, Note Name: A#5, Velocity: 95
Note OFF: Time 379440, Note Name: A#5
Note OFF: Time 379440, Note Name: A#4
Note ON: Time 379680, Note Name: A#4, Velocity: 95
Note ON: Time 379680, Note Name: A#5, Velocity: 95
Note OFF: Time 379800, Note Name: A#5
Note OFF: Time 379800, Note Name: A#4
Note ON: Time 379920, Note Name: A#4, Velocity: 91
Note ON: Time 379920, Note Name: A#5, Velocity: 91
Note OFF: Time 380040, Note Name: A#5
Note OFF: Time 380040, Note Name: A#4
Note ON: Time 380160, Note Name: A#4, Velocity: 95
Note ON: Time 380160, Note Name: A#5, Velocity: 95
Note OFF: Time 380400, Note Name: A#5
Note OFF: Time 380400, Note Name: A#4
Note ON: Time 381120, Note Name: A#3, Velocity: 39
Note ON: Time 381120, Note Name: F4, Velocity: 39
Note ON: Time 381120, Note Name: A#4, Velocity: 39
Note OFF: Time 381240, Note Name: A#4
Note OFF: Time 381240, Note Name: F4
Note OFF: Time 381240, Note Name: A#3
Note ON: Time 381360, Note Name: A#3, Velocity: 39
Note ON: Time 381360, Note Name: A#4, Velocity: 39
Note OFF: Time 381480, Note Name: A#4
Note OFF: Time 381480, Note Name: A#3
Note ON: Time 381600, Note Name: A#3, Velocity: 39
Note ON: Time 381600, Note Name: E4, Velocity: 39
Note ON: Time 381600, Note Name: A#4, Velocity: 39
Note OFF: Time 381840, Note Name: A#4
Note OFF: Time 381840, Note Name: E4
Note OFF: Time 381840, Note Name: A#3
Note ON: Time 382560, Note Name: A#3, Velocity: 39
Note ON: Time 382560, Note Name: D#4, Velocity: 39
Note ON: Time 382560, Note Name: A#4, Velocity: 39
Note OFF: Time 382680, Note Name: A#4
Note OFF: Time 382680, Note Name: D#4
Note OFF: Time 382680, Note Name: A#3
Note ON: Time 382800, Note Name: A#3, Velocity: 39
Note ON: Time 382800, Note Name: A#4, Velocity: 39
Note OFF: Time 382920, Note Name: A#4
Note OFF: Time 382920, Note Name: A#3
Note ON: Time 383040, Note Name: A#3, Velocity: 39
Note ON: Time 383040, Note Name: D4, Velocity: 39
Note ON: Time 383040, Note Name: A#4, Velocity: 39
Note OFF: Time 383280, Note Name: A#4
Note OFF: Time 383280, Note Name: D4
Note OFF: Time 383280, Note Name: A#3
Note ON: Time 383520, Note Name: A#3, Velocity: 43
Note ON: Time 383520, Note Name: A#4, Velocity: 43
Note OFF: Time 383640, Note Name: A#4
Note OFF: Time 383640, Note Name: A#3
Note ON: Time 383760, Note Name: A#3, Velocity: 47
Note ON: Time 383760, Note Name: A#4, Velocity: 47
Note OFF: Time 383880, Note Name: A#4
Note OFF: Time 383880, Note Name: A#3
Note ON: Time 384000, Note Name: A#3, Velocity: 52
Note ON: Time 384000, Note Name: A#4, Velocity: 52
Note OFF: Time 384480, Note Name: A#4
Note OFF: Time 384480, Note Name: A#3
Note ON: Time 384480, Note Name: A#3, Velocity: 55
Note ON: Time 384480, Note Name: A#4, Velocity: 55
Note OFF: Time 384600, Note Name: A#4
Note OFF: Time 384600, Note Name: A#3
Note ON: Time 384720, Note Name: A#3, Velocity: 57
Note ON: Time 384720, Note Name: A#4, Velocity: 57
Note OFF: Time 384840, Note Name: A#4
Note OFF: Time 384840, Note Name: A#3
Note ON: Time 384960, Note Name: A#3, Velocity: 66
Note ON: Time 384960, Note Name: A#4, Velocity: 66
Note OFF: Time 385440, Note Name: A#4
Note OFF: Time 385440, Note Name: A#3
Note ON: Time 385440, Note Name: A#3, Velocity: 72
Note ON: Time 385440, Note Name: A#4, Velocity: 72
Note OFF: Time 385560, Note Name: A#4
Note OFF: Time 385560, Note Name: A#3
Note ON: Time 385680, Note Name: A#3, Velocity: 67
Note ON: Time 385680, Note Name: A#4, Velocity: 67
Note OFF: Time 385800, Note Name: A#4
Note OFF: Time 385800, Note Name: A#3
Note ON: Time 385920, Note Name: A#3, Velocity: 97
Note ON: Time 385920, Note Name: A#4, Velocity: 97
Note OFF: Time 386160, Note Name: A#4
Note OFF: Time 386160, Note Name: A#3
Note ON: Time 386400, Note Name: D5, Velocity: 56
Note ON: Time 386640, Note Name: D#5, Velocity: 51
Note OFF: Time 386660, Note Name: D5
Note ON: Time 386880, Note Name: D5, Velocity: 64
Note ON: Time 386880, Note Name: F5, Velocity: 64
Note OFF: Time 386900, Note Name: D#5
Note OFF: Time 387240, Note Name: F5
Note OFF: Time 387240, Note Name: D5
Note ON: Time 387360, Note Name: A#4, Velocity: 96
Note OFF: Time 387600, Note Name: A#4
Note ON: Time 387840, Note Name: D#5, Velocity: 59
Note ON: Time 388080, Note Name: F5, Velocity: 55
Note OFF: Time 388100, Note Name: D#5
Note ON: Time 388320, Note Name: D#5, Velocity: 67
Note ON: Time 388320, Note Name: G5, Velocity: 67
Note OFF: Time 388340, Note Name: F5
Note OFF: Time 388680, Note Name: G5
Note OFF: Time 388680, Note Name: D#5
Note ON: Time 388800, Note Name: A#4, Velocity: 97
Note OFF: Time 389040, Note Name: A#4
Note ON: Time 389280, Note Name: F5, Velocity: 67
Note ON: Time 389520, Note Name: G5, Velocity: 65
Note OFF: Time 389540, Note Name: F5
Note ON: Time 389760, Note Name: F5, Velocity: 75
Note ON: Time 389760, Note Name: G#5, Velocity: 75
Note OFF: Time 389780, Note Name: G5
Note OFF: Time 390120, Note Name: G#5
Note OFF: Time 390120, Note Name: F5
Note ON: Time 390240, Note Name: A#5, Velocity: 82
Note ON: Time 390240, Note Name: G5, Velocity: 82
Note ON: Time 390240, Note Name: C#5, Velocity: 82
Note OFF: Time 391200, Note Name: C#5
Note OFF: Time 391200, Note Name: G5
Note OFF: Time 391200, Note Name: A#5
Note ON: Time 391200, Note Name: A#5, Velocity: 69
Note ON: Time 391200, Note Name: G5, Velocity: 69
Note ON: Time 391200, Note Name: C#5, Velocity: 69
Note OFF: Time 391440, Note Name: C#5
Note OFF: Time 391440, Note Name: G5
Note OFF: Time 391440, Note Name: A#5
Note ON: Time 391440, Note Name: A#5, Velocity: 69
Note ON: Time 391440, Note Name: G5, Velocity: 69
Note ON: Time 391440, Note Name: C#5, Velocity: 69
Note OFF: Time 391680, Note Name: C#5
Note OFF: Time 391680, Note Name: G5
Note OFF: Time 391680, Note Name: A#5
Note ON: Time 391680, Note Name: A#5, Velocity: 77
Note ON: Time 391680, Note Name: C#5, Velocity: 77
Note ON: Time 391680, Note Name: G5, Velocity: 77
Note ON: Time 392160, Note Name: C6, Velocity: 60
Note OFF: Time 392180, Note Name: A#5
Note ON: Time 392400, Note Name: A#5, Velocity: 54
Note OFF: Time 392420, Note Name: C6
Note OFF: Time 392640, Note Name: C#5
Note OFF: Time 392640, Note Name: G5
Note ON: Time 392640, Note Name: C5, Velocity: 58
Note ON: Time 392640, Note Name: G#5, Velocity: 58
Note OFF: Time 392660, Note Name: A#5
Note OFF: Time 392880, Note Name: G#5
Note OFF: Time 392880, Note Name: C5
Note ON: Time 393120, Note Name: G#5, Velocity: 76
Note ON: Time 393120, Note Name: B4, Velocity: 76
Note ON: Time 393600, Note Name: A#5, Velocity: 57
Note OFF: Time 393620, Note Name: G#5
Note ON: Time 393840, Note Name: G#5, Velocity: 53
Note OFF: Time 393860, Note Name: A#5
Note OFF: Time 394080, Note Name: B4
Note ON: Time 394080, Note Name: A#4, Velocity: 56
Note ON: Time 394080, Note Name: G5, Velocity: 56
Note OFF: Time 394100, Note Name: G#5
Note OFF: Time 394320, Note Name: G5
Note OFF: Time 394320, Note Name: A#4
Note ON: Time 394560, Note Name: G5, Velocity: 71
Note ON: Time 394560, Note Name: A#4, Velocity: 71
Note ON: Time 395040, Note Name: G#5, Velocity: 55
Note OFF: Time 395060, Note Name: G5
Note ON: Time 395280, Note Name: G5, Velocity: 51
Note OFF: Time 395300, Note Name: G#5
Note OFF: Time 395520, Note Name: A#4
Note ON: Time 395520, Note Name: G#4, Velocity: 54
Note ON: Time 395520, Note Name: F5, Velocity: 54
Note OFF: Time 395540, Note Name: G5
Note OFF: Time 395760, Note Name: F5
Note OFF: Time 395760, Note Name: G#4
Note ON: Time 396000, Note Name: F5, Velocity: 64
Note ON: Time 396000, Note Name: G#4, Velocity: 64
Note ON: Time 396480, Note Name: G5, Velocity: 48
Note OFF: Time 396500, Note Name: F5
Note ON: Time 396720, Note Name: F5, Velocity: 45
Note OFF: Time 396740, Note Name: G5
Note OFF: Time 396960, Note Name: G#4
Note ON: Time 396960, Note Name: D#5, Velocity: 48
Note ON: Time 396960, Note Name: G4, Velocity: 48
Note OFF: Time 396980, Note Name: F5
Note OFF: Time 397200, Note Name: G4
Note OFF: Time 397200, Note Name: D#5
Note ON: Time 397440, Note Name: A#5, Velocity: 96
Note ON: Time 397440, Note Name: A#4, Velocity: 96
Note OFF: Time 397920, Note Name: A#4
Note OFF: Time 397920, Note Name: A#5
Note ON: Time 397920, Note Name: D5, Velocity: 57
Note ON: Time 398160, Note Name: D#5, Velocity: 52
Note OFF: Time 398180, Note Name: D5
Note ON: Time 398400, Note Name: D5, Velocity: 63
Note ON: Time 398400, Note Name: F5, Velocity: 63
Note OFF: Time 398420, Note Name: D#5
Note OFF: Time 398760, Note Name: F5
Note OFF: Time 398760, Note Name: D5
Note ON: Time 398880, Note Name: A#5, Velocity: 95
Note ON: Time 398880, Note Name: A#4, Velocity: 95
Note OFF: Time 399360, Note Name: A#4
Note OFF: Time 399360, Note Name: A#5
Note ON: Time 399360, Note Name: D#5, Velocity: 60
Note ON: Time 399600, Note Name: F5, Velocity: 57
Note OFF: Time 399620, Note Name: D#5
Note ON: Time 399840, Note Name: D#5, Velocity: 68
Note ON: Time 399840, Note Name: G5, Velocity: 68
Note OFF: Time 399860, Note Name: F5
Note OFF: Time 400200, Note Name: G5
Note OFF: Time 400200, Note Name: D#5
Note ON: Time 400320, Note Name: A#5, Velocity: 93
Note ON: Time 400320, Note Name: A#4, Velocity: 93
Note OFF: Time 400800, Note Name: A#4
Note OFF: Time 400800, Note Name: A#5
Note ON: Time 400800, Note Name: F5, Velocity: 72
Note ON: Time 401040, Note Name: G5, Velocity: 68
Note OFF: Time 401060, Note Name: F5
Note ON: Time 401280, Note Name: F5, Velocity: 80
Note ON: Time 401280, Note Name: G#5, Velocity: 80
Note OFF: Time 401300, Note Name: G5
Note OFF: Time 401640, Note Name: G#5
Note OFF: Time 401640, Note Name: F5
Note ON: Time 401760, Note Name: A#5, Velocity: 101
Note ON: Time 401760, Note Name: G5, Velocity: 101
Note ON: Time 401760, Note Name: C#5, Velocity: 101
Note OFF: Time 402480, Note Name: C#5
Note OFF: Time 402480, Note Name: G5
Note OFF: Time 402480, Note Name: A#5
Note ON: Time 402480, Note Name: G5, Velocity: 76
Note ON: Time 402480, Note Name: A#5, Velocity: 76
Note OFF: Time 402720, Note Name: A#5
Note OFF: Time 402720, Note Name: G5
Note ON: Time 402720, Note Name: C#5, Velocity: 68
Note ON: Time 402960, Note Name: A#5, Velocity: 74
Note ON: Time 402960, Note Name: G5, Velocity: 74
Note OFF: Time 403200, Note Name: G5
Note OFF: Time 403200, Note Name: A#5
Note OFF: Time 403200, Note Name: C#5
Note ON: Time 403200, Note Name: C#5, Velocity: 64
Note ON: Time 403440, Note Name: A#5, Velocity: 72
Note ON: Time 403680, Note Name: C6, Velocity: 64
Note OFF: Time 403700, Note Name: A#5
Note ON: Time 403920, Note Name: A#5, Velocity: 57
Note OFF: Time 403940, Note Name: C6
Note OFF: Time 404160, Note Name: C#5
Note ON: Time 404160, Note Name: G#5, Velocity: 54
Note ON: Time 404160, Note Name: C5, Velocity: 54
Note OFF: Time 404180, Note Name: A#5
Note OFF: Time 404400, Note Name: C5
Note OFF: Time 404400, Note Name: G#5
Note ON: Time 404640, Note Name: B4, Velocity: 65
Note ON: Time 404880, Note Name: G#5, Velocity: 69
Note ON: Time 405120, Note Name: A#5, Velocity: 65
Note OFF: Time 405140, Note Name: G#5
Note ON: Time 405360, Note Name: G#5, Velocity: 55
Note OFF: Time 405380, Note Name: A#5
Note OFF: Time 405600, Note Name: B4
Note ON: Time 405600, Note Name: G5, Velocity: 51
Note ON: Time 405600, Note Name: A#4, Velocity: 51
Note OFF: Time 405620, Note Name: G#5
Note OFF: Time 405840, Note Name: A#4
Note OFF: Time 405840, Note Name: G5
Note ON: Time 406080, Note Name: A#4, Velocity: 63
Note ON: Time 406320, Note Name: G5, Velocity: 46
Note ON: Time 406560, Note Name: G#5, Velocity: 58
Note OFF: Time 406580, Note Name: G5
Note ON: Time 406800, Note Name: G5, Velocity: 45
Note OFF: Time 406820, Note Name: G#5
Note OFF: Time 407040, Note Name: A#4
Note ON: Time 407040, Note Name: G#4, Velocity: 50
Note ON: Time 407040, Note Name: F5, Velocity: 50
Note OFF: Time 407060, Note Name: G5
Note OFF: Time 407520, Note Name: F5
Note OFF: Time 407520, Note Name: G#4
Note ON: Time 407520, Note Name: D#5, Velocity: 59
Note ON: Time 407520, Note Name: G4, Velocity: 59
Note OFF: Time 407760, Note Name: G4
Note OFF: Time 407760, Note Name: D#5
Note ON: Time 408000, Note Name: D#5, Velocity: 53
Note OFF: Time 408120, Note Name: D#5
Note ON: Time 408240, Note Name: D#5, Velocity: 64
Note OFF: Time 408360, Note Name: D#5
Note ON: Time 408480, Note Name: D#5, Velocity: 67
Note OFF: Time 408600, Note Name: D#5
Note ON: Time 408720, Note Name: D#5, Velocity: 69
Note OFF: Time 408840, Note Name: D#5
Note ON: Time 408960, Note Name: D#5, Velocity: 78
Note OFF: Time 409080, Note Name: D#5
Note ON: Time 409200, Note Name: D#5, Velocity: 64
Note OFF: Time 409320, Note Name: D#5
Note ON: Time 409440, Note Name: D#5, Velocity: 78
Note OFF: Time 409560, Note Name: D#5
Note ON: Time 409680, Note Name: D#5, Velocity: 74
Note OFF: Time 409800, Note Name: D#5
Note ON: Time 409920, Note Name: D#5, Velocity: 69
Note OFF: Time 410040, Note Name: D#5
Note ON: Time 410160, Note Name: D#5, Velocity: 69
Note OFF: Time 410280, Note Name: D#5
Note ON: Time 410400, Note Name: F5, Velocity: 65
Note ON: Time 410640, Note Name: D#5, Velocity: 58
Note OFF: Time 410660, Note Name: F5
Note ON: Time 410880, Note Name: C5, Velocity: 56
Note OFF: Time 410900, Note Name: D#5
Note ON: Time 411120, Note Name: G#4, Velocity: 48
Note OFF: Time 411140, Note Name: C5
Note ON: Time 411360, Note Name: D#4, Velocity: 52
Note OFF: Time 411380, Note Name: G#4
Note OFF: Time 411600, Note Name: D#4
Note ON: Time 411600, Note Name: E4, Velocity: 44
Note OFF: Time 411840, Note Name: E4
Note ON: Time 411840, Note Name: F4, Velocity: 58
Note OFF: Time 411960, Note Name: F4
Note ON: Time 412080, Note Name: F4, Velocity: 51
Note OFF: Time 412200, Note Name: F4
Note ON: Time 412320, Note Name: F4, Velocity: 55
Note OFF: Time 412440, Note Name: F4
Note ON: Time 412560, Note Name: F4, Velocity: 46
Note OFF: Time 412680, Note Name: F4
Note ON: Time 412800, Note Name: F4, Velocity: 54
Note OFF: Time 412920, Note Name: F4
Note ON: Time 413040, Note Name: F4, Velocity: 64
Note OFF: Time 413160, Note Name: F4
Note ON: Time 413280, Note Name: D#4, Velocity: 61
Note ON: Time 413520, Note Name: G#4, Velocity: 53
Note OFF: Time 413540, Note Name: D#4
Note ON: Time 413760, Note Name: C5, Velocity: 46
Note OFF: Time 413780, Note Name: G#4
Note ON: Time 414000, Note Name: D#5, Velocity: 64
Note OFF: Time 414020, Note Name: C5
Note ON: Time 414240, Note Name: G#5, Velocity: 59
Note OFF: Time 414260, Note Name: D#5
Note ON: Time 414480, Note Name: E5, Velocity: 52
Note OFF: Time 414500, Note Name: G#5
Note OFF: Time 414720, Note Name: E5
Note ON: Time 414720, Note Name: F5, Velocity: 52
Note OFF: Time 414840, Note Name: F5
Note ON: Time 414960, Note Name: F5, Velocity: 48
Note OFF: Time 415080, Note Name: F5
Note ON: Time 415200, Note Name: F5, Velocity: 64
Note OFF: Time 415320, Note Name: F5
Note ON: Time 415440, Note Name: F5, Velocity: 60
Note OFF: Time 415560, Note Name: F5
Note ON: Time 415680, Note Name: F5, Velocity: 53
Note OFF: Time 415800, Note Name: F5
Note ON: Time 415920, Note Name: F5, Velocity: 73
Note OFF: Time 416040, Note Name: F5
Note ON: Time 416160, Note Name: F5, Velocity: 77
Note ON: Time 416320, Note Name: G5, Velocity: 55
Note OFF: Time 416340, Note Name: F5
Note ON: Time 416480, Note Name: F5, Velocity: 55
Note OFF: Time 416500, Note Name: G5
Note ON: Time 416640, Note Name: D#5, Velocity: 65
Note OFF: Time 416660, Note Name: F5
Note ON: Time 416880, Note Name: G#5, Velocity: 57
Note OFF: Time 416900, Note Name: D#5
Note ON: Time 417120, Note Name: C6, Velocity: 51
Note OFF: Time 417140, Note Name: G#5
Note OFF: Time 417360, Note Name: C6
Note ON: Time 417600, Note Name: F6, Velocity: 66
Note ON: Time 418080, Note Name: D#6, Velocity: 50
Note OFF: Time 418100, Note Name: F6
Note ON: Time 418320, Note Name: C#6, Velocity: 45
Note OFF: Time 418340, Note Name: D#6
Note ON: Time 418560, Note Name: G5, Velocity: 52
Note OFF: Time 418580, Note Name: C#6
Note OFF: Time 418800, Note Name: G5
Note ON: Time 419040, Note Name: A#5, Velocity: 58
Note ON: Time 419520, Note Name: G#5, Velocity: 43
Note OFF: Time 419540, Note Name: A#5
Note ON: Time 419760, Note Name: D#5, Velocity: 44
Note OFF: Time 419780, Note Name: G#5
Note ON: Time 420000, Note Name: C5, Velocity: 38
Note OFF: Time 420020, Note Name: D#5
Note OFF: Time 420240, Note Name: C5
Note ON: Time 420480, Note Name: D#5, Velocity: 48
Note OFF: Time 420600, Note Name: D#5
Note ON: Time 420720, Note Name: D#5, Velocity: 44
Note OFF: Time 420840, Note Name: D#5
Note ON: Time 420960, Note Name: D#5, Velocity: 65
Note OFF: Time 421080, Note Name: D#5
Note ON: Time 421200, Note Name: D#5, Velocity: 69
Note OFF: Time 421320, Note Name: D#5
Note ON: Time 421440, Note Name: D#5, Velocity: 63
Note OFF: Time 421560, Note Name: D#5
Note ON: Time 421680, Note Name: D#5, Velocity: 71
Note OFF: Time 421800, Note Name: D#5
Note ON: Time 421920, Note Name: F5, Velocity: 61
Note ON: Time 422160, Note Name: D#5, Velocity: 56
Note OFF: Time 422180, Note Name: F5
Note ON: Time 422400, Note Name: C5, Velocity: 50
Note OFF: Time 422420, Note Name: D#5
Note ON: Time 422640, Note Name: G#4, Velocity: 50
Note OFF: Time 422660, Note Name: C5
Note ON: Time 422880, Note Name: D#4, Velocity: 48
Note OFF: Time 422900, Note Name: G#4
Note OFF: Time 423120, Note Name: D#4
Note ON: Time 423120, Note Name: E4, Velocity: 53
Note OFF: Time 423360, Note Name: E4
Note ON: Time 423360, Note Name: F4, Velocity: 57
Note OFF: Time 423480, Note Name: F4
Note ON: Time 423600, Note Name: F4, Velocity: 51
Note OFF: Time 423720, Note Name: F4
Note ON: Time 423840, Note Name: F4, Velocity: 55
Note OFF: Time 423960, Note Name: F4
Note ON: Time 424080, Note Name: F4, Velocity: 55
Note OFF: Time 424200, Note Name: F4
Note ON: Time 424320, Note Name: F4, Velocity: 61
Note OFF: Time 424440, Note Name: F4
Note ON: Time 424560, Note Name: F4, Velocity: 65
Note OFF: Time 424680, Note Name: F4
Note ON: Time 424800, Note Name: D#4, Velocity: 58
Note ON: Time 425040, Note Name: G#4, Velocity: 52
Note OFF: Time 425060, Note Name: D#4
Note ON: Time 425280, Note Name: C5, Velocity: 49
Note OFF: Time 425300, Note Name: G#4
Note ON: Time 425520, Note Name: D#5, Velocity: 45
Note OFF: Time 425540, Note Name: C5
Note ON: Time 425760, Note Name: G#5, Velocity: 52
Note OFF: Time 425780, Note Name: D#5
Note ON: Time 426000, Note Name: E5, Velocity: 48
Note OFF: Time 426020, Note Name: G#5
Note OFF: Time 426240, Note Name: E5
Note ON: Time 426240, Note Name: F5, Velocity: 58
Note OFF: Time 426360, Note Name: F5
Note ON: Time 426480, Note Name: F5, Velocity: 49
Note OFF: Time 426600, Note Name: F5
Note ON: Time 426720, Note Name: F5, Velocity: 61
Note OFF: Time 426840, Note Name: F5
Note ON: Time 426960, Note Name: F5, Velocity: 57
Note OFF: Time 427080, Note Name: F5
Note ON: Time 427200, Note Name: F5, Velocity: 65
Note OFF: Time 427320, Note Name: F5
Note ON: Time 427440, Note Name: F5, Velocity: 65
Note OFF: Time 427560, Note Name: F5
Note ON: Time 427680, Note Name: F5, Velocity: 75
Note ON: Time 427840, Note Name: G5, Velocity: 55
Note OFF: Time 427860, Note Name: F5
Note ON: Time 428000, Note Name: F5, Velocity: 55
Note OFF: Time 428020, Note Name: G5
Note ON: Time 428160, Note Name: D#5, Velocity: 66
Note OFF: Time 428180, Note Name: F5
Note ON: Time 428400, Note Name: G#5, Velocity: 64
Note OFF: Time 428420, Note Name: D#5
Note ON: Time 428640, Note Name: C6, Velocity: 60
Note OFF: Time 428660, Note Name: G#5
Note OFF: Time 428880, Note Name: C6
Note ON: Time 429120, Note Name: F6, Velocity: 67
Note ON: Time 429600, Note Name: D#6, Velocity: 52
Note OFF: Time 429620, Note Name: F6
Note ON: Time 429840, Note Name: C#6, Velocity: 50
Note OFF: Time 429860, Note Name: D#6
Note ON: Time 430080, Note Name: G5, Velocity: 52
Note OFF: Time 430100, Note Name: C#6
Note OFF: Time 430320, Note Name: G5
Note ON: Time 430560, Note Name: G#5, Velocity: 65
Note OFF: Time 431520, Note Name: G#5
Note ON: Time 431520, Note Name: C5, Velocity: 55
Note OFF: Time 431600, Note Name: C5
Note ON: Time 431600, Note Name: D5, Velocity: 49
Note OFF: Time 431680, Note Name: D5
Note ON: Time 431680, Note Name: C5, Velocity: 65
Note OFF: Time 431760, Note Name: C5
Note ON: Time 431760, Note Name: D5, Velocity: 53
Note OFF: Time 431840, Note Name: D5
Note ON: Time 431840, Note Name: C5, Velocity: 67
Note OFF: Time 431920, Note Name: C5
Note ON: Time 431920, Note Name: B4, Velocity: 56
Note OFF: Time 432000, Note Name: B4
Note ON: Time 432000, Note Name: A#4, Velocity: 87
Note OFF: Time 432250, Note Name: A#4
Note ON: Time 432480, Note Name: D5, Velocity: 62
Note ON: Time 432720, Note Name: D#5, Velocity: 62
Note OFF: Time 432740, Note Name: D5
Note ON: Time 432960, Note Name: F5, Velocity: 67
Note ON: Time 432960, Note Name: D5, Velocity: 67
Note OFF: Time 432980, Note Name: D#5
Note OFF: Time 433320, Note Name: D5
Note OFF: Time 433320, Note Name: F5
Note ON: Time 433440, Note Name: A#4, Velocity: 85
Note OFF: Time 433680, Note Name: A#4
Note ON: Time 433920, Note Name: D#5, Velocity: 73
Note ON: Time 434160, Note Name: F5, Velocity: 69
Note OFF: Time 434180, Note Name: D#5
Note ON: Time 434400, Note Name: D#5, Velocity: 76
Note ON: Time 434400, Note Name: G5, Velocity: 76
Note OFF: Time 434420, Note Name: F5
Note OFF: Time 434760, Note Name: G5
Note OFF: Time 434760, Note Name: D#5
Note ON: Time 434880, Note Name: A#4, Velocity: 87
Note OFF: Time 435120, Note Name: A#4
Note ON: Time 435360, Note Name: F5, Velocity: 73
Note ON: Time 435600, Note Name: G5, Velocity: 68
Note OFF: Time 435620, Note Name: F5
Note ON: Time 435840, Note Name: F5, Velocity: 83
Note ON: Time 435840, Note Name: G#5, Velocity: 83
Note OFF: Time 435860, Note Name: G5
Note OFF: Time 436200, Note Name: G#5
Note OFF: Time 436200, Note Name: F5
Note ON: Time 436320, Note Name: C#5, Velocity: 77
Note ON: Time 436320, Note Name: G5, Velocity: 77
Note ON: Time 436320, Note Name: A#5, Velocity: 77
Note OFF: Time 437280, Note Name: A#5
Note OFF: Time 437280, Note Name: G5
Note OFF: Time 437280, Note Name: C#5
Note ON: Time 437280, Note Name: G5, Velocity: 75
Note ON: Time 437280, Note Name: C#5, Velocity: 75
Note ON: Time 437280, Note Name: A#5, Velocity: 75
Note OFF: Time 437520, Note Name: A#5
Note OFF: Time 437520, Note Name: C#5
Note OFF: Time 437520, Note Name: G5
Note ON: Time 437520, Note Name: G5, Velocity: 69
Note ON: Time 437520, Note Name: C#5, Velocity: 69
Note ON: Time 437520, Note Name: A#5, Velocity: 69
Note OFF: Time 437760, Note Name: A#5
Note OFF: Time 437760, Note Name: C#5
Note OFF: Time 437760, Note Name: G5
Note ON: Time 437760, Note Name: C#5, Velocity: 70
Note ON: Time 437760, Note Name: A#5, Velocity: 70
Note ON: Time 437760, Note Name: G5, Velocity: 70
Note ON: Time 438240, Note Name: C6, Velocity: 59
Note OFF: Time 438260, Note Name: A#5
Note ON: Time 438480, Note Name: A#5, Velocity: 56
Note OFF: Time 438500, Note Name: C6
Note OFF: Time 438720, Note Name: C#5
Note OFF: Time 438720, Note Name: G5
Note ON: Time 438720, Note Name: C5, Velocity: 53
Note ON: Time 438720, Note Name: G#5, Velocity: 53
Note OFF: Time 438740, Note Name: A#5
Note OFF: Time 438960, Note Name: G#5
Note OFF: Time 438960, Note Name: C5
Note ON: Time 439200, Note Name: B4, Velocity: 69
Note ON: Time 439200, Note Name: G#5, Velocity: 69
Note ON: Time 439680, Note Name: A#5, Velocity: 47
Note OFF: Time 439700, Note Name: G#5
Note ON: Time 439920, Note Name: G#5, Velocity: 45
Note OFF: Time 439940, Note Name: A#5
Note OFF: Time 440160, Note Name: B4
Note ON: Time 440160, Note Name: G5, Velocity: 52
Note ON: Time 440160, Note Name: A#4, Velocity: 52
Note OFF: Time 440180, Note Name: G#5
Note OFF: Time 440400, Note Name: A#4
Note OFF: Time 440400, Note Name: G5
Note ON: Time 440640, Note Name: G5, Velocity: 66
Note ON: Time 440640, Note Name: A#4, Velocity: 66
Note ON: Time 441120, Note Name: G#5, Velocity: 53
Note OFF: Time 441140, Note Name: G5
Note ON: Time 441360, Note Name: G5, Velocity: 47
Note OFF: Time 441380, Note Name: G#5
Note OFF: Time 441600, Note Name: A#4
Note ON: Time 441600, Note Name: F5, Velocity: 67
Note ON: Time 441600, Note Name: G#4, Velocity: 67
Note OFF: Time 441620, Note Name: G5
Note OFF: Time 441840, Note Name: G#4
Note OFF: Time 441840, Note Name: F5
Note ON: Time 442080, Note Name: F5, Velocity: 64
Note ON: Time 442080, Note Name: G#4, Velocity: 64
Note ON: Time 442560, Note Name: G5, Velocity: 52
Note OFF: Time 442580, Note Name: F5
Note ON: Time 442800, Note Name: F5, Velocity: 48
Note OFF: Time 442820, Note Name: G5
Note OFF: Time 443040, Note Name: G#4
Note ON: Time 443040, Note Name: D#5, Velocity: 53
Note ON: Time 443040, Note Name: G4, Velocity: 53
Note OFF: Time 443060, Note Name: F5
Note OFF: Time 443280, Note Name: G4
Note OFF: Time 443280, Note Name: D#5
Note ON: Time 443520, Note Name: A#4, Velocity: 97
Note ON: Time 443520, Note Name: A#5, Velocity: 97
Note OFF: Time 443760, Note Name: A#5
Note OFF: Time 443760, Note Name: A#4
Note ON: Time 444000, Note Name: D5, Velocity: 57
Note ON: Time 444240, Note Name: D#5, Velocity: 53
Note OFF: Time 444260, Note Name: D5
Note ON: Time 444480, Note Name: D5, Velocity: 63
Note ON: Time 444480, Note Name: F5, Velocity: 63
Note OFF: Time 444500, Note Name: D#5
Note OFF: Time 444840, Note Name: F5
Note OFF: Time 444840, Note Name: D5
Note ON: Time 444960, Note Name: A#5, Velocity: 97
Note ON: Time 444960, Note Name: A#4, Velocity: 97
Note OFF: Time 445200, Note Name: A#4
Note OFF: Time 445200, Note Name: A#5
Note ON: Time 445440, Note Name: D#5, Velocity: 60
Note ON: Time 445680, Note Name: F5, Velocity: 57
Note OFF: Time 445700, Note Name: D#5
Note ON: Time 445920, Note Name: G5, Velocity: 68
Note ON: Time 445920, Note Name: D#5, Velocity: 68
Note OFF: Time 445940, Note Name: F5
Note OFF: Time 446280, Note Name: D#5
Note OFF: Time 446280, Note Name: G5
Note ON: Time 446400, Note Name: A#4, Velocity: 96
Note ON: Time 446400, Note Name: A#5, Velocity: 96
Note OFF: Time 446640, Note Name: A#5
Note OFF: Time 446640, Note Name: A#4
Note ON: Time 446880, Note Name: F5, Velocity: 72
Note ON: Time 447120, Note Name: G5, Velocity: 70
Note OFF: Time 447140, Note Name: F5
Note ON: Time 447360, Note Name: G#5, Velocity: 80
Note ON: Time 447360, Note Name: F5, Velocity: 80
Note OFF: Time 447380, Note Name: G5
Note OFF: Time 447720, Note Name: F5
Note OFF: Time 447720, Note Name: G#5
Note ON: Time 447840, Note Name: C#5, Velocity: 99
Note ON: Time 447840, Note Name: G5, Velocity: 99
Note ON: Time 447840, Note Name: A#5, Velocity: 99
Note OFF: Time 448320, Note Name: A#5
Note OFF: Time 448320, Note Name: G5
Note OFF: Time 448320, Note Name: C#5
Note ON: Time 451680, Note Name: C#5, Velocity: 49
Note ON: Time 451680, Note Name: G5, Velocity: 49
Note ON: Time 451680, Note Name: A#5, Velocity: 49
Note OFF: Time 451920, Note Name: A#5
Note OFF: Time 451920, Note Name: G5
Note OFF: Time 451920, Note Name: C#5
Note ON: Time 451920, Note Name: A#5, Velocity: 49
Note ON: Time 451920, Note Name: C#5, Velocity: 49
Note ON: Time 451920, Note Name: G5, Velocity: 49
Note OFF: Time 452160, Note Name: G5
Note OFF: Time 452160, Note Name: C#5
Note OFF: Time 452160, Note Name: A#5
Note ON: Time 452160, Note Name: G5, Velocity: 55
Note ON: Time 452160, Note Name: C#5, Velocity: 55
Note ON: Time 452160, Note Name: A#5, Velocity: 55
Note ON: Time 452640, Note Name: C6, Velocity: 53
Note OFF: Time 452660, Note Name: A#5
Note ON: Time 452880, Note Name: A#5, Velocity: 52
Note OFF: Time 452900, Note Name: C6
Note OFF: Time 453120, Note Name: G5
Note OFF: Time 453120, Note Name: C#5
Note ON: Time 453120, Note Name: G#5, Velocity: 48
Note ON: Time 453120, Note Name: C5, Velocity: 48
Note OFF: Time 453140, Note Name: A#5
Note OFF: Time 453360, Note Name: C5
Note OFF: Time 453360, Note Name: G#5
Note ON: Time 453600, Note Name: B4, Velocity: 54
Note ON: Time 453600, Note Name: G#5, Velocity: 54
Note ON: Time 454080, Note Name: A#5, Velocity: 51
Note OFF: Time 454100, Note Name: G#5
Note ON: Time 454320, Note Name: G#5, Velocity: 48
Note OFF: Time 454340, Note Name: A#5
Note OFF: Time 454560, Note Name: B4
Note ON: Time 454560, Note Name: G5, Velocity: 45
Note ON: Time 454560, Note Name: A#4, Velocity: 45
Note OFF: Time 454580, Note Name: G#5
Note OFF: Time 454800, Note Name: A#4
Note OFF: Time 454800, Note Name: G5
Note ON: Time 455040, Note Name: A#4, Velocity: 44
Note ON: Time 455040, Note Name: G5, Velocity: 44
Note ON: Time 455520, Note Name: G#5, Velocity: 41
Note OFF: Time 455540, Note Name: G5
Note ON: Time 455760, Note Name: G5, Velocity: 38
Note OFF: Time 455780, Note Name: G#5
Note OFF: Time 456000, Note Name: A#4
Note ON: Time 456000, Note Name: G#4, Velocity: 35
Note ON: Time 456000, Note Name: F5, Velocity: 35
Note OFF: Time 456020, Note Name: G5
Note OFF: Time 456240, Note Name: F5
Note OFF: Time 456240, Note Name: G#4
Note ON: Time 463680, Note Name: D#4, Velocity: 40
Note OFF: Time 463800, Note Name: D#4
Note ON: Time 463920, Note Name: D#4, Velocity: 38
Note OFF: Time 464040, Note Name: D#4
Note ON: Time 464160, Note Name: D#4, Velocity: 40
Note OFF: Time 464280, Note Name: D#4
Note ON: Time 464400, Note Name: D#4, Velocity: 37
Note OFF: Time 464520, Note Name: D#4
Note ON: Time 464640, Note Name: D#4, Velocity: 49
Note OFF: Time 465120, Note Name: D#4
Note ON: Time 465120, Note Name: G3, Velocity: 39
Note OFF: Time 465360, Note Name: G3
Note ON: Time 465360, Note Name: A#3, Velocity: 39
Note OFF: Time 465600, Note Name: A#3
Note ON: Time 465600, Note Name: D#4, Velocity: 46
Note OFF: Time 465840, Note Name: D#4
Note ON: Time 465840, Note Name: G4, Velocity: 45
Note OFF: Time 466080, Note Name: G4
Note ON: Time 466080, Note Name: C5, Velocity: 55
Note OFF: Time 466500, Note Name: C5
Note ON: Time 466500, Note Name: C5, Velocity: 44
Note OFF: Time 466560, Note Name: C5
Note ON: Time 466560, Note Name: B4, Velocity: 51
Note OFF: Time 466800, Note Name: B4
Note ON: Time 466980, Note Name: B4, Velocity: 39
Note OFF: Time 467040, Note Name: B4
Note ON: Time 467040, Note Name: A#4, Velocity: 48
Note OFF: Time 467280, Note Name: A#4
Note ON: Time 467460, Note Name: A#4, Velocity: 39
Note OFF: Time 467520, Note Name: A#4
Note ON: Time 467520, Note Name: A4, Velocity: 46
Note OFF: Time 467760, Note Name: A4
Note ON: Time 467940, Note Name: A4, Velocity: 35
Note OFF: Time 468000, Note Name: A4
Note ON: Time 468000, Note Name: G#4, Velocity: 44
Note OFF: Time 468240, Note Name: G#4
Note ON: Time 468420, Note Name: G#4, Velocity: 33
Note OFF: Time 468480, Note Name: G#4
Note ON: Time 468480, Note Name: G4, Velocity: 41
Note OFF: Time 468720, Note Name: G4
Note ON: Time 468900, Note Name: G4, Velocity: 32
Note OFF: Time 468960, Note Name: G4
Note ON: Time 468960, Note Name: F4, Velocity: 39
Note OFF: Time 469200, Note Name: F4
Note ON: Time 469440, Note Name: D#4, Velocity: 44
Note OFF: Time 469560, Note Name: D#4
Note ON: Time 469680, Note Name: D#4, Velocity: 41
Note OFF: Time 469800, Note Name: D#4
Note ON: Time 469920, Note Name: D#4, Velocity: 44
Note OFF: Time 470040, Note Name: D#4
Note ON: Time 470160, Note Name: D#4, Velocity: 41
Note OFF: Time 470280, Note Name: D#4
Note ON: Time 470400, Note Name: D#4, Velocity: 53
Note OFF: Time 470880, Note Name: D#4
Note ON: Time 470880, Note Name: C4, Velocity: 42
Note OFF: Time 471120, Note Name: C4
Note ON: Time 471120, Note Name: D#4, Velocity: 42
Note OFF: Time 471360, Note Name: D#4
Note ON: Time 471360, Note Name: G#4, Velocity: 50
Note OFF: Time 471600, Note Name: G#4
Note ON: Time 471600, Note Name: C5, Velocity: 49
Note OFF: Time 471840, Note Name: C5
Note ON: Time 471840, Note Name: F5, Velocity: 59
Note OFF: Time 472260, Note Name: F5
Note ON: Time 472260, Note Name: G5, Velocity: 48
Note OFF: Time 472320, Note Name: G5
Note ON: Time 472320, Note Name: F5, Velocity: 56
Note OFF: Time 472560, Note Name: F5
Note ON: Time 472740, Note Name: F5, Velocity: 42
Note OFF: Time 472800, Note Name: F5
Note ON: Time 472800, Note Name: E5, Velocity: 52
Note OFF: Time 473040, Note Name: E5
Note ON: Time 473220, Note Name: E5, Velocity: 42
Note OFF: Time 473280, Note Name: E5
Note ON: Time 473280, Note Name: D#5, Velocity: 50
Note OFF: Time 473520, Note Name: D#5
Note ON: Time 473700, Note Name: D#5, Velocity: 38
Note OFF: Time 473760, Note Name: D#5
Note ON: Time 473760, Note Name: D5, Velocity: 48
Note OFF: Time 474000, Note Name: D5
Note ON: Time 474180, Note Name: D5, Velocity: 36
Note OFF: Time 474240, Note Name: D5
Note ON: Time 474240, Note Name: C#5, Velocity: 45
Note OFF: Time 474480, Note Name: C#5
Note ON: Time 474660, Note Name: C#5, Velocity: 35
Note OFF: Time 474720, Note Name: C#5
Note ON: Time 474720, Note Name: C5, Velocity: 42
Note OFF: Time 474960, Note Name: C5
Note ON: Time 475200, Note Name: B4, Velocity: 48
Note OFF: Time 475260, Note Name: B4
Note ON: Time 475320, Note Name: B4, Velocity: 45
Note OFF: Time 475380, Note Name: B4
Note ON: Time 475440, Note Name: B4, Velocity: 48
Note OFF: Time 475500, Note Name: B4
Note ON: Time 475560, Note Name: B4, Velocity: 37
Note OFF: Time 475620, Note Name: B4
Note ON: Time 475680, Note Name: B4, Velocity: 48
Note OFF: Time 475740, Note Name: B4
Note ON: Time 475800, Note Name: B4, Velocity: 42
Note OFF: Time 475860, Note Name: B4
Note ON: Time 475920, Note Name: G#4, Velocity: 46
Note OFF: Time 476040, Note Name: G#4
Note ON: Time 476040, Note Name: B4, Velocity: 45
Note OFF: Time 476160, Note Name: B4
Note ON: Time 476160, Note Name: D5, Velocity: 55
Note OFF: Time 476280, Note Name: D5
Note ON: Time 476280, Note Name: F5, Velocity: 53
Note OFF: Time 476400, Note Name: F5
Note ON: Time 476400, Note Name: B5, Velocity: 70
Note OFF: Time 476558, Note Name: B5
Note ON: Time 476610, Note Name: B5, Velocity: 52
Note OFF: Time 476640, Note Name: B5
Note ON: Time 476640, Note Name: A#5, Velocity: 62
Note OFF: Time 476760, Note Name: A#5
Note ON: Time 476850, Note Name: A#5, Velocity: 53
Note OFF: Time 476880, Note Name: A#5
Note ON: Time 476880, Note Name: A5, Velocity: 65
Note OFF: Time 477000, Note Name: A5
Note ON: Time 477090, Note Name: A5, Velocity: 54
Note OFF: Time 477120, Note Name: A5
Note ON: Time 477120, Note Name: G#5, Velocity: 68
Note OFF: Time 477240, Note Name: G#5
Note ON: Time 477330, Note Name: G#5, Velocity: 59
Note OFF: Time 477360, Note Name: G#5
Note ON: Time 477360, Note Name: G5, Velocity: 70
Note OFF: Time 477480, Note Name: G5
Note ON: Time 477570, Note Name: G5, Velocity: 60
Note OFF: Time 477600, Note Name: G5
Note ON: Time 477600, Note Name: F#5, Velocity: 73
Note OFF: Time 477720, Note Name: F#5
Note ON: Time 477810, Note Name: F#5, Velocity: 65
Note OFF: Time 477840, Note Name: F#5
Note ON: Time 477840, Note Name: F5, Velocity: 76
Note OFF: Time 477900, Note Name: F5
Note ON: Time 478050, Note Name: F5, Velocity: 70
Note OFF: Time 478080, Note Name: F5
Note ON: Time 478080, Note Name: G6, Velocity: 88
Note OFF: Time 478200, Note Name: G6
Note ON: Time 478290, Note Name: G6, Velocity: 71
Note OFF: Time 478320, Note Name: G6
Note ON: Time 478320, Note Name: F6, Velocity: 80
Note OFF: Time 478440, Note Name: F6
Note ON: Time 478530, Note Name: F6, Velocity: 70
Note OFF: Time 478560, Note Name: F6
Note ON: Time 478560, Note Name: E6, Velocity: 80
Note OFF: Time 478680, Note Name: E6
Note ON: Time 478770, Note Name: E6, Velocity: 69
Note OFF: Time 478800, Note Name: E6
Note ON: Time 478800, Note Name: D#6, Velocity: 80
Note OFF: Time 478920, Note Name: D#6
Note ON: Time 479010, Note Name: D#6, Velocity: 72
Note OFF: Time 479040, Note Name: D#6
Note ON: Time 479040, Note Name: D6, Velocity: 80
Note OFF: Time 479160, Note Name: D6
Note ON: Time 479250, Note Name: D6, Velocity: 70
Note OFF: Time 479280, Note Name: D6
Note ON: Time 479280, Note Name: C#6, Velocity: 80
Note OFF: Time 479400, Note Name: C#6
Note ON: Time 479490, Note Name: C#6, Velocity: 70
Note OFF: Time 479520, Note Name: C#6
Note ON: Time 479520, Note Name: C6, Velocity: 80
Note OFF: Time 479640, Note Name: C6
Note ON: Time 479730, Note Name: C6, Velocity: 70
Note OFF: Time 479760, Note Name: C6
Note ON: Time 479760, Note Name: B5, Velocity: 83
Note OFF: Time 479880, Note Name: B5
Note ON: Time 479970, Note Name: B5, Velocity: 71
Note OFF: Time 480000, Note Name: B5
Note ON: Time 480000, Note Name: A#5, Velocity: 86
Note OFF: Time 480120, Note Name: A#5
Note ON: Time 480210, Note Name: A#5, Velocity: 73
Note OFF: Time 480240, Note Name: A#5
Note ON: Time 480240, Note Name: A5, Velocity: 89
Note OFF: Time 480360, Note Name: A5
Note ON: Time 480450, Note Name: A5, Velocity: 77
Note OFF: Time 480480, Note Name: A5
Note ON: Time 480480, Note Name: G#5, Velocity: 92
Note OFF: Time 480600, Note Name: G#5
Note ON: Time 480690, Note Name: G#5, Velocity: 79
Note OFF: Time 480720, Note Name: G#5
Note ON: Time 480720, Note Name: F5, Velocity: 95
Note OFF: Time 480840, Note Name: F5
Note ON: Time 480960, Note Name: D#6, Velocity: 100
Note ON: Time 480960, Note Name: D#5, Velocity: 100
Note OFF: Time 481080, Note Name: D#5
Note OFF: Time 481080, Note Name: D#6
Note ON: Time 481200, Note Name: G5, Velocity: 75
Note OFF: Time 481320, Note Name: G5
Note ON: Time 481320, Note Name: G#5, Velocity: 84
Note OFF: Time 481440, Note Name: G#5
Note ON: Time 481440, Note Name: G5, Velocity: 87
Note ON: Time 481440, Note Name: A#5, Velocity: 87
Note OFF: Time 481620, Note Name: A#5
Note OFF: Time 481620, Note Name: G5
Note ON: Time 481680, Note Name: D#6, Velocity: 100
Note ON: Time 481680, Note Name: D#5, Velocity: 100
Note OFF: Time 481800, Note Name: D#5
Note OFF: Time 481800, Note Name: D#6
Note ON: Time 481920, Note Name: F#5, Velocity: 78
Note OFF: Time 482040, Note Name: F#5
Note ON: Time 482040, Note Name: G#5, Velocity: 83
Note OFF: Time 482160, Note Name: G#5
Note ON: Time 482160, Note Name: F#5, Velocity: 86
Note ON: Time 482160, Note Name: A5, Velocity: 86
Note OFF: Time 482340, Note Name: A5
Note OFF: Time 482340, Note Name: F#5
Note ON: Time 482400, Note Name: D#6, Velocity: 100
Note ON: Time 482400, Note Name: D#5, Velocity: 100
Note OFF: Time 482520, Note Name: D#5
Note OFF: Time 482520, Note Name: D#6
Note ON: Time 482640, Note Name: F5, Velocity: 86
Note OFF: Time 482760, Note Name: F5
Note ON: Time 482760, Note Name: G5, Velocity: 82
Note OFF: Time 482880, Note Name: G5
Note ON: Time 482880, Note Name: F5, Velocity: 89
Note ON: Time 482880, Note Name: G#5, Velocity: 89
Note OFF: Time 483060, Note Name: G#5
Note OFF: Time 483060, Note Name: F5
Note ON: Time 483120, Note Name: A#4, Velocity: 100
Note ON: Time 483120, Note Name: A#5, Velocity: 100
Note ON: Time 483120, Note Name: G5, Velocity: 100
Note OFF: Time 483600, Note Name: G5
Note OFF: Time 483600, Note Name: A#5
Note OFF: Time 483600, Note Name: A#4
Note ON: Time 483600, Note Name: A#5, Velocity: 95
Note ON: Time 483600, Note Name: G5, Velocity: 95
Note ON: Time 483600, Note Name: A#4, Velocity: 95
Note OFF: Time 483720, Note Name: A#4
Note OFF: Time 483720, Note Name: G5
Note OFF: Time 483720, Note Name: A#5
Note ON: Time 483720, Note Name: A#5, Velocity: 92
Note ON: Time 483720, Note Name: G5, Velocity: 92
Note ON: Time 483720, Note Name: A#4, Velocity: 92
Note OFF: Time 483840, Note Name: A#4
Note OFF: Time 483840, Note Name: G5
Note OFF: Time 483840, Note Name: A#5
Note ON: Time 483840, Note Name: G5, Velocity: 100
Note ON: Time 483840, Note Name: A#4, Velocity: 100
Note ON: Time 483840, Note Name: A#5, Velocity: 100
Note OFF: Time 484080, Note Name: G5
Note ON: Time 484080, Note Name: G#5, Velocity: 96
Note OFF: Time 484200, Note Name: G#5
Note ON: Time 484200, Note Name: G5, Velocity: 91
Note OFF: Time 484320, Note Name: G5
Note ON: Time 484320, Note Name: F5, Velocity: 96
Note OFF: Time 484440, Note Name: F5
Note OFF: Time 484560, Note Name: A#5
Note OFF: Time 484560, Note Name: A#4
Note ON: Time 484560, Note Name: F5, Velocity: 94
Note ON: Time 484560, Note Name: A#4, Velocity: 94
Note ON: Time 484560, Note Name: A#5, Velocity: 94
Note OFF: Time 484800, Note Name: F5
Note ON: Time 484800, Note Name: G5, Velocity: 84
Note OFF: Time 484920, Note Name: G5
Note ON: Time 484920, Note Name: F5, Velocity: 78
Note OFF: Time 485040, Note Name: F5
Note ON: Time 485040, Note Name: D#5, Velocity: 75
Note OFF: Time 485160, Note Name: D#5
Note OFF: Time 485280, Note Name: A#5
Note OFF: Time 485280, Note Name: A#4
Note ON: Time 485280, Note Name: G5, Velocity: 77
Note ON: Time 485280, Note Name: A#4, Velocity: 77
Note OFF: Time 485520, Note Name: A#4
Note ON: Time 485520, Note Name: C5, Velocity: 69
Note OFF: Time 485640, Note Name: C5
Note ON: Time 485640, Note Name: A#4, Velocity: 58
Note OFF: Time 485760, Note Name: A#4
Note OFF: Time 485760, Note Name: G5
Note ON: Time 485760, Note Name: F5, Velocity: 62
Note ON: Time 485760, Note Name: G#4, Velocity: 62
Note OFF: Time 485880, Note Name: G#4
Note OFF: Time 485880, Note Name: F5
Note ON: Time 486000, Note Name: F5, Velocity: 71
Note ON: Time 486000, Note Name: G#4, Velocity: 71
Note OFF: Time 486240, Note Name: G#4
Note ON: Time 486240, Note Name: A#4, Velocity: 62
Note OFF: Time 486360, Note Name: A#4
Note ON: Time 486360, Note Name: G#4, Velocity: 52
Note OFF: Time 486480, Note Name: G#4
Note OFF: Time 486480, Note Name: F5
Note ON: Time 486480, Note Name: D#5, Velocity: 56
Note ON: Time 486480, Note Name: G4, Velocity: 56
Note OFF: Time 486600, Note Name: G4
Note OFF: Time 486600, Note Name: D#5
Note ON: Time 486720, Note Name: D#4, Velocity: 68
Note ON: Time 486720, Note Name: D#5, Velocity: 68
Note ON: Time 486960, Note Name: G#4, Velocity: 55
Note OFF: Time 487080, Note Name: G#4
Note ON: Time 487080, Note Name: A#4, Velocity: 57
Note OFF: Time 487200, Note Name: A#4
Note ON: Time 487200, Note Name: G#4, Velocity: 59
Note ON: Time 487200, Note Name: C5, Velocity: 59
Note OFF: Time 487320, Note Name: C5
Note OFF: Time 487320, Note Name: G#4
Note OFF: Time 487440, Note Name: D#5
Note OFF: Time 487440, Note Name: D#4
Note ON: Time 487440, Note Name: D#4, Velocity: 65
Note ON: Time 487440, Note Name: D#5, Velocity: 65
Note ON: Time 487680, Note Name: G#4, Velocity: 51
Note OFF: Time 487800, Note Name: G#4
Note ON: Time 487800, Note Name: A#4, Velocity: 54
Note OFF: Time 487920, Note Name: A#4
Note ON: Time 487920, Note Name: G#4, Velocity: 56
Note ON: Time 487920, Note Name: B4, Velocity: 56
Note OFF: Time 488040, Note Name: B4
Note OFF: Time 488040, Note Name: G#4
Note OFF: Time 488160, Note Name: D#5
Note OFF: Time 488160, Note Name: D#4
Note ON: Time 488160, Note Name: D#4, Velocity: 62
Note ON: Time 488160, Note Name: D#5, Velocity: 62
Note ON: Time 488400, Note Name: G4, Velocity: 46
Note OFF: Time 488520, Note Name: G4
Note ON: Time 488520, Note Name: G#4, Velocity: 49
Note OFF: Time 488640, Note Name: G#4
Note ON: Time 488640, Note Name: G4, Velocity: 51
Note ON: Time 488640, Note Name: A#4, Velocity: 51
Note OFF: Time 488760, Note Name: A#4
Note OFF: Time 488760, Note Name: G4
Note OFF: Time 488880, Note Name: D#5
Note OFF: Time 488880, Note Name: D#4
Note ON: Time 488880, Note Name: A#3, Velocity: 59
Note ON: Time 488880, Note Name: G4, Velocity: 59
Note ON: Time 488880, Note Name: A#4, Velocity: 59
Note OFF: Time 489360, Note Name: A#4
Note OFF: Time 489360, Note Name: G4
Note OFF: Time 489360, Note Name: A#3
Note ON: Time 489360, Note Name: A#3, Velocity: 49
Note ON: Time 489360, Note Name: G4, Velocity: 49
Note ON: Time 489360, Note Name: A#4, Velocity: 49
Note OFF: Time 489480, Note Name: A#4
Note OFF: Time 489480, Note Name: G4
Note OFF: Time 489480, Note Name: A#3
Note ON: Time 489480, Note Name: A#3, Velocity: 45
Note ON: Time 489480, Note Name: G4, Velocity: 45
Note ON: Time 489480, Note Name: A#4, Velocity: 45
Note OFF: Time 489600, Note Name: A#4
Note OFF: Time 489600, Note Name: G4
Note OFF: Time 489600, Note Name: A#3
Note ON: Time 489600, Note Name: G4, Velocity: 55
Note ON: Time 489600, Note Name: A#3, Velocity: 55
Note ON: Time 489600, Note Name: A#4, Velocity: 55
Note OFF: Time 489840, Note Name: G4
Note ON: Time 489840, Note Name: G#4, Velocity: 48
Note OFF: Time 489960, Note Name: G#4
Note ON: Time 489960, Note Name: G4, Velocity: 43
Note OFF: Time 490080, Note Name: G4
Note ON: Time 490080, Note Name: F4, Velocity: 48
Note OFF: Time 490200, Note Name: F4
Note OFF: Time 490320, Note Name: A#4
Note OFF: Time 490320, Note Name: A#3
Note ON: Time 490320, Note Name: F4, Velocity: 55
Note ON: Time 490320, Note Name: A#3, Velocity: 52
Note ON: Time 490320, Note Name: A#4, Velocity: 52
Note OFF: Time 490560, Note Name: F4
Note ON: Time 490560, Note Name: G4, Velocity: 46
Note OFF: Time 490680, Note Name: G4
Note ON: Time 490680, Note Name: F4, Velocity: 44
Note OFF: Time 490800, Note Name: F4
Note ON: Time 490800, Note Name: D#4, Velocity: 47
Note OFF: Time 490920, Note Name: D#4
Note OFF: Time 491040, Note Name: A#4
Note OFF: Time 491040, Note Name: A#3
Note ON: Time 491040, Note Name: D4, Velocity: 46
Note ON: Time 491040, Note Name: B4, Velocity: 50
Note OFF: Time 491100, Note Name: B4
Note ON: Time 491160, Note Name: B4, Velocity: 46
Note OFF: Time 491220, Note Name: B4
Note OFF: Time 491280, Note Name: D4
Note ON: Time 491280, Note Name: B4, Velocity: 50
Note OFF: Time 491340, Note Name: B4
Note ON: Time 491400, Note Name: B4, Velocity: 45
Note OFF: Time 491460, Note Name: B4
Note ON: Time 491520, Note Name: B4, Velocity: 39
Note OFF: Time 491580, Note Name: B4
Note ON: Time 491640, Note Name: B4, Velocity: 46
Note OFF: Time 491700, Note Name: B4
Note ON: Time 491760, Note Name: B4, Velocity: 48
Note OFF: Time 491880, Note Name: B4
Note ON: Time 491880, Note Name: A#4, Velocity: 43
Note OFF: Time 492000, Note Name: A#4
Note ON: Time 492000, Note Name: G4, Velocity: 47
Note OFF: Time 492120, Note Name: G4
Note ON: Time 492120, Note Name: D#4, Velocity: 41
Note OFF: Time 492240, Note Name: D#4
Note ON: Time 492240, Note Name: A#3, Velocity: 46
Note OFF: Time 492360, Note Name: A#3
Note ON: Time 492480, Note Name: G4, Velocity: 55
Note ON: Time 492480, Note Name: A#3, Velocity: 55
Note ON: Time 492480, Note Name: A#4, Velocity: 55
Note OFF: Time 492720, Note Name: G4
Note ON: Time 492720, Note Name: G#4, Velocity: 42
Note OFF: Time 492840, Note Name: G#4
Note ON: Time 492840, Note Name: G4, Velocity: 45
Note OFF: Time 492960, Note Name: G4
Note ON: Time 492960, Note Name: F4, Velocity: 48
Note OFF: Time 493080, Note Name: F4
Note OFF: Time 493200, Note Name: A#4
Note OFF: Time 493200, Note Name: A#3
Note ON: Time 493200, Note Name: F4, Velocity: 55
Note ON: Time 493200, Note Name: A#3, Velocity: 52
Note ON: Time 493200, Note Name: A#4, Velocity: 52
Note OFF: Time 493440, Note Name: F4
Note ON: Time 493440, Note Name: G4, Velocity: 46
Note OFF: Time 493560, Note Name: G4
Note ON: Time 493560, Note Name: F4, Velocity: 44
Note OFF: Time 493680, Note Name: F4
Note ON: Time 493680, Note Name: D#4, Velocity: 40
Note OFF: Time 493800, Note Name: D#4
Note OFF: Time 493920, Note Name: A#4
Note OFF: Time 493920, Note Name: A#3
Note ON: Time 493920, Note Name: D4, Velocity: 50
Note ON: Time 493920, Note Name: C5, Velocity: 50
Note OFF: Time 493980, Note Name: C5
Note OFF: Time 494040, Note Name: D4
Note ON: Time 494040, Note Name: C5, Velocity: 48
Note OFF: Time 494100, Note Name: C5
Note ON: Time 494160, Note Name: C5, Velocity: 50
Note OFF: Time 494220, Note Name: C5
Note ON: Time 494280, Note Name: C5, Velocity: 47
Note OFF: Time 494340, Note Name: C5
Note ON: Time 494400, Note Name: C5, Velocity: 44
Note OFF: Time 494460, Note Name: C5
Note ON: Time 494520, Note Name: C5, Velocity: 47
Note OFF: Time 494580, Note Name: C5
Note ON: Time 494640, Note Name: C5, Velocity: 48
Note OFF: Time 494760, Note Name: C5
Note ON: Time 494760, Note Name: A#4, Velocity: 45
Note OFF: Time 494880, Note Name: A#4
Note ON: Time 494880, Note Name: G4, Velocity: 47
Note OFF: Time 495000, Note Name: G4
Note ON: Time 495000, Note Name: D#4, Velocity: 42
Note OFF: Time 495120, Note Name: D#4
Note ON: Time 495120, Note Name: A#3, Velocity: 46
Note OFF: Time 495240, Note Name: A#3
Note ON: Time 495360, Note Name: D4, Velocity: 52
Note ON: Time 495360, Note Name: B4, Velocity: 52
Note OFF: Time 495420, Note Name: B4
Note OFF: Time 495480, Note Name: D4
Note ON: Time 495480, Note Name: B4, Velocity: 50
Note OFF: Time 495540, Note Name: B4
Note ON: Time 495600, Note Name: B4, Velocity: 53
Note OFF: Time 495660, Note Name: B4
Note ON: Time 495720, Note Name: B4, Velocity: 51
Note OFF: Time 495780, Note Name: B4
Note ON: Time 495840, Note Name: B4, Velocity: 48
Note OFF: Time 495900, Note Name: B4
Note ON: Time 495960, Note Name: B4, Velocity: 53
Note OFF: Time 496020, Note Name: B4
Note ON: Time 496080, Note Name: B4, Velocity: 56
Note OFF: Time 496200, Note Name: B4
Note ON: Time 496200, Note Name: A#4, Velocity: 53
Note OFF: Time 496320, Note Name: A#4
Note ON: Time 496320, Note Name: G#4, Velocity: 57
Note OFF: Time 496440, Note Name: G#4
Note ON: Time 496440, Note Name: F4, Velocity: 56
Note OFF: Time 496560, Note Name: F4
Note ON: Time 496560, Note Name: D4, Velocity: 55
Note OFF: Time 496680, Note Name: D4
Note ON: Time 496800, Note Name: G5, Velocity: 73
Note OFF: Time 496920, Note Name: G5
Note ON: Time 496920, Note Name: F5, Velocity: 59
Note OFF: Time 497040, Note Name: F5
Note ON: Time 497040, Note Name: D5, Velocity: 64
Note OFF: Time 497160, Note Name: D5
Note ON: Time 497160, Note Name: B4, Velocity: 59
Note OFF: Time 497280, Note Name: B4
Note ON: Time 497280, Note Name: G#4, Velocity: 58
Note OFF: Time 497400, Note Name: G#4
Note ON: Time 497520, Note Name: B5, Velocity: 80
Note OFF: Time 497640, Note Name: B5
Note ON: Time 497640, Note Name: G#5, Velocity: 67
Note OFF: Time 497760, Note Name: G#5
Note ON: Time 497760, Note Name: F5, Velocity: 71
Note OFF: Time 497880, Note Name: F5
Note ON: Time 497880, Note Name: D5, Velocity: 67
Note OFF: Time 498000, Note Name: D5
Note ON: Time 498000, Note Name: B4, Velocity: 68
Note OFF: Time 498120, Note Name: B4
Note ON: Time 498240, Note Name: B6, Velocity: 90
Note OFF: Time 498360, Note Name: B6
Note ON: Time 498360, Note Name: G6, Velocity: 74
Note OFF: Time 498480, Note Name: G6
Note ON: Time 498480, Note Name: B6, Velocity: 77
Note OFF: Time 498600, Note Name: B6
Note ON: Time 498600, Note Name: G#6, Velocity: 76
Note OFF: Time 498720, Note Name: G#6
Note ON: Time 498720, Note Name: F6, Velocity: 74
Note OFF: Time 498840, Note Name: F6
Note ON: Time 498840, Note Name: D6, Velocity: 72
Note OFF: Time 498960, Note Name: D6
Note ON: Time 498960, Note Name: B5, Velocity: 80
Note OFF: Time 499080, Note Name: B5
Note ON: Time 499080, Note Name: G5, Velocity: 73
Note OFF: Time 499200, Note Name: G5
Note ON: Time 499200, Note Name: B5, Velocity: 77
Note OFF: Time 499320, Note Name: B5
Note ON: Time 499320, Note Name: G#5, Velocity: 76
Note OFF: Time 499440, Note Name: G#5
Note ON: Time 499440, Note Name: F5, Velocity: 76
Note OFF: Time 499560, Note Name: F5
Note ON: Time 499560, Note Name: D5, Velocity: 75
Note OFF: Time 499680, Note Name: D5
Note ON: Time 499680, Note Name: B4, Velocity: 80
Note OFF: Time 499800, Note Name: B4
Note ON: Time 499800, Note Name: G4, Velocity: 73
Note OFF: Time 499920, Note Name: G4
Note ON: Time 499920, Note Name: A#4, Velocity: 75
Note OFF: Time 500040, Note Name: A#4
Note ON: Time 500040, Note Name: G#4, Velocity: 74
Note OFF: Time 500160, Note Name: G#4
Note ON: Time 500160, Note Name: F4, Velocity: 73
Note OFF: Time 500280, Note Name: F4
Note ON: Time 500280, Note Name: D4, Velocity: 72
Note OFF: Time 500400, Note Name: D4
Note ON: Time 500400, Note Name: B3, Velocity: 80
Note OFF: Time 500520, Note Name: B3
Note ON: Time 500520, Note Name: G3, Velocity: 73
Note OFF: Time 500640, Note Name: G3
Note ON: Time 500640, Note Name: B3, Velocity: 76
Note OFF: Time 500760, Note Name: B3
Note ON: Time 500760, Note Name: G#3, Velocity: 75
Note OFF: Time 500880, Note Name: G#3
Note ON: Time 500880, Note Name: F3, Velocity: 75
Note OFF: Time 501000, Note Name: F3
Note ON: Time 501000, Note Name: D3, Velocity: 74
Note OFF: Time 501120, Note Name: D3
Note ON: Time 501120, Note Name: D#3, Velocity: 89
Note OFF: Time 501240, Note Name: D#3
Note ON: Time 501360, Note Name: G3, Velocity: 50
Note OFF: Time 501480, Note Name: G3
Note ON: Time 501480, Note Name: G#3, Velocity: 50
Note OFF: Time 501600, Note Name: G#3
Note ON: Time 501600, Note Name: A#3, Velocity: 50
Note OFF: Time 501720, Note Name: A#3
Note ON: Time 501720, Note Name: C4, Velocity: 50
Note OFF: Time 501840, Note Name: C4
Note ON: Time 501840, Note Name: D4, Velocity: 50
Note OFF: Time 501960, Note Name: D4
Note ON: Time 501960, Note Name: D#4, Velocity: 50
Note OFF: Time 502080, Note Name: D#4
Note ON: Time 502080, Note Name: F4, Velocity: 50
Note OFF: Time 502200, Note Name: F4
Note ON: Time 502200, Note Name: G4, Velocity: 50
Note OFF: Time 502320, Note Name: G4
Note ON: Time 502320, Note Name: G#4, Velocity: 50
Note OFF: Time 502440, Note Name: G#4
Note ON: Time 502440, Note Name: A4, Velocity: 50
Note OFF: Time 502560, Note Name: A4
Note ON: Time 502560, Note Name: C5, Velocity: 53
Note OFF: Time 502680, Note Name: C5
Note ON: Time 502680, Note Name: A#4, Velocity: 50
Note OFF: Time 502800, Note Name: A#4
Note ON: Time 502800, Note Name: G4, Velocity: 45
Note OFF: Time 502920, Note Name: G4
Note ON: Time 502920, Note Name: G#4, Velocity: 45
Note OFF: Time 503040, Note Name: G#4
Note ON: Time 503040, Note Name: A#4, Velocity: 46
Note OFF: Time 503160, Note Name: A#4
Note ON: Time 503160, Note Name: C5, Velocity: 47
Note OFF: Time 503280, Note Name: C5
Note ON: Time 503280, Note Name: D5, Velocity: 50
Note OFF: Time 503400, Note Name: D5
Note ON: Time 503400, Note Name: D#5, Velocity: 50
Note OFF: Time 503520, Note Name: D#5
Note ON: Time 503520, Note Name: F5, Velocity: 50
Note OFF: Time 503640, Note Name: F5
Note ON: Time 503640, Note Name: G5, Velocity: 49
Note OFF: Time 503760, Note Name: G5
Note ON: Time 503760, Note Name: G#5, Velocity: 51
Note OFF: Time 503880, Note Name: G#5
Note ON: Time 503880, Note Name: A5, Velocity: 53
Note OFF: Time 504000, Note Name: A5
Note ON: Time 504000, Note Name: C6, Velocity: 59
Note OFF: Time 504120, Note Name: C6
Note ON: Time 504120, Note Name: A#5, Velocity: 55
Note OFF: Time 504240, Note Name: A#5
Note ON: Time 504240, Note Name: G5, Velocity: 51
Note OFF: Time 504360, Note Name: G5
Note ON: Time 504360, Note Name: G#5, Velocity: 50
Note OFF: Time 504480, Note Name: G#5
Note ON: Time 504480, Note Name: A#5, Velocity: 50
Note OFF: Time 504600, Note Name: A#5
Note ON: Time 504600, Note Name: C6, Velocity: 51
Note OFF: Time 504720, Note Name: C6
Note ON: Time 504720, Note Name: D6, Velocity: 52
Note OFF: Time 504840, Note Name: D6
Note ON: Time 504840, Note Name: D#6, Velocity: 53
Note OFF: Time 504960, Note Name: D#6
Note ON: Time 504960, Note Name: F6, Velocity: 54
Note OFF: Time 505080, Note Name: F6
Note ON: Time 505080, Note Name: G6, Velocity: 55
Note OFF: Time 505200, Note Name: G6
Note ON: Time 505200, Note Name: G#6, Velocity: 55
Note OFF: Time 505320, Note Name: G#6
Note ON: Time 505320, Note Name: A6, Velocity: 56
Note OFF: Time 505440, Note Name: A6
Note ON: Time 505440, Note Name: C7, Velocity: 65
Note OFF: Time 505560, Note Name: C7
Note ON: Time 505560, Note Name: A#6, Velocity: 58
Note OFF: Time 505680, Note Name: A#6
Note ON: Time 505680, Note Name: G6, Velocity: 55
Note OFF: Time 505800, Note Name: G6
Note ON: Time 505800, Note Name: G#6, Velocity: 51
Note OFF: Time 505920, Note Name: G#6
Note ON: Time 505920, Note Name: A6, Velocity: 53
Note OFF: Time 506040, Note Name: A6
Note ON: Time 506040, Note Name: A#6, Velocity: 55
Note OFF: Time 506160, Note Name: A#6
Note ON: Time 506160, Note Name: C7, Velocity: 64
Note OFF: Time 506280, Note Name: C7
Note ON: Time 506280, Note Name: A#6, Velocity: 59
Note OFF: Time 506400, Note Name: A#6
Note ON: Time 506400, Note Name: G6, Velocity: 51
Note OFF: Time 506520, Note Name: G6
Note ON: Time 506520, Note Name: G#6, Velocity: 52
Note OFF: Time 506640, Note Name: G#6
Note ON: Time 506640, Note Name: A6, Velocity: 54
Note OFF: Time 506760, Note Name: A6
Note ON: Time 506760, Note Name: A#6, Velocity: 55
Note OFF: Time 506880, Note Name: A#6
Note ON: Time 506880, Note Name: D#7, Velocity: 57
Note OFF: Time 507000, Note Name: D#7
Note ON: Time 507120, Note Name: G6, Velocity: 50
Note OFF: Time 507240, Note Name: G6
Note ON: Time 507240, Note Name: G#6, Velocity: 51
Note OFF: Time 507360, Note Name: G#6
Note ON: Time 507360, Note Name: A6, Velocity: 53
Note OFF: Time 507480, Note Name: A6
Note ON: Time 507480, Note Name: A#6, Velocity: 55
Note OFF: Time 507600, Note Name: A#6
Note ON: Time 507600, Note Name: D#7, Velocity: 57
Note OFF: Time 507720, Note Name: D#7
Note ON: Time 507840, Note Name: G6, Velocity: 46
Note OFF: Time 507960, Note Name: G6
Note ON: Time 507960, Note Name: G#6, Velocity: 48
Note OFF: Time 508080, Note Name: G#6
Note ON: Time 508080, Note Name: A6, Velocity: 50
Note OFF: Time 508200, Note Name: A6
Note ON: Time 508200, Note Name: A#6, Velocity: 52
Note OFF: Time 508320, Note Name: A#6
Note ON: Time 508320, Note Name: D#7, Velocity: 54
Note OFF: Time 508440, Note Name: D#7
Note ON: Time 508560, Note Name: G6, Velocity: 49
Note OFF: Time 508680, Note Name: G6
Note ON: Time 508680, Note Name: G#6, Velocity: 50
Note OFF: Time 508800, Note Name: G#6
Note ON: Time 508800, Note Name: A6, Velocity: 52
Note OFF: Time 508920, Note Name: A6
Note ON: Time 508920, Note Name: A#6, Velocity: 53
Note OFF: Time 509040, Note Name: A#6
Note ON: Time 509040, Note Name: D#7, Velocity: 55
Note OFF: Time 509160, Note Name: D#7
Note ON: Time 509280, Note Name: G6, Velocity: 50
Note OFF: Time 509400, Note Name: G6
Note ON: Time 509400, Note Name: G#6, Velocity: 52
Note OFF: Time 509520, Note Name: G#6
Note ON: Time 509520, Note Name: A6, Velocity: 55
Note OFF: Time 509640, Note Name: A6
Note ON: Time 509640, Note Name: A#6, Velocity: 57
Note OFF: Time 509760, Note Name: A#6
Note ON: Time 509760, Note Name: D#7, Velocity: 59
Note OFF: Time 509880, Note Name: D#7
Note ON: Time 510000, Note Name: G6, Velocity: 50
Note OFF: Time 510120, Note Name: G6
Note ON: Time 510120, Note Name: G#6, Velocity: 51
Note OFF: Time 510240, Note Name: G#6
Note ON: Time 510240, Note Name: A6, Velocity: 53
Note OFF: Time 510360, Note Name: A6
Note ON: Time 510360, Note Name: A#6, Velocity: 55
Note OFF: Time 510480, Note Name: A#6
Note ON: Time 510480, Note Name: D#7, Velocity: 57
Note OFF: Time 510600, Note Name: D#7
Note ON: Time 510720, Note Name: G6, Velocity: 44
Note OFF: Time 510840, Note Name: G6
Note ON: Time 510840, Note Name: G#6, Velocity: 46
Note OFF: Time 510960, Note Name: G#6
Note ON: Time 510960, Note Name: A6, Velocity: 48
Note OFF: Time 511080, Note Name: A6
Note ON: Time 511080, Note Name: A#6, Velocity: 50
Note OFF: Time 511200, Note Name: A#6
Note ON: Time 511200, Note Name: D#7, Velocity: 53
Note OFF: Time 511320, Note Name: D#7
Note ON: Time 511440, Note Name: G6, Velocity: 33
Note OFF: Time 511560, Note Name: G6
Note ON: Time 511560, Note Name: G#6, Velocity: 35
Note OFF: Time 511680, Note Name: G#6
Note ON: Time 511680, Note Name: A6, Velocity: 37
Note OFF: Time 511800, Note Name: A6
Note ON: Time 511800, Note Name: A#6, Velocity: 39
Note OFF: Time 511920, Note Name: A#6
Note ON: Time 511920, Note Name: D#7, Velocity: 42
Note OFF: Time 512040, Note Name: D#7
Note ON: Time 512160, Note Name: G6, Velocity: 30
Note OFF: Time 512280, Note Name: G6
Note ON: Time 512280, Note Name: G#6, Velocity: 31
Note OFF: Time 512400, Note Name: G#6
Note ON: Time 512400, Note Name: A6, Velocity: 32
Note OFF: Time 512520, Note Name: A6
Note ON: Time 512520, Note Name: A#6, Velocity: 33
Note OFF: Time 512640, Note Name: A#6
Note ON: Time 512640, Note Name: D#7, Velocity: 34
Note ON: Time 512640, Note Name: G6, Velocity: 34
Note OFF: Time 512760, Note Name: G6
Note OFF: Time 512760, Note Name: D#7
Note ON: Time 514080, Note Name: G6, Velocity: 92
Note ON: Time 514080, Note Name: D#6, Velocity: 92
Note ON: Time 514080, Note Name: A#5, Velocity: 78
Note ON: Time 514080, Note Name: G5, Velocity: 78
Note OFF: Time 514200, Note Name: G5
Note OFF: Time 514200, Note Name: G6
Note OFF: Time 514200, Note Name: D#6
Note OFF: Time 514200, Note Name: A#5
Note ON: Time 514800, Note Name: G5, Velocity: 92
Note ON: Time 514800, Note Name: D#5, Velocity: 92
Note ON: Time 514800, Note Name: A#4, Velocity: 78
Note ON: Time 514800, Note Name: G4, Velocity: 78
Note OFF: Time 514920, Note Name: G4
Note OFF: Time 514920, Note Name: G5
Note OFF: Time 514920, Note Name: D#5
Note OFF: Time 514920, Note Name: A#4
Note ON: Time 515040, Note Name: G5, Velocity: 92
Note ON: Time 515040, Note Name: D#5, Velocity: 92
Note ON: Time 515040, Note Name: A#4, Velocity: 78
Note ON: Time 515040, Note Name: G4, Velocity: 78
Note OFF: Time 515160, Note Name: G4
Note OFF: Time 515160, Note Name: G5
Note OFF: Time 515160, Note Name: D#5
Note OFF: Time 515160, Note Name: A#4
Note ON: Time 515280, Note Name: G5, Velocity: 92
Note ON: Time 515280, Note Name: D#5, Velocity: 92
Note ON: Time 515280, Note Name: A#4, Velocity: 78
Note ON: Time 515280, Note Name: G4, Velocity: 78
Note OFF: Time 515400, Note Name: G4
Note OFF: Time 515400, Note Name: G5
Note OFF: Time 515400, Note Name: D#5
Note OFF: Time 515400, Note Name: A#4
Note ON: Time 515520, Note Name: D#3, Velocity: 113
Note OFF: Time 516240, Note Name: D#3
Track 2: Piano left
Note ON: Time 5760, Note Name: A#2, Velocity: 40
Note OFF: Time 6000, Note Name: A#2
Note ON: Time 6240, Note Name: G#4, Velocity: 47
Note ON: Time 6240, Note Name: F4, Velocity: 47
Note ON: Time 6240, Note Name: A#3, Velocity: 47
Note OFF: Time 6600, Note Name: A#3
Note OFF: Time 6600, Note Name: F4
Note OFF: Time 6600, Note Name: G#4
Note ON: Time 6720, Note Name: G#4, Velocity: 51
Note ON: Time 6720, Note Name: F4, Velocity: 51
Note ON: Time 6720, Note Name: A#3, Velocity: 51
Note OFF: Time 7080, Note Name: A#3
Note OFF: Time 7080, Note Name: F4
Note OFF: Time 7080, Note Name: G#4
Note ON: Time 7200, Note Name: D#3, Velocity: 40
Note OFF: Time 7440, Note Name: D#3
Note ON: Time 7680, Note Name: G4, Velocity: 46
Note ON: Time 7680, Note Name: D#4, Velocity: 46
Note ON: Time 7680, Note Name: A#3, Velocity: 46
Note OFF: Time 8040, Note Name: A#3
Note OFF: Time 8040, Note Name: D#4
Note OFF: Time 8040, Note Name: G4
Note ON: Time 8160, Note Name: G4, Velocity: 50
Note ON: Time 8160, Note Name: D#4, Velocity: 50
Note ON: Time 8160, Note Name: A#3, Velocity: 50
Note OFF: Time 8520, Note Name: A#3
Note OFF: Time 8520, Note Name: D#4
Note OFF: Time 8520, Note Name: G4
Note ON: Time 8640, Note Name: D3, Velocity: 44
Note OFF: Time 8880, Note Name: D3
Note ON: Time 9120, Note Name: G#4, Velocity: 54
Note ON: Time 9120, Note Name: F4, Velocity: 54
Note ON: Time 9120, Note Name: A#3, Velocity: 54
Note OFF: Time 9480, Note Name: A#3
Note OFF: Time 9480, Note Name: F4
Note OFF: Time 9480, Note Name: G#4
Note ON: Time 9600, Note Name: G#4, Velocity: 59
Note ON: Time 9600, Note Name: F4, Velocity: 59
Note ON: Time 9600, Note Name: A#3, Velocity: 59
Note OFF: Time 9960, Note Name: A#3
Note OFF: Time 9960, Note Name: F4
Note OFF: Time 9960, Note Name: G#4
Note ON: Time 10080, Note Name: D#3, Velocity: 69
Note OFF: Time 10320, Note Name: D#3
Note ON: Time 10560, Note Name: G4, Velocity: 62
Note ON: Time 10560, Note Name: C#4, Velocity: 62
Note ON: Time 10560, Note Name: A#3, Velocity: 62
Note OFF: Time 10800, Note Name: A#3
Note OFF: Time 10800, Note Name: C#4
Note OFF: Time 10800, Note Name: G4
Note ON: Time 11040, Note Name: E3, Velocity: 70
Note OFF: Time 11520, Note Name: E3
Note ON: Time 11520, Note Name: F3, Velocity: 36
Note OFF: Time 11760, Note Name: F3
Note ON: Time 12000, Note Name: F4, Velocity: 33
Note ON: Time 12000, Note Name: G#3, Velocity: 33
Note OFF: Time 12240, Note Name: G#3
Note OFF: Time 12240, Note Name: F4
Note ON: Time 12480, Note Name: G#2, Velocity: 37
Note OFF: Time 12720, Note Name: G#2
Note ON: Time 12960, Note Name: A#2, Velocity: 58
Note OFF: Time 13200, Note Name: A#2
Note ON: Time 13440, Note Name: D#4, Velocity: 31
Note ON: Time 13440, Note Name: G3, Velocity: 31
Note OFF: Time 13800, Note Name: G3
Note OFF: Time 13800, Note Name: D#4
Note ON: Time 13920, Note Name: D#4, Velocity: 44
Note ON: Time 13920, Note Name: G3, Velocity: 44
Note OFF: Time 14160, Note Name: G3
Note OFF: Time 14160, Note Name: D#4
Note ON: Time 14400, Note Name: A#2, Velocity: 37
Note OFF: Time 14640, Note Name: A#2
Note ON: Time 14880, Note Name: D4, Velocity: 38
Note ON: Time 14880, Note Name: F3, Velocity: 38
Note OFF: Time 15240, Note Name: F3
Note OFF: Time 15240, Note Name: D4
Note ON: Time 15360, Note Name: D4, Velocity: 45
Note ON: Time 15360, Note Name: A#3, Velocity: 45
Note OFF: Time 15600, Note Name: A#3
Note OFF: Time 15600, Note Name: D4
Note ON: Time 15840, Note Name: D#3, Velocity: 28
Note ON: Time 16320, Note Name: D#4, Velocity: 35
Note ON: Time 16320, Note Name: A#3, Velocity: 35
Note OFF: Time 16680, Note Name: A#3
Note OFF: Time 16680, Note Name: D#4
Note ON: Time 16800, Note Name: D#4, Velocity: 57
Note ON: Time 16800, Note Name: A#3, Velocity: 57
Note OFF: Time 17040, Note Name: A#3
Note OFF: Time 17040, Note Name: D#4
Note OFF: Time 17280, Note Name: D#3
Note ON: Time 17280, Note Name: A#2, Velocity: 61
Note OFF: Time 17520, Note Name: A#2
Note ON: Time 17760, Note Name: G#4, Velocity: 32
Note ON: Time 17760, Note Name: F4, Velocity: 32
Note ON: Time 17760, Note Name: A#3, Velocity: 32
Note OFF: Time 18120, Note Name: A#3
Note OFF: Time 18120, Note Name: F4
Note OFF: Time 18120, Note Name: G#4
Note ON: Time 18240, Note Name: G#4, Velocity: 32
Note ON: Time 18240, Note Name: F4, Velocity: 32
Note ON: Time 18240, Note Name: A#3, Velocity: 32
Note OFF: Time 18600, Note Name: A#3
Note OFF: Time 18600, Note Name: F4
Note OFF: Time 18600, Note Name: G#4
Note ON: Time 18720, Note Name: D#3, Velocity: 43
Note OFF: Time 18960, Note Name: D#3
Note ON: Time 19200, Note Name: G4, Velocity: 37
Note ON: Time 19200, Note Name: D#4, Velocity: 37
Note ON: Time 19200, Note Name: A#3, Velocity: 37
Note OFF: Time 19560, Note Name: A#3
Note OFF: Time 19560, Note Name: D#4
Note OFF: Time 19560, Note Name: G4
Note ON: Time 19680, Note Name: G4, Velocity: 48
Note ON: Time 19680, Note Name: D#4, Velocity: 48
Note ON: Time 19680, Note Name: A#3, Velocity: 48
Note OFF: Time 20040, Note Name: A#3
Note OFF: Time 20040, Note Name: D#4
Note OFF: Time 20040, Note Name: G4
Note ON: Time 20160, Note Name: D3, Velocity: 60
Note OFF: Time 20400, Note Name: D3
Note ON: Time 20640, Note Name: G#4, Velocity: 62
Note ON: Time 20640, Note Name: F4, Velocity: 62
Note ON: Time 20640, Note Name: A#3, Velocity: 62
Note OFF: Time 21000, Note Name: A#3
Note OFF: Time 21000, Note Name: F4
Note OFF: Time 21000, Note Name: G#4
Note ON: Time 21120, Note Name: G#4, Velocity: 66
Note ON: Time 21120, Note Name: F4, Velocity: 66
Note ON: Time 21120, Note Name: A#3, Velocity: 66
Note OFF: Time 21480, Note Name: A#3
Note OFF: Time 21480, Note Name: F4
Note OFF: Time 21480, Note Name: G#4
Note ON: Time 21600, Note Name: D#3, Velocity: 61
Note OFF: Time 21840, Note Name: D#3
Note ON: Time 22080, Note Name: G4, Velocity: 42
Note ON: Time 22080, Note Name: C#4, Velocity: 42
Note ON: Time 22080, Note Name: A#3, Velocity: 42
Note OFF: Time 22320, Note Name: A#3
Note OFF: Time 22320, Note Name: C#4
Note OFF: Time 22320, Note Name: G4
Note ON: Time 22560, Note Name: E3, Velocity: 32
Note OFF: Time 23040, Note Name: E3
Note ON: Time 23040, Note Name: F3, Velocity: 43
Note OFF: Time 23280, Note Name: F3
Note ON: Time 23520, Note Name: F4, Velocity: 49
Note ON: Time 23520, Note Name: G#3, Velocity: 49
Note OFF: Time 23760, Note Name: G#3
Note OFF: Time 23760, Note Name: F4
Note ON: Time 24000, Note Name: G#2, Velocity: 37
Note OFF: Time 24240, Note Name: G#2
Note ON: Time 24480, Note Name: A#2, Velocity: 43
Note OFF: Time 24720, Note Name: A#2
Note ON: Time 24960, Note Name: D#4, Velocity: 31
Note ON: Time 24960, Note Name: G3, Velocity: 31
Note OFF: Time 25440, Note Name: G3
Note OFF: Time 25440, Note Name: D#4
Note ON: Time 25440, Note Name: D#4, Velocity: 41
Note ON: Time 25440, Note Name: G3, Velocity: 41
Note OFF: Time 25680, Note Name: G3
Note OFF: Time 25680, Note Name: D#4
Note ON: Time 25920, Note Name: A#2, Velocity: 33
Note OFF: Time 26160, Note Name: A#2
Note ON: Time 26400, Note Name: D4, Velocity: 40
Note ON: Time 26400, Note Name: F3, Velocity: 40
Note OFF: Time 26880, Note Name: F3
Note OFF: Time 26880, Note Name: D4
Note ON: Time 26880, Note Name: D4, Velocity: 27
Note ON: Time 26880, Note Name: A#3, Velocity: 27
Note OFF: Time 27360, Note Name: D4
Note ON: Time 27360, Note Name: D#3, Velocity: 44
Note ON: Time 27360, Note Name: D#4, Velocity: 44
Note OFF: Time 27840, Note Name: D#4
Note OFF: Time 27840, Note Name: D#3
Note OFF: Time 27840, Note Name: A#3
Note ON: Time 28800, Note Name: A#2, Velocity: 26
Note OFF: Time 29040, Note Name: A#2
Note ON: Time 29280, Note Name: G#4, Velocity: 38
Note ON: Time 29280, Note Name: F4, Velocity: 38
Note ON: Time 29280, Note Name: A#3, Velocity: 38
Note OFF: Time 29640, Note Name: A#3
Note OFF: Time 29640, Note Name: F4
Note OFF: Time 29640, Note Name: G#4
Note ON: Time 29760, Note Name: G#4, Velocity: 34
Note ON: Time 29760, Note Name: F4, Velocity: 34
Note ON: Time 29760, Note Name: A#3, Velocity: 34
Note OFF: Time 30120, Note Name: A#3
Note OFF: Time 30120, Note Name: F4
Note OFF: Time 30120, Note Name: G#4
Note ON: Time 30240, Note Name: D#3, Velocity: 34
Note OFF: Time 30480, Note Name: D#3
Note ON: Time 30720, Note Name: G4, Velocity: 46
Note ON: Time 30720, Note Name: D#4, Velocity: 46
Note ON: Time 30720, Note Name: A#3, Velocity: 46
Note OFF: Time 31080, Note Name: A#3
Note OFF: Time 31080, Note Name: D#4
Note OFF: Time 31080, Note Name: G4
Note ON: Time 31200, Note Name: G4, Velocity: 57
Note ON: Time 31200, Note Name: D#4, Velocity: 57
Note ON: Time 31200, Note Name: A#3, Velocity: 57
Note OFF: Time 31560, Note Name: A#3
Note OFF: Time 31560, Note Name: D#4
Note OFF: Time 31560, Note Name: G4
Note ON: Time 31680, Note Name: D3, Velocity: 71
Note OFF: Time 31920, Note Name: D3
Note ON: Time 32160, Note Name: G#4, Velocity: 52
Note ON: Time 32160, Note Name: F4, Velocity: 52
Note ON: Time 32160, Note Name: A#3, Velocity: 52
Note OFF: Time 32520, Note Name: A#3
Note OFF: Time 32520, Note Name: F4
Note OFF: Time 32520, Note Name: G#4
Note ON: Time 32640, Note Name: G#4, Velocity: 56
Note ON: Time 32640, Note Name: F4, Velocity: 56
Note ON: Time 32640, Note Name: A#3, Velocity: 56
Note OFF: Time 33000, Note Name: A#3
Note OFF: Time 33000, Note Name: F4
Note OFF: Time 33000, Note Name: G#4
Note ON: Time 33120, Note Name: D#3, Velocity: 62
Note OFF: Time 33360, Note Name: D#3
Note ON: Time 33600, Note Name: G4, Velocity: 56
Note ON: Time 33600, Note Name: C#4, Velocity: 56
Note ON: Time 33600, Note Name: A#3, Velocity: 56
Note OFF: Time 33840, Note Name: A#3
Note OFF: Time 33840, Note Name: C#4
Note OFF: Time 33840, Note Name: G4
Note ON: Time 34080, Note Name: E3, Velocity: 37
Note OFF: Time 34560, Note Name: E3
Note ON: Time 34560, Note Name: F3, Velocity: 40
Note OFF: Time 34800, Note Name: F3
Note ON: Time 35040, Note Name: F4, Velocity: 34
Note ON: Time 35040, Note Name: G#3, Velocity: 34
Note OFF: Time 35280, Note Name: G#3
Note OFF: Time 35280, Note Name: F4
Note ON: Time 35520, Note Name: G#2, Velocity: 38
Note OFF: Time 35760, Note Name: G#2
Note ON: Time 36000, Note Name: A#2, Velocity: 31
Note OFF: Time 36240, Note Name: A#2
Note ON: Time 36480, Note Name: D#4, Velocity: 33
Note ON: Time 36480, Note Name: G3, Velocity: 33
Note OFF: Time 36960, Note Name: G3
Note OFF: Time 36960, Note Name: D#4
Note ON: Time 36960, Note Name: D#4, Velocity: 43
Note ON: Time 36960, Note Name: G3, Velocity: 43
Note OFF: Time 37200, Note Name: G3
Note OFF: Time 37200, Note Name: D#4
Note ON: Time 37440, Note Name: A#2, Velocity: 50
Note OFF: Time 37680, Note Name: A#2
Note ON: Time 37920, Note Name: D4, Velocity: 37
Note ON: Time 37920, Note Name: F3, Velocity: 37
Note OFF: Time 38400, Note Name: F3
Note OFF: Time 38400, Note Name: D4
Note ON: Time 38400, Note Name: D4, Velocity: 27
Note ON: Time 38400, Note Name: A#3, Velocity: 27
Note OFF: Time 38640, Note Name: A#3
Note OFF: Time 38640, Note Name: D4
Note ON: Time 38880, Note Name: D#3, Velocity: 33
Note ON: Time 39360, Note Name: D#4, Velocity: 36
Note ON: Time 39360, Note Name: A#3, Velocity: 36
Note OFF: Time 39840, Note Name: A#3
Note OFF: Time 39840, Note Name: D#4
Note ON: Time 39840, Note Name: D#4, Velocity: 42
Note ON: Time 39840, Note Name: A#3, Velocity: 42
Note OFF: Time 40080, Note Name: A#3
Note OFF: Time 40080, Note Name: D#4
Note OFF: Time 40320, Note Name: D#3
Note ON: Time 40320, Note Name: A#2, Velocity: 58
Note OFF: Time 40560, Note Name: A#2
Note ON: Time 40800, Note Name: G#4, Velocity: 47
Note ON: Time 40800, Note Name: F4, Velocity: 47
Note ON: Time 40800, Note Name: A#3, Velocity: 47
Note OFF: Time 41160, Note Name: A#3
Note OFF: Time 41160, Note Name: F4
Note OFF: Time 41160, Note Name: G#4
Note ON: Time 41280, Note Name: G#4, Velocity: 44
Note ON: Time 41280, Note Name: F4, Velocity: 44
Note ON: Time 41280, Note Name: A#3, Velocity: 44
Note OFF: Time 41640, Note Name: A#3
Note OFF: Time 41640, Note Name: F4
Note OFF: Time 41640, Note Name: G#4
Note ON: Time 41760, Note Name: D#3, Velocity: 49
Note OFF: Time 42000, Note Name: D#3
Note ON: Time 42240, Note Name: G4, Velocity: 43
Note ON: Time 42240, Note Name: D#4, Velocity: 43
Note ON: Time 42240, Note Name: A#3, Velocity: 43
Note OFF: Time 42600, Note Name: A#3
Note OFF: Time 42600, Note Name: D#4
Note OFF: Time 42600, Note Name: G4
Note ON: Time 42720, Note Name: G4, Velocity: 64
Note ON: Time 42720, Note Name: D#4, Velocity: 64
Note ON: Time 42720, Note Name: A#3, Velocity: 64
Note OFF: Time 43080, Note Name: A#3
Note OFF: Time 43080, Note Name: D#4
Note OFF: Time 43080, Note Name: G4
Note ON: Time 43200, Note Name: D3, Velocity: 67
Note OFF: Time 43440, Note Name: D3
Note ON: Time 43680, Note Name: G#4, Velocity: 49
Note ON: Time 43680, Note Name: F4, Velocity: 49
Note ON: Time 43680, Note Name: A#3, Velocity: 49
Note OFF: Time 44040, Note Name: A#3
Note OFF: Time 44040, Note Name: F4
Note OFF: Time 44040, Note Name: G#4
Note ON: Time 44160, Note Name: G#4, Velocity: 61
Note ON: Time 44160, Note Name: F4, Velocity: 61
Note ON: Time 44160, Note Name: A#3, Velocity: 61
Note OFF: Time 44520, Note Name: A#3
Note OFF: Time 44520, Note Name: F4
Note OFF: Time 44520, Note Name: G#4
Note ON: Time 44640, Note Name: D#3, Velocity: 65
Note OFF: Time 44880, Note Name: D#3
Note ON: Time 45120, Note Name: G4, Velocity: 48
Note ON: Time 45120, Note Name: C#4, Velocity: 48
Note ON: Time 45120, Note Name: A#3, Velocity: 48
Note OFF: Time 45360, Note Name: A#3
Note OFF: Time 45360, Note Name: C#4
Note OFF: Time 45360, Note Name: G4
Note ON: Time 45600, Note Name: E3, Velocity: 49
Note OFF: Time 46080, Note Name: E3
Note ON: Time 46080, Note Name: F3, Velocity: 44
Note OFF: Time 46320, Note Name: F3
Note ON: Time 46560, Note Name: F4, Velocity: 33
Note ON: Time 46560, Note Name: G#3, Velocity: 33
Note OFF: Time 46800, Note Name: G#3
Note OFF: Time 46800, Note Name: F4
Note ON: Time 47040, Note Name: G#2, Velocity: 28
Note OFF: Time 47280, Note Name: G#2
Note ON: Time 47520, Note Name: A#2, Velocity: 26
Note OFF: Time 47760, Note Name: A#2
Note ON: Time 48000, Note Name: D#4, Velocity: 34
Note ON: Time 48000, Note Name: G3, Velocity: 34
Note OFF: Time 48360, Note Name: G3
Note OFF: Time 48360, Note Name: D#4
Note ON: Time 48480, Note Name: D#4, Velocity: 38
Note ON: Time 48480, Note Name: G3, Velocity: 38
Note OFF: Time 48720, Note Name: G3
Note OFF: Time 48720, Note Name: D#4
Note ON: Time 48960, Note Name: A#2, Velocity: 30
Note OFF: Time 49200, Note Name: A#2
Note ON: Time 49440, Note Name: D4, Velocity: 36
Note ON: Time 49440, Note Name: F3, Velocity: 36
Note OFF: Time 49920, Note Name: F3
Note OFF: Time 49920, Note Name: D4
Note ON: Time 49920, Note Name: D4, Velocity: 24
Note ON: Time 49920, Note Name: A#3, Velocity: 24
Note OFF: Time 50400, Note Name: A#3
Note OFF: Time 50400, Note Name: D4
Note ON: Time 50400, Note Name: D#3, Velocity: 30
Note ON: Time 50880, Note Name: D#4, Velocity: 45
Note ON: Time 50880, Note Name: G3, Velocity: 45
Note OFF: Time 51360, Note Name: G3
Note OFF: Time 51360, Note Name: D#4
Note OFF: Time 51360, Note Name: D#3
Note ON: Time 51360, Note Name: D#3, Velocity: 52
Note ON: Time 51360, Note Name: C#4, Velocity: 52
Note ON: Time 51360, Note Name: G3, Velocity: 52
Note OFF: Time 51840, Note Name: G3
Note OFF: Time 51840, Note Name: C#4
Note OFF: Time 51840, Note Name: D#3
Note ON: Time 51840, Note Name: G#2, Velocity: 25
Note OFF: Time 52320, Note Name: G#2
Note ON: Time 52320, Note Name: C4, Velocity: 33
Note ON: Time 52320, Note Name: G#3, Velocity: 33
Note ON: Time 52320, Note Name: D#3, Velocity: 33
Note OFF: Time 52680, Note Name: D#3
Note OFF: Time 52680, Note Name: G#3
Note OFF: Time 52680, Note Name: C4
Note ON: Time 52800, Note Name: C4, Velocity: 41
Note ON: Time 52800, Note Name: G#3, Velocity: 41
Note ON: Time 52800, Note Name: D#3, Velocity: 41
Note OFF: Time 53160, Note Name: D#3
Note OFF: Time 53160, Note Name: G#3
Note OFF: Time 53160, Note Name: C4
Note ON: Time 53280, Note Name: G#2, Velocity: 33
Note OFF: Time 53760, Note Name: G#2
Note ON: Time 53760, Note Name: C4, Velocity: 33
Note ON: Time 53760, Note Name: G#3, Velocity: 33
Note ON: Time 53760, Note Name: D#3, Velocity: 33
Note OFF: Time 54120, Note Name: D#3
Note OFF: Time 54120, Note Name: G#3
Note OFF: Time 54120, Note Name: C4
Note ON: Time 54240, Note Name: D#3, Velocity: 37
Note ON: Time 54240, Note Name: G#3, Velocity: 37
Note ON: Time 54240, Note Name: C4, Velocity: 37
Note OFF: Time 54600, Note Name: C4
Note OFF: Time 54600, Note Name: G#3
Note OFF: Time 54600, Note Name: D#3
Note ON: Time 54720, Note Name: G#2, Velocity: 37
Note OFF: Time 55200, Note Name: G#2
Note ON: Time 55200, Note Name: B3, Velocity: 26
Note ON: Time 55200, Note Name: G#3, Velocity: 26
Note ON: Time 55200, Note Name: D3, Velocity: 26
Note OFF: Time 55560, Note Name: D3
Note OFF: Time 55560, Note Name: G#3
Note OFF: Time 55560, Note Name: B3
Note ON: Time 55680, Note Name: D3, Velocity: 32
Note ON: Time 55680, Note Name: G#3, Velocity: 32
Note ON: Time 55680, Note Name: B3, Velocity: 32
Note OFF: Time 56040, Note Name: B3
Note OFF: Time 56040, Note Name: G#3
Note OFF: Time 56040, Note Name: D3
Note ON: Time 56160, Note Name: G#2, Velocity: 38
Note OFF: Time 56640, Note Name: G#2
Note ON: Time 56640, Note Name: C4, Velocity: 29
Note ON: Time 56640, Note Name: G#3, Velocity: 29
Note ON: Time 56640, Note Name: D#3, Velocity: 29
Note OFF: Time 57000, Note Name: D#3
Note OFF: Time 57000, Note Name: G#3
Note OFF: Time 57000, Note Name: C4
Note ON: Time 57120, Note Name: C4, Velocity: 48
Note ON: Time 57120, Note Name: G#3, Velocity: 48
Note ON: Time 57120, Note Name: D#3, Velocity: 48
Note OFF: Time 57480, Note Name: D#3
Note OFF: Time 57480, Note Name: G#3
Note OFF: Time 57480, Note Name: C4
Note ON: Time 57600, Note Name: D3, Velocity: 55
Note OFF: Time 58080, Note Name: D3
Note ON: Time 58080, Note Name: F4, Velocity: 24
Note ON: Time 58080, Note Name: B3, Velocity: 24
Note ON: Time 58080, Note Name: G#3, Velocity: 24
Note OFF: Time 58440, Note Name: G#3
Note OFF: Time 58440, Note Name: B3
Note OFF: Time 58440, Note Name: F4
Note ON: Time 58560, Note Name: F4, Velocity: 36
Note ON: Time 58560, Note Name: B3, Velocity: 36
Note ON: Time 58560, Note Name: G#3, Velocity: 36
Note OFF: Time 58920, Note Name: G#3
Note OFF: Time 58920, Note Name: B3
Note OFF: Time 58920, Note Name: F4
Note ON: Time 59040, Note Name: D#3, Velocity: 44
Note OFF: Time 59520, Note Name: D#3
Note ON: Time 59520, Note Name: C4, Velocity: 32
Note ON: Time 59520, Note Name: D#4, Velocity: 32
Note ON: Time 59520, Note Name: G#4, Velocity: 32
Note OFF: Time 59880, Note Name: G#4
Note OFF: Time 59880, Note Name: D#4
Note OFF: Time 59880, Note Name: C4
Note ON: Time 60000, Note Name: C4, Velocity: 42
Note ON: Time 60000, Note Name: D#4, Velocity: 42
Note ON: Time 60000, Note Name: G#4, Velocity: 42
Note OFF: Time 60240, Note Name: G#4
Note OFF: Time 60240, Note Name: D#4
Note OFF: Time 60240, Note Name: C4
Note ON: Time 60480, Note Name: D#3, Velocity: 20
Note OFF: Time 60960, Note Name: D#3
Note ON: Time 60960, Note Name: C#4, Velocity: 20
Note ON: Time 60960, Note Name: D#4, Velocity: 20
Note ON: Time 60960, Note Name: G4, Velocity: 20
Note OFF: Time 61320, Note Name: G4
Note OFF: Time 61320, Note Name: D#4
Note OFF: Time 61320, Note Name: C#4
Note ON: Time 61440, Note Name: C#4, Velocity: 30
Note ON: Time 61440, Note Name: D#4, Velocity: 30
Note ON: Time 61440, Note Name: G4, Velocity: 30
Note OFF: Time 61680, Note Name: G4
Note OFF: Time 61680, Note Name: D#4
Note OFF: Time 61680, Note Name: C#4
Note ON: Time 61920, Note Name: G#3, Velocity: 34
Note OFF: Time 62400, Note Name: G#3
Note ON: Time 62400, Note Name: G#4, Velocity: 23
Note ON: Time 62400, Note Name: D#4, Velocity: 23
Note ON: Time 62400, Note Name: C4, Velocity: 23
Note OFF: Time 62880, Note Name: C4
Note OFF: Time 62880, Note Name: D#4
Note OFF: Time 62880, Note Name: G#4
Note ON: Time 62880, Note Name: C4, Velocity: 38
Note ON: Time 62880, Note Name: D#4, Velocity: 38
Note ON: Time 62880, Note Name: G#4, Velocity: 38
Note OFF: Time 63120, Note Name: G#4
Note OFF: Time 63120, Note Name: D#4
Note OFF: Time 63120, Note Name: C4
Note ON: Time 63360, Note Name: G#2, Velocity: 34
Note OFF: Time 63840, Note Name: G#2
Note ON: Time 63840, Note Name: C4, Velocity: 31
Note ON: Time 63840, Note Name: G#3, Velocity: 31
Note ON: Time 63840, Note Name: D#3, Velocity: 31
Note OFF: Time 64200, Note Name: D#3
Note OFF: Time 64200, Note Name: G#3
Note OFF: Time 64200, Note Name: C4
Note ON: Time 64320, Note Name: C4, Velocity: 49
Note ON: Time 64320, Note Name: G#3, Velocity: 49
Note ON: Time 64320, Note Name: D#3, Velocity: 49
Note OFF: Time 64680, Note Name: D#3
Note OFF: Time 64680, Note Name: G#3
Note OFF: Time 64680, Note Name: C4
Note ON: Time 64800, Note Name: G#2, Velocity: 47
Note OFF: Time 65280, Note Name: G#2
Note ON: Time 65280, Note Name: C4, Velocity: 35
Note ON: Time 65280, Note Name: G#3, Velocity: 35
Note ON: Time 65280, Note Name: D#3, Velocity: 35
Note OFF: Time 65640, Note Name: D#3
Note OFF: Time 65640, Note Name: G#3
Note OFF: Time 65640, Note Name: C4
Note ON: Time 65760, Note Name: D#3, Velocity: 52
Note ON: Time 65760, Note Name: G#3, Velocity: 52
Note ON: Time 65760, Note Name: C4, Velocity: 52
Note OFF: Time 66120, Note Name: C4
Note OFF: Time 66120, Note Name: G#3
Note OFF: Time 66120, Note Name: D#3
Note ON: Time 66240, Note Name: G#2, Velocity: 40
Note OFF: Time 66720, Note Name: G#2
Note ON: Time 66720, Note Name: B3, Velocity: 35
Note ON: Time 66720, Note Name: G#3, Velocity: 35
Note ON: Time 66720, Note Name: D3, Velocity: 35
Note OFF: Time 67080, Note Name: D3
Note OFF: Time 67080, Note Name: G#3
Note OFF: Time 67080, Note Name: B3
Note ON: Time 67200, Note Name: D3, Velocity: 31
Note ON: Time 67200, Note Name: G#3, Velocity: 31
Note ON: Time 67200, Note Name: B3, Velocity: 31
Note OFF: Time 67560, Note Name: B3
Note OFF: Time 67560, Note Name: G#3
Note OFF: Time 67560, Note Name: D3
Note ON: Time 67680, Note Name: G#2, Velocity: 38
Note OFF: Time 68160, Note Name: G#2
Note ON: Time 68160, Note Name: C4, Velocity: 30
Note ON: Time 68160, Note Name: G#3, Velocity: 30
Note ON: Time 68160, Note Name: D#3, Velocity: 30
Note OFF: Time 68520, Note Name: D#3
Note OFF: Time 68520, Note Name: G#3
Note OFF: Time 68520, Note Name: C4
Note ON: Time 68640, Note Name: C4, Velocity: 36
Note ON: Time 68640, Note Name: G#3, Velocity: 36
Note ON: Time 68640, Note Name: D#3, Velocity: 36
Note OFF: Time 69120, Note Name: D#3
Note OFF: Time 69120, Note Name: G#3
Note OFF: Time 69120, Note Name: C4
Note ON: Time 69120, Note Name: D3, Velocity: 38
Note OFF: Time 69600, Note Name: D3
Note ON: Time 69600, Note Name: F4, Velocity: 33
Note ON: Time 69600, Note Name: B3, Velocity: 33
Note ON: Time 69600, Note Name: G#3, Velocity: 33
Note OFF: Time 69960, Note Name: G#3
Note OFF: Time 69960, Note Name: B3
Note OFF: Time 69960, Note Name: F4
Note ON: Time 70080, Note Name: F4, Velocity: 36
Note ON: Time 70080, Note Name: B3, Velocity: 36
Note ON: Time 70080, Note Name: G#3, Velocity: 36
Note OFF: Time 70440, Note Name: G#3
Note OFF: Time 70440, Note Name: B3
Note OFF: Time 70440, Note Name: F4
Note ON: Time 70560, Note Name: D#3, Velocity: 44
Note OFF: Time 71040, Note Name: D#3
Note ON: Time 71040, Note Name: C4, Velocity: 29
Note ON: Time 71040, Note Name: D#4, Velocity: 29
Note ON: Time 71040, Note Name: G#4, Velocity: 29
Note OFF: Time 71400, Note Name: G#4
Note OFF: Time 71400, Note Name: D#4
Note OFF: Time 71400, Note Name: C4
Note ON: Time 71520, Note Name: C4, Velocity: 44
Note ON: Time 71520, Note Name: D#4, Velocity: 44
Note ON: Time 71520, Note Name: G#4, Velocity: 44
Note OFF: Time 71760, Note Name: G#4
Note OFF: Time 71760, Note Name: D#4
Note OFF: Time 71760, Note Name: C4
Note ON: Time 72000, Note Name: D#3, Velocity: 27
Note OFF: Time 72480, Note Name: D#3
Note ON: Time 72480, Note Name: C#4, Velocity: 32
Note ON: Time 72480, Note Name: D#4, Velocity: 32
Note ON: Time 72480, Note Name: G4, Velocity: 32
Note OFF: Time 72840, Note Name: G4
Note OFF: Time 72840, Note Name: D#4
Note OFF: Time 72840, Note Name: C#4
Note ON: Time 72960, Note Name: C#4, Velocity: 37
Note ON: Time 72960, Note Name: D#4, Velocity: 37
Note ON: Time 72960, Note Name: G4, Velocity: 37
Note OFF: Time 73200, Note Name: G4
Note OFF: Time 73200, Note Name: D#4
Note OFF: Time 73200, Note Name: C#4
Note ON: Time 73440, Note Name: G#3, Velocity: 44
Note ON: Time 73920, Note Name: C4, Velocity: 35
Note ON: Time 73920, Note Name: G#4, Velocity: 35
Note OFF: Time 74400, Note Name: G#4
Note OFF: Time 74400, Note Name: C4
Note ON: Time 74400, Note Name: F4, Velocity: 47
Note ON: Time 74400, Note Name: G#4, Velocity: 47
Note OFF: Time 74880, Note Name: G#4
Note OFF: Time 74880, Note Name: F4
Note OFF: Time 74880, Note Name: G#3
Note ON: Time 74880, Note Name: A#3, Velocity: 86
Note ON: Time 74880, Note Name: A#2, Velocity: 86
Note OFF: Time 75360, Note Name: A#2
Note OFF: Time 75360, Note Name: A#3
Note ON: Time 75360, Note Name: G#4, Velocity: 55
Note ON: Time 75360, Note Name: F4, Velocity: 55
Note ON: Time 75360, Note Name: A#3, Velocity: 55
Note OFF: Time 75720, Note Name: A#3
Note OFF: Time 75720, Note Name: F4
Note OFF: Time 75720, Note Name: G#4
Note ON: Time 75840, Note Name: G#4, Velocity: 65
Note ON: Time 75840, Note Name: F4, Velocity: 65
Note ON: Time 75840, Note Name: A#3, Velocity: 65
Note OFF: Time 76200, Note Name: A#3
Note OFF: Time 76200, Note Name: F4
Note OFF: Time 76200, Note Name: G#4
Note ON: Time 76320, Note Name: D#3, Velocity: 74
Note OFF: Time 76800, Note Name: D#3
Note ON: Time 76800, Note Name: G4, Velocity: 57
Note ON: Time 76800, Note Name: D#4, Velocity: 57
Note ON: Time 76800, Note Name: A#3, Velocity: 57
Note OFF: Time 77160, Note Name: A#3
Note OFF: Time 77160, Note Name: D#4
Note OFF: Time 77160, Note Name: G4
Note ON: Time 77280, Note Name: G4, Velocity: 62
Note ON: Time 77280, Note Name: D#4, Velocity: 62
Note ON: Time 77280, Note Name: A#3, Velocity: 62
Note OFF: Time 77640, Note Name: A#3
Note OFF: Time 77640, Note Name: D#4
Note OFF: Time 77640, Note Name: G4
Note ON: Time 77760, Note Name: D3, Velocity: 65
Note OFF: Time 78240, Note Name: D3
Note ON: Time 78240, Note Name: G#4, Velocity: 56
Note ON: Time 78240, Note Name: F4, Velocity: 56
Note ON: Time 78240, Note Name: A#3, Velocity: 56
Note OFF: Time 78600, Note Name: A#3
Note OFF: Time 78600, Note Name: F4
Note OFF: Time 78600, Note Name: G#4
Note ON: Time 78720, Note Name: G#4, Velocity: 69
Note ON: Time 78720, Note Name: F4, Velocity: 69
Note ON: Time 78720, Note Name: A#3, Velocity: 69
Note OFF: Time 79080, Note Name: A#3
Note OFF: Time 79080, Note Name: F4
Note OFF: Time 79080, Note Name: G#4
Note ON: Time 79200, Note Name: D#3, Velocity: 61
Note OFF: Time 79440, Note Name: D#3
Note ON: Time 79680, Note Name: G4, Velocity: 61
Note ON: Time 79680, Note Name: C#4, Velocity: 61
Note ON: Time 79680, Note Name: A#3, Velocity: 61
Note OFF: Time 79920, Note Name: A#3
Note OFF: Time 79920, Note Name: C#4
Note OFF: Time 79920, Note Name: G4
Note ON: Time 80160, Note Name: E3, Velocity: 38
Note OFF: Time 80400, Note Name: E3
Note ON: Time 80640, Note Name: F3, Velocity: 38
Note OFF: Time 80880, Note Name: F3
Note ON: Time 81120, Note Name: F4, Velocity: 41
Note ON: Time 81120, Note Name: G#3, Velocity: 41
Note OFF: Time 81360, Note Name: G#3
Note OFF: Time 81360, Note Name: F4
Note ON: Time 81600, Note Name: G#2, Velocity: 36
Note OFF: Time 81840, Note Name: G#2
Note ON: Time 82080, Note Name: A#2, Velocity: 31
Note OFF: Time 82320, Note Name: A#2
Note ON: Time 82560, Note Name: D#4, Velocity: 27
Note ON: Time 82560, Note Name: G3, Velocity: 27
Note OFF: Time 83040, Note Name: G3
Note OFF: Time 83040, Note Name: D#4
Note ON: Time 83040, Note Name: D#4, Velocity: 41
Note ON: Time 83040, Note Name: G3, Velocity: 41
Note OFF: Time 83280, Note Name: G3
Note OFF: Time 83280, Note Name: D#4
Note ON: Time 83520, Note Name: A#2, Velocity: 39
Note OFF: Time 83760, Note Name: A#2
Note ON: Time 84000, Note Name: D4, Velocity: 26
Note ON: Time 84000, Note Name: F3, Velocity: 26
Note OFF: Time 84480, Note Name: F3
Note OFF: Time 84480, Note Name: D4
Note ON: Time 84480, Note Name: D4, Velocity: 34
Note ON: Time 84480, Note Name: A#3, Velocity: 34
Note OFF: Time 84720, Note Name: A#3
Note OFF: Time 84720, Note Name: D4
Note ON: Time 84960, Note Name: D#3, Velocity: 23
Note ON: Time 85440, Note Name: D#4, Velocity: 33
Note ON: Time 85440, Note Name: A#3, Velocity: 33
Note OFF: Time 85800, Note Name: A#3
Note OFF: Time 85800, Note Name: D#4
Note ON: Time 85920, Note Name: D#4, Velocity: 53
Note ON: Time 85920, Note Name: A#3, Velocity: 53
Note OFF: Time 86160, Note Name: A#3
Note OFF: Time 86160, Note Name: D#4
Note OFF: Time 86400, Note Name: D#3
Note ON: Time 86400, Note Name: A#2, Velocity: 37
Note OFF: Time 86640, Note Name: A#2
Note ON: Time 86880, Note Name: G#4, Velocity: 32
Note ON: Time 86880, Note Name: F4, Velocity: 32
Note ON: Time 86880, Note Name: A#3, Velocity: 32
Note OFF: Time 87240, Note Name: A#3
Note OFF: Time 87240, Note Name: F4
Note OFF: Time 87240, Note Name: G#4
Note ON: Time 87360, Note Name: G#4, Velocity: 35
Note ON: Time 87360, Note Name: F4, Velocity: 35
Note ON: Time 87360, Note Name: A#3, Velocity: 35
Note OFF: Time 87720, Note Name: A#3
Note OFF: Time 87720, Note Name: F4
Note OFF: Time 87720, Note Name: G#4
Note ON: Time 87840, Note Name: D#3, Velocity: 41
Note OFF: Time 88080, Note Name: D#3
Note ON: Time 88320, Note Name: G4, Velocity: 45
Note ON: Time 88320, Note Name: D#4, Velocity: 45
Note ON: Time 88320, Note Name: A#3, Velocity: 45
Note OFF: Time 88680, Note Name: A#3
Note OFF: Time 88680, Note Name: D#4
Note OFF: Time 88680, Note Name: G4
Note ON: Time 88800, Note Name: G4, Velocity: 41
Note ON: Time 88800, Note Name: D#4, Velocity: 41
Note ON: Time 88800, Note Name: A#3, Velocity: 41
Note OFF: Time 89160, Note Name: A#3
Note OFF: Time 89160, Note Name: D#4
Note OFF: Time 89160, Note Name: G4
Note ON: Time 89280, Note Name: D3, Velocity: 52
Note OFF: Time 89520, Note Name: D3
Note ON: Time 89760, Note Name: G#4, Velocity: 67
Note ON: Time 89760, Note Name: F4, Velocity: 67
Note ON: Time 89760, Note Name: A#3, Velocity: 67
Note OFF: Time 90120, Note Name: A#3
Note OFF: Time 90120, Note Name: F4
Note OFF: Time 90120, Note Name: G#4
Note ON: Time 90240, Note Name: G#4, Velocity: 56
Note ON: Time 90240, Note Name: F4, Velocity: 56
Note ON: Time 90240, Note Name: A#3, Velocity: 56
Note OFF: Time 90600, Note Name: A#3
Note OFF: Time 90600, Note Name: F4
Note OFF: Time 90600, Note Name: G#4
Note ON: Time 90720, Note Name: D#3, Velocity: 66
Note OFF: Time 90960, Note Name: D#3
Note ON: Time 91200, Note Name: G4, Velocity: 54
Note ON: Time 91200, Note Name: C#4, Velocity: 54
Note ON: Time 91200, Note Name: A#3, Velocity: 54
Note OFF: Time 91440, Note Name: A#3
Note OFF: Time 91440, Note Name: C#4
Note OFF: Time 91440, Note Name: G4
Note ON: Time 91680, Note Name: E3, Velocity: 42
Note OFF: Time 92160, Note Name: E3
Note ON: Time 92160, Note Name: F3, Velocity: 20
Note OFF: Time 92400, Note Name: F3
Note ON: Time 92640, Note Name: F4, Velocity: 32
Note ON: Time 92640, Note Name: G#3, Velocity: 32
Note OFF: Time 92880, Note Name: G#3
Note OFF: Time 92880, Note Name: F4
Note ON: Time 93120, Note Name: G#2, Velocity: 30
Note OFF: Time 93360, Note Name: G#2
Note ON: Time 93600, Note Name: A#2, Velocity: 37
Note OFF: Time 93840, Note Name: A#2
Note ON: Time 94080, Note Name: D#4, Velocity: 29
Note ON: Time 94080, Note Name: G3, Velocity: 29
Note OFF: Time 94440, Note Name: G3
Note OFF: Time 94440, Note Name: D#4
Note ON: Time 94560, Note Name: D#4, Velocity: 34
Note ON: Time 94560, Note Name: G3, Velocity: 34
Note OFF: Time 94800, Note Name: G3
Note OFF: Time 94800, Note Name: D#4
Note ON: Time 95040, Note Name: A#2, Velocity: 33
Note OFF: Time 95280, Note Name: A#2
Note ON: Time 95520, Note Name: D4, Velocity: 33
Note ON: Time 95520, Note Name: F3, Velocity: 33
Note OFF: Time 96000, Note Name: F3
Note OFF: Time 96000, Note Name: D4
Note ON: Time 96000, Note Name: D4, Velocity: 41
Note ON: Time 96000, Note Name: A#3, Velocity: 41
Note OFF: Time 96480, Note Name: D4
Note ON: Time 96480, Note Name: D#4, Velocity: 36
Note ON: Time 96480, Note Name: D#3, Velocity: 36
Note OFF: Time 96960, Note Name: D#3
Note OFF: Time 96960, Note Name: D#4
Note OFF: Time 96960, Note Name: A#3
Note ON: Time 97440, Note Name: D#3, Velocity: 32
Note ON: Time 97440, Note Name: C#4, Velocity: 32
Note ON: Time 97440, Note Name: G3, Velocity: 32
Note OFF: Time 97920, Note Name: G3
Note OFF: Time 97920, Note Name: C#4
Note OFF: Time 97920, Note Name: D#3
Note ON: Time 97920, Note Name: G#2, Velocity: 27
Note OFF: Time 98400, Note Name: G#2
Note ON: Time 98400, Note Name: C4, Velocity: 27
Note ON: Time 98400, Note Name: G#3, Velocity: 27
Note ON: Time 98400, Note Name: D#3, Velocity: 27
Note OFF: Time 98760, Note Name: D#3
Note OFF: Time 98760, Note Name: G#3
Note OFF: Time 98760, Note Name: C4
Note ON: Time 98880, Note Name: C4, Velocity: 44
Note ON: Time 98880, Note Name: G#3, Velocity: 44
Note ON: Time 98880, Note Name: D#3, Velocity: 44
Note OFF: Time 99240, Note Name: D#3
Note OFF: Time 99240, Note Name: G#3
Note OFF: Time 99240, Note Name: C4
Note ON: Time 99360, Note Name: G#2, Velocity: 39
Note OFF: Time 99840, Note Name: G#2
Note ON: Time 99840, Note Name: C4, Velocity: 35
Note ON: Time 99840, Note Name: G#3, Velocity: 35
Note ON: Time 99840, Note Name: D#3, Velocity: 35
Note OFF: Time 100200, Note Name: D#3
Note OFF: Time 100200, Note Name: G#3
Note OFF: Time 100200, Note Name: C4
Note ON: Time 100320, Note Name: D#3, Velocity: 33
Note ON: Time 100320, Note Name: G#3, Velocity: 33
Note ON: Time 100320, Note Name: C4, Velocity: 33
Note OFF: Time 100680, Note Name: C4
Note OFF: Time 100680, Note Name: G#3
Note OFF: Time 100680, Note Name: D#3
Note ON: Time 100800, Note Name: G#2, Velocity: 47
Note OFF: Time 101280, Note Name: G#2
Note ON: Time 101280, Note Name: B3, Velocity: 29
Note ON: Time 101280, Note Name: G#3, Velocity: 29
Note ON: Time 101280, Note Name: D3, Velocity: 29
Note OFF: Time 101640, Note Name: D3
Note OFF: Time 101640, Note Name: G#3
Note OFF: Time 101640, Note Name: B3
Note ON: Time 101760, Note Name: D3, Velocity: 29
Note ON: Time 101760, Note Name: G#3, Velocity: 29
Note ON: Time 101760, Note Name: B3, Velocity: 29
Note OFF: Time 102120, Note Name: B3
Note OFF: Time 102120, Note Name: G#3
Note OFF: Time 102120, Note Name: D3
Note ON: Time 102240, Note Name: G#2, Velocity: 43
Note OFF: Time 102720, Note Name: G#2
Note ON: Time 102720, Note Name: C4, Velocity: 31
Note ON: Time 102720, Note Name: G#3, Velocity: 31
Note ON: Time 102720, Note Name: D#3, Velocity: 31
Note OFF: Time 103080, Note Name: D#3
Note OFF: Time 103080, Note Name: G#3
Note OFF: Time 103080, Note Name: C4
Note ON: Time 103200, Note Name: C4, Velocity: 38
Note ON: Time 103200, Note Name: G#3, Velocity: 38
Note ON: Time 103200, Note Name: D#3, Velocity: 38
Note OFF: Time 103560, Note Name: D#3
Note OFF: Time 103560, Note Name: G#3
Note OFF: Time 103560, Note Name: C4
Note ON: Time 103680, Note Name: D3, Velocity: 44
Note OFF: Time 104160, Note Name: D3
Note ON: Time 104160, Note Name: F4, Velocity: 29
Note ON: Time 104160, Note Name: B3, Velocity: 29
Note ON: Time 104160, Note Name: G#3, Velocity: 29
Note OFF: Time 104520, Note Name: G#3
Note OFF: Time 104520, Note Name: B3
Note OFF: Time 104520, Note Name: F4
Note ON: Time 104640, Note Name: F4, Velocity: 40
Note ON: Time 104640, Note Name: B3, Velocity: 40
Note ON: Time 104640, Note Name: G#3, Velocity: 40
Note OFF: Time 105000, Note Name: G#3
Note OFF: Time 105000, Note Name: B3
Note OFF: Time 105000, Note Name: F4
Note ON: Time 105120, Note Name: D#3, Velocity: 45
Note OFF: Time 105600, Note Name: D#3
Note ON: Time 105600, Note Name: C4, Velocity: 31
Note ON: Time 105600, Note Name: D#4, Velocity: 31
Note ON: Time 105600, Note Name: G#4, Velocity: 31
Note OFF: Time 106080, Note Name: G#4
Note OFF: Time 106080, Note Name: D#4
Note OFF: Time 106080, Note Name: C4
Note ON: Time 106080, Note Name: C4, Velocity: 50
Note ON: Time 106080, Note Name: D#4, Velocity: 50
Note ON: Time 106080, Note Name: G#4, Velocity: 50
Note OFF: Time 106320, Note Name: G#4
Note OFF: Time 106320, Note Name: D#4
Note OFF: Time 106320, Note Name: C4
Note ON: Time 106560, Note Name: D#3, Velocity: 40
Note OFF: Time 107040, Note Name: D#3
Note ON: Time 107040, Note Name: C#4, Velocity: 35
Note ON: Time 107040, Note Name: D#4, Velocity: 35
Note ON: Time 107040, Note Name: G4, Velocity: 35
Note OFF: Time 107400, Note Name: G4
Note OFF: Time 107400, Note Name: D#4
Note OFF: Time 107400, Note Name: C#4
Note ON: Time 107520, Note Name: C#4, Velocity: 37
Note ON: Time 107520, Note Name: D#4, Velocity: 37
Note ON: Time 107520, Note Name: G4, Velocity: 37
Note OFF: Time 107760, Note Name: G4
Note OFF: Time 107760, Note Name: D#4
Note OFF: Time 107760, Note Name: C#4
Note ON: Time 108000, Note Name: G#3, Velocity: 45
Note ON: Time 108480, Note Name: G#4, Velocity: 37
Note ON: Time 108480, Note Name: D#4, Velocity: 37
Note ON: Time 108480, Note Name: C4, Velocity: 37
Note OFF: Time 108840, Note Name: C4
Note OFF: Time 108840, Note Name: D#4
Note OFF: Time 108840, Note Name: G#4
Note ON: Time 108960, Note Name: C4, Velocity: 45
Note ON: Time 108960, Note Name: D#4, Velocity: 45
Note ON: Time 108960, Note Name: G#4, Velocity: 45
Note OFF: Time 109200, Note Name: G#4
Note OFF: Time 109200, Note Name: D#4
Note OFF: Time 109200, Note Name: C4
Note OFF: Time 109440, Note Name: G#3
Note ON: Time 109440, Note Name: G#2, Velocity: 27
Note OFF: Time 109920, Note Name: G#2
Note ON: Time 109920, Note Name: C4, Velocity: 34
Note ON: Time 109920, Note Name: G#3, Velocity: 34
Note ON: Time 109920, Note Name: D#3, Velocity: 34
Note OFF: Time 110280, Note Name: D#3
Note OFF: Time 110280, Note Name: G#3
Note OFF: Time 110280, Note Name: C4
Note ON: Time 110400, Note Name: C4, Velocity: 41
Note ON: Time 110400, Note Name: G#3, Velocity: 41
Note ON: Time 110400, Note Name: D#3, Velocity: 41
Note OFF: Time 110760, Note Name: D#3
Note OFF: Time 110760, Note Name: G#3
Note OFF: Time 110760, Note Name: C4
Note ON: Time 110880, Note Name: G#2, Velocity: 33
Note OFF: Time 111360, Note Name: G#2
Note ON: Time 111360, Note Name: C4, Velocity: 37
Note ON: Time 111360, Note Name: G#3, Velocity: 37
Note ON: Time 111360, Note Name: D#3, Velocity: 37
Note OFF: Time 111720, Note Name: D#3
Note OFF: Time 111720, Note Name: G#3
Note OFF: Time 111720, Note Name: C4
Note ON: Time 111840, Note Name: D#3, Velocity: 37
Note ON: Time 111840, Note Name: G#3, Velocity: 37
Note ON: Time 111840, Note Name: C4, Velocity: 37
Note OFF: Time 112200, Note Name: C4
Note OFF: Time 112200, Note Name: G#3
Note OFF: Time 112200, Note Name: D#3
Note ON: Time 112320, Note Name: G#2, Velocity: 35
Note OFF: Time 112800, Note Name: G#2
Note ON: Time 112800, Note Name: B3, Velocity: 35
Note ON: Time 112800, Note Name: G#3, Velocity: 35
Note ON: Time 112800, Note Name: D3, Velocity: 35
Note OFF: Time 113160, Note Name: D3
Note OFF: Time 113160, Note Name: G#3
Note OFF: Time 113160, Note Name: B3
Note ON: Time 113280, Note Name: D3, Velocity: 35
Note ON: Time 113280, Note Name: G#3, Velocity: 35
Note ON: Time 113280, Note Name: B3, Velocity: 35
Note OFF: Time 113640, Note Name: B3
Note OFF: Time 113640, Note Name: G#3
Note OFF: Time 113640, Note Name: D3
Note ON: Time 113760, Note Name: G#2, Velocity: 38
Note OFF: Time 114240, Note Name: G#2
Note ON: Time 114240, Note Name: C4, Velocity: 28
Note ON: Time 114240, Note Name: G#3, Velocity: 28
Note ON: Time 114240, Note Name: D#3, Velocity: 28
Note OFF: Time 114600, Note Name: D#3
Note OFF: Time 114600, Note Name: G#3
Note OFF: Time 114600, Note Name: C4
Note ON: Time 114720, Note Name: C4, Velocity: 41
Note ON: Time 114720, Note Name: G#3, Velocity: 41
Note ON: Time 114720, Note Name: D#3, Velocity: 41
Note OFF: Time 115080, Note Name: D#3
Note OFF: Time 115080, Note Name: G#3
Note OFF: Time 115080, Note Name: C4
Note ON: Time 115200, Note Name: D3, Velocity: 32
Note OFF: Time 115680, Note Name: D3
Note ON: Time 115680, Note Name: F4, Velocity: 25
Note ON: Time 115680, Note Name: B3, Velocity: 25
Note ON: Time 115680, Note Name: G#3, Velocity: 25
Note OFF: Time 116040, Note Name: G#3
Note OFF: Time 116040, Note Name: B3
Note OFF: Time 116040, Note Name: F4
Note ON: Time 116160, Note Name: F4, Velocity: 31
Note ON: Time 116160, Note Name: B3, Velocity: 31
Note ON: Time 116160, Note Name: G#3, Velocity: 31
Note OFF: Time 116520, Note Name: G#3
Note OFF: Time 116520, Note Name: B3
Note OFF: Time 116520, Note Name: F4
Note ON: Time 116640, Note Name: D#3, Velocity: 33
Note ON: Time 117120, Note Name: C4, Velocity: 25
Note ON: Time 117120, Note Name: D#4, Velocity: 25
Note ON: Time 117120, Note Name: G#3, Velocity: 25
Note OFF: Time 117480, Note Name: G#3
Note OFF: Time 117480, Note Name: D#4
Note OFF: Time 117480, Note Name: C4
Note ON: Time 117600, Note Name: C4, Velocity: 33
Note ON: Time 117600, Note Name: D#4, Velocity: 33
Note ON: Time 117600, Note Name: G#3, Velocity: 33
Note OFF: Time 117840, Note Name: G#3
Note OFF: Time 117840, Note Name: D#4
Note OFF: Time 117840, Note Name: C4
Note OFF: Time 118080, Note Name: D#3
Note ON: Time 118080, Note Name: D#3, Velocity: 44
Note ON: Time 118560, Note Name: C#4, Velocity: 25
Note ON: Time 118560, Note Name: D#4, Velocity: 25
Note ON: Time 118560, Note Name: G4, Velocity: 25
Note OFF: Time 118920, Note Name: G4
Note OFF: Time 118920, Note Name: D#4
Note OFF: Time 118920, Note Name: C#4
Note ON: Time 119040, Note Name: C#4, Velocity: 25
Note ON: Time 119040, Note Name: D#4, Velocity: 25
Note ON: Time 119040, Note Name: G4, Velocity: 25
Note OFF: Time 119280, Note Name: G4
Note OFF: Time 119280, Note Name: D#4
Note OFF: Time 119280, Note Name: C#4
Note OFF: Time 119520, Note Name: D#3
Note ON: Time 119520, Note Name: G#2, Velocity: 17
Note OFF: Time 120000, Note Name: G#2
Note ON: Time 120000, Note Name: D#3, Velocity: 24
Note ON: Time 120000, Note Name: C4, Velocity: 24
Note OFF: Time 120480, Note Name: C4
Note OFF: Time 120480, Note Name: D#3
Note ON: Time 120960, Note Name: G#2, Velocity: 34
Note OFF: Time 121200, Note Name: G#2
Note ON: Time 121440, Note Name: C4, Velocity: 44
Note ON: Time 121440, Note Name: D#3, Velocity: 44
Note ON: Time 121920, Note Name: F#4, Velocity: 37
Note ON: Time 121920, Note Name: G#3, Velocity: 37
Note OFF: Time 121940, Note Name: D#3
Note OFF: Time 121940, Note Name: C4
Note OFF: Time 122400, Note Name: F#4
Note OFF: Time 122400, Note Name: G#3
Note ON: Time 122400, Note Name: G#2, Velocity: 37
Note OFF: Time 122640, Note Name: G#2
Note ON: Time 122880, Note Name: C4, Velocity: 29
Note ON: Time 122880, Note Name: D#3, Velocity: 29
Note ON: Time 123360, Note Name: F#4, Velocity: 29
Note ON: Time 123360, Note Name: G#3, Velocity: 29
Note OFF: Time 123380, Note Name: D#3
Note OFF: Time 123380, Note Name: C4
Note OFF: Time 123840, Note Name: F#4
Note OFF: Time 123840, Note Name: G#3
Note ON: Time 123840, Note Name: C#3, Velocity: 37
Note OFF: Time 124080, Note Name: C#3
Note ON: Time 124320, Note Name: F3, Velocity: 34
Note ON: Time 124320, Note Name: C#4, Velocity: 34
Note ON: Time 124800, Note Name: F4, Velocity: 41
Note ON: Time 124800, Note Name: G#3, Velocity: 41
Note OFF: Time 124820, Note Name: C#4
Note OFF: Time 124820, Note Name: F3
Note OFF: Time 125280, Note Name: F4
Note OFF: Time 125280, Note Name: G#3
Note ON: Time 125280, Note Name: C#3, Velocity: 31
Note OFF: Time 125520, Note Name: C#3
Note ON: Time 125760, Note Name: C#4, Velocity: 26
Note ON: Time 125760, Note Name: F3, Velocity: 26
Note ON: Time 126240, Note Name: F4, Velocity: 32
Note ON: Time 126240, Note Name: G#3, Velocity: 32
Note OFF: Time 126260, Note Name: F3
Note OFF: Time 126260, Note Name: C#4
Note OFF: Time 126720, Note Name: F4
Note OFF: Time 126720, Note Name: G#3
Note ON: Time 126720, Note Name: G#2, Velocity: 40
Note OFF: Time 126960, Note Name: G#2
Note ON: Time 127200, Note Name: C4, Velocity: 35
Note ON: Time 127200, Note Name: D#3, Velocity: 35
Note ON: Time 127680, Note Name: F#4, Velocity: 41
Note ON: Time 127680, Note Name: G#3, Velocity: 41
Note OFF: Time 127700, Note Name: D#3
Note OFF: Time 127700, Note Name: C4
Note OFF: Time 128160, Note Name: F#4
Note OFF: Time 128160, Note Name: G#3
Note ON: Time 128160, Note Name: G#2, Velocity: 37
Note OFF: Time 128400, Note Name: G#2
Note ON: Time 128640, Note Name: C4, Velocity: 25
Note ON: Time 128640, Note Name: D#3, Velocity: 25
Note ON: Time 129120, Note Name: G#3, Velocity: 37
Note ON: Time 129120, Note Name: F#4, Velocity: 37
Note OFF: Time 129140, Note Name: D#3
Note OFF: Time 129140, Note Name: C4
Note OFF: Time 129600, Note Name: G#3
Note OFF: Time 129600, Note Name: F#4
Note ON: Time 129600, Note Name: C#3, Velocity: 35
Note ON: Time 130080, Note Name: G#3, Velocity: 37
Note OFF: Time 130560, Note Name: G#3
Note ON: Time 130560, Note Name: C4, Velocity: 18
Note OFF: Time 131040, Note Name: C4
Note OFF: Time 131040, Note Name: C#3
Note ON: Time 131040, Note Name: C#4, Velocity: 29
Note ON: Time 131040, Note Name: C#3, Velocity: 29
Note OFF: Time 131280, Note Name: C#3
Note OFF: Time 131280, Note Name: C#4
Note ON: Time 131520, Note Name: F3, Velocity: 36
Note ON: Time 131520, Note Name: C#4, Velocity: 36
Note ON: Time 132000, Note Name: F4, Velocity: 36
Note ON: Time 132000, Note Name: G#3, Velocity: 36
Note OFF: Time 132020, Note Name: C#4
Note OFF: Time 132020, Note Name: F3
Note OFF: Time 132480, Note Name: F4
Note OFF: Time 132480, Note Name: G#3
Note ON: Time 132480, Note Name: G#2, Velocity: 36
Note OFF: Time 132720, Note Name: G#2
Note ON: Time 132960, Note Name: C4, Velocity: 31
Note ON: Time 132960, Note Name: D#3, Velocity: 31
Note ON: Time 133440, Note Name: F#4, Velocity: 39
Note ON: Time 133440, Note Name: G#3, Velocity: 39
Note OFF: Time 133460, Note Name: D#3
Note OFF: Time 133460, Note Name: C4
Note OFF: Time 133920, Note Name: F#4
Note OFF: Time 133920, Note Name: G#3
Note ON: Time 133920, Note Name: G#2, Velocity: 40
Note OFF: Time 134160, Note Name: G#2
Note ON: Time 134400, Note Name: C4, Velocity: 36
Note ON: Time 134400, Note Name: D#3, Velocity: 36
Note ON: Time 134880, Note Name: F#4, Velocity: 32
Note ON: Time 134880, Note Name: G#3, Velocity: 32
Note OFF: Time 134900, Note Name: D#3
Note OFF: Time 134900, Note Name: C4
Note OFF: Time 135360, Note Name: F#4
Note OFF: Time 135360, Note Name: G#3
Note ON: Time 135360, Note Name: C#2, Velocity: 45
Note OFF: Time 135600, Note Name: C#2
Note ON: Time 135840, Note Name: F3, Velocity: 30
Note ON: Time 135840, Note Name: C#4, Velocity: 30
Note ON: Time 136320, Note Name: F4, Velocity: 53
Note ON: Time 136320, Note Name: G#3, Velocity: 53
Note OFF: Time 136340, Note Name: C#4
Note OFF: Time 136340, Note Name: F3
Note OFF: Time 136800, Note Name: F4
Note OFF: Time 136800, Note Name: G#3
Note ON: Time 136800, Note Name: C#3, Velocity: 32
Note OFF: Time 137040, Note Name: C#3
Note ON: Time 137280, Note Name: C#4, Velocity: 44
Note ON: Time 137280, Note Name: F3, Velocity: 44
Note ON: Time 137760, Note Name: F4, Velocity: 39
Note ON: Time 137760, Note Name: G#3, Velocity: 39
Note OFF: Time 137780, Note Name: F3
Note OFF: Time 137780, Note Name: C#4
Note OFF: Time 138240, Note Name: F4
Note OFF: Time 138240, Note Name: G#3
Note ON: Time 138240, Note Name: F#2, Velocity: 38
Note OFF: Time 138480, Note Name: F#2
Note ON: Time 138720, Note Name: D4, Velocity: 43
Note ON: Time 138720, Note Name: F#3, Velocity: 43
Note ON: Time 139200, Note Name: D#4, Velocity: 37
Note ON: Time 139200, Note Name: A#3, Velocity: 37
Note OFF: Time 139220, Note Name: F#3
Note OFF: Time 139220, Note Name: D4
Note OFF: Time 139680, Note Name: D#4
Note OFF: Time 139680, Note Name: A#3
Note ON: Time 139680, Note Name: G#2, Velocity: 37
Note OFF: Time 139920, Note Name: G#2
Note ON: Time 140160, Note Name: C4, Velocity: 30
Note ON: Time 140160, Note Name: F3, Velocity: 30
Note ON: Time 140640, Note Name: C#4, Velocity: 46
Note ON: Time 140640, Note Name: G#3, Velocity: 46
Note OFF: Time 140660, Note Name: F3
Note OFF: Time 140660, Note Name: C4
Note OFF: Time 141120, Note Name: C#4
Note OFF: Time 141120, Note Name: G#3
Note ON: Time 141120, Note Name: G#2, Velocity: 33
Note OFF: Time 141360, Note Name: G#2
Note ON: Time 141600, Note Name: C4, Velocity: 30
Note ON: Time 141600, Note Name: G#3, Velocity: 30
Note ON: Time 141600, Note Name: D#3, Velocity: 30
Note OFF: Time 142080, Note Name: D#3
Note OFF: Time 142080, Note Name: G#3
Note OFF: Time 142080, Note Name: C4
Note ON: Time 142080, Note Name: C4, Velocity: 36
Note ON: Time 142080, Note Name: G#3, Velocity: 36
Note ON: Time 142080, Note Name: D#3, Velocity: 36
Note OFF: Time 142560, Note Name: D#3
Note OFF: Time 142560, Note Name: G#3
Note OFF: Time 142560, Note Name: C4
Note ON: Time 142560, Note Name: C#4, Velocity: 45
Note ON: Time 142560, Note Name: G#3, Velocity: 45
Note ON: Time 142560, Note Name: C#3, Velocity: 45
Note OFF: Time 143040, Note Name: C#3
Note OFF: Time 143040, Note Name: G#3
Note OFF: Time 143040, Note Name: C#4
Note ON: Time 144000, Note Name: G#2, Velocity: 47
Note OFF: Time 144240, Note Name: G#2
Note ON: Time 144480, Note Name: C4, Velocity: 44
Note ON: Time 144480, Note Name: D#3, Velocity: 44
Note ON: Time 144960, Note Name: F#4, Velocity: 49
Note ON: Time 144960, Note Name: G#3, Velocity: 49
Note OFF: Time 144980, Note Name: D#3
Note OFF: Time 144980, Note Name: C4
Note OFF: Time 145440, Note Name: F#4
Note OFF: Time 145440, Note Name: G#3
Note ON: Time 145440, Note Name: G#2, Velocity: 42
Note OFF: Time 145680, Note Name: G#2
Note ON: Time 145920, Note Name: C4, Velocity: 39
Note ON: Time 145920, Note Name: D#3, Velocity: 39
Note ON: Time 146400, Note Name: F#4, Velocity: 39
Note ON: Time 146400, Note Name: G#3, Velocity: 39
Note OFF: Time 146420, Note Name: D#3
Note OFF: Time 146420, Note Name: C4
Note OFF: Time 146880, Note Name: F#4
Note OFF: Time 146880, Note Name: G#3
Note ON: Time 146880, Note Name: C#3, Velocity: 51
Note OFF: Time 147120, Note Name: C#3
Note ON: Time 147360, Note Name: F3, Velocity: 45
Note ON: Time 147360, Note Name: C#4, Velocity: 45
Note ON: Time 147840, Note Name: F4, Velocity: 50
Note ON: Time 147840, Note Name: G#3, Velocity: 50
Note OFF: Time 147860, Note Name: C#4
Note OFF: Time 147860, Note Name: F3
Note OFF: Time 148320, Note Name: F4
Note OFF: Time 148320, Note Name: G#3
Note ON: Time 148320, Note Name: C#3, Velocity: 52
Note OFF: Time 148560, Note Name: C#3
Note ON: Time 148800, Note Name: C#4, Velocity: 37
Note ON: Time 148800, Note Name: F3, Velocity: 37
Note ON: Time 149280, Note Name: F4, Velocity: 34
Note ON: Time 149280, Note Name: G#3, Velocity: 34
Note OFF: Time 149300, Note Name: F3
Note OFF: Time 149300, Note Name: C#4
Note OFF: Time 149760, Note Name: F4
Note OFF: Time 149760, Note Name: G#3
Note ON: Time 149760, Note Name: G#2, Velocity: 45
Note OFF: Time 150000, Note Name: G#2
Note ON: Time 150240, Note Name: C4, Velocity: 34
Note ON: Time 150240, Note Name: D#3, Velocity: 34
Note ON: Time 150720, Note Name: F#4, Velocity: 41
Note ON: Time 150720, Note Name: G#3, Velocity: 41
Note OFF: Time 150740, Note Name: D#3
Note OFF: Time 150740, Note Name: C4
Note OFF: Time 151200, Note Name: F#4
Note OFF: Time 151200, Note Name: G#3
Note ON: Time 151200, Note Name: G#2, Velocity: 43
Note OFF: Time 151440, Note Name: G#2
Note ON: Time 151680, Note Name: C4, Velocity: 28
Note ON: Time 151680, Note Name: D#3, Velocity: 28
Note ON: Time 152160, Note Name: G#3, Velocity: 43
Note ON: Time 152160, Note Name: F#4, Velocity: 43
Note OFF: Time 152180, Note Name: D#3
Note OFF: Time 152180, Note Name: C4
Note OFF: Time 152640, Note Name: G#3
Note OFF: Time 152640, Note Name: F#4
Note ON: Time 152640, Note Name: C#3, Velocity: 44
Note ON: Time 153120, Note Name: G#3, Velocity: 40
Note OFF: Time 153600, Note Name: G#3
Note ON: Time 153600, Note Name: C4, Velocity: 28
Note OFF: Time 154080, Note Name: C4
Note OFF: Time 154080, Note Name: C#3
Note ON: Time 154080, Note Name: C#4, Velocity: 29
Note ON: Time 154080, Note Name: C#3, Velocity: 29
Note OFF: Time 154320, Note Name: C#3
Note OFF: Time 154320, Note Name: C#4
Note ON: Time 154560, Note Name: F3, Velocity: 35
Note ON: Time 154560, Note Name: C#4, Velocity: 35
Note OFF: Time 155040, Note Name: C#4
Note OFF: Time 155040, Note Name: F3
Note ON: Time 155040, Note Name: F4, Velocity: 35
Note ON: Time 155040, Note Name: G#3, Velocity: 35
Note OFF: Time 155520, Note Name: G#3
Note OFF: Time 155520, Note Name: F4
Note ON: Time 155520, Note Name: G#2, Velocity: 35
Note OFF: Time 155760, Note Name: G#2
Note ON: Time 156000, Note Name: C4, Velocity: 38
Note ON: Time 156000, Note Name: D#3, Velocity: 38
Note ON: Time 156480, Note Name: F#4, Velocity: 40
Note ON: Time 156480, Note Name: G#3, Velocity: 40
Note OFF: Time 156500, Note Name: D#3
Note OFF: Time 156500, Note Name: C4
Note OFF: Time 156960, Note Name: F#4
Note OFF: Time 156960, Note Name: G#3
Note ON: Time 156960, Note Name: G#2, Velocity: 61
Note OFF: Time 157200, Note Name: G#2
Note ON: Time 157440, Note Name: C4, Velocity: 49
Note ON: Time 157440, Note Name: D#3, Velocity: 49
Note ON: Time 157920, Note Name: F#4, Velocity: 57
Note ON: Time 157920, Note Name: G#3, Velocity: 57
Note OFF: Time 157940, Note Name: D#3
Note OFF: Time 157940, Note Name: C4
Note OFF: Time 158400, Note Name: F#4
Note OFF: Time 158400, Note Name: G#3
Note ON: Time 158400, Note Name: C#2, Velocity: 61
Note OFF: Time 158640, Note Name: C#2
Note ON: Time 158880, Note Name: F3, Velocity: 47
Note ON: Time 158880, Note Name: C#4, Velocity: 47
Note ON: Time 159360, Note Name: F4, Velocity: 57
Note ON: Time 159360, Note Name: G#3, Velocity: 57
Note OFF: Time 159380, Note Name: C#4
Note OFF: Time 159380, Note Name: F3
Note OFF: Time 159840, Note Name: F4
Note OFF: Time 159840, Note Name: G#3
Note ON: Time 159840, Note Name: C#3, Velocity: 53
Note OFF: Time 160080, Note Name: C#3
Note ON: Time 160320, Note Name: C#4, Velocity: 40
Note ON: Time 160320, Note Name: F3, Velocity: 40
Note OFF: Time 160800, Note Name: F3
Note OFF: Time 160800, Note Name: C#4
Note ON: Time 160800, Note Name: F4, Velocity: 48
Note ON: Time 160800, Note Name: G#3, Velocity: 48
Note OFF: Time 161280, Note Name: G#3
Note OFF: Time 161280, Note Name: F4
Note ON: Time 161280, Note Name: F#2, Velocity: 49
Note OFF: Time 161520, Note Name: F#2
Note ON: Time 161760, Note Name: D4, Velocity: 43
Note ON: Time 161760, Note Name: F#3, Velocity: 43
Note ON: Time 162240, Note Name: D#4, Velocity: 48
Note ON: Time 162240, Note Name: A#3, Velocity: 48
Note OFF: Time 162260, Note Name: F#3
Note OFF: Time 162260, Note Name: D4
Note OFF: Time 162720, Note Name: D#4
Note OFF: Time 162720, Note Name: A#3
Note ON: Time 162720, Note Name: G#2, Velocity: 42
Note OFF: Time 162960, Note Name: G#2
Note ON: Time 163200, Note Name: C4, Velocity: 28
Note ON: Time 163200, Note Name: F3, Velocity: 28
Note ON: Time 163680, Note Name: C#4, Velocity: 41
Note ON: Time 163680, Note Name: G#3, Velocity: 41
Note OFF: Time 163700, Note Name: F3
Note OFF: Time 163700, Note Name: C4
Note OFF: Time 164160, Note Name: C#4
Note OFF: Time 164160, Note Name: G#3
Note ON: Time 164160, Note Name: G#2, Velocity: 43
Note OFF: Time 164400, Note Name: G#2
Note ON: Time 164640, Note Name: C4, Velocity: 29
Note ON: Time 164640, Note Name: G#3, Velocity: 29
Note ON: Time 164640, Note Name: D#3, Velocity: 29
Note OFF: Time 165120, Note Name: D#3
Note OFF: Time 165120, Note Name: G#3
Note OFF: Time 165120, Note Name: C4
Note ON: Time 165120, Note Name: C4, Velocity: 46
Note ON: Time 165120, Note Name: G#3, Velocity: 46
Note ON: Time 165120, Note Name: D#3, Velocity: 46
Note OFF: Time 165600, Note Name: D#3
Note OFF: Time 165600, Note Name: G#3
Note OFF: Time 165600, Note Name: C4
Note ON: Time 165600, Note Name: C#4, Velocity: 46
Note ON: Time 165600, Note Name: G#3, Velocity: 46
Note ON: Time 165600, Note Name: C#3, Velocity: 46
Note OFF: Time 166080, Note Name: C#3
Note OFF: Time 166080, Note Name: G#3
Note OFF: Time 166080, Note Name: C#4
Note ON: Time 166560, Note Name: C#3, Velocity: 67
Note ON: Time 166560, Note Name: G#3, Velocity: 67
Note ON: Time 166560, Note Name: C#4, Velocity: 67
Note OFF: Time 166800, Note Name: C#4
Note OFF: Time 166800, Note Name: G#3
Note OFF: Time 166800, Note Name: C#3
Note ON: Time 167040, Note Name: C#4, Velocity: 73
Note ON: Time 167040, Note Name: A#3, Velocity: 62
Note ON: Time 167040, Note Name: D#3, Velocity: 62
Note OFF: Time 167280, Note Name: D#3
Note OFF: Time 167280, Note Name: A#3
Note OFF: Time 167280, Note Name: C#4
Note ON: Time 168000, Note Name: C#4, Velocity: 67
Note ON: Time 168000, Note Name: A#3, Velocity: 67
Note ON: Time 168000, Note Name: D#3, Velocity: 67
Note OFF: Time 168240, Note Name: D#3
Note OFF: Time 168240, Note Name: A#3
Note OFF: Time 168240, Note Name: C#4
Note ON: Time 168480, Note Name: C#4, Velocity: 73
Note ON: Time 168480, Note Name: A#3, Velocity: 62
Note ON: Time 168480, Note Name: D#3, Velocity: 62
Note OFF: Time 168720, Note Name: D#3
Note OFF: Time 168720, Note Name: A#3
Note OFF: Time 168720, Note Name: C#4
Note ON: Time 169440, Note Name: C#4, Velocity: 52
Note ON: Time 169440, Note Name: A#3, Velocity: 52
Note ON: Time 169440, Note Name: D#3, Velocity: 52
Note OFF: Time 169680, Note Name: D#3
Note OFF: Time 169680, Note Name: A#3
Note OFF: Time 169680, Note Name: C#4
Note ON: Time 169920, Note Name: G#2, Velocity: 36
Note OFF: Time 170400, Note Name: G#2
Note ON: Time 170400, Note Name: C4, Velocity: 32
Note ON: Time 170400, Note Name: G#3, Velocity: 32
Note ON: Time 170400, Note Name: D#3, Velocity: 32
Note OFF: Time 170880, Note Name: D#3
Note OFF: Time 170880, Note Name: G#3
Note OFF: Time 170880, Note Name: C4
Note ON: Time 170880, Note Name: C4, Velocity: 37
Note ON: Time 170880, Note Name: G#3, Velocity: 37
Note ON: Time 170880, Note Name: D#3, Velocity: 37
Note OFF: Time 171120, Note Name: D#3
Note OFF: Time 171120, Note Name: G#3
Note OFF: Time 171120, Note Name: C4
Note ON: Time 171360, Note Name: G#2, Velocity: 38
Note OFF: Time 171840, Note Name: G#2
Note ON: Time 171840, Note Name: B3, Velocity: 39
Note ON: Time 171840, Note Name: G#3, Velocity: 39
Note ON: Time 171840, Note Name: D3, Velocity: 39
Note OFF: Time 172080, Note Name: D3
Note ON: Time 172080, Note Name: F3, Velocity: 29
Note OFF: Time 172320, Note Name: F3
Note OFF: Time 172320, Note Name: G#3
Note OFF: Time 172320, Note Name: B3
Note ON: Time 172320, Note Name: D#3, Velocity: 50
Note ON: Time 172320, Note Name: G#3, Velocity: 50
Note ON: Time 172320, Note Name: C4, Velocity: 50
Note OFF: Time 172560, Note Name: C4
Note OFF: Time 172560, Note Name: G#3
Note OFF: Time 172560, Note Name: D#3
Note ON: Time 172800, Note Name: C#4, Velocity: 76
Note ON: Time 172800, Note Name: A#3, Velocity: 64
Note ON: Time 172800, Note Name: D#3, Velocity: 64
Note OFF: Time 173040, Note Name: D#3
Note OFF: Time 173040, Note Name: A#3
Note OFF: Time 173040, Note Name: C#4
Note ON: Time 173760, Note Name: C#4, Velocity: 63
Note ON: Time 173760, Note Name: A#3, Velocity: 63
Note ON: Time 173760, Note Name: D#3, Velocity: 63
Note OFF: Time 174000, Note Name: D#3
Note OFF: Time 174000, Note Name: A#3
Note OFF: Time 174000, Note Name: C#4
Note ON: Time 174240, Note Name: C#4, Velocity: 68
Note ON: Time 174240, Note Name: A#3, Velocity: 57
Note ON: Time 174240, Note Name: D#3, Velocity: 57
Note OFF: Time 174480, Note Name: D#3
Note OFF: Time 174480, Note Name: A#3
Note OFF: Time 174480, Note Name: C#4
Note ON: Time 175200, Note Name: C#4, Velocity: 45
Note ON: Time 175200, Note Name: A#3, Velocity: 45
Note ON: Time 175200, Note Name: D#3, Velocity: 45
Note OFF: Time 175440, Note Name: D#3
Note OFF: Time 175440, Note Name: A#3
Note OFF: Time 175440, Note Name: C#4
Note ON: Time 175680, Note Name: D#2, Velocity: 40
Note OFF: Time 176160, Note Name: D#2
Note ON: Time 176160, Note Name: C#4, Velocity: 39
Note ON: Time 176160, Note Name: G3, Velocity: 39
Note OFF: Time 176640, Note Name: G3
Note OFF: Time 176640, Note Name: C#4
Note ON: Time 176640, Note Name: D#3, Velocity: 37
Note ON: Time 176640, Note Name: C#4, Velocity: 37
Note OFF: Time 177120, Note Name: C#4
Note OFF: Time 177120, Note Name: D#3
Note ON: Time 177120, Note Name: G#2, Velocity: 48
Note OFF: Time 177600, Note Name: G#2
Note ON: Time 177600, Note Name: G#3, Velocity: 36
Note ON: Time 177600, Note Name: C4, Velocity: 36
Note OFF: Time 178080, Note Name: C4
Note OFF: Time 178080, Note Name: G#3
Note ON: Time 178080, Note Name: D#3, Velocity: 45
Note ON: Time 178080, Note Name: C4, Velocity: 45
Note OFF: Time 178560, Note Name: C4
Note OFF: Time 178560, Note Name: D#3
Note ON: Time 178560, Note Name: C#4, Velocity: 72
Note ON: Time 178560, Note Name: A#3, Velocity: 61
Note ON: Time 178560, Note Name: D#3, Velocity: 61
Note OFF: Time 178800, Note Name: D#3
Note OFF: Time 178800, Note Name: A#3
Note OFF: Time 178800, Note Name: C#4
Note ON: Time 179520, Note Name: C#4, Velocity: 64
Note ON: Time 179520, Note Name: A#3, Velocity: 64
Note ON: Time 179520, Note Name: D#3, Velocity: 64
Note OFF: Time 179760, Note Name: D#3
Note OFF: Time 179760, Note Name: A#3
Note OFF: Time 179760, Note Name: C#4
Note ON: Time 180000, Note Name: C#4, Velocity: 73
Note ON: Time 180000, Note Name: A#3, Velocity: 62
Note ON: Time 180000, Note Name: D#3, Velocity: 62
Note OFF: Time 180240, Note Name: D#3
Note OFF: Time 180240, Note Name: A#3
Note OFF: Time 180240, Note Name: C#4
Note ON: Time 180960, Note Name: C#4, Velocity: 51
Note ON: Time 180960, Note Name: A#3, Velocity: 51
Note ON: Time 180960, Note Name: D#3, Velocity: 51
Note OFF: Time 181200, Note Name: D#3
Note OFF: Time 181200, Note Name: A#3
Note OFF: Time 181200, Note Name: C#4
Note ON: Time 181440, Note Name: G#2, Velocity: 46
Note OFF: Time 181920, Note Name: G#2
Note ON: Time 181920, Note Name: C4, Velocity: 35
Note ON: Time 181920, Note Name: G#3, Velocity: 35
Note ON: Time 181920, Note Name: D#3, Velocity: 35
Note OFF: Time 182400, Note Name: D#3
Note OFF: Time 182400, Note Name: G#3
Note OFF: Time 182400, Note Name: C4
Note ON: Time 182400, Note Name: C4, Velocity: 42
Note ON: Time 182400, Note Name: G#3, Velocity: 42
Note ON: Time 182400, Note Name: D#3, Velocity: 42
Note OFF: Time 182640, Note Name: D#3
Note OFF: Time 182640, Note Name: G#3
Note OFF: Time 182640, Note Name: C4
Note ON: Time 182880, Note Name: G#2, Velocity: 49
Note OFF: Time 183360, Note Name: G#2
Note ON: Time 183360, Note Name: B3, Velocity: 44
Note ON: Time 183360, Note Name: G#3, Velocity: 44
Note ON: Time 183360, Note Name: D3, Velocity: 44
Note OFF: Time 183600, Note Name: D3
Note ON: Time 183600, Note Name: F3, Velocity: 29
Note OFF: Time 183840, Note Name: F3
Note OFF: Time 183840, Note Name: G#3
Note OFF: Time 183840, Note Name: B3
Note ON: Time 183840, Note Name: D#3, Velocity: 51
Note ON: Time 183840, Note Name: G#3, Velocity: 51
Note ON: Time 183840, Note Name: C4, Velocity: 51
Note OFF: Time 184080, Note Name: C4
Note OFF: Time 184080, Note Name: G#3
Note OFF: Time 184080, Note Name: D#3
Note ON: Time 184320, Note Name: C#4, Velocity: 68
Note ON: Time 184320, Note Name: A#3, Velocity: 57
Note ON: Time 184320, Note Name: D#3, Velocity: 57
Note OFF: Time 184560, Note Name: D#3
Note OFF: Time 184560, Note Name: A#3
Note OFF: Time 184560, Note Name: C#4
Note ON: Time 185280, Note Name: C#4, Velocity: 63
Note ON: Time 185280, Note Name: A#3, Velocity: 63
Note ON: Time 185280, Note Name: D#3, Velocity: 63
Note OFF: Time 185520, Note Name: D#3
Note OFF: Time 185520, Note Name: A#3
Note OFF: Time 185520, Note Name: C#4
Note ON: Time 185760, Note Name: C#4, Velocity: 71
Note ON: Time 185760, Note Name: A#3, Velocity: 71
Note ON: Time 185760, Note Name: D#3, Velocity: 60
Note OFF: Time 186000, Note Name: D#3
Note OFF: Time 186000, Note Name: A#3
Note OFF: Time 186000, Note Name: C#4
Note ON: Time 186720, Note Name: C#4, Velocity: 36
Note ON: Time 186720, Note Name: A#3, Velocity: 36
Note ON: Time 186720, Note Name: D#3, Velocity: 36
Note OFF: Time 186960, Note Name: D#3
Note OFF: Time 186960, Note Name: A#3
Note OFF: Time 186960, Note Name: C#4
Note ON: Time 187200, Note Name: C4, Velocity: 45
Note ON: Time 187200, Note Name: G#3, Velocity: 45
Note OFF: Time 187680, Note Name: G#3
Note OFF: Time 187680, Note Name: C4
Note ON: Time 190080, Note Name: G#2, Velocity: 38
Note OFF: Time 190320, Note Name: G#2
Note ON: Time 190560, Note Name: C4, Velocity: 44
Note ON: Time 190560, Note Name: D#3, Velocity: 44
Note ON: Time 191040, Note Name: F#4, Velocity: 36
Note ON: Time 191040, Note Name: G#3, Velocity: 36
Note OFF: Time 191060, Note Name: D#3
Note OFF: Time 191060, Note Name: C4
Note OFF: Time 191520, Note Name: F#4
Note OFF: Time 191520, Note Name: G#3
Note ON: Time 191520, Note Name: G#2, Velocity: 43
Note OFF: Time 191760, Note Name: G#2
Note ON: Time 192000, Note Name: C4, Velocity: 35
Note ON: Time 192000, Note Name: D#3, Velocity: 35
Note ON: Time 192480, Note Name: F#4, Velocity: 39
Note ON: Time 192480, Note Name: G#3, Velocity: 39
Note OFF: Time 192500, Note Name: D#3
Note OFF: Time 192500, Note Name: C4
Note OFF: Time 192960, Note Name: F#4
Note OFF: Time 192960, Note Name: G#3
Note ON: Time 192960, Note Name: C#2, Velocity: 51
Note OFF: Time 193200, Note Name: C#2
Note ON: Time 193440, Note Name: F3, Velocity: 37
Note ON: Time 193440, Note Name: C#4, Velocity: 37
Note ON: Time 193920, Note Name: F4, Velocity: 45
Note ON: Time 193920, Note Name: G#3, Velocity: 45
Note OFF: Time 193940, Note Name: C#4
Note OFF: Time 193940, Note Name: F3
Note OFF: Time 194400, Note Name: F4
Note OFF: Time 194400, Note Name: G#3
Note ON: Time 194400, Note Name: C#3, Velocity: 37
Note OFF: Time 194640, Note Name: C#3
Note ON: Time 194880, Note Name: C#4, Velocity: 40
Note ON: Time 194880, Note Name: F3, Velocity: 40
Note ON: Time 195360, Note Name: F4, Velocity: 39
Note ON: Time 195360, Note Name: G#3, Velocity: 39
Note OFF: Time 195380, Note Name: F3
Note OFF: Time 195380, Note Name: C#4
Note OFF: Time 195840, Note Name: F4
Note OFF: Time 195840, Note Name: G#3
Note ON: Time 195840, Note Name: G#2, Velocity: 38
Note OFF: Time 196080, Note Name: G#2
Note ON: Time 196320, Note Name: C4, Velocity: 45
Note ON: Time 196320, Note Name: D#3, Velocity: 45
Note ON: Time 196800, Note Name: F#4, Velocity: 45
Note ON: Time 196800, Note Name: G#3, Velocity: 45
Note OFF: Time 196820, Note Name: D#3
Note OFF: Time 196820, Note Name: C4
Note OFF: Time 197280, Note Name: F#4
Note OFF: Time 197280, Note Name: G#3
Note ON: Time 197280, Note Name: G#2, Velocity: 44
Note OFF: Time 197520, Note Name: G#2
Note ON: Time 197760, Note Name: C4, Velocity: 42
Note ON: Time 197760, Note Name: D#3, Velocity: 42
Note ON: Time 198240, Note Name: G#3, Velocity: 34
Note ON: Time 198240, Note Name: F#4, Velocity: 34
Note OFF: Time 198260, Note Name: D#3
Note OFF: Time 198260, Note Name: C4
Note OFF: Time 198720, Note Name: G#3
Note OFF: Time 198720, Note Name: F#4
Note ON: Time 198720, Note Name: C#3, Velocity: 38
Note ON: Time 199200, Note Name: G#3, Velocity: 46
Note OFF: Time 199680, Note Name: G#3
Note ON: Time 199680, Note Name: C4, Velocity: 45
Note OFF: Time 200160, Note Name: C4
Note OFF: Time 200160, Note Name: C#3
Note ON: Time 200160, Note Name: C#4, Velocity: 43
Note ON: Time 200160, Note Name: C#3, Velocity: 43
Note OFF: Time 200400, Note Name: C#3
Note OFF: Time 200400, Note Name: C#4
Note ON: Time 200640, Note Name: F3, Velocity: 36
Note ON: Time 200640, Note Name: C#4, Velocity: 36
Note OFF: Time 201120, Note Name: C#4
Note OFF: Time 201120, Note Name: F3
Note ON: Time 201120, Note Name: F4, Velocity: 36
Note ON: Time 201120, Note Name: G#3, Velocity: 36
Note OFF: Time 201600, Note Name: G#3
Note OFF: Time 201600, Note Name: F4
Note ON: Time 201600, Note Name: G#2, Velocity: 33
Note OFF: Time 201840, Note Name: G#2
Note ON: Time 202080, Note Name: C4, Velocity: 38
Note ON: Time 202080, Note Name: D#3, Velocity: 38
Note ON: Time 202560, Note Name: F#4, Velocity: 35
Note ON: Time 202560, Note Name: G#3, Velocity: 35
Note OFF: Time 202580, Note Name: D#3
Note OFF: Time 202580, Note Name: C4
Note OFF: Time 203040, Note Name: F#4
Note OFF: Time 203040, Note Name: G#3
Note ON: Time 203040, Note Name: G#2, Velocity: 43
Note OFF: Time 203280, Note Name: G#2
Note ON: Time 203520, Note Name: C4, Velocity: 35
Note ON: Time 203520, Note Name: D#3, Velocity: 35
Note ON: Time 204000, Note Name: F#4, Velocity: 39
Note ON: Time 204000, Note Name: G#3, Velocity: 39
Note OFF: Time 204020, Note Name: D#3
Note OFF: Time 204020, Note Name: C4
Note OFF: Time 204480, Note Name: F#4
Note OFF: Time 204480, Note Name: G#3
Note ON: Time 204480, Note Name: C#2, Velocity: 48
Note OFF: Time 204720, Note Name: C#2
Note ON: Time 204960, Note Name: F3, Velocity: 38
Note ON: Time 204960, Note Name: C#4, Velocity: 38
Note ON: Time 205440, Note Name: F4, Velocity: 47
Note ON: Time 205440, Note Name: G#3, Velocity: 47
Note OFF: Time 205460, Note Name: C#4
Note OFF: Time 205460, Note Name: F3
Note OFF: Time 205920, Note Name: F4
Note OFF: Time 205920, Note Name: G#3
Note ON: Time 205920, Note Name: C#3, Velocity: 52
Note OFF: Time 206160, Note Name: C#3
Note ON: Time 206400, Note Name: C#4, Velocity: 40
Note ON: Time 206400, Note Name: F3, Velocity: 40
Note ON: Time 206880, Note Name: F4, Velocity: 39
Note ON: Time 206880, Note Name: G#3, Velocity: 39
Note OFF: Time 206900, Note Name: F3
Note OFF: Time 206900, Note Name: C#4
Note OFF: Time 207360, Note Name: F4
Note OFF: Time 207360, Note Name: G#3
Note ON: Time 207360, Note Name: F#2, Velocity: 46
Note OFF: Time 207600, Note Name: F#2
Note ON: Time 207840, Note Name: D4, Velocity: 37
Note ON: Time 207840, Note Name: F#3, Velocity: 37
Note ON: Time 208320, Note Name: D#4, Velocity: 43
Note ON: Time 208320, Note Name: A#3, Velocity: 43
Note OFF: Time 208340, Note Name: F#3
Note OFF: Time 208340, Note Name: D4
Note OFF: Time 208800, Note Name: D#4
Note OFF: Time 208800, Note Name: A#3
Note ON: Time 208800, Note Name: G#2, Velocity: 35
Note OFF: Time 209040, Note Name: G#2
Note ON: Time 209280, Note Name: C4, Velocity: 40
Note ON: Time 209280, Note Name: F3, Velocity: 40
Note ON: Time 209760, Note Name: C#4, Velocity: 41
Note ON: Time 209760, Note Name: G#3, Velocity: 41
Note OFF: Time 209780, Note Name: F3
Note OFF: Time 209780, Note Name: C4
Note OFF: Time 210240, Note Name: C#4
Note OFF: Time 210240, Note Name: G#3
Note ON: Time 210240, Note Name: G#2, Velocity: 33
Note OFF: Time 210480, Note Name: G#2
Note ON: Time 210720, Note Name: C4, Velocity: 36
Note ON: Time 210720, Note Name: G#3, Velocity: 36
Note ON: Time 210720, Note Name: D#3, Velocity: 36
Note OFF: Time 211200, Note Name: D#3
Note OFF: Time 211200, Note Name: G#3
Note OFF: Time 211200, Note Name: C4
Note ON: Time 211200, Note Name: C4, Velocity: 30
Note ON: Time 211200, Note Name: G#3, Velocity: 30
Note ON: Time 211200, Note Name: D#3, Velocity: 30
Note OFF: Time 211680, Note Name: D#3
Note OFF: Time 211680, Note Name: G#3
Note OFF: Time 211680, Note Name: C4
Note ON: Time 211680, Note Name: C#4, Velocity: 42
Note ON: Time 211680, Note Name: G#3, Velocity: 42
Note ON: Time 211680, Note Name: C#3, Velocity: 42
Note OFF: Time 211920, Note Name: C#3
Note OFF: Time 211920, Note Name: G#3
Note OFF: Time 211920, Note Name: C#4
Note ON: Time 213120, Note Name: C#2, Velocity: 61
Note OFF: Time 213360, Note Name: C#2
Note ON: Time 213600, Note Name: B3, Velocity: 43
Note ON: Time 213600, Note Name: G#3, Velocity: 43
Note ON: Time 213600, Note Name: C#3, Velocity: 43
Note OFF: Time 214080, Note Name: C#3
Note OFF: Time 214080, Note Name: G#3
Note OFF: Time 214080, Note Name: B3
Note ON: Time 214080, Note Name: C#3, Velocity: 51
Note ON: Time 214080, Note Name: G#3, Velocity: 51
Note ON: Time 214080, Note Name: B3, Velocity: 51
Note OFF: Time 214560, Note Name: B3
Note OFF: Time 214560, Note Name: G#3
Note OFF: Time 214560, Note Name: C#3
Note ON: Time 214560, Note Name: C#2, Velocity: 65
Note OFF: Time 214800, Note Name: C#2
Note ON: Time 215040, Note Name: B3, Velocity: 56
Note ON: Time 215040, Note Name: G#3, Velocity: 56
Note ON: Time 215040, Note Name: C#3, Velocity: 56
Note OFF: Time 215520, Note Name: C#3
Note OFF: Time 215520, Note Name: G#3
Note OFF: Time 215520, Note Name: B3
Note ON: Time 215520, Note Name: C#3, Velocity: 57
Note ON: Time 215520, Note Name: G#3, Velocity: 57
Note ON: Time 215520, Note Name: B3, Velocity: 57
Note OFF: Time 216000, Note Name: B3
Note OFF: Time 216000, Note Name: G#3
Note OFF: Time 216000, Note Name: C#3
Note ON: Time 216000, Note Name: F#2, Velocity: 63
Note OFF: Time 216240, Note Name: F#2
Note ON: Time 216480, Note Name: A#3, Velocity: 45
Note ON: Time 216480, Note Name: F#3, Velocity: 45
Note ON: Time 216480, Note Name: C#3, Velocity: 45
Note OFF: Time 216960, Note Name: C#3
Note OFF: Time 216960, Note Name: F#3
Note OFF: Time 216960, Note Name: A#3
Note ON: Time 216960, Note Name: C#3, Velocity: 45
Note ON: Time 216960, Note Name: F#3, Velocity: 45
Note ON: Time 216960, Note Name: A#3, Velocity: 45
Note OFF: Time 217200, Note Name: A#3
Note OFF: Time 217200, Note Name: F#3
Note OFF: Time 217200, Note Name: C#3
Note ON: Time 217440, Note Name: F#2, Velocity: 55
Note OFF: Time 217680, Note Name: F#2
Note ON: Time 217920, Note Name: D3, Velocity: 41
Note ON: Time 217920, Note Name: A#3, Velocity: 41
Note OFF: Time 218400, Note Name: A#3
Note OFF: Time 218400, Note Name: D3
Note ON: Time 218400, Note Name: D#3, Velocity: 46
Note ON: Time 218400, Note Name: A#3, Velocity: 46
Note OFF: Time 218880, Note Name: A#3
Note OFF: Time 218880, Note Name: D#3
Note ON: Time 218880, Note Name: G#2, Velocity: 35
Note OFF: Time 219120, Note Name: G#2
Note ON: Time 219360, Note Name: C4, Velocity: 32
Note ON: Time 219360, Note Name: G#3, Velocity: 32
Note ON: Time 219360, Note Name: D#3, Velocity: 32
Note OFF: Time 219840, Note Name: D#3
Note OFF: Time 219840, Note Name: G#3
Note OFF: Time 219840, Note Name: C4
Note ON: Time 219840, Note Name: C4, Velocity: 37
Note ON: Time 219840, Note Name: G#3, Velocity: 37
Note ON: Time 219840, Note Name: D#3, Velocity: 37
Note OFF: Time 220320, Note Name: D#3
Note OFF: Time 220320, Note Name: G#3
Note OFF: Time 220320, Note Name: C4
Note ON: Time 220320, Note Name: G#2, Velocity: 45
Note OFF: Time 220560, Note Name: G#2
Note ON: Time 220800, Note Name: C4, Velocity: 38
Note ON: Time 220800, Note Name: G#3, Velocity: 38
Note ON: Time 220800, Note Name: D#3, Velocity: 38
Note OFF: Time 221280, Note Name: D#3
Note OFF: Time 221280, Note Name: G#3
Note OFF: Time 221280, Note Name: C4
Note ON: Time 221280, Note Name: D#3, Velocity: 38
Note ON: Time 221280, Note Name: G#3, Velocity: 38
Note ON: Time 221280, Note Name: C4, Velocity: 38
Note OFF: Time 221760, Note Name: C4
Note OFF: Time 221760, Note Name: G#3
Note OFF: Time 221760, Note Name: D#3
Note ON: Time 221760, Note Name: G#2, Velocity: 49
Note OFF: Time 222000, Note Name: G#2
Note ON: Time 222240, Note Name: C4, Velocity: 35
Note ON: Time 222240, Note Name: G#3, Velocity: 35
Note ON: Time 222240, Note Name: D#3, Velocity: 35
Note OFF: Time 222720, Note Name: D#3
Note OFF: Time 222720, Note Name: G#3
Note OFF: Time 222720, Note Name: C4
Note ON: Time 222720, Note Name: D#3, Velocity: 40
Note ON: Time 222720, Note Name: G#3, Velocity: 40
Note ON: Time 222720, Note Name: C4, Velocity: 40
Note OFF: Time 223200, Note Name: C4
Note OFF: Time 223200, Note Name: G#3
Note OFF: Time 223200, Note Name: D#3
Note ON: Time 223200, Note Name: C#3, Velocity: 34
Note ON: Time 223680, Note Name: C#4, Velocity: 38
Note ON: Time 223680, Note Name: G#3, Velocity: 38
Note OFF: Time 224160, Note Name: G#3
Note OFF: Time 224160, Note Name: C#4
Note ON: Time 224160, Note Name: C#4, Velocity: 35
Note ON: Time 224160, Note Name: G#3, Velocity: 35
Note OFF: Time 224640, Note Name: G#3
Note OFF: Time 224640, Note Name: C#4
Note OFF: Time 224640, Note Name: C#3
Note ON: Time 224640, Note Name: C#3, Velocity: 60
Note OFF: Time 224880, Note Name: C#3
Note ON: Time 225120, Note Name: B4, Velocity: 45
Note ON: Time 225120, Note Name: G#4, Velocity: 45
Note ON: Time 225120, Note Name: C#4, Velocity: 45
Note OFF: Time 225600, Note Name: C#4
Note OFF: Time 225600, Note Name: G#4
Note OFF: Time 225600, Note Name: B4
Note ON: Time 225600, Note Name: C#4, Velocity: 54
Note ON: Time 225600, Note Name: G#4, Velocity: 54
Note ON: Time 225600, Note Name: B4, Velocity: 54
Note OFF: Time 226080, Note Name: B4
Note OFF: Time 226080, Note Name: G#4
Note OFF: Time 226080, Note Name: C#4
Note ON: Time 226080, Note Name: C#3, Velocity: 63
Note OFF: Time 226320, Note Name: C#3
Note ON: Time 226560, Note Name: C#4, Velocity: 45
Note ON: Time 226560, Note Name: G#4, Velocity: 45
Note ON: Time 226560, Note Name: B4, Velocity: 45
Note OFF: Time 227040, Note Name: B4
Note OFF: Time 227040, Note Name: G#4
Note OFF: Time 227040, Note Name: C#4
Note ON: Time 227040, Note Name: B4, Velocity: 48
Note ON: Time 227040, Note Name: G#4, Velocity: 48
Note ON: Time 227040, Note Name: C#4, Velocity: 48
Note OFF: Time 227520, Note Name: C#4
Note OFF: Time 227520, Note Name: G#4
Note OFF: Time 227520, Note Name: B4
Note ON: Time 227520, Note Name: F#3, Velocity: 50
Note OFF: Time 227760, Note Name: F#3
Note ON: Time 228000, Note Name: A#4, Velocity: 49
Note ON: Time 228000, Note Name: F#4, Velocity: 49
Note ON: Time 228000, Note Name: C#4, Velocity: 49
Note OFF: Time 228480, Note Name: C#4
Note OFF: Time 228480, Note Name: F#4
Note OFF: Time 228480, Note Name: A#4
Note ON: Time 228480, Note Name: C#4, Velocity: 55
Note ON: Time 228480, Note Name: F#4, Velocity: 55
Note ON: Time 228480, Note Name: A#4, Velocity: 55
Note OFF: Time 228720, Note Name: A#4
Note OFF: Time 228720, Note Name: F#4
Note OFF: Time 228720, Note Name: C#4
Note ON: Time 228960, Note Name: F#3, Velocity: 46
Note OFF: Time 229200, Note Name: F#3
Note ON: Time 229440, Note Name: D4, Velocity: 43
Note ON: Time 229440, Note Name: A#4, Velocity: 43
Note OFF: Time 229920, Note Name: A#4
Note OFF: Time 229920, Note Name: D4
Note ON: Time 229920, Note Name: D#4, Velocity: 43
Note ON: Time 229920, Note Name: A#4, Velocity: 43
Note OFF: Time 230400, Note Name: A#4
Note OFF: Time 230400, Note Name: D#4
Note ON: Time 230400, Note Name: G#3, Velocity: 49
Note OFF: Time 230640, Note Name: G#3
Note ON: Time 230880, Note Name: D#4, Velocity: 42
Note ON: Time 230880, Note Name: G#4, Velocity: 42
Note ON: Time 230880, Note Name: C5, Velocity: 42
Note OFF: Time 231360, Note Name: C5
Note OFF: Time 231360, Note Name: G#4
Note OFF: Time 231360, Note Name: D#4
Note ON: Time 231360, Note Name: C5, Velocity: 36
Note ON: Time 231360, Note Name: G#4, Velocity: 36
Note ON: Time 231360, Note Name: D#4, Velocity: 36
Note OFF: Time 231840, Note Name: D#4
Note OFF: Time 231840, Note Name: G#4
Note OFF: Time 231840, Note Name: C5
Note ON: Time 231840, Note Name: G#3, Velocity: 44
Note OFF: Time 232080, Note Name: G#3
Note ON: Time 232320, Note Name: C5, Velocity: 36
Note ON: Time 232320, Note Name: G#4, Velocity: 36
Note ON: Time 232320, Note Name: D#4, Velocity: 36
Note OFF: Time 232800, Note Name: D#4
Note OFF: Time 232800, Note Name: G#4
Note OFF: Time 232800, Note Name: C5
Note ON: Time 232800, Note Name: D#4, Velocity: 36
Note ON: Time 232800, Note Name: G#4, Velocity: 36
Note ON: Time 232800, Note Name: C5, Velocity: 36
Note OFF: Time 233280, Note Name: C5
Note OFF: Time 233280, Note Name: G#4
Note OFF: Time 233280, Note Name: D#4
Note ON: Time 233280, Note Name: G#3, Velocity: 43
Note OFF: Time 233520, Note Name: G#3
Note ON: Time 233760, Note Name: C5, Velocity: 32
Note ON: Time 233760, Note Name: G#4, Velocity: 32
Note ON: Time 233760, Note Name: D#4, Velocity: 32
Note OFF: Time 234240, Note Name: D#4
Note OFF: Time 234240, Note Name: G#4
Note OFF: Time 234240, Note Name: C5
Note ON: Time 234240, Note Name: D#4, Velocity: 38
Note ON: Time 234240, Note Name: G#4, Velocity: 38
Note ON: Time 234240, Note Name: C5, Velocity: 38
Note OFF: Time 234720, Note Name: C5
Note OFF: Time 234720, Note Name: G#4
Note OFF: Time 234720, Note Name: D#4
Note ON: Time 234720, Note Name: C#4, Velocity: 38
Note ON: Time 234720, Note Name: G#4, Velocity: 38
Note ON: Time 234720, Note Name: C#5, Velocity: 38
Note OFF: Time 235200, Note Name: C#5
Note OFF: Time 235200, Note Name: G#4
Note OFF: Time 235200, Note Name: C#4
Note ON: Time 236160, Note Name: C#2, Velocity: 59
Note OFF: Time 236400, Note Name: C#2
Note ON: Time 236640, Note Name: B3, Velocity: 49
Note ON: Time 236640, Note Name: G#3, Velocity: 49
Note ON: Time 236640, Note Name: C#3, Velocity: 49
Note OFF: Time 237120, Note Name: C#3
Note OFF: Time 237120, Note Name: G#3
Note OFF: Time 237120, Note Name: B3
Note ON: Time 237120, Note Name: C#3, Velocity: 55
Note ON: Time 237120, Note Name: G#3, Velocity: 55
Note ON: Time 237120, Note Name: B3, Velocity: 55
Note OFF: Time 237360, Note Name: B3
Note OFF: Time 237360, Note Name: G#3
Note OFF: Time 237360, Note Name: C#3
Note ON: Time 237600, Note Name: C#2, Velocity: 58
Note OFF: Time 237840, Note Name: C#2
Note ON: Time 238080, Note Name: B3, Velocity: 50
Note ON: Time 238080, Note Name: G#3, Velocity: 50
Note ON: Time 238080, Note Name: C#3, Velocity: 50
Note OFF: Time 238560, Note Name: C#3
Note OFF: Time 238560, Note Name: G#3
Note OFF: Time 238560, Note Name: B3
Note ON: Time 238560, Note Name: C#3, Velocity: 54
Note ON: Time 238560, Note Name: G#3, Velocity: 54
Note ON: Time 238560, Note Name: B3, Velocity: 54
Note OFF: Time 239040, Note Name: B3
Note OFF: Time 239040, Note Name: G#3
Note OFF: Time 239040, Note Name: C#3
Note ON: Time 239040, Note Name: F#2, Velocity: 54
Note OFF: Time 239280, Note Name: F#2
Note ON: Time 239520, Note Name: A#3, Velocity: 51
Note ON: Time 239520, Note Name: F#3, Velocity: 51
Note ON: Time 239520, Note Name: C#3, Velocity: 51
Note OFF: Time 240000, Note Name: C#3
Note OFF: Time 240000, Note Name: F#3
Note OFF: Time 240000, Note Name: A#3
Note ON: Time 240000, Note Name: C#3, Velocity: 54
Note ON: Time 240000, Note Name: F#3, Velocity: 54
Note ON: Time 240000, Note Name: A#3, Velocity: 54
Note OFF: Time 240240, Note Name: A#3
Note OFF: Time 240240, Note Name: F#3
Note OFF: Time 240240, Note Name: C#3
Note ON: Time 240480, Note Name: F#2, Velocity: 63
Note OFF: Time 240720, Note Name: F#2
Note ON: Time 240960, Note Name: D3, Velocity: 51
Note ON: Time 240960, Note Name: A#3, Velocity: 51
Note OFF: Time 241440, Note Name: A#3
Note OFF: Time 241440, Note Name: D3
Note ON: Time 241440, Note Name: D#3, Velocity: 54
Note ON: Time 241440, Note Name: A#3, Velocity: 54
Note OFF: Time 241920, Note Name: A#3
Note OFF: Time 241920, Note Name: D#3
Note ON: Time 241920, Note Name: G#2, Velocity: 45
Note OFF: Time 242160, Note Name: G#2
Note ON: Time 242400, Note Name: C4, Velocity: 34
Note ON: Time 242400, Note Name: G#3, Velocity: 34
Note ON: Time 242400, Note Name: D#3, Velocity: 34
Note OFF: Time 242880, Note Name: D#3
Note OFF: Time 242880, Note Name: G#3
Note OFF: Time 242880, Note Name: C4
Note ON: Time 242880, Note Name: C4, Velocity: 37
Note ON: Time 242880, Note Name: G#3, Velocity: 37
Note ON: Time 242880, Note Name: D#3, Velocity: 37
Note OFF: Time 243360, Note Name: D#3
Note OFF: Time 243360, Note Name: G#3
Note OFF: Time 243360, Note Name: C4
Note ON: Time 243360, Note Name: G#2, Velocity: 45
Note OFF: Time 243600, Note Name: G#2
Note ON: Time 243840, Note Name: C4, Velocity: 34
Note ON: Time 243840, Note Name: G#3, Velocity: 34
Note ON: Time 243840, Note Name: D#3, Velocity: 34
Note OFF: Time 244320, Note Name: D#3
Note OFF: Time 244320, Note Name: G#3
Note OFF: Time 244320, Note Name: C4
Note ON: Time 244320, Note Name: D#3, Velocity: 38
Note ON: Time 244320, Note Name: G#3, Velocity: 38
Note ON: Time 244320, Note Name: C4, Velocity: 38
Note OFF: Time 244800, Note Name: C4
Note OFF: Time 244800, Note Name: G#3
Note OFF: Time 244800, Note Name: D#3
Note ON: Time 244800, Note Name: G#2, Velocity: 49
Note OFF: Time 245040, Note Name: G#2
Note ON: Time 245280, Note Name: C4, Velocity: 36
Note ON: Time 245280, Note Name: G#3, Velocity: 36
Note ON: Time 245280, Note Name: D#3, Velocity: 36
Note OFF: Time 245760, Note Name: D#3
Note OFF: Time 245760, Note Name: G#3
Note OFF: Time 245760, Note Name: C4
Note ON: Time 245760, Note Name: D#3, Velocity: 40
Note ON: Time 245760, Note Name: G#3, Velocity: 40
Note ON: Time 245760, Note Name: C4, Velocity: 40
Note OFF: Time 246240, Note Name: C4
Note OFF: Time 246240, Note Name: G#3
Note OFF: Time 246240, Note Name: D#3
Note ON: Time 246240, Note Name: C#3, Velocity: 52
Note ON: Time 246720, Note Name: C#4, Velocity: 45
Note ON: Time 246720, Note Name: G#3, Velocity: 45
Note OFF: Time 247200, Note Name: G#3
Note OFF: Time 247200, Note Name: C#4
Note ON: Time 247200, Note Name: C#4, Velocity: 45
Note ON: Time 247200, Note Name: G#3, Velocity: 45
Note OFF: Time 247680, Note Name: G#3
Note OFF: Time 247680, Note Name: C#4
Note OFF: Time 247680, Note Name: C#3
Note ON: Time 247680, Note Name: C#3, Velocity: 60
Note OFF: Time 247920, Note Name: C#3
Note ON: Time 248160, Note Name: B4, Velocity: 50
Note ON: Time 248160, Note Name: G#4, Velocity: 50
Note ON: Time 248160, Note Name: C#4, Velocity: 50
Note OFF: Time 248640, Note Name: C#4
Note OFF: Time 248640, Note Name: G#4
Note OFF: Time 248640, Note Name: B4
Note ON: Time 248640, Note Name: C#4, Velocity: 56
Note ON: Time 248640, Note Name: G#4, Velocity: 56
Note ON: Time 248640, Note Name: B4, Velocity: 56
Note OFF: Time 249120, Note Name: B4
Note OFF: Time 249120, Note Name: G#4
Note OFF: Time 249120, Note Name: C#4
Note ON: Time 249120, Note Name: C#3, Velocity: 60
Note OFF: Time 249360, Note Name: C#3
Note ON: Time 249600, Note Name: C#4, Velocity: 47
Note ON: Time 249600, Note Name: G#4, Velocity: 47
Note ON: Time 249600, Note Name: B4, Velocity: 47
Note OFF: Time 250080, Note Name: B4
Note OFF: Time 250080, Note Name: G#4
Note OFF: Time 250080, Note Name: C#4
Note ON: Time 250080, Note Name: B4, Velocity: 53
Note ON: Time 250080, Note Name: G#4, Velocity: 53
Note ON: Time 250080, Note Name: C#4, Velocity: 53
Note OFF: Time 250560, Note Name: C#4
Note OFF: Time 250560, Note Name: G#4
Note OFF: Time 250560, Note Name: B4
Note ON: Time 250560, Note Name: F#3, Velocity: 60
Note OFF: Time 250800, Note Name: F#3
Note ON: Time 251040, Note Name: A#4, Velocity: 56
Note ON: Time 251040, Note Name: F#4, Velocity: 56
Note ON: Time 251040, Note Name: C#4, Velocity: 56
Note OFF: Time 251520, Note Name: C#4
Note OFF: Time 251520, Note Name: F#4
Note OFF: Time 251520, Note Name: A#4
Note ON: Time 251520, Note Name: C#4, Velocity: 60
Note ON: Time 251520, Note Name: F#4, Velocity: 60
Note ON: Time 251520, Note Name: A#4, Velocity: 60
Note OFF: Time 251760, Note Name: A#4
Note OFF: Time 251760, Note Name: F#4
Note OFF: Time 251760, Note Name: C#4
Note ON: Time 252000, Note Name: F#3, Velocity: 67
Note OFF: Time 252240, Note Name: F#3
Note ON: Time 252480, Note Name: D4, Velocity: 61
Note ON: Time 252480, Note Name: A#4, Velocity: 61
Note OFF: Time 252960, Note Name: A#4
Note OFF: Time 252960, Note Name: D4
Note ON: Time 252960, Note Name: D#4, Velocity: 62
Note ON: Time 252960, Note Name: A#4, Velocity: 62
Note OFF: Time 253440, Note Name: A#4
Note OFF: Time 253440, Note Name: D#4
Note ON: Time 253440, Note Name: G#3, Velocity: 45
Note OFF: Time 253680, Note Name: G#3
Note ON: Time 253920, Note Name: D#4, Velocity: 35
Note ON: Time 253920, Note Name: G#4, Velocity: 35
Note ON: Time 253920, Note Name: C5, Velocity: 35
Note OFF: Time 254400, Note Name: C5
Note OFF: Time 254400, Note Name: G#4
Note OFF: Time 254400, Note Name: D#4
Note ON: Time 254400, Note Name: C5, Velocity: 38
Note ON: Time 254400, Note Name: G#4, Velocity: 38
Note ON: Time 254400, Note Name: D#4, Velocity: 38
Note OFF: Time 254880, Note Name: D#4
Note OFF: Time 254880, Note Name: G#4
Note OFF: Time 254880, Note Name: C5
Note ON: Time 254880, Note Name: G#3, Velocity: 44
Note OFF: Time 255120, Note Name: G#3
Note ON: Time 255360, Note Name: C5, Velocity: 35
Note ON: Time 255360, Note Name: G#4, Velocity: 35
Note ON: Time 255360, Note Name: D#4, Velocity: 35
Note OFF: Time 255840, Note Name: D#4
Note OFF: Time 255840, Note Name: G#4
Note OFF: Time 255840, Note Name: C5
Note ON: Time 255840, Note Name: D#4, Velocity: 36
Note ON: Time 255840, Note Name: G#4, Velocity: 36
Note ON: Time 255840, Note Name: C5, Velocity: 36
Note OFF: Time 256320, Note Name: C5
Note OFF: Time 256320, Note Name: G#4
Note OFF: Time 256320, Note Name: D#4
Note ON: Time 256320, Note Name: G#3, Velocity: 46
Note OFF: Time 256560, Note Name: G#3
Note ON: Time 256800, Note Name: C5, Velocity: 36
Note ON: Time 256800, Note Name: G#4, Velocity: 36
Note ON: Time 256800, Note Name: D#4, Velocity: 36
Note OFF: Time 257280, Note Name: D#4
Note OFF: Time 257280, Note Name: G#4
Note OFF: Time 257280, Note Name: C5
Note ON: Time 257280, Note Name: D#4, Velocity: 38
Note ON: Time 257280, Note Name: G#4, Velocity: 38
Note ON: Time 257280, Note Name: C5, Velocity: 38
Note OFF: Time 257760, Note Name: C5
Note OFF: Time 257760, Note Name: G#4
Note OFF: Time 257760, Note Name: D#4
Note ON: Time 257760, Note Name: C#4, Velocity: 45
Note ON: Time 257760, Note Name: G#4, Velocity: 45
Note ON: Time 257760, Note Name: C#5, Velocity: 45
Note OFF: Time 258240, Note Name: C#5
Note OFF: Time 258240, Note Name: G#4
Note OFF: Time 258240, Note Name: C#4
Note ON: Time 259200, Note Name: A#2, Velocity: 50
Note OFF: Time 259440, Note Name: A#2
Note ON: Time 259680, Note Name: C#4, Velocity: 42
Note ON: Time 259680, Note Name: F3, Velocity: 42
Note OFF: Time 259920, Note Name: F3
Note OFF: Time 259920, Note Name: C#4
Note ON: Time 260160, Note Name: C#4, Velocity: 46
Note ON: Time 260160, Note Name: F3, Velocity: 46
Note OFF: Time 260400, Note Name: F3
Note OFF: Time 260400, Note Name: C#4
Note ON: Time 260640, Note Name: A2, Velocity: 50
Note OFF: Time 260880, Note Name: A2
Note ON: Time 261120, Note Name: F3, Velocity: 45
Note ON: Time 261120, Note Name: D#4, Velocity: 45
Note ON: Time 261120, Note Name: C4, Velocity: 45
Note OFF: Time 261360, Note Name: C4
Note OFF: Time 261360, Note Name: D#4
Note OFF: Time 261360, Note Name: F3
Note ON: Time 261600, Note Name: D#4, Velocity: 39
Note ON: Time 261600, Note Name: C4, Velocity: 39
Note ON: Time 261600, Note Name: F3, Velocity: 39
Note OFF: Time 261840, Note Name: F3
Note OFF: Time 261840, Note Name: C4
Note OFF: Time 261840, Note Name: D#4
Note ON: Time 262080, Note Name: A#2, Velocity: 50
Note OFF: Time 262320, Note Name: A#2
Note ON: Time 262560, Note Name: C#4, Velocity: 47
Note ON: Time 262560, Note Name: A#3, Velocity: 47
Note ON: Time 262560, Note Name: F3, Velocity: 47
Note OFF: Time 262800, Note Name: F3
Note OFF: Time 262800, Note Name: A#3
Note OFF: Time 262800, Note Name: C#4
Note ON: Time 263040, Note Name: C#4, Velocity: 53
Note ON: Time 263040, Note Name: A#3, Velocity: 53
Note ON: Time 263040, Note Name: F3, Velocity: 53
Note OFF: Time 263280, Note Name: F3
Note OFF: Time 263280, Note Name: A#3
Note OFF: Time 263280, Note Name: C#4
Note ON: Time 263520, Note Name: D#3, Velocity: 56
Note OFF: Time 263640, Note Name: D#3
Note ON: Time 264000, Note Name: F#4, Velocity: 49
Note ON: Time 264000, Note Name: C4, Velocity: 49
Note ON: Time 264000, Note Name: A#3, Velocity: 49
Note OFF: Time 264240, Note Name: A#3
Note OFF: Time 264240, Note Name: C4
Note OFF: Time 264240, Note Name: F#4
Note ON: Time 264480, Note Name: F#4, Velocity: 50
Note ON: Time 264480, Note Name: A#3, Velocity: 50
Note ON: Time 264480, Note Name: C4, Velocity: 50
Note OFF: Time 264720, Note Name: C4
Note OFF: Time 264720, Note Name: A#3
Note OFF: Time 264720, Note Name: F#4
Note ON: Time 264960, Note Name: F3, Velocity: 56
Note OFF: Time 265200, Note Name: F3
Note ON: Time 265440, Note Name: F4, Velocity: 46
Note ON: Time 265440, Note Name: C#4, Velocity: 46
Note ON: Time 265440, Note Name: A#3, Velocity: 46
Note OFF: Time 265680, Note Name: A#3
Note OFF: Time 265680, Note Name: C#4
Note OFF: Time 265680, Note Name: F4
Note ON: Time 265920, Note Name: F4, Velocity: 50
Note ON: Time 265920, Note Name: C#4, Velocity: 50
Note ON: Time 265920, Note Name: A#3, Velocity: 50
Note OFF: Time 266160, Note Name: A#3
Note OFF: Time 266160, Note Name: C#4
Note OFF: Time 266160, Note Name: F4
Note ON: Time 266400, Note Name: F3, Velocity: 50
Note OFF: Time 266640, Note Name: F3
Note ON: Time 266880, Note Name: D#4, Velocity: 46
Note ON: Time 266880, Note Name: F4, Velocity: 46
Note ON: Time 266880, Note Name: A3, Velocity: 46
Note OFF: Time 267120, Note Name: A3
Note OFF: Time 267120, Note Name: F4
Note OFF: Time 267120, Note Name: D#4
Note ON: Time 267360, Note Name: F4, Velocity: 48
Note ON: Time 267360, Note Name: D#4, Velocity: 48
Note ON: Time 267360, Note Name: A3, Velocity: 48
Note OFF: Time 267600, Note Name: A3
Note OFF: Time 267600, Note Name: D#4
Note OFF: Time 267600, Note Name: F4
Note ON: Time 267840, Note Name: A#2, Velocity: 50
Note OFF: Time 267960, Note Name: A#2
Note ON: Time 268320, Note Name: C#4, Velocity: 47
Note ON: Time 268320, Note Name: F3, Velocity: 47
Note OFF: Time 268560, Note Name: F3
Note OFF: Time 268560, Note Name: C#4
Note ON: Time 268800, Note Name: C#4, Velocity: 47
Note ON: Time 268800, Note Name: F3, Velocity: 47
Note OFF: Time 269040, Note Name: F3
Note OFF: Time 269040, Note Name: C#4
Note ON: Time 269280, Note Name: A#2, Velocity: 50
Note OFF: Time 269520, Note Name: A#2
Note ON: Time 269760, Note Name: C#4, Velocity: 47
Note ON: Time 269760, Note Name: F3, Velocity: 47
Note OFF: Time 270000, Note Name: F3
Note OFF: Time 270000, Note Name: C#4
Note ON: Time 270240, Note Name: C#4, Velocity: 47
Note ON: Time 270240, Note Name: F3, Velocity: 47
Note OFF: Time 270480, Note Name: F3
Note OFF: Time 270480, Note Name: C#4
Note ON: Time 270720, Note Name: A#2, Velocity: 53
Note OFF: Time 270960, Note Name: A#2
Note ON: Time 271200, Note Name: C#4, Velocity: 49
Note ON: Time 271200, Note Name: F3, Velocity: 49
Note OFF: Time 271440, Note Name: F3
Note OFF: Time 271440, Note Name: C#4
Note ON: Time 271680, Note Name: C#4, Velocity: 52
Note ON: Time 271680, Note Name: F3, Velocity: 52
Note OFF: Time 271920, Note Name: F3
Note OFF: Time 271920, Note Name: C#4
Note ON: Time 272160, Note Name: A2, Velocity: 55
Note OFF: Time 272400, Note Name: A2
Note ON: Time 272640, Note Name: D#4, Velocity: 54
Note ON: Time 272640, Note Name: C4, Velocity: 54
Note ON: Time 272640, Note Name: F3, Velocity: 54
Note OFF: Time 272880, Note Name: F3
Note OFF: Time 272880, Note Name: C4
Note OFF: Time 272880, Note Name: D#4
Note ON: Time 273120, Note Name: D#4, Velocity: 60
Note ON: Time 273120, Note Name: C4, Velocity: 60
Note ON: Time 273120, Note Name: F3, Velocity: 60
Note OFF: Time 273360, Note Name: F3
Note OFF: Time 273360, Note Name: C4
Note OFF: Time 273360, Note Name: D#4
Note ON: Time 273600, Note Name: A#2, Velocity: 68
Note OFF: Time 273840, Note Name: A#2
Note ON: Time 274080, Note Name: C#4, Velocity: 62
Note ON: Time 274080, Note Name: A#3, Velocity: 62
Note ON: Time 274080, Note Name: F3, Velocity: 62
Note OFF: Time 274320, Note Name: F3
Note OFF: Time 274320, Note Name: A#3
Note OFF: Time 274320, Note Name: C#4
Note ON: Time 274560, Note Name: C#4, Velocity: 56
Note ON: Time 274560, Note Name: A#3, Velocity: 56
Note ON: Time 274560, Note Name: F3, Velocity: 56
Note OFF: Time 274800, Note Name: F3
Note OFF: Time 274800, Note Name: A#3
Note OFF: Time 274800, Note Name: C#4
Note ON: Time 275040, Note Name: D#3, Velocity: 60
Note OFF: Time 275280, Note Name: D#3
Note ON: Time 275520, Note Name: F#4, Velocity: 56
Note ON: Time 275520, Note Name: C4, Velocity: 56
Note ON: Time 275520, Note Name: A#3, Velocity: 56
Note OFF: Time 275760, Note Name: A#3
Note OFF: Time 275760, Note Name: C4
Note OFF: Time 275760, Note Name: F#4
Note ON: Time 276000, Note Name: F#4, Velocity: 57
Note ON: Time 276000, Note Name: C4, Velocity: 57
Note ON: Time 276000, Note Name: A#3, Velocity: 57
Note OFF: Time 276240, Note Name: A#3
Note OFF: Time 276240, Note Name: C4
Note OFF: Time 276240, Note Name: F#4
Note ON: Time 276480, Note Name: F3, Velocity: 56
Note OFF: Time 276720, Note Name: F3
Note ON: Time 276960, Note Name: F4, Velocity: 52
Note ON: Time 276960, Note Name: C#4, Velocity: 52
Note ON: Time 276960, Note Name: A#3, Velocity: 52
Note OFF: Time 277200, Note Name: A#3
Note OFF: Time 277200, Note Name: C#4
Note OFF: Time 277200, Note Name: F4
Note ON: Time 277440, Note Name: F4, Velocity: 52
Note ON: Time 277440, Note Name: C#4, Velocity: 52
Note ON: Time 277440, Note Name: A#3, Velocity: 52
Note OFF: Time 277680, Note Name: A#3
Note OFF: Time 277680, Note Name: C#4
Note OFF: Time 277680, Note Name: F4
Note ON: Time 277920, Note Name: F3, Velocity: 53
Note OFF: Time 278160, Note Name: F3
Note ON: Time 278400, Note Name: F4, Velocity: 49
Note ON: Time 278400, Note Name: D#4, Velocity: 49
Note ON: Time 278400, Note Name: A3, Velocity: 49
Note OFF: Time 278640, Note Name: A3
Note OFF: Time 278640, Note Name: D#4
Note OFF: Time 278640, Note Name: F4
Note ON: Time 278880, Note Name: D#4, Velocity: 53
Note ON: Time 278880, Note Name: F4, Velocity: 53
Note ON: Time 278880, Note Name: A3, Velocity: 53
Note OFF: Time 279120, Note Name: A3
Note OFF: Time 279120, Note Name: F4
Note OFF: Time 279120, Note Name: D#4
Note ON: Time 279360, Note Name: F4, Velocity: 58
Note ON: Time 279360, Note Name: C#4, Velocity: 58
Note ON: Time 279360, Note Name: A#3, Velocity: 58
Note OFF: Time 279840, Note Name: A#3
Note OFF: Time 279840, Note Name: C#4
Note OFF: Time 279840, Note Name: F4
Note ON: Time 282240, Note Name: C#2, Velocity: 54
Note OFF: Time 282480, Note Name: C#2
Note ON: Time 282720, Note Name: B3, Velocity: 49
Note ON: Time 282720, Note Name: G#3, Velocity: 49
Note ON: Time 282720, Note Name: C#3, Velocity: 49
Note OFF: Time 283200, Note Name: C#3
Note OFF: Time 283200, Note Name: G#3
Note OFF: Time 283200, Note Name: B3
Note ON: Time 283200, Note Name: C#3, Velocity: 49
Note ON: Time 283200, Note Name: G#3, Velocity: 49
Note ON: Time 283200, Note Name: B3, Velocity: 49
Note OFF: Time 283680, Note Name: B3
Note OFF: Time 283680, Note Name: G#3
Note OFF: Time 283680, Note Name: C#3
Note ON: Time 283680, Note Name: C#2, Velocity: 54
Note OFF: Time 283920, Note Name: C#2
Note ON: Time 284160, Note Name: B3, Velocity: 50
Note ON: Time 284160, Note Name: G#3, Velocity: 50
Note ON: Time 284160, Note Name: C#3, Velocity: 50
Note OFF: Time 284640, Note Name: C#3
Note OFF: Time 284640, Note Name: G#3
Note OFF: Time 284640, Note Name: B3
Note ON: Time 284640, Note Name: C#3, Velocity: 50
Note ON: Time 284640, Note Name: G#3, Velocity: 50
Note ON: Time 284640, Note Name: B3, Velocity: 50
Note OFF: Time 285120, Note Name: B3
Note OFF: Time 285120, Note Name: G#3
Note OFF: Time 285120, Note Name: C#3
Note ON: Time 285120, Note Name: F#2, Velocity: 54
Note OFF: Time 285360, Note Name: F#2
Note ON: Time 285600, Note Name: A#3, Velocity: 51
Note ON: Time 285600, Note Name: F#3, Velocity: 51
Note ON: Time 285600, Note Name: C#3, Velocity: 51
Note OFF: Time 286080, Note Name: C#3
Note OFF: Time 286080, Note Name: F#3
Note OFF: Time 286080, Note Name: A#3
Note ON: Time 286080, Note Name: C#3, Velocity: 54
Note ON: Time 286080, Note Name: F#3, Velocity: 54
Note ON: Time 286080, Note Name: A#3, Velocity: 54
Note OFF: Time 286320, Note Name: A#3
Note OFF: Time 286320, Note Name: F#3
Note OFF: Time 286320, Note Name: C#3
Note ON: Time 286560, Note Name: F#2, Velocity: 63
Note OFF: Time 286800, Note Name: F#2
Note ON: Time 287040, Note Name: D3, Velocity: 54
Note ON: Time 287040, Note Name: A#3, Velocity: 54
Note OFF: Time 287520, Note Name: A#3
Note OFF: Time 287520, Note Name: D3
Note ON: Time 287520, Note Name: D#3, Velocity: 54
Note ON: Time 287520, Note Name: A#3, Velocity: 54
Note OFF: Time 288000, Note Name: A#3
Note OFF: Time 288000, Note Name: D#3
Note ON: Time 288000, Note Name: G#2, Velocity: 45
Note OFF: Time 288240, Note Name: G#2
Note ON: Time 288480, Note Name: C4, Velocity: 36
Note ON: Time 288480, Note Name: G#3, Velocity: 36
Note ON: Time 288480, Note Name: D#3, Velocity: 36
Note OFF: Time 288960, Note Name: D#3
Note OFF: Time 288960, Note Name: G#3
Note OFF: Time 288960, Note Name: C4
Note ON: Time 288960, Note Name: C4, Velocity: 37
Note ON: Time 288960, Note Name: G#3, Velocity: 37
Note ON: Time 288960, Note Name: D#3, Velocity: 37
Note OFF: Time 289440, Note Name: D#3
Note OFF: Time 289440, Note Name: G#3
Note OFF: Time 289440, Note Name: C4
Note ON: Time 289440, Note Name: G#2, Velocity: 45
Note OFF: Time 289680, Note Name: G#2
Note ON: Time 289920, Note Name: C4, Velocity: 37
Note ON: Time 289920, Note Name: G#3, Velocity: 37
Note ON: Time 289920, Note Name: D#3, Velocity: 37
Note OFF: Time 290400, Note Name: D#3
Note OFF: Time 290400, Note Name: G#3
Note OFF: Time 290400, Note Name: C4
Note ON: Time 290400, Note Name: D#3, Velocity: 38
Note ON: Time 290400, Note Name: G#3, Velocity: 38
Note ON: Time 290400, Note Name: C4, Velocity: 38
Note OFF: Time 290880, Note Name: C4
Note OFF: Time 290880, Note Name: G#3
Note OFF: Time 290880, Note Name: D#3
Note ON: Time 290880, Note Name: G#2, Velocity: 49
Note OFF: Time 291120, Note Name: G#2
Note ON: Time 291360, Note Name: C4, Velocity: 39
Note ON: Time 291360, Note Name: G#3, Velocity: 39
Note ON: Time 291360, Note Name: D#3, Velocity: 39
Note OFF: Time 291840, Note Name: D#3
Note OFF: Time 291840, Note Name: G#3
Note OFF: Time 291840, Note Name: C4
Note ON: Time 291840, Note Name: D#3, Velocity: 40
Note ON: Time 291840, Note Name: G#3, Velocity: 40
Note ON: Time 291840, Note Name: C4, Velocity: 40
Note OFF: Time 292320, Note Name: C4
Note OFF: Time 292320, Note Name: G#3
Note OFF: Time 292320, Note Name: D#3
Note ON: Time 292320, Note Name: C#3, Velocity: 52
Note ON: Time 292800, Note Name: C#4, Velocity: 43
Note ON: Time 292800, Note Name: G#3, Velocity: 43
Note OFF: Time 293280, Note Name: G#3
Note OFF: Time 293280, Note Name: C#4
Note ON: Time 293280, Note Name: C#4, Velocity: 45
Note ON: Time 293280, Note Name: G#3, Velocity: 45
Note OFF: Time 293760, Note Name: G#3
Note OFF: Time 293760, Note Name: C#4
Note OFF: Time 293760, Note Name: C#3
Note ON: Time 293760, Note Name: C#3, Velocity: 60
Note OFF: Time 294000, Note Name: C#3
Note ON: Time 294240, Note Name: B4, Velocity: 54
Note ON: Time 294240, Note Name: G#4, Velocity: 54
Note ON: Time 294240, Note Name: C#4, Velocity: 54
Note OFF: Time 294720, Note Name: C#4
Note OFF: Time 294720, Note Name: G#4
Note OFF: Time 294720, Note Name: B4
Note ON: Time 294720, Note Name: C#4, Velocity: 56
Note ON: Time 294720, Note Name: G#4, Velocity: 56
Note ON: Time 294720, Note Name: B4, Velocity: 56
Note OFF: Time 295200, Note Name: B4
Note OFF: Time 295200, Note Name: G#4
Note OFF: Time 295200, Note Name: C#4
Note ON: Time 295200, Note Name: C#3, Velocity: 60
Note OFF: Time 295440, Note Name: C#3
Note ON: Time 295680, Note Name: C#4, Velocity: 53
Note ON: Time 295680, Note Name: G#4, Velocity: 53
Note ON: Time 295680, Note Name: B4, Velocity: 53
Note OFF: Time 296160, Note Name: B4
Note OFF: Time 296160, Note Name: G#4
Note OFF: Time 296160, Note Name: C#4
Note ON: Time 296160, Note Name: B4, Velocity: 54
Note ON: Time 296160, Note Name: G#4, Velocity: 54
Note ON: Time 296160, Note Name: C#4, Velocity: 54
Note OFF: Time 296640, Note Name: C#4
Note OFF: Time 296640, Note Name: G#4
Note OFF: Time 296640, Note Name: B4
Note ON: Time 296640, Note Name: F#3, Velocity: 60
Note OFF: Time 296880, Note Name: F#3
Note ON: Time 297120, Note Name: A#4, Velocity: 56
Note ON: Time 297120, Note Name: F#4, Velocity: 56
Note ON: Time 297120, Note Name: C#4, Velocity: 56
Note OFF: Time 297600, Note Name: C#4
Note OFF: Time 297600, Note Name: F#4
Note OFF: Time 297600, Note Name: A#4
Note ON: Time 297600, Note Name: C#4, Velocity: 60
Note ON: Time 297600, Note Name: F#4, Velocity: 60
Note ON: Time 297600, Note Name: A#4, Velocity: 60
Note OFF: Time 297840, Note Name: A#4
Note OFF: Time 297840, Note Name: F#4
Note OFF: Time 297840, Note Name: C#4
Note ON: Time 298080, Note Name: F#3, Velocity: 65
Note OFF: Time 298320, Note Name: F#3
Note ON: Time 298560, Note Name: D4, Velocity: 58
Note ON: Time 298560, Note Name: A#4, Velocity: 58
Note OFF: Time 299040, Note Name: A#4
Note OFF: Time 299040, Note Name: D4
Note ON: Time 299040, Note Name: D#4, Velocity: 62
Note ON: Time 299040, Note Name: A#4, Velocity: 62
Note OFF: Time 299520, Note Name: A#4
Note OFF: Time 299520, Note Name: D#4
Note ON: Time 299520, Note Name: G#3, Velocity: 45
Note OFF: Time 299760, Note Name: G#3
Note ON: Time 300000, Note Name: D#4, Velocity: 36
Note ON: Time 300000, Note Name: G#4, Velocity: 36
Note ON: Time 300000, Note Name: C5, Velocity: 36
Note OFF: Time 300480, Note Name: C5
Note OFF: Time 300480, Note Name: G#4
Note OFF: Time 300480, Note Name: D#4
Note ON: Time 300480, Note Name: C5, Velocity: 38
Note ON: Time 300480, Note Name: G#4, Velocity: 38
Note ON: Time 300480, Note Name: D#4, Velocity: 38
Note OFF: Time 300960, Note Name: D#4
Note OFF: Time 300960, Note Name: G#4
Note OFF: Time 300960, Note Name: C5
Note ON: Time 300960, Note Name: G#3, Velocity: 44
Note OFF: Time 301200, Note Name: G#3
Note ON: Time 301440, Note Name: C5, Velocity: 34
Note ON: Time 301440, Note Name: G#4, Velocity: 34
Note ON: Time 301440, Note Name: D#4, Velocity: 34
Note OFF: Time 301920, Note Name: D#4
Note OFF: Time 301920, Note Name: G#4
Note OFF: Time 301920, Note Name: C5
Note ON: Time 301920, Note Name: D#4, Velocity: 36
Note ON: Time 301920, Note Name: G#4, Velocity: 36
Note ON: Time 301920, Note Name: C5, Velocity: 36
Note OFF: Time 302400, Note Name: C5
Note OFF: Time 302400, Note Name: G#4
Note OFF: Time 302400, Note Name: D#4
Note ON: Time 302400, Note Name: G#3, Velocity: 46
Note OFF: Time 302640, Note Name: G#3
Note ON: Time 302880, Note Name: C5, Velocity: 37
Note ON: Time 302880, Note Name: G#4, Velocity: 37
Note ON: Time 302880, Note Name: D#4, Velocity: 37
Note OFF: Time 303360, Note Name: D#4
Note OFF: Time 303360, Note Name: G#4
Note OFF: Time 303360, Note Name: C5
Note ON: Time 303360, Note Name: D#4, Velocity: 38
Note ON: Time 303360, Note Name: G#4, Velocity: 38
Note ON: Time 303360, Note Name: C5, Velocity: 38
Note OFF: Time 303840, Note Name: C5
Note OFF: Time 303840, Note Name: G#4
Note OFF: Time 303840, Note Name: D#4
Note ON: Time 303840, Note Name: C#4, Velocity: 45
Note ON: Time 303840, Note Name: G#4, Velocity: 45
Note ON: Time 303840, Note Name: C#5, Velocity: 45
Note OFF: Time 304320, Note Name: C#5
Note OFF: Time 304320, Note Name: G#4
Note OFF: Time 304320, Note Name: C#4
Note ON: Time 305280, Note Name: A#2, Velocity: 50
Note OFF: Time 305520, Note Name: A#2
Note ON: Time 305760, Note Name: C#4, Velocity: 45
Note ON: Time 305760, Note Name: F3, Velocity: 45
Note OFF: Time 306000, Note Name: F3
Note OFF: Time 306000, Note Name: C#4
Note ON: Time 306240, Note Name: C#4, Velocity: 46
Note ON: Time 306240, Note Name: F3, Velocity: 46
Note OFF: Time 306480, Note Name: F3
Note OFF: Time 306480, Note Name: C#4
Note ON: Time 306720, Note Name: A2, Velocity: 50
Note OFF: Time 306960, Note Name: A2
Note ON: Time 307200, Note Name: F3, Velocity: 44
Note ON: Time 307200, Note Name: D#4, Velocity: 44
Note ON: Time 307200, Note Name: C4, Velocity: 44
Note OFF: Time 307440, Note Name: C4
Note OFF: Time 307440, Note Name: D#4
Note OFF: Time 307440, Note Name: F3
Note ON: Time 307680, Note Name: D#4, Velocity: 45
Note ON: Time 307680, Note Name: C4, Velocity: 45
Note ON: Time 307680, Note Name: F3, Velocity: 45
Note OFF: Time 307920, Note Name: F3
Note OFF: Time 307920, Note Name: C4
Note OFF: Time 307920, Note Name: D#4
Note ON: Time 308160, Note Name: A#2, Velocity: 50
Note OFF: Time 308400, Note Name: A#2
Note ON: Time 308640, Note Name: C#4, Velocity: 50
Note ON: Time 308640, Note Name: A#3, Velocity: 50
Note ON: Time 308640, Note Name: F3, Velocity: 50
Note OFF: Time 308880, Note Name: F3
Note OFF: Time 308880, Note Name: A#3
Note OFF: Time 308880, Note Name: C#4
Note ON: Time 309120, Note Name: C#4, Velocity: 53
Note ON: Time 309120, Note Name: A#3, Velocity: 53
Note ON: Time 309120, Note Name: F3, Velocity: 53
Note OFF: Time 309360, Note Name: F3
Note OFF: Time 309360, Note Name: A#3
Note OFF: Time 309360, Note Name: C#4
Note ON: Time 309600, Note Name: D#3, Velocity: 56
Note OFF: Time 309840, Note Name: D#3
Note ON: Time 310080, Note Name: F#4, Velocity: 53
Note ON: Time 310080, Note Name: C4, Velocity: 53
Note ON: Time 310080, Note Name: A#3, Velocity: 53
Note OFF: Time 310320, Note Name: A#3
Note OFF: Time 310320, Note Name: C4
Note OFF: Time 310320, Note Name: F#4
Note ON: Time 310560, Note Name: F#4, Velocity: 50
Note ON: Time 310560, Note Name: A#3, Velocity: 50
Note ON: Time 310560, Note Name: C4, Velocity: 50
Note OFF: Time 310800, Note Name: C4
Note OFF: Time 310800, Note Name: A#3
Note OFF: Time 310800, Note Name: F#4
Note ON: Time 311040, Note Name: F3, Velocity: 56
Note OFF: Time 311280, Note Name: F3
Note ON: Time 311520, Note Name: F4, Velocity: 49
Note ON: Time 311520, Note Name: C#4, Velocity: 49
Note ON: Time 311520, Note Name: A#3, Velocity: 49
Note OFF: Time 311760, Note Name: A#3
Note OFF: Time 311760, Note Name: C#4
Note OFF: Time 311760, Note Name: F4
Note ON: Time 312000, Note Name: F4, Velocity: 50
Note ON: Time 312000, Note Name: C#4, Velocity: 50
Note ON: Time 312000, Note Name: A#3, Velocity: 50
Note OFF: Time 312240, Note Name: A#3
Note OFF: Time 312240, Note Name: C#4
Note OFF: Time 312240, Note Name: F4
Note ON: Time 312480, Note Name: F3, Velocity: 50
Note OFF: Time 312720, Note Name: F3
Note ON: Time 312960, Note Name: D#4, Velocity: 48
Note ON: Time 312960, Note Name: F4, Velocity: 48
Note ON: Time 312960, Note Name: A3, Velocity: 48
Note OFF: Time 313200, Note Name: A3
Note OFF: Time 313200, Note Name: F4
Note OFF: Time 313200, Note Name: D#4
Note ON: Time 313440, Note Name: F4, Velocity: 48
Note ON: Time 313440, Note Name: D#4, Velocity: 48
Note ON: Time 313440, Note Name: A3, Velocity: 48
Note OFF: Time 313680, Note Name: A3
Note OFF: Time 313680, Note Name: D#4
Note OFF: Time 313680, Note Name: F4
Note ON: Time 313920, Note Name: A#2, Velocity: 50
Note OFF: Time 314160, Note Name: A#2
Note ON: Time 314400, Note Name: C#4, Velocity: 47
Note ON: Time 314400, Note Name: F3, Velocity: 47
Note OFF: Time 314640, Note Name: F3
Note OFF: Time 314640, Note Name: C#4
Note ON: Time 314880, Note Name: C#4, Velocity: 47
Note ON: Time 314880, Note Name: F3, Velocity: 47
Note OFF: Time 315120, Note Name: F3
Note OFF: Time 315120, Note Name: C#4
Note ON: Time 315360, Note Name: A#2, Velocity: 50
Note OFF: Time 315600, Note Name: A#2
Note ON: Time 315840, Note Name: C#4, Velocity: 46
Note ON: Time 315840, Note Name: F3, Velocity: 46
Note OFF: Time 316080, Note Name: F3
Note OFF: Time 316080, Note Name: C#4
Note ON: Time 316320, Note Name: C#4, Velocity: 47
Note ON: Time 316320, Note Name: F3, Velocity: 47
Note OFF: Time 316560, Note Name: F3
Note OFF: Time 316560, Note Name: C#4
Note ON: Time 316800, Note Name: A#2, Velocity: 53
Note OFF: Time 317040, Note Name: A#2
Note ON: Time 317280, Note Name: C#4, Velocity: 49
Note ON: Time 317280, Note Name: F3, Velocity: 49
Note OFF: Time 317520, Note Name: F3
Note OFF: Time 317520, Note Name: C#4
Note ON: Time 317760, Note Name: C#4, Velocity: 52
Note ON: Time 317760, Note Name: F3, Velocity: 52
Note OFF: Time 318000, Note Name: F3
Note OFF: Time 318000, Note Name: C#4
Note ON: Time 318240, Note Name: A2, Velocity: 55
Note OFF: Time 318480, Note Name: A2
Note ON: Time 318720, Note Name: D#4, Velocity: 56
Note ON: Time 318720, Note Name: C4, Velocity: 56
Note ON: Time 318720, Note Name: F3, Velocity: 56
Note OFF: Time 318960, Note Name: F3
Note OFF: Time 318960, Note Name: C4
Note OFF: Time 318960, Note Name: D#4
Note ON: Time 319200, Note Name: D#4, Velocity: 60
Note ON: Time 319200, Note Name: C4, Velocity: 60
Note ON: Time 319200, Note Name: F3, Velocity: 60
Note OFF: Time 319440, Note Name: F3
Note OFF: Time 319440, Note Name: C4
Note OFF: Time 319440, Note Name: D#4
Note ON: Time 319680, Note Name: A#2, Velocity: 64
Note OFF: Time 319920, Note Name: A#2
Note ON: Time 320160, Note Name: C#4, Velocity: 62
Note ON: Time 320160, Note Name: A#3, Velocity: 62
Note ON: Time 320160, Note Name: F3, Velocity: 62
Note OFF: Time 320400, Note Name: F3
Note OFF: Time 320400, Note Name: A#3
Note OFF: Time 320400, Note Name: C#4
Note ON: Time 320640, Note Name: C#4, Velocity: 56
Note ON: Time 320640, Note Name: A#3, Velocity: 56
Note ON: Time 320640, Note Name: F3, Velocity: 56
Note OFF: Time 320880, Note Name: F3
Note OFF: Time 320880, Note Name: A#3
Note OFF: Time 320880, Note Name: C#4
Note ON: Time 321120, Note Name: D#3, Velocity: 60
Note OFF: Time 321360, Note Name: D#3
Note ON: Time 321600, Note Name: F#4, Velocity: 55
Note ON: Time 321600, Note Name: C4, Velocity: 55
Note ON: Time 321600, Note Name: A#3, Velocity: 55
Note OFF: Time 321840, Note Name: A#3
Note OFF: Time 321840, Note Name: C4
Note OFF: Time 321840, Note Name: F#4
Note ON: Time 322080, Note Name: F#4, Velocity: 57
Note ON: Time 322080, Note Name: C4, Velocity: 57
Note ON: Time 322080, Note Name: A#3, Velocity: 57
Note OFF: Time 322320, Note Name: A#3
Note OFF: Time 322320, Note Name: C4
Note OFF: Time 322320, Note Name: F#4
Note ON: Time 322560, Note Name: F3, Velocity: 56
Note OFF: Time 322800, Note Name: F3
Note ON: Time 323040, Note Name: F4, Velocity: 52
Note ON: Time 323040, Note Name: C#4, Velocity: 52
Note ON: Time 323040, Note Name: A#3, Velocity: 52
Note OFF: Time 323280, Note Name: A#3
Note OFF: Time 323280, Note Name: C#4
Note OFF: Time 323280, Note Name: F4
Note ON: Time 323520, Note Name: F4, Velocity: 52
Note ON: Time 323520, Note Name: C#4, Velocity: 52
Note ON: Time 323520, Note Name: A#3, Velocity: 52
Note OFF: Time 323760, Note Name: A#3
Note OFF: Time 323760, Note Name: C#4
Note OFF: Time 323760, Note Name: F4
Note ON: Time 324000, Note Name: F3, Velocity: 53
Note OFF: Time 324240, Note Name: F3
Note ON: Time 324480, Note Name: F4, Velocity: 49
Note ON: Time 324480, Note Name: D#4, Velocity: 49
Note ON: Time 324480, Note Name: A3, Velocity: 49
Note OFF: Time 324720, Note Name: A3
Note OFF: Time 324720, Note Name: D#4
Note OFF: Time 324720, Note Name: F4
Note ON: Time 324960, Note Name: D#4, Velocity: 53
Note ON: Time 324960, Note Name: F4, Velocity: 53
Note ON: Time 324960, Note Name: A3, Velocity: 53
Note OFF: Time 325200, Note Name: A3
Note OFF: Time 325200, Note Name: F4
Note OFF: Time 325200, Note Name: D#4
Note ON: Time 325440, Note Name: F4, Velocity: 58
Note ON: Time 325440, Note Name: C#4, Velocity: 58
Note ON: Time 325440, Note Name: A#3, Velocity: 58
Note OFF: Time 325920, Note Name: A#3
Note OFF: Time 325920, Note Name: C#4
Note OFF: Time 325920, Note Name: F4
Note ON: Time 328320, Note Name: C#2, Velocity: 54
Note OFF: Time 328560, Note Name: C#2
Note ON: Time 328800, Note Name: B3, Velocity: 49
Note ON: Time 328800, Note Name: G#3, Velocity: 49
Note ON: Time 328800, Note Name: C#3, Velocity: 49
Note OFF: Time 329280, Note Name: C#3
Note OFF: Time 329280, Note Name: G#3
Note OFF: Time 329280, Note Name: B3
Note ON: Time 329280, Note Name: C#3, Velocity: 49
Note ON: Time 329280, Note Name: G#3, Velocity: 49
Note ON: Time 329280, Note Name: B3, Velocity: 49
Note OFF: Time 329760, Note Name: B3
Note OFF: Time 329760, Note Name: G#3
Note OFF: Time 329760, Note Name: C#3
Note ON: Time 329760, Note Name: C#2, Velocity: 54
Note OFF: Time 330000, Note Name: C#2
Note ON: Time 330240, Note Name: B3, Velocity: 48
Note ON: Time 330240, Note Name: G#3, Velocity: 48
Note ON: Time 330240, Note Name: C#3, Velocity: 48
Note OFF: Time 330720, Note Name: C#3
Note OFF: Time 330720, Note Name: G#3
Note OFF: Time 330720, Note Name: B3
Note ON: Time 330720, Note Name: C#3, Velocity: 50
Note ON: Time 330720, Note Name: G#3, Velocity: 50
Note ON: Time 330720, Note Name: B3, Velocity: 50
Note OFF: Time 331200, Note Name: B3
Note OFF: Time 331200, Note Name: G#3
Note OFF: Time 331200, Note Name: C#3
Note ON: Time 331200, Note Name: F#2, Velocity: 54
Note OFF: Time 331440, Note Name: F#2
Note ON: Time 331680, Note Name: A#3, Velocity: 51
Note ON: Time 331680, Note Name: F#3, Velocity: 51
Note ON: Time 331680, Note Name: C#3, Velocity: 51
Note OFF: Time 332160, Note Name: C#3
Note OFF: Time 332160, Note Name: F#3
Note OFF: Time 332160, Note Name: A#3
Note ON: Time 332160, Note Name: C#3, Velocity: 54
Note ON: Time 332160, Note Name: F#3, Velocity: 54
Note ON: Time 332160, Note Name: A#3, Velocity: 54
Note OFF: Time 332400, Note Name: A#3
Note OFF: Time 332400, Note Name: F#3
Note OFF: Time 332400, Note Name: C#3
Note ON: Time 332640, Note Name: F#2, Velocity: 63
Note OFF: Time 332880, Note Name: F#2
Note ON: Time 333120, Note Name: D3, Velocity: 54
Note ON: Time 333120, Note Name: A#3, Velocity: 54
Note OFF: Time 333600, Note Name: A#3
Note OFF: Time 333600, Note Name: D3
Note ON: Time 333600, Note Name: D#3, Velocity: 54
Note ON: Time 333600, Note Name: A#3, Velocity: 54
Note OFF: Time 334080, Note Name: A#3
Note OFF: Time 334080, Note Name: D#3
Note ON: Time 334080, Note Name: G#2, Velocity: 45
Note OFF: Time 334320, Note Name: G#2
Note ON: Time 334560, Note Name: C4, Velocity: 36
Note ON: Time 334560, Note Name: G#3, Velocity: 36
Note ON: Time 334560, Note Name: D#3, Velocity: 36
Note OFF: Time 335040, Note Name: D#3
Note OFF: Time 335040, Note Name: G#3
Note OFF: Time 335040, Note Name: C4
Note ON: Time 335040, Note Name: C4, Velocity: 37
Note ON: Time 335040, Note Name: G#3, Velocity: 37
Note ON: Time 335040, Note Name: D#3, Velocity: 37
Note OFF: Time 335520, Note Name: D#3
Note OFF: Time 335520, Note Name: G#3
Note OFF: Time 335520, Note Name: C4
Note ON: Time 335520, Note Name: G#2, Velocity: 45
Note OFF: Time 335760, Note Name: G#2
Note ON: Time 336000, Note Name: C4, Velocity: 37
Note ON: Time 336000, Note Name: G#3, Velocity: 37
Note ON: Time 336000, Note Name: D#3, Velocity: 37
Note OFF: Time 336480, Note Name: D#3
Note OFF: Time 336480, Note Name: G#3
Note OFF: Time 336480, Note Name: C4
Note ON: Time 336480, Note Name: D#3, Velocity: 38
Note ON: Time 336480, Note Name: G#3, Velocity: 38
Note ON: Time 336480, Note Name: C4, Velocity: 38
Note OFF: Time 336960, Note Name: C4
Note OFF: Time 336960, Note Name: G#3
Note OFF: Time 336960, Note Name: D#3
Note ON: Time 336960, Note Name: G#2, Velocity: 49
Note OFF: Time 337200, Note Name: G#2
Note ON: Time 337440, Note Name: C4, Velocity: 39
Note ON: Time 337440, Note Name: G#3, Velocity: 39
Note ON: Time 337440, Note Name: D#3, Velocity: 39
Note OFF: Time 337920, Note Name: D#3
Note OFF: Time 337920, Note Name: G#3
Note OFF: Time 337920, Note Name: C4
Note ON: Time 337920, Note Name: D#3, Velocity: 40
Note ON: Time 337920, Note Name: G#3, Velocity: 40
Note ON: Time 337920, Note Name: C4, Velocity: 40
Note OFF: Time 338400, Note Name: C4
Note OFF: Time 338400, Note Name: G#3
Note OFF: Time 338400, Note Name: D#3
Note ON: Time 338400, Note Name: C#3, Velocity: 52
Note ON: Time 338880, Note Name: C#4, Velocity: 42
Note ON: Time 338880, Note Name: G#3, Velocity: 42
Note OFF: Time 339360, Note Name: G#3
Note OFF: Time 339360, Note Name: C#4
Note ON: Time 339360, Note Name: C#4, Velocity: 45
Note ON: Time 339360, Note Name: G#3, Velocity: 45
Note OFF: Time 339840, Note Name: G#3
Note OFF: Time 339840, Note Name: C#4
Note OFF: Time 339840, Note Name: C#3
Note ON: Time 339840, Note Name: C#3, Velocity: 60
Note OFF: Time 340080, Note Name: C#3
Note ON: Time 340320, Note Name: B4, Velocity: 53
Note ON: Time 340320, Note Name: G#4, Velocity: 53
Note ON: Time 340320, Note Name: C#4, Velocity: 53
Note OFF: Time 340800, Note Name: C#4
Note OFF: Time 340800, Note Name: G#4
Note OFF: Time 340800, Note Name: B4
Note ON: Time 340800, Note Name: C#4, Velocity: 56
Note ON: Time 340800, Note Name: G#4, Velocity: 56
Note ON: Time 340800, Note Name: B4, Velocity: 56
Note OFF: Time 341280, Note Name: B4
Note OFF: Time 341280, Note Name: G#4
Note OFF: Time 341280, Note Name: C#4
Note ON: Time 341280, Note Name: C#3, Velocity: 60
Note OFF: Time 341520, Note Name: C#3
Note ON: Time 341760, Note Name: C#4, Velocity: 53
Note ON: Time 341760, Note Name: G#4, Velocity: 53
Note ON: Time 341760, Note Name: B4, Velocity: 53
Note OFF: Time 342240, Note Name: B4
Note OFF: Time 342240, Note Name: G#4
Note OFF: Time 342240, Note Name: C#4
Note ON: Time 342240, Note Name: B4, Velocity: 54
Note ON: Time 342240, Note Name: G#4, Velocity: 54
Note ON: Time 342240, Note Name: C#4, Velocity: 54
Note OFF: Time 342720, Note Name: C#4
Note OFF: Time 342720, Note Name: G#4
Note OFF: Time 342720, Note Name: B4
Note ON: Time 342720, Note Name: F#3, Velocity: 60
Note OFF: Time 342960, Note Name: F#3
Note ON: Time 343200, Note Name: A#4, Velocity: 56
Note ON: Time 343200, Note Name: F#4, Velocity: 56
Note ON: Time 343200, Note Name: C#4, Velocity: 56
Note OFF: Time 343680, Note Name: C#4
Note OFF: Time 343680, Note Name: F#4
Note OFF: Time 343680, Note Name: A#4
Note ON: Time 343680, Note Name: C#4, Velocity: 60
Note ON: Time 343680, Note Name: F#4, Velocity: 60
Note ON: Time 343680, Note Name: A#4, Velocity: 60
Note OFF: Time 343920, Note Name: A#4
Note OFF: Time 343920, Note Name: F#4
Note OFF: Time 343920, Note Name: C#4
Note ON: Time 344160, Note Name: F#3, Velocity: 67
Note OFF: Time 344400, Note Name: F#3
Note ON: Time 344640, Note Name: D4, Velocity: 61
Note ON: Time 344640, Note Name: A#4, Velocity: 61
Note OFF: Time 345120, Note Name: A#4
Note OFF: Time 345120, Note Name: D4
Note ON: Time 345120, Note Name: D#4, Velocity: 62
Note ON: Time 345120, Note Name: A#4, Velocity: 62
Note OFF: Time 345600, Note Name: A#4
Note OFF: Time 345600, Note Name: D#4
Note ON: Time 345600, Note Name: G#3, Velocity: 45
Note OFF: Time 345840, Note Name: G#3
Note ON: Time 346080, Note Name: D#4, Velocity: 36
Note ON: Time 346080, Note Name: G#4, Velocity: 36
Note ON: Time 346080, Note Name: C5, Velocity: 36
Note OFF: Time 346560, Note Name: C5
Note OFF: Time 346560, Note Name: G#4
Note OFF: Time 346560, Note Name: D#4
Note ON: Time 346560, Note Name: C5, Velocity: 38
Note ON: Time 346560, Note Name: G#4, Velocity: 38
Note ON: Time 346560, Note Name: D#4, Velocity: 38
Note OFF: Time 347040, Note Name: D#4
Note OFF: Time 347040, Note Name: G#4
Note OFF: Time 347040, Note Name: C5
Note ON: Time 347040, Note Name: G#3, Velocity: 44
Note OFF: Time 347280, Note Name: G#3
Note ON: Time 347520, Note Name: C5, Velocity: 36
Note ON: Time 347520, Note Name: G#4, Velocity: 36
Note ON: Time 347520, Note Name: D#4, Velocity: 36
Note OFF: Time 348000, Note Name: D#4
Note OFF: Time 348000, Note Name: G#4
Note OFF: Time 348000, Note Name: C5
Note ON: Time 348000, Note Name: D#4, Velocity: 36
Note ON: Time 348000, Note Name: G#4, Velocity: 36
Note ON: Time 348000, Note Name: C5, Velocity: 36
Note OFF: Time 348480, Note Name: C5
Note OFF: Time 348480, Note Name: G#4
Note OFF: Time 348480, Note Name: D#4
Note ON: Time 348480, Note Name: G#3, Velocity: 46
Note OFF: Time 348720, Note Name: G#3
Note ON: Time 348960, Note Name: C5, Velocity: 38
Note ON: Time 348960, Note Name: G#4, Velocity: 38
Note ON: Time 348960, Note Name: D#4, Velocity: 38
Note OFF: Time 349440, Note Name: D#4
Note OFF: Time 349440, Note Name: G#4
Note OFF: Time 349440, Note Name: C5
Note ON: Time 349440, Note Name: D#4, Velocity: 38
Note ON: Time 349440, Note Name: G#4, Velocity: 38
Note ON: Time 349440, Note Name: C5, Velocity: 38
Note OFF: Time 349920, Note Name: C5
Note OFF: Time 349920, Note Name: G#4
Note OFF: Time 349920, Note Name: D#4
Note ON: Time 349920, Note Name: C#4, Velocity: 45
Note ON: Time 349920, Note Name: G#4, Velocity: 45
Note ON: Time 349920, Note Name: C#5, Velocity: 45
Note OFF: Time 350400, Note Name: C#5
Note OFF: Time 350400, Note Name: G#4
Note OFF: Time 350400, Note Name: C#4
Note ON: Time 351360, Note Name: A#2, Velocity: 32
Note ON: Time 351840, Note Name: C#4, Velocity: 36
Note ON: Time 351840, Note Name: F#3, Velocity: 36
Note OFF: Time 352320, Note Name: F#3
Note OFF: Time 352320, Note Name: C#4
Note ON: Time 352320, Note Name: C#4, Velocity: 36
Note ON: Time 352320, Note Name: F#3, Velocity: 36
Note OFF: Time 352800, Note Name: F#3
Note OFF: Time 352800, Note Name: C#4
Note OFF: Time 352800, Note Name: A#2
Note ON: Time 352800, Note Name: B2, Velocity: 38
Note OFF: Time 353280, Note Name: B2
Note ON: Time 353280, Note Name: D#4, Velocity: 35
Note ON: Time 353280, Note Name: G#3, Velocity: 35
Note ON: Time 353280, Note Name: F#3, Velocity: 35
Note OFF: Time 353760, Note Name: F#3
Note OFF: Time 353760, Note Name: G#3
Note OFF: Time 353760, Note Name: D#4
Note ON: Time 353760, Note Name: D#4, Velocity: 35
Note ON: Time 353760, Note Name: G#3, Velocity: 35
Note ON: Time 353760, Note Name: F#3, Velocity: 35
Note OFF: Time 354240, Note Name: F#3
Note OFF: Time 354240, Note Name: G#3
Note OFF: Time 354240, Note Name: D#4
Note ON: Time 354240, Note Name: A#2, Velocity: 30
Note ON: Time 354720, Note Name: B3, Velocity: 24
Note ON: Time 354720, Note Name: F3, Velocity: 24
Note OFF: Time 355200, Note Name: F3
Note OFF: Time 355200, Note Name: B3
Note ON: Time 355200, Note Name: B3, Velocity: 30
Note ON: Time 355200, Note Name: F3, Velocity: 30
Note OFF: Time 355680, Note Name: F3
Note OFF: Time 355680, Note Name: B3
Note OFF: Time 355680, Note Name: A#2
Note ON: Time 355680, Note Name: F#2, Velocity: 30
Note OFF: Time 356160, Note Name: F#2
Note ON: Time 356160, Note Name: A#3, Velocity: 29
Note ON: Time 356160, Note Name: C#3, Velocity: 29
Note OFF: Time 356640, Note Name: C#3
Note OFF: Time 356640, Note Name: A#3
Note ON: Time 356640, Note Name: C#3, Velocity: 34
Note ON: Time 356640, Note Name: A#3, Velocity: 34
Note OFF: Time 357120, Note Name: A#3
Note OFF: Time 357120, Note Name: C#3
Note ON: Time 357120, Note Name: A#2, Velocity: 37
Note ON: Time 357600, Note Name: C#4, Velocity: 29
Note ON: Time 357600, Note Name: F#3, Velocity: 29
Note OFF: Time 358080, Note Name: F#3
Note OFF: Time 358080, Note Name: C#4
Note ON: Time 358080, Note Name: C#4, Velocity: 35
Note ON: Time 358080, Note Name: F#3, Velocity: 35
Note OFF: Time 358560, Note Name: F#3
Note OFF: Time 358560, Note Name: C#4
Note OFF: Time 358560, Note Name: A#2
Note ON: Time 358560, Note Name: B2, Velocity: 29
Note OFF: Time 359040, Note Name: B2
Note ON: Time 359040, Note Name: D#4, Velocity: 29
Note ON: Time 359040, Note Name: G#3, Velocity: 29
Note ON: Time 359040, Note Name: F#3, Velocity: 29
Note OFF: Time 359520, Note Name: F#3
Note OFF: Time 359520, Note Name: G#3
Note OFF: Time 359520, Note Name: D#4
Note ON: Time 359520, Note Name: F#3, Velocity: 36
Note ON: Time 359520, Note Name: G#3, Velocity: 36
Note ON: Time 359520, Note Name: D#4, Velocity: 36
Note OFF: Time 360000, Note Name: D#4
Note OFF: Time 360000, Note Name: G#3
Note OFF: Time 360000, Note Name: F#3
Note ON: Time 360000, Note Name: C#3, Velocity: 36
Note ON: Time 360480, Note Name: B3, Velocity: 19
Note ON: Time 360480, Note Name: F3, Velocity: 19
Note OFF: Time 360960, Note Name: F3
Note OFF: Time 360960, Note Name: B3
Note ON: Time 360960, Note Name: F3, Velocity: 26
Note ON: Time 360960, Note Name: B3, Velocity: 26
Note OFF: Time 361440, Note Name: B3
Note OFF: Time 361440, Note Name: F3
Note OFF: Time 361440, Note Name: C#3
Note ON: Time 361440, Note Name: F#2, Velocity: 27
Note OFF: Time 361920, Note Name: F#2
Note ON: Time 361920, Note Name: A#3, Velocity: 32
Note ON: Time 361920, Note Name: C#3, Velocity: 32
Note OFF: Time 362400, Note Name: C#3
Note OFF: Time 362400, Note Name: A#3
Note ON: Time 362400, Note Name: C#3, Velocity: 34
Note ON: Time 362400, Note Name: A#3, Velocity: 34
Note OFF: Time 362880, Note Name: A#3
Note OFF: Time 362880, Note Name: C#3
Note ON: Time 362880, Note Name: A#2, Velocity: 28
Note ON: Time 363360, Note Name: C#4, Velocity: 28
Note ON: Time 363360, Note Name: F#3, Velocity: 28
Note OFF: Time 363840, Note Name: F#3
Note OFF: Time 363840, Note Name: C#4
Note ON: Time 363840, Note Name: C#4, Velocity: 37
Note ON: Time 363840, Note Name: F#3, Velocity: 37
Note OFF: Time 364320, Note Name: F#3
Note OFF: Time 364320, Note Name: C#4
Note OFF: Time 364320, Note Name: A#2
Note ON: Time 364320, Note Name: B2, Velocity: 33
Note OFF: Time 364800, Note Name: B2
Note ON: Time 364800, Note Name: G3, Velocity: 30
Note ON: Time 364800, Note Name: D#4, Velocity: 30
Note OFF: Time 365280, Note Name: D#4
Note OFF: Time 365280, Note Name: G3
Note ON: Time 365280, Note Name: G#3, Velocity: 33
Note ON: Time 365280, Note Name: D#4, Velocity: 33
Note OFF: Time 365760, Note Name: D#4
Note OFF: Time 365760, Note Name: G#3
Note ON: Time 365760, Note Name: C#3, Velocity: 25
Note ON: Time 366240, Note Name: B3, Velocity: 20
Note ON: Time 366240, Note Name: F3, Velocity: 20
Note OFF: Time 366720, Note Name: F3
Note OFF: Time 366720, Note Name: B3
Note ON: Time 366720, Note Name: F3, Velocity: 29
Note ON: Time 366720, Note Name: B3, Velocity: 29
Note OFF: Time 367200, Note Name: B3
Note OFF: Time 367200, Note Name: F3
Note OFF: Time 367200, Note Name: C#3
Note ON: Time 367200, Note Name: F#2, Velocity: 34
Note OFF: Time 367680, Note Name: F#2
Note ON: Time 367680, Note Name: C#3, Velocity: 28
Note ON: Time 367680, Note Name: A#3, Velocity: 28
Note OFF: Time 368160, Note Name: A#3
Note OFF: Time 368160, Note Name: C#3
Note ON: Time 368160, Note Name: A#3, Velocity: 33
Note ON: Time 368160, Note Name: C#3, Velocity: 33
Note OFF: Time 368640, Note Name: C#3
Note OFF: Time 368640, Note Name: A#3
Note ON: Time 368640, Note Name: A#2, Velocity: 38
Note ON: Time 369120, Note Name: C#4, Velocity: 28
Note ON: Time 369120, Note Name: F#3, Velocity: 28
Note OFF: Time 369600, Note Name: F#3
Note OFF: Time 369600, Note Name: C#4
Note ON: Time 369600, Note Name: F#3, Velocity: 28
Note ON: Time 369600, Note Name: C#4, Velocity: 28
Note OFF: Time 370080, Note Name: C#4
Note OFF: Time 370080, Note Name: F#3
Note OFF: Time 370080, Note Name: A#2
Note ON: Time 370080, Note Name: B2, Velocity: 35
Note OFF: Time 370560, Note Name: B2
Note ON: Time 370560, Note Name: D#4, Velocity: 30
Note ON: Time 370560, Note Name: G#3, Velocity: 30
Note ON: Time 370560, Note Name: F#3, Velocity: 30
Note OFF: Time 371040, Note Name: F#3
Note OFF: Time 371040, Note Name: G#3
Note OFF: Time 371040, Note Name: D#4
Note ON: Time 371040, Note Name: D#4, Velocity: 28
Note ON: Time 371040, Note Name: G#3, Velocity: 28
Note ON: Time 371040, Note Name: F#3, Velocity: 28
Note OFF: Time 371520, Note Name: F#3
Note OFF: Time 371520, Note Name: G#3
Note OFF: Time 371520, Note Name: D#4
Note ON: Time 371520, Note Name: C#3, Velocity: 26
Note ON: Time 372000, Note Name: B3, Velocity: 26
Note ON: Time 372000, Note Name: F3, Velocity: 26
Note OFF: Time 372480, Note Name: F3
Note OFF: Time 372480, Note Name: B3
Note ON: Time 372480, Note Name: F3, Velocity: 25
Note ON: Time 372480, Note Name: B3, Velocity: 25
Note OFF: Time 372960, Note Name: B3
Note OFF: Time 372960, Note Name: F3
Note OFF: Time 372960, Note Name: C#3
Note ON: Time 372960, Note Name: F#2, Velocity: 30
Note OFF: Time 373440, Note Name: F#2
Note ON: Time 373440, Note Name: A#3, Velocity: 27
Note ON: Time 373440, Note Name: C#3, Velocity: 27
Note OFF: Time 373920, Note Name: C#3
Note OFF: Time 373920, Note Name: A#3
Note ON: Time 374400, Note Name: A#1, Velocity: 35
Note ON: Time 374400, Note Name: A#2, Velocity: 35
Note OFF: Time 374640, Note Name: A#2
Note OFF: Time 374640, Note Name: A#1
Note ON: Time 375360, Note Name: G#3, Velocity: 37
Note ON: Time 375360, Note Name: A#3, Velocity: 37
Note ON: Time 375360, Note Name: F4, Velocity: 37
Note OFF: Time 375840, Note Name: F4
Note OFF: Time 375840, Note Name: A#3
Note OFF: Time 375840, Note Name: G#3
Note ON: Time 375840, Note Name: G3, Velocity: 32
Note ON: Time 375840, Note Name: A#3, Velocity: 32
Note ON: Time 375840, Note Name: E4, Velocity: 32
Note OFF: Time 376080, Note Name: E4
Note OFF: Time 376080, Note Name: A#3
Note OFF: Time 376080, Note Name: G3
Note ON: Time 376800, Note Name: F#3, Velocity: 36
Note ON: Time 376800, Note Name: A#3, Velocity: 36
Note ON: Time 376800, Note Name: D#4, Velocity: 36
Note OFF: Time 377280, Note Name: D#4
Note OFF: Time 377280, Note Name: A#3
Note OFF: Time 377280, Note Name: F#3
Note ON: Time 377280, Note Name: F3, Velocity: 32
Note ON: Time 377280, Note Name: A#3, Velocity: 32
Note ON: Time 377280, Note Name: D4, Velocity: 32
Note OFF: Time 377520, Note Name: D4
Note OFF: Time 377520, Note Name: A#3
Note OFF: Time 377520, Note Name: F3
Note ON: Time 377760, Note Name: A#1, Velocity: 82
Note ON: Time 377760, Note Name: A#2, Velocity: 82
Note OFF: Time 377880, Note Name: A#2
Note OFF: Time 377880, Note Name: A#1
Note ON: Time 378000, Note Name: A#1, Velocity: 78
Note ON: Time 378000, Note Name: A#2, Velocity: 78
Note OFF: Time 378120, Note Name: A#2
Note OFF: Time 378120, Note Name: A#1
Note ON: Time 378240, Note Name: A#1, Velocity: 82
Note ON: Time 378240, Note Name: A#2, Velocity: 82
Note OFF: Time 378480, Note Name: A#2
Note OFF: Time 378480, Note Name: A#1
Note ON: Time 378720, Note Name: A#1, Velocity: 82
Note ON: Time 378720, Note Name: A#2, Velocity: 82
Note OFF: Time 378840, Note Name: A#2
Note OFF: Time 378840, Note Name: A#1
Note ON: Time 378960, Note Name: A#1, Velocity: 78
Note ON: Time 378960, Note Name: A#2, Velocity: 78
Note OFF: Time 379080, Note Name: A#2
Note OFF: Time 379080, Note Name: A#1
Note ON: Time 379200, Note Name: A#1, Velocity: 82
Note ON: Time 379200, Note Name: A#2, Velocity: 82
Note OFF: Time 379440, Note Name: A#2
Note OFF: Time 379440, Note Name: A#1
Note ON: Time 379680, Note Name: A#1, Velocity: 82
Note ON: Time 379680, Note Name: A#2, Velocity: 82
Note OFF: Time 379800, Note Name: A#2
Note OFF: Time 379800, Note Name: A#1
Note ON: Time 379920, Note Name: A#1, Velocity: 78
Note ON: Time 379920, Note Name: A#2, Velocity: 78
Note OFF: Time 380040, Note Name: A#2
Note OFF: Time 380040, Note Name: A#1
Note ON: Time 380160, Note Name: A#1, Velocity: 82
Note ON: Time 380160, Note Name: A#2, Velocity: 82
Note OFF: Time 380400, Note Name: A#2
Note OFF: Time 380400, Note Name: A#1
Note ON: Time 381120, Note Name: A#2, Velocity: 39
Note ON: Time 381120, Note Name: G#3, Velocity: 39
Note OFF: Time 381600, Note Name: G#3
Note OFF: Time 381600, Note Name: A#2
Note ON: Time 381600, Note Name: A#2, Velocity: 36
Note ON: Time 381600, Note Name: G3, Velocity: 36
Note OFF: Time 381840, Note Name: G3
Note OFF: Time 381840, Note Name: A#2
Note ON: Time 382560, Note Name: F#3, Velocity: 39
Note ON: Time 382560, Note Name: A#2, Velocity: 39
Note OFF: Time 383040, Note Name: A#2
Note OFF: Time 383040, Note Name: F#3
Note ON: Time 383040, Note Name: A#2, Velocity: 36
Note ON: Time 383040, Note Name: F3, Velocity: 36
Note OFF: Time 383280, Note Name: F3
Note OFF: Time 383280, Note Name: A#2
Note ON: Time 385920, Note Name: A#1, Velocity: 95
Note ON: Time 385920, Note Name: A#2, Velocity: 95
Note OFF: Time 386160, Note Name: A#2
Note OFF: Time 386160, Note Name: A#1
Note ON: Time 386400, Note Name: G#4, Velocity: 54
Note ON: Time 386400, Note Name: F4, Velocity: 54
Note ON: Time 386400, Note Name: A#3, Velocity: 54
Note OFF: Time 386760, Note Name: A#3
Note OFF: Time 386760, Note Name: F4
Note OFF: Time 386760, Note Name: G#4
Note ON: Time 386880, Note Name: G#4, Velocity: 62
Note ON: Time 386880, Note Name: F4, Velocity: 62
Note ON: Time 386880, Note Name: A#3, Velocity: 62
Note OFF: Time 387240, Note Name: A#3
Note OFF: Time 387240, Note Name: F4
Note OFF: Time 387240, Note Name: G#4
Note ON: Time 387360, Note Name: D#2, Velocity: 95
Note ON: Time 387360, Note Name: D#3, Velocity: 95
Note OFF: Time 387600, Note Name: D#3
Note OFF: Time 387600, Note Name: D#2
Note ON: Time 387840, Note Name: G4, Velocity: 57
Note ON: Time 387840, Note Name: D#4, Velocity: 57
Note ON: Time 387840, Note Name: A#3, Velocity: 57
Note OFF: Time 388200, Note Name: A#3
Note OFF: Time 388200, Note Name: D#4
Note OFF: Time 388200, Note Name: G4
Note ON: Time 388320, Note Name: G4, Velocity: 61
Note ON: Time 388320, Note Name: D#4, Velocity: 61
Note ON: Time 388320, Note Name: A#3, Velocity: 61
Note OFF: Time 388680, Note Name: A#3
Note OFF: Time 388680, Note Name: D#4
Note OFF: Time 388680, Note Name: G4
Note ON: Time 388800, Note Name: A#2, Velocity: 96
Note ON: Time 388800, Note Name: A#3, Velocity: 96
Note OFF: Time 389040, Note Name: A#3
Note OFF: Time 389040, Note Name: A#2
Note ON: Time 389280, Note Name: G#4, Velocity: 60
Note ON: Time 389280, Note Name: F4, Velocity: 60
Note ON: Time 389280, Note Name: A#3, Velocity: 60
Note OFF: Time 389640, Note Name: A#3
Note OFF: Time 389640, Note Name: F4
Note OFF: Time 389640, Note Name: G#4
Note ON: Time 389760, Note Name: G#4, Velocity: 67
Note ON: Time 389760, Note Name: F4, Velocity: 67
Note ON: Time 389760, Note Name: A#3, Velocity: 67
Note OFF: Time 390120, Note Name: A#3
Note OFF: Time 390120, Note Name: F4
Note OFF: Time 390120, Note Name: G#4
Note ON: Time 390240, Note Name: D#3, Velocity: 97
Note OFF: Time 390480, Note Name: D#3
Note ON: Time 390720, Note Name: G4, Velocity: 71
Note ON: Time 390720, Note Name: C#4, Velocity: 71
Note ON: Time 390720, Note Name: A#3, Velocity: 71
Note OFF: Time 390960, Note Name: A#3
Note OFF: Time 390960, Note Name: C#4
Note OFF: Time 390960, Note Name: G4
Note ON: Time 391200, Note Name: E3, Velocity: 92
Note OFF: Time 391440, Note Name: E3
Note ON: Time 391680, Note Name: F3, Velocity: 60
Note OFF: Time 391920, Note Name: F3
Note ON: Time 392160, Note Name: F4, Velocity: 47
Note ON: Time 392160, Note Name: G#3, Velocity: 47
Note OFF: Time 392400, Note Name: G#3
Note OFF: Time 392400, Note Name: F4
Note ON: Time 392640, Note Name: G#2, Velocity: 53
Note OFF: Time 392880, Note Name: G#2
Note ON: Time 393120, Note Name: A#2, Velocity: 55
Note OFF: Time 393360, Note Name: A#2
Note ON: Time 393600, Note Name: D#4, Velocity: 44
Note ON: Time 393600, Note Name: G3, Velocity: 44
Note OFF: Time 393960, Note Name: G3
Note OFF: Time 393960, Note Name: D#4
Note ON: Time 394080, Note Name: D#4, Velocity: 51
Note ON: Time 394080, Note Name: G3, Velocity: 51
Note OFF: Time 394320, Note Name: G3
Note OFF: Time 394320, Note Name: D#4
Note ON: Time 394560, Note Name: A#2, Velocity: 54
Note OFF: Time 394800, Note Name: A#2
Note ON: Time 395040, Note Name: D4, Velocity: 41
Note ON: Time 395040, Note Name: F3, Velocity: 41
Note OFF: Time 395520, Note Name: F3
Note OFF: Time 395520, Note Name: D4
Note ON: Time 395520, Note Name: D4, Velocity: 49
Note ON: Time 395520, Note Name: A#3, Velocity: 49
Note OFF: Time 395760, Note Name: A#3
Note OFF: Time 395760, Note Name: D4
Note ON: Time 396000, Note Name: D#3, Velocity: 51
Note ON: Time 396480, Note Name: D#4, Velocity: 38
Note ON: Time 396480, Note Name: A#3, Velocity: 38
Note OFF: Time 396840, Note Name: A#3
Note OFF: Time 396840, Note Name: D#4
Note ON: Time 396960, Note Name: D#4, Velocity: 47
Note ON: Time 396960, Note Name: A#3, Velocity: 47
Note OFF: Time 397200, Note Name: A#3
Note OFF: Time 397200, Note Name: D#4
Note OFF: Time 397440, Note Name: D#3
Note ON: Time 397440, Note Name: A#3, Velocity: 95
Note ON: Time 397440, Note Name: A#2, Velocity: 95
Note ON: Time 397920, Note Name: G#4, Velocity: 54
Note ON: Time 397920, Note Name: F4, Velocity: 54
Note ON: Time 397920, Note Name: A#3, Velocity: 54
Note OFF: Time 398160, Note Name: A#2
Note OFF: Time 398160, Note Name: A#3
Note OFF: Time 398280, Note Name: F4
Note OFF: Time 398280, Note Name: G#4
Note OFF: Time 398280, Note Name: A#3
Note ON: Time 398400, Note Name: G#4, Velocity: 58
Note ON: Time 398400, Note Name: F4, Velocity: 58
Note ON: Time 398400, Note Name: A#3, Velocity: 58
Note OFF: Time 398760, Note Name: A#3
Note OFF: Time 398760, Note Name: F4
Note OFF: Time 398760, Note Name: G#4
Note ON: Time 398880, Note Name: D#2, Velocity: 94
Note ON: Time 398880, Note Name: D#3, Velocity: 94
Note ON: Time 399360, Note Name: G4, Velocity: 64
Note ON: Time 399360, Note Name: D#4, Velocity: 64
Note ON: Time 399360, Note Name: A#3, Velocity: 64
Note OFF: Time 399600, Note Name: D#3
Note OFF: Time 399600, Note Name: D#2
Note OFF: Time 399720, Note Name: D#4
Note OFF: Time 399720, Note Name: G4
Note OFF: Time 399720, Note Name: A#3
Note ON: Time 399840, Note Name: G4, Velocity: 69
Note ON: Time 399840, Note Name: D#4, Velocity: 69
Note ON: Time 399840, Note Name: A#3, Velocity: 69
Note OFF: Time 400200, Note Name: A#3
Note OFF: Time 400200, Note Name: D#4
Note OFF: Time 400200, Note Name: G4
Note ON: Time 400320, Note Name: A#3, Velocity: 95
Note ON: Time 400320, Note Name: A#2, Velocity: 95
Note ON: Time 400800, Note Name: G#4, Velocity: 66
Note ON: Time 400800, Note Name: F4, Velocity: 66
Note ON: Time 400800, Note Name: A#3, Velocity: 66
Note OFF: Time 401040, Note Name: A#2
Note OFF: Time 401040, Note Name: A#3
Note OFF: Time 401160, Note Name: F4
Note OFF: Time 401160, Note Name: G#4
Note OFF: Time 401160, Note Name: A#3
Note ON: Time 401280, Note Name: G#4, Velocity: 70
Note ON: Time 401280, Note Name: F4, Velocity: 70
Note ON: Time 401280, Note Name: A#3, Velocity: 70
Note OFF: Time 401640, Note Name: A#3
Note OFF: Time 401640, Note Name: F4
Note OFF: Time 401640, Note Name: G#4
Note ON: Time 401760, Note Name: D#3, Velocity: 78
Note OFF: Time 402000, Note Name: D#3
Note ON: Time 402240, Note Name: G4, Velocity: 48
Note ON: Time 402240, Note Name: C#4, Velocity: 48
Note ON: Time 402240, Note Name: A#3, Velocity: 48
Note OFF: Time 402480, Note Name: A#3
Note OFF: Time 402480, Note Name: C#4
Note OFF: Time 402480, Note Name: G4
Note ON: Time 402720, Note Name: E3, Velocity: 49
Note OFF: Time 403200, Note Name: E3
Note ON: Time 403200, Note Name: F3, Velocity: 43
Note OFF: Time 403440, Note Name: F3
Note ON: Time 403680, Note Name: G#3, Velocity: 49
Note ON: Time 403680, Note Name: F4, Velocity: 49
Note OFF: Time 403920, Note Name: F4
Note OFF: Time 403920, Note Name: G#3
Note ON: Time 404160, Note Name: G#2, Velocity: 37
Note OFF: Time 404400, Note Name: G#2
Note ON: Time 404640, Note Name: A#2, Velocity: 43
Note OFF: Time 404880, Note Name: A#2
Note ON: Time 405120, Note Name: G3, Velocity: 31
Note ON: Time 405120, Note Name: D#4, Velocity: 31
Note OFF: Time 405480, Note Name: D#4
Note OFF: Time 405480, Note Name: G3
Note ON: Time 405600, Note Name: D#4, Velocity: 41
Note ON: Time 405600, Note Name: G3, Velocity: 41
Note OFF: Time 405840, Note Name: G3
Note OFF: Time 405840, Note Name: D#4
Note ON: Time 406080, Note Name: A#2, Velocity: 33
Note OFF: Time 406320, Note Name: A#2
Note ON: Time 406560, Note Name: F3, Velocity: 40
Note ON: Time 406560, Note Name: D4, Velocity: 40
Note OFF: Time 407040, Note Name: D4
Note OFF: Time 407040, Note Name: F3
Note ON: Time 407040, Note Name: D4, Velocity: 27
Note ON: Time 407040, Note Name: A#3, Velocity: 27
Note OFF: Time 407520, Note Name: D4
Note ON: Time 407520, Note Name: D#4, Velocity: 44
Note ON: Time 407520, Note Name: D#3, Velocity: 44
Note OFF: Time 408000, Note Name: D#3
Note OFF: Time 408000, Note Name: D#4
Note OFF: Time 408000, Note Name: A#3
Note ON: Time 408480, Note Name: D#3, Velocity: 52
Note ON: Time 408480, Note Name: G3, Velocity: 52
Note ON: Time 408480, Note Name: C#4, Velocity: 52
Note OFF: Time 408960, Note Name: C#4
Note OFF: Time 408960, Note Name: G3
Note OFF: Time 408960, Note Name: D#3
Note ON: Time 408960, Note Name: G#2, Velocity: 25
Note ON: Time 409440, Note Name: G#3, Velocity: 33
Note ON: Time 409440, Note Name: C4, Velocity: 33
Note ON: Time 409440, Note Name: D#3, Velocity: 33
Note OFF: Time 409680, Note Name: G#2
Note OFF: Time 409800, Note Name: G#3
Note OFF: Time 409800, Note Name: C4
Note OFF: Time 409800, Note Name: D#3
Note ON: Time 409920, Note Name: C4, Velocity: 41
Note ON: Time 409920, Note Name: D#3, Velocity: 41
Note ON: Time 409920, Note Name: G#3, Velocity: 41
Note OFF: Time 410280, Note Name: G#3
Note OFF: Time 410280, Note Name: D#3
Note OFF: Time 410280, Note Name: C4
Note ON: Time 410400, Note Name: G#2, Velocity: 33
Note OFF: Time 410880, Note Name: G#2
Note ON: Time 410880, Note Name: G#3, Velocity: 33
Note ON: Time 410880, Note Name: C4, Velocity: 33
Note ON: Time 410880, Note Name: D#3, Velocity: 33
Note OFF: Time 411240, Note Name: D#3
Note OFF: Time 411240, Note Name: C4
Note OFF: Time 411240, Note Name: G#3
Note ON: Time 411360, Note Name: G#3, Velocity: 37
Note ON: Time 411360, Note Name: D#3, Velocity: 37
Note ON: Time 411360, Note Name: C4, Velocity: 37
Note OFF: Time 411720, Note Name: C4
Note OFF: Time 411720, Note Name: D#3
Note OFF: Time 411720, Note Name: G#3
Note ON: Time 411840, Note Name: G#2, Velocity: 37
Note OFF: Time 412320, Note Name: G#2
Note ON: Time 412320, Note Name: G#3, Velocity: 26
Note ON: Time 412320, Note Name: D3, Velocity: 26
Note ON: Time 412320, Note Name: B3, Velocity: 26
Note OFF: Time 412680, Note Name: B3
Note OFF: Time 412680, Note Name: D3
Note OFF: Time 412680, Note Name: G#3
Note ON: Time 412800, Note Name: G#3, Velocity: 32
Note ON: Time 412800, Note Name: D3, Velocity: 32
Note ON: Time 412800, Note Name: B3, Velocity: 32
Note OFF: Time 413160, Note Name: B3
Note OFF: Time 413160, Note Name: D3
Note OFF: Time 413160, Note Name: G#3
Note ON: Time 413280, Note Name: G#2, Velocity: 38
Note OFF: Time 413760, Note Name: G#2
Note ON: Time 413760, Note Name: C4, Velocity: 29
Note ON: Time 413760, Note Name: D#3, Velocity: 29
Note ON: Time 413760, Note Name: G#3, Velocity: 29
Note OFF: Time 414120, Note Name: G#3
Note OFF: Time 414120, Note Name: D#3
Note OFF: Time 414120, Note Name: C4
Note ON: Time 414240, Note Name: G#3, Velocity: 48
Note ON: Time 414240, Note Name: D#3, Velocity: 48
Note ON: Time 414240, Note Name: C4, Velocity: 48
Note OFF: Time 414600, Note Name: C4
Note OFF: Time 414600, Note Name: D#3
Note OFF: Time 414600, Note Name: G#3
Note ON: Time 414720, Note Name: D3, Velocity: 55
Note OFF: Time 415200, Note Name: D3
Note ON: Time 415200, Note Name: F4, Velocity: 24
Note ON: Time 415200, Note Name: G#3, Velocity: 24
Note ON: Time 415200, Note Name: B3, Velocity: 24
Note OFF: Time 415560, Note Name: B3
Note OFF: Time 415560, Note Name: G#3
Note OFF: Time 415560, Note Name: F4
Note ON: Time 415680, Note Name: F4, Velocity: 36
Note ON: Time 415680, Note Name: G#3, Velocity: 36
Note ON: Time 415680, Note Name: B3, Velocity: 36
Note OFF: Time 416040, Note Name: B3
Note OFF: Time 416040, Note Name: G#3
Note OFF: Time 416040, Note Name: F4
Note ON: Time 416160, Note Name: D#3, Velocity: 44
Note OFF: Time 416640, Note Name: D#3
Note ON: Time 416640, Note Name: D#4, Velocity: 32
Note ON: Time 416640, Note Name: C4, Velocity: 32
Note ON: Time 416640, Note Name: G#4, Velocity: 32
Note OFF: Time 417000, Note Name: G#4
Note OFF: Time 417000, Note Name: C4
Note OFF: Time 417000, Note Name: D#4
Note ON: Time 417120, Note Name: C4, Velocity: 42
Note ON: Time 417120, Note Name: G#4, Velocity: 42
Note ON: Time 417120, Note Name: D#4, Velocity: 42
Note OFF: Time 417360, Note Name: D#4
Note OFF: Time 417360, Note Name: G#4
Note OFF: Time 417360, Note Name: C4
Note ON: Time 417600, Note Name: D#3, Velocity: 20
Note OFF: Time 418080, Note Name: D#3
Note ON: Time 418080, Note Name: D#4, Velocity: 20
Note ON: Time 418080, Note Name: C#4, Velocity: 20
Note ON: Time 418080, Note Name: G4, Velocity: 20
Note OFF: Time 418440, Note Name: G4
Note OFF: Time 418440, Note Name: C#4
Note OFF: Time 418440, Note Name: D#4
Note ON: Time 418560, Note Name: D#4, Velocity: 30
Note ON: Time 418560, Note Name: C#4, Velocity: 30
Note ON: Time 418560, Note Name: G4, Velocity: 30
Note OFF: Time 418800, Note Name: G4
Note OFF: Time 418800, Note Name: C#4
Note OFF: Time 418800, Note Name: D#4
Note ON: Time 419040, Note Name: G#3, Velocity: 34
Note ON: Time 419520, Note Name: D#4, Velocity: 23
Note ON: Time 419520, Note Name: C4, Velocity: 23
Note ON: Time 419520, Note Name: G#4, Velocity: 23
Note OFF: Time 419880, Note Name: G#4
Note OFF: Time 419880, Note Name: C4
Note OFF: Time 419880, Note Name: D#4
Note ON: Time 420000, Note Name: D#4, Velocity: 38
Note ON: Time 420000, Note Name: C4, Velocity: 38
Note ON: Time 420000, Note Name: G#4, Velocity: 38
Note OFF: Time 420240, Note Name: G#4
Note OFF: Time 420240, Note Name: G#3
Note OFF: Time 420240, Note Name: D#4
Note OFF: Time 420240, Note Name: C4
Note ON: Time 420480, Note Name: G#2, Velocity: 34
Note OFF: Time 420960, Note Name: G#2
Note ON: Time 420960, Note Name: C4, Velocity: 31
Note ON: Time 420960, Note Name: D#3, Velocity: 31
Note ON: Time 420960, Note Name: G#3, Velocity: 31
Note OFF: Time 421320, Note Name: G#3
Note OFF: Time 421320, Note Name: D#3
Note OFF: Time 421320, Note Name: C4
Note ON: Time 421440, Note Name: G#3, Velocity: 49
Note ON: Time 421440, Note Name: D#3, Velocity: 49
Note ON: Time 421440, Note Name: C4, Velocity: 49
Note OFF: Time 421800, Note Name: C4
Note OFF: Time 421800, Note Name: D#3
Note OFF: Time 421800, Note Name: G#3
Note ON: Time 421920, Note Name: G#2, Velocity: 47
Note OFF: Time 422400, Note Name: G#2
Note ON: Time 422400, Note Name: C4, Velocity: 35
Note ON: Time 422400, Note Name: D#3, Velocity: 35
Note ON: Time 422400, Note Name: G#3, Velocity: 35
Note OFF: Time 422760, Note Name: G#3
Note OFF: Time 422760, Note Name: D#3
Note OFF: Time 422760, Note Name: C4
Note ON: Time 422880, Note Name: D#3, Velocity: 52
Note ON: Time 422880, Note Name: C4, Velocity: 52
Note ON: Time 422880, Note Name: G#3, Velocity: 52
Note OFF: Time 423240, Note Name: G#3
Note OFF: Time 423240, Note Name: C4
Note OFF: Time 423240, Note Name: D#3
Note ON: Time 423360, Note Name: G#2, Velocity: 40
Note OFF: Time 423840, Note Name: G#2
Note ON: Time 423840, Note Name: G#3, Velocity: 35
Note ON: Time 423840, Note Name: B3, Velocity: 35
Note ON: Time 423840, Note Name: D3, Velocity: 35
Note OFF: Time 424200, Note Name: D3
Note OFF: Time 424200, Note Name: B3
Note OFF: Time 424200, Note Name: G#3
Note ON: Time 424320, Note Name: D3, Velocity: 31
Note ON: Time 424320, Note Name: B3, Velocity: 31
Note ON: Time 424320, Note Name: G#3, Velocity: 31
Note OFF: Time 424680, Note Name: G#3
Note OFF: Time 424680, Note Name: B3
Note OFF: Time 424680, Note Name: D3
Note ON: Time 424800, Note Name: G#2, Velocity: 38
Note OFF: Time 425280, Note Name: G#2
Note ON: Time 425280, Note Name: G#3, Velocity: 30
Note ON: Time 425280, Note Name: C4, Velocity: 30
Note ON: Time 425280, Note Name: D#3, Velocity: 30
Note OFF: Time 425640, Note Name: D#3
Note OFF: Time 425640, Note Name: C4
Note OFF: Time 425640, Note Name: G#3
Note ON: Time 425760, Note Name: G#3, Velocity: 36
Note ON: Time 425760, Note Name: C4, Velocity: 36
Note ON: Time 425760, Note Name: D#3, Velocity: 36
Note OFF: Time 426120, Note Name: D#3
Note OFF: Time 426120, Note Name: C4
Note OFF: Time 426120, Note Name: G#3
Note ON: Time 426240, Note Name: D3, Velocity: 38
Note OFF: Time 426720, Note Name: D3
Note ON: Time 426720, Note Name: B3, Velocity: 33
Note ON: Time 426720, Note Name: G#3, Velocity: 33
Note ON: Time 426720, Note Name: F4, Velocity: 33
Note OFF: Time 427080, Note Name: F4
Note OFF: Time 427080, Note Name: G#3
Note OFF: Time 427080, Note Name: B3
Note ON: Time 427200, Note Name: B3, Velocity: 36
Note ON: Time 427200, Note Name: F4, Velocity: 36
Note ON: Time 427200, Note Name: G#3, Velocity: 36
Note OFF: Time 427560, Note Name: G#3
Note OFF: Time 427560, Note Name: F4
Note OFF: Time 427560, Note Name: B3
Note ON: Time 427680, Note Name: D#3, Velocity: 44
Note OFF: Time 428160, Note Name: D#3
Note ON: Time 428160, Note Name: C4, Velocity: 29
Note ON: Time 428160, Note Name: G#4, Velocity: 29
Note ON: Time 428160, Note Name: D#4, Velocity: 29
Note OFF: Time 428520, Note Name: D#4
Note OFF: Time 428520, Note Name: G#4
Note OFF: Time 428520, Note Name: C4
Note ON: Time 428640, Note Name: D#4, Velocity: 44
Note ON: Time 428640, Note Name: G#4, Velocity: 44
Note ON: Time 428640, Note Name: C4, Velocity: 44
Note OFF: Time 428880, Note Name: C4
Note OFF: Time 428880, Note Name: G#4
Note OFF: Time 428880, Note Name: D#4
Note ON: Time 429120, Note Name: D#3, Velocity: 27
Note OFF: Time 429600, Note Name: D#3
Note ON: Time 429600, Note Name: C#4, Velocity: 32
Note ON: Time 429600, Note Name: G4, Velocity: 32
Note ON: Time 429600, Note Name: D#4, Velocity: 32
Note OFF: Time 430080, Note Name: D#4
Note OFF: Time 430080, Note Name: G4
Note OFF: Time 430080, Note Name: C#4
Note ON: Time 430080, Note Name: C#4, Velocity: 37
Note ON: Time 430080, Note Name: G4, Velocity: 37
Note ON: Time 430080, Note Name: D#4, Velocity: 37
Note OFF: Time 430320, Note Name: D#4
Note OFF: Time 430320, Note Name: G4
Note OFF: Time 430320, Note Name: C#4
Note ON: Time 430560, Note Name: G#3, Velocity: 44
Note ON: Time 431040, Note Name: G#4, Velocity: 35
Note ON: Time 431040, Note Name: C4, Velocity: 35
Note OFF: Time 431520, Note Name: C4
Note OFF: Time 431520, Note Name: G#4
Note ON: Time 431520, Note Name: G#4, Velocity: 47
Note ON: Time 431520, Note Name: F4, Velocity: 47
Note OFF: Time 432000, Note Name: F4
Note OFF: Time 432000, Note Name: G#4
Note OFF: Time 432000, Note Name: G#3
Note ON: Time 432000, Note Name: A#3, Velocity: 86
Note ON: Time 432000, Note Name: A#2, Velocity: 86
Note OFF: Time 432480, Note Name: A#2
Note OFF: Time 432480, Note Name: A#3
Note ON: Time 432480, Note Name: F4, Velocity: 55
Note ON: Time 432480, Note Name: G#4, Velocity: 55
Note ON: Time 432480, Note Name: A#3, Velocity: 55
Note OFF: Time 432840, Note Name: A#3
Note OFF: Time 432840, Note Name: G#4
Note OFF: Time 432840, Note Name: F4
Note ON: Time 432960, Note Name: G#4, Velocity: 65
Note ON: Time 432960, Note Name: A#3, Velocity: 65
Note ON: Time 432960, Note Name: F4, Velocity: 65
Note OFF: Time 433320, Note Name: F4
Note OFF: Time 433320, Note Name: A#3
Note OFF: Time 433320, Note Name: G#4
Note ON: Time 433440, Note Name: D#3, Velocity: 74
Note OFF: Time 433920, Note Name: D#3
Note ON: Time 433920, Note Name: D#4, Velocity: 57
Note ON: Time 433920, Note Name: G4, Velocity: 57
Note ON: Time 433920, Note Name: A#3, Velocity: 57
Note OFF: Time 434280, Note Name: A#3
Note OFF: Time 434280, Note Name: G4
Note OFF: Time 434280, Note Name: D#4
Note ON: Time 434400, Note Name: D#4, Velocity: 62
Note ON: Time 434400, Note Name: G4, Velocity: 62
Note ON: Time 434400, Note Name: A#3, Velocity: 62
Note OFF: Time 434760, Note Name: A#3
Note OFF: Time 434760, Note Name: G4
Note OFF: Time 434760, Note Name: D#4
Note ON: Time 434880, Note Name: D3, Velocity: 65
Note OFF: Time 435360, Note Name: D3
Note ON: Time 435360, Note Name: F4, Velocity: 56
Note ON: Time 435360, Note Name: A#3, Velocity: 56
Note ON: Time 435360, Note Name: G#4, Velocity: 56
Note OFF: Time 435720, Note Name: G#4
Note OFF: Time 435720, Note Name: A#3
Note OFF: Time 435720, Note Name: F4
Note ON: Time 435840, Note Name: F4, Velocity: 69
Note ON: Time 435840, Note Name: G#4, Velocity: 69
Note ON: Time 435840, Note Name: A#3, Velocity: 69
Note OFF: Time 436200, Note Name: A#3
Note OFF: Time 436200, Note Name: G#4
Note OFF: Time 436200, Note Name: F4
Note ON: Time 436320, Note Name: D#3, Velocity: 61
Note OFF: Time 436560, Note Name: D#3
Note ON: Time 436800, Note Name: G4, Velocity: 61
Note ON: Time 436800, Note Name: A#3, Velocity: 61
Note ON: Time 436800, Note Name: C#4, Velocity: 61
Note OFF: Time 437040, Note Name: C#4
Note OFF: Time 437040, Note Name: A#3
Note OFF: Time 437040, Note Name: G4
Note ON: Time 437280, Note Name: E3, Velocity: 38
Note OFF: Time 437760, Note Name: E3
Note ON: Time 437760, Note Name: F3, Velocity: 38
Note OFF: Time 438000, Note Name: F3
Note ON: Time 438240, Note Name: F4, Velocity: 41
Note ON: Time 438240, Note Name: G#3, Velocity: 41
Note OFF: Time 438480, Note Name: G#3
Note OFF: Time 438480, Note Name: F4
Note ON: Time 438720, Note Name: G#2, Velocity: 36
Note OFF: Time 438960, Note Name: G#2
Note ON: Time 439200, Note Name: A#2, Velocity: 31
Note OFF: Time 439440, Note Name: A#2
Note ON: Time 439680, Note Name: G3, Velocity: 27
Note ON: Time 439680, Note Name: D#4, Velocity: 27
Note OFF: Time 440040, Note Name: D#4
Note OFF: Time 440040, Note Name: G3
Note ON: Time 440160, Note Name: G3, Velocity: 41
Note ON: Time 440160, Note Name: D#4, Velocity: 41
Note OFF: Time 440400, Note Name: D#4
Note OFF: Time 440400, Note Name: G3
Note ON: Time 440640, Note Name: A#2, Velocity: 39
Note OFF: Time 440880, Note Name: A#2
Note ON: Time 441120, Note Name: F3, Velocity: 26
Note ON: Time 441120, Note Name: D4, Velocity: 26
Note OFF: Time 441600, Note Name: D4
Note OFF: Time 441600, Note Name: F3
Note ON: Time 441600, Note Name: A#3, Velocity: 34
Note ON: Time 441600, Note Name: D4, Velocity: 34
Note OFF: Time 441840, Note Name: D4
Note OFF: Time 441840, Note Name: A#3
Note ON: Time 442080, Note Name: D#3, Velocity: 23
Note ON: Time 442560, Note Name: A#3, Velocity: 33
Note ON: Time 442560, Note Name: D#4, Velocity: 33
Note OFF: Time 443040, Note Name: D#4
Note OFF: Time 443040, Note Name: A#3
Note ON: Time 443040, Note Name: A#3, Velocity: 53
Note ON: Time 443040, Note Name: D#4, Velocity: 53
Note OFF: Time 443280, Note Name: D#4
Note OFF: Time 443280, Note Name: A#3
Note OFF: Time 443520, Note Name: D#3
Note ON: Time 443520, Note Name: A#1, Velocity: 91
Note ON: Time 443520, Note Name: A#2, Velocity: 91
Note OFF: Time 444000, Note Name: A#2
Note OFF: Time 444000, Note Name: A#1
Note ON: Time 444000, Note Name: F4, Velocity: 54
Note ON: Time 444000, Note Name: G#4, Velocity: 54
Note ON: Time 444000, Note Name: A#3, Velocity: 54
Note OFF: Time 444360, Note Name: A#3
Note OFF: Time 444360, Note Name: G#4
Note OFF: Time 444360, Note Name: F4
Note ON: Time 444480, Note Name: G#4, Velocity: 58
Note ON: Time 444480, Note Name: A#3, Velocity: 58
Note ON: Time 444480, Note Name: F4, Velocity: 58
Note OFF: Time 444840, Note Name: F4
Note OFF: Time 444840, Note Name: A#3
Note OFF: Time 444840, Note Name: G#4
Note ON: Time 444960, Note Name: D#3, Velocity: 92
Note ON: Time 444960, Note Name: D#2, Velocity: 92
Note OFF: Time 445440, Note Name: D#2
Note OFF: Time 445440, Note Name: D#3
Note ON: Time 445440, Note Name: D#4, Velocity: 58
Note ON: Time 445440, Note Name: G4, Velocity: 58
Note ON: Time 445440, Note Name: A#3, Velocity: 58
Note OFF: Time 445800, Note Name: A#3
Note OFF: Time 445800, Note Name: G4
Note OFF: Time 445800, Note Name: D#4
Note ON: Time 445920, Note Name: G4, Velocity: 64
Note ON: Time 445920, Note Name: D#4, Velocity: 64
Note ON: Time 445920, Note Name: A#3, Velocity: 64
Note OFF: Time 446280, Note Name: A#3
Note OFF: Time 446280, Note Name: D#4
Note OFF: Time 446280, Note Name: G4
Note ON: Time 446400, Note Name: A#3, Velocity: 91
Note ON: Time 446400, Note Name: A#2, Velocity: 91
Note OFF: Time 446880, Note Name: A#2
Note OFF: Time 446880, Note Name: A#3
Note ON: Time 446880, Note Name: G#4, Velocity: 66
Note ON: Time 446880, Note Name: A#3, Velocity: 66
Note ON: Time 446880, Note Name: F4, Velocity: 66
Note OFF: Time 447240, Note Name: F4
Note OFF: Time 447240, Note Name: A#3
Note OFF: Time 447240, Note Name: G#4
Note ON: Time 447360, Note Name: G#4, Velocity: 72
Note ON: Time 447360, Note Name: F4, Velocity: 72
Note ON: Time 447360, Note Name: A#3, Velocity: 72
Note OFF: Time 447720, Note Name: A#3
Note OFF: Time 447720, Note Name: F4
Note OFF: Time 447720, Note Name: G#4
Note ON: Time 447840, Note Name: G4, Velocity: 90
Note ON: Time 447840, Note Name: D#3, Velocity: 90
Note ON: Time 447840, Note Name: C#4, Velocity: 90
Note ON: Time 447840, Note Name: A#3, Velocity: 90
Note OFF: Time 448320, Note Name: A#3
Note OFF: Time 448320, Note Name: G4
Note OFF: Time 448320, Note Name: D#3
Note OFF: Time 448320, Note Name: C#4
Note ON: Time 451680, Note Name: E3, Velocity: 40
Note OFF: Time 452160, Note Name: E3
Note ON: Time 452160, Note Name: F3, Velocity: 48
Note OFF: Time 452400, Note Name: F3
Note ON: Time 452640, Note Name: F4, Velocity: 44
Note ON: Time 452640, Note Name: G#3, Velocity: 44
Note OFF: Time 452880, Note Name: G#3
Note OFF: Time 452880, Note Name: F4
Note ON: Time 453120, Note Name: G#2, Velocity: 44
Note OFF: Time 453360, Note Name: G#2
Note ON: Time 453600, Note Name: A#2, Velocity: 39
Note OFF: Time 453840, Note Name: A#2
Note ON: Time 454080, Note Name: D#4, Velocity: 36
Note ON: Time 454080, Note Name: G3, Velocity: 36
Note OFF: Time 454560, Note Name: G3
Note OFF: Time 454560, Note Name: D#4
Note ON: Time 454560, Note Name: D#4, Velocity: 36
Note ON: Time 454560, Note Name: G3, Velocity: 36
Note OFF: Time 455040, Note Name: G3
Note OFF: Time 455040, Note Name: D#4
Note ON: Time 455040, Note Name: A#2, Velocity: 35
Note OFF: Time 455280, Note Name: A#2
Note ON: Time 455520, Note Name: D4, Velocity: 32
Note ON: Time 455520, Note Name: A#3, Velocity: 32
Note ON: Time 455520, Note Name: F3, Velocity: 32
Note OFF: Time 456000, Note Name: F3
Note OFF: Time 456000, Note Name: A#3
Note OFF: Time 456000, Note Name: D4
Note ON: Time 456000, Note Name: F3, Velocity: 32
Note ON: Time 456000, Note Name: D4, Velocity: 30
Note ON: Time 456000, Note Name: A#3, Velocity: 30
Note OFF: Time 456480, Note Name: A#3
Note OFF: Time 456480, Note Name: D4
Note OFF: Time 456480, Note Name: F3
Note ON: Time 457920, Note Name: D#2, Velocity: 33
Note OFF: Time 458400, Note Name: D#2
Note ON: Time 458400, Note Name: A#2, Velocity: 29
Note ON: Time 458400, Note Name: G3, Velocity: 29
Note OFF: Time 458880, Note Name: G3
Note OFF: Time 458880, Note Name: A#2
Note ON: Time 458880, Note Name: A#2, Velocity: 31
Note ON: Time 458880, Note Name: G3, Velocity: 31
Note OFF: Time 459360, Note Name: G3
Note OFF: Time 459360, Note Name: A#2
Note ON: Time 459360, Note Name: D#2, Velocity: 32
Note OFF: Time 459840, Note Name: D#2
Note ON: Time 459840, Note Name: G3, Velocity: 29
Note ON: Time 459840, Note Name: A#2, Velocity: 29
Note OFF: Time 460320, Note Name: A#2
Note OFF: Time 460320, Note Name: G3
Note ON: Time 460320, Note Name: A#2, Velocity: 31
Note ON: Time 460320, Note Name: G3, Velocity: 31
Note OFF: Time 460800, Note Name: G3
Note OFF: Time 460800, Note Name: A#2
Note ON: Time 460800, Note Name: D#2, Velocity: 34
Note OFF: Time 461280, Note Name: D#2
Note ON: Time 461280, Note Name: A#2, Velocity: 29
Note ON: Time 461280, Note Name: G3, Velocity: 29
Note OFF: Time 461760, Note Name: G3
Note OFF: Time 461760, Note Name: A#2
Note ON: Time 461760, Note Name: G3, Velocity: 32
Note ON: Time 461760, Note Name: A#2, Velocity: 32
Note OFF: Time 462240, Note Name: A#2
Note OFF: Time 462240, Note Name: G3
Note ON: Time 462240, Note Name: D#2, Velocity: 33
Note OFF: Time 462720, Note Name: D#2
Note ON: Time 462720, Note Name: G3, Velocity: 30
Note ON: Time 462720, Note Name: A#2, Velocity: 30
Note OFF: Time 463200, Note Name: A#2
Note OFF: Time 463200, Note Name: G3
Note ON: Time 463200, Note Name: A#2, Velocity: 32
Note ON: Time 463200, Note Name: G3, Velocity: 32
Note OFF: Time 463680, Note Name: G3
Note OFF: Time 463680, Note Name: A#2
Note ON: Time 463680, Note Name: D#2, Velocity: 33
Note OFF: Time 464160, Note Name: D#2
Note ON: Time 464160, Note Name: G3, Velocity: 29
Note ON: Time 464160, Note Name: A#2, Velocity: 29
Note OFF: Time 464640, Note Name: A#2
Note OFF: Time 464640, Note Name: G3
Note ON: Time 464640, Note Name: A#2, Velocity: 31
Note ON: Time 464640, Note Name: G3, Velocity: 31
Note OFF: Time 465120, Note Name: G3
Note OFF: Time 465120, Note Name: A#2
Note ON: Time 465120, Note Name: D#2, Velocity: 33
Note OFF: Time 465600, Note Name: D#2
Note ON: Time 465600, Note Name: A#2, Velocity: 30
Note ON: Time 465600, Note Name: G3, Velocity: 30
Note OFF: Time 465960, Note Name: G3
Note OFF: Time 465960, Note Name: A#2
Note ON: Time 466080, Note Name: G3, Velocity: 30
Note ON: Time 466080, Note Name: A#2, Velocity: 30
Note OFF: Time 466440, Note Name: A#2
Note OFF: Time 466440, Note Name: G3
Note ON: Time 466560, Note Name: D#2, Velocity: 36
Note OFF: Time 467040, Note Name: D#2
Note ON: Time 467040, Note Name: C#4, Velocity: 33
Note ON: Time 467040, Note Name: G3, Velocity: 33
Note ON: Time 467040, Note Name: D#3, Velocity: 33
Note OFF: Time 467400, Note Name: D#3
Note OFF: Time 467400, Note Name: G3
Note OFF: Time 467400, Note Name: C#4
Note ON: Time 467520, Note Name: C#4, Velocity: 30
Note ON: Time 467520, Note Name: G3, Velocity: 30
Note ON: Time 467520, Note Name: D#3, Velocity: 30
Note OFF: Time 467880, Note Name: D#3
Note OFF: Time 467880, Note Name: G3
Note OFF: Time 467880, Note Name: C#4
Note ON: Time 468000, Note Name: D#3, Velocity: 33
Note ON: Time 468000, Note Name: G3, Velocity: 33
Note ON: Time 468000, Note Name: C#4, Velocity: 33
Note OFF: Time 468360, Note Name: C#4
Note OFF: Time 468360, Note Name: G3
Note OFF: Time 468360, Note Name: D#3
Note ON: Time 468480, Note Name: C#4, Velocity: 29
Note ON: Time 468480, Note Name: G3, Velocity: 29
Note ON: Time 468480, Note Name: D#3, Velocity: 29
Note OFF: Time 468840, Note Name: D#3
Note OFF: Time 468840, Note Name: G3
Note OFF: Time 468840, Note Name: C#4
Note ON: Time 468960, Note Name: D#3, Velocity: 29
Note ON: Time 468960, Note Name: G3, Velocity: 29
Note ON: Time 468960, Note Name: C#4, Velocity: 29
Note OFF: Time 469320, Note Name: C#4
Note OFF: Time 469320, Note Name: G3
Note OFF: Time 469320, Note Name: D#3
Note ON: Time 469440, Note Name: D#2, Velocity: 36
Note OFF: Time 469920, Note Name: D#2
Note ON: Time 469920, Note Name: G#3, Velocity: 31
Note ON: Time 469920, Note Name: C4, Velocity: 31
Note ON: Time 469920, Note Name: D#3, Velocity: 31
Note OFF: Time 470280, Note Name: D#3
Note OFF: Time 470280, Note Name: C4
Note OFF: Time 470280, Note Name: G#3
Note ON: Time 470400, Note Name: C4, Velocity: 31
Note ON: Time 470400, Note Name: D#3, Velocity: 31
Note ON: Time 470400, Note Name: G#3, Velocity: 31
Note OFF: Time 470760, Note Name: G#3
Note OFF: Time 470760, Note Name: D#3
Note OFF: Time 470760, Note Name: C4
Note ON: Time 470880, Note Name: D#2, Velocity: 36
Note OFF: Time 471360, Note Name: D#2
Note ON: Time 471360, Note Name: C4, Velocity: 33
Note ON: Time 471360, Note Name: D#3, Velocity: 33
Note ON: Time 471360, Note Name: G#3, Velocity: 33
Note OFF: Time 471720, Note Name: G#3
Note OFF: Time 471720, Note Name: D#3
Note OFF: Time 471720, Note Name: C4
Note ON: Time 471840, Note Name: C4, Velocity: 33
Note ON: Time 471840, Note Name: G#3, Velocity: 33
Note ON: Time 471840, Note Name: D#3, Velocity: 33
Note OFF: Time 472200, Note Name: D#3
Note OFF: Time 472200, Note Name: G#3
Note OFF: Time 472200, Note Name: C4
Note ON: Time 472320, Note Name: D#2, Velocity: 39
Note OFF: Time 472800, Note Name: D#2
Note ON: Time 472800, Note Name: C4, Velocity: 36
Note ON: Time 472800, Note Name: G#3, Velocity: 36
Note ON: Time 472800, Note Name: D#3, Velocity: 36
Note OFF: Time 473160, Note Name: D#3
Note OFF: Time 473160, Note Name: G#3
Note OFF: Time 473160, Note Name: C4
Note ON: Time 473280, Note Name: C4, Velocity: 33
Note ON: Time 473280, Note Name: G#3, Velocity: 33
Note ON: Time 473280, Note Name: D#3, Velocity: 33
Note OFF: Time 473640, Note Name: D#3
Note OFF: Time 473640, Note Name: G#3
Note OFF: Time 473640, Note Name: C4
Note ON: Time 473760, Note Name: D#3, Velocity: 36
Note ON: Time 473760, Note Name: G#3, Velocity: 36
Note ON: Time 473760, Note Name: C4, Velocity: 36
Note OFF: Time 474120, Note Name: C4
Note OFF: Time 474120, Note Name: G#3
Note OFF: Time 474120, Note Name: D#3
Note ON: Time 474240, Note Name: C4, Velocity: 31
Note ON: Time 474240, Note Name: G#3, Velocity: 31
Note ON: Time 474240, Note Name: D#3, Velocity: 31
Note OFF: Time 474600, Note Name: D#3
Note OFF: Time 474600, Note Name: G#3
Note OFF: Time 474600, Note Name: C4
Note ON: Time 474720, Note Name: D#3, Velocity: 31
Note ON: Time 474720, Note Name: G#3, Velocity: 31
Note ON: Time 474720, Note Name: C4, Velocity: 31
Note OFF: Time 475080, Note Name: C4
Note OFF: Time 475080, Note Name: G#3
Note OFF: Time 475080, Note Name: D#3
Note ON: Time 475200, Note Name: D#3, Velocity: 39
Note ON: Time 475200, Note Name: D#2, Velocity: 39
Note OFF: Time 475440, Note Name: D#2
Note OFF: Time 475440, Note Name: D#3
Note ON: Time 475440, Note Name: D#3, Velocity: 32
Note ON: Time 475440, Note Name: G#3, Velocity: 32
Note ON: Time 475440, Note Name: D4, Velocity: 32
Note OFF: Time 475620, Note Name: D4
Note OFF: Time 475620, Note Name: G#3
Note OFF: Time 475620, Note Name: D#3
Note ON: Time 475680, Note Name: D#3, Velocity: 34
Note ON: Time 475680, Note Name: G#3, Velocity: 34
Note ON: Time 475680, Note Name: D4, Velocity: 34
Note OFF: Time 475860, Note Name: D4
Note OFF: Time 475860, Note Name: G#3
Note OFF: Time 475860, Note Name: D#3
Note ON: Time 475920, Note Name: D#2, Velocity: 39
Note ON: Time 475920, Note Name: D#3, Velocity: 39
Note OFF: Time 476160, Note Name: D#3
Note OFF: Time 476160, Note Name: D#2
Note ON: Time 476160, Note Name: D#3, Velocity: 35
Note ON: Time 476160, Note Name: G#3, Velocity: 35
Note ON: Time 476160, Note Name: D4, Velocity: 35
Note OFF: Time 476340, Note Name: D4
Note OFF: Time 476340, Note Name: G#3
Note OFF: Time 476340, Note Name: D#3
Note ON: Time 476400, Note Name: D4, Velocity: 36
Note ON: Time 476400, Note Name: G#3, Velocity: 36
Note ON: Time 476400, Note Name: D#3, Velocity: 36
Note OFF: Time 476580, Note Name: D#3
Note OFF: Time 476580, Note Name: G#3
Note OFF: Time 476580, Note Name: D4
Note ON: Time 476640, Note Name: D#2, Velocity: 40
Note ON: Time 476640, Note Name: D#3, Velocity: 40
Note OFF: Time 476880, Note Name: D#3
Note OFF: Time 476880, Note Name: D#2
Note ON: Time 476880, Note Name: D4, Velocity: 39
Note ON: Time 476880, Note Name: B3, Velocity: 39
Note ON: Time 476880, Note Name: G#3, Velocity: 39
Note ON: Time 476880, Note Name: D#3, Velocity: 39
Note OFF: Time 477060, Note Name: D#3
Note OFF: Time 477060, Note Name: D4
Note OFF: Time 477060, Note Name: B3
Note OFF: Time 477060, Note Name: G#3
Note ON: Time 477120, Note Name: D4, Velocity: 44
Note ON: Time 477120, Note Name: B3, Velocity: 44
Note ON: Time 477120, Note Name: G#3, Velocity: 44
Note ON: Time 477120, Note Name: D#3, Velocity: 44
Note OFF: Time 477300, Note Name: D#3
Note OFF: Time 477300, Note Name: D4
Note OFF: Time 477300, Note Name: B3
Note OFF: Time 477300, Note Name: G#3
Note ON: Time 477360, Note Name: D4, Velocity: 46
Note ON: Time 477360, Note Name: B3, Velocity: 46
Note ON: Time 477360, Note Name: G#3, Velocity: 46
Note ON: Time 477360, Note Name: D#3, Velocity: 46
Note OFF: Time 477540, Note Name: D#3
Note OFF: Time 477540, Note Name: D4
Note OFF: Time 477540, Note Name: B3
Note OFF: Time 477540, Note Name: G#3
Note ON: Time 477600, Note Name: D4, Velocity: 46
Note ON: Time 477600, Note Name: B3, Velocity: 46
Note ON: Time 477600, Note Name: G#3, Velocity: 46
Note ON: Time 477600, Note Name: D#3, Velocity: 46
Note OFF: Time 477780, Note Name: D#3
Note OFF: Time 477780, Note Name: D4
Note OFF: Time 477780, Note Name: B3
Note OFF: Time 477780, Note Name: G#3
Note ON: Time 477840, Note Name: D4, Velocity: 50
Note ON: Time 477840, Note Name: B3, Velocity: 50
Note ON: Time 477840, Note Name: G#3, Velocity: 50
Note ON: Time 477840, Note Name: D#3, Velocity: 50
Note OFF: Time 478020, Note Name: D#3
Note OFF: Time 478020, Note Name: D4
Note OFF: Time 478020, Note Name: B3
Note OFF: Time 478020, Note Name: G#3
Note ON: Time 478080, Note Name: D4, Velocity: 47
Note ON: Time 478080, Note Name: B3, Velocity: 47
Note ON: Time 478080, Note Name: G#3, Velocity: 47
Note ON: Time 478080, Note Name: D#3, Velocity: 47
Note OFF: Time 478260, Note Name: D#3
Note OFF: Time 478260, Note Name: D4
Note OFF: Time 478260, Note Name: B3
Note OFF: Time 478260, Note Name: G#3
Note ON: Time 478320, Note Name: D4, Velocity: 38
Note ON: Time 478320, Note Name: B3, Velocity: 38
Note ON: Time 478320, Note Name: G#3, Velocity: 38
Note ON: Time 478320, Note Name: D#3, Velocity: 38
Note OFF: Time 478500, Note Name: D#3
Note OFF: Time 478500, Note Name: D4
Note OFF: Time 478500, Note Name: B3
Note OFF: Time 478500, Note Name: G#3
Note ON: Time 478560, Note Name: D4, Velocity: 45
Note ON: Time 478560, Note Name: B3, Velocity: 45
Note ON: Time 478560, Note Name: G#3, Velocity: 45
Note ON: Time 478560, Note Name: D#3, Velocity: 45
Note OFF: Time 478740, Note Name: D#3
Note OFF: Time 478740, Note Name: D4
Note OFF: Time 478740, Note Name: B3
Note OFF: Time 478740, Note Name: G#3
Note ON: Time 478800, Note Name: D4, Velocity: 47
Note ON: Time 478800, Note Name: B3, Velocity: 47
Note ON: Time 478800, Note Name: G#3, Velocity: 47
Note ON: Time 478800, Note Name: D#3, Velocity: 47
Note OFF: Time 478980, Note Name: D#3
Note OFF: Time 478980, Note Name: D4
Note OFF: Time 478980, Note Name: B3
Note OFF: Time 478980, Note Name: G#3
Note ON: Time 479040, Note Name: D4, Velocity: 38
Note ON: Time 479040, Note Name: B3, Velocity: 38
Note ON: Time 479040, Note Name: G#3, Velocity: 38
Note ON: Time 479040, Note Name: D#3, Velocity: 38
Note OFF: Time 479220, Note Name: D#3
Note OFF: Time 479220, Note Name: D4
Note OFF: Time 479220, Note Name: B3
Note OFF: Time 479220, Note Name: G#3
Note ON: Time 479280, Note Name: D4, Velocity: 45
Note ON: Time 479280, Note Name: B3, Velocity: 45
Note ON: Time 479280, Note Name: G#3, Velocity: 45
Note ON: Time 479280, Note Name: D#3, Velocity: 45
Note OFF: Time 479460, Note Name: D#3
Note OFF: Time 479460, Note Name: D4
Note OFF: Time 479460, Note Name: B3
Note OFF: Time 479460, Note Name: G#3
Note ON: Time 479520, Note Name: D4, Velocity: 45
Note ON: Time 479520, Note Name: A#3, Velocity: 45
Note ON: Time 479520, Note Name: G#3, Velocity: 45
Note ON: Time 479520, Note Name: D#3, Velocity: 45
Note OFF: Time 479700, Note Name: D#3
Note OFF: Time 479700, Note Name: D4
Note OFF: Time 479700, Note Name: A#3
Note OFF: Time 479700, Note Name: G#3
Note ON: Time 479760, Note Name: D4, Velocity: 43
Note ON: Time 479760, Note Name: A#3, Velocity: 43
Note ON: Time 479760, Note Name: G#3, Velocity: 43
Note ON: Time 479760, Note Name: D#3, Velocity: 43
Note OFF: Time 479940, Note Name: D#3
Note OFF: Time 479940, Note Name: D4
Note OFF: Time 479940, Note Name: A#3
Note OFF: Time 479940, Note Name: G#3
Note ON: Time 480000, Note Name: D4, Velocity: 48
Note ON: Time 480000, Note Name: A#3, Velocity: 48
Note ON: Time 480000, Note Name: G#3, Velocity: 48
Note ON: Time 480000, Note Name: D#3, Velocity: 48
Note OFF: Time 480180, Note Name: D#3
Note OFF: Time 480180, Note Name: D4
Note OFF: Time 480180, Note Name: A#3
Note OFF: Time 480180, Note Name: G#3
Note ON: Time 480240, Note Name: D4, Velocity: 49
Note ON: Time 480240, Note Name: A#3, Velocity: 49
Note ON: Time 480240, Note Name: G#3, Velocity: 49
Note ON: Time 480240, Note Name: D#3, Velocity: 49
Note OFF: Time 480420, Note Name: D#3
Note OFF: Time 480420, Note Name: D4
Note OFF: Time 480420, Note Name: A#3
Note OFF: Time 480420, Note Name: G#3
Note ON: Time 480480, Note Name: D4, Velocity: 46
Note ON: Time 480480, Note Name: A#3, Velocity: 46
Note ON: Time 480480, Note Name: G#3, Velocity: 46
Note ON: Time 480480, Note Name: D#3, Velocity: 46
Note OFF: Time 480660, Note Name: D#3
Note OFF: Time 480660, Note Name: D4
Note OFF: Time 480660, Note Name: A#3
Note OFF: Time 480660, Note Name: G#3
Note ON: Time 480720, Note Name: D4, Velocity: 52
Note ON: Time 480720, Note Name: A#3, Velocity: 52
Note ON: Time 480720, Note Name: G#3, Velocity: 52
Note ON: Time 480720, Note Name: D#3, Velocity: 52
Note OFF: Time 480900, Note Name: D#3
Note OFF: Time 480900, Note Name: D4
Note OFF: Time 480900, Note Name: A#3
Note OFF: Time 480900, Note Name: G#3
Note ON: Time 480960, Note Name: D#2, Velocity: 96
Note ON: Time 480960, Note Name: D#3, Velocity: 96
Note OFF: Time 481080, Note Name: D#3
Note OFF: Time 481080, Note Name: D#2
Note ON: Time 481200, Note Name: C#4, Velocity: 74
Note ON: Time 481200, Note Name: D#4, Velocity: 74
Note ON: Time 481200, Note Name: G4, Velocity: 74
Note ON: Time 481200, Note Name: A#4, Velocity: 74
Note OFF: Time 481380, Note Name: A#4
Note OFF: Time 481380, Note Name: C#4
Note OFF: Time 481380, Note Name: D#4
Note OFF: Time 481380, Note Name: G4
Note ON: Time 481440, Note Name: D#4, Velocity: 80
Note ON: Time 481440, Note Name: C#4, Velocity: 80
Note ON: Time 481440, Note Name: G4, Velocity: 80
Note ON: Time 481440, Note Name: A#4, Velocity: 80
Note OFF: Time 481620, Note Name: A#4
Note OFF: Time 481620, Note Name: D#4
Note OFF: Time 481620, Note Name: C#4
Note OFF: Time 481620, Note Name: G4
Note ON: Time 481680, Note Name: D#2, Velocity: 96
Note ON: Time 481680, Note Name: D#3, Velocity: 96
Note OFF: Time 481800, Note Name: D#3
Note OFF: Time 481800, Note Name: D#2
Note ON: Time 481920, Note Name: A4, Velocity: 76
Note ON: Time 481920, Note Name: F#4, Velocity: 76
Note ON: Time 481920, Note Name: D#4, Velocity: 76
Note ON: Time 481920, Note Name: C4, Velocity: 76
Note OFF: Time 482100, Note Name: C4
Note OFF: Time 482100, Note Name: A4
Note OFF: Time 482100, Note Name: F#4
Note OFF: Time 482100, Note Name: D#4
Note ON: Time 482160, Note Name: A4, Velocity: 81
Note ON: Time 482160, Note Name: F#4, Velocity: 81
Note ON: Time 482160, Note Name: D#4, Velocity: 81
Note ON: Time 482160, Note Name: C4, Velocity: 81
Note OFF: Time 482340, Note Name: C4
Note OFF: Time 482340, Note Name: A4
Note OFF: Time 482340, Note Name: F#4
Note OFF: Time 482340, Note Name: D#4
Note ON: Time 482400, Note Name: D#2, Velocity: 96
Note ON: Time 482400, Note Name: D#3, Velocity: 96
Note OFF: Time 482520, Note Name: D#3
Note OFF: Time 482520, Note Name: D#2
Note ON: Time 482640, Note Name: B3, Velocity: 78
Note ON: Time 482640, Note Name: D#4, Velocity: 78
Note ON: Time 482640, Note Name: F4, Velocity: 78
Note ON: Time 482640, Note Name: G#4, Velocity: 78
Note OFF: Time 482820, Note Name: G#4
Note OFF: Time 482820, Note Name: B3
Note OFF: Time 482820, Note Name: D#4
Note OFF: Time 482820, Note Name: F4
Note ON: Time 482880, Note Name: B3, Velocity: 83
Note ON: Time 482880, Note Name: D#4, Velocity: 83
Note ON: Time 482880, Note Name: F4, Velocity: 83
Note ON: Time 482880, Note Name: G#4, Velocity: 83
Note OFF: Time 483060, Note Name: G#4
Note OFF: Time 483060, Note Name: B3
Note OFF: Time 483060, Note Name: D#4
Note OFF: Time 483060, Note Name: F4
Note ON: Time 483120, Note Name: D#2, Velocity: 98
Note ON: Time 483120, Note Name: D#3, Velocity: 98
Note OFF: Time 483360, Note Name: D#3
Note OFF: Time 483360, Note Name: D#2
Note ON: Time 483360, Note Name: G4, Velocity: 78
Note ON: Time 483360, Note Name: D#4, Velocity: 78
Note ON: Time 483360, Note Name: A#3, Velocity: 78
Note ON: Time 483360, Note Name: G3, Velocity: 78
Note OFF: Time 483600, Note Name: G3
Note OFF: Time 483600, Note Name: G4
Note OFF: Time 483600, Note Name: D#4
Note OFF: Time 483600, Note Name: A#3
Note ON: Time 483600, Note Name: G4, Velocity: 84
Note ON: Time 483600, Note Name: D#4, Velocity: 84
Note ON: Time 483600, Note Name: A#3, Velocity: 84
Note ON: Time 483600, Note Name: G3, Velocity: 84
Note OFF: Time 483840, Note Name: G3
Note OFF: Time 483840, Note Name: G4
Note OFF: Time 483840, Note Name: D#4
Note OFF: Time 483840, Note Name: A#3
Note ON: Time 483840, Note Name: A#1, Velocity: 97
Note ON: Time 483840, Note Name: A#2, Velocity: 97
Note OFF: Time 484080, Note Name: A#2
Note OFF: Time 484080, Note Name: A#1
Note ON: Time 484080, Note Name: F4, Velocity: 78
Note ON: Time 484080, Note Name: D4, Velocity: 78
Note ON: Time 484080, Note Name: A#3, Velocity: 78
Note ON: Time 484080, Note Name: G#3, Velocity: 78
Note OFF: Time 484260, Note Name: G#3
Note OFF: Time 484260, Note Name: F4
Note OFF: Time 484260, Note Name: D4
Note OFF: Time 484260, Note Name: A#3
Note ON: Time 484320, Note Name: F4, Velocity: 84
Note ON: Time 484320, Note Name: D4, Velocity: 84
Note ON: Time 484320, Note Name: A#3, Velocity: 84
Note ON: Time 484320, Note Name: G#3, Velocity: 84
Note OFF: Time 484440, Note Name: G#3
Note OFF: Time 484440, Note Name: F4
Note OFF: Time 484440, Note Name: D4
Note OFF: Time 484440, Note Name: A#3
Note ON: Time 484560, Note Name: D#2, Velocity: 85
Note ON: Time 484560, Note Name: D#3, Velocity: 85
Note OFF: Time 484800, Note Name: D#3
Note OFF: Time 484800, Note Name: D#2
Note ON: Time 484800, Note Name: D#4, Velocity: 71
Note ON: Time 484800, Note Name: A#3, Velocity: 71
Note ON: Time 484800, Note Name: G3, Velocity: 71
Note OFF: Time 484980, Note Name: G3
Note OFF: Time 484980, Note Name: A#3
Note OFF: Time 484980, Note Name: D#4
Note ON: Time 485040, Note Name: D#4, Velocity: 66
Note ON: Time 485040, Note Name: A#3, Velocity: 66
Note ON: Time 485040, Note Name: G3, Velocity: 66
Note OFF: Time 485160, Note Name: G3
Note OFF: Time 485160, Note Name: A#3
Note OFF: Time 485160, Note Name: D#4
Note ON: Time 485280, Note Name: A#2, Velocity: 67
Note ON: Time 485280, Note Name: A#3, Velocity: 67
Note OFF: Time 485520, Note Name: A#3
Note OFF: Time 485520, Note Name: A#2
Note ON: Time 485520, Note Name: D4, Velocity: 53
Note ON: Time 485520, Note Name: G#3, Velocity: 53
Note ON: Time 485520, Note Name: A#3, Velocity: 53
Note ON: Time 485520, Note Name: F3, Velocity: 53
Note OFF: Time 485700, Note Name: F3
Note OFF: Time 485700, Note Name: D4
Note OFF: Time 485700, Note Name: G#3
Note OFF: Time 485700, Note Name: A#3
Note ON: Time 485760, Note Name: D4, Velocity: 56
Note ON: Time 485760, Note Name: A#3, Velocity: 56
Note ON: Time 485760, Note Name: G#3, Velocity: 56
Note ON: Time 485760, Note Name: F3, Velocity: 56
Note OFF: Time 485880, Note Name: F3
Note OFF: Time 485880, Note Name: D4
Note OFF: Time 485880, Note Name: A#3
Note OFF: Time 485880, Note Name: G#3
Note ON: Time 486000, Note Name: D#2, Velocity: 63
Note ON: Time 486000, Note Name: D#3, Velocity: 63
Note OFF: Time 486240, Note Name: D#3
Note OFF: Time 486240, Note Name: D#2
Note ON: Time 486240, Note Name: C#4, Velocity: 42
Note ON: Time 486240, Note Name: A#3, Velocity: 42
Note ON: Time 486240, Note Name: D#3, Velocity: 42
Note OFF: Time 486420, Note Name: D#3
Note OFF: Time 486420, Note Name: A#3
Note OFF: Time 486420, Note Name: C#4
Note ON: Time 486480, Note Name: C#4, Velocity: 49
Note ON: Time 486480, Note Name: A#3, Velocity: 49
Note ON: Time 486480, Note Name: D#3, Velocity: 49
Note OFF: Time 486600, Note Name: D#3
Note OFF: Time 486600, Note Name: A#3
Note OFF: Time 486600, Note Name: C#4
Note ON: Time 486720, Note Name: G#2, Velocity: 62
Note ON: Time 486720, Note Name: G#3, Velocity: 62
Note OFF: Time 486960, Note Name: G#3
Note OFF: Time 486960, Note Name: G#2
Note ON: Time 486960, Note Name: C4, Velocity: 47
Note ON: Time 486960, Note Name: G#3, Velocity: 47
Note ON: Time 486960, Note Name: D#3, Velocity: 47
Note OFF: Time 487140, Note Name: D#3
Note OFF: Time 487140, Note Name: G#3
Note OFF: Time 487140, Note Name: C4
Note ON: Time 487200, Note Name: C4, Velocity: 51
Note ON: Time 487200, Note Name: G#3, Velocity: 51
Note ON: Time 487200, Note Name: D#3, Velocity: 51
Note OFF: Time 487320, Note Name: D#3
Note OFF: Time 487320, Note Name: G#3
Note OFF: Time 487320, Note Name: C4
Note ON: Time 487440, Note Name: G#2, Velocity: 59
Note ON: Time 487440, Note Name: G#3, Velocity: 59
Note OFF: Time 487680, Note Name: G#3
Note OFF: Time 487680, Note Name: G#2
Note ON: Time 487680, Note Name: B3, Velocity: 45
Note ON: Time 487680, Note Name: G#3, Velocity: 45
Note ON: Time 487680, Note Name: D#3, Velocity: 45
Note OFF: Time 487860, Note Name: D#3
Note OFF: Time 487860, Note Name: G#3
Note OFF: Time 487860, Note Name: B3
Note ON: Time 487920, Note Name: B3, Velocity: 48
Note ON: Time 487920, Note Name: G#3, Velocity: 48
Note ON: Time 487920, Note Name: D#3, Velocity: 48
Note OFF: Time 488040, Note Name: D#3
Note OFF: Time 488040, Note Name: G#3
Note OFF: Time 488040, Note Name: B3
Note ON: Time 488160, Note Name: D#2, Velocity: 56
Note OFF: Time 488400, Note Name: D#2
Note ON: Time 488400, Note Name: A#2, Velocity: 45
Note ON: Time 488400, Note Name: D#3, Velocity: 45
Note ON: Time 488400, Note Name: G3, Velocity: 45
Note OFF: Time 488580, Note Name: G3
Note OFF: Time 488580, Note Name: D#3
Note OFF: Time 488580, Note Name: A#2
Note ON: Time 488640, Note Name: A#2, Velocity: 48
Note ON: Time 488640, Note Name: D#3, Velocity: 48
Note ON: Time 488640, Note Name: G3, Velocity: 48
Note OFF: Time 488760, Note Name: G3
Note OFF: Time 488760, Note Name: D#3
Note OFF: Time 488760, Note Name: A#2
Note ON: Time 488880, Note Name: D#2, Velocity: 52
Note OFF: Time 489120, Note Name: D#2
Note ON: Time 489120, Note Name: A#2, Velocity: 41
Note ON: Time 489120, Note Name: D#3, Velocity: 41
Note ON: Time 489120, Note Name: G3, Velocity: 41
Note OFF: Time 489300, Note Name: G3
Note OFF: Time 489300, Note Name: D#3
Note OFF: Time 489300, Note Name: A#2
Note ON: Time 489360, Note Name: A#2, Velocity: 45
Note ON: Time 489360, Note Name: D#3, Velocity: 45
Note ON: Time 489360, Note Name: G3, Velocity: 45
Note OFF: Time 489540, Note Name: G3
Note OFF: Time 489540, Note Name: D#3
Note OFF: Time 489540, Note Name: A#2
Note ON: Time 489600, Note Name: D#2, Velocity: 48
Note OFF: Time 489840, Note Name: D#2
Note ON: Time 489840, Note Name: G#3, Velocity: 38
Note ON: Time 489840, Note Name: D3, Velocity: 38
Note ON: Time 489840, Note Name: A#2, Velocity: 38
Note OFF: Time 490020, Note Name: A#2
Note OFF: Time 490020, Note Name: D3
Note OFF: Time 490020, Note Name: G#3
Note ON: Time 490080, Note Name: A#2, Velocity: 44
Note ON: Time 490080, Note Name: D3, Velocity: 44
Note ON: Time 490080, Note Name: G#3, Velocity: 44
Note OFF: Time 490200, Note Name: G#3
Note OFF: Time 490200, Note Name: D3
Note OFF: Time 490200, Note Name: A#2
Note ON: Time 490320, Note Name: D#2, Velocity: 46
Note OFF: Time 490560, Note Name: D#2
Note ON: Time 490560, Note Name: A#2, Velocity: 38
Note ON: Time 490560, Note Name: D#3, Velocity: 38
Note ON: Time 490560, Note Name: G3, Velocity: 38
Note OFF: Time 490740, Note Name: G3
Note OFF: Time 490740, Note Name: D#3
Note OFF: Time 490740, Note Name: A#2
Note ON: Time 490800, Note Name: G3, Velocity: 41
Note ON: Time 490800, Note Name: D#3, Velocity: 41
Note ON: Time 490800, Note Name: A#2, Velocity: 41
Note OFF: Time 490920, Note Name: A#2
Note OFF: Time 490920, Note Name: D#3
Note OFF: Time 490920, Note Name: G3
Note ON: Time 491040, Note Name: D#2, Velocity: 46
Note OFF: Time 491280, Note Name: D#2
Note ON: Time 491280, Note Name: G#3, Velocity: 31
Note ON: Time 491280, Note Name: F3, Velocity: 31
Note ON: Time 491280, Note Name: A#2, Velocity: 31
Note OFF: Time 491460, Note Name: A#2
Note OFF: Time 491460, Note Name: F3
Note OFF: Time 491460, Note Name: G#3
Note ON: Time 491520, Note Name: A#2, Velocity: 39
Note ON: Time 491520, Note Name: F3, Velocity: 39
Note ON: Time 491520, Note Name: G#3, Velocity: 39
Note OFF: Time 491700, Note Name: G#3
Note OFF: Time 491700, Note Name: F3
Note OFF: Time 491700, Note Name: A#2
Note ON: Time 491760, Note Name: D#2, Velocity: 43
Note OFF: Time 492000, Note Name: D#2
Note ON: Time 492000, Note Name: A#2, Velocity: 29
Note ON: Time 492000, Note Name: D#3, Velocity: 29
Note ON: Time 492000, Note Name: G3, Velocity: 29
Note OFF: Time 492180, Note Name: G3
Note OFF: Time 492180, Note Name: D#3
Note OFF: Time 492180, Note Name: A#2
Note ON: Time 492240, Note Name: G3, Velocity: 34
Note ON: Time 492240, Note Name: D#3, Velocity: 34
Note ON: Time 492240, Note Name: A#2, Velocity: 34
Note OFF: Time 492360, Note Name: A#2
Note OFF: Time 492360, Note Name: D#3
Note OFF: Time 492360, Note Name: G3
Note ON: Time 492480, Note Name: D#2, Velocity: 48
Note OFF: Time 492720, Note Name: D#2
Note ON: Time 492720, Note Name: G#3, Velocity: 38
Note ON: Time 492720, Note Name: D3, Velocity: 38
Note ON: Time 492720, Note Name: A#2, Velocity: 38
Note OFF: Time 492900, Note Name: A#2
Note OFF: Time 492900, Note Name: D3
Note OFF: Time 492900, Note Name: G#3
Note ON: Time 492960, Note Name: A#2, Velocity: 44
Note ON: Time 492960, Note Name: D3, Velocity: 44
Note ON: Time 492960, Note Name: G#3, Velocity: 44
Note OFF: Time 493080, Note Name: G#3
Note OFF: Time 493080, Note Name: D3
Note OFF: Time 493080, Note Name: A#2
Note ON: Time 493200, Note Name: D#2, Velocity: 46
Note OFF: Time 493440, Note Name: D#2
Note ON: Time 493440, Note Name: A#2, Velocity: 37
Note ON: Time 493440, Note Name: D#3, Velocity: 37
Note ON: Time 493440, Note Name: G3, Velocity: 37
Note OFF: Time 493620, Note Name: G3
Note OFF: Time 493620, Note Name: D#3
Note OFF: Time 493620, Note Name: A#2
Note ON: Time 493680, Note Name: G3, Velocity: 41
Note ON: Time 493680, Note Name: D#3, Velocity: 41
Note ON: Time 493680, Note Name: A#2, Velocity: 41
Note OFF: Time 493800, Note Name: A#2
Note OFF: Time 493800, Note Name: D#3
Note OFF: Time 493800, Note Name: G3
Note ON: Time 493920, Note Name: D#2, Velocity: 46
Note OFF: Time 494160, Note Name: D#2
Note ON: Time 494160, Note Name: G#3, Velocity: 36
Note ON: Time 494160, Note Name: F3, Velocity: 36
Note ON: Time 494160, Note Name: A#2, Velocity: 36
Note OFF: Time 494340, Note Name: A#2
Note OFF: Time 494340, Note Name: F3
Note OFF: Time 494340, Note Name: G#3
Note ON: Time 494400, Note Name: A#2, Velocity: 39
Note ON: Time 494400, Note Name: F3, Velocity: 39
Note ON: Time 494400, Note Name: G#3, Velocity: 39
Note OFF: Time 494580, Note Name: G#3
Note OFF: Time 494580, Note Name: F3
Note OFF: Time 494580, Note Name: A#2
Note ON: Time 494640, Note Name: D#2, Velocity: 43
Note OFF: Time 494880, Note Name: D#2
Note ON: Time 494880, Note Name: A#2, Velocity: 33
Note ON: Time 494880, Note Name: D#3, Velocity: 33
Note ON: Time 494880, Note Name: G3, Velocity: 33
Note OFF: Time 495060, Note Name: G3
Note OFF: Time 495060, Note Name: D#3
Note OFF: Time 495060, Note Name: A#2
Note ON: Time 495120, Note Name: G3, Velocity: 36
Note ON: Time 495120, Note Name: D#3, Velocity: 36
Note ON: Time 495120, Note Name: A#2, Velocity: 36
Note OFF: Time 495240, Note Name: A#2
Note OFF: Time 495240, Note Name: D#3
Note OFF: Time 495240, Note Name: G3
Note ON: Time 495360, Note Name: D#2, Velocity: 46
Note OFF: Time 495600, Note Name: D#2
Note ON: Time 495600, Note Name: G#3, Velocity: 40
Note ON: Time 495600, Note Name: F3, Velocity: 40
Note ON: Time 495600, Note Name: A#2, Velocity: 40
Note OFF: Time 495780, Note Name: A#2
Note OFF: Time 495780, Note Name: F3
Note OFF: Time 495780, Note Name: G#3
Note ON: Time 495840, Note Name: A#2, Velocity: 43
Note ON: Time 495840, Note Name: F3, Velocity: 43
Note ON: Time 495840, Note Name: G#3, Velocity: 43
Note OFF: Time 496020, Note Name: G#3
Note OFF: Time 496020, Note Name: F3
Note OFF: Time 496020, Note Name: A#2
Note ON: Time 496080, Note Name: D#2, Velocity: 48
Note OFF: Time 496320, Note Name: D#2
Note ON: Time 496320, Note Name: A#2, Velocity: 42
Note ON: Time 496320, Note Name: F3, Velocity: 42
Note ON: Time 496320, Note Name: G#3, Velocity: 42
Note OFF: Time 496500, Note Name: G#3
Note OFF: Time 496500, Note Name: F3
Note OFF: Time 496500, Note Name: A#2
Note ON: Time 496560, Note Name: G#3, Velocity: 44
Note ON: Time 496560, Note Name: F3, Velocity: 44
Note ON: Time 496560, Note Name: A#2, Velocity: 44
Note OFF: Time 496680, Note Name: A#2
Note OFF: Time 496680, Note Name: F3
Note OFF: Time 496680, Note Name: G#3
Note ON: Time 496800, Note Name: D#2, Velocity: 56
Note OFF: Time 497040, Note Name: D#2
Note ON: Time 497040, Note Name: A#2, Velocity: 49
Note ON: Time 497040, Note Name: F3, Velocity: 49
Note ON: Time 497040, Note Name: G#3, Velocity: 49
Note OFF: Time 497220, Note Name: G#3
Note OFF: Time 497220, Note Name: F3
Note OFF: Time 497220, Note Name: A#2
Note ON: Time 497280, Note Name: G#3, Velocity: 51
Note ON: Time 497280, Note Name: F3, Velocity: 51
Note ON: Time 497280, Note Name: A#2, Velocity: 51
Note OFF: Time 497400, Note Name: A#2
Note OFF: Time 497400, Note Name: F3
Note OFF: Time 497400, Note Name: G#3
Note ON: Time 497520, Note Name: D#2, Velocity: 67
Note OFF: Time 497760, Note Name: D#2
Note ON: Time 497760, Note Name: A#2, Velocity: 56
Note ON: Time 497760, Note Name: F3, Velocity: 56
Note ON: Time 497760, Note Name: G#3, Velocity: 56
Note OFF: Time 497940, Note Name: G#3
Note OFF: Time 497940, Note Name: F3
Note OFF: Time 497940, Note Name: A#2
Note ON: Time 498000, Note Name: G#3, Velocity: 60
Note ON: Time 498000, Note Name: F3, Velocity: 60
Note ON: Time 498000, Note Name: A#2, Velocity: 60
Note OFF: Time 498120, Note Name: A#2
Note OFF: Time 498120, Note Name: F3
Note OFF: Time 498120, Note Name: G#3
Note ON: Time 498240, Note Name: D#2, Velocity: 67
Note ON: Time 498240, Note Name: D#3, Velocity: 67
Note OFF: Time 498480, Note Name: D#3
Note OFF: Time 498480, Note Name: D#2
Note ON: Time 498480, Note Name: D4, Velocity: 61
Note ON: Time 498480, Note Name: B3, Velocity: 61
Note ON: Time 498480, Note Name: G#3, Velocity: 61
Note ON: Time 498480, Note Name: D#3, Velocity: 61
Note OFF: Time 498720, Note Name: D#3
Note OFF: Time 498720, Note Name: D4
Note OFF: Time 498720, Note Name: B3
Note OFF: Time 498720, Note Name: G#3
Note ON: Time 498960, Note Name: D4, Velocity: 63
Note ON: Time 498960, Note Name: B3, Velocity: 63
Note ON: Time 498960, Note Name: G#3, Velocity: 63
Note ON: Time 498960, Note Name: D#3, Velocity: 63
Note OFF: Time 499140, Note Name: D#3
Note OFF: Time 499140, Note Name: D4
Note OFF: Time 499140, Note Name: B3
Note OFF: Time 499140, Note Name: G#3
Note ON: Time 499200, Note Name: D4, Velocity: 58
Note ON: Time 499200, Note Name: B3, Velocity: 58
Note ON: Time 499200, Note Name: G#3, Velocity: 58
Note ON: Time 499200, Note Name: D#3, Velocity: 58
Note OFF: Time 499380, Note Name: D#3
Note OFF: Time 499380, Note Name: D4
Note OFF: Time 499380, Note Name: B3
Note OFF: Time 499380, Note Name: G#3
Note ON: Time 499680, Note Name: D4, Velocity: 63
Note ON: Time 499680, Note Name: B3, Velocity: 63
Note ON: Time 499680, Note Name: G#3, Velocity: 63
Note ON: Time 499680, Note Name: D#3, Velocity: 63
Note OFF: Time 499860, Note Name: D#3
Note OFF: Time 499860, Note Name: D4
Note OFF: Time 499860, Note Name: B3
Note OFF: Time 499860, Note Name: G#3
Note ON: Time 499920, Note Name: D4, Velocity: 60
Note ON: Time 499920, Note Name: B3, Velocity: 60
Note ON: Time 499920, Note Name: G#3, Velocity: 60
Note ON: Time 499920, Note Name: D#3, Velocity: 60
Note OFF: Time 500100, Note Name: D#3
Note OFF: Time 500100, Note Name: D4
Note OFF: Time 500100, Note Name: B3
Note OFF: Time 500100, Note Name: G#3
Note ON: Time 501120, Note Name: D#1, Velocity: 67
Note ON: Time 501120, Note Name: D#2, Velocity: 67
Note OFF: Time 501240, Note Name: D#2
Note OFF: Time 501240, Note Name: D#1
Note ON: Time 502800, Note Name: D#4, Velocity: 33
Note ON: Time 502800, Note Name: A#3, Velocity: 33
Note ON: Time 502800, Note Name: G3, Velocity: 33
Note OFF: Time 502980, Note Name: G3
Note OFF: Time 502980, Note Name: A#3
Note OFF: Time 502980, Note Name: D#4
Note ON: Time 503040, Note Name: G4, Velocity: 33
Note ON: Time 503040, Note Name: D#4, Velocity: 33
Note ON: Time 503040, Note Name: A#3, Velocity: 33
Note ON: Time 503040, Note Name: G3, Velocity: 33
Note OFF: Time 503220, Note Name: G3
Note OFF: Time 503220, Note Name: G4
Note OFF: Time 503220, Note Name: D#4
Note OFF: Time 503220, Note Name: A#3
Note ON: Time 503280, Note Name: G4, Velocity: 36
Note ON: Time 503280, Note Name: D#4, Velocity: 36
Note ON: Time 503280, Note Name: A#3, Velocity: 36
Note ON: Time 503280, Note Name: G3, Velocity: 36
Note OFF: Time 503460, Note Name: G3
Note OFF: Time 503460, Note Name: G4
Note OFF: Time 503460, Note Name: D#4
Note OFF: Time 503460, Note Name: A#3
Note ON: Time 503520, Note Name: G4, Velocity: 33
Note ON: Time 503520, Note Name: D#4, Velocity: 33
Note ON: Time 503520, Note Name: A#3, Velocity: 33
Note ON: Time 503520, Note Name: G3, Velocity: 33
Note OFF: Time 503700, Note Name: G3
Note OFF: Time 503700, Note Name: G4
Note OFF: Time 503700, Note Name: D#4
Note OFF: Time 503700, Note Name: A#3
Note ON: Time 503760, Note Name: G4, Velocity: 33
Note ON: Time 503760, Note Name: D#4, Velocity: 33
Note ON: Time 503760, Note Name: A#3, Velocity: 33
Note ON: Time 503760, Note Name: G3, Velocity: 33
Note OFF: Time 503940, Note Name: G3
Note OFF: Time 503940, Note Name: G4
Note OFF: Time 503940, Note Name: D#4
Note OFF: Time 503940, Note Name: A#3
Note ON: Time 504000, Note Name: G4, Velocity: 33
Note ON: Time 504000, Note Name: D#4, Velocity: 33
Note ON: Time 504000, Note Name: A#3, Velocity: 33
Note ON: Time 504000, Note Name: G3, Velocity: 33
Note OFF: Time 504180, Note Name: G3
Note OFF: Time 504180, Note Name: G4
Note OFF: Time 504180, Note Name: D#4
Note OFF: Time 504180, Note Name: A#3
Note ON: Time 504240, Note Name: G4, Velocity: 30
Note ON: Time 504240, Note Name: D#4, Velocity: 30
Note ON: Time 504240, Note Name: A#3, Velocity: 30
Note ON: Time 504240, Note Name: G3, Velocity: 30
Note OFF: Time 504420, Note Name: G3
Note OFF: Time 504420, Note Name: G4
Note OFF: Time 504420, Note Name: D#4
Note OFF: Time 504420, Note Name: A#3
Note ON: Time 504480, Note Name: G4, Velocity: 30
Note ON: Time 504480, Note Name: D#4, Velocity: 30
Note ON: Time 504480, Note Name: A#3, Velocity: 30
Note ON: Time 504480, Note Name: G3, Velocity: 30
Note OFF: Time 504660, Note Name: G3
Note OFF: Time 504660, Note Name: G4
Note OFF: Time 504660, Note Name: D#4
Note OFF: Time 504660, Note Name: A#3
Note ON: Time 504720, Note Name: G4, Velocity: 33
Note ON: Time 504720, Note Name: D#4, Velocity: 33
Note ON: Time 504720, Note Name: A#3, Velocity: 33
Note ON: Time 504720, Note Name: G3, Velocity: 33
Note OFF: Time 504900, Note Name: G3
Note OFF: Time 504900, Note Name: G4
Note OFF: Time 504900, Note Name: D#4
Note OFF: Time 504900, Note Name: A#3
Note ON: Time 504960, Note Name: G4, Velocity: 29
Note ON: Time 504960, Note Name: D#4, Velocity: 29
Note ON: Time 504960, Note Name: A#3, Velocity: 29
Note ON: Time 504960, Note Name: G3, Velocity: 29
Note OFF: Time 505140, Note Name: G3
Note OFF: Time 505140, Note Name: G4
Note OFF: Time 505140, Note Name: D#4
Note OFF: Time 505140, Note Name: A#3
Note ON: Time 505200, Note Name: G4, Velocity: 29
Note ON: Time 505200, Note Name: D#4, Velocity: 29
Note ON: Time 505200, Note Name: A#3, Velocity: 29
Note ON: Time 505200, Note Name: G3, Velocity: 29
Note OFF: Time 505380, Note Name: G3
Note OFF: Time 505380, Note Name: G4
Note OFF: Time 505380, Note Name: D#4
Note OFF: Time 505380, Note Name: A#3
Note ON: Time 505440, Note Name: G4, Velocity: 33
Note ON: Time 505440, Note Name: D#4, Velocity: 33
Note ON: Time 505440, Note Name: A#3, Velocity: 33
Note ON: Time 505440, Note Name: G3, Velocity: 33
Note OFF: Time 505620, Note Name: G3
Note OFF: Time 505620, Note Name: G4
Note OFF: Time 505620, Note Name: D#4
Note OFF: Time 505620, Note Name: A#3
Note ON: Time 505680, Note Name: G4, Velocity: 31
Note ON: Time 505680, Note Name: D#4, Velocity: 31
Note ON: Time 505680, Note Name: A#3, Velocity: 31
Note ON: Time 505680, Note Name: G3, Velocity: 31
Note OFF: Time 505860, Note Name: G3
Note OFF: Time 505860, Note Name: G4
Note OFF: Time 505860, Note Name: D#4
Note OFF: Time 505860, Note Name: A#3
Note ON: Time 505920, Note Name: G4, Velocity: 31
Note ON: Time 505920, Note Name: D#4, Velocity: 31
Note ON: Time 505920, Note Name: A#3, Velocity: 31
Note ON: Time 505920, Note Name: G3, Velocity: 31
Note OFF: Time 506100, Note Name: G3
Note OFF: Time 506100, Note Name: G4
Note OFF: Time 506100, Note Name: D#4
Note OFF: Time 506100, Note Name: A#3
Note ON: Time 506160, Note Name: G4, Velocity: 33
Note ON: Time 506160, Note Name: D#4, Velocity: 33
Note ON: Time 506160, Note Name: A#3, Velocity: 33
Note ON: Time 506160, Note Name: G3, Velocity: 33
Note OFF: Time 506340, Note Name: G3
Note OFF: Time 506340, Note Name: G4
Note OFF: Time 506340, Note Name: D#4
Note OFF: Time 506340, Note Name: A#3
Note ON: Time 506400, Note Name: G4, Velocity: 30
Note ON: Time 506400, Note Name: D#4, Velocity: 30
Note ON: Time 506400, Note Name: A#3, Velocity: 30
Note ON: Time 506400, Note Name: G3, Velocity: 30
Note OFF: Time 506580, Note Name: G3
Note OFF: Time 506580, Note Name: G4
Note OFF: Time 506580, Note Name: D#4
Note OFF: Time 506580, Note Name: A#3
Note ON: Time 506640, Note Name: G4, Velocity: 30
Note ON: Time 506640, Note Name: D#4, Velocity: 30
Note ON: Time 506640, Note Name: A#3, Velocity: 30
Note ON: Time 506640, Note Name: G3, Velocity: 30
Note OFF: Time 506820, Note Name: G3
Note OFF: Time 506820, Note Name: G4
Note OFF: Time 506820, Note Name: D#4
Note OFF: Time 506820, Note Name: A#3
Note ON: Time 506880, Note Name: G4, Velocity: 33
Note ON: Time 506880, Note Name: D#4, Velocity: 33
Note ON: Time 506880, Note Name: A#3, Velocity: 33
Note ON: Time 506880, Note Name: G3, Velocity: 33
Note OFF: Time 507120, Note Name: G3
Note OFF: Time 507120, Note Name: G4
Note OFF: Time 507120, Note Name: D#4
Note OFF: Time 507120, Note Name: A#3
Note ON: Time 507600, Note Name: D#4, Velocity: 29
Note ON: Time 507600, Note Name: D#3, Velocity: 29
Note ON: Time 507600, Note Name: G3, Velocity: 29
Note OFF: Time 507840, Note Name: G3
Note OFF: Time 507840, Note Name: D#3
Note OFF: Time 507840, Note Name: D#4
Note ON: Time 508320, Note Name: G4, Velocity: 31
Note ON: Time 508320, Note Name: D#4, Velocity: 31
Note ON: Time 508320, Note Name: A#3, Velocity: 31
Note ON: Time 508320, Note Name: G3, Velocity: 31
Note OFF: Time 508560, Note Name: G3
Note OFF: Time 508560, Note Name: G4
Note OFF: Time 508560, Note Name: D#4
Note OFF: Time 508560, Note Name: A#3
Note ON: Time 509040, Note Name: A#3, Velocity: 33
Note ON: Time 509040, Note Name: G4, Velocity: 33
Note ON: Time 509040, Note Name: A#4, Velocity: 33
Note OFF: Time 509280, Note Name: A#4
Note OFF: Time 509280, Note Name: G4
Note OFF: Time 509280, Note Name: A#3
Note ON: Time 509760, Note Name: D#4, Velocity: 36
Note ON: Time 509760, Note Name: G4, Velocity: 36
Note ON: Time 509760, Note Name: D#5, Velocity: 36
Note OFF: Time 510000, Note Name: D#5
Note OFF: Time 510000, Note Name: G4
Note OFF: Time 510000, Note Name: D#4
Note ON: Time 510480, Note Name: A#3, Velocity: 35
Note ON: Time 510480, Note Name: G4, Velocity: 35
Note ON: Time 510480, Note Name: A#4, Velocity: 35
Note OFF: Time 510720, Note Name: A#4
Note OFF: Time 510720, Note Name: G4
Note OFF: Time 510720, Note Name: A#3
Note ON: Time 511200, Note Name: G5, Velocity: 33
Note ON: Time 511200, Note Name: D#5, Velocity: 33
Note ON: Time 511200, Note Name: G4, Velocity: 33
Note OFF: Time 511440, Note Name: G4
Note OFF: Time 511440, Note Name: D#5
Note OFF: Time 511440, Note Name: G5
Note ON: Time 511920, Note Name: A#5, Velocity: 28
Note ON: Time 511920, Note Name: G5, Velocity: 28
Note ON: Time 511920, Note Name: A#4, Velocity: 28
Note OFF: Time 512160, Note Name: A#4
Note OFF: Time 512160, Note Name: G5
Note OFF: Time 512160, Note Name: A#5
Note ON: Time 512640, Note Name: D#6, Velocity: 24
Note ON: Time 512640, Note Name: G5, Velocity: 24
Note OFF: Time 512880, Note Name: G5
Note OFF: Time 512880, Note Name: D#6
Note ON: Time 514080, Note Name: D#4, Velocity: 76
Note ON: Time 514080, Note Name: A#4, Velocity: 76
Note ON: Time 514080, Note Name: D#5, Velocity: 90
Note OFF: Time 514200, Note Name: D#5
Note OFF: Time 514200, Note Name: A#4
Note OFF: Time 514200, Note Name: D#4
Note ON: Time 514800, Note Name: D#4, Velocity: 90
Note ON: Time 514800, Note Name: A#3, Velocity: 76
Note ON: Time 514800, Note Name: D#3, Velocity: 76
Note OFF: Time 514920, Note Name: D#3
Note OFF: Time 514920, Note Name: A#3
Note OFF: Time 514920, Note Name: D#4
Note ON: Time 515040, Note Name: D#3, Velocity: 76
Note ON: Time 515040, Note Name: A#3, Velocity: 76
Note ON: Time 515040, Note Name: D#4, Velocity: 90
Note OFF: Time 515160, Note Name: D#4
Note OFF: Time 515160, Note Name: A#3
Note OFF: Time 515160, Note Name: D#3
Note ON: Time 515280, Note Name: D#4, Velocity: 90
Note ON: Time 515280, Note Name: A#3, Velocity: 76
Note ON: Time 515280, Note Name: D#3, Velocity: 76
Note OFF: Time 515400, Note Name: D#3
Note OFF: Time 515400, Note Name: A#3
Note OFF: Time 515400, Note Name: D#4
Note ON: Time 515520, Note Name: D#1, Velocity: 91
Note ON: Time 515520, Note Name: D#2, Velocity: 101
Note OFF: Time 516240, Note Name: D#2
Note OFF: Time 516240, Note Name: D#1
Track 3: Chopin: Grande Valse Brillante in Es-Dur, Op. 18
Track 4: Copyright  1997 by Bernd Krger
Track 5: http://www.piano-midi.de
Track 6: Edition: 2014-02-14
