Processing chp_op31.mid...

Track 0: Scherzo  in b-moll Opus 31
Track 1: Piano right
Note ON: Time 1, Note Name: A#3, Velocity: 41
Note ON: Time 480, Note Name: A3, Velocity: 29
Note OFF: Time 481, Note Name: A#3
Note OFF: Time 560, Note Name: A3
Note ON: Time 560, Note Name: A#3, Velocity: 31
Note OFF: Time 640, Note Name: A#3
Note ON: Time 640, Note Name: C#4, Velocity: 33
Note OFF: Time 720, Note Name: C#4
Note ON: Time 720, Note Name: F4, Velocity: 37
Note OFF: Time 840, Note Name: F4
Note ON: Time 1200, Note Name: A3, Velocity: 29
Note OFF: Time 1280, Note Name: A3
Note ON: Time 1280, Note Name: A#3, Velocity: 31
Note OFF: Time 1360, Note Name: A#3
Note ON: Time 1360, Note Name: C#4, Velocity: 32
Note OFF: Time 1440, Note Name: C#4
Note ON: Time 1440, Note Name: F4, Velocity: 37
Note OFF: Time 1560, Note Name: F4
Note ON: Time 2880, Note Name: A#3, Velocity: 100
Note OFF: Time 3000, Note Name: A#3
Note ON: Time 3600, Note Name: F#6, Velocity: 92
Note ON: Time 3600, Note Name: A#5, Velocity: 78
Note ON: Time 3600, Note Name: A#6, Velocity: 92
Note OFF: Time 5040, Note Name: A#6
Note OFF: Time 5040, Note Name: A#5
Note OFF: Time 5040, Note Name: F#6
Note ON: Time 5040, Note Name: D#5, Velocity: 51
Note ON: Time 5040, Note Name: C6, Velocity: 61
Note ON: Time 5040, Note Name: D#6, Velocity: 61
Note OFF: Time 5400, Note Name: D#6
Note OFF: Time 5400, Note Name: C6
Note OFF: Time 5400, Note Name: D#5
Note ON: Time 5400, Note Name: C6, Velocity: 68
Note ON: Time 5400, Note Name: F5, Velocity: 57
Note ON: Time 5400, Note Name: F6, Velocity: 68
Note OFF: Time 5520, Note Name: F6
Note OFF: Time 5520, Note Name: F5
Note OFF: Time 5520, Note Name: C6
Note ON: Time 5520, Note Name: F#6, Velocity: 71
Note ON: Time 5520, Note Name: F#5, Velocity: 60
Note ON: Time 5520, Note Name: C6, Velocity: 71
Note OFF: Time 5760, Note Name: C6
Note OFF: Time 5760, Note Name: F#5
Note OFF: Time 5760, Note Name: F#6
Note ON: Time 5760, Note Name: C#6, Velocity: 68
Note ON: Time 5760, Note Name: F5, Velocity: 57
Note ON: Time 5760, Note Name: F6, Velocity: 68
Note OFF: Time 6000, Note Name: F6
Note OFF: Time 6000, Note Name: F5
Note OFF: Time 6000, Note Name: C#6
Note ON: Time 6240, Note Name: A3, Velocity: 27
Note OFF: Time 6320, Note Name: A3
Note ON: Time 6320, Note Name: A#3, Velocity: 29
Note OFF: Time 6400, Note Name: A#3
Note ON: Time 6400, Note Name: C#4, Velocity: 30
Note OFF: Time 6480, Note Name: C#4
Note ON: Time 6480, Note Name: F4, Velocity: 35
Note OFF: Time 6600, Note Name: F4
Note ON: Time 6960, Note Name: A3, Velocity: 27
Note OFF: Time 7040, Note Name: A3
Note ON: Time 7040, Note Name: A#3, Velocity: 29
Note OFF: Time 7120, Note Name: A#3
Note ON: Time 7120, Note Name: C#4, Velocity: 30
Note OFF: Time 7200, Note Name: C#4
Note ON: Time 7200, Note Name: F4, Velocity: 35
Note OFF: Time 7320, Note Name: F4
Note ON: Time 8640, Note Name: G#3, Velocity: 100
Note OFF: Time 8760, Note Name: G#3
Note ON: Time 9360, Note Name: G#6, Velocity: 90
Note ON: Time 9360, Note Name: F6, Velocity: 90
Note ON: Time 9360, Note Name: G#5, Velocity: 76
Note OFF: Time 10800, Note Name: G#5
Note OFF: Time 10800, Note Name: F6
Note OFF: Time 10800, Note Name: G#6
Note ON: Time 10800, Note Name: C6, Velocity: 60
Note ON: Time 10800, Note Name: D#5, Velocity: 51
Note ON: Time 10800, Note Name: D#6, Velocity: 60
Note OFF: Time 11160, Note Name: D#6
Note OFF: Time 11160, Note Name: D#5
Note OFF: Time 11160, Note Name: C6
Note ON: Time 11160, Note Name: C6, Velocity: 65
Note ON: Time 11160, Note Name: F6, Velocity: 65
Note ON: Time 11160, Note Name: F5, Velocity: 55
Note OFF: Time 11280, Note Name: F5
Note OFF: Time 11280, Note Name: F6
Note OFF: Time 11280, Note Name: C6
Note ON: Time 11280, Note Name: C6, Velocity: 70
Note ON: Time 11280, Note Name: F#6, Velocity: 70
Note ON: Time 11280, Note Name: F#5, Velocity: 59
Note OFF: Time 11520, Note Name: F#5
Note OFF: Time 11520, Note Name: F#6
Note OFF: Time 11520, Note Name: C6
Note ON: Time 11520, Note Name: F5, Velocity: 56
Note ON: Time 11520, Note Name: C#6, Velocity: 67
Note ON: Time 11520, Note Name: F6, Velocity: 67
Note OFF: Time 11760, Note Name: F6
Note OFF: Time 11760, Note Name: C#6
Note OFF: Time 11760, Note Name: F5
Note ON: Time 12240, Note Name: F5, Velocity: 81
Note ON: Time 12240, Note Name: A4, Velocity: 81
Note OFF: Time 12720, Note Name: A4
Note OFF: Time 12720, Note Name: F5
Note ON: Time 12960, Note Name: A3, Velocity: 81
Note ON: Time 12960, Note Name: F4, Velocity: 81
Note OFF: Time 13440, Note Name: F4
Note OFF: Time 13440, Note Name: A3
Note ON: Time 17760, Note Name: A3, Velocity: 27
Note OFF: Time 17840, Note Name: A3
Note ON: Time 17840, Note Name: A#3, Velocity: 29
Note OFF: Time 17920, Note Name: A#3
Note ON: Time 17920, Note Name: C#4, Velocity: 30
Note OFF: Time 18000, Note Name: C#4
Note ON: Time 18000, Note Name: F4, Velocity: 34
Note OFF: Time 18120, Note Name: F4
Note ON: Time 18480, Note Name: A3, Velocity: 29
Note OFF: Time 18560, Note Name: A3
Note ON: Time 18560, Note Name: A#3, Velocity: 30
Note OFF: Time 18640, Note Name: A#3
Note ON: Time 18640, Note Name: C#4, Velocity: 31
Note OFF: Time 18720, Note Name: C#4
Note ON: Time 18720, Note Name: F4, Velocity: 36
Note OFF: Time 18840, Note Name: F4
Note ON: Time 20160, Note Name: A#3, Velocity: 100
Note OFF: Time 20280, Note Name: A#3
Note ON: Time 20880, Note Name: F#6, Velocity: 92
Note ON: Time 20880, Note Name: A#6, Velocity: 92
Note ON: Time 20880, Note Name: A#5, Velocity: 78
Note OFF: Time 21960, Note Name: A#5
Note OFF: Time 21960, Note Name: A#6
Note OFF: Time 21960, Note Name: F#6
Note ON: Time 21960, Note Name: D#6, Velocity: 58
Note ON: Time 21960, Note Name: C6, Velocity: 58
Note ON: Time 21960, Note Name: D#5, Velocity: 49
Note OFF: Time 22080, Note Name: D#5
Note OFF: Time 22080, Note Name: C6
Note OFF: Time 22080, Note Name: D#6
Note ON: Time 22080, Note Name: C6, Velocity: 58
Note ON: Time 22080, Note Name: D#5, Velocity: 49
Note ON: Time 22080, Note Name: D#6, Velocity: 58
Note OFF: Time 22320, Note Name: D#6
Note OFF: Time 22320, Note Name: D#5
Note OFF: Time 22320, Note Name: C6
Note ON: Time 22320, Note Name: D#5, Velocity: 51
Note ON: Time 22320, Note Name: C6, Velocity: 61
Note ON: Time 22320, Note Name: D#6, Velocity: 61
Note OFF: Time 22680, Note Name: D#6
Note OFF: Time 22680, Note Name: C6
Note OFF: Time 22680, Note Name: D#5
Note ON: Time 22680, Note Name: F6, Velocity: 68
Note ON: Time 22680, Note Name: C6, Velocity: 68
Note ON: Time 22680, Note Name: F5, Velocity: 57
Note OFF: Time 22800, Note Name: F5
Note OFF: Time 22800, Note Name: C6
Note OFF: Time 22800, Note Name: F6
Note ON: Time 22800, Note Name: C6, Velocity: 71
Note ON: Time 22800, Note Name: F#6, Velocity: 71
Note ON: Time 22800, Note Name: F#5, Velocity: 60
Note OFF: Time 23040, Note Name: F#5
Note OFF: Time 23040, Note Name: F#6
Note OFF: Time 23040, Note Name: C6
Note ON: Time 23040, Note Name: C#6, Velocity: 68
Note ON: Time 23040, Note Name: F6, Velocity: 68
Note ON: Time 23040, Note Name: F5, Velocity: 57
Note OFF: Time 23280, Note Name: F5
Note OFF: Time 23280, Note Name: F6
Note OFF: Time 23280, Note Name: C#6
Note ON: Time 23520, Note Name: A3, Velocity: 29
Note OFF: Time 23600, Note Name: A3
Note ON: Time 23600, Note Name: A#3, Velocity: 30
Note OFF: Time 23680, Note Name: A#3
Note ON: Time 23680, Note Name: C#4, Velocity: 32
Note OFF: Time 23760, Note Name: C#4
Note ON: Time 23760, Note Name: F4, Velocity: 37
Note OFF: Time 23880, Note Name: F4
Note ON: Time 24240, Note Name: A3, Velocity: 29
Note OFF: Time 24320, Note Name: A3
Note ON: Time 24320, Note Name: A#3, Velocity: 30
Note OFF: Time 24400, Note Name: A#3
Note ON: Time 24400, Note Name: C#4, Velocity: 32
Note OFF: Time 24480, Note Name: C#4
Note ON: Time 24480, Note Name: F4, Velocity: 37
Note OFF: Time 24600, Note Name: F4
Note ON: Time 25920, Note Name: C3, Velocity: 100
Note OFF: Time 26040, Note Name: C3
Note ON: Time 26640, Note Name: C6, Velocity: 64
Note ON: Time 26640, Note Name: G#6, Velocity: 90
Note ON: Time 26640, Note Name: C7, Velocity: 90
Note OFF: Time 28080, Note Name: C7
Note OFF: Time 28080, Note Name: G#6
Note OFF: Time 28080, Note Name: C6
Note ON: Time 28080, Note Name: E6, Velocity: 60
Note ON: Time 28080, Note Name: G5, Velocity: 43
Note ON: Time 28080, Note Name: G6, Velocity: 60
Note OFF: Time 28440, Note Name: G6
Note OFF: Time 28440, Note Name: G5
Note OFF: Time 28440, Note Name: E6
Note ON: Time 28440, Note Name: G#5, Velocity: 46
Note ON: Time 28440, Note Name: E6, Velocity: 65
Note ON: Time 28440, Note Name: G#6, Velocity: 65
Note OFF: Time 28560, Note Name: G#6
Note OFF: Time 28560, Note Name: E6
Note OFF: Time 28560, Note Name: G#5
Note ON: Time 28560, Note Name: E6, Velocity: 70
Note ON: Time 28560, Note Name: A#5, Velocity: 50
Note ON: Time 28560, Note Name: A#6, Velocity: 70
Note OFF: Time 28800, Note Name: A#6
Note OFF: Time 28800, Note Name: A#5
Note OFF: Time 28800, Note Name: E6
Note ON: Time 28800, Note Name: G#5, Velocity: 47
Note ON: Time 28800, Note Name: G#6, Velocity: 67
Note ON: Time 28800, Note Name: F6, Velocity: 67
Note OFF: Time 29040, Note Name: F6
Note OFF: Time 29040, Note Name: G#6
Note OFF: Time 29040, Note Name: G#5
Note ON: Time 29520, Note Name: G#5, Velocity: 81
Note ON: Time 29520, Note Name: C5, Velocity: 68
Note ON: Time 29520, Note Name: G#4, Velocity: 68
Note ON: Time 29520, Note Name: F5, Velocity: 81
Note OFF: Time 30000, Note Name: F5
Note OFF: Time 30000, Note Name: G#5
Note OFF: Time 30000, Note Name: C5
Note OFF: Time 30000, Note Name: G#4
Note ON: Time 30240, Note Name: G#4, Velocity: 81
Note ON: Time 30240, Note Name: G#3, Velocity: 68
Note ON: Time 30240, Note Name: C4, Velocity: 68
Note ON: Time 30240, Note Name: F4, Velocity: 81
Note OFF: Time 30720, Note Name: F4
Note OFF: Time 30720, Note Name: G#4
Note OFF: Time 30720, Note Name: G#3
Note OFF: Time 30720, Note Name: C4
Note ON: Time 34560, Note Name: F7, Velocity: 97
Note OFF: Time 35520, Note Name: F7
Note ON: Time 35520, Note Name: D#7, Velocity: 68
Note OFF: Time 35640, Note Name: D#7
Note ON: Time 35640, Note Name: C#7, Velocity: 62
Note OFF: Time 35760, Note Name: C#7
Note ON: Time 35760, Note Name: G#6, Velocity: 65
Note OFF: Time 35880, Note Name: G#6
Note ON: Time 35880, Note Name: F6, Velocity: 59
Note OFF: Time 36000, Note Name: F6
Note ON: Time 36000, Note Name: D#6, Velocity: 62
Note OFF: Time 36120, Note Name: D#6
Note ON: Time 36120, Note Name: C#6, Velocity: 57
Note OFF: Time 36240, Note Name: C#6
Note ON: Time 36240, Note Name: G#5, Velocity: 58
Note OFF: Time 36360, Note Name: G#5
Note ON: Time 36360, Note Name: F5, Velocity: 53
Note OFF: Time 36480, Note Name: F5
Note ON: Time 36480, Note Name: D#5, Velocity: 55
Note OFF: Time 36600, Note Name: D#5
Note ON: Time 36600, Note Name: C#5, Velocity: 51
Note OFF: Time 36720, Note Name: C#5
Note ON: Time 36720, Note Name: G#4, Velocity: 52
Note OFF: Time 36960, Note Name: G#4
Note ON: Time 37440, Note Name: C5, Velocity: 55
Note OFF: Time 37560, Note Name: C5
Note ON: Time 37560, Note Name: C#5, Velocity: 52
Note OFF: Time 37680, Note Name: C#5
Note ON: Time 37680, Note Name: D#5, Velocity: 50
Note OFF: Time 37800, Note Name: D#5
Note ON: Time 37800, Note Name: F5, Velocity: 47
Note OFF: Time 37920, Note Name: F5
Note ON: Time 37920, Note Name: F#5, Velocity: 45
Note ON: Time 38033, Note Name: G#5, Velocity: 42
Note OFF: Time 38040, Note Name: F#5
Note OFF: Time 38153, Note Name: G#5
Note ON: Time 38160, Note Name: A5, Velocity: 40
Note OFF: Time 38280, Note Name: A5
Note ON: Time 38880, Note Name: A5, Velocity: 50
Note OFF: Time 39000, Note Name: A5
Note ON: Time 39000, Note Name: G#5, Velocity: 49
Note OFF: Time 39120, Note Name: G#5
Note ON: Time 39120, Note Name: G5, Velocity: 47
Note OFF: Time 39240, Note Name: G5
Note ON: Time 39240, Note Name: F#5, Velocity: 46
Note OFF: Time 39360, Note Name: F#5
Note ON: Time 39360, Note Name: F5, Velocity: 44
Note OFF: Time 39480, Note Name: F5
Note ON: Time 39480, Note Name: E5, Velocity: 42
Note OFF: Time 39600, Note Name: E5
Note ON: Time 39600, Note Name: D#5, Velocity: 41
Note OFF: Time 39720, Note Name: D#5
Note ON: Time 40320, Note Name: F7, Velocity: 97
Note OFF: Time 41280, Note Name: F7
Note ON: Time 41280, Note Name: D#7, Velocity: 68
Note OFF: Time 41400, Note Name: D#7
Note ON: Time 41400, Note Name: C#7, Velocity: 60
Note OFF: Time 41520, Note Name: C#7
Note ON: Time 41520, Note Name: G#6, Velocity: 65
Note OFF: Time 41640, Note Name: G#6
Note ON: Time 41640, Note Name: F6, Velocity: 58
Note OFF: Time 41760, Note Name: F6
Note ON: Time 41760, Note Name: D#6, Velocity: 62
Note OFF: Time 41880, Note Name: D#6
Note ON: Time 41880, Note Name: C#6, Velocity: 57
Note OFF: Time 42000, Note Name: C#6
Note ON: Time 42000, Note Name: G#5, Velocity: 58
Note OFF: Time 42120, Note Name: G#5
Note ON: Time 42120, Note Name: F5, Velocity: 53
Note OFF: Time 42240, Note Name: F5
Note ON: Time 42240, Note Name: D#5, Velocity: 55
Note OFF: Time 42360, Note Name: D#5
Note ON: Time 42360, Note Name: C#5, Velocity: 49
Note OFF: Time 42480, Note Name: C#5
Note ON: Time 42480, Note Name: G#4, Velocity: 52
Note OFF: Time 42720, Note Name: G#4
Note ON: Time 43200, Note Name: C5, Velocity: 42
Note OFF: Time 43320, Note Name: C5
Note ON: Time 43320, Note Name: C#5, Velocity: 41
Note OFF: Time 43440, Note Name: C#5
Note ON: Time 43440, Note Name: D#5, Velocity: 41
Note OFF: Time 43560, Note Name: D#5
Note ON: Time 43560, Note Name: F5, Velocity: 40
Note OFF: Time 43680, Note Name: F5
Note ON: Time 43680, Note Name: F#5, Velocity: 39
Note ON: Time 43793, Note Name: G#5, Velocity: 38
Note OFF: Time 43800, Note Name: F#5
Note OFF: Time 43913, Note Name: G#5
Note ON: Time 43920, Note Name: A5, Velocity: 37
Note OFF: Time 44040, Note Name: A5
Note ON: Time 44640, Note Name: A5, Velocity: 42
Note OFF: Time 44760, Note Name: A5
Note ON: Time 44760, Note Name: G#5, Velocity: 41
Note OFF: Time 44880, Note Name: G#5
Note ON: Time 44880, Note Name: G5, Velocity: 40
Note OFF: Time 45000, Note Name: G5
Note ON: Time 45000, Note Name: F#5, Velocity: 39
Note OFF: Time 45120, Note Name: F#5
Note ON: Time 45120, Note Name: F5, Velocity: 37
Note OFF: Time 45240, Note Name: F5
Note ON: Time 45240, Note Name: E5, Velocity: 36
Note OFF: Time 45360, Note Name: E5
Note ON: Time 45360, Note Name: D#5, Velocity: 35
Note OFF: Time 45480, Note Name: D#5
Note ON: Time 46080, Note Name: B4, Velocity: 38
Note ON: Time 46080, Note Name: F5, Velocity: 59
Note OFF: Time 47040, Note Name: F5
Note ON: Time 47040, Note Name: D#5, Velocity: 53
Note OFF: Time 47400, Note Name: D#5
Note ON: Time 47400, Note Name: C#5, Velocity: 52
Note OFF: Time 47510, Note Name: C#5
Note OFF: Time 47520, Note Name: B4
Note ON: Time 47520, Note Name: B4, Velocity: 38
Note ON: Time 47520, Note Name: C#5, Velocity: 54
Note OFF: Time 48240, Note Name: C#5
Note OFF: Time 48240, Note Name: B4
Note ON: Time 48240, Note Name: A#4, Velocity: 56
Note ON: Time 48240, Note Name: F#5, Velocity: 56
Note OFF: Time 48960, Note Name: A#4
Note ON: Time 48960, Note Name: B4, Velocity: 50
Note OFF: Time 49440, Note Name: F#5
Note ON: Time 49440, Note Name: F5, Velocity: 52
Note OFF: Time 49670, Note Name: F5
Note ON: Time 49680, Note Name: F5, Velocity: 51
Note OFF: Time 49920, Note Name: F5
Note ON: Time 49920, Note Name: D#5, Velocity: 50
Note OFF: Time 50160, Note Name: D#5
Note ON: Time 50160, Note Name: C#5, Velocity: 49
Note OFF: Time 50400, Note Name: C#5
Note OFF: Time 50400, Note Name: B4
Note ON: Time 50400, Note Name: A#4, Velocity: 44
Note ON: Time 50400, Note Name: C#5, Velocity: 44
Note ON: Time 50400, Note Name: A#5, Velocity: 56
Note OFF: Time 51120, Note Name: A#5
Note OFF: Time 51120, Note Name: C#5
Note OFF: Time 51120, Note Name: A#4
Note ON: Time 51120, Note Name: G#4, Velocity: 44
Note ON: Time 51120, Note Name: C#5, Velocity: 44
Note ON: Time 51120, Note Name: A#5, Velocity: 62
Note OFF: Time 51600, Note Name: A#5
Note ON: Time 51600, Note Name: A#5, Velocity: 64
Note ON: Time 51780, Note Name: G4, Velocity: 44
Note OFF: Time 51831, Note Name: A#5
Note OFF: Time 51840, Note Name: G#4
Note OFF: Time 51840, Note Name: C#5
Note OFF: Time 51840, Note Name: G4
Note ON: Time 51840, Note Name: C#5, Velocity: 45
Note ON: Time 51840, Note Name: A#5, Velocity: 68
Note OFF: Time 52320, Note Name: A#5
Note ON: Time 52320, Note Name: D#5, Velocity: 57
Note OFF: Time 52560, Note Name: D#5
Note ON: Time 52560, Note Name: D#5, Velocity: 57
Note OFF: Time 52800, Note Name: D#5
Note ON: Time 52800, Note Name: F5, Velocity: 51
Note OFF: Time 52860, Note Name: F5
Note ON: Time 52860, Note Name: G5, Velocity: 51
Note OFF: Time 52920, Note Name: G5
Note ON: Time 52920, Note Name: F5, Velocity: 56
Note OFF: Time 53160, Note Name: F5
Note ON: Time 53160, Note Name: D#5, Velocity: 56
Note OFF: Time 53270, Note Name: D#5
Note OFF: Time 53280, Note Name: C#5
Note ON: Time 53280, Note Name: C#5, Velocity: 49
Note ON: Time 53280, Note Name: D#5, Velocity: 59
Note OFF: Time 54000, Note Name: D#5
Note OFF: Time 54000, Note Name: C#5
Note ON: Time 54000, Note Name: C5, Velocity: 53
Note ON: Time 54000, Note Name: G#5, Velocity: 64
Note OFF: Time 54720, Note Name: C5
Note ON: Time 54720, Note Name: C#5, Velocity: 55
Note OFF: Time 54960, Note Name: G#5
Note ON: Time 54960, Note Name: G5, Velocity: 60
Note OFF: Time 55200, Note Name: G5
Note ON: Time 55200, Note Name: F5, Velocity: 59
Note OFF: Time 55440, Note Name: F5
Note ON: Time 55440, Note Name: G5, Velocity: 60
Note OFF: Time 55680, Note Name: G5
Note ON: Time 55680, Note Name: F5, Velocity: 59
Note OFF: Time 56040, Note Name: F5
Note ON: Time 56040, Note Name: D#5, Velocity: 56
Note OFF: Time 56160, Note Name: D#5
Note OFF: Time 56160, Note Name: C#5
Note ON: Time 56160, Note Name: C5, Velocity: 56
Note ON: Time 56160, Note Name: C6, Velocity: 56
Note OFF: Time 56880, Note Name: C6
Note ON: Time 56880, Note Name: C6, Velocity: 64
Note OFF: Time 57360, Note Name: C6
Note ON: Time 57360, Note Name: C6, Velocity: 63
Note OFF: Time 57590, Note Name: C6
Note OFF: Time 57600, Note Name: C5
Note ON: Time 57600, Note Name: C6, Velocity: 68
Note OFF: Time 58560, Note Name: C6
Note ON: Time 58560, Note Name: A#5, Velocity: 63
Note OFF: Time 58920, Note Name: A#5
Note ON: Time 58920, Note Name: G#5, Velocity: 63
Note OFF: Time 59030, Note Name: G#5
Note ON: Time 59040, Note Name: G#5, Velocity: 63
Note OFF: Time 59760, Note Name: G#5
Note ON: Time 59760, Note Name: C#6, Velocity: 75
Note OFF: Time 60480, Note Name: C#6
Note ON: Time 60480, Note Name: C#6, Velocity: 82
Note OFF: Time 60960, Note Name: C#6
Note ON: Time 60960, Note Name: C6, Velocity: 78
Note OFF: Time 61200, Note Name: C6
Note ON: Time 61200, Note Name: C6, Velocity: 75
Note OFF: Time 61440, Note Name: C6
Note ON: Time 61440, Note Name: A#5, Velocity: 71
Note OFF: Time 61800, Note Name: A#5
Note ON: Time 61800, Note Name: G#5, Velocity: 63
Note OFF: Time 61920, Note Name: G#5
Note ON: Time 61920, Note Name: F6, Velocity: 80
Note OFF: Time 62640, Note Name: F6
Note ON: Time 62640, Note Name: F6, Velocity: 77
Note OFF: Time 63120, Note Name: F6
Note ON: Time 63120, Note Name: F6, Velocity: 81
Note OFF: Time 63350, Note Name: F6
Note ON: Time 63360, Note Name: F6, Velocity: 85
Note OFF: Time 64080, Note Name: F6
Note ON: Time 64080, Note Name: D#6, Velocity: 72
Note OFF: Time 64320, Note Name: D#6
Note ON: Time 64320, Note Name: C#6, Velocity: 71
Note OFF: Time 64560, Note Name: C#6
Note ON: Time 64560, Note Name: A#5, Velocity: 70
Note OFF: Time 64800, Note Name: A#5
Note ON: Time 64800, Note Name: C6, Velocity: 75
Note OFF: Time 65520, Note Name: C6
Note ON: Time 65520, Note Name: A#5, Velocity: 71
Note OFF: Time 65760, Note Name: A#5
Note ON: Time 65760, Note Name: G#5, Velocity: 68
Note OFF: Time 66000, Note Name: G#5
Note ON: Time 66000, Note Name: F5, Velocity: 63
Note OFF: Time 66240, Note Name: F5
Note ON: Time 66240, Note Name: A#5, Velocity: 69
Note OFF: Time 66480, Note Name: A#5
Note ON: Time 66480, Note Name: G#5, Velocity: 64
Note OFF: Time 66720, Note Name: G#5
Note ON: Time 66720, Note Name: F#5, Velocity: 61
Note OFF: Time 66960, Note Name: F#5
Note ON: Time 66960, Note Name: F#5, Velocity: 55
Note OFF: Time 67020, Note Name: F#5
Note ON: Time 67020, Note Name: G#5, Velocity: 55
Note OFF: Time 67080, Note Name: G#5
Note ON: Time 67080, Note Name: F#5, Velocity: 63
Note OFF: Time 67200, Note Name: F#5
Note ON: Time 67200, Note Name: F5, Velocity: 58
Note OFF: Time 67560, Note Name: F5
Note ON: Time 67560, Note Name: E5, Velocity: 59
Note OFF: Time 67670, Note Name: E5
Note ON: Time 67680, Note Name: E5, Velocity: 59
Note OFF: Time 68400, Note Name: E5
Note ON: Time 68400, Note Name: F5, Velocity: 63
Note OFF: Time 68880, Note Name: F5
Note ON: Time 68880, Note Name: G#5, Velocity: 57
Note OFF: Time 69120, Note Name: G#5
Note ON: Time 69120, Note Name: G#4, Velocity: 57
Note ON: Time 69180, Note Name: G#5, Velocity: 57
Note OFF: Time 69600, Note Name: G#4
Note ON: Time 69600, Note Name: C5, Velocity: 63
Note OFF: Time 69840, Note Name: G#5
Note ON: Time 69840, Note Name: C6, Velocity: 63
Note OFF: Time 70080, Note Name: C6
Note OFF: Time 70080, Note Name: C5
Note ON: Time 70080, Note Name: A#4, Velocity: 63
Note ON: Time 70080, Note Name: A#5, Velocity: 63
Note OFF: Time 70440, Note Name: A#5
Note OFF: Time 70440, Note Name: A#4
Note ON: Time 70440, Note Name: G#4, Velocity: 63
Note ON: Time 70440, Note Name: G#5, Velocity: 63
Note OFF: Time 70550, Note Name: G#5
Note OFF: Time 70550, Note Name: G#4
Note ON: Time 70560, Note Name: G#4, Velocity: 63
Note ON: Time 70560, Note Name: G#5, Velocity: 63
Note OFF: Time 71280, Note Name: G#4
Note ON: Time 71280, Note Name: C#5, Velocity: 75
Note ON: Time 71280, Note Name: C#6, Velocity: 75
Note OFF: Time 72000, Note Name: C#6
Note OFF: Time 72000, Note Name: C#5
Note OFF: Time 72000, Note Name: G#5
Note ON: Time 72000, Note Name: G#5, Velocity: 60
Note ON: Time 72000, Note Name: C#5, Velocity: 75
Note ON: Time 72000, Note Name: C#6, Velocity: 75
Note OFF: Time 72480, Note Name: C#6
Note OFF: Time 72480, Note Name: C#5
Note ON: Time 72480, Note Name: C5, Velocity: 78
Note ON: Time 72480, Note Name: C6, Velocity: 78
Note OFF: Time 72720, Note Name: C6
Note OFF: Time 72720, Note Name: C5
Note ON: Time 72720, Note Name: C5, Velocity: 75
Note ON: Time 72720, Note Name: C6, Velocity: 75
Note OFF: Time 73080, Note Name: C6
Note OFF: Time 73080, Note Name: C5
Note OFF: Time 73080, Note Name: G#5
Note ON: Time 73080, Note Name: A#4, Velocity: 71
Note ON: Time 73080, Note Name: A#5, Velocity: 71
Note OFF: Time 73200, Note Name: A#5
Note OFF: Time 73200, Note Name: A#4
Note ON: Time 73200, Note Name: G#4, Velocity: 63
Note ON: Time 73200, Note Name: G#5, Velocity: 63
Note OFF: Time 73440, Note Name: G#5
Note OFF: Time 73440, Note Name: G#4
Note ON: Time 73440, Note Name: G#5, Velocity: 80
Note ON: Time 73440, Note Name: F5, Velocity: 68
Note ON: Time 73440, Note Name: F6, Velocity: 80
Note OFF: Time 74160, Note Name: F6
Note OFF: Time 74160, Note Name: F5
Note OFF: Time 74160, Note Name: G#5
Note ON: Time 74160, Note Name: F5, Velocity: 65
Note ON: Time 74160, Note Name: G#5, Velocity: 77
Note ON: Time 74160, Note Name: F6, Velocity: 77
Note OFF: Time 74640, Note Name: F6
Note OFF: Time 74640, Note Name: G#5
Note OFF: Time 74640, Note Name: F5
Note ON: Time 74640, Note Name: F5, Velocity: 62
Note ON: Time 74640, Note Name: G#5, Velocity: 74
Note ON: Time 74640, Note Name: F6, Velocity: 74
Note OFF: Time 74870, Note Name: F6
Note OFF: Time 74870, Note Name: G#5
Note OFF: Time 74870, Note Name: F5
Note ON: Time 74880, Note Name: F5, Velocity: 69
Note ON: Time 74880, Note Name: G#5, Velocity: 82
Note ON: Time 74880, Note Name: F6, Velocity: 82
Note OFF: Time 75600, Note Name: F6
Note OFF: Time 75600, Note Name: G#5
Note OFF: Time 75600, Note Name: F5
Note ON: Time 75600, Note Name: F#5, Velocity: 67
Note ON: Time 75600, Note Name: D#5, Velocity: 56
Note ON: Time 75600, Note Name: D#6, Velocity: 67
Note OFF: Time 75840, Note Name: D#6
Note OFF: Time 75840, Note Name: D#5
Note OFF: Time 75840, Note Name: F#5
Note ON: Time 75840, Note Name: C#5, Velocity: 55
Note ON: Time 75840, Note Name: F#5, Velocity: 65
Note ON: Time 75840, Note Name: C#6, Velocity: 65
Note OFF: Time 76200, Note Name: C#6
Note OFF: Time 76200, Note Name: F#5
Note OFF: Time 76200, Note Name: C#5
Note ON: Time 76200, Note Name: A#4, Velocity: 54
Note ON: Time 76200, Note Name: F#5, Velocity: 64
Note ON: Time 76200, Note Name: A#5, Velocity: 64
Note OFF: Time 76320, Note Name: A#5
Note OFF: Time 76320, Note Name: F#5
Note OFF: Time 76320, Note Name: A#4
Note ON: Time 76320, Note Name: C5, Velocity: 52
Note ON: Time 76320, Note Name: G#5, Velocity: 62
Note ON: Time 76320, Note Name: C6, Velocity: 62
Note OFF: Time 77040, Note Name: C6
Note OFF: Time 77040, Note Name: G#5
Note OFF: Time 77040, Note Name: C5
Note ON: Time 77040, Note Name: A#4, Velocity: 54
Note ON: Time 77040, Note Name: F#5, Velocity: 64
Note ON: Time 77040, Note Name: A#5, Velocity: 64
Note OFF: Time 77280, Note Name: A#5
Note OFF: Time 77280, Note Name: F#5
Note OFF: Time 77280, Note Name: A#4
Note ON: Time 77280, Note Name: G#4, Velocity: 57
Note ON: Time 77280, Note Name: F5, Velocity: 68
Note ON: Time 77280, Note Name: G#5, Velocity: 68
Note OFF: Time 77520, Note Name: G#5
Note OFF: Time 77520, Note Name: F5
Note OFF: Time 77520, Note Name: G#4
Note ON: Time 77520, Note Name: A#4, Velocity: 61
Note ON: Time 77520, Note Name: F5, Velocity: 72
Note ON: Time 77520, Note Name: A#5, Velocity: 72
Note OFF: Time 77760, Note Name: A#5
Note OFF: Time 77760, Note Name: F5
Note OFF: Time 77760, Note Name: A#4
Note ON: Time 77760, Note Name: F5, Velocity: 77
Note ON: Time 77760, Note Name: B4, Velocity: 65
Note ON: Time 77760, Note Name: B5, Velocity: 77
Note OFF: Time 78240, Note Name: B5
Note OFF: Time 78240, Note Name: B4
Note OFF: Time 78240, Note Name: F5
Note ON: Time 78240, Note Name: F5, Velocity: 75
Note ON: Time 78240, Note Name: A#4, Velocity: 63
Note ON: Time 78240, Note Name: A#5, Velocity: 75
Note OFF: Time 78480, Note Name: A#5
Note OFF: Time 78480, Note Name: A#4
Note OFF: Time 78480, Note Name: F5
Note ON: Time 78480, Note Name: B4, Velocity: 66
Note ON: Time 78480, Note Name: F5, Velocity: 78
Note ON: Time 78480, Note Name: B5, Velocity: 78
Note OFF: Time 79680, Note Name: B5
Note OFF: Time 79680, Note Name: F5
Note OFF: Time 79680, Note Name: B4
Note ON: Time 79680, Note Name: A#4, Velocity: 64
Note ON: Time 79680, Note Name: F5, Velocity: 76
Note ON: Time 79680, Note Name: A#5, Velocity: 76
Note OFF: Time 79920, Note Name: A#5
Note OFF: Time 79920, Note Name: F5
Note OFF: Time 79920, Note Name: A#4
Note ON: Time 79920, Note Name: B4, Velocity: 68
Note ON: Time 79920, Note Name: F5, Velocity: 81
Note ON: Time 79920, Note Name: B5, Velocity: 81
Note OFF: Time 80160, Note Name: B5
Note OFF: Time 80160, Note Name: F5
Note OFF: Time 80160, Note Name: B4
Note ON: Time 80160, Note Name: A#4, Velocity: 66
Note ON: Time 80160, Note Name: F5, Velocity: 78
Note ON: Time 80160, Note Name: A#5, Velocity: 78
Note OFF: Time 80400, Note Name: A#5
Note OFF: Time 80400, Note Name: F5
Note OFF: Time 80400, Note Name: A#4
Note ON: Time 80400, Note Name: B4, Velocity: 66
Note ON: Time 80400, Note Name: F5, Velocity: 78
Note ON: Time 80400, Note Name: B5, Velocity: 78
Note OFF: Time 80640, Note Name: B5
Note OFF: Time 80640, Note Name: F5
Note OFF: Time 80640, Note Name: B4
Note ON: Time 80640, Note Name: B4, Velocity: 68
Note ON: Time 80640, Note Name: F#5, Velocity: 81
Note ON: Time 80640, Note Name: B5, Velocity: 81
Note OFF: Time 81120, Note Name: B5
Note OFF: Time 81120, Note Name: F#5
Note OFF: Time 81120, Note Name: B4
Note ON: Time 81120, Note Name: A#4, Velocity: 69
Note ON: Time 81120, Note Name: F#5, Velocity: 82
Note ON: Time 81120, Note Name: A#5, Velocity: 82
Note OFF: Time 81360, Note Name: A#5
Note OFF: Time 81360, Note Name: F#5
Note OFF: Time 81360, Note Name: A#4
Note ON: Time 81360, Note Name: A#6, Velocity: 96
Note ON: Time 81360, Note Name: F#6, Velocity: 96
Note ON: Time 81360, Note Name: A#5, Velocity: 81
Note OFF: Time 82440, Note Name: A#5
Note OFF: Time 82440, Note Name: F#6
Note OFF: Time 82440, Note Name: A#6
Note ON: Time 82440, Note Name: C6, Velocity: 80
Note ON: Time 82440, Note Name: F#5, Velocity: 80
Note ON: Time 82440, Note Name: C5, Velocity: 68
Note OFF: Time 82550, Note Name: C5
Note OFF: Time 82550, Note Name: F#5
Note OFF: Time 82550, Note Name: C6
Note ON: Time 82560, Note Name: C5, Velocity: 68
Note ON: Time 82560, Note Name: F#5, Velocity: 80
Note ON: Time 82560, Note Name: C6, Velocity: 80
Note OFF: Time 82790, Note Name: C6
Note OFF: Time 82790, Note Name: F#5
Note OFF: Time 82790, Note Name: C5
Note ON: Time 82800, Note Name: C5, Velocity: 79
Note ON: Time 82800, Note Name: F#5, Velocity: 93
Note ON: Time 82800, Note Name: C6, Velocity: 93
Note OFF: Time 83160, Note Name: C6
Note OFF: Time 83160, Note Name: F#5
Note OFF: Time 83160, Note Name: C5
Note ON: Time 83160, Note Name: F6, Velocity: 89
Note ON: Time 83160, Note Name: G#5, Velocity: 89
Note ON: Time 83160, Note Name: F5, Velocity: 75
Note OFF: Time 83280, Note Name: F5
Note OFF: Time 83280, Note Name: G#5
Note OFF: Time 83280, Note Name: F6
Note ON: Time 83280, Note Name: D#6, Velocity: 92
Note ON: Time 83280, Note Name: F#5, Velocity: 92
Note ON: Time 83280, Note Name: D#5, Velocity: 78
Note OFF: Time 83520, Note Name: D#5
Note OFF: Time 83520, Note Name: F#5
Note OFF: Time 83520, Note Name: D#6
Note ON: Time 83520, Note Name: C#6, Velocity: 104
Note ON: Time 83520, Note Name: F5, Velocity: 104
Note ON: Time 83520, Note Name: C#5, Velocity: 88
Note OFF: Time 83640, Note Name: C#5
Note OFF: Time 83640, Note Name: F5
Note OFF: Time 83640, Note Name: C#6
Note ON: Time 84240, Note Name: F4, Velocity: 97
Note OFF: Time 84360, Note Name: F4
Note ON: Time 84360, Note Name: C#5, Velocity: 75
Note OFF: Time 84480, Note Name: C#5
Note ON: Time 84480, Note Name: G#5, Velocity: 79
Note OFF: Time 84600, Note Name: G#5
Note ON: Time 84600, Note Name: F5, Velocity: 83
Note OFF: Time 84720, Note Name: F5
Note ON: Time 84720, Note Name: C#6, Velocity: 87
Note OFF: Time 84840, Note Name: C#6
Note ON: Time 84840, Note Name: A#6, Velocity: 91
Note OFF: Time 84960, Note Name: A#6
Note ON: Time 84960, Note Name: C6, Velocity: 86
Note ON: Time 84960, Note Name: G#6, Velocity: 96
Note OFF: Time 85200, Note Name: G#6
Note OFF: Time 85200, Note Name: C6
Note ON: Time 85680, Note Name: F#4, Velocity: 97
Note OFF: Time 85800, Note Name: F#4
Note ON: Time 85800, Note Name: C5, Velocity: 75
Note OFF: Time 85920, Note Name: C5
Note ON: Time 85920, Note Name: G#5, Velocity: 80
Note OFF: Time 86040, Note Name: G#5
Note ON: Time 86040, Note Name: F#5, Velocity: 84
Note OFF: Time 86160, Note Name: F#5
Note ON: Time 86160, Note Name: C6, Velocity: 88
Note OFF: Time 86280, Note Name: C6
Note ON: Time 86280, Note Name: G#6, Velocity: 93
Note OFF: Time 86400, Note Name: G#6
Note ON: Time 86400, Note Name: C#6, Velocity: 87
Note ON: Time 86400, Note Name: F6, Velocity: 97
Note OFF: Time 86640, Note Name: F6
Note OFF: Time 86640, Note Name: C#6
Note ON: Time 87120, Note Name: F4, Velocity: 97
Note OFF: Time 87240, Note Name: F4
Note ON: Time 87240, Note Name: C#5, Velocity: 75
Note OFF: Time 87360, Note Name: C#5
Note ON: Time 87360, Note Name: G#5, Velocity: 79
Note OFF: Time 87480, Note Name: G#5
Note ON: Time 87480, Note Name: F5, Velocity: 83
Note OFF: Time 87600, Note Name: F5
Note ON: Time 87600, Note Name: C#6, Velocity: 87
Note OFF: Time 87720, Note Name: C#6
Note ON: Time 87720, Note Name: A#6, Velocity: 91
Note OFF: Time 87840, Note Name: A#6
Note ON: Time 87840, Note Name: C6, Velocity: 86
Note ON: Time 87840, Note Name: G#6, Velocity: 96
Note OFF: Time 88080, Note Name: G#6
Note OFF: Time 88080, Note Name: C6
Note ON: Time 88560, Note Name: F#4, Velocity: 97
Note OFF: Time 88680, Note Name: F#4
Note ON: Time 88680, Note Name: C5, Velocity: 75
Note OFF: Time 88800, Note Name: C5
Note ON: Time 88800, Note Name: G#5, Velocity: 80
Note OFF: Time 88920, Note Name: G#5
Note ON: Time 88920, Note Name: F#5, Velocity: 84
Note OFF: Time 89040, Note Name: F#5
Note ON: Time 89040, Note Name: C6, Velocity: 88
Note OFF: Time 89160, Note Name: C6
Note ON: Time 89160, Note Name: G#6, Velocity: 93
Note OFF: Time 89280, Note Name: G#6
Note ON: Time 89280, Note Name: C#6, Velocity: 87
Note ON: Time 89280, Note Name: F6, Velocity: 97
Note OFF: Time 89520, Note Name: F6
Note OFF: Time 89520, Note Name: C#6
Note ON: Time 90000, Note Name: F4, Velocity: 97
Note OFF: Time 90120, Note Name: F4
Note ON: Time 90120, Note Name: C#5, Velocity: 75
Note OFF: Time 90240, Note Name: C#5
Note ON: Time 90240, Note Name: G#5, Velocity: 78
Note OFF: Time 90360, Note Name: G#5
Note ON: Time 90360, Note Name: F5, Velocity: 75
Note OFF: Time 90480, Note Name: F5
Note ON: Time 90480, Note Name: C#6, Velocity: 79
Note OFF: Time 90600, Note Name: C#6
Note ON: Time 90600, Note Name: G#6, Velocity: 75
Note OFF: Time 90720, Note Name: G#6
Note ON: Time 90720, Note Name: C#6, Velocity: 78
Note OFF: Time 90840, Note Name: C#6
Note ON: Time 90840, Note Name: F5, Velocity: 75
Note OFF: Time 90960, Note Name: F5
Note ON: Time 90960, Note Name: G#5, Velocity: 80
Note OFF: Time 91080, Note Name: G#5
Note ON: Time 91080, Note Name: C#5, Velocity: 75
Note OFF: Time 91200, Note Name: C#5
Note ON: Time 91200, Note Name: F4, Velocity: 79
Note OFF: Time 91320, Note Name: F4
Note ON: Time 91320, Note Name: G#4, Velocity: 75
Note OFF: Time 91440, Note Name: G#4
Note ON: Time 91440, Note Name: C#4, Velocity: 78
Note OFF: Time 91560, Note Name: C#4
Note ON: Time 91560, Note Name: F3, Velocity: 77
Note OFF: Time 91680, Note Name: F3
Note ON: Time 91680, Note Name: G#3, Velocity: 82
Note OFF: Time 91800, Note Name: G#3
Note ON: Time 91800, Note Name: C#3, Velocity: 79
Note OFF: Time 91920, Note Name: C#3
Note ON: Time 91920, Note Name: F2, Velocity: 87
Note OFF: Time 92040, Note Name: F2
Note ON: Time 92040, Note Name: C#3, Velocity: 85
Note OFF: Time 92160, Note Name: C#3
Note ON: Time 92880, Note Name: C#7, Velocity: 101
Note ON: Time 92880, Note Name: C#6, Velocity: 85
Note OFF: Time 93600, Note Name: C#6
Note OFF: Time 93600, Note Name: C#7
Note ON: Time 95520, Note Name: A3, Velocity: 29
Note OFF: Time 95600, Note Name: A3
Note ON: Time 95600, Note Name: A#3, Velocity: 31
Note OFF: Time 95680, Note Name: A#3
Note ON: Time 95680, Note Name: C#4, Velocity: 33
Note OFF: Time 95760, Note Name: C#4
Note ON: Time 95760, Note Name: F4, Velocity: 38
Note OFF: Time 95880, Note Name: F4
Note ON: Time 96240, Note Name: A3, Velocity: 29
Note OFF: Time 96320, Note Name: A3
Note ON: Time 96320, Note Name: A#3, Velocity: 31
Note OFF: Time 96400, Note Name: A#3
Note ON: Time 96400, Note Name: C#4, Velocity: 32
Note OFF: Time 96480, Note Name: C#4
Note ON: Time 96480, Note Name: F4, Velocity: 38
Note OFF: Time 96600, Note Name: F4
Note ON: Time 97920, Note Name: A#3, Velocity: 100
Note OFF: Time 98040, Note Name: A#3
Note ON: Time 98640, Note Name: A#6, Velocity: 92
Note ON: Time 98640, Note Name: F#6, Velocity: 92
Note ON: Time 98640, Note Name: A#5, Velocity: 78
Note OFF: Time 100080, Note Name: A#5
Note OFF: Time 100080, Note Name: F#6
Note OFF: Time 100080, Note Name: A#6
Note ON: Time 100080, Note Name: D#5, Velocity: 51
Note ON: Time 100080, Note Name: C6, Velocity: 61
Note ON: Time 100080, Note Name: D#6, Velocity: 61
Note OFF: Time 100440, Note Name: D#6
Note OFF: Time 100440, Note Name: C6
Note OFF: Time 100440, Note Name: D#5
Note ON: Time 100440, Note Name: F5, Velocity: 57
Note ON: Time 100440, Note Name: C6, Velocity: 68
Note ON: Time 100440, Note Name: F6, Velocity: 68
Note OFF: Time 100560, Note Name: F6
Note OFF: Time 100560, Note Name: C6
Note OFF: Time 100560, Note Name: F5
Note ON: Time 100560, Note Name: F#5, Velocity: 60
Note ON: Time 100560, Note Name: C6, Velocity: 71
Note ON: Time 100560, Note Name: F#6, Velocity: 71
Note OFF: Time 100800, Note Name: F#6
Note OFF: Time 100800, Note Name: C6
Note OFF: Time 100800, Note Name: F#5
Note ON: Time 100800, Note Name: F5, Velocity: 57
Note ON: Time 100800, Note Name: C#6, Velocity: 68
Note ON: Time 100800, Note Name: F6, Velocity: 68
Note OFF: Time 101040, Note Name: F6
Note OFF: Time 101040, Note Name: C#6
Note OFF: Time 101040, Note Name: F5
Note ON: Time 101280, Note Name: A3, Velocity: 27
Note OFF: Time 101360, Note Name: A3
Note ON: Time 101360, Note Name: A#3, Velocity: 29
Note OFF: Time 101440, Note Name: A#3
Note ON: Time 101440, Note Name: C#4, Velocity: 30
Note OFF: Time 101520, Note Name: C#4
Note ON: Time 101520, Note Name: F4, Velocity: 35
Note OFF: Time 101640, Note Name: F4
Note ON: Time 102000, Note Name: A3, Velocity: 27
Note OFF: Time 102080, Note Name: A3
Note ON: Time 102080, Note Name: A#3, Velocity: 29
Note OFF: Time 102160, Note Name: A#3
Note ON: Time 102160, Note Name: C#4, Velocity: 30
Note OFF: Time 102240, Note Name: C#4
Note ON: Time 102240, Note Name: F4, Velocity: 35
Note OFF: Time 102360, Note Name: F4
Note ON: Time 103680, Note Name: G#3, Velocity: 100
Note OFF: Time 103800, Note Name: G#3
Note ON: Time 104400, Note Name: G#6, Velocity: 90
Note ON: Time 104400, Note Name: F6, Velocity: 90
Note ON: Time 104400, Note Name: G#5, Velocity: 76
Note OFF: Time 105840, Note Name: G#5
Note OFF: Time 105840, Note Name: F6
Note OFF: Time 105840, Note Name: G#6
Note ON: Time 105840, Note Name: D#5, Velocity: 51
Note ON: Time 105840, Note Name: C6, Velocity: 60
Note ON: Time 105840, Note Name: D#6, Velocity: 60
Note OFF: Time 105984, Note Name: D#6
Note OFF: Time 105984, Note Name: C6
Note OFF: Time 105984, Note Name: D#5
Note ON: Time 105984, Note Name: C6, Velocity: 60
Note ON: Time 105984, Note Name: E5, Velocity: 51
Note ON: Time 105984, Note Name: E6, Velocity: 60
Note OFF: Time 106128, Note Name: E6
Note OFF: Time 106128, Note Name: E5
Note OFF: Time 106128, Note Name: C6
Note ON: Time 106128, Note Name: F5, Velocity: 55
Note ON: Time 106128, Note Name: C6, Velocity: 65
Note ON: Time 106128, Note Name: F6, Velocity: 65
Note OFF: Time 106272, Note Name: F6
Note OFF: Time 106272, Note Name: C6
Note OFF: Time 106272, Note Name: F5
Note ON: Time 106272, Note Name: G#5, Velocity: 61
Note ON: Time 106272, Note Name: C6, Velocity: 72
Note ON: Time 106272, Note Name: G#6, Velocity: 72
Note OFF: Time 106416, Note Name: G#6
Note OFF: Time 106416, Note Name: C6
Note OFF: Time 106416, Note Name: G#5
Note ON: Time 106416, Note Name: F#6, Velocity: 70
Note ON: Time 106416, Note Name: C6, Velocity: 70
Note ON: Time 106416, Note Name: F#5, Velocity: 70
Note OFF: Time 106560, Note Name: F#5
Note OFF: Time 106560, Note Name: C6
Note OFF: Time 106560, Note Name: F#6
Note ON: Time 106560, Note Name: F5, Velocity: 56
Note ON: Time 106560, Note Name: C#6, Velocity: 67
Note ON: Time 106560, Note Name: F6, Velocity: 67
Note OFF: Time 106800, Note Name: F6
Note OFF: Time 106800, Note Name: C#6
Note OFF: Time 106800, Note Name: F5
Note ON: Time 107280, Note Name: A4, Velocity: 81
Note ON: Time 107280, Note Name: F5, Velocity: 81
Note OFF: Time 107760, Note Name: F5
Note OFF: Time 107760, Note Name: A4
Note ON: Time 108000, Note Name: A3, Velocity: 81
Note ON: Time 108000, Note Name: F4, Velocity: 81
Note OFF: Time 108480, Note Name: F4
Note OFF: Time 108480, Note Name: A3
Note ON: Time 112800, Note Name: A3, Velocity: 27
Note OFF: Time 112880, Note Name: A3
Note ON: Time 112880, Note Name: A#3, Velocity: 29
Note OFF: Time 112960, Note Name: A#3
Note ON: Time 112960, Note Name: C#4, Velocity: 30
Note OFF: Time 113040, Note Name: C#4
Note ON: Time 113040, Note Name: F4, Velocity: 35
Note OFF: Time 113160, Note Name: F4
Note ON: Time 113520, Note Name: A3, Velocity: 29
Note OFF: Time 113600, Note Name: A3
Note ON: Time 113600, Note Name: A#3, Velocity: 30
Note OFF: Time 113680, Note Name: A#3
Note ON: Time 113680, Note Name: C#4, Velocity: 31
Note OFF: Time 113760, Note Name: C#4
Note ON: Time 113760, Note Name: F4, Velocity: 35
Note OFF: Time 113880, Note Name: F4
Note ON: Time 115200, Note Name: A#3, Velocity: 100
Note OFF: Time 115320, Note Name: A#3
Note ON: Time 115920, Note Name: A#5, Velocity: 78
Note ON: Time 115920, Note Name: F#6, Velocity: 92
Note ON: Time 115920, Note Name: A#6, Velocity: 92
Note OFF: Time 117000, Note Name: A#6
Note OFF: Time 117000, Note Name: F#6
Note OFF: Time 117000, Note Name: A#5
Note ON: Time 117000, Note Name: D#6, Velocity: 58
Note ON: Time 117000, Note Name: C6, Velocity: 58
Note ON: Time 117000, Note Name: D#5, Velocity: 49
Note OFF: Time 117120, Note Name: D#5
Note OFF: Time 117120, Note Name: C6
Note OFF: Time 117120, Note Name: D#6
Note ON: Time 117120, Note Name: D#6, Velocity: 58
Note ON: Time 117120, Note Name: C6, Velocity: 58
Note ON: Time 117120, Note Name: D#5, Velocity: 49
Note OFF: Time 117360, Note Name: D#5
Note OFF: Time 117360, Note Name: C6
Note OFF: Time 117360, Note Name: D#6
Note ON: Time 117360, Note Name: D#5, Velocity: 51
Note ON: Time 117360, Note Name: C6, Velocity: 61
Note ON: Time 117360, Note Name: D#6, Velocity: 61
Note OFF: Time 117720, Note Name: D#6
Note OFF: Time 117720, Note Name: C6
Note OFF: Time 117720, Note Name: D#5
Note ON: Time 117720, Note Name: C6, Velocity: 68
Note ON: Time 117720, Note Name: F6, Velocity: 68
Note ON: Time 117720, Note Name: F5, Velocity: 57
Note OFF: Time 117840, Note Name: F5
Note OFF: Time 117840, Note Name: F6
Note OFF: Time 117840, Note Name: C6
Note ON: Time 117840, Note Name: C6, Velocity: 71
Note ON: Time 117840, Note Name: F#5, Velocity: 60
Note ON: Time 117840, Note Name: F#6, Velocity: 71
Note OFF: Time 118080, Note Name: F#6
Note OFF: Time 118080, Note Name: F#5
Note OFF: Time 118080, Note Name: C6
Note ON: Time 118080, Note Name: C#6, Velocity: 68
Note ON: Time 118080, Note Name: F5, Velocity: 57
Note ON: Time 118080, Note Name: F6, Velocity: 68
Note OFF: Time 118320, Note Name: F6
Note OFF: Time 118320, Note Name: F5
Note OFF: Time 118320, Note Name: C#6
Note ON: Time 118560, Note Name: A3, Velocity: 29
Note OFF: Time 118640, Note Name: A3
Note ON: Time 118640, Note Name: A#3, Velocity: 30
Note OFF: Time 118720, Note Name: A#3
Note ON: Time 118720, Note Name: C#4, Velocity: 32
Note OFF: Time 118800, Note Name: C#4
Note ON: Time 118800, Note Name: F4, Velocity: 37
Note OFF: Time 118920, Note Name: F4
Note ON: Time 119280, Note Name: A3, Velocity: 29
Note OFF: Time 119360, Note Name: A3
Note ON: Time 119360, Note Name: A#3, Velocity: 30
Note OFF: Time 119440, Note Name: A#3
Note ON: Time 119440, Note Name: C#4, Velocity: 32
Note OFF: Time 119520, Note Name: C#4
Note ON: Time 119520, Note Name: F4, Velocity: 37
Note OFF: Time 119640, Note Name: F4
Note ON: Time 120960, Note Name: C3, Velocity: 100
Note OFF: Time 121080, Note Name: C3
Note ON: Time 121680, Note Name: C6, Velocity: 76
Note ON: Time 121680, Note Name: G#6, Velocity: 90
Note ON: Time 121680, Note Name: C7, Velocity: 90
Note OFF: Time 123120, Note Name: C7
Note OFF: Time 123120, Note Name: G#6
Note OFF: Time 123120, Note Name: C6
Note ON: Time 123120, Note Name: G6, Velocity: 73
Note ON: Time 123120, Note Name: C#7, Velocity: 73
Note ON: Time 123120, Note Name: C#6, Velocity: 62
Note OFF: Time 123300, Note Name: C#6
Note OFF: Time 123300, Note Name: C#7
Note OFF: Time 123300, Note Name: G6
Note ON: Time 123300, Note Name: C6, Velocity: 60
Note ON: Time 123300, Note Name: G6, Velocity: 71
Note ON: Time 123300, Note Name: C7, Velocity: 71
Note OFF: Time 123480, Note Name: C7
Note OFF: Time 123480, Note Name: G6
Note OFF: Time 123480, Note Name: C6
Note ON: Time 123480, Note Name: F6, Velocity: 67
Note ON: Time 123480, Note Name: F5, Velocity: 56
Note ON: Time 123480, Note Name: C6, Velocity: 67
Note OFF: Time 123660, Note Name: C6
Note OFF: Time 123660, Note Name: F5
Note OFF: Time 123660, Note Name: F6
Note ON: Time 123660, Note Name: G6, Velocity: 68
Note ON: Time 123660, Note Name: C6, Velocity: 68
Note ON: Time 123660, Note Name: G5, Velocity: 57
Note OFF: Time 123840, Note Name: G5
Note OFF: Time 123840, Note Name: C6
Note OFF: Time 123840, Note Name: G6
Note ON: Time 123840, Note Name: G#6, Velocity: 73
Note ON: Time 123840, Note Name: C6, Velocity: 73
Note ON: Time 123840, Note Name: G#5, Velocity: 62
Note OFF: Time 124080, Note Name: G#5
Note OFF: Time 124080, Note Name: C6
Note OFF: Time 124080, Note Name: G#6
Note ON: Time 124560, Note Name: C5, Velocity: 81
Note ON: Time 124560, Note Name: G#5, Velocity: 81
Note ON: Time 124560, Note Name: G#4, Velocity: 68
Note ON: Time 124560, Note Name: F5, Velocity: 81
Note OFF: Time 125040, Note Name: F5
Note OFF: Time 125040, Note Name: C5
Note OFF: Time 125040, Note Name: G#5
Note OFF: Time 125040, Note Name: G#4
Note ON: Time 125280, Note Name: C4, Velocity: 81
Note ON: Time 125280, Note Name: G#4, Velocity: 81
Note ON: Time 125280, Note Name: G#3, Velocity: 68
Note ON: Time 125280, Note Name: F4, Velocity: 81
Note OFF: Time 125760, Note Name: F4
Note OFF: Time 125760, Note Name: C4
Note OFF: Time 125760, Note Name: G#4
Note OFF: Time 125760, Note Name: G#3
Note ON: Time 127440, Note Name: F2, Velocity: 94
Note OFF: Time 128160, Note Name: F2
Note ON: Time 128160, Note Name: D2, Velocity: 50
Note ON: Time 128240, Note Name: D#2, Velocity: 51
Note OFF: Time 128250, Note Name: D2
Note ON: Time 128320, Note Name: F2, Velocity: 51
Note OFF: Time 128330, Note Name: D#2
Note ON: Time 128400, Note Name: D#2, Velocity: 52
Note OFF: Time 128410, Note Name: F2
Note ON: Time 128480, Note Name: F2, Velocity: 53
Note OFF: Time 128490, Note Name: D#2
Note ON: Time 128560, Note Name: D#2, Velocity: 55
Note OFF: Time 128570, Note Name: F2
Note ON: Time 128640, Note Name: F2, Velocity: 56
Note OFF: Time 128650, Note Name: D#2
Note ON: Time 128720, Note Name: D#2, Velocity: 56
Note OFF: Time 128730, Note Name: F2
Note ON: Time 128800, Note Name: F2, Velocity: 57
Note OFF: Time 128810, Note Name: D#2
Note ON: Time 128880, Note Name: D#2, Velocity: 58
Note OFF: Time 128890, Note Name: F2
Note ON: Time 128940, Note Name: F2, Velocity: 59
Note OFF: Time 128950, Note Name: D#2
Note ON: Time 129000, Note Name: D#2, Velocity: 60
Note OFF: Time 129010, Note Name: F2
Note ON: Time 129060, Note Name: F2, Velocity: 61
Note OFF: Time 129070, Note Name: D#2
Note OFF: Time 129120, Note Name: F2
Note ON: Time 129120, Note Name: D#2, Velocity: 62
Note OFF: Time 129180, Note Name: D#2
Note ON: Time 129180, Note Name: F2, Velocity: 62
Note OFF: Time 129240, Note Name: F2
Note ON: Time 129240, Note Name: D#2, Velocity: 62
Note OFF: Time 129300, Note Name: D#2
Note ON: Time 129300, Note Name: F2, Velocity: 63
Note OFF: Time 129360, Note Name: F2
Note ON: Time 129360, Note Name: D#2, Velocity: 64
Note ON: Time 129440, Note Name: D2, Velocity: 73
Note OFF: Time 129450, Note Name: D#2
Note ON: Time 129520, Note Name: D#2, Velocity: 73
Note OFF: Time 129530, Note Name: D2
Note ON: Time 129600, Note Name: F7, Velocity: 97
Note OFF: Time 129610, Note Name: D#2
Note OFF: Time 130560, Note Name: F7
Note ON: Time 130560, Note Name: D#7, Velocity: 68
Note OFF: Time 130680, Note Name: D#7
Note ON: Time 130680, Note Name: C#7, Velocity: 61
Note OFF: Time 130800, Note Name: C#7
Note ON: Time 130800, Note Name: G#6, Velocity: 65
Note OFF: Time 130920, Note Name: G#6
Note ON: Time 130920, Note Name: F6, Velocity: 59
Note OFF: Time 131040, Note Name: F6
Note ON: Time 131040, Note Name: D#6, Velocity: 62
Note OFF: Time 131160, Note Name: D#6
Note ON: Time 131160, Note Name: C#6, Velocity: 56
Note OFF: Time 131280, Note Name: C#6
Note ON: Time 131280, Note Name: G#5, Velocity: 58
Note OFF: Time 131400, Note Name: G#5
Note ON: Time 131400, Note Name: F5, Velocity: 53
Note OFF: Time 131520, Note Name: F5
Note ON: Time 131520, Note Name: D#5, Velocity: 55
Note OFF: Time 131640, Note Name: D#5
Note ON: Time 131640, Note Name: C#5, Velocity: 50
Note OFF: Time 131760, Note Name: C#5
Note ON: Time 131760, Note Name: G#4, Velocity: 52
Note OFF: Time 132000, Note Name: G#4
Note ON: Time 132480, Note Name: C5, Velocity: 55
Note OFF: Time 132600, Note Name: C5
Note ON: Time 132600, Note Name: C#5, Velocity: 52
Note OFF: Time 132720, Note Name: C#5
Note ON: Time 132720, Note Name: D#5, Velocity: 50
Note OFF: Time 132840, Note Name: D#5
Note ON: Time 132840, Note Name: F5, Velocity: 47
Note OFF: Time 132960, Note Name: F5
Note ON: Time 132960, Note Name: F#5, Velocity: 45
Note ON: Time 133073, Note Name: G#5, Velocity: 42
Note OFF: Time 133080, Note Name: F#5
Note OFF: Time 133193, Note Name: G#5
Note ON: Time 133200, Note Name: A5, Velocity: 40
Note OFF: Time 133320, Note Name: A5
Note ON: Time 133920, Note Name: A5, Velocity: 50
Note OFF: Time 134040, Note Name: A5
Note ON: Time 134040, Note Name: G#5, Velocity: 49
Note OFF: Time 134160, Note Name: G#5
Note ON: Time 134160, Note Name: G5, Velocity: 47
Note OFF: Time 134280, Note Name: G5
Note ON: Time 134280, Note Name: F#5, Velocity: 46
Note OFF: Time 134400, Note Name: F#5
Note ON: Time 134400, Note Name: F5, Velocity: 44
Note OFF: Time 134520, Note Name: F5
Note ON: Time 134520, Note Name: E5, Velocity: 42
Note OFF: Time 134640, Note Name: E5
Note ON: Time 134640, Note Name: D#5, Velocity: 41
Note OFF: Time 134760, Note Name: D#5
Note ON: Time 135360, Note Name: F7, Velocity: 97
Note OFF: Time 136320, Note Name: F7
Note ON: Time 136320, Note Name: D#7, Velocity: 68
Note OFF: Time 136440, Note Name: D#7
Note ON: Time 136440, Note Name: C#7, Velocity: 61
Note OFF: Time 136560, Note Name: C#7
Note ON: Time 136560, Note Name: G#6, Velocity: 65
Note OFF: Time 136680, Note Name: G#6
Note ON: Time 136680, Note Name: F6, Velocity: 59
Note OFF: Time 136800, Note Name: F6
Note ON: Time 136800, Note Name: D#6, Velocity: 62
Note OFF: Time 136920, Note Name: D#6
Note ON: Time 136920, Note Name: C#6, Velocity: 57
Note OFF: Time 137040, Note Name: C#6
Note ON: Time 137040, Note Name: G#5, Velocity: 58
Note OFF: Time 137160, Note Name: G#5
Note ON: Time 137160, Note Name: F5, Velocity: 53
Note OFF: Time 137280, Note Name: F5
Note ON: Time 137280, Note Name: D#5, Velocity: 55
Note OFF: Time 137400, Note Name: D#5
Note ON: Time 137400, Note Name: C#5, Velocity: 51
Note OFF: Time 137520, Note Name: C#5
Note ON: Time 137520, Note Name: G#4, Velocity: 52
Note OFF: Time 137760, Note Name: G#4
Note ON: Time 138240, Note Name: C5, Velocity: 42
Note OFF: Time 138360, Note Name: C5
Note ON: Time 138360, Note Name: C#5, Velocity: 41
Note OFF: Time 138480, Note Name: C#5
Note ON: Time 138480, Note Name: D#5, Velocity: 41
Note OFF: Time 138600, Note Name: D#5
Note ON: Time 138600, Note Name: F5, Velocity: 40
Note OFF: Time 138720, Note Name: F5
Note ON: Time 138720, Note Name: F#5, Velocity: 39
Note ON: Time 138833, Note Name: G#5, Velocity: 38
Note OFF: Time 138840, Note Name: F#5
Note OFF: Time 138953, Note Name: G#5
Note ON: Time 138960, Note Name: A5, Velocity: 37
Note OFF: Time 139080, Note Name: A5
Note ON: Time 139680, Note Name: A5, Velocity: 42
Note OFF: Time 139800, Note Name: A5
Note ON: Time 139800, Note Name: G#5, Velocity: 41
Note OFF: Time 139920, Note Name: G#5
Note ON: Time 139920, Note Name: G5, Velocity: 40
Note OFF: Time 140040, Note Name: G5
Note ON: Time 140040, Note Name: F#5, Velocity: 39
Note OFF: Time 140160, Note Name: F#5
Note ON: Time 140160, Note Name: F5, Velocity: 37
Note OFF: Time 140280, Note Name: F5
Note ON: Time 140280, Note Name: E5, Velocity: 36
Note OFF: Time 140400, Note Name: E5
Note ON: Time 140400, Note Name: D#5, Velocity: 35
Note OFF: Time 140640, Note Name: D#5
Note ON: Time 141120, Note Name: B4, Velocity: 40
Note ON: Time 141120, Note Name: F5, Velocity: 59
Note OFF: Time 142080, Note Name: F5
Note ON: Time 142080, Note Name: D#5, Velocity: 53
Note OFF: Time 142440, Note Name: D#5
Note ON: Time 142440, Note Name: C#5, Velocity: 52
Note OFF: Time 142550, Note Name: C#5
Note OFF: Time 142560, Note Name: B4
Note ON: Time 142560, Note Name: B4, Velocity: 43
Note ON: Time 142560, Note Name: C#5, Velocity: 58
Note OFF: Time 143280, Note Name: C#5
Note OFF: Time 143280, Note Name: B4
Note ON: Time 143280, Note Name: A#4, Velocity: 56
Note ON: Time 143280, Note Name: F#5, Velocity: 56
Note OFF: Time 144000, Note Name: A#4
Note ON: Time 144000, Note Name: B4, Velocity: 50
Note OFF: Time 144480, Note Name: F#5
Note ON: Time 144480, Note Name: F5, Velocity: 52
Note OFF: Time 144720, Note Name: F5
Note ON: Time 144720, Note Name: F5, Velocity: 51
Note OFF: Time 144960, Note Name: F5
Note ON: Time 144960, Note Name: D#5, Velocity: 50
Note OFF: Time 145200, Note Name: D#5
Note ON: Time 145200, Note Name: C#5, Velocity: 49
Note OFF: Time 145430, Note Name: C#5
Note OFF: Time 145440, Note Name: B4
Note ON: Time 145440, Note Name: A#4, Velocity: 44
Note ON: Time 145440, Note Name: C#5, Velocity: 44
Note ON: Time 145440, Note Name: A#5, Velocity: 56
Note OFF: Time 146160, Note Name: A#5
Note OFF: Time 146160, Note Name: C#5
Note OFF: Time 146160, Note Name: A#4
Note ON: Time 146160, Note Name: G#4, Velocity: 44
Note ON: Time 146160, Note Name: C#5, Velocity: 44
Note ON: Time 146160, Note Name: A#5, Velocity: 62
Note OFF: Time 146640, Note Name: A#5
Note ON: Time 146640, Note Name: A#5, Velocity: 64
Note ON: Time 146820, Note Name: G4, Velocity: 44
Note OFF: Time 146880, Note Name: G4
Note OFF: Time 146880, Note Name: G#4
Note OFF: Time 146880, Note Name: C#5
Note OFF: Time 146880, Note Name: A#5
Note ON: Time 146880, Note Name: C#5, Velocity: 45
Note ON: Time 146880, Note Name: A#5, Velocity: 68
Note OFF: Time 147360, Note Name: A#5
Note ON: Time 147360, Note Name: D#5, Velocity: 57
Note OFF: Time 147600, Note Name: D#5
Note ON: Time 147600, Note Name: D#5, Velocity: 57
Note OFF: Time 147840, Note Name: D#5
Note ON: Time 147840, Note Name: F5, Velocity: 51
Note OFF: Time 147900, Note Name: F5
Note ON: Time 147900, Note Name: G5, Velocity: 51
Note OFF: Time 147960, Note Name: G5
Note ON: Time 147960, Note Name: F5, Velocity: 56
Note OFF: Time 148200, Note Name: F5
Note ON: Time 148200, Note Name: D#5, Velocity: 56
Note OFF: Time 148310, Note Name: D#5
Note OFF: Time 148320, Note Name: C#5
Note ON: Time 148320, Note Name: C#5, Velocity: 49
Note ON: Time 148320, Note Name: D#5, Velocity: 59
Note OFF: Time 149040, Note Name: D#5
Note OFF: Time 149040, Note Name: C#5
Note ON: Time 149040, Note Name: C5, Velocity: 53
Note ON: Time 149040, Note Name: G#5, Velocity: 64
Note OFF: Time 149760, Note Name: C5
Note ON: Time 149760, Note Name: C#5, Velocity: 55
Note OFF: Time 150000, Note Name: G#5
Note ON: Time 150000, Note Name: G5, Velocity: 60
Note OFF: Time 150240, Note Name: G5
Note ON: Time 150240, Note Name: F5, Velocity: 59
Note OFF: Time 150480, Note Name: F5
Note ON: Time 150480, Note Name: G5, Velocity: 60
Note OFF: Time 150720, Note Name: G5
Note ON: Time 150720, Note Name: F5, Velocity: 59
Note OFF: Time 151080, Note Name: F5
Note ON: Time 151080, Note Name: D#5, Velocity: 56
Note OFF: Time 151200, Note Name: D#5
Note OFF: Time 151200, Note Name: C#5
Note ON: Time 151200, Note Name: C5, Velocity: 56
Note ON: Time 151200, Note Name: C6, Velocity: 56
Note OFF: Time 151920, Note Name: C6
Note ON: Time 151920, Note Name: C6, Velocity: 64
Note OFF: Time 152400, Note Name: C6
Note ON: Time 152400, Note Name: C6, Velocity: 63
Note OFF: Time 152630, Note Name: C6
Note OFF: Time 152640, Note Name: C5
Note ON: Time 152640, Note Name: C6, Velocity: 68
Note OFF: Time 153600, Note Name: C6
Note ON: Time 153600, Note Name: A#5, Velocity: 63
Note OFF: Time 153960, Note Name: A#5
Note ON: Time 153960, Note Name: G#5, Velocity: 63
Note OFF: Time 154070, Note Name: G#5
Note ON: Time 154080, Note Name: G#5, Velocity: 63
Note OFF: Time 154800, Note Name: G#5
Note ON: Time 154800, Note Name: C#6, Velocity: 75
Note OFF: Time 155520, Note Name: C#6
Note ON: Time 155520, Note Name: C#6, Velocity: 82
Note OFF: Time 156000, Note Name: C#6
Note ON: Time 156000, Note Name: C6, Velocity: 78
Note OFF: Time 156230, Note Name: C6
Note ON: Time 156240, Note Name: C6, Velocity: 75
Note OFF: Time 156480, Note Name: C6
Note ON: Time 156480, Note Name: A#5, Velocity: 71
Note OFF: Time 156840, Note Name: A#5
Note ON: Time 156840, Note Name: G#5, Velocity: 63
Note OFF: Time 156960, Note Name: G#5
Note ON: Time 156960, Note Name: F6, Velocity: 80
Note OFF: Time 157680, Note Name: F6
Note ON: Time 157680, Note Name: F6, Velocity: 77
Note OFF: Time 158160, Note Name: F6
Note ON: Time 158160, Note Name: F6, Velocity: 81
Note OFF: Time 158390, Note Name: F6
Note ON: Time 158400, Note Name: F6, Velocity: 85
Note OFF: Time 159120, Note Name: F6
Note ON: Time 159120, Note Name: D#6, Velocity: 72
Note OFF: Time 159360, Note Name: D#6
Note ON: Time 159360, Note Name: C#6, Velocity: 71
Note OFF: Time 159600, Note Name: C#6
Note ON: Time 159600, Note Name: A#5, Velocity: 70
Note OFF: Time 159840, Note Name: A#5
Note ON: Time 159840, Note Name: C6, Velocity: 75
Note OFF: Time 160560, Note Name: C6
Note ON: Time 160560, Note Name: A#5, Velocity: 71
Note OFF: Time 160800, Note Name: A#5
Note ON: Time 160800, Note Name: G#5, Velocity: 68
Note OFF: Time 161040, Note Name: G#5
Note ON: Time 161040, Note Name: F5, Velocity: 63
Note OFF: Time 161280, Note Name: F5
Note ON: Time 161280, Note Name: A#5, Velocity: 69
Note OFF: Time 161520, Note Name: A#5
Note ON: Time 161520, Note Name: G#5, Velocity: 64
Note OFF: Time 161760, Note Name: G#5
Note ON: Time 161760, Note Name: F#5, Velocity: 61
Note OFF: Time 161990, Note Name: F#5
Note ON: Time 162000, Note Name: F#5, Velocity: 55
Note OFF: Time 162060, Note Name: F#5
Note ON: Time 162060, Note Name: G#5, Velocity: 55
Note OFF: Time 162120, Note Name: G#5
Note ON: Time 162120, Note Name: F#5, Velocity: 63
Note OFF: Time 162240, Note Name: F#5
Note ON: Time 162240, Note Name: F5, Velocity: 58
Note OFF: Time 162600, Note Name: F5
Note ON: Time 162600, Note Name: E5, Velocity: 59
Note OFF: Time 162710, Note Name: E5
Note ON: Time 162720, Note Name: E5, Velocity: 59
Note OFF: Time 163440, Note Name: E5
Note ON: Time 163440, Note Name: F5, Velocity: 63
Note OFF: Time 163920, Note Name: F5
Note ON: Time 163920, Note Name: G#5, Velocity: 57
Note OFF: Time 164160, Note Name: G#5
Note ON: Time 164160, Note Name: G#4, Velocity: 57
Note ON: Time 164220, Note Name: G#5, Velocity: 57
Note OFF: Time 164640, Note Name: G#4
Note ON: Time 164640, Note Name: C5, Velocity: 63
Note OFF: Time 164880, Note Name: G#5
Note ON: Time 164880, Note Name: C6, Velocity: 63
Note OFF: Time 165120, Note Name: C6
Note OFF: Time 165120, Note Name: C5
Note ON: Time 165120, Note Name: A#4, Velocity: 63
Note ON: Time 165120, Note Name: A#5, Velocity: 63
Note OFF: Time 165480, Note Name: A#5
Note OFF: Time 165480, Note Name: A#4
Note ON: Time 165480, Note Name: G#4, Velocity: 63
Note ON: Time 165480, Note Name: G#5, Velocity: 63
Note OFF: Time 165590, Note Name: G#5
Note OFF: Time 165590, Note Name: G#4
Note ON: Time 165600, Note Name: G#4, Velocity: 63
Note ON: Time 165600, Note Name: G#5, Velocity: 63
Note OFF: Time 166320, Note Name: G#4
Note ON: Time 166320, Note Name: C#5, Velocity: 75
Note ON: Time 166320, Note Name: C#6, Velocity: 75
Note OFF: Time 167040, Note Name: C#6
Note OFF: Time 167040, Note Name: C#5
Note OFF: Time 167040, Note Name: G#5
Note ON: Time 167040, Note Name: F#5, Velocity: 60
Note ON: Time 167040, Note Name: G#5, Velocity: 60
Note ON: Time 167040, Note Name: C#5, Velocity: 75
Note ON: Time 167040, Note Name: C#6, Velocity: 75
Note OFF: Time 167400, Note Name: C#6
Note OFF: Time 167400, Note Name: C#5
Note ON: Time 167400, Note Name: C6, Velocity: 71
Note ON: Time 167400, Note Name: C5, Velocity: 71
Note OFF: Time 167520, Note Name: C5
Note OFF: Time 167520, Note Name: C6
Note ON: Time 167520, Note Name: G#5, Velocity: 70
Note ON: Time 167520, Note Name: F#5, Velocity: 70
Note ON: Time 167520, Note Name: C5, Velocity: 70
Note ON: Time 167520, Note Name: C6, Velocity: 70
Note OFF: Time 167760, Note Name: C6
Note OFF: Time 167760, Note Name: G#5
Note OFF: Time 167760, Note Name: G#5
Note OFF: Time 167760, Note Name: F#5
Note OFF: Time 167760, Note Name: C5
Note OFF: Time 167760, Note Name: F#5
Note ON: Time 167760, Note Name: G#5, Velocity: 60
Note ON: Time 167760, Note Name: F#5, Velocity: 60
Note ON: Time 167760, Note Name: C5, Velocity: 75
Note ON: Time 167760, Note Name: C6, Velocity: 75
Note OFF: Time 168120, Note Name: C6
Note OFF: Time 168120, Note Name: G#5
Note OFF: Time 168120, Note Name: F#5
Note OFF: Time 168120, Note Name: C5
Note ON: Time 168120, Note Name: A#4, Velocity: 71
Note ON: Time 168120, Note Name: A#5, Velocity: 71
Note OFF: Time 168240, Note Name: A#5
Note OFF: Time 168240, Note Name: A#4
Note ON: Time 168240, Note Name: F#5, Velocity: 60
Note ON: Time 168240, Note Name: G#4, Velocity: 63
Note ON: Time 168240, Note Name: G#5, Velocity: 63
Note OFF: Time 168480, Note Name: G#5
Note OFF: Time 168480, Note Name: G#4
Note OFF: Time 168480, Note Name: F#5
Note ON: Time 168480, Note Name: G#5, Velocity: 80
Note ON: Time 168480, Note Name: F5, Velocity: 68
Note ON: Time 168480, Note Name: F6, Velocity: 80
Note OFF: Time 169200, Note Name: F6
Note OFF: Time 169200, Note Name: F5
Note OFF: Time 169200, Note Name: G#5
Note ON: Time 169200, Note Name: F5, Velocity: 65
Note ON: Time 169200, Note Name: G#5, Velocity: 77
Note ON: Time 169200, Note Name: F6, Velocity: 77
Note OFF: Time 169680, Note Name: F6
Note OFF: Time 169680, Note Name: G#5
Note OFF: Time 169680, Note Name: F5
Note ON: Time 169680, Note Name: F5, Velocity: 66
Note ON: Time 169680, Note Name: G#5, Velocity: 78
Note ON: Time 169680, Note Name: F6, Velocity: 78
Note OFF: Time 169910, Note Name: F6
Note OFF: Time 169910, Note Name: G#5
Note OFF: Time 169910, Note Name: F5
Note ON: Time 169920, Note Name: F5, Velocity: 69
Note ON: Time 169920, Note Name: G#5, Velocity: 82
Note ON: Time 169920, Note Name: F6, Velocity: 82
Note OFF: Time 170640, Note Name: F6
Note OFF: Time 170640, Note Name: G#5
Note OFF: Time 170640, Note Name: F5
Note ON: Time 170640, Note Name: F#5, Velocity: 67
Note ON: Time 170640, Note Name: D#5, Velocity: 56
Note ON: Time 170640, Note Name: D#6, Velocity: 67
Note OFF: Time 170880, Note Name: D#6
Note OFF: Time 170880, Note Name: D#5
Note OFF: Time 170880, Note Name: F#5
Note ON: Time 170880, Note Name: C#5, Velocity: 55
Note ON: Time 170880, Note Name: F#5, Velocity: 65
Note ON: Time 170880, Note Name: C#6, Velocity: 65
Note OFF: Time 171240, Note Name: C#6
Note OFF: Time 171240, Note Name: F#5
Note OFF: Time 171240, Note Name: C#5
Note ON: Time 171240, Note Name: A#4, Velocity: 54
Note ON: Time 171240, Note Name: F#5, Velocity: 64
Note ON: Time 171240, Note Name: A#5, Velocity: 64
Note OFF: Time 171360, Note Name: A#5
Note OFF: Time 171360, Note Name: F#5
Note OFF: Time 171360, Note Name: A#4
Note ON: Time 171360, Note Name: C5, Velocity: 52
Note ON: Time 171360, Note Name: G#5, Velocity: 62
Note ON: Time 171360, Note Name: C6, Velocity: 62
Note OFF: Time 172080, Note Name: C6
Note OFF: Time 172080, Note Name: G#5
Note OFF: Time 172080, Note Name: C5
Note ON: Time 172080, Note Name: A#4, Velocity: 54
Note ON: Time 172080, Note Name: F#5, Velocity: 64
Note ON: Time 172080, Note Name: A#5, Velocity: 64
Note OFF: Time 172320, Note Name: A#5
Note OFF: Time 172320, Note Name: F#5
Note OFF: Time 172320, Note Name: A#4
Note ON: Time 172320, Note Name: G#4, Velocity: 57
Note ON: Time 172320, Note Name: F5, Velocity: 68
Note ON: Time 172320, Note Name: G#5, Velocity: 68
Note OFF: Time 172560, Note Name: G#5
Note OFF: Time 172560, Note Name: F5
Note OFF: Time 172560, Note Name: G#4
Note ON: Time 172560, Note Name: A#4, Velocity: 61
Note ON: Time 172560, Note Name: F5, Velocity: 72
Note ON: Time 172560, Note Name: A#5, Velocity: 72
Note OFF: Time 172800, Note Name: A#5
Note OFF: Time 172800, Note Name: F5
Note OFF: Time 172800, Note Name: A#4
Note ON: Time 172800, Note Name: F5, Velocity: 77
Note ON: Time 172800, Note Name: B4, Velocity: 65
Note ON: Time 172800, Note Name: B5, Velocity: 77
Note OFF: Time 173280, Note Name: B5
Note OFF: Time 173280, Note Name: B4
Note OFF: Time 173280, Note Name: F5
Note ON: Time 173280, Note Name: F5, Velocity: 75
Note ON: Time 173280, Note Name: A#4, Velocity: 63
Note ON: Time 173280, Note Name: A#5, Velocity: 75
Note OFF: Time 173520, Note Name: A#5
Note OFF: Time 173520, Note Name: A#4
Note OFF: Time 173520, Note Name: F5
Note ON: Time 173520, Note Name: B4, Velocity: 66
Note ON: Time 173520, Note Name: F5, Velocity: 78
Note ON: Time 173520, Note Name: B5, Velocity: 78
Note OFF: Time 174720, Note Name: B5
Note OFF: Time 174720, Note Name: F5
Note OFF: Time 174720, Note Name: B4
Note ON: Time 174720, Note Name: A#4, Velocity: 64
Note ON: Time 174720, Note Name: F5, Velocity: 76
Note ON: Time 174720, Note Name: A#5, Velocity: 76
Note OFF: Time 174960, Note Name: A#5
Note OFF: Time 174960, Note Name: F5
Note OFF: Time 174960, Note Name: A#4
Note ON: Time 174960, Note Name: B4, Velocity: 68
Note ON: Time 174960, Note Name: F5, Velocity: 81
Note ON: Time 174960, Note Name: B5, Velocity: 81
Note OFF: Time 175200, Note Name: B5
Note OFF: Time 175200, Note Name: F5
Note OFF: Time 175200, Note Name: B4
Note ON: Time 175200, Note Name: A#4, Velocity: 66
Note ON: Time 175200, Note Name: F5, Velocity: 78
Note ON: Time 175200, Note Name: A#5, Velocity: 78
Note OFF: Time 175440, Note Name: A#5
Note OFF: Time 175440, Note Name: F5
Note OFF: Time 175440, Note Name: A#4
Note ON: Time 175440, Note Name: B4, Velocity: 66
Note ON: Time 175440, Note Name: F5, Velocity: 78
Note ON: Time 175440, Note Name: B5, Velocity: 78
Note OFF: Time 175680, Note Name: B5
Note OFF: Time 175680, Note Name: F5
Note OFF: Time 175680, Note Name: B4
Note ON: Time 175680, Note Name: B4, Velocity: 68
Note ON: Time 175680, Note Name: F#5, Velocity: 81
Note ON: Time 175680, Note Name: B5, Velocity: 81
Note OFF: Time 176160, Note Name: B5
Note OFF: Time 176160, Note Name: F#5
Note OFF: Time 176160, Note Name: B4
Note ON: Time 176160, Note Name: A#4, Velocity: 69
Note ON: Time 176160, Note Name: F#5, Velocity: 82
Note ON: Time 176160, Note Name: A#5, Velocity: 82
Note OFF: Time 176400, Note Name: A#5
Note OFF: Time 176400, Note Name: F#5
Note OFF: Time 176400, Note Name: A#4
Note ON: Time 176400, Note Name: A#6, Velocity: 95
Note ON: Time 176400, Note Name: F#6, Velocity: 95
Note ON: Time 176400, Note Name: A#5, Velocity: 80
Note OFF: Time 177480, Note Name: A#5
Note OFF: Time 177480, Note Name: F#6
Note OFF: Time 177480, Note Name: A#6
Note ON: Time 177480, Note Name: C6, Velocity: 80
Note ON: Time 177480, Note Name: F#5, Velocity: 80
Note ON: Time 177480, Note Name: C5, Velocity: 68
Note OFF: Time 177590, Note Name: C5
Note OFF: Time 177590, Note Name: F#5
Note OFF: Time 177590, Note Name: C6
Note ON: Time 177600, Note Name: C5, Velocity: 68
Note ON: Time 177600, Note Name: F#5, Velocity: 80
Note ON: Time 177600, Note Name: C6, Velocity: 80
Note OFF: Time 177830, Note Name: C6
Note OFF: Time 177830, Note Name: F#5
Note OFF: Time 177830, Note Name: C5
Note ON: Time 177840, Note Name: C5, Velocity: 79
Note ON: Time 177840, Note Name: F#5, Velocity: 93
Note ON: Time 177840, Note Name: C6, Velocity: 93
Note OFF: Time 178200, Note Name: C6
Note OFF: Time 178200, Note Name: F#5
Note OFF: Time 178200, Note Name: C5
Note ON: Time 178200, Note Name: F6, Velocity: 89
Note ON: Time 178200, Note Name: G#5, Velocity: 89
Note ON: Time 178200, Note Name: F5, Velocity: 75
Note OFF: Time 178320, Note Name: F5
Note OFF: Time 178320, Note Name: G#5
Note OFF: Time 178320, Note Name: F6
Note ON: Time 178320, Note Name: D#6, Velocity: 92
Note ON: Time 178320, Note Name: F#5, Velocity: 92
Note ON: Time 178320, Note Name: D#5, Velocity: 78
Note OFF: Time 178560, Note Name: D#5
Note OFF: Time 178560, Note Name: F#5
Note OFF: Time 178560, Note Name: D#6
Note ON: Time 178560, Note Name: C#6, Velocity: 101
Note ON: Time 178560, Note Name: F5, Velocity: 101
Note ON: Time 178560, Note Name: C#5, Velocity: 85
Note OFF: Time 178680, Note Name: C#5
Note OFF: Time 178680, Note Name: F5
Note OFF: Time 178680, Note Name: C#6
Note ON: Time 179280, Note Name: F4, Velocity: 97
Note OFF: Time 179400, Note Name: F4
Note ON: Time 179400, Note Name: C#5, Velocity: 75
Note OFF: Time 179520, Note Name: C#5
Note ON: Time 179520, Note Name: G#5, Velocity: 79
Note OFF: Time 179640, Note Name: G#5
Note ON: Time 179640, Note Name: F5, Velocity: 83
Note OFF: Time 179760, Note Name: F5
Note ON: Time 179760, Note Name: C#6, Velocity: 87
Note OFF: Time 179880, Note Name: C#6
Note ON: Time 179880, Note Name: A#6, Velocity: 91
Note OFF: Time 180000, Note Name: A#6
Note ON: Time 180000, Note Name: C6, Velocity: 86
Note ON: Time 180000, Note Name: G#6, Velocity: 96
Note OFF: Time 180240, Note Name: G#6
Note OFF: Time 180240, Note Name: C6
Note ON: Time 180720, Note Name: F#4, Velocity: 97
Note OFF: Time 180840, Note Name: F#4
Note ON: Time 180840, Note Name: C5, Velocity: 75
Note OFF: Time 180960, Note Name: C5
Note ON: Time 180960, Note Name: G#5, Velocity: 80
Note OFF: Time 181080, Note Name: G#5
Note ON: Time 181080, Note Name: F#5, Velocity: 84
Note OFF: Time 181200, Note Name: F#5
Note ON: Time 181200, Note Name: C6, Velocity: 88
Note OFF: Time 181320, Note Name: C6
Note ON: Time 181320, Note Name: G#6, Velocity: 93
Note OFF: Time 181440, Note Name: G#6
Note ON: Time 181440, Note Name: C#6, Velocity: 87
Note ON: Time 181440, Note Name: F6, Velocity: 97
Note OFF: Time 181680, Note Name: F6
Note OFF: Time 181680, Note Name: C#6
Note ON: Time 182160, Note Name: F4, Velocity: 97
Note OFF: Time 182280, Note Name: F4
Note ON: Time 182280, Note Name: C#5, Velocity: 75
Note OFF: Time 182400, Note Name: C#5
Note ON: Time 182400, Note Name: G#5, Velocity: 79
Note OFF: Time 182520, Note Name: G#5
Note ON: Time 182520, Note Name: F5, Velocity: 83
Note OFF: Time 182640, Note Name: F5
Note ON: Time 182640, Note Name: C#6, Velocity: 87
Note OFF: Time 182760, Note Name: C#6
Note ON: Time 182760, Note Name: A#6, Velocity: 91
Note OFF: Time 182880, Note Name: A#6
Note ON: Time 182880, Note Name: C6, Velocity: 86
Note ON: Time 182880, Note Name: G#6, Velocity: 96
Note OFF: Time 183120, Note Name: G#6
Note OFF: Time 183120, Note Name: C6
Note ON: Time 183600, Note Name: F#4, Velocity: 97
Note OFF: Time 183720, Note Name: F#4
Note ON: Time 183720, Note Name: C5, Velocity: 75
Note OFF: Time 183840, Note Name: C5
Note ON: Time 183840, Note Name: G#5, Velocity: 80
Note OFF: Time 183960, Note Name: G#5
Note ON: Time 183960, Note Name: F#5, Velocity: 84
Note OFF: Time 184080, Note Name: F#5
Note ON: Time 184080, Note Name: C6, Velocity: 88
Note OFF: Time 184200, Note Name: C6
Note ON: Time 184200, Note Name: G#6, Velocity: 93
Note OFF: Time 184320, Note Name: G#6
Note ON: Time 184320, Note Name: C#6, Velocity: 97
Note ON: Time 184320, Note Name: F6, Velocity: 97
Note OFF: Time 184560, Note Name: F6
Note OFF: Time 184560, Note Name: C#6
Note ON: Time 185040, Note Name: F4, Velocity: 97
Note OFF: Time 185160, Note Name: F4
Note ON: Time 185160, Note Name: C#5, Velocity: 75
Note OFF: Time 185280, Note Name: C#5
Note ON: Time 185280, Note Name: G#5, Velocity: 78
Note OFF: Time 185400, Note Name: G#5
Note ON: Time 185400, Note Name: F5, Velocity: 75
Note OFF: Time 185520, Note Name: F5
Note ON: Time 185520, Note Name: C#6, Velocity: 79
Note OFF: Time 185640, Note Name: C#6
Note ON: Time 185640, Note Name: G#6, Velocity: 75
Note OFF: Time 185760, Note Name: G#6
Note ON: Time 185760, Note Name: C#6, Velocity: 78
Note OFF: Time 185880, Note Name: C#6
Note ON: Time 185880, Note Name: F5, Velocity: 75
Note OFF: Time 186000, Note Name: F5
Note ON: Time 186000, Note Name: G#5, Velocity: 80
Note OFF: Time 186120, Note Name: G#5
Note ON: Time 186120, Note Name: C#5, Velocity: 75
Note OFF: Time 186240, Note Name: C#5
Note ON: Time 186240, Note Name: F4, Velocity: 79
Note OFF: Time 186360, Note Name: F4
Note ON: Time 186360, Note Name: G#4, Velocity: 75
Note OFF: Time 186480, Note Name: G#4
Note ON: Time 186480, Note Name: C#4, Velocity: 78
Note OFF: Time 186600, Note Name: C#4
Note ON: Time 186600, Note Name: F3, Velocity: 77
Note OFF: Time 186720, Note Name: F3
Note ON: Time 186720, Note Name: G#3, Velocity: 82
Note OFF: Time 186840, Note Name: G#3
Note ON: Time 186840, Note Name: C#3, Velocity: 79
Note OFF: Time 186960, Note Name: C#3
Note ON: Time 186960, Note Name: F2, Velocity: 87
Note OFF: Time 187080, Note Name: F2
Note ON: Time 187080, Note Name: C#3, Velocity: 85
Note OFF: Time 187200, Note Name: C#3
Note ON: Time 187920, Note Name: C#7, Velocity: 101
Note ON: Time 187920, Note Name: C#6, Velocity: 85
Note OFF: Time 188640, Note Name: C#6
Note OFF: Time 188640, Note Name: C#7
Note ON: Time 190080, Note Name: E3, Velocity: 44
Note ON: Time 190080, Note Name: C#4, Velocity: 52
Note ON: Time 190080, Note Name: E4, Velocity: 52
Note OFF: Time 190800, Note Name: E4
Note OFF: Time 190800, Note Name: C#4
Note OFF: Time 190800, Note Name: E3
Note ON: Time 190800, Note Name: F#3, Velocity: 37
Note ON: Time 190800, Note Name: C#4, Velocity: 44
Note ON: Time 190800, Note Name: F#4, Velocity: 44
Note OFF: Time 191520, Note Name: F#3
Note OFF: Time 191760, Note Name: C#4
Note ON: Time 191760, Note Name: B3, Velocity: 57
Note OFF: Time 192000, Note Name: B3
Note ON: Time 192000, Note Name: C#4, Velocity: 57
Note OFF: Time 192240, Note Name: C#4
Note ON: Time 192240, Note Name: E4, Velocity: 60
Note OFF: Time 192480, Note Name: E4
Note ON: Time 192480, Note Name: D4, Velocity: 56
Note OFF: Time 192720, Note Name: D4
Note ON: Time 192720, Note Name: C#4, Velocity: 56
Note OFF: Time 192950, Note Name: C#4
Note OFF: Time 192960, Note Name: F#4
Note ON: Time 192960, Note Name: E3, Velocity: 44
Note ON: Time 192960, Note Name: C#4, Velocity: 52
Note ON: Time 192960, Note Name: E4, Velocity: 52
Note OFF: Time 193680, Note Name: E4
Note OFF: Time 193680, Note Name: C#4
Note OFF: Time 193680, Note Name: E3
Note ON: Time 193680, Note Name: F#3, Velocity: 37
Note ON: Time 193680, Note Name: C#4, Velocity: 44
Note ON: Time 193680, Note Name: F#4, Velocity: 44
Note OFF: Time 194400, Note Name: F#3
Note OFF: Time 194640, Note Name: C#4
Note ON: Time 194640, Note Name: B3, Velocity: 57
Note OFF: Time 194880, Note Name: B3
Note ON: Time 194880, Note Name: C#4, Velocity: 57
Note OFF: Time 195120, Note Name: C#4
Note ON: Time 195120, Note Name: E4, Velocity: 60
Note OFF: Time 195360, Note Name: E4
Note ON: Time 195360, Note Name: D4, Velocity: 56
Note OFF: Time 195720, Note Name: D4
Note ON: Time 195720, Note Name: C#4, Velocity: 56
Note OFF: Time 195830, Note Name: C#4
Note OFF: Time 195840, Note Name: F#4
Note ON: Time 195840, Note Name: G#3, Velocity: 37
Note ON: Time 195840, Note Name: C#4, Velocity: 44
Note ON: Time 195840, Note Name: E4, Velocity: 44
Note OFF: Time 196560, Note Name: C#4
Note ON: Time 196560, Note Name: B3, Velocity: 37
Note OFF: Time 197040, Note Name: B3
Note OFF: Time 197040, Note Name: G#3
Note ON: Time 197040, Note Name: A3, Velocity: 32
Note OFF: Time 197280, Note Name: A3
Note OFF: Time 197280, Note Name: E4
Note ON: Time 197280, Note Name: C#4, Velocity: 30
Note OFF: Time 198720, Note Name: C#4
Note ON: Time 198720, Note Name: C#5, Velocity: 53
Note OFF: Time 199320, Note Name: C#5
Note ON: Time 199320, Note Name: B4, Velocity: 45
Note OFF: Time 199380, Note Name: B4
Note ON: Time 199380, Note Name: C#5, Velocity: 45
Note OFF: Time 199440, Note Name: C#5
Note ON: Time 199440, Note Name: B4, Velocity: 50
Note OFF: Time 199800, Note Name: B4
Note ON: Time 199800, Note Name: A4, Velocity: 47
Note OFF: Time 199920, Note Name: A4
Note ON: Time 199920, Note Name: B4, Velocity: 50
Note OFF: Time 200160, Note Name: B4
Note ON: Time 200160, Note Name: C#5, Velocity: 53
Note OFF: Time 200520, Note Name: C#5
Note ON: Time 200520, Note Name: D5, Velocity: 50
Note OFF: Time 200640, Note Name: D5
Note ON: Time 200640, Note Name: C#5, Velocity: 48
Note OFF: Time 200760, Note Name: C#5
Note ON: Time 200760, Note Name: B4, Velocity: 43
Note OFF: Time 200820, Note Name: B4
Note ON: Time 200820, Note Name: C#5, Velocity: 43
Note OFF: Time 200880, Note Name: C#5
Note ON: Time 200880, Note Name: B4, Velocity: 52
Note OFF: Time 201240, Note Name: B4
Note ON: Time 201240, Note Name: A4, Velocity: 48
Note OFF: Time 201360, Note Name: A4
Note ON: Time 201360, Note Name: B4, Velocity: 47
Note OFF: Time 201600, Note Name: B4
Note ON: Time 201600, Note Name: C#5, Velocity: 39
Note OFF: Time 201720, Note Name: C#5
Note ON: Time 201720, Note Name: C#4, Velocity: 29
Note OFF: Time 201840, Note Name: C#4
Note ON: Time 201840, Note Name: C#5, Velocity: 29
Note OFF: Time 201960, Note Name: C#5
Note ON: Time 201960, Note Name: G#4, Velocity: 29
Note OFF: Time 202080, Note Name: G#4
Note ON: Time 202080, Note Name: C#5, Velocity: 29
Note OFF: Time 202200, Note Name: C#5
Note ON: Time 202200, Note Name: G#4, Velocity: 29
Note OFF: Time 202320, Note Name: G#4
Note ON: Time 202320, Note Name: G#5, Velocity: 29
Note OFF: Time 202440, Note Name: G#5
Note ON: Time 202440, Note Name: C#5, Velocity: 29
Note OFF: Time 202560, Note Name: C#5
Note ON: Time 202560, Note Name: G#5, Velocity: 29
Note OFF: Time 202680, Note Name: G#5
Note ON: Time 202680, Note Name: C#5, Velocity: 29
Note OFF: Time 202800, Note Name: C#5
Note ON: Time 202800, Note Name: C#6, Velocity: 29
Note OFF: Time 202920, Note Name: C#6
Note ON: Time 202920, Note Name: G#5, Velocity: 29
Note OFF: Time 203040, Note Name: G#5
Note ON: Time 203040, Note Name: C#6, Velocity: 29
Note OFF: Time 203160, Note Name: C#6
Note ON: Time 203160, Note Name: G#5, Velocity: 29
Note OFF: Time 203280, Note Name: G#5
Note ON: Time 203280, Note Name: G#6, Velocity: 29
Note OFF: Time 203400, Note Name: G#6
Note ON: Time 203400, Note Name: C#6, Velocity: 29
Note OFF: Time 203520, Note Name: C#6
Note ON: Time 203520, Note Name: G#6, Velocity: 29
Note OFF: Time 203640, Note Name: G#6
Note ON: Time 203640, Note Name: C#6, Velocity: 29
Note OFF: Time 203760, Note Name: C#6
Note ON: Time 203760, Note Name: C#7, Velocity: 39
Note OFF: Time 203880, Note Name: C#7
Note ON: Time 204480, Note Name: E3, Velocity: 44
Note ON: Time 204480, Note Name: C#4, Velocity: 52
Note ON: Time 204480, Note Name: E4, Velocity: 52
Note OFF: Time 205200, Note Name: E4
Note OFF: Time 205200, Note Name: E3
Note ON: Time 205200, Note Name: F#3, Velocity: 37
Note ON: Time 205200, Note Name: F#4, Velocity: 44
Note OFF: Time 205920, Note Name: F#3
Note OFF: Time 206160, Note Name: C#4
Note ON: Time 206160, Note Name: B3, Velocity: 57
Note OFF: Time 206400, Note Name: B3
Note ON: Time 206400, Note Name: C#4, Velocity: 57
Note OFF: Time 206640, Note Name: C#4
Note ON: Time 206640, Note Name: E4, Velocity: 60
Note OFF: Time 206880, Note Name: E4
Note ON: Time 206880, Note Name: D4, Velocity: 56
Note OFF: Time 207120, Note Name: D4
Note ON: Time 207120, Note Name: C#4, Velocity: 56
Note OFF: Time 207360, Note Name: C#4
Note OFF: Time 207360, Note Name: F#4
Note ON: Time 207360, Note Name: E3, Velocity: 44
Note ON: Time 207360, Note Name: C#4, Velocity: 52
Note ON: Time 207360, Note Name: E4, Velocity: 52
Note OFF: Time 208080, Note Name: E4
Note OFF: Time 208080, Note Name: E3
Note ON: Time 208080, Note Name: F#3, Velocity: 37
Note ON: Time 208080, Note Name: F#4, Velocity: 44
Note OFF: Time 209040, Note Name: C#4
Note ON: Time 209040, Note Name: B3, Velocity: 57
Note OFF: Time 209280, Note Name: B3
Note ON: Time 209280, Note Name: C#4, Velocity: 57
Note OFF: Time 209520, Note Name: C#4
Note ON: Time 209520, Note Name: E4, Velocity: 60
Note OFF: Time 209760, Note Name: E4
Note ON: Time 209760, Note Name: D4, Velocity: 56
Note OFF: Time 210120, Note Name: D4
Note ON: Time 210120, Note Name: C#4, Velocity: 56
Note OFF: Time 210170, Note Name: C#4
Note ON: Time 210180, Note Name: C#4, Velocity: 50
Note OFF: Time 210240, Note Name: C#4
Note OFF: Time 210240, Note Name: F#4
Note ON: Time 210240, Note Name: A4, Velocity: 56
Note OFF: Time 210480, Note Name: A4
Note ON: Time 210480, Note Name: F#4, Velocity: 53
Note OFF: Time 210720, Note Name: F#4
Note ON: Time 210720, Note Name: D4, Velocity: 51
Note OFF: Time 210960, Note Name: D4
Note OFF: Time 210960, Note Name: F#3
Note ON: Time 210960, Note Name: G#3, Velocity: 37
Note ON: Time 210960, Note Name: C#4, Velocity: 44
Note ON: Time 210960, Note Name: E4, Velocity: 44
Note OFF: Time 211680, Note Name: C#4
Note ON: Time 211680, Note Name: B3, Velocity: 37
Note OFF: Time 212160, Note Name: B3
Note OFF: Time 212160, Note Name: G#3
Note ON: Time 212160, Note Name: A3, Velocity: 32
Note OFF: Time 212400, Note Name: A3
Note OFF: Time 212400, Note Name: E4
Note ON: Time 212400, Note Name: C#4, Velocity: 30
Note OFF: Time 213840, Note Name: C#4
Note ON: Time 214560, Note Name: C#5, Velocity: 42
Note OFF: Time 216120, Note Name: C#5
Note ON: Time 216120, Note Name: D#5, Velocity: 42
Note OFF: Time 216240, Note Name: D#5
Note ON: Time 216240, Note Name: F#5, Velocity: 43
Note OFF: Time 216360, Note Name: F#5
Note ON: Time 216360, Note Name: E5, Velocity: 41
Note OFF: Time 216480, Note Name: E5
Note ON: Time 216480, Note Name: C#5, Velocity: 39
Note OFF: Time 216600, Note Name: C#5
Note ON: Time 216600, Note Name: A4, Velocity: 39
Note OFF: Time 216720, Note Name: A4
Note ON: Time 216720, Note Name: G#4, Velocity: 35
Note OFF: Time 216750, Note Name: G#4
Note ON: Time 216780, Note Name: G#4, Velocity: 35
Note OFF: Time 216840, Note Name: G#4
Note ON: Time 216840, Note Name: G#5, Velocity: 43
Note OFF: Time 217320, Note Name: G#5
Note ON: Time 217320, Note Name: F#5, Velocity: 37
Note OFF: Time 217380, Note Name: F#5
Note ON: Time 217380, Note Name: G#5, Velocity: 37
Note OFF: Time 217440, Note Name: G#5
Note ON: Time 217440, Note Name: F#5, Velocity: 43
Note OFF: Time 217800, Note Name: F#5
Note ON: Time 217800, Note Name: E5, Velocity: 39
Note OFF: Time 217920, Note Name: E5
Note ON: Time 217920, Note Name: F#5, Velocity: 39
Note OFF: Time 218160, Note Name: F#5
Note ON: Time 218160, Note Name: G#5, Velocity: 42
Note OFF: Time 218520, Note Name: G#5
Note ON: Time 218520, Note Name: A5, Velocity: 40
Note OFF: Time 218640, Note Name: A5
Note ON: Time 218640, Note Name: G#5, Velocity: 40
Note OFF: Time 218760, Note Name: G#5
Note ON: Time 218760, Note Name: F#5, Velocity: 37
Note OFF: Time 218820, Note Name: F#5
Note ON: Time 218820, Note Name: G#5, Velocity: 37
Note OFF: Time 218880, Note Name: G#5
Note ON: Time 218880, Note Name: F#5, Velocity: 44
Note OFF: Time 219240, Note Name: F#5
Note ON: Time 219240, Note Name: E5, Velocity: 33
Note OFF: Time 219360, Note Name: E5
Note ON: Time 219360, Note Name: F#5, Velocity: 31
Note OFF: Time 219600, Note Name: F#5
Note ON: Time 219600, Note Name: G#5, Velocity: 31
Note OFF: Time 220680, Note Name: G#5
Note ON: Time 220680, Note Name: G#4, Velocity: 25
Note OFF: Time 220800, Note Name: G#4
Note ON: Time 220800, Note Name: G#5, Velocity: 25
Note OFF: Time 220920, Note Name: G#5
Note ON: Time 220920, Note Name: D#5, Velocity: 25
Note OFF: Time 221040, Note Name: D#5
Note ON: Time 221040, Note Name: G#5, Velocity: 25
Note OFF: Time 221160, Note Name: G#5
Note ON: Time 221160, Note Name: D#5, Velocity: 25
Note OFF: Time 221280, Note Name: D#5
Note ON: Time 221280, Note Name: D#6, Velocity: 21
Note OFF: Time 221400, Note Name: D#6
Note ON: Time 221400, Note Name: G#5, Velocity: 21
Note OFF: Time 221520, Note Name: G#5
Note ON: Time 221520, Note Name: D#6, Velocity: 21
Note OFF: Time 221640, Note Name: D#6
Note ON: Time 221640, Note Name: G#5, Velocity: 21
Note OFF: Time 221760, Note Name: G#5
Note ON: Time 221760, Note Name: G#6, Velocity: 28
Note OFF: Time 221880, Note Name: G#6
Note ON: Time 222000, Note Name: G#5, Velocity: 44
Note OFF: Time 222240, Note Name: G#5
Note ON: Time 222240, Note Name: F#5, Velocity: 44
Note OFF: Time 222480, Note Name: F#5
Note ON: Time 222480, Note Name: E5, Velocity: 45
Note ON: Time 222720, Note Name: G4, Velocity: 34
Note OFF: Time 222840, Note Name: G4
Note ON: Time 222840, Note Name: G#4, Velocity: 34
Note OFF: Time 222960, Note Name: G#4
Note ON: Time 222960, Note Name: B4, Velocity: 34
Note OFF: Time 223040, Note Name: B4
Note ON: Time 223040, Note Name: A4, Velocity: 34
Note OFF: Time 223120, Note Name: A4
Note ON: Time 223120, Note Name: G#4, Velocity: 34
Note OFF: Time 223200, Note Name: G#4
Note ON: Time 223200, Note Name: G#4, Velocity: 43
Note OFF: Time 223440, Note Name: E5
Note ON: Time 223440, Note Name: E5, Velocity: 42
Note OFF: Time 223680, Note Name: E5
Note ON: Time 223680, Note Name: D#5, Velocity: 42
Note OFF: Time 223920, Note Name: D#5
Note ON: Time 223920, Note Name: C#5, Velocity: 44
Note OFF: Time 224160, Note Name: C#5
Note OFF: Time 224160, Note Name: G#4
Note ON: Time 224160, Note Name: G4, Velocity: 36
Note OFF: Time 224280, Note Name: G4
Note ON: Time 224280, Note Name: G#4, Velocity: 32
Note OFF: Time 224400, Note Name: G#4
Note ON: Time 224400, Note Name: B4, Velocity: 36
Note OFF: Time 224480, Note Name: B4
Note ON: Time 224480, Note Name: A4, Velocity: 36
Note OFF: Time 224560, Note Name: A4
Note ON: Time 224560, Note Name: G#4, Velocity: 32
Note OFF: Time 224640, Note Name: G#4
Note ON: Time 224640, Note Name: G#4, Velocity: 44
Note ON: Time 224880, Note Name: G#5, Velocity: 43
Note OFF: Time 225120, Note Name: G#5
Note ON: Time 225120, Note Name: F#5, Velocity: 40
Note OFF: Time 225360, Note Name: F#5
Note ON: Time 225360, Note Name: E5, Velocity: 46
Note OFF: Time 225600, Note Name: G#4
Note ON: Time 225600, Note Name: G4, Velocity: 38
Note OFF: Time 225720, Note Name: G4
Note ON: Time 225720, Note Name: G#4, Velocity: 34
Note OFF: Time 225840, Note Name: G#4
Note ON: Time 225840, Note Name: B4, Velocity: 38
Note OFF: Time 225920, Note Name: B4
Note ON: Time 225920, Note Name: A4, Velocity: 38
Note OFF: Time 226000, Note Name: A4
Note ON: Time 226000, Note Name: G#4, Velocity: 35
Note OFF: Time 226080, Note Name: G#4
Note ON: Time 226080, Note Name: G#4, Velocity: 42
Note OFF: Time 226320, Note Name: E5
Note ON: Time 226320, Note Name: E5, Velocity: 43
Note OFF: Time 226560, Note Name: E5
Note ON: Time 226560, Note Name: D#5, Velocity: 41
Note OFF: Time 226800, Note Name: D#5
Note OFF: Time 226800, Note Name: G#4
Note ON: Time 226800, Note Name: C#5, Velocity: 47
Note OFF: Time 227040, Note Name: C#5
Note ON: Time 227040, Note Name: C5, Velocity: 37
Note OFF: Time 227160, Note Name: C5
Note ON: Time 227160, Note Name: C#5, Velocity: 37
Note OFF: Time 227280, Note Name: C#5
Note ON: Time 227280, Note Name: E5, Velocity: 37
Note OFF: Time 227360, Note Name: E5
Note ON: Time 227360, Note Name: D5, Velocity: 37
Note OFF: Time 227440, Note Name: D5
Note ON: Time 227440, Note Name: C#5, Velocity: 34
Note OFF: Time 227520, Note Name: C#5
Note ON: Time 227520, Note Name: C#5, Velocity: 41
Note ON: Time 227760, Note Name: C#6, Velocity: 46
Note OFF: Time 228000, Note Name: C#6
Note ON: Time 228000, Note Name: B5, Velocity: 44
Note OFF: Time 228240, Note Name: B5
Note ON: Time 228240, Note Name: A5, Velocity: 53
Note OFF: Time 228480, Note Name: C#5
Note ON: Time 228480, Note Name: C5, Velocity: 32
Note OFF: Time 228600, Note Name: C5
Note ON: Time 228600, Note Name: C#5, Velocity: 30
Note OFF: Time 228720, Note Name: C#5
Note ON: Time 228720, Note Name: E5, Velocity: 32
Note OFF: Time 228800, Note Name: E5
Note ON: Time 228800, Note Name: D5, Velocity: 32
Note OFF: Time 228880, Note Name: D5
Note ON: Time 228880, Note Name: C#5, Velocity: 30
Note OFF: Time 228960, Note Name: C#5
Note ON: Time 228960, Note Name: C#5, Velocity: 37
Note OFF: Time 229200, Note Name: A5
Note ON: Time 229200, Note Name: A5, Velocity: 38
Note OFF: Time 229440, Note Name: A5
Note ON: Time 229440, Note Name: G#5, Velocity: 36
Note OFF: Time 229680, Note Name: G#5
Note ON: Time 229680, Note Name: F#5, Velocity: 40
Note OFF: Time 229920, Note Name: F#5
Note OFF: Time 229920, Note Name: C#5
Note ON: Time 229920, Note Name: C5, Velocity: 27
Note OFF: Time 230040, Note Name: C5
Note ON: Time 230040, Note Name: C#5, Velocity: 28
Note OFF: Time 230160, Note Name: C#5
Note ON: Time 230160, Note Name: E5, Velocity: 30
Note OFF: Time 230240, Note Name: E5
Note ON: Time 230240, Note Name: D5, Velocity: 30
Note OFF: Time 230320, Note Name: D5
Note ON: Time 230320, Note Name: C#5, Velocity: 27
Note OFF: Time 230400, Note Name: C#5
Note ON: Time 230400, Note Name: C#5, Velocity: 38
Note ON: Time 230640, Note Name: C#6, Velocity: 40
Note OFF: Time 230880, Note Name: C#6
Note ON: Time 230880, Note Name: B5, Velocity: 37
Note OFF: Time 231120, Note Name: B5
Note ON: Time 231120, Note Name: A5, Velocity: 45
Note OFF: Time 231360, Note Name: C#5
Note ON: Time 231360, Note Name: C5, Velocity: 37
Note OFF: Time 231480, Note Name: C5
Note ON: Time 231480, Note Name: C#5, Velocity: 37
Note OFF: Time 231600, Note Name: C#5
Note ON: Time 231600, Note Name: E5, Velocity: 37
Note OFF: Time 231680, Note Name: E5
Note ON: Time 231680, Note Name: D5, Velocity: 37
Note OFF: Time 231760, Note Name: D5
Note ON: Time 231760, Note Name: C#5, Velocity: 34
Note OFF: Time 231840, Note Name: C#5
Note ON: Time 231840, Note Name: C#5, Velocity: 42
Note OFF: Time 232080, Note Name: A5
Note ON: Time 232080, Note Name: A5, Velocity: 44
Note OFF: Time 232320, Note Name: A5
Note ON: Time 232320, Note Name: G#5, Velocity: 42
Note OFF: Time 232560, Note Name: G#5
Note ON: Time 232560, Note Name: F#5, Velocity: 47
Note OFF: Time 232800, Note Name: C#5
Note ON: Time 232800, Note Name: C5, Velocity: 37
Note OFF: Time 232920, Note Name: C5
Note ON: Time 232920, Note Name: C#5, Velocity: 34
Note OFF: Time 233040, Note Name: C#5
Note ON: Time 233040, Note Name: E5, Velocity: 37
Note OFF: Time 233120, Note Name: E5
Note ON: Time 233120, Note Name: D5, Velocity: 37
Note OFF: Time 233200, Note Name: D5
Note ON: Time 233200, Note Name: C#5, Velocity: 34
Note OFF: Time 233280, Note Name: C#5
Note ON: Time 233280, Note Name: C#5, Velocity: 41
Note OFF: Time 233520, Note Name: F#5
Note ON: Time 233520, Note Name: G#5, Velocity: 43
Note OFF: Time 233760, Note Name: G#5
Note ON: Time 233760, Note Name: A5, Velocity: 42
Note OFF: Time 234000, Note Name: A5
Note OFF: Time 234000, Note Name: C#5
Note ON: Time 234000, Note Name: G#5, Velocity: 50
Note OFF: Time 234240, Note Name: G#5
Note ON: Time 234240, Note Name: G4, Velocity: 32
Note OFF: Time 234360, Note Name: G4
Note ON: Time 234360, Note Name: G#4, Velocity: 30
Note OFF: Time 234480, Note Name: G#4
Note ON: Time 234480, Note Name: B4, Velocity: 32
Note OFF: Time 234560, Note Name: B4
Note ON: Time 234560, Note Name: A4, Velocity: 32
Note OFF: Time 234640, Note Name: A4
Note ON: Time 234640, Note Name: G#4, Velocity: 30
Note OFF: Time 234720, Note Name: G#4
Note ON: Time 234720, Note Name: G#4, Velocity: 37
Note ON: Time 234960, Note Name: F#5, Velocity: 47
Note OFF: Time 235200, Note Name: F#5
Note ON: Time 235200, Note Name: E5, Velocity: 47
Note OFF: Time 235440, Note Name: E5
Note ON: Time 235440, Note Name: D#5, Velocity: 53
Note OFF: Time 235680, Note Name: G#4
Note ON: Time 235680, Note Name: G4, Velocity: 38
Note OFF: Time 235800, Note Name: G4
Note ON: Time 235800, Note Name: G#4, Velocity: 35
Note OFF: Time 235920, Note Name: G#4
Note ON: Time 235920, Note Name: B4, Velocity: 38
Note OFF: Time 236000, Note Name: B4
Note ON: Time 236000, Note Name: A4, Velocity: 38
Note OFF: Time 236080, Note Name: A4
Note ON: Time 236080, Note Name: G#4, Velocity: 35
Note OFF: Time 236160, Note Name: G#4
Note ON: Time 236160, Note Name: G#4, Velocity: 46
Note OFF: Time 236400, Note Name: D#5
Note ON: Time 236400, Note Name: D#5, Velocity: 47
Note OFF: Time 236640, Note Name: D#5
Note ON: Time 236640, Note Name: C#5, Velocity: 44
Note OFF: Time 236880, Note Name: C#5
Note ON: Time 236880, Note Name: C5, Velocity: 52
Note OFF: Time 237120, Note Name: C5
Note OFF: Time 237120, Note Name: G#4
Note ON: Time 237120, Note Name: G4, Velocity: 41
Note OFF: Time 237240, Note Name: G4
Note ON: Time 237240, Note Name: G#4, Velocity: 39
Note OFF: Time 237360, Note Name: G#4
Note ON: Time 237360, Note Name: B4, Velocity: 41
Note OFF: Time 237440, Note Name: B4
Note ON: Time 237440, Note Name: A4, Velocity: 41
Note OFF: Time 237520, Note Name: A4
Note ON: Time 237520, Note Name: G#4, Velocity: 38
Note OFF: Time 237600, Note Name: G#4
Note ON: Time 237600, Note Name: G#4, Velocity: 52
Note ON: Time 237840, Note Name: F#5, Velocity: 43
Note OFF: Time 238080, Note Name: F#5
Note ON: Time 238080, Note Name: E5, Velocity: 41
Note OFF: Time 238320, Note Name: E5
Note ON: Time 238320, Note Name: D#5, Velocity: 47
Note OFF: Time 238560, Note Name: D#5
Note OFF: Time 238560, Note Name: G#4
Note ON: Time 238560, Note Name: A#4, Velocity: 38
Note OFF: Time 238680, Note Name: A#4
Note ON: Time 238680, Note Name: B4, Velocity: 36
Note OFF: Time 238800, Note Name: B4
Note ON: Time 238800, Note Name: D#5, Velocity: 38
Note OFF: Time 238880, Note Name: D#5
Note ON: Time 238880, Note Name: C#5, Velocity: 38
Note OFF: Time 238960, Note Name: C#5
Note ON: Time 238960, Note Name: B4, Velocity: 35
Note OFF: Time 239040, Note Name: B4
Note ON: Time 239040, Note Name: B4, Velocity: 41
Note ON: Time 239280, Note Name: E5, Velocity: 34
Note OFF: Time 239520, Note Name: E5
Note ON: Time 239520, Note Name: F#5, Velocity: 34
Note OFF: Time 239760, Note Name: F#5
Note OFF: Time 239760, Note Name: B4
Note ON: Time 239760, Note Name: G#4, Velocity: 35
Note OFF: Time 239880, Note Name: G#4
Note ON: Time 239880, Note Name: B4, Velocity: 37
Note OFF: Time 240000, Note Name: B4
Note ON: Time 240000, Note Name: E5, Velocity: 40
Note OFF: Time 240120, Note Name: E5
Note ON: Time 240120, Note Name: G#5, Velocity: 42
Note OFF: Time 240240, Note Name: G#5
Note ON: Time 240240, Note Name: F#5, Velocity: 44
Note OFF: Time 240360, Note Name: F#5
Note ON: Time 240360, Note Name: E5, Velocity: 42
Note OFF: Time 240480, Note Name: E5
Note ON: Time 240480, Note Name: G#5, Velocity: 38
Note OFF: Time 240600, Note Name: G#5
Note ON: Time 240600, Note Name: B5, Velocity: 40
Note OFF: Time 240720, Note Name: B5
Note ON: Time 240720, Note Name: E6, Velocity: 43
Note OFF: Time 240840, Note Name: E6
Note ON: Time 240840, Note Name: G#6, Velocity: 46
Note OFF: Time 240960, Note Name: G#6
Note ON: Time 240960, Note Name: F#6, Velocity: 50
Note OFF: Time 241080, Note Name: F#6
Note ON: Time 241080, Note Name: E6, Velocity: 47
Note OFF: Time 241200, Note Name: E6
Note ON: Time 241200, Note Name: B5, Velocity: 44
Note OFF: Time 241320, Note Name: B5
Note ON: Time 241320, Note Name: G#5, Velocity: 43
Note OFF: Time 241440, Note Name: G#5
Note ON: Time 241440, Note Name: F#5, Velocity: 42
Note OFF: Time 241560, Note Name: F#5
Note ON: Time 241560, Note Name: E5, Velocity: 41
Note OFF: Time 241680, Note Name: E5
Note ON: Time 241680, Note Name: B4, Velocity: 40
Note OFF: Time 241800, Note Name: B4
Note ON: Time 241800, Note Name: G#4, Velocity: 39
Note OFF: Time 241920, Note Name: G#4
Note ON: Time 241920, Note Name: F#4, Velocity: 38
Note OFF: Time 242040, Note Name: F#4
Note ON: Time 242040, Note Name: E4, Velocity: 37
Note OFF: Time 242160, Note Name: E4
Note ON: Time 242160, Note Name: B3, Velocity: 36
Note OFF: Time 242280, Note Name: B3
Note ON: Time 242280, Note Name: G#4, Velocity: 39
Note OFF: Time 242400, Note Name: G#4
Note ON: Time 242400, Note Name: F#4, Velocity: 38
Note OFF: Time 242520, Note Name: F#4
Note ON: Time 242520, Note Name: E4, Velocity: 37
Note OFF: Time 242640, Note Name: E4
Note ON: Time 242640, Note Name: C#4, Velocity: 36
Note OFF: Time 242760, Note Name: C#4
Note ON: Time 242760, Note Name: E4, Velocity: 34
Note OFF: Time 242880, Note Name: E4
Note ON: Time 242880, Note Name: F#4, Velocity: 37
Note OFF: Time 243000, Note Name: F#4
Note ON: Time 243000, Note Name: A4, Velocity: 39
Note OFF: Time 243120, Note Name: A4
Note ON: Time 243120, Note Name: C#5, Velocity: 41
Note OFF: Time 243240, Note Name: C#5
Note ON: Time 243240, Note Name: E5, Velocity: 43
Note OFF: Time 243360, Note Name: E5
Note ON: Time 243360, Note Name: F#5, Velocity: 46
Note OFF: Time 243480, Note Name: F#5
Note ON: Time 243480, Note Name: A5, Velocity: 48
Note OFF: Time 243600, Note Name: A5
Note ON: Time 243600, Note Name: C#6, Velocity: 50
Note OFF: Time 243720, Note Name: C#6
Note ON: Time 243720, Note Name: E6, Velocity: 51
Note OFF: Time 243840, Note Name: E6
Note ON: Time 243840, Note Name: F#6, Velocity: 49
Note OFF: Time 243960, Note Name: F#6
Note ON: Time 243960, Note Name: A6, Velocity: 47
Note OFF: Time 244080, Note Name: A6
Note ON: Time 244080, Note Name: G#6, Velocity: 50
Note OFF: Time 244200, Note Name: G#6
Note ON: Time 244200, Note Name: F#6, Velocity: 49
Note OFF: Time 244320, Note Name: F#6
Note ON: Time 244320, Note Name: D#6, Velocity: 49
Note OFF: Time 244440, Note Name: D#6
Note ON: Time 244440, Note Name: A5, Velocity: 48
Note OFF: Time 244560, Note Name: A5
Note ON: Time 244560, Note Name: G#5, Velocity: 47
Note OFF: Time 244680, Note Name: G#5
Note ON: Time 244680, Note Name: F#5, Velocity: 46
Note OFF: Time 244800, Note Name: F#5
Note ON: Time 244800, Note Name: D#5, Velocity: 45
Note OFF: Time 244920, Note Name: D#5
Note ON: Time 244920, Note Name: B4, Velocity: 44
Note OFF: Time 245040, Note Name: B4
Note ON: Time 245040, Note Name: D#5, Velocity: 45
Note OFF: Time 245160, Note Name: D#5
Note ON: Time 245160, Note Name: C#5, Velocity: 42
Note OFF: Time 245280, Note Name: C#5
Note ON: Time 245280, Note Name: B4, Velocity: 39
Note OFF: Time 245400, Note Name: B4
Note ON: Time 245400, Note Name: A4, Velocity: 37
Note OFF: Time 245520, Note Name: A4
Note ON: Time 245520, Note Name: G#4, Velocity: 35
Note OFF: Time 245640, Note Name: G#4
Note ON: Time 245640, Note Name: B4, Velocity: 37
Note OFF: Time 245760, Note Name: B4
Note ON: Time 245760, Note Name: E5, Velocity: 40
Note OFF: Time 245880, Note Name: E5
Note ON: Time 245880, Note Name: G#5, Velocity: 42
Note OFF: Time 246000, Note Name: G#5
Note ON: Time 246000, Note Name: F#5, Velocity: 44
Note OFF: Time 246120, Note Name: F#5
Note ON: Time 246120, Note Name: E5, Velocity: 42
Note OFF: Time 246240, Note Name: E5
Note ON: Time 246240, Note Name: G#5, Velocity: 38
Note OFF: Time 246360, Note Name: G#5
Note ON: Time 246360, Note Name: B5, Velocity: 40
Note OFF: Time 246480, Note Name: B5
Note ON: Time 246480, Note Name: E6, Velocity: 43
Note OFF: Time 246600, Note Name: E6
Note ON: Time 246600, Note Name: G#6, Velocity: 46
Note OFF: Time 246720, Note Name: G#6
Note ON: Time 246720, Note Name: F#6, Velocity: 50
Note OFF: Time 246840, Note Name: F#6
Note ON: Time 246840, Note Name: E6, Velocity: 47
Note OFF: Time 246960, Note Name: E6
Note ON: Time 246960, Note Name: B5, Velocity: 44
Note OFF: Time 247080, Note Name: B5
Note ON: Time 247080, Note Name: G#5, Velocity: 43
Note OFF: Time 247200, Note Name: G#5
Note ON: Time 247200, Note Name: F#5, Velocity: 42
Note OFF: Time 247320, Note Name: F#5
Note ON: Time 247320, Note Name: E5, Velocity: 41
Note OFF: Time 247440, Note Name: E5
Note ON: Time 247440, Note Name: B4, Velocity: 40
Note OFF: Time 247560, Note Name: B4
Note ON: Time 247560, Note Name: G#4, Velocity: 39
Note OFF: Time 247680, Note Name: G#4
Note ON: Time 247680, Note Name: F#4, Velocity: 38
Note OFF: Time 247800, Note Name: F#4
Note ON: Time 247800, Note Name: E4, Velocity: 37
Note OFF: Time 247920, Note Name: E4
Note ON: Time 247920, Note Name: B3, Velocity: 36
Note OFF: Time 248040, Note Name: B3
Note ON: Time 248040, Note Name: G#4, Velocity: 39
Note OFF: Time 248160, Note Name: G#4
Note ON: Time 248160, Note Name: F#4, Velocity: 38
Note OFF: Time 248280, Note Name: F#4
Note ON: Time 248280, Note Name: E4, Velocity: 37
Note OFF: Time 248400, Note Name: E4
Note ON: Time 248400, Note Name: C#4, Velocity: 36
Note OFF: Time 248520, Note Name: C#4
Note ON: Time 248520, Note Name: E4, Velocity: 34
Note OFF: Time 248633, Note Name: E4
Note ON: Time 248640, Note Name: F#4, Velocity: 37
Note OFF: Time 248760, Note Name: F#4
Note ON: Time 248760, Note Name: A4, Velocity: 39
Note OFF: Time 248880, Note Name: A4
Note ON: Time 248880, Note Name: C#5, Velocity: 41
Note OFF: Time 249000, Note Name: C#5
Note ON: Time 249000, Note Name: E5, Velocity: 43
Note OFF: Time 249120, Note Name: E5
Note ON: Time 249120, Note Name: F#5, Velocity: 46
Note OFF: Time 249240, Note Name: F#5
Note ON: Time 249240, Note Name: A5, Velocity: 48
Note OFF: Time 249360, Note Name: A5
Note ON: Time 249360, Note Name: C#6, Velocity: 50
Note OFF: Time 249480, Note Name: C#6
Note ON: Time 249480, Note Name: E6, Velocity: 51
Note OFF: Time 249600, Note Name: E6
Note ON: Time 249600, Note Name: F#6, Velocity: 49
Note OFF: Time 249720, Note Name: F#6
Note ON: Time 249720, Note Name: A6, Velocity: 47
Note OFF: Time 249840, Note Name: A6
Note ON: Time 249840, Note Name: G#6, Velocity: 47
Note OFF: Time 249960, Note Name: G#6
Note ON: Time 249960, Note Name: F#6, Velocity: 48
Note OFF: Time 250080, Note Name: F#6
Note ON: Time 250080, Note Name: D#6, Velocity: 49
Note OFF: Time 250200, Note Name: D#6
Note ON: Time 250200, Note Name: A5, Velocity: 50
Note OFF: Time 250320, Note Name: A5
Note ON: Time 250320, Note Name: G#5, Velocity: 51
Note OFF: Time 250440, Note Name: G#5
Note ON: Time 250440, Note Name: F#5, Velocity: 52
Note OFF: Time 250560, Note Name: F#5
Note ON: Time 250560, Note Name: D#5, Velocity: 53
Note OFF: Time 250680, Note Name: D#5
Note ON: Time 250680, Note Name: B4, Velocity: 52
Note OFF: Time 250800, Note Name: B4
Note ON: Time 250800, Note Name: D#5, Velocity: 51
Note OFF: Time 250920, Note Name: D#5
Note ON: Time 250920, Note Name: C#5, Velocity: 51
Note OFF: Time 251040, Note Name: C#5
Note ON: Time 251040, Note Name: B4, Velocity: 53
Note OFF: Time 251160, Note Name: B4
Note ON: Time 251160, Note Name: A4, Velocity: 57
Note OFF: Time 251280, Note Name: A4
Note ON: Time 251280, Note Name: G#4, Velocity: 56
Note OFF: Time 251400, Note Name: G#4
Note ON: Time 251400, Note Name: B4, Velocity: 59
Note OFF: Time 251520, Note Name: B4
Note ON: Time 251520, Note Name: E5, Velocity: 61
Note OFF: Time 251640, Note Name: E5
Note ON: Time 251640, Note Name: G#5, Velocity: 63
Note OFF: Time 251760, Note Name: G#5
Note ON: Time 251760, Note Name: F#5, Velocity: 65
Note OFF: Time 251880, Note Name: F#5
Note ON: Time 251880, Note Name: E5, Velocity: 63
Note OFF: Time 252000, Note Name: E5
Note ON: Time 252000, Note Name: G#5, Velocity: 61
Note OFF: Time 252120, Note Name: G#5
Note ON: Time 252120, Note Name: B5, Velocity: 61
Note OFF: Time 252240, Note Name: B5
Note ON: Time 252240, Note Name: E6, Velocity: 64
Note OFF: Time 252360, Note Name: E6
Note ON: Time 252360, Note Name: G#6, Velocity: 66
Note OFF: Time 252480, Note Name: G#6
Note ON: Time 252480, Note Name: F#6, Velocity: 69
Note OFF: Time 252600, Note Name: F#6
Note ON: Time 252600, Note Name: E6, Velocity: 65
Note OFF: Time 252720, Note Name: E6
Note ON: Time 252720, Note Name: C6, Velocity: 62
Note OFF: Time 252840, Note Name: C6
Note ON: Time 252840, Note Name: A5, Velocity: 61
Note OFF: Time 252960, Note Name: A5
Note ON: Time 252960, Note Name: F#5, Velocity: 60
Note OFF: Time 253080, Note Name: F#5
Note ON: Time 253080, Note Name: E5, Velocity: 60
Note OFF: Time 253200, Note Name: E5
Note ON: Time 253200, Note Name: C5, Velocity: 59
Note OFF: Time 253320, Note Name: C5
Note ON: Time 253320, Note Name: A4, Velocity: 58
Note OFF: Time 253440, Note Name: A4
Note ON: Time 253440, Note Name: F#4, Velocity: 57
Note OFF: Time 253560, Note Name: F#4
Note ON: Time 253560, Note Name: E4, Velocity: 56
Note OFF: Time 253680, Note Name: E4
Note ON: Time 253680, Note Name: C4, Velocity: 55
Note OFF: Time 253800, Note Name: C4
Note ON: Time 253800, Note Name: A3, Velocity: 54
Note OFF: Time 253920, Note Name: A3
Note ON: Time 253920, Note Name: F#3, Velocity: 53
Note OFF: Time 254040, Note Name: F#3
Note ON: Time 254040, Note Name: E3, Velocity: 52
Note OFF: Time 254160, Note Name: E3
Note ON: Time 254160, Note Name: G#3, Velocity: 52
Note OFF: Time 254280, Note Name: G#3
Note ON: Time 254280, Note Name: B3, Velocity: 51
Note OFF: Time 254400, Note Name: B3
Note ON: Time 254400, Note Name: E4, Velocity: 52
Note OFF: Time 254520, Note Name: E4
Note ON: Time 254520, Note Name: G#4, Velocity: 53
Note OFF: Time 254640, Note Name: G#4
Note ON: Time 254640, Note Name: F#4, Velocity: 54
Note OFF: Time 254760, Note Name: F#4
Note ON: Time 254760, Note Name: E4, Velocity: 52
Note OFF: Time 254880, Note Name: E4
Note ON: Time 254880, Note Name: G#4, Velocity: 49
Note OFF: Time 255000, Note Name: G#4
Note ON: Time 255000, Note Name: B4, Velocity: 51
Note OFF: Time 255120, Note Name: B4
Note ON: Time 255120, Note Name: E5, Velocity: 54
Note OFF: Time 255240, Note Name: E5
Note ON: Time 255240, Note Name: G#5, Velocity: 57
Note OFF: Time 255360, Note Name: G#5
Note ON: Time 255360, Note Name: F#5, Velocity: 59
Note OFF: Time 255480, Note Name: F#5
Note ON: Time 255480, Note Name: E5, Velocity: 57
Note OFF: Time 255600, Note Name: E5
Note ON: Time 255600, Note Name: C5, Velocity: 59
Note OFF: Time 255720, Note Name: C5
Note ON: Time 255720, Note Name: A4, Velocity: 61
Note OFF: Time 255840, Note Name: A4
Note ON: Time 255840, Note Name: F#4, Velocity: 62
Note OFF: Time 255960, Note Name: F#4
Note ON: Time 255960, Note Name: E4, Velocity: 64
Note OFF: Time 256080, Note Name: E4
Note ON: Time 256080, Note Name: C4, Velocity: 66
Note OFF: Time 256200, Note Name: C4
Note ON: Time 256200, Note Name: A3, Velocity: 67
Note OFF: Time 256320, Note Name: A3
Note ON: Time 256320, Note Name: F#3, Velocity: 69
Note OFF: Time 256440, Note Name: F#3
Note ON: Time 256440, Note Name: E3, Velocity: 71
Note OFF: Time 256560, Note Name: E3
Note ON: Time 256560, Note Name: C3, Velocity: 73
Note OFF: Time 256680, Note Name: C3
Note ON: Time 256680, Note Name: A2, Velocity: 74
Note OFF: Time 256800, Note Name: A2
Note ON: Time 256800, Note Name: F#2, Velocity: 76
Note OFF: Time 256920, Note Name: F#2
Note ON: Time 256920, Note Name: E2, Velocity: 78
Note OFF: Time 257040, Note Name: E2
Note ON: Time 257280, Note Name: B2, Velocity: 73
Note OFF: Time 257400, Note Name: B2
Note ON: Time 257400, Note Name: E3, Velocity: 68
Note OFF: Time 257520, Note Name: E3
Note ON: Time 257520, Note Name: A3, Velocity: 68
Note OFF: Time 257640, Note Name: A3
Note ON: Time 257640, Note Name: G#3, Velocity: 68
Note OFF: Time 257760, Note Name: G#3
Note ON: Time 257760, Note Name: B3, Velocity: 73
Note OFF: Time 257880, Note Name: B3
Note ON: Time 257880, Note Name: E4, Velocity: 67
Note OFF: Time 258000, Note Name: E4
Note ON: Time 258000, Note Name: A4, Velocity: 67
Note OFF: Time 258120, Note Name: A4
Note ON: Time 258120, Note Name: G#4, Velocity: 68
Note OFF: Time 258240, Note Name: G#4
Note ON: Time 258240, Note Name: B4, Velocity: 72
Note OFF: Time 258360, Note Name: B4
Note ON: Time 258360, Note Name: E5, Velocity: 73
Note OFF: Time 258480, Note Name: E5
Note ON: Time 258480, Note Name: A5, Velocity: 76
Note OFF: Time 258600, Note Name: A5
Note ON: Time 258600, Note Name: G#5, Velocity: 71
Note OFF: Time 258720, Note Name: G#5
Note ON: Time 258720, Note Name: B5, Velocity: 71
Note OFF: Time 258840, Note Name: B5
Note ON: Time 258840, Note Name: E6, Velocity: 71
Note OFF: Time 258960, Note Name: E6
Note ON: Time 258960, Note Name: A6, Velocity: 71
Note OFF: Time 259080, Note Name: A6
Note ON: Time 259080, Note Name: G#6, Velocity: 71
Note OFF: Time 259200, Note Name: G#6
Note ON: Time 259200, Note Name: E6, Velocity: 77
Note OFF: Time 259320, Note Name: E6
Note ON: Time 259320, Note Name: B5, Velocity: 71
Note OFF: Time 259440, Note Name: B5
Note ON: Time 259440, Note Name: A5, Velocity: 71
Note OFF: Time 259560, Note Name: A5
Note ON: Time 259560, Note Name: G#5, Velocity: 71
Note OFF: Time 259680, Note Name: G#5
Note ON: Time 259680, Note Name: E5, Velocity: 71
Note OFF: Time 259800, Note Name: E5
Note ON: Time 259800, Note Name: B4, Velocity: 71
Note OFF: Time 259920, Note Name: B4
Note ON: Time 259920, Note Name: A4, Velocity: 71
Note OFF: Time 260040, Note Name: A4
Note ON: Time 260040, Note Name: G#4, Velocity: 72
Note OFF: Time 260160, Note Name: G#4
Note ON: Time 260160, Note Name: E4, Velocity: 73
Note OFF: Time 260280, Note Name: E4
Note ON: Time 260280, Note Name: B3, Velocity: 75
Note OFF: Time 260400, Note Name: B3
Note ON: Time 260400, Note Name: A3, Velocity: 77
Note OFF: Time 260520, Note Name: A3
Note ON: Time 260520, Note Name: G#3, Velocity: 78
Note OFF: Time 260640, Note Name: G#3
Note ON: Time 260640, Note Name: E3, Velocity: 80
Note OFF: Time 260760, Note Name: E3
Note ON: Time 260760, Note Name: B2, Velocity: 81
Note OFF: Time 260880, Note Name: B2
Note ON: Time 260880, Note Name: A2, Velocity: 82
Note OFF: Time 261000, Note Name: A2
Note ON: Time 261000, Note Name: G#2, Velocity: 84
Note OFF: Time 261120, Note Name: G#2
Note ON: Time 261120, Note Name: E2, Velocity: 86
Note OFF: Time 261240, Note Name: E2
Note ON: Time 261240, Note Name: B1, Velocity: 88
Note OFF: Time 261360, Note Name: B1
Note ON: Time 262800, Note Name: E3, Velocity: 55
Note ON: Time 262800, Note Name: C#4, Velocity: 65
Note ON: Time 262800, Note Name: E4, Velocity: 65
Note OFF: Time 263520, Note Name: E4
Note OFF: Time 263520, Note Name: C#4
Note OFF: Time 263520, Note Name: E3
Note ON: Time 263520, Note Name: F#3, Velocity: 46
Note ON: Time 263520, Note Name: C#4, Velocity: 55
Note ON: Time 263520, Note Name: F#4, Velocity: 55
Note OFF: Time 264240, Note Name: F#3
Note OFF: Time 264480, Note Name: C#4
Note ON: Time 264480, Note Name: B3, Velocity: 71
Note OFF: Time 264720, Note Name: B3
Note ON: Time 264720, Note Name: C#4, Velocity: 71
Note OFF: Time 264960, Note Name: C#4
Note ON: Time 264960, Note Name: E4, Velocity: 75
Note OFF: Time 265200, Note Name: E4
Note ON: Time 265200, Note Name: D4, Velocity: 70
Note OFF: Time 265560, Note Name: D4
Note ON: Time 265560, Note Name: C#4, Velocity: 64
Note OFF: Time 265670, Note Name: C#4
Note OFF: Time 265680, Note Name: F#4
Note ON: Time 265680, Note Name: E3, Velocity: 55
Note ON: Time 265680, Note Name: C#4, Velocity: 65
Note ON: Time 265680, Note Name: E4, Velocity: 65
Note OFF: Time 266400, Note Name: E4
Note OFF: Time 266400, Note Name: C#4
Note OFF: Time 266400, Note Name: E3
Note ON: Time 266400, Note Name: F#3, Velocity: 46
Note ON: Time 266400, Note Name: C#4, Velocity: 55
Note ON: Time 266400, Note Name: F#4, Velocity: 55
Note OFF: Time 267360, Note Name: C#4
Note ON: Time 267360, Note Name: B3, Velocity: 67
Note OFF: Time 267600, Note Name: B3
Note ON: Time 267600, Note Name: C#4, Velocity: 67
Note OFF: Time 267840, Note Name: C#4
Note ON: Time 267840, Note Name: E4, Velocity: 72
Note OFF: Time 268080, Note Name: E4
Note ON: Time 268080, Note Name: D4, Velocity: 66
Note OFF: Time 268440, Note Name: D4
Note ON: Time 268440, Note Name: C#4, Velocity: 57
Note OFF: Time 268490, Note Name: C#4
Note ON: Time 268500, Note Name: C#4, Velocity: 54
Note OFF: Time 268560, Note Name: F#4
Note ON: Time 268560, Note Name: A4, Velocity: 63
Note OFF: Time 268800, Note Name: A4
Note ON: Time 268800, Note Name: F#4, Velocity: 62
Note OFF: Time 269040, Note Name: C#4
Note ON: Time 269040, Note Name: D4, Velocity: 57
Note OFF: Time 269280, Note Name: D4
Note OFF: Time 269280, Note Name: F#4
Note OFF: Time 269280, Note Name: F#3
Note ON: Time 269280, Note Name: G#3, Velocity: 52
Note ON: Time 269280, Note Name: C#4, Velocity: 52
Note ON: Time 269280, Note Name: E4, Velocity: 52
Note OFF: Time 270000, Note Name: C#4
Note ON: Time 270000, Note Name: B3, Velocity: 43
Note OFF: Time 270480, Note Name: B3
Note OFF: Time 270480, Note Name: G#3
Note ON: Time 270480, Note Name: A3, Velocity: 37
Note OFF: Time 270720, Note Name: A3
Note OFF: Time 270720, Note Name: E4
Note ON: Time 270720, Note Name: C#4, Velocity: 35
Note OFF: Time 272160, Note Name: C#4
Note ON: Time 272160, Note Name: C#5, Velocity: 53
Note OFF: Time 272760, Note Name: C#5
Note ON: Time 272760, Note Name: B4, Velocity: 45
Note OFF: Time 272820, Note Name: B4
Note ON: Time 272820, Note Name: C#5, Velocity: 45
Note OFF: Time 272880, Note Name: C#5
Note ON: Time 272880, Note Name: B4, Velocity: 50
Note OFF: Time 273240, Note Name: B4
Note ON: Time 273240, Note Name: A4, Velocity: 47
Note OFF: Time 273360, Note Name: A4
Note ON: Time 273360, Note Name: B4, Velocity: 50
Note OFF: Time 273600, Note Name: B4
Note ON: Time 273600, Note Name: C#5, Velocity: 53
Note OFF: Time 273960, Note Name: C#5
Note ON: Time 273960, Note Name: D5, Velocity: 50
Note OFF: Time 274080, Note Name: D5
Note ON: Time 274080, Note Name: C#5, Velocity: 48
Note OFF: Time 274200, Note Name: C#5
Note ON: Time 274200, Note Name: B4, Velocity: 43
Note OFF: Time 274260, Note Name: B4
Note ON: Time 274260, Note Name: C#5, Velocity: 43
Note OFF: Time 274320, Note Name: C#5
Note ON: Time 274320, Note Name: B4, Velocity: 52
Note OFF: Time 274680, Note Name: B4
Note ON: Time 274680, Note Name: A4, Velocity: 48
Note OFF: Time 274800, Note Name: A4
Note ON: Time 274800, Note Name: B4, Velocity: 47
Note OFF: Time 275040, Note Name: B4
Note ON: Time 275040, Note Name: C#5, Velocity: 39
Note OFF: Time 275160, Note Name: C#5
Note ON: Time 275160, Note Name: C#4, Velocity: 29
Note OFF: Time 275280, Note Name: C#4
Note ON: Time 275280, Note Name: C#5, Velocity: 29
Note OFF: Time 275400, Note Name: C#5
Note ON: Time 275400, Note Name: G#4, Velocity: 29
Note OFF: Time 275520, Note Name: G#4
Note ON: Time 275520, Note Name: C#5, Velocity: 29
Note OFF: Time 275640, Note Name: C#5
Note ON: Time 275640, Note Name: G#4, Velocity: 29
Note OFF: Time 275760, Note Name: G#4
Note ON: Time 275760, Note Name: G#5, Velocity: 29
Note OFF: Time 275880, Note Name: G#5
Note ON: Time 275880, Note Name: C#5, Velocity: 29
Note OFF: Time 276000, Note Name: C#5
Note ON: Time 276000, Note Name: G#5, Velocity: 29
Note OFF: Time 276120, Note Name: G#5
Note ON: Time 276120, Note Name: C#5, Velocity: 29
Note OFF: Time 276240, Note Name: C#5
Note ON: Time 276240, Note Name: C#6, Velocity: 29
Note OFF: Time 276360, Note Name: C#6
Note ON: Time 276360, Note Name: G#5, Velocity: 29
Note OFF: Time 276480, Note Name: G#5
Note ON: Time 276480, Note Name: C#6, Velocity: 29
Note OFF: Time 276600, Note Name: C#6
Note ON: Time 276600, Note Name: G#5, Velocity: 29
Note OFF: Time 276720, Note Name: G#5
Note ON: Time 276720, Note Name: G#6, Velocity: 29
Note OFF: Time 276840, Note Name: G#6
Note ON: Time 276840, Note Name: C#6, Velocity: 29
Note OFF: Time 276960, Note Name: C#6
Note ON: Time 276960, Note Name: G#6, Velocity: 29
Note OFF: Time 277080, Note Name: G#6
Note ON: Time 277080, Note Name: C#6, Velocity: 29
Note OFF: Time 277200, Note Name: C#6
Note ON: Time 277200, Note Name: C#7, Velocity: 39
Note OFF: Time 277320, Note Name: C#7
Note ON: Time 277920, Note Name: E3, Velocity: 37
Note ON: Time 277920, Note Name: C#4, Velocity: 44
Note ON: Time 277920, Note Name: E4, Velocity: 44
Note OFF: Time 278640, Note Name: E4
Note OFF: Time 278640, Note Name: E3
Note ON: Time 278640, Note Name: F#3, Velocity: 31
Note ON: Time 278640, Note Name: F#4, Velocity: 37
Note OFF: Time 279360, Note Name: F#3
Note OFF: Time 279600, Note Name: C#4
Note ON: Time 279600, Note Name: B3, Velocity: 48
Note OFF: Time 279840, Note Name: B3
Note ON: Time 279840, Note Name: C#4, Velocity: 48
Note OFF: Time 280080, Note Name: C#4
Note ON: Time 280080, Note Name: E4, Velocity: 51
Note OFF: Time 280320, Note Name: E4
Note ON: Time 280320, Note Name: D4, Velocity: 47
Note OFF: Time 280680, Note Name: D4
Note ON: Time 280680, Note Name: C#4, Velocity: 47
Note OFF: Time 280800, Note Name: C#4
Note OFF: Time 280800, Note Name: F#4
Note ON: Time 280800, Note Name: E3, Velocity: 37
Note ON: Time 280800, Note Name: C#4, Velocity: 44
Note ON: Time 280800, Note Name: E4, Velocity: 44
Note OFF: Time 281520, Note Name: E4
Note OFF: Time 281520, Note Name: E3
Note ON: Time 281520, Note Name: F#3, Velocity: 31
Note ON: Time 281520, Note Name: F#4, Velocity: 37
Note OFF: Time 282480, Note Name: C#4
Note ON: Time 282480, Note Name: B3, Velocity: 48
Note OFF: Time 282720, Note Name: B3
Note ON: Time 282720, Note Name: C#4, Velocity: 48
Note OFF: Time 282960, Note Name: C#4
Note ON: Time 282960, Note Name: E4, Velocity: 51
Note OFF: Time 283200, Note Name: E4
Note ON: Time 283200, Note Name: D4, Velocity: 47
Note OFF: Time 283440, Note Name: D4
Note ON: Time 283440, Note Name: C#4, Velocity: 47
Note OFF: Time 283610, Note Name: C#4
Note ON: Time 283620, Note Name: C#4, Velocity: 40
Note OFF: Time 283680, Note Name: F#4
Note ON: Time 283680, Note Name: A4, Velocity: 36
Note OFF: Time 283800, Note Name: A4
Note ON: Time 283800, Note Name: G#4, Velocity: 33
Note OFF: Time 283920, Note Name: G#4
Note ON: Time 283920, Note Name: B4, Velocity: 39
Note OFF: Time 284040, Note Name: B4
Note ON: Time 284040, Note Name: A4, Velocity: 38
Note OFF: Time 284160, Note Name: A4
Note ON: Time 284160, Note Name: F#4, Velocity: 36
Note OFF: Time 284280, Note Name: F#4
Note OFF: Time 284280, Note Name: C#4
Note ON: Time 284280, Note Name: D4, Velocity: 35
Note OFF: Time 284400, Note Name: D4
Note OFF: Time 284400, Note Name: F#3
Note ON: Time 284400, Note Name: G#3, Velocity: 31
Note ON: Time 284400, Note Name: C#4, Velocity: 37
Note ON: Time 284400, Note Name: E4, Velocity: 37
Note OFF: Time 285120, Note Name: C#4
Note ON: Time 285120, Note Name: B3, Velocity: 31
Note OFF: Time 285600, Note Name: B3
Note OFF: Time 285600, Note Name: G#3
Note ON: Time 285600, Note Name: A3, Velocity: 27
Note OFF: Time 285840, Note Name: A3
Note OFF: Time 285840, Note Name: E4
Note ON: Time 285840, Note Name: C#4, Velocity: 25
Note OFF: Time 287280, Note Name: C#4
Note ON: Time 288000, Note Name: C#5, Velocity: 42
Note OFF: Time 289560, Note Name: C#5
Note ON: Time 289560, Note Name: D#5, Velocity: 42
Note OFF: Time 289680, Note Name: D#5
Note ON: Time 289680, Note Name: F#5, Velocity: 43
Note OFF: Time 289800, Note Name: F#5
Note ON: Time 289800, Note Name: E5, Velocity: 41
Note OFF: Time 289920, Note Name: E5
Note ON: Time 289920, Note Name: C#5, Velocity: 39
Note OFF: Time 290040, Note Name: C#5
Note ON: Time 290040, Note Name: A4, Velocity: 39
Note OFF: Time 290160, Note Name: A4
Note ON: Time 290160, Note Name: G#4, Velocity: 35
Note OFF: Time 290190, Note Name: G#4
Note ON: Time 290220, Note Name: G#4, Velocity: 35
Note OFF: Time 290280, Note Name: G#4
Note ON: Time 290280, Note Name: G#5, Velocity: 43
Note OFF: Time 290760, Note Name: G#5
Note ON: Time 290760, Note Name: F#5, Velocity: 37
Note OFF: Time 290820, Note Name: F#5
Note ON: Time 290820, Note Name: G#5, Velocity: 37
Note OFF: Time 290880, Note Name: G#5
Note ON: Time 290880, Note Name: F#5, Velocity: 43
Note OFF: Time 291240, Note Name: F#5
Note ON: Time 291240, Note Name: E5, Velocity: 39
Note OFF: Time 291360, Note Name: E5
Note ON: Time 291360, Note Name: F#5, Velocity: 39
Note OFF: Time 291600, Note Name: F#5
Note ON: Time 291600, Note Name: G#5, Velocity: 42
Note OFF: Time 291960, Note Name: G#5
Note ON: Time 291960, Note Name: A5, Velocity: 40
Note OFF: Time 292080, Note Name: A5
Note ON: Time 292080, Note Name: G#5, Velocity: 40
Note OFF: Time 292200, Note Name: G#5
Note ON: Time 292200, Note Name: F#5, Velocity: 37
Note OFF: Time 292260, Note Name: F#5
Note ON: Time 292260, Note Name: G#5, Velocity: 37
Note OFF: Time 292320, Note Name: G#5
Note ON: Time 292320, Note Name: F#5, Velocity: 44
Note OFF: Time 292680, Note Name: F#5
Note ON: Time 292680, Note Name: E5, Velocity: 33
Note OFF: Time 292800, Note Name: E5
Note ON: Time 292800, Note Name: F#5, Velocity: 31
Note OFF: Time 293040, Note Name: F#5
Note ON: Time 293040, Note Name: G#5, Velocity: 31
Note OFF: Time 294120, Note Name: G#5
Note ON: Time 294120, Note Name: G#4, Velocity: 25
Note OFF: Time 294240, Note Name: G#4
Note ON: Time 294240, Note Name: G#5, Velocity: 25
Note OFF: Time 294360, Note Name: G#5
Note ON: Time 294360, Note Name: D#5, Velocity: 25
Note OFF: Time 294480, Note Name: D#5
Note ON: Time 294480, Note Name: G#5, Velocity: 25
Note OFF: Time 294600, Note Name: G#5
Note ON: Time 294600, Note Name: D#5, Velocity: 25
Note OFF: Time 294720, Note Name: D#5
Note ON: Time 294720, Note Name: D#6, Velocity: 21
Note OFF: Time 294840, Note Name: D#6
Note ON: Time 294840, Note Name: G#5, Velocity: 21
Note OFF: Time 294960, Note Name: G#5
Note ON: Time 294960, Note Name: D#6, Velocity: 21
Note OFF: Time 295080, Note Name: D#6
Note ON: Time 295080, Note Name: G#5, Velocity: 21
Note OFF: Time 295200, Note Name: G#5
Note ON: Time 295200, Note Name: G#6, Velocity: 28
Note OFF: Time 295320, Note Name: G#6
Note ON: Time 295440, Note Name: G#5, Velocity: 44
Note OFF: Time 295680, Note Name: G#5
Note ON: Time 295680, Note Name: F#5, Velocity: 44
Note OFF: Time 295920, Note Name: F#5
Note ON: Time 295920, Note Name: E5, Velocity: 45
Note ON: Time 296160, Note Name: G4, Velocity: 34
Note OFF: Time 296280, Note Name: G4
Note ON: Time 296280, Note Name: G#4, Velocity: 31
Note OFF: Time 296400, Note Name: G#4
Note ON: Time 296400, Note Name: B4, Velocity: 34
Note OFF: Time 296480, Note Name: B4
Note ON: Time 296480, Note Name: A4, Velocity: 34
Note OFF: Time 296560, Note Name: A4
Note ON: Time 296560, Note Name: G#4, Velocity: 32
Note OFF: Time 296640, Note Name: G#4
Note ON: Time 296640, Note Name: G#4, Velocity: 43
Note OFF: Time 296880, Note Name: E5
Note ON: Time 296880, Note Name: E5, Velocity: 42
Note OFF: Time 297120, Note Name: E5
Note ON: Time 297120, Note Name: D#5, Velocity: 39
Note OFF: Time 297360, Note Name: D#5
Note ON: Time 297360, Note Name: C#5, Velocity: 44
Note OFF: Time 297600, Note Name: C#5
Note OFF: Time 297600, Note Name: G#4
Note ON: Time 297600, Note Name: G4, Velocity: 36
Note OFF: Time 297720, Note Name: G4
Note ON: Time 297720, Note Name: G#4, Velocity: 33
Note OFF: Time 297840, Note Name: G#4
Note ON: Time 297840, Note Name: B4, Velocity: 36
Note OFF: Time 297920, Note Name: B4
Note ON: Time 297920, Note Name: A4, Velocity: 36
Note OFF: Time 298000, Note Name: A4
Note ON: Time 298000, Note Name: G#4, Velocity: 33
Note OFF: Time 298080, Note Name: G#4
Note ON: Time 298080, Note Name: G#4, Velocity: 44
Note ON: Time 298320, Note Name: G#5, Velocity: 43
Note OFF: Time 298560, Note Name: G#5
Note ON: Time 298560, Note Name: F#5, Velocity: 39
Note OFF: Time 298800, Note Name: F#5
Note ON: Time 298800, Note Name: E5, Velocity: 46
Note OFF: Time 299040, Note Name: G#4
Note ON: Time 299040, Note Name: G4, Velocity: 38
Note OFF: Time 299160, Note Name: G4
Note ON: Time 299160, Note Name: G#4, Velocity: 35
Note OFF: Time 299280, Note Name: G#4
Note ON: Time 299280, Note Name: B4, Velocity: 38
Note OFF: Time 299360, Note Name: B4
Note ON: Time 299360, Note Name: A4, Velocity: 38
Note OFF: Time 299440, Note Name: A4
Note ON: Time 299440, Note Name: G#4, Velocity: 36
Note OFF: Time 299520, Note Name: G#4
Note ON: Time 299520, Note Name: G#4, Velocity: 42
Note OFF: Time 299760, Note Name: E5
Note ON: Time 299760, Note Name: E5, Velocity: 43
Note OFF: Time 300000, Note Name: E5
Note ON: Time 300000, Note Name: D#5, Velocity: 38
Note OFF: Time 300240, Note Name: D#5
Note OFF: Time 300240, Note Name: G#4
Note ON: Time 300240, Note Name: C#5, Velocity: 47
Note OFF: Time 300480, Note Name: C#5
Note ON: Time 300480, Note Name: C5, Velocity: 37
Note OFF: Time 300600, Note Name: C5
Note ON: Time 300600, Note Name: C#5, Velocity: 35
Note OFF: Time 300720, Note Name: C#5
Note ON: Time 300720, Note Name: E5, Velocity: 37
Note OFF: Time 300800, Note Name: E5
Note ON: Time 300800, Note Name: D5, Velocity: 37
Note OFF: Time 300880, Note Name: D5
Note ON: Time 300880, Note Name: C#5, Velocity: 35
Note OFF: Time 300950, Note Name: C#5
Note ON: Time 300960, Note Name: C#5, Velocity: 41
Note ON: Time 301200, Note Name: C#6, Velocity: 46
Note OFF: Time 301440, Note Name: C#6
Note ON: Time 301440, Note Name: B5, Velocity: 43
Note OFF: Time 301680, Note Name: B5
Note ON: Time 301680, Note Name: A5, Velocity: 53
Note OFF: Time 301920, Note Name: C#5
Note ON: Time 301920, Note Name: C5, Velocity: 32
Note OFF: Time 302040, Note Name: C5
Note ON: Time 302040, Note Name: C#5, Velocity: 30
Note OFF: Time 302160, Note Name: C#5
Note ON: Time 302160, Note Name: E5, Velocity: 32
Note OFF: Time 302240, Note Name: E5
Note ON: Time 302240, Note Name: D5, Velocity: 32
Note OFF: Time 302320, Note Name: D5
Note ON: Time 302320, Note Name: C#5, Velocity: 30
Note OFF: Time 302390, Note Name: C#5
Note ON: Time 302400, Note Name: C#5, Velocity: 37
Note OFF: Time 302640, Note Name: A5
Note ON: Time 302640, Note Name: A5, Velocity: 38
Note OFF: Time 302880, Note Name: A5
Note ON: Time 302880, Note Name: G#5, Velocity: 36
Note OFF: Time 303120, Note Name: G#5
Note ON: Time 303120, Note Name: F#5, Velocity: 40
Note OFF: Time 303360, Note Name: F#5
Note OFF: Time 303360, Note Name: C#5
Note ON: Time 303360, Note Name: C5, Velocity: 27
Note OFF: Time 303480, Note Name: C5
Note ON: Time 303480, Note Name: C#5, Velocity: 27
Note OFF: Time 303600, Note Name: C#5
Note ON: Time 303600, Note Name: E5, Velocity: 30
Note OFF: Time 303680, Note Name: E5
Note ON: Time 303680, Note Name: D5, Velocity: 30
Note OFF: Time 303760, Note Name: D5
Note ON: Time 303760, Note Name: C#5, Velocity: 29
Note OFF: Time 303830, Note Name: C#5
Note ON: Time 303840, Note Name: C#5, Velocity: 38
Note ON: Time 304080, Note Name: C#6, Velocity: 40
Note OFF: Time 304320, Note Name: C#6
Note ON: Time 304320, Note Name: B5, Velocity: 38
Note OFF: Time 304560, Note Name: B5
Note ON: Time 304560, Note Name: A5, Velocity: 45
Note OFF: Time 304800, Note Name: C#5
Note ON: Time 304800, Note Name: C5, Velocity: 37
Note OFF: Time 304920, Note Name: C5
Note ON: Time 304920, Note Name: C#5, Velocity: 37
Note OFF: Time 305040, Note Name: C#5
Note ON: Time 305040, Note Name: E5, Velocity: 37
Note OFF: Time 305120, Note Name: E5
Note ON: Time 305120, Note Name: D5, Velocity: 37
Note OFF: Time 305200, Note Name: D5
Note ON: Time 305200, Note Name: C#5, Velocity: 34
Note OFF: Time 305270, Note Name: C#5
Note ON: Time 305280, Note Name: C#5, Velocity: 42
Note OFF: Time 305520, Note Name: A5
Note ON: Time 305520, Note Name: A5, Velocity: 44
Note OFF: Time 305760, Note Name: A5
Note ON: Time 305760, Note Name: G#5, Velocity: 40
Note OFF: Time 306000, Note Name: G#5
Note ON: Time 306000, Note Name: F#5, Velocity: 47
Note OFF: Time 306240, Note Name: C#5
Note ON: Time 306240, Note Name: C5, Velocity: 37
Note OFF: Time 306360, Note Name: C5
Note ON: Time 306360, Note Name: C#5, Velocity: 35
Note OFF: Time 306480, Note Name: C#5
Note ON: Time 306480, Note Name: E5, Velocity: 37
Note OFF: Time 306560, Note Name: E5
Note ON: Time 306560, Note Name: D5, Velocity: 37
Note OFF: Time 306640, Note Name: D5
Note ON: Time 306640, Note Name: C#5, Velocity: 35
Note OFF: Time 306710, Note Name: C#5
Note ON: Time 306720, Note Name: C#5, Velocity: 41
Note OFF: Time 306960, Note Name: F#5
Note ON: Time 306960, Note Name: G#5, Velocity: 43
Note OFF: Time 307200, Note Name: G#5
Note ON: Time 307200, Note Name: A5, Velocity: 40
Note OFF: Time 307440, Note Name: A5
Note OFF: Time 307440, Note Name: C#5
Note ON: Time 307440, Note Name: G#5, Velocity: 50
Note OFF: Time 307680, Note Name: G#5
Note ON: Time 307680, Note Name: G4, Velocity: 32
Note OFF: Time 307800, Note Name: G4
Note ON: Time 307800, Note Name: G#4, Velocity: 30
Note OFF: Time 307920, Note Name: G#4
Note ON: Time 307920, Note Name: B4, Velocity: 32
Note OFF: Time 308000, Note Name: B4
Note ON: Time 308000, Note Name: A4, Velocity: 32
Note OFF: Time 308080, Note Name: A4
Note ON: Time 308080, Note Name: G#4, Velocity: 30
Note OFF: Time 308150, Note Name: G#4
Note ON: Time 308160, Note Name: G#4, Velocity: 37
Note ON: Time 308400, Note Name: F#5, Velocity: 47
Note OFF: Time 308640, Note Name: F#5
Note ON: Time 308640, Note Name: E5, Velocity: 44
Note OFF: Time 308880, Note Name: E5
Note ON: Time 308880, Note Name: D#5, Velocity: 53
Note OFF: Time 309120, Note Name: G#4
Note ON: Time 309120, Note Name: G4, Velocity: 38
Note OFF: Time 309240, Note Name: G4
Note ON: Time 309240, Note Name: G#4, Velocity: 38
Note OFF: Time 309360, Note Name: G#4
Note ON: Time 309360, Note Name: B4, Velocity: 38
Note OFF: Time 309440, Note Name: B4
Note ON: Time 309440, Note Name: A4, Velocity: 38
Note OFF: Time 309520, Note Name: A4
Note ON: Time 309520, Note Name: G#4, Velocity: 35
Note OFF: Time 309590, Note Name: G#4
Note ON: Time 309600, Note Name: G#4, Velocity: 46
Note OFF: Time 309840, Note Name: D#5
Note ON: Time 309840, Note Name: D#5, Velocity: 47
Note OFF: Time 310080, Note Name: D#5
Note ON: Time 310080, Note Name: C#5, Velocity: 44
Note OFF: Time 310320, Note Name: C#5
Note ON: Time 310320, Note Name: C5, Velocity: 52
Note OFF: Time 310560, Note Name: C5
Note OFF: Time 310560, Note Name: G#4
Note ON: Time 310560, Note Name: G4, Velocity: 41
Note OFF: Time 310680, Note Name: G4
Note ON: Time 310680, Note Name: G#4, Velocity: 38
Note OFF: Time 310800, Note Name: G#4
Note ON: Time 310800, Note Name: B4, Velocity: 41
Note OFF: Time 310880, Note Name: B4
Note ON: Time 310880, Note Name: A4, Velocity: 41
Note OFF: Time 310960, Note Name: A4
Note ON: Time 310960, Note Name: G#4, Velocity: 38
Note OFF: Time 311030, Note Name: G#4
Note ON: Time 311040, Note Name: G#4, Velocity: 52
Note ON: Time 311280, Note Name: F#5, Velocity: 43
Note OFF: Time 311520, Note Name: F#5
Note ON: Time 311520, Note Name: E5, Velocity: 39
Note OFF: Time 311760, Note Name: E5
Note ON: Time 311760, Note Name: D#5, Velocity: 47
Note OFF: Time 312000, Note Name: D#5
Note OFF: Time 312000, Note Name: G#4
Note ON: Time 312000, Note Name: A#4, Velocity: 38
Note OFF: Time 312120, Note Name: A#4
Note ON: Time 312120, Note Name: B4, Velocity: 36
Note OFF: Time 312240, Note Name: B4
Note ON: Time 312240, Note Name: D#5, Velocity: 38
Note OFF: Time 312320, Note Name: D#5
Note ON: Time 312320, Note Name: C#5, Velocity: 38
Note OFF: Time 312400, Note Name: C#5
Note ON: Time 312400, Note Name: B4, Velocity: 35
Note OFF: Time 312470, Note Name: B4
Note ON: Time 312480, Note Name: B4, Velocity: 41
Note ON: Time 312720, Note Name: E5, Velocity: 34
Note OFF: Time 312960, Note Name: E5
Note ON: Time 312960, Note Name: F#5, Velocity: 34
Note OFF: Time 313200, Note Name: F#5
Note OFF: Time 313200, Note Name: B4
Note ON: Time 313200, Note Name: G#4, Velocity: 35
Note OFF: Time 313320, Note Name: G#4
Note ON: Time 313320, Note Name: B4, Velocity: 37
Note OFF: Time 313440, Note Name: B4
Note ON: Time 313440, Note Name: E5, Velocity: 40
Note OFF: Time 313560, Note Name: E5
Note ON: Time 313560, Note Name: G#5, Velocity: 42
Note OFF: Time 313680, Note Name: G#5
Note ON: Time 313680, Note Name: F#5, Velocity: 44
Note OFF: Time 313800, Note Name: F#5
Note ON: Time 313800, Note Name: E5, Velocity: 42
Note OFF: Time 313920, Note Name: E5
Note ON: Time 313920, Note Name: G#5, Velocity: 38
Note OFF: Time 314040, Note Name: G#5
Note ON: Time 314040, Note Name: B5, Velocity: 40
Note OFF: Time 314160, Note Name: B5
Note ON: Time 314160, Note Name: E6, Velocity: 43
Note OFF: Time 314280, Note Name: E6
Note ON: Time 314280, Note Name: G#6, Velocity: 46
Note OFF: Time 314400, Note Name: G#6
Note ON: Time 314400, Note Name: F#6, Velocity: 50
Note OFF: Time 314520, Note Name: F#6
Note ON: Time 314520, Note Name: E6, Velocity: 47
Note OFF: Time 314640, Note Name: E6
Note ON: Time 314640, Note Name: B5, Velocity: 44
Note OFF: Time 314760, Note Name: B5
Note ON: Time 314760, Note Name: G#5, Velocity: 43
Note OFF: Time 314880, Note Name: G#5
Note ON: Time 314880, Note Name: F#5, Velocity: 42
Note OFF: Time 315000, Note Name: F#5
Note ON: Time 315000, Note Name: E5, Velocity: 41
Note OFF: Time 315120, Note Name: E5
Note ON: Time 315120, Note Name: B4, Velocity: 40
Note OFF: Time 315240, Note Name: B4
Note ON: Time 315240, Note Name: G#4, Velocity: 39
Note OFF: Time 315360, Note Name: G#4
Note ON: Time 315360, Note Name: F#4, Velocity: 38
Note OFF: Time 315480, Note Name: F#4
Note ON: Time 315480, Note Name: E4, Velocity: 37
Note OFF: Time 315600, Note Name: E4
Note ON: Time 315600, Note Name: B3, Velocity: 36
Note OFF: Time 315720, Note Name: B3
Note ON: Time 315720, Note Name: G#4, Velocity: 39
Note OFF: Time 315840, Note Name: G#4
Note ON: Time 315840, Note Name: F#4, Velocity: 38
Note OFF: Time 315960, Note Name: F#4
Note ON: Time 315960, Note Name: E4, Velocity: 37
Note OFF: Time 316080, Note Name: E4
Note ON: Time 316080, Note Name: C#4, Velocity: 36
Note OFF: Time 316200, Note Name: C#4
Note ON: Time 316200, Note Name: E4, Velocity: 34
Note OFF: Time 316320, Note Name: E4
Note ON: Time 316320, Note Name: F#4, Velocity: 37
Note OFF: Time 316440, Note Name: F#4
Note ON: Time 316440, Note Name: A4, Velocity: 39
Note OFF: Time 316560, Note Name: A4
Note ON: Time 316560, Note Name: C#5, Velocity: 41
Note OFF: Time 316680, Note Name: C#5
Note ON: Time 316680, Note Name: E5, Velocity: 43
Note OFF: Time 316800, Note Name: E5
Note ON: Time 316800, Note Name: F#5, Velocity: 46
Note OFF: Time 316920, Note Name: F#5
Note ON: Time 316920, Note Name: A5, Velocity: 48
Note OFF: Time 317040, Note Name: A5
Note ON: Time 317040, Note Name: C#6, Velocity: 50
Note OFF: Time 317160, Note Name: C#6
Note ON: Time 317160, Note Name: E6, Velocity: 51
Note OFF: Time 317280, Note Name: E6
Note ON: Time 317280, Note Name: F#6, Velocity: 49
Note OFF: Time 317400, Note Name: F#6
Note ON: Time 317400, Note Name: A6, Velocity: 47
Note OFF: Time 317520, Note Name: A6
Note ON: Time 317520, Note Name: G#6, Velocity: 50
Note OFF: Time 317640, Note Name: G#6
Note ON: Time 317640, Note Name: F#6, Velocity: 49
Note OFF: Time 317760, Note Name: F#6
Note ON: Time 317760, Note Name: D#6, Velocity: 49
Note OFF: Time 317880, Note Name: D#6
Note ON: Time 317880, Note Name: A5, Velocity: 48
Note OFF: Time 318000, Note Name: A5
Note ON: Time 318000, Note Name: G#5, Velocity: 47
Note OFF: Time 318120, Note Name: G#5
Note ON: Time 318120, Note Name: F#5, Velocity: 46
Note OFF: Time 318240, Note Name: F#5
Note ON: Time 318240, Note Name: D#5, Velocity: 45
Note OFF: Time 318360, Note Name: D#5
Note ON: Time 318360, Note Name: B4, Velocity: 44
Note OFF: Time 318480, Note Name: B4
Note ON: Time 318480, Note Name: D#5, Velocity: 45
Note OFF: Time 318600, Note Name: D#5
Note ON: Time 318600, Note Name: C#5, Velocity: 42
Note OFF: Time 318720, Note Name: C#5
Note ON: Time 318720, Note Name: B4, Velocity: 39
Note OFF: Time 318840, Note Name: B4
Note ON: Time 318840, Note Name: A4, Velocity: 37
Note OFF: Time 318960, Note Name: A4
Note ON: Time 318960, Note Name: G#4, Velocity: 35
Note OFF: Time 319080, Note Name: G#4
Note ON: Time 319080, Note Name: B4, Velocity: 37
Note OFF: Time 319200, Note Name: B4
Note ON: Time 319200, Note Name: E5, Velocity: 40
Note OFF: Time 319320, Note Name: E5
Note ON: Time 319320, Note Name: G#5, Velocity: 42
Note OFF: Time 319440, Note Name: G#5
Note ON: Time 319440, Note Name: F#5, Velocity: 44
Note OFF: Time 319560, Note Name: F#5
Note ON: Time 319560, Note Name: E5, Velocity: 42
Note OFF: Time 319680, Note Name: E5
Note ON: Time 319680, Note Name: G#5, Velocity: 38
Note OFF: Time 319800, Note Name: G#5
Note ON: Time 319800, Note Name: B5, Velocity: 40
Note OFF: Time 319920, Note Name: B5
Note ON: Time 319920, Note Name: E6, Velocity: 43
Note OFF: Time 320040, Note Name: E6
Note ON: Time 320040, Note Name: G#6, Velocity: 46
Note OFF: Time 320160, Note Name: G#6
Note ON: Time 320160, Note Name: F#6, Velocity: 50
Note OFF: Time 320280, Note Name: F#6
Note ON: Time 320280, Note Name: E6, Velocity: 47
Note OFF: Time 320400, Note Name: E6
Note ON: Time 320400, Note Name: B5, Velocity: 44
Note OFF: Time 320520, Note Name: B5
Note ON: Time 320520, Note Name: G#5, Velocity: 43
Note OFF: Time 320640, Note Name: G#5
Note ON: Time 320640, Note Name: F#5, Velocity: 42
Note OFF: Time 320760, Note Name: F#5
Note ON: Time 320760, Note Name: E5, Velocity: 41
Note OFF: Time 320880, Note Name: E5
Note ON: Time 320880, Note Name: B4, Velocity: 40
Note OFF: Time 321000, Note Name: B4
Note ON: Time 321000, Note Name: G#4, Velocity: 39
Note OFF: Time 321120, Note Name: G#4
Note ON: Time 321120, Note Name: F#4, Velocity: 38
Note OFF: Time 321240, Note Name: F#4
Note ON: Time 321240, Note Name: E4, Velocity: 37
Note OFF: Time 321360, Note Name: E4
Note ON: Time 321360, Note Name: B3, Velocity: 36
Note OFF: Time 321480, Note Name: B3
Note ON: Time 321480, Note Name: G#4, Velocity: 39
Note OFF: Time 321600, Note Name: G#4
Note ON: Time 321600, Note Name: F#4, Velocity: 38
Note OFF: Time 321720, Note Name: F#4
Note ON: Time 321720, Note Name: E4, Velocity: 37
Note OFF: Time 321840, Note Name: E4
Note ON: Time 321840, Note Name: C#4, Velocity: 36
Note OFF: Time 321960, Note Name: C#4
Note ON: Time 321960, Note Name: E4, Velocity: 34
Note OFF: Time 322073, Note Name: E4
Note ON: Time 322080, Note Name: F#4, Velocity: 37
Note OFF: Time 322200, Note Name: F#4
Note ON: Time 322200, Note Name: A4, Velocity: 39
Note OFF: Time 322320, Note Name: A4
Note ON: Time 322320, Note Name: C#5, Velocity: 41
Note OFF: Time 322440, Note Name: C#5
Note ON: Time 322440, Note Name: E5, Velocity: 43
Note OFF: Time 322560, Note Name: E5
Note ON: Time 322560, Note Name: F#5, Velocity: 46
Note OFF: Time 322680, Note Name: F#5
Note ON: Time 322680, Note Name: A5, Velocity: 48
Note OFF: Time 322800, Note Name: A5
Note ON: Time 322800, Note Name: C#6, Velocity: 50
Note OFF: Time 322920, Note Name: C#6
Note ON: Time 322920, Note Name: E6, Velocity: 51
Note OFF: Time 323040, Note Name: E6
Note ON: Time 323040, Note Name: F#6, Velocity: 49
Note OFF: Time 323160, Note Name: F#6
Note ON: Time 323160, Note Name: A6, Velocity: 47
Note OFF: Time 323280, Note Name: A6
Note ON: Time 323280, Note Name: G#6, Velocity: 47
Note OFF: Time 323400, Note Name: G#6
Note ON: Time 323400, Note Name: F#6, Velocity: 48
Note OFF: Time 323520, Note Name: F#6
Note ON: Time 323520, Note Name: D#6, Velocity: 49
Note OFF: Time 323640, Note Name: D#6
Note ON: Time 323640, Note Name: A5, Velocity: 50
Note OFF: Time 323760, Note Name: A5
Note ON: Time 323760, Note Name: G#5, Velocity: 51
Note OFF: Time 323880, Note Name: G#5
Note ON: Time 323880, Note Name: F#5, Velocity: 52
Note OFF: Time 324000, Note Name: F#5
Note ON: Time 324000, Note Name: D#5, Velocity: 53
Note OFF: Time 324120, Note Name: D#5
Note ON: Time 324120, Note Name: B4, Velocity: 52
Note OFF: Time 324240, Note Name: B4
Note ON: Time 324240, Note Name: D#5, Velocity: 51
Note OFF: Time 324360, Note Name: D#5
Note ON: Time 324360, Note Name: C#5, Velocity: 51
Note OFF: Time 324480, Note Name: C#5
Note ON: Time 324480, Note Name: B4, Velocity: 53
Note OFF: Time 324600, Note Name: B4
Note ON: Time 324600, Note Name: A4, Velocity: 57
Note OFF: Time 324720, Note Name: A4
Note ON: Time 324720, Note Name: G#4, Velocity: 56
Note OFF: Time 324840, Note Name: G#4
Note ON: Time 324840, Note Name: B4, Velocity: 59
Note OFF: Time 324960, Note Name: B4
Note ON: Time 324960, Note Name: E5, Velocity: 61
Note OFF: Time 325080, Note Name: E5
Note ON: Time 325080, Note Name: G#5, Velocity: 63
Note OFF: Time 325200, Note Name: G#5
Note ON: Time 325200, Note Name: F#5, Velocity: 65
Note OFF: Time 325320, Note Name: F#5
Note ON: Time 325320, Note Name: E5, Velocity: 63
Note OFF: Time 325440, Note Name: E5
Note ON: Time 325440, Note Name: G#5, Velocity: 61
Note OFF: Time 325560, Note Name: G#5
Note ON: Time 325560, Note Name: B5, Velocity: 61
Note OFF: Time 325680, Note Name: B5
Note ON: Time 325680, Note Name: E6, Velocity: 64
Note OFF: Time 325800, Note Name: E6
Note ON: Time 325800, Note Name: G#6, Velocity: 66
Note OFF: Time 325920, Note Name: G#6
Note ON: Time 325920, Note Name: F#6, Velocity: 69
Note OFF: Time 326040, Note Name: F#6
Note ON: Time 326040, Note Name: E6, Velocity: 65
Note OFF: Time 326160, Note Name: E6
Note ON: Time 326160, Note Name: C6, Velocity: 62
Note OFF: Time 326280, Note Name: C6
Note ON: Time 326280, Note Name: A5, Velocity: 61
Note OFF: Time 326400, Note Name: A5
Note ON: Time 326400, Note Name: F#5, Velocity: 60
Note OFF: Time 326520, Note Name: F#5
Note ON: Time 326520, Note Name: E5, Velocity: 60
Note OFF: Time 326640, Note Name: E5
Note ON: Time 326640, Note Name: C5, Velocity: 59
Note OFF: Time 326760, Note Name: C5
Note ON: Time 326760, Note Name: A4, Velocity: 58
Note OFF: Time 326880, Note Name: A4
Note ON: Time 326880, Note Name: F#4, Velocity: 57
Note OFF: Time 327000, Note Name: F#4
Note ON: Time 327000, Note Name: E4, Velocity: 56
Note OFF: Time 327120, Note Name: E4
Note ON: Time 327120, Note Name: C4, Velocity: 55
Note OFF: Time 327240, Note Name: C4
Note ON: Time 327240, Note Name: A3, Velocity: 54
Note OFF: Time 327360, Note Name: A3
Note ON: Time 327360, Note Name: F#3, Velocity: 53
Note OFF: Time 327480, Note Name: F#3
Note ON: Time 327480, Note Name: E3, Velocity: 52
Note OFF: Time 327600, Note Name: E3
Note ON: Time 327600, Note Name: G#3, Velocity: 52
Note OFF: Time 327720, Note Name: G#3
Note ON: Time 327720, Note Name: B3, Velocity: 51
Note OFF: Time 327840, Note Name: B3
Note ON: Time 327840, Note Name: E4, Velocity: 52
Note OFF: Time 327960, Note Name: E4
Note ON: Time 327960, Note Name: G#4, Velocity: 53
Note OFF: Time 328080, Note Name: G#4
Note ON: Time 328080, Note Name: F#4, Velocity: 54
Note OFF: Time 328200, Note Name: F#4
Note ON: Time 328200, Note Name: E4, Velocity: 52
Note OFF: Time 328320, Note Name: E4
Note ON: Time 328320, Note Name: G#4, Velocity: 49
Note OFF: Time 328440, Note Name: G#4
Note ON: Time 328440, Note Name: B4, Velocity: 51
Note OFF: Time 328560, Note Name: B4
Note ON: Time 328560, Note Name: E5, Velocity: 54
Note OFF: Time 328680, Note Name: E5
Note ON: Time 328680, Note Name: G#5, Velocity: 57
Note OFF: Time 328800, Note Name: G#5
Note ON: Time 328800, Note Name: F#5, Velocity: 59
Note OFF: Time 328920, Note Name: F#5
Note ON: Time 328920, Note Name: E5, Velocity: 57
Note OFF: Time 329040, Note Name: E5
Note ON: Time 329040, Note Name: C5, Velocity: 59
Note OFF: Time 329160, Note Name: C5
Note ON: Time 329160, Note Name: A4, Velocity: 61
Note OFF: Time 329280, Note Name: A4
Note ON: Time 329280, Note Name: F#4, Velocity: 62
Note OFF: Time 329400, Note Name: F#4
Note ON: Time 329400, Note Name: E4, Velocity: 64
Note OFF: Time 329520, Note Name: E4
Note ON: Time 329520, Note Name: C4, Velocity: 66
Note OFF: Time 329640, Note Name: C4
Note ON: Time 329640, Note Name: A3, Velocity: 67
Note OFF: Time 329760, Note Name: A3
Note ON: Time 329760, Note Name: F#3, Velocity: 69
Note OFF: Time 329880, Note Name: F#3
Note ON: Time 329880, Note Name: E3, Velocity: 71
Note OFF: Time 330000, Note Name: E3
Note ON: Time 330000, Note Name: C3, Velocity: 73
Note OFF: Time 330120, Note Name: C3
Note ON: Time 330120, Note Name: A2, Velocity: 74
Note OFF: Time 330240, Note Name: A2
Note ON: Time 330240, Note Name: F#2, Velocity: 76
Note OFF: Time 330360, Note Name: F#2
Note ON: Time 330360, Note Name: E2, Velocity: 78
Note OFF: Time 330480, Note Name: E2
Note ON: Time 330720, Note Name: B2, Velocity: 73
Note OFF: Time 330840, Note Name: B2
Note ON: Time 330840, Note Name: E3, Velocity: 68
Note OFF: Time 330960, Note Name: E3
Note ON: Time 330960, Note Name: A3, Velocity: 68
Note OFF: Time 331080, Note Name: A3
Note ON: Time 331080, Note Name: G#3, Velocity: 68
Note OFF: Time 331200, Note Name: G#3
Note ON: Time 331200, Note Name: B3, Velocity: 73
Note OFF: Time 331320, Note Name: B3
Note ON: Time 331320, Note Name: E4, Velocity: 67
Note OFF: Time 331440, Note Name: E4
Note ON: Time 331440, Note Name: A4, Velocity: 67
Note OFF: Time 331560, Note Name: A4
Note ON: Time 331560, Note Name: G#4, Velocity: 68
Note OFF: Time 331680, Note Name: G#4
Note ON: Time 331680, Note Name: B4, Velocity: 72
Note OFF: Time 331800, Note Name: B4
Note ON: Time 331800, Note Name: E5, Velocity: 73
Note OFF: Time 331920, Note Name: E5
Note ON: Time 331920, Note Name: A5, Velocity: 76
Note OFF: Time 332040, Note Name: A5
Note ON: Time 332040, Note Name: G#5, Velocity: 71
Note OFF: Time 332160, Note Name: G#5
Note ON: Time 332160, Note Name: B5, Velocity: 71
Note OFF: Time 332280, Note Name: B5
Note ON: Time 332280, Note Name: E6, Velocity: 71
Note OFF: Time 332400, Note Name: E6
Note ON: Time 332400, Note Name: A6, Velocity: 71
Note OFF: Time 332520, Note Name: A6
Note ON: Time 332520, Note Name: G#6, Velocity: 71
Note OFF: Time 332640, Note Name: G#6
Note ON: Time 332640, Note Name: E6, Velocity: 77
Note OFF: Time 332760, Note Name: E6
Note ON: Time 332760, Note Name: B5, Velocity: 71
Note OFF: Time 332880, Note Name: B5
Note ON: Time 332880, Note Name: A5, Velocity: 71
Note OFF: Time 333000, Note Name: A5
Note ON: Time 333000, Note Name: G#5, Velocity: 71
Note OFF: Time 333120, Note Name: G#5
Note ON: Time 333120, Note Name: E5, Velocity: 71
Note OFF: Time 333240, Note Name: E5
Note ON: Time 333240, Note Name: B4, Velocity: 71
Note OFF: Time 333360, Note Name: B4
Note ON: Time 333360, Note Name: A4, Velocity: 71
Note OFF: Time 333480, Note Name: A4
Note ON: Time 333480, Note Name: G#4, Velocity: 72
Note OFF: Time 333600, Note Name: G#4
Note ON: Time 333600, Note Name: E4, Velocity: 73
Note OFF: Time 333720, Note Name: E4
Note ON: Time 333720, Note Name: B3, Velocity: 75
Note OFF: Time 333840, Note Name: B3
Note ON: Time 333840, Note Name: A3, Velocity: 77
Note OFF: Time 333960, Note Name: A3
Note ON: Time 333960, Note Name: G#3, Velocity: 78
Note OFF: Time 334080, Note Name: G#3
Note ON: Time 334080, Note Name: E3, Velocity: 80
Note OFF: Time 334200, Note Name: E3
Note ON: Time 334200, Note Name: B2, Velocity: 81
Note OFF: Time 334320, Note Name: B2
Note ON: Time 334320, Note Name: A2, Velocity: 82
Note OFF: Time 334440, Note Name: A2
Note ON: Time 334440, Note Name: G#2, Velocity: 84
Note OFF: Time 334560, Note Name: G#2
Note ON: Time 334560, Note Name: E2, Velocity: 86
Note OFF: Time 334680, Note Name: E2
Note ON: Time 334680, Note Name: B1, Velocity: 88
Note OFF: Time 334800, Note Name: B1
Note ON: Time 336480, Note Name: B2, Velocity: 73
Note OFF: Time 336600, Note Name: B2
Note ON: Time 336600, Note Name: F3, Velocity: 68
Note OFF: Time 336720, Note Name: F3
Note ON: Time 336720, Note Name: A3, Velocity: 68
Note OFF: Time 336840, Note Name: A3
Note ON: Time 336840, Note Name: G#3, Velocity: 68
Note OFF: Time 336960, Note Name: G#3
Note ON: Time 336960, Note Name: B3, Velocity: 73
Note OFF: Time 337080, Note Name: B3
Note ON: Time 337080, Note Name: F4, Velocity: 67
Note OFF: Time 337200, Note Name: F4
Note ON: Time 337200, Note Name: A4, Velocity: 67
Note OFF: Time 337320, Note Name: A4
Note ON: Time 337320, Note Name: G#4, Velocity: 68
Note OFF: Time 337440, Note Name: G#4
Note ON: Time 337440, Note Name: B4, Velocity: 72
Note OFF: Time 337560, Note Name: B4
Note ON: Time 337560, Note Name: F5, Velocity: 73
Note OFF: Time 337680, Note Name: F5
Note ON: Time 337680, Note Name: A5, Velocity: 76
Note OFF: Time 337800, Note Name: A5
Note ON: Time 337800, Note Name: G#5, Velocity: 71
Note OFF: Time 337920, Note Name: G#5
Note ON: Time 337920, Note Name: B5, Velocity: 71
Note OFF: Time 338040, Note Name: B5
Note ON: Time 338040, Note Name: F6, Velocity: 71
Note OFF: Time 338160, Note Name: F6
Note ON: Time 338160, Note Name: A6, Velocity: 71
Note OFF: Time 338280, Note Name: A6
Note ON: Time 338280, Note Name: G#6, Velocity: 71
Note OFF: Time 338400, Note Name: G#6
Note ON: Time 338400, Note Name: F6, Velocity: 77
Note OFF: Time 338520, Note Name: F6
Note ON: Time 338520, Note Name: B5, Velocity: 71
Note OFF: Time 338640, Note Name: B5
Note ON: Time 338640, Note Name: A5, Velocity: 71
Note OFF: Time 338760, Note Name: A5
Note ON: Time 338760, Note Name: G#5, Velocity: 71
Note OFF: Time 338880, Note Name: G#5
Note ON: Time 338880, Note Name: F5, Velocity: 71
Note OFF: Time 339000, Note Name: F5
Note ON: Time 339000, Note Name: B4, Velocity: 71
Note OFF: Time 339120, Note Name: B4
Note ON: Time 339120, Note Name: A4, Velocity: 71
Note OFF: Time 339240, Note Name: A4
Note ON: Time 339240, Note Name: G#4, Velocity: 72
Note OFF: Time 339360, Note Name: G#4
Note ON: Time 339360, Note Name: F4, Velocity: 73
Note OFF: Time 339480, Note Name: F4
Note ON: Time 339480, Note Name: B3, Velocity: 75
Note OFF: Time 339600, Note Name: B3
Note ON: Time 339600, Note Name: A3, Velocity: 77
Note OFF: Time 339720, Note Name: A3
Note ON: Time 339720, Note Name: G#3, Velocity: 78
Note OFF: Time 339840, Note Name: G#3
Note ON: Time 339840, Note Name: F3, Velocity: 80
Note OFF: Time 339960, Note Name: F3
Note ON: Time 339960, Note Name: B2, Velocity: 81
Note OFF: Time 340080, Note Name: B2
Note ON: Time 340080, Note Name: A2, Velocity: 82
Note OFF: Time 340200, Note Name: A2
Note ON: Time 340200, Note Name: G#2, Velocity: 84
Note OFF: Time 340320, Note Name: G#2
Note ON: Time 340320, Note Name: F2, Velocity: 86
Note OFF: Time 340440, Note Name: F2
Note ON: Time 340440, Note Name: B1, Velocity: 88
Note OFF: Time 340560, Note Name: B1
Note ON: Time 342240, Note Name: A#4, Velocity: 66
Note OFF: Time 342360, Note Name: A#4
Note ON: Time 342360, Note Name: G#4, Velocity: 67
Note OFF: Time 342480, Note Name: G#4
Note ON: Time 342480, Note Name: B4, Velocity: 68
Note OFF: Time 342600, Note Name: B4
Note ON: Time 342600, Note Name: F5, Velocity: 69
Note OFF: Time 342720, Note Name: F5
Note ON: Time 342720, Note Name: A#5, Velocity: 71
Note OFF: Time 342840, Note Name: A#5
Note ON: Time 342840, Note Name: G#5, Velocity: 72
Note OFF: Time 342960, Note Name: G#5
Note ON: Time 342960, Note Name: B5, Velocity: 73
Note OFF: Time 343080, Note Name: B5
Note ON: Time 343080, Note Name: F6, Velocity: 74
Note OFF: Time 343200, Note Name: F6
Note ON: Time 343200, Note Name: A#6, Velocity: 75
Note OFF: Time 343320, Note Name: A#6
Note ON: Time 343320, Note Name: G#6, Velocity: 77
Note OFF: Time 343440, Note Name: G#6
Note ON: Time 343440, Note Name: A#5, Velocity: 80
Note OFF: Time 343560, Note Name: A#5
Note ON: Time 343560, Note Name: E6, Velocity: 74
Note OFF: Time 343680, Note Name: E6
Note ON: Time 343680, Note Name: G#6, Velocity: 77
Note OFF: Time 343800, Note Name: G#6
Note ON: Time 343800, Note Name: G6, Velocity: 81
Note OFF: Time 343920, Note Name: G6
Note ON: Time 343920, Note Name: E6, Velocity: 80
Note OFF: Time 344040, Note Name: E6
Note ON: Time 344040, Note Name: A#5, Velocity: 78
Note OFF: Time 344160, Note Name: A#5
Note ON: Time 344160, Note Name: G#5, Velocity: 76
Note OFF: Time 344280, Note Name: G#5
Note ON: Time 344280, Note Name: G5, Velocity: 76
Note OFF: Time 344400, Note Name: G5
Note ON: Time 344400, Note Name: E5, Velocity: 76
Note OFF: Time 344520, Note Name: E5
Note ON: Time 344520, Note Name: A#4, Velocity: 76
Note OFF: Time 344640, Note Name: A#4
Note ON: Time 344640, Note Name: G#4, Velocity: 74
Note OFF: Time 344760, Note Name: G#4
Note ON: Time 344760, Note Name: G4, Velocity: 73
Note OFF: Time 344880, Note Name: G4
Note ON: Time 344880, Note Name: A3, Velocity: 73
Note OFF: Time 345000, Note Name: A3
Note ON: Time 345000, Note Name: D#4, Velocity: 73
Note OFF: Time 345120, Note Name: D#4
Note ON: Time 345120, Note Name: G#4, Velocity: 74
Note OFF: Time 345240, Note Name: G#4
Note ON: Time 345240, Note Name: F#4, Velocity: 75
Note OFF: Time 345360, Note Name: F#4
Note ON: Time 345360, Note Name: A4, Velocity: 76
Note OFF: Time 345480, Note Name: A4
Note ON: Time 345480, Note Name: D#5, Velocity: 76
Note OFF: Time 345600, Note Name: D#5
Note ON: Time 345600, Note Name: G#5, Velocity: 77
Note OFF: Time 345720, Note Name: G#5
Note ON: Time 345720, Note Name: F#5, Velocity: 76
Note OFF: Time 345840, Note Name: F#5
Note ON: Time 345840, Note Name: A5, Velocity: 79
Note OFF: Time 345960, Note Name: A5
Note ON: Time 345960, Note Name: D#6, Velocity: 81
Note OFF: Time 346080, Note Name: D#6
Note ON: Time 346080, Note Name: G#6, Velocity: 84
Note OFF: Time 346200, Note Name: G#6
Note ON: Time 346200, Note Name: F#6, Velocity: 86
Note OFF: Time 346320, Note Name: F#6
Note ON: Time 346320, Note Name: G#5, Velocity: 88
Note OFF: Time 346440, Note Name: G#5
Note ON: Time 346440, Note Name: C#6, Velocity: 87
Note OFF: Time 346560, Note Name: C#6
Note ON: Time 346560, Note Name: F#6, Velocity: 87
Note OFF: Time 346680, Note Name: F#6
Note ON: Time 346680, Note Name: F6, Velocity: 85
Note OFF: Time 346800, Note Name: F6
Note ON: Time 346800, Note Name: C#6, Velocity: 83
Note OFF: Time 346920, Note Name: C#6
Note ON: Time 346920, Note Name: G#5, Velocity: 82
Note OFF: Time 347040, Note Name: G#5
Note ON: Time 347040, Note Name: F#5, Velocity: 80
Note OFF: Time 347160, Note Name: F#5
Note ON: Time 347160, Note Name: F5, Velocity: 78
Note OFF: Time 347280, Note Name: F5
Note ON: Time 347280, Note Name: C#5, Velocity: 76
Note OFF: Time 347400, Note Name: C#5
Note ON: Time 347400, Note Name: G#4, Velocity: 74
Note OFF: Time 347520, Note Name: G#4
Note ON: Time 347520, Note Name: F#4, Velocity: 72
Note OFF: Time 347640, Note Name: F#4
Note ON: Time 347640, Note Name: F4, Velocity: 71
Note OFF: Time 347760, Note Name: F4
Note ON: Time 347760, Note Name: C4, Velocity: 71
Note OFF: Time 347880, Note Name: C4
Note ON: Time 347880, Note Name: F#4, Velocity: 71
Note OFF: Time 348000, Note Name: F#4
Note ON: Time 348000, Note Name: B4, Velocity: 71
Note OFF: Time 348120, Note Name: B4
Note ON: Time 348120, Note Name: A4, Velocity: 71
Note OFF: Time 348240, Note Name: A4
Note ON: Time 348240, Note Name: C5, Velocity: 71
Note OFF: Time 348360, Note Name: C5
Note ON: Time 348360, Note Name: F#5, Velocity: 71
Note OFF: Time 348480, Note Name: F#5
Note ON: Time 348480, Note Name: B5, Velocity: 69
Note OFF: Time 348600, Note Name: B5
Note ON: Time 348600, Note Name: A5, Velocity: 71
Note OFF: Time 348720, Note Name: A5
Note ON: Time 348720, Note Name: C6, Velocity: 73
Note OFF: Time 348840, Note Name: C6
Note ON: Time 348840, Note Name: F#6, Velocity: 75
Note OFF: Time 348960, Note Name: F#6
Note ON: Time 348960, Note Name: B6, Velocity: 76
Note OFF: Time 349080, Note Name: B6
Note ON: Time 349080, Note Name: A6, Velocity: 78
Note OFF: Time 349200, Note Name: A6
Note ON: Time 349200, Note Name: B5, Velocity: 80
Note OFF: Time 349320, Note Name: B5
Note ON: Time 349320, Note Name: F6, Velocity: 82
Note OFF: Time 349440, Note Name: F6
Note ON: Time 349440, Note Name: A6, Velocity: 82
Note OFF: Time 349560, Note Name: A6
Note ON: Time 349560, Note Name: G#6, Velocity: 80
Note OFF: Time 349680, Note Name: G#6
Note ON: Time 349680, Note Name: F6, Velocity: 79
Note OFF: Time 349800, Note Name: F6
Note ON: Time 349800, Note Name: B5, Velocity: 78
Note OFF: Time 349920, Note Name: B5
Note ON: Time 349920, Note Name: A5, Velocity: 77
Note OFF: Time 350040, Note Name: A5
Note ON: Time 350040, Note Name: G#5, Velocity: 76
Note OFF: Time 350160, Note Name: G#5
Note ON: Time 350160, Note Name: F5, Velocity: 75
Note OFF: Time 350280, Note Name: F5
Note ON: Time 350280, Note Name: B4, Velocity: 74
Note OFF: Time 350400, Note Name: B4
Note ON: Time 350400, Note Name: A4, Velocity: 73
Note OFF: Time 350520, Note Name: A4
Note ON: Time 350520, Note Name: G#4, Velocity: 72
Note OFF: Time 350640, Note Name: G#4
Note ON: Time 350640, Note Name: A#3, Velocity: 71
Note OFF: Time 350760, Note Name: A#3
Note ON: Time 350760, Note Name: E4, Velocity: 71
Note OFF: Time 350880, Note Name: E4
Note ON: Time 350880, Note Name: A4, Velocity: 71
Note OFF: Time 351000, Note Name: A4
Note ON: Time 351000, Note Name: G4, Velocity: 71
Note OFF: Time 351120, Note Name: G4
Note ON: Time 351120, Note Name: A#4, Velocity: 71
Note OFF: Time 351240, Note Name: A#4
Note ON: Time 351240, Note Name: E5, Velocity: 71
Note OFF: Time 351360, Note Name: E5
Note ON: Time 351360, Note Name: A5, Velocity: 69
Note OFF: Time 351480, Note Name: A5
Note ON: Time 351480, Note Name: G5, Velocity: 71
Note OFF: Time 351600, Note Name: G5
Note ON: Time 351600, Note Name: A#5, Velocity: 73
Note OFF: Time 351720, Note Name: A#5
Note ON: Time 351720, Note Name: E6, Velocity: 75
Note OFF: Time 351840, Note Name: E6
Note ON: Time 351840, Note Name: A6, Velocity: 76
Note OFF: Time 351960, Note Name: A6
Note ON: Time 351960, Note Name: G6, Velocity: 78
Note OFF: Time 352080, Note Name: G6
Note ON: Time 352080, Note Name: A5, Velocity: 80
Note OFF: Time 352200, Note Name: A5
Note ON: Time 352200, Note Name: D6, Velocity: 82
Note OFF: Time 352320, Note Name: D6
Note ON: Time 352320, Note Name: G6, Velocity: 82
Note OFF: Time 352440, Note Name: G6
Note ON: Time 352440, Note Name: F#6, Velocity: 80
Note OFF: Time 352560, Note Name: F#6
Note ON: Time 352560, Note Name: D6, Velocity: 79
Note OFF: Time 352680, Note Name: D6
Note ON: Time 352680, Note Name: A5, Velocity: 78
Note OFF: Time 352800, Note Name: A5
Note ON: Time 352800, Note Name: G5, Velocity: 76
Note OFF: Time 352920, Note Name: G5
Note ON: Time 352920, Note Name: F#5, Velocity: 75
Note OFF: Time 353040, Note Name: F#5
Note ON: Time 353040, Note Name: D5, Velocity: 73
Note OFF: Time 353160, Note Name: D5
Note ON: Time 353160, Note Name: A4, Velocity: 71
Note OFF: Time 353280, Note Name: A4
Note ON: Time 353280, Note Name: G4, Velocity: 70
Note OFF: Time 353400, Note Name: G4
Note ON: Time 353400, Note Name: F#4, Velocity: 68
Note OFF: Time 353520, Note Name: F#4
Note ON: Time 353520, Note Name: D4, Velocity: 66
Note ON: Time 353520, Note Name: G4, Velocity: 66
Note ON: Time 353520, Note Name: D5, Velocity: 66
Note OFF: Time 353760, Note Name: D5
Note OFF: Time 353760, Note Name: G4
Note OFF: Time 353760, Note Name: D4
Note ON: Time 353760, Note Name: C#5, Velocity: 58
Note OFF: Time 353880, Note Name: C#5
Note ON: Time 353880, Note Name: D5, Velocity: 55
Note OFF: Time 354000, Note Name: D5
Note ON: Time 354000, Note Name: F5, Velocity: 58
Note OFF: Time 354080, Note Name: F5
Note ON: Time 354080, Note Name: D#5, Velocity: 58
Note OFF: Time 354160, Note Name: D#5
Note ON: Time 354160, Note Name: D5, Velocity: 55
Note OFF: Time 354240, Note Name: D5
Note ON: Time 354240, Note Name: D5, Velocity: 67
Note ON: Time 354480, Note Name: D6, Velocity: 66
Note ON: Time 354480, Note Name: F#5, Velocity: 66
Note OFF: Time 354720, Note Name: D6
Note ON: Time 354720, Note Name: C6, Velocity: 64
Note OFF: Time 354960, Note Name: C6
Note OFF: Time 354960, Note Name: F#5
Note ON: Time 354960, Note Name: G5, Velocity: 70
Note ON: Time 354960, Note Name: A#5, Velocity: 70
Note OFF: Time 355200, Note Name: A#5
Note OFF: Time 355200, Note Name: G5
Note OFF: Time 355200, Note Name: D5
Note ON: Time 355200, Note Name: C#5, Velocity: 59
Note OFF: Time 355320, Note Name: C#5
Note ON: Time 355320, Note Name: D5, Velocity: 55
Note OFF: Time 355440, Note Name: D5
Note ON: Time 355440, Note Name: F5, Velocity: 59
Note OFF: Time 355520, Note Name: F5
Note ON: Time 355520, Note Name: D#5, Velocity: 59
Note OFF: Time 355600, Note Name: D#5
Note ON: Time 355600, Note Name: D5, Velocity: 55
Note OFF: Time 355680, Note Name: D5
Note ON: Time 355680, Note Name: D5, Velocity: 69
Note ON: Time 355920, Note Name: A#4, Velocity: 65
Note ON: Time 355920, Note Name: A#5, Velocity: 65
Note OFF: Time 356160, Note Name: A#5
Note OFF: Time 356160, Note Name: A#4
Note ON: Time 356160, Note Name: A4, Velocity: 62
Note ON: Time 356160, Note Name: A5, Velocity: 62
Note OFF: Time 356400, Note Name: A5
Note OFF: Time 356400, Note Name: A4
Note ON: Time 356400, Note Name: G4, Velocity: 69
Note ON: Time 356400, Note Name: G5, Velocity: 69
Note OFF: Time 356640, Note Name: G5
Note OFF: Time 356640, Note Name: G4
Note OFF: Time 356640, Note Name: D5
Note ON: Time 356640, Note Name: C#5, Velocity: 59
Note OFF: Time 356760, Note Name: C#5
Note ON: Time 356760, Note Name: D5, Velocity: 55
Note OFF: Time 356880, Note Name: D5
Note ON: Time 356880, Note Name: F5, Velocity: 59
Note OFF: Time 356960, Note Name: F5
Note ON: Time 356960, Note Name: D#5, Velocity: 59
Note OFF: Time 357040, Note Name: D#5
Note ON: Time 357040, Note Name: D5, Velocity: 55
Note OFF: Time 357120, Note Name: D5
Note ON: Time 357120, Note Name: D5, Velocity: 70
Note ON: Time 357360, Note Name: D6, Velocity: 65
Note ON: Time 357360, Note Name: F#5, Velocity: 65
Note OFF: Time 357600, Note Name: D6
Note ON: Time 357600, Note Name: C6, Velocity: 65
Note OFF: Time 357840, Note Name: C6
Note OFF: Time 357840, Note Name: F#5
Note ON: Time 357840, Note Name: G5, Velocity: 69
Note ON: Time 357840, Note Name: A#5, Velocity: 69
Note OFF: Time 358080, Note Name: A#5
Note OFF: Time 358080, Note Name: G5
Note OFF: Time 358080, Note Name: D5
Note ON: Time 358080, Note Name: F#4, Velocity: 58
Note OFF: Time 358200, Note Name: F#4
Note ON: Time 358200, Note Name: G4, Velocity: 53
Note OFF: Time 358320, Note Name: G4
Note ON: Time 358320, Note Name: A#4, Velocity: 58
Note OFF: Time 358400, Note Name: A#4
Note ON: Time 358400, Note Name: G#4, Velocity: 58
Note OFF: Time 358480, Note Name: G#4
Note ON: Time 358480, Note Name: G4, Velocity: 55
Note OFF: Time 358560, Note Name: G4
Note ON: Time 358560, Note Name: G4, Velocity: 70
Note ON: Time 358800, Note Name: G5, Velocity: 63
Note ON: Time 358800, Note Name: D5, Velocity: 63
Note OFF: Time 359040, Note Name: G5
Note ON: Time 359040, Note Name: F5, Velocity: 63
Note OFF: Time 359280, Note Name: F5
Note OFF: Time 359280, Note Name: D5
Note ON: Time 359280, Note Name: C5, Velocity: 71
Note ON: Time 359280, Note Name: D#5, Velocity: 71
Note OFF: Time 359520, Note Name: D#5
Note OFF: Time 359520, Note Name: C5
Note OFF: Time 359520, Note Name: G4
Note ON: Time 359520, Note Name: F#5, Velocity: 57
Note OFF: Time 359640, Note Name: F#5
Note ON: Time 359640, Note Name: G5, Velocity: 57
Note OFF: Time 359760, Note Name: G5
Note ON: Time 359760, Note Name: A#5, Velocity: 57
Note OFF: Time 359840, Note Name: A#5
Note ON: Time 359840, Note Name: G#5, Velocity: 57
Note OFF: Time 359920, Note Name: G#5
Note ON: Time 359920, Note Name: G5, Velocity: 54
Note OFF: Time 360000, Note Name: G5
Note ON: Time 360000, Note Name: G5, Velocity: 71
Note ON: Time 360240, Note Name: G6, Velocity: 63
Note ON: Time 360240, Note Name: B5, Velocity: 63
Note OFF: Time 360480, Note Name: G6
Note ON: Time 360480, Note Name: F6, Velocity: 63
Note OFF: Time 360720, Note Name: F6
Note OFF: Time 360720, Note Name: B5
Note ON: Time 360720, Note Name: C6, Velocity: 71
Note ON: Time 360720, Note Name: D#6, Velocity: 71
Note OFF: Time 360960, Note Name: D#6
Note OFF: Time 360960, Note Name: C6
Note OFF: Time 360960, Note Name: G5
Note ON: Time 360960, Note Name: F#5, Velocity: 59
Note OFF: Time 361080, Note Name: F#5
Note ON: Time 361080, Note Name: G5, Velocity: 56
Note OFF: Time 361200, Note Name: G5
Note ON: Time 361200, Note Name: A#5, Velocity: 59
Note OFF: Time 361280, Note Name: A#5
Note ON: Time 361280, Note Name: G#5, Velocity: 59
Note OFF: Time 361360, Note Name: G#5
Note ON: Time 361360, Note Name: G5, Velocity: 55
Note OFF: Time 361440, Note Name: G5
Note ON: Time 361440, Note Name: G5, Velocity: 70
Note ON: Time 361680, Note Name: D#5, Velocity: 64
Note ON: Time 361680, Note Name: D#6, Velocity: 64
Note OFF: Time 361920, Note Name: D#6
Note OFF: Time 361920, Note Name: D#5
Note ON: Time 361920, Note Name: D5, Velocity: 64
Note ON: Time 361920, Note Name: D6, Velocity: 64
Note OFF: Time 362160, Note Name: D6
Note OFF: Time 362160, Note Name: D5
Note OFF: Time 362160, Note Name: G5
Note ON: Time 362160, Note Name: G5, Velocity: 70
Note ON: Time 362160, Note Name: C5, Velocity: 70
Note ON: Time 362160, Note Name: C6, Velocity: 70
Note OFF: Time 362400, Note Name: C6
Note OFF: Time 362400, Note Name: C5
Note OFF: Time 362400, Note Name: G5
Note ON: Time 362400, Note Name: F#4, Velocity: 59
Note OFF: Time 362520, Note Name: F#4
Note ON: Time 362520, Note Name: G4, Velocity: 55
Note OFF: Time 362640, Note Name: G4
Note ON: Time 362640, Note Name: A#4, Velocity: 59
Note OFF: Time 362720, Note Name: A#4
Note ON: Time 362720, Note Name: G#4, Velocity: 59
Note OFF: Time 362800, Note Name: G#4
Note ON: Time 362800, Note Name: G4, Velocity: 56
Note OFF: Time 362880, Note Name: G4
Note ON: Time 362880, Note Name: G4, Velocity: 71
Note ON: Time 363120, Note Name: G5, Velocity: 56
Note ON: Time 363120, Note Name: B4, Velocity: 56
Note OFF: Time 363360, Note Name: G5
Note ON: Time 363360, Note Name: F5, Velocity: 55
Note OFF: Time 363600, Note Name: F5
Note OFF: Time 363600, Note Name: B4
Note ON: Time 363600, Note Name: C5, Velocity: 60
Note ON: Time 363600, Note Name: D#5, Velocity: 60
Note OFF: Time 363840, Note Name: D#5
Note OFF: Time 363840, Note Name: C5
Note OFF: Time 363840, Note Name: G4
Note ON: Time 363840, Note Name: D4, Velocity: 53
Note OFF: Time 363960, Note Name: D4
Note ON: Time 363960, Note Name: D#4, Velocity: 53
Note OFF: Time 364080, Note Name: D#4
Note ON: Time 364080, Note Name: G4, Velocity: 53
Note OFF: Time 364160, Note Name: G4
Note ON: Time 364160, Note Name: F4, Velocity: 53
Note OFF: Time 364240, Note Name: F4
Note ON: Time 364240, Note Name: D#4, Velocity: 50
Note OFF: Time 364320, Note Name: D#4
Note ON: Time 364320, Note Name: D#4, Velocity: 61
Note ON: Time 364560, Note Name: D#5, Velocity: 58
Note ON: Time 364560, Note Name: G4, Velocity: 58
Note OFF: Time 364800, Note Name: D#5
Note ON: Time 364800, Note Name: C#5, Velocity: 56
Note OFF: Time 365040, Note Name: C#5
Note OFF: Time 365040, Note Name: G4
Note ON: Time 365040, Note Name: G#4, Velocity: 63
Note ON: Time 365040, Note Name: B4, Velocity: 63
Note OFF: Time 365280, Note Name: B4
Note OFF: Time 365280, Note Name: G#4
Note OFF: Time 365280, Note Name: D#4
Note ON: Time 365280, Note Name: D5, Velocity: 54
Note OFF: Time 365400, Note Name: D5
Note ON: Time 365400, Note Name: D#5, Velocity: 51
Note OFF: Time 365520, Note Name: D#5
Note ON: Time 365520, Note Name: F#5, Velocity: 54
Note OFF: Time 365600, Note Name: F#5
Note ON: Time 365600, Note Name: E5, Velocity: 54
Note OFF: Time 365680, Note Name: E5
Note ON: Time 365680, Note Name: D#5, Velocity: 51
Note OFF: Time 365760, Note Name: D#5
Note ON: Time 365760, Note Name: D#5, Velocity: 62
Note ON: Time 366000, Note Name: D#6, Velocity: 58
Note ON: Time 366000, Note Name: A#5, Velocity: 58
Note OFF: Time 366240, Note Name: D#6
Note ON: Time 366240, Note Name: C#6, Velocity: 59
Note OFF: Time 366480, Note Name: C#6
Note OFF: Time 366480, Note Name: A#5
Note ON: Time 366480, Note Name: G#5, Velocity: 67
Note ON: Time 366480, Note Name: B5, Velocity: 67
Note OFF: Time 366720, Note Name: B5
Note OFF: Time 366720, Note Name: G#5
Note OFF: Time 366720, Note Name: D#5
Note ON: Time 366720, Note Name: D5, Velocity: 59
Note OFF: Time 366840, Note Name: D5
Note ON: Time 366840, Note Name: D#5, Velocity: 56
Note OFF: Time 366960, Note Name: D#5
Note ON: Time 366960, Note Name: F#5, Velocity: 59
Note OFF: Time 367040, Note Name: F#5
Note ON: Time 367040, Note Name: E5, Velocity: 59
Note OFF: Time 367120, Note Name: E5
Note ON: Time 367120, Note Name: D#5, Velocity: 55
Note OFF: Time 367193, Note Name: D#5
Note ON: Time 367200, Note Name: D#5, Velocity: 68
Note ON: Time 367440, Note Name: B4, Velocity: 63
Note ON: Time 367440, Note Name: B5, Velocity: 63
Note OFF: Time 367680, Note Name: B5
Note OFF: Time 367680, Note Name: B4
Note ON: Time 367680, Note Name: A#4, Velocity: 63
Note ON: Time 367680, Note Name: A#5, Velocity: 63
Note OFF: Time 367920, Note Name: A#5
Note OFF: Time 367920, Note Name: A#4
Note OFF: Time 367920, Note Name: D#5
Note ON: Time 367920, Note Name: D#5, Velocity: 69
Note ON: Time 367920, Note Name: G#4, Velocity: 69
Note ON: Time 367920, Note Name: G#5, Velocity: 69
Note OFF: Time 368160, Note Name: G#5
Note OFF: Time 368160, Note Name: G#4
Note OFF: Time 368160, Note Name: D#5
Note ON: Time 368160, Note Name: D5, Velocity: 60
Note OFF: Time 368280, Note Name: D5
Note ON: Time 368280, Note Name: D#5, Velocity: 56
Note OFF: Time 368400, Note Name: D#5
Note ON: Time 368400, Note Name: F#5, Velocity: 60
Note OFF: Time 368480, Note Name: F#5
Note ON: Time 368480, Note Name: E5, Velocity: 60
Note OFF: Time 368560, Note Name: E5
Note ON: Time 368560, Note Name: D#5, Velocity: 56
Note OFF: Time 368631, Note Name: D#5
Note ON: Time 368640, Note Name: D#5, Velocity: 74
Note ON: Time 368880, Note Name: D#6, Velocity: 65
Note ON: Time 368880, Note Name: A#5, Velocity: 65
Note OFF: Time 369120, Note Name: D#6
Note ON: Time 369120, Note Name: C#6, Velocity: 65
Note OFF: Time 369360, Note Name: C#6
Note OFF: Time 369360, Note Name: A#5
Note ON: Time 369360, Note Name: G#5, Velocity: 76
Note ON: Time 369360, Note Name: B5, Velocity: 76
Note OFF: Time 369600, Note Name: B5
Note OFF: Time 369600, Note Name: G#5
Note OFF: Time 369600, Note Name: D#5
Note ON: Time 369600, Note Name: D5, Velocity: 66
Note OFF: Time 369720, Note Name: D5
Note ON: Time 369720, Note Name: D#5, Velocity: 61
Note OFF: Time 369840, Note Name: D#5
Note ON: Time 369840, Note Name: F#5, Velocity: 66
Note OFF: Time 369920, Note Name: F#5
Note ON: Time 369920, Note Name: E5, Velocity: 66
Note OFF: Time 370000, Note Name: E5
Note ON: Time 370000, Note Name: D#5, Velocity: 61
Note OFF: Time 370074, Note Name: D#5
Note ON: Time 370080, Note Name: D#5, Velocity: 82
Note ON: Time 370320, Note Name: B4, Velocity: 73
Note ON: Time 370320, Note Name: B5, Velocity: 73
Note OFF: Time 370560, Note Name: B5
Note OFF: Time 370560, Note Name: B4
Note ON: Time 370560, Note Name: A#4, Velocity: 73
Note ON: Time 370560, Note Name: A#5, Velocity: 73
Note OFF: Time 370800, Note Name: A#5
Note OFF: Time 370800, Note Name: A#4
Note OFF: Time 370800, Note Name: D#5
Note ON: Time 370800, Note Name: E5, Velocity: 87
Note ON: Time 370800, Note Name: G#4, Velocity: 73
Note ON: Time 370800, Note Name: G#5, Velocity: 87
Note OFF: Time 371040, Note Name: G#5
Note OFF: Time 371040, Note Name: G#4
Note OFF: Time 371040, Note Name: E5
Note ON: Time 371460, Note Name: G#5, Velocity: 70
Note OFF: Time 371520, Note Name: G#5
Note ON: Time 371520, Note Name: G#6, Velocity: 95
Note OFF: Time 371760, Note Name: G#6
Note ON: Time 371760, Note Name: F#6, Velocity: 81
Note OFF: Time 371880, Note Name: F#6
Note ON: Time 371880, Note Name: E6, Velocity: 76
Note OFF: Time 372000, Note Name: E6
Note ON: Time 372000, Note Name: B5, Velocity: 79
Note OFF: Time 372120, Note Name: B5
Note ON: Time 372120, Note Name: G#5, Velocity: 72
Note OFF: Time 372240, Note Name: G#5
Note ON: Time 372240, Note Name: F#5, Velocity: 76
Note OFF: Time 372360, Note Name: F#5
Note ON: Time 372360, Note Name: E5, Velocity: 71
Note OFF: Time 372480, Note Name: E5
Note ON: Time 372480, Note Name: B4, Velocity: 74
Note OFF: Time 372600, Note Name: B4
Note ON: Time 372600, Note Name: G#4, Velocity: 68
Note OFF: Time 372720, Note Name: G#4
Note ON: Time 372720, Note Name: F#4, Velocity: 71
Note OFF: Time 372840, Note Name: F#4
Note ON: Time 372840, Note Name: E4, Velocity: 66
Note OFF: Time 372960, Note Name: E4
Note ON: Time 372960, Note Name: B3, Velocity: 69
Note OFF: Time 373200, Note Name: B3
Note ON: Time 373680, Note Name: D#5, Velocity: 55
Note OFF: Time 373800, Note Name: D#5
Note ON: Time 373800, Note Name: E5, Velocity: 52
Note OFF: Time 373920, Note Name: E5
Note ON: Time 373920, Note Name: F#5, Velocity: 50
Note OFF: Time 374040, Note Name: F#5
Note ON: Time 374040, Note Name: G#5, Velocity: 44
Note OFF: Time 374160, Note Name: G#5
Note ON: Time 374160, Note Name: A5, Velocity: 45
Note OFF: Time 374280, Note Name: A5
Note ON: Time 374280, Note Name: B5, Velocity: 42
Note OFF: Time 374400, Note Name: B5
Note ON: Time 374400, Note Name: C6, Velocity: 40
Note OFF: Time 374640, Note Name: C6
Note ON: Time 375120, Note Name: C6, Velocity: 50
Note OFF: Time 375240, Note Name: C6
Note ON: Time 375240, Note Name: B5, Velocity: 46
Note OFF: Time 375360, Note Name: B5
Note ON: Time 375360, Note Name: A5, Velocity: 47
Note OFF: Time 375480, Note Name: A5
Note ON: Time 375480, Note Name: G#5, Velocity: 43
Note OFF: Time 375600, Note Name: G#5
Note ON: Time 375600, Note Name: F#5, Velocity: 44
Note OFF: Time 375720, Note Name: F#5
Note ON: Time 375720, Note Name: E5, Velocity: 42
Note OFF: Time 375840, Note Name: E5
Note ON: Time 375840, Note Name: D#5, Velocity: 41
Note OFF: Time 376080, Note Name: D#5
Note ON: Time 376500, Note Name: G#5, Velocity: 81
Note OFF: Time 376560, Note Name: G#5
Note ON: Time 376560, Note Name: G#6, Velocity: 115
Note OFF: Time 377520, Note Name: G#6
Note ON: Time 377520, Note Name: F#6, Velocity: 81
Note OFF: Time 377640, Note Name: F#6
Note ON: Time 377640, Note Name: E6, Velocity: 73
Note OFF: Time 377760, Note Name: E6
Note ON: Time 377760, Note Name: B5, Velocity: 79
Note OFF: Time 377880, Note Name: B5
Note ON: Time 377880, Note Name: G#5, Velocity: 73
Note OFF: Time 378000, Note Name: G#5
Note ON: Time 378000, Note Name: F#5, Velocity: 76
Note OFF: Time 378120, Note Name: F#5
Note ON: Time 378120, Note Name: E5, Velocity: 70
Note OFF: Time 378240, Note Name: E5
Note ON: Time 378240, Note Name: B4, Velocity: 74
Note OFF: Time 378360, Note Name: B4
Note ON: Time 378360, Note Name: G#4, Velocity: 69
Note OFF: Time 378480, Note Name: G#4
Note ON: Time 378480, Note Name: F#4, Velocity: 71
Note OFF: Time 378600, Note Name: F#4
Note ON: Time 378600, Note Name: E4, Velocity: 70
Note OFF: Time 378720, Note Name: E4
Note ON: Time 378720, Note Name: B3, Velocity: 69
Note OFF: Time 378960, Note Name: B3
Note ON: Time 379440, Note Name: F5, Velocity: 57
Note OFF: Time 379560, Note Name: F5
Note ON: Time 379560, Note Name: F#5, Velocity: 55
Note OFF: Time 379680, Note Name: F#5
Note ON: Time 379680, Note Name: G#5, Velocity: 53
Note OFF: Time 379800, Note Name: G#5
Note ON: Time 379800, Note Name: A5, Velocity: 52
Note OFF: Time 379920, Note Name: A5
Note ON: Time 379920, Note Name: B5, Velocity: 50
Note OFF: Time 380040, Note Name: B5
Note ON: Time 380040, Note Name: C#6, Velocity: 48
Note OFF: Time 380160, Note Name: C#6
Note ON: Time 380160, Note Name: D6, Velocity: 46
Note OFF: Time 380400, Note Name: D6
Note ON: Time 380880, Note Name: D6, Velocity: 56
Note OFF: Time 381000, Note Name: D6
Note ON: Time 381000, Note Name: C#6, Velocity: 54
Note OFF: Time 381120, Note Name: C#6
Note ON: Time 381120, Note Name: B5, Velocity: 53
Note OFF: Time 381240, Note Name: B5
Note ON: Time 381240, Note Name: A5, Velocity: 52
Note OFF: Time 381360, Note Name: A5
Note ON: Time 381360, Note Name: G#5, Velocity: 51
Note OFF: Time 381480, Note Name: G#5
Note ON: Time 381480, Note Name: F#5, Velocity: 50
Note OFF: Time 381600, Note Name: F#5
Note ON: Time 381600, Note Name: F5, Velocity: 48
Note OFF: Time 381840, Note Name: F5
Note ON: Time 382320, Note Name: G5, Velocity: 66
Note OFF: Time 382440, Note Name: G5
Note ON: Time 382440, Note Name: G#5, Velocity: 65
Note OFF: Time 382560, Note Name: G#5
Note ON: Time 382560, Note Name: A#5, Velocity: 64
Note OFF: Time 382680, Note Name: A#5
Note ON: Time 382680, Note Name: B5, Velocity: 63
Note OFF: Time 382800, Note Name: B5
Note ON: Time 382800, Note Name: C#6, Velocity: 62
Note OFF: Time 382920, Note Name: C#6
Note ON: Time 382920, Note Name: D#6, Velocity: 61
Note OFF: Time 383040, Note Name: D#6
Note ON: Time 383040, Note Name: E6, Velocity: 60
Note OFF: Time 383280, Note Name: E6
Note ON: Time 383760, Note Name: E6, Velocity: 65
Note OFF: Time 383880, Note Name: E6
Note ON: Time 383880, Note Name: D#6, Velocity: 64
Note OFF: Time 384000, Note Name: D#6
Note ON: Time 384000, Note Name: C#6, Velocity: 62
Note OFF: Time 384120, Note Name: C#6
Note ON: Time 384120, Note Name: B5, Velocity: 61
Note OFF: Time 384240, Note Name: B5
Note ON: Time 384240, Note Name: A#5, Velocity: 59
Note OFF: Time 384360, Note Name: A#5
Note ON: Time 384360, Note Name: G#5, Velocity: 58
Note OFF: Time 384480, Note Name: G#5
Note ON: Time 384480, Note Name: G5, Velocity: 56
Note OFF: Time 384720, Note Name: G5
Note ON: Time 385200, Note Name: A5, Velocity: 71
Note OFF: Time 385320, Note Name: A5
Note ON: Time 385320, Note Name: A#5, Velocity: 72
Note OFF: Time 385440, Note Name: A#5
Note ON: Time 385440, Note Name: C6, Velocity: 73
Note OFF: Time 385560, Note Name: C6
Note ON: Time 385560, Note Name: C#6, Velocity: 75
Note OFF: Time 385680, Note Name: C#6
Note ON: Time 385680, Note Name: D#6, Velocity: 76
Note OFF: Time 385800, Note Name: D#6
Note ON: Time 385800, Note Name: F6, Velocity: 77
Note OFF: Time 385920, Note Name: F6
Note ON: Time 385920, Note Name: F#6, Velocity: 78
Note OFF: Time 386040, Note Name: F#6
Note ON: Time 386040, Note Name: D#7, Velocity: 78
Note OFF: Time 386160, Note Name: D#7
Note ON: Time 386160, Note Name: F#6, Velocity: 77
Note OFF: Time 386280, Note Name: F#6
Note ON: Time 386280, Note Name: F6, Velocity: 76
Note OFF: Time 386400, Note Name: F6
Note ON: Time 386400, Note Name: D#6, Velocity: 75
Note OFF: Time 386520, Note Name: D#6
Note ON: Time 386520, Note Name: C#6, Velocity: 75
Note OFF: Time 386640, Note Name: C#6
Note ON: Time 386640, Note Name: C6, Velocity: 71
Note OFF: Time 386760, Note Name: C6
Note ON: Time 386760, Note Name: C#6, Velocity: 72
Note OFF: Time 386880, Note Name: C#6
Note ON: Time 386880, Note Name: D6, Velocity: 73
Note OFF: Time 387000, Note Name: D6
Note ON: Time 387000, Note Name: D#6, Velocity: 74
Note OFF: Time 387120, Note Name: D#6
Note ON: Time 387120, Note Name: E6, Velocity: 76
Note OFF: Time 387240, Note Name: E6
Note ON: Time 387240, Note Name: F6, Velocity: 77
Note OFF: Time 387360, Note Name: F6
Note ON: Time 387360, Note Name: F#6, Velocity: 78
Note OFF: Time 387480, Note Name: F#6
Note ON: Time 387480, Note Name: D#7, Velocity: 79
Note OFF: Time 387600, Note Name: D#7
Note ON: Time 387600, Note Name: F#6, Velocity: 80
Note OFF: Time 387720, Note Name: F#6
Note ON: Time 387720, Note Name: F6, Velocity: 82
Note OFF: Time 387840, Note Name: F6
Note ON: Time 387840, Note Name: D#6, Velocity: 83
Note OFF: Time 387960, Note Name: D#6
Note ON: Time 387960, Note Name: C#6, Velocity: 84
Note OFF: Time 388080, Note Name: C#6
Note ON: Time 388080, Note Name: C6, Velocity: 85
Note OFF: Time 388200, Note Name: C6
Note ON: Time 388320, Note Name: F7, Velocity: 93
Note OFF: Time 388440, Note Name: F7
Note ON: Time 388440, Note Name: E7, Velocity: 83
Note OFF: Time 388560, Note Name: E7
Note ON: Time 388560, Note Name: D#7, Velocity: 81
Note OFF: Time 388680, Note Name: D#7
Note ON: Time 388680, Note Name: C7, Velocity: 78
Note OFF: Time 388800, Note Name: C7
Note ON: Time 388800, Note Name: A6, Velocity: 76
Note OFF: Time 389040, Note Name: A6
Note ON: Time 389280, Note Name: F5, Velocity: 90
Note OFF: Time 389400, Note Name: F5
Note ON: Time 389400, Note Name: E5, Velocity: 82
Note OFF: Time 389520, Note Name: E5
Note ON: Time 389520, Note Name: D#5, Velocity: 80
Note OFF: Time 389640, Note Name: D#5
Note ON: Time 389640, Note Name: C5, Velocity: 78
Note OFF: Time 389760, Note Name: C5
Note ON: Time 389760, Note Name: A4, Velocity: 76
Note OFF: Time 390000, Note Name: A4
Note ON: Time 390240, Note Name: F3, Velocity: 90
Note OFF: Time 390360, Note Name: F3
Note ON: Time 390360, Note Name: E3, Velocity: 84
Note OFF: Time 390480, Note Name: E3
Note ON: Time 390480, Note Name: D#3, Velocity: 82
Note OFF: Time 390600, Note Name: D#3
Note ON: Time 390600, Note Name: C3, Velocity: 80
Note OFF: Time 390720, Note Name: C3
Note ON: Time 390960, Note Name: C#6, Velocity: 89
Note ON: Time 390960, Note Name: C#5, Velocity: 89
Note OFF: Time 391200, Note Name: C#5
Note OFF: Time 391200, Note Name: C#6
Note ON: Time 391200, Note Name: E5, Velocity: 74
Note OFF: Time 391320, Note Name: E5
Note ON: Time 391320, Note Name: F5, Velocity: 71
Note OFF: Time 391440, Note Name: F5
Note ON: Time 391440, Note Name: G#5, Velocity: 74
Note OFF: Time 391520, Note Name: G#5
Note ON: Time 391520, Note Name: F#5, Velocity: 74
Note OFF: Time 391600, Note Name: F#5
Note ON: Time 391600, Note Name: F5, Velocity: 71
Note OFF: Time 391670, Note Name: F5
Note ON: Time 391680, Note Name: F5, Velocity: 89
Note OFF: Time 391920, Note Name: F5
Note ON: Time 391920, Note Name: E6, Velocity: 81
Note ON: Time 391920, Note Name: E5, Velocity: 81
Note OFF: Time 392160, Note Name: E5
Note OFF: Time 392160, Note Name: E6
Note ON: Time 392160, Note Name: F5, Velocity: 81
Note ON: Time 392160, Note Name: F6, Velocity: 81
Note OFF: Time 392400, Note Name: F6
Note OFF: Time 392400, Note Name: F5
Note ON: Time 392400, Note Name: A#4, Velocity: 89
Note ON: Time 392400, Note Name: A#5, Velocity: 89
Note OFF: Time 392640, Note Name: A#5
Note OFF: Time 392640, Note Name: A#4
Note ON: Time 392640, Note Name: C5, Velocity: 73
Note OFF: Time 392760, Note Name: C5
Note ON: Time 392760, Note Name: C#5, Velocity: 71
Note OFF: Time 392880, Note Name: C#5
Note ON: Time 392880, Note Name: F5, Velocity: 73
Note OFF: Time 392960, Note Name: F5
Note ON: Time 392960, Note Name: D#5, Velocity: 73
Note OFF: Time 393040, Note Name: D#5
Note ON: Time 393040, Note Name: C#5, Velocity: 69
Note OFF: Time 393110, Note Name: C#5
Note ON: Time 393120, Note Name: C#5, Velocity: 89
Note OFF: Time 393360, Note Name: C#5
Note ON: Time 393360, Note Name: C6, Velocity: 81
Note ON: Time 393360, Note Name: C5, Velocity: 81
Note OFF: Time 393600, Note Name: C5
Note OFF: Time 393600, Note Name: C6
Note ON: Time 393600, Note Name: C#5, Velocity: 81
Note ON: Time 393600, Note Name: C#6, Velocity: 81
Note OFF: Time 393840, Note Name: C#6
Note OFF: Time 393840, Note Name: C#5
Note ON: Time 393840, Note Name: F#4, Velocity: 89
Note ON: Time 393840, Note Name: F#5, Velocity: 89
Note OFF: Time 394080, Note Name: F#5
Note OFF: Time 394080, Note Name: F#4
Note ON: Time 394080, Note Name: A4, Velocity: 73
Note OFF: Time 394200, Note Name: A4
Note ON: Time 394200, Note Name: A#4, Velocity: 69
Note OFF: Time 394320, Note Name: A#4
Note ON: Time 394320, Note Name: C#5, Velocity: 73
Note OFF: Time 394400, Note Name: C#5
Note ON: Time 394400, Note Name: C5, Velocity: 73
Note OFF: Time 394480, Note Name: C5
Note ON: Time 394480, Note Name: A#4, Velocity: 69
Note OFF: Time 394550, Note Name: A#4
Note ON: Time 394560, Note Name: A#4, Velocity: 89
Note OFF: Time 394800, Note Name: A#4
Note ON: Time 394800, Note Name: A5, Velocity: 81
Note ON: Time 394800, Note Name: A4, Velocity: 81
Note OFF: Time 395040, Note Name: A4
Note OFF: Time 395040, Note Name: A5
Note ON: Time 395040, Note Name: A#4, Velocity: 81
Note ON: Time 395040, Note Name: A#5, Velocity: 81
Note OFF: Time 395280, Note Name: A#5
Note OFF: Time 395280, Note Name: A#4
Note ON: Time 395280, Note Name: D#4, Velocity: 89
Note ON: Time 395280, Note Name: D#5, Velocity: 89
Note OFF: Time 395520, Note Name: D#5
Note OFF: Time 395520, Note Name: D#4
Note ON: Time 395520, Note Name: F4, Velocity: 74
Note OFF: Time 395640, Note Name: F4
Note ON: Time 395640, Note Name: F#4, Velocity: 70
Note OFF: Time 395760, Note Name: F#4
Note ON: Time 395760, Note Name: A#4, Velocity: 74
Note OFF: Time 395840, Note Name: A#4
Note ON: Time 395840, Note Name: G#4, Velocity: 74
Note OFF: Time 395920, Note Name: G#4
Note ON: Time 395920, Note Name: F#4, Velocity: 71
Note OFF: Time 395990, Note Name: F#4
Note ON: Time 396000, Note Name: F#4, Velocity: 89
Note ON: Time 396240, Note Name: D5, Velocity: 85
Note ON: Time 396240, Note Name: F5, Velocity: 85
Note OFF: Time 396480, Note Name: F5
Note OFF: Time 396480, Note Name: D5
Note ON: Time 396480, Note Name: D#5, Velocity: 85
Note ON: Time 396480, Note Name: F#5, Velocity: 85
Note OFF: Time 396720, Note Name: F#5
Note OFF: Time 396720, Note Name: D#5
Note OFF: Time 396720, Note Name: F#4
Note ON: Time 396720, Note Name: F4, Velocity: 84
Note ON: Time 396720, Note Name: C5, Velocity: 84
Note ON: Time 396720, Note Name: D#5, Velocity: 84
Note ON: Time 396720, Note Name: F5, Velocity: 84
Note OFF: Time 396960, Note Name: F5
Note OFF: Time 396960, Note Name: F4
Note OFF: Time 396960, Note Name: C5
Note OFF: Time 396960, Note Name: D#5
Note ON: Time 396960, Note Name: E4, Velocity: 68
Note OFF: Time 397080, Note Name: E4
Note ON: Time 397080, Note Name: F4, Velocity: 66
Note OFF: Time 397200, Note Name: F4
Note ON: Time 397200, Note Name: G#4, Velocity: 68
Note ON: Time 397280, Note Name: F#4, Velocity: 68
Note OFF: Time 397300, Note Name: G#4
Note ON: Time 397360, Note Name: F4, Velocity: 66
Note OFF: Time 397380, Note Name: F#4
Note OFF: Time 397430, Note Name: F4
Note ON: Time 397440, Note Name: F3, Velocity: 59
Note ON: Time 397455, Note Name: A#3, Velocity: 59
Note ON: Time 397470, Note Name: C#4, Velocity: 59
Note ON: Time 397485, Note Name: F4, Velocity: 59
Note OFF: Time 397680, Note Name: F4
Note OFF: Time 397680, Note Name: F3
Note OFF: Time 397680, Note Name: A#3
Note OFF: Time 397680, Note Name: C#4
Note ON: Time 397680, Note Name: D#6, Velocity: 73
Note ON: Time 397680, Note Name: D#5, Velocity: 73
Note OFF: Time 397920, Note Name: D#5
Note OFF: Time 397920, Note Name: D#6
Note ON: Time 397920, Note Name: C#6, Velocity: 73
Note ON: Time 397920, Note Name: C#5, Velocity: 73
Note OFF: Time 398160, Note Name: C#5
Note OFF: Time 398160, Note Name: C#6
Note ON: Time 398160, Note Name: C5, Velocity: 68
Note ON: Time 398175, Note Name: F5, Velocity: 69
Note ON: Time 398190, Note Name: A5, Velocity: 72
Note ON: Time 398205, Note Name: C6, Velocity: 77
Note OFF: Time 398400, Note Name: C6
Note OFF: Time 398400, Note Name: C5
Note OFF: Time 398400, Note Name: F5
Note OFF: Time 398400, Note Name: A5
Note ON: Time 398400, Note Name: E4, Velocity: 68
Note OFF: Time 398520, Note Name: E4
Note ON: Time 398520, Note Name: F4, Velocity: 66
Note OFF: Time 398640, Note Name: F4
Note ON: Time 398640, Note Name: G#4, Velocity: 69
Note ON: Time 398720, Note Name: F#4, Velocity: 69
Note OFF: Time 398740, Note Name: G#4
Note ON: Time 398800, Note Name: F4, Velocity: 67
Note OFF: Time 398820, Note Name: F#4
Note OFF: Time 398870, Note Name: F4
Note ON: Time 398880, Note Name: F3, Velocity: 60
Note ON: Time 398895, Note Name: A#3, Velocity: 60
Note ON: Time 398910, Note Name: C#4, Velocity: 60
Note ON: Time 398925, Note Name: F4, Velocity: 60
Note OFF: Time 399120, Note Name: F4
Note OFF: Time 399120, Note Name: F3
Note OFF: Time 399120, Note Name: A#3
Note OFF: Time 399120, Note Name: C#4
Note ON: Time 399120, Note Name: C6, Velocity: 74
Note ON: Time 399120, Note Name: C5, Velocity: 74
Note OFF: Time 399360, Note Name: C5
Note OFF: Time 399360, Note Name: C6
Note ON: Time 399360, Note Name: A#4, Velocity: 74
Note ON: Time 399360, Note Name: A#5, Velocity: 74
Note OFF: Time 399600, Note Name: A#5
Note OFF: Time 399600, Note Name: A#4
Note ON: Time 399600, Note Name: A4, Velocity: 69
Note ON: Time 399615, Note Name: C5, Velocity: 70
Note ON: Time 399630, Note Name: F5, Velocity: 74
Note ON: Time 399645, Note Name: A5, Velocity: 76
Note OFF: Time 399840, Note Name: A5
Note OFF: Time 399840, Note Name: A4
Note OFF: Time 399840, Note Name: C5
Note OFF: Time 399840, Note Name: F5
Note ON: Time 399840, Note Name: E4, Velocity: 65
Note OFF: Time 399960, Note Name: E4
Note ON: Time 399960, Note Name: F4, Velocity: 60
Note OFF: Time 400080, Note Name: F4
Note ON: Time 400080, Note Name: G#4, Velocity: 65
Note ON: Time 400160, Note Name: F#4, Velocity: 65
Note OFF: Time 400180, Note Name: G#4
Note ON: Time 400240, Note Name: F4, Velocity: 61
Note OFF: Time 400260, Note Name: F#4
Note OFF: Time 400310, Note Name: F4
Note ON: Time 400320, Note Name: F3, Velocity: 56
Note ON: Time 400335, Note Name: A#3, Velocity: 56
Note ON: Time 400350, Note Name: C#4, Velocity: 56
Note ON: Time 400365, Note Name: F4, Velocity: 56
Note OFF: Time 400560, Note Name: F4
Note OFF: Time 400560, Note Name: F3
Note OFF: Time 400560, Note Name: A#3
Note OFF: Time 400560, Note Name: C#4
Note ON: Time 400560, Note Name: D#6, Velocity: 78
Note ON: Time 400560, Note Name: D#5, Velocity: 78
Note OFF: Time 400800, Note Name: D#5
Note OFF: Time 400800, Note Name: D#6
Note ON: Time 400800, Note Name: C#5, Velocity: 78
Note ON: Time 400800, Note Name: C#6, Velocity: 78
Note OFF: Time 401040, Note Name: C#6
Note OFF: Time 401040, Note Name: C#5
Note ON: Time 401040, Note Name: C5, Velocity: 74
Note ON: Time 401055, Note Name: F5, Velocity: 75
Note ON: Time 401070, Note Name: A5, Velocity: 77
Note ON: Time 401085, Note Name: C6, Velocity: 80
Note OFF: Time 401280, Note Name: C6
Note OFF: Time 401280, Note Name: C5
Note OFF: Time 401280, Note Name: F5
Note OFF: Time 401280, Note Name: A5
Note ON: Time 401280, Note Name: E4, Velocity: 70
Note OFF: Time 401400, Note Name: E4
Note ON: Time 401400, Note Name: F4, Velocity: 67
Note OFF: Time 401520, Note Name: F4
Note ON: Time 401520, Note Name: G#4, Velocity: 70
Note ON: Time 401600, Note Name: F#4, Velocity: 70
Note OFF: Time 401620, Note Name: G#4
Note ON: Time 401680, Note Name: F4, Velocity: 68
Note OFF: Time 401700, Note Name: F#4
Note OFF: Time 401750, Note Name: F4
Note ON: Time 401760, Note Name: F3, Velocity: 62
Note ON: Time 401775, Note Name: A#3, Velocity: 62
Note ON: Time 401790, Note Name: C#4, Velocity: 62
Note ON: Time 401805, Note Name: F4, Velocity: 62
Note OFF: Time 402000, Note Name: F4
Note OFF: Time 402000, Note Name: F3
Note OFF: Time 402000, Note Name: A#3
Note OFF: Time 402000, Note Name: C#4
Note ON: Time 402000, Note Name: C6, Velocity: 77
Note ON: Time 402000, Note Name: C5, Velocity: 77
Note OFF: Time 402240, Note Name: C5
Note OFF: Time 402240, Note Name: C6
Note ON: Time 402240, Note Name: A#4, Velocity: 77
Note ON: Time 402240, Note Name: A#5, Velocity: 77
Note OFF: Time 402480, Note Name: A#5
Note OFF: Time 402480, Note Name: A#4
Note ON: Time 402480, Note Name: A4, Velocity: 73
Note ON: Time 402495, Note Name: C5, Velocity: 74
Note ON: Time 402510, Note Name: F5, Velocity: 77
Note ON: Time 402525, Note Name: A5, Velocity: 81
Note OFF: Time 402720, Note Name: A5
Note OFF: Time 402720, Note Name: A4
Note OFF: Time 402720, Note Name: C5
Note OFF: Time 402720, Note Name: F5
Note ON: Time 402720, Note Name: E4, Velocity: 67
Note OFF: Time 402840, Note Name: E4
Note ON: Time 402840, Note Name: F4, Velocity: 64
Note OFF: Time 402960, Note Name: F4
Note ON: Time 402960, Note Name: G#4, Velocity: 67
Note ON: Time 403040, Note Name: F#4, Velocity: 67
Note OFF: Time 403060, Note Name: G#4
Note ON: Time 403120, Note Name: F4, Velocity: 64
Note OFF: Time 403140, Note Name: F#4
Note OFF: Time 403190, Note Name: F4
Note ON: Time 403200, Note Name: F4, Velocity: 80
Note OFF: Time 403440, Note Name: F4
Note ON: Time 403440, Note Name: C#6, Velocity: 77
Note ON: Time 403440, Note Name: C#5, Velocity: 77
Note OFF: Time 403680, Note Name: C#5
Note OFF: Time 403680, Note Name: C#6
Note ON: Time 403680, Note Name: C5, Velocity: 78
Note ON: Time 403680, Note Name: C6, Velocity: 78
Note OFF: Time 403920, Note Name: C6
Note OFF: Time 403920, Note Name: C5
Note ON: Time 403920, Note Name: A4, Velocity: 74
Note ON: Time 403935, Note Name: C5, Velocity: 75
Note ON: Time 403950, Note Name: F5, Velocity: 78
Note ON: Time 403965, Note Name: A5, Velocity: 83
Note OFF: Time 404160, Note Name: A5
Note OFF: Time 404160, Note Name: A4
Note OFF: Time 404160, Note Name: C5
Note OFF: Time 404160, Note Name: F5
Note ON: Time 404160, Note Name: B3, Velocity: 70
Note OFF: Time 404280, Note Name: B3
Note ON: Time 404280, Note Name: C4, Velocity: 66
Note OFF: Time 404400, Note Name: C4
Note ON: Time 404400, Note Name: D#4, Velocity: 70
Note ON: Time 404480, Note Name: C#4, Velocity: 70
Note OFF: Time 404500, Note Name: D#4
Note ON: Time 404560, Note Name: C4, Velocity: 66
Note OFF: Time 404580, Note Name: C#4
Note OFF: Time 404630, Note Name: C4
Note ON: Time 404640, Note Name: C4, Velocity: 80
Note OFF: Time 404880, Note Name: C4
Note ON: Time 404880, Note Name: A#4, Velocity: 78
Note OFF: Time 405120, Note Name: A#4
Note ON: Time 405120, Note Name: A4, Velocity: 75
Note OFF: Time 405360, Note Name: A4
Note ON: Time 405360, Note Name: A4, Velocity: 65
Note ON: Time 405375, Note Name: C5, Velocity: 67
Note ON: Time 405390, Note Name: F5, Velocity: 71
Note ON: Time 405405, Note Name: A5, Velocity: 71
Note OFF: Time 405600, Note Name: A5
Note OFF: Time 405600, Note Name: A4
Note OFF: Time 405600, Note Name: C5
Note OFF: Time 405600, Note Name: F5
Note ON: Time 405600, Note Name: E4, Velocity: 70
Note OFF: Time 405720, Note Name: E4
Note ON: Time 405720, Note Name: F4, Velocity: 67
Note OFF: Time 405840, Note Name: F4
Note ON: Time 405840, Note Name: G#4, Velocity: 70
Note ON: Time 405920, Note Name: F#4, Velocity: 70
Note OFF: Time 405940, Note Name: G#4
Note ON: Time 406000, Note Name: F4, Velocity: 66
Note OFF: Time 406020, Note Name: F#4
Note OFF: Time 406070, Note Name: F4
Note ON: Time 406080, Note Name: F4, Velocity: 80
Note OFF: Time 406320, Note Name: F4
Note ON: Time 406320, Note Name: C#6, Velocity: 77
Note ON: Time 406320, Note Name: C#5, Velocity: 77
Note OFF: Time 406560, Note Name: C#5
Note OFF: Time 406560, Note Name: C#6
Note ON: Time 406560, Note Name: C5, Velocity: 77
Note ON: Time 406560, Note Name: C6, Velocity: 77
Note OFF: Time 406800, Note Name: C6
Note OFF: Time 406800, Note Name: C5
Note ON: Time 406800, Note Name: A4, Velocity: 65
Note ON: Time 406815, Note Name: C5, Velocity: 66
Note ON: Time 406830, Note Name: F5, Velocity: 70
Note ON: Time 406845, Note Name: A5, Velocity: 76
Note OFF: Time 407040, Note Name: A5
Note OFF: Time 407040, Note Name: A4
Note OFF: Time 407040, Note Name: C5
Note OFF: Time 407040, Note Name: F5
Note ON: Time 407040, Note Name: B3, Velocity: 69
Note OFF: Time 407160, Note Name: B3
Note ON: Time 407160, Note Name: C4, Velocity: 67
Note OFF: Time 407280, Note Name: C4
Note ON: Time 407280, Note Name: D#4, Velocity: 69
Note ON: Time 407360, Note Name: C#4, Velocity: 69
Note OFF: Time 407380, Note Name: D#4
Note ON: Time 407440, Note Name: C4, Velocity: 66
Note OFF: Time 407460, Note Name: C#4
Note OFF: Time 407510, Note Name: C4
Note ON: Time 407520, Note Name: C4, Velocity: 78
Note OFF: Time 407760, Note Name: C4
Note ON: Time 407760, Note Name: A#4, Velocity: 77
Note OFF: Time 408000, Note Name: A#4
Note ON: Time 408000, Note Name: A4, Velocity: 74
Note OFF: Time 408240, Note Name: A4
Note ON: Time 408240, Note Name: A4, Velocity: 62
Note ON: Time 408255, Note Name: C5, Velocity: 63
Note ON: Time 408270, Note Name: F5, Velocity: 65
Note ON: Time 408285, Note Name: A5, Velocity: 69
Note OFF: Time 408480, Note Name: A5
Note OFF: Time 408480, Note Name: A4
Note OFF: Time 408480, Note Name: C5
Note OFF: Time 408480, Note Name: F5
Note ON: Time 408480, Note Name: B3, Velocity: 64
Note OFF: Time 408600, Note Name: B3
Note ON: Time 408600, Note Name: C4, Velocity: 59
Note OFF: Time 408720, Note Name: C4
Note ON: Time 408720, Note Name: D#4, Velocity: 64
Note ON: Time 408800, Note Name: C#4, Velocity: 64
Note OFF: Time 408820, Note Name: D#4
Note ON: Time 408880, Note Name: C4, Velocity: 60
Note OFF: Time 408900, Note Name: C#4
Note OFF: Time 408950, Note Name: C4
Note ON: Time 408960, Note Name: C4, Velocity: 72
Note OFF: Time 409200, Note Name: C4
Note ON: Time 409200, Note Name: A#4, Velocity: 71
Note OFF: Time 409440, Note Name: A#4
Note ON: Time 409440, Note Name: A4, Velocity: 69
Note OFF: Time 409680, Note Name: A4
Note ON: Time 409680, Note Name: A4, Velocity: 58
Note ON: Time 409695, Note Name: C5, Velocity: 59
Note ON: Time 409710, Note Name: F5, Velocity: 61
Note ON: Time 409725, Note Name: A5, Velocity: 63
Note OFF: Time 409920, Note Name: A5
Note OFF: Time 409920, Note Name: A4
Note OFF: Time 409920, Note Name: C5
Note OFF: Time 409920, Note Name: F5
Note ON: Time 409920, Note Name: B3, Velocity: 59
Note OFF: Time 410040, Note Name: B3
Note ON: Time 410040, Note Name: C4, Velocity: 56
Note OFF: Time 410160, Note Name: C4
Note ON: Time 410160, Note Name: D#4, Velocity: 59
Note ON: Time 410240, Note Name: C#4, Velocity: 59
Note OFF: Time 410260, Note Name: D#4
Note ON: Time 410320, Note Name: C4, Velocity: 55
Note OFF: Time 410340, Note Name: C#4
Note OFF: Time 410390, Note Name: C4
Note ON: Time 410400, Note Name: C4, Velocity: 67
Note OFF: Time 410640, Note Name: C4
Note ON: Time 410640, Note Name: A#4, Velocity: 67
Note OFF: Time 410880, Note Name: A#4
Note ON: Time 410880, Note Name: A4, Velocity: 64
Note OFF: Time 411120, Note Name: A4
Note ON: Time 411120, Note Name: A4, Velocity: 54
Note ON: Time 411135, Note Name: C5, Velocity: 54
Note ON: Time 411150, Note Name: F5, Velocity: 56
Note ON: Time 411165, Note Name: A5, Velocity: 58
Note OFF: Time 411360, Note Name: A5
Note OFF: Time 411360, Note Name: A4
Note OFF: Time 411360, Note Name: C5
Note OFF: Time 411360, Note Name: F5
Note ON: Time 411360, Note Name: B2, Velocity: 53
Note ON: Time 411480, Note Name: C3, Velocity: 51
Note OFF: Time 411510, Note Name: B2
Note ON: Time 411600, Note Name: D#3, Velocity: 53
Note OFF: Time 411630, Note Name: C3
Note ON: Time 411680, Note Name: C#3, Velocity: 53
Note OFF: Time 411700, Note Name: D#3
Note ON: Time 411760, Note Name: C3, Velocity: 49
Note OFF: Time 411780, Note Name: C#3
Note OFF: Time 411830, Note Name: C3
Note ON: Time 411840, Note Name: C3, Velocity: 59
Note OFF: Time 412080, Note Name: C3
Note ON: Time 412080, Note Name: A#3, Velocity: 56
Note OFF: Time 412200, Note Name: A#3
Note ON: Time 412320, Note Name: A3, Velocity: 58
Note OFF: Time 412440, Note Name: A3
Note ON: Time 412560, Note Name: F3, Velocity: 62
Note OFF: Time 412800, Note Name: F3
Note ON: Time 412800, Note Name: B2, Velocity: 46
Note ON: Time 412920, Note Name: C3, Velocity: 43
Note OFF: Time 412950, Note Name: B2
Note ON: Time 413040, Note Name: D#3, Velocity: 46
Note OFF: Time 413070, Note Name: C3
Note ON: Time 413120, Note Name: C#3, Velocity: 46
Note OFF: Time 413140, Note Name: D#3
Note ON: Time 413200, Note Name: C3, Velocity: 42
Note OFF: Time 413220, Note Name: C#3
Note OFF: Time 413270, Note Name: C3
Note ON: Time 413280, Note Name: C3, Velocity: 51
Note OFF: Time 413520, Note Name: C3
Note ON: Time 413520, Note Name: A#3, Velocity: 52
Note OFF: Time 413640, Note Name: A#3
Note ON: Time 413760, Note Name: A3, Velocity: 52
Note OFF: Time 413880, Note Name: A3
Note ON: Time 414000, Note Name: F3, Velocity: 56
Note OFF: Time 414240, Note Name: F3
Note ON: Time 415680, Note Name: B2, Velocity: 47
Note ON: Time 415800, Note Name: C3, Velocity: 44
Note OFF: Time 415830, Note Name: B2
Note ON: Time 415920, Note Name: D#3, Velocity: 47
Note OFF: Time 415950, Note Name: C3
Note ON: Time 416000, Note Name: C#3, Velocity: 47
Note OFF: Time 416020, Note Name: D#3
Note ON: Time 416080, Note Name: C3, Velocity: 44
Note OFF: Time 416100, Note Name: C#3
Note OFF: Time 416150, Note Name: C3
Note ON: Time 416160, Note Name: C3, Velocity: 55
Note OFF: Time 416280, Note Name: C3
Note ON: Time 416400, Note Name: A#3, Velocity: 52
Note OFF: Time 416520, Note Name: A#3
Note ON: Time 416640, Note Name: A3, Velocity: 49
Note OFF: Time 416760, Note Name: A3
Note ON: Time 416880, Note Name: F3, Velocity: 55
Note OFF: Time 417120, Note Name: F3
Note ON: Time 417840, Note Name: A#2, Velocity: 46
Note OFF: Time 418080, Note Name: A#2
Note ON: Time 418080, Note Name: A2, Velocity: 45
Note OFF: Time 418320, Note Name: A2
Note ON: Time 418320, Note Name: F2, Velocity: 46
Note OFF: Time 419040, Note Name: F2
Note ON: Time 420240, Note Name: A3, Velocity: 29
Note OFF: Time 420320, Note Name: A3
Note ON: Time 420320, Note Name: A#3, Velocity: 31
Note OFF: Time 420400, Note Name: A#3
Note ON: Time 420400, Note Name: C#4, Velocity: 33
Note OFF: Time 420480, Note Name: C#4
Note ON: Time 420480, Note Name: F4, Velocity: 37
Note OFF: Time 420600, Note Name: F4
Note ON: Time 420960, Note Name: A3, Velocity: 29
Note OFF: Time 421040, Note Name: A3
Note ON: Time 421040, Note Name: A#3, Velocity: 31
Note OFF: Time 421120, Note Name: A#3
Note ON: Time 421120, Note Name: C#4, Velocity: 32
Note OFF: Time 421200, Note Name: C#4
Note ON: Time 421200, Note Name: F4, Velocity: 43
Note OFF: Time 422640, Note Name: F4
Note ON: Time 422640, Note Name: A#3, Velocity: 100
Note OFF: Time 422760, Note Name: A#3
Note ON: Time 423360, Note Name: A#6, Velocity: 92
Note ON: Time 423360, Note Name: F#6, Velocity: 92
Note ON: Time 423360, Note Name: A#5, Velocity: 78
Note OFF: Time 424800, Note Name: A#5
Note OFF: Time 424800, Note Name: F#6
Note OFF: Time 424800, Note Name: A#6
Note ON: Time 424800, Note Name: D#5, Velocity: 51
Note ON: Time 424800, Note Name: C6, Velocity: 61
Note ON: Time 424800, Note Name: D#6, Velocity: 61
Note OFF: Time 425160, Note Name: D#6
Note OFF: Time 425160, Note Name: C6
Note OFF: Time 425160, Note Name: D#5
Note ON: Time 425160, Note Name: F5, Velocity: 57
Note ON: Time 425160, Note Name: C6, Velocity: 68
Note ON: Time 425160, Note Name: F6, Velocity: 68
Note OFF: Time 425280, Note Name: F6
Note OFF: Time 425280, Note Name: C6
Note OFF: Time 425280, Note Name: F5
Note ON: Time 425280, Note Name: F#5, Velocity: 60
Note ON: Time 425280, Note Name: C6, Velocity: 71
Note ON: Time 425280, Note Name: F#6, Velocity: 71
Note OFF: Time 425520, Note Name: F#6
Note OFF: Time 425520, Note Name: C6
Note OFF: Time 425520, Note Name: F#5
Note ON: Time 425520, Note Name: F5, Velocity: 57
Note ON: Time 425520, Note Name: C#6, Velocity: 68
Note ON: Time 425520, Note Name: F6, Velocity: 68
Note OFF: Time 425760, Note Name: F6
Note OFF: Time 425760, Note Name: C#6
Note OFF: Time 425760, Note Name: F5
Note ON: Time 426000, Note Name: A3, Velocity: 27
Note OFF: Time 426080, Note Name: A3
Note ON: Time 426080, Note Name: A#3, Velocity: 29
Note OFF: Time 426160, Note Name: A#3
Note ON: Time 426160, Note Name: C#4, Velocity: 30
Note OFF: Time 426240, Note Name: C#4
Note ON: Time 426240, Note Name: F4, Velocity: 35
Note OFF: Time 426360, Note Name: F4
Note ON: Time 426720, Note Name: A3, Velocity: 27
Note OFF: Time 426800, Note Name: A3
Note ON: Time 426800, Note Name: A#3, Velocity: 29
Note OFF: Time 426880, Note Name: A#3
Note ON: Time 426880, Note Name: C#4, Velocity: 30
Note OFF: Time 426960, Note Name: C#4
Note ON: Time 426960, Note Name: F4, Velocity: 39
Note OFF: Time 428400, Note Name: F4
Note ON: Time 428400, Note Name: G#3, Velocity: 100
Note OFF: Time 428520, Note Name: G#3
Note ON: Time 429120, Note Name: G#6, Velocity: 90
Note ON: Time 429120, Note Name: F6, Velocity: 90
Note ON: Time 429120, Note Name: G#5, Velocity: 76
Note OFF: Time 430560, Note Name: G#5
Note OFF: Time 430560, Note Name: F6
Note OFF: Time 430560, Note Name: G#6
Note ON: Time 430560, Note Name: D#5, Velocity: 51
Note ON: Time 430560, Note Name: C6, Velocity: 60
Note ON: Time 430560, Note Name: D#6, Velocity: 60
Note OFF: Time 430920, Note Name: D#6
Note OFF: Time 430920, Note Name: C6
Note OFF: Time 430920, Note Name: D#5
Note ON: Time 430920, Note Name: F5, Velocity: 55
Note ON: Time 430920, Note Name: C6, Velocity: 65
Note ON: Time 430920, Note Name: F6, Velocity: 65
Note OFF: Time 431040, Note Name: F6
Note OFF: Time 431040, Note Name: C6
Note OFF: Time 431040, Note Name: F5
Note ON: Time 431040, Note Name: F#5, Velocity: 59
Note ON: Time 431040, Note Name: C6, Velocity: 70
Note ON: Time 431040, Note Name: F#6, Velocity: 70
Note OFF: Time 431280, Note Name: F#6
Note OFF: Time 431280, Note Name: C6
Note OFF: Time 431280, Note Name: F#5
Note ON: Time 431280, Note Name: F5, Velocity: 56
Note ON: Time 431280, Note Name: C#6, Velocity: 67
Note ON: Time 431280, Note Name: F6, Velocity: 67
Note OFF: Time 431520, Note Name: F6
Note OFF: Time 431520, Note Name: C#6
Note OFF: Time 431520, Note Name: F5
Note ON: Time 432000, Note Name: A4, Velocity: 81
Note ON: Time 432000, Note Name: F5, Velocity: 81
Note OFF: Time 432480, Note Name: F5
Note OFF: Time 432480, Note Name: A4
Note ON: Time 432720, Note Name: A3, Velocity: 81
Note ON: Time 432720, Note Name: F4, Velocity: 81
Note OFF: Time 433200, Note Name: F4
Note OFF: Time 433200, Note Name: A3
Note ON: Time 437520, Note Name: A3, Velocity: 27
Note OFF: Time 437600, Note Name: A3
Note ON: Time 437600, Note Name: A#3, Velocity: 29
Note OFF: Time 437680, Note Name: A#3
Note ON: Time 437680, Note Name: C#4, Velocity: 30
Note OFF: Time 437760, Note Name: C#4
Note ON: Time 437760, Note Name: F4, Velocity: 34
Note OFF: Time 437880, Note Name: F4
Note ON: Time 438240, Note Name: A3, Velocity: 29
Note OFF: Time 438320, Note Name: A3
Note ON: Time 438320, Note Name: A#3, Velocity: 30
Note OFF: Time 438400, Note Name: A#3
Note ON: Time 438400, Note Name: C#4, Velocity: 31
Note OFF: Time 438480, Note Name: C#4
Note ON: Time 438480, Note Name: F4, Velocity: 39
Note OFF: Time 439920, Note Name: F4
Note ON: Time 439920, Note Name: A#3, Velocity: 100
Note OFF: Time 440040, Note Name: A#3
Note ON: Time 440640, Note Name: A#5, Velocity: 78
Note ON: Time 440640, Note Name: F#6, Velocity: 92
Note ON: Time 440640, Note Name: A#6, Velocity: 92
Note OFF: Time 441720, Note Name: A#6
Note OFF: Time 441720, Note Name: F#6
Note OFF: Time 441720, Note Name: A#5
Note ON: Time 441720, Note Name: D#6, Velocity: 58
Note ON: Time 441720, Note Name: C6, Velocity: 58
Note ON: Time 441720, Note Name: D#5, Velocity: 49
Note OFF: Time 441840, Note Name: D#5
Note OFF: Time 441840, Note Name: C6
Note OFF: Time 441840, Note Name: D#6
Note ON: Time 441840, Note Name: D#6, Velocity: 58
Note ON: Time 441840, Note Name: C6, Velocity: 58
Note ON: Time 441840, Note Name: D#5, Velocity: 49
Note OFF: Time 442080, Note Name: D#5
Note OFF: Time 442080, Note Name: C6
Note OFF: Time 442080, Note Name: D#6
Note ON: Time 442080, Note Name: D#5, Velocity: 51
Note ON: Time 442080, Note Name: C6, Velocity: 61
Note ON: Time 442080, Note Name: D#6, Velocity: 61
Note OFF: Time 442440, Note Name: D#6
Note OFF: Time 442440, Note Name: C6
Note OFF: Time 442440, Note Name: D#5
Note ON: Time 442440, Note Name: C6, Velocity: 68
Note ON: Time 442440, Note Name: F6, Velocity: 68
Note ON: Time 442440, Note Name: F5, Velocity: 57
Note OFF: Time 442560, Note Name: F5
Note OFF: Time 442560, Note Name: F6
Note OFF: Time 442560, Note Name: C6
Note ON: Time 442560, Note Name: C6, Velocity: 71
Note ON: Time 442560, Note Name: F#5, Velocity: 60
Note ON: Time 442560, Note Name: F#6, Velocity: 71
Note OFF: Time 442800, Note Name: F#6
Note OFF: Time 442800, Note Name: F#5
Note OFF: Time 442800, Note Name: C6
Note ON: Time 442800, Note Name: C#6, Velocity: 68
Note ON: Time 442800, Note Name: F5, Velocity: 57
Note ON: Time 442800, Note Name: F6, Velocity: 68
Note OFF: Time 443040, Note Name: F6
Note OFF: Time 443040, Note Name: F5
Note OFF: Time 443040, Note Name: C#6
Note ON: Time 443280, Note Name: A3, Velocity: 29
Note OFF: Time 443360, Note Name: A3
Note ON: Time 443360, Note Name: A#3, Velocity: 30
Note OFF: Time 443440, Note Name: A#3
Note ON: Time 443440, Note Name: C#4, Velocity: 32
Note OFF: Time 443520, Note Name: C#4
Note ON: Time 443520, Note Name: F4, Velocity: 37
Note OFF: Time 443640, Note Name: F4
Note ON: Time 444000, Note Name: A3, Velocity: 29
Note OFF: Time 444080, Note Name: A3
Note ON: Time 444080, Note Name: A#3, Velocity: 30
Note OFF: Time 444160, Note Name: A#3
Note ON: Time 444160, Note Name: C#4, Velocity: 32
Note OFF: Time 444240, Note Name: C#4
Note ON: Time 444240, Note Name: F4, Velocity: 39
Note OFF: Time 445680, Note Name: F4
Note ON: Time 445680, Note Name: C3, Velocity: 100
Note OFF: Time 445800, Note Name: C3
Note ON: Time 446400, Note Name: C6, Velocity: 76
Note ON: Time 446400, Note Name: G#6, Velocity: 90
Note ON: Time 446400, Note Name: C7, Velocity: 90
Note OFF: Time 447840, Note Name: C7
Note OFF: Time 447840, Note Name: G#6
Note OFF: Time 447840, Note Name: C6
Note ON: Time 447840, Note Name: G6, Velocity: 60
Note ON: Time 447840, Note Name: E6, Velocity: 60
Note ON: Time 447840, Note Name: G5, Velocity: 51
Note OFF: Time 448200, Note Name: G5
Note OFF: Time 448200, Note Name: E6
Note OFF: Time 448200, Note Name: G6
Note ON: Time 448200, Note Name: G#5, Velocity: 55
Note ON: Time 448200, Note Name: E6, Velocity: 65
Note ON: Time 448200, Note Name: G#6, Velocity: 65
Note OFF: Time 448320, Note Name: G#6
Note OFF: Time 448320, Note Name: E6
Note OFF: Time 448320, Note Name: G#5
Note ON: Time 448320, Note Name: A#5, Velocity: 59
Note ON: Time 448320, Note Name: E6, Velocity: 70
Note ON: Time 448320, Note Name: A#6, Velocity: 70
Note OFF: Time 448560, Note Name: A#6
Note OFF: Time 448560, Note Name: E6
Note OFF: Time 448560, Note Name: A#5
Note ON: Time 448560, Note Name: G#6, Velocity: 67
Note ON: Time 448560, Note Name: F6, Velocity: 67
Note ON: Time 448560, Note Name: G#5, Velocity: 56
Note OFF: Time 448800, Note Name: G#5
Note OFF: Time 448800, Note Name: F6
Note OFF: Time 448800, Note Name: G#6
Note ON: Time 449280, Note Name: C5, Velocity: 81
Note ON: Time 449280, Note Name: G#5, Velocity: 81
Note ON: Time 449280, Note Name: G#4, Velocity: 68
Note ON: Time 449280, Note Name: F5, Velocity: 81
Note OFF: Time 449760, Note Name: F5
Note OFF: Time 449760, Note Name: C5
Note OFF: Time 449760, Note Name: G#5
Note OFF: Time 449760, Note Name: G#4
Note ON: Time 450000, Note Name: C4, Velocity: 81
Note ON: Time 450000, Note Name: G#4, Velocity: 81
Note ON: Time 450000, Note Name: G#3, Velocity: 68
Note ON: Time 450000, Note Name: F4, Velocity: 81
Note OFF: Time 450480, Note Name: F4
Note OFF: Time 450480, Note Name: C4
Note OFF: Time 450480, Note Name: G#4
Note OFF: Time 450480, Note Name: G#3
Note ON: Time 452160, Note Name: F2, Velocity: 94
Note OFF: Time 452880, Note Name: F2
Note ON: Time 452880, Note Name: D2, Velocity: 50
Note ON: Time 452960, Note Name: D#2, Velocity: 51
Note OFF: Time 452970, Note Name: D2
Note ON: Time 453040, Note Name: F2, Velocity: 51
Note OFF: Time 453050, Note Name: D#2
Note ON: Time 453120, Note Name: D#2, Velocity: 52
Note OFF: Time 453130, Note Name: F2
Note OFF: Time 453200, Note Name: D#2
Note ON: Time 453200, Note Name: F2, Velocity: 53
Note ON: Time 453280, Note Name: D#2, Velocity: 55
Note OFF: Time 453290, Note Name: F2
Note ON: Time 453357, Note Name: F2, Velocity: 56
Note OFF: Time 453370, Note Name: D#2
Note ON: Time 453440, Note Name: D#2, Velocity: 56
Note OFF: Time 453447, Note Name: F2
Note ON: Time 453520, Note Name: F2, Velocity: 57
Note OFF: Time 453530, Note Name: D#2
Note ON: Time 453600, Note Name: D#2, Velocity: 58
Note OFF: Time 453610, Note Name: F2
Note ON: Time 453660, Note Name: F2, Velocity: 59
Note OFF: Time 453670, Note Name: D#2
Note ON: Time 453720, Note Name: D#2, Velocity: 60
Note OFF: Time 453730, Note Name: F2
Note ON: Time 453780, Note Name: F2, Velocity: 61
Note OFF: Time 453790, Note Name: D#2
Note ON: Time 453837, Note Name: D#2, Velocity: 62
Note OFF: Time 453850, Note Name: F2
Note OFF: Time 453897, Note Name: D#2
Note ON: Time 453900, Note Name: F2, Velocity: 62
Note ON: Time 453960, Note Name: D#2, Velocity: 62
Note OFF: Time 453970, Note Name: F2
Note ON: Time 454020, Note Name: F2, Velocity: 63
Note OFF: Time 454030, Note Name: D#2
Note ON: Time 454080, Note Name: D#2, Velocity: 64
Note OFF: Time 454090, Note Name: F2
Note ON: Time 454160, Note Name: D2, Velocity: 73
Note OFF: Time 454170, Note Name: D#2
Note ON: Time 454240, Note Name: D#2, Velocity: 73
Note OFF: Time 454250, Note Name: D2
Note ON: Time 454320, Note Name: F7, Velocity: 97
Note OFF: Time 454330, Note Name: D#2
Note OFF: Time 455280, Note Name: F7
Note ON: Time 455280, Note Name: D#7, Velocity: 68
Note OFF: Time 455400, Note Name: D#7
Note ON: Time 455400, Note Name: C#7, Velocity: 62
Note OFF: Time 455520, Note Name: C#7
Note ON: Time 455520, Note Name: G#6, Velocity: 65
Note OFF: Time 455640, Note Name: G#6
Note ON: Time 455640, Note Name: F6, Velocity: 60
Note OFF: Time 455760, Note Name: F6
Note ON: Time 455760, Note Name: D#6, Velocity: 62
Note OFF: Time 455880, Note Name: D#6
Note ON: Time 455880, Note Name: C#6, Velocity: 57
Note OFF: Time 456000, Note Name: C#6
Note ON: Time 456000, Note Name: G#5, Velocity: 58
Note OFF: Time 456120, Note Name: G#5
Note ON: Time 456120, Note Name: F5, Velocity: 52
Note OFF: Time 456240, Note Name: F5
Note ON: Time 456240, Note Name: D#5, Velocity: 55
Note OFF: Time 456360, Note Name: D#5
Note ON: Time 456360, Note Name: C#5, Velocity: 51
Note OFF: Time 456480, Note Name: C#5
Note ON: Time 456480, Note Name: G#4, Velocity: 52
Note OFF: Time 456720, Note Name: G#4
Note ON: Time 457200, Note Name: C5, Velocity: 55
Note OFF: Time 457320, Note Name: C5
Note ON: Time 457320, Note Name: C#5, Velocity: 52
Note OFF: Time 457440, Note Name: C#5
Note ON: Time 457440, Note Name: D#5, Velocity: 50
Note OFF: Time 457560, Note Name: D#5
Note ON: Time 457560, Note Name: F5, Velocity: 47
Note OFF: Time 457680, Note Name: F5
Note ON: Time 457680, Note Name: F#5, Velocity: 45
Note ON: Time 457793, Note Name: G#5, Velocity: 42
Note OFF: Time 457800, Note Name: F#5
Note OFF: Time 457913, Note Name: G#5
Note ON: Time 457920, Note Name: A5, Velocity: 40
Note OFF: Time 458040, Note Name: A5
Note ON: Time 458640, Note Name: A5, Velocity: 50
Note OFF: Time 458760, Note Name: A5
Note ON: Time 458760, Note Name: G#5, Velocity: 49
Note OFF: Time 458880, Note Name: G#5
Note ON: Time 458880, Note Name: G5, Velocity: 47
Note OFF: Time 459000, Note Name: G5
Note ON: Time 459000, Note Name: F#5, Velocity: 46
Note OFF: Time 459120, Note Name: F#5
Note ON: Time 459120, Note Name: F5, Velocity: 44
Note OFF: Time 459240, Note Name: F5
Note ON: Time 459240, Note Name: E5, Velocity: 42
Note OFF: Time 459360, Note Name: E5
Note ON: Time 459360, Note Name: D#5, Velocity: 41
Note OFF: Time 459480, Note Name: D#5
Note ON: Time 460080, Note Name: F7, Velocity: 97
Note OFF: Time 461040, Note Name: F7
Note ON: Time 461040, Note Name: D#7, Velocity: 68
Note OFF: Time 461160, Note Name: D#7
Note ON: Time 461160, Note Name: C#7, Velocity: 61
Note OFF: Time 461280, Note Name: C#7
Note ON: Time 461280, Note Name: G#6, Velocity: 65
Note OFF: Time 461400, Note Name: G#6
Note ON: Time 461400, Note Name: F6, Velocity: 59
Note OFF: Time 461520, Note Name: F6
Note ON: Time 461520, Note Name: D#6, Velocity: 62
Note OFF: Time 461640, Note Name: D#6
Note ON: Time 461640, Note Name: C#6, Velocity: 57
Note OFF: Time 461760, Note Name: C#6
Note ON: Time 461760, Note Name: G#5, Velocity: 58
Note OFF: Time 461880, Note Name: G#5
Note ON: Time 461880, Note Name: F5, Velocity: 57
Note OFF: Time 462000, Note Name: F5
Note ON: Time 462000, Note Name: D#5, Velocity: 55
Note OFF: Time 462120, Note Name: D#5
Note ON: Time 462120, Note Name: C#5, Velocity: 51
Note OFF: Time 462240, Note Name: C#5
Note ON: Time 462240, Note Name: G#4, Velocity: 52
Note OFF: Time 462480, Note Name: G#4
Note ON: Time 462960, Note Name: C5, Velocity: 42
Note OFF: Time 463080, Note Name: C5
Note ON: Time 463080, Note Name: C#5, Velocity: 41
Note OFF: Time 463200, Note Name: C#5
Note ON: Time 463200, Note Name: D#5, Velocity: 41
Note OFF: Time 463320, Note Name: D#5
Note ON: Time 463320, Note Name: F5, Velocity: 40
Note OFF: Time 463440, Note Name: F5
Note ON: Time 463440, Note Name: F#5, Velocity: 39
Note ON: Time 463553, Note Name: G#5, Velocity: 38
Note OFF: Time 463560, Note Name: F#5
Note OFF: Time 463673, Note Name: G#5
Note ON: Time 463680, Note Name: A5, Velocity: 37
Note OFF: Time 463800, Note Name: A5
Note ON: Time 464400, Note Name: A5, Velocity: 42
Note OFF: Time 464520, Note Name: A5
Note ON: Time 464520, Note Name: G#5, Velocity: 41
Note OFF: Time 464640, Note Name: G#5
Note ON: Time 464640, Note Name: G5, Velocity: 40
Note OFF: Time 464760, Note Name: G5
Note ON: Time 464760, Note Name: F#5, Velocity: 39
Note OFF: Time 464880, Note Name: F#5
Note ON: Time 464880, Note Name: F5, Velocity: 37
Note OFF: Time 465000, Note Name: F5
Note ON: Time 465000, Note Name: E5, Velocity: 36
Note OFF: Time 465120, Note Name: E5
Note ON: Time 465120, Note Name: D#5, Velocity: 35
Note OFF: Time 465360, Note Name: D#5
Note ON: Time 465840, Note Name: B4, Velocity: 40
Note ON: Time 465840, Note Name: F5, Velocity: 59
Note OFF: Time 466800, Note Name: F5
Note ON: Time 466800, Note Name: D#5, Velocity: 53
Note OFF: Time 467160, Note Name: D#5
Note ON: Time 467160, Note Name: C#5, Velocity: 52
Note OFF: Time 467270, Note Name: C#5
Note OFF: Time 467280, Note Name: B4
Note ON: Time 467280, Note Name: B4, Velocity: 38
Note ON: Time 467280, Note Name: C#5, Velocity: 56
Note OFF: Time 468000, Note Name: C#5
Note OFF: Time 468000, Note Name: B4
Note ON: Time 468000, Note Name: A#4, Velocity: 56
Note ON: Time 468000, Note Name: F#5, Velocity: 56
Note OFF: Time 468720, Note Name: A#4
Note ON: Time 468720, Note Name: B4, Velocity: 50
Note OFF: Time 469200, Note Name: F#5
Note ON: Time 469200, Note Name: F5, Velocity: 52
Note OFF: Time 469430, Note Name: F5
Note ON: Time 469440, Note Name: F5, Velocity: 51
Note OFF: Time 469680, Note Name: F5
Note ON: Time 469680, Note Name: D#5, Velocity: 50
Note OFF: Time 469920, Note Name: D#5
Note ON: Time 469920, Note Name: C#5, Velocity: 49
Note OFF: Time 470160, Note Name: C#5
Note OFF: Time 470160, Note Name: B4
Note ON: Time 470160, Note Name: A#4, Velocity: 44
Note ON: Time 470160, Note Name: C#5, Velocity: 44
Note ON: Time 470160, Note Name: A#5, Velocity: 56
Note OFF: Time 470880, Note Name: A#5
Note OFF: Time 470880, Note Name: C#5
Note OFF: Time 470880, Note Name: A#4
Note ON: Time 470880, Note Name: G#4, Velocity: 44
Note ON: Time 470880, Note Name: C#5, Velocity: 44
Note ON: Time 470880, Note Name: A#5, Velocity: 62
Note OFF: Time 471360, Note Name: A#5
Note ON: Time 471360, Note Name: A#5, Velocity: 64
Note ON: Time 471540, Note Name: G4, Velocity: 44
Note OFF: Time 471600, Note Name: G4
Note OFF: Time 471600, Note Name: G#4
Note OFF: Time 471600, Note Name: C#5
Note OFF: Time 471600, Note Name: A#5
Note ON: Time 471600, Note Name: C#5, Velocity: 45
Note ON: Time 471600, Note Name: A#5, Velocity: 68
Note OFF: Time 472080, Note Name: A#5
Note ON: Time 472080, Note Name: D#5, Velocity: 57
Note OFF: Time 472320, Note Name: D#5
Note ON: Time 472320, Note Name: D#5, Velocity: 57
Note OFF: Time 472560, Note Name: D#5
Note ON: Time 472560, Note Name: F5, Velocity: 51
Note OFF: Time 472620, Note Name: F5
Note ON: Time 472620, Note Name: G5, Velocity: 51
Note OFF: Time 472680, Note Name: G5
Note ON: Time 472680, Note Name: F5, Velocity: 56
Note OFF: Time 472920, Note Name: F5
Note ON: Time 472920, Note Name: D#5, Velocity: 56
Note OFF: Time 473030, Note Name: D#5
Note OFF: Time 473040, Note Name: C#5
Note ON: Time 473040, Note Name: C#5, Velocity: 49
Note ON: Time 473040, Note Name: D#5, Velocity: 59
Note OFF: Time 473760, Note Name: D#5
Note OFF: Time 473760, Note Name: C#5
Note ON: Time 473760, Note Name: C5, Velocity: 53
Note ON: Time 473760, Note Name: G#5, Velocity: 64
Note OFF: Time 474480, Note Name: C5
Note ON: Time 474480, Note Name: C#5, Velocity: 55
Note OFF: Time 474720, Note Name: G#5
Note ON: Time 474720, Note Name: G5, Velocity: 60
Note OFF: Time 474960, Note Name: G5
Note ON: Time 474960, Note Name: F5, Velocity: 59
Note OFF: Time 475200, Note Name: F5
Note ON: Time 475200, Note Name: G5, Velocity: 60
Note OFF: Time 475440, Note Name: G5
Note ON: Time 475440, Note Name: F5, Velocity: 59
Note OFF: Time 475800, Note Name: F5
Note ON: Time 475800, Note Name: D#5, Velocity: 56
Note OFF: Time 475920, Note Name: D#5
Note OFF: Time 475920, Note Name: C#5
Note ON: Time 475920, Note Name: C5, Velocity: 56
Note ON: Time 475920, Note Name: C6, Velocity: 56
Note OFF: Time 476640, Note Name: C6
Note ON: Time 476640, Note Name: C6, Velocity: 64
Note OFF: Time 477120, Note Name: C6
Note ON: Time 477120, Note Name: C6, Velocity: 63
Note OFF: Time 477350, Note Name: C6
Note OFF: Time 477360, Note Name: C5
Note ON: Time 477360, Note Name: C6, Velocity: 68
Note OFF: Time 478320, Note Name: C6
Note ON: Time 478320, Note Name: A#5, Velocity: 63
Note OFF: Time 478680, Note Name: A#5
Note ON: Time 478680, Note Name: G#5, Velocity: 63
Note OFF: Time 478790, Note Name: G#5
Note ON: Time 478800, Note Name: G#5, Velocity: 63
Note OFF: Time 479520, Note Name: G#5
Note ON: Time 479520, Note Name: C#6, Velocity: 75
Note OFF: Time 480240, Note Name: C#6
Note ON: Time 480240, Note Name: C#6, Velocity: 82
Note OFF: Time 480720, Note Name: C#6
Note ON: Time 480720, Note Name: C6, Velocity: 78
Note OFF: Time 480950, Note Name: C6
Note ON: Time 480960, Note Name: C6, Velocity: 75
Note OFF: Time 481200, Note Name: C6
Note ON: Time 481200, Note Name: A#5, Velocity: 71
Note OFF: Time 481560, Note Name: A#5
Note ON: Time 481560, Note Name: G#5, Velocity: 63
Note OFF: Time 481680, Note Name: G#5
Note ON: Time 481680, Note Name: F6, Velocity: 80
Note OFF: Time 482400, Note Name: F6
Note ON: Time 482400, Note Name: F6, Velocity: 77
Note OFF: Time 482880, Note Name: F6
Note ON: Time 482880, Note Name: F6, Velocity: 81
Note OFF: Time 483110, Note Name: F6
Note ON: Time 483120, Note Name: F6, Velocity: 85
Note OFF: Time 483840, Note Name: F6
Note ON: Time 483840, Note Name: D#6, Velocity: 72
Note OFF: Time 484080, Note Name: D#6
Note ON: Time 484080, Note Name: C#6, Velocity: 71
Note OFF: Time 484320, Note Name: C#6
Note ON: Time 484320, Note Name: A#5, Velocity: 70
Note OFF: Time 484560, Note Name: A#5
Note ON: Time 484560, Note Name: C6, Velocity: 75
Note OFF: Time 485280, Note Name: C6
Note ON: Time 485280, Note Name: A#5, Velocity: 71
Note OFF: Time 485520, Note Name: A#5
Note ON: Time 485520, Note Name: G#5, Velocity: 68
Note OFF: Time 485760, Note Name: G#5
Note ON: Time 485760, Note Name: F5, Velocity: 63
Note OFF: Time 486000, Note Name: F5
Note ON: Time 486000, Note Name: A#5, Velocity: 69
Note OFF: Time 486240, Note Name: A#5
Note ON: Time 486240, Note Name: G#5, Velocity: 64
Note OFF: Time 486480, Note Name: G#5
Note ON: Time 486480, Note Name: F#5, Velocity: 61
Note OFF: Time 486710, Note Name: F#5
Note ON: Time 486720, Note Name: F#5, Velocity: 55
Note OFF: Time 486780, Note Name: F#5
Note ON: Time 486780, Note Name: G#5, Velocity: 55
Note OFF: Time 486840, Note Name: G#5
Note ON: Time 486840, Note Name: F#5, Velocity: 63
Note OFF: Time 486960, Note Name: F#5
Note ON: Time 486960, Note Name: F5, Velocity: 58
Note OFF: Time 487320, Note Name: F5
Note ON: Time 487320, Note Name: E5, Velocity: 59
Note OFF: Time 487430, Note Name: E5
Note ON: Time 487440, Note Name: E5, Velocity: 59
Note OFF: Time 488160, Note Name: E5
Note ON: Time 488160, Note Name: F5, Velocity: 63
Note OFF: Time 488640, Note Name: F5
Note ON: Time 488640, Note Name: G#5, Velocity: 57
Note OFF: Time 488880, Note Name: G#5
Note ON: Time 488880, Note Name: G#4, Velocity: 57
Note ON: Time 488940, Note Name: G#5, Velocity: 57
Note OFF: Time 489360, Note Name: G#4
Note ON: Time 489360, Note Name: C5, Velocity: 63
Note OFF: Time 489600, Note Name: G#5
Note ON: Time 489600, Note Name: C6, Velocity: 63
Note OFF: Time 489840, Note Name: C6
Note OFF: Time 489840, Note Name: C5
Note ON: Time 489840, Note Name: A#4, Velocity: 63
Note ON: Time 489840, Note Name: A#5, Velocity: 63
Note OFF: Time 490200, Note Name: A#5
Note OFF: Time 490200, Note Name: A#4
Note ON: Time 490200, Note Name: G#4, Velocity: 63
Note ON: Time 490200, Note Name: G#5, Velocity: 63
Note OFF: Time 490310, Note Name: G#5
Note OFF: Time 490310, Note Name: G#4
Note ON: Time 490320, Note Name: G#4, Velocity: 63
Note ON: Time 490320, Note Name: G#5, Velocity: 63
Note OFF: Time 491040, Note Name: G#4
Note ON: Time 491040, Note Name: C#5, Velocity: 75
Note ON: Time 491040, Note Name: C#6, Velocity: 75
Note OFF: Time 491760, Note Name: C#6
Note OFF: Time 491760, Note Name: C#5
Note OFF: Time 491760, Note Name: G#5
Note ON: Time 491760, Note Name: F#5, Velocity: 60
Note ON: Time 491760, Note Name: G#5, Velocity: 60
Note ON: Time 491760, Note Name: C#5, Velocity: 75
Note ON: Time 491760, Note Name: C#6, Velocity: 75
Note OFF: Time 492120, Note Name: C#6
Note OFF: Time 492120, Note Name: C#5
Note ON: Time 492120, Note Name: D#5, Velocity: 71
Note ON: Time 492120, Note Name: C6, Velocity: 71
Note OFF: Time 492240, Note Name: C6
Note OFF: Time 492240, Note Name: F#5
Note OFF: Time 492240, Note Name: G#5
Note OFF: Time 492240, Note Name: D#5
Note ON: Time 492240, Note Name: G#5, Velocity: 60
Note ON: Time 492240, Note Name: F#5, Velocity: 60
Note ON: Time 492240, Note Name: C5, Velocity: 78
Note ON: Time 492240, Note Name: C6, Velocity: 78
Note OFF: Time 492480, Note Name: C6
Note OFF: Time 492480, Note Name: G#5
Note OFF: Time 492480, Note Name: F#5
Note OFF: Time 492480, Note Name: C5
Note ON: Time 492480, Note Name: G#5, Velocity: 60
Note ON: Time 492480, Note Name: F#5, Velocity: 60
Note ON: Time 492480, Note Name: C5, Velocity: 75
Note ON: Time 492480, Note Name: C6, Velocity: 75
Note OFF: Time 492840, Note Name: C6
Note OFF: Time 492840, Note Name: G#5
Note OFF: Time 492840, Note Name: F#5
Note OFF: Time 492840, Note Name: C5
Note ON: Time 492840, Note Name: A#4, Velocity: 71
Note ON: Time 492840, Note Name: A#5, Velocity: 71
Note OFF: Time 492960, Note Name: A#5
Note OFF: Time 492960, Note Name: A#4
Note ON: Time 492960, Note Name: F#5, Velocity: 60
Note ON: Time 492960, Note Name: G#4, Velocity: 63
Note ON: Time 492960, Note Name: G#5, Velocity: 63
Note OFF: Time 493200, Note Name: G#5
Note OFF: Time 493200, Note Name: G#4
Note OFF: Time 493200, Note Name: F#5
Note ON: Time 493200, Note Name: G#5, Velocity: 80
Note ON: Time 493200, Note Name: F5, Velocity: 68
Note ON: Time 493200, Note Name: F6, Velocity: 80
Note OFF: Time 493920, Note Name: F6
Note OFF: Time 493920, Note Name: F5
Note OFF: Time 493920, Note Name: G#5
Note ON: Time 493920, Note Name: F5, Velocity: 65
Note ON: Time 493920, Note Name: G#5, Velocity: 77
Note ON: Time 493920, Note Name: F6, Velocity: 77
Note OFF: Time 494400, Note Name: F6
Note OFF: Time 494400, Note Name: G#5
Note OFF: Time 494400, Note Name: F5
Note ON: Time 494400, Note Name: F5, Velocity: 66
Note ON: Time 494400, Note Name: G#5, Velocity: 78
Note ON: Time 494400, Note Name: F6, Velocity: 78
Note OFF: Time 494640, Note Name: F6
Note OFF: Time 494640, Note Name: G#5
Note OFF: Time 494640, Note Name: F5
Note ON: Time 494640, Note Name: F5, Velocity: 69
Note ON: Time 494640, Note Name: G#5, Velocity: 82
Note ON: Time 494640, Note Name: F6, Velocity: 82
Note OFF: Time 495360, Note Name: F6
Note OFF: Time 495360, Note Name: G#5
Note OFF: Time 495360, Note Name: F5
Note ON: Time 495360, Note Name: F#5, Velocity: 67
Note ON: Time 495360, Note Name: D#5, Velocity: 56
Note ON: Time 495360, Note Name: D#6, Velocity: 67
Note OFF: Time 495600, Note Name: D#6
Note OFF: Time 495600, Note Name: D#5
Note OFF: Time 495600, Note Name: F#5
Note ON: Time 495600, Note Name: C#5, Velocity: 55
Note ON: Time 495600, Note Name: F#5, Velocity: 65
Note ON: Time 495600, Note Name: C#6, Velocity: 65
Note OFF: Time 495960, Note Name: C#6
Note OFF: Time 495960, Note Name: F#5
Note OFF: Time 495960, Note Name: C#5
Note ON: Time 495960, Note Name: A#4, Velocity: 54
Note ON: Time 495960, Note Name: F#5, Velocity: 64
Note ON: Time 495960, Note Name: A#5, Velocity: 64
Note OFF: Time 496080, Note Name: A#5
Note OFF: Time 496080, Note Name: F#5
Note OFF: Time 496080, Note Name: A#4
Note ON: Time 496080, Note Name: C5, Velocity: 52
Note ON: Time 496080, Note Name: G#5, Velocity: 62
Note ON: Time 496080, Note Name: C6, Velocity: 62
Note OFF: Time 496800, Note Name: C6
Note OFF: Time 496800, Note Name: G#5
Note OFF: Time 496800, Note Name: C5
Note ON: Time 496800, Note Name: A#4, Velocity: 54
Note ON: Time 496800, Note Name: F#5, Velocity: 64
Note ON: Time 496800, Note Name: A#5, Velocity: 64
Note OFF: Time 497040, Note Name: A#5
Note OFF: Time 497040, Note Name: F#5
Note OFF: Time 497040, Note Name: A#4
Note ON: Time 497040, Note Name: G#4, Velocity: 57
Note ON: Time 497040, Note Name: F5, Velocity: 68
Note ON: Time 497040, Note Name: G#5, Velocity: 68
Note OFF: Time 497280, Note Name: G#5
Note OFF: Time 497280, Note Name: F5
Note OFF: Time 497280, Note Name: G#4
Note ON: Time 497280, Note Name: A#4, Velocity: 61
Note ON: Time 497280, Note Name: F5, Velocity: 72
Note ON: Time 497280, Note Name: A#5, Velocity: 72
Note OFF: Time 497520, Note Name: A#5
Note OFF: Time 497520, Note Name: F5
Note OFF: Time 497520, Note Name: A#4
Note ON: Time 497520, Note Name: F5, Velocity: 77
Note ON: Time 497520, Note Name: B4, Velocity: 65
Note ON: Time 497520, Note Name: B5, Velocity: 77
Note OFF: Time 498000, Note Name: B5
Note OFF: Time 498000, Note Name: B4
Note OFF: Time 498000, Note Name: F5
Note ON: Time 498000, Note Name: F5, Velocity: 75
Note ON: Time 498000, Note Name: A#4, Velocity: 63
Note ON: Time 498000, Note Name: A#5, Velocity: 75
Note OFF: Time 498240, Note Name: A#5
Note OFF: Time 498240, Note Name: A#4
Note OFF: Time 498240, Note Name: F5
Note ON: Time 498240, Note Name: B4, Velocity: 66
Note ON: Time 498240, Note Name: F5, Velocity: 78
Note ON: Time 498240, Note Name: B5, Velocity: 78
Note OFF: Time 499440, Note Name: B5
Note OFF: Time 499440, Note Name: F5
Note OFF: Time 499440, Note Name: B4
Note ON: Time 499440, Note Name: A#4, Velocity: 64
Note ON: Time 499440, Note Name: F5, Velocity: 76
Note ON: Time 499440, Note Name: A#5, Velocity: 76
Note OFF: Time 499680, Note Name: A#5
Note OFF: Time 499680, Note Name: F5
Note OFF: Time 499680, Note Name: A#4
Note ON: Time 499680, Note Name: B4, Velocity: 68
Note ON: Time 499680, Note Name: F5, Velocity: 81
Note ON: Time 499680, Note Name: B5, Velocity: 81
Note OFF: Time 499920, Note Name: B5
Note OFF: Time 499920, Note Name: F5
Note OFF: Time 499920, Note Name: B4
Note ON: Time 499920, Note Name: A#4, Velocity: 66
Note ON: Time 499920, Note Name: F5, Velocity: 78
Note ON: Time 499920, Note Name: A#5, Velocity: 78
Note OFF: Time 500160, Note Name: A#5
Note OFF: Time 500160, Note Name: F5
Note OFF: Time 500160, Note Name: A#4
Note ON: Time 500160, Note Name: B4, Velocity: 66
Note ON: Time 500160, Note Name: F5, Velocity: 78
Note ON: Time 500160, Note Name: B5, Velocity: 78
Note OFF: Time 500400, Note Name: B5
Note OFF: Time 500400, Note Name: F5
Note OFF: Time 500400, Note Name: B4
Note ON: Time 500400, Note Name: B4, Velocity: 68
Note ON: Time 500400, Note Name: F#5, Velocity: 81
Note ON: Time 500400, Note Name: B5, Velocity: 81
Note OFF: Time 500880, Note Name: B5
Note OFF: Time 500880, Note Name: F#5
Note OFF: Time 500880, Note Name: B4
Note ON: Time 500880, Note Name: A#4, Velocity: 69
Note ON: Time 500880, Note Name: F#5, Velocity: 82
Note ON: Time 500880, Note Name: A#5, Velocity: 82
Note OFF: Time 501120, Note Name: A#5
Note OFF: Time 501120, Note Name: F#5
Note OFF: Time 501120, Note Name: A#4
Note ON: Time 501120, Note Name: C#5, Velocity: 74
Note ON: Time 501120, Note Name: G5, Velocity: 88
Note ON: Time 501120, Note Name: C#6, Velocity: 88
Note OFF: Time 502320, Note Name: C#6
Note OFF: Time 502320, Note Name: G5
Note OFF: Time 502320, Note Name: C#5
Note ON: Time 502320, Note Name: C5, Velocity: 69
Note ON: Time 502320, Note Name: G5, Velocity: 82
Note ON: Time 502320, Note Name: C6, Velocity: 82
Note OFF: Time 502560, Note Name: C6
Note OFF: Time 502560, Note Name: G5
Note OFF: Time 502560, Note Name: C5
Note ON: Time 502560, Note Name: C#5, Velocity: 73
Note ON: Time 502560, Note Name: G5, Velocity: 86
Note ON: Time 502560, Note Name: C#6, Velocity: 86
Note OFF: Time 502800, Note Name: C#6
Note OFF: Time 502800, Note Name: G5
Note OFF: Time 502800, Note Name: C#5
Note ON: Time 502800, Note Name: C5, Velocity: 68
Note ON: Time 502800, Note Name: G5, Velocity: 81
Note ON: Time 502800, Note Name: C6, Velocity: 81
Note OFF: Time 503040, Note Name: C6
Note OFF: Time 503040, Note Name: G5
Note OFF: Time 503040, Note Name: C5
Note ON: Time 503040, Note Name: C#5, Velocity: 72
Note ON: Time 503040, Note Name: G5, Velocity: 85
Note ON: Time 503040, Note Name: C#6, Velocity: 85
Note OFF: Time 503280, Note Name: C#6
Note OFF: Time 503280, Note Name: G5
Note OFF: Time 503280, Note Name: C#5
Note ON: Time 503280, Note Name: C#5, Velocity: 74
Note ON: Time 503280, Note Name: G#5, Velocity: 88
Note ON: Time 503280, Note Name: C#6, Velocity: 88
Note OFF: Time 503760, Note Name: C#6
Note OFF: Time 503760, Note Name: G#5
Note OFF: Time 503760, Note Name: C#5
Note ON: Time 503760, Note Name: C5, Velocity: 77
Note ON: Time 503760, Note Name: G#5, Velocity: 91
Note ON: Time 503760, Note Name: C6, Velocity: 91
Note OFF: Time 504000, Note Name: C6
Note OFF: Time 504000, Note Name: G#5
Note OFF: Time 504000, Note Name: C5
Note ON: Time 504000, Note Name: A5, Velocity: 90
Note ON: Time 504000, Note Name: D#5, Velocity: 76
Note ON: Time 504000, Note Name: D#6, Velocity: 90
Note OFF: Time 504480, Note Name: D#6
Note OFF: Time 504480, Note Name: D#5
Note OFF: Time 504480, Note Name: A5
Note ON: Time 504480, Note Name: D#6, Velocity: 88
Note ON: Time 504480, Note Name: A5, Velocity: 88
Note ON: Time 504480, Note Name: D#5, Velocity: 74
Note OFF: Time 504720, Note Name: D#5
Note OFF: Time 504720, Note Name: A5
Note OFF: Time 504720, Note Name: D#6
Note ON: Time 504720, Note Name: D#6, Velocity: 92
Note ON: Time 504720, Note Name: G#5, Velocity: 92
Note ON: Time 504720, Note Name: D#5, Velocity: 78
Note OFF: Time 505200, Note Name: D#5
Note OFF: Time 505200, Note Name: G#5
Note OFF: Time 505200, Note Name: D#6
Note ON: Time 505200, Note Name: D6, Velocity: 88
Note ON: Time 505200, Note Name: G#5, Velocity: 88
Note ON: Time 505200, Note Name: D5, Velocity: 74
Note OFF: Time 505440, Note Name: D5
Note OFF: Time 505440, Note Name: G#5
Note OFF: Time 505440, Note Name: D6
Note ON: Time 505440, Note Name: F6, Velocity: 99
Note ON: Time 505440, Note Name: B5, Velocity: 99
Note ON: Time 505440, Note Name: F5, Velocity: 84
Note OFF: Time 505920, Note Name: F5
Note OFF: Time 505920, Note Name: B5
Note OFF: Time 505920, Note Name: F6
Note ON: Time 505920, Note Name: F6, Velocity: 95
Note ON: Time 505920, Note Name: B5, Velocity: 95
Note ON: Time 505920, Note Name: F5, Velocity: 80
Note OFF: Time 506160, Note Name: F5
Note OFF: Time 506160, Note Name: B5
Note OFF: Time 506160, Note Name: F6
Note ON: Time 506160, Note Name: F6, Velocity: 96
Note ON: Time 506160, Note Name: A#5, Velocity: 96
Note ON: Time 506160, Note Name: F5, Velocity: 81
Note OFF: Time 506640, Note Name: F5
Note OFF: Time 506640, Note Name: A#5
Note OFF: Time 506640, Note Name: F6
Note ON: Time 506640, Note Name: E6, Velocity: 96
Note ON: Time 506640, Note Name: A#5, Velocity: 96
Note ON: Time 506640, Note Name: E5, Velocity: 81
Note OFF: Time 506880, Note Name: E5
Note OFF: Time 506880, Note Name: A#5
Note OFF: Time 506880, Note Name: E6
Note ON: Time 506880, Note Name: G6, Velocity: 101
Note ON: Time 506880, Note Name: C#6, Velocity: 101
Note ON: Time 506880, Note Name: G5, Velocity: 85
Note OFF: Time 507360, Note Name: G5
Note OFF: Time 507360, Note Name: C#6
Note OFF: Time 507360, Note Name: G6
Note ON: Time 507360, Note Name: G6, Velocity: 98
Note ON: Time 507360, Note Name: C#6, Velocity: 98
Note ON: Time 507360, Note Name: G5, Velocity: 83
Note OFF: Time 507600, Note Name: G5
Note OFF: Time 507600, Note Name: C#6
Note OFF: Time 507600, Note Name: G6
Note ON: Time 507600, Note Name: G6, Velocity: 98
Note ON: Time 507600, Note Name: C6, Velocity: 98
Note ON: Time 507600, Note Name: G5, Velocity: 83
Note OFF: Time 508080, Note Name: G5
Note OFF: Time 508080, Note Name: C6
Note OFF: Time 508080, Note Name: G6
Note ON: Time 508080, Note Name: G#6, Velocity: 94
Note ON: Time 508080, Note Name: C6, Velocity: 94
Note ON: Time 508080, Note Name: G#5, Velocity: 79
Note OFF: Time 508320, Note Name: G#5
Note OFF: Time 508320, Note Name: C6
Note OFF: Time 508320, Note Name: G#6
Note ON: Time 508320, Note Name: A6, Velocity: 110
Note ON: Time 508320, Note Name: C6, Velocity: 110
Note ON: Time 508320, Note Name: A5, Velocity: 93
Note OFF: Time 508800, Note Name: A5
Note OFF: Time 508800, Note Name: C6
Note OFF: Time 508800, Note Name: A6
Note ON: Time 508800, Note Name: C6, Velocity: 94
Note ON: Time 508800, Note Name: F#5, Velocity: 94
Note ON: Time 508800, Note Name: C5, Velocity: 79
Note OFF: Time 509040, Note Name: C5
Note OFF: Time 509040, Note Name: F#5
Note OFF: Time 509040, Note Name: C6
Note ON: Time 509040, Note Name: C#6, Velocity: 109
Note ON: Time 509040, Note Name: F5, Velocity: 109
Note ON: Time 509040, Note Name: C#5, Velocity: 92
Note OFF: Time 509220, Note Name: C#5
Note OFF: Time 509220, Note Name: F5
Note OFF: Time 509220, Note Name: C#6
Note ON: Time 509760, Note Name: F4, Velocity: 97
Note OFF: Time 509880, Note Name: F4
Note ON: Time 509880, Note Name: C#5, Velocity: 75
Note OFF: Time 510000, Note Name: C#5
Note ON: Time 510000, Note Name: G#5, Velocity: 79
Note OFF: Time 510120, Note Name: G#5
Note ON: Time 510120, Note Name: F5, Velocity: 83
Note OFF: Time 510240, Note Name: F5
Note ON: Time 510240, Note Name: C#6, Velocity: 87
Note OFF: Time 510360, Note Name: C#6
Note ON: Time 510360, Note Name: A#6, Velocity: 91
Note OFF: Time 510480, Note Name: A#6
Note ON: Time 510480, Note Name: C6, Velocity: 96
Note ON: Time 510480, Note Name: G#6, Velocity: 96
Note OFF: Time 510720, Note Name: G#6
Note OFF: Time 510720, Note Name: C6
Note ON: Time 511200, Note Name: F#4, Velocity: 97
Note OFF: Time 511320, Note Name: F#4
Note ON: Time 511320, Note Name: C5, Velocity: 75
Note OFF: Time 511440, Note Name: C5
Note ON: Time 511440, Note Name: G#5, Velocity: 80
Note OFF: Time 511560, Note Name: G#5
Note ON: Time 511560, Note Name: F#5, Velocity: 84
Note OFF: Time 511680, Note Name: F#5
Note ON: Time 511680, Note Name: C6, Velocity: 88
Note OFF: Time 511800, Note Name: C6
Note ON: Time 511800, Note Name: G#6, Velocity: 93
Note OFF: Time 511920, Note Name: G#6
Note ON: Time 511920, Note Name: C#6, Velocity: 97
Note ON: Time 511920, Note Name: F6, Velocity: 97
Note OFF: Time 512160, Note Name: F6
Note OFF: Time 512160, Note Name: C#6
Note ON: Time 512640, Note Name: F4, Velocity: 97
Note OFF: Time 512760, Note Name: F4
Note ON: Time 512760, Note Name: C#5, Velocity: 75
Note OFF: Time 512880, Note Name: C#5
Note ON: Time 512880, Note Name: G#5, Velocity: 79
Note OFF: Time 513000, Note Name: G#5
Note ON: Time 513000, Note Name: F5, Velocity: 83
Note OFF: Time 513120, Note Name: F5
Note ON: Time 513120, Note Name: C#6, Velocity: 87
Note OFF: Time 513240, Note Name: C#6
Note ON: Time 513240, Note Name: A#6, Velocity: 91
Note OFF: Time 513360, Note Name: A#6
Note ON: Time 513360, Note Name: C6, Velocity: 96
Note ON: Time 513360, Note Name: G#6, Velocity: 96
Note OFF: Time 513600, Note Name: G#6
Note OFF: Time 513600, Note Name: C6
Note ON: Time 514080, Note Name: F#4, Velocity: 97
Note OFF: Time 514200, Note Name: F#4
Note ON: Time 514200, Note Name: C5, Velocity: 75
Note OFF: Time 514320, Note Name: C5
Note ON: Time 514320, Note Name: G#5, Velocity: 80
Note OFF: Time 514440, Note Name: G#5
Note ON: Time 514440, Note Name: F#5, Velocity: 84
Note OFF: Time 514560, Note Name: F#5
Note ON: Time 514560, Note Name: C6, Velocity: 88
Note OFF: Time 514680, Note Name: C6
Note ON: Time 514680, Note Name: G#6, Velocity: 93
Note OFF: Time 514740, Note Name: G#6
Note ON: Time 514740, Note Name: C#6, Velocity: 100
Note OFF: Time 514800, Note Name: C#6
Note ON: Time 514800, Note Name: C#7, Velocity: 113
Note OFF: Time 515040, Note Name: C#7
Note ON: Time 515040, Note Name: B6, Velocity: 111
Note OFF: Time 515160, Note Name: B6
Note ON: Time 515160, Note Name: A6, Velocity: 103
Note OFF: Time 515280, Note Name: A6
Note ON: Time 515280, Note Name: E6, Velocity: 107
Note OFF: Time 515400, Note Name: E6
Note ON: Time 515400, Note Name: C#6, Velocity: 98
Note OFF: Time 515520, Note Name: C#6
Note ON: Time 515520, Note Name: B5, Velocity: 102
Note OFF: Time 515640, Note Name: B5
Note ON: Time 515640, Note Name: A5, Velocity: 94
Note OFF: Time 515760, Note Name: A5
Note ON: Time 515760, Note Name: E5, Velocity: 98
Note OFF: Time 515880, Note Name: E5
Note ON: Time 515880, Note Name: C#5, Velocity: 91
Note OFF: Time 516000, Note Name: C#5
Note ON: Time 516000, Note Name: B4, Velocity: 94
Note OFF: Time 516120, Note Name: B4
Note ON: Time 516120, Note Name: A4, Velocity: 85
Note OFF: Time 516240, Note Name: A4
Note ON: Time 516240, Note Name: E4, Velocity: 90
Note OFF: Time 516360, Note Name: E4
Note ON: Time 516360, Note Name: C#4, Velocity: 82
Note OFF: Time 516480, Note Name: C#4
Note ON: Time 516480, Note Name: B3, Velocity: 85
Note OFF: Time 516600, Note Name: B3
Note ON: Time 516600, Note Name: A3, Velocity: 77
Note OFF: Time 516720, Note Name: A3
Note ON: Time 516720, Note Name: E3, Velocity: 81
Note OFF: Time 516960, Note Name: E3
Note ON: Time 516960, Note Name: F3, Velocity: 93
Note ON: Time 516960, Note Name: F4, Velocity: 93
Note OFF: Time 517440, Note Name: F4
Note OFF: Time 517440, Note Name: F3
Note ON: Time 517440, Note Name: E3, Velocity: 87
Note ON: Time 517440, Note Name: E4, Velocity: 87
Note OFF: Time 517620, Note Name: E4
Note OFF: Time 517620, Note Name: E3
Note ON: Time 517620, Note Name: C#6, Velocity: 100
Note OFF: Time 517680, Note Name: C#6
Note ON: Time 517680, Note Name: C#7, Velocity: 113
Note OFF: Time 517920, Note Name: C#7
Note ON: Time 517920, Note Name: B6, Velocity: 111
Note OFF: Time 518040, Note Name: B6
Note ON: Time 518040, Note Name: A6, Velocity: 103
Note OFF: Time 518160, Note Name: A6
Note ON: Time 518160, Note Name: E6, Velocity: 107
Note OFF: Time 518280, Note Name: E6
Note ON: Time 518280, Note Name: C#6, Velocity: 98
Note OFF: Time 518400, Note Name: C#6
Note ON: Time 518400, Note Name: B5, Velocity: 102
Note OFF: Time 518520, Note Name: B5
Note ON: Time 518520, Note Name: A5, Velocity: 96
Note OFF: Time 518640, Note Name: A5
Note ON: Time 518640, Note Name: E5, Velocity: 98
Note OFF: Time 518760, Note Name: E5
Note ON: Time 518760, Note Name: C#5, Velocity: 91
Note OFF: Time 518880, Note Name: C#5
Note ON: Time 518880, Note Name: B4, Velocity: 94
Note OFF: Time 519000, Note Name: B4
Note ON: Time 519000, Note Name: A4, Velocity: 87
Note OFF: Time 519120, Note Name: A4
Note ON: Time 519120, Note Name: E4, Velocity: 90
Note OFF: Time 519240, Note Name: E4
Note ON: Time 519240, Note Name: C#4, Velocity: 82
Note OFF: Time 519360, Note Name: C#4
Note ON: Time 519360, Note Name: B3, Velocity: 85
Note OFF: Time 519480, Note Name: B3
Note ON: Time 519480, Note Name: A3, Velocity: 78
Note OFF: Time 519600, Note Name: A3
Note ON: Time 519600, Note Name: E3, Velocity: 81
Note OFF: Time 519840, Note Name: E3
Note ON: Time 519840, Note Name: F3, Velocity: 93
Note ON: Time 519840, Note Name: F4, Velocity: 93
Note OFF: Time 520320, Note Name: F4
Note OFF: Time 520320, Note Name: F3
Note ON: Time 520320, Note Name: E3, Velocity: 87
Note ON: Time 520320, Note Name: E4, Velocity: 87
Note OFF: Time 520560, Note Name: E4
Note OFF: Time 520560, Note Name: E3
Note ON: Time 520560, Note Name: F3, Velocity: 87
Note ON: Time 520560, Note Name: F4, Velocity: 87
Note OFF: Time 520740, Note Name: F4
Note OFF: Time 520740, Note Name: F3
Note ON: Time 520800, Note Name: F3, Velocity: 43
Note OFF: Time 520920, Note Name: F3
Note ON: Time 520920, Note Name: A3, Velocity: 45
Note OFF: Time 521040, Note Name: A3
Note ON: Time 521040, Note Name: C#4, Velocity: 46
Note OFF: Time 521160, Note Name: C#4
Note ON: Time 521160, Note Name: F4, Velocity: 48
Note OFF: Time 521280, Note Name: F4
Note ON: Time 521280, Note Name: C#5, Velocity: 54
Note ON: Time 521280, Note Name: F5, Velocity: 54
Note OFF: Time 521520, Note Name: F5
Note OFF: Time 521520, Note Name: C#5
Note ON: Time 521520, Note Name: F3, Velocity: 43
Note OFF: Time 521640, Note Name: F3
Note ON: Time 521640, Note Name: A3, Velocity: 44
Note OFF: Time 521760, Note Name: A3
Note ON: Time 521760, Note Name: C#4, Velocity: 45
Note OFF: Time 521880, Note Name: C#4
Note ON: Time 521880, Note Name: F4, Velocity: 46
Note OFF: Time 522000, Note Name: F4
Note ON: Time 522000, Note Name: C#5, Velocity: 54
Note ON: Time 522000, Note Name: F5, Velocity: 54
Note OFF: Time 522240, Note Name: F5
Note OFF: Time 522240, Note Name: C#5
Note ON: Time 522240, Note Name: F3, Velocity: 46
Note OFF: Time 522360, Note Name: F3
Note ON: Time 522360, Note Name: A#3, Velocity: 46
Note OFF: Time 522480, Note Name: A#3
Note ON: Time 522480, Note Name: C#4, Velocity: 47
Note OFF: Time 522600, Note Name: C#4
Note ON: Time 522600, Note Name: F4, Velocity: 47
Note OFF: Time 522720, Note Name: F4
Note ON: Time 522720, Note Name: C#5, Velocity: 54
Note ON: Time 522720, Note Name: F5, Velocity: 54
Note OFF: Time 522960, Note Name: F5
Note OFF: Time 522960, Note Name: C#5
Note ON: Time 522960, Note Name: F3, Velocity: 45
Note OFF: Time 523080, Note Name: F3
Note ON: Time 523080, Note Name: A#3, Velocity: 46
Note OFF: Time 523200, Note Name: A#3
Note ON: Time 523200, Note Name: D4, Velocity: 47
Note OFF: Time 523320, Note Name: D4
Note ON: Time 523320, Note Name: F4, Velocity: 49
Note OFF: Time 523440, Note Name: F4
Note ON: Time 523440, Note Name: D5, Velocity: 55
Note ON: Time 523440, Note Name: F5, Velocity: 55
Note OFF: Time 523680, Note Name: F5
Note OFF: Time 523680, Note Name: D5
Note ON: Time 523680, Note Name: F#3, Velocity: 46
Note OFF: Time 523800, Note Name: F#3
Note ON: Time 523800, Note Name: A#3, Velocity: 47
Note OFF: Time 523920, Note Name: A#3
Note ON: Time 523920, Note Name: D4, Velocity: 48
Note OFF: Time 524040, Note Name: D4
Note ON: Time 524040, Note Name: F#4, Velocity: 49
Note OFF: Time 524160, Note Name: F#4
Note ON: Time 524160, Note Name: D5, Velocity: 57
Note ON: Time 524160, Note Name: F#5, Velocity: 57
Note OFF: Time 524400, Note Name: F#5
Note OFF: Time 524400, Note Name: D5
Note ON: Time 524400, Note Name: F#3, Velocity: 47
Note OFF: Time 524520, Note Name: F#3
Note ON: Time 524520, Note Name: A#3, Velocity: 48
Note OFF: Time 524640, Note Name: A#3
Note ON: Time 524640, Note Name: D#4, Velocity: 49
Note OFF: Time 524760, Note Name: D#4
Note ON: Time 524760, Note Name: F#4, Velocity: 51
Note OFF: Time 524880, Note Name: F#4
Note ON: Time 524880, Note Name: D#5, Velocity: 57
Note ON: Time 524880, Note Name: F#5, Velocity: 57
Note OFF: Time 525120, Note Name: F#5
Note OFF: Time 525120, Note Name: D#5
Note ON: Time 525120, Note Name: G3, Velocity: 47
Note OFF: Time 525240, Note Name: G3
Note ON: Time 525240, Note Name: C#4, Velocity: 48
Note OFF: Time 525360, Note Name: C#4
Note ON: Time 525360, Note Name: E4, Velocity: 50
Note OFF: Time 525480, Note Name: E4
Note ON: Time 525480, Note Name: G4, Velocity: 51
Note OFF: Time 525600, Note Name: G4
Note ON: Time 525600, Note Name: E5, Velocity: 60
Note ON: Time 525600, Note Name: G5, Velocity: 60
Note OFF: Time 525840, Note Name: G5
Note OFF: Time 525840, Note Name: E5
Note ON: Time 525840, Note Name: G#4, Velocity: 56
Note OFF: Time 525960, Note Name: G#4
Note ON: Time 525960, Note Name: C#5, Velocity: 60
Note OFF: Time 526080, Note Name: C#5
Note ON: Time 526080, Note Name: F5, Velocity: 63
Note OFF: Time 526200, Note Name: F5
Note ON: Time 526200, Note Name: G#5, Velocity: 67
Note ON: Time 526320, Note Name: G#6, Velocity: 77
Note ON: Time 526320, Note Name: F6, Velocity: 77
Note ON: Time 526320, Note Name: C#6, Velocity: 77
Note OFF: Time 526560, Note Name: C#6
Note OFF: Time 526560, Note Name: G#5
Note OFF: Time 526560, Note Name: G#6
Note OFF: Time 526560, Note Name: F6
Note ON: Time 526800, Note Name: C4, Velocity: 63
Note OFF: Time 526880, Note Name: C4
Note ON: Time 526880, Note Name: C#4, Velocity: 64
Note OFF: Time 526960, Note Name: C#4
Note ON: Time 526960, Note Name: F4, Velocity: 66
Note OFF: Time 527040, Note Name: F4
Note ON: Time 527040, Note Name: G#4, Velocity: 68
Note OFF: Time 527280, Note Name: G#4
Note ON: Time 527520, Note Name: B3, Velocity: 62
Note OFF: Time 527600, Note Name: B3
Note ON: Time 527600, Note Name: C4, Velocity: 63
Note OFF: Time 527680, Note Name: C4
Note ON: Time 527680, Note Name: F4, Velocity: 65
Note OFF: Time 527760, Note Name: F4
Note ON: Time 527760, Note Name: G#4, Velocity: 67
Note OFF: Time 528000, Note Name: G#4
Note ON: Time 528240, Note Name: A3, Velocity: 62
Note OFF: Time 528320, Note Name: A3
Note ON: Time 528320, Note Name: A#3, Velocity: 64
Note OFF: Time 528400, Note Name: A#3
Note ON: Time 528400, Note Name: F4, Velocity: 66
Note OFF: Time 528480, Note Name: F4
Note ON: Time 528480, Note Name: G#4, Velocity: 68
Note OFF: Time 528720, Note Name: G#4
Note ON: Time 529200, Note Name: G#3, Velocity: 86
Note OFF: Time 529440, Note Name: G#3
Note ON: Time 529920, Note Name: G#6, Velocity: 90
Note ON: Time 529920, Note Name: F6, Velocity: 90
Note ON: Time 529920, Note Name: G#5, Velocity: 90
Note OFF: Time 530880, Note Name: G#5
Note OFF: Time 530880, Note Name: F6
Note OFF: Time 530880, Note Name: G#6
Note ON: Time 530880, Note Name: G#5, Velocity: 77
Note ON: Time 530880, Note Name: D#6, Velocity: 77
Note ON: Time 530880, Note Name: G#6, Velocity: 77
Note OFF: Time 531120, Note Name: G#6
Note OFF: Time 531120, Note Name: D#6
Note OFF: Time 531120, Note Name: G#5
Note ON: Time 531120, Note Name: G#5, Velocity: 77
Note ON: Time 531120, Note Name: F6, Velocity: 77
Note ON: Time 531120, Note Name: G#6, Velocity: 77
Note OFF: Time 531360, Note Name: G#6
Note OFF: Time 531360, Note Name: F6
Note OFF: Time 531360, Note Name: G#5
Note ON: Time 531360, Note Name: G#5, Velocity: 75
Note ON: Time 531360, Note Name: D#6, Velocity: 75
Note ON: Time 531360, Note Name: G#6, Velocity: 75
Note OFF: Time 531600, Note Name: G#6
Note OFF: Time 531600, Note Name: D#6
Note OFF: Time 531600, Note Name: G#5
Note ON: Time 531600, Note Name: G#5, Velocity: 80
Note ON: Time 531600, Note Name: F6, Velocity: 80
Note ON: Time 531600, Note Name: G#6, Velocity: 80
Note OFF: Time 531840, Note Name: G#6
Note OFF: Time 531840, Note Name: F6
Note OFF: Time 531840, Note Name: G#5
Note ON: Time 531840, Note Name: G#5, Velocity: 79
Note ON: Time 531840, Note Name: G#6, Velocity: 79
Note ON: Time 531840, Note Name: D#6, Velocity: 79
Note OFF: Time 532080, Note Name: D#6
Note OFF: Time 532080, Note Name: G#6
Note OFF: Time 532080, Note Name: G#5
Note ON: Time 532080, Note Name: G#6, Velocity: 90
Note ON: Time 532080, Note Name: F6, Velocity: 90
Note ON: Time 532080, Note Name: C#6, Velocity: 90
Note ON: Time 532080, Note Name: G#5, Velocity: 90
Note OFF: Time 532260, Note Name: G#5
Note OFF: Time 532260, Note Name: G#6
Note OFF: Time 532260, Note Name: F6
Note OFF: Time 532260, Note Name: C#6
Note ON: Time 532560, Note Name: C4, Velocity: 63
Note OFF: Time 532640, Note Name: C4
Note ON: Time 532640, Note Name: C#4, Velocity: 64
Note OFF: Time 532720, Note Name: C#4
Note ON: Time 532720, Note Name: F4, Velocity: 66
Note OFF: Time 532800, Note Name: F4
Note ON: Time 532800, Note Name: G#4, Velocity: 68
Note OFF: Time 533040, Note Name: G#4
Note ON: Time 533280, Note Name: B3, Velocity: 62
Note OFF: Time 533360, Note Name: B3
Note ON: Time 533360, Note Name: C4, Velocity: 63
Note OFF: Time 533440, Note Name: C4
Note ON: Time 533440, Note Name: F4, Velocity: 65
Note OFF: Time 533520, Note Name: F4
Note ON: Time 533520, Note Name: G#4, Velocity: 67
Note OFF: Time 533760, Note Name: G#4
Note ON: Time 534000, Note Name: A3, Velocity: 62
Note OFF: Time 534080, Note Name: A3
Note ON: Time 534080, Note Name: A#3, Velocity: 64
Note OFF: Time 534160, Note Name: A#3
Note ON: Time 534160, Note Name: F4, Velocity: 66
Note OFF: Time 534240, Note Name: F4
Note ON: Time 534240, Note Name: G#4, Velocity: 68
Note OFF: Time 534480, Note Name: G#4
Note ON: Time 534960, Note Name: G#3, Velocity: 86
Note OFF: Time 535200, Note Name: G#3
Note ON: Time 535680, Note Name: G#6, Velocity: 90
Note ON: Time 535680, Note Name: F6, Velocity: 90
Note ON: Time 535680, Note Name: G#5, Velocity: 90
Note OFF: Time 536640, Note Name: G#5
Note OFF: Time 536640, Note Name: F6
Note OFF: Time 536640, Note Name: G#6
Note ON: Time 536640, Note Name: G#5, Velocity: 74
Note ON: Time 536640, Note Name: D#6, Velocity: 74
Note ON: Time 536640, Note Name: G#6, Velocity: 74
Note OFF: Time 536880, Note Name: G#6
Note OFF: Time 536880, Note Name: D#6
Note OFF: Time 536880, Note Name: G#5
Note ON: Time 536880, Note Name: G#5, Velocity: 71
Note ON: Time 536880, Note Name: F6, Velocity: 71
Note ON: Time 536880, Note Name: G#6, Velocity: 71
Note OFF: Time 537120, Note Name: G#6
Note OFF: Time 537120, Note Name: F6
Note OFF: Time 537120, Note Name: G#5
Note ON: Time 537120, Note Name: G#5, Velocity: 68
Note ON: Time 537120, Note Name: D#6, Velocity: 68
Note ON: Time 537120, Note Name: G#6, Velocity: 68
Note OFF: Time 537360, Note Name: G#6
Note OFF: Time 537360, Note Name: D#6
Note OFF: Time 537360, Note Name: G#5
Note ON: Time 537360, Note Name: G#5, Velocity: 66
Note ON: Time 537360, Note Name: F6, Velocity: 66
Note ON: Time 537360, Note Name: G#6, Velocity: 66
Note OFF: Time 537600, Note Name: G#6
Note OFF: Time 537600, Note Name: F6
Note OFF: Time 537600, Note Name: G#5
Note ON: Time 537600, Note Name: G#5, Velocity: 63
Note ON: Time 537600, Note Name: G#6, Velocity: 63
Note ON: Time 537600, Note Name: D#6, Velocity: 63
Note OFF: Time 537840, Note Name: D#6
Note OFF: Time 537840, Note Name: G#6
Note OFF: Time 537840, Note Name: G#5
Note ON: Time 537840, Note Name: F6, Velocity: 59
Note ON: Time 537840, Note Name: G#6, Velocity: 59
Note ON: Time 537840, Note Name: G#5, Velocity: 59
Note OFF: Time 538320, Note Name: F6
Note ON: Time 538320, Note Name: D#6, Velocity: 59
Note OFF: Time 538560, Note Name: D#6
Note OFF: Time 538560, Note Name: G#5
Note OFF: Time 538560, Note Name: G#6
Note ON: Time 538560, Note Name: F6, Velocity: 58
Note ON: Time 538560, Note Name: A6, Velocity: 58
Note ON: Time 538560, Note Name: A5, Velocity: 58
Note OFF: Time 539040, Note Name: F6
Note ON: Time 539040, Note Name: D#6, Velocity: 58
Note OFF: Time 539280, Note Name: D#6
Note OFF: Time 539280, Note Name: A5
Note OFF: Time 539280, Note Name: A6
Note ON: Time 539280, Note Name: F6, Velocity: 60
Note ON: Time 539280, Note Name: A5, Velocity: 60
Note ON: Time 539280, Note Name: A6, Velocity: 60
Note OFF: Time 539760, Note Name: F6
Note ON: Time 539760, Note Name: D#6, Velocity: 58
Note OFF: Time 540000, Note Name: D#6
Note OFF: Time 540000, Note Name: A6
Note OFF: Time 540000, Note Name: A5
Note ON: Time 540000, Note Name: F#6, Velocity: 62
Note ON: Time 540000, Note Name: A#5, Velocity: 62
Note ON: Time 540000, Note Name: A#6, Velocity: 62
Note OFF: Time 540480, Note Name: F#6
Note ON: Time 540480, Note Name: E6, Velocity: 63
Note OFF: Time 540720, Note Name: E6
Note OFF: Time 540720, Note Name: A#6
Note OFF: Time 540720, Note Name: A#5
Note ON: Time 540720, Note Name: F#6, Velocity: 64
Note ON: Time 540720, Note Name: A#5, Velocity: 64
Note ON: Time 540720, Note Name: A#6, Velocity: 64
Note OFF: Time 541200, Note Name: F#6
Note ON: Time 541200, Note Name: E6, Velocity: 70
Note OFF: Time 541440, Note Name: E6
Note OFF: Time 541440, Note Name: A#6
Note OFF: Time 541440, Note Name: A#5
Note ON: Time 541440, Note Name: G6, Velocity: 74
Note ON: Time 541440, Note Name: B5, Velocity: 74
Note ON: Time 541440, Note Name: B6, Velocity: 74
Note OFF: Time 541920, Note Name: G6
Note ON: Time 541920, Note Name: F6, Velocity: 73
Note OFF: Time 542160, Note Name: F6
Note OFF: Time 542160, Note Name: B6
Note OFF: Time 542160, Note Name: B5
Note ON: Time 542160, Note Name: G6, Velocity: 78
Note ON: Time 542160, Note Name: B5, Velocity: 78
Note ON: Time 542160, Note Name: B6, Velocity: 78
Note OFF: Time 542640, Note Name: G6
Note ON: Time 542640, Note Name: F6, Velocity: 78
Note OFF: Time 542880, Note Name: F6
Note OFF: Time 542880, Note Name: B6
Note OFF: Time 542880, Note Name: B5
Note ON: Time 542880, Note Name: G#6, Velocity: 84
Note ON: Time 542880, Note Name: C7, Velocity: 84
Note ON: Time 542880, Note Name: C6, Velocity: 84
Note OFF: Time 543360, Note Name: G#6
Note ON: Time 543360, Note Name: F#6, Velocity: 86
Note OFF: Time 543600, Note Name: F#6
Note OFF: Time 543600, Note Name: C6
Note OFF: Time 543600, Note Name: C7
Note ON: Time 543600, Note Name: F7, Velocity: 101
Note OFF: Time 543840, Note Name: F7
Note ON: Time 543840, Note Name: D#7, Velocity: 100
Note OFF: Time 543960, Note Name: D#7
Note ON: Time 543960, Note Name: C#7, Velocity: 96
Note OFF: Time 544080, Note Name: C#7
Note ON: Time 544080, Note Name: G#6, Velocity: 98
Note OFF: Time 544200, Note Name: G#6
Note ON: Time 544200, Note Name: F6, Velocity: 93
Note OFF: Time 544320, Note Name: F6
Note ON: Time 544320, Note Name: D#6, Velocity: 95
Note OFF: Time 544440, Note Name: D#6
Note ON: Time 544440, Note Name: C#6, Velocity: 89
Note OFF: Time 544560, Note Name: C#6
Note ON: Time 544560, Note Name: G#5, Velocity: 92
Note OFF: Time 544680, Note Name: G#5
Note ON: Time 544680, Note Name: F5, Velocity: 86
Note OFF: Time 544800, Note Name: F5
Note ON: Time 544800, Note Name: D#5, Velocity: 89
Note OFF: Time 544920, Note Name: D#5
Note ON: Time 544920, Note Name: C#5, Velocity: 83
Note OFF: Time 545040, Note Name: C#5
Note ON: Time 545040, Note Name: G#4, Velocity: 86
Note OFF: Time 545160, Note Name: G#4
Note ON: Time 545160, Note Name: F4, Velocity: 81
Note OFF: Time 545280, Note Name: F4
Note ON: Time 545280, Note Name: D#4, Velocity: 83
Note OFF: Time 545400, Note Name: D#4
Note ON: Time 545400, Note Name: C#4, Velocity: 79
Note OFF: Time 545520, Note Name: C#4
Note ON: Time 545520, Note Name: G#3, Velocity: 80
Note OFF: Time 545760, Note Name: G#3
Note ON: Time 545760, Note Name: F4, Velocity: 64
Note ON: Time 545760, Note Name: A3, Velocity: 88
Note ON: Time 545760, Note Name: A4, Velocity: 88
Note OFF: Time 546240, Note Name: A4
Note OFF: Time 546240, Note Name: A3
Note ON: Time 546240, Note Name: G#3, Velocity: 83
Note ON: Time 546240, Note Name: G#4, Velocity: 83
Note OFF: Time 546480, Note Name: G#4
Note OFF: Time 546480, Note Name: G#3
Note OFF: Time 546480, Note Name: F4
Note ON: Time 546480, Note Name: F7, Velocity: 100
Note OFF: Time 546720, Note Name: F7
Note ON: Time 546720, Note Name: D#7, Velocity: 99
Note OFF: Time 546840, Note Name: D#7
Note ON: Time 546840, Note Name: C#7, Velocity: 92
Note OFF: Time 546960, Note Name: C#7
Note ON: Time 546960, Note Name: G#6, Velocity: 96
Note OFF: Time 547080, Note Name: G#6
Note ON: Time 547080, Note Name: F6, Velocity: 91
Note OFF: Time 547200, Note Name: F6
Note ON: Time 547200, Note Name: D#6, Velocity: 93
Note OFF: Time 547320, Note Name: D#6
Note ON: Time 547320, Note Name: C#6, Velocity: 88
Note OFF: Time 547440, Note Name: C#6
Note ON: Time 547440, Note Name: G#5, Velocity: 90
Note OFF: Time 547560, Note Name: G#5
Note ON: Time 547560, Note Name: F5, Velocity: 86
Note OFF: Time 547680, Note Name: F5
Note ON: Time 547680, Note Name: D#5, Velocity: 87
Note OFF: Time 547800, Note Name: D#5
Note ON: Time 547800, Note Name: C#5, Velocity: 81
Note OFF: Time 547920, Note Name: C#5
Note ON: Time 547920, Note Name: G#4, Velocity: 84
Note OFF: Time 548040, Note Name: G#4
Note ON: Time 548040, Note Name: F4, Velocity: 79
Note OFF: Time 548160, Note Name: F4
Note ON: Time 548160, Note Name: D#4, Velocity: 82
Note OFF: Time 548280, Note Name: D#4
Note ON: Time 548280, Note Name: C#4, Velocity: 76
Note OFF: Time 548400, Note Name: C#4
Note ON: Time 548400, Note Name: G#3, Velocity: 79
Note OFF: Time 548640, Note Name: G#3
Note ON: Time 548640, Note Name: F4, Velocity: 82
Note ON: Time 548640, Note Name: A3, Velocity: 82
Note ON: Time 548640, Note Name: A4, Velocity: 82
Note OFF: Time 549120, Note Name: A4
Note OFF: Time 549120, Note Name: A3
Note ON: Time 549120, Note Name: G#3, Velocity: 77
Note ON: Time 549120, Note Name: G#4, Velocity: 77
Note OFF: Time 549360, Note Name: G#4
Note OFF: Time 549360, Note Name: G#3
Note OFF: Time 549360, Note Name: F4
Note ON: Time 549360, Note Name: G#3, Velocity: 70
Note ON: Time 549360, Note Name: F4, Velocity: 70
Note ON: Time 549360, Note Name: G#4, Velocity: 70
Note OFF: Time 549600, Note Name: G#4
Note OFF: Time 549600, Note Name: F4
Note OFF: Time 549600, Note Name: G#3
Note ON: Time 550080, Note Name: A3, Velocity: 82
Note ON: Time 550080, Note Name: A4, Velocity: 82
Note OFF: Time 550560, Note Name: A4
Note OFF: Time 550560, Note Name: A3
Note ON: Time 550560, Note Name: G#3, Velocity: 77
Note ON: Time 550560, Note Name: G#4, Velocity: 77
Note OFF: Time 550800, Note Name: G#4
Note OFF: Time 550800, Note Name: G#3
Note ON: Time 550800, Note Name: G#3, Velocity: 71
Note ON: Time 550800, Note Name: F4, Velocity: 71
Note ON: Time 550800, Note Name: G#4, Velocity: 71
Note OFF: Time 551040, Note Name: G#4
Note OFF: Time 551040, Note Name: F4
Note OFF: Time 551040, Note Name: G#3
Note ON: Time 551520, Note Name: A3, Velocity: 83
Note ON: Time 551520, Note Name: A4, Velocity: 83
Note OFF: Time 552000, Note Name: A4
Note OFF: Time 552000, Note Name: A3
Note ON: Time 552000, Note Name: G#3, Velocity: 77
Note ON: Time 552000, Note Name: G#4, Velocity: 77
Note OFF: Time 552240, Note Name: G#4
Note OFF: Time 552240, Note Name: G#3
Note ON: Time 552240, Note Name: G#3, Velocity: 74
Note ON: Time 552240, Note Name: F4, Velocity: 74
Note ON: Time 552240, Note Name: G#4, Velocity: 74
Note OFF: Time 552480, Note Name: G#4
Note OFF: Time 552480, Note Name: F4
Note OFF: Time 552480, Note Name: G#3
Note ON: Time 552960, Note Name: A3, Velocity: 86
Note ON: Time 552960, Note Name: A4, Velocity: 86
Note OFF: Time 553440, Note Name: A4
Note OFF: Time 553440, Note Name: A3
Note ON: Time 553440, Note Name: G#3, Velocity: 81
Note ON: Time 553440, Note Name: G#4, Velocity: 81
Note OFF: Time 553680, Note Name: G#4
Note OFF: Time 553680, Note Name: G#3
Note ON: Time 553680, Note Name: A3, Velocity: 71
Note ON: Time 553680, Note Name: F4, Velocity: 71
Note ON: Time 553680, Note Name: A4, Velocity: 71
Note OFF: Time 553860, Note Name: A4
Note OFF: Time 553860, Note Name: F4
Note OFF: Time 553860, Note Name: A3
Note ON: Time 553920, Note Name: G#3, Velocity: 73
Note ON: Time 553920, Note Name: F4, Velocity: 73
Note ON: Time 553920, Note Name: G#4, Velocity: 73
Note OFF: Time 554100, Note Name: G#4
Note OFF: Time 554100, Note Name: F4
Note OFF: Time 554100, Note Name: G#3
Note ON: Time 554160, Note Name: A3, Velocity: 74
Note ON: Time 554160, Note Name: F4, Velocity: 74
Note ON: Time 554160, Note Name: A4, Velocity: 74
Note OFF: Time 554340, Note Name: A4
Note OFF: Time 554340, Note Name: F4
Note OFF: Time 554340, Note Name: A3
Note ON: Time 554400, Note Name: G#3, Velocity: 76
Note ON: Time 554400, Note Name: F4, Velocity: 76
Note ON: Time 554400, Note Name: G#4, Velocity: 76
Note OFF: Time 554580, Note Name: G#4
Note OFF: Time 554580, Note Name: F4
Note OFF: Time 554580, Note Name: G#3
Note ON: Time 554640, Note Name: A3, Velocity: 77
Note ON: Time 554640, Note Name: F4, Velocity: 77
Note ON: Time 554640, Note Name: A4, Velocity: 77
Note OFF: Time 554820, Note Name: A4
Note OFF: Time 554820, Note Name: F4
Note OFF: Time 554820, Note Name: A3
Note ON: Time 554880, Note Name: G#3, Velocity: 79
Note ON: Time 554880, Note Name: F4, Velocity: 79
Note ON: Time 554880, Note Name: G#4, Velocity: 79
Note OFF: Time 555060, Note Name: G#4
Note OFF: Time 555060, Note Name: F4
Note OFF: Time 555060, Note Name: G#3
Note ON: Time 555120, Note Name: A3, Velocity: 89
Note ON: Time 555120, Note Name: F4, Velocity: 89
Note ON: Time 555120, Note Name: A4, Velocity: 89
Note OFF: Time 555300, Note Name: A4
Note OFF: Time 555300, Note Name: F4
Note OFF: Time 555300, Note Name: A3
Note ON: Time 555840, Note Name: C4, Velocity: 85
Note ON: Time 555840, Note Name: E4, Velocity: 85
Note ON: Time 555840, Note Name: A#4, Velocity: 100
Note ON: Time 555840, Note Name: C5, Velocity: 100
Note OFF: Time 556080, Note Name: C5
Note OFF: Time 556080, Note Name: C4
Note OFF: Time 556080, Note Name: E4
Note OFF: Time 556080, Note Name: A#4
Note ON: Time 556560, Note Name: A4, Velocity: 85
Note ON: Time 556560, Note Name: C5, Velocity: 100
Note ON: Time 556560, Note Name: A5, Velocity: 100
Note ON: Time 556560, Note Name: F5, Velocity: 100
Note OFF: Time 556800, Note Name: F5
Note OFF: Time 556800, Note Name: A4
Note OFF: Time 556800, Note Name: C5
Note OFF: Time 556800, Note Name: A5
Note ON: Time 557280, Note Name: F#4, Velocity: 85
Note ON: Time 557280, Note Name: G#4, Velocity: 85
Note ON: Time 557280, Note Name: C5, Velocity: 100
Note ON: Time 557280, Note Name: D#5, Velocity: 100
Note ON: Time 557280, Note Name: F#5, Velocity: 100
Note ON: Time 557280, Note Name: G#5, Velocity: 100
Note OFF: Time 557520, Note Name: G#5
Note OFF: Time 557520, Note Name: G#4
Note OFF: Time 557520, Note Name: C5
Note OFF: Time 557520, Note Name: F#4
Note OFF: Time 557520, Note Name: F#5
Note OFF: Time 557520, Note Name: D#5
Note ON: Time 558000, Note Name: F4, Velocity: 85
Note ON: Time 558000, Note Name: G#4, Velocity: 85
Note ON: Time 558000, Note Name: C#5, Velocity: 100
Note ON: Time 558000, Note Name: F5, Velocity: 100
Note OFF: Time 558720, Note Name: F5
Note OFF: Time 558720, Note Name: F4
Note OFF: Time 558720, Note Name: G#4
Note OFF: Time 558720, Note Name: C#5
Note ON: Time 559440, Note Name: F3, Velocity: 85
Note ON: Time 559440, Note Name: G#3, Velocity: 85
Note ON: Time 559440, Note Name: C#4, Velocity: 101
Note ON: Time 559440, Note Name: F4, Velocity: 101
Note OFF: Time 560160, Note Name: F4
Note OFF: Time 560160, Note Name: F3
Note OFF: Time 560160, Note Name: G#3
Note OFF: Time 560160, Note Name: C#4
Note ON: Time 560760, Note Name: C#4, Velocity: 73
Note ON: Time 560760, Note Name: G#4, Velocity: 87
Note ON: Time 560760, Note Name: C#5, Velocity: 87
Note OFF: Time 560880, Note Name: C#5
Note OFF: Time 560880, Note Name: G#4
Note OFF: Time 560880, Note Name: C#4
Note ON: Time 560880, Note Name: F7, Velocity: 123
Note OFF: Time 561600, Note Name: F7
Track 2: Piano left
Note ON: Time 1, Note Name: A#2, Velocity: 41
Note ON: Time 480, Note Name: A2, Velocity: 27
Note OFF: Time 481, Note Name: A#2
Note OFF: Time 560, Note Name: A2
Note ON: Time 560, Note Name: A#2, Velocity: 28
Note OFF: Time 640, Note Name: A#2
Note ON: Time 640, Note Name: C#3, Velocity: 29
Note OFF: Time 720, Note Name: C#3
Note ON: Time 720, Note Name: F3, Velocity: 33
Note OFF: Time 840, Note Name: F3
Note ON: Time 1200, Note Name: A2, Velocity: 26
Note OFF: Time 1280, Note Name: A2
Note ON: Time 1280, Note Name: A#2, Velocity: 27
Note OFF: Time 1360, Note Name: A#2
Note ON: Time 1360, Note Name: C#3, Velocity: 29
Note OFF: Time 1440, Note Name: C#3
Note ON: Time 1440, Note Name: F3, Velocity: 32
Note OFF: Time 1560, Note Name: F3
Note ON: Time 2880, Note Name: A#1, Velocity: 95
Note ON: Time 2880, Note Name: A#2, Velocity: 95
Note OFF: Time 3000, Note Name: A#2
Note OFF: Time 3000, Note Name: A#1
Note ON: Time 3600, Note Name: A#3, Velocity: 72
Note ON: Time 3600, Note Name: C4, Velocity: 72
Note ON: Time 3600, Note Name: D#4, Velocity: 85
Note ON: Time 3600, Note Name: F#4, Velocity: 85
Note ON: Time 3600, Note Name: A#4, Velocity: 85
Note OFF: Time 5040, Note Name: A#4
Note OFF: Time 5040, Note Name: D#4
Note OFF: Time 5040, Note Name: A#3
Note OFF: Time 5040, Note Name: C4
Note OFF: Time 5040, Note Name: F#4
Note ON: Time 5040, Note Name: A#3, Velocity: 47
Note ON: Time 5040, Note Name: C4, Velocity: 47
Note ON: Time 5040, Note Name: D#4, Velocity: 56
Note ON: Time 5040, Note Name: F#4, Velocity: 56
Note ON: Time 5040, Note Name: A#4, Velocity: 56
Note OFF: Time 5400, Note Name: A#4
Note OFF: Time 5400, Note Name: D#4
Note OFF: Time 5400, Note Name: A#3
Note OFF: Time 5400, Note Name: C4
Note OFF: Time 5400, Note Name: F#4
Note ON: Time 5400, Note Name: A#3, Velocity: 51
Note ON: Time 5400, Note Name: C4, Velocity: 51
Note ON: Time 5400, Note Name: D#4, Velocity: 61
Note ON: Time 5400, Note Name: F#4, Velocity: 61
Note ON: Time 5400, Note Name: A#4, Velocity: 61
Note OFF: Time 5520, Note Name: A#4
Note OFF: Time 5520, Note Name: D#4
Note OFF: Time 5520, Note Name: A#3
Note OFF: Time 5520, Note Name: C4
Note OFF: Time 5520, Note Name: F#4
Note ON: Time 5520, Note Name: A#3, Velocity: 56
Note ON: Time 5520, Note Name: C4, Velocity: 56
Note ON: Time 5520, Note Name: D#4, Velocity: 66
Note ON: Time 5520, Note Name: F#4, Velocity: 66
Note ON: Time 5520, Note Name: A#4, Velocity: 66
Note OFF: Time 5760, Note Name: A#4
Note OFF: Time 5760, Note Name: D#4
Note OFF: Time 5760, Note Name: A#3
Note OFF: Time 5760, Note Name: C4
Note OFF: Time 5760, Note Name: F#4
Note ON: Time 5760, Note Name: A#3, Velocity: 52
Note ON: Time 5760, Note Name: C#4, Velocity: 52
Note ON: Time 5760, Note Name: F4, Velocity: 62
Note ON: Time 5760, Note Name: A#4, Velocity: 62
Note OFF: Time 6000, Note Name: A#4
Note OFF: Time 6000, Note Name: A#3
Note OFF: Time 6000, Note Name: C#4
Note OFF: Time 6000, Note Name: F4
Note ON: Time 6240, Note Name: A2, Velocity: 27
Note OFF: Time 6320, Note Name: A2
Note ON: Time 6320, Note Name: A#2, Velocity: 28
Note OFF: Time 6400, Note Name: A#2
Note ON: Time 6400, Note Name: C#3, Velocity: 30
Note OFF: Time 6480, Note Name: C#3
Note ON: Time 6480, Note Name: F3, Velocity: 33
Note OFF: Time 6600, Note Name: F3
Note ON: Time 6960, Note Name: A2, Velocity: 26
Note OFF: Time 7040, Note Name: A2
Note ON: Time 7040, Note Name: A#2, Velocity: 28
Note OFF: Time 7120, Note Name: A#2
Note ON: Time 7120, Note Name: C#3, Velocity: 30
Note OFF: Time 7200, Note Name: C#3
Note ON: Time 7200, Note Name: F3, Velocity: 34
Note OFF: Time 7320, Note Name: F3
Note ON: Time 8640, Note Name: G#1, Velocity: 95
Note ON: Time 8640, Note Name: G#2, Velocity: 95
Note OFF: Time 8760, Note Name: G#2
Note OFF: Time 8760, Note Name: G#1
Note ON: Time 9300, Note Name: G#3, Velocity: 72
Note ON: Time 9330, Note Name: F4, Velocity: 76
Note ON: Time 9360, Note Name: C#5, Velocity: 89
Note OFF: Time 10800, Note Name: C#5
Note OFF: Time 10800, Note Name: F4
Note OFF: Time 10800, Note Name: G#3
Note ON: Time 10800, Note Name: G#3, Velocity: 49
Note ON: Time 10800, Note Name: D#4, Velocity: 58
Note ON: Time 10800, Note Name: F#4, Velocity: 58
Note ON: Time 10800, Note Name: G#4, Velocity: 58
Note OFF: Time 11160, Note Name: G#4
Note OFF: Time 11160, Note Name: G#3
Note OFF: Time 11160, Note Name: D#4
Note OFF: Time 11160, Note Name: F#4
Note ON: Time 11160, Note Name: G#3, Velocity: 53
Note ON: Time 11160, Note Name: D#4, Velocity: 63
Note ON: Time 11160, Note Name: F#4, Velocity: 63
Note ON: Time 11160, Note Name: G#4, Velocity: 63
Note OFF: Time 11280, Note Name: G#4
Note OFF: Time 11280, Note Name: G#3
Note OFF: Time 11280, Note Name: D#4
Note OFF: Time 11280, Note Name: F#4
Note ON: Time 11280, Note Name: G#3, Velocity: 57
Note ON: Time 11280, Note Name: D#4, Velocity: 68
Note ON: Time 11280, Note Name: F#4, Velocity: 68
Note ON: Time 11280, Note Name: G#4, Velocity: 68
Note OFF: Time 11520, Note Name: G#4
Note OFF: Time 11520, Note Name: G#3
Note OFF: Time 11520, Note Name: D#4
Note OFF: Time 11520, Note Name: F#4
Note ON: Time 11520, Note Name: G#4, Velocity: 65
Note ON: Time 11520, Note Name: C#4, Velocity: 55
Note ON: Time 11520, Note Name: F4, Velocity: 65
Note OFF: Time 11760, Note Name: F4
Note OFF: Time 11760, Note Name: C#4
Note OFF: Time 11760, Note Name: G#4
Note ON: Time 12240, Note Name: F4, Velocity: 77
Note ON: Time 12240, Note Name: C4, Velocity: 77
Note ON: Time 12240, Note Name: F3, Velocity: 65
Note OFF: Time 12720, Note Name: F3
Note OFF: Time 12720, Note Name: C4
Note OFF: Time 12720, Note Name: F4
Note ON: Time 12960, Note Name: F2, Velocity: 65
Note ON: Time 12960, Note Name: C3, Velocity: 77
Note ON: Time 12960, Note Name: F3, Velocity: 77
Note OFF: Time 13440, Note Name: F3
Note OFF: Time 13440, Note Name: C3
Note OFF: Time 13440, Note Name: F2
Note ON: Time 13680, Note Name: F1, Velocity: 79
Note ON: Time 13680, Note Name: F2, Velocity: 94
Note OFF: Time 15360, Note Name: F2
Note OFF: Time 15360, Note Name: F1
Note ON: Time 15360, Note Name: F#1, Velocity: 82
Note ON: Time 15360, Note Name: F#2, Velocity: 97
Note OFF: Time 15540, Note Name: F#2
Note OFF: Time 15540, Note Name: F#1
Note ON: Time 17760, Note Name: A2, Velocity: 27
Note OFF: Time 17840, Note Name: A2
Note ON: Time 17840, Note Name: A#2, Velocity: 28
Note OFF: Time 17920, Note Name: A#2
Note ON: Time 17920, Note Name: C#3, Velocity: 29
Note OFF: Time 18000, Note Name: C#3
Note ON: Time 18000, Note Name: F3, Velocity: 33
Note OFF: Time 18120, Note Name: F3
Note ON: Time 18480, Note Name: A2, Velocity: 27
Note OFF: Time 18560, Note Name: A2
Note ON: Time 18560, Note Name: A#2, Velocity: 28
Note OFF: Time 18640, Note Name: A#2
Note ON: Time 18640, Note Name: C#3, Velocity: 29
Note OFF: Time 18720, Note Name: C#3
Note ON: Time 18720, Note Name: F3, Velocity: 33
Note OFF: Time 18840, Note Name: F3
Note ON: Time 20160, Note Name: A#2, Velocity: 95
Note ON: Time 20160, Note Name: A#1, Velocity: 95
Note OFF: Time 20280, Note Name: A#1
Note OFF: Time 20280, Note Name: A#2
Note ON: Time 20880, Note Name: D#4, Velocity: 85
Note ON: Time 20880, Note Name: A#3, Velocity: 72
Note ON: Time 20880, Note Name: C4, Velocity: 72
Note ON: Time 20880, Note Name: A#4, Velocity: 85
Note ON: Time 20880, Note Name: F#4, Velocity: 85
Note OFF: Time 21960, Note Name: F#4
Note OFF: Time 21960, Note Name: C4
Note OFF: Time 21960, Note Name: D#4
Note OFF: Time 21960, Note Name: A#3
Note OFF: Time 21960, Note Name: A#4
Note ON: Time 21960, Note Name: A#3, Velocity: 47
Note ON: Time 21960, Note Name: C4, Velocity: 47
Note ON: Time 21960, Note Name: D#4, Velocity: 56
Note ON: Time 21960, Note Name: F#4, Velocity: 56
Note ON: Time 21960, Note Name: A#4, Velocity: 56
Note OFF: Time 22080, Note Name: A#4
Note OFF: Time 22080, Note Name: D#4
Note OFF: Time 22080, Note Name: A#3
Note OFF: Time 22080, Note Name: C4
Note OFF: Time 22080, Note Name: F#4
Note ON: Time 22080, Note Name: A#3, Velocity: 47
Note ON: Time 22080, Note Name: C4, Velocity: 47
Note ON: Time 22080, Note Name: D#4, Velocity: 56
Note ON: Time 22080, Note Name: F#4, Velocity: 56
Note ON: Time 22080, Note Name: A#4, Velocity: 56
Note OFF: Time 22320, Note Name: A#4
Note OFF: Time 22320, Note Name: D#4
Note OFF: Time 22320, Note Name: A#3
Note OFF: Time 22320, Note Name: C4
Note OFF: Time 22320, Note Name: F#4
Note ON: Time 22320, Note Name: D#4, Velocity: 56
Note ON: Time 22320, Note Name: A#3, Velocity: 47
Note ON: Time 22320, Note Name: C4, Velocity: 47
Note ON: Time 22320, Note Name: F#4, Velocity: 56
Note ON: Time 22320, Note Name: A#4, Velocity: 56
Note OFF: Time 22680, Note Name: A#4
Note OFF: Time 22680, Note Name: C4
Note OFF: Time 22680, Note Name: D#4
Note OFF: Time 22680, Note Name: A#3
Note OFF: Time 22680, Note Name: F#4
Note ON: Time 22680, Note Name: C4, Velocity: 51
Note ON: Time 22680, Note Name: D#4, Velocity: 61
Note ON: Time 22680, Note Name: A#3, Velocity: 51
Note ON: Time 22680, Note Name: F#4, Velocity: 61
Note ON: Time 22680, Note Name: A#4, Velocity: 61
Note OFF: Time 22800, Note Name: A#4
Note OFF: Time 22800, Note Name: A#3
Note OFF: Time 22800, Note Name: C4
Note OFF: Time 22800, Note Name: D#4
Note OFF: Time 22800, Note Name: F#4
Note ON: Time 22800, Note Name: D#4, Velocity: 66
Note ON: Time 22800, Note Name: F#4, Velocity: 66
Note ON: Time 22800, Note Name: A#3, Velocity: 56
Note ON: Time 22800, Note Name: C4, Velocity: 56
Note ON: Time 22800, Note Name: A#4, Velocity: 66
Note OFF: Time 23040, Note Name: A#4
Note OFF: Time 23040, Note Name: A#3
Note OFF: Time 23040, Note Name: D#4
Note OFF: Time 23040, Note Name: F#4
Note OFF: Time 23040, Note Name: C4
Note ON: Time 23040, Note Name: F4, Velocity: 62
Note ON: Time 23040, Note Name: A#3, Velocity: 52
Note ON: Time 23040, Note Name: C#4, Velocity: 52
Note ON: Time 23040, Note Name: A#4, Velocity: 62
Note OFF: Time 23280, Note Name: A#4
Note OFF: Time 23280, Note Name: F4
Note OFF: Time 23280, Note Name: A#3
Note OFF: Time 23280, Note Name: C#4
Note ON: Time 23520, Note Name: A2, Velocity: 27
Note OFF: Time 23600, Note Name: A2
Note ON: Time 23600, Note Name: A#2, Velocity: 29
Note OFF: Time 23680, Note Name: A#2
Note ON: Time 23680, Note Name: C#3, Velocity: 30
Note OFF: Time 23760, Note Name: C#3
Note ON: Time 23760, Note Name: F3, Velocity: 34
Note OFF: Time 23880, Note Name: F3
Note ON: Time 24240, Note Name: A2, Velocity: 24
Note OFF: Time 24320, Note Name: A2
Note ON: Time 24320, Note Name: A#2, Velocity: 26
Note OFF: Time 24400, Note Name: A#2
Note ON: Time 24400, Note Name: C#3, Velocity: 27
Note OFF: Time 24480, Note Name: C#3
Note ON: Time 24480, Note Name: F3, Velocity: 32
Note OFF: Time 24600, Note Name: F3
Note ON: Time 25920, Note Name: C1, Velocity: 95
Note ON: Time 25920, Note Name: C2, Velocity: 95
Note OFF: Time 26040, Note Name: C2
Note OFF: Time 26040, Note Name: C1
Note ON: Time 26640, Note Name: G#4, Velocity: 89
Note ON: Time 26640, Note Name: C5, Velocity: 89
Note ON: Time 26640, Note Name: F4, Velocity: 63
Note ON: Time 26640, Note Name: C4, Velocity: 63
Note OFF: Time 28080, Note Name: C4
Note OFF: Time 28080, Note Name: G#4
Note OFF: Time 28080, Note Name: C5
Note OFF: Time 28080, Note Name: F4
Note ON: Time 28080, Note Name: C4, Velocity: 41
Note ON: Time 28080, Note Name: A#4, Velocity: 58
Note ON: Time 28080, Note Name: E4, Velocity: 41
Note ON: Time 28080, Note Name: C5, Velocity: 58
Note OFF: Time 28440, Note Name: C5
Note OFF: Time 28440, Note Name: C4
Note OFF: Time 28440, Note Name: A#4
Note OFF: Time 28440, Note Name: E4
Note ON: Time 28440, Note Name: E4, Velocity: 45
Note ON: Time 28440, Note Name: C4, Velocity: 45
Note ON: Time 28440, Note Name: C5, Velocity: 63
Note ON: Time 28440, Note Name: A#4, Velocity: 63
Note OFF: Time 28560, Note Name: A#4
Note OFF: Time 28560, Note Name: E4
Note OFF: Time 28560, Note Name: C4
Note OFF: Time 28560, Note Name: C5
Note ON: Time 28560, Note Name: A#4, Velocity: 68
Note ON: Time 28560, Note Name: C4, Velocity: 48
Note ON: Time 28560, Note Name: E4, Velocity: 48
Note ON: Time 28560, Note Name: C5, Velocity: 68
Note OFF: Time 28800, Note Name: C5
Note OFF: Time 28800, Note Name: A#4
Note OFF: Time 28800, Note Name: C4
Note OFF: Time 28800, Note Name: E4
Note ON: Time 28800, Note Name: C5, Velocity: 65
Note ON: Time 28800, Note Name: F4, Velocity: 46
Note ON: Time 28800, Note Name: G#4, Velocity: 65
Note OFF: Time 29040, Note Name: G#4
Note OFF: Time 29040, Note Name: F4
Note OFF: Time 29040, Note Name: C5
Note ON: Time 29520, Note Name: F3, Velocity: 65
Note ON: Time 29520, Note Name: F4, Velocity: 77
Note ON: Time 29520, Note Name: C4, Velocity: 77
Note OFF: Time 30000, Note Name: C4
Note OFF: Time 30000, Note Name: F4
Note OFF: Time 30000, Note Name: F3
Note ON: Time 30240, Note Name: F3, Velocity: 77
Note ON: Time 30240, Note Name: C3, Velocity: 77
Note ON: Time 30240, Note Name: F2, Velocity: 65
Note OFF: Time 30720, Note Name: F2
Note OFF: Time 30720, Note Name: C3
Note OFF: Time 30720, Note Name: F3
Note ON: Time 30960, Note Name: E1, Velocity: 79
Note ON: Time 30960, Note Name: E2, Velocity: 94
Note OFF: Time 32640, Note Name: E2
Note OFF: Time 32640, Note Name: E1
Note ON: Time 32640, Note Name: F1, Velocity: 82
Note ON: Time 32640, Note Name: F2, Velocity: 97
Note OFF: Time 32820, Note Name: F2
Note OFF: Time 32820, Note Name: F1
Note ON: Time 34560, Note Name: C#1, Velocity: 71
Note ON: Time 34560, Note Name: C#2, Velocity: 84
Note OFF: Time 34680, Note Name: C#2
Note OFF: Time 34680, Note Name: C#1
Note ON: Time 35040, Note Name: G#2, Velocity: 45
Note ON: Time 35040, Note Name: G#3, Velocity: 45
Note OFF: Time 35280, Note Name: G#3
Note OFF: Time 35280, Note Name: G#2
Note ON: Time 35280, Note Name: C#4, Velocity: 53
Note ON: Time 35280, Note Name: F3, Velocity: 53
Note OFF: Time 35520, Note Name: F3
Note OFF: Time 35520, Note Name: C#4
Note ON: Time 35760, Note Name: G#2, Velocity: 42
Note ON: Time 35760, Note Name: G#3, Velocity: 42
Note OFF: Time 36000, Note Name: G#3
Note OFF: Time 36000, Note Name: G#2
Note ON: Time 36000, Note Name: F3, Velocity: 47
Note ON: Time 36000, Note Name: C#4, Velocity: 47
Note OFF: Time 36240, Note Name: C#4
Note OFF: Time 36240, Note Name: F3
Note ON: Time 37440, Note Name: G#1, Velocity: 44
Note ON: Time 37440, Note Name: G#2, Velocity: 52
Note OFF: Time 37560, Note Name: G#2
Note OFF: Time 37560, Note Name: G#1
Note ON: Time 38160, Note Name: F#4, Velocity: 38
Note ON: Time 38160, Note Name: G3, Velocity: 38
Note ON: Time 38160, Note Name: C4, Velocity: 38
Note OFF: Time 38400, Note Name: C4
Note OFF: Time 38400, Note Name: G3
Note OFF: Time 38400, Note Name: F#4
Note ON: Time 38400, Note Name: G#3, Velocity: 35
Note ON: Time 38400, Note Name: C4, Velocity: 35
Note ON: Time 38400, Note Name: F#4, Velocity: 35
Note OFF: Time 38640, Note Name: F#4
Note OFF: Time 38640, Note Name: C4
Note OFF: Time 38640, Note Name: G#3
Note ON: Time 38640, Note Name: F#4, Velocity: 31
Note ON: Time 38640, Note Name: G#3, Velocity: 31
Note ON: Time 38640, Note Name: C4, Velocity: 31
Note OFF: Time 38760, Note Name: C4
Note OFF: Time 38760, Note Name: G#3
Note OFF: Time 38760, Note Name: F#4
Note ON: Time 39600, Note Name: A3, Velocity: 35
Note ON: Time 39600, Note Name: C4, Velocity: 35
Note ON: Time 39600, Note Name: F#4, Velocity: 35
Note OFF: Time 39840, Note Name: F#4
Note OFF: Time 39840, Note Name: C4
Note OFF: Time 39840, Note Name: A3
Note ON: Time 39840, Note Name: F#4, Velocity: 32
Note ON: Time 39840, Note Name: C4, Velocity: 32
Note ON: Time 39840, Note Name: G#3, Velocity: 32
Note OFF: Time 40080, Note Name: G#3
Note OFF: Time 40080, Note Name: C4
Note OFF: Time 40080, Note Name: F#4
Note ON: Time 40080, Note Name: F#4, Velocity: 28
Note ON: Time 40080, Note Name: C4, Velocity: 28
Note ON: Time 40080, Note Name: G#3, Velocity: 28
Note OFF: Time 40200, Note Name: G#3
Note OFF: Time 40200, Note Name: C4
Note OFF: Time 40200, Note Name: F#4
Note ON: Time 40320, Note Name: C#1, Velocity: 68
Note ON: Time 40320, Note Name: C#2, Velocity: 82
Note OFF: Time 40440, Note Name: C#2
Note OFF: Time 40440, Note Name: C#1
Note ON: Time 40800, Note Name: G#2, Velocity: 45
Note ON: Time 40800, Note Name: G#3, Velocity: 45
Note OFF: Time 41040, Note Name: G#3
Note OFF: Time 41040, Note Name: G#2
Note ON: Time 41040, Note Name: C#4, Velocity: 53
Note ON: Time 41040, Note Name: F3, Velocity: 53
Note OFF: Time 41280, Note Name: F3
Note OFF: Time 41280, Note Name: C#4
Note ON: Time 41520, Note Name: G#2, Velocity: 42
Note ON: Time 41520, Note Name: G#3, Velocity: 42
Note OFF: Time 41760, Note Name: G#3
Note OFF: Time 41760, Note Name: G#2
Note ON: Time 41760, Note Name: F3, Velocity: 47
Note ON: Time 41760, Note Name: C#4, Velocity: 47
Note OFF: Time 42000, Note Name: C#4
Note OFF: Time 42000, Note Name: F3
Note ON: Time 43200, Note Name: G#2, Velocity: 20
Note ON: Time 43200, Note Name: D#3, Velocity: 20
Note ON: Time 43200, Note Name: F#3, Velocity: 20
Note OFF: Time 43920, Note Name: F#3
Note OFF: Time 43920, Note Name: D#3
Note OFF: Time 43920, Note Name: G#2
Note ON: Time 43920, Note Name: C4, Velocity: 32
Note OFF: Time 44040, Note Name: C4
Note ON: Time 44040, Note Name: C#4, Velocity: 32
Note OFF: Time 44160, Note Name: C#4
Note ON: Time 44160, Note Name: D#4, Velocity: 32
Note OFF: Time 44280, Note Name: D#4
Note ON: Time 44280, Note Name: F4, Velocity: 32
Note OFF: Time 44400, Note Name: F4
Note ON: Time 44400, Note Name: F#4, Velocity: 32
Note OFF: Time 44520, Note Name: F#4
Note ON: Time 44520, Note Name: G#4, Velocity: 32
Note OFF: Time 44640, Note Name: G#4
Note ON: Time 44640, Note Name: A4, Velocity: 32
Note OFF: Time 44760, Note Name: A4
Note ON: Time 45360, Note Name: A3, Velocity: 30
Note OFF: Time 45480, Note Name: A3
Note ON: Time 45480, Note Name: G#3, Velocity: 29
Note OFF: Time 45600, Note Name: G#3
Note ON: Time 45600, Note Name: G3, Velocity: 28
Note OFF: Time 45720, Note Name: G3
Note ON: Time 45720, Note Name: F#3, Velocity: 27
Note OFF: Time 45840, Note Name: F#3
Note ON: Time 45840, Note Name: F3, Velocity: 26
Note OFF: Time 45960, Note Name: F3
Note ON: Time 45960, Note Name: D#3, Velocity: 25
Note OFF: Time 46080, Note Name: D#3
Note ON: Time 46080, Note Name: C#3, Velocity: 30
Note OFF: Time 46200, Note Name: C#3
Note ON: Time 46200, Note Name: G#3, Velocity: 28
Note OFF: Time 46320, Note Name: G#3
Note ON: Time 46320, Note Name: C#4, Velocity: 30
Note OFF: Time 46440, Note Name: C#4
Note ON: Time 46440, Note Name: F4, Velocity: 34
Note OFF: Time 46560, Note Name: F4
Note ON: Time 46560, Note Name: C#4, Velocity: 31
Note OFF: Time 46680, Note Name: C#4
Note ON: Time 46680, Note Name: G#3, Velocity: 30
Note OFF: Time 46800, Note Name: G#3
Note ON: Time 46800, Note Name: C#3, Velocity: 28
Note OFF: Time 46920, Note Name: C#3
Note ON: Time 46920, Note Name: B3, Velocity: 28
Note OFF: Time 47040, Note Name: B3
Note ON: Time 47040, Note Name: C#4, Velocity: 30
Note OFF: Time 47160, Note Name: C#4
Note ON: Time 47160, Note Name: F4, Velocity: 31
Note OFF: Time 47280, Note Name: F4
Note ON: Time 47280, Note Name: C#4, Velocity: 30
Note OFF: Time 47400, Note Name: C#4
Note ON: Time 47400, Note Name: B3, Velocity: 29
Note OFF: Time 47520, Note Name: B3
Note ON: Time 47520, Note Name: F#3, Velocity: 28
Note OFF: Time 47640, Note Name: F#3
Note ON: Time 47640, Note Name: B3, Velocity: 28
Note OFF: Time 47760, Note Name: B3
Note ON: Time 47760, Note Name: C#4, Velocity: 31
Note OFF: Time 47880, Note Name: C#4
Note ON: Time 47880, Note Name: F#4, Velocity: 34
Note OFF: Time 48000, Note Name: F#4
Note ON: Time 48000, Note Name: C#4, Velocity: 31
Note OFF: Time 48120, Note Name: C#4
Note ON: Time 48120, Note Name: B3, Velocity: 29
Note OFF: Time 48240, Note Name: B3
Note ON: Time 48240, Note Name: C#3, Velocity: 30
Note OFF: Time 48360, Note Name: C#3
Note ON: Time 48360, Note Name: A#3, Velocity: 28
Note OFF: Time 48480, Note Name: A#3
Note ON: Time 48480, Note Name: C#4, Velocity: 30
Note OFF: Time 48600, Note Name: C#4
Note ON: Time 48600, Note Name: F#4, Velocity: 33
Note OFF: Time 48720, Note Name: F#4
Note ON: Time 48720, Note Name: C#4, Velocity: 31
Note OFF: Time 48840, Note Name: C#4
Note ON: Time 48840, Note Name: A#3, Velocity: 30
Note OFF: Time 48960, Note Name: A#3
Note ON: Time 48960, Note Name: G#3, Velocity: 30
Note OFF: Time 49080, Note Name: G#3
Note ON: Time 49080, Note Name: B3, Velocity: 28
Note OFF: Time 49200, Note Name: B3
Note ON: Time 49200, Note Name: C#4, Velocity: 30
Note OFF: Time 49320, Note Name: C#4
Note ON: Time 49320, Note Name: G#4, Velocity: 33
Note OFF: Time 49440, Note Name: G#4
Note ON: Time 49440, Note Name: C#4, Velocity: 31
Note OFF: Time 49560, Note Name: C#4
Note ON: Time 49560, Note Name: B3, Velocity: 29
Note OFF: Time 49680, Note Name: B3
Note ON: Time 49680, Note Name: C#3, Velocity: 30
Note OFF: Time 49800, Note Name: C#3
Note ON: Time 49800, Note Name: B3, Velocity: 28
Note OFF: Time 49920, Note Name: B3
Note ON: Time 49920, Note Name: C#4, Velocity: 30
Note OFF: Time 50040, Note Name: C#4
Note ON: Time 50040, Note Name: F4, Velocity: 31
Note OFF: Time 50160, Note Name: F4
Note ON: Time 50160, Note Name: C#4, Velocity: 30
Note OFF: Time 50280, Note Name: C#4
Note ON: Time 50280, Note Name: B3, Velocity: 29
Note OFF: Time 50400, Note Name: B3
Note ON: Time 50400, Note Name: F#3, Velocity: 32
Note OFF: Time 50520, Note Name: F#3
Note ON: Time 50520, Note Name: A#3, Velocity: 30
Note OFF: Time 50640, Note Name: A#3
Note ON: Time 50640, Note Name: C#4, Velocity: 34
Note OFF: Time 50760, Note Name: C#4
Note ON: Time 50760, Note Name: F#4, Velocity: 35
Note OFF: Time 50880, Note Name: F#4
Note ON: Time 50880, Note Name: C#4, Velocity: 34
Note OFF: Time 51000, Note Name: C#4
Note ON: Time 51000, Note Name: A#3, Velocity: 33
Note OFF: Time 51120, Note Name: A#3
Note ON: Time 51120, Note Name: E3, Velocity: 33
Note OFF: Time 51240, Note Name: E3
Note ON: Time 51240, Note Name: A#3, Velocity: 36
Note OFF: Time 51360, Note Name: A#3
Note ON: Time 51360, Note Name: C#4, Velocity: 39
Note OFF: Time 51480, Note Name: C#4
Note ON: Time 51480, Note Name: G#4, Velocity: 37
Note OFF: Time 51600, Note Name: G#4
Note ON: Time 51600, Note Name: C#4, Velocity: 34
Note OFF: Time 51720, Note Name: C#4
Note ON: Time 51720, Note Name: A#3, Velocity: 31
Note OFF: Time 51840, Note Name: A#3
Note ON: Time 51840, Note Name: D#3, Velocity: 36
Note OFF: Time 51960, Note Name: D#3
Note ON: Time 51960, Note Name: A#3, Velocity: 38
Note OFF: Time 52080, Note Name: A#3
Note ON: Time 52080, Note Name: C#4, Velocity: 41
Note OFF: Time 52200, Note Name: C#4
Note ON: Time 52200, Note Name: G4, Velocity: 45
Note OFF: Time 52320, Note Name: G4
Note ON: Time 52320, Note Name: C#4, Velocity: 42
Note OFF: Time 52440, Note Name: C#4
Note ON: Time 52440, Note Name: A#3, Velocity: 39
Note OFF: Time 52560, Note Name: A#3
Note ON: Time 52560, Note Name: G3, Velocity: 39
Note OFF: Time 52680, Note Name: G3
Note ON: Time 52680, Note Name: C#4, Velocity: 38
Note OFF: Time 52800, Note Name: C#4
Note ON: Time 52800, Note Name: D#4, Velocity: 41
Note OFF: Time 52920, Note Name: D#4
Note ON: Time 52920, Note Name: A#4, Velocity: 46
Note OFF: Time 53040, Note Name: A#4
Note ON: Time 53040, Note Name: D#4, Velocity: 42
Note OFF: Time 53160, Note Name: D#4
Note ON: Time 53160, Note Name: C#4, Velocity: 39
Note OFF: Time 53280, Note Name: C#4
Note ON: Time 53280, Note Name: G#3, Velocity: 38
Note OFF: Time 53400, Note Name: G#3
Note ON: Time 53400, Note Name: C#4, Velocity: 38
Note OFF: Time 53520, Note Name: C#4
Note ON: Time 53520, Note Name: D#4, Velocity: 42
Note OFF: Time 53640, Note Name: D#4
Note ON: Time 53640, Note Name: G#4, Velocity: 45
Note OFF: Time 53760, Note Name: G#4
Note ON: Time 53760, Note Name: D#4, Velocity: 41
Note OFF: Time 53880, Note Name: D#4
Note ON: Time 53880, Note Name: C#4, Velocity: 38
Note OFF: Time 54000, Note Name: C#4
Note ON: Time 54000, Note Name: D#3, Velocity: 38
Note OFF: Time 54120, Note Name: D#3
Note ON: Time 54120, Note Name: C4, Velocity: 37
Note OFF: Time 54240, Note Name: C4
Note ON: Time 54240, Note Name: D#4, Velocity: 40
Note OFF: Time 54360, Note Name: D#4
Note ON: Time 54360, Note Name: G#4, Velocity: 44
Note OFF: Time 54480, Note Name: G#4
Note ON: Time 54480, Note Name: D#4, Velocity: 41
Note OFF: Time 54600, Note Name: D#4
Note ON: Time 54600, Note Name: C4, Velocity: 39
Note OFF: Time 54720, Note Name: C4
Note ON: Time 54720, Note Name: A#3, Velocity: 39
Note OFF: Time 54840, Note Name: A#3
Note ON: Time 54840, Note Name: C#4, Velocity: 37
Note OFF: Time 54960, Note Name: C#4
Note ON: Time 54960, Note Name: D#4, Velocity: 40
Note OFF: Time 55080, Note Name: D#4
Note ON: Time 55080, Note Name: A#4, Velocity: 42
Note OFF: Time 55200, Note Name: A#4
Note ON: Time 55200, Note Name: D#4, Velocity: 41
Note OFF: Time 55320, Note Name: D#4
Note ON: Time 55320, Note Name: C#4, Velocity: 39
Note OFF: Time 55440, Note Name: C#4
Note ON: Time 55440, Note Name: D#3, Velocity: 38
Note OFF: Time 55560, Note Name: D#3
Note ON: Time 55560, Note Name: C#4, Velocity: 36
Note OFF: Time 55680, Note Name: C#4
Note ON: Time 55680, Note Name: D#4, Velocity: 38
Note OFF: Time 55800, Note Name: D#4
Note ON: Time 55800, Note Name: G4, Velocity: 40
Note OFF: Time 55920, Note Name: G4
Note ON: Time 55920, Note Name: D#4, Velocity: 40
Note OFF: Time 56040, Note Name: D#4
Note ON: Time 56040, Note Name: C#4, Velocity: 37
Note OFF: Time 56160, Note Name: C#4
Note ON: Time 56160, Note Name: G#3, Velocity: 38
Note OFF: Time 56280, Note Name: G#3
Note ON: Time 56280, Note Name: C4, Velocity: 40
Note OFF: Time 56400, Note Name: C4
Note ON: Time 56400, Note Name: D#4, Velocity: 44
Note OFF: Time 56520, Note Name: D#4
Note ON: Time 56520, Note Name: G#4, Velocity: 45
Note OFF: Time 56640, Note Name: G#4
Note ON: Time 56640, Note Name: D#4, Velocity: 44
Note OFF: Time 56760, Note Name: D#4
Note ON: Time 56760, Note Name: C4, Velocity: 42
Note OFF: Time 56880, Note Name: C4
Note ON: Time 56880, Note Name: G3, Velocity: 40
Note ON: Time 57000, Note Name: G#3, Velocity: 41
Note OFF: Time 57120, Note Name: G#3
Note ON: Time 57120, Note Name: C4, Velocity: 45
Note OFF: Time 57240, Note Name: C4
Note ON: Time 57240, Note Name: D#4, Velocity: 49
Note OFF: Time 57360, Note Name: D#4
Note ON: Time 57360, Note Name: C4, Velocity: 47
Note OFF: Time 57480, Note Name: C4
Note ON: Time 57480, Note Name: G#3, Velocity: 41
Note OFF: Time 57600, Note Name: G#3
Note OFF: Time 57600, Note Name: G3
Note ON: Time 57600, Note Name: F#3, Velocity: 36
Note ON: Time 57720, Note Name: G#3, Velocity: 36
Note OFF: Time 57840, Note Name: G#3
Note ON: Time 57840, Note Name: C4, Velocity: 39
Note OFF: Time 57960, Note Name: C4
Note ON: Time 57960, Note Name: D#4, Velocity: 42
Note OFF: Time 58080, Note Name: D#4
Note ON: Time 58080, Note Name: C4, Velocity: 41
Note OFF: Time 58200, Note Name: C4
Note ON: Time 58200, Note Name: G#3, Velocity: 38
Note OFF: Time 58320, Note Name: G#3
Note OFF: Time 58320, Note Name: F#3
Note ON: Time 58320, Note Name: F#3, Velocity: 38
Note ON: Time 58440, Note Name: G#3, Velocity: 41
Note OFF: Time 58560, Note Name: G#3
Note ON: Time 58560, Note Name: C4, Velocity: 41
Note OFF: Time 58680, Note Name: C4
Note ON: Time 58680, Note Name: D#4, Velocity: 41
Note OFF: Time 58800, Note Name: D#4
Note ON: Time 58800, Note Name: C4, Velocity: 38
Note OFF: Time 58920, Note Name: C4
Note ON: Time 58920, Note Name: G#3, Velocity: 35
Note OFF: Time 59040, Note Name: G#3
Note OFF: Time 59040, Note Name: F#3
Note ON: Time 59040, Note Name: F3, Velocity: 33
Note ON: Time 59160, Note Name: G#3, Velocity: 33
Note OFF: Time 59280, Note Name: G#3
Note ON: Time 59280, Note Name: C#4, Velocity: 36
Note OFF: Time 59400, Note Name: C#4
Note ON: Time 59400, Note Name: F4, Velocity: 39
Note OFF: Time 59520, Note Name: F4
Note ON: Time 59520, Note Name: C#4, Velocity: 37
Note OFF: Time 59640, Note Name: C#4
Note ON: Time 59640, Note Name: G#3, Velocity: 35
Note OFF: Time 59760, Note Name: G#3
Note OFF: Time 59760, Note Name: F3
Note ON: Time 59760, Note Name: F3, Velocity: 35
Note OFF: Time 59880, Note Name: F3
Note ON: Time 59880, Note Name: G#3, Velocity: 38
Note OFF: Time 60000, Note Name: G#3
Note ON: Time 60000, Note Name: C#4, Velocity: 41
Note OFF: Time 60120, Note Name: C#4
Note ON: Time 60120, Note Name: G#4, Velocity: 42
Note OFF: Time 60240, Note Name: G#4
Note ON: Time 60240, Note Name: C#4, Velocity: 40
Note OFF: Time 60360, Note Name: C#4
Note ON: Time 60360, Note Name: G#3, Velocity: 37
Note OFF: Time 60480, Note Name: G#3
Note ON: Time 60480, Note Name: D#3, Velocity: 35
Note OFF: Time 60600, Note Name: D#3
Note ON: Time 60600, Note Name: G#3, Velocity: 38
Note OFF: Time 60720, Note Name: G#3
Note ON: Time 60720, Note Name: C4, Velocity: 41
Note OFF: Time 60840, Note Name: C4
Note ON: Time 60840, Note Name: F#4, Velocity: 41
Note OFF: Time 60960, Note Name: F#4
Note ON: Time 60960, Note Name: C4, Velocity: 39
Note OFF: Time 61080, Note Name: C4
Note ON: Time 61080, Note Name: G#3, Velocity: 36
Note OFF: Time 61200, Note Name: G#3
Note ON: Time 61200, Note Name: D#3, Velocity: 35
Note OFF: Time 61320, Note Name: D#3
Note ON: Time 61320, Note Name: G#3, Velocity: 34
Note OFF: Time 61440, Note Name: G#3
Note ON: Time 61440, Note Name: C4, Velocity: 37
Note OFF: Time 61560, Note Name: C4
Note ON: Time 61560, Note Name: F#4, Velocity: 39
Note OFF: Time 61680, Note Name: F#4
Note ON: Time 61680, Note Name: C4, Velocity: 36
Note OFF: Time 61800, Note Name: C4
Note ON: Time 61800, Note Name: G#3, Velocity: 31
Note OFF: Time 61920, Note Name: G#3
Note ON: Time 61920, Note Name: D3, Velocity: 32
Note OFF: Time 62040, Note Name: D3
Note ON: Time 62040, Note Name: G#3, Velocity: 31
Note OFF: Time 62160, Note Name: G#3
Note ON: Time 62160, Note Name: B3, Velocity: 35
Note OFF: Time 62280, Note Name: B3
Note ON: Time 62280, Note Name: F4, Velocity: 37
Note OFF: Time 62400, Note Name: F4
Note ON: Time 62400, Note Name: B3, Velocity: 36
Note OFF: Time 62520, Note Name: B3
Note ON: Time 62520, Note Name: G#3, Velocity: 34
Note OFF: Time 62640, Note Name: G#3
Note ON: Time 62640, Note Name: D3, Velocity: 33
Note OFF: Time 62760, Note Name: D3
Note ON: Time 62760, Note Name: G#3, Velocity: 30
Note OFF: Time 62880, Note Name: G#3
Note ON: Time 62880, Note Name: A#3, Velocity: 35
Note OFF: Time 63000, Note Name: A#3
Note ON: Time 63000, Note Name: F4, Velocity: 37
Note OFF: Time 63120, Note Name: F4
Note ON: Time 63120, Note Name: A#3, Velocity: 36
Note OFF: Time 63240, Note Name: A#3
Note ON: Time 63240, Note Name: G#3, Velocity: 34
Note OFF: Time 63360, Note Name: G#3
Note ON: Time 63360, Note Name: D#3, Velocity: 35
Note OFF: Time 63480, Note Name: D#3
Note ON: Time 63480, Note Name: F#3, Velocity: 35
Note OFF: Time 63600, Note Name: F#3
Note ON: Time 63600, Note Name: A#3, Velocity: 38
Note OFF: Time 63720, Note Name: A#3
Note ON: Time 63720, Note Name: D#4, Velocity: 39
Note OFF: Time 63840, Note Name: D#4
Note ON: Time 63840, Note Name: A#3, Velocity: 38
Note OFF: Time 63960, Note Name: A#3
Note ON: Time 63960, Note Name: F#3, Velocity: 36
Note OFF: Time 64080, Note Name: F#3
Note ON: Time 64080, Note Name: F#2, Velocity: 32
Note OFF: Time 64200, Note Name: F#2
Note ON: Time 64200, Note Name: F#3, Velocity: 31
Note OFF: Time 64320, Note Name: F#3
Note ON: Time 64320, Note Name: A#3, Velocity: 36
Note OFF: Time 64440, Note Name: A#3
Note ON: Time 64440, Note Name: D#4, Velocity: 38
Note OFF: Time 64560, Note Name: D#4
Note ON: Time 64560, Note Name: A#3, Velocity: 36
Note OFF: Time 64680, Note Name: A#3
Note ON: Time 64680, Note Name: F#3, Velocity: 34
Note OFF: Time 64800, Note Name: F#3
Note ON: Time 64800, Note Name: G#2, Velocity: 34
Note OFF: Time 64920, Note Name: G#2
Note ON: Time 64920, Note Name: F3, Velocity: 36
Note OFF: Time 65040, Note Name: F3
Note ON: Time 65040, Note Name: G#3, Velocity: 37
Note OFF: Time 65160, Note Name: G#3
Note ON: Time 65160, Note Name: C#4, Velocity: 39
Note OFF: Time 65280, Note Name: C#4
Note ON: Time 65280, Note Name: G#3, Velocity: 37
Note OFF: Time 65400, Note Name: G#3
Note ON: Time 65400, Note Name: F3, Velocity: 35
Note OFF: Time 65520, Note Name: F3
Note ON: Time 65520, Note Name: G#2, Velocity: 36
Note OFF: Time 65640, Note Name: G#2
Note ON: Time 65640, Note Name: F3, Velocity: 34
Note OFF: Time 65760, Note Name: F3
Note ON: Time 65760, Note Name: G#3, Velocity: 35
Note OFF: Time 65880, Note Name: G#3
Note ON: Time 65880, Note Name: C#4, Velocity: 38
Note OFF: Time 66000, Note Name: C#4
Note ON: Time 66000, Note Name: G#3, Velocity: 37
Note OFF: Time 66120, Note Name: G#3
Note ON: Time 66120, Note Name: F3, Velocity: 36
Note OFF: Time 66240, Note Name: F3
Note ON: Time 66240, Note Name: G#2, Velocity: 36
Note OFF: Time 66360, Note Name: G#2
Note ON: Time 66360, Note Name: F#3, Velocity: 34
Note OFF: Time 66480, Note Name: F#3
Note ON: Time 66480, Note Name: G#3, Velocity: 36
Note OFF: Time 66600, Note Name: G#3
Note ON: Time 66600, Note Name: C4, Velocity: 36
Note OFF: Time 66720, Note Name: C4
Note ON: Time 66720, Note Name: G#3, Velocity: 35
Note OFF: Time 66840, Note Name: G#3
Note ON: Time 66840, Note Name: F#3, Velocity: 34
Note OFF: Time 66960, Note Name: F#3
Note ON: Time 66960, Note Name: G#2, Velocity: 34
Note OFF: Time 67080, Note Name: G#2
Note ON: Time 67080, Note Name: F#3, Velocity: 31
Note OFF: Time 67200, Note Name: F#3
Note ON: Time 67200, Note Name: G#3, Velocity: 35
Note OFF: Time 67320, Note Name: G#3
Note ON: Time 67320, Note Name: C4, Velocity: 37
Note OFF: Time 67440, Note Name: C4
Note ON: Time 67440, Note Name: G#3, Velocity: 35
Note OFF: Time 67560, Note Name: G#3
Note ON: Time 67560, Note Name: F#3, Velocity: 33
Note OFF: Time 67680, Note Name: F#3
Note ON: Time 67680, Note Name: C#3, Velocity: 34
Note OFF: Time 67800, Note Name: C#3
Note ON: Time 67800, Note Name: G#3, Velocity: 33
Note OFF: Time 67920, Note Name: G#3
Note ON: Time 67920, Note Name: C#4, Velocity: 36
Note OFF: Time 68040, Note Name: C#4
Note ON: Time 68040, Note Name: F4, Velocity: 37
Note OFF: Time 68160, Note Name: F4
Note ON: Time 68160, Note Name: C#4, Velocity: 36
Note OFF: Time 68280, Note Name: C#4
Note ON: Time 68280, Note Name: A#3, Velocity: 35
Note OFF: Time 68400, Note Name: A#3
Note ON: Time 68400, Note Name: G#3, Velocity: 37
Note ON: Time 68520, Note Name: C#4, Velocity: 36
Note OFF: Time 68640, Note Name: C#4
Note OFF: Time 68640, Note Name: G#3
Note ON: Time 68640, Note Name: F4, Velocity: 39
Note OFF: Time 68760, Note Name: F4
Note ON: Time 68760, Note Name: G#4, Velocity: 40
Note OFF: Time 68880, Note Name: G#4
Note ON: Time 68880, Note Name: F4, Velocity: 39
Note OFF: Time 69000, Note Name: F4
Note ON: Time 69000, Note Name: C#4, Velocity: 38
Note OFF: Time 69120, Note Name: C#4
Note ON: Time 69120, Note Name: F#3, Velocity: 42
Note ON: Time 69240, Note Name: G#3, Velocity: 42
Note OFF: Time 69360, Note Name: G#3
Note ON: Time 69360, Note Name: C4, Velocity: 42
Note OFF: Time 69480, Note Name: C4
Note ON: Time 69480, Note Name: D#4, Velocity: 42
Note OFF: Time 69600, Note Name: D#4
Note ON: Time 69600, Note Name: C4, Velocity: 42
Note OFF: Time 69720, Note Name: C4
Note ON: Time 69720, Note Name: G#3, Velocity: 42
Note OFF: Time 69840, Note Name: G#3
Note OFF: Time 69840, Note Name: F#3
Note ON: Time 69840, Note Name: F#3, Velocity: 51
Note ON: Time 69960, Note Name: G#3, Velocity: 45
Note OFF: Time 70080, Note Name: G#3
Note ON: Time 70080, Note Name: C4, Velocity: 45
Note OFF: Time 70200, Note Name: C4
Note ON: Time 70200, Note Name: D#4, Velocity: 45
Note OFF: Time 70320, Note Name: D#4
Note ON: Time 70320, Note Name: C4, Velocity: 41
Note OFF: Time 70440, Note Name: C4
Note ON: Time 70440, Note Name: G#3, Velocity: 38
Note OFF: Time 70560, Note Name: G#3
Note OFF: Time 70560, Note Name: F#3
Note ON: Time 70560, Note Name: F3, Velocity: 37
Note ON: Time 70680, Note Name: G#3, Velocity: 36
Note OFF: Time 70800, Note Name: G#3
Note ON: Time 70800, Note Name: C#4, Velocity: 39
Note OFF: Time 70920, Note Name: C#4
Note ON: Time 70920, Note Name: F4, Velocity: 42
Note OFF: Time 71040, Note Name: F4
Note ON: Time 71040, Note Name: C#4, Velocity: 40
Note OFF: Time 71160, Note Name: C#4
Note ON: Time 71160, Note Name: G#3, Velocity: 38
Note OFF: Time 71280, Note Name: G#3
Note OFF: Time 71280, Note Name: F3
Note ON: Time 71280, Note Name: F3, Velocity: 39
Note OFF: Time 71400, Note Name: F3
Note ON: Time 71400, Note Name: G#3, Velocity: 41
Note OFF: Time 71520, Note Name: G#3
Note ON: Time 71520, Note Name: C#4, Velocity: 45
Note OFF: Time 71640, Note Name: C#4
Note ON: Time 71640, Note Name: G#4, Velocity: 46
Note OFF: Time 71760, Note Name: G#4
Note ON: Time 71760, Note Name: C#4, Velocity: 44
Note OFF: Time 71880, Note Name: C#4
Note ON: Time 71880, Note Name: G#3, Velocity: 40
Note OFF: Time 72000, Note Name: G#3
Note ON: Time 72000, Note Name: D#3, Velocity: 39
Note OFF: Time 72120, Note Name: D#3
Note ON: Time 72120, Note Name: G#3, Velocity: 41
Note OFF: Time 72240, Note Name: G#3
Note ON: Time 72240, Note Name: C4, Velocity: 45
Note OFF: Time 72360, Note Name: C4
Note ON: Time 72360, Note Name: F#4, Velocity: 45
Note OFF: Time 72480, Note Name: F#4
Note ON: Time 72480, Note Name: C4, Velocity: 42
Note OFF: Time 72600, Note Name: C4
Note ON: Time 72600, Note Name: G#3, Velocity: 39
Note OFF: Time 72720, Note Name: G#3
Note ON: Time 72720, Note Name: D#3, Velocity: 37
Note OFF: Time 72840, Note Name: D#3
Note ON: Time 72840, Note Name: G#3, Velocity: 37
Note OFF: Time 72960, Note Name: G#3
Note ON: Time 72960, Note Name: C4, Velocity: 40
Note OFF: Time 73080, Note Name: C4
Note ON: Time 73080, Note Name: F#4, Velocity: 42
Note OFF: Time 73200, Note Name: F#4
Note ON: Time 73200, Note Name: C4, Velocity: 39
Note OFF: Time 73320, Note Name: C4
Note ON: Time 73320, Note Name: G#3, Velocity: 34
Note OFF: Time 73440, Note Name: G#3
Note ON: Time 73440, Note Name: D3, Velocity: 39
Note OFF: Time 73560, Note Name: D3
Note ON: Time 73560, Note Name: G#3, Velocity: 37
Note OFF: Time 73680, Note Name: G#3
Note ON: Time 73680, Note Name: B3, Velocity: 41
Note OFF: Time 73800, Note Name: B3
Note ON: Time 73800, Note Name: F4, Velocity: 44
Note OFF: Time 73920, Note Name: F4
Note ON: Time 73920, Note Name: B3, Velocity: 42
Note OFF: Time 74040, Note Name: B3
Note ON: Time 74040, Note Name: G#3, Velocity: 40
Note OFF: Time 74160, Note Name: G#3
Note ON: Time 74160, Note Name: D3, Velocity: 35
Note OFF: Time 74280, Note Name: D3
Note ON: Time 74280, Note Name: G#3, Velocity: 36
Note OFF: Time 74400, Note Name: G#3
Note ON: Time 74400, Note Name: A#3, Velocity: 41
Note OFF: Time 74520, Note Name: A#3
Note ON: Time 74520, Note Name: F4, Velocity: 44
Note OFF: Time 74640, Note Name: F4
Note ON: Time 74640, Note Name: A#3, Velocity: 42
Note OFF: Time 74760, Note Name: A#3
Note ON: Time 74760, Note Name: G#3, Velocity: 40
Note OFF: Time 74880, Note Name: G#3
Note ON: Time 74880, Note Name: D#3, Velocity: 35
Note OFF: Time 75000, Note Name: D#3
Note ON: Time 75000, Note Name: F#3, Velocity: 38
Note OFF: Time 75120, Note Name: F#3
Note ON: Time 75120, Note Name: A#3, Velocity: 41
Note OFF: Time 75240, Note Name: A#3
Note ON: Time 75240, Note Name: D#4, Velocity: 42
Note OFF: Time 75360, Note Name: D#4
Note ON: Time 75360, Note Name: A#3, Velocity: 41
Note OFF: Time 75480, Note Name: A#3
Note ON: Time 75480, Note Name: F#3, Velocity: 39
Note OFF: Time 75600, Note Name: F#3
Note ON: Time 75600, Note Name: F#2, Velocity: 34
Note OFF: Time 75720, Note Name: F#2
Note ON: Time 75720, Note Name: F#3, Velocity: 34
Note OFF: Time 75840, Note Name: F#3
Note ON: Time 75840, Note Name: A#3, Velocity: 39
Note OFF: Time 75960, Note Name: A#3
Note ON: Time 75960, Note Name: D#4, Velocity: 41
Note OFF: Time 76080, Note Name: D#4
Note ON: Time 76080, Note Name: A#3, Velocity: 39
Note OFF: Time 76200, Note Name: A#3
Note ON: Time 76200, Note Name: F#3, Velocity: 37
Note OFF: Time 76320, Note Name: F#3
Note ON: Time 76320, Note Name: G#2, Velocity: 36
Note OFF: Time 76440, Note Name: G#2
Note ON: Time 76440, Note Name: F3, Velocity: 39
Note OFF: Time 76560, Note Name: F3
Note ON: Time 76560, Note Name: G#3, Velocity: 40
Note OFF: Time 76680, Note Name: G#3
Note ON: Time 76680, Note Name: C#4, Velocity: 42
Note OFF: Time 76800, Note Name: C#4
Note ON: Time 76800, Note Name: G#3, Velocity: 40
Note OFF: Time 76920, Note Name: G#3
Note ON: Time 76920, Note Name: F3, Velocity: 38
Note OFF: Time 77040, Note Name: F3
Note ON: Time 77040, Note Name: G#2, Velocity: 35
Note OFF: Time 77160, Note Name: G#2
Note ON: Time 77160, Note Name: F3, Velocity: 35
Note OFF: Time 77280, Note Name: F3
Note ON: Time 77280, Note Name: G#3, Velocity: 37
Note OFF: Time 77400, Note Name: G#3
Note ON: Time 77400, Note Name: C#4, Velocity: 39
Note OFF: Time 77520, Note Name: C#4
Note ON: Time 77520, Note Name: G#3, Velocity: 37
Note OFF: Time 77640, Note Name: G#3
Note ON: Time 77640, Note Name: F3, Velocity: 35
Note OFF: Time 77760, Note Name: F3
Note ON: Time 77760, Note Name: G#2, Velocity: 35
Note OFF: Time 77880, Note Name: G#2
Note ON: Time 77880, Note Name: F3, Velocity: 37
Note OFF: Time 78000, Note Name: F3
Note ON: Time 78000, Note Name: G#3, Velocity: 39
Note OFF: Time 78120, Note Name: G#3
Note ON: Time 78120, Note Name: D4, Velocity: 41
Note OFF: Time 78240, Note Name: D4
Note ON: Time 78240, Note Name: G#3, Velocity: 39
Note OFF: Time 78360, Note Name: G#3
Note ON: Time 78360, Note Name: F3, Velocity: 36
Note OFF: Time 78480, Note Name: F3
Note ON: Time 78480, Note Name: G#2, Velocity: 37
Note OFF: Time 78600, Note Name: G#2
Note ON: Time 78600, Note Name: F3, Velocity: 39
Note OFF: Time 78720, Note Name: F3
Note ON: Time 78720, Note Name: G#3, Velocity: 43
Note OFF: Time 78840, Note Name: G#3
Note ON: Time 78840, Note Name: D4, Velocity: 48
Note OFF: Time 78960, Note Name: D4
Note ON: Time 78960, Note Name: G#3, Velocity: 45
Note OFF: Time 79080, Note Name: G#3
Note ON: Time 79080, Note Name: F3, Velocity: 41
Note OFF: Time 79200, Note Name: F3
Note ON: Time 79200, Note Name: G#2, Velocity: 39
Note OFF: Time 79320, Note Name: G#2
Note ON: Time 79320, Note Name: F3, Velocity: 40
Note OFF: Time 79440, Note Name: F3
Note ON: Time 79440, Note Name: G#3, Velocity: 43
Note OFF: Time 79560, Note Name: G#3
Note ON: Time 79560, Note Name: D4, Velocity: 45
Note OFF: Time 79680, Note Name: D4
Note ON: Time 79680, Note Name: G#3, Velocity: 42
Note OFF: Time 79800, Note Name: G#3
Note ON: Time 79800, Note Name: F3, Velocity: 36
Note OFF: Time 79920, Note Name: F3
Note ON: Time 79920, Note Name: G#2, Velocity: 39
Note OFF: Time 80040, Note Name: G#2
Note ON: Time 80040, Note Name: F3, Velocity: 40
Note OFF: Time 80160, Note Name: F3
Note ON: Time 80160, Note Name: G#3, Velocity: 43
Note OFF: Time 80280, Note Name: G#3
Note ON: Time 80280, Note Name: D4, Velocity: 47
Note OFF: Time 80400, Note Name: D4
Note ON: Time 80400, Note Name: G#3, Velocity: 44
Note OFF: Time 80520, Note Name: G#3
Note ON: Time 80520, Note Name: F3, Velocity: 40
Note OFF: Time 80640, Note Name: F3
Note ON: Time 80640, Note Name: G#2, Velocity: 41
Note OFF: Time 80760, Note Name: G#2
Note ON: Time 80760, Note Name: D#3, Velocity: 43
Note OFF: Time 80880, Note Name: D#3
Note ON: Time 80880, Note Name: F#3, Velocity: 47
Note OFF: Time 81000, Note Name: F#3
Note ON: Time 81000, Note Name: D#4, Velocity: 50
Note OFF: Time 81120, Note Name: D#4
Note ON: Time 81120, Note Name: F#3, Velocity: 46
Note OFF: Time 81240, Note Name: F#3
Note ON: Time 81240, Note Name: D#3, Velocity: 43
Note OFF: Time 81360, Note Name: D#3
Note ON: Time 81360, Note Name: G#2, Velocity: 67
Note OFF: Time 81480, Note Name: G#2
Note ON: Time 81480, Note Name: D#3, Velocity: 50
Note OFF: Time 81600, Note Name: D#3
Note ON: Time 81600, Note Name: F#3, Velocity: 55
Note OFF: Time 81720, Note Name: F#3
Note ON: Time 81720, Note Name: D#4, Velocity: 58
Note OFF: Time 81840, Note Name: D#4
Note ON: Time 81840, Note Name: F#3, Velocity: 55
Note OFF: Time 81960, Note Name: F#3
Note ON: Time 81960, Note Name: D#3, Velocity: 52
Note OFF: Time 82080, Note Name: D#3
Note ON: Time 82080, Note Name: G#2, Velocity: 62
Note OFF: Time 82200, Note Name: G#2
Note ON: Time 82200, Note Name: D#3, Velocity: 50
Note OFF: Time 82320, Note Name: D#3
Note ON: Time 82320, Note Name: F#3, Velocity: 55
Note OFF: Time 82440, Note Name: F#3
Note ON: Time 82440, Note Name: C4, Velocity: 58
Note OFF: Time 82560, Note Name: C4
Note ON: Time 82560, Note Name: F#3, Velocity: 55
Note OFF: Time 82680, Note Name: F#3
Note ON: Time 82680, Note Name: D#3, Velocity: 51
Note OFF: Time 82800, Note Name: D#3
Note ON: Time 82800, Note Name: G#2, Velocity: 67
Note OFF: Time 82920, Note Name: G#2
Note ON: Time 82920, Note Name: D#3, Velocity: 57
Note OFF: Time 83040, Note Name: D#3
Note ON: Time 83040, Note Name: F#3, Velocity: 61
Note OFF: Time 83160, Note Name: F#3
Note ON: Time 83160, Note Name: C4, Velocity: 65
Note OFF: Time 83280, Note Name: C4
Note ON: Time 83280, Note Name: F#3, Velocity: 62
Note OFF: Time 83400, Note Name: F#3
Note ON: Time 83400, Note Name: D#3, Velocity: 59
Note OFF: Time 83520, Note Name: D#3
Note ON: Time 83520, Note Name: C#2, Velocity: 71
Note OFF: Time 83640, Note Name: C#2
Note ON: Time 84000, Note Name: G#2, Velocity: 70
Note OFF: Time 84120, Note Name: G#2
Note ON: Time 84120, Note Name: F3, Velocity: 75
Note OFF: Time 84240, Note Name: F3
Note ON: Time 84240, Note Name: C#4, Velocity: 83
Note OFF: Time 84480, Note Name: C#4
Note ON: Time 84960, Note Name: G#1, Velocity: 73
Note OFF: Time 85080, Note Name: G#1
Note ON: Time 85440, Note Name: G#2, Velocity: 68
Note OFF: Time 85560, Note Name: G#2
Note ON: Time 85560, Note Name: D#3, Velocity: 74
Note OFF: Time 85680, Note Name: D#3
Note ON: Time 85680, Note Name: C4, Velocity: 84
Note OFF: Time 85920, Note Name: C4
Note ON: Time 86400, Note Name: C#2, Velocity: 78
Note OFF: Time 86520, Note Name: C#2
Note ON: Time 86880, Note Name: G#2, Velocity: 70
Note OFF: Time 87000, Note Name: G#2
Note ON: Time 87000, Note Name: F3, Velocity: 75
Note OFF: Time 87120, Note Name: F3
Note ON: Time 87120, Note Name: C#4, Velocity: 83
Note OFF: Time 87360, Note Name: C#4
Note ON: Time 87840, Note Name: G#1, Velocity: 78
Note OFF: Time 87960, Note Name: G#1
Note ON: Time 88320, Note Name: G#2, Velocity: 68
Note OFF: Time 88440, Note Name: G#2
Note ON: Time 88440, Note Name: D#3, Velocity: 74
Note OFF: Time 88560, Note Name: D#3
Note ON: Time 88560, Note Name: C4, Velocity: 84
Note OFF: Time 88800, Note Name: C4
Note ON: Time 89280, Note Name: C#1, Velocity: 82
Note OFF: Time 89520, Note Name: C#1
Note ON: Time 89760, Note Name: G#2, Velocity: 68
Note OFF: Time 89880, Note Name: G#2
Note ON: Time 89880, Note Name: F3, Velocity: 74
Note OFF: Time 90000, Note Name: F3
Note ON: Time 90000, Note Name: C#4, Velocity: 84
Note OFF: Time 90240, Note Name: C#4
Note ON: Time 92160, Note Name: C#1, Velocity: 86
Note ON: Time 92160, Note Name: C#2, Velocity: 102
Note OFF: Time 92280, Note Name: C#2
Note OFF: Time 92280, Note Name: C#1
Note ON: Time 92880, Note Name: C#4, Velocity: 86
Note ON: Time 92880, Note Name: C#5, Velocity: 102
Note OFF: Time 93600, Note Name: C#5
Note OFF: Time 93600, Note Name: C#4
Note ON: Time 95520, Note Name: A2, Velocity: 27
Note OFF: Time 95600, Note Name: A2
Note ON: Time 95600, Note Name: A#2, Velocity: 28
Note OFF: Time 95680, Note Name: A#2
Note ON: Time 95680, Note Name: C#3, Velocity: 29
Note OFF: Time 95760, Note Name: C#3
Note ON: Time 95760, Note Name: F3, Velocity: 34
Note OFF: Time 95880, Note Name: F3
Note ON: Time 96240, Note Name: A2, Velocity: 26
Note OFF: Time 96320, Note Name: A2
Note ON: Time 96320, Note Name: A#2, Velocity: 27
Note OFF: Time 96400, Note Name: A#2
Note ON: Time 96400, Note Name: C#3, Velocity: 29
Note OFF: Time 96480, Note Name: C#3
Note ON: Time 96480, Note Name: F3, Velocity: 34
Note OFF: Time 96600, Note Name: F3
Note ON: Time 97920, Note Name: A#1, Velocity: 95
Note ON: Time 97920, Note Name: A#2, Velocity: 95
Note OFF: Time 98040, Note Name: A#2
Note OFF: Time 98040, Note Name: A#1
Note ON: Time 98640, Note Name: A#3, Velocity: 72
Note ON: Time 98640, Note Name: C4, Velocity: 72
Note ON: Time 98640, Note Name: D#4, Velocity: 85
Note ON: Time 98640, Note Name: F#4, Velocity: 85
Note ON: Time 98640, Note Name: A#4, Velocity: 85
Note OFF: Time 100080, Note Name: A#4
Note OFF: Time 100080, Note Name: D#4
Note OFF: Time 100080, Note Name: A#3
Note OFF: Time 100080, Note Name: C4
Note OFF: Time 100080, Note Name: F#4
Note ON: Time 100080, Note Name: A#3, Velocity: 47
Note ON: Time 100080, Note Name: C4, Velocity: 47
Note ON: Time 100080, Note Name: D#4, Velocity: 56
Note ON: Time 100080, Note Name: F#4, Velocity: 56
Note ON: Time 100080, Note Name: A#4, Velocity: 56
Note OFF: Time 100440, Note Name: A#4
Note OFF: Time 100440, Note Name: D#4
Note OFF: Time 100440, Note Name: A#3
Note OFF: Time 100440, Note Name: C4
Note OFF: Time 100440, Note Name: F#4
Note ON: Time 100440, Note Name: A#3, Velocity: 51
Note ON: Time 100440, Note Name: C4, Velocity: 51
Note ON: Time 100440, Note Name: D#4, Velocity: 61
Note ON: Time 100440, Note Name: F#4, Velocity: 61
Note ON: Time 100440, Note Name: A#4, Velocity: 61
Note OFF: Time 100560, Note Name: A#4
Note OFF: Time 100560, Note Name: D#4
Note OFF: Time 100560, Note Name: A#3
Note OFF: Time 100560, Note Name: C4
Note OFF: Time 100560, Note Name: F#4
Note ON: Time 100560, Note Name: A#3, Velocity: 56
Note ON: Time 100560, Note Name: C4, Velocity: 56
Note ON: Time 100560, Note Name: D#4, Velocity: 66
Note ON: Time 100560, Note Name: F#4, Velocity: 66
Note ON: Time 100560, Note Name: A#4, Velocity: 66
Note OFF: Time 100800, Note Name: A#4
Note OFF: Time 100800, Note Name: D#4
Note OFF: Time 100800, Note Name: A#3
Note OFF: Time 100800, Note Name: C4
Note OFF: Time 100800, Note Name: F#4
Note ON: Time 100800, Note Name: A#3, Velocity: 52
Note ON: Time 100800, Note Name: C#4, Velocity: 52
Note ON: Time 100800, Note Name: F4, Velocity: 62
Note ON: Time 100800, Note Name: A#4, Velocity: 62
Note OFF: Time 101040, Note Name: A#4
Note OFF: Time 101040, Note Name: A#3
Note OFF: Time 101040, Note Name: C#4
Note OFF: Time 101040, Note Name: F4
Note ON: Time 101280, Note Name: A2, Velocity: 27
Note OFF: Time 101360, Note Name: A2
Note ON: Time 101360, Note Name: A#2, Velocity: 28
Note OFF: Time 101440, Note Name: A#2
Note ON: Time 101440, Note Name: C#3, Velocity: 30
Note OFF: Time 101520, Note Name: C#3
Note ON: Time 101520, Note Name: F3, Velocity: 35
Note OFF: Time 101640, Note Name: F3
Note ON: Time 102000, Note Name: A2, Velocity: 26
Note OFF: Time 102080, Note Name: A2
Note ON: Time 102080, Note Name: A#2, Velocity: 28
Note OFF: Time 102160, Note Name: A#2
Note ON: Time 102160, Note Name: C#3, Velocity: 30
Note OFF: Time 102240, Note Name: C#3
Note ON: Time 102240, Note Name: F3, Velocity: 34
Note OFF: Time 102360, Note Name: F3
Note ON: Time 103680, Note Name: G#1, Velocity: 95
Note ON: Time 103680, Note Name: G#2, Velocity: 95
Note OFF: Time 103800, Note Name: G#2
Note OFF: Time 103800, Note Name: G#1
Note ON: Time 104340, Note Name: G#3, Velocity: 75
Note ON: Time 104370, Note Name: F4, Velocity: 89
Note ON: Time 104400, Note Name: C#5, Velocity: 89
Note OFF: Time 105840, Note Name: C#5
Note OFF: Time 105840, Note Name: F4
Note OFF: Time 105840, Note Name: G#3
Note ON: Time 105840, Note Name: G#3, Velocity: 44
Note ON: Time 105840, Note Name: D#4, Velocity: 52
Note ON: Time 105840, Note Name: F#4, Velocity: 52
Note ON: Time 105840, Note Name: G#4, Velocity: 52
Note OFF: Time 105984, Note Name: G#4
Note OFF: Time 105984, Note Name: G#3
Note OFF: Time 105984, Note Name: D#4
Note OFF: Time 105984, Note Name: F#4
Note ON: Time 105984, Note Name: F#4, Velocity: 52
Note ON: Time 105984, Note Name: D#4, Velocity: 52
Note ON: Time 105984, Note Name: G#3, Velocity: 44
Note ON: Time 105984, Note Name: G#4, Velocity: 52
Note OFF: Time 106128, Note Name: G#4
Note OFF: Time 106128, Note Name: F#4
Note OFF: Time 106128, Note Name: D#4
Note OFF: Time 106128, Note Name: G#3
Note ON: Time 106128, Note Name: G#4, Velocity: 54
Note ON: Time 106128, Note Name: F#4, Velocity: 54
Note ON: Time 106128, Note Name: D#4, Velocity: 54
Note ON: Time 106128, Note Name: G#3, Velocity: 45
Note OFF: Time 106272, Note Name: G#3
Note OFF: Time 106272, Note Name: G#4
Note OFF: Time 106272, Note Name: F#4
Note OFF: Time 106272, Note Name: D#4
Note ON: Time 106272, Note Name: G#4, Velocity: 61
Note ON: Time 106272, Note Name: F#4, Velocity: 61
Note ON: Time 106272, Note Name: D#4, Velocity: 61
Note ON: Time 106272, Note Name: G#3, Velocity: 51
Note OFF: Time 106416, Note Name: G#3
Note OFF: Time 106416, Note Name: G#4
Note OFF: Time 106416, Note Name: F#4
Note OFF: Time 106416, Note Name: D#4
Note ON: Time 106416, Note Name: G#4, Velocity: 58
Note ON: Time 106416, Note Name: F#4, Velocity: 58
Note ON: Time 106416, Note Name: D#4, Velocity: 58
Note ON: Time 106416, Note Name: G#3, Velocity: 49
Note OFF: Time 106560, Note Name: G#3
Note OFF: Time 106560, Note Name: G#4
Note OFF: Time 106560, Note Name: F#4
Note OFF: Time 106560, Note Name: D#4
Note ON: Time 106560, Note Name: G#4, Velocity: 58
Note ON: Time 106560, Note Name: C#4, Velocity: 49
Note ON: Time 106560, Note Name: F4, Velocity: 58
Note OFF: Time 106800, Note Name: F4
Note OFF: Time 106800, Note Name: C#4
Note OFF: Time 106800, Note Name: G#4
Note ON: Time 107280, Note Name: F4, Velocity: 77
Note ON: Time 107280, Note Name: C4, Velocity: 77
Note ON: Time 107280, Note Name: F3, Velocity: 77
Note OFF: Time 107760, Note Name: F3
Note OFF: Time 107760, Note Name: C4
Note OFF: Time 107760, Note Name: F4
Note ON: Time 108000, Note Name: F2, Velocity: 77
Note ON: Time 108000, Note Name: C3, Velocity: 77
Note ON: Time 108000, Note Name: F3, Velocity: 77
Note OFF: Time 108480, Note Name: F3
Note OFF: Time 108480, Note Name: C3
Note OFF: Time 108480, Note Name: F2
Note ON: Time 108720, Note Name: F1, Velocity: 79
Note ON: Time 108720, Note Name: F2, Velocity: 94
Note OFF: Time 110400, Note Name: F2
Note OFF: Time 110400, Note Name: F1
Note ON: Time 110400, Note Name: F#1, Velocity: 82
Note ON: Time 110400, Note Name: F#2, Velocity: 97
Note OFF: Time 110580, Note Name: F#2
Note OFF: Time 110580, Note Name: F#1
Note ON: Time 112800, Note Name: A2, Velocity: 27
Note OFF: Time 112880, Note Name: A2
Note ON: Time 112880, Note Name: A#2, Velocity: 28
Note OFF: Time 112960, Note Name: A#2
Note ON: Time 112960, Note Name: C#3, Velocity: 29
Note OFF: Time 113040, Note Name: C#3
Note ON: Time 113040, Note Name: F3, Velocity: 34
Note OFF: Time 113160, Note Name: F3
Note ON: Time 113520, Note Name: A2, Velocity: 27
Note OFF: Time 113600, Note Name: A2
Note ON: Time 113600, Note Name: A#2, Velocity: 28
Note OFF: Time 113680, Note Name: A#2
Note ON: Time 113680, Note Name: C#3, Velocity: 29
Note OFF: Time 113760, Note Name: C#3
Note ON: Time 113760, Note Name: F3, Velocity: 34
Note OFF: Time 113880, Note Name: F3
Note ON: Time 115200, Note Name: A#2, Velocity: 95
Note ON: Time 115200, Note Name: A#1, Velocity: 95
Note OFF: Time 115320, Note Name: A#1
Note OFF: Time 115320, Note Name: A#2
Note ON: Time 115920, Note Name: D#4, Velocity: 85
Note ON: Time 115920, Note Name: A#3, Velocity: 72
Note ON: Time 115920, Note Name: C4, Velocity: 72
Note ON: Time 115920, Note Name: A#4, Velocity: 85
Note ON: Time 115920, Note Name: F#4, Velocity: 85
Note OFF: Time 117000, Note Name: F#4
Note OFF: Time 117000, Note Name: C4
Note OFF: Time 117000, Note Name: D#4
Note OFF: Time 117000, Note Name: A#3
Note OFF: Time 117000, Note Name: A#4
Note ON: Time 117000, Note Name: A#3, Velocity: 47
Note ON: Time 117000, Note Name: C4, Velocity: 47
Note ON: Time 117000, Note Name: D#4, Velocity: 56
Note ON: Time 117000, Note Name: F#4, Velocity: 56
Note ON: Time 117000, Note Name: A#4, Velocity: 56
Note OFF: Time 117120, Note Name: A#4
Note OFF: Time 117120, Note Name: D#4
Note OFF: Time 117120, Note Name: A#3
Note OFF: Time 117120, Note Name: C4
Note OFF: Time 117120, Note Name: F#4
Note ON: Time 117120, Note Name: A#3, Velocity: 47
Note ON: Time 117120, Note Name: C4, Velocity: 47
Note ON: Time 117120, Note Name: D#4, Velocity: 56
Note ON: Time 117120, Note Name: F#4, Velocity: 56
Note ON: Time 117120, Note Name: A#4, Velocity: 56
Note OFF: Time 117360, Note Name: A#4
Note OFF: Time 117360, Note Name: D#4
Note OFF: Time 117360, Note Name: A#3
Note OFF: Time 117360, Note Name: C4
Note OFF: Time 117360, Note Name: F#4
Note ON: Time 117360, Note Name: D#4, Velocity: 56
Note ON: Time 117360, Note Name: A#3, Velocity: 47
Note ON: Time 117360, Note Name: C4, Velocity: 47
Note ON: Time 117360, Note Name: F#4, Velocity: 56
Note ON: Time 117360, Note Name: A#4, Velocity: 56
Note OFF: Time 117720, Note Name: A#4
Note OFF: Time 117720, Note Name: C4
Note OFF: Time 117720, Note Name: D#4
Note OFF: Time 117720, Note Name: A#3
Note OFF: Time 117720, Note Name: F#4
Note ON: Time 117720, Note Name: C4, Velocity: 51
Note ON: Time 117720, Note Name: D#4, Velocity: 61
Note ON: Time 117720, Note Name: A#3, Velocity: 51
Note ON: Time 117720, Note Name: F#4, Velocity: 61
Note ON: Time 117720, Note Name: A#4, Velocity: 61
Note OFF: Time 117840, Note Name: A#4
Note OFF: Time 117840, Note Name: A#3
Note OFF: Time 117840, Note Name: C4
Note OFF: Time 117840, Note Name: D#4
Note OFF: Time 117840, Note Name: F#4
Note ON: Time 117840, Note Name: D#4, Velocity: 66
Note ON: Time 117840, Note Name: F#4, Velocity: 66
Note ON: Time 117840, Note Name: A#3, Velocity: 56
Note ON: Time 117840, Note Name: C4, Velocity: 56
Note ON: Time 117840, Note Name: A#4, Velocity: 66
Note OFF: Time 118080, Note Name: A#4
Note OFF: Time 118080, Note Name: A#3
Note OFF: Time 118080, Note Name: D#4
Note OFF: Time 118080, Note Name: F#4
Note OFF: Time 118080, Note Name: C4
Note ON: Time 118080, Note Name: F4, Velocity: 62
Note ON: Time 118080, Note Name: A#3, Velocity: 52
Note ON: Time 118080, Note Name: C#4, Velocity: 52
Note ON: Time 118080, Note Name: A#4, Velocity: 62
Note OFF: Time 118320, Note Name: A#4
Note OFF: Time 118320, Note Name: F4
Note OFF: Time 118320, Note Name: A#3
Note OFF: Time 118320, Note Name: C#4
Note ON: Time 118560, Note Name: A2, Velocity: 27
Note OFF: Time 118640, Note Name: A2
Note ON: Time 118640, Note Name: A#2, Velocity: 29
Note OFF: Time 118720, Note Name: A#2
Note ON: Time 118720, Note Name: C#3, Velocity: 30
Note OFF: Time 118800, Note Name: C#3
Note ON: Time 118800, Note Name: F3, Velocity: 35
Note OFF: Time 118920, Note Name: F3
Note ON: Time 119280, Note Name: A2, Velocity: 24
Note OFF: Time 119360, Note Name: A2
Note ON: Time 119360, Note Name: A#2, Velocity: 26
Note OFF: Time 119440, Note Name: A#2
Note ON: Time 119440, Note Name: C#3, Velocity: 27
Note OFF: Time 119520, Note Name: C#3
Note ON: Time 119520, Note Name: F3, Velocity: 34
Note OFF: Time 119640, Note Name: F3
Note ON: Time 120960, Note Name: C1, Velocity: 95
Note ON: Time 120960, Note Name: C2, Velocity: 95
Note OFF: Time 121080, Note Name: C2
Note OFF: Time 121080, Note Name: C1
Note ON: Time 121680, Note Name: G#4, Velocity: 89
Note ON: Time 121680, Note Name: C5, Velocity: 89
Note ON: Time 121680, Note Name: F4, Velocity: 89
Note ON: Time 121680, Note Name: C4, Velocity: 75
Note OFF: Time 123120, Note Name: C4
Note OFF: Time 123120, Note Name: G#4
Note OFF: Time 123120, Note Name: C5
Note OFF: Time 123120, Note Name: F4
Note ON: Time 123120, Note Name: C4, Velocity: 58
Note ON: Time 123120, Note Name: A#4, Velocity: 69
Note ON: Time 123120, Note Name: E4, Velocity: 69
Note ON: Time 123120, Note Name: C5, Velocity: 69
Note OFF: Time 123300, Note Name: C5
Note OFF: Time 123300, Note Name: C4
Note OFF: Time 123300, Note Name: A#4
Note OFF: Time 123300, Note Name: E4
Note ON: Time 123300, Note Name: C4, Velocity: 53
Note ON: Time 123300, Note Name: E4, Velocity: 63
Note ON: Time 123300, Note Name: A#4, Velocity: 63
Note ON: Time 123300, Note Name: C5, Velocity: 63
Note OFF: Time 123480, Note Name: C5
Note OFF: Time 123480, Note Name: C4
Note OFF: Time 123480, Note Name: E4
Note OFF: Time 123480, Note Name: A#4
Note ON: Time 123480, Note Name: E4, Velocity: 61
Note ON: Time 123480, Note Name: C4, Velocity: 51
Note ON: Time 123480, Note Name: C5, Velocity: 61
Note ON: Time 123480, Note Name: A#4, Velocity: 61
Note OFF: Time 123660, Note Name: A#4
Note OFF: Time 123660, Note Name: E4
Note OFF: Time 123660, Note Name: C4
Note OFF: Time 123660, Note Name: C5
Note ON: Time 123660, Note Name: C5, Velocity: 62
Note ON: Time 123660, Note Name: E4, Velocity: 62
Note ON: Time 123660, Note Name: C4, Velocity: 52
Note ON: Time 123660, Note Name: A#4, Velocity: 62
Note OFF: Time 123840, Note Name: A#4
Note OFF: Time 123840, Note Name: C5
Note OFF: Time 123840, Note Name: E4
Note OFF: Time 123840, Note Name: C4
Note ON: Time 123840, Note Name: C5, Velocity: 68
Note ON: Time 123840, Note Name: F4, Velocity: 68
Note ON: Time 123840, Note Name: G#4, Velocity: 68
Note OFF: Time 124080, Note Name: G#4
Note OFF: Time 124080, Note Name: F4
Note OFF: Time 124080, Note Name: C5
Note ON: Time 124560, Note Name: F3, Velocity: 65
Note ON: Time 124560, Note Name: F4, Velocity: 77
Note ON: Time 124560, Note Name: C4, Velocity: 77
Note OFF: Time 125040, Note Name: C4
Note OFF: Time 125040, Note Name: F4
Note OFF: Time 125040, Note Name: F3
Note ON: Time 125280, Note Name: F3, Velocity: 77
Note ON: Time 125280, Note Name: C3, Velocity: 77
Note ON: Time 125280, Note Name: F2, Velocity: 65
Note OFF: Time 125760, Note Name: F2
Note OFF: Time 125760, Note Name: C3
Note OFF: Time 125760, Note Name: F3
Note ON: Time 126000, Note Name: E1, Velocity: 79
Note ON: Time 126000, Note Name: E2, Velocity: 94
Note OFF: Time 127440, Note Name: E2
Note OFF: Time 127440, Note Name: E1
Note ON: Time 127440, Note Name: F1, Velocity: 94
Note OFF: Time 128160, Note Name: F1
Note ON: Time 128160, Note Name: D1, Velocity: 45
Note ON: Time 128240, Note Name: D#1, Velocity: 45
Note OFF: Time 128250, Note Name: D1
Note ON: Time 128320, Note Name: F1, Velocity: 45
Note OFF: Time 128330, Note Name: D#1
Note ON: Time 128400, Note Name: D#1, Velocity: 46
Note OFF: Time 128410, Note Name: F1
Note ON: Time 128480, Note Name: F1, Velocity: 47
Note OFF: Time 128490, Note Name: D#1
Note ON: Time 128560, Note Name: D#1, Velocity: 49
Note OFF: Time 128570, Note Name: F1
Note ON: Time 128640, Note Name: F1, Velocity: 50
Note OFF: Time 128650, Note Name: D#1
Note ON: Time 128720, Note Name: D#1, Velocity: 51
Note OFF: Time 128730, Note Name: F1
Note ON: Time 128800, Note Name: F1, Velocity: 51
Note OFF: Time 128810, Note Name: D#1
Note ON: Time 128880, Note Name: D#1, Velocity: 52
Note OFF: Time 128890, Note Name: F1
Note ON: Time 128940, Note Name: F1, Velocity: 53
Note OFF: Time 128950, Note Name: D#1
Note ON: Time 129000, Note Name: D#1, Velocity: 53
Note OFF: Time 129010, Note Name: F1
Note ON: Time 129060, Note Name: F1, Velocity: 54
Note OFF: Time 129070, Note Name: D#1
Note OFF: Time 129120, Note Name: F1
Note ON: Time 129120, Note Name: D#1, Velocity: 55
Note OFF: Time 129180, Note Name: D#1
Note ON: Time 129180, Note Name: F1, Velocity: 55
Note OFF: Time 129240, Note Name: F1
Note ON: Time 129240, Note Name: D#1, Velocity: 56
Note OFF: Time 129300, Note Name: D#1
Note ON: Time 129300, Note Name: F1, Velocity: 56
Note OFF: Time 129360, Note Name: F1
Note ON: Time 129360, Note Name: D#1, Velocity: 59
Note ON: Time 129440, Note Name: D1, Velocity: 73
Note OFF: Time 129450, Note Name: D#1
Note ON: Time 129520, Note Name: D#1, Velocity: 73
Note OFF: Time 129530, Note Name: D1
Note ON: Time 129600, Note Name: C#1, Velocity: 74
Note ON: Time 129600, Note Name: C#2, Velocity: 88
Note OFF: Time 129610, Note Name: D#1
Note OFF: Time 129720, Note Name: C#2
Note OFF: Time 129720, Note Name: C#1
Note ON: Time 130080, Note Name: G#2, Velocity: 45
Note ON: Time 130080, Note Name: G#3, Velocity: 45
Note OFF: Time 130320, Note Name: G#3
Note OFF: Time 130320, Note Name: G#2
Note ON: Time 130320, Note Name: C#4, Velocity: 53
Note ON: Time 130320, Note Name: F3, Velocity: 53
Note OFF: Time 130560, Note Name: F3
Note OFF: Time 130560, Note Name: C#4
Note ON: Time 130800, Note Name: G#2, Velocity: 42
Note ON: Time 130800, Note Name: G#3, Velocity: 42
Note OFF: Time 131040, Note Name: G#3
Note OFF: Time 131040, Note Name: G#2
Note ON: Time 131040, Note Name: F3, Velocity: 47
Note ON: Time 131040, Note Name: C#4, Velocity: 47
Note OFF: Time 131280, Note Name: C#4
Note OFF: Time 131280, Note Name: F3
Note ON: Time 132480, Note Name: G#1, Velocity: 52
Note ON: Time 132480, Note Name: G#2, Velocity: 52
Note OFF: Time 132600, Note Name: G#2
Note OFF: Time 132600, Note Name: G#1
Note ON: Time 133200, Note Name: F#4, Velocity: 38
Note ON: Time 133200, Note Name: G3, Velocity: 38
Note ON: Time 133200, Note Name: C4, Velocity: 38
Note OFF: Time 133440, Note Name: C4
Note OFF: Time 133440, Note Name: G3
Note OFF: Time 133440, Note Name: F#4
Note ON: Time 133440, Note Name: G#3, Velocity: 35
Note ON: Time 133440, Note Name: C4, Velocity: 35
Note ON: Time 133440, Note Name: F#4, Velocity: 35
Note OFF: Time 133680, Note Name: F#4
Note OFF: Time 133680, Note Name: C4
Note OFF: Time 133680, Note Name: G#3
Note ON: Time 133680, Note Name: F#4, Velocity: 31
Note ON: Time 133680, Note Name: G#3, Velocity: 31
Note ON: Time 133680, Note Name: C4, Velocity: 31
Note OFF: Time 133800, Note Name: C4
Note OFF: Time 133800, Note Name: G#3
Note OFF: Time 133800, Note Name: F#4
Note ON: Time 134640, Note Name: A3, Velocity: 35
Note ON: Time 134640, Note Name: C4, Velocity: 35
Note ON: Time 134640, Note Name: F#4, Velocity: 35
Note OFF: Time 134880, Note Name: F#4
Note OFF: Time 134880, Note Name: C4
Note OFF: Time 134880, Note Name: A3
Note ON: Time 134880, Note Name: F#4, Velocity: 32
Note ON: Time 134880, Note Name: C4, Velocity: 32
Note ON: Time 134880, Note Name: G#3, Velocity: 32
Note OFF: Time 135120, Note Name: G#3
Note OFF: Time 135120, Note Name: C4
Note OFF: Time 135120, Note Name: F#4
Note ON: Time 135120, Note Name: F#4, Velocity: 28
Note ON: Time 135120, Note Name: C4, Velocity: 28
Note ON: Time 135120, Note Name: G#3, Velocity: 28
Note OFF: Time 135240, Note Name: G#3
Note OFF: Time 135240, Note Name: C4
Note OFF: Time 135240, Note Name: F#4
Note ON: Time 135360, Note Name: C#1, Velocity: 74
Note ON: Time 135360, Note Name: C#2, Velocity: 88
Note OFF: Time 135480, Note Name: C#2
Note OFF: Time 135480, Note Name: C#1
Note ON: Time 135840, Note Name: G#2, Velocity: 45
Note ON: Time 135840, Note Name: G#3, Velocity: 45
Note OFF: Time 136080, Note Name: G#3
Note OFF: Time 136080, Note Name: G#2
Note ON: Time 136080, Note Name: C#4, Velocity: 53
Note ON: Time 136080, Note Name: F3, Velocity: 53
Note OFF: Time 136320, Note Name: F3
Note OFF: Time 136320, Note Name: C#4
Note ON: Time 136560, Note Name: G#2, Velocity: 42
Note ON: Time 136560, Note Name: G#3, Velocity: 42
Note OFF: Time 136800, Note Name: G#3
Note OFF: Time 136800, Note Name: G#2
Note ON: Time 136800, Note Name: F3, Velocity: 47
Note ON: Time 136800, Note Name: C#4, Velocity: 47
Note OFF: Time 137040, Note Name: C#4
Note OFF: Time 137040, Note Name: F3
Note ON: Time 138240, Note Name: G#2, Velocity: 25
Note ON: Time 138240, Note Name: D#3, Velocity: 25
Note ON: Time 138240, Note Name: F#3, Velocity: 25
Note OFF: Time 138960, Note Name: F#3
Note OFF: Time 138960, Note Name: D#3
Note OFF: Time 138960, Note Name: G#2
Note ON: Time 138960, Note Name: C4, Velocity: 32
Note OFF: Time 139080, Note Name: C4
Note ON: Time 139080, Note Name: C#4, Velocity: 32
Note OFF: Time 139200, Note Name: C#4
Note ON: Time 139200, Note Name: D#4, Velocity: 32
Note OFF: Time 139320, Note Name: D#4
Note ON: Time 139320, Note Name: F4, Velocity: 32
Note OFF: Time 139440, Note Name: F4
Note ON: Time 139440, Note Name: F#4, Velocity: 32
Note OFF: Time 139560, Note Name: F#4
Note ON: Time 139560, Note Name: G#4, Velocity: 32
Note OFF: Time 139680, Note Name: G#4
Note ON: Time 139680, Note Name: A4, Velocity: 32
Note OFF: Time 139800, Note Name: A4
Note ON: Time 140400, Note Name: A3, Velocity: 30
Note OFF: Time 140520, Note Name: A3
Note ON: Time 140520, Note Name: G#3, Velocity: 29
Note OFF: Time 140640, Note Name: G#3
Note ON: Time 140640, Note Name: G3, Velocity: 28
Note OFF: Time 140760, Note Name: G3
Note ON: Time 140760, Note Name: F#3, Velocity: 27
Note OFF: Time 140880, Note Name: F#3
Note ON: Time 140880, Note Name: F3, Velocity: 26
Note OFF: Time 141000, Note Name: F3
Note ON: Time 141000, Note Name: D#3, Velocity: 25
Note OFF: Time 141120, Note Name: D#3
Note ON: Time 141120, Note Name: C#3, Velocity: 27
Note OFF: Time 141240, Note Name: C#3
Note ON: Time 141240, Note Name: G#3, Velocity: 28
Note OFF: Time 141360, Note Name: G#3
Note ON: Time 141360, Note Name: C#4, Velocity: 30
Note OFF: Time 141480, Note Name: C#4
Note ON: Time 141480, Note Name: F4, Velocity: 34
Note OFF: Time 141600, Note Name: F4
Note ON: Time 141600, Note Name: C#4, Velocity: 31
Note OFF: Time 141720, Note Name: C#4
Note ON: Time 141720, Note Name: G#3, Velocity: 30
Note OFF: Time 141840, Note Name: G#3
Note ON: Time 141840, Note Name: C#3, Velocity: 29
Note OFF: Time 141960, Note Name: C#3
Note ON: Time 141960, Note Name: B3, Velocity: 28
Note OFF: Time 142080, Note Name: B3
Note ON: Time 142080, Note Name: C#4, Velocity: 30
Note OFF: Time 142200, Note Name: C#4
Note ON: Time 142200, Note Name: F4, Velocity: 31
Note OFF: Time 142320, Note Name: F4
Note ON: Time 142320, Note Name: C#4, Velocity: 30
Note OFF: Time 142440, Note Name: C#4
Note ON: Time 142440, Note Name: B3, Velocity: 29
Note OFF: Time 142560, Note Name: B3
Note ON: Time 142560, Note Name: F#3, Velocity: 28
Note OFF: Time 142680, Note Name: F#3
Note ON: Time 142680, Note Name: B3, Velocity: 28
Note OFF: Time 142800, Note Name: B3
Note ON: Time 142800, Note Name: C#4, Velocity: 31
Note OFF: Time 142920, Note Name: C#4
Note ON: Time 142920, Note Name: F#4, Velocity: 34
Note OFF: Time 143040, Note Name: F#4
Note ON: Time 143040, Note Name: C#4, Velocity: 31
Note OFF: Time 143160, Note Name: C#4
Note ON: Time 143160, Note Name: B3, Velocity: 29
Note OFF: Time 143280, Note Name: B3
Note ON: Time 143280, Note Name: C#3, Velocity: 29
Note OFF: Time 143400, Note Name: C#3
Note ON: Time 143400, Note Name: A#3, Velocity: 28
Note OFF: Time 143520, Note Name: A#3
Note ON: Time 143520, Note Name: C#4, Velocity: 30
Note OFF: Time 143640, Note Name: C#4
Note ON: Time 143640, Note Name: F#4, Velocity: 33
Note OFF: Time 143760, Note Name: F#4
Note ON: Time 143760, Note Name: C#4, Velocity: 31
Note OFF: Time 143880, Note Name: C#4
Note ON: Time 143880, Note Name: A#3, Velocity: 30
Note OFF: Time 144000, Note Name: A#3
Note ON: Time 144000, Note Name: G#3, Velocity: 28
Note OFF: Time 144120, Note Name: G#3
Note ON: Time 144120, Note Name: B3, Velocity: 28
Note OFF: Time 144240, Note Name: B3
Note ON: Time 144240, Note Name: C#4, Velocity: 30
Note OFF: Time 144360, Note Name: C#4
Note ON: Time 144360, Note Name: G#4, Velocity: 33
Note OFF: Time 144480, Note Name: G#4
Note ON: Time 144480, Note Name: C#4, Velocity: 31
Note OFF: Time 144600, Note Name: C#4
Note ON: Time 144600, Note Name: B3, Velocity: 29
Note OFF: Time 144720, Note Name: B3
Note ON: Time 144720, Note Name: C#3, Velocity: 29
Note OFF: Time 144840, Note Name: C#3
Note ON: Time 144840, Note Name: B3, Velocity: 28
Note OFF: Time 144960, Note Name: B3
Note ON: Time 144960, Note Name: C#4, Velocity: 30
Note OFF: Time 145080, Note Name: C#4
Note ON: Time 145080, Note Name: F4, Velocity: 31
Note OFF: Time 145200, Note Name: F4
Note ON: Time 145200, Note Name: C#4, Velocity: 30
Note OFF: Time 145320, Note Name: C#4
Note ON: Time 145320, Note Name: B3, Velocity: 29
Note OFF: Time 145440, Note Name: B3
Note ON: Time 145440, Note Name: F#3, Velocity: 29
Note OFF: Time 145560, Note Name: F#3
Note ON: Time 145560, Note Name: A#3, Velocity: 30
Note OFF: Time 145680, Note Name: A#3
Note ON: Time 145680, Note Name: C#4, Velocity: 34
Note OFF: Time 145800, Note Name: C#4
Note ON: Time 145800, Note Name: F#4, Velocity: 35
Note OFF: Time 145920, Note Name: F#4
Note ON: Time 145920, Note Name: C#4, Velocity: 34
Note OFF: Time 146040, Note Name: C#4
Note ON: Time 146040, Note Name: A#3, Velocity: 33
Note OFF: Time 146160, Note Name: A#3
Note ON: Time 146160, Note Name: E3, Velocity: 35
Note OFF: Time 146280, Note Name: E3
Note ON: Time 146280, Note Name: A#3, Velocity: 36
Note OFF: Time 146400, Note Name: A#3
Note ON: Time 146400, Note Name: C#4, Velocity: 39
Note OFF: Time 146520, Note Name: C#4
Note ON: Time 146520, Note Name: G#4, Velocity: 37
Note OFF: Time 146640, Note Name: G#4
Note ON: Time 146640, Note Name: C#4, Velocity: 34
Note OFF: Time 146760, Note Name: C#4
Note ON: Time 146760, Note Name: A#3, Velocity: 31
Note OFF: Time 146880, Note Name: A#3
Note ON: Time 146880, Note Name: D#3, Velocity: 36
Note OFF: Time 147000, Note Name: D#3
Note ON: Time 147000, Note Name: A#3, Velocity: 38
Note OFF: Time 147120, Note Name: A#3
Note ON: Time 147120, Note Name: C#4, Velocity: 41
Note OFF: Time 147240, Note Name: C#4
Note ON: Time 147240, Note Name: G4, Velocity: 45
Note OFF: Time 147360, Note Name: G4
Note ON: Time 147360, Note Name: C#4, Velocity: 42
Note OFF: Time 147480, Note Name: C#4
Note ON: Time 147480, Note Name: A#3, Velocity: 39
Note OFF: Time 147600, Note Name: A#3
Note ON: Time 147600, Note Name: G3, Velocity: 36
Note OFF: Time 147720, Note Name: G3
Note ON: Time 147720, Note Name: C#4, Velocity: 38
Note OFF: Time 147840, Note Name: C#4
Note ON: Time 147840, Note Name: D#4, Velocity: 41
Note OFF: Time 147960, Note Name: D#4
Note ON: Time 147960, Note Name: A#4, Velocity: 46
Note OFF: Time 148080, Note Name: A#4
Note ON: Time 148080, Note Name: D#4, Velocity: 42
Note OFF: Time 148200, Note Name: D#4
Note ON: Time 148200, Note Name: C#4, Velocity: 39
Note OFF: Time 148320, Note Name: C#4
Note ON: Time 148320, Note Name: G#3, Velocity: 37
Note OFF: Time 148440, Note Name: G#3
Note ON: Time 148440, Note Name: C#4, Velocity: 38
Note OFF: Time 148560, Note Name: C#4
Note ON: Time 148560, Note Name: D#4, Velocity: 42
Note OFF: Time 148680, Note Name: D#4
Note ON: Time 148680, Note Name: G#4, Velocity: 45
Note OFF: Time 148800, Note Name: G#4
Note ON: Time 148800, Note Name: D#4, Velocity: 41
Note OFF: Time 148920, Note Name: D#4
Note ON: Time 148920, Note Name: C#4, Velocity: 38
Note OFF: Time 149040, Note Name: C#4
Note ON: Time 149040, Note Name: D#3, Velocity: 36
Note OFF: Time 149160, Note Name: D#3
Note ON: Time 149160, Note Name: C4, Velocity: 37
Note OFF: Time 149280, Note Name: C4
Note ON: Time 149280, Note Name: D#4, Velocity: 40
Note OFF: Time 149400, Note Name: D#4
Note ON: Time 149400, Note Name: G#4, Velocity: 44
Note OFF: Time 149520, Note Name: G#4
Note ON: Time 149520, Note Name: D#4, Velocity: 41
Note OFF: Time 149640, Note Name: D#4
Note ON: Time 149640, Note Name: C4, Velocity: 39
Note OFF: Time 149760, Note Name: C4
Note ON: Time 149760, Note Name: A#3, Velocity: 36
Note OFF: Time 149880, Note Name: A#3
Note ON: Time 149880, Note Name: C#4, Velocity: 37
Note OFF: Time 150000, Note Name: C#4
Note ON: Time 150000, Note Name: D#4, Velocity: 40
Note OFF: Time 150120, Note Name: D#4
Note ON: Time 150120, Note Name: A#4, Velocity: 42
Note OFF: Time 150240, Note Name: A#4
Note ON: Time 150240, Note Name: D#4, Velocity: 41
Note OFF: Time 150360, Note Name: D#4
Note ON: Time 150360, Note Name: C#4, Velocity: 39
Note OFF: Time 150480, Note Name: C#4
Note ON: Time 150480, Note Name: D#3, Velocity: 37
Note OFF: Time 150600, Note Name: D#3
Note ON: Time 150600, Note Name: C#4, Velocity: 36
Note OFF: Time 150720, Note Name: C#4
Note ON: Time 150720, Note Name: D#4, Velocity: 38
Note OFF: Time 150840, Note Name: D#4
Note ON: Time 150840, Note Name: G4, Velocity: 40
Note OFF: Time 150960, Note Name: G4
Note ON: Time 150960, Note Name: D#4, Velocity: 40
Note OFF: Time 151080, Note Name: D#4
Note ON: Time 151080, Note Name: C#4, Velocity: 37
Note OFF: Time 151200, Note Name: C#4
Note ON: Time 151200, Note Name: G#3, Velocity: 50
Note OFF: Time 151320, Note Name: G#3
Note ON: Time 151320, Note Name: C4, Velocity: 40
Note OFF: Time 151440, Note Name: C4
Note ON: Time 151440, Note Name: D#4, Velocity: 44
Note OFF: Time 151560, Note Name: D#4
Note ON: Time 151560, Note Name: G#4, Velocity: 45
Note OFF: Time 151680, Note Name: G#4
Note ON: Time 151680, Note Name: D#4, Velocity: 44
Note OFF: Time 151800, Note Name: D#4
Note ON: Time 151800, Note Name: C4, Velocity: 42
Note OFF: Time 151920, Note Name: C4
Note ON: Time 151920, Note Name: G3, Velocity: 39
Note ON: Time 152040, Note Name: G#3, Velocity: 41
Note OFF: Time 152160, Note Name: G#3
Note ON: Time 152160, Note Name: C4, Velocity: 45
Note OFF: Time 152280, Note Name: C4
Note ON: Time 152280, Note Name: D#4, Velocity: 49
Note OFF: Time 152400, Note Name: D#4
Note ON: Time 152400, Note Name: C4, Velocity: 47
Note OFF: Time 152520, Note Name: C4
Note ON: Time 152520, Note Name: G#3, Velocity: 41
Note OFF: Time 152640, Note Name: G#3
Note OFF: Time 152640, Note Name: G3
Note ON: Time 152640, Note Name: F#3, Velocity: 38
Note ON: Time 152760, Note Name: G#3, Velocity: 36
Note OFF: Time 152880, Note Name: G#3
Note ON: Time 152880, Note Name: C4, Velocity: 39
Note OFF: Time 153000, Note Name: C4
Note ON: Time 153000, Note Name: D#4, Velocity: 42
Note OFF: Time 153120, Note Name: D#4
Note ON: Time 153120, Note Name: C4, Velocity: 41
Note OFF: Time 153240, Note Name: C4
Note ON: Time 153240, Note Name: G#3, Velocity: 38
Note OFF: Time 153360, Note Name: G#3
Note OFF: Time 153360, Note Name: F#3
Note ON: Time 153360, Note Name: F#3, Velocity: 47
Note ON: Time 153480, Note Name: G#3, Velocity: 41
Note OFF: Time 153600, Note Name: G#3
Note ON: Time 153600, Note Name: C4, Velocity: 41
Note OFF: Time 153720, Note Name: C4
Note ON: Time 153720, Note Name: D#4, Velocity: 41
Note OFF: Time 153840, Note Name: D#4
Note ON: Time 153840, Note Name: C4, Velocity: 38
Note OFF: Time 153960, Note Name: C4
Note ON: Time 153960, Note Name: G#3, Velocity: 35
Note OFF: Time 154080, Note Name: G#3
Note OFF: Time 154080, Note Name: F#3
Note ON: Time 154080, Note Name: F3, Velocity: 34
Note ON: Time 154200, Note Name: G#3, Velocity: 33
Note OFF: Time 154320, Note Name: G#3
Note ON: Time 154320, Note Name: C#4, Velocity: 36
Note OFF: Time 154440, Note Name: C#4
Note ON: Time 154440, Note Name: F4, Velocity: 39
Note OFF: Time 154560, Note Name: F4
Note ON: Time 154560, Note Name: C#4, Velocity: 37
Note OFF: Time 154680, Note Name: C#4
Note ON: Time 154680, Note Name: G#3, Velocity: 35
Note OFF: Time 154800, Note Name: G#3
Note OFF: Time 154800, Note Name: F3
Note ON: Time 154800, Note Name: F3, Velocity: 36
Note OFF: Time 154920, Note Name: F3
Note ON: Time 154920, Note Name: G#3, Velocity: 38
Note OFF: Time 155040, Note Name: G#3
Note ON: Time 155040, Note Name: C#4, Velocity: 41
Note OFF: Time 155160, Note Name: C#4
Note ON: Time 155160, Note Name: G#4, Velocity: 42
Note OFF: Time 155280, Note Name: G#4
Note ON: Time 155280, Note Name: C#4, Velocity: 40
Note OFF: Time 155400, Note Name: C#4
Note ON: Time 155400, Note Name: G#3, Velocity: 37
Note OFF: Time 155520, Note Name: G#3
Note ON: Time 155520, Note Name: D#3, Velocity: 35
Note OFF: Time 155640, Note Name: D#3
Note ON: Time 155640, Note Name: G#3, Velocity: 38
Note OFF: Time 155760, Note Name: G#3
Note ON: Time 155760, Note Name: C4, Velocity: 41
Note OFF: Time 155880, Note Name: C4
Note ON: Time 155880, Note Name: F#4, Velocity: 41
Note OFF: Time 156000, Note Name: F#4
Note ON: Time 156000, Note Name: C4, Velocity: 39
Note OFF: Time 156120, Note Name: C4
Note ON: Time 156120, Note Name: G#3, Velocity: 36
Note OFF: Time 156240, Note Name: G#3
Note ON: Time 156240, Note Name: D#3, Velocity: 34
Note OFF: Time 156360, Note Name: D#3
Note ON: Time 156360, Note Name: G#3, Velocity: 34
Note OFF: Time 156480, Note Name: G#3
Note ON: Time 156480, Note Name: C4, Velocity: 37
Note OFF: Time 156600, Note Name: C4
Note ON: Time 156600, Note Name: F#4, Velocity: 39
Note OFF: Time 156720, Note Name: F#4
Note ON: Time 156720, Note Name: C4, Velocity: 36
Note OFF: Time 156840, Note Name: C4
Note ON: Time 156840, Note Name: G#3, Velocity: 31
Note OFF: Time 156960, Note Name: G#3
Note ON: Time 156960, Note Name: D3, Velocity: 31
Note OFF: Time 157080, Note Name: D3
Note ON: Time 157080, Note Name: G#3, Velocity: 31
Note OFF: Time 157200, Note Name: G#3
Note ON: Time 157200, Note Name: B3, Velocity: 35
Note OFF: Time 157320, Note Name: B3
Note ON: Time 157320, Note Name: F4, Velocity: 37
Note OFF: Time 157440, Note Name: F4
Note ON: Time 157440, Note Name: B3, Velocity: 36
Note OFF: Time 157560, Note Name: B3
Note ON: Time 157560, Note Name: G#3, Velocity: 34
Note OFF: Time 157680, Note Name: G#3
Note ON: Time 157680, Note Name: D3, Velocity: 34
Note OFF: Time 157800, Note Name: D3
Note ON: Time 157800, Note Name: G#3, Velocity: 30
Note OFF: Time 157920, Note Name: G#3
Note ON: Time 157920, Note Name: A#3, Velocity: 35
Note OFF: Time 158040, Note Name: A#3
Note ON: Time 158040, Note Name: F4, Velocity: 37
Note OFF: Time 158160, Note Name: F4
Note ON: Time 158160, Note Name: A#3, Velocity: 36
Note OFF: Time 158280, Note Name: A#3
Note ON: Time 158280, Note Name: G#3, Velocity: 34
Note OFF: Time 158400, Note Name: G#3
Note ON: Time 158400, Note Name: D#3, Velocity: 34
Note OFF: Time 158520, Note Name: D#3
Note ON: Time 158520, Note Name: F#3, Velocity: 35
Note OFF: Time 158640, Note Name: F#3
Note ON: Time 158640, Note Name: A#3, Velocity: 38
Note OFF: Time 158760, Note Name: A#3
Note ON: Time 158760, Note Name: D#4, Velocity: 39
Note OFF: Time 158880, Note Name: D#4
Note ON: Time 158880, Note Name: A#3, Velocity: 38
Note OFF: Time 159000, Note Name: A#3
Note ON: Time 159000, Note Name: F#3, Velocity: 36
Note OFF: Time 159120, Note Name: F#3
Note ON: Time 159120, Note Name: F#2, Velocity: 34
Note OFF: Time 159240, Note Name: F#2
Note ON: Time 159240, Note Name: F#3, Velocity: 31
Note OFF: Time 159360, Note Name: F#3
Note ON: Time 159360, Note Name: A#3, Velocity: 36
Note OFF: Time 159480, Note Name: A#3
Note ON: Time 159480, Note Name: D#4, Velocity: 38
Note OFF: Time 159600, Note Name: D#4
Note ON: Time 159600, Note Name: A#3, Velocity: 36
Note OFF: Time 159720, Note Name: A#3
Note ON: Time 159720, Note Name: F#3, Velocity: 34
Note OFF: Time 159840, Note Name: F#3
Note ON: Time 159840, Note Name: G#2, Velocity: 35
Note OFF: Time 159960, Note Name: G#2
Note ON: Time 159960, Note Name: F3, Velocity: 36
Note OFF: Time 160080, Note Name: F3
Note ON: Time 160080, Note Name: G#3, Velocity: 37
Note OFF: Time 160200, Note Name: G#3
Note ON: Time 160200, Note Name: C#4, Velocity: 39
Note OFF: Time 160320, Note Name: C#4
Note ON: Time 160320, Note Name: G#3, Velocity: 37
Note OFF: Time 160440, Note Name: G#3
Note ON: Time 160440, Note Name: F3, Velocity: 35
Note OFF: Time 160560, Note Name: F3
Note ON: Time 160560, Note Name: G#2, Velocity: 33
Note OFF: Time 160680, Note Name: G#2
Note ON: Time 160680, Note Name: F3, Velocity: 34
Note OFF: Time 160800, Note Name: F3
Note ON: Time 160800, Note Name: G#3, Velocity: 35
Note OFF: Time 160920, Note Name: G#3
Note ON: Time 160920, Note Name: C#4, Velocity: 38
Note OFF: Time 161040, Note Name: C#4
Note ON: Time 161040, Note Name: G#3, Velocity: 37
Note OFF: Time 161160, Note Name: G#3
Note ON: Time 161160, Note Name: F3, Velocity: 36
Note OFF: Time 161280, Note Name: F3
Note ON: Time 161280, Note Name: G#2, Velocity: 39
Note OFF: Time 161400, Note Name: G#2
Note ON: Time 161400, Note Name: F#3, Velocity: 34
Note OFF: Time 161520, Note Name: F#3
Note ON: Time 161520, Note Name: G#3, Velocity: 36
Note OFF: Time 161640, Note Name: G#3
Note ON: Time 161640, Note Name: C4, Velocity: 36
Note OFF: Time 161760, Note Name: C4
Note ON: Time 161760, Note Name: G#3, Velocity: 35
Note OFF: Time 161880, Note Name: G#3
Note ON: Time 161880, Note Name: F#3, Velocity: 34
Note OFF: Time 162000, Note Name: F#3
Note ON: Time 162000, Note Name: G#2, Velocity: 31
Note OFF: Time 162120, Note Name: G#2
Note ON: Time 162120, Note Name: F#3, Velocity: 31
Note OFF: Time 162240, Note Name: F#3
Note ON: Time 162240, Note Name: G#3, Velocity: 35
Note OFF: Time 162360, Note Name: G#3
Note ON: Time 162360, Note Name: C4, Velocity: 37
Note OFF: Time 162480, Note Name: C4
Note ON: Time 162480, Note Name: G#3, Velocity: 35
Note OFF: Time 162600, Note Name: G#3
Note ON: Time 162600, Note Name: F#3, Velocity: 33
Note OFF: Time 162720, Note Name: F#3
Note ON: Time 162720, Note Name: C#3, Velocity: 33
Note OFF: Time 162840, Note Name: C#3
Note ON: Time 162840, Note Name: G#3, Velocity: 33
Note OFF: Time 162960, Note Name: G#3
Note ON: Time 162960, Note Name: C#4, Velocity: 36
Note OFF: Time 163080, Note Name: C#4
Note ON: Time 163080, Note Name: F4, Velocity: 37
Note OFF: Time 163200, Note Name: F4
Note ON: Time 163200, Note Name: C#4, Velocity: 36
Note OFF: Time 163320, Note Name: C#4
Note ON: Time 163320, Note Name: A#3, Velocity: 35
Note OFF: Time 163440, Note Name: A#3
Note ON: Time 163440, Note Name: G#3, Velocity: 36
Note OFF: Time 163560, Note Name: G#3
Note ON: Time 163560, Note Name: C#4, Velocity: 36
Note OFF: Time 163680, Note Name: C#4
Note ON: Time 163680, Note Name: F4, Velocity: 39
Note OFF: Time 163800, Note Name: F4
Note ON: Time 163800, Note Name: G#4, Velocity: 40
Note OFF: Time 163920, Note Name: G#4
Note ON: Time 163920, Note Name: F4, Velocity: 39
Note OFF: Time 164040, Note Name: F4
Note ON: Time 164040, Note Name: C#4, Velocity: 38
Note OFF: Time 164160, Note Name: C#4
Note ON: Time 164160, Note Name: F#3, Velocity: 38
Note ON: Time 164280, Note Name: G#3, Velocity: 42
Note OFF: Time 164400, Note Name: G#3
Note ON: Time 164400, Note Name: C4, Velocity: 42
Note OFF: Time 164520, Note Name: C4
Note ON: Time 164520, Note Name: D#4, Velocity: 42
Note OFF: Time 164640, Note Name: D#4
Note ON: Time 164640, Note Name: C4, Velocity: 42
Note OFF: Time 164760, Note Name: C4
Note ON: Time 164760, Note Name: G#3, Velocity: 42
Note OFF: Time 164880, Note Name: G#3
Note OFF: Time 164880, Note Name: F#3
Note ON: Time 164880, Note Name: F#3, Velocity: 41
Note ON: Time 165000, Note Name: G#3, Velocity: 45
Note OFF: Time 165120, Note Name: G#3
Note ON: Time 165120, Note Name: C4, Velocity: 45
Note OFF: Time 165240, Note Name: C4
Note ON: Time 165240, Note Name: D#4, Velocity: 45
Note OFF: Time 165360, Note Name: D#4
Note ON: Time 165360, Note Name: C4, Velocity: 41
Note OFF: Time 165480, Note Name: C4
Note ON: Time 165480, Note Name: G#3, Velocity: 38
Note OFF: Time 165600, Note Name: G#3
Note OFF: Time 165600, Note Name: F#3
Note ON: Time 165600, Note Name: F3, Velocity: 37
Note ON: Time 165720, Note Name: G#3, Velocity: 36
Note OFF: Time 165840, Note Name: G#3
Note ON: Time 165840, Note Name: C#4, Velocity: 39
Note OFF: Time 165960, Note Name: C#4
Note ON: Time 165960, Note Name: F4, Velocity: 42
Note OFF: Time 166080, Note Name: F4
Note ON: Time 166080, Note Name: C#4, Velocity: 40
Note OFF: Time 166200, Note Name: C#4
Note ON: Time 166200, Note Name: G#3, Velocity: 38
Note OFF: Time 166320, Note Name: G#3
Note OFF: Time 166320, Note Name: F3
Note ON: Time 166320, Note Name: F3, Velocity: 39
Note OFF: Time 166440, Note Name: F3
Note ON: Time 166440, Note Name: G#3, Velocity: 41
Note OFF: Time 166560, Note Name: G#3
Note ON: Time 166560, Note Name: C#4, Velocity: 45
Note OFF: Time 166680, Note Name: C#4
Note ON: Time 166680, Note Name: G#4, Velocity: 46
Note OFF: Time 166800, Note Name: G#4
Note ON: Time 166800, Note Name: C#4, Velocity: 44
Note OFF: Time 166920, Note Name: C#4
Note ON: Time 166920, Note Name: G#3, Velocity: 40
Note OFF: Time 167040, Note Name: G#3
Note ON: Time 167040, Note Name: D#3, Velocity: 39
Note OFF: Time 167160, Note Name: D#3
Note ON: Time 167160, Note Name: G#3, Velocity: 41
Note OFF: Time 167280, Note Name: G#3
Note ON: Time 167280, Note Name: C4, Velocity: 45
Note OFF: Time 167400, Note Name: C4
Note ON: Time 167400, Note Name: F#4, Velocity: 45
Note OFF: Time 167520, Note Name: F#4
Note ON: Time 167520, Note Name: C4, Velocity: 42
Note OFF: Time 167640, Note Name: C4
Note ON: Time 167640, Note Name: G#3, Velocity: 39
Note OFF: Time 167760, Note Name: G#3
Note ON: Time 167760, Note Name: D#3, Velocity: 38
Note OFF: Time 167880, Note Name: D#3
Note ON: Time 167880, Note Name: G#3, Velocity: 37
Note OFF: Time 168000, Note Name: G#3
Note ON: Time 168000, Note Name: C4, Velocity: 40
Note OFF: Time 168120, Note Name: C4
Note ON: Time 168120, Note Name: F#4, Velocity: 42
Note OFF: Time 168240, Note Name: F#4
Note ON: Time 168240, Note Name: C4, Velocity: 39
Note OFF: Time 168360, Note Name: C4
Note ON: Time 168360, Note Name: G#3, Velocity: 34
Note OFF: Time 168480, Note Name: G#3
Note ON: Time 168480, Note Name: D3, Velocity: 35
Note OFF: Time 168600, Note Name: D3
Note ON: Time 168600, Note Name: G#3, Velocity: 37
Note OFF: Time 168720, Note Name: G#3
Note ON: Time 168720, Note Name: B3, Velocity: 41
Note OFF: Time 168840, Note Name: B3
Note ON: Time 168840, Note Name: F4, Velocity: 44
Note OFF: Time 168960, Note Name: F4
Note ON: Time 168960, Note Name: B3, Velocity: 42
Note OFF: Time 169080, Note Name: B3
Note ON: Time 169080, Note Name: G#3, Velocity: 40
Note OFF: Time 169200, Note Name: G#3
Note ON: Time 169200, Note Name: D3, Velocity: 35
Note OFF: Time 169320, Note Name: D3
Note ON: Time 169320, Note Name: G#3, Velocity: 36
Note OFF: Time 169440, Note Name: G#3
Note ON: Time 169440, Note Name: A#3, Velocity: 41
Note OFF: Time 169560, Note Name: A#3
Note ON: Time 169560, Note Name: F4, Velocity: 44
Note OFF: Time 169680, Note Name: F4
Note ON: Time 169680, Note Name: A#3, Velocity: 42
Note OFF: Time 169800, Note Name: A#3
Note ON: Time 169800, Note Name: G#3, Velocity: 40
Note OFF: Time 169920, Note Name: G#3
Note ON: Time 169920, Note Name: D#3, Velocity: 37
Note OFF: Time 170040, Note Name: D#3
Note ON: Time 170040, Note Name: F#3, Velocity: 38
Note OFF: Time 170160, Note Name: F#3
Note ON: Time 170160, Note Name: A#3, Velocity: 41
Note OFF: Time 170280, Note Name: A#3
Note ON: Time 170280, Note Name: D#4, Velocity: 42
Note OFF: Time 170400, Note Name: D#4
Note ON: Time 170400, Note Name: A#3, Velocity: 41
Note OFF: Time 170520, Note Name: A#3
Note ON: Time 170520, Note Name: F#3, Velocity: 39
Note OFF: Time 170640, Note Name: F#3
Note ON: Time 170640, Note Name: F#2, Velocity: 37
Note OFF: Time 170760, Note Name: F#2
Note ON: Time 170760, Note Name: F#3, Velocity: 34
Note OFF: Time 170880, Note Name: F#3
Note ON: Time 170880, Note Name: A#3, Velocity: 39
Note OFF: Time 171000, Note Name: A#3
Note ON: Time 171000, Note Name: D#4, Velocity: 41
Note OFF: Time 171120, Note Name: D#4
Note ON: Time 171120, Note Name: A#3, Velocity: 39
Note OFF: Time 171240, Note Name: A#3
Note ON: Time 171240, Note Name: F#3, Velocity: 37
Note OFF: Time 171360, Note Name: F#3
Note ON: Time 171360, Note Name: G#2, Velocity: 37
Note OFF: Time 171480, Note Name: G#2
Note ON: Time 171480, Note Name: F3, Velocity: 39
Note OFF: Time 171600, Note Name: F3
Note ON: Time 171600, Note Name: G#3, Velocity: 40
Note OFF: Time 171720, Note Name: G#3
Note ON: Time 171720, Note Name: C#4, Velocity: 42
Note OFF: Time 171840, Note Name: C#4
Note ON: Time 171840, Note Name: G#3, Velocity: 40
Note OFF: Time 171960, Note Name: G#3
Note ON: Time 171960, Note Name: F3, Velocity: 38
Note OFF: Time 172080, Note Name: F3
Note ON: Time 172080, Note Name: G#2, Velocity: 35
Note OFF: Time 172200, Note Name: G#2
Note ON: Time 172200, Note Name: F3, Velocity: 35
Note OFF: Time 172320, Note Name: F3
Note ON: Time 172320, Note Name: G#3, Velocity: 37
Note OFF: Time 172440, Note Name: G#3
Note ON: Time 172440, Note Name: C#4, Velocity: 39
Note OFF: Time 172560, Note Name: C#4
Note ON: Time 172560, Note Name: G#3, Velocity: 37
Note OFF: Time 172680, Note Name: G#3
Note ON: Time 172680, Note Name: F3, Velocity: 35
Note OFF: Time 172800, Note Name: F3
Note ON: Time 172800, Note Name: G#2, Velocity: 38
Note OFF: Time 172920, Note Name: G#2
Note ON: Time 172920, Note Name: F3, Velocity: 37
Note OFF: Time 173040, Note Name: F3
Note ON: Time 173040, Note Name: G#3, Velocity: 39
Note OFF: Time 173160, Note Name: G#3
Note ON: Time 173160, Note Name: D4, Velocity: 41
Note OFF: Time 173280, Note Name: D4
Note ON: Time 173280, Note Name: G#3, Velocity: 39
Note OFF: Time 173400, Note Name: G#3
Note ON: Time 173400, Note Name: F3, Velocity: 36
Note OFF: Time 173520, Note Name: F3
Note ON: Time 173520, Note Name: G#2, Velocity: 40
Note OFF: Time 173640, Note Name: G#2
Note ON: Time 173640, Note Name: F3, Velocity: 39
Note OFF: Time 173760, Note Name: F3
Note ON: Time 173760, Note Name: G#3, Velocity: 43
Note OFF: Time 173880, Note Name: G#3
Note ON: Time 173880, Note Name: D4, Velocity: 48
Note OFF: Time 174000, Note Name: D4
Note ON: Time 174000, Note Name: G#3, Velocity: 45
Note OFF: Time 174120, Note Name: G#3
Note ON: Time 174120, Note Name: F3, Velocity: 41
Note OFF: Time 174240, Note Name: F3
Note ON: Time 174240, Note Name: G#2, Velocity: 40
Note OFF: Time 174360, Note Name: G#2
Note ON: Time 174360, Note Name: F3, Velocity: 40
Note OFF: Time 174480, Note Name: F3
Note ON: Time 174480, Note Name: G#3, Velocity: 43
Note OFF: Time 174600, Note Name: G#3
Note ON: Time 174600, Note Name: D4, Velocity: 45
Note OFF: Time 174720, Note Name: D4
Note ON: Time 174720, Note Name: G#3, Velocity: 42
Note OFF: Time 174840, Note Name: G#3
Note ON: Time 174840, Note Name: F3, Velocity: 36
Note OFF: Time 174960, Note Name: F3
Note ON: Time 174960, Note Name: G#2, Velocity: 52
Note OFF: Time 175080, Note Name: G#2
Note ON: Time 175080, Note Name: F3, Velocity: 40
Note OFF: Time 175200, Note Name: F3
Note ON: Time 175200, Note Name: G#3, Velocity: 43
Note OFF: Time 175320, Note Name: G#3
Note ON: Time 175320, Note Name: D4, Velocity: 47
Note OFF: Time 175440, Note Name: D4
Note ON: Time 175440, Note Name: G#3, Velocity: 44
Note OFF: Time 175560, Note Name: G#3
Note ON: Time 175560, Note Name: F3, Velocity: 40
Note OFF: Time 175680, Note Name: F3
Note ON: Time 175680, Note Name: G#2, Velocity: 54
Note OFF: Time 175800, Note Name: G#2
Note ON: Time 175800, Note Name: D#3, Velocity: 43
Note OFF: Time 175920, Note Name: D#3
Note ON: Time 175920, Note Name: F#3, Velocity: 47
Note OFF: Time 176040, Note Name: F#3
Note ON: Time 176040, Note Name: D#4, Velocity: 50
Note OFF: Time 176160, Note Name: D#4
Note ON: Time 176160, Note Name: F#3, Velocity: 46
Note OFF: Time 176280, Note Name: F#3
Note ON: Time 176280, Note Name: D#3, Velocity: 43
Note OFF: Time 176400, Note Name: D#3
Note ON: Time 176400, Note Name: G#2, Velocity: 67
Note OFF: Time 176520, Note Name: G#2
Note ON: Time 176520, Note Name: D#3, Velocity: 50
Note OFF: Time 176640, Note Name: D#3
Note ON: Time 176640, Note Name: F#3, Velocity: 55
Note OFF: Time 176760, Note Name: F#3
Note ON: Time 176760, Note Name: D#4, Velocity: 58
Note OFF: Time 176880, Note Name: D#4
Note ON: Time 176880, Note Name: F#3, Velocity: 55
Note OFF: Time 177000, Note Name: F#3
Note ON: Time 177000, Note Name: D#3, Velocity: 52
Note OFF: Time 177120, Note Name: D#3
Note ON: Time 177120, Note Name: G#2, Velocity: 62
Note OFF: Time 177240, Note Name: G#2
Note ON: Time 177240, Note Name: D#3, Velocity: 50
Note OFF: Time 177360, Note Name: D#3
Note ON: Time 177360, Note Name: F#3, Velocity: 55
Note OFF: Time 177480, Note Name: F#3
Note ON: Time 177480, Note Name: C4, Velocity: 58
Note OFF: Time 177600, Note Name: C4
Note ON: Time 177600, Note Name: F#3, Velocity: 55
Note OFF: Time 177720, Note Name: F#3
Note ON: Time 177720, Note Name: D#3, Velocity: 51
Note OFF: Time 177840, Note Name: D#3
Note ON: Time 177840, Note Name: G#2, Velocity: 67
Note OFF: Time 177960, Note Name: G#2
Note ON: Time 177960, Note Name: D#3, Velocity: 57
Note OFF: Time 178080, Note Name: D#3
Note ON: Time 178080, Note Name: F#3, Velocity: 61
Note OFF: Time 178200, Note Name: F#3
Note ON: Time 178200, Note Name: C4, Velocity: 65
Note OFF: Time 178320, Note Name: C4
Note ON: Time 178320, Note Name: F#3, Velocity: 62
Note OFF: Time 178440, Note Name: F#3
Note ON: Time 178440, Note Name: D#3, Velocity: 59
Note OFF: Time 178560, Note Name: D#3
Note ON: Time 178560, Note Name: C#2, Velocity: 71
Note OFF: Time 178680, Note Name: C#2
Note ON: Time 179040, Note Name: G#2, Velocity: 70
Note OFF: Time 179160, Note Name: G#2
Note ON: Time 179160, Note Name: F3, Velocity: 75
Note OFF: Time 179280, Note Name: F3
Note ON: Time 179280, Note Name: C#4, Velocity: 83
Note OFF: Time 179520, Note Name: C#4
Note ON: Time 180000, Note Name: G#1, Velocity: 87
Note OFF: Time 180120, Note Name: G#1
Note ON: Time 180480, Note Name: G#2, Velocity: 68
Note OFF: Time 180600, Note Name: G#2
Note ON: Time 180600, Note Name: D#3, Velocity: 74
Note OFF: Time 180720, Note Name: D#3
Note ON: Time 180720, Note Name: C4, Velocity: 84
Note OFF: Time 180960, Note Name: C4
Note ON: Time 181440, Note Name: C#2, Velocity: 87
Note OFF: Time 181560, Note Name: C#2
Note ON: Time 181920, Note Name: G#2, Velocity: 70
Note OFF: Time 182040, Note Name: G#2
Note ON: Time 182040, Note Name: F3, Velocity: 75
Note OFF: Time 182160, Note Name: F3
Note ON: Time 182160, Note Name: C#4, Velocity: 83
Note OFF: Time 182400, Note Name: C#4
Note ON: Time 182880, Note Name: G#1, Velocity: 87
Note OFF: Time 183000, Note Name: G#1
Note ON: Time 183360, Note Name: G#2, Velocity: 68
Note OFF: Time 183480, Note Name: G#2
Note ON: Time 183480, Note Name: D#3, Velocity: 74
Note OFF: Time 183600, Note Name: D#3
Note ON: Time 183600, Note Name: C4, Velocity: 84
Note OFF: Time 183840, Note Name: C4
Note ON: Time 184320, Note Name: C#1, Velocity: 82
Note OFF: Time 184560, Note Name: C#1
Note ON: Time 184800, Note Name: G#2, Velocity: 68
Note OFF: Time 184920, Note Name: G#2
Note ON: Time 184920, Note Name: F3, Velocity: 74
Note OFF: Time 185040, Note Name: F3
Note ON: Time 185040, Note Name: C#4, Velocity: 84
Note OFF: Time 185280, Note Name: C#4
Note ON: Time 187200, Note Name: C#1, Velocity: 96
Note ON: Time 187200, Note Name: C#2, Velocity: 96
Note OFF: Time 187320, Note Name: C#2
Note OFF: Time 187320, Note Name: C#1
Note ON: Time 187920, Note Name: C#4, Velocity: 86
Note ON: Time 187920, Note Name: C#5, Velocity: 102
Note OFF: Time 188640, Note Name: C#5
Note OFF: Time 188640, Note Name: C#4
Note ON: Time 190080, Note Name: A1, Velocity: 40
Note ON: Time 190080, Note Name: A2, Velocity: 40
Note OFF: Time 190800, Note Name: A1
Note ON: Time 190800, Note Name: D2, Velocity: 36
Note OFF: Time 192960, Note Name: D2
Note OFF: Time 192960, Note Name: A2
Note ON: Time 192960, Note Name: A1, Velocity: 40
Note ON: Time 192960, Note Name: A2, Velocity: 40
Note OFF: Time 193680, Note Name: A1
Note ON: Time 193680, Note Name: D2, Velocity: 36
Note OFF: Time 195840, Note Name: D2
Note OFF: Time 195840, Note Name: A2
Note ON: Time 195840, Note Name: E2, Velocity: 34
Note ON: Time 195840, Note Name: D3, Velocity: 34
Note OFF: Time 197040, Note Name: D3
Note OFF: Time 197040, Note Name: E2
Note ON: Time 197040, Note Name: A2, Velocity: 30
Note ON: Time 197040, Note Name: C#3, Velocity: 30
Note OFF: Time 197280, Note Name: C#3
Note ON: Time 197280, Note Name: E3, Velocity: 26
Note OFF: Time 198720, Note Name: E3
Note OFF: Time 198720, Note Name: A2
Note ON: Time 199200, Note Name: E3, Velocity: 32
Note ON: Time 199200, Note Name: G3, Velocity: 32
Note ON: Time 199200, Note Name: A#3, Velocity: 32
Note OFF: Time 199440, Note Name: A#3
Note OFF: Time 199440, Note Name: G3
Note OFF: Time 199440, Note Name: E3
Note ON: Time 199440, Note Name: D3, Velocity: 38
Note ON: Time 199440, Note Name: F#3, Velocity: 38
Note ON: Time 199440, Note Name: B3, Velocity: 38
Note OFF: Time 199680, Note Name: B3
Note OFF: Time 199680, Note Name: F#3
Note OFF: Time 199680, Note Name: D3
Note ON: Time 199920, Note Name: F#3, Velocity: 32
Note ON: Time 199920, Note Name: A3, Velocity: 32
Note ON: Time 199920, Note Name: D4, Velocity: 32
Note OFF: Time 200160, Note Name: D4
Note OFF: Time 200160, Note Name: A3
Note OFF: Time 200160, Note Name: F#3
Note ON: Time 200160, Note Name: F3, Velocity: 36
Note ON: Time 200160, Note Name: G#3, Velocity: 36
Note ON: Time 200160, Note Name: C#4, Velocity: 36
Note OFF: Time 200640, Note Name: C#4
Note OFF: Time 200640, Note Name: G#3
Note OFF: Time 200640, Note Name: F3
Note ON: Time 200640, Note Name: E3, Velocity: 31
Note ON: Time 200640, Note Name: G3, Velocity: 31
Note ON: Time 200640, Note Name: A#3, Velocity: 31
Note OFF: Time 200880, Note Name: A#3
Note OFF: Time 200880, Note Name: G3
Note OFF: Time 200880, Note Name: E3
Note ON: Time 200880, Note Name: D3, Velocity: 37
Note ON: Time 200880, Note Name: F#3, Velocity: 37
Note ON: Time 200880, Note Name: B3, Velocity: 37
Note OFF: Time 201120, Note Name: B3
Note OFF: Time 201120, Note Name: F#3
Note OFF: Time 201120, Note Name: D3
Note ON: Time 201360, Note Name: F#3, Velocity: 32
Note ON: Time 201360, Note Name: A3, Velocity: 32
Note ON: Time 201360, Note Name: D4, Velocity: 32
Note OFF: Time 201600, Note Name: D4
Note OFF: Time 201600, Note Name: A3
Note OFF: Time 201600, Note Name: F#3
Note ON: Time 201600, Note Name: C#3, Velocity: 29
Note ON: Time 201630, Note Name: G#3, Velocity: 29
Note ON: Time 201660, Note Name: F4, Velocity: 29
Note OFF: Time 201840, Note Name: F4
Note OFF: Time 201840, Note Name: G#3
Note OFF: Time 201840, Note Name: C#3
Note ON: Time 202320, Note Name: C#2, Velocity: 25
Note OFF: Time 202440, Note Name: C#2
Note ON: Time 204480, Note Name: A1, Velocity: 40
Note ON: Time 204480, Note Name: A2, Velocity: 40
Note OFF: Time 205200, Note Name: A1
Note ON: Time 205200, Note Name: D2, Velocity: 36
Note OFF: Time 207360, Note Name: D2
Note OFF: Time 207360, Note Name: A2
Note ON: Time 207360, Note Name: A1, Velocity: 40
Note ON: Time 207360, Note Name: A2, Velocity: 40
Note OFF: Time 208080, Note Name: A1
Note ON: Time 208080, Note Name: D2, Velocity: 36
Note OFF: Time 210960, Note Name: D2
Note OFF: Time 210960, Note Name: A2
Note ON: Time 210960, Note Name: E2, Velocity: 34
Note ON: Time 210960, Note Name: E3, Velocity: 34
Note OFF: Time 211680, Note Name: E3
Note ON: Time 211680, Note Name: D3, Velocity: 34
Note OFF: Time 212160, Note Name: D3
Note OFF: Time 212160, Note Name: E2
Note ON: Time 212160, Note Name: A2, Velocity: 30
Note ON: Time 212160, Note Name: C#3, Velocity: 30
Note OFF: Time 212400, Note Name: C#3
Note OFF: Time 212400, Note Name: A2
Note ON: Time 212400, Note Name: A2, Velocity: 26
Note ON: Time 212400, Note Name: E3, Velocity: 26
Note OFF: Time 213840, Note Name: E3
Note OFF: Time 213840, Note Name: A2
Note ON: Time 217200, Note Name: B3, Velocity: 26
Note ON: Time 217200, Note Name: D4, Velocity: 26
Note ON: Time 217200, Note Name: F4, Velocity: 26
Note OFF: Time 217440, Note Name: F4
Note OFF: Time 217440, Note Name: D4
Note OFF: Time 217440, Note Name: B3
Note ON: Time 217440, Note Name: A3, Velocity: 31
Note ON: Time 217440, Note Name: C#4, Velocity: 31
Note ON: Time 217440, Note Name: F#4, Velocity: 31
Note OFF: Time 217680, Note Name: F#4
Note OFF: Time 217680, Note Name: C#4
Note OFF: Time 217680, Note Name: A3
Note ON: Time 217920, Note Name: C#4, Velocity: 28
Note ON: Time 217920, Note Name: E4, Velocity: 28
Note ON: Time 217920, Note Name: A4, Velocity: 28
Note OFF: Time 218160, Note Name: A4
Note OFF: Time 218160, Note Name: E4
Note OFF: Time 218160, Note Name: C#4
Note ON: Time 218160, Note Name: C4, Velocity: 31
Note ON: Time 218160, Note Name: D#4, Velocity: 31
Note ON: Time 218160, Note Name: G#4, Velocity: 31
Note OFF: Time 218640, Note Name: G#4
Note OFF: Time 218640, Note Name: D#4
Note OFF: Time 218640, Note Name: C4
Note ON: Time 218640, Note Name: B3, Velocity: 27
Note ON: Time 218640, Note Name: D4, Velocity: 27
Note ON: Time 218640, Note Name: F4, Velocity: 27
Note OFF: Time 218880, Note Name: F4
Note OFF: Time 218880, Note Name: D4
Note OFF: Time 218880, Note Name: B3
Note ON: Time 218880, Note Name: A3, Velocity: 31
Note ON: Time 218880, Note Name: C#4, Velocity: 31
Note ON: Time 218880, Note Name: F#4, Velocity: 31
Note OFF: Time 219120, Note Name: F#4
Note OFF: Time 219120, Note Name: C#4
Note OFF: Time 219120, Note Name: A3
Note ON: Time 219360, Note Name: C#4, Velocity: 25
Note ON: Time 219360, Note Name: E4, Velocity: 25
Note ON: Time 219360, Note Name: A4, Velocity: 25
Note OFF: Time 219600, Note Name: A4
Note OFF: Time 219600, Note Name: E4
Note OFF: Time 219600, Note Name: C#4
Note ON: Time 219600, Note Name: G#3, Velocity: 24
Note ON: Time 219600, Note Name: D#4, Velocity: 24
Note ON: Time 219600, Note Name: C5, Velocity: 24
Note OFF: Time 219840, Note Name: C5
Note OFF: Time 219840, Note Name: D#4
Note OFF: Time 219840, Note Name: G#3
Note ON: Time 220320, Note Name: G#2, Velocity: 24
Note OFF: Time 220560, Note Name: G#2
Note ON: Time 222480, Note Name: C#3, Velocity: 33
Note ON: Time 222720, Note Name: E4, Velocity: 30
Note OFF: Time 222960, Note Name: E4
Note ON: Time 222960, Note Name: G#3, Velocity: 30
Note OFF: Time 223200, Note Name: C#3
Note ON: Time 223200, Note Name: D#3, Velocity: 33
Note ON: Time 223200, Note Name: F#3, Velocity: 33
Note OFF: Time 223440, Note Name: G#3
Note ON: Time 223440, Note Name: C4, Velocity: 32
Note OFF: Time 223680, Note Name: C4
Note ON: Time 223680, Note Name: G#3, Velocity: 32
Note OFF: Time 223920, Note Name: F#3
Note OFF: Time 223920, Note Name: D#3
Note ON: Time 223920, Note Name: E3, Velocity: 33
Note OFF: Time 224160, Note Name: G#3
Note ON: Time 224160, Note Name: C#4, Velocity: 32
Note OFF: Time 224400, Note Name: C#4
Note ON: Time 224400, Note Name: G#3, Velocity: 32
Note OFF: Time 224640, Note Name: E3
Note ON: Time 224640, Note Name: C3, Velocity: 33
Note OFF: Time 224880, Note Name: G#3
Note ON: Time 224880, Note Name: D#4, Velocity: 31
Note OFF: Time 225120, Note Name: D#4
Note ON: Time 225120, Note Name: G#3, Velocity: 31
Note OFF: Time 225360, Note Name: C3
Note ON: Time 225360, Note Name: C#3, Velocity: 33
Note OFF: Time 225600, Note Name: G#3
Note ON: Time 225600, Note Name: E4, Velocity: 33
Note OFF: Time 225840, Note Name: E4
Note ON: Time 225840, Note Name: G#3, Velocity: 31
Note OFF: Time 226080, Note Name: C#3
Note ON: Time 226080, Note Name: D#3, Velocity: 33
Note ON: Time 226080, Note Name: F#3, Velocity: 33
Note OFF: Time 226320, Note Name: G#3
Note ON: Time 226320, Note Name: C4, Velocity: 31
Note OFF: Time 226560, Note Name: C4
Note ON: Time 226560, Note Name: G#3, Velocity: 31
Note OFF: Time 226800, Note Name: F#3
Note OFF: Time 226800, Note Name: D#3
Note ON: Time 226800, Note Name: E3, Velocity: 33
Note OFF: Time 227040, Note Name: G#3
Note ON: Time 227040, Note Name: C#4, Velocity: 31
Note OFF: Time 227280, Note Name: C#4
Note ON: Time 227280, Note Name: G#3, Velocity: 31
Note OFF: Time 227520, Note Name: G#3
Note OFF: Time 227520, Note Name: E3
Note ON: Time 227520, Note Name: B3, Velocity: 31
Note ON: Time 227520, Note Name: F3, Velocity: 33
Note OFF: Time 227760, Note Name: B3
Note ON: Time 227760, Note Name: G#4, Velocity: 31
Note OFF: Time 228000, Note Name: G#4
Note ON: Time 228000, Note Name: C#4, Velocity: 31
Note OFF: Time 228240, Note Name: F3
Note ON: Time 228240, Note Name: F#3, Velocity: 36
Note ON: Time 228240, Note Name: A3, Velocity: 36
Note OFF: Time 228480, Note Name: C#4
Note ON: Time 228480, Note Name: F#4, Velocity: 31
Note OFF: Time 228720, Note Name: F#4
Note ON: Time 228720, Note Name: C#4, Velocity: 31
Note OFF: Time 228960, Note Name: A3
Note OFF: Time 228960, Note Name: F#3
Note ON: Time 228960, Note Name: G#3, Velocity: 33
Note ON: Time 228960, Note Name: B3, Velocity: 33
Note OFF: Time 229200, Note Name: C#4
Note ON: Time 229200, Note Name: F4, Velocity: 31
Note OFF: Time 229440, Note Name: F4
Note ON: Time 229440, Note Name: C#4, Velocity: 31
Note OFF: Time 229680, Note Name: B3
Note OFF: Time 229680, Note Name: G#3
Note ON: Time 229680, Note Name: A3, Velocity: 33
Note OFF: Time 229920, Note Name: C#4
Note ON: Time 229920, Note Name: F#4, Velocity: 27
Note OFF: Time 230160, Note Name: F#4
Note ON: Time 230160, Note Name: C#4, Velocity: 27
Note OFF: Time 230400, Note Name: A3
Note ON: Time 230400, Note Name: F3, Velocity: 30
Note OFF: Time 230640, Note Name: C#4
Note ON: Time 230640, Note Name: G#4, Velocity: 31
Note OFF: Time 230880, Note Name: G#4
Note ON: Time 230880, Note Name: C#4, Velocity: 31
Note OFF: Time 231120, Note Name: F3
Note ON: Time 231120, Note Name: F#3, Velocity: 33
Note ON: Time 231120, Note Name: A3, Velocity: 33
Note OFF: Time 231360, Note Name: C#4
Note ON: Time 231360, Note Name: A4, Velocity: 31
Note OFF: Time 231600, Note Name: A4
Note ON: Time 231600, Note Name: C#4, Velocity: 31
Note OFF: Time 231840, Note Name: A3
Note OFF: Time 231840, Note Name: F#3
Note ON: Time 231840, Note Name: G#3, Velocity: 33
Note ON: Time 231840, Note Name: B3, Velocity: 33
Note OFF: Time 232080, Note Name: C#4
Note ON: Time 232080, Note Name: F4, Velocity: 31
Note OFF: Time 232320, Note Name: F4
Note ON: Time 232320, Note Name: C#4, Velocity: 31
Note OFF: Time 232560, Note Name: B3
Note OFF: Time 232560, Note Name: G#3
Note ON: Time 232560, Note Name: A3, Velocity: 33
Note OFF: Time 232800, Note Name: C#4
Note ON: Time 232800, Note Name: F#4, Velocity: 31
Note OFF: Time 233040, Note Name: F#4
Note ON: Time 233040, Note Name: C#4, Velocity: 31
Note OFF: Time 233280, Note Name: C#4
Note OFF: Time 233280, Note Name: A3
Note ON: Time 233280, Note Name: A2, Velocity: 31
Note OFF: Time 233400, Note Name: A2
Note ON: Time 233520, Note Name: C#4, Velocity: 28
Note OFF: Time 233760, Note Name: C#4
Note ON: Time 233760, Note Name: F#3, Velocity: 28
Note OFF: Time 234000, Note Name: F#3
Note ON: Time 234000, Note Name: G#2, Velocity: 30
Note ON: Time 234000, Note Name: D#3, Velocity: 30
Note OFF: Time 234240, Note Name: G#2
Note ON: Time 234240, Note Name: C4, Velocity: 27
Note OFF: Time 234480, Note Name: C4
Note ON: Time 234480, Note Name: F#3, Velocity: 27
Note OFF: Time 234720, Note Name: F#3
Note OFF: Time 234720, Note Name: D#3
Note ON: Time 234720, Note Name: E3, Velocity: 31
Note ON: Time 234960, Note Name: C#4, Velocity: 33
Note OFF: Time 235200, Note Name: C#4
Note ON: Time 235200, Note Name: G#3, Velocity: 33
Note OFF: Time 235440, Note Name: G#3
Note OFF: Time 235440, Note Name: E3
Note ON: Time 235440, Note Name: G#2, Velocity: 38
Note ON: Time 235440, Note Name: F#3, Velocity: 38
Note OFF: Time 235680, Note Name: G#2
Note ON: Time 235680, Note Name: C4, Velocity: 32
Note OFF: Time 235920, Note Name: C4
Note ON: Time 235920, Note Name: G#3, Velocity: 32
Note OFF: Time 236160, Note Name: F#3
Note ON: Time 236160, Note Name: E3, Velocity: 37
Note OFF: Time 236400, Note Name: G#3
Note ON: Time 236400, Note Name: C#4, Velocity: 31
Note OFF: Time 236640, Note Name: C#4
Note ON: Time 236640, Note Name: G#3, Velocity: 31
Note OFF: Time 236880, Note Name: G#3
Note OFF: Time 236880, Note Name: E3
Note ON: Time 236880, Note Name: G#2, Velocity: 36
Note ON: Time 236880, Note Name: D#3, Velocity: 36
Note OFF: Time 237120, Note Name: G#2
Note ON: Time 237120, Note Name: C4, Velocity: 34
Note OFF: Time 237360, Note Name: C4
Note ON: Time 237360, Note Name: G#3, Velocity: 34
Note OFF: Time 237600, Note Name: D#3
Note ON: Time 237600, Note Name: E3, Velocity: 38
Note OFF: Time 237840, Note Name: G#3
Note ON: Time 237840, Note Name: C#4, Velocity: 31
Note OFF: Time 238080, Note Name: C#4
Note ON: Time 238080, Note Name: G#3, Velocity: 31
Note OFF: Time 238320, Note Name: G#3
Note OFF: Time 238320, Note Name: E3
Note ON: Time 238320, Note Name: B2, Velocity: 33
Note ON: Time 238560, Note Name: F#3, Velocity: 29
Note ON: Time 238800, Note Name: A3, Velocity: 29
Note ON: Time 239040, Note Name: D#4, Velocity: 33
Note OFF: Time 239760, Note Name: D#4
Note OFF: Time 239760, Note Name: B2
Note OFF: Time 239760, Note Name: F#3
Note OFF: Time 239760, Note Name: A3
Note ON: Time 239760, Note Name: E3, Velocity: 32
Note ON: Time 240000, Note Name: E4, Velocity: 29
Note ON: Time 240000, Note Name: B3, Velocity: 29
Note OFF: Time 240240, Note Name: B3
Note OFF: Time 240240, Note Name: E4
Note ON: Time 240240, Note Name: G#3, Velocity: 30
Note OFF: Time 240480, Note Name: G#3
Note OFF: Time 240480, Note Name: E3
Note ON: Time 240480, Note Name: D#3, Velocity: 35
Note ON: Time 240720, Note Name: E4, Velocity: 30
Note ON: Time 240720, Note Name: B3, Velocity: 30
Note OFF: Time 240960, Note Name: B3
Note OFF: Time 240960, Note Name: E4
Note ON: Time 240960, Note Name: G#3, Velocity: 32
Note OFF: Time 241200, Note Name: G#3
Note OFF: Time 241200, Note Name: D#3
Note ON: Time 241200, Note Name: E3, Velocity: 32
Note OFF: Time 241440, Note Name: E3
Note ON: Time 241440, Note Name: E4, Velocity: 30
Note ON: Time 241440, Note Name: B3, Velocity: 30
Note OFF: Time 241680, Note Name: B3
Note OFF: Time 241680, Note Name: E4
Note ON: Time 241680, Note Name: G#3, Velocity: 30
Note OFF: Time 241920, Note Name: G#3
Note ON: Time 241920, Note Name: B2, Velocity: 32
Note OFF: Time 242640, Note Name: B2
Note ON: Time 242640, Note Name: A2, Velocity: 36
Note OFF: Time 242760, Note Name: A2
Note ON: Time 242880, Note Name: E4, Velocity: 31
Note ON: Time 242880, Note Name: C#4, Velocity: 31
Note OFF: Time 243120, Note Name: C#4
Note OFF: Time 243120, Note Name: E4
Note ON: Time 243120, Note Name: F#3, Velocity: 31
Note OFF: Time 243360, Note Name: F#3
Note ON: Time 243360, Note Name: F#2, Velocity: 40
Note OFF: Time 243480, Note Name: F#2
Note ON: Time 243600, Note Name: E4, Velocity: 35
Note ON: Time 243600, Note Name: C#4, Velocity: 35
Note OFF: Time 243840, Note Name: C#4
Note OFF: Time 243840, Note Name: E4
Note ON: Time 243840, Note Name: F#3, Velocity: 35
Note OFF: Time 244080, Note Name: F#3
Note ON: Time 244080, Note Name: B2, Velocity: 38
Note OFF: Time 244200, Note Name: B2
Note ON: Time 244320, Note Name: B3, Velocity: 34
Note ON: Time 244320, Note Name: D#4, Velocity: 34
Note ON: Time 244560, Note Name: F#3, Velocity: 31
Note OFF: Time 244800, Note Name: F#3
Note ON: Time 244800, Note Name: G#3, Velocity: 38
Note OFF: Time 245040, Note Name: G#3
Note ON: Time 245040, Note Name: F#3, Velocity: 40
Note OFF: Time 245280, Note Name: F#3
Note ON: Time 245280, Note Name: G#3, Velocity: 48
Note OFF: Time 245520, Note Name: G#3
Note OFF: Time 245520, Note Name: D#4
Note OFF: Time 245520, Note Name: B3
Note ON: Time 245520, Note Name: E3, Velocity: 35
Note ON: Time 245760, Note Name: E4, Velocity: 31
Note ON: Time 245760, Note Name: B3, Velocity: 31
Note OFF: Time 246000, Note Name: B3
Note OFF: Time 246000, Note Name: E4
Note ON: Time 246000, Note Name: G#3, Velocity: 33
Note OFF: Time 246240, Note Name: G#3
Note OFF: Time 246240, Note Name: E3
Note ON: Time 246240, Note Name: D#3, Velocity: 38
Note ON: Time 246480, Note Name: E4, Velocity: 33
Note ON: Time 246480, Note Name: B3, Velocity: 33
Note OFF: Time 246720, Note Name: B3
Note OFF: Time 246720, Note Name: E4
Note ON: Time 246720, Note Name: G#3, Velocity: 35
Note OFF: Time 246960, Note Name: G#3
Note OFF: Time 246960, Note Name: D#3
Note ON: Time 246960, Note Name: E3, Velocity: 35
Note OFF: Time 247200, Note Name: E3
Note ON: Time 247200, Note Name: E4, Velocity: 33
Note ON: Time 247200, Note Name: B3, Velocity: 33
Note OFF: Time 247440, Note Name: B3
Note OFF: Time 247440, Note Name: E4
Note ON: Time 247440, Note Name: G#3, Velocity: 33
Note OFF: Time 247680, Note Name: G#3
Note ON: Time 247680, Note Name: B2, Velocity: 35
Note OFF: Time 248400, Note Name: B2
Note ON: Time 248400, Note Name: A2, Velocity: 36
Note OFF: Time 248520, Note Name: A2
Note ON: Time 248640, Note Name: E4, Velocity: 31
Note ON: Time 248640, Note Name: C#4, Velocity: 31
Note OFF: Time 248880, Note Name: C#4
Note OFF: Time 248880, Note Name: E4
Note ON: Time 248880, Note Name: F#3, Velocity: 31
Note OFF: Time 249120, Note Name: F#3
Note ON: Time 249120, Note Name: F#2, Velocity: 40
Note OFF: Time 249240, Note Name: F#2
Note ON: Time 249360, Note Name: E4, Velocity: 35
Note ON: Time 249360, Note Name: C#4, Velocity: 35
Note OFF: Time 249600, Note Name: C#4
Note OFF: Time 249600, Note Name: E4
Note ON: Time 249600, Note Name: F#3, Velocity: 35
Note OFF: Time 249840, Note Name: F#3
Note ON: Time 249840, Note Name: B2, Velocity: 42
Note OFF: Time 249960, Note Name: B2
Note ON: Time 250080, Note Name: B3, Velocity: 36
Note ON: Time 250080, Note Name: D#4, Velocity: 36
Note ON: Time 250320, Note Name: F#3, Velocity: 36
Note OFF: Time 250560, Note Name: F#3
Note ON: Time 250560, Note Name: G#3, Velocity: 38
Note OFF: Time 250800, Note Name: G#3
Note ON: Time 250800, Note Name: F#3, Velocity: 40
Note OFF: Time 251040, Note Name: F#3
Note ON: Time 251040, Note Name: G#3, Velocity: 45
Note OFF: Time 251280, Note Name: G#3
Note OFF: Time 251280, Note Name: D#4
Note OFF: Time 251280, Note Name: B3
Note ON: Time 251280, Note Name: E3, Velocity: 49
Note ON: Time 251520, Note Name: E4, Velocity: 44
Note ON: Time 251520, Note Name: B3, Velocity: 44
Note OFF: Time 251760, Note Name: B3
Note OFF: Time 251760, Note Name: E4
Note ON: Time 251760, Note Name: G#3, Velocity: 44
Note OFF: Time 252000, Note Name: G#3
Note OFF: Time 252000, Note Name: E3
Note ON: Time 252000, Note Name: B2, Velocity: 67
Note OFF: Time 252120, Note Name: B2
Note ON: Time 252240, Note Name: E4, Velocity: 74
Note ON: Time 252240, Note Name: B3, Velocity: 74
Note OFF: Time 252480, Note Name: B3
Note OFF: Time 252480, Note Name: E4
Note ON: Time 252480, Note Name: G#3, Velocity: 74
Note OFF: Time 252720, Note Name: G#3
Note ON: Time 252720, Note Name: A2, Velocity: 70
Note ON: Time 252720, Note Name: A3, Velocity: 70
Note OFF: Time 252960, Note Name: A3
Note OFF: Time 252960, Note Name: A2
Note ON: Time 252960, Note Name: C3, Velocity: 77
Note ON: Time 252960, Note Name: C4, Velocity: 77
Note OFF: Time 253440, Note Name: C4
Note OFF: Time 253440, Note Name: C3
Note ON: Time 254160, Note Name: E2, Velocity: 66
Note ON: Time 254400, Note Name: E3, Velocity: 52
Note OFF: Time 254640, Note Name: E3
Note ON: Time 254640, Note Name: B2, Velocity: 52
Note OFF: Time 254880, Note Name: B2
Note OFF: Time 254880, Note Name: E2
Note ON: Time 254880, Note Name: B1, Velocity: 68
Note OFF: Time 255000, Note Name: B1
Note ON: Time 255120, Note Name: E3, Velocity: 68
Note OFF: Time 255360, Note Name: E3
Note ON: Time 255360, Note Name: B2, Velocity: 68
Note OFF: Time 255600, Note Name: B2
Note ON: Time 255600, Note Name: A1, Velocity: 75
Note ON: Time 255600, Note Name: A2, Velocity: 75
Note OFF: Time 255840, Note Name: A2
Note OFF: Time 255840, Note Name: A1
Note ON: Time 255840, Note Name: C2, Velocity: 86
Note ON: Time 255840, Note Name: C3, Velocity: 86
Note OFF: Time 256320, Note Name: C3
Note OFF: Time 256320, Note Name: C2
Note ON: Time 257040, Note Name: E1, Velocity: 98
Note OFF: Time 257280, Note Name: E1
Note ON: Time 258480, Note Name: G#4, Velocity: 80
Note ON: Time 258480, Note Name: B3, Velocity: 80
Note ON: Time 258480, Note Name: E3, Velocity: 80
Note OFF: Time 258720, Note Name: E3
Note OFF: Time 258720, Note Name: B3
Note OFF: Time 258720, Note Name: G#4
Note ON: Time 261360, Note Name: E1, Velocity: 96
Note OFF: Time 262080, Note Name: E1
Note ON: Time 262800, Note Name: A1, Velocity: 50
Note ON: Time 262800, Note Name: A2, Velocity: 50
Note OFF: Time 263520, Note Name: A1
Note ON: Time 263520, Note Name: D2, Velocity: 44
Note OFF: Time 265680, Note Name: D2
Note OFF: Time 265680, Note Name: A2
Note ON: Time 265680, Note Name: A1, Velocity: 50
Note ON: Time 265680, Note Name: A2, Velocity: 50
Note OFF: Time 266400, Note Name: A1
Note ON: Time 266400, Note Name: D2, Velocity: 44
Note OFF: Time 269280, Note Name: D2
Note OFF: Time 269280, Note Name: A2
Note ON: Time 269280, Note Name: E2, Velocity: 41
Note ON: Time 269280, Note Name: E3, Velocity: 41
Note OFF: Time 270000, Note Name: E3
Note ON: Time 270000, Note Name: D3, Velocity: 39
Note OFF: Time 270480, Note Name: D3
Note OFF: Time 270480, Note Name: E2
Note ON: Time 270480, Note Name: A2, Velocity: 36
Note ON: Time 270480, Note Name: C#3, Velocity: 36
Note OFF: Time 270720, Note Name: C#3
Note ON: Time 270720, Note Name: E3, Velocity: 32
Note OFF: Time 272160, Note Name: E3
Note OFF: Time 272160, Note Name: A2
Note ON: Time 272640, Note Name: E3, Velocity: 32
Note ON: Time 272640, Note Name: G3, Velocity: 32
Note ON: Time 272640, Note Name: A#3, Velocity: 32
Note OFF: Time 272880, Note Name: A#3
Note OFF: Time 272880, Note Name: G3
Note OFF: Time 272880, Note Name: E3
Note ON: Time 272880, Note Name: D3, Velocity: 38
Note ON: Time 272880, Note Name: F#3, Velocity: 38
Note ON: Time 272880, Note Name: B3, Velocity: 38
Note OFF: Time 273120, Note Name: B3
Note OFF: Time 273120, Note Name: F#3
Note OFF: Time 273120, Note Name: D3
Note ON: Time 273360, Note Name: F#3, Velocity: 32
Note ON: Time 273360, Note Name: A3, Velocity: 32
Note ON: Time 273360, Note Name: D4, Velocity: 32
Note OFF: Time 273600, Note Name: D4
Note OFF: Time 273600, Note Name: A3
Note OFF: Time 273600, Note Name: F#3
Note ON: Time 273600, Note Name: F3, Velocity: 36
Note ON: Time 273600, Note Name: G#3, Velocity: 36
Note ON: Time 273600, Note Name: C#4, Velocity: 36
Note OFF: Time 274080, Note Name: C#4
Note OFF: Time 274080, Note Name: G#3
Note OFF: Time 274080, Note Name: F3
Note ON: Time 274080, Note Name: E3, Velocity: 31
Note ON: Time 274080, Note Name: G3, Velocity: 31
Note ON: Time 274080, Note Name: A#3, Velocity: 31
Note OFF: Time 274320, Note Name: A#3
Note OFF: Time 274320, Note Name: G3
Note OFF: Time 274320, Note Name: E3
Note ON: Time 274320, Note Name: D3, Velocity: 37
Note ON: Time 274320, Note Name: F#3, Velocity: 37
Note ON: Time 274320, Note Name: B3, Velocity: 37
Note OFF: Time 274560, Note Name: B3
Note OFF: Time 274560, Note Name: F#3
Note OFF: Time 274560, Note Name: D3
Note ON: Time 274800, Note Name: F#3, Velocity: 32
Note ON: Time 274800, Note Name: A3, Velocity: 32
Note ON: Time 274800, Note Name: D4, Velocity: 32
Note OFF: Time 275040, Note Name: D4
Note OFF: Time 275040, Note Name: A3
Note OFF: Time 275040, Note Name: F#3
Note ON: Time 275040, Note Name: C#3, Velocity: 29
Note ON: Time 275070, Note Name: G#3, Velocity: 29
Note ON: Time 275100, Note Name: F4, Velocity: 29
Note OFF: Time 275280, Note Name: F4
Note OFF: Time 275280, Note Name: G#3
Note OFF: Time 275280, Note Name: C#3
Note ON: Time 275760, Note Name: C#2, Velocity: 25
Note OFF: Time 275880, Note Name: C#2
Note ON: Time 277920, Note Name: A2, Velocity: 34
Note ON: Time 278640, Note Name: D2, Velocity: 30
Note OFF: Time 280800, Note Name: D2
Note OFF: Time 280800, Note Name: A2
Note ON: Time 280800, Note Name: A1, Velocity: 34
Note ON: Time 280800, Note Name: A2, Velocity: 34
Note OFF: Time 281520, Note Name: A1
Note ON: Time 281520, Note Name: D2, Velocity: 30
Note OFF: Time 284400, Note Name: D2
Note OFF: Time 284400, Note Name: A2
Note ON: Time 284400, Note Name: E2, Velocity: 28
Note ON: Time 284400, Note Name: E3, Velocity: 28
Note OFF: Time 285120, Note Name: E3
Note ON: Time 285120, Note Name: D3, Velocity: 28
Note OFF: Time 285600, Note Name: D3
Note OFF: Time 285600, Note Name: E2
Note ON: Time 285600, Note Name: A2, Velocity: 25
Note ON: Time 285600, Note Name: C#3, Velocity: 25
Note OFF: Time 285840, Note Name: C#3
Note ON: Time 285840, Note Name: E3, Velocity: 22
Note OFF: Time 287280, Note Name: E3
Note OFF: Time 287280, Note Name: A2
Note ON: Time 290640, Note Name: B3, Velocity: 26
Note ON: Time 290640, Note Name: D4, Velocity: 26
Note ON: Time 290640, Note Name: F4, Velocity: 26
Note OFF: Time 290880, Note Name: F4
Note OFF: Time 290880, Note Name: D4
Note OFF: Time 290880, Note Name: B3
Note ON: Time 290880, Note Name: A3, Velocity: 31
Note ON: Time 290880, Note Name: C#4, Velocity: 31
Note ON: Time 290880, Note Name: F#4, Velocity: 31
Note OFF: Time 291120, Note Name: F#4
Note OFF: Time 291120, Note Name: C#4
Note OFF: Time 291120, Note Name: A3
Note ON: Time 291360, Note Name: C#4, Velocity: 28
Note ON: Time 291360, Note Name: E4, Velocity: 28
Note ON: Time 291360, Note Name: A4, Velocity: 28
Note OFF: Time 291600, Note Name: A4
Note OFF: Time 291600, Note Name: E4
Note OFF: Time 291600, Note Name: C#4
Note ON: Time 291600, Note Name: C4, Velocity: 31
Note ON: Time 291600, Note Name: D#4, Velocity: 31
Note ON: Time 291600, Note Name: G#4, Velocity: 31
Note OFF: Time 292080, Note Name: G#4
Note OFF: Time 292080, Note Name: D#4
Note OFF: Time 292080, Note Name: C4
Note ON: Time 292080, Note Name: B3, Velocity: 27
Note ON: Time 292080, Note Name: D4, Velocity: 27
Note ON: Time 292080, Note Name: F4, Velocity: 27
Note OFF: Time 292320, Note Name: F4
Note OFF: Time 292320, Note Name: D4
Note OFF: Time 292320, Note Name: B3
Note ON: Time 292320, Note Name: A3, Velocity: 31
Note ON: Time 292320, Note Name: C#4, Velocity: 31
Note ON: Time 292320, Note Name: F#4, Velocity: 31
Note OFF: Time 292560, Note Name: F#4
Note OFF: Time 292560, Note Name: C#4
Note OFF: Time 292560, Note Name: A3
Note ON: Time 292800, Note Name: C#4, Velocity: 25
Note ON: Time 292800, Note Name: E4, Velocity: 25
Note ON: Time 292800, Note Name: A4, Velocity: 25
Note OFF: Time 293040, Note Name: A4
Note OFF: Time 293040, Note Name: E4
Note OFF: Time 293040, Note Name: C#4
Note ON: Time 293040, Note Name: G#3, Velocity: 24
Note ON: Time 293040, Note Name: D#4, Velocity: 24
Note ON: Time 293040, Note Name: C5, Velocity: 24
Note OFF: Time 293280, Note Name: C5
Note OFF: Time 293280, Note Name: D#4
Note OFF: Time 293280, Note Name: G#3
Note ON: Time 293760, Note Name: G#2, Velocity: 24
Note OFF: Time 294000, Note Name: G#2
Note ON: Time 295920, Note Name: C#3, Velocity: 33
Note ON: Time 296160, Note Name: E4, Velocity: 30
Note OFF: Time 296400, Note Name: E4
Note ON: Time 296400, Note Name: G#3, Velocity: 30
Note OFF: Time 296640, Note Name: C#3
Note ON: Time 296640, Note Name: D#3, Velocity: 33
Note ON: Time 296640, Note Name: F#3, Velocity: 33
Note OFF: Time 296880, Note Name: G#3
Note ON: Time 296880, Note Name: C4, Velocity: 32
Note OFF: Time 297120, Note Name: C4
Note ON: Time 297120, Note Name: G#3, Velocity: 32
Note OFF: Time 297360, Note Name: F#3
Note OFF: Time 297360, Note Name: D#3
Note ON: Time 297360, Note Name: E3, Velocity: 33
Note OFF: Time 297600, Note Name: G#3
Note ON: Time 297600, Note Name: C#4, Velocity: 32
Note OFF: Time 297840, Note Name: C#4
Note ON: Time 297840, Note Name: G#3, Velocity: 32
Note OFF: Time 298080, Note Name: E3
Note ON: Time 298080, Note Name: C3, Velocity: 33
Note OFF: Time 298320, Note Name: G#3
Note ON: Time 298320, Note Name: D#4, Velocity: 31
Note OFF: Time 298560, Note Name: D#4
Note ON: Time 298560, Note Name: G#3, Velocity: 31
Note OFF: Time 298800, Note Name: C3
Note ON: Time 298800, Note Name: C#3, Velocity: 33
Note OFF: Time 299040, Note Name: G#3
Note ON: Time 299040, Note Name: E4, Velocity: 33
Note OFF: Time 299280, Note Name: E4
Note ON: Time 299280, Note Name: G#3, Velocity: 31
Note OFF: Time 299520, Note Name: C#3
Note ON: Time 299520, Note Name: D#3, Velocity: 33
Note ON: Time 299520, Note Name: F#3, Velocity: 33
Note OFF: Time 299760, Note Name: G#3
Note ON: Time 299760, Note Name: C4, Velocity: 31
Note OFF: Time 300000, Note Name: C4
Note ON: Time 300000, Note Name: G#3, Velocity: 31
Note OFF: Time 300240, Note Name: F#3
Note OFF: Time 300240, Note Name: D#3
Note ON: Time 300240, Note Name: E3, Velocity: 33
Note OFF: Time 300480, Note Name: G#3
Note ON: Time 300480, Note Name: C#4, Velocity: 31
Note OFF: Time 300720, Note Name: C#4
Note ON: Time 300720, Note Name: G#3, Velocity: 31
Note OFF: Time 300960, Note Name: G#3
Note OFF: Time 300960, Note Name: E3
Note ON: Time 300960, Note Name: B3, Velocity: 31
Note ON: Time 300960, Note Name: F3, Velocity: 33
Note OFF: Time 301200, Note Name: B3
Note ON: Time 301200, Note Name: G#4, Velocity: 31
Note OFF: Time 301440, Note Name: G#4
Note ON: Time 301440, Note Name: C#4, Velocity: 31
Note OFF: Time 301680, Note Name: F3
Note ON: Time 301680, Note Name: F#3, Velocity: 36
Note ON: Time 301680, Note Name: A3, Velocity: 36
Note OFF: Time 301920, Note Name: C#4
Note ON: Time 301920, Note Name: F#4, Velocity: 31
Note OFF: Time 302160, Note Name: F#4
Note ON: Time 302160, Note Name: C#4, Velocity: 31
Note OFF: Time 302400, Note Name: A3
Note OFF: Time 302400, Note Name: F#3
Note ON: Time 302400, Note Name: G#3, Velocity: 33
Note ON: Time 302400, Note Name: B3, Velocity: 33
Note OFF: Time 302640, Note Name: C#4
Note ON: Time 302640, Note Name: F4, Velocity: 31
Note OFF: Time 302880, Note Name: F4
Note ON: Time 302880, Note Name: C#4, Velocity: 31
Note OFF: Time 303120, Note Name: B3
Note OFF: Time 303120, Note Name: G#3
Note ON: Time 303120, Note Name: A3, Velocity: 33
Note OFF: Time 303360, Note Name: C#4
Note ON: Time 303360, Note Name: F#4, Velocity: 27
Note OFF: Time 303600, Note Name: F#4
Note ON: Time 303600, Note Name: C#4, Velocity: 27
Note OFF: Time 303840, Note Name: A3
Note ON: Time 303840, Note Name: F3, Velocity: 30
Note OFF: Time 304080, Note Name: C#4
Note ON: Time 304080, Note Name: G#4, Velocity: 31
Note OFF: Time 304320, Note Name: G#4
Note ON: Time 304320, Note Name: C#4, Velocity: 31
Note OFF: Time 304560, Note Name: F3
Note ON: Time 304560, Note Name: F#3, Velocity: 33
Note ON: Time 304560, Note Name: A3, Velocity: 33
Note OFF: Time 304800, Note Name: C#4
Note ON: Time 304800, Note Name: A4, Velocity: 31
Note OFF: Time 305040, Note Name: A4
Note ON: Time 305040, Note Name: C#4, Velocity: 31
Note OFF: Time 305280, Note Name: A3
Note OFF: Time 305280, Note Name: F#3
Note ON: Time 305280, Note Name: G#3, Velocity: 33
Note ON: Time 305280, Note Name: B3, Velocity: 33
Note OFF: Time 305520, Note Name: C#4
Note ON: Time 305520, Note Name: F4, Velocity: 31
Note OFF: Time 305760, Note Name: F4
Note ON: Time 305760, Note Name: C#4, Velocity: 31
Note OFF: Time 306000, Note Name: B3
Note OFF: Time 306000, Note Name: G#3
Note ON: Time 306000, Note Name: A3, Velocity: 33
Note OFF: Time 306240, Note Name: C#4
Note ON: Time 306240, Note Name: F#4, Velocity: 31
Note OFF: Time 306480, Note Name: F#4
Note ON: Time 306480, Note Name: C#4, Velocity: 31
Note OFF: Time 306720, Note Name: C#4
Note OFF: Time 306720, Note Name: A3
Note ON: Time 306720, Note Name: A2, Velocity: 31
Note OFF: Time 306840, Note Name: A2
Note ON: Time 306960, Note Name: C#4, Velocity: 28
Note OFF: Time 307200, Note Name: C#4
Note ON: Time 307200, Note Name: F#3, Velocity: 28
Note OFF: Time 307440, Note Name: F#3
Note ON: Time 307440, Note Name: G#2, Velocity: 30
Note ON: Time 307440, Note Name: D#3, Velocity: 30
Note OFF: Time 307680, Note Name: G#2
Note ON: Time 307680, Note Name: C4, Velocity: 27
Note OFF: Time 307920, Note Name: C4
Note ON: Time 307920, Note Name: F#3, Velocity: 27
Note OFF: Time 308160, Note Name: F#3
Note OFF: Time 308160, Note Name: D#3
Note ON: Time 308160, Note Name: E3, Velocity: 31
Note ON: Time 308400, Note Name: C#4, Velocity: 33
Note OFF: Time 308640, Note Name: C#4
Note ON: Time 308640, Note Name: G#3, Velocity: 33
Note OFF: Time 308880, Note Name: G#3
Note OFF: Time 308880, Note Name: E3
Note ON: Time 308880, Note Name: G#2, Velocity: 38
Note ON: Time 308880, Note Name: F#3, Velocity: 38
Note OFF: Time 309120, Note Name: G#2
Note ON: Time 309120, Note Name: C4, Velocity: 32
Note OFF: Time 309360, Note Name: C4
Note ON: Time 309360, Note Name: G#3, Velocity: 32
Note OFF: Time 309600, Note Name: F#3
Note ON: Time 309600, Note Name: E3, Velocity: 37
Note OFF: Time 309840, Note Name: G#3
Note ON: Time 309840, Note Name: C#4, Velocity: 31
Note OFF: Time 310080, Note Name: C#4
Note ON: Time 310080, Note Name: G#3, Velocity: 31
Note OFF: Time 310320, Note Name: G#3
Note OFF: Time 310320, Note Name: E3
Note ON: Time 310320, Note Name: G#2, Velocity: 36
Note ON: Time 310320, Note Name: D#3, Velocity: 36
Note OFF: Time 310560, Note Name: G#2
Note ON: Time 310560, Note Name: C4, Velocity: 34
Note OFF: Time 310800, Note Name: C4
Note ON: Time 310800, Note Name: G#3, Velocity: 34
Note OFF: Time 311040, Note Name: D#3
Note ON: Time 311040, Note Name: E3, Velocity: 38
Note OFF: Time 311280, Note Name: G#3
Note ON: Time 311280, Note Name: C#4, Velocity: 31
Note OFF: Time 311520, Note Name: C#4
Note ON: Time 311520, Note Name: G#3, Velocity: 31
Note OFF: Time 311760, Note Name: G#3
Note OFF: Time 311760, Note Name: E3
Note ON: Time 311760, Note Name: B2, Velocity: 33
Note ON: Time 312000, Note Name: F#3, Velocity: 29
Note ON: Time 312240, Note Name: A3, Velocity: 29
Note ON: Time 312480, Note Name: D#4, Velocity: 33
Note OFF: Time 313200, Note Name: D#4
Note OFF: Time 313200, Note Name: B2
Note OFF: Time 313200, Note Name: F#3
Note OFF: Time 313200, Note Name: A3
Note ON: Time 313200, Note Name: E3, Velocity: 32
Note ON: Time 313440, Note Name: E4, Velocity: 29
Note ON: Time 313440, Note Name: B3, Velocity: 29
Note OFF: Time 313680, Note Name: B3
Note OFF: Time 313680, Note Name: E4
Note ON: Time 313680, Note Name: G#3, Velocity: 30
Note OFF: Time 313920, Note Name: G#3
Note OFF: Time 313920, Note Name: E3
Note ON: Time 313920, Note Name: D#3, Velocity: 35
Note ON: Time 314160, Note Name: E4, Velocity: 30
Note ON: Time 314160, Note Name: B3, Velocity: 30
Note OFF: Time 314400, Note Name: B3
Note OFF: Time 314400, Note Name: E4
Note ON: Time 314400, Note Name: G#3, Velocity: 32
Note OFF: Time 314640, Note Name: G#3
Note OFF: Time 314640, Note Name: D#3
Note ON: Time 314640, Note Name: E3, Velocity: 32
Note OFF: Time 314880, Note Name: E3
Note ON: Time 314880, Note Name: E4, Velocity: 30
Note ON: Time 314880, Note Name: B3, Velocity: 30
Note OFF: Time 315120, Note Name: B3
Note OFF: Time 315120, Note Name: E4
Note ON: Time 315120, Note Name: G#3, Velocity: 30
Note OFF: Time 315360, Note Name: G#3
Note ON: Time 315360, Note Name: B2, Velocity: 32
Note OFF: Time 316080, Note Name: B2
Note ON: Time 316080, Note Name: A2, Velocity: 36
Note OFF: Time 316200, Note Name: A2
Note ON: Time 316320, Note Name: E4, Velocity: 31
Note ON: Time 316320, Note Name: C#4, Velocity: 31
Note OFF: Time 316560, Note Name: C#4
Note OFF: Time 316560, Note Name: E4
Note ON: Time 316560, Note Name: F#3, Velocity: 31
Note OFF: Time 316800, Note Name: F#3
Note ON: Time 316800, Note Name: F#2, Velocity: 40
Note OFF: Time 316920, Note Name: F#2
Note ON: Time 317040, Note Name: E4, Velocity: 35
Note ON: Time 317040, Note Name: C#4, Velocity: 35
Note OFF: Time 317280, Note Name: C#4
Note OFF: Time 317280, Note Name: E4
Note ON: Time 317280, Note Name: F#3, Velocity: 35
Note OFF: Time 317520, Note Name: F#3
Note ON: Time 317520, Note Name: B2, Velocity: 38
Note OFF: Time 317640, Note Name: B2
Note ON: Time 317760, Note Name: B3, Velocity: 34
Note ON: Time 317760, Note Name: D#4, Velocity: 34
Note ON: Time 318000, Note Name: F#3, Velocity: 31
Note OFF: Time 318240, Note Name: F#3
Note ON: Time 318240, Note Name: G#3, Velocity: 38
Note OFF: Time 318480, Note Name: G#3
Note ON: Time 318480, Note Name: F#3, Velocity: 40
Note OFF: Time 318720, Note Name: F#3
Note ON: Time 318720, Note Name: G#3, Velocity: 48
Note OFF: Time 318960, Note Name: G#3
Note OFF: Time 318960, Note Name: D#4
Note OFF: Time 318960, Note Name: B3
Note ON: Time 318960, Note Name: E3, Velocity: 35
Note ON: Time 319200, Note Name: E4, Velocity: 31
Note ON: Time 319200, Note Name: B3, Velocity: 31
Note OFF: Time 319440, Note Name: B3
Note OFF: Time 319440, Note Name: E4
Note ON: Time 319440, Note Name: G#3, Velocity: 33
Note OFF: Time 319680, Note Name: G#3
Note OFF: Time 319680, Note Name: E3
Note ON: Time 319680, Note Name: D#3, Velocity: 38
Note ON: Time 319920, Note Name: E4, Velocity: 33
Note ON: Time 319920, Note Name: B3, Velocity: 33
Note OFF: Time 320160, Note Name: B3
Note OFF: Time 320160, Note Name: E4
Note ON: Time 320160, Note Name: G#3, Velocity: 35
Note OFF: Time 320400, Note Name: G#3
Note OFF: Time 320400, Note Name: D#3
Note ON: Time 320400, Note Name: E3, Velocity: 35
Note OFF: Time 320640, Note Name: E3
Note ON: Time 320640, Note Name: E4, Velocity: 33
Note ON: Time 320640, Note Name: B3, Velocity: 33
Note OFF: Time 320880, Note Name: B3
Note OFF: Time 320880, Note Name: E4
Note ON: Time 320880, Note Name: G#3, Velocity: 33
Note OFF: Time 321120, Note Name: G#3
Note ON: Time 321120, Note Name: B2, Velocity: 35
Note OFF: Time 321840, Note Name: B2
Note ON: Time 321840, Note Name: A2, Velocity: 36
Note OFF: Time 321960, Note Name: A2
Note ON: Time 322080, Note Name: E4, Velocity: 31
Note ON: Time 322080, Note Name: C#4, Velocity: 31
Note OFF: Time 322320, Note Name: C#4
Note OFF: Time 322320, Note Name: E4
Note ON: Time 322320, Note Name: F#3, Velocity: 31
Note OFF: Time 322560, Note Name: F#3
Note ON: Time 322560, Note Name: F#2, Velocity: 40
Note OFF: Time 322680, Note Name: F#2
Note ON: Time 322800, Note Name: E4, Velocity: 35
Note ON: Time 322800, Note Name: C#4, Velocity: 35
Note OFF: Time 323040, Note Name: C#4
Note OFF: Time 323040, Note Name: E4
Note ON: Time 323040, Note Name: F#3, Velocity: 35
Note OFF: Time 323280, Note Name: F#3
Note ON: Time 323280, Note Name: B2, Velocity: 42
Note OFF: Time 323400, Note Name: B2
Note ON: Time 323520, Note Name: B3, Velocity: 36
Note ON: Time 323520, Note Name: D#4, Velocity: 36
Note ON: Time 323760, Note Name: F#3, Velocity: 36
Note OFF: Time 324000, Note Name: F#3
Note ON: Time 324000, Note Name: G#3, Velocity: 38
Note OFF: Time 324240, Note Name: G#3
Note ON: Time 324240, Note Name: F#3, Velocity: 40
Note OFF: Time 324480, Note Name: F#3
Note ON: Time 324480, Note Name: G#3, Velocity: 45
Note OFF: Time 324720, Note Name: G#3
Note OFF: Time 324720, Note Name: D#4
Note OFF: Time 324720, Note Name: B3
Note ON: Time 324720, Note Name: E3, Velocity: 49
Note ON: Time 324960, Note Name: E4, Velocity: 44
Note ON: Time 324960, Note Name: B3, Velocity: 44
Note OFF: Time 325200, Note Name: B3
Note OFF: Time 325200, Note Name: E4
Note ON: Time 325200, Note Name: G#3, Velocity: 44
Note OFF: Time 325440, Note Name: G#3
Note OFF: Time 325440, Note Name: E3
Note ON: Time 325440, Note Name: B2, Velocity: 62
Note OFF: Time 325560, Note Name: B2
Note ON: Time 325680, Note Name: E4, Velocity: 67
Note ON: Time 325680, Note Name: B3, Velocity: 67
Note OFF: Time 325920, Note Name: B3
Note OFF: Time 325920, Note Name: E4
Note ON: Time 325920, Note Name: G#3, Velocity: 67
Note OFF: Time 326160, Note Name: G#3
Note ON: Time 326160, Note Name: A2, Velocity: 70
Note ON: Time 326160, Note Name: A3, Velocity: 70
Note OFF: Time 326400, Note Name: A3
Note OFF: Time 326400, Note Name: A2
Note ON: Time 326400, Note Name: C3, Velocity: 77
Note ON: Time 326400, Note Name: C4, Velocity: 77
Note OFF: Time 326880, Note Name: C4
Note OFF: Time 326880, Note Name: C3
Note ON: Time 327600, Note Name: E2, Velocity: 66
Note ON: Time 327840, Note Name: E3, Velocity: 52
Note OFF: Time 328080, Note Name: E3
Note ON: Time 328080, Note Name: B2, Velocity: 52
Note OFF: Time 328320, Note Name: B2
Note OFF: Time 328320, Note Name: E2
Note ON: Time 328320, Note Name: B1, Velocity: 68
Note OFF: Time 328440, Note Name: B1
Note ON: Time 328560, Note Name: E3, Velocity: 66
Note OFF: Time 328800, Note Name: E3
Note ON: Time 328800, Note Name: B2, Velocity: 66
Note OFF: Time 329040, Note Name: B2
Note ON: Time 329040, Note Name: A1, Velocity: 75
Note ON: Time 329040, Note Name: A2, Velocity: 75
Note OFF: Time 329280, Note Name: A2
Note OFF: Time 329280, Note Name: A1
Note ON: Time 329280, Note Name: C2, Velocity: 86
Note ON: Time 329280, Note Name: C3, Velocity: 86
Note OFF: Time 329760, Note Name: C3
Note OFF: Time 329760, Note Name: C2
Note ON: Time 330480, Note Name: E1, Velocity: 104
Note OFF: Time 330720, Note Name: E1
Note ON: Time 331920, Note Name: G#4, Velocity: 80
Note ON: Time 331920, Note Name: B3, Velocity: 80
Note ON: Time 331920, Note Name: E3, Velocity: 80
Note OFF: Time 332160, Note Name: E3
Note OFF: Time 332160, Note Name: B3
Note OFF: Time 332160, Note Name: G#4
Note ON: Time 334800, Note Name: E1, Velocity: 96
Note OFF: Time 335520, Note Name: E1
Note ON: Time 336240, Note Name: D2, Velocity: 98
Note ON: Time 336240, Note Name: D1, Velocity: 83
Note OFF: Time 336480, Note Name: D1
Note OFF: Time 336480, Note Name: D2
Note ON: Time 337680, Note Name: G#3, Velocity: 80
Note ON: Time 337680, Note Name: F4, Velocity: 80
Note ON: Time 337680, Note Name: B3, Velocity: 80
Note ON: Time 337680, Note Name: D3, Velocity: 68
Note OFF: Time 337920, Note Name: D3
Note OFF: Time 337920, Note Name: G#3
Note OFF: Time 337920, Note Name: F4
Note OFF: Time 337920, Note Name: B3
Note ON: Time 340560, Note Name: D1, Velocity: 96
Note OFF: Time 342000, Note Name: D1
Note ON: Time 342000, Note Name: C#1, Velocity: 86
Note ON: Time 342000, Note Name: C#2, Velocity: 102
Note OFF: Time 342240, Note Name: C#2
Note OFF: Time 342240, Note Name: C#1
Note ON: Time 342720, Note Name: G#2, Velocity: 84
Note ON: Time 342720, Note Name: G#3, Velocity: 84
Note OFF: Time 342960, Note Name: G#3
Note OFF: Time 342960, Note Name: G#2
Note ON: Time 342960, Note Name: D#3, Velocity: 90
Note ON: Time 342960, Note Name: D#4, Velocity: 90
Note OFF: Time 343200, Note Name: D#4
Note OFF: Time 343200, Note Name: D#3
Note ON: Time 343200, Note Name: C#3, Velocity: 84
Note ON: Time 343200, Note Name: C#4, Velocity: 84
Note OFF: Time 343440, Note Name: C#4
Note OFF: Time 343440, Note Name: C#3
Note ON: Time 343440, Note Name: C#3, Velocity: 95
Note ON: Time 343440, Note Name: C#4, Velocity: 95
Note OFF: Time 343920, Note Name: C#4
Note OFF: Time 343920, Note Name: C#3
Note ON: Time 344160, Note Name: C#2, Velocity: 90
Note ON: Time 344160, Note Name: C#3, Velocity: 90
Note OFF: Time 344280, Note Name: C#3
Note OFF: Time 344280, Note Name: C#2
Note ON: Time 344880, Note Name: C#1, Velocity: 90
Note ON: Time 344880, Note Name: C#2, Velocity: 90
Note OFF: Time 345120, Note Name: C#2
Note OFF: Time 345120, Note Name: C#1
Note ON: Time 345600, Note Name: F#2, Velocity: 82
Note ON: Time 345600, Note Name: F#3, Velocity: 82
Note OFF: Time 345840, Note Name: F#3
Note OFF: Time 345840, Note Name: F#2
Note ON: Time 345840, Note Name: D#3, Velocity: 87
Note ON: Time 345840, Note Name: D#4, Velocity: 87
Note OFF: Time 346080, Note Name: D#4
Note OFF: Time 346080, Note Name: D#3
Note ON: Time 346080, Note Name: C#3, Velocity: 82
Note ON: Time 346080, Note Name: C#4, Velocity: 82
Note OFF: Time 346320, Note Name: C#4
Note OFF: Time 346320, Note Name: C#3
Note ON: Time 346320, Note Name: C#3, Velocity: 93
Note ON: Time 346320, Note Name: C#4, Velocity: 93
Note OFF: Time 346440, Note Name: C#4
Note OFF: Time 346440, Note Name: C#3
Note ON: Time 346560, Note Name: G1, Velocity: 71
Note ON: Time 346560, Note Name: G2, Velocity: 71
Note OFF: Time 346800, Note Name: G2
Note OFF: Time 346800, Note Name: G1
Note ON: Time 346800, Note Name: G#1, Velocity: 71
Note ON: Time 346800, Note Name: G#2, Velocity: 71
Note OFF: Time 347040, Note Name: G#2
Note OFF: Time 347040, Note Name: G#1
Note ON: Time 347040, Note Name: G#1, Velocity: 71
Note ON: Time 347040, Note Name: G#2, Velocity: 71
Note OFF: Time 347280, Note Name: G#2
Note OFF: Time 347280, Note Name: G#1
Note ON: Time 347280, Note Name: D#2, Velocity: 75
Note ON: Time 347280, Note Name: D#3, Velocity: 75
Note OFF: Time 347520, Note Name: D#3
Note OFF: Time 347520, Note Name: D#2
Note ON: Time 347520, Note Name: C#2, Velocity: 74
Note ON: Time 347520, Note Name: C#3, Velocity: 74
Note OFF: Time 347760, Note Name: C#3
Note OFF: Time 347760, Note Name: C#2
Note ON: Time 347760, Note Name: D2, Velocity: 93
Note ON: Time 347760, Note Name: D3, Velocity: 93
Note OFF: Time 348000, Note Name: D3
Note OFF: Time 348000, Note Name: D2
Note ON: Time 348480, Note Name: A2, Velocity: 81
Note ON: Time 348480, Note Name: A3, Velocity: 81
Note OFF: Time 348720, Note Name: A3
Note OFF: Time 348720, Note Name: A2
Note ON: Time 348720, Note Name: E4, Velocity: 86
Note ON: Time 348720, Note Name: E3, Velocity: 86
Note OFF: Time 348960, Note Name: E3
Note OFF: Time 348960, Note Name: E4
Note ON: Time 348960, Note Name: D3, Velocity: 79
Note ON: Time 348960, Note Name: D4, Velocity: 79
Note OFF: Time 349200, Note Name: D4
Note OFF: Time 349200, Note Name: D3
Note ON: Time 349200, Note Name: D3, Velocity: 93
Note ON: Time 349200, Note Name: D4, Velocity: 93
Note OFF: Time 349680, Note Name: D4
Note OFF: Time 349680, Note Name: D3
Note ON: Time 349920, Note Name: D2, Velocity: 97
Note ON: Time 349920, Note Name: D3, Velocity: 97
Note OFF: Time 350040, Note Name: D3
Note OFF: Time 350040, Note Name: D2
Note ON: Time 350640, Note Name: D2, Velocity: 93
Note ON: Time 350640, Note Name: D1, Velocity: 79
Note OFF: Time 350880, Note Name: D1
Note OFF: Time 350880, Note Name: D2
Note ON: Time 351360, Note Name: G2, Velocity: 81
Note ON: Time 351360, Note Name: G3, Velocity: 81
Note OFF: Time 351600, Note Name: G3
Note OFF: Time 351600, Note Name: G2
Note ON: Time 351600, Note Name: E4, Velocity: 86
Note ON: Time 351600, Note Name: E3, Velocity: 86
Note OFF: Time 351840, Note Name: E3
Note OFF: Time 351840, Note Name: E4
Note ON: Time 351840, Note Name: D3, Velocity: 79
Note ON: Time 351840, Note Name: D4, Velocity: 79
Note OFF: Time 352080, Note Name: D4
Note OFF: Time 352080, Note Name: D3
Note ON: Time 352080, Note Name: D3, Velocity: 86
Note ON: Time 352080, Note Name: D4, Velocity: 86
Note OFF: Time 352200, Note Name: D4
Note OFF: Time 352200, Note Name: D3
Note ON: Time 352320, Note Name: C#2, Velocity: 71
Note ON: Time 352320, Note Name: C#3, Velocity: 71
Note OFF: Time 352560, Note Name: C#3
Note OFF: Time 352560, Note Name: C#2
Note ON: Time 352560, Note Name: D2, Velocity: 71
Note ON: Time 352560, Note Name: D3, Velocity: 71
Note OFF: Time 352800, Note Name: D3
Note OFF: Time 352800, Note Name: D2
Note ON: Time 352800, Note Name: D2, Velocity: 77
Note ON: Time 352800, Note Name: D3, Velocity: 77
Note OFF: Time 352920, Note Name: D3
Note OFF: Time 352920, Note Name: D2
Note ON: Time 353040, Note Name: B1, Velocity: 70
Note ON: Time 353040, Note Name: B2, Velocity: 70
Note OFF: Time 353280, Note Name: B2
Note OFF: Time 353280, Note Name: B1
Note ON: Time 353280, Note Name: C2, Velocity: 71
Note ON: Time 353280, Note Name: C3, Velocity: 71
Note OFF: Time 353520, Note Name: C3
Note OFF: Time 353520, Note Name: C2
Note ON: Time 353520, Note Name: A#1, Velocity: 84
Note ON: Time 353520, Note Name: A#2, Velocity: 84
Note OFF: Time 353760, Note Name: A#2
Note OFF: Time 353760, Note Name: A#1
Note ON: Time 353760, Note Name: D4, Velocity: 56
Note OFF: Time 354000, Note Name: D4
Note ON: Time 354000, Note Name: D3, Velocity: 56
Note ON: Time 354000, Note Name: G3, Velocity: 56
Note OFF: Time 354240, Note Name: G3
Note OFF: Time 354240, Note Name: D3
Note ON: Time 354240, Note Name: A2, Velocity: 68
Note OFF: Time 354480, Note Name: A2
Note ON: Time 354480, Note Name: D4, Velocity: 56
Note OFF: Time 354720, Note Name: D4
Note ON: Time 354720, Note Name: D3, Velocity: 56
Note ON: Time 354720, Note Name: A3, Velocity: 56
Note OFF: Time 354960, Note Name: A3
Note OFF: Time 354960, Note Name: D3
Note ON: Time 354960, Note Name: G2, Velocity: 66
Note OFF: Time 355200, Note Name: G2
Note ON: Time 355200, Note Name: D4, Velocity: 56
Note OFF: Time 355440, Note Name: D4
Note ON: Time 355440, Note Name: D3, Velocity: 56
Note ON: Time 355440, Note Name: A#3, Velocity: 56
Note OFF: Time 355680, Note Name: A#3
Note OFF: Time 355680, Note Name: D3
Note ON: Time 355680, Note Name: C3, Velocity: 65
Note ON: Time 355920, Note Name: D4, Velocity: 56
Note OFF: Time 356160, Note Name: D4
Note ON: Time 356160, Note Name: F#3, Velocity: 56
Note ON: Time 356160, Note Name: A3, Velocity: 56
Note OFF: Time 356400, Note Name: A3
Note OFF: Time 356400, Note Name: F#3
Note OFF: Time 356400, Note Name: C3
Note ON: Time 356400, Note Name: A#2, Velocity: 65
Note OFF: Time 356640, Note Name: A#2
Note ON: Time 356640, Note Name: D4, Velocity: 56
Note OFF: Time 356880, Note Name: D4
Note ON: Time 356880, Note Name: D3, Velocity: 56
Note ON: Time 356880, Note Name: G3, Velocity: 56
Note OFF: Time 357120, Note Name: G3
Note OFF: Time 357120, Note Name: D3
Note ON: Time 357120, Note Name: A2, Velocity: 66
Note OFF: Time 357360, Note Name: A2
Note ON: Time 357360, Note Name: D4, Velocity: 56
Note OFF: Time 357600, Note Name: D4
Note ON: Time 357600, Note Name: D3, Velocity: 56
Note ON: Time 357600, Note Name: A3, Velocity: 56
Note OFF: Time 357840, Note Name: A3
Note OFF: Time 357840, Note Name: D3
Note ON: Time 357840, Note Name: G2, Velocity: 65
Note OFF: Time 358080, Note Name: G2
Note ON: Time 358080, Note Name: D4, Velocity: 56
Note OFF: Time 358320, Note Name: D4
Note ON: Time 358320, Note Name: G3, Velocity: 56
Note OFF: Time 358560, Note Name: G3
Note ON: Time 358560, Note Name: B2, Velocity: 64
Note OFF: Time 358800, Note Name: B2
Note ON: Time 358800, Note Name: D4, Velocity: 56
Note OFF: Time 359040, Note Name: D4
Note ON: Time 359040, Note Name: G3, Velocity: 56
Note OFF: Time 359280, Note Name: G3
Note ON: Time 359280, Note Name: C3, Velocity: 65
Note OFF: Time 359520, Note Name: C3
Note ON: Time 359520, Note Name: D#4, Velocity: 56
Note OFF: Time 359760, Note Name: D#4
Note ON: Time 359760, Note Name: G3, Velocity: 56
Note OFF: Time 360000, Note Name: G3
Note ON: Time 360000, Note Name: D3, Velocity: 65
Note OFF: Time 360240, Note Name: D3
Note ON: Time 360240, Note Name: F4, Velocity: 54
Note OFF: Time 360480, Note Name: F4
Note ON: Time 360480, Note Name: G3, Velocity: 54
Note ON: Time 360480, Note Name: B3, Velocity: 54
Note OFF: Time 360720, Note Name: B3
Note OFF: Time 360720, Note Name: G3
Note ON: Time 360720, Note Name: D#3, Velocity: 66
Note OFF: Time 360960, Note Name: D#3
Note ON: Time 360960, Note Name: G4, Velocity: 54
Note OFF: Time 361200, Note Name: G4
Note ON: Time 361200, Note Name: G3, Velocity: 54
Note ON: Time 361200, Note Name: C4, Velocity: 54
Note OFF: Time 361440, Note Name: C4
Note OFF: Time 361440, Note Name: G3
Note ON: Time 361440, Note Name: F3, Velocity: 64
Note ON: Time 361680, Note Name: G4, Velocity: 54
Note OFF: Time 361920, Note Name: G4
Note ON: Time 361920, Note Name: G3, Velocity: 54
Note ON: Time 361920, Note Name: B3, Velocity: 54
Note OFF: Time 362160, Note Name: B3
Note OFF: Time 362160, Note Name: G3
Note OFF: Time 362160, Note Name: F3
Note ON: Time 362160, Note Name: D#3, Velocity: 63
Note ON: Time 362400, Note Name: D#4, Velocity: 52
Note OFF: Time 362640, Note Name: D#4
Note ON: Time 362640, Note Name: G3, Velocity: 52
Note ON: Time 362640, Note Name: C4, Velocity: 52
Note OFF: Time 362880, Note Name: C4
Note OFF: Time 362880, Note Name: G3
Note OFF: Time 362880, Note Name: D#3
Note ON: Time 362880, Note Name: D3, Velocity: 58
Note ON: Time 363120, Note Name: D4, Velocity: 51
Note OFF: Time 363360, Note Name: D4
Note ON: Time 363360, Note Name: G3, Velocity: 51
Note OFF: Time 363600, Note Name: G3
Note OFF: Time 363600, Note Name: D3
Note ON: Time 363600, Note Name: C3, Velocity: 57
Note ON: Time 363840, Note Name: C4, Velocity: 49
Note OFF: Time 364080, Note Name: C4
Note ON: Time 364080, Note Name: D#3, Velocity: 49
Note ON: Time 364080, Note Name: G3, Velocity: 49
Note OFF: Time 364320, Note Name: G3
Note OFF: Time 364320, Note Name: D#3
Note OFF: Time 364320, Note Name: C3
Note ON: Time 364320, Note Name: A#2, Velocity: 55
Note ON: Time 364560, Note Name: C#4, Velocity: 50
Note OFF: Time 364800, Note Name: C#4
Note ON: Time 364800, Note Name: D#3, Velocity: 50
Note ON: Time 364800, Note Name: G3, Velocity: 50
Note OFF: Time 365040, Note Name: G3
Note OFF: Time 365040, Note Name: D#3
Note OFF: Time 365040, Note Name: A#2
Note ON: Time 365040, Note Name: G#2, Velocity: 56
Note OFF: Time 365280, Note Name: G#2
Note ON: Time 365280, Note Name: B3, Velocity: 50
Note OFF: Time 365520, Note Name: B3
Note ON: Time 365520, Note Name: D#3, Velocity: 50
Note ON: Time 365520, Note Name: G#3, Velocity: 50
Note OFF: Time 365760, Note Name: G#3
Note OFF: Time 365760, Note Name: D#3
Note ON: Time 365760, Note Name: G2, Velocity: 57
Note OFF: Time 366000, Note Name: G2
Note ON: Time 366000, Note Name: D#4, Velocity: 52
Note OFF: Time 366240, Note Name: D#4
Note ON: Time 366240, Note Name: D#3, Velocity: 52
Note ON: Time 366240, Note Name: A#3, Velocity: 52
Note OFF: Time 366480, Note Name: A#3
Note OFF: Time 366480, Note Name: D#3
Note ON: Time 366480, Note Name: G#2, Velocity: 59
Note OFF: Time 366720, Note Name: G#2
Note ON: Time 366720, Note Name: D#4, Velocity: 53
Note OFF: Time 366960, Note Name: D#4
Note ON: Time 366960, Note Name: D#3, Velocity: 53
Note ON: Time 366960, Note Name: G#3, Velocity: 53
Note ON: Time 366960, Note Name: B3, Velocity: 53
Note OFF: Time 367200, Note Name: B3
Note OFF: Time 367200, Note Name: G#3
Note OFF: Time 367200, Note Name: D#3
Note ON: Time 367200, Note Name: A#2, Velocity: 64
Note OFF: Time 367440, Note Name: A#2
Note ON: Time 367440, Note Name: D#4, Velocity: 54
Note OFF: Time 367680, Note Name: D#4
Note ON: Time 367680, Note Name: D#3, Velocity: 54
Note ON: Time 367680, Note Name: G3, Velocity: 54
Note ON: Time 367680, Note Name: C#4, Velocity: 54
Note OFF: Time 367920, Note Name: C#4
Note OFF: Time 367920, Note Name: G3
Note OFF: Time 367920, Note Name: D#3
Note ON: Time 367920, Note Name: B2, Velocity: 66
Note OFF: Time 368160, Note Name: B2
Note ON: Time 368160, Note Name: D#4, Velocity: 57
Note OFF: Time 368400, Note Name: D#4
Note ON: Time 368400, Note Name: D#3, Velocity: 57
Note ON: Time 368400, Note Name: G#3, Velocity: 57
Note ON: Time 368400, Note Name: B3, Velocity: 57
Note OFF: Time 368640, Note Name: B3
Note OFF: Time 368640, Note Name: G#3
Note OFF: Time 368640, Note Name: D#3
Note ON: Time 368640, Note Name: G2, Velocity: 68
Note OFF: Time 368880, Note Name: G2
Note ON: Time 368880, Note Name: D#4, Velocity: 60
Note OFF: Time 369120, Note Name: D#4
Note ON: Time 369120, Note Name: D#3, Velocity: 60
Note ON: Time 369120, Note Name: A#3, Velocity: 60
Note OFF: Time 369360, Note Name: A#3
Note OFF: Time 369360, Note Name: D#3
Note ON: Time 369360, Note Name: G#2, Velocity: 70
Note OFF: Time 369600, Note Name: G#2
Note ON: Time 369600, Note Name: D#4, Velocity: 60
Note OFF: Time 369840, Note Name: D#4
Note ON: Time 369840, Note Name: D#3, Velocity: 60
Note ON: Time 369840, Note Name: G#3, Velocity: 60
Note ON: Time 369840, Note Name: B3, Velocity: 60
Note OFF: Time 370080, Note Name: B3
Note OFF: Time 370080, Note Name: G#3
Note OFF: Time 370080, Note Name: D#3
Note ON: Time 370080, Note Name: A#2, Velocity: 72
Note OFF: Time 370320, Note Name: A#2
Note ON: Time 370320, Note Name: D#4, Velocity: 67
Note OFF: Time 370560, Note Name: D#4
Note ON: Time 370560, Note Name: D#3, Velocity: 72
Note ON: Time 370560, Note Name: G3, Velocity: 72
Note ON: Time 370560, Note Name: C#4, Velocity: 72
Note OFF: Time 370800, Note Name: C#4
Note OFF: Time 370800, Note Name: G3
Note OFF: Time 370800, Note Name: D#3
Note ON: Time 370800, Note Name: B1, Velocity: 86
Note ON: Time 370800, Note Name: B2, Velocity: 86
Note OFF: Time 370920, Note Name: B2
Note OFF: Time 370920, Note Name: B1
Note ON: Time 371280, Note Name: E4, Velocity: 50
Note ON: Time 371280, Note Name: G#3, Velocity: 50
Note OFF: Time 371520, Note Name: G#3
Note OFF: Time 371520, Note Name: E4
Note ON: Time 371520, Note Name: B4, Velocity: 62
Note ON: Time 371520, Note Name: B3, Velocity: 62
Note OFF: Time 371760, Note Name: B3
Note OFF: Time 371760, Note Name: B4
Note ON: Time 372000, Note Name: G#3, Velocity: 51
Note ON: Time 372000, Note Name: E4, Velocity: 51
Note OFF: Time 372240, Note Name: E4
Note OFF: Time 372240, Note Name: G#3
Note ON: Time 372240, Note Name: B3, Velocity: 61
Note ON: Time 372240, Note Name: B4, Velocity: 61
Note OFF: Time 372480, Note Name: B4
Note OFF: Time 372480, Note Name: B3
Note ON: Time 373680, Note Name: B1, Velocity: 40
Note ON: Time 373680, Note Name: B2, Velocity: 40
Note OFF: Time 373800, Note Name: B2
Note OFF: Time 373800, Note Name: B1
Note ON: Time 374400, Note Name: D#4, Velocity: 38
Note ON: Time 374400, Note Name: F#4, Velocity: 38
Note ON: Time 374400, Note Name: A3, Velocity: 38
Note ON: Time 374400, Note Name: C4, Velocity: 38
Note OFF: Time 374640, Note Name: C4
Note OFF: Time 374640, Note Name: D#4
Note OFF: Time 374640, Note Name: F#4
Note OFF: Time 374640, Note Name: A3
Note ON: Time 374640, Note Name: C4, Velocity: 44
Note ON: Time 374640, Note Name: A3, Velocity: 44
Note ON: Time 374640, Note Name: D#4, Velocity: 44
Note ON: Time 374640, Note Name: G#4, Velocity: 44
Note OFF: Time 374880, Note Name: G#4
Note OFF: Time 374880, Note Name: C4
Note OFF: Time 374880, Note Name: A3
Note OFF: Time 374880, Note Name: D#4
Note ON: Time 374880, Note Name: D#4, Velocity: 42
Note ON: Time 374880, Note Name: F#4, Velocity: 42
Note ON: Time 374880, Note Name: A3, Velocity: 42
Note ON: Time 374880, Note Name: C4, Velocity: 42
Note OFF: Time 375120, Note Name: C4
Note OFF: Time 375120, Note Name: D#4
Note OFF: Time 375120, Note Name: F#4
Note OFF: Time 375120, Note Name: A3
Note ON: Time 375120, Note Name: F#4, Velocity: 39
Note ON: Time 375120, Note Name: D#4, Velocity: 39
Note ON: Time 375120, Note Name: C4, Velocity: 39
Note ON: Time 375120, Note Name: A3, Velocity: 39
Note OFF: Time 375240, Note Name: A3
Note OFF: Time 375240, Note Name: F#4
Note OFF: Time 375240, Note Name: D#4
Note OFF: Time 375240, Note Name: C4
Note ON: Time 375840, Note Name: B1, Velocity: 53
Note ON: Time 375840, Note Name: B2, Velocity: 53
Note OFF: Time 376080, Note Name: B2
Note OFF: Time 376080, Note Name: B1
Note ON: Time 376080, Note Name: A2, Velocity: 49
Note ON: Time 376080, Note Name: A1, Velocity: 49
Note OFF: Time 376320, Note Name: A1
Note OFF: Time 376320, Note Name: A2
Note ON: Time 376320, Note Name: C2, Velocity: 53
Note ON: Time 376320, Note Name: C3, Velocity: 53
Note OFF: Time 376560, Note Name: C3
Note OFF: Time 376560, Note Name: C2
Note ON: Time 376560, Note Name: B1, Velocity: 52
Note ON: Time 376560, Note Name: B2, Velocity: 52
Note OFF: Time 376680, Note Name: B2
Note OFF: Time 376680, Note Name: B1
Note ON: Time 376800, Note Name: E4, Velocity: 45
Note ON: Time 376800, Note Name: G#3, Velocity: 45
Note OFF: Time 377040, Note Name: G#3
Note OFF: Time 377040, Note Name: E4
Note ON: Time 377040, Note Name: E4, Velocity: 45
Note ON: Time 377040, Note Name: G#3, Velocity: 45
Note OFF: Time 377280, Note Name: G#3
Note OFF: Time 377280, Note Name: E4
Note ON: Time 377280, Note Name: B4, Velocity: 51
Note ON: Time 377280, Note Name: B3, Velocity: 51
Note OFF: Time 377640, Note Name: B3
Note OFF: Time 377640, Note Name: B4
Note ON: Time 377640, Note Name: E4, Velocity: 45
Note ON: Time 377640, Note Name: G#3, Velocity: 45
Note OFF: Time 377760, Note Name: G#3
Note OFF: Time 377760, Note Name: E4
Note ON: Time 377760, Note Name: G#3, Velocity: 45
Note ON: Time 377760, Note Name: E4, Velocity: 45
Note OFF: Time 378000, Note Name: E4
Note OFF: Time 378000, Note Name: G#3
Note ON: Time 378000, Note Name: B3, Velocity: 52
Note ON: Time 378000, Note Name: B4, Velocity: 52
Note OFF: Time 378240, Note Name: B4
Note OFF: Time 378240, Note Name: B3
Note ON: Time 379440, Note Name: D2, Velocity: 40
Note ON: Time 379440, Note Name: D3, Velocity: 40
Note OFF: Time 379560, Note Name: D3
Note OFF: Time 379560, Note Name: D2
Note ON: Time 380160, Note Name: F#4, Velocity: 38
Note ON: Time 380160, Note Name: G#4, Velocity: 38
Note ON: Time 380160, Note Name: B3, Velocity: 38
Note OFF: Time 380400, Note Name: B3
Note OFF: Time 380400, Note Name: G#4
Note OFF: Time 380400, Note Name: F#4
Note ON: Time 380400, Note Name: B3, Velocity: 44
Note ON: Time 380400, Note Name: F#4, Velocity: 44
Note ON: Time 380400, Note Name: A4, Velocity: 44
Note OFF: Time 380640, Note Name: A4
Note OFF: Time 380640, Note Name: F#4
Note OFF: Time 380640, Note Name: B3
Note ON: Time 380640, Note Name: F#4, Velocity: 42
Note ON: Time 380640, Note Name: G#4, Velocity: 42
Note ON: Time 380640, Note Name: B3, Velocity: 42
Note OFF: Time 380880, Note Name: B3
Note OFF: Time 380880, Note Name: G#4
Note OFF: Time 380880, Note Name: F#4
Note ON: Time 380880, Note Name: G#4, Velocity: 39
Note ON: Time 380880, Note Name: F4, Velocity: 39
Note ON: Time 380880, Note Name: B3, Velocity: 39
Note OFF: Time 381000, Note Name: B3
Note OFF: Time 381000, Note Name: F4
Note OFF: Time 381000, Note Name: G#4
Note ON: Time 381600, Note Name: D2, Velocity: 53
Note ON: Time 381600, Note Name: D3, Velocity: 53
Note OFF: Time 381840, Note Name: D3
Note OFF: Time 381840, Note Name: D2
Note ON: Time 381840, Note Name: C3, Velocity: 53
Note ON: Time 381840, Note Name: C2, Velocity: 53
Note OFF: Time 382080, Note Name: C2
Note OFF: Time 382080, Note Name: C3
Note ON: Time 382080, Note Name: C#2, Velocity: 53
Note ON: Time 382080, Note Name: C#3, Velocity: 53
Note OFF: Time 382320, Note Name: C#3
Note OFF: Time 382320, Note Name: C#2
Note ON: Time 382320, Note Name: E2, Velocity: 47
Note ON: Time 382320, Note Name: E3, Velocity: 47
Note OFF: Time 382440, Note Name: E3
Note OFF: Time 382440, Note Name: E2
Note ON: Time 383040, Note Name: G#4, Velocity: 48
Note ON: Time 383040, Note Name: A#4, Velocity: 48
Note ON: Time 383040, Note Name: C#4, Velocity: 48
Note OFF: Time 383280, Note Name: C#4
Note OFF: Time 383280, Note Name: A#4
Note OFF: Time 383280, Note Name: G#4
Note ON: Time 383280, Note Name: C#4, Velocity: 53
Note ON: Time 383280, Note Name: G#4, Velocity: 53
Note ON: Time 383280, Note Name: B4, Velocity: 53
Note OFF: Time 383520, Note Name: B4
Note OFF: Time 383520, Note Name: G#4
Note OFF: Time 383520, Note Name: C#4
Note ON: Time 383520, Note Name: G#4, Velocity: 51
Note ON: Time 383520, Note Name: A#4, Velocity: 51
Note ON: Time 383520, Note Name: C#4, Velocity: 51
Note OFF: Time 383760, Note Name: C#4
Note OFF: Time 383760, Note Name: A#4
Note OFF: Time 383760, Note Name: G#4
Note ON: Time 383760, Note Name: A#4, Velocity: 49
Note ON: Time 383760, Note Name: G4, Velocity: 49
Note ON: Time 383760, Note Name: C#4, Velocity: 49
Note OFF: Time 383880, Note Name: C#4
Note OFF: Time 383880, Note Name: G4
Note OFF: Time 383880, Note Name: A#4
Note ON: Time 384480, Note Name: E2, Velocity: 58
Note ON: Time 384480, Note Name: E3, Velocity: 58
Note OFF: Time 384720, Note Name: E3
Note OFF: Time 384720, Note Name: E2
Note ON: Time 384720, Note Name: D3, Velocity: 58
Note ON: Time 384720, Note Name: D2, Velocity: 58
Note OFF: Time 384960, Note Name: D2
Note OFF: Time 384960, Note Name: D3
Note ON: Time 384960, Note Name: D#2, Velocity: 58
Note ON: Time 384960, Note Name: D#3, Velocity: 58
Note OFF: Time 385200, Note Name: D#3
Note OFF: Time 385200, Note Name: D#2
Note ON: Time 385200, Note Name: F#2, Velocity: 55
Note ON: Time 385200, Note Name: F#3, Velocity: 55
Note OFF: Time 385320, Note Name: F#3
Note OFF: Time 385320, Note Name: F#2
Note ON: Time 385680, Note Name: C4, Velocity: 49
Note ON: Time 385680, Note Name: D#4, Velocity: 49
Note ON: Time 385680, Note Name: A4, Velocity: 49
Note OFF: Time 385920, Note Name: A4
Note OFF: Time 385920, Note Name: D#4
Note OFF: Time 385920, Note Name: C4
Note ON: Time 385920, Note Name: D#4, Velocity: 54
Note ON: Time 385920, Note Name: A4, Velocity: 54
Note ON: Time 385920, Note Name: D#5, Velocity: 54
Note OFF: Time 386160, Note Name: D#5
Note OFF: Time 386160, Note Name: A4
Note OFF: Time 386160, Note Name: D#4
Note ON: Time 386400, Note Name: C4, Velocity: 52
Note ON: Time 386400, Note Name: D#4, Velocity: 52
Note ON: Time 386400, Note Name: A4, Velocity: 52
Note OFF: Time 386640, Note Name: A4
Note OFF: Time 386640, Note Name: D#4
Note OFF: Time 386640, Note Name: C4
Note ON: Time 386640, Note Name: D#4, Velocity: 56
Note ON: Time 386640, Note Name: A4, Velocity: 56
Note ON: Time 386640, Note Name: D#5, Velocity: 56
Note OFF: Time 386880, Note Name: D#5
Note OFF: Time 386880, Note Name: A4
Note OFF: Time 386880, Note Name: D#4
Note ON: Time 387120, Note Name: F#3, Velocity: 70
Note ON: Time 387120, Note Name: F#4, Velocity: 70
Note OFF: Time 387348, Note Name: F#4
Note OFF: Time 387348, Note Name: F#3
Note ON: Time 387360, Note Name: F#3, Velocity: 70
Note ON: Time 387360, Note Name: F#4, Velocity: 70
Note OFF: Time 387588, Note Name: F#4
Note OFF: Time 387588, Note Name: F#3
Note ON: Time 387600, Note Name: F#3, Velocity: 70
Note ON: Time 387600, Note Name: F#4, Velocity: 70
Note OFF: Time 387828, Note Name: F#4
Note OFF: Time 387828, Note Name: F#3
Note ON: Time 387840, Note Name: F#3, Velocity: 70
Note ON: Time 387840, Note Name: F#4, Velocity: 70
Note OFF: Time 388068, Note Name: F#4
Note OFF: Time 388068, Note Name: F#3
Note ON: Time 388080, Note Name: F3, Velocity: 73
Note ON: Time 388080, Note Name: C4, Velocity: 73
Note ON: Time 388080, Note Name: D#4, Velocity: 73
Note ON: Time 388080, Note Name: A4, Velocity: 73
Note OFF: Time 388320, Note Name: A4
Note OFF: Time 388320, Note Name: F3
Note OFF: Time 388320, Note Name: C4
Note OFF: Time 388320, Note Name: D#4
Note ON: Time 388800, Note Name: F6, Velocity: 89
Note OFF: Time 388920, Note Name: F6
Note ON: Time 388920, Note Name: E6, Velocity: 81
Note OFF: Time 389040, Note Name: E6
Note ON: Time 389040, Note Name: D#6, Velocity: 79
Note OFF: Time 389160, Note Name: D#6
Note ON: Time 389160, Note Name: C6, Velocity: 78
Note OFF: Time 389280, Note Name: C6
Note ON: Time 389280, Note Name: A5, Velocity: 76
Note OFF: Time 389520, Note Name: A5
Note ON: Time 389760, Note Name: F4, Velocity: 88
Note OFF: Time 389880, Note Name: F4
Note ON: Time 389880, Note Name: E4, Velocity: 81
Note OFF: Time 390000, Note Name: E4
Note ON: Time 390000, Note Name: D#4, Velocity: 79
Note OFF: Time 390120, Note Name: D#4
Note ON: Time 390120, Note Name: C4, Velocity: 77
Note OFF: Time 390240, Note Name: C4
Note ON: Time 390240, Note Name: A3, Velocity: 75
Note OFF: Time 390480, Note Name: A3
Note ON: Time 390720, Note Name: F2, Velocity: 117
Note OFF: Time 390960, Note Name: F2
Note ON: Time 390960, Note Name: A#1, Velocity: 100
Note ON: Time 390960, Note Name: A#2, Velocity: 100
Note OFF: Time 391200, Note Name: A#2
Note OFF: Time 391200, Note Name: A#1
Note ON: Time 391200, Note Name: A#4, Velocity: 58
Note ON: Time 391200, Note Name: A#3, Velocity: 58
Note OFF: Time 391440, Note Name: A#3
Note OFF: Time 391440, Note Name: A#4
Note ON: Time 391440, Note Name: F4, Velocity: 58
Note ON: Time 391440, Note Name: C#4, Velocity: 58
Note OFF: Time 391680, Note Name: C#4
Note OFF: Time 391680, Note Name: F4
Note ON: Time 391680, Note Name: G#2, Velocity: 81
Note ON: Time 391680, Note Name: G#3, Velocity: 81
Note OFF: Time 391920, Note Name: G#3
Note OFF: Time 391920, Note Name: G#2
Note ON: Time 391920, Note Name: G#4, Velocity: 58
Note ON: Time 391920, Note Name: G#3, Velocity: 58
Note OFF: Time 392160, Note Name: G#3
Note OFF: Time 392160, Note Name: G#4
Note ON: Time 392160, Note Name: F4, Velocity: 58
Note ON: Time 392160, Note Name: C4, Velocity: 58
Note OFF: Time 392400, Note Name: C4
Note OFF: Time 392400, Note Name: F4
Note ON: Time 392400, Note Name: F#2, Velocity: 81
Note ON: Time 392400, Note Name: F#3, Velocity: 81
Note OFF: Time 392640, Note Name: F#3
Note OFF: Time 392640, Note Name: F#2
Note ON: Time 392640, Note Name: F#4, Velocity: 58
Note ON: Time 392640, Note Name: F#3, Velocity: 58
Note OFF: Time 392880, Note Name: F#3
Note OFF: Time 392880, Note Name: F#4
Note ON: Time 392880, Note Name: C#4, Velocity: 58
Note ON: Time 392880, Note Name: A#3, Velocity: 58
Note OFF: Time 393120, Note Name: A#3
Note OFF: Time 393120, Note Name: C#4
Note ON: Time 393120, Note Name: F2, Velocity: 80
Note ON: Time 393120, Note Name: F3, Velocity: 80
Note OFF: Time 393360, Note Name: F3
Note OFF: Time 393360, Note Name: F2
Note ON: Time 393360, Note Name: F4, Velocity: 56
Note ON: Time 393360, Note Name: F3, Velocity: 56
Note OFF: Time 393600, Note Name: F3
Note OFF: Time 393600, Note Name: F4
Note ON: Time 393600, Note Name: C#4, Velocity: 56
Note ON: Time 393600, Note Name: G#3, Velocity: 56
Note OFF: Time 393840, Note Name: G#3
Note OFF: Time 393840, Note Name: C#4
Note ON: Time 393840, Note Name: D#2, Velocity: 81
Note ON: Time 393840, Note Name: D#3, Velocity: 81
Note OFF: Time 394080, Note Name: D#3
Note OFF: Time 394080, Note Name: D#2
Note ON: Time 394080, Note Name: D#4, Velocity: 56
Note ON: Time 394080, Note Name: D#3, Velocity: 56
Note OFF: Time 394320, Note Name: D#3
Note OFF: Time 394320, Note Name: D#4
Note ON: Time 394320, Note Name: A#3, Velocity: 56
Note ON: Time 394320, Note Name: F#3, Velocity: 56
Note OFF: Time 394560, Note Name: F#3
Note OFF: Time 394560, Note Name: A#3
Note ON: Time 394560, Note Name: C#2, Velocity: 81
Note ON: Time 394560, Note Name: C#3, Velocity: 81
Note OFF: Time 394800, Note Name: C#3
Note OFF: Time 394800, Note Name: C#2
Note ON: Time 394800, Note Name: C#4, Velocity: 62
Note ON: Time 394800, Note Name: C#3, Velocity: 62
Note OFF: Time 395040, Note Name: C#3
Note OFF: Time 395040, Note Name: C#4
Note ON: Time 395040, Note Name: F3, Velocity: 61
Note ON: Time 395040, Note Name: A#3, Velocity: 61
Note OFF: Time 395280, Note Name: A#3
Note OFF: Time 395280, Note Name: F3
Note ON: Time 395280, Note Name: C2, Velocity: 81
Note ON: Time 395280, Note Name: C3, Velocity: 81
Note OFF: Time 395520, Note Name: C3
Note OFF: Time 395520, Note Name: C2
Note ON: Time 395520, Note Name: C4, Velocity: 57
Note ON: Time 395520, Note Name: C3, Velocity: 57
Note OFF: Time 395760, Note Name: C3
Note OFF: Time 395760, Note Name: C4
Note ON: Time 395760, Note Name: D#3, Velocity: 57
Note ON: Time 395760, Note Name: F#3, Velocity: 57
Note OFF: Time 396000, Note Name: F#3
Note OFF: Time 396000, Note Name: D#3
Note ON: Time 396000, Note Name: A#1, Velocity: 80
Note ON: Time 396000, Note Name: A#2, Velocity: 80
Note OFF: Time 396240, Note Name: A#2
Note OFF: Time 396240, Note Name: A#1
Note ON: Time 396240, Note Name: A#3, Velocity: 58
Note ON: Time 396240, Note Name: A#2, Velocity: 58
Note ON: Time 396480, Note Name: D#3, Velocity: 58
Note ON: Time 396480, Note Name: F#3, Velocity: 58
Note OFF: Time 396720, Note Name: F#3
Note OFF: Time 396720, Note Name: A#3
Note OFF: Time 396720, Note Name: A#2
Note OFF: Time 396720, Note Name: D#3
Note ON: Time 396720, Note Name: C3, Velocity: 76
Note ON: Time 396720, Note Name: A2, Velocity: 76
Note ON: Time 396720, Note Name: F3, Velocity: 76
Note ON: Time 396720, Note Name: A3, Velocity: 76
Note OFF: Time 396960, Note Name: A3
Note OFF: Time 396960, Note Name: C3
Note OFF: Time 396960, Note Name: A2
Note OFF: Time 396960, Note Name: F3
Note ON: Time 396960, Note Name: E3, Velocity: 64
Note OFF: Time 397080, Note Name: E3
Note ON: Time 397080, Note Name: F3, Velocity: 61
Note OFF: Time 397200, Note Name: F3
Note ON: Time 397200, Note Name: G#3, Velocity: 64
Note ON: Time 397280, Note Name: F#3, Velocity: 64
Note OFF: Time 397300, Note Name: G#3
Note ON: Time 397360, Note Name: F3, Velocity: 61
Note OFF: Time 397380, Note Name: F#3
Note OFF: Time 397430, Note Name: F3
Note ON: Time 397440, Note Name: A#1, Velocity: 57
Note ON: Time 397470, Note Name: A#2, Velocity: 57
Note OFF: Time 397680, Note Name: A#2
Note OFF: Time 397680, Note Name: A#1
Note ON: Time 397680, Note Name: D#4, Velocity: 71
Note ON: Time 397680, Note Name: D#3, Velocity: 71
Note OFF: Time 397920, Note Name: D#3
Note OFF: Time 397920, Note Name: D#4
Note ON: Time 397920, Note Name: C#3, Velocity: 72
Note ON: Time 397920, Note Name: C#4, Velocity: 72
Note OFF: Time 398160, Note Name: C#4
Note OFF: Time 398160, Note Name: C#3
Note ON: Time 398160, Note Name: F2, Velocity: 74
Note ON: Time 398175, Note Name: C3, Velocity: 74
Note ON: Time 398190, Note Name: A3, Velocity: 74
Note OFF: Time 398400, Note Name: A3
Note OFF: Time 398400, Note Name: C3
Note OFF: Time 398400, Note Name: F2
Note ON: Time 398400, Note Name: E3, Velocity: 62
Note OFF: Time 398520, Note Name: E3
Note ON: Time 398520, Note Name: F3, Velocity: 59
Note OFF: Time 398640, Note Name: F3
Note ON: Time 398640, Note Name: G#3, Velocity: 62
Note ON: Time 398720, Note Name: F#3, Velocity: 62
Note OFF: Time 398740, Note Name: G#3
Note ON: Time 398800, Note Name: F3, Velocity: 58
Note OFF: Time 398820, Note Name: F#3
Note OFF: Time 398870, Note Name: F3
Note ON: Time 398880, Note Name: A#1, Velocity: 54
Note ON: Time 398910, Note Name: A#2, Velocity: 54
Note OFF: Time 399120, Note Name: A#2
Note OFF: Time 399120, Note Name: A#1
Note ON: Time 399120, Note Name: C4, Velocity: 69
Note ON: Time 399120, Note Name: C3, Velocity: 69
Note OFF: Time 399360, Note Name: C3
Note OFF: Time 399360, Note Name: C4
Note ON: Time 399360, Note Name: A#2, Velocity: 69
Note ON: Time 399360, Note Name: A#3, Velocity: 69
Note OFF: Time 399600, Note Name: A#3
Note OFF: Time 399600, Note Name: A#2
Note ON: Time 399600, Note Name: F2, Velocity: 75
Note ON: Time 399615, Note Name: C3, Velocity: 75
Note ON: Time 399630, Note Name: A3, Velocity: 75
Note OFF: Time 399840, Note Name: A3
Note OFF: Time 399840, Note Name: C3
Note OFF: Time 399840, Note Name: F2
Note ON: Time 399840, Note Name: E3, Velocity: 61
Note OFF: Time 399960, Note Name: E3
Note ON: Time 399960, Note Name: F3, Velocity: 58
Note OFF: Time 400080, Note Name: F3
Note ON: Time 400080, Note Name: G#3, Velocity: 61
Note ON: Time 400160, Note Name: F#3, Velocity: 61
Note OFF: Time 400180, Note Name: G#3
Note ON: Time 400240, Note Name: F3, Velocity: 57
Note OFF: Time 400260, Note Name: F#3
Note OFF: Time 400310, Note Name: F3
Note ON: Time 400320, Note Name: A#1, Velocity: 55
Note ON: Time 400350, Note Name: A#2, Velocity: 55
Note OFF: Time 400560, Note Name: A#2
Note OFF: Time 400560, Note Name: A#1
Note ON: Time 400560, Note Name: D#4, Velocity: 74
Note ON: Time 400560, Note Name: D#3, Velocity: 74
Note OFF: Time 400800, Note Name: D#3
Note OFF: Time 400800, Note Name: D#4
Note ON: Time 400800, Note Name: C#3, Velocity: 73
Note ON: Time 400800, Note Name: C#4, Velocity: 73
Note OFF: Time 401040, Note Name: C#4
Note OFF: Time 401040, Note Name: C#3
Note ON: Time 401040, Note Name: F2, Velocity: 75
Note ON: Time 401055, Note Name: C3, Velocity: 75
Note ON: Time 401070, Note Name: A3, Velocity: 74
Note OFF: Time 401280, Note Name: A3
Note OFF: Time 401280, Note Name: C3
Note OFF: Time 401280, Note Name: F2
Note ON: Time 401280, Note Name: E3, Velocity: 67
Note OFF: Time 401400, Note Name: E3
Note ON: Time 401400, Note Name: F3, Velocity: 63
Note OFF: Time 401520, Note Name: F3
Note ON: Time 401520, Note Name: G#3, Velocity: 67
Note ON: Time 401600, Note Name: F#3, Velocity: 67
Note OFF: Time 401620, Note Name: G#3
Note ON: Time 401680, Note Name: F3, Velocity: 62
Note OFF: Time 401700, Note Name: F#3
Note OFF: Time 401750, Note Name: F3
Note ON: Time 401760, Note Name: A#1, Velocity: 60
Note ON: Time 401790, Note Name: A#2, Velocity: 60
Note OFF: Time 402000, Note Name: A#2
Note OFF: Time 402000, Note Name: A#1
Note ON: Time 402000, Note Name: C4, Velocity: 74
Note ON: Time 402000, Note Name: C3, Velocity: 74
Note OFF: Time 402240, Note Name: C3
Note OFF: Time 402240, Note Name: C4
Note ON: Time 402240, Note Name: A#2, Velocity: 74
Note ON: Time 402240, Note Name: A#3, Velocity: 74
Note OFF: Time 402480, Note Name: A#3
Note OFF: Time 402480, Note Name: A#2
Note ON: Time 402480, Note Name: F2, Velocity: 75
Note ON: Time 402495, Note Name: C3, Velocity: 75
Note ON: Time 402510, Note Name: A3, Velocity: 74
Note OFF: Time 402720, Note Name: A3
Note OFF: Time 402720, Note Name: C3
Note OFF: Time 402720, Note Name: F2
Note ON: Time 402720, Note Name: E3, Velocity: 63
Note OFF: Time 402840, Note Name: E3
Note ON: Time 402840, Note Name: F3, Velocity: 60
Note OFF: Time 402960, Note Name: F3
Note ON: Time 402960, Note Name: G#3, Velocity: 63
Note ON: Time 403040, Note Name: F#3, Velocity: 63
Note OFF: Time 403060, Note Name: G#3
Note ON: Time 403120, Note Name: F3, Velocity: 60
Note OFF: Time 403140, Note Name: F#3
Note OFF: Time 403190, Note Name: F3
Note ON: Time 403200, Note Name: F3, Velocity: 74
Note OFF: Time 403440, Note Name: F3
Note ON: Time 403440, Note Name: C#4, Velocity: 71
Note OFF: Time 403680, Note Name: C#4
Note ON: Time 403680, Note Name: C4, Velocity: 73
Note OFF: Time 403920, Note Name: C4
Note ON: Time 403920, Note Name: F2, Velocity: 76
Note ON: Time 403935, Note Name: C3, Velocity: 76
Note ON: Time 403950, Note Name: A3, Velocity: 76
Note OFF: Time 404160, Note Name: A3
Note OFF: Time 404160, Note Name: C3
Note OFF: Time 404160, Note Name: F2
Note ON: Time 404160, Note Name: B2, Velocity: 67
Note OFF: Time 404280, Note Name: B2
Note ON: Time 404280, Note Name: C3, Velocity: 64
Note OFF: Time 404400, Note Name: C3
Note ON: Time 404400, Note Name: D#3, Velocity: 67
Note ON: Time 404480, Note Name: C#3, Velocity: 67
Note OFF: Time 404500, Note Name: D#3
Note ON: Time 404560, Note Name: C3, Velocity: 64
Note OFF: Time 404580, Note Name: C#3
Note OFF: Time 404630, Note Name: C3
Note ON: Time 404640, Note Name: C2, Velocity: 74
Note ON: Time 404640, Note Name: C3, Velocity: 74
Note OFF: Time 404880, Note Name: C3
Note OFF: Time 404880, Note Name: C2
Note ON: Time 404880, Note Name: A#3, Velocity: 73
Note OFF: Time 405120, Note Name: A#3
Note ON: Time 405120, Note Name: A3, Velocity: 70
Note OFF: Time 405360, Note Name: A3
Note ON: Time 405360, Note Name: F2, Velocity: 69
Note ON: Time 405375, Note Name: C3, Velocity: 69
Note ON: Time 405390, Note Name: A3, Velocity: 69
Note OFF: Time 405600, Note Name: A3
Note OFF: Time 405600, Note Name: C3
Note OFF: Time 405600, Note Name: F2
Note ON: Time 405600, Note Name: E3, Velocity: 66
Note OFF: Time 405720, Note Name: E3
Note ON: Time 405720, Note Name: F3, Velocity: 63
Note OFF: Time 405840, Note Name: F3
Note ON: Time 405840, Note Name: G#3, Velocity: 66
Note ON: Time 405920, Note Name: F#3, Velocity: 66
Note OFF: Time 405940, Note Name: G#3
Note ON: Time 406000, Note Name: F3, Velocity: 63
Note OFF: Time 406020, Note Name: F#3
Note OFF: Time 406070, Note Name: F3
Note ON: Time 406080, Note Name: F3, Velocity: 74
Note OFF: Time 406320, Note Name: F3
Note ON: Time 406320, Note Name: C#4, Velocity: 74
Note OFF: Time 406560, Note Name: C#4
Note ON: Time 406560, Note Name: C4, Velocity: 71
Note OFF: Time 406800, Note Name: C4
Note ON: Time 406800, Note Name: F2, Velocity: 68
Note ON: Time 406815, Note Name: C3, Velocity: 68
Note ON: Time 406830, Note Name: A3, Velocity: 68
Note OFF: Time 407040, Note Name: A3
Note OFF: Time 407040, Note Name: C3
Note OFF: Time 407040, Note Name: F2
Note ON: Time 407040, Note Name: B2, Velocity: 66
Note OFF: Time 407160, Note Name: B2
Note ON: Time 407160, Note Name: C3, Velocity: 64
Note OFF: Time 407280, Note Name: C3
Note ON: Time 407280, Note Name: D#3, Velocity: 66
Note ON: Time 407360, Note Name: C#3, Velocity: 66
Note OFF: Time 407380, Note Name: D#3
Note ON: Time 407440, Note Name: C3, Velocity: 63
Note OFF: Time 407460, Note Name: C#3
Note OFF: Time 407510, Note Name: C3
Note ON: Time 407520, Note Name: C2, Velocity: 75
Note ON: Time 407520, Note Name: C3, Velocity: 75
Note OFF: Time 407760, Note Name: C3
Note OFF: Time 407760, Note Name: C2
Note ON: Time 407760, Note Name: A#3, Velocity: 69
Note OFF: Time 408000, Note Name: A#3
Note ON: Time 408000, Note Name: A3, Velocity: 71
Note OFF: Time 408240, Note Name: A3
Note ON: Time 408240, Note Name: F2, Velocity: 59
Note ON: Time 408255, Note Name: C3, Velocity: 59
Note ON: Time 408270, Note Name: A3, Velocity: 59
Note OFF: Time 408480, Note Name: A3
Note OFF: Time 408480, Note Name: C3
Note OFF: Time 408480, Note Name: F2
Note ON: Time 408480, Note Name: B2, Velocity: 61
Note OFF: Time 408600, Note Name: B2
Note ON: Time 408600, Note Name: C3, Velocity: 57
Note OFF: Time 408720, Note Name: C3
Note ON: Time 408720, Note Name: D#3, Velocity: 61
Note ON: Time 408800, Note Name: C#3, Velocity: 61
Note OFF: Time 408820, Note Name: D#3
Note ON: Time 408880, Note Name: C3, Velocity: 57
Note OFF: Time 408900, Note Name: C#3
Note OFF: Time 408950, Note Name: C3
Note ON: Time 408960, Note Name: C2, Velocity: 69
Note ON: Time 408960, Note Name: C3, Velocity: 69
Note OFF: Time 409200, Note Name: C3
Note OFF: Time 409200, Note Name: C2
Note ON: Time 409200, Note Name: A#3, Velocity: 67
Note OFF: Time 409440, Note Name: A#3
Note ON: Time 409440, Note Name: A3, Velocity: 65
Note OFF: Time 409680, Note Name: A3
Note ON: Time 409680, Note Name: F2, Velocity: 62
Note ON: Time 409695, Note Name: C3, Velocity: 62
Note ON: Time 409710, Note Name: A3, Velocity: 62
Note OFF: Time 409920, Note Name: A3
Note OFF: Time 409920, Note Name: C3
Note OFF: Time 409920, Note Name: F2
Note ON: Time 409920, Note Name: B2, Velocity: 56
Note OFF: Time 410040, Note Name: B2
Note ON: Time 410040, Note Name: C3, Velocity: 53
Note OFF: Time 410160, Note Name: C3
Note ON: Time 410160, Note Name: D#3, Velocity: 57
Note ON: Time 410240, Note Name: C#3, Velocity: 57
Note OFF: Time 410260, Note Name: D#3
Note ON: Time 410320, Note Name: C3, Velocity: 54
Note OFF: Time 410340, Note Name: C#3
Note OFF: Time 410390, Note Name: C3
Note ON: Time 410400, Note Name: C2, Velocity: 65
Note ON: Time 410400, Note Name: C3, Velocity: 65
Note OFF: Time 410640, Note Name: C3
Note OFF: Time 410640, Note Name: C2
Note ON: Time 410640, Note Name: A#3, Velocity: 60
Note OFF: Time 410880, Note Name: A#3
Note ON: Time 410880, Note Name: A3, Velocity: 60
Note OFF: Time 411120, Note Name: A3
Note ON: Time 411120, Note Name: F2, Velocity: 56
Note ON: Time 411135, Note Name: C3, Velocity: 56
Note ON: Time 411150, Note Name: F3, Velocity: 56
Note OFF: Time 411360, Note Name: F3
Note OFF: Time 411360, Note Name: C3
Note OFF: Time 411360, Note Name: F2
Note ON: Time 411360, Note Name: B1, Velocity: 48
Note ON: Time 411480, Note Name: C2, Velocity: 44
Note OFF: Time 411510, Note Name: B1
Note ON: Time 411600, Note Name: D#2, Velocity: 48
Note OFF: Time 411630, Note Name: C2
Note ON: Time 411680, Note Name: C#2, Velocity: 48
Note OFF: Time 411700, Note Name: D#2
Note ON: Time 411760, Note Name: C2, Velocity: 45
Note OFF: Time 411780, Note Name: C#2
Note OFF: Time 411830, Note Name: C2
Note ON: Time 411840, Note Name: C2, Velocity: 55
Note OFF: Time 412080, Note Name: C2
Note ON: Time 412080, Note Name: A#2, Velocity: 55
Note OFF: Time 412200, Note Name: A#2
Note ON: Time 412320, Note Name: A2, Velocity: 53
Note OFF: Time 412440, Note Name: A2
Note ON: Time 412560, Note Name: F2, Velocity: 56
Note OFF: Time 412800, Note Name: F2
Note ON: Time 412800, Note Name: B1, Velocity: 43
Note ON: Time 412920, Note Name: C2, Velocity: 40
Note OFF: Time 412950, Note Name: B1
Note ON: Time 413040, Note Name: D#2, Velocity: 43
Note OFF: Time 413070, Note Name: C2
Note ON: Time 413120, Note Name: C#2, Velocity: 43
Note OFF: Time 413140, Note Name: D#2
Note ON: Time 413200, Note Name: C2, Velocity: 40
Note OFF: Time 413220, Note Name: C#2
Note OFF: Time 413270, Note Name: C2
Note ON: Time 413280, Note Name: C2, Velocity: 46
Note OFF: Time 413520, Note Name: C2
Note ON: Time 413520, Note Name: A#2, Velocity: 49
Note OFF: Time 413640, Note Name: A#2
Note ON: Time 413760, Note Name: A2, Velocity: 49
Note OFF: Time 413880, Note Name: A2
Note ON: Time 414000, Note Name: F2, Velocity: 52
Note OFF: Time 414240, Note Name: F2
Note ON: Time 415680, Note Name: B1, Velocity: 44
Note ON: Time 415800, Note Name: C2, Velocity: 41
Note OFF: Time 415830, Note Name: B1
Note ON: Time 415920, Note Name: D#2, Velocity: 44
Note OFF: Time 415950, Note Name: C2
Note ON: Time 416000, Note Name: C#2, Velocity: 44
Note OFF: Time 416020, Note Name: D#2
Note ON: Time 416080, Note Name: C2, Velocity: 41
Note OFF: Time 416100, Note Name: C#2
Note OFF: Time 416150, Note Name: C2
Note ON: Time 416160, Note Name: C2, Velocity: 52
Note OFF: Time 416280, Note Name: C2
Note ON: Time 416400, Note Name: A#2, Velocity: 49
Note OFF: Time 416520, Note Name: A#2
Note ON: Time 416640, Note Name: A2, Velocity: 46
Note OFF: Time 416760, Note Name: A2
Note ON: Time 416880, Note Name: F2, Velocity: 52
Note OFF: Time 417120, Note Name: F2
Note ON: Time 417840, Note Name: A#1, Velocity: 43
Note OFF: Time 418080, Note Name: A#1
Note ON: Time 418080, Note Name: A1, Velocity: 43
Note OFF: Time 418320, Note Name: A1
Note ON: Time 418320, Note Name: F1, Velocity: 43
Note OFF: Time 419040, Note Name: F1
Note ON: Time 420240, Note Name: A2, Velocity: 27
Note OFF: Time 420320, Note Name: A2
Note ON: Time 420320, Note Name: A#2, Velocity: 28
Note OFF: Time 420400, Note Name: A#2
Note ON: Time 420400, Note Name: C#3, Velocity: 29
Note OFF: Time 420480, Note Name: C#3
Note ON: Time 420480, Note Name: F3, Velocity: 33
Note OFF: Time 420600, Note Name: F3
Note ON: Time 420960, Note Name: A2, Velocity: 26
Note OFF: Time 421040, Note Name: A2
Note ON: Time 421040, Note Name: A#2, Velocity: 27
Note OFF: Time 421120, Note Name: A#2
Note ON: Time 421120, Note Name: C#3, Velocity: 29
Note OFF: Time 421200, Note Name: C#3
Note ON: Time 421200, Note Name: F3, Velocity: 38
Note OFF: Time 422640, Note Name: F3
Note ON: Time 422640, Note Name: A#1, Velocity: 95
Note ON: Time 422640, Note Name: A#2, Velocity: 95
Note OFF: Time 422760, Note Name: A#2
Note OFF: Time 422760, Note Name: A#1
Note ON: Time 423360, Note Name: A#3, Velocity: 72
Note ON: Time 423360, Note Name: C4, Velocity: 72
Note ON: Time 423360, Note Name: D#4, Velocity: 85
Note ON: Time 423360, Note Name: F#4, Velocity: 85
Note ON: Time 423360, Note Name: A#4, Velocity: 85
Note OFF: Time 424800, Note Name: A#4
Note OFF: Time 424800, Note Name: D#4
Note OFF: Time 424800, Note Name: A#3
Note OFF: Time 424800, Note Name: C4
Note OFF: Time 424800, Note Name: F#4
Note ON: Time 424800, Note Name: A#3, Velocity: 47
Note ON: Time 424800, Note Name: C4, Velocity: 47
Note ON: Time 424800, Note Name: D#4, Velocity: 56
Note ON: Time 424800, Note Name: F#4, Velocity: 56
Note ON: Time 424800, Note Name: A#4, Velocity: 56
Note OFF: Time 425160, Note Name: A#4
Note OFF: Time 425160, Note Name: D#4
Note OFF: Time 425160, Note Name: A#3
Note OFF: Time 425160, Note Name: C4
Note OFF: Time 425160, Note Name: F#4
Note ON: Time 425160, Note Name: A#3, Velocity: 51
Note ON: Time 425160, Note Name: C4, Velocity: 51
Note ON: Time 425160, Note Name: D#4, Velocity: 61
Note ON: Time 425160, Note Name: F#4, Velocity: 61
Note ON: Time 425160, Note Name: A#4, Velocity: 61
Note OFF: Time 425280, Note Name: A#4
Note OFF: Time 425280, Note Name: D#4
Note OFF: Time 425280, Note Name: A#3
Note OFF: Time 425280, Note Name: C4
Note OFF: Time 425280, Note Name: F#4
Note ON: Time 425280, Note Name: A#3, Velocity: 56
Note ON: Time 425280, Note Name: C4, Velocity: 56
Note ON: Time 425280, Note Name: D#4, Velocity: 66
Note ON: Time 425280, Note Name: F#4, Velocity: 66
Note ON: Time 425280, Note Name: A#4, Velocity: 66
Note OFF: Time 425520, Note Name: A#4
Note OFF: Time 425520, Note Name: D#4
Note OFF: Time 425520, Note Name: A#3
Note OFF: Time 425520, Note Name: C4
Note OFF: Time 425520, Note Name: F#4
Note ON: Time 425520, Note Name: A#3, Velocity: 52
Note ON: Time 425520, Note Name: C#4, Velocity: 52
Note ON: Time 425520, Note Name: F4, Velocity: 62
Note ON: Time 425520, Note Name: A#4, Velocity: 62
Note OFF: Time 425760, Note Name: A#4
Note OFF: Time 425760, Note Name: A#3
Note OFF: Time 425760, Note Name: C#4
Note OFF: Time 425760, Note Name: F4
Note ON: Time 426000, Note Name: A2, Velocity: 27
Note OFF: Time 426080, Note Name: A2
Note ON: Time 426080, Note Name: A#2, Velocity: 28
Note OFF: Time 426160, Note Name: A#2
Note ON: Time 426160, Note Name: C#3, Velocity: 30
Note OFF: Time 426240, Note Name: C#3
Note ON: Time 426240, Note Name: F3, Velocity: 33
Note OFF: Time 426360, Note Name: F3
Note ON: Time 426720, Note Name: A2, Velocity: 26
Note OFF: Time 426800, Note Name: A2
Note ON: Time 426800, Note Name: A#2, Velocity: 28
Note OFF: Time 426880, Note Name: A#2
Note ON: Time 426880, Note Name: C#3, Velocity: 30
Note OFF: Time 426960, Note Name: C#3
Note ON: Time 426960, Note Name: F3, Velocity: 37
Note OFF: Time 428400, Note Name: F3
Note ON: Time 428400, Note Name: G#1, Velocity: 95
Note ON: Time 428400, Note Name: G#2, Velocity: 95
Note OFF: Time 428520, Note Name: G#2
Note OFF: Time 428520, Note Name: G#1
Note ON: Time 429060, Note Name: G#3, Velocity: 75
Note ON: Time 429090, Note Name: F4, Velocity: 89
Note ON: Time 429120, Note Name: C#5, Velocity: 89
Note OFF: Time 430560, Note Name: C#5
Note OFF: Time 430560, Note Name: F4
Note OFF: Time 430560, Note Name: G#3
Note ON: Time 430560, Note Name: G#3, Velocity: 49
Note ON: Time 430560, Note Name: D#4, Velocity: 58
Note ON: Time 430560, Note Name: F#4, Velocity: 58
Note ON: Time 430560, Note Name: G#4, Velocity: 58
Note OFF: Time 430920, Note Name: G#4
Note OFF: Time 430920, Note Name: G#3
Note OFF: Time 430920, Note Name: D#4
Note OFF: Time 430920, Note Name: F#4
Note ON: Time 430920, Note Name: G#3, Velocity: 53
Note ON: Time 430920, Note Name: D#4, Velocity: 63
Note ON: Time 430920, Note Name: F#4, Velocity: 63
Note ON: Time 430920, Note Name: G#4, Velocity: 63
Note OFF: Time 431040, Note Name: G#4
Note OFF: Time 431040, Note Name: G#3
Note OFF: Time 431040, Note Name: D#4
Note OFF: Time 431040, Note Name: F#4
Note ON: Time 431040, Note Name: G#3, Velocity: 57
Note ON: Time 431040, Note Name: D#4, Velocity: 68
Note ON: Time 431040, Note Name: F#4, Velocity: 68
Note ON: Time 431040, Note Name: G#4, Velocity: 68
Note OFF: Time 431280, Note Name: G#4
Note OFF: Time 431280, Note Name: G#3
Note OFF: Time 431280, Note Name: D#4
Note OFF: Time 431280, Note Name: F#4
Note ON: Time 431280, Note Name: G#4, Velocity: 65
Note ON: Time 431280, Note Name: C#4, Velocity: 55
Note ON: Time 431280, Note Name: F4, Velocity: 65
Note OFF: Time 431520, Note Name: F4
Note OFF: Time 431520, Note Name: C#4
Note OFF: Time 431520, Note Name: G#4
Note ON: Time 432000, Note Name: F4, Velocity: 77
Note ON: Time 432000, Note Name: C4, Velocity: 77
Note ON: Time 432000, Note Name: F3, Velocity: 65
Note OFF: Time 432480, Note Name: F3
Note OFF: Time 432480, Note Name: C4
Note OFF: Time 432480, Note Name: F4
Note ON: Time 432720, Note Name: F2, Velocity: 65
Note ON: Time 432720, Note Name: C3, Velocity: 77
Note ON: Time 432720, Note Name: F3, Velocity: 77
Note OFF: Time 433200, Note Name: F3
Note OFF: Time 433200, Note Name: C3
Note OFF: Time 433200, Note Name: F2
Note ON: Time 433440, Note Name: F1, Velocity: 79
Note ON: Time 433440, Note Name: F2, Velocity: 94
Note OFF: Time 435120, Note Name: F2
Note OFF: Time 435120, Note Name: F1
Note ON: Time 435120, Note Name: F#1, Velocity: 82
Note ON: Time 435120, Note Name: F#2, Velocity: 97
Note OFF: Time 435300, Note Name: F#2
Note OFF: Time 435300, Note Name: F#1
Note ON: Time 437520, Note Name: A2, Velocity: 27
Note OFF: Time 437600, Note Name: A2
Note ON: Time 437600, Note Name: A#2, Velocity: 28
Note OFF: Time 437680, Note Name: A#2
Note ON: Time 437680, Note Name: C#3, Velocity: 29
Note OFF: Time 437760, Note Name: C#3
Note ON: Time 437760, Note Name: F3, Velocity: 33
Note OFF: Time 437880, Note Name: F3
Note ON: Time 438240, Note Name: A2, Velocity: 27
Note OFF: Time 438320, Note Name: A2
Note ON: Time 438320, Note Name: A#2, Velocity: 28
Note OFF: Time 438400, Note Name: A#2
Note ON: Time 438400, Note Name: C#3, Velocity: 29
Note OFF: Time 438480, Note Name: C#3
Note ON: Time 438480, Note Name: F3, Velocity: 37
Note OFF: Time 439920, Note Name: F3
Note ON: Time 439920, Note Name: A#2, Velocity: 95
Note ON: Time 439920, Note Name: A#1, Velocity: 95
Note OFF: Time 440040, Note Name: A#1
Note OFF: Time 440040, Note Name: A#2
Note ON: Time 440640, Note Name: D#4, Velocity: 85
Note ON: Time 440640, Note Name: A#3, Velocity: 72
Note ON: Time 440640, Note Name: C4, Velocity: 72
Note ON: Time 440640, Note Name: A#4, Velocity: 85
Note ON: Time 440640, Note Name: F#4, Velocity: 85
Note OFF: Time 441720, Note Name: F#4
Note OFF: Time 441720, Note Name: C4
Note OFF: Time 441720, Note Name: D#4
Note OFF: Time 441720, Note Name: A#3
Note OFF: Time 441720, Note Name: A#4
Note ON: Time 441720, Note Name: A#3, Velocity: 47
Note ON: Time 441720, Note Name: C4, Velocity: 47
Note ON: Time 441720, Note Name: D#4, Velocity: 56
Note ON: Time 441720, Note Name: F#4, Velocity: 56
Note ON: Time 441720, Note Name: A#4, Velocity: 56
Note OFF: Time 441840, Note Name: A#4
Note OFF: Time 441840, Note Name: D#4
Note OFF: Time 441840, Note Name: A#3
Note OFF: Time 441840, Note Name: C4
Note OFF: Time 441840, Note Name: F#4
Note ON: Time 441840, Note Name: A#3, Velocity: 47
Note ON: Time 441840, Note Name: C4, Velocity: 47
Note ON: Time 441840, Note Name: D#4, Velocity: 56
Note ON: Time 441840, Note Name: F#4, Velocity: 56
Note ON: Time 441840, Note Name: A#4, Velocity: 56
Note OFF: Time 442080, Note Name: A#4
Note OFF: Time 442080, Note Name: D#4
Note OFF: Time 442080, Note Name: A#3
Note OFF: Time 442080, Note Name: C4
Note OFF: Time 442080, Note Name: F#4
Note ON: Time 442080, Note Name: D#4, Velocity: 56
Note ON: Time 442080, Note Name: A#3, Velocity: 47
Note ON: Time 442080, Note Name: C4, Velocity: 47
Note ON: Time 442080, Note Name: F#4, Velocity: 56
Note ON: Time 442080, Note Name: A#4, Velocity: 56
Note OFF: Time 442440, Note Name: A#4
Note OFF: Time 442440, Note Name: C4
Note OFF: Time 442440, Note Name: D#4
Note OFF: Time 442440, Note Name: A#3
Note OFF: Time 442440, Note Name: F#4
Note ON: Time 442440, Note Name: C4, Velocity: 51
Note ON: Time 442440, Note Name: D#4, Velocity: 61
Note ON: Time 442440, Note Name: A#3, Velocity: 51
Note ON: Time 442440, Note Name: F#4, Velocity: 61
Note ON: Time 442440, Note Name: A#4, Velocity: 61
Note OFF: Time 442560, Note Name: A#4
Note OFF: Time 442560, Note Name: A#3
Note OFF: Time 442560, Note Name: C4
Note OFF: Time 442560, Note Name: D#4
Note OFF: Time 442560, Note Name: F#4
Note ON: Time 442560, Note Name: D#4, Velocity: 66
Note ON: Time 442560, Note Name: F#4, Velocity: 66
Note ON: Time 442560, Note Name: A#3, Velocity: 56
Note ON: Time 442560, Note Name: C4, Velocity: 56
Note ON: Time 442560, Note Name: A#4, Velocity: 66
Note OFF: Time 442800, Note Name: A#4
Note OFF: Time 442800, Note Name: A#3
Note OFF: Time 442800, Note Name: D#4
Note OFF: Time 442800, Note Name: F#4
Note OFF: Time 442800, Note Name: C4
Note ON: Time 442800, Note Name: F4, Velocity: 62
Note ON: Time 442800, Note Name: A#3, Velocity: 52
Note ON: Time 442800, Note Name: C#4, Velocity: 62
Note ON: Time 442800, Note Name: A#4, Velocity: 62
Note OFF: Time 443040, Note Name: A#4
Note OFF: Time 443040, Note Name: F4
Note OFF: Time 443040, Note Name: A#3
Note OFF: Time 443040, Note Name: C#4
Note ON: Time 443280, Note Name: A2, Velocity: 27
Note OFF: Time 443360, Note Name: A2
Note ON: Time 443360, Note Name: A#2, Velocity: 29
Note OFF: Time 443440, Note Name: A#2
Note ON: Time 443440, Note Name: C#3, Velocity: 30
Note OFF: Time 443520, Note Name: C#3
Note ON: Time 443520, Note Name: F3, Velocity: 34
Note OFF: Time 443640, Note Name: F3
Note ON: Time 444000, Note Name: A2, Velocity: 24
Note OFF: Time 444080, Note Name: A2
Note ON: Time 444080, Note Name: A#2, Velocity: 26
Note OFF: Time 444160, Note Name: A#2
Note ON: Time 444160, Note Name: C#3, Velocity: 27
Note OFF: Time 444240, Note Name: C#3
Note ON: Time 444240, Note Name: F3, Velocity: 37
Note OFF: Time 445680, Note Name: F3
Note ON: Time 445680, Note Name: C1, Velocity: 95
Note ON: Time 445680, Note Name: C2, Velocity: 95
Note OFF: Time 445800, Note Name: C2
Note OFF: Time 445800, Note Name: C1
Note ON: Time 446400, Note Name: G#4, Velocity: 89
Note ON: Time 446400, Note Name: C5, Velocity: 89
Note ON: Time 446400, Note Name: F4, Velocity: 75
Note ON: Time 446400, Note Name: C4, Velocity: 75
Note OFF: Time 447840, Note Name: C4
Note OFF: Time 447840, Note Name: G#4
Note OFF: Time 447840, Note Name: C5
Note OFF: Time 447840, Note Name: F4
Note ON: Time 447840, Note Name: C4, Velocity: 49
Note ON: Time 447840, Note Name: A#4, Velocity: 58
Note ON: Time 447840, Note Name: E4, Velocity: 58
Note ON: Time 447840, Note Name: C5, Velocity: 58
Note OFF: Time 448200, Note Name: C5
Note OFF: Time 448200, Note Name: C4
Note OFF: Time 448200, Note Name: A#4
Note OFF: Time 448200, Note Name: E4
Note ON: Time 448200, Note Name: E4, Velocity: 63
Note ON: Time 448200, Note Name: C4, Velocity: 53
Note ON: Time 448200, Note Name: C5, Velocity: 63
Note ON: Time 448200, Note Name: A#4, Velocity: 63
Note OFF: Time 448320, Note Name: A#4
Note OFF: Time 448320, Note Name: E4
Note OFF: Time 448320, Note Name: C4
Note OFF: Time 448320, Note Name: C5
Note ON: Time 448320, Note Name: A#4, Velocity: 68
Note ON: Time 448320, Note Name: C4, Velocity: 57
Note ON: Time 448320, Note Name: E4, Velocity: 68
Note ON: Time 448320, Note Name: C5, Velocity: 68
Note OFF: Time 448560, Note Name: C5
Note OFF: Time 448560, Note Name: A#4
Note OFF: Time 448560, Note Name: C4
Note OFF: Time 448560, Note Name: E4
Note ON: Time 448560, Note Name: C5, Velocity: 65
Note ON: Time 448560, Note Name: F4, Velocity: 55
Note ON: Time 448560, Note Name: G#4, Velocity: 65
Note OFF: Time 448800, Note Name: G#4
Note OFF: Time 448800, Note Name: F4
Note OFF: Time 448800, Note Name: C5
Note ON: Time 449280, Note Name: F3, Velocity: 65
Note ON: Time 449280, Note Name: F4, Velocity: 77
Note ON: Time 449280, Note Name: C4, Velocity: 77
Note OFF: Time 449760, Note Name: C4
Note OFF: Time 449760, Note Name: F4
Note OFF: Time 449760, Note Name: F3
Note ON: Time 450000, Note Name: F3, Velocity: 77
Note ON: Time 450000, Note Name: C3, Velocity: 77
Note ON: Time 450000, Note Name: F2, Velocity: 65
Note OFF: Time 450480, Note Name: F2
Note OFF: Time 450480, Note Name: C3
Note OFF: Time 450480, Note Name: F3
Note ON: Time 450720, Note Name: E1, Velocity: 79
Note ON: Time 450720, Note Name: E2, Velocity: 94
Note OFF: Time 452160, Note Name: E2
Note OFF: Time 452160, Note Name: E1
Note ON: Time 452160, Note Name: F1, Velocity: 94
Note OFF: Time 452880, Note Name: F1
Note ON: Time 452880, Note Name: D1, Velocity: 45
Note ON: Time 452960, Note Name: D#1, Velocity: 45
Note OFF: Time 452970, Note Name: D1
Note ON: Time 453040, Note Name: F1, Velocity: 45
Note OFF: Time 453050, Note Name: D#1
Note ON: Time 453120, Note Name: D#1, Velocity: 46
Note OFF: Time 453130, Note Name: F1
Note ON: Time 453200, Note Name: F1, Velocity: 47
Note OFF: Time 453210, Note Name: D#1
Note OFF: Time 453280, Note Name: F1
Note ON: Time 453280, Note Name: D#1, Velocity: 49
Note ON: Time 453360, Note Name: F1, Velocity: 50
Note OFF: Time 453370, Note Name: D#1
Note ON: Time 453440, Note Name: D#1, Velocity: 51
Note OFF: Time 453450, Note Name: F1
Note ON: Time 453520, Note Name: F1, Velocity: 51
Note OFF: Time 453530, Note Name: D#1
Note ON: Time 453600, Note Name: D#1, Velocity: 52
Note OFF: Time 453610, Note Name: F1
Note ON: Time 453660, Note Name: F1, Velocity: 53
Note OFF: Time 453670, Note Name: D#1
Note ON: Time 453720, Note Name: D#1, Velocity: 53
Note OFF: Time 453730, Note Name: F1
Note ON: Time 453780, Note Name: F1, Velocity: 54
Note OFF: Time 453790, Note Name: D#1
Note ON: Time 453840, Note Name: D#1, Velocity: 55
Note OFF: Time 453850, Note Name: F1
Note ON: Time 453900, Note Name: F1, Velocity: 55
Note OFF: Time 453910, Note Name: D#1
Note ON: Time 453960, Note Name: D#1, Velocity: 56
Note OFF: Time 453970, Note Name: F1
Note ON: Time 454020, Note Name: F1, Velocity: 56
Note OFF: Time 454030, Note Name: D#1
Note ON: Time 454080, Note Name: D#1, Velocity: 59
Note OFF: Time 454090, Note Name: F1
Note ON: Time 454160, Note Name: D1, Velocity: 73
Note OFF: Time 454170, Note Name: D#1
Note ON: Time 454240, Note Name: D#1, Velocity: 73
Note OFF: Time 454250, Note Name: D1
Note ON: Time 454320, Note Name: C#1, Velocity: 74
Note ON: Time 454320, Note Name: C#2, Velocity: 88
Note OFF: Time 454330, Note Name: D#1
Note OFF: Time 454440, Note Name: C#2
Note OFF: Time 454440, Note Name: C#1
Note ON: Time 454800, Note Name: G#2, Velocity: 45
Note ON: Time 454800, Note Name: G#3, Velocity: 45
Note OFF: Time 455040, Note Name: G#3
Note OFF: Time 455040, Note Name: G#2
Note ON: Time 455040, Note Name: C#4, Velocity: 53
Note ON: Time 455040, Note Name: F3, Velocity: 53
Note OFF: Time 455280, Note Name: F3
Note OFF: Time 455280, Note Name: C#4
Note ON: Time 455520, Note Name: G#2, Velocity: 42
Note ON: Time 455520, Note Name: G#3, Velocity: 42
Note OFF: Time 455760, Note Name: G#3
Note OFF: Time 455760, Note Name: G#2
Note ON: Time 455760, Note Name: F3, Velocity: 47
Note ON: Time 455760, Note Name: C#4, Velocity: 47
Note OFF: Time 456000, Note Name: C#4
Note OFF: Time 456000, Note Name: F3
Note ON: Time 457200, Note Name: G#1, Velocity: 52
Note ON: Time 457200, Note Name: G#2, Velocity: 52
Note OFF: Time 457320, Note Name: G#2
Note OFF: Time 457320, Note Name: G#1
Note ON: Time 457920, Note Name: F#4, Velocity: 38
Note ON: Time 457920, Note Name: G3, Velocity: 38
Note ON: Time 457920, Note Name: C4, Velocity: 38
Note OFF: Time 458160, Note Name: C4
Note OFF: Time 458160, Note Name: G3
Note OFF: Time 458160, Note Name: F#4
Note ON: Time 458160, Note Name: G#3, Velocity: 35
Note ON: Time 458160, Note Name: C4, Velocity: 35
Note ON: Time 458160, Note Name: F#4, Velocity: 35
Note OFF: Time 458400, Note Name: F#4
Note OFF: Time 458400, Note Name: C4
Note OFF: Time 458400, Note Name: G#3
Note ON: Time 458400, Note Name: F#4, Velocity: 31
Note ON: Time 458400, Note Name: G#3, Velocity: 31
Note ON: Time 458400, Note Name: C4, Velocity: 31
Note OFF: Time 458520, Note Name: C4
Note OFF: Time 458520, Note Name: G#3
Note OFF: Time 458520, Note Name: F#4
Note ON: Time 459360, Note Name: A3, Velocity: 35
Note ON: Time 459360, Note Name: C4, Velocity: 35
Note ON: Time 459360, Note Name: F#4, Velocity: 35
Note OFF: Time 459600, Note Name: F#4
Note OFF: Time 459600, Note Name: C4
Note OFF: Time 459600, Note Name: A3
Note ON: Time 459600, Note Name: F#4, Velocity: 32
Note ON: Time 459600, Note Name: C4, Velocity: 32
Note ON: Time 459600, Note Name: G#3, Velocity: 32
Note OFF: Time 459840, Note Name: G#3
Note OFF: Time 459840, Note Name: C4
Note OFF: Time 459840, Note Name: F#4
Note ON: Time 459840, Note Name: F#4, Velocity: 28
Note ON: Time 459840, Note Name: C4, Velocity: 28
Note ON: Time 459840, Note Name: G#3, Velocity: 28
Note OFF: Time 459960, Note Name: G#3
Note OFF: Time 459960, Note Name: C4
Note OFF: Time 459960, Note Name: F#4
Note ON: Time 460080, Note Name: C#1, Velocity: 74
Note ON: Time 460080, Note Name: C#2, Velocity: 88
Note OFF: Time 460200, Note Name: C#2
Note OFF: Time 460200, Note Name: C#1
Note ON: Time 460560, Note Name: G#2, Velocity: 45
Note ON: Time 460560, Note Name: G#3, Velocity: 45
Note OFF: Time 460800, Note Name: G#3
Note OFF: Time 460800, Note Name: G#2
Note ON: Time 460800, Note Name: C#4, Velocity: 53
Note ON: Time 460800, Note Name: F3, Velocity: 53
Note OFF: Time 461040, Note Name: F3
Note OFF: Time 461040, Note Name: C#4
Note ON: Time 461280, Note Name: G#2, Velocity: 42
Note ON: Time 461280, Note Name: G#3, Velocity: 42
Note OFF: Time 461520, Note Name: G#3
Note OFF: Time 461520, Note Name: G#2
Note ON: Time 461520, Note Name: F3, Velocity: 47
Note ON: Time 461520, Note Name: C#4, Velocity: 47
Note OFF: Time 461760, Note Name: C#4
Note OFF: Time 461760, Note Name: F3
Note ON: Time 462960, Note Name: G#2, Velocity: 25
Note ON: Time 462960, Note Name: D#3, Velocity: 25
Note ON: Time 462960, Note Name: F#3, Velocity: 25
Note OFF: Time 463680, Note Name: F#3
Note OFF: Time 463680, Note Name: D#3
Note OFF: Time 463680, Note Name: G#2
Note ON: Time 463680, Note Name: C4, Velocity: 32
Note OFF: Time 463800, Note Name: C4
Note ON: Time 463800, Note Name: C#4, Velocity: 32
Note OFF: Time 463920, Note Name: C#4
Note ON: Time 463920, Note Name: D#4, Velocity: 32
Note OFF: Time 464040, Note Name: D#4
Note ON: Time 464040, Note Name: F4, Velocity: 32
Note OFF: Time 464160, Note Name: F4
Note ON: Time 464160, Note Name: F#4, Velocity: 32
Note OFF: Time 464280, Note Name: F#4
Note ON: Time 464280, Note Name: G#4, Velocity: 32
Note OFF: Time 464400, Note Name: G#4
Note ON: Time 464400, Note Name: A4, Velocity: 32
Note OFF: Time 464520, Note Name: A4
Note ON: Time 465120, Note Name: A3, Velocity: 30
Note OFF: Time 465240, Note Name: A3
Note ON: Time 465240, Note Name: G#3, Velocity: 29
Note OFF: Time 465360, Note Name: G#3
Note ON: Time 465360, Note Name: G3, Velocity: 28
Note OFF: Time 465480, Note Name: G3
Note ON: Time 465480, Note Name: F#3, Velocity: 27
Note OFF: Time 465600, Note Name: F#3
Note ON: Time 465600, Note Name: F3, Velocity: 26
Note OFF: Time 465720, Note Name: F3
Note ON: Time 465720, Note Name: D#3, Velocity: 25
Note OFF: Time 465840, Note Name: D#3
Note ON: Time 465840, Note Name: C#3, Velocity: 27
Note OFF: Time 465960, Note Name: C#3
Note ON: Time 465960, Note Name: G#3, Velocity: 28
Note OFF: Time 466080, Note Name: G#3
Note ON: Time 466080, Note Name: C#4, Velocity: 30
Note OFF: Time 466200, Note Name: C#4
Note ON: Time 466200, Note Name: F4, Velocity: 34
Note OFF: Time 466320, Note Name: F4
Note ON: Time 466320, Note Name: C#4, Velocity: 31
Note OFF: Time 466440, Note Name: C#4
Note ON: Time 466440, Note Name: G#3, Velocity: 30
Note OFF: Time 466560, Note Name: G#3
Note ON: Time 466560, Note Name: C#3, Velocity: 29
Note OFF: Time 466680, Note Name: C#3
Note ON: Time 466680, Note Name: B3, Velocity: 28
Note OFF: Time 466800, Note Name: B3
Note ON: Time 466800, Note Name: C#4, Velocity: 30
Note OFF: Time 466920, Note Name: C#4
Note ON: Time 466920, Note Name: F4, Velocity: 31
Note OFF: Time 467040, Note Name: F4
Note ON: Time 467040, Note Name: C#4, Velocity: 30
Note OFF: Time 467160, Note Name: C#4
Note ON: Time 467160, Note Name: B3, Velocity: 29
Note OFF: Time 467280, Note Name: B3
Note ON: Time 467280, Note Name: F#3, Velocity: 28
Note OFF: Time 467400, Note Name: F#3
Note ON: Time 467400, Note Name: B3, Velocity: 28
Note OFF: Time 467520, Note Name: B3
Note ON: Time 467520, Note Name: C#4, Velocity: 31
Note OFF: Time 467640, Note Name: C#4
Note ON: Time 467640, Note Name: F#4, Velocity: 34
Note OFF: Time 467760, Note Name: F#4
Note ON: Time 467760, Note Name: C#4, Velocity: 31
Note OFF: Time 467880, Note Name: C#4
Note ON: Time 467880, Note Name: B3, Velocity: 29
Note OFF: Time 468000, Note Name: B3
Note ON: Time 468000, Note Name: C#3, Velocity: 29
Note OFF: Time 468120, Note Name: C#3
Note ON: Time 468120, Note Name: A#3, Velocity: 28
Note OFF: Time 468240, Note Name: A#3
Note ON: Time 468240, Note Name: C#4, Velocity: 30
Note OFF: Time 468360, Note Name: C#4
Note ON: Time 468360, Note Name: F#4, Velocity: 33
Note OFF: Time 468480, Note Name: F#4
Note ON: Time 468480, Note Name: C#4, Velocity: 31
Note OFF: Time 468600, Note Name: C#4
Note ON: Time 468600, Note Name: A#3, Velocity: 30
Note OFF: Time 468720, Note Name: A#3
Note ON: Time 468720, Note Name: G#3, Velocity: 28
Note OFF: Time 468840, Note Name: G#3
Note ON: Time 468840, Note Name: B3, Velocity: 28
Note OFF: Time 468960, Note Name: B3
Note ON: Time 468960, Note Name: C#4, Velocity: 30
Note OFF: Time 469080, Note Name: C#4
Note ON: Time 469080, Note Name: G#4, Velocity: 33
Note OFF: Time 469200, Note Name: G#4
Note ON: Time 469200, Note Name: C#4, Velocity: 31
Note OFF: Time 469320, Note Name: C#4
Note ON: Time 469320, Note Name: B3, Velocity: 29
Note OFF: Time 469440, Note Name: B3
Note ON: Time 469440, Note Name: C#3, Velocity: 29
Note OFF: Time 469560, Note Name: C#3
Note ON: Time 469560, Note Name: B3, Velocity: 28
Note OFF: Time 469680, Note Name: B3
Note ON: Time 469680, Note Name: C#4, Velocity: 30
Note OFF: Time 469800, Note Name: C#4
Note ON: Time 469800, Note Name: F4, Velocity: 31
Note OFF: Time 469920, Note Name: F4
Note ON: Time 469920, Note Name: C#4, Velocity: 30
Note OFF: Time 470040, Note Name: C#4
Note ON: Time 470040, Note Name: B3, Velocity: 29
Note OFF: Time 470160, Note Name: B3
Note ON: Time 470160, Note Name: F#3, Velocity: 29
Note OFF: Time 470280, Note Name: F#3
Note ON: Time 470280, Note Name: A#3, Velocity: 30
Note OFF: Time 470400, Note Name: A#3
Note ON: Time 470400, Note Name: C#4, Velocity: 34
Note OFF: Time 470520, Note Name: C#4
Note ON: Time 470520, Note Name: F#4, Velocity: 35
Note OFF: Time 470640, Note Name: F#4
Note ON: Time 470640, Note Name: C#4, Velocity: 34
Note OFF: Time 470760, Note Name: C#4
Note ON: Time 470760, Note Name: A#3, Velocity: 33
Note OFF: Time 470880, Note Name: A#3
Note ON: Time 470880, Note Name: E3, Velocity: 35
Note OFF: Time 471000, Note Name: E3
Note ON: Time 471000, Note Name: A#3, Velocity: 36
Note OFF: Time 471120, Note Name: A#3
Note ON: Time 471120, Note Name: C#4, Velocity: 39
Note OFF: Time 471240, Note Name: C#4
Note ON: Time 471240, Note Name: G#4, Velocity: 37
Note OFF: Time 471360, Note Name: G#4
Note ON: Time 471360, Note Name: C#4, Velocity: 34
Note OFF: Time 471480, Note Name: C#4
Note ON: Time 471480, Note Name: A#3, Velocity: 31
Note OFF: Time 471600, Note Name: A#3
Note ON: Time 471600, Note Name: D#3, Velocity: 36
Note OFF: Time 471720, Note Name: D#3
Note ON: Time 471720, Note Name: A#3, Velocity: 38
Note OFF: Time 471840, Note Name: A#3
Note ON: Time 471840, Note Name: C#4, Velocity: 41
Note OFF: Time 471960, Note Name: C#4
Note ON: Time 471960, Note Name: G4, Velocity: 45
Note OFF: Time 472080, Note Name: G4
Note ON: Time 472080, Note Name: C#4, Velocity: 42
Note OFF: Time 472200, Note Name: C#4
Note ON: Time 472200, Note Name: A#3, Velocity: 39
Note OFF: Time 472320, Note Name: A#3
Note ON: Time 472320, Note Name: G3, Velocity: 36
Note OFF: Time 472440, Note Name: G3
Note ON: Time 472440, Note Name: C#4, Velocity: 38
Note OFF: Time 472560, Note Name: C#4
Note ON: Time 472560, Note Name: D#4, Velocity: 41
Note OFF: Time 472680, Note Name: D#4
Note ON: Time 472680, Note Name: A#4, Velocity: 46
Note OFF: Time 472800, Note Name: A#4
Note ON: Time 472800, Note Name: D#4, Velocity: 42
Note OFF: Time 472920, Note Name: D#4
Note ON: Time 472920, Note Name: C#4, Velocity: 39
Note OFF: Time 473040, Note Name: C#4
Note ON: Time 473040, Note Name: G#3, Velocity: 37
Note OFF: Time 473160, Note Name: G#3
Note ON: Time 473160, Note Name: C#4, Velocity: 38
Note OFF: Time 473280, Note Name: C#4
Note ON: Time 473280, Note Name: D#4, Velocity: 42
Note OFF: Time 473400, Note Name: D#4
Note ON: Time 473400, Note Name: G#4, Velocity: 45
Note OFF: Time 473520, Note Name: G#4
Note ON: Time 473520, Note Name: D#4, Velocity: 41
Note OFF: Time 473640, Note Name: D#4
Note ON: Time 473640, Note Name: C#4, Velocity: 38
Note OFF: Time 473760, Note Name: C#4
Note ON: Time 473760, Note Name: D#3, Velocity: 36
Note OFF: Time 473880, Note Name: D#3
Note ON: Time 473880, Note Name: C4, Velocity: 37
Note OFF: Time 474000, Note Name: C4
Note ON: Time 474000, Note Name: D#4, Velocity: 40
Note OFF: Time 474120, Note Name: D#4
Note ON: Time 474120, Note Name: G#4, Velocity: 44
Note OFF: Time 474240, Note Name: G#4
Note ON: Time 474240, Note Name: D#4, Velocity: 41
Note OFF: Time 474360, Note Name: D#4
Note ON: Time 474360, Note Name: C4, Velocity: 39
Note OFF: Time 474480, Note Name: C4
Note ON: Time 474480, Note Name: A#3, Velocity: 36
Note OFF: Time 474600, Note Name: A#3
Note ON: Time 474600, Note Name: C#4, Velocity: 37
Note OFF: Time 474720, Note Name: C#4
Note ON: Time 474720, Note Name: D#4, Velocity: 40
Note OFF: Time 474840, Note Name: D#4
Note ON: Time 474840, Note Name: A#4, Velocity: 42
Note OFF: Time 474960, Note Name: A#4
Note ON: Time 474960, Note Name: D#4, Velocity: 41
Note OFF: Time 475080, Note Name: D#4
Note ON: Time 475080, Note Name: C#4, Velocity: 39
Note OFF: Time 475200, Note Name: C#4
Note ON: Time 475200, Note Name: D#3, Velocity: 37
Note OFF: Time 475320, Note Name: D#3
Note ON: Time 475320, Note Name: C#4, Velocity: 36
Note OFF: Time 475440, Note Name: C#4
Note ON: Time 475440, Note Name: D#4, Velocity: 38
Note OFF: Time 475560, Note Name: D#4
Note ON: Time 475560, Note Name: G4, Velocity: 40
Note OFF: Time 475680, Note Name: G4
Note ON: Time 475680, Note Name: D#4, Velocity: 40
Note OFF: Time 475800, Note Name: D#4
Note ON: Time 475800, Note Name: C#4, Velocity: 37
Note OFF: Time 475920, Note Name: C#4
Note ON: Time 475920, Note Name: G#3, Velocity: 50
Note OFF: Time 476040, Note Name: G#3
Note ON: Time 476040, Note Name: C4, Velocity: 40
Note OFF: Time 476160, Note Name: C4
Note ON: Time 476160, Note Name: D#4, Velocity: 44
Note OFF: Time 476280, Note Name: D#4
Note ON: Time 476280, Note Name: G#4, Velocity: 45
Note OFF: Time 476400, Note Name: G#4
Note ON: Time 476400, Note Name: D#4, Velocity: 44
Note OFF: Time 476520, Note Name: D#4
Note ON: Time 476520, Note Name: C4, Velocity: 42
Note OFF: Time 476640, Note Name: C4
Note ON: Time 476640, Note Name: G3, Velocity: 39
Note ON: Time 476760, Note Name: G#3, Velocity: 41
Note OFF: Time 476880, Note Name: G#3
Note ON: Time 476880, Note Name: C4, Velocity: 45
Note OFF: Time 477000, Note Name: C4
Note ON: Time 477000, Note Name: D#4, Velocity: 49
Note OFF: Time 477120, Note Name: D#4
Note ON: Time 477120, Note Name: C4, Velocity: 47
Note OFF: Time 477240, Note Name: C4
Note ON: Time 477240, Note Name: G#3, Velocity: 41
Note OFF: Time 477360, Note Name: G#3
Note OFF: Time 477360, Note Name: G3
Note ON: Time 477360, Note Name: F#3, Velocity: 38
Note ON: Time 477480, Note Name: G#3, Velocity: 36
Note OFF: Time 477600, Note Name: G#3
Note ON: Time 477600, Note Name: C4, Velocity: 39
Note OFF: Time 477720, Note Name: C4
Note ON: Time 477720, Note Name: D#4, Velocity: 42
Note OFF: Time 477840, Note Name: D#4
Note ON: Time 477840, Note Name: C4, Velocity: 41
Note OFF: Time 477960, Note Name: C4
Note ON: Time 477960, Note Name: G#3, Velocity: 38
Note OFF: Time 478080, Note Name: G#3
Note OFF: Time 478080, Note Name: F#3
Note ON: Time 478080, Note Name: F#3, Velocity: 47
Note ON: Time 478200, Note Name: G#3, Velocity: 41
Note OFF: Time 478320, Note Name: G#3
Note ON: Time 478320, Note Name: C4, Velocity: 41
Note OFF: Time 478440, Note Name: C4
Note ON: Time 478440, Note Name: D#4, Velocity: 41
Note OFF: Time 478560, Note Name: D#4
Note ON: Time 478560, Note Name: C4, Velocity: 38
Note OFF: Time 478680, Note Name: C4
Note ON: Time 478680, Note Name: G#3, Velocity: 35
Note OFF: Time 478800, Note Name: G#3
Note OFF: Time 478800, Note Name: F#3
Note ON: Time 478800, Note Name: F3, Velocity: 34
Note ON: Time 478920, Note Name: G#3, Velocity: 33
Note OFF: Time 479040, Note Name: G#3
Note ON: Time 479040, Note Name: C#4, Velocity: 36
Note OFF: Time 479160, Note Name: C#4
Note ON: Time 479160, Note Name: F4, Velocity: 39
Note OFF: Time 479280, Note Name: F4
Note ON: Time 479280, Note Name: C#4, Velocity: 37
Note OFF: Time 479400, Note Name: C#4
Note ON: Time 479400, Note Name: G#3, Velocity: 35
Note OFF: Time 479520, Note Name: G#3
Note OFF: Time 479520, Note Name: F3
Note ON: Time 479520, Note Name: F3, Velocity: 36
Note OFF: Time 479640, Note Name: F3
Note ON: Time 479640, Note Name: G#3, Velocity: 38
Note OFF: Time 479760, Note Name: G#3
Note ON: Time 479760, Note Name: C#4, Velocity: 41
Note OFF: Time 479880, Note Name: C#4
Note ON: Time 479880, Note Name: G#4, Velocity: 42
Note OFF: Time 480000, Note Name: G#4
Note ON: Time 480000, Note Name: C#4, Velocity: 40
Note OFF: Time 480120, Note Name: C#4
Note ON: Time 480120, Note Name: G#3, Velocity: 37
Note OFF: Time 480240, Note Name: G#3
Note ON: Time 480240, Note Name: D#3, Velocity: 35
Note OFF: Time 480360, Note Name: D#3
Note ON: Time 480360, Note Name: G#3, Velocity: 38
Note OFF: Time 480480, Note Name: G#3
Note ON: Time 480480, Note Name: C4, Velocity: 41
Note OFF: Time 480600, Note Name: C4
Note ON: Time 480600, Note Name: F#4, Velocity: 41
Note OFF: Time 480720, Note Name: F#4
Note ON: Time 480720, Note Name: C4, Velocity: 39
Note OFF: Time 480840, Note Name: C4
Note ON: Time 480840, Note Name: G#3, Velocity: 36
Note OFF: Time 480960, Note Name: G#3
Note ON: Time 480960, Note Name: D#3, Velocity: 34
Note OFF: Time 481080, Note Name: D#3
Note ON: Time 481080, Note Name: G#3, Velocity: 34
Note OFF: Time 481200, Note Name: G#3
Note ON: Time 481200, Note Name: C4, Velocity: 37
Note OFF: Time 481320, Note Name: C4
Note ON: Time 481320, Note Name: F#4, Velocity: 39
Note OFF: Time 481440, Note Name: F#4
Note ON: Time 481440, Note Name: C4, Velocity: 36
Note OFF: Time 481560, Note Name: C4
Note ON: Time 481560, Note Name: G#3, Velocity: 31
Note OFF: Time 481680, Note Name: G#3
Note ON: Time 481680, Note Name: D3, Velocity: 31
Note OFF: Time 481800, Note Name: D3
Note ON: Time 481800, Note Name: G#3, Velocity: 31
Note OFF: Time 481920, Note Name: G#3
Note ON: Time 481920, Note Name: B3, Velocity: 35
Note OFF: Time 482040, Note Name: B3
Note ON: Time 482040, Note Name: F4, Velocity: 37
Note OFF: Time 482160, Note Name: F4
Note ON: Time 482160, Note Name: B3, Velocity: 36
Note OFF: Time 482280, Note Name: B3
Note ON: Time 482280, Note Name: G#3, Velocity: 34
Note OFF: Time 482400, Note Name: G#3
Note ON: Time 482400, Note Name: D3, Velocity: 34
Note OFF: Time 482520, Note Name: D3
Note ON: Time 482520, Note Name: G#3, Velocity: 30
Note OFF: Time 482640, Note Name: G#3
Note ON: Time 482640, Note Name: A#3, Velocity: 35
Note OFF: Time 482760, Note Name: A#3
Note ON: Time 482760, Note Name: F4, Velocity: 37
Note OFF: Time 482880, Note Name: F4
Note ON: Time 482880, Note Name: A#3, Velocity: 36
Note OFF: Time 483000, Note Name: A#3
Note ON: Time 483000, Note Name: G#3, Velocity: 34
Note OFF: Time 483120, Note Name: G#3
Note ON: Time 483120, Note Name: D#3, Velocity: 34
Note OFF: Time 483240, Note Name: D#3
Note ON: Time 483240, Note Name: F#3, Velocity: 35
Note OFF: Time 483360, Note Name: F#3
Note ON: Time 483360, Note Name: A#3, Velocity: 38
Note OFF: Time 483480, Note Name: A#3
Note ON: Time 483480, Note Name: D#4, Velocity: 39
Note OFF: Time 483600, Note Name: D#4
Note ON: Time 483600, Note Name: A#3, Velocity: 38
Note OFF: Time 483720, Note Name: A#3
Note ON: Time 483720, Note Name: F#3, Velocity: 36
Note OFF: Time 483840, Note Name: F#3
Note ON: Time 483840, Note Name: F#2, Velocity: 34
Note OFF: Time 483960, Note Name: F#2
Note ON: Time 483960, Note Name: F#3, Velocity: 31
Note OFF: Time 484080, Note Name: F#3
Note ON: Time 484080, Note Name: A#3, Velocity: 36
Note OFF: Time 484200, Note Name: A#3
Note ON: Time 484200, Note Name: D#4, Velocity: 38
Note OFF: Time 484320, Note Name: D#4
Note ON: Time 484320, Note Name: A#3, Velocity: 36
Note OFF: Time 484440, Note Name: A#3
Note ON: Time 484440, Note Name: F#3, Velocity: 34
Note OFF: Time 484560, Note Name: F#3
Note ON: Time 484560, Note Name: G#2, Velocity: 35
Note OFF: Time 484680, Note Name: G#2
Note ON: Time 484680, Note Name: F3, Velocity: 36
Note OFF: Time 484800, Note Name: F3
Note ON: Time 484800, Note Name: G#3, Velocity: 37
Note OFF: Time 484920, Note Name: G#3
Note ON: Time 484920, Note Name: C#4, Velocity: 39
Note OFF: Time 485040, Note Name: C#4
Note ON: Time 485040, Note Name: G#3, Velocity: 37
Note OFF: Time 485160, Note Name: G#3
Note ON: Time 485160, Note Name: F3, Velocity: 35
Note OFF: Time 485280, Note Name: F3
Note ON: Time 485280, Note Name: G#2, Velocity: 33
Note OFF: Time 485400, Note Name: G#2
Note ON: Time 485400, Note Name: F3, Velocity: 34
Note OFF: Time 485520, Note Name: F3
Note ON: Time 485520, Note Name: G#3, Velocity: 35
Note OFF: Time 485640, Note Name: G#3
Note ON: Time 485640, Note Name: C#4, Velocity: 38
Note OFF: Time 485760, Note Name: C#4
Note ON: Time 485760, Note Name: G#3, Velocity: 37
Note OFF: Time 485880, Note Name: G#3
Note ON: Time 485880, Note Name: F3, Velocity: 36
Note OFF: Time 486000, Note Name: F3
Note ON: Time 486000, Note Name: G#2, Velocity: 39
Note OFF: Time 486120, Note Name: G#2
Note ON: Time 486120, Note Name: F#3, Velocity: 34
Note OFF: Time 486240, Note Name: F#3
Note ON: Time 486240, Note Name: G#3, Velocity: 36
Note OFF: Time 486360, Note Name: G#3
Note ON: Time 486360, Note Name: C4, Velocity: 36
Note OFF: Time 486480, Note Name: C4
Note ON: Time 486480, Note Name: G#3, Velocity: 35
Note OFF: Time 486600, Note Name: G#3
Note ON: Time 486600, Note Name: F#3, Velocity: 34
Note OFF: Time 486720, Note Name: F#3
Note ON: Time 486720, Note Name: G#2, Velocity: 31
Note OFF: Time 486840, Note Name: G#2
Note ON: Time 486840, Note Name: F#3, Velocity: 31
Note OFF: Time 486960, Note Name: F#3
Note ON: Time 486960, Note Name: G#3, Velocity: 35
Note OFF: Time 487080, Note Name: G#3
Note ON: Time 487080, Note Name: C4, Velocity: 37
Note OFF: Time 487200, Note Name: C4
Note ON: Time 487200, Note Name: G#3, Velocity: 35
Note OFF: Time 487320, Note Name: G#3
Note ON: Time 487320, Note Name: F#3, Velocity: 33
Note OFF: Time 487440, Note Name: F#3
Note ON: Time 487440, Note Name: C#3, Velocity: 33
Note OFF: Time 487560, Note Name: C#3
Note ON: Time 487560, Note Name: G#3, Velocity: 33
Note OFF: Time 487680, Note Name: G#3
Note ON: Time 487680, Note Name: C#4, Velocity: 36
Note OFF: Time 487800, Note Name: C#4
Note ON: Time 487800, Note Name: F4, Velocity: 37
Note OFF: Time 487920, Note Name: F4
Note ON: Time 487920, Note Name: C#4, Velocity: 36
Note OFF: Time 488040, Note Name: C#4
Note ON: Time 488040, Note Name: A#3, Velocity: 35
Note OFF: Time 488160, Note Name: A#3
Note ON: Time 488160, Note Name: G#3, Velocity: 36
Note ON: Time 488280, Note Name: C#4, Velocity: 36
Note OFF: Time 488400, Note Name: C#4
Note OFF: Time 488400, Note Name: G#3
Note ON: Time 488400, Note Name: F4, Velocity: 39
Note OFF: Time 488520, Note Name: F4
Note ON: Time 488520, Note Name: G#4, Velocity: 40
Note OFF: Time 488640, Note Name: G#4
Note ON: Time 488640, Note Name: F4, Velocity: 39
Note OFF: Time 488760, Note Name: F4
Note ON: Time 488760, Note Name: C#4, Velocity: 38
Note OFF: Time 488880, Note Name: C#4
Note ON: Time 488880, Note Name: F#3, Velocity: 38
Note ON: Time 489000, Note Name: G#3, Velocity: 42
Note OFF: Time 489120, Note Name: G#3
Note ON: Time 489120, Note Name: C4, Velocity: 42
Note OFF: Time 489240, Note Name: C4
Note ON: Time 489240, Note Name: D#4, Velocity: 42
Note OFF: Time 489360, Note Name: D#4
Note ON: Time 489360, Note Name: C4, Velocity: 42
Note OFF: Time 489480, Note Name: C4
Note ON: Time 489480, Note Name: G#3, Velocity: 42
Note OFF: Time 489600, Note Name: G#3
Note OFF: Time 489600, Note Name: F#3
Note ON: Time 489600, Note Name: F#3, Velocity: 41
Note ON: Time 489720, Note Name: G#3, Velocity: 45
Note OFF: Time 489840, Note Name: G#3
Note ON: Time 489840, Note Name: C4, Velocity: 45
Note OFF: Time 489960, Note Name: C4
Note ON: Time 489960, Note Name: D#4, Velocity: 45
Note OFF: Time 490080, Note Name: D#4
Note ON: Time 490080, Note Name: C4, Velocity: 41
Note OFF: Time 490200, Note Name: C4
Note ON: Time 490200, Note Name: G#3, Velocity: 38
Note OFF: Time 490320, Note Name: G#3
Note OFF: Time 490320, Note Name: F#3
Note ON: Time 490320, Note Name: F3, Velocity: 37
Note ON: Time 490440, Note Name: G#3, Velocity: 36
Note OFF: Time 490560, Note Name: G#3
Note ON: Time 490560, Note Name: C#4, Velocity: 39
Note OFF: Time 490680, Note Name: C#4
Note ON: Time 490680, Note Name: F4, Velocity: 42
Note OFF: Time 490800, Note Name: F4
Note ON: Time 490800, Note Name: C#4, Velocity: 40
Note OFF: Time 490920, Note Name: C#4
Note ON: Time 490920, Note Name: G#3, Velocity: 38
Note OFF: Time 491040, Note Name: G#3
Note OFF: Time 491040, Note Name: F3
Note ON: Time 491040, Note Name: F3, Velocity: 39
Note OFF: Time 491160, Note Name: F3
Note ON: Time 491160, Note Name: G#3, Velocity: 41
Note OFF: Time 491280, Note Name: G#3
Note ON: Time 491280, Note Name: C#4, Velocity: 45
Note OFF: Time 491400, Note Name: C#4
Note ON: Time 491400, Note Name: G#4, Velocity: 46
Note OFF: Time 491520, Note Name: G#4
Note ON: Time 491520, Note Name: C#4, Velocity: 44
Note OFF: Time 491640, Note Name: C#4
Note ON: Time 491640, Note Name: G#3, Velocity: 40
Note OFF: Time 491760, Note Name: G#3
Note ON: Time 491760, Note Name: D#3, Velocity: 39
Note OFF: Time 491880, Note Name: D#3
Note ON: Time 491880, Note Name: G#3, Velocity: 41
Note OFF: Time 492000, Note Name: G#3
Note ON: Time 492000, Note Name: C4, Velocity: 45
Note OFF: Time 492120, Note Name: C4
Note ON: Time 492120, Note Name: F#4, Velocity: 45
Note OFF: Time 492240, Note Name: F#4
Note ON: Time 492240, Note Name: C4, Velocity: 42
Note OFF: Time 492360, Note Name: C4
Note ON: Time 492360, Note Name: G#3, Velocity: 39
Note OFF: Time 492480, Note Name: G#3
Note ON: Time 492480, Note Name: D#3, Velocity: 38
Note OFF: Time 492600, Note Name: D#3
Note ON: Time 492600, Note Name: G#3, Velocity: 37
Note OFF: Time 492720, Note Name: G#3
Note ON: Time 492720, Note Name: C4, Velocity: 40
Note OFF: Time 492840, Note Name: C4
Note ON: Time 492840, Note Name: F#4, Velocity: 42
Note OFF: Time 492960, Note Name: F#4
Note ON: Time 492960, Note Name: C4, Velocity: 39
Note OFF: Time 493080, Note Name: C4
Note ON: Time 493080, Note Name: G#3, Velocity: 34
Note OFF: Time 493200, Note Name: G#3
Note ON: Time 493200, Note Name: D3, Velocity: 35
Note OFF: Time 493320, Note Name: D3
Note ON: Time 493320, Note Name: G#3, Velocity: 37
Note OFF: Time 493440, Note Name: G#3
Note ON: Time 493440, Note Name: B3, Velocity: 41
Note OFF: Time 493560, Note Name: B3
Note ON: Time 493560, Note Name: F4, Velocity: 44
Note OFF: Time 493680, Note Name: F4
Note ON: Time 493680, Note Name: B3, Velocity: 42
Note OFF: Time 493800, Note Name: B3
Note ON: Time 493800, Note Name: G#3, Velocity: 40
Note OFF: Time 493920, Note Name: G#3
Note ON: Time 493920, Note Name: D3, Velocity: 35
Note OFF: Time 494040, Note Name: D3
Note ON: Time 494040, Note Name: G#3, Velocity: 36
Note OFF: Time 494160, Note Name: G#3
Note ON: Time 494160, Note Name: A#3, Velocity: 41
Note OFF: Time 494280, Note Name: A#3
Note ON: Time 494280, Note Name: F4, Velocity: 44
Note OFF: Time 494400, Note Name: F4
Note ON: Time 494400, Note Name: A#3, Velocity: 42
Note OFF: Time 494520, Note Name: A#3
Note ON: Time 494520, Note Name: G#3, Velocity: 40
Note OFF: Time 494640, Note Name: G#3
Note ON: Time 494640, Note Name: D#3, Velocity: 37
Note OFF: Time 494760, Note Name: D#3
Note ON: Time 494760, Note Name: F#3, Velocity: 38
Note OFF: Time 494880, Note Name: F#3
Note ON: Time 494880, Note Name: A#3, Velocity: 41
Note OFF: Time 495000, Note Name: A#3
Note ON: Time 495000, Note Name: D#4, Velocity: 42
Note OFF: Time 495120, Note Name: D#4
Note ON: Time 495120, Note Name: A#3, Velocity: 41
Note OFF: Time 495240, Note Name: A#3
Note ON: Time 495240, Note Name: F#3, Velocity: 39
Note OFF: Time 495360, Note Name: F#3
Note ON: Time 495360, Note Name: F#2, Velocity: 37
Note OFF: Time 495480, Note Name: F#2
Note ON: Time 495480, Note Name: F#3, Velocity: 34
Note OFF: Time 495600, Note Name: F#3
Note ON: Time 495600, Note Name: A#3, Velocity: 39
Note OFF: Time 495720, Note Name: A#3
Note ON: Time 495720, Note Name: D#4, Velocity: 41
Note OFF: Time 495840, Note Name: D#4
Note ON: Time 495840, Note Name: A#3, Velocity: 39
Note OFF: Time 495960, Note Name: A#3
Note ON: Time 495960, Note Name: F#3, Velocity: 37
Note OFF: Time 496080, Note Name: F#3
Note ON: Time 496080, Note Name: G#2, Velocity: 37
Note OFF: Time 496200, Note Name: G#2
Note ON: Time 496200, Note Name: F3, Velocity: 39
Note OFF: Time 496320, Note Name: F3
Note ON: Time 496320, Note Name: G#3, Velocity: 40
Note OFF: Time 496440, Note Name: G#3
Note ON: Time 496440, Note Name: C#4, Velocity: 42
Note OFF: Time 496560, Note Name: C#4
Note ON: Time 496560, Note Name: G#3, Velocity: 40
Note OFF: Time 496680, Note Name: G#3
Note ON: Time 496680, Note Name: F3, Velocity: 38
Note OFF: Time 496800, Note Name: F3
Note ON: Time 496800, Note Name: G#2, Velocity: 35
Note OFF: Time 496920, Note Name: G#2
Note ON: Time 496920, Note Name: F3, Velocity: 35
Note OFF: Time 497040, Note Name: F3
Note ON: Time 497040, Note Name: G#3, Velocity: 37
Note OFF: Time 497160, Note Name: G#3
Note ON: Time 497160, Note Name: C#4, Velocity: 39
Note OFF: Time 497280, Note Name: C#4
Note ON: Time 497280, Note Name: G#3, Velocity: 37
Note OFF: Time 497400, Note Name: G#3
Note ON: Time 497400, Note Name: F3, Velocity: 35
Note OFF: Time 497520, Note Name: F3
Note ON: Time 497520, Note Name: G#2, Velocity: 38
Note OFF: Time 497640, Note Name: G#2
Note ON: Time 497640, Note Name: F3, Velocity: 37
Note OFF: Time 497760, Note Name: F3
Note ON: Time 497760, Note Name: G#3, Velocity: 39
Note OFF: Time 497880, Note Name: G#3
Note ON: Time 497880, Note Name: D4, Velocity: 41
Note OFF: Time 498000, Note Name: D4
Note ON: Time 498000, Note Name: G#3, Velocity: 39
Note OFF: Time 498120, Note Name: G#3
Note ON: Time 498120, Note Name: F3, Velocity: 36
Note OFF: Time 498240, Note Name: F3
Note ON: Time 498240, Note Name: G#2, Velocity: 40
Note OFF: Time 498360, Note Name: G#2
Note ON: Time 498360, Note Name: F3, Velocity: 39
Note OFF: Time 498480, Note Name: F3
Note ON: Time 498480, Note Name: G#3, Velocity: 43
Note OFF: Time 498600, Note Name: G#3
Note ON: Time 498600, Note Name: D4, Velocity: 48
Note OFF: Time 498720, Note Name: D4
Note ON: Time 498720, Note Name: G#3, Velocity: 45
Note OFF: Time 498840, Note Name: G#3
Note ON: Time 498840, Note Name: F3, Velocity: 41
Note OFF: Time 498960, Note Name: F3
Note ON: Time 498960, Note Name: G#2, Velocity: 40
Note OFF: Time 499080, Note Name: G#2
Note ON: Time 499080, Note Name: F3, Velocity: 40
Note OFF: Time 499200, Note Name: F3
Note ON: Time 499200, Note Name: G#3, Velocity: 43
Note OFF: Time 499320, Note Name: G#3
Note ON: Time 499320, Note Name: D4, Velocity: 45
Note OFF: Time 499440, Note Name: D4
Note ON: Time 499440, Note Name: G#3, Velocity: 42
Note OFF: Time 499560, Note Name: G#3
Note ON: Time 499560, Note Name: F3, Velocity: 36
Note OFF: Time 499680, Note Name: F3
Note ON: Time 499680, Note Name: G#2, Velocity: 52
Note OFF: Time 499800, Note Name: G#2
Note ON: Time 499800, Note Name: F3, Velocity: 40
Note OFF: Time 499920, Note Name: F3
Note ON: Time 499920, Note Name: G#3, Velocity: 43
Note OFF: Time 500040, Note Name: G#3
Note ON: Time 500040, Note Name: D4, Velocity: 47
Note OFF: Time 500160, Note Name: D4
Note ON: Time 500160, Note Name: G#3, Velocity: 44
Note OFF: Time 500280, Note Name: G#3
Note ON: Time 500280, Note Name: F3, Velocity: 40
Note OFF: Time 500400, Note Name: F3
Note ON: Time 500400, Note Name: G#2, Velocity: 54
Note OFF: Time 500520, Note Name: G#2
Note ON: Time 500520, Note Name: D#3, Velocity: 43
Note OFF: Time 500640, Note Name: D#3
Note ON: Time 500640, Note Name: F#3, Velocity: 47
Note OFF: Time 500760, Note Name: F#3
Note ON: Time 500760, Note Name: D#4, Velocity: 50
Note OFF: Time 500880, Note Name: D#4
Note ON: Time 500880, Note Name: F#3, Velocity: 46
Note OFF: Time 501000, Note Name: F#3
Note ON: Time 501000, Note Name: D#3, Velocity: 43
Note OFF: Time 501120, Note Name: D#3
Note ON: Time 501120, Note Name: G#2, Velocity: 56
Note OFF: Time 501240, Note Name: G#2
Note ON: Time 501240, Note Name: E3, Velocity: 47
Note OFF: Time 501360, Note Name: E3
Note ON: Time 501360, Note Name: G3, Velocity: 49
Note OFF: Time 501480, Note Name: G3
Note ON: Time 501480, Note Name: E4, Velocity: 51
Note OFF: Time 501600, Note Name: E4
Note ON: Time 501600, Note Name: G3, Velocity: 49
Note OFF: Time 501720, Note Name: G3
Note ON: Time 501720, Note Name: E3, Velocity: 47
Note OFF: Time 501840, Note Name: E3
Note ON: Time 501840, Note Name: G#2, Velocity: 57
Note OFF: Time 501960, Note Name: G#2
Note ON: Time 501960, Note Name: E3, Velocity: 48
Note OFF: Time 502080, Note Name: E3
Note ON: Time 502080, Note Name: G3, Velocity: 51
Note OFF: Time 502200, Note Name: G3
Note ON: Time 502200, Note Name: E4, Velocity: 53
Note OFF: Time 502320, Note Name: E4
Note ON: Time 502320, Note Name: G3, Velocity: 51
Note OFF: Time 502440, Note Name: G3
Note ON: Time 502440, Note Name: E3, Velocity: 49
Note OFF: Time 502560, Note Name: E3
Note ON: Time 502560, Note Name: G#2, Velocity: 61
Note OFF: Time 502680, Note Name: G#2
Note ON: Time 502680, Note Name: E3, Velocity: 51
Note OFF: Time 502800, Note Name: E3
Note ON: Time 502800, Note Name: G3, Velocity: 54
Note OFF: Time 502920, Note Name: G3
Note ON: Time 502920, Note Name: E4, Velocity: 56
Note OFF: Time 503040, Note Name: E4
Note ON: Time 503040, Note Name: G3, Velocity: 54
Note OFF: Time 503160, Note Name: G3
Note ON: Time 503160, Note Name: E3, Velocity: 51
Note OFF: Time 503280, Note Name: E3
Note ON: Time 503280, Note Name: G#2, Velocity: 64
Note OFF: Time 503400, Note Name: G#2
Note ON: Time 503400, Note Name: F3, Velocity: 54
Note OFF: Time 503520, Note Name: F3
Note ON: Time 503520, Note Name: G#3, Velocity: 56
Note OFF: Time 503640, Note Name: G#3
Note ON: Time 503640, Note Name: F4, Velocity: 59
Note OFF: Time 503760, Note Name: F4
Note ON: Time 503760, Note Name: G#3, Velocity: 55
Note OFF: Time 503880, Note Name: G#3
Note ON: Time 503880, Note Name: F3, Velocity: 52
Note OFF: Time 504000, Note Name: F3
Note ON: Time 504000, Note Name: G#2, Velocity: 67
Note OFF: Time 504120, Note Name: G#2
Note ON: Time 504120, Note Name: D#3, Velocity: 55
Note OFF: Time 504240, Note Name: D#3
Note ON: Time 504240, Note Name: F#3, Velocity: 57
Note OFF: Time 504360, Note Name: F#3
Note ON: Time 504360, Note Name: C4, Velocity: 60
Note OFF: Time 504480, Note Name: C4
Note ON: Time 504480, Note Name: F#3, Velocity: 58
Note OFF: Time 504600, Note Name: F#3
Note ON: Time 504600, Note Name: D#3, Velocity: 55
Note OFF: Time 504720, Note Name: D#3
Note ON: Time 504720, Note Name: G#2, Velocity: 68
Note OFF: Time 504840, Note Name: G#2
Note ON: Time 504840, Note Name: B2, Velocity: 57
Note OFF: Time 504960, Note Name: B2
Note ON: Time 504960, Note Name: F3, Velocity: 59
Note OFF: Time 505080, Note Name: F3
Note ON: Time 505080, Note Name: B3, Velocity: 60
Note OFF: Time 505200, Note Name: B3
Note ON: Time 505200, Note Name: F3, Velocity: 59
Note OFF: Time 505320, Note Name: F3
Note ON: Time 505320, Note Name: B2, Velocity: 57
Note OFF: Time 505440, Note Name: B2
Note ON: Time 505440, Note Name: G#2, Velocity: 68
Note OFF: Time 505560, Note Name: G#2
Note ON: Time 505560, Note Name: F3, Velocity: 56
Note OFF: Time 505680, Note Name: F3
Note ON: Time 505680, Note Name: G#3, Velocity: 60
Note OFF: Time 505800, Note Name: G#3
Note ON: Time 505800, Note Name: D4, Velocity: 62
Note OFF: Time 505920, Note Name: D4
Note ON: Time 505920, Note Name: G#3, Velocity: 60
Note OFF: Time 506040, Note Name: G#3
Note ON: Time 506040, Note Name: F3, Velocity: 57
Note OFF: Time 506160, Note Name: F3
Note ON: Time 506160, Note Name: G#2, Velocity: 70
Note OFF: Time 506280, Note Name: G#2
Note ON: Time 506280, Note Name: C#3, Velocity: 59
Note OFF: Time 506400, Note Name: C#3
Note ON: Time 506400, Note Name: G3, Velocity: 62
Note OFF: Time 506520, Note Name: G3
Note ON: Time 506520, Note Name: C#4, Velocity: 65
Note OFF: Time 506640, Note Name: C#4
Note ON: Time 506640, Note Name: G3, Velocity: 62
Note OFF: Time 506760, Note Name: G3
Note ON: Time 506760, Note Name: C#3, Velocity: 59
Note OFF: Time 506880, Note Name: C#3
Note ON: Time 506880, Note Name: G#2, Velocity: 72
Note OFF: Time 507000, Note Name: G#2
Note ON: Time 507000, Note Name: E3, Velocity: 59
Note OFF: Time 507120, Note Name: E3
Note ON: Time 507120, Note Name: A#3, Velocity: 64
Note OFF: Time 507240, Note Name: A#3
Note ON: Time 507240, Note Name: E4, Velocity: 66
Note OFF: Time 507360, Note Name: E4
Note ON: Time 507360, Note Name: A#3, Velocity: 62
Note OFF: Time 507480, Note Name: A#3
Note ON: Time 507480, Note Name: E3, Velocity: 59
Note OFF: Time 507600, Note Name: E3
Note ON: Time 507600, Note Name: G#2, Velocity: 72
Note OFF: Time 507720, Note Name: G#2
Note ON: Time 507720, Note Name: D#3, Velocity: 58
Note OFF: Time 507840, Note Name: D#3
Note ON: Time 507840, Note Name: F#3, Velocity: 63
Note OFF: Time 507960, Note Name: F#3
Note ON: Time 507960, Note Name: D#4, Velocity: 68
Note OFF: Time 508080, Note Name: D#4
Note ON: Time 508080, Note Name: F#3, Velocity: 65
Note OFF: Time 508200, Note Name: F#3
Note ON: Time 508200, Note Name: D#3, Velocity: 62
Note OFF: Time 508320, Note Name: D#3
Note ON: Time 508320, Note Name: G#2, Velocity: 72
Note OFF: Time 508440, Note Name: G#2
Note ON: Time 508440, Note Name: D#3, Velocity: 60
Note OFF: Time 508560, Note Name: D#3
Note ON: Time 508560, Note Name: F#3, Velocity: 64
Note OFF: Time 508680, Note Name: F#3
Note ON: Time 508680, Note Name: C4, Velocity: 69
Note OFF: Time 508800, Note Name: C4
Note ON: Time 508800, Note Name: F#3, Velocity: 65
Note OFF: Time 508920, Note Name: F#3
Note ON: Time 508920, Note Name: D#3, Velocity: 63
Note OFF: Time 509040, Note Name: D#3
Note ON: Time 509040, Note Name: C#2, Velocity: 78
Note OFF: Time 509220, Note Name: C#2
Note ON: Time 509524, Note Name: G#2, Velocity: 68
Note ON: Time 509640, Note Name: D#3, Velocity: 68
Note OFF: Time 509644, Note Name: G#2
Note OFF: Time 509760, Note Name: D#3
Note ON: Time 509760, Note Name: C#4, Velocity: 83
Note OFF: Time 510000, Note Name: C#4
Note ON: Time 510480, Note Name: G#1, Velocity: 87
Note OFF: Time 510600, Note Name: G#1
Note ON: Time 510960, Note Name: G#2, Velocity: 68
Note OFF: Time 511080, Note Name: G#2
Note ON: Time 511080, Note Name: D#3, Velocity: 74
Note OFF: Time 511200, Note Name: D#3
Note ON: Time 511200, Note Name: C4, Velocity: 84
Note OFF: Time 511440, Note Name: C4
Note ON: Time 511920, Note Name: C#2, Velocity: 87
Note OFF: Time 512040, Note Name: C#2
Note ON: Time 512400, Note Name: G#2, Velocity: 70
Note OFF: Time 512520, Note Name: G#2
Note ON: Time 512520, Note Name: F3, Velocity: 75
Note OFF: Time 512640, Note Name: F3
Note ON: Time 512640, Note Name: C#4, Velocity: 83
Note OFF: Time 512880, Note Name: C#4
Note ON: Time 513360, Note Name: G#1, Velocity: 87
Note OFF: Time 513480, Note Name: G#1
Note ON: Time 513840, Note Name: G#2, Velocity: 68
Note OFF: Time 513960, Note Name: G#2
Note ON: Time 513960, Note Name: D#3, Velocity: 74
Note OFF: Time 514080, Note Name: D#3
Note ON: Time 514080, Note Name: C4, Velocity: 84
Note OFF: Time 514320, Note Name: C4
Note ON: Time 514800, Note Name: A1, Velocity: 97
Note ON: Time 514800, Note Name: A2, Velocity: 97
Note OFF: Time 514920, Note Name: A2
Note OFF: Time 514920, Note Name: A1
Note ON: Time 515040, Note Name: D#2, Velocity: 82
Note ON: Time 515040, Note Name: D#3, Velocity: 82
Note OFF: Time 515280, Note Name: D#3
Note OFF: Time 515280, Note Name: D#2
Note ON: Time 515280, Note Name: E2, Velocity: 90
Note ON: Time 515280, Note Name: E3, Velocity: 90
Note OFF: Time 515520, Note Name: E3
Note OFF: Time 515520, Note Name: E2
Note ON: Time 515520, Note Name: E2, Velocity: 90
Note ON: Time 515520, Note Name: E3, Velocity: 90
Note OFF: Time 516240, Note Name: E3
Note OFF: Time 516240, Note Name: E2
Note ON: Time 516480, Note Name: D#2, Velocity: 77
Note OFF: Time 516720, Note Name: D#2
Note ON: Time 516720, Note Name: E2, Velocity: 77
Note OFF: Time 516960, Note Name: E2
Note ON: Time 516960, Note Name: A1, Velocity: 81
Note ON: Time 516960, Note Name: F2, Velocity: 81
Note OFF: Time 517440, Note Name: F2
Note OFF: Time 517440, Note Name: A1
Note ON: Time 517440, Note Name: E2, Velocity: 75
Note ON: Time 517440, Note Name: A1, Velocity: 75
Note OFF: Time 517680, Note Name: A1
Note OFF: Time 517680, Note Name: E2
Note ON: Time 517680, Note Name: A1, Velocity: 97
Note ON: Time 517680, Note Name: A2, Velocity: 97
Note OFF: Time 517800, Note Name: A2
Note OFF: Time 517800, Note Name: A1
Note ON: Time 517920, Note Name: D#2, Velocity: 82
Note ON: Time 517920, Note Name: D#3, Velocity: 82
Note OFF: Time 518160, Note Name: D#3
Note OFF: Time 518160, Note Name: D#2
Note ON: Time 518160, Note Name: E2, Velocity: 90
Note ON: Time 518160, Note Name: E3, Velocity: 90
Note OFF: Time 518400, Note Name: E3
Note OFF: Time 518400, Note Name: E2
Note ON: Time 518400, Note Name: E2, Velocity: 90
Note ON: Time 518400, Note Name: E3, Velocity: 90
Note OFF: Time 519120, Note Name: E3
Note OFF: Time 519120, Note Name: E2
Note ON: Time 519360, Note Name: D#2, Velocity: 77
Note OFF: Time 519600, Note Name: D#2
Note ON: Time 519600, Note Name: E2, Velocity: 77
Note OFF: Time 519840, Note Name: E2
Note ON: Time 519840, Note Name: A1, Velocity: 81
Note ON: Time 519840, Note Name: F2, Velocity: 81
Note OFF: Time 520320, Note Name: F2
Note OFF: Time 520320, Note Name: A1
Note ON: Time 520320, Note Name: E2, Velocity: 75
Note ON: Time 520320, Note Name: A1, Velocity: 75
Note OFF: Time 520560, Note Name: A1
Note OFF: Time 520560, Note Name: E2
Note ON: Time 520560, Note Name: A1, Velocity: 87
Note ON: Time 520560, Note Name: F2, Velocity: 87
Note OFF: Time 520740, Note Name: F2
Note OFF: Time 520740, Note Name: A1
Note ON: Time 521040, Note Name: A1, Velocity: 38
Note ON: Time 521040, Note Name: A2, Velocity: 38
Note OFF: Time 521280, Note Name: A2
Note OFF: Time 521280, Note Name: A1
Note ON: Time 521280, Note Name: F2, Velocity: 42
Note ON: Time 521280, Note Name: F3, Velocity: 42
Note OFF: Time 521520, Note Name: F3
Note OFF: Time 521520, Note Name: F2
Note ON: Time 521760, Note Name: A1, Velocity: 39
Note ON: Time 521760, Note Name: A2, Velocity: 39
Note OFF: Time 522000, Note Name: A2
Note OFF: Time 522000, Note Name: A1
Note ON: Time 522000, Note Name: F2, Velocity: 43
Note ON: Time 522000, Note Name: F3, Velocity: 43
Note OFF: Time 522240, Note Name: F3
Note OFF: Time 522240, Note Name: F2
Note ON: Time 522480, Note Name: A#1, Velocity: 39
Note ON: Time 522480, Note Name: A#2, Velocity: 39
Note OFF: Time 522720, Note Name: A#2
Note OFF: Time 522720, Note Name: A#1
Note ON: Time 522720, Note Name: F2, Velocity: 43
Note ON: Time 522720, Note Name: F3, Velocity: 43
Note OFF: Time 522960, Note Name: F3
Note OFF: Time 522960, Note Name: F2
Note ON: Time 523200, Note Name: A#1, Velocity: 40
Note ON: Time 523200, Note Name: A#2, Velocity: 40
Note OFF: Time 523440, Note Name: A#2
Note OFF: Time 523440, Note Name: A#1
Note ON: Time 523440, Note Name: F2, Velocity: 44
Note ON: Time 523440, Note Name: F3, Velocity: 44
Note OFF: Time 523680, Note Name: F3
Note OFF: Time 523680, Note Name: F2
Note ON: Time 523920, Note Name: A#1, Velocity: 42
Note ON: Time 523920, Note Name: A#2, Velocity: 42
Note OFF: Time 524160, Note Name: A#2
Note OFF: Time 524160, Note Name: A#1
Note ON: Time 524160, Note Name: F#2, Velocity: 48
Note ON: Time 524160, Note Name: F#3, Velocity: 48
Note OFF: Time 524400, Note Name: F#3
Note OFF: Time 524400, Note Name: F#2
Note ON: Time 524640, Note Name: A#1, Velocity: 44
Note ON: Time 524640, Note Name: A#2, Velocity: 44
Note OFF: Time 524880, Note Name: A#2
Note OFF: Time 524880, Note Name: A#1
Note ON: Time 524880, Note Name: F#2, Velocity: 48
Note ON: Time 524880, Note Name: F#3, Velocity: 48
Note OFF: Time 525120, Note Name: F#3
Note OFF: Time 525120, Note Name: F#2
Note ON: Time 525360, Note Name: A1, Velocity: 46
Note ON: Time 525360, Note Name: A2, Velocity: 46
Note OFF: Time 525600, Note Name: A2
Note OFF: Time 525600, Note Name: A1
Note ON: Time 525600, Note Name: A2, Velocity: 51
Note ON: Time 525600, Note Name: A3, Velocity: 51
Note OFF: Time 525840, Note Name: A3
Note OFF: Time 525840, Note Name: A2
Note ON: Time 526080, Note Name: G#1, Velocity: 54
Note ON: Time 526080, Note Name: G#2, Velocity: 54
Note OFF: Time 526320, Note Name: G#2
Note OFF: Time 526320, Note Name: G#1
Note ON: Time 526320, Note Name: F4, Velocity: 65
Note ON: Time 526320, Note Name: C#4, Velocity: 65
Note ON: Time 526320, Note Name: G#3, Velocity: 65
Note ON: Time 526320, Note Name: F3, Velocity: 65
Note OFF: Time 526560, Note Name: F3
Note OFF: Time 526560, Note Name: F4
Note OFF: Time 526560, Note Name: C#4
Note OFF: Time 526560, Note Name: G#3
Note ON: Time 526800, Note Name: C3, Velocity: 58
Note OFF: Time 526880, Note Name: C3
Note ON: Time 526880, Note Name: C#3, Velocity: 60
Note OFF: Time 526960, Note Name: C#3
Note ON: Time 526960, Note Name: F3, Velocity: 61
Note OFF: Time 527040, Note Name: F3
Note ON: Time 527040, Note Name: G#3, Velocity: 63
Note OFF: Time 527280, Note Name: G#3
Note ON: Time 527520, Note Name: B2, Velocity: 58
Note OFF: Time 527600, Note Name: B2
Note ON: Time 527600, Note Name: C3, Velocity: 60
Note OFF: Time 527680, Note Name: C3
Note ON: Time 527680, Note Name: F3, Velocity: 62
Note OFF: Time 527760, Note Name: F3
Note ON: Time 527760, Note Name: G#3, Velocity: 64
Note OFF: Time 528000, Note Name: G#3
Note ON: Time 528240, Note Name: A2, Velocity: 57
Note OFF: Time 528320, Note Name: A2
Note ON: Time 528320, Note Name: A#2, Velocity: 58
Note OFF: Time 528400, Note Name: A#2
Note ON: Time 528400, Note Name: F3, Velocity: 61
Note OFF: Time 528480, Note Name: F3
Note ON: Time 528480, Note Name: G#3, Velocity: 63
Note OFF: Time 528720, Note Name: G#3
Note ON: Time 529200, Note Name: G#1, Velocity: 81
Note ON: Time 529200, Note Name: G#2, Velocity: 81
Note OFF: Time 529440, Note Name: G#2
Note OFF: Time 529440, Note Name: G#1
Note ON: Time 529920, Note Name: F#4, Velocity: 85
Note ON: Time 529920, Note Name: C5, Velocity: 85
Note ON: Time 529920, Note Name: F5, Velocity: 85
Note OFF: Time 530880, Note Name: F5
Note OFF: Time 530880, Note Name: C5
Note OFF: Time 530880, Note Name: F#4
Note ON: Time 530880, Note Name: F#4, Velocity: 65
Note ON: Time 530880, Note Name: C5, Velocity: 65
Note ON: Time 530880, Note Name: D#5, Velocity: 65
Note OFF: Time 531120, Note Name: D#5
Note OFF: Time 531120, Note Name: C5
Note OFF: Time 531120, Note Name: F#4
Note ON: Time 531120, Note Name: F#4, Velocity: 65
Note ON: Time 531120, Note Name: C5, Velocity: 65
Note ON: Time 531120, Note Name: F5, Velocity: 65
Note OFF: Time 531360, Note Name: F5
Note OFF: Time 531360, Note Name: C5
Note OFF: Time 531360, Note Name: F#4
Note ON: Time 531360, Note Name: F#4, Velocity: 63
Note ON: Time 531360, Note Name: C5, Velocity: 63
Note ON: Time 531360, Note Name: D#5, Velocity: 63
Note OFF: Time 531600, Note Name: D#5
Note OFF: Time 531600, Note Name: C5
Note OFF: Time 531600, Note Name: F#4
Note ON: Time 531600, Note Name: F#4, Velocity: 67
Note ON: Time 531600, Note Name: C5, Velocity: 67
Note ON: Time 531600, Note Name: F5, Velocity: 67
Note OFF: Time 531840, Note Name: F5
Note OFF: Time 531840, Note Name: C5
Note OFF: Time 531840, Note Name: F#4
Note ON: Time 531840, Note Name: D#5, Velocity: 66
Note ON: Time 531840, Note Name: C5, Velocity: 66
Note ON: Time 531840, Note Name: F#4, Velocity: 66
Note OFF: Time 532080, Note Name: F#4
Note OFF: Time 532080, Note Name: C5
Note OFF: Time 532080, Note Name: D#5
Note ON: Time 532080, Note Name: F4, Velocity: 76
Note ON: Time 532080, Note Name: G#4, Velocity: 76
Note ON: Time 532080, Note Name: C#5, Velocity: 76
Note ON: Time 532080, Note Name: F5, Velocity: 76
Note OFF: Time 532260, Note Name: F5
Note OFF: Time 532260, Note Name: F4
Note OFF: Time 532260, Note Name: G#4
Note OFF: Time 532260, Note Name: C#5
Note ON: Time 532560, Note Name: C3, Velocity: 58
Note OFF: Time 532640, Note Name: C3
Note ON: Time 532640, Note Name: C#3, Velocity: 60
Note OFF: Time 532720, Note Name: C#3
Note ON: Time 532720, Note Name: F3, Velocity: 61
Note OFF: Time 532800, Note Name: F3
Note ON: Time 532800, Note Name: G#3, Velocity: 63
Note OFF: Time 533040, Note Name: G#3
Note ON: Time 533280, Note Name: B2, Velocity: 58
Note OFF: Time 533360, Note Name: B2
Note ON: Time 533360, Note Name: C3, Velocity: 60
Note OFF: Time 533440, Note Name: C3
Note ON: Time 533440, Note Name: F3, Velocity: 62
Note OFF: Time 533520, Note Name: F3
Note ON: Time 533520, Note Name: G#3, Velocity: 64
Note OFF: Time 533760, Note Name: G#3
Note ON: Time 534000, Note Name: A2, Velocity: 57
Note OFF: Time 534080, Note Name: A2
Note ON: Time 534080, Note Name: A#2, Velocity: 58
Note OFF: Time 534160, Note Name: A#2
Note ON: Time 534160, Note Name: F3, Velocity: 61
Note OFF: Time 534240, Note Name: F3
Note ON: Time 534240, Note Name: G#3, Velocity: 63
Note OFF: Time 534480, Note Name: G#3
Note ON: Time 534960, Note Name: G#1, Velocity: 81
Note ON: Time 534960, Note Name: G#2, Velocity: 81
Note OFF: Time 535200, Note Name: G#2
Note OFF: Time 535200, Note Name: G#1
Note ON: Time 535680, Note Name: F#4, Velocity: 85
Note ON: Time 535680, Note Name: C5, Velocity: 85
Note ON: Time 535680, Note Name: F5, Velocity: 85
Note OFF: Time 536640, Note Name: F5
Note OFF: Time 536640, Note Name: C5
Note OFF: Time 536640, Note Name: F#4
Note ON: Time 536640, Note Name: F#4, Velocity: 70
Note ON: Time 536640, Note Name: C5, Velocity: 70
Note ON: Time 536640, Note Name: D#5, Velocity: 70
Note OFF: Time 536880, Note Name: D#5
Note OFF: Time 536880, Note Name: C5
Note OFF: Time 536880, Note Name: F#4
Note ON: Time 536880, Note Name: F#4, Velocity: 68
Note ON: Time 536880, Note Name: C5, Velocity: 68
Note ON: Time 536880, Note Name: F5, Velocity: 68
Note OFF: Time 537120, Note Name: F5
Note OFF: Time 537120, Note Name: C5
Note OFF: Time 537120, Note Name: F#4
Note ON: Time 537120, Note Name: F#4, Velocity: 66
Note ON: Time 537120, Note Name: C5, Velocity: 66
Note ON: Time 537120, Note Name: D#5, Velocity: 66
Note OFF: Time 537360, Note Name: D#5
Note OFF: Time 537360, Note Name: C5
Note OFF: Time 537360, Note Name: F#4
Note ON: Time 537360, Note Name: F#4, Velocity: 64
Note ON: Time 537360, Note Name: C5, Velocity: 64
Note ON: Time 537360, Note Name: F5, Velocity: 64
Note OFF: Time 537600, Note Name: F5
Note OFF: Time 537600, Note Name: C5
Note OFF: Time 537600, Note Name: F#4
Note ON: Time 537600, Note Name: D#5, Velocity: 61
Note ON: Time 537600, Note Name: C5, Velocity: 61
Note ON: Time 537600, Note Name: F#4, Velocity: 61
Note OFF: Time 537840, Note Name: F#4
Note OFF: Time 537840, Note Name: C5
Note OFF: Time 537840, Note Name: D#5
Note ON: Time 537840, Note Name: F5, Velocity: 59
Note ON: Time 537840, Note Name: F#4, Velocity: 59
Note ON: Time 537840, Note Name: C5, Velocity: 59
Note OFF: Time 538320, Note Name: F5
Note ON: Time 538320, Note Name: D#5, Velocity: 56
Note OFF: Time 538560, Note Name: D#5
Note OFF: Time 538560, Note Name: C5
Note OFF: Time 538560, Note Name: F#4
Note ON: Time 538560, Note Name: F5, Velocity: 55
Note ON: Time 538560, Note Name: F#4, Velocity: 55
Note ON: Time 538560, Note Name: C5, Velocity: 55
Note OFF: Time 539040, Note Name: F5
Note ON: Time 539040, Note Name: D#5, Velocity: 58
Note OFF: Time 539280, Note Name: D#5
Note OFF: Time 539280, Note Name: C5
Note OFF: Time 539280, Note Name: F#4
Note ON: Time 539280, Note Name: F5, Velocity: 60
Note ON: Time 539280, Note Name: F#4, Velocity: 60
Note ON: Time 539280, Note Name: C5, Velocity: 60
Note OFF: Time 539760, Note Name: F5
Note ON: Time 539760, Note Name: D#5, Velocity: 57
Note OFF: Time 540000, Note Name: D#5
Note OFF: Time 540000, Note Name: C5
Note OFF: Time 540000, Note Name: F#4
Note ON: Time 540000, Note Name: F#5, Velocity: 61
Note ON: Time 540000, Note Name: G4, Velocity: 61
Note ON: Time 540000, Note Name: C#5, Velocity: 61
Note OFF: Time 540480, Note Name: F#5
Note ON: Time 540480, Note Name: E5, Velocity: 63
Note OFF: Time 540720, Note Name: E5
Note OFF: Time 540720, Note Name: C#5
Note OFF: Time 540720, Note Name: G4
Note ON: Time 540720, Note Name: F#5, Velocity: 67
Note ON: Time 540720, Note Name: G4, Velocity: 67
Note ON: Time 540720, Note Name: C#5, Velocity: 67
Note OFF: Time 541200, Note Name: F#5
Note ON: Time 541200, Note Name: E5, Velocity: 69
Note OFF: Time 541440, Note Name: E5
Note OFF: Time 541440, Note Name: C#5
Note OFF: Time 541440, Note Name: G4
Note ON: Time 541440, Note Name: G5, Velocity: 72
Note ON: Time 541440, Note Name: G#4, Velocity: 72
Note ON: Time 541440, Note Name: D5, Velocity: 72
Note OFF: Time 541920, Note Name: G5
Note ON: Time 541920, Note Name: F5, Velocity: 74
Note OFF: Time 542160, Note Name: F5
Note OFF: Time 542160, Note Name: D5
Note OFF: Time 542160, Note Name: G#4
Note ON: Time 542160, Note Name: G5, Velocity: 75
Note ON: Time 542160, Note Name: G#4, Velocity: 75
Note ON: Time 542160, Note Name: D5, Velocity: 75
Note OFF: Time 542640, Note Name: G5
Note ON: Time 542640, Note Name: F5, Velocity: 79
Note OFF: Time 542880, Note Name: F5
Note OFF: Time 542880, Note Name: D5
Note OFF: Time 542880, Note Name: G#4
Note ON: Time 542880, Note Name: G#5, Velocity: 83
Note ON: Time 542880, Note Name: G#4, Velocity: 83
Note ON: Time 542880, Note Name: D#5, Velocity: 83
Note OFF: Time 543360, Note Name: G#5
Note ON: Time 543360, Note Name: F#5, Velocity: 86
Note OFF: Time 543600, Note Name: F#5
Note OFF: Time 543600, Note Name: D#5
Note OFF: Time 543600, Note Name: G#4
Note ON: Time 543600, Note Name: C#2, Velocity: 90
Note ON: Time 543600, Note Name: C#3, Velocity: 90
Note OFF: Time 543840, Note Name: C#3
Note OFF: Time 543840, Note Name: C#2
Note ON: Time 543840, Note Name: G2, Velocity: 74
Note OFF: Time 544080, Note Name: G2
Note ON: Time 544080, Note Name: G#2, Velocity: 74
Note OFF: Time 544320, Note Name: G#2
Note ON: Time 544320, Note Name: G#2, Velocity: 79
Note OFF: Time 544560, Note Name: G#2
Note ON: Time 544560, Note Name: F#2, Velocity: 62
Note ON: Time 544560, Note Name: F#3, Velocity: 62
Note OFF: Time 544800, Note Name: F#3
Note OFF: Time 544800, Note Name: F#2
Note ON: Time 544800, Note Name: F2, Velocity: 58
Note ON: Time 544800, Note Name: F3, Velocity: 58
Note OFF: Time 545040, Note Name: F3
Note OFF: Time 545040, Note Name: F2
Note ON: Time 545040, Note Name: F2, Velocity: 68
Note ON: Time 545040, Note Name: F3, Velocity: 68
Note OFF: Time 545160, Note Name: F3
Note OFF: Time 545160, Note Name: F2
Note ON: Time 545280, Note Name: G2, Velocity: 59
Note OFF: Time 545520, Note Name: G2
Note ON: Time 545520, Note Name: G#2, Velocity: 59
Note OFF: Time 545760, Note Name: G#2
Note ON: Time 545760, Note Name: A2, Velocity: 73
Note OFF: Time 546240, Note Name: A2
Note ON: Time 546240, Note Name: G#2, Velocity: 70
Note OFF: Time 546480, Note Name: G#2
Note ON: Time 546480, Note Name: C#2, Velocity: 90
Note ON: Time 546480, Note Name: C#3, Velocity: 90
Note OFF: Time 546720, Note Name: C#3
Note OFF: Time 546720, Note Name: C#2
Note ON: Time 546720, Note Name: G2, Velocity: 73
Note OFF: Time 546960, Note Name: G2
Note ON: Time 546960, Note Name: G#2, Velocity: 75
Note OFF: Time 547200, Note Name: G#2
Note ON: Time 547200, Note Name: G#2, Velocity: 77
Note OFF: Time 547440, Note Name: G#2
Note ON: Time 547440, Note Name: F#2, Velocity: 62
Note ON: Time 547440, Note Name: F#3, Velocity: 62
Note OFF: Time 547680, Note Name: F#3
Note OFF: Time 547680, Note Name: F#2
Note ON: Time 547680, Note Name: F2, Velocity: 58
Note ON: Time 547680, Note Name: F3, Velocity: 58
Note OFF: Time 547920, Note Name: F3
Note OFF: Time 547920, Note Name: F2
Note ON: Time 547920, Note Name: F2, Velocity: 68
Note ON: Time 547920, Note Name: F3, Velocity: 68
Note OFF: Time 548040, Note Name: F3
Note OFF: Time 548040, Note Name: F2
Note ON: Time 548160, Note Name: G2, Velocity: 59
Note OFF: Time 548400, Note Name: G2
Note ON: Time 548400, Note Name: G#2, Velocity: 59
Note OFF: Time 548640, Note Name: G#2
Note ON: Time 548640, Note Name: A2, Velocity: 73
Note OFF: Time 549120, Note Name: A2
Note ON: Time 549120, Note Name: G#2, Velocity: 70
Note OFF: Time 549360, Note Name: G#2
Note ON: Time 549360, Note Name: C#2, Velocity: 60
Note ON: Time 549360, Note Name: C#3, Velocity: 60
Note OFF: Time 549480, Note Name: C#3
Note OFF: Time 549480, Note Name: C#2
Note ON: Time 549600, Note Name: G2, Velocity: 68
Note OFF: Time 549840, Note Name: G2
Note ON: Time 549840, Note Name: G#2, Velocity: 68
Note OFF: Time 550080, Note Name: G#2
Note ON: Time 550320, Note Name: F#2, Velocity: 70
Note ON: Time 550320, Note Name: F#3, Velocity: 70
Note OFF: Time 550560, Note Name: F#3
Note OFF: Time 550560, Note Name: F#2
Note ON: Time 550560, Note Name: F2, Velocity: 70
Note ON: Time 550560, Note Name: F3, Velocity: 70
Note OFF: Time 550800, Note Name: F3
Note OFF: Time 550800, Note Name: F2
Note ON: Time 550800, Note Name: C#2, Velocity: 63
Note ON: Time 550800, Note Name: C#3, Velocity: 63
Note OFF: Time 550920, Note Name: C#3
Note OFF: Time 550920, Note Name: C#2
Note ON: Time 551040, Note Name: G2, Velocity: 69
Note OFF: Time 551280, Note Name: G2
Note ON: Time 551280, Note Name: G#2, Velocity: 69
Note OFF: Time 551520, Note Name: G#2
Note ON: Time 551760, Note Name: F#2, Velocity: 70
Note ON: Time 551760, Note Name: F#3, Velocity: 70
Note OFF: Time 552000, Note Name: F#3
Note OFF: Time 552000, Note Name: F#2
Note ON: Time 552000, Note Name: F2, Velocity: 70
Note ON: Time 552000, Note Name: F3, Velocity: 70
Note OFF: Time 552240, Note Name: F3
Note OFF: Time 552240, Note Name: F2
Note ON: Time 552240, Note Name: C#2, Velocity: 64
Note ON: Time 552240, Note Name: C#3, Velocity: 64
Note OFF: Time 552360, Note Name: C#3
Note OFF: Time 552360, Note Name: C#2
Note ON: Time 552480, Note Name: G2, Velocity: 69
Note OFF: Time 552720, Note Name: G2
Note ON: Time 552720, Note Name: G#2, Velocity: 69
Note OFF: Time 552960, Note Name: G#2
Note ON: Time 553200, Note Name: F#2, Velocity: 70
Note ON: Time 553200, Note Name: F#3, Velocity: 70
Note OFF: Time 553440, Note Name: F#3
Note OFF: Time 553440, Note Name: F#2
Note ON: Time 553440, Note Name: F2, Velocity: 70
Note ON: Time 553440, Note Name: F3, Velocity: 70
Note OFF: Time 553680, Note Name: F3
Note OFF: Time 553680, Note Name: F2
Note ON: Time 553680, Note Name: C#2, Velocity: 67
Note ON: Time 553680, Note Name: A2, Velocity: 67
Note OFF: Time 553860, Note Name: A2
Note OFF: Time 553860, Note Name: C#2
Note ON: Time 553920, Note Name: C#2, Velocity: 68
Note ON: Time 553920, Note Name: G#2, Velocity: 68
Note OFF: Time 554100, Note Name: G#2
Note OFF: Time 554100, Note Name: C#2
Note ON: Time 554160, Note Name: C#2, Velocity: 70
Note ON: Time 554160, Note Name: A2, Velocity: 70
Note OFF: Time 554340, Note Name: A2
Note OFF: Time 554340, Note Name: C#2
Note ON: Time 554400, Note Name: C#2, Velocity: 71
Note ON: Time 554400, Note Name: G#2, Velocity: 71
Note OFF: Time 554580, Note Name: G#2
Note OFF: Time 554580, Note Name: C#2
Note ON: Time 554640, Note Name: C#2, Velocity: 73
Note ON: Time 554640, Note Name: A2, Velocity: 73
Note OFF: Time 554820, Note Name: A2
Note OFF: Time 554820, Note Name: C#2
Note ON: Time 554880, Note Name: C#2, Velocity: 74
Note ON: Time 554880, Note Name: G#2, Velocity: 74
Note OFF: Time 555060, Note Name: G#2
Note OFF: Time 555060, Note Name: C#2
Note ON: Time 555120, Note Name: C2, Velocity: 84
Note ON: Time 555120, Note Name: A2, Velocity: 84
Note OFF: Time 555300, Note Name: A2
Note OFF: Time 555300, Note Name: C2
Note ON: Time 555840, Note Name: C2, Velocity: 85
Note ON: Time 555840, Note Name: G2, Velocity: 101
Note ON: Time 555840, Note Name: C3, Velocity: 101
Note OFF: Time 556080, Note Name: C3
Note OFF: Time 556080, Note Name: G2
Note OFF: Time 556080, Note Name: C2
Note ON: Time 556560, Note Name: F2, Velocity: 85
Note ON: Time 556560, Note Name: C3, Velocity: 101
Note ON: Time 556560, Note Name: F3, Velocity: 101
Note OFF: Time 556800, Note Name: F3
Note OFF: Time 556800, Note Name: C3
Note OFF: Time 556800, Note Name: F2
Note ON: Time 557280, Note Name: G#2, Velocity: 85
Note ON: Time 557280, Note Name: D#3, Velocity: 101
Note ON: Time 557280, Note Name: G#3, Velocity: 101
Note OFF: Time 557520, Note Name: G#3
Note OFF: Time 557520, Note Name: D#3
Note OFF: Time 557520, Note Name: G#2
Note ON: Time 558000, Note Name: C#3, Velocity: 85
Note ON: Time 558000, Note Name: G#3, Velocity: 101
Note ON: Time 558000, Note Name: C#4, Velocity: 101
Note OFF: Time 558720, Note Name: C#4
Note OFF: Time 558720, Note Name: G#3
Note OFF: Time 558720, Note Name: C#3
Note ON: Time 559440, Note Name: C#2, Velocity: 85
Note ON: Time 559440, Note Name: G#2, Velocity: 100
Note ON: Time 559440, Note Name: C#3, Velocity: 100
Note OFF: Time 560160, Note Name: C#3
Note OFF: Time 560160, Note Name: G#2
Note OFF: Time 560160, Note Name: C#2
Note ON: Time 560700, Note Name: C#3, Velocity: 69
Note ON: Time 560730, Note Name: G#3, Velocity: 82
Note ON: Time 560760, Note Name: F4, Velocity: 82
Note OFF: Time 560880, Note Name: F4
Note OFF: Time 560880, Note Name: G#3
Note OFF: Time 560880, Note Name: C#3
Note ON: Time 560880, Note Name: C#1, Velocity: 100
Note ON: Time 560880, Note Name: C#2, Velocity: 109
Note OFF: Time 561600, Note Name: C#2
Note OFF: Time 561600, Note Name: C#1
Track 3: Chopin: Scherzo in Bb-, Op. 31
Track 4: Copyright  1997 by Bernd Krger
Track 5: http://www.piano-midi.de
Track 6: Edition: 2014-02-24
