Processing chpn_op35_3.mid...

Track 0: Sonate opus 35, 3. Satz
Track 1: Piano right
Note ON: Time 0, Note Name: F3, Velocity: 34
Note ON: Time 0, Note Name: A#3, Velocity: 40
Note OFF: Time 480, Note Name: A#3
Note OFF: Time 480, Note Name: F3
Note ON: Time 480, Note Name: F#3, Velocity: 34
Note ON: Time 480, Note Name: A#3, Velocity: 40
Note OFF: Time 840, Note Name: A#3
Note ON: Time 840, Note Name: A#3, Velocity: 36
Note OFF: Time 960, Note Name: A#3
Note OFF: Time 960, Note Name: F#3
Note ON: Time 960, Note Name: F3, Velocity: 34
Note ON: Time 960, Note Name: A#3, Velocity: 40
Note OFF: Time 1440, Note Name: F3
Note ON: Time 1440, Note Name: F#3, Velocity: 28
Note OFF: Time 1920, Note Name: F#3
Note OFF: Time 1920, Note Name: A#3
Note ON: Time 1920, Note Name: F3, Velocity: 34
Note ON: Time 1920, Note Name: A#3, Velocity: 40
Note OFF: Time 2400, Note Name: A#3
Note OFF: Time 2400, Note Name: F3
Note ON: Time 2400, Note Name: F#3, Velocity: 34
Note ON: Time 2400, Note Name: A#3, Velocity: 40
Note OFF: Time 2760, Note Name: A#3
Note ON: Time 2760, Note Name: A#3, Velocity: 36
Note OFF: Time 2880, Note Name: A#3
Note OFF: Time 2880, Note Name: F#3
Note ON: Time 2880, Note Name: F3, Velocity: 34
Note ON: Time 2880, Note Name: A#3, Velocity: 40
Note OFF: Time 3360, Note Name: F3
Note ON: Time 3360, Note Name: F#3, Velocity: 28
Note OFF: Time 3840, Note Name: F#3
Note OFF: Time 3840, Note Name: A#3
Note ON: Time 3840, Note Name: F3, Velocity: 34
Note ON: Time 3840, Note Name: A#3, Velocity: 40
Note OFF: Time 4320, Note Name: A#3
Note OFF: Time 4320, Note Name: F3
Note ON: Time 4320, Note Name: F#3, Velocity: 34
Note ON: Time 4320, Note Name: A#3, Velocity: 40
Note OFF: Time 4680, Note Name: A#3
Note ON: Time 4680, Note Name: A#3, Velocity: 36
Note OFF: Time 4788, Note Name: A#3
Note OFF: Time 4800, Note Name: F#3
Note ON: Time 4800, Note Name: F3, Velocity: 34
Note ON: Time 4800, Note Name: A#3, Velocity: 40
Note OFF: Time 5280, Note Name: A#3
Note OFF: Time 5280, Note Name: F3
Note ON: Time 5280, Note Name: C#4, Velocity: 49
Note ON: Time 5280, Note Name: F#3, Velocity: 39
Note OFF: Time 5640, Note Name: C#4
Note ON: Time 5640, Note Name: C4, Velocity: 45
Note OFF: Time 5748, Note Name: C4
Note OFF: Time 5760, Note Name: F#3
Note ON: Time 5760, Note Name: C4, Velocity: 48
Note ON: Time 5760, Note Name: F3, Velocity: 39
Note OFF: Time 6120, Note Name: C4
Note ON: Time 6120, Note Name: A#3, Velocity: 42
Note OFF: Time 6228, Note Name: A#3
Note OFF: Time 6240, Note Name: F3
Note ON: Time 6240, Note Name: F#3, Velocity: 37
Note ON: Time 6240, Note Name: A#3, Velocity: 44
Note OFF: Time 6600, Note Name: A#3
Note ON: Time 6600, Note Name: A#3, Velocity: 36
Note OFF: Time 6708, Note Name: A#3
Note OFF: Time 6720, Note Name: F#3
Note ON: Time 6720, Note Name: F3, Velocity: 34
Note ON: Time 6720, Note Name: A#3, Velocity: 40
Note OFF: Time 7200, Note Name: F3
Note ON: Time 7200, Note Name: F#3, Velocity: 28
Note OFF: Time 7680, Note Name: F#3
Note OFF: Time 7680, Note Name: A#3
Note ON: Time 7680, Note Name: A#3, Velocity: 42
Note ON: Time 7680, Note Name: F3, Velocity: 42
Note ON: Time 7680, Note Name: C#4, Velocity: 50
Note OFF: Time 8160, Note Name: C#4
Note OFF: Time 8160, Note Name: F3
Note OFF: Time 8160, Note Name: A#3
Note ON: Time 8160, Note Name: A#3, Velocity: 42
Note ON: Time 8160, Note Name: F#3, Velocity: 42
Note ON: Time 8160, Note Name: C#4, Velocity: 50
Note OFF: Time 8520, Note Name: C#4
Note ON: Time 8520, Note Name: C#4, Velocity: 45
Note OFF: Time 8628, Note Name: C#4
Note OFF: Time 8640, Note Name: F#3
Note OFF: Time 8640, Note Name: A#3
Note ON: Time 8640, Note Name: A#3, Velocity: 42
Note ON: Time 8640, Note Name: F3, Velocity: 42
Note ON: Time 8640, Note Name: C#4, Velocity: 50
Note OFF: Time 9120, Note Name: C#4
Note OFF: Time 9120, Note Name: F3
Note OFF: Time 9120, Note Name: A#3
Note ON: Time 9120, Note Name: F4, Velocity: 59
Note ON: Time 9120, Note Name: C#4, Velocity: 52
Note ON: Time 9120, Note Name: F#3, Velocity: 48
Note OFF: Time 9480, Note Name: C#4
Note OFF: Time 9480, Note Name: F4
Note ON: Time 9480, Note Name: D#4, Velocity: 53
Note ON: Time 9480, Note Name: C4, Velocity: 47
Note OFF: Time 9540, Note Name: C4
Note OFF: Time 9540, Note Name: D#4
Note ON: Time 9540, Note Name: F4, Velocity: 48
Note OFF: Time 9600, Note Name: F4
Note OFF: Time 9600, Note Name: F#3
Note ON: Time 9600, Note Name: D#4, Velocity: 57
Note ON: Time 9600, Note Name: C4, Velocity: 51
Note ON: Time 9600, Note Name: F3, Velocity: 48
Note OFF: Time 9960, Note Name: C4
Note OFF: Time 9960, Note Name: D#4
Note ON: Time 9960, Note Name: C#4, Velocity: 50
Note ON: Time 9960, Note Name: A#3, Velocity: 45
Note OFF: Time 10068, Note Name: A#3
Note OFF: Time 10068, Note Name: C#4
Note OFF: Time 10080, Note Name: F3
Note ON: Time 10080, Note Name: C#4, Velocity: 55
Note ON: Time 10080, Note Name: F#3, Velocity: 46
Note ON: Time 10080, Note Name: A#3, Velocity: 48
Note OFF: Time 10440, Note Name: A#3
Note OFF: Time 10440, Note Name: C#4
Note ON: Time 10440, Note Name: C#4, Velocity: 45
Note ON: Time 10440, Note Name: A#3, Velocity: 39
Note OFF: Time 10548, Note Name: A#3
Note OFF: Time 10548, Note Name: C#4
Note OFF: Time 10560, Note Name: F#3
Note ON: Time 10560, Note Name: C#4, Velocity: 50
Note ON: Time 10560, Note Name: F3, Velocity: 42
Note ON: Time 10560, Note Name: A#3, Velocity: 45
Note OFF: Time 11040, Note Name: F3
Note ON: Time 11040, Note Name: F#3, Velocity: 35
Note OFF: Time 11520, Note Name: F#3
Note OFF: Time 11520, Note Name: A#3
Note OFF: Time 11520, Note Name: C#4
Note ON: Time 11520, Note Name: C#4, Velocity: 58
Note ON: Time 11520, Note Name: A#4, Velocity: 73
Note ON: Time 11520, Note Name: A#3, Velocity: 58
Note OFF: Time 11760, Note Name: A#4
Note ON: Time 11760, Note Name: G#4, Velocity: 66
Note OFF: Time 11940, Note Name: G#4
Note OFF: Time 11940, Note Name: A#3
Note OFF: Time 11940, Note Name: C#4
Note ON: Time 11940, Note Name: G#4, Velocity: 58
Note OFF: Time 12000, Note Name: G#4
Note ON: Time 12000, Note Name: C#4, Velocity: 55
Note ON: Time 12000, Note Name: F#4, Velocity: 61
Note ON: Time 12000, Note Name: A#3, Velocity: 55
Note OFF: Time 12360, Note Name: F#4
Note ON: Time 12360, Note Name: F4, Velocity: 53
Note OFF: Time 12468, Note Name: F4
Note OFF: Time 12480, Note Name: A#3
Note OFF: Time 12480, Note Name: C#4
Note ON: Time 12480, Note Name: A#3, Velocity: 50
Note ON: Time 12480, Note Name: F4, Velocity: 59
Note ON: Time 12480, Note Name: C#4, Velocity: 50
Note OFF: Time 12960, Note Name: C#4
Note OFF: Time 12960, Note Name: F4
Note OFF: Time 12960, Note Name: A#3
Note ON: Time 12960, Note Name: A#3, Velocity: 42
Note ON: Time 12960, Note Name: C#4, Velocity: 51
Note OFF: Time 13440, Note Name: C#4
Note OFF: Time 13440, Note Name: A#3
Note ON: Time 13440, Note Name: C#4, Velocity: 58
Note ON: Time 13440, Note Name: A#4, Velocity: 73
Note ON: Time 13440, Note Name: A#3, Velocity: 58
Note OFF: Time 13680, Note Name: A#4
Note ON: Time 13680, Note Name: G#4, Velocity: 65
Note OFF: Time 13860, Note Name: G#4
Note OFF: Time 13860, Note Name: A#3
Note OFF: Time 13860, Note Name: C#4
Note ON: Time 13860, Note Name: G#4, Velocity: 58
Note OFF: Time 13920, Note Name: G#4
Note ON: Time 13920, Note Name: C#4, Velocity: 55
Note ON: Time 13920, Note Name: F#4, Velocity: 61
Note ON: Time 13920, Note Name: A#3, Velocity: 55
Note OFF: Time 14280, Note Name: F#4
Note ON: Time 14280, Note Name: F4, Velocity: 54
Note OFF: Time 14388, Note Name: F4
Note OFF: Time 14400, Note Name: A#3
Note OFF: Time 14400, Note Name: C#4
Note ON: Time 14400, Note Name: A#3, Velocity: 50
Note ON: Time 14400, Note Name: F4, Velocity: 59
Note ON: Time 14400, Note Name: C#4, Velocity: 50
Note OFF: Time 14880, Note Name: C#4
Note OFF: Time 14880, Note Name: F4
Note OFF: Time 14880, Note Name: A#3
Note ON: Time 14880, Note Name: A#3, Velocity: 42
Note ON: Time 14880, Note Name: C#4, Velocity: 51
Note OFF: Time 15360, Note Name: C#4
Note OFF: Time 15360, Note Name: A#3
Note ON: Time 15360, Note Name: F3, Velocity: 39
Note ON: Time 15360, Note Name: A#3, Velocity: 46
Note OFF: Time 15840, Note Name: A#3
Note OFF: Time 15840, Note Name: F3
Note ON: Time 15840, Note Name: F#3, Velocity: 39
Note ON: Time 15840, Note Name: A#3, Velocity: 46
Note OFF: Time 16200, Note Name: A#3
Note ON: Time 16200, Note Name: A#3, Velocity: 41
Note OFF: Time 16308, Note Name: A#3
Note OFF: Time 16320, Note Name: F#3
Note ON: Time 16320, Note Name: A#3, Velocity: 46
Note ON: Time 16320, Note Name: F3, Velocity: 39
Note OFF: Time 16800, Note Name: F3
Note OFF: Time 16800, Note Name: A#3
Note ON: Time 16800, Note Name: C#4, Velocity: 54
Note ON: Time 16800, Note Name: F#3, Velocity: 44
Note OFF: Time 17160, Note Name: C#4
Note ON: Time 17160, Note Name: C4, Velocity: 49
Note OFF: Time 17220, Note Name: C4
Note ON: Time 17220, Note Name: C#4, Velocity: 45
Note OFF: Time 17280, Note Name: C#4
Note OFF: Time 17280, Note Name: F#3
Note ON: Time 17280, Note Name: C4, Velocity: 52
Note ON: Time 17280, Note Name: F3, Velocity: 44
Note OFF: Time 17640, Note Name: C4
Note ON: Time 17640, Note Name: A#3, Velocity: 46
Note OFF: Time 17748, Note Name: A#3
Note OFF: Time 17760, Note Name: F3
Note ON: Time 17760, Note Name: F#3, Velocity: 42
Note ON: Time 17760, Note Name: A#3, Velocity: 50
Note OFF: Time 18120, Note Name: A#3
Note ON: Time 18120, Note Name: A#3, Velocity: 41
Note OFF: Time 18228, Note Name: A#3
Note OFF: Time 18240, Note Name: F#3
Note ON: Time 18240, Note Name: F3, Velocity: 39
Note ON: Time 18240, Note Name: A#3, Velocity: 46
Note OFF: Time 18720, Note Name: F3
Note ON: Time 18720, Note Name: F#3, Velocity: 32
Note OFF: Time 19200, Note Name: F#3
Note OFF: Time 19200, Note Name: A#3
Note ON: Time 19200, Note Name: C#5, Velocity: 68
Note ON: Time 19200, Note Name: A#5, Velocity: 83
Note ON: Time 19200, Note Name: A#4, Velocity: 68
Note OFF: Time 19440, Note Name: A#4
Note OFF: Time 19440, Note Name: A#5
Note ON: Time 19440, Note Name: G#4, Velocity: 56
Note ON: Time 19440, Note Name: G#5, Velocity: 73
Note OFF: Time 19620, Note Name: G#5
Note OFF: Time 19620, Note Name: G#4
Note ON: Time 19620, Note Name: G#4, Velocity: 64
Note OFF: Time 19640, Note Name: G#4
Note ON: Time 19640, Note Name: C#5, Velocity: 57
Note OFF: Time 19660, Note Name: C#5
Note ON: Time 19660, Note Name: G#5, Velocity: 59
Note OFF: Time 19680, Note Name: G#5
Note ON: Time 19680, Note Name: C#5, Velocity: 74
Note ON: Time 19680, Note Name: F#5, Velocity: 73
Note ON: Time 19680, Note Name: F#4, Velocity: 61
Note OFF: Time 20040, Note Name: F#5
Note ON: Time 20040, Note Name: F4, Velocity: 52
Note ON: Time 20040, Note Name: F5, Velocity: 61
Note OFF: Time 20148, Note Name: F5
Note OFF: Time 20148, Note Name: F4
Note OFF: Time 20160, Note Name: F#4
Note OFF: Time 20160, Note Name: C#5
Note OFF: Time 20160, Note Name: C#5
Note ON: Time 20160, Note Name: F4, Velocity: 58
Note ON: Time 20160, Note Name: F5, Velocity: 69
Note ON: Time 20160, Note Name: C#5, Velocity: 69
Note OFF: Time 20640, Note Name: C#5
Note OFF: Time 20640, Note Name: F5
Note OFF: Time 20640, Note Name: F4
Note ON: Time 20640, Note Name: C#5, Velocity: 68
Note ON: Time 20640, Note Name: C#4, Velocity: 57
Note ON: Time 20640, Note Name: A#4, Velocity: 68
Note OFF: Time 21120, Note Name: A#4
Note OFF: Time 21120, Note Name: C#4
Note OFF: Time 21120, Note Name: C#5
Note ON: Time 21120, Note Name: C#5, Velocity: 68
Note ON: Time 21120, Note Name: A#5, Velocity: 83
Note ON: Time 21120, Note Name: A#4, Velocity: 68
Note OFF: Time 21360, Note Name: A#4
Note OFF: Time 21360, Note Name: A#5
Note ON: Time 21360, Note Name: G#4, Velocity: 56
Note ON: Time 21360, Note Name: G#5, Velocity: 73
Note OFF: Time 21540, Note Name: G#5
Note OFF: Time 21540, Note Name: G#4
Note ON: Time 21540, Note Name: G#4, Velocity: 66
Note OFF: Time 21560, Note Name: G#4
Note ON: Time 21560, Note Name: C#5, Velocity: 58
Note OFF: Time 21580, Note Name: C#5
Note ON: Time 21580, Note Name: G#5, Velocity: 58
Note OFF: Time 21600, Note Name: G#5
Note ON: Time 21600, Note Name: C#5, Velocity: 76
Note ON: Time 21600, Note Name: F#5, Velocity: 73
Note ON: Time 21600, Note Name: F#4, Velocity: 63
Note OFF: Time 21960, Note Name: F#5
Note ON: Time 21960, Note Name: F4, Velocity: 52
Note ON: Time 21960, Note Name: F5, Velocity: 61
Note OFF: Time 22068, Note Name: F5
Note OFF: Time 22068, Note Name: F4
Note OFF: Time 22080, Note Name: F#4
Note OFF: Time 22080, Note Name: C#5
Note OFF: Time 22080, Note Name: C#5
Note ON: Time 22080, Note Name: F4, Velocity: 58
Note ON: Time 22080, Note Name: F5, Velocity: 69
Note ON: Time 22080, Note Name: C#5, Velocity: 69
Note OFF: Time 22560, Note Name: C#5
Note OFF: Time 22560, Note Name: F5
Note OFF: Time 22560, Note Name: F4
Note ON: Time 22560, Note Name: C#5, Velocity: 68
Note ON: Time 22560, Note Name: C#4, Velocity: 57
Note ON: Time 22560, Note Name: A#4, Velocity: 68
Note OFF: Time 23040, Note Name: A#4
Note OFF: Time 23040, Note Name: C#4
Note OFF: Time 23040, Note Name: C#5
Note ON: Time 23040, Note Name: A#3, Velocity: 52
Note ON: Time 23040, Note Name: F4, Velocity: 52
Note ON: Time 23040, Note Name: A#4, Velocity: 61
Note OFF: Time 23520, Note Name: A#4
Note OFF: Time 23520, Note Name: F4
Note OFF: Time 23520, Note Name: A#3
Note ON: Time 23520, Note Name: A#3, Velocity: 53
Note ON: Time 23520, Note Name: F#4, Velocity: 53
Note ON: Time 23520, Note Name: A#4, Velocity: 63
Note OFF: Time 23880, Note Name: A#4
Note OFF: Time 23880, Note Name: A#3
Note ON: Time 23880, Note Name: A#3, Velocity: 48
Note ON: Time 23880, Note Name: A#4, Velocity: 57
Note OFF: Time 23988, Note Name: A#4
Note OFF: Time 23988, Note Name: A#3
Note OFF: Time 24000, Note Name: F#4
Note ON: Time 24000, Note Name: A#3, Velocity: 54
Note ON: Time 24000, Note Name: F4, Velocity: 54
Note ON: Time 24000, Note Name: A#4, Velocity: 65
Note OFF: Time 24480, Note Name: A#4
Note OFF: Time 24480, Note Name: F4
Note OFF: Time 24480, Note Name: A#3
Note ON: Time 24480, Note Name: C#4, Velocity: 68
Note ON: Time 24480, Note Name: C#5, Velocity: 82
Note ON: Time 24480, Note Name: F#4, Velocity: 66
Note OFF: Time 24840, Note Name: C#5
Note OFF: Time 24840, Note Name: C#4
Note ON: Time 24840, Note Name: C4, Velocity: 59
Note ON: Time 24840, Note Name: C5, Velocity: 71
Note OFF: Time 24960, Note Name: C5
Note OFF: Time 24960, Note Name: C4
Note OFF: Time 24960, Note Name: F#4
Note ON: Time 24960, Note Name: C4, Velocity: 68
Note ON: Time 24960, Note Name: C5, Velocity: 79
Note ON: Time 24960, Note Name: F4, Velocity: 68
Note OFF: Time 25320, Note Name: C5
Note OFF: Time 25320, Note Name: C4
Note ON: Time 25320, Note Name: A#3, Velocity: 59
Note ON: Time 25320, Note Name: A#4, Velocity: 71
Note OFF: Time 25428, Note Name: A#4
Note OFF: Time 25428, Note Name: A#3
Note OFF: Time 25440, Note Name: F4
Note ON: Time 25440, Note Name: A#3, Velocity: 64
Note ON: Time 25440, Note Name: F#4, Velocity: 64
Note ON: Time 25440, Note Name: A#4, Velocity: 77
Note OFF: Time 25800, Note Name: A#4
Note OFF: Time 25800, Note Name: A#3
Note ON: Time 25800, Note Name: A#3, Velocity: 60
Note ON: Time 25800, Note Name: A#4, Velocity: 72
Note OFF: Time 25908, Note Name: A#4
Note OFF: Time 25908, Note Name: A#3
Note OFF: Time 25920, Note Name: F#4
Note ON: Time 25920, Note Name: A#3, Velocity: 63
Note ON: Time 25920, Note Name: F4, Velocity: 64
Note ON: Time 25920, Note Name: A#4, Velocity: 76
Note OFF: Time 26400, Note Name: A#4
Note OFF: Time 26400, Note Name: F4
Note OFF: Time 26400, Note Name: A#3
Note ON: Time 26400, Note Name: G#4, Velocity: 75
Note ON: Time 26400, Note Name: C4, Velocity: 75
Note ON: Time 26400, Note Name: C5, Velocity: 95
Note ON: Time 26400, Note Name: F#4, Velocity: 75
Note OFF: Time 26880, Note Name: F#4
Note OFF: Time 26880, Note Name: G#4
Note OFF: Time 26880, Note Name: C4
Note OFF: Time 26880, Note Name: C5
Note ON: Time 26880, Note Name: C#4, Velocity: 78
Note ON: Time 26880, Note Name: F4, Velocity: 78
Note ON: Time 26880, Note Name: C#5, Velocity: 100
Note OFF: Time 27360, Note Name: C#5
Note OFF: Time 27360, Note Name: F4
Note OFF: Time 27360, Note Name: C#4
Note ON: Time 27360, Note Name: F4, Velocity: 74
Note ON: Time 27360, Note Name: C#5, Velocity: 74
Note ON: Time 27360, Note Name: F5, Velocity: 89
Note OFF: Time 27720, Note Name: F5
Note OFF: Time 27720, Note Name: C#5
Note OFF: Time 27720, Note Name: F4
Note ON: Time 27720, Note Name: F#4, Velocity: 74
Note ON: Time 27720, Note Name: F#5, Velocity: 89
Note OFF: Time 27840, Note Name: F#5
Note OFF: Time 27840, Note Name: F#4
Note ON: Time 27840, Note Name: G#4, Velocity: 78
Note ON: Time 27840, Note Name: G#5, Velocity: 93
Note ON: Time 27840, Note Name: C#5, Velocity: 78
Note OFF: Time 28200, Note Name: C#5
Note OFF: Time 28200, Note Name: G#5
Note OFF: Time 28200, Note Name: G#4
Note ON: Time 28200, Note Name: A#4, Velocity: 78
Note ON: Time 28200, Note Name: A#5, Velocity: 93
Note OFF: Time 28320, Note Name: A#5
Note OFF: Time 28320, Note Name: A#4
Note ON: Time 28320, Note Name: C5, Velocity: 84
Note ON: Time 28320, Note Name: G#5, Velocity: 84
Note ON: Time 28320, Note Name: C6, Velocity: 99
Note OFF: Time 28680, Note Name: C6
Note OFF: Time 28680, Note Name: G#5
Note OFF: Time 28680, Note Name: C5
Note ON: Time 28680, Note Name: C#5, Velocity: 88
Note ON: Time 28680, Note Name: C#6, Velocity: 102
Note OFF: Time 28800, Note Name: C#6
Note OFF: Time 28800, Note Name: C#5
Note ON: Time 28800, Note Name: F6, Velocity: 103
Note ON: Time 28800, Note Name: G#5, Velocity: 88
Note ON: Time 28800, Note Name: F5, Velocity: 88
Note ON: Time 28800, Note Name: C6, Velocity: 88
Note OFF: Time 29760, Note Name: F5
Note OFF: Time 29760, Note Name: F6
Note ON: Time 29760, Note Name: D#5, Velocity: 79
Note ON: Time 29760, Note Name: D#6, Velocity: 95
Note OFF: Time 30480, Note Name: D#6
Note OFF: Time 30480, Note Name: C6
Note OFF: Time 30480, Note Name: G#5
Note OFF: Time 30480, Note Name: D#5
Note ON: Time 30600, Note Name: F#5, Velocity: 89
Note ON: Time 30600, Note Name: C5, Velocity: 75
Note ON: Time 30600, Note Name: D#5, Velocity: 75
Note ON: Time 30600, Note Name: F#4, Velocity: 75
Note OFF: Time 30720, Note Name: F#4
Note OFF: Time 30720, Note Name: F#5
Note OFF: Time 30720, Note Name: C5
Note OFF: Time 30720, Note Name: D#5
Note ON: Time 30720, Note Name: D#5, Velocity: 80
Note ON: Time 30720, Note Name: F4, Velocity: 80
Note ON: Time 30720, Note Name: C5, Velocity: 80
Note ON: Time 30720, Note Name: F5, Velocity: 102
Note OFF: Time 31200, Note Name: F5
Note OFF: Time 31200, Note Name: D#5
Note OFF: Time 31200, Note Name: F4
Note OFF: Time 31200, Note Name: C5
Note ON: Time 31200, Note Name: A#4, Velocity: 74
Note ON: Time 31200, Note Name: F4, Velocity: 74
Note ON: Time 31200, Note Name: C#5, Velocity: 74
Note ON: Time 31200, Note Name: F5, Velocity: 89
Note OFF: Time 31560, Note Name: F5
Note OFF: Time 31560, Note Name: A#4
Note OFF: Time 31560, Note Name: F4
Note OFF: Time 31560, Note Name: C#5
Note ON: Time 31560, Note Name: G4, Velocity: 74
Note ON: Time 31560, Note Name: G5, Velocity: 89
Note OFF: Time 31680, Note Name: G5
Note OFF: Time 31680, Note Name: G4
Note ON: Time 31680, Note Name: F5, Velocity: 78
Note ON: Time 31680, Note Name: A4, Velocity: 78
Note ON: Time 31680, Note Name: C#5, Velocity: 78
Note ON: Time 31680, Note Name: A5, Velocity: 93
Note OFF: Time 32040, Note Name: A5
Note OFF: Time 32040, Note Name: F5
Note OFF: Time 32040, Note Name: A4
Note OFF: Time 32040, Note Name: C#5
Note ON: Time 32040, Note Name: A#4, Velocity: 78
Note ON: Time 32040, Note Name: A#5, Velocity: 93
Note OFF: Time 32160, Note Name: A#5
Note OFF: Time 32160, Note Name: A#4
Note ON: Time 32160, Note Name: C5, Velocity: 84
Note ON: Time 32160, Note Name: F5, Velocity: 84
Note ON: Time 32160, Note Name: C6, Velocity: 99
Note OFF: Time 32520, Note Name: C6
Note OFF: Time 32520, Note Name: F5
Note OFF: Time 32520, Note Name: C5
Note ON: Time 32520, Note Name: C#5, Velocity: 88
Note ON: Time 32520, Note Name: C#6, Velocity: 102
Note OFF: Time 32580, Note Name: C#6
Note OFF: Time 32580, Note Name: C#5
Note ON: Time 32580, Note Name: A#4, Velocity: 88
Note ON: Time 32600, Note Name: E5, Velocity: 88
Note ON: Time 32620, Note Name: G5, Velocity: 88
Note ON: Time 32640, Note Name: C#6, Velocity: 103
Note OFF: Time 33600, Note Name: C#6
Note OFF: Time 33600, Note Name: A#4
Note OFF: Time 33600, Note Name: E5
Note OFF: Time 33600, Note Name: G5
Note ON: Time 33600, Note Name: C5, Velocity: 76
Note ON: Time 33600, Note Name: F5, Velocity: 76
Note ON: Time 33600, Note Name: C6, Velocity: 90
Note OFF: Time 34080, Note Name: C6
Note OFF: Time 34080, Note Name: F5
Note OFF: Time 34080, Note Name: C5
Note ON: Time 34560, Note Name: G#3, Velocity: 68
Note ON: Time 34560, Note Name: F#3, Velocity: 68
Note ON: Time 34560, Note Name: C4, Velocity: 68
Note ON: Time 34560, Note Name: F4, Velocity: 68
Note ON: Time 34560, Note Name: G#4, Velocity: 80
Note OFF: Time 35040, Note Name: G#4
Note OFF: Time 35040, Note Name: C4
Note OFF: Time 35040, Note Name: G#3
Note OFF: Time 35040, Note Name: F#3
Note OFF: Time 35040, Note Name: F4
Note ON: Time 35040, Note Name: D#4, Velocity: 68
Note ON: Time 35040, Note Name: G#3, Velocity: 68
Note ON: Time 35040, Note Name: C4, Velocity: 68
Note ON: Time 35040, Note Name: F#3, Velocity: 68
Note ON: Time 35040, Note Name: G#4, Velocity: 80
Note OFF: Time 35520, Note Name: G#4
Note OFF: Time 35520, Note Name: C4
Note OFF: Time 35520, Note Name: D#4
Note OFF: Time 35520, Note Name: G#3
Note OFF: Time 35520, Note Name: F#3
Note ON: Time 35520, Note Name: F3, Velocity: 68
Note ON: Time 35520, Note Name: C#4, Velocity: 68
Note ON: Time 35520, Note Name: G#4, Velocity: 80
Note OFF: Time 36000, Note Name: G#4
Note OFF: Time 36000, Note Name: C#4
Note OFF: Time 36000, Note Name: F3
Note ON: Time 36480, Note Name: A3, Velocity: 68
Note ON: Time 36480, Note Name: D#3, Velocity: 68
Note ON: Time 36480, Note Name: C#4, Velocity: 68
Note ON: Time 36480, Note Name: F4, Velocity: 80
Note OFF: Time 36960, Note Name: F4
Note OFF: Time 36960, Note Name: A3
Note OFF: Time 36960, Note Name: D#3
Note OFF: Time 36960, Note Name: C#4
Note ON: Time 36960, Note Name: F4, Velocity: 80
Note ON: Time 36960, Note Name: A3, Velocity: 68
Note ON: Time 36960, Note Name: C4, Velocity: 68
Note ON: Time 36960, Note Name: D#3, Velocity: 68
Note OFF: Time 37440, Note Name: D#3
Note OFF: Time 37440, Note Name: F4
Note OFF: Time 37440, Note Name: A3
Note OFF: Time 37440, Note Name: C4
Note ON: Time 37440, Note Name: C#3, Velocity: 68
Note ON: Time 37440, Note Name: A#3, Velocity: 80
Note OFF: Time 38400, Note Name: A#3
Note OFF: Time 38400, Note Name: C#3
Note ON: Time 38400, Note Name: A#2, Velocity: 39
Note ON: Time 38400, Note Name: F3, Velocity: 39
Note ON: Time 38400, Note Name: A#3, Velocity: 46
Note OFF: Time 38880, Note Name: A#3
Note OFF: Time 38880, Note Name: F3
Note OFF: Time 38880, Note Name: A#2
Note ON: Time 38880, Note Name: F#3, Velocity: 39
Note ON: Time 38880, Note Name: A#3, Velocity: 46
Note OFF: Time 39240, Note Name: A#3
Note ON: Time 39240, Note Name: A#3, Velocity: 41
Note OFF: Time 39360, Note Name: A#3
Note OFF: Time 39360, Note Name: F#3
Note ON: Time 39360, Note Name: F3, Velocity: 39
Note ON: Time 39360, Note Name: A#3, Velocity: 46
Note OFF: Time 39840, Note Name: A#3
Note OFF: Time 39840, Note Name: F3
Note ON: Time 39840, Note Name: C#4, Velocity: 54
Note ON: Time 39840, Note Name: F#3, Velocity: 44
Note OFF: Time 40200, Note Name: C#4
Note ON: Time 40200, Note Name: C4, Velocity: 49
Note OFF: Time 40260, Note Name: C4
Note ON: Time 40260, Note Name: C#4, Velocity: 45
Note OFF: Time 40320, Note Name: C#4
Note OFF: Time 40320, Note Name: F#3
Note ON: Time 40320, Note Name: C4, Velocity: 52
Note ON: Time 40320, Note Name: F3, Velocity: 44
Note OFF: Time 40680, Note Name: C4
Note ON: Time 40680, Note Name: A#3, Velocity: 46
Note OFF: Time 40800, Note Name: A#3
Note OFF: Time 40800, Note Name: F3
Note ON: Time 40800, Note Name: F#3, Velocity: 42
Note ON: Time 40800, Note Name: A#3, Velocity: 50
Note OFF: Time 41160, Note Name: A#3
Note ON: Time 41160, Note Name: A#3, Velocity: 41
Note OFF: Time 41280, Note Name: A#3
Note OFF: Time 41280, Note Name: F#3
Note ON: Time 41280, Note Name: F3, Velocity: 39
Note ON: Time 41280, Note Name: A#3, Velocity: 46
Note OFF: Time 41760, Note Name: A#3
Note OFF: Time 41760, Note Name: F3
Note ON: Time 41760, Note Name: G3, Velocity: 76
Note ON: Time 41760, Note Name: C#4, Velocity: 97
Note ON: Time 41760, Note Name: E3, Velocity: 76
Note OFF: Time 42120, Note Name: E3
Note OFF: Time 42120, Note Name: C#4
Note OFF: Time 42120, Note Name: G3
Note ON: Time 42120, Note Name: F#3, Velocity: 76
Note ON: Time 42120, Note Name: C4, Velocity: 76
Note ON: Time 42120, Note Name: D#4, Velocity: 97
Note OFF: Time 42240, Note Name: D#4
Note OFF: Time 42240, Note Name: C4
Note OFF: Time 42240, Note Name: F#3
Note ON: Time 42240, Note Name: F3, Velocity: 79
Note ON: Time 42240, Note Name: C#4, Velocity: 79
Note ON: Time 42240, Note Name: F4, Velocity: 101
Note OFF: Time 42720, Note Name: F4
Note OFF: Time 42720, Note Name: C#4
Note OFF: Time 42720, Note Name: F3
Note ON: Time 42720, Note Name: F5, Velocity: 93
Note ON: Time 42720, Note Name: F4, Velocity: 77
Note ON: Time 42720, Note Name: C#5, Velocity: 77
Note OFF: Time 43080, Note Name: C#5
Note OFF: Time 43080, Note Name: F4
Note OFF: Time 43080, Note Name: F5
Note ON: Time 43080, Note Name: F#4, Velocity: 77
Note ON: Time 43080, Note Name: F#5, Velocity: 93
Note OFF: Time 43200, Note Name: F#5
Note OFF: Time 43200, Note Name: F#4
Note ON: Time 43200, Note Name: G#4, Velocity: 82
Note ON: Time 43200, Note Name: C#5, Velocity: 82
Note ON: Time 43200, Note Name: G#5, Velocity: 97
Note OFF: Time 43560, Note Name: G#5
Note OFF: Time 43560, Note Name: C#5
Note OFF: Time 43560, Note Name: G#4
Note ON: Time 43560, Note Name: A#4, Velocity: 82
Note ON: Time 43560, Note Name: A#5, Velocity: 97
Note OFF: Time 43680, Note Name: A#5
Note OFF: Time 43680, Note Name: A#4
Note ON: Time 43680, Note Name: C5, Velocity: 88
Note ON: Time 43680, Note Name: G#5, Velocity: 88
Note ON: Time 43680, Note Name: C6, Velocity: 105
Note OFF: Time 44040, Note Name: C6
Note OFF: Time 44040, Note Name: G#5
Note OFF: Time 44040, Note Name: C5
Note ON: Time 44040, Note Name: C#5, Velocity: 92
Note ON: Time 44040, Note Name: C#6, Velocity: 108
Note OFF: Time 44160, Note Name: C#6
Note OFF: Time 44160, Note Name: C#5
Note ON: Time 44160, Note Name: C6, Velocity: 92
Note ON: Time 44160, Note Name: G#5, Velocity: 92
Note ON: Time 44160, Note Name: F5, Velocity: 92
Note ON: Time 44160, Note Name: F6, Velocity: 109
Note OFF: Time 45120, Note Name: F6
Note OFF: Time 45120, Note Name: F5
Note ON: Time 45120, Note Name: D#5, Velocity: 82
Note ON: Time 45120, Note Name: D#6, Velocity: 99
Note OFF: Time 45840, Note Name: D#6
Note OFF: Time 45840, Note Name: C6
Note OFF: Time 45840, Note Name: G#5
Note OFF: Time 45840, Note Name: D#5
Note ON: Time 45960, Note Name: F#4, Velocity: 75
Note ON: Time 45960, Note Name: C5, Velocity: 75
Note ON: Time 45960, Note Name: D#5, Velocity: 75
Note ON: Time 45960, Note Name: F#5, Velocity: 89
Note OFF: Time 46080, Note Name: F#5
Note OFF: Time 46080, Note Name: F#4
Note OFF: Time 46080, Note Name: C5
Note OFF: Time 46080, Note Name: D#5
Note ON: Time 46080, Note Name: F5, Velocity: 102
Note ON: Time 46080, Note Name: F4, Velocity: 80
Note ON: Time 46080, Note Name: C5, Velocity: 80
Note ON: Time 46080, Note Name: D#5, Velocity: 80
Note OFF: Time 46560, Note Name: D#5
Note OFF: Time 46560, Note Name: F5
Note OFF: Time 46560, Note Name: F4
Note OFF: Time 46560, Note Name: C5
Note ON: Time 46560, Note Name: A#4, Velocity: 74
Note ON: Time 46560, Note Name: F4, Velocity: 74
Note ON: Time 46560, Note Name: C#5, Velocity: 74
Note ON: Time 46560, Note Name: F5, Velocity: 89
Note OFF: Time 46920, Note Name: F5
Note OFF: Time 46920, Note Name: A#4
Note OFF: Time 46920, Note Name: F4
Note OFF: Time 46920, Note Name: C#5
Note ON: Time 46920, Note Name: G4, Velocity: 74
Note ON: Time 46920, Note Name: G5, Velocity: 89
Note OFF: Time 47040, Note Name: G5
Note OFF: Time 47040, Note Name: G4
Note ON: Time 47040, Note Name: F5, Velocity: 78
Note ON: Time 47040, Note Name: A4, Velocity: 78
Note ON: Time 47040, Note Name: C#5, Velocity: 78
Note ON: Time 47040, Note Name: A5, Velocity: 93
Note OFF: Time 47400, Note Name: A5
Note OFF: Time 47400, Note Name: F5
Note OFF: Time 47400, Note Name: A4
Note OFF: Time 47400, Note Name: C#5
Note ON: Time 47400, Note Name: A#4, Velocity: 78
Note ON: Time 47400, Note Name: A#5, Velocity: 93
Note OFF: Time 47520, Note Name: A#5
Note OFF: Time 47520, Note Name: A#4
Note ON: Time 47520, Note Name: C5, Velocity: 84
Note ON: Time 47520, Note Name: F5, Velocity: 84
Note ON: Time 47520, Note Name: C6, Velocity: 99
Note OFF: Time 47880, Note Name: C6
Note OFF: Time 47880, Note Name: F5
Note OFF: Time 47880, Note Name: C5
Note ON: Time 47880, Note Name: C#5, Velocity: 88
Note ON: Time 47880, Note Name: C#6, Velocity: 102
Note OFF: Time 47940, Note Name: C#6
Note OFF: Time 47940, Note Name: C#5
Note ON: Time 47940, Note Name: A#4, Velocity: 88
Note ON: Time 47960, Note Name: E5, Velocity: 88
Note ON: Time 47980, Note Name: G5, Velocity: 88
Note ON: Time 48000, Note Name: C#6, Velocity: 103
Note OFF: Time 48960, Note Name: C#6
Note OFF: Time 48960, Note Name: A#4
Note OFF: Time 48960, Note Name: E5
Note OFF: Time 48960, Note Name: G5
Note ON: Time 48960, Note Name: C5, Velocity: 76
Note ON: Time 48960, Note Name: F5, Velocity: 76
Note ON: Time 48960, Note Name: C6, Velocity: 90
Note OFF: Time 49440, Note Name: C6
Note OFF: Time 49440, Note Name: F5
Note OFF: Time 49440, Note Name: C5
Note ON: Time 49920, Note Name: G#3, Velocity: 68
Note ON: Time 49920, Note Name: G#4, Velocity: 80
Note ON: Time 49920, Note Name: C4, Velocity: 68
Note ON: Time 49920, Note Name: F4, Velocity: 68
Note ON: Time 49920, Note Name: F#3, Velocity: 68
Note OFF: Time 50400, Note Name: F#3
Note OFF: Time 50400, Note Name: C4
Note OFF: Time 50400, Note Name: G#3
Note OFF: Time 50400, Note Name: G#4
Note OFF: Time 50400, Note Name: F4
Note ON: Time 50400, Note Name: F#3, Velocity: 68
Note ON: Time 50400, Note Name: G#3, Velocity: 68
Note ON: Time 50400, Note Name: C4, Velocity: 68
Note ON: Time 50400, Note Name: D#4, Velocity: 68
Note ON: Time 50400, Note Name: G#4, Velocity: 80
Note OFF: Time 50880, Note Name: G#4
Note OFF: Time 50880, Note Name: C4
Note OFF: Time 50880, Note Name: F#3
Note OFF: Time 50880, Note Name: G#3
Note OFF: Time 50880, Note Name: D#4
Note ON: Time 50880, Note Name: F3, Velocity: 68
Note ON: Time 50880, Note Name: C#4, Velocity: 68
Note ON: Time 50880, Note Name: G#4, Velocity: 80
Note OFF: Time 51360, Note Name: G#4
Note OFF: Time 51360, Note Name: C#4
Note OFF: Time 51360, Note Name: F3
Note ON: Time 51840, Note Name: F4, Velocity: 80
Note ON: Time 51840, Note Name: D#3, Velocity: 68
Note ON: Time 51840, Note Name: C#4, Velocity: 68
Note ON: Time 51840, Note Name: A3, Velocity: 68
Note OFF: Time 52320, Note Name: A3
Note OFF: Time 52320, Note Name: F4
Note OFF: Time 52320, Note Name: D#3
Note OFF: Time 52320, Note Name: C#4
Note ON: Time 52320, Note Name: D#3, Velocity: 68
Note ON: Time 52320, Note Name: A3, Velocity: 68
Note ON: Time 52320, Note Name: C4, Velocity: 68
Note ON: Time 52320, Note Name: F4, Velocity: 80
Note OFF: Time 52800, Note Name: F4
Note OFF: Time 52800, Note Name: D#3
Note OFF: Time 52800, Note Name: A3
Note OFF: Time 52800, Note Name: C4
Note ON: Time 52800, Note Name: C#3, Velocity: 68
Note ON: Time 52800, Note Name: A#3, Velocity: 80
Note OFF: Time 53760, Note Name: A#3
Note OFF: Time 53760, Note Name: C#3
Note ON: Time 53760, Note Name: A#2, Velocity: 39
Note ON: Time 53760, Note Name: F3, Velocity: 39
Note ON: Time 53760, Note Name: A#3, Velocity: 46
Note OFF: Time 54240, Note Name: A#3
Note OFF: Time 54240, Note Name: F3
Note OFF: Time 54240, Note Name: A#2
Note ON: Time 54240, Note Name: F#3, Velocity: 39
Note ON: Time 54240, Note Name: A#3, Velocity: 46
Note OFF: Time 54600, Note Name: A#3
Note ON: Time 54600, Note Name: A#3, Velocity: 41
Note OFF: Time 54720, Note Name: A#3
Note OFF: Time 54720, Note Name: F#3
Note ON: Time 54720, Note Name: F3, Velocity: 39
Note ON: Time 54720, Note Name: A#3, Velocity: 46
Note OFF: Time 55200, Note Name: A#3
Note OFF: Time 55200, Note Name: F3
Note ON: Time 55200, Note Name: C#4, Velocity: 54
Note ON: Time 55200, Note Name: F#3, Velocity: 44
Note OFF: Time 55560, Note Name: C#4
Note ON: Time 55560, Note Name: C4, Velocity: 49
Note OFF: Time 55620, Note Name: C4
Note ON: Time 55620, Note Name: C#4, Velocity: 45
Note OFF: Time 55680, Note Name: C#4
Note OFF: Time 55680, Note Name: F#3
Note ON: Time 55680, Note Name: C4, Velocity: 52
Note ON: Time 55680, Note Name: F3, Velocity: 44
Note OFF: Time 56040, Note Name: C4
Note ON: Time 56040, Note Name: A#3, Velocity: 46
Note OFF: Time 56160, Note Name: A#3
Note OFF: Time 56160, Note Name: F3
Note ON: Time 56160, Note Name: F#3, Velocity: 42
Note ON: Time 56160, Note Name: A#3, Velocity: 50
Note OFF: Time 56520, Note Name: A#3
Note ON: Time 56520, Note Name: A#3, Velocity: 41
Note OFF: Time 56640, Note Name: A#3
Note OFF: Time 56640, Note Name: F#3
Note ON: Time 56640, Note Name: F3, Velocity: 39
Note ON: Time 56640, Note Name: A#3, Velocity: 46
Note OFF: Time 57120, Note Name: A#3
Note OFF: Time 57120, Note Name: F3
Note ON: Time 57600, Note Name: F5, Velocity: 54
Note OFF: Time 58560, Note Name: F5
Note ON: Time 58560, Note Name: F#5, Velocity: 50
Note OFF: Time 58800, Note Name: F#5
Note ON: Time 58800, Note Name: F5, Velocity: 46
Note OFF: Time 59040, Note Name: F5
Note ON: Time 59040, Note Name: D#5, Velocity: 50
Note OFF: Time 59280, Note Name: D#5
Note ON: Time 59280, Note Name: C#5, Velocity: 46
Note OFF: Time 59520, Note Name: C#5
Note ON: Time 59520, Note Name: C5, Velocity: 50
Note OFF: Time 60000, Note Name: C5
Note ON: Time 60000, Note Name: A#5, Velocity: 54
Note OFF: Time 60480, Note Name: A#5
Note ON: Time 60480, Note Name: G#5, Velocity: 52
Note OFF: Time 61440, Note Name: G#5
Note ON: Time 61440, Note Name: F#5, Velocity: 51
Note OFF: Time 62400, Note Name: F#5
Note ON: Time 62400, Note Name: G#5, Velocity: 50
Note OFF: Time 62640, Note Name: G#5
Note ON: Time 62640, Note Name: F#5, Velocity: 46
Note OFF: Time 62880, Note Name: F#5
Note ON: Time 62880, Note Name: F5, Velocity: 50
Note OFF: Time 63120, Note Name: F5
Note ON: Time 63120, Note Name: D#5, Velocity: 46
Note OFF: Time 63360, Note Name: D#5
Note ON: Time 63360, Note Name: C#5, Velocity: 50
Note OFF: Time 63840, Note Name: C#5
Note ON: Time 63840, Note Name: C#6, Velocity: 53
Note OFF: Time 64320, Note Name: C#6
Note ON: Time 64320, Note Name: G#5, Velocity: 49
Note OFF: Time 65280, Note Name: G#5
Note ON: Time 65280, Note Name: F5, Velocity: 52
Note OFF: Time 66240, Note Name: F5
Note ON: Time 66240, Note Name: F#5, Velocity: 51
Note OFF: Time 66480, Note Name: F#5
Note ON: Time 66480, Note Name: F5, Velocity: 46
Note OFF: Time 66720, Note Name: F5
Note ON: Time 66720, Note Name: D#5, Velocity: 50
Note OFF: Time 66960, Note Name: D#5
Note ON: Time 66960, Note Name: D5, Velocity: 46
Note OFF: Time 67080, Note Name: D5
Note ON: Time 67080, Note Name: D#5, Velocity: 46
Note OFF: Time 67140, Note Name: D#5
Note ON: Time 67140, Note Name: F5, Velocity: 42
Note OFF: Time 67200, Note Name: F5
Note ON: Time 67200, Note Name: D#5, Velocity: 53
Note OFF: Time 67440, Note Name: D#5
Note ON: Time 67440, Note Name: D5, Velocity: 51
Note OFF: Time 67680, Note Name: D5
Note ON: Time 67680, Note Name: D#5, Velocity: 54
Note OFF: Time 67920, Note Name: D#5
Note ON: Time 67920, Note Name: F5, Velocity: 55
Note OFF: Time 68160, Note Name: F5
Note ON: Time 68160, Note Name: F#5, Velocity: 57
Note OFF: Time 68400, Note Name: F#5
Note ON: Time 68400, Note Name: A#4, Velocity: 52
Note OFF: Time 68640, Note Name: A#4
Note ON: Time 68640, Note Name: F5, Velocity: 57
Note OFF: Time 68880, Note Name: F5
Note ON: Time 68880, Note Name: D#5, Velocity: 50
Note OFF: Time 69000, Note Name: D#5
Note ON: Time 69000, Note Name: C5, Velocity: 39
Note OFF: Time 69060, Note Name: C5
Note ON: Time 69060, Note Name: C#5, Velocity: 39
Note OFF: Time 69118, Note Name: C#5
Note ON: Time 69120, Note Name: C#5, Velocity: 39
Note OFF: Time 69165, Note Name: C#5
Note ON: Time 69165, Note Name: D#5, Velocity: 36
Note OFF: Time 69210, Note Name: D#5
Note ON: Time 69210, Note Name: C#5, Velocity: 40
Note OFF: Time 69255, Note Name: C#5
Note ON: Time 69255, Note Name: D#5, Velocity: 37
Note OFF: Time 69300, Note Name: D#5
Note ON: Time 69300, Note Name: C#5, Velocity: 42
Note OFF: Time 69345, Note Name: C#5
Note ON: Time 69345, Note Name: D#5, Velocity: 38
Note OFF: Time 69390, Note Name: D#5
Note ON: Time 69390, Note Name: C#5, Velocity: 44
Note OFF: Time 69435, Note Name: C#5
Note ON: Time 69435, Note Name: D#5, Velocity: 39
Note OFF: Time 69480, Note Name: D#5
Note ON: Time 69480, Note Name: C#5, Velocity: 46
Note OFF: Time 69525, Note Name: C#5
Note ON: Time 69525, Note Name: D#5, Velocity: 42
Note OFF: Time 69570, Note Name: D#5
Note ON: Time 69570, Note Name: C#5, Velocity: 48
Note OFF: Time 69615, Note Name: C#5
Note ON: Time 69615, Note Name: D#5, Velocity: 42
Note OFF: Time 69660, Note Name: D#5
Note ON: Time 69660, Note Name: C#5, Velocity: 47
Note OFF: Time 69705, Note Name: C#5
Note ON: Time 69706, Note Name: D#5, Velocity: 40
Note ON: Time 69750, Note Name: C#5, Velocity: 44
Note OFF: Time 69751, Note Name: D#5
Note OFF: Time 69795, Note Name: C#5
Note ON: Time 69795, Note Name: D#5, Velocity: 38
Note ON: Time 69840, Note Name: C#5, Velocity: 42
Note OFF: Time 69841, Note Name: D#5
Note OFF: Time 69900, Note Name: C#5
Note ON: Time 69900, Note Name: D#5, Velocity: 37
Note OFF: Time 69960, Note Name: D#5
Note ON: Time 69960, Note Name: C5, Velocity: 40
Note OFF: Time 70020, Note Name: C5
Note ON: Time 70020, Note Name: C#5, Velocity: 35
Note OFF: Time 70080, Note Name: C#5
Note ON: Time 70080, Note Name: A#5, Velocity: 54
Note OFF: Time 70320, Note Name: A#5
Note ON: Time 70320, Note Name: G#5, Velocity: 50
Note OFF: Time 70560, Note Name: G#5
Note ON: Time 70560, Note Name: F#5, Velocity: 52
Note OFF: Time 70800, Note Name: F#5
Note ON: Time 70800, Note Name: G#4, Velocity: 50
Note OFF: Time 71040, Note Name: G#4
Note ON: Time 71040, Note Name: D#5, Velocity: 54
Note OFF: Time 72000, Note Name: D#5
Note ON: Time 72000, Note Name: C#5, Velocity: 50
Note OFF: Time 72480, Note Name: C#5
Note ON: Time 72960, Note Name: F5, Velocity: 54
Note OFF: Time 73920, Note Name: F5
Note ON: Time 73920, Note Name: F#5, Velocity: 50
Note OFF: Time 74160, Note Name: F#5
Note ON: Time 74160, Note Name: F5, Velocity: 46
Note OFF: Time 74400, Note Name: F5
Note ON: Time 74400, Note Name: D#5, Velocity: 50
Note OFF: Time 74640, Note Name: D#5
Note ON: Time 74640, Note Name: C#5, Velocity: 46
Note OFF: Time 74880, Note Name: C#5
Note ON: Time 74880, Note Name: C5, Velocity: 50
Note OFF: Time 75360, Note Name: C5
Note ON: Time 75360, Note Name: A#5, Velocity: 54
Note OFF: Time 75840, Note Name: A#5
Note ON: Time 75840, Note Name: G#5, Velocity: 52
Note OFF: Time 76800, Note Name: G#5
Note ON: Time 76800, Note Name: F#5, Velocity: 51
Note OFF: Time 77760, Note Name: F#5
Note ON: Time 77760, Note Name: G#5, Velocity: 50
Note OFF: Time 78000, Note Name: G#5
Note ON: Time 78000, Note Name: F#5, Velocity: 46
Note OFF: Time 78240, Note Name: F#5
Note ON: Time 78240, Note Name: F5, Velocity: 50
Note OFF: Time 78480, Note Name: F5
Note ON: Time 78480, Note Name: D#5, Velocity: 46
Note OFF: Time 78720, Note Name: D#5
Note ON: Time 78720, Note Name: C#5, Velocity: 50
Note OFF: Time 79200, Note Name: C#5
Note ON: Time 79200, Note Name: C#6, Velocity: 53
Note OFF: Time 79680, Note Name: C#6
Note ON: Time 79680, Note Name: G#5, Velocity: 49
Note OFF: Time 80640, Note Name: G#5
Note ON: Time 80640, Note Name: F5, Velocity: 52
Note OFF: Time 81600, Note Name: F5
Note ON: Time 81600, Note Name: F#5, Velocity: 51
Note OFF: Time 81840, Note Name: F#5
Note ON: Time 81840, Note Name: F5, Velocity: 46
Note OFF: Time 82080, Note Name: F5
Note ON: Time 82080, Note Name: D#5, Velocity: 50
Note OFF: Time 82320, Note Name: D#5
Note ON: Time 82320, Note Name: D5, Velocity: 46
Note OFF: Time 82440, Note Name: D5
Note ON: Time 82440, Note Name: D#5, Velocity: 46
Note OFF: Time 82500, Note Name: D#5
Note ON: Time 82500, Note Name: F5, Velocity: 42
Note OFF: Time 82560, Note Name: F5
Note ON: Time 82560, Note Name: D#5, Velocity: 53
Note OFF: Time 82800, Note Name: D#5
Note ON: Time 82800, Note Name: D5, Velocity: 51
Note OFF: Time 83040, Note Name: D5
Note ON: Time 83040, Note Name: D#5, Velocity: 54
Note OFF: Time 83280, Note Name: D#5
Note ON: Time 83280, Note Name: F5, Velocity: 55
Note OFF: Time 83520, Note Name: F5
Note ON: Time 83520, Note Name: F#5, Velocity: 57
Note OFF: Time 83760, Note Name: F#5
Note ON: Time 83760, Note Name: A#4, Velocity: 52
Note OFF: Time 84000, Note Name: A#4
Note ON: Time 84000, Note Name: F5, Velocity: 57
Note OFF: Time 84240, Note Name: F5
Note ON: Time 84240, Note Name: D#5, Velocity: 50
Note OFF: Time 84360, Note Name: D#5
Note ON: Time 84360, Note Name: C5, Velocity: 39
Note OFF: Time 84420, Note Name: C5
Note ON: Time 84420, Note Name: C#5, Velocity: 39
Note OFF: Time 84480, Note Name: C#5
Note ON: Time 84480, Note Name: C#5, Velocity: 39
Note OFF: Time 84525, Note Name: C#5
Note ON: Time 84525, Note Name: D#5, Velocity: 36
Note OFF: Time 84570, Note Name: D#5
Note ON: Time 84570, Note Name: C#5, Velocity: 40
Note OFF: Time 84615, Note Name: C#5
Note ON: Time 84615, Note Name: D#5, Velocity: 37
Note OFF: Time 84660, Note Name: D#5
Note ON: Time 84660, Note Name: C#5, Velocity: 42
Note OFF: Time 84705, Note Name: C#5
Note ON: Time 84705, Note Name: D#5, Velocity: 38
Note OFF: Time 84750, Note Name: D#5
Note ON: Time 84750, Note Name: C#5, Velocity: 44
Note OFF: Time 84795, Note Name: C#5
Note ON: Time 84795, Note Name: D#5, Velocity: 39
Note OFF: Time 84840, Note Name: D#5
Note ON: Time 84840, Note Name: C#5, Velocity: 46
Note OFF: Time 84885, Note Name: C#5
Note ON: Time 84885, Note Name: D#5, Velocity: 42
Note OFF: Time 84930, Note Name: D#5
Note ON: Time 84930, Note Name: C#5, Velocity: 48
Note OFF: Time 84975, Note Name: C#5
Note ON: Time 84975, Note Name: D#5, Velocity: 42
Note OFF: Time 85020, Note Name: D#5
Note ON: Time 85020, Note Name: C#5, Velocity: 47
Note OFF: Time 85065, Note Name: C#5
Note ON: Time 85066, Note Name: D#5, Velocity: 40
Note ON: Time 85110, Note Name: C#5, Velocity: 44
Note OFF: Time 85111, Note Name: D#5
Note OFF: Time 85155, Note Name: C#5
Note ON: Time 85155, Note Name: D#5, Velocity: 38
Note ON: Time 85200, Note Name: C#5, Velocity: 42
Note OFF: Time 85201, Note Name: D#5
Note OFF: Time 85260, Note Name: C#5
Note ON: Time 85260, Note Name: D#5, Velocity: 37
Note OFF: Time 85320, Note Name: D#5
Note ON: Time 85320, Note Name: C5, Velocity: 40
Note OFF: Time 85380, Note Name: C5
Note ON: Time 85380, Note Name: C#5, Velocity: 35
Note OFF: Time 85440, Note Name: C#5
Note ON: Time 85440, Note Name: A#5, Velocity: 54
Note OFF: Time 85680, Note Name: A#5
Note ON: Time 85680, Note Name: G#5, Velocity: 50
Note OFF: Time 85920, Note Name: G#5
Note ON: Time 85920, Note Name: F#5, Velocity: 52
Note OFF: Time 86160, Note Name: F#5
Note ON: Time 86160, Note Name: G#4, Velocity: 50
Note OFF: Time 86400, Note Name: G#4
Note ON: Time 86400, Note Name: D#5, Velocity: 54
Note OFF: Time 87360, Note Name: D#5
Note ON: Time 87360, Note Name: C#5, Velocity: 50
Note OFF: Time 87840, Note Name: C#5
Note ON: Time 88320, Note Name: C5, Velocity: 56
Note OFF: Time 89280, Note Name: C5
Note ON: Time 89280, Note Name: C#5, Velocity: 52
Note OFF: Time 89520, Note Name: C#5
Note ON: Time 89520, Note Name: C5, Velocity: 48
Note OFF: Time 89760, Note Name: C5
Note ON: Time 89760, Note Name: A#4, Velocity: 52
Note OFF: Time 90000, Note Name: A#4
Note ON: Time 90000, Note Name: G#4, Velocity: 48
Note OFF: Time 90240, Note Name: G#4
Note ON: Time 90240, Note Name: G4, Velocity: 52
Note OFF: Time 90720, Note Name: G4
Note ON: Time 90720, Note Name: F5, Velocity: 56
Note OFF: Time 91200, Note Name: F5
Note ON: Time 91200, Note Name: D#5, Velocity: 54
Note OFF: Time 92160, Note Name: D#5
Note ON: Time 92160, Note Name: C#5, Velocity: 55
Note OFF: Time 93120, Note Name: C#5
Note ON: Time 93120, Note Name: D#5, Velocity: 55
Note OFF: Time 93360, Note Name: D#5
Note ON: Time 93360, Note Name: C#5, Velocity: 50
Note OFF: Time 93600, Note Name: C#5
Note ON: Time 93600, Note Name: C5, Velocity: 55
Note OFF: Time 93840, Note Name: C5
Note ON: Time 93840, Note Name: A#4, Velocity: 51
Note OFF: Time 94080, Note Name: A#4
Note ON: Time 94080, Note Name: A4, Velocity: 55
Note OFF: Time 94560, Note Name: A4
Note ON: Time 94560, Note Name: F#5, Velocity: 59
Note OFF: Time 95040, Note Name: F#5
Note ON: Time 95040, Note Name: F5, Velocity: 55
Note OFF: Time 96000, Note Name: F5
Note ON: Time 96000, Note Name: F5, Velocity: 59
Note OFF: Time 96960, Note Name: F5
Note ON: Time 96960, Note Name: F#5, Velocity: 58
Note OFF: Time 97200, Note Name: F#5
Note ON: Time 97200, Note Name: F5, Velocity: 52
Note OFF: Time 97440, Note Name: F5
Note ON: Time 97440, Note Name: D#5, Velocity: 57
Note OFF: Time 97680, Note Name: D#5
Note ON: Time 97680, Note Name: C#5, Velocity: 52
Note OFF: Time 97915, Note Name: C#5
Note ON: Time 97920, Note Name: C#5, Velocity: 59
Note OFF: Time 98400, Note Name: C#5
Note ON: Time 98400, Note Name: C5, Velocity: 57
Note OFF: Time 98880, Note Name: C5
Note ON: Time 99120, Note Name: C5, Velocity: 56
Note OFF: Time 99330, Note Name: C5
Note ON: Time 99330, Note Name: D#5, Velocity: 55
Note OFF: Time 99360, Note Name: D#5
Note ON: Time 99360, Note Name: C#5, Velocity: 59
Note OFF: Time 99720, Note Name: C#5
Note ON: Time 99720, Note Name: C5, Velocity: 58
Note OFF: Time 99835, Note Name: C5
Note ON: Time 99840, Note Name: C5, Velocity: 59
Note OFF: Time 100320, Note Name: C5
Note ON: Time 100320, Note Name: A#4, Velocity: 56
Note OFF: Time 100800, Note Name: A#4
Note ON: Time 101040, Note Name: C5, Velocity: 56
Note OFF: Time 101250, Note Name: C5
Note ON: Time 101250, Note Name: D#5, Velocity: 59
Note OFF: Time 101280, Note Name: D#5
Note ON: Time 101280, Note Name: C#5, Velocity: 59
Note OFF: Time 101640, Note Name: C#5
Note ON: Time 101640, Note Name: C5, Velocity: 56
Note OFF: Time 101760, Note Name: C5
Note ON: Time 101760, Note Name: C5, Velocity: 50
Note OFF: Time 102240, Note Name: C5
Note ON: Time 102240, Note Name: F5, Velocity: 55
Note OFF: Time 102720, Note Name: F5
Note ON: Time 102720, Note Name: F#5, Velocity: 54
Note OFF: Time 103200, Note Name: F#5
Note ON: Time 103200, Note Name: G#4, Velocity: 46
Note OFF: Time 103680, Note Name: G#4
Note ON: Time 103680, Note Name: F5, Velocity: 54
Note OFF: Time 104640, Note Name: F5
Note ON: Time 104640, Note Name: F#5, Velocity: 50
Note OFF: Time 104880, Note Name: F#5
Note ON: Time 104880, Note Name: F5, Velocity: 46
Note OFF: Time 105120, Note Name: F5
Note ON: Time 105120, Note Name: D#5, Velocity: 50
Note OFF: Time 105360, Note Name: D#5
Note ON: Time 105360, Note Name: C#5, Velocity: 46
Note OFF: Time 105600, Note Name: C#5
Note ON: Time 105600, Note Name: C5, Velocity: 50
Note OFF: Time 106080, Note Name: C5
Note ON: Time 106080, Note Name: A#5, Velocity: 54
Note OFF: Time 106560, Note Name: A#5
Note ON: Time 106560, Note Name: G#5, Velocity: 52
Note OFF: Time 107520, Note Name: G#5
Note ON: Time 107520, Note Name: F#5, Velocity: 51
Note OFF: Time 108480, Note Name: F#5
Note ON: Time 108480, Note Name: G#5, Velocity: 50
Note OFF: Time 108720, Note Name: G#5
Note ON: Time 108720, Note Name: F#5, Velocity: 46
Note OFF: Time 108960, Note Name: F#5
Note ON: Time 108960, Note Name: F5, Velocity: 50
Note OFF: Time 109200, Note Name: F5
Note ON: Time 109200, Note Name: D#5, Velocity: 46
Note OFF: Time 109440, Note Name: D#5
Note ON: Time 109440, Note Name: C#5, Velocity: 50
Note OFF: Time 109920, Note Name: C#5
Note ON: Time 109920, Note Name: C#6, Velocity: 53
Note OFF: Time 110400, Note Name: C#6
Note ON: Time 110400, Note Name: G#5, Velocity: 49
Note OFF: Time 111360, Note Name: G#5
Note ON: Time 111360, Note Name: F5, Velocity: 52
Note OFF: Time 112320, Note Name: F5
Note ON: Time 112320, Note Name: F#5, Velocity: 51
Note OFF: Time 112560, Note Name: F#5
Note ON: Time 112560, Note Name: F5, Velocity: 46
Note OFF: Time 112800, Note Name: F5
Note ON: Time 112800, Note Name: D#5, Velocity: 50
Note OFF: Time 113040, Note Name: D#5
Note ON: Time 113040, Note Name: D5, Velocity: 46
Note OFF: Time 113160, Note Name: D5
Note ON: Time 113160, Note Name: D#5, Velocity: 46
Note OFF: Time 113220, Note Name: D#5
Note ON: Time 113220, Note Name: F5, Velocity: 42
Note OFF: Time 113280, Note Name: F5
Note ON: Time 113280, Note Name: D#5, Velocity: 53
Note OFF: Time 113520, Note Name: D#5
Note ON: Time 113520, Note Name: D5, Velocity: 51
Note OFF: Time 113760, Note Name: D5
Note ON: Time 113760, Note Name: D#5, Velocity: 54
Note OFF: Time 114000, Note Name: D#5
Note ON: Time 114000, Note Name: F5, Velocity: 55
Note OFF: Time 114240, Note Name: F5
Note ON: Time 114240, Note Name: F#5, Velocity: 57
Note OFF: Time 114480, Note Name: F#5
Note ON: Time 114480, Note Name: A#4, Velocity: 52
Note OFF: Time 114720, Note Name: A#4
Note ON: Time 114720, Note Name: F5, Velocity: 57
Note OFF: Time 114960, Note Name: F5
Note ON: Time 114960, Note Name: D#5, Velocity: 50
Note OFF: Time 115080, Note Name: D#5
Note ON: Time 115080, Note Name: C5, Velocity: 39
Note OFF: Time 115140, Note Name: C5
Note ON: Time 115140, Note Name: C#5, Velocity: 39
Note OFF: Time 115200, Note Name: C#5
Note ON: Time 115200, Note Name: C#5, Velocity: 39
Note OFF: Time 115245, Note Name: C#5
Note ON: Time 115245, Note Name: D#5, Velocity: 36
Note OFF: Time 115290, Note Name: D#5
Note ON: Time 115290, Note Name: C#5, Velocity: 40
Note OFF: Time 115335, Note Name: C#5
Note ON: Time 115335, Note Name: D#5, Velocity: 37
Note OFF: Time 115380, Note Name: D#5
Note ON: Time 115380, Note Name: C#5, Velocity: 42
Note OFF: Time 115425, Note Name: C#5
Note ON: Time 115425, Note Name: D#5, Velocity: 38
Note OFF: Time 115470, Note Name: D#5
Note ON: Time 115470, Note Name: C#5, Velocity: 44
Note OFF: Time 115515, Note Name: C#5
Note ON: Time 115515, Note Name: D#5, Velocity: 39
Note OFF: Time 115560, Note Name: D#5
Note ON: Time 115560, Note Name: C#5, Velocity: 46
Note OFF: Time 115605, Note Name: C#5
Note ON: Time 115605, Note Name: D#5, Velocity: 42
Note OFF: Time 115650, Note Name: D#5
Note ON: Time 115650, Note Name: C#5, Velocity: 48
Note OFF: Time 115695, Note Name: C#5
Note ON: Time 115695, Note Name: D#5, Velocity: 42
Note OFF: Time 115740, Note Name: D#5
Note ON: Time 115740, Note Name: C#5, Velocity: 47
Note OFF: Time 115785, Note Name: C#5
Note ON: Time 115786, Note Name: D#5, Velocity: 40
Note ON: Time 115830, Note Name: C#5, Velocity: 44
Note OFF: Time 115831, Note Name: D#5
Note OFF: Time 115875, Note Name: C#5
Note ON: Time 115875, Note Name: D#5, Velocity: 38
Note ON: Time 115920, Note Name: C#5, Velocity: 42
Note OFF: Time 115921, Note Name: D#5
Note OFF: Time 115980, Note Name: C#5
Note ON: Time 115980, Note Name: D#5, Velocity: 37
Note OFF: Time 116040, Note Name: D#5
Note ON: Time 116040, Note Name: C5, Velocity: 40
Note OFF: Time 116100, Note Name: C5
Note ON: Time 116100, Note Name: C#5, Velocity: 35
Note OFF: Time 116160, Note Name: C#5
Note ON: Time 116160, Note Name: A#5, Velocity: 54
Note OFF: Time 116400, Note Name: A#5
Note ON: Time 116400, Note Name: G#5, Velocity: 50
Note OFF: Time 116640, Note Name: G#5
Note ON: Time 116640, Note Name: F#5, Velocity: 52
Note OFF: Time 116880, Note Name: F#5
Note ON: Time 116880, Note Name: G#4, Velocity: 50
Note OFF: Time 117120, Note Name: G#4
Note ON: Time 117120, Note Name: D#5, Velocity: 54
Note OFF: Time 118080, Note Name: D#5
Note ON: Time 118080, Note Name: C#5, Velocity: 45
Note OFF: Time 118560, Note Name: C#5
Note ON: Time 119040, Note Name: C5, Velocity: 56
Note OFF: Time 120000, Note Name: C5
Note ON: Time 120000, Note Name: C#5, Velocity: 52
Note OFF: Time 120240, Note Name: C#5
Note ON: Time 120240, Note Name: C5, Velocity: 48
Note OFF: Time 120480, Note Name: C5
Note ON: Time 120480, Note Name: A#4, Velocity: 52
Note OFF: Time 120720, Note Name: A#4
Note ON: Time 120720, Note Name: G#4, Velocity: 48
Note OFF: Time 120960, Note Name: G#4
Note ON: Time 120960, Note Name: G4, Velocity: 52
Note OFF: Time 121440, Note Name: G4
Note ON: Time 121440, Note Name: F5, Velocity: 56
Note OFF: Time 121920, Note Name: F5
Note ON: Time 121920, Note Name: D#5, Velocity: 54
Note OFF: Time 122880, Note Name: D#5
Note ON: Time 122880, Note Name: C#5, Velocity: 55
Note OFF: Time 123840, Note Name: C#5
Note ON: Time 123840, Note Name: D#5, Velocity: 55
Note OFF: Time 124080, Note Name: D#5
Note ON: Time 124080, Note Name: C#5, Velocity: 50
Note OFF: Time 124320, Note Name: C#5
Note ON: Time 124320, Note Name: C5, Velocity: 55
Note OFF: Time 124560, Note Name: C5
Note ON: Time 124560, Note Name: A#4, Velocity: 51
Note OFF: Time 124800, Note Name: A#4
Note ON: Time 124800, Note Name: A4, Velocity: 55
Note OFF: Time 125280, Note Name: A4
Note ON: Time 125280, Note Name: F#5, Velocity: 59
Note OFF: Time 125760, Note Name: F#5
Note ON: Time 125760, Note Name: F5, Velocity: 55
Note OFF: Time 126720, Note Name: F5
Note ON: Time 126720, Note Name: F5, Velocity: 59
Note OFF: Time 127680, Note Name: F5
Note ON: Time 127680, Note Name: F#5, Velocity: 58
Note OFF: Time 127920, Note Name: F#5
Note ON: Time 127920, Note Name: F5, Velocity: 52
Note OFF: Time 128160, Note Name: F5
Note ON: Time 128160, Note Name: D#5, Velocity: 57
Note OFF: Time 128400, Note Name: D#5
Note ON: Time 128400, Note Name: C#5, Velocity: 52
Note OFF: Time 128635, Note Name: C#5
Note ON: Time 128640, Note Name: C#5, Velocity: 59
Note OFF: Time 129120, Note Name: C#5
Note ON: Time 129120, Note Name: C5, Velocity: 57
Note OFF: Time 129600, Note Name: C5
Note ON: Time 129840, Note Name: C5, Velocity: 56
Note OFF: Time 130050, Note Name: C5
Note ON: Time 130050, Note Name: D#5, Velocity: 55
Note OFF: Time 130080, Note Name: D#5
Note ON: Time 130080, Note Name: C#5, Velocity: 59
Note OFF: Time 130440, Note Name: C#5
Note ON: Time 130440, Note Name: C5, Velocity: 58
Note OFF: Time 130553, Note Name: C5
Note ON: Time 130560, Note Name: C5, Velocity: 59
Note OFF: Time 131040, Note Name: C5
Note ON: Time 131040, Note Name: A#4, Velocity: 56
Note OFF: Time 131520, Note Name: A#4
Note ON: Time 131760, Note Name: C5, Velocity: 56
Note OFF: Time 131970, Note Name: C5
Note ON: Time 131970, Note Name: D#5, Velocity: 59
Note OFF: Time 132000, Note Name: D#5
Note ON: Time 132000, Note Name: C#5, Velocity: 59
Note OFF: Time 132360, Note Name: C#5
Note ON: Time 132360, Note Name: C5, Velocity: 56
Note OFF: Time 132473, Note Name: C5
Note ON: Time 132480, Note Name: C5, Velocity: 50
Note OFF: Time 132960, Note Name: C5
Note ON: Time 132960, Note Name: F5, Velocity: 55
Note OFF: Time 133440, Note Name: F5
Note ON: Time 133440, Note Name: F#5, Velocity: 54
Note OFF: Time 133920, Note Name: F#5
Note ON: Time 133920, Note Name: G#4, Velocity: 45
Note OFF: Time 134400, Note Name: G#4
Note ON: Time 134400, Note Name: F5, Velocity: 54
Note OFF: Time 135360, Note Name: F5
Note ON: Time 135360, Note Name: F#5, Velocity: 50
Note OFF: Time 135600, Note Name: F#5
Note ON: Time 135600, Note Name: F5, Velocity: 46
Note OFF: Time 135840, Note Name: F5
Note ON: Time 135840, Note Name: D#5, Velocity: 50
Note OFF: Time 136080, Note Name: D#5
Note ON: Time 136080, Note Name: C#5, Velocity: 46
Note OFF: Time 136320, Note Name: C#5
Note ON: Time 136320, Note Name: C5, Velocity: 50
Note OFF: Time 136800, Note Name: C5
Note ON: Time 136800, Note Name: A#5, Velocity: 54
Note OFF: Time 137280, Note Name: A#5
Note ON: Time 137280, Note Name: G#5, Velocity: 52
Note OFF: Time 138240, Note Name: G#5
Note ON: Time 138240, Note Name: F#5, Velocity: 51
Note OFF: Time 139200, Note Name: F#5
Note ON: Time 139200, Note Name: G#5, Velocity: 50
Note OFF: Time 139440, Note Name: G#5
Note ON: Time 139440, Note Name: F#5, Velocity: 46
Note OFF: Time 139680, Note Name: F#5
Note ON: Time 139680, Note Name: F5, Velocity: 50
Note OFF: Time 139920, Note Name: F5
Note ON: Time 139920, Note Name: D#5, Velocity: 46
Note OFF: Time 140160, Note Name: D#5
Note ON: Time 140160, Note Name: C#5, Velocity: 50
Note OFF: Time 140640, Note Name: C#5
Note ON: Time 140640, Note Name: C#6, Velocity: 53
Note OFF: Time 141120, Note Name: C#6
Note ON: Time 141120, Note Name: G#5, Velocity: 49
Note OFF: Time 142080, Note Name: G#5
Note ON: Time 142080, Note Name: F5, Velocity: 52
Note OFF: Time 143040, Note Name: F5
Note ON: Time 143040, Note Name: F#5, Velocity: 51
Note OFF: Time 143280, Note Name: F#5
Note ON: Time 143280, Note Name: F5, Velocity: 46
Note OFF: Time 143520, Note Name: F5
Note ON: Time 143520, Note Name: D#5, Velocity: 50
Note OFF: Time 143760, Note Name: D#5
Note ON: Time 143760, Note Name: D5, Velocity: 46
Note OFF: Time 143880, Note Name: D5
Note ON: Time 143880, Note Name: D#5, Velocity: 46
Note OFF: Time 143940, Note Name: D#5
Note ON: Time 143940, Note Name: F5, Velocity: 42
Note OFF: Time 144000, Note Name: F5
Note ON: Time 144000, Note Name: D#5, Velocity: 53
Note OFF: Time 144240, Note Name: D#5
Note ON: Time 144240, Note Name: D5, Velocity: 51
Note OFF: Time 144480, Note Name: D5
Note ON: Time 144480, Note Name: D#5, Velocity: 54
Note OFF: Time 144720, Note Name: D#5
Note ON: Time 144720, Note Name: F5, Velocity: 55
Note OFF: Time 144960, Note Name: F5
Note ON: Time 144960, Note Name: F#5, Velocity: 57
Note OFF: Time 145200, Note Name: F#5
Note ON: Time 145200, Note Name: A#4, Velocity: 52
Note OFF: Time 145440, Note Name: A#4
Note ON: Time 145440, Note Name: F5, Velocity: 57
Note OFF: Time 145680, Note Name: F5
Note ON: Time 145680, Note Name: D#5, Velocity: 50
Note OFF: Time 145800, Note Name: D#5
Note ON: Time 145800, Note Name: C5, Velocity: 39
Note OFF: Time 145860, Note Name: C5
Note ON: Time 145860, Note Name: C#5, Velocity: 39
Note OFF: Time 145920, Note Name: C#5
Note ON: Time 145920, Note Name: C#5, Velocity: 39
Note OFF: Time 145965, Note Name: C#5
Note ON: Time 145965, Note Name: D#5, Velocity: 36
Note OFF: Time 146010, Note Name: D#5
Note ON: Time 146010, Note Name: C#5, Velocity: 40
Note OFF: Time 146055, Note Name: C#5
Note ON: Time 146055, Note Name: D#5, Velocity: 37
Note OFF: Time 146100, Note Name: D#5
Note ON: Time 146100, Note Name: C#5, Velocity: 42
Note OFF: Time 146145, Note Name: C#5
Note ON: Time 146145, Note Name: D#5, Velocity: 38
Note OFF: Time 146190, Note Name: D#5
Note ON: Time 146190, Note Name: C#5, Velocity: 44
Note OFF: Time 146235, Note Name: C#5
Note ON: Time 146235, Note Name: D#5, Velocity: 39
Note OFF: Time 146280, Note Name: D#5
Note ON: Time 146280, Note Name: C#5, Velocity: 46
Note OFF: Time 146325, Note Name: C#5
Note ON: Time 146325, Note Name: D#5, Velocity: 42
Note OFF: Time 146370, Note Name: D#5
Note ON: Time 146370, Note Name: C#5, Velocity: 48
Note OFF: Time 146415, Note Name: C#5
Note ON: Time 146415, Note Name: D#5, Velocity: 42
Note OFF: Time 146460, Note Name: D#5
Note ON: Time 146460, Note Name: C#5, Velocity: 47
Note OFF: Time 146505, Note Name: C#5
Note ON: Time 146506, Note Name: D#5, Velocity: 40
Note ON: Time 146550, Note Name: C#5, Velocity: 44
Note OFF: Time 146551, Note Name: D#5
Note OFF: Time 146595, Note Name: C#5
Note ON: Time 146595, Note Name: D#5, Velocity: 38
Note ON: Time 146640, Note Name: C#5, Velocity: 42
Note OFF: Time 146641, Note Name: D#5
Note OFF: Time 146700, Note Name: C#5
Note ON: Time 146700, Note Name: D#5, Velocity: 37
Note OFF: Time 146760, Note Name: D#5
Note ON: Time 146760, Note Name: C5, Velocity: 40
Note OFF: Time 146820, Note Name: C5
Note ON: Time 146820, Note Name: C#5, Velocity: 35
Note OFF: Time 146880, Note Name: C#5
Note ON: Time 146880, Note Name: A#5, Velocity: 54
Note OFF: Time 147120, Note Name: A#5
Note ON: Time 147120, Note Name: G#5, Velocity: 50
Note OFF: Time 147360, Note Name: G#5
Note ON: Time 147360, Note Name: F#5, Velocity: 52
Note OFF: Time 147600, Note Name: F#5
Note ON: Time 147600, Note Name: G#4, Velocity: 50
Note OFF: Time 147840, Note Name: G#4
Note ON: Time 147840, Note Name: D#5, Velocity: 54
Note OFF: Time 148800, Note Name: D#5
Note ON: Time 148800, Note Name: C#5, Velocity: 45
Note OFF: Time 149280, Note Name: C#5
Note ON: Time 149760, Note Name: F3, Velocity: 34
Note ON: Time 149760, Note Name: A#3, Velocity: 40
Note OFF: Time 150240, Note Name: A#3
Note OFF: Time 150240, Note Name: F3
Note ON: Time 150240, Note Name: F#3, Velocity: 34
Note ON: Time 150240, Note Name: A#3, Velocity: 40
Note OFF: Time 150600, Note Name: A#3
Note ON: Time 150600, Note Name: A#3, Velocity: 36
Note OFF: Time 150708, Note Name: A#3
Note OFF: Time 150720, Note Name: F#3
Note ON: Time 150720, Note Name: F3, Velocity: 34
Note ON: Time 150720, Note Name: A#3, Velocity: 40
Note OFF: Time 151200, Note Name: F3
Note ON: Time 151200, Note Name: F#3, Velocity: 28
Note OFF: Time 151680, Note Name: F#3
Note OFF: Time 151680, Note Name: A#3
Note ON: Time 151680, Note Name: F3, Velocity: 34
Note ON: Time 151680, Note Name: A#3, Velocity: 40
Note OFF: Time 152160, Note Name: A#3
Note OFF: Time 152160, Note Name: F3
Note ON: Time 152160, Note Name: F#3, Velocity: 34
Note ON: Time 152160, Note Name: A#3, Velocity: 40
Note OFF: Time 152520, Note Name: A#3
Note ON: Time 152520, Note Name: A#3, Velocity: 36
Note OFF: Time 152628, Note Name: A#3
Note OFF: Time 152640, Note Name: F#3
Note ON: Time 152640, Note Name: F3, Velocity: 34
Note ON: Time 152640, Note Name: A#3, Velocity: 40
Note OFF: Time 153120, Note Name: F3
Note ON: Time 153120, Note Name: F#3, Velocity: 28
Note OFF: Time 153600, Note Name: F#3
Note OFF: Time 153600, Note Name: A#3
Note ON: Time 153600, Note Name: F3, Velocity: 34
Note ON: Time 153600, Note Name: A#3, Velocity: 40
Note OFF: Time 154080, Note Name: A#3
Note OFF: Time 154080, Note Name: F3
Note ON: Time 154080, Note Name: F#3, Velocity: 34
Note ON: Time 154080, Note Name: A#3, Velocity: 40
Note OFF: Time 154440, Note Name: A#3
Note ON: Time 154440, Note Name: A#3, Velocity: 36
Note OFF: Time 154548, Note Name: A#3
Note OFF: Time 154560, Note Name: F#3
Note ON: Time 154560, Note Name: F3, Velocity: 34
Note ON: Time 154560, Note Name: A#3, Velocity: 40
Note OFF: Time 155040, Note Name: A#3
Note OFF: Time 155040, Note Name: F3
Note ON: Time 155040, Note Name: C#4, Velocity: 49
Note ON: Time 155040, Note Name: F#3, Velocity: 39
Note OFF: Time 155400, Note Name: C#4
Note ON: Time 155400, Note Name: C4, Velocity: 45
Note OFF: Time 155508, Note Name: C4
Note OFF: Time 155520, Note Name: F#3
Note ON: Time 155520, Note Name: C4, Velocity: 48
Note ON: Time 155520, Note Name: F3, Velocity: 39
Note OFF: Time 155880, Note Name: C4
Note ON: Time 155880, Note Name: A#3, Velocity: 42
Note OFF: Time 155988, Note Name: A#3
Note OFF: Time 156000, Note Name: F3
Note ON: Time 156000, Note Name: F#3, Velocity: 37
Note ON: Time 156000, Note Name: A#3, Velocity: 44
Note OFF: Time 156360, Note Name: A#3
Note ON: Time 156360, Note Name: A#3, Velocity: 36
Note OFF: Time 156468, Note Name: A#3
Note OFF: Time 156480, Note Name: F#3
Note ON: Time 156480, Note Name: F3, Velocity: 34
Note ON: Time 156480, Note Name: A#3, Velocity: 40
Note OFF: Time 156960, Note Name: F3
Note ON: Time 156960, Note Name: F#3, Velocity: 28
Note OFF: Time 157440, Note Name: F#3
Note OFF: Time 157440, Note Name: A#3
Note ON: Time 157440, Note Name: A#3, Velocity: 42
Note ON: Time 157440, Note Name: F3, Velocity: 42
Note ON: Time 157440, Note Name: C#4, Velocity: 50
Note OFF: Time 157920, Note Name: C#4
Note OFF: Time 157920, Note Name: F3
Note OFF: Time 157920, Note Name: A#3
Note ON: Time 157920, Note Name: A#3, Velocity: 42
Note ON: Time 157920, Note Name: F#3, Velocity: 42
Note ON: Time 157920, Note Name: C#4, Velocity: 50
Note OFF: Time 158280, Note Name: C#4
Note ON: Time 158280, Note Name: C#4, Velocity: 45
Note OFF: Time 158388, Note Name: C#4
Note OFF: Time 158400, Note Name: F#3
Note OFF: Time 158400, Note Name: A#3
Note ON: Time 158400, Note Name: A#3, Velocity: 42
Note ON: Time 158400, Note Name: F3, Velocity: 42
Note ON: Time 158400, Note Name: C#4, Velocity: 50
Note OFF: Time 158880, Note Name: C#4
Note OFF: Time 158880, Note Name: F3
Note OFF: Time 158880, Note Name: A#3
Note ON: Time 158880, Note Name: F4, Velocity: 59
Note ON: Time 158880, Note Name: C#4, Velocity: 52
Note ON: Time 158880, Note Name: F#3, Velocity: 48
Note OFF: Time 159240, Note Name: C#4
Note OFF: Time 159240, Note Name: F4
Note ON: Time 159240, Note Name: D#4, Velocity: 53
Note ON: Time 159240, Note Name: C4, Velocity: 47
Note OFF: Time 159300, Note Name: C4
Note OFF: Time 159300, Note Name: D#4
Note ON: Time 159300, Note Name: F4, Velocity: 48
Note OFF: Time 159360, Note Name: F4
Note OFF: Time 159360, Note Name: F#3
Note ON: Time 159360, Note Name: D#4, Velocity: 57
Note ON: Time 159360, Note Name: C4, Velocity: 51
Note ON: Time 159360, Note Name: F3, Velocity: 48
Note OFF: Time 159720, Note Name: C4
Note OFF: Time 159720, Note Name: D#4
Note ON: Time 159720, Note Name: C#4, Velocity: 50
Note ON: Time 159720, Note Name: A#3, Velocity: 45
Note OFF: Time 159828, Note Name: A#3
Note OFF: Time 159828, Note Name: C#4
Note OFF: Time 159840, Note Name: F3
Note ON: Time 159840, Note Name: C#4, Velocity: 55
Note ON: Time 159840, Note Name: F#3, Velocity: 46
Note ON: Time 159840, Note Name: A#3, Velocity: 48
Note OFF: Time 160200, Note Name: A#3
Note OFF: Time 160200, Note Name: C#4
Note ON: Time 160200, Note Name: C#4, Velocity: 45
Note ON: Time 160200, Note Name: A#3, Velocity: 39
Note OFF: Time 160308, Note Name: A#3
Note OFF: Time 160308, Note Name: C#4
Note OFF: Time 160320, Note Name: F#3
Note ON: Time 160320, Note Name: C#4, Velocity: 50
Note ON: Time 160320, Note Name: F3, Velocity: 42
Note ON: Time 160320, Note Name: A#3, Velocity: 45
Note OFF: Time 160800, Note Name: F3
Note ON: Time 160800, Note Name: F#3, Velocity: 35
Note OFF: Time 161280, Note Name: F#3
Note OFF: Time 161280, Note Name: A#3
Note OFF: Time 161280, Note Name: C#4
Note ON: Time 161280, Note Name: C#4, Velocity: 58
Note ON: Time 161280, Note Name: A#4, Velocity: 73
Note ON: Time 161280, Note Name: A#3, Velocity: 58
Note OFF: Time 161520, Note Name: A#4
Note ON: Time 161520, Note Name: G#4, Velocity: 67
Note OFF: Time 161700, Note Name: G#4
Note OFF: Time 161700, Note Name: A#3
Note OFF: Time 161700, Note Name: C#4
Note ON: Time 161700, Note Name: G#4, Velocity: 58
Note OFF: Time 161760, Note Name: G#4
Note ON: Time 161760, Note Name: C#4, Velocity: 55
Note ON: Time 161760, Note Name: F#4, Velocity: 61
Note ON: Time 161760, Note Name: A#3, Velocity: 55
Note OFF: Time 162120, Note Name: F#4
Note ON: Time 162120, Note Name: F4, Velocity: 53
Note OFF: Time 162228, Note Name: F4
Note OFF: Time 162240, Note Name: A#3
Note OFF: Time 162240, Note Name: C#4
Note ON: Time 162240, Note Name: A#3, Velocity: 50
Note ON: Time 162240, Note Name: F4, Velocity: 59
Note ON: Time 162240, Note Name: C#4, Velocity: 50
Note OFF: Time 162720, Note Name: C#4
Note OFF: Time 162720, Note Name: F4
Note OFF: Time 162720, Note Name: A#3
Note ON: Time 162720, Note Name: A#3, Velocity: 42
Note ON: Time 162720, Note Name: C#4, Velocity: 51
Note OFF: Time 163200, Note Name: C#4
Note OFF: Time 163200, Note Name: A#3
Note ON: Time 163200, Note Name: C#4, Velocity: 58
Note ON: Time 163200, Note Name: A#4, Velocity: 73
Note ON: Time 163200, Note Name: A#3, Velocity: 58
Note OFF: Time 163440, Note Name: A#4
Note ON: Time 163440, Note Name: G#4, Velocity: 67
Note OFF: Time 163620, Note Name: G#4
Note OFF: Time 163620, Note Name: A#3
Note OFF: Time 163620, Note Name: C#4
Note ON: Time 163620, Note Name: G#4, Velocity: 58
Note OFF: Time 163680, Note Name: G#4
Note ON: Time 163680, Note Name: C#4, Velocity: 55
Note ON: Time 163680, Note Name: F#4, Velocity: 61
Note ON: Time 163680, Note Name: A#3, Velocity: 55
Note OFF: Time 164040, Note Name: F#4
Note ON: Time 164040, Note Name: F4, Velocity: 54
Note OFF: Time 164148, Note Name: F4
Note OFF: Time 164160, Note Name: A#3
Note OFF: Time 164160, Note Name: C#4
Note ON: Time 164160, Note Name: A#3, Velocity: 50
Note ON: Time 164160, Note Name: F4, Velocity: 59
Note ON: Time 164160, Note Name: C#4, Velocity: 50
Note OFF: Time 164640, Note Name: C#4
Note OFF: Time 164640, Note Name: F4
Note OFF: Time 164640, Note Name: A#3
Note ON: Time 164640, Note Name: A#3, Velocity: 42
Note ON: Time 164640, Note Name: C#4, Velocity: 51
Note OFF: Time 165120, Note Name: C#4
Note OFF: Time 165120, Note Name: A#3
Note ON: Time 165120, Note Name: F3, Velocity: 39
Note ON: Time 165120, Note Name: A#3, Velocity: 46
Note OFF: Time 165600, Note Name: A#3
Note OFF: Time 165600, Note Name: F3
Note ON: Time 165600, Note Name: F#3, Velocity: 39
Note ON: Time 165600, Note Name: A#3, Velocity: 46
Note OFF: Time 165960, Note Name: A#3
Note ON: Time 165960, Note Name: A#3, Velocity: 41
Note OFF: Time 166068, Note Name: A#3
Note OFF: Time 166080, Note Name: F#3
Note ON: Time 166080, Note Name: F3, Velocity: 39
Note ON: Time 166080, Note Name: A#3, Velocity: 46
Note OFF: Time 166560, Note Name: A#3
Note OFF: Time 166560, Note Name: F3
Note ON: Time 166560, Note Name: C#4, Velocity: 54
Note ON: Time 166560, Note Name: F#3, Velocity: 44
Note OFF: Time 166920, Note Name: C#4
Note ON: Time 166920, Note Name: C4, Velocity: 49
Note OFF: Time 166980, Note Name: C4
Note ON: Time 166980, Note Name: C#4, Velocity: 45
Note OFF: Time 167040, Note Name: C#4
Note OFF: Time 167040, Note Name: F#3
Note ON: Time 167040, Note Name: C4, Velocity: 52
Note ON: Time 167040, Note Name: F3, Velocity: 44
Note OFF: Time 167400, Note Name: C4
Note ON: Time 167400, Note Name: A#3, Velocity: 46
Note OFF: Time 167508, Note Name: A#3
Note OFF: Time 167520, Note Name: F3
Note ON: Time 167520, Note Name: F#3, Velocity: 42
Note ON: Time 167520, Note Name: A#3, Velocity: 50
Note OFF: Time 167880, Note Name: A#3
Note ON: Time 167880, Note Name: A#3, Velocity: 41
Note OFF: Time 167988, Note Name: A#3
Note OFF: Time 168000, Note Name: F#3
Note ON: Time 168000, Note Name: F3, Velocity: 39
Note ON: Time 168000, Note Name: A#3, Velocity: 46
Note OFF: Time 168480, Note Name: F3
Note ON: Time 168480, Note Name: F#3, Velocity: 32
Note OFF: Time 168960, Note Name: F#3
Note OFF: Time 168960, Note Name: A#3
Note ON: Time 168960, Note Name: C#5, Velocity: 68
Note ON: Time 168960, Note Name: A#5, Velocity: 83
Note ON: Time 168960, Note Name: A#4, Velocity: 68
Note OFF: Time 169200, Note Name: A#4
Note OFF: Time 169200, Note Name: A#5
Note ON: Time 169200, Note Name: G#4, Velocity: 56
Note ON: Time 169200, Note Name: G#5, Velocity: 73
Note OFF: Time 169380, Note Name: G#5
Note OFF: Time 169380, Note Name: G#4
Note ON: Time 169380, Note Name: G#4, Velocity: 64
Note OFF: Time 169400, Note Name: G#4
Note ON: Time 169400, Note Name: C#5, Velocity: 57
Note OFF: Time 169420, Note Name: C#5
Note ON: Time 169420, Note Name: G#5, Velocity: 59
Note OFF: Time 169440, Note Name: G#5
Note ON: Time 169440, Note Name: C#5, Velocity: 74
Note ON: Time 169440, Note Name: F#5, Velocity: 73
Note ON: Time 169440, Note Name: F#4, Velocity: 61
Note OFF: Time 169800, Note Name: F#5
Note ON: Time 169800, Note Name: F4, Velocity: 52
Note ON: Time 169800, Note Name: F5, Velocity: 61
Note OFF: Time 169908, Note Name: F5
Note OFF: Time 169908, Note Name: F4
Note OFF: Time 169920, Note Name: F#4
Note OFF: Time 169920, Note Name: C#5
Note OFF: Time 169920, Note Name: C#5
Note ON: Time 169920, Note Name: F4, Velocity: 58
Note ON: Time 169920, Note Name: F5, Velocity: 69
Note ON: Time 169920, Note Name: C#5, Velocity: 69
Note OFF: Time 170400, Note Name: C#5
Note OFF: Time 170400, Note Name: F5
Note OFF: Time 170400, Note Name: F4
Note ON: Time 170400, Note Name: C#5, Velocity: 68
Note ON: Time 170400, Note Name: C#4, Velocity: 57
Note ON: Time 170400, Note Name: A#4, Velocity: 68
Note OFF: Time 170880, Note Name: A#4
Note OFF: Time 170880, Note Name: C#4
Note OFF: Time 170880, Note Name: C#5
Note ON: Time 170880, Note Name: C#5, Velocity: 68
Note ON: Time 170880, Note Name: A#5, Velocity: 83
Note ON: Time 170880, Note Name: A#4, Velocity: 68
Note OFF: Time 171120, Note Name: A#4
Note OFF: Time 171120, Note Name: A#5
Note ON: Time 171120, Note Name: G#4, Velocity: 56
Note ON: Time 171120, Note Name: G#5, Velocity: 73
Note OFF: Time 171300, Note Name: G#5
Note OFF: Time 171300, Note Name: G#4
Note ON: Time 171300, Note Name: G#4, Velocity: 66
Note OFF: Time 171320, Note Name: G#4
Note ON: Time 171320, Note Name: C#5, Velocity: 58
Note OFF: Time 171340, Note Name: C#5
Note ON: Time 171340, Note Name: G#5, Velocity: 58
Note OFF: Time 171360, Note Name: G#5
Note ON: Time 171360, Note Name: C#5, Velocity: 76
Note ON: Time 171360, Note Name: F#5, Velocity: 73
Note ON: Time 171360, Note Name: F#4, Velocity: 63
Note OFF: Time 171720, Note Name: F#5
Note ON: Time 171720, Note Name: F4, Velocity: 52
Note ON: Time 171720, Note Name: F5, Velocity: 61
Note OFF: Time 171828, Note Name: F5
Note OFF: Time 171828, Note Name: F4
Note OFF: Time 171840, Note Name: F#4
Note OFF: Time 171840, Note Name: C#5
Note OFF: Time 171840, Note Name: C#5
Note ON: Time 171840, Note Name: F4, Velocity: 58
Note ON: Time 171840, Note Name: F5, Velocity: 69
Note ON: Time 171840, Note Name: C#5, Velocity: 69
Note OFF: Time 172320, Note Name: C#5
Note OFF: Time 172320, Note Name: F5
Note OFF: Time 172320, Note Name: F4
Note ON: Time 172320, Note Name: C#5, Velocity: 68
Note ON: Time 172320, Note Name: C#4, Velocity: 57
Note ON: Time 172320, Note Name: A#4, Velocity: 68
Note OFF: Time 172800, Note Name: A#4
Note OFF: Time 172800, Note Name: C#4
Note OFF: Time 172800, Note Name: C#5
Note ON: Time 172800, Note Name: A#3, Velocity: 52
Note ON: Time 172800, Note Name: F4, Velocity: 52
Note ON: Time 172800, Note Name: A#4, Velocity: 61
Note OFF: Time 173280, Note Name: A#4
Note OFF: Time 173280, Note Name: F4
Note OFF: Time 173280, Note Name: A#3
Note ON: Time 173280, Note Name: A#3, Velocity: 53
Note ON: Time 173280, Note Name: F#4, Velocity: 53
Note ON: Time 173280, Note Name: A#4, Velocity: 63
Note OFF: Time 173640, Note Name: A#4
Note OFF: Time 173640, Note Name: A#3
Note ON: Time 173640, Note Name: A#3, Velocity: 48
Note ON: Time 173640, Note Name: A#4, Velocity: 57
Note OFF: Time 173748, Note Name: A#4
Note OFF: Time 173748, Note Name: A#3
Note OFF: Time 173760, Note Name: F#4
Note ON: Time 173760, Note Name: A#3, Velocity: 54
Note ON: Time 173760, Note Name: F4, Velocity: 54
Note ON: Time 173760, Note Name: A#4, Velocity: 65
Note OFF: Time 174240, Note Name: A#4
Note OFF: Time 174240, Note Name: F4
Note OFF: Time 174240, Note Name: A#3
Note ON: Time 174240, Note Name: C#4, Velocity: 68
Note ON: Time 174240, Note Name: C#5, Velocity: 82
Note ON: Time 174240, Note Name: F#4, Velocity: 66
Note OFF: Time 174600, Note Name: C#5
Note OFF: Time 174600, Note Name: C#4
Note ON: Time 174600, Note Name: C4, Velocity: 59
Note ON: Time 174600, Note Name: C5, Velocity: 71
Note OFF: Time 174708, Note Name: C5
Note OFF: Time 174708, Note Name: C4
Note OFF: Time 174720, Note Name: F#4
Note ON: Time 174720, Note Name: C4, Velocity: 68
Note ON: Time 174720, Note Name: C5, Velocity: 79
Note ON: Time 174720, Note Name: F4, Velocity: 68
Note OFF: Time 175080, Note Name: C5
Note OFF: Time 175080, Note Name: C4
Note ON: Time 175080, Note Name: A#3, Velocity: 59
Note ON: Time 175080, Note Name: A#4, Velocity: 71
Note OFF: Time 175188, Note Name: A#4
Note OFF: Time 175188, Note Name: A#3
Note OFF: Time 175200, Note Name: F4
Note ON: Time 175200, Note Name: A#3, Velocity: 64
Note ON: Time 175200, Note Name: F#4, Velocity: 64
Note ON: Time 175200, Note Name: A#4, Velocity: 77
Note OFF: Time 175560, Note Name: A#4
Note OFF: Time 175560, Note Name: A#3
Note ON: Time 175560, Note Name: A#3, Velocity: 60
Note ON: Time 175560, Note Name: A#4, Velocity: 72
Note OFF: Time 175668, Note Name: A#4
Note OFF: Time 175668, Note Name: A#3
Note OFF: Time 175680, Note Name: F#4
Note ON: Time 175680, Note Name: A#3, Velocity: 63
Note ON: Time 175680, Note Name: F4, Velocity: 64
Note ON: Time 175680, Note Name: A#4, Velocity: 76
Note OFF: Time 176160, Note Name: A#4
Note OFF: Time 176160, Note Name: F4
Note OFF: Time 176160, Note Name: A#3
Note ON: Time 176160, Note Name: G#4, Velocity: 75
Note ON: Time 176160, Note Name: C4, Velocity: 75
Note ON: Time 176160, Note Name: C5, Velocity: 95
Note ON: Time 176160, Note Name: F#4, Velocity: 75
Note OFF: Time 176640, Note Name: F#4
Note OFF: Time 176640, Note Name: G#4
Note OFF: Time 176640, Note Name: C4
Note OFF: Time 176640, Note Name: C5
Note ON: Time 176640, Note Name: C#4, Velocity: 78
Note ON: Time 176640, Note Name: F4, Velocity: 78
Note ON: Time 176640, Note Name: C#5, Velocity: 100
Note OFF: Time 177120, Note Name: C#5
Note OFF: Time 177120, Note Name: F4
Note OFF: Time 177120, Note Name: C#4
Note ON: Time 177120, Note Name: F4, Velocity: 74
Note ON: Time 177120, Note Name: C#5, Velocity: 74
Note ON: Time 177120, Note Name: F5, Velocity: 89
Note OFF: Time 177480, Note Name: F5
Note OFF: Time 177480, Note Name: C#5
Note OFF: Time 177480, Note Name: F4
Note ON: Time 177480, Note Name: F#4, Velocity: 74
Note ON: Time 177480, Note Name: F#5, Velocity: 89
Note OFF: Time 177600, Note Name: F#5
Note OFF: Time 177600, Note Name: F#4
Note ON: Time 177600, Note Name: G#4, Velocity: 78
Note ON: Time 177600, Note Name: C#5, Velocity: 78
Note ON: Time 177600, Note Name: G#5, Velocity: 93
Note OFF: Time 177960, Note Name: G#5
Note OFF: Time 177960, Note Name: C#5
Note OFF: Time 177960, Note Name: G#4
Note ON: Time 177960, Note Name: A#4, Velocity: 78
Note ON: Time 177960, Note Name: A#5, Velocity: 93
Note OFF: Time 178080, Note Name: A#5
Note OFF: Time 178080, Note Name: A#4
Note ON: Time 178080, Note Name: C5, Velocity: 84
Note ON: Time 178080, Note Name: G#5, Velocity: 84
Note ON: Time 178080, Note Name: C6, Velocity: 99
Note OFF: Time 178440, Note Name: C6
Note OFF: Time 178440, Note Name: G#5
Note OFF: Time 178440, Note Name: C5
Note ON: Time 178440, Note Name: C#5, Velocity: 88
Note ON: Time 178440, Note Name: C#6, Velocity: 102
Note OFF: Time 178560, Note Name: C#6
Note OFF: Time 178560, Note Name: C#5
Note ON: Time 178560, Note Name: C6, Velocity: 88
Note ON: Time 178560, Note Name: G#5, Velocity: 88
Note ON: Time 178560, Note Name: F5, Velocity: 88
Note ON: Time 178560, Note Name: F6, Velocity: 103
Note OFF: Time 179520, Note Name: F6
Note OFF: Time 179520, Note Name: F5
Note ON: Time 179520, Note Name: D#5, Velocity: 79
Note ON: Time 179520, Note Name: D#6, Velocity: 95
Note OFF: Time 180240, Note Name: D#6
Note OFF: Time 180240, Note Name: C6
Note OFF: Time 180240, Note Name: G#5
Note OFF: Time 180240, Note Name: D#5
Note ON: Time 180360, Note Name: F#4, Velocity: 75
Note ON: Time 180360, Note Name: C5, Velocity: 75
Note ON: Time 180360, Note Name: D#5, Velocity: 75
Note ON: Time 180360, Note Name: F#5, Velocity: 89
Note OFF: Time 180480, Note Name: F#5
Note OFF: Time 180480, Note Name: F#4
Note OFF: Time 180480, Note Name: C5
Note OFF: Time 180480, Note Name: D#5
Note ON: Time 180480, Note Name: D#5, Velocity: 80
Note ON: Time 180480, Note Name: F4, Velocity: 80
Note ON: Time 180480, Note Name: C5, Velocity: 80
Note ON: Time 180480, Note Name: F5, Velocity: 102
Note OFF: Time 180960, Note Name: F5
Note OFF: Time 180960, Note Name: D#5
Note OFF: Time 180960, Note Name: F4
Note OFF: Time 180960, Note Name: C5
Note ON: Time 180960, Note Name: A#4, Velocity: 74
Note ON: Time 180960, Note Name: F4, Velocity: 74
Note ON: Time 180960, Note Name: C#5, Velocity: 74
Note ON: Time 180960, Note Name: F5, Velocity: 89
Note OFF: Time 181320, Note Name: F5
Note OFF: Time 181320, Note Name: A#4
Note OFF: Time 181320, Note Name: F4
Note OFF: Time 181320, Note Name: C#5
Note ON: Time 181320, Note Name: G4, Velocity: 74
Note ON: Time 181320, Note Name: G5, Velocity: 89
Note OFF: Time 181440, Note Name: G5
Note OFF: Time 181440, Note Name: G4
Note ON: Time 181440, Note Name: F5, Velocity: 78
Note ON: Time 181440, Note Name: A4, Velocity: 78
Note ON: Time 181440, Note Name: C#5, Velocity: 78
Note ON: Time 181440, Note Name: A5, Velocity: 93
Note OFF: Time 181800, Note Name: A5
Note OFF: Time 181800, Note Name: F5
Note OFF: Time 181800, Note Name: A4
Note OFF: Time 181800, Note Name: C#5
Note ON: Time 181800, Note Name: A#4, Velocity: 78
Note ON: Time 181800, Note Name: A#5, Velocity: 93
Note OFF: Time 181920, Note Name: A#5
Note OFF: Time 181920, Note Name: A#4
Note ON: Time 181920, Note Name: C5, Velocity: 84
Note ON: Time 181920, Note Name: F5, Velocity: 84
Note ON: Time 181920, Note Name: C6, Velocity: 99
Note OFF: Time 182280, Note Name: C6
Note OFF: Time 182280, Note Name: F5
Note OFF: Time 182280, Note Name: C5
Note ON: Time 182280, Note Name: C#5, Velocity: 88
Note ON: Time 182280, Note Name: C#6, Velocity: 102
Note OFF: Time 182340, Note Name: C#6
Note OFF: Time 182340, Note Name: C#5
Note ON: Time 182340, Note Name: A#4, Velocity: 88
Note ON: Time 182360, Note Name: E5, Velocity: 88
Note ON: Time 182380, Note Name: G5, Velocity: 88
Note ON: Time 182400, Note Name: C#6, Velocity: 103
Note OFF: Time 183360, Note Name: C#6
Note OFF: Time 183360, Note Name: A#4
Note OFF: Time 183360, Note Name: E5
Note OFF: Time 183360, Note Name: G5
Note ON: Time 183360, Note Name: C5, Velocity: 76
Note ON: Time 183360, Note Name: F5, Velocity: 76
Note ON: Time 183360, Note Name: C6, Velocity: 90
Note OFF: Time 183840, Note Name: C6
Note OFF: Time 183840, Note Name: F5
Note OFF: Time 183840, Note Name: C5
Note ON: Time 184320, Note Name: G#3, Velocity: 68
Note ON: Time 184320, Note Name: F#3, Velocity: 68
Note ON: Time 184320, Note Name: C4, Velocity: 68
Note ON: Time 184320, Note Name: F4, Velocity: 68
Note ON: Time 184320, Note Name: G#4, Velocity: 80
Note OFF: Time 184800, Note Name: G#4
Note OFF: Time 184800, Note Name: C4
Note OFF: Time 184800, Note Name: G#3
Note OFF: Time 184800, Note Name: F#3
Note OFF: Time 184800, Note Name: F4
Note ON: Time 184800, Note Name: F#3, Velocity: 68
Note ON: Time 184800, Note Name: G#3, Velocity: 68
Note ON: Time 184800, Note Name: C4, Velocity: 68
Note ON: Time 184800, Note Name: D#4, Velocity: 68
Note ON: Time 184800, Note Name: G#4, Velocity: 80
Note OFF: Time 185280, Note Name: G#4
Note OFF: Time 185280, Note Name: C4
Note OFF: Time 185280, Note Name: F#3
Note OFF: Time 185280, Note Name: G#3
Note OFF: Time 185280, Note Name: D#4
Note ON: Time 185280, Note Name: F3, Velocity: 68
Note ON: Time 185280, Note Name: C#4, Velocity: 68
Note ON: Time 185280, Note Name: G#4, Velocity: 80
Note OFF: Time 185760, Note Name: G#4
Note OFF: Time 185760, Note Name: C#4
Note OFF: Time 185760, Note Name: F3
Note ON: Time 186240, Note Name: A3, Velocity: 68
Note ON: Time 186240, Note Name: D#3, Velocity: 68
Note ON: Time 186240, Note Name: C#4, Velocity: 68
Note ON: Time 186240, Note Name: F4, Velocity: 80
Note OFF: Time 186720, Note Name: F4
Note OFF: Time 186720, Note Name: A3
Note OFF: Time 186720, Note Name: D#3
Note OFF: Time 186720, Note Name: C#4
Note ON: Time 186720, Note Name: D#3, Velocity: 68
Note ON: Time 186720, Note Name: A3, Velocity: 68
Note ON: Time 186720, Note Name: C4, Velocity: 68
Note ON: Time 186720, Note Name: F4, Velocity: 80
Note OFF: Time 187200, Note Name: F4
Note OFF: Time 187200, Note Name: D#3
Note OFF: Time 187200, Note Name: A3
Note OFF: Time 187200, Note Name: C4
Note ON: Time 187200, Note Name: C#3, Velocity: 68
Note ON: Time 187200, Note Name: A#3, Velocity: 80
Note OFF: Time 188160, Note Name: A#3
Note OFF: Time 188160, Note Name: C#3
Note ON: Time 188160, Note Name: A#2, Velocity: 39
Note ON: Time 188160, Note Name: F3, Velocity: 39
Note ON: Time 188160, Note Name: A#3, Velocity: 46
Note OFF: Time 188640, Note Name: A#3
Note OFF: Time 188640, Note Name: F3
Note OFF: Time 188640, Note Name: A#2
Note ON: Time 188640, Note Name: F#3, Velocity: 39
Note ON: Time 188640, Note Name: A#3, Velocity: 46
Note OFF: Time 189000, Note Name: A#3
Note ON: Time 189000, Note Name: A#3, Velocity: 41
Note OFF: Time 189108, Note Name: A#3
Note OFF: Time 189120, Note Name: F#3
Note ON: Time 189120, Note Name: F3, Velocity: 39
Note ON: Time 189120, Note Name: A#3, Velocity: 46
Note OFF: Time 189600, Note Name: A#3
Note OFF: Time 189600, Note Name: F3
Note ON: Time 189600, Note Name: C#4, Velocity: 54
Note ON: Time 189600, Note Name: F#3, Velocity: 44
Note OFF: Time 189960, Note Name: C#4
Note ON: Time 189960, Note Name: C4, Velocity: 49
Note OFF: Time 190020, Note Name: C4
Note ON: Time 190020, Note Name: C#4, Velocity: 45
Note OFF: Time 190080, Note Name: C#4
Note OFF: Time 190080, Note Name: F#3
Note ON: Time 190080, Note Name: C4, Velocity: 52
Note ON: Time 190080, Note Name: F3, Velocity: 44
Note OFF: Time 190440, Note Name: C4
Note ON: Time 190440, Note Name: A#3, Velocity: 46
Note OFF: Time 190560, Note Name: A#3
Note OFF: Time 190560, Note Name: F3
Note ON: Time 190560, Note Name: F#3, Velocity: 42
Note ON: Time 190560, Note Name: A#3, Velocity: 50
Note OFF: Time 190920, Note Name: A#3
Note ON: Time 190920, Note Name: A#3, Velocity: 41
Note OFF: Time 191028, Note Name: A#3
Note OFF: Time 191040, Note Name: F#3
Note ON: Time 191040, Note Name: F3, Velocity: 39
Note ON: Time 191040, Note Name: A#3, Velocity: 46
Note OFF: Time 191520, Note Name: A#3
Note OFF: Time 191520, Note Name: F3
Note ON: Time 191520, Note Name: G3, Velocity: 76
Note ON: Time 191520, Note Name: C#4, Velocity: 97
Note ON: Time 191520, Note Name: E3, Velocity: 76
Note OFF: Time 191880, Note Name: E3
Note OFF: Time 191880, Note Name: C#4
Note OFF: Time 191880, Note Name: G3
Note ON: Time 191880, Note Name: F#3, Velocity: 76
Note ON: Time 191880, Note Name: C4, Velocity: 76
Note ON: Time 191880, Note Name: D#4, Velocity: 97
Note OFF: Time 192000, Note Name: D#4
Note OFF: Time 192000, Note Name: C4
Note OFF: Time 192000, Note Name: F#3
Note ON: Time 192000, Note Name: F3, Velocity: 79
Note ON: Time 192000, Note Name: C#4, Velocity: 79
Note ON: Time 192000, Note Name: F4, Velocity: 101
Note OFF: Time 192480, Note Name: F4
Note OFF: Time 192480, Note Name: C#4
Note OFF: Time 192480, Note Name: F3
Note ON: Time 192480, Note Name: F4, Velocity: 74
Note ON: Time 192480, Note Name: C#5, Velocity: 74
Note ON: Time 192480, Note Name: F5, Velocity: 89
Note OFF: Time 192840, Note Name: F5
Note OFF: Time 192840, Note Name: C#5
Note OFF: Time 192840, Note Name: F4
Note ON: Time 192840, Note Name: F#4, Velocity: 74
Note ON: Time 192840, Note Name: F#5, Velocity: 89
Note OFF: Time 192960, Note Name: F#5
Note OFF: Time 192960, Note Name: F#4
Note ON: Time 192960, Note Name: G#4, Velocity: 79
Note ON: Time 192960, Note Name: C#5, Velocity: 79
Note ON: Time 192960, Note Name: G#5, Velocity: 93
Note OFF: Time 193320, Note Name: G#5
Note OFF: Time 193320, Note Name: C#5
Note OFF: Time 193320, Note Name: G#4
Note ON: Time 193320, Note Name: A#4, Velocity: 79
Note ON: Time 193320, Note Name: A#5, Velocity: 93
Note OFF: Time 193440, Note Name: A#5
Note OFF: Time 193440, Note Name: A#4
Note ON: Time 193440, Note Name: C5, Velocity: 84
Note ON: Time 193440, Note Name: G#5, Velocity: 84
Note ON: Time 193440, Note Name: C6, Velocity: 100
Note OFF: Time 193800, Note Name: C6
Note OFF: Time 193800, Note Name: G#5
Note OFF: Time 193800, Note Name: C5
Note ON: Time 193800, Note Name: C#5, Velocity: 88
Note ON: Time 193800, Note Name: C#6, Velocity: 103
Note OFF: Time 193920, Note Name: C#6
Note OFF: Time 193920, Note Name: C#5
Note ON: Time 193920, Note Name: C6, Velocity: 88
Note ON: Time 193920, Note Name: G#5, Velocity: 88
Note ON: Time 193920, Note Name: F5, Velocity: 88
Note ON: Time 193920, Note Name: F6, Velocity: 104
Note OFF: Time 194880, Note Name: F6
Note OFF: Time 194880, Note Name: F5
Note ON: Time 194880, Note Name: D#5, Velocity: 79
Note ON: Time 194880, Note Name: D#6, Velocity: 95
Note OFF: Time 195600, Note Name: D#6
Note OFF: Time 195600, Note Name: C6
Note OFF: Time 195600, Note Name: G#5
Note OFF: Time 195600, Note Name: D#5
Note ON: Time 195720, Note Name: F#4, Velocity: 72
Note ON: Time 195720, Note Name: C5, Velocity: 72
Note ON: Time 195720, Note Name: D#5, Velocity: 72
Note ON: Time 195720, Note Name: F#5, Velocity: 85
Note OFF: Time 195840, Note Name: F#5
Note OFF: Time 195840, Note Name: F#4
Note OFF: Time 195840, Note Name: C5
Note OFF: Time 195840, Note Name: D#5
Note ON: Time 195840, Note Name: D#5, Velocity: 77
Note ON: Time 195840, Note Name: F4, Velocity: 77
Note ON: Time 195840, Note Name: C5, Velocity: 77
Note ON: Time 195840, Note Name: F5, Velocity: 98
Note OFF: Time 196320, Note Name: F5
Note OFF: Time 196320, Note Name: D#5
Note OFF: Time 196320, Note Name: F4
Note OFF: Time 196320, Note Name: C5
Note ON: Time 196320, Note Name: A#4, Velocity: 74
Note ON: Time 196320, Note Name: F4, Velocity: 74
Note ON: Time 196320, Note Name: C#5, Velocity: 74
Note ON: Time 196320, Note Name: F5, Velocity: 89
Note OFF: Time 196680, Note Name: F5
Note OFF: Time 196680, Note Name: A#4
Note OFF: Time 196680, Note Name: F4
Note OFF: Time 196680, Note Name: C#5
Note ON: Time 196680, Note Name: G4, Velocity: 74
Note ON: Time 196680, Note Name: G5, Velocity: 89
Note OFF: Time 196800, Note Name: G5
Note OFF: Time 196800, Note Name: G4
Note ON: Time 196800, Note Name: F5, Velocity: 78
Note ON: Time 196800, Note Name: A4, Velocity: 78
Note ON: Time 196800, Note Name: C#5, Velocity: 78
Note ON: Time 196800, Note Name: A5, Velocity: 93
Note OFF: Time 197160, Note Name: A5
Note OFF: Time 197160, Note Name: F5
Note OFF: Time 197160, Note Name: A4
Note OFF: Time 197160, Note Name: C#5
Note ON: Time 197160, Note Name: A#4, Velocity: 78
Note ON: Time 197160, Note Name: A#5, Velocity: 93
Note OFF: Time 197280, Note Name: A#5
Note OFF: Time 197280, Note Name: A#4
Note ON: Time 197280, Note Name: C5, Velocity: 84
Note ON: Time 197280, Note Name: F5, Velocity: 84
Note ON: Time 197280, Note Name: C6, Velocity: 99
Note OFF: Time 197640, Note Name: C6
Note OFF: Time 197640, Note Name: F5
Note OFF: Time 197640, Note Name: C5
Note ON: Time 197640, Note Name: C#5, Velocity: 88
Note ON: Time 197640, Note Name: C#6, Velocity: 102
Note OFF: Time 197700, Note Name: C#6
Note OFF: Time 197700, Note Name: C#5
Note ON: Time 197700, Note Name: A#4, Velocity: 88
Note ON: Time 197720, Note Name: E5, Velocity: 88
Note ON: Time 197740, Note Name: G5, Velocity: 88
Note ON: Time 197760, Note Name: C#6, Velocity: 103
Note OFF: Time 198720, Note Name: C#6
Note OFF: Time 198720, Note Name: A#4
Note OFF: Time 198720, Note Name: E5
Note OFF: Time 198720, Note Name: G5
Note ON: Time 198720, Note Name: C5, Velocity: 76
Note ON: Time 198720, Note Name: F5, Velocity: 76
Note ON: Time 198720, Note Name: C6, Velocity: 90
Note OFF: Time 199200, Note Name: C6
Note OFF: Time 199200, Note Name: F5
Note OFF: Time 199200, Note Name: C5
Note ON: Time 199680, Note Name: G#3, Velocity: 68
Note ON: Time 199680, Note Name: F#3, Velocity: 68
Note ON: Time 199680, Note Name: C4, Velocity: 68
Note ON: Time 199680, Note Name: F4, Velocity: 68
Note ON: Time 199680, Note Name: G#4, Velocity: 80
Note OFF: Time 200160, Note Name: G#4
Note OFF: Time 200160, Note Name: C4
Note OFF: Time 200160, Note Name: G#3
Note OFF: Time 200160, Note Name: F#3
Note OFF: Time 200160, Note Name: F4
Note ON: Time 200160, Note Name: F#3, Velocity: 68
Note ON: Time 200160, Note Name: G#3, Velocity: 68
Note ON: Time 200160, Note Name: C4, Velocity: 68
Note ON: Time 200160, Note Name: D#4, Velocity: 68
Note ON: Time 200160, Note Name: G#4, Velocity: 80
Note OFF: Time 200640, Note Name: G#4
Note OFF: Time 200640, Note Name: C4
Note OFF: Time 200640, Note Name: F#3
Note OFF: Time 200640, Note Name: G#3
Note OFF: Time 200640, Note Name: D#4
Note ON: Time 200640, Note Name: F3, Velocity: 68
Note ON: Time 200640, Note Name: C#4, Velocity: 68
Note ON: Time 200640, Note Name: G#4, Velocity: 80
Note OFF: Time 201120, Note Name: G#4
Note OFF: Time 201120, Note Name: C#4
Note OFF: Time 201120, Note Name: F3
Note ON: Time 201600, Note Name: A3, Velocity: 68
Note ON: Time 201600, Note Name: D#3, Velocity: 68
Note ON: Time 201600, Note Name: C#4, Velocity: 68
Note ON: Time 201600, Note Name: F4, Velocity: 80
Note OFF: Time 202080, Note Name: F4
Note OFF: Time 202080, Note Name: A3
Note OFF: Time 202080, Note Name: D#3
Note OFF: Time 202080, Note Name: C#4
Note ON: Time 202080, Note Name: D#3, Velocity: 68
Note ON: Time 202080, Note Name: A3, Velocity: 68
Note ON: Time 202080, Note Name: C4, Velocity: 68
Note ON: Time 202080, Note Name: F4, Velocity: 80
Note OFF: Time 202560, Note Name: F4
Note OFF: Time 202560, Note Name: D#3
Note OFF: Time 202560, Note Name: A3
Note OFF: Time 202560, Note Name: C4
Note ON: Time 202560, Note Name: C#3, Velocity: 68
Note ON: Time 202560, Note Name: A#3, Velocity: 80
Note OFF: Time 203520, Note Name: A#3
Note OFF: Time 203520, Note Name: C#3
Note ON: Time 203520, Note Name: A#2, Velocity: 39
Note ON: Time 203520, Note Name: F3, Velocity: 39
Note ON: Time 203520, Note Name: A#3, Velocity: 46
Note OFF: Time 204000, Note Name: A#3
Note OFF: Time 204000, Note Name: F3
Note OFF: Time 204000, Note Name: A#2
Note ON: Time 204000, Note Name: F#3, Velocity: 39
Note ON: Time 204000, Note Name: A#3, Velocity: 46
Note OFF: Time 204360, Note Name: A#3
Note ON: Time 204360, Note Name: A#3, Velocity: 41
Note OFF: Time 204468, Note Name: A#3
Note OFF: Time 204480, Note Name: F#3
Note ON: Time 204480, Note Name: F3, Velocity: 39
Note ON: Time 204480, Note Name: A#3, Velocity: 46
Note OFF: Time 204960, Note Name: A#3
Note OFF: Time 204960, Note Name: F3
Note ON: Time 204960, Note Name: C#4, Velocity: 45
Note ON: Time 204960, Note Name: F#3, Velocity: 37
Note OFF: Time 205320, Note Name: C#4
Note ON: Time 205320, Note Name: C4, Velocity: 40
Note OFF: Time 205380, Note Name: C4
Note ON: Time 205380, Note Name: C#4, Velocity: 37
Note OFF: Time 205440, Note Name: C#4
Note OFF: Time 205440, Note Name: F#3
Note ON: Time 205440, Note Name: C4, Velocity: 42
Note ON: Time 205440, Note Name: F3, Velocity: 36
Note OFF: Time 205800, Note Name: C4
Note ON: Time 205800, Note Name: A#3, Velocity: 36
Note OFF: Time 205908, Note Name: A#3
Note OFF: Time 205920, Note Name: F3
Note ON: Time 205920, Note Name: F#3, Velocity: 33
Note ON: Time 205920, Note Name: A#3, Velocity: 40
Note OFF: Time 206280, Note Name: A#3
Note ON: Time 206280, Note Name: A#3, Velocity: 28
Note OFF: Time 206388, Note Name: A#3
Note OFF: Time 206400, Note Name: F#3
Note ON: Time 206400, Note Name: C#3, Velocity: 26
Note ON: Time 206400, Note Name: F3, Velocity: 26
Note ON: Time 206400, Note Name: A#3, Velocity: 31
Note OFF: Time 207360, Note Name: A#3
Note OFF: Time 207360, Note Name: F3
Note OFF: Time 207360, Note Name: C#3
Track 2: Piano left
Note ON: Time 0, Note Name: A#1, Velocity: 28
Note ON: Time 0, Note Name: F2, Velocity: 28
Note ON: Time 0, Note Name: A#2, Velocity: 34
Note OFF: Time 480, Note Name: A#2
Note OFF: Time 480, Note Name: F2
Note OFF: Time 480, Note Name: A#1
Note ON: Time 480, Note Name: C#2, Velocity: 25
Note ON: Time 480, Note Name: F#2, Velocity: 25
Note ON: Time 480, Note Name: C#3, Velocity: 30
Note OFF: Time 960, Note Name: C#3
Note OFF: Time 960, Note Name: F#2
Note OFF: Time 960, Note Name: C#2
Note ON: Time 960, Note Name: A#1, Velocity: 28
Note ON: Time 960, Note Name: F2, Velocity: 28
Note ON: Time 960, Note Name: A#2, Velocity: 34
Note OFF: Time 1440, Note Name: A#2
Note OFF: Time 1440, Note Name: F2
Note OFF: Time 1440, Note Name: A#1
Note ON: Time 1440, Note Name: C#2, Velocity: 23
Note ON: Time 1440, Note Name: F#2, Velocity: 23
Note ON: Time 1440, Note Name: C#3, Velocity: 28
Note OFF: Time 1920, Note Name: C#3
Note OFF: Time 1920, Note Name: F#2
Note OFF: Time 1920, Note Name: C#2
Note ON: Time 1920, Note Name: A#1, Velocity: 28
Note ON: Time 1920, Note Name: F2, Velocity: 28
Note ON: Time 1920, Note Name: A#2, Velocity: 34
Note OFF: Time 2400, Note Name: A#2
Note OFF: Time 2400, Note Name: F2
Note OFF: Time 2400, Note Name: A#1
Note ON: Time 2400, Note Name: C#2, Velocity: 25
Note ON: Time 2400, Note Name: F#2, Velocity: 25
Note ON: Time 2400, Note Name: C#3, Velocity: 30
Note OFF: Time 2880, Note Name: C#3
Note OFF: Time 2880, Note Name: F#2
Note OFF: Time 2880, Note Name: C#2
Note ON: Time 2880, Note Name: A#1, Velocity: 28
Note ON: Time 2880, Note Name: F2, Velocity: 28
Note ON: Time 2880, Note Name: A#2, Velocity: 34
Note OFF: Time 3360, Note Name: A#2
Note OFF: Time 3360, Note Name: F2
Note OFF: Time 3360, Note Name: A#1
Note ON: Time 3360, Note Name: C#2, Velocity: 22
Note ON: Time 3360, Note Name: F#2, Velocity: 22
Note ON: Time 3360, Note Name: C#3, Velocity: 27
Note OFF: Time 3840, Note Name: C#3
Note OFF: Time 3840, Note Name: F#2
Note OFF: Time 3840, Note Name: C#2
Note ON: Time 3840, Note Name: A#1, Velocity: 28
Note ON: Time 3840, Note Name: F2, Velocity: 28
Note ON: Time 3840, Note Name: A#2, Velocity: 34
Note OFF: Time 4320, Note Name: A#2
Note OFF: Time 4320, Note Name: F2
Note OFF: Time 4320, Note Name: A#1
Note ON: Time 4320, Note Name: C#2, Velocity: 25
Note ON: Time 4320, Note Name: F#2, Velocity: 30
Note ON: Time 4320, Note Name: C#3, Velocity: 30
Note OFF: Time 4800, Note Name: C#3
Note OFF: Time 4800, Note Name: F#2
Note OFF: Time 4800, Note Name: C#2
Note ON: Time 4800, Note Name: A#1, Velocity: 28
Note ON: Time 4800, Note Name: F2, Velocity: 28
Note ON: Time 4800, Note Name: A#2, Velocity: 34
Note OFF: Time 5280, Note Name: A#2
Note OFF: Time 5280, Note Name: F2
Note OFF: Time 5280, Note Name: A#1
Note ON: Time 5280, Note Name: C#2, Velocity: 22
Note ON: Time 5280, Note Name: F#2, Velocity: 27
Note ON: Time 5280, Note Name: C#3, Velocity: 27
Note OFF: Time 5760, Note Name: C#3
Note OFF: Time 5760, Note Name: F#2
Note OFF: Time 5760, Note Name: C#2
Note ON: Time 5760, Note Name: A#1, Velocity: 28
Note ON: Time 5760, Note Name: F2, Velocity: 28
Note ON: Time 5760, Note Name: A#2, Velocity: 34
Note OFF: Time 6240, Note Name: A#2
Note OFF: Time 6240, Note Name: F2
Note OFF: Time 6240, Note Name: A#1
Note ON: Time 6240, Note Name: C#2, Velocity: 25
Note ON: Time 6240, Note Name: F#2, Velocity: 25
Note ON: Time 6240, Note Name: C#3, Velocity: 30
Note OFF: Time 6720, Note Name: C#3
Note OFF: Time 6720, Note Name: F#2
Note OFF: Time 6720, Note Name: C#2
Note ON: Time 6720, Note Name: A#1, Velocity: 28
Note ON: Time 6720, Note Name: F2, Velocity: 28
Note ON: Time 6720, Note Name: A#2, Velocity: 34
Note OFF: Time 7200, Note Name: A#2
Note OFF: Time 7200, Note Name: F2
Note OFF: Time 7200, Note Name: A#1
Note ON: Time 7200, Note Name: C#2, Velocity: 22
Note ON: Time 7200, Note Name: F#2, Velocity: 22
Note ON: Time 7200, Note Name: C#3, Velocity: 27
Note OFF: Time 7680, Note Name: C#3
Note OFF: Time 7680, Note Name: F#2
Note OFF: Time 7680, Note Name: C#2
Note ON: Time 7680, Note Name: A#1, Velocity: 35
Note ON: Time 7680, Note Name: F2, Velocity: 35
Note ON: Time 7680, Note Name: A#2, Velocity: 42
Note OFF: Time 8160, Note Name: A#2
Note OFF: Time 8160, Note Name: F2
Note OFF: Time 8160, Note Name: A#1
Note ON: Time 8160, Note Name: C#2, Velocity: 30
Note ON: Time 8160, Note Name: F#2, Velocity: 37
Note ON: Time 8160, Note Name: C#3, Velocity: 37
Note OFF: Time 8640, Note Name: C#3
Note OFF: Time 8640, Note Name: F#2
Note OFF: Time 8640, Note Name: C#2
Note ON: Time 8640, Note Name: A#1, Velocity: 35
Note ON: Time 8640, Note Name: F2, Velocity: 35
Note ON: Time 8640, Note Name: A#2, Velocity: 42
Note OFF: Time 9120, Note Name: A#2
Note OFF: Time 9120, Note Name: F2
Note OFF: Time 9120, Note Name: A#1
Note ON: Time 9120, Note Name: C#2, Velocity: 27
Note ON: Time 9120, Note Name: F#2, Velocity: 34
Note ON: Time 9120, Note Name: C#3, Velocity: 34
Note OFF: Time 9600, Note Name: C#3
Note OFF: Time 9600, Note Name: F#2
Note OFF: Time 9600, Note Name: C#2
Note ON: Time 9600, Note Name: A#1, Velocity: 35
Note ON: Time 9600, Note Name: F2, Velocity: 35
Note ON: Time 9600, Note Name: A#2, Velocity: 42
Note OFF: Time 10080, Note Name: A#2
Note OFF: Time 10080, Note Name: F2
Note OFF: Time 10080, Note Name: A#1
Note ON: Time 10080, Note Name: C#2, Velocity: 30
Note ON: Time 10080, Note Name: F#2, Velocity: 30
Note ON: Time 10080, Note Name: C#3, Velocity: 37
Note OFF: Time 10560, Note Name: C#3
Note OFF: Time 10560, Note Name: F#2
Note OFF: Time 10560, Note Name: C#2
Note ON: Time 10560, Note Name: A#1, Velocity: 35
Note ON: Time 10560, Note Name: F2, Velocity: 35
Note ON: Time 10560, Note Name: A#2, Velocity: 42
Note OFF: Time 11040, Note Name: A#2
Note OFF: Time 11040, Note Name: F2
Note OFF: Time 11040, Note Name: A#1
Note ON: Time 11040, Note Name: C#2, Velocity: 27
Note ON: Time 11040, Note Name: F#2, Velocity: 27
Note ON: Time 11040, Note Name: C#3, Velocity: 34
Note OFF: Time 11520, Note Name: C#3
Note OFF: Time 11520, Note Name: F#2
Note OFF: Time 11520, Note Name: C#2
Note ON: Time 11520, Note Name: A#1, Velocity: 42
Note ON: Time 11520, Note Name: F2, Velocity: 42
Note ON: Time 11520, Note Name: A#2, Velocity: 52
Note OFF: Time 12000, Note Name: A#2
Note OFF: Time 12000, Note Name: F2
Note OFF: Time 12000, Note Name: A#1
Note ON: Time 12000, Note Name: C#2, Velocity: 36
Note ON: Time 12000, Note Name: F#2, Velocity: 36
Note ON: Time 12000, Note Name: C#3, Velocity: 44
Note OFF: Time 12480, Note Name: C#3
Note OFF: Time 12480, Note Name: F#2
Note OFF: Time 12480, Note Name: C#2
Note ON: Time 12480, Note Name: A#1, Velocity: 38
Note ON: Time 12480, Note Name: F2, Velocity: 38
Note ON: Time 12480, Note Name: A#2, Velocity: 46
Note OFF: Time 12960, Note Name: A#2
Note OFF: Time 12960, Note Name: F2
Note OFF: Time 12960, Note Name: A#1
Note ON: Time 12960, Note Name: C#2, Velocity: 27
Note ON: Time 12960, Note Name: F#2, Velocity: 27
Note ON: Time 12960, Note Name: C#3, Velocity: 35
Note OFF: Time 13440, Note Name: C#3
Note OFF: Time 13440, Note Name: F#2
Note OFF: Time 13440, Note Name: C#2
Note ON: Time 13440, Note Name: A#1, Velocity: 42
Note ON: Time 13440, Note Name: F2, Velocity: 42
Note ON: Time 13440, Note Name: A#2, Velocity: 52
Note OFF: Time 13920, Note Name: A#2
Note OFF: Time 13920, Note Name: F2
Note OFF: Time 13920, Note Name: A#1
Note ON: Time 13920, Note Name: C#2, Velocity: 36
Note ON: Time 13920, Note Name: F#2, Velocity: 36
Note ON: Time 13920, Note Name: C#3, Velocity: 44
Note OFF: Time 14400, Note Name: C#3
Note OFF: Time 14400, Note Name: F#2
Note OFF: Time 14400, Note Name: C#2
Note ON: Time 14400, Note Name: A#1, Velocity: 38
Note ON: Time 14400, Note Name: F2, Velocity: 38
Note ON: Time 14400, Note Name: A#2, Velocity: 46
Note OFF: Time 14880, Note Name: A#2
Note OFF: Time 14880, Note Name: F2
Note OFF: Time 14880, Note Name: A#1
Note ON: Time 14880, Note Name: C#2, Velocity: 27
Note ON: Time 14880, Note Name: F#2, Velocity: 27
Note ON: Time 14880, Note Name: C#3, Velocity: 35
Note OFF: Time 15360, Note Name: C#3
Note OFF: Time 15360, Note Name: F#2
Note OFF: Time 15360, Note Name: C#2
Note ON: Time 15360, Note Name: A#1, Velocity: 32
Note ON: Time 15360, Note Name: F2, Velocity: 32
Note ON: Time 15360, Note Name: A#2, Velocity: 39
Note OFF: Time 15840, Note Name: A#2
Note OFF: Time 15840, Note Name: F2
Note OFF: Time 15840, Note Name: A#1
Note ON: Time 15840, Note Name: C#2, Velocity: 28
Note ON: Time 15840, Note Name: F#2, Velocity: 34
Note ON: Time 15840, Note Name: C#3, Velocity: 34
Note OFF: Time 16320, Note Name: C#3
Note OFF: Time 16320, Note Name: F#2
Note OFF: Time 16320, Note Name: C#2
Note ON: Time 16320, Note Name: A#1, Velocity: 32
Note ON: Time 16320, Note Name: F2, Velocity: 32
Note ON: Time 16320, Note Name: A#2, Velocity: 39
Note OFF: Time 16800, Note Name: A#2
Note OFF: Time 16800, Note Name: F2
Note OFF: Time 16800, Note Name: A#1
Note ON: Time 16800, Note Name: C#2, Velocity: 25
Note ON: Time 16800, Note Name: F#2, Velocity: 31
Note ON: Time 16800, Note Name: C#3, Velocity: 31
Note OFF: Time 17280, Note Name: C#3
Note OFF: Time 17280, Note Name: F#2
Note OFF: Time 17280, Note Name: C#2
Note ON: Time 17280, Note Name: A#1, Velocity: 32
Note ON: Time 17280, Note Name: F2, Velocity: 32
Note ON: Time 17280, Note Name: A#2, Velocity: 39
Note OFF: Time 17760, Note Name: A#2
Note OFF: Time 17760, Note Name: F2
Note OFF: Time 17760, Note Name: A#1
Note ON: Time 17760, Note Name: C#2, Velocity: 28
Note ON: Time 17760, Note Name: F#2, Velocity: 28
Note ON: Time 17760, Note Name: C#3, Velocity: 34
Note OFF: Time 18240, Note Name: C#3
Note OFF: Time 18240, Note Name: F#2
Note OFF: Time 18240, Note Name: C#2
Note ON: Time 18240, Note Name: A#1, Velocity: 32
Note ON: Time 18240, Note Name: F2, Velocity: 32
Note ON: Time 18240, Note Name: A#2, Velocity: 39
Note OFF: Time 18720, Note Name: A#2
Note OFF: Time 18720, Note Name: F2
Note OFF: Time 18720, Note Name: A#1
Note ON: Time 18720, Note Name: C#2, Velocity: 25
Note ON: Time 18720, Note Name: F#2, Velocity: 25
Note ON: Time 18720, Note Name: C#3, Velocity: 31
Note OFF: Time 19200, Note Name: C#3
Note OFF: Time 19200, Note Name: F#2
Note OFF: Time 19200, Note Name: C#2
Note ON: Time 19200, Note Name: A#1, Velocity: 47
Note ON: Time 19200, Note Name: F2, Velocity: 47
Note ON: Time 19200, Note Name: A#2, Velocity: 57
Note OFF: Time 19680, Note Name: A#2
Note OFF: Time 19680, Note Name: F2
Note OFF: Time 19680, Note Name: A#1
Note ON: Time 19680, Note Name: C#2, Velocity: 37
Note ON: Time 19680, Note Name: F#2, Velocity: 37
Note ON: Time 19680, Note Name: C#3, Velocity: 46
Note OFF: Time 20160, Note Name: C#3
Note OFF: Time 20160, Note Name: F#2
Note OFF: Time 20160, Note Name: C#2
Note ON: Time 20160, Note Name: A#1, Velocity: 39
Note ON: Time 20160, Note Name: F2, Velocity: 39
Note ON: Time 20160, Note Name: A#2, Velocity: 48
Note OFF: Time 20640, Note Name: A#2
Note OFF: Time 20640, Note Name: F2
Note OFF: Time 20640, Note Name: A#1
Note ON: Time 20640, Note Name: C#2, Velocity: 30
Note ON: Time 20640, Note Name: F#2, Velocity: 30
Note ON: Time 20640, Note Name: C#3, Velocity: 38
Note OFF: Time 21120, Note Name: C#3
Note OFF: Time 21120, Note Name: F#2
Note OFF: Time 21120, Note Name: C#2
Note ON: Time 21120, Note Name: A#1, Velocity: 47
Note ON: Time 21120, Note Name: F2, Velocity: 47
Note ON: Time 21120, Note Name: A#2, Velocity: 57
Note OFF: Time 21600, Note Name: A#2
Note OFF: Time 21600, Note Name: F2
Note OFF: Time 21600, Note Name: A#1
Note ON: Time 21600, Note Name: C#2, Velocity: 37
Note ON: Time 21600, Note Name: F#2, Velocity: 37
Note ON: Time 21600, Note Name: C#3, Velocity: 46
Note OFF: Time 22080, Note Name: C#3
Note OFF: Time 22080, Note Name: F#2
Note OFF: Time 22080, Note Name: C#2
Note ON: Time 22080, Note Name: A#1, Velocity: 39
Note ON: Time 22080, Note Name: F2, Velocity: 39
Note ON: Time 22080, Note Name: A#2, Velocity: 48
Note OFF: Time 22560, Note Name: A#2
Note OFF: Time 22560, Note Name: F2
Note OFF: Time 22560, Note Name: A#1
Note ON: Time 22560, Note Name: C#2, Velocity: 30
Note ON: Time 22560, Note Name: F#2, Velocity: 30
Note ON: Time 22560, Note Name: C#3, Velocity: 38
Note OFF: Time 23040, Note Name: C#3
Note OFF: Time 23040, Note Name: F#2
Note OFF: Time 23040, Note Name: C#2
Note ON: Time 23040, Note Name: A#1, Velocity: 43
Note ON: Time 23040, Note Name: F2, Velocity: 43
Note ON: Time 23040, Note Name: A#2, Velocity: 52
Note OFF: Time 23520, Note Name: A#2
Note OFF: Time 23520, Note Name: F2
Note OFF: Time 23520, Note Name: A#1
Note ON: Time 23520, Note Name: C#2, Velocity: 37
Note ON: Time 23520, Note Name: F#2, Velocity: 46
Note ON: Time 23520, Note Name: C#3, Velocity: 46
Note OFF: Time 24000, Note Name: C#3
Note OFF: Time 24000, Note Name: F#2
Note OFF: Time 24000, Note Name: C#2
Note ON: Time 24000, Note Name: A#1, Velocity: 45
Note ON: Time 24000, Note Name: F2, Velocity: 45
Note ON: Time 24000, Note Name: A#2, Velocity: 54
Note OFF: Time 24480, Note Name: A#2
Note OFF: Time 24480, Note Name: F2
Note OFF: Time 24480, Note Name: A#1
Note ON: Time 24480, Note Name: C#2, Velocity: 36
Note ON: Time 24480, Note Name: F#2, Velocity: 46
Note ON: Time 24480, Note Name: C#3, Velocity: 46
Note OFF: Time 24960, Note Name: C#3
Note OFF: Time 24960, Note Name: F#2
Note OFF: Time 24960, Note Name: C#2
Note ON: Time 24960, Note Name: A#1, Velocity: 49
Note ON: Time 24960, Note Name: F2, Velocity: 49
Note ON: Time 24960, Note Name: A#2, Velocity: 58
Note OFF: Time 25440, Note Name: A#2
Note OFF: Time 25440, Note Name: F2
Note OFF: Time 25440, Note Name: A#1
Note ON: Time 25440, Note Name: C#2, Velocity: 42
Note ON: Time 25440, Note Name: F#2, Velocity: 42
Note ON: Time 25440, Note Name: C#3, Velocity: 51
Note OFF: Time 25920, Note Name: C#3
Note OFF: Time 25920, Note Name: F#2
Note OFF: Time 25920, Note Name: C#2
Note ON: Time 25920, Note Name: A#1, Velocity: 53
Note ON: Time 25920, Note Name: F2, Velocity: 53
Note ON: Time 25920, Note Name: A#2, Velocity: 64
Note OFF: Time 26400, Note Name: A#2
Note OFF: Time 26400, Note Name: F2
Note OFF: Time 26400, Note Name: A#1
Note ON: Time 26400, Note Name: G#1, Velocity: 56
Note ON: Time 26400, Note Name: G#2, Velocity: 71
Note OFF: Time 26880, Note Name: G#2
Note OFF: Time 26880, Note Name: G#1
Note ON: Time 26880, Note Name: C#1, Velocity: 59
Note ON: Time 26880, Note Name: C#2, Velocity: 74
Note OFF: Time 27360, Note Name: C#2
Note OFF: Time 27360, Note Name: C#1
Note ON: Time 27360, Note Name: C#3, Velocity: 64
Note ON: Time 27360, Note Name: G#3, Velocity: 64
Note ON: Time 27360, Note Name: C#4, Velocity: 76
Note OFF: Time 27720, Note Name: C#4
Note OFF: Time 27720, Note Name: G#3
Note OFF: Time 27720, Note Name: C#3
Note ON: Time 27720, Note Name: D#4, Velocity: 76
Note OFF: Time 27840, Note Name: D#4
Note ON: Time 27840, Note Name: C#3, Velocity: 68
Note ON: Time 27840, Note Name: G#3, Velocity: 68
Note ON: Time 27840, Note Name: F4, Velocity: 80
Note OFF: Time 28200, Note Name: F4
Note OFF: Time 28200, Note Name: G#3
Note OFF: Time 28200, Note Name: C#3
Note ON: Time 28200, Note Name: F#4, Velocity: 80
Note OFF: Time 28320, Note Name: F#4
Note ON: Time 28320, Note Name: D#4, Velocity: 73
Note ON: Time 28320, Note Name: G#3, Velocity: 73
Note ON: Time 28320, Note Name: G#4, Velocity: 86
Note OFF: Time 28680, Note Name: G#4
Note OFF: Time 28680, Note Name: G#3
Note OFF: Time 28680, Note Name: D#4
Note ON: Time 28680, Note Name: F4, Velocity: 85
Note OFF: Time 28800, Note Name: F4
Note ON: Time 28800, Note Name: G#1, Velocity: 77
Note ON: Time 28800, Note Name: G#2, Velocity: 92
Note OFF: Time 29280, Note Name: G#2
Note OFF: Time 29280, Note Name: G#1
Note ON: Time 29280, Note Name: D#4, Velocity: 69
Note ON: Time 29280, Note Name: F#4, Velocity: 69
Note ON: Time 29280, Note Name: C5, Velocity: 81
Note OFF: Time 29640, Note Name: C5
Note OFF: Time 29640, Note Name: F#4
Note OFF: Time 29640, Note Name: D#4
Note ON: Time 29640, Note Name: C#4, Velocity: 65
Note ON: Time 29640, Note Name: F#4, Velocity: 65
Note ON: Time 29640, Note Name: A#4, Velocity: 76
Note OFF: Time 29748, Note Name: A#4
Note OFF: Time 29748, Note Name: F#4
Note OFF: Time 29748, Note Name: C#4
Note ON: Time 29760, Note Name: C#4, Velocity: 63
Note ON: Time 29760, Note Name: F#4, Velocity: 63
Note ON: Time 29760, Note Name: A#4, Velocity: 75
Note OFF: Time 30120, Note Name: A#4
Note OFF: Time 30120, Note Name: F#4
Note OFF: Time 30120, Note Name: C#4
Note ON: Time 30120, Note Name: C4, Velocity: 59
Note ON: Time 30120, Note Name: F#4, Velocity: 59
Note ON: Time 30120, Note Name: G#4, Velocity: 71
Note OFF: Time 30228, Note Name: G#4
Note OFF: Time 30228, Note Name: F#4
Note OFF: Time 30228, Note Name: C4
Note ON: Time 30240, Note Name: C4, Velocity: 57
Note ON: Time 30240, Note Name: F#4, Velocity: 57
Note ON: Time 30240, Note Name: G#4, Velocity: 68
Note OFF: Time 30600, Note Name: G#4
Note OFF: Time 30600, Note Name: F#4
Note OFF: Time 30600, Note Name: C4
Note ON: Time 30600, Note Name: A3, Velocity: 66
Note ON: Time 30600, Note Name: C4, Velocity: 66
Note ON: Time 30600, Note Name: D#4, Velocity: 77
Note OFF: Time 30720, Note Name: D#4
Note OFF: Time 30720, Note Name: C4
Note OFF: Time 30720, Note Name: A3
Note ON: Time 30720, Note Name: A#1, Velocity: 66
Note ON: Time 30720, Note Name: A#2, Velocity: 78
Note OFF: Time 31200, Note Name: A#2
Note OFF: Time 31200, Note Name: A#1
Note ON: Time 31200, Note Name: F3, Velocity: 63
Note ON: Time 31200, Note Name: A#3, Velocity: 63
Note ON: Time 31200, Note Name: C#4, Velocity: 75
Note OFF: Time 31680, Note Name: C#4
Note OFF: Time 31680, Note Name: A#3
Note OFF: Time 31680, Note Name: F3
Note ON: Time 31680, Note Name: C#2, Velocity: 68
Note ON: Time 31680, Note Name: C#3, Velocity: 80
Note OFF: Time 32160, Note Name: C#3
Note OFF: Time 32160, Note Name: C#2
Note ON: Time 32160, Note Name: F4, Velocity: 76
Note ON: Time 32160, Note Name: C#4, Velocity: 64
Note ON: Time 32160, Note Name: A#3, Velocity: 64
Note ON: Time 32160, Note Name: F3, Velocity: 64
Note OFF: Time 32640, Note Name: F3
Note OFF: Time 32640, Note Name: F4
Note OFF: Time 32640, Note Name: C#4
Note OFF: Time 32640, Note Name: A#3
Note ON: Time 32640, Note Name: F1, Velocity: 77
Note ON: Time 32640, Note Name: F2, Velocity: 92
Note OFF: Time 33120, Note Name: F2
Note OFF: Time 33120, Note Name: F1
Note ON: Time 33120, Note Name: F3, Velocity: 69
Note ON: Time 33120, Note Name: A#3, Velocity: 69
Note ON: Time 33120, Note Name: C#4, Velocity: 69
Note ON: Time 33120, Note Name: G4, Velocity: 81
Note OFF: Time 33600, Note Name: G4
Note OFF: Time 33600, Note Name: F3
Note OFF: Time 33600, Note Name: A#3
Note OFF: Time 33600, Note Name: C#4
Note ON: Time 33600, Note Name: F3, Velocity: 64
Note ON: Time 33600, Note Name: A3, Velocity: 64
Note ON: Time 33600, Note Name: C4, Velocity: 64
Note ON: Time 33600, Note Name: A4, Velocity: 75
Note OFF: Time 34080, Note Name: A4
Note OFF: Time 34080, Note Name: F3
Note OFF: Time 34080, Note Name: A3
Note OFF: Time 34080, Note Name: C4
Note ON: Time 34080, Note Name: F3, Velocity: 81
Note OFF: Time 34320, Note Name: F3
Note ON: Time 34320, Note Name: G2, Velocity: 61
Note OFF: Time 34400, Note Name: G2
Note ON: Time 34400, Note Name: G#2, Velocity: 61
Note OFF: Time 34480, Note Name: G#2
Note ON: Time 34480, Note Name: A#2, Velocity: 61
Note OFF: Time 34560, Note Name: A#2
Note ON: Time 34560, Note Name: G#2, Velocity: 61
Note OFF: Time 34605, Note Name: G#2
Note ON: Time 34605, Note Name: A#2, Velocity: 56
Note OFF: Time 34650, Note Name: A#2
Note ON: Time 34650, Note Name: G#2, Velocity: 64
Note OFF: Time 34695, Note Name: G#2
Note ON: Time 34695, Note Name: A#2, Velocity: 57
Note OFF: Time 34740, Note Name: A#2
Note ON: Time 34740, Note Name: G#2, Velocity: 66
Note OFF: Time 34785, Note Name: G#2
Note ON: Time 34785, Note Name: A#2, Velocity: 59
Note OFF: Time 34830, Note Name: A#2
Note ON: Time 34830, Note Name: G#2, Velocity: 68
Note OFF: Time 34875, Note Name: G#2
Note ON: Time 34875, Note Name: A#2, Velocity: 61
Note OFF: Time 34920, Note Name: A#2
Note ON: Time 34920, Note Name: G#2, Velocity: 70
Note OFF: Time 34965, Note Name: G#2
Note ON: Time 34965, Note Name: A#2, Velocity: 65
Note OFF: Time 35010, Note Name: A#2
Note ON: Time 35010, Note Name: G#2, Velocity: 73
Note OFF: Time 35055, Note Name: G#2
Note ON: Time 35055, Note Name: A#2, Velocity: 66
Note OFF: Time 35100, Note Name: A#2
Note ON: Time 35100, Note Name: G#2, Velocity: 72
Note OFF: Time 35145, Note Name: G#2
Note ON: Time 35146, Note Name: A#2, Velocity: 63
Note ON: Time 35190, Note Name: G#2, Velocity: 69
Note OFF: Time 35191, Note Name: A#2
Note OFF: Time 35235, Note Name: G#2
Note ON: Time 35235, Note Name: A#2, Velocity: 60
Note ON: Time 35280, Note Name: G#2, Velocity: 66
Note OFF: Time 35281, Note Name: A#2
Note OFF: Time 35340, Note Name: G#2
Note ON: Time 35340, Note Name: A#2, Velocity: 58
Note OFF: Time 35400, Note Name: A#2
Note ON: Time 35400, Note Name: G2, Velocity: 64
Note OFF: Time 35460, Note Name: G2
Note ON: Time 35460, Note Name: G#2, Velocity: 55
Note OFF: Time 35520, Note Name: G#2
Note ON: Time 35520, Note Name: C#3, Velocity: 68
Note OFF: Time 36000, Note Name: C#3
Note ON: Time 36000, Note Name: C#3, Velocity: 79
Note OFF: Time 36240, Note Name: C#3
Note ON: Time 36240, Note Name: E2, Velocity: 61
Note OFF: Time 36320, Note Name: E2
Note ON: Time 36320, Note Name: F2, Velocity: 61
Note OFF: Time 36400, Note Name: F2
Note ON: Time 36400, Note Name: F#2, Velocity: 61
Note OFF: Time 36480, Note Name: F#2
Note ON: Time 36480, Note Name: F2, Velocity: 61
Note OFF: Time 36525, Note Name: F2
Note ON: Time 36525, Note Name: F#2, Velocity: 56
Note OFF: Time 36570, Note Name: F#2
Note ON: Time 36570, Note Name: F2, Velocity: 64
Note OFF: Time 36615, Note Name: F2
Note ON: Time 36615, Note Name: F#2, Velocity: 57
Note OFF: Time 36660, Note Name: F#2
Note ON: Time 36660, Note Name: F2, Velocity: 66
Note OFF: Time 36705, Note Name: F2
Note ON: Time 36705, Note Name: F#2, Velocity: 59
Note OFF: Time 36750, Note Name: F#2
Note ON: Time 36750, Note Name: F2, Velocity: 68
Note OFF: Time 36795, Note Name: F2
Note ON: Time 36795, Note Name: F#2, Velocity: 61
Note OFF: Time 36840, Note Name: F#2
Note ON: Time 36840, Note Name: F2, Velocity: 70
Note OFF: Time 36885, Note Name: F2
Note ON: Time 36885, Note Name: F#2, Velocity: 65
Note OFF: Time 36930, Note Name: F#2
Note ON: Time 36930, Note Name: F2, Velocity: 73
Note OFF: Time 36975, Note Name: F2
Note ON: Time 36975, Note Name: F#2, Velocity: 66
Note OFF: Time 37020, Note Name: F#2
Note ON: Time 37020, Note Name: F2, Velocity: 72
Note OFF: Time 37065, Note Name: F2
Note ON: Time 37066, Note Name: F#2, Velocity: 63
Note ON: Time 37110, Note Name: F2, Velocity: 69
Note OFF: Time 37111, Note Name: F#2
Note OFF: Time 37155, Note Name: F2
Note ON: Time 37155, Note Name: F#2, Velocity: 60
Note ON: Time 37200, Note Name: F2, Velocity: 66
Note OFF: Time 37201, Note Name: F#2
Note OFF: Time 37260, Note Name: F2
Note ON: Time 37260, Note Name: F#2, Velocity: 58
Note OFF: Time 37320, Note Name: F#2
Note ON: Time 37320, Note Name: E2, Velocity: 64
Note OFF: Time 37380, Note Name: E2
Note ON: Time 37380, Note Name: F2, Velocity: 55
Note OFF: Time 37440, Note Name: F2
Note ON: Time 37440, Note Name: F#2, Velocity: 64
Note OFF: Time 37920, Note Name: F#2
Note ON: Time 37920, Note Name: F2, Velocity: 49
Note OFF: Time 38160, Note Name: F2
Note ON: Time 38160, Note Name: C#2, Velocity: 40
Note OFF: Time 38400, Note Name: C#2
Note ON: Time 38400, Note Name: A#1, Velocity: 32
Note ON: Time 38400, Note Name: F2, Velocity: 32
Note ON: Time 38400, Note Name: A#2, Velocity: 39
Note OFF: Time 38880, Note Name: A#2
Note OFF: Time 38880, Note Name: F2
Note OFF: Time 38880, Note Name: A#1
Note ON: Time 38880, Note Name: C#2, Velocity: 28
Note ON: Time 38880, Note Name: F#2, Velocity: 34
Note ON: Time 38880, Note Name: C#3, Velocity: 34
Note OFF: Time 39360, Note Name: C#3
Note OFF: Time 39360, Note Name: F#2
Note OFF: Time 39360, Note Name: C#2
Note ON: Time 39360, Note Name: A#1, Velocity: 32
Note ON: Time 39360, Note Name: F2, Velocity: 32
Note ON: Time 39360, Note Name: A#2, Velocity: 39
Note OFF: Time 39840, Note Name: A#2
Note OFF: Time 39840, Note Name: F2
Note OFF: Time 39840, Note Name: A#1
Note ON: Time 39840, Note Name: C#2, Velocity: 25
Note ON: Time 39840, Note Name: F#2, Velocity: 31
Note ON: Time 39840, Note Name: C#3, Velocity: 31
Note OFF: Time 40320, Note Name: C#3
Note OFF: Time 40320, Note Name: F#2
Note OFF: Time 40320, Note Name: C#2
Note ON: Time 40320, Note Name: A#1, Velocity: 32
Note ON: Time 40320, Note Name: F2, Velocity: 32
Note ON: Time 40320, Note Name: A#2, Velocity: 39
Note OFF: Time 40800, Note Name: A#2
Note OFF: Time 40800, Note Name: F2
Note OFF: Time 40800, Note Name: A#1
Note ON: Time 40800, Note Name: C#2, Velocity: 28
Note ON: Time 40800, Note Name: F#2, Velocity: 28
Note ON: Time 40800, Note Name: C#3, Velocity: 34
Note OFF: Time 41280, Note Name: C#3
Note OFF: Time 41280, Note Name: F#2
Note OFF: Time 41280, Note Name: C#2
Note ON: Time 41280, Note Name: A#1, Velocity: 32
Note ON: Time 41280, Note Name: F2, Velocity: 32
Note ON: Time 41280, Note Name: A#2, Velocity: 39
Note OFF: Time 41760, Note Name: A#2
Note OFF: Time 41760, Note Name: F2
Note OFF: Time 41760, Note Name: A#1
Note ON: Time 41760, Note Name: A1, Velocity: 57
Note ON: Time 41760, Note Name: A2, Velocity: 73
Note OFF: Time 42120, Note Name: A2
Note OFF: Time 42120, Note Name: A1
Note ON: Time 42120, Note Name: G#1, Velocity: 57
Note ON: Time 42120, Note Name: G#2, Velocity: 73
Note OFF: Time 42240, Note Name: G#2
Note OFF: Time 42240, Note Name: G#1
Note ON: Time 42240, Note Name: C#1, Velocity: 60
Note ON: Time 42240, Note Name: C#2, Velocity: 76
Note OFF: Time 42720, Note Name: C#2
Note OFF: Time 42720, Note Name: C#1
Note ON: Time 42720, Note Name: C#3, Velocity: 67
Note ON: Time 42720, Note Name: G#3, Velocity: 67
Note ON: Time 42720, Note Name: C#4, Velocity: 80
Note OFF: Time 43080, Note Name: C#4
Note OFF: Time 43080, Note Name: G#3
Note OFF: Time 43080, Note Name: C#3
Note ON: Time 43080, Note Name: D#4, Velocity: 80
Note OFF: Time 43200, Note Name: D#4
Note ON: Time 43200, Note Name: C#3, Velocity: 71
Note ON: Time 43200, Note Name: G#3, Velocity: 71
Note ON: Time 43200, Note Name: F4, Velocity: 85
Note OFF: Time 43560, Note Name: F4
Note OFF: Time 43560, Note Name: G#3
Note OFF: Time 43560, Note Name: C#3
Note ON: Time 43560, Note Name: F#4, Velocity: 85
Note OFF: Time 43680, Note Name: F#4
Note ON: Time 43680, Note Name: D#4, Velocity: 76
Note ON: Time 43680, Note Name: G#3, Velocity: 76
Note ON: Time 43680, Note Name: G#4, Velocity: 90
Note OFF: Time 44040, Note Name: G#4
Note OFF: Time 44040, Note Name: G#3
Note OFF: Time 44040, Note Name: D#4
Note ON: Time 44040, Note Name: F4, Velocity: 89
Note OFF: Time 44160, Note Name: F4
Note ON: Time 44160, Note Name: G#1, Velocity: 81
Note ON: Time 44160, Note Name: G#2, Velocity: 96
Note OFF: Time 44640, Note Name: G#2
Note OFF: Time 44640, Note Name: G#1
Note ON: Time 44640, Note Name: D#4, Velocity: 72
Note ON: Time 44640, Note Name: F#4, Velocity: 72
Note ON: Time 44640, Note Name: C5, Velocity: 85
Note OFF: Time 45000, Note Name: C5
Note OFF: Time 45000, Note Name: F#4
Note OFF: Time 45000, Note Name: D#4
Note ON: Time 45000, Note Name: C#4, Velocity: 67
Note ON: Time 45000, Note Name: F#4, Velocity: 67
Note ON: Time 45000, Note Name: A#4, Velocity: 79
Note OFF: Time 45120, Note Name: A#4
Note OFF: Time 45120, Note Name: F#4
Note OFF: Time 45120, Note Name: C#4
Note ON: Time 45120, Note Name: C#4, Velocity: 66
Note ON: Time 45120, Note Name: F#4, Velocity: 66
Note ON: Time 45120, Note Name: A#4, Velocity: 78
Note OFF: Time 45480, Note Name: A#4
Note OFF: Time 45480, Note Name: F#4
Note OFF: Time 45480, Note Name: C#4
Note ON: Time 45480, Note Name: C4, Velocity: 61
Note ON: Time 45480, Note Name: F#4, Velocity: 61
Note ON: Time 45480, Note Name: G#4, Velocity: 73
Note OFF: Time 45600, Note Name: G#4
Note OFF: Time 45600, Note Name: F#4
Note OFF: Time 45600, Note Name: C4
Note ON: Time 45600, Note Name: C4, Velocity: 60
Note ON: Time 45600, Note Name: F#4, Velocity: 60
Note ON: Time 45600, Note Name: G#4, Velocity: 71
Note OFF: Time 45960, Note Name: G#4
Note OFF: Time 45960, Note Name: F#4
Note OFF: Time 45960, Note Name: C4
Note ON: Time 45960, Note Name: A3, Velocity: 66
Note ON: Time 45960, Note Name: C4, Velocity: 66
Note ON: Time 45960, Note Name: D#4, Velocity: 77
Note OFF: Time 46080, Note Name: D#4
Note OFF: Time 46080, Note Name: C4
Note OFF: Time 46080, Note Name: A3
Note ON: Time 46080, Note Name: A#1, Velocity: 66
Note ON: Time 46080, Note Name: A#2, Velocity: 78
Note OFF: Time 46560, Note Name: A#2
Note OFF: Time 46560, Note Name: A#1
Note ON: Time 46560, Note Name: F3, Velocity: 63
Note ON: Time 46560, Note Name: A#3, Velocity: 63
Note ON: Time 46560, Note Name: C#4, Velocity: 75
Note OFF: Time 47040, Note Name: C#4
Note OFF: Time 47040, Note Name: A#3
Note OFF: Time 47040, Note Name: F3
Note ON: Time 47040, Note Name: C#2, Velocity: 68
Note ON: Time 47040, Note Name: C#3, Velocity: 80
Note OFF: Time 47520, Note Name: C#3
Note OFF: Time 47520, Note Name: C#2
Note ON: Time 47520, Note Name: F4, Velocity: 76
Note ON: Time 47520, Note Name: C#4, Velocity: 64
Note ON: Time 47520, Note Name: A#3, Velocity: 64
Note ON: Time 47520, Note Name: F3, Velocity: 64
Note OFF: Time 48000, Note Name: F3
Note OFF: Time 48000, Note Name: F4
Note OFF: Time 48000, Note Name: C#4
Note OFF: Time 48000, Note Name: A#3
Note ON: Time 48000, Note Name: F1, Velocity: 77
Note ON: Time 48000, Note Name: F2, Velocity: 92
Note OFF: Time 48480, Note Name: F2
Note OFF: Time 48480, Note Name: F1
Note ON: Time 48480, Note Name: F3, Velocity: 69
Note ON: Time 48480, Note Name: A#3, Velocity: 69
Note ON: Time 48480, Note Name: C#4, Velocity: 69
Note ON: Time 48480, Note Name: G4, Velocity: 81
Note OFF: Time 48960, Note Name: G4
Note OFF: Time 48960, Note Name: F3
Note OFF: Time 48960, Note Name: A#3
Note OFF: Time 48960, Note Name: C#4
Note ON: Time 48960, Note Name: F3, Velocity: 64
Note ON: Time 48960, Note Name: A3, Velocity: 64
Note ON: Time 48960, Note Name: C4, Velocity: 64
Note ON: Time 48960, Note Name: A4, Velocity: 75
Note OFF: Time 49440, Note Name: A4
Note OFF: Time 49440, Note Name: F3
Note OFF: Time 49440, Note Name: A3
Note OFF: Time 49440, Note Name: C4
Note ON: Time 49440, Note Name: F3, Velocity: 81
Note OFF: Time 49680, Note Name: F3
Note ON: Time 49680, Note Name: G2, Velocity: 61
Note OFF: Time 49760, Note Name: G2
Note ON: Time 49760, Note Name: G#2, Velocity: 61
Note OFF: Time 49840, Note Name: G#2
Note ON: Time 49840, Note Name: A#2, Velocity: 61
Note OFF: Time 49920, Note Name: A#2
Note ON: Time 49920, Note Name: G#2, Velocity: 61
Note OFF: Time 49965, Note Name: G#2
Note ON: Time 49965, Note Name: A#2, Velocity: 56
Note OFF: Time 50010, Note Name: A#2
Note ON: Time 50010, Note Name: G#2, Velocity: 64
Note OFF: Time 50055, Note Name: G#2
Note ON: Time 50055, Note Name: A#2, Velocity: 57
Note OFF: Time 50100, Note Name: A#2
Note ON: Time 50100, Note Name: G#2, Velocity: 66
Note OFF: Time 50145, Note Name: G#2
Note ON: Time 50145, Note Name: A#2, Velocity: 59
Note OFF: Time 50190, Note Name: A#2
Note ON: Time 50190, Note Name: G#2, Velocity: 68
Note OFF: Time 50235, Note Name: G#2
Note ON: Time 50235, Note Name: A#2, Velocity: 61
Note OFF: Time 50280, Note Name: A#2
Note ON: Time 50280, Note Name: G#2, Velocity: 70
Note OFF: Time 50325, Note Name: G#2
Note ON: Time 50325, Note Name: A#2, Velocity: 65
Note OFF: Time 50370, Note Name: A#2
Note ON: Time 50370, Note Name: G#2, Velocity: 73
Note OFF: Time 50415, Note Name: G#2
Note ON: Time 50415, Note Name: A#2, Velocity: 66
Note OFF: Time 50460, Note Name: A#2
Note ON: Time 50460, Note Name: G#2, Velocity: 72
Note OFF: Time 50505, Note Name: G#2
Note ON: Time 50506, Note Name: A#2, Velocity: 63
Note ON: Time 50550, Note Name: G#2, Velocity: 69
Note OFF: Time 50551, Note Name: A#2
Note OFF: Time 50595, Note Name: G#2
Note ON: Time 50595, Note Name: A#2, Velocity: 60
Note ON: Time 50640, Note Name: G#2, Velocity: 66
Note OFF: Time 50641, Note Name: A#2
Note OFF: Time 50700, Note Name: G#2
Note ON: Time 50700, Note Name: A#2, Velocity: 58
Note OFF: Time 50760, Note Name: A#2
Note ON: Time 50760, Note Name: G2, Velocity: 64
Note OFF: Time 50820, Note Name: G2
Note ON: Time 50820, Note Name: G#2, Velocity: 55
Note OFF: Time 50880, Note Name: G#2
Note ON: Time 50880, Note Name: C#3, Velocity: 68
Note OFF: Time 51360, Note Name: C#3
Note ON: Time 51360, Note Name: C#3, Velocity: 68
Note OFF: Time 51600, Note Name: C#3
Note ON: Time 51600, Note Name: E2, Velocity: 61
Note OFF: Time 51680, Note Name: E2
Note ON: Time 51680, Note Name: F2, Velocity: 61
Note OFF: Time 51760, Note Name: F2
Note ON: Time 51760, Note Name: F#2, Velocity: 61
Note OFF: Time 51840, Note Name: F#2
Note ON: Time 51840, Note Name: F2, Velocity: 61
Note OFF: Time 51885, Note Name: F2
Note ON: Time 51885, Note Name: F#2, Velocity: 56
Note OFF: Time 51930, Note Name: F#2
Note ON: Time 51930, Note Name: F2, Velocity: 64
Note OFF: Time 51975, Note Name: F2
Note ON: Time 51975, Note Name: F#2, Velocity: 57
Note OFF: Time 52020, Note Name: F#2
Note ON: Time 52020, Note Name: F2, Velocity: 66
Note OFF: Time 52065, Note Name: F2
Note ON: Time 52065, Note Name: F#2, Velocity: 59
Note OFF: Time 52110, Note Name: F#2
Note ON: Time 52110, Note Name: F2, Velocity: 68
Note OFF: Time 52155, Note Name: F2
Note ON: Time 52155, Note Name: F#2, Velocity: 61
Note OFF: Time 52200, Note Name: F#2
Note ON: Time 52200, Note Name: F2, Velocity: 70
Note OFF: Time 52245, Note Name: F2
Note ON: Time 52245, Note Name: F#2, Velocity: 65
Note OFF: Time 52290, Note Name: F#2
Note ON: Time 52290, Note Name: F2, Velocity: 73
Note OFF: Time 52335, Note Name: F2
Note ON: Time 52335, Note Name: F#2, Velocity: 66
Note OFF: Time 52380, Note Name: F#2
Note ON: Time 52380, Note Name: F2, Velocity: 72
Note OFF: Time 52425, Note Name: F2
Note ON: Time 52426, Note Name: F#2, Velocity: 63
Note ON: Time 52470, Note Name: F2, Velocity: 69
Note OFF: Time 52471, Note Name: F#2
Note OFF: Time 52515, Note Name: F2
Note ON: Time 52515, Note Name: F#2, Velocity: 60
Note ON: Time 52560, Note Name: F2, Velocity: 66
Note OFF: Time 52561, Note Name: F#2
Note OFF: Time 52620, Note Name: F2
Note ON: Time 52620, Note Name: F#2, Velocity: 58
Note OFF: Time 52680, Note Name: F#2
Note ON: Time 52680, Note Name: E2, Velocity: 64
Note OFF: Time 52740, Note Name: E2
Note ON: Time 52740, Note Name: F2, Velocity: 55
Note OFF: Time 52800, Note Name: F2
Note ON: Time 52800, Note Name: F#2, Velocity: 64
Note OFF: Time 53280, Note Name: F#2
Note ON: Time 53280, Note Name: F2, Velocity: 51
Note OFF: Time 53520, Note Name: F2
Note ON: Time 53520, Note Name: C#2, Velocity: 39
Note OFF: Time 53760, Note Name: C#2
Note ON: Time 53760, Note Name: A#1, Velocity: 32
Note ON: Time 53760, Note Name: F2, Velocity: 32
Note ON: Time 53760, Note Name: A#2, Velocity: 39
Note OFF: Time 54240, Note Name: A#2
Note OFF: Time 54240, Note Name: F2
Note OFF: Time 54240, Note Name: A#1
Note ON: Time 54240, Note Name: C#2, Velocity: 28
Note ON: Time 54240, Note Name: F#2, Velocity: 34
Note ON: Time 54240, Note Name: C#3, Velocity: 34
Note OFF: Time 54720, Note Name: C#3
Note OFF: Time 54720, Note Name: F#2
Note OFF: Time 54720, Note Name: C#2
Note ON: Time 54720, Note Name: A#1, Velocity: 32
Note ON: Time 54720, Note Name: F2, Velocity: 32
Note ON: Time 54720, Note Name: A#2, Velocity: 39
Note OFF: Time 55200, Note Name: A#2
Note OFF: Time 55200, Note Name: F2
Note OFF: Time 55200, Note Name: A#1
Note ON: Time 55200, Note Name: C#2, Velocity: 25
Note ON: Time 55200, Note Name: F#2, Velocity: 31
Note ON: Time 55200, Note Name: C#3, Velocity: 31
Note OFF: Time 55680, Note Name: C#3
Note OFF: Time 55680, Note Name: F#2
Note OFF: Time 55680, Note Name: C#2
Note ON: Time 55680, Note Name: A#1, Velocity: 32
Note ON: Time 55680, Note Name: F2, Velocity: 32
Note ON: Time 55680, Note Name: A#2, Velocity: 39
Note OFF: Time 56160, Note Name: A#2
Note OFF: Time 56160, Note Name: F2
Note OFF: Time 56160, Note Name: A#1
Note ON: Time 56160, Note Name: C#2, Velocity: 28
Note ON: Time 56160, Note Name: F#2, Velocity: 28
Note ON: Time 56160, Note Name: C#3, Velocity: 34
Note OFF: Time 56640, Note Name: C#3
Note OFF: Time 56640, Note Name: F#2
Note OFF: Time 56640, Note Name: C#2
Note ON: Time 56640, Note Name: A#1, Velocity: 32
Note ON: Time 56640, Note Name: F2, Velocity: 32
Note ON: Time 56640, Note Name: A#2, Velocity: 39
Note OFF: Time 57120, Note Name: A#2
Note OFF: Time 57120, Note Name: F2
Note OFF: Time 57120, Note Name: A#1
Note ON: Time 57120, Note Name: G#1, Velocity: 32
Note ON: Time 57120, Note Name: G#2, Velocity: 39
Note OFF: Time 57600, Note Name: G#2
Note OFF: Time 57600, Note Name: G#1
Note ON: Time 57600, Note Name: C#2, Velocity: 33
Note OFF: Time 57840, Note Name: C#2
Note ON: Time 57840, Note Name: G#2, Velocity: 27
Note OFF: Time 58080, Note Name: G#2
Note ON: Time 58080, Note Name: F3, Velocity: 27
Note OFF: Time 58320, Note Name: F3
Note ON: Time 58320, Note Name: C#4, Velocity: 28
Note OFF: Time 58560, Note Name: C#4
Note ON: Time 58560, Note Name: C#2, Velocity: 33
Note OFF: Time 58800, Note Name: C#2
Note ON: Time 58800, Note Name: G#2, Velocity: 27
Note OFF: Time 59040, Note Name: G#2
Note ON: Time 59040, Note Name: F3, Velocity: 27
Note OFF: Time 59280, Note Name: F3
Note ON: Time 59280, Note Name: C#4, Velocity: 28
Note OFF: Time 59520, Note Name: C#4
Note ON: Time 59520, Note Name: D#2, Velocity: 33
Note OFF: Time 59760, Note Name: D#2
Note ON: Time 59760, Note Name: G#2, Velocity: 27
Note OFF: Time 60000, Note Name: G#2
Note ON: Time 60000, Note Name: F#3, Velocity: 24
Note OFF: Time 60240, Note Name: F#3
Note ON: Time 60240, Note Name: C4, Velocity: 24
Note OFF: Time 60480, Note Name: C4
Note ON: Time 60480, Note Name: D#2, Velocity: 31
Note OFF: Time 60720, Note Name: D#2
Note ON: Time 60720, Note Name: G#2, Velocity: 24
Note OFF: Time 60960, Note Name: G#2
Note ON: Time 60960, Note Name: F#3, Velocity: 27
Note OFF: Time 61200, Note Name: F#3
Note ON: Time 61200, Note Name: C4, Velocity: 25
Note OFF: Time 61440, Note Name: C4
Note ON: Time 61440, Note Name: G#1, Velocity: 33
Note OFF: Time 61680, Note Name: G#1
Note ON: Time 61680, Note Name: G#2, Velocity: 29
Note OFF: Time 61920, Note Name: G#2
Note ON: Time 61920, Note Name: F#3, Velocity: 29
Note OFF: Time 62160, Note Name: F#3
Note ON: Time 62160, Note Name: C4, Velocity: 30
Note OFF: Time 62400, Note Name: C4
Note ON: Time 62400, Note Name: G#1, Velocity: 36
Note OFF: Time 62640, Note Name: G#1
Note ON: Time 62640, Note Name: G#2, Velocity: 30
Note OFF: Time 62880, Note Name: G#2
Note ON: Time 62880, Note Name: F#3, Velocity: 30
Note OFF: Time 63120, Note Name: F#3
Note ON: Time 63120, Note Name: C4, Velocity: 31
Note OFF: Time 63360, Note Name: C4
Note ON: Time 63360, Note Name: C#2, Velocity: 36
Note OFF: Time 63600, Note Name: C#2
Note ON: Time 63600, Note Name: G#2, Velocity: 30
Note OFF: Time 63840, Note Name: G#2
Note ON: Time 63840, Note Name: F3, Velocity: 28
Note OFF: Time 64080, Note Name: F3
Note ON: Time 64080, Note Name: C#4, Velocity: 25
Note OFF: Time 64320, Note Name: C#4
Note ON: Time 64320, Note Name: C#2, Velocity: 33
Note OFF: Time 64560, Note Name: C#2
Note ON: Time 64560, Note Name: G#2, Velocity: 27
Note OFF: Time 64800, Note Name: G#2
Note ON: Time 64800, Note Name: F3, Velocity: 29
Note OFF: Time 65040, Note Name: F3
Note ON: Time 65040, Note Name: C#4, Velocity: 27
Note OFF: Time 65280, Note Name: C#4
Note ON: Time 65280, Note Name: C#2, Velocity: 33
Note OFF: Time 65520, Note Name: C#2
Note ON: Time 65520, Note Name: G#2, Velocity: 27
Note OFF: Time 65760, Note Name: G#2
Note ON: Time 65760, Note Name: F3, Velocity: 30
Note OFF: Time 66000, Note Name: F3
Note ON: Time 66000, Note Name: C#4, Velocity: 28
Note OFF: Time 66240, Note Name: C#4
Note ON: Time 66240, Note Name: A#1, Velocity: 33
Note OFF: Time 66480, Note Name: A#1
Note ON: Time 66480, Note Name: A#2, Velocity: 29
Note OFF: Time 66720, Note Name: A#2
Note ON: Time 66720, Note Name: G#3, Velocity: 29
Note OFF: Time 66960, Note Name: G#3
Note ON: Time 66960, Note Name: D4, Velocity: 30
Note OFF: Time 67200, Note Name: D4
Note ON: Time 67200, Note Name: D#2, Velocity: 33
Note OFF: Time 67440, Note Name: D#2
Note ON: Time 67440, Note Name: A#2, Velocity: 30
Note OFF: Time 67680, Note Name: A#2
Note ON: Time 67680, Note Name: F#3, Velocity: 30
Note OFF: Time 67920, Note Name: F#3
Note ON: Time 67920, Note Name: D#4, Velocity: 27
Note OFF: Time 68160, Note Name: D#4
Note ON: Time 68160, Note Name: F#2, Velocity: 33
Note OFF: Time 68400, Note Name: F#2
Note ON: Time 68400, Note Name: D#3, Velocity: 29
Note OFF: Time 68640, Note Name: D#3
Note ON: Time 68640, Note Name: A#3, Velocity: 30
Note OFF: Time 68880, Note Name: A#3
Note ON: Time 68880, Note Name: D#4, Velocity: 27
Note OFF: Time 69000, Note Name: D#4
Note ON: Time 69120, Note Name: G2, Velocity: 33
Note OFF: Time 69360, Note Name: G2
Note ON: Time 69360, Note Name: E3, Velocity: 28
Note OFF: Time 69600, Note Name: E3
Note ON: Time 69600, Note Name: C#4, Velocity: 28
Note OFF: Time 69840, Note Name: C#4
Note ON: Time 69840, Note Name: A#4, Velocity: 29
Note OFF: Time 70080, Note Name: A#4
Note ON: Time 70080, Note Name: G#2, Velocity: 33
Note OFF: Time 70320, Note Name: G#2
Note ON: Time 70320, Note Name: D#3, Velocity: 28
Note OFF: Time 70560, Note Name: D#3
Note ON: Time 70560, Note Name: C4, Velocity: 30
Note OFF: Time 70800, Note Name: C4
Note ON: Time 70800, Note Name: F#4, Velocity: 30
Note OFF: Time 71040, Note Name: F#4
Note ON: Time 71040, Note Name: G#1, Velocity: 33
Note OFF: Time 71280, Note Name: G#1
Note ON: Time 71280, Note Name: G#2, Velocity: 27
Note OFF: Time 71520, Note Name: G#2
Note ON: Time 71520, Note Name: F#3, Velocity: 27
Note OFF: Time 71760, Note Name: F#3
Note ON: Time 71760, Note Name: C4, Velocity: 26
Note OFF: Time 72000, Note Name: C4
Note ON: Time 72000, Note Name: C#2, Velocity: 31
Note OFF: Time 72240, Note Name: C#2
Note ON: Time 72240, Note Name: G#2, Velocity: 28
Note OFF: Time 72480, Note Name: G#2
Note ON: Time 72480, Note Name: F3, Velocity: 28
Note OFF: Time 72720, Note Name: F3
Note ON: Time 72720, Note Name: C#4, Velocity: 28
Note OFF: Time 72960, Note Name: C#4
Note ON: Time 72960, Note Name: C#2, Velocity: 33
Note OFF: Time 73200, Note Name: C#2
Note ON: Time 73200, Note Name: G#2, Velocity: 27
Note OFF: Time 73440, Note Name: G#2
Note ON: Time 73440, Note Name: F3, Velocity: 27
Note OFF: Time 73680, Note Name: F3
Note ON: Time 73680, Note Name: C#4, Velocity: 28
Note OFF: Time 73920, Note Name: C#4
Note ON: Time 73920, Note Name: C#2, Velocity: 33
Note OFF: Time 74160, Note Name: C#2
Note ON: Time 74160, Note Name: G#2, Velocity: 27
Note OFF: Time 74400, Note Name: G#2
Note ON: Time 74400, Note Name: F3, Velocity: 27
Note OFF: Time 74640, Note Name: F3
Note ON: Time 74640, Note Name: C#4, Velocity: 28
Note OFF: Time 74880, Note Name: C#4
Note ON: Time 74880, Note Name: D#2, Velocity: 33
Note OFF: Time 75120, Note Name: D#2
Note ON: Time 75120, Note Name: G#2, Velocity: 27
Note OFF: Time 75360, Note Name: G#2
Note ON: Time 75360, Note Name: F#3, Velocity: 24
Note OFF: Time 75600, Note Name: F#3
Note ON: Time 75600, Note Name: C4, Velocity: 24
Note OFF: Time 75840, Note Name: C4
Note ON: Time 75840, Note Name: D#2, Velocity: 31
Note OFF: Time 76080, Note Name: D#2
Note ON: Time 76080, Note Name: G#2, Velocity: 24
Note OFF: Time 76320, Note Name: G#2
Note ON: Time 76320, Note Name: F#3, Velocity: 27
Note OFF: Time 76560, Note Name: F#3
Note ON: Time 76560, Note Name: C4, Velocity: 25
Note OFF: Time 76800, Note Name: C4
Note ON: Time 76800, Note Name: G#1, Velocity: 33
Note OFF: Time 77040, Note Name: G#1
Note ON: Time 77040, Note Name: G#2, Velocity: 29
Note OFF: Time 77280, Note Name: G#2
Note ON: Time 77280, Note Name: F#3, Velocity: 29
Note OFF: Time 77520, Note Name: F#3
Note ON: Time 77520, Note Name: C4, Velocity: 30
Note OFF: Time 77760, Note Name: C4
Note ON: Time 77760, Note Name: G#1, Velocity: 36
Note OFF: Time 78000, Note Name: G#1
Note ON: Time 78000, Note Name: G#2, Velocity: 30
Note OFF: Time 78240, Note Name: G#2
Note ON: Time 78240, Note Name: F#3, Velocity: 30
Note OFF: Time 78480, Note Name: F#3
Note ON: Time 78480, Note Name: C4, Velocity: 31
Note OFF: Time 78720, Note Name: C4
Note ON: Time 78720, Note Name: C#2, Velocity: 36
Note OFF: Time 78960, Note Name: C#2
Note ON: Time 78960, Note Name: G#2, Velocity: 30
Note OFF: Time 79200, Note Name: G#2
Note ON: Time 79200, Note Name: F3, Velocity: 28
Note OFF: Time 79440, Note Name: F3
Note ON: Time 79440, Note Name: C#4, Velocity: 25
Note OFF: Time 79680, Note Name: C#4
Note ON: Time 79680, Note Name: C#2, Velocity: 33
Note OFF: Time 79920, Note Name: C#2
Note ON: Time 79920, Note Name: G#2, Velocity: 27
Note OFF: Time 80160, Note Name: G#2
Note ON: Time 80160, Note Name: F3, Velocity: 29
Note OFF: Time 80400, Note Name: F3
Note ON: Time 80400, Note Name: C#4, Velocity: 27
Note OFF: Time 80640, Note Name: C#4
Note ON: Time 80640, Note Name: C#2, Velocity: 33
Note OFF: Time 80880, Note Name: C#2
Note ON: Time 80880, Note Name: G#2, Velocity: 27
Note OFF: Time 81120, Note Name: G#2
Note ON: Time 81120, Note Name: F3, Velocity: 30
Note OFF: Time 81360, Note Name: F3
Note ON: Time 81360, Note Name: C#4, Velocity: 28
Note OFF: Time 81600, Note Name: C#4
Note ON: Time 81600, Note Name: A#1, Velocity: 33
Note OFF: Time 81840, Note Name: A#1
Note ON: Time 81840, Note Name: A#2, Velocity: 29
Note OFF: Time 82080, Note Name: A#2
Note ON: Time 82080, Note Name: G#3, Velocity: 29
Note OFF: Time 82320, Note Name: G#3
Note ON: Time 82320, Note Name: D4, Velocity: 30
Note OFF: Time 82560, Note Name: D4
Note ON: Time 82560, Note Name: D#2, Velocity: 33
Note OFF: Time 82800, Note Name: D#2
Note ON: Time 82800, Note Name: A#2, Velocity: 30
Note OFF: Time 83040, Note Name: A#2
Note ON: Time 83040, Note Name: F#3, Velocity: 30
Note OFF: Time 83280, Note Name: F#3
Note ON: Time 83280, Note Name: D#4, Velocity: 27
Note OFF: Time 83520, Note Name: D#4
Note ON: Time 83520, Note Name: F#2, Velocity: 33
Note OFF: Time 83760, Note Name: F#2
Note ON: Time 83760, Note Name: D#3, Velocity: 29
Note OFF: Time 84000, Note Name: D#3
Note ON: Time 84000, Note Name: A#3, Velocity: 30
Note OFF: Time 84240, Note Name: A#3
Note ON: Time 84240, Note Name: D#4, Velocity: 27
Note OFF: Time 84360, Note Name: D#4
Note ON: Time 84480, Note Name: G2, Velocity: 33
Note OFF: Time 84720, Note Name: G2
Note ON: Time 84720, Note Name: E3, Velocity: 28
Note OFF: Time 84960, Note Name: E3
Note ON: Time 84960, Note Name: C#4, Velocity: 28
Note OFF: Time 85200, Note Name: C#4
Note ON: Time 85200, Note Name: A#4, Velocity: 29
Note OFF: Time 85440, Note Name: A#4
Note ON: Time 85440, Note Name: G#2, Velocity: 33
Note OFF: Time 85680, Note Name: G#2
Note ON: Time 85680, Note Name: D#3, Velocity: 28
Note OFF: Time 85920, Note Name: D#3
Note ON: Time 85920, Note Name: C4, Velocity: 30
Note OFF: Time 86160, Note Name: C4
Note ON: Time 86160, Note Name: F#4, Velocity: 30
Note OFF: Time 86400, Note Name: F#4
Note ON: Time 86400, Note Name: G#1, Velocity: 33
Note OFF: Time 86640, Note Name: G#1
Note ON: Time 86640, Note Name: G#2, Velocity: 27
Note OFF: Time 86880, Note Name: G#2
Note ON: Time 86880, Note Name: F#3, Velocity: 27
Note OFF: Time 87120, Note Name: F#3
Note ON: Time 87120, Note Name: C4, Velocity: 26
Note OFF: Time 87360, Note Name: C4
Note ON: Time 87360, Note Name: C#2, Velocity: 31
Note OFF: Time 87600, Note Name: C#2
Note ON: Time 87600, Note Name: G#2, Velocity: 28
Note OFF: Time 87840, Note Name: G#2
Note ON: Time 87840, Note Name: F3, Velocity: 28
Note OFF: Time 88080, Note Name: F3
Note ON: Time 88080, Note Name: C#4, Velocity: 28
Note OFF: Time 88320, Note Name: C#4
Note ON: Time 88320, Note Name: G#1, Velocity: 34
Note OFF: Time 88560, Note Name: G#1
Note ON: Time 88560, Note Name: G#2, Velocity: 28
Note OFF: Time 88800, Note Name: G#2
Note ON: Time 88800, Note Name: D#3, Velocity: 28
Note OFF: Time 89040, Note Name: D#3
Note ON: Time 89040, Note Name: C4, Velocity: 29
Note OFF: Time 89280, Note Name: C4
Note ON: Time 89280, Note Name: G#1, Velocity: 34
Note OFF: Time 89520, Note Name: G#1
Note ON: Time 89520, Note Name: G#2, Velocity: 28
Note OFF: Time 89760, Note Name: G#2
Note ON: Time 89760, Note Name: D#3, Velocity: 28
Note OFF: Time 90000, Note Name: D#3
Note ON: Time 90000, Note Name: C4, Velocity: 29
Note OFF: Time 90240, Note Name: C4
Note ON: Time 90240, Note Name: A#1, Velocity: 34
Note OFF: Time 90480, Note Name: A#1
Note ON: Time 90480, Note Name: A#2, Velocity: 28
Note OFF: Time 90720, Note Name: A#2
Note ON: Time 90720, Note Name: D#3, Velocity: 25
Note OFF: Time 90960, Note Name: D#3
Note ON: Time 90960, Note Name: C#4, Velocity: 25
Note OFF: Time 91200, Note Name: C#4
Note ON: Time 91200, Note Name: A#1, Velocity: 32
Note OFF: Time 91440, Note Name: A#1
Note ON: Time 91440, Note Name: A#2, Velocity: 25
Note OFF: Time 91680, Note Name: A#2
Note ON: Time 91680, Note Name: D#3, Velocity: 28
Note OFF: Time 91920, Note Name: D#3
Note ON: Time 91920, Note Name: C#4, Velocity: 26
Note OFF: Time 92160, Note Name: C#4
Note ON: Time 92160, Note Name: A#1, Velocity: 36
Note OFF: Time 92400, Note Name: A#1
Note ON: Time 92400, Note Name: A#2, Velocity: 31
Note OFF: Time 92640, Note Name: A#2
Note ON: Time 92640, Note Name: E3, Velocity: 31
Note OFF: Time 92880, Note Name: E3
Note ON: Time 92880, Note Name: C#4, Velocity: 33
Note OFF: Time 93120, Note Name: C#4
Note ON: Time 93120, Note Name: A#1, Velocity: 39
Note OFF: Time 93360, Note Name: A#1
Note ON: Time 93360, Note Name: A#2, Velocity: 33
Note OFF: Time 93600, Note Name: A#2
Note ON: Time 93600, Note Name: E3, Velocity: 33
Note OFF: Time 93840, Note Name: E3
Note ON: Time 93840, Note Name: C#4, Velocity: 34
Note OFF: Time 94080, Note Name: C#4
Note ON: Time 94080, Note Name: C2, Velocity: 40
Note OFF: Time 94320, Note Name: C2
Note ON: Time 94320, Note Name: C3, Velocity: 33
Note OFF: Time 94560, Note Name: C3
Note ON: Time 94560, Note Name: F#3, Velocity: 31
Note OFF: Time 94800, Note Name: F#3
Note ON: Time 94800, Note Name: D#4, Velocity: 28
Note OFF: Time 95040, Note Name: D#4
Note ON: Time 95040, Note Name: C2, Velocity: 37
Note OFF: Time 95280, Note Name: C2
Note ON: Time 95280, Note Name: C3, Velocity: 30
Note OFF: Time 95520, Note Name: C3
Note ON: Time 95520, Note Name: D#3, Velocity: 33
Note OFF: Time 95760, Note Name: D#3
Note ON: Time 95760, Note Name: D#4, Velocity: 30
Note OFF: Time 96000, Note Name: D#4
Note ON: Time 96000, Note Name: C#2, Velocity: 37
Note OFF: Time 96240, Note Name: C#2
Note ON: Time 96240, Note Name: C#3, Velocity: 31
Note OFF: Time 96480, Note Name: C#3
Note ON: Time 96480, Note Name: A#3, Velocity: 34
Note OFF: Time 96720, Note Name: A#3
Note ON: Time 96720, Note Name: F4, Velocity: 32
Note OFF: Time 96960, Note Name: F4
Note ON: Time 96960, Note Name: C#2, Velocity: 37
Note OFF: Time 97200, Note Name: C#2
Note ON: Time 97200, Note Name: C#3, Velocity: 33
Note OFF: Time 97440, Note Name: C#3
Note ON: Time 97440, Note Name: A#3, Velocity: 33
Note OFF: Time 97680, Note Name: A#3
Note ON: Time 97680, Note Name: F4, Velocity: 34
Note OFF: Time 97920, Note Name: F4
Note ON: Time 97920, Note Name: D#2, Velocity: 40
Note OFF: Time 98160, Note Name: D#2
Note ON: Time 98160, Note Name: D#3, Velocity: 35
Note OFF: Time 98400, Note Name: D#3
Note ON: Time 98400, Note Name: A#3, Velocity: 37
Note OFF: Time 98640, Note Name: A#3
Note ON: Time 98640, Note Name: F#4, Velocity: 33
Note OFF: Time 98880, Note Name: F#4
Note ON: Time 98880, Note Name: F2, Velocity: 41
Note OFF: Time 99120, Note Name: F2
Note ON: Time 99120, Note Name: F3, Velocity: 35
Note OFF: Time 99360, Note Name: F3
Note ON: Time 99360, Note Name: A#3, Velocity: 37
Note OFF: Time 99600, Note Name: A#3
Note ON: Time 99600, Note Name: F4, Velocity: 35
Note OFF: Time 99840, Note Name: F4
Note ON: Time 99840, Note Name: F#2, Velocity: 40
Note OFF: Time 100080, Note Name: F#2
Note ON: Time 100080, Note Name: D#3, Velocity: 34
Note OFF: Time 100320, Note Name: D#3
Note ON: Time 100320, Note Name: A#3, Velocity: 37
Note OFF: Time 100560, Note Name: A#3
Note ON: Time 100560, Note Name: D#4, Velocity: 33
Note OFF: Time 100800, Note Name: D#4
Note ON: Time 100800, Note Name: F#2, Velocity: 38
Note OFF: Time 101040, Note Name: F#2
Note ON: Time 101040, Note Name: F#3, Velocity: 34
Note OFF: Time 101280, Note Name: F#3
Note ON: Time 101280, Note Name: A#3, Velocity: 37
Note OFF: Time 101520, Note Name: A#3
Note ON: Time 101520, Note Name: E4, Velocity: 34
Note OFF: Time 101760, Note Name: E4
Note ON: Time 101760, Note Name: F2, Velocity: 36
Note OFF: Time 102000, Note Name: F2
Note ON: Time 102000, Note Name: C3, Velocity: 32
Note OFF: Time 102240, Note Name: C3
Note ON: Time 102240, Note Name: A3, Velocity: 32
Note OFF: Time 102480, Note Name: A3
Note ON: Time 102480, Note Name: F4, Velocity: 31
Note OFF: Time 102720, Note Name: F4
Note ON: Time 102720, Note Name: D#2, Velocity: 35
Note OFF: Time 102960, Note Name: D#2
Note ON: Time 102960, Note Name: D#3, Velocity: 33
Note OFF: Time 103200, Note Name: D#3
Note ON: Time 103200, Note Name: G#3, Velocity: 27
Note OFF: Time 103440, Note Name: G#3
Note ON: Time 103440, Note Name: F#4, Velocity: 26
Note ON: Time 103440, Note Name: C4, Velocity: 23
Note OFF: Time 103680, Note Name: C4
Note OFF: Time 103680, Note Name: F#4
Note ON: Time 103680, Note Name: C#2, Velocity: 33
Note OFF: Time 103920, Note Name: C#2
Note ON: Time 103920, Note Name: G#2, Velocity: 27
Note OFF: Time 104160, Note Name: G#2
Note ON: Time 104160, Note Name: F3, Velocity: 27
Note OFF: Time 104400, Note Name: F3
Note ON: Time 104400, Note Name: C#4, Velocity: 28
Note OFF: Time 104640, Note Name: C#4
Note ON: Time 104640, Note Name: C#2, Velocity: 33
Note OFF: Time 104880, Note Name: C#2
Note ON: Time 104880, Note Name: G#2, Velocity: 27
Note OFF: Time 105120, Note Name: G#2
Note ON: Time 105120, Note Name: F3, Velocity: 27
Note OFF: Time 105360, Note Name: F3
Note ON: Time 105360, Note Name: C#4, Velocity: 28
Note OFF: Time 105600, Note Name: C#4
Note ON: Time 105600, Note Name: D#2, Velocity: 33
Note OFF: Time 105840, Note Name: D#2
Note ON: Time 105840, Note Name: G#2, Velocity: 27
Note OFF: Time 106080, Note Name: G#2
Note ON: Time 106080, Note Name: F#3, Velocity: 24
Note OFF: Time 106320, Note Name: F#3
Note ON: Time 106320, Note Name: C4, Velocity: 24
Note OFF: Time 106560, Note Name: C4
Note ON: Time 106560, Note Name: D#2, Velocity: 31
Note OFF: Time 106800, Note Name: D#2
Note ON: Time 106800, Note Name: G#2, Velocity: 24
Note OFF: Time 107040, Note Name: G#2
Note ON: Time 107040, Note Name: F#3, Velocity: 27
Note OFF: Time 107280, Note Name: F#3
Note ON: Time 107280, Note Name: C4, Velocity: 25
Note OFF: Time 107520, Note Name: C4
Note ON: Time 107520, Note Name: G#1, Velocity: 33
Note OFF: Time 107760, Note Name: G#1
Note ON: Time 107760, Note Name: G#2, Velocity: 29
Note OFF: Time 108000, Note Name: G#2
Note ON: Time 108000, Note Name: F#3, Velocity: 29
Note OFF: Time 108240, Note Name: F#3
Note ON: Time 108240, Note Name: C4, Velocity: 30
Note OFF: Time 108480, Note Name: C4
Note ON: Time 108480, Note Name: G#1, Velocity: 36
Note OFF: Time 108720, Note Name: G#1
Note ON: Time 108720, Note Name: G#2, Velocity: 30
Note OFF: Time 108960, Note Name: G#2
Note ON: Time 108960, Note Name: F#3, Velocity: 30
Note OFF: Time 109200, Note Name: F#3
Note ON: Time 109200, Note Name: C4, Velocity: 31
Note OFF: Time 109440, Note Name: C4
Note ON: Time 109440, Note Name: C#2, Velocity: 36
Note OFF: Time 109680, Note Name: C#2
Note ON: Time 109680, Note Name: G#2, Velocity: 30
Note OFF: Time 109920, Note Name: G#2
Note ON: Time 109920, Note Name: F3, Velocity: 28
Note OFF: Time 110160, Note Name: F3
Note ON: Time 110160, Note Name: C#4, Velocity: 25
Note OFF: Time 110400, Note Name: C#4
Note ON: Time 110400, Note Name: C#2, Velocity: 33
Note OFF: Time 110640, Note Name: C#2
Note ON: Time 110640, Note Name: G#2, Velocity: 27
Note OFF: Time 110880, Note Name: G#2
Note ON: Time 110880, Note Name: F3, Velocity: 29
Note OFF: Time 111120, Note Name: F3
Note ON: Time 111120, Note Name: C#4, Velocity: 27
Note OFF: Time 111360, Note Name: C#4
Note ON: Time 111360, Note Name: C#2, Velocity: 33
Note OFF: Time 111600, Note Name: C#2
Note ON: Time 111600, Note Name: G#2, Velocity: 27
Note OFF: Time 111840, Note Name: G#2
Note ON: Time 111840, Note Name: F3, Velocity: 30
Note OFF: Time 112080, Note Name: F3
Note ON: Time 112080, Note Name: C#4, Velocity: 28
Note OFF: Time 112320, Note Name: C#4
Note ON: Time 112320, Note Name: A#1, Velocity: 33
Note OFF: Time 112560, Note Name: A#1
Note ON: Time 112560, Note Name: A#2, Velocity: 29
Note OFF: Time 112800, Note Name: A#2
Note ON: Time 112800, Note Name: G#3, Velocity: 29
Note OFF: Time 113040, Note Name: G#3
Note ON: Time 113040, Note Name: D4, Velocity: 30
Note OFF: Time 113280, Note Name: D4
Note ON: Time 113280, Note Name: D#2, Velocity: 33
Note OFF: Time 113520, Note Name: D#2
Note ON: Time 113520, Note Name: A#2, Velocity: 30
Note OFF: Time 113760, Note Name: A#2
Note ON: Time 113760, Note Name: F#3, Velocity: 30
Note OFF: Time 114000, Note Name: F#3
Note ON: Time 114000, Note Name: D#4, Velocity: 27
Note OFF: Time 114240, Note Name: D#4
Note ON: Time 114240, Note Name: F#2, Velocity: 33
Note OFF: Time 114480, Note Name: F#2
Note ON: Time 114480, Note Name: D#3, Velocity: 29
Note OFF: Time 114720, Note Name: D#3
Note ON: Time 114720, Note Name: A#3, Velocity: 30
Note OFF: Time 114960, Note Name: A#3
Note ON: Time 114960, Note Name: D#4, Velocity: 27
Note OFF: Time 115080, Note Name: D#4
Note ON: Time 115200, Note Name: G2, Velocity: 33
Note OFF: Time 115440, Note Name: G2
Note ON: Time 115440, Note Name: E3, Velocity: 28
Note OFF: Time 115680, Note Name: E3
Note ON: Time 115680, Note Name: C#4, Velocity: 28
Note OFF: Time 115920, Note Name: C#4
Note ON: Time 115920, Note Name: A#4, Velocity: 29
Note OFF: Time 116160, Note Name: A#4
Note ON: Time 116160, Note Name: G#2, Velocity: 33
Note OFF: Time 116400, Note Name: G#2
Note ON: Time 116400, Note Name: D#3, Velocity: 28
Note OFF: Time 116640, Note Name: D#3
Note ON: Time 116640, Note Name: C4, Velocity: 30
Note OFF: Time 116880, Note Name: C4
Note ON: Time 116880, Note Name: F#4, Velocity: 30
Note OFF: Time 117120, Note Name: F#4
Note ON: Time 117120, Note Name: G#1, Velocity: 33
Note OFF: Time 117360, Note Name: G#1
Note ON: Time 117360, Note Name: G#2, Velocity: 27
Note OFF: Time 117600, Note Name: G#2
Note ON: Time 117600, Note Name: F#3, Velocity: 27
Note OFF: Time 117840, Note Name: F#3
Note ON: Time 117840, Note Name: C4, Velocity: 26
Note OFF: Time 118080, Note Name: C4
Note ON: Time 118080, Note Name: C#2, Velocity: 27
Note OFF: Time 118320, Note Name: C#2
Note ON: Time 118320, Note Name: G#2, Velocity: 25
Note OFF: Time 118560, Note Name: G#2
Note ON: Time 118560, Note Name: F3, Velocity: 25
Note OFF: Time 118800, Note Name: F3
Note ON: Time 118800, Note Name: C#4, Velocity: 25
Note OFF: Time 119040, Note Name: C#4
Note ON: Time 119040, Note Name: G#1, Velocity: 34
Note OFF: Time 119280, Note Name: G#1
Note ON: Time 119280, Note Name: G#2, Velocity: 28
Note OFF: Time 119520, Note Name: G#2
Note ON: Time 119520, Note Name: D#3, Velocity: 28
Note OFF: Time 119760, Note Name: D#3
Note ON: Time 119760, Note Name: C4, Velocity: 29
Note OFF: Time 120000, Note Name: C4
Note ON: Time 120000, Note Name: G#1, Velocity: 34
Note OFF: Time 120240, Note Name: G#1
Note ON: Time 120240, Note Name: G#2, Velocity: 28
Note OFF: Time 120480, Note Name: G#2
Note ON: Time 120480, Note Name: D#3, Velocity: 28
Note OFF: Time 120720, Note Name: D#3
Note ON: Time 120720, Note Name: C4, Velocity: 29
Note OFF: Time 120960, Note Name: C4
Note ON: Time 120960, Note Name: A#1, Velocity: 34
Note OFF: Time 121200, Note Name: A#1
Note ON: Time 121200, Note Name: A#2, Velocity: 28
Note OFF: Time 121440, Note Name: A#2
Note ON: Time 121440, Note Name: D#3, Velocity: 25
Note OFF: Time 121680, Note Name: D#3
Note ON: Time 121680, Note Name: C#4, Velocity: 25
Note OFF: Time 121920, Note Name: C#4
Note ON: Time 121920, Note Name: A#1, Velocity: 32
Note OFF: Time 122160, Note Name: A#1
Note ON: Time 122160, Note Name: A#2, Velocity: 25
Note OFF: Time 122400, Note Name: A#2
Note ON: Time 122400, Note Name: D#3, Velocity: 28
Note OFF: Time 122640, Note Name: D#3
Note ON: Time 122640, Note Name: C#4, Velocity: 26
Note OFF: Time 122880, Note Name: C#4
Note ON: Time 122880, Note Name: A#1, Velocity: 36
Note OFF: Time 123120, Note Name: A#1
Note ON: Time 123120, Note Name: A#2, Velocity: 31
Note OFF: Time 123360, Note Name: A#2
Note ON: Time 123360, Note Name: E3, Velocity: 31
Note OFF: Time 123600, Note Name: E3
Note ON: Time 123600, Note Name: C#4, Velocity: 33
Note OFF: Time 123840, Note Name: C#4
Note ON: Time 123840, Note Name: A#1, Velocity: 39
Note OFF: Time 124080, Note Name: A#1
Note ON: Time 124080, Note Name: A#2, Velocity: 33
Note OFF: Time 124320, Note Name: A#2
Note ON: Time 124320, Note Name: E3, Velocity: 33
Note OFF: Time 124560, Note Name: E3
Note ON: Time 124560, Note Name: C#4, Velocity: 34
Note OFF: Time 124800, Note Name: C#4
Note ON: Time 124800, Note Name: C2, Velocity: 40
Note OFF: Time 125040, Note Name: C2
Note ON: Time 125040, Note Name: C3, Velocity: 33
Note OFF: Time 125280, Note Name: C3
Note ON: Time 125280, Note Name: F#3, Velocity: 31
Note OFF: Time 125520, Note Name: F#3
Note ON: Time 125520, Note Name: D#4, Velocity: 28
Note OFF: Time 125760, Note Name: D#4
Note ON: Time 125760, Note Name: C2, Velocity: 37
Note OFF: Time 126000, Note Name: C2
Note ON: Time 126000, Note Name: C3, Velocity: 30
Note OFF: Time 126240, Note Name: C3
Note ON: Time 126240, Note Name: D#3, Velocity: 33
Note OFF: Time 126480, Note Name: D#3
Note ON: Time 126480, Note Name: D#4, Velocity: 30
Note OFF: Time 126720, Note Name: D#4
Note ON: Time 126720, Note Name: C#2, Velocity: 37
Note OFF: Time 126960, Note Name: C#2
Note ON: Time 126960, Note Name: C#3, Velocity: 31
Note OFF: Time 127200, Note Name: C#3
Note ON: Time 127200, Note Name: A#3, Velocity: 34
Note OFF: Time 127440, Note Name: A#3
Note ON: Time 127440, Note Name: F4, Velocity: 32
Note OFF: Time 127680, Note Name: F4
Note ON: Time 127680, Note Name: C#2, Velocity: 37
Note OFF: Time 127920, Note Name: C#2
Note ON: Time 127920, Note Name: C#3, Velocity: 33
Note OFF: Time 128160, Note Name: C#3
Note ON: Time 128160, Note Name: A#3, Velocity: 33
Note OFF: Time 128400, Note Name: A#3
Note ON: Time 128400, Note Name: F4, Velocity: 34
Note OFF: Time 128640, Note Name: F4
Note ON: Time 128640, Note Name: D#2, Velocity: 40
Note OFF: Time 128880, Note Name: D#2
Note ON: Time 128880, Note Name: D#3, Velocity: 35
Note OFF: Time 129120, Note Name: D#3
Note ON: Time 129120, Note Name: A#3, Velocity: 37
Note OFF: Time 129360, Note Name: A#3
Note ON: Time 129360, Note Name: F#4, Velocity: 33
Note OFF: Time 129600, Note Name: F#4
Note ON: Time 129600, Note Name: F2, Velocity: 41
Note OFF: Time 129840, Note Name: F2
Note ON: Time 129840, Note Name: F3, Velocity: 35
Note OFF: Time 130080, Note Name: F3
Note ON: Time 130080, Note Name: A#3, Velocity: 37
Note OFF: Time 130320, Note Name: A#3
Note ON: Time 130320, Note Name: F4, Velocity: 35
Note OFF: Time 130560, Note Name: F4
Note ON: Time 130560, Note Name: F#2, Velocity: 40
Note OFF: Time 130800, Note Name: F#2
Note ON: Time 130800, Note Name: D#3, Velocity: 34
Note OFF: Time 131040, Note Name: D#3
Note ON: Time 131040, Note Name: A#3, Velocity: 37
Note OFF: Time 131280, Note Name: A#3
Note ON: Time 131280, Note Name: D#4, Velocity: 33
Note OFF: Time 131520, Note Name: D#4
Note ON: Time 131520, Note Name: F#2, Velocity: 38
Note OFF: Time 131760, Note Name: F#2
Note ON: Time 131760, Note Name: F#3, Velocity: 34
Note OFF: Time 132000, Note Name: F#3
Note ON: Time 132000, Note Name: A#3, Velocity: 37
Note OFF: Time 132240, Note Name: A#3
Note ON: Time 132240, Note Name: E4, Velocity: 34
Note OFF: Time 132480, Note Name: E4
Note ON: Time 132480, Note Name: F2, Velocity: 36
Note OFF: Time 132720, Note Name: F2
Note ON: Time 132720, Note Name: C3, Velocity: 32
Note OFF: Time 132960, Note Name: C3
Note ON: Time 132960, Note Name: A3, Velocity: 32
Note OFF: Time 133200, Note Name: A3
Note ON: Time 133200, Note Name: F4, Velocity: 31
Note OFF: Time 133440, Note Name: F4
Note ON: Time 133440, Note Name: D#2, Velocity: 35
Note OFF: Time 133680, Note Name: D#2
Note ON: Time 133680, Note Name: D#3, Velocity: 33
Note OFF: Time 133920, Note Name: D#3
Note ON: Time 133920, Note Name: G#3, Velocity: 27
Note OFF: Time 134160, Note Name: G#3
Note ON: Time 134160, Note Name: F#4, Velocity: 26
Note ON: Time 134160, Note Name: C4, Velocity: 22
Note OFF: Time 134400, Note Name: C4
Note OFF: Time 134400, Note Name: F#4
Note ON: Time 134400, Note Name: C#2, Velocity: 33
Note OFF: Time 134640, Note Name: C#2
Note ON: Time 134640, Note Name: G#2, Velocity: 27
Note OFF: Time 134880, Note Name: G#2
Note ON: Time 134880, Note Name: F3, Velocity: 27
Note OFF: Time 135120, Note Name: F3
Note ON: Time 135120, Note Name: C#4, Velocity: 28
Note OFF: Time 135360, Note Name: C#4
Note ON: Time 135360, Note Name: C#2, Velocity: 33
Note OFF: Time 135600, Note Name: C#2
Note ON: Time 135600, Note Name: G#2, Velocity: 27
Note OFF: Time 135840, Note Name: G#2
Note ON: Time 135840, Note Name: F3, Velocity: 27
Note OFF: Time 136080, Note Name: F3
Note ON: Time 136080, Note Name: C#4, Velocity: 28
Note OFF: Time 136320, Note Name: C#4
Note ON: Time 136320, Note Name: D#2, Velocity: 33
Note OFF: Time 136560, Note Name: D#2
Note ON: Time 136560, Note Name: G#2, Velocity: 27
Note OFF: Time 136800, Note Name: G#2
Note ON: Time 136800, Note Name: F#3, Velocity: 24
Note OFF: Time 137040, Note Name: F#3
Note ON: Time 137040, Note Name: C4, Velocity: 24
Note OFF: Time 137280, Note Name: C4
Note ON: Time 137280, Note Name: D#2, Velocity: 31
Note OFF: Time 137520, Note Name: D#2
Note ON: Time 137520, Note Name: G#2, Velocity: 24
Note OFF: Time 137760, Note Name: G#2
Note ON: Time 137760, Note Name: F#3, Velocity: 27
Note OFF: Time 138000, Note Name: F#3
Note ON: Time 138000, Note Name: C4, Velocity: 25
Note OFF: Time 138240, Note Name: C4
Note ON: Time 138240, Note Name: G#1, Velocity: 33
Note OFF: Time 138480, Note Name: G#1
Note ON: Time 138480, Note Name: G#2, Velocity: 29
Note OFF: Time 138720, Note Name: G#2
Note ON: Time 138720, Note Name: F#3, Velocity: 29
Note OFF: Time 138960, Note Name: F#3
Note ON: Time 138960, Note Name: C4, Velocity: 30
Note OFF: Time 139200, Note Name: C4
Note ON: Time 139200, Note Name: G#1, Velocity: 36
Note OFF: Time 139440, Note Name: G#1
Note ON: Time 139440, Note Name: G#2, Velocity: 30
Note OFF: Time 139680, Note Name: G#2
Note ON: Time 139680, Note Name: F#3, Velocity: 30
Note OFF: Time 139920, Note Name: F#3
Note ON: Time 139920, Note Name: C4, Velocity: 31
Note OFF: Time 140160, Note Name: C4
Note ON: Time 140160, Note Name: C#2, Velocity: 36
Note OFF: Time 140400, Note Name: C#2
Note ON: Time 140400, Note Name: G#2, Velocity: 30
Note OFF: Time 140640, Note Name: G#2
Note ON: Time 140640, Note Name: F3, Velocity: 28
Note OFF: Time 140880, Note Name: F3
Note ON: Time 140880, Note Name: C#4, Velocity: 25
Note OFF: Time 141120, Note Name: C#4
Note ON: Time 141120, Note Name: C#2, Velocity: 33
Note OFF: Time 141360, Note Name: C#2
Note ON: Time 141360, Note Name: G#2, Velocity: 27
Note OFF: Time 141600, Note Name: G#2
Note ON: Time 141600, Note Name: F3, Velocity: 29
Note OFF: Time 141840, Note Name: F3
Note ON: Time 141840, Note Name: C#4, Velocity: 27
Note OFF: Time 142080, Note Name: C#4
Note ON: Time 142080, Note Name: C#2, Velocity: 33
Note OFF: Time 142320, Note Name: C#2
Note ON: Time 142320, Note Name: G#2, Velocity: 27
Note OFF: Time 142560, Note Name: G#2
Note ON: Time 142560, Note Name: F3, Velocity: 30
Note OFF: Time 142800, Note Name: F3
Note ON: Time 142800, Note Name: C#4, Velocity: 28
Note OFF: Time 143040, Note Name: C#4
Note ON: Time 143040, Note Name: A#1, Velocity: 33
Note OFF: Time 143280, Note Name: A#1
Note ON: Time 143280, Note Name: A#2, Velocity: 29
Note OFF: Time 143520, Note Name: A#2
Note ON: Time 143520, Note Name: G#3, Velocity: 29
Note OFF: Time 143760, Note Name: G#3
Note ON: Time 143760, Note Name: D4, Velocity: 30
Note OFF: Time 144000, Note Name: D4
Note ON: Time 144000, Note Name: D#2, Velocity: 33
Note OFF: Time 144240, Note Name: D#2
Note ON: Time 144240, Note Name: A#2, Velocity: 30
Note OFF: Time 144480, Note Name: A#2
Note ON: Time 144480, Note Name: F#3, Velocity: 30
Note OFF: Time 144720, Note Name: F#3
Note ON: Time 144720, Note Name: D#4, Velocity: 27
Note OFF: Time 144960, Note Name: D#4
Note ON: Time 144960, Note Name: F#2, Velocity: 33
Note OFF: Time 145200, Note Name: F#2
Note ON: Time 145200, Note Name: D#3, Velocity: 29
Note OFF: Time 145440, Note Name: D#3
Note ON: Time 145440, Note Name: A#3, Velocity: 30
Note OFF: Time 145680, Note Name: A#3
Note ON: Time 145680, Note Name: D#4, Velocity: 27
Note OFF: Time 145800, Note Name: D#4
Note ON: Time 145920, Note Name: G2, Velocity: 33
Note OFF: Time 146160, Note Name: G2
Note ON: Time 146160, Note Name: E3, Velocity: 28
Note OFF: Time 146400, Note Name: E3
Note ON: Time 146400, Note Name: C#4, Velocity: 28
Note OFF: Time 146640, Note Name: C#4
Note ON: Time 146640, Note Name: A#4, Velocity: 29
Note OFF: Time 146880, Note Name: A#4
Note ON: Time 146880, Note Name: G#2, Velocity: 33
Note OFF: Time 147120, Note Name: G#2
Note ON: Time 147120, Note Name: D#3, Velocity: 28
Note OFF: Time 147360, Note Name: D#3
Note ON: Time 147360, Note Name: C4, Velocity: 30
Note OFF: Time 147600, Note Name: C4
Note ON: Time 147600, Note Name: F#4, Velocity: 30
Note OFF: Time 147840, Note Name: F#4
Note ON: Time 147840, Note Name: G#1, Velocity: 33
Note OFF: Time 148080, Note Name: G#1
Note ON: Time 148080, Note Name: G#2, Velocity: 27
Note OFF: Time 148320, Note Name: G#2
Note ON: Time 148320, Note Name: F#3, Velocity: 27
Note OFF: Time 148560, Note Name: F#3
Note ON: Time 148560, Note Name: C4, Velocity: 23
Note OFF: Time 148800, Note Name: C4
Note ON: Time 148800, Note Name: C#3, Velocity: 23
Note ON: Time 148800, Note Name: F3, Velocity: 23
Note ON: Time 148800, Note Name: C#4, Velocity: 27
Note OFF: Time 149280, Note Name: C#4
Note OFF: Time 149280, Note Name: F3
Note OFF: Time 149280, Note Name: C#3
Note ON: Time 149760, Note Name: A#1, Velocity: 28
Note ON: Time 149760, Note Name: F2, Velocity: 28
Note ON: Time 149760, Note Name: A#2, Velocity: 34
Note OFF: Time 150240, Note Name: A#2
Note OFF: Time 150240, Note Name: F2
Note OFF: Time 150240, Note Name: A#1
Note ON: Time 150240, Note Name: C#2, Velocity: 25
Note ON: Time 150240, Note Name: F#2, Velocity: 25
Note ON: Time 150240, Note Name: C#3, Velocity: 30
Note OFF: Time 150720, Note Name: C#3
Note OFF: Time 150720, Note Name: F#2
Note OFF: Time 150720, Note Name: C#2
Note ON: Time 150720, Note Name: A#1, Velocity: 28
Note ON: Time 150720, Note Name: F2, Velocity: 28
Note ON: Time 150720, Note Name: A#2, Velocity: 34
Note OFF: Time 151200, Note Name: A#2
Note OFF: Time 151200, Note Name: F2
Note OFF: Time 151200, Note Name: A#1
Note ON: Time 151200, Note Name: C#2, Velocity: 23
Note ON: Time 151200, Note Name: F#2, Velocity: 23
Note ON: Time 151200, Note Name: C#3, Velocity: 28
Note OFF: Time 151680, Note Name: C#3
Note OFF: Time 151680, Note Name: F#2
Note OFF: Time 151680, Note Name: C#2
Note ON: Time 151680, Note Name: A#1, Velocity: 28
Note ON: Time 151680, Note Name: F2, Velocity: 28
Note ON: Time 151680, Note Name: A#2, Velocity: 34
Note OFF: Time 152160, Note Name: A#2
Note OFF: Time 152160, Note Name: F2
Note OFF: Time 152160, Note Name: A#1
Note ON: Time 152160, Note Name: C#2, Velocity: 25
Note ON: Time 152160, Note Name: F#2, Velocity: 25
Note ON: Time 152160, Note Name: C#3, Velocity: 30
Note OFF: Time 152640, Note Name: C#3
Note OFF: Time 152640, Note Name: F#2
Note OFF: Time 152640, Note Name: C#2
Note ON: Time 152640, Note Name: A#1, Velocity: 28
Note ON: Time 152640, Note Name: F2, Velocity: 28
Note ON: Time 152640, Note Name: A#2, Velocity: 34
Note OFF: Time 153120, Note Name: A#2
Note OFF: Time 153120, Note Name: F2
Note OFF: Time 153120, Note Name: A#1
Note ON: Time 153120, Note Name: C#2, Velocity: 22
Note ON: Time 153120, Note Name: F#2, Velocity: 22
Note ON: Time 153120, Note Name: C#3, Velocity: 27
Note OFF: Time 153600, Note Name: C#3
Note OFF: Time 153600, Note Name: F#2
Note OFF: Time 153600, Note Name: C#2
Note ON: Time 153600, Note Name: A#1, Velocity: 28
Note ON: Time 153600, Note Name: F2, Velocity: 28
Note ON: Time 153600, Note Name: A#2, Velocity: 34
Note OFF: Time 154080, Note Name: A#2
Note OFF: Time 154080, Note Name: F2
Note OFF: Time 154080, Note Name: A#1
Note ON: Time 154080, Note Name: C#2, Velocity: 25
Note ON: Time 154080, Note Name: F#2, Velocity: 30
Note ON: Time 154080, Note Name: C#3, Velocity: 30
Note OFF: Time 154560, Note Name: C#3
Note OFF: Time 154560, Note Name: F#2
Note OFF: Time 154560, Note Name: C#2
Note ON: Time 154560, Note Name: A#1, Velocity: 28
Note ON: Time 154560, Note Name: F2, Velocity: 28
Note ON: Time 154560, Note Name: A#2, Velocity: 34
Note OFF: Time 155040, Note Name: A#2
Note OFF: Time 155040, Note Name: F2
Note OFF: Time 155040, Note Name: A#1
Note ON: Time 155040, Note Name: C#2, Velocity: 22
Note ON: Time 155040, Note Name: F#2, Velocity: 27
Note ON: Time 155040, Note Name: C#3, Velocity: 27
Note OFF: Time 155520, Note Name: C#3
Note OFF: Time 155520, Note Name: F#2
Note OFF: Time 155520, Note Name: C#2
Note ON: Time 155520, Note Name: A#1, Velocity: 28
Note ON: Time 155520, Note Name: F2, Velocity: 28
Note ON: Time 155520, Note Name: A#2, Velocity: 34
Note OFF: Time 156000, Note Name: A#2
Note OFF: Time 156000, Note Name: F2
Note OFF: Time 156000, Note Name: A#1
Note ON: Time 156000, Note Name: C#2, Velocity: 25
Note ON: Time 156000, Note Name: F#2, Velocity: 25
Note ON: Time 156000, Note Name: C#3, Velocity: 30
Note OFF: Time 156480, Note Name: C#3
Note OFF: Time 156480, Note Name: F#2
Note OFF: Time 156480, Note Name: C#2
Note ON: Time 156480, Note Name: A#1, Velocity: 28
Note ON: Time 156480, Note Name: F2, Velocity: 28
Note ON: Time 156480, Note Name: A#2, Velocity: 34
Note OFF: Time 156960, Note Name: A#2
Note OFF: Time 156960, Note Name: F2
Note OFF: Time 156960, Note Name: A#1
Note ON: Time 156960, Note Name: C#2, Velocity: 22
Note ON: Time 156960, Note Name: F#2, Velocity: 22
Note ON: Time 156960, Note Name: C#3, Velocity: 27
Note OFF: Time 157440, Note Name: C#3
Note OFF: Time 157440, Note Name: F#2
Note OFF: Time 157440, Note Name: C#2
Note ON: Time 157440, Note Name: A#1, Velocity: 35
Note ON: Time 157440, Note Name: F2, Velocity: 35
Note ON: Time 157440, Note Name: A#2, Velocity: 42
Note OFF: Time 157920, Note Name: A#2
Note OFF: Time 157920, Note Name: F2
Note OFF: Time 157920, Note Name: A#1
Note ON: Time 157920, Note Name: C#2, Velocity: 30
Note ON: Time 157920, Note Name: F#2, Velocity: 37
Note ON: Time 157920, Note Name: C#3, Velocity: 37
Note OFF: Time 158400, Note Name: C#3
Note OFF: Time 158400, Note Name: F#2
Note OFF: Time 158400, Note Name: C#2
Note ON: Time 158400, Note Name: A#1, Velocity: 35
Note ON: Time 158400, Note Name: F2, Velocity: 35
Note ON: Time 158400, Note Name: A#2, Velocity: 42
Note OFF: Time 158880, Note Name: A#2
Note OFF: Time 158880, Note Name: F2
Note OFF: Time 158880, Note Name: A#1
Note ON: Time 158880, Note Name: C#2, Velocity: 27
Note ON: Time 158880, Note Name: F#2, Velocity: 34
Note ON: Time 158880, Note Name: C#3, Velocity: 34
Note OFF: Time 159360, Note Name: C#3
Note OFF: Time 159360, Note Name: F#2
Note OFF: Time 159360, Note Name: C#2
Note ON: Time 159360, Note Name: A#1, Velocity: 35
Note ON: Time 159360, Note Name: F2, Velocity: 35
Note ON: Time 159360, Note Name: A#2, Velocity: 42
Note OFF: Time 159840, Note Name: A#2
Note OFF: Time 159840, Note Name: F2
Note OFF: Time 159840, Note Name: A#1
Note ON: Time 159840, Note Name: C#2, Velocity: 30
Note ON: Time 159840, Note Name: F#2, Velocity: 30
Note ON: Time 159840, Note Name: C#3, Velocity: 37
Note OFF: Time 160320, Note Name: C#3
Note OFF: Time 160320, Note Name: F#2
Note OFF: Time 160320, Note Name: C#2
Note ON: Time 160320, Note Name: A#1, Velocity: 35
Note ON: Time 160320, Note Name: F2, Velocity: 35
Note ON: Time 160320, Note Name: A#2, Velocity: 42
Note OFF: Time 160800, Note Name: A#2
Note OFF: Time 160800, Note Name: F2
Note OFF: Time 160800, Note Name: A#1
Note ON: Time 160800, Note Name: C#2, Velocity: 27
Note ON: Time 160800, Note Name: F#2, Velocity: 27
Note ON: Time 160800, Note Name: C#3, Velocity: 34
Note OFF: Time 161280, Note Name: C#3
Note OFF: Time 161280, Note Name: F#2
Note OFF: Time 161280, Note Name: C#2
Note ON: Time 161280, Note Name: A#1, Velocity: 42
Note ON: Time 161280, Note Name: F2, Velocity: 42
Note ON: Time 161280, Note Name: A#2, Velocity: 52
Note OFF: Time 161760, Note Name: A#2
Note OFF: Time 161760, Note Name: F2
Note OFF: Time 161760, Note Name: A#1
Note ON: Time 161760, Note Name: C#2, Velocity: 36
Note ON: Time 161760, Note Name: F#2, Velocity: 36
Note ON: Time 161760, Note Name: C#3, Velocity: 44
Note OFF: Time 162240, Note Name: C#3
Note OFF: Time 162240, Note Name: F#2
Note OFF: Time 162240, Note Name: C#2
Note ON: Time 162240, Note Name: A#1, Velocity: 38
Note ON: Time 162240, Note Name: F2, Velocity: 38
Note ON: Time 162240, Note Name: A#2, Velocity: 46
Note OFF: Time 162720, Note Name: A#2
Note OFF: Time 162720, Note Name: F2
Note OFF: Time 162720, Note Name: A#1
Note ON: Time 162720, Note Name: C#2, Velocity: 27
Note ON: Time 162720, Note Name: F#2, Velocity: 27
Note ON: Time 162720, Note Name: C#3, Velocity: 35
Note OFF: Time 163200, Note Name: C#3
Note OFF: Time 163200, Note Name: F#2
Note OFF: Time 163200, Note Name: C#2
Note ON: Time 163200, Note Name: A#1, Velocity: 42
Note ON: Time 163200, Note Name: F2, Velocity: 42
Note ON: Time 163200, Note Name: A#2, Velocity: 52
Note OFF: Time 163680, Note Name: A#2
Note OFF: Time 163680, Note Name: F2
Note OFF: Time 163680, Note Name: A#1
Note ON: Time 163680, Note Name: C#2, Velocity: 36
Note ON: Time 163680, Note Name: F#2, Velocity: 36
Note ON: Time 163680, Note Name: C#3, Velocity: 44
Note OFF: Time 164160, Note Name: C#3
Note OFF: Time 164160, Note Name: F#2
Note OFF: Time 164160, Note Name: C#2
Note ON: Time 164160, Note Name: A#1, Velocity: 38
Note ON: Time 164160, Note Name: F2, Velocity: 38
Note ON: Time 164160, Note Name: A#2, Velocity: 46
Note OFF: Time 164640, Note Name: A#2
Note OFF: Time 164640, Note Name: F2
Note OFF: Time 164640, Note Name: A#1
Note ON: Time 164640, Note Name: C#2, Velocity: 27
Note ON: Time 164640, Note Name: F#2, Velocity: 27
Note ON: Time 164640, Note Name: C#3, Velocity: 35
Note OFF: Time 165120, Note Name: C#3
Note OFF: Time 165120, Note Name: F#2
Note OFF: Time 165120, Note Name: C#2
Note ON: Time 165120, Note Name: A#1, Velocity: 32
Note ON: Time 165120, Note Name: F2, Velocity: 32
Note ON: Time 165120, Note Name: A#2, Velocity: 39
Note OFF: Time 165600, Note Name: A#2
Note OFF: Time 165600, Note Name: F2
Note OFF: Time 165600, Note Name: A#1
Note ON: Time 165600, Note Name: C#2, Velocity: 28
Note ON: Time 165600, Note Name: F#2, Velocity: 34
Note ON: Time 165600, Note Name: C#3, Velocity: 34
Note OFF: Time 166080, Note Name: C#3
Note OFF: Time 166080, Note Name: F#2
Note OFF: Time 166080, Note Name: C#2
Note ON: Time 166080, Note Name: A#1, Velocity: 32
Note ON: Time 166080, Note Name: F2, Velocity: 32
Note ON: Time 166080, Note Name: A#2, Velocity: 39
Note OFF: Time 166560, Note Name: A#2
Note OFF: Time 166560, Note Name: F2
Note OFF: Time 166560, Note Name: A#1
Note ON: Time 166560, Note Name: C#2, Velocity: 25
Note ON: Time 166560, Note Name: F#2, Velocity: 31
Note ON: Time 166560, Note Name: C#3, Velocity: 31
Note OFF: Time 167040, Note Name: C#3
Note OFF: Time 167040, Note Name: F#2
Note OFF: Time 167040, Note Name: C#2
Note ON: Time 167040, Note Name: A#1, Velocity: 32
Note ON: Time 167040, Note Name: F2, Velocity: 32
Note ON: Time 167040, Note Name: A#2, Velocity: 39
Note OFF: Time 167520, Note Name: A#2
Note OFF: Time 167520, Note Name: F2
Note OFF: Time 167520, Note Name: A#1
Note ON: Time 167520, Note Name: C#2, Velocity: 28
Note ON: Time 167520, Note Name: F#2, Velocity: 28
Note ON: Time 167520, Note Name: C#3, Velocity: 34
Note OFF: Time 168000, Note Name: C#3
Note OFF: Time 168000, Note Name: F#2
Note OFF: Time 168000, Note Name: C#2
Note ON: Time 168000, Note Name: A#1, Velocity: 32
Note ON: Time 168000, Note Name: F2, Velocity: 32
Note ON: Time 168000, Note Name: A#2, Velocity: 39
Note OFF: Time 168480, Note Name: A#2
Note OFF: Time 168480, Note Name: F2
Note OFF: Time 168480, Note Name: A#1
Note ON: Time 168480, Note Name: C#2, Velocity: 25
Note ON: Time 168480, Note Name: F#2, Velocity: 25
Note ON: Time 168480, Note Name: C#3, Velocity: 31
Note OFF: Time 168960, Note Name: C#3
Note OFF: Time 168960, Note Name: F#2
Note OFF: Time 168960, Note Name: C#2
Note ON: Time 168960, Note Name: A#1, Velocity: 47
Note ON: Time 168960, Note Name: F2, Velocity: 47
Note ON: Time 168960, Note Name: A#2, Velocity: 57
Note OFF: Time 169440, Note Name: A#2
Note OFF: Time 169440, Note Name: F2
Note OFF: Time 169440, Note Name: A#1
Note ON: Time 169440, Note Name: C#2, Velocity: 37
Note ON: Time 169440, Note Name: F#2, Velocity: 37
Note ON: Time 169440, Note Name: C#3, Velocity: 46
Note OFF: Time 169920, Note Name: C#3
Note OFF: Time 169920, Note Name: F#2
Note OFF: Time 169920, Note Name: C#2
Note ON: Time 169920, Note Name: A#1, Velocity: 39
Note ON: Time 169920, Note Name: F2, Velocity: 39
Note ON: Time 169920, Note Name: A#2, Velocity: 48
Note OFF: Time 170400, Note Name: A#2
Note OFF: Time 170400, Note Name: F2
Note OFF: Time 170400, Note Name: A#1
Note ON: Time 170400, Note Name: C#2, Velocity: 30
Note ON: Time 170400, Note Name: F#2, Velocity: 30
Note ON: Time 170400, Note Name: C#3, Velocity: 38
Note OFF: Time 170880, Note Name: C#3
Note OFF: Time 170880, Note Name: F#2
Note OFF: Time 170880, Note Name: C#2
Note ON: Time 170880, Note Name: A#1, Velocity: 47
Note ON: Time 170880, Note Name: F2, Velocity: 47
Note ON: Time 170880, Note Name: A#2, Velocity: 57
Note OFF: Time 171360, Note Name: A#2
Note OFF: Time 171360, Note Name: F2
Note OFF: Time 171360, Note Name: A#1
Note ON: Time 171360, Note Name: C#2, Velocity: 37
Note ON: Time 171360, Note Name: F#2, Velocity: 37
Note ON: Time 171360, Note Name: C#3, Velocity: 46
Note OFF: Time 171840, Note Name: C#3
Note OFF: Time 171840, Note Name: F#2
Note OFF: Time 171840, Note Name: C#2
Note ON: Time 171840, Note Name: A#1, Velocity: 39
Note ON: Time 171840, Note Name: F2, Velocity: 39
Note ON: Time 171840, Note Name: A#2, Velocity: 48
Note OFF: Time 172320, Note Name: A#2
Note OFF: Time 172320, Note Name: F2
Note OFF: Time 172320, Note Name: A#1
Note ON: Time 172320, Note Name: C#2, Velocity: 30
Note ON: Time 172320, Note Name: F#2, Velocity: 30
Note ON: Time 172320, Note Name: C#3, Velocity: 38
Note OFF: Time 172800, Note Name: C#3
Note OFF: Time 172800, Note Name: F#2
Note OFF: Time 172800, Note Name: C#2
Note ON: Time 172800, Note Name: A#1, Velocity: 43
Note ON: Time 172800, Note Name: F2, Velocity: 43
Note ON: Time 172800, Note Name: A#2, Velocity: 52
Note OFF: Time 173280, Note Name: A#2
Note OFF: Time 173280, Note Name: F2
Note OFF: Time 173280, Note Name: A#1
Note ON: Time 173280, Note Name: C#2, Velocity: 37
Note ON: Time 173280, Note Name: F#2, Velocity: 46
Note ON: Time 173280, Note Name: C#3, Velocity: 46
Note OFF: Time 173760, Note Name: C#3
Note OFF: Time 173760, Note Name: F#2
Note OFF: Time 173760, Note Name: C#2
Note ON: Time 173760, Note Name: A#1, Velocity: 45
Note ON: Time 173760, Note Name: F2, Velocity: 45
Note ON: Time 173760, Note Name: A#2, Velocity: 54
Note OFF: Time 174240, Note Name: A#2
Note OFF: Time 174240, Note Name: F2
Note OFF: Time 174240, Note Name: A#1
Note ON: Time 174240, Note Name: C#2, Velocity: 36
Note ON: Time 174240, Note Name: F#2, Velocity: 46
Note ON: Time 174240, Note Name: C#3, Velocity: 46
Note OFF: Time 174720, Note Name: C#3
Note OFF: Time 174720, Note Name: F#2
Note OFF: Time 174720, Note Name: C#2
Note ON: Time 174720, Note Name: A#1, Velocity: 49
Note ON: Time 174720, Note Name: F2, Velocity: 49
Note ON: Time 174720, Note Name: A#2, Velocity: 58
Note OFF: Time 175200, Note Name: A#2
Note OFF: Time 175200, Note Name: F2
Note OFF: Time 175200, Note Name: A#1
Note ON: Time 175200, Note Name: C#2, Velocity: 42
Note ON: Time 175200, Note Name: F#2, Velocity: 42
Note ON: Time 175200, Note Name: C#3, Velocity: 51
Note OFF: Time 175680, Note Name: C#3
Note OFF: Time 175680, Note Name: F#2
Note OFF: Time 175680, Note Name: C#2
Note ON: Time 175680, Note Name: A#1, Velocity: 53
Note ON: Time 175680, Note Name: F2, Velocity: 53
Note ON: Time 175680, Note Name: A#2, Velocity: 64
Note OFF: Time 176160, Note Name: A#2
Note OFF: Time 176160, Note Name: F2
Note OFF: Time 176160, Note Name: A#1
Note ON: Time 176160, Note Name: G#1, Velocity: 56
Note ON: Time 176160, Note Name: G#2, Velocity: 71
Note OFF: Time 176640, Note Name: G#2
Note OFF: Time 176640, Note Name: G#1
Note ON: Time 176640, Note Name: C#1, Velocity: 59
Note ON: Time 176640, Note Name: C#2, Velocity: 74
Note OFF: Time 177120, Note Name: C#2
Note OFF: Time 177120, Note Name: C#1
Note ON: Time 177120, Note Name: C#3, Velocity: 64
Note ON: Time 177120, Note Name: G#3, Velocity: 64
Note ON: Time 177120, Note Name: C#4, Velocity: 76
Note OFF: Time 177480, Note Name: C#4
Note OFF: Time 177480, Note Name: G#3
Note OFF: Time 177480, Note Name: C#3
Note ON: Time 177480, Note Name: D#4, Velocity: 76
Note OFF: Time 177600, Note Name: D#4
Note ON: Time 177600, Note Name: C#3, Velocity: 68
Note ON: Time 177600, Note Name: G#3, Velocity: 68
Note ON: Time 177600, Note Name: F4, Velocity: 80
Note OFF: Time 177960, Note Name: F4
Note OFF: Time 177960, Note Name: G#3
Note OFF: Time 177960, Note Name: C#3
Note ON: Time 177960, Note Name: F#4, Velocity: 80
Note OFF: Time 178080, Note Name: F#4
Note ON: Time 178080, Note Name: D#4, Velocity: 73
Note ON: Time 178080, Note Name: G#3, Velocity: 73
Note ON: Time 178080, Note Name: G#4, Velocity: 86
Note OFF: Time 178440, Note Name: G#4
Note OFF: Time 178440, Note Name: G#3
Note OFF: Time 178440, Note Name: D#4
Note ON: Time 178440, Note Name: F4, Velocity: 85
Note OFF: Time 178560, Note Name: F4
Note ON: Time 178560, Note Name: G#1, Velocity: 77
Note ON: Time 178560, Note Name: G#2, Velocity: 92
Note OFF: Time 179040, Note Name: G#2
Note OFF: Time 179040, Note Name: G#1
Note ON: Time 179040, Note Name: D#4, Velocity: 69
Note ON: Time 179040, Note Name: F#4, Velocity: 69
Note ON: Time 179040, Note Name: C5, Velocity: 81
Note OFF: Time 179400, Note Name: C5
Note OFF: Time 179400, Note Name: F#4
Note OFF: Time 179400, Note Name: D#4
Note ON: Time 179400, Note Name: C#4, Velocity: 65
Note ON: Time 179400, Note Name: F#4, Velocity: 65
Note ON: Time 179400, Note Name: A#4, Velocity: 76
Note OFF: Time 179508, Note Name: A#4
Note OFF: Time 179508, Note Name: F#4
Note OFF: Time 179508, Note Name: C#4
Note ON: Time 179520, Note Name: C#4, Velocity: 63
Note ON: Time 179520, Note Name: F#4, Velocity: 63
Note ON: Time 179520, Note Name: A#4, Velocity: 75
Note OFF: Time 179880, Note Name: A#4
Note OFF: Time 179880, Note Name: F#4
Note OFF: Time 179880, Note Name: C#4
Note ON: Time 179880, Note Name: C4, Velocity: 59
Note ON: Time 179880, Note Name: F#4, Velocity: 59
Note ON: Time 179880, Note Name: G#4, Velocity: 71
Note OFF: Time 179988, Note Name: G#4
Note OFF: Time 179988, Note Name: F#4
Note OFF: Time 179988, Note Name: C4
Note ON: Time 180000, Note Name: C4, Velocity: 57
Note ON: Time 180000, Note Name: F#4, Velocity: 57
Note ON: Time 180000, Note Name: G#4, Velocity: 68
Note OFF: Time 180360, Note Name: G#4
Note OFF: Time 180360, Note Name: F#4
Note OFF: Time 180360, Note Name: C4
Note ON: Time 180360, Note Name: A3, Velocity: 66
Note ON: Time 180360, Note Name: C4, Velocity: 66
Note ON: Time 180360, Note Name: D#4, Velocity: 77
Note OFF: Time 180480, Note Name: D#4
Note OFF: Time 180480, Note Name: C4
Note OFF: Time 180480, Note Name: A3
Note ON: Time 180480, Note Name: A#1, Velocity: 66
Note ON: Time 180480, Note Name: A#2, Velocity: 78
Note OFF: Time 180960, Note Name: A#2
Note OFF: Time 180960, Note Name: A#1
Note ON: Time 180960, Note Name: F3, Velocity: 63
Note ON: Time 180960, Note Name: A#3, Velocity: 63
Note ON: Time 180960, Note Name: C#4, Velocity: 75
Note OFF: Time 181440, Note Name: C#4
Note OFF: Time 181440, Note Name: A#3
Note OFF: Time 181440, Note Name: F3
Note ON: Time 181440, Note Name: C#2, Velocity: 68
Note ON: Time 181440, Note Name: C#3, Velocity: 80
Note OFF: Time 181920, Note Name: C#3
Note OFF: Time 181920, Note Name: C#2
Note ON: Time 181920, Note Name: F4, Velocity: 76
Note ON: Time 181920, Note Name: C#4, Velocity: 64
Note ON: Time 181920, Note Name: A#3, Velocity: 64
Note ON: Time 181920, Note Name: F3, Velocity: 64
Note OFF: Time 182400, Note Name: F3
Note OFF: Time 182400, Note Name: F4
Note OFF: Time 182400, Note Name: C#4
Note OFF: Time 182400, Note Name: A#3
Note ON: Time 182400, Note Name: F1, Velocity: 77
Note ON: Time 182400, Note Name: F2, Velocity: 92
Note OFF: Time 182880, Note Name: F2
Note OFF: Time 182880, Note Name: F1
Note ON: Time 182880, Note Name: F3, Velocity: 69
Note ON: Time 182880, Note Name: A#3, Velocity: 69
Note ON: Time 182880, Note Name: C#4, Velocity: 69
Note ON: Time 182880, Note Name: G4, Velocity: 81
Note OFF: Time 183360, Note Name: G4
Note OFF: Time 183360, Note Name: F3
Note OFF: Time 183360, Note Name: A#3
Note OFF: Time 183360, Note Name: C#4
Note ON: Time 183360, Note Name: F3, Velocity: 64
Note ON: Time 183360, Note Name: A3, Velocity: 64
Note ON: Time 183360, Note Name: C4, Velocity: 64
Note ON: Time 183360, Note Name: A4, Velocity: 75
Note OFF: Time 183840, Note Name: A4
Note OFF: Time 183840, Note Name: F3
Note OFF: Time 183840, Note Name: A3
Note OFF: Time 183840, Note Name: C4
Note ON: Time 183840, Note Name: F3, Velocity: 87
Note OFF: Time 184080, Note Name: F3
Note ON: Time 184080, Note Name: G2, Velocity: 61
Note OFF: Time 184160, Note Name: G2
Note ON: Time 184160, Note Name: G#2, Velocity: 61
Note OFF: Time 184240, Note Name: G#2
Note ON: Time 184240, Note Name: A#2, Velocity: 61
Note OFF: Time 184320, Note Name: A#2
Note ON: Time 184320, Note Name: G#2, Velocity: 61
Note OFF: Time 184365, Note Name: G#2
Note ON: Time 184365, Note Name: A#2, Velocity: 56
Note OFF: Time 184410, Note Name: A#2
Note ON: Time 184410, Note Name: G#2, Velocity: 64
Note OFF: Time 184455, Note Name: G#2
Note ON: Time 184455, Note Name: A#2, Velocity: 57
Note OFF: Time 184500, Note Name: A#2
Note ON: Time 184500, Note Name: G#2, Velocity: 66
Note OFF: Time 184545, Note Name: G#2
Note ON: Time 184545, Note Name: A#2, Velocity: 59
Note OFF: Time 184590, Note Name: A#2
Note ON: Time 184590, Note Name: G#2, Velocity: 68
Note OFF: Time 184635, Note Name: G#2
Note ON: Time 184635, Note Name: A#2, Velocity: 61
Note OFF: Time 184680, Note Name: A#2
Note ON: Time 184680, Note Name: G#2, Velocity: 70
Note OFF: Time 184725, Note Name: G#2
Note ON: Time 184725, Note Name: A#2, Velocity: 65
Note OFF: Time 184770, Note Name: A#2
Note ON: Time 184770, Note Name: G#2, Velocity: 73
Note OFF: Time 184815, Note Name: G#2
Note ON: Time 184815, Note Name: A#2, Velocity: 66
Note OFF: Time 184860, Note Name: A#2
Note ON: Time 184860, Note Name: G#2, Velocity: 72
Note OFF: Time 184905, Note Name: G#2
Note ON: Time 184906, Note Name: A#2, Velocity: 63
Note ON: Time 184950, Note Name: G#2, Velocity: 69
Note OFF: Time 184951, Note Name: A#2
Note OFF: Time 184995, Note Name: G#2
Note ON: Time 184995, Note Name: A#2, Velocity: 60
Note ON: Time 185040, Note Name: G#2, Velocity: 66
Note OFF: Time 185041, Note Name: A#2
Note OFF: Time 185100, Note Name: G#2
Note ON: Time 185100, Note Name: A#2, Velocity: 58
Note OFF: Time 185160, Note Name: A#2
Note ON: Time 185160, Note Name: G2, Velocity: 64
Note OFF: Time 185220, Note Name: G2
Note ON: Time 185220, Note Name: G#2, Velocity: 55
Note OFF: Time 185280, Note Name: G#2
Note ON: Time 185280, Note Name: C#3, Velocity: 68
Note OFF: Time 185760, Note Name: C#3
Note ON: Time 185760, Note Name: C#3, Velocity: 82
Note OFF: Time 186000, Note Name: C#3
Note ON: Time 186000, Note Name: E2, Velocity: 61
Note OFF: Time 186080, Note Name: E2
Note ON: Time 186080, Note Name: F2, Velocity: 61
Note OFF: Time 186160, Note Name: F2
Note ON: Time 186160, Note Name: F#2, Velocity: 61
Note OFF: Time 186240, Note Name: F#2
Note ON: Time 186240, Note Name: F2, Velocity: 61
Note OFF: Time 186285, Note Name: F2
Note ON: Time 186285, Note Name: F#2, Velocity: 56
Note OFF: Time 186330, Note Name: F#2
Note ON: Time 186330, Note Name: F2, Velocity: 64
Note OFF: Time 186375, Note Name: F2
Note ON: Time 186375, Note Name: F#2, Velocity: 57
Note OFF: Time 186420, Note Name: F#2
Note ON: Time 186420, Note Name: F2, Velocity: 66
Note OFF: Time 186465, Note Name: F2
Note ON: Time 186465, Note Name: F#2, Velocity: 59
Note OFF: Time 186510, Note Name: F#2
Note ON: Time 186510, Note Name: F2, Velocity: 68
Note OFF: Time 186555, Note Name: F2
Note ON: Time 186555, Note Name: F#2, Velocity: 61
Note OFF: Time 186600, Note Name: F#2
Note ON: Time 186600, Note Name: F2, Velocity: 70
Note OFF: Time 186645, Note Name: F2
Note ON: Time 186645, Note Name: F#2, Velocity: 65
Note OFF: Time 186690, Note Name: F#2
Note ON: Time 186690, Note Name: F2, Velocity: 73
Note OFF: Time 186735, Note Name: F2
Note ON: Time 186735, Note Name: F#2, Velocity: 66
Note OFF: Time 186780, Note Name: F#2
Note ON: Time 186780, Note Name: F2, Velocity: 72
Note OFF: Time 186825, Note Name: F2
Note ON: Time 186826, Note Name: F#2, Velocity: 63
Note ON: Time 186870, Note Name: F2, Velocity: 69
Note OFF: Time 186871, Note Name: F#2
Note OFF: Time 186915, Note Name: F2
Note ON: Time 186915, Note Name: F#2, Velocity: 60
Note ON: Time 186960, Note Name: F2, Velocity: 66
Note OFF: Time 186961, Note Name: F#2
Note OFF: Time 187020, Note Name: F2
Note ON: Time 187020, Note Name: F#2, Velocity: 58
Note OFF: Time 187080, Note Name: F#2
Note ON: Time 187080, Note Name: E2, Velocity: 64
Note OFF: Time 187140, Note Name: E2
Note ON: Time 187140, Note Name: F2, Velocity: 55
Note OFF: Time 187200, Note Name: F2
Note ON: Time 187200, Note Name: F#2, Velocity: 64
Note OFF: Time 187680, Note Name: F#2
Note ON: Time 187680, Note Name: F2, Velocity: 49
Note OFF: Time 187920, Note Name: F2
Note ON: Time 187920, Note Name: C#2, Velocity: 39
Note OFF: Time 188160, Note Name: C#2
Note ON: Time 188160, Note Name: A#1, Velocity: 32
Note ON: Time 188160, Note Name: F2, Velocity: 32
Note ON: Time 188160, Note Name: A#2, Velocity: 39
Note OFF: Time 188640, Note Name: A#2
Note OFF: Time 188640, Note Name: F2
Note OFF: Time 188640, Note Name: A#1
Note ON: Time 188640, Note Name: C#2, Velocity: 28
Note ON: Time 188640, Note Name: F#2, Velocity: 34
Note ON: Time 188640, Note Name: C#3, Velocity: 34
Note OFF: Time 189120, Note Name: C#3
Note OFF: Time 189120, Note Name: F#2
Note OFF: Time 189120, Note Name: C#2
Note ON: Time 189120, Note Name: A#1, Velocity: 32
Note ON: Time 189120, Note Name: F2, Velocity: 32
Note ON: Time 189120, Note Name: A#2, Velocity: 39
Note OFF: Time 189600, Note Name: A#2
Note OFF: Time 189600, Note Name: F2
Note OFF: Time 189600, Note Name: A#1
Note ON: Time 189600, Note Name: C#2, Velocity: 25
Note ON: Time 189600, Note Name: F#2, Velocity: 31
Note ON: Time 189600, Note Name: C#3, Velocity: 31
Note OFF: Time 190080, Note Name: C#3
Note OFF: Time 190080, Note Name: F#2
Note OFF: Time 190080, Note Name: C#2
Note ON: Time 190080, Note Name: A#1, Velocity: 32
Note ON: Time 190080, Note Name: F2, Velocity: 32
Note ON: Time 190080, Note Name: A#2, Velocity: 39
Note OFF: Time 190560, Note Name: A#2
Note OFF: Time 190560, Note Name: F2
Note OFF: Time 190560, Note Name: A#1
Note ON: Time 190560, Note Name: C#2, Velocity: 28
Note ON: Time 190560, Note Name: F#2, Velocity: 28
Note ON: Time 190560, Note Name: C#3, Velocity: 34
Note OFF: Time 191040, Note Name: C#3
Note OFF: Time 191040, Note Name: F#2
Note OFF: Time 191040, Note Name: C#2
Note ON: Time 191040, Note Name: A#1, Velocity: 32
Note ON: Time 191040, Note Name: F2, Velocity: 32
Note ON: Time 191040, Note Name: A#2, Velocity: 39
Note OFF: Time 191520, Note Name: A#2
Note OFF: Time 191520, Note Name: F2
Note OFF: Time 191520, Note Name: A#1
Note ON: Time 191520, Note Name: A1, Velocity: 57
Note ON: Time 191520, Note Name: A2, Velocity: 73
Note OFF: Time 191880, Note Name: A2
Note OFF: Time 191880, Note Name: A1
Note ON: Time 191880, Note Name: G#1, Velocity: 57
Note ON: Time 191880, Note Name: G#2, Velocity: 73
Note OFF: Time 192000, Note Name: G#2
Note OFF: Time 192000, Note Name: G#1
Note ON: Time 192000, Note Name: C#1, Velocity: 60
Note ON: Time 192000, Note Name: C#2, Velocity: 76
Note OFF: Time 192480, Note Name: C#2
Note OFF: Time 192480, Note Name: C#1
Note ON: Time 192480, Note Name: C#3, Velocity: 64
Note ON: Time 192480, Note Name: G#3, Velocity: 64
Note ON: Time 192480, Note Name: C#4, Velocity: 77
Note OFF: Time 192840, Note Name: C#4
Note OFF: Time 192840, Note Name: G#3
Note OFF: Time 192840, Note Name: C#3
Note ON: Time 192840, Note Name: D#4, Velocity: 77
Note OFF: Time 192960, Note Name: D#4
Note ON: Time 192960, Note Name: C#3, Velocity: 68
Note ON: Time 192960, Note Name: G#3, Velocity: 68
Note ON: Time 192960, Note Name: F4, Velocity: 81
Note OFF: Time 193320, Note Name: F4
Note OFF: Time 193320, Note Name: G#3
Note OFF: Time 193320, Note Name: C#3
Note ON: Time 193320, Note Name: F#4, Velocity: 81
Note OFF: Time 193440, Note Name: F#4
Note ON: Time 193440, Note Name: D#4, Velocity: 73
Note ON: Time 193440, Note Name: G#3, Velocity: 73
Note ON: Time 193440, Note Name: G#4, Velocity: 86
Note OFF: Time 193800, Note Name: G#4
Note OFF: Time 193800, Note Name: G#3
Note OFF: Time 193800, Note Name: D#4
Note ON: Time 193800, Note Name: F4, Velocity: 85
Note OFF: Time 193920, Note Name: F4
Note ON: Time 193920, Note Name: G#1, Velocity: 78
Note ON: Time 193920, Note Name: G#2, Velocity: 92
Note OFF: Time 194400, Note Name: G#2
Note OFF: Time 194400, Note Name: G#1
Note ON: Time 194400, Note Name: D#4, Velocity: 69
Note ON: Time 194400, Note Name: F#4, Velocity: 69
Note ON: Time 194400, Note Name: C5, Velocity: 81
Note OFF: Time 194760, Note Name: C5
Note OFF: Time 194760, Note Name: F#4
Note OFF: Time 194760, Note Name: D#4
Note ON: Time 194760, Note Name: C#4, Velocity: 64
Note ON: Time 194760, Note Name: F#4, Velocity: 64
Note ON: Time 194760, Note Name: A#4, Velocity: 76
Note OFF: Time 194868, Note Name: A#4
Note OFF: Time 194868, Note Name: F#4
Note OFF: Time 194868, Note Name: C#4
Note ON: Time 194880, Note Name: C#4, Velocity: 63
Note ON: Time 194880, Note Name: F#4, Velocity: 63
Note ON: Time 194880, Note Name: A#4, Velocity: 75
Note OFF: Time 195240, Note Name: A#4
Note OFF: Time 195240, Note Name: F#4
Note OFF: Time 195240, Note Name: C#4
Note ON: Time 195240, Note Name: C4, Velocity: 59
Note ON: Time 195240, Note Name: F#4, Velocity: 59
Note ON: Time 195240, Note Name: G#4, Velocity: 70
Note OFF: Time 195348, Note Name: G#4
Note OFF: Time 195348, Note Name: F#4
Note OFF: Time 195348, Note Name: C4
Note ON: Time 195360, Note Name: C4, Velocity: 58
Note ON: Time 195360, Note Name: F#4, Velocity: 58
Note ON: Time 195360, Note Name: G#4, Velocity: 68
Note OFF: Time 195720, Note Name: G#4
Note OFF: Time 195720, Note Name: F#4
Note OFF: Time 195720, Note Name: C4
Note ON: Time 195720, Note Name: A3, Velocity: 63
Note ON: Time 195720, Note Name: C4, Velocity: 63
Note ON: Time 195720, Note Name: D#4, Velocity: 74
Note OFF: Time 195840, Note Name: D#4
Note OFF: Time 195840, Note Name: C4
Note OFF: Time 195840, Note Name: A3
Note ON: Time 195840, Note Name: A#1, Velocity: 63
Note ON: Time 195840, Note Name: A#2, Velocity: 75
Note OFF: Time 196320, Note Name: A#2
Note OFF: Time 196320, Note Name: A#1
Note ON: Time 196320, Note Name: F3, Velocity: 63
Note ON: Time 196320, Note Name: A#3, Velocity: 63
Note ON: Time 196320, Note Name: C#4, Velocity: 75
Note OFF: Time 196800, Note Name: C#4
Note OFF: Time 196800, Note Name: A#3
Note OFF: Time 196800, Note Name: F3
Note ON: Time 196800, Note Name: C#2, Velocity: 68
Note ON: Time 196800, Note Name: C#3, Velocity: 80
Note OFF: Time 197280, Note Name: C#3
Note OFF: Time 197280, Note Name: C#2
Note ON: Time 197280, Note Name: F4, Velocity: 76
Note ON: Time 197280, Note Name: C#4, Velocity: 64
Note ON: Time 197280, Note Name: A#3, Velocity: 64
Note ON: Time 197280, Note Name: F3, Velocity: 64
Note OFF: Time 197760, Note Name: F3
Note OFF: Time 197760, Note Name: F4
Note OFF: Time 197760, Note Name: C#4
Note OFF: Time 197760, Note Name: A#3
Note ON: Time 197760, Note Name: F1, Velocity: 77
Note ON: Time 197760, Note Name: F2, Velocity: 92
Note OFF: Time 198240, Note Name: F2
Note OFF: Time 198240, Note Name: F1
Note ON: Time 198240, Note Name: F3, Velocity: 69
Note ON: Time 198240, Note Name: A#3, Velocity: 69
Note ON: Time 198240, Note Name: C#4, Velocity: 69
Note ON: Time 198240, Note Name: G4, Velocity: 81
Note OFF: Time 198720, Note Name: G4
Note OFF: Time 198720, Note Name: F3
Note OFF: Time 198720, Note Name: A#3
Note OFF: Time 198720, Note Name: C#4
Note ON: Time 198720, Note Name: F3, Velocity: 64
Note ON: Time 198720, Note Name: A3, Velocity: 64
Note ON: Time 198720, Note Name: C4, Velocity: 64
Note ON: Time 198720, Note Name: A4, Velocity: 75
Note OFF: Time 199200, Note Name: A4
Note OFF: Time 199200, Note Name: F3
Note OFF: Time 199200, Note Name: A3
Note OFF: Time 199200, Note Name: C4
Note ON: Time 199200, Note Name: F3, Velocity: 81
Note OFF: Time 199440, Note Name: F3
Note ON: Time 199440, Note Name: G2, Velocity: 61
Note OFF: Time 199520, Note Name: G2
Note ON: Time 199520, Note Name: G#2, Velocity: 61
Note OFF: Time 199600, Note Name: G#2
Note ON: Time 199600, Note Name: A#2, Velocity: 61
Note OFF: Time 199680, Note Name: A#2
Note ON: Time 199680, Note Name: G#2, Velocity: 61
Note OFF: Time 199725, Note Name: G#2
Note ON: Time 199725, Note Name: A#2, Velocity: 56
Note OFF: Time 199770, Note Name: A#2
Note ON: Time 199770, Note Name: G#2, Velocity: 64
Note OFF: Time 199815, Note Name: G#2
Note ON: Time 199815, Note Name: A#2, Velocity: 57
Note OFF: Time 199860, Note Name: A#2
Note ON: Time 199860, Note Name: G#2, Velocity: 66
Note OFF: Time 199905, Note Name: G#2
Note ON: Time 199905, Note Name: A#2, Velocity: 59
Note OFF: Time 199950, Note Name: A#2
Note ON: Time 199950, Note Name: G#2, Velocity: 68
Note OFF: Time 199995, Note Name: G#2
Note ON: Time 199995, Note Name: A#2, Velocity: 61
Note OFF: Time 200040, Note Name: A#2
Note ON: Time 200040, Note Name: G#2, Velocity: 70
Note OFF: Time 200085, Note Name: G#2
Note ON: Time 200085, Note Name: A#2, Velocity: 65
Note OFF: Time 200130, Note Name: A#2
Note ON: Time 200130, Note Name: G#2, Velocity: 73
Note OFF: Time 200175, Note Name: G#2
Note ON: Time 200175, Note Name: A#2, Velocity: 66
Note OFF: Time 200220, Note Name: A#2
Note ON: Time 200220, Note Name: G#2, Velocity: 72
Note OFF: Time 200265, Note Name: G#2
Note ON: Time 200266, Note Name: A#2, Velocity: 63
Note ON: Time 200310, Note Name: G#2, Velocity: 69
Note OFF: Time 200311, Note Name: A#2
Note OFF: Time 200355, Note Name: G#2
Note ON: Time 200355, Note Name: A#2, Velocity: 60
Note ON: Time 200400, Note Name: G#2, Velocity: 66
Note OFF: Time 200401, Note Name: A#2
Note OFF: Time 200460, Note Name: G#2
Note ON: Time 200460, Note Name: A#2, Velocity: 58
Note OFF: Time 200520, Note Name: A#2
Note ON: Time 200520, Note Name: G2, Velocity: 64
Note OFF: Time 200580, Note Name: G2
Note ON: Time 200580, Note Name: G#2, Velocity: 55
Note OFF: Time 200640, Note Name: G#2
Note ON: Time 200640, Note Name: C#3, Velocity: 68
Note OFF: Time 201120, Note Name: C#3
Note ON: Time 201120, Note Name: C#3, Velocity: 68
Note OFF: Time 201360, Note Name: C#3
Note ON: Time 201360, Note Name: E2, Velocity: 61
Note OFF: Time 201440, Note Name: E2
Note ON: Time 201440, Note Name: F2, Velocity: 61
Note OFF: Time 201520, Note Name: F2
Note ON: Time 201520, Note Name: F#2, Velocity: 61
Note OFF: Time 201600, Note Name: F#2
Note ON: Time 201600, Note Name: F2, Velocity: 61
Note OFF: Time 201645, Note Name: F2
Note ON: Time 201645, Note Name: F#2, Velocity: 56
Note OFF: Time 201690, Note Name: F#2
Note ON: Time 201690, Note Name: F2, Velocity: 64
Note OFF: Time 201735, Note Name: F2
Note ON: Time 201735, Note Name: F#2, Velocity: 57
Note OFF: Time 201780, Note Name: F#2
Note ON: Time 201780, Note Name: F2, Velocity: 66
Note OFF: Time 201825, Note Name: F2
Note ON: Time 201825, Note Name: F#2, Velocity: 59
Note OFF: Time 201870, Note Name: F#2
Note ON: Time 201870, Note Name: F2, Velocity: 68
Note OFF: Time 201915, Note Name: F2
Note ON: Time 201915, Note Name: F#2, Velocity: 61
Note OFF: Time 201960, Note Name: F#2
Note ON: Time 201960, Note Name: F2, Velocity: 70
Note OFF: Time 202005, Note Name: F2
Note ON: Time 202005, Note Name: F#2, Velocity: 65
Note OFF: Time 202050, Note Name: F#2
Note ON: Time 202050, Note Name: F2, Velocity: 73
Note OFF: Time 202095, Note Name: F2
Note ON: Time 202095, Note Name: F#2, Velocity: 66
Note OFF: Time 202140, Note Name: F#2
Note ON: Time 202140, Note Name: F2, Velocity: 72
Note OFF: Time 202185, Note Name: F2
Note ON: Time 202186, Note Name: F#2, Velocity: 63
Note ON: Time 202230, Note Name: F2, Velocity: 69
Note OFF: Time 202231, Note Name: F#2
Note OFF: Time 202275, Note Name: F2
Note ON: Time 202275, Note Name: F#2, Velocity: 60
Note ON: Time 202320, Note Name: F2, Velocity: 66
Note OFF: Time 202321, Note Name: F#2
Note OFF: Time 202380, Note Name: F2
Note ON: Time 202380, Note Name: F#2, Velocity: 58
Note OFF: Time 202440, Note Name: F#2
Note ON: Time 202440, Note Name: E2, Velocity: 64
Note OFF: Time 202500, Note Name: E2
Note ON: Time 202500, Note Name: F2, Velocity: 55
Note OFF: Time 202560, Note Name: F2
Note ON: Time 202560, Note Name: F#2, Velocity: 64
Note OFF: Time 203040, Note Name: F#2
Note ON: Time 203040, Note Name: F2, Velocity: 47
Note OFF: Time 203280, Note Name: F2
Note ON: Time 203280, Note Name: C#2, Velocity: 39
Note OFF: Time 203520, Note Name: C#2
Note ON: Time 203520, Note Name: A#1, Velocity: 32
Note ON: Time 203520, Note Name: F2, Velocity: 32
Note ON: Time 203520, Note Name: A#2, Velocity: 39
Note OFF: Time 204000, Note Name: A#2
Note OFF: Time 204000, Note Name: F2
Note OFF: Time 204000, Note Name: A#1
Note ON: Time 204000, Note Name: C#2, Velocity: 28
Note ON: Time 204000, Note Name: F#2, Velocity: 34
Note ON: Time 204000, Note Name: C#3, Velocity: 34
Note OFF: Time 204480, Note Name: C#3
Note OFF: Time 204480, Note Name: F#2
Note OFF: Time 204480, Note Name: C#2
Note ON: Time 204480, Note Name: A#1, Velocity: 32
Note ON: Time 204480, Note Name: F2, Velocity: 32
Note ON: Time 204480, Note Name: A#2, Velocity: 39
Note OFF: Time 204960, Note Name: A#2
Note OFF: Time 204960, Note Name: F2
Note OFF: Time 204960, Note Name: A#1
Note ON: Time 204960, Note Name: C#2, Velocity: 21
Note ON: Time 204960, Note Name: F#2, Velocity: 26
Note ON: Time 204960, Note Name: C#3, Velocity: 26
Note OFF: Time 205440, Note Name: C#3
Note OFF: Time 205440, Note Name: F#2
Note OFF: Time 205440, Note Name: C#2
Note ON: Time 205440, Note Name: A#1, Velocity: 26
Note ON: Time 205440, Note Name: F2, Velocity: 26
Note ON: Time 205440, Note Name: A#2, Velocity: 31
Note OFF: Time 205920, Note Name: A#2
Note OFF: Time 205920, Note Name: F2
Note OFF: Time 205920, Note Name: A#1
Note ON: Time 205920, Note Name: C#2, Velocity: 22
Note ON: Time 205920, Note Name: F#2, Velocity: 22
Note ON: Time 205920, Note Name: C#3, Velocity: 27
Note OFF: Time 206395, Note Name: C#3
Note OFF: Time 206400, Note Name: F#2
Note OFF: Time 206400, Note Name: C#2
Note ON: Time 206400, Note Name: A#1, Velocity: 20
Note ON: Time 206400, Note Name: F2, Velocity: 24
Note OFF: Time 207360, Note Name: F2
Note OFF: Time 207360, Note Name: A#1
Track 3: Chopin Sonate Op. 35  3. Satz
Track 4: Copyright  2002 by Bernd Krger
Track 5: http://www.piano-midi.de
Track 6: Edition: 2014-02-26
Track 7: Spur 7
Track 8: Spur 8
Track 9: Spur 9
