Processing chpn_op33_2.mid...

Track 0: Chopin Mazurka Opus 33 Nr. 2
Track 1: Piano right
Note ON: Time 960, Note Name: A4, Velocity: 77
Note ON: Time 1440, Note Name: F#4, Velocity: 68
Note OFF: Time 1680, Note Name: A4
Note ON: Time 1680, Note Name: C#5, Velocity: 70
Note OFF: Time 1920, Note Name: C#5
Note OFF: Time 1920, Note Name: F#4
Note ON: Time 1920, Note Name: D5, Velocity: 71
Note ON: Time 1920, Note Name: F#4, Velocity: 60
Note OFF: Time 2160, Note Name: D5
Note ON: Time 2160, Note Name: E5, Velocity: 71
Note OFF: Time 2400, Note Name: E5
Note OFF: Time 2400, Note Name: F#4
Note ON: Time 2400, Note Name: F#5, Velocity: 72
Note ON: Time 2400, Note Name: F#4, Velocity: 61
Note OFF: Time 2640, Note Name: F#5
Note ON: Time 2640, Note Name: G5, Velocity: 73
Note OFF: Time 2760, Note Name: G5
Note ON: Time 2760, Note Name: F#5, Velocity: 70
Note OFF: Time 2820, Note Name: F#5
Note ON: Time 2820, Note Name: G5, Velocity: 68
Note OFF: Time 2880, Note Name: G5
Note OFF: Time 2880, Note Name: F#4
Note ON: Time 2880, Note Name: F#5, Velocity: 76
Note OFF: Time 3360, Note Name: F#5
Note ON: Time 3360, Note Name: G4, Velocity: 62
Note ON: Time 3360, Note Name: E5, Velocity: 74
Note OFF: Time 3600, Note Name: E5
Note ON: Time 3600, Note Name: D5, Velocity: 74
Note OFF: Time 3840, Note Name: D5
Note OFF: Time 3840, Note Name: G4
Note ON: Time 3840, Note Name: G4, Velocity: 62
Note ON: Time 3840, Note Name: C#5, Velocity: 73
Note OFF: Time 4080, Note Name: C#5
Note ON: Time 4080, Note Name: B4, Velocity: 72
Note OFF: Time 4320, Note Name: B4
Note OFF: Time 4320, Note Name: G4
Note ON: Time 4320, Note Name: A4, Velocity: 74
Note OFF: Time 4560, Note Name: A4
Note ON: Time 4560, Note Name: D5, Velocity: 70
Note OFF: Time 4800, Note Name: D5
Note ON: Time 4800, Note Name: F#4, Velocity: 62
Note ON: Time 4800, Note Name: D5, Velocity: 74
Note OFF: Time 4960, Note Name: D5
Note ON: Time 4960, Note Name: E5, Velocity: 70
Note OFF: Time 5120, Note Name: E5
Note ON: Time 5120, Note Name: D5, Velocity: 70
Note OFF: Time 5280, Note Name: D5
Note OFF: Time 5280, Note Name: F#4
Note ON: Time 5280, Note Name: F#4, Velocity: 59
Note ON: Time 5280, Note Name: C#5, Velocity: 70
Note OFF: Time 5520, Note Name: C#5
Note ON: Time 5520, Note Name: B4, Velocity: 70
Note OFF: Time 5760, Note Name: B4
Note OFF: Time 5760, Note Name: F#4
Note ON: Time 5760, Note Name: C#5, Velocity: 73
Note ON: Time 6240, Note Name: E4, Velocity: 44
Note ON: Time 6240, Note Name: A4, Velocity: 53
Note OFF: Time 6720, Note Name: A4
Note OFF: Time 6720, Note Name: E4
Note ON: Time 6720, Note Name: G4, Velocity: 57
Note ON: Time 6720, Note Name: A4, Velocity: 68
Note OFF: Time 7200, Note Name: A4
Note OFF: Time 7200, Note Name: G4
Note OFF: Time 7200, Note Name: C#5
Note ON: Time 7200, Note Name: A4, Velocity: 74
Note OFF: Time 7440, Note Name: A4
Note ON: Time 7440, Note Name: C#5, Velocity: 70
Note OFF: Time 7680, Note Name: C#5
Note ON: Time 7680, Note Name: D5, Velocity: 71
Note ON: Time 7680, Note Name: F#4, Velocity: 60
Note OFF: Time 7920, Note Name: D5
Note ON: Time 7920, Note Name: E5, Velocity: 71
Note OFF: Time 8160, Note Name: E5
Note OFF: Time 8160, Note Name: F#4
Note ON: Time 8160, Note Name: F#5, Velocity: 72
Note ON: Time 8160, Note Name: F#4, Velocity: 61
Note OFF: Time 8400, Note Name: F#5
Note ON: Time 8400, Note Name: G5, Velocity: 73
Note OFF: Time 8520, Note Name: G5
Note ON: Time 8520, Note Name: F#5, Velocity: 70
Note OFF: Time 8580, Note Name: F#5
Note ON: Time 8580, Note Name: G5, Velocity: 68
Note OFF: Time 8640, Note Name: G5
Note OFF: Time 8640, Note Name: F#4
Note ON: Time 8640, Note Name: F#5, Velocity: 76
Note OFF: Time 9120, Note Name: F#5
Note ON: Time 9120, Note Name: G4, Velocity: 62
Note ON: Time 9120, Note Name: E5, Velocity: 74
Note OFF: Time 9360, Note Name: E5
Note ON: Time 9360, Note Name: D5, Velocity: 74
Note OFF: Time 9600, Note Name: D5
Note OFF: Time 9600, Note Name: G4
Note ON: Time 9600, Note Name: G4, Velocity: 62
Note ON: Time 9600, Note Name: C#5, Velocity: 73
Note OFF: Time 9840, Note Name: C#5
Note ON: Time 9840, Note Name: B4, Velocity: 72
Note OFF: Time 10080, Note Name: B4
Note OFF: Time 10080, Note Name: G4
Note ON: Time 10080, Note Name: A4, Velocity: 74
Note OFF: Time 10320, Note Name: A4
Note ON: Time 10320, Note Name: C#5, Velocity: 70
Note OFF: Time 10560, Note Name: C#5
Note ON: Time 10560, Note Name: G4, Velocity: 62
Note ON: Time 10560, Note Name: C#5, Velocity: 74
Note OFF: Time 10720, Note Name: C#5
Note ON: Time 10720, Note Name: D5, Velocity: 70
Note OFF: Time 10880, Note Name: D5
Note ON: Time 10880, Note Name: C#5, Velocity: 70
Note OFF: Time 11040, Note Name: C#5
Note OFF: Time 11040, Note Name: G4
Note ON: Time 11040, Note Name: G4, Velocity: 59
Note ON: Time 11040, Note Name: B4, Velocity: 70
Note OFF: Time 11280, Note Name: B4
Note ON: Time 11280, Note Name: A4, Velocity: 70
Note OFF: Time 11520, Note Name: A4
Note OFF: Time 11520, Note Name: G4
Note ON: Time 11520, Note Name: D5, Velocity: 73
Note ON: Time 12000, Note Name: F#4, Velocity: 53
Note OFF: Time 12480, Note Name: F#4
Note ON: Time 12480, Note Name: F#4, Velocity: 47
Note OFF: Time 12960, Note Name: D5
Note ON: Time 12960, Note Name: A4, Velocity: 40
Note OFF: Time 13200, Note Name: A4
Note ON: Time 13200, Note Name: C#5, Velocity: 39
Note OFF: Time 13440, Note Name: C#5
Note OFF: Time 13440, Note Name: F#4
Note ON: Time 13440, Note Name: D5, Velocity: 39
Note ON: Time 13440, Note Name: F#4, Velocity: 33
Note OFF: Time 13680, Note Name: D5
Note ON: Time 13680, Note Name: E5, Velocity: 39
Note OFF: Time 13920, Note Name: E5
Note OFF: Time 13920, Note Name: F#4
Note ON: Time 13920, Note Name: F#5, Velocity: 40
Note ON: Time 13920, Note Name: F#4, Velocity: 33
Note OFF: Time 14160, Note Name: F#5
Note ON: Time 14160, Note Name: G5, Velocity: 40
Note OFF: Time 14280, Note Name: G5
Note ON: Time 14280, Note Name: F#5, Velocity: 39
Note OFF: Time 14340, Note Name: F#5
Note ON: Time 14340, Note Name: G5, Velocity: 37
Note OFF: Time 14400, Note Name: G5
Note OFF: Time 14400, Note Name: F#4
Note ON: Time 14400, Note Name: F#5, Velocity: 42
Note OFF: Time 14880, Note Name: F#5
Note ON: Time 14880, Note Name: G4, Velocity: 34
Note ON: Time 14880, Note Name: E5, Velocity: 40
Note OFF: Time 15120, Note Name: E5
Note ON: Time 15120, Note Name: D5, Velocity: 40
Note OFF: Time 15360, Note Name: D5
Note OFF: Time 15360, Note Name: G4
Note ON: Time 15360, Note Name: G4, Velocity: 34
Note ON: Time 15360, Note Name: C#5, Velocity: 40
Note OFF: Time 15600, Note Name: C#5
Note ON: Time 15600, Note Name: B4, Velocity: 40
Note OFF: Time 15840, Note Name: B4
Note OFF: Time 15840, Note Name: G4
Note ON: Time 15840, Note Name: A4, Velocity: 40
Note OFF: Time 16080, Note Name: A4
Note ON: Time 16080, Note Name: D5, Velocity: 39
Note OFF: Time 16320, Note Name: D5
Note ON: Time 16320, Note Name: F#4, Velocity: 34
Note ON: Time 16320, Note Name: D5, Velocity: 40
Note OFF: Time 16480, Note Name: D5
Note ON: Time 16480, Note Name: E5, Velocity: 39
Note OFF: Time 16640, Note Name: E5
Note ON: Time 16640, Note Name: D5, Velocity: 39
Note OFF: Time 16800, Note Name: D5
Note OFF: Time 16800, Note Name: F#4
Note ON: Time 16800, Note Name: F#4, Velocity: 32
Note ON: Time 16800, Note Name: C#5, Velocity: 39
Note OFF: Time 17040, Note Name: C#5
Note ON: Time 17040, Note Name: B4, Velocity: 39
Note OFF: Time 17280, Note Name: B4
Note OFF: Time 17280, Note Name: F#4
Note ON: Time 17280, Note Name: C#5, Velocity: 40
Note ON: Time 17760, Note Name: E4, Velocity: 24
Note ON: Time 17760, Note Name: A4, Velocity: 29
Note OFF: Time 18240, Note Name: A4
Note OFF: Time 18240, Note Name: E4
Note ON: Time 18240, Note Name: G4, Velocity: 31
Note ON: Time 18240, Note Name: A4, Velocity: 37
Note OFF: Time 18720, Note Name: A4
Note OFF: Time 18720, Note Name: G4
Note OFF: Time 18720, Note Name: C#5
Note ON: Time 18720, Note Name: A4, Velocity: 40
Note OFF: Time 18960, Note Name: A4
Note ON: Time 18960, Note Name: C#5, Velocity: 39
Note OFF: Time 19200, Note Name: C#5
Note ON: Time 19200, Note Name: D5, Velocity: 39
Note ON: Time 19200, Note Name: F#4, Velocity: 33
Note OFF: Time 19440, Note Name: D5
Note ON: Time 19440, Note Name: E5, Velocity: 39
Note OFF: Time 19680, Note Name: E5
Note OFF: Time 19680, Note Name: F#4
Note ON: Time 19680, Note Name: F#5, Velocity: 40
Note ON: Time 19680, Note Name: F#4, Velocity: 33
Note OFF: Time 19920, Note Name: F#5
Note ON: Time 19920, Note Name: G5, Velocity: 40
Note OFF: Time 20040, Note Name: G5
Note ON: Time 20040, Note Name: F#5, Velocity: 39
Note OFF: Time 20100, Note Name: F#5
Note ON: Time 20100, Note Name: G5, Velocity: 37
Note OFF: Time 20160, Note Name: G5
Note OFF: Time 20160, Note Name: F#4
Note ON: Time 20160, Note Name: F#5, Velocity: 42
Note OFF: Time 20640, Note Name: F#5
Note ON: Time 20640, Note Name: G4, Velocity: 34
Note ON: Time 20640, Note Name: E5, Velocity: 40
Note OFF: Time 20880, Note Name: E5
Note ON: Time 20880, Note Name: D5, Velocity: 40
Note OFF: Time 21120, Note Name: D5
Note OFF: Time 21120, Note Name: G4
Note ON: Time 21120, Note Name: G4, Velocity: 34
Note ON: Time 21120, Note Name: C#5, Velocity: 40
Note OFF: Time 21360, Note Name: C#5
Note ON: Time 21360, Note Name: B4, Velocity: 40
Note OFF: Time 21600, Note Name: B4
Note OFF: Time 21600, Note Name: G4
Note ON: Time 21600, Note Name: A4, Velocity: 40
Note OFF: Time 21840, Note Name: A4
Note ON: Time 21840, Note Name: C#5, Velocity: 39
Note OFF: Time 22080, Note Name: C#5
Note ON: Time 22080, Note Name: G4, Velocity: 34
Note ON: Time 22080, Note Name: C#5, Velocity: 40
Note OFF: Time 22240, Note Name: C#5
Note ON: Time 22240, Note Name: D5, Velocity: 39
Note OFF: Time 22400, Note Name: D5
Note ON: Time 22400, Note Name: C#5, Velocity: 39
Note OFF: Time 22560, Note Name: C#5
Note OFF: Time 22560, Note Name: G4
Note ON: Time 22560, Note Name: G4, Velocity: 32
Note ON: Time 22560, Note Name: B4, Velocity: 39
Note OFF: Time 22800, Note Name: B4
Note ON: Time 22800, Note Name: A4, Velocity: 39
Note OFF: Time 23040, Note Name: A4
Note OFF: Time 23040, Note Name: G4
Note ON: Time 23040, Note Name: D5, Velocity: 40
Note ON: Time 23520, Note Name: F#4, Velocity: 29
Note OFF: Time 24000, Note Name: F#4
Note ON: Time 24000, Note Name: F#4, Velocity: 37
Note OFF: Time 24480, Note Name: F#4
Note OFF: Time 24480, Note Name: D5
Note ON: Time 24480, Note Name: E4, Velocity: 73
Note OFF: Time 24720, Note Name: E4
Note ON: Time 24720, Note Name: G#4, Velocity: 70
Note OFF: Time 24960, Note Name: G#4
Note ON: Time 24960, Note Name: A4, Velocity: 71
Note ON: Time 24960, Note Name: C#4, Velocity: 60
Note OFF: Time 25200, Note Name: A4
Note ON: Time 25200, Note Name: B4, Velocity: 71
Note OFF: Time 25440, Note Name: B4
Note OFF: Time 25440, Note Name: C#4
Note ON: Time 25440, Note Name: C#5, Velocity: 72
Note ON: Time 25440, Note Name: C#4, Velocity: 61
Note OFF: Time 25680, Note Name: C#5
Note ON: Time 25680, Note Name: D5, Velocity: 73
Note OFF: Time 25800, Note Name: D5
Note ON: Time 25800, Note Name: C#5, Velocity: 70
Note OFF: Time 25860, Note Name: C#5
Note ON: Time 25860, Note Name: D5, Velocity: 68
Note OFF: Time 25920, Note Name: D5
Note OFF: Time 25920, Note Name: C#4
Note ON: Time 25920, Note Name: C#5, Velocity: 76
Note OFF: Time 26400, Note Name: C#5
Note ON: Time 26400, Note Name: D4, Velocity: 62
Note ON: Time 26400, Note Name: B4, Velocity: 74
Note OFF: Time 26640, Note Name: B4
Note ON: Time 26640, Note Name: A4, Velocity: 74
Note OFF: Time 26880, Note Name: A4
Note OFF: Time 26880, Note Name: D4
Note ON: Time 26880, Note Name: D4, Velocity: 62
Note ON: Time 26880, Note Name: G#4, Velocity: 73
Note OFF: Time 27120, Note Name: G#4
Note ON: Time 27120, Note Name: F#4, Velocity: 72
Note OFF: Time 27360, Note Name: F#4
Note OFF: Time 27360, Note Name: D4
Note ON: Time 27360, Note Name: E4, Velocity: 74
Note OFF: Time 27600, Note Name: E4
Note ON: Time 27600, Note Name: A4, Velocity: 70
Note OFF: Time 27840, Note Name: A4
Note ON: Time 27840, Note Name: C#4, Velocity: 62
Note ON: Time 27840, Note Name: A4, Velocity: 74
Note OFF: Time 28000, Note Name: A4
Note ON: Time 28000, Note Name: B4, Velocity: 70
Note OFF: Time 28160, Note Name: B4
Note ON: Time 28160, Note Name: A4, Velocity: 70
Note OFF: Time 28320, Note Name: A4
Note OFF: Time 28320, Note Name: C#4
Note ON: Time 28320, Note Name: C#4, Velocity: 59
Note ON: Time 28320, Note Name: G#4, Velocity: 70
Note OFF: Time 28560, Note Name: G#4
Note ON: Time 28560, Note Name: F#4, Velocity: 70
Note OFF: Time 28800, Note Name: F#4
Note OFF: Time 28800, Note Name: C#4
Note ON: Time 28800, Note Name: G#4, Velocity: 73
Note ON: Time 29280, Note Name: B3, Velocity: 44
Note ON: Time 29280, Note Name: E4, Velocity: 53
Note OFF: Time 29760, Note Name: E4
Note OFF: Time 29760, Note Name: B3
Note ON: Time 29760, Note Name: D4, Velocity: 57
Note ON: Time 29760, Note Name: E4, Velocity: 68
Note OFF: Time 30240, Note Name: E4
Note OFF: Time 30240, Note Name: D4
Note OFF: Time 30240, Note Name: G#4
Note ON: Time 30240, Note Name: E4, Velocity: 74
Note OFF: Time 30480, Note Name: E4
Note ON: Time 30480, Note Name: G#4, Velocity: 70
Note OFF: Time 30720, Note Name: G#4
Note ON: Time 30720, Note Name: A4, Velocity: 71
Note ON: Time 30720, Note Name: C#4, Velocity: 60
Note OFF: Time 30960, Note Name: A4
Note ON: Time 30960, Note Name: B4, Velocity: 71
Note OFF: Time 31200, Note Name: B4
Note OFF: Time 31200, Note Name: C#4
Note ON: Time 31200, Note Name: C#5, Velocity: 72
Note ON: Time 31200, Note Name: C#4, Velocity: 61
Note OFF: Time 31440, Note Name: C#5
Note ON: Time 31440, Note Name: D5, Velocity: 73
Note OFF: Time 31560, Note Name: D5
Note ON: Time 31560, Note Name: C#5, Velocity: 70
Note OFF: Time 31620, Note Name: C#5
Note ON: Time 31620, Note Name: D5, Velocity: 68
Note OFF: Time 31680, Note Name: D5
Note OFF: Time 31680, Note Name: C#4
Note ON: Time 31680, Note Name: C#5, Velocity: 76
Note OFF: Time 32160, Note Name: C#5
Note ON: Time 32160, Note Name: D4, Velocity: 62
Note ON: Time 32160, Note Name: B4, Velocity: 74
Note OFF: Time 32400, Note Name: B4
Note ON: Time 32400, Note Name: A4, Velocity: 74
Note OFF: Time 32640, Note Name: A4
Note OFF: Time 32640, Note Name: D4
Note ON: Time 32640, Note Name: D4, Velocity: 62
Note ON: Time 32640, Note Name: G#4, Velocity: 73
Note OFF: Time 32880, Note Name: G#4
Note ON: Time 32880, Note Name: F#4, Velocity: 72
Note OFF: Time 33120, Note Name: F#4
Note OFF: Time 33120, Note Name: D4
Note ON: Time 33120, Note Name: E4, Velocity: 74
Note OFF: Time 33360, Note Name: E4
Note ON: Time 33360, Note Name: G#4, Velocity: 70
Note OFF: Time 33600, Note Name: G#4
Note ON: Time 33600, Note Name: D4, Velocity: 62
Note ON: Time 33600, Note Name: G#4, Velocity: 74
Note OFF: Time 33760, Note Name: G#4
Note ON: Time 33760, Note Name: A4, Velocity: 70
Note OFF: Time 33920, Note Name: A4
Note ON: Time 33920, Note Name: G#4, Velocity: 70
Note OFF: Time 34080, Note Name: G#4
Note OFF: Time 34080, Note Name: D4
Note ON: Time 34080, Note Name: D4, Velocity: 59
Note ON: Time 34080, Note Name: F#4, Velocity: 70
Note OFF: Time 34320, Note Name: F#4
Note ON: Time 34320, Note Name: E4, Velocity: 70
Note OFF: Time 34560, Note Name: E4
Note OFF: Time 34560, Note Name: D4
Note ON: Time 34560, Note Name: A4, Velocity: 73
Note ON: Time 35040, Note Name: C#4, Velocity: 53
Note OFF: Time 35520, Note Name: C#4
Note ON: Time 35520, Note Name: C#4, Velocity: 47
Note OFF: Time 36000, Note Name: A4
Note ON: Time 36000, Note Name: E4, Velocity: 40
Note OFF: Time 36240, Note Name: E4
Note ON: Time 36240, Note Name: G#4, Velocity: 39
Note OFF: Time 36480, Note Name: G#4
Note OFF: Time 36480, Note Name: C#4
Note ON: Time 36480, Note Name: A4, Velocity: 39
Note ON: Time 36480, Note Name: C#4, Velocity: 33
Note OFF: Time 36720, Note Name: A4
Note ON: Time 36720, Note Name: B4, Velocity: 39
Note OFF: Time 36960, Note Name: B4
Note OFF: Time 36960, Note Name: C#4
Note ON: Time 36960, Note Name: C#5, Velocity: 40
Note ON: Time 36960, Note Name: C#4, Velocity: 33
Note OFF: Time 37200, Note Name: C#5
Note ON: Time 37200, Note Name: D5, Velocity: 40
Note OFF: Time 37320, Note Name: D5
Note ON: Time 37320, Note Name: C#5, Velocity: 39
Note OFF: Time 37380, Note Name: C#5
Note ON: Time 37380, Note Name: D5, Velocity: 37
Note OFF: Time 37440, Note Name: D5
Note OFF: Time 37440, Note Name: C#4
Note ON: Time 37440, Note Name: C#5, Velocity: 42
Note OFF: Time 37920, Note Name: C#5
Note ON: Time 37920, Note Name: D4, Velocity: 34
Note ON: Time 37920, Note Name: B4, Velocity: 40
Note OFF: Time 38160, Note Name: B4
Note ON: Time 38160, Note Name: A4, Velocity: 40
Note OFF: Time 38400, Note Name: A4
Note OFF: Time 38400, Note Name: D4
Note ON: Time 38400, Note Name: D4, Velocity: 34
Note ON: Time 38400, Note Name: G#4, Velocity: 40
Note OFF: Time 38640, Note Name: G#4
Note ON: Time 38640, Note Name: F#4, Velocity: 40
Note OFF: Time 38880, Note Name: F#4
Note OFF: Time 38880, Note Name: D4
Note ON: Time 38880, Note Name: E4, Velocity: 40
Note OFF: Time 39120, Note Name: E4
Note ON: Time 39120, Note Name: A4, Velocity: 39
Note OFF: Time 39360, Note Name: A4
Note ON: Time 39360, Note Name: C#4, Velocity: 34
Note ON: Time 39360, Note Name: A4, Velocity: 40
Note OFF: Time 39520, Note Name: A4
Note ON: Time 39520, Note Name: B4, Velocity: 39
Note OFF: Time 39680, Note Name: B4
Note ON: Time 39680, Note Name: A4, Velocity: 39
Note OFF: Time 39840, Note Name: A4
Note OFF: Time 39840, Note Name: C#4
Note ON: Time 39840, Note Name: C#4, Velocity: 32
Note ON: Time 39840, Note Name: G#4, Velocity: 39
Note OFF: Time 40080, Note Name: G#4
Note ON: Time 40080, Note Name: F#4, Velocity: 39
Note OFF: Time 40320, Note Name: F#4
Note OFF: Time 40320, Note Name: C#4
Note ON: Time 40320, Note Name: G#4, Velocity: 40
Note ON: Time 40800, Note Name: B3, Velocity: 24
Note ON: Time 40800, Note Name: E4, Velocity: 29
Note OFF: Time 41280, Note Name: E4
Note OFF: Time 41280, Note Name: B3
Note ON: Time 41280, Note Name: D4, Velocity: 31
Note ON: Time 41280, Note Name: E4, Velocity: 37
Note OFF: Time 41760, Note Name: E4
Note OFF: Time 41760, Note Name: D4
Note OFF: Time 41760, Note Name: G#4
Note ON: Time 41760, Note Name: E4, Velocity: 40
Note OFF: Time 42000, Note Name: E4
Note ON: Time 42000, Note Name: G#4, Velocity: 39
Note OFF: Time 42240, Note Name: G#4
Note ON: Time 42240, Note Name: A4, Velocity: 39
Note ON: Time 42240, Note Name: C#4, Velocity: 33
Note OFF: Time 42480, Note Name: A4
Note ON: Time 42480, Note Name: B4, Velocity: 39
Note OFF: Time 42720, Note Name: B4
Note OFF: Time 42720, Note Name: C#4
Note ON: Time 42720, Note Name: C#5, Velocity: 40
Note ON: Time 42720, Note Name: C#4, Velocity: 33
Note OFF: Time 42960, Note Name: C#5
Note ON: Time 42960, Note Name: D5, Velocity: 40
Note OFF: Time 43080, Note Name: D5
Note ON: Time 43080, Note Name: C#5, Velocity: 39
Note OFF: Time 43140, Note Name: C#5
Note ON: Time 43140, Note Name: D5, Velocity: 37
Note OFF: Time 43200, Note Name: D5
Note OFF: Time 43200, Note Name: C#4
Note ON: Time 43200, Note Name: C#5, Velocity: 42
Note OFF: Time 43680, Note Name: C#5
Note ON: Time 43680, Note Name: D4, Velocity: 34
Note ON: Time 43680, Note Name: B4, Velocity: 40
Note OFF: Time 43920, Note Name: B4
Note ON: Time 43920, Note Name: A4, Velocity: 40
Note OFF: Time 44160, Note Name: A4
Note OFF: Time 44160, Note Name: D4
Note ON: Time 44160, Note Name: D4, Velocity: 34
Note ON: Time 44160, Note Name: G#4, Velocity: 40
Note OFF: Time 44400, Note Name: G#4
Note ON: Time 44400, Note Name: F#4, Velocity: 40
Note OFF: Time 44640, Note Name: F#4
Note OFF: Time 44640, Note Name: D4
Note ON: Time 44640, Note Name: E4, Velocity: 40
Note OFF: Time 44880, Note Name: E4
Note ON: Time 44880, Note Name: G#4, Velocity: 39
Note OFF: Time 45120, Note Name: G#4
Note ON: Time 45120, Note Name: D4, Velocity: 34
Note ON: Time 45120, Note Name: G#4, Velocity: 40
Note OFF: Time 45280, Note Name: G#4
Note ON: Time 45280, Note Name: A4, Velocity: 39
Note OFF: Time 45440, Note Name: A4
Note ON: Time 45440, Note Name: G#4, Velocity: 39
Note OFF: Time 45600, Note Name: G#4
Note OFF: Time 45600, Note Name: D4
Note ON: Time 45600, Note Name: D4, Velocity: 32
Note ON: Time 45600, Note Name: F#4, Velocity: 39
Note OFF: Time 45840, Note Name: F#4
Note ON: Time 45840, Note Name: E4, Velocity: 39
Note OFF: Time 46080, Note Name: E4
Note OFF: Time 46080, Note Name: D4
Note ON: Time 46080, Note Name: A4, Velocity: 40
Note ON: Time 46560, Note Name: C#4, Velocity: 37
Note OFF: Time 47040, Note Name: C#4
Note ON: Time 47040, Note Name: G4, Velocity: 73
Note ON: Time 47040, Note Name: C#4, Velocity: 73
Note OFF: Time 47520, Note Name: C#4
Note OFF: Time 47520, Note Name: G4
Note ON: Time 47520, Note Name: F#4, Velocity: 78
Note OFF: Time 47760, Note Name: A4
Note ON: Time 47760, Note Name: C#5, Velocity: 80
Note OFF: Time 48000, Note Name: C#5
Note OFF: Time 48000, Note Name: F#4
Note ON: Time 48000, Note Name: D5, Velocity: 81
Note ON: Time 48000, Note Name: F#4, Velocity: 69
Note OFF: Time 48240, Note Name: D5
Note ON: Time 48240, Note Name: E5, Velocity: 81
Note OFF: Time 48480, Note Name: E5
Note OFF: Time 48480, Note Name: F#4
Note ON: Time 48480, Note Name: F#5, Velocity: 82
Note ON: Time 48480, Note Name: F#4, Velocity: 70
Note OFF: Time 48720, Note Name: F#5
Note ON: Time 48720, Note Name: G5, Velocity: 83
Note OFF: Time 48840, Note Name: G5
Note ON: Time 48840, Note Name: F#5, Velocity: 80
Note OFF: Time 48900, Note Name: F#5
Note ON: Time 48900, Note Name: G5, Velocity: 78
Note OFF: Time 48960, Note Name: G5
Note OFF: Time 48960, Note Name: F#4
Note ON: Time 48960, Note Name: F#5, Velocity: 87
Note OFF: Time 49440, Note Name: F#5
Note ON: Time 49440, Note Name: G4, Velocity: 71
Note ON: Time 49440, Note Name: E5, Velocity: 85
Note OFF: Time 49680, Note Name: E5
Note ON: Time 49680, Note Name: D5, Velocity: 85
Note OFF: Time 49920, Note Name: D5
Note OFF: Time 49920, Note Name: G4
Note ON: Time 49920, Note Name: G4, Velocity: 71
Note ON: Time 49920, Note Name: C#5, Velocity: 83
Note OFF: Time 50160, Note Name: C#5
Note ON: Time 50160, Note Name: B4, Velocity: 82
Note OFF: Time 50400, Note Name: B4
Note OFF: Time 50400, Note Name: G4
Note ON: Time 50400, Note Name: A4, Velocity: 85
Note OFF: Time 50640, Note Name: A4
Note ON: Time 50640, Note Name: D5, Velocity: 80
Note OFF: Time 50880, Note Name: D5
Note ON: Time 50880, Note Name: F#4, Velocity: 71
Note ON: Time 50880, Note Name: D5, Velocity: 85
Note OFF: Time 51040, Note Name: D5
Note ON: Time 51040, Note Name: E5, Velocity: 80
Note OFF: Time 51200, Note Name: E5
Note ON: Time 51200, Note Name: D5, Velocity: 80
Note OFF: Time 51360, Note Name: D5
Note OFF: Time 51360, Note Name: F#4
Note ON: Time 51360, Note Name: F#4, Velocity: 67
Note ON: Time 51360, Note Name: C#5, Velocity: 80
Note OFF: Time 51600, Note Name: C#5
Note ON: Time 51600, Note Name: B4, Velocity: 80
Note OFF: Time 51840, Note Name: B4
Note OFF: Time 51840, Note Name: F#4
Note ON: Time 51840, Note Name: C#5, Velocity: 83
Note ON: Time 52320, Note Name: E4, Velocity: 50
Note ON: Time 52320, Note Name: A4, Velocity: 60
Note OFF: Time 52800, Note Name: A4
Note OFF: Time 52800, Note Name: E4
Note ON: Time 52800, Note Name: G4, Velocity: 65
Note ON: Time 52800, Note Name: A4, Velocity: 78
Note OFF: Time 53280, Note Name: A4
Note OFF: Time 53280, Note Name: G4
Note OFF: Time 53280, Note Name: C#5
Note ON: Time 53280, Note Name: A4, Velocity: 85
Note OFF: Time 53520, Note Name: A4
Note ON: Time 53520, Note Name: C#5, Velocity: 80
Note OFF: Time 53760, Note Name: C#5
Note ON: Time 53760, Note Name: D5, Velocity: 81
Note ON: Time 53760, Note Name: F#4, Velocity: 69
Note OFF: Time 54000, Note Name: D5
Note ON: Time 54000, Note Name: E5, Velocity: 81
Note OFF: Time 54240, Note Name: E5
Note OFF: Time 54240, Note Name: F#4
Note ON: Time 54240, Note Name: F#5, Velocity: 82
Note ON: Time 54240, Note Name: F#4, Velocity: 70
Note OFF: Time 54480, Note Name: F#5
Note ON: Time 54480, Note Name: G5, Velocity: 83
Note OFF: Time 54600, Note Name: G5
Note ON: Time 54600, Note Name: F#5, Velocity: 80
Note OFF: Time 54660, Note Name: F#5
Note ON: Time 54660, Note Name: G5, Velocity: 78
Note OFF: Time 54720, Note Name: G5
Note OFF: Time 54720, Note Name: F#4
Note ON: Time 54720, Note Name: F#5, Velocity: 87
Note OFF: Time 55200, Note Name: F#5
Note ON: Time 55200, Note Name: G4, Velocity: 71
Note ON: Time 55200, Note Name: E5, Velocity: 85
Note OFF: Time 55440, Note Name: E5
Note ON: Time 55440, Note Name: D5, Velocity: 85
Note OFF: Time 55680, Note Name: D5
Note OFF: Time 55680, Note Name: G4
Note ON: Time 55680, Note Name: G4, Velocity: 71
Note ON: Time 55680, Note Name: C#5, Velocity: 83
Note OFF: Time 55920, Note Name: C#5
Note ON: Time 55920, Note Name: B4, Velocity: 82
Note OFF: Time 56160, Note Name: B4
Note OFF: Time 56160, Note Name: G4
Note ON: Time 56160, Note Name: A4, Velocity: 85
Note OFF: Time 56400, Note Name: A4
Note ON: Time 56400, Note Name: C#5, Velocity: 80
Note OFF: Time 56640, Note Name: C#5
Note ON: Time 56640, Note Name: G4, Velocity: 71
Note ON: Time 56640, Note Name: C#5, Velocity: 85
Note OFF: Time 56800, Note Name: C#5
Note ON: Time 56800, Note Name: D5, Velocity: 80
Note OFF: Time 56960, Note Name: D5
Note ON: Time 56960, Note Name: C#5, Velocity: 80
Note OFF: Time 57120, Note Name: C#5
Note OFF: Time 57120, Note Name: G4
Note ON: Time 57120, Note Name: G4, Velocity: 67
Note ON: Time 57120, Note Name: B4, Velocity: 80
Note OFF: Time 57360, Note Name: B4
Note ON: Time 57360, Note Name: A4, Velocity: 80
Note OFF: Time 57600, Note Name: A4
Note OFF: Time 57600, Note Name: G4
Note ON: Time 57600, Note Name: D5, Velocity: 83
Note ON: Time 58080, Note Name: F#4, Velocity: 60
Note OFF: Time 58560, Note Name: F#4
Note ON: Time 58560, Note Name: F#4, Velocity: 54
Note OFF: Time 59040, Note Name: D5
Note ON: Time 59040, Note Name: A4, Velocity: 40
Note OFF: Time 59280, Note Name: A4
Note ON: Time 59280, Note Name: C#5, Velocity: 39
Note OFF: Time 59520, Note Name: C#5
Note OFF: Time 59520, Note Name: F#4
Note ON: Time 59520, Note Name: D5, Velocity: 39
Note ON: Time 59520, Note Name: F#4, Velocity: 33
Note OFF: Time 59760, Note Name: D5
Note ON: Time 59760, Note Name: E5, Velocity: 39
Note OFF: Time 60000, Note Name: E5
Note OFF: Time 60000, Note Name: F#4
Note ON: Time 60000, Note Name: F#5, Velocity: 40
Note ON: Time 60000, Note Name: F#4, Velocity: 33
Note OFF: Time 60240, Note Name: F#5
Note ON: Time 60240, Note Name: G5, Velocity: 40
Note OFF: Time 60360, Note Name: G5
Note ON: Time 60360, Note Name: F#5, Velocity: 39
Note OFF: Time 60420, Note Name: F#5
Note ON: Time 60420, Note Name: G5, Velocity: 37
Note OFF: Time 60480, Note Name: G5
Note OFF: Time 60480, Note Name: F#4
Note ON: Time 60480, Note Name: F#5, Velocity: 42
Note OFF: Time 60960, Note Name: F#5
Note ON: Time 60960, Note Name: G4, Velocity: 34
Note ON: Time 60960, Note Name: E5, Velocity: 40
Note OFF: Time 61200, Note Name: E5
Note ON: Time 61200, Note Name: D5, Velocity: 40
Note OFF: Time 61440, Note Name: D5
Note OFF: Time 61440, Note Name: G4
Note ON: Time 61440, Note Name: G4, Velocity: 34
Note ON: Time 61440, Note Name: C#5, Velocity: 40
Note OFF: Time 61680, Note Name: C#5
Note ON: Time 61680, Note Name: B4, Velocity: 40
Note OFF: Time 61920, Note Name: B4
Note OFF: Time 61920, Note Name: G4
Note ON: Time 61920, Note Name: A4, Velocity: 40
Note OFF: Time 62160, Note Name: A4
Note ON: Time 62160, Note Name: D5, Velocity: 39
Note OFF: Time 62400, Note Name: D5
Note ON: Time 62400, Note Name: F#4, Velocity: 34
Note ON: Time 62400, Note Name: D5, Velocity: 40
Note OFF: Time 62560, Note Name: D5
Note ON: Time 62560, Note Name: E5, Velocity: 39
Note OFF: Time 62720, Note Name: E5
Note ON: Time 62720, Note Name: D5, Velocity: 39
Note OFF: Time 62880, Note Name: D5
Note OFF: Time 62880, Note Name: F#4
Note ON: Time 62880, Note Name: F#4, Velocity: 32
Note ON: Time 62880, Note Name: C#5, Velocity: 39
Note OFF: Time 63120, Note Name: C#5
Note ON: Time 63120, Note Name: B4, Velocity: 39
Note OFF: Time 63360, Note Name: B4
Note OFF: Time 63360, Note Name: F#4
Note ON: Time 63360, Note Name: C#5, Velocity: 40
Note ON: Time 63840, Note Name: E4, Velocity: 24
Note ON: Time 63840, Note Name: A4, Velocity: 29
Note OFF: Time 64320, Note Name: A4
Note OFF: Time 64320, Note Name: E4
Note ON: Time 64320, Note Name: G4, Velocity: 31
Note ON: Time 64320, Note Name: A4, Velocity: 37
Note OFF: Time 64800, Note Name: A4
Note OFF: Time 64800, Note Name: G4
Note OFF: Time 64800, Note Name: C#5
Note ON: Time 64800, Note Name: A4, Velocity: 40
Note OFF: Time 65040, Note Name: A4
Note ON: Time 65040, Note Name: C#5, Velocity: 39
Note OFF: Time 65280, Note Name: C#5
Note ON: Time 65280, Note Name: D5, Velocity: 39
Note ON: Time 65280, Note Name: F#4, Velocity: 33
Note OFF: Time 65520, Note Name: D5
Note ON: Time 65520, Note Name: E5, Velocity: 39
Note OFF: Time 65760, Note Name: E5
Note OFF: Time 65760, Note Name: F#4
Note ON: Time 65760, Note Name: F#5, Velocity: 40
Note ON: Time 65760, Note Name: F#4, Velocity: 33
Note OFF: Time 66000, Note Name: F#5
Note ON: Time 66000, Note Name: G5, Velocity: 40
Note OFF: Time 66120, Note Name: G5
Note ON: Time 66120, Note Name: F#5, Velocity: 39
Note OFF: Time 66180, Note Name: F#5
Note ON: Time 66180, Note Name: G5, Velocity: 37
Note OFF: Time 66240, Note Name: G5
Note OFF: Time 66240, Note Name: F#4
Note ON: Time 66240, Note Name: F#5, Velocity: 42
Note OFF: Time 66720, Note Name: F#5
Note ON: Time 66720, Note Name: G4, Velocity: 34
Note ON: Time 66720, Note Name: E5, Velocity: 40
Note OFF: Time 66960, Note Name: E5
Note ON: Time 66960, Note Name: D5, Velocity: 40
Note OFF: Time 67200, Note Name: D5
Note OFF: Time 67200, Note Name: G4
Note ON: Time 67200, Note Name: G4, Velocity: 34
Note ON: Time 67200, Note Name: C#5, Velocity: 40
Note OFF: Time 67440, Note Name: C#5
Note ON: Time 67440, Note Name: B4, Velocity: 40
Note OFF: Time 67680, Note Name: B4
Note OFF: Time 67680, Note Name: G4
Note ON: Time 67680, Note Name: A4, Velocity: 40
Note OFF: Time 67920, Note Name: A4
Note ON: Time 67920, Note Name: C#5, Velocity: 39
Note OFF: Time 68160, Note Name: C#5
Note ON: Time 68160, Note Name: G4, Velocity: 34
Note ON: Time 68160, Note Name: C#5, Velocity: 40
Note OFF: Time 68320, Note Name: C#5
Note ON: Time 68320, Note Name: D5, Velocity: 39
Note OFF: Time 68480, Note Name: D5
Note ON: Time 68480, Note Name: C#5, Velocity: 39
Note OFF: Time 68640, Note Name: C#5
Note OFF: Time 68640, Note Name: G4
Note ON: Time 68640, Note Name: G4, Velocity: 32
Note ON: Time 68640, Note Name: B4, Velocity: 39
Note OFF: Time 68880, Note Name: B4
Note ON: Time 68880, Note Name: A4, Velocity: 39
Note OFF: Time 69120, Note Name: A4
Note OFF: Time 69120, Note Name: G4
Note ON: Time 69120, Note Name: D5, Velocity: 40
Note ON: Time 69600, Note Name: F#4, Velocity: 29
Note OFF: Time 70080, Note Name: F#4
Note ON: Time 70080, Note Name: F#4, Velocity: 37
Note OFF: Time 70560, Note Name: F#4
Note ON: Time 70560, Note Name: F4, Velocity: 54
Note OFF: Time 70920, Note Name: D5
Note ON: Time 70920, Note Name: D5, Velocity: 58
Note OFF: Time 71040, Note Name: D5
Note ON: Time 71040, Note Name: D#5, Velocity: 62
Note OFF: Time 71520, Note Name: D#5
Note OFF: Time 71520, Note Name: F4
Note ON: Time 71520, Note Name: A#4, Velocity: 42
Note ON: Time 71520, Note Name: E5, Velocity: 55
Note OFF: Time 72000, Note Name: E5
Note ON: Time 72000, Note Name: G5, Velocity: 64
Note OFF: Time 72360, Note Name: G5
Note ON: Time 72360, Note Name: F5, Velocity: 60
Note OFF: Time 72480, Note Name: F5
Note OFF: Time 72480, Note Name: A#4
Note ON: Time 72480, Note Name: A4, Velocity: 49
Note ON: Time 72480, Note Name: C5, Velocity: 64
Note OFF: Time 72720, Note Name: A4
Note ON: Time 72720, Note Name: G4, Velocity: 47
Note OFF: Time 72960, Note Name: G4
Note OFF: Time 72960, Note Name: C5
Note ON: Time 72960, Note Name: F4, Velocity: 48
Note ON: Time 72960, Note Name: C5, Velocity: 57
Note OFF: Time 73440, Note Name: C5
Note ON: Time 73440, Note Name: D5, Velocity: 64
Note OFF: Time 73800, Note Name: D5
Note ON: Time 73800, Note Name: D5, Velocity: 64
Note OFF: Time 73920, Note Name: D5
Note OFF: Time 73920, Note Name: F4
Note ON: Time 73920, Note Name: F4, Velocity: 50
Note ON: Time 73920, Note Name: A#4, Velocity: 50
Note ON: Time 73920, Note Name: D#5, Velocity: 69
Note OFF: Time 74400, Note Name: D#5
Note OFF: Time 74400, Note Name: A#4
Note OFF: Time 74400, Note Name: F4
Note ON: Time 74400, Note Name: F4, Velocity: 51
Note ON: Time 74400, Note Name: A#4, Velocity: 51
Note ON: Time 74400, Note Name: E5, Velocity: 61
Note OFF: Time 74880, Note Name: E5
Note OFF: Time 74880, Note Name: A#4
Note ON: Time 74880, Note Name: C5, Velocity: 52
Note ON: Time 74880, Note Name: G5, Velocity: 71
Note OFF: Time 75240, Note Name: G5
Note ON: Time 75240, Note Name: F5, Velocity: 66
Note OFF: Time 75360, Note Name: F5
Note OFF: Time 75360, Note Name: C5
Note OFF: Time 75360, Note Name: F4
Note ON: Time 75360, Note Name: F4, Velocity: 59
Note ON: Time 75360, Note Name: C5, Velocity: 71
Note OFF: Time 75840, Note Name: F4
Note ON: Time 75840, Note Name: A4, Velocity: 67
Note ON: Time 75840, Note Name: F5, Velocity: 81
Note OFF: Time 76320, Note Name: F5
Note OFF: Time 76320, Note Name: A4
Note OFF: Time 76320, Note Name: C5
Note ON: Time 76320, Note Name: E5, Velocity: 73
Note ON: Time 76320, Note Name: A#4, Velocity: 69
Note ON: Time 76320, Note Name: A#5, Velocity: 86
Note OFF: Time 76560, Note Name: A#5
Note OFF: Time 76560, Note Name: A#4
Note OFF: Time 76560, Note Name: E5
Note ON: Time 76680, Note Name: A#4, Velocity: 66
Note ON: Time 76680, Note Name: E5, Velocity: 69
Note ON: Time 76680, Note Name: A#5, Velocity: 82
Note OFF: Time 76800, Note Name: A#5
Note OFF: Time 76800, Note Name: E5
Note OFF: Time 76800, Note Name: A#4
Note ON: Time 76800, Note Name: A#4, Velocity: 70
Note ON: Time 76800, Note Name: E5, Velocity: 72
Note ON: Time 76800, Note Name: A#5, Velocity: 85
Note OFF: Time 77280, Note Name: A#5
Note OFF: Time 77280, Note Name: E5
Note OFF: Time 77280, Note Name: A#4
Note ON: Time 77280, Note Name: A#4, Velocity: 70
Note ON: Time 77280, Note Name: E5, Velocity: 70
Note ON: Time 77280, Note Name: A#5, Velocity: 83
Note OFF: Time 77760, Note Name: A#5
Note OFF: Time 77760, Note Name: E5
Note OFF: Time 77760, Note Name: A#4
Note ON: Time 77760, Note Name: F5, Velocity: 73
Note ON: Time 77760, Note Name: A#4, Velocity: 73
Note ON: Time 77760, Note Name: A#5, Velocity: 86
Note OFF: Time 78000, Note Name: A#5
Note OFF: Time 78000, Note Name: A#4
Note OFF: Time 78000, Note Name: F5
Note ON: Time 78120, Note Name: A#4, Velocity: 69
Note ON: Time 78120, Note Name: F5, Velocity: 69
Note ON: Time 78120, Note Name: A#5, Velocity: 82
Note OFF: Time 78240, Note Name: A#5
Note OFF: Time 78240, Note Name: F5
Note OFF: Time 78240, Note Name: A#4
Note ON: Time 78240, Note Name: A#4, Velocity: 72
Note ON: Time 78240, Note Name: F5, Velocity: 72
Note ON: Time 78240, Note Name: A#5, Velocity: 85
Note OFF: Time 78720, Note Name: A#5
Note OFF: Time 78720, Note Name: F5
Note OFF: Time 78720, Note Name: A#4
Note ON: Time 78720, Note Name: A4, Velocity: 67
Note ON: Time 78720, Note Name: F5, Velocity: 70
Note ON: Time 78720, Note Name: A5, Velocity: 83
Note OFF: Time 79200, Note Name: A5
Note OFF: Time 79200, Note Name: F5
Note OFF: Time 79200, Note Name: A4
Note ON: Time 79200, Note Name: E5, Velocity: 64
Note ON: Time 79200, Note Name: A#4, Velocity: 64
Note ON: Time 79200, Note Name: A5, Velocity: 78
Note OFF: Time 79440, Note Name: A5
Note OFF: Time 79440, Note Name: A#4
Note OFF: Time 79440, Note Name: E5
Note ON: Time 79560, Note Name: A#4, Velocity: 61
Note ON: Time 79560, Note Name: E5, Velocity: 61
Note ON: Time 79560, Note Name: A5, Velocity: 73
Note OFF: Time 79680, Note Name: A5
Note OFF: Time 79680, Note Name: E5
Note OFF: Time 79680, Note Name: A#4
Note ON: Time 79680, Note Name: A#4, Velocity: 63
Note ON: Time 79680, Note Name: E5, Velocity: 63
Note ON: Time 79680, Note Name: A5, Velocity: 76
Note OFF: Time 80160, Note Name: A5
Note OFF: Time 80160, Note Name: E5
Note OFF: Time 80160, Note Name: A#4
Note ON: Time 80160, Note Name: A#4, Velocity: 60
Note ON: Time 80160, Note Name: E5, Velocity: 60
Note ON: Time 80160, Note Name: G5, Velocity: 72
Note OFF: Time 80640, Note Name: G5
Note OFF: Time 80640, Note Name: E5
Note OFF: Time 80640, Note Name: A#4
Note ON: Time 80640, Note Name: D#5, Velocity: 58
Note ON: Time 80640, Note Name: A4, Velocity: 58
Note ON: Time 80640, Note Name: G5, Velocity: 70
Note OFF: Time 80880, Note Name: G5
Note OFF: Time 80880, Note Name: A4
Note OFF: Time 80880, Note Name: D#5
Note ON: Time 81000, Note Name: A4, Velocity: 52
Note ON: Time 81000, Note Name: D#5, Velocity: 52
Note ON: Time 81000, Note Name: G5, Velocity: 62
Note OFF: Time 81120, Note Name: G5
Note OFF: Time 81120, Note Name: D#5
Note OFF: Time 81120, Note Name: A4
Note ON: Time 81120, Note Name: A4, Velocity: 54
Note ON: Time 81120, Note Name: D#5, Velocity: 54
Note ON: Time 81120, Note Name: G5, Velocity: 64
Note OFF: Time 81600, Note Name: G5
Note OFF: Time 81600, Note Name: D#5
Note OFF: Time 81600, Note Name: A4
Note ON: Time 81600, Note Name: A4, Velocity: 46
Note ON: Time 81600, Note Name: D#5, Velocity: 46
Note ON: Time 81600, Note Name: F5, Velocity: 56
Note OFF: Time 82080, Note Name: F5
Note OFF: Time 82080, Note Name: D#5
Note OFF: Time 82080, Note Name: A4
Note ON: Time 82080, Note Name: D5, Velocity: 61
Note OFF: Time 82440, Note Name: D5
Note ON: Time 82440, Note Name: D5, Velocity: 58
Note OFF: Time 82560, Note Name: D5
Note ON: Time 82560, Note Name: F4, Velocity: 45
Note ON: Time 82560, Note Name: A#4, Velocity: 45
Note ON: Time 82560, Note Name: D#5, Velocity: 62
Note OFF: Time 83040, Note Name: D#5
Note OFF: Time 83040, Note Name: A#4
Note OFF: Time 83040, Note Name: F4
Note ON: Time 83040, Note Name: F4, Velocity: 46
Note ON: Time 83040, Note Name: A#4, Velocity: 46
Note ON: Time 83040, Note Name: E5, Velocity: 55
Note OFF: Time 83520, Note Name: E5
Note OFF: Time 83520, Note Name: A#4
Note OFF: Time 83520, Note Name: F4
Note ON: Time 83520, Note Name: F#5, Velocity: 64
Note OFF: Time 83880, Note Name: F#5
Note ON: Time 83880, Note Name: F5, Velocity: 60
Note OFF: Time 84000, Note Name: F5
Note ON: Time 84000, Note Name: F4, Velocity: 53
Note ON: Time 84000, Note Name: C5, Velocity: 64
Note OFF: Time 84360, Note Name: F4
Note ON: Time 84360, Note Name: F#4, Velocity: 47
Note OFF: Time 84480, Note Name: F#4
Note OFF: Time 84480, Note Name: C5
Note ON: Time 84480, Note Name: F4, Velocity: 48
Note ON: Time 84480, Note Name: C5, Velocity: 57
Note OFF: Time 84960, Note Name: C5
Note OFF: Time 84960, Note Name: F4
Note ON: Time 84960, Note Name: C#5, Velocity: 68
Note OFF: Time 85320, Note Name: C#5
Note ON: Time 85320, Note Name: C#5, Velocity: 64
Note OFF: Time 85440, Note Name: C#5
Note ON: Time 85440, Note Name: F4, Velocity: 50
Note ON: Time 85440, Note Name: A#4, Velocity: 50
Note ON: Time 85440, Note Name: D#5, Velocity: 69
Note OFF: Time 85920, Note Name: D#5
Note OFF: Time 85920, Note Name: A#4
Note OFF: Time 85920, Note Name: F4
Note ON: Time 85920, Note Name: F4, Velocity: 50
Note ON: Time 85920, Note Name: A#4, Velocity: 50
Note ON: Time 85920, Note Name: E5, Velocity: 60
Note OFF: Time 86400, Note Name: E5
Note OFF: Time 86400, Note Name: A#4
Note OFF: Time 86400, Note Name: F4
Note ON: Time 86400, Note Name: F#5, Velocity: 74
Note OFF: Time 86760, Note Name: F#5
Note ON: Time 86760, Note Name: F5, Velocity: 72
Note OFF: Time 86880, Note Name: F5
Note ON: Time 86880, Note Name: C#5, Velocity: 62
Note ON: Time 86880, Note Name: G#4, Velocity: 62
Note ON: Time 86880, Note Name: G#5, Velocity: 75
Note OFF: Time 87360, Note Name: G#5
Note OFF: Time 87360, Note Name: G#4
Note OFF: Time 87360, Note Name: C#5
Note ON: Time 87360, Note Name: C#5, Velocity: 73
Note ON: Time 87360, Note Name: C#6, Velocity: 89
Note OFF: Time 87840, Note Name: C#6
Note OFF: Time 87840, Note Name: C#5
Note ON: Time 87840, Note Name: C5, Velocity: 80
Note ON: Time 87840, Note Name: F#4, Velocity: 80
Note ON: Time 87840, Note Name: F#5, Velocity: 94
Note OFF: Time 88080, Note Name: F#5
Note OFF: Time 88080, Note Name: F#4
Note OFF: Time 88080, Note Name: C5
Note ON: Time 88200, Note Name: F#4, Velocity: 75
Note ON: Time 88200, Note Name: C5, Velocity: 75
Note ON: Time 88200, Note Name: F#5, Velocity: 90
Note OFF: Time 88320, Note Name: F#5
Note OFF: Time 88320, Note Name: C5
Note OFF: Time 88320, Note Name: F#4
Note ON: Time 88320, Note Name: F#4, Velocity: 79
Note ON: Time 88320, Note Name: C5, Velocity: 79
Note ON: Time 88320, Note Name: F#5, Velocity: 93
Note OFF: Time 88800, Note Name: F#5
Note OFF: Time 88800, Note Name: C5
Note OFF: Time 88800, Note Name: F#4
Note ON: Time 88800, Note Name: F#4, Velocity: 75
Note ON: Time 88800, Note Name: C5, Velocity: 75
Note ON: Time 88800, Note Name: F#5, Velocity: 90
Note OFF: Time 89280, Note Name: F#5
Note OFF: Time 89280, Note Name: C5
Note OFF: Time 89280, Note Name: F#4
Note ON: Time 89280, Note Name: C#5, Velocity: 79
Note ON: Time 89280, Note Name: F#4, Velocity: 79
Note ON: Time 89280, Note Name: F#5, Velocity: 93
Note OFF: Time 89520, Note Name: F#5
Note OFF: Time 89520, Note Name: F#4
Note OFF: Time 89520, Note Name: C#5
Note ON: Time 89640, Note Name: F#4, Velocity: 73
Note ON: Time 89640, Note Name: C#5, Velocity: 73
Note ON: Time 89640, Note Name: F#5, Velocity: 88
Note OFF: Time 89760, Note Name: F#5
Note OFF: Time 89760, Note Name: C#5
Note OFF: Time 89760, Note Name: F#4
Note ON: Time 89760, Note Name: F#4, Velocity: 77
Note ON: Time 89760, Note Name: C#5, Velocity: 77
Note ON: Time 89760, Note Name: F#5, Velocity: 91
Note OFF: Time 90240, Note Name: F#5
Note OFF: Time 90240, Note Name: C#5
Note OFF: Time 90240, Note Name: F#4
Note ON: Time 90240, Note Name: F4, Velocity: 73
Note ON: Time 90240, Note Name: C#5, Velocity: 73
Note ON: Time 90240, Note Name: F5, Velocity: 88
Note OFF: Time 90720, Note Name: F5
Note OFF: Time 90720, Note Name: C#5
Note OFF: Time 90720, Note Name: F4
Note ON: Time 90720, Note Name: C5, Velocity: 67
Note ON: Time 90720, Note Name: F#4, Velocity: 67
Note ON: Time 90720, Note Name: F5, Velocity: 81
Note OFF: Time 90960, Note Name: F5
Note OFF: Time 90960, Note Name: F#4
Note OFF: Time 90960, Note Name: C5
Note ON: Time 91080, Note Name: F#4, Velocity: 63
Note ON: Time 91080, Note Name: C5, Velocity: 63
Note ON: Time 91080, Note Name: F5, Velocity: 76
Note OFF: Time 91200, Note Name: F5
Note OFF: Time 91200, Note Name: C5
Note OFF: Time 91200, Note Name: F#4
Note ON: Time 91200, Note Name: F#4, Velocity: 59
Note ON: Time 91200, Note Name: C5, Velocity: 65
Note ON: Time 91200, Note Name: F5, Velocity: 77
Note OFF: Time 91680, Note Name: F5
Note OFF: Time 91680, Note Name: C5
Note OFF: Time 91680, Note Name: F#4
Note ON: Time 91680, Note Name: F#4, Velocity: 63
Note ON: Time 91680, Note Name: C5, Velocity: 63
Note ON: Time 91680, Note Name: D#5, Velocity: 74
Note OFF: Time 92160, Note Name: D#5
Note OFF: Time 92160, Note Name: C5
Note OFF: Time 92160, Note Name: F#4
Note ON: Time 92160, Note Name: F#4, Velocity: 59
Note ON: Time 92160, Note Name: D#5, Velocity: 72
Note OFF: Time 92400, Note Name: D#5
Note OFF: Time 92400, Note Name: F#4
Note ON: Time 92520, Note Name: F#4, Velocity: 53
Note ON: Time 92520, Note Name: G#4, Velocity: 53
Note ON: Time 92520, Note Name: D#5, Velocity: 63
Note OFF: Time 92640, Note Name: D#5
Note OFF: Time 92640, Note Name: G#4
Note OFF: Time 92640, Note Name: F#4
Note ON: Time 92640, Note Name: F#4, Velocity: 55
Note ON: Time 92640, Note Name: G#4, Velocity: 55
Note ON: Time 92640, Note Name: D#5, Velocity: 65
Note OFF: Time 93120, Note Name: D#5
Note OFF: Time 93120, Note Name: F#4
Note ON: Time 93120, Note Name: F4, Velocity: 46
Note ON: Time 93120, Note Name: C#5, Velocity: 56
Note OFF: Time 93600, Note Name: C#5
Note OFF: Time 93600, Note Name: F4
Note OFF: Time 93600, Note Name: G#4
Note ON: Time 93600, Note Name: G#4, Velocity: 52
Note ON: Time 93600, Note Name: D5, Velocity: 62
Note OFF: Time 93760, Note Name: D5
Note OFF: Time 93760, Note Name: G#4
Note ON: Time 93760, Note Name: D4, Velocity: 56
Note OFF: Time 93920, Note Name: D4
Note ON: Time 93920, Note Name: G#4, Velocity: 47
Note ON: Time 93920, Note Name: D5, Velocity: 56
Note ON: Time 94080, Note Name: D4, Velocity: 66
Note OFF: Time 94560, Note Name: D4
Note OFF: Time 94560, Note Name: D5
Note ON: Time 94560, Note Name: D4, Velocity: 58
Note ON: Time 94560, Note Name: D5, Velocity: 63
Note OFF: Time 95040, Note Name: D5
Note OFF: Time 95040, Note Name: D4
Note OFF: Time 95040, Note Name: G#4
Note ON: Time 95040, Note Name: A4, Velocity: 56
Note ON: Time 95040, Note Name: D5, Velocity: 66
Note OFF: Time 95200, Note Name: D5
Note OFF: Time 95200, Note Name: A4
Note ON: Time 95200, Note Name: D4, Velocity: 59
Note OFF: Time 95360, Note Name: D4
Note ON: Time 95360, Note Name: A4, Velocity: 50
Note ON: Time 95360, Note Name: D5, Velocity: 60
Note ON: Time 95520, Note Name: D4, Velocity: 70
Note OFF: Time 96240, Note Name: D4
Note OFF: Time 96240, Note Name: D5
Note ON: Time 96240, Note Name: C#4, Velocity: 60
Note ON: Time 96240, Note Name: C#5, Velocity: 64
Note OFF: Time 96480, Note Name: C#5
Note OFF: Time 96480, Note Name: C#4
Note OFF: Time 96480, Note Name: A4
Note ON: Time 96480, Note Name: G#4, Velocity: 59
Note ON: Time 96480, Note Name: D5, Velocity: 70
Note OFF: Time 96640, Note Name: D5
Note OFF: Time 96640, Note Name: G#4
Note ON: Time 96640, Note Name: D4, Velocity: 63
Note OFF: Time 96800, Note Name: D4
Note ON: Time 96800, Note Name: G#4, Velocity: 53
Note ON: Time 96800, Note Name: D5, Velocity: 63
Note ON: Time 96960, Note Name: D4, Velocity: 74
Note OFF: Time 97440, Note Name: D4
Note OFF: Time 97440, Note Name: D5
Note ON: Time 97440, Note Name: D4, Velocity: 65
Note ON: Time 97440, Note Name: D5, Velocity: 70
Note OFF: Time 97920, Note Name: D5
Note OFF: Time 97920, Note Name: D4
Note OFF: Time 97920, Note Name: G#4
Note ON: Time 97920, Note Name: A4, Velocity: 62
Note ON: Time 97920, Note Name: D5, Velocity: 74
Note OFF: Time 98080, Note Name: D5
Note OFF: Time 98080, Note Name: A4
Note ON: Time 98080, Note Name: D4, Velocity: 66
Note OFF: Time 98240, Note Name: D4
Note ON: Time 98240, Note Name: A4, Velocity: 56
Note ON: Time 98240, Note Name: D5, Velocity: 67
Note ON: Time 98400, Note Name: D4, Velocity: 78
Note OFF: Time 99120, Note Name: D4
Note OFF: Time 99120, Note Name: D5
Note ON: Time 99120, Note Name: C#4, Velocity: 67
Note ON: Time 99120, Note Name: C#5, Velocity: 72
Note OFF: Time 99360, Note Name: C#5
Note OFF: Time 99360, Note Name: C#4
Note OFF: Time 99360, Note Name: A4
Note ON: Time 99360, Note Name: G#4, Velocity: 66
Note ON: Time 99360, Note Name: D5, Velocity: 78
Note OFF: Time 99520, Note Name: D5
Note OFF: Time 99520, Note Name: G#4
Note ON: Time 99520, Note Name: D4, Velocity: 70
Note OFF: Time 99680, Note Name: D4
Note ON: Time 99680, Note Name: G#4, Velocity: 59
Note ON: Time 99680, Note Name: D5, Velocity: 70
Note ON: Time 99840, Note Name: D4, Velocity: 82
Note OFF: Time 100320, Note Name: D4
Note OFF: Time 100320, Note Name: D5
Note ON: Time 100320, Note Name: D4, Velocity: 70
Note ON: Time 100320, Note Name: D5, Velocity: 76
Note OFF: Time 100800, Note Name: D5
Note OFF: Time 100800, Note Name: D4
Note OFF: Time 100800, Note Name: G#4
Note ON: Time 100800, Note Name: A4, Velocity: 66
Note ON: Time 100800, Note Name: D5, Velocity: 78
Note OFF: Time 100960, Note Name: D5
Note OFF: Time 100960, Note Name: A4
Note ON: Time 100960, Note Name: D4, Velocity: 70
Note OFF: Time 101120, Note Name: D4
Note ON: Time 101120, Note Name: A4, Velocity: 59
Note ON: Time 101120, Note Name: D5, Velocity: 70
Note ON: Time 101280, Note Name: D4, Velocity: 82
Note OFF: Time 102000, Note Name: D4
Note OFF: Time 102000, Note Name: D5
Note ON: Time 102000, Note Name: C#4, Velocity: 68
Note ON: Time 102000, Note Name: C#5, Velocity: 73
Note OFF: Time 102240, Note Name: C#5
Note OFF: Time 102240, Note Name: C#4
Note OFF: Time 102240, Note Name: A4
Note ON: Time 102240, Note Name: G#4, Velocity: 66
Note ON: Time 102240, Note Name: D5, Velocity: 78
Note OFF: Time 102400, Note Name: D5
Note OFF: Time 102400, Note Name: G#4
Note ON: Time 102400, Note Name: D4, Velocity: 70
Note OFF: Time 102560, Note Name: D4
Note ON: Time 102560, Note Name: G#4, Velocity: 59
Note ON: Time 102560, Note Name: D5, Velocity: 70
Note ON: Time 102720, Note Name: D4, Velocity: 82
Note OFF: Time 103200, Note Name: D4
Note OFF: Time 103200, Note Name: D5
Note ON: Time 103200, Note Name: D4, Velocity: 70
Note ON: Time 103200, Note Name: D5, Velocity: 76
Note OFF: Time 103680, Note Name: D5
Note OFF: Time 103680, Note Name: D4
Note OFF: Time 103680, Note Name: G#4
Note ON: Time 103680, Note Name: A4, Velocity: 66
Note ON: Time 103680, Note Name: D5, Velocity: 78
Note OFF: Time 103840, Note Name: D5
Note OFF: Time 103840, Note Name: A4
Note ON: Time 103840, Note Name: D4, Velocity: 70
Note OFF: Time 104000, Note Name: D4
Note ON: Time 104000, Note Name: A4, Velocity: 59
Note ON: Time 104000, Note Name: D5, Velocity: 70
Note ON: Time 104160, Note Name: D4, Velocity: 82
Note OFF: Time 104880, Note Name: D4
Note OFF: Time 104880, Note Name: D5
Note ON: Time 104880, Note Name: C#4, Velocity: 68
Note ON: Time 104880, Note Name: C#5, Velocity: 73
Note OFF: Time 105120, Note Name: C#5
Note OFF: Time 105120, Note Name: C#4
Note OFF: Time 105120, Note Name: A4
Note ON: Time 105120, Note Name: G#4, Velocity: 52
Note ON: Time 105120, Note Name: D5, Velocity: 62
Note OFF: Time 105280, Note Name: D5
Note OFF: Time 105280, Note Name: G#4
Note ON: Time 105280, Note Name: D4, Velocity: 56
Note OFF: Time 105440, Note Name: D4
Note ON: Time 105440, Note Name: G#4, Velocity: 47
Note ON: Time 105440, Note Name: D5, Velocity: 56
Note ON: Time 105600, Note Name: D4, Velocity: 65
Note OFF: Time 106080, Note Name: D4
Note OFF: Time 106080, Note Name: D5
Note ON: Time 106080, Note Name: D4, Velocity: 56
Note ON: Time 106080, Note Name: D5, Velocity: 61
Note OFF: Time 106560, Note Name: D5
Note OFF: Time 106560, Note Name: D4
Note OFF: Time 106560, Note Name: G#4
Note ON: Time 106560, Note Name: A4, Velocity: 54
Note ON: Time 106560, Note Name: D5, Velocity: 63
Note OFF: Time 106720, Note Name: D5
Note OFF: Time 106720, Note Name: A4
Note ON: Time 106720, Note Name: D4, Velocity: 57
Note OFF: Time 106880, Note Name: D4
Note ON: Time 106880, Note Name: A4, Velocity: 48
Note ON: Time 106880, Note Name: D5, Velocity: 58
Note ON: Time 107040, Note Name: D4, Velocity: 68
Note OFF: Time 107760, Note Name: D4
Note OFF: Time 107760, Note Name: D5
Note ON: Time 107760, Note Name: C#4, Velocity: 57
Note ON: Time 107760, Note Name: C#5, Velocity: 61
Note OFF: Time 108000, Note Name: C#5
Note OFF: Time 108000, Note Name: C#4
Note OFF: Time 108000, Note Name: A4
Note ON: Time 108000, Note Name: G#4, Velocity: 56
Note ON: Time 108000, Note Name: D5, Velocity: 66
Note OFF: Time 108160, Note Name: D5
Note OFF: Time 108160, Note Name: G#4
Note ON: Time 108160, Note Name: D4, Velocity: 59
Note OFF: Time 108320, Note Name: D4
Note ON: Time 108320, Note Name: G#4, Velocity: 50
Note ON: Time 108320, Note Name: D5, Velocity: 59
Note ON: Time 108480, Note Name: D4, Velocity: 69
Note OFF: Time 108960, Note Name: D4
Note OFF: Time 108960, Note Name: D5
Note ON: Time 108960, Note Name: D4, Velocity: 60
Note ON: Time 108960, Note Name: D5, Velocity: 65
Note OFF: Time 109440, Note Name: D5
Note OFF: Time 109440, Note Name: D4
Note OFF: Time 109440, Note Name: G#4
Note ON: Time 109440, Note Name: A4, Velocity: 57
Note ON: Time 109440, Note Name: D5, Velocity: 67
Note OFF: Time 109600, Note Name: D5
Note OFF: Time 109600, Note Name: A4
Note ON: Time 109600, Note Name: D4, Velocity: 60
Note OFF: Time 109760, Note Name: D4
Note ON: Time 109760, Note Name: A4, Velocity: 51
Note ON: Time 109760, Note Name: D5, Velocity: 61
Note ON: Time 109920, Note Name: D4, Velocity: 72
Note OFF: Time 110640, Note Name: D4
Note OFF: Time 110640, Note Name: D5
Note ON: Time 110640, Note Name: C#4, Velocity: 60
Note ON: Time 110640, Note Name: C#5, Velocity: 64
Note OFF: Time 110880, Note Name: C#5
Note OFF: Time 110880, Note Name: C#4
Note OFF: Time 110880, Note Name: A4
Note ON: Time 110880, Note Name: G#4, Velocity: 59
Note ON: Time 110880, Note Name: D5, Velocity: 70
Note OFF: Time 111040, Note Name: D5
Note OFF: Time 111040, Note Name: G#4
Note ON: Time 111040, Note Name: D4, Velocity: 63
Note OFF: Time 111200, Note Name: D4
Note ON: Time 111200, Note Name: G#4, Velocity: 53
Note ON: Time 111200, Note Name: D5, Velocity: 63
Note ON: Time 111360, Note Name: D4, Velocity: 73
Note OFF: Time 111840, Note Name: D4
Note OFF: Time 111840, Note Name: D5
Note ON: Time 111840, Note Name: D4, Velocity: 63
Note ON: Time 111840, Note Name: D5, Velocity: 68
Note OFF: Time 112320, Note Name: D5
Note OFF: Time 112320, Note Name: D4
Note OFF: Time 112320, Note Name: G#4
Note ON: Time 112320, Note Name: A4, Velocity: 59
Note ON: Time 112320, Note Name: D5, Velocity: 70
Note OFF: Time 112480, Note Name: D5
Note OFF: Time 112480, Note Name: A4
Note ON: Time 112480, Note Name: D4, Velocity: 63
Note OFF: Time 112640, Note Name: D4
Note ON: Time 112640, Note Name: A4, Velocity: 53
Note ON: Time 112640, Note Name: D5, Velocity: 63
Note ON: Time 112800, Note Name: D4, Velocity: 73
Note OFF: Time 113520, Note Name: D4
Note OFF: Time 113520, Note Name: D5
Note ON: Time 113520, Note Name: C#4, Velocity: 61
Note ON: Time 113520, Note Name: C#5, Velocity: 65
Note OFF: Time 113760, Note Name: C#5
Note OFF: Time 113760, Note Name: C#4
Note OFF: Time 113760, Note Name: A4
Note ON: Time 113760, Note Name: G#4, Velocity: 59
Note ON: Time 113760, Note Name: D5, Velocity: 70
Note OFF: Time 113920, Note Name: D5
Note OFF: Time 113920, Note Name: G#4
Note ON: Time 113920, Note Name: D4, Velocity: 63
Note OFF: Time 114080, Note Name: D4
Note ON: Time 114080, Note Name: G#4, Velocity: 52
Note ON: Time 114080, Note Name: D5, Velocity: 62
Note ON: Time 114240, Note Name: D4, Velocity: 72
Note OFF: Time 114720, Note Name: D4
Note OFF: Time 114720, Note Name: D5
Note ON: Time 114720, Note Name: D4, Velocity: 59
Note ON: Time 114720, Note Name: D5, Velocity: 64
Note OFF: Time 115200, Note Name: D5
Note OFF: Time 115200, Note Name: D4
Note OFF: Time 115200, Note Name: G#4
Note ON: Time 115200, Note Name: G4, Velocity: 54
Note ON: Time 115200, Note Name: D5, Velocity: 64
Note OFF: Time 115360, Note Name: D5
Note OFF: Time 115360, Note Name: G4
Note ON: Time 115360, Note Name: D4, Velocity: 57
Note OFF: Time 115520, Note Name: D4
Note ON: Time 115520, Note Name: G4, Velocity: 47
Note ON: Time 115520, Note Name: D5, Velocity: 56
Note ON: Time 115680, Note Name: D4, Velocity: 65
Note OFF: Time 116160, Note Name: D4
Note ON: Time 116160, Note Name: C#4, Velocity: 53
Note OFF: Time 116400, Note Name: D5
Note ON: Time 116400, Note Name: C#5, Velocity: 56
Note OFF: Time 116640, Note Name: C#5
Note OFF: Time 116640, Note Name: C#4
Note OFF: Time 116640, Note Name: G4
Note ON: Time 116640, Note Name: A4, Velocity: 68
Note OFF: Time 116880, Note Name: A4
Note ON: Time 116880, Note Name: C#5, Velocity: 70
Note OFF: Time 117120, Note Name: C#5
Note ON: Time 117120, Note Name: D5, Velocity: 71
Note ON: Time 117120, Note Name: F#4, Velocity: 60
Note OFF: Time 117360, Note Name: D5
Note ON: Time 117360, Note Name: E5, Velocity: 71
Note OFF: Time 117600, Note Name: E5
Note OFF: Time 117600, Note Name: F#4
Note ON: Time 117600, Note Name: F#5, Velocity: 72
Note ON: Time 117600, Note Name: F#4, Velocity: 61
Note OFF: Time 117840, Note Name: F#5
Note ON: Time 117840, Note Name: G5, Velocity: 73
Note OFF: Time 117960, Note Name: G5
Note ON: Time 117960, Note Name: F#5, Velocity: 70
Note OFF: Time 118020, Note Name: F#5
Note ON: Time 118020, Note Name: G5, Velocity: 68
Note OFF: Time 118080, Note Name: G5
Note OFF: Time 118080, Note Name: F#4
Note ON: Time 118080, Note Name: F#5, Velocity: 76
Note OFF: Time 118560, Note Name: F#5
Note ON: Time 118560, Note Name: G4, Velocity: 62
Note ON: Time 118560, Note Name: E5, Velocity: 74
Note OFF: Time 118800, Note Name: E5
Note ON: Time 118800, Note Name: D5, Velocity: 74
Note OFF: Time 119040, Note Name: D5
Note OFF: Time 119040, Note Name: G4
Note ON: Time 119040, Note Name: G4, Velocity: 62
Note ON: Time 119040, Note Name: C#5, Velocity: 73
Note OFF: Time 119280, Note Name: C#5
Note ON: Time 119280, Note Name: B4, Velocity: 72
Note OFF: Time 119520, Note Name: B4
Note OFF: Time 119520, Note Name: G4
Note ON: Time 119520, Note Name: A4, Velocity: 74
Note OFF: Time 119760, Note Name: A4
Note ON: Time 119760, Note Name: D5, Velocity: 70
Note OFF: Time 120000, Note Name: D5
Note ON: Time 120000, Note Name: F#4, Velocity: 62
Note ON: Time 120000, Note Name: D5, Velocity: 74
Note OFF: Time 120160, Note Name: D5
Note ON: Time 120160, Note Name: E5, Velocity: 70
Note OFF: Time 120320, Note Name: E5
Note ON: Time 120320, Note Name: D5, Velocity: 70
Note OFF: Time 120480, Note Name: D5
Note OFF: Time 120480, Note Name: F#4
Note ON: Time 120480, Note Name: F#4, Velocity: 59
Note ON: Time 120480, Note Name: C#5, Velocity: 70
Note OFF: Time 120720, Note Name: C#5
Note ON: Time 120720, Note Name: B4, Velocity: 70
Note OFF: Time 120960, Note Name: B4
Note OFF: Time 120960, Note Name: F#4
Note ON: Time 120960, Note Name: C#5, Velocity: 73
Note ON: Time 121440, Note Name: E4, Velocity: 44
Note ON: Time 121440, Note Name: A4, Velocity: 53
Note OFF: Time 121920, Note Name: A4
Note OFF: Time 121920, Note Name: E4
Note ON: Time 121920, Note Name: G4, Velocity: 57
Note ON: Time 121920, Note Name: A4, Velocity: 68
Note OFF: Time 122400, Note Name: A4
Note OFF: Time 122400, Note Name: G4
Note OFF: Time 122400, Note Name: C#5
Note ON: Time 122400, Note Name: A4, Velocity: 74
Note OFF: Time 122640, Note Name: A4
Note ON: Time 122640, Note Name: C#5, Velocity: 70
Note OFF: Time 122880, Note Name: C#5
Note ON: Time 122880, Note Name: D5, Velocity: 71
Note ON: Time 122880, Note Name: F#4, Velocity: 60
Note OFF: Time 123120, Note Name: D5
Note ON: Time 123120, Note Name: E5, Velocity: 71
Note OFF: Time 123360, Note Name: E5
Note OFF: Time 123360, Note Name: F#4
Note ON: Time 123360, Note Name: F#5, Velocity: 72
Note ON: Time 123360, Note Name: F#4, Velocity: 61
Note OFF: Time 123600, Note Name: F#5
Note ON: Time 123600, Note Name: G5, Velocity: 73
Note OFF: Time 123720, Note Name: G5
Note ON: Time 123720, Note Name: F#5, Velocity: 70
Note OFF: Time 123780, Note Name: F#5
Note ON: Time 123780, Note Name: G5, Velocity: 68
Note OFF: Time 123840, Note Name: G5
Note OFF: Time 123840, Note Name: F#4
Note ON: Time 123840, Note Name: F#5, Velocity: 76
Note OFF: Time 124320, Note Name: F#5
Note ON: Time 124320, Note Name: G4, Velocity: 62
Note ON: Time 124320, Note Name: E5, Velocity: 74
Note OFF: Time 124560, Note Name: E5
Note ON: Time 124560, Note Name: D5, Velocity: 74
Note OFF: Time 124800, Note Name: D5
Note OFF: Time 124800, Note Name: G4
Note ON: Time 124800, Note Name: G4, Velocity: 62
Note ON: Time 124800, Note Name: C#5, Velocity: 73
Note OFF: Time 125040, Note Name: C#5
Note ON: Time 125040, Note Name: B4, Velocity: 72
Note OFF: Time 125280, Note Name: B4
Note OFF: Time 125280, Note Name: G4
Note ON: Time 125280, Note Name: A4, Velocity: 74
Note OFF: Time 125520, Note Name: A4
Note ON: Time 125520, Note Name: C#5, Velocity: 70
Note OFF: Time 125760, Note Name: C#5
Note ON: Time 125760, Note Name: G4, Velocity: 62
Note ON: Time 125760, Note Name: C#5, Velocity: 74
Note OFF: Time 125920, Note Name: C#5
Note ON: Time 125920, Note Name: D5, Velocity: 70
Note OFF: Time 126080, Note Name: D5
Note ON: Time 126080, Note Name: C#5, Velocity: 70
Note OFF: Time 126240, Note Name: C#5
Note OFF: Time 126240, Note Name: G4
Note ON: Time 126240, Note Name: G4, Velocity: 59
Note ON: Time 126240, Note Name: B4, Velocity: 70
Note OFF: Time 126480, Note Name: B4
Note ON: Time 126480, Note Name: A4, Velocity: 70
Note OFF: Time 126720, Note Name: A4
Note OFF: Time 126720, Note Name: G4
Note ON: Time 126720, Note Name: D5, Velocity: 73
Note ON: Time 127200, Note Name: F#4, Velocity: 53
Note OFF: Time 127680, Note Name: F#4
Note ON: Time 127680, Note Name: F#4, Velocity: 47
Note OFF: Time 128160, Note Name: D5
Note ON: Time 128160, Note Name: A4, Velocity: 40
Note OFF: Time 128400, Note Name: A4
Note ON: Time 128400, Note Name: C#5, Velocity: 39
Note OFF: Time 128640, Note Name: C#5
Note OFF: Time 128640, Note Name: F#4
Note ON: Time 128640, Note Name: D5, Velocity: 39
Note ON: Time 128640, Note Name: F#4, Velocity: 33
Note OFF: Time 128880, Note Name: D5
Note ON: Time 128880, Note Name: E5, Velocity: 39
Note OFF: Time 129120, Note Name: E5
Note OFF: Time 129120, Note Name: F#4
Note ON: Time 129120, Note Name: F#5, Velocity: 40
Note ON: Time 129120, Note Name: F#4, Velocity: 33
Note OFF: Time 129360, Note Name: F#5
Note ON: Time 129360, Note Name: G5, Velocity: 40
Note OFF: Time 129480, Note Name: G5
Note ON: Time 129480, Note Name: F#5, Velocity: 39
Note OFF: Time 129540, Note Name: F#5
Note ON: Time 129540, Note Name: G5, Velocity: 37
Note OFF: Time 129600, Note Name: G5
Note OFF: Time 129600, Note Name: F#4
Note ON: Time 129600, Note Name: F#5, Velocity: 42
Note OFF: Time 130080, Note Name: F#5
Note ON: Time 130080, Note Name: G4, Velocity: 34
Note ON: Time 130080, Note Name: E5, Velocity: 40
Note OFF: Time 130320, Note Name: E5
Note ON: Time 130320, Note Name: D5, Velocity: 40
Note OFF: Time 130560, Note Name: D5
Note OFF: Time 130560, Note Name: G4
Note ON: Time 130560, Note Name: G4, Velocity: 34
Note ON: Time 130560, Note Name: C#5, Velocity: 40
Note OFF: Time 130800, Note Name: C#5
Note ON: Time 130800, Note Name: B4, Velocity: 40
Note OFF: Time 131040, Note Name: B4
Note OFF: Time 131040, Note Name: G4
Note ON: Time 131040, Note Name: A4, Velocity: 40
Note OFF: Time 131280, Note Name: A4
Note ON: Time 131280, Note Name: D5, Velocity: 39
Note OFF: Time 131520, Note Name: D5
Note ON: Time 131520, Note Name: F#4, Velocity: 34
Note ON: Time 131520, Note Name: D5, Velocity: 40
Note OFF: Time 131680, Note Name: D5
Note ON: Time 131680, Note Name: E5, Velocity: 39
Note OFF: Time 131840, Note Name: E5
Note ON: Time 131840, Note Name: D5, Velocity: 39
Note OFF: Time 132000, Note Name: D5
Note OFF: Time 132000, Note Name: F#4
Note ON: Time 132000, Note Name: F#4, Velocity: 32
Note ON: Time 132000, Note Name: C#5, Velocity: 39
Note OFF: Time 132240, Note Name: C#5
Note ON: Time 132240, Note Name: B4, Velocity: 39
Note OFF: Time 132480, Note Name: B4
Note OFF: Time 132480, Note Name: F#4
Note ON: Time 132480, Note Name: C#5, Velocity: 40
Note ON: Time 132960, Note Name: E4, Velocity: 24
Note ON: Time 132960, Note Name: A4, Velocity: 29
Note OFF: Time 133440, Note Name: A4
Note OFF: Time 133440, Note Name: E4
Note ON: Time 133440, Note Name: G4, Velocity: 31
Note ON: Time 133440, Note Name: A4, Velocity: 37
Note OFF: Time 133920, Note Name: A4
Note OFF: Time 133920, Note Name: G4
Note OFF: Time 133920, Note Name: C#5
Note ON: Time 133920, Note Name: A4, Velocity: 40
Note OFF: Time 134160, Note Name: A4
Note ON: Time 134160, Note Name: C#5, Velocity: 39
Note OFF: Time 134400, Note Name: C#5
Note ON: Time 134400, Note Name: D5, Velocity: 39
Note ON: Time 134400, Note Name: F#4, Velocity: 33
Note OFF: Time 134640, Note Name: D5
Note ON: Time 134640, Note Name: E5, Velocity: 39
Note OFF: Time 134880, Note Name: E5
Note OFF: Time 134880, Note Name: F#4
Note ON: Time 134880, Note Name: F#5, Velocity: 40
Note ON: Time 134880, Note Name: F#4, Velocity: 33
Note OFF: Time 135120, Note Name: F#5
Note ON: Time 135120, Note Name: G5, Velocity: 40
Note OFF: Time 135240, Note Name: G5
Note ON: Time 135240, Note Name: F#5, Velocity: 39
Note OFF: Time 135300, Note Name: F#5
Note ON: Time 135300, Note Name: G5, Velocity: 37
Note OFF: Time 135360, Note Name: G5
Note OFF: Time 135360, Note Name: F#4
Note ON: Time 135360, Note Name: F#5, Velocity: 42
Note OFF: Time 135840, Note Name: F#5
Note ON: Time 135840, Note Name: G4, Velocity: 34
Note ON: Time 135840, Note Name: E5, Velocity: 40
Note OFF: Time 136080, Note Name: E5
Note ON: Time 136080, Note Name: D5, Velocity: 40
Note OFF: Time 136320, Note Name: D5
Note OFF: Time 136320, Note Name: G4
Note ON: Time 136320, Note Name: G4, Velocity: 34
Note ON: Time 136320, Note Name: C#5, Velocity: 40
Note OFF: Time 136560, Note Name: C#5
Note ON: Time 136560, Note Name: B4, Velocity: 40
Note OFF: Time 136800, Note Name: B4
Note OFF: Time 136800, Note Name: G4
Note ON: Time 136800, Note Name: A4, Velocity: 40
Note OFF: Time 137040, Note Name: A4
Note ON: Time 137040, Note Name: C#5, Velocity: 39
Note OFF: Time 137280, Note Name: C#5
Note ON: Time 137280, Note Name: G4, Velocity: 34
Note ON: Time 137280, Note Name: C#5, Velocity: 40
Note OFF: Time 137440, Note Name: C#5
Note ON: Time 137440, Note Name: D5, Velocity: 39
Note OFF: Time 137600, Note Name: D5
Note ON: Time 137600, Note Name: C#5, Velocity: 39
Note OFF: Time 137760, Note Name: C#5
Note OFF: Time 137760, Note Name: G4
Note ON: Time 137760, Note Name: G4, Velocity: 32
Note ON: Time 137760, Note Name: B4, Velocity: 39
Note OFF: Time 138000, Note Name: B4
Note ON: Time 138000, Note Name: A4, Velocity: 39
Note OFF: Time 138240, Note Name: A4
Note OFF: Time 138240, Note Name: G4
Note ON: Time 138240, Note Name: D5, Velocity: 40
Note ON: Time 138720, Note Name: F#4, Velocity: 29
Note OFF: Time 139200, Note Name: F#4
Note ON: Time 139200, Note Name: F#4, Velocity: 37
Note OFF: Time 139680, Note Name: F#4
Note OFF: Time 139680, Note Name: D5
Note ON: Time 139680, Note Name: E4, Velocity: 73
Note OFF: Time 139920, Note Name: E4
Note ON: Time 139920, Note Name: G#4, Velocity: 70
Note OFF: Time 140160, Note Name: G#4
Note ON: Time 140160, Note Name: A4, Velocity: 71
Note ON: Time 140160, Note Name: C#4, Velocity: 60
Note OFF: Time 140400, Note Name: A4
Note ON: Time 140400, Note Name: B4, Velocity: 71
Note OFF: Time 140640, Note Name: B4
Note OFF: Time 140640, Note Name: C#4
Note ON: Time 140640, Note Name: C#5, Velocity: 72
Note ON: Time 140640, Note Name: C#4, Velocity: 61
Note OFF: Time 140880, Note Name: C#5
Note ON: Time 140880, Note Name: D5, Velocity: 73
Note OFF: Time 141000, Note Name: D5
Note ON: Time 141000, Note Name: C#5, Velocity: 70
Note OFF: Time 141060, Note Name: C#5
Note ON: Time 141060, Note Name: D5, Velocity: 68
Note OFF: Time 141120, Note Name: D5
Note OFF: Time 141120, Note Name: C#4
Note ON: Time 141120, Note Name: C#5, Velocity: 76
Note OFF: Time 141600, Note Name: C#5
Note ON: Time 141600, Note Name: D4, Velocity: 62
Note ON: Time 141600, Note Name: B4, Velocity: 74
Note OFF: Time 141840, Note Name: B4
Note ON: Time 141840, Note Name: A4, Velocity: 74
Note OFF: Time 142080, Note Name: A4
Note OFF: Time 142080, Note Name: D4
Note ON: Time 142080, Note Name: D4, Velocity: 62
Note ON: Time 142080, Note Name: G#4, Velocity: 73
Note OFF: Time 142320, Note Name: G#4
Note ON: Time 142320, Note Name: F#4, Velocity: 72
Note OFF: Time 142560, Note Name: F#4
Note OFF: Time 142560, Note Name: D4
Note ON: Time 142560, Note Name: E4, Velocity: 74
Note OFF: Time 142800, Note Name: E4
Note ON: Time 142800, Note Name: A4, Velocity: 70
Note OFF: Time 143040, Note Name: A4
Note ON: Time 143040, Note Name: C#4, Velocity: 62
Note ON: Time 143040, Note Name: A4, Velocity: 74
Note OFF: Time 143200, Note Name: A4
Note ON: Time 143200, Note Name: B4, Velocity: 70
Note OFF: Time 143360, Note Name: B4
Note ON: Time 143360, Note Name: A4, Velocity: 70
Note OFF: Time 143520, Note Name: A4
Note OFF: Time 143520, Note Name: C#4
Note ON: Time 143520, Note Name: C#4, Velocity: 59
Note ON: Time 143520, Note Name: G#4, Velocity: 70
Note OFF: Time 143760, Note Name: G#4
Note ON: Time 143760, Note Name: F#4, Velocity: 70
Note OFF: Time 144000, Note Name: F#4
Note OFF: Time 144000, Note Name: C#4
Note ON: Time 144000, Note Name: G#4, Velocity: 73
Note ON: Time 144480, Note Name: B3, Velocity: 44
Note ON: Time 144480, Note Name: E4, Velocity: 53
Note OFF: Time 144960, Note Name: E4
Note OFF: Time 144960, Note Name: B3
Note ON: Time 144960, Note Name: D4, Velocity: 57
Note ON: Time 144960, Note Name: E4, Velocity: 68
Note OFF: Time 145440, Note Name: E4
Note OFF: Time 145440, Note Name: D4
Note OFF: Time 145440, Note Name: G#4
Note ON: Time 145440, Note Name: E4, Velocity: 74
Note OFF: Time 145680, Note Name: E4
Note ON: Time 145680, Note Name: G#4, Velocity: 70
Note OFF: Time 145920, Note Name: G#4
Note ON: Time 145920, Note Name: A4, Velocity: 71
Note ON: Time 145920, Note Name: C#4, Velocity: 60
Note OFF: Time 146160, Note Name: A4
Note ON: Time 146160, Note Name: B4, Velocity: 71
Note OFF: Time 146400, Note Name: B4
Note OFF: Time 146400, Note Name: C#4
Note ON: Time 146400, Note Name: C#5, Velocity: 72
Note ON: Time 146400, Note Name: C#4, Velocity: 61
Note OFF: Time 146640, Note Name: C#5
Note ON: Time 146640, Note Name: D5, Velocity: 73
Note OFF: Time 146760, Note Name: D5
Note ON: Time 146760, Note Name: C#5, Velocity: 70
Note OFF: Time 146820, Note Name: C#5
Note ON: Time 146820, Note Name: D5, Velocity: 68
Note OFF: Time 146880, Note Name: D5
Note OFF: Time 146880, Note Name: C#4
Note ON: Time 146880, Note Name: C#5, Velocity: 76
Note OFF: Time 147360, Note Name: C#5
Note ON: Time 147360, Note Name: D4, Velocity: 62
Note ON: Time 147360, Note Name: B4, Velocity: 74
Note OFF: Time 147600, Note Name: B4
Note ON: Time 147600, Note Name: A4, Velocity: 74
Note OFF: Time 147840, Note Name: A4
Note OFF: Time 147840, Note Name: D4
Note ON: Time 147840, Note Name: D4, Velocity: 62
Note ON: Time 147840, Note Name: G#4, Velocity: 73
Note OFF: Time 148080, Note Name: G#4
Note ON: Time 148080, Note Name: F#4, Velocity: 72
Note OFF: Time 148320, Note Name: F#4
Note OFF: Time 148320, Note Name: D4
Note ON: Time 148320, Note Name: E4, Velocity: 74
Note OFF: Time 148560, Note Name: E4
Note ON: Time 148560, Note Name: G#4, Velocity: 70
Note OFF: Time 148800, Note Name: G#4
Note ON: Time 148800, Note Name: D4, Velocity: 62
Note ON: Time 148800, Note Name: G#4, Velocity: 74
Note OFF: Time 148960, Note Name: G#4
Note ON: Time 148960, Note Name: A4, Velocity: 70
Note OFF: Time 149120, Note Name: A4
Note ON: Time 149120, Note Name: G#4, Velocity: 70
Note OFF: Time 149280, Note Name: G#4
Note OFF: Time 149280, Note Name: D4
Note ON: Time 149280, Note Name: D4, Velocity: 59
Note ON: Time 149280, Note Name: F#4, Velocity: 70
Note OFF: Time 149520, Note Name: F#4
Note ON: Time 149520, Note Name: E4, Velocity: 70
Note OFF: Time 149760, Note Name: E4
Note OFF: Time 149760, Note Name: D4
Note ON: Time 149760, Note Name: A4, Velocity: 73
Note ON: Time 150240, Note Name: C#4, Velocity: 53
Note OFF: Time 150720, Note Name: C#4
Note ON: Time 150720, Note Name: C#4, Velocity: 47
Note OFF: Time 151200, Note Name: A4
Note ON: Time 151200, Note Name: E4, Velocity: 40
Note OFF: Time 151440, Note Name: E4
Note ON: Time 151440, Note Name: G#4, Velocity: 39
Note OFF: Time 151680, Note Name: G#4
Note OFF: Time 151680, Note Name: C#4
Note ON: Time 151680, Note Name: A4, Velocity: 39
Note ON: Time 151680, Note Name: C#4, Velocity: 33
Note OFF: Time 151920, Note Name: A4
Note ON: Time 151920, Note Name: B4, Velocity: 39
Note OFF: Time 152160, Note Name: B4
Note OFF: Time 152160, Note Name: C#4
Note ON: Time 152160, Note Name: C#5, Velocity: 40
Note ON: Time 152160, Note Name: C#4, Velocity: 33
Note OFF: Time 152400, Note Name: C#5
Note ON: Time 152400, Note Name: D5, Velocity: 40
Note OFF: Time 152520, Note Name: D5
Note ON: Time 152520, Note Name: C#5, Velocity: 39
Note OFF: Time 152580, Note Name: C#5
Note ON: Time 152580, Note Name: D5, Velocity: 37
Note OFF: Time 152640, Note Name: D5
Note OFF: Time 152640, Note Name: C#4
Note ON: Time 152640, Note Name: C#5, Velocity: 42
Note OFF: Time 153120, Note Name: C#5
Note ON: Time 153120, Note Name: D4, Velocity: 34
Note ON: Time 153120, Note Name: B4, Velocity: 40
Note OFF: Time 153360, Note Name: B4
Note ON: Time 153360, Note Name: A4, Velocity: 40
Note OFF: Time 153600, Note Name: A4
Note OFF: Time 153600, Note Name: D4
Note ON: Time 153600, Note Name: D4, Velocity: 34
Note ON: Time 153600, Note Name: G#4, Velocity: 40
Note OFF: Time 153840, Note Name: G#4
Note ON: Time 153840, Note Name: F#4, Velocity: 40
Note OFF: Time 154080, Note Name: F#4
Note OFF: Time 154080, Note Name: D4
Note ON: Time 154080, Note Name: E4, Velocity: 40
Note OFF: Time 154320, Note Name: E4
Note ON: Time 154320, Note Name: A4, Velocity: 39
Note OFF: Time 154560, Note Name: A4
Note ON: Time 154560, Note Name: C#4, Velocity: 34
Note ON: Time 154560, Note Name: A4, Velocity: 40
Note OFF: Time 154720, Note Name: A4
Note ON: Time 154720, Note Name: B4, Velocity: 39
Note OFF: Time 154880, Note Name: B4
Note ON: Time 154880, Note Name: A4, Velocity: 39
Note OFF: Time 155040, Note Name: A4
Note OFF: Time 155040, Note Name: C#4
Note ON: Time 155040, Note Name: C#4, Velocity: 32
Note ON: Time 155040, Note Name: G#4, Velocity: 39
Note OFF: Time 155280, Note Name: G#4
Note ON: Time 155280, Note Name: F#4, Velocity: 39
Note OFF: Time 155520, Note Name: F#4
Note OFF: Time 155520, Note Name: C#4
Note ON: Time 155520, Note Name: G#4, Velocity: 40
Note ON: Time 156000, Note Name: B3, Velocity: 24
Note ON: Time 156000, Note Name: E4, Velocity: 29
Note OFF: Time 156480, Note Name: E4
Note OFF: Time 156480, Note Name: B3
Note ON: Time 156480, Note Name: D4, Velocity: 31
Note ON: Time 156480, Note Name: E4, Velocity: 37
Note OFF: Time 156960, Note Name: E4
Note OFF: Time 156960, Note Name: D4
Note OFF: Time 156960, Note Name: G#4
Note ON: Time 156960, Note Name: E4, Velocity: 40
Note OFF: Time 157200, Note Name: E4
Note ON: Time 157200, Note Name: G#4, Velocity: 39
Note OFF: Time 157440, Note Name: G#4
Note ON: Time 157440, Note Name: A4, Velocity: 39
Note ON: Time 157440, Note Name: C#4, Velocity: 33
Note OFF: Time 157680, Note Name: A4
Note ON: Time 157680, Note Name: B4, Velocity: 39
Note OFF: Time 157920, Note Name: B4
Note OFF: Time 157920, Note Name: C#4
Note ON: Time 157920, Note Name: C#5, Velocity: 40
Note ON: Time 157920, Note Name: C#4, Velocity: 33
Note OFF: Time 158160, Note Name: C#5
Note ON: Time 158160, Note Name: D5, Velocity: 40
Note OFF: Time 158280, Note Name: D5
Note ON: Time 158280, Note Name: C#5, Velocity: 39
Note OFF: Time 158340, Note Name: C#5
Note ON: Time 158340, Note Name: D5, Velocity: 37
Note OFF: Time 158400, Note Name: D5
Note OFF: Time 158400, Note Name: C#4
Note ON: Time 158400, Note Name: C#5, Velocity: 42
Note OFF: Time 158880, Note Name: C#5
Note ON: Time 158880, Note Name: D4, Velocity: 34
Note ON: Time 158880, Note Name: B4, Velocity: 40
Note OFF: Time 159120, Note Name: B4
Note ON: Time 159120, Note Name: A4, Velocity: 40
Note OFF: Time 159360, Note Name: A4
Note OFF: Time 159360, Note Name: D4
Note ON: Time 159360, Note Name: D4, Velocity: 34
Note ON: Time 159360, Note Name: G#4, Velocity: 40
Note OFF: Time 159600, Note Name: G#4
Note ON: Time 159600, Note Name: F#4, Velocity: 40
Note OFF: Time 159840, Note Name: F#4
Note OFF: Time 159840, Note Name: D4
Note ON: Time 159840, Note Name: E4, Velocity: 40
Note OFF: Time 160080, Note Name: E4
Note ON: Time 160080, Note Name: G#4, Velocity: 39
Note OFF: Time 160320, Note Name: G#4
Note ON: Time 160320, Note Name: D4, Velocity: 34
Note ON: Time 160320, Note Name: G#4, Velocity: 40
Note OFF: Time 160480, Note Name: G#4
Note ON: Time 160480, Note Name: A4, Velocity: 39
Note OFF: Time 160640, Note Name: A4
Note ON: Time 160640, Note Name: G#4, Velocity: 39
Note OFF: Time 160800, Note Name: G#4
Note OFF: Time 160800, Note Name: D4
Note ON: Time 160800, Note Name: D4, Velocity: 32
Note ON: Time 160800, Note Name: F#4, Velocity: 39
Note OFF: Time 161040, Note Name: F#4
Note ON: Time 161040, Note Name: E4, Velocity: 39
Note OFF: Time 161280, Note Name: E4
Note OFF: Time 161280, Note Name: D4
Note ON: Time 161280, Note Name: A4, Velocity: 40
Note ON: Time 161760, Note Name: C#4, Velocity: 37
Note OFF: Time 162240, Note Name: C#4
Note ON: Time 162240, Note Name: G4, Velocity: 73
Note ON: Time 162240, Note Name: C#4, Velocity: 73
Note OFF: Time 162720, Note Name: C#4
Note OFF: Time 162720, Note Name: G4
Note ON: Time 162720, Note Name: F#4, Velocity: 78
Note OFF: Time 162960, Note Name: A4
Note ON: Time 162960, Note Name: C#5, Velocity: 80
Note OFF: Time 163200, Note Name: C#5
Note OFF: Time 163200, Note Name: F#4
Note ON: Time 163200, Note Name: D5, Velocity: 81
Note ON: Time 163200, Note Name: F#4, Velocity: 69
Note OFF: Time 163440, Note Name: D5
Note ON: Time 163440, Note Name: E5, Velocity: 81
Note OFF: Time 163680, Note Name: E5
Note OFF: Time 163680, Note Name: F#4
Note ON: Time 163680, Note Name: F#5, Velocity: 82
Note ON: Time 163680, Note Name: F#4, Velocity: 70
Note OFF: Time 163920, Note Name: F#5
Note ON: Time 163920, Note Name: G5, Velocity: 83
Note OFF: Time 164040, Note Name: G5
Note ON: Time 164040, Note Name: F#5, Velocity: 80
Note OFF: Time 164100, Note Name: F#5
Note ON: Time 164100, Note Name: G5, Velocity: 78
Note OFF: Time 164160, Note Name: G5
Note OFF: Time 164160, Note Name: F#4
Note ON: Time 164160, Note Name: F#5, Velocity: 87
Note OFF: Time 164640, Note Name: F#5
Note ON: Time 164640, Note Name: G4, Velocity: 71
Note ON: Time 164640, Note Name: E5, Velocity: 85
Note OFF: Time 164880, Note Name: E5
Note ON: Time 164880, Note Name: D5, Velocity: 85
Note OFF: Time 165120, Note Name: D5
Note OFF: Time 165120, Note Name: G4
Note ON: Time 165120, Note Name: G4, Velocity: 71
Note ON: Time 165120, Note Name: C#5, Velocity: 83
Note OFF: Time 165360, Note Name: C#5
Note ON: Time 165360, Note Name: B4, Velocity: 82
Note OFF: Time 165600, Note Name: B4
Note OFF: Time 165600, Note Name: G4
Note ON: Time 165600, Note Name: A4, Velocity: 85
Note OFF: Time 165840, Note Name: A4
Note ON: Time 165840, Note Name: D5, Velocity: 80
Note OFF: Time 166080, Note Name: D5
Note ON: Time 166080, Note Name: F#4, Velocity: 71
Note ON: Time 166080, Note Name: D5, Velocity: 85
Note OFF: Time 166240, Note Name: D5
Note ON: Time 166240, Note Name: E5, Velocity: 80
Note OFF: Time 166400, Note Name: E5
Note ON: Time 166400, Note Name: D5, Velocity: 80
Note OFF: Time 166560, Note Name: D5
Note OFF: Time 166560, Note Name: F#4
Note ON: Time 166560, Note Name: F#4, Velocity: 67
Note ON: Time 166560, Note Name: C#5, Velocity: 80
Note OFF: Time 166800, Note Name: C#5
Note ON: Time 166800, Note Name: B4, Velocity: 80
Note OFF: Time 167040, Note Name: B4
Note OFF: Time 167040, Note Name: F#4
Note ON: Time 167040, Note Name: C#5, Velocity: 83
Note ON: Time 167520, Note Name: E4, Velocity: 50
Note ON: Time 167520, Note Name: A4, Velocity: 60
Note OFF: Time 168000, Note Name: A4
Note OFF: Time 168000, Note Name: E4
Note ON: Time 168000, Note Name: G4, Velocity: 65
Note ON: Time 168000, Note Name: A4, Velocity: 78
Note OFF: Time 168480, Note Name: A4
Note OFF: Time 168480, Note Name: G4
Note OFF: Time 168480, Note Name: C#5
Note ON: Time 168480, Note Name: A4, Velocity: 85
Note OFF: Time 168720, Note Name: A4
Note ON: Time 168720, Note Name: C#5, Velocity: 80
Note OFF: Time 168960, Note Name: C#5
Note ON: Time 168960, Note Name: D5, Velocity: 81
Note ON: Time 168960, Note Name: F#4, Velocity: 69
Note OFF: Time 169200, Note Name: D5
Note ON: Time 169200, Note Name: E5, Velocity: 81
Note OFF: Time 169440, Note Name: E5
Note OFF: Time 169440, Note Name: F#4
Note ON: Time 169440, Note Name: F#5, Velocity: 82
Note ON: Time 169440, Note Name: F#4, Velocity: 70
Note OFF: Time 169680, Note Name: F#5
Note ON: Time 169680, Note Name: G5, Velocity: 83
Note OFF: Time 169800, Note Name: G5
Note ON: Time 169800, Note Name: F#5, Velocity: 80
Note OFF: Time 169860, Note Name: F#5
Note ON: Time 169860, Note Name: G5, Velocity: 78
Note OFF: Time 169920, Note Name: G5
Note OFF: Time 169920, Note Name: F#4
Note ON: Time 169920, Note Name: F#5, Velocity: 87
Note OFF: Time 170400, Note Name: F#5
Note ON: Time 170400, Note Name: G4, Velocity: 71
Note ON: Time 170400, Note Name: E5, Velocity: 85
Note OFF: Time 170640, Note Name: E5
Note ON: Time 170640, Note Name: D5, Velocity: 85
Note OFF: Time 170880, Note Name: D5
Note OFF: Time 170880, Note Name: G4
Note ON: Time 170880, Note Name: G4, Velocity: 71
Note ON: Time 170880, Note Name: C#5, Velocity: 83
Note OFF: Time 171120, Note Name: C#5
Note ON: Time 171120, Note Name: B4, Velocity: 82
Note OFF: Time 171360, Note Name: B4
Note OFF: Time 171360, Note Name: G4
Note ON: Time 171360, Note Name: A4, Velocity: 85
Note OFF: Time 171600, Note Name: A4
Note ON: Time 171600, Note Name: C#5, Velocity: 80
Note OFF: Time 171840, Note Name: C#5
Note ON: Time 171840, Note Name: G4, Velocity: 71
Note ON: Time 171840, Note Name: C#5, Velocity: 85
Note OFF: Time 172000, Note Name: C#5
Note ON: Time 172000, Note Name: D5, Velocity: 80
Note OFF: Time 172160, Note Name: D5
Note ON: Time 172160, Note Name: C#5, Velocity: 80
Note OFF: Time 172320, Note Name: C#5
Note OFF: Time 172320, Note Name: G4
Note ON: Time 172320, Note Name: G4, Velocity: 67
Note ON: Time 172320, Note Name: B4, Velocity: 80
Note OFF: Time 172560, Note Name: B4
Note ON: Time 172560, Note Name: A4, Velocity: 80
Note OFF: Time 172800, Note Name: A4
Note OFF: Time 172800, Note Name: G4
Note ON: Time 172800, Note Name: D5, Velocity: 83
Note ON: Time 173280, Note Name: F#4, Velocity: 60
Note OFF: Time 173760, Note Name: F#4
Note ON: Time 173760, Note Name: F#4, Velocity: 54
Note OFF: Time 174240, Note Name: D5
Note ON: Time 174240, Note Name: A4, Velocity: 40
Note OFF: Time 174480, Note Name: A4
Note ON: Time 174480, Note Name: C#5, Velocity: 39
Note OFF: Time 174720, Note Name: C#5
Note OFF: Time 174720, Note Name: F#4
Note ON: Time 174720, Note Name: D5, Velocity: 39
Note ON: Time 174720, Note Name: F#4, Velocity: 33
Note OFF: Time 174960, Note Name: D5
Note ON: Time 174960, Note Name: E5, Velocity: 39
Note OFF: Time 175200, Note Name: E5
Note OFF: Time 175200, Note Name: F#4
Note ON: Time 175200, Note Name: F#5, Velocity: 40
Note ON: Time 175200, Note Name: F#4, Velocity: 33
Note OFF: Time 175440, Note Name: F#5
Note ON: Time 175440, Note Name: G5, Velocity: 40
Note OFF: Time 175560, Note Name: G5
Note ON: Time 175560, Note Name: F#5, Velocity: 39
Note OFF: Time 175620, Note Name: F#5
Note ON: Time 175620, Note Name: G5, Velocity: 37
Note OFF: Time 175680, Note Name: G5
Note OFF: Time 175680, Note Name: F#4
Note ON: Time 175680, Note Name: F#5, Velocity: 42
Note OFF: Time 176160, Note Name: F#5
Note ON: Time 176160, Note Name: G4, Velocity: 34
Note ON: Time 176160, Note Name: E5, Velocity: 40
Note OFF: Time 176400, Note Name: E5
Note ON: Time 176400, Note Name: D5, Velocity: 40
Note OFF: Time 176640, Note Name: D5
Note OFF: Time 176640, Note Name: G4
Note ON: Time 176640, Note Name: G4, Velocity: 34
Note ON: Time 176640, Note Name: C#5, Velocity: 40
Note OFF: Time 176880, Note Name: C#5
Note ON: Time 176880, Note Name: B4, Velocity: 40
Note OFF: Time 177120, Note Name: B4
Note OFF: Time 177120, Note Name: G4
Note ON: Time 177120, Note Name: A4, Velocity: 40
Note OFF: Time 177360, Note Name: A4
Note ON: Time 177360, Note Name: D5, Velocity: 39
Note OFF: Time 177600, Note Name: D5
Note ON: Time 177600, Note Name: F#4, Velocity: 34
Note ON: Time 177600, Note Name: D5, Velocity: 40
Note OFF: Time 177760, Note Name: D5
Note ON: Time 177760, Note Name: E5, Velocity: 39
Note OFF: Time 177920, Note Name: E5
Note ON: Time 177920, Note Name: D5, Velocity: 39
Note OFF: Time 178080, Note Name: D5
Note OFF: Time 178080, Note Name: F#4
Note ON: Time 178080, Note Name: F#4, Velocity: 32
Note ON: Time 178080, Note Name: C#5, Velocity: 39
Note OFF: Time 178320, Note Name: C#5
Note ON: Time 178320, Note Name: B4, Velocity: 39
Note OFF: Time 178560, Note Name: B4
Note OFF: Time 178560, Note Name: F#4
Note ON: Time 178560, Note Name: C#5, Velocity: 40
Note ON: Time 179040, Note Name: E4, Velocity: 24
Note ON: Time 179040, Note Name: A4, Velocity: 29
Note OFF: Time 179520, Note Name: A4
Note OFF: Time 179520, Note Name: E4
Note ON: Time 179520, Note Name: G4, Velocity: 31
Note ON: Time 179520, Note Name: A4, Velocity: 37
Note OFF: Time 180000, Note Name: A4
Note OFF: Time 180000, Note Name: G4
Note OFF: Time 180000, Note Name: C#5
Note ON: Time 180000, Note Name: A4, Velocity: 40
Note OFF: Time 180240, Note Name: A4
Note ON: Time 180240, Note Name: C#5, Velocity: 39
Note OFF: Time 180480, Note Name: C#5
Note ON: Time 180480, Note Name: D5, Velocity: 39
Note ON: Time 180480, Note Name: F#4, Velocity: 33
Note OFF: Time 180720, Note Name: D5
Note ON: Time 180720, Note Name: E5, Velocity: 39
Note OFF: Time 180960, Note Name: E5
Note OFF: Time 180960, Note Name: F#4
Note ON: Time 180960, Note Name: F#5, Velocity: 40
Note ON: Time 180960, Note Name: F#4, Velocity: 33
Note OFF: Time 181200, Note Name: F#5
Note ON: Time 181200, Note Name: G5, Velocity: 40
Note OFF: Time 181320, Note Name: G5
Note ON: Time 181320, Note Name: F#5, Velocity: 39
Note OFF: Time 181380, Note Name: F#5
Note ON: Time 181380, Note Name: G5, Velocity: 37
Note OFF: Time 181440, Note Name: G5
Note OFF: Time 181440, Note Name: F#4
Note ON: Time 181440, Note Name: F#5, Velocity: 42
Note OFF: Time 181920, Note Name: F#5
Note ON: Time 181920, Note Name: G4, Velocity: 34
Note ON: Time 181920, Note Name: E5, Velocity: 40
Note OFF: Time 182160, Note Name: E5
Note ON: Time 182160, Note Name: D5, Velocity: 40
Note OFF: Time 182400, Note Name: D5
Note OFF: Time 182400, Note Name: G4
Note ON: Time 182400, Note Name: G4, Velocity: 34
Note ON: Time 182400, Note Name: C#5, Velocity: 40
Note OFF: Time 182640, Note Name: C#5
Note ON: Time 182640, Note Name: B4, Velocity: 40
Note OFF: Time 182880, Note Name: B4
Note OFF: Time 182880, Note Name: G4
Note ON: Time 182880, Note Name: A4, Velocity: 40
Note OFF: Time 183120, Note Name: A4
Note ON: Time 183120, Note Name: C#5, Velocity: 39
Note OFF: Time 183360, Note Name: C#5
Note ON: Time 183360, Note Name: G4, Velocity: 34
Note ON: Time 183360, Note Name: C#5, Velocity: 40
Note OFF: Time 183520, Note Name: C#5
Note ON: Time 183520, Note Name: D5, Velocity: 39
Note OFF: Time 183680, Note Name: D5
Note ON: Time 183680, Note Name: C#5, Velocity: 39
Note OFF: Time 183840, Note Name: C#5
Note OFF: Time 183840, Note Name: G4
Note ON: Time 183840, Note Name: G4, Velocity: 32
Note ON: Time 183840, Note Name: B4, Velocity: 39
Note OFF: Time 184080, Note Name: B4
Note ON: Time 184080, Note Name: A4, Velocity: 39
Note OFF: Time 184320, Note Name: A4
Note OFF: Time 184320, Note Name: G4
Note ON: Time 184320, Note Name: D5, Velocity: 40
Note ON: Time 184800, Note Name: F#4, Velocity: 29
Note OFF: Time 185280, Note Name: F#4
Note ON: Time 185280, Note Name: F#4, Velocity: 37
Note OFF: Time 185760, Note Name: F#4
Note OFF: Time 185760, Note Name: D5
Note ON: Time 185760, Note Name: D5, Velocity: 43
Note ON: Time 185760, Note Name: F#4, Velocity: 47
Note OFF: Time 186000, Note Name: F#4
Note ON: Time 186000, Note Name: A4, Velocity: 45
Note OFF: Time 186240, Note Name: A4
Note ON: Time 186240, Note Name: A4, Velocity: 49
Note OFF: Time 186420, Note Name: A4
Note ON: Time 186420, Note Name: B4, Velocity: 41
Note OFF: Time 186480, Note Name: B4
Note ON: Time 186480, Note Name: A4, Velocity: 46
Note OFF: Time 186720, Note Name: A4
Note ON: Time 186720, Note Name: G#4, Velocity: 46
Note OFF: Time 186960, Note Name: G#4
Note ON: Time 186960, Note Name: E4, Velocity: 45
Note OFF: Time 187200, Note Name: E4
Note OFF: Time 187200, Note Name: D5
Note ON: Time 187200, Note Name: D5, Velocity: 44
Note ON: Time 187200, Note Name: E4, Velocity: 50
Note OFF: Time 187440, Note Name: E4
Note ON: Time 187440, Note Name: G4, Velocity: 47
Note OFF: Time 187680, Note Name: G4
Note ON: Time 187680, Note Name: G4, Velocity: 51
Note OFF: Time 187860, Note Name: G4
Note ON: Time 187860, Note Name: A4, Velocity: 43
Note OFF: Time 187920, Note Name: A4
Note ON: Time 187920, Note Name: G4, Velocity: 48
Note OFF: Time 188160, Note Name: G4
Note ON: Time 188160, Note Name: F#4, Velocity: 48
Note OFF: Time 188400, Note Name: F#4
Note ON: Time 188400, Note Name: D4, Velocity: 43
Note OFF: Time 188640, Note Name: D4
Note OFF: Time 188640, Note Name: D5
Note ON: Time 188640, Note Name: D5, Velocity: 45
Note ON: Time 188640, Note Name: F#4, Velocity: 50
Note OFF: Time 188880, Note Name: F#4
Note ON: Time 188880, Note Name: A4, Velocity: 48
Note OFF: Time 189120, Note Name: A4
Note ON: Time 189120, Note Name: A4, Velocity: 52
Note OFF: Time 189300, Note Name: A4
Note ON: Time 189300, Note Name: B4, Velocity: 44
Note OFF: Time 189360, Note Name: B4
Note ON: Time 189360, Note Name: A4, Velocity: 48
Note OFF: Time 189600, Note Name: A4
Note ON: Time 189600, Note Name: G#4, Velocity: 48
Note OFF: Time 189840, Note Name: G#4
Note ON: Time 189840, Note Name: E4, Velocity: 44
Note OFF: Time 190080, Note Name: E4
Note OFF: Time 190080, Note Name: D5
Note ON: Time 190080, Note Name: D5, Velocity: 46
Note ON: Time 190080, Note Name: E4, Velocity: 53
Note OFF: Time 190320, Note Name: E4
Note ON: Time 190320, Note Name: G4, Velocity: 50
Note OFF: Time 190560, Note Name: G4
Note ON: Time 190560, Note Name: G4, Velocity: 53
Note OFF: Time 190740, Note Name: G4
Note ON: Time 190740, Note Name: A4, Velocity: 46
Note OFF: Time 190800, Note Name: A4
Note ON: Time 190800, Note Name: G4, Velocity: 50
Note OFF: Time 191040, Note Name: G4
Note ON: Time 191040, Note Name: F#4, Velocity: 51
Note OFF: Time 191280, Note Name: F#4
Note ON: Time 191280, Note Name: D4, Velocity: 44
Note OFF: Time 191520, Note Name: D4
Note OFF: Time 191520, Note Name: D5
Note ON: Time 191520, Note Name: A4, Velocity: 48
Note ON: Time 191520, Note Name: D4, Velocity: 53
Note OFF: Time 191760, Note Name: D4
Note ON: Time 191760, Note Name: F#4, Velocity: 51
Note OFF: Time 192000, Note Name: F#4
Note ON: Time 192000, Note Name: F#4, Velocity: 55
Note OFF: Time 192180, Note Name: F#4
Note ON: Time 192180, Note Name: G4, Velocity: 46
Note OFF: Time 192240, Note Name: G4
Note ON: Time 192240, Note Name: F#4, Velocity: 51
Note OFF: Time 192480, Note Name: F#4
Note ON: Time 192480, Note Name: E4, Velocity: 51
Note OFF: Time 192720, Note Name: E4
Note ON: Time 192720, Note Name: B3, Velocity: 46
Note OFF: Time 192960, Note Name: B3
Note OFF: Time 192960, Note Name: A4
Note ON: Time 192960, Note Name: A4, Velocity: 48
Note ON: Time 192960, Note Name: C#4, Velocity: 55
Note OFF: Time 193200, Note Name: C#4
Note ON: Time 193200, Note Name: E4, Velocity: 52
Note OFF: Time 193440, Note Name: E4
Note ON: Time 193440, Note Name: E4, Velocity: 55
Note OFF: Time 193620, Note Name: E4
Note ON: Time 193620, Note Name: F#4, Velocity: 47
Note OFF: Time 193680, Note Name: F#4
Note ON: Time 193680, Note Name: E4, Velocity: 52
Note OFF: Time 193920, Note Name: E4
Note ON: Time 193920, Note Name: D4, Velocity: 52
Note OFF: Time 194160, Note Name: D4
Note ON: Time 194160, Note Name: A3, Velocity: 46
Note OFF: Time 194400, Note Name: A3
Note OFF: Time 194400, Note Name: A4
Note ON: Time 194400, Note Name: A4, Velocity: 48
Note ON: Time 194400, Note Name: D4, Velocity: 53
Note OFF: Time 194640, Note Name: D4
Note ON: Time 194640, Note Name: F#4, Velocity: 51
Note OFF: Time 194880, Note Name: F#4
Note ON: Time 194880, Note Name: F#4, Velocity: 54
Note OFF: Time 195060, Note Name: F#4
Note ON: Time 195060, Note Name: G4, Velocity: 45
Note OFF: Time 195120, Note Name: G4
Note ON: Time 195120, Note Name: F#4, Velocity: 50
Note OFF: Time 195360, Note Name: F#4
Note ON: Time 195360, Note Name: E4, Velocity: 49
Note OFF: Time 195600, Note Name: E4
Note ON: Time 195600, Note Name: B3, Velocity: 45
Note OFF: Time 195840, Note Name: B3
Note OFF: Time 195840, Note Name: A4
Note ON: Time 195840, Note Name: A4, Velocity: 46
Note ON: Time 195840, Note Name: C#4, Velocity: 53
Note OFF: Time 196080, Note Name: C#4
Note ON: Time 196080, Note Name: E4, Velocity: 50
Note OFF: Time 196320, Note Name: E4
Note ON: Time 196320, Note Name: E4, Velocity: 52
Note OFF: Time 196500, Note Name: E4
Note ON: Time 196500, Note Name: F#4, Velocity: 45
Note OFF: Time 196560, Note Name: F#4
Note ON: Time 196560, Note Name: E4, Velocity: 49
Note OFF: Time 196800, Note Name: E4
Note ON: Time 196800, Note Name: D4, Velocity: 49
Note OFF: Time 197040, Note Name: D4
Note ON: Time 197040, Note Name: A3, Velocity: 41
Note OFF: Time 197280, Note Name: A3
Note OFF: Time 197280, Note Name: A4
Note ON: Time 197280, Note Name: D4, Velocity: 40
Note ON: Time 197280, Note Name: F#3, Velocity: 44
Note OFF: Time 197520, Note Name: F#3
Note ON: Time 197520, Note Name: A3, Velocity: 42
Note OFF: Time 197760, Note Name: A3
Note ON: Time 197760, Note Name: A3, Velocity: 45
Note OFF: Time 197940, Note Name: A3
Note ON: Time 197940, Note Name: B3, Velocity: 38
Note OFF: Time 198000, Note Name: B3
Note ON: Time 198000, Note Name: A3, Velocity: 41
Note OFF: Time 198240, Note Name: A3
Note ON: Time 198240, Note Name: G#3, Velocity: 41
Note OFF: Time 198480, Note Name: G#3
Note ON: Time 198480, Note Name: E3, Velocity: 35
Note OFF: Time 198720, Note Name: E3
Note OFF: Time 198720, Note Name: D4
Note ON: Time 198720, Note Name: D4, Velocity: 39
Note ON: Time 198720, Note Name: E3, Velocity: 44
Note OFF: Time 198960, Note Name: E3
Note ON: Time 198960, Note Name: G3, Velocity: 41
Note OFF: Time 199200, Note Name: G3
Note ON: Time 199200, Note Name: G3, Velocity: 44
Note OFF: Time 199380, Note Name: G3
Note ON: Time 199380, Note Name: A3, Velocity: 37
Note OFF: Time 199440, Note Name: A3
Note ON: Time 199440, Note Name: G3, Velocity: 41
Note OFF: Time 199680, Note Name: G3
Note ON: Time 199680, Note Name: F#3, Velocity: 40
Note OFF: Time 199920, Note Name: F#3
Note ON: Time 199920, Note Name: D3, Velocity: 34
Note OFF: Time 200160, Note Name: D3
Note OFF: Time 200160, Note Name: D4
Note ON: Time 200160, Note Name: D4, Velocity: 33
Note ON: Time 200160, Note Name: F#3, Velocity: 36
Note OFF: Time 200400, Note Name: F#3
Note ON: Time 200400, Note Name: A3, Velocity: 35
Note OFF: Time 200640, Note Name: A3
Note ON: Time 200640, Note Name: A3, Velocity: 38
Note OFF: Time 200820, Note Name: A3
Note ON: Time 200820, Note Name: B3, Velocity: 31
Note OFF: Time 200880, Note Name: B3
Note ON: Time 200880, Note Name: A3, Velocity: 34
Note OFF: Time 201120, Note Name: A3
Note ON: Time 201120, Note Name: G#3, Velocity: 34
Note OFF: Time 201360, Note Name: G#3
Note ON: Time 201360, Note Name: E3, Velocity: 30
Note OFF: Time 201600, Note Name: E3
Note OFF: Time 201600, Note Name: D4
Note ON: Time 201600, Note Name: D4, Velocity: 32
Note ON: Time 201600, Note Name: E3, Velocity: 37
Note OFF: Time 201840, Note Name: E3
Note ON: Time 201840, Note Name: G3, Velocity: 34
Note OFF: Time 202080, Note Name: G3
Note ON: Time 202080, Note Name: G3, Velocity: 37
Note OFF: Time 202260, Note Name: G3
Note ON: Time 202260, Note Name: A3, Velocity: 31
Note OFF: Time 202320, Note Name: A3
Note ON: Time 202320, Note Name: G3, Velocity: 34
Note OFF: Time 202560, Note Name: G3
Note ON: Time 202560, Note Name: F#3, Velocity: 34
Note OFF: Time 202800, Note Name: F#3
Note ON: Time 202800, Note Name: D3, Velocity: 30
Note OFF: Time 203040, Note Name: D3
Note OFF: Time 203040, Note Name: D4
Note ON: Time 203040, Note Name: D3, Velocity: 39
Note ON: Time 203040, Note Name: A3, Velocity: 46
Note OFF: Time 203520, Note Name: A3
Note OFF: Time 203520, Note Name: D3
Note ON: Time 203520, Note Name: D4, Velocity: 41
Note ON: Time 203520, Note Name: A4, Velocity: 49
Note OFF: Time 204000, Note Name: A4
Note OFF: Time 204000, Note Name: D4
Note ON: Time 204000, Note Name: D5, Velocity: 48
Note OFF: Time 204240, Note Name: D5
Note ON: Time 204240, Note Name: A5, Velocity: 49
Note OFF: Time 204480, Note Name: A5
Note ON: Time 204480, Note Name: D6, Velocity: 51
Note OFF: Time 204600, Note Name: D6
Note ON: Time 204720, Note Name: F#6, Velocity: 53
Note OFF: Time 204840, Note Name: F#6
Note ON: Time 204960, Note Name: G#6, Velocity: 55
Note OFF: Time 205080, Note Name: G#6
Note ON: Time 205200, Note Name: A6, Velocity: 57
Note OFF: Time 205320, Note Name: A6
Note ON: Time 205440, Note Name: B6, Velocity: 59
Note OFF: Time 205560, Note Name: B6
Note ON: Time 205680, Note Name: C#7, Velocity: 62
Note OFF: Time 205800, Note Name: C#7
Note ON: Time 205920, Note Name: D7, Velocity: 64
Note OFF: Time 207360, Note Name: D7
Track 2: Piano left
Note ON: Time 1440, Note Name: D3, Velocity: 59
Note OFF: Time 1680, Note Name: D3
Note ON: Time 1920, Note Name: D3, Velocity: 52
Note ON: Time 1920, Note Name: A3, Velocity: 52
Note ON: Time 1920, Note Name: D4, Velocity: 52
Note OFF: Time 2400, Note Name: D4
Note OFF: Time 2400, Note Name: A3
Note OFF: Time 2400, Note Name: D3
Note ON: Time 2400, Note Name: D3, Velocity: 52
Note ON: Time 2400, Note Name: A3, Velocity: 52
Note ON: Time 2400, Note Name: D4, Velocity: 52
Note OFF: Time 2880, Note Name: D4
Note OFF: Time 2880, Note Name: A3
Note OFF: Time 2880, Note Name: D3
Note ON: Time 2880, Note Name: A2, Velocity: 59
Note OFF: Time 3120, Note Name: A2
Note ON: Time 3360, Note Name: E3, Velocity: 54
Note ON: Time 3360, Note Name: A3, Velocity: 54
Note ON: Time 3360, Note Name: C#4, Velocity: 54
Note OFF: Time 3840, Note Name: C#4
Note OFF: Time 3840, Note Name: A3
Note OFF: Time 3840, Note Name: E3
Note ON: Time 3840, Note Name: E3, Velocity: 54
Note ON: Time 3840, Note Name: A3, Velocity: 54
Note ON: Time 3840, Note Name: C#4, Velocity: 54
Note OFF: Time 4320, Note Name: C#4
Note OFF: Time 4320, Note Name: A3
Note OFF: Time 4320, Note Name: E3
Note ON: Time 4320, Note Name: D2, Velocity: 59
Note OFF: Time 4560, Note Name: D2
Note ON: Time 4800, Note Name: D3, Velocity: 54
Note ON: Time 4800, Note Name: A3, Velocity: 54
Note ON: Time 4800, Note Name: D4, Velocity: 54
Note OFF: Time 5280, Note Name: D4
Note OFF: Time 5280, Note Name: A3
Note OFF: Time 5280, Note Name: D3
Note ON: Time 5280, Note Name: D3, Velocity: 54
Note ON: Time 5280, Note Name: A3, Velocity: 54
Note ON: Time 5280, Note Name: D4, Velocity: 54
Note OFF: Time 5760, Note Name: D4
Note OFF: Time 5760, Note Name: A3
Note OFF: Time 5760, Note Name: D3
Note ON: Time 5760, Note Name: A2, Velocity: 59
Note OFF: Time 6000, Note Name: A2
Note ON: Time 6240, Note Name: A3, Velocity: 43
Note OFF: Time 6720, Note Name: A3
Note ON: Time 6720, Note Name: A3, Velocity: 56
Note ON: Time 6720, Note Name: E4, Velocity: 56
Note OFF: Time 7200, Note Name: E4
Note OFF: Time 7200, Note Name: A3
Note ON: Time 7200, Note Name: D3, Velocity: 59
Note OFF: Time 7440, Note Name: D3
Note ON: Time 7680, Note Name: A3, Velocity: 52
Note ON: Time 7680, Note Name: D4, Velocity: 52
Note OFF: Time 8160, Note Name: D4
Note OFF: Time 8160, Note Name: A3
Note ON: Time 8160, Note Name: D3, Velocity: 52
Note ON: Time 8160, Note Name: A3, Velocity: 52
Note ON: Time 8160, Note Name: D4, Velocity: 52
Note OFF: Time 8640, Note Name: D4
Note OFF: Time 8640, Note Name: A3
Note OFF: Time 8640, Note Name: D3
Note ON: Time 8640, Note Name: G2, Velocity: 59
Note OFF: Time 8880, Note Name: G2
Note ON: Time 9120, Note Name: B3, Velocity: 54
Note ON: Time 9120, Note Name: E4, Velocity: 54
Note OFF: Time 9600, Note Name: E4
Note OFF: Time 9600, Note Name: B3
Note ON: Time 9600, Note Name: E3, Velocity: 54
Note ON: Time 9600, Note Name: B3, Velocity: 54
Note ON: Time 9600, Note Name: E4, Velocity: 54
Note OFF: Time 10080, Note Name: E4
Note OFF: Time 10080, Note Name: B3
Note OFF: Time 10080, Note Name: E3
Note ON: Time 10080, Note Name: A2, Velocity: 59
Note OFF: Time 10320, Note Name: A2
Note ON: Time 10560, Note Name: A3, Velocity: 54
Note ON: Time 10560, Note Name: E4, Velocity: 54
Note OFF: Time 11040, Note Name: E4
Note OFF: Time 11040, Note Name: A3
Note ON: Time 11040, Note Name: A3, Velocity: 54
Note ON: Time 11040, Note Name: E4, Velocity: 54
Note OFF: Time 11520, Note Name: E4
Note OFF: Time 11520, Note Name: A3
Note ON: Time 11520, Note Name: D2, Velocity: 59
Note OFF: Time 11760, Note Name: D2
Note ON: Time 12000, Note Name: D3, Velocity: 36
Note ON: Time 12000, Note Name: A3, Velocity: 36
Note ON: Time 12000, Note Name: D4, Velocity: 43
Note OFF: Time 12480, Note Name: D4
Note OFF: Time 12480, Note Name: A3
Note OFF: Time 12480, Note Name: D3
Note ON: Time 12480, Note Name: D3, Velocity: 39
Note ON: Time 12480, Note Name: A3, Velocity: 39
Note ON: Time 12480, Note Name: D4, Velocity: 39
Note OFF: Time 13440, Note Name: D4
Note OFF: Time 13440, Note Name: A3
Note OFF: Time 13440, Note Name: D3
Note ON: Time 13440, Note Name: D3, Velocity: 23
Note ON: Time 13440, Note Name: A3, Velocity: 23
Note ON: Time 13440, Note Name: D4, Velocity: 23
Note OFF: Time 13920, Note Name: D4
Note OFF: Time 13920, Note Name: A3
Note OFF: Time 13920, Note Name: D3
Note ON: Time 13920, Note Name: D3, Velocity: 23
Note ON: Time 13920, Note Name: A3, Velocity: 23
Note ON: Time 13920, Note Name: D4, Velocity: 23
Note OFF: Time 14400, Note Name: D4
Note OFF: Time 14400, Note Name: A3
Note OFF: Time 14400, Note Name: D3
Note ON: Time 14400, Note Name: A2, Velocity: 27
Note OFF: Time 14640, Note Name: A2
Note ON: Time 14880, Note Name: E3, Velocity: 24
Note ON: Time 14880, Note Name: A3, Velocity: 24
Note ON: Time 14880, Note Name: C#4, Velocity: 24
Note OFF: Time 15360, Note Name: C#4
Note OFF: Time 15360, Note Name: A3
Note OFF: Time 15360, Note Name: E3
Note ON: Time 15360, Note Name: E3, Velocity: 24
Note ON: Time 15360, Note Name: A3, Velocity: 24
Note ON: Time 15360, Note Name: C#4, Velocity: 24
Note OFF: Time 15840, Note Name: C#4
Note OFF: Time 15840, Note Name: A3
Note OFF: Time 15840, Note Name: E3
Note ON: Time 15840, Note Name: D2, Velocity: 27
Note OFF: Time 16080, Note Name: D2
Note ON: Time 16320, Note Name: D3, Velocity: 24
Note ON: Time 16320, Note Name: A3, Velocity: 24
Note ON: Time 16320, Note Name: D4, Velocity: 24
Note OFF: Time 16800, Note Name: D4
Note OFF: Time 16800, Note Name: A3
Note OFF: Time 16800, Note Name: D3
Note ON: Time 16800, Note Name: D3, Velocity: 24
Note ON: Time 16800, Note Name: A3, Velocity: 24
Note ON: Time 16800, Note Name: D4, Velocity: 24
Note OFF: Time 17280, Note Name: D4
Note OFF: Time 17280, Note Name: A3
Note OFF: Time 17280, Note Name: D3
Note ON: Time 17280, Note Name: A2, Velocity: 27
Note OFF: Time 17520, Note Name: A2
Note ON: Time 17760, Note Name: C#4, Velocity: 20
Note ON: Time 17760, Note Name: A3, Velocity: 20
Note OFF: Time 18240, Note Name: A3
Note OFF: Time 18240, Note Name: C#4
Note ON: Time 18240, Note Name: A3, Velocity: 26
Note ON: Time 18240, Note Name: E4, Velocity: 26
Note OFF: Time 18720, Note Name: E4
Note ON: Time 18720, Note Name: D3, Velocity: 27
Note OFF: Time 19200, Note Name: D3
Note OFF: Time 19200, Note Name: A3
Note ON: Time 19200, Note Name: A3, Velocity: 23
Note ON: Time 19200, Note Name: D4, Velocity: 23
Note OFF: Time 19680, Note Name: D4
Note OFF: Time 19680, Note Name: A3
Note ON: Time 19680, Note Name: D3, Velocity: 23
Note ON: Time 19680, Note Name: A3, Velocity: 23
Note ON: Time 19680, Note Name: D4, Velocity: 23
Note OFF: Time 20160, Note Name: D4
Note OFF: Time 20160, Note Name: A3
Note OFF: Time 20160, Note Name: D3
Note ON: Time 20160, Note Name: G2, Velocity: 27
Note OFF: Time 20400, Note Name: G2
Note ON: Time 20640, Note Name: B3, Velocity: 24
Note ON: Time 20640, Note Name: E4, Velocity: 24
Note OFF: Time 21120, Note Name: E4
Note OFF: Time 21120, Note Name: B3
Note ON: Time 21120, Note Name: E3, Velocity: 24
Note ON: Time 21120, Note Name: B3, Velocity: 24
Note ON: Time 21120, Note Name: E4, Velocity: 24
Note OFF: Time 21600, Note Name: E4
Note OFF: Time 21600, Note Name: B3
Note OFF: Time 21600, Note Name: E3
Note ON: Time 21600, Note Name: A2, Velocity: 27
Note OFF: Time 21840, Note Name: A2
Note ON: Time 22080, Note Name: A3, Velocity: 24
Note ON: Time 22080, Note Name: E4, Velocity: 24
Note OFF: Time 22560, Note Name: E4
Note OFF: Time 22560, Note Name: A3
Note ON: Time 22560, Note Name: A3, Velocity: 24
Note ON: Time 22560, Note Name: E4, Velocity: 24
Note OFF: Time 23040, Note Name: E4
Note OFF: Time 23040, Note Name: A3
Note ON: Time 23040, Note Name: D2, Velocity: 27
Note OFF: Time 23280, Note Name: D2
Note ON: Time 23520, Note Name: D3, Velocity: 17
Note ON: Time 23520, Note Name: A3, Velocity: 17
Note ON: Time 23520, Note Name: D4, Velocity: 20
Note OFF: Time 24000, Note Name: D4
Note OFF: Time 24000, Note Name: A3
Note OFF: Time 24000, Note Name: D3
Note ON: Time 24000, Note Name: D3, Velocity: 26
Note ON: Time 24000, Note Name: A3, Velocity: 26
Note ON: Time 24000, Note Name: D4, Velocity: 26
Note OFF: Time 24480, Note Name: D4
Note OFF: Time 24480, Note Name: A3
Note OFF: Time 24480, Note Name: D3
Note ON: Time 24480, Note Name: A2, Velocity: 59
Note OFF: Time 24720, Note Name: A2
Note ON: Time 24960, Note Name: A2, Velocity: 52
Note ON: Time 24960, Note Name: E3, Velocity: 52
Note ON: Time 24960, Note Name: A3, Velocity: 52
Note OFF: Time 25440, Note Name: A3
Note OFF: Time 25440, Note Name: E3
Note OFF: Time 25440, Note Name: A2
Note ON: Time 25440, Note Name: A2, Velocity: 52
Note ON: Time 25440, Note Name: E3, Velocity: 52
Note ON: Time 25440, Note Name: A3, Velocity: 52
Note OFF: Time 25920, Note Name: A3
Note OFF: Time 25920, Note Name: E3
Note OFF: Time 25920, Note Name: A2
Note ON: Time 25920, Note Name: E2, Velocity: 59
Note OFF: Time 26160, Note Name: E2
Note ON: Time 26400, Note Name: E3, Velocity: 54
Note ON: Time 26400, Note Name: B3, Velocity: 54
Note OFF: Time 26880, Note Name: B3
Note OFF: Time 26880, Note Name: E3
Note ON: Time 26880, Note Name: E3, Velocity: 54
Note ON: Time 26880, Note Name: B3, Velocity: 54
Note OFF: Time 27360, Note Name: B3
Note OFF: Time 27360, Note Name: E3
Note ON: Time 27360, Note Name: A1, Velocity: 59
Note OFF: Time 27600, Note Name: A1
Note ON: Time 27840, Note Name: A2, Velocity: 54
Note ON: Time 27840, Note Name: E3, Velocity: 54
Note ON: Time 27840, Note Name: A3, Velocity: 54
Note OFF: Time 28320, Note Name: A3
Note OFF: Time 28320, Note Name: E3
Note OFF: Time 28320, Note Name: A2
Note ON: Time 28320, Note Name: A2, Velocity: 54
Note ON: Time 28320, Note Name: E3, Velocity: 54
Note ON: Time 28320, Note Name: A3, Velocity: 54
Note OFF: Time 28800, Note Name: A3
Note OFF: Time 28800, Note Name: E3
Note OFF: Time 28800, Note Name: A2
Note ON: Time 28800, Note Name: E2, Velocity: 59
Note OFF: Time 29040, Note Name: E2
Note ON: Time 29280, Note Name: E3, Velocity: 43
Note OFF: Time 29760, Note Name: E3
Note ON: Time 29760, Note Name: E3, Velocity: 56
Note ON: Time 29760, Note Name: B3, Velocity: 56
Note OFF: Time 30240, Note Name: B3
Note OFF: Time 30240, Note Name: E3
Note ON: Time 30240, Note Name: A2, Velocity: 59
Note OFF: Time 30480, Note Name: A2
Note ON: Time 30720, Note Name: E3, Velocity: 52
Note ON: Time 30720, Note Name: A3, Velocity: 52
Note OFF: Time 31200, Note Name: A3
Note OFF: Time 31200, Note Name: E3
Note ON: Time 31200, Note Name: A2, Velocity: 52
Note ON: Time 31200, Note Name: E3, Velocity: 52
Note ON: Time 31200, Note Name: A3, Velocity: 52
Note OFF: Time 31680, Note Name: A3
Note OFF: Time 31680, Note Name: E3
Note OFF: Time 31680, Note Name: A2
Note ON: Time 31680, Note Name: D2, Velocity: 59
Note OFF: Time 31920, Note Name: D2
Note ON: Time 32160, Note Name: F#3, Velocity: 54
Note ON: Time 32160, Note Name: B3, Velocity: 54
Note OFF: Time 32640, Note Name: B3
Note OFF: Time 32640, Note Name: F#3
Note ON: Time 32640, Note Name: B2, Velocity: 54
Note ON: Time 32640, Note Name: F#3, Velocity: 54
Note ON: Time 32640, Note Name: B3, Velocity: 54
Note OFF: Time 33120, Note Name: B3
Note OFF: Time 33120, Note Name: F#3
Note OFF: Time 33120, Note Name: B2
Note ON: Time 33120, Note Name: E2, Velocity: 59
Note OFF: Time 33360, Note Name: E2
Note ON: Time 33600, Note Name: E3, Velocity: 54
Note ON: Time 33600, Note Name: B3, Velocity: 54
Note OFF: Time 34080, Note Name: B3
Note OFF: Time 34080, Note Name: E3
Note ON: Time 34080, Note Name: E3, Velocity: 54
Note ON: Time 34080, Note Name: B3, Velocity: 54
Note OFF: Time 34560, Note Name: B3
Note OFF: Time 34560, Note Name: E3
Note ON: Time 34560, Note Name: A1, Velocity: 59
Note OFF: Time 34800, Note Name: A1
Note ON: Time 35040, Note Name: A2, Velocity: 36
Note ON: Time 35040, Note Name: E3, Velocity: 36
Note ON: Time 35040, Note Name: A3, Velocity: 43
Note OFF: Time 35520, Note Name: A3
Note OFF: Time 35520, Note Name: E3
Note OFF: Time 35520, Note Name: A2
Note ON: Time 35520, Note Name: A2, Velocity: 39
Note ON: Time 35520, Note Name: E3, Velocity: 39
Note ON: Time 35520, Note Name: A3, Velocity: 39
Note OFF: Time 36480, Note Name: A3
Note OFF: Time 36480, Note Name: E3
Note OFF: Time 36480, Note Name: A2
Note ON: Time 36480, Note Name: A2, Velocity: 23
Note ON: Time 36480, Note Name: E3, Velocity: 23
Note ON: Time 36480, Note Name: A3, Velocity: 23
Note OFF: Time 36960, Note Name: A3
Note OFF: Time 36960, Note Name: E3
Note OFF: Time 36960, Note Name: A2
Note ON: Time 36960, Note Name: A2, Velocity: 23
Note ON: Time 36960, Note Name: E3, Velocity: 23
Note ON: Time 36960, Note Name: A3, Velocity: 23
Note OFF: Time 37440, Note Name: A3
Note OFF: Time 37440, Note Name: E3
Note OFF: Time 37440, Note Name: A2
Note ON: Time 37440, Note Name: E2, Velocity: 27
Note OFF: Time 37680, Note Name: E2
Note ON: Time 37920, Note Name: E3, Velocity: 24
Note ON: Time 37920, Note Name: B3, Velocity: 24
Note OFF: Time 38400, Note Name: B3
Note OFF: Time 38400, Note Name: E3
Note ON: Time 38400, Note Name: E3, Velocity: 24
Note ON: Time 38400, Note Name: B3, Velocity: 24
Note OFF: Time 38880, Note Name: B3
Note OFF: Time 38880, Note Name: E3
Note ON: Time 38880, Note Name: A1, Velocity: 27
Note OFF: Time 39120, Note Name: A1
Note ON: Time 39360, Note Name: A2, Velocity: 24
Note ON: Time 39360, Note Name: E3, Velocity: 24
Note ON: Time 39360, Note Name: A3, Velocity: 24
Note OFF: Time 39840, Note Name: A3
Note OFF: Time 39840, Note Name: E3
Note OFF: Time 39840, Note Name: A2
Note ON: Time 39840, Note Name: A2, Velocity: 24
Note ON: Time 39840, Note Name: E3, Velocity: 24
Note ON: Time 39840, Note Name: A3, Velocity: 24
Note OFF: Time 40320, Note Name: A3
Note OFF: Time 40320, Note Name: E3
Note OFF: Time 40320, Note Name: A2
Note ON: Time 40320, Note Name: E2, Velocity: 27
Note OFF: Time 40560, Note Name: E2
Note ON: Time 40800, Note Name: E3, Velocity: 20
Note OFF: Time 41280, Note Name: E3
Note ON: Time 41280, Note Name: E3, Velocity: 26
Note ON: Time 41280, Note Name: B3, Velocity: 26
Note OFF: Time 41760, Note Name: B3
Note ON: Time 41760, Note Name: A2, Velocity: 27
Note OFF: Time 42240, Note Name: A2
Note OFF: Time 42240, Note Name: E3
Note ON: Time 42240, Note Name: E3, Velocity: 23
Note ON: Time 42240, Note Name: A3, Velocity: 23
Note OFF: Time 42720, Note Name: A3
Note OFF: Time 42720, Note Name: E3
Note ON: Time 42720, Note Name: A2, Velocity: 23
Note ON: Time 42720, Note Name: E3, Velocity: 23
Note ON: Time 42720, Note Name: A3, Velocity: 23
Note OFF: Time 43200, Note Name: A3
Note OFF: Time 43200, Note Name: E3
Note OFF: Time 43200, Note Name: A2
Note ON: Time 43200, Note Name: D2, Velocity: 27
Note OFF: Time 43440, Note Name: D2
Note ON: Time 43680, Note Name: F#3, Velocity: 24
Note ON: Time 43680, Note Name: B3, Velocity: 24
Note OFF: Time 44160, Note Name: B3
Note OFF: Time 44160, Note Name: F#3
Note ON: Time 44160, Note Name: B2, Velocity: 24
Note ON: Time 44160, Note Name: F#3, Velocity: 24
Note ON: Time 44160, Note Name: B3, Velocity: 24
Note OFF: Time 44640, Note Name: B3
Note OFF: Time 44640, Note Name: F#3
Note OFF: Time 44640, Note Name: B2
Note ON: Time 44640, Note Name: E2, Velocity: 27
Note OFF: Time 44880, Note Name: E2
Note ON: Time 45120, Note Name: E3, Velocity: 24
Note ON: Time 45120, Note Name: B3, Velocity: 24
Note OFF: Time 45600, Note Name: B3
Note OFF: Time 45600, Note Name: E3
Note ON: Time 45600, Note Name: E3, Velocity: 24
Note ON: Time 45600, Note Name: B3, Velocity: 24
Note OFF: Time 46080, Note Name: B3
Note OFF: Time 46080, Note Name: E3
Note ON: Time 46080, Note Name: A1, Velocity: 32
Note OFF: Time 46320, Note Name: A1
Note ON: Time 46560, Note Name: A3, Velocity: 25
Note ON: Time 46560, Note Name: E4, Velocity: 30
Note OFF: Time 47040, Note Name: E4
Note OFF: Time 47040, Note Name: A3
Note ON: Time 47040, Note Name: A3, Velocity: 60
Note ON: Time 47040, Note Name: E4, Velocity: 60
Note OFF: Time 47520, Note Name: E4
Note OFF: Time 47520, Note Name: A3
Note ON: Time 47520, Note Name: D3, Velocity: 67
Note OFF: Time 47760, Note Name: D3
Note ON: Time 48000, Note Name: D3, Velocity: 59
Note ON: Time 48000, Note Name: A3, Velocity: 59
Note ON: Time 48000, Note Name: D4, Velocity: 59
Note OFF: Time 48480, Note Name: D4
Note OFF: Time 48480, Note Name: A3
Note OFF: Time 48480, Note Name: D3
Note ON: Time 48480, Note Name: D3, Velocity: 59
Note ON: Time 48480, Note Name: A3, Velocity: 59
Note ON: Time 48480, Note Name: D4, Velocity: 59
Note OFF: Time 48960, Note Name: D4
Note OFF: Time 48960, Note Name: A3
Note OFF: Time 48960, Note Name: D3
Note ON: Time 48960, Note Name: A2, Velocity: 67
Note OFF: Time 49200, Note Name: A2
Note ON: Time 49440, Note Name: E3, Velocity: 62
Note ON: Time 49440, Note Name: A3, Velocity: 62
Note ON: Time 49440, Note Name: C#4, Velocity: 62
Note OFF: Time 49920, Note Name: C#4
Note OFF: Time 49920, Note Name: A3
Note OFF: Time 49920, Note Name: E3
Note ON: Time 49920, Note Name: E3, Velocity: 62
Note ON: Time 49920, Note Name: A3, Velocity: 62
Note ON: Time 49920, Note Name: C#4, Velocity: 62
Note OFF: Time 50400, Note Name: C#4
Note OFF: Time 50400, Note Name: A3
Note OFF: Time 50400, Note Name: E3
Note ON: Time 50400, Note Name: D2, Velocity: 67
Note OFF: Time 50640, Note Name: D2
Note ON: Time 50880, Note Name: D3, Velocity: 62
Note ON: Time 50880, Note Name: A3, Velocity: 62
Note ON: Time 50880, Note Name: D4, Velocity: 62
Note OFF: Time 51360, Note Name: D4
Note OFF: Time 51360, Note Name: A3
Note OFF: Time 51360, Note Name: D3
Note ON: Time 51360, Note Name: D3, Velocity: 62
Note ON: Time 51360, Note Name: A3, Velocity: 62
Note ON: Time 51360, Note Name: D4, Velocity: 62
Note OFF: Time 51840, Note Name: D4
Note OFF: Time 51840, Note Name: A3
Note OFF: Time 51840, Note Name: D3
Note ON: Time 51840, Note Name: A2, Velocity: 67
Note OFF: Time 52080, Note Name: A2
Note ON: Time 52320, Note Name: A3, Velocity: 49
Note OFF: Time 52800, Note Name: A3
Note ON: Time 52800, Note Name: A3, Velocity: 64
Note ON: Time 52800, Note Name: E4, Velocity: 64
Note OFF: Time 53280, Note Name: E4
Note OFF: Time 53280, Note Name: A3
Note ON: Time 53280, Note Name: D3, Velocity: 67
Note OFF: Time 53520, Note Name: D3
Note ON: Time 53760, Note Name: A3, Velocity: 59
Note ON: Time 53760, Note Name: D4, Velocity: 59
Note OFF: Time 54240, Note Name: D4
Note OFF: Time 54240, Note Name: A3
Note ON: Time 54240, Note Name: D3, Velocity: 59
Note ON: Time 54240, Note Name: A3, Velocity: 59
Note ON: Time 54240, Note Name: D4, Velocity: 59
Note OFF: Time 54720, Note Name: D4
Note OFF: Time 54720, Note Name: A3
Note OFF: Time 54720, Note Name: D3
Note ON: Time 54720, Note Name: G2, Velocity: 67
Note OFF: Time 54960, Note Name: G2
Note ON: Time 55200, Note Name: B3, Velocity: 62
Note ON: Time 55200, Note Name: E4, Velocity: 62
Note OFF: Time 55680, Note Name: E4
Note OFF: Time 55680, Note Name: B3
Note ON: Time 55680, Note Name: E3, Velocity: 62
Note ON: Time 55680, Note Name: B3, Velocity: 62
Note ON: Time 55680, Note Name: E4, Velocity: 62
Note OFF: Time 56160, Note Name: E4
Note OFF: Time 56160, Note Name: B3
Note OFF: Time 56160, Note Name: E3
Note ON: Time 56160, Note Name: A2, Velocity: 67
Note OFF: Time 56400, Note Name: A2
Note ON: Time 56640, Note Name: A3, Velocity: 62
Note ON: Time 56640, Note Name: E4, Velocity: 62
Note OFF: Time 57120, Note Name: E4
Note OFF: Time 57120, Note Name: A3
Note ON: Time 57120, Note Name: A3, Velocity: 62
Note ON: Time 57120, Note Name: E4, Velocity: 62
Note OFF: Time 57600, Note Name: E4
Note OFF: Time 57600, Note Name: A3
Note ON: Time 57600, Note Name: D2, Velocity: 67
Note OFF: Time 57840, Note Name: D2
Note ON: Time 58080, Note Name: D3, Velocity: 41
Note ON: Time 58080, Note Name: A3, Velocity: 41
Note ON: Time 58080, Note Name: D4, Velocity: 49
Note OFF: Time 58560, Note Name: D4
Note OFF: Time 58560, Note Name: A3
Note OFF: Time 58560, Note Name: D3
Note ON: Time 58560, Note Name: D3, Velocity: 44
Note ON: Time 58560, Note Name: A3, Velocity: 44
Note ON: Time 58560, Note Name: D4, Velocity: 44
Note OFF: Time 59520, Note Name: D4
Note OFF: Time 59520, Note Name: A3
Note OFF: Time 59520, Note Name: D3
Note ON: Time 59520, Note Name: D3, Velocity: 23
Note ON: Time 59520, Note Name: A3, Velocity: 23
Note ON: Time 59520, Note Name: D4, Velocity: 23
Note OFF: Time 60000, Note Name: D4
Note OFF: Time 60000, Note Name: A3
Note OFF: Time 60000, Note Name: D3
Note ON: Time 60000, Note Name: D3, Velocity: 23
Note ON: Time 60000, Note Name: A3, Velocity: 23
Note ON: Time 60000, Note Name: D4, Velocity: 23
Note OFF: Time 60480, Note Name: D4
Note OFF: Time 60480, Note Name: A3
Note OFF: Time 60480, Note Name: D3
Note ON: Time 60480, Note Name: A2, Velocity: 27
Note OFF: Time 60720, Note Name: A2
Note ON: Time 60960, Note Name: E3, Velocity: 24
Note ON: Time 60960, Note Name: A3, Velocity: 24
Note ON: Time 60960, Note Name: C#4, Velocity: 24
Note OFF: Time 61440, Note Name: C#4
Note OFF: Time 61440, Note Name: A3
Note OFF: Time 61440, Note Name: E3
Note ON: Time 61440, Note Name: E3, Velocity: 24
Note ON: Time 61440, Note Name: A3, Velocity: 24
Note ON: Time 61440, Note Name: C#4, Velocity: 24
Note OFF: Time 61920, Note Name: C#4
Note OFF: Time 61920, Note Name: A3
Note OFF: Time 61920, Note Name: E3
Note ON: Time 61920, Note Name: D2, Velocity: 27
Note OFF: Time 62160, Note Name: D2
Note ON: Time 62400, Note Name: D3, Velocity: 24
Note ON: Time 62400, Note Name: A3, Velocity: 24
Note ON: Time 62400, Note Name: D4, Velocity: 24
Note OFF: Time 62880, Note Name: D4
Note OFF: Time 62880, Note Name: A3
Note OFF: Time 62880, Note Name: D3
Note ON: Time 62880, Note Name: D3, Velocity: 24
Note ON: Time 62880, Note Name: A3, Velocity: 24
Note ON: Time 62880, Note Name: D4, Velocity: 24
Note OFF: Time 63360, Note Name: D4
Note OFF: Time 63360, Note Name: A3
Note OFF: Time 63360, Note Name: D3
Note ON: Time 63360, Note Name: A2, Velocity: 27
Note OFF: Time 63600, Note Name: A2
Note ON: Time 63840, Note Name: C#4, Velocity: 20
Note ON: Time 63840, Note Name: A3, Velocity: 20
Note OFF: Time 64320, Note Name: A3
Note OFF: Time 64320, Note Name: C#4
Note ON: Time 64320, Note Name: A3, Velocity: 26
Note ON: Time 64320, Note Name: E4, Velocity: 26
Note OFF: Time 64800, Note Name: E4
Note ON: Time 64800, Note Name: D3, Velocity: 27
Note OFF: Time 65280, Note Name: D3
Note OFF: Time 65280, Note Name: A3
Note ON: Time 65280, Note Name: A3, Velocity: 23
Note ON: Time 65280, Note Name: D4, Velocity: 23
Note OFF: Time 65760, Note Name: D4
Note OFF: Time 65760, Note Name: A3
Note ON: Time 65760, Note Name: D3, Velocity: 23
Note ON: Time 65760, Note Name: A3, Velocity: 23
Note ON: Time 65760, Note Name: D4, Velocity: 23
Note OFF: Time 66240, Note Name: D4
Note OFF: Time 66240, Note Name: A3
Note OFF: Time 66240, Note Name: D3
Note ON: Time 66240, Note Name: G2, Velocity: 27
Note OFF: Time 66480, Note Name: G2
Note ON: Time 66720, Note Name: B3, Velocity: 24
Note ON: Time 66720, Note Name: E4, Velocity: 24
Note OFF: Time 67200, Note Name: E4
Note OFF: Time 67200, Note Name: B3
Note ON: Time 67200, Note Name: E3, Velocity: 24
Note ON: Time 67200, Note Name: B3, Velocity: 24
Note ON: Time 67200, Note Name: E4, Velocity: 24
Note OFF: Time 67680, Note Name: E4
Note OFF: Time 67680, Note Name: B3
Note OFF: Time 67680, Note Name: E3
Note ON: Time 67680, Note Name: A2, Velocity: 27
Note OFF: Time 67920, Note Name: A2
Note ON: Time 68160, Note Name: A3, Velocity: 24
Note ON: Time 68160, Note Name: E4, Velocity: 24
Note OFF: Time 68640, Note Name: E4
Note OFF: Time 68640, Note Name: A3
Note ON: Time 68640, Note Name: A3, Velocity: 24
Note ON: Time 68640, Note Name: E4, Velocity: 24
Note OFF: Time 69120, Note Name: E4
Note OFF: Time 69120, Note Name: A3
Note ON: Time 69120, Note Name: D2, Velocity: 27
Note OFF: Time 69600, Note Name: D2
Note ON: Time 69600, Note Name: D3, Velocity: 17
Note ON: Time 69600, Note Name: A3, Velocity: 17
Note ON: Time 69600, Note Name: D4, Velocity: 20
Note OFF: Time 70080, Note Name: D4
Note OFF: Time 70080, Note Name: A3
Note OFF: Time 70080, Note Name: D3
Note ON: Time 70080, Note Name: D3, Velocity: 26
Note ON: Time 70080, Note Name: A3, Velocity: 26
Note ON: Time 70080, Note Name: D4, Velocity: 26
Note OFF: Time 70560, Note Name: D4
Note OFF: Time 70560, Note Name: A3
Note OFF: Time 70560, Note Name: D3
Note ON: Time 70560, Note Name: A#2, Velocity: 44
Note OFF: Time 71040, Note Name: A#2
Note ON: Time 71040, Note Name: D4, Velocity: 40
Note ON: Time 71040, Note Name: A#3, Velocity: 33
Note ON: Time 71040, Note Name: F3, Velocity: 33
Note OFF: Time 71520, Note Name: F3
Note OFF: Time 71520, Note Name: A#3
Note OFF: Time 71520, Note Name: D4
Note ON: Time 71520, Note Name: F3, Velocity: 34
Note ON: Time 71520, Note Name: D4, Velocity: 41
Note ON: Time 71520, Note Name: A#3, Velocity: 34
Note OFF: Time 72000, Note Name: A#3
Note OFF: Time 72000, Note Name: D4
Note OFF: Time 72000, Note Name: F3
Note ON: Time 72000, Note Name: F2, Velocity: 46
Note OFF: Time 72480, Note Name: F2
Note ON: Time 72480, Note Name: D#4, Velocity: 43
Note ON: Time 72480, Note Name: C4, Velocity: 35
Note ON: Time 72480, Note Name: F3, Velocity: 35
Note OFF: Time 72960, Note Name: F3
Note OFF: Time 72960, Note Name: C4
Note OFF: Time 72960, Note Name: D#4
Note ON: Time 72960, Note Name: D#4, Velocity: 44
Note ON: Time 72960, Note Name: C4, Velocity: 36
Note ON: Time 72960, Note Name: F3, Velocity: 36
Note OFF: Time 73440, Note Name: F3
Note OFF: Time 73440, Note Name: C4
Note OFF: Time 73440, Note Name: D#4
Note ON: Time 73440, Note Name: A#2, Velocity: 49
Note OFF: Time 73920, Note Name: A#2
Note ON: Time 73920, Note Name: D4, Velocity: 45
Note ON: Time 73920, Note Name: A#3, Velocity: 37
Note ON: Time 73920, Note Name: F3, Velocity: 37
Note OFF: Time 74400, Note Name: F3
Note OFF: Time 74400, Note Name: A#3
Note OFF: Time 74400, Note Name: D4
Note ON: Time 74400, Note Name: F3, Velocity: 38
Note ON: Time 74400, Note Name: D4, Velocity: 46
Note ON: Time 74400, Note Name: A#3, Velocity: 38
Note OFF: Time 74880, Note Name: A#3
Note OFF: Time 74880, Note Name: D4
Note OFF: Time 74880, Note Name: F3
Note ON: Time 74880, Note Name: A2, Velocity: 51
Note ON: Time 75360, Note Name: C4, Velocity: 47
Note OFF: Time 75720, Note Name: C4
Note OFF: Time 75720, Note Name: A2
Note ON: Time 75720, Note Name: G2, Velocity: 48
Note OFF: Time 75840, Note Name: G2
Note ON: Time 75840, Note Name: F2, Velocity: 62
Note OFF: Time 76320, Note Name: F2
Note ON: Time 76320, Note Name: C2, Velocity: 55
Note ON: Time 76320, Note Name: C3, Velocity: 64
Note OFF: Time 76800, Note Name: C3
Note OFF: Time 76800, Note Name: C2
Note ON: Time 76800, Note Name: G4, Velocity: 64
Note ON: Time 76800, Note Name: C4, Velocity: 55
Note OFF: Time 77280, Note Name: C4
Note OFF: Time 77280, Note Name: G4
Note ON: Time 77760, Note Name: F2, Velocity: 64
Note OFF: Time 78000, Note Name: F2
Note ON: Time 78120, Note Name: B3, Velocity: 65
Note OFF: Time 78240, Note Name: B3
Note ON: Time 78240, Note Name: C4, Velocity: 72
Note OFF: Time 78600, Note Name: C4
Note ON: Time 78600, Note Name: C#4, Velocity: 68
Note OFF: Time 78720, Note Name: C#4
Note ON: Time 78720, Note Name: C4, Velocity: 72
Note OFF: Time 79200, Note Name: C4
Note ON: Time 79200, Note Name: C3, Velocity: 58
Note OFF: Time 79440, Note Name: C3
Note ON: Time 79560, Note Name: B3, Velocity: 58
Note OFF: Time 79680, Note Name: B3
Note ON: Time 79680, Note Name: C4, Velocity: 63
Note OFF: Time 80040, Note Name: C4
Note ON: Time 80040, Note Name: D4, Velocity: 58
Note OFF: Time 80160, Note Name: D4
Note ON: Time 80160, Note Name: C4, Velocity: 62
Note OFF: Time 80640, Note Name: C4
Note ON: Time 80640, Note Name: F3, Velocity: 52
Note OFF: Time 80880, Note Name: F3
Note ON: Time 81000, Note Name: B3, Velocity: 46
Note OFF: Time 81120, Note Name: B3
Note ON: Time 81120, Note Name: C4, Velocity: 54
Note OFF: Time 81480, Note Name: C4
Note ON: Time 81480, Note Name: E4, Velocity: 45
Note OFF: Time 81600, Note Name: E4
Note ON: Time 81600, Note Name: F4, Velocity: 47
Note OFF: Time 82080, Note Name: F4
Note ON: Time 82080, Note Name: A#2, Velocity: 44
Note OFF: Time 82560, Note Name: A#2
Note ON: Time 82560, Note Name: D4, Velocity: 40
Note ON: Time 82560, Note Name: A#3, Velocity: 33
Note ON: Time 82560, Note Name: F3, Velocity: 33
Note OFF: Time 83040, Note Name: F3
Note OFF: Time 83040, Note Name: A#3
Note OFF: Time 83040, Note Name: D4
Note ON: Time 83040, Note Name: F3, Velocity: 34
Note ON: Time 83040, Note Name: D4, Velocity: 41
Note ON: Time 83040, Note Name: A#3, Velocity: 34
Note OFF: Time 83520, Note Name: A#3
Note OFF: Time 83520, Note Name: D4
Note OFF: Time 83520, Note Name: F3
Note ON: Time 83520, Note Name: A2, Velocity: 46
Note OFF: Time 84000, Note Name: A2
Note ON: Time 84000, Note Name: D#4, Velocity: 43
Note ON: Time 84000, Note Name: C4, Velocity: 35
Note ON: Time 84000, Note Name: F3, Velocity: 35
Note OFF: Time 84480, Note Name: F3
Note OFF: Time 84480, Note Name: C4
Note OFF: Time 84480, Note Name: D#4
Note ON: Time 84480, Note Name: D#4, Velocity: 44
Note ON: Time 84480, Note Name: C4, Velocity: 36
Note ON: Time 84480, Note Name: F3, Velocity: 36
Note OFF: Time 84960, Note Name: F3
Note OFF: Time 84960, Note Name: C4
Note OFF: Time 84960, Note Name: D#4
Note ON: Time 84960, Note Name: A#2, Velocity: 49
Note OFF: Time 85440, Note Name: A#2
Note ON: Time 85440, Note Name: C#4, Velocity: 45
Note ON: Time 85440, Note Name: A#3, Velocity: 37
Note ON: Time 85440, Note Name: F3, Velocity: 37
Note OFF: Time 85920, Note Name: F3
Note OFF: Time 85920, Note Name: A#3
Note OFF: Time 85920, Note Name: C#4
Note ON: Time 85920, Note Name: F3, Velocity: 37
Note ON: Time 85920, Note Name: C#4, Velocity: 45
Note ON: Time 85920, Note Name: A#3, Velocity: 37
Note OFF: Time 86400, Note Name: A#3
Note OFF: Time 86400, Note Name: C#4
Note OFF: Time 86400, Note Name: F3
Note ON: Time 86400, Note Name: G#2, Velocity: 53
Note OFF: Time 86880, Note Name: G#2
Note ON: Time 86880, Note Name: F3, Velocity: 46
Note ON: Time 86880, Note Name: G#3, Velocity: 46
Note ON: Time 86880, Note Name: F4, Velocity: 54
Note ON: Time 86880, Note Name: C#4, Velocity: 46
Note OFF: Time 87240, Note Name: C#4
Note OFF: Time 87240, Note Name: F3
Note OFF: Time 87240, Note Name: G#3
Note OFF: Time 87240, Note Name: F4
Note ON: Time 87240, Note Name: A#2, Velocity: 54
Note OFF: Time 87360, Note Name: A#2
Note ON: Time 87360, Note Name: G#2, Velocity: 67
Note OFF: Time 87840, Note Name: G#2
Note ON: Time 87840, Note Name: G#1, Velocity: 70
Note OFF: Time 88320, Note Name: G#1
Note ON: Time 88320, Note Name: D#4, Velocity: 70
Note ON: Time 88320, Note Name: G#3, Velocity: 60
Note OFF: Time 88800, Note Name: G#3
Note OFF: Time 88800, Note Name: D#4
Note ON: Time 89280, Note Name: C#2, Velocity: 69
Note OFF: Time 89520, Note Name: C#2
Note ON: Time 89640, Note Name: G3, Velocity: 73
Note OFF: Time 89760, Note Name: G3
Note ON: Time 89760, Note Name: G#3, Velocity: 77
Note OFF: Time 90120, Note Name: G#3
Note ON: Time 90120, Note Name: A#3, Velocity: 72
Note OFF: Time 90240, Note Name: A#3
Note ON: Time 90240, Note Name: G#3, Velocity: 75
Note OFF: Time 90720, Note Name: G#3
Note ON: Time 90720, Note Name: G#2, Velocity: 60
Note OFF: Time 90960, Note Name: G#2
Note ON: Time 91080, Note Name: G3, Velocity: 60
Note OFF: Time 91200, Note Name: G3
Note ON: Time 91200, Note Name: G#3, Velocity: 65
Note OFF: Time 91560, Note Name: G#3
Note ON: Time 91560, Note Name: A3, Velocity: 63
Note OFF: Time 91680, Note Name: A3
Note ON: Time 91680, Note Name: G#3, Velocity: 64
Note OFF: Time 92160, Note Name: G#3
Note ON: Time 92160, Note Name: C#3, Velocity: 53
Note OFF: Time 92400, Note Name: C#3
Note ON: Time 92520, Note Name: G3, Velocity: 46
Note OFF: Time 92640, Note Name: G3
Note ON: Time 92640, Note Name: G#3, Velocity: 55
Note OFF: Time 93000, Note Name: G#3
Note ON: Time 93000, Note Name: C4, Velocity: 45
Note OFF: Time 93120, Note Name: C4
Note ON: Time 93120, Note Name: C#4, Velocity: 47
Note OFF: Time 93600, Note Name: C#4
Note ON: Time 93600, Note Name: F2, Velocity: 40
Note OFF: Time 93840, Note Name: F2
Note ON: Time 94080, Note Name: B3, Velocity: 35
Note ON: Time 94080, Note Name: F3, Velocity: 29
Note OFF: Time 94560, Note Name: F3
Note OFF: Time 94560, Note Name: B3
Note ON: Time 94560, Note Name: F3, Velocity: 30
Note ON: Time 94560, Note Name: B3, Velocity: 36
Note OFF: Time 95040, Note Name: B3
Note OFF: Time 95040, Note Name: F3
Note ON: Time 95040, Note Name: F#2, Velocity: 43
Note OFF: Time 95280, Note Name: F#2
Note ON: Time 95520, Note Name: A3, Velocity: 37
Note ON: Time 95520, Note Name: F#3, Velocity: 31
Note OFF: Time 96000, Note Name: F#3
Note OFF: Time 96000, Note Name: A3
Note ON: Time 96000, Note Name: F#3, Velocity: 32
Note ON: Time 96000, Note Name: A3, Velocity: 38
Note OFF: Time 96480, Note Name: A3
Note OFF: Time 96480, Note Name: F#3
Note ON: Time 96480, Note Name: F2, Velocity: 45
Note OFF: Time 96720, Note Name: F2
Note ON: Time 96960, Note Name: B3, Velocity: 40
Note ON: Time 96960, Note Name: F3, Velocity: 33
Note OFF: Time 97440, Note Name: F3
Note OFF: Time 97440, Note Name: B3
Note ON: Time 97440, Note Name: F3, Velocity: 34
Note ON: Time 97440, Note Name: B3, Velocity: 40
Note OFF: Time 97920, Note Name: B3
Note OFF: Time 97920, Note Name: F3
Note ON: Time 97920, Note Name: F#2, Velocity: 48
Note OFF: Time 98160, Note Name: F#2
Note ON: Time 98400, Note Name: A3, Velocity: 42
Note ON: Time 98400, Note Name: F#3, Velocity: 35
Note OFF: Time 98880, Note Name: F#3
Note OFF: Time 98880, Note Name: A3
Note ON: Time 98880, Note Name: F#3, Velocity: 36
Note ON: Time 98880, Note Name: A3, Velocity: 43
Note OFF: Time 99360, Note Name: A3
Note OFF: Time 99360, Note Name: F#3
Note ON: Time 99360, Note Name: E2, Velocity: 51
Note OFF: Time 99600, Note Name: E2
Note ON: Time 99840, Note Name: B3, Velocity: 44
Note ON: Time 99840, Note Name: E3, Velocity: 37
Note OFF: Time 100320, Note Name: E3
Note OFF: Time 100320, Note Name: B3
Note ON: Time 100320, Note Name: E3, Velocity: 37
Note ON: Time 100320, Note Name: B3, Velocity: 44
Note OFF: Time 100800, Note Name: B3
Note OFF: Time 100800, Note Name: E3
Note ON: Time 100800, Note Name: A2, Velocity: 51
Note OFF: Time 101040, Note Name: A2
Note ON: Time 101280, Note Name: A3, Velocity: 44
Note ON: Time 101280, Note Name: E3, Velocity: 37
Note OFF: Time 101760, Note Name: E3
Note OFF: Time 101760, Note Name: A3
Note ON: Time 101760, Note Name: E3, Velocity: 37
Note ON: Time 101760, Note Name: A3, Velocity: 44
Note OFF: Time 102240, Note Name: A3
Note OFF: Time 102240, Note Name: E3
Note ON: Time 102240, Note Name: E2, Velocity: 51
Note OFF: Time 102480, Note Name: E2
Note ON: Time 102720, Note Name: B3, Velocity: 44
Note ON: Time 102720, Note Name: E3, Velocity: 37
Note OFF: Time 103200, Note Name: E3
Note OFF: Time 103200, Note Name: B3
Note ON: Time 103200, Note Name: E3, Velocity: 37
Note ON: Time 103200, Note Name: B3, Velocity: 44
Note OFF: Time 103680, Note Name: B3
Note OFF: Time 103680, Note Name: E3
Note ON: Time 103680, Note Name: A2, Velocity: 51
Note OFF: Time 103920, Note Name: A2
Note ON: Time 104160, Note Name: A3, Velocity: 44
Note ON: Time 104160, Note Name: E3, Velocity: 37
Note OFF: Time 104640, Note Name: E3
Note OFF: Time 104640, Note Name: A3
Note ON: Time 104640, Note Name: E3, Velocity: 37
Note ON: Time 104640, Note Name: A3, Velocity: 44
Note OFF: Time 105120, Note Name: A3
Note OFF: Time 105120, Note Name: E3
Note ON: Time 105120, Note Name: F2, Velocity: 40
Note OFF: Time 105360, Note Name: F2
Note ON: Time 105600, Note Name: B3, Velocity: 35
Note ON: Time 105600, Note Name: F3, Velocity: 29
Note OFF: Time 106080, Note Name: F3
Note OFF: Time 106080, Note Name: B3
Note ON: Time 106080, Note Name: F3, Velocity: 29
Note ON: Time 106080, Note Name: B3, Velocity: 35
Note OFF: Time 106560, Note Name: B3
Note OFF: Time 106560, Note Name: F3
Note ON: Time 106560, Note Name: F#2, Velocity: 41
Note OFF: Time 106800, Note Name: F#2
Note ON: Time 107040, Note Name: A3, Velocity: 36
Note ON: Time 107040, Note Name: F#3, Velocity: 30
Note OFF: Time 107520, Note Name: F#3
Note OFF: Time 107520, Note Name: A3
Note ON: Time 107520, Note Name: F#3, Velocity: 31
Note ON: Time 107520, Note Name: A3, Velocity: 36
Note OFF: Time 108000, Note Name: A3
Note OFF: Time 108000, Note Name: F#3
Note ON: Time 108000, Note Name: F2, Velocity: 43
Note OFF: Time 108240, Note Name: F2
Note ON: Time 108480, Note Name: B3, Velocity: 37
Note ON: Time 108480, Note Name: F3, Velocity: 31
Note OFF: Time 108960, Note Name: F3
Note OFF: Time 108960, Note Name: B3
Note ON: Time 108960, Note Name: F3, Velocity: 31
Note ON: Time 108960, Note Name: B3, Velocity: 37
Note OFF: Time 109440, Note Name: B3
Note OFF: Time 109440, Note Name: F3
Note ON: Time 109440, Note Name: F#2, Velocity: 44
Note OFF: Time 109680, Note Name: F#2
Note ON: Time 109920, Note Name: A3, Velocity: 38
Note ON: Time 109920, Note Name: F#3, Velocity: 32
Note OFF: Time 110400, Note Name: F#3
Note OFF: Time 110400, Note Name: A3
Note ON: Time 110400, Note Name: F#3, Velocity: 32
Note ON: Time 110400, Note Name: A3, Velocity: 39
Note OFF: Time 110880, Note Name: A3
Note OFF: Time 110880, Note Name: F#3
Note ON: Time 110880, Note Name: E2, Velocity: 45
Note OFF: Time 111120, Note Name: E2
Note ON: Time 111360, Note Name: B3, Velocity: 39
Note ON: Time 111360, Note Name: E3, Velocity: 33
Note OFF: Time 111840, Note Name: E3
Note OFF: Time 111840, Note Name: B3
Note ON: Time 111840, Note Name: E3, Velocity: 33
Note ON: Time 111840, Note Name: B3, Velocity: 39
Note OFF: Time 112320, Note Name: B3
Note OFF: Time 112320, Note Name: E3
Note ON: Time 112320, Note Name: A2, Velocity: 45
Note OFF: Time 112560, Note Name: A2
Note ON: Time 112800, Note Name: A3, Velocity: 39
Note ON: Time 112800, Note Name: E3, Velocity: 33
Note OFF: Time 113280, Note Name: E3
Note OFF: Time 113280, Note Name: A3
Note ON: Time 113280, Note Name: E3, Velocity: 33
Note ON: Time 113280, Note Name: A3, Velocity: 39
Note OFF: Time 113760, Note Name: A3
Note OFF: Time 113760, Note Name: E3
Note ON: Time 113760, Note Name: E2, Velocity: 45
Note OFF: Time 114000, Note Name: E2
Note ON: Time 114240, Note Name: B3, Velocity: 38
Note ON: Time 114240, Note Name: E3, Velocity: 32
Note OFF: Time 114720, Note Name: E3
Note OFF: Time 114720, Note Name: B3
Note ON: Time 114720, Note Name: E3, Velocity: 31
Note ON: Time 114720, Note Name: B3, Velocity: 36
Note OFF: Time 115200, Note Name: B3
Note OFF: Time 115200, Note Name: E3
Note ON: Time 115200, Note Name: A2, Velocity: 42
Note OFF: Time 115440, Note Name: A2
Note ON: Time 115680, Note Name: E4, Velocity: 35
Note ON: Time 115680, Note Name: A3, Velocity: 29
Note OFF: Time 116160, Note Name: A3
Note OFF: Time 116160, Note Name: E4
Note ON: Time 116160, Note Name: A3, Velocity: 28
Note ON: Time 116160, Note Name: E4, Velocity: 34
Note OFF: Time 116640, Note Name: E4
Note OFF: Time 116640, Note Name: A3
Note ON: Time 116640, Note Name: D3, Velocity: 59
Note OFF: Time 116880, Note Name: D3
Note ON: Time 117120, Note Name: D3, Velocity: 52
Note ON: Time 117120, Note Name: A3, Velocity: 52
Note ON: Time 117120, Note Name: D4, Velocity: 52
Note OFF: Time 117600, Note Name: D4
Note OFF: Time 117600, Note Name: A3
Note OFF: Time 117600, Note Name: D3
Note ON: Time 117600, Note Name: D3, Velocity: 52
Note ON: Time 117600, Note Name: A3, Velocity: 52
Note ON: Time 117600, Note Name: D4, Velocity: 52
Note OFF: Time 118080, Note Name: D4
Note OFF: Time 118080, Note Name: A3
Note OFF: Time 118080, Note Name: D3
Note ON: Time 118080, Note Name: A2, Velocity: 59
Note OFF: Time 118320, Note Name: A2
Note ON: Time 118560, Note Name: E3, Velocity: 54
Note ON: Time 118560, Note Name: A3, Velocity: 54
Note ON: Time 118560, Note Name: C#4, Velocity: 54
Note OFF: Time 119040, Note Name: C#4
Note OFF: Time 119040, Note Name: A3
Note OFF: Time 119040, Note Name: E3
Note ON: Time 119040, Note Name: E3, Velocity: 54
Note ON: Time 119040, Note Name: A3, Velocity: 54
Note ON: Time 119040, Note Name: C#4, Velocity: 54
Note OFF: Time 119520, Note Name: C#4
Note OFF: Time 119520, Note Name: A3
Note OFF: Time 119520, Note Name: E3
Note ON: Time 119520, Note Name: D2, Velocity: 59
Note OFF: Time 119760, Note Name: D2
Note ON: Time 120000, Note Name: D3, Velocity: 54
Note ON: Time 120000, Note Name: A3, Velocity: 54
Note ON: Time 120000, Note Name: D4, Velocity: 54
Note OFF: Time 120480, Note Name: D4
Note OFF: Time 120480, Note Name: A3
Note OFF: Time 120480, Note Name: D3
Note ON: Time 120480, Note Name: D3, Velocity: 54
Note ON: Time 120480, Note Name: A3, Velocity: 54
Note ON: Time 120480, Note Name: D4, Velocity: 54
Note OFF: Time 120960, Note Name: D4
Note OFF: Time 120960, Note Name: A3
Note OFF: Time 120960, Note Name: D3
Note ON: Time 120960, Note Name: A2, Velocity: 59
Note OFF: Time 121200, Note Name: A2
Note ON: Time 121440, Note Name: A3, Velocity: 43
Note OFF: Time 121920, Note Name: A3
Note ON: Time 121920, Note Name: A3, Velocity: 56
Note ON: Time 121920, Note Name: E4, Velocity: 56
Note OFF: Time 122400, Note Name: E4
Note OFF: Time 122400, Note Name: A3
Note ON: Time 122400, Note Name: D3, Velocity: 59
Note OFF: Time 122640, Note Name: D3
Note ON: Time 122880, Note Name: A3, Velocity: 52
Note ON: Time 122880, Note Name: D4, Velocity: 52
Note OFF: Time 123360, Note Name: D4
Note OFF: Time 123360, Note Name: A3
Note ON: Time 123360, Note Name: D3, Velocity: 52
Note ON: Time 123360, Note Name: A3, Velocity: 52
Note ON: Time 123360, Note Name: D4, Velocity: 52
Note OFF: Time 123840, Note Name: D4
Note OFF: Time 123840, Note Name: A3
Note OFF: Time 123840, Note Name: D3
Note ON: Time 123840, Note Name: G2, Velocity: 59
Note OFF: Time 124080, Note Name: G2
Note ON: Time 124320, Note Name: B3, Velocity: 54
Note ON: Time 124320, Note Name: E4, Velocity: 54
Note OFF: Time 124800, Note Name: E4
Note OFF: Time 124800, Note Name: B3
Note ON: Time 124800, Note Name: E3, Velocity: 54
Note ON: Time 124800, Note Name: B3, Velocity: 54
Note ON: Time 124800, Note Name: E4, Velocity: 54
Note OFF: Time 125280, Note Name: E4
Note OFF: Time 125280, Note Name: B3
Note OFF: Time 125280, Note Name: E3
Note ON: Time 125280, Note Name: A2, Velocity: 59
Note OFF: Time 125520, Note Name: A2
Note ON: Time 125760, Note Name: A3, Velocity: 54
Note ON: Time 125760, Note Name: E4, Velocity: 54
Note OFF: Time 126240, Note Name: E4
Note OFF: Time 126240, Note Name: A3
Note ON: Time 126240, Note Name: A3, Velocity: 54
Note ON: Time 126240, Note Name: E4, Velocity: 54
Note OFF: Time 126720, Note Name: E4
Note OFF: Time 126720, Note Name: A3
Note ON: Time 126720, Note Name: D2, Velocity: 59
Note OFF: Time 126960, Note Name: D2
Note ON: Time 127200, Note Name: D3, Velocity: 36
Note ON: Time 127200, Note Name: A3, Velocity: 36
Note ON: Time 127200, Note Name: D4, Velocity: 43
Note OFF: Time 127680, Note Name: D4
Note OFF: Time 127680, Note Name: A3
Note OFF: Time 127680, Note Name: D3
Note ON: Time 127680, Note Name: D3, Velocity: 39
Note ON: Time 127680, Note Name: A3, Velocity: 39
Note ON: Time 127680, Note Name: D4, Velocity: 39
Note OFF: Time 128640, Note Name: D4
Note OFF: Time 128640, Note Name: A3
Note OFF: Time 128640, Note Name: D3
Note ON: Time 128640, Note Name: D3, Velocity: 23
Note ON: Time 128640, Note Name: A3, Velocity: 23
Note ON: Time 128640, Note Name: D4, Velocity: 23
Note OFF: Time 129120, Note Name: D4
Note OFF: Time 129120, Note Name: A3
Note OFF: Time 129120, Note Name: D3
Note ON: Time 129120, Note Name: D3, Velocity: 23
Note ON: Time 129120, Note Name: A3, Velocity: 23
Note ON: Time 129120, Note Name: D4, Velocity: 23
Note OFF: Time 129600, Note Name: D4
Note OFF: Time 129600, Note Name: A3
Note OFF: Time 129600, Note Name: D3
Note ON: Time 129600, Note Name: A2, Velocity: 27
Note OFF: Time 129840, Note Name: A2
Note ON: Time 130080, Note Name: E3, Velocity: 24
Note ON: Time 130080, Note Name: A3, Velocity: 24
Note ON: Time 130080, Note Name: C#4, Velocity: 24
Note OFF: Time 130560, Note Name: C#4
Note OFF: Time 130560, Note Name: A3
Note OFF: Time 130560, Note Name: E3
Note ON: Time 130560, Note Name: E3, Velocity: 24
Note ON: Time 130560, Note Name: A3, Velocity: 24
Note ON: Time 130560, Note Name: C#4, Velocity: 24
Note OFF: Time 131040, Note Name: C#4
Note OFF: Time 131040, Note Name: A3
Note OFF: Time 131040, Note Name: E3
Note ON: Time 131040, Note Name: D2, Velocity: 27
Note OFF: Time 131280, Note Name: D2
Note ON: Time 131520, Note Name: D3, Velocity: 24
Note ON: Time 131520, Note Name: A3, Velocity: 24
Note ON: Time 131520, Note Name: D4, Velocity: 24
Note OFF: Time 132000, Note Name: D4
Note OFF: Time 132000, Note Name: A3
Note OFF: Time 132000, Note Name: D3
Note ON: Time 132000, Note Name: D3, Velocity: 24
Note ON: Time 132000, Note Name: A3, Velocity: 24
Note ON: Time 132000, Note Name: D4, Velocity: 24
Note OFF: Time 132480, Note Name: D4
Note OFF: Time 132480, Note Name: A3
Note OFF: Time 132480, Note Name: D3
Note ON: Time 132480, Note Name: A2, Velocity: 27
Note OFF: Time 132720, Note Name: A2
Note ON: Time 132960, Note Name: C#4, Velocity: 20
Note ON: Time 132960, Note Name: A3, Velocity: 20
Note OFF: Time 133440, Note Name: A3
Note OFF: Time 133440, Note Name: C#4
Note ON: Time 133440, Note Name: A3, Velocity: 26
Note ON: Time 133440, Note Name: E4, Velocity: 26
Note OFF: Time 133920, Note Name: E4
Note ON: Time 133920, Note Name: D3, Velocity: 27
Note OFF: Time 134400, Note Name: D3
Note OFF: Time 134400, Note Name: A3
Note ON: Time 134400, Note Name: A3, Velocity: 23
Note ON: Time 134400, Note Name: D4, Velocity: 23
Note OFF: Time 134880, Note Name: D4
Note OFF: Time 134880, Note Name: A3
Note ON: Time 134880, Note Name: D3, Velocity: 23
Note ON: Time 134880, Note Name: A3, Velocity: 23
Note ON: Time 134880, Note Name: D4, Velocity: 23
Note OFF: Time 135360, Note Name: D4
Note OFF: Time 135360, Note Name: A3
Note OFF: Time 135360, Note Name: D3
Note ON: Time 135360, Note Name: G2, Velocity: 27
Note OFF: Time 135600, Note Name: G2
Note ON: Time 135840, Note Name: B3, Velocity: 24
Note ON: Time 135840, Note Name: E4, Velocity: 24
Note OFF: Time 136320, Note Name: E4
Note OFF: Time 136320, Note Name: B3
Note ON: Time 136320, Note Name: E3, Velocity: 24
Note ON: Time 136320, Note Name: B3, Velocity: 24
Note ON: Time 136320, Note Name: E4, Velocity: 24
Note OFF: Time 136800, Note Name: E4
Note OFF: Time 136800, Note Name: B3
Note OFF: Time 136800, Note Name: E3
Note ON: Time 136800, Note Name: A2, Velocity: 27
Note OFF: Time 137040, Note Name: A2
Note ON: Time 137280, Note Name: A3, Velocity: 24
Note ON: Time 137280, Note Name: E4, Velocity: 24
Note OFF: Time 137760, Note Name: E4
Note OFF: Time 137760, Note Name: A3
Note ON: Time 137760, Note Name: A3, Velocity: 24
Note ON: Time 137760, Note Name: E4, Velocity: 24
Note OFF: Time 138240, Note Name: E4
Note OFF: Time 138240, Note Name: A3
Note ON: Time 138240, Note Name: D2, Velocity: 27
Note OFF: Time 138480, Note Name: D2
Note ON: Time 138720, Note Name: D3, Velocity: 17
Note ON: Time 138720, Note Name: A3, Velocity: 17
Note ON: Time 138720, Note Name: D4, Velocity: 20
Note OFF: Time 139200, Note Name: D4
Note OFF: Time 139200, Note Name: A3
Note OFF: Time 139200, Note Name: D3
Note ON: Time 139200, Note Name: D3, Velocity: 26
Note ON: Time 139200, Note Name: A3, Velocity: 26
Note ON: Time 139200, Note Name: D4, Velocity: 26
Note OFF: Time 139680, Note Name: D4
Note OFF: Time 139680, Note Name: A3
Note OFF: Time 139680, Note Name: D3
Note ON: Time 139680, Note Name: A2, Velocity: 59
Note OFF: Time 139920, Note Name: A2
Note ON: Time 140160, Note Name: A2, Velocity: 52
Note ON: Time 140160, Note Name: E3, Velocity: 52
Note ON: Time 140160, Note Name: A3, Velocity: 52
Note OFF: Time 140640, Note Name: A3
Note OFF: Time 140640, Note Name: E3
Note OFF: Time 140640, Note Name: A2
Note ON: Time 140640, Note Name: A2, Velocity: 52
Note ON: Time 140640, Note Name: E3, Velocity: 52
Note ON: Time 140640, Note Name: A3, Velocity: 52
Note OFF: Time 141120, Note Name: A3
Note OFF: Time 141120, Note Name: E3
Note OFF: Time 141120, Note Name: A2
Note ON: Time 141120, Note Name: E2, Velocity: 59
Note OFF: Time 141360, Note Name: E2
Note ON: Time 141600, Note Name: E3, Velocity: 54
Note ON: Time 141600, Note Name: B3, Velocity: 54
Note OFF: Time 142080, Note Name: B3
Note OFF: Time 142080, Note Name: E3
Note ON: Time 142080, Note Name: E3, Velocity: 54
Note ON: Time 142080, Note Name: B3, Velocity: 54
Note OFF: Time 142560, Note Name: B3
Note OFF: Time 142560, Note Name: E3
Note ON: Time 142560, Note Name: A1, Velocity: 59
Note OFF: Time 142800, Note Name: A1
Note ON: Time 143040, Note Name: A2, Velocity: 54
Note ON: Time 143040, Note Name: E3, Velocity: 54
Note ON: Time 143040, Note Name: A3, Velocity: 54
Note OFF: Time 143520, Note Name: A3
Note OFF: Time 143520, Note Name: E3
Note OFF: Time 143520, Note Name: A2
Note ON: Time 143520, Note Name: A2, Velocity: 54
Note ON: Time 143520, Note Name: E3, Velocity: 54
Note ON: Time 143520, Note Name: A3, Velocity: 54
Note OFF: Time 144000, Note Name: A3
Note OFF: Time 144000, Note Name: E3
Note OFF: Time 144000, Note Name: A2
Note ON: Time 144000, Note Name: E2, Velocity: 59
Note OFF: Time 144240, Note Name: E2
Note ON: Time 144480, Note Name: E3, Velocity: 43
Note OFF: Time 144960, Note Name: E3
Note ON: Time 144960, Note Name: E3, Velocity: 56
Note ON: Time 144960, Note Name: B3, Velocity: 56
Note OFF: Time 145440, Note Name: B3
Note OFF: Time 145440, Note Name: E3
Note ON: Time 145440, Note Name: A2, Velocity: 59
Note OFF: Time 145680, Note Name: A2
Note ON: Time 145920, Note Name: E3, Velocity: 52
Note ON: Time 145920, Note Name: A3, Velocity: 52
Note OFF: Time 146400, Note Name: A3
Note OFF: Time 146400, Note Name: E3
Note ON: Time 146400, Note Name: A2, Velocity: 52
Note ON: Time 146400, Note Name: E3, Velocity: 52
Note ON: Time 146400, Note Name: A3, Velocity: 52
Note OFF: Time 146880, Note Name: A3
Note OFF: Time 146880, Note Name: E3
Note OFF: Time 146880, Note Name: A2
Note ON: Time 146880, Note Name: D2, Velocity: 59
Note OFF: Time 147120, Note Name: D2
Note ON: Time 147360, Note Name: F#3, Velocity: 54
Note ON: Time 147360, Note Name: B3, Velocity: 54
Note OFF: Time 147840, Note Name: B3
Note OFF: Time 147840, Note Name: F#3
Note ON: Time 147840, Note Name: B2, Velocity: 54
Note ON: Time 147840, Note Name: F#3, Velocity: 54
Note ON: Time 147840, Note Name: B3, Velocity: 54
Note OFF: Time 148320, Note Name: B3
Note OFF: Time 148320, Note Name: F#3
Note OFF: Time 148320, Note Name: B2
Note ON: Time 148320, Note Name: E2, Velocity: 59
Note OFF: Time 148560, Note Name: E2
Note ON: Time 148800, Note Name: E3, Velocity: 54
Note ON: Time 148800, Note Name: B3, Velocity: 54
Note OFF: Time 149280, Note Name: B3
Note OFF: Time 149280, Note Name: E3
Note ON: Time 149280, Note Name: E3, Velocity: 54
Note ON: Time 149280, Note Name: B3, Velocity: 54
Note OFF: Time 149760, Note Name: B3
Note OFF: Time 149760, Note Name: E3
Note ON: Time 149760, Note Name: A1, Velocity: 59
Note OFF: Time 150000, Note Name: A1
Note ON: Time 150240, Note Name: A2, Velocity: 36
Note ON: Time 150240, Note Name: E3, Velocity: 36
Note ON: Time 150240, Note Name: A3, Velocity: 43
Note OFF: Time 150720, Note Name: A3
Note OFF: Time 150720, Note Name: E3
Note OFF: Time 150720, Note Name: A2
Note ON: Time 150720, Note Name: A2, Velocity: 39
Note ON: Time 150720, Note Name: E3, Velocity: 39
Note ON: Time 150720, Note Name: A3, Velocity: 39
Note OFF: Time 151680, Note Name: A3
Note OFF: Time 151680, Note Name: E3
Note OFF: Time 151680, Note Name: A2
Note ON: Time 151680, Note Name: A2, Velocity: 23
Note ON: Time 151680, Note Name: E3, Velocity: 23
Note ON: Time 151680, Note Name: A3, Velocity: 23
Note OFF: Time 152160, Note Name: A3
Note OFF: Time 152160, Note Name: E3
Note OFF: Time 152160, Note Name: A2
Note ON: Time 152160, Note Name: A2, Velocity: 23
Note ON: Time 152160, Note Name: E3, Velocity: 23
Note ON: Time 152160, Note Name: A3, Velocity: 23
Note OFF: Time 152640, Note Name: A3
Note OFF: Time 152640, Note Name: E3
Note OFF: Time 152640, Note Name: A2
Note ON: Time 152640, Note Name: E2, Velocity: 27
Note OFF: Time 152880, Note Name: E2
Note ON: Time 153120, Note Name: E3, Velocity: 24
Note ON: Time 153120, Note Name: B3, Velocity: 24
Note OFF: Time 153600, Note Name: B3
Note OFF: Time 153600, Note Name: E3
Note ON: Time 153600, Note Name: E3, Velocity: 24
Note ON: Time 153600, Note Name: B3, Velocity: 24
Note OFF: Time 154080, Note Name: B3
Note OFF: Time 154080, Note Name: E3
Note ON: Time 154080, Note Name: A1, Velocity: 27
Note OFF: Time 154320, Note Name: A1
Note ON: Time 154560, Note Name: A2, Velocity: 24
Note ON: Time 154560, Note Name: E3, Velocity: 24
Note ON: Time 154560, Note Name: A3, Velocity: 24
Note OFF: Time 155040, Note Name: A3
Note OFF: Time 155040, Note Name: E3
Note OFF: Time 155040, Note Name: A2
Note ON: Time 155040, Note Name: A2, Velocity: 24
Note ON: Time 155040, Note Name: E3, Velocity: 24
Note ON: Time 155040, Note Name: A3, Velocity: 24
Note OFF: Time 155520, Note Name: A3
Note OFF: Time 155520, Note Name: E3
Note OFF: Time 155520, Note Name: A2
Note ON: Time 155520, Note Name: E2, Velocity: 27
Note OFF: Time 155760, Note Name: E2
Note ON: Time 156000, Note Name: E3, Velocity: 20
Note OFF: Time 156480, Note Name: E3
Note ON: Time 156480, Note Name: E3, Velocity: 26
Note ON: Time 156480, Note Name: B3, Velocity: 26
Note OFF: Time 156960, Note Name: B3
Note ON: Time 156960, Note Name: A2, Velocity: 27
Note OFF: Time 157440, Note Name: A2
Note OFF: Time 157440, Note Name: E3
Note ON: Time 157440, Note Name: E3, Velocity: 23
Note ON: Time 157440, Note Name: A3, Velocity: 23
Note OFF: Time 157920, Note Name: A3
Note OFF: Time 157920, Note Name: E3
Note ON: Time 157920, Note Name: A2, Velocity: 23
Note ON: Time 157920, Note Name: E3, Velocity: 23
Note ON: Time 157920, Note Name: A3, Velocity: 23
Note OFF: Time 158400, Note Name: A3
Note OFF: Time 158400, Note Name: E3
Note OFF: Time 158400, Note Name: A2
Note ON: Time 158400, Note Name: D2, Velocity: 27
Note OFF: Time 158640, Note Name: D2
Note ON: Time 158880, Note Name: F#3, Velocity: 24
Note ON: Time 158880, Note Name: B3, Velocity: 24
Note OFF: Time 159360, Note Name: B3
Note OFF: Time 159360, Note Name: F#3
Note ON: Time 159360, Note Name: B2, Velocity: 24
Note ON: Time 159360, Note Name: F#3, Velocity: 24
Note ON: Time 159360, Note Name: B3, Velocity: 24
Note OFF: Time 159840, Note Name: B3
Note OFF: Time 159840, Note Name: F#3
Note OFF: Time 159840, Note Name: B2
Note ON: Time 159840, Note Name: E2, Velocity: 27
Note OFF: Time 160080, Note Name: E2
Note ON: Time 160320, Note Name: E3, Velocity: 24
Note ON: Time 160320, Note Name: B3, Velocity: 24
Note OFF: Time 160800, Note Name: B3
Note OFF: Time 160800, Note Name: E3
Note ON: Time 160800, Note Name: E3, Velocity: 24
Note ON: Time 160800, Note Name: B3, Velocity: 24
Note OFF: Time 161280, Note Name: B3
Note OFF: Time 161280, Note Name: E3
Note ON: Time 161280, Note Name: A1, Velocity: 27
Note OFF: Time 161520, Note Name: A1
Note ON: Time 161760, Note Name: A3, Velocity: 21
Note ON: Time 161760, Note Name: E4, Velocity: 25
Note OFF: Time 162240, Note Name: E4
Note OFF: Time 162240, Note Name: A3
Note ON: Time 162240, Note Name: A3, Velocity: 60
Note ON: Time 162240, Note Name: E4, Velocity: 60
Note OFF: Time 162720, Note Name: E4
Note OFF: Time 162720, Note Name: A3
Note ON: Time 162720, Note Name: D3, Velocity: 67
Note OFF: Time 162960, Note Name: D3
Note ON: Time 163200, Note Name: D3, Velocity: 59
Note ON: Time 163200, Note Name: A3, Velocity: 59
Note ON: Time 163200, Note Name: D4, Velocity: 59
Note OFF: Time 163680, Note Name: D4
Note OFF: Time 163680, Note Name: A3
Note OFF: Time 163680, Note Name: D3
Note ON: Time 163680, Note Name: D3, Velocity: 59
Note ON: Time 163680, Note Name: A3, Velocity: 59
Note ON: Time 163680, Note Name: D4, Velocity: 59
Note OFF: Time 164160, Note Name: D4
Note OFF: Time 164160, Note Name: A3
Note OFF: Time 164160, Note Name: D3
Note ON: Time 164160, Note Name: A2, Velocity: 67
Note OFF: Time 164400, Note Name: A2
Note ON: Time 164640, Note Name: E3, Velocity: 62
Note ON: Time 164640, Note Name: A3, Velocity: 62
Note ON: Time 164640, Note Name: C#4, Velocity: 62
Note OFF: Time 165120, Note Name: C#4
Note OFF: Time 165120, Note Name: A3
Note OFF: Time 165120, Note Name: E3
Note ON: Time 165120, Note Name: E3, Velocity: 62
Note ON: Time 165120, Note Name: A3, Velocity: 62
Note ON: Time 165120, Note Name: C#4, Velocity: 62
Note OFF: Time 165600, Note Name: C#4
Note OFF: Time 165600, Note Name: A3
Note OFF: Time 165600, Note Name: E3
Note ON: Time 165600, Note Name: D2, Velocity: 67
Note OFF: Time 165840, Note Name: D2
Note ON: Time 166080, Note Name: D3, Velocity: 62
Note ON: Time 166080, Note Name: A3, Velocity: 62
Note ON: Time 166080, Note Name: D4, Velocity: 62
Note OFF: Time 166560, Note Name: D4
Note OFF: Time 166560, Note Name: A3
Note OFF: Time 166560, Note Name: D3
Note ON: Time 166560, Note Name: D3, Velocity: 62
Note ON: Time 166560, Note Name: A3, Velocity: 62
Note ON: Time 166560, Note Name: D4, Velocity: 62
Note OFF: Time 167040, Note Name: D4
Note OFF: Time 167040, Note Name: A3
Note OFF: Time 167040, Note Name: D3
Note ON: Time 167040, Note Name: A2, Velocity: 67
Note OFF: Time 167280, Note Name: A2
Note ON: Time 167520, Note Name: A3, Velocity: 49
Note OFF: Time 168000, Note Name: A3
Note ON: Time 168000, Note Name: A3, Velocity: 64
Note ON: Time 168000, Note Name: E4, Velocity: 64
Note OFF: Time 168480, Note Name: E4
Note OFF: Time 168480, Note Name: A3
Note ON: Time 168480, Note Name: D3, Velocity: 67
Note OFF: Time 168720, Note Name: D3
Note ON: Time 168960, Note Name: A3, Velocity: 59
Note ON: Time 168960, Note Name: D4, Velocity: 59
Note OFF: Time 169440, Note Name: D4
Note OFF: Time 169440, Note Name: A3
Note ON: Time 169440, Note Name: D3, Velocity: 59
Note ON: Time 169440, Note Name: A3, Velocity: 59
Note ON: Time 169440, Note Name: D4, Velocity: 59
Note OFF: Time 169920, Note Name: D4
Note OFF: Time 169920, Note Name: A3
Note OFF: Time 169920, Note Name: D3
Note ON: Time 169920, Note Name: G2, Velocity: 67
Note OFF: Time 170160, Note Name: G2
Note ON: Time 170400, Note Name: B3, Velocity: 62
Note ON: Time 170400, Note Name: E4, Velocity: 62
Note OFF: Time 170880, Note Name: E4
Note OFF: Time 170880, Note Name: B3
Note ON: Time 170880, Note Name: E3, Velocity: 62
Note ON: Time 170880, Note Name: B3, Velocity: 62
Note ON: Time 170880, Note Name: E4, Velocity: 62
Note OFF: Time 171360, Note Name: E4
Note OFF: Time 171360, Note Name: B3
Note OFF: Time 171360, Note Name: E3
Note ON: Time 171360, Note Name: A2, Velocity: 67
Note OFF: Time 171600, Note Name: A2
Note ON: Time 171840, Note Name: A3, Velocity: 62
Note ON: Time 171840, Note Name: E4, Velocity: 62
Note OFF: Time 172320, Note Name: E4
Note OFF: Time 172320, Note Name: A3
Note ON: Time 172320, Note Name: A3, Velocity: 62
Note ON: Time 172320, Note Name: E4, Velocity: 62
Note OFF: Time 172800, Note Name: E4
Note OFF: Time 172800, Note Name: A3
Note ON: Time 172800, Note Name: D2, Velocity: 67
Note OFF: Time 173040, Note Name: D2
Note ON: Time 173280, Note Name: D3, Velocity: 41
Note ON: Time 173280, Note Name: A3, Velocity: 41
Note ON: Time 173280, Note Name: D4, Velocity: 49
Note OFF: Time 173760, Note Name: D4
Note OFF: Time 173760, Note Name: A3
Note OFF: Time 173760, Note Name: D3
Note ON: Time 173760, Note Name: D3, Velocity: 44
Note ON: Time 173760, Note Name: A3, Velocity: 44
Note ON: Time 173760, Note Name: D4, Velocity: 44
Note OFF: Time 174720, Note Name: D4
Note OFF: Time 174720, Note Name: A3
Note OFF: Time 174720, Note Name: D3
Note ON: Time 174720, Note Name: D3, Velocity: 23
Note ON: Time 174720, Note Name: A3, Velocity: 23
Note ON: Time 174720, Note Name: D4, Velocity: 23
Note OFF: Time 175200, Note Name: D4
Note OFF: Time 175200, Note Name: A3
Note OFF: Time 175200, Note Name: D3
Note ON: Time 175200, Note Name: D3, Velocity: 23
Note ON: Time 175200, Note Name: A3, Velocity: 23
Note ON: Time 175200, Note Name: D4, Velocity: 23
Note OFF: Time 175680, Note Name: D4
Note OFF: Time 175680, Note Name: A3
Note OFF: Time 175680, Note Name: D3
Note ON: Time 175680, Note Name: A2, Velocity: 27
Note OFF: Time 175920, Note Name: A2
Note ON: Time 176160, Note Name: E3, Velocity: 24
Note ON: Time 176160, Note Name: A3, Velocity: 24
Note ON: Time 176160, Note Name: C#4, Velocity: 24
Note OFF: Time 176640, Note Name: C#4
Note OFF: Time 176640, Note Name: A3
Note OFF: Time 176640, Note Name: E3
Note ON: Time 176640, Note Name: E3, Velocity: 24
Note ON: Time 176640, Note Name: A3, Velocity: 24
Note ON: Time 176640, Note Name: C#4, Velocity: 24
Note OFF: Time 177120, Note Name: C#4
Note OFF: Time 177120, Note Name: A3
Note OFF: Time 177120, Note Name: E3
Note ON: Time 177120, Note Name: D2, Velocity: 27
Note OFF: Time 177360, Note Name: D2
Note ON: Time 177600, Note Name: D3, Velocity: 24
Note ON: Time 177600, Note Name: A3, Velocity: 24
Note ON: Time 177600, Note Name: D4, Velocity: 24
Note OFF: Time 178080, Note Name: D4
Note OFF: Time 178080, Note Name: A3
Note OFF: Time 178080, Note Name: D3
Note ON: Time 178080, Note Name: D3, Velocity: 24
Note ON: Time 178080, Note Name: A3, Velocity: 24
Note ON: Time 178080, Note Name: D4, Velocity: 24
Note OFF: Time 178560, Note Name: D4
Note OFF: Time 178560, Note Name: A3
Note OFF: Time 178560, Note Name: D3
Note ON: Time 178560, Note Name: A2, Velocity: 27
Note OFF: Time 178800, Note Name: A2
Note ON: Time 179040, Note Name: C#4, Velocity: 20
Note ON: Time 179040, Note Name: A3, Velocity: 20
Note OFF: Time 179520, Note Name: A3
Note OFF: Time 179520, Note Name: C#4
Note ON: Time 179520, Note Name: A3, Velocity: 26
Note ON: Time 179520, Note Name: E4, Velocity: 26
Note OFF: Time 180000, Note Name: E4
Note ON: Time 180000, Note Name: D3, Velocity: 27
Note OFF: Time 180480, Note Name: D3
Note OFF: Time 180480, Note Name: A3
Note ON: Time 180480, Note Name: A3, Velocity: 23
Note ON: Time 180480, Note Name: D4, Velocity: 23
Note OFF: Time 180960, Note Name: D4
Note OFF: Time 180960, Note Name: A3
Note ON: Time 180960, Note Name: D3, Velocity: 23
Note ON: Time 180960, Note Name: A3, Velocity: 23
Note ON: Time 180960, Note Name: D4, Velocity: 23
Note OFF: Time 181440, Note Name: D4
Note OFF: Time 181440, Note Name: A3
Note OFF: Time 181440, Note Name: D3
Note ON: Time 181440, Note Name: G2, Velocity: 27
Note OFF: Time 181680, Note Name: G2
Note ON: Time 181920, Note Name: B3, Velocity: 24
Note ON: Time 181920, Note Name: E4, Velocity: 24
Note OFF: Time 182400, Note Name: E4
Note OFF: Time 182400, Note Name: B3
Note ON: Time 182400, Note Name: E3, Velocity: 24
Note ON: Time 182400, Note Name: B3, Velocity: 24
Note ON: Time 182400, Note Name: E4, Velocity: 24
Note OFF: Time 182880, Note Name: E4
Note OFF: Time 182880, Note Name: B3
Note OFF: Time 182880, Note Name: E3
Note ON: Time 182880, Note Name: A2, Velocity: 27
Note OFF: Time 183120, Note Name: A2
Note ON: Time 183360, Note Name: A3, Velocity: 24
Note ON: Time 183360, Note Name: E4, Velocity: 24
Note OFF: Time 183840, Note Name: E4
Note OFF: Time 183840, Note Name: A3
Note ON: Time 183840, Note Name: A3, Velocity: 24
Note ON: Time 183840, Note Name: E4, Velocity: 24
Note OFF: Time 184320, Note Name: E4
Note OFF: Time 184320, Note Name: A3
Note ON: Time 184320, Note Name: D2, Velocity: 27
Note OFF: Time 184560, Note Name: D2
Note ON: Time 184800, Note Name: D3, Velocity: 17
Note ON: Time 184800, Note Name: A3, Velocity: 17
Note ON: Time 184800, Note Name: D4, Velocity: 20
Note OFF: Time 185280, Note Name: D4
Note OFF: Time 185280, Note Name: A3
Note OFF: Time 185280, Note Name: D3
Note ON: Time 185280, Note Name: D3, Velocity: 26
Note ON: Time 185280, Note Name: A3, Velocity: 26
Note ON: Time 185280, Note Name: D4, Velocity: 26
Note OFF: Time 185760, Note Name: D4
Note OFF: Time 185760, Note Name: A3
Note OFF: Time 185760, Note Name: D3
Note ON: Time 185760, Note Name: D3, Velocity: 26
Note ON: Time 185760, Note Name: A3, Velocity: 31
Note OFF: Time 186240, Note Name: A3
Note OFF: Time 186240, Note Name: D3
Note ON: Time 186240, Note Name: C4, Velocity: 27
Note ON: Time 186240, Note Name: D3, Velocity: 23
Note OFF: Time 186720, Note Name: D3
Note OFF: Time 186720, Note Name: C4
Note ON: Time 186720, Note Name: D3, Velocity: 23
Note ON: Time 186720, Note Name: B3, Velocity: 28
Note OFF: Time 187200, Note Name: B3
Note OFF: Time 187200, Note Name: D3
Note ON: Time 187200, Note Name: D3, Velocity: 26
Note ON: Time 187200, Note Name: G3, Velocity: 32
Note OFF: Time 187680, Note Name: G3
Note OFF: Time 187680, Note Name: D3
Note ON: Time 187680, Note Name: A#3, Velocity: 28
Note ON: Time 187680, Note Name: D3, Velocity: 24
Note OFF: Time 188160, Note Name: D3
Note OFF: Time 188160, Note Name: A#3
Note ON: Time 188160, Note Name: D3, Velocity: 24
Note ON: Time 188160, Note Name: A3, Velocity: 29
Note OFF: Time 188640, Note Name: A3
Note OFF: Time 188640, Note Name: D3
Note ON: Time 188640, Note Name: D3, Velocity: 27
Note ON: Time 188640, Note Name: A3, Velocity: 33
Note OFF: Time 189120, Note Name: A3
Note OFF: Time 189120, Note Name: D3
Note ON: Time 189120, Note Name: C4, Velocity: 29
Note ON: Time 189120, Note Name: D3, Velocity: 24
Note OFF: Time 189600, Note Name: D3
Note OFF: Time 189600, Note Name: C4
Note ON: Time 189600, Note Name: D3, Velocity: 24
Note ON: Time 189600, Note Name: B3, Velocity: 29
Note OFF: Time 190080, Note Name: B3
Note OFF: Time 190080, Note Name: D3
Note ON: Time 190080, Note Name: D3, Velocity: 28
Note ON: Time 190080, Note Name: G3, Velocity: 33
Note OFF: Time 190560, Note Name: G3
Note OFF: Time 190560, Note Name: D3
Note ON: Time 190560, Note Name: A#3, Velocity: 30
Note ON: Time 190560, Note Name: D3, Velocity: 25
Note OFF: Time 191040, Note Name: D3
Note OFF: Time 191040, Note Name: A#3
Note ON: Time 191040, Note Name: D3, Velocity: 25
Note ON: Time 191040, Note Name: A3, Velocity: 30
Note OFF: Time 191520, Note Name: A3
Note OFF: Time 191520, Note Name: D3
Note ON: Time 191520, Note Name: D3, Velocity: 29
Note ON: Time 191520, Note Name: F#3, Velocity: 35
Note OFF: Time 192000, Note Name: F#3
Note OFF: Time 192000, Note Name: D3
Note ON: Time 192000, Note Name: A3, Velocity: 31
Note ON: Time 192000, Note Name: D3, Velocity: 26
Note OFF: Time 192480, Note Name: D3
Note OFF: Time 192480, Note Name: A3
Note ON: Time 192480, Note Name: D3, Velocity: 26
Note ON: Time 192480, Note Name: G#3, Velocity: 31
Note OFF: Time 192960, Note Name: G#3
Note OFF: Time 192960, Note Name: D3
Note ON: Time 192960, Note Name: D3, Velocity: 29
Note ON: Time 192960, Note Name: E3, Velocity: 35
Note OFF: Time 193440, Note Name: E3
Note OFF: Time 193440, Note Name: D3
Note ON: Time 193440, Note Name: G3, Velocity: 31
Note ON: Time 193440, Note Name: D3, Velocity: 26
Note OFF: Time 193920, Note Name: D3
Note OFF: Time 193920, Note Name: G3
Note ON: Time 193920, Note Name: D3, Velocity: 26
Note ON: Time 193920, Note Name: F#3, Velocity: 31
Note OFF: Time 194400, Note Name: F#3
Note OFF: Time 194400, Note Name: D3
Note ON: Time 194400, Note Name: D3, Velocity: 29
Note ON: Time 194400, Note Name: F#3, Velocity: 35
Note OFF: Time 194880, Note Name: F#3
Note OFF: Time 194880, Note Name: D3
Note ON: Time 194880, Note Name: A3, Velocity: 30
Note ON: Time 194880, Note Name: D3, Velocity: 25
Note OFF: Time 195360, Note Name: D3
Note OFF: Time 195360, Note Name: A3
Note ON: Time 195360, Note Name: D3, Velocity: 25
Note ON: Time 195360, Note Name: G#3, Velocity: 30
Note OFF: Time 195840, Note Name: G#3
Note OFF: Time 195840, Note Name: D3
Note ON: Time 195840, Note Name: D3, Velocity: 28
Note ON: Time 195840, Note Name: E3, Velocity: 33
Note OFF: Time 196320, Note Name: E3
Note OFF: Time 196320, Note Name: D3
Note ON: Time 196320, Note Name: G3, Velocity: 29
Note ON: Time 196320, Note Name: D3, Velocity: 24
Note OFF: Time 196800, Note Name: D3
Note OFF: Time 196800, Note Name: G3
Note ON: Time 196800, Note Name: D3, Velocity: 24
Note ON: Time 196800, Note Name: F#3, Velocity: 29
Note OFF: Time 197280, Note Name: F#3
Note OFF: Time 197280, Note Name: D3
Note ON: Time 197280, Note Name: D2, Velocity: 24
Note ON: Time 197280, Note Name: A2, Velocity: 29
Note OFF: Time 197760, Note Name: A2
Note OFF: Time 197760, Note Name: D2
Note ON: Time 197760, Note Name: C3, Velocity: 25
Note ON: Time 197760, Note Name: D2, Velocity: 21
Note OFF: Time 198240, Note Name: D2
Note OFF: Time 198240, Note Name: C3
Note ON: Time 198240, Note Name: D2, Velocity: 21
Note ON: Time 198240, Note Name: B2, Velocity: 24
Note OFF: Time 198720, Note Name: B2
Note OFF: Time 198720, Note Name: D2
Note ON: Time 198720, Note Name: D2, Velocity: 23
Note ON: Time 198720, Note Name: G2, Velocity: 28
Note OFF: Time 199200, Note Name: G2
Note OFF: Time 199200, Note Name: D2
Note ON: Time 199200, Note Name: A#2, Velocity: 24
Note ON: Time 199200, Note Name: D2, Velocity: 20
Note OFF: Time 199680, Note Name: D2
Note OFF: Time 199680, Note Name: A#2
Note ON: Time 199680, Note Name: D2, Velocity: 20
Note ON: Time 199680, Note Name: A2, Velocity: 24
Note OFF: Time 200160, Note Name: A2
Note OFF: Time 200160, Note Name: D2
Note ON: Time 200160, Note Name: D2, Velocity: 20
Note ON: Time 200160, Note Name: A2, Velocity: 23
Note OFF: Time 200640, Note Name: A2
Note OFF: Time 200640, Note Name: D2
Note ON: Time 200640, Note Name: C3, Velocity: 20
Note ON: Time 200640, Note Name: D2, Velocity: 17
Note OFF: Time 201120, Note Name: D2
Note OFF: Time 201120, Note Name: C3
Note ON: Time 201120, Note Name: D2, Velocity: 17
Note ON: Time 201120, Note Name: B2, Velocity: 20
Note OFF: Time 201600, Note Name: B2
Note OFF: Time 201600, Note Name: D2
Note ON: Time 201600, Note Name: D2, Velocity: 19
Note ON: Time 201600, Note Name: G2, Velocity: 22
Note OFF: Time 202080, Note Name: G2
Note OFF: Time 202080, Note Name: D2
Note ON: Time 202080, Note Name: A#2, Velocity: 20
Note ON: Time 202080, Note Name: D2, Velocity: 17
Note OFF: Time 202560, Note Name: D2
Note OFF: Time 202560, Note Name: A#2
Note ON: Time 202560, Note Name: D2, Velocity: 17
Note ON: Time 202560, Note Name: A2, Velocity: 20
Note OFF: Time 203040, Note Name: A2
Note OFF: Time 203040, Note Name: D2
Note ON: Time 203040, Note Name: D2, Velocity: 26
Note ON: Time 203040, Note Name: A2, Velocity: 31
Note OFF: Time 203520, Note Name: A2
Note OFF: Time 203520, Note Name: D2
Note ON: Time 203520, Note Name: D3, Velocity: 28
Note ON: Time 203520, Note Name: A3, Velocity: 34
Note OFF: Time 204000, Note Name: A3
Note OFF: Time 204000, Note Name: D3
Note ON: Time 204000, Note Name: D4, Velocity: 28
Note ON: Time 204000, Note Name: A4, Velocity: 34
Note OFF: Time 207360, Note Name: A4
Note OFF: Time 207360, Note Name: D4
Track 3: Chopin:  Mazurka Op. 33 Nr. 2
Track 4: Copyright  2003 by Bernd Krueger
Track 5: http://www.piano-midi.de
Track 6: Edition: 2014-02-25
Track 7: Spur 7
