Processing chpn-p17.mid...

Track 0: Chopin Prelude  No. 17, Opus 28
Track 1: Piano right
Note ON: Time 0, Note Name: C4, Velocity: 34
Note OFF: Time 228, Note Name: C4
Note ON: Time 240, Note Name: C4, Velocity: 35
Note OFF: Time 468, Note Name: C4
Note ON: Time 480, Note Name: C4, Velocity: 37
Note OFF: Time 708, Note Name: C4
Note ON: Time 720, Note Name: C4, Velocity: 38
Note OFF: Time 948, Note Name: C4
Note ON: Time 960, Note Name: C4, Velocity: 39
Note OFF: Time 1188, Note Name: C4
Note ON: Time 1200, Note Name: C4, Velocity: 41
Note OFF: Time 1428, Note Name: C4
Note ON: Time 1440, Note Name: C4, Velocity: 43
Note OFF: Time 1668, Note Name: C4
Note ON: Time 1680, Note Name: C4, Velocity: 45
Note OFF: Time 1908, Note Name: C4
Note ON: Time 1920, Note Name: C4, Velocity: 47
Note OFF: Time 2148, Note Name: C4
Note ON: Time 2160, Note Name: C4, Velocity: 47
Note OFF: Time 2388, Note Name: C4
Note ON: Time 2400, Note Name: C4, Velocity: 45
Note OFF: Time 2628, Note Name: C4
Note ON: Time 2640, Note Name: C4, Velocity: 40
Note OFF: Time 2868, Note Name: C4
Note ON: Time 2880, Note Name: C#4, Velocity: 48
Note OFF: Time 3108, Note Name: C#4
Note ON: Time 3120, Note Name: G4, Velocity: 55
Note ON: Time 3120, Note Name: C#4, Velocity: 42
Note OFF: Time 3348, Note Name: C#4
Note OFF: Time 3348, Note Name: G4
Note ON: Time 3360, Note Name: C5, Velocity: 57
Note ON: Time 3360, Note Name: C#4, Velocity: 44
Note OFF: Time 3588, Note Name: C#4
Note OFF: Time 3588, Note Name: C5
Note ON: Time 3600, Note Name: C#5, Velocity: 59
Note ON: Time 3600, Note Name: C#4, Velocity: 45
Note OFF: Time 3828, Note Name: C#4
Note OFF: Time 3828, Note Name: C#5
Note ON: Time 3840, Note Name: F4, Velocity: 56
Note ON: Time 3840, Note Name: C#4, Velocity: 43
Note OFF: Time 4068, Note Name: C#4
Note OFF: Time 4068, Note Name: F4
Note ON: Time 4080, Note Name: G4, Velocity: 55
Note ON: Time 4080, Note Name: C#4, Velocity: 42
Note OFF: Time 4308, Note Name: C#4
Note OFF: Time 4308, Note Name: G4
Note ON: Time 4320, Note Name: A#4, Velocity: 61
Note ON: Time 4560, Note Name: C4, Velocity: 26
Note ON: Time 4560, Note Name: F#4, Velocity: 31
Note OFF: Time 4788, Note Name: F#4
Note OFF: Time 4788, Note Name: C4
Note ON: Time 4800, Note Name: C4, Velocity: 26
Note ON: Time 4800, Note Name: F#4, Velocity: 31
Note OFF: Time 5028, Note Name: F#4
Note OFF: Time 5028, Note Name: C4
Note OFF: Time 5040, Note Name: A#4
Note ON: Time 5040, Note Name: G#4, Velocity: 52
Note ON: Time 5040, Note Name: C4, Velocity: 30
Note ON: Time 5040, Note Name: F#4, Velocity: 36
Note OFF: Time 5268, Note Name: F#4
Note OFF: Time 5268, Note Name: C4
Note ON: Time 5280, Note Name: F#4, Velocity: 31
Note ON: Time 5280, Note Name: C4, Velocity: 26
Note OFF: Time 5508, Note Name: C4
Note OFF: Time 5508, Note Name: F#4
Note ON: Time 5520, Note Name: F#4, Velocity: 31
Note ON: Time 5520, Note Name: C4, Velocity: 26
Note OFF: Time 5748, Note Name: C4
Note OFF: Time 5748, Note Name: F#4
Note OFF: Time 6000, Note Name: G#4
Note ON: Time 6000, Note Name: C#5, Velocity: 59
Note ON: Time 6000, Note Name: G#4, Velocity: 45
Note OFF: Time 6228, Note Name: G#4
Note OFF: Time 6228, Note Name: C#5
Note ON: Time 6240, Note Name: G5, Velocity: 63
Note ON: Time 6240, Note Name: G#4, Velocity: 49
Note OFF: Time 6468, Note Name: G#4
Note OFF: Time 6468, Note Name: G5
Note ON: Time 6480, Note Name: A#5, Velocity: 68
Note ON: Time 6480, Note Name: G#4, Velocity: 52
Note OFF: Time 6708, Note Name: G#4
Note OFF: Time 6708, Note Name: A#5
Note ON: Time 6720, Note Name: G#5, Velocity: 61
Note ON: Time 6720, Note Name: G#4, Velocity: 47
Note OFF: Time 6948, Note Name: G#4
Note OFF: Time 6948, Note Name: G#5
Note ON: Time 6960, Note Name: F5, Velocity: 61
Note ON: Time 6960, Note Name: G#4, Velocity: 47
Note OFF: Time 7188, Note Name: G#4
Note OFF: Time 7188, Note Name: F5
Note ON: Time 7200, Note Name: D#5, Velocity: 71
Note ON: Time 7440, Note Name: D#4, Velocity: 42
Note ON: Time 7440, Note Name: A#4, Velocity: 50
Note OFF: Time 7668, Note Name: A#4
Note OFF: Time 7668, Note Name: D#4
Note ON: Time 7680, Note Name: D#4, Velocity: 42
Note ON: Time 7680, Note Name: A#4, Velocity: 50
Note OFF: Time 7908, Note Name: A#4
Note OFF: Time 7908, Note Name: D#4
Note OFF: Time 7920, Note Name: D#5
Note ON: Time 7920, Note Name: F5, Velocity: 69
Note ON: Time 8160, Note Name: C#5, Velocity: 50
Note ON: Time 8160, Note Name: F4, Velocity: 42
Note OFF: Time 8388, Note Name: F4
Note OFF: Time 8388, Note Name: C#5
Note ON: Time 8400, Note Name: C#5, Velocity: 48
Note ON: Time 8400, Note Name: F4, Velocity: 40
Note OFF: Time 8628, Note Name: F4
Note OFF: Time 8628, Note Name: C#5
Note OFF: Time 8880, Note Name: F5
Note ON: Time 8880, Note Name: A#4, Velocity: 59
Note OFF: Time 9108, Note Name: A#4
Note ON: Time 9120, Note Name: D#5, Velocity: 63
Note ON: Time 9120, Note Name: D#4, Velocity: 49
Note ON: Time 9120, Note Name: A#4, Velocity: 49
Note OFF: Time 9348, Note Name: A#4
Note OFF: Time 9348, Note Name: D#4
Note OFF: Time 9348, Note Name: D#5
Note ON: Time 9360, Note Name: G5, Velocity: 64
Note ON: Time 9360, Note Name: A#4, Velocity: 52
Note OFF: Time 9588, Note Name: A#4
Note OFF: Time 9588, Note Name: G5
Note ON: Time 9600, Note Name: F5, Velocity: 61
Note ON: Time 9600, Note Name: A#4, Velocity: 47
Note OFF: Time 9828, Note Name: A#4
Note OFF: Time 9828, Note Name: F5
Note ON: Time 9840, Note Name: C#5, Velocity: 61
Note ON: Time 9840, Note Name: A#4, Velocity: 47
Note OFF: Time 10068, Note Name: A#4
Note OFF: Time 10068, Note Name: C#5
Note ON: Time 10080, Note Name: C5, Velocity: 70
Note ON: Time 10320, Note Name: D#4, Velocity: 37
Note ON: Time 10320, Note Name: A4, Velocity: 45
Note OFF: Time 10548, Note Name: A4
Note OFF: Time 10548, Note Name: D#4
Note ON: Time 10560, Note Name: D#4, Velocity: 37
Note ON: Time 10560, Note Name: A4, Velocity: 45
Note OFF: Time 10788, Note Name: A4
Note OFF: Time 10788, Note Name: D#4
Note OFF: Time 10800, Note Name: C5
Note ON: Time 10800, Note Name: C#5, Velocity: 58
Note ON: Time 11040, Note Name: G#4, Velocity: 35
Note ON: Time 11040, Note Name: C#4, Velocity: 29
Note OFF: Time 11268, Note Name: C#4
Note OFF: Time 11268, Note Name: G#4
Note ON: Time 11280, Note Name: G#4, Velocity: 34
Note ON: Time 11280, Note Name: C#4, Velocity: 28
Note OFF: Time 11508, Note Name: C#4
Note OFF: Time 11508, Note Name: G#4
Note OFF: Time 11760, Note Name: C#5
Note ON: Time 11760, Note Name: G#4, Velocity: 50
Note ON: Time 11760, Note Name: C#4, Velocity: 41
Note OFF: Time 11988, Note Name: C#4
Note OFF: Time 11988, Note Name: G#4
Note ON: Time 12000, Note Name: G4, Velocity: 41
Note ON: Time 12000, Note Name: C#4, Velocity: 34
Note ON: Time 12000, Note Name: A#4, Velocity: 53
Note OFF: Time 12228, Note Name: A#4
Note OFF: Time 12228, Note Name: C#4
Note OFF: Time 12228, Note Name: G4
Note ON: Time 12240, Note Name: C#5, Velocity: 57
Note OFF: Time 12468, Note Name: C#5
Note ON: Time 12480, Note Name: G#4, Velocity: 39
Note ON: Time 12480, Note Name: C4, Velocity: 33
Note ON: Time 12480, Note Name: C5, Velocity: 51
Note OFF: Time 12708, Note Name: C5
Note OFF: Time 12708, Note Name: C4
Note OFF: Time 12708, Note Name: G#4
Note ON: Time 12720, Note Name: G#4, Velocity: 46
Note ON: Time 12720, Note Name: C4, Velocity: 29
Note ON: Time 12720, Note Name: F4, Velocity: 35
Note OFF: Time 12948, Note Name: F4
Note OFF: Time 12948, Note Name: C4
Note OFF: Time 12948, Note Name: G#4
Note ON: Time 12960, Note Name: A#4, Velocity: 55
Note ON: Time 13200, Note Name: A#3, Velocity: 34
Note ON: Time 13200, Note Name: G4, Velocity: 40
Note OFF: Time 13428, Note Name: G4
Note OFF: Time 13428, Note Name: A#3
Note ON: Time 13440, Note Name: A#3, Velocity: 33
Note ON: Time 13440, Note Name: G4, Velocity: 39
Note OFF: Time 13668, Note Name: G4
Note OFF: Time 13668, Note Name: A#3
Note ON: Time 13680, Note Name: A#3, Velocity: 34
Note ON: Time 13680, Note Name: G4, Velocity: 40
Note OFF: Time 13908, Note Name: G4
Note OFF: Time 13908, Note Name: A#3
Note ON: Time 13920, Note Name: A#3, Velocity: 32
Note ON: Time 13920, Note Name: G4, Velocity: 38
Note OFF: Time 14148, Note Name: G4
Note OFF: Time 14148, Note Name: A#3
Note ON: Time 14160, Note Name: A#3, Velocity: 32
Note ON: Time 14160, Note Name: G4, Velocity: 38
Note OFF: Time 14388, Note Name: G4
Note OFF: Time 14388, Note Name: A#3
Note ON: Time 14400, Note Name: C#4, Velocity: 64
Note OFF: Time 14628, Note Name: C#4
Note OFF: Time 14640, Note Name: A#4
Note ON: Time 14640, Note Name: G4, Velocity: 68
Note ON: Time 14640, Note Name: C#4, Velocity: 52
Note OFF: Time 14868, Note Name: C#4
Note OFF: Time 14868, Note Name: G4
Note ON: Time 14880, Note Name: C#4, Velocity: 54
Note ON: Time 14880, Note Name: G4, Velocity: 54
Note ON: Time 14880, Note Name: C5, Velocity: 70
Note OFF: Time 15108, Note Name: C5
Note OFF: Time 15108, Note Name: G4
Note OFF: Time 15108, Note Name: C#4
Note ON: Time 15120, Note Name: C#5, Velocity: 72
Note ON: Time 15120, Note Name: G4, Velocity: 55
Note ON: Time 15120, Note Name: C#4, Velocity: 55
Note OFF: Time 15348, Note Name: C#4
Note OFF: Time 15348, Note Name: G4
Note OFF: Time 15348, Note Name: C#5
Note ON: Time 15360, Note Name: F4, Velocity: 69
Note ON: Time 15360, Note Name: C#4, Velocity: 53
Note OFF: Time 15588, Note Name: C#4
Note OFF: Time 15588, Note Name: F4
Note ON: Time 15600, Note Name: G4, Velocity: 68
Note ON: Time 15600, Note Name: C#4, Velocity: 52
Note OFF: Time 15828, Note Name: C#4
Note OFF: Time 15828, Note Name: G4
Note ON: Time 15840, Note Name: A#4, Velocity: 72
Note ON: Time 16080, Note Name: C4, Velocity: 37
Note ON: Time 16080, Note Name: F#4, Velocity: 44
Note OFF: Time 16308, Note Name: F#4
Note OFF: Time 16308, Note Name: C4
Note ON: Time 16320, Note Name: C4, Velocity: 37
Note ON: Time 16320, Note Name: F#4, Velocity: 44
Note OFF: Time 16548, Note Name: F#4
Note OFF: Time 16548, Note Name: C4
Note OFF: Time 16560, Note Name: A#4
Note ON: Time 16560, Note Name: G#4, Velocity: 73
Note ON: Time 16560, Note Name: C4, Velocity: 43
Note ON: Time 16560, Note Name: F#4, Velocity: 52
Note OFF: Time 16788, Note Name: F#4
Note OFF: Time 16788, Note Name: C4
Note ON: Time 16800, Note Name: F#4, Velocity: 44
Note ON: Time 16800, Note Name: C4, Velocity: 37
Note OFF: Time 17028, Note Name: C4
Note OFF: Time 17028, Note Name: F#4
Note ON: Time 17040, Note Name: F#4, Velocity: 44
Note ON: Time 17040, Note Name: C4, Velocity: 37
Note OFF: Time 17268, Note Name: C4
Note OFF: Time 17268, Note Name: F#4
Note OFF: Time 17520, Note Name: G#4
Note ON: Time 17520, Note Name: C#5, Velocity: 72
Note ON: Time 17520, Note Name: G#4, Velocity: 55
Note OFF: Time 17748, Note Name: G#4
Note OFF: Time 17748, Note Name: C#5
Note ON: Time 17760, Note Name: G#4, Velocity: 50
Note ON: Time 17760, Note Name: C#5, Velocity: 59
Note ON: Time 17760, Note Name: G5, Velocity: 75
Note OFF: Time 17988, Note Name: G5
Note OFF: Time 17988, Note Name: C#5
Note OFF: Time 17988, Note Name: G#4
Note ON: Time 18000, Note Name: C#5, Velocity: 62
Note ON: Time 18000, Note Name: A#5, Velocity: 80
Note ON: Time 18000, Note Name: G#4, Velocity: 52
Note OFF: Time 18228, Note Name: G#4
Note OFF: Time 18228, Note Name: A#5
Note OFF: Time 18228, Note Name: C#5
Note ON: Time 18240, Note Name: C#5, Velocity: 57
Note ON: Time 18240, Note Name: G#5, Velocity: 75
Note ON: Time 18240, Note Name: G#4, Velocity: 48
Note OFF: Time 18468, Note Name: G#4
Note OFF: Time 18468, Note Name: G#5
Note OFF: Time 18468, Note Name: C#5
Note ON: Time 18480, Note Name: G#4, Velocity: 48
Note ON: Time 18480, Note Name: C#5, Velocity: 57
Note ON: Time 18480, Note Name: F5, Velocity: 75
Note OFF: Time 18708, Note Name: F5
Note OFF: Time 18708, Note Name: C#5
Note OFF: Time 18708, Note Name: G#4
Note ON: Time 18720, Note Name: D#5, Velocity: 88
Note ON: Time 18960, Note Name: A#4, Velocity: 65
Note ON: Time 18960, Note Name: D#4, Velocity: 54
Note OFF: Time 19188, Note Name: D#4
Note OFF: Time 19188, Note Name: A#4
Note ON: Time 19200, Note Name: A#4, Velocity: 65
Note ON: Time 19200, Note Name: D#4, Velocity: 54
Note OFF: Time 19428, Note Name: D#4
Note OFF: Time 19428, Note Name: A#4
Note OFF: Time 19440, Note Name: D#5
Note ON: Time 19440, Note Name: F5, Velocity: 84
Note ON: Time 19680, Note Name: F4, Velocity: 54
Note ON: Time 19680, Note Name: C#5, Velocity: 65
Note OFF: Time 19908, Note Name: C#5
Note OFF: Time 19908, Note Name: F4
Note ON: Time 19920, Note Name: F4, Velocity: 52
Note ON: Time 19920, Note Name: C#5, Velocity: 62
Note OFF: Time 20148, Note Name: C#5
Note OFF: Time 20148, Note Name: F4
Note OFF: Time 20400, Note Name: F5
Note ON: Time 20400, Note Name: A#4, Velocity: 72
Note OFF: Time 20628, Note Name: A#4
Note ON: Time 20640, Note Name: A#4, Velocity: 59
Note ON: Time 20640, Note Name: D#4, Velocity: 51
Note ON: Time 20640, Note Name: D#5, Velocity: 75
Note OFF: Time 20868, Note Name: D#5
Note OFF: Time 20868, Note Name: D#4
Note OFF: Time 20868, Note Name: A#4
Note ON: Time 20880, Note Name: A#4, Velocity: 64
Note ON: Time 20880, Note Name: G5, Velocity: 80
Note OFF: Time 21108, Note Name: G5
Note OFF: Time 21108, Note Name: A#4
Note ON: Time 21120, Note Name: A#4, Velocity: 57
Note ON: Time 21120, Note Name: F5, Velocity: 75
Note OFF: Time 21348, Note Name: F5
Note OFF: Time 21348, Note Name: A#4
Note ON: Time 21360, Note Name: D#4, Velocity: 51
Note ON: Time 21360, Note Name: C#5, Velocity: 75
Note ON: Time 21360, Note Name: A#4, Velocity: 57
Note OFF: Time 21588, Note Name: A#4
Note OFF: Time 21588, Note Name: C#5
Note OFF: Time 21588, Note Name: D#4
Note ON: Time 21600, Note Name: C5, Velocity: 81
Note ON: Time 21840, Note Name: D#4, Velocity: 49
Note ON: Time 21840, Note Name: A4, Velocity: 58
Note OFF: Time 22068, Note Name: A4
Note OFF: Time 22068, Note Name: D#4
Note ON: Time 22080, Note Name: D#4, Velocity: 49
Note ON: Time 22080, Note Name: A4, Velocity: 58
Note OFF: Time 22308, Note Name: A4
Note OFF: Time 22308, Note Name: D#4
Note OFF: Time 22320, Note Name: C5
Note ON: Time 22320, Note Name: C#5, Velocity: 81
Note ON: Time 22560, Note Name: G#4, Velocity: 56
Note ON: Time 22560, Note Name: C#4, Velocity: 47
Note OFF: Time 22788, Note Name: C#4
Note OFF: Time 22788, Note Name: G#4
Note ON: Time 22800, Note Name: G#4, Velocity: 53
Note ON: Time 22800, Note Name: C#4, Velocity: 44
Note OFF: Time 23028, Note Name: C#4
Note OFF: Time 23028, Note Name: G#4
Note OFF: Time 23280, Note Name: C#5
Note ON: Time 23280, Note Name: C#4, Velocity: 64
Note OFF: Time 23508, Note Name: C#4
Note ON: Time 23520, Note Name: C#4, Velocity: 45
Note ON: Time 23520, Note Name: G#4, Velocity: 68
Note OFF: Time 23748, Note Name: G#4
Note OFF: Time 23748, Note Name: C#4
Note ON: Time 23760, Note Name: C5, Velocity: 57
Note OFF: Time 23988, Note Name: C5
Note ON: Time 24000, Note Name: G4, Velocity: 43
Note ON: Time 24000, Note Name: C#4, Velocity: 35
Note ON: Time 24000, Note Name: A#4, Velocity: 57
Note OFF: Time 24228, Note Name: C#4
Note OFF: Time 24228, Note Name: G4
Note ON: Time 24240, Note Name: C#4, Velocity: 28
Note ON: Time 24240, Note Name: G4, Velocity: 34
Note OFF: Time 24360, Note Name: A#4
Note ON: Time 24360, Note Name: G#4, Velocity: 51
Note OFF: Time 24468, Note Name: G4
Note OFF: Time 24468, Note Name: C#4
Note OFF: Time 24480, Note Name: G#4
Note ON: Time 24480, Note Name: G#4, Velocity: 56
Note ON: Time 24720, Note Name: C4, Velocity: 39
Note OFF: Time 24948, Note Name: C4
Note ON: Time 24960, Note Name: C4, Velocity: 38
Note OFF: Time 25188, Note Name: C4
Note ON: Time 25200, Note Name: C4, Velocity: 39
Note OFF: Time 25428, Note Name: C4
Note ON: Time 25440, Note Name: C4, Velocity: 37
Note OFF: Time 25668, Note Name: C4
Note ON: Time 25680, Note Name: C4, Velocity: 37
Note OFF: Time 25908, Note Name: C4
Note OFF: Time 25920, Note Name: G#4
Note ON: Time 25920, Note Name: G#4, Velocity: 52
Note ON: Time 26160, Note Name: G#3, Velocity: 26
Note ON: Time 26160, Note Name: D4, Velocity: 34
Note OFF: Time 26388, Note Name: D4
Note OFF: Time 26388, Note Name: G#3
Note ON: Time 26400, Note Name: G#3, Velocity: 26
Note ON: Time 26400, Note Name: D4, Velocity: 34
Note OFF: Time 26628, Note Name: D4
Note OFF: Time 26628, Note Name: G#3
Note OFF: Time 26640, Note Name: G#4
Note ON: Time 26640, Note Name: G#4, Velocity: 51
Note ON: Time 26640, Note Name: G#3, Velocity: 26
Note ON: Time 26640, Note Name: D4, Velocity: 34
Note OFF: Time 26868, Note Name: D4
Note OFF: Time 26868, Note Name: G#3
Note OFF: Time 26868, Note Name: G#4
Note ON: Time 26880, Note Name: D4, Velocity: 34
Note ON: Time 26880, Note Name: G#3, Velocity: 26
Note ON: Time 26880, Note Name: F#4, Velocity: 49
Note OFF: Time 27108, Note Name: F#4
Note OFF: Time 27108, Note Name: G#3
Note OFF: Time 27108, Note Name: D4
Note ON: Time 27120, Note Name: G#3, Velocity: 22
Note ON: Time 27120, Note Name: E4, Velocity: 49
Note ON: Time 27120, Note Name: D4, Velocity: 28
Note OFF: Time 27348, Note Name: D4
Note OFF: Time 27348, Note Name: E4
Note OFF: Time 27348, Note Name: G#3
Note ON: Time 27360, Note Name: C#5, Velocity: 62
Note ON: Time 27600, Note Name: C#4, Velocity: 40
Note ON: Time 27600, Note Name: A4, Velocity: 48
Note OFF: Time 27828, Note Name: A4
Note OFF: Time 27828, Note Name: C#4
Note ON: Time 27840, Note Name: C#4, Velocity: 42
Note ON: Time 27840, Note Name: A4, Velocity: 50
Note OFF: Time 28068, Note Name: A4
Note OFF: Time 28068, Note Name: C#4
Note ON: Time 28080, Note Name: C#4, Velocity: 44
Note ON: Time 28080, Note Name: A4, Velocity: 53
Note OFF: Time 28308, Note Name: A4
Note OFF: Time 28308, Note Name: C#4
Note ON: Time 28320, Note Name: C#4, Velocity: 47
Note ON: Time 28320, Note Name: A4, Velocity: 56
Note OFF: Time 28548, Note Name: A4
Note OFF: Time 28548, Note Name: C#4
Note ON: Time 28560, Note Name: C#4, Velocity: 49
Note ON: Time 28560, Note Name: A4, Velocity: 59
Note OFF: Time 28788, Note Name: A4
Note OFF: Time 28788, Note Name: C#4
Note OFF: Time 28800, Note Name: C#5
Note ON: Time 28800, Note Name: C#5, Velocity: 79
Note ON: Time 29040, Note Name: G#4, Velocity: 51
Note ON: Time 29040, Note Name: C#4, Velocity: 39
Note OFF: Time 29268, Note Name: C#4
Note OFF: Time 29268, Note Name: G#4
Note ON: Time 29280, Note Name: C4, Velocity: 33
Note ON: Time 29280, Note Name: C5, Velocity: 67
Note ON: Time 29280, Note Name: G#4, Velocity: 42
Note OFF: Time 29508, Note Name: G#4
Note OFF: Time 29508, Note Name: C5
Note OFF: Time 29508, Note Name: C4
Note OFF: Time 29520, Note Name: C#5
Note ON: Time 29520, Note Name: C4, Velocity: 39
Note ON: Time 29520, Note Name: C5, Velocity: 70
Note ON: Time 29520, Note Name: G#4, Velocity: 48
Note OFF: Time 29748, Note Name: G#4
Note OFF: Time 29748, Note Name: C5
Note OFF: Time 29748, Note Name: C4
Note ON: Time 29760, Note Name: A#4, Velocity: 69
Note ON: Time 29760, Note Name: C4, Velocity: 49
Note OFF: Time 29988, Note Name: C4
Note OFF: Time 29988, Note Name: A#4
Note ON: Time 30000, Note Name: G#4, Velocity: 70
Note ON: Time 30000, Note Name: C4, Velocity: 39
Note OFF: Time 30228, Note Name: C4
Note OFF: Time 30228, Note Name: G#4
Note ON: Time 30240, Note Name: E5, Velocity: 72
Note ON: Time 30480, Note Name: E4, Velocity: 44
Note ON: Time 30480, Note Name: C#5, Velocity: 52
Note OFF: Time 30708, Note Name: C#5
Note OFF: Time 30708, Note Name: E4
Note ON: Time 30720, Note Name: E4, Velocity: 45
Note ON: Time 30720, Note Name: C#5, Velocity: 54
Note OFF: Time 30948, Note Name: C#5
Note OFF: Time 30948, Note Name: E4
Note ON: Time 30960, Note Name: E4, Velocity: 47
Note ON: Time 30960, Note Name: C#5, Velocity: 58
Note OFF: Time 31188, Note Name: C#5
Note OFF: Time 31188, Note Name: E4
Note ON: Time 31200, Note Name: E4, Velocity: 52
Note ON: Time 31200, Note Name: C#5, Velocity: 61
Note OFF: Time 31428, Note Name: C#5
Note OFF: Time 31428, Note Name: E4
Note ON: Time 31440, Note Name: E4, Velocity: 54
Note ON: Time 31440, Note Name: C5, Velocity: 64
Note OFF: Time 31668, Note Name: C5
Note OFF: Time 31668, Note Name: E4
Note OFF: Time 31680, Note Name: E5
Note ON: Time 31680, Note Name: E5, Velocity: 82
Note ON: Time 31920, Note Name: B4, Velocity: 53
Note ON: Time 31920, Note Name: E4, Velocity: 40
Note OFF: Time 32148, Note Name: E4
Note OFF: Time 32148, Note Name: B4
Note ON: Time 32160, Note Name: B4, Velocity: 53
Note ON: Time 32160, Note Name: D#5, Velocity: 75
Note OFF: Time 32388, Note Name: D#5
Note OFF: Time 32388, Note Name: B4
Note OFF: Time 32400, Note Name: E5
Note ON: Time 32400, Note Name: D#5, Velocity: 80
Note ON: Time 32400, Note Name: B4, Velocity: 53
Note OFF: Time 32628, Note Name: B4
Note OFF: Time 32628, Note Name: D#5
Note ON: Time 32640, Note Name: C#5, Velocity: 77
Note ON: Time 32640, Note Name: B4, Velocity: 53
Note OFF: Time 32868, Note Name: B4
Note OFF: Time 32868, Note Name: C#5
Note ON: Time 32880, Note Name: B4, Velocity: 77
Note OFF: Time 33108, Note Name: B4
Note ON: Time 33120, Note Name: G#5, Velocity: 84
Note ON: Time 33360, Note Name: D5, Velocity: 56
Note ON: Time 33360, Note Name: G#4, Velocity: 42
Note OFF: Time 33588, Note Name: G#4
Note OFF: Time 33588, Note Name: D5
Note OFF: Time 33600, Note Name: G#5
Note ON: Time 33600, Note Name: D5, Velocity: 57
Note ON: Time 33600, Note Name: G#5, Velocity: 73
Note ON: Time 33600, Note Name: G#4, Velocity: 46
Note OFF: Time 33828, Note Name: G#4
Note OFF: Time 33828, Note Name: G#5
Note OFF: Time 33828, Note Name: D5
Note ON: Time 33840, Note Name: G#5, Velocity: 77
Note OFF: Time 34068, Note Name: G#5
Note ON: Time 34080, Note Name: D#5, Velocity: 46
Note ON: Time 34080, Note Name: G4, Velocity: 45
Note ON: Time 34080, Note Name: G5, Velocity: 70
Note OFF: Time 34308, Note Name: G5
Note OFF: Time 34308, Note Name: G4
Note OFF: Time 34308, Note Name: D#5
Note ON: Time 34320, Note Name: G4, Velocity: 47
Note ON: Time 34320, Note Name: D#5, Velocity: 68
Note OFF: Time 34548, Note Name: D#5
Note OFF: Time 34548, Note Name: G4
Note ON: Time 34560, Note Name: F#5, Velocity: 61
Note ON: Time 34800, Note Name: C5, Velocity: 39
Note ON: Time 34800, Note Name: F#4, Velocity: 30
Note OFF: Time 35028, Note Name: F#4
Note OFF: Time 35028, Note Name: C5
Note OFF: Time 35040, Note Name: F#5
Note ON: Time 35040, Note Name: C5, Velocity: 45
Note ON: Time 35040, Note Name: F#4, Velocity: 36
Note ON: Time 35040, Note Name: F#5, Velocity: 55
Note OFF: Time 35268, Note Name: F#5
Note OFF: Time 35268, Note Name: F#4
Note OFF: Time 35268, Note Name: C5
Note ON: Time 35280, Note Name: F#5, Velocity: 59
Note OFF: Time 35508, Note Name: F#5
Note ON: Time 35520, Note Name: C#5, Velocity: 36
Note ON: Time 35520, Note Name: F4, Velocity: 36
Note ON: Time 35520, Note Name: F5, Velocity: 54
Note OFF: Time 35748, Note Name: F5
Note OFF: Time 35748, Note Name: F4
Note OFF: Time 35748, Note Name: C#5
Note ON: Time 35760, Note Name: F4, Velocity: 36
Note ON: Time 35760, Note Name: C#5, Velocity: 52
Note OFF: Time 35988, Note Name: C#5
Note OFF: Time 35988, Note Name: F4
Note ON: Time 36000, Note Name: E5, Velocity: 58
Note OFF: Time 36228, Note Name: E5
Note ON: Time 36240, Note Name: D#4, Velocity: 28
Note ON: Time 36240, Note Name: D#5, Velocity: 53
Note ON: Time 36240, Note Name: A#4, Velocity: 35
Note OFF: Time 36468, Note Name: A#4
Note OFF: Time 36468, Note Name: D#5
Note OFF: Time 36468, Note Name: D#4
Note ON: Time 36480, Note Name: E4, Velocity: 35
Note ON: Time 36480, Note Name: E5, Velocity: 53
Note ON: Time 36480, Note Name: A#4, Velocity: 44
Note OFF: Time 36708, Note Name: A#4
Note OFF: Time 36708, Note Name: E5
Note OFF: Time 36708, Note Name: E4
Note ON: Time 36720, Note Name: G#5, Velocity: 56
Note ON: Time 36960, Note Name: G#4, Velocity: 36
Note ON: Time 36960, Note Name: E5, Velocity: 36
Note OFF: Time 37188, Note Name: E5
Note OFF: Time 37188, Note Name: G#4
Note OFF: Time 37200, Note Name: G#5
Note ON: Time 37200, Note Name: F#5, Velocity: 52
Note ON: Time 37200, Note Name: B4, Velocity: 44
Note ON: Time 37200, Note Name: F#4, Velocity: 36
Note OFF: Time 37428, Note Name: F#4
Note OFF: Time 37428, Note Name: B4
Note OFF: Time 37428, Note Name: F#5
Note ON: Time 37440, Note Name: E5, Velocity: 55
Note ON: Time 37680, Note Name: E4, Velocity: 29
Note ON: Time 37680, Note Name: B4, Velocity: 35
Note OFF: Time 37908, Note Name: B4
Note OFF: Time 37908, Note Name: E4
Note ON: Time 37920, Note Name: E4, Velocity: 30
Note ON: Time 37920, Note Name: B4, Velocity: 36
Note OFF: Time 38148, Note Name: B4
Note OFF: Time 38148, Note Name: E4
Note ON: Time 38160, Note Name: E4, Velocity: 31
Note ON: Time 38160, Note Name: B4, Velocity: 37
Note OFF: Time 38388, Note Name: B4
Note OFF: Time 38388, Note Name: E4
Note ON: Time 38400, Note Name: E4, Velocity: 32
Note ON: Time 38400, Note Name: B4, Velocity: 39
Note OFF: Time 38628, Note Name: B4
Note OFF: Time 38628, Note Name: E4
Note ON: Time 38640, Note Name: E4, Velocity: 33
Note ON: Time 38640, Note Name: B4, Velocity: 40
Note OFF: Time 38868, Note Name: B4
Note OFF: Time 38868, Note Name: E4
Note OFF: Time 39120, Note Name: E5
Note ON: Time 39120, Note Name: E5, Velocity: 60
Note ON: Time 39120, Note Name: C5, Velocity: 46
Note ON: Time 39120, Note Name: E4, Velocity: 46
Note OFF: Time 39348, Note Name: E4
Note OFF: Time 39348, Note Name: C5
Note OFF: Time 39348, Note Name: E5
Note ON: Time 39360, Note Name: D#4, Velocity: 44
Note ON: Time 39360, Note Name: D#5, Velocity: 57
Note ON: Time 39360, Note Name: C5, Velocity: 44
Note OFF: Time 39588, Note Name: C5
Note OFF: Time 39588, Note Name: D#5
Note OFF: Time 39588, Note Name: D#4
Note ON: Time 39600, Note Name: F#4, Velocity: 50
Note ON: Time 39600, Note Name: F#5, Velocity: 64
Note ON: Time 39600, Note Name: C5, Velocity: 50
Note OFF: Time 39828, Note Name: C5
Note OFF: Time 39828, Note Name: F#5
Note OFF: Time 39828, Note Name: F#4
Note ON: Time 39840, Note Name: E4, Velocity: 45
Note ON: Time 39840, Note Name: C5, Velocity: 45
Note ON: Time 39840, Note Name: E5, Velocity: 58
Note OFF: Time 40068, Note Name: E5
Note OFF: Time 40068, Note Name: C5
Note OFF: Time 40068, Note Name: E4
Note ON: Time 40080, Note Name: E4, Velocity: 45
Note ON: Time 40080, Note Name: C5, Velocity: 59
Note OFF: Time 40308, Note Name: C5
Note OFF: Time 40308, Note Name: E4
Note ON: Time 40320, Note Name: E5, Velocity: 62
Note ON: Time 40560, Note Name: B4, Velocity: 39
Note ON: Time 40560, Note Name: E4, Velocity: 33
Note OFF: Time 40788, Note Name: E4
Note OFF: Time 40788, Note Name: B4
Note ON: Time 40800, Note Name: B4, Velocity: 40
Note ON: Time 40800, Note Name: E4, Velocity: 34
Note OFF: Time 41028, Note Name: E4
Note OFF: Time 41028, Note Name: B4
Note ON: Time 41040, Note Name: B4, Velocity: 42
Note ON: Time 41040, Note Name: E4, Velocity: 35
Note OFF: Time 41268, Note Name: E4
Note OFF: Time 41268, Note Name: B4
Note ON: Time 41280, Note Name: B4, Velocity: 44
Note ON: Time 41280, Note Name: E4, Velocity: 36
Note OFF: Time 41508, Note Name: E4
Note OFF: Time 41508, Note Name: B4
Note ON: Time 41520, Note Name: B4, Velocity: 45
Note ON: Time 41520, Note Name: E4, Velocity: 37
Note OFF: Time 41748, Note Name: E4
Note OFF: Time 41748, Note Name: B4
Note OFF: Time 42000, Note Name: E5
Note ON: Time 42000, Note Name: E4, Velocity: 46
Note ON: Time 42000, Note Name: C5, Velocity: 46
Note ON: Time 42000, Note Name: E5, Velocity: 60
Note OFF: Time 42228, Note Name: E5
Note OFF: Time 42228, Note Name: C5
Note OFF: Time 42228, Note Name: E4
Note ON: Time 42240, Note Name: C5, Velocity: 44
Note ON: Time 42240, Note Name: D#5, Velocity: 57
Note ON: Time 42240, Note Name: D#4, Velocity: 44
Note OFF: Time 42468, Note Name: D#4
Note OFF: Time 42468, Note Name: D#5
Note OFF: Time 42468, Note Name: C5
Note ON: Time 42480, Note Name: C5, Velocity: 50
Note ON: Time 42480, Note Name: F#4, Velocity: 50
Note ON: Time 42480, Note Name: F#5, Velocity: 64
Note OFF: Time 42708, Note Name: F#5
Note OFF: Time 42708, Note Name: F#4
Note OFF: Time 42708, Note Name: C5
Note ON: Time 42720, Note Name: C5, Velocity: 45
Note ON: Time 42720, Note Name: E5, Velocity: 58
Note ON: Time 42720, Note Name: E4, Velocity: 45
Note OFF: Time 42948, Note Name: E4
Note OFF: Time 42948, Note Name: E5
Note OFF: Time 42948, Note Name: C5
Note ON: Time 42960, Note Name: C5, Velocity: 59
Note ON: Time 42960, Note Name: E4, Velocity: 45
Note OFF: Time 43188, Note Name: E4
Note OFF: Time 43188, Note Name: C5
Note ON: Time 43200, Note Name: E5, Velocity: 62
Note ON: Time 43440, Note Name: E4, Velocity: 33
Note ON: Time 43440, Note Name: B4, Velocity: 39
Note OFF: Time 43668, Note Name: B4
Note OFF: Time 43668, Note Name: E4
Note ON: Time 43680, Note Name: E4, Velocity: 34
Note ON: Time 43680, Note Name: B4, Velocity: 40
Note OFF: Time 43908, Note Name: B4
Note OFF: Time 43908, Note Name: E4
Note ON: Time 43920, Note Name: E4, Velocity: 35
Note ON: Time 43920, Note Name: B4, Velocity: 42
Note OFF: Time 44148, Note Name: B4
Note OFF: Time 44148, Note Name: E4
Note ON: Time 44160, Note Name: E4, Velocity: 36
Note ON: Time 44160, Note Name: B4, Velocity: 44
Note OFF: Time 44388, Note Name: B4
Note OFF: Time 44388, Note Name: E4
Note ON: Time 44400, Note Name: E4, Velocity: 37
Note ON: Time 44400, Note Name: B4, Velocity: 45
Note OFF: Time 44628, Note Name: B4
Note OFF: Time 44628, Note Name: E4
Note ON: Time 44640, Note Name: E4, Velocity: 35
Note ON: Time 44640, Note Name: B4, Velocity: 42
Note OFF: Time 44868, Note Name: B4
Note OFF: Time 44868, Note Name: E4
Note ON: Time 44880, Note Name: E4, Velocity: 33
Note ON: Time 44880, Note Name: B4, Velocity: 39
Note OFF: Time 45108, Note Name: B4
Note OFF: Time 45108, Note Name: E4
Note ON: Time 45120, Note Name: E4, Velocity: 35
Note ON: Time 45120, Note Name: B4, Velocity: 41
Note OFF: Time 45348, Note Name: B4
Note OFF: Time 45348, Note Name: E4
Note OFF: Time 45360, Note Name: E5
Note ON: Time 45360, Note Name: B4, Velocity: 49
Note ON: Time 45360, Note Name: D#5, Velocity: 64
Note ON: Time 45360, Note Name: D#4, Velocity: 40
Note OFF: Time 45588, Note Name: D#4
Note OFF: Time 45588, Note Name: B4
Note ON: Time 45600, Note Name: B4, Velocity: 51
Note ON: Time 45600, Note Name: D#4, Velocity: 43
Note OFF: Time 45828, Note Name: D#4
Note OFF: Time 45828, Note Name: B4
Note OFF: Time 45840, Note Name: D#5
Note ON: Time 45840, Note Name: D#4, Velocity: 45
Note ON: Time 45840, Note Name: D#5, Velocity: 67
Note ON: Time 45840, Note Name: B4, Velocity: 54
Note OFF: Time 46068, Note Name: B4
Note OFF: Time 46068, Note Name: D#5
Note OFF: Time 46068, Note Name: D#4
Note ON: Time 46080, Note Name: B4, Velocity: 51
Note ON: Time 46080, Note Name: D#5, Velocity: 71
Note ON: Time 46080, Note Name: D#4, Velocity: 42
Note OFF: Time 46308, Note Name: D#4
Note OFF: Time 46308, Note Name: B4
Note ON: Time 46320, Note Name: B4, Velocity: 48
Note ON: Time 46320, Note Name: D#4, Velocity: 40
Note OFF: Time 46548, Note Name: D#4
Note OFF: Time 46548, Note Name: B4
Note ON: Time 46560, Note Name: B4, Velocity: 50
Note ON: Time 46560, Note Name: D#4, Velocity: 42
Note OFF: Time 46788, Note Name: D#4
Note OFF: Time 46788, Note Name: B4
Note ON: Time 46800, Note Name: B4, Velocity: 53
Note ON: Time 46800, Note Name: D#4, Velocity: 44
Note OFF: Time 47028, Note Name: D#4
Note OFF: Time 47028, Note Name: B4
Note ON: Time 47040, Note Name: B4, Velocity: 56
Note ON: Time 47040, Note Name: D#4, Velocity: 47
Note OFF: Time 47268, Note Name: D#4
Note OFF: Time 47268, Note Name: B4
Note ON: Time 47280, Note Name: B4, Velocity: 59
Note ON: Time 47280, Note Name: D#4, Velocity: 49
Note OFF: Time 47508, Note Name: D#4
Note OFF: Time 47508, Note Name: B4
Note OFF: Time 47520, Note Name: D#5
Note ON: Time 47520, Note Name: D4, Velocity: 39
Note ON: Time 47520, Note Name: D5, Velocity: 78
Note ON: Time 47520, Note Name: B4, Velocity: 56
Note OFF: Time 47748, Note Name: B4
Note OFF: Time 47748, Note Name: D4
Note ON: Time 47760, Note Name: B4, Velocity: 60
Note ON: Time 47760, Note Name: G#4, Velocity: 60
Note ON: Time 47760, Note Name: D4, Velocity: 51
Note OFF: Time 47988, Note Name: D4
Note OFF: Time 47988, Note Name: G#4
Note OFF: Time 47988, Note Name: B4
Note ON: Time 48000, Note Name: D4, Velocity: 53
Note ON: Time 48000, Note Name: G#4, Velocity: 63
Note ON: Time 48000, Note Name: B4, Velocity: 63
Note OFF: Time 48228, Note Name: B4
Note OFF: Time 48228, Note Name: G#4
Note OFF: Time 48228, Note Name: D4
Note ON: Time 48240, Note Name: G#4, Velocity: 67
Note ON: Time 48240, Note Name: B4, Velocity: 67
Note ON: Time 48240, Note Name: D4, Velocity: 56
Note OFF: Time 48468, Note Name: D4
Note OFF: Time 48468, Note Name: B4
Note OFF: Time 48468, Note Name: G#4
Note ON: Time 48480, Note Name: D4, Velocity: 59
Note ON: Time 48480, Note Name: G#4, Velocity: 69
Note ON: Time 48480, Note Name: B4, Velocity: 69
Note OFF: Time 48708, Note Name: B4
Note OFF: Time 48708, Note Name: G#4
Note OFF: Time 48708, Note Name: D4
Note ON: Time 48720, Note Name: B4, Velocity: 73
Note ON: Time 48720, Note Name: G#4, Velocity: 73
Note ON: Time 48720, Note Name: D4, Velocity: 61
Note OFF: Time 48948, Note Name: D4
Note OFF: Time 48948, Note Name: G#4
Note OFF: Time 48948, Note Name: B4
Note OFF: Time 48960, Note Name: D5
Note ON: Time 48960, Note Name: G4, Velocity: 81
Note ON: Time 48960, Note Name: C#4, Velocity: 74
Note OFF: Time 49188, Note Name: C#4
Note OFF: Time 49188, Note Name: G4
Note ON: Time 49200, Note Name: G4, Velocity: 78
Note ON: Time 49200, Note Name: C#4, Velocity: 59
Note OFF: Time 49428, Note Name: C#4
Note OFF: Time 49428, Note Name: G4
Note ON: Time 49440, Note Name: G4, Velocity: 62
Note ON: Time 49440, Note Name: C5, Velocity: 80
Note ON: Time 49440, Note Name: C#4, Velocity: 62
Note OFF: Time 49668, Note Name: C#4
Note OFF: Time 49668, Note Name: C5
Note OFF: Time 49668, Note Name: G4
Note ON: Time 49680, Note Name: C#4, Velocity: 63
Note ON: Time 49680, Note Name: G4, Velocity: 63
Note ON: Time 49680, Note Name: C#5, Velocity: 82
Note OFF: Time 49908, Note Name: C#5
Note OFF: Time 49908, Note Name: G4
Note OFF: Time 49908, Note Name: C#4
Note ON: Time 49920, Note Name: C#4, Velocity: 60
Note ON: Time 49920, Note Name: F4, Velocity: 79
Note OFF: Time 50148, Note Name: F4
Note OFF: Time 50148, Note Name: C#4
Note ON: Time 50160, Note Name: C#4, Velocity: 59
Note ON: Time 50160, Note Name: G4, Velocity: 78
Note OFF: Time 50388, Note Name: G4
Note OFF: Time 50388, Note Name: C#4
Note ON: Time 50400, Note Name: A#4, Velocity: 86
Note ON: Time 50640, Note Name: F#4, Velocity: 50
Note ON: Time 50640, Note Name: C4, Velocity: 42
Note OFF: Time 50868, Note Name: C4
Note OFF: Time 50868, Note Name: F#4
Note ON: Time 50880, Note Name: F#4, Velocity: 50
Note ON: Time 50880, Note Name: C4, Velocity: 42
Note OFF: Time 51108, Note Name: C4
Note OFF: Time 51108, Note Name: F#4
Note OFF: Time 51120, Note Name: A#4
Note ON: Time 51120, Note Name: F#4, Velocity: 59
Note ON: Time 51120, Note Name: C4, Velocity: 49
Note ON: Time 51120, Note Name: G#4, Velocity: 84
Note OFF: Time 51348, Note Name: C4
Note OFF: Time 51348, Note Name: F#4
Note ON: Time 51360, Note Name: C4, Velocity: 42
Note ON: Time 51360, Note Name: F#4, Velocity: 50
Note OFF: Time 51588, Note Name: F#4
Note OFF: Time 51588, Note Name: C4
Note ON: Time 51600, Note Name: C4, Velocity: 42
Note ON: Time 51600, Note Name: F#4, Velocity: 50
Note OFF: Time 51828, Note Name: F#4
Note OFF: Time 51828, Note Name: C4
Note OFF: Time 52080, Note Name: G#4
Note ON: Time 52080, Note Name: G#4, Velocity: 63
Note ON: Time 52080, Note Name: C#5, Velocity: 82
Note OFF: Time 52308, Note Name: C#5
Note OFF: Time 52308, Note Name: G#4
Note ON: Time 52320, Note Name: C#5, Velocity: 67
Note ON: Time 52320, Note Name: G5, Velocity: 86
Note ON: Time 52320, Note Name: G#4, Velocity: 57
Note OFF: Time 52548, Note Name: G#4
Note OFF: Time 52548, Note Name: G5
Note OFF: Time 52548, Note Name: C#5
Note ON: Time 52560, Note Name: G#4, Velocity: 59
Note ON: Time 52560, Note Name: C#5, Velocity: 71
Note ON: Time 52560, Note Name: A#5, Velocity: 91
Note OFF: Time 52788, Note Name: A#5
Note OFF: Time 52788, Note Name: C#5
Note OFF: Time 52788, Note Name: G#4
Note ON: Time 52800, Note Name: G#5, Velocity: 86
Note ON: Time 52800, Note Name: C#5, Velocity: 65
Note ON: Time 52800, Note Name: G#4, Velocity: 55
Note OFF: Time 53028, Note Name: G#4
Note OFF: Time 53028, Note Name: C#5
Note OFF: Time 53028, Note Name: G#5
Note ON: Time 53040, Note Name: G#4, Velocity: 55
Note ON: Time 53040, Note Name: C#5, Velocity: 65
Note ON: Time 53040, Note Name: F5, Velocity: 86
Note OFF: Time 53268, Note Name: F5
Note OFF: Time 53268, Note Name: C#5
Note OFF: Time 53268, Note Name: G#4
Note ON: Time 53280, Note Name: D#5, Velocity: 101
Note ON: Time 53520, Note Name: A#4, Velocity: 74
Note ON: Time 53520, Note Name: D#4, Velocity: 62
Note OFF: Time 53748, Note Name: D#4
Note OFF: Time 53748, Note Name: A#4
Note ON: Time 53760, Note Name: A#4, Velocity: 74
Note ON: Time 53760, Note Name: D#4, Velocity: 62
Note OFF: Time 53988, Note Name: D#4
Note OFF: Time 53988, Note Name: A#4
Note OFF: Time 54000, Note Name: D#5
Note ON: Time 54000, Note Name: F5, Velocity: 96
Note ON: Time 54240, Note Name: F4, Velocity: 62
Note ON: Time 54240, Note Name: C#5, Velocity: 74
Note OFF: Time 54468, Note Name: C#5
Note OFF: Time 54468, Note Name: F4
Note ON: Time 54480, Note Name: F4, Velocity: 59
Note ON: Time 54480, Note Name: C#5, Velocity: 71
Note OFF: Time 54708, Note Name: C#5
Note OFF: Time 54708, Note Name: F4
Note OFF: Time 54960, Note Name: F5
Note ON: Time 54960, Note Name: A#4, Velocity: 82
Note OFF: Time 55188, Note Name: A#4
Note ON: Time 55200, Note Name: A#4, Velocity: 67
Note ON: Time 55200, Note Name: D#4, Velocity: 58
Note ON: Time 55200, Note Name: D#5, Velocity: 86
Note OFF: Time 55428, Note Name: D#5
Note OFF: Time 55428, Note Name: D#4
Note OFF: Time 55428, Note Name: A#4
Note ON: Time 55440, Note Name: A#4, Velocity: 69
Note ON: Time 55440, Note Name: G5, Velocity: 89
Note OFF: Time 55668, Note Name: G5
Note OFF: Time 55668, Note Name: A#4
Note ON: Time 55680, Note Name: A#4, Velocity: 65
Note ON: Time 55680, Note Name: F5, Velocity: 86
Note OFF: Time 55908, Note Name: F5
Note OFF: Time 55908, Note Name: A#4
Note ON: Time 55920, Note Name: C#5, Velocity: 86
Note ON: Time 55920, Note Name: D#4, Velocity: 38
Note ON: Time 55920, Note Name: A#4, Velocity: 65
Note OFF: Time 56148, Note Name: A#4
Note OFF: Time 56148, Note Name: D#4
Note OFF: Time 56148, Note Name: C#5
Note ON: Time 56160, Note Name: C5, Velocity: 96
Note ON: Time 56400, Note Name: D#4, Velocity: 56
Note ON: Time 56400, Note Name: A4, Velocity: 66
Note OFF: Time 56628, Note Name: A4
Note OFF: Time 56628, Note Name: D#4
Note ON: Time 56640, Note Name: D#4, Velocity: 56
Note ON: Time 56640, Note Name: A4, Velocity: 66
Note OFF: Time 56868, Note Name: A4
Note OFF: Time 56868, Note Name: D#4
Note OFF: Time 56880, Note Name: C5
Note ON: Time 56880, Note Name: C#5, Velocity: 95
Note ON: Time 57120, Note Name: G#4, Velocity: 64
Note ON: Time 57120, Note Name: C#4, Velocity: 54
Note OFF: Time 57348, Note Name: C#4
Note OFF: Time 57348, Note Name: G#4
Note ON: Time 57360, Note Name: G#4, Velocity: 61
Note ON: Time 57360, Note Name: C#4, Velocity: 50
Note OFF: Time 57588, Note Name: C#4
Note OFF: Time 57588, Note Name: G#4
Note OFF: Time 57840, Note Name: C#5
Note ON: Time 57840, Note Name: G#4, Velocity: 66
Note ON: Time 57840, Note Name: C#4, Velocity: 54
Note OFF: Time 58068, Note Name: C#4
Note OFF: Time 58068, Note Name: G#4
Note ON: Time 58080, Note Name: C#4, Velocity: 45
Note ON: Time 58080, Note Name: G4, Velocity: 45
Note ON: Time 58080, Note Name: A#4, Velocity: 69
Note OFF: Time 58308, Note Name: A#4
Note OFF: Time 58308, Note Name: G4
Note OFF: Time 58308, Note Name: C#4
Note ON: Time 58320, Note Name: C#4, Velocity: 54
Note ON: Time 58320, Note Name: C#5, Velocity: 69
Note ON: Time 58320, Note Name: G#4, Velocity: 54
Note OFF: Time 58548, Note Name: G#4
Note OFF: Time 58548, Note Name: C#5
Note OFF: Time 58548, Note Name: C#4
Note ON: Time 58560, Note Name: G#4, Velocity: 52
Note ON: Time 58560, Note Name: C4, Velocity: 43
Note ON: Time 58560, Note Name: C5, Velocity: 69
Note OFF: Time 58788, Note Name: C5
Note OFF: Time 58788, Note Name: C4
Note OFF: Time 58788, Note Name: G#4
Note ON: Time 58800, Note Name: F4, Velocity: 46
Note ON: Time 58800, Note Name: G#4, Velocity: 61
Note ON: Time 58800, Note Name: C4, Velocity: 37
Note OFF: Time 59028, Note Name: C4
Note OFF: Time 59028, Note Name: G#4
Note OFF: Time 59028, Note Name: F4
Note ON: Time 59040, Note Name: A#4, Velocity: 70
Note ON: Time 59280, Note Name: A#3, Velocity: 37
Note ON: Time 59280, Note Name: G4, Velocity: 43
Note OFF: Time 59508, Note Name: G4
Note OFF: Time 59508, Note Name: A#3
Note ON: Time 59520, Note Name: A#3, Velocity: 36
Note ON: Time 59520, Note Name: G4, Velocity: 42
Note OFF: Time 59748, Note Name: G4
Note OFF: Time 59748, Note Name: A#3
Note ON: Time 59760, Note Name: A#3, Velocity: 37
Note ON: Time 59760, Note Name: G4, Velocity: 43
Note OFF: Time 59988, Note Name: G4
Note OFF: Time 59988, Note Name: A#3
Note ON: Time 60000, Note Name: A#3, Velocity: 33
Note ON: Time 60000, Note Name: G4, Velocity: 39
Note OFF: Time 60228, Note Name: G4
Note OFF: Time 60228, Note Name: A#3
Note ON: Time 60240, Note Name: A#3, Velocity: 31
Note ON: Time 60240, Note Name: G4, Velocity: 37
Note OFF: Time 60468, Note Name: G4
Note OFF: Time 60468, Note Name: A#3
Note OFF: Time 60480, Note Name: A#4
Note ON: Time 60480, Note Name: B4, Velocity: 52
Note ON: Time 60720, Note Name: F#4, Velocity: 34
Note ON: Time 60720, Note Name: B3, Velocity: 26
Note OFF: Time 60948, Note Name: B3
Note OFF: Time 60948, Note Name: F#4
Note ON: Time 60960, Note Name: F#4, Velocity: 34
Note ON: Time 60960, Note Name: B3, Velocity: 26
Note OFF: Time 61080, Note Name: B4
Note ON: Time 61080, Note Name: B4, Velocity: 34
Note OFF: Time 61140, Note Name: B4
Note ON: Time 61140, Note Name: C#5, Velocity: 34
Note OFF: Time 61188, Note Name: B3
Note OFF: Time 61188, Note Name: F#4
Note OFF: Time 61200, Note Name: C#5
Note ON: Time 61200, Note Name: F#4, Velocity: 34
Note ON: Time 61200, Note Name: B3, Velocity: 26
Note ON: Time 61200, Note Name: B4, Velocity: 51
Note OFF: Time 61428, Note Name: B4
Note OFF: Time 61428, Note Name: B3
Note OFF: Time 61428, Note Name: F#4
Note ON: Time 61440, Note Name: A#4, Velocity: 49
Note ON: Time 61440, Note Name: A#3, Velocity: 26
Note ON: Time 61440, Note Name: F#4, Velocity: 34
Note OFF: Time 61668, Note Name: F#4
Note OFF: Time 61668, Note Name: A#3
Note OFF: Time 61668, Note Name: A#4
Note ON: Time 61680, Note Name: F#4, Velocity: 28
Note ON: Time 61680, Note Name: B3, Velocity: 22
Note ON: Time 61680, Note Name: B4, Velocity: 49
Note OFF: Time 61908, Note Name: B4
Note OFF: Time 61908, Note Name: B3
Note OFF: Time 61908, Note Name: F#4
Note ON: Time 61920, Note Name: C#5, Velocity: 52
Note ON: Time 62160, Note Name: G#4, Velocity: 33
Note ON: Time 62160, Note Name: C#4, Velocity: 28
Note OFF: Time 62388, Note Name: C#4
Note OFF: Time 62388, Note Name: G#4
Note ON: Time 62400, Note Name: G#4, Velocity: 34
Note ON: Time 62400, Note Name: C#4, Velocity: 28
Note OFF: Time 62628, Note Name: C#4
Note OFF: Time 62628, Note Name: G#4
Note OFF: Time 62640, Note Name: C#5
Note ON: Time 62640, Note Name: B3, Velocity: 27
Note ON: Time 62640, Note Name: B4, Velocity: 51
Note ON: Time 62640, Note Name: G#4, Velocity: 32
Note OFF: Time 62868, Note Name: G#4
Note OFF: Time 62868, Note Name: B3
Note ON: Time 62880, Note Name: G#4, Velocity: 37
Note OFF: Time 63108, Note Name: G#4
Note OFF: Time 63120, Note Name: B4
Note ON: Time 63120, Note Name: G#4, Velocity: 38
Note OFF: Time 63348, Note Name: G#4
Note ON: Time 63360, Note Name: B4, Velocity: 56
Note OFF: Time 63588, Note Name: B4
Note ON: Time 63600, Note Name: B4, Velocity: 47
Note ON: Time 63600, Note Name: F#4, Velocity: 36
Note OFF: Time 63828, Note Name: F#4
Note OFF: Time 63828, Note Name: B4
Note ON: Time 63840, Note Name: C#5, Velocity: 60
Note ON: Time 63840, Note Name: B4, Velocity: 47
Note ON: Time 63840, Note Name: F#4, Velocity: 47
Note OFF: Time 64068, Note Name: F#4
Note OFF: Time 64068, Note Name: B4
Note OFF: Time 64068, Note Name: C#5
Note ON: Time 64080, Note Name: F#4, Velocity: 36
Note ON: Time 64080, Note Name: D#5, Velocity: 63
Note ON: Time 64080, Note Name: B4, Velocity: 47
Note OFF: Time 64308, Note Name: B4
Note OFF: Time 64308, Note Name: D#5
Note OFF: Time 64308, Note Name: F#4
Note ON: Time 64320, Note Name: F#4, Velocity: 47
Note ON: Time 64320, Note Name: E5, Velocity: 67
Note ON: Time 64320, Note Name: B4, Velocity: 47
Note OFF: Time 64548, Note Name: B4
Note OFF: Time 64548, Note Name: E5
Note OFF: Time 64548, Note Name: F#4
Note ON: Time 64560, Note Name: B4, Velocity: 47
Note ON: Time 64560, Note Name: F#5, Velocity: 67
Note ON: Time 64560, Note Name: F#4, Velocity: 38
Note OFF: Time 64788, Note Name: F#4
Note OFF: Time 64788, Note Name: F#5
Note OFF: Time 64788, Note Name: B4
Note ON: Time 64800, Note Name: G#5, Velocity: 72
Note ON: Time 65040, Note Name: G#4, Velocity: 40
Note ON: Time 65040, Note Name: E5, Velocity: 48
Note OFF: Time 65268, Note Name: E5
Note OFF: Time 65268, Note Name: G#4
Note ON: Time 65280, Note Name: G#4, Velocity: 41
Note ON: Time 65280, Note Name: E5, Velocity: 49
Note OFF: Time 65508, Note Name: E5
Note OFF: Time 65508, Note Name: G#4
Note ON: Time 65520, Note Name: G#4, Velocity: 42
Note ON: Time 65520, Note Name: E5, Velocity: 51
Note OFF: Time 65748, Note Name: E5
Note OFF: Time 65748, Note Name: G#4
Note ON: Time 65760, Note Name: E5, Velocity: 53
Note ON: Time 65760, Note Name: B4, Velocity: 45
Note ON: Time 65760, Note Name: G#4, Velocity: 45
Note OFF: Time 65988, Note Name: G#4
Note OFF: Time 65988, Note Name: B4
Note OFF: Time 65988, Note Name: E5
Note ON: Time 66000, Note Name: G#4, Velocity: 46
Note ON: Time 66000, Note Name: B4, Velocity: 45
Note ON: Time 66000, Note Name: E5, Velocity: 55
Note OFF: Time 66228, Note Name: E5
Note OFF: Time 66228, Note Name: B4
Note OFF: Time 66228, Note Name: G#4
Note OFF: Time 66480, Note Name: G#5
Note ON: Time 66480, Note Name: C#4, Velocity: 31
Note OFF: Time 66708, Note Name: C#4
Note ON: Time 66720, Note Name: C#4, Velocity: 31
Note ON: Time 66720, Note Name: G#4, Velocity: 31
Note ON: Time 66720, Note Name: C#5, Velocity: 40
Note OFF: Time 66839, Note Name: C#5
Note ON: Time 66840, Note Name: C#5, Velocity: 40
Note OFF: Time 66900, Note Name: C#5
Note ON: Time 66900, Note Name: D#5, Velocity: 40
Note OFF: Time 66948, Note Name: G#4
Note OFF: Time 66948, Note Name: C#4
Note OFF: Time 66960, Note Name: D#5
Note ON: Time 66960, Note Name: C#5, Velocity: 61
Note ON: Time 66960, Note Name: C#4, Velocity: 31
Note ON: Time 66960, Note Name: G#4, Velocity: 40
Note OFF: Time 67188, Note Name: G#4
Note OFF: Time 67188, Note Name: C#4
Note OFF: Time 67188, Note Name: C#5
Note ON: Time 67200, Note Name: G#4, Velocity: 38
Note ON: Time 67200, Note Name: C4, Velocity: 31
Note ON: Time 67200, Note Name: C5, Velocity: 56
Note OFF: Time 67428, Note Name: C5
Note OFF: Time 67428, Note Name: C4
Note OFF: Time 67428, Note Name: G#4
Note ON: Time 67440, Note Name: C#4, Velocity: 27
Note ON: Time 67440, Note Name: C#5, Velocity: 58
Note ON: Time 67440, Note Name: G#4, Velocity: 33
Note OFF: Time 67668, Note Name: G#4
Note OFF: Time 67668, Note Name: C#5
Note OFF: Time 67668, Note Name: C#4
Note ON: Time 67680, Note Name: D#5, Velocity: 62
Note ON: Time 67920, Note Name: C#4, Velocity: 33
Note ON: Time 67920, Note Name: A#4, Velocity: 39
Note OFF: Time 68148, Note Name: A#4
Note OFF: Time 68148, Note Name: C#4
Note ON: Time 68160, Note Name: C#4, Velocity: 34
Note ON: Time 68160, Note Name: A#4, Velocity: 40
Note OFF: Time 68388, Note Name: A#4
Note OFF: Time 68388, Note Name: C#4
Note OFF: Time 68400, Note Name: D#5
Note ON: Time 68400, Note Name: C#5, Velocity: 60
Note ON: Time 68400, Note Name: A#4, Velocity: 38
Note ON: Time 68400, Note Name: C#4, Velocity: 32
Note OFF: Time 68628, Note Name: C#4
Note OFF: Time 68628, Note Name: A#4
Note ON: Time 68640, Note Name: A#4, Velocity: 44
Note ON: Time 68640, Note Name: C#4, Velocity: 32
Note OFF: Time 68868, Note Name: C#4
Note OFF: Time 68868, Note Name: A#4
Note ON: Time 68880, Note Name: A#4, Velocity: 45
Note ON: Time 68880, Note Name: C#4, Velocity: 32
Note OFF: Time 69108, Note Name: C#4
Note OFF: Time 69108, Note Name: A#4
Note OFF: Time 69120, Note Name: C#5
Note ON: Time 69120, Note Name: C#5, Velocity: 56
Note OFF: Time 69348, Note Name: C#5
Note ON: Time 69360, Note Name: F4, Velocity: 36
Note ON: Time 69360, Note Name: C#5, Velocity: 47
Note ON: Time 69360, Note Name: B4, Velocity: 36
Note OFF: Time 69588, Note Name: B4
Note OFF: Time 69588, Note Name: C#5
Note OFF: Time 69588, Note Name: F4
Note ON: Time 69600, Note Name: D#5, Velocity: 60
Note ON: Time 69600, Note Name: B4, Velocity: 47
Note ON: Time 69600, Note Name: F4, Velocity: 47
Note OFF: Time 69828, Note Name: F4
Note OFF: Time 69828, Note Name: B4
Note OFF: Time 69828, Note Name: D#5
Note ON: Time 69840, Note Name: F5, Velocity: 63
Note ON: Time 69840, Note Name: F4, Velocity: 36
Note ON: Time 69840, Note Name: B4, Velocity: 47
Note OFF: Time 70068, Note Name: B4
Note OFF: Time 70068, Note Name: F4
Note OFF: Time 70068, Note Name: F5
Note ON: Time 70080, Note Name: F#5, Velocity: 67
Note ON: Time 70080, Note Name: B4, Velocity: 47
Note ON: Time 70080, Note Name: C#5, Velocity: 47
Note ON: Time 70080, Note Name: F#4, Velocity: 47
Note OFF: Time 70308, Note Name: F#4
Note OFF: Time 70308, Note Name: F#5
Note OFF: Time 70308, Note Name: B4
Note OFF: Time 70308, Note Name: C#5
Note ON: Time 70320, Note Name: G#5, Velocity: 67
Note ON: Time 70320, Note Name: B4, Velocity: 47
Note ON: Time 70320, Note Name: C#5, Velocity: 47
Note ON: Time 70320, Note Name: G#4, Velocity: 38
Note OFF: Time 70548, Note Name: G#4
Note OFF: Time 70548, Note Name: G#5
Note OFF: Time 70548, Note Name: B4
Note OFF: Time 70548, Note Name: C#5
Note ON: Time 70560, Note Name: A#5, Velocity: 72
Note ON: Time 70800, Note Name: A#4, Velocity: 50
Note ON: Time 70800, Note Name: F#5, Velocity: 59
Note OFF: Time 71028, Note Name: F#5
Note OFF: Time 71028, Note Name: A#4
Note ON: Time 71040, Note Name: A#4, Velocity: 46
Note ON: Time 71040, Note Name: F#5, Velocity: 55
Note OFF: Time 71268, Note Name: F#5
Note OFF: Time 71268, Note Name: A#4
Note ON: Time 71280, Note Name: F#5, Velocity: 62
Note ON: Time 71280, Note Name: C#5, Velocity: 52
Note ON: Time 71280, Note Name: A#4, Velocity: 52
Note OFF: Time 71508, Note Name: A#4
Note OFF: Time 71508, Note Name: C#5
Note OFF: Time 71508, Note Name: F#5
Note ON: Time 71520, Note Name: A#4, Velocity: 56
Note ON: Time 71520, Note Name: C#5, Velocity: 56
Note ON: Time 71520, Note Name: F#5, Velocity: 66
Note OFF: Time 71748, Note Name: F#5
Note OFF: Time 71748, Note Name: C#5
Note OFF: Time 71748, Note Name: A#4
Note ON: Time 71760, Note Name: C#5, Velocity: 59
Note ON: Time 71760, Note Name: F#5, Velocity: 70
Note ON: Time 71760, Note Name: A#4, Velocity: 59
Note OFF: Time 71988, Note Name: A#4
Note OFF: Time 71988, Note Name: F#5
Note OFF: Time 71988, Note Name: C#5
Note OFF: Time 72000, Note Name: A#5
Note ON: Time 72000, Note Name: B5, Velocity: 78
Note ON: Time 72240, Note Name: A4, Velocity: 48
Note ON: Time 72240, Note Name: F#5, Velocity: 58
Note ON: Time 72240, Note Name: B4, Velocity: 48
Note OFF: Time 72468, Note Name: B4
Note OFF: Time 72468, Note Name: F#5
Note OFF: Time 72468, Note Name: A4
Note ON: Time 72480, Note Name: B4, Velocity: 48
Note ON: Time 72480, Note Name: A4, Velocity: 48
Note ON: Time 72480, Note Name: F#5, Velocity: 58
Note OFF: Time 72708, Note Name: F#5
Note OFF: Time 72708, Note Name: A4
Note OFF: Time 72708, Note Name: B4
Note OFF: Time 72720, Note Name: B5
Note ON: Time 72720, Note Name: G#5, Velocity: 74
Note ON: Time 72960, Note Name: E5, Velocity: 57
Note ON: Time 72960, Note Name: G#4, Velocity: 48
Note OFF: Time 73188, Note Name: G#4
Note OFF: Time 73188, Note Name: E5
Note ON: Time 73200, Note Name: E5, Velocity: 57
Note ON: Time 73200, Note Name: G#4, Velocity: 48
Note OFF: Time 73428, Note Name: G#4
Note OFF: Time 73428, Note Name: E5
Note OFF: Time 73440, Note Name: G#5
Note ON: Time 73440, Note Name: A#5, Velocity: 74
Note ON: Time 73680, Note Name: G#4, Velocity: 44
Note ON: Time 73680, Note Name: F5, Velocity: 55
Note OFF: Time 73908, Note Name: F5
Note OFF: Time 73908, Note Name: G#4
Note ON: Time 73920, Note Name: G#4, Velocity: 44
Note ON: Time 73920, Note Name: F5, Velocity: 55
Note OFF: Time 74148, Note Name: F5
Note OFF: Time 74148, Note Name: G#4
Note OFF: Time 74160, Note Name: A#5
Note ON: Time 74160, Note Name: G5, Velocity: 70
Note ON: Time 74400, Note Name: D#5, Velocity: 52
Note ON: Time 74400, Note Name: G4, Velocity: 43
Note OFF: Time 74628, Note Name: G4
Note OFF: Time 74628, Note Name: D#5
Note ON: Time 74640, Note Name: D#5, Velocity: 52
Note ON: Time 74640, Note Name: G4, Velocity: 43
Note OFF: Time 74868, Note Name: G4
Note OFF: Time 74868, Note Name: D#5
Note OFF: Time 74880, Note Name: G5
Note ON: Time 74880, Note Name: A5, Velocity: 66
Note ON: Time 75120, Note Name: G4, Velocity: 42
Note ON: Time 75120, Note Name: E5, Velocity: 51
Note OFF: Time 75348, Note Name: E5
Note OFF: Time 75348, Note Name: G4
Note ON: Time 75360, Note Name: G4, Velocity: 42
Note ON: Time 75360, Note Name: E5, Velocity: 51
Note OFF: Time 75588, Note Name: E5
Note OFF: Time 75588, Note Name: G4
Note OFF: Time 75600, Note Name: A5
Note ON: Time 75600, Note Name: F#5, Velocity: 63
Note ON: Time 75840, Note Name: D5, Velocity: 48
Note ON: Time 75840, Note Name: F#4, Velocity: 40
Note OFF: Time 76068, Note Name: F#4
Note OFF: Time 76068, Note Name: D5
Note ON: Time 76080, Note Name: C#5, Velocity: 48
Note ON: Time 76080, Note Name: F#4, Velocity: 40
Note OFF: Time 76308, Note Name: F#4
Note OFF: Time 76308, Note Name: C#5
Note ON: Time 76320, Note Name: C5, Velocity: 56
Note ON: Time 76320, Note Name: F#4, Velocity: 47
Note OFF: Time 76548, Note Name: F#4
Note OFF: Time 76548, Note Name: C5
Note ON: Time 76560, Note Name: A4, Velocity: 49
Note ON: Time 76560, Note Name: F#4, Velocity: 49
Note ON: Time 76560, Note Name: C5, Velocity: 58
Note OFF: Time 76788, Note Name: C5
Note OFF: Time 76788, Note Name: F#4
Note OFF: Time 76788, Note Name: A4
Note ON: Time 76800, Note Name: F#4, Velocity: 51
Note ON: Time 76800, Note Name: C#5, Velocity: 60
Note ON: Time 76800, Note Name: A4, Velocity: 51
Note OFF: Time 77028, Note Name: A4
Note OFF: Time 77028, Note Name: C#5
Note OFF: Time 77028, Note Name: F#4
Note ON: Time 77040, Note Name: A4, Velocity: 52
Note ON: Time 77040, Note Name: F#4, Velocity: 52
Note ON: Time 77040, Note Name: D5, Velocity: 62
Note OFF: Time 77268, Note Name: D5
Note OFF: Time 77268, Note Name: F#4
Note OFF: Time 77268, Note Name: A4
Note ON: Time 77280, Note Name: D5, Velocity: 64
Note ON: Time 77280, Note Name: F#4, Velocity: 54
Note ON: Time 77280, Note Name: A4, Velocity: 54
Note OFF: Time 77508, Note Name: A4
Note OFF: Time 77508, Note Name: F#4
Note OFF: Time 77508, Note Name: D5
Note ON: Time 77520, Note Name: A4, Velocity: 56
Note ON: Time 77520, Note Name: F#4, Velocity: 56
Note ON: Time 77520, Note Name: D#5, Velocity: 66
Note OFF: Time 77748, Note Name: D#5
Note OFF: Time 77748, Note Name: F#4
Note OFF: Time 77748, Note Name: A4
Note OFF: Time 77760, Note Name: F#5
Note ON: Time 77760, Note Name: G5, Velocity: 77
Note ON: Time 78000, Note Name: G4, Velocity: 39
Note ON: Time 78000, Note Name: D#5, Velocity: 51
Note OFF: Time 78228, Note Name: D#5
Note OFF: Time 78228, Note Name: G4
Note ON: Time 78240, Note Name: G4, Velocity: 45
Note ON: Time 78240, Note Name: D#5, Velocity: 55
Note OFF: Time 78468, Note Name: D#5
Note OFF: Time 78468, Note Name: G4
Note ON: Time 78480, Note Name: G4, Velocity: 48
Note ON: Time 78480, Note Name: C#5, Velocity: 48
Note OFF: Time 78708, Note Name: C#5
Note OFF: Time 78708, Note Name: G4
Note OFF: Time 78720, Note Name: G5
Note ON: Time 78720, Note Name: C#5, Velocity: 56
Note ON: Time 78720, Note Name: G#5, Velocity: 66
Note ON: Time 78720, Note Name: G4, Velocity: 48
Note OFF: Time 78948, Note Name: G4
Note OFF: Time 78948, Note Name: G#5
Note OFF: Time 78948, Note Name: C#5
Note ON: Time 78960, Note Name: C#5, Velocity: 49
Note ON: Time 78960, Note Name: G4, Velocity: 49
Note ON: Time 78960, Note Name: E5, Velocity: 64
Note OFF: Time 79188, Note Name: E5
Note OFF: Time 79188, Note Name: G4
Note OFF: Time 79188, Note Name: C#5
Note ON: Time 79200, Note Name: G5, Velocity: 69
Note OFF: Time 79320, Note Name: G5
Note ON: Time 79320, Note Name: F5, Velocity: 54
Note OFF: Time 79380, Note Name: F5
Note ON: Time 79380, Note Name: G5, Velocity: 49
Note OFF: Time 79440, Note Name: G5
Note ON: Time 79440, Note Name: G#4, Velocity: 53
Note ON: Time 79440, Note Name: F5, Velocity: 62
Note ON: Time 79440, Note Name: D5, Velocity: 51
Note OFF: Time 79668, Note Name: D5
Note OFF: Time 79668, Note Name: F5
Note OFF: Time 79668, Note Name: G#4
Note ON: Time 79680, Note Name: G#4, Velocity: 35
Note ON: Time 79680, Note Name: E5, Velocity: 64
Note ON: Time 79680, Note Name: D5, Velocity: 44
Note OFF: Time 79908, Note Name: D5
Note OFF: Time 79908, Note Name: E5
Note OFF: Time 79908, Note Name: G#4
Note ON: Time 79920, Note Name: D5, Velocity: 55
Note ON: Time 79920, Note Name: G#4, Velocity: 57
Note ON: Time 79920, Note Name: F5, Velocity: 64
Note OFF: Time 80148, Note Name: F5
Note OFF: Time 80148, Note Name: G#4
Note OFF: Time 80148, Note Name: D5
Note ON: Time 80160, Note Name: G#4, Velocity: 51
Note ON: Time 80160, Note Name: G5, Velocity: 60
Note ON: Time 80160, Note Name: D5, Velocity: 51
Note OFF: Time 80388, Note Name: D5
Note OFF: Time 80388, Note Name: G5
Note OFF: Time 80388, Note Name: G#4
Note ON: Time 80400, Note Name: D5, Velocity: 63
Note ON: Time 80400, Note Name: G#4, Velocity: 51
Note OFF: Time 80628, Note Name: G#4
Note OFF: Time 80628, Note Name: D5
Note ON: Time 80640, Note Name: D#5, Velocity: 62
Note ON: Time 80880, Note Name: D#4, Velocity: 35
Note ON: Time 80880, Note Name: A#4, Velocity: 41
Note OFF: Time 81108, Note Name: A#4
Note OFF: Time 81108, Note Name: D#4
Note ON: Time 81120, Note Name: D#4, Velocity: 36
Note ON: Time 81120, Note Name: A#4, Velocity: 42
Note OFF: Time 81348, Note Name: A#4
Note OFF: Time 81348, Note Name: D#4
Note ON: Time 81360, Note Name: D#4, Velocity: 37
Note ON: Time 81360, Note Name: A#4, Velocity: 44
Note OFF: Time 81588, Note Name: A#4
Note OFF: Time 81588, Note Name: D#4
Note ON: Time 81600, Note Name: D#4, Velocity: 38
Note ON: Time 81600, Note Name: A#4, Velocity: 46
Note OFF: Time 81828, Note Name: A#4
Note OFF: Time 81828, Note Name: D#4
Note ON: Time 81840, Note Name: D#4, Velocity: 39
Note ON: Time 81840, Note Name: A#4, Velocity: 47
Note OFF: Time 82068, Note Name: A#4
Note OFF: Time 82068, Note Name: D#4
Note ON: Time 82080, Note Name: D#4, Velocity: 45
Note ON: Time 82080, Note Name: B4, Velocity: 48
Note OFF: Time 82308, Note Name: B4
Note OFF: Time 82308, Note Name: D#4
Note OFF: Time 82320, Note Name: D#5
Note ON: Time 82320, Note Name: D#5, Velocity: 60
Note ON: Time 82320, Note Name: B4, Velocity: 46
Note ON: Time 82320, Note Name: D#4, Velocity: 46
Note OFF: Time 82548, Note Name: D#4
Note OFF: Time 82548, Note Name: B4
Note OFF: Time 82548, Note Name: D#5
Note ON: Time 82560, Note Name: D4, Velocity: 44
Note ON: Time 82560, Note Name: D5, Velocity: 57
Note ON: Time 82560, Note Name: B4, Velocity: 44
Note OFF: Time 82788, Note Name: B4
Note OFF: Time 82788, Note Name: D5
Note OFF: Time 82788, Note Name: D4
Note ON: Time 82800, Note Name: F4, Velocity: 48
Note ON: Time 82800, Note Name: F5, Velocity: 62
Note ON: Time 82800, Note Name: B4, Velocity: 48
Note OFF: Time 83028, Note Name: B4
Note OFF: Time 83028, Note Name: F5
Note OFF: Time 83028, Note Name: F4
Note ON: Time 83040, Note Name: D#4, Velocity: 45
Note ON: Time 83040, Note Name: B4, Velocity: 45
Note ON: Time 83040, Note Name: D#5, Velocity: 58
Note OFF: Time 83268, Note Name: D#5
Note OFF: Time 83268, Note Name: B4
Note OFF: Time 83268, Note Name: D#4
Note ON: Time 83280, Note Name: D#4, Velocity: 45
Note ON: Time 83280, Note Name: B4, Velocity: 59
Note OFF: Time 83508, Note Name: B4
Note OFF: Time 83508, Note Name: D#4
Note ON: Time 83520, Note Name: D#5, Velocity: 62
Note ON: Time 83760, Note Name: A#4, Velocity: 41
Note ON: Time 83760, Note Name: D#4, Velocity: 35
Note OFF: Time 83988, Note Name: D#4
Note OFF: Time 83988, Note Name: A#4
Note ON: Time 84000, Note Name: A#4, Velocity: 42
Note ON: Time 84000, Note Name: D#4, Velocity: 36
Note OFF: Time 84228, Note Name: D#4
Note OFF: Time 84228, Note Name: A#4
Note ON: Time 84240, Note Name: A#4, Velocity: 44
Note ON: Time 84240, Note Name: D#4, Velocity: 37
Note OFF: Time 84468, Note Name: D#4
Note OFF: Time 84468, Note Name: A#4
Note ON: Time 84480, Note Name: A#4, Velocity: 46
Note ON: Time 84480, Note Name: D#4, Velocity: 38
Note OFF: Time 84708, Note Name: D#4
Note OFF: Time 84708, Note Name: A#4
Note ON: Time 84720, Note Name: A#4, Velocity: 47
Note ON: Time 84720, Note Name: D#4, Velocity: 39
Note OFF: Time 84948, Note Name: D#4
Note OFF: Time 84948, Note Name: A#4
Note ON: Time 84960, Note Name: B4, Velocity: 48
Note ON: Time 84960, Note Name: D#4, Velocity: 45
Note OFF: Time 85188, Note Name: D#4
Note OFF: Time 85188, Note Name: B4
Note OFF: Time 85200, Note Name: D#5
Note ON: Time 85200, Note Name: D#4, Velocity: 39
Note ON: Time 85200, Note Name: B4, Velocity: 39
Note ON: Time 85200, Note Name: D#5, Velocity: 51
Note OFF: Time 85428, Note Name: D#5
Note OFF: Time 85428, Note Name: B4
Note OFF: Time 85428, Note Name: D#4
Note ON: Time 85440, Note Name: D5, Velocity: 48
Note ON: Time 85440, Note Name: B4, Velocity: 37
Note ON: Time 85440, Note Name: D4, Velocity: 37
Note OFF: Time 85668, Note Name: D4
Note OFF: Time 85668, Note Name: B4
Note OFF: Time 85668, Note Name: D5
Note ON: Time 85680, Note Name: B4, Velocity: 40
Note ON: Time 85680, Note Name: F4, Velocity: 40
Note ON: Time 85680, Note Name: F5, Velocity: 52
Note OFF: Time 85908, Note Name: F5
Note OFF: Time 85908, Note Name: F4
Note OFF: Time 85908, Note Name: B4
Note ON: Time 85920, Note Name: D#5, Velocity: 49
Note ON: Time 85920, Note Name: B4, Velocity: 38
Note ON: Time 85920, Note Name: D#4, Velocity: 38
Note OFF: Time 86148, Note Name: D#4
Note OFF: Time 86148, Note Name: B4
Note OFF: Time 86148, Note Name: D#5
Note ON: Time 86160, Note Name: B4, Velocity: 50
Note ON: Time 86160, Note Name: D#4, Velocity: 38
Note OFF: Time 86388, Note Name: D#4
Note OFF: Time 86388, Note Name: B4
Note ON: Time 86400, Note Name: D#5, Velocity: 47
Note ON: Time 86640, Note Name: D#4, Velocity: 23
Note ON: Time 86640, Note Name: A#4, Velocity: 28
Note OFF: Time 86868, Note Name: A#4
Note OFF: Time 86868, Note Name: D#4
Note ON: Time 86880, Note Name: D#4, Velocity: 24
Note ON: Time 86880, Note Name: A#4, Velocity: 29
Note OFF: Time 87108, Note Name: A#4
Note OFF: Time 87108, Note Name: D#4
Note ON: Time 87120, Note Name: D#4, Velocity: 25
Note ON: Time 87120, Note Name: A#4, Velocity: 30
Note OFF: Time 87348, Note Name: A#4
Note OFF: Time 87348, Note Name: D#4
Note ON: Time 87360, Note Name: D#4, Velocity: 26
Note ON: Time 87360, Note Name: A#4, Velocity: 31
Note OFF: Time 87588, Note Name: A#4
Note OFF: Time 87588, Note Name: D#4
Note ON: Time 87600, Note Name: D#4, Velocity: 28
Note ON: Time 87600, Note Name: A#4, Velocity: 33
Note OFF: Time 87828, Note Name: A#4
Note OFF: Time 87828, Note Name: D#4
Note ON: Time 87840, Note Name: D#4, Velocity: 28
Note ON: Time 87840, Note Name: A#4, Velocity: 34
Note OFF: Time 88068, Note Name: A#4
Note OFF: Time 88068, Note Name: D#4
Note ON: Time 88080, Note Name: D#4, Velocity: 28
Note ON: Time 88080, Note Name: A#4, Velocity: 34
Note OFF: Time 88308, Note Name: A#4
Note OFF: Time 88308, Note Name: D#4
Note ON: Time 88320, Note Name: D#4, Velocity: 31
Note ON: Time 88320, Note Name: A#4, Velocity: 37
Note OFF: Time 88548, Note Name: A#4
Note OFF: Time 88548, Note Name: D#4
Note ON: Time 88560, Note Name: D#4, Velocity: 32
Note ON: Time 88560, Note Name: A#4, Velocity: 39
Note OFF: Time 88788, Note Name: A#4
Note OFF: Time 88788, Note Name: D#4
Note ON: Time 88800, Note Name: D#4, Velocity: 34
Note ON: Time 88800, Note Name: A#4, Velocity: 39
Note OFF: Time 89028, Note Name: A#4
Note OFF: Time 89028, Note Name: D#4
Note ON: Time 89040, Note Name: D#4, Velocity: 35
Note ON: Time 89040, Note Name: A#4, Velocity: 42
Note OFF: Time 89268, Note Name: A#4
Note OFF: Time 89268, Note Name: D#4
Note OFF: Time 89280, Note Name: D#5
Note ON: Time 89280, Note Name: D#4, Velocity: 35
Note ON: Time 89280, Note Name: A#4, Velocity: 43
Note OFF: Time 89508, Note Name: A#4
Note OFF: Time 89508, Note Name: D#4
Note ON: Time 89520, Note Name: D#4, Velocity: 35
Note ON: Time 89520, Note Name: A#4, Velocity: 42
Note OFF: Time 89748, Note Name: A#4
Note OFF: Time 89748, Note Name: D#4
Note ON: Time 89760, Note Name: D#4, Velocity: 34
Note ON: Time 89760, Note Name: A#4, Velocity: 41
Note OFF: Time 89988, Note Name: A#4
Note OFF: Time 89988, Note Name: D#4
Note ON: Time 90000, Note Name: D#4, Velocity: 33
Note ON: Time 90000, Note Name: A#4, Velocity: 39
Note OFF: Time 90228, Note Name: A#4
Note OFF: Time 90228, Note Name: D#4
Note ON: Time 90240, Note Name: D#4, Velocity: 32
Note ON: Time 90240, Note Name: A#4, Velocity: 39
Note OFF: Time 90468, Note Name: A#4
Note OFF: Time 90468, Note Name: D#4
Note ON: Time 90480, Note Name: D#4, Velocity: 30
Note ON: Time 90480, Note Name: A#4, Velocity: 36
Note OFF: Time 90708, Note Name: A#4
Note OFF: Time 90708, Note Name: D#4
Note ON: Time 90720, Note Name: D#4, Velocity: 29
Note ON: Time 90720, Note Name: A#4, Velocity: 35
Note OFF: Time 90948, Note Name: A#4
Note OFF: Time 90948, Note Name: D#4
Note ON: Time 90960, Note Name: D#4, Velocity: 28
Note ON: Time 90960, Note Name: A#4, Velocity: 34
Note OFF: Time 91188, Note Name: A#4
Note OFF: Time 91188, Note Name: D#4
Note ON: Time 91200, Note Name: D#4, Velocity: 28
Note ON: Time 91200, Note Name: A#4, Velocity: 33
Note OFF: Time 91428, Note Name: A#4
Note OFF: Time 91428, Note Name: D#4
Note ON: Time 91440, Note Name: D#4, Velocity: 26
Note ON: Time 91440, Note Name: A#4, Velocity: 32
Note OFF: Time 91668, Note Name: A#4
Note OFF: Time 91668, Note Name: D#4
Note ON: Time 91680, Note Name: D#4, Velocity: 24
Note ON: Time 91680, Note Name: A#4, Velocity: 29
Note OFF: Time 91908, Note Name: A#4
Note OFF: Time 91908, Note Name: D#4
Note ON: Time 91920, Note Name: D#4, Velocity: 23
Note ON: Time 91920, Note Name: A#4, Velocity: 28
Note OFF: Time 92400, Note Name: A#4
Note OFF: Time 92400, Note Name: D#4
Note ON: Time 92400, Note Name: A#4, Velocity: 39
Note ON: Time 92400, Note Name: D#4, Velocity: 28
Note OFF: Time 92628, Note Name: D#4
Note OFF: Time 92628, Note Name: A#4
Note ON: Time 92640, Note Name: C5, Velocity: 39
Note ON: Time 92640, Note Name: D#4, Velocity: 29
Note OFF: Time 92868, Note Name: D#4
Note OFF: Time 92868, Note Name: C5
Note ON: Time 92880, Note Name: D#4, Velocity: 30
Note ON: Time 92880, Note Name: C#5, Velocity: 41
Note OFF: Time 93108, Note Name: C#5
Note OFF: Time 93108, Note Name: D#4
Note ON: Time 93120, Note Name: C#4, Velocity: 28
Note ON: Time 93120, Note Name: F4, Velocity: 39
Note OFF: Time 93348, Note Name: F4
Note OFF: Time 93348, Note Name: C#4
Note ON: Time 93360, Note Name: C#4, Velocity: 28
Note ON: Time 93360, Note Name: G4, Velocity: 39
Note OFF: Time 93588, Note Name: G4
Note OFF: Time 93588, Note Name: C#4
Note ON: Time 93600, Note Name: C4, Velocity: 19
Note ON: Time 93600, Note Name: A#4, Velocity: 42
Note OFF: Time 93828, Note Name: C4
Note ON: Time 93840, Note Name: C4, Velocity: 19
Note OFF: Time 94068, Note Name: C4
Note ON: Time 94080, Note Name: C4, Velocity: 19
Note OFF: Time 94308, Note Name: C4
Note OFF: Time 94320, Note Name: A#4
Note ON: Time 94320, Note Name: C4, Velocity: 22
Note ON: Time 94320, Note Name: G#4, Velocity: 40
Note OFF: Time 94548, Note Name: C4
Note ON: Time 94560, Note Name: C4, Velocity: 19
Note OFF: Time 94788, Note Name: C4
Note ON: Time 94800, Note Name: C4, Velocity: 19
Note OFF: Time 95028, Note Name: C4
Note OFF: Time 95040, Note Name: G#4
Note ON: Time 95280, Note Name: G#4, Velocity: 30
Note ON: Time 95280, Note Name: C#5, Velocity: 41
Note OFF: Time 95508, Note Name: C#5
Note OFF: Time 95508, Note Name: G#4
Note ON: Time 95520, Note Name: C#5, Velocity: 33
Note ON: Time 95520, Note Name: G5, Velocity: 44
Note ON: Time 95520, Note Name: G#4, Velocity: 33
Note OFF: Time 95748, Note Name: G#4
Note OFF: Time 95748, Note Name: G5
Note OFF: Time 95748, Note Name: C#5
Note ON: Time 95760, Note Name: G#4, Velocity: 34
Note ON: Time 95760, Note Name: C#5, Velocity: 34
Note ON: Time 95760, Note Name: A#5, Velocity: 47
Note OFF: Time 95988, Note Name: A#5
Note OFF: Time 95988, Note Name: C#5
Note OFF: Time 95988, Note Name: G#4
Note ON: Time 96000, Note Name: G#5, Velocity: 42
Note ON: Time 96000, Note Name: C#5, Velocity: 31
Note ON: Time 96000, Note Name: G#4, Velocity: 31
Note OFF: Time 96228, Note Name: G#4
Note OFF: Time 96228, Note Name: C#5
Note OFF: Time 96228, Note Name: G#5
Note ON: Time 96240, Note Name: G#4, Velocity: 31
Note ON: Time 96240, Note Name: C#5, Velocity: 31
Note ON: Time 96240, Note Name: F5, Velocity: 42
Note OFF: Time 96468, Note Name: F5
Note OFF: Time 96468, Note Name: C#5
Note OFF: Time 96468, Note Name: G#4
Note ON: Time 96480, Note Name: D#4, Velocity: 31
Note ON: Time 96480, Note Name: D#5, Velocity: 49
Note ON: Time 96480, Note Name: A#4, Velocity: 37
Note OFF: Time 96708, Note Name: A#4
Note OFF: Time 96708, Note Name: D#4
Note ON: Time 96720, Note Name: A#4, Velocity: 37
Note ON: Time 96720, Note Name: D#4, Velocity: 31
Note OFF: Time 96948, Note Name: D#4
Note OFF: Time 96948, Note Name: A#4
Note ON: Time 96960, Note Name: A#4, Velocity: 37
Note ON: Time 96960, Note Name: D#4, Velocity: 31
Note OFF: Time 97188, Note Name: D#4
Note OFF: Time 97188, Note Name: A#4
Note OFF: Time 97200, Note Name: D#5
Note ON: Time 97200, Note Name: C#5, Velocity: 37
Note ON: Time 97200, Note Name: F4, Velocity: 31
Note ON: Time 97200, Note Name: F5, Velocity: 48
Note OFF: Time 97428, Note Name: F4
Note OFF: Time 97428, Note Name: C#5
Note ON: Time 97440, Note Name: F4, Velocity: 31
Note ON: Time 97440, Note Name: C#5, Velocity: 37
Note OFF: Time 97668, Note Name: C#5
Note OFF: Time 97668, Note Name: F4
Note ON: Time 97680, Note Name: F4, Velocity: 30
Note ON: Time 97680, Note Name: C#5, Velocity: 36
Note OFF: Time 97908, Note Name: C#5
Note OFF: Time 97908, Note Name: F4
Note OFF: Time 97920, Note Name: F5
Note ON: Time 98160, Note Name: D#4, Velocity: 33
Note ON: Time 98160, Note Name: A#4, Velocity: 41
Note OFF: Time 98388, Note Name: A#4
Note OFF: Time 98388, Note Name: D#4
Note ON: Time 98400, Note Name: D#5, Velocity: 44
Note ON: Time 98400, Note Name: A#4, Velocity: 33
Note OFF: Time 98628, Note Name: A#4
Note OFF: Time 98628, Note Name: D#5
Note ON: Time 98640, Note Name: G5, Velocity: 47
Note ON: Time 98640, Note Name: A#4, Velocity: 34
Note OFF: Time 98868, Note Name: A#4
Note OFF: Time 98868, Note Name: G5
Note ON: Time 98880, Note Name: F5, Velocity: 42
Note ON: Time 98880, Note Name: A#4, Velocity: 31
Note OFF: Time 99108, Note Name: A#4
Note OFF: Time 99108, Note Name: F5
Note ON: Time 99120, Note Name: C#5, Velocity: 42
Note ON: Time 99120, Note Name: A#4, Velocity: 31
Note OFF: Time 99348, Note Name: A#4
Note OFF: Time 99348, Note Name: C#5
Note ON: Time 99360, Note Name: G#4, Velocity: 34
Note ON: Time 99360, Note Name: D#4, Velocity: 28
Note ON: Time 99360, Note Name: C5, Velocity: 49
Note OFF: Time 99588, Note Name: D#4
Note OFF: Time 99588, Note Name: G#4
Note ON: Time 99600, Note Name: D#4, Velocity: 28
Note ON: Time 99600, Note Name: G#4, Velocity: 34
Note OFF: Time 99828, Note Name: G#4
Note OFF: Time 99828, Note Name: D#4
Note ON: Time 99840, Note Name: D#4, Velocity: 28
Note ON: Time 99840, Note Name: G#4, Velocity: 34
Note OFF: Time 100068, Note Name: G#4
Note OFF: Time 100068, Note Name: D#4
Note OFF: Time 100080, Note Name: C5
Note ON: Time 100080, Note Name: C#4, Velocity: 28
Note ON: Time 100080, Note Name: C#5, Velocity: 48
Note ON: Time 100080, Note Name: G#4, Velocity: 34
Note OFF: Time 100308, Note Name: G#4
Note OFF: Time 100308, Note Name: C#4
Note ON: Time 100320, Note Name: G#4, Velocity: 34
Note ON: Time 100320, Note Name: C#4, Velocity: 28
Note OFF: Time 100548, Note Name: C#4
Note OFF: Time 100548, Note Name: G#4
Note ON: Time 100560, Note Name: G#4, Velocity: 32
Note ON: Time 100560, Note Name: C#4, Velocity: 27
Note OFF: Time 100788, Note Name: C#4
Note OFF: Time 100788, Note Name: G#4
Note OFF: Time 100800, Note Name: C#5
Note ON: Time 101040, Note Name: C#4, Velocity: 34
Note OFF: Time 101268, Note Name: C#4
Note ON: Time 101280, Note Name: C#4, Velocity: 27
Note ON: Time 101280, Note Name: A#4, Velocity: 44
Note OFF: Time 101508, Note Name: A#4
Note OFF: Time 101508, Note Name: C#4
Note ON: Time 101520, Note Name: C#5, Velocity: 47
Note ON: Time 101520, Note Name: C4, Velocity: 26
Note ON: Time 101520, Note Name: G#4, Velocity: 31
Note OFF: Time 101748, Note Name: G#4
Note OFF: Time 101748, Note Name: C4
Note OFF: Time 101748, Note Name: C#5
Note ON: Time 101760, Note Name: G#4, Velocity: 31
Note ON: Time 101760, Note Name: C4, Velocity: 26
Note ON: Time 101760, Note Name: C5, Velocity: 42
Note OFF: Time 101988, Note Name: C5
Note OFF: Time 101988, Note Name: C4
Note OFF: Time 101988, Note Name: G#4
Note ON: Time 102000, Note Name: C4, Velocity: 23
Note ON: Time 102000, Note Name: G#4, Velocity: 39
Note ON: Time 102000, Note Name: F4, Velocity: 28
Note OFF: Time 102228, Note Name: F4
Note OFF: Time 102228, Note Name: G#4
Note OFF: Time 102228, Note Name: C4
Note ON: Time 102240, Note Name: G4, Velocity: 32
Note ON: Time 102240, Note Name: A#3, Velocity: 27
Note ON: Time 102240, Note Name: A#4, Velocity: 45
Note OFF: Time 102468, Note Name: A#3
Note OFF: Time 102468, Note Name: G4
Note ON: Time 102480, Note Name: A#3, Velocity: 27
Note ON: Time 102480, Note Name: G4, Velocity: 32
Note OFF: Time 102708, Note Name: G4
Note OFF: Time 102708, Note Name: A#3
Note ON: Time 102720, Note Name: A#3, Velocity: 26
Note ON: Time 102720, Note Name: G4, Velocity: 30
Note OFF: Time 102948, Note Name: G4
Note OFF: Time 102948, Note Name: A#3
Note ON: Time 102960, Note Name: A#3, Velocity: 27
Note ON: Time 102960, Note Name: G4, Velocity: 32
Note OFF: Time 103188, Note Name: G4
Note OFF: Time 103188, Note Name: A#3
Note ON: Time 103200, Note Name: A#3, Velocity: 25
Note ON: Time 103200, Note Name: G4, Velocity: 30
Note OFF: Time 103428, Note Name: G4
Note OFF: Time 103428, Note Name: A#3
Note ON: Time 103440, Note Name: A#3, Velocity: 25
Note ON: Time 103440, Note Name: G4, Velocity: 30
Note OFF: Time 103668, Note Name: G4
Note OFF: Time 103668, Note Name: A#3
Note OFF: Time 103680, Note Name: A#4
Note ON: Time 103920, Note Name: A#4, Velocity: 39
Note ON: Time 103920, Note Name: G4, Velocity: 38
Note ON: Time 103920, Note Name: C#4, Velocity: 28
Note OFF: Time 104148, Note Name: C#4
Note OFF: Time 104148, Note Name: G4
Note OFF: Time 104148, Note Name: A#4
Note ON: Time 104160, Note Name: C#4, Velocity: 30
Note ON: Time 104160, Note Name: G4, Velocity: 30
Note ON: Time 104160, Note Name: C5, Velocity: 41
Note OFF: Time 104388, Note Name: C5
Note OFF: Time 104388, Note Name: G4
Note OFF: Time 104388, Note Name: C#4
Note ON: Time 104400, Note Name: C#5, Velocity: 42
Note ON: Time 104400, Note Name: G4, Velocity: 31
Note ON: Time 104400, Note Name: C#4, Velocity: 31
Note OFF: Time 104628, Note Name: C#4
Note OFF: Time 104628, Note Name: G4
Note OFF: Time 104628, Note Name: C#5
Note ON: Time 104640, Note Name: F4, Velocity: 40
Note ON: Time 104640, Note Name: C#4, Velocity: 29
Note OFF: Time 104868, Note Name: C#4
Note OFF: Time 104868, Note Name: F4
Note ON: Time 104880, Note Name: G4, Velocity: 39
Note ON: Time 104880, Note Name: C#4, Velocity: 28
Note OFF: Time 105108, Note Name: C#4
Note OFF: Time 105108, Note Name: G4
Note ON: Time 105120, Note Name: F#4, Velocity: 24
Note ON: Time 105120, Note Name: C#4, Velocity: 20
Note ON: Time 105120, Note Name: A#4, Velocity: 42
Note OFF: Time 105348, Note Name: C#4
Note OFF: Time 105348, Note Name: F#4
Note ON: Time 105360, Note Name: C#4, Velocity: 20
Note ON: Time 105360, Note Name: F#4, Velocity: 24
Note OFF: Time 105588, Note Name: F#4
Note OFF: Time 105588, Note Name: C#4
Note ON: Time 105600, Note Name: C#4, Velocity: 20
Note ON: Time 105600, Note Name: F#4, Velocity: 24
Note OFF: Time 105828, Note Name: F#4
Note OFF: Time 105828, Note Name: C#4
Note OFF: Time 105840, Note Name: A#4
Note ON: Time 105840, Note Name: C4, Velocity: 23
Note ON: Time 105840, Note Name: G#4, Velocity: 43
Note ON: Time 105840, Note Name: F#4, Velocity: 28
Note OFF: Time 106068, Note Name: F#4
Note OFF: Time 106068, Note Name: C4
Note ON: Time 106080, Note Name: F#4, Velocity: 24
Note ON: Time 106080, Note Name: C4, Velocity: 20
Note OFF: Time 106308, Note Name: C4
Note OFF: Time 106308, Note Name: F#4
Note ON: Time 106320, Note Name: F#4, Velocity: 24
Note ON: Time 106320, Note Name: C4, Velocity: 20
Note OFF: Time 106548, Note Name: C4
Note OFF: Time 106548, Note Name: F#4
Note OFF: Time 106560, Note Name: G#4
Note ON: Time 106800, Note Name: C#5, Velocity: 42
Note ON: Time 106800, Note Name: G#4, Velocity: 31
Note OFF: Time 107028, Note Name: G#4
Note OFF: Time 107028, Note Name: C#5
Note ON: Time 107040, Note Name: G#4, Velocity: 28
Note ON: Time 107040, Note Name: C#5, Velocity: 33
Note ON: Time 107040, Note Name: G5, Velocity: 45
Note OFF: Time 107268, Note Name: G5
Note OFF: Time 107268, Note Name: C#5
Note OFF: Time 107268, Note Name: G#4
Note ON: Time 107280, Note Name: C#5, Velocity: 34
Note ON: Time 107280, Note Name: G#4, Velocity: 28
Note ON: Time 107280, Note Name: A#5, Velocity: 47
Note OFF: Time 107508, Note Name: A#5
Note OFF: Time 107508, Note Name: G#4
Note OFF: Time 107508, Note Name: C#5
Note ON: Time 107520, Note Name: G#4, Velocity: 27
Note ON: Time 107520, Note Name: G#5, Velocity: 45
Note ON: Time 107520, Note Name: C#5, Velocity: 32
Note OFF: Time 107748, Note Name: C#5
Note OFF: Time 107748, Note Name: G#5
Note OFF: Time 107748, Note Name: G#4
Note ON: Time 107760, Note Name: G#4, Velocity: 27
Note ON: Time 107760, Note Name: C#5, Velocity: 32
Note ON: Time 107760, Note Name: F5, Velocity: 45
Note OFF: Time 107988, Note Name: F5
Note OFF: Time 107988, Note Name: C#5
Note OFF: Time 107988, Note Name: G#4
Note ON: Time 108000, Note Name: D#4, Velocity: 30
Note ON: Time 108000, Note Name: D#5, Velocity: 51
Note ON: Time 108000, Note Name: A#4, Velocity: 37
Note OFF: Time 108228, Note Name: A#4
Note OFF: Time 108228, Note Name: D#4
Note ON: Time 108240, Note Name: A#4, Velocity: 37
Note ON: Time 108240, Note Name: D#4, Velocity: 30
Note OFF: Time 108468, Note Name: D#4
Note OFF: Time 108468, Note Name: A#4
Note ON: Time 108480, Note Name: A#4, Velocity: 37
Note ON: Time 108480, Note Name: D#4, Velocity: 30
Note OFF: Time 108708, Note Name: D#4
Note OFF: Time 108708, Note Name: A#4
Note OFF: Time 108720, Note Name: D#5
Note ON: Time 108720, Note Name: C#5, Velocity: 37
Note ON: Time 108720, Note Name: F4, Velocity: 30
Note ON: Time 108720, Note Name: F5, Velocity: 49
Note OFF: Time 108948, Note Name: F4
Note OFF: Time 108948, Note Name: C#5
Note ON: Time 108960, Note Name: F4, Velocity: 30
Note ON: Time 108960, Note Name: C#5, Velocity: 37
Note OFF: Time 109188, Note Name: C#5
Note OFF: Time 109188, Note Name: F4
Note ON: Time 109200, Note Name: F4, Velocity: 28
Note ON: Time 109200, Note Name: C#5, Velocity: 34
Note OFF: Time 109428, Note Name: C#5
Note OFF: Time 109428, Note Name: F4
Note OFF: Time 109440, Note Name: F5
Note ON: Time 109680, Note Name: D#4, Velocity: 28
Note ON: Time 109680, Note Name: A#4, Velocity: 42
Note OFF: Time 109908, Note Name: A#4
Note OFF: Time 109908, Note Name: D#4
Note ON: Time 109920, Note Name: D#4, Velocity: 28
Note ON: Time 109920, Note Name: D#5, Velocity: 45
Note ON: Time 109920, Note Name: A#4, Velocity: 33
Note OFF: Time 110148, Note Name: A#4
Note OFF: Time 110148, Note Name: D#5
Note OFF: Time 110148, Note Name: D#4
Note ON: Time 110160, Note Name: G5, Velocity: 48
Note ON: Time 110160, Note Name: A#4, Velocity: 36
Note OFF: Time 110388, Note Name: A#4
Note OFF: Time 110388, Note Name: G5
Note ON: Time 110400, Note Name: F5, Velocity: 45
Note ON: Time 110400, Note Name: A#4, Velocity: 32
Note OFF: Time 110628, Note Name: A#4
Note OFF: Time 110628, Note Name: F5
Note ON: Time 110640, Note Name: C#5, Velocity: 45
Note ON: Time 110640, Note Name: A#4, Velocity: 32
Note OFF: Time 110868, Note Name: A#4
Note OFF: Time 110868, Note Name: C#5
Note ON: Time 110880, Note Name: G#4, Velocity: 33
Note ON: Time 110880, Note Name: D#4, Velocity: 28
Note ON: Time 110880, Note Name: C5, Velocity: 47
Note OFF: Time 111108, Note Name: D#4
Note OFF: Time 111108, Note Name: G#4
Note ON: Time 111120, Note Name: D#4, Velocity: 28
Note ON: Time 111120, Note Name: G#4, Velocity: 33
Note OFF: Time 111348, Note Name: G#4
Note OFF: Time 111348, Note Name: D#4
Note ON: Time 111360, Note Name: D#4, Velocity: 28
Note ON: Time 111360, Note Name: G#4, Velocity: 33
Note OFF: Time 111588, Note Name: G#4
Note OFF: Time 111588, Note Name: D#4
Note OFF: Time 111600, Note Name: C5
Note ON: Time 111600, Note Name: C#4, Velocity: 28
Note ON: Time 111600, Note Name: C#5, Velocity: 47
Note ON: Time 111600, Note Name: G#4, Velocity: 33
Note OFF: Time 111828, Note Name: G#4
Note OFF: Time 111828, Note Name: C#4
Note ON: Time 111840, Note Name: G#4, Velocity: 31
Note ON: Time 111840, Note Name: C#4, Velocity: 26
Note OFF: Time 112068, Note Name: C#4
Note OFF: Time 112068, Note Name: G#4
Note ON: Time 112080, Note Name: G#4, Velocity: 27
Note ON: Time 112080, Note Name: C#4, Velocity: 22
Note OFF: Time 112308, Note Name: C#4
Note OFF: Time 112308, Note Name: G#4
Note OFF: Time 112320, Note Name: C#5
Note ON: Time 112560, Note Name: C#4, Velocity: 38
Note OFF: Time 112788, Note Name: C#4
Note ON: Time 112800, Note Name: C#4, Velocity: 25
Note ON: Time 112800, Note Name: G#4, Velocity: 39
Note OFF: Time 113028, Note Name: G#4
Note OFF: Time 113028, Note Name: C#4
Note ON: Time 113040, Note Name: C#4, Velocity: 23
Note ON: Time 113040, Note Name: C5, Velocity: 39
Note OFF: Time 113268, Note Name: C5
Note OFF: Time 113268, Note Name: C#4
Note ON: Time 113280, Note Name: C#4, Velocity: 23
Note ON: Time 113280, Note Name: A#4, Velocity: 39
Note OFF: Time 113508, Note Name: A#4
Note OFF: Time 113508, Note Name: C#4
Note ON: Time 113520, Note Name: G#4, Velocity: 35
Note ON: Time 113520, Note Name: C#4, Velocity: 20
Note OFF: Time 113748, Note Name: C#4
Note OFF: Time 113748, Note Name: G#4
Note ON: Time 113760, Note Name: C4, Velocity: 30
Note ON: Time 113760, Note Name: C5, Velocity: 46
Note OFF: Time 113988, Note Name: C4
Note ON: Time 114000, Note Name: C4, Velocity: 30
Note OFF: Time 114228, Note Name: C4
Note ON: Time 114240, Note Name: C4, Velocity: 30
Note OFF: Time 114468, Note Name: C4
Note ON: Time 114480, Note Name: C4, Velocity: 30
Note OFF: Time 114708, Note Name: C4
Note ON: Time 114720, Note Name: C4, Velocity: 29
Note OFF: Time 114948, Note Name: C4
Note ON: Time 114960, Note Name: C4, Velocity: 29
Note OFF: Time 115188, Note Name: C4
Note ON: Time 115200, Note Name: C#4, Velocity: 36
Note OFF: Time 115428, Note Name: C#4
Note ON: Time 115440, Note Name: C#4, Velocity: 38
Note OFF: Time 115668, Note Name: C#4
Note OFF: Time 115680, Note Name: C5
Note ON: Time 115680, Note Name: G#4, Velocity: 39
Note ON: Time 115680, Note Name: C#4, Velocity: 25
Note OFF: Time 115908, Note Name: C#4
Note OFF: Time 115908, Note Name: G#4
Note ON: Time 115920, Note Name: C5, Velocity: 39
Note ON: Time 115920, Note Name: C#4, Velocity: 23
Note OFF: Time 116148, Note Name: C#4
Note OFF: Time 116148, Note Name: C5
Note ON: Time 116160, Note Name: A#4, Velocity: 39
Note ON: Time 116160, Note Name: C#4, Velocity: 23
Note OFF: Time 116388, Note Name: C#4
Note OFF: Time 116388, Note Name: A#4
Note ON: Time 116400, Note Name: C#4, Velocity: 20
Note ON: Time 116400, Note Name: G#4, Velocity: 35
Note OFF: Time 116628, Note Name: G#4
Note OFF: Time 116628, Note Name: C#4
Note ON: Time 116640, Note Name: C5, Velocity: 46
Note ON: Time 116640, Note Name: C4, Velocity: 30
Note OFF: Time 116868, Note Name: C4
Note ON: Time 116880, Note Name: C4, Velocity: 30
Note OFF: Time 117108, Note Name: C4
Note ON: Time 117120, Note Name: C4, Velocity: 30
Note OFF: Time 117348, Note Name: C4
Note ON: Time 117360, Note Name: C#4, Velocity: 24
Note OFF: Time 117588, Note Name: C#4
Note OFF: Time 117600, Note Name: C5
Note ON: Time 117600, Note Name: C#4, Velocity: 23
Note ON: Time 117600, Note Name: A#4, Velocity: 39
Note OFF: Time 117828, Note Name: A#4
Note OFF: Time 117828, Note Name: C#4
Note ON: Time 117840, Note Name: G#4, Velocity: 35
Note ON: Time 117840, Note Name: C#4, Velocity: 20
Note OFF: Time 118068, Note Name: C#4
Note OFF: Time 118068, Note Name: G#4
Note ON: Time 118080, Note Name: C4, Velocity: 30
Note ON: Time 118080, Note Name: C5, Velocity: 46
Note OFF: Time 118308, Note Name: C4
Note ON: Time 118320, Note Name: C4, Velocity: 30
Note OFF: Time 118548, Note Name: C4
Note ON: Time 118560, Note Name: C4, Velocity: 30
Note OFF: Time 118788, Note Name: C4
Note ON: Time 118800, Note Name: C4, Velocity: 23
Note OFF: Time 119028, Note Name: C4
Note OFF: Time 119040, Note Name: C5
Note ON: Time 119040, Note Name: A#4, Velocity: 39
Note ON: Time 119040, Note Name: C4, Velocity: 23
Note OFF: Time 119268, Note Name: C4
Note OFF: Time 119268, Note Name: A#4
Note ON: Time 119280, Note Name: C4, Velocity: 20
Note ON: Time 119280, Note Name: G#4, Velocity: 35
Note OFF: Time 119508, Note Name: G#4
Note OFF: Time 119508, Note Name: C4
Note ON: Time 119520, Note Name: G#4, Velocity: 45
Note ON: Time 119760, Note Name: C4, Velocity: 30
Note OFF: Time 119988, Note Name: C4
Note ON: Time 120000, Note Name: C4, Velocity: 30
Note OFF: Time 120228, Note Name: C4
Note ON: Time 120240, Note Name: C4, Velocity: 23
Note OFF: Time 120468, Note Name: C4
Note ON: Time 120480, Note Name: A#3, Velocity: 23
Note OFF: Time 120708, Note Name: A#3
Note ON: Time 120720, Note Name: F4, Velocity: 20
Note OFF: Time 120948, Note Name: F4
Note OFF: Time 120960, Note Name: G#4
Note ON: Time 120960, Note Name: G#4, Velocity: 45
Note ON: Time 120960, Note Name: C4, Velocity: 30
Note OFF: Time 121188, Note Name: C4
Note ON: Time 121200, Note Name: C4, Velocity: 30
Note OFF: Time 121428, Note Name: C4
Note ON: Time 121440, Note Name: C4, Velocity: 30
Note OFF: Time 121668, Note Name: C4
Note ON: Time 121680, Note Name: C4, Velocity: 23
Note OFF: Time 121908, Note Name: C4
Note ON: Time 121920, Note Name: A#3, Velocity: 23
Note OFF: Time 122148, Note Name: A#3
Note ON: Time 122160, Note Name: F4, Velocity: 20
Note OFF: Time 122388, Note Name: F4
Note OFF: Time 122400, Note Name: G#4
Note ON: Time 122400, Note Name: C4, Velocity: 30
Note ON: Time 122400, Note Name: G#4, Velocity: 45
Note OFF: Time 122880, Note Name: G#4
Note OFF: Time 122880, Note Name: C4
Note ON: Time 122880, Note Name: A#3, Velocity: 30
Note OFF: Time 123108, Note Name: A#3
Note ON: Time 123120, Note Name: C4, Velocity: 23
Note ON: Time 123120, Note Name: G#4, Velocity: 45
Note OFF: Time 123600, Note Name: G#4
Note OFF: Time 123600, Note Name: C4
Note ON: Time 123600, Note Name: A#3, Velocity: 20
Note OFF: Time 123828, Note Name: A#3
Note ON: Time 123840, Note Name: C4, Velocity: 30
Note ON: Time 123840, Note Name: G#4, Velocity: 45
Note OFF: Time 124320, Note Name: G#4
Note OFF: Time 124320, Note Name: C4
Note ON: Time 124320, Note Name: A#3, Velocity: 30
Note OFF: Time 124548, Note Name: A#3
Note ON: Time 124560, Note Name: C4, Velocity: 23
Note ON: Time 124560, Note Name: G#4, Velocity: 45
Note OFF: Time 125040, Note Name: G#4
Note OFF: Time 125040, Note Name: C4
Note ON: Time 125040, Note Name: A#3, Velocity: 20
Note OFF: Time 125268, Note Name: A#3
Note ON: Time 125520, Note Name: C4, Velocity: 30
Note OFF: Time 125748, Note Name: C4
Note ON: Time 125760, Note Name: C4, Velocity: 30
Note OFF: Time 125988, Note Name: C4
Note ON: Time 126000, Note Name: C4, Velocity: 23
Note OFF: Time 126228, Note Name: C4
Note ON: Time 126240, Note Name: C4, Velocity: 23
Note OFF: Time 126468, Note Name: C4
Note ON: Time 126480, Note Name: C4, Velocity: 20
Note OFF: Time 126708, Note Name: C4
Note ON: Time 126720, Note Name: C4, Velocity: 23
Note OFF: Time 126948, Note Name: C4
Note ON: Time 126960, Note Name: C4, Velocity: 30
Note OFF: Time 127188, Note Name: C4
Note ON: Time 127200, Note Name: C4, Velocity: 30
Note OFF: Time 127428, Note Name: C4
Note ON: Time 127440, Note Name: C4, Velocity: 23
Note OFF: Time 127620, Note Name: C4
Note ON: Time 127620, Note Name: D#4, Velocity: 23
Note OFF: Time 127680, Note Name: D#4
Note ON: Time 127680, Note Name: C#4, Velocity: 23
Note OFF: Time 127908, Note Name: C#4
Note ON: Time 127920, Note Name: C4, Velocity: 20
Note OFF: Time 128148, Note Name: C4
Note ON: Time 128160, Note Name: C4, Velocity: 17
Note OFF: Time 129600, Note Name: C4
Track 2: Piano left
Note ON: Time 0, Note Name: D#3, Velocity: 17
Note ON: Time 0, Note Name: G#3, Velocity: 23
Note ON: Time 0, Note Name: D#4, Velocity: 28
Note OFF: Time 228, Note Name: D#4
Note OFF: Time 228, Note Name: G#3
Note OFF: Time 228, Note Name: D#3
Note ON: Time 240, Note Name: D#3, Velocity: 17
Note ON: Time 240, Note Name: G#3, Velocity: 24
Note ON: Time 240, Note Name: D#4, Velocity: 29
Note OFF: Time 468, Note Name: D#4
Note OFF: Time 468, Note Name: G#3
Note OFF: Time 468, Note Name: D#3
Note ON: Time 480, Note Name: D#3, Velocity: 18
Note ON: Time 480, Note Name: G#3, Velocity: 25
Note ON: Time 480, Note Name: D#4, Velocity: 30
Note OFF: Time 708, Note Name: D#4
Note OFF: Time 708, Note Name: G#3
Note OFF: Time 708, Note Name: D#3
Note ON: Time 720, Note Name: D#3, Velocity: 18
Note ON: Time 720, Note Name: G#3, Velocity: 25
Note ON: Time 720, Note Name: D#4, Velocity: 30
Note OFF: Time 948, Note Name: D#4
Note OFF: Time 948, Note Name: G#3
Note OFF: Time 948, Note Name: D#3
Note ON: Time 960, Note Name: D#3, Velocity: 20
Note ON: Time 960, Note Name: G#3, Velocity: 27
Note ON: Time 960, Note Name: D#4, Velocity: 33
Note OFF: Time 1188, Note Name: D#4
Note OFF: Time 1188, Note Name: G#3
Note OFF: Time 1188, Note Name: D#3
Note ON: Time 1200, Note Name: D#3, Velocity: 21
Note ON: Time 1200, Note Name: G#3, Velocity: 28
Note ON: Time 1200, Note Name: D#4, Velocity: 34
Note OFF: Time 1428, Note Name: D#4
Note OFF: Time 1428, Note Name: G#3
Note OFF: Time 1428, Note Name: D#3
Note ON: Time 1440, Note Name: D#3, Velocity: 22
Note ON: Time 1440, Note Name: G#3, Velocity: 29
Note ON: Time 1440, Note Name: D#4, Velocity: 35
Note OFF: Time 1668, Note Name: D#4
Note OFF: Time 1668, Note Name: G#3
Note OFF: Time 1668, Note Name: D#3
Note ON: Time 1680, Note Name: D#3, Velocity: 22
Note ON: Time 1680, Note Name: G#3, Velocity: 31
Note ON: Time 1680, Note Name: D#4, Velocity: 38
Note OFF: Time 1908, Note Name: D#4
Note OFF: Time 1908, Note Name: G#3
Note OFF: Time 1908, Note Name: D#3
Note ON: Time 1920, Note Name: D#3, Velocity: 24
Note ON: Time 1920, Note Name: G#3, Velocity: 33
Note ON: Time 1920, Note Name: D#4, Velocity: 39
Note OFF: Time 2148, Note Name: D#4
Note OFF: Time 2148, Note Name: G#3
Note OFF: Time 2148, Note Name: D#3
Note ON: Time 2160, Note Name: D#3, Velocity: 24
Note ON: Time 2160, Note Name: G#3, Velocity: 33
Note ON: Time 2160, Note Name: D#4, Velocity: 39
Note OFF: Time 2388, Note Name: D#4
Note OFF: Time 2388, Note Name: G#3
Note OFF: Time 2388, Note Name: D#3
Note ON: Time 2400, Note Name: D#3, Velocity: 22
Note ON: Time 2400, Note Name: G#3, Velocity: 31
Note ON: Time 2400, Note Name: D#4, Velocity: 37
Note OFF: Time 2628, Note Name: D#4
Note OFF: Time 2628, Note Name: G#3
Note OFF: Time 2628, Note Name: D#3
Note ON: Time 2640, Note Name: D#3, Velocity: 21
Note ON: Time 2640, Note Name: G#3, Velocity: 28
Note ON: Time 2640, Note Name: D#4, Velocity: 34
Note OFF: Time 2868, Note Name: D#4
Note OFF: Time 2868, Note Name: G#3
Note OFF: Time 2868, Note Name: D#3
Note ON: Time 2880, Note Name: D#2, Velocity: 46
Note OFF: Time 3108, Note Name: D#2
Note ON: Time 3120, Note Name: D#3, Velocity: 24
Note ON: Time 3120, Note Name: A#3, Velocity: 32
Note ON: Time 3120, Note Name: D#4, Velocity: 32
Note OFF: Time 3348, Note Name: D#4
Note OFF: Time 3348, Note Name: A#3
Note OFF: Time 3348, Note Name: D#3
Note ON: Time 3360, Note Name: D#3, Velocity: 25
Note ON: Time 3360, Note Name: A#3, Velocity: 34
Note ON: Time 3360, Note Name: D#4, Velocity: 34
Note OFF: Time 3588, Note Name: D#4
Note OFF: Time 3588, Note Name: A#3
Note OFF: Time 3588, Note Name: D#3
Note ON: Time 3600, Note Name: D#3, Velocity: 27
Note ON: Time 3600, Note Name: A#3, Velocity: 36
Note ON: Time 3600, Note Name: D#4, Velocity: 36
Note OFF: Time 3828, Note Name: D#4
Note OFF: Time 3828, Note Name: A#3
Note OFF: Time 3828, Note Name: D#3
Note ON: Time 3840, Note Name: D#3, Velocity: 25
Note ON: Time 3840, Note Name: A#3, Velocity: 34
Note ON: Time 3840, Note Name: D#4, Velocity: 34
Note OFF: Time 4068, Note Name: D#4
Note OFF: Time 4068, Note Name: A#3
Note OFF: Time 4068, Note Name: D#3
Note ON: Time 4080, Note Name: D#3, Velocity: 25
Note ON: Time 4080, Note Name: A#3, Velocity: 34
Note ON: Time 4080, Note Name: D#4, Velocity: 34
Note OFF: Time 4308, Note Name: D#4
Note OFF: Time 4308, Note Name: A#3
Note OFF: Time 4308, Note Name: D#3
Note ON: Time 4320, Note Name: G#2, Velocity: 47
Note OFF: Time 4548, Note Name: G#2
Note ON: Time 4560, Note Name: G#3, Velocity: 22
Note ON: Time 4560, Note Name: D#4, Velocity: 30
Note OFF: Time 4788, Note Name: D#4
Note OFF: Time 4788, Note Name: G#3
Note ON: Time 4800, Note Name: G#3, Velocity: 21
Note ON: Time 4800, Note Name: D#4, Velocity: 29
Note OFF: Time 5028, Note Name: D#4
Note OFF: Time 5028, Note Name: G#3
Note ON: Time 5040, Note Name: G#3, Velocity: 25
Note ON: Time 5040, Note Name: D#4, Velocity: 34
Note OFF: Time 5268, Note Name: D#4
Note OFF: Time 5268, Note Name: G#3
Note ON: Time 5280, Note Name: G#3, Velocity: 22
Note ON: Time 5280, Note Name: D#4, Velocity: 30
Note OFF: Time 5508, Note Name: D#4
Note OFF: Time 5508, Note Name: G#3
Note ON: Time 5520, Note Name: G#3, Velocity: 22
Note ON: Time 5520, Note Name: D#4, Velocity: 30
Note OFF: Time 5748, Note Name: D#4
Note OFF: Time 5748, Note Name: G#3
Note ON: Time 5760, Note Name: C#3, Velocity: 47
Note OFF: Time 5988, Note Name: C#3
Note ON: Time 6000, Note Name: G#3, Velocity: 21
Note ON: Time 6000, Note Name: C#4, Velocity: 28
Note ON: Time 6000, Note Name: F4, Velocity: 34
Note OFF: Time 6228, Note Name: F4
Note OFF: Time 6228, Note Name: C#4
Note OFF: Time 6228, Note Name: G#3
Note ON: Time 6240, Note Name: G#3, Velocity: 21
Note ON: Time 6240, Note Name: C#4, Velocity: 28
Note ON: Time 6240, Note Name: F4, Velocity: 34
Note OFF: Time 6468, Note Name: F4
Note OFF: Time 6468, Note Name: C#4
Note OFF: Time 6468, Note Name: G#3
Note ON: Time 6480, Note Name: G#3, Velocity: 22
Note ON: Time 6480, Note Name: C#4, Velocity: 30
Note ON: Time 6480, Note Name: F4, Velocity: 36
Note OFF: Time 6708, Note Name: F4
Note OFF: Time 6708, Note Name: C#4
Note OFF: Time 6708, Note Name: G#3
Note ON: Time 6720, Note Name: G#3, Velocity: 21
Note ON: Time 6720, Note Name: C#4, Velocity: 28
Note ON: Time 6720, Note Name: F4, Velocity: 34
Note OFF: Time 6948, Note Name: F4
Note OFF: Time 6948, Note Name: C#4
Note OFF: Time 6948, Note Name: G#3
Note ON: Time 6960, Note Name: G#3, Velocity: 21
Note ON: Time 6960, Note Name: C#4, Velocity: 28
Note ON: Time 6960, Note Name: F4, Velocity: 34
Note OFF: Time 7188, Note Name: F4
Note OFF: Time 7188, Note Name: C#4
Note OFF: Time 7188, Note Name: G#3
Note ON: Time 7200, Note Name: D#3, Velocity: 47
Note OFF: Time 7428, Note Name: D#3
Note ON: Time 7440, Note Name: A#3, Velocity: 18
Note ON: Time 7440, Note Name: C#4, Velocity: 24
Note ON: Time 7440, Note Name: G4, Velocity: 29
Note OFF: Time 7668, Note Name: G4
Note OFF: Time 7668, Note Name: C#4
Note OFF: Time 7668, Note Name: A#3
Note ON: Time 7680, Note Name: A#3, Velocity: 18
Note ON: Time 7680, Note Name: C#4, Velocity: 25
Note ON: Time 7680, Note Name: G4, Velocity: 30
Note OFF: Time 7908, Note Name: G4
Note OFF: Time 7908, Note Name: C#4
Note OFF: Time 7908, Note Name: A#3
Note ON: Time 7920, Note Name: C#3, Velocity: 47
Note OFF: Time 8148, Note Name: C#3
Note ON: Time 8160, Note Name: G#3, Velocity: 16
Note ON: Time 8160, Note Name: C#4, Velocity: 22
Note ON: Time 8160, Note Name: G#4, Velocity: 27
Note OFF: Time 8388, Note Name: G#4
Note OFF: Time 8388, Note Name: C#4
Note OFF: Time 8388, Note Name: G#3
Note ON: Time 8400, Note Name: G#3, Velocity: 16
Note ON: Time 8400, Note Name: C#4, Velocity: 22
Note ON: Time 8400, Note Name: G#4, Velocity: 27
Note OFF: Time 8628, Note Name: G#4
Note OFF: Time 8628, Note Name: C#4
Note OFF: Time 8628, Note Name: G#3
Note ON: Time 8640, Note Name: D#3, Velocity: 47
Note OFF: Time 8868, Note Name: D#3
Note ON: Time 8880, Note Name: A#3, Velocity: 21
Note ON: Time 8880, Note Name: C#4, Velocity: 28
Note ON: Time 8880, Note Name: G4, Velocity: 34
Note OFF: Time 9108, Note Name: G4
Note OFF: Time 9108, Note Name: C#4
Note OFF: Time 9108, Note Name: A#3
Note ON: Time 9120, Note Name: A#3, Velocity: 21
Note ON: Time 9120, Note Name: C#4, Velocity: 28
Note ON: Time 9120, Note Name: G4, Velocity: 34
Note OFF: Time 9348, Note Name: G4
Note OFF: Time 9348, Note Name: C#4
Note OFF: Time 9348, Note Name: A#3
Note ON: Time 9360, Note Name: A#3, Velocity: 22
Note ON: Time 9360, Note Name: C#4, Velocity: 30
Note ON: Time 9360, Note Name: G4, Velocity: 36
Note OFF: Time 9588, Note Name: G4
Note OFF: Time 9588, Note Name: C#4
Note OFF: Time 9588, Note Name: A#3
Note ON: Time 9600, Note Name: A#3, Velocity: 21
Note ON: Time 9600, Note Name: C#4, Velocity: 28
Note ON: Time 9600, Note Name: G4, Velocity: 34
Note OFF: Time 9828, Note Name: G4
Note OFF: Time 9828, Note Name: C#4
Note OFF: Time 9828, Note Name: A#3
Note ON: Time 9840, Note Name: A#3, Velocity: 21
Note ON: Time 9840, Note Name: C#4, Velocity: 28
Note ON: Time 9840, Note Name: G4, Velocity: 34
Note OFF: Time 10068, Note Name: G4
Note OFF: Time 10068, Note Name: C#4
Note OFF: Time 10068, Note Name: A#3
Note ON: Time 10080, Note Name: F3, Velocity: 47
Note ON: Time 10320, Note Name: C4, Velocity: 21
Note ON: Time 10320, Note Name: F4, Velocity: 29
Note OFF: Time 10548, Note Name: F4
Note OFF: Time 10548, Note Name: C4
Note ON: Time 10560, Note Name: C4, Velocity: 22
Note ON: Time 10560, Note Name: F4, Velocity: 30
Note OFF: Time 10788, Note Name: F4
Note OFF: Time 10788, Note Name: C4
Note OFF: Time 10800, Note Name: F3
Note ON: Time 10800, Note Name: A#2, Velocity: 39
Note OFF: Time 11028, Note Name: A#2
Note ON: Time 11040, Note Name: F3, Velocity: 13
Note ON: Time 11040, Note Name: A#3, Velocity: 15
Note ON: Time 11040, Note Name: F4, Velocity: 18
Note OFF: Time 11268, Note Name: F4
Note OFF: Time 11268, Note Name: A#3
Note OFF: Time 11268, Note Name: F3
Note ON: Time 11280, Note Name: F3, Velocity: 13
Note ON: Time 11280, Note Name: A#3, Velocity: 15
Note ON: Time 11280, Note Name: F4, Velocity: 18
Note OFF: Time 11508, Note Name: F4
Note OFF: Time 11508, Note Name: A#3
Note OFF: Time 11508, Note Name: F3
Note ON: Time 11520, Note Name: D#3, Velocity: 39
Note ON: Time 11760, Note Name: A#3, Velocity: 21
Note ON: Time 11760, Note Name: F4, Velocity: 28
Note OFF: Time 11988, Note Name: F4
Note OFF: Time 11988, Note Name: A#3
Note ON: Time 12000, Note Name: A#3, Velocity: 21
Note ON: Time 12000, Note Name: D#4, Velocity: 28
Note OFF: Time 12228, Note Name: D#4
Note OFF: Time 12228, Note Name: A#3
Note OFF: Time 12240, Note Name: D#3
Note ON: Time 12240, Note Name: G#2, Velocity: 39
Note OFF: Time 12468, Note Name: G#2
Note ON: Time 12480, Note Name: D#3, Velocity: 17
Note ON: Time 12480, Note Name: G#3, Velocity: 23
Note ON: Time 12480, Note Name: D#4, Velocity: 28
Note OFF: Time 12708, Note Name: D#4
Note OFF: Time 12708, Note Name: G#3
Note OFF: Time 12708, Note Name: D#3
Note ON: Time 12720, Note Name: D#3, Velocity: 15
Note ON: Time 12720, Note Name: G#3, Velocity: 21
Note ON: Time 12720, Note Name: D#4, Velocity: 25
Note OFF: Time 12948, Note Name: D#4
Note OFF: Time 12948, Note Name: G#3
Note OFF: Time 12948, Note Name: D#3
Note ON: Time 12960, Note Name: D#2, Velocity: 39
Note OFF: Time 13188, Note Name: D#2
Note ON: Time 13200, Note Name: D#3, Velocity: 18
Note ON: Time 13200, Note Name: D#4, Velocity: 25
Note OFF: Time 13428, Note Name: D#4
Note OFF: Time 13428, Note Name: D#3
Note ON: Time 13440, Note Name: D#3, Velocity: 17
Note ON: Time 13440, Note Name: D#4, Velocity: 23
Note OFF: Time 13668, Note Name: D#4
Note OFF: Time 13668, Note Name: D#3
Note ON: Time 13680, Note Name: D#3, Velocity: 18
Note ON: Time 13680, Note Name: D#4, Velocity: 25
Note OFF: Time 13908, Note Name: D#4
Note OFF: Time 13908, Note Name: D#3
Note ON: Time 13920, Note Name: D#3, Velocity: 17
Note ON: Time 13920, Note Name: D#4, Velocity: 23
Note OFF: Time 14148, Note Name: D#4
Note OFF: Time 14148, Note Name: D#3
Note ON: Time 14160, Note Name: D#3, Velocity: 17
Note ON: Time 14160, Note Name: D#4, Velocity: 23
Note OFF: Time 14388, Note Name: D#4
Note OFF: Time 14388, Note Name: D#3
Note ON: Time 14400, Note Name: D#2, Velocity: 69
Note OFF: Time 14628, Note Name: D#2
Note ON: Time 14640, Note Name: D#3, Velocity: 28
Note ON: Time 14640, Note Name: A#3, Velocity: 39
Note ON: Time 14640, Note Name: D#4, Velocity: 39
Note OFF: Time 14868, Note Name: D#4
Note OFF: Time 14868, Note Name: A#3
Note OFF: Time 14868, Note Name: D#3
Note ON: Time 14880, Note Name: D#3, Velocity: 30
Note ON: Time 14880, Note Name: A#3, Velocity: 42
Note ON: Time 14880, Note Name: D#4, Velocity: 42
Note OFF: Time 15108, Note Name: D#4
Note OFF: Time 15108, Note Name: A#3
Note OFF: Time 15108, Note Name: D#3
Note ON: Time 15120, Note Name: D#3, Velocity: 32
Note ON: Time 15120, Note Name: A#3, Velocity: 44
Note ON: Time 15120, Note Name: D#4, Velocity: 44
Note OFF: Time 15348, Note Name: D#4
Note OFF: Time 15348, Note Name: A#3
Note OFF: Time 15348, Note Name: D#3
Note ON: Time 15360, Note Name: D#3, Velocity: 30
Note ON: Time 15360, Note Name: A#3, Velocity: 42
Note ON: Time 15360, Note Name: D#4, Velocity: 42
Note OFF: Time 15588, Note Name: D#4
Note OFF: Time 15588, Note Name: A#3
Note OFF: Time 15588, Note Name: D#3
Note ON: Time 15600, Note Name: D#3, Velocity: 30
Note ON: Time 15600, Note Name: A#3, Velocity: 42
Note ON: Time 15600, Note Name: D#4, Velocity: 42
Note OFF: Time 15828, Note Name: D#4
Note OFF: Time 15828, Note Name: A#3
Note OFF: Time 15828, Note Name: D#3
Note ON: Time 15840, Note Name: G#2, Velocity: 66
Note OFF: Time 16068, Note Name: G#2
Note ON: Time 16080, Note Name: D#3, Velocity: 32
Note ON: Time 16080, Note Name: G#3, Velocity: 32
Note ON: Time 16080, Note Name: D#4, Velocity: 43
Note OFF: Time 16308, Note Name: D#4
Note OFF: Time 16308, Note Name: G#3
Note OFF: Time 16308, Note Name: D#3
Note ON: Time 16320, Note Name: D#3, Velocity: 32
Note ON: Time 16320, Note Name: G#3, Velocity: 32
Note ON: Time 16320, Note Name: D#4, Velocity: 42
Note OFF: Time 16548, Note Name: D#4
Note OFF: Time 16548, Note Name: G#3
Note OFF: Time 16548, Note Name: D#3
Note ON: Time 16560, Note Name: D#3, Velocity: 36
Note ON: Time 16560, Note Name: G#3, Velocity: 36
Note ON: Time 16560, Note Name: D#4, Velocity: 50
Note OFF: Time 16788, Note Name: D#4
Note OFF: Time 16788, Note Name: G#3
Note OFF: Time 16788, Note Name: D#3
Note ON: Time 16800, Note Name: D#3, Velocity: 32
Note ON: Time 16800, Note Name: G#3, Velocity: 32
Note ON: Time 16800, Note Name: D#4, Velocity: 43
Note OFF: Time 17028, Note Name: D#4
Note OFF: Time 17028, Note Name: G#3
Note OFF: Time 17028, Note Name: D#3
Note ON: Time 17040, Note Name: D#3, Velocity: 32
Note ON: Time 17040, Note Name: G#3, Velocity: 32
Note ON: Time 17040, Note Name: D#4, Velocity: 43
Note OFF: Time 17268, Note Name: D#4
Note OFF: Time 17268, Note Name: G#3
Note OFF: Time 17268, Note Name: D#3
Note ON: Time 17280, Note Name: C#2, Velocity: 71
Note OFF: Time 17508, Note Name: C#2
Note ON: Time 17520, Note Name: F3, Velocity: 20
Note ON: Time 17520, Note Name: G#3, Velocity: 20
Note ON: Time 17520, Note Name: C#4, Velocity: 34
Note ON: Time 17520, Note Name: F4, Velocity: 41
Note OFF: Time 17748, Note Name: F4
Note OFF: Time 17748, Note Name: F3
Note OFF: Time 17748, Note Name: G#3
Note OFF: Time 17748, Note Name: C#4
Note ON: Time 17760, Note Name: F3, Velocity: 20
Note ON: Time 17760, Note Name: G#3, Velocity: 20
Note ON: Time 17760, Note Name: C#4, Velocity: 34
Note ON: Time 17760, Note Name: F4, Velocity: 41
Note OFF: Time 17988, Note Name: F4
Note OFF: Time 17988, Note Name: F3
Note OFF: Time 17988, Note Name: G#3
Note OFF: Time 17988, Note Name: C#4
Note ON: Time 18000, Note Name: F3, Velocity: 22
Note ON: Time 18000, Note Name: G#3, Velocity: 22
Note ON: Time 18000, Note Name: C#4, Velocity: 36
Note ON: Time 18000, Note Name: F4, Velocity: 45
Note OFF: Time 18228, Note Name: F4
Note OFF: Time 18228, Note Name: F3
Note OFF: Time 18228, Note Name: G#3
Note OFF: Time 18228, Note Name: C#4
Note ON: Time 18240, Note Name: F3, Velocity: 20
Note ON: Time 18240, Note Name: G#3, Velocity: 20
Note ON: Time 18240, Note Name: C#4, Velocity: 34
Note ON: Time 18240, Note Name: F4, Velocity: 41
Note OFF: Time 18468, Note Name: F4
Note OFF: Time 18468, Note Name: F3
Note OFF: Time 18468, Note Name: G#3
Note OFF: Time 18468, Note Name: C#4
Note ON: Time 18480, Note Name: F3, Velocity: 20
Note ON: Time 18480, Note Name: G#3, Velocity: 20
Note ON: Time 18480, Note Name: C#4, Velocity: 34
Note ON: Time 18480, Note Name: F4, Velocity: 41
Note OFF: Time 18708, Note Name: F4
Note OFF: Time 18708, Note Name: F3
Note OFF: Time 18708, Note Name: G#3
Note OFF: Time 18708, Note Name: C#4
Note ON: Time 18720, Note Name: D#3, Velocity: 65
Note OFF: Time 18948, Note Name: D#3
Note ON: Time 18960, Note Name: A#3, Velocity: 19
Note ON: Time 18960, Note Name: C#4, Velocity: 27
Note ON: Time 18960, Note Name: G4, Velocity: 33
Note OFF: Time 19188, Note Name: G4
Note OFF: Time 19188, Note Name: C#4
Note OFF: Time 19188, Note Name: A#3
Note ON: Time 19200, Note Name: A#3, Velocity: 20
Note ON: Time 19200, Note Name: C#4, Velocity: 28
Note ON: Time 19200, Note Name: G4, Velocity: 34
Note OFF: Time 19428, Note Name: G4
Note OFF: Time 19428, Note Name: C#4
Note OFF: Time 19428, Note Name: A#3
Note ON: Time 19440, Note Name: C#3, Velocity: 57
Note OFF: Time 19668, Note Name: C#3
Note ON: Time 19680, Note Name: G#3, Velocity: 18
Note ON: Time 19680, Note Name: C#4, Velocity: 25
Note ON: Time 19680, Note Name: G#4, Velocity: 30
Note OFF: Time 19908, Note Name: G#4
Note OFF: Time 19908, Note Name: C#4
Note OFF: Time 19908, Note Name: G#3
Note ON: Time 19920, Note Name: G#3, Velocity: 18
Note ON: Time 19920, Note Name: C#4, Velocity: 25
Note ON: Time 19920, Note Name: G#4, Velocity: 30
Note OFF: Time 20148, Note Name: G#4
Note OFF: Time 20148, Note Name: C#4
Note OFF: Time 20148, Note Name: G#3
Note ON: Time 20160, Note Name: D#3, Velocity: 69
Note OFF: Time 20388, Note Name: D#3
Note ON: Time 20400, Note Name: A#3, Velocity: 25
Note ON: Time 20400, Note Name: C#4, Velocity: 34
Note ON: Time 20400, Note Name: G4, Velocity: 41
Note OFF: Time 20628, Note Name: G4
Note OFF: Time 20628, Note Name: C#4
Note OFF: Time 20628, Note Name: A#3
Note ON: Time 20640, Note Name: A#3, Velocity: 25
Note ON: Time 20640, Note Name: C#4, Velocity: 34
Note ON: Time 20640, Note Name: G4, Velocity: 41
Note OFF: Time 20868, Note Name: G4
Note OFF: Time 20868, Note Name: C#4
Note OFF: Time 20868, Note Name: A#3
Note ON: Time 20880, Note Name: D#4, Velocity: 36
Note ON: Time 20880, Note Name: A#3, Velocity: 27
Note ON: Time 20880, Note Name: C#4, Velocity: 36
Note ON: Time 20880, Note Name: G4, Velocity: 45
Note OFF: Time 21108, Note Name: G4
Note OFF: Time 21108, Note Name: D#4
Note OFF: Time 21108, Note Name: A#3
Note OFF: Time 21108, Note Name: C#4
Note ON: Time 21120, Note Name: D#4, Velocity: 34
Note ON: Time 21120, Note Name: A#3, Velocity: 25
Note ON: Time 21120, Note Name: C#4, Velocity: 34
Note ON: Time 21120, Note Name: G4, Velocity: 41
Note OFF: Time 21348, Note Name: G4
Note OFF: Time 21348, Note Name: D#4
Note OFF: Time 21348, Note Name: A#3
Note OFF: Time 21348, Note Name: C#4
Note ON: Time 21360, Note Name: A#3, Velocity: 25
Note ON: Time 21360, Note Name: C#4, Velocity: 34
Note ON: Time 21360, Note Name: G4, Velocity: 41
Note OFF: Time 21588, Note Name: G4
Note OFF: Time 21588, Note Name: C#4
Note OFF: Time 21588, Note Name: A#3
Note ON: Time 21600, Note Name: F2, Velocity: 68
Note OFF: Time 21828, Note Name: F2
Note ON: Time 21840, Note Name: F3, Velocity: 24
Note ON: Time 21840, Note Name: C4, Velocity: 24
Note ON: Time 21840, Note Name: F4, Velocity: 33
Note OFF: Time 22068, Note Name: F4
Note OFF: Time 22068, Note Name: C4
Note OFF: Time 22068, Note Name: F3
Note ON: Time 22080, Note Name: F3, Velocity: 25
Note ON: Time 22080, Note Name: C4, Velocity: 25
Note ON: Time 22080, Note Name: F4, Velocity: 34
Note OFF: Time 22308, Note Name: F4
Note OFF: Time 22308, Note Name: C4
Note OFF: Time 22308, Note Name: F3
Note ON: Time 22320, Note Name: A#2, Velocity: 57
Note OFF: Time 22548, Note Name: A#2
Note ON: Time 22560, Note Name: F3, Velocity: 21
Note ON: Time 22560, Note Name: A#3, Velocity: 24
Note ON: Time 22560, Note Name: F4, Velocity: 29
Note OFF: Time 22788, Note Name: F4
Note OFF: Time 22788, Note Name: A#3
Note OFF: Time 22788, Note Name: F3
Note ON: Time 22800, Note Name: F3, Velocity: 21
Note ON: Time 22800, Note Name: A#3, Velocity: 24
Note ON: Time 22800, Note Name: F4, Velocity: 29
Note OFF: Time 23028, Note Name: F4
Note OFF: Time 23028, Note Name: A#3
Note OFF: Time 23028, Note Name: F3
Note ON: Time 23040, Note Name: D#3, Velocity: 57
Note OFF: Time 23268, Note Name: D#3
Note ON: Time 23280, Note Name: F3, Velocity: 27
Note ON: Time 23280, Note Name: A#3, Velocity: 30
Note ON: Time 23280, Note Name: F4, Velocity: 36
Note OFF: Time 23508, Note Name: F4
Note OFF: Time 23508, Note Name: A#3
Note OFF: Time 23508, Note Name: F3
Note ON: Time 23520, Note Name: F3, Velocity: 27
Note ON: Time 23520, Note Name: A#3, Velocity: 30
Note ON: Time 23520, Note Name: F4, Velocity: 36
Note OFF: Time 23748, Note Name: F4
Note OFF: Time 23748, Note Name: A#3
Note OFF: Time 23748, Note Name: F3
Note ON: Time 23760, Note Name: D#2, Velocity: 39
Note OFF: Time 23988, Note Name: D#2
Note ON: Time 24000, Note Name: D#3, Velocity: 18
Note ON: Time 24000, Note Name: A#3, Velocity: 25
Note ON: Time 24000, Note Name: D#4, Velocity: 30
Note OFF: Time 24228, Note Name: D#4
Note OFF: Time 24228, Note Name: A#3
Note OFF: Time 24228, Note Name: D#3
Note ON: Time 24240, Note Name: D#3, Velocity: 14
Note ON: Time 24240, Note Name: A#3, Velocity: 20
Note ON: Time 24240, Note Name: D#4, Velocity: 23
Note OFF: Time 24468, Note Name: D#4
Note OFF: Time 24468, Note Name: A#3
Note OFF: Time 24468, Note Name: D#3
Note ON: Time 24480, Note Name: G#2, Velocity: 39
Note OFF: Time 24708, Note Name: G#2
Note ON: Time 24720, Note Name: G#3, Velocity: 20
Note ON: Time 24720, Note Name: D#3, Velocity: 13
Note ON: Time 24720, Note Name: D#4, Velocity: 23
Note OFF: Time 24948, Note Name: D#4
Note OFF: Time 24948, Note Name: D#3
Note OFF: Time 24948, Note Name: G#3
Note ON: Time 24960, Note Name: G#3, Velocity: 18
Note ON: Time 24960, Note Name: D#3, Velocity: 12
Note ON: Time 24960, Note Name: D#4, Velocity: 22
Note OFF: Time 25188, Note Name: D#4
Note OFF: Time 25188, Note Name: D#3
Note OFF: Time 25188, Note Name: G#3
Note ON: Time 25200, Note Name: G#3, Velocity: 20
Note ON: Time 25200, Note Name: D#3, Velocity: 13
Note ON: Time 25200, Note Name: D#4, Velocity: 23
Note OFF: Time 25428, Note Name: D#4
Note OFF: Time 25428, Note Name: D#3
Note OFF: Time 25428, Note Name: G#3
Note ON: Time 25440, Note Name: G#3, Velocity: 18
Note ON: Time 25440, Note Name: D#3, Velocity: 12
Note ON: Time 25440, Note Name: D#4, Velocity: 22
Note OFF: Time 25668, Note Name: D#4
Note OFF: Time 25668, Note Name: D#3
Note OFF: Time 25668, Note Name: G#3
Note ON: Time 25680, Note Name: G#3, Velocity: 18
Note ON: Time 25680, Note Name: D#3, Velocity: 12
Note ON: Time 25680, Note Name: D#4, Velocity: 22
Note OFF: Time 25908, Note Name: D#4
Note OFF: Time 25908, Note Name: D#3
Note OFF: Time 25908, Note Name: G#3
Note ON: Time 25920, Note Name: E2, Velocity: 28
Note OFF: Time 26148, Note Name: E2
Note ON: Time 26160, Note Name: E3, Velocity: 18
Note ON: Time 26160, Note Name: B3, Velocity: 21
Note ON: Time 26160, Note Name: E4, Velocity: 25
Note OFF: Time 26388, Note Name: E4
Note OFF: Time 26388, Note Name: B3
Note OFF: Time 26388, Note Name: E3
Note ON: Time 26400, Note Name: E3, Velocity: 18
Note ON: Time 26400, Note Name: B3, Velocity: 21
Note ON: Time 26400, Note Name: E4, Velocity: 25
Note OFF: Time 26628, Note Name: E4
Note OFF: Time 26628, Note Name: B3
Note OFF: Time 26628, Note Name: E3
Note ON: Time 26640, Note Name: E3, Velocity: 18
Note ON: Time 26640, Note Name: B3, Velocity: 21
Note ON: Time 26640, Note Name: E4, Velocity: 25
Note OFF: Time 26868, Note Name: E4
Note OFF: Time 26868, Note Name: B3
Note OFF: Time 26868, Note Name: E3
Note ON: Time 26880, Note Name: E3, Velocity: 18
Note ON: Time 26880, Note Name: B3, Velocity: 21
Note ON: Time 26880, Note Name: E4, Velocity: 25
Note OFF: Time 27108, Note Name: B3
Note OFF: Time 27108, Note Name: E3
Note OFF: Time 27115, Note Name: E4
Note ON: Time 27120, Note Name: E3, Velocity: 16
Note ON: Time 27120, Note Name: B3, Velocity: 22
Note OFF: Time 27348, Note Name: B3
Note OFF: Time 27348, Note Name: E3
Note ON: Time 27360, Note Name: A2, Velocity: 34
Note OFF: Time 27588, Note Name: A2
Note ON: Time 27600, Note Name: E3, Velocity: 20
Note ON: Time 27600, Note Name: A3, Velocity: 29
Note ON: Time 27600, Note Name: E4, Velocity: 39
Note OFF: Time 27828, Note Name: E4
Note OFF: Time 27828, Note Name: A3
Note OFF: Time 27828, Note Name: E3
Note ON: Time 27840, Note Name: F3, Velocity: 23
Note ON: Time 27840, Note Name: A3, Velocity: 31
Note ON: Time 27840, Note Name: F4, Velocity: 42
Note OFF: Time 28068, Note Name: F4
Note OFF: Time 28068, Note Name: A3
Note OFF: Time 28068, Note Name: F3
Note ON: Time 28080, Note Name: F3, Velocity: 25
Note ON: Time 28080, Note Name: A3, Velocity: 34
Note ON: Time 28080, Note Name: F4, Velocity: 45
Note OFF: Time 28308, Note Name: F4
Note OFF: Time 28308, Note Name: A3
Note OFF: Time 28308, Note Name: F3
Note ON: Time 28320, Note Name: F#3, Velocity: 26
Note ON: Time 28320, Note Name: A3, Velocity: 35
Note ON: Time 28320, Note Name: F#4, Velocity: 48
Note OFF: Time 28548, Note Name: F#4
Note OFF: Time 28548, Note Name: A3
Note OFF: Time 28548, Note Name: F#3
Note ON: Time 28560, Note Name: A3, Velocity: 38
Note ON: Time 28560, Note Name: G3, Velocity: 28
Note ON: Time 28560, Note Name: G4, Velocity: 51
Note OFF: Time 28788, Note Name: G4
Note OFF: Time 28788, Note Name: G3
Note OFF: Time 28788, Note Name: A3
Note ON: Time 28800, Note Name: G#2, Velocity: 42
Note OFF: Time 29028, Note Name: G#2
Note ON: Time 29040, Note Name: G#3, Velocity: 28
Note ON: Time 29040, Note Name: D#4, Velocity: 31
Note ON: Time 29040, Note Name: F#4, Velocity: 38
Note OFF: Time 29268, Note Name: F#4
Note OFF: Time 29268, Note Name: D#4
Note OFF: Time 29268, Note Name: G#3
Note ON: Time 29280, Note Name: G#3, Velocity: 28
Note ON: Time 29280, Note Name: D#4, Velocity: 31
Note ON: Time 29280, Note Name: F#4, Velocity: 38
Note OFF: Time 29508, Note Name: F#4
Note OFF: Time 29508, Note Name: D#4
Note OFF: Time 29508, Note Name: G#3
Note ON: Time 29520, Note Name: G#3, Velocity: 28
Note ON: Time 29520, Note Name: D#4, Velocity: 31
Note ON: Time 29520, Note Name: F#4, Velocity: 38
Note OFF: Time 29748, Note Name: F#4
Note OFF: Time 29748, Note Name: D#4
Note OFF: Time 29748, Note Name: G#3
Note ON: Time 29760, Note Name: G#3, Velocity: 26
Note ON: Time 29760, Note Name: D#4, Velocity: 29
Note ON: Time 29760, Note Name: F#4, Velocity: 36
Note OFF: Time 29988, Note Name: F#4
Note OFF: Time 29988, Note Name: D#4
Note OFF: Time 29988, Note Name: G#3
Note ON: Time 30000, Note Name: F#4, Velocity: 36
Note ON: Time 30000, Note Name: G#3, Velocity: 23
Note ON: Time 30000, Note Name: D#4, Velocity: 32
Note OFF: Time 30228, Note Name: D#4
Note OFF: Time 30228, Note Name: G#3
Note OFF: Time 30228, Note Name: F#4
Note ON: Time 30240, Note Name: C#3, Velocity: 39
Note OFF: Time 30468, Note Name: C#3
Note ON: Time 30480, Note Name: G3, Velocity: 23
Note ON: Time 30480, Note Name: C#4, Velocity: 31
Note ON: Time 30480, Note Name: G4, Velocity: 42
Note OFF: Time 30708, Note Name: G4
Note OFF: Time 30708, Note Name: C#4
Note OFF: Time 30708, Note Name: G3
Note ON: Time 30720, Note Name: G#3, Velocity: 25
Note ON: Time 30720, Note Name: C#4, Velocity: 34
Note ON: Time 30720, Note Name: G#4, Velocity: 45
Note OFF: Time 30948, Note Name: G#4
Note OFF: Time 30948, Note Name: C#4
Note OFF: Time 30948, Note Name: G#3
Note ON: Time 30960, Note Name: G#3, Velocity: 27
Note ON: Time 30960, Note Name: C#4, Velocity: 37
Note ON: Time 30960, Note Name: G#4, Velocity: 50
Note OFF: Time 31188, Note Name: G#4
Note OFF: Time 31188, Note Name: C#4
Note OFF: Time 31188, Note Name: G#3
Note ON: Time 31200, Note Name: A3, Velocity: 27
Note ON: Time 31200, Note Name: C#4, Velocity: 39
Note ON: Time 31200, Note Name: A4, Velocity: 53
Note OFF: Time 31428, Note Name: A4
Note OFF: Time 31428, Note Name: C#4
Note OFF: Time 31428, Note Name: A3
Note ON: Time 31440, Note Name: C4, Velocity: 42
Note ON: Time 31440, Note Name: A#3, Velocity: 31
Note ON: Time 31440, Note Name: A#4, Velocity: 56
Note OFF: Time 31668, Note Name: A#4
Note OFF: Time 31668, Note Name: A#3
Note OFF: Time 31668, Note Name: C4
Note ON: Time 31680, Note Name: B2, Velocity: 67
Note OFF: Time 31908, Note Name: B2
Note ON: Time 31920, Note Name: B3, Velocity: 29
Note ON: Time 31920, Note Name: F#4, Velocity: 33
Note ON: Time 31920, Note Name: A4, Velocity: 39
Note OFF: Time 32148, Note Name: A4
Note OFF: Time 32148, Note Name: F#4
Note OFF: Time 32148, Note Name: B3
Note ON: Time 32160, Note Name: D#4, Velocity: 33
Note ON: Time 32160, Note Name: B3, Velocity: 29
Note ON: Time 32160, Note Name: F#4, Velocity: 33
Note ON: Time 32160, Note Name: A4, Velocity: 39
Note OFF: Time 32388, Note Name: A4
Note OFF: Time 32388, Note Name: D#4
Note OFF: Time 32388, Note Name: B3
Note OFF: Time 32388, Note Name: F#4
Note ON: Time 32400, Note Name: D#4, Velocity: 33
Note ON: Time 32400, Note Name: B3, Velocity: 29
Note ON: Time 32400, Note Name: F#4, Velocity: 33
Note ON: Time 32400, Note Name: A4, Velocity: 39
Note OFF: Time 32628, Note Name: A4
Note OFF: Time 32628, Note Name: D#4
Note OFF: Time 32628, Note Name: B3
Note OFF: Time 32628, Note Name: F#4
Note ON: Time 32640, Note Name: C#4, Velocity: 33
Note ON: Time 32640, Note Name: B3, Velocity: 29
Note ON: Time 32640, Note Name: F#4, Velocity: 33
Note ON: Time 32640, Note Name: A4, Velocity: 39
Note OFF: Time 32868, Note Name: A4
Note OFF: Time 32868, Note Name: C#4
Note OFF: Time 32868, Note Name: B3
Note OFF: Time 32868, Note Name: F#4
Note ON: Time 32880, Note Name: D#4, Velocity: 29
Note ON: Time 32880, Note Name: A4, Velocity: 39
Note ON: Time 32880, Note Name: B3, Velocity: 26
Note ON: Time 32880, Note Name: F#4, Velocity: 35
Note OFF: Time 33108, Note Name: F#4
Note OFF: Time 33108, Note Name: D#4
Note OFF: Time 33108, Note Name: A4
Note OFF: Time 33108, Note Name: B3
Note ON: Time 33120, Note Name: E3, Velocity: 52
Note OFF: Time 33348, Note Name: E3
Note ON: Time 33360, Note Name: B3, Velocity: 35
Note ON: Time 33360, Note Name: E4, Velocity: 35
Note ON: Time 33360, Note Name: B4, Velocity: 41
Note OFF: Time 33588, Note Name: B4
Note OFF: Time 33588, Note Name: E4
Note OFF: Time 33588, Note Name: B3
Note ON: Time 33600, Note Name: A#3, Velocity: 29
Note ON: Time 33600, Note Name: E4, Velocity: 33
Note ON: Time 33600, Note Name: A#4, Velocity: 40
Note OFF: Time 33828, Note Name: A#4
Note OFF: Time 33828, Note Name: E4
Note OFF: Time 33828, Note Name: A#3
Note ON: Time 33840, Note Name: D#3, Velocity: 52
Note OFF: Time 34068, Note Name: D#3
Note ON: Time 34080, Note Name: A#3, Velocity: 27
Note ON: Time 34080, Note Name: D#4, Velocity: 31
Note ON: Time 34080, Note Name: A#4, Velocity: 36
Note OFF: Time 34308, Note Name: A#4
Note OFF: Time 34308, Note Name: D#4
Note OFF: Time 34308, Note Name: A#3
Note ON: Time 34320, Note Name: A#3, Velocity: 23
Note ON: Time 34320, Note Name: A#4, Velocity: 35
Note ON: Time 34320, Note Name: D#4, Velocity: 31
Note OFF: Time 34548, Note Name: D#4
Note OFF: Time 34548, Note Name: A#4
Note OFF: Time 34548, Note Name: A#3
Note ON: Time 34560, Note Name: D3, Velocity: 38
Note OFF: Time 34788, Note Name: D3
Note ON: Time 34800, Note Name: A3, Velocity: 20
Note ON: Time 34800, Note Name: D4, Velocity: 22
Note ON: Time 34800, Note Name: A4, Velocity: 28
Note OFF: Time 35028, Note Name: A4
Note OFF: Time 35028, Note Name: D4
Note OFF: Time 35028, Note Name: A3
Note ON: Time 35040, Note Name: G#3, Velocity: 20
Note ON: Time 35040, Note Name: D4, Velocity: 23
Note ON: Time 35040, Note Name: G#4, Velocity: 28
Note OFF: Time 35268, Note Name: G#4
Note OFF: Time 35268, Note Name: D4
Note OFF: Time 35268, Note Name: G#3
Note ON: Time 35280, Note Name: C#3, Velocity: 38
Note OFF: Time 35508, Note Name: C#3
Note ON: Time 35520, Note Name: G#3, Velocity: 17
Note ON: Time 35520, Note Name: C#4, Velocity: 20
Note ON: Time 35520, Note Name: G#4, Velocity: 23
Note OFF: Time 35748, Note Name: G#4
Note OFF: Time 35748, Note Name: C#4
Note OFF: Time 35748, Note Name: G#3
Note ON: Time 35760, Note Name: G#3, Velocity: 15
Note ON: Time 35760, Note Name: G#4, Velocity: 23
Note ON: Time 35760, Note Name: C#4, Velocity: 21
Note OFF: Time 35988, Note Name: C#4
Note OFF: Time 35988, Note Name: G#4
Note OFF: Time 35988, Note Name: G#3
Note ON: Time 36000, Note Name: C3, Velocity: 36
Note OFF: Time 36228, Note Name: C3
Note ON: Time 36240, Note Name: G3, Velocity: 20
Note ON: Time 36240, Note Name: C4, Velocity: 22
Note ON: Time 36240, Note Name: G4, Velocity: 27
Note OFF: Time 36468, Note Name: G4
Note OFF: Time 36468, Note Name: C4
Note OFF: Time 36468, Note Name: G3
Note ON: Time 36480, Note Name: F#3, Velocity: 20
Note ON: Time 36480, Note Name: C4, Velocity: 22
Note ON: Time 36480, Note Name: F#4, Velocity: 27
Note OFF: Time 36708, Note Name: F#4
Note OFF: Time 36708, Note Name: C4
Note OFF: Time 36708, Note Name: F#3
Note ON: Time 36720, Note Name: B2, Velocity: 37
Note OFF: Time 36948, Note Name: B2
Note ON: Time 36960, Note Name: B3, Velocity: 20
Note ON: Time 36960, Note Name: E4, Velocity: 22
Note ON: Time 36960, Note Name: B4, Velocity: 27
Note OFF: Time 37188, Note Name: B4
Note OFF: Time 37188, Note Name: E4
Note OFF: Time 37188, Note Name: B3
Note ON: Time 37200, Note Name: B3, Velocity: 17
Note ON: Time 37200, Note Name: A4, Velocity: 27
Note ON: Time 37200, Note Name: D#4, Velocity: 23
Note OFF: Time 37428, Note Name: D#4
Note OFF: Time 37428, Note Name: A4
Note OFF: Time 37428, Note Name: B3
Note ON: Time 37440, Note Name: E2, Velocity: 39
Note OFF: Time 37668, Note Name: E2
Note ON: Time 37680, Note Name: G#3, Velocity: 13
Note ON: Time 37680, Note Name: B3, Velocity: 18
Note ON: Time 37680, Note Name: G#4, Velocity: 22
Note OFF: Time 37908, Note Name: G#4
Note OFF: Time 37908, Note Name: B3
Note OFF: Time 37908, Note Name: G#3
Note ON: Time 37920, Note Name: G#3, Velocity: 14
Note ON: Time 37920, Note Name: B3, Velocity: 19
Note ON: Time 37920, Note Name: G#4, Velocity: 24
Note OFF: Time 38148, Note Name: G#4
Note OFF: Time 38148, Note Name: B3
Note OFF: Time 38148, Note Name: G#3
Note ON: Time 38160, Note Name: G#3, Velocity: 15
Note ON: Time 38160, Note Name: B3, Velocity: 21
Note ON: Time 38160, Note Name: G#4, Velocity: 25
Note OFF: Time 38388, Note Name: G#4
Note OFF: Time 38388, Note Name: B3
Note OFF: Time 38388, Note Name: G#3
Note ON: Time 38400, Note Name: G#3, Velocity: 16
Note ON: Time 38400, Note Name: B3, Velocity: 21
Note ON: Time 38400, Note Name: G#4, Velocity: 26
Note OFF: Time 38628, Note Name: G#4
Note OFF: Time 38628, Note Name: B3
Note OFF: Time 38628, Note Name: G#3
Note ON: Time 38640, Note Name: B3, Velocity: 23
Note ON: Time 38640, Note Name: G#3, Velocity: 16
Note ON: Time 38640, Note Name: G#4, Velocity: 27
Note OFF: Time 38868, Note Name: G#4
Note OFF: Time 38868, Note Name: G#3
Note OFF: Time 38868, Note Name: B3
Note ON: Time 38880, Note Name: E3, Velocity: 53
Note OFF: Time 39108, Note Name: E3
Note ON: Time 39120, Note Name: A3, Velocity: 22
Note ON: Time 39120, Note Name: C4, Velocity: 25
Note ON: Time 39120, Note Name: A4, Velocity: 35
Note OFF: Time 39348, Note Name: A4
Note OFF: Time 39348, Note Name: C4
Note OFF: Time 39348, Note Name: A3
Note ON: Time 39360, Note Name: A3, Velocity: 23
Note ON: Time 39360, Note Name: C4, Velocity: 26
Note ON: Time 39360, Note Name: A4, Velocity: 31
Note OFF: Time 39588, Note Name: A4
Note OFF: Time 39588, Note Name: C4
Note OFF: Time 39588, Note Name: A3
Note ON: Time 39600, Note Name: A3, Velocity: 22
Note ON: Time 39600, Note Name: C4, Velocity: 25
Note ON: Time 39600, Note Name: A4, Velocity: 35
Note OFF: Time 39828, Note Name: A4
Note OFF: Time 39828, Note Name: C4
Note OFF: Time 39828, Note Name: A3
Note ON: Time 39840, Note Name: A3, Velocity: 24
Note ON: Time 39840, Note Name: C4, Velocity: 27
Note ON: Time 39840, Note Name: A4, Velocity: 32
Note OFF: Time 40068, Note Name: A4
Note OFF: Time 40068, Note Name: C4
Note OFF: Time 40068, Note Name: A3
Note ON: Time 40080, Note Name: A4, Velocity: 32
Note ON: Time 40080, Note Name: A3, Velocity: 24
Note ON: Time 40080, Note Name: C4, Velocity: 27
Note OFF: Time 40308, Note Name: C4
Note OFF: Time 40308, Note Name: A3
Note OFF: Time 40308, Note Name: A4
Note ON: Time 40320, Note Name: E2, Velocity: 44
Note OFF: Time 40548, Note Name: E2
Note ON: Time 40560, Note Name: G#3, Velocity: 15
Note ON: Time 40560, Note Name: B3, Velocity: 21
Note ON: Time 40560, Note Name: G#4, Velocity: 25
Note OFF: Time 40788, Note Name: G#4
Note OFF: Time 40788, Note Name: B3
Note OFF: Time 40788, Note Name: G#3
Note ON: Time 40800, Note Name: G#3, Velocity: 16
Note ON: Time 40800, Note Name: B3, Velocity: 22
Note ON: Time 40800, Note Name: G#4, Velocity: 27
Note OFF: Time 41028, Note Name: G#4
Note OFF: Time 41028, Note Name: B3
Note OFF: Time 41028, Note Name: G#3
Note ON: Time 41040, Note Name: G#3, Velocity: 17
Note ON: Time 41040, Note Name: B3, Velocity: 24
Note ON: Time 41040, Note Name: G#4, Velocity: 28
Note OFF: Time 41268, Note Name: G#4
Note OFF: Time 41268, Note Name: B3
Note OFF: Time 41268, Note Name: G#3
Note ON: Time 41280, Note Name: G#3, Velocity: 18
Note ON: Time 41280, Note Name: B3, Velocity: 24
Note ON: Time 41280, Note Name: G#4, Velocity: 29
Note OFF: Time 41508, Note Name: G#4
Note OFF: Time 41508, Note Name: B3
Note OFF: Time 41508, Note Name: G#3
Note ON: Time 41520, Note Name: B3, Velocity: 26
Note ON: Time 41520, Note Name: G#3, Velocity: 18
Note ON: Time 41520, Note Name: G#4, Velocity: 31
Note OFF: Time 41748, Note Name: G#4
Note OFF: Time 41748, Note Name: G#3
Note OFF: Time 41748, Note Name: B3
Note ON: Time 41760, Note Name: E3, Velocity: 53
Note OFF: Time 41988, Note Name: E3
Note ON: Time 42000, Note Name: A3, Velocity: 22
Note ON: Time 42000, Note Name: C4, Velocity: 25
Note ON: Time 42000, Note Name: A4, Velocity: 35
Note OFF: Time 42228, Note Name: A4
Note OFF: Time 42228, Note Name: C4
Note OFF: Time 42228, Note Name: A3
Note ON: Time 42240, Note Name: A3, Velocity: 23
Note ON: Time 42240, Note Name: C4, Velocity: 26
Note ON: Time 42240, Note Name: A4, Velocity: 31
Note OFF: Time 42468, Note Name: A4
Note OFF: Time 42468, Note Name: C4
Note OFF: Time 42468, Note Name: A3
Note ON: Time 42480, Note Name: A3, Velocity: 22
Note ON: Time 42480, Note Name: C4, Velocity: 25
Note ON: Time 42480, Note Name: A4, Velocity: 35
Note OFF: Time 42708, Note Name: A4
Note OFF: Time 42708, Note Name: C4
Note OFF: Time 42708, Note Name: A3
Note ON: Time 42720, Note Name: A3, Velocity: 24
Note ON: Time 42720, Note Name: C4, Velocity: 27
Note ON: Time 42720, Note Name: A4, Velocity: 32
Note OFF: Time 42948, Note Name: A4
Note OFF: Time 42948, Note Name: C4
Note OFF: Time 42948, Note Name: A3
Note ON: Time 42960, Note Name: A4, Velocity: 32
Note ON: Time 42960, Note Name: A3, Velocity: 24
Note ON: Time 42960, Note Name: C4, Velocity: 27
Note OFF: Time 43188, Note Name: C4
Note OFF: Time 43188, Note Name: A3
Note OFF: Time 43188, Note Name: A4
Note ON: Time 43200, Note Name: E2, Velocity: 44
Note OFF: Time 43428, Note Name: E2
Note ON: Time 43440, Note Name: G#3, Velocity: 15
Note ON: Time 43440, Note Name: B3, Velocity: 21
Note ON: Time 43440, Note Name: G#4, Velocity: 25
Note OFF: Time 43668, Note Name: G#4
Note OFF: Time 43668, Note Name: B3
Note OFF: Time 43668, Note Name: G#3
Note ON: Time 43680, Note Name: G#3, Velocity: 16
Note ON: Time 43680, Note Name: B3, Velocity: 22
Note ON: Time 43680, Note Name: G#4, Velocity: 27
Note OFF: Time 43908, Note Name: G#4
Note OFF: Time 43908, Note Name: B3
Note OFF: Time 43908, Note Name: G#3
Note ON: Time 43920, Note Name: G#3, Velocity: 17
Note ON: Time 43920, Note Name: B3, Velocity: 24
Note ON: Time 43920, Note Name: G#4, Velocity: 28
Note OFF: Time 44148, Note Name: G#4
Note OFF: Time 44148, Note Name: B3
Note OFF: Time 44148, Note Name: G#3
Note ON: Time 44160, Note Name: G#3, Velocity: 18
Note ON: Time 44160, Note Name: B3, Velocity: 24
Note ON: Time 44160, Note Name: G#4, Velocity: 29
Note OFF: Time 44388, Note Name: G#4
Note OFF: Time 44388, Note Name: B3
Note OFF: Time 44388, Note Name: G#3
Note ON: Time 44400, Note Name: B3, Velocity: 26
Note ON: Time 44400, Note Name: G#3, Velocity: 18
Note ON: Time 44400, Note Name: G#4, Velocity: 31
Note OFF: Time 44628, Note Name: G#4
Note OFF: Time 44628, Note Name: G#3
Note OFF: Time 44628, Note Name: B3
Note ON: Time 44640, Note Name: G#3, Velocity: 17
Note ON: Time 44640, Note Name: B3, Velocity: 24
Note ON: Time 44640, Note Name: G#4, Velocity: 28
Note OFF: Time 44868, Note Name: G#4
Note OFF: Time 44868, Note Name: B3
Note OFF: Time 44868, Note Name: G#3
Note ON: Time 44880, Note Name: G#3, Velocity: 15
Note ON: Time 44880, Note Name: B3, Velocity: 21
Note ON: Time 44880, Note Name: G#4, Velocity: 25
Note OFF: Time 45108, Note Name: G#4
Note OFF: Time 45108, Note Name: B3
Note OFF: Time 45108, Note Name: G#3
Note ON: Time 45120, Note Name: G#3, Velocity: 16
Note ON: Time 45120, Note Name: B3, Velocity: 22
Note ON: Time 45120, Note Name: G#4, Velocity: 27
Note OFF: Time 45348, Note Name: G#4
Note OFF: Time 45348, Note Name: B3
Note OFF: Time 45348, Note Name: G#3
Note ON: Time 45360, Note Name: G#3, Velocity: 20
Note ON: Time 45360, Note Name: B3, Velocity: 27
Note ON: Time 45360, Note Name: G#4, Velocity: 33
Note OFF: Time 45588, Note Name: G#4
Note OFF: Time 45588, Note Name: B3
Note OFF: Time 45588, Note Name: G#3
Note ON: Time 45600, Note Name: G#3, Velocity: 21
Note ON: Time 45600, Note Name: B3, Velocity: 28
Note ON: Time 45600, Note Name: G#4, Velocity: 35
Note OFF: Time 45828, Note Name: G#4
Note OFF: Time 45828, Note Name: B3
Note OFF: Time 45828, Note Name: G#3
Note ON: Time 45840, Note Name: B3, Velocity: 31
Note ON: Time 45840, Note Name: G#3, Velocity: 23
Note ON: Time 45840, Note Name: G#4, Velocity: 37
Note OFF: Time 46068, Note Name: G#4
Note OFF: Time 46068, Note Name: G#3
Note OFF: Time 46068, Note Name: B3
Note ON: Time 46080, Note Name: G#3, Velocity: 21
Note ON: Time 46080, Note Name: B3, Velocity: 29
Note ON: Time 46080, Note Name: G#4, Velocity: 35
Note OFF: Time 46308, Note Name: G#4
Note OFF: Time 46308, Note Name: B3
Note OFF: Time 46308, Note Name: G#3
Note ON: Time 46320, Note Name: G#3, Velocity: 18
Note ON: Time 46320, Note Name: B3, Velocity: 26
Note ON: Time 46320, Note Name: G#4, Velocity: 31
Note OFF: Time 46548, Note Name: G#4
Note OFF: Time 46548, Note Name: B3
Note OFF: Time 46548, Note Name: G#3
Note ON: Time 46560, Note Name: G#3, Velocity: 20
Note ON: Time 46560, Note Name: B3, Velocity: 27
Note ON: Time 46560, Note Name: G#4, Velocity: 34
Note OFF: Time 46788, Note Name: G#4
Note OFF: Time 46788, Note Name: B3
Note OFF: Time 46788, Note Name: G#3
Note ON: Time 46800, Note Name: G#3, Velocity: 22
Note ON: Time 46800, Note Name: B3, Velocity: 30
Note ON: Time 46800, Note Name: G#4, Velocity: 36
Note OFF: Time 47028, Note Name: G#4
Note OFF: Time 47028, Note Name: B3
Note OFF: Time 47028, Note Name: G#3
Note ON: Time 47040, Note Name: G#3, Velocity: 23
Note ON: Time 47040, Note Name: B3, Velocity: 31
Note ON: Time 47040, Note Name: G#4, Velocity: 37
Note OFF: Time 47268, Note Name: G#4
Note OFF: Time 47268, Note Name: B3
Note OFF: Time 47268, Note Name: G#3
Note ON: Time 47280, Note Name: B3, Velocity: 34
Note ON: Time 47280, Note Name: G#3, Velocity: 24
Note ON: Time 47280, Note Name: G#4, Velocity: 41
Note OFF: Time 47508, Note Name: G#4
Note OFF: Time 47508, Note Name: G#3
Note OFF: Time 47508, Note Name: B3
Note ON: Time 47520, Note Name: G#3, Velocity: 42
Note ON: Time 47520, Note Name: B3, Velocity: 42
Note ON: Time 47520, Note Name: G#4, Velocity: 50
Note OFF: Time 47748, Note Name: G#4
Note OFF: Time 47748, Note Name: B3
Note OFF: Time 47748, Note Name: G#3
Note ON: Time 47760, Note Name: F2, Velocity: 40
Note ON: Time 47760, Note Name: F3, Velocity: 48
Note OFF: Time 47988, Note Name: F3
Note OFF: Time 47988, Note Name: F2
Note ON: Time 48000, Note Name: D2, Velocity: 45
Note ON: Time 48000, Note Name: D3, Velocity: 53
Note OFF: Time 48228, Note Name: D3
Note OFF: Time 48228, Note Name: D2
Note ON: Time 48240, Note Name: B1, Velocity: 49
Note ON: Time 48240, Note Name: B2, Velocity: 58
Note OFF: Time 48468, Note Name: B2
Note OFF: Time 48468, Note Name: B1
Note ON: Time 48480, Note Name: G#1, Velocity: 54
Note ON: Time 48480, Note Name: G#2, Velocity: 63
Note OFF: Time 48708, Note Name: G#2
Note OFF: Time 48708, Note Name: G#1
Note ON: Time 48720, Note Name: F1, Velocity: 58
Note ON: Time 48720, Note Name: F2, Velocity: 69
Note OFF: Time 48948, Note Name: F2
Note OFF: Time 48948, Note Name: F1
Note ON: Time 48960, Note Name: D#1, Velocity: 77
Note ON: Time 48960, Note Name: D#2, Velocity: 86
Note OFF: Time 49188, Note Name: D#2
Note OFF: Time 49188, Note Name: D#1
Note ON: Time 49200, Note Name: D#3, Velocity: 32
Note ON: Time 49200, Note Name: A#3, Velocity: 45
Note ON: Time 49200, Note Name: D#4, Velocity: 45
Note OFF: Time 49428, Note Name: D#4
Note OFF: Time 49428, Note Name: A#3
Note OFF: Time 49428, Note Name: D#3
Note ON: Time 49440, Note Name: D#3, Velocity: 34
Note ON: Time 49440, Note Name: A#3, Velocity: 48
Note ON: Time 49440, Note Name: D#4, Velocity: 48
Note OFF: Time 49668, Note Name: D#4
Note OFF: Time 49668, Note Name: A#3
Note OFF: Time 49668, Note Name: D#3
Note ON: Time 49680, Note Name: D#3, Velocity: 37
Note ON: Time 49680, Note Name: A#3, Velocity: 50
Note ON: Time 49680, Note Name: D#4, Velocity: 50
Note OFF: Time 49908, Note Name: D#4
Note OFF: Time 49908, Note Name: A#3
Note OFF: Time 49908, Note Name: D#3
Note ON: Time 49920, Note Name: D#3, Velocity: 34
Note ON: Time 49920, Note Name: A#3, Velocity: 48
Note ON: Time 49920, Note Name: D#4, Velocity: 48
Note OFF: Time 50148, Note Name: D#4
Note OFF: Time 50148, Note Name: A#3
Note OFF: Time 50148, Note Name: D#3
Note ON: Time 50160, Note Name: D#3, Velocity: 34
Note ON: Time 50160, Note Name: A#3, Velocity: 48
Note ON: Time 50160, Note Name: D#4, Velocity: 48
Note OFF: Time 50388, Note Name: D#4
Note OFF: Time 50388, Note Name: A#3
Note OFF: Time 50388, Note Name: D#3
Note ON: Time 50400, Note Name: G#1, Velocity: 71
Note ON: Time 50400, Note Name: G#2, Velocity: 77
Note OFF: Time 50628, Note Name: G#2
Note OFF: Time 50628, Note Name: G#1
Note ON: Time 50640, Note Name: D#3, Velocity: 36
Note ON: Time 50640, Note Name: G#3, Velocity: 41
Note ON: Time 50640, Note Name: D#4, Velocity: 49
Note OFF: Time 50868, Note Name: D#4
Note OFF: Time 50868, Note Name: G#3
Note OFF: Time 50868, Note Name: D#3
Note ON: Time 50880, Note Name: D#3, Velocity: 36
Note ON: Time 50880, Note Name: G#3, Velocity: 41
Note ON: Time 50880, Note Name: D#4, Velocity: 48
Note OFF: Time 51108, Note Name: D#4
Note OFF: Time 51108, Note Name: G#3
Note OFF: Time 51108, Note Name: D#3
Note ON: Time 51120, Note Name: D#3, Velocity: 41
Note ON: Time 51120, Note Name: G#3, Velocity: 46
Note ON: Time 51120, Note Name: D#4, Velocity: 57
Note OFF: Time 51348, Note Name: D#4
Note OFF: Time 51348, Note Name: G#3
Note OFF: Time 51348, Note Name: D#3
Note ON: Time 51360, Note Name: D#3, Velocity: 36
Note ON: Time 51360, Note Name: G#3, Velocity: 41
Note ON: Time 51360, Note Name: D#4, Velocity: 49
Note OFF: Time 51588, Note Name: D#4
Note OFF: Time 51588, Note Name: G#3
Note OFF: Time 51588, Note Name: D#3
Note ON: Time 51600, Note Name: D#3, Velocity: 36
Note ON: Time 51600, Note Name: G#3, Velocity: 41
Note ON: Time 51600, Note Name: D#4, Velocity: 49
Note OFF: Time 51828, Note Name: D#4
Note OFF: Time 51828, Note Name: G#3
Note OFF: Time 51828, Note Name: D#3
Note ON: Time 51840, Note Name: C#1, Velocity: 69
Note ON: Time 51840, Note Name: C#2, Velocity: 82
Note OFF: Time 52068, Note Name: C#2
Note OFF: Time 52068, Note Name: C#1
Note ON: Time 52080, Note Name: F3, Velocity: 23
Note ON: Time 52080, Note Name: G#3, Velocity: 26
Note ON: Time 52080, Note Name: C#4, Velocity: 38
Note ON: Time 52080, Note Name: F4, Velocity: 46
Note OFF: Time 52308, Note Name: F4
Note OFF: Time 52308, Note Name: F3
Note OFF: Time 52308, Note Name: G#3
Note OFF: Time 52308, Note Name: C#4
Note ON: Time 52320, Note Name: F3, Velocity: 23
Note ON: Time 52320, Note Name: G#3, Velocity: 26
Note ON: Time 52320, Note Name: C#4, Velocity: 38
Note ON: Time 52320, Note Name: F4, Velocity: 46
Note OFF: Time 52548, Note Name: F4
Note OFF: Time 52548, Note Name: F3
Note OFF: Time 52548, Note Name: G#3
Note OFF: Time 52548, Note Name: C#4
Note ON: Time 52560, Note Name: F3, Velocity: 25
Note ON: Time 52560, Note Name: G#3, Velocity: 28
Note ON: Time 52560, Note Name: C#4, Velocity: 42
Note ON: Time 52560, Note Name: F4, Velocity: 51
Note OFF: Time 52788, Note Name: F4
Note OFF: Time 52788, Note Name: F3
Note OFF: Time 52788, Note Name: G#3
Note OFF: Time 52788, Note Name: C#4
Note ON: Time 52800, Note Name: F3, Velocity: 23
Note ON: Time 52800, Note Name: G#3, Velocity: 26
Note ON: Time 52800, Note Name: C#4, Velocity: 38
Note ON: Time 52800, Note Name: F4, Velocity: 46
Note OFF: Time 53028, Note Name: F4
Note OFF: Time 53028, Note Name: F3
Note OFF: Time 53028, Note Name: G#3
Note OFF: Time 53028, Note Name: C#4
Note ON: Time 53040, Note Name: F3, Velocity: 23
Note ON: Time 53040, Note Name: G#3, Velocity: 26
Note ON: Time 53040, Note Name: C#4, Velocity: 38
Note ON: Time 53040, Note Name: F4, Velocity: 46
Note OFF: Time 53268, Note Name: F4
Note OFF: Time 53268, Note Name: F3
Note OFF: Time 53268, Note Name: G#3
Note OFF: Time 53268, Note Name: C#4
Note ON: Time 53280, Note Name: D#1, Velocity: 60
Note ON: Time 53280, Note Name: D#2, Velocity: 71
Note OFF: Time 53508, Note Name: D#2
Note OFF: Time 53508, Note Name: D#1
Note ON: Time 53520, Note Name: G3, Velocity: 22
Note ON: Time 53520, Note Name: A#3, Velocity: 30
Note ON: Time 53520, Note Name: G4, Velocity: 37
Note OFF: Time 53748, Note Name: G4
Note OFF: Time 53748, Note Name: A#3
Note OFF: Time 53748, Note Name: G3
Note ON: Time 53760, Note Name: G3, Velocity: 23
Note ON: Time 53760, Note Name: A#3, Velocity: 32
Note ON: Time 53760, Note Name: G4, Velocity: 38
Note OFF: Time 53988, Note Name: G4
Note OFF: Time 53988, Note Name: A#3
Note OFF: Time 53988, Note Name: G3
Note ON: Time 54000, Note Name: F1, Velocity: 55
Note ON: Time 54000, Note Name: F2, Velocity: 65
Note OFF: Time 54228, Note Name: F2
Note OFF: Time 54228, Note Name: F1
Note ON: Time 54240, Note Name: F3, Velocity: 23
Note ON: Time 54240, Note Name: G#3, Velocity: 23
Note ON: Time 54240, Note Name: C#4, Velocity: 32
Note ON: Time 54240, Note Name: G#4, Velocity: 38
Note OFF: Time 54468, Note Name: G#4
Note OFF: Time 54468, Note Name: F3
Note OFF: Time 54468, Note Name: G#3
Note OFF: Time 54468, Note Name: C#4
Note ON: Time 54480, Note Name: F3, Velocity: 23
Note ON: Time 54480, Note Name: G#3, Velocity: 23
Note ON: Time 54480, Note Name: C#4, Velocity: 32
Note ON: Time 54480, Note Name: G#4, Velocity: 38
Note OFF: Time 54708, Note Name: G#4
Note OFF: Time 54708, Note Name: F3
Note OFF: Time 54708, Note Name: G#3
Note OFF: Time 54708, Note Name: C#4
Note ON: Time 54720, Note Name: D#1, Velocity: 64
Note ON: Time 54720, Note Name: D#2, Velocity: 71
Note OFF: Time 54948, Note Name: D#2
Note OFF: Time 54948, Note Name: D#1
Note ON: Time 54960, Note Name: G3, Velocity: 28
Note ON: Time 54960, Note Name: A#3, Velocity: 32
Note ON: Time 54960, Note Name: C#4, Velocity: 38
Note ON: Time 54960, Note Name: G4, Velocity: 46
Note OFF: Time 55188, Note Name: G4
Note OFF: Time 55188, Note Name: G3
Note OFF: Time 55188, Note Name: A#3
Note OFF: Time 55188, Note Name: C#4
Note ON: Time 55200, Note Name: G3, Velocity: 28
Note ON: Time 55200, Note Name: A#3, Velocity: 32
Note ON: Time 55200, Note Name: C#4, Velocity: 38
Note ON: Time 55200, Note Name: G4, Velocity: 46
Note OFF: Time 55428, Note Name: G4
Note OFF: Time 55428, Note Name: G3
Note OFF: Time 55428, Note Name: A#3
Note OFF: Time 55428, Note Name: C#4
Note ON: Time 55440, Note Name: D#4, Velocity: 42
Note ON: Time 55440, Note Name: G3, Velocity: 31
Note ON: Time 55440, Note Name: A#3, Velocity: 35
Note ON: Time 55440, Note Name: C#4, Velocity: 42
Note ON: Time 55440, Note Name: G4, Velocity: 51
Note OFF: Time 55668, Note Name: G4
Note OFF: Time 55668, Note Name: A#3
Note OFF: Time 55668, Note Name: D#4
Note OFF: Time 55668, Note Name: G3
Note OFF: Time 55668, Note Name: C#4
Note ON: Time 55680, Note Name: D#4, Velocity: 38
Note ON: Time 55680, Note Name: G3, Velocity: 28
Note ON: Time 55680, Note Name: A#3, Velocity: 32
Note ON: Time 55680, Note Name: C#4, Velocity: 38
Note ON: Time 55680, Note Name: G4, Velocity: 46
Note OFF: Time 55908, Note Name: G4
Note OFF: Time 55908, Note Name: A#3
Note OFF: Time 55908, Note Name: D#4
Note OFF: Time 55908, Note Name: G3
Note OFF: Time 55908, Note Name: C#4
Note ON: Time 55920, Note Name: G3, Velocity: 28
Note ON: Time 55920, Note Name: A#3, Velocity: 32
Note ON: Time 55920, Note Name: C#4, Velocity: 38
Note ON: Time 55920, Note Name: G4, Velocity: 46
Note OFF: Time 56148, Note Name: G4
Note OFF: Time 56148, Note Name: G3
Note OFF: Time 56148, Note Name: A#3
Note OFF: Time 56148, Note Name: C#4
Note ON: Time 56160, Note Name: F1, Velocity: 63
Note ON: Time 56160, Note Name: F2, Velocity: 71
Note OFF: Time 56388, Note Name: F2
Note OFF: Time 56388, Note Name: F1
Note ON: Time 56400, Note Name: F3, Velocity: 27
Note ON: Time 56400, Note Name: C4, Velocity: 30
Note ON: Time 56400, Note Name: F4, Velocity: 37
Note OFF: Time 56628, Note Name: F4
Note OFF: Time 56628, Note Name: C4
Note OFF: Time 56628, Note Name: F3
Note ON: Time 56640, Note Name: F3, Velocity: 28
Note ON: Time 56640, Note Name: C4, Velocity: 32
Note ON: Time 56640, Note Name: F4, Velocity: 38
Note OFF: Time 56868, Note Name: F4
Note OFF: Time 56868, Note Name: C4
Note OFF: Time 56868, Note Name: F3
Note ON: Time 56880, Note Name: A#1, Velocity: 59
Note ON: Time 56880, Note Name: A#2, Velocity: 65
Note OFF: Time 57108, Note Name: A#2
Note OFF: Time 57108, Note Name: A#1
Note ON: Time 57120, Note Name: F3, Velocity: 27
Note ON: Time 57120, Note Name: A#3, Velocity: 31
Note ON: Time 57120, Note Name: F4, Velocity: 36
Note OFF: Time 57348, Note Name: F4
Note OFF: Time 57348, Note Name: A#3
Note OFF: Time 57348, Note Name: F3
Note ON: Time 57360, Note Name: F3, Velocity: 27
Note ON: Time 57360, Note Name: A#3, Velocity: 31
Note ON: Time 57360, Note Name: F4, Velocity: 36
Note OFF: Time 57588, Note Name: F4
Note OFF: Time 57588, Note Name: A#3
Note OFF: Time 57588, Note Name: F3
Note ON: Time 57600, Note Name: D#2, Velocity: 65
Note ON: Time 57600, Note Name: D#3, Velocity: 65
Note OFF: Time 57828, Note Name: D#3
Note OFF: Time 57828, Note Name: D#2
Note ON: Time 57840, Note Name: F3, Velocity: 27
Note ON: Time 57840, Note Name: A#3, Velocity: 31
Note ON: Time 57840, Note Name: F4, Velocity: 37
Note OFF: Time 58068, Note Name: F4
Note OFF: Time 58068, Note Name: A#3
Note OFF: Time 58068, Note Name: F3
Note ON: Time 58080, Note Name: D#3, Velocity: 27
Note ON: Time 58080, Note Name: A#3, Velocity: 31
Note ON: Time 58080, Note Name: D#4, Velocity: 37
Note OFF: Time 58308, Note Name: D#4
Note OFF: Time 58308, Note Name: A#3
Note OFF: Time 58308, Note Name: D#3
Note ON: Time 58320, Note Name: G#2, Velocity: 48
Note OFF: Time 58548, Note Name: G#2
Note ON: Time 58560, Note Name: D#3, Velocity: 22
Note ON: Time 58560, Note Name: G#3, Velocity: 31
Note ON: Time 58560, Note Name: D#4, Velocity: 37
Note OFF: Time 58788, Note Name: D#4
Note OFF: Time 58788, Note Name: G#3
Note OFF: Time 58788, Note Name: D#3
Note ON: Time 58800, Note Name: D#3, Velocity: 19
Note ON: Time 58800, Note Name: G#3, Velocity: 27
Note ON: Time 58800, Note Name: D#4, Velocity: 32
Note OFF: Time 59028, Note Name: D#4
Note OFF: Time 59028, Note Name: G#3
Note OFF: Time 59028, Note Name: D#3
Note ON: Time 59040, Note Name: D#2, Velocity: 48
Note OFF: Time 59268, Note Name: D#2
Note ON: Time 59280, Note Name: D#3, Velocity: 15
Note ON: Time 59280, Note Name: D#4, Velocity: 26
Note OFF: Time 59508, Note Name: D#4
Note OFF: Time 59508, Note Name: D#3
Note ON: Time 59520, Note Name: D#3, Velocity: 13
Note ON: Time 59520, Note Name: D#4, Velocity: 25
Note OFF: Time 59748, Note Name: D#4
Note OFF: Time 59748, Note Name: D#3
Note ON: Time 59760, Note Name: D#3, Velocity: 15
Note ON: Time 59760, Note Name: D#4, Velocity: 26
Note OFF: Time 59988, Note Name: D#4
Note OFF: Time 59988, Note Name: D#3
Note ON: Time 60000, Note Name: D#3, Velocity: 12
Note ON: Time 60000, Note Name: D#4, Velocity: 23
Note OFF: Time 60228, Note Name: D#4
Note OFF: Time 60228, Note Name: D#3
Note ON: Time 60240, Note Name: D#3, Velocity: 11
Note ON: Time 60240, Note Name: D#4, Velocity: 22
Note OFF: Time 60468, Note Name: D#4
Note OFF: Time 60468, Note Name: D#3
Note ON: Time 60480, Note Name: D#2, Velocity: 28
Note OFF: Time 60708, Note Name: D#2
Note ON: Time 60720, Note Name: D#3, Velocity: 18
Note ON: Time 60720, Note Name: A3, Velocity: 21
Note ON: Time 60720, Note Name: D#4, Velocity: 25
Note OFF: Time 60948, Note Name: D#4
Note OFF: Time 60948, Note Name: A3
Note OFF: Time 60948, Note Name: D#3
Note ON: Time 60960, Note Name: D#3, Velocity: 18
Note ON: Time 60960, Note Name: A3, Velocity: 21
Note ON: Time 60960, Note Name: D#4, Velocity: 25
Note OFF: Time 61188, Note Name: D#4
Note OFF: Time 61188, Note Name: A3
Note OFF: Time 61188, Note Name: D#3
Note ON: Time 61200, Note Name: D#3, Velocity: 18
Note ON: Time 61200, Note Name: A3, Velocity: 21
Note ON: Time 61200, Note Name: D#4, Velocity: 25
Note OFF: Time 61428, Note Name: D#4
Note OFF: Time 61428, Note Name: A3
Note OFF: Time 61428, Note Name: D#3
Note ON: Time 61440, Note Name: D#3, Velocity: 18
Note ON: Time 61440, Note Name: A3, Velocity: 21
Note ON: Time 61440, Note Name: D#4, Velocity: 25
Note OFF: Time 61668, Note Name: D#4
Note OFF: Time 61668, Note Name: A3
Note OFF: Time 61668, Note Name: D#3
Note ON: Time 61680, Note Name: D#4, Velocity: 25
Note ON: Time 61680, Note Name: D#3, Velocity: 16
Note ON: Time 61680, Note Name: A3, Velocity: 22
Note OFF: Time 61908, Note Name: A3
Note OFF: Time 61908, Note Name: D#3
Note OFF: Time 61908, Note Name: D#4
Note ON: Time 61920, Note Name: E2, Velocity: 28
Note OFF: Time 62148, Note Name: E2
Note ON: Time 62160, Note Name: E3, Velocity: 14
Note ON: Time 62160, Note Name: G#3, Velocity: 20
Note ON: Time 62160, Note Name: E4, Velocity: 23
Note OFF: Time 62388, Note Name: E4
Note OFF: Time 62388, Note Name: G#3
Note OFF: Time 62388, Note Name: E3
Note ON: Time 62400, Note Name: E3, Velocity: 15
Note ON: Time 62400, Note Name: G#3, Velocity: 21
Note ON: Time 62400, Note Name: E4, Velocity: 25
Note OFF: Time 62628, Note Name: E4
Note OFF: Time 62628, Note Name: G#3
Note OFF: Time 62628, Note Name: E3
Note ON: Time 62640, Note Name: E3, Velocity: 16
Note ON: Time 62640, Note Name: G#3, Velocity: 22
Note ON: Time 62640, Note Name: E4, Velocity: 27
Note OFF: Time 62868, Note Name: E4
Note OFF: Time 62868, Note Name: G#3
Note OFF: Time 62868, Note Name: E3
Note ON: Time 62880, Note Name: E3, Velocity: 17
Note ON: Time 62880, Note Name: G#3, Velocity: 22
Note ON: Time 62880, Note Name: D#4, Velocity: 28
Note OFF: Time 63108, Note Name: D#4
Note OFF: Time 63108, Note Name: G#3
Note OFF: Time 63108, Note Name: E3
Note ON: Time 63120, Note Name: G#3, Velocity: 24
Note ON: Time 63120, Note Name: E3, Velocity: 17
Note ON: Time 63120, Note Name: C#4, Velocity: 29
Note OFF: Time 63348, Note Name: C#4
Note OFF: Time 63348, Note Name: E3
Note OFF: Time 63348, Note Name: G#3
Note ON: Time 63360, Note Name: B1, Velocity: 39
Note ON: Time 63360, Note Name: B2, Velocity: 39
Note OFF: Time 63588, Note Name: B2
Note OFF: Time 63588, Note Name: B1
Note ON: Time 63600, Note Name: B3, Velocity: 26
Note ON: Time 63600, Note Name: D#4, Velocity: 29
Note ON: Time 63600, Note Name: A4, Velocity: 35
Note OFF: Time 63828, Note Name: A4
Note OFF: Time 63828, Note Name: D#4
Note OFF: Time 63828, Note Name: B3
Note ON: Time 63840, Note Name: B3, Velocity: 26
Note ON: Time 63840, Note Name: D#4, Velocity: 29
Note ON: Time 63840, Note Name: A4, Velocity: 35
Note OFF: Time 64068, Note Name: A4
Note OFF: Time 64068, Note Name: D#4
Note OFF: Time 64068, Note Name: B3
Note ON: Time 64080, Note Name: B3, Velocity: 26
Note ON: Time 64080, Note Name: D#4, Velocity: 29
Note ON: Time 64080, Note Name: A4, Velocity: 35
Note OFF: Time 64308, Note Name: A4
Note OFF: Time 64308, Note Name: D#4
Note OFF: Time 64308, Note Name: B3
Note ON: Time 64320, Note Name: B3, Velocity: 26
Note ON: Time 64320, Note Name: C#4, Velocity: 29
Note ON: Time 64320, Note Name: A4, Velocity: 35
Note OFF: Time 64548, Note Name: A4
Note OFF: Time 64548, Note Name: C#4
Note OFF: Time 64548, Note Name: B3
Note ON: Time 64560, Note Name: A4, Velocity: 35
Note ON: Time 64560, Note Name: B3, Velocity: 23
Note ON: Time 64560, Note Name: D#4, Velocity: 31
Note OFF: Time 64788, Note Name: D#4
Note OFF: Time 64788, Note Name: B3
Note OFF: Time 64788, Note Name: A4
Note ON: Time 64800, Note Name: E2, Velocity: 39
Note ON: Time 64800, Note Name: E3, Velocity: 50
Note OFF: Time 65028, Note Name: E3
Note OFF: Time 65028, Note Name: E2
Note ON: Time 65040, Note Name: B3, Velocity: 21
Note ON: Time 65040, Note Name: E4, Velocity: 29
Note ON: Time 65040, Note Name: B4, Velocity: 35
Note OFF: Time 65268, Note Name: B4
Note OFF: Time 65268, Note Name: E4
Note OFF: Time 65268, Note Name: B3
Note ON: Time 65280, Note Name: B3, Velocity: 23
Note ON: Time 65280, Note Name: E4, Velocity: 31
Note ON: Time 65280, Note Name: B4, Velocity: 36
Note OFF: Time 65508, Note Name: B4
Note OFF: Time 65508, Note Name: E4
Note OFF: Time 65508, Note Name: B3
Note ON: Time 65520, Note Name: B3, Velocity: 24
Note ON: Time 65520, Note Name: E4, Velocity: 33
Note ON: Time 65520, Note Name: B4, Velocity: 39
Note OFF: Time 65748, Note Name: B4
Note OFF: Time 65748, Note Name: E4
Note OFF: Time 65748, Note Name: B3
Note ON: Time 65760, Note Name: D#2, Velocity: 40
Note ON: Time 65760, Note Name: D#3, Velocity: 49
Note OFF: Time 65988, Note Name: D#3
Note OFF: Time 65988, Note Name: D#2
Note ON: Time 66000, Note Name: D3, Velocity: 55
Note ON: Time 66000, Note Name: D2, Velocity: 46
Note OFF: Time 66228, Note Name: D2
Note OFF: Time 66228, Note Name: D3
Note ON: Time 66240, Note Name: C#2, Velocity: 48
Note ON: Time 66240, Note Name: C#3, Velocity: 60
Note OFF: Time 66468, Note Name: C#3
Note OFF: Time 66468, Note Name: C#2
Note ON: Time 66480, Note Name: F3, Velocity: 22
Note ON: Time 66480, Note Name: B3, Velocity: 25
Note ON: Time 66480, Note Name: F4, Velocity: 30
Note OFF: Time 66708, Note Name: F4
Note OFF: Time 66708, Note Name: B3
Note OFF: Time 66708, Note Name: F3
Note ON: Time 66720, Note Name: F3, Velocity: 22
Note ON: Time 66720, Note Name: B3, Velocity: 25
Note ON: Time 66720, Note Name: F4, Velocity: 30
Note OFF: Time 66948, Note Name: F4
Note OFF: Time 66948, Note Name: B3
Note OFF: Time 66948, Note Name: F3
Note ON: Time 66960, Note Name: F3, Velocity: 22
Note ON: Time 66960, Note Name: B3, Velocity: 25
Note ON: Time 66960, Note Name: F4, Velocity: 30
Note OFF: Time 67188, Note Name: F4
Note OFF: Time 67188, Note Name: B3
Note OFF: Time 67188, Note Name: F3
Note ON: Time 67200, Note Name: F3, Velocity: 22
Note ON: Time 67200, Note Name: B3, Velocity: 25
Note ON: Time 67200, Note Name: F4, Velocity: 30
Note OFF: Time 67428, Note Name: F4
Note OFF: Time 67428, Note Name: B3
Note OFF: Time 67428, Note Name: F3
Note ON: Time 67440, Note Name: F4, Velocity: 30
Note ON: Time 67440, Note Name: F3, Velocity: 19
Note ON: Time 67440, Note Name: B3, Velocity: 27
Note OFF: Time 67668, Note Name: B3
Note OFF: Time 67668, Note Name: F3
Note OFF: Time 67668, Note Name: F4
Note ON: Time 67680, Note Name: F#2, Velocity: 34
Note OFF: Time 67908, Note Name: F#2
Note ON: Time 67920, Note Name: F#3, Velocity: 17
Note ON: Time 67920, Note Name: A#3, Velocity: 24
Note ON: Time 67920, Note Name: F#4, Velocity: 28
Note OFF: Time 68148, Note Name: F#4
Note OFF: Time 68148, Note Name: A#3
Note OFF: Time 68148, Note Name: F#3
Note ON: Time 68160, Note Name: F#3, Velocity: 18
Note ON: Time 68160, Note Name: A#3, Velocity: 25
Note ON: Time 68160, Note Name: F#4, Velocity: 30
Note OFF: Time 68388, Note Name: F#4
Note OFF: Time 68388, Note Name: A#3
Note OFF: Time 68388, Note Name: F#3
Note ON: Time 68400, Note Name: F#3, Velocity: 19
Note ON: Time 68400, Note Name: A#3, Velocity: 27
Note ON: Time 68400, Note Name: F#4, Velocity: 32
Note OFF: Time 68628, Note Name: F#4
Note OFF: Time 68628, Note Name: A#3
Note OFF: Time 68628, Note Name: F#3
Note ON: Time 68640, Note Name: F#3, Velocity: 20
Note ON: Time 68640, Note Name: A#3, Velocity: 27
Note ON: Time 68640, Note Name: F4, Velocity: 33
Note OFF: Time 68868, Note Name: F4
Note OFF: Time 68868, Note Name: A#3
Note OFF: Time 68868, Note Name: F#3
Note ON: Time 68880, Note Name: A#3, Velocity: 29
Note ON: Time 68880, Note Name: F#3, Velocity: 21
Note ON: Time 68880, Note Name: D#4, Velocity: 35
Note OFF: Time 69108, Note Name: D#4
Note OFF: Time 69108, Note Name: F#3
Note OFF: Time 69108, Note Name: A#3
Note ON: Time 69120, Note Name: C#2, Velocity: 39
Note ON: Time 69120, Note Name: C#3, Velocity: 39
Note OFF: Time 69348, Note Name: C#3
Note OFF: Time 69348, Note Name: C#2
Note ON: Time 69360, Note Name: C#4, Velocity: 29
Note ON: Time 69360, Note Name: G#3, Velocity: 26
Note ON: Time 69360, Note Name: B3, Velocity: 29
Note ON: Time 69360, Note Name: G#4, Velocity: 35
Note OFF: Time 69588, Note Name: G#4
Note OFF: Time 69588, Note Name: C#4
Note OFF: Time 69588, Note Name: G#3
Note OFF: Time 69588, Note Name: B3
Note ON: Time 69600, Note Name: C#4, Velocity: 29
Note ON: Time 69600, Note Name: G#3, Velocity: 26
Note ON: Time 69600, Note Name: B3, Velocity: 29
Note ON: Time 69600, Note Name: G#4, Velocity: 35
Note OFF: Time 69828, Note Name: G#4
Note OFF: Time 69828, Note Name: C#4
Note OFF: Time 69828, Note Name: G#3
Note OFF: Time 69828, Note Name: B3
Note ON: Time 69840, Note Name: C#4, Velocity: 29
Note ON: Time 69840, Note Name: G#3, Velocity: 26
Note ON: Time 69840, Note Name: B3, Velocity: 29
Note ON: Time 69840, Note Name: G#4, Velocity: 35
Note OFF: Time 70068, Note Name: G#4
Note OFF: Time 70068, Note Name: C#4
Note OFF: Time 70068, Note Name: G#3
Note OFF: Time 70068, Note Name: B3
Note ON: Time 70080, Note Name: C#4, Velocity: 29
Note ON: Time 70080, Note Name: G#3, Velocity: 26
Note ON: Time 70080, Note Name: B3, Velocity: 29
Note ON: Time 70080, Note Name: D#4, Velocity: 35
Note OFF: Time 70308, Note Name: D#4
Note OFF: Time 70308, Note Name: C#4
Note OFF: Time 70308, Note Name: G#3
Note OFF: Time 70308, Note Name: B3
Note ON: Time 70320, Note Name: C#4, Velocity: 31
Note ON: Time 70320, Note Name: F4, Velocity: 35
Note ON: Time 70320, Note Name: G#3, Velocity: 23
Note ON: Time 70320, Note Name: B3, Velocity: 31
Note OFF: Time 70548, Note Name: B3
Note OFF: Time 70548, Note Name: C#4
Note OFF: Time 70548, Note Name: F4
Note OFF: Time 70548, Note Name: G#3
Note ON: Time 70560, Note Name: F#2, Velocity: 45
Note OFF: Time 70788, Note Name: F#2
Note ON: Time 70800, Note Name: F#3, Velocity: 21
Note ON: Time 70800, Note Name: C#4, Velocity: 29
Note ON: Time 70800, Note Name: F#4, Velocity: 35
Note OFF: Time 71028, Note Name: F#4
Note OFF: Time 71028, Note Name: C#4
Note OFF: Time 71028, Note Name: F#3
Note ON: Time 71040, Note Name: F#3, Velocity: 23
Note ON: Time 71040, Note Name: C#4, Velocity: 31
Note ON: Time 71040, Note Name: F#4, Velocity: 36
Note OFF: Time 71268, Note Name: F#4
Note OFF: Time 71268, Note Name: C#4
Note OFF: Time 71268, Note Name: F#3
Note ON: Time 71280, Note Name: F#2, Velocity: 42
Note ON: Time 71280, Note Name: F#3, Velocity: 50
Note OFF: Time 71508, Note Name: F#3
Note OFF: Time 71508, Note Name: F#2
Note ON: Time 71520, Note Name: F2, Velocity: 45
Note ON: Time 71520, Note Name: F3, Velocity: 53
Note OFF: Time 71748, Note Name: F3
Note OFF: Time 71748, Note Name: F2
Note ON: Time 71760, Note Name: E3, Velocity: 56
Note ON: Time 71760, Note Name: E2, Velocity: 47
Note OFF: Time 71988, Note Name: E2
Note OFF: Time 71988, Note Name: E3
Note ON: Time 72000, Note Name: D#2, Velocity: 63
Note ON: Time 72000, Note Name: D#3, Velocity: 63
Note OFF: Time 72228, Note Name: D#3
Note OFF: Time 72228, Note Name: D#2
Note ON: Time 72240, Note Name: B3, Velocity: 34
Note ON: Time 72240, Note Name: F#4, Velocity: 41
Note OFF: Time 72468, Note Name: F#4
Note OFF: Time 72468, Note Name: B3
Note ON: Time 72480, Note Name: B3, Velocity: 34
Note ON: Time 72480, Note Name: F#4, Velocity: 41
Note OFF: Time 72708, Note Name: F#4
Note OFF: Time 72708, Note Name: B3
Note ON: Time 72720, Note Name: E3, Velocity: 59
Note OFF: Time 72948, Note Name: E3
Note ON: Time 72960, Note Name: B3, Velocity: 34
Note ON: Time 72960, Note Name: E4, Velocity: 34
Note ON: Time 72960, Note Name: B4, Velocity: 40
Note OFF: Time 73188, Note Name: B4
Note OFF: Time 73188, Note Name: E4
Note OFF: Time 73188, Note Name: B3
Note ON: Time 73200, Note Name: B3, Velocity: 34
Note ON: Time 73200, Note Name: E4, Velocity: 34
Note ON: Time 73200, Note Name: B4, Velocity: 40
Note OFF: Time 73428, Note Name: B4
Note OFF: Time 73428, Note Name: E4
Note OFF: Time 73428, Note Name: B3
Note ON: Time 73440, Note Name: D3, Velocity: 59
Note OFF: Time 73668, Note Name: D3
Note ON: Time 73680, Note Name: A#4, Velocity: 39
Note ON: Time 73680, Note Name: A#3, Velocity: 28
Note ON: Time 73680, Note Name: F4, Velocity: 34
Note OFF: Time 73908, Note Name: F4
Note OFF: Time 73908, Note Name: A#3
Note OFF: Time 73908, Note Name: A#4
Note ON: Time 73920, Note Name: A#4, Velocity: 39
Note ON: Time 73920, Note Name: A#3, Velocity: 28
Note ON: Time 73920, Note Name: F4, Velocity: 34
Note OFF: Time 74148, Note Name: F4
Note OFF: Time 74148, Note Name: A#3
Note OFF: Time 74148, Note Name: A#4
Note ON: Time 74160, Note Name: D#3, Velocity: 56
Note OFF: Time 74388, Note Name: D#3
Note ON: Time 74400, Note Name: A#3, Velocity: 27
Note ON: Time 74400, Note Name: D#4, Velocity: 27
Note ON: Time 74400, Note Name: A#4, Velocity: 32
Note OFF: Time 74628, Note Name: A#4
Note OFF: Time 74628, Note Name: D#4
Note OFF: Time 74628, Note Name: A#3
Note ON: Time 74640, Note Name: A#3, Velocity: 27
Note ON: Time 74640, Note Name: D#4, Velocity: 27
Note ON: Time 74640, Note Name: A#4, Velocity: 32
Note OFF: Time 74868, Note Name: A#4
Note OFF: Time 74868, Note Name: D#4
Note OFF: Time 74868, Note Name: A#3
Note ON: Time 74880, Note Name: C#3, Velocity: 53
Note OFF: Time 75108, Note Name: C#3
Note ON: Time 75120, Note Name: A4, Velocity: 36
Note ON: Time 75120, Note Name: A3, Velocity: 30
Note ON: Time 75120, Note Name: E4, Velocity: 36
Note OFF: Time 75348, Note Name: E4
Note OFF: Time 75348, Note Name: A3
Note OFF: Time 75348, Note Name: A4
Note ON: Time 75360, Note Name: A4, Velocity: 36
Note ON: Time 75360, Note Name: A3, Velocity: 30
Note ON: Time 75360, Note Name: E4, Velocity: 36
Note OFF: Time 75588, Note Name: E4
Note OFF: Time 75588, Note Name: A3
Note OFF: Time 75588, Note Name: A4
Note ON: Time 75600, Note Name: D3, Velocity: 50
Note OFF: Time 75828, Note Name: D3
Note ON: Time 75840, Note Name: A3, Velocity: 28
Note ON: Time 75840, Note Name: D4, Velocity: 28
Note ON: Time 75840, Note Name: A4, Velocity: 34
Note OFF: Time 76068, Note Name: A4
Note OFF: Time 76068, Note Name: D4
Note OFF: Time 76068, Note Name: A3
Note ON: Time 76080, Note Name: A3, Velocity: 28
Note ON: Time 76080, Note Name: D4, Velocity: 28
Note ON: Time 76080, Note Name: A4, Velocity: 34
Note OFF: Time 76308, Note Name: A4
Note OFF: Time 76308, Note Name: D4
Note OFF: Time 76308, Note Name: A3
Note ON: Time 76320, Note Name: A3, Velocity: 43
Note ON: Time 76320, Note Name: D4, Velocity: 43
Note ON: Time 76320, Note Name: A4, Velocity: 43
Note OFF: Time 76548, Note Name: A4
Note OFF: Time 76548, Note Name: D4
Note OFF: Time 76548, Note Name: A3
Note ON: Time 76560, Note Name: D2, Velocity: 35
Note ON: Time 76560, Note Name: D3, Velocity: 42
Note OFF: Time 76788, Note Name: D3
Note OFF: Time 76788, Note Name: D2
Note ON: Time 76800, Note Name: C#2, Velocity: 38
Note ON: Time 76800, Note Name: C#3, Velocity: 45
Note OFF: Time 77028, Note Name: C#3
Note OFF: Time 77028, Note Name: C#2
Note ON: Time 77040, Note Name: C2, Velocity: 39
Note ON: Time 77040, Note Name: C3, Velocity: 47
Note OFF: Time 77268, Note Name: C3
Note OFF: Time 77268, Note Name: C2
Note ON: Time 77280, Note Name: C2, Velocity: 42
Note ON: Time 77280, Note Name: C3, Velocity: 50
Note OFF: Time 77508, Note Name: C3
Note OFF: Time 77508, Note Name: C2
Note ON: Time 77520, Note Name: B1, Velocity: 44
Note ON: Time 77520, Note Name: B2, Velocity: 52
Note OFF: Time 77748, Note Name: B2
Note OFF: Time 77748, Note Name: B1
Note ON: Time 77760, Note Name: A#1, Velocity: 48
Note ON: Time 77760, Note Name: A#2, Velocity: 48
Note OFF: Time 77988, Note Name: A#2
Note OFF: Time 77988, Note Name: A#1
Note ON: Time 78000, Note Name: A#3, Velocity: 27
Note ON: Time 78000, Note Name: D#4, Velocity: 31
Note ON: Time 78000, Note Name: A#4, Velocity: 37
Note OFF: Time 78228, Note Name: A#4
Note OFF: Time 78228, Note Name: D#4
Note OFF: Time 78228, Note Name: A#3
Note ON: Time 78240, Note Name: A#3, Velocity: 28
Note ON: Time 78240, Note Name: D#4, Velocity: 32
Note ON: Time 78240, Note Name: A#4, Velocity: 38
Note OFF: Time 78468, Note Name: A#4
Note OFF: Time 78468, Note Name: D#4
Note OFF: Time 78468, Note Name: A#3
Note ON: Time 78480, Note Name: A#3, Velocity: 31
Note ON: Time 78480, Note Name: E4, Velocity: 35
Note ON: Time 78480, Note Name: A#4, Velocity: 42
Note OFF: Time 78708, Note Name: A#4
Note OFF: Time 78708, Note Name: E4
Note OFF: Time 78708, Note Name: A#3
Note ON: Time 78720, Note Name: A#3, Velocity: 30
Note ON: Time 78720, Note Name: E4, Velocity: 34
Note ON: Time 78720, Note Name: A#4, Velocity: 41
Note OFF: Time 78948, Note Name: A#4
Note OFF: Time 78948, Note Name: E4
Note OFF: Time 78948, Note Name: A#3
Note ON: Time 78960, Note Name: A#3, Velocity: 18
Note ON: Time 78960, Note Name: A#4, Velocity: 35
Note ON: Time 78960, Note Name: E4, Velocity: 26
Note OFF: Time 79188, Note Name: E4
Note OFF: Time 79188, Note Name: A#4
Note OFF: Time 79188, Note Name: A#3
Note ON: Time 79200, Note Name: A#2, Velocity: 46
Note OFF: Time 79428, Note Name: A#2
Note ON: Time 79440, Note Name: A#3, Velocity: 27
Note ON: Time 79440, Note Name: F4, Velocity: 30
Note ON: Time 79440, Note Name: A#4, Velocity: 36
Note OFF: Time 79668, Note Name: A#4
Note OFF: Time 79668, Note Name: F4
Note OFF: Time 79668, Note Name: A#3
Note ON: Time 79680, Note Name: A#3, Velocity: 27
Note ON: Time 79680, Note Name: F4, Velocity: 30
Note ON: Time 79680, Note Name: A#4, Velocity: 36
Note OFF: Time 79908, Note Name: A#4
Note OFF: Time 79908, Note Name: F4
Note OFF: Time 79908, Note Name: A#3
Note ON: Time 79920, Note Name: A#3, Velocity: 29
Note ON: Time 79920, Note Name: F4, Velocity: 33
Note ON: Time 79920, Note Name: A#4, Velocity: 39
Note OFF: Time 80148, Note Name: A#4
Note OFF: Time 80148, Note Name: F4
Note OFF: Time 80148, Note Name: A#3
Note ON: Time 80160, Note Name: A#3, Velocity: 24
Note ON: Time 80160, Note Name: F4, Velocity: 27
Note ON: Time 80160, Note Name: A#4, Velocity: 33
Note OFF: Time 80388, Note Name: A#4
Note OFF: Time 80388, Note Name: F4
Note OFF: Time 80388, Note Name: A#3
Note ON: Time 80400, Note Name: A#3, Velocity: 24
Note ON: Time 80400, Note Name: A#4, Velocity: 33
Note ON: Time 80400, Note Name: F4, Velocity: 27
Note OFF: Time 80628, Note Name: F4
Note OFF: Time 80628, Note Name: A#4
Note OFF: Time 80628, Note Name: A#3
Note ON: Time 80640, Note Name: D#2, Velocity: 44
Note OFF: Time 80868, Note Name: D#2
Note ON: Time 80880, Note Name: G3, Velocity: 16
Note ON: Time 80880, Note Name: A#3, Velocity: 22
Note ON: Time 80880, Note Name: G4, Velocity: 26
Note OFF: Time 81108, Note Name: G4
Note OFF: Time 81108, Note Name: A#3
Note OFF: Time 81108, Note Name: G3
Note ON: Time 81120, Note Name: G3, Velocity: 17
Note ON: Time 81120, Note Name: A#3, Velocity: 23
Note ON: Time 81120, Note Name: G4, Velocity: 28
Note OFF: Time 81348, Note Name: G4
Note OFF: Time 81348, Note Name: A#3
Note OFF: Time 81348, Note Name: G3
Note ON: Time 81360, Note Name: G3, Velocity: 18
Note ON: Time 81360, Note Name: A#3, Velocity: 25
Note ON: Time 81360, Note Name: G4, Velocity: 30
Note OFF: Time 81588, Note Name: G4
Note OFF: Time 81588, Note Name: A#3
Note OFF: Time 81588, Note Name: G3
Note ON: Time 81600, Note Name: G3, Velocity: 19
Note ON: Time 81600, Note Name: A#3, Velocity: 25
Note ON: Time 81600, Note Name: G4, Velocity: 31
Note OFF: Time 81828, Note Name: G4
Note OFF: Time 81828, Note Name: A#3
Note OFF: Time 81828, Note Name: G3
Note ON: Time 81840, Note Name: A#3, Velocity: 27
Note ON: Time 81840, Note Name: G3, Velocity: 19
Note ON: Time 81840, Note Name: G4, Velocity: 33
Note OFF: Time 82068, Note Name: G4
Note OFF: Time 82068, Note Name: G3
Note OFF: Time 82068, Note Name: A#3
Note ON: Time 82080, Note Name: D#3, Velocity: 53
Note OFF: Time 82308, Note Name: D#3
Note ON: Time 82320, Note Name: G#3, Velocity: 22
Note ON: Time 82320, Note Name: B3, Velocity: 25
Note ON: Time 82320, Note Name: G#4, Velocity: 35
Note OFF: Time 82548, Note Name: G#4
Note OFF: Time 82548, Note Name: B3
Note OFF: Time 82548, Note Name: G#3
Note ON: Time 82560, Note Name: G#3, Velocity: 23
Note ON: Time 82560, Note Name: B3, Velocity: 26
Note ON: Time 82560, Note Name: G#4, Velocity: 31
Note OFF: Time 82788, Note Name: G#4
Note OFF: Time 82788, Note Name: B3
Note OFF: Time 82788, Note Name: G#3
Note ON: Time 82800, Note Name: G#3, Velocity: 22
Note ON: Time 82800, Note Name: B3, Velocity: 25
Note ON: Time 82800, Note Name: G#4, Velocity: 35
Note OFF: Time 83028, Note Name: G#4
Note OFF: Time 83028, Note Name: B3
Note OFF: Time 83028, Note Name: G#3
Note ON: Time 83040, Note Name: G#3, Velocity: 24
Note ON: Time 83040, Note Name: B3, Velocity: 27
Note ON: Time 83040, Note Name: G#4, Velocity: 32
Note OFF: Time 83268, Note Name: G#4
Note OFF: Time 83268, Note Name: B3
Note OFF: Time 83268, Note Name: G#3
Note ON: Time 83280, Note Name: G#4, Velocity: 32
Note ON: Time 83280, Note Name: G#3, Velocity: 24
Note ON: Time 83280, Note Name: B3, Velocity: 27
Note OFF: Time 83508, Note Name: B3
Note OFF: Time 83508, Note Name: G#3
Note OFF: Time 83508, Note Name: G#4
Note ON: Time 83520, Note Name: D#2, Velocity: 44
Note OFF: Time 83748, Note Name: D#2
Note ON: Time 83760, Note Name: G3, Velocity: 16
Note ON: Time 83760, Note Name: A#3, Velocity: 22
Note ON: Time 83760, Note Name: G4, Velocity: 26
Note OFF: Time 83988, Note Name: G4
Note OFF: Time 83988, Note Name: A#3
Note OFF: Time 83988, Note Name: G3
Note ON: Time 84000, Note Name: G3, Velocity: 17
Note ON: Time 84000, Note Name: A#3, Velocity: 23
Note ON: Time 84000, Note Name: G4, Velocity: 28
Note OFF: Time 84228, Note Name: G4
Note OFF: Time 84228, Note Name: A#3
Note OFF: Time 84228, Note Name: G3
Note ON: Time 84240, Note Name: G3, Velocity: 18
Note ON: Time 84240, Note Name: A#3, Velocity: 25
Note ON: Time 84240, Note Name: G4, Velocity: 30
Note OFF: Time 84468, Note Name: G4
Note OFF: Time 84468, Note Name: A#3
Note OFF: Time 84468, Note Name: G3
Note ON: Time 84480, Note Name: G3, Velocity: 19
Note ON: Time 84480, Note Name: A#3, Velocity: 25
Note ON: Time 84480, Note Name: G4, Velocity: 31
Note OFF: Time 84708, Note Name: G4
Note OFF: Time 84708, Note Name: A#3
Note OFF: Time 84708, Note Name: G3
Note ON: Time 84720, Note Name: A#3, Velocity: 27
Note ON: Time 84720, Note Name: G3, Velocity: 19
Note ON: Time 84720, Note Name: G4, Velocity: 33
Note OFF: Time 84948, Note Name: G4
Note OFF: Time 84948, Note Name: G3
Note OFF: Time 84948, Note Name: A#3
Note ON: Time 84960, Note Name: D#3, Velocity: 53
Note OFF: Time 85188, Note Name: D#3
Note ON: Time 85200, Note Name: G#3, Velocity: 18
Note ON: Time 85200, Note Name: B3, Velocity: 21
Note ON: Time 85200, Note Name: G#4, Velocity: 29
Note OFF: Time 85428, Note Name: G#4
Note OFF: Time 85428, Note Name: B3
Note OFF: Time 85428, Note Name: G#3
Note ON: Time 85440, Note Name: G#3, Velocity: 19
Note ON: Time 85440, Note Name: B3, Velocity: 22
Note ON: Time 85440, Note Name: G#4, Velocity: 26
Note OFF: Time 85668, Note Name: G#4
Note OFF: Time 85668, Note Name: B3
Note OFF: Time 85668, Note Name: G#3
Note ON: Time 85680, Note Name: G#3, Velocity: 18
Note ON: Time 85680, Note Name: B3, Velocity: 21
Note ON: Time 85680, Note Name: G#4, Velocity: 29
Note OFF: Time 85908, Note Name: G#4
Note OFF: Time 85908, Note Name: B3
Note OFF: Time 85908, Note Name: G#3
Note ON: Time 85920, Note Name: G#3, Velocity: 20
Note ON: Time 85920, Note Name: B3, Velocity: 22
Note ON: Time 85920, Note Name: G#4, Velocity: 27
Note OFF: Time 86148, Note Name: G#4
Note OFF: Time 86148, Note Name: B3
Note OFF: Time 86148, Note Name: G#3
Note ON: Time 86160, Note Name: G#4, Velocity: 27
Note ON: Time 86160, Note Name: G#3, Velocity: 20
Note ON: Time 86160, Note Name: B3, Velocity: 22
Note OFF: Time 86388, Note Name: B3
Note OFF: Time 86388, Note Name: G#3
Note OFF: Time 86388, Note Name: G#4
Note ON: Time 86400, Note Name: D#2, Velocity: 33
Note OFF: Time 86628, Note Name: D#2
Note ON: Time 86640, Note Name: G3, Velocity: 13
Note ON: Time 86640, Note Name: A#3, Velocity: 15
Note ON: Time 86640, Note Name: G4, Velocity: 17
Note OFF: Time 86868, Note Name: G4
Note OFF: Time 86868, Note Name: A#3
Note OFF: Time 86868, Note Name: G3
Note ON: Time 86880, Note Name: G3, Velocity: 13
Note ON: Time 86880, Note Name: A#3, Velocity: 15
Note ON: Time 86880, Note Name: G4, Velocity: 17
Note OFF: Time 87108, Note Name: G4
Note OFF: Time 87108, Note Name: A#3
Note OFF: Time 87108, Note Name: G3
Note ON: Time 87120, Note Name: G3, Velocity: 13
Note ON: Time 87120, Note Name: A#3, Velocity: 15
Note ON: Time 87120, Note Name: G4, Velocity: 18
Note OFF: Time 87348, Note Name: G4
Note OFF: Time 87348, Note Name: A#3
Note OFF: Time 87348, Note Name: G3
Note ON: Time 87360, Note Name: G3, Velocity: 14
Note ON: Time 87360, Note Name: A#3, Velocity: 16
Note ON: Time 87360, Note Name: G4, Velocity: 19
Note OFF: Time 87588, Note Name: G4
Note OFF: Time 87588, Note Name: A#3
Note OFF: Time 87588, Note Name: G3
Note ON: Time 87600, Note Name: A#3, Velocity: 16
Note ON: Time 87600, Note Name: G3, Velocity: 14
Note ON: Time 87600, Note Name: G4, Velocity: 20
Note OFF: Time 87828, Note Name: G4
Note OFF: Time 87828, Note Name: G3
Note OFF: Time 87828, Note Name: A#3
Note ON: Time 87840, Note Name: G3, Velocity: 15
Note ON: Time 87840, Note Name: A#3, Velocity: 17
Note ON: Time 87840, Note Name: G4, Velocity: 21
Note OFF: Time 88068, Note Name: G4
Note OFF: Time 88068, Note Name: A#3
Note OFF: Time 88068, Note Name: G3
Note ON: Time 88080, Note Name: G3, Velocity: 15
Note ON: Time 88080, Note Name: A#3, Velocity: 17
Note ON: Time 88080, Note Name: G4, Velocity: 22
Note OFF: Time 88308, Note Name: G4
Note OFF: Time 88308, Note Name: A#3
Note OFF: Time 88308, Note Name: G3
Note ON: Time 88320, Note Name: G3, Velocity: 16
Note ON: Time 88320, Note Name: A#3, Velocity: 18
Note ON: Time 88320, Note Name: G4, Velocity: 22
Note OFF: Time 88548, Note Name: G4
Note OFF: Time 88548, Note Name: A#3
Note OFF: Time 88548, Note Name: G3
Note ON: Time 88560, Note Name: G3, Velocity: 17
Note ON: Time 88560, Note Name: A#3, Velocity: 20
Note ON: Time 88560, Note Name: G4, Velocity: 23
Note OFF: Time 88788, Note Name: G4
Note OFF: Time 88788, Note Name: A#3
Note OFF: Time 88788, Note Name: G3
Note ON: Time 88800, Note Name: G3, Velocity: 18
Note ON: Time 88800, Note Name: A#3, Velocity: 21
Note ON: Time 88800, Note Name: G4, Velocity: 24
Note OFF: Time 89028, Note Name: G4
Note OFF: Time 89028, Note Name: A#3
Note OFF: Time 89028, Note Name: G3
Note ON: Time 89040, Note Name: A#3, Velocity: 22
Note ON: Time 89040, Note Name: G3, Velocity: 19
Note ON: Time 89040, Note Name: G4, Velocity: 26
Note OFF: Time 89268, Note Name: G4
Note OFF: Time 89268, Note Name: G3
Note OFF: Time 89268, Note Name: A#3
Note ON: Time 89280, Note Name: G3, Velocity: 20
Note ON: Time 89280, Note Name: A#3, Velocity: 22
Note ON: Time 89280, Note Name: G4, Velocity: 28
Note OFF: Time 89508, Note Name: G4
Note OFF: Time 89508, Note Name: A#3
Note OFF: Time 89508, Note Name: G3
Note ON: Time 89520, Note Name: G3, Velocity: 20
Note ON: Time 89520, Note Name: A#3, Velocity: 22
Note ON: Time 89520, Note Name: G4, Velocity: 28
Note OFF: Time 89748, Note Name: G4
Note OFF: Time 89748, Note Name: A#3
Note OFF: Time 89748, Note Name: G3
Note ON: Time 89760, Note Name: G3, Velocity: 19
Note ON: Time 89760, Note Name: A#3, Velocity: 22
Note ON: Time 89760, Note Name: G4, Velocity: 26
Note OFF: Time 89988, Note Name: G4
Note OFF: Time 89988, Note Name: A#3
Note OFF: Time 89988, Note Name: G3
Note ON: Time 90000, Note Name: G3, Velocity: 19
Note ON: Time 90000, Note Name: A#3, Velocity: 22
Note ON: Time 90000, Note Name: G4, Velocity: 26
Note OFF: Time 90228, Note Name: G4
Note OFF: Time 90228, Note Name: A#3
Note OFF: Time 90228, Note Name: G3
Note ON: Time 90240, Note Name: G3, Velocity: 18
Note ON: Time 90240, Note Name: A#3, Velocity: 21
Note ON: Time 90240, Note Name: G4, Velocity: 24
Note OFF: Time 90468, Note Name: G4
Note OFF: Time 90468, Note Name: A#3
Note OFF: Time 90468, Note Name: G3
Note ON: Time 90480, Note Name: A#3, Velocity: 21
Note ON: Time 90480, Note Name: G3, Velocity: 18
Note ON: Time 90480, Note Name: G4, Velocity: 24
Note OFF: Time 90708, Note Name: G4
Note OFF: Time 90708, Note Name: G3
Note OFF: Time 90708, Note Name: A#3
Note ON: Time 90720, Note Name: G3, Velocity: 17
Note ON: Time 90720, Note Name: A#3, Velocity: 20
Note ON: Time 90720, Note Name: G4, Velocity: 23
Note OFF: Time 90948, Note Name: G4
Note OFF: Time 90948, Note Name: A#3
Note OFF: Time 90948, Note Name: G3
Note ON: Time 90960, Note Name: G3, Velocity: 17
Note ON: Time 90960, Note Name: A#3, Velocity: 20
Note ON: Time 90960, Note Name: G4, Velocity: 23
Note OFF: Time 91188, Note Name: G4
Note OFF: Time 91188, Note Name: A#3
Note OFF: Time 91188, Note Name: G3
Note ON: Time 91200, Note Name: G3, Velocity: 16
Note ON: Time 91200, Note Name: A#3, Velocity: 18
Note ON: Time 91200, Note Name: G4, Velocity: 23
Note OFF: Time 91428, Note Name: G4
Note OFF: Time 91428, Note Name: A#3
Note OFF: Time 91428, Note Name: G3
Note ON: Time 91440, Note Name: G3, Velocity: 16
Note ON: Time 91440, Note Name: A#3, Velocity: 18
Note ON: Time 91440, Note Name: G4, Velocity: 22
Note OFF: Time 91668, Note Name: G4
Note OFF: Time 91668, Note Name: A#3
Note OFF: Time 91668, Note Name: G3
Note ON: Time 91680, Note Name: G3, Velocity: 15
Note ON: Time 91680, Note Name: A#3, Velocity: 17
Note ON: Time 91680, Note Name: G4, Velocity: 22
Note OFF: Time 91908, Note Name: G4
Note OFF: Time 91908, Note Name: A#3
Note OFF: Time 91908, Note Name: G3
Note ON: Time 91920, Note Name: A#3, Velocity: 17
Note ON: Time 91920, Note Name: G3, Velocity: 15
Note ON: Time 91920, Note Name: G4, Velocity: 22
Note OFF: Time 92148, Note Name: G4
Note OFF: Time 92148, Note Name: G3
Note OFF: Time 92148, Note Name: A#3
Note ON: Time 92160, Note Name: G#1, Velocity: 61
Note ON: Time 92400, Note Name: G#2, Velocity: 17
Note ON: Time 92400, Note Name: D#3, Velocity: 21
Note OFF: Time 92628, Note Name: D#3
Note OFF: Time 92628, Note Name: G#2
Note ON: Time 92640, Note Name: G#2, Velocity: 18
Note ON: Time 92640, Note Name: D#3, Velocity: 22
Note OFF: Time 92868, Note Name: D#3
Note OFF: Time 92868, Note Name: G#2
Note ON: Time 92880, Note Name: G#2, Velocity: 20
Note ON: Time 92880, Note Name: D#3, Velocity: 23
Note ON: Time 92880, Note Name: A#3, Velocity: 23
Note OFF: Time 93108, Note Name: A#3
Note OFF: Time 93108, Note Name: D#3
Note OFF: Time 93108, Note Name: G#2
Note ON: Time 93120, Note Name: D#3, Velocity: 18
Note ON: Time 93120, Note Name: A#3, Velocity: 22
Note OFF: Time 93348, Note Name: A#3
Note OFF: Time 93348, Note Name: D#3
Note ON: Time 93360, Note Name: D#3, Velocity: 18
Note ON: Time 93360, Note Name: A#3, Velocity: 22
Note OFF: Time 93588, Note Name: A#3
Note OFF: Time 93588, Note Name: D#3
Note OFF: Time 93600, Note Name: G#1
Note ON: Time 93600, Note Name: D#3, Velocity: 16
Note ON: Time 93600, Note Name: G#3, Velocity: 18
Note ON: Time 93600, Note Name: D#4, Velocity: 22
Note OFF: Time 93828, Note Name: D#4
Note OFF: Time 93828, Note Name: G#3
Note OFF: Time 93828, Note Name: D#3
Note ON: Time 93840, Note Name: D#3, Velocity: 14
Note ON: Time 93840, Note Name: G#3, Velocity: 16
Note ON: Time 93840, Note Name: D#4, Velocity: 20
Note OFF: Time 94068, Note Name: D#4
Note OFF: Time 94068, Note Name: G#3
Note OFF: Time 94068, Note Name: D#3
Note ON: Time 94080, Note Name: D#3, Velocity: 13
Note ON: Time 94080, Note Name: G#3, Velocity: 15
Note ON: Time 94080, Note Name: D#4, Velocity: 19
Note OFF: Time 94308, Note Name: D#4
Note OFF: Time 94308, Note Name: G#3
Note OFF: Time 94308, Note Name: D#3
Note ON: Time 94320, Note Name: D#3, Velocity: 16
Note ON: Time 94320, Note Name: G#3, Velocity: 18
Note ON: Time 94320, Note Name: D#4, Velocity: 22
Note OFF: Time 94548, Note Name: D#4
Note OFF: Time 94548, Note Name: G#3
Note OFF: Time 94548, Note Name: D#3
Note ON: Time 94560, Note Name: D#3, Velocity: 14
Note ON: Time 94560, Note Name: G#3, Velocity: 16
Note ON: Time 94560, Note Name: D#4, Velocity: 20
Note OFF: Time 94788, Note Name: D#4
Note OFF: Time 94788, Note Name: G#3
Note OFF: Time 94788, Note Name: D#3
Note ON: Time 94800, Note Name: D#3, Velocity: 14
Note ON: Time 94800, Note Name: G#3, Velocity: 16
Note ON: Time 94800, Note Name: D#4, Velocity: 20
Note OFF: Time 95028, Note Name: D#4
Note OFF: Time 95028, Note Name: G#3
Note OFF: Time 95028, Note Name: D#3
Note ON: Time 95040, Note Name: G#1, Velocity: 57
Note ON: Time 95280, Note Name: F3, Velocity: 13
Note ON: Time 95280, Note Name: G#3, Velocity: 15
Note ON: Time 95280, Note Name: C#4, Velocity: 18
Note ON: Time 95280, Note Name: F4, Velocity: 22
Note OFF: Time 95508, Note Name: F4
Note OFF: Time 95508, Note Name: G#3
Note OFF: Time 95508, Note Name: C#4
Note OFF: Time 95508, Note Name: F3
Note ON: Time 95520, Note Name: F3, Velocity: 13
Note ON: Time 95520, Note Name: G#3, Velocity: 15
Note ON: Time 95520, Note Name: C#4, Velocity: 18
Note ON: Time 95520, Note Name: F4, Velocity: 22
Note OFF: Time 95748, Note Name: F4
Note OFF: Time 95748, Note Name: G#3
Note OFF: Time 95748, Note Name: C#4
Note OFF: Time 95748, Note Name: F3
Note ON: Time 95760, Note Name: F3, Velocity: 14
Note ON: Time 95760, Note Name: G#3, Velocity: 16
Note ON: Time 95760, Note Name: C#4, Velocity: 20
Note ON: Time 95760, Note Name: F4, Velocity: 23
Note OFF: Time 95988, Note Name: F4
Note OFF: Time 95988, Note Name: G#3
Note OFF: Time 95988, Note Name: C#4
Note OFF: Time 95988, Note Name: F3
Note ON: Time 96000, Note Name: F3, Velocity: 13
Note ON: Time 96000, Note Name: G#3, Velocity: 15
Note ON: Time 96000, Note Name: C#4, Velocity: 18
Note ON: Time 96000, Note Name: F4, Velocity: 22
Note OFF: Time 96228, Note Name: F4
Note OFF: Time 96228, Note Name: G#3
Note OFF: Time 96228, Note Name: C#4
Note OFF: Time 96228, Note Name: F3
Note ON: Time 96240, Note Name: F3, Velocity: 13
Note ON: Time 96240, Note Name: G#3, Velocity: 15
Note ON: Time 96240, Note Name: C#4, Velocity: 18
Note ON: Time 96240, Note Name: F4, Velocity: 22
Note OFF: Time 96468, Note Name: F4
Note OFF: Time 96468, Note Name: G#3
Note OFF: Time 96468, Note Name: C#4
Note OFF: Time 96468, Note Name: F3
Note OFF: Time 96480, Note Name: G#1
Note ON: Time 96480, Note Name: G3, Velocity: 11
Note ON: Time 96480, Note Name: A#3, Velocity: 13
Note ON: Time 96480, Note Name: C#4, Velocity: 15
Note ON: Time 96480, Note Name: G4, Velocity: 19
Note OFF: Time 96708, Note Name: G4
Note OFF: Time 96708, Note Name: G3
Note OFF: Time 96708, Note Name: A#3
Note OFF: Time 96708, Note Name: C#4
Note ON: Time 96720, Note Name: G3, Velocity: 11
Note ON: Time 96720, Note Name: A#3, Velocity: 13
Note ON: Time 96720, Note Name: C#4, Velocity: 15
Note ON: Time 96720, Note Name: G4, Velocity: 19
Note OFF: Time 96948, Note Name: G4
Note OFF: Time 96948, Note Name: G3
Note OFF: Time 96948, Note Name: A#3
Note OFF: Time 96948, Note Name: C#4
Note ON: Time 96960, Note Name: G3, Velocity: 12
Note ON: Time 96960, Note Name: A#3, Velocity: 14
Note ON: Time 96960, Note Name: C#4, Velocity: 16
Note ON: Time 96960, Note Name: G4, Velocity: 20
Note OFF: Time 97188, Note Name: G4
Note OFF: Time 97188, Note Name: G3
Note OFF: Time 97188, Note Name: A#3
Note OFF: Time 97188, Note Name: C#4
Note ON: Time 97200, Note Name: G#3, Velocity: 12
Note ON: Time 97200, Note Name: C#4, Velocity: 16
Note ON: Time 97200, Note Name: G#4, Velocity: 20
Note OFF: Time 97428, Note Name: G#4
Note OFF: Time 97428, Note Name: C#4
Note OFF: Time 97428, Note Name: G#3
Note ON: Time 97440, Note Name: G#3, Velocity: 12
Note ON: Time 97440, Note Name: C#4, Velocity: 16
Note ON: Time 97440, Note Name: G#4, Velocity: 20
Note OFF: Time 97668, Note Name: G#4
Note OFF: Time 97668, Note Name: C#4
Note OFF: Time 97668, Note Name: G#3
Note ON: Time 97680, Note Name: G#3, Velocity: 12
Note ON: Time 97680, Note Name: C#4, Velocity: 16
Note ON: Time 97680, Note Name: G#4, Velocity: 20
Note OFF: Time 97908, Note Name: G#4
Note OFF: Time 97908, Note Name: C#4
Note OFF: Time 97908, Note Name: G#3
Note ON: Time 97920, Note Name: G#1, Velocity: 57
Note ON: Time 98160, Note Name: G3, Velocity: 13
Note ON: Time 98160, Note Name: A#3, Velocity: 18
Note ON: Time 98160, Note Name: G4, Velocity: 22
Note OFF: Time 98388, Note Name: G4
Note OFF: Time 98388, Note Name: A#3
Note OFF: Time 98388, Note Name: G3
Note ON: Time 98400, Note Name: G3, Velocity: 13
Note ON: Time 98400, Note Name: A#3, Velocity: 18
Note ON: Time 98400, Note Name: G4, Velocity: 22
Note OFF: Time 98628, Note Name: G4
Note OFF: Time 98628, Note Name: A#3
Note OFF: Time 98628, Note Name: G3
Note ON: Time 98640, Note Name: D#4, Velocity: 20
Note ON: Time 98640, Note Name: G3, Velocity: 14
Note ON: Time 98640, Note Name: A#3, Velocity: 14
Note ON: Time 98640, Note Name: C#4, Velocity: 20
Note ON: Time 98640, Note Name: G4, Velocity: 23
Note OFF: Time 98868, Note Name: G4
Note OFF: Time 98868, Note Name: D#4
Note OFF: Time 98868, Note Name: G3
Note OFF: Time 98868, Note Name: A#3
Note OFF: Time 98868, Note Name: C#4
Note ON: Time 98880, Note Name: D#4, Velocity: 18
Note ON: Time 98880, Note Name: G3, Velocity: 13
Note ON: Time 98880, Note Name: A#3, Velocity: 13
Note ON: Time 98880, Note Name: C#4, Velocity: 18
Note ON: Time 98880, Note Name: G4, Velocity: 22
Note OFF: Time 99108, Note Name: G4
Note OFF: Time 99108, Note Name: D#4
Note OFF: Time 99108, Note Name: G3
Note OFF: Time 99108, Note Name: A#3
Note OFF: Time 99108, Note Name: C#4
Note ON: Time 99120, Note Name: D#4, Velocity: 18
Note ON: Time 99120, Note Name: G3, Velocity: 13
Note ON: Time 99120, Note Name: A#3, Velocity: 13
Note ON: Time 99120, Note Name: C#4, Velocity: 18
Note ON: Time 99120, Note Name: G4, Velocity: 22
Note OFF: Time 99348, Note Name: G4
Note OFF: Time 99348, Note Name: D#4
Note OFF: Time 99348, Note Name: G3
Note OFF: Time 99348, Note Name: A#3
Note OFF: Time 99348, Note Name: C#4
Note OFF: Time 99360, Note Name: G#1
Note ON: Time 99360, Note Name: G#3, Velocity: 13
Note ON: Time 99360, Note Name: C4, Velocity: 15
Note ON: Time 99360, Note Name: F#4, Velocity: 19
Note OFF: Time 99588, Note Name: F#4
Note OFF: Time 99588, Note Name: C4
Note OFF: Time 99588, Note Name: G#3
Note ON: Time 99600, Note Name: G#3, Velocity: 13
Note ON: Time 99600, Note Name: C4, Velocity: 15
Note ON: Time 99600, Note Name: F#4, Velocity: 19
Note OFF: Time 99828, Note Name: F#4
Note OFF: Time 99828, Note Name: C4
Note OFF: Time 99828, Note Name: G#3
Note ON: Time 99840, Note Name: G#3, Velocity: 13
Note ON: Time 99840, Note Name: C4, Velocity: 16
Note ON: Time 99840, Note Name: F#4, Velocity: 20
Note OFF: Time 100068, Note Name: F#4
Note OFF: Time 100068, Note Name: C4
Note OFF: Time 100068, Note Name: G#3
Note ON: Time 100080, Note Name: F3, Velocity: 13
Note ON: Time 100080, Note Name: G#3, Velocity: 15
Note ON: Time 100080, Note Name: F4, Velocity: 17
Note OFF: Time 100308, Note Name: F4
Note OFF: Time 100308, Note Name: G#3
Note OFF: Time 100308, Note Name: F3
Note ON: Time 100320, Note Name: F3, Velocity: 13
Note ON: Time 100320, Note Name: G#3, Velocity: 15
Note ON: Time 100320, Note Name: F4, Velocity: 17
Note OFF: Time 100548, Note Name: F4
Note OFF: Time 100548, Note Name: G#3
Note OFF: Time 100548, Note Name: F3
Note ON: Time 100560, Note Name: F3, Velocity: 13
Note ON: Time 100560, Note Name: G#3, Velocity: 15
Note ON: Time 100560, Note Name: F4, Velocity: 17
Note OFF: Time 100788, Note Name: F4
Note OFF: Time 100788, Note Name: G#3
Note OFF: Time 100788, Note Name: F3
Note ON: Time 100800, Note Name: G#1, Velocity: 58
Note ON: Time 101040, Note Name: D#3, Velocity: 18
Note ON: Time 101040, Note Name: G#3, Velocity: 18
Note ON: Time 101040, Note Name: D#4, Velocity: 22
Note OFF: Time 101268, Note Name: D#4
Note OFF: Time 101268, Note Name: G#3
Note OFF: Time 101268, Note Name: D#3
Note ON: Time 101280, Note Name: D#3, Velocity: 18
Note ON: Time 101280, Note Name: G#3, Velocity: 18
Note ON: Time 101280, Note Name: D#4, Velocity: 22
Note OFF: Time 101508, Note Name: D#4
Note OFF: Time 101508, Note Name: G#3
Note OFF: Time 101508, Note Name: D#3
Note ON: Time 101520, Note Name: D#3, Velocity: 15
Note ON: Time 101520, Note Name: G#3, Velocity: 18
Note ON: Time 101520, Note Name: D#4, Velocity: 22
Note OFF: Time 101748, Note Name: D#4
Note OFF: Time 101748, Note Name: G#3
Note OFF: Time 101748, Note Name: D#3
Note ON: Time 101760, Note Name: D#3, Velocity: 15
Note ON: Time 101760, Note Name: G#3, Velocity: 18
Note ON: Time 101760, Note Name: D#4, Velocity: 22
Note OFF: Time 101988, Note Name: D#4
Note OFF: Time 101988, Note Name: G#3
Note OFF: Time 101988, Note Name: D#3
Note ON: Time 102000, Note Name: D#3, Velocity: 14
Note ON: Time 102000, Note Name: G#3, Velocity: 16
Note ON: Time 102000, Note Name: D#4, Velocity: 20
Note OFF: Time 102228, Note Name: D#4
Note OFF: Time 102228, Note Name: G#3
Note OFF: Time 102228, Note Name: D#3
Note OFF: Time 102240, Note Name: G#1
Note ON: Time 102240, Note Name: D#3, Velocity: 16
Note ON: Time 102240, Note Name: D#4, Velocity: 20
Note OFF: Time 102468, Note Name: D#4
Note OFF: Time 102468, Note Name: D#3
Note ON: Time 102480, Note Name: D#3, Velocity: 16
Note ON: Time 102480, Note Name: D#4, Velocity: 20
Note OFF: Time 102708, Note Name: D#4
Note OFF: Time 102708, Note Name: D#3
Note ON: Time 102720, Note Name: D#3, Velocity: 15
Note ON: Time 102720, Note Name: D#4, Velocity: 18
Note OFF: Time 102948, Note Name: D#4
Note OFF: Time 102948, Note Name: D#3
Note ON: Time 102960, Note Name: D#3, Velocity: 16
Note ON: Time 102960, Note Name: D#4, Velocity: 20
Note OFF: Time 103188, Note Name: D#4
Note OFF: Time 103188, Note Name: D#3
Note ON: Time 103200, Note Name: D#3, Velocity: 15
Note ON: Time 103200, Note Name: D#4, Velocity: 18
Note OFF: Time 103428, Note Name: D#4
Note OFF: Time 103428, Note Name: D#3
Note ON: Time 103440, Note Name: D#3, Velocity: 15
Note ON: Time 103440, Note Name: D#4, Velocity: 18
Note OFF: Time 103668, Note Name: D#4
Note OFF: Time 103668, Note Name: D#3
Note ON: Time 103680, Note Name: G#1, Velocity: 62
Note ON: Time 103920, Note Name: D#3, Velocity: 17
Note ON: Time 103920, Note Name: D#4, Velocity: 22
Note OFF: Time 104148, Note Name: D#4
Note OFF: Time 104148, Note Name: D#3
Note ON: Time 104160, Note Name: D#3, Velocity: 18
Note ON: Time 104160, Note Name: D#4, Velocity: 22
Note OFF: Time 104388, Note Name: D#4
Note OFF: Time 104388, Note Name: D#3
Note ON: Time 104400, Note Name: D#3, Velocity: 20
Note ON: Time 104400, Note Name: D#4, Velocity: 24
Note OFF: Time 104628, Note Name: D#4
Note OFF: Time 104628, Note Name: D#3
Note ON: Time 104640, Note Name: D#3, Velocity: 18
Note ON: Time 104640, Note Name: D#4, Velocity: 22
Note OFF: Time 104868, Note Name: D#4
Note OFF: Time 104868, Note Name: D#3
Note ON: Time 104880, Note Name: D#3, Velocity: 18
Note ON: Time 104880, Note Name: D#4, Velocity: 22
Note OFF: Time 105108, Note Name: D#4
Note OFF: Time 105108, Note Name: D#3
Note OFF: Time 105120, Note Name: G#1
Note ON: Time 105120, Note Name: D#3, Velocity: 15
Note ON: Time 105120, Note Name: G#3, Velocity: 17
Note ON: Time 105120, Note Name: D#4, Velocity: 21
Note OFF: Time 105348, Note Name: D#4
Note OFF: Time 105348, Note Name: G#3
Note OFF: Time 105348, Note Name: D#3
Note ON: Time 105360, Note Name: D#3, Velocity: 15
Note ON: Time 105360, Note Name: G#3, Velocity: 17
Note ON: Time 105360, Note Name: D#4, Velocity: 21
Note OFF: Time 105588, Note Name: D#4
Note OFF: Time 105588, Note Name: G#3
Note OFF: Time 105588, Note Name: D#3
Note ON: Time 105600, Note Name: D#3, Velocity: 15
Note ON: Time 105600, Note Name: G#3, Velocity: 17
Note ON: Time 105600, Note Name: D#4, Velocity: 21
Note OFF: Time 105828, Note Name: D#4
Note OFF: Time 105828, Note Name: G#3
Note OFF: Time 105828, Note Name: D#3
Note ON: Time 105840, Note Name: D#3, Velocity: 15
Note ON: Time 105840, Note Name: G#3, Velocity: 20
Note ON: Time 105840, Note Name: D#4, Velocity: 25
Note OFF: Time 106068, Note Name: D#4
Note OFF: Time 106068, Note Name: G#3
Note OFF: Time 106068, Note Name: D#3
Note ON: Time 106080, Note Name: D#3, Velocity: 15
Note ON: Time 106080, Note Name: G#3, Velocity: 17
Note ON: Time 106080, Note Name: D#4, Velocity: 21
Note OFF: Time 106308, Note Name: D#4
Note OFF: Time 106308, Note Name: G#3
Note OFF: Time 106308, Note Name: D#3
Note ON: Time 106320, Note Name: D#3, Velocity: 15
Note ON: Time 106320, Note Name: G#3, Velocity: 17
Note ON: Time 106320, Note Name: D#4, Velocity: 21
Note OFF: Time 106548, Note Name: D#4
Note OFF: Time 106548, Note Name: G#3
Note OFF: Time 106548, Note Name: D#3
Note ON: Time 106560, Note Name: G#1, Velocity: 56
Note ON: Time 106800, Note Name: F3, Velocity: 11
Note ON: Time 106800, Note Name: G#3, Velocity: 12
Note ON: Time 106800, Note Name: C#4, Velocity: 18
Note ON: Time 106800, Note Name: F4, Velocity: 22
Note OFF: Time 107028, Note Name: F4
Note OFF: Time 107028, Note Name: G#3
Note OFF: Time 107028, Note Name: C#4
Note OFF: Time 107028, Note Name: F3
Note ON: Time 107040, Note Name: F3, Velocity: 11
Note ON: Time 107040, Note Name: G#3, Velocity: 12
Note ON: Time 107040, Note Name: C#4, Velocity: 18
Note ON: Time 107040, Note Name: F4, Velocity: 22
Note OFF: Time 107268, Note Name: F4
Note OFF: Time 107268, Note Name: G#3
Note OFF: Time 107268, Note Name: C#4
Note OFF: Time 107268, Note Name: F3
Note ON: Time 107280, Note Name: F3, Velocity: 11
Note ON: Time 107280, Note Name: G#3, Velocity: 13
Note ON: Time 107280, Note Name: C#4, Velocity: 20
Note ON: Time 107280, Note Name: F4, Velocity: 25
Note OFF: Time 107508, Note Name: F4
Note OFF: Time 107508, Note Name: G#3
Note OFF: Time 107508, Note Name: C#4
Note OFF: Time 107508, Note Name: F3
Note ON: Time 107520, Note Name: F3, Velocity: 11
Note ON: Time 107520, Note Name: G#3, Velocity: 12
Note ON: Time 107520, Note Name: C#4, Velocity: 18
Note ON: Time 107520, Note Name: F4, Velocity: 22
Note OFF: Time 107748, Note Name: F4
Note OFF: Time 107748, Note Name: G#3
Note OFF: Time 107748, Note Name: C#4
Note OFF: Time 107748, Note Name: F3
Note ON: Time 107760, Note Name: F3, Velocity: 11
Note ON: Time 107760, Note Name: G#3, Velocity: 12
Note ON: Time 107760, Note Name: C#4, Velocity: 18
Note ON: Time 107760, Note Name: F4, Velocity: 22
Note OFF: Time 107988, Note Name: F4
Note OFF: Time 107988, Note Name: G#3
Note OFF: Time 107988, Note Name: C#4
Note OFF: Time 107988, Note Name: F3
Note OFF: Time 108000, Note Name: G#1
Note ON: Time 108000, Note Name: G3, Velocity: 11
Note ON: Time 108000, Note Name: A#3, Velocity: 12
Note ON: Time 108000, Note Name: C#4, Velocity: 15
Note ON: Time 108000, Note Name: G4, Velocity: 17
Note OFF: Time 108228, Note Name: G4
Note OFF: Time 108228, Note Name: G3
Note OFF: Time 108228, Note Name: A#3
Note OFF: Time 108228, Note Name: C#4
Note ON: Time 108240, Note Name: G3, Velocity: 11
Note ON: Time 108240, Note Name: A#3, Velocity: 12
Note ON: Time 108240, Note Name: C#4, Velocity: 15
Note ON: Time 108240, Note Name: G4, Velocity: 17
Note OFF: Time 108468, Note Name: G4
Note OFF: Time 108468, Note Name: G3
Note OFF: Time 108468, Note Name: A#3
Note OFF: Time 108468, Note Name: C#4
Note ON: Time 108480, Note Name: G3, Velocity: 11
Note ON: Time 108480, Note Name: A#3, Velocity: 12
Note ON: Time 108480, Note Name: C#4, Velocity: 15
Note ON: Time 108480, Note Name: G4, Velocity: 18
Note OFF: Time 108708, Note Name: G4
Note OFF: Time 108708, Note Name: G3
Note OFF: Time 108708, Note Name: A#3
Note OFF: Time 108708, Note Name: C#4
Note ON: Time 108720, Note Name: G#3, Velocity: 13
Note ON: Time 108720, Note Name: C#4, Velocity: 15
Note ON: Time 108720, Note Name: G#4, Velocity: 18
Note OFF: Time 108948, Note Name: G#4
Note OFF: Time 108948, Note Name: C#4
Note OFF: Time 108948, Note Name: G#3
Note ON: Time 108960, Note Name: G#3, Velocity: 11
Note ON: Time 108960, Note Name: C#4, Velocity: 15
Note ON: Time 108960, Note Name: G#4, Velocity: 18
Note OFF: Time 109188, Note Name: G#4
Note OFF: Time 109188, Note Name: C#4
Note OFF: Time 109188, Note Name: G#3
Note ON: Time 109200, Note Name: G#3, Velocity: 11
Note ON: Time 109200, Note Name: C#4, Velocity: 15
Note ON: Time 109200, Note Name: G#4, Velocity: 18
Note OFF: Time 109428, Note Name: G#4
Note OFF: Time 109428, Note Name: C#4
Note OFF: Time 109428, Note Name: G#3
Note ON: Time 109440, Note Name: G#1, Velocity: 57
Note ON: Time 109680, Note Name: G3, Velocity: 13
Note ON: Time 109680, Note Name: A#3, Velocity: 18
Note ON: Time 109680, Note Name: G4, Velocity: 22
Note OFF: Time 109908, Note Name: G4
Note OFF: Time 109908, Note Name: A#3
Note OFF: Time 109908, Note Name: G3
Note ON: Time 109920, Note Name: G3, Velocity: 13
Note ON: Time 109920, Note Name: A#3, Velocity: 18
Note ON: Time 109920, Note Name: G4, Velocity: 22
Note OFF: Time 110148, Note Name: G4
Note OFF: Time 110148, Note Name: A#3
Note OFF: Time 110148, Note Name: G3
Note ON: Time 110160, Note Name: C#4, Velocity: 18
Note ON: Time 110160, Note Name: D#4, Velocity: 18
Note ON: Time 110160, Note Name: G3, Velocity: 14
Note ON: Time 110160, Note Name: A#3, Velocity: 20
Note ON: Time 110160, Note Name: G4, Velocity: 25
Note OFF: Time 110388, Note Name: G4
Note OFF: Time 110388, Note Name: C#4
Note OFF: Time 110388, Note Name: D#4
Note OFF: Time 110388, Note Name: G3
Note OFF: Time 110388, Note Name: A#3
Note ON: Time 110400, Note Name: C#4, Velocity: 18
Note ON: Time 110400, Note Name: D#4, Velocity: 18
Note ON: Time 110400, Note Name: G3, Velocity: 13
Note ON: Time 110400, Note Name: A#3, Velocity: 18
Note ON: Time 110400, Note Name: G4, Velocity: 22
Note OFF: Time 110628, Note Name: G4
Note OFF: Time 110628, Note Name: C#4
Note OFF: Time 110628, Note Name: D#4
Note OFF: Time 110628, Note Name: G3
Note OFF: Time 110628, Note Name: A#3
Note ON: Time 110640, Note Name: C#4, Velocity: 18
Note ON: Time 110640, Note Name: D#4, Velocity: 18
Note ON: Time 110640, Note Name: G3, Velocity: 13
Note ON: Time 110640, Note Name: A#3, Velocity: 18
Note ON: Time 110640, Note Name: G4, Velocity: 22
Note OFF: Time 110868, Note Name: G4
Note OFF: Time 110868, Note Name: C#4
Note OFF: Time 110868, Note Name: D#4
Note OFF: Time 110868, Note Name: G3
Note OFF: Time 110868, Note Name: A#3
Note OFF: Time 110880, Note Name: G#1
Note ON: Time 110880, Note Name: G#3, Velocity: 13
Note ON: Time 110880, Note Name: C4, Velocity: 15
Note ON: Time 110880, Note Name: F#4, Velocity: 17
Note OFF: Time 111108, Note Name: F#4
Note OFF: Time 111108, Note Name: C4
Note OFF: Time 111108, Note Name: G#3
Note ON: Time 111120, Note Name: G#3, Velocity: 13
Note ON: Time 111120, Note Name: C4, Velocity: 15
Note ON: Time 111120, Note Name: F#4, Velocity: 17
Note OFF: Time 111348, Note Name: F#4
Note OFF: Time 111348, Note Name: C4
Note OFF: Time 111348, Note Name: G#3
Note ON: Time 111360, Note Name: G#3, Velocity: 13
Note ON: Time 111360, Note Name: C4, Velocity: 15
Note ON: Time 111360, Note Name: F#4, Velocity: 18
Note OFF: Time 111588, Note Name: F#4
Note OFF: Time 111588, Note Name: C4
Note OFF: Time 111588, Note Name: G#3
Note ON: Time 111600, Note Name: F3, Velocity: 13
Note ON: Time 111600, Note Name: G#3, Velocity: 15
Note ON: Time 111600, Note Name: F4, Velocity: 18
Note OFF: Time 111828, Note Name: F4
Note OFF: Time 111828, Note Name: G#3
Note OFF: Time 111828, Note Name: F3
Note ON: Time 111840, Note Name: F3, Velocity: 12
Note ON: Time 111840, Note Name: G#3, Velocity: 14
Note ON: Time 111840, Note Name: F4, Velocity: 17
Note OFF: Time 112068, Note Name: F4
Note OFF: Time 112068, Note Name: G#3
Note OFF: Time 112068, Note Name: F3
Note ON: Time 112080, Note Name: F3, Velocity: 11
Note ON: Time 112080, Note Name: G#3, Velocity: 13
Note ON: Time 112080, Note Name: F4, Velocity: 16
Note OFF: Time 112308, Note Name: F4
Note OFF: Time 112308, Note Name: G#3
Note OFF: Time 112308, Note Name: F3
Note ON: Time 112320, Note Name: G#1, Velocity: 56
Note ON: Time 112560, Note Name: E3, Velocity: 14
Note ON: Time 112560, Note Name: G#3, Velocity: 16
Note ON: Time 112560, Note Name: E4, Velocity: 20
Note OFF: Time 112788, Note Name: E4
Note OFF: Time 112788, Note Name: G#3
Note OFF: Time 112788, Note Name: E3
Note ON: Time 112800, Note Name: E3, Velocity: 14
Note ON: Time 112800, Note Name: G#3, Velocity: 16
Note ON: Time 112800, Note Name: E4, Velocity: 20
Note OFF: Time 113028, Note Name: E4
Note OFF: Time 113028, Note Name: G#3
Note OFF: Time 113028, Note Name: E3
Note ON: Time 113040, Note Name: E3, Velocity: 14
Note ON: Time 113040, Note Name: G#3, Velocity: 16
Note ON: Time 113040, Note Name: E4, Velocity: 20
Note OFF: Time 113268, Note Name: E4
Note OFF: Time 113268, Note Name: G#3
Note OFF: Time 113268, Note Name: E3
Note ON: Time 113280, Note Name: E3, Velocity: 11
Note ON: Time 113280, Note Name: G#3, Velocity: 16
Note ON: Time 113280, Note Name: E4, Velocity: 20
Note OFF: Time 113508, Note Name: E4
Note OFF: Time 113508, Note Name: G#3
Note OFF: Time 113508, Note Name: E3
Note ON: Time 113520, Note Name: E3, Velocity: 11
Note ON: Time 113520, Note Name: G#3, Velocity: 15
Note ON: Time 113520, Note Name: E4, Velocity: 17
Note OFF: Time 113748, Note Name: E4
Note OFF: Time 113748, Note Name: G#3
Note OFF: Time 113748, Note Name: E3
Note OFF: Time 113760, Note Name: G#1
Note ON: Time 113760, Note Name: D#3, Velocity: 10
Note ON: Time 113760, Note Name: G#3, Velocity: 15
Note ON: Time 113760, Note Name: D#4, Velocity: 18
Note OFF: Time 113988, Note Name: D#4
Note OFF: Time 113988, Note Name: G#3
Note OFF: Time 113988, Note Name: D#3
Note ON: Time 114000, Note Name: G#3, Velocity: 15
Note ON: Time 114000, Note Name: D#3, Velocity: 10
Note ON: Time 114000, Note Name: D#4, Velocity: 18
Note OFF: Time 114228, Note Name: D#4
Note OFF: Time 114228, Note Name: D#3
Note OFF: Time 114228, Note Name: G#3
Note ON: Time 114240, Note Name: G#3, Velocity: 15
Note ON: Time 114240, Note Name: D#3, Velocity: 9
Note ON: Time 114240, Note Name: D#4, Velocity: 17
Note OFF: Time 114468, Note Name: D#4
Note OFF: Time 114468, Note Name: D#3
Note OFF: Time 114468, Note Name: G#3
Note ON: Time 114480, Note Name: G#3, Velocity: 15
Note ON: Time 114480, Note Name: D#3, Velocity: 10
Note ON: Time 114480, Note Name: D#4, Velocity: 18
Note OFF: Time 114708, Note Name: D#4
Note OFF: Time 114708, Note Name: D#3
Note OFF: Time 114708, Note Name: G#3
Note ON: Time 114720, Note Name: G#3, Velocity: 15
Note ON: Time 114720, Note Name: D#3, Velocity: 9
Note ON: Time 114720, Note Name: D#4, Velocity: 17
Note OFF: Time 114948, Note Name: D#4
Note OFF: Time 114948, Note Name: D#3
Note OFF: Time 114948, Note Name: G#3
Note ON: Time 114960, Note Name: G#3, Velocity: 15
Note ON: Time 114960, Note Name: D#3, Velocity: 9
Note ON: Time 114960, Note Name: D#4, Velocity: 17
Note OFF: Time 115188, Note Name: D#4
Note OFF: Time 115188, Note Name: D#3
Note OFF: Time 115188, Note Name: G#3
Note ON: Time 115200, Note Name: G#1, Velocity: 56
Note ON: Time 115440, Note Name: E3, Velocity: 14
Note ON: Time 115440, Note Name: G#3, Velocity: 16
Note ON: Time 115440, Note Name: E4, Velocity: 20
Note OFF: Time 115668, Note Name: E4
Note OFF: Time 115668, Note Name: G#3
Note OFF: Time 115668, Note Name: E3
Note ON: Time 115680, Note Name: E3, Velocity: 14
Note ON: Time 115680, Note Name: G#3, Velocity: 16
Note ON: Time 115680, Note Name: E4, Velocity: 20
Note OFF: Time 115908, Note Name: E4
Note OFF: Time 115908, Note Name: G#3
Note OFF: Time 115908, Note Name: E3
Note ON: Time 115920, Note Name: E3, Velocity: 14
Note ON: Time 115920, Note Name: G#3, Velocity: 16
Note ON: Time 115920, Note Name: E4, Velocity: 20
Note OFF: Time 116148, Note Name: E4
Note OFF: Time 116148, Note Name: G#3
Note OFF: Time 116148, Note Name: E3
Note ON: Time 116160, Note Name: E3, Velocity: 11
Note ON: Time 116160, Note Name: G#3, Velocity: 16
Note ON: Time 116160, Note Name: E4, Velocity: 20
Note OFF: Time 116388, Note Name: E4
Note OFF: Time 116388, Note Name: G#3
Note OFF: Time 116388, Note Name: E3
Note ON: Time 116400, Note Name: E3, Velocity: 11
Note ON: Time 116400, Note Name: G#3, Velocity: 15
Note ON: Time 116400, Note Name: E4, Velocity: 17
Note OFF: Time 116628, Note Name: E4
Note OFF: Time 116628, Note Name: G#3
Note OFF: Time 116628, Note Name: E3
Note OFF: Time 116640, Note Name: G#1
Note ON: Time 116640, Note Name: D#3, Velocity: 10
Note ON: Time 116640, Note Name: G#3, Velocity: 15
Note ON: Time 116640, Note Name: D#4, Velocity: 18
Note OFF: Time 116868, Note Name: D#4
Note OFF: Time 116868, Note Name: G#3
Note OFF: Time 116868, Note Name: D#3
Note ON: Time 116880, Note Name: G#3, Velocity: 15
Note ON: Time 116880, Note Name: D#3, Velocity: 10
Note ON: Time 116880, Note Name: D#4, Velocity: 18
Note OFF: Time 117108, Note Name: D#4
Note OFF: Time 117108, Note Name: D#3
Note OFF: Time 117108, Note Name: G#3
Note ON: Time 117120, Note Name: G#3, Velocity: 15
Note ON: Time 117120, Note Name: D#3, Velocity: 9
Note ON: Time 117120, Note Name: D#4, Velocity: 17
Note OFF: Time 117348, Note Name: D#4
Note OFF: Time 117348, Note Name: D#3
Note OFF: Time 117348, Note Name: G#3
Note ON: Time 117360, Note Name: E3, Velocity: 14
Note ON: Time 117360, Note Name: G#3, Velocity: 16
Note ON: Time 117360, Note Name: E4, Velocity: 20
Note OFF: Time 117588, Note Name: E4
Note OFF: Time 117588, Note Name: G#3
Note OFF: Time 117588, Note Name: E3
Note ON: Time 117600, Note Name: E3, Velocity: 11
Note ON: Time 117600, Note Name: G#3, Velocity: 16
Note ON: Time 117600, Note Name: E4, Velocity: 20
Note OFF: Time 117828, Note Name: E4
Note OFF: Time 117828, Note Name: G#3
Note OFF: Time 117828, Note Name: E3
Note ON: Time 117840, Note Name: E3, Velocity: 11
Note ON: Time 117840, Note Name: G#3, Velocity: 15
Note ON: Time 117840, Note Name: E4, Velocity: 17
Note OFF: Time 118068, Note Name: E4
Note OFF: Time 118068, Note Name: G#3
Note OFF: Time 118068, Note Name: E3
Note ON: Time 118080, Note Name: D#3, Velocity: 10
Note ON: Time 118080, Note Name: G#3, Velocity: 15
Note ON: Time 118080, Note Name: D#4, Velocity: 18
Note OFF: Time 118308, Note Name: D#4
Note OFF: Time 118308, Note Name: G#3
Note OFF: Time 118308, Note Name: D#3
Note ON: Time 118320, Note Name: G#3, Velocity: 15
Note ON: Time 118320, Note Name: D#3, Velocity: 10
Note ON: Time 118320, Note Name: D#4, Velocity: 18
Note OFF: Time 118548, Note Name: D#4
Note OFF: Time 118548, Note Name: D#3
Note OFF: Time 118548, Note Name: G#3
Note ON: Time 118560, Note Name: G#3, Velocity: 15
Note ON: Time 118560, Note Name: D#3, Velocity: 9
Note ON: Time 118560, Note Name: D#4, Velocity: 17
Note OFF: Time 118788, Note Name: D#4
Note OFF: Time 118788, Note Name: D#3
Note OFF: Time 118788, Note Name: G#3
Note ON: Time 118800, Note Name: D#3, Velocity: 14
Note ON: Time 118800, Note Name: G#3, Velocity: 16
Note ON: Time 118800, Note Name: D#4, Velocity: 20
Note OFF: Time 119028, Note Name: D#4
Note OFF: Time 119028, Note Name: G#3
Note OFF: Time 119028, Note Name: D#3
Note ON: Time 119040, Note Name: D#3, Velocity: 11
Note ON: Time 119040, Note Name: G#3, Velocity: 16
Note ON: Time 119040, Note Name: D#4, Velocity: 20
Note OFF: Time 119268, Note Name: D#4
Note OFF: Time 119268, Note Name: G#3
Note OFF: Time 119268, Note Name: D#3
Note ON: Time 119280, Note Name: D#3, Velocity: 11
Note ON: Time 119280, Note Name: G#3, Velocity: 15
Note ON: Time 119280, Note Name: D#4, Velocity: 17
Note OFF: Time 119508, Note Name: D#4
Note OFF: Time 119508, Note Name: G#3
Note OFF: Time 119508, Note Name: D#3
Note ON: Time 119520, Note Name: G#1, Velocity: 55
Note ON: Time 119760, Note Name: G#3, Velocity: 15
Note ON: Time 119760, Note Name: D#3, Velocity: 10
Note ON: Time 119760, Note Name: D#4, Velocity: 18
Note OFF: Time 119988, Note Name: D#4
Note OFF: Time 119988, Note Name: D#3
Note OFF: Time 119988, Note Name: G#3
Note ON: Time 120000, Note Name: G#3, Velocity: 15
Note ON: Time 120000, Note Name: D#3, Velocity: 9
Note ON: Time 120000, Note Name: D#4, Velocity: 17
Note OFF: Time 120228, Note Name: D#4
Note OFF: Time 120228, Note Name: D#3
Note OFF: Time 120228, Note Name: G#3
Note ON: Time 120240, Note Name: D#3, Velocity: 14
Note ON: Time 120240, Note Name: G#3, Velocity: 16
Note ON: Time 120240, Note Name: D#4, Velocity: 20
Note OFF: Time 120468, Note Name: D#4
Note OFF: Time 120468, Note Name: G#3
Note OFF: Time 120468, Note Name: D#3
Note ON: Time 120480, Note Name: D#3, Velocity: 11
Note ON: Time 120480, Note Name: G#3, Velocity: 16
Note ON: Time 120480, Note Name: C#4, Velocity: 20
Note OFF: Time 120708, Note Name: C#4
Note OFF: Time 120708, Note Name: G#3
Note OFF: Time 120708, Note Name: D#3
Note ON: Time 120720, Note Name: D#3, Velocity: 11
Note ON: Time 120720, Note Name: G#3, Velocity: 15
Note ON: Time 120720, Note Name: C#4, Velocity: 17
Note OFF: Time 120948, Note Name: C#4
Note OFF: Time 120948, Note Name: G#3
Note OFF: Time 120948, Note Name: D#3
Note OFF: Time 120960, Note Name: G#1
Note ON: Time 120960, Note Name: D#3, Velocity: 13
Note ON: Time 120960, Note Name: G#3, Velocity: 15
Note ON: Time 120960, Note Name: D#4, Velocity: 18
Note OFF: Time 121188, Note Name: D#4
Note OFF: Time 121188, Note Name: G#3
Note OFF: Time 121188, Note Name: D#3
Note ON: Time 121200, Note Name: G#3, Velocity: 15
Note ON: Time 121200, Note Name: D#3, Velocity: 10
Note ON: Time 121200, Note Name: D#4, Velocity: 18
Note OFF: Time 121428, Note Name: D#4
Note OFF: Time 121428, Note Name: D#3
Note OFF: Time 121428, Note Name: G#3
Note ON: Time 121440, Note Name: G#3, Velocity: 15
Note ON: Time 121440, Note Name: D#3, Velocity: 9
Note ON: Time 121440, Note Name: D#4, Velocity: 17
Note OFF: Time 121668, Note Name: D#4
Note OFF: Time 121668, Note Name: D#3
Note OFF: Time 121668, Note Name: G#3
Note ON: Time 121680, Note Name: D#3, Velocity: 14
Note ON: Time 121680, Note Name: G#3, Velocity: 16
Note ON: Time 121680, Note Name: D#4, Velocity: 20
Note OFF: Time 121908, Note Name: D#4
Note OFF: Time 121908, Note Name: G#3
Note OFF: Time 121908, Note Name: D#3
Note ON: Time 121920, Note Name: D#3, Velocity: 11
Note ON: Time 121920, Note Name: G#3, Velocity: 16
Note ON: Time 121920, Note Name: C#4, Velocity: 20
Note OFF: Time 122148, Note Name: C#4
Note OFF: Time 122148, Note Name: G#3
Note OFF: Time 122148, Note Name: D#3
Note ON: Time 122160, Note Name: D#3, Velocity: 11
Note ON: Time 122160, Note Name: G#3, Velocity: 15
Note ON: Time 122160, Note Name: C#4, Velocity: 17
Note OFF: Time 122388, Note Name: C#4
Note OFF: Time 122388, Note Name: G#3
Note OFF: Time 122388, Note Name: D#3
Note ON: Time 122400, Note Name: D#3, Velocity: 13
Note ON: Time 122400, Note Name: G#3, Velocity: 15
Note ON: Time 122400, Note Name: D#4, Velocity: 18
Note OFF: Time 122628, Note Name: D#4
Note OFF: Time 122628, Note Name: G#3
Note OFF: Time 122628, Note Name: D#3
Note ON: Time 122640, Note Name: G#3, Velocity: 15
Note ON: Time 122640, Note Name: D#3, Velocity: 10
Note ON: Time 122640, Note Name: D#4, Velocity: 18
Note OFF: Time 122868, Note Name: D#4
Note OFF: Time 122868, Note Name: D#3
Note OFF: Time 122868, Note Name: G#3
Note ON: Time 122880, Note Name: G3, Velocity: 15
Note ON: Time 122880, Note Name: D#3, Velocity: 9
Note ON: Time 122880, Note Name: D#4, Velocity: 17
Note OFF: Time 123108, Note Name: D#4
Note OFF: Time 123108, Note Name: D#3
Note OFF: Time 123108, Note Name: G3
Note ON: Time 123120, Note Name: D#3, Velocity: 14
Note ON: Time 123120, Note Name: G#3, Velocity: 16
Note ON: Time 123120, Note Name: D#4, Velocity: 20
Note OFF: Time 123348, Note Name: D#4
Note OFF: Time 123348, Note Name: G#3
Note OFF: Time 123348, Note Name: D#3
Note ON: Time 123360, Note Name: D#3, Velocity: 11
Note ON: Time 123360, Note Name: G#3, Velocity: 16
Note ON: Time 123360, Note Name: D#4, Velocity: 20
Note OFF: Time 123588, Note Name: D#4
Note OFF: Time 123588, Note Name: G#3
Note OFF: Time 123588, Note Name: D#3
Note ON: Time 123600, Note Name: D#3, Velocity: 11
Note ON: Time 123600, Note Name: G3, Velocity: 15
Note ON: Time 123600, Note Name: D#4, Velocity: 17
Note OFF: Time 123828, Note Name: D#4
Note OFF: Time 123828, Note Name: G3
Note OFF: Time 123828, Note Name: D#3
Note ON: Time 123840, Note Name: D#3, Velocity: 13
Note ON: Time 123840, Note Name: G#3, Velocity: 15
Note ON: Time 123840, Note Name: D#4, Velocity: 18
Note OFF: Time 124068, Note Name: D#4
Note OFF: Time 124068, Note Name: G#3
Note OFF: Time 124068, Note Name: D#3
Note ON: Time 124080, Note Name: G#3, Velocity: 15
Note ON: Time 124080, Note Name: D#3, Velocity: 10
Note ON: Time 124080, Note Name: D#4, Velocity: 18
Note OFF: Time 124308, Note Name: D#4
Note OFF: Time 124308, Note Name: D#3
Note OFF: Time 124308, Note Name: G#3
Note ON: Time 124320, Note Name: G3, Velocity: 15
Note ON: Time 124320, Note Name: D#3, Velocity: 9
Note ON: Time 124320, Note Name: D#4, Velocity: 17
Note OFF: Time 124548, Note Name: D#4
Note OFF: Time 124548, Note Name: D#3
Note OFF: Time 124548, Note Name: G3
Note ON: Time 124560, Note Name: D#3, Velocity: 14
Note ON: Time 124560, Note Name: G#3, Velocity: 16
Note ON: Time 124560, Note Name: D#4, Velocity: 20
Note OFF: Time 124788, Note Name: D#4
Note OFF: Time 124788, Note Name: G#3
Note OFF: Time 124788, Note Name: D#3
Note ON: Time 124800, Note Name: D#3, Velocity: 11
Note ON: Time 124800, Note Name: G#3, Velocity: 16
Note ON: Time 124800, Note Name: D#4, Velocity: 20
Note OFF: Time 125028, Note Name: D#4
Note OFF: Time 125028, Note Name: G#3
Note OFF: Time 125028, Note Name: D#3
Note ON: Time 125040, Note Name: D#3, Velocity: 11
Note ON: Time 125040, Note Name: G3, Velocity: 15
Note ON: Time 125040, Note Name: D#4, Velocity: 17
Note OFF: Time 125268, Note Name: D#4
Note OFF: Time 125268, Note Name: G3
Note OFF: Time 125268, Note Name: D#3
Note ON: Time 125280, Note Name: G#1, Velocity: 53
Note ON: Time 125520, Note Name: G#3, Velocity: 15
Note ON: Time 125520, Note Name: D#3, Velocity: 10
Note ON: Time 125520, Note Name: D#4, Velocity: 18
Note OFF: Time 125748, Note Name: D#4
Note OFF: Time 125748, Note Name: D#3
Note OFF: Time 125748, Note Name: G#3
Note ON: Time 125760, Note Name: G#3, Velocity: 15
Note ON: Time 125760, Note Name: D#3, Velocity: 9
Note ON: Time 125760, Note Name: D#4, Velocity: 17
Note OFF: Time 125988, Note Name: D#4
Note OFF: Time 125988, Note Name: D#3
Note OFF: Time 125988, Note Name: G#3
Note ON: Time 126000, Note Name: D#3, Velocity: 14
Note ON: Time 126000, Note Name: G#3, Velocity: 16
Note ON: Time 126000, Note Name: D#4, Velocity: 20
Note OFF: Time 126228, Note Name: D#4
Note OFF: Time 126228, Note Name: G#3
Note OFF: Time 126228, Note Name: D#3
Note ON: Time 126240, Note Name: D#3, Velocity: 11
Note ON: Time 126240, Note Name: G#3, Velocity: 16
Note ON: Time 126240, Note Name: D#4, Velocity: 20
Note OFF: Time 126468, Note Name: D#4
Note OFF: Time 126468, Note Name: G#3
Note OFF: Time 126468, Note Name: D#3
Note ON: Time 126480, Note Name: D#3, Velocity: 11
Note ON: Time 126480, Note Name: G#3, Velocity: 15
Note ON: Time 126480, Note Name: D#4, Velocity: 17
Note OFF: Time 126708, Note Name: D#4
Note OFF: Time 126708, Note Name: G#3
Note OFF: Time 126708, Note Name: D#3
Note OFF: Time 126720, Note Name: G#1
Note ON: Time 126720, Note Name: D#3, Velocity: 13
Note ON: Time 126720, Note Name: G#3, Velocity: 15
Note ON: Time 126720, Note Name: D#4, Velocity: 18
Note OFF: Time 126948, Note Name: D#4
Note OFF: Time 126948, Note Name: G#3
Note OFF: Time 126948, Note Name: D#3
Note ON: Time 126960, Note Name: G#3, Velocity: 15
Note ON: Time 126960, Note Name: D#3, Velocity: 10
Note ON: Time 126960, Note Name: D#4, Velocity: 18
Note OFF: Time 127188, Note Name: D#4
Note OFF: Time 127188, Note Name: D#3
Note OFF: Time 127188, Note Name: G#3
Note ON: Time 127200, Note Name: G#3, Velocity: 15
Note ON: Time 127200, Note Name: D#3, Velocity: 9
Note ON: Time 127200, Note Name: D#4, Velocity: 17
Note OFF: Time 127428, Note Name: D#4
Note OFF: Time 127428, Note Name: D#3
Note OFF: Time 127428, Note Name: G#3
Note ON: Time 127440, Note Name: D#3, Velocity: 14
Note ON: Time 127440, Note Name: G#3, Velocity: 16
Note ON: Time 127440, Note Name: D#4, Velocity: 20
Note OFF: Time 127668, Note Name: D#4
Note OFF: Time 127668, Note Name: G#3
Note OFF: Time 127668, Note Name: D#3
Note ON: Time 127680, Note Name: D#3, Velocity: 11
Note ON: Time 127680, Note Name: G#3, Velocity: 16
Note OFF: Time 127908, Note Name: G#3
Note OFF: Time 127908, Note Name: D#3
Note ON: Time 127920, Note Name: D#3, Velocity: 11
Note ON: Time 127920, Note Name: G#3, Velocity: 15
Note ON: Time 127920, Note Name: D#4, Velocity: 17
Note OFF: Time 128148, Note Name: D#4
Note OFF: Time 128148, Note Name: G#3
Note OFF: Time 128148, Note Name: D#3
Note ON: Time 128160, Note Name: D#3, Velocity: 11
Note ON: Time 128160, Note Name: G#3, Velocity: 13
Note ON: Time 128160, Note Name: D#4, Velocity: 15
Note OFF: Time 129600, Note Name: D#4
Note OFF: Time 129600, Note Name: G#3
Note OFF: Time 129600, Note Name: D#3
Track 3: Chopin: Prelude No.17 in Ab Major Op. 28
Track 4: Copyright  2002 by Bernd Krueger
Track 5: http://www.piano-midi.de
Track 6: Edition: 2014-02-21
Track 7: Spur 7
