Processing chpn_op25_e3.mid...

Track 0: Chopin Etude  No. 3, Opus 25
Track 1: Piano right
Note ON: Time 960, Note Name: C5, Velocity: 61
Note OFF: Time 1440, Note Name: C5
Note ON: Time 1440, Note Name: F4, Velocity: 50
Note ON: Time 1440, Note Name: D5, Velocity: 73
Note OFF: Time 1560, Note Name: D5
Note ON: Time 1560, Note Name: C5, Velocity: 52
Note OFF: Time 1680, Note Name: F4
Note ON: Time 1680, Note Name: F5, Velocity: 64
Note OFF: Time 1800, Note Name: F5
Note OFF: Time 1800, Note Name: C5
Note ON: Time 1920, Note Name: C4, Velocity: 46
Note ON: Time 1920, Note Name: G4, Velocity: 67
Note OFF: Time 2040, Note Name: G4
Note ON: Time 2040, Note Name: F4, Velocity: 47
Note OFF: Time 2160, Note Name: C4
Note ON: Time 2160, Note Name: C5, Velocity: 63
Note OFF: Time 2280, Note Name: C5
Note OFF: Time 2280, Note Name: F4
Note ON: Time 2400, Note Name: F4, Velocity: 48
Note ON: Time 2400, Note Name: D5, Velocity: 69
Note OFF: Time 2520, Note Name: D5
Note ON: Time 2520, Note Name: C5, Velocity: 49
Note OFF: Time 2640, Note Name: F4
Note ON: Time 2640, Note Name: F5, Velocity: 63
Note OFF: Time 2760, Note Name: F5
Note OFF: Time 2760, Note Name: C5
Note ON: Time 2880, Note Name: G4, Velocity: 50
Note ON: Time 2880, Note Name: D5, Velocity: 73
Note OFF: Time 3000, Note Name: D5
Note ON: Time 3000, Note Name: C5, Velocity: 51
Note OFF: Time 3120, Note Name: G4
Note ON: Time 3120, Note Name: G5, Velocity: 61
Note OFF: Time 3240, Note Name: G5
Note OFF: Time 3240, Note Name: C5
Note ON: Time 3360, Note Name: C4, Velocity: 44
Note ON: Time 3360, Note Name: A4, Velocity: 64
Note OFF: Time 3480, Note Name: A4
Note ON: Time 3480, Note Name: G4, Velocity: 47
Note OFF: Time 3600, Note Name: C4
Note ON: Time 3600, Note Name: C5, Velocity: 59
Note OFF: Time 3720, Note Name: C5
Note OFF: Time 3720, Note Name: G4
Note ON: Time 3840, Note Name: G4, Velocity: 48
Note ON: Time 3840, Note Name: D5, Velocity: 69
Note OFF: Time 3960, Note Name: D5
Note ON: Time 3960, Note Name: C5, Velocity: 52
Note OFF: Time 4080, Note Name: G4
Note ON: Time 4080, Note Name: G5, Velocity: 66
Note OFF: Time 4200, Note Name: G5
Note OFF: Time 4200, Note Name: C5
Note ON: Time 4320, Note Name: A4, Velocity: 52
Note ON: Time 4320, Note Name: D5, Velocity: 76
Note OFF: Time 4440, Note Name: D5
Note ON: Time 4440, Note Name: C5, Velocity: 53
Note OFF: Time 4560, Note Name: A4
Note ON: Time 4560, Note Name: A5, Velocity: 65
Note OFF: Time 4680, Note Name: A5
Note OFF: Time 4680, Note Name: C5
Note ON: Time 4800, Note Name: F4, Velocity: 49
Note ON: Time 4800, Note Name: D5, Velocity: 71
Note OFF: Time 4920, Note Name: D5
Note ON: Time 4920, Note Name: C5, Velocity: 49
Note OFF: Time 5040, Note Name: F4
Note ON: Time 5040, Note Name: F5, Velocity: 63
Note OFF: Time 5160, Note Name: F5
Note OFF: Time 5160, Note Name: C5
Note ON: Time 5280, Note Name: D5, Velocity: 50
Note ON: Time 5280, Note Name: A5, Velocity: 72
Note OFF: Time 5400, Note Name: A5
Note ON: Time 5400, Note Name: G5, Velocity: 54
Note OFF: Time 5520, Note Name: D5
Note ON: Time 5520, Note Name: D6, Velocity: 66
Note OFF: Time 5640, Note Name: D6
Note OFF: Time 5640, Note Name: G5
Note ON: Time 5760, Note Name: G4, Velocity: 52
Note ON: Time 5760, Note Name: D5, Velocity: 76
Note OFF: Time 5880, Note Name: D5
Note ON: Time 5880, Note Name: C5, Velocity: 57
Note OFF: Time 6000, Note Name: G4
Note ON: Time 6000, Note Name: G5, Velocity: 66
Note OFF: Time 6120, Note Name: G5
Note OFF: Time 6120, Note Name: C5
Note ON: Time 6240, Note Name: C5, Velocity: 51
Note ON: Time 6240, Note Name: A5, Velocity: 72
Note OFF: Time 6360, Note Name: A5
Note ON: Time 6360, Note Name: G5, Velocity: 51
Note OFF: Time 6480, Note Name: C5
Note ON: Time 6480, Note Name: C6, Velocity: 64
Note OFF: Time 6600, Note Name: C6
Note OFF: Time 6600, Note Name: G5
Note ON: Time 6720, Note Name: C6, Velocity: 51
Note ON: Time 6720, Note Name: A6, Velocity: 75
Note OFF: Time 6840, Note Name: A6
Note ON: Time 6840, Note Name: G6, Velocity: 53
Note OFF: Time 6960, Note Name: C6
Note ON: Time 6960, Note Name: C7, Velocity: 69
Note OFF: Time 7080, Note Name: C7
Note OFF: Time 7080, Note Name: G6
Note ON: Time 7200, Note Name: F4, Velocity: 50
Note ON: Time 7200, Note Name: D5, Velocity: 73
Note OFF: Time 7320, Note Name: D5
Note ON: Time 7320, Note Name: C5, Velocity: 51
Note OFF: Time 7440, Note Name: F4
Note ON: Time 7440, Note Name: F5, Velocity: 69
Note OFF: Time 7560, Note Name: F5
Note OFF: Time 7560, Note Name: C5
Note ON: Time 7680, Note Name: C4, Velocity: 46
Note ON: Time 7680, Note Name: G4, Velocity: 67
Note OFF: Time 7800, Note Name: G4
Note ON: Time 7800, Note Name: F4, Velocity: 47
Note OFF: Time 7920, Note Name: C4
Note ON: Time 7920, Note Name: C5, Velocity: 65
Note OFF: Time 8040, Note Name: C5
Note OFF: Time 8040, Note Name: F4
Note ON: Time 8160, Note Name: F4, Velocity: 48
Note ON: Time 8160, Note Name: D5, Velocity: 69
Note OFF: Time 8280, Note Name: D5
Note ON: Time 8280, Note Name: C5, Velocity: 53
Note OFF: Time 8400, Note Name: F4
Note ON: Time 8400, Note Name: F5, Velocity: 67
Note OFF: Time 8520, Note Name: F5
Note OFF: Time 8520, Note Name: C5
Note ON: Time 8640, Note Name: G4, Velocity: 50
Note ON: Time 8640, Note Name: D5, Velocity: 73
Note OFF: Time 8760, Note Name: D5
Note ON: Time 8760, Note Name: C5, Velocity: 51
Note OFF: Time 8880, Note Name: G4
Note ON: Time 8880, Note Name: G5, Velocity: 65
Note OFF: Time 9000, Note Name: G5
Note OFF: Time 9000, Note Name: C5
Note ON: Time 9120, Note Name: C4, Velocity: 40
Note ON: Time 9120, Note Name: A4, Velocity: 64
Note OFF: Time 9240, Note Name: A4
Note ON: Time 9240, Note Name: G4, Velocity: 47
Note OFF: Time 9360, Note Name: C4
Note ON: Time 9360, Note Name: C5, Velocity: 63
Note OFF: Time 9480, Note Name: C5
Note OFF: Time 9480, Note Name: G4
Note ON: Time 9600, Note Name: G4, Velocity: 48
Note ON: Time 9600, Note Name: D5, Velocity: 69
Note OFF: Time 9720, Note Name: D5
Note ON: Time 9720, Note Name: C5, Velocity: 49
Note OFF: Time 9840, Note Name: G4
Note ON: Time 9840, Note Name: G5, Velocity: 66
Note OFF: Time 9960, Note Name: G5
Note OFF: Time 9960, Note Name: C5
Note ON: Time 10080, Note Name: A4, Velocity: 52
Note ON: Time 10080, Note Name: D5, Velocity: 76
Note OFF: Time 10200, Note Name: D5
Note ON: Time 10200, Note Name: C5, Velocity: 53
Note OFF: Time 10320, Note Name: A4
Note ON: Time 10320, Note Name: A5, Velocity: 70
Note OFF: Time 10440, Note Name: A5
Note OFF: Time 10440, Note Name: C5
Note ON: Time 10560, Note Name: A4, Velocity: 49
Note ON: Time 10560, Note Name: E5, Velocity: 71
Note OFF: Time 10680, Note Name: E5
Note ON: Time 10680, Note Name: D5, Velocity: 49
Note OFF: Time 10800, Note Name: A4
Note ON: Time 10800, Note Name: A5, Velocity: 66
Note OFF: Time 10920, Note Name: A5
Note OFF: Time 10920, Note Name: D5
Note ON: Time 11040, Note Name: G4, Velocity: 50
Note ON: Time 11040, Note Name: D5, Velocity: 72
Note OFF: Time 11160, Note Name: D5
Note ON: Time 11160, Note Name: C5, Velocity: 53
Note OFF: Time 11280, Note Name: G4
Note ON: Time 11280, Note Name: G5, Velocity: 65
Note OFF: Time 11400, Note Name: G5
Note OFF: Time 11400, Note Name: C5
Note ON: Time 11520, Note Name: F4, Velocity: 54
Note ON: Time 11520, Note Name: D5, Velocity: 80
Note OFF: Time 11640, Note Name: D5
Note ON: Time 11640, Note Name: C5, Velocity: 57
Note OFF: Time 11760, Note Name: F4
Note ON: Time 11760, Note Name: F5, Velocity: 71
Note OFF: Time 11880, Note Name: F5
Note OFF: Time 11880, Note Name: C5
Note ON: Time 12000, Note Name: F5, Velocity: 51
Note ON: Time 12000, Note Name: D6, Velocity: 72
Note OFF: Time 12120, Note Name: D6
Note ON: Time 12120, Note Name: C6, Velocity: 51
Note OFF: Time 12240, Note Name: F5
Note ON: Time 12240, Note Name: F6, Velocity: 65
Note OFF: Time 12360, Note Name: F6
Note OFF: Time 12360, Note Name: C6
Note ON: Time 12480, Note Name: F6, Velocity: 51
Note ON: Time 12480, Note Name: D7, Velocity: 75
Note OFF: Time 12600, Note Name: D7
Note ON: Time 12600, Note Name: C7, Velocity: 58
Note OFF: Time 12720, Note Name: F6
Note ON: Time 12720, Note Name: F7, Velocity: 71
Note OFF: Time 12840, Note Name: F7
Note OFF: Time 12840, Note Name: C7
Note ON: Time 12960, Note Name: F4, Velocity: 50
Note ON: Time 12960, Note Name: D5, Velocity: 73
Note OFF: Time 13020, Note Name: D5
Note ON: Time 13020, Note Name: C5, Velocity: 58
Note OFF: Time 13080, Note Name: C5
Note ON: Time 13080, Note Name: D5, Velocity: 63
Note OFF: Time 13140, Note Name: D5
Note ON: Time 13140, Note Name: C5, Velocity: 52
Note OFF: Time 13200, Note Name: F4
Note ON: Time 13200, Note Name: F5, Velocity: 67
Note OFF: Time 13320, Note Name: F5
Note OFF: Time 13320, Note Name: C5
Note ON: Time 13440, Note Name: C4, Velocity: 46
Note ON: Time 13440, Note Name: G4, Velocity: 67
Note OFF: Time 13500, Note Name: G4
Note ON: Time 13500, Note Name: F4, Velocity: 53
Note OFF: Time 13560, Note Name: F4
Note ON: Time 13560, Note Name: G4, Velocity: 57
Note OFF: Time 13620, Note Name: G4
Note ON: Time 13620, Note Name: F4, Velocity: 47
Note OFF: Time 13680, Note Name: C4
Note ON: Time 13680, Note Name: C5, Velocity: 66
Note OFF: Time 13800, Note Name: C5
Note OFF: Time 13800, Note Name: F4
Note ON: Time 13920, Note Name: F4, Velocity: 48
Note ON: Time 13920, Note Name: D5, Velocity: 69
Note OFF: Time 13980, Note Name: D5
Note ON: Time 13980, Note Name: C5, Velocity: 55
Note OFF: Time 14040, Note Name: C5
Note ON: Time 14040, Note Name: D5, Velocity: 59
Note OFF: Time 14100, Note Name: D5
Note ON: Time 14100, Note Name: C5, Velocity: 49
Note OFF: Time 14160, Note Name: F4
Note ON: Time 14160, Note Name: F5, Velocity: 66
Note OFF: Time 14280, Note Name: F5
Note OFF: Time 14280, Note Name: C5
Note ON: Time 14400, Note Name: G4, Velocity: 50
Note ON: Time 14400, Note Name: D5, Velocity: 73
Note OFF: Time 14460, Note Name: D5
Note ON: Time 14460, Note Name: C5, Velocity: 57
Note OFF: Time 14520, Note Name: C5
Note ON: Time 14520, Note Name: D5, Velocity: 63
Note OFF: Time 14580, Note Name: D5
Note ON: Time 14580, Note Name: C5, Velocity: 51
Note OFF: Time 14640, Note Name: G4
Note ON: Time 14640, Note Name: G5, Velocity: 66
Note OFF: Time 14760, Note Name: G5
Note OFF: Time 14760, Note Name: C5
Note ON: Time 14880, Note Name: C4, Velocity: 40
Note ON: Time 14880, Note Name: A4, Velocity: 64
Note OFF: Time 14940, Note Name: A4
Note ON: Time 14940, Note Name: G4, Velocity: 53
Note OFF: Time 15000, Note Name: G4
Note ON: Time 15000, Note Name: A4, Velocity: 57
Note OFF: Time 15060, Note Name: A4
Note ON: Time 15060, Note Name: G4, Velocity: 57
Note OFF: Time 15120, Note Name: C4
Note ON: Time 15120, Note Name: C5, Velocity: 64
Note OFF: Time 15240, Note Name: C5
Note OFF: Time 15240, Note Name: G4
Note ON: Time 15360, Note Name: G4, Velocity: 48
Note ON: Time 15360, Note Name: D5, Velocity: 69
Note OFF: Time 15420, Note Name: D5
Note ON: Time 15420, Note Name: C5, Velocity: 59
Note OFF: Time 15480, Note Name: C5
Note ON: Time 15480, Note Name: D5, Velocity: 61
Note OFF: Time 15540, Note Name: D5
Note ON: Time 15540, Note Name: C5, Velocity: 52
Note OFF: Time 15600, Note Name: G4
Note ON: Time 15600, Note Name: G5, Velocity: 65
Note OFF: Time 15720, Note Name: G5
Note OFF: Time 15720, Note Name: C5
Note ON: Time 15840, Note Name: A4, Velocity: 52
Note ON: Time 15840, Note Name: D5, Velocity: 76
Note OFF: Time 15900, Note Name: D5
Note ON: Time 15900, Note Name: C5, Velocity: 57
Note OFF: Time 15960, Note Name: C5
Note ON: Time 15960, Note Name: D5, Velocity: 64
Note OFF: Time 16020, Note Name: D5
Note ON: Time 16020, Note Name: C5, Velocity: 53
Note OFF: Time 16080, Note Name: A4
Note ON: Time 16080, Note Name: A5, Velocity: 66
Note OFF: Time 16200, Note Name: A5
Note OFF: Time 16200, Note Name: C5
Note ON: Time 16320, Note Name: F4, Velocity: 49
Note ON: Time 16320, Note Name: D5, Velocity: 71
Note OFF: Time 16380, Note Name: D5
Note ON: Time 16380, Note Name: C5, Velocity: 57
Note OFF: Time 16440, Note Name: C5
Note ON: Time 16440, Note Name: D5, Velocity: 63
Note OFF: Time 16500, Note Name: D5
Note ON: Time 16500, Note Name: C5, Velocity: 49
Note OFF: Time 16560, Note Name: F4
Note ON: Time 16560, Note Name: F5, Velocity: 67
Note OFF: Time 16680, Note Name: F5
Note OFF: Time 16680, Note Name: C5
Note ON: Time 16800, Note Name: D5, Velocity: 50
Note ON: Time 16800, Note Name: A5, Velocity: 72
Note OFF: Time 16860, Note Name: A5
Note ON: Time 16860, Note Name: G5, Velocity: 58
Note OFF: Time 16920, Note Name: G5
Note ON: Time 16920, Note Name: A5, Velocity: 64
Note OFF: Time 16980, Note Name: A5
Note ON: Time 16980, Note Name: G5, Velocity: 54
Note OFF: Time 17040, Note Name: D5
Note ON: Time 17040, Note Name: D6, Velocity: 71
Note OFF: Time 17160, Note Name: D6
Note OFF: Time 17160, Note Name: G5
Note ON: Time 17280, Note Name: G4, Velocity: 52
Note ON: Time 17280, Note Name: D5, Velocity: 76
Note OFF: Time 17340, Note Name: D5
Note ON: Time 17340, Note Name: C5, Velocity: 57
Note OFF: Time 17400, Note Name: C5
Note ON: Time 17400, Note Name: D5, Velocity: 65
Note OFF: Time 17460, Note Name: D5
Note ON: Time 17460, Note Name: C5, Velocity: 57
Note OFF: Time 17520, Note Name: G4
Note ON: Time 17520, Note Name: G5, Velocity: 70
Note OFF: Time 17640, Note Name: G5
Note OFF: Time 17640, Note Name: C5
Note ON: Time 17760, Note Name: C5, Velocity: 51
Note ON: Time 17760, Note Name: A5, Velocity: 72
Note OFF: Time 17820, Note Name: A5
Note ON: Time 17820, Note Name: G5, Velocity: 55
Note OFF: Time 17880, Note Name: G5
Note ON: Time 17880, Note Name: A5, Velocity: 61
Note OFF: Time 17940, Note Name: A5
Note ON: Time 17940, Note Name: G5, Velocity: 51
Note OFF: Time 18000, Note Name: C5
Note ON: Time 18000, Note Name: C6, Velocity: 64
Note OFF: Time 18120, Note Name: C6
Note OFF: Time 18120, Note Name: G5
Note ON: Time 18240, Note Name: C6, Velocity: 51
Note ON: Time 18240, Note Name: A6, Velocity: 75
Note OFF: Time 18300, Note Name: A6
Note ON: Time 18300, Note Name: G6, Velocity: 59
Note OFF: Time 18360, Note Name: G6
Note ON: Time 18360, Note Name: A6, Velocity: 63
Note OFF: Time 18420, Note Name: A6
Note ON: Time 18420, Note Name: G6, Velocity: 53
Note OFF: Time 18480, Note Name: C6
Note ON: Time 18480, Note Name: C7, Velocity: 72
Note OFF: Time 18600, Note Name: C7
Note OFF: Time 18600, Note Name: G6
Note ON: Time 18720, Note Name: F4, Velocity: 50
Note ON: Time 18720, Note Name: D5, Velocity: 73
Note OFF: Time 18780, Note Name: D5
Note ON: Time 18780, Note Name: C5, Velocity: 53
Note OFF: Time 18840, Note Name: C5
Note ON: Time 18840, Note Name: D5, Velocity: 61
Note OFF: Time 18900, Note Name: D5
Note ON: Time 18900, Note Name: C5, Velocity: 51
Note OFF: Time 18960, Note Name: F4
Note ON: Time 18960, Note Name: F5, Velocity: 69
Note OFF: Time 19080, Note Name: F5
Note OFF: Time 19080, Note Name: C5
Note ON: Time 19200, Note Name: C4, Velocity: 46
Note ON: Time 19200, Note Name: G4, Velocity: 67
Note OFF: Time 19260, Note Name: G4
Note ON: Time 19260, Note Name: F4, Velocity: 51
Note OFF: Time 19320, Note Name: F4
Note ON: Time 19320, Note Name: G4, Velocity: 59
Note OFF: Time 19380, Note Name: G4
Note ON: Time 19380, Note Name: F4, Velocity: 47
Note OFF: Time 19440, Note Name: C4
Note ON: Time 19440, Note Name: C5, Velocity: 65
Note OFF: Time 19560, Note Name: C5
Note OFF: Time 19560, Note Name: F4
Note ON: Time 19680, Note Name: F4, Velocity: 48
Note ON: Time 19680, Note Name: D5, Velocity: 69
Note OFF: Time 19740, Note Name: D5
Note ON: Time 19740, Note Name: C5, Velocity: 54
Note OFF: Time 19800, Note Name: C5
Note ON: Time 19800, Note Name: D5, Velocity: 61
Note OFF: Time 19860, Note Name: D5
Note ON: Time 19860, Note Name: C5, Velocity: 53
Note OFF: Time 19920, Note Name: F4
Note ON: Time 19920, Note Name: F5, Velocity: 67
Note OFF: Time 20040, Note Name: F5
Note OFF: Time 20040, Note Name: C5
Note ON: Time 20160, Note Name: G4, Velocity: 50
Note ON: Time 20160, Note Name: D5, Velocity: 73
Note OFF: Time 20220, Note Name: D5
Note ON: Time 20220, Note Name: C5, Velocity: 58
Note OFF: Time 20280, Note Name: C5
Note ON: Time 20280, Note Name: D5, Velocity: 65
Note OFF: Time 20340, Note Name: D5
Note ON: Time 20340, Note Name: C5, Velocity: 51
Note OFF: Time 20400, Note Name: G4
Note ON: Time 20400, Note Name: G5, Velocity: 65
Note OFF: Time 20520, Note Name: G5
Note OFF: Time 20520, Note Name: C5
Note ON: Time 20640, Note Name: C4, Velocity: 40
Note ON: Time 20640, Note Name: A4, Velocity: 64
Note OFF: Time 20700, Note Name: A4
Note ON: Time 20700, Note Name: G4, Velocity: 51
Note OFF: Time 20760, Note Name: G4
Note ON: Time 20760, Note Name: A4, Velocity: 57
Note OFF: Time 20820, Note Name: A4
Note ON: Time 20820, Note Name: G4, Velocity: 47
Note OFF: Time 20880, Note Name: C4
Note ON: Time 20880, Note Name: C5, Velocity: 63
Note OFF: Time 21000, Note Name: C5
Note OFF: Time 21000, Note Name: G4
Note ON: Time 21120, Note Name: G4, Velocity: 48
Note ON: Time 21120, Note Name: D5, Velocity: 69
Note OFF: Time 21180, Note Name: D5
Note ON: Time 21180, Note Name: C5, Velocity: 54
Note OFF: Time 21240, Note Name: C5
Note ON: Time 21240, Note Name: D5, Velocity: 61
Note OFF: Time 21300, Note Name: D5
Note ON: Time 21300, Note Name: C5, Velocity: 49
Note OFF: Time 21360, Note Name: G4
Note ON: Time 21360, Note Name: G5, Velocity: 66
Note OFF: Time 21480, Note Name: G5
Note OFF: Time 21480, Note Name: C5
Note ON: Time 21600, Note Name: A4, Velocity: 52
Note ON: Time 21600, Note Name: D5, Velocity: 76
Note OFF: Time 21660, Note Name: D5
Note ON: Time 21660, Note Name: C5, Velocity: 59
Note OFF: Time 21720, Note Name: C5
Note ON: Time 21720, Note Name: D5, Velocity: 67
Note OFF: Time 21780, Note Name: D5
Note ON: Time 21780, Note Name: C5, Velocity: 53
Note OFF: Time 21840, Note Name: A4
Note ON: Time 21840, Note Name: A5, Velocity: 70
Note OFF: Time 21960, Note Name: A5
Note OFF: Time 21960, Note Name: C5
Note ON: Time 22080, Note Name: A4, Velocity: 49
Note ON: Time 22080, Note Name: E5, Velocity: 71
Note OFF: Time 22140, Note Name: E5
Note ON: Time 22140, Note Name: D5, Velocity: 58
Note OFF: Time 22200, Note Name: D5
Note ON: Time 22200, Note Name: E5, Velocity: 65
Note OFF: Time 22260, Note Name: E5
Note ON: Time 22260, Note Name: D5, Velocity: 49
Note OFF: Time 22320, Note Name: A4
Note ON: Time 22320, Note Name: A5, Velocity: 66
Note OFF: Time 22440, Note Name: A5
Note OFF: Time 22440, Note Name: D5
Note ON: Time 22560, Note Name: G4, Velocity: 50
Note ON: Time 22560, Note Name: D5, Velocity: 72
Note OFF: Time 22620, Note Name: D5
Note ON: Time 22620, Note Name: C5, Velocity: 58
Note OFF: Time 22680, Note Name: C5
Note ON: Time 22680, Note Name: D5, Velocity: 64
Note OFF: Time 22740, Note Name: D5
Note ON: Time 22740, Note Name: C5, Velocity: 53
Note OFF: Time 22800, Note Name: G4
Note ON: Time 22800, Note Name: G5, Velocity: 65
Note OFF: Time 22920, Note Name: G5
Note OFF: Time 22920, Note Name: C5
Note ON: Time 23040, Note Name: F4, Velocity: 54
Note ON: Time 23040, Note Name: D5, Velocity: 80
Note OFF: Time 23100, Note Name: D5
Note ON: Time 23100, Note Name: C5, Velocity: 59
Note OFF: Time 23160, Note Name: C5
Note ON: Time 23160, Note Name: D5, Velocity: 66
Note OFF: Time 23220, Note Name: D5
Note ON: Time 23220, Note Name: C5, Velocity: 57
Note OFF: Time 23280, Note Name: F4
Note ON: Time 23280, Note Name: F5, Velocity: 71
Note OFF: Time 23400, Note Name: F5
Note OFF: Time 23400, Note Name: C5
Note ON: Time 23520, Note Name: F5, Velocity: 51
Note ON: Time 23520, Note Name: D6, Velocity: 72
Note OFF: Time 23580, Note Name: D6
Note ON: Time 23580, Note Name: C6, Velocity: 55
Note OFF: Time 23640, Note Name: C6
Note ON: Time 23640, Note Name: D6, Velocity: 61
Note OFF: Time 23700, Note Name: D6
Note ON: Time 23700, Note Name: C6, Velocity: 51
Note OFF: Time 23760, Note Name: F5
Note ON: Time 23760, Note Name: F6, Velocity: 65
Note OFF: Time 23880, Note Name: F6
Note OFF: Time 23880, Note Name: C6
Note ON: Time 24000, Note Name: F6, Velocity: 51
Note ON: Time 24000, Note Name: D7, Velocity: 75
Note OFF: Time 24060, Note Name: D7
Note ON: Time 24060, Note Name: C7, Velocity: 60
Note OFF: Time 24120, Note Name: C7
Note ON: Time 24120, Note Name: D7, Velocity: 66
Note OFF: Time 24180, Note Name: D7
Note ON: Time 24180, Note Name: C7, Velocity: 58
Note OFF: Time 24240, Note Name: F6
Note ON: Time 24240, Note Name: F7, Velocity: 71
Note OFF: Time 24360, Note Name: F7
Note OFF: Time 24360, Note Name: C7
Note ON: Time 24480, Note Name: G4, Velocity: 39
Note ON: Time 24480, Note Name: D5, Velocity: 58
Note OFF: Time 24600, Note Name: D5
Note ON: Time 24600, Note Name: C5, Velocity: 47
Note OFF: Time 24720, Note Name: G4
Note ON: Time 24720, Note Name: G5, Velocity: 65
Note OFF: Time 24960, Note Name: G5
Note OFF: Time 24960, Note Name: C5
Note ON: Time 24960, Note Name: G4, Velocity: 37
Note ON: Time 24960, Note Name: D5, Velocity: 56
Note OFF: Time 25080, Note Name: D5
Note ON: Time 25080, Note Name: C5, Velocity: 44
Note OFF: Time 25200, Note Name: G4
Note ON: Time 25200, Note Name: G5, Velocity: 66
Note OFF: Time 25440, Note Name: G5
Note OFF: Time 25440, Note Name: C5
Note ON: Time 25440, Note Name: A4, Velocity: 38
Note ON: Time 25440, Note Name: D5, Velocity: 58
Note OFF: Time 25560, Note Name: D5
Note ON: Time 25560, Note Name: C5, Velocity: 47
Note OFF: Time 25680, Note Name: A4
Note ON: Time 25680, Note Name: A5, Velocity: 70
Note OFF: Time 25920, Note Name: A5
Note OFF: Time 25920, Note Name: C5
Note ON: Time 25920, Note Name: F4, Velocity: 42
Note ON: Time 25920, Note Name: C5, Velocity: 61
Note OFF: Time 26040, Note Name: C5
Note ON: Time 26040, Note Name: A#4, Velocity: 47
Note OFF: Time 26160, Note Name: F4
Note ON: Time 26160, Note Name: A#5, Velocity: 64
Note OFF: Time 26400, Note Name: A#5
Note OFF: Time 26400, Note Name: A#4
Note ON: Time 26400, Note Name: F4, Velocity: 34
Note ON: Time 26400, Note Name: C5, Velocity: 52
Note OFF: Time 26520, Note Name: C5
Note ON: Time 26520, Note Name: A#4, Velocity: 44
Note OFF: Time 26640, Note Name: F4
Note ON: Time 26640, Note Name: F5, Velocity: 59
Note OFF: Time 26880, Note Name: F5
Note OFF: Time 26880, Note Name: A#4
Note ON: Time 26880, Note Name: F4, Velocity: 32
Note ON: Time 26880, Note Name: C5, Velocity: 50
Note OFF: Time 27000, Note Name: C5
Note ON: Time 27000, Note Name: A#4, Velocity: 44
Note OFF: Time 27120, Note Name: F4
Note ON: Time 27120, Note Name: F5, Velocity: 59
Note OFF: Time 27360, Note Name: F5
Note OFF: Time 27360, Note Name: A#4
Note ON: Time 27360, Note Name: F4, Velocity: 38
Note ON: Time 27360, Note Name: C5, Velocity: 56
Note OFF: Time 27480, Note Name: C5
Note ON: Time 27480, Note Name: A#4, Velocity: 47
Note OFF: Time 27600, Note Name: F4
Note ON: Time 27600, Note Name: F5, Velocity: 65
Note OFF: Time 27840, Note Name: F5
Note OFF: Time 27840, Note Name: A#4
Note ON: Time 27840, Note Name: F4, Velocity: 37
Note ON: Time 27840, Note Name: C5, Velocity: 56
Note OFF: Time 27960, Note Name: C5
Note ON: Time 27960, Note Name: A#4, Velocity: 44
Note OFF: Time 28080, Note Name: F4
Note ON: Time 28080, Note Name: F5, Velocity: 66
Note OFF: Time 28320, Note Name: F5
Note OFF: Time 28320, Note Name: A#4
Note ON: Time 28320, Note Name: G4, Velocity: 38
Note ON: Time 28320, Note Name: C5, Velocity: 58
Note OFF: Time 28440, Note Name: C5
Note ON: Time 28440, Note Name: A#4, Velocity: 47
Note OFF: Time 28560, Note Name: G4
Note ON: Time 28560, Note Name: G5, Velocity: 70
Note OFF: Time 28800, Note Name: G5
Note OFF: Time 28800, Note Name: A#4
Note ON: Time 28800, Note Name: D#4, Velocity: 42
Note ON: Time 28800, Note Name: A#4, Velocity: 61
Note OFF: Time 28920, Note Name: A#4
Note ON: Time 28920, Note Name: G#4, Velocity: 47
Note OFF: Time 29040, Note Name: D#4
Note ON: Time 29040, Note Name: G#5, Velocity: 64
Note OFF: Time 29280, Note Name: G#5
Note OFF: Time 29280, Note Name: G#4
Note ON: Time 29280, Note Name: D#4, Velocity: 34
Note ON: Time 29280, Note Name: A#4, Velocity: 52
Note OFF: Time 29400, Note Name: A#4
Note ON: Time 29400, Note Name: G#4, Velocity: 44
Note OFF: Time 29520, Note Name: D#4
Note ON: Time 29520, Note Name: D#5, Velocity: 59
Note OFF: Time 29760, Note Name: D#5
Note OFF: Time 29760, Note Name: G#4
Note ON: Time 29760, Note Name: D#4, Velocity: 32
Note ON: Time 29760, Note Name: A#4, Velocity: 50
Note OFF: Time 29880, Note Name: A#4
Note ON: Time 29880, Note Name: G#4, Velocity: 44
Note OFF: Time 30000, Note Name: D#4
Note ON: Time 30000, Note Name: D#5, Velocity: 59
Note OFF: Time 30240, Note Name: D#5
Note OFF: Time 30240, Note Name: G#4
Note ON: Time 30240, Note Name: D#4, Velocity: 38
Note ON: Time 30240, Note Name: A#4, Velocity: 56
Note OFF: Time 30360, Note Name: A#4
Note ON: Time 30360, Note Name: G#4, Velocity: 47
Note OFF: Time 30480, Note Name: D#4
Note ON: Time 30480, Note Name: D#5, Velocity: 65
Note OFF: Time 30720, Note Name: D#5
Note OFF: Time 30720, Note Name: G#4
Note ON: Time 30720, Note Name: D#4, Velocity: 37
Note ON: Time 30720, Note Name: A#4, Velocity: 56
Note OFF: Time 30840, Note Name: A#4
Note ON: Time 30840, Note Name: G#4, Velocity: 44
Note OFF: Time 30960, Note Name: D#4
Note ON: Time 30960, Note Name: D#5, Velocity: 66
Note OFF: Time 31200, Note Name: D#5
Note OFF: Time 31200, Note Name: G#4
Note ON: Time 31200, Note Name: D#4, Velocity: 40
Note ON: Time 31200, Note Name: A#4, Velocity: 59
Note OFF: Time 31320, Note Name: A#4
Note ON: Time 31320, Note Name: G#4, Velocity: 47
Note OFF: Time 31440, Note Name: D#4
Note ON: Time 31440, Note Name: F5, Velocity: 68
Note OFF: Time 31680, Note Name: F5
Note OFF: Time 31680, Note Name: G#4
Note ON: Time 31680, Note Name: D#4, Velocity: 33
Note ON: Time 31680, Note Name: G#4, Velocity: 58
Note OFF: Time 31800, Note Name: G#4
Note ON: Time 31800, Note Name: G4, Velocity: 46
Note OFF: Time 31920, Note Name: D#4
Note ON: Time 31920, Note Name: D#5, Velocity: 61
Note OFF: Time 32160, Note Name: D#5
Note OFF: Time 32160, Note Name: G4
Note ON: Time 32160, Note Name: D4, Velocity: 30
Note ON: Time 32160, Note Name: G#4, Velocity: 52
Note OFF: Time 32280, Note Name: G#4
Note ON: Time 32280, Note Name: G4, Velocity: 44
Note OFF: Time 32400, Note Name: D4
Note ON: Time 32400, Note Name: D5, Velocity: 59
Note OFF: Time 32640, Note Name: D5
Note OFF: Time 32640, Note Name: G4
Note ON: Time 32640, Note Name: D4, Velocity: 27
Note ON: Time 32640, Note Name: G#4, Velocity: 50
Note OFF: Time 32760, Note Name: G#4
Note ON: Time 32760, Note Name: G4, Velocity: 44
Note OFF: Time 32880, Note Name: D4
Note ON: Time 32880, Note Name: D5, Velocity: 59
Note OFF: Time 33120, Note Name: D5
Note OFF: Time 33120, Note Name: G4
Note ON: Time 33120, Note Name: D#4, Velocity: 28
Note ON: Time 33120, Note Name: A#4, Velocity: 48
Note OFF: Time 33240, Note Name: A#4
Note ON: Time 33240, Note Name: G#4, Velocity: 38
Note OFF: Time 33360, Note Name: D#4
Note ON: Time 33360, Note Name: D#5, Velocity: 55
Note OFF: Time 33600, Note Name: D#5
Note OFF: Time 33600, Note Name: G#4
Note ON: Time 33600, Note Name: D#5, Velocity: 34
Note ON: Time 33600, Note Name: A#5, Velocity: 52
Note OFF: Time 33720, Note Name: A#5
Note ON: Time 33720, Note Name: G#5, Velocity: 42
Note OFF: Time 33840, Note Name: D#5
Note ON: Time 33840, Note Name: D#6, Velocity: 64
Note OFF: Time 34080, Note Name: D#6
Note OFF: Time 34080, Note Name: G#5
Note ON: Time 34080, Note Name: D#5, Velocity: 38
Note ON: Time 34080, Note Name: A#5, Velocity: 58
Note OFF: Time 34200, Note Name: A#5
Note ON: Time 34200, Note Name: G#5, Velocity: 45
Note OFF: Time 34320, Note Name: D#5
Note ON: Time 34320, Note Name: F6, Velocity: 66
Note OFF: Time 34560, Note Name: F6
Note OFF: Time 34560, Note Name: G#5
Note ON: Time 34560, Note Name: D#5, Velocity: 37
Note ON: Time 34560, Note Name: G#5, Velocity: 56
Note OFF: Time 34680, Note Name: G#5
Note ON: Time 34680, Note Name: G5, Velocity: 44
Note OFF: Time 34800, Note Name: D#5
Note ON: Time 34800, Note Name: D#6, Velocity: 58
Note OFF: Time 35040, Note Name: D#6
Note OFF: Time 35040, Note Name: G5
Note ON: Time 35040, Note Name: D5, Velocity: 33
Note ON: Time 35040, Note Name: G#5, Velocity: 50
Note OFF: Time 35160, Note Name: G#5
Note ON: Time 35160, Note Name: G5, Velocity: 42
Note OFF: Time 35280, Note Name: D5
Note ON: Time 35280, Note Name: D6, Velocity: 57
Note OFF: Time 35520, Note Name: D6
Note OFF: Time 35520, Note Name: G5
Note ON: Time 35520, Note Name: D5, Velocity: 29
Note ON: Time 35520, Note Name: G#5, Velocity: 49
Note OFF: Time 35640, Note Name: G#5
Note ON: Time 35640, Note Name: G5, Velocity: 42
Note OFF: Time 35760, Note Name: D5
Note ON: Time 35760, Note Name: D6, Velocity: 57
Note OFF: Time 36000, Note Name: D6
Note OFF: Time 36000, Note Name: G5
Note ON: Time 36000, Note Name: D5, Velocity: 34
Note ON: Time 36000, Note Name: G5, Velocity: 50
Note OFF: Time 36120, Note Name: G5
Note ON: Time 36120, Note Name: F#5, Velocity: 42
Note OFF: Time 36240, Note Name: D5
Note ON: Time 36240, Note Name: D6, Velocity: 59
Note OFF: Time 36480, Note Name: D6
Note OFF: Time 36480, Note Name: F#5
Note ON: Time 36480, Note Name: D4, Velocity: 30
Note ON: Time 36480, Note Name: G4, Velocity: 47
Note OFF: Time 36600, Note Name: G4
Note ON: Time 36600, Note Name: F#4, Velocity: 36
Note OFF: Time 36720, Note Name: D4
Note ON: Time 36720, Note Name: D5, Velocity: 57
Note OFF: Time 36960, Note Name: D5
Note OFF: Time 36960, Note Name: F#4
Note ON: Time 36960, Note Name: E4, Velocity: 33
Note ON: Time 36960, Note Name: G4, Velocity: 51
Note OFF: Time 37080, Note Name: G4
Note ON: Time 37080, Note Name: F#4, Velocity: 38
Note OFF: Time 37200, Note Name: E4
Note ON: Time 37200, Note Name: E5, Velocity: 59
Note OFF: Time 37440, Note Name: E5
Note OFF: Time 37440, Note Name: F#4
Note ON: Time 37440, Note Name: D4, Velocity: 33
Note ON: Time 37440, Note Name: G4, Velocity: 50
Note OFF: Time 37560, Note Name: G4
Note ON: Time 37560, Note Name: F#4, Velocity: 37
Note OFF: Time 37680, Note Name: D4
Note ON: Time 37680, Note Name: D5, Velocity: 51
Note OFF: Time 37920, Note Name: D5
Note OFF: Time 37920, Note Name: F#4
Note ON: Time 37920, Note Name: C#4, Velocity: 29
Note ON: Time 37920, Note Name: G4, Velocity: 46
Note OFF: Time 38040, Note Name: G4
Note ON: Time 38040, Note Name: F#4, Velocity: 36
Note OFF: Time 38160, Note Name: C#4
Note ON: Time 38160, Note Name: C#5, Velocity: 51
Note OFF: Time 38400, Note Name: C#5
Note OFF: Time 38400, Note Name: F#4
Note ON: Time 38400, Note Name: C#4, Velocity: 27
Note ON: Time 38400, Note Name: G4, Velocity: 43
Note OFF: Time 38520, Note Name: G4
Note ON: Time 38520, Note Name: F#4, Velocity: 36
Note OFF: Time 38640, Note Name: C#4
Note ON: Time 38640, Note Name: C#5, Velocity: 51
Note OFF: Time 38880, Note Name: C#5
Note OFF: Time 38880, Note Name: F#4
Note ON: Time 38880, Note Name: B3, Velocity: 37
Note ON: Time 38880, Note Name: G4, Velocity: 56
Note OFF: Time 39000, Note Name: G4
Note ON: Time 39000, Note Name: F#4, Velocity: 47
Note OFF: Time 39120, Note Name: B3
Note ON: Time 39120, Note Name: B4, Velocity: 65
Note OFF: Time 39360, Note Name: B4
Note OFF: Time 39360, Note Name: F#4
Note ON: Time 39360, Note Name: B3, Velocity: 36
Note ON: Time 39360, Note Name: G4, Velocity: 56
Note OFF: Time 39480, Note Name: G4
Note ON: Time 39480, Note Name: F#4, Velocity: 44
Note OFF: Time 39600, Note Name: B3
Note ON: Time 39600, Note Name: B4, Velocity: 67
Note OFF: Time 39840, Note Name: B4
Note OFF: Time 39840, Note Name: F#4
Note ON: Time 39840, Note Name: C#4, Velocity: 38
Note ON: Time 39840, Note Name: G4, Velocity: 60
Note OFF: Time 39960, Note Name: G4
Note ON: Time 39960, Note Name: F#4, Velocity: 47
Note OFF: Time 40080, Note Name: C#4
Note ON: Time 40080, Note Name: C#5, Velocity: 72
Note OFF: Time 40320, Note Name: C#5
Note OFF: Time 40320, Note Name: F#4
Note ON: Time 40320, Note Name: B3, Velocity: 40
Note ON: Time 40320, Note Name: G4, Velocity: 61
Note OFF: Time 40440, Note Name: G4
Note ON: Time 40440, Note Name: F#4, Velocity: 47
Note OFF: Time 40560, Note Name: B3
Note ON: Time 40560, Note Name: B4, Velocity: 63
Note OFF: Time 40800, Note Name: B4
Note OFF: Time 40800, Note Name: F#4
Note ON: Time 40800, Note Name: A#3, Velocity: 35
Note ON: Time 40800, Note Name: G4, Velocity: 54
Note OFF: Time 40920, Note Name: G4
Note ON: Time 40920, Note Name: F#4, Velocity: 44
Note OFF: Time 41040, Note Name: A#3
Note ON: Time 41040, Note Name: A#4, Velocity: 59
Note OFF: Time 41280, Note Name: A#4
Note OFF: Time 41280, Note Name: F#4
Note ON: Time 41280, Note Name: A#3, Velocity: 31
Note ON: Time 41280, Note Name: G#4, Velocity: 50
Note OFF: Time 41400, Note Name: G#4
Note ON: Time 41400, Note Name: F#4, Velocity: 43
Note OFF: Time 41520, Note Name: A#3
Note ON: Time 41520, Note Name: A#4, Velocity: 59
Note OFF: Time 41760, Note Name: A#4
Note OFF: Time 41760, Note Name: F#4
Note ON: Time 41760, Note Name: B3, Velocity: 48
Note ON: Time 41760, Note Name: G#4, Velocity: 72
Note OFF: Time 41880, Note Name: G#4
Note ON: Time 41880, Note Name: F#4, Velocity: 57
Note OFF: Time 42000, Note Name: B3
Note ON: Time 42000, Note Name: B4, Velocity: 78
Note OFF: Time 42240, Note Name: B4
Note OFF: Time 42240, Note Name: F#4
Note ON: Time 42240, Note Name: F#3, Velocity: 45
Note ON: Time 42240, Note Name: C#4, Velocity: 66
Note OFF: Time 42360, Note Name: C#4
Note ON: Time 42360, Note Name: B3, Velocity: 51
Note OFF: Time 42480, Note Name: F#3
Note ON: Time 42480, Note Name: F#4, Velocity: 74
Note OFF: Time 42720, Note Name: F#4
Note OFF: Time 42720, Note Name: B3
Note ON: Time 42720, Note Name: B3, Velocity: 46
Note ON: Time 42720, Note Name: G#4, Velocity: 67
Note OFF: Time 42840, Note Name: G#4
Note ON: Time 42840, Note Name: F#4, Velocity: 53
Note OFF: Time 42960, Note Name: B3
Note ON: Time 42960, Note Name: B4, Velocity: 78
Note OFF: Time 43200, Note Name: B4
Note OFF: Time 43200, Note Name: F#4
Note ON: Time 43200, Note Name: C#4, Velocity: 48
Note ON: Time 43200, Note Name: G#4, Velocity: 72
Note OFF: Time 43320, Note Name: G#4
Note ON: Time 43320, Note Name: F#4, Velocity: 55
Note OFF: Time 43440, Note Name: C#4
Note ON: Time 43440, Note Name: C#5, Velocity: 81
Note OFF: Time 43680, Note Name: C#5
Note OFF: Time 43680, Note Name: F#4
Note ON: Time 43680, Note Name: F#3, Velocity: 47
Note ON: Time 43680, Note Name: D#4, Velocity: 66
Note OFF: Time 43800, Note Name: D#4
Note ON: Time 43800, Note Name: C#4, Velocity: 53
Note OFF: Time 43920, Note Name: F#3
Note ON: Time 43920, Note Name: F#4, Velocity: 75
Note OFF: Time 44160, Note Name: F#4
Note OFF: Time 44160, Note Name: C#4
Note ON: Time 44160, Note Name: C#4, Velocity: 46
Note ON: Time 44160, Note Name: G#4, Velocity: 67
Note OFF: Time 44280, Note Name: G#4
Note ON: Time 44280, Note Name: F#4, Velocity: 57
Note OFF: Time 44400, Note Name: C#4
Note ON: Time 44400, Note Name: C#5, Velocity: 76
Note OFF: Time 44640, Note Name: C#5
Note OFF: Time 44640, Note Name: F#4
Note ON: Time 44640, Note Name: D#4, Velocity: 51
Note ON: Time 44640, Note Name: G#4, Velocity: 75
Note OFF: Time 44760, Note Name: G#4
Note ON: Time 44760, Note Name: F#4, Velocity: 58
Note OFF: Time 44880, Note Name: D#4
Note ON: Time 44880, Note Name: D#5, Velocity: 78
Note OFF: Time 45120, Note Name: D#5
Note OFF: Time 45120, Note Name: F#4
Note ON: Time 45120, Note Name: B3, Velocity: 47
Note ON: Time 45120, Note Name: G#4, Velocity: 69
Note OFF: Time 45240, Note Name: G#4
Note ON: Time 45240, Note Name: F#4, Velocity: 53
Note OFF: Time 45360, Note Name: B3
Note ON: Time 45360, Note Name: B4, Velocity: 76
Note OFF: Time 45600, Note Name: B4
Note OFF: Time 45600, Note Name: F#4
Note ON: Time 45600, Note Name: G#4, Velocity: 48
Note ON: Time 45600, Note Name: D#5, Velocity: 70
Note OFF: Time 45720, Note Name: D#5
Note ON: Time 45720, Note Name: C#5, Velocity: 59
Note OFF: Time 45840, Note Name: G#4
Note ON: Time 45840, Note Name: G#5, Velocity: 76
Note OFF: Time 46080, Note Name: G#5
Note OFF: Time 46080, Note Name: C#5
Note ON: Time 46080, Note Name: C#4, Velocity: 51
Note ON: Time 46080, Note Name: G#4, Velocity: 75
Note OFF: Time 46200, Note Name: G#4
Note ON: Time 46200, Note Name: F#4, Velocity: 63
Note OFF: Time 46320, Note Name: C#4
Note ON: Time 46320, Note Name: C#5, Velocity: 81
Note OFF: Time 46560, Note Name: C#5
Note OFF: Time 46560, Note Name: F#4
Note ON: Time 46560, Note Name: F#4, Velocity: 49
Note ON: Time 46560, Note Name: D#5, Velocity: 70
Note OFF: Time 46680, Note Name: D#5
Note ON: Time 46680, Note Name: C#5, Velocity: 55
Note OFF: Time 46800, Note Name: F#4
Note ON: Time 46800, Note Name: F#5, Velocity: 76
Note OFF: Time 47040, Note Name: F#5
Note OFF: Time 47040, Note Name: C#5
Note ON: Time 47040, Note Name: F#5, Velocity: 49
Note ON: Time 47040, Note Name: D#6, Velocity: 74
Note OFF: Time 47160, Note Name: D#6
Note ON: Time 47160, Note Name: C#6, Velocity: 58
Note OFF: Time 47280, Note Name: F#5
Note ON: Time 47280, Note Name: F#6, Velocity: 82
Note OFF: Time 47490, Note Name: F#6
Note OFF: Time 47520, Note Name: C#6
Note ON: Time 47520, Note Name: B3, Velocity: 48
Note ON: Time 47520, Note Name: G#4, Velocity: 72
Note OFF: Time 47640, Note Name: G#4
Note ON: Time 47640, Note Name: F#4, Velocity: 57
Note OFF: Time 47760, Note Name: B3
Note ON: Time 47760, Note Name: B4, Velocity: 78
Note OFF: Time 48000, Note Name: B4
Note OFF: Time 48000, Note Name: F#4
Note ON: Time 48000, Note Name: F#3, Velocity: 45
Note ON: Time 48000, Note Name: C#4, Velocity: 66
Note OFF: Time 48120, Note Name: C#4
Note ON: Time 48120, Note Name: B3, Velocity: 46
Note OFF: Time 48240, Note Name: F#3
Note ON: Time 48240, Note Name: F#4, Velocity: 74
Note OFF: Time 48480, Note Name: F#4
Note OFF: Time 48480, Note Name: B3
Note ON: Time 48480, Note Name: B3, Velocity: 46
Note ON: Time 48480, Note Name: G#4, Velocity: 67
Note OFF: Time 48600, Note Name: G#4
Note ON: Time 48600, Note Name: F#4, Velocity: 53
Note OFF: Time 48720, Note Name: B3
Note ON: Time 48720, Note Name: B4, Velocity: 78
Note OFF: Time 48960, Note Name: B4
Note OFF: Time 48960, Note Name: F#4
Note ON: Time 48960, Note Name: C#4, Velocity: 48
Note ON: Time 48960, Note Name: G#4, Velocity: 72
Note OFF: Time 49080, Note Name: G#4
Note ON: Time 49080, Note Name: F#4, Velocity: 55
Note OFF: Time 49200, Note Name: C#4
Note ON: Time 49200, Note Name: C#5, Velocity: 81
Note OFF: Time 49440, Note Name: C#5
Note OFF: Time 49440, Note Name: F#4
Note ON: Time 49440, Note Name: F#3, Velocity: 47
Note ON: Time 49440, Note Name: D#4, Velocity: 66
Note OFF: Time 49560, Note Name: D#4
Note ON: Time 49560, Note Name: C#4, Velocity: 53
Note OFF: Time 49680, Note Name: F#3
Note ON: Time 49680, Note Name: F#4, Velocity: 75
Note OFF: Time 49920, Note Name: F#4
Note OFF: Time 49920, Note Name: C#4
Note ON: Time 49920, Note Name: C#4, Velocity: 46
Note ON: Time 49920, Note Name: G#4, Velocity: 67
Note OFF: Time 50040, Note Name: G#4
Note ON: Time 50040, Note Name: F#4, Velocity: 57
Note OFF: Time 50160, Note Name: C#4
Note ON: Time 50160, Note Name: C#5, Velocity: 76
Note OFF: Time 50400, Note Name: C#5
Note OFF: Time 50400, Note Name: F#4
Note ON: Time 50400, Note Name: D#4, Velocity: 51
Note ON: Time 50400, Note Name: G#4, Velocity: 75
Note OFF: Time 50520, Note Name: G#4
Note ON: Time 50520, Note Name: F#4, Velocity: 58
Note OFF: Time 50640, Note Name: D#4
Note ON: Time 50640, Note Name: D#5, Velocity: 78
Note OFF: Time 50880, Note Name: D#5
Note OFF: Time 50880, Note Name: F#4
Note ON: Time 50880, Note Name: D#4, Velocity: 47
Note ON: Time 50880, Note Name: A#4, Velocity: 69
Note OFF: Time 51000, Note Name: A#4
Note ON: Time 51000, Note Name: G#4, Velocity: 53
Note OFF: Time 51120, Note Name: D#4
Note ON: Time 51120, Note Name: D#5, Velocity: 76
Note OFF: Time 51360, Note Name: D#5
Note OFF: Time 51360, Note Name: G#4
Note ON: Time 51360, Note Name: C#4, Velocity: 48
Note ON: Time 51360, Note Name: G#4, Velocity: 70
Note OFF: Time 51480, Note Name: G#4
Note ON: Time 51480, Note Name: F#4, Velocity: 59
Note OFF: Time 51600, Note Name: C#4
Note ON: Time 51600, Note Name: C#5, Velocity: 76
Note OFF: Time 51840, Note Name: C#5
Note OFF: Time 51840, Note Name: F#4
Note ON: Time 51840, Note Name: B3, Velocity: 51
Note ON: Time 51840, Note Name: G#4, Velocity: 75
Note OFF: Time 51960, Note Name: G#4
Note ON: Time 51960, Note Name: F#4, Velocity: 63
Note OFF: Time 52080, Note Name: B3
Note ON: Time 52080, Note Name: B4, Velocity: 81
Note OFF: Time 52320, Note Name: B4
Note OFF: Time 52320, Note Name: F#4
Note ON: Time 52320, Note Name: B4, Velocity: 49
Note ON: Time 52320, Note Name: G#5, Velocity: 70
Note OFF: Time 52440, Note Name: G#5
Note ON: Time 52440, Note Name: F#5, Velocity: 55
Note OFF: Time 52560, Note Name: B4
Note ON: Time 52560, Note Name: B5, Velocity: 76
Note OFF: Time 52800, Note Name: B5
Note OFF: Time 52800, Note Name: F#5
Note ON: Time 52800, Note Name: B5, Velocity: 49
Note ON: Time 52800, Note Name: G#6, Velocity: 74
Note OFF: Time 52920, Note Name: G#6
Note ON: Time 52920, Note Name: F#6, Velocity: 58
Note OFF: Time 53040, Note Name: B5
Note ON: Time 53040, Note Name: B6, Velocity: 82
Note OFF: Time 53250, Note Name: B6
Note OFF: Time 53280, Note Name: F#6
Note ON: Time 53280, Note Name: C#4, Velocity: 44
Note ON: Time 53280, Note Name: G#4, Velocity: 65
Note OFF: Time 53400, Note Name: G#4
Note ON: Time 53400, Note Name: F#4, Velocity: 51
Note OFF: Time 53520, Note Name: C#4
Note ON: Time 53520, Note Name: C#5, Velocity: 71
Note OFF: Time 53760, Note Name: C#5
Note OFF: Time 53760, Note Name: F#4
Note ON: Time 53760, Note Name: C#4, Velocity: 40
Note ON: Time 53760, Note Name: G#4, Velocity: 59
Note OFF: Time 53880, Note Name: G#4
Note ON: Time 53880, Note Name: F#4, Velocity: 48
Note OFF: Time 54000, Note Name: C#4
Note ON: Time 54000, Note Name: C#5, Velocity: 70
Note OFF: Time 54240, Note Name: C#5
Note OFF: Time 54240, Note Name: F#4
Note ON: Time 54240, Note Name: D#4, Velocity: 44
Note ON: Time 54240, Note Name: G#4, Velocity: 65
Note OFF: Time 54360, Note Name: G#4
Note ON: Time 54360, Note Name: F#4, Velocity: 51
Note OFF: Time 54480, Note Name: D#4
Note ON: Time 54480, Note Name: D#5, Velocity: 76
Note OFF: Time 54720, Note Name: D#5
Note OFF: Time 54720, Note Name: F#4
Note ON: Time 54720, Note Name: E4, Velocity: 46
Note ON: Time 54720, Note Name: A4, Velocity: 68
Note OFF: Time 54840, Note Name: A4
Note ON: Time 54840, Note Name: G#4, Velocity: 52
Note OFF: Time 54960, Note Name: E4
Note ON: Time 54960, Note Name: E5, Velocity: 76
Note OFF: Time 55200, Note Name: E5
Note OFF: Time 55200, Note Name: G#4
Note ON: Time 55200, Note Name: B3, Velocity: 39
Note ON: Time 55200, Note Name: F#4, Velocity: 56
Note OFF: Time 55320, Note Name: F#4
Note ON: Time 55320, Note Name: E4, Velocity: 46
Note OFF: Time 55440, Note Name: B3
Note ON: Time 55440, Note Name: B4, Velocity: 63
Note OFF: Time 55680, Note Name: B4
Note OFF: Time 55680, Note Name: E4
Note ON: Time 55680, Note Name: B3, Velocity: 39
Note ON: Time 55680, Note Name: F#4, Velocity: 59
Note OFF: Time 55800, Note Name: F#4
Note ON: Time 55800, Note Name: E4, Velocity: 49
Note OFF: Time 55920, Note Name: B3
Note ON: Time 55920, Note Name: B4, Velocity: 66
Note OFF: Time 56160, Note Name: B4
Note OFF: Time 56160, Note Name: E4
Note ON: Time 56160, Note Name: B3, Velocity: 44
Note ON: Time 56160, Note Name: F#4, Velocity: 65
Note OFF: Time 56280, Note Name: F#4
Note ON: Time 56280, Note Name: E4, Velocity: 51
Note OFF: Time 56400, Note Name: B3
Note ON: Time 56400, Note Name: B4, Velocity: 71
Note OFF: Time 56640, Note Name: B4
Note OFF: Time 56640, Note Name: E4
Note ON: Time 56640, Note Name: B3, Velocity: 40
Note ON: Time 56640, Note Name: F#4, Velocity: 59
Note OFF: Time 56760, Note Name: F#4
Note ON: Time 56760, Note Name: E4, Velocity: 48
Note OFF: Time 56880, Note Name: B3
Note ON: Time 56880, Note Name: B4, Velocity: 70
Note OFF: Time 57120, Note Name: B4
Note OFF: Time 57120, Note Name: E4
Note ON: Time 57120, Note Name: C#4, Velocity: 44
Note ON: Time 57120, Note Name: F#4, Velocity: 65
Note OFF: Time 57240, Note Name: F#4
Note ON: Time 57240, Note Name: E4, Velocity: 51
Note OFF: Time 57360, Note Name: C#4
Note ON: Time 57360, Note Name: C#5, Velocity: 76
Note OFF: Time 57600, Note Name: C#5
Note OFF: Time 57600, Note Name: E4
Note ON: Time 57600, Note Name: D4, Velocity: 46
Note ON: Time 57600, Note Name: G4, Velocity: 68
Note OFF: Time 57720, Note Name: G4
Note ON: Time 57720, Note Name: F#4, Velocity: 52
Note OFF: Time 57840, Note Name: D4
Note ON: Time 57840, Note Name: D5, Velocity: 76
Note OFF: Time 58080, Note Name: D5
Note OFF: Time 58080, Note Name: F#4
Note ON: Time 58080, Note Name: A3, Velocity: 39
Note ON: Time 58080, Note Name: E4, Velocity: 56
Note OFF: Time 58200, Note Name: E4
Note ON: Time 58200, Note Name: D4, Velocity: 46
Note OFF: Time 58320, Note Name: A3
Note ON: Time 58320, Note Name: A4, Velocity: 63
Note OFF: Time 58560, Note Name: A4
Note OFF: Time 58560, Note Name: D4
Note ON: Time 58560, Note Name: A3, Velocity: 39
Note ON: Time 58560, Note Name: E4, Velocity: 59
Note OFF: Time 58680, Note Name: E4
Note ON: Time 58680, Note Name: D4, Velocity: 49
Note OFF: Time 58800, Note Name: A3
Note ON: Time 58800, Note Name: A4, Velocity: 66
Note OFF: Time 59040, Note Name: A4
Note OFF: Time 59040, Note Name: D4
Note ON: Time 59040, Note Name: A3, Velocity: 40
Note ON: Time 59040, Note Name: D4, Velocity: 60
Note OFF: Time 59160, Note Name: D4
Note ON: Time 59160, Note Name: C#4, Velocity: 48
Note OFF: Time 59280, Note Name: A3
Note ON: Time 59280, Note Name: A4, Velocity: 67
Note OFF: Time 59520, Note Name: A4
Note OFF: Time 59520, Note Name: C#4
Note ON: Time 59520, Note Name: A4, Velocity: 37
Note ON: Time 59520, Note Name: D5, Velocity: 56
Note OFF: Time 59640, Note Name: D5
Note ON: Time 59640, Note Name: C#5, Velocity: 45
Note OFF: Time 59760, Note Name: A4
Note ON: Time 59760, Note Name: A5, Velocity: 66
Note OFF: Time 60000, Note Name: A5
Note OFF: Time 60000, Note Name: C#5
Note ON: Time 60000, Note Name: B4, Velocity: 40
Note ON: Time 60000, Note Name: D5, Velocity: 60
Note OFF: Time 60120, Note Name: D5
Note ON: Time 60120, Note Name: C#5, Velocity: 48
Note OFF: Time 60240, Note Name: B4
Note ON: Time 60240, Note Name: B5, Velocity: 70
Note OFF: Time 60480, Note Name: B5
Note OFF: Time 60480, Note Name: C#5
Note ON: Time 60480, Note Name: A4, Velocity: 46
Note ON: Time 60480, Note Name: D5, Velocity: 68
Note OFF: Time 60600, Note Name: D5
Note ON: Time 60600, Note Name: C#5, Velocity: 52
Note OFF: Time 60720, Note Name: A4
Note ON: Time 60720, Note Name: A5, Velocity: 72
Note OFF: Time 60960, Note Name: A5
Note OFF: Time 60960, Note Name: C#5
Note ON: Time 60960, Note Name: G#4, Velocity: 39
Note ON: Time 60960, Note Name: D5, Velocity: 52
Note OFF: Time 61080, Note Name: D5
Note ON: Time 61080, Note Name: C#5, Velocity: 46
Note OFF: Time 61200, Note Name: G#4
Note ON: Time 61200, Note Name: G#5, Velocity: 63
Note OFF: Time 61440, Note Name: G#5
Note OFF: Time 61440, Note Name: C#5
Note ON: Time 61440, Note Name: G#4, Velocity: 39
Note ON: Time 61440, Note Name: D5, Velocity: 55
Note OFF: Time 61560, Note Name: D5
Note ON: Time 61560, Note Name: C#5, Velocity: 49
Note OFF: Time 61680, Note Name: G#4
Note ON: Time 61680, Note Name: G#5, Velocity: 66
Note OFF: Time 61920, Note Name: G#5
Note OFF: Time 61920, Note Name: C#5
Note ON: Time 61920, Note Name: A4, Velocity: 34
Note ON: Time 61920, Note Name: D5, Velocity: 51
Note OFF: Time 62040, Note Name: D5
Note ON: Time 62040, Note Name: C#5, Velocity: 40
Note OFF: Time 62160, Note Name: A4
Note ON: Time 62160, Note Name: A5, Velocity: 55
Note OFF: Time 62400, Note Name: A5
Note OFF: Time 62400, Note Name: C#5
Note ON: Time 62400, Note Name: A5, Velocity: 36
Note ON: Time 62400, Note Name: D6, Velocity: 53
Note OFF: Time 62520, Note Name: D6
Note ON: Time 62520, Note Name: C#6, Velocity: 37
Note OFF: Time 62640, Note Name: A5
Note ON: Time 62640, Note Name: A6, Velocity: 54
Note OFF: Time 62880, Note Name: A6
Note OFF: Time 62880, Note Name: C#6
Note ON: Time 62880, Note Name: B5, Velocity: 38
Note ON: Time 62880, Note Name: D6, Velocity: 57
Note OFF: Time 63000, Note Name: D6
Note ON: Time 63000, Note Name: C#6, Velocity: 40
Note OFF: Time 63120, Note Name: B5
Note ON: Time 63120, Note Name: B6, Velocity: 60
Note OFF: Time 63360, Note Name: B6
Note OFF: Time 63360, Note Name: C#6
Note ON: Time 63360, Note Name: A5, Velocity: 43
Note ON: Time 63360, Note Name: D6, Velocity: 64
Note OFF: Time 63480, Note Name: D6
Note ON: Time 63480, Note Name: C#6, Velocity: 44
Note OFF: Time 63600, Note Name: A5
Note ON: Time 63600, Note Name: A6, Velocity: 64
Note OFF: Time 63840, Note Name: A6
Note OFF: Time 63840, Note Name: C#6
Note ON: Time 63840, Note Name: G#5, Velocity: 37
Note ON: Time 63840, Note Name: D6, Velocity: 53
Note OFF: Time 63960, Note Name: D6
Note ON: Time 63960, Note Name: C#6, Velocity: 38
Note OFF: Time 64080, Note Name: G#5
Note ON: Time 64080, Note Name: G#6, Velocity: 53
Note OFF: Time 64320, Note Name: G#6
Note OFF: Time 64320, Note Name: C#6
Note ON: Time 64320, Note Name: G#5, Velocity: 37
Note ON: Time 64320, Note Name: D6, Velocity: 55
Note OFF: Time 64440, Note Name: D6
Note ON: Time 64440, Note Name: C#6, Velocity: 40
Note OFF: Time 64560, Note Name: G#5
Note ON: Time 64560, Note Name: G#6, Velocity: 54
Note OFF: Time 64800, Note Name: G#6
Note OFF: Time 64800, Note Name: C#6
Note ON: Time 64800, Note Name: G#5, Velocity: 38
Note ON: Time 64800, Note Name: C#6, Velocity: 57
Note OFF: Time 64920, Note Name: C#6
Note ON: Time 64920, Note Name: C6, Velocity: 40
Note OFF: Time 65040, Note Name: G#5
Note ON: Time 65040, Note Name: G#6, Velocity: 55
Note OFF: Time 65280, Note Name: G#6
Note OFF: Time 65280, Note Name: C6
Note ON: Time 65280, Note Name: G#4, Velocity: 35
Note ON: Time 65280, Note Name: C#5, Velocity: 52
Note OFF: Time 65400, Note Name: C#5
Note ON: Time 65400, Note Name: C5, Velocity: 36
Note OFF: Time 65520, Note Name: G#4
Note ON: Time 65520, Note Name: G#5, Velocity: 53
Note OFF: Time 65760, Note Name: G#5
Note OFF: Time 65760, Note Name: C5
Note ON: Time 65760, Note Name: A#4, Velocity: 37
Note ON: Time 65760, Note Name: C#5, Velocity: 55
Note OFF: Time 65880, Note Name: C#5
Note ON: Time 65880, Note Name: C5, Velocity: 39
Note OFF: Time 66000, Note Name: A#4
Note ON: Time 66000, Note Name: A#5, Velocity: 58
Note OFF: Time 66240, Note Name: A#5
Note OFF: Time 66240, Note Name: C5
Note ON: Time 66240, Note Name: G#4, Velocity: 40
Note ON: Time 66240, Note Name: C#5, Velocity: 61
Note OFF: Time 66360, Note Name: C#5
Note ON: Time 66360, Note Name: C5, Velocity: 42
Note OFF: Time 66480, Note Name: G#4
Note ON: Time 66480, Note Name: G#5, Velocity: 60
Note OFF: Time 66720, Note Name: G#5
Note OFF: Time 66720, Note Name: C5
Note ON: Time 66720, Note Name: G4, Velocity: 35
Note ON: Time 66720, Note Name: C#5, Velocity: 50
Note OFF: Time 66840, Note Name: C#5
Note ON: Time 66840, Note Name: C5, Velocity: 36
Note OFF: Time 66960, Note Name: G4
Note ON: Time 66960, Note Name: G5, Velocity: 50
Note OFF: Time 67200, Note Name: G5
Note OFF: Time 67200, Note Name: C5
Note ON: Time 67200, Note Name: G4, Velocity: 35
Note ON: Time 67200, Note Name: C#5, Velocity: 52
Note OFF: Time 67320, Note Name: C#5
Note ON: Time 67320, Note Name: C5, Velocity: 37
Note OFF: Time 67440, Note Name: G4
Note ON: Time 67440, Note Name: G5, Velocity: 51
Note OFF: Time 67680, Note Name: G5
Note OFF: Time 67680, Note Name: C5
Note ON: Time 67680, Note Name: F4, Velocity: 35
Note ON: Time 67680, Note Name: D5, Velocity: 52
Note OFF: Time 67800, Note Name: D5
Note ON: Time 67800, Note Name: C5, Velocity: 37
Note OFF: Time 67920, Note Name: F4
Note ON: Time 67920, Note Name: F5, Velocity: 51
Note OFF: Time 68160, Note Name: F5
Note OFF: Time 68160, Note Name: C5
Note ON: Time 68160, Note Name: F4, Velocity: 32
Note ON: Time 68160, Note Name: D5, Velocity: 49
Note OFF: Time 68280, Note Name: D5
Note ON: Time 68280, Note Name: C5, Velocity: 34
Note OFF: Time 68400, Note Name: F4
Note ON: Time 68400, Note Name: F5, Velocity: 49
Note OFF: Time 68640, Note Name: F5
Note OFF: Time 68640, Note Name: C5
Note ON: Time 68640, Note Name: G4, Velocity: 34
Note ON: Time 68640, Note Name: D5, Velocity: 51
Note OFF: Time 68760, Note Name: D5
Note ON: Time 68760, Note Name: C5, Velocity: 36
Note OFF: Time 68880, Note Name: G4
Note ON: Time 68880, Note Name: G5, Velocity: 53
Note OFF: Time 69120, Note Name: G5
Note OFF: Time 69120, Note Name: C5
Note ON: Time 69120, Note Name: F4, Velocity: 37
Note ON: Time 69120, Note Name: D5, Velocity: 55
Note OFF: Time 69240, Note Name: D5
Note ON: Time 69240, Note Name: C5, Velocity: 38
Note OFF: Time 69360, Note Name: F4
Note ON: Time 69360, Note Name: F5, Velocity: 55
Note OFF: Time 69600, Note Name: F5
Note OFF: Time 69600, Note Name: C5
Note ON: Time 69600, Note Name: E4, Velocity: 32
Note ON: Time 69600, Note Name: D5, Velocity: 47
Note OFF: Time 69720, Note Name: D5
Note ON: Time 69720, Note Name: C5, Velocity: 32
Note OFF: Time 69840, Note Name: E4
Note ON: Time 69840, Note Name: E5, Velocity: 46
Note OFF: Time 70080, Note Name: E5
Note OFF: Time 70080, Note Name: C5
Note ON: Time 70080, Note Name: E4, Velocity: 31
Note ON: Time 70080, Note Name: D5, Velocity: 48
Note OFF: Time 70200, Note Name: D5
Note ON: Time 70200, Note Name: C5, Velocity: 34
Note OFF: Time 70320, Note Name: E4
Note ON: Time 70320, Note Name: E5, Velocity: 47
Note OFF: Time 70530, Note Name: E5
Note OFF: Time 70560, Note Name: C5
Note ON: Time 70560, Note Name: F4, Velocity: 59
Note ON: Time 70560, Note Name: D5, Velocity: 87
Note OFF: Time 70680, Note Name: D5
Note ON: Time 70680, Note Name: C5, Velocity: 63
Note OFF: Time 70800, Note Name: C5
Note OFF: Time 70800, Note Name: F4
Note ON: Time 70800, Note Name: F5, Velocity: 76
Note OFF: Time 70860, Note Name: F5
Note ON: Time 71040, Note Name: C4, Velocity: 54
Note ON: Time 71040, Note Name: G4, Velocity: 80
Note OFF: Time 71160, Note Name: G4
Note ON: Time 71160, Note Name: F4, Velocity: 55
Note OFF: Time 71280, Note Name: F4
Note OFF: Time 71280, Note Name: C4
Note ON: Time 71280, Note Name: C5, Velocity: 75
Note OFF: Time 71340, Note Name: C5
Note ON: Time 71520, Note Name: F4, Velocity: 57
Note ON: Time 71520, Note Name: D5, Velocity: 82
Note OFF: Time 71640, Note Name: D5
Note ON: Time 71640, Note Name: C5, Velocity: 58
Note OFF: Time 71760, Note Name: C5
Note OFF: Time 71760, Note Name: F4
Note ON: Time 71760, Note Name: F5, Velocity: 75
Note OFF: Time 71820, Note Name: F5
Note ON: Time 72000, Note Name: G4, Velocity: 59
Note ON: Time 72000, Note Name: D5, Velocity: 87
Note OFF: Time 72120, Note Name: D5
Note ON: Time 72120, Note Name: C5, Velocity: 61
Note OFF: Time 72240, Note Name: C5
Note OFF: Time 72240, Note Name: G4
Note ON: Time 72240, Note Name: G5, Velocity: 73
Note OFF: Time 72300, Note Name: G5
Note ON: Time 72480, Note Name: C4, Velocity: 54
Note ON: Time 72480, Note Name: A4, Velocity: 76
Note OFF: Time 72600, Note Name: A4
Note ON: Time 72600, Note Name: G4, Velocity: 55
Note OFF: Time 72720, Note Name: G4
Note OFF: Time 72720, Note Name: C4
Note ON: Time 72720, Note Name: C5, Velocity: 71
Note OFF: Time 72780, Note Name: C5
Note ON: Time 72960, Note Name: G4, Velocity: 57
Note ON: Time 72960, Note Name: D5, Velocity: 82
Note OFF: Time 73080, Note Name: D5
Note ON: Time 73080, Note Name: C5, Velocity: 63
Note OFF: Time 73200, Note Name: C5
Note OFF: Time 73200, Note Name: G4
Note ON: Time 73200, Note Name: G5, Velocity: 78
Note OFF: Time 73260, Note Name: G5
Note ON: Time 73440, Note Name: A4, Velocity: 63
Note ON: Time 73440, Note Name: D5, Velocity: 92
Note OFF: Time 73560, Note Name: D5
Note ON: Time 73560, Note Name: C5, Velocity: 64
Note OFF: Time 73680, Note Name: C5
Note OFF: Time 73680, Note Name: A4
Note ON: Time 73680, Note Name: A5, Velocity: 77
Note OFF: Time 73740, Note Name: A5
Note ON: Time 73920, Note Name: F4, Velocity: 58
Note ON: Time 73920, Note Name: D5, Velocity: 85
Note OFF: Time 74040, Note Name: D5
Note ON: Time 74040, Note Name: C5, Velocity: 58
Note OFF: Time 74160, Note Name: C5
Note OFF: Time 74160, Note Name: F4
Note ON: Time 74160, Note Name: F5, Velocity: 75
Note OFF: Time 74220, Note Name: F5
Note ON: Time 74400, Note Name: D5, Velocity: 59
Note ON: Time 74400, Note Name: A5, Velocity: 86
Note OFF: Time 74520, Note Name: A5
Note ON: Time 74520, Note Name: G5, Velocity: 65
Note OFF: Time 74640, Note Name: G5
Note OFF: Time 74640, Note Name: D5
Note ON: Time 74640, Note Name: D6, Velocity: 78
Note OFF: Time 74700, Note Name: D6
Note ON: Time 74880, Note Name: G4, Velocity: 63
Note ON: Time 74880, Note Name: D5, Velocity: 92
Note OFF: Time 75000, Note Name: D5
Note ON: Time 75000, Note Name: C5, Velocity: 69
Note OFF: Time 75120, Note Name: G4
Note ON: Time 75120, Note Name: G5, Velocity: 78
Note OFF: Time 75180, Note Name: G5
Note OFF: Time 75180, Note Name: C5
Note ON: Time 75360, Note Name: C5, Velocity: 61
Note ON: Time 75360, Note Name: A5, Velocity: 86
Note OFF: Time 75480, Note Name: A5
Note ON: Time 75480, Note Name: G5, Velocity: 61
Note OFF: Time 75600, Note Name: G5
Note OFF: Time 75600, Note Name: C5
Note ON: Time 75600, Note Name: C6, Velocity: 76
Note OFF: Time 75660, Note Name: C6
Note ON: Time 75840, Note Name: C6, Velocity: 61
Note ON: Time 75840, Note Name: A6, Velocity: 90
Note OFF: Time 75960, Note Name: A6
Note ON: Time 75960, Note Name: G6, Velocity: 64
Note OFF: Time 76080, Note Name: G6
Note OFF: Time 76080, Note Name: C6
Note ON: Time 76080, Note Name: C7, Velocity: 82
Note OFF: Time 76140, Note Name: C7
Note ON: Time 76320, Note Name: F4, Velocity: 59
Note ON: Time 76320, Note Name: D5, Velocity: 87
Note OFF: Time 76440, Note Name: D5
Note ON: Time 76440, Note Name: C5, Velocity: 61
Note OFF: Time 76560, Note Name: C5
Note OFF: Time 76560, Note Name: F4
Note ON: Time 76560, Note Name: F5, Velocity: 82
Note OFF: Time 76620, Note Name: F5
Note ON: Time 76800, Note Name: C4, Velocity: 54
Note ON: Time 76800, Note Name: G4, Velocity: 80
Note OFF: Time 76920, Note Name: G4
Note ON: Time 76920, Note Name: F4, Velocity: 55
Note OFF: Time 77040, Note Name: F4
Note OFF: Time 77040, Note Name: C4
Note ON: Time 77040, Note Name: C5, Velocity: 77
Note OFF: Time 77100, Note Name: C5
Note ON: Time 77280, Note Name: F4, Velocity: 57
Note ON: Time 77280, Note Name: D5, Velocity: 82
Note OFF: Time 77400, Note Name: D5
Note ON: Time 77400, Note Name: C5, Velocity: 64
Note OFF: Time 77520, Note Name: C5
Note OFF: Time 77520, Note Name: F4
Note ON: Time 77520, Note Name: F5, Velocity: 80
Note OFF: Time 77580, Note Name: F5
Note ON: Time 77760, Note Name: G4, Velocity: 59
Note ON: Time 77760, Note Name: D5, Velocity: 87
Note OFF: Time 77880, Note Name: D5
Note ON: Time 77880, Note Name: C5, Velocity: 61
Note OFF: Time 78000, Note Name: C5
Note OFF: Time 78000, Note Name: G4
Note ON: Time 78000, Note Name: G5, Velocity: 77
Note OFF: Time 78060, Note Name: G5
Note ON: Time 78240, Note Name: C4, Velocity: 54
Note ON: Time 78240, Note Name: A4, Velocity: 76
Note OFF: Time 78360, Note Name: A4
Note ON: Time 78360, Note Name: G4, Velocity: 55
Note OFF: Time 78480, Note Name: G4
Note OFF: Time 78480, Note Name: C4
Note ON: Time 78480, Note Name: C5, Velocity: 75
Note OFF: Time 78540, Note Name: C5
Note ON: Time 78720, Note Name: G4, Velocity: 57
Note ON: Time 78720, Note Name: D5, Velocity: 82
Note OFF: Time 78840, Note Name: D5
Note ON: Time 78840, Note Name: C5, Velocity: 58
Note OFF: Time 78960, Note Name: C5
Note OFF: Time 78960, Note Name: G4
Note ON: Time 78960, Note Name: G5, Velocity: 78
Note OFF: Time 79020, Note Name: G5
Note ON: Time 79200, Note Name: A4, Velocity: 63
Note ON: Time 79200, Note Name: D5, Velocity: 92
Note OFF: Time 79320, Note Name: D5
Note ON: Time 79320, Note Name: C5, Velocity: 64
Note OFF: Time 79440, Note Name: C5
Note OFF: Time 79440, Note Name: A4
Note ON: Time 79440, Note Name: A5, Velocity: 84
Note OFF: Time 79500, Note Name: A5
Note ON: Time 79680, Note Name: A4, Velocity: 58
Note ON: Time 79680, Note Name: E5, Velocity: 85
Note OFF: Time 79800, Note Name: E5
Note ON: Time 79800, Note Name: D5, Velocity: 58
Note OFF: Time 79920, Note Name: D5
Note OFF: Time 79920, Note Name: A4
Note ON: Time 79920, Note Name: A5, Velocity: 78
Note OFF: Time 79980, Note Name: A5
Note ON: Time 80160, Note Name: G4, Velocity: 59
Note ON: Time 80160, Note Name: D5, Velocity: 86
Note OFF: Time 80280, Note Name: D5
Note ON: Time 80280, Note Name: C5, Velocity: 64
Note OFF: Time 80400, Note Name: C5
Note OFF: Time 80400, Note Name: G4
Note ON: Time 80400, Note Name: G5, Velocity: 77
Note OFF: Time 80460, Note Name: G5
Note ON: Time 80640, Note Name: F4, Velocity: 65
Note ON: Time 80640, Note Name: D5, Velocity: 96
Note OFF: Time 80760, Note Name: D5
Note ON: Time 80760, Note Name: C5, Velocity: 69
Note OFF: Time 80880, Note Name: C5
Note OFF: Time 80880, Note Name: F4
Note ON: Time 80880, Note Name: F5, Velocity: 85
Note OFF: Time 80940, Note Name: F5
Note ON: Time 81120, Note Name: C5, Velocity: 61
Note ON: Time 81120, Note Name: G5, Velocity: 86
Note OFF: Time 81240, Note Name: G5
Note ON: Time 81240, Note Name: F5, Velocity: 61
Note OFF: Time 81360, Note Name: F5
Note OFF: Time 81360, Note Name: C5
Note ON: Time 81360, Note Name: C6, Velocity: 77
Note OFF: Time 81420, Note Name: C6
Note ON: Time 81600, Note Name: C5, Velocity: 55
Note ON: Time 81600, Note Name: A5, Velocity: 80
Note OFF: Time 81720, Note Name: A5
Note ON: Time 81720, Note Name: G5, Velocity: 63
Note OFF: Time 81840, Note Name: G5
Note OFF: Time 81840, Note Name: C5
Note ON: Time 81840, Note Name: C6, Velocity: 73
Note OFF: Time 81900, Note Name: C6
Note ON: Time 82080, Note Name: F4, Velocity: 57
Note ON: Time 82080, Note Name: G5, Velocity: 86
Note OFF: Time 82200, Note Name: G5
Note ON: Time 82200, Note Name: F5, Velocity: 61
Note OFF: Time 82320, Note Name: F5
Note OFF: Time 82320, Note Name: F4
Note ON: Time 82320, Note Name: C6, Velocity: 75
Note OFF: Time 82380, Note Name: C6
Note ON: Time 82560, Note Name: C6, Velocity: 54
Note ON: Time 82560, Note Name: G6, Velocity: 76
Note OFF: Time 82680, Note Name: G6
Note ON: Time 82680, Note Name: F6, Velocity: 54
Note OFF: Time 82800, Note Name: F6
Note OFF: Time 82800, Note Name: C6
Note ON: Time 82800, Note Name: C7, Velocity: 70
Note OFF: Time 82860, Note Name: C7
Note ON: Time 83040, Note Name: C6, Velocity: 49
Note ON: Time 83040, Note Name: A6, Velocity: 77
Note OFF: Time 83160, Note Name: A6
Note ON: Time 83160, Note Name: G6, Velocity: 58
Note OFF: Time 83280, Note Name: G6
Note OFF: Time 83280, Note Name: C6
Note ON: Time 83280, Note Name: C7, Velocity: 69
Note OFF: Time 83340, Note Name: C7
Note ON: Time 83520, Note Name: C6, Velocity: 58
Note ON: Time 83520, Note Name: G6, Velocity: 86
Note OFF: Time 83640, Note Name: G6
Note ON: Time 83640, Note Name: F6, Velocity: 61
Note OFF: Time 83760, Note Name: F6
Note OFF: Time 83760, Note Name: C6
Note ON: Time 83760, Note Name: C7, Velocity: 75
Note OFF: Time 83820, Note Name: C7
Note ON: Time 84000, Note Name: C5, Velocity: 44
Note ON: Time 84000, Note Name: G5, Velocity: 61
Note OFF: Time 84120, Note Name: G5
Note ON: Time 84120, Note Name: F5, Velocity: 49
Note OFF: Time 84240, Note Name: F5
Note OFF: Time 84240, Note Name: C5
Note ON: Time 84240, Note Name: C6, Velocity: 61
Note OFF: Time 84480, Note Name: C6
Note ON: Time 84480, Note Name: C5, Velocity: 44
Note ON: Time 84480, Note Name: A5, Velocity: 65
Note OFF: Time 84600, Note Name: A5
Note ON: Time 84600, Note Name: G5, Velocity: 54
Note OFF: Time 84720, Note Name: G5
Note OFF: Time 84720, Note Name: C5
Note ON: Time 84720, Note Name: C6, Velocity: 65
Note OFF: Time 84960, Note Name: C6
Note ON: Time 84960, Note Name: F4, Velocity: 46
Note ON: Time 84960, Note Name: G5, Velocity: 68
Note OFF: Time 85080, Note Name: G5
Note ON: Time 85080, Note Name: F5, Velocity: 54
Note OFF: Time 85200, Note Name: F5
Note OFF: Time 85200, Note Name: F4
Note ON: Time 85200, Note Name: C6, Velocity: 67
Note OFF: Time 85440, Note Name: C6
Note ON: Time 85440, Note Name: C6, Velocity: 44
Note ON: Time 85440, Note Name: G6, Velocity: 61
Note OFF: Time 85560, Note Name: G6
Note ON: Time 85560, Note Name: F6, Velocity: 49
Note OFF: Time 85680, Note Name: F6
Note OFF: Time 85680, Note Name: C6
Note ON: Time 85680, Note Name: C7, Velocity: 61
Note OFF: Time 85920, Note Name: C7
Note ON: Time 85920, Note Name: C6, Velocity: 42
Note ON: Time 85920, Note Name: A6, Velocity: 65
Note OFF: Time 86040, Note Name: A6
Note ON: Time 86040, Note Name: G6, Velocity: 54
Note OFF: Time 86160, Note Name: G6
Note OFF: Time 86160, Note Name: C6
Note ON: Time 86160, Note Name: C7, Velocity: 65
Note OFF: Time 86400, Note Name: C7
Note ON: Time 86400, Note Name: C6, Velocity: 46
Note ON: Time 86400, Note Name: G6, Velocity: 68
Note OFF: Time 86520, Note Name: G6
Note ON: Time 86520, Note Name: F6, Velocity: 54
Note OFF: Time 86640, Note Name: F6
Note OFF: Time 86640, Note Name: C6
Note ON: Time 86640, Note Name: C7, Velocity: 67
Note OFF: Time 86880, Note Name: C7
Note ON: Time 86880, Note Name: B5, Velocity: 46
Note ON: Time 86880, Note Name: G6, Velocity: 65
Note OFF: Time 87000, Note Name: G6
Note ON: Time 87000, Note Name: F#6, Velocity: 46
Note OFF: Time 87120, Note Name: F#6
Note OFF: Time 87120, Note Name: B5
Note ON: Time 87120, Note Name: B6, Velocity: 56
Note OFF: Time 87180, Note Name: B6
Note ON: Time 87360, Note Name: B5, Velocity: 45
Note ON: Time 87360, Note Name: F6, Velocity: 66
Note OFF: Time 87480, Note Name: F6
Note ON: Time 87480, Note Name: E6, Velocity: 49
Note OFF: Time 87600, Note Name: E6
Note OFF: Time 87600, Note Name: B5
Note ON: Time 87600, Note Name: B6, Velocity: 61
Note OFF: Time 87660, Note Name: B6
Note ON: Time 87840, Note Name: A5, Velocity: 46
Note ON: Time 87840, Note Name: F6, Velocity: 68
Note OFF: Time 87960, Note Name: F6
Note ON: Time 87960, Note Name: E6, Velocity: 48
Note OFF: Time 88080, Note Name: E6
Note OFF: Time 88080, Note Name: A5
Note ON: Time 88080, Note Name: A6, Velocity: 59
Note OFF: Time 88140, Note Name: A6
Note ON: Time 88320, Note Name: A5, Velocity: 45
Note ON: Time 88320, Note Name: E6, Velocity: 61
Note OFF: Time 88440, Note Name: E6
Note ON: Time 88440, Note Name: D6, Velocity: 45
Note OFF: Time 88560, Note Name: D6
Note OFF: Time 88560, Note Name: A5
Note ON: Time 88560, Note Name: A6, Velocity: 55
Note OFF: Time 88620, Note Name: A6
Note ON: Time 88800, Note Name: G5, Velocity: 42
Note ON: Time 88800, Note Name: D6, Velocity: 63
Note OFF: Time 88920, Note Name: D6
Note ON: Time 88920, Note Name: C6, Velocity: 47
Note OFF: Time 89040, Note Name: C6
Note OFF: Time 89040, Note Name: G5
Note ON: Time 89040, Note Name: G6, Velocity: 56
Note OFF: Time 89100, Note Name: G6
Note ON: Time 89280, Note Name: F5, Velocity: 43
Note ON: Time 89280, Note Name: D6, Velocity: 65
Note OFF: Time 89400, Note Name: D6
Note ON: Time 89400, Note Name: C6, Velocity: 46
Note OFF: Time 89520, Note Name: C6
Note OFF: Time 89520, Note Name: F5
Note ON: Time 89520, Note Name: F6, Velocity: 56
Note OFF: Time 89580, Note Name: F6
Note ON: Time 89760, Note Name: B4, Velocity: 43
Note ON: Time 89760, Note Name: G5, Velocity: 59
Note OFF: Time 89880, Note Name: G5
Note ON: Time 89880, Note Name: F#5, Velocity: 43
Note OFF: Time 90000, Note Name: F#5
Note OFF: Time 90000, Note Name: B4
Note ON: Time 90000, Note Name: B5, Velocity: 54
Note OFF: Time 90060, Note Name: B5
Note ON: Time 90240, Note Name: B4, Velocity: 39
Note ON: Time 90240, Note Name: F5, Velocity: 58
Note OFF: Time 90360, Note Name: F5
Note ON: Time 90360, Note Name: E5, Velocity: 44
Note OFF: Time 90480, Note Name: E5
Note OFF: Time 90480, Note Name: B4
Note ON: Time 90480, Note Name: B5, Velocity: 54
Note OFF: Time 90540, Note Name: B5
Note ON: Time 90720, Note Name: A4, Velocity: 39
Note ON: Time 90720, Note Name: F5, Velocity: 60
Note OFF: Time 90840, Note Name: F5
Note ON: Time 90840, Note Name: E5, Velocity: 43
Note OFF: Time 90960, Note Name: E5
Note OFF: Time 90960, Note Name: A4
Note ON: Time 90960, Note Name: A5, Velocity: 53
Note OFF: Time 91020, Note Name: A5
Note ON: Time 91200, Note Name: A4, Velocity: 39
Note ON: Time 91200, Note Name: E5, Velocity: 58
Note OFF: Time 91320, Note Name: E5
Note ON: Time 91320, Note Name: D5, Velocity: 39
Note OFF: Time 91440, Note Name: D5
Note OFF: Time 91440, Note Name: A4
Note ON: Time 91440, Note Name: A5, Velocity: 51
Note OFF: Time 91500, Note Name: A5
Note ON: Time 91680, Note Name: G4, Velocity: 37
Note ON: Time 91680, Note Name: D5, Velocity: 57
Note OFF: Time 91800, Note Name: D5
Note ON: Time 91800, Note Name: C5, Velocity: 44
Note OFF: Time 91920, Note Name: C5
Note OFF: Time 91920, Note Name: G4
Note ON: Time 91920, Note Name: G5, Velocity: 54
Note OFF: Time 91980, Note Name: G5
Note ON: Time 92160, Note Name: F4, Velocity: 39
Note ON: Time 92160, Note Name: D5, Velocity: 60
Note OFF: Time 92280, Note Name: D5
Note ON: Time 92280, Note Name: C5, Velocity: 43
Note OFF: Time 92400, Note Name: C5
Note OFF: Time 92400, Note Name: F4
Note ON: Time 92400, Note Name: F5, Velocity: 54
Note OFF: Time 92640, Note Name: F5
Note ON: Time 92640, Note Name: C5, Velocity: 43
Note ON: Time 92640, Note Name: G5, Velocity: 61
Note OFF: Time 92760, Note Name: G5
Note ON: Time 92760, Note Name: F5, Velocity: 44
Note OFF: Time 92880, Note Name: F5
Note OFF: Time 92880, Note Name: C5
Note ON: Time 92880, Note Name: C6, Velocity: 55
Note OFF: Time 93120, Note Name: C6
Note ON: Time 93120, Note Name: C5, Velocity: 39
Note ON: Time 93120, Note Name: A5, Velocity: 61
Note OFF: Time 93240, Note Name: A5
Note ON: Time 93240, Note Name: G5, Velocity: 46
Note OFF: Time 93360, Note Name: G5
Note OFF: Time 93360, Note Name: C5
Note ON: Time 93360, Note Name: C6, Velocity: 59
Note OFF: Time 93600, Note Name: C6
Note ON: Time 93600, Note Name: C5, Velocity: 43
Note ON: Time 93600, Note Name: G5, Velocity: 63
Note OFF: Time 93720, Note Name: G5
Note ON: Time 93720, Note Name: F5, Velocity: 46
Note OFF: Time 93840, Note Name: F5
Note OFF: Time 93840, Note Name: C5
Note ON: Time 93840, Note Name: C6, Velocity: 56
Note OFF: Time 94080, Note Name: C6
Note ON: Time 94080, Note Name: C5, Velocity: 43
Note ON: Time 94080, Note Name: G5, Velocity: 63
Note OFF: Time 94200, Note Name: G5
Note ON: Time 94200, Note Name: F5, Velocity: 44
Note OFF: Time 94320, Note Name: F5
Note OFF: Time 94320, Note Name: C5
Note ON: Time 94320, Note Name: C6, Velocity: 54
Note OFF: Time 94560, Note Name: C6
Note ON: Time 94560, Note Name: C5, Velocity: 37
Note ON: Time 94560, Note Name: A5, Velocity: 58
Note OFF: Time 94680, Note Name: A5
Note ON: Time 94680, Note Name: G5, Velocity: 44
Note OFF: Time 94800, Note Name: G5
Note OFF: Time 94800, Note Name: C5
Note ON: Time 94800, Note Name: C6, Velocity: 54
Note OFF: Time 95040, Note Name: C6
Note ON: Time 95040, Note Name: C5, Velocity: 38
Note ON: Time 95040, Note Name: G5, Velocity: 59
Note OFF: Time 95160, Note Name: G5
Note ON: Time 95160, Note Name: F5, Velocity: 43
Note OFF: Time 95280, Note Name: F5
Note OFF: Time 95280, Note Name: C5
Note ON: Time 95280, Note Name: C6, Velocity: 54
Note OFF: Time 95520, Note Name: C6
Note ON: Time 95520, Note Name: C5, Velocity: 40
Note ON: Time 95520, Note Name: G5, Velocity: 58
Note OFF: Time 95640, Note Name: G5
Note ON: Time 95640, Note Name: F5, Velocity: 40
Note OFF: Time 95760, Note Name: F5
Note OFF: Time 95760, Note Name: C5
Note ON: Time 95760, Note Name: C6, Velocity: 52
Note OFF: Time 96000, Note Name: C6
Note ON: Time 96000, Note Name: C5, Velocity: 35
Note ON: Time 96000, Note Name: G5, Velocity: 56
Note OFF: Time 96120, Note Name: G5
Note ON: Time 96120, Note Name: F5, Velocity: 42
Note OFF: Time 96240, Note Name: F5
Note OFF: Time 96240, Note Name: C5
Note ON: Time 96240, Note Name: C6, Velocity: 51
Note OFF: Time 96480, Note Name: C6
Note ON: Time 96480, Note Name: C5, Velocity: 37
Note ON: Time 96480, Note Name: G5, Velocity: 56
Note OFF: Time 96540, Note Name: G5
Note ON: Time 96540, Note Name: F5, Velocity: 40
Note OFF: Time 96600, Note Name: F5
Note ON: Time 96600, Note Name: G5, Velocity: 46
Note OFF: Time 96660, Note Name: G5
Note ON: Time 96660, Note Name: F5, Velocity: 38
Note OFF: Time 96720, Note Name: F5
Note OFF: Time 96720, Note Name: C5
Note ON: Time 96720, Note Name: C6, Velocity: 49
Note OFF: Time 96960, Note Name: C6
Note ON: Time 96960, Note Name: C5, Velocity: 37
Note ON: Time 96960, Note Name: G5, Velocity: 54
Note OFF: Time 97020, Note Name: G5
Note ON: Time 97020, Note Name: F5, Velocity: 37
Note OFF: Time 97080, Note Name: F5
Note ON: Time 97080, Note Name: G5, Velocity: 40
Note OFF: Time 97140, Note Name: G5
Note ON: Time 97140, Note Name: F5, Velocity: 37
Note OFF: Time 97200, Note Name: F5
Note OFF: Time 97200, Note Name: C5
Note ON: Time 97200, Note Name: C6, Velocity: 47
Note OFF: Time 97440, Note Name: C6
Note ON: Time 97440, Note Name: C5, Velocity: 32
Note ON: Time 97440, Note Name: G5, Velocity: 51
Note OFF: Time 97500, Note Name: G5
Note ON: Time 97500, Note Name: F5, Velocity: 37
Note OFF: Time 97560, Note Name: F5
Note ON: Time 97560, Note Name: G5, Velocity: 38
Note OFF: Time 97620, Note Name: G5
Note ON: Time 97620, Note Name: F5, Velocity: 37
Note OFF: Time 97680, Note Name: F5
Note OFF: Time 97680, Note Name: C5
Note ON: Time 97680, Note Name: C6, Velocity: 46
Note OFF: Time 97920, Note Name: C6
Note ON: Time 97920, Note Name: C5, Velocity: 33
Note ON: Time 97920, Note Name: G5, Velocity: 51
Note OFF: Time 97980, Note Name: G5
Note ON: Time 97980, Note Name: F5, Velocity: 36
Note OFF: Time 98040, Note Name: F5
Note ON: Time 98040, Note Name: G5, Velocity: 40
Note OFF: Time 98100, Note Name: G5
Note ON: Time 98100, Note Name: F5, Velocity: 34
Note OFF: Time 98160, Note Name: F5
Note OFF: Time 98160, Note Name: C5
Note ON: Time 98160, Note Name: G5, Velocity: 48
Note ON: Time 98160, Note Name: C6, Velocity: 45
Note OFF: Time 98220, Note Name: G5
Note ON: Time 98220, Note Name: F5, Velocity: 34
Note OFF: Time 98280, Note Name: F5
Note ON: Time 98280, Note Name: G5, Velocity: 48
Note OFF: Time 98340, Note Name: G5
Note ON: Time 98340, Note Name: F5, Velocity: 34
Note OFF: Time 98400, Note Name: F5
Note OFF: Time 98400, Note Name: C6
Note ON: Time 98400, Note Name: C5, Velocity: 33
Note ON: Time 98400, Note Name: G5, Velocity: 47
Note OFF: Time 98460, Note Name: G5
Note ON: Time 98460, Note Name: F5, Velocity: 33
Note OFF: Time 98520, Note Name: F5
Note ON: Time 98520, Note Name: G5, Velocity: 35
Note OFF: Time 98580, Note Name: G5
Note ON: Time 98580, Note Name: F5, Velocity: 33
Note OFF: Time 98640, Note Name: F5
Note OFF: Time 98640, Note Name: C5
Note ON: Time 98640, Note Name: G5, Velocity: 35
Note ON: Time 98640, Note Name: C6, Velocity: 42
Note OFF: Time 98700, Note Name: G5
Note ON: Time 98700, Note Name: F5, Velocity: 33
Note OFF: Time 98760, Note Name: F5
Note ON: Time 98760, Note Name: G5, Velocity: 35
Note OFF: Time 98820, Note Name: G5
Note ON: Time 98820, Note Name: F5, Velocity: 32
Note OFF: Time 98880, Note Name: F5
Note OFF: Time 98880, Note Name: C6
Note ON: Time 98880, Note Name: C5, Velocity: 28
Note ON: Time 98880, Note Name: G5, Velocity: 45
Note OFF: Time 98940, Note Name: G5
Note ON: Time 98940, Note Name: F5, Velocity: 32
Note OFF: Time 99000, Note Name: F5
Note ON: Time 99000, Note Name: G5, Velocity: 34
Note OFF: Time 99060, Note Name: G5
Note ON: Time 99060, Note Name: F5, Velocity: 32
Note OFF: Time 99120, Note Name: F5
Note OFF: Time 99120, Note Name: C5
Note ON: Time 99120, Note Name: G5, Velocity: 33
Note ON: Time 99120, Note Name: C6, Velocity: 40
Note OFF: Time 99180, Note Name: G5
Note ON: Time 99180, Note Name: F5, Velocity: 32
Note OFF: Time 99240, Note Name: F5
Note ON: Time 99240, Note Name: G5, Velocity: 33
Note OFF: Time 99300, Note Name: G5
Note ON: Time 99300, Note Name: F5, Velocity: 31
Note OFF: Time 99360, Note Name: F5
Note OFF: Time 99360, Note Name: C6
Note ON: Time 99360, Note Name: C5, Velocity: 28
Note ON: Time 99360, Note Name: F5, Velocity: 45
Note OFF: Time 99420, Note Name: F5
Note ON: Time 99420, Note Name: G5, Velocity: 32
Note OFF: Time 99480, Note Name: G5
Note ON: Time 99480, Note Name: F5, Velocity: 34
Note OFF: Time 99540, Note Name: F5
Note ON: Time 99540, Note Name: G5, Velocity: 32
Note OFF: Time 99600, Note Name: G5
Note OFF: Time 99600, Note Name: C5
Note ON: Time 99600, Note Name: F5, Velocity: 33
Note OFF: Time 99660, Note Name: F5
Note ON: Time 99660, Note Name: G5, Velocity: 32
Note OFF: Time 99720, Note Name: G5
Note ON: Time 99720, Note Name: E5, Velocity: 33
Note OFF: Time 99840, Note Name: E5
Note ON: Time 99840, Note Name: F5, Velocity: 44
Note OFF: Time 99900, Note Name: F5
Note ON: Time 99900, Note Name: G#5, Velocity: 44
Note OFF: Time 99960, Note Name: G#5
Note ON: Time 99960, Note Name: A#5, Velocity: 45
Note OFF: Time 100020, Note Name: A#5
Note ON: Time 100020, Note Name: A5, Velocity: 46
Note OFF: Time 100080, Note Name: A5
Note ON: Time 100080, Note Name: B5, Velocity: 46
Note OFF: Time 100140, Note Name: B5
Note ON: Time 100140, Note Name: D6, Velocity: 47
Note OFF: Time 100200, Note Name: D6
Note ON: Time 100200, Note Name: C6, Velocity: 48
Note OFF: Time 100260, Note Name: C6
Note ON: Time 100260, Note Name: E6, Velocity: 48
Note OFF: Time 100320, Note Name: E6
Note ON: Time 100320, Note Name: G6, Velocity: 49
Note OFF: Time 100380, Note Name: G6
Note ON: Time 100380, Note Name: F6, Velocity: 50
Note OFF: Time 100440, Note Name: F6
Note ON: Time 100440, Note Name: G#6, Velocity: 50
Note OFF: Time 100500, Note Name: G#6
Note ON: Time 100500, Note Name: A#6, Velocity: 51
Note OFF: Time 100560, Note Name: A#6
Note ON: Time 100560, Note Name: A6, Velocity: 51
Note OFF: Time 100620, Note Name: A6
Note ON: Time 100620, Note Name: B6, Velocity: 52
Note OFF: Time 100680, Note Name: B6
Note ON: Time 100680, Note Name: D7, Velocity: 53
Note OFF: Time 100740, Note Name: D7
Note ON: Time 100740, Note Name: C7, Velocity: 53
Note OFF: Time 100800, Note Name: C7
Note ON: Time 100800, Note Name: F7, Velocity: 60
Note OFF: Time 101280, Note Name: F7
Note ON: Time 101760, Note Name: A3, Velocity: 31
Note ON: Time 101760, Note Name: C4, Velocity: 31
Note ON: Time 101760, Note Name: A4, Velocity: 36
Note OFF: Time 102240, Note Name: A4
Note OFF: Time 102240, Note Name: C4
Note OFF: Time 102240, Note Name: A3
Note ON: Time 102240, Note Name: A3, Velocity: 31
Note ON: Time 102240, Note Name: F4, Velocity: 31
Note ON: Time 102240, Note Name: A4, Velocity: 36
Note OFF: Time 103680, Note Name: A4
Note OFF: Time 103680, Note Name: F4
Note OFF: Time 103680, Note Name: A3
Note ON: Time 103680, Note Name: A3, Velocity: 31
Note ON: Time 103680, Note Name: F4, Velocity: 31
Note ON: Time 103680, Note Name: A4, Velocity: 36
Note OFF: Time 104640, Note Name: A4
Note OFF: Time 104640, Note Name: F4
Note OFF: Time 104640, Note Name: A3
Track 2: Piano left
Note ON: Time 1440, Note Name: A3, Velocity: 38
Note ON: Time 1440, Note Name: C3, Velocity: 31
Note OFF: Time 1560, Note Name: A3
Note ON: Time 1560, Note Name: F3, Velocity: 35
Note OFF: Time 1680, Note Name: F3
Note OFF: Time 1680, Note Name: C3
Note ON: Time 1680, Note Name: F2, Velocity: 31
Note OFF: Time 1800, Note Name: F2
Note ON: Time 1920, Note Name: A3, Velocity: 36
Note ON: Time 1920, Note Name: C3, Velocity: 29
Note OFF: Time 2040, Note Name: A3
Note ON: Time 2040, Note Name: F3, Velocity: 33
Note OFF: Time 2160, Note Name: F3
Note OFF: Time 2160, Note Name: C3
Note ON: Time 2160, Note Name: F2, Velocity: 29
Note OFF: Time 2280, Note Name: F2
Note ON: Time 2400, Note Name: A3, Velocity: 36
Note ON: Time 2400, Note Name: C3, Velocity: 29
Note OFF: Time 2520, Note Name: A3
Note ON: Time 2520, Note Name: F3, Velocity: 33
Note OFF: Time 2640, Note Name: F3
Note OFF: Time 2640, Note Name: C3
Note ON: Time 2640, Note Name: F2, Velocity: 28
Note OFF: Time 2760, Note Name: F2
Note ON: Time 2880, Note Name: A#3, Velocity: 38
Note ON: Time 2880, Note Name: C3, Velocity: 31
Note OFF: Time 3000, Note Name: A#3
Note ON: Time 3000, Note Name: E3, Velocity: 35
Note OFF: Time 3120, Note Name: E3
Note OFF: Time 3120, Note Name: C3
Note ON: Time 3120, Note Name: F2, Velocity: 30
Note OFF: Time 3240, Note Name: F2
Note ON: Time 3360, Note Name: A#3, Velocity: 32
Note ON: Time 3360, Note Name: C3, Velocity: 29
Note OFF: Time 3480, Note Name: A#3
Note ON: Time 3480, Note Name: E3, Velocity: 33
Note OFF: Time 3600, Note Name: E3
Note OFF: Time 3600, Note Name: C3
Note ON: Time 3600, Note Name: F2, Velocity: 28
Note OFF: Time 3720, Note Name: F2
Note ON: Time 3840, Note Name: A#3, Velocity: 36
Note ON: Time 3840, Note Name: C3, Velocity: 29
Note OFF: Time 3960, Note Name: A#3
Note ON: Time 3960, Note Name: E3, Velocity: 33
Note OFF: Time 4080, Note Name: E3
Note OFF: Time 4080, Note Name: C3
Note ON: Time 4080, Note Name: F2, Velocity: 28
Note OFF: Time 4200, Note Name: F2
Note ON: Time 4320, Note Name: A3, Velocity: 39
Note ON: Time 4320, Note Name: C3, Velocity: 32
Note OFF: Time 4440, Note Name: A3
Note ON: Time 4440, Note Name: F3, Velocity: 36
Note OFF: Time 4560, Note Name: F3
Note OFF: Time 4560, Note Name: C3
Note ON: Time 4560, Note Name: F2, Velocity: 32
Note OFF: Time 4680, Note Name: F2
Note ON: Time 4800, Note Name: A3, Velocity: 37
Note ON: Time 4800, Note Name: D3, Velocity: 30
Note OFF: Time 4920, Note Name: A3
Note ON: Time 4920, Note Name: F3, Velocity: 34
Note OFF: Time 5040, Note Name: F3
Note OFF: Time 5040, Note Name: D3
Note ON: Time 5040, Note Name: F2, Velocity: 29
Note OFF: Time 5160, Note Name: F2
Note ON: Time 5280, Note Name: B3, Velocity: 37
Note ON: Time 5280, Note Name: D3, Velocity: 30
Note OFF: Time 5400, Note Name: B3
Note ON: Time 5400, Note Name: F3, Velocity: 34
Note OFF: Time 5520, Note Name: F3
Note OFF: Time 5520, Note Name: D3
Note ON: Time 5520, Note Name: G2, Velocity: 30
Note OFF: Time 5640, Note Name: G2
Note ON: Time 5760, Note Name: E4, Velocity: 40
Note ON: Time 5760, Note Name: G3, Velocity: 33
Note OFF: Time 5880, Note Name: E4
Note ON: Time 5880, Note Name: A#3, Velocity: 37
Note OFF: Time 6000, Note Name: A#3
Note OFF: Time 6000, Note Name: G3
Note ON: Time 6000, Note Name: C3, Velocity: 32
Note OFF: Time 6120, Note Name: C3
Note ON: Time 6240, Note Name: A#4, Velocity: 38
Note ON: Time 6240, Note Name: C4, Velocity: 31
Note OFF: Time 6360, Note Name: A#4
Note ON: Time 6360, Note Name: E4, Velocity: 35
Note OFF: Time 6480, Note Name: E4
Note OFF: Time 6480, Note Name: C4
Note ON: Time 6480, Note Name: G3, Velocity: 28
Note OFF: Time 6600, Note Name: G3
Note ON: Time 6720, Note Name: E5, Velocity: 38
Note ON: Time 6720, Note Name: G4, Velocity: 31
Note OFF: Time 6840, Note Name: E5
Note ON: Time 6840, Note Name: A#4, Velocity: 35
Note OFF: Time 6960, Note Name: A#4
Note OFF: Time 6960, Note Name: G4
Note ON: Time 6960, Note Name: C4, Velocity: 30
Note OFF: Time 7080, Note Name: C4
Note ON: Time 7200, Note Name: A3, Velocity: 38
Note ON: Time 7200, Note Name: C3, Velocity: 31
Note OFF: Time 7320, Note Name: A3
Note ON: Time 7320, Note Name: F3, Velocity: 35
Note OFF: Time 7440, Note Name: F3
Note OFF: Time 7440, Note Name: C3
Note ON: Time 7440, Note Name: F2, Velocity: 31
Note OFF: Time 7560, Note Name: F2
Note ON: Time 7680, Note Name: A3, Velocity: 36
Note ON: Time 7680, Note Name: C3, Velocity: 29
Note OFF: Time 7800, Note Name: A3
Note ON: Time 7800, Note Name: F3, Velocity: 33
Note OFF: Time 7920, Note Name: F3
Note OFF: Time 7920, Note Name: C3
Note ON: Time 7920, Note Name: F2, Velocity: 29
Note OFF: Time 8040, Note Name: F2
Note ON: Time 8160, Note Name: A3, Velocity: 36
Note ON: Time 8160, Note Name: C3, Velocity: 29
Note OFF: Time 8280, Note Name: A3
Note ON: Time 8280, Note Name: F3, Velocity: 33
Note OFF: Time 8400, Note Name: F3
Note OFF: Time 8400, Note Name: C3
Note ON: Time 8400, Note Name: F2, Velocity: 28
Note OFF: Time 8520, Note Name: F2
Note ON: Time 8640, Note Name: A#3, Velocity: 38
Note ON: Time 8640, Note Name: C3, Velocity: 31
Note OFF: Time 8760, Note Name: A#3
Note ON: Time 8760, Note Name: E3, Velocity: 35
Note OFF: Time 8880, Note Name: E3
Note OFF: Time 8880, Note Name: C3
Note ON: Time 8880, Note Name: F2, Velocity: 30
Note OFF: Time 9000, Note Name: F2
Note ON: Time 9120, Note Name: A#3, Velocity: 32
Note ON: Time 9120, Note Name: C3, Velocity: 29
Note OFF: Time 9240, Note Name: A#3
Note ON: Time 9240, Note Name: E3, Velocity: 33
Note OFF: Time 9360, Note Name: E3
Note OFF: Time 9360, Note Name: C3
Note ON: Time 9360, Note Name: F2, Velocity: 28
Note OFF: Time 9480, Note Name: F2
Note ON: Time 9600, Note Name: A#3, Velocity: 36
Note ON: Time 9600, Note Name: C3, Velocity: 29
Note OFF: Time 9720, Note Name: A#3
Note ON: Time 9720, Note Name: E3, Velocity: 33
Note OFF: Time 9840, Note Name: E3
Note OFF: Time 9840, Note Name: C3
Note ON: Time 9840, Note Name: F2, Velocity: 28
Note OFF: Time 9960, Note Name: F2
Note ON: Time 10080, Note Name: A3, Velocity: 39
Note ON: Time 10080, Note Name: C3, Velocity: 32
Note OFF: Time 10200, Note Name: A3
Note ON: Time 10200, Note Name: F3, Velocity: 36
Note OFF: Time 10320, Note Name: F3
Note OFF: Time 10320, Note Name: C3
Note ON: Time 10320, Note Name: F2, Velocity: 32
Note OFF: Time 10440, Note Name: F2
Note ON: Time 10560, Note Name: B3, Velocity: 37
Note ON: Time 10560, Note Name: D3, Velocity: 30
Note OFF: Time 10680, Note Name: B3
Note ON: Time 10680, Note Name: F3, Velocity: 34
Note OFF: Time 10800, Note Name: F3
Note OFF: Time 10800, Note Name: D3
Note ON: Time 10800, Note Name: G2, Velocity: 29
Note OFF: Time 10920, Note Name: G2
Note ON: Time 11040, Note Name: E4, Velocity: 37
Note ON: Time 11040, Note Name: G3, Velocity: 30
Note OFF: Time 11160, Note Name: E4
Note ON: Time 11160, Note Name: A#3, Velocity: 34
Note OFF: Time 11280, Note Name: A#3
Note OFF: Time 11280, Note Name: G3
Note ON: Time 11280, Note Name: C3, Velocity: 30
Note OFF: Time 11400, Note Name: C3
Note ON: Time 11520, Note Name: A3, Velocity: 40
Note ON: Time 11520, Note Name: C3, Velocity: 33
Note OFF: Time 11640, Note Name: A3
Note ON: Time 11640, Note Name: F3, Velocity: 37
Note OFF: Time 11760, Note Name: F3
Note OFF: Time 11760, Note Name: C3
Note ON: Time 11760, Note Name: F2, Velocity: 32
Note OFF: Time 11880, Note Name: F2
Note ON: Time 12000, Note Name: A4, Velocity: 38
Note ON: Time 12000, Note Name: C4, Velocity: 31
Note OFF: Time 12120, Note Name: A4
Note ON: Time 12120, Note Name: F4, Velocity: 35
Note OFF: Time 12240, Note Name: F4
Note OFF: Time 12240, Note Name: C4
Note ON: Time 12240, Note Name: F3, Velocity: 28
Note OFF: Time 12360, Note Name: F3
Note ON: Time 12480, Note Name: A5, Velocity: 38
Note ON: Time 12480, Note Name: C5, Velocity: 31
Note OFF: Time 12600, Note Name: A5
Note ON: Time 12600, Note Name: F5, Velocity: 35
Note OFF: Time 12720, Note Name: F5
Note OFF: Time 12720, Note Name: C5
Note ON: Time 12720, Note Name: F4, Velocity: 30
Note OFF: Time 12840, Note Name: F4
Note ON: Time 12960, Note Name: A3, Velocity: 38
Note ON: Time 12960, Note Name: C3, Velocity: 31
Note OFF: Time 13080, Note Name: A3
Note ON: Time 13080, Note Name: F3, Velocity: 35
Note OFF: Time 13200, Note Name: F3
Note OFF: Time 13200, Note Name: C3
Note ON: Time 13200, Note Name: F2, Velocity: 31
Note OFF: Time 13320, Note Name: F2
Note ON: Time 13440, Note Name: A3, Velocity: 36
Note ON: Time 13440, Note Name: C3, Velocity: 29
Note OFF: Time 13560, Note Name: A3
Note ON: Time 13560, Note Name: F3, Velocity: 33
Note OFF: Time 13680, Note Name: F3
Note OFF: Time 13680, Note Name: C3
Note ON: Time 13680, Note Name: F2, Velocity: 29
Note OFF: Time 13800, Note Name: F2
Note ON: Time 13920, Note Name: A3, Velocity: 36
Note ON: Time 13920, Note Name: C3, Velocity: 29
Note OFF: Time 14040, Note Name: A3
Note ON: Time 14040, Note Name: F3, Velocity: 33
Note OFF: Time 14160, Note Name: F3
Note OFF: Time 14160, Note Name: C3
Note ON: Time 14160, Note Name: F2, Velocity: 28
Note OFF: Time 14280, Note Name: F2
Note ON: Time 14400, Note Name: A#3, Velocity: 38
Note ON: Time 14400, Note Name: C3, Velocity: 31
Note OFF: Time 14520, Note Name: A#3
Note ON: Time 14520, Note Name: E3, Velocity: 35
Note OFF: Time 14640, Note Name: E3
Note OFF: Time 14640, Note Name: C3
Note ON: Time 14640, Note Name: F2, Velocity: 30
Note OFF: Time 14760, Note Name: F2
Note ON: Time 14880, Note Name: A#3, Velocity: 32
Note ON: Time 14880, Note Name: C3, Velocity: 29
Note OFF: Time 15000, Note Name: A#3
Note ON: Time 15000, Note Name: E3, Velocity: 33
Note OFF: Time 15120, Note Name: E3
Note OFF: Time 15120, Note Name: C3
Note ON: Time 15120, Note Name: F2, Velocity: 28
Note OFF: Time 15240, Note Name: F2
Note ON: Time 15360, Note Name: A#3, Velocity: 36
Note ON: Time 15360, Note Name: C3, Velocity: 29
Note OFF: Time 15480, Note Name: A#3
Note ON: Time 15480, Note Name: E3, Velocity: 33
Note OFF: Time 15600, Note Name: E3
Note OFF: Time 15600, Note Name: C3
Note ON: Time 15600, Note Name: F2, Velocity: 28
Note OFF: Time 15720, Note Name: F2
Note ON: Time 15840, Note Name: A3, Velocity: 39
Note ON: Time 15840, Note Name: C3, Velocity: 32
Note OFF: Time 15960, Note Name: A3
Note ON: Time 15960, Note Name: F3, Velocity: 36
Note OFF: Time 16080, Note Name: F3
Note OFF: Time 16080, Note Name: C3
Note ON: Time 16080, Note Name: F2, Velocity: 32
Note OFF: Time 16200, Note Name: F2
Note ON: Time 16320, Note Name: A3, Velocity: 37
Note ON: Time 16320, Note Name: D3, Velocity: 30
Note OFF: Time 16440, Note Name: A3
Note ON: Time 16440, Note Name: F3, Velocity: 34
Note OFF: Time 16560, Note Name: F3
Note OFF: Time 16560, Note Name: D3
Note ON: Time 16560, Note Name: F2, Velocity: 29
Note OFF: Time 16680, Note Name: F2
Note ON: Time 16800, Note Name: B3, Velocity: 37
Note ON: Time 16800, Note Name: D3, Velocity: 30
Note OFF: Time 16920, Note Name: B3
Note ON: Time 16920, Note Name: F3, Velocity: 34
Note OFF: Time 17040, Note Name: F3
Note OFF: Time 17040, Note Name: D3
Note ON: Time 17040, Note Name: G2, Velocity: 30
Note OFF: Time 17160, Note Name: G2
Note ON: Time 17280, Note Name: E4, Velocity: 40
Note ON: Time 17280, Note Name: G3, Velocity: 33
Note OFF: Time 17400, Note Name: E4
Note ON: Time 17400, Note Name: A#3, Velocity: 37
Note OFF: Time 17520, Note Name: A#3
Note OFF: Time 17520, Note Name: G3
Note ON: Time 17520, Note Name: C3, Velocity: 32
Note OFF: Time 17640, Note Name: C3
Note ON: Time 17760, Note Name: A#4, Velocity: 38
Note ON: Time 17760, Note Name: C4, Velocity: 31
Note OFF: Time 17880, Note Name: A#4
Note ON: Time 17880, Note Name: E4, Velocity: 35
Note OFF: Time 18000, Note Name: E4
Note OFF: Time 18000, Note Name: C4
Note ON: Time 18000, Note Name: G3, Velocity: 28
Note OFF: Time 18120, Note Name: G3
Note ON: Time 18240, Note Name: E5, Velocity: 38
Note ON: Time 18240, Note Name: G4, Velocity: 31
Note OFF: Time 18360, Note Name: E5
Note ON: Time 18360, Note Name: A#4, Velocity: 35
Note OFF: Time 18480, Note Name: A#4
Note OFF: Time 18480, Note Name: G4
Note ON: Time 18480, Note Name: C4, Velocity: 30
Note OFF: Time 18600, Note Name: C4
Note ON: Time 18720, Note Name: A3, Velocity: 38
Note ON: Time 18720, Note Name: C3, Velocity: 31
Note OFF: Time 18840, Note Name: A3
Note ON: Time 18840, Note Name: F3, Velocity: 35
Note OFF: Time 18960, Note Name: F3
Note OFF: Time 18960, Note Name: C3
Note ON: Time 18960, Note Name: F2, Velocity: 31
Note OFF: Time 19080, Note Name: F2
Note ON: Time 19200, Note Name: A3, Velocity: 36
Note ON: Time 19200, Note Name: C3, Velocity: 29
Note OFF: Time 19320, Note Name: A3
Note ON: Time 19320, Note Name: F3, Velocity: 33
Note OFF: Time 19440, Note Name: F3
Note OFF: Time 19440, Note Name: C3
Note ON: Time 19440, Note Name: F2, Velocity: 29
Note OFF: Time 19560, Note Name: F2
Note ON: Time 19680, Note Name: A3, Velocity: 36
Note ON: Time 19680, Note Name: C3, Velocity: 29
Note OFF: Time 19800, Note Name: A3
Note ON: Time 19800, Note Name: F3, Velocity: 33
Note OFF: Time 19920, Note Name: F3
Note OFF: Time 19920, Note Name: C3
Note ON: Time 19920, Note Name: F2, Velocity: 28
Note OFF: Time 20040, Note Name: F2
Note ON: Time 20160, Note Name: A#3, Velocity: 38
Note ON: Time 20160, Note Name: C3, Velocity: 31
Note OFF: Time 20280, Note Name: A#3
Note ON: Time 20280, Note Name: E3, Velocity: 35
Note OFF: Time 20400, Note Name: E3
Note OFF: Time 20400, Note Name: C3
Note ON: Time 20400, Note Name: F2, Velocity: 30
Note OFF: Time 20520, Note Name: F2
Note ON: Time 20640, Note Name: A#3, Velocity: 32
Note ON: Time 20640, Note Name: C3, Velocity: 29
Note OFF: Time 20760, Note Name: A#3
Note ON: Time 20760, Note Name: E3, Velocity: 33
Note OFF: Time 20880, Note Name: E3
Note OFF: Time 20880, Note Name: C3
Note ON: Time 20880, Note Name: F2, Velocity: 28
Note OFF: Time 21000, Note Name: F2
Note ON: Time 21120, Note Name: A#3, Velocity: 36
Note ON: Time 21120, Note Name: C3, Velocity: 29
Note OFF: Time 21240, Note Name: A#3
Note ON: Time 21240, Note Name: E3, Velocity: 33
Note OFF: Time 21360, Note Name: E3
Note OFF: Time 21360, Note Name: C3
Note ON: Time 21360, Note Name: F2, Velocity: 28
Note OFF: Time 21480, Note Name: F2
Note ON: Time 21600, Note Name: A3, Velocity: 39
Note ON: Time 21600, Note Name: C3, Velocity: 32
Note OFF: Time 21720, Note Name: A3
Note ON: Time 21720, Note Name: F3, Velocity: 36
Note OFF: Time 21840, Note Name: F3
Note OFF: Time 21840, Note Name: C3
Note ON: Time 21840, Note Name: F2, Velocity: 32
Note OFF: Time 21960, Note Name: F2
Note ON: Time 22080, Note Name: B3, Velocity: 37
Note ON: Time 22080, Note Name: D3, Velocity: 30
Note OFF: Time 22200, Note Name: B3
Note ON: Time 22200, Note Name: F3, Velocity: 34
Note OFF: Time 22320, Note Name: F3
Note OFF: Time 22320, Note Name: D3
Note ON: Time 22320, Note Name: G2, Velocity: 29
Note OFF: Time 22440, Note Name: G2
Note ON: Time 22560, Note Name: A#3, Velocity: 37
Note ON: Time 22560, Note Name: C3, Velocity: 30
Note OFF: Time 22680, Note Name: A#3
Note ON: Time 22680, Note Name: E3, Velocity: 34
Note OFF: Time 22800, Note Name: E3
Note OFF: Time 22800, Note Name: C3
Note ON: Time 22800, Note Name: C2, Velocity: 30
Note OFF: Time 22920, Note Name: C2
Note ON: Time 23040, Note Name: A3, Velocity: 40
Note ON: Time 23040, Note Name: C3, Velocity: 33
Note OFF: Time 23160, Note Name: A3
Note ON: Time 23160, Note Name: F3, Velocity: 37
Note OFF: Time 23280, Note Name: F3
Note OFF: Time 23280, Note Name: C3
Note ON: Time 23280, Note Name: F2, Velocity: 32
Note OFF: Time 23400, Note Name: F2
Note ON: Time 23520, Note Name: A4, Velocity: 38
Note ON: Time 23520, Note Name: C4, Velocity: 31
Note OFF: Time 23640, Note Name: A4
Note ON: Time 23640, Note Name: F4, Velocity: 35
Note OFF: Time 23760, Note Name: F4
Note OFF: Time 23760, Note Name: C4
Note ON: Time 23760, Note Name: F3, Velocity: 28
Note OFF: Time 23880, Note Name: F3
Note ON: Time 24000, Note Name: A5, Velocity: 38
Note ON: Time 24000, Note Name: C5, Velocity: 31
Note OFF: Time 24120, Note Name: A5
Note ON: Time 24120, Note Name: F5, Velocity: 35
Note OFF: Time 24240, Note Name: F5
Note OFF: Time 24240, Note Name: C5
Note ON: Time 24240, Note Name: F4, Velocity: 30
Note OFF: Time 24360, Note Name: F4
Note ON: Time 24480, Note Name: E4, Velocity: 30
Note ON: Time 24480, Note Name: G3, Velocity: 25
Note OFF: Time 24600, Note Name: E4
Note ON: Time 24600, Note Name: C4, Velocity: 31
Note OFF: Time 24720, Note Name: C4
Note OFF: Time 24720, Note Name: G3
Note ON: Time 24720, Note Name: C3, Velocity: 31
Note OFF: Time 24960, Note Name: C3
Note ON: Time 24960, Note Name: D#4, Velocity: 29
Note ON: Time 24960, Note Name: G3, Velocity: 24
Note OFF: Time 25080, Note Name: D#4
Note ON: Time 25080, Note Name: C4, Velocity: 30
Note OFF: Time 25200, Note Name: C4
Note OFF: Time 25200, Note Name: G3
Note ON: Time 25200, Note Name: C3, Velocity: 30
Note OFF: Time 25440, Note Name: C3
Note ON: Time 25440, Note Name: F4, Velocity: 31
Note ON: Time 25440, Note Name: C4, Velocity: 25
Note OFF: Time 25560, Note Name: F4
Note ON: Time 25560, Note Name: D#4, Velocity: 32
Note OFF: Time 25680, Note Name: D#4
Note OFF: Time 25680, Note Name: C4
Note ON: Time 25680, Note Name: F3, Velocity: 31
Note OFF: Time 25920, Note Name: F3
Note ON: Time 25920, Note Name: D#4, Velocity: 31
Note ON: Time 25920, Note Name: F3, Velocity: 26
Note OFF: Time 26040, Note Name: D#4
Note ON: Time 26040, Note Name: A#3, Velocity: 32
Note OFF: Time 26160, Note Name: A#3
Note OFF: Time 26160, Note Name: F3
Note ON: Time 26160, Note Name: A#2, Velocity: 31
Note OFF: Time 26400, Note Name: A#2
Note ON: Time 26400, Note Name: D4, Velocity: 29
Note ON: Time 26400, Note Name: F3, Velocity: 23
Note OFF: Time 26520, Note Name: D4
Note ON: Time 26520, Note Name: A#3, Velocity: 30
Note OFF: Time 26640, Note Name: A#3
Note OFF: Time 26640, Note Name: F3
Note ON: Time 26640, Note Name: A#2, Velocity: 29
Note OFF: Time 26880, Note Name: A#2
Note ON: Time 26880, Note Name: D4, Velocity: 29
Note ON: Time 26880, Note Name: F3, Velocity: 24
Note OFF: Time 27000, Note Name: D4
Note ON: Time 27000, Note Name: A#3, Velocity: 30
Note OFF: Time 27120, Note Name: A#3
Note OFF: Time 27120, Note Name: F3
Note ON: Time 27120, Note Name: A#2, Velocity: 29
Note OFF: Time 27360, Note Name: A#2
Note ON: Time 27360, Note Name: C#4, Velocity: 30
Note ON: Time 27360, Note Name: F3, Velocity: 24
Note OFF: Time 27480, Note Name: C#4
Note ON: Time 27480, Note Name: A#3, Velocity: 31
Note OFF: Time 27600, Note Name: A#3
Note OFF: Time 27600, Note Name: F3
Note ON: Time 27600, Note Name: A#2, Velocity: 31
Note OFF: Time 27840, Note Name: A#2
Note ON: Time 27840, Note Name: C#4, Velocity: 29
Note ON: Time 27840, Note Name: F3, Velocity: 24
Note OFF: Time 27960, Note Name: C#4
Note ON: Time 27960, Note Name: A#3, Velocity: 30
Note OFF: Time 28080, Note Name: A#3
Note OFF: Time 28080, Note Name: F3
Note ON: Time 28080, Note Name: A#2, Velocity: 30
Note OFF: Time 28320, Note Name: A#2
Note ON: Time 28320, Note Name: C#4, Velocity: 31
Note ON: Time 28320, Note Name: D#3, Velocity: 25
Note OFF: Time 28440, Note Name: C#4
Note ON: Time 28440, Note Name: A#3, Velocity: 32
Note OFF: Time 28560, Note Name: A#3
Note OFF: Time 28560, Note Name: D#3
Note ON: Time 28560, Note Name: D#2, Velocity: 31
Note OFF: Time 28800, Note Name: D#2
Note ON: Time 28800, Note Name: C#4, Velocity: 31
Note ON: Time 28800, Note Name: D#3, Velocity: 26
Note OFF: Time 28920, Note Name: C#4
Note ON: Time 28920, Note Name: G#3, Velocity: 32
Note OFF: Time 29040, Note Name: G#3
Note OFF: Time 29040, Note Name: D#3
Note ON: Time 29040, Note Name: G#2, Velocity: 31
Note OFF: Time 29280, Note Name: G#2
Note ON: Time 29280, Note Name: C4, Velocity: 29
Note ON: Time 29280, Note Name: D#3, Velocity: 23
Note OFF: Time 29400, Note Name: C4
Note ON: Time 29400, Note Name: G#3, Velocity: 30
Note OFF: Time 29520, Note Name: G#3
Note OFF: Time 29520, Note Name: D#3
Note ON: Time 29520, Note Name: G#2, Velocity: 29
Note OFF: Time 29760, Note Name: G#2
Note ON: Time 29760, Note Name: C4, Velocity: 29
Note ON: Time 29760, Note Name: D#3, Velocity: 24
Note OFF: Time 29880, Note Name: C4
Note ON: Time 29880, Note Name: G#3, Velocity: 30
Note OFF: Time 30000, Note Name: G#3
Note OFF: Time 30000, Note Name: D#3
Note ON: Time 30000, Note Name: G#2, Velocity: 29
Note OFF: Time 30240, Note Name: G#2
Note ON: Time 30240, Note Name: C4, Velocity: 30
Note ON: Time 30240, Note Name: D#3, Velocity: 24
Note OFF: Time 30360, Note Name: C4
Note ON: Time 30360, Note Name: G#3, Velocity: 31
Note OFF: Time 30480, Note Name: G#3
Note OFF: Time 30480, Note Name: D#3
Note ON: Time 30480, Note Name: G2, Velocity: 31
Note OFF: Time 30720, Note Name: G2
Note ON: Time 30720, Note Name: C4, Velocity: 29
Note ON: Time 30720, Note Name: D#3, Velocity: 24
Note OFF: Time 30840, Note Name: C4
Note ON: Time 30840, Note Name: G#3, Velocity: 30
Note OFF: Time 30960, Note Name: G#3
Note OFF: Time 30960, Note Name: D#3
Note ON: Time 30960, Note Name: G2, Velocity: 30
Note OFF: Time 31200, Note Name: G2
Note ON: Time 31200, Note Name: C4, Velocity: 31
Note ON: Time 31200, Note Name: D#3, Velocity: 25
Note OFF: Time 31320, Note Name: C4
Note ON: Time 31320, Note Name: G#3, Velocity: 32
Note OFF: Time 31440, Note Name: G#3
Note OFF: Time 31440, Note Name: D#3
Note ON: Time 31440, Note Name: G2, Velocity: 31
Note OFF: Time 31680, Note Name: G2
Note ON: Time 31680, Note Name: C4, Velocity: 27
Note ON: Time 31680, Note Name: D3, Velocity: 23
Note OFF: Time 31800, Note Name: C4
Note ON: Time 31800, Note Name: G3, Velocity: 31
Note OFF: Time 31920, Note Name: G3
Note OFF: Time 31920, Note Name: D3
Note ON: Time 31920, Note Name: G2, Velocity: 30
Note OFF: Time 32160, Note Name: G2
Note ON: Time 32160, Note Name: B3, Velocity: 29
Note ON: Time 32160, Note Name: D3, Velocity: 23
Note OFF: Time 32280, Note Name: B3
Note ON: Time 32280, Note Name: G3, Velocity: 30
Note OFF: Time 32400, Note Name: G3
Note OFF: Time 32400, Note Name: D3
Note ON: Time 32400, Note Name: G2, Velocity: 29
Note OFF: Time 32640, Note Name: G2
Note ON: Time 32640, Note Name: B3, Velocity: 29
Note ON: Time 32640, Note Name: D3, Velocity: 24
Note OFF: Time 32760, Note Name: B3
Note ON: Time 32760, Note Name: G3, Velocity: 30
Note OFF: Time 32880, Note Name: G3
Note OFF: Time 32880, Note Name: D3
Note ON: Time 32880, Note Name: G2, Velocity: 29
Note OFF: Time 33120, Note Name: G2
Note ON: Time 33120, Note Name: C4, Velocity: 25
Note ON: Time 33120, Note Name: D#3, Velocity: 18
Note OFF: Time 33240, Note Name: C4
Note ON: Time 33240, Note Name: G#3, Velocity: 26
Note OFF: Time 33360, Note Name: G#3
Note OFF: Time 33360, Note Name: D#3
Note ON: Time 33360, Note Name: G2, Velocity: 26
Note OFF: Time 33600, Note Name: G2
Note ON: Time 33600, Note Name: C5, Velocity: 28
Note ON: Time 33600, Note Name: D#4, Velocity: 22
Note OFF: Time 33720, Note Name: C5
Note ON: Time 33720, Note Name: G#4, Velocity: 29
Note OFF: Time 33840, Note Name: G#4
Note OFF: Time 33840, Note Name: D#4
Note ON: Time 33840, Note Name: G3, Velocity: 28
Note OFF: Time 34080, Note Name: G3
Note ON: Time 34080, Note Name: C5, Velocity: 29
Note ON: Time 34080, Note Name: D#4, Velocity: 23
Note OFF: Time 34200, Note Name: C5
Note ON: Time 34200, Note Name: G#4, Velocity: 30
Note OFF: Time 34320, Note Name: G#4
Note OFF: Time 34320, Note Name: D#4
Note ON: Time 34320, Note Name: G3, Velocity: 29
Note OFF: Time 34560, Note Name: G3
Note ON: Time 34560, Note Name: C5, Velocity: 28
Note ON: Time 34560, Note Name: D4, Velocity: 23
Note OFF: Time 34680, Note Name: C5
Note ON: Time 34680, Note Name: G4, Velocity: 29
Note OFF: Time 34800, Note Name: G4
Note OFF: Time 34800, Note Name: D4
Note ON: Time 34800, Note Name: G3, Velocity: 28
Note OFF: Time 35040, Note Name: G3
Note ON: Time 35040, Note Name: B4, Velocity: 28
Note ON: Time 35040, Note Name: D4, Velocity: 21
Note OFF: Time 35160, Note Name: B4
Note ON: Time 35160, Note Name: G4, Velocity: 29
Note OFF: Time 35280, Note Name: G4
Note OFF: Time 35280, Note Name: D4
Note ON: Time 35280, Note Name: G3, Velocity: 27
Note OFF: Time 35520, Note Name: G3
Note ON: Time 35520, Note Name: B4, Velocity: 28
Note ON: Time 35520, Note Name: D4, Velocity: 22
Note OFF: Time 35640, Note Name: B4
Note ON: Time 35640, Note Name: G4, Velocity: 29
Note OFF: Time 35760, Note Name: G4
Note OFF: Time 35760, Note Name: D4
Note ON: Time 35760, Note Name: G3, Velocity: 27
Note OFF: Time 36000, Note Name: G3
Note ON: Time 36000, Note Name: B4, Velocity: 27
Note ON: Time 36000, Note Name: D4, Velocity: 19
Note OFF: Time 36120, Note Name: B4
Note ON: Time 36120, Note Name: F#4, Velocity: 28
Note OFF: Time 36240, Note Name: F#4
Note OFF: Time 36240, Note Name: D4
Note ON: Time 36240, Note Name: F#3, Velocity: 27
Note OFF: Time 36480, Note Name: F#3
Note ON: Time 36480, Note Name: B3, Velocity: 25
Note ON: Time 36480, Note Name: D3, Velocity: 18
Note OFF: Time 36600, Note Name: B3
Note ON: Time 36600, Note Name: F#3, Velocity: 26
Note OFF: Time 36720, Note Name: F#3
Note OFF: Time 36720, Note Name: D3
Note ON: Time 36720, Note Name: F#2, Velocity: 25
Note OFF: Time 36960, Note Name: F#2
Note ON: Time 36960, Note Name: C#4, Velocity: 26
Note ON: Time 36960, Note Name: D3, Velocity: 19
Note OFF: Time 37080, Note Name: C#4
Note ON: Time 37080, Note Name: F#3, Velocity: 27
Note OFF: Time 37200, Note Name: F#3
Note OFF: Time 37200, Note Name: D3
Note ON: Time 37200, Note Name: F#2, Velocity: 26
Note OFF: Time 37440, Note Name: F#2
Note ON: Time 37440, Note Name: B3, Velocity: 25
Note ON: Time 37440, Note Name: C#3, Velocity: 19
Note OFF: Time 37560, Note Name: B3
Note ON: Time 37560, Note Name: F#3, Velocity: 26
Note OFF: Time 37680, Note Name: F#3
Note OFF: Time 37680, Note Name: C#3
Note ON: Time 37680, Note Name: F#2, Velocity: 25
Note OFF: Time 37920, Note Name: F#2
Note ON: Time 37920, Note Name: A#3, Velocity: 25
Note ON: Time 37920, Note Name: C#3, Velocity: 18
Note OFF: Time 38040, Note Name: A#3
Note ON: Time 38040, Note Name: F#3, Velocity: 26
Note OFF: Time 38160, Note Name: F#3
Note OFF: Time 38160, Note Name: C#3
Note ON: Time 38160, Note Name: F#2, Velocity: 24
Note OFF: Time 38400, Note Name: F#2
Note ON: Time 38400, Note Name: A#3, Velocity: 25
Note ON: Time 38400, Note Name: C#3, Velocity: 18
Note OFF: Time 38520, Note Name: A#3
Note ON: Time 38520, Note Name: F#3, Velocity: 26
Note OFF: Time 38640, Note Name: F#3
Note OFF: Time 38640, Note Name: C#3
Note ON: Time 38640, Note Name: F#2, Velocity: 24
Note OFF: Time 38880, Note Name: F#2
Note ON: Time 38880, Note Name: G3, Velocity: 29
Note ON: Time 38880, Note Name: D3, Velocity: 23
Note OFF: Time 39000, Note Name: G3
Note ON: Time 39000, Note Name: F#3, Velocity: 30
Note OFF: Time 39120, Note Name: F#3
Note OFF: Time 39120, Note Name: D3
Note ON: Time 39120, Note Name: F#2, Velocity: 30
Note OFF: Time 39360, Note Name: F#2
Note ON: Time 39360, Note Name: G3, Velocity: 29
Note ON: Time 39360, Note Name: D3, Velocity: 23
Note OFF: Time 39480, Note Name: G3
Note ON: Time 39480, Note Name: F#3, Velocity: 31
Note OFF: Time 39600, Note Name: F#3
Note OFF: Time 39600, Note Name: D3
Note ON: Time 39600, Note Name: F#2, Velocity: 29
Note OFF: Time 39840, Note Name: F#2
Note ON: Time 39840, Note Name: G3, Velocity: 31
Note ON: Time 39840, Note Name: E3, Velocity: 25
Note OFF: Time 39960, Note Name: G3
Note ON: Time 39960, Note Name: F#3, Velocity: 32
Note OFF: Time 40080, Note Name: F#3
Note OFF: Time 40080, Note Name: E3
Note ON: Time 40080, Note Name: F#2, Velocity: 31
Note OFF: Time 40320, Note Name: F#2
Note ON: Time 40320, Note Name: G3, Velocity: 31
Note ON: Time 40320, Note Name: D3, Velocity: 25
Note OFF: Time 40440, Note Name: G3
Note ON: Time 40440, Note Name: F#3, Velocity: 32
Note OFF: Time 40560, Note Name: F#3
Note OFF: Time 40560, Note Name: D3
Note ON: Time 40560, Note Name: F#2, Velocity: 29
Note OFF: Time 40800, Note Name: F#2
Note ON: Time 40800, Note Name: G3, Velocity: 29
Note ON: Time 40800, Note Name: C#3, Velocity: 22
Note OFF: Time 40920, Note Name: G3
Note ON: Time 40920, Note Name: F#3, Velocity: 30
Note OFF: Time 41040, Note Name: F#3
Note OFF: Time 41040, Note Name: C#3
Note ON: Time 41040, Note Name: F#2, Velocity: 28
Note OFF: Time 41280, Note Name: F#2
Note ON: Time 41280, Note Name: F#3, Velocity: 29
Note ON: Time 41280, Note Name: C#3, Velocity: 23
Note OFF: Time 41400, Note Name: F#3
Note ON: Time 41400, Note Name: E3, Velocity: 30
Note OFF: Time 41520, Note Name: E3
Note OFF: Time 41520, Note Name: C#3
Note ON: Time 41520, Note Name: F#2, Velocity: 27
Note OFF: Time 41760, Note Name: F#2
Note ON: Time 41760, Note Name: D#3, Velocity: 42
Note OFF: Time 41880, Note Name: D#3
Note ON: Time 41880, Note Name: F#2, Velocity: 38
Note OFF: Time 42000, Note Name: F#2
Note ON: Time 42000, Note Name: B1, Velocity: 34
Note OFF: Time 42240, Note Name: B1
Note ON: Time 42240, Note Name: D#3, Velocity: 39
Note OFF: Time 42360, Note Name: D#3
Note ON: Time 42360, Note Name: F#2, Velocity: 36
Note OFF: Time 42480, Note Name: F#2
Note ON: Time 42480, Note Name: B1, Velocity: 31
Note OFF: Time 42720, Note Name: B1
Note ON: Time 42720, Note Name: D#3, Velocity: 39
Note OFF: Time 42840, Note Name: D#3
Note ON: Time 42840, Note Name: F#2, Velocity: 36
Note OFF: Time 42960, Note Name: F#2
Note ON: Time 42960, Note Name: B1, Velocity: 30
Note OFF: Time 43200, Note Name: B1
Note ON: Time 43200, Note Name: E3, Velocity: 42
Note OFF: Time 43320, Note Name: E3
Note ON: Time 43320, Note Name: F#2, Velocity: 38
Note OFF: Time 43440, Note Name: F#2
Note ON: Time 43440, Note Name: B1, Velocity: 32
Note OFF: Time 43680, Note Name: B1
Note ON: Time 43680, Note Name: E3, Velocity: 40
Note OFF: Time 43800, Note Name: E3
Note ON: Time 43800, Note Name: F#2, Velocity: 37
Note OFF: Time 43920, Note Name: F#2
Note ON: Time 43920, Note Name: B1, Velocity: 31
Note OFF: Time 44160, Note Name: B1
Note ON: Time 44160, Note Name: E3, Velocity: 39
Note OFF: Time 44280, Note Name: E3
Note ON: Time 44280, Note Name: F#2, Velocity: 36
Note OFF: Time 44400, Note Name: F#2
Note ON: Time 44400, Note Name: B1, Velocity: 30
Note OFF: Time 44640, Note Name: B1
Note ON: Time 44640, Note Name: D#3, Velocity: 43
Note OFF: Time 44760, Note Name: D#3
Note ON: Time 44760, Note Name: F#2, Velocity: 39
Note OFF: Time 44880, Note Name: F#2
Note ON: Time 44880, Note Name: B1, Velocity: 35
Note OFF: Time 45120, Note Name: B1
Note ON: Time 45120, Note Name: D#3, Velocity: 40
Note OFF: Time 45240, Note Name: D#3
Note ON: Time 45240, Note Name: F#2, Velocity: 37
Note OFF: Time 45360, Note Name: F#2
Note ON: Time 45360, Note Name: B1, Velocity: 31
Note OFF: Time 45600, Note Name: B1
Note ON: Time 45600, Note Name: F3, Velocity: 40
Note OFF: Time 45720, Note Name: F3
Note ON: Time 45720, Note Name: B2, Velocity: 37
Note OFF: Time 45840, Note Name: B2
Note ON: Time 45840, Note Name: C#2, Velocity: 32
Note OFF: Time 46080, Note Name: C#2
Note ON: Time 46080, Note Name: A#3, Velocity: 44
Note ON: Time 46080, Note Name: C#3, Velocity: 36
Note OFF: Time 46200, Note Name: A#3
Note ON: Time 46200, Note Name: E3, Velocity: 40
Note OFF: Time 46320, Note Name: E3
Note OFF: Time 46320, Note Name: C#3
Note ON: Time 46320, Note Name: F#2, Velocity: 35
Note OFF: Time 46560, Note Name: F#2
Note ON: Time 46560, Note Name: E4, Velocity: 42
Note ON: Time 46560, Note Name: F#3, Velocity: 34
Note OFF: Time 46680, Note Name: E4
Note ON: Time 46680, Note Name: A#3, Velocity: 38
Note OFF: Time 46800, Note Name: A#3
Note OFF: Time 46800, Note Name: F#3
Note ON: Time 46800, Note Name: C#3, Velocity: 30
Note OFF: Time 47040, Note Name: C#3
Note ON: Time 47040, Note Name: A#4, Velocity: 42
Note ON: Time 47040, Note Name: C#4, Velocity: 34
Note OFF: Time 47160, Note Name: A#4
Note ON: Time 47160, Note Name: E4, Velocity: 38
Note OFF: Time 47280, Note Name: E4
Note OFF: Time 47280, Note Name: C#4
Note ON: Time 47280, Note Name: F#3, Velocity: 32
Note OFF: Time 47490, Note Name: F#3
Note ON: Time 47520, Note Name: D#3, Velocity: 42
Note OFF: Time 47640, Note Name: D#3
Note ON: Time 47640, Note Name: F#2, Velocity: 38
Note OFF: Time 47760, Note Name: F#2
Note ON: Time 47760, Note Name: B1, Velocity: 34
Note OFF: Time 48000, Note Name: B1
Note ON: Time 48000, Note Name: D#3, Velocity: 39
Note OFF: Time 48120, Note Name: D#3
Note ON: Time 48120, Note Name: F#2, Velocity: 36
Note OFF: Time 48240, Note Name: F#2
Note ON: Time 48240, Note Name: B1, Velocity: 31
Note OFF: Time 48480, Note Name: B1
Note ON: Time 48480, Note Name: D#3, Velocity: 39
Note OFF: Time 48600, Note Name: D#3
Note ON: Time 48600, Note Name: F#2, Velocity: 36
Note OFF: Time 48720, Note Name: F#2
Note ON: Time 48720, Note Name: B1, Velocity: 30
Note OFF: Time 48960, Note Name: B1
Note ON: Time 48960, Note Name: E3, Velocity: 42
Note OFF: Time 49080, Note Name: E3
Note ON: Time 49080, Note Name: F#2, Velocity: 38
Note OFF: Time 49200, Note Name: F#2
Note ON: Time 49200, Note Name: B1, Velocity: 32
Note OFF: Time 49440, Note Name: B1
Note ON: Time 49440, Note Name: E3, Velocity: 40
Note OFF: Time 49560, Note Name: E3
Note ON: Time 49560, Note Name: F#2, Velocity: 37
Note OFF: Time 49680, Note Name: F#2
Note ON: Time 49680, Note Name: B1, Velocity: 31
Note OFF: Time 49920, Note Name: B1
Note ON: Time 49920, Note Name: E3, Velocity: 39
Note OFF: Time 50040, Note Name: E3
Note ON: Time 50040, Note Name: F#2, Velocity: 36
Note OFF: Time 50160, Note Name: F#2
Note ON: Time 50160, Note Name: B1, Velocity: 30
Note OFF: Time 50400, Note Name: B1
Note ON: Time 50400, Note Name: D#3, Velocity: 43
Note OFF: Time 50520, Note Name: D#3
Note ON: Time 50520, Note Name: F#2, Velocity: 39
Note OFF: Time 50640, Note Name: F#2
Note ON: Time 50640, Note Name: B1, Velocity: 35
Note OFF: Time 50880, Note Name: B1
Note ON: Time 50880, Note Name: F3, Velocity: 40
Note OFF: Time 51000, Note Name: F3
Note ON: Time 51000, Note Name: B2, Velocity: 37
Note OFF: Time 51120, Note Name: B2
Note ON: Time 51120, Note Name: C#2, Velocity: 31
Note OFF: Time 51360, Note Name: C#2
Note ON: Time 51360, Note Name: A#3, Velocity: 40
Note OFF: Time 51480, Note Name: A#3
Note ON: Time 51480, Note Name: E3, Velocity: 37
Note OFF: Time 51600, Note Name: E3
Note ON: Time 51600, Note Name: F#2, Velocity: 32
Note OFF: Time 51840, Note Name: F#2
Note ON: Time 51840, Note Name: D#3, Velocity: 44
Note OFF: Time 51960, Note Name: D#3
Note ON: Time 51960, Note Name: F#2, Velocity: 40
Note OFF: Time 52080, Note Name: F#2
Note ON: Time 52080, Note Name: B1, Velocity: 35
Note OFF: Time 52320, Note Name: B1
Note ON: Time 52320, Note Name: D#4, Velocity: 42
Note OFF: Time 52440, Note Name: D#4
Note ON: Time 52440, Note Name: F#3, Velocity: 38
Note OFF: Time 52560, Note Name: F#3
Note ON: Time 52560, Note Name: B2, Velocity: 30
Note OFF: Time 52800, Note Name: B2
Note ON: Time 52800, Note Name: D#5, Velocity: 42
Note OFF: Time 52920, Note Name: D#5
Note ON: Time 52920, Note Name: F#4, Velocity: 38
Note OFF: Time 53040, Note Name: F#4
Note ON: Time 53040, Note Name: B3, Velocity: 32
Note OFF: Time 53250, Note Name: B3
Note ON: Time 53280, Note Name: A#3, Velocity: 33
Note OFF: Time 53400, Note Name: A#3
Note ON: Time 53400, Note Name: C#3, Velocity: 34
Note OFF: Time 53520, Note Name: C#3
Note ON: Time 53520, Note Name: F#2, Velocity: 31
Note OFF: Time 53760, Note Name: F#2
Note ON: Time 53760, Note Name: A3, Velocity: 32
Note OFF: Time 53880, Note Name: A3
Note ON: Time 53880, Note Name: C#3, Velocity: 33
Note OFF: Time 54000, Note Name: C#3
Note ON: Time 54000, Note Name: F#2, Velocity: 29
Note OFF: Time 54240, Note Name: F#2
Note ON: Time 54240, Note Name: A3, Velocity: 33
Note OFF: Time 54360, Note Name: A3
Note ON: Time 54360, Note Name: B2, Velocity: 34
Note OFF: Time 54480, Note Name: B2
Note ON: Time 54480, Note Name: F#2, Velocity: 29
Note OFF: Time 54720, Note Name: F#2
Note ON: Time 54720, Note Name: A3, Velocity: 35
Note OFF: Time 54840, Note Name: A3
Note ON: Time 54840, Note Name: B2, Velocity: 36
Note OFF: Time 54960, Note Name: B2
Note ON: Time 54960, Note Name: E2, Velocity: 29
Note OFF: Time 55200, Note Name: E2
Note ON: Time 55200, Note Name: G#3, Velocity: 31
Note OFF: Time 55320, Note Name: G#3
Note ON: Time 55320, Note Name: B2, Velocity: 32
Note OFF: Time 55440, Note Name: B2
Note ON: Time 55440, Note Name: E2, Velocity: 26
Note OFF: Time 55680, Note Name: E2
Note ON: Time 55680, Note Name: G#3, Velocity: 30
Note OFF: Time 55800, Note Name: G#3
Note ON: Time 55800, Note Name: B2, Velocity: 31
Note OFF: Time 55920, Note Name: B2
Note ON: Time 55920, Note Name: E2, Velocity: 25
Note OFF: Time 56160, Note Name: E2
Note ON: Time 56160, Note Name: G3, Velocity: 33
Note OFF: Time 56280, Note Name: G3
Note ON: Time 56280, Note Name: B2, Velocity: 34
Note OFF: Time 56400, Note Name: B2
Note ON: Time 56400, Note Name: E2, Velocity: 31
Note OFF: Time 56640, Note Name: E2
Note ON: Time 56640, Note Name: G3, Velocity: 32
Note OFF: Time 56760, Note Name: G3
Note ON: Time 56760, Note Name: B2, Velocity: 33
Note OFF: Time 56880, Note Name: B2
Note ON: Time 56880, Note Name: E2, Velocity: 29
Note OFF: Time 57120, Note Name: E2
Note ON: Time 57120, Note Name: G3, Velocity: 33
Note OFF: Time 57240, Note Name: G3
Note ON: Time 57240, Note Name: A2, Velocity: 34
Note OFF: Time 57360, Note Name: A2
Note ON: Time 57360, Note Name: E2, Velocity: 29
Note OFF: Time 57600, Note Name: E2
Note ON: Time 57600, Note Name: G3, Velocity: 35
Note OFF: Time 57720, Note Name: G3
Note ON: Time 57720, Note Name: A2, Velocity: 36
Note OFF: Time 57840, Note Name: A2
Note ON: Time 57840, Note Name: D2, Velocity: 29
Note OFF: Time 58080, Note Name: D2
Note ON: Time 58080, Note Name: F#3, Velocity: 31
Note OFF: Time 58200, Note Name: F#3
Note ON: Time 58200, Note Name: A2, Velocity: 32
Note OFF: Time 58320, Note Name: A2
Note ON: Time 58320, Note Name: D2, Velocity: 26
Note OFF: Time 58560, Note Name: D2
Note ON: Time 58560, Note Name: F#3, Velocity: 30
Note OFF: Time 58680, Note Name: F#3
Note ON: Time 58680, Note Name: A2, Velocity: 31
Note OFF: Time 58800, Note Name: A2
Note ON: Time 58800, Note Name: D2, Velocity: 25
Note OFF: Time 59040, Note Name: D2
Note ON: Time 59040, Note Name: F#3, Velocity: 31
Note OFF: Time 59160, Note Name: F#3
Note ON: Time 59160, Note Name: A2, Velocity: 32
Note OFF: Time 59280, Note Name: A2
Note ON: Time 59280, Note Name: C#2, Velocity: 29
Note OFF: Time 59520, Note Name: C#2
Note ON: Time 59520, Note Name: A3, Velocity: 24
Note ON: Time 59520, Note Name: F#4, Velocity: 30
Note OFF: Time 59640, Note Name: F#4
Note ON: Time 59640, Note Name: C#4, Velocity: 31
Note OFF: Time 59760, Note Name: C#4
Note OFF: Time 59760, Note Name: A3
Note ON: Time 59760, Note Name: C#3, Velocity: 27
Note OFF: Time 60000, Note Name: C#3
Note ON: Time 60000, Note Name: A3, Velocity: 24
Note ON: Time 60000, Note Name: G#4, Velocity: 31
Note OFF: Time 60120, Note Name: G#4
Note ON: Time 60120, Note Name: C#4, Velocity: 32
Note OFF: Time 60240, Note Name: C#4
Note OFF: Time 60240, Note Name: A3
Note ON: Time 60240, Note Name: C#3, Velocity: 27
Note OFF: Time 60480, Note Name: C#3
Note ON: Time 60480, Note Name: G#3, Velocity: 24
Note ON: Time 60480, Note Name: F#4, Velocity: 35
Note OFF: Time 60600, Note Name: F#4
Note ON: Time 60600, Note Name: C#4, Velocity: 36
Note OFF: Time 60720, Note Name: C#4
Note OFF: Time 60720, Note Name: G#3
Note ON: Time 60720, Note Name: C#3, Velocity: 29
Note OFF: Time 60960, Note Name: C#3
Note ON: Time 60960, Note Name: G#3, Velocity: 24
Note ON: Time 60960, Note Name: F4, Velocity: 31
Note OFF: Time 61080, Note Name: F4
Note ON: Time 61080, Note Name: C#4, Velocity: 32
Note OFF: Time 61200, Note Name: C#4
Note OFF: Time 61200, Note Name: G#3
Note ON: Time 61200, Note Name: C#3, Velocity: 26
Note OFF: Time 61440, Note Name: C#3
Note ON: Time 61440, Note Name: G#3, Velocity: 24
Note ON: Time 61440, Note Name: F4, Velocity: 30
Note OFF: Time 61560, Note Name: F4
Note ON: Time 61560, Note Name: C#4, Velocity: 31
Note OFF: Time 61680, Note Name: C#4
Note OFF: Time 61680, Note Name: G#3
Note ON: Time 61680, Note Name: C#3, Velocity: 25
Note OFF: Time 61920, Note Name: C#3
Note ON: Time 61920, Note Name: A3, Velocity: 19
Note ON: Time 61920, Note Name: F#4, Velocity: 26
Note OFF: Time 62040, Note Name: F#4
Note ON: Time 62040, Note Name: C#4, Velocity: 27
Note OFF: Time 62160, Note Name: C#4
Note OFF: Time 62160, Note Name: A3
Note ON: Time 62160, Note Name: C#3, Velocity: 25
Note OFF: Time 62400, Note Name: C#3
Note ON: Time 62400, Note Name: A4, Velocity: 23
Note ON: Time 62400, Note Name: F#5, Velocity: 29
Note OFF: Time 62520, Note Name: F#5
Note ON: Time 62520, Note Name: C#5, Velocity: 26
Note OFF: Time 62640, Note Name: C#5
Note OFF: Time 62640, Note Name: A4
Note ON: Time 62640, Note Name: C#4, Velocity: 23
Note OFF: Time 62880, Note Name: C#4
Note ON: Time 62880, Note Name: A4, Velocity: 23
Note ON: Time 62880, Note Name: G#5, Velocity: 29
Note OFF: Time 63000, Note Name: G#5
Note ON: Time 63000, Note Name: C#5, Velocity: 27
Note OFF: Time 63120, Note Name: C#5
Note OFF: Time 63120, Note Name: A4
Note ON: Time 63120, Note Name: C#4, Velocity: 23
Note OFF: Time 63360, Note Name: C#4
Note ON: Time 63360, Note Name: G#4, Velocity: 23
Note ON: Time 63360, Note Name: F#5, Velocity: 33
Note OFF: Time 63480, Note Name: F#5
Note ON: Time 63480, Note Name: C#5, Velocity: 30
Note OFF: Time 63600, Note Name: C#5
Note OFF: Time 63600, Note Name: G#4
Note ON: Time 63600, Note Name: C#4, Velocity: 25
Note OFF: Time 63840, Note Name: C#4
Note ON: Time 63840, Note Name: G#4, Velocity: 23
Note ON: Time 63840, Note Name: F5, Velocity: 29
Note OFF: Time 63960, Note Name: F5
Note ON: Time 63960, Note Name: C#5, Velocity: 27
Note OFF: Time 64080, Note Name: C#5
Note OFF: Time 64080, Note Name: G#4
Note ON: Time 64080, Note Name: C#4, Velocity: 22
Note OFF: Time 64320, Note Name: C#4
Note ON: Time 64320, Note Name: G#4, Velocity: 23
Note ON: Time 64320, Note Name: F5, Velocity: 29
Note OFF: Time 64440, Note Name: F5
Note ON: Time 64440, Note Name: C#5, Velocity: 26
Note OFF: Time 64560, Note Name: C#5
Note OFF: Time 64560, Note Name: G#4
Note ON: Time 64560, Note Name: C#4, Velocity: 21
Note OFF: Time 64800, Note Name: C#4
Note ON: Time 64800, Note Name: G#4, Velocity: 23
Note ON: Time 64800, Note Name: F5, Velocity: 29
Note OFF: Time 64920, Note Name: F5
Note ON: Time 64920, Note Name: C5, Velocity: 27
Note OFF: Time 65040, Note Name: C5
Note OFF: Time 65040, Note Name: G#4
Note ON: Time 65040, Note Name: C4, Velocity: 25
Note OFF: Time 65280, Note Name: C4
Note ON: Time 65280, Note Name: G#3, Velocity: 22
Note ON: Time 65280, Note Name: F4, Velocity: 28
Note OFF: Time 65400, Note Name: F4
Note ON: Time 65400, Note Name: C4, Velocity: 25
Note OFF: Time 65520, Note Name: C4
Note OFF: Time 65520, Note Name: G#3
Note ON: Time 65520, Note Name: C3, Velocity: 22
Note OFF: Time 65760, Note Name: C3
Note ON: Time 65760, Note Name: G#3, Velocity: 22
Note ON: Time 65760, Note Name: G4, Velocity: 28
Note OFF: Time 65880, Note Name: G4
Note ON: Time 65880, Note Name: C4, Velocity: 26
Note OFF: Time 66000, Note Name: C4
Note OFF: Time 66000, Note Name: G#3
Note ON: Time 66000, Note Name: C3, Velocity: 22
Note OFF: Time 66240, Note Name: C3
Note ON: Time 66240, Note Name: G3, Velocity: 22
Note ON: Time 66240, Note Name: F4, Velocity: 32
Note OFF: Time 66360, Note Name: F4
Note ON: Time 66360, Note Name: C4, Velocity: 28
Note OFF: Time 66480, Note Name: C4
Note OFF: Time 66480, Note Name: G3
Note ON: Time 66480, Note Name: C3, Velocity: 24
Note OFF: Time 66720, Note Name: C3
Note ON: Time 66720, Note Name: G3, Velocity: 21
Note ON: Time 66720, Note Name: E4, Velocity: 27
Note OFF: Time 66840, Note Name: E4
Note ON: Time 66840, Note Name: C4, Velocity: 25
Note OFF: Time 66960, Note Name: C4
Note OFF: Time 66960, Note Name: G3
Note ON: Time 66960, Note Name: C3, Velocity: 19
Note OFF: Time 67200, Note Name: C3
Note ON: Time 67200, Note Name: G3, Velocity: 21
Note ON: Time 67200, Note Name: E4, Velocity: 27
Note OFF: Time 67320, Note Name: E4
Note ON: Time 67320, Note Name: C4, Velocity: 24
Note OFF: Time 67440, Note Name: C4
Note OFF: Time 67440, Note Name: G3
Note ON: Time 67440, Note Name: C3, Velocity: 18
Note OFF: Time 67680, Note Name: C3
Note ON: Time 67680, Note Name: G3, Velocity: 21
Note ON: Time 67680, Note Name: D4, Velocity: 27
Note OFF: Time 67800, Note Name: D4
Note ON: Time 67800, Note Name: C4, Velocity: 25
Note OFF: Time 67920, Note Name: C4
Note OFF: Time 67920, Note Name: G3
Note ON: Time 67920, Note Name: C3, Velocity: 23
Note OFF: Time 68160, Note Name: C3
Note ON: Time 68160, Note Name: G3, Velocity: 21
Note ON: Time 68160, Note Name: D4, Velocity: 26
Note OFF: Time 68280, Note Name: D4
Note ON: Time 68280, Note Name: C4, Velocity: 23
Note OFF: Time 68400, Note Name: C4
Note OFF: Time 68400, Note Name: G3
Note ON: Time 68400, Note Name: C3, Velocity: 21
Note OFF: Time 68640, Note Name: C3
Note ON: Time 68640, Note Name: G3, Velocity: 19
Note ON: Time 68640, Note Name: E4, Velocity: 26
Note OFF: Time 68760, Note Name: E4
Note ON: Time 68760, Note Name: C4, Velocity: 24
Note OFF: Time 68880, Note Name: C4
Note OFF: Time 68880, Note Name: G3
Note ON: Time 68880, Note Name: C3, Velocity: 19
Note OFF: Time 69120, Note Name: C3
Note ON: Time 69120, Note Name: G3, Velocity: 19
Note ON: Time 69120, Note Name: D4, Velocity: 29
Note OFF: Time 69240, Note Name: D4
Note ON: Time 69240, Note Name: C4, Velocity: 26
Note OFF: Time 69360, Note Name: C4
Note OFF: Time 69360, Note Name: G3
Note ON: Time 69360, Note Name: C3, Velocity: 22
Note OFF: Time 69600, Note Name: C3
Note ON: Time 69600, Note Name: G3, Velocity: 19
Note ON: Time 69600, Note Name: D4, Velocity: 25
Note OFF: Time 69720, Note Name: D4
Note ON: Time 69720, Note Name: C4, Velocity: 23
Note OFF: Time 69840, Note Name: C4
Note OFF: Time 69840, Note Name: G3
Note ON: Time 69840, Note Name: C3, Velocity: 18
Note OFF: Time 70080, Note Name: C3
Note ON: Time 70080, Note Name: G3, Velocity: 19
Note ON: Time 70080, Note Name: C4, Velocity: 25
Note OFF: Time 70200, Note Name: C4
Note ON: Time 70200, Note Name: A#3, Velocity: 22
Note OFF: Time 70320, Note Name: A#3
Note OFF: Time 70320, Note Name: G3
Note ON: Time 70320, Note Name: C3, Velocity: 17
Note OFF: Time 70530, Note Name: C3
Note ON: Time 70560, Note Name: A3, Velocity: 46
Note ON: Time 70560, Note Name: C3, Velocity: 37
Note OFF: Time 70680, Note Name: A3
Note ON: Time 70680, Note Name: F3, Velocity: 42
Note OFF: Time 70800, Note Name: F3
Note OFF: Time 70800, Note Name: C3
Note ON: Time 70800, Note Name: F2, Velocity: 37
Note OFF: Time 70860, Note Name: F2
Note ON: Time 71040, Note Name: A3, Velocity: 44
Note ON: Time 71040, Note Name: C3, Velocity: 34
Note OFF: Time 71160, Note Name: A3
Note ON: Time 71160, Note Name: F3, Velocity: 39
Note OFF: Time 71280, Note Name: F3
Note OFF: Time 71280, Note Name: C3
Note ON: Time 71280, Note Name: F2, Velocity: 34
Note OFF: Time 71340, Note Name: F2
Note ON: Time 71520, Note Name: A3, Velocity: 44
Note ON: Time 71520, Note Name: C3, Velocity: 34
Note OFF: Time 71640, Note Name: A3
Note ON: Time 71640, Note Name: F3, Velocity: 39
Note OFF: Time 71760, Note Name: F3
Note OFF: Time 71760, Note Name: C3
Note ON: Time 71760, Note Name: F2, Velocity: 33
Note OFF: Time 71820, Note Name: F2
Note ON: Time 72000, Note Name: A#3, Velocity: 46
Note ON: Time 72000, Note Name: C3, Velocity: 37
Note OFF: Time 72120, Note Name: A#3
Note ON: Time 72120, Note Name: E3, Velocity: 42
Note OFF: Time 72240, Note Name: E3
Note OFF: Time 72240, Note Name: C3
Note ON: Time 72240, Note Name: F2, Velocity: 35
Note OFF: Time 72300, Note Name: F2
Note ON: Time 72480, Note Name: A#3, Velocity: 44
Note ON: Time 72480, Note Name: C3, Velocity: 34
Note OFF: Time 72600, Note Name: A#3
Note ON: Time 72600, Note Name: E3, Velocity: 39
Note OFF: Time 72720, Note Name: E3
Note OFF: Time 72720, Note Name: C3
Note ON: Time 72720, Note Name: F2, Velocity: 33
Note OFF: Time 72780, Note Name: F2
Note ON: Time 72960, Note Name: A#3, Velocity: 44
Note ON: Time 72960, Note Name: C3, Velocity: 34
Note OFF: Time 73080, Note Name: A#3
Note ON: Time 73080, Note Name: E3, Velocity: 39
Note OFF: Time 73200, Note Name: E3
Note OFF: Time 73200, Note Name: C3
Note ON: Time 73200, Note Name: F2, Velocity: 33
Note OFF: Time 73260, Note Name: F2
Note ON: Time 73440, Note Name: A3, Velocity: 47
Note ON: Time 73440, Note Name: C3, Velocity: 38
Note OFF: Time 73560, Note Name: A3
Note ON: Time 73560, Note Name: F3, Velocity: 44
Note OFF: Time 73680, Note Name: F3
Note OFF: Time 73680, Note Name: C3
Note ON: Time 73680, Note Name: F2, Velocity: 38
Note OFF: Time 73740, Note Name: F2
Note ON: Time 73920, Note Name: A3, Velocity: 45
Note ON: Time 73920, Note Name: D3, Velocity: 35
Note OFF: Time 74040, Note Name: A3
Note ON: Time 74040, Note Name: F3, Velocity: 40
Note OFF: Time 74160, Note Name: F3
Note OFF: Time 74160, Note Name: D3
Note ON: Time 74160, Note Name: F2, Velocity: 34
Note OFF: Time 74220, Note Name: F2
Note ON: Time 74400, Note Name: B3, Velocity: 45
Note ON: Time 74400, Note Name: D3, Velocity: 35
Note OFF: Time 74520, Note Name: B3
Note ON: Time 74520, Note Name: F3, Velocity: 40
Note OFF: Time 74640, Note Name: F3
Note OFF: Time 74640, Note Name: D3
Note ON: Time 74640, Note Name: G2, Velocity: 35
Note OFF: Time 74700, Note Name: G2
Note ON: Time 74880, Note Name: E4, Velocity: 48
Note ON: Time 74880, Note Name: G3, Velocity: 39
Note OFF: Time 75000, Note Name: E4
Note ON: Time 75000, Note Name: A#3, Velocity: 45
Note OFF: Time 75120, Note Name: A#3
Note OFF: Time 75120, Note Name: G3
Note ON: Time 75120, Note Name: C3, Velocity: 38
Note OFF: Time 75180, Note Name: C3
Note ON: Time 75360, Note Name: A#4, Velocity: 46
Note ON: Time 75360, Note Name: C4, Velocity: 37
Note OFF: Time 75480, Note Name: A#4
Note ON: Time 75480, Note Name: E4, Velocity: 42
Note OFF: Time 75600, Note Name: E4
Note OFF: Time 75600, Note Name: C4
Note ON: Time 75600, Note Name: G3, Velocity: 33
Note OFF: Time 75660, Note Name: G3
Note ON: Time 75840, Note Name: E5, Velocity: 46
Note ON: Time 75840, Note Name: G4, Velocity: 37
Note OFF: Time 75960, Note Name: E5
Note ON: Time 75960, Note Name: A#4, Velocity: 42
Note OFF: Time 76080, Note Name: A#4
Note OFF: Time 76080, Note Name: G4
Note ON: Time 76080, Note Name: C4, Velocity: 35
Note OFF: Time 76140, Note Name: C4
Note ON: Time 76320, Note Name: A3, Velocity: 46
Note ON: Time 76320, Note Name: C3, Velocity: 37
Note OFF: Time 76440, Note Name: A3
Note ON: Time 76440, Note Name: F3, Velocity: 42
Note OFF: Time 76560, Note Name: F3
Note OFF: Time 76560, Note Name: C3
Note ON: Time 76560, Note Name: F2, Velocity: 37
Note OFF: Time 76620, Note Name: F2
Note ON: Time 76800, Note Name: A3, Velocity: 44
Note ON: Time 76800, Note Name: C3, Velocity: 34
Note OFF: Time 76920, Note Name: A3
Note ON: Time 76920, Note Name: F3, Velocity: 39
Note OFF: Time 77040, Note Name: F3
Note OFF: Time 77040, Note Name: C3
Note ON: Time 77040, Note Name: F2, Velocity: 34
Note OFF: Time 77100, Note Name: F2
Note ON: Time 77280, Note Name: A3, Velocity: 44
Note ON: Time 77280, Note Name: C3, Velocity: 34
Note OFF: Time 77400, Note Name: A3
Note ON: Time 77400, Note Name: F3, Velocity: 39
Note OFF: Time 77520, Note Name: F3
Note OFF: Time 77520, Note Name: C3
Note ON: Time 77520, Note Name: F2, Velocity: 33
Note OFF: Time 77580, Note Name: F2
Note ON: Time 77760, Note Name: A#3, Velocity: 46
Note ON: Time 77760, Note Name: C3, Velocity: 37
Note OFF: Time 77880, Note Name: A#3
Note ON: Time 77880, Note Name: E3, Velocity: 42
Note OFF: Time 78000, Note Name: E3
Note OFF: Time 78000, Note Name: C3
Note ON: Time 78000, Note Name: F2, Velocity: 35
Note OFF: Time 78060, Note Name: F2
Note ON: Time 78240, Note Name: A#3, Velocity: 44
Note ON: Time 78240, Note Name: C3, Velocity: 34
Note OFF: Time 78360, Note Name: A#3
Note ON: Time 78360, Note Name: E3, Velocity: 39
Note OFF: Time 78480, Note Name: E3
Note OFF: Time 78480, Note Name: C3
Note ON: Time 78480, Note Name: F2, Velocity: 33
Note OFF: Time 78540, Note Name: F2
Note ON: Time 78720, Note Name: A#3, Velocity: 44
Note ON: Time 78720, Note Name: C3, Velocity: 34
Note OFF: Time 78840, Note Name: A#3
Note ON: Time 78840, Note Name: E3, Velocity: 39
Note OFF: Time 78960, Note Name: E3
Note OFF: Time 78960, Note Name: C3
Note ON: Time 78960, Note Name: F2, Velocity: 33
Note OFF: Time 79020, Note Name: F2
Note ON: Time 79200, Note Name: A3, Velocity: 47
Note ON: Time 79200, Note Name: C3, Velocity: 38
Note OFF: Time 79320, Note Name: A3
Note ON: Time 79320, Note Name: F3, Velocity: 44
Note OFF: Time 79440, Note Name: F3
Note OFF: Time 79440, Note Name: C3
Note ON: Time 79440, Note Name: F2, Velocity: 38
Note OFF: Time 79500, Note Name: F2
Note ON: Time 79680, Note Name: B3, Velocity: 45
Note ON: Time 79680, Note Name: D3, Velocity: 35
Note OFF: Time 79800, Note Name: B3
Note ON: Time 79800, Note Name: F3, Velocity: 40
Note OFF: Time 79920, Note Name: F3
Note OFF: Time 79920, Note Name: D3
Note ON: Time 79920, Note Name: G2, Velocity: 34
Note OFF: Time 79980, Note Name: G2
Note ON: Time 80160, Note Name: E4, Velocity: 45
Note ON: Time 80160, Note Name: G3, Velocity: 35
Note OFF: Time 80280, Note Name: E4
Note ON: Time 80280, Note Name: A#3, Velocity: 40
Note OFF: Time 80400, Note Name: A#3
Note OFF: Time 80400, Note Name: G3
Note ON: Time 80400, Note Name: C3, Velocity: 35
Note OFF: Time 80460, Note Name: C3
Note ON: Time 80640, Note Name: A3, Velocity: 48
Note ON: Time 80640, Note Name: C3, Velocity: 35
Note OFF: Time 80760, Note Name: A3
Note ON: Time 80760, Note Name: F3, Velocity: 45
Note OFF: Time 80880, Note Name: F3
Note OFF: Time 80880, Note Name: C3
Note ON: Time 80880, Note Name: F2, Velocity: 38
Note OFF: Time 80940, Note Name: F2
Note ON: Time 81120, Note Name: A4, Velocity: 46
Note ON: Time 81120, Note Name: C4, Velocity: 33
Note OFF: Time 81240, Note Name: A4
Note ON: Time 81240, Note Name: F4, Velocity: 42
Note OFF: Time 81360, Note Name: F4
Note OFF: Time 81360, Note Name: C4
Note ON: Time 81360, Note Name: F3, Velocity: 33
Note OFF: Time 81420, Note Name: F3
Note ON: Time 81600, Note Name: A#4, Velocity: 37
Note ON: Time 81600, Note Name: C4, Velocity: 30
Note OFF: Time 81720, Note Name: A#4
Note ON: Time 81720, Note Name: E4, Velocity: 37
Note OFF: Time 81840, Note Name: E4
Note OFF: Time 81840, Note Name: C4
Note ON: Time 81840, Note Name: F3, Velocity: 29
Note OFF: Time 81900, Note Name: F3
Note ON: Time 82080, Note Name: A4, Velocity: 43
Note ON: Time 82080, Note Name: C4, Velocity: 32
Note OFF: Time 82200, Note Name: A4
Note ON: Time 82200, Note Name: F4, Velocity: 39
Note OFF: Time 82320, Note Name: F4
Note OFF: Time 82320, Note Name: C4
Note ON: Time 82320, Note Name: F3, Velocity: 34
Note OFF: Time 82380, Note Name: F3
Note ON: Time 82560, Note Name: A5, Velocity: 40
Note ON: Time 82560, Note Name: C5, Velocity: 28
Note OFF: Time 82680, Note Name: A5
Note ON: Time 82680, Note Name: F5, Velocity: 37
Note OFF: Time 82800, Note Name: F5
Note OFF: Time 82800, Note Name: C5
Note ON: Time 82800, Note Name: F4, Velocity: 29
Note OFF: Time 82860, Note Name: F4
Note ON: Time 83040, Note Name: A#5, Velocity: 36
Note ON: Time 83040, Note Name: C5, Velocity: 24
Note OFF: Time 83160, Note Name: A#5
Note ON: Time 83160, Note Name: E5, Velocity: 35
Note OFF: Time 83280, Note Name: E5
Note OFF: Time 83280, Note Name: C5
Note ON: Time 83280, Note Name: F4, Velocity: 27
Note OFF: Time 83340, Note Name: F4
Note ON: Time 83520, Note Name: A5, Velocity: 43
Note ON: Time 83520, Note Name: C5, Velocity: 35
Note OFF: Time 83640, Note Name: A5
Note ON: Time 83640, Note Name: F5, Velocity: 39
Note OFF: Time 83760, Note Name: F5
Note OFF: Time 83760, Note Name: C5
Note ON: Time 83760, Note Name: F4, Velocity: 34
Note OFF: Time 83820, Note Name: F4
Note ON: Time 84000, Note Name: A4, Velocity: 36
Note ON: Time 84000, Note Name: C4, Velocity: 29
Note OFF: Time 84120, Note Name: A4
Note ON: Time 84120, Note Name: F4, Velocity: 33
Note OFF: Time 84240, Note Name: F4
Note OFF: Time 84240, Note Name: C4
Note ON: Time 84240, Note Name: F3, Velocity: 26
Note OFF: Time 84480, Note Name: F3
Note ON: Time 84480, Note Name: A#4, Velocity: 36
Note ON: Time 84480, Note Name: C4, Velocity: 29
Note OFF: Time 84600, Note Name: A#4
Note ON: Time 84600, Note Name: E4, Velocity: 33
Note OFF: Time 84720, Note Name: E4
Note OFF: Time 84720, Note Name: C4
Note ON: Time 84720, Note Name: F3, Velocity: 26
Note OFF: Time 84960, Note Name: F3
Note ON: Time 84960, Note Name: A4, Velocity: 37
Note ON: Time 84960, Note Name: C4, Velocity: 31
Note OFF: Time 85080, Note Name: A4
Note ON: Time 85080, Note Name: F4, Velocity: 35
Note OFF: Time 85200, Note Name: F4
Note OFF: Time 85200, Note Name: C4
Note ON: Time 85200, Note Name: F3, Velocity: 30
Note OFF: Time 85440, Note Name: F3
Note ON: Time 85440, Note Name: A5, Velocity: 36
Note ON: Time 85440, Note Name: C5, Velocity: 29
Note OFF: Time 85560, Note Name: A5
Note ON: Time 85560, Note Name: F5, Velocity: 33
Note OFF: Time 85680, Note Name: F5
Note OFF: Time 85680, Note Name: C5
Note ON: Time 85680, Note Name: F4, Velocity: 26
Note OFF: Time 85920, Note Name: F4
Note ON: Time 85920, Note Name: A#5, Velocity: 33
Note ON: Time 85920, Note Name: C5, Velocity: 27
Note OFF: Time 86040, Note Name: A#5
Note ON: Time 86040, Note Name: E5, Velocity: 33
Note OFF: Time 86160, Note Name: E5
Note OFF: Time 86160, Note Name: C5
Note ON: Time 86160, Note Name: F4, Velocity: 26
Note OFF: Time 86400, Note Name: F4
Note ON: Time 86400, Note Name: A5, Velocity: 37
Note ON: Time 86400, Note Name: C5, Velocity: 31
Note OFF: Time 86520, Note Name: A5
Note ON: Time 86520, Note Name: F5, Velocity: 35
Note OFF: Time 86640, Note Name: F5
Note OFF: Time 86640, Note Name: C5
Note ON: Time 86640, Note Name: F4, Velocity: 30
Note OFF: Time 86700, Note Name: F4
Note ON: Time 86880, Note Name: A5, Velocity: 37
Note ON: Time 86880, Note Name: B4, Velocity: 30
Note OFF: Time 87000, Note Name: A5
Note ON: Time 87000, Note Name: D#5, Velocity: 34
Note OFF: Time 87120, Note Name: D#5
Note OFF: Time 87120, Note Name: B4
Note ON: Time 87120, Note Name: B3, Velocity: 27
Note OFF: Time 87180, Note Name: B3
Note ON: Time 87360, Note Name: G#5, Velocity: 37
Note ON: Time 87360, Note Name: B4, Velocity: 29
Note OFF: Time 87480, Note Name: G#5
Note ON: Time 87480, Note Name: D5, Velocity: 33
Note OFF: Time 87600, Note Name: D5
Note OFF: Time 87600, Note Name: B4
Note ON: Time 87600, Note Name: E4, Velocity: 28
Note OFF: Time 87660, Note Name: E4
Note ON: Time 87840, Note Name: G5, Velocity: 37
Note ON: Time 87840, Note Name: A4, Velocity: 31
Note OFF: Time 87960, Note Name: G5
Note ON: Time 87960, Note Name: C#5, Velocity: 35
Note OFF: Time 88080, Note Name: C#5
Note OFF: Time 88080, Note Name: A4
Note ON: Time 88080, Note Name: A3, Velocity: 30
Note OFF: Time 88140, Note Name: A3
Note ON: Time 88320, Note Name: D5, Velocity: 36
Note ON: Time 88320, Note Name: G4, Velocity: 29
Note OFF: Time 88440, Note Name: D5
Note ON: Time 88440, Note Name: A#4, Velocity: 33
Note OFF: Time 88560, Note Name: A#4
Note OFF: Time 88560, Note Name: G4
Note ON: Time 88560, Note Name: A#3, Velocity: 26
Note OFF: Time 88620, Note Name: A#3
Note ON: Time 88800, Note Name: E5, Velocity: 34
Note ON: Time 88800, Note Name: G4, Velocity: 28
Note OFF: Time 88920, Note Name: E5
Note ON: Time 88920, Note Name: A#4, Velocity: 32
Note OFF: Time 89040, Note Name: A#4
Note OFF: Time 89040, Note Name: G4
Note ON: Time 89040, Note Name: C4, Velocity: 26
Note OFF: Time 89100, Note Name: C4
Note ON: Time 89280, Note Name: A4, Velocity: 35
Note ON: Time 89280, Note Name: C4, Velocity: 29
Note OFF: Time 89400, Note Name: A4
Note ON: Time 89400, Note Name: F4, Velocity: 33
Note OFF: Time 89520, Note Name: F4
Note OFF: Time 89520, Note Name: C4
Note ON: Time 89520, Note Name: F3, Velocity: 28
Note OFF: Time 89580, Note Name: F3
Note ON: Time 89760, Note Name: A4, Velocity: 35
Note ON: Time 89760, Note Name: B3, Velocity: 28
Note OFF: Time 89880, Note Name: A4
Note ON: Time 89880, Note Name: D#4, Velocity: 32
Note OFF: Time 90000, Note Name: D#4
Note OFF: Time 90000, Note Name: B3
Note ON: Time 90000, Note Name: B2, Velocity: 25
Note OFF: Time 90060, Note Name: B2
Note ON: Time 90240, Note Name: G#4, Velocity: 33
Note ON: Time 90240, Note Name: B3, Velocity: 25
Note OFF: Time 90360, Note Name: G#4
Note ON: Time 90360, Note Name: D4, Velocity: 29
Note OFF: Time 90480, Note Name: D4
Note OFF: Time 90480, Note Name: B3
Note ON: Time 90480, Note Name: E3, Velocity: 24
Note OFF: Time 90540, Note Name: E3
Note ON: Time 90720, Note Name: G4, Velocity: 33
Note ON: Time 90720, Note Name: A3, Velocity: 27
Note OFF: Time 90840, Note Name: G4
Note ON: Time 90840, Note Name: C#4, Velocity: 31
Note OFF: Time 90960, Note Name: C#4
Note OFF: Time 90960, Note Name: A3
Note ON: Time 90960, Note Name: A2, Velocity: 26
Note OFF: Time 91020, Note Name: A2
Note ON: Time 91200, Note Name: D4, Velocity: 34
Note ON: Time 91200, Note Name: G3, Velocity: 27
Note OFF: Time 91320, Note Name: D4
Note ON: Time 91320, Note Name: A#3, Velocity: 31
Note OFF: Time 91440, Note Name: A#3
Note OFF: Time 91440, Note Name: G3
Note ON: Time 91440, Note Name: A#2, Velocity: 24
Note OFF: Time 91500, Note Name: A#2
Note ON: Time 91680, Note Name: E4, Velocity: 32
Note ON: Time 91680, Note Name: G3, Velocity: 26
Note OFF: Time 91800, Note Name: E4
Note ON: Time 91800, Note Name: A#3, Velocity: 30
Note OFF: Time 91920, Note Name: A#3
Note OFF: Time 91920, Note Name: G3
Note ON: Time 91920, Note Name: C3, Velocity: 24
Note OFF: Time 91980, Note Name: C3
Note ON: Time 92160, Note Name: A3, Velocity: 33
Note ON: Time 92160, Note Name: C3, Velocity: 27
Note OFF: Time 92280, Note Name: A3
Note ON: Time 92280, Note Name: F3, Velocity: 31
Note OFF: Time 92400, Note Name: F3
Note OFF: Time 92400, Note Name: C3
Note ON: Time 92400, Note Name: F2, Velocity: 26
Note OFF: Time 92640, Note Name: F2
Note ON: Time 92640, Note Name: A3, Velocity: 35
Note ON: Time 92640, Note Name: C3, Velocity: 27
Note OFF: Time 92760, Note Name: A3
Note ON: Time 92760, Note Name: F3, Velocity: 33
Note OFF: Time 92880, Note Name: F3
Note OFF: Time 92880, Note Name: C3
Note ON: Time 92880, Note Name: F2, Velocity: 25
Note OFF: Time 93120, Note Name: F2
Note ON: Time 93120, Note Name: A#3, Velocity: 34
Note ON: Time 93120, Note Name: C3, Velocity: 27
Note OFF: Time 93240, Note Name: A#3
Note ON: Time 93240, Note Name: E3, Velocity: 32
Note OFF: Time 93360, Note Name: E3
Note OFF: Time 93360, Note Name: C3
Note ON: Time 93360, Note Name: F2, Velocity: 25
Note OFF: Time 93600, Note Name: F2
Note ON: Time 93600, Note Name: A3, Velocity: 35
Note ON: Time 93600, Note Name: C3, Velocity: 29
Note OFF: Time 93720, Note Name: A3
Note ON: Time 93720, Note Name: F3, Velocity: 33
Note OFF: Time 93840, Note Name: F3
Note OFF: Time 93840, Note Name: C3
Note ON: Time 93840, Note Name: F2, Velocity: 27
Note OFF: Time 94080, Note Name: F2
Note ON: Time 94080, Note Name: A3, Velocity: 34
Note ON: Time 94080, Note Name: C3, Velocity: 27
Note OFF: Time 94200, Note Name: A3
Note ON: Time 94200, Note Name: F3, Velocity: 32
Note OFF: Time 94320, Note Name: F3
Note OFF: Time 94320, Note Name: C3
Note ON: Time 94320, Note Name: F2, Velocity: 24
Note OFF: Time 94560, Note Name: F2
Note ON: Time 94560, Note Name: A#3, Velocity: 32
Note ON: Time 94560, Note Name: C3, Velocity: 26
Note OFF: Time 94680, Note Name: A#3
Note ON: Time 94680, Note Name: E3, Velocity: 30
Note OFF: Time 94800, Note Name: E3
Note OFF: Time 94800, Note Name: C3
Note ON: Time 94800, Note Name: F2, Velocity: 23
Note OFF: Time 95040, Note Name: F2
Note ON: Time 95040, Note Name: A3, Velocity: 33
Note ON: Time 95040, Note Name: C3, Velocity: 27
Note OFF: Time 95160, Note Name: A3
Note ON: Time 95160, Note Name: F3, Velocity: 31
Note OFF: Time 95280, Note Name: F3
Note OFF: Time 95280, Note Name: C3
Note ON: Time 95280, Note Name: F2, Velocity: 25
Note OFF: Time 95520, Note Name: F2
Note ON: Time 95520, Note Name: F1, Velocity: 27
Note OFF: Time 95760, Note Name: F1
Note ON: Time 96000, Note Name: F2, Velocity: 22
Note ON: Time 96000, Note Name: C3, Velocity: 22
Note ON: Time 96000, Note Name: A3, Velocity: 26
Note OFF: Time 96480, Note Name: A3
Note OFF: Time 96480, Note Name: C3
Note OFF: Time 96480, Note Name: F2
Note ON: Time 96480, Note Name: F3, Velocity: 21
Note ON: Time 96480, Note Name: C4, Velocity: 21
Note ON: Time 96480, Note Name: A4, Velocity: 26
Note OFF: Time 96960, Note Name: A4
Note OFF: Time 96960, Note Name: C4
Note OFF: Time 96960, Note Name: F3
Note ON: Time 96960, Note Name: F1, Velocity: 25
Note OFF: Time 97200, Note Name: F1
Note ON: Time 97440, Note Name: F2, Velocity: 19
Note ON: Time 97440, Note Name: C3, Velocity: 19
Note ON: Time 97440, Note Name: A3, Velocity: 24
Note OFF: Time 97920, Note Name: A3
Note OFF: Time 97920, Note Name: C3
Note OFF: Time 97920, Note Name: F2
Note ON: Time 97920, Note Name: F3, Velocity: 18
Note ON: Time 97920, Note Name: C4, Velocity: 18
Note ON: Time 97920, Note Name: A4, Velocity: 23
Note OFF: Time 98400, Note Name: A4
Note OFF: Time 98400, Note Name: C4
Note OFF: Time 98400, Note Name: F3
Note ON: Time 101760, Note Name: C2, Velocity: 23
Note ON: Time 101760, Note Name: C3, Velocity: 29
Note OFF: Time 102240, Note Name: C3
Note OFF: Time 102240, Note Name: C2
Note ON: Time 102240, Note Name: F1, Velocity: 23
Note ON: Time 102240, Note Name: F2, Velocity: 29
Note OFF: Time 103680, Note Name: F2
Note OFF: Time 103680, Note Name: F1
Note ON: Time 103680, Note Name: F2, Velocity: 23
Note ON: Time 103680, Note Name: C3, Velocity: 29
Note OFF: Time 104640, Note Name: C3
Note OFF: Time 104640, Note Name: F2
Track 3: Chopin: Etude No. 3 in F Major Op. 25
Track 4: Copyright  2003 by Bernd Krueger
Track 5: http://www.piano-midi.de
Track 6: Edition: 2014-02-17
Track 7: Spur 7
