Processing chpn-p8.mid...

Track 0: Prelude No. 8
Track 1: Piano right
Note ON: Time 60, Note Name: C#5, Velocity: 53
Note OFF: Time 120, Note Name: C#5
Note ON: Time 120, Note Name: G#4, Velocity: 61
Note OFF: Time 180, Note Name: G#4
Note ON: Time 180, Note Name: B4, Velocity: 51
Note OFF: Time 240, Note Name: B4
Note ON: Time 240, Note Name: A4, Velocity: 55
Note OFF: Time 300, Note Name: A4
Note ON: Time 300, Note Name: F#4, Velocity: 46
Note OFF: Time 360, Note Name: F#4
Note ON: Time 420, Note Name: D5, Velocity: 48
Note OFF: Time 480, Note Name: D5
Note ON: Time 540, Note Name: C#5, Velocity: 50
Note OFF: Time 600, Note Name: C#5
Note ON: Time 600, Note Name: G#4, Velocity: 63
Note OFF: Time 660, Note Name: G#4
Note ON: Time 660, Note Name: B4, Velocity: 53
Note OFF: Time 720, Note Name: B4
Note ON: Time 720, Note Name: A4, Velocity: 57
Note OFF: Time 780, Note Name: A4
Note ON: Time 780, Note Name: G#4, Velocity: 44
Note OFF: Time 840, Note Name: G#4
Note ON: Time 900, Note Name: F#5, Velocity: 53
Note OFF: Time 960, Note Name: F#5
Note ON: Time 1020, Note Name: F#5, Velocity: 53
Note OFF: Time 1080, Note Name: F#5
Note ON: Time 1080, Note Name: A#4, Velocity: 64
Note OFF: Time 1140, Note Name: A#4
Note ON: Time 1140, Note Name: C#5, Velocity: 52
Note OFF: Time 1200, Note Name: C#5
Note ON: Time 1200, Note Name: B4, Velocity: 58
Note OFF: Time 1260, Note Name: B4
Note ON: Time 1260, Note Name: G#4, Velocity: 46
Note OFF: Time 1320, Note Name: G#4
Note ON: Time 1380, Note Name: F5, Velocity: 50
Note OFF: Time 1440, Note Name: F5
Note ON: Time 1500, Note Name: A5, Velocity: 45
Note OFF: Time 1560, Note Name: A5
Note ON: Time 1560, Note Name: C5, Velocity: 60
Note OFF: Time 1620, Note Name: C5
Note ON: Time 1620, Note Name: D5, Velocity: 45
Note OFF: Time 1680, Note Name: D5
Note ON: Time 1680, Note Name: C#5, Velocity: 52
Note OFF: Time 1740, Note Name: C#5
Note ON: Time 1740, Note Name: B4, Velocity: 44
Note OFF: Time 1800, Note Name: B4
Note ON: Time 1860, Note Name: G#5, Velocity: 48
Note OFF: Time 1920, Note Name: G#5
Note ON: Time 1980, Note Name: C#5, Velocity: 56
Note OFF: Time 2040, Note Name: C#5
Note ON: Time 2040, Note Name: G#4, Velocity: 65
Note OFF: Time 2100, Note Name: G#4
Note ON: Time 2100, Note Name: B4, Velocity: 44
Note OFF: Time 2160, Note Name: B4
Note ON: Time 2160, Note Name: A4, Velocity: 56
Note OFF: Time 2220, Note Name: A4
Note ON: Time 2220, Note Name: F#4, Velocity: 45
Note OFF: Time 2280, Note Name: F#4
Note ON: Time 2340, Note Name: D5, Velocity: 48
Note OFF: Time 2400, Note Name: D5
Note ON: Time 2460, Note Name: C#5, Velocity: 53
Note OFF: Time 2520, Note Name: C#5
Note ON: Time 2520, Note Name: G#4, Velocity: 65
Note OFF: Time 2580, Note Name: G#4
Note ON: Time 2580, Note Name: B4, Velocity: 52
Note OFF: Time 2640, Note Name: B4
Note ON: Time 2640, Note Name: A4, Velocity: 59
Note OFF: Time 2700, Note Name: A4
Note ON: Time 2700, Note Name: G#4, Velocity: 52
Note OFF: Time 2760, Note Name: G#4
Note ON: Time 2820, Note Name: F#5, Velocity: 52
Note OFF: Time 2880, Note Name: F#5
Note ON: Time 2940, Note Name: F#5, Velocity: 60
Note OFF: Time 3000, Note Name: F#5
Note ON: Time 3000, Note Name: A#4, Velocity: 69
Note OFF: Time 3060, Note Name: A#4
Note ON: Time 3060, Note Name: C#5, Velocity: 48
Note OFF: Time 3120, Note Name: C#5
Note ON: Time 3120, Note Name: B4, Velocity: 62
Note OFF: Time 3180, Note Name: B4
Note ON: Time 3180, Note Name: G#4, Velocity: 46
Note OFF: Time 3240, Note Name: G#4
Note ON: Time 3300, Note Name: F5, Velocity: 55
Note OFF: Time 3360, Note Name: F5
Note ON: Time 3420, Note Name: A5, Velocity: 55
Note OFF: Time 3480, Note Name: A5
Note ON: Time 3480, Note Name: C5, Velocity: 65
Note OFF: Time 3540, Note Name: C5
Note ON: Time 3540, Note Name: D5, Velocity: 53
Note OFF: Time 3600, Note Name: D5
Note ON: Time 3600, Note Name: C#5, Velocity: 60
Note OFF: Time 3660, Note Name: C#5
Note ON: Time 3660, Note Name: B4, Velocity: 46
Note OFF: Time 3720, Note Name: B4
Note ON: Time 3780, Note Name: G#5, Velocity: 52
Note OFF: Time 3840, Note Name: G#5
Note ON: Time 3900, Note Name: C#6, Velocity: 55
Note OFF: Time 3960, Note Name: C#6
Note ON: Time 3960, Note Name: G#5, Velocity: 63
Note OFF: Time 4020, Note Name: G#5
Note ON: Time 4020, Note Name: B5, Velocity: 53
Note OFF: Time 4080, Note Name: B5
Note ON: Time 4080, Note Name: A5, Velocity: 62
Note OFF: Time 4140, Note Name: A5
Note ON: Time 4140, Note Name: F#5, Velocity: 53
Note OFF: Time 4200, Note Name: F#5
Note ON: Time 4260, Note Name: D#6, Velocity: 57
Note OFF: Time 4320, Note Name: D#6
Note ON: Time 4380, Note Name: C#6, Velocity: 51
Note OFF: Time 4440, Note Name: C#6
Note ON: Time 4440, Note Name: F5, Velocity: 60
Note OFF: Time 4500, Note Name: F5
Note ON: Time 4500, Note Name: G#5, Velocity: 52
Note OFF: Time 4560, Note Name: G#5
Note ON: Time 4560, Note Name: F#5, Velocity: 59
Note OFF: Time 4620, Note Name: F#5
Note ON: Time 4620, Note Name: D5, Velocity: 48
Note OFF: Time 4680, Note Name: D5
Note ON: Time 4740, Note Name: C6, Velocity: 55
Note OFF: Time 4800, Note Name: C6
Note ON: Time 4860, Note Name: B5, Velocity: 46
Note OFF: Time 4920, Note Name: B5
Note ON: Time 4920, Note Name: F#5, Velocity: 60
Note OFF: Time 4980, Note Name: F#5
Note ON: Time 4980, Note Name: A5, Velocity: 47
Note OFF: Time 5040, Note Name: A5
Note ON: Time 5040, Note Name: G5, Velocity: 56
Note OFF: Time 5100, Note Name: G5
Note ON: Time 5100, Note Name: E5, Velocity: 47
Note OFF: Time 5160, Note Name: E5
Note ON: Time 5220, Note Name: C#6, Velocity: 55
Note OFF: Time 5280, Note Name: C#6
Note ON: Time 5340, Note Name: B5, Velocity: 45
Note OFF: Time 5400, Note Name: B5
Note ON: Time 5400, Note Name: D#5, Velocity: 51
Note OFF: Time 5460, Note Name: D#5
Note ON: Time 5460, Note Name: F#5, Velocity: 45
Note OFF: Time 5520, Note Name: F#5
Note ON: Time 5520, Note Name: E5, Velocity: 52
Note OFF: Time 5580, Note Name: E5
Note ON: Time 5580, Note Name: C#5, Velocity: 47
Note OFF: Time 5640, Note Name: C#5
Note ON: Time 5700, Note Name: A#5, Velocity: 50
Note OFF: Time 5760, Note Name: A#5
Note ON: Time 5820, Note Name: A5, Velocity: 51
Note OFF: Time 5880, Note Name: A5
Note ON: Time 5880, Note Name: D5, Velocity: 60
Note OFF: Time 5940, Note Name: D5
Note ON: Time 5940, Note Name: F5, Velocity: 44
Note OFF: Time 6000, Note Name: F5
Note ON: Time 6000, Note Name: D#5, Velocity: 51
Note OFF: Time 6060, Note Name: D#5
Note ON: Time 6060, Note Name: C5, Velocity: 44
Note OFF: Time 6120, Note Name: C5
Note ON: Time 6180, Note Name: B5, Velocity: 48
Note OFF: Time 6240, Note Name: B5
Note ON: Time 6300, Note Name: A5, Velocity: 45
Note OFF: Time 6360, Note Name: A5
Note ON: Time 6360, Note Name: C#5, Velocity: 50
Note OFF: Time 6420, Note Name: C#5
Note ON: Time 6420, Note Name: E5, Velocity: 42
Note OFF: Time 6480, Note Name: E5
Note ON: Time 6480, Note Name: D5, Velocity: 48
Note OFF: Time 6540, Note Name: D5
Note ON: Time 6540, Note Name: B4, Velocity: 42
Note OFF: Time 6600, Note Name: B4
Note ON: Time 6660, Note Name: G#5, Velocity: 47
Note OFF: Time 6720, Note Name: G#5
Note ON: Time 6780, Note Name: F#5, Velocity: 42
Note OFF: Time 6840, Note Name: F#5
Note ON: Time 6840, Note Name: A#4, Velocity: 48
Note OFF: Time 6900, Note Name: A#4
Note ON: Time 6900, Note Name: C#5, Velocity: 42
Note OFF: Time 6960, Note Name: C#5
Note ON: Time 6960, Note Name: B4, Velocity: 47
Note OFF: Time 7020, Note Name: B4
Note ON: Time 7020, Note Name: G#4, Velocity: 38
Note OFF: Time 7080, Note Name: G#4
Note ON: Time 7140, Note Name: F5, Velocity: 45
Note OFF: Time 7200, Note Name: F5
Note ON: Time 7260, Note Name: D5, Velocity: 37
Note OFF: Time 7320, Note Name: D5
Note ON: Time 7320, Note Name: G4, Velocity: 47
Note OFF: Time 7380, Note Name: G4
Note ON: Time 7380, Note Name: A4, Velocity: 37
Note OFF: Time 7440, Note Name: A4
Note ON: Time 7440, Note Name: G#4, Velocity: 46
Note OFF: Time 7500, Note Name: G#4
Note ON: Time 7500, Note Name: F4, Velocity: 36
Note OFF: Time 7560, Note Name: F4
Note ON: Time 7620, Note Name: C#5, Velocity: 42
Note OFF: Time 7680, Note Name: C#5
Note ON: Time 7740, Note Name: C#5, Velocity: 54
Note OFF: Time 7800, Note Name: C#5
Note ON: Time 7800, Note Name: G#4, Velocity: 62
Note OFF: Time 7860, Note Name: G#4
Note ON: Time 7860, Note Name: B4, Velocity: 46
Note OFF: Time 7920, Note Name: B4
Note ON: Time 7920, Note Name: A4, Velocity: 53
Note OFF: Time 7980, Note Name: A4
Note ON: Time 7980, Note Name: F#4, Velocity: 37
Note OFF: Time 8040, Note Name: F#4
Note ON: Time 8100, Note Name: D5, Velocity: 40
Note OFF: Time 8160, Note Name: D5
Note ON: Time 8220, Note Name: C#5, Velocity: 46
Note OFF: Time 8280, Note Name: C#5
Note ON: Time 8280, Note Name: G#4, Velocity: 57
Note OFF: Time 8340, Note Name: G#4
Note ON: Time 8340, Note Name: B4, Velocity: 38
Note OFF: Time 8400, Note Name: B4
Note ON: Time 8400, Note Name: A4, Velocity: 47
Note OFF: Time 8460, Note Name: A4
Note ON: Time 8460, Note Name: G#4, Velocity: 38
Note OFF: Time 8520, Note Name: G#4
Note ON: Time 8580, Note Name: F#5, Velocity: 46
Note OFF: Time 8640, Note Name: F#5
Note ON: Time 8700, Note Name: F#5, Velocity: 55
Note OFF: Time 8760, Note Name: F#5
Note ON: Time 8760, Note Name: A#4, Velocity: 64
Note OFF: Time 8820, Note Name: A#4
Note ON: Time 8820, Note Name: C#5, Velocity: 44
Note OFF: Time 8880, Note Name: C#5
Note ON: Time 8880, Note Name: B4, Velocity: 51
Note OFF: Time 8940, Note Name: B4
Note ON: Time 8940, Note Name: G#4, Velocity: 42
Note OFF: Time 9000, Note Name: G#4
Note ON: Time 9060, Note Name: F5, Velocity: 48
Note OFF: Time 9120, Note Name: F5
Note ON: Time 9180, Note Name: A5, Velocity: 49
Note OFF: Time 9240, Note Name: A5
Note ON: Time 9240, Note Name: C5, Velocity: 56
Note OFF: Time 9300, Note Name: C5
Note ON: Time 9300, Note Name: D5, Velocity: 44
Note OFF: Time 9360, Note Name: D5
Note ON: Time 9360, Note Name: C#5, Velocity: 48
Note OFF: Time 9420, Note Name: C#5
Note ON: Time 9420, Note Name: B4, Velocity: 38
Note OFF: Time 9480, Note Name: B4
Note ON: Time 9540, Note Name: G#5, Velocity: 45
Note OFF: Time 9600, Note Name: G#5
Note ON: Time 9660, Note Name: C#5, Velocity: 52
Note OFF: Time 9720, Note Name: C#5
Note ON: Time 9720, Note Name: G#4, Velocity: 59
Note OFF: Time 9780, Note Name: G#4
Note ON: Time 9780, Note Name: B4, Velocity: 37
Note OFF: Time 9840, Note Name: B4
Note ON: Time 9840, Note Name: A4, Velocity: 53
Note OFF: Time 9900, Note Name: A4
Note ON: Time 9900, Note Name: F#4, Velocity: 40
Note OFF: Time 9960, Note Name: F#4
Note ON: Time 10020, Note Name: D5, Velocity: 45
Note OFF: Time 10080, Note Name: D5
Note ON: Time 10140, Note Name: C#5, Velocity: 42
Note OFF: Time 10200, Note Name: C#5
Note ON: Time 10200, Note Name: G#4, Velocity: 48
Note OFF: Time 10260, Note Name: G#4
Note ON: Time 10260, Note Name: B4, Velocity: 42
Note OFF: Time 10320, Note Name: B4
Note ON: Time 10320, Note Name: A4, Velocity: 48
Note OFF: Time 10380, Note Name: A4
Note ON: Time 10380, Note Name: G#4, Velocity: 42
Note OFF: Time 10440, Note Name: G#4
Note ON: Time 10500, Note Name: A5, Velocity: 48
Note OFF: Time 10560, Note Name: A5
Note ON: Time 10620, Note Name: A5, Velocity: 50
Note OFF: Time 10680, Note Name: A5
Note ON: Time 10680, Note Name: C#5, Velocity: 59
Note OFF: Time 10740, Note Name: C#5
Note ON: Time 10740, Note Name: E5, Velocity: 46
Note OFF: Time 10800, Note Name: E5
Note ON: Time 10800, Note Name: D5, Velocity: 51
Note OFF: Time 10860, Note Name: D5
Note ON: Time 10860, Note Name: B4, Velocity: 42
Note OFF: Time 10920, Note Name: B4
Note ON: Time 10980, Note Name: G#5, Velocity: 48
Note OFF: Time 11040, Note Name: G#5
Note ON: Time 11100, Note Name: C#6, Velocity: 46
Note OFF: Time 11160, Note Name: C#6
Note ON: Time 11160, Note Name: D#5, Velocity: 55
Note OFF: Time 11220, Note Name: D#5
Note ON: Time 11220, Note Name: F#5, Velocity: 47
Note OFF: Time 11280, Note Name: F#5
Note ON: Time 11280, Note Name: E5, Velocity: 55
Note OFF: Time 11340, Note Name: E5
Note ON: Time 11340, Note Name: D5, Velocity: 47
Note OFF: Time 11400, Note Name: D5
Note ON: Time 11460, Note Name: B5, Velocity: 51
Note OFF: Time 11520, Note Name: B5
Note ON: Time 11580, Note Name: E6, Velocity: 56
Note OFF: Time 11640, Note Name: E6
Note ON: Time 11640, Note Name: B5, Velocity: 62
Note OFF: Time 11700, Note Name: B5
Note ON: Time 11700, Note Name: D6, Velocity: 47
Note OFF: Time 11760, Note Name: D6
Note ON: Time 11760, Note Name: C6, Velocity: 55
Note OFF: Time 11820, Note Name: C6
Note ON: Time 11820, Note Name: A5, Velocity: 47
Note OFF: Time 11880, Note Name: A5
Note ON: Time 11940, Note Name: F#6, Velocity: 51
Note OFF: Time 12000, Note Name: F#6
Note ON: Time 12060, Note Name: E6, Velocity: 51
Note OFF: Time 12120, Note Name: E6
Note ON: Time 12120, Note Name: G#5, Velocity: 57
Note OFF: Time 12180, Note Name: G#5
Note ON: Time 12180, Note Name: B5, Velocity: 44
Note OFF: Time 12240, Note Name: B5
Note ON: Time 12240, Note Name: A5, Velocity: 52
Note OFF: Time 12300, Note Name: A5
Note ON: Time 12300, Note Name: F#5, Velocity: 46
Note OFF: Time 12360, Note Name: F#5
Note ON: Time 12420, Note Name: D#6, Velocity: 50
Note OFF: Time 12480, Note Name: D#6
Note ON: Time 12540, Note Name: D6, Velocity: 44
Note OFF: Time 12600, Note Name: D6
Note ON: Time 12600, Note Name: G5, Velocity: 53
Note OFF: Time 12660, Note Name: G5
Note ON: Time 12660, Note Name: A#5, Velocity: 48
Note OFF: Time 12720, Note Name: A#5
Note ON: Time 12720, Note Name: G#5, Velocity: 50
Note OFF: Time 12780, Note Name: G#5
Note ON: Time 12780, Note Name: F5, Velocity: 47
Note OFF: Time 12840, Note Name: F5
Note ON: Time 12900, Note Name: E6, Velocity: 47
Note OFF: Time 12960, Note Name: E6
Note ON: Time 13020, Note Name: D6, Velocity: 42
Note OFF: Time 13080, Note Name: D6
Note ON: Time 13080, Note Name: F#5, Velocity: 47
Note OFF: Time 13140, Note Name: F#5
Note ON: Time 13140, Note Name: A5, Velocity: 42
Note OFF: Time 13200, Note Name: A5
Note ON: Time 13200, Note Name: G5, Velocity: 47
Note OFF: Time 13260, Note Name: G5
Note ON: Time 13260, Note Name: E5, Velocity: 40
Note OFF: Time 13320, Note Name: E5
Note ON: Time 13380, Note Name: C#6, Velocity: 45
Note OFF: Time 13440, Note Name: C#6
Note ON: Time 13500, Note Name: C6, Velocity: 44
Note OFF: Time 13560, Note Name: C6
Note ON: Time 13560, Note Name: F5, Velocity: 52
Note OFF: Time 13620, Note Name: F5
Note ON: Time 13620, Note Name: G#5, Velocity: 42
Note OFF: Time 13680, Note Name: G#5
Note ON: Time 13680, Note Name: F#5, Velocity: 48
Note OFF: Time 13740, Note Name: F#5
Note ON: Time 13740, Note Name: D#5, Velocity: 40
Note OFF: Time 13800, Note Name: D#5
Note ON: Time 13860, Note Name: D6, Velocity: 40
Note OFF: Time 13920, Note Name: D6
Note ON: Time 13980, Note Name: C6, Velocity: 42
Note OFF: Time 14040, Note Name: C6
Note ON: Time 14040, Note Name: E5, Velocity: 47
Note OFF: Time 14100, Note Name: E5
Note ON: Time 14100, Note Name: G5, Velocity: 40
Note OFF: Time 14160, Note Name: G5
Note ON: Time 14160, Note Name: F5, Velocity: 47
Note OFF: Time 14220, Note Name: F5
Note ON: Time 14220, Note Name: D5, Velocity: 40
Note OFF: Time 14280, Note Name: D5
Note ON: Time 14340, Note Name: B5, Velocity: 40
Note OFF: Time 14400, Note Name: B5
Note ON: Time 14460, Note Name: B5, Velocity: 37
Note OFF: Time 14520, Note Name: B5
Note ON: Time 14520, Note Name: D#5, Velocity: 46
Note OFF: Time 14580, Note Name: D#5
Note ON: Time 14580, Note Name: F#5, Velocity: 36
Note OFF: Time 14640, Note Name: F#5
Note ON: Time 14640, Note Name: E5, Velocity: 45
Note OFF: Time 14700, Note Name: E5
Note ON: Time 14700, Note Name: C#5, Velocity: 37
Note OFF: Time 14760, Note Name: C#5
Note ON: Time 14820, Note Name: A#5, Velocity: 42
Note OFF: Time 14880, Note Name: A#5
Note ON: Time 14940, Note Name: A#5, Velocity: 37
Note OFF: Time 15000, Note Name: A#5
Note ON: Time 15000, Note Name: D#5, Velocity: 44
Note OFF: Time 15060, Note Name: D#5
Note ON: Time 15060, Note Name: F#5, Velocity: 37
Note OFF: Time 15120, Note Name: F#5
Note ON: Time 15120, Note Name: E5, Velocity: 44
Note OFF: Time 15180, Note Name: E5
Note ON: Time 15180, Note Name: C#5, Velocity: 37
Note OFF: Time 15240, Note Name: C#5
Note ON: Time 15300, Note Name: A#5, Velocity: 42
Note OFF: Time 15360, Note Name: A#5
Note ON: Time 15420, Note Name: B5, Velocity: 54
Note OFF: Time 15480, Note Name: B5
Note ON: Time 15480, Note Name: E5, Velocity: 59
Note OFF: Time 15540, Note Name: E5
Note ON: Time 15540, Note Name: G5, Velocity: 38
Note OFF: Time 15600, Note Name: G5
Note ON: Time 15600, Note Name: F5, Velocity: 54
Note OFF: Time 15660, Note Name: F5
Note ON: Time 15660, Note Name: D5, Velocity: 44
Note OFF: Time 15720, Note Name: D5
Note ON: Time 15780, Note Name: A5, Velocity: 44
Note OFF: Time 15840, Note Name: A5
Note ON: Time 15900, Note Name: A5, Velocity: 46
Note OFF: Time 15960, Note Name: A5
Note ON: Time 15960, Note Name: C#5, Velocity: 56
Note OFF: Time 16020, Note Name: C#5
Note ON: Time 16020, Note Name: E5, Velocity: 37
Note OFF: Time 16080, Note Name: E5
Note ON: Time 16080, Note Name: D5, Velocity: 50
Note OFF: Time 16140, Note Name: D5
Note ON: Time 16140, Note Name: B4, Velocity: 44
Note OFF: Time 16200, Note Name: B4
Note ON: Time 16260, Note Name: G#5, Velocity: 44
Note OFF: Time 16320, Note Name: G#5
Note ON: Time 16380, Note Name: G#5, Velocity: 38
Note OFF: Time 16440, Note Name: G#5
Note ON: Time 16440, Note Name: C#5, Velocity: 50
Note OFF: Time 16500, Note Name: C#5
Note ON: Time 16500, Note Name: D#5, Velocity: 38
Note OFF: Time 16560, Note Name: D#5
Note ON: Time 16560, Note Name: D5, Velocity: 45
Note OFF: Time 16620, Note Name: D5
Note ON: Time 16620, Note Name: B4, Velocity: 40
Note OFF: Time 16680, Note Name: B4
Note ON: Time 16740, Note Name: G5, Velocity: 46
Note OFF: Time 16800, Note Name: G5
Note ON: Time 16860, Note Name: G5, Velocity: 42
Note OFF: Time 16920, Note Name: G5
Note ON: Time 16920, Note Name: D5, Velocity: 46
Note OFF: Time 16980, Note Name: D5
Note ON: Time 16980, Note Name: E5, Velocity: 42
Note OFF: Time 17040, Note Name: E5
Note ON: Time 17040, Note Name: D#5, Velocity: 47
Note OFF: Time 17100, Note Name: D#5
Note ON: Time 17100, Note Name: D5, Velocity: 46
Note OFF: Time 17160, Note Name: D5
Note ON: Time 17220, Note Name: C6, Velocity: 46
Note OFF: Time 17280, Note Name: C6
Note ON: Time 17340, Note Name: C6, Velocity: 53
Note OFF: Time 17400, Note Name: C6
Note ON: Time 17400, Note Name: F#5, Velocity: 61
Note OFF: Time 17460, Note Name: F#5
Note ON: Time 17460, Note Name: G#5, Velocity: 42
Note OFF: Time 17520, Note Name: G#5
Note ON: Time 17520, Note Name: G5, Velocity: 48
Note OFF: Time 17580, Note Name: G5
Note ON: Time 17580, Note Name: D#5, Velocity: 44
Note OFF: Time 17640, Note Name: D#5
Note ON: Time 17700, Note Name: B5, Velocity: 48
Note OFF: Time 17760, Note Name: B5
Note ON: Time 17820, Note Name: B5, Velocity: 51
Note OFF: Time 17880, Note Name: B5
Note ON: Time 17880, Note Name: D#5, Velocity: 62
Note OFF: Time 17940, Note Name: D#5
Note ON: Time 17940, Note Name: F#5, Velocity: 45
Note OFF: Time 18000, Note Name: F#5
Note ON: Time 18000, Note Name: E5, Velocity: 52
Note OFF: Time 18060, Note Name: E5
Note ON: Time 18060, Note Name: C#5, Velocity: 45
Note OFF: Time 18120, Note Name: C#5
Note ON: Time 18180, Note Name: A#5, Velocity: 50
Note OFF: Time 18240, Note Name: A#5
Note ON: Time 18300, Note Name: A#5, Velocity: 46
Note OFF: Time 18360, Note Name: A#5
Note ON: Time 18360, Note Name: D#5, Velocity: 55
Note OFF: Time 18420, Note Name: D#5
Note ON: Time 18420, Note Name: F5, Velocity: 48
Note OFF: Time 18480, Note Name: F5
Note ON: Time 18480, Note Name: E5, Velocity: 55
Note OFF: Time 18540, Note Name: E5
Note ON: Time 18540, Note Name: C#5, Velocity: 47
Note OFF: Time 18600, Note Name: C#5
Note ON: Time 18660, Note Name: A5, Velocity: 51
Note OFF: Time 18720, Note Name: A5
Note ON: Time 18780, Note Name: A5, Velocity: 47
Note OFF: Time 18840, Note Name: A5
Note ON: Time 18840, Note Name: E5, Velocity: 59
Note OFF: Time 18900, Note Name: E5
Note ON: Time 18900, Note Name: G5, Velocity: 50
Note OFF: Time 18960, Note Name: G5
Note ON: Time 18960, Note Name: F5, Velocity: 56
Note OFF: Time 19020, Note Name: F5
Note ON: Time 19020, Note Name: E5, Velocity: 48
Note OFF: Time 19080, Note Name: E5
Note ON: Time 19140, Note Name: D6, Velocity: 52
Note OFF: Time 19200, Note Name: D6
Note ON: Time 19260, Note Name: D6, Velocity: 58
Note OFF: Time 19320, Note Name: D6
Note ON: Time 19320, Note Name: E5, Velocity: 68
Note OFF: Time 19380, Note Name: E5
Note ON: Time 19380, Note Name: G5, Velocity: 47
Note OFF: Time 19440, Note Name: G5
Note ON: Time 19440, Note Name: F5, Velocity: 56
Note OFF: Time 19500, Note Name: F5
Note ON: Time 19500, Note Name: D#5, Velocity: 47
Note OFF: Time 19560, Note Name: D#5
Note ON: Time 19620, Note Name: C6, Velocity: 55
Note OFF: Time 19680, Note Name: C6
Note ON: Time 19740, Note Name: C6, Velocity: 55
Note OFF: Time 19800, Note Name: C6
Note ON: Time 19800, Note Name: E5, Velocity: 66
Note OFF: Time 19860, Note Name: E5
Note ON: Time 19860, Note Name: G5, Velocity: 50
Note OFF: Time 19920, Note Name: G5
Note ON: Time 19920, Note Name: F5, Velocity: 56
Note OFF: Time 19980, Note Name: F5
Note ON: Time 19980, Note Name: D5, Velocity: 47
Note OFF: Time 20040, Note Name: D5
Note ON: Time 20100, Note Name: A#5, Velocity: 55
Note OFF: Time 20160, Note Name: A#5
Note ON: Time 20220, Note Name: A#5, Velocity: 50
Note OFF: Time 20280, Note Name: A#5
Note ON: Time 20280, Note Name: C#5, Velocity: 60
Note OFF: Time 20340, Note Name: C#5
Note ON: Time 20340, Note Name: D#5, Velocity: 48
Note OFF: Time 20400, Note Name: D#5
Note ON: Time 20400, Note Name: D5, Velocity: 57
Note OFF: Time 20460, Note Name: D5
Note ON: Time 20460, Note Name: C5, Velocity: 46
Note OFF: Time 20520, Note Name: C5
Note ON: Time 20580, Note Name: A5, Velocity: 55
Note OFF: Time 20640, Note Name: A5
Note ON: Time 20700, Note Name: A5, Velocity: 50
Note OFF: Time 20760, Note Name: A5
Note ON: Time 20760, Note Name: C#5, Velocity: 59
Note OFF: Time 20820, Note Name: C#5
Note ON: Time 20820, Note Name: D#5, Velocity: 50
Note OFF: Time 20880, Note Name: D#5
Note ON: Time 20880, Note Name: D5, Velocity: 60
Note OFF: Time 20940, Note Name: D5
Note ON: Time 20940, Note Name: B4, Velocity: 50
Note OFF: Time 21000, Note Name: B4
Note ON: Time 21060, Note Name: G5, Velocity: 57
Note OFF: Time 21120, Note Name: G5
Note ON: Time 21180, Note Name: G5, Velocity: 51
Note OFF: Time 21240, Note Name: G5
Note ON: Time 21240, Note Name: A4, Velocity: 68
Note OFF: Time 21300, Note Name: A4
Note ON: Time 21300, Note Name: C5, Velocity: 51
Note OFF: Time 21360, Note Name: C5
Note ON: Time 21360, Note Name: A#4, Velocity: 60
Note OFF: Time 21420, Note Name: A#4
Note ON: Time 21420, Note Name: G#4, Velocity: 51
Note OFF: Time 21480, Note Name: G#4
Note ON: Time 21540, Note Name: F5, Velocity: 59
Note OFF: Time 21600, Note Name: F5
Note ON: Time 21660, Note Name: E5, Velocity: 50
Note OFF: Time 21720, Note Name: E5
Note ON: Time 21720, Note Name: A4, Velocity: 67
Note OFF: Time 21780, Note Name: A4
Note ON: Time 21780, Note Name: C5, Velocity: 52
Note OFF: Time 21840, Note Name: C5
Note ON: Time 21840, Note Name: A#4, Velocity: 61
Note OFF: Time 21900, Note Name: A#4
Note ON: Time 21900, Note Name: G#4, Velocity: 52
Note OFF: Time 21960, Note Name: G#4
Note ON: Time 22020, Note Name: F5, Velocity: 60
Note OFF: Time 22080, Note Name: F5
Note ON: Time 22140, Note Name: F5, Velocity: 55
Note OFF: Time 22200, Note Name: F5
Note ON: Time 22200, Note Name: A4, Velocity: 62
Note OFF: Time 22260, Note Name: A4
Note ON: Time 22260, Note Name: B4, Velocity: 52
Note OFF: Time 22320, Note Name: B4
Note ON: Time 22320, Note Name: A#4, Velocity: 63
Note OFF: Time 22380, Note Name: A#4
Note ON: Time 22380, Note Name: G#4, Velocity: 52
Note OFF: Time 22440, Note Name: G#4
Note ON: Time 22500, Note Name: F5, Velocity: 61
Note OFF: Time 22560, Note Name: F5
Note ON: Time 22620, Note Name: F#5, Velocity: 56
Note OFF: Time 22680, Note Name: F#5
Note ON: Time 22680, Note Name: D5, Velocity: 64
Note OFF: Time 22740, Note Name: D5
Note ON: Time 22740, Note Name: F5, Velocity: 57
Note OFF: Time 22800, Note Name: F5
Note ON: Time 22800, Note Name: D#5, Velocity: 64
Note OFF: Time 22860, Note Name: D#5
Note ON: Time 22860, Note Name: A#4, Velocity: 55
Note OFF: Time 22920, Note Name: A#4
Note ON: Time 22980, Note Name: F#5, Velocity: 62
Note OFF: Time 23040, Note Name: F#5
Note ON: Time 23100, Note Name: F#5, Velocity: 62
Note OFF: Time 23160, Note Name: F#5
Note ON: Time 23160, Note Name: G4, Velocity: 79
Note OFF: Time 23220, Note Name: G4
Note ON: Time 23220, Note Name: A#4, Velocity: 66
Note OFF: Time 23280, Note Name: A#4
Note ON: Time 23280, Note Name: G#4, Velocity: 73
Note OFF: Time 23340, Note Name: G#4
Note ON: Time 23340, Note Name: F#4, Velocity: 71
Note OFF: Time 23400, Note Name: F#4
Note ON: Time 23460, Note Name: E5, Velocity: 64
Note OFF: Time 23520, Note Name: E5
Note ON: Time 23580, Note Name: E5, Velocity: 59
Note OFF: Time 23640, Note Name: E5
Note ON: Time 23640, Note Name: G4, Velocity: 66
Note OFF: Time 23700, Note Name: G4
Note ON: Time 23700, Note Name: A#4, Velocity: 61
Note OFF: Time 23760, Note Name: A#4
Note ON: Time 23760, Note Name: G#4, Velocity: 70
Note OFF: Time 23820, Note Name: G#4
Note ON: Time 23820, Note Name: E4, Velocity: 62
Note OFF: Time 23880, Note Name: E4
Note ON: Time 23940, Note Name: G#4, Velocity: 64
Note OFF: Time 24000, Note Name: G#4
Note ON: Time 24060, Note Name: B4, Velocity: 61
Note OFF: Time 24120, Note Name: B4
Note ON: Time 24120, Note Name: F4, Velocity: 66
Note OFF: Time 24180, Note Name: F4
Note ON: Time 24180, Note Name: G#4, Velocity: 63
Note OFF: Time 24240, Note Name: G#4
Note ON: Time 24240, Note Name: F#4, Velocity: 71
Note OFF: Time 24300, Note Name: F#4
Note ON: Time 24300, Note Name: D#4, Velocity: 62
Note OFF: Time 24360, Note Name: D#4
Note ON: Time 24420, Note Name: B4, Velocity: 66
Note OFF: Time 24480, Note Name: B4
Note ON: Time 24540, Note Name: A#4, Velocity: 62
Note OFF: Time 24600, Note Name: A#4
Note ON: Time 24600, Note Name: F4, Velocity: 69
Note OFF: Time 24660, Note Name: F4
Note ON: Time 24660, Note Name: G#4, Velocity: 61
Note OFF: Time 24720, Note Name: G#4
Note ON: Time 24720, Note Name: F#4, Velocity: 71
Note OFF: Time 24780, Note Name: F#4
Note ON: Time 24780, Note Name: D#4, Velocity: 63
Note OFF: Time 24840, Note Name: D#4
Note ON: Time 24900, Note Name: B4, Velocity: 69
Note OFF: Time 24960, Note Name: B4
Note ON: Time 25020, Note Name: C5, Velocity: 66
Note OFF: Time 25080, Note Name: C5
Note ON: Time 25080, Note Name: F4, Velocity: 73
Note OFF: Time 25140, Note Name: F4
Note ON: Time 25140, Note Name: G#4, Velocity: 70
Note OFF: Time 25200, Note Name: G#4
Note ON: Time 25200, Note Name: F#4, Velocity: 78
Note OFF: Time 25260, Note Name: F#4
Note ON: Time 25260, Note Name: E4, Velocity: 77
Note OFF: Time 25320, Note Name: E4
Note ON: Time 25380, Note Name: C5, Velocity: 70
Note OFF: Time 25440, Note Name: C5
Note ON: Time 25500, Note Name: C#5, Velocity: 64
Note OFF: Time 25560, Note Name: C#5
Note ON: Time 25560, Note Name: F4, Velocity: 73
Note OFF: Time 25620, Note Name: F4
Note ON: Time 25620, Note Name: G#4, Velocity: 64
Note OFF: Time 25680, Note Name: G#4
Note ON: Time 25680, Note Name: F#4, Velocity: 72
Note OFF: Time 25740, Note Name: F#4
Note ON: Time 25740, Note Name: E4, Velocity: 63
Note OFF: Time 25800, Note Name: E4
Note ON: Time 25860, Note Name: D5, Velocity: 71
Note OFF: Time 25920, Note Name: D5
Note ON: Time 25980, Note Name: D5, Velocity: 69
Note OFF: Time 26040, Note Name: D5
Note ON: Time 26040, Note Name: F4, Velocity: 77
Note OFF: Time 26100, Note Name: F4
Note ON: Time 26100, Note Name: G#4, Velocity: 71
Note OFF: Time 26160, Note Name: G#4
Note ON: Time 26160, Note Name: F#4, Velocity: 77
Note OFF: Time 26220, Note Name: F#4
Note ON: Time 26220, Note Name: E4, Velocity: 69
Note OFF: Time 26280, Note Name: E4
Note ON: Time 26340, Note Name: D5, Velocity: 72
Note OFF: Time 26400, Note Name: D5
Note ON: Time 26460, Note Name: D#5, Velocity: 69
Note OFF: Time 26520, Note Name: D#5
Note ON: Time 26520, Note Name: A#4, Velocity: 77
Note OFF: Time 26580, Note Name: A#4
Note ON: Time 26580, Note Name: C#5, Velocity: 71
Note OFF: Time 26640, Note Name: C#5
Note ON: Time 26640, Note Name: B4, Velocity: 77
Note OFF: Time 26700, Note Name: B4
Note ON: Time 26700, Note Name: F#4, Velocity: 72
Note OFF: Time 26760, Note Name: F#4
Note ON: Time 26820, Note Name: D#5, Velocity: 73
Note OFF: Time 26880, Note Name: D#5
Note ON: Time 26940, Note Name: D#5, Velocity: 66
Note OFF: Time 27000, Note Name: D#5
Note ON: Time 27000, Note Name: G#4, Velocity: 73
Note OFF: Time 27060, Note Name: G#4
Note ON: Time 27060, Note Name: C#5, Velocity: 70
Note OFF: Time 27120, Note Name: C#5
Note ON: Time 27120, Note Name: B4, Velocity: 77
Note OFF: Time 27180, Note Name: B4
Note ON: Time 27180, Note Name: G#4, Velocity: 66
Note OFF: Time 27240, Note Name: G#4
Note ON: Time 27300, Note Name: D#5, Velocity: 70
Note OFF: Time 27360, Note Name: D#5
Note ON: Time 27420, Note Name: D5, Velocity: 66
Note OFF: Time 27480, Note Name: D5
Note ON: Time 27480, Note Name: G#4, Velocity: 75
Note OFF: Time 27540, Note Name: G#4
Note ON: Time 27540, Note Name: C#5, Velocity: 71
Note OFF: Time 27600, Note Name: C#5
Note ON: Time 27600, Note Name: B4, Velocity: 77
Note OFF: Time 27660, Note Name: B4
Note ON: Time 27660, Note Name: G#4, Velocity: 71
Note OFF: Time 27720, Note Name: G#4
Note ON: Time 27780, Note Name: D#5, Velocity: 72
Note OFF: Time 27840, Note Name: D#5
Note ON: Time 27900, Note Name: F5, Velocity: 72
Note OFF: Time 27960, Note Name: F5
Note ON: Time 27960, Note Name: A#4, Velocity: 80
Note OFF: Time 28020, Note Name: A#4
Note ON: Time 28020, Note Name: D#5, Velocity: 70
Note OFF: Time 28080, Note Name: D#5
Note ON: Time 28080, Note Name: D5, Velocity: 77
Note OFF: Time 28140, Note Name: D5
Note ON: Time 28140, Note Name: A#4, Velocity: 71
Note OFF: Time 28200, Note Name: A#4
Note ON: Time 28260, Note Name: F5, Velocity: 75
Note OFF: Time 28320, Note Name: F5
Note ON: Time 28380, Note Name: F#5, Velocity: 69
Note OFF: Time 28440, Note Name: F#5
Note ON: Time 28440, Note Name: A#4, Velocity: 73
Note OFF: Time 28500, Note Name: A#4
Note ON: Time 28500, Note Name: D#5, Velocity: 66
Note OFF: Time 28560, Note Name: D#5
Note ON: Time 28560, Note Name: D5, Velocity: 72
Note OFF: Time 28620, Note Name: D5
Note ON: Time 28620, Note Name: A#4, Velocity: 66
Note OFF: Time 28680, Note Name: A#4
Note ON: Time 28740, Note Name: F5, Velocity: 71
Note OFF: Time 28800, Note Name: F5
Note ON: Time 28860, Note Name: D#5, Velocity: 71
Note OFF: Time 28920, Note Name: D#5
Note ON: Time 28920, Note Name: G#4, Velocity: 80
Note OFF: Time 28980, Note Name: G#4
Note ON: Time 28980, Note Name: C#5, Velocity: 64
Note OFF: Time 29040, Note Name: C#5
Note ON: Time 29040, Note Name: B4, Velocity: 71
Note OFF: Time 29100, Note Name: B4
Note ON: Time 29100, Note Name: G#4, Velocity: 63
Note OFF: Time 29160, Note Name: G#4
Note ON: Time 29220, Note Name: D#5, Velocity: 70
Note OFF: Time 29280, Note Name: D#5
Note ON: Time 29340, Note Name: D5, Velocity: 64
Note OFF: Time 29400, Note Name: D5
Note ON: Time 29400, Note Name: G#4, Velocity: 71
Note OFF: Time 29460, Note Name: G#4
Note ON: Time 29460, Note Name: C#5, Velocity: 63
Note OFF: Time 29520, Note Name: C#5
Note ON: Time 29520, Note Name: B4, Velocity: 71
Note OFF: Time 29580, Note Name: B4
Note ON: Time 29580, Note Name: G#4, Velocity: 66
Note OFF: Time 29640, Note Name: G#4
Note ON: Time 29700, Note Name: D#5, Velocity: 71
Note OFF: Time 29760, Note Name: D#5
Note ON: Time 29820, Note Name: F5, Velocity: 69
Note OFF: Time 29880, Note Name: F5
Note ON: Time 29880, Note Name: A#4, Velocity: 73
Note OFF: Time 29940, Note Name: A#4
Note ON: Time 29940, Note Name: D#5, Velocity: 66
Note OFF: Time 30000, Note Name: D#5
Note ON: Time 30000, Note Name: D5, Velocity: 75
Note OFF: Time 30060, Note Name: D5
Note ON: Time 30060, Note Name: A#4, Velocity: 69
Note OFF: Time 30120, Note Name: A#4
Note ON: Time 30180, Note Name: F5, Velocity: 72
Note OFF: Time 30240, Note Name: F5
Note ON: Time 30300, Note Name: A#5, Velocity: 57
Note OFF: Time 30360, Note Name: A#5
Note ON: Time 30360, Note Name: E5, Velocity: 64
Note OFF: Time 30420, Note Name: E5
Note ON: Time 30420, Note Name: F#5, Velocity: 60
Note OFF: Time 30480, Note Name: F#5
Note ON: Time 30480, Note Name: F5, Velocity: 57
Note OFF: Time 30540, Note Name: F5
Note ON: Time 30540, Note Name: D5, Velocity: 52
Note OFF: Time 30600, Note Name: D5
Note ON: Time 30660, Note Name: A#5, Velocity: 45
Note OFF: Time 30720, Note Name: A#5
Note ON: Time 30780, Note Name: D#5, Velocity: 38
Note OFF: Time 30840, Note Name: D#5
Note ON: Time 30840, Note Name: G#4, Velocity: 47
Note OFF: Time 30900, Note Name: G#4
Note ON: Time 30900, Note Name: C#5, Velocity: 40
Note OFF: Time 30960, Note Name: C#5
Note ON: Time 30960, Note Name: B4, Velocity: 47
Note OFF: Time 31020, Note Name: B4
Note ON: Time 31020, Note Name: G#4, Velocity: 40
Note OFF: Time 31080, Note Name: G#4
Note ON: Time 31140, Note Name: D#5, Velocity: 44
Note OFF: Time 31200, Note Name: D#5
Note ON: Time 31260, Note Name: D5, Velocity: 40
Note OFF: Time 31320, Note Name: D5
Note ON: Time 31320, Note Name: G#4, Velocity: 48
Note OFF: Time 31380, Note Name: G#4
Note ON: Time 31380, Note Name: C#5, Velocity: 40
Note OFF: Time 31440, Note Name: C#5
Note ON: Time 31440, Note Name: B4, Velocity: 46
Note OFF: Time 31500, Note Name: B4
Note ON: Time 31500, Note Name: G#4, Velocity: 37
Note OFF: Time 31560, Note Name: G#4
Note ON: Time 31620, Note Name: D#5, Velocity: 44
Note OFF: Time 31680, Note Name: D#5
Note ON: Time 31740, Note Name: F5, Velocity: 38
Note OFF: Time 31800, Note Name: F5
Note ON: Time 31800, Note Name: A#4, Velocity: 45
Note OFF: Time 31860, Note Name: A#4
Note ON: Time 31860, Note Name: D#5, Velocity: 38
Note OFF: Time 31920, Note Name: D#5
Note ON: Time 31920, Note Name: D5, Velocity: 47
Note OFF: Time 31980, Note Name: D5
Note ON: Time 31980, Note Name: A#4, Velocity: 38
Note OFF: Time 32040, Note Name: A#4
Note ON: Time 32100, Note Name: F5, Velocity: 44
Note OFF: Time 32160, Note Name: F5
Note ON: Time 32220, Note Name: F#5, Velocity: 38
Note OFF: Time 32280, Note Name: F#5
Note ON: Time 32280, Note Name: A#4, Velocity: 47
Note OFF: Time 32340, Note Name: A#4
Note ON: Time 32340, Note Name: D#5, Velocity: 38
Note OFF: Time 32400, Note Name: D#5
Note ON: Time 32400, Note Name: D5, Velocity: 46
Note OFF: Time 32460, Note Name: D5
Note ON: Time 32460, Note Name: A#4, Velocity: 38
Note OFF: Time 32520, Note Name: A#4
Note ON: Time 32580, Note Name: F5, Velocity: 44
Note OFF: Time 32640, Note Name: F5
Note ON: Time 32700, Note Name: D#5, Velocity: 40
Note OFF: Time 32760, Note Name: D#5
Note ON: Time 32760, Note Name: G#4, Velocity: 46
Note OFF: Time 32820, Note Name: G#4
Note ON: Time 32820, Note Name: C#5, Velocity: 40
Note OFF: Time 32880, Note Name: C#5
Note ON: Time 32880, Note Name: B4, Velocity: 47
Note OFF: Time 32940, Note Name: B4
Note ON: Time 32940, Note Name: G#4, Velocity: 40
Note OFF: Time 33000, Note Name: G#4
Note ON: Time 33060, Note Name: D#5, Velocity: 46
Note OFF: Time 33120, Note Name: D#5
Note ON: Time 33180, Note Name: D5, Velocity: 40
Note OFF: Time 33240, Note Name: D5
Note ON: Time 33240, Note Name: G#4, Velocity: 46
Note OFF: Time 33300, Note Name: G#4
Note ON: Time 33300, Note Name: C#5, Velocity: 40
Note OFF: Time 33360, Note Name: C#5
Note ON: Time 33360, Note Name: B4, Velocity: 48
Note OFF: Time 33420, Note Name: B4
Note ON: Time 33420, Note Name: G#4, Velocity: 40
Note OFF: Time 33480, Note Name: G#4
Note ON: Time 33540, Note Name: D#5, Velocity: 47
Note OFF: Time 33600, Note Name: D#5
Note ON: Time 33660, Note Name: F5, Velocity: 44
Note OFF: Time 33720, Note Name: F5
Note ON: Time 33720, Note Name: A#4, Velocity: 48
Note OFF: Time 33780, Note Name: A#4
Note ON: Time 33780, Note Name: D#5, Velocity: 45
Note OFF: Time 33840, Note Name: D#5
Note ON: Time 33840, Note Name: D5, Velocity: 50
Note OFF: Time 33900, Note Name: D5
Note ON: Time 33900, Note Name: A#4, Velocity: 45
Note OFF: Time 33960, Note Name: A#4
Note ON: Time 34020, Note Name: F5, Velocity: 48
Note OFF: Time 34080, Note Name: F5
Note ON: Time 34140, Note Name: F5, Velocity: 44
Note OFF: Time 34200, Note Name: F5
Note ON: Time 34200, Note Name: C5, Velocity: 51
Note OFF: Time 34260, Note Name: C5
Note ON: Time 34260, Note Name: D5, Velocity: 45
Note OFF: Time 34320, Note Name: D5
Note ON: Time 34320, Note Name: C#5, Velocity: 51
Note OFF: Time 34380, Note Name: C#5
Note ON: Time 34380, Note Name: B4, Velocity: 45
Note OFF: Time 34440, Note Name: B4
Note ON: Time 34500, Note Name: C#5, Velocity: 46
Note OFF: Time 34560, Note Name: C#5
Note ON: Time 34620, Note Name: C#5, Velocity: 47
Note OFF: Time 34680, Note Name: C#5
Note ON: Time 34680, Note Name: G#4, Velocity: 57
Note OFF: Time 34740, Note Name: G#4
Note ON: Time 34740, Note Name: B4, Velocity: 50
Note OFF: Time 34800, Note Name: B4
Note ON: Time 34800, Note Name: A4, Velocity: 59
Note OFF: Time 34860, Note Name: A4
Note ON: Time 34860, Note Name: F#4, Velocity: 50
Note OFF: Time 34920, Note Name: F#4
Note ON: Time 34980, Note Name: D5, Velocity: 55
Note OFF: Time 35040, Note Name: D5
Note ON: Time 35100, Note Name: C#5, Velocity: 47
Note OFF: Time 35160, Note Name: C#5
Note ON: Time 35160, Note Name: G#4, Velocity: 56
Note OFF: Time 35220, Note Name: G#4
Note ON: Time 35220, Note Name: B4, Velocity: 48
Note OFF: Time 35280, Note Name: B4
Note ON: Time 35280, Note Name: A4, Velocity: 57
Note OFF: Time 35340, Note Name: A4
Note ON: Time 35340, Note Name: G#4, Velocity: 47
Note OFF: Time 35400, Note Name: G#4
Note ON: Time 35460, Note Name: F#5, Velocity: 56
Note OFF: Time 35520, Note Name: F#5
Note ON: Time 35580, Note Name: F#5, Velocity: 48
Note OFF: Time 35640, Note Name: F#5
Note ON: Time 35640, Note Name: A#4, Velocity: 60
Note OFF: Time 35700, Note Name: A#4
Note ON: Time 35700, Note Name: C#5, Velocity: 48
Note OFF: Time 35760, Note Name: C#5
Note ON: Time 35760, Note Name: B4, Velocity: 61
Note OFF: Time 35820, Note Name: B4
Note ON: Time 35820, Note Name: G#4, Velocity: 51
Note OFF: Time 35880, Note Name: G#4
Note ON: Time 35940, Note Name: F5, Velocity: 59
Note OFF: Time 36000, Note Name: F5
Note ON: Time 36060, Note Name: A5, Velocity: 51
Note OFF: Time 36120, Note Name: A5
Note ON: Time 36120, Note Name: C5, Velocity: 63
Note OFF: Time 36180, Note Name: C5
Note ON: Time 36180, Note Name: D5, Velocity: 55
Note OFF: Time 36240, Note Name: D5
Note ON: Time 36240, Note Name: C#5, Velocity: 63
Note OFF: Time 36300, Note Name: C#5
Note ON: Time 36300, Note Name: B4, Velocity: 60
Note OFF: Time 36360, Note Name: B4
Note ON: Time 36420, Note Name: G#5, Velocity: 60
Note OFF: Time 36480, Note Name: G#5
Note ON: Time 36540, Note Name: C#5, Velocity: 52
Note OFF: Time 36600, Note Name: C#5
Note ON: Time 36600, Note Name: G#4, Velocity: 60
Note OFF: Time 36660, Note Name: G#4
Note ON: Time 36660, Note Name: B4, Velocity: 51
Note OFF: Time 36720, Note Name: B4
Note ON: Time 36720, Note Name: A4, Velocity: 61
Note OFF: Time 36780, Note Name: A4
Note ON: Time 36780, Note Name: F#4, Velocity: 51
Note OFF: Time 36840, Note Name: F#4
Note ON: Time 36900, Note Name: D5, Velocity: 60
Note OFF: Time 36960, Note Name: D5
Note ON: Time 37020, Note Name: C#5, Velocity: 55
Note OFF: Time 37080, Note Name: C#5
Note ON: Time 37080, Note Name: G#4, Velocity: 63
Note OFF: Time 37140, Note Name: G#4
Note ON: Time 37140, Note Name: B4, Velocity: 52
Note OFF: Time 37200, Note Name: B4
Note ON: Time 37200, Note Name: A4, Velocity: 63
Note OFF: Time 37260, Note Name: A4
Note ON: Time 37260, Note Name: G#4, Velocity: 52
Note OFF: Time 37320, Note Name: G#4
Note ON: Time 37380, Note Name: A5, Velocity: 62
Note OFF: Time 37440, Note Name: A5
Note ON: Time 37500, Note Name: A5, Velocity: 56
Note OFF: Time 37560, Note Name: A5
Note ON: Time 37560, Note Name: C#5, Velocity: 64
Note OFF: Time 37620, Note Name: C#5
Note ON: Time 37620, Note Name: E5, Velocity: 52
Note OFF: Time 37680, Note Name: E5
Note ON: Time 37680, Note Name: D5, Velocity: 64
Note OFF: Time 37740, Note Name: D5
Note ON: Time 37740, Note Name: B4, Velocity: 55
Note OFF: Time 37800, Note Name: B4
Note ON: Time 37860, Note Name: G#5, Velocity: 62
Note OFF: Time 37920, Note Name: G#5
Note ON: Time 37980, Note Name: C#6, Velocity: 56
Note OFF: Time 38040, Note Name: C#6
Note ON: Time 38040, Note Name: D#5, Velocity: 66
Note OFF: Time 38100, Note Name: D#5
Note ON: Time 38100, Note Name: F#5, Velocity: 59
Note OFF: Time 38160, Note Name: F#5
Note ON: Time 38160, Note Name: E5, Velocity: 69
Note OFF: Time 38220, Note Name: E5
Note ON: Time 38220, Note Name: D5, Velocity: 59
Note OFF: Time 38280, Note Name: D5
Note ON: Time 38340, Note Name: B5, Velocity: 69
Note OFF: Time 38400, Note Name: B5
Note ON: Time 38460, Note Name: B5, Velocity: 61
Note OFF: Time 38520, Note Name: B5
Note ON: Time 38520, Note Name: D#5, Velocity: 70
Note OFF: Time 38580, Note Name: D#5
Note ON: Time 38580, Note Name: F#5, Velocity: 60
Note OFF: Time 38640, Note Name: F#5
Note ON: Time 38640, Note Name: E5, Velocity: 70
Note OFF: Time 38700, Note Name: E5
Note ON: Time 38700, Note Name: C#5, Velocity: 60
Note OFF: Time 38760, Note Name: C#5
Note ON: Time 38820, Note Name: A#5, Velocity: 71
Note OFF: Time 38880, Note Name: A#5
Note ON: Time 38940, Note Name: D6, Velocity: 62
Note OFF: Time 39000, Note Name: D6
Note ON: Time 39000, Note Name: F5, Velocity: 71
Note OFF: Time 39060, Note Name: F5
Note ON: Time 39060, Note Name: G5, Velocity: 63
Note OFF: Time 39120, Note Name: G5
Note ON: Time 39120, Note Name: F#5, Velocity: 71
Note OFF: Time 39180, Note Name: F#5
Note ON: Time 39180, Note Name: E5, Velocity: 63
Note OFF: Time 39240, Note Name: E5
Note ON: Time 39300, Note Name: C#6, Velocity: 72
Note OFF: Time 39360, Note Name: C#6
Note ON: Time 39420, Note Name: C#6, Velocity: 63
Note OFF: Time 39480, Note Name: C#6
Note ON: Time 39480, Note Name: F5, Velocity: 73
Note OFF: Time 39540, Note Name: F5
Note ON: Time 39540, Note Name: G#5, Velocity: 66
Note OFF: Time 39600, Note Name: G#5
Note ON: Time 39600, Note Name: F#5, Velocity: 73
Note OFF: Time 39660, Note Name: F#5
Note ON: Time 39660, Note Name: D#5, Velocity: 63
Note OFF: Time 39720, Note Name: D#5
Note ON: Time 39780, Note Name: C6, Velocity: 73
Note OFF: Time 39840, Note Name: C6
Note ON: Time 39900, Note Name: F6, Velocity: 64
Note OFF: Time 39960, Note Name: F6
Note ON: Time 39960, Note Name: G#5, Velocity: 75
Note OFF: Time 40020, Note Name: G#5
Note ON: Time 40020, Note Name: B5, Velocity: 69
Note OFF: Time 40080, Note Name: B5
Note ON: Time 40080, Note Name: A5, Velocity: 75
Note OFF: Time 40140, Note Name: A5
Note ON: Time 40140, Note Name: G#5, Velocity: 69
Note OFF: Time 40200, Note Name: G#5
Note ON: Time 40260, Note Name: F#6, Velocity: 77
Note OFF: Time 40320, Note Name: F#6
Note ON: Time 40380, Note Name: G#6, Velocity: 70
Note OFF: Time 40440, Note Name: G#6
Note ON: Time 40440, Note Name: D6, Velocity: 81
Note OFF: Time 40500, Note Name: D6
Note ON: Time 40500, Note Name: F6, Velocity: 71
Note OFF: Time 40560, Note Name: F6
Note ON: Time 40560, Note Name: D#6, Velocity: 78
Note OFF: Time 40620, Note Name: D#6
Note ON: Time 40620, Note Name: C6, Velocity: 72
Note OFF: Time 40680, Note Name: C6
Note ON: Time 40740, Note Name: A6, Velocity: 77
Note OFF: Time 40800, Note Name: A6
Note ON: Time 40860, Note Name: G#6, Velocity: 71
Note OFF: Time 40920, Note Name: G#6
Note ON: Time 40920, Note Name: D6, Velocity: 77
Note OFF: Time 40980, Note Name: D6
Note ON: Time 40980, Note Name: F6, Velocity: 75
Note OFF: Time 41040, Note Name: F6
Note ON: Time 41040, Note Name: D#6, Velocity: 71
Note OFF: Time 41100, Note Name: D#6
Note ON: Time 41100, Note Name: C6, Velocity: 69
Note OFF: Time 41160, Note Name: C6
Note ON: Time 41220, Note Name: A6, Velocity: 77
Note OFF: Time 41280, Note Name: A6
Note ON: Time 41340, Note Name: G#6, Velocity: 70
Note OFF: Time 41400, Note Name: G#6
Note ON: Time 41400, Note Name: C#6, Velocity: 77
Note OFF: Time 41460, Note Name: C#6
Note ON: Time 41460, Note Name: E6, Velocity: 72
Note OFF: Time 41520, Note Name: E6
Note ON: Time 41520, Note Name: D6, Velocity: 78
Note OFF: Time 41580, Note Name: D6
Note ON: Time 41580, Note Name: C6, Velocity: 71
Note OFF: Time 41640, Note Name: C6
Note ON: Time 41700, Note Name: A6, Velocity: 77
Note OFF: Time 41760, Note Name: A6
Note ON: Time 41820, Note Name: G#6, Velocity: 75
Note OFF: Time 41880, Note Name: G#6
Note ON: Time 41880, Note Name: C#6, Velocity: 82
Note OFF: Time 41940, Note Name: C#6
Note ON: Time 41940, Note Name: E6, Velocity: 75
Note OFF: Time 42000, Note Name: E6
Note ON: Time 42000, Note Name: D6, Velocity: 78
Note OFF: Time 42060, Note Name: D6
Note ON: Time 42060, Note Name: C6, Velocity: 71
Note OFF: Time 42120, Note Name: C6
Note ON: Time 42180, Note Name: A6, Velocity: 77
Note OFF: Time 42240, Note Name: A6
Note ON: Time 42300, Note Name: A6, Velocity: 70
Note OFF: Time 42360, Note Name: A6
Note ON: Time 42360, Note Name: F6, Velocity: 77
Note OFF: Time 42420, Note Name: F6
Note ON: Time 42420, Note Name: G#6, Velocity: 70
Note OFF: Time 42480, Note Name: G#6
Note ON: Time 42480, Note Name: F#6, Velocity: 77
Note OFF: Time 42540, Note Name: F#6
Note ON: Time 42540, Note Name: C#6, Velocity: 66
Note OFF: Time 42600, Note Name: C#6
Note ON: Time 42660, Note Name: A6, Velocity: 70
Note OFF: Time 42720, Note Name: A6
Note ON: Time 42780, Note Name: G#6, Velocity: 69
Note OFF: Time 42840, Note Name: G#6
Note ON: Time 42840, Note Name: D#6, Velocity: 78
Note OFF: Time 42900, Note Name: D#6
Note ON: Time 42900, Note Name: F#6, Velocity: 71
Note OFF: Time 42960, Note Name: F#6
Note ON: Time 42960, Note Name: E6, Velocity: 77
Note OFF: Time 43020, Note Name: E6
Note ON: Time 43020, Note Name: C#6, Velocity: 69
Note OFF: Time 43080, Note Name: C#6
Note ON: Time 43140, Note Name: G#6, Velocity: 72
Note OFF: Time 43200, Note Name: G#6
Note ON: Time 43260, Note Name: E6, Velocity: 64
Note OFF: Time 43320, Note Name: E6
Note ON: Time 43320, Note Name: B5, Velocity: 73
Note OFF: Time 43380, Note Name: B5
Note ON: Time 43380, Note Name: D6, Velocity: 66
Note OFF: Time 43440, Note Name: D6
Note ON: Time 43440, Note Name: C#6, Velocity: 71
Note OFF: Time 43500, Note Name: C#6
Note ON: Time 43500, Note Name: A5, Velocity: 63
Note OFF: Time 43560, Note Name: A5
Note ON: Time 43620, Note Name: E6, Velocity: 71
Note OFF: Time 43680, Note Name: E6
Note ON: Time 43740, Note Name: C#6, Velocity: 64
Note OFF: Time 43800, Note Name: C#6
Note ON: Time 43800, Note Name: G#5, Velocity: 71
Note OFF: Time 43860, Note Name: G#5
Note ON: Time 43860, Note Name: B5, Velocity: 64
Note OFF: Time 43920, Note Name: B5
Note ON: Time 43920, Note Name: A5, Velocity: 70
Note OFF: Time 43980, Note Name: A5
Note ON: Time 43980, Note Name: F#5, Velocity: 62
Note OFF: Time 44040, Note Name: F#5
Note ON: Time 44100, Note Name: C#6, Velocity: 63
Note OFF: Time 44160, Note Name: C#6
Note ON: Time 44220, Note Name: G#5, Velocity: 59
Note OFF: Time 44280, Note Name: G#5
Note ON: Time 44280, Note Name: D#5, Velocity: 69
Note OFF: Time 44340, Note Name: D#5
Note ON: Time 44340, Note Name: F#5, Velocity: 61
Note OFF: Time 44400, Note Name: F#5
Note ON: Time 44400, Note Name: E5, Velocity: 66
Note OFF: Time 44460, Note Name: E5
Note ON: Time 44460, Note Name: C#5, Velocity: 62
Note OFF: Time 44520, Note Name: C#5
Note ON: Time 44580, Note Name: G#5, Velocity: 62
Note OFF: Time 44640, Note Name: G#5
Note ON: Time 44700, Note Name: F#5, Velocity: 57
Note OFF: Time 44760, Note Name: F#5
Note ON: Time 44760, Note Name: C#5, Velocity: 64
Note OFF: Time 44820, Note Name: C#5
Note ON: Time 44820, Note Name: E5, Velocity: 57
Note OFF: Time 44880, Note Name: E5
Note ON: Time 44880, Note Name: D5, Velocity: 64
Note OFF: Time 44940, Note Name: D5
Note ON: Time 44940, Note Name: A4, Velocity: 52
Note OFF: Time 45000, Note Name: A4
Note ON: Time 45060, Note Name: F#5, Velocity: 61
Note OFF: Time 45120, Note Name: F#5
Note ON: Time 45180, Note Name: E5, Velocity: 55
Note OFF: Time 45240, Note Name: E5
Note ON: Time 45240, Note Name: B4, Velocity: 64
Note OFF: Time 45300, Note Name: B4
Note ON: Time 45300, Note Name: D5, Velocity: 59
Note OFF: Time 45360, Note Name: D5
Note ON: Time 45360, Note Name: C#5, Velocity: 63
Note OFF: Time 45420, Note Name: C#5
Note ON: Time 45420, Note Name: A4, Velocity: 56
Note OFF: Time 45480, Note Name: A4
Note ON: Time 45540, Note Name: E5, Velocity: 60
Note OFF: Time 45600, Note Name: E5
Note ON: Time 45660, Note Name: D5, Velocity: 52
Note OFF: Time 45720, Note Name: D5
Note ON: Time 45720, Note Name: A4, Velocity: 62
Note OFF: Time 45780, Note Name: A4
Note ON: Time 45780, Note Name: C#5, Velocity: 52
Note OFF: Time 45840, Note Name: C#5
Note ON: Time 45840, Note Name: B4, Velocity: 61
Note OFF: Time 45900, Note Name: B4
Note ON: Time 45900, Note Name: G4, Velocity: 55
Note OFF: Time 45960, Note Name: G4
Note ON: Time 46020, Note Name: D5, Velocity: 60
Note OFF: Time 46080, Note Name: D5
Note ON: Time 46140, Note Name: C#5, Velocity: 60
Note OFF: Time 46200, Note Name: C#5
Note ON: Time 46200, Note Name: G#4, Velocity: 70
Note OFF: Time 46260, Note Name: G#4
Note ON: Time 46260, Note Name: B4, Velocity: 59
Note OFF: Time 46320, Note Name: B4
Note ON: Time 46320, Note Name: A4, Velocity: 64
Note OFF: Time 46380, Note Name: A4
Note ON: Time 46380, Note Name: F#4, Velocity: 61
Note OFF: Time 46440, Note Name: F#4
Note ON: Time 46500, Note Name: C#5, Velocity: 60
Note OFF: Time 46560, Note Name: C#5
Note ON: Time 46620, Note Name: C#5, Velocity: 51
Note OFF: Time 46680, Note Name: C#5
Note ON: Time 46680, Note Name: G#4, Velocity: 60
Note OFF: Time 46740, Note Name: G#4
Note ON: Time 46740, Note Name: B4, Velocity: 51
Note OFF: Time 46800, Note Name: B4
Note ON: Time 46800, Note Name: A4, Velocity: 59
Note OFF: Time 46860, Note Name: A4
Note ON: Time 46860, Note Name: F#4, Velocity: 51
Note OFF: Time 46920, Note Name: F#4
Note ON: Time 46980, Note Name: C#5, Velocity: 57
Note OFF: Time 47040, Note Name: C#5
Note ON: Time 47100, Note Name: C#5, Velocity: 52
Note OFF: Time 47160, Note Name: C#5
Note ON: Time 47160, Note Name: G#4, Velocity: 62
Note OFF: Time 47220, Note Name: G#4
Note ON: Time 47220, Note Name: B4, Velocity: 52
Note OFF: Time 47280, Note Name: B4
Note ON: Time 47280, Note Name: A4, Velocity: 60
Note OFF: Time 47340, Note Name: A4
Note ON: Time 47340, Note Name: F#4, Velocity: 52
Note OFF: Time 47400, Note Name: F#4
Note ON: Time 47460, Note Name: C#5, Velocity: 56
Note OFF: Time 47520, Note Name: C#5
Note ON: Time 47580, Note Name: C#5, Velocity: 51
Note OFF: Time 47640, Note Name: C#5
Note ON: Time 47640, Note Name: G#4, Velocity: 60
Note OFF: Time 47700, Note Name: G#4
Note ON: Time 47700, Note Name: B4, Velocity: 52
Note OFF: Time 47760, Note Name: B4
Note ON: Time 47760, Note Name: A4, Velocity: 59
Note OFF: Time 47820, Note Name: A4
Note ON: Time 47820, Note Name: F#4, Velocity: 48
Note OFF: Time 47880, Note Name: F#4
Note ON: Time 47940, Note Name: C#5, Velocity: 55
Note OFF: Time 48000, Note Name: C#5
Note ON: Time 48060, Note Name: C#5, Velocity: 48
Note OFF: Time 48120, Note Name: C#5
Note ON: Time 48120, Note Name: G4, Velocity: 60
Note OFF: Time 48180, Note Name: G4
Note ON: Time 48180, Note Name: A4, Velocity: 47
Note OFF: Time 48240, Note Name: A4
Note ON: Time 48240, Note Name: G#4, Velocity: 55
Note OFF: Time 48300, Note Name: G#4
Note ON: Time 48300, Note Name: F#4, Velocity: 47
Note OFF: Time 48360, Note Name: F#4
Note ON: Time 48420, Note Name: C#5, Velocity: 51
Note OFF: Time 48480, Note Name: C#5
Note ON: Time 48540, Note Name: C#5, Velocity: 50
Note OFF: Time 48600, Note Name: C#5
Note ON: Time 48600, Note Name: G4, Velocity: 57
Note OFF: Time 48660, Note Name: G4
Note ON: Time 48660, Note Name: A4, Velocity: 48
Note OFF: Time 48720, Note Name: A4
Note ON: Time 48720, Note Name: G#4, Velocity: 55
Note OFF: Time 48780, Note Name: G#4
Note ON: Time 48780, Note Name: F#4, Velocity: 46
Note OFF: Time 48840, Note Name: F#4
Note ON: Time 48900, Note Name: C#5, Velocity: 50
Note OFF: Time 48960, Note Name: C#5
Note ON: Time 49020, Note Name: C#5, Velocity: 45
Note OFF: Time 49080, Note Name: C#5
Note ON: Time 49080, Note Name: G4, Velocity: 50
Note OFF: Time 49140, Note Name: G4
Note ON: Time 49140, Note Name: A4, Velocity: 42
Note OFF: Time 49200, Note Name: A4
Note ON: Time 49200, Note Name: G#4, Velocity: 48
Note OFF: Time 49260, Note Name: G#4
Note ON: Time 49260, Note Name: F4, Velocity: 42
Note OFF: Time 49320, Note Name: F4
Note ON: Time 49380, Note Name: C#5, Velocity: 46
Note OFF: Time 49440, Note Name: C#5
Note ON: Time 49500, Note Name: C#5, Velocity: 38
Note OFF: Time 49560, Note Name: C#5
Note ON: Time 49560, Note Name: G4, Velocity: 44
Note OFF: Time 49620, Note Name: G4
Note ON: Time 49620, Note Name: A4, Velocity: 36
Note OFF: Time 49680, Note Name: A4
Note ON: Time 49680, Note Name: G#4, Velocity: 44
Note OFF: Time 49740, Note Name: G#4
Note ON: Time 49740, Note Name: F4, Velocity: 38
Note OFF: Time 49800, Note Name: F4
Note ON: Time 49860, Note Name: C#5, Velocity: 38
Note OFF: Time 49920, Note Name: C#5
Note ON: Time 49980, Note Name: C#5, Velocity: 35
Note OFF: Time 50040, Note Name: C#5
Note ON: Time 50040, Note Name: G#4, Velocity: 40
Note OFF: Time 50100, Note Name: G#4
Note ON: Time 50100, Note Name: B4, Velocity: 35
Note OFF: Time 50160, Note Name: B4
Note ON: Time 50160, Note Name: A4, Velocity: 40
Note OFF: Time 50220, Note Name: A4
Note ON: Time 50220, Note Name: F#4, Velocity: 35
Note OFF: Time 50280, Note Name: F#4
Note ON: Time 50340, Note Name: C#5, Velocity: 38
Note OFF: Time 50400, Note Name: C#5
Note ON: Time 50460, Note Name: C#5, Velocity: 34
Note OFF: Time 50520, Note Name: C#5
Note ON: Time 50520, Note Name: G#4, Velocity: 37
Note OFF: Time 50580, Note Name: G#4
Note ON: Time 50580, Note Name: B4, Velocity: 31
Note OFF: Time 50640, Note Name: B4
Note ON: Time 50640, Note Name: A4, Velocity: 37
Note OFF: Time 50700, Note Name: A4
Note ON: Time 50700, Note Name: F#4, Velocity: 30
Note OFF: Time 50760, Note Name: F#4
Note ON: Time 50820, Note Name: C#5, Velocity: 37
Note OFF: Time 50880, Note Name: C#5
Note ON: Time 50940, Note Name: C#5, Velocity: 31
Note OFF: Time 51000, Note Name: C#5
Note ON: Time 51000, Note Name: G#4, Velocity: 37
Note OFF: Time 51060, Note Name: G#4
Note ON: Time 51060, Note Name: B4, Velocity: 31
Note OFF: Time 51120, Note Name: B4
Note ON: Time 51120, Note Name: A4, Velocity: 37
Note OFF: Time 51180, Note Name: A4
Note ON: Time 51180, Note Name: F#4, Velocity: 36
Note OFF: Time 51240, Note Name: F#4
Note ON: Time 51300, Note Name: C#5, Velocity: 38
Note OFF: Time 51360, Note Name: C#5
Note ON: Time 51420, Note Name: C#5, Velocity: 34
Note OFF: Time 51480, Note Name: C#5
Note ON: Time 51480, Note Name: G#4, Velocity: 38
Note OFF: Time 51540, Note Name: G#4
Note ON: Time 51540, Note Name: B4, Velocity: 34
Note OFF: Time 51600, Note Name: B4
Note ON: Time 51600, Note Name: A4, Velocity: 38
Note OFF: Time 51660, Note Name: A4
Note ON: Time 51660, Note Name: F#4, Velocity: 34
Note OFF: Time 51720, Note Name: F#4
Note ON: Time 51780, Note Name: C#5, Velocity: 38
Note OFF: Time 51840, Note Name: C#5
Note ON: Time 51900, Note Name: D5, Velocity: 34
Note OFF: Time 51960, Note Name: D5
Note ON: Time 51960, Note Name: A#4, Velocity: 37
Note OFF: Time 52020, Note Name: A#4
Note ON: Time 52020, Note Name: C#5, Velocity: 31
Note OFF: Time 52080, Note Name: C#5
Note ON: Time 52080, Note Name: B4, Velocity: 37
Note OFF: Time 52140, Note Name: B4
Note ON: Time 52140, Note Name: F#4, Velocity: 31
Note OFF: Time 52200, Note Name: F#4
Note ON: Time 52260, Note Name: D5, Velocity: 38
Note OFF: Time 52320, Note Name: D5
Note ON: Time 52380, Note Name: D5, Velocity: 34
Note OFF: Time 52440, Note Name: D5
Note ON: Time 52440, Note Name: A#4, Velocity: 38
Note OFF: Time 52500, Note Name: A#4
Note ON: Time 52500, Note Name: C#5, Velocity: 34
Note OFF: Time 52560, Note Name: C#5
Note ON: Time 52560, Note Name: B4, Velocity: 40
Note OFF: Time 52620, Note Name: B4
Note ON: Time 52620, Note Name: F#4, Velocity: 35
Note OFF: Time 52680, Note Name: F#4
Note ON: Time 52740, Note Name: D5, Velocity: 42
Note OFF: Time 52800, Note Name: D5
Note ON: Time 52860, Note Name: D5, Velocity: 37
Note OFF: Time 52920, Note Name: D5
Note ON: Time 52920, Note Name: A#4, Velocity: 44
Note OFF: Time 52980, Note Name: A#4
Note ON: Time 52980, Note Name: C#5, Velocity: 36
Note OFF: Time 53040, Note Name: C#5
Note ON: Time 53040, Note Name: B4, Velocity: 44
Note OFF: Time 53100, Note Name: B4
Note ON: Time 53100, Note Name: F#4, Velocity: 35
Note OFF: Time 53160, Note Name: F#4
Note ON: Time 53220, Note Name: D5, Velocity: 44
Note OFF: Time 53280, Note Name: D5
Note ON: Time 53340, Note Name: F#5, Velocity: 46
Note OFF: Time 53400, Note Name: F#5
Note ON: Time 53400, Note Name: A#4, Velocity: 51
Note OFF: Time 53460, Note Name: A#4
Note ON: Time 53460, Note Name: C#5, Velocity: 45
Note OFF: Time 53520, Note Name: C#5
Note ON: Time 53520, Note Name: B4, Velocity: 48
Note OFF: Time 53580, Note Name: B4
Note ON: Time 53580, Note Name: F#4, Velocity: 42
Note OFF: Time 53640, Note Name: F#4
Note ON: Time 53700, Note Name: D5, Velocity: 36
Note OFF: Time 53760, Note Name: D5
Note ON: Time 53820, Note Name: C#5, Velocity: 28
Note OFF: Time 53880, Note Name: C#5
Note ON: Time 53880, Note Name: G#4, Velocity: 36
Note OFF: Time 53940, Note Name: G#4
Note ON: Time 53940, Note Name: B4, Velocity: 29
Note OFF: Time 54000, Note Name: B4
Note ON: Time 54000, Note Name: A#4, Velocity: 35
Note OFF: Time 54060, Note Name: A#4
Note ON: Time 54060, Note Name: F#4, Velocity: 30
Note OFF: Time 54120, Note Name: F#4
Note ON: Time 54180, Note Name: C#5, Velocity: 35
Note OFF: Time 54240, Note Name: C#5
Note ON: Time 54300, Note Name: C#5, Velocity: 27
Note OFF: Time 54360, Note Name: C#5
Note ON: Time 54360, Note Name: G#4, Velocity: 34
Note OFF: Time 54420, Note Name: G#4
Note ON: Time 54420, Note Name: B4, Velocity: 27
Note OFF: Time 54480, Note Name: B4
Note ON: Time 54480, Note Name: A#4, Velocity: 34
Note OFF: Time 54540, Note Name: A#4
Note ON: Time 54540, Note Name: F#4, Velocity: 28
Note OFF: Time 54600, Note Name: F#4
Note ON: Time 54660, Note Name: C#5, Velocity: 34
Note OFF: Time 54720, Note Name: C#5
Note ON: Time 54780, Note Name: C#5, Velocity: 28
Note OFF: Time 54840, Note Name: C#5
Note ON: Time 54840, Note Name: G#4, Velocity: 34
Note OFF: Time 54900, Note Name: G#4
Note ON: Time 54900, Note Name: B4, Velocity: 28
Note OFF: Time 54960, Note Name: B4
Note ON: Time 54960, Note Name: A#4, Velocity: 34
Note OFF: Time 55020, Note Name: A#4
Note ON: Time 55020, Note Name: F#4, Velocity: 28
Note OFF: Time 55080, Note Name: F#4
Note ON: Time 55140, Note Name: C#5, Velocity: 31
Note OFF: Time 55200, Note Name: C#5
Note ON: Time 55260, Note Name: C#5, Velocity: 28
Note OFF: Time 55320, Note Name: C#5
Note ON: Time 55320, Note Name: G#4, Velocity: 31
Note OFF: Time 55380, Note Name: G#4
Note ON: Time 55380, Note Name: B4, Velocity: 27
Note OFF: Time 55440, Note Name: B4
Note ON: Time 55440, Note Name: A#4, Velocity: 31
Note OFF: Time 55500, Note Name: A#4
Note ON: Time 55500, Note Name: F#4, Velocity: 25
Note OFF: Time 55560, Note Name: F#4
Note ON: Time 55620, Note Name: C#5, Velocity: 31
Note OFF: Time 55680, Note Name: C#5
Note ON: Time 55740, Note Name: D#5, Velocity: 22
Note OFF: Time 55800, Note Name: D#5
Note ON: Time 55800, Note Name: A#4, Velocity: 28
Note OFF: Time 55860, Note Name: A#4
Note ON: Time 55860, Note Name: C#5, Velocity: 22
Note OFF: Time 55920, Note Name: C#5
Note ON: Time 55920, Note Name: B4, Velocity: 29
Note OFF: Time 55980, Note Name: B4
Note ON: Time 55980, Note Name: F#4, Velocity: 23
Note OFF: Time 56040, Note Name: F#4
Note ON: Time 56100, Note Name: D#5, Velocity: 29
Note OFF: Time 56160, Note Name: D#5
Note ON: Time 56220, Note Name: D#5, Velocity: 23
Note OFF: Time 56280, Note Name: D#5
Note ON: Time 56280, Note Name: A#4, Velocity: 29
Note OFF: Time 56340, Note Name: A#4
Note ON: Time 56340, Note Name: C#5, Velocity: 23
Note OFF: Time 56400, Note Name: C#5
Note ON: Time 56400, Note Name: B4, Velocity: 30
Note OFF: Time 56460, Note Name: B4
Note ON: Time 56460, Note Name: F#4, Velocity: 23
Note OFF: Time 56520, Note Name: F#4
Note ON: Time 56580, Note Name: D#5, Velocity: 30
Note OFF: Time 56640, Note Name: D#5
Note ON: Time 56700, Note Name: D#5, Velocity: 27
Note OFF: Time 56760, Note Name: D#5
Note ON: Time 56760, Note Name: A#4, Velocity: 31
Note OFF: Time 56820, Note Name: A#4
Note ON: Time 56820, Note Name: C#5, Velocity: 27
Note OFF: Time 56880, Note Name: C#5
Note ON: Time 56880, Note Name: B4, Velocity: 31
Note OFF: Time 56940, Note Name: B4
Note ON: Time 56940, Note Name: F#4, Velocity: 30
Note OFF: Time 57000, Note Name: F#4
Note ON: Time 57060, Note Name: D#5, Velocity: 34
Note OFF: Time 57120, Note Name: D#5
Note ON: Time 57180, Note Name: F#5, Velocity: 37
Note OFF: Time 57240, Note Name: F#5
Note ON: Time 57240, Note Name: A#4, Velocity: 38
Note OFF: Time 57300, Note Name: A#4
Note ON: Time 57300, Note Name: C#5, Velocity: 36
Note OFF: Time 57360, Note Name: C#5
Note ON: Time 57360, Note Name: B4, Velocity: 36
Note OFF: Time 57420, Note Name: B4
Note ON: Time 57420, Note Name: F#4, Velocity: 34
Note OFF: Time 57480, Note Name: F#4
Note ON: Time 57540, Note Name: D#5, Velocity: 27
Note OFF: Time 57600, Note Name: D#5
Note ON: Time 57660, Note Name: C#5, Velocity: 20
Note OFF: Time 57720, Note Name: C#5
Note ON: Time 57720, Note Name: G#4, Velocity: 27
Note OFF: Time 57780, Note Name: G#4
Note ON: Time 57780, Note Name: B4, Velocity: 22
Note OFF: Time 57840, Note Name: B4
Note ON: Time 57840, Note Name: A#4, Velocity: 27
Note OFF: Time 57900, Note Name: A#4
Note ON: Time 57900, Note Name: F#4, Velocity: 23
Note OFF: Time 57960, Note Name: F#4
Note ON: Time 58020, Note Name: C#5, Velocity: 27
Note OFF: Time 58080, Note Name: C#5
Note ON: Time 58140, Note Name: C#5, Velocity: 23
Note OFF: Time 58200, Note Name: C#5
Note ON: Time 58200, Note Name: G#4, Velocity: 28
Note OFF: Time 58260, Note Name: G#4
Note ON: Time 58260, Note Name: B4, Velocity: 23
Note OFF: Time 58320, Note Name: B4
Note ON: Time 58320, Note Name: A#4, Velocity: 28
Note OFF: Time 58380, Note Name: A#4
Note ON: Time 58380, Note Name: F#4, Velocity: 22
Note OFF: Time 58440, Note Name: F#4
Note ON: Time 58500, Note Name: C#5, Velocity: 29
Note OFF: Time 58560, Note Name: C#5
Note ON: Time 58620, Note Name: C#5, Velocity: 25
Note OFF: Time 58680, Note Name: C#5
Note ON: Time 58680, Note Name: G#4, Velocity: 29
Note OFF: Time 58740, Note Name: G#4
Note ON: Time 58740, Note Name: B4, Velocity: 23
Note OFF: Time 58800, Note Name: B4
Note ON: Time 58800, Note Name: A#4, Velocity: 29
Note OFF: Time 58860, Note Name: A#4
Note ON: Time 58860, Note Name: F#4, Velocity: 23
Note OFF: Time 58920, Note Name: F#4
Note ON: Time 58980, Note Name: C#5, Velocity: 29
Note OFF: Time 59040, Note Name: C#5
Note ON: Time 59100, Note Name: C#5, Velocity: 23
Note OFF: Time 59160, Note Name: C#5
Note ON: Time 59160, Note Name: G#4, Velocity: 30
Note OFF: Time 59220, Note Name: G#4
Note ON: Time 59220, Note Name: B4, Velocity: 23
Note OFF: Time 59280, Note Name: B4
Note ON: Time 59280, Note Name: A#4, Velocity: 30
Note OFF: Time 59340, Note Name: A#4
Note ON: Time 59340, Note Name: F#4, Velocity: 23
Note OFF: Time 59400, Note Name: F#4
Note ON: Time 59460, Note Name: C#5, Velocity: 29
Note OFF: Time 59520, Note Name: C#5
Note ON: Time 59580, Note Name: C#5, Velocity: 23
Note OFF: Time 59640, Note Name: C#5
Note ON: Time 59640, Note Name: G#4, Velocity: 29
Note OFF: Time 59700, Note Name: G#4
Note ON: Time 59700, Note Name: B4, Velocity: 23
Note OFF: Time 59760, Note Name: B4
Note ON: Time 59760, Note Name: A4, Velocity: 29
Note OFF: Time 59820, Note Name: A4
Note ON: Time 59820, Note Name: F#4, Velocity: 25
Note OFF: Time 59880, Note Name: F#4
Note ON: Time 59940, Note Name: C#5, Velocity: 29
Note OFF: Time 60000, Note Name: C#5
Note ON: Time 60060, Note Name: C#5, Velocity: 22
Note OFF: Time 60120, Note Name: C#5
Note ON: Time 60120, Note Name: G#4, Velocity: 29
Note OFF: Time 60180, Note Name: G#4
Note ON: Time 60180, Note Name: B4, Velocity: 23
Note OFF: Time 60240, Note Name: B4
Note ON: Time 60240, Note Name: A4, Velocity: 28
Note OFF: Time 60300, Note Name: A4
Note ON: Time 60300, Note Name: F#4, Velocity: 23
Note OFF: Time 60360, Note Name: F#4
Note ON: Time 60420, Note Name: C#5, Velocity: 28
Note OFF: Time 60480, Note Name: C#5
Note ON: Time 60540, Note Name: C#5, Velocity: 22
Note OFF: Time 60600, Note Name: C#5
Note ON: Time 60600, Note Name: G#4, Velocity: 28
Note OFF: Time 60660, Note Name: G#4
Note ON: Time 60660, Note Name: B4, Velocity: 23
Note OFF: Time 60720, Note Name: B4
Note ON: Time 60720, Note Name: A4, Velocity: 27
Note OFF: Time 60780, Note Name: A4
Note ON: Time 60780, Note Name: F#4, Velocity: 22
Note OFF: Time 60840, Note Name: F#4
Note ON: Time 60900, Note Name: C#5, Velocity: 27
Note OFF: Time 60960, Note Name: C#5
Note ON: Time 61020, Note Name: C#5, Velocity: 22
Note OFF: Time 61080, Note Name: C#5
Note ON: Time 61080, Note Name: G#4, Velocity: 27
Note OFF: Time 61140, Note Name: G#4
Note ON: Time 61140, Note Name: B4, Velocity: 22
Note OFF: Time 61200, Note Name: B4
Note ON: Time 61200, Note Name: A4, Velocity: 27
Note OFF: Time 61260, Note Name: A4
Note ON: Time 61260, Note Name: F#4, Velocity: 23
Note OFF: Time 61320, Note Name: F#4
Note ON: Time 61380, Note Name: C#5, Velocity: 27
Note OFF: Time 61440, Note Name: C#5
Track 2: Piano right Main
Note ON: Time 0, Note Name: C#4, Velocity: 77
Note OFF: Time 360, Note Name: C#4
Note ON: Time 360, Note Name: D4, Velocity: 59
Note OFF: Time 480, Note Name: D4
Note ON: Time 480, Note Name: C#4, Velocity: 73
Note OFF: Time 840, Note Name: C#4
Note ON: Time 840, Note Name: F#4, Velocity: 74
Note OFF: Time 960, Note Name: F#4
Note ON: Time 960, Note Name: F#4, Velocity: 89
Note OFF: Time 1320, Note Name: F#4
Note ON: Time 1320, Note Name: F4, Velocity: 62
Note OFF: Time 1440, Note Name: F4
Note ON: Time 1440, Note Name: A4, Velocity: 82
Note OFF: Time 1800, Note Name: A4
Note ON: Time 1800, Note Name: G#4, Velocity: 52
Note OFF: Time 1920, Note Name: G#4
Note ON: Time 1920, Note Name: C#4, Velocity: 80
Note OFF: Time 2280, Note Name: C#4
Note ON: Time 2280, Note Name: D4, Velocity: 52
Note OFF: Time 2400, Note Name: D4
Note ON: Time 2400, Note Name: C#4, Velocity: 75
Note OFF: Time 2760, Note Name: C#4
Note ON: Time 2760, Note Name: F#4, Velocity: 73
Note OFF: Time 2880, Note Name: F#4
Note ON: Time 2880, Note Name: F#4, Velocity: 83
Note OFF: Time 3240, Note Name: F#4
Note ON: Time 3240, Note Name: F4, Velocity: 73
Note OFF: Time 3360, Note Name: F4
Note ON: Time 3360, Note Name: A4, Velocity: 83
Note OFF: Time 3720, Note Name: A4
Note ON: Time 3720, Note Name: G#4, Velocity: 55
Note OFF: Time 3840, Note Name: G#4
Note ON: Time 3840, Note Name: C#5, Velocity: 83
Note OFF: Time 4200, Note Name: C#5
Note ON: Time 4200, Note Name: D#5, Velocity: 62
Note OFF: Time 4320, Note Name: D#5
Note ON: Time 4320, Note Name: C#5, Velocity: 80
Note OFF: Time 4680, Note Name: C#5
Note ON: Time 4680, Note Name: C5, Velocity: 60
Note OFF: Time 4800, Note Name: C5
Note ON: Time 4800, Note Name: B4, Velocity: 77
Note OFF: Time 5160, Note Name: B4
Note ON: Time 5160, Note Name: C#5, Velocity: 57
Note OFF: Time 5280, Note Name: C#5
Note ON: Time 5280, Note Name: B4, Velocity: 73
Note OFF: Time 5640, Note Name: B4
Note ON: Time 5640, Note Name: A#4, Velocity: 57
Note OFF: Time 5760, Note Name: A#4
Note ON: Time 5760, Note Name: A4, Velocity: 75
Note OFF: Time 6120, Note Name: A4
Note ON: Time 6120, Note Name: B4, Velocity: 59
Note OFF: Time 6240, Note Name: B4
Note ON: Time 6240, Note Name: A4, Velocity: 73
Note OFF: Time 6600, Note Name: A4
Note ON: Time 6600, Note Name: G#4, Velocity: 59
Note OFF: Time 6720, Note Name: G#4
Note ON: Time 6720, Note Name: F#4, Velocity: 74
Note OFF: Time 7080, Note Name: F#4
Note ON: Time 7080, Note Name: F4, Velocity: 57
Note OFF: Time 7200, Note Name: F4
Note ON: Time 7200, Note Name: D4, Velocity: 72
Note OFF: Time 7560, Note Name: D4
Note ON: Time 7560, Note Name: C#4, Velocity: 63
Note OFF: Time 7680, Note Name: C#4
Note ON: Time 7680, Note Name: C#4, Velocity: 84
Note OFF: Time 8040, Note Name: C#4
Note ON: Time 8040, Note Name: D4, Velocity: 63
Note OFF: Time 8160, Note Name: D4
Note ON: Time 8160, Note Name: C#4, Velocity: 75
Note OFF: Time 8520, Note Name: C#4
Note ON: Time 8520, Note Name: F#4, Velocity: 71
Note OFF: Time 8640, Note Name: F#4
Note ON: Time 8640, Note Name: F#4, Velocity: 84
Note OFF: Time 9000, Note Name: F#4
Note ON: Time 9000, Note Name: F4, Velocity: 59
Note OFF: Time 9120, Note Name: F4
Note ON: Time 9120, Note Name: A4, Velocity: 77
Note OFF: Time 9480, Note Name: A4
Note ON: Time 9480, Note Name: G#4, Velocity: 56
Note OFF: Time 9600, Note Name: G#4
Note ON: Time 9600, Note Name: C#4, Velocity: 81
Note OFF: Time 9960, Note Name: C#4
Note ON: Time 9960, Note Name: D4, Velocity: 58
Note OFF: Time 10080, Note Name: D4
Note ON: Time 10080, Note Name: C#4, Velocity: 75
Note OFF: Time 10440, Note Name: C#4
Note ON: Time 10440, Note Name: F#4, Velocity: 71
Note OFF: Time 10560, Note Name: F#4
Note ON: Time 10560, Note Name: A4, Velocity: 85
Note OFF: Time 10920, Note Name: A4
Note ON: Time 10920, Note Name: G#4, Velocity: 58
Note OFF: Time 11040, Note Name: G#4
Note ON: Time 11040, Note Name: C#5, Velocity: 83
Note OFF: Time 11400, Note Name: C#5
Note ON: Time 11400, Note Name: B4, Velocity: 66
Note OFF: Time 11520, Note Name: B4
Note ON: Time 11520, Note Name: E5, Velocity: 79
Note OFF: Time 11880, Note Name: E5
Note ON: Time 11880, Note Name: F#5, Velocity: 59
Note OFF: Time 12000, Note Name: F#5
Note ON: Time 12000, Note Name: E5, Velocity: 75
Note OFF: Time 12360, Note Name: E5
Note ON: Time 12360, Note Name: D#5, Velocity: 60
Note OFF: Time 12480, Note Name: D#5
Note ON: Time 12480, Note Name: D5, Velocity: 75
Note OFF: Time 12840, Note Name: D5
Note ON: Time 12840, Note Name: E5, Velocity: 55
Note OFF: Time 12960, Note Name: E5
Note ON: Time 12960, Note Name: D5, Velocity: 73
Note OFF: Time 13320, Note Name: D5
Note ON: Time 13320, Note Name: C#5, Velocity: 55
Note OFF: Time 13440, Note Name: C#5
Note ON: Time 13440, Note Name: C5, Velocity: 76
Note OFF: Time 13800, Note Name: C5
Note ON: Time 13800, Note Name: D5, Velocity: 55
Note OFF: Time 13920, Note Name: D5
Note ON: Time 13920, Note Name: C5, Velocity: 73
Note OFF: Time 14280, Note Name: C5
Note ON: Time 14280, Note Name: B4, Velocity: 55
Note OFF: Time 14400, Note Name: B4
Note ON: Time 14400, Note Name: B4, Velocity: 73
Note OFF: Time 14760, Note Name: B4
Note ON: Time 14760, Note Name: A#4, Velocity: 53
Note OFF: Time 14880, Note Name: A#4
Note ON: Time 14880, Note Name: A#4, Velocity: 67
Note OFF: Time 15240, Note Name: A#4
Note ON: Time 15240, Note Name: A#4, Velocity: 58
Note OFF: Time 15360, Note Name: A#4
Note ON: Time 15360, Note Name: A#4, Velocity: 81
Note OFF: Time 15720, Note Name: A#4
Note ON: Time 15720, Note Name: A4, Velocity: 58
Note OFF: Time 15840, Note Name: A4
Note ON: Time 15840, Note Name: A4, Velocity: 78
Note OFF: Time 16200, Note Name: A4
Note ON: Time 16200, Note Name: G#4, Velocity: 58
Note OFF: Time 16320, Note Name: G#4
Note ON: Time 16320, Note Name: G#4, Velocity: 83
Note OFF: Time 16680, Note Name: G#4
Note ON: Time 16680, Note Name: G4, Velocity: 62
Note OFF: Time 16800, Note Name: G4
Note ON: Time 16800, Note Name: G4, Velocity: 80
Note OFF: Time 17160, Note Name: G4
Note ON: Time 17160, Note Name: C5, Velocity: 62
Note OFF: Time 17280, Note Name: C5
Note ON: Time 17280, Note Name: C5, Velocity: 85
Note OFF: Time 17640, Note Name: C5
Note ON: Time 17640, Note Name: B4, Velocity: 66
Note OFF: Time 17760, Note Name: B4
Note ON: Time 17760, Note Name: B4, Velocity: 82
Note OFF: Time 18120, Note Name: B4
Note ON: Time 18120, Note Name: A#4, Velocity: 61
Note OFF: Time 18240, Note Name: A#4
Note ON: Time 18240, Note Name: A#4, Velocity: 84
Note OFF: Time 18600, Note Name: A#4
Note ON: Time 18600, Note Name: A4, Velocity: 62
Note OFF: Time 18720, Note Name: A4
Note ON: Time 18720, Note Name: A4, Velocity: 82
Note OFF: Time 19080, Note Name: A4
Note ON: Time 19080, Note Name: D5, Velocity: 70
Note OFF: Time 19200, Note Name: D5
Note ON: Time 19200, Note Name: D5, Velocity: 90
Note OFF: Time 19560, Note Name: D5
Note ON: Time 19560, Note Name: C5, Velocity: 70
Note OFF: Time 19680, Note Name: C5
Note ON: Time 19680, Note Name: C5, Velocity: 83
Note OFF: Time 20040, Note Name: C5
Note ON: Time 20040, Note Name: A#4, Velocity: 66
Note OFF: Time 20160, Note Name: A#4
Note ON: Time 20160, Note Name: A#4, Velocity: 93
Note OFF: Time 20520, Note Name: A#4
Note ON: Time 20520, Note Name: A4, Velocity: 70
Note OFF: Time 20640, Note Name: A4
Note ON: Time 20640, Note Name: A4, Velocity: 88
Note OFF: Time 21000, Note Name: A4
Note ON: Time 21000, Note Name: G4, Velocity: 72
Note OFF: Time 21120, Note Name: G4
Note ON: Time 21120, Note Name: G4, Velocity: 93
Note OFF: Time 21480, Note Name: G4
Note ON: Time 21480, Note Name: F4, Velocity: 77
Note OFF: Time 21600, Note Name: F4
Note ON: Time 21600, Note Name: E4, Velocity: 90
Note OFF: Time 21960, Note Name: E4
Note ON: Time 21960, Note Name: F4, Velocity: 78
Note OFF: Time 22080, Note Name: F4
Note ON: Time 22080, Note Name: F4, Velocity: 97
Note OFF: Time 22440, Note Name: F4
Note ON: Time 22440, Note Name: F4, Velocity: 78
Note OFF: Time 22560, Note Name: F4
Note ON: Time 22560, Note Name: F#4, Velocity: 93
Note OFF: Time 22920, Note Name: F#4
Note ON: Time 22920, Note Name: F#4, Velocity: 77
Note OFF: Time 23040, Note Name: F#4
Note ON: Time 23040, Note Name: F#4, Velocity: 99
Note OFF: Time 23400, Note Name: F#4
Note ON: Time 23400, Note Name: E4, Velocity: 78
Note OFF: Time 23520, Note Name: E4
Note ON: Time 23520, Note Name: E4, Velocity: 93
Note OFF: Time 23880, Note Name: E4
Note ON: Time 23880, Note Name: G#3, Velocity: 78
Note OFF: Time 24000, Note Name: G#3
Note ON: Time 24000, Note Name: B3, Velocity: 94
Note OFF: Time 24360, Note Name: B3
Note ON: Time 24360, Note Name: B3, Velocity: 73
Note OFF: Time 24480, Note Name: B3
Note ON: Time 24480, Note Name: A#3, Velocity: 92
Note OFF: Time 24840, Note Name: A#3
Note ON: Time 24840, Note Name: B3, Velocity: 72
Note OFF: Time 24960, Note Name: B3
Note ON: Time 24960, Note Name: C4, Velocity: 96
Note OFF: Time 25320, Note Name: C4
Note ON: Time 25320, Note Name: C4, Velocity: 78
Note OFF: Time 25440, Note Name: C4
Note ON: Time 25440, Note Name: C#4, Velocity: 92
Note OFF: Time 25800, Note Name: C#4
Note ON: Time 25800, Note Name: D4, Velocity: 84
Note OFF: Time 25920, Note Name: D4
Note ON: Time 25920, Note Name: D4, Velocity: 96
Note OFF: Time 26280, Note Name: D4
Note ON: Time 26280, Note Name: D4, Velocity: 82
Note OFF: Time 26400, Note Name: D4
Note ON: Time 26400, Note Name: D#4, Velocity: 98
Note OFF: Time 26760, Note Name: D#4
Note ON: Time 26760, Note Name: D#4, Velocity: 80
Note OFF: Time 26880, Note Name: D#4
Note ON: Time 26880, Note Name: D#4, Velocity: 103
Note OFF: Time 27240, Note Name: D#4
Note ON: Time 27240, Note Name: D#4, Velocity: 85
Note OFF: Time 27360, Note Name: D#4
Note ON: Time 27360, Note Name: D4, Velocity: 97
Note OFF: Time 27720, Note Name: D4
Note ON: Time 27720, Note Name: D#4, Velocity: 78
Note OFF: Time 27840, Note Name: D#4
Note ON: Time 27840, Note Name: F4, Velocity: 100
Note OFF: Time 28200, Note Name: F4
Note ON: Time 28200, Note Name: F4, Velocity: 82
Note OFF: Time 28320, Note Name: F4
Note ON: Time 28320, Note Name: F#4, Velocity: 95
Note OFF: Time 28680, Note Name: F#4
Note ON: Time 28680, Note Name: F4, Velocity: 80
Note OFF: Time 28800, Note Name: F4
Note ON: Time 28800, Note Name: D#4, Velocity: 102
Note OFF: Time 29160, Note Name: D#4
Note ON: Time 29160, Note Name: D#4, Velocity: 83
Note OFF: Time 29280, Note Name: D#4
Note ON: Time 29280, Note Name: D4, Velocity: 96
Note OFF: Time 29640, Note Name: D4
Note ON: Time 29640, Note Name: D#4, Velocity: 84
Note OFF: Time 29760, Note Name: D#4
Note ON: Time 29760, Note Name: F4, Velocity: 97
Note OFF: Time 30120, Note Name: F4
Note ON: Time 30120, Note Name: F4, Velocity: 79
Note OFF: Time 30240, Note Name: F4
Note ON: Time 30240, Note Name: A#4, Velocity: 93
Note OFF: Time 30600, Note Name: A#4
Note ON: Time 30600, Note Name: A#4, Velocity: 81
Note OFF: Time 30720, Note Name: A#4
Note ON: Time 30720, Note Name: D#4, Velocity: 80
Note OFF: Time 31080, Note Name: D#4
Note ON: Time 31080, Note Name: D#4, Velocity: 62
Note OFF: Time 31200, Note Name: D#4
Note ON: Time 31200, Note Name: D4, Velocity: 77
Note OFF: Time 31560, Note Name: D4
Note ON: Time 31560, Note Name: D#4, Velocity: 64
Note OFF: Time 31680, Note Name: D#4
Note ON: Time 31680, Note Name: F4, Velocity: 81
Note OFF: Time 32040, Note Name: F4
Note ON: Time 32040, Note Name: F4, Velocity: 67
Note OFF: Time 32160, Note Name: F4
Note ON: Time 32160, Note Name: F#4, Velocity: 85
Note OFF: Time 32520, Note Name: F#4
Note ON: Time 32520, Note Name: F4, Velocity: 62
Note OFF: Time 32640, Note Name: F4
Note ON: Time 32640, Note Name: D#4, Velocity: 81
Note OFF: Time 33000, Note Name: D#4
Note ON: Time 33000, Note Name: D#4, Velocity: 66
Note OFF: Time 33120, Note Name: D#4
Note ON: Time 33120, Note Name: D4, Velocity: 78
Note OFF: Time 33480, Note Name: D4
Note ON: Time 33480, Note Name: D#4, Velocity: 66
Note OFF: Time 33600, Note Name: D#4
Note ON: Time 33600, Note Name: F4, Velocity: 84
Note OFF: Time 33960, Note Name: F4
Note ON: Time 33960, Note Name: F4, Velocity: 67
Note OFF: Time 34080, Note Name: F4
Note ON: Time 34080, Note Name: F4, Velocity: 86
Note OFF: Time 34440, Note Name: F4
Note ON: Time 34440, Note Name: C#4, Velocity: 77
Note OFF: Time 34560, Note Name: C#4
Note ON: Time 34560, Note Name: C#4, Velocity: 92
Note OFF: Time 34920, Note Name: C#4
Note ON: Time 34920, Note Name: D4, Velocity: 71
Note OFF: Time 35040, Note Name: D4
Note ON: Time 35040, Note Name: C#4, Velocity: 83
Note OFF: Time 35400, Note Name: C#4
Note ON: Time 35400, Note Name: F#4, Velocity: 75
Note OFF: Time 35520, Note Name: F#4
Note ON: Time 35520, Note Name: F#4, Velocity: 93
Note OFF: Time 35880, Note Name: F#4
Note ON: Time 35880, Note Name: F4, Velocity: 70
Note OFF: Time 36000, Note Name: F4
Note ON: Time 36000, Note Name: A4, Velocity: 84
Note OFF: Time 36360, Note Name: A4
Note ON: Time 36360, Note Name: G#4, Velocity: 67
Note OFF: Time 36480, Note Name: G#4
Note ON: Time 36480, Note Name: C#4, Velocity: 93
Note OFF: Time 36840, Note Name: C#4
Note ON: Time 36840, Note Name: D4, Velocity: 70
Note OFF: Time 36960, Note Name: D4
Note ON: Time 36960, Note Name: C#4, Velocity: 86
Note OFF: Time 37320, Note Name: C#4
Note ON: Time 37320, Note Name: F#4, Velocity: 79
Note OFF: Time 37440, Note Name: F#4
Note ON: Time 37440, Note Name: A4, Velocity: 91
Note OFF: Time 37800, Note Name: A4
Note ON: Time 37800, Note Name: G#4, Velocity: 75
Note OFF: Time 37920, Note Name: G#4
Note ON: Time 37920, Note Name: C#5, Velocity: 100
Note OFF: Time 38280, Note Name: C#5
Note ON: Time 38280, Note Name: B4, Velocity: 78
Note OFF: Time 38400, Note Name: B4
Note ON: Time 38400, Note Name: B4, Velocity: 101
Note OFF: Time 38760, Note Name: B4
Note ON: Time 38760, Note Name: A#4, Velocity: 84
Note OFF: Time 38880, Note Name: A#4
Note ON: Time 38880, Note Name: D5, Velocity: 98
Note OFF: Time 39240, Note Name: D5
Note ON: Time 39240, Note Name: C#5, Velocity: 79
Note OFF: Time 39360, Note Name: C#5
Note ON: Time 39360, Note Name: C#5, Velocity: 107
Note OFF: Time 39720, Note Name: C#5
Note ON: Time 39720, Note Name: C5, Velocity: 84
Note OFF: Time 39840, Note Name: C5
Note ON: Time 39840, Note Name: F5, Velocity: 105
Note OFF: Time 40200, Note Name: F5
Note ON: Time 40200, Note Name: F#5, Velocity: 84
Note OFF: Time 40320, Note Name: F#5
Note ON: Time 40320, Note Name: G#5, Velocity: 108
Note OFF: Time 40680, Note Name: G#5
Note ON: Time 40680, Note Name: A5, Velocity: 95
Note OFF: Time 40800, Note Name: A5
Note ON: Time 40800, Note Name: G#5, Velocity: 106
Note OFF: Time 41160, Note Name: G#5
Note ON: Time 41160, Note Name: A5, Velocity: 89
Note OFF: Time 41280, Note Name: A5
Note ON: Time 41280, Note Name: G#5, Velocity: 109
Note OFF: Time 41640, Note Name: G#5
Note ON: Time 41640, Note Name: A5, Velocity: 92
Note OFF: Time 41760, Note Name: A5
Note ON: Time 41760, Note Name: G#5, Velocity: 104
Note OFF: Time 42120, Note Name: G#5
Note ON: Time 42120, Note Name: A5, Velocity: 86
Note OFF: Time 42240, Note Name: A5
Note ON: Time 42240, Note Name: A5, Velocity: 109
Note OFF: Time 42600, Note Name: A5
Note ON: Time 42600, Note Name: A5, Velocity: 90
Note OFF: Time 42720, Note Name: A5
Note ON: Time 42720, Note Name: G#5, Velocity: 105
Note OFF: Time 43080, Note Name: G#5
Note ON: Time 43080, Note Name: G#5, Velocity: 86
Note OFF: Time 43200, Note Name: G#5
Note ON: Time 43200, Note Name: E5, Velocity: 106
Note OFF: Time 43560, Note Name: E5
Note ON: Time 43560, Note Name: E5, Velocity: 94
Note OFF: Time 43680, Note Name: E5
Note ON: Time 43680, Note Name: C#5, Velocity: 100
Note OFF: Time 44040, Note Name: C#5
Note ON: Time 44040, Note Name: C#5, Velocity: 86
Note OFF: Time 44160, Note Name: C#5
Note ON: Time 44160, Note Name: G#4, Velocity: 100
Note OFF: Time 44520, Note Name: G#4
Note ON: Time 44520, Note Name: G#4, Velocity: 84
Note OFF: Time 44640, Note Name: G#4
Note ON: Time 44640, Note Name: F#4, Velocity: 96
Note OFF: Time 45000, Note Name: F#4
Note ON: Time 45000, Note Name: F#4, Velocity: 83
Note OFF: Time 45120, Note Name: F#4
Note ON: Time 45120, Note Name: E4, Velocity: 100
Note OFF: Time 45480, Note Name: E4
Note ON: Time 45480, Note Name: E4, Velocity: 79
Note OFF: Time 45600, Note Name: E4
Note ON: Time 45600, Note Name: D4, Velocity: 90
Note OFF: Time 45960, Note Name: D4
Note ON: Time 45960, Note Name: D4, Velocity: 76
Note OFF: Time 46080, Note Name: D4
Note ON: Time 46080, Note Name: C#4, Velocity: 89
Note OFF: Time 46440, Note Name: C#4
Note ON: Time 46440, Note Name: C#4, Velocity: 73
Note OFF: Time 46560, Note Name: C#4
Note ON: Time 46560, Note Name: C#4, Velocity: 87
Note OFF: Time 46920, Note Name: C#4
Note ON: Time 46920, Note Name: C#4, Velocity: 73
Note OFF: Time 47040, Note Name: C#4
Note ON: Time 47040, Note Name: C#4, Velocity: 89
Note OFF: Time 47400, Note Name: C#4
Note ON: Time 47400, Note Name: C#4, Velocity: 72
Note OFF: Time 47520, Note Name: C#4
Note ON: Time 47520, Note Name: C#4, Velocity: 85
Note OFF: Time 47880, Note Name: C#4
Note ON: Time 47880, Note Name: C#4, Velocity: 61
Note OFF: Time 48000, Note Name: C#4
Note ON: Time 48000, Note Name: C#4, Velocity: 89
Note OFF: Time 48360, Note Name: C#4
Note ON: Time 48360, Note Name: C#4, Velocity: 58
Note OFF: Time 48480, Note Name: C#4
Note ON: Time 48480, Note Name: C#4, Velocity: 79
Note OFF: Time 48840, Note Name: C#4
Note ON: Time 48840, Note Name: C#4, Velocity: 58
Note OFF: Time 48960, Note Name: C#4
Note ON: Time 48960, Note Name: C#4, Velocity: 79
Note OFF: Time 49320, Note Name: C#4
Note ON: Time 49320, Note Name: C#4, Velocity: 55
Note OFF: Time 49440, Note Name: C#4
Note ON: Time 49440, Note Name: C#4, Velocity: 73
Note OFF: Time 49800, Note Name: C#4
Note ON: Time 49800, Note Name: C#4, Velocity: 50
Note OFF: Time 49920, Note Name: C#4
Note ON: Time 49920, Note Name: C#4, Velocity: 69
Note OFF: Time 50280, Note Name: C#4
Note ON: Time 50280, Note Name: C#4, Velocity: 52
Note OFF: Time 50400, Note Name: C#4
Note ON: Time 50400, Note Name: C#4, Velocity: 68
Note OFF: Time 50760, Note Name: C#4
Note ON: Time 50760, Note Name: C#4, Velocity: 50
Note OFF: Time 50880, Note Name: C#4
Note ON: Time 50880, Note Name: C#4, Velocity: 69
Note OFF: Time 51240, Note Name: C#4
Note ON: Time 51240, Note Name: C#4, Velocity: 49
Note OFF: Time 51360, Note Name: C#4
Note ON: Time 51360, Note Name: C#4, Velocity: 71
Note OFF: Time 51720, Note Name: C#4
Note ON: Time 51720, Note Name: C#4, Velocity: 49
Note OFF: Time 51840, Note Name: C#4
Note ON: Time 51840, Note Name: D4, Velocity: 66
Note OFF: Time 52200, Note Name: D4
Note ON: Time 52200, Note Name: D4, Velocity: 49
Note OFF: Time 52320, Note Name: D4
Note ON: Time 52320, Note Name: D4, Velocity: 63
Note OFF: Time 52680, Note Name: D4
Note ON: Time 52680, Note Name: D4, Velocity: 49
Note OFF: Time 52800, Note Name: D4
Note ON: Time 52800, Note Name: D4, Velocity: 69
Note OFF: Time 53160, Note Name: D4
Note ON: Time 53160, Note Name: D4, Velocity: 50
Note OFF: Time 53280, Note Name: D4
Note ON: Time 53280, Note Name: F#4, Velocity: 71
Note OFF: Time 53640, Note Name: F#4
Note ON: Time 53640, Note Name: D4, Velocity: 47
Note OFF: Time 53760, Note Name: D4
Note ON: Time 53760, Note Name: C#4, Velocity: 59
Note OFF: Time 54120, Note Name: C#4
Note ON: Time 54120, Note Name: C#4, Velocity: 41
Note OFF: Time 54240, Note Name: C#4
Note ON: Time 54240, Note Name: C#4, Velocity: 58
Note OFF: Time 54600, Note Name: C#4
Note ON: Time 54600, Note Name: C#4, Velocity: 41
Note OFF: Time 54720, Note Name: C#4
Note ON: Time 54720, Note Name: C#4, Velocity: 58
Note OFF: Time 55080, Note Name: C#4
Note ON: Time 55080, Note Name: C#4, Velocity: 40
Note OFF: Time 55200, Note Name: C#4
Note ON: Time 55200, Note Name: C#4, Velocity: 58
Note OFF: Time 55560, Note Name: C#4
Note ON: Time 55560, Note Name: C#4, Velocity: 36
Note OFF: Time 55680, Note Name: C#4
Note ON: Time 55680, Note Name: D#4, Velocity: 56
Note OFF: Time 56040, Note Name: D#4
Note ON: Time 56040, Note Name: D#4, Velocity: 38
Note OFF: Time 56160, Note Name: D#4
Note ON: Time 56160, Note Name: D#4, Velocity: 58
Note OFF: Time 56520, Note Name: D#4
Note ON: Time 56520, Note Name: D#4, Velocity: 40
Note OFF: Time 56640, Note Name: D#4
Note ON: Time 56640, Note Name: D#4, Velocity: 61
Note OFF: Time 57000, Note Name: D#4
Note ON: Time 57000, Note Name: D#4, Velocity: 41
Note OFF: Time 57120, Note Name: D#4
Note ON: Time 57120, Note Name: F#4, Velocity: 63
Note OFF: Time 57480, Note Name: F#4
Note ON: Time 57480, Note Name: D#4, Velocity: 37
Note OFF: Time 57600, Note Name: D#4
Note ON: Time 57600, Note Name: C#4, Velocity: 57
Note OFF: Time 57960, Note Name: C#4
Note ON: Time 57960, Note Name: C#4, Velocity: 37
Note OFF: Time 58080, Note Name: C#4
Note ON: Time 58080, Note Name: C#4, Velocity: 56
Note OFF: Time 58440, Note Name: C#4
Note ON: Time 58440, Note Name: C#4, Velocity: 37
Note OFF: Time 58560, Note Name: C#4
Note ON: Time 58560, Note Name: C#4, Velocity: 57
Note OFF: Time 58920, Note Name: C#4
Note ON: Time 58920, Note Name: C#4, Velocity: 41
Note OFF: Time 59040, Note Name: C#4
Note ON: Time 59040, Note Name: C#4, Velocity: 61
Note OFF: Time 59400, Note Name: C#4
Note ON: Time 59400, Note Name: C#4, Velocity: 38
Note OFF: Time 59520, Note Name: C#4
Note ON: Time 59520, Note Name: C#4, Velocity: 58
Note OFF: Time 59880, Note Name: C#4
Note ON: Time 59880, Note Name: C#4, Velocity: 38
Note OFF: Time 60000, Note Name: C#4
Note ON: Time 60000, Note Name: C#4, Velocity: 55
Note OFF: Time 60360, Note Name: C#4
Note ON: Time 60360, Note Name: C#4, Velocity: 34
Note OFF: Time 60480, Note Name: C#4
Note ON: Time 60480, Note Name: C#4, Velocity: 49
Note OFF: Time 60840, Note Name: C#4
Note ON: Time 60840, Note Name: C#4, Velocity: 34
Note OFF: Time 60960, Note Name: C#4
Note ON: Time 60960, Note Name: C#4, Velocity: 44
Note OFF: Time 61320, Note Name: C#4
Note ON: Time 61320, Note Name: C#4, Velocity: 36
Note OFF: Time 61440, Note Name: C#4
Note ON: Time 61440, Note Name: C#5, Velocity: 46
Note ON: Time 61440, Note Name: E4, Velocity: 39
Note ON: Time 61440, Note Name: C#4, Velocity: 39
Note OFF: Time 62400, Note Name: C#4
Note OFF: Time 62400, Note Name: E4
Note OFF: Time 62400, Note Name: C#5
Note ON: Time 62400, Note Name: D4, Velocity: 36
Note ON: Time 62400, Note Name: G4, Velocity: 36
Note ON: Time 62400, Note Name: B4, Velocity: 43
Note OFF: Time 62880, Note Name: B4
Note OFF: Time 62880, Note Name: G4
Note OFF: Time 62880, Note Name: D4
Note ON: Time 62880, Note Name: B3, Velocity: 33
Note ON: Time 62880, Note Name: C#4, Velocity: 33
Note ON: Time 62880, Note Name: F4, Velocity: 39
Note OFF: Time 63360, Note Name: F4
Note OFF: Time 63360, Note Name: C#4
Note OFF: Time 63360, Note Name: B3
Note ON: Time 63360, Note Name: F4, Velocity: 29
Note OFF: Time 63480, Note Name: F4
Note ON: Time 63840, Note Name: C#4, Velocity: 25
Note ON: Time 63960, Note Name: F#4, Velocity: 22
Note OFF: Time 65280, Note Name: F#4
Note OFF: Time 65280, Note Name: C#4
Track 3: Piano left
Note ON: Time 0, Note Name: A3, Velocity: 44
Note OFF: Time 80, Note Name: A3
Note ON: Time 80, Note Name: C#3, Velocity: 37
Note OFF: Time 160, Note Name: C#3
Note ON: Time 160, Note Name: F#3, Velocity: 39
Note OFF: Time 240, Note Name: F#3
Note ON: Time 240, Note Name: F#2, Velocity: 34
Note OFF: Time 480, Note Name: F#2
Note ON: Time 480, Note Name: A3, Velocity: 47
Note OFF: Time 560, Note Name: A3
Note ON: Time 560, Note Name: C#3, Velocity: 40
Note OFF: Time 640, Note Name: C#3
Note ON: Time 640, Note Name: F#3, Velocity: 44
Note OFF: Time 720, Note Name: F#3
Note ON: Time 720, Note Name: A2, Velocity: 37
Note OFF: Time 960, Note Name: A2
Note ON: Time 960, Note Name: D4, Velocity: 57
Note OFF: Time 1040, Note Name: D4
Note ON: Time 1040, Note Name: G#3, Velocity: 49
Note OFF: Time 1120, Note Name: G#3
Note ON: Time 1120, Note Name: B3, Velocity: 52
Note OFF: Time 1200, Note Name: B3
Note ON: Time 1200, Note Name: D3, Velocity: 45
Note OFF: Time 1440, Note Name: D3
Note ON: Time 1440, Note Name: C#4, Velocity: 53
Note OFF: Time 1520, Note Name: C#4
Note ON: Time 1520, Note Name: F3, Velocity: 42
Note OFF: Time 1600, Note Name: F3
Note ON: Time 1600, Note Name: B3, Velocity: 50
Note OFF: Time 1680, Note Name: B3
Note ON: Time 1680, Note Name: C#3, Velocity: 39
Note OFF: Time 1920, Note Name: C#3
Note ON: Time 1920, Note Name: A3, Velocity: 53
Note OFF: Time 2000, Note Name: A3
Note ON: Time 2000, Note Name: C#3, Velocity: 39
Note OFF: Time 2080, Note Name: C#3
Note ON: Time 2080, Note Name: F#3, Velocity: 48
Note OFF: Time 2160, Note Name: F#3
Note ON: Time 2160, Note Name: F#2, Velocity: 36
Note OFF: Time 2400, Note Name: F#2
Note ON: Time 2400, Note Name: A3, Velocity: 51
Note OFF: Time 2480, Note Name: A3
Note ON: Time 2480, Note Name: C#3, Velocity: 38
Note OFF: Time 2560, Note Name: C#3
Note ON: Time 2560, Note Name: F#3, Velocity: 46
Note OFF: Time 2640, Note Name: F#3
Note ON: Time 2640, Note Name: A2, Velocity: 36
Note OFF: Time 2880, Note Name: A2
Note ON: Time 2880, Note Name: D4, Velocity: 57
Note OFF: Time 2960, Note Name: D4
Note ON: Time 2960, Note Name: G#3, Velocity: 45
Note OFF: Time 3040, Note Name: G#3
Note ON: Time 3040, Note Name: B3, Velocity: 51
Note OFF: Time 3120, Note Name: B3
Note ON: Time 3120, Note Name: D3, Velocity: 41
Note OFF: Time 3360, Note Name: D3
Note ON: Time 3360, Note Name: C#4, Velocity: 50
Note OFF: Time 3440, Note Name: C#4
Note ON: Time 3440, Note Name: F3, Velocity: 41
Note OFF: Time 3520, Note Name: F3
Note ON: Time 3520, Note Name: B3, Velocity: 44
Note OFF: Time 3600, Note Name: B3
Note ON: Time 3600, Note Name: C#3, Velocity: 37
Note OFF: Time 3840, Note Name: C#3
Note ON: Time 3840, Note Name: A4, Velocity: 57
Note OFF: Time 3920, Note Name: A4
Note ON: Time 3920, Note Name: D#4, Velocity: 46
Note OFF: Time 4000, Note Name: D#4
Note ON: Time 4000, Note Name: F#4, Velocity: 55
Note OFF: Time 4080, Note Name: F#4
Note ON: Time 4080, Note Name: A3, Velocity: 49
Note OFF: Time 4320, Note Name: A3
Note ON: Time 4320, Note Name: G#4, Velocity: 57
Note OFF: Time 4400, Note Name: G#4
Note ON: Time 4400, Note Name: D#4, Velocity: 50
Note OFF: Time 4480, Note Name: D#4
Note ON: Time 4480, Note Name: F#4, Velocity: 57
Note OFF: Time 4560, Note Name: F#4
Note ON: Time 4560, Note Name: G#3, Velocity: 46
Note OFF: Time 4800, Note Name: G#3
Note ON: Time 4800, Note Name: G4, Velocity: 59
Note OFF: Time 4880, Note Name: G4
Note ON: Time 4880, Note Name: C#4, Velocity: 49
Note OFF: Time 4960, Note Name: C#4
Note ON: Time 4960, Note Name: E4, Velocity: 57
Note OFF: Time 5040, Note Name: E4
Note ON: Time 5040, Note Name: G3, Velocity: 44
Note OFF: Time 5280, Note Name: G3
Note ON: Time 5280, Note Name: F#4, Velocity: 57
Note OFF: Time 5360, Note Name: F#4
Note ON: Time 5360, Note Name: C#4, Velocity: 47
Note OFF: Time 5440, Note Name: C#4
Note ON: Time 5440, Note Name: E4, Velocity: 53
Note OFF: Time 5520, Note Name: E4
Note ON: Time 5520, Note Name: F#3, Velocity: 46
Note OFF: Time 5760, Note Name: F#3
Note ON: Time 5760, Note Name: F4, Velocity: 58
Note OFF: Time 5840, Note Name: F4
Note ON: Time 5840, Note Name: C4, Velocity: 49
Note OFF: Time 5920, Note Name: C4
Note ON: Time 5920, Note Name: D#4, Velocity: 55
Note OFF: Time 6000, Note Name: D#4
Note ON: Time 6000, Note Name: F3, Velocity: 45
Note OFF: Time 6240, Note Name: F3
Note ON: Time 6240, Note Name: F4, Velocity: 55
Note OFF: Time 6320, Note Name: F4
Note ON: Time 6320, Note Name: B3, Velocity: 48
Note OFF: Time 6400, Note Name: B3
Note ON: Time 6400, Note Name: D4, Velocity: 52
Note OFF: Time 6480, Note Name: D4
Note ON: Time 6480, Note Name: F3, Velocity: 46
Note OFF: Time 6720, Note Name: F3
Note ON: Time 6720, Note Name: D4, Velocity: 57
Note OFF: Time 6800, Note Name: D4
Note ON: Time 6800, Note Name: G#3, Velocity: 51
Note OFF: Time 6880, Note Name: G#3
Note ON: Time 6880, Note Name: B3, Velocity: 53
Note OFF: Time 6960, Note Name: B3
Note ON: Time 6960, Note Name: D3, Velocity: 48
Note OFF: Time 7200, Note Name: D3
Note ON: Time 7200, Note Name: B3, Velocity: 58
Note OFF: Time 7280, Note Name: B3
Note ON: Time 7280, Note Name: C#3, Velocity: 46
Note OFF: Time 7360, Note Name: C#3
Note ON: Time 7360, Note Name: F3, Velocity: 51
Note OFF: Time 7440, Note Name: F3
Note ON: Time 7440, Note Name: C#2, Velocity: 42
Note OFF: Time 7680, Note Name: C#2
Note ON: Time 7680, Note Name: A3, Velocity: 56
Note OFF: Time 7760, Note Name: A3
Note ON: Time 7760, Note Name: C#3, Velocity: 44
Note OFF: Time 7840, Note Name: C#3
Note ON: Time 7840, Note Name: F#3, Velocity: 50
Note OFF: Time 7920, Note Name: F#3
Note ON: Time 7920, Note Name: F#2, Velocity: 38
Note OFF: Time 8160, Note Name: F#2
Note ON: Time 8160, Note Name: A3, Velocity: 59
Note OFF: Time 8240, Note Name: A3
Note ON: Time 8240, Note Name: C#3, Velocity: 49
Note OFF: Time 8320, Note Name: C#3
Note ON: Time 8320, Note Name: F#3, Velocity: 53
Note OFF: Time 8400, Note Name: F#3
Note ON: Time 8400, Note Name: A2, Velocity: 45
Note OFF: Time 8640, Note Name: A2
Note ON: Time 8640, Note Name: D4, Velocity: 60
Note OFF: Time 8720, Note Name: D4
Note ON: Time 8720, Note Name: G#3, Velocity: 49
Note OFF: Time 8800, Note Name: G#3
Note ON: Time 8800, Note Name: B3, Velocity: 55
Note OFF: Time 8880, Note Name: B3
Note ON: Time 8880, Note Name: D3, Velocity: 44
Note OFF: Time 9120, Note Name: D3
Note ON: Time 9120, Note Name: C#4, Velocity: 56
Note OFF: Time 9200, Note Name: C#4
Note ON: Time 9200, Note Name: F3, Velocity: 39
Note OFF: Time 9280, Note Name: F3
Note ON: Time 9280, Note Name: B3, Velocity: 48
Note OFF: Time 9360, Note Name: B3
Note ON: Time 9360, Note Name: C#3, Velocity: 37
Note OFF: Time 9600, Note Name: C#3
Note ON: Time 9600, Note Name: A3, Velocity: 58
Note OFF: Time 9680, Note Name: A3
Note ON: Time 9680, Note Name: C#3, Velocity: 40
Note OFF: Time 9760, Note Name: C#3
Note ON: Time 9760, Note Name: F#3, Velocity: 50
Note OFF: Time 9840, Note Name: F#3
Note ON: Time 9840, Note Name: F#2, Velocity: 40
Note OFF: Time 10080, Note Name: F#2
Note ON: Time 10080, Note Name: A3, Velocity: 57
Note OFF: Time 10160, Note Name: A3
Note ON: Time 10160, Note Name: C#3, Velocity: 40
Note OFF: Time 10240, Note Name: C#3
Note ON: Time 10240, Note Name: F#3, Velocity: 48
Note OFF: Time 10320, Note Name: F#3
Note ON: Time 10320, Note Name: A2, Velocity: 39
Note OFF: Time 10560, Note Name: A2
Note ON: Time 10560, Note Name: F4, Velocity: 60
Note OFF: Time 10640, Note Name: F4
Note ON: Time 10640, Note Name: B3, Velocity: 42
Note OFF: Time 10720, Note Name: B3
Note ON: Time 10720, Note Name: D4, Velocity: 49
Note OFF: Time 10800, Note Name: D4
Note ON: Time 10800, Note Name: F3, Velocity: 41
Note OFF: Time 11040, Note Name: F3
Note ON: Time 11040, Note Name: E4, Velocity: 58
Note OFF: Time 11120, Note Name: E4
Note ON: Time 11120, Note Name: G#3, Velocity: 44
Note OFF: Time 11200, Note Name: G#3
Note ON: Time 11200, Note Name: D4, Velocity: 50
Note OFF: Time 11280, Note Name: D4
Note ON: Time 11280, Note Name: E3, Velocity: 42
Note OFF: Time 11520, Note Name: E3
Note ON: Time 11520, Note Name: C5, Velocity: 58
Note OFF: Time 11600, Note Name: C5
Note ON: Time 11600, Note Name: F#4, Velocity: 46
Note OFF: Time 11680, Note Name: F#4
Note ON: Time 11680, Note Name: A4, Velocity: 50
Note OFF: Time 11760, Note Name: A4
Note ON: Time 11760, Note Name: C4, Velocity: 42
Note OFF: Time 12000, Note Name: C4
Note ON: Time 12000, Note Name: B4, Velocity: 59
Note OFF: Time 12080, Note Name: B4
Note ON: Time 12080, Note Name: F#4, Velocity: 46
Note OFF: Time 12160, Note Name: F#4
Note ON: Time 12160, Note Name: A4, Velocity: 50
Note OFF: Time 12240, Note Name: A4
Note ON: Time 12240, Note Name: B3, Velocity: 41
Note OFF: Time 12480, Note Name: B3
Note ON: Time 12480, Note Name: A#4, Velocity: 57
Note OFF: Time 12560, Note Name: A#4
Note ON: Time 12560, Note Name: F4, Velocity: 46
Note OFF: Time 12640, Note Name: F4
Note ON: Time 12640, Note Name: G#4, Velocity: 51
Note OFF: Time 12720, Note Name: G#4
Note ON: Time 12720, Note Name: A#3, Velocity: 44
Note OFF: Time 12960, Note Name: A#3
Note ON: Time 12960, Note Name: A4, Velocity: 57
Note OFF: Time 13040, Note Name: A4
Note ON: Time 13040, Note Name: E4, Velocity: 45
Note OFF: Time 13120, Note Name: E4
Note ON: Time 13120, Note Name: G4, Velocity: 51
Note OFF: Time 13200, Note Name: G4
Note ON: Time 13200, Note Name: A3, Velocity: 40
Note OFF: Time 13440, Note Name: A3
Note ON: Time 13440, Note Name: G#4, Velocity: 52
Note OFF: Time 13520, Note Name: G#4
Note ON: Time 13520, Note Name: D#4, Velocity: 46
Note OFF: Time 13600, Note Name: D#4
Note ON: Time 13600, Note Name: F#4, Velocity: 51
Note OFF: Time 13680, Note Name: F#4
Note ON: Time 13680, Note Name: G#3, Velocity: 42
Note OFF: Time 13920, Note Name: G#3
Note ON: Time 13920, Note Name: G4, Velocity: 55
Note OFF: Time 14000, Note Name: G4
Note ON: Time 14000, Note Name: D4, Velocity: 45
Note OFF: Time 14080, Note Name: D4
Note ON: Time 14080, Note Name: F4, Velocity: 49
Note OFF: Time 14160, Note Name: F4
Note ON: Time 14160, Note Name: G3, Velocity: 40
Note OFF: Time 14400, Note Name: G3
Note ON: Time 14400, Note Name: G4, Velocity: 55
Note OFF: Time 14480, Note Name: G4
Note ON: Time 14480, Note Name: C#4, Velocity: 42
Note OFF: Time 14560, Note Name: C#4
Note ON: Time 14560, Note Name: E4, Velocity: 49
Note OFF: Time 14640, Note Name: E4
Note ON: Time 14640, Note Name: G3, Velocity: 42
Note OFF: Time 14880, Note Name: G3
Note ON: Time 14880, Note Name: F#4, Velocity: 53
Note OFF: Time 14960, Note Name: F#4
Note ON: Time 14960, Note Name: C#4, Velocity: 40
Note OFF: Time 15040, Note Name: C#4
Note ON: Time 15040, Note Name: E4, Velocity: 47
Note OFF: Time 15120, Note Name: E4
Note ON: Time 15120, Note Name: F#3, Velocity: 40
Note OFF: Time 15360, Note Name: F#3
Note ON: Time 15360, Note Name: F4, Velocity: 52
Note OFF: Time 15440, Note Name: F4
Note ON: Time 15440, Note Name: A#3, Velocity: 40
Note OFF: Time 15520, Note Name: A#3
Note ON: Time 15520, Note Name: D4, Velocity: 49
Note OFF: Time 15600, Note Name: D4
Note ON: Time 15600, Note Name: F3, Velocity: 39
Note OFF: Time 15840, Note Name: F3
Note ON: Time 15840, Note Name: F4, Velocity: 51
Note OFF: Time 15920, Note Name: F4
Note ON: Time 15920, Note Name: B3, Velocity: 41
Note OFF: Time 16000, Note Name: B3
Note ON: Time 16000, Note Name: D4, Velocity: 48
Note OFF: Time 16080, Note Name: D4
Note ON: Time 16080, Note Name: F3, Velocity: 41
Note OFF: Time 16320, Note Name: F3
Note ON: Time 16320, Note Name: F4, Velocity: 53
Note OFF: Time 16400, Note Name: F4
Note ON: Time 16400, Note Name: G3, Velocity: 42
Note OFF: Time 16480, Note Name: G3
Note ON: Time 16480, Note Name: B3, Velocity: 49
Note OFF: Time 16560, Note Name: B3
Note ON: Time 16560, Note Name: F3, Velocity: 41
Note OFF: Time 16800, Note Name: F3
Note ON: Time 16800, Note Name: D#4, Velocity: 53
Note OFF: Time 16880, Note Name: D#4
Note ON: Time 16880, Note Name: G3, Velocity: 45
Note OFF: Time 16960, Note Name: G3
Note ON: Time 16960, Note Name: C4, Velocity: 50
Note OFF: Time 17040, Note Name: C4
Note ON: Time 17040, Note Name: F3, Velocity: 41
Note OFF: Time 17280, Note Name: F3
Note ON: Time 17280, Note Name: G4, Velocity: 56
Note OFF: Time 17360, Note Name: G4
Note ON: Time 17360, Note Name: C4, Velocity: 46
Note OFF: Time 17440, Note Name: C4
Note ON: Time 17440, Note Name: D#4, Velocity: 50
Note OFF: Time 17520, Note Name: D#4
Note ON: Time 17520, Note Name: F3, Velocity: 40
Note OFF: Time 17760, Note Name: F3
Note ON: Time 17760, Note Name: G4, Velocity: 55
Note OFF: Time 17840, Note Name: G4
Note ON: Time 17840, Note Name: C#4, Velocity: 45
Note OFF: Time 17920, Note Name: C#4
Note ON: Time 17920, Note Name: E4, Velocity: 51
Note OFF: Time 18000, Note Name: E4
Note ON: Time 18000, Note Name: F3, Velocity: 39
Note OFF: Time 18240, Note Name: F3
Note ON: Time 18240, Note Name: G4, Velocity: 55
Note OFF: Time 18320, Note Name: G4
Note ON: Time 18320, Note Name: A3, Velocity: 48
Note OFF: Time 18400, Note Name: A3
Note ON: Time 18400, Note Name: C#4, Velocity: 52
Note OFF: Time 18480, Note Name: C#4
Note ON: Time 18480, Note Name: F3, Velocity: 40
Note OFF: Time 18720, Note Name: F3
Note ON: Time 18720, Note Name: F4, Velocity: 56
Note OFF: Time 18800, Note Name: F4
Note ON: Time 18800, Note Name: A3, Velocity: 50
Note OFF: Time 18880, Note Name: A3
Note ON: Time 18880, Note Name: D4, Velocity: 52
Note OFF: Time 18960, Note Name: D4
Note ON: Time 18960, Note Name: F3, Velocity: 47
Note OFF: Time 19200, Note Name: F3
Note ON: Time 19200, Note Name: F4, Velocity: 61
Note OFF: Time 19280, Note Name: F4
Note ON: Time 19280, Note Name: A3, Velocity: 51
Note OFF: Time 19360, Note Name: A3
Note ON: Time 19360, Note Name: D#4, Velocity: 57
Note OFF: Time 19440, Note Name: D#4
Note ON: Time 19440, Note Name: F3, Velocity: 48
Note OFF: Time 19680, Note Name: F3
Note ON: Time 19680, Note Name: D4, Velocity: 62
Note OFF: Time 19760, Note Name: D4
Note ON: Time 19760, Note Name: F3, Velocity: 49
Note OFF: Time 19840, Note Name: F3
Note ON: Time 19840, Note Name: A#3, Velocity: 57
Note OFF: Time 19920, Note Name: A#3
Note ON: Time 19920, Note Name: A#2, Velocity: 47
Note OFF: Time 20160, Note Name: A#2
Note ON: Time 20160, Note Name: D4, Velocity: 58
Note OFF: Time 20240, Note Name: D4
Note ON: Time 20240, Note Name: F#3, Velocity: 51
Note OFF: Time 20320, Note Name: F#3
Note ON: Time 20320, Note Name: C4, Velocity: 58
Note OFF: Time 20400, Note Name: C4
Note ON: Time 20400, Note Name: D3, Velocity: 49
Note OFF: Time 20640, Note Name: D3
Note ON: Time 20640, Note Name: A#3, Velocity: 61
Note OFF: Time 20720, Note Name: A#3
Note ON: Time 20720, Note Name: D3, Velocity: 50
Note OFF: Time 20800, Note Name: D3
Note ON: Time 20800, Note Name: G3, Velocity: 56
Note OFF: Time 20880, Note Name: G3
Note ON: Time 20880, Note Name: G2, Velocity: 45
Note OFF: Time 21120, Note Name: G2
Note ON: Time 21120, Note Name: A#3, Velocity: 62
Note OFF: Time 21200, Note Name: A#3
Note ON: Time 21200, Note Name: D3, Velocity: 56
Note OFF: Time 21280, Note Name: D3
Note ON: Time 21280, Note Name: G#3, Velocity: 63
Note OFF: Time 21360, Note Name: G#3
Note ON: Time 21360, Note Name: A#2, Velocity: 53
Note OFF: Time 21600, Note Name: A#2
Note ON: Time 21600, Note Name: A#3, Velocity: 62
Note OFF: Time 21680, Note Name: A#3
Note ON: Time 21680, Note Name: D3, Velocity: 58
Note OFF: Time 21760, Note Name: D3
Note ON: Time 21760, Note Name: G#3, Velocity: 63
Note OFF: Time 21840, Note Name: G#3
Note ON: Time 21840, Note Name: A#2, Velocity: 56
Note OFF: Time 22080, Note Name: A#2
Note ON: Time 22080, Note Name: G#3, Velocity: 64
Note OFF: Time 22160, Note Name: G#3
Note ON: Time 22160, Note Name: A#2, Velocity: 58
Note OFF: Time 22240, Note Name: A#2
Note ON: Time 22240, Note Name: D3, Velocity: 64
Note OFF: Time 22320, Note Name: D3
Note ON: Time 22320, Note Name: D#2, Velocity: 58
Note OFF: Time 22560, Note Name: D#2
Note ON: Time 22560, Note Name: F#3, Velocity: 67
Note OFF: Time 22640, Note Name: F#3
Note ON: Time 22640, Note Name: A#2, Velocity: 60
Note OFF: Time 22720, Note Name: A#2
Note ON: Time 22720, Note Name: D#3, Velocity: 63
Note OFF: Time 22800, Note Name: D#3
Note ON: Time 22800, Note Name: D#2, Velocity: 57
Note OFF: Time 23040, Note Name: D#2
Note ON: Time 23040, Note Name: G#3, Velocity: 65
Note OFF: Time 23120, Note Name: G#3
Note ON: Time 23120, Note Name: G#2, Velocity: 56
Note OFF: Time 23200, Note Name: G#2
Note ON: Time 23200, Note Name: C#3, Velocity: 64
Note OFF: Time 23280, Note Name: C#3
Note ON: Time 23280, Note Name: E2, Velocity: 56
Note OFF: Time 23520, Note Name: E2
Note ON: Time 23520, Note Name: G#3, Velocity: 65
Note OFF: Time 23600, Note Name: G#3
Note ON: Time 23600, Note Name: G#2, Velocity: 63
Note OFF: Time 23680, Note Name: G#2
Note ON: Time 23680, Note Name: C#3, Velocity: 66
Note OFF: Time 23760, Note Name: C#3
Note ON: Time 23760, Note Name: E2, Velocity: 60
Note OFF: Time 24000, Note Name: E2
Note ON: Time 24000, Note Name: F#3, Velocity: 69
Note OFF: Time 24080, Note Name: F#3
Note ON: Time 24080, Note Name: B2, Velocity: 63
Note OFF: Time 24160, Note Name: B2
Note ON: Time 24160, Note Name: D#3, Velocity: 66
Note OFF: Time 24240, Note Name: D#3
Note ON: Time 24240, Note Name: F#2, Velocity: 57
Note OFF: Time 24480, Note Name: F#2
Note ON: Time 24480, Note Name: F#3, Velocity: 70
Note OFF: Time 24560, Note Name: F#3
Note ON: Time 24560, Note Name: B2, Velocity: 63
Note OFF: Time 24640, Note Name: B2
Note ON: Time 24640, Note Name: D#3, Velocity: 69
Note OFF: Time 24720, Note Name: D#3
Note ON: Time 24720, Note Name: F#2, Velocity: 63
Note OFF: Time 24960, Note Name: F#2
Note ON: Time 24960, Note Name: F#3, Velocity: 77
Note OFF: Time 25040, Note Name: F#3
Note ON: Time 25040, Note Name: A#2, Velocity: 65
Note OFF: Time 25120, Note Name: A#2
Note ON: Time 25120, Note Name: E3, Velocity: 72
Note OFF: Time 25200, Note Name: E3
Note ON: Time 25200, Note Name: F#2, Velocity: 64
Note OFF: Time 25440, Note Name: F#2
Note ON: Time 25440, Note Name: F#3, Velocity: 75
Note OFF: Time 25520, Note Name: F#3
Note ON: Time 25520, Note Name: A#2, Velocity: 63
Note OFF: Time 25600, Note Name: A#2
Note ON: Time 25600, Note Name: E3, Velocity: 72
Note OFF: Time 25680, Note Name: E3
Note ON: Time 25680, Note Name: F#2, Velocity: 64
Note OFF: Time 25920, Note Name: F#2
Note ON: Time 25920, Note Name: E3, Velocity: 81
Note OFF: Time 26000, Note Name: E3
Note ON: Time 26000, Note Name: F#2, Velocity: 65
Note OFF: Time 26080, Note Name: F#2
Note ON: Time 26080, Note Name: A#2, Velocity: 72
Note OFF: Time 26160, Note Name: A#2
Note ON: Time 26160, Note Name: B1, Velocity: 65
Note OFF: Time 26400, Note Name: B1
Note ON: Time 26400, Note Name: D#3, Velocity: 75
Note OFF: Time 26480, Note Name: D#3
Note ON: Time 26480, Note Name: F#2, Velocity: 64
Note OFF: Time 26560, Note Name: F#2
Note ON: Time 26560, Note Name: B2, Velocity: 70
Note OFF: Time 26640, Note Name: B2
Note ON: Time 26640, Note Name: B1, Velocity: 61
Note OFF: Time 26880, Note Name: B1
Note ON: Time 26880, Note Name: G#3, Velocity: 77
Note OFF: Time 26960, Note Name: G#3
Note ON: Time 26960, Note Name: B2, Velocity: 66
Note OFF: Time 27040, Note Name: B2
Note ON: Time 27040, Note Name: D#3, Velocity: 73
Note OFF: Time 27120, Note Name: D#3
Note ON: Time 27120, Note Name: F2, Velocity: 67
Note OFF: Time 27360, Note Name: F2
Note ON: Time 27360, Note Name: G#3, Velocity: 76
Note OFF: Time 27440, Note Name: G#3
Note ON: Time 27440, Note Name: B2, Velocity: 70
Note OFF: Time 27520, Note Name: B2
Note ON: Time 27520, Note Name: D#3, Velocity: 77
Note OFF: Time 27600, Note Name: D#3
Note ON: Time 27600, Note Name: F2, Velocity: 72
Note OFF: Time 27840, Note Name: F2
Note ON: Time 27840, Note Name: D4, Velocity: 83
Note OFF: Time 27920, Note Name: D4
Note ON: Time 27920, Note Name: F3, Velocity: 71
Note OFF: Time 28000, Note Name: F3
Note ON: Time 28000, Note Name: A#3, Velocity: 77
Note OFF: Time 28080, Note Name: A#3
Note ON: Time 28080, Note Name: A#2, Velocity: 71
Note OFF: Time 28320, Note Name: A#2
Note ON: Time 28320, Note Name: D4, Velocity: 79
Note OFF: Time 28400, Note Name: D4
Note ON: Time 28400, Note Name: F3, Velocity: 72
Note OFF: Time 28480, Note Name: F3
Note ON: Time 28480, Note Name: A#3, Velocity: 76
Note OFF: Time 28560, Note Name: A#3
Note ON: Time 28560, Note Name: A#2, Velocity: 71
Note OFF: Time 28800, Note Name: A#2
Note ON: Time 28800, Note Name: G#3, Velocity: 82
Note OFF: Time 28880, Note Name: G#3
Note ON: Time 28880, Note Name: B2, Velocity: 72
Note OFF: Time 28960, Note Name: B2
Note ON: Time 28960, Note Name: D#3, Velocity: 76
Note OFF: Time 29040, Note Name: D#3
Note ON: Time 29040, Note Name: F2, Velocity: 72
Note OFF: Time 29280, Note Name: F2
Note ON: Time 29280, Note Name: G#3, Velocity: 77
Note OFF: Time 29360, Note Name: G#3
Note ON: Time 29360, Note Name: B2, Velocity: 68
Note OFF: Time 29440, Note Name: B2
Note ON: Time 29440, Note Name: D#3, Velocity: 73
Note OFF: Time 29520, Note Name: D#3
Note ON: Time 29520, Note Name: F2, Velocity: 65
Note OFF: Time 29760, Note Name: F2
Note ON: Time 29760, Note Name: D4, Velocity: 82
Note OFF: Time 29840, Note Name: D4
Note ON: Time 29840, Note Name: F3, Velocity: 71
Note OFF: Time 29920, Note Name: F3
Note ON: Time 29920, Note Name: A#3, Velocity: 77
Note OFF: Time 30000, Note Name: A#3
Note ON: Time 30000, Note Name: A#2, Velocity: 70
Note OFF: Time 30240, Note Name: A#2
Note ON: Time 30240, Note Name: D4, Velocity: 75
Note OFF: Time 30320, Note Name: D4
Note ON: Time 30320, Note Name: F3, Velocity: 66
Note OFF: Time 30400, Note Name: F3
Note ON: Time 30400, Note Name: A#3, Velocity: 72
Note OFF: Time 30480, Note Name: A#3
Note ON: Time 30480, Note Name: A#2, Velocity: 66
Note OFF: Time 30720, Note Name: A#2
Note ON: Time 30720, Note Name: G#3, Velocity: 59
Note OFF: Time 30800, Note Name: G#3
Note ON: Time 30800, Note Name: B2, Velocity: 48
Note OFF: Time 30880, Note Name: B2
Note ON: Time 30880, Note Name: D#3, Velocity: 55
Note OFF: Time 30960, Note Name: D#3
Note ON: Time 30960, Note Name: F2, Velocity: 42
Note OFF: Time 31200, Note Name: F2
Note ON: Time 31200, Note Name: G#3, Velocity: 56
Note OFF: Time 31280, Note Name: G#3
Note ON: Time 31280, Note Name: B2, Velocity: 48
Note OFF: Time 31360, Note Name: B2
Note ON: Time 31360, Note Name: D#3, Velocity: 53
Note OFF: Time 31440, Note Name: D#3
Note ON: Time 31440, Note Name: F2, Velocity: 41
Note OFF: Time 31680, Note Name: F2
Note ON: Time 31680, Note Name: D4, Velocity: 56
Note OFF: Time 31760, Note Name: D4
Note ON: Time 31760, Note Name: F3, Velocity: 44
Note OFF: Time 31840, Note Name: F3
Note ON: Time 31840, Note Name: A#3, Velocity: 52
Note OFF: Time 31920, Note Name: A#3
Note ON: Time 31920, Note Name: A#2, Velocity: 42
Note OFF: Time 32160, Note Name: A#2
Note ON: Time 32160, Note Name: D4, Velocity: 56
Note OFF: Time 32240, Note Name: D4
Note ON: Time 32240, Note Name: F3, Velocity: 48
Note OFF: Time 32320, Note Name: F3
Note ON: Time 32320, Note Name: A#3, Velocity: 53
Note OFF: Time 32400, Note Name: A#3
Note ON: Time 32400, Note Name: A#2, Velocity: 45
Note OFF: Time 32640, Note Name: A#2
Note ON: Time 32640, Note Name: G#3, Velocity: 58
Note OFF: Time 32720, Note Name: G#3
Note ON: Time 32720, Note Name: B2, Velocity: 49
Note OFF: Time 32800, Note Name: B2
Note ON: Time 32800, Note Name: D#3, Velocity: 52
Note OFF: Time 32880, Note Name: D#3
Note ON: Time 32880, Note Name: F2, Velocity: 45
Note OFF: Time 33120, Note Name: F2
Note ON: Time 33120, Note Name: G#3, Velocity: 57
Note OFF: Time 33200, Note Name: G#3
Note ON: Time 33200, Note Name: B2, Velocity: 47
Note OFF: Time 33280, Note Name: B2
Note ON: Time 33280, Note Name: D#3, Velocity: 53
Note OFF: Time 33360, Note Name: D#3
Note ON: Time 33360, Note Name: F2, Velocity: 47
Note OFF: Time 33600, Note Name: F2
Note ON: Time 33600, Note Name: D4, Velocity: 60
Note OFF: Time 33680, Note Name: D4
Note ON: Time 33680, Note Name: F3, Velocity: 53
Note OFF: Time 33760, Note Name: F3
Note ON: Time 33760, Note Name: A#3, Velocity: 58
Note OFF: Time 33840, Note Name: A#3
Note ON: Time 33840, Note Name: A#2, Velocity: 50
Note OFF: Time 34080, Note Name: A#2
Note ON: Time 34080, Note Name: B3, Velocity: 61
Note OFF: Time 34160, Note Name: B3
Note ON: Time 34160, Note Name: C#3, Velocity: 53
Note OFF: Time 34240, Note Name: C#3
Note ON: Time 34240, Note Name: F3, Velocity: 62
Note OFF: Time 34320, Note Name: F3
Note ON: Time 34320, Note Name: G#2, Velocity: 55
Note OFF: Time 34560, Note Name: G#2
Note ON: Time 34560, Note Name: A3, Velocity: 64
Note OFF: Time 34640, Note Name: A3
Note ON: Time 34640, Note Name: C#3, Velocity: 55
Note OFF: Time 34720, Note Name: C#3
Note ON: Time 34720, Note Name: F#3, Velocity: 59
Note OFF: Time 34800, Note Name: F#3
Note ON: Time 34800, Note Name: F#2, Velocity: 57
Note OFF: Time 35040, Note Name: F#2
Note ON: Time 35040, Note Name: A3, Velocity: 66
Note OFF: Time 35120, Note Name: A3
Note ON: Time 35120, Note Name: C#3, Velocity: 55
Note OFF: Time 35200, Note Name: C#3
Note ON: Time 35200, Note Name: F#3, Velocity: 61
Note OFF: Time 35280, Note Name: F#3
Note ON: Time 35280, Note Name: A2, Velocity: 56
Note OFF: Time 35520, Note Name: A2
Note ON: Time 35520, Note Name: D4, Velocity: 70
Note OFF: Time 35600, Note Name: D4
Note ON: Time 35600, Note Name: G#3, Velocity: 59
Note OFF: Time 35680, Note Name: G#3
Note ON: Time 35680, Note Name: B3, Velocity: 64
Note OFF: Time 35760, Note Name: B3
Note ON: Time 35760, Note Name: F#3, Velocity: 59
Note OFF: Time 36000, Note Name: F#3
Note ON: Time 36000, Note Name: C#4, Velocity: 70
Note OFF: Time 36080, Note Name: C#4
Note ON: Time 36080, Note Name: F3, Velocity: 59
Note OFF: Time 36160, Note Name: F3
Note ON: Time 36160, Note Name: B3, Velocity: 66
Note OFF: Time 36240, Note Name: B3
Note ON: Time 36240, Note Name: C#3, Velocity: 58
Note OFF: Time 36480, Note Name: C#3
Note ON: Time 36480, Note Name: A3, Velocity: 73
Note OFF: Time 36560, Note Name: A3
Note ON: Time 36560, Note Name: C#3, Velocity: 60
Note OFF: Time 36640, Note Name: C#3
Note ON: Time 36640, Note Name: F#3, Velocity: 68
Note OFF: Time 36720, Note Name: F#3
Note ON: Time 36720, Note Name: F#2, Velocity: 58
Note OFF: Time 36960, Note Name: F#2
Note ON: Time 36960, Note Name: A3, Velocity: 73
Note OFF: Time 37040, Note Name: A3
Note ON: Time 37040, Note Name: C#3, Velocity: 60
Note OFF: Time 37120, Note Name: C#3
Note ON: Time 37120, Note Name: F#3, Velocity: 64
Note OFF: Time 37200, Note Name: F#3
Note ON: Time 37200, Note Name: A2, Velocity: 58
Note OFF: Time 37440, Note Name: A2
Note ON: Time 37440, Note Name: F4, Velocity: 72
Note OFF: Time 37520, Note Name: F4
Note ON: Time 37520, Note Name: B3, Velocity: 60
Note OFF: Time 37600, Note Name: B3
Note ON: Time 37600, Note Name: D4, Velocity: 66
Note OFF: Time 37680, Note Name: D4
Note ON: Time 37680, Note Name: F3, Velocity: 58
Note OFF: Time 37920, Note Name: F3
Note ON: Time 37920, Note Name: E4, Velocity: 74
Note OFF: Time 38000, Note Name: E4
Note ON: Time 38000, Note Name: G#3, Velocity: 59
Note OFF: Time 38080, Note Name: G#3
Note ON: Time 38080, Note Name: D4, Velocity: 66
Note OFF: Time 38160, Note Name: D4
Note ON: Time 38160, Note Name: E3, Velocity: 60
Note OFF: Time 38400, Note Name: E3
Note ON: Time 38400, Note Name: G4, Velocity: 78
Note OFF: Time 38480, Note Name: G4
Note ON: Time 38480, Note Name: C#4, Velocity: 66
Note OFF: Time 38560, Note Name: C#4
Note ON: Time 38560, Note Name: E4, Velocity: 73
Note OFF: Time 38640, Note Name: E4
Note ON: Time 38640, Note Name: G3, Velocity: 62
Note OFF: Time 38880, Note Name: G3
Note ON: Time 38880, Note Name: F#4, Velocity: 82
Note OFF: Time 38960, Note Name: F#4
Note ON: Time 38960, Note Name: A#3, Velocity: 70
Note OFF: Time 39040, Note Name: A#3
Note ON: Time 39040, Note Name: E4, Velocity: 77
Note OFF: Time 39120, Note Name: E4
Note ON: Time 39120, Note Name: F#3, Velocity: 68
Note OFF: Time 39360, Note Name: F#3
Note ON: Time 39360, Note Name: A4, Velocity: 86
Note OFF: Time 39440, Note Name: A4
Note ON: Time 39440, Note Name: D#4, Velocity: 72
Note OFF: Time 39520, Note Name: D#4
Note ON: Time 39520, Note Name: F#4, Velocity: 79
Note OFF: Time 39600, Note Name: F#4
Note ON: Time 39600, Note Name: A3, Velocity: 73
Note OFF: Time 39840, Note Name: A3
Note ON: Time 39840, Note Name: C5, Velocity: 86
Note OFF: Time 39920, Note Name: C5
Note ON: Time 39920, Note Name: F#4, Velocity: 74
Note OFF: Time 40000, Note Name: F#4
Note ON: Time 40000, Note Name: A4, Velocity: 79
Note OFF: Time 40080, Note Name: A4
Note ON: Time 40080, Note Name: C4, Velocity: 74
Note OFF: Time 40320, Note Name: C4
Note ON: Time 40320, Note Name: F#5, Velocity: 89
Note OFF: Time 40400, Note Name: F#5
Note ON: Time 40400, Note Name: A4, Velocity: 76
Note OFF: Time 40480, Note Name: A4
Note ON: Time 40480, Note Name: C5, Velocity: 84
Note OFF: Time 40560, Note Name: C5
Note ON: Time 40560, Note Name: D#4, Velocity: 76
Note OFF: Time 40800, Note Name: D#4
Note ON: Time 40800, Note Name: F#5, Velocity: 85
Note OFF: Time 40880, Note Name: F#5
Note ON: Time 40880, Note Name: A4, Velocity: 78
Note OFF: Time 40960, Note Name: A4
Note ON: Time 40960, Note Name: C5, Velocity: 87
Note OFF: Time 41040, Note Name: C5
Note ON: Time 41040, Note Name: D#4, Velocity: 78
Note OFF: Time 41280, Note Name: D#4
Note ON: Time 41280, Note Name: F#5, Velocity: 88
Note OFF: Time 41360, Note Name: F#5
Note ON: Time 41360, Note Name: A4, Velocity: 78
Note OFF: Time 41440, Note Name: A4
Note ON: Time 41440, Note Name: C5, Velocity: 87
Note OFF: Time 41520, Note Name: C5
Note ON: Time 41520, Note Name: D4, Velocity: 77
Note OFF: Time 41760, Note Name: D4
Note ON: Time 41760, Note Name: F#5, Velocity: 90
Note OFF: Time 41840, Note Name: F#5
Note ON: Time 41840, Note Name: A4, Velocity: 81
Note OFF: Time 41920, Note Name: A4
Note ON: Time 41920, Note Name: C5, Velocity: 87
Note OFF: Time 42000, Note Name: C5
Note ON: Time 42000, Note Name: D4, Velocity: 77
Note OFF: Time 42240, Note Name: D4
Note ON: Time 42240, Note Name: F#5, Velocity: 89
Note OFF: Time 42320, Note Name: F#5
Note ON: Time 42320, Note Name: A4, Velocity: 76
Note OFF: Time 42400, Note Name: A4
Note ON: Time 42400, Note Name: C#5, Velocity: 83
Note OFF: Time 42480, Note Name: C#5
Note ON: Time 42480, Note Name: C#4, Velocity: 75
Note OFF: Time 42720, Note Name: C#4
Note ON: Time 42720, Note Name: E5, Velocity: 87
Note OFF: Time 42800, Note Name: E5
Note ON: Time 42800, Note Name: G#4, Velocity: 77
Note OFF: Time 42880, Note Name: G#4
Note ON: Time 42880, Note Name: C#5, Velocity: 83
Note OFF: Time 42960, Note Name: C#5
Note ON: Time 42960, Note Name: C#4, Velocity: 74
Note OFF: Time 43200, Note Name: C#4
Note ON: Time 43200, Note Name: C#5, Velocity: 87
Note OFF: Time 43280, Note Name: C#5
Note ON: Time 43280, Note Name: E4, Velocity: 77
Note OFF: Time 43360, Note Name: E4
Note ON: Time 43360, Note Name: A4, Velocity: 84
Note OFF: Time 43440, Note Name: A4
Note ON: Time 43440, Note Name: A3, Velocity: 76
Note OFF: Time 43680, Note Name: A3
Note ON: Time 43680, Note Name: A4, Velocity: 80
Note OFF: Time 43760, Note Name: A4
Note ON: Time 43760, Note Name: C#4, Velocity: 73
Note OFF: Time 43840, Note Name: C#4
Note ON: Time 43840, Note Name: F#4, Velocity: 79
Note OFF: Time 43920, Note Name: F#4
Note ON: Time 43920, Note Name: F#3, Velocity: 74
Note OFF: Time 44160, Note Name: F#3
Note ON: Time 44160, Note Name: E4, Velocity: 84
Note OFF: Time 44240, Note Name: E4
Note ON: Time 44240, Note Name: G#3, Velocity: 68
Note OFF: Time 44320, Note Name: G#3
Note ON: Time 44320, Note Name: C#4, Velocity: 78
Note OFF: Time 44400, Note Name: C#4
Note ON: Time 44400, Note Name: C#3, Velocity: 67
Note OFF: Time 44640, Note Name: C#3
Note ON: Time 44640, Note Name: D4, Velocity: 78
Note OFF: Time 44720, Note Name: D4
Note ON: Time 44720, Note Name: F#3, Velocity: 67
Note OFF: Time 44800, Note Name: F#3
Note ON: Time 44800, Note Name: A3, Velocity: 74
Note OFF: Time 44880, Note Name: A3
Note ON: Time 44880, Note Name: D3, Velocity: 68
Note OFF: Time 45120, Note Name: D3
Note ON: Time 45120, Note Name: C#4, Velocity: 78
Note OFF: Time 45200, Note Name: C#4
Note ON: Time 45200, Note Name: E3, Velocity: 70
Note OFF: Time 45280, Note Name: E3
Note ON: Time 45280, Note Name: A3, Velocity: 79
Note OFF: Time 45360, Note Name: A3
Note ON: Time 45360, Note Name: A2, Velocity: 67
Note OFF: Time 45600, Note Name: A2
Note ON: Time 45600, Note Name: B3, Velocity: 77
Note OFF: Time 45680, Note Name: B3
Note ON: Time 45680, Note Name: D3, Velocity: 67
Note OFF: Time 45760, Note Name: D3
Note ON: Time 45760, Note Name: G3, Velocity: 77
Note OFF: Time 45840, Note Name: G3
Note ON: Time 45840, Note Name: B2, Velocity: 69
Note OFF: Time 46080, Note Name: B2
Note ON: Time 46080, Note Name: A3, Velocity: 81
Note OFF: Time 46160, Note Name: A3
Note ON: Time 46160, Note Name: A2, Velocity: 67
Note OFF: Time 46240, Note Name: A2
Note ON: Time 46240, Note Name: C#3, Velocity: 75
Note OFF: Time 46320, Note Name: C#3
Note ON: Time 46320, Note Name: C#2, Velocity: 66
Note OFF: Time 46560, Note Name: C#2
Note ON: Time 46560, Note Name: A3, Velocity: 82
Note OFF: Time 46640, Note Name: A3
Note ON: Time 46640, Note Name: A2, Velocity: 66
Note OFF: Time 46720, Note Name: A2
Note ON: Time 46720, Note Name: C#3, Velocity: 76
Note OFF: Time 46800, Note Name: C#3
Note ON: Time 46800, Note Name: C#2, Velocity: 68
Note OFF: Time 47040, Note Name: C#2
Note ON: Time 47040, Note Name: G#3, Velocity: 80
Note OFF: Time 47120, Note Name: G#3
Note ON: Time 47120, Note Name: A2, Velocity: 67
Note OFF: Time 47200, Note Name: A2
Note ON: Time 47200, Note Name: C#3, Velocity: 73
Note OFF: Time 47280, Note Name: C#3
Note ON: Time 47280, Note Name: C#2, Velocity: 68
Note OFF: Time 47520, Note Name: C#2
Note ON: Time 47520, Note Name: F#3, Velocity: 78
Note OFF: Time 47600, Note Name: F#3
Note ON: Time 47600, Note Name: A2, Velocity: 68
Note OFF: Time 47680, Note Name: A2
Note ON: Time 47680, Note Name: C#3, Velocity: 77
Note OFF: Time 47760, Note Name: C#3
Note ON: Time 47760, Note Name: C#2, Velocity: 70
Note OFF: Time 48000, Note Name: C#2
Note ON: Time 48000, Note Name: F#3, Velocity: 75
Note OFF: Time 48080, Note Name: F#3
Note ON: Time 48080, Note Name: G#2, Velocity: 63
Note OFF: Time 48160, Note Name: G#2
Note ON: Time 48160, Note Name: C#3, Velocity: 64
Note OFF: Time 48240, Note Name: C#3
Note ON: Time 48240, Note Name: C#2, Velocity: 57
Note OFF: Time 48480, Note Name: C#2
Note ON: Time 48480, Note Name: F#3, Velocity: 73
Note OFF: Time 48560, Note Name: F#3
Note ON: Time 48560, Note Name: G#2, Velocity: 61
Note OFF: Time 48640, Note Name: G#2
Note ON: Time 48640, Note Name: C#3, Velocity: 66
Note OFF: Time 48720, Note Name: C#3
Note ON: Time 48720, Note Name: C#2, Velocity: 58
Note OFF: Time 48960, Note Name: C#2
Note ON: Time 48960, Note Name: F3, Velocity: 75
Note OFF: Time 49040, Note Name: F3
Note ON: Time 49040, Note Name: G#2, Velocity: 64
Note OFF: Time 49120, Note Name: G#2
Note ON: Time 49120, Note Name: C#3, Velocity: 69
Note OFF: Time 49200, Note Name: C#3
Note ON: Time 49200, Note Name: C#2, Velocity: 56
Note OFF: Time 49440, Note Name: C#2
Note ON: Time 49440, Note Name: F3, Velocity: 74
Note OFF: Time 49520, Note Name: F3
Note ON: Time 49520, Note Name: G#2, Velocity: 54
Note OFF: Time 49600, Note Name: G#2
Note ON: Time 49600, Note Name: C#3, Velocity: 60
Note OFF: Time 49680, Note Name: C#3
Note ON: Time 49680, Note Name: C#2, Velocity: 49
Note OFF: Time 49920, Note Name: C#2
Note ON: Time 49920, Note Name: A3, Velocity: 49
Note OFF: Time 50000, Note Name: A3
Note ON: Time 50000, Note Name: C#3, Velocity: 39
Note OFF: Time 50080, Note Name: C#3
Note ON: Time 50080, Note Name: F#3, Velocity: 45
Note OFF: Time 50160, Note Name: F#3
Note ON: Time 50160, Note Name: F#2, Velocity: 38
Note OFF: Time 50400, Note Name: F#2
Note ON: Time 50400, Note Name: A3, Velocity: 49
Note OFF: Time 50480, Note Name: A3
Note ON: Time 50480, Note Name: C#3, Velocity: 39
Note OFF: Time 50560, Note Name: C#3
Note ON: Time 50560, Note Name: F#3, Velocity: 44
Note OFF: Time 50640, Note Name: F#3
Note ON: Time 50640, Note Name: F#2, Velocity: 37
Note OFF: Time 50880, Note Name: F#2
Note ON: Time 50880, Note Name: A3, Velocity: 49
Note OFF: Time 50960, Note Name: A3
Note ON: Time 50960, Note Name: C#3, Velocity: 39
Note OFF: Time 51040, Note Name: C#3
Note ON: Time 51040, Note Name: F#3, Velocity: 45
Note OFF: Time 51120, Note Name: F#3
Note ON: Time 51120, Note Name: F#2, Velocity: 38
Note OFF: Time 51360, Note Name: F#2
Note ON: Time 51360, Note Name: A3, Velocity: 49
Note OFF: Time 51440, Note Name: A3
Note ON: Time 51440, Note Name: C#3, Velocity: 39
Note OFF: Time 51520, Note Name: C#3
Note ON: Time 51520, Note Name: F#3, Velocity: 49
Note OFF: Time 51600, Note Name: F#3
Note ON: Time 51600, Note Name: F#2, Velocity: 45
Note OFF: Time 51840, Note Name: F#2
Note ON: Time 51840, Note Name: F#3, Velocity: 49
Note OFF: Time 51920, Note Name: F#3
Note ON: Time 51920, Note Name: F#2, Velocity: 41
Note OFF: Time 52000, Note Name: F#2
Note ON: Time 52000, Note Name: B2, Velocity: 49
Note OFF: Time 52080, Note Name: B2
Note ON: Time 52080, Note Name: B1, Velocity: 39
Note OFF: Time 52320, Note Name: B1
Note ON: Time 52320, Note Name: F#3, Velocity: 49
Note OFF: Time 52400, Note Name: F#3
Note ON: Time 52400, Note Name: F#2, Velocity: 40
Note OFF: Time 52480, Note Name: F#2
Note ON: Time 52480, Note Name: B2, Velocity: 45
Note OFF: Time 52560, Note Name: B2
Note ON: Time 52560, Note Name: B1, Velocity: 39
Note OFF: Time 52800, Note Name: B1
Note ON: Time 52800, Note Name: F#3, Velocity: 49
Note OFF: Time 52880, Note Name: F#3
Note ON: Time 52880, Note Name: F#2, Velocity: 41
Note OFF: Time 52960, Note Name: F#2
Note ON: Time 52960, Note Name: B2, Velocity: 49
Note OFF: Time 53040, Note Name: B2
Note ON: Time 53040, Note Name: B1, Velocity: 39
Note OFF: Time 53280, Note Name: B1
Note ON: Time 53280, Note Name: F#3, Velocity: 50
Note OFF: Time 53360, Note Name: F#3
Note ON: Time 53360, Note Name: F#2, Velocity: 41
Note OFF: Time 53440, Note Name: F#2
Note ON: Time 53440, Note Name: B2, Velocity: 46
Note OFF: Time 53520, Note Name: B2
Note ON: Time 53520, Note Name: B1, Velocity: 40
Note OFF: Time 53760, Note Name: B1
Note ON: Time 53760, Note Name: A#3, Velocity: 39
Note OFF: Time 53840, Note Name: A#3
Note ON: Time 53840, Note Name: C#3, Velocity: 36
Note OFF: Time 53920, Note Name: C#3
Note ON: Time 53920, Note Name: F#3, Velocity: 37
Note OFF: Time 54000, Note Name: F#3
Note ON: Time 54000, Note Name: F#2, Velocity: 35
Note OFF: Time 54240, Note Name: F#2
Note ON: Time 54240, Note Name: A#3, Velocity: 39
Note OFF: Time 54320, Note Name: A#3
Note ON: Time 54320, Note Name: C#3, Velocity: 35
Note OFF: Time 54400, Note Name: C#3
Note ON: Time 54400, Note Name: F#3, Velocity: 36
Note OFF: Time 54480, Note Name: F#3
Note ON: Time 54480, Note Name: F#2, Velocity: 34
Note OFF: Time 54720, Note Name: F#2
Note ON: Time 54720, Note Name: A#3, Velocity: 39
Note OFF: Time 54800, Note Name: A#3
Note ON: Time 54800, Note Name: C#3, Velocity: 34
Note OFF: Time 54880, Note Name: C#3
Note ON: Time 54880, Note Name: F#3, Velocity: 37
Note OFF: Time 54960, Note Name: F#3
Note ON: Time 54960, Note Name: F#2, Velocity: 31
Note OFF: Time 55200, Note Name: F#2
Note ON: Time 55200, Note Name: A#3, Velocity: 39
Note OFF: Time 55280, Note Name: A#3
Note ON: Time 55280, Note Name: C#3, Velocity: 31
Note OFF: Time 55360, Note Name: C#3
Note ON: Time 55360, Note Name: F#3, Velocity: 38
Note OFF: Time 55440, Note Name: F#3
Note ON: Time 55440, Note Name: F#2, Velocity: 33
Note OFF: Time 55680, Note Name: F#2
Note ON: Time 55680, Note Name: F#3, Velocity: 39
Note OFF: Time 55760, Note Name: F#3
Note ON: Time 55760, Note Name: F#2, Velocity: 34
Note OFF: Time 55840, Note Name: F#2
Note ON: Time 55840, Note Name: B2, Velocity: 36
Note OFF: Time 55920, Note Name: B2
Note ON: Time 55920, Note Name: B1, Velocity: 33
Note OFF: Time 56160, Note Name: B1
Note ON: Time 56160, Note Name: F#3, Velocity: 39
Note OFF: Time 56240, Note Name: F#3
Note ON: Time 56240, Note Name: F#2, Velocity: 34
Note OFF: Time 56320, Note Name: F#2
Note ON: Time 56320, Note Name: B2, Velocity: 37
Note OFF: Time 56400, Note Name: B2
Note ON: Time 56400, Note Name: B1, Velocity: 33
Note OFF: Time 56640, Note Name: B1
Note ON: Time 56640, Note Name: F#3, Velocity: 38
Note OFF: Time 56720, Note Name: F#3
Note ON: Time 56720, Note Name: F#2, Velocity: 36
Note OFF: Time 56800, Note Name: F#2
Note ON: Time 56800, Note Name: B2, Velocity: 38
Note OFF: Time 56880, Note Name: B2
Note ON: Time 56880, Note Name: B1, Velocity: 34
Note OFF: Time 57120, Note Name: B1
Note ON: Time 57120, Note Name: F#3, Velocity: 40
Note OFF: Time 57200, Note Name: F#3
Note ON: Time 57200, Note Name: F#2, Velocity: 34
Note OFF: Time 57280, Note Name: F#2
Note ON: Time 57280, Note Name: B2, Velocity: 39
Note OFF: Time 57360, Note Name: B2
Note ON: Time 57360, Note Name: B1, Velocity: 36
Note OFF: Time 57600, Note Name: B1
Note ON: Time 57600, Note Name: A#3, Velocity: 39
Note OFF: Time 57680, Note Name: A#3
Note ON: Time 57680, Note Name: C#3, Velocity: 34
Note OFF: Time 57760, Note Name: C#3
Note ON: Time 57760, Note Name: F#3, Velocity: 38
Note OFF: Time 57840, Note Name: F#3
Note ON: Time 57840, Note Name: F#2, Velocity: 34
Note OFF: Time 58080, Note Name: F#2
Note ON: Time 58080, Note Name: A#3, Velocity: 39
Note OFF: Time 58160, Note Name: A#3
Note ON: Time 58160, Note Name: C#3, Velocity: 31
Note OFF: Time 58240, Note Name: C#3
Note ON: Time 58240, Note Name: F#3, Velocity: 37
Note OFF: Time 58320, Note Name: F#3
Note ON: Time 58320, Note Name: F#2, Velocity: 31
Note OFF: Time 58560, Note Name: F#2
Note ON: Time 58560, Note Name: A#3, Velocity: 39
Note OFF: Time 58640, Note Name: A#3
Note ON: Time 58640, Note Name: C#3, Velocity: 34
Note OFF: Time 58720, Note Name: C#3
Note ON: Time 58720, Note Name: F#3, Velocity: 39
Note OFF: Time 58800, Note Name: F#3
Note ON: Time 58800, Note Name: F#2, Velocity: 35
Note OFF: Time 59040, Note Name: F#2
Note ON: Time 59040, Note Name: A#3, Velocity: 39
Note OFF: Time 59120, Note Name: A#3
Note ON: Time 59120, Note Name: C#3, Velocity: 34
Note OFF: Time 59200, Note Name: C#3
Note ON: Time 59200, Note Name: F#3, Velocity: 38
Note OFF: Time 59280, Note Name: F#3
Note ON: Time 59280, Note Name: F#2, Velocity: 34
Note OFF: Time 59520, Note Name: F#2
Note ON: Time 59520, Note Name: A3, Velocity: 39
Note OFF: Time 59600, Note Name: A3
Note ON: Time 59600, Note Name: C#3, Velocity: 33
Note OFF: Time 59680, Note Name: C#3
Note ON: Time 59680, Note Name: F#3, Velocity: 37
Note OFF: Time 59760, Note Name: F#3
Note ON: Time 59760, Note Name: F#2, Velocity: 35
Note OFF: Time 60000, Note Name: F#2
Note ON: Time 60000, Note Name: A3, Velocity: 39
Note OFF: Time 60080, Note Name: A3
Note ON: Time 60080, Note Name: C#3, Velocity: 35
Note OFF: Time 60160, Note Name: C#3
Note ON: Time 60160, Note Name: F#3, Velocity: 39
Note OFF: Time 60240, Note Name: F#3
Note ON: Time 60240, Note Name: F#2, Velocity: 36
Note OFF: Time 60480, Note Name: F#2
Note ON: Time 60480, Note Name: A3, Velocity: 37
Note OFF: Time 60560, Note Name: A3
Note ON: Time 60560, Note Name: C#3, Velocity: 34
Note OFF: Time 60640, Note Name: C#3
Note ON: Time 60640, Note Name: F#3, Velocity: 37
Note OFF: Time 60720, Note Name: F#3
Note ON: Time 60720, Note Name: F#2, Velocity: 33
Note OFF: Time 60960, Note Name: F#2
Note ON: Time 60960, Note Name: A3, Velocity: 35
Note OFF: Time 61040, Note Name: A3
Note ON: Time 61040, Note Name: C#3, Velocity: 30
Note OFF: Time 61120, Note Name: C#3
Note ON: Time 61120, Note Name: F#3, Velocity: 34
Note OFF: Time 61200, Note Name: F#3
Note ON: Time 61200, Note Name: F#2, Velocity: 31
Note OFF: Time 61440, Note Name: F#2
Note ON: Time 61440, Note Name: A2, Velocity: 31
Note ON: Time 61440, Note Name: E3, Velocity: 31
Note ON: Time 61440, Note Name: A3, Velocity: 37
Note OFF: Time 62400, Note Name: A3
Note OFF: Time 62400, Note Name: E3
Note OFF: Time 62400, Note Name: A2
Note ON: Time 62400, Note Name: B2, Velocity: 27
Note ON: Time 62400, Note Name: G3, Velocity: 32
Note OFF: Time 62880, Note Name: G3
Note OFF: Time 62880, Note Name: B2
Note ON: Time 62880, Note Name: C#3, Velocity: 23
Note ON: Time 62880, Note Name: G#3, Velocity: 28
Note OFF: Time 63360, Note Name: G#3
Note OFF: Time 63360, Note Name: C#3
Note ON: Time 63480, Note Name: F#2, Velocity: 31
Note ON: Time 63600, Note Name: C#3, Velocity: 31
Note ON: Time 63720, Note Name: A3, Velocity: 31
Note OFF: Time 65280, Note Name: A3
Note OFF: Time 65280, Note Name: C#3
Note OFF: Time 65280, Note Name: F#2
Track 4: Chopin: Prelude No.8 in F#-, Op. 28
Track 5: Copyright  1997 by Bernd Krueger
Track 6: http://www.piano-midi.de
Track 7: Edition: 2014-02-20
