Processing chpn_op7_2.mid...

Track 0: Chopin Mazurka Opus 7 No. 2
Track 1: Piano right
Note ON: Time 960, Note Name: E5, Velocity: 45
Note OFF: Time 1440, Note Name: E5
Note ON: Time 1440, Note Name: F5, Velocity: 46
Note OFF: Time 1800, Note Name: F5
Note ON: Time 1800, Note Name: E5, Velocity: 45
Note OFF: Time 1920, Note Name: E5
Note ON: Time 1920, Note Name: D5, Velocity: 45
Note OFF: Time 2400, Note Name: D5
Note ON: Time 2400, Note Name: F5, Velocity: 48
Note OFF: Time 2876, Note Name: F5
Note ON: Time 2880, Note Name: F5, Velocity: 47
Note OFF: Time 3840, Note Name: F5
Note ON: Time 3840, Note Name: E5, Velocity: 43
Note OFF: Time 4320, Note Name: E5
Note ON: Time 4320, Note Name: D5, Velocity: 42
Note OFF: Time 4400, Note Name: D5
Note ON: Time 4400, Note Name: E5, Velocity: 43
Note OFF: Time 4480, Note Name: E5
Note ON: Time 4480, Note Name: D5, Velocity: 44
Note OFF: Time 4560, Note Name: D5
Note ON: Time 4560, Note Name: C#5, Velocity: 45
Note OFF: Time 4800, Note Name: C#5
Note ON: Time 4800, Note Name: D5, Velocity: 47
Note OFF: Time 5040, Note Name: D5
Note ON: Time 5040, Note Name: D#5, Velocity: 45
Note OFF: Time 5280, Note Name: D#5
Note ON: Time 5280, Note Name: E5, Velocity: 50
Note OFF: Time 5520, Note Name: E5
Note ON: Time 5520, Note Name: B4, Velocity: 50
Note OFF: Time 5760, Note Name: B4
Note ON: Time 5760, Note Name: D5, Velocity: 54
Note OFF: Time 6720, Note Name: D5
Note ON: Time 6720, Note Name: C5, Velocity: 45
Note OFF: Time 7200, Note Name: C5
Note ON: Time 7200, Note Name: A4, Velocity: 62
Note OFF: Time 7360, Note Name: A4
Note ON: Time 7360, Note Name: B4, Velocity: 57
Note OFF: Time 7520, Note Name: B4
Note ON: Time 7520, Note Name: A4, Velocity: 57
Note OFF: Time 7680, Note Name: A4
Note ON: Time 7680, Note Name: G#4, Velocity: 63
Note OFF: Time 7920, Note Name: G#4
Note ON: Time 8160, Note Name: A4, Velocity: 67
Note OFF: Time 8400, Note Name: A4
Note ON: Time 8640, Note Name: B4, Velocity: 70
Note OFF: Time 8880, Note Name: B4
Note ON: Time 9120, Note Name: E5, Velocity: 72
Note OFF: Time 10080, Note Name: E5
Note ON: Time 10080, Note Name: B4, Velocity: 76
Note OFF: Time 10320, Note Name: B4
Note ON: Time 10320, Note Name: G4, Velocity: 73
Note OFF: Time 10560, Note Name: G4
Note ON: Time 10560, Note Name: E4, Velocity: 76
Note OFF: Time 10800, Note Name: E4
Note ON: Time 10800, Note Name: B4, Velocity: 71
Note OFF: Time 11040, Note Name: B4
Note ON: Time 11040, Note Name: D#4, Velocity: 73
Note OFF: Time 11520, Note Name: D#4
Note ON: Time 11520, Note Name: E4, Velocity: 76
Note OFF: Time 12480, Note Name: E4
Note ON: Time 12480, Note Name: E5, Velocity: 45
Note OFF: Time 12960, Note Name: E5
Note ON: Time 12960, Note Name: F5, Velocity: 46
Note OFF: Time 13320, Note Name: F5
Note ON: Time 13320, Note Name: E5, Velocity: 45
Note OFF: Time 13440, Note Name: E5
Note ON: Time 13440, Note Name: D5, Velocity: 45
Note OFF: Time 13920, Note Name: D5
Note ON: Time 13920, Note Name: F5, Velocity: 48
Note OFF: Time 14394, Note Name: F5
Note ON: Time 14400, Note Name: F5, Velocity: 47
Note OFF: Time 15360, Note Name: F5
Note ON: Time 15360, Note Name: E5, Velocity: 43
Note OFF: Time 15840, Note Name: E5
Note ON: Time 15840, Note Name: D5, Velocity: 42
Note OFF: Time 15920, Note Name: D5
Note ON: Time 15920, Note Name: E5, Velocity: 43
Note OFF: Time 16000, Note Name: E5
Note ON: Time 16000, Note Name: D5, Velocity: 44
Note OFF: Time 16080, Note Name: D5
Note ON: Time 16080, Note Name: C#5, Velocity: 45
Note OFF: Time 16320, Note Name: C#5
Note ON: Time 16320, Note Name: D5, Velocity: 47
Note OFF: Time 16560, Note Name: D5
Note ON: Time 16560, Note Name: D#5, Velocity: 45
Note OFF: Time 16800, Note Name: D#5
Note ON: Time 16800, Note Name: E5, Velocity: 47
Note OFF: Time 17040, Note Name: E5
Note ON: Time 17040, Note Name: B4, Velocity: 42
Note OFF: Time 17154, Note Name: B4
Note ON: Time 17160, Note Name: B4, Velocity: 47
Note OFF: Time 17280, Note Name: B4
Note ON: Time 17280, Note Name: D5, Velocity: 51
Note OFF: Time 18240, Note Name: D5
Note ON: Time 18240, Note Name: C5, Velocity: 45
Note OFF: Time 18720, Note Name: C5
Note ON: Time 18720, Note Name: A4, Velocity: 46
Note OFF: Time 18880, Note Name: A4
Note ON: Time 18880, Note Name: A#4, Velocity: 43
Note OFF: Time 19040, Note Name: A#4
Note ON: Time 19040, Note Name: A4, Velocity: 43
Note OFF: Time 19200, Note Name: A4
Note ON: Time 19200, Note Name: G4, Velocity: 47
Note OFF: Time 19680, Note Name: G4
Note ON: Time 19680, Note Name: A4, Velocity: 51
Note OFF: Time 20160, Note Name: A4
Note ON: Time 20160, Note Name: A#4, Velocity: 53
Note OFF: Time 20640, Note Name: A#4
Note ON: Time 20640, Note Name: D5, Velocity: 54
Note OFF: Time 21120, Note Name: D5
Note ON: Time 21600, Note Name: A4, Velocity: 48
Note OFF: Time 21960, Note Name: A4
Note ON: Time 21960, Note Name: G#4, Velocity: 44
Note OFF: Time 22080, Note Name: G#4
Note ON: Time 22080, Note Name: D4, Velocity: 40
Note ON: Time 22080, Note Name: E4, Velocity: 48
Note OFF: Time 22560, Note Name: E4
Note OFF: Time 22560, Note Name: D4
Note ON: Time 22560, Note Name: G#4, Velocity: 45
Note ON: Time 22560, Note Name: D4, Velocity: 38
Note OFF: Time 23040, Note Name: D4
Note OFF: Time 23040, Note Name: G#4
Note ON: Time 23040, Note Name: C4, Velocity: 39
Note ON: Time 23040, Note Name: A4, Velocity: 46
Note OFF: Time 23520, Note Name: C4
Note OFF: Time 24000, Note Name: A4
Note ON: Time 24000, Note Name: E5, Velocity: 45
Note OFF: Time 24480, Note Name: E5
Note ON: Time 24480, Note Name: F5, Velocity: 46
Note OFF: Time 24840, Note Name: F5
Note ON: Time 24840, Note Name: E5, Velocity: 45
Note OFF: Time 24960, Note Name: E5
Note ON: Time 24960, Note Name: D5, Velocity: 45
Note OFF: Time 25440, Note Name: D5
Note ON: Time 25440, Note Name: F5, Velocity: 48
Note OFF: Time 25920, Note Name: F5
Note ON: Time 25920, Note Name: F5, Velocity: 47
Note OFF: Time 26880, Note Name: F5
Note ON: Time 26880, Note Name: E5, Velocity: 43
Note OFF: Time 27360, Note Name: E5
Note ON: Time 27360, Note Name: D5, Velocity: 42
Note OFF: Time 27440, Note Name: D5
Note ON: Time 27440, Note Name: E5, Velocity: 43
Note OFF: Time 27520, Note Name: E5
Note ON: Time 27520, Note Name: D5, Velocity: 44
Note OFF: Time 27600, Note Name: D5
Note ON: Time 27600, Note Name: C#5, Velocity: 45
Note OFF: Time 27840, Note Name: C#5
Note ON: Time 27840, Note Name: D5, Velocity: 47
Note OFF: Time 28080, Note Name: D5
Note ON: Time 28080, Note Name: D#5, Velocity: 45
Note OFF: Time 28320, Note Name: D#5
Note ON: Time 28320, Note Name: E5, Velocity: 53
Note OFF: Time 28560, Note Name: E5
Note ON: Time 28560, Note Name: B4, Velocity: 48
Note OFF: Time 28800, Note Name: B4
Note ON: Time 28800, Note Name: D5, Velocity: 58
Note OFF: Time 29760, Note Name: D5
Note ON: Time 29760, Note Name: C5, Velocity: 45
Note OFF: Time 30240, Note Name: C5
Note ON: Time 30240, Note Name: A4, Velocity: 62
Note OFF: Time 30400, Note Name: A4
Note ON: Time 30400, Note Name: B4, Velocity: 57
Note OFF: Time 30560, Note Name: B4
Note ON: Time 30560, Note Name: A4, Velocity: 57
Note OFF: Time 30720, Note Name: A4
Note ON: Time 30720, Note Name: G#4, Velocity: 63
Note OFF: Time 30960, Note Name: G#4
Note ON: Time 31200, Note Name: A4, Velocity: 67
Note OFF: Time 31440, Note Name: A4
Note ON: Time 31680, Note Name: B4, Velocity: 70
Note OFF: Time 31920, Note Name: B4
Note ON: Time 32160, Note Name: E5, Velocity: 72
Note OFF: Time 33120, Note Name: E5
Note ON: Time 33120, Note Name: B4, Velocity: 76
Note OFF: Time 33360, Note Name: B4
Note ON: Time 33360, Note Name: G4, Velocity: 73
Note OFF: Time 33600, Note Name: G4
Note ON: Time 33600, Note Name: E4, Velocity: 76
Note OFF: Time 33840, Note Name: E4
Note ON: Time 33840, Note Name: B4, Velocity: 71
Note OFF: Time 34080, Note Name: B4
Note ON: Time 34080, Note Name: D#4, Velocity: 73
Note OFF: Time 34560, Note Name: D#4
Note ON: Time 34560, Note Name: E4, Velocity: 76
Note OFF: Time 35520, Note Name: E4
Note ON: Time 35520, Note Name: E5, Velocity: 45
Note OFF: Time 36000, Note Name: E5
Note ON: Time 36000, Note Name: F5, Velocity: 46
Note OFF: Time 36360, Note Name: F5
Note ON: Time 36360, Note Name: E5, Velocity: 45
Note OFF: Time 36480, Note Name: E5
Note ON: Time 36480, Note Name: D5, Velocity: 45
Note OFF: Time 36960, Note Name: D5
Note ON: Time 36960, Note Name: F5, Velocity: 48
Note OFF: Time 37440, Note Name: F5
Note ON: Time 37440, Note Name: F5, Velocity: 47
Note OFF: Time 38400, Note Name: F5
Note ON: Time 38400, Note Name: E5, Velocity: 43
Note OFF: Time 38880, Note Name: E5
Note ON: Time 38880, Note Name: D5, Velocity: 42
Note OFF: Time 38960, Note Name: D5
Note ON: Time 38960, Note Name: E5, Velocity: 43
Note OFF: Time 39040, Note Name: E5
Note ON: Time 39040, Note Name: D5, Velocity: 44
Note OFF: Time 39120, Note Name: D5
Note ON: Time 39120, Note Name: C#5, Velocity: 45
Note OFF: Time 39360, Note Name: C#5
Note ON: Time 39360, Note Name: D5, Velocity: 47
Note OFF: Time 39600, Note Name: D5
Note ON: Time 39600, Note Name: D#5, Velocity: 45
Note OFF: Time 39840, Note Name: D#5
Note ON: Time 39840, Note Name: E5, Velocity: 47
Note OFF: Time 40080, Note Name: E5
Note ON: Time 40080, Note Name: B4, Velocity: 42
Note OFF: Time 40194, Note Name: B4
Note ON: Time 40200, Note Name: B4, Velocity: 42
Note OFF: Time 40320, Note Name: B4
Note ON: Time 40320, Note Name: D5, Velocity: 46
Note OFF: Time 41280, Note Name: D5
Note ON: Time 41280, Note Name: C5, Velocity: 45
Note OFF: Time 41760, Note Name: C5
Note ON: Time 41760, Note Name: A4, Velocity: 46
Note OFF: Time 41920, Note Name: A4
Note ON: Time 41920, Note Name: A#4, Velocity: 43
Note OFF: Time 42080, Note Name: A#4
Note ON: Time 42080, Note Name: A4, Velocity: 43
Note OFF: Time 42240, Note Name: A4
Note ON: Time 42240, Note Name: G4, Velocity: 47
Note OFF: Time 42720, Note Name: G4
Note ON: Time 42720, Note Name: A4, Velocity: 54
Note OFF: Time 43200, Note Name: A4
Note ON: Time 43200, Note Name: A#4, Velocity: 62
Note OFF: Time 43680, Note Name: A#4
Note ON: Time 43680, Note Name: D5, Velocity: 59
Note OFF: Time 44160, Note Name: D5
Note ON: Time 44640, Note Name: A4, Velocity: 48
Note OFF: Time 45000, Note Name: A4
Note ON: Time 45000, Note Name: G#4, Velocity: 44
Note OFF: Time 45120, Note Name: G#4
Note ON: Time 45120, Note Name: D4, Velocity: 40
Note ON: Time 45120, Note Name: E4, Velocity: 48
Note OFF: Time 45600, Note Name: E4
Note OFF: Time 45600, Note Name: D4
Note ON: Time 45600, Note Name: G#4, Velocity: 45
Note ON: Time 45600, Note Name: D4, Velocity: 38
Note OFF: Time 46080, Note Name: D4
Note OFF: Time 46080, Note Name: G#4
Note ON: Time 46080, Note Name: C4, Velocity: 39
Note ON: Time 46080, Note Name: A4, Velocity: 46
Note OFF: Time 46560, Note Name: C4
Note OFF: Time 47040, Note Name: A4
Note ON: Time 47040, Note Name: B4, Velocity: 51
Note OFF: Time 47520, Note Name: B4
Note ON: Time 47520, Note Name: C5, Velocity: 52
Note OFF: Time 47760, Note Name: C5
Note ON: Time 47760, Note Name: D5, Velocity: 53
Note OFF: Time 48000, Note Name: D5
Note ON: Time 48000, Note Name: D#5, Velocity: 55
Note OFF: Time 48475, Note Name: D#5
Note ON: Time 48480, Note Name: D#5, Velocity: 60
Note OFF: Time 48840, Note Name: D#5
Note ON: Time 48840, Note Name: F5, Velocity: 55
Note OFF: Time 48960, Note Name: F5
Note ON: Time 48960, Note Name: D#5, Velocity: 62
Note OFF: Time 49920, Note Name: D#5
Note ON: Time 49920, Note Name: D5, Velocity: 54
Note OFF: Time 50400, Note Name: D5
Note ON: Time 50400, Note Name: C5, Velocity: 52
Note OFF: Time 50640, Note Name: C5
Note ON: Time 50640, Note Name: D5, Velocity: 54
Note OFF: Time 50880, Note Name: D5
Note ON: Time 50880, Note Name: D#5, Velocity: 57
Note OFF: Time 51356, Note Name: D#5
Note ON: Time 51360, Note Name: D#5, Velocity: 66
Note OFF: Time 51720, Note Name: D#5
Note ON: Time 51720, Note Name: F5, Velocity: 62
Note OFF: Time 51840, Note Name: F5
Note ON: Time 51840, Note Name: D#5, Velocity: 76
Note OFF: Time 52800, Note Name: D#5
Note ON: Time 52800, Note Name: D5, Velocity: 67
Note OFF: Time 53280, Note Name: D5
Note ON: Time 53280, Note Name: A#5, Velocity: 86
Note OFF: Time 54240, Note Name: A#5
Note ON: Time 54240, Note Name: C#5, Velocity: 66
Note OFF: Time 54720, Note Name: C#5
Note ON: Time 54720, Note Name: A5, Velocity: 76
Note OFF: Time 55680, Note Name: A5
Note ON: Time 55680, Note Name: C5, Velocity: 62
Note OFF: Time 56160, Note Name: C5
Note ON: Time 56160, Note Name: G#5, Velocity: 76
Note OFF: Time 57120, Note Name: G#5
Note ON: Time 57120, Note Name: B4, Velocity: 56
Note OFF: Time 57600, Note Name: B4
Note ON: Time 57600, Note Name: G5, Velocity: 67
Note OFF: Time 58320, Note Name: G5
Note ON: Time 58320, Note Name: A#4, Velocity: 54
Note OFF: Time 58560, Note Name: A#4
Note ON: Time 58560, Note Name: A4, Velocity: 45
Note OFF: Time 58800, Note Name: A4
Note ON: Time 58800, Note Name: E5, Velocity: 45
Note OFF: Time 59040, Note Name: E5
Note ON: Time 59040, Note Name: F5, Velocity: 46
Note OFF: Time 59280, Note Name: F5
Note ON: Time 59280, Note Name: E5, Velocity: 45
Note OFF: Time 59520, Note Name: E5
Note ON: Time 59520, Note Name: D5, Velocity: 45
Note OFF: Time 60000, Note Name: D5
Note ON: Time 60000, Note Name: F5, Velocity: 48
Note OFF: Time 60480, Note Name: F5
Note ON: Time 60480, Note Name: F5, Velocity: 47
Note OFF: Time 61440, Note Name: F5
Note ON: Time 61440, Note Name: E5, Velocity: 43
Note OFF: Time 61920, Note Name: E5
Note ON: Time 61920, Note Name: D5, Velocity: 42
Note OFF: Time 62000, Note Name: D5
Note ON: Time 62000, Note Name: E5, Velocity: 43
Note OFF: Time 62080, Note Name: E5
Note ON: Time 62080, Note Name: D5, Velocity: 44
Note OFF: Time 62160, Note Name: D5
Note ON: Time 62160, Note Name: C#5, Velocity: 45
Note OFF: Time 62400, Note Name: C#5
Note ON: Time 62400, Note Name: D5, Velocity: 47
Note OFF: Time 62640, Note Name: D5
Note ON: Time 62640, Note Name: D#5, Velocity: 45
Note OFF: Time 62880, Note Name: D#5
Note ON: Time 62880, Note Name: E5, Velocity: 49
Note OFF: Time 63120, Note Name: E5
Note ON: Time 63120, Note Name: B4, Velocity: 46
Note OFF: Time 63360, Note Name: B4
Note ON: Time 63360, Note Name: D5, Velocity: 55
Note OFF: Time 64320, Note Name: D5
Note ON: Time 64320, Note Name: C5, Velocity: 45
Note OFF: Time 64800, Note Name: C5
Note ON: Time 64800, Note Name: A4, Velocity: 46
Note OFF: Time 64960, Note Name: A4
Note ON: Time 64960, Note Name: A#4, Velocity: 43
Note OFF: Time 65120, Note Name: A#4
Note ON: Time 65120, Note Name: A4, Velocity: 43
Note OFF: Time 65280, Note Name: A4
Note ON: Time 65280, Note Name: G4, Velocity: 47
Note OFF: Time 65760, Note Name: G4
Note ON: Time 65760, Note Name: A4, Velocity: 51
Note OFF: Time 66240, Note Name: A4
Note ON: Time 66240, Note Name: A#4, Velocity: 53
Note OFF: Time 66720, Note Name: A#4
Note ON: Time 66720, Note Name: D5, Velocity: 54
Note OFF: Time 67200, Note Name: D5
Note ON: Time 67680, Note Name: A4, Velocity: 48
Note OFF: Time 68040, Note Name: A4
Note ON: Time 68040, Note Name: G#4, Velocity: 44
Note OFF: Time 68160, Note Name: G#4
Note ON: Time 68160, Note Name: D4, Velocity: 40
Note ON: Time 68160, Note Name: E4, Velocity: 48
Note OFF: Time 68640, Note Name: E4
Note OFF: Time 68640, Note Name: D4
Note ON: Time 68640, Note Name: G#4, Velocity: 45
Note ON: Time 68640, Note Name: D4, Velocity: 38
Note OFF: Time 69120, Note Name: D4
Note OFF: Time 69120, Note Name: G#4
Note ON: Time 69120, Note Name: C4, Velocity: 39
Note ON: Time 69120, Note Name: A4, Velocity: 46
Note OFF: Time 69600, Note Name: C4
Note OFF: Time 70080, Note Name: A4
Note ON: Time 70080, Note Name: B4, Velocity: 51
Note OFF: Time 70560, Note Name: B4
Note ON: Time 70560, Note Name: C5, Velocity: 52
Note OFF: Time 70800, Note Name: C5
Note ON: Time 70800, Note Name: D5, Velocity: 53
Note OFF: Time 71040, Note Name: D5
Note ON: Time 71040, Note Name: D#5, Velocity: 55
Note OFF: Time 71516, Note Name: D#5
Note ON: Time 71520, Note Name: D#5, Velocity: 60
Note OFF: Time 71880, Note Name: D#5
Note ON: Time 71880, Note Name: F5, Velocity: 55
Note OFF: Time 72000, Note Name: F5
Note ON: Time 72000, Note Name: D#5, Velocity: 62
Note OFF: Time 72960, Note Name: D#5
Note ON: Time 72960, Note Name: D5, Velocity: 54
Note OFF: Time 73440, Note Name: D5
Note ON: Time 73440, Note Name: C5, Velocity: 52
Note OFF: Time 73680, Note Name: C5
Note ON: Time 73680, Note Name: D5, Velocity: 54
Note OFF: Time 73920, Note Name: D5
Note ON: Time 73920, Note Name: D#5, Velocity: 57
Note OFF: Time 74396, Note Name: D#5
Note ON: Time 74400, Note Name: D#5, Velocity: 66
Note OFF: Time 74760, Note Name: D#5
Note ON: Time 74760, Note Name: F5, Velocity: 62
Note OFF: Time 74880, Note Name: F5
Note ON: Time 74880, Note Name: D#5, Velocity: 76
Note OFF: Time 75840, Note Name: D#5
Note ON: Time 75840, Note Name: D5, Velocity: 62
Note OFF: Time 76320, Note Name: D5
Note ON: Time 76320, Note Name: A#5, Velocity: 81
Note OFF: Time 77280, Note Name: A#5
Note ON: Time 77280, Note Name: C#5, Velocity: 62
Note OFF: Time 77760, Note Name: C#5
Note ON: Time 77760, Note Name: A5, Velocity: 76
Note OFF: Time 78720, Note Name: A5
Note ON: Time 78720, Note Name: C5, Velocity: 55
Note OFF: Time 79200, Note Name: C5
Note ON: Time 79200, Note Name: G#5, Velocity: 71
Note OFF: Time 80160, Note Name: G#5
Note ON: Time 80160, Note Name: B4, Velocity: 42
Note OFF: Time 80640, Note Name: B4
Note ON: Time 80640, Note Name: G5, Velocity: 56
Note OFF: Time 81360, Note Name: G5
Note ON: Time 81360, Note Name: A#4, Velocity: 47
Note OFF: Time 81600, Note Name: A#4
Note ON: Time 81600, Note Name: A4, Velocity: 45
Note OFF: Time 81840, Note Name: A4
Note ON: Time 81840, Note Name: E5, Velocity: 45
Note OFF: Time 82080, Note Name: E5
Note ON: Time 82080, Note Name: F5, Velocity: 46
Note OFF: Time 82320, Note Name: F5
Note ON: Time 82320, Note Name: E5, Velocity: 45
Note OFF: Time 82560, Note Name: E5
Note ON: Time 82560, Note Name: D5, Velocity: 45
Note OFF: Time 83040, Note Name: D5
Note ON: Time 83040, Note Name: F5, Velocity: 48
Note OFF: Time 83514, Note Name: F5
Note ON: Time 83520, Note Name: F5, Velocity: 47
Note OFF: Time 84480, Note Name: F5
Note ON: Time 84480, Note Name: E5, Velocity: 43
Note OFF: Time 84960, Note Name: E5
Note ON: Time 84960, Note Name: D5, Velocity: 42
Note OFF: Time 85040, Note Name: D5
Note ON: Time 85040, Note Name: E5, Velocity: 43
Note OFF: Time 85120, Note Name: E5
Note ON: Time 85120, Note Name: D5, Velocity: 44
Note OFF: Time 85200, Note Name: D5
Note ON: Time 85200, Note Name: C#5, Velocity: 45
Note OFF: Time 85440, Note Name: C#5
Note ON: Time 85440, Note Name: D5, Velocity: 47
Note OFF: Time 85680, Note Name: D5
Note ON: Time 85680, Note Name: D#5, Velocity: 45
Note OFF: Time 85920, Note Name: D#5
Note ON: Time 85920, Note Name: E5, Velocity: 53
Note OFF: Time 86160, Note Name: E5
Note ON: Time 86160, Note Name: B4, Velocity: 46
Note OFF: Time 86400, Note Name: B4
Note ON: Time 86400, Note Name: D5, Velocity: 54
Note OFF: Time 87360, Note Name: D5
Note ON: Time 87360, Note Name: C5, Velocity: 45
Note OFF: Time 87840, Note Name: C5
Note ON: Time 87840, Note Name: A4, Velocity: 46
Note OFF: Time 88000, Note Name: A4
Note ON: Time 88000, Note Name: A#4, Velocity: 43
Note OFF: Time 88160, Note Name: A#4
Note ON: Time 88160, Note Name: A4, Velocity: 43
Note OFF: Time 88320, Note Name: A4
Note ON: Time 88320, Note Name: G4, Velocity: 47
Note OFF: Time 88800, Note Name: G4
Note ON: Time 88800, Note Name: A4, Velocity: 51
Note OFF: Time 89280, Note Name: A4
Note ON: Time 89280, Note Name: A#4, Velocity: 61
Note OFF: Time 89760, Note Name: A#4
Note ON: Time 89760, Note Name: D5, Velocity: 61
Note OFF: Time 90240, Note Name: D5
Note ON: Time 90720, Note Name: A4, Velocity: 48
Note OFF: Time 91080, Note Name: A4
Note ON: Time 91080, Note Name: G#4, Velocity: 44
Note OFF: Time 91200, Note Name: G#4
Note ON: Time 91200, Note Name: D4, Velocity: 40
Note ON: Time 91200, Note Name: E4, Velocity: 48
Note OFF: Time 91680, Note Name: E4
Note OFF: Time 91680, Note Name: D4
Note ON: Time 91680, Note Name: G#4, Velocity: 45
Note ON: Time 91680, Note Name: D4, Velocity: 38
Note OFF: Time 92160, Note Name: D4
Note OFF: Time 92160, Note Name: G#4
Note ON: Time 92160, Note Name: A4, Velocity: 46
Note ON: Time 92640, Note Name: C#4, Velocity: 25
Note ON: Time 92640, Note Name: E4, Velocity: 30
Note OFF: Time 93120, Note Name: E4
Note OFF: Time 93120, Note Name: C#4
Note OFF: Time 93120, Note Name: A4
Note ON: Time 93120, Note Name: C#4, Velocity: 26
Note ON: Time 93120, Note Name: E4, Velocity: 31
Note OFF: Time 93600, Note Name: E4
Note OFF: Time 93600, Note Name: C#4
Note ON: Time 93600, Note Name: G4, Velocity: 45
Note ON: Time 93600, Note Name: C#5, Velocity: 54
Note OFF: Time 93840, Note Name: C#5
Note ON: Time 93960, Note Name: C#5, Velocity: 49
Note OFF: Time 94080, Note Name: C#5
Note OFF: Time 94080, Note Name: G4
Note ON: Time 94080, Note Name: F#4, Velocity: 45
Note ON: Time 94080, Note Name: D5, Velocity: 54
Note OFF: Time 94560, Note Name: D5
Note OFF: Time 94560, Note Name: F#4
Note ON: Time 94560, Note Name: F4, Velocity: 44
Note ON: Time 94560, Note Name: B4, Velocity: 53
Note OFF: Time 95040, Note Name: B4
Note OFF: Time 95040, Note Name: F4
Note ON: Time 95040, Note Name: D4, Velocity: 45
Note ON: Time 95040, Note Name: G#4, Velocity: 54
Note OFF: Time 95400, Note Name: G#4
Note ON: Time 95400, Note Name: E4, Velocity: 51
Note OFF: Time 95520, Note Name: E4
Note OFF: Time 95520, Note Name: D4
Note ON: Time 95520, Note Name: C#4, Velocity: 45
Note ON: Time 95520, Note Name: A4, Velocity: 54
Note OFF: Time 96240, Note Name: A4
Note OFF: Time 96240, Note Name: C#4
Note ON: Time 96240, Note Name: G#4, Velocity: 45
Note ON: Time 96240, Note Name: B4, Velocity: 54
Note OFF: Time 96480, Note Name: B4
Note OFF: Time 96480, Note Name: G#4
Note ON: Time 96480, Note Name: G4, Velocity: 45
Note ON: Time 96480, Note Name: C#5, Velocity: 54
Note OFF: Time 96840, Note Name: C#5
Note ON: Time 96840, Note Name: E5, Velocity: 54
Note OFF: Time 96960, Note Name: E5
Note OFF: Time 96960, Note Name: G4
Note ON: Time 96960, Note Name: F#4, Velocity: 47
Note ON: Time 96960, Note Name: D5, Velocity: 56
Note OFF: Time 97320, Note Name: D5
Note OFF: Time 97320, Note Name: F#4
Note ON: Time 97440, Note Name: F4, Velocity: 45
Note ON: Time 97440, Note Name: B4, Velocity: 54
Note OFF: Time 97920, Note Name: B4
Note OFF: Time 97920, Note Name: F4
Note ON: Time 97920, Note Name: D4, Velocity: 45
Note ON: Time 97920, Note Name: G#4, Velocity: 54
Note OFF: Time 98080, Note Name: G#4
Note ON: Time 98080, Note Name: F#4, Velocity: 56
Note OFF: Time 98240, Note Name: F#4
Note ON: Time 98240, Note Name: E4, Velocity: 57
Note OFF: Time 98400, Note Name: E4
Note OFF: Time 98400, Note Name: D4
Note ON: Time 98400, Note Name: C#4, Velocity: 52
Note ON: Time 98400, Note Name: A4, Velocity: 62
Note OFF: Time 99120, Note Name: A4
Note OFF: Time 99120, Note Name: C#4
Note ON: Time 99120, Note Name: G#4, Velocity: 45
Note ON: Time 99120, Note Name: B4, Velocity: 54
Note OFF: Time 99360, Note Name: B4
Note OFF: Time 99360, Note Name: G#4
Note ON: Time 99360, Note Name: G4, Velocity: 44
Note ON: Time 99360, Note Name: C#5, Velocity: 52
Note OFF: Time 99420, Note Name: C#5
Note OFF: Time 99420, Note Name: G4
Note ON: Time 99520, Note Name: G4, Velocity: 45
Note ON: Time 99520, Note Name: C#5, Velocity: 54
Note OFF: Time 99580, Note Name: C#5
Note OFF: Time 99580, Note Name: G4
Note ON: Time 99680, Note Name: G4, Velocity: 46
Note ON: Time 99680, Note Name: C#5, Velocity: 55
Note OFF: Time 99740, Note Name: C#5
Note OFF: Time 99740, Note Name: G4
Note ON: Time 99840, Note Name: F#4, Velocity: 50
Note ON: Time 99840, Note Name: D5, Velocity: 59
Note OFF: Time 100080, Note Name: D5
Note OFF: Time 100080, Note Name: F#4
Note ON: Time 100320, Note Name: F4, Velocity: 44
Note ON: Time 100320, Note Name: B4, Velocity: 53
Note OFF: Time 100800, Note Name: B4
Note OFF: Time 100800, Note Name: F4
Note ON: Time 100800, Note Name: D4, Velocity: 45
Note ON: Time 100800, Note Name: G#4, Velocity: 54
Note OFF: Time 100860, Note Name: G#4
Note OFF: Time 100860, Note Name: D4
Note ON: Time 100960, Note Name: D4, Velocity: 43
Note ON: Time 100960, Note Name: F#4, Velocity: 51
Note OFF: Time 101020, Note Name: F#4
Note OFF: Time 101020, Note Name: D4
Note ON: Time 101120, Note Name: D4, Velocity: 43
Note ON: Time 101120, Note Name: E4, Velocity: 51
Note OFF: Time 101180, Note Name: E4
Note OFF: Time 101180, Note Name: D4
Note ON: Time 101280, Note Name: C#4, Velocity: 45
Note ON: Time 101280, Note Name: A4, Velocity: 54
Note OFF: Time 102000, Note Name: A4
Note OFF: Time 102000, Note Name: C#4
Note ON: Time 102000, Note Name: G#4, Velocity: 45
Note ON: Time 102000, Note Name: B4, Velocity: 54
Note OFF: Time 102240, Note Name: B4
Note OFF: Time 102240, Note Name: G#4
Note ON: Time 102240, Note Name: G4, Velocity: 43
Note ON: Time 102240, Note Name: C#5, Velocity: 51
Note OFF: Time 102300, Note Name: C#5
Note OFF: Time 102300, Note Name: G4
Note ON: Time 102400, Note Name: G4, Velocity: 45
Note ON: Time 102400, Note Name: D5, Velocity: 54
Note OFF: Time 102460, Note Name: D5
Note OFF: Time 102460, Note Name: G4
Note ON: Time 102560, Note Name: G4, Velocity: 47
Note ON: Time 102560, Note Name: E5, Velocity: 56
Note OFF: Time 102620, Note Name: E5
Note OFF: Time 102620, Note Name: G4
Note ON: Time 102720, Note Name: F#4, Velocity: 51
Note ON: Time 102720, Note Name: D5, Velocity: 61
Note OFF: Time 102960, Note Name: D5
Note OFF: Time 102960, Note Name: F#4
Note ON: Time 103200, Note Name: F4, Velocity: 45
Note ON: Time 103200, Note Name: B4, Velocity: 54
Note OFF: Time 103680, Note Name: B4
Note OFF: Time 103680, Note Name: F4
Note ON: Time 103680, Note Name: D4, Velocity: 45
Note ON: Time 103680, Note Name: G#4, Velocity: 54
Note OFF: Time 103740, Note Name: G#4
Note OFF: Time 103740, Note Name: D4
Note ON: Time 103840, Note Name: D4, Velocity: 45
Note ON: Time 103840, Note Name: F#4, Velocity: 56
Note OFF: Time 103900, Note Name: F#4
Note OFF: Time 103900, Note Name: D4
Note ON: Time 104000, Note Name: D4, Velocity: 45
Note ON: Time 104000, Note Name: E4, Velocity: 57
Note OFF: Time 104060, Note Name: E4
Note OFF: Time 104060, Note Name: D4
Note ON: Time 104160, Note Name: C#4, Velocity: 51
Note ON: Time 104160, Note Name: A4, Velocity: 61
Note OFF: Time 105120, Note Name: A4
Note OFF: Time 105120, Note Name: C#4
Note ON: Time 105120, Note Name: C#5, Velocity: 80
Note ON: Time 105120, Note Name: A4, Velocity: 68
Note OFF: Time 105360, Note Name: A4
Note OFF: Time 105360, Note Name: C#5
Note ON: Time 105480, Note Name: C#5, Velocity: 75
Note ON: Time 105480, Note Name: A4, Velocity: 64
Note OFF: Time 105600, Note Name: A4
Note OFF: Time 105600, Note Name: C#5
Note ON: Time 105600, Note Name: D5, Velocity: 79
Note ON: Time 105600, Note Name: B4, Velocity: 67
Note OFF: Time 105960, Note Name: B4
Note OFF: Time 105960, Note Name: D5
Note ON: Time 106080, Note Name: B4, Velocity: 72
Note ON: Time 106080, Note Name: G#4, Velocity: 60
Note OFF: Time 106440, Note Name: G#4
Note OFF: Time 106440, Note Name: B4
Note ON: Time 106560, Note Name: A4, Velocity: 65
Note ON: Time 106560, Note Name: C#5, Velocity: 77
Note OFF: Time 106720, Note Name: C#5
Note OFF: Time 106720, Note Name: A4
Note ON: Time 106720, Note Name: G#4, Velocity: 60
Note ON: Time 106720, Note Name: B4, Velocity: 72
Note OFF: Time 106880, Note Name: B4
Note OFF: Time 106880, Note Name: G#4
Note ON: Time 106880, Note Name: A4, Velocity: 72
Note ON: Time 106880, Note Name: F#4, Velocity: 60
Note OFF: Time 107040, Note Name: F#4
Note OFF: Time 107040, Note Name: A4
Note ON: Time 107040, Note Name: B4, Velocity: 66
Note ON: Time 107040, Note Name: D5, Velocity: 78
Note OFF: Time 107400, Note Name: D5
Note OFF: Time 107400, Note Name: B4
Note ON: Time 107520, Note Name: G#4, Velocity: 61
Note ON: Time 107520, Note Name: B4, Velocity: 73
Note OFF: Time 107880, Note Name: B4
Note OFF: Time 107880, Note Name: G#4
Note ON: Time 108000, Note Name: C#5, Velocity: 80
Note ON: Time 108000, Note Name: A4, Velocity: 68
Note OFF: Time 108240, Note Name: A4
Note OFF: Time 108240, Note Name: C#5
Note ON: Time 108360, Note Name: C#5, Velocity: 75
Note ON: Time 108360, Note Name: A4, Velocity: 64
Note OFF: Time 108480, Note Name: A4
Note OFF: Time 108480, Note Name: C#5
Note ON: Time 108480, Note Name: D5, Velocity: 79
Note ON: Time 108480, Note Name: B4, Velocity: 67
Note OFF: Time 108840, Note Name: B4
Note OFF: Time 108840, Note Name: D5
Note ON: Time 108960, Note Name: B4, Velocity: 72
Note ON: Time 108960, Note Name: G#4, Velocity: 60
Note OFF: Time 109320, Note Name: G#4
Note OFF: Time 109320, Note Name: B4
Note ON: Time 109440, Note Name: A4, Velocity: 65
Note ON: Time 109440, Note Name: C#5, Velocity: 77
Note OFF: Time 109600, Note Name: C#5
Note OFF: Time 109600, Note Name: A4
Note ON: Time 109600, Note Name: G#4, Velocity: 60
Note ON: Time 109600, Note Name: B4, Velocity: 72
Note OFF: Time 109760, Note Name: B4
Note OFF: Time 109760, Note Name: G#4
Note ON: Time 109760, Note Name: A4, Velocity: 72
Note ON: Time 109760, Note Name: F#4, Velocity: 60
Note OFF: Time 109920, Note Name: F#4
Note OFF: Time 109920, Note Name: A4
Note ON: Time 109920, Note Name: F#5, Velocity: 75
Note ON: Time 109920, Note Name: F#6, Velocity: 89
Note OFF: Time 110400, Note Name: F#6
Note OFF: Time 110400, Note Name: F#5
Note ON: Time 110400, Note Name: F#5, Velocity: 70
Note ON: Time 110400, Note Name: F#6, Velocity: 83
Note OFF: Time 110880, Note Name: F#6
Note OFF: Time 110880, Note Name: F#5
Note ON: Time 110880, Note Name: C#5, Velocity: 80
Note ON: Time 110880, Note Name: A4, Velocity: 68
Note OFF: Time 111120, Note Name: A4
Note OFF: Time 111120, Note Name: C#5
Note ON: Time 111240, Note Name: C#5, Velocity: 75
Note ON: Time 111240, Note Name: A4, Velocity: 64
Note OFF: Time 111360, Note Name: A4
Note OFF: Time 111360, Note Name: C#5
Note ON: Time 111360, Note Name: D5, Velocity: 79
Note ON: Time 111360, Note Name: B4, Velocity: 67
Note OFF: Time 111720, Note Name: B4
Note OFF: Time 111720, Note Name: D5
Note ON: Time 111840, Note Name: B4, Velocity: 72
Note ON: Time 111840, Note Name: G#4, Velocity: 60
Note OFF: Time 112200, Note Name: G#4
Note OFF: Time 112200, Note Name: B4
Note ON: Time 112320, Note Name: A4, Velocity: 65
Note ON: Time 112320, Note Name: C#5, Velocity: 77
Note OFF: Time 112480, Note Name: C#5
Note OFF: Time 112480, Note Name: A4
Note ON: Time 112480, Note Name: G#4, Velocity: 60
Note ON: Time 112480, Note Name: B4, Velocity: 72
Note OFF: Time 112640, Note Name: B4
Note OFF: Time 112640, Note Name: G#4
Note ON: Time 112640, Note Name: A4, Velocity: 72
Note ON: Time 112640, Note Name: F#4, Velocity: 60
Note OFF: Time 112800, Note Name: F#4
Note OFF: Time 112800, Note Name: A4
Note ON: Time 112800, Note Name: B4, Velocity: 66
Note ON: Time 112800, Note Name: D5, Velocity: 78
Note OFF: Time 113160, Note Name: D5
Note OFF: Time 113160, Note Name: B4
Note ON: Time 113280, Note Name: G#4, Velocity: 61
Note ON: Time 113280, Note Name: B4, Velocity: 73
Note OFF: Time 113640, Note Name: B4
Note OFF: Time 113640, Note Name: G#4
Note ON: Time 113760, Note Name: A4, Velocity: 57
Note ON: Time 113760, Note Name: C#5, Velocity: 68
Note OFF: Time 114000, Note Name: C#5
Note ON: Time 114000, Note Name: D#5, Velocity: 71
Note OFF: Time 114240, Note Name: D#5
Note OFF: Time 114240, Note Name: A4
Note ON: Time 114240, Note Name: G#4, Velocity: 62
Note ON: Time 114240, Note Name: E5, Velocity: 74
Note OFF: Time 115200, Note Name: E5
Note OFF: Time 115200, Note Name: G#4
Note ON: Time 115200, Note Name: A4, Velocity: 57
Note ON: Time 115200, Note Name: C#5, Velocity: 68
Note OFF: Time 115440, Note Name: C#5
Note ON: Time 115440, Note Name: D#5, Velocity: 71
Note OFF: Time 115560, Note Name: D#5
Note ON: Time 115560, Note Name: F#5, Velocity: 69
Note OFF: Time 115680, Note Name: F#5
Note OFF: Time 115680, Note Name: A4
Note ON: Time 115680, Note Name: G#4, Velocity: 62
Note ON: Time 115680, Note Name: E5, Velocity: 74
Note OFF: Time 116400, Note Name: E5
Note ON: Time 116400, Note Name: D5, Velocity: 70
Note OFF: Time 116640, Note Name: D5
Note OFF: Time 116640, Note Name: G#4
Note ON: Time 116640, Note Name: G4, Velocity: 50
Note ON: Time 116640, Note Name: C#5, Velocity: 60
Note OFF: Time 116880, Note Name: C#5
Note ON: Time 117000, Note Name: C#5, Velocity: 55
Note OFF: Time 117120, Note Name: C#5
Note OFF: Time 117120, Note Name: G4
Note ON: Time 117120, Note Name: F#4, Velocity: 51
Note ON: Time 117120, Note Name: D5, Velocity: 61
Note OFF: Time 117600, Note Name: D5
Note OFF: Time 117600, Note Name: F#4
Note ON: Time 117600, Note Name: F4, Velocity: 49
Note ON: Time 117600, Note Name: B4, Velocity: 59
Note OFF: Time 118080, Note Name: B4
Note OFF: Time 118080, Note Name: F4
Note ON: Time 118080, Note Name: D4, Velocity: 50
Note ON: Time 118080, Note Name: G#4, Velocity: 60
Note OFF: Time 118440, Note Name: G#4
Note ON: Time 118440, Note Name: E4, Velocity: 57
Note OFF: Time 118560, Note Name: E4
Note OFF: Time 118560, Note Name: D4
Note ON: Time 118560, Note Name: C#4, Velocity: 50
Note ON: Time 118560, Note Name: A4, Velocity: 60
Note OFF: Time 119280, Note Name: A4
Note OFF: Time 119280, Note Name: C#4
Note ON: Time 119280, Note Name: G#4, Velocity: 50
Note ON: Time 119280, Note Name: B4, Velocity: 60
Note OFF: Time 119520, Note Name: B4
Note OFF: Time 119520, Note Name: G#4
Note ON: Time 119520, Note Name: G4, Velocity: 51
Note ON: Time 119520, Note Name: C#5, Velocity: 61
Note OFF: Time 119880, Note Name: C#5
Note ON: Time 119880, Note Name: E5, Velocity: 60
Note OFF: Time 120000, Note Name: E5
Note OFF: Time 120000, Note Name: G4
Note ON: Time 120000, Note Name: F#4, Velocity: 53
Note ON: Time 120000, Note Name: D5, Velocity: 63
Note OFF: Time 120480, Note Name: D5
Note OFF: Time 120480, Note Name: F#4
Note ON: Time 120480, Note Name: F4, Velocity: 50
Note ON: Time 120480, Note Name: B4, Velocity: 60
Note OFF: Time 120960, Note Name: B4
Note OFF: Time 120960, Note Name: F4
Note ON: Time 120960, Note Name: D4, Velocity: 51
Note ON: Time 120960, Note Name: G#4, Velocity: 61
Note OFF: Time 121120, Note Name: G#4
Note ON: Time 121120, Note Name: F#4, Velocity: 63
Note OFF: Time 121280, Note Name: F#4
Note ON: Time 121280, Note Name: E4, Velocity: 64
Note OFF: Time 121440, Note Name: E4
Note OFF: Time 121440, Note Name: D4
Note ON: Time 121440, Note Name: C#4, Velocity: 58
Note ON: Time 121440, Note Name: A4, Velocity: 69
Note OFF: Time 122160, Note Name: A4
Note OFF: Time 122160, Note Name: C#4
Note ON: Time 122160, Note Name: G#4, Velocity: 50
Note ON: Time 122160, Note Name: B4, Velocity: 60
Note OFF: Time 122400, Note Name: B4
Note OFF: Time 122400, Note Name: G#4
Note ON: Time 122400, Note Name: G4, Velocity: 49
Note ON: Time 122400, Note Name: C#5, Velocity: 58
Note OFF: Time 122460, Note Name: C#5
Note OFF: Time 122460, Note Name: G4
Note ON: Time 122560, Note Name: G4, Velocity: 50
Note ON: Time 122560, Note Name: C#5, Velocity: 60
Note OFF: Time 122620, Note Name: C#5
Note OFF: Time 122620, Note Name: G4
Note ON: Time 122720, Note Name: G4, Velocity: 52
Note ON: Time 122720, Note Name: C#5, Velocity: 62
Note OFF: Time 122780, Note Name: C#5
Note OFF: Time 122780, Note Name: G4
Note ON: Time 122880, Note Name: F#4, Velocity: 56
Note ON: Time 122880, Note Name: D5, Velocity: 66
Note OFF: Time 123120, Note Name: D5
Note OFF: Time 123120, Note Name: F#4
Note ON: Time 123360, Note Name: F4, Velocity: 49
Note ON: Time 123360, Note Name: B4, Velocity: 59
Note OFF: Time 123840, Note Name: B4
Note OFF: Time 123840, Note Name: F4
Note ON: Time 123840, Note Name: D4, Velocity: 51
Note ON: Time 123840, Note Name: G#4, Velocity: 61
Note OFF: Time 123900, Note Name: G#4
Note OFF: Time 123900, Note Name: D4
Note ON: Time 124000, Note Name: D4, Velocity: 48
Note ON: Time 124000, Note Name: F#4, Velocity: 57
Note OFF: Time 124060, Note Name: F#4
Note OFF: Time 124060, Note Name: D4
Note ON: Time 124160, Note Name: D4, Velocity: 48
Note ON: Time 124160, Note Name: E4, Velocity: 57
Note OFF: Time 124220, Note Name: E4
Note OFF: Time 124220, Note Name: D4
Note ON: Time 124320, Note Name: C#4, Velocity: 50
Note ON: Time 124320, Note Name: A4, Velocity: 60
Note OFF: Time 125040, Note Name: A4
Note OFF: Time 125040, Note Name: C#4
Note ON: Time 125040, Note Name: G#4, Velocity: 50
Note ON: Time 125040, Note Name: B4, Velocity: 60
Note OFF: Time 125280, Note Name: B4
Note OFF: Time 125280, Note Name: G#4
Note ON: Time 125280, Note Name: G4, Velocity: 48
Note ON: Time 125280, Note Name: C#5, Velocity: 57
Note OFF: Time 125340, Note Name: C#5
Note OFF: Time 125340, Note Name: G4
Note ON: Time 125440, Note Name: G4, Velocity: 50
Note ON: Time 125440, Note Name: D5, Velocity: 60
Note OFF: Time 125500, Note Name: D5
Note OFF: Time 125500, Note Name: G4
Note ON: Time 125600, Note Name: G4, Velocity: 53
Note ON: Time 125600, Note Name: E5, Velocity: 63
Note OFF: Time 125660, Note Name: E5
Note OFF: Time 125660, Note Name: G4
Note ON: Time 125760, Note Name: F#4, Velocity: 57
Note ON: Time 125760, Note Name: D5, Velocity: 68
Note OFF: Time 126000, Note Name: D5
Note OFF: Time 126000, Note Name: F#4
Note ON: Time 126240, Note Name: F4, Velocity: 50
Note ON: Time 126240, Note Name: B4, Velocity: 60
Note OFF: Time 126720, Note Name: B4
Note OFF: Time 126720, Note Name: F4
Note ON: Time 126720, Note Name: D4, Velocity: 51
Note ON: Time 126720, Note Name: G#4, Velocity: 61
Note OFF: Time 126780, Note Name: G#4
Note OFF: Time 126780, Note Name: D4
Note ON: Time 126880, Note Name: D4, Velocity: 51
Note ON: Time 126880, Note Name: F#4, Velocity: 63
Note OFF: Time 126940, Note Name: F#4
Note OFF: Time 126940, Note Name: D4
Note ON: Time 127040, Note Name: D4, Velocity: 51
Note ON: Time 127040, Note Name: E4, Velocity: 64
Note OFF: Time 127100, Note Name: E4
Note OFF: Time 127100, Note Name: D4
Note ON: Time 127200, Note Name: C#4, Velocity: 57
Note ON: Time 127200, Note Name: A4, Velocity: 68
Note OFF: Time 128160, Note Name: A4
Note OFF: Time 128160, Note Name: C#4
Note ON: Time 128160, Note Name: C#5, Velocity: 80
Note ON: Time 128160, Note Name: A4, Velocity: 68
Note OFF: Time 128400, Note Name: A4
Note OFF: Time 128400, Note Name: C#5
Note ON: Time 128520, Note Name: C#5, Velocity: 75
Note ON: Time 128520, Note Name: A4, Velocity: 64
Note OFF: Time 128640, Note Name: A4
Note OFF: Time 128640, Note Name: C#5
Note ON: Time 128640, Note Name: D5, Velocity: 79
Note ON: Time 128640, Note Name: B4, Velocity: 67
Note OFF: Time 129000, Note Name: B4
Note OFF: Time 129000, Note Name: D5
Note ON: Time 129120, Note Name: B4, Velocity: 72
Note ON: Time 129120, Note Name: G#4, Velocity: 60
Note OFF: Time 129480, Note Name: G#4
Note OFF: Time 129480, Note Name: B4
Note ON: Time 129600, Note Name: A4, Velocity: 65
Note ON: Time 129600, Note Name: C#5, Velocity: 77
Note OFF: Time 129760, Note Name: C#5
Note OFF: Time 129760, Note Name: A4
Note ON: Time 129760, Note Name: G#4, Velocity: 60
Note ON: Time 129760, Note Name: B4, Velocity: 72
Note OFF: Time 129920, Note Name: B4
Note OFF: Time 129920, Note Name: G#4
Note ON: Time 129920, Note Name: A4, Velocity: 72
Note ON: Time 129920, Note Name: F#4, Velocity: 60
Note OFF: Time 130080, Note Name: F#4
Note OFF: Time 130080, Note Name: A4
Note ON: Time 130080, Note Name: B4, Velocity: 66
Note ON: Time 130080, Note Name: D5, Velocity: 78
Note OFF: Time 130440, Note Name: D5
Note OFF: Time 130440, Note Name: B4
Note ON: Time 130560, Note Name: G#4, Velocity: 61
Note ON: Time 130560, Note Name: B4, Velocity: 73
Note OFF: Time 130920, Note Name: B4
Note OFF: Time 130920, Note Name: G#4
Note ON: Time 131040, Note Name: C#5, Velocity: 80
Note ON: Time 131040, Note Name: A4, Velocity: 68
Note OFF: Time 131280, Note Name: A4
Note OFF: Time 131280, Note Name: C#5
Note ON: Time 131400, Note Name: C#5, Velocity: 75
Note ON: Time 131400, Note Name: A4, Velocity: 64
Note OFF: Time 131520, Note Name: A4
Note OFF: Time 131520, Note Name: C#5
Note ON: Time 131520, Note Name: D5, Velocity: 79
Note ON: Time 131520, Note Name: B4, Velocity: 67
Note OFF: Time 131880, Note Name: B4
Note OFF: Time 131880, Note Name: D5
Note ON: Time 132000, Note Name: B4, Velocity: 72
Note ON: Time 132000, Note Name: G#4, Velocity: 60
Note OFF: Time 132360, Note Name: G#4
Note OFF: Time 132360, Note Name: B4
Note ON: Time 132480, Note Name: A4, Velocity: 65
Note ON: Time 132480, Note Name: C#5, Velocity: 77
Note OFF: Time 132640, Note Name: C#5
Note OFF: Time 132640, Note Name: A4
Note ON: Time 132640, Note Name: G#4, Velocity: 60
Note ON: Time 132640, Note Name: B4, Velocity: 72
Note OFF: Time 132800, Note Name: B4
Note OFF: Time 132800, Note Name: G#4
Note ON: Time 132800, Note Name: A4, Velocity: 72
Note ON: Time 132800, Note Name: F#4, Velocity: 60
Note OFF: Time 132960, Note Name: F#4
Note OFF: Time 132960, Note Name: A4
Note ON: Time 132960, Note Name: F#5, Velocity: 75
Note ON: Time 132960, Note Name: F#6, Velocity: 89
Note OFF: Time 133440, Note Name: F#6
Note OFF: Time 133440, Note Name: F#5
Note ON: Time 133440, Note Name: F#5, Velocity: 70
Note ON: Time 133440, Note Name: F#6, Velocity: 83
Note OFF: Time 133920, Note Name: F#6
Note OFF: Time 133920, Note Name: F#5
Note ON: Time 133920, Note Name: C#5, Velocity: 80
Note ON: Time 133920, Note Name: A4, Velocity: 68
Note OFF: Time 134160, Note Name: A4
Note OFF: Time 134160, Note Name: C#5
Note ON: Time 134280, Note Name: C#5, Velocity: 75
Note ON: Time 134280, Note Name: A4, Velocity: 64
Note OFF: Time 134400, Note Name: A4
Note OFF: Time 134400, Note Name: C#5
Note ON: Time 134400, Note Name: D5, Velocity: 79
Note ON: Time 134400, Note Name: B4, Velocity: 67
Note OFF: Time 134760, Note Name: B4
Note OFF: Time 134760, Note Name: D5
Note ON: Time 134880, Note Name: B4, Velocity: 72
Note ON: Time 134880, Note Name: G#4, Velocity: 60
Note OFF: Time 135240, Note Name: G#4
Note OFF: Time 135240, Note Name: B4
Note ON: Time 135360, Note Name: A4, Velocity: 65
Note ON: Time 135360, Note Name: C#5, Velocity: 77
Note OFF: Time 135520, Note Name: C#5
Note OFF: Time 135520, Note Name: A4
Note ON: Time 135520, Note Name: G#4, Velocity: 60
Note ON: Time 135520, Note Name: B4, Velocity: 72
Note OFF: Time 135680, Note Name: B4
Note OFF: Time 135680, Note Name: G#4
Note ON: Time 135680, Note Name: A4, Velocity: 72
Note ON: Time 135680, Note Name: F#4, Velocity: 60
Note OFF: Time 135840, Note Name: F#4
Note OFF: Time 135840, Note Name: A4
Note ON: Time 135840, Note Name: B4, Velocity: 66
Note ON: Time 135840, Note Name: D5, Velocity: 78
Note OFF: Time 136200, Note Name: D5
Note OFF: Time 136200, Note Name: B4
Note ON: Time 136320, Note Name: G#4, Velocity: 61
Note ON: Time 136320, Note Name: B4, Velocity: 73
Note OFF: Time 136680, Note Name: B4
Note OFF: Time 136680, Note Name: G#4
Note ON: Time 136800, Note Name: A4, Velocity: 57
Note ON: Time 136800, Note Name: C#5, Velocity: 68
Note OFF: Time 137040, Note Name: C#5
Note ON: Time 137040, Note Name: D#5, Velocity: 71
Note OFF: Time 137280, Note Name: D#5
Note OFF: Time 137280, Note Name: A4
Note ON: Time 137280, Note Name: G#4, Velocity: 62
Note ON: Time 137280, Note Name: E5, Velocity: 74
Note OFF: Time 138240, Note Name: E5
Note OFF: Time 138240, Note Name: G#4
Note ON: Time 138240, Note Name: A4, Velocity: 57
Note ON: Time 138240, Note Name: C#5, Velocity: 68
Note OFF: Time 138480, Note Name: C#5
Note ON: Time 138480, Note Name: D#5, Velocity: 71
Note OFF: Time 138600, Note Name: D#5
Note ON: Time 138600, Note Name: F#5, Velocity: 69
Note OFF: Time 138720, Note Name: F#5
Note OFF: Time 138720, Note Name: A4
Note ON: Time 138720, Note Name: G#4, Velocity: 62
Note ON: Time 138720, Note Name: E5, Velocity: 74
Note OFF: Time 139440, Note Name: E5
Note ON: Time 139440, Note Name: D5, Velocity: 70
Note OFF: Time 139680, Note Name: D5
Note OFF: Time 139680, Note Name: G#4
Note ON: Time 139680, Note Name: G4, Velocity: 50
Note ON: Time 139680, Note Name: C#5, Velocity: 60
Note OFF: Time 139920, Note Name: C#5
Note ON: Time 140040, Note Name: C#5, Velocity: 55
Note OFF: Time 140160, Note Name: C#5
Note OFF: Time 140160, Note Name: G4
Note ON: Time 140160, Note Name: F#4, Velocity: 51
Note ON: Time 140160, Note Name: D5, Velocity: 61
Note OFF: Time 140640, Note Name: D5
Note OFF: Time 140640, Note Name: F#4
Note ON: Time 140640, Note Name: F4, Velocity: 49
Note ON: Time 140640, Note Name: B4, Velocity: 59
Note OFF: Time 141120, Note Name: B4
Note OFF: Time 141120, Note Name: F4
Note ON: Time 141120, Note Name: D4, Velocity: 50
Note ON: Time 141120, Note Name: G#4, Velocity: 60
Note OFF: Time 141480, Note Name: G#4
Note ON: Time 141480, Note Name: E4, Velocity: 57
Note OFF: Time 141600, Note Name: E4
Note OFF: Time 141600, Note Name: D4
Note ON: Time 141600, Note Name: C#4, Velocity: 50
Note ON: Time 141600, Note Name: A4, Velocity: 60
Note OFF: Time 142320, Note Name: A4
Note OFF: Time 142320, Note Name: C#4
Note ON: Time 142320, Note Name: G#4, Velocity: 50
Note ON: Time 142320, Note Name: B4, Velocity: 60
Note OFF: Time 142560, Note Name: B4
Note OFF: Time 142560, Note Name: G#4
Note ON: Time 142560, Note Name: G4, Velocity: 51
Note ON: Time 142560, Note Name: C#5, Velocity: 61
Note OFF: Time 142920, Note Name: C#5
Note ON: Time 142920, Note Name: E5, Velocity: 60
Note OFF: Time 143040, Note Name: E5
Note OFF: Time 143040, Note Name: G4
Note ON: Time 143040, Note Name: F#4, Velocity: 53
Note ON: Time 143040, Note Name: D5, Velocity: 63
Note OFF: Time 143520, Note Name: D5
Note OFF: Time 143520, Note Name: F#4
Note ON: Time 143520, Note Name: F4, Velocity: 50
Note ON: Time 143520, Note Name: B4, Velocity: 60
Note OFF: Time 144000, Note Name: B4
Note OFF: Time 144000, Note Name: F4
Note ON: Time 144000, Note Name: D4, Velocity: 51
Note ON: Time 144000, Note Name: G#4, Velocity: 61
Note OFF: Time 144160, Note Name: G#4
Note ON: Time 144160, Note Name: F#4, Velocity: 63
Note OFF: Time 144320, Note Name: F#4
Note ON: Time 144320, Note Name: E4, Velocity: 64
Note OFF: Time 144480, Note Name: E4
Note OFF: Time 144480, Note Name: D4
Note ON: Time 144480, Note Name: C#4, Velocity: 58
Note ON: Time 144480, Note Name: A4, Velocity: 69
Note OFF: Time 145200, Note Name: A4
Note OFF: Time 145200, Note Name: C#4
Note ON: Time 145200, Note Name: G#4, Velocity: 50
Note ON: Time 145200, Note Name: B4, Velocity: 60
Note OFF: Time 145440, Note Name: B4
Note OFF: Time 145440, Note Name: G#4
Note ON: Time 145440, Note Name: G4, Velocity: 49
Note ON: Time 145440, Note Name: C#5, Velocity: 58
Note OFF: Time 145500, Note Name: C#5
Note OFF: Time 145500, Note Name: G4
Note ON: Time 145600, Note Name: G4, Velocity: 50
Note ON: Time 145600, Note Name: C#5, Velocity: 60
Note OFF: Time 145660, Note Name: C#5
Note OFF: Time 145660, Note Name: G4
Note ON: Time 145760, Note Name: G4, Velocity: 52
Note ON: Time 145760, Note Name: C#5, Velocity: 62
Note OFF: Time 145820, Note Name: C#5
Note OFF: Time 145820, Note Name: G4
Note ON: Time 145920, Note Name: F#4, Velocity: 56
Note ON: Time 145920, Note Name: D5, Velocity: 66
Note OFF: Time 146160, Note Name: D5
Note OFF: Time 146160, Note Name: F#4
Note ON: Time 146400, Note Name: F4, Velocity: 49
Note ON: Time 146400, Note Name: B4, Velocity: 59
Note OFF: Time 146880, Note Name: B4
Note OFF: Time 146880, Note Name: F4
Note ON: Time 146880, Note Name: D4, Velocity: 51
Note ON: Time 146880, Note Name: G#4, Velocity: 61
Note OFF: Time 146940, Note Name: G#4
Note OFF: Time 146940, Note Name: D4
Note ON: Time 147040, Note Name: D4, Velocity: 48
Note ON: Time 147040, Note Name: F#4, Velocity: 57
Note OFF: Time 147100, Note Name: F#4
Note OFF: Time 147100, Note Name: D4
Note ON: Time 147200, Note Name: D4, Velocity: 48
Note ON: Time 147200, Note Name: E4, Velocity: 57
Note OFF: Time 147260, Note Name: E4
Note OFF: Time 147260, Note Name: D4
Note ON: Time 147360, Note Name: C#4, Velocity: 50
Note ON: Time 147360, Note Name: A4, Velocity: 60
Note OFF: Time 148080, Note Name: A4
Note OFF: Time 148080, Note Name: C#4
Note ON: Time 148080, Note Name: G#4, Velocity: 50
Note ON: Time 148080, Note Name: B4, Velocity: 60
Note OFF: Time 148320, Note Name: B4
Note OFF: Time 148320, Note Name: G#4
Note ON: Time 148320, Note Name: G4, Velocity: 48
Note ON: Time 148320, Note Name: C#5, Velocity: 57
Note OFF: Time 148380, Note Name: C#5
Note OFF: Time 148380, Note Name: G4
Note ON: Time 148480, Note Name: G4, Velocity: 50
Note ON: Time 148480, Note Name: D5, Velocity: 60
Note OFF: Time 148540, Note Name: D5
Note OFF: Time 148540, Note Name: G4
Note ON: Time 148640, Note Name: G4, Velocity: 53
Note ON: Time 148640, Note Name: E5, Velocity: 63
Note OFF: Time 148700, Note Name: E5
Note OFF: Time 148700, Note Name: G4
Note ON: Time 148800, Note Name: F#4, Velocity: 57
Note ON: Time 148800, Note Name: D5, Velocity: 68
Note OFF: Time 149040, Note Name: D5
Note OFF: Time 149040, Note Name: F#4
Note ON: Time 149280, Note Name: F4, Velocity: 50
Note ON: Time 149280, Note Name: B4, Velocity: 60
Note OFF: Time 149760, Note Name: B4
Note OFF: Time 149760, Note Name: F4
Note ON: Time 149760, Note Name: D4, Velocity: 51
Note ON: Time 149760, Note Name: G#4, Velocity: 61
Note OFF: Time 149820, Note Name: G#4
Note OFF: Time 149820, Note Name: D4
Note ON: Time 149920, Note Name: D4, Velocity: 51
Note ON: Time 149920, Note Name: F#4, Velocity: 63
Note OFF: Time 149980, Note Name: F#4
Note OFF: Time 149980, Note Name: D4
Note ON: Time 150080, Note Name: D4, Velocity: 51
Note ON: Time 150080, Note Name: E4, Velocity: 64
Note OFF: Time 150140, Note Name: E4
Note OFF: Time 150140, Note Name: D4
Note ON: Time 150240, Note Name: C#4, Velocity: 57
Note ON: Time 150240, Note Name: A4, Velocity: 68
Note OFF: Time 150720, Note Name: A4
Note OFF: Time 150720, Note Name: C#4
Note ON: Time 150720, Note Name: E5, Velocity: 45
Note OFF: Time 151200, Note Name: E5
Note ON: Time 151200, Note Name: F5, Velocity: 46
Note OFF: Time 151560, Note Name: F5
Note ON: Time 151560, Note Name: E5, Velocity: 45
Note OFF: Time 151680, Note Name: E5
Note ON: Time 151680, Note Name: D5, Velocity: 45
Note OFF: Time 152160, Note Name: D5
Note ON: Time 152160, Note Name: F5, Velocity: 48
Note OFF: Time 152635, Note Name: F5
Note ON: Time 152640, Note Name: F5, Velocity: 47
Note OFF: Time 153600, Note Name: F5
Note ON: Time 153600, Note Name: E5, Velocity: 43
Note OFF: Time 154080, Note Name: E5
Note ON: Time 154080, Note Name: D5, Velocity: 42
Note OFF: Time 154160, Note Name: D5
Note ON: Time 154160, Note Name: E5, Velocity: 43
Note OFF: Time 154240, Note Name: E5
Note ON: Time 154240, Note Name: D5, Velocity: 44
Note OFF: Time 154320, Note Name: D5
Note ON: Time 154320, Note Name: C#5, Velocity: 45
Note OFF: Time 154560, Note Name: C#5
Note ON: Time 154560, Note Name: D5, Velocity: 47
Note OFF: Time 154800, Note Name: D5
Note ON: Time 154800, Note Name: D#5, Velocity: 45
Note OFF: Time 155040, Note Name: D#5
Note ON: Time 155040, Note Name: E5, Velocity: 51
Note OFF: Time 155280, Note Name: E5
Note ON: Time 155280, Note Name: B4, Velocity: 46
Note OFF: Time 155520, Note Name: B4
Note ON: Time 155520, Note Name: D5, Velocity: 54
Note OFF: Time 156480, Note Name: D5
Note ON: Time 156480, Note Name: C5, Velocity: 45
Note OFF: Time 156960, Note Name: C5
Note ON: Time 156960, Note Name: A4, Velocity: 62
Note OFF: Time 157120, Note Name: A4
Note ON: Time 157120, Note Name: B4, Velocity: 57
Note OFF: Time 157280, Note Name: B4
Note ON: Time 157280, Note Name: A4, Velocity: 57
Note OFF: Time 157440, Note Name: A4
Note ON: Time 157440, Note Name: G#4, Velocity: 63
Note OFF: Time 157680, Note Name: G#4
Note ON: Time 157920, Note Name: A4, Velocity: 67
Note OFF: Time 158160, Note Name: A4
Note ON: Time 158400, Note Name: B4, Velocity: 70
Note OFF: Time 158640, Note Name: B4
Note ON: Time 158880, Note Name: E5, Velocity: 72
Note OFF: Time 159840, Note Name: E5
Note ON: Time 159840, Note Name: B4, Velocity: 76
Note OFF: Time 160080, Note Name: B4
Note ON: Time 160080, Note Name: G4, Velocity: 73
Note OFF: Time 160320, Note Name: G4
Note ON: Time 160320, Note Name: E4, Velocity: 76
Note OFF: Time 160560, Note Name: E4
Note ON: Time 160560, Note Name: B4, Velocity: 71
Note OFF: Time 160800, Note Name: B4
Note ON: Time 160800, Note Name: D#4, Velocity: 73
Note OFF: Time 161280, Note Name: D#4
Note ON: Time 161280, Note Name: E4, Velocity: 76
Note OFF: Time 162240, Note Name: E4
Note ON: Time 162240, Note Name: E5, Velocity: 45
Note OFF: Time 162720, Note Name: E5
Note ON: Time 162720, Note Name: F5, Velocity: 46
Note OFF: Time 163080, Note Name: F5
Note ON: Time 163080, Note Name: E5, Velocity: 45
Note OFF: Time 163200, Note Name: E5
Note ON: Time 163200, Note Name: D5, Velocity: 45
Note OFF: Time 163680, Note Name: D5
Note ON: Time 163680, Note Name: F5, Velocity: 48
Note OFF: Time 164156, Note Name: F5
Note ON: Time 164160, Note Name: F5, Velocity: 47
Note OFF: Time 165120, Note Name: F5
Note ON: Time 165120, Note Name: E5, Velocity: 43
Note OFF: Time 165600, Note Name: E5
Note ON: Time 165600, Note Name: D5, Velocity: 42
Note OFF: Time 165680, Note Name: D5
Note ON: Time 165680, Note Name: E5, Velocity: 43
Note OFF: Time 165760, Note Name: E5
Note ON: Time 165760, Note Name: D5, Velocity: 44
Note OFF: Time 165840, Note Name: D5
Note ON: Time 165840, Note Name: C#5, Velocity: 45
Note OFF: Time 166080, Note Name: C#5
Note ON: Time 166080, Note Name: D5, Velocity: 47
Note OFF: Time 166320, Note Name: D5
Note ON: Time 166320, Note Name: D#5, Velocity: 45
Note OFF: Time 166560, Note Name: D#5
Note ON: Time 166560, Note Name: E5, Velocity: 47
Note OFF: Time 166800, Note Name: E5
Note ON: Time 166800, Note Name: B4, Velocity: 42
Note OFF: Time 166915, Note Name: B4
Note ON: Time 166920, Note Name: B4, Velocity: 42
Note OFF: Time 167040, Note Name: B4
Note ON: Time 167040, Note Name: D5, Velocity: 53
Note OFF: Time 168000, Note Name: D5
Note ON: Time 168000, Note Name: C5, Velocity: 45
Note OFF: Time 168480, Note Name: C5
Note ON: Time 168480, Note Name: A4, Velocity: 41
Note OFF: Time 168640, Note Name: A4
Note ON: Time 168640, Note Name: A#4, Velocity: 38
Note OFF: Time 168800, Note Name: A#4
Note ON: Time 168800, Note Name: A4, Velocity: 38
Note OFF: Time 168960, Note Name: A4
Note ON: Time 168960, Note Name: G4, Velocity: 42
Note OFF: Time 169440, Note Name: G4
Note ON: Time 169440, Note Name: A4, Velocity: 45
Note OFF: Time 169920, Note Name: A4
Note ON: Time 169920, Note Name: A#4, Velocity: 47
Note OFF: Time 170400, Note Name: A#4
Note ON: Time 170400, Note Name: D5, Velocity: 48
Note OFF: Time 170880, Note Name: D5
Note ON: Time 171360, Note Name: A4, Velocity: 40
Note OFF: Time 171720, Note Name: A4
Note ON: Time 171720, Note Name: G#4, Velocity: 37
Note OFF: Time 171840, Note Name: G#4
Note ON: Time 171840, Note Name: D4, Velocity: 34
Note ON: Time 171840, Note Name: E4, Velocity: 40
Note OFF: Time 172320, Note Name: E4
Note OFF: Time 172320, Note Name: D4
Note ON: Time 172320, Note Name: G#4, Velocity: 38
Note ON: Time 172320, Note Name: D4, Velocity: 32
Note OFF: Time 172800, Note Name: D4
Note OFF: Time 172800, Note Name: G#4
Note ON: Time 172800, Note Name: C4, Velocity: 33
Note ON: Time 172800, Note Name: A4, Velocity: 39
Note OFF: Time 173280, Note Name: C4
Note OFF: Time 173760, Note Name: A4
Track 2: Piano left
Note ON: Time 1920, Note Name: F4, Velocity: 27
Note ON: Time 1920, Note Name: D4, Velocity: 22
Note ON: Time 1920, Note Name: A3, Velocity: 22
Note OFF: Time 2400, Note Name: A3
Note OFF: Time 2400, Note Name: D4
Note OFF: Time 2400, Note Name: F4
Note ON: Time 2400, Note Name: F4, Velocity: 27
Note ON: Time 2400, Note Name: D4, Velocity: 22
Note ON: Time 2400, Note Name: A3, Velocity: 22
Note OFF: Time 2880, Note Name: A3
Note OFF: Time 2880, Note Name: D4
Note OFF: Time 2880, Note Name: F4
Note ON: Time 3360, Note Name: F4, Velocity: 25
Note ON: Time 3360, Note Name: C4, Velocity: 21
Note ON: Time 3360, Note Name: A3, Velocity: 21
Note OFF: Time 3840, Note Name: A3
Note OFF: Time 3840, Note Name: C4
Note OFF: Time 3840, Note Name: F4
Note ON: Time 3840, Note Name: E4, Velocity: 25
Note ON: Time 3840, Note Name: C4, Velocity: 21
Note ON: Time 3840, Note Name: A3, Velocity: 21
Note OFF: Time 4320, Note Name: A3
Note OFF: Time 4320, Note Name: C4
Note OFF: Time 4320, Note Name: E4
Note ON: Time 4800, Note Name: D4, Velocity: 28
Note ON: Time 4800, Note Name: E3, Velocity: 23
Note ON: Time 4800, Note Name: G#3, Velocity: 23
Note OFF: Time 5280, Note Name: G#3
Note OFF: Time 5280, Note Name: E3
Note OFF: Time 5280, Note Name: D4
Note ON: Time 5280, Note Name: D4, Velocity: 25
Note ON: Time 5280, Note Name: G#3, Velocity: 21
Note ON: Time 5280, Note Name: E3, Velocity: 21
Note OFF: Time 5760, Note Name: E3
Note OFF: Time 5760, Note Name: G#3
Note OFF: Time 5760, Note Name: D4
Note ON: Time 6240, Note Name: A2, Velocity: 30
Note OFF: Time 6720, Note Name: A2
Note ON: Time 6720, Note Name: C4, Velocity: 28
Note ON: Time 6720, Note Name: E3, Velocity: 22
Note OFF: Time 7200, Note Name: E3
Note OFF: Time 7200, Note Name: C4
Note ON: Time 7680, Note Name: E3, Velocity: 39
Note ON: Time 7680, Note Name: C4, Velocity: 46
Note OFF: Time 7920, Note Name: C4
Note OFF: Time 7920, Note Name: E3
Note ON: Time 8160, Note Name: A2, Velocity: 48
Note OFF: Time 8400, Note Name: A2
Note ON: Time 9120, Note Name: E3, Velocity: 41
Note ON: Time 9120, Note Name: B3, Velocity: 49
Note ON: Time 9120, Note Name: G3, Velocity: 41
Note OFF: Time 9600, Note Name: G3
Note OFF: Time 9600, Note Name: B3
Note OFF: Time 9600, Note Name: E3
Note ON: Time 9600, Note Name: B2, Velocity: 56
Note OFF: Time 10080, Note Name: B2
Note ON: Time 10560, Note Name: B2, Velocity: 45
Note ON: Time 10560, Note Name: G3, Velocity: 45
Note ON: Time 10560, Note Name: B3, Velocity: 54
Note OFF: Time 11040, Note Name: B3
Note OFF: Time 11040, Note Name: G3
Note OFF: Time 11040, Note Name: B2
Note ON: Time 11040, Note Name: B2, Velocity: 41
Note ON: Time 11040, Note Name: F#3, Velocity: 41
Note ON: Time 11040, Note Name: B3, Velocity: 49
Note OFF: Time 11520, Note Name: B3
Note OFF: Time 11520, Note Name: F#3
Note OFF: Time 11520, Note Name: B2
Note ON: Time 11520, Note Name: E3, Velocity: 45
Note ON: Time 11520, Note Name: G3, Velocity: 45
Note ON: Time 11520, Note Name: B3, Velocity: 54
Note OFF: Time 12000, Note Name: B3
Note OFF: Time 12000, Note Name: G3
Note OFF: Time 12000, Note Name: E3
Note ON: Time 12000, Note Name: E2, Velocity: 50
Note OFF: Time 12480, Note Name: E2
Note ON: Time 13440, Note Name: F4, Velocity: 27
Note ON: Time 13440, Note Name: D4, Velocity: 22
Note ON: Time 13440, Note Name: A3, Velocity: 22
Note OFF: Time 13920, Note Name: A3
Note OFF: Time 13920, Note Name: D4
Note OFF: Time 13920, Note Name: F4
Note ON: Time 13920, Note Name: F4, Velocity: 27
Note ON: Time 13920, Note Name: D4, Velocity: 22
Note ON: Time 13920, Note Name: A3, Velocity: 22
Note OFF: Time 14400, Note Name: A3
Note OFF: Time 14400, Note Name: D4
Note OFF: Time 14400, Note Name: F4
Note ON: Time 14880, Note Name: F4, Velocity: 25
Note ON: Time 14880, Note Name: C4, Velocity: 21
Note ON: Time 14880, Note Name: A3, Velocity: 21
Note OFF: Time 15360, Note Name: A3
Note OFF: Time 15360, Note Name: C4
Note OFF: Time 15360, Note Name: F4
Note ON: Time 15360, Note Name: E4, Velocity: 25
Note ON: Time 15360, Note Name: C4, Velocity: 21
Note ON: Time 15360, Note Name: A3, Velocity: 21
Note OFF: Time 15840, Note Name: A3
Note OFF: Time 15840, Note Name: C4
Note OFF: Time 15840, Note Name: E4
Note ON: Time 16320, Note Name: D4, Velocity: 28
Note ON: Time 16320, Note Name: E3, Velocity: 23
Note ON: Time 16320, Note Name: G#3, Velocity: 23
Note OFF: Time 16800, Note Name: G#3
Note OFF: Time 16800, Note Name: E3
Note OFF: Time 16800, Note Name: D4
Note ON: Time 16800, Note Name: D4, Velocity: 25
Note ON: Time 16800, Note Name: G#3, Velocity: 21
Note ON: Time 16800, Note Name: E3, Velocity: 21
Note OFF: Time 17280, Note Name: E3
Note OFF: Time 17280, Note Name: G#3
Note OFF: Time 17280, Note Name: D4
Note ON: Time 17760, Note Name: F3, Velocity: 21
Note ON: Time 17760, Note Name: A3, Velocity: 21
Note ON: Time 17760, Note Name: D4, Velocity: 28
Note OFF: Time 18240, Note Name: D4
Note OFF: Time 18240, Note Name: A3
Note OFF: Time 18240, Note Name: F3
Note ON: Time 18240, Note Name: A3, Velocity: 21
Note ON: Time 18240, Note Name: C4, Velocity: 26
Note ON: Time 18240, Note Name: F3, Velocity: 21
Note OFF: Time 18720, Note Name: F3
Note OFF: Time 18720, Note Name: C4
Note OFF: Time 18720, Note Name: A3
Note ON: Time 19200, Note Name: C4, Velocity: 29
Note ON: Time 19200, Note Name: F3, Velocity: 29
Note ON: Time 19200, Note Name: D#4, Velocity: 34
Note OFF: Time 19680, Note Name: D#4
Note OFF: Time 19680, Note Name: F3
Note OFF: Time 19680, Note Name: C4
Note ON: Time 19680, Note Name: F3, Velocity: 29
Note ON: Time 19680, Note Name: C4, Velocity: 29
Note ON: Time 19680, Note Name: D#4, Velocity: 34
Note OFF: Time 20160, Note Name: D#4
Note OFF: Time 20160, Note Name: C4
Note OFF: Time 20160, Note Name: F3
Note ON: Time 20160, Note Name: A#3, Velocity: 34
Note ON: Time 20160, Note Name: D4, Velocity: 37
Note OFF: Time 20640, Note Name: D4
Note ON: Time 20640, Note Name: F4, Velocity: 37
Note OFF: Time 21120, Note Name: F4
Note OFF: Time 21120, Note Name: A#3
Note ON: Time 22080, Note Name: E3, Velocity: 29
Note ON: Time 22080, Note Name: B3, Velocity: 35
Note OFF: Time 22560, Note Name: B3
Note OFF: Time 22560, Note Name: E3
Note ON: Time 22560, Note Name: E3, Velocity: 26
Note ON: Time 22560, Note Name: B3, Velocity: 31
Note OFF: Time 23040, Note Name: B3
Note OFF: Time 23040, Note Name: E3
Note ON: Time 23040, Note Name: A2, Velocity: 29
Note ON: Time 23040, Note Name: E3, Velocity: 35
Note OFF: Time 23520, Note Name: E3
Note OFF: Time 23520, Note Name: A2
Note ON: Time 23520, Note Name: A1, Velocity: 36
Note OFF: Time 24000, Note Name: A1
Note ON: Time 24960, Note Name: F4, Velocity: 27
Note ON: Time 24960, Note Name: D4, Velocity: 22
Note ON: Time 24960, Note Name: A3, Velocity: 22
Note OFF: Time 25440, Note Name: A3
Note OFF: Time 25440, Note Name: D4
Note OFF: Time 25440, Note Name: F4
Note ON: Time 25440, Note Name: F4, Velocity: 27
Note ON: Time 25440, Note Name: D4, Velocity: 22
Note ON: Time 25440, Note Name: A3, Velocity: 22
Note OFF: Time 25920, Note Name: A3
Note OFF: Time 25920, Note Name: D4
Note OFF: Time 25920, Note Name: F4
Note ON: Time 26400, Note Name: F4, Velocity: 25
Note ON: Time 26400, Note Name: C4, Velocity: 21
Note ON: Time 26400, Note Name: A3, Velocity: 21
Note OFF: Time 26880, Note Name: A3
Note OFF: Time 26880, Note Name: C4
Note OFF: Time 26880, Note Name: F4
Note ON: Time 26880, Note Name: E4, Velocity: 25
Note ON: Time 26880, Note Name: C4, Velocity: 21
Note ON: Time 26880, Note Name: A3, Velocity: 21
Note OFF: Time 27360, Note Name: A3
Note OFF: Time 27360, Note Name: C4
Note OFF: Time 27360, Note Name: E4
Note ON: Time 27840, Note Name: D4, Velocity: 28
Note ON: Time 27840, Note Name: E3, Velocity: 23
Note ON: Time 27840, Note Name: G#3, Velocity: 23
Note OFF: Time 28320, Note Name: G#3
Note OFF: Time 28320, Note Name: E3
Note OFF: Time 28320, Note Name: D4
Note ON: Time 28320, Note Name: D4, Velocity: 25
Note ON: Time 28320, Note Name: G#3, Velocity: 21
Note ON: Time 28320, Note Name: E3, Velocity: 21
Note OFF: Time 28800, Note Name: E3
Note OFF: Time 28800, Note Name: G#3
Note OFF: Time 28800, Note Name: D4
Note ON: Time 29280, Note Name: A2, Velocity: 30
Note OFF: Time 29760, Note Name: A2
Note ON: Time 29760, Note Name: C4, Velocity: 28
Note ON: Time 29760, Note Name: E3, Velocity: 22
Note OFF: Time 30240, Note Name: E3
Note OFF: Time 30240, Note Name: C4
Note ON: Time 30720, Note Name: E3, Velocity: 39
Note ON: Time 30720, Note Name: C4, Velocity: 46
Note OFF: Time 30960, Note Name: C4
Note OFF: Time 30960, Note Name: E3
Note ON: Time 31200, Note Name: A2, Velocity: 48
Note OFF: Time 31440, Note Name: A2
Note ON: Time 32160, Note Name: E3, Velocity: 41
Note ON: Time 32160, Note Name: B3, Velocity: 49
Note ON: Time 32160, Note Name: G3, Velocity: 41
Note OFF: Time 32640, Note Name: G3
Note OFF: Time 32640, Note Name: B3
Note OFF: Time 32640, Note Name: E3
Note ON: Time 32640, Note Name: B2, Velocity: 56
Note OFF: Time 33120, Note Name: B2
Note ON: Time 33600, Note Name: B2, Velocity: 45
Note ON: Time 33600, Note Name: G3, Velocity: 45
Note ON: Time 33600, Note Name: B3, Velocity: 54
Note OFF: Time 34080, Note Name: B3
Note OFF: Time 34080, Note Name: G3
Note OFF: Time 34080, Note Name: B2
Note ON: Time 34080, Note Name: B2, Velocity: 41
Note ON: Time 34080, Note Name: F#3, Velocity: 41
Note ON: Time 34080, Note Name: B3, Velocity: 49
Note OFF: Time 34560, Note Name: B3
Note OFF: Time 34560, Note Name: F#3
Note OFF: Time 34560, Note Name: B2
Note ON: Time 34560, Note Name: E3, Velocity: 45
Note ON: Time 34560, Note Name: G3, Velocity: 45
Note ON: Time 34560, Note Name: B3, Velocity: 54
Note OFF: Time 35040, Note Name: B3
Note OFF: Time 35040, Note Name: G3
Note OFF: Time 35040, Note Name: E3
Note ON: Time 35040, Note Name: E2, Velocity: 50
Note OFF: Time 35520, Note Name: E2
Note ON: Time 36480, Note Name: F4, Velocity: 27
Note ON: Time 36480, Note Name: D4, Velocity: 22
Note ON: Time 36480, Note Name: A3, Velocity: 22
Note OFF: Time 36960, Note Name: A3
Note OFF: Time 36960, Note Name: D4
Note OFF: Time 36960, Note Name: F4
Note ON: Time 36960, Note Name: F4, Velocity: 27
Note ON: Time 36960, Note Name: D4, Velocity: 22
Note ON: Time 36960, Note Name: A3, Velocity: 22
Note OFF: Time 37440, Note Name: A3
Note OFF: Time 37440, Note Name: D4
Note OFF: Time 37440, Note Name: F4
Note ON: Time 37920, Note Name: F4, Velocity: 25
Note ON: Time 37920, Note Name: C4, Velocity: 21
Note ON: Time 37920, Note Name: A3, Velocity: 21
Note OFF: Time 38400, Note Name: A3
Note OFF: Time 38400, Note Name: C4
Note OFF: Time 38400, Note Name: F4
Note ON: Time 38400, Note Name: E4, Velocity: 25
Note ON: Time 38400, Note Name: C4, Velocity: 21
Note ON: Time 38400, Note Name: A3, Velocity: 21
Note OFF: Time 38880, Note Name: A3
Note OFF: Time 38880, Note Name: C4
Note OFF: Time 38880, Note Name: E4
Note ON: Time 39360, Note Name: D4, Velocity: 28
Note ON: Time 39360, Note Name: E3, Velocity: 23
Note ON: Time 39360, Note Name: G#3, Velocity: 23
Note OFF: Time 39840, Note Name: G#3
Note OFF: Time 39840, Note Name: E3
Note OFF: Time 39840, Note Name: D4
Note ON: Time 39840, Note Name: D4, Velocity: 25
Note ON: Time 39840, Note Name: G#3, Velocity: 21
Note ON: Time 39840, Note Name: E3, Velocity: 21
Note OFF: Time 40320, Note Name: E3
Note OFF: Time 40320, Note Name: G#3
Note OFF: Time 40320, Note Name: D4
Note ON: Time 40800, Note Name: F3, Velocity: 21
Note ON: Time 40800, Note Name: A3, Velocity: 21
Note ON: Time 40800, Note Name: D4, Velocity: 28
Note OFF: Time 41280, Note Name: D4
Note OFF: Time 41280, Note Name: A3
Note OFF: Time 41280, Note Name: F3
Note ON: Time 41280, Note Name: A3, Velocity: 21
Note ON: Time 41280, Note Name: C4, Velocity: 26
Note ON: Time 41280, Note Name: F3, Velocity: 21
Note OFF: Time 41760, Note Name: F3
Note OFF: Time 41760, Note Name: C4
Note OFF: Time 41760, Note Name: A3
Note ON: Time 42240, Note Name: C4, Velocity: 29
Note ON: Time 42240, Note Name: F3, Velocity: 29
Note ON: Time 42240, Note Name: D#4, Velocity: 34
Note OFF: Time 42720, Note Name: D#4
Note OFF: Time 42720, Note Name: F3
Note OFF: Time 42720, Note Name: C4
Note ON: Time 42720, Note Name: F3, Velocity: 29
Note ON: Time 42720, Note Name: C4, Velocity: 29
Note ON: Time 42720, Note Name: D#4, Velocity: 34
Note OFF: Time 43200, Note Name: D#4
Note OFF: Time 43200, Note Name: C4
Note OFF: Time 43200, Note Name: F3
Note ON: Time 43200, Note Name: A#3, Velocity: 34
Note ON: Time 43200, Note Name: D4, Velocity: 37
Note OFF: Time 43680, Note Name: D4
Note ON: Time 43680, Note Name: F4, Velocity: 37
Note OFF: Time 44160, Note Name: F4
Note OFF: Time 44160, Note Name: A#3
Note ON: Time 45120, Note Name: E3, Velocity: 29
Note ON: Time 45120, Note Name: B3, Velocity: 35
Note OFF: Time 45600, Note Name: B3
Note OFF: Time 45600, Note Name: E3
Note ON: Time 45600, Note Name: E3, Velocity: 26
Note ON: Time 45600, Note Name: B3, Velocity: 31
Note OFF: Time 46080, Note Name: B3
Note OFF: Time 46080, Note Name: E3
Note ON: Time 46080, Note Name: A2, Velocity: 29
Note ON: Time 46080, Note Name: E3, Velocity: 35
Note OFF: Time 46560, Note Name: E3
Note OFF: Time 46560, Note Name: A2
Note ON: Time 46560, Note Name: A1, Velocity: 30
Note OFF: Time 47040, Note Name: A1
Note ON: Time 48000, Note Name: F#4, Velocity: 32
Note ON: Time 48000, Note Name: C4, Velocity: 27
Note ON: Time 48000, Note Name: G#3, Velocity: 27
Note OFF: Time 48480, Note Name: G#3
Note OFF: Time 48480, Note Name: C4
Note OFF: Time 48480, Note Name: F#4
Note ON: Time 48480, Note Name: F#4, Velocity: 32
Note ON: Time 48480, Note Name: C4, Velocity: 27
Note ON: Time 48480, Note Name: G#3, Velocity: 27
Note OFF: Time 48960, Note Name: G#3
Note OFF: Time 48960, Note Name: C4
Note OFF: Time 48960, Note Name: F#4
Note ON: Time 49440, Note Name: F#4, Velocity: 33
Note ON: Time 49440, Note Name: C4, Velocity: 27
Note ON: Time 49440, Note Name: G3, Velocity: 27
Note OFF: Time 49920, Note Name: G3
Note OFF: Time 49920, Note Name: C4
Note OFF: Time 49920, Note Name: F#4
Note ON: Time 49920, Note Name: G4, Velocity: 33
Note ON: Time 49920, Note Name: B3, Velocity: 27
Note ON: Time 49920, Note Name: G3, Velocity: 27
Note OFF: Time 50400, Note Name: G3
Note OFF: Time 50400, Note Name: B3
Note OFF: Time 50400, Note Name: G4
Note ON: Time 50880, Note Name: F#4, Velocity: 36
Note ON: Time 50880, Note Name: C4, Velocity: 30
Note ON: Time 50880, Note Name: G#3, Velocity: 30
Note OFF: Time 51360, Note Name: G#3
Note OFF: Time 51360, Note Name: C4
Note OFF: Time 51360, Note Name: F#4
Note ON: Time 51360, Note Name: F#4, Velocity: 38
Note ON: Time 51360, Note Name: C4, Velocity: 31
Note ON: Time 51360, Note Name: G#3, Velocity: 31
Note OFF: Time 51840, Note Name: G#3
Note OFF: Time 51840, Note Name: C4
Note OFF: Time 51840, Note Name: F#4
Note ON: Time 52320, Note Name: F4, Velocity: 48
Note ON: Time 52320, Note Name: B3, Velocity: 40
Note ON: Time 52320, Note Name: G#3, Velocity: 40
Note OFF: Time 52800, Note Name: G#3
Note OFF: Time 52800, Note Name: B3
Note OFF: Time 52800, Note Name: F4
Note ON: Time 52800, Note Name: F4, Velocity: 48
Note ON: Time 52800, Note Name: A#3, Velocity: 40
Note ON: Time 52800, Note Name: G#3, Velocity: 40
Note OFF: Time 53280, Note Name: G#3
Note OFF: Time 53280, Note Name: A#3
Note OFF: Time 53280, Note Name: F4
Note ON: Time 53760, Note Name: F4, Velocity: 59
Note ON: Time 53760, Note Name: A#3, Velocity: 48
Note ON: Time 53760, Note Name: G3, Velocity: 48
Note OFF: Time 54240, Note Name: G3
Note OFF: Time 54240, Note Name: A#3
Note OFF: Time 54240, Note Name: F4
Note ON: Time 54240, Note Name: E4, Velocity: 55
Note ON: Time 54240, Note Name: A#3, Velocity: 46
Note ON: Time 54240, Note Name: G3, Velocity: 46
Note OFF: Time 54720, Note Name: G3
Note OFF: Time 54720, Note Name: A#3
Note OFF: Time 54720, Note Name: E4
Note ON: Time 55200, Note Name: E4, Velocity: 54
Note ON: Time 55200, Note Name: A3, Velocity: 42
Note ON: Time 55200, Note Name: G3, Velocity: 42
Note OFF: Time 55680, Note Name: G3
Note OFF: Time 55680, Note Name: A3
Note OFF: Time 55680, Note Name: E4
Note ON: Time 55680, Note Name: D#4, Velocity: 48
Note ON: Time 55680, Note Name: A3, Velocity: 40
Note ON: Time 55680, Note Name: F#3, Velocity: 40
Note OFF: Time 56160, Note Name: F#3
Note OFF: Time 56160, Note Name: A3
Note OFF: Time 56160, Note Name: D#4
Note ON: Time 56640, Note Name: D#4, Velocity: 44
Note ON: Time 56640, Note Name: G#3, Velocity: 35
Note ON: Time 56640, Note Name: F3, Velocity: 35
Note OFF: Time 57120, Note Name: F3
Note OFF: Time 57120, Note Name: G#3
Note OFF: Time 57120, Note Name: D#4
Note ON: Time 57120, Note Name: D4, Velocity: 39
Note ON: Time 57120, Note Name: G#3, Velocity: 32
Note ON: Time 57120, Note Name: F3, Velocity: 32
Note OFF: Time 57600, Note Name: F3
Note OFF: Time 57600, Note Name: G#3
Note OFF: Time 57600, Note Name: D4
Note ON: Time 58080, Note Name: D4, Velocity: 36
Note ON: Time 58080, Note Name: G3, Velocity: 29
Note ON: Time 58080, Note Name: E3, Velocity: 29
Note OFF: Time 58560, Note Name: E3
Note OFF: Time 58560, Note Name: G3
Note OFF: Time 58560, Note Name: D4
Note ON: Time 58560, Note Name: C#4, Velocity: 28
Note ON: Time 58560, Note Name: G3, Velocity: 22
Note ON: Time 58560, Note Name: E3, Velocity: 22
Note OFF: Time 59040, Note Name: E3
Note OFF: Time 59040, Note Name: G3
Note OFF: Time 59040, Note Name: C#4
Note ON: Time 59040, Note Name: D3, Velocity: 22
Note ON: Time 59040, Note Name: F3, Velocity: 22
Note ON: Time 59040, Note Name: D4, Velocity: 28
Note OFF: Time 59520, Note Name: D4
Note OFF: Time 59520, Note Name: F3
Note OFF: Time 59520, Note Name: D3
Note ON: Time 59520, Note Name: F4, Velocity: 27
Note ON: Time 59520, Note Name: D4, Velocity: 22
Note ON: Time 59520, Note Name: A3, Velocity: 22
Note OFF: Time 60000, Note Name: A3
Note OFF: Time 60000, Note Name: D4
Note OFF: Time 60000, Note Name: F4
Note ON: Time 60000, Note Name: F4, Velocity: 27
Note ON: Time 60000, Note Name: D4, Velocity: 22
Note ON: Time 60000, Note Name: A3, Velocity: 22
Note OFF: Time 60480, Note Name: A3
Note OFF: Time 60480, Note Name: D4
Note OFF: Time 60480, Note Name: F4
Note ON: Time 60960, Note Name: F4, Velocity: 25
Note ON: Time 60960, Note Name: C4, Velocity: 21
Note ON: Time 60960, Note Name: A3, Velocity: 21
Note OFF: Time 61440, Note Name: A3
Note OFF: Time 61440, Note Name: C4
Note OFF: Time 61440, Note Name: F4
Note ON: Time 61440, Note Name: E4, Velocity: 25
Note ON: Time 61440, Note Name: C4, Velocity: 21
Note ON: Time 61440, Note Name: A3, Velocity: 21
Note OFF: Time 61920, Note Name: A3
Note OFF: Time 61920, Note Name: C4
Note OFF: Time 61920, Note Name: E4
Note ON: Time 62400, Note Name: D4, Velocity: 28
Note ON: Time 62400, Note Name: E3, Velocity: 23
Note ON: Time 62400, Note Name: G#3, Velocity: 23
Note OFF: Time 62880, Note Name: G#3
Note OFF: Time 62880, Note Name: E3
Note OFF: Time 62880, Note Name: D4
Note ON: Time 62880, Note Name: D4, Velocity: 25
Note ON: Time 62880, Note Name: G#3, Velocity: 21
Note ON: Time 62880, Note Name: E3, Velocity: 21
Note OFF: Time 63360, Note Name: E3
Note OFF: Time 63360, Note Name: G#3
Note OFF: Time 63360, Note Name: D4
Note ON: Time 63840, Note Name: F3, Velocity: 21
Note ON: Time 63840, Note Name: A3, Velocity: 21
Note ON: Time 63840, Note Name: D4, Velocity: 28
Note OFF: Time 64320, Note Name: D4
Note OFF: Time 64320, Note Name: A3
Note OFF: Time 64320, Note Name: F3
Note ON: Time 64320, Note Name: A3, Velocity: 21
Note ON: Time 64320, Note Name: C4, Velocity: 26
Note ON: Time 64320, Note Name: F3, Velocity: 21
Note OFF: Time 64800, Note Name: F3
Note OFF: Time 64800, Note Name: C4
Note OFF: Time 64800, Note Name: A3
Note ON: Time 65280, Note Name: C4, Velocity: 29
Note ON: Time 65280, Note Name: F3, Velocity: 29
Note ON: Time 65280, Note Name: D#4, Velocity: 34
Note OFF: Time 65760, Note Name: D#4
Note OFF: Time 65760, Note Name: F3
Note OFF: Time 65760, Note Name: C4
Note ON: Time 65760, Note Name: F3, Velocity: 29
Note ON: Time 65760, Note Name: C4, Velocity: 29
Note ON: Time 65760, Note Name: D#4, Velocity: 34
Note OFF: Time 66240, Note Name: D#4
Note OFF: Time 66240, Note Name: C4
Note OFF: Time 66240, Note Name: F3
Note ON: Time 66240, Note Name: A#3, Velocity: 34
Note ON: Time 66240, Note Name: D4, Velocity: 37
Note OFF: Time 66720, Note Name: D4
Note ON: Time 66720, Note Name: F4, Velocity: 37
Note OFF: Time 67200, Note Name: F4
Note OFF: Time 67200, Note Name: A#3
Note ON: Time 68160, Note Name: E3, Velocity: 29
Note ON: Time 68160, Note Name: B3, Velocity: 35
Note OFF: Time 68640, Note Name: B3
Note OFF: Time 68640, Note Name: E3
Note ON: Time 68640, Note Name: E3, Velocity: 26
Note ON: Time 68640, Note Name: B3, Velocity: 31
Note OFF: Time 69120, Note Name: B3
Note OFF: Time 69120, Note Name: E3
Note ON: Time 69120, Note Name: A2, Velocity: 29
Note ON: Time 69120, Note Name: E3, Velocity: 35
Note OFF: Time 69600, Note Name: E3
Note OFF: Time 69600, Note Name: A2
Note ON: Time 69600, Note Name: A1, Velocity: 30
Note OFF: Time 70080, Note Name: A1
Note ON: Time 71040, Note Name: F#4, Velocity: 32
Note ON: Time 71040, Note Name: C4, Velocity: 27
Note ON: Time 71040, Note Name: G#3, Velocity: 27
Note OFF: Time 71520, Note Name: G#3
Note OFF: Time 71520, Note Name: C4
Note OFF: Time 71520, Note Name: F#4
Note ON: Time 71520, Note Name: F#4, Velocity: 32
Note ON: Time 71520, Note Name: C4, Velocity: 27
Note ON: Time 71520, Note Name: G#3, Velocity: 27
Note OFF: Time 72000, Note Name: G#3
Note OFF: Time 72000, Note Name: C4
Note OFF: Time 72000, Note Name: F#4
Note ON: Time 72480, Note Name: F#4, Velocity: 33
Note ON: Time 72480, Note Name: C4, Velocity: 27
Note ON: Time 72480, Note Name: G3, Velocity: 27
Note OFF: Time 72960, Note Name: G3
Note OFF: Time 72960, Note Name: C4
Note OFF: Time 72960, Note Name: F#4
Note ON: Time 72960, Note Name: G4, Velocity: 33
Note ON: Time 72960, Note Name: B3, Velocity: 27
Note ON: Time 72960, Note Name: G3, Velocity: 27
Note OFF: Time 73440, Note Name: G3
Note OFF: Time 73440, Note Name: B3
Note OFF: Time 73440, Note Name: G4
Note ON: Time 73920, Note Name: F#4, Velocity: 36
Note ON: Time 73920, Note Name: C4, Velocity: 30
Note ON: Time 73920, Note Name: G#3, Velocity: 30
Note OFF: Time 74400, Note Name: G#3
Note OFF: Time 74400, Note Name: C4
Note OFF: Time 74400, Note Name: F#4
Note ON: Time 74400, Note Name: F#4, Velocity: 38
Note ON: Time 74400, Note Name: C4, Velocity: 31
Note ON: Time 74400, Note Name: G#3, Velocity: 31
Note OFF: Time 74880, Note Name: G#3
Note OFF: Time 74880, Note Name: C4
Note OFF: Time 74880, Note Name: F#4
Note ON: Time 75360, Note Name: F4, Velocity: 48
Note ON: Time 75360, Note Name: B3, Velocity: 40
Note ON: Time 75360, Note Name: G#3, Velocity: 40
Note OFF: Time 75840, Note Name: G#3
Note OFF: Time 75840, Note Name: B3
Note OFF: Time 75840, Note Name: F4
Note ON: Time 75840, Note Name: F4, Velocity: 48
Note ON: Time 75840, Note Name: A#3, Velocity: 40
Note ON: Time 75840, Note Name: G#3, Velocity: 40
Note OFF: Time 76320, Note Name: G#3
Note OFF: Time 76320, Note Name: A#3
Note OFF: Time 76320, Note Name: F4
Note ON: Time 76800, Note Name: F4, Velocity: 59
Note ON: Time 76800, Note Name: A#3, Velocity: 48
Note ON: Time 76800, Note Name: G3, Velocity: 48
Note OFF: Time 77280, Note Name: G3
Note OFF: Time 77280, Note Name: A#3
Note OFF: Time 77280, Note Name: F4
Note ON: Time 77280, Note Name: E4, Velocity: 55
Note ON: Time 77280, Note Name: A#3, Velocity: 46
Note ON: Time 77280, Note Name: G3, Velocity: 46
Note OFF: Time 77760, Note Name: G3
Note OFF: Time 77760, Note Name: A#3
Note OFF: Time 77760, Note Name: E4
Note ON: Time 78240, Note Name: E4, Velocity: 54
Note ON: Time 78240, Note Name: A3, Velocity: 42
Note ON: Time 78240, Note Name: G3, Velocity: 42
Note OFF: Time 78720, Note Name: G3
Note OFF: Time 78720, Note Name: A3
Note OFF: Time 78720, Note Name: E4
Note ON: Time 78720, Note Name: D#4, Velocity: 48
Note ON: Time 78720, Note Name: A3, Velocity: 40
Note ON: Time 78720, Note Name: F#3, Velocity: 40
Note OFF: Time 79200, Note Name: F#3
Note OFF: Time 79200, Note Name: A3
Note OFF: Time 79200, Note Name: D#4
Note ON: Time 79680, Note Name: D#4, Velocity: 44
Note ON: Time 79680, Note Name: G#3, Velocity: 35
Note ON: Time 79680, Note Name: F3, Velocity: 35
Note OFF: Time 80160, Note Name: F3
Note OFF: Time 80160, Note Name: G#3
Note OFF: Time 80160, Note Name: D#4
Note ON: Time 80160, Note Name: D4, Velocity: 39
Note ON: Time 80160, Note Name: G#3, Velocity: 32
Note ON: Time 80160, Note Name: F3, Velocity: 32
Note OFF: Time 80640, Note Name: F3
Note OFF: Time 80640, Note Name: G#3
Note OFF: Time 80640, Note Name: D4
Note ON: Time 81120, Note Name: D4, Velocity: 36
Note ON: Time 81120, Note Name: G3, Velocity: 29
Note ON: Time 81120, Note Name: E3, Velocity: 29
Note OFF: Time 81600, Note Name: E3
Note OFF: Time 81600, Note Name: G3
Note OFF: Time 81600, Note Name: D4
Note ON: Time 81600, Note Name: C#4, Velocity: 28
Note ON: Time 81600, Note Name: G3, Velocity: 22
Note ON: Time 81600, Note Name: E3, Velocity: 22
Note OFF: Time 82080, Note Name: E3
Note OFF: Time 82080, Note Name: G3
Note OFF: Time 82080, Note Name: C#4
Note ON: Time 82080, Note Name: D3, Velocity: 22
Note ON: Time 82080, Note Name: F3, Velocity: 22
Note ON: Time 82080, Note Name: D4, Velocity: 28
Note OFF: Time 82560, Note Name: D4
Note OFF: Time 82560, Note Name: F3
Note OFF: Time 82560, Note Name: D3
Note ON: Time 82560, Note Name: F4, Velocity: 27
Note ON: Time 82560, Note Name: D4, Velocity: 22
Note ON: Time 82560, Note Name: A3, Velocity: 22
Note OFF: Time 83040, Note Name: A3
Note OFF: Time 83040, Note Name: D4
Note OFF: Time 83040, Note Name: F4
Note ON: Time 83040, Note Name: F4, Velocity: 27
Note ON: Time 83040, Note Name: D4, Velocity: 22
Note ON: Time 83040, Note Name: A3, Velocity: 22
Note OFF: Time 83520, Note Name: A3
Note OFF: Time 83520, Note Name: D4
Note OFF: Time 83520, Note Name: F4
Note ON: Time 84000, Note Name: F4, Velocity: 25
Note ON: Time 84000, Note Name: C4, Velocity: 21
Note ON: Time 84000, Note Name: A3, Velocity: 21
Note OFF: Time 84480, Note Name: A3
Note OFF: Time 84480, Note Name: C4
Note OFF: Time 84480, Note Name: F4
Note ON: Time 84480, Note Name: E4, Velocity: 25
Note ON: Time 84480, Note Name: C4, Velocity: 21
Note ON: Time 84480, Note Name: A3, Velocity: 21
Note OFF: Time 84960, Note Name: A3
Note OFF: Time 84960, Note Name: C4
Note OFF: Time 84960, Note Name: E4
Note ON: Time 85440, Note Name: D4, Velocity: 28
Note ON: Time 85440, Note Name: E3, Velocity: 23
Note ON: Time 85440, Note Name: G#3, Velocity: 23
Note OFF: Time 85920, Note Name: G#3
Note OFF: Time 85920, Note Name: E3
Note OFF: Time 85920, Note Name: D4
Note ON: Time 85920, Note Name: D4, Velocity: 25
Note ON: Time 85920, Note Name: G#3, Velocity: 21
Note ON: Time 85920, Note Name: E3, Velocity: 21
Note OFF: Time 86400, Note Name: E3
Note OFF: Time 86400, Note Name: G#3
Note OFF: Time 86400, Note Name: D4
Note ON: Time 86880, Note Name: F3, Velocity: 21
Note ON: Time 86880, Note Name: A3, Velocity: 21
Note ON: Time 86880, Note Name: D4, Velocity: 28
Note OFF: Time 87360, Note Name: D4
Note OFF: Time 87360, Note Name: A3
Note OFF: Time 87360, Note Name: F3
Note ON: Time 87360, Note Name: A3, Velocity: 21
Note ON: Time 87360, Note Name: C4, Velocity: 26
Note ON: Time 87360, Note Name: F3, Velocity: 21
Note OFF: Time 87840, Note Name: F3
Note OFF: Time 87840, Note Name: C4
Note OFF: Time 87840, Note Name: A3
Note ON: Time 88320, Note Name: C4, Velocity: 29
Note ON: Time 88320, Note Name: F3, Velocity: 29
Note ON: Time 88320, Note Name: D#4, Velocity: 34
Note OFF: Time 88800, Note Name: D#4
Note OFF: Time 88800, Note Name: F3
Note OFF: Time 88800, Note Name: C4
Note ON: Time 88800, Note Name: F3, Velocity: 29
Note ON: Time 88800, Note Name: C4, Velocity: 29
Note ON: Time 88800, Note Name: D#4, Velocity: 34
Note OFF: Time 89280, Note Name: D#4
Note OFF: Time 89280, Note Name: C4
Note OFF: Time 89280, Note Name: F3
Note ON: Time 89280, Note Name: A#3, Velocity: 34
Note ON: Time 89280, Note Name: D4, Velocity: 37
Note OFF: Time 89760, Note Name: D4
Note ON: Time 89760, Note Name: F4, Velocity: 37
Note OFF: Time 90240, Note Name: F4
Note OFF: Time 90240, Note Name: A#3
Note ON: Time 91200, Note Name: E3, Velocity: 29
Note ON: Time 91200, Note Name: B3, Velocity: 35
Note OFF: Time 91680, Note Name: B3
Note OFF: Time 91680, Note Name: E3
Note ON: Time 91680, Note Name: E3, Velocity: 26
Note ON: Time 91680, Note Name: B3, Velocity: 31
Note OFF: Time 92160, Note Name: B3
Note OFF: Time 92160, Note Name: E3
Note ON: Time 92640, Note Name: A2, Velocity: 19
Note ON: Time 92640, Note Name: A3, Velocity: 22
Note OFF: Time 93120, Note Name: A3
Note OFF: Time 93120, Note Name: A2
Note ON: Time 93120, Note Name: A2, Velocity: 20
Note ON: Time 93120, Note Name: A3, Velocity: 23
Note OFF: Time 94080, Note Name: A3
Note OFF: Time 94080, Note Name: A2
Note ON: Time 94080, Note Name: D3, Velocity: 36
Note OFF: Time 94560, Note Name: D3
Note ON: Time 94560, Note Name: D2, Velocity: 36
Note OFF: Time 95040, Note Name: D2
Note ON: Time 95040, Note Name: E2, Velocity: 42
Note OFF: Time 95520, Note Name: E2
Note ON: Time 95520, Note Name: A2, Velocity: 35
Note OFF: Time 96000, Note Name: A2
Note ON: Time 96000, Note Name: E3, Velocity: 39
Note OFF: Time 96480, Note Name: E3
Note ON: Time 96480, Note Name: A3, Velocity: 44
Note OFF: Time 96960, Note Name: A3
Note ON: Time 96960, Note Name: D3, Velocity: 41
Note OFF: Time 97320, Note Name: D3
Note ON: Time 97440, Note Name: D2, Velocity: 36
Note OFF: Time 97920, Note Name: D2
Note ON: Time 97920, Note Name: E2, Velocity: 41
Note OFF: Time 98400, Note Name: E2
Note ON: Time 98400, Note Name: A2, Velocity: 36
Note OFF: Time 98880, Note Name: A2
Note ON: Time 98880, Note Name: E3, Velocity: 41
Note OFF: Time 99360, Note Name: E3
Note ON: Time 99360, Note Name: A3, Velocity: 44
Note OFF: Time 99840, Note Name: A3
Note ON: Time 99840, Note Name: D3, Velocity: 36
Note OFF: Time 100080, Note Name: D3
Note ON: Time 100320, Note Name: D2, Velocity: 36
Note OFF: Time 100800, Note Name: D2
Note ON: Time 100800, Note Name: E2, Velocity: 42
Note OFF: Time 101280, Note Name: E2
Note ON: Time 101280, Note Name: A2, Velocity: 35
Note OFF: Time 101760, Note Name: A2
Note ON: Time 101760, Note Name: E3, Velocity: 39
Note OFF: Time 102240, Note Name: E3
Note ON: Time 102240, Note Name: A3, Velocity: 44
Note OFF: Time 102720, Note Name: A3
Note ON: Time 102720, Note Name: D3, Velocity: 41
Note OFF: Time 102960, Note Name: D3
Note ON: Time 103200, Note Name: D2, Velocity: 36
Note OFF: Time 103680, Note Name: D2
Note ON: Time 103680, Note Name: E2, Velocity: 41
Note OFF: Time 104160, Note Name: E2
Note ON: Time 104160, Note Name: A2, Velocity: 36
Note OFF: Time 104640, Note Name: A2
Note ON: Time 104640, Note Name: A3, Velocity: 41
Note OFF: Time 105120, Note Name: A3
Note ON: Time 105120, Note Name: F#3, Velocity: 58
Note ON: Time 105120, Note Name: C#4, Velocity: 70
Note OFF: Time 105360, Note Name: C#4
Note ON: Time 105480, Note Name: C#4, Velocity: 63
Note OFF: Time 105600, Note Name: C#4
Note ON: Time 105600, Note Name: D4, Velocity: 69
Note OFF: Time 105960, Note Name: D4
Note ON: Time 106080, Note Name: B3, Velocity: 63
Note OFF: Time 106440, Note Name: B3
Note OFF: Time 106560, Note Name: F#3
Note ON: Time 106560, Note Name: F#3, Velocity: 55
Note ON: Time 106560, Note Name: C#4, Velocity: 66
Note OFF: Time 106720, Note Name: C#4
Note ON: Time 106720, Note Name: B3, Velocity: 57
Note OFF: Time 106880, Note Name: B3
Note ON: Time 106880, Note Name: A3, Velocity: 57
Note OFF: Time 107040, Note Name: A3
Note ON: Time 107040, Note Name: D4, Velocity: 66
Note OFF: Time 107400, Note Name: D4
Note ON: Time 107520, Note Name: B3, Velocity: 57
Note OFF: Time 107880, Note Name: B3
Note OFF: Time 108000, Note Name: F#3
Note ON: Time 108000, Note Name: F#3, Velocity: 58
Note ON: Time 108000, Note Name: C#4, Velocity: 70
Note OFF: Time 108240, Note Name: C#4
Note ON: Time 108360, Note Name: C#4, Velocity: 63
Note OFF: Time 108480, Note Name: C#4
Note ON: Time 108480, Note Name: D4, Velocity: 69
Note OFF: Time 108840, Note Name: D4
Note ON: Time 108960, Note Name: B3, Velocity: 63
Note OFF: Time 109320, Note Name: B3
Note OFF: Time 109440, Note Name: F#3
Note ON: Time 109440, Note Name: F#3, Velocity: 55
Note ON: Time 109440, Note Name: C#4, Velocity: 66
Note OFF: Time 109600, Note Name: C#4
Note ON: Time 109600, Note Name: B3, Velocity: 57
Note OFF: Time 109760, Note Name: B3
Note ON: Time 109760, Note Name: A3, Velocity: 57
Note OFF: Time 109920, Note Name: A3
Note OFF: Time 109920, Note Name: F#3
Note ON: Time 109920, Note Name: F#2, Velocity: 75
Note ON: Time 109920, Note Name: F#3, Velocity: 75
Note OFF: Time 110400, Note Name: F#3
Note OFF: Time 110400, Note Name: F#2
Note ON: Time 110400, Note Name: F#2, Velocity: 65
Note ON: Time 110400, Note Name: F#3, Velocity: 65
Note OFF: Time 110880, Note Name: F#3
Note OFF: Time 110880, Note Name: F#2
Note ON: Time 110880, Note Name: F#3, Velocity: 58
Note ON: Time 110880, Note Name: C#4, Velocity: 70
Note OFF: Time 111120, Note Name: C#4
Note ON: Time 111240, Note Name: C#4, Velocity: 63
Note OFF: Time 111360, Note Name: C#4
Note ON: Time 111360, Note Name: D4, Velocity: 69
Note OFF: Time 111720, Note Name: D4
Note ON: Time 111840, Note Name: B3, Velocity: 63
Note OFF: Time 112200, Note Name: B3
Note OFF: Time 112320, Note Name: F#3
Note ON: Time 112320, Note Name: F#3, Velocity: 55
Note ON: Time 112320, Note Name: C#4, Velocity: 66
Note OFF: Time 112480, Note Name: C#4
Note ON: Time 112480, Note Name: B3, Velocity: 57
Note OFF: Time 112640, Note Name: B3
Note ON: Time 112640, Note Name: A3, Velocity: 57
Note OFF: Time 112800, Note Name: A3
Note ON: Time 112800, Note Name: D4, Velocity: 66
Note OFF: Time 113160, Note Name: D4
Note ON: Time 113280, Note Name: B3, Velocity: 57
Note OFF: Time 113640, Note Name: B3
Note ON: Time 113760, Note Name: C#4, Velocity: 53
Note OFF: Time 114000, Note Name: C#4
Note ON: Time 114000, Note Name: B3, Velocity: 57
Note OFF: Time 114240, Note Name: F#3
Note ON: Time 114240, Note Name: E3, Velocity: 51
Note OFF: Time 115200, Note Name: B3
Note ON: Time 115200, Note Name: C#4, Velocity: 53
Note OFF: Time 115440, Note Name: C#4
Note ON: Time 115440, Note Name: B3, Velocity: 57
Note OFF: Time 115680, Note Name: E3
Note ON: Time 115680, Note Name: E3, Velocity: 51
Note OFF: Time 116640, Note Name: E3
Note OFF: Time 116640, Note Name: B3
Note ON: Time 116640, Note Name: A3, Velocity: 49
Note OFF: Time 117120, Note Name: A3
Note ON: Time 117120, Note Name: D3, Velocity: 40
Note OFF: Time 117600, Note Name: D3
Note ON: Time 117600, Note Name: D2, Velocity: 40
Note OFF: Time 118080, Note Name: D2
Note ON: Time 118080, Note Name: E2, Velocity: 47
Note OFF: Time 118560, Note Name: E2
Note ON: Time 118560, Note Name: A2, Velocity: 39
Note OFF: Time 119040, Note Name: A2
Note ON: Time 119040, Note Name: E3, Velocity: 44
Note OFF: Time 119520, Note Name: E3
Note ON: Time 119520, Note Name: A3, Velocity: 49
Note OFF: Time 120000, Note Name: A3
Note ON: Time 120000, Note Name: D3, Velocity: 46
Note OFF: Time 120480, Note Name: D3
Note ON: Time 120480, Note Name: D2, Velocity: 40
Note OFF: Time 120960, Note Name: D2
Note ON: Time 120960, Note Name: E2, Velocity: 46
Note OFF: Time 121440, Note Name: E2
Note ON: Time 121440, Note Name: A2, Velocity: 40
Note OFF: Time 121920, Note Name: A2
Note ON: Time 121920, Note Name: E3, Velocity: 46
Note OFF: Time 122400, Note Name: E3
Note ON: Time 122400, Note Name: A3, Velocity: 49
Note OFF: Time 122880, Note Name: A3
Note ON: Time 122880, Note Name: D3, Velocity: 40
Note OFF: Time 123360, Note Name: D3
Note ON: Time 123360, Note Name: D2, Velocity: 40
Note OFF: Time 123840, Note Name: D2
Note ON: Time 123840, Note Name: E2, Velocity: 47
Note OFF: Time 124320, Note Name: E2
Note ON: Time 124320, Note Name: A2, Velocity: 39
Note OFF: Time 124800, Note Name: A2
Note ON: Time 124800, Note Name: E3, Velocity: 44
Note OFF: Time 125280, Note Name: E3
Note ON: Time 125280, Note Name: A3, Velocity: 49
Note OFF: Time 125760, Note Name: A3
Note ON: Time 125760, Note Name: D3, Velocity: 46
Note OFF: Time 126240, Note Name: D3
Note ON: Time 126240, Note Name: D2, Velocity: 40
Note OFF: Time 126720, Note Name: D2
Note ON: Time 126720, Note Name: E2, Velocity: 46
Note OFF: Time 127200, Note Name: E2
Note ON: Time 127200, Note Name: A2, Velocity: 40
Note OFF: Time 127680, Note Name: A2
Note ON: Time 127680, Note Name: A3, Velocity: 46
Note OFF: Time 128160, Note Name: A3
Note ON: Time 128160, Note Name: F#3, Velocity: 58
Note ON: Time 128160, Note Name: C#4, Velocity: 70
Note OFF: Time 128400, Note Name: C#4
Note ON: Time 128520, Note Name: C#4, Velocity: 63
Note OFF: Time 128640, Note Name: C#4
Note ON: Time 128640, Note Name: D4, Velocity: 69
Note OFF: Time 129000, Note Name: D4
Note ON: Time 129120, Note Name: B3, Velocity: 63
Note OFF: Time 129480, Note Name: B3
Note OFF: Time 129600, Note Name: F#3
Note ON: Time 129600, Note Name: F#3, Velocity: 55
Note ON: Time 129600, Note Name: C#4, Velocity: 66
Note OFF: Time 129760, Note Name: C#4
Note ON: Time 129760, Note Name: B3, Velocity: 57
Note OFF: Time 129920, Note Name: B3
Note ON: Time 129920, Note Name: A3, Velocity: 57
Note OFF: Time 130080, Note Name: A3
Note ON: Time 130080, Note Name: D4, Velocity: 66
Note OFF: Time 130440, Note Name: D4
Note ON: Time 130560, Note Name: B3, Velocity: 57
Note OFF: Time 130920, Note Name: B3
Note OFF: Time 131040, Note Name: F#3
Note ON: Time 131040, Note Name: F#3, Velocity: 58
Note ON: Time 131040, Note Name: C#4, Velocity: 70
Note OFF: Time 131280, Note Name: C#4
Note ON: Time 131400, Note Name: C#4, Velocity: 63
Note OFF: Time 131520, Note Name: C#4
Note ON: Time 131520, Note Name: D4, Velocity: 69
Note OFF: Time 131880, Note Name: D4
Note ON: Time 132000, Note Name: B3, Velocity: 63
Note OFF: Time 132360, Note Name: B3
Note OFF: Time 132480, Note Name: F#3
Note ON: Time 132480, Note Name: F#3, Velocity: 55
Note ON: Time 132480, Note Name: C#4, Velocity: 66
Note OFF: Time 132640, Note Name: C#4
Note ON: Time 132640, Note Name: B3, Velocity: 57
Note OFF: Time 132800, Note Name: B3
Note ON: Time 132800, Note Name: A3, Velocity: 57
Note OFF: Time 132960, Note Name: A3
Note OFF: Time 132960, Note Name: F#3
Note ON: Time 132960, Note Name: F#2, Velocity: 75
Note ON: Time 132960, Note Name: F#3, Velocity: 75
Note OFF: Time 133440, Note Name: F#3
Note OFF: Time 133440, Note Name: F#2
Note ON: Time 133440, Note Name: F#2, Velocity: 65
Note ON: Time 133440, Note Name: F#3, Velocity: 65
Note OFF: Time 133920, Note Name: F#3
Note OFF: Time 133920, Note Name: F#2
Note ON: Time 133920, Note Name: F#3, Velocity: 58
Note ON: Time 133920, Note Name: C#4, Velocity: 70
Note OFF: Time 134160, Note Name: C#4
Note ON: Time 134280, Note Name: C#4, Velocity: 63
Note OFF: Time 134400, Note Name: C#4
Note ON: Time 134400, Note Name: D4, Velocity: 69
Note OFF: Time 134760, Note Name: D4
Note ON: Time 134880, Note Name: B3, Velocity: 63
Note OFF: Time 135240, Note Name: B3
Note OFF: Time 135360, Note Name: F#3
Note ON: Time 135360, Note Name: F#3, Velocity: 55
Note ON: Time 135360, Note Name: C#4, Velocity: 66
Note OFF: Time 135520, Note Name: C#4
Note ON: Time 135520, Note Name: B3, Velocity: 57
Note OFF: Time 135680, Note Name: B3
Note ON: Time 135680, Note Name: A3, Velocity: 57
Note OFF: Time 135840, Note Name: A3
Note ON: Time 135840, Note Name: D4, Velocity: 66
Note OFF: Time 136200, Note Name: D4
Note ON: Time 136320, Note Name: B3, Velocity: 57
Note OFF: Time 136680, Note Name: B3
Note ON: Time 136800, Note Name: C#4, Velocity: 53
Note OFF: Time 137040, Note Name: C#4
Note ON: Time 137040, Note Name: B3, Velocity: 57
Note OFF: Time 137280, Note Name: F#3
Note ON: Time 137280, Note Name: E3, Velocity: 51
Note OFF: Time 138240, Note Name: B3
Note ON: Time 138240, Note Name: C#4, Velocity: 53
Note OFF: Time 138480, Note Name: C#4
Note ON: Time 138480, Note Name: B3, Velocity: 57
Note OFF: Time 138720, Note Name: E3
Note ON: Time 138720, Note Name: E3, Velocity: 51
Note OFF: Time 139680, Note Name: E3
Note OFF: Time 139680, Note Name: B3
Note ON: Time 139680, Note Name: A3, Velocity: 49
Note OFF: Time 140160, Note Name: A3
Note ON: Time 140160, Note Name: D3, Velocity: 40
Note OFF: Time 140640, Note Name: D3
Note ON: Time 140640, Note Name: D2, Velocity: 40
Note OFF: Time 141120, Note Name: D2
Note ON: Time 141120, Note Name: E2, Velocity: 47
Note OFF: Time 141600, Note Name: E2
Note ON: Time 141600, Note Name: A2, Velocity: 39
Note OFF: Time 142080, Note Name: A2
Note ON: Time 142080, Note Name: E3, Velocity: 44
Note OFF: Time 142560, Note Name: E3
Note ON: Time 142560, Note Name: A3, Velocity: 49
Note OFF: Time 143040, Note Name: A3
Note ON: Time 143040, Note Name: D3, Velocity: 46
Note OFF: Time 143520, Note Name: D3
Note ON: Time 143520, Note Name: D2, Velocity: 40
Note OFF: Time 144000, Note Name: D2
Note ON: Time 144000, Note Name: E2, Velocity: 46
Note OFF: Time 144480, Note Name: E2
Note ON: Time 144480, Note Name: A2, Velocity: 40
Note OFF: Time 144960, Note Name: A2
Note ON: Time 144960, Note Name: E3, Velocity: 46
Note OFF: Time 145440, Note Name: E3
Note ON: Time 145440, Note Name: A3, Velocity: 49
Note OFF: Time 145920, Note Name: A3
Note ON: Time 145920, Note Name: D3, Velocity: 40
Note OFF: Time 146400, Note Name: D3
Note ON: Time 146400, Note Name: D2, Velocity: 40
Note OFF: Time 146880, Note Name: D2
Note ON: Time 146880, Note Name: E2, Velocity: 47
Note OFF: Time 147360, Note Name: E2
Note ON: Time 147360, Note Name: A2, Velocity: 39
Note OFF: Time 147840, Note Name: A2
Note ON: Time 147840, Note Name: E3, Velocity: 44
Note OFF: Time 148320, Note Name: E3
Note ON: Time 148320, Note Name: A3, Velocity: 49
Note OFF: Time 148800, Note Name: A3
Note ON: Time 148800, Note Name: D3, Velocity: 46
Note OFF: Time 149280, Note Name: D3
Note ON: Time 149280, Note Name: D2, Velocity: 40
Note OFF: Time 149760, Note Name: D2
Note ON: Time 149760, Note Name: E2, Velocity: 46
Note OFF: Time 150240, Note Name: E2
Note ON: Time 150240, Note Name: A1, Velocity: 34
Note ON: Time 150240, Note Name: A2, Velocity: 40
Note OFF: Time 150720, Note Name: A2
Note OFF: Time 150720, Note Name: A1
Note ON: Time 151680, Note Name: F4, Velocity: 27
Note ON: Time 151680, Note Name: D4, Velocity: 22
Note ON: Time 151680, Note Name: A3, Velocity: 22
Note OFF: Time 152160, Note Name: A3
Note OFF: Time 152160, Note Name: D4
Note OFF: Time 152160, Note Name: F4
Note ON: Time 152160, Note Name: F4, Velocity: 27
Note ON: Time 152160, Note Name: D4, Velocity: 22
Note ON: Time 152160, Note Name: A3, Velocity: 22
Note OFF: Time 152640, Note Name: A3
Note OFF: Time 152640, Note Name: D4
Note OFF: Time 152640, Note Name: F4
Note ON: Time 153120, Note Name: F4, Velocity: 25
Note ON: Time 153120, Note Name: C4, Velocity: 21
Note ON: Time 153120, Note Name: A3, Velocity: 21
Note OFF: Time 153600, Note Name: A3
Note OFF: Time 153600, Note Name: C4
Note OFF: Time 153600, Note Name: F4
Note ON: Time 153600, Note Name: E4, Velocity: 25
Note ON: Time 153600, Note Name: C4, Velocity: 21
Note ON: Time 153600, Note Name: A3, Velocity: 21
Note OFF: Time 154080, Note Name: A3
Note OFF: Time 154080, Note Name: C4
Note OFF: Time 154080, Note Name: E4
Note ON: Time 154560, Note Name: D4, Velocity: 28
Note ON: Time 154560, Note Name: E3, Velocity: 23
Note ON: Time 154560, Note Name: G#3, Velocity: 23
Note OFF: Time 155040, Note Name: G#3
Note OFF: Time 155040, Note Name: E3
Note OFF: Time 155040, Note Name: D4
Note ON: Time 155040, Note Name: D4, Velocity: 25
Note ON: Time 155040, Note Name: G#3, Velocity: 21
Note ON: Time 155040, Note Name: E3, Velocity: 21
Note OFF: Time 155520, Note Name: E3
Note OFF: Time 155520, Note Name: G#3
Note OFF: Time 155520, Note Name: D4
Note ON: Time 156000, Note Name: A2, Velocity: 30
Note OFF: Time 156480, Note Name: A2
Note ON: Time 156480, Note Name: C4, Velocity: 28
Note ON: Time 156480, Note Name: E3, Velocity: 22
Note OFF: Time 156960, Note Name: E3
Note OFF: Time 156960, Note Name: C4
Note ON: Time 157440, Note Name: E3, Velocity: 39
Note ON: Time 157440, Note Name: C4, Velocity: 46
Note OFF: Time 157680, Note Name: C4
Note OFF: Time 157680, Note Name: E3
Note ON: Time 157920, Note Name: A2, Velocity: 48
Note OFF: Time 158160, Note Name: A2
Note ON: Time 158880, Note Name: E3, Velocity: 41
Note ON: Time 158880, Note Name: B3, Velocity: 49
Note ON: Time 158880, Note Name: G3, Velocity: 41
Note OFF: Time 159360, Note Name: G3
Note OFF: Time 159360, Note Name: B3
Note OFF: Time 159360, Note Name: E3
Note ON: Time 159360, Note Name: B2, Velocity: 56
Note OFF: Time 159840, Note Name: B2
Note ON: Time 160320, Note Name: B2, Velocity: 45
Note ON: Time 160320, Note Name: G3, Velocity: 45
Note ON: Time 160320, Note Name: B3, Velocity: 54
Note OFF: Time 160800, Note Name: B3
Note OFF: Time 160800, Note Name: G3
Note OFF: Time 160800, Note Name: B2
Note ON: Time 160800, Note Name: B2, Velocity: 41
Note ON: Time 160800, Note Name: F#3, Velocity: 41
Note ON: Time 160800, Note Name: B3, Velocity: 49
Note OFF: Time 161280, Note Name: B3
Note OFF: Time 161280, Note Name: F#3
Note OFF: Time 161280, Note Name: B2
Note ON: Time 161280, Note Name: E3, Velocity: 45
Note ON: Time 161280, Note Name: G3, Velocity: 45
Note ON: Time 161280, Note Name: B3, Velocity: 54
Note OFF: Time 161760, Note Name: B3
Note OFF: Time 161760, Note Name: G3
Note OFF: Time 161760, Note Name: E3
Note ON: Time 161760, Note Name: E2, Velocity: 50
Note OFF: Time 162240, Note Name: E2
Note ON: Time 163200, Note Name: F4, Velocity: 27
Note ON: Time 163200, Note Name: D4, Velocity: 22
Note ON: Time 163200, Note Name: A3, Velocity: 22
Note OFF: Time 163680, Note Name: A3
Note OFF: Time 163680, Note Name: D4
Note OFF: Time 163680, Note Name: F4
Note ON: Time 163680, Note Name: F4, Velocity: 27
Note ON: Time 163680, Note Name: D4, Velocity: 22
Note ON: Time 163680, Note Name: A3, Velocity: 22
Note OFF: Time 164160, Note Name: A3
Note OFF: Time 164160, Note Name: D4
Note OFF: Time 164160, Note Name: F4
Note ON: Time 164640, Note Name: F4, Velocity: 25
Note ON: Time 164640, Note Name: C4, Velocity: 21
Note ON: Time 164640, Note Name: A3, Velocity: 21
Note OFF: Time 165120, Note Name: A3
Note OFF: Time 165120, Note Name: C4
Note OFF: Time 165120, Note Name: F4
Note ON: Time 165120, Note Name: E4, Velocity: 25
Note ON: Time 165120, Note Name: C4, Velocity: 21
Note ON: Time 165120, Note Name: A3, Velocity: 21
Note OFF: Time 165600, Note Name: A3
Note OFF: Time 165600, Note Name: C4
Note OFF: Time 165600, Note Name: E4
Note ON: Time 166080, Note Name: D4, Velocity: 28
Note ON: Time 166080, Note Name: E3, Velocity: 23
Note ON: Time 166080, Note Name: G#3, Velocity: 23
Note OFF: Time 166560, Note Name: G#3
Note OFF: Time 166560, Note Name: E3
Note OFF: Time 166560, Note Name: D4
Note ON: Time 166560, Note Name: D4, Velocity: 25
Note ON: Time 166560, Note Name: G#3, Velocity: 21
Note ON: Time 166560, Note Name: E3, Velocity: 21
Note OFF: Time 167040, Note Name: E3
Note OFF: Time 167040, Note Name: G#3
Note OFF: Time 167040, Note Name: D4
Note ON: Time 167520, Note Name: F3, Velocity: 21
Note ON: Time 167520, Note Name: A3, Velocity: 21
Note ON: Time 167520, Note Name: D4, Velocity: 28
Note OFF: Time 168000, Note Name: D4
Note OFF: Time 168000, Note Name: A3
Note OFF: Time 168000, Note Name: F3
Note ON: Time 168000, Note Name: A3, Velocity: 21
Note ON: Time 168000, Note Name: C4, Velocity: 26
Note ON: Time 168000, Note Name: F3, Velocity: 21
Note OFF: Time 168480, Note Name: F3
Note OFF: Time 168480, Note Name: C4
Note OFF: Time 168480, Note Name: A3
Note ON: Time 168960, Note Name: C4, Velocity: 26
Note ON: Time 168960, Note Name: F3, Velocity: 26
Note ON: Time 168960, Note Name: D#4, Velocity: 30
Note OFF: Time 169440, Note Name: D#4
Note OFF: Time 169440, Note Name: F3
Note OFF: Time 169440, Note Name: C4
Note ON: Time 169440, Note Name: F3, Velocity: 26
Note ON: Time 169440, Note Name: C4, Velocity: 26
Note ON: Time 169440, Note Name: D#4, Velocity: 30
Note OFF: Time 169920, Note Name: D#4
Note OFF: Time 169920, Note Name: C4
Note OFF: Time 169920, Note Name: F3
Note ON: Time 169920, Note Name: A#3, Velocity: 30
Note ON: Time 169920, Note Name: D4, Velocity: 33
Note OFF: Time 170400, Note Name: D4
Note ON: Time 170400, Note Name: F4, Velocity: 33
Note OFF: Time 170880, Note Name: F4
Note OFF: Time 170880, Note Name: A#3
Note ON: Time 171840, Note Name: E3, Velocity: 24
Note ON: Time 171840, Note Name: B3, Velocity: 29
Note OFF: Time 172320, Note Name: B3
Note OFF: Time 172320, Note Name: E3
Note ON: Time 172320, Note Name: E3, Velocity: 22
Note ON: Time 172320, Note Name: B3, Velocity: 26
Note OFF: Time 172800, Note Name: B3
Note OFF: Time 172800, Note Name: E3
Note ON: Time 172800, Note Name: A2, Velocity: 24
Note ON: Time 172800, Note Name: E3, Velocity: 29
Note OFF: Time 173280, Note Name: E3
Note OFF: Time 173280, Note Name: A2
Note ON: Time 173280, Note Name: A1, Velocity: 25
Note OFF: Time 173760, Note Name: A1
Track 3: Chopin: Mazurka Opus 7 No 2
Track 4: Copyright  2003 by Bernd Krueger
Track 5: http://www.piano-midi.de
Track 6: Edition: 2014-02-11
Track 7: Spur 7
