Processing chpn_op25_e12.mid...

Track 0: Chopin Etude  No. 12, Opus 25
Track 1: Piano right
Note ON: Time 0, Note Name: D#3, Velocity: 83
Note OFF: Time 119, Note Name: D#3
Note ON: Time 120, Note Name: G3, Velocity: 52
Note OFF: Time 239, Note Name: G3
Note ON: Time 240, Note Name: D#4, Velocity: 52
Note OFF: Time 359, Note Name: D#4
Note ON: Time 360, Note Name: D#4, Velocity: 53
Note OFF: Time 479, Note Name: D#4
Note ON: Time 480, Note Name: G4, Velocity: 62
Note OFF: Time 599, Note Name: G4
Note ON: Time 600, Note Name: D#5, Velocity: 55
Note OFF: Time 719, Note Name: D#5
Note ON: Time 720, Note Name: D#5, Velocity: 53
Note OFF: Time 839, Note Name: D#5
Note ON: Time 840, Note Name: G5, Velocity: 53
Note OFF: Time 959, Note Name: G5
Note ON: Time 960, Note Name: D#6, Velocity: 71
Note OFF: Time 1079, Note Name: D#6
Note ON: Time 1080, Note Name: G5, Velocity: 57
Note OFF: Time 1199, Note Name: G5
Note ON: Time 1200, Note Name: D#5, Velocity: 57
Note OFF: Time 1319, Note Name: D#5
Note ON: Time 1320, Note Name: D#5, Velocity: 57
Note OFF: Time 1439, Note Name: D#5
Note ON: Time 1440, Note Name: G4, Velocity: 64
Note OFF: Time 1559, Note Name: G4
Note ON: Time 1560, Note Name: D#4, Velocity: 55
Note OFF: Time 1679, Note Name: D#4
Note ON: Time 1680, Note Name: D#4, Velocity: 56
Note OFF: Time 1799, Note Name: D#4
Note ON: Time 1800, Note Name: G3, Velocity: 56
Note OFF: Time 1919, Note Name: G3
Note ON: Time 1920, Note Name: D3, Velocity: 84
Note OFF: Time 2039, Note Name: D3
Note ON: Time 2040, Note Name: G#3, Velocity: 52
Note OFF: Time 2159, Note Name: G#3
Note ON: Time 2160, Note Name: D4, Velocity: 52
Note OFF: Time 2279, Note Name: D4
Note ON: Time 2280, Note Name: D4, Velocity: 52
Note OFF: Time 2399, Note Name: D4
Note ON: Time 2400, Note Name: G#4, Velocity: 67
Note OFF: Time 2519, Note Name: G#4
Note ON: Time 2520, Note Name: D5, Velocity: 55
Note OFF: Time 2639, Note Name: D5
Note ON: Time 2640, Note Name: D5, Velocity: 53
Note OFF: Time 2759, Note Name: D5
Note ON: Time 2760, Note Name: G#5, Velocity: 53
Note OFF: Time 2879, Note Name: G#5
Note ON: Time 2880, Note Name: D6, Velocity: 77
Note OFF: Time 2999, Note Name: D6
Note ON: Time 3000, Note Name: G#5, Velocity: 58
Note OFF: Time 3119, Note Name: G#5
Note ON: Time 3120, Note Name: D5, Velocity: 58
Note OFF: Time 3239, Note Name: D5
Note ON: Time 3240, Note Name: D5, Velocity: 58
Note OFF: Time 3359, Note Name: D5
Note ON: Time 3360, Note Name: G#4, Velocity: 66
Note OFF: Time 3479, Note Name: G#4
Note ON: Time 3480, Note Name: D4, Velocity: 58
Note OFF: Time 3599, Note Name: D4
Note ON: Time 3600, Note Name: D4, Velocity: 58
Note OFF: Time 3719, Note Name: D4
Note ON: Time 3720, Note Name: G#3, Velocity: 57
Note OFF: Time 3839, Note Name: G#3
Note ON: Time 3840, Note Name: F3, Velocity: 90
Note OFF: Time 3959, Note Name: F3
Note ON: Time 3960, Note Name: C4, Velocity: 59
Note OFF: Time 4079, Note Name: C4
Note ON: Time 4080, Note Name: F4, Velocity: 60
Note OFF: Time 4199, Note Name: F4
Note ON: Time 4200, Note Name: F4, Velocity: 60
Note OFF: Time 4319, Note Name: F4
Note ON: Time 4320, Note Name: C5, Velocity: 70
Note OFF: Time 4439, Note Name: C5
Note ON: Time 4440, Note Name: F5, Velocity: 61
Note OFF: Time 4559, Note Name: F5
Note ON: Time 4560, Note Name: F5, Velocity: 61
Note OFF: Time 4679, Note Name: F5
Note ON: Time 4680, Note Name: C6, Velocity: 61
Note OFF: Time 4799, Note Name: C6
Note ON: Time 4800, Note Name: F6, Velocity: 78
Note OFF: Time 4919, Note Name: F6
Note ON: Time 4920, Note Name: C6, Velocity: 63
Note OFF: Time 5039, Note Name: C6
Note ON: Time 5040, Note Name: F5, Velocity: 63
Note OFF: Time 5159, Note Name: F5
Note ON: Time 5160, Note Name: F5, Velocity: 63
Note OFF: Time 5279, Note Name: F5
Note ON: Time 5280, Note Name: C5, Velocity: 72
Note OFF: Time 5399, Note Name: C5
Note ON: Time 5400, Note Name: F4, Velocity: 63
Note OFF: Time 5519, Note Name: F4
Note ON: Time 5520, Note Name: F4, Velocity: 63
Note OFF: Time 5639, Note Name: F4
Note ON: Time 5640, Note Name: C4, Velocity: 63
Note OFF: Time 5759, Note Name: C4
Note ON: Time 5760, Note Name: D#3, Velocity: 96
Note OFF: Time 5879, Note Name: D#3
Note ON: Time 5880, Note Name: G3, Velocity: 62
Note OFF: Time 5999, Note Name: G3
Note ON: Time 6000, Note Name: D#4, Velocity: 62
Note OFF: Time 6119, Note Name: D#4
Note ON: Time 6120, Note Name: D#4, Velocity: 63
Note OFF: Time 6239, Note Name: D#4
Note ON: Time 6240, Note Name: G4, Velocity: 74
Note OFF: Time 6359, Note Name: G4
Note ON: Time 6360, Note Name: D#5, Velocity: 64
Note OFF: Time 6479, Note Name: D#5
Note ON: Time 6480, Note Name: D#5, Velocity: 63
Note OFF: Time 6599, Note Name: D#5
Note ON: Time 6600, Note Name: G5, Velocity: 63
Note OFF: Time 6719, Note Name: G5
Note ON: Time 6720, Note Name: D#6, Velocity: 86
Note OFF: Time 6839, Note Name: D#6
Note ON: Time 6840, Note Name: G5, Velocity: 67
Note OFF: Time 6959, Note Name: G5
Note ON: Time 6960, Note Name: D#5, Velocity: 67
Note OFF: Time 7079, Note Name: D#5
Note ON: Time 7080, Note Name: D#5, Velocity: 67
Note OFF: Time 7199, Note Name: D#5
Note ON: Time 7200, Note Name: G4, Velocity: 74
Note OFF: Time 7319, Note Name: G4
Note ON: Time 7320, Note Name: D#4, Velocity: 63
Note OFF: Time 7439, Note Name: D#4
Note ON: Time 7440, Note Name: D#4, Velocity: 63
Note OFF: Time 7559, Note Name: D#4
Note ON: Time 7560, Note Name: G3, Velocity: 63
Note OFF: Time 7679, Note Name: G3
Note ON: Time 7680, Note Name: D3, Velocity: 97
Note OFF: Time 7799, Note Name: D3
Note ON: Time 7800, Note Name: G#3, Velocity: 59
Note OFF: Time 7919, Note Name: G#3
Note ON: Time 7920, Note Name: D4, Velocity: 59
Note OFF: Time 8039, Note Name: D4
Note ON: Time 8040, Note Name: D4, Velocity: 59
Note OFF: Time 8159, Note Name: D4
Note ON: Time 8160, Note Name: G#4, Velocity: 72
Note OFF: Time 8279, Note Name: G#4
Note ON: Time 8280, Note Name: D5, Velocity: 59
Note OFF: Time 8399, Note Name: D5
Note ON: Time 8400, Note Name: D5, Velocity: 58
Note OFF: Time 8519, Note Name: D5
Note ON: Time 8520, Note Name: G#5, Velocity: 58
Note OFF: Time 8639, Note Name: G#5
Note ON: Time 8640, Note Name: D6, Velocity: 86
Note OFF: Time 8759, Note Name: D6
Note ON: Time 8760, Note Name: G#5, Velocity: 61
Note OFF: Time 8879, Note Name: G#5
Note ON: Time 8880, Note Name: D5, Velocity: 60
Note OFF: Time 8999, Note Name: D5
Note ON: Time 9000, Note Name: D5, Velocity: 60
Note OFF: Time 9119, Note Name: D5
Note ON: Time 9120, Note Name: G#4, Velocity: 67
Note OFF: Time 9239, Note Name: G#4
Note ON: Time 9240, Note Name: D4, Velocity: 59
Note OFF: Time 9359, Note Name: D4
Note ON: Time 9360, Note Name: D4, Velocity: 58
Note OFF: Time 9479, Note Name: D4
Note ON: Time 9480, Note Name: G#3, Velocity: 57
Note OFF: Time 9599, Note Name: G#3
Note ON: Time 9600, Note Name: D#3, Velocity: 93
Note OFF: Time 9719, Note Name: D#3
Note ON: Time 9720, Note Name: G#3, Velocity: 59
Note OFF: Time 9839, Note Name: G#3
Note ON: Time 9840, Note Name: D#4, Velocity: 59
Note OFF: Time 9959, Note Name: D#4
Note ON: Time 9960, Note Name: D#4, Velocity: 58
Note OFF: Time 10079, Note Name: D#4
Note ON: Time 10080, Note Name: G#4, Velocity: 68
Note OFF: Time 10199, Note Name: G#4
Note ON: Time 10200, Note Name: D#5, Velocity: 58
Note OFF: Time 10319, Note Name: D#5
Note ON: Time 10320, Note Name: D#5, Velocity: 58
Note OFF: Time 10439, Note Name: D#5
Note ON: Time 10440, Note Name: G#5, Velocity: 58
Note OFF: Time 10559, Note Name: G#5
Note ON: Time 10560, Note Name: D#6, Velocity: 75
Note OFF: Time 10679, Note Name: D#6
Note ON: Time 10680, Note Name: G#5, Velocity: 59
Note OFF: Time 10799, Note Name: G#5
Note ON: Time 10800, Note Name: D#5, Velocity: 58
Note OFF: Time 10919, Note Name: D#5
Note ON: Time 10920, Note Name: D#5, Velocity: 58
Note OFF: Time 11039, Note Name: D#5
Note ON: Time 11040, Note Name: G#4, Velocity: 64
Note OFF: Time 11159, Note Name: G#4
Note ON: Time 11160, Note Name: D#4, Velocity: 57
Note OFF: Time 11279, Note Name: D#4
Note ON: Time 11280, Note Name: D#4, Velocity: 57
Note OFF: Time 11399, Note Name: D#4
Note ON: Time 11400, Note Name: G#3, Velocity: 56
Note OFF: Time 11519, Note Name: G#3
Note ON: Time 11520, Note Name: C3, Velocity: 88
Note OFF: Time 11639, Note Name: C3
Note ON: Time 11640, Note Name: D#3, Velocity: 55
Note OFF: Time 11759, Note Name: D#3
Note ON: Time 11760, Note Name: C4, Velocity: 55
Note OFF: Time 11879, Note Name: C4
Note ON: Time 11880, Note Name: C4, Velocity: 55
Note OFF: Time 11999, Note Name: C4
Note ON: Time 12000, Note Name: D#4, Velocity: 59
Note OFF: Time 12119, Note Name: D#4
Note ON: Time 12120, Note Name: C5, Velocity: 66
Note ON: Time 12240, Note Name: D#4, Velocity: 50
Note OFF: Time 12359, Note Name: D#4
Note ON: Time 12360, Note Name: C4, Velocity: 49
Note OFF: Time 12479, Note Name: C4
Note ON: Time 12480, Note Name: D#4, Velocity: 56
Note OFF: Time 12599, Note Name: D#4
Note OFF: Time 12600, Note Name: C5
Note ON: Time 12600, Note Name: A#4, Velocity: 61
Note ON: Time 12720, Note Name: D#4, Velocity: 49
Note OFF: Time 12839, Note Name: D#4
Note ON: Time 12840, Note Name: C4, Velocity: 48
Note OFF: Time 12959, Note Name: C4
Note ON: Time 12960, Note Name: D#4, Velocity: 53
Note OFF: Time 13079, Note Name: D#4
Note OFF: Time 13080, Note Name: A#4
Note ON: Time 13080, Note Name: G#4, Velocity: 57
Note ON: Time 13200, Note Name: D#4, Velocity: 46
Note OFF: Time 13319, Note Name: D#4
Note ON: Time 13320, Note Name: C4, Velocity: 46
Note OFF: Time 13439, Note Name: C4
Note ON: Time 13440, Note Name: D4, Velocity: 50
Note OFF: Time 13559, Note Name: D4
Note OFF: Time 13560, Note Name: G#4
Note ON: Time 13560, Note Name: G4, Velocity: 56
Note ON: Time 13680, Note Name: D4, Velocity: 42
Note OFF: Time 13799, Note Name: D4
Note ON: Time 13800, Note Name: B3, Velocity: 42
Note OFF: Time 13919, Note Name: B3
Note ON: Time 13920, Note Name: C#4, Velocity: 48
Note OFF: Time 14039, Note Name: C#4
Note OFF: Time 14040, Note Name: G4
Note ON: Time 14040, Note Name: G4, Velocity: 52
Note ON: Time 14160, Note Name: C#4, Velocity: 42
Note OFF: Time 14279, Note Name: C#4
Note ON: Time 14280, Note Name: A#3, Velocity: 40
Note OFF: Time 14399, Note Name: A#3
Note ON: Time 14400, Note Name: C4, Velocity: 46
Note OFF: Time 14519, Note Name: C4
Note OFF: Time 14520, Note Name: G4
Note ON: Time 14520, Note Name: F4, Velocity: 49
Note ON: Time 14640, Note Name: C4, Velocity: 39
Note OFF: Time 14759, Note Name: C4
Note ON: Time 14760, Note Name: A3, Velocity: 38
Note OFF: Time 14879, Note Name: A3
Note ON: Time 14880, Note Name: B3, Velocity: 42
Note OFF: Time 14999, Note Name: B3
Note OFF: Time 15000, Note Name: F4
Note ON: Time 15000, Note Name: F4, Velocity: 47
Note ON: Time 15120, Note Name: B3, Velocity: 37
Note OFF: Time 15239, Note Name: B3
Note ON: Time 15240, Note Name: G#3, Velocity: 35
Note OFF: Time 15359, Note Name: G#3
Note OFF: Time 15360, Note Name: F4
Note ON: Time 15360, Note Name: D#3, Velocity: 85
Note OFF: Time 15479, Note Name: D#3
Note ON: Time 15480, Note Name: G3, Velocity: 56
Note OFF: Time 15599, Note Name: G3
Note ON: Time 15600, Note Name: D#4, Velocity: 56
Note OFF: Time 15719, Note Name: D#4
Note ON: Time 15720, Note Name: D#4, Velocity: 56
Note OFF: Time 15839, Note Name: D#4
Note ON: Time 15840, Note Name: G4, Velocity: 64
Note OFF: Time 15959, Note Name: G4
Note ON: Time 15960, Note Name: D#5, Velocity: 57
Note OFF: Time 16079, Note Name: D#5
Note ON: Time 16080, Note Name: D#5, Velocity: 56
Note OFF: Time 16199, Note Name: D#5
Note ON: Time 16200, Note Name: G5, Velocity: 56
Note OFF: Time 16319, Note Name: G5
Note ON: Time 16320, Note Name: D#6, Velocity: 79
Note OFF: Time 16439, Note Name: D#6
Note ON: Time 16440, Note Name: G5, Velocity: 58
Note OFF: Time 16559, Note Name: G5
Note ON: Time 16560, Note Name: D#5, Velocity: 58
Note OFF: Time 16679, Note Name: D#5
Note ON: Time 16680, Note Name: D#5, Velocity: 58
Note OFF: Time 16799, Note Name: D#5
Note ON: Time 16800, Note Name: G4, Velocity: 66
Note OFF: Time 16919, Note Name: G4
Note ON: Time 16920, Note Name: D#4, Velocity: 56
Note OFF: Time 17039, Note Name: D#4
Note ON: Time 17040, Note Name: D#4, Velocity: 57
Note OFF: Time 17159, Note Name: D#4
Note ON: Time 17160, Note Name: G3, Velocity: 57
Note OFF: Time 17279, Note Name: G3
Note ON: Time 17280, Note Name: D3, Velocity: 91
Note OFF: Time 17399, Note Name: D3
Note ON: Time 17400, Note Name: G#3, Velocity: 53
Note OFF: Time 17519, Note Name: G#3
Note ON: Time 17520, Note Name: D4, Velocity: 53
Note OFF: Time 17639, Note Name: D4
Note ON: Time 17640, Note Name: D4, Velocity: 53
Note OFF: Time 17759, Note Name: D4
Note ON: Time 17760, Note Name: G#4, Velocity: 67
Note OFF: Time 17879, Note Name: G#4
Note ON: Time 17880, Note Name: D5, Velocity: 55
Note OFF: Time 17999, Note Name: D5
Note ON: Time 18000, Note Name: D5, Velocity: 53
Note OFF: Time 18119, Note Name: D5
Note ON: Time 18120, Note Name: G#5, Velocity: 53
Note OFF: Time 18239, Note Name: G#5
Note ON: Time 18240, Note Name: D6, Velocity: 75
Note OFF: Time 18359, Note Name: D6
Note ON: Time 18360, Note Name: G#5, Velocity: 58
Note OFF: Time 18479, Note Name: G#5
Note ON: Time 18480, Note Name: D5, Velocity: 57
Note OFF: Time 18599, Note Name: D5
Note ON: Time 18600, Note Name: D5, Velocity: 57
Note OFF: Time 18719, Note Name: D5
Note ON: Time 18720, Note Name: G#4, Velocity: 64
Note OFF: Time 18839, Note Name: G#4
Note ON: Time 18840, Note Name: D4, Velocity: 57
Note OFF: Time 18959, Note Name: D4
Note ON: Time 18960, Note Name: D4, Velocity: 57
Note OFF: Time 19079, Note Name: D4
Note ON: Time 19080, Note Name: G#3, Velocity: 56
Note OFF: Time 19199, Note Name: G#3
Note ON: Time 19200, Note Name: F3, Velocity: 92
Note OFF: Time 19319, Note Name: F3
Note ON: Time 19320, Note Name: C4, Velocity: 58
Note OFF: Time 19439, Note Name: C4
Note ON: Time 19440, Note Name: F4, Velocity: 58
Note OFF: Time 19559, Note Name: F4
Note ON: Time 19560, Note Name: F4, Velocity: 59
Note OFF: Time 19679, Note Name: F4
Note ON: Time 19680, Note Name: C5, Velocity: 69
Note OFF: Time 19799, Note Name: C5
Note ON: Time 19800, Note Name: F5, Velocity: 60
Note OFF: Time 19919, Note Name: F5
Note ON: Time 19920, Note Name: F5, Velocity: 60
Note OFF: Time 20039, Note Name: F5
Note ON: Time 20040, Note Name: C6, Velocity: 60
Note OFF: Time 20159, Note Name: C6
Note ON: Time 20160, Note Name: F6, Velocity: 80
Note OFF: Time 20279, Note Name: F6
Note ON: Time 20280, Note Name: C6, Velocity: 61
Note OFF: Time 20399, Note Name: C6
Note ON: Time 20400, Note Name: F5, Velocity: 61
Note OFF: Time 20519, Note Name: F5
Note ON: Time 20520, Note Name: F5, Velocity: 61
Note OFF: Time 20639, Note Name: F5
Note ON: Time 20640, Note Name: C5, Velocity: 69
Note OFF: Time 20759, Note Name: C5
Note ON: Time 20760, Note Name: F4, Velocity: 60
Note OFF: Time 20879, Note Name: F4
Note ON: Time 20880, Note Name: F4, Velocity: 60
Note OFF: Time 20999, Note Name: F4
Note ON: Time 21000, Note Name: C4, Velocity: 60
Note OFF: Time 21119, Note Name: C4
Note ON: Time 21120, Note Name: E3, Velocity: 93
Note OFF: Time 21239, Note Name: E3
Note ON: Time 21240, Note Name: C4, Velocity: 60
Note OFF: Time 21359, Note Name: C4
Note ON: Time 21360, Note Name: E4, Velocity: 60
Note OFF: Time 21479, Note Name: E4
Note ON: Time 21480, Note Name: E4, Velocity: 60
Note OFF: Time 21599, Note Name: E4
Note ON: Time 21600, Note Name: C5, Velocity: 70
Note OFF: Time 21719, Note Name: C5
Note ON: Time 21720, Note Name: E5, Velocity: 61
Note OFF: Time 21839, Note Name: E5
Note ON: Time 21840, Note Name: E5, Velocity: 60
Note OFF: Time 21959, Note Name: E5
Note ON: Time 21960, Note Name: C6, Velocity: 60
Note OFF: Time 22079, Note Name: C6
Note ON: Time 22080, Note Name: E6, Velocity: 81
Note OFF: Time 22199, Note Name: E6
Note ON: Time 22200, Note Name: C6, Velocity: 62
Note OFF: Time 22319, Note Name: C6
Note ON: Time 22320, Note Name: E5, Velocity: 62
Note OFF: Time 22439, Note Name: E5
Note ON: Time 22440, Note Name: E5, Velocity: 62
Note OFF: Time 22559, Note Name: E5
Note ON: Time 22560, Note Name: C5, Velocity: 70
Note OFF: Time 22679, Note Name: C5
Note ON: Time 22680, Note Name: E4, Velocity: 60
Note OFF: Time 22799, Note Name: E4
Note ON: Time 22800, Note Name: E4, Velocity: 60
Note OFF: Time 22919, Note Name: E4
Note ON: Time 22920, Note Name: C4, Velocity: 61
Note OFF: Time 23039, Note Name: C4
Note ON: Time 23040, Note Name: G#3, Velocity: 96
Note OFF: Time 23159, Note Name: G#3
Note ON: Time 23160, Note Name: C#4, Velocity: 63
Note OFF: Time 23279, Note Name: C#4
Note ON: Time 23280, Note Name: G#4, Velocity: 63
Note OFF: Time 23399, Note Name: G#4
Note ON: Time 23400, Note Name: G#4, Velocity: 63
Note OFF: Time 23519, Note Name: G#4
Note ON: Time 23520, Note Name: C#5, Velocity: 79
Note OFF: Time 23639, Note Name: C#5
Note ON: Time 23640, Note Name: G#5, Velocity: 64
Note OFF: Time 23759, Note Name: G#5
Note ON: Time 23760, Note Name: G#5, Velocity: 63
Note OFF: Time 23879, Note Name: G#5
Note ON: Time 23880, Note Name: C#6, Velocity: 63
Note OFF: Time 23999, Note Name: C#6
Note ON: Time 24000, Note Name: G#6, Velocity: 83
Note OFF: Time 24119, Note Name: G#6
Note ON: Time 24120, Note Name: C#6, Velocity: 69
Note OFF: Time 24239, Note Name: C#6
Note ON: Time 24240, Note Name: G#5, Velocity: 67
Note OFF: Time 24359, Note Name: G#5
Note ON: Time 24360, Note Name: G#5, Velocity: 67
Note OFF: Time 24479, Note Name: G#5
Note ON: Time 24480, Note Name: C#5, Velocity: 77
Note OFF: Time 24599, Note Name: C#5
Note ON: Time 24600, Note Name: G#4, Velocity: 67
Note OFF: Time 24719, Note Name: G#4
Note ON: Time 24720, Note Name: G#4, Velocity: 67
Note OFF: Time 24839, Note Name: G#4
Note ON: Time 24840, Note Name: C#4, Velocity: 66
Note OFF: Time 24959, Note Name: C#4
Note ON: Time 24960, Note Name: G3, Velocity: 102
Note OFF: Time 25079, Note Name: G3
Note ON: Time 25080, Note Name: B3, Velocity: 70
Note OFF: Time 25199, Note Name: B3
Note ON: Time 25200, Note Name: G4, Velocity: 70
Note OFF: Time 25319, Note Name: G4
Note ON: Time 25320, Note Name: G4, Velocity: 70
Note OFF: Time 25439, Note Name: G4
Note ON: Time 25440, Note Name: B4, Velocity: 84
Note OFF: Time 25559, Note Name: B4
Note ON: Time 25560, Note Name: G5, Velocity: 73
Note OFF: Time 25679, Note Name: G5
Note ON: Time 25680, Note Name: G5, Velocity: 73
Note OFF: Time 25799, Note Name: G5
Note ON: Time 25800, Note Name: B5, Velocity: 73
Note OFF: Time 25919, Note Name: B5
Note ON: Time 25920, Note Name: G6, Velocity: 84
Note OFF: Time 26039, Note Name: G6
Note ON: Time 26040, Note Name: B5, Velocity: 74
Note OFF: Time 26159, Note Name: B5
Note ON: Time 26160, Note Name: G5, Velocity: 74
Note OFF: Time 26279, Note Name: G5
Note ON: Time 26280, Note Name: G5, Velocity: 75
Note OFF: Time 26399, Note Name: G5
Note ON: Time 26400, Note Name: B4, Velocity: 84
Note OFF: Time 26519, Note Name: B4
Note ON: Time 26520, Note Name: G4, Velocity: 74
Note OFF: Time 26639, Note Name: G4
Note ON: Time 26640, Note Name: G4, Velocity: 74
Note OFF: Time 26759, Note Name: G4
Note ON: Time 26760, Note Name: B3, Velocity: 74
Note OFF: Time 26879, Note Name: B3
Note ON: Time 26880, Note Name: E3, Velocity: 107
Note OFF: Time 26999, Note Name: E3
Note ON: Time 27000, Note Name: G3, Velocity: 71
Note OFF: Time 27119, Note Name: G3
Note ON: Time 27120, Note Name: E4, Velocity: 72
Note OFF: Time 27239, Note Name: E4
Note ON: Time 27240, Note Name: E4, Velocity: 72
Note OFF: Time 27359, Note Name: E4
Note ON: Time 27360, Note Name: G4, Velocity: 85
Note OFF: Time 27479, Note Name: G4
Note ON: Time 27480, Note Name: E5, Velocity: 74
Note OFF: Time 27599, Note Name: E5
Note ON: Time 27600, Note Name: E5, Velocity: 74
Note OFF: Time 27719, Note Name: E5
Note ON: Time 27720, Note Name: G5, Velocity: 74
Note OFF: Time 27839, Note Name: G5
Note ON: Time 27840, Note Name: E6, Velocity: 88
Note OFF: Time 27959, Note Name: E6
Note ON: Time 27960, Note Name: E6, Velocity: 77
Note OFF: Time 28079, Note Name: E6
Note ON: Time 28080, Note Name: G6, Velocity: 77
Note OFF: Time 28199, Note Name: G6
Note ON: Time 28200, Note Name: E7, Velocity: 77
Note OFF: Time 28319, Note Name: E7
Note ON: Time 28320, Note Name: G6, Velocity: 86
Note OFF: Time 28439, Note Name: G6
Note ON: Time 28440, Note Name: E6, Velocity: 75
Note OFF: Time 28559, Note Name: E6
Note ON: Time 28560, Note Name: E6, Velocity: 75
Note OFF: Time 28679, Note Name: E6
Note ON: Time 28680, Note Name: G5, Velocity: 75
Note OFF: Time 28799, Note Name: G5
Note ON: Time 28800, Note Name: E5, Velocity: 75
Note OFF: Time 28919, Note Name: E5
Note ON: Time 28920, Note Name: E5, Velocity: 63
Note OFF: Time 29039, Note Name: E5
Note ON: Time 29040, Note Name: G4, Velocity: 63
Note OFF: Time 29159, Note Name: G4
Note ON: Time 29160, Note Name: E4, Velocity: 63
Note OFF: Time 29279, Note Name: E4
Note ON: Time 29280, Note Name: E4, Velocity: 95
Note ON: Time 29400, Note Name: G3, Velocity: 64
Note OFF: Time 29519, Note Name: G3
Note ON: Time 29520, Note Name: E3, Velocity: 64
Note OFF: Time 29639, Note Name: E3
Note ON: Time 29640, Note Name: G3, Velocity: 64
Note OFF: Time 29759, Note Name: G3
Note OFF: Time 29760, Note Name: E4
Note ON: Time 29760, Note Name: D3, Velocity: 95
Note OFF: Time 29879, Note Name: D3
Note ON: Time 29880, Note Name: G3, Velocity: 67
Note OFF: Time 29999, Note Name: G3
Note ON: Time 30000, Note Name: D4, Velocity: 84
Note OFF: Time 30119, Note Name: D4
Note ON: Time 30120, Note Name: G3, Velocity: 68
Note OFF: Time 30239, Note Name: G3
Note ON: Time 30240, Note Name: F3, Velocity: 94
Note OFF: Time 30359, Note Name: F3
Note ON: Time 30360, Note Name: G3, Velocity: 70
Note OFF: Time 30479, Note Name: G3
Note ON: Time 30480, Note Name: G4, Velocity: 83
Note OFF: Time 30599, Note Name: G4
Note ON: Time 30600, Note Name: G3, Velocity: 64
Note OFF: Time 30719, Note Name: G3
Note ON: Time 30720, Note Name: E3, Velocity: 106
Note OFF: Time 30839, Note Name: E3
Note ON: Time 30840, Note Name: G3, Velocity: 69
Note OFF: Time 30959, Note Name: G3
Note ON: Time 30960, Note Name: E4, Velocity: 69
Note OFF: Time 31079, Note Name: E4
Note ON: Time 31080, Note Name: E4, Velocity: 69
Note ON: Time 31200, Note Name: G4, Velocity: 80
Note OFF: Time 31319, Note Name: G4
Note OFF: Time 31320, Note Name: E4
Note ON: Time 31320, Note Name: E5, Velocity: 70
Note OFF: Time 31439, Note Name: E5
Note ON: Time 31440, Note Name: E5, Velocity: 70
Note OFF: Time 31559, Note Name: E5
Note ON: Time 31560, Note Name: G5, Velocity: 70
Note OFF: Time 31679, Note Name: G5
Note ON: Time 31680, Note Name: E6, Velocity: 87
Note OFF: Time 31799, Note Name: E6
Note ON: Time 31800, Note Name: E6, Velocity: 71
Note OFF: Time 31919, Note Name: E6
Note ON: Time 31920, Note Name: G6, Velocity: 71
Note OFF: Time 32039, Note Name: G6
Note ON: Time 32040, Note Name: E7, Velocity: 71
Note OFF: Time 32159, Note Name: E7
Note ON: Time 32160, Note Name: G6, Velocity: 80
Note OFF: Time 32279, Note Name: G6
Note ON: Time 32280, Note Name: E6, Velocity: 69
Note OFF: Time 32399, Note Name: E6
Note ON: Time 32400, Note Name: E6, Velocity: 69
Note OFF: Time 32519, Note Name: E6
Note ON: Time 32520, Note Name: G5, Velocity: 69
Note OFF: Time 32639, Note Name: G5
Note ON: Time 32640, Note Name: E5, Velocity: 72
Note OFF: Time 32759, Note Name: E5
Note ON: Time 32760, Note Name: E5, Velocity: 62
Note OFF: Time 32879, Note Name: E5
Note ON: Time 32880, Note Name: G4, Velocity: 62
Note OFF: Time 32999, Note Name: G4
Note ON: Time 33000, Note Name: E4, Velocity: 62
Note OFF: Time 33119, Note Name: E4
Note ON: Time 33120, Note Name: E4, Velocity: 92
Note ON: Time 33240, Note Name: G3, Velocity: 62
Note OFF: Time 33359, Note Name: G3
Note ON: Time 33360, Note Name: E3, Velocity: 62
Note OFF: Time 33479, Note Name: E3
Note ON: Time 33480, Note Name: G3, Velocity: 62
Note OFF: Time 33599, Note Name: G3
Note OFF: Time 33600, Note Name: E4
Note ON: Time 33600, Note Name: D3, Velocity: 89
Note OFF: Time 33719, Note Name: D3
Note ON: Time 33720, Note Name: G3, Velocity: 63
Note OFF: Time 33839, Note Name: G3
Note ON: Time 33840, Note Name: D4, Velocity: 69
Note ON: Time 33960, Note Name: G3, Velocity: 66
Note OFF: Time 34079, Note Name: G3
Note ON: Time 34080, Note Name: C3, Velocity: 86
Note OFF: Time 34199, Note Name: C3
Note ON: Time 34200, Note Name: G3, Velocity: 67
Note OFF: Time 34319, Note Name: G3
Note OFF: Time 34320, Note Name: D4
Note ON: Time 34320, Note Name: C4, Velocity: 68
Note ON: Time 34440, Note Name: G3, Velocity: 62
Note OFF: Time 34559, Note Name: G3
Note OFF: Time 34560, Note Name: C4
Note ON: Time 34560, Note Name: D3, Velocity: 95
Note OFF: Time 34679, Note Name: D3
Note ON: Time 34680, Note Name: G3, Velocity: 67
Note OFF: Time 34799, Note Name: G3
Note ON: Time 34800, Note Name: D4, Velocity: 67
Note OFF: Time 34919, Note Name: D4
Note ON: Time 34920, Note Name: D4, Velocity: 67
Note ON: Time 35040, Note Name: G4, Velocity: 78
Note OFF: Time 35159, Note Name: G4
Note OFF: Time 35160, Note Name: D4
Note ON: Time 35160, Note Name: D5, Velocity: 68
Note OFF: Time 35279, Note Name: D5
Note ON: Time 35280, Note Name: D5, Velocity: 67
Note OFF: Time 35399, Note Name: D5
Note ON: Time 35400, Note Name: G5, Velocity: 67
Note OFF: Time 35519, Note Name: G5
Note ON: Time 35520, Note Name: D6, Velocity: 80
Note OFF: Time 35639, Note Name: D6
Note ON: Time 35640, Note Name: D6, Velocity: 68
Note OFF: Time 35759, Note Name: D6
Note ON: Time 35760, Note Name: G6, Velocity: 68
Note OFF: Time 35879, Note Name: G6
Note ON: Time 35880, Note Name: D7, Velocity: 68
Note OFF: Time 35999, Note Name: D7
Note ON: Time 36000, Note Name: G6, Velocity: 78
Note OFF: Time 36119, Note Name: G6
Note ON: Time 36120, Note Name: D6, Velocity: 67
Note OFF: Time 36239, Note Name: D6
Note ON: Time 36240, Note Name: D6, Velocity: 67
Note OFF: Time 36359, Note Name: D6
Note ON: Time 36360, Note Name: G5, Velocity: 67
Note OFF: Time 36479, Note Name: G5
Note ON: Time 36480, Note Name: D5, Velocity: 70
Note OFF: Time 36599, Note Name: D5
Note ON: Time 36600, Note Name: D5, Velocity: 60
Note OFF: Time 36719, Note Name: D5
Note ON: Time 36720, Note Name: G4, Velocity: 60
Note OFF: Time 36839, Note Name: G4
Note ON: Time 36840, Note Name: D4, Velocity: 60
Note OFF: Time 36959, Note Name: D4
Note ON: Time 36960, Note Name: D4, Velocity: 83
Note ON: Time 37080, Note Name: G3, Velocity: 53
Note OFF: Time 37199, Note Name: G3
Note ON: Time 37200, Note Name: D3, Velocity: 53
Note OFF: Time 37319, Note Name: D3
Note ON: Time 37320, Note Name: G3, Velocity: 53
Note OFF: Time 37439, Note Name: G3
Note OFF: Time 37440, Note Name: D4
Note ON: Time 37440, Note Name: C3, Velocity: 80
Note OFF: Time 37559, Note Name: C3
Note ON: Time 37560, Note Name: F3, Velocity: 55
Note OFF: Time 37679, Note Name: F3
Note ON: Time 37680, Note Name: C4, Velocity: 59
Note ON: Time 37800, Note Name: F3, Velocity: 57
Note OFF: Time 37919, Note Name: F3
Note ON: Time 37920, Note Name: C3, Velocity: 75
Note OFF: Time 38039, Note Name: C3
Note ON: Time 38040, Note Name: F3, Velocity: 58
Note OFF: Time 38159, Note Name: F3
Note OFF: Time 38160, Note Name: C4
Note ON: Time 38160, Note Name: A3, Velocity: 59
Note ON: Time 38280, Note Name: F3, Velocity: 53
Note OFF: Time 38399, Note Name: F3
Note OFF: Time 38400, Note Name: A3
Note ON: Time 38400, Note Name: C3, Velocity: 77
Note OFF: Time 38519, Note Name: C3
Note ON: Time 38520, Note Name: F3, Velocity: 52
Note OFF: Time 38639, Note Name: F3
Note ON: Time 38640, Note Name: C4, Velocity: 52
Note OFF: Time 38759, Note Name: C4
Note ON: Time 38760, Note Name: C4, Velocity: 52
Note OFF: Time 38879, Note Name: C4
Note ON: Time 38880, Note Name: F4, Velocity: 61
Note OFF: Time 38999, Note Name: F4
Note ON: Time 39000, Note Name: C5, Velocity: 53
Note OFF: Time 39119, Note Name: C5
Note ON: Time 39120, Note Name: C5, Velocity: 53
Note OFF: Time 39239, Note Name: C5
Note ON: Time 39240, Note Name: F5, Velocity: 53
Note OFF: Time 39359, Note Name: F5
Note ON: Time 39360, Note Name: C6, Velocity: 69
Note OFF: Time 39479, Note Name: C6
Note ON: Time 39480, Note Name: F5, Velocity: 55
Note OFF: Time 39599, Note Name: F5
Note ON: Time 39600, Note Name: C5, Velocity: 55
Note OFF: Time 39719, Note Name: C5
Note ON: Time 39720, Note Name: C5, Velocity: 55
Note OFF: Time 39839, Note Name: C5
Note ON: Time 39840, Note Name: F4, Velocity: 61
Note OFF: Time 39959, Note Name: F4
Note ON: Time 39960, Note Name: C4, Velocity: 53
Note OFF: Time 40079, Note Name: C4
Note ON: Time 40080, Note Name: C4, Velocity: 53
Note OFF: Time 40199, Note Name: C4
Note ON: Time 40200, Note Name: F3, Velocity: 53
Note OFF: Time 40319, Note Name: F3
Note ON: Time 40320, Note Name: C3, Velocity: 77
Note OFF: Time 40439, Note Name: C3
Note ON: Time 40440, Note Name: E3, Velocity: 52
Note OFF: Time 40559, Note Name: E3
Note ON: Time 40560, Note Name: C4, Velocity: 52
Note OFF: Time 40679, Note Name: C4
Note ON: Time 40680, Note Name: C4, Velocity: 52
Note OFF: Time 40799, Note Name: C4
Note ON: Time 40800, Note Name: E4, Velocity: 61
Note OFF: Time 40919, Note Name: E4
Note ON: Time 40920, Note Name: C5, Velocity: 53
Note OFF: Time 41039, Note Name: C5
Note ON: Time 41040, Note Name: C5, Velocity: 53
Note OFF: Time 41159, Note Name: C5
Note ON: Time 41160, Note Name: E5, Velocity: 53
Note OFF: Time 41279, Note Name: E5
Note ON: Time 41280, Note Name: C6, Velocity: 69
Note OFF: Time 41399, Note Name: C6
Note ON: Time 41400, Note Name: E5, Velocity: 55
Note OFF: Time 41519, Note Name: E5
Note ON: Time 41520, Note Name: C5, Velocity: 55
Note OFF: Time 41639, Note Name: C5
Note ON: Time 41640, Note Name: C5, Velocity: 55
Note OFF: Time 41759, Note Name: C5
Note ON: Time 41760, Note Name: E4, Velocity: 61
Note OFF: Time 41879, Note Name: E4
Note ON: Time 41880, Note Name: C4, Velocity: 53
Note OFF: Time 41999, Note Name: C4
Note ON: Time 42000, Note Name: C4, Velocity: 53
Note OFF: Time 42119, Note Name: C4
Note ON: Time 42120, Note Name: E3, Velocity: 53
Note OFF: Time 42239, Note Name: E3
Note ON: Time 42240, Note Name: C3, Velocity: 75
Note OFF: Time 42359, Note Name: C3
Note ON: Time 42360, Note Name: D#3, Velocity: 48
Note OFF: Time 42479, Note Name: D#3
Note ON: Time 42480, Note Name: C4, Velocity: 48
Note OFF: Time 42599, Note Name: C4
Note ON: Time 42600, Note Name: C4, Velocity: 48
Note OFF: Time 42719, Note Name: C4
Note ON: Time 42720, Note Name: D#4, Velocity: 56
Note OFF: Time 42839, Note Name: D#4
Note ON: Time 42840, Note Name: C5, Velocity: 49
Note OFF: Time 42959, Note Name: C5
Note ON: Time 42960, Note Name: C5, Velocity: 49
Note OFF: Time 43079, Note Name: C5
Note ON: Time 43080, Note Name: D#5, Velocity: 49
Note OFF: Time 43199, Note Name: D#5
Note ON: Time 43200, Note Name: C6, Velocity: 63
Note OFF: Time 43319, Note Name: C6
Note ON: Time 43320, Note Name: C6, Velocity: 49
Note OFF: Time 43439, Note Name: C6
Note ON: Time 43440, Note Name: D#6, Velocity: 49
Note OFF: Time 43559, Note Name: D#6
Note ON: Time 43560, Note Name: C7, Velocity: 49
Note OFF: Time 43679, Note Name: C7
Note ON: Time 43680, Note Name: D#6, Velocity: 56
Note OFF: Time 43799, Note Name: D#6
Note ON: Time 43800, Note Name: C6, Velocity: 49
Note OFF: Time 43919, Note Name: C6
Note ON: Time 43920, Note Name: C6, Velocity: 49
Note OFF: Time 44039, Note Name: C6
Note ON: Time 44040, Note Name: D#5, Velocity: 49
Note OFF: Time 44159, Note Name: D#5
Note ON: Time 44160, Note Name: C5, Velocity: 60
Note OFF: Time 44279, Note Name: C5
Note ON: Time 44280, Note Name: C5, Velocity: 48
Note OFF: Time 44399, Note Name: C5
Note ON: Time 44400, Note Name: D#4, Velocity: 48
Note OFF: Time 44519, Note Name: D#4
Note ON: Time 44520, Note Name: C4, Velocity: 48
Note OFF: Time 44639, Note Name: C4
Note ON: Time 44640, Note Name: C4, Velocity: 69
Note ON: Time 44760, Note Name: D#3, Velocity: 49
Note OFF: Time 44879, Note Name: D#3
Note ON: Time 44880, Note Name: C3, Velocity: 49
Note OFF: Time 44999, Note Name: C3
Note ON: Time 45000, Note Name: D#3, Velocity: 49
Note OFF: Time 45119, Note Name: D#3
Note OFF: Time 45120, Note Name: C4
Note ON: Time 45120, Note Name: A#2, Velocity: 69
Note OFF: Time 45239, Note Name: A#2
Note ON: Time 45240, Note Name: D#3, Velocity: 49
Note OFF: Time 45359, Note Name: D#3
Note ON: Time 45360, Note Name: A#3, Velocity: 64
Note OFF: Time 45479, Note Name: A#3
Note ON: Time 45480, Note Name: D#3, Velocity: 51
Note OFF: Time 45599, Note Name: D#3
Note ON: Time 45600, Note Name: C#3, Velocity: 68
Note OFF: Time 45719, Note Name: C#3
Note ON: Time 45720, Note Name: D#3, Velocity: 49
Note OFF: Time 45839, Note Name: D#3
Note ON: Time 45840, Note Name: D#4, Velocity: 60
Note OFF: Time 45959, Note Name: D#4
Note ON: Time 45960, Note Name: D#3, Velocity: 49
Note OFF: Time 46079, Note Name: D#3
Note ON: Time 46080, Note Name: C3, Velocity: 75
Note OFF: Time 46199, Note Name: C3
Note ON: Time 46200, Note Name: D#3, Velocity: 48
Note OFF: Time 46319, Note Name: D#3
Note ON: Time 46320, Note Name: C4, Velocity: 48
Note OFF: Time 46439, Note Name: C4
Note ON: Time 46440, Note Name: C4, Velocity: 48
Note ON: Time 46560, Note Name: D#4, Velocity: 56
Note OFF: Time 46679, Note Name: D#4
Note OFF: Time 46680, Note Name: C4
Note ON: Time 46680, Note Name: C5, Velocity: 49
Note OFF: Time 46799, Note Name: C5
Note ON: Time 46800, Note Name: C5, Velocity: 49
Note OFF: Time 46919, Note Name: C5
Note ON: Time 46920, Note Name: D#5, Velocity: 49
Note OFF: Time 47039, Note Name: D#5
Note ON: Time 47040, Note Name: C6, Velocity: 63
Note OFF: Time 47159, Note Name: C6
Note ON: Time 47160, Note Name: C6, Velocity: 49
Note OFF: Time 47279, Note Name: C6
Note ON: Time 47280, Note Name: D#6, Velocity: 49
Note OFF: Time 47399, Note Name: D#6
Note ON: Time 47400, Note Name: C7, Velocity: 49
Note OFF: Time 47519, Note Name: C7
Note ON: Time 47520, Note Name: D#6, Velocity: 56
Note OFF: Time 47639, Note Name: D#6
Note ON: Time 47640, Note Name: C6, Velocity: 49
Note OFF: Time 47759, Note Name: C6
Note ON: Time 47760, Note Name: C6, Velocity: 49
Note OFF: Time 47879, Note Name: C6
Note ON: Time 47880, Note Name: D#5, Velocity: 49
Note OFF: Time 47999, Note Name: D#5
Note ON: Time 48000, Note Name: C5, Velocity: 60
Note OFF: Time 48119, Note Name: C5
Note ON: Time 48120, Note Name: C5, Velocity: 48
Note OFF: Time 48239, Note Name: C5
Note ON: Time 48240, Note Name: D#4, Velocity: 48
Note OFF: Time 48359, Note Name: D#4
Note ON: Time 48360, Note Name: C4, Velocity: 48
Note OFF: Time 48479, Note Name: C4
Note ON: Time 48480, Note Name: C4, Velocity: 69
Note ON: Time 48600, Note Name: D#3, Velocity: 49
Note OFF: Time 48719, Note Name: D#3
Note ON: Time 48720, Note Name: C3, Velocity: 49
Note OFF: Time 48839, Note Name: C3
Note ON: Time 48840, Note Name: D#3, Velocity: 49
Note OFF: Time 48959, Note Name: D#3
Note OFF: Time 48960, Note Name: C4
Note ON: Time 48960, Note Name: A#2, Velocity: 69
Note OFF: Time 49079, Note Name: A#2
Note ON: Time 49080, Note Name: D#3, Velocity: 49
Note OFF: Time 49199, Note Name: D#3
Note ON: Time 49200, Note Name: A#3, Velocity: 64
Note OFF: Time 49319, Note Name: A#3
Note ON: Time 49320, Note Name: D#3, Velocity: 51
Note OFF: Time 49439, Note Name: D#3
Note ON: Time 49440, Note Name: G#2, Velocity: 68
Note OFF: Time 49559, Note Name: G#2
Note ON: Time 49560, Note Name: D#3, Velocity: 49
Note OFF: Time 49679, Note Name: D#3
Note ON: Time 49680, Note Name: G#3, Velocity: 60
Note OFF: Time 49799, Note Name: G#3
Note ON: Time 49800, Note Name: D#3, Velocity: 49
Note OFF: Time 49919, Note Name: D#3
Note ON: Time 49920, Note Name: A#2, Velocity: 75
Note OFF: Time 50039, Note Name: A#2
Note ON: Time 50040, Note Name: D#3, Velocity: 48
Note OFF: Time 50159, Note Name: D#3
Note ON: Time 50160, Note Name: A#3, Velocity: 48
Note OFF: Time 50279, Note Name: A#3
Note ON: Time 50280, Note Name: A#3, Velocity: 48
Note ON: Time 50400, Note Name: D#4, Velocity: 56
Note OFF: Time 50519, Note Name: D#4
Note OFF: Time 50520, Note Name: A#3
Note ON: Time 50520, Note Name: A#4, Velocity: 49
Note OFF: Time 50639, Note Name: A#4
Note ON: Time 50640, Note Name: A#4, Velocity: 49
Note OFF: Time 50759, Note Name: A#4
Note ON: Time 50760, Note Name: D#5, Velocity: 49
Note OFF: Time 50879, Note Name: D#5
Note ON: Time 50880, Note Name: A#5, Velocity: 63
Note OFF: Time 50999, Note Name: A#5
Note ON: Time 51000, Note Name: A#5, Velocity: 49
Note OFF: Time 51119, Note Name: A#5
Note ON: Time 51120, Note Name: D#6, Velocity: 49
Note OFF: Time 51239, Note Name: D#6
Note ON: Time 51240, Note Name: A#6, Velocity: 49
Note OFF: Time 51359, Note Name: A#6
Note ON: Time 51360, Note Name: D#6, Velocity: 56
Note OFF: Time 51479, Note Name: D#6
Note ON: Time 51480, Note Name: A#5, Velocity: 49
Note OFF: Time 51599, Note Name: A#5
Note ON: Time 51600, Note Name: A#5, Velocity: 49
Note OFF: Time 51719, Note Name: A#5
Note ON: Time 51720, Note Name: D#5, Velocity: 49
Note OFF: Time 51839, Note Name: D#5
Note ON: Time 51840, Note Name: A#4, Velocity: 60
Note OFF: Time 51959, Note Name: A#4
Note ON: Time 51960, Note Name: A#4, Velocity: 48
Note OFF: Time 52079, Note Name: A#4
Note ON: Time 52080, Note Name: D#4, Velocity: 48
Note OFF: Time 52199, Note Name: D#4
Note ON: Time 52200, Note Name: A#3, Velocity: 48
Note OFF: Time 52319, Note Name: A#3
Note ON: Time 52320, Note Name: A#3, Velocity: 66
Note ON: Time 52440, Note Name: D#3, Velocity: 46
Note OFF: Time 52559, Note Name: D#3
Note ON: Time 52560, Note Name: A#2, Velocity: 46
Note OFF: Time 52679, Note Name: A#2
Note ON: Time 52680, Note Name: D#3, Velocity: 46
Note OFF: Time 52799, Note Name: D#3
Note OFF: Time 52800, Note Name: A#3
Note ON: Time 52800, Note Name: G#2, Velocity: 66
Note OFF: Time 52919, Note Name: G#2
Note ON: Time 52920, Note Name: C#3, Velocity: 47
Note OFF: Time 53039, Note Name: C#3
Note ON: Time 53040, Note Name: G#3, Velocity: 61
Note ON: Time 53160, Note Name: C#3, Velocity: 49
Note OFF: Time 53279, Note Name: C#3
Note ON: Time 53280, Note Name: G#2, Velocity: 63
Note OFF: Time 53399, Note Name: G#2
Note ON: Time 53400, Note Name: C#3, Velocity: 46
Note OFF: Time 53519, Note Name: C#3
Note OFF: Time 53520, Note Name: G#3
Note ON: Time 53520, Note Name: F3, Velocity: 56
Note ON: Time 53640, Note Name: C#3, Velocity: 46
Note OFF: Time 53759, Note Name: C#3
Note OFF: Time 53760, Note Name: F3
Note ON: Time 53760, Note Name: G#2, Velocity: 72
Note OFF: Time 53879, Note Name: G#2
Note ON: Time 53880, Note Name: C#3, Velocity: 45
Note OFF: Time 53999, Note Name: C#3
Note ON: Time 54000, Note Name: G#3, Velocity: 45
Note OFF: Time 54119, Note Name: G#3
Note ON: Time 54120, Note Name: G#3, Velocity: 45
Note OFF: Time 54239, Note Name: G#3
Note ON: Time 54240, Note Name: C#4, Velocity: 52
Note OFF: Time 54359, Note Name: C#4
Note ON: Time 54360, Note Name: G#4, Velocity: 45
Note OFF: Time 54479, Note Name: G#4
Note ON: Time 54480, Note Name: G#4, Velocity: 45
Note OFF: Time 54599, Note Name: G#4
Note ON: Time 54600, Note Name: C#5, Velocity: 44
Note OFF: Time 54719, Note Name: C#5
Note ON: Time 54720, Note Name: G#5, Velocity: 62
Note OFF: Time 54839, Note Name: G#5
Note ON: Time 54840, Note Name: C#5, Velocity: 45
Note OFF: Time 54959, Note Name: C#5
Note ON: Time 54960, Note Name: G#4, Velocity: 45
Note OFF: Time 55079, Note Name: G#4
Note ON: Time 55080, Note Name: G#4, Velocity: 44
Note OFF: Time 55199, Note Name: G#4
Note ON: Time 55200, Note Name: C#4, Velocity: 50
Note OFF: Time 55319, Note Name: C#4
Note ON: Time 55320, Note Name: G#3, Velocity: 42
Note OFF: Time 55439, Note Name: G#3
Note ON: Time 55440, Note Name: G#3, Velocity: 42
Note OFF: Time 55559, Note Name: G#3
Note ON: Time 55560, Note Name: C#3, Velocity: 42
Note OFF: Time 55679, Note Name: C#3
Note ON: Time 55680, Note Name: G#2, Velocity: 64
Note OFF: Time 55799, Note Name: G#2
Note ON: Time 55800, Note Name: C3, Velocity: 42
Note OFF: Time 55919, Note Name: C3
Note ON: Time 55920, Note Name: G#3, Velocity: 41
Note OFF: Time 56039, Note Name: G#3
Note ON: Time 56040, Note Name: G#3, Velocity: 41
Note OFF: Time 56159, Note Name: G#3
Note ON: Time 56160, Note Name: C4, Velocity: 50
Note OFF: Time 56279, Note Name: C4
Note ON: Time 56280, Note Name: G#4, Velocity: 39
Note OFF: Time 56399, Note Name: G#4
Note ON: Time 56400, Note Name: C4, Velocity: 38
Note OFF: Time 56519, Note Name: C4
Note ON: Time 56520, Note Name: G#3, Velocity: 38
Note OFF: Time 56639, Note Name: G#3
Note ON: Time 56640, Note Name: F#2, Velocity: 61
Note OFF: Time 56759, Note Name: F#2
Note ON: Time 56760, Note Name: C3, Velocity: 39
Note OFF: Time 56879, Note Name: C3
Note ON: Time 56880, Note Name: F#3, Velocity: 46
Note OFF: Time 56999, Note Name: F#3
Note ON: Time 57000, Note Name: F#3, Velocity: 40
Note OFF: Time 57119, Note Name: F#3
Note ON: Time 57120, Note Name: C4, Velocity: 48
Note OFF: Time 57239, Note Name: C4
Note ON: Time 57240, Note Name: F#4, Velocity: 37
Note OFF: Time 57359, Note Name: F#4
Note ON: Time 57360, Note Name: C4, Velocity: 44
Note OFF: Time 57480, Note Name: C4
Note ON: Time 57480, Note Name: F#3, Velocity: 36
Note OFF: Time 57599, Note Name: F#3
Note ON: Time 57600, Note Name: G2, Velocity: 61
Note OFF: Time 57719, Note Name: G2
Note ON: Time 57720, Note Name: B2, Velocity: 38
Note OFF: Time 57839, Note Name: B2
Note ON: Time 57840, Note Name: G3, Velocity: 38
Note OFF: Time 57959, Note Name: G3
Note ON: Time 57960, Note Name: G3, Velocity: 38
Note OFF: Time 58079, Note Name: G3
Note ON: Time 58080, Note Name: B3, Velocity: 46
Note OFF: Time 58199, Note Name: B3
Note ON: Time 58200, Note Name: G4, Velocity: 39
Note OFF: Time 58319, Note Name: G4
Note ON: Time 58320, Note Name: G4, Velocity: 39
Note OFF: Time 58439, Note Name: G4
Note ON: Time 58440, Note Name: B4, Velocity: 40
Note OFF: Time 58559, Note Name: B4
Note ON: Time 58560, Note Name: G5, Velocity: 56
Note OFF: Time 58679, Note Name: G5
Note ON: Time 58680, Note Name: B4, Velocity: 41
Note OFF: Time 58799, Note Name: B4
Note ON: Time 58800, Note Name: G4, Velocity: 41
Note OFF: Time 58919, Note Name: G4
Note ON: Time 58920, Note Name: G4, Velocity: 41
Note OFF: Time 59039, Note Name: G4
Note ON: Time 59040, Note Name: B3, Velocity: 47
Note OFF: Time 59159, Note Name: B3
Note ON: Time 59160, Note Name: G3, Velocity: 41
Note OFF: Time 59279, Note Name: G3
Note ON: Time 59280, Note Name: G3, Velocity: 41
Note OFF: Time 59399, Note Name: G3
Note ON: Time 59400, Note Name: B2, Velocity: 41
Note OFF: Time 59519, Note Name: B2
Note ON: Time 59520, Note Name: G#2, Velocity: 66
Note OFF: Time 59639, Note Name: G#2
Note ON: Time 59640, Note Name: C3, Velocity: 41
Note OFF: Time 59759, Note Name: C3
Note ON: Time 59760, Note Name: G#3, Velocity: 41
Note OFF: Time 59879, Note Name: G#3
Note ON: Time 59880, Note Name: G#3, Velocity: 41
Note OFF: Time 59999, Note Name: G#3
Note ON: Time 60000, Note Name: C4, Velocity: 49
Note OFF: Time 60119, Note Name: C4
Note ON: Time 60120, Note Name: G#4, Velocity: 44
Note OFF: Time 60239, Note Name: G#4
Note ON: Time 60240, Note Name: G#4, Velocity: 44
Note OFF: Time 60359, Note Name: G#4
Note ON: Time 60360, Note Name: C5, Velocity: 44
Note OFF: Time 60479, Note Name: C5
Note ON: Time 60480, Note Name: G#5, Velocity: 60
Note OFF: Time 60599, Note Name: G#5
Note ON: Time 60600, Note Name: C5, Velocity: 45
Note OFF: Time 60719, Note Name: C5
Note ON: Time 60720, Note Name: G#4, Velocity: 45
Note OFF: Time 60839, Note Name: G#4
Note ON: Time 60840, Note Name: G#4, Velocity: 45
Note OFF: Time 60959, Note Name: G#4
Note ON: Time 60960, Note Name: C4, Velocity: 51
Note OFF: Time 61079, Note Name: C4
Note ON: Time 61080, Note Name: G#3, Velocity: 45
Note OFF: Time 61199, Note Name: G#3
Note ON: Time 61200, Note Name: G#3, Velocity: 45
Note OFF: Time 61319, Note Name: G#3
Note ON: Time 61320, Note Name: C3, Velocity: 45
Note OFF: Time 61439, Note Name: C3
Note ON: Time 61440, Note Name: C3, Velocity: 72
Note OFF: Time 61559, Note Name: C3
Note ON: Time 61560, Note Name: F3, Velocity: 45
Note OFF: Time 61679, Note Name: F3
Note ON: Time 61680, Note Name: C4, Velocity: 45
Note OFF: Time 61799, Note Name: C4
Note ON: Time 61800, Note Name: C4, Velocity: 45
Note OFF: Time 61919, Note Name: C4
Note ON: Time 61920, Note Name: F4, Velocity: 52
Note OFF: Time 62039, Note Name: F4
Note ON: Time 62040, Note Name: C5, Velocity: 46
Note OFF: Time 62159, Note Name: C5
Note ON: Time 62160, Note Name: C5, Velocity: 46
Note OFF: Time 62279, Note Name: C5
Note ON: Time 62280, Note Name: F5, Velocity: 45
Note OFF: Time 62399, Note Name: F5
Note ON: Time 62400, Note Name: C6, Velocity: 64
Note OFF: Time 62519, Note Name: C6
Note ON: Time 62520, Note Name: F5, Velocity: 46
Note OFF: Time 62639, Note Name: F5
Note ON: Time 62640, Note Name: C5, Velocity: 46
Note OFF: Time 62759, Note Name: C5
Note ON: Time 62760, Note Name: C5, Velocity: 46
Note OFF: Time 62879, Note Name: C5
Note ON: Time 62880, Note Name: F4, Velocity: 51
Note OFF: Time 62999, Note Name: F4
Note ON: Time 63000, Note Name: C4, Velocity: 45
Note OFF: Time 63119, Note Name: C4
Note ON: Time 63120, Note Name: C4, Velocity: 45
Note OFF: Time 63239, Note Name: C4
Note ON: Time 63240, Note Name: F3, Velocity: 45
Note OFF: Time 63359, Note Name: F3
Note ON: Time 63360, Note Name: B2, Velocity: 69
Note OFF: Time 63479, Note Name: B2
Note ON: Time 63480, Note Name: F3, Velocity: 44
Note OFF: Time 63599, Note Name: F3
Note ON: Time 63600, Note Name: B3, Velocity: 44
Note OFF: Time 63719, Note Name: B3
Note ON: Time 63720, Note Name: B3, Velocity: 44
Note OFF: Time 63839, Note Name: B3
Note ON: Time 63840, Note Name: F4, Velocity: 51
Note OFF: Time 63959, Note Name: F4
Note ON: Time 63960, Note Name: B4, Velocity: 44
Note OFF: Time 64079, Note Name: B4
Note ON: Time 64080, Note Name: B4, Velocity: 44
Note OFF: Time 64199, Note Name: B4
Note ON: Time 64200, Note Name: F5, Velocity: 44
Note OFF: Time 64319, Note Name: F5
Note ON: Time 64320, Note Name: B5, Velocity: 62
Note OFF: Time 64439, Note Name: B5
Note ON: Time 64440, Note Name: F5, Velocity: 45
Note OFF: Time 64559, Note Name: F5
Note ON: Time 64560, Note Name: B4, Velocity: 45
Note OFF: Time 64679, Note Name: B4
Note ON: Time 64680, Note Name: B4, Velocity: 45
Note OFF: Time 64799, Note Name: B4
Note ON: Time 64800, Note Name: F4, Velocity: 50
Note OFF: Time 64919, Note Name: F4
Note ON: Time 64920, Note Name: B3, Velocity: 44
Note OFF: Time 65039, Note Name: B3
Note ON: Time 65040, Note Name: B3, Velocity: 44
Note OFF: Time 65159, Note Name: B3
Note ON: Time 65160, Note Name: F3, Velocity: 44
Note OFF: Time 65279, Note Name: F3
Note ON: Time 65280, Note Name: B2, Velocity: 68
Note OFF: Time 65399, Note Name: B2
Note ON: Time 65400, Note Name: F3, Velocity: 42
Note OFF: Time 65519, Note Name: F3
Note ON: Time 65520, Note Name: B3, Velocity: 42
Note OFF: Time 65639, Note Name: B3
Note ON: Time 65640, Note Name: B3, Velocity: 42
Note OFF: Time 65759, Note Name: B3
Note ON: Time 65760, Note Name: F4, Velocity: 50
Note OFF: Time 65879, Note Name: F4
Note ON: Time 65880, Note Name: B4, Velocity: 42
Note OFF: Time 65999, Note Name: B4
Note ON: Time 66000, Note Name: B4, Velocity: 42
Note OFF: Time 66119, Note Name: B4
Note ON: Time 66120, Note Name: F5, Velocity: 45
Note OFF: Time 66239, Note Name: F5
Note ON: Time 66240, Note Name: B5, Velocity: 62
Note OFF: Time 66359, Note Name: B5
Note ON: Time 66360, Note Name: F5, Velocity: 46
Note OFF: Time 66479, Note Name: F5
Note ON: Time 66480, Note Name: B4, Velocity: 46
Note OFF: Time 66599, Note Name: B4
Note ON: Time 66600, Note Name: B4, Velocity: 46
Note OFF: Time 66719, Note Name: B4
Note ON: Time 66720, Note Name: F4, Velocity: 51
Note OFF: Time 66839, Note Name: F4
Note ON: Time 66840, Note Name: B3, Velocity: 45
Note OFF: Time 66959, Note Name: B3
Note ON: Time 66960, Note Name: B3, Velocity: 45
Note OFF: Time 67079, Note Name: B3
Note ON: Time 67080, Note Name: F3, Velocity: 45
Note OFF: Time 67199, Note Name: F3
Note ON: Time 67200, Note Name: C3, Velocity: 73
Note OFF: Time 67319, Note Name: C3
Note ON: Time 67320, Note Name: F3, Velocity: 47
Note OFF: Time 67439, Note Name: F3
Note ON: Time 67440, Note Name: C4, Velocity: 47
Note OFF: Time 67559, Note Name: C4
Note ON: Time 67560, Note Name: C4, Velocity: 47
Note OFF: Time 67679, Note Name: C4
Note ON: Time 67680, Note Name: F4, Velocity: 56
Note OFF: Time 67799, Note Name: F4
Note ON: Time 67800, Note Name: C5, Velocity: 48
Note OFF: Time 67919, Note Name: C5
Note ON: Time 67920, Note Name: C5, Velocity: 48
Note OFF: Time 68039, Note Name: C5
Note ON: Time 68040, Note Name: F5, Velocity: 48
Note OFF: Time 68159, Note Name: F5
Note ON: Time 68160, Note Name: C6, Velocity: 69
Note OFF: Time 68279, Note Name: C6
Note ON: Time 68280, Note Name: F5, Velocity: 49
Note OFF: Time 68399, Note Name: F5
Note ON: Time 68400, Note Name: C5, Velocity: 50
Note OFF: Time 68519, Note Name: C5
Note ON: Time 68520, Note Name: C5, Velocity: 50
Note OFF: Time 68639, Note Name: C5
Note ON: Time 68640, Note Name: F4, Velocity: 57
Note OFF: Time 68759, Note Name: F4
Note ON: Time 68760, Note Name: C4, Velocity: 49
Note OFF: Time 68879, Note Name: C4
Note ON: Time 68880, Note Name: C4, Velocity: 49
Note OFF: Time 68999, Note Name: C4
Note ON: Time 69000, Note Name: F3, Velocity: 49
Note OFF: Time 69119, Note Name: F3
Note ON: Time 69120, Note Name: D#3, Velocity: 79
Note OFF: Time 69239, Note Name: D#3
Note ON: Time 69240, Note Name: F#3, Velocity: 49
Note OFF: Time 69359, Note Name: F#3
Note ON: Time 69360, Note Name: D#4, Velocity: 49
Note OFF: Time 69479, Note Name: D#4
Note ON: Time 69480, Note Name: D#4, Velocity: 49
Note OFF: Time 69599, Note Name: D#4
Note ON: Time 69600, Note Name: F#4, Velocity: 59
Note OFF: Time 69719, Note Name: F#4
Note ON: Time 69720, Note Name: D#5, Velocity: 50
Note OFF: Time 69839, Note Name: D#5
Note ON: Time 69840, Note Name: D#5, Velocity: 50
Note OFF: Time 69959, Note Name: D#5
Note ON: Time 69960, Note Name: F#5, Velocity: 51
Note OFF: Time 70079, Note Name: F#5
Note ON: Time 70080, Note Name: D#6, Velocity: 69
Note OFF: Time 70199, Note Name: D#6
Note ON: Time 70200, Note Name: F#5, Velocity: 52
Note OFF: Time 70319, Note Name: F#5
Note ON: Time 70320, Note Name: D#5, Velocity: 52
Note OFF: Time 70439, Note Name: D#5
Note ON: Time 70440, Note Name: D#5, Velocity: 52
Note OFF: Time 70559, Note Name: D#5
Note ON: Time 70560, Note Name: F#4, Velocity: 60
Note OFF: Time 70679, Note Name: F#4
Note ON: Time 70680, Note Name: D#4, Velocity: 52
Note OFF: Time 70799, Note Name: D#4
Note ON: Time 70800, Note Name: D#4, Velocity: 52
Note OFF: Time 70919, Note Name: D#4
Note ON: Time 70920, Note Name: F#3, Velocity: 52
Note OFF: Time 71039, Note Name: F#3
Note ON: Time 71040, Note Name: D3, Velocity: 84
Note OFF: Time 71159, Note Name: D3
Note ON: Time 71160, Note Name: G3, Velocity: 51
Note OFF: Time 71279, Note Name: G3
Note ON: Time 71280, Note Name: D4, Velocity: 51
Note OFF: Time 71399, Note Name: D4
Note ON: Time 71400, Note Name: D4, Velocity: 51
Note OFF: Time 71519, Note Name: D4
Note ON: Time 71520, Note Name: G4, Velocity: 63
Note OFF: Time 71639, Note Name: G4
Note ON: Time 71640, Note Name: D5, Velocity: 53
Note OFF: Time 71759, Note Name: D5
Note ON: Time 71760, Note Name: D5, Velocity: 53
Note OFF: Time 71879, Note Name: D5
Note ON: Time 71880, Note Name: G5, Velocity: 53
Note OFF: Time 71999, Note Name: G5
Note ON: Time 72000, Note Name: D6, Velocity: 77
Note OFF: Time 72119, Note Name: D6
Note ON: Time 72120, Note Name: G5, Velocity: 56
Note OFF: Time 72239, Note Name: G5
Note ON: Time 72240, Note Name: D5, Velocity: 57
Note OFF: Time 72359, Note Name: D5
Note ON: Time 72360, Note Name: D5, Velocity: 57
Note OFF: Time 72479, Note Name: D5
Note ON: Time 72480, Note Name: G4, Velocity: 66
Note OFF: Time 72599, Note Name: G4
Note ON: Time 72600, Note Name: D4, Velocity: 56
Note OFF: Time 72719, Note Name: D4
Note ON: Time 72720, Note Name: D4, Velocity: 56
Note OFF: Time 72839, Note Name: D4
Note ON: Time 72840, Note Name: G3, Velocity: 56
Note OFF: Time 72959, Note Name: G3
Note ON: Time 72960, Note Name: D3, Velocity: 91
Note OFF: Time 73079, Note Name: D3
Note ON: Time 73080, Note Name: G#3, Velocity: 57
Note OFF: Time 73199, Note Name: G#3
Note ON: Time 73200, Note Name: D4, Velocity: 57
Note OFF: Time 73319, Note Name: D4
Note ON: Time 73320, Note Name: D4, Velocity: 57
Note OFF: Time 73439, Note Name: D4
Note ON: Time 73440, Note Name: G#4, Velocity: 68
Note OFF: Time 73559, Note Name: G#4
Note ON: Time 73560, Note Name: D5, Velocity: 58
Note OFF: Time 73679, Note Name: D5
Note ON: Time 73680, Note Name: D5, Velocity: 58
Note OFF: Time 73799, Note Name: D5
Note ON: Time 73800, Note Name: G#5, Velocity: 58
Note OFF: Time 73919, Note Name: G#5
Note ON: Time 73920, Note Name: D6, Velocity: 77
Note OFF: Time 74039, Note Name: D6
Note ON: Time 74040, Note Name: G#5, Velocity: 59
Note OFF: Time 74159, Note Name: G#5
Note ON: Time 74160, Note Name: D5, Velocity: 59
Note OFF: Time 74279, Note Name: D5
Note ON: Time 74280, Note Name: D5, Velocity: 59
Note OFF: Time 74399, Note Name: D5
Note ON: Time 74400, Note Name: G#4, Velocity: 69
Note OFF: Time 74519, Note Name: G#4
Note ON: Time 74520, Note Name: D4, Velocity: 60
Note OFF: Time 74639, Note Name: D4
Note ON: Time 74640, Note Name: D4, Velocity: 60
Note OFF: Time 74759, Note Name: D4
Note ON: Time 74760, Note Name: G#3, Velocity: 60
Note OFF: Time 74879, Note Name: G#3
Note ON: Time 74880, Note Name: D#3, Velocity: 94
Note OFF: Time 74999, Note Name: D#3
Note ON: Time 75000, Note Name: G#3, Velocity: 59
Note OFF: Time 75119, Note Name: G#3
Note ON: Time 75120, Note Name: D#4, Velocity: 59
Note OFF: Time 75239, Note Name: D#4
Note ON: Time 75240, Note Name: D#4, Velocity: 59
Note OFF: Time 75359, Note Name: D#4
Note ON: Time 75360, Note Name: G#4, Velocity: 71
Note OFF: Time 75479, Note Name: G#4
Note ON: Time 75480, Note Name: D#5, Velocity: 61
Note OFF: Time 75599, Note Name: D#5
Note ON: Time 75600, Note Name: D#5, Velocity: 61
Note OFF: Time 75719, Note Name: D#5
Note ON: Time 75720, Note Name: G#5, Velocity: 61
Note OFF: Time 75839, Note Name: G#5
Note ON: Time 75840, Note Name: D#6, Velocity: 84
Note OFF: Time 75959, Note Name: D#6
Note ON: Time 75960, Note Name: G#5, Velocity: 62
Note OFF: Time 76079, Note Name: G#5
Note ON: Time 76080, Note Name: D#5, Velocity: 64
Note OFF: Time 76199, Note Name: D#5
Note ON: Time 76200, Note Name: D#5, Velocity: 64
Note OFF: Time 76319, Note Name: D#5
Note ON: Time 76320, Note Name: G#4, Velocity: 73
Note OFF: Time 76439, Note Name: G#4
Note ON: Time 76440, Note Name: D#4, Velocity: 63
Note OFF: Time 76559, Note Name: D#4
Note ON: Time 76560, Note Name: D#4, Velocity: 63
Note OFF: Time 76679, Note Name: D#4
Note ON: Time 76680, Note Name: G#3, Velocity: 63
Note OFF: Time 76799, Note Name: G#3
Note ON: Time 76800, Note Name: G3, Velocity: 97
Note OFF: Time 76919, Note Name: G3
Note ON: Time 76920, Note Name: C4, Velocity: 63
Note OFF: Time 77039, Note Name: C4
Note ON: Time 77040, Note Name: G4, Velocity: 63
Note OFF: Time 77159, Note Name: G4
Note ON: Time 77160, Note Name: G4, Velocity: 63
Note OFF: Time 77279, Note Name: G4
Note ON: Time 77280, Note Name: C5, Velocity: 74
Note OFF: Time 77399, Note Name: C5
Note ON: Time 77400, Note Name: G5, Velocity: 64
Note OFF: Time 77519, Note Name: G5
Note ON: Time 77520, Note Name: G5, Velocity: 64
Note OFF: Time 77639, Note Name: G5
Note ON: Time 77640, Note Name: C6, Velocity: 66
Note OFF: Time 77759, Note Name: C6
Note ON: Time 77760, Note Name: G6, Velocity: 88
Note OFF: Time 77879, Note Name: G6
Note ON: Time 77880, Note Name: C6, Velocity: 67
Note OFF: Time 77999, Note Name: C6
Note ON: Time 78000, Note Name: G5, Velocity: 67
Note OFF: Time 78119, Note Name: G5
Note ON: Time 78120, Note Name: G5, Velocity: 67
Note OFF: Time 78239, Note Name: G5
Note ON: Time 78240, Note Name: C5, Velocity: 77
Note OFF: Time 78359, Note Name: C5
Note ON: Time 78360, Note Name: G4, Velocity: 67
Note OFF: Time 78479, Note Name: G4
Note ON: Time 78480, Note Name: G4, Velocity: 67
Note OFF: Time 78599, Note Name: G4
Note ON: Time 78600, Note Name: C4, Velocity: 67
Note OFF: Time 78719, Note Name: C4
Note ON: Time 78720, Note Name: F3, Velocity: 101
Note OFF: Time 78839, Note Name: F3
Note ON: Time 78840, Note Name: C4, Velocity: 66
Note OFF: Time 78959, Note Name: C4
Note ON: Time 78960, Note Name: F4, Velocity: 66
Note OFF: Time 79079, Note Name: F4
Note ON: Time 79080, Note Name: F4, Velocity: 66
Note OFF: Time 79199, Note Name: F4
Note ON: Time 79200, Note Name: C5, Velocity: 80
Note OFF: Time 79319, Note Name: C5
Note ON: Time 79320, Note Name: F5, Velocity: 68
Note OFF: Time 79439, Note Name: F5
Note ON: Time 79440, Note Name: F5, Velocity: 68
Note OFF: Time 79559, Note Name: F5
Note ON: Time 79560, Note Name: C6, Velocity: 68
Note OFF: Time 79679, Note Name: C6
Note ON: Time 79680, Note Name: F6, Velocity: 88
Note OFF: Time 79799, Note Name: F6
Note ON: Time 79800, Note Name: B5, Velocity: 71
Note OFF: Time 79919, Note Name: B5
Note ON: Time 79920, Note Name: F5, Velocity: 72
Note OFF: Time 80039, Note Name: F5
Note ON: Time 80040, Note Name: F5, Velocity: 72
Note OFF: Time 80159, Note Name: F5
Note ON: Time 80160, Note Name: B4, Velocity: 81
Note OFF: Time 80279, Note Name: B4
Note ON: Time 80280, Note Name: F4, Velocity: 69
Note OFF: Time 80399, Note Name: F4
Note ON: Time 80400, Note Name: F4, Velocity: 69
Note OFF: Time 80519, Note Name: F4
Note ON: Time 80520, Note Name: B3, Velocity: 69
Note OFF: Time 80639, Note Name: B3
Note ON: Time 80640, Note Name: G#3, Velocity: 108
Note OFF: Time 80759, Note Name: G#3
Note ON: Time 80760, Note Name: B3, Velocity: 67
Note OFF: Time 80879, Note Name: B3
Note ON: Time 80880, Note Name: G#4, Velocity: 67
Note OFF: Time 80999, Note Name: G#4
Note ON: Time 81000, Note Name: G#4, Velocity: 67
Note OFF: Time 81119, Note Name: G#4
Note ON: Time 81120, Note Name: B4, Velocity: 81
Note OFF: Time 81239, Note Name: B4
Note ON: Time 81240, Note Name: G#5, Velocity: 70
Note OFF: Time 81359, Note Name: G#5
Note ON: Time 81360, Note Name: G#5, Velocity: 70
Note OFF: Time 81479, Note Name: G#5
Note ON: Time 81480, Note Name: B5, Velocity: 70
Note OFF: Time 81599, Note Name: B5
Note ON: Time 81600, Note Name: G#6, Velocity: 92
Note OFF: Time 81719, Note Name: G#6
Note ON: Time 81720, Note Name: B5, Velocity: 67
Note OFF: Time 81839, Note Name: B5
Note ON: Time 81840, Note Name: G#5, Velocity: 69
Note OFF: Time 81959, Note Name: G#5
Note ON: Time 81960, Note Name: G#5, Velocity: 69
Note OFF: Time 82079, Note Name: G#5
Note ON: Time 82080, Note Name: B4, Velocity: 82
Note OFF: Time 82199, Note Name: B4
Note ON: Time 82200, Note Name: G#4, Velocity: 67
Note OFF: Time 82319, Note Name: G#4
Note ON: Time 82320, Note Name: G#4, Velocity: 67
Note OFF: Time 82439, Note Name: G#4
Note ON: Time 82440, Note Name: B3, Velocity: 67
Note OFF: Time 82559, Note Name: B3
Note ON: Time 82560, Note Name: G3, Velocity: 106
Note OFF: Time 82679, Note Name: G3
Note ON: Time 82680, Note Name: B3, Velocity: 67
Note OFF: Time 82799, Note Name: B3
Note ON: Time 82800, Note Name: G4, Velocity: 67
Note OFF: Time 82919, Note Name: G4
Note ON: Time 82920, Note Name: G4, Velocity: 67
Note OFF: Time 83039, Note Name: G4
Note ON: Time 83040, Note Name: B4, Velocity: 81
Note OFF: Time 83159, Note Name: B4
Note ON: Time 83160, Note Name: G5, Velocity: 70
Note OFF: Time 83279, Note Name: G5
Note ON: Time 83280, Note Name: G5, Velocity: 70
Note OFF: Time 83399, Note Name: G5
Note ON: Time 83400, Note Name: B5, Velocity: 70
Note OFF: Time 83519, Note Name: B5
Note ON: Time 83520, Note Name: G6, Velocity: 90
Note OFF: Time 83639, Note Name: G6
Note ON: Time 83640, Note Name: B5, Velocity: 67
Note OFF: Time 83759, Note Name: B5
Note ON: Time 83760, Note Name: G5, Velocity: 69
Note OFF: Time 83879, Note Name: G5
Note ON: Time 83880, Note Name: G5, Velocity: 69
Note OFF: Time 83999, Note Name: G5
Note ON: Time 84000, Note Name: B4, Velocity: 82
Note OFF: Time 84119, Note Name: B4
Note ON: Time 84120, Note Name: G4, Velocity: 67
Note OFF: Time 84239, Note Name: G4
Note ON: Time 84240, Note Name: G4, Velocity: 67
Note OFF: Time 84359, Note Name: G4
Note ON: Time 84360, Note Name: B3, Velocity: 67
Note OFF: Time 84479, Note Name: B3
Note ON: Time 84480, Note Name: G2, Velocity: 100
Note OFF: Time 84599, Note Name: G2
Note ON: Time 84600, Note Name: B2, Velocity: 61
Note OFF: Time 84719, Note Name: B2
Note ON: Time 84720, Note Name: G3, Velocity: 62
Note OFF: Time 84839, Note Name: G3
Note ON: Time 84840, Note Name: G3, Velocity: 64
Note OFF: Time 84959, Note Name: G3
Note ON: Time 84960, Note Name: B3, Velocity: 75
Note OFF: Time 85079, Note Name: B3
Note ON: Time 85080, Note Name: G4, Velocity: 66
Note OFF: Time 85199, Note Name: G4
Note ON: Time 85200, Note Name: B3, Velocity: 67
Note OFF: Time 85319, Note Name: B3
Note ON: Time 85320, Note Name: G3, Velocity: 68
Note OFF: Time 85439, Note Name: G3
Note ON: Time 85440, Note Name: G2, Velocity: 105
Note OFF: Time 85559, Note Name: G2
Note ON: Time 85560, Note Name: C3, Velocity: 68
Note OFF: Time 85679, Note Name: C3
Note ON: Time 85680, Note Name: G3, Velocity: 68
Note OFF: Time 85799, Note Name: G3
Note ON: Time 85800, Note Name: G3, Velocity: 69
Note OFF: Time 85919, Note Name: G3
Note ON: Time 85920, Note Name: C4, Velocity: 80
Note OFF: Time 86039, Note Name: C4
Note ON: Time 86040, Note Name: G4, Velocity: 70
Note OFF: Time 86159, Note Name: G4
Note ON: Time 86160, Note Name: C4, Velocity: 71
Note OFF: Time 86279, Note Name: C4
Note ON: Time 86280, Note Name: G3, Velocity: 72
Note OFF: Time 86399, Note Name: G3
Note ON: Time 86400, Note Name: G2, Velocity: 106
Note OFF: Time 86519, Note Name: G2
Note ON: Time 86520, Note Name: C#3, Velocity: 69
Note OFF: Time 86639, Note Name: C#3
Note ON: Time 86640, Note Name: G3, Velocity: 70
Note OFF: Time 86759, Note Name: G3
Note ON: Time 86760, Note Name: G3, Velocity: 71
Note OFF: Time 86879, Note Name: G3
Note ON: Time 86880, Note Name: C#4, Velocity: 81
Note OFF: Time 86999, Note Name: C#4
Note ON: Time 87000, Note Name: G4, Velocity: 72
Note OFF: Time 87119, Note Name: G4
Note ON: Time 87120, Note Name: C#4, Velocity: 74
Note OFF: Time 87239, Note Name: C#4
Note ON: Time 87240, Note Name: G3, Velocity: 76
Note OFF: Time 87359, Note Name: G3
Note ON: Time 87360, Note Name: G2, Velocity: 109
Note OFF: Time 87479, Note Name: G2
Note ON: Time 87480, Note Name: C#3, Velocity: 73
Note OFF: Time 87599, Note Name: C#3
Note ON: Time 87600, Note Name: G3, Velocity: 75
Note OFF: Time 87719, Note Name: G3
Note ON: Time 87720, Note Name: C#3, Velocity: 75
Note OFF: Time 87839, Note Name: C#3
Note ON: Time 87840, Note Name: G2, Velocity: 96
Note OFF: Time 87959, Note Name: G2
Note ON: Time 87960, Note Name: D3, Velocity: 73
Note OFF: Time 88079, Note Name: D3
Note ON: Time 88080, Note Name: G3, Velocity: 72
Note OFF: Time 88199, Note Name: G3
Note ON: Time 88200, Note Name: D3, Velocity: 72
Note OFF: Time 88319, Note Name: D3
Note ON: Time 88320, Note Name: D#3, Velocity: 108
Note OFF: Time 88439, Note Name: D#3
Note ON: Time 88440, Note Name: G3, Velocity: 70
Note OFF: Time 88559, Note Name: G3
Note ON: Time 88560, Note Name: D#4, Velocity: 70
Note OFF: Time 88679, Note Name: D#4
Note ON: Time 88680, Note Name: D#4, Velocity: 70
Note OFF: Time 88799, Note Name: D#4
Note ON: Time 88800, Note Name: G4, Velocity: 82
Note OFF: Time 88919, Note Name: G4
Note ON: Time 88920, Note Name: D#5, Velocity: 72
Note OFF: Time 89039, Note Name: D#5
Note ON: Time 89040, Note Name: D#5, Velocity: 70
Note OFF: Time 89159, Note Name: D#5
Note ON: Time 89160, Note Name: G5, Velocity: 70
Note OFF: Time 89279, Note Name: G5
Note ON: Time 89280, Note Name: D#6, Velocity: 90
Note OFF: Time 89399, Note Name: D#6
Note ON: Time 89400, Note Name: G5, Velocity: 74
Note OFF: Time 89519, Note Name: G5
Note ON: Time 89520, Note Name: D#5, Velocity: 74
Note OFF: Time 89639, Note Name: D#5
Note ON: Time 89640, Note Name: D#5, Velocity: 74
Note OFF: Time 89759, Note Name: D#5
Note ON: Time 89760, Note Name: G4, Velocity: 82
Note OFF: Time 89879, Note Name: G4
Note ON: Time 89880, Note Name: D#4, Velocity: 70
Note OFF: Time 89999, Note Name: D#4
Note ON: Time 90000, Note Name: D#4, Velocity: 70
Note OFF: Time 90119, Note Name: D#4
Note ON: Time 90120, Note Name: G3, Velocity: 70
Note OFF: Time 90239, Note Name: G3
Note ON: Time 90240, Note Name: D3, Velocity: 107
Note OFF: Time 90359, Note Name: D3
Note ON: Time 90360, Note Name: G#3, Velocity: 66
Note OFF: Time 90479, Note Name: G#3
Note ON: Time 90480, Note Name: D4, Velocity: 66
Note OFF: Time 90599, Note Name: D4
Note ON: Time 90600, Note Name: D4, Velocity: 66
Note OFF: Time 90719, Note Name: D4
Note ON: Time 90720, Note Name: G#4, Velocity: 82
Note OFF: Time 90839, Note Name: G#4
Note ON: Time 90840, Note Name: D5, Velocity: 67
Note OFF: Time 90959, Note Name: D5
Note ON: Time 90960, Note Name: D5, Velocity: 66
Note OFF: Time 91079, Note Name: D5
Note ON: Time 91080, Note Name: G#5, Velocity: 66
Note OFF: Time 91199, Note Name: G#5
Note ON: Time 91200, Note Name: D6, Velocity: 92
Note OFF: Time 91319, Note Name: D6
Note ON: Time 91320, Note Name: G#5, Velocity: 72
Note OFF: Time 91439, Note Name: G#5
Note ON: Time 91440, Note Name: D5, Velocity: 70
Note OFF: Time 91559, Note Name: D5
Note ON: Time 91560, Note Name: D5, Velocity: 70
Note OFF: Time 91679, Note Name: D5
Note ON: Time 91680, Note Name: G#4, Velocity: 79
Note OFF: Time 91799, Note Name: G#4
Note ON: Time 91800, Note Name: D4, Velocity: 69
Note OFF: Time 91919, Note Name: D4
Note ON: Time 91920, Note Name: D4, Velocity: 69
Note OFF: Time 92039, Note Name: D4
Note ON: Time 92040, Note Name: G#3, Velocity: 67
Note OFF: Time 92159, Note Name: G#3
Note ON: Time 92160, Note Name: F3, Velocity: 107
Note OFF: Time 92279, Note Name: F3
Note ON: Time 92280, Note Name: C4, Velocity: 70
Note OFF: Time 92399, Note Name: C4
Note ON: Time 92400, Note Name: F4, Velocity: 70
Note OFF: Time 92519, Note Name: F4
Note ON: Time 92520, Note Name: F4, Velocity: 70
Note OFF: Time 92639, Note Name: F4
Note ON: Time 92640, Note Name: C5, Velocity: 82
Note OFF: Time 92759, Note Name: C5
Note ON: Time 92760, Note Name: F5, Velocity: 72
Note OFF: Time 92879, Note Name: F5
Note ON: Time 92880, Note Name: F5, Velocity: 72
Note OFF: Time 92999, Note Name: F5
Note ON: Time 93000, Note Name: C6, Velocity: 72
Note OFF: Time 93119, Note Name: C6
Note ON: Time 93120, Note Name: F6, Velocity: 88
Note OFF: Time 93239, Note Name: F6
Note ON: Time 93240, Note Name: C6, Velocity: 74
Note OFF: Time 93359, Note Name: C6
Note ON: Time 93360, Note Name: F5, Velocity: 74
Note OFF: Time 93479, Note Name: F5
Note ON: Time 93480, Note Name: F5, Velocity: 74
Note OFF: Time 93599, Note Name: F5
Note ON: Time 93600, Note Name: C5, Velocity: 82
Note OFF: Time 93719, Note Name: C5
Note ON: Time 93720, Note Name: F4, Velocity: 72
Note OFF: Time 93839, Note Name: F4
Note ON: Time 93840, Note Name: F4, Velocity: 72
Note OFF: Time 93959, Note Name: F4
Note ON: Time 93960, Note Name: C4, Velocity: 72
Note OFF: Time 94079, Note Name: C4
Note ON: Time 94080, Note Name: D#3, Velocity: 109
Note OFF: Time 94199, Note Name: D#3
Note ON: Time 94200, Note Name: G3, Velocity: 70
Note OFF: Time 94319, Note Name: G3
Note ON: Time 94320, Note Name: D#4, Velocity: 70
Note OFF: Time 94439, Note Name: D#4
Note ON: Time 94440, Note Name: D#4, Velocity: 70
Note OFF: Time 94559, Note Name: D#4
Note ON: Time 94560, Note Name: G4, Velocity: 82
Note OFF: Time 94679, Note Name: G4
Note ON: Time 94680, Note Name: D#5, Velocity: 72
Note OFF: Time 94799, Note Name: D#5
Note ON: Time 94800, Note Name: D#5, Velocity: 70
Note OFF: Time 94919, Note Name: D#5
Note ON: Time 94920, Note Name: G5, Velocity: 70
Note OFF: Time 95039, Note Name: G5
Note ON: Time 95040, Note Name: D#6, Velocity: 91
Note OFF: Time 95159, Note Name: D#6
Note ON: Time 95160, Note Name: G5, Velocity: 74
Note OFF: Time 95279, Note Name: G5
Note ON: Time 95280, Note Name: D#5, Velocity: 74
Note OFF: Time 95399, Note Name: D#5
Note ON: Time 95400, Note Name: D#5, Velocity: 74
Note OFF: Time 95519, Note Name: D#5
Note ON: Time 95520, Note Name: G4, Velocity: 82
Note OFF: Time 95639, Note Name: G4
Note ON: Time 95640, Note Name: D#4, Velocity: 70
Note OFF: Time 95759, Note Name: D#4
Note ON: Time 95760, Note Name: D#4, Velocity: 70
Note OFF: Time 95879, Note Name: D#4
Note ON: Time 95880, Note Name: G3, Velocity: 70
Note OFF: Time 95999, Note Name: G3
Note ON: Time 96000, Note Name: D3, Velocity: 110
Note OFF: Time 96119, Note Name: D3
Note ON: Time 96120, Note Name: G#3, Velocity: 66
Note OFF: Time 96239, Note Name: G#3
Note ON: Time 96240, Note Name: D4, Velocity: 66
Note OFF: Time 96359, Note Name: D4
Note ON: Time 96360, Note Name: D4, Velocity: 66
Note OFF: Time 96479, Note Name: D4
Note ON: Time 96480, Note Name: G#4, Velocity: 82
Note OFF: Time 96599, Note Name: G#4
Note ON: Time 96600, Note Name: D5, Velocity: 67
Note OFF: Time 96719, Note Name: D5
Note ON: Time 96720, Note Name: D5, Velocity: 66
Note OFF: Time 96839, Note Name: D5
Note ON: Time 96840, Note Name: G#5, Velocity: 66
Note OFF: Time 96959, Note Name: G#5
Note ON: Time 96960, Note Name: D6, Velocity: 95
Note OFF: Time 97079, Note Name: D6
Note ON: Time 97080, Note Name: G#5, Velocity: 72
Note OFF: Time 97199, Note Name: G#5
Note ON: Time 97200, Note Name: D5, Velocity: 70
Note OFF: Time 97319, Note Name: D5
Note ON: Time 97320, Note Name: D5, Velocity: 70
Note OFF: Time 97439, Note Name: D5
Note ON: Time 97440, Note Name: G#4, Velocity: 79
Note OFF: Time 97559, Note Name: G#4
Note ON: Time 97560, Note Name: D4, Velocity: 69
Note OFF: Time 97679, Note Name: D4
Note ON: Time 97680, Note Name: D4, Velocity: 69
Note OFF: Time 97799, Note Name: D4
Note ON: Time 97800, Note Name: G#3, Velocity: 67
Note OFF: Time 97919, Note Name: G#3
Note ON: Time 97920, Note Name: D#3, Velocity: 109
Note OFF: Time 98039, Note Name: D#3
Note ON: Time 98040, Note Name: G#3, Velocity: 70
Note OFF: Time 98159, Note Name: G#3
Note ON: Time 98160, Note Name: D#4, Velocity: 70
Note OFF: Time 98279, Note Name: D#4
Note ON: Time 98280, Note Name: D#4, Velocity: 70
Note OFF: Time 98399, Note Name: D#4
Note ON: Time 98400, Note Name: G#4, Velocity: 82
Note OFF: Time 98519, Note Name: G#4
Note ON: Time 98520, Note Name: D#5, Velocity: 72
Note OFF: Time 98639, Note Name: D#5
Note ON: Time 98640, Note Name: D#5, Velocity: 72
Note OFF: Time 98759, Note Name: D#5
Note ON: Time 98760, Note Name: G#5, Velocity: 72
Note OFF: Time 98879, Note Name: G#5
Note ON: Time 98880, Note Name: D#6, Velocity: 94
Note OFF: Time 98999, Note Name: D#6
Note ON: Time 99000, Note Name: G#5, Velocity: 74
Note OFF: Time 99119, Note Name: G#5
Note ON: Time 99120, Note Name: D#5, Velocity: 74
Note OFF: Time 99239, Note Name: D#5
Note ON: Time 99240, Note Name: D#5, Velocity: 74
Note OFF: Time 99359, Note Name: D#5
Note ON: Time 99360, Note Name: G#4, Velocity: 82
Note OFF: Time 99479, Note Name: G#4
Note ON: Time 99480, Note Name: D#4, Velocity: 72
Note OFF: Time 99599, Note Name: D#4
Note ON: Time 99600, Note Name: D#4, Velocity: 72
Note OFF: Time 99719, Note Name: D#4
Note ON: Time 99720, Note Name: G#3, Velocity: 72
Note OFF: Time 99839, Note Name: G#3
Note ON: Time 99840, Note Name: C3, Velocity: 106
Note OFF: Time 99959, Note Name: C3
Note ON: Time 99960, Note Name: D#3, Velocity: 70
Note OFF: Time 100079, Note Name: D#3
Note ON: Time 100080, Note Name: C4, Velocity: 70
Note OFF: Time 100199, Note Name: C4
Note ON: Time 100200, Note Name: C4, Velocity: 70
Note OFF: Time 100319, Note Name: C4
Note ON: Time 100320, Note Name: D#4, Velocity: 78
Note OFF: Time 100439, Note Name: D#4
Note ON: Time 100440, Note Name: C5, Velocity: 85
Note ON: Time 100560, Note Name: D#4, Velocity: 66
Note OFF: Time 100679, Note Name: D#4
Note ON: Time 100680, Note Name: C4, Velocity: 64
Note OFF: Time 100799, Note Name: C4
Note ON: Time 100800, Note Name: D#4, Velocity: 74
Note OFF: Time 100919, Note Name: D#4
Note OFF: Time 100920, Note Name: C5
Note ON: Time 100920, Note Name: A#4, Velocity: 81
Note ON: Time 101040, Note Name: D#4, Velocity: 64
Note OFF: Time 101159, Note Name: D#4
Note ON: Time 101160, Note Name: C4, Velocity: 64
Note OFF: Time 101279, Note Name: C4
Note ON: Time 101280, Note Name: D#4, Velocity: 73
Note OFF: Time 101399, Note Name: D#4
Note OFF: Time 101400, Note Name: A#4
Note ON: Time 101400, Note Name: G#4, Velocity: 77
Note ON: Time 101520, Note Name: D#4, Velocity: 60
Note OFF: Time 101639, Note Name: D#4
Note ON: Time 101640, Note Name: C4, Velocity: 60
Note OFF: Time 101759, Note Name: C4
Note ON: Time 101760, Note Name: D4, Velocity: 69
Note OFF: Time 101879, Note Name: D4
Note OFF: Time 101880, Note Name: G#4
Note ON: Time 101880, Note Name: G4, Velocity: 75
Note ON: Time 102000, Note Name: D4, Velocity: 58
Note OFF: Time 102119, Note Name: D4
Note ON: Time 102120, Note Name: B3, Velocity: 58
Note OFF: Time 102239, Note Name: B3
Note ON: Time 102240, Note Name: C#4, Velocity: 66
Note OFF: Time 102359, Note Name: C#4
Note OFF: Time 102360, Note Name: G4
Note ON: Time 102360, Note Name: G4, Velocity: 73
Note ON: Time 102480, Note Name: C#4, Velocity: 58
Note OFF: Time 102599, Note Name: C#4
Note ON: Time 102600, Note Name: A#3, Velocity: 56
Note OFF: Time 102719, Note Name: A#3
Note ON: Time 102720, Note Name: C4, Velocity: 63
Note OFF: Time 102839, Note Name: C4
Note OFF: Time 102840, Note Name: G4
Note ON: Time 102840, Note Name: F4, Velocity: 70
Note ON: Time 102960, Note Name: C4, Velocity: 55
Note OFF: Time 103079, Note Name: C4
Note ON: Time 103080, Note Name: A3, Velocity: 53
Note OFF: Time 103199, Note Name: A3
Note ON: Time 103200, Note Name: B3, Velocity: 59
Note OFF: Time 103319, Note Name: B3
Note OFF: Time 103320, Note Name: F4
Note ON: Time 103320, Note Name: F4, Velocity: 66
Note ON: Time 103440, Note Name: B3, Velocity: 52
Note OFF: Time 103559, Note Name: B3
Note ON: Time 103560, Note Name: G#3, Velocity: 50
Note OFF: Time 103679, Note Name: G#3
Note OFF: Time 103680, Note Name: F4
Note ON: Time 103680, Note Name: D#3, Velocity: 84
Note OFF: Time 103799, Note Name: D#3
Note ON: Time 103800, Note Name: G3, Velocity: 52
Note OFF: Time 103919, Note Name: G3
Note ON: Time 103920, Note Name: D#4, Velocity: 52
Note OFF: Time 104039, Note Name: D#4
Note ON: Time 104040, Note Name: D#4, Velocity: 53
Note OFF: Time 104159, Note Name: D#4
Note ON: Time 104160, Note Name: G4, Velocity: 63
Note OFF: Time 104279, Note Name: G4
Note ON: Time 104280, Note Name: D#5, Velocity: 56
Note OFF: Time 104399, Note Name: D#5
Note ON: Time 104400, Note Name: D#5, Velocity: 55
Note OFF: Time 104519, Note Name: D#5
Note ON: Time 104520, Note Name: G5, Velocity: 55
Note OFF: Time 104639, Note Name: G5
Note ON: Time 104640, Note Name: D#6, Velocity: 79
Note OFF: Time 104759, Note Name: D#6
Note ON: Time 104760, Note Name: G5, Velocity: 58
Note OFF: Time 104879, Note Name: G5
Note ON: Time 104880, Note Name: D#5, Velocity: 59
Note OFF: Time 104999, Note Name: D#5
Note ON: Time 105000, Note Name: D#5, Velocity: 59
Note OFF: Time 105119, Note Name: D#5
Note ON: Time 105120, Note Name: G4, Velocity: 67
Note OFF: Time 105239, Note Name: G4
Note ON: Time 105240, Note Name: D#4, Velocity: 56
Note OFF: Time 105359, Note Name: D#4
Note ON: Time 105360, Note Name: D#4, Velocity: 56
Note OFF: Time 105479, Note Name: D#4
Note ON: Time 105480, Note Name: G3, Velocity: 57
Note OFF: Time 105599, Note Name: G3
Note ON: Time 105600, Note Name: D3, Velocity: 92
Note OFF: Time 105719, Note Name: D3
Note ON: Time 105720, Note Name: G#3, Velocity: 55
Note OFF: Time 105839, Note Name: G#3
Note ON: Time 105840, Note Name: D4, Velocity: 55
Note OFF: Time 105959, Note Name: D4
Note ON: Time 105960, Note Name: D4, Velocity: 55
Note OFF: Time 106079, Note Name: D4
Note ON: Time 106080, Note Name: G#4, Velocity: 69
Note OFF: Time 106199, Note Name: G#4
Note ON: Time 106200, Note Name: D5, Velocity: 56
Note OFF: Time 106319, Note Name: D5
Note ON: Time 106320, Note Name: D5, Velocity: 56
Note OFF: Time 106439, Note Name: D5
Note ON: Time 106440, Note Name: G#5, Velocity: 56
Note OFF: Time 106559, Note Name: G#5
Note ON: Time 106560, Note Name: D6, Velocity: 79
Note OFF: Time 106679, Note Name: D6
Note ON: Time 106680, Note Name: G#5, Velocity: 61
Note OFF: Time 106799, Note Name: G#5
Note ON: Time 106800, Note Name: D5, Velocity: 59
Note OFF: Time 106919, Note Name: D5
Note ON: Time 106920, Note Name: D5, Velocity: 60
Note OFF: Time 107039, Note Name: D5
Note ON: Time 107040, Note Name: G#4, Velocity: 68
Note OFF: Time 107159, Note Name: G#4
Note ON: Time 107160, Note Name: D4, Velocity: 60
Note OFF: Time 107279, Note Name: D4
Note ON: Time 107280, Note Name: D4, Velocity: 60
Note OFF: Time 107399, Note Name: D4
Note ON: Time 107400, Note Name: G#3, Velocity: 59
Note OFF: Time 107519, Note Name: G#3
Note ON: Time 107520, Note Name: E3, Velocity: 100
Note OFF: Time 107639, Note Name: E3
Note ON: Time 107640, Note Name: A#3, Velocity: 58
Note OFF: Time 107759, Note Name: A#3
Note ON: Time 107760, Note Name: E4, Velocity: 59
Note OFF: Time 107879, Note Name: E4
Note ON: Time 107880, Note Name: E4, Velocity: 59
Note OFF: Time 107999, Note Name: E4
Note ON: Time 108000, Note Name: A#4, Velocity: 74
Note OFF: Time 108119, Note Name: A#4
Note ON: Time 108120, Note Name: E5, Velocity: 61
Note OFF: Time 108239, Note Name: E5
Note ON: Time 108240, Note Name: E5, Velocity: 60
Note OFF: Time 108359, Note Name: E5
Note ON: Time 108360, Note Name: A#5, Velocity: 60
Note OFF: Time 108479, Note Name: A#5
Note ON: Time 108480, Note Name: E6, Velocity: 84
Note OFF: Time 108599, Note Name: E6
Note ON: Time 108600, Note Name: A#5, Velocity: 67
Note OFF: Time 108719, Note Name: A#5
Note ON: Time 108720, Note Name: E5, Velocity: 64
Note OFF: Time 108839, Note Name: E5
Note ON: Time 108840, Note Name: E5, Velocity: 64
Note OFF: Time 108959, Note Name: E5
Note ON: Time 108960, Note Name: A#4, Velocity: 73
Note OFF: Time 109079, Note Name: A#4
Note ON: Time 109080, Note Name: E4, Velocity: 63
Note OFF: Time 109199, Note Name: E4
Note ON: Time 109200, Note Name: E4, Velocity: 64
Note OFF: Time 109319, Note Name: E4
Note ON: Time 109320, Note Name: B3, Velocity: 63
Note ON: Time 109440, Note Name: F3, Velocity: 102
Note OFF: Time 109559, Note Name: F3
Note OFF: Time 109560, Note Name: B3
Note ON: Time 109560, Note Name: G#3, Velocity: 60
Note OFF: Time 109679, Note Name: G#3
Note ON: Time 109680, Note Name: F4, Velocity: 60
Note OFF: Time 109799, Note Name: F4
Note ON: Time 109800, Note Name: F4, Velocity: 60
Note OFF: Time 109919, Note Name: F4
Note ON: Time 109920, Note Name: G#4, Velocity: 74
Note OFF: Time 110039, Note Name: G#4
Note ON: Time 110040, Note Name: F5, Velocity: 61
Note OFF: Time 110159, Note Name: F5
Note ON: Time 110160, Note Name: F5, Velocity: 60
Note OFF: Time 110279, Note Name: F5
Note ON: Time 110280, Note Name: G#5, Velocity: 60
Note OFF: Time 110399, Note Name: G#5
Note ON: Time 110400, Note Name: F6, Velocity: 83
Note OFF: Time 110519, Note Name: F6
Note ON: Time 110520, Note Name: G#5, Velocity: 64
Note OFF: Time 110639, Note Name: G#5
Note ON: Time 110640, Note Name: F5, Velocity: 62
Note OFF: Time 110759, Note Name: F5
Note ON: Time 110760, Note Name: F5, Velocity: 62
Note OFF: Time 110879, Note Name: F5
Note ON: Time 110880, Note Name: G#4, Velocity: 71
Note OFF: Time 110999, Note Name: G#4
Note ON: Time 111000, Note Name: F4, Velocity: 62
Note OFF: Time 111119, Note Name: F4
Note ON: Time 111120, Note Name: F4, Velocity: 62
Note OFF: Time 111239, Note Name: F4
Note ON: Time 111240, Note Name: G#3, Velocity: 61
Note OFF: Time 111359, Note Name: G#3
Note ON: Time 111360, Note Name: F3, Velocity: 97
Note OFF: Time 111479, Note Name: F3
Note ON: Time 111480, Note Name: G#3, Velocity: 58
Note OFF: Time 111599, Note Name: G#3
Note ON: Time 111600, Note Name: F4, Velocity: 58
Note OFF: Time 111719, Note Name: F4
Note ON: Time 111720, Note Name: F4, Velocity: 58
Note OFF: Time 111839, Note Name: F4
Note ON: Time 111840, Note Name: G#4, Velocity: 71
Note OFF: Time 111959, Note Name: G#4
Note ON: Time 111960, Note Name: F5, Velocity: 59
Note OFF: Time 112079, Note Name: F5
Note ON: Time 112080, Note Name: F5, Velocity: 58
Note OFF: Time 112199, Note Name: F5
Note ON: Time 112200, Note Name: G#5, Velocity: 58
Note OFF: Time 112319, Note Name: G#5
Note ON: Time 112320, Note Name: F6, Velocity: 81
Note OFF: Time 112439, Note Name: F6
Note ON: Time 112440, Note Name: G#5, Velocity: 63
Note OFF: Time 112559, Note Name: G#5
Note ON: Time 112560, Note Name: F5, Velocity: 62
Note OFF: Time 112679, Note Name: F5
Note ON: Time 112680, Note Name: F5, Velocity: 62
Note OFF: Time 112799, Note Name: F5
Note ON: Time 112800, Note Name: G#4, Velocity: 69
Note OFF: Time 112919, Note Name: G#4
Note ON: Time 112920, Note Name: F4, Velocity: 60
Note OFF: Time 113039, Note Name: F4
Note ON: Time 113040, Note Name: F4, Velocity: 60
Note OFF: Time 113159, Note Name: F4
Note ON: Time 113160, Note Name: G#3, Velocity: 59
Note OFF: Time 113279, Note Name: G#3
Note ON: Time 113280, Note Name: E3, Velocity: 101
Note OFF: Time 113399, Note Name: E3
Note ON: Time 113400, Note Name: A#3, Velocity: 59
Note OFF: Time 113519, Note Name: A#3
Note ON: Time 113520, Note Name: E4, Velocity: 59
Note OFF: Time 113639, Note Name: E4
Note ON: Time 113640, Note Name: E4, Velocity: 59
Note OFF: Time 113759, Note Name: E4
Note ON: Time 113760, Note Name: A#4, Velocity: 74
Note OFF: Time 113879, Note Name: A#4
Note ON: Time 113880, Note Name: E5, Velocity: 60
Note OFF: Time 113999, Note Name: E5
Note ON: Time 114000, Note Name: E5, Velocity: 59
Note OFF: Time 114119, Note Name: E5
Note ON: Time 114120, Note Name: A#5, Velocity: 59
Note OFF: Time 114239, Note Name: A#5
Note ON: Time 114240, Note Name: E6, Velocity: 85
Note OFF: Time 114359, Note Name: E6
Note ON: Time 114360, Note Name: A#5, Velocity: 64
Note OFF: Time 114479, Note Name: A#5
Note ON: Time 114480, Note Name: E5, Velocity: 63
Note OFF: Time 114599, Note Name: E5
Note ON: Time 114600, Note Name: E5, Velocity: 63
Note OFF: Time 114719, Note Name: E5
Note ON: Time 114720, Note Name: A#4, Velocity: 71
Note OFF: Time 114839, Note Name: A#4
Note ON: Time 114840, Note Name: E4, Velocity: 61
Note OFF: Time 114959, Note Name: E4
Note ON: Time 114960, Note Name: E4, Velocity: 61
Note OFF: Time 115079, Note Name: E4
Note ON: Time 115080, Note Name: A#3, Velocity: 60
Note OFF: Time 115199, Note Name: A#3
Note ON: Time 115200, Note Name: F3, Velocity: 103
Note OFF: Time 115319, Note Name: F3
Note ON: Time 115320, Note Name: B3, Velocity: 61
Note OFF: Time 115439, Note Name: B3
Note ON: Time 115440, Note Name: F4, Velocity: 61
Note OFF: Time 115559, Note Name: F4
Note ON: Time 115560, Note Name: F4, Velocity: 61
Note OFF: Time 115679, Note Name: F4
Note ON: Time 115680, Note Name: B4, Velocity: 75
Note OFF: Time 115799, Note Name: B4
Note ON: Time 115800, Note Name: F5, Velocity: 62
Note OFF: Time 115919, Note Name: F5
Note ON: Time 115920, Note Name: F5, Velocity: 61
Note OFF: Time 116039, Note Name: F5
Note ON: Time 116040, Note Name: B5, Velocity: 61
Note OFF: Time 116159, Note Name: B5
Note ON: Time 116160, Note Name: F6, Velocity: 86
Note OFF: Time 116279, Note Name: F6
Note ON: Time 116280, Note Name: B5, Velocity: 67
Note OFF: Time 116399, Note Name: B5
Note ON: Time 116400, Note Name: F5, Velocity: 66
Note OFF: Time 116519, Note Name: F5
Note ON: Time 116520, Note Name: F5, Velocity: 66
Note OFF: Time 116639, Note Name: F5
Note ON: Time 116640, Note Name: B4, Velocity: 73
Note OFF: Time 116759, Note Name: B4
Note ON: Time 116760, Note Name: F4, Velocity: 64
Note OFF: Time 116879, Note Name: F4
Note ON: Time 116880, Note Name: F4, Velocity: 64
Note OFF: Time 116999, Note Name: F4
Note ON: Time 117000, Note Name: B3, Velocity: 62
Note OFF: Time 117119, Note Name: B3
Note ON: Time 117120, Note Name: G3, Velocity: 105
Note OFF: Time 117239, Note Name: G3
Note ON: Time 117240, Note Name: B3, Velocity: 61
Note OFF: Time 117359, Note Name: B3
Note ON: Time 117360, Note Name: G4, Velocity: 62
Note OFF: Time 117479, Note Name: G4
Note ON: Time 117480, Note Name: G4, Velocity: 63
Note OFF: Time 117599, Note Name: G4
Note ON: Time 117600, Note Name: B4, Velocity: 79
Note OFF: Time 117719, Note Name: B4
Note ON: Time 117720, Note Name: G5, Velocity: 62
Note OFF: Time 117839, Note Name: G5
Note ON: Time 117840, Note Name: B4, Velocity: 64
Note OFF: Time 117959, Note Name: B4
Note ON: Time 117960, Note Name: G4, Velocity: 66
Note OFF: Time 118079, Note Name: G4
Note ON: Time 118080, Note Name: G#3, Velocity: 106
Note OFF: Time 118199, Note Name: G#3
Note ON: Time 118200, Note Name: B3, Velocity: 70
Note OFF: Time 118319, Note Name: B3
Note ON: Time 118320, Note Name: G#4, Velocity: 68
Note OFF: Time 118439, Note Name: G#4
Note ON: Time 118440, Note Name: G#4, Velocity: 68
Note OFF: Time 118559, Note Name: G#4
Note ON: Time 118560, Note Name: B4, Velocity: 75
Note OFF: Time 118679, Note Name: B4
Note ON: Time 118680, Note Name: G#5, Velocity: 67
Note OFF: Time 118799, Note Name: G#5
Note ON: Time 118800, Note Name: B4, Velocity: 67
Note OFF: Time 118919, Note Name: B4
Note ON: Time 118920, Note Name: G#4, Velocity: 64
Note OFF: Time 119039, Note Name: G#4
Note ON: Time 119040, Note Name: G3, Velocity: 108
Note OFF: Time 119159, Note Name: G3
Note ON: Time 119160, Note Name: C4, Velocity: 64
Note OFF: Time 119279, Note Name: C4
Note ON: Time 119280, Note Name: G4, Velocity: 64
Note OFF: Time 119399, Note Name: G4
Note ON: Time 119400, Note Name: G4, Velocity: 64
Note OFF: Time 119519, Note Name: G4
Note ON: Time 119520, Note Name: C5, Velocity: 81
Note OFF: Time 119639, Note Name: C5
Note ON: Time 119640, Note Name: G5, Velocity: 67
Note OFF: Time 119759, Note Name: G5
Note ON: Time 119760, Note Name: G5, Velocity: 64
Note OFF: Time 119879, Note Name: G5
Note ON: Time 119880, Note Name: C6, Velocity: 64
Note OFF: Time 119999, Note Name: C6
Note ON: Time 120000, Note Name: G6, Velocity: 93
Note OFF: Time 120119, Note Name: G6
Note ON: Time 120120, Note Name: C6, Velocity: 71
Note OFF: Time 120239, Note Name: C6
Note ON: Time 120240, Note Name: G5, Velocity: 70
Note OFF: Time 120359, Note Name: G5
Note ON: Time 120360, Note Name: G5, Velocity: 70
Note OFF: Time 120479, Note Name: G5
Note ON: Time 120480, Note Name: C5, Velocity: 78
Note OFF: Time 120599, Note Name: C5
Note ON: Time 120600, Note Name: G4, Velocity: 69
Note OFF: Time 120719, Note Name: G4
Note ON: Time 120720, Note Name: G4, Velocity: 69
Note OFF: Time 120839, Note Name: G4
Note ON: Time 120840, Note Name: C4, Velocity: 68
Note OFF: Time 120958, Note Name: C4
Note ON: Time 120960, Note Name: C4, Velocity: 107
Note OFF: Time 121079, Note Name: C4
Note ON: Time 121080, Note Name: G4, Velocity: 67
Note OFF: Time 121199, Note Name: G4
Note ON: Time 121200, Note Name: C5, Velocity: 67
Note OFF: Time 121319, Note Name: C5
Note ON: Time 121320, Note Name: C5, Velocity: 67
Note OFF: Time 121439, Note Name: C5
Note ON: Time 121440, Note Name: G5, Velocity: 83
Note OFF: Time 121559, Note Name: G5
Note ON: Time 121560, Note Name: C6, Velocity: 69
Note OFF: Time 121679, Note Name: C6
Note ON: Time 121680, Note Name: C6, Velocity: 67
Note OFF: Time 121799, Note Name: C6
Note ON: Time 121800, Note Name: G6, Velocity: 67
Note OFF: Time 121919, Note Name: G6
Note ON: Time 121920, Note Name: C7, Velocity: 95
Note OFF: Time 122039, Note Name: C7
Note ON: Time 122040, Note Name: G6, Velocity: 73
Note OFF: Time 122159, Note Name: G6
Note ON: Time 122160, Note Name: C6, Velocity: 72
Note OFF: Time 122279, Note Name: C6
Note ON: Time 122280, Note Name: C6, Velocity: 72
Note OFF: Time 122399, Note Name: C6
Note ON: Time 122400, Note Name: G5, Velocity: 80
Note OFF: Time 122519, Note Name: G5
Note ON: Time 122520, Note Name: C5, Velocity: 71
Note OFF: Time 122639, Note Name: C5
Note ON: Time 122640, Note Name: C5, Velocity: 71
Note OFF: Time 122759, Note Name: C5
Note ON: Time 122760, Note Name: G4, Velocity: 69
Note OFF: Time 122879, Note Name: G4
Note ON: Time 122880, Note Name: A#3, Velocity: 105
Note OFF: Time 122999, Note Name: A#3
Note ON: Time 123000, Note Name: C4, Velocity: 64
Note OFF: Time 123119, Note Name: C4
Note ON: Time 123120, Note Name: A#4, Velocity: 64
Note OFF: Time 123239, Note Name: A#4
Note ON: Time 123240, Note Name: A#4, Velocity: 64
Note OFF: Time 123359, Note Name: A#4
Note ON: Time 123360, Note Name: C5, Velocity: 80
Note OFF: Time 123479, Note Name: C5
Note ON: Time 123480, Note Name: A#5, Velocity: 64
Note OFF: Time 123599, Note Name: A#5
Note ON: Time 123600, Note Name: C5, Velocity: 64
Note OFF: Time 123719, Note Name: C5
Note ON: Time 123720, Note Name: A#4, Velocity: 64
Note OFF: Time 123839, Note Name: A#4
Note ON: Time 123840, Note Name: G#3, Velocity: 103
Note OFF: Time 123959, Note Name: G#3
Note ON: Time 123960, Note Name: C4, Velocity: 69
Note OFF: Time 124079, Note Name: C4
Note ON: Time 124080, Note Name: G#4, Velocity: 67
Note OFF: Time 124199, Note Name: G#4
Note ON: Time 124200, Note Name: G#4, Velocity: 67
Note OFF: Time 124319, Note Name: G#4
Note ON: Time 124320, Note Name: C5, Velocity: 77
Note OFF: Time 124439, Note Name: C5
Note ON: Time 124440, Note Name: G#5, Velocity: 66
Note OFF: Time 124559, Note Name: G#5
Note ON: Time 124560, Note Name: C5, Velocity: 66
Note OFF: Time 124679, Note Name: C5
Note ON: Time 124680, Note Name: G#4, Velocity: 64
Note OFF: Time 124799, Note Name: G#4
Note ON: Time 124800, Note Name: F3, Velocity: 103
Note OFF: Time 124919, Note Name: F3
Note ON: Time 124920, Note Name: G#3, Velocity: 64
Note OFF: Time 125039, Note Name: G#3
Note ON: Time 125040, Note Name: F4, Velocity: 64
Note OFF: Time 125159, Note Name: F4
Note ON: Time 125160, Note Name: F4, Velocity: 64
Note OFF: Time 125279, Note Name: F4
Note ON: Time 125280, Note Name: G#4, Velocity: 81
Note OFF: Time 125399, Note Name: G#4
Note ON: Time 125400, Note Name: F5, Velocity: 66
Note OFF: Time 125519, Note Name: F5
Note ON: Time 125520, Note Name: G#4, Velocity: 64
Note OFF: Time 125639, Note Name: G#4
Note ON: Time 125640, Note Name: F4, Velocity: 64
Note OFF: Time 125759, Note Name: F4
Note ON: Time 125760, Note Name: D3, Velocity: 103
Note OFF: Time 125879, Note Name: D3
Note ON: Time 125880, Note Name: G#3, Velocity: 70
Note OFF: Time 125999, Note Name: G#3
Note ON: Time 126000, Note Name: D4, Velocity: 69
Note OFF: Time 126119, Note Name: D4
Note ON: Time 126120, Note Name: D4, Velocity: 69
Note OFF: Time 126239, Note Name: D4
Note ON: Time 126240, Note Name: G#4, Velocity: 77
Note OFF: Time 126359, Note Name: G#4
Note ON: Time 126360, Note Name: D5, Velocity: 67
Note OFF: Time 126479, Note Name: D5
Note ON: Time 126480, Note Name: G#4, Velocity: 67
Note OFF: Time 126599, Note Name: G#4
Note ON: Time 126600, Note Name: D4, Velocity: 66
Note OFF: Time 126719, Note Name: D4
Note ON: Time 126720, Note Name: G3, Velocity: 110
Note OFF: Time 126839, Note Name: G3
Note ON: Time 126840, Note Name: C4, Velocity: 70
Note OFF: Time 126959, Note Name: C4
Note ON: Time 126960, Note Name: G4, Velocity: 70
Note OFF: Time 127079, Note Name: G4
Note ON: Time 127080, Note Name: G4, Velocity: 70
Note OFF: Time 127199, Note Name: G4
Note ON: Time 127200, Note Name: C5, Velocity: 85
Note OFF: Time 127319, Note Name: C5
Note ON: Time 127320, Note Name: G5, Velocity: 71
Note OFF: Time 127439, Note Name: G5
Note ON: Time 127440, Note Name: G5, Velocity: 70
Note OFF: Time 127559, Note Name: G5
Note ON: Time 127560, Note Name: C6, Velocity: 70
Note OFF: Time 127679, Note Name: C6
Note ON: Time 127680, Note Name: G6, Velocity: 97
Note OFF: Time 127799, Note Name: G6
Note ON: Time 127800, Note Name: C6, Velocity: 75
Note OFF: Time 127919, Note Name: C6
Note ON: Time 127920, Note Name: G5, Velocity: 73
Note OFF: Time 128039, Note Name: G5
Note ON: Time 128040, Note Name: G5, Velocity: 73
Note OFF: Time 128159, Note Name: G5
Note ON: Time 128160, Note Name: C5, Velocity: 82
Note OFF: Time 128279, Note Name: C5
Note ON: Time 128280, Note Name: G4, Velocity: 72
Note OFF: Time 128399, Note Name: G4
Note ON: Time 128400, Note Name: G4, Velocity: 72
Note OFF: Time 128519, Note Name: G4
Note ON: Time 128520, Note Name: C4, Velocity: 71
Note OFF: Time 128639, Note Name: C4
Note ON: Time 128640, Note Name: G#3, Velocity: 108
Note OFF: Time 128759, Note Name: G#3
Note ON: Time 128760, Note Name: C4, Velocity: 70
Note OFF: Time 128879, Note Name: C4
Note ON: Time 128880, Note Name: G#4, Velocity: 70
Note OFF: Time 128999, Note Name: G#4
Note ON: Time 129000, Note Name: G#4, Velocity: 70
Note OFF: Time 129119, Note Name: G#4
Note ON: Time 129120, Note Name: C5, Velocity: 85
Note OFF: Time 129239, Note Name: C5
Note ON: Time 129240, Note Name: G#5, Velocity: 71
Note OFF: Time 129359, Note Name: G#5
Note ON: Time 129360, Note Name: G#5, Velocity: 70
Note OFF: Time 129479, Note Name: G#5
Note ON: Time 129480, Note Name: C6, Velocity: 70
Note OFF: Time 129599, Note Name: C6
Note ON: Time 129600, Note Name: G#6, Velocity: 97
Note OFF: Time 129719, Note Name: G#6
Note ON: Time 129720, Note Name: C6, Velocity: 75
Note OFF: Time 129839, Note Name: C6
Note ON: Time 129840, Note Name: G#5, Velocity: 73
Note OFF: Time 129959, Note Name: G#5
Note ON: Time 129960, Note Name: G#5, Velocity: 73
Note OFF: Time 130079, Note Name: G#5
Note ON: Time 130080, Note Name: C5, Velocity: 82
Note OFF: Time 130199, Note Name: C5
Note ON: Time 130200, Note Name: G#4, Velocity: 72
Note OFF: Time 130319, Note Name: G#4
Note ON: Time 130320, Note Name: G#4, Velocity: 72
Note OFF: Time 130439, Note Name: G#4
Note ON: Time 130440, Note Name: C4, Velocity: 71
Note OFF: Time 130559, Note Name: C4
Note ON: Time 130560, Note Name: G#3, Velocity: 110
Note OFF: Time 130679, Note Name: G#3
Note ON: Time 130680, Note Name: B3, Velocity: 70
Note OFF: Time 130799, Note Name: B3
Note ON: Time 130800, Note Name: G#4, Velocity: 70
Note OFF: Time 130919, Note Name: G#4
Note ON: Time 130920, Note Name: G#4, Velocity: 70
Note OFF: Time 131039, Note Name: G#4
Note ON: Time 131040, Note Name: B4, Velocity: 85
Note OFF: Time 131159, Note Name: B4
Note ON: Time 131160, Note Name: G#5, Velocity: 71
Note OFF: Time 131279, Note Name: G#5
Note ON: Time 131280, Note Name: G#5, Velocity: 70
Note OFF: Time 131399, Note Name: G#5
Note ON: Time 131400, Note Name: B5, Velocity: 70
Note OFF: Time 131519, Note Name: B5
Note ON: Time 131520, Note Name: G#6, Velocity: 97
Note OFF: Time 131639, Note Name: G#6
Note ON: Time 131640, Note Name: B5, Velocity: 75
Note OFF: Time 131759, Note Name: B5
Note ON: Time 131760, Note Name: G#5, Velocity: 73
Note OFF: Time 131879, Note Name: G#5
Note ON: Time 131880, Note Name: G#5, Velocity: 73
Note OFF: Time 131999, Note Name: G#5
Note ON: Time 132000, Note Name: B4, Velocity: 82
Note OFF: Time 132119, Note Name: B4
Note ON: Time 132120, Note Name: G#4, Velocity: 72
Note OFF: Time 132239, Note Name: G#4
Note ON: Time 132240, Note Name: G#4, Velocity: 72
Note OFF: Time 132359, Note Name: G#4
Note ON: Time 132360, Note Name: B3, Velocity: 71
Note OFF: Time 132479, Note Name: B3
Note ON: Time 132480, Note Name: G3, Velocity: 108
Note OFF: Time 132599, Note Name: G3
Note ON: Time 132600, Note Name: B3, Velocity: 70
Note OFF: Time 132719, Note Name: B3
Note ON: Time 132720, Note Name: G4, Velocity: 70
Note OFF: Time 132839, Note Name: G4
Note ON: Time 132840, Note Name: G4, Velocity: 70
Note OFF: Time 132959, Note Name: G4
Note ON: Time 132960, Note Name: B4, Velocity: 85
Note OFF: Time 133079, Note Name: B4
Note ON: Time 133080, Note Name: G5, Velocity: 71
Note OFF: Time 133199, Note Name: G5
Note ON: Time 133200, Note Name: G5, Velocity: 70
Note OFF: Time 133319, Note Name: G5
Note ON: Time 133320, Note Name: B5, Velocity: 70
Note OFF: Time 133439, Note Name: B5
Note ON: Time 133440, Note Name: G6, Velocity: 97
Note OFF: Time 133559, Note Name: G6
Note ON: Time 133560, Note Name: B5, Velocity: 75
Note OFF: Time 133679, Note Name: B5
Note ON: Time 133680, Note Name: G5, Velocity: 73
Note OFF: Time 133799, Note Name: G5
Note ON: Time 133800, Note Name: G5, Velocity: 73
Note OFF: Time 133919, Note Name: G5
Note ON: Time 133920, Note Name: B4, Velocity: 82
Note OFF: Time 134039, Note Name: B4
Note ON: Time 134040, Note Name: G4, Velocity: 72
Note OFF: Time 134159, Note Name: G4
Note ON: Time 134160, Note Name: G4, Velocity: 72
Note OFF: Time 134279, Note Name: G4
Note ON: Time 134280, Note Name: B3, Velocity: 71
Note OFF: Time 134399, Note Name: B3
Note ON: Time 134400, Note Name: E3, Velocity: 108
Note OFF: Time 134519, Note Name: E3
Note ON: Time 134520, Note Name: G3, Velocity: 70
Note OFF: Time 134639, Note Name: G3
Note ON: Time 134640, Note Name: E4, Velocity: 70
Note OFF: Time 134759, Note Name: E4
Note ON: Time 134760, Note Name: E4, Velocity: 70
Note OFF: Time 134879, Note Name: E4
Note ON: Time 134880, Note Name: G4, Velocity: 85
Note OFF: Time 134999, Note Name: G4
Note ON: Time 135000, Note Name: E5, Velocity: 71
Note OFF: Time 135119, Note Name: E5
Note ON: Time 135120, Note Name: E5, Velocity: 70
Note OFF: Time 135239, Note Name: E5
Note ON: Time 135240, Note Name: G5, Velocity: 70
Note OFF: Time 135359, Note Name: G5
Note ON: Time 135360, Note Name: E6, Velocity: 93
Note OFF: Time 135479, Note Name: E6
Note ON: Time 135480, Note Name: E6, Velocity: 75
Note OFF: Time 135599, Note Name: E6
Note ON: Time 135600, Note Name: G6, Velocity: 73
Note OFF: Time 135719, Note Name: G6
Note ON: Time 135720, Note Name: E7, Velocity: 73
Note OFF: Time 135839, Note Name: E7
Note ON: Time 135840, Note Name: G6, Velocity: 82
Note OFF: Time 135959, Note Name: G6
Note ON: Time 135960, Note Name: E6, Velocity: 72
Note OFF: Time 136079, Note Name: E6
Note ON: Time 136080, Note Name: E6, Velocity: 72
Note OFF: Time 136199, Note Name: E6
Note ON: Time 136200, Note Name: G5, Velocity: 71
Note OFF: Time 136319, Note Name: G5
Note ON: Time 136320, Note Name: E5, Velocity: 81
Note OFF: Time 136439, Note Name: E5
Note ON: Time 136440, Note Name: E5, Velocity: 69
Note OFF: Time 136559, Note Name: E5
Note ON: Time 136560, Note Name: G4, Velocity: 69
Note OFF: Time 136679, Note Name: G4
Note ON: Time 136680, Note Name: E4, Velocity: 69
Note OFF: Time 136799, Note Name: E4
Note ON: Time 136800, Note Name: E4, Velocity: 101
Note ON: Time 136920, Note Name: G3, Velocity: 70
Note OFF: Time 137039, Note Name: G3
Note ON: Time 137040, Note Name: E3, Velocity: 70
Note OFF: Time 137159, Note Name: E3
Note ON: Time 137160, Note Name: G3, Velocity: 70
Note OFF: Time 137279, Note Name: G3
Note OFF: Time 137280, Note Name: E4
Note ON: Time 137280, Note Name: D3, Velocity: 106
Note OFF: Time 137399, Note Name: D3
Note ON: Time 137400, Note Name: G3, Velocity: 63
Note OFF: Time 137519, Note Name: G3
Note ON: Time 137520, Note Name: D4, Velocity: 82
Note OFF: Time 137639, Note Name: D4
Note ON: Time 137640, Note Name: G3, Velocity: 66
Note OFF: Time 137759, Note Name: G3
Note ON: Time 137760, Note Name: F3, Velocity: 102
Note OFF: Time 137879, Note Name: F3
Note ON: Time 137880, Note Name: G3, Velocity: 62
Note OFF: Time 137999, Note Name: G3
Note ON: Time 138000, Note Name: G4, Velocity: 75
Note ON: Time 138120, Note Name: G3, Velocity: 62
Note OFF: Time 138239, Note Name: G3
Note OFF: Time 138240, Note Name: G4
Note ON: Time 138240, Note Name: E3, Velocity: 108
Note OFF: Time 138359, Note Name: E3
Note ON: Time 138360, Note Name: G3, Velocity: 70
Note OFF: Time 138479, Note Name: G3
Note ON: Time 138480, Note Name: E4, Velocity: 70
Note OFF: Time 138599, Note Name: E4
Note ON: Time 138600, Note Name: E4, Velocity: 70
Note OFF: Time 138719, Note Name: E4
Note ON: Time 138720, Note Name: G4, Velocity: 85
Note OFF: Time 138839, Note Name: G4
Note ON: Time 138840, Note Name: E5, Velocity: 71
Note OFF: Time 138959, Note Name: E5
Note ON: Time 138960, Note Name: E5, Velocity: 70
Note OFF: Time 139079, Note Name: E5
Note ON: Time 139080, Note Name: G5, Velocity: 70
Note OFF: Time 139199, Note Name: G5
Note ON: Time 139200, Note Name: E6, Velocity: 83
Note OFF: Time 139319, Note Name: E6
Note ON: Time 139320, Note Name: E6, Velocity: 75
Note OFF: Time 139439, Note Name: E6
Note ON: Time 139440, Note Name: G6, Velocity: 73
Note OFF: Time 139559, Note Name: G6
Note ON: Time 139560, Note Name: E7, Velocity: 73
Note OFF: Time 139679, Note Name: E7
Note ON: Time 139680, Note Name: G6, Velocity: 82
Note OFF: Time 139799, Note Name: G6
Note ON: Time 139800, Note Name: E6, Velocity: 72
Note OFF: Time 139919, Note Name: E6
Note ON: Time 139920, Note Name: E6, Velocity: 72
Note OFF: Time 140039, Note Name: E6
Note ON: Time 140040, Note Name: G5, Velocity: 71
Note OFF: Time 140159, Note Name: G5
Note ON: Time 140160, Note Name: E5, Velocity: 81
Note OFF: Time 140279, Note Name: E5
Note ON: Time 140280, Note Name: E5, Velocity: 69
Note OFF: Time 140399, Note Name: E5
Note ON: Time 140400, Note Name: G4, Velocity: 69
Note OFF: Time 140519, Note Name: G4
Note ON: Time 140520, Note Name: E4, Velocity: 69
Note OFF: Time 140639, Note Name: E4
Note ON: Time 140640, Note Name: E4, Velocity: 105
Note ON: Time 140760, Note Name: G3, Velocity: 70
Note OFF: Time 140879, Note Name: G3
Note ON: Time 140880, Note Name: E3, Velocity: 70
Note OFF: Time 140999, Note Name: E3
Note ON: Time 141000, Note Name: G3, Velocity: 70
Note OFF: Time 141119, Note Name: G3
Note OFF: Time 141120, Note Name: E4
Note ON: Time 141120, Note Name: D3, Velocity: 104
Note OFF: Time 141239, Note Name: D3
Note ON: Time 141240, Note Name: G3, Velocity: 63
Note OFF: Time 141359, Note Name: G3
Note ON: Time 141360, Note Name: D4, Velocity: 82
Note ON: Time 141480, Note Name: G3, Velocity: 66
Note OFF: Time 141599, Note Name: G3
Note ON: Time 141600, Note Name: C3, Velocity: 103
Note OFF: Time 141719, Note Name: C3
Note ON: Time 141720, Note Name: G3, Velocity: 62
Note OFF: Time 141839, Note Name: G3
Note OFF: Time 141840, Note Name: D4
Note ON: Time 141840, Note Name: C4, Velocity: 75
Note ON: Time 141960, Note Name: G3, Velocity: 62
Note OFF: Time 142079, Note Name: G3
Note OFF: Time 142080, Note Name: C4
Note ON: Time 142080, Note Name: D3, Velocity: 109
Note OFF: Time 142199, Note Name: D3
Note ON: Time 142200, Note Name: G3, Velocity: 70
Note OFF: Time 142319, Note Name: G3
Note ON: Time 142320, Note Name: D4, Velocity: 70
Note OFF: Time 142439, Note Name: D4
Note ON: Time 142440, Note Name: D4, Velocity: 70
Note ON: Time 142560, Note Name: G4, Velocity: 85
Note OFF: Time 142679, Note Name: G4
Note OFF: Time 142680, Note Name: D4
Note ON: Time 142680, Note Name: D5, Velocity: 71
Note OFF: Time 142799, Note Name: D5
Note ON: Time 142800, Note Name: D5, Velocity: 70
Note OFF: Time 142919, Note Name: D5
Note ON: Time 142920, Note Name: G5, Velocity: 70
Note OFF: Time 143039, Note Name: G5
Note ON: Time 143040, Note Name: D6, Velocity: 87
Note OFF: Time 143159, Note Name: D6
Note ON: Time 143160, Note Name: D6, Velocity: 75
Note OFF: Time 143279, Note Name: D6
Note ON: Time 143280, Note Name: G6, Velocity: 73
Note OFF: Time 143399, Note Name: G6
Note ON: Time 143400, Note Name: D7, Velocity: 73
Note OFF: Time 143519, Note Name: D7
Note ON: Time 143520, Note Name: G6, Velocity: 82
Note OFF: Time 143639, Note Name: G6
Note ON: Time 143640, Note Name: D6, Velocity: 72
Note OFF: Time 143759, Note Name: D6
Note ON: Time 143760, Note Name: D6, Velocity: 72
Note OFF: Time 143879, Note Name: D6
Note ON: Time 143880, Note Name: G5, Velocity: 71
Note OFF: Time 143999, Note Name: G5
Note ON: Time 144000, Note Name: D5, Velocity: 81
Note OFF: Time 144119, Note Name: D5
Note ON: Time 144120, Note Name: D5, Velocity: 69
Note OFF: Time 144239, Note Name: D5
Note ON: Time 144240, Note Name: G4, Velocity: 69
Note OFF: Time 144359, Note Name: G4
Note ON: Time 144360, Note Name: D4, Velocity: 69
Note OFF: Time 144479, Note Name: D4
Note ON: Time 144480, Note Name: D4, Velocity: 101
Note ON: Time 144600, Note Name: G3, Velocity: 70
Note OFF: Time 144719, Note Name: G3
Note ON: Time 144720, Note Name: D3, Velocity: 70
Note OFF: Time 144839, Note Name: D3
Note ON: Time 144840, Note Name: G3, Velocity: 70
Note OFF: Time 144959, Note Name: G3
Note OFF: Time 144960, Note Name: D4
Note ON: Time 144960, Note Name: C3, Velocity: 100
Note OFF: Time 145079, Note Name: C3
Note ON: Time 145080, Note Name: F3, Velocity: 63
Note OFF: Time 145199, Note Name: F3
Note ON: Time 145200, Note Name: C4, Velocity: 82
Note ON: Time 145320, Note Name: F3, Velocity: 66
Note OFF: Time 145439, Note Name: F3
Note ON: Time 145440, Note Name: C3, Velocity: 99
Note OFF: Time 145559, Note Name: C3
Note ON: Time 145560, Note Name: F3, Velocity: 62
Note OFF: Time 145679, Note Name: F3
Note OFF: Time 145680, Note Name: C4
Note ON: Time 145680, Note Name: A3, Velocity: 75
Note ON: Time 145800, Note Name: F3, Velocity: 62
Note OFF: Time 145919, Note Name: F3
Note OFF: Time 145920, Note Name: A3
Note ON: Time 145920, Note Name: C3, Velocity: 100
Note OFF: Time 146039, Note Name: C3
Note ON: Time 146040, Note Name: F3, Velocity: 70
Note OFF: Time 146159, Note Name: F3
Note ON: Time 146160, Note Name: C4, Velocity: 70
Note OFF: Time 146279, Note Name: C4
Note ON: Time 146280, Note Name: C4, Velocity: 70
Note OFF: Time 146399, Note Name: C4
Note ON: Time 146400, Note Name: F4, Velocity: 85
Note OFF: Time 146519, Note Name: F4
Note ON: Time 146520, Note Name: C5, Velocity: 71
Note OFF: Time 146639, Note Name: C5
Note ON: Time 146640, Note Name: C5, Velocity: 70
Note OFF: Time 146759, Note Name: C5
Note ON: Time 146760, Note Name: F5, Velocity: 70
Note OFF: Time 146879, Note Name: F5
Note ON: Time 146880, Note Name: C6, Velocity: 91
Note OFF: Time 146999, Note Name: C6
Note ON: Time 147000, Note Name: C6, Velocity: 73
Note OFF: Time 147119, Note Name: C6
Note ON: Time 147120, Note Name: F6, Velocity: 73
Note OFF: Time 147239, Note Name: F6
Note ON: Time 147240, Note Name: C7, Velocity: 73
Note OFF: Time 147359, Note Name: C7
Note ON: Time 147360, Note Name: F6, Velocity: 82
Note OFF: Time 147479, Note Name: F6
Note ON: Time 147480, Note Name: C6, Velocity: 72
Note OFF: Time 147599, Note Name: C6
Note ON: Time 147600, Note Name: C6, Velocity: 72
Note OFF: Time 147719, Note Name: C6
Note ON: Time 147720, Note Name: F5, Velocity: 71
Note OFF: Time 147839, Note Name: F5
Note ON: Time 147840, Note Name: C5, Velocity: 81
Note OFF: Time 147959, Note Name: C5
Note ON: Time 147960, Note Name: C5, Velocity: 69
Note OFF: Time 148079, Note Name: C5
Note ON: Time 148080, Note Name: F4, Velocity: 69
Note OFF: Time 148199, Note Name: F4
Note ON: Time 148200, Note Name: C4, Velocity: 69
Note OFF: Time 148319, Note Name: C4
Note ON: Time 148320, Note Name: C4, Velocity: 104
Note ON: Time 148440, Note Name: F3, Velocity: 73
Note OFF: Time 148559, Note Name: F3
Note ON: Time 148560, Note Name: C3, Velocity: 73
Note OFF: Time 148679, Note Name: C3
Note ON: Time 148680, Note Name: F3, Velocity: 73
Note OFF: Time 148799, Note Name: F3
Note OFF: Time 148800, Note Name: C4
Note ON: Time 148800, Note Name: C3, Velocity: 103
Note OFF: Time 148919, Note Name: C3
Note ON: Time 148920, Note Name: F3, Velocity: 68
Note OFF: Time 149039, Note Name: F3
Note ON: Time 149040, Note Name: C4, Velocity: 82
Note ON: Time 149160, Note Name: F3, Velocity: 66
Note OFF: Time 149279, Note Name: F3
Note ON: Time 149280, Note Name: C3, Velocity: 100
Note OFF: Time 149399, Note Name: C3
Note ON: Time 149400, Note Name: F3, Velocity: 62
Note OFF: Time 149519, Note Name: F3
Note OFF: Time 149520, Note Name: C4
Note ON: Time 149520, Note Name: D4, Velocity: 75
Note ON: Time 149640, Note Name: F3, Velocity: 62
Note OFF: Time 149759, Note Name: F3
Note OFF: Time 149760, Note Name: D4
Note ON: Time 149760, Note Name: C3, Velocity: 107
Note OFF: Time 149879, Note Name: C3
Note ON: Time 149880, Note Name: F3, Velocity: 73
Note OFF: Time 149999, Note Name: F3
Note ON: Time 150000, Note Name: C4, Velocity: 73
Note OFF: Time 150119, Note Name: C4
Note ON: Time 150120, Note Name: C4, Velocity: 73
Note OFF: Time 150239, Note Name: C4
Note ON: Time 150240, Note Name: F4, Velocity: 85
Note OFF: Time 150359, Note Name: F4
Note ON: Time 150360, Note Name: C5, Velocity: 71
Note OFF: Time 150479, Note Name: C5
Note ON: Time 150480, Note Name: C5, Velocity: 70
Note OFF: Time 150599, Note Name: C5
Note ON: Time 150600, Note Name: F5, Velocity: 70
Note OFF: Time 150719, Note Name: F5
Note ON: Time 150720, Note Name: C6, Velocity: 89
Note OFF: Time 150839, Note Name: C6
Note ON: Time 150840, Note Name: C6, Velocity: 75
Note OFF: Time 150959, Note Name: C6
Note ON: Time 150960, Note Name: F6, Velocity: 73
Note OFF: Time 151079, Note Name: F6
Note ON: Time 151080, Note Name: C7, Velocity: 73
Note OFF: Time 151199, Note Name: C7
Note ON: Time 151200, Note Name: F6, Velocity: 82
Note OFF: Time 151319, Note Name: F6
Note ON: Time 151320, Note Name: C6, Velocity: 72
Note OFF: Time 151439, Note Name: C6
Note ON: Time 151440, Note Name: C6, Velocity: 72
Note OFF: Time 151559, Note Name: C6
Note ON: Time 151560, Note Name: F5, Velocity: 71
Note OFF: Time 151679, Note Name: F5
Note ON: Time 151680, Note Name: C5, Velocity: 81
Note OFF: Time 151799, Note Name: C5
Note ON: Time 151800, Note Name: C5, Velocity: 69
Note OFF: Time 151919, Note Name: C5
Note ON: Time 151920, Note Name: F4, Velocity: 69
Note OFF: Time 152039, Note Name: F4
Note ON: Time 152040, Note Name: C4, Velocity: 69
Note OFF: Time 152159, Note Name: C4
Note ON: Time 152160, Note Name: C4, Velocity: 106
Note ON: Time 152280, Note Name: F3, Velocity: 70
Note OFF: Time 152399, Note Name: F3
Note ON: Time 152400, Note Name: C3, Velocity: 70
Note OFF: Time 152519, Note Name: C3
Note ON: Time 152520, Note Name: F3, Velocity: 70
Note OFF: Time 152639, Note Name: F3
Note OFF: Time 152640, Note Name: C4
Note ON: Time 152640, Note Name: C3, Velocity: 105
Note OFF: Time 152759, Note Name: C3
Note ON: Time 152760, Note Name: F3, Velocity: 63
Note OFF: Time 152879, Note Name: F3
Note ON: Time 152880, Note Name: C4, Velocity: 82
Note ON: Time 153000, Note Name: F3, Velocity: 66
Note OFF: Time 153119, Note Name: F3
Note ON: Time 153120, Note Name: C3, Velocity: 104
Note OFF: Time 153239, Note Name: C3
Note ON: Time 153240, Note Name: F3, Velocity: 62
Note OFF: Time 153359, Note Name: F3
Note OFF: Time 153360, Note Name: C4
Note ON: Time 153360, Note Name: D4, Velocity: 75
Note ON: Time 153480, Note Name: F3, Velocity: 62
Note OFF: Time 153599, Note Name: F3
Note OFF: Time 153600, Note Name: D4
Note ON: Time 153600, Note Name: E3, Velocity: 83
Note OFF: Time 153719, Note Name: E3
Note ON: Time 153720, Note Name: G3, Velocity: 69
Note OFF: Time 153839, Note Name: G3
Note ON: Time 153840, Note Name: E4, Velocity: 69
Note OFF: Time 153959, Note Name: E4
Note ON: Time 153960, Note Name: G3, Velocity: 70
Note OFF: Time 154079, Note Name: G3
Note ON: Time 154080, Note Name: E3, Velocity: 84
Note OFF: Time 154199, Note Name: E3
Note ON: Time 154200, Note Name: G3, Velocity: 72
Note OFF: Time 154319, Note Name: G3
Note ON: Time 154320, Note Name: E4, Velocity: 73
Note OFF: Time 154439, Note Name: E4
Note ON: Time 154440, Note Name: G3, Velocity: 73
Note OFF: Time 154559, Note Name: G3
Note ON: Time 154560, Note Name: E3, Velocity: 88
Note OFF: Time 154679, Note Name: E3
Note ON: Time 154680, Note Name: G3, Velocity: 72
Note OFF: Time 154799, Note Name: G3
Note ON: Time 154800, Note Name: E4, Velocity: 73
Note OFF: Time 154919, Note Name: E4
Note ON: Time 154920, Note Name: G3, Velocity: 73
Note OFF: Time 155039, Note Name: G3
Note ON: Time 155040, Note Name: E3, Velocity: 86
Note OFF: Time 155159, Note Name: E3
Note ON: Time 155160, Note Name: G3, Velocity: 72
Note OFF: Time 155279, Note Name: G3
Note ON: Time 155280, Note Name: E4, Velocity: 73
Note OFF: Time 155399, Note Name: E4
Note ON: Time 155400, Note Name: G3, Velocity: 73
Note OFF: Time 155519, Note Name: G3
Note ON: Time 155520, Note Name: E3, Velocity: 95
Note OFF: Time 155639, Note Name: E3
Note ON: Time 155640, Note Name: G3, Velocity: 79
Note OFF: Time 155759, Note Name: G3
Note ON: Time 155760, Note Name: E4, Velocity: 79
Note OFF: Time 155879, Note Name: E4
Note ON: Time 155880, Note Name: G3, Velocity: 79
Note OFF: Time 155999, Note Name: G3
Note ON: Time 156000, Note Name: E3, Velocity: 94
Note OFF: Time 156119, Note Name: E3
Note ON: Time 156120, Note Name: G3, Velocity: 80
Note OFF: Time 156239, Note Name: G3
Note ON: Time 156240, Note Name: E4, Velocity: 80
Note OFF: Time 156359, Note Name: E4
Note ON: Time 156360, Note Name: G3, Velocity: 80
Note OFF: Time 156479, Note Name: G3
Note ON: Time 156480, Note Name: E3, Velocity: 94
Note OFF: Time 156599, Note Name: E3
Note ON: Time 156600, Note Name: G3, Velocity: 77
Note OFF: Time 156719, Note Name: G3
Note ON: Time 156720, Note Name: E4, Velocity: 77
Note OFF: Time 156839, Note Name: E4
Note ON: Time 156840, Note Name: G3, Velocity: 77
Note OFF: Time 156959, Note Name: G3
Note ON: Time 156960, Note Name: E3, Velocity: 90
Note OFF: Time 157079, Note Name: E3
Note ON: Time 157080, Note Name: G3, Velocity: 74
Note OFF: Time 157199, Note Name: G3
Note ON: Time 157200, Note Name: E4, Velocity: 74
Note OFF: Time 157319, Note Name: E4
Note ON: Time 157320, Note Name: G3, Velocity: 74
Note OFF: Time 157439, Note Name: G3
Note ON: Time 157440, Note Name: E3, Velocity: 111
Note OFF: Time 157920, Note Name: E3
Note ON: Time 158400, Note Name: C5, Velocity: 105
Note ON: Time 158400, Note Name: E4, Velocity: 94
Note ON: Time 158400, Note Name: G4, Velocity: 94
Note ON: Time 158400, Note Name: E5, Velocity: 111
Note OFF: Time 159360, Note Name: E5
Note OFF: Time 159360, Note Name: C5
Note OFF: Time 159360, Note Name: E4
Note OFF: Time 159360, Note Name: G4
Track 2: Piano left
Note ON: Time 0, Note Name: C2, Velocity: 61
Note OFF: Time 119, Note Name: C2
Note ON: Time 120, Note Name: G2, Velocity: 41
Note OFF: Time 239, Note Name: G2
Note ON: Time 240, Note Name: C3, Velocity: 41
Note OFF: Time 359, Note Name: C3
Note ON: Time 360, Note Name: C3, Velocity: 42
Note OFF: Time 479, Note Name: C3
Note ON: Time 480, Note Name: G3, Velocity: 53
Note OFF: Time 599, Note Name: G3
Note ON: Time 600, Note Name: C4, Velocity: 44
Note OFF: Time 719, Note Name: C4
Note ON: Time 720, Note Name: C4, Velocity: 42
Note OFF: Time 839, Note Name: C4
Note ON: Time 840, Note Name: G4, Velocity: 42
Note OFF: Time 959, Note Name: G4
Note ON: Time 960, Note Name: C5, Velocity: 51
Note OFF: Time 1079, Note Name: C5
Note ON: Time 1080, Note Name: G4, Velocity: 42
Note OFF: Time 1199, Note Name: G4
Note ON: Time 1200, Note Name: C4, Velocity: 42
Note OFF: Time 1319, Note Name: C4
Note ON: Time 1320, Note Name: C4, Velocity: 42
Note OFF: Time 1439, Note Name: C4
Note ON: Time 1440, Note Name: G3, Velocity: 50
Note OFF: Time 1559, Note Name: G3
Note ON: Time 1560, Note Name: C3, Velocity: 42
Note OFF: Time 1679, Note Name: C3
Note ON: Time 1680, Note Name: C3, Velocity: 42
Note OFF: Time 1799, Note Name: C3
Note ON: Time 1800, Note Name: G2, Velocity: 42
Note OFF: Time 1919, Note Name: G2
Note ON: Time 1920, Note Name: C2, Velocity: 59
Note OFF: Time 2039, Note Name: C2
Note ON: Time 2040, Note Name: F2, Velocity: 46
Note OFF: Time 2159, Note Name: F2
Note ON: Time 2160, Note Name: C3, Velocity: 40
Note OFF: Time 2279, Note Name: C3
Note ON: Time 2280, Note Name: C3, Velocity: 40
Note OFF: Time 2399, Note Name: C3
Note ON: Time 2400, Note Name: F3, Velocity: 57
Note OFF: Time 2519, Note Name: F3
Note ON: Time 2520, Note Name: C4, Velocity: 40
Note OFF: Time 2639, Note Name: C4
Note ON: Time 2640, Note Name: C4, Velocity: 40
Note OFF: Time 2759, Note Name: C4
Note ON: Time 2760, Note Name: F4, Velocity: 41
Note OFF: Time 2879, Note Name: F4
Note ON: Time 2880, Note Name: C5, Velocity: 56
Note OFF: Time 2999, Note Name: C5
Note ON: Time 3000, Note Name: F4, Velocity: 46
Note OFF: Time 3119, Note Name: F4
Note ON: Time 3120, Note Name: C4, Velocity: 46
Note OFF: Time 3239, Note Name: C4
Note ON: Time 3240, Note Name: C4, Velocity: 46
Note OFF: Time 3359, Note Name: C4
Note ON: Time 3360, Note Name: F3, Velocity: 53
Note OFF: Time 3479, Note Name: F3
Note ON: Time 3480, Note Name: C3, Velocity: 42
Note OFF: Time 3599, Note Name: C3
Note ON: Time 3600, Note Name: C3, Velocity: 42
Note OFF: Time 3719, Note Name: C3
Note ON: Time 3720, Note Name: F2, Velocity: 42
Note OFF: Time 3839, Note Name: F2
Note ON: Time 3840, Note Name: C2, Velocity: 64
Note OFF: Time 3959, Note Name: C2
Note ON: Time 3960, Note Name: G#2, Velocity: 48
Note OFF: Time 4079, Note Name: G#2
Note ON: Time 4080, Note Name: C3, Velocity: 48
Note OFF: Time 4199, Note Name: C3
Note ON: Time 4200, Note Name: C3, Velocity: 48
Note OFF: Time 4319, Note Name: C3
Note ON: Time 4320, Note Name: G#3, Velocity: 60
Note OFF: Time 4439, Note Name: G#3
Note ON: Time 4440, Note Name: C4, Velocity: 48
Note OFF: Time 4559, Note Name: C4
Note ON: Time 4560, Note Name: C4, Velocity: 48
Note OFF: Time 4679, Note Name: C4
Note ON: Time 4680, Note Name: G#4, Velocity: 48
Note OFF: Time 4799, Note Name: G#4
Note ON: Time 4800, Note Name: C5, Velocity: 59
Note OFF: Time 4919, Note Name: C5
Note ON: Time 4920, Note Name: G#4, Velocity: 48
Note OFF: Time 5039, Note Name: G#4
Note ON: Time 5040, Note Name: C4, Velocity: 49
Note OFF: Time 5159, Note Name: C4
Note ON: Time 5160, Note Name: C4, Velocity: 49
Note OFF: Time 5279, Note Name: C4
Note ON: Time 5280, Note Name: G#3, Velocity: 56
Note OFF: Time 5399, Note Name: G#3
Note ON: Time 5400, Note Name: C3, Velocity: 44
Note OFF: Time 5519, Note Name: C3
Note ON: Time 5520, Note Name: C3, Velocity: 44
Note OFF: Time 5639, Note Name: C3
Note ON: Time 5640, Note Name: G#2, Velocity: 44
Note OFF: Time 5759, Note Name: G#2
Note ON: Time 5760, Note Name: C2, Velocity: 73
Note OFF: Time 5879, Note Name: C2
Note ON: Time 5880, Note Name: G2, Velocity: 50
Note OFF: Time 5999, Note Name: G2
Note ON: Time 6000, Note Name: C3, Velocity: 50
Note OFF: Time 6119, Note Name: C3
Note ON: Time 6120, Note Name: C3, Velocity: 50
Note OFF: Time 6239, Note Name: C3
Note ON: Time 6240, Note Name: G3, Velocity: 63
Note OFF: Time 6359, Note Name: G3
Note ON: Time 6360, Note Name: C4, Velocity: 51
Note OFF: Time 6479, Note Name: C4
Note ON: Time 6480, Note Name: C4, Velocity: 50
Note OFF: Time 6599, Note Name: C4
Note ON: Time 6600, Note Name: G4, Velocity: 50
Note OFF: Time 6719, Note Name: G4
Note ON: Time 6720, Note Name: C5, Velocity: 62
Note OFF: Time 6839, Note Name: C5
Note ON: Time 6840, Note Name: G4, Velocity: 51
Note OFF: Time 6959, Note Name: G4
Note ON: Time 6960, Note Name: C4, Velocity: 51
Note OFF: Time 7079, Note Name: C4
Note ON: Time 7080, Note Name: C4, Velocity: 50
Note OFF: Time 7199, Note Name: C4
Note ON: Time 7200, Note Name: G3, Velocity: 58
Note OFF: Time 7319, Note Name: G3
Note ON: Time 7320, Note Name: C3, Velocity: 49
Note OFF: Time 7439, Note Name: C3
Note ON: Time 7440, Note Name: C3, Velocity: 49
Note OFF: Time 7559, Note Name: C3
Note ON: Time 7560, Note Name: G2, Velocity: 49
Note OFF: Time 7679, Note Name: G2
Note ON: Time 7680, Note Name: C2, Velocity: 66
Note OFF: Time 7799, Note Name: C2
Note ON: Time 7800, Note Name: F2, Velocity: 51
Note OFF: Time 7919, Note Name: F2
Note ON: Time 7920, Note Name: C3, Velocity: 45
Note OFF: Time 8039, Note Name: C3
Note ON: Time 8040, Note Name: C3, Velocity: 45
Note OFF: Time 8159, Note Name: C3
Note ON: Time 8160, Note Name: F3, Velocity: 61
Note OFF: Time 8279, Note Name: F3
Note ON: Time 8280, Note Name: C4, Velocity: 44
Note OFF: Time 8399, Note Name: C4
Note ON: Time 8400, Note Name: C4, Velocity: 44
Note OFF: Time 8519, Note Name: C4
Note ON: Time 8520, Note Name: F4, Velocity: 44
Note OFF: Time 8639, Note Name: F4
Note ON: Time 8640, Note Name: C5, Velocity: 60
Note OFF: Time 8759, Note Name: C5
Note ON: Time 8760, Note Name: F4, Velocity: 48
Note OFF: Time 8879, Note Name: F4
Note ON: Time 8880, Note Name: C4, Velocity: 48
Note OFF: Time 8999, Note Name: C4
Note ON: Time 9000, Note Name: C4, Velocity: 48
Note OFF: Time 9119, Note Name: C4
Note ON: Time 9120, Note Name: F3, Velocity: 53
Note OFF: Time 9239, Note Name: F3
Note ON: Time 9240, Note Name: C3, Velocity: 42
Note OFF: Time 9359, Note Name: C3
Note ON: Time 9360, Note Name: C3, Velocity: 42
Note OFF: Time 9479, Note Name: C3
Note ON: Time 9480, Note Name: F2, Velocity: 42
Note OFF: Time 9599, Note Name: F2
Note ON: Time 9600, Note Name: C2, Velocity: 64
Note OFF: Time 9719, Note Name: C2
Note ON: Time 9720, Note Name: F2, Velocity: 48
Note OFF: Time 9839, Note Name: F2
Note ON: Time 9840, Note Name: B2, Velocity: 48
Note OFF: Time 9959, Note Name: B2
Note ON: Time 9960, Note Name: C3, Velocity: 47
Note OFF: Time 10079, Note Name: C3
Note ON: Time 10080, Note Name: G#3, Velocity: 58
Note OFF: Time 10199, Note Name: G#3
Note ON: Time 10200, Note Name: B3, Velocity: 46
Note OFF: Time 10319, Note Name: B3
Note ON: Time 10320, Note Name: C4, Velocity: 46
Note OFF: Time 10439, Note Name: C4
Note ON: Time 10440, Note Name: F4, Velocity: 46
Note OFF: Time 10559, Note Name: F4
Note ON: Time 10560, Note Name: B4, Velocity: 55
Note OFF: Time 10679, Note Name: B4
Note ON: Time 10680, Note Name: F4, Velocity: 45
Note OFF: Time 10799, Note Name: F4
Note ON: Time 10800, Note Name: C4, Velocity: 45
Note OFF: Time 10919, Note Name: C4
Note ON: Time 10920, Note Name: B3, Velocity: 45
Note OFF: Time 11039, Note Name: B3
Note ON: Time 11040, Note Name: F3, Velocity: 50
Note OFF: Time 11159, Note Name: F3
Note ON: Time 11160, Note Name: C3, Velocity: 39
Note OFF: Time 11279, Note Name: C3
Note ON: Time 11280, Note Name: B2, Velocity: 39
Note OFF: Time 11399, Note Name: B2
Note ON: Time 11400, Note Name: F2, Velocity: 38
Note OFF: Time 11519, Note Name: F2
Note ON: Time 11520, Note Name: C2, Velocity: 60
Note OFF: Time 11639, Note Name: C2
Note ON: Time 11640, Note Name: G2, Velocity: 44
Note OFF: Time 11759, Note Name: G2
Note ON: Time 11760, Note Name: C3, Velocity: 44
Note OFF: Time 11879, Note Name: C3
Note ON: Time 11880, Note Name: C3, Velocity: 44
Note OFF: Time 11999, Note Name: C3
Note ON: Time 12000, Note Name: G3, Velocity: 50
Note OFF: Time 12119, Note Name: G3
Note ON: Time 12120, Note Name: C4, Velocity: 38
Note OFF: Time 12239, Note Name: C4
Note ON: Time 12240, Note Name: G3, Velocity: 38
Note OFF: Time 12359, Note Name: G3
Note ON: Time 12360, Note Name: C3, Velocity: 38
Note OFF: Time 12479, Note Name: C3
Note ON: Time 12480, Note Name: G3, Velocity: 47
Note OFF: Time 12599, Note Name: G3
Note ON: Time 12600, Note Name: C4, Velocity: 37
Note OFF: Time 12719, Note Name: C4
Note ON: Time 12720, Note Name: G3, Velocity: 37
Note OFF: Time 12839, Note Name: G3
Note ON: Time 12840, Note Name: C3, Velocity: 35
Note OFF: Time 12959, Note Name: C3
Note ON: Time 12960, Note Name: G3, Velocity: 41
Note OFF: Time 13079, Note Name: G3
Note ON: Time 13080, Note Name: C4, Velocity: 31
Note OFF: Time 13199, Note Name: C4
Note ON: Time 13200, Note Name: G3, Velocity: 31
Note OFF: Time 13319, Note Name: G3
Note ON: Time 13320, Note Name: C3, Velocity: 31
Note OFF: Time 13439, Note Name: C3
Note ON: Time 13440, Note Name: G3, Velocity: 44
Note OFF: Time 13559, Note Name: G3
Note ON: Time 13560, Note Name: B3, Velocity: 34
Note OFF: Time 13679, Note Name: B3
Note ON: Time 13680, Note Name: G3, Velocity: 33
Note OFF: Time 13799, Note Name: G3
Note ON: Time 13800, Note Name: C3, Velocity: 33
Note OFF: Time 13919, Note Name: C3
Note ON: Time 13920, Note Name: G3, Velocity: 39
Note OFF: Time 14039, Note Name: G3
Note ON: Time 14040, Note Name: A#3, Velocity: 31
Note OFF: Time 14159, Note Name: A#3
Note ON: Time 14160, Note Name: G3, Velocity: 31
Note OFF: Time 14279, Note Name: G3
Note ON: Time 14280, Note Name: C3, Velocity: 30
Note OFF: Time 14399, Note Name: C3
Note ON: Time 14400, Note Name: F3, Velocity: 35
Note OFF: Time 14519, Note Name: F3
Note ON: Time 14520, Note Name: A3, Velocity: 26
Note OFF: Time 14639, Note Name: A3
Note ON: Time 14640, Note Name: F3, Velocity: 26
Note OFF: Time 14759, Note Name: F3
Note ON: Time 14760, Note Name: C3, Velocity: 26
Note OFF: Time 14879, Note Name: C3
Note ON: Time 14880, Note Name: F3, Velocity: 34
Note OFF: Time 14999, Note Name: F3
Note ON: Time 15000, Note Name: G#3, Velocity: 25
Note OFF: Time 15119, Note Name: G#3
Note ON: Time 15120, Note Name: F3, Velocity: 25
Note OFF: Time 15239, Note Name: F3
Note ON: Time 15240, Note Name: C3, Velocity: 24
Note OFF: Time 15359, Note Name: C3
Note ON: Time 15360, Note Name: C2, Velocity: 64
Note OFF: Time 15479, Note Name: C2
Note ON: Time 15480, Note Name: G2, Velocity: 44
Note OFF: Time 15599, Note Name: G2
Note ON: Time 15600, Note Name: C3, Velocity: 44
Note OFF: Time 15719, Note Name: C3
Note ON: Time 15720, Note Name: C3, Velocity: 44
Note OFF: Time 15839, Note Name: C3
Note ON: Time 15840, Note Name: G3, Velocity: 56
Note OFF: Time 15959, Note Name: G3
Note ON: Time 15960, Note Name: C4, Velocity: 45
Note OFF: Time 16079, Note Name: C4
Note ON: Time 16080, Note Name: C4, Velocity: 44
Note OFF: Time 16199, Note Name: C4
Note ON: Time 16200, Note Name: G4, Velocity: 45
Note OFF: Time 16319, Note Name: G4
Note ON: Time 16320, Note Name: C5, Velocity: 53
Note OFF: Time 16439, Note Name: C5
Note ON: Time 16440, Note Name: G4, Velocity: 45
Note OFF: Time 16559, Note Name: G4
Note ON: Time 16560, Note Name: C4, Velocity: 45
Note OFF: Time 16679, Note Name: C4
Note ON: Time 16680, Note Name: C4, Velocity: 45
Note OFF: Time 16799, Note Name: C4
Note ON: Time 16800, Note Name: G3, Velocity: 51
Note OFF: Time 16919, Note Name: G3
Note ON: Time 16920, Note Name: C3, Velocity: 44
Note OFF: Time 17039, Note Name: C3
Note ON: Time 17040, Note Name: C3, Velocity: 44
Note OFF: Time 17159, Note Name: C3
Note ON: Time 17160, Note Name: G2, Velocity: 44
Note OFF: Time 17279, Note Name: G2
Note ON: Time 17280, Note Name: C2, Velocity: 60
Note OFF: Time 17399, Note Name: C2
Note ON: Time 17400, Note Name: F2, Velocity: 46
Note OFF: Time 17519, Note Name: F2
Note ON: Time 17520, Note Name: C3, Velocity: 40
Note OFF: Time 17639, Note Name: C3
Note ON: Time 17640, Note Name: C3, Velocity: 40
Note OFF: Time 17759, Note Name: C3
Note ON: Time 17760, Note Name: F3, Velocity: 57
Note OFF: Time 17879, Note Name: F3
Note ON: Time 17880, Note Name: C4, Velocity: 41
Note OFF: Time 17999, Note Name: C4
Note ON: Time 18000, Note Name: C4, Velocity: 41
Note OFF: Time 18119, Note Name: C4
Note ON: Time 18120, Note Name: F4, Velocity: 41
Note OFF: Time 18239, Note Name: F4
Note ON: Time 18240, Note Name: C5, Velocity: 56
Note OFF: Time 18359, Note Name: C5
Note ON: Time 18360, Note Name: F4, Velocity: 46
Note OFF: Time 18479, Note Name: F4
Note ON: Time 18480, Note Name: C4, Velocity: 46
Note OFF: Time 18599, Note Name: C4
Note ON: Time 18600, Note Name: C4, Velocity: 46
Note OFF: Time 18719, Note Name: C4
Note ON: Time 18720, Note Name: F3, Velocity: 52
Note OFF: Time 18839, Note Name: F3
Note ON: Time 18840, Note Name: C3, Velocity: 41
Note OFF: Time 18959, Note Name: C3
Note ON: Time 18960, Note Name: C3, Velocity: 41
Note OFF: Time 19079, Note Name: C3
Note ON: Time 19080, Note Name: F2, Velocity: 41
Note OFF: Time 19199, Note Name: F2
Note ON: Time 19200, Note Name: C2, Velocity: 63
Note OFF: Time 19319, Note Name: C2
Note ON: Time 19320, Note Name: G#2, Velocity: 47
Note OFF: Time 19439, Note Name: G#2
Note ON: Time 19440, Note Name: C3, Velocity: 47
Note OFF: Time 19559, Note Name: C3
Note ON: Time 19560, Note Name: C3, Velocity: 48
Note OFF: Time 19679, Note Name: C3
Note ON: Time 19680, Note Name: G#3, Velocity: 59
Note OFF: Time 19799, Note Name: G#3
Note ON: Time 19800, Note Name: C4, Velocity: 47
Note OFF: Time 19919, Note Name: C4
Note ON: Time 19920, Note Name: C4, Velocity: 47
Note OFF: Time 20039, Note Name: C4
Note ON: Time 20040, Note Name: G#4, Velocity: 47
Note OFF: Time 20159, Note Name: G#4
Note ON: Time 20160, Note Name: C5, Velocity: 57
Note OFF: Time 20279, Note Name: C5
Note ON: Time 20280, Note Name: G#4, Velocity: 47
Note OFF: Time 20399, Note Name: G#4
Note ON: Time 20400, Note Name: C4, Velocity: 47
Note OFF: Time 20519, Note Name: C4
Note ON: Time 20520, Note Name: C4, Velocity: 47
Note OFF: Time 20639, Note Name: C4
Note ON: Time 20640, Note Name: G#3, Velocity: 53
Note OFF: Time 20759, Note Name: G#3
Note ON: Time 20760, Note Name: C3, Velocity: 41
Note OFF: Time 20879, Note Name: C3
Note ON: Time 20880, Note Name: C3, Velocity: 41
Note OFF: Time 20999, Note Name: C3
Note ON: Time 21000, Note Name: G#2, Velocity: 41
Note OFF: Time 21119, Note Name: G#2
Note ON: Time 21120, Note Name: C2, Velocity: 69
Note OFF: Time 21239, Note Name: C2
Note ON: Time 21240, Note Name: G2, Velocity: 47
Note OFF: Time 21359, Note Name: G2
Note ON: Time 21360, Note Name: C3, Velocity: 47
Note OFF: Time 21479, Note Name: C3
Note ON: Time 21480, Note Name: C3, Velocity: 47
Note OFF: Time 21599, Note Name: C3
Note ON: Time 21600, Note Name: G3, Velocity: 60
Note OFF: Time 21719, Note Name: G3
Note ON: Time 21720, Note Name: C4, Velocity: 48
Note OFF: Time 21839, Note Name: C4
Note ON: Time 21840, Note Name: C4, Velocity: 47
Note OFF: Time 21959, Note Name: C4
Note ON: Time 21960, Note Name: G4, Velocity: 47
Note OFF: Time 22079, Note Name: G4
Note ON: Time 22080, Note Name: C5, Velocity: 58
Note OFF: Time 22199, Note Name: C5
Note ON: Time 22200, Note Name: G4, Velocity: 48
Note OFF: Time 22319, Note Name: G4
Note ON: Time 22320, Note Name: C4, Velocity: 48
Note OFF: Time 22439, Note Name: C4
Note ON: Time 22440, Note Name: C4, Velocity: 48
Note OFF: Time 22559, Note Name: C4
Note ON: Time 22560, Note Name: G3, Velocity: 55
Note OFF: Time 22679, Note Name: G3
Note ON: Time 22680, Note Name: C3, Velocity: 47
Note OFF: Time 22799, Note Name: C3
Note ON: Time 22800, Note Name: C3, Velocity: 47
Note OFF: Time 22919, Note Name: C3
Note ON: Time 22920, Note Name: G2, Velocity: 47
Note OFF: Time 23039, Note Name: G2
Note ON: Time 23040, Note Name: F2, Velocity: 71
Note OFF: Time 23159, Note Name: F2
Note ON: Time 23160, Note Name: C#3, Velocity: 53
Note OFF: Time 23279, Note Name: C#3
Note ON: Time 23280, Note Name: F3, Velocity: 47
Note OFF: Time 23399, Note Name: F3
Note ON: Time 23400, Note Name: F3, Velocity: 47
Note OFF: Time 23519, Note Name: F3
Note ON: Time 23520, Note Name: C#4, Velocity: 67
Note OFF: Time 23639, Note Name: C#4
Note ON: Time 23640, Note Name: F4, Velocity: 47
Note OFF: Time 23759, Note Name: F4
Note ON: Time 23760, Note Name: F4, Velocity: 48
Note OFF: Time 23879, Note Name: F4
Note ON: Time 23880, Note Name: C#5, Velocity: 48
Note OFF: Time 23999, Note Name: C#5
Note ON: Time 24000, Note Name: F5, Velocity: 66
Note OFF: Time 24119, Note Name: F5
Note ON: Time 24120, Note Name: C#5, Velocity: 53
Note OFF: Time 24239, Note Name: C#5
Note ON: Time 24240, Note Name: F4, Velocity: 53
Note OFF: Time 24359, Note Name: F4
Note ON: Time 24360, Note Name: F4, Velocity: 53
Note OFF: Time 24479, Note Name: F4
Note ON: Time 24480, Note Name: C#4, Velocity: 60
Note OFF: Time 24599, Note Name: C#4
Note ON: Time 24600, Note Name: F3, Velocity: 48
Note OFF: Time 24719, Note Name: F3
Note ON: Time 24720, Note Name: F3, Velocity: 48
Note OFF: Time 24839, Note Name: F3
Note ON: Time 24840, Note Name: C#3, Velocity: 48
Note OFF: Time 24959, Note Name: C#3
Note ON: Time 24960, Note Name: G2, Velocity: 76
Note OFF: Time 25079, Note Name: G2
Note ON: Time 25080, Note Name: D3, Velocity: 57
Note OFF: Time 25199, Note Name: D3
Note ON: Time 25200, Note Name: F3, Velocity: 57
Note OFF: Time 25319, Note Name: F3
Note ON: Time 25320, Note Name: G3, Velocity: 57
Note OFF: Time 25439, Note Name: G3
Note ON: Time 25440, Note Name: D4, Velocity: 71
Note OFF: Time 25559, Note Name: D4
Note ON: Time 25560, Note Name: F4, Velocity: 55
Note OFF: Time 25679, Note Name: F4
Note ON: Time 25680, Note Name: G4, Velocity: 55
Note OFF: Time 25799, Note Name: G4
Note ON: Time 25800, Note Name: B4, Velocity: 55
Note OFF: Time 25919, Note Name: B4
Note ON: Time 25920, Note Name: F5, Velocity: 69
Note OFF: Time 26039, Note Name: F5
Note ON: Time 26040, Note Name: B4, Velocity: 54
Note OFF: Time 26159, Note Name: B4
Note ON: Time 26160, Note Name: G4, Velocity: 54
Note OFF: Time 26279, Note Name: G4
Note ON: Time 26280, Note Name: F4, Velocity: 54
Note OFF: Time 26399, Note Name: F4
Note ON: Time 26400, Note Name: D4, Velocity: 64
Note OFF: Time 26519, Note Name: D4
Note ON: Time 26520, Note Name: G3, Velocity: 51
Note OFF: Time 26639, Note Name: G3
Note ON: Time 26640, Note Name: D3, Velocity: 51
Note OFF: Time 26759, Note Name: D3
Note ON: Time 26760, Note Name: G2, Velocity: 51
Note OFF: Time 26879, Note Name: G2
Note ON: Time 26880, Note Name: C2, Velocity: 80
Note OFF: Time 26999, Note Name: C2
Note ON: Time 27000, Note Name: G2, Velocity: 59
Note OFF: Time 27119, Note Name: G2
Note ON: Time 27120, Note Name: C3, Velocity: 59
Note OFF: Time 27239, Note Name: C3
Note ON: Time 27240, Note Name: C3, Velocity: 59
Note OFF: Time 27359, Note Name: C3
Note ON: Time 27360, Note Name: G3, Velocity: 72
Note OFF: Time 27479, Note Name: G3
Note ON: Time 27480, Note Name: C4, Velocity: 58
Note OFF: Time 27599, Note Name: C4
Note ON: Time 27600, Note Name: C4, Velocity: 58
Note OFF: Time 27719, Note Name: C4
Note ON: Time 27720, Note Name: G4, Velocity: 58
Note OFF: Time 27839, Note Name: G4
Note ON: Time 27840, Note Name: C5, Velocity: 70
Note OFF: Time 27959, Note Name: C5
Note ON: Time 27960, Note Name: C5, Velocity: 58
Note OFF: Time 28079, Note Name: C5
Note ON: Time 28080, Note Name: G5, Velocity: 58
Note OFF: Time 28199, Note Name: G5
Note ON: Time 28200, Note Name: C6, Velocity: 58
Note OFF: Time 28319, Note Name: C6
Note ON: Time 28320, Note Name: G5, Velocity: 66
Note OFF: Time 28439, Note Name: G5
Note ON: Time 28440, Note Name: C5, Velocity: 52
Note OFF: Time 28559, Note Name: C5
Note ON: Time 28560, Note Name: C5, Velocity: 52
Note OFF: Time 28679, Note Name: C5
Note ON: Time 28680, Note Name: G4, Velocity: 52
Note OFF: Time 28799, Note Name: G4
Note ON: Time 28800, Note Name: C4, Velocity: 70
Note OFF: Time 28919, Note Name: C4
Note ON: Time 28920, Note Name: C4, Velocity: 51
Note OFF: Time 29039, Note Name: C4
Note ON: Time 29040, Note Name: G3, Velocity: 51
Note OFF: Time 29159, Note Name: G3
Note ON: Time 29160, Note Name: C3, Velocity: 51
Note OFF: Time 29279, Note Name: C3
Note ON: Time 29280, Note Name: C3, Velocity: 63
Note OFF: Time 29399, Note Name: C3
Note ON: Time 29400, Note Name: G2, Velocity: 50
Note OFF: Time 29519, Note Name: G2
Note ON: Time 29520, Note Name: C2, Velocity: 50
Note OFF: Time 29639, Note Name: C2
Note ON: Time 29640, Note Name: G2, Velocity: 50
Note OFF: Time 29759, Note Name: G2
Note ON: Time 29760, Note Name: B2, Velocity: 78
Note OFF: Time 29879, Note Name: B2
Note ON: Time 29880, Note Name: G2, Velocity: 50
Note OFF: Time 29999, Note Name: G2
Note ON: Time 30000, Note Name: C2, Velocity: 50
Note OFF: Time 30119, Note Name: C2
Note ON: Time 30120, Note Name: G2, Velocity: 50
Note OFF: Time 30239, Note Name: G2
Note ON: Time 30240, Note Name: D3, Velocity: 79
Note OFF: Time 30359, Note Name: D3
Note ON: Time 30360, Note Name: G2, Velocity: 45
Note OFF: Time 30479, Note Name: G2
Note ON: Time 30480, Note Name: C2, Velocity: 45
Note OFF: Time 30599, Note Name: C2
Note ON: Time 30600, Note Name: G2, Velocity: 45
Note OFF: Time 30719, Note Name: G2
Note ON: Time 30720, Note Name: C2, Velocity: 77
Note OFF: Time 30839, Note Name: C2
Note ON: Time 30840, Note Name: G2, Velocity: 56
Note OFF: Time 30959, Note Name: G2
Note ON: Time 30960, Note Name: C3, Velocity: 56
Note OFF: Time 31079, Note Name: C3
Note ON: Time 31080, Note Name: C3, Velocity: 56
Note OFF: Time 31199, Note Name: C3
Note ON: Time 31200, Note Name: G3, Velocity: 69
Note OFF: Time 31319, Note Name: G3
Note ON: Time 31320, Note Name: C4, Velocity: 55
Note OFF: Time 31439, Note Name: C4
Note ON: Time 31440, Note Name: C4, Velocity: 55
Note OFF: Time 31559, Note Name: C4
Note ON: Time 31560, Note Name: G4, Velocity: 55
Note OFF: Time 31679, Note Name: G4
Note ON: Time 31680, Note Name: C5, Velocity: 66
Note OFF: Time 31799, Note Name: C5
Note ON: Time 31800, Note Name: C5, Velocity: 55
Note OFF: Time 31919, Note Name: C5
Note ON: Time 31920, Note Name: G5, Velocity: 55
Note OFF: Time 32039, Note Name: G5
Note ON: Time 32040, Note Name: C6, Velocity: 55
Note OFF: Time 32159, Note Name: C6
Note ON: Time 32160, Note Name: G5, Velocity: 61
Note OFF: Time 32279, Note Name: G5
Note ON: Time 32280, Note Name: C5, Velocity: 48
Note OFF: Time 32399, Note Name: C5
Note ON: Time 32400, Note Name: C5, Velocity: 48
Note OFF: Time 32519, Note Name: C5
Note ON: Time 32520, Note Name: G4, Velocity: 48
Note OFF: Time 32639, Note Name: G4
Note ON: Time 32640, Note Name: C4, Velocity: 68
Note OFF: Time 32759, Note Name: C4
Note ON: Time 32760, Note Name: C4, Velocity: 50
Note OFF: Time 32879, Note Name: C4
Note ON: Time 32880, Note Name: G3, Velocity: 50
Note OFF: Time 32999, Note Name: G3
Note ON: Time 33000, Note Name: C3, Velocity: 50
Note OFF: Time 33119, Note Name: C3
Note ON: Time 33120, Note Name: C3, Velocity: 61
Note OFF: Time 33239, Note Name: C3
Note ON: Time 33240, Note Name: G2, Velocity: 49
Note OFF: Time 33359, Note Name: G2
Note ON: Time 33360, Note Name: C2, Velocity: 49
Note OFF: Time 33479, Note Name: C2
Note ON: Time 33480, Note Name: G2, Velocity: 49
Note OFF: Time 33599, Note Name: G2
Note ON: Time 33600, Note Name: B2, Velocity: 64
Note OFF: Time 33719, Note Name: B2
Note ON: Time 33720, Note Name: G2, Velocity: 49
Note OFF: Time 33839, Note Name: G2
Note ON: Time 33840, Note Name: C2, Velocity: 49
Note OFF: Time 33959, Note Name: C2
Note ON: Time 33960, Note Name: G2, Velocity: 49
Note OFF: Time 34079, Note Name: G2
Note ON: Time 34080, Note Name: A2, Velocity: 62
Note OFF: Time 34199, Note Name: A2
Note ON: Time 34200, Note Name: G2, Velocity: 42
Note OFF: Time 34319, Note Name: G2
Note ON: Time 34320, Note Name: C2, Velocity: 42
Note OFF: Time 34439, Note Name: C2
Note ON: Time 34440, Note Name: G2, Velocity: 42
Note OFF: Time 34559, Note Name: G2
Note ON: Time 34560, Note Name: C2, Velocity: 73
Note OFF: Time 34679, Note Name: C2
Note ON: Time 34680, Note Name: G2, Velocity: 53
Note OFF: Time 34799, Note Name: G2
Note ON: Time 34800, Note Name: B2, Velocity: 53
Note OFF: Time 34919, Note Name: B2
Note ON: Time 34920, Note Name: B2, Velocity: 53
Note OFF: Time 35039, Note Name: B2
Note ON: Time 35040, Note Name: G3, Velocity: 67
Note OFF: Time 35159, Note Name: G3
Note ON: Time 35160, Note Name: B3, Velocity: 52
Note OFF: Time 35279, Note Name: B3
Note ON: Time 35280, Note Name: C4, Velocity: 52
Note OFF: Time 35399, Note Name: C4
Note ON: Time 35400, Note Name: G4, Velocity: 52
Note OFF: Time 35519, Note Name: G4
Note ON: Time 35520, Note Name: B4, Velocity: 63
Note OFF: Time 35639, Note Name: B4
Note ON: Time 35640, Note Name: C5, Velocity: 52
Note OFF: Time 35759, Note Name: C5
Note ON: Time 35760, Note Name: G5, Velocity: 52
Note OFF: Time 35879, Note Name: G5
Note ON: Time 35880, Note Name: B5, Velocity: 52
Note OFF: Time 35999, Note Name: B5
Note ON: Time 36000, Note Name: G5, Velocity: 59
Note OFF: Time 36119, Note Name: G5
Note ON: Time 36120, Note Name: C5, Velocity: 47
Note OFF: Time 36239, Note Name: C5
Note ON: Time 36240, Note Name: B4, Velocity: 47
Note OFF: Time 36359, Note Name: B4
Note ON: Time 36360, Note Name: G4, Velocity: 46
Note OFF: Time 36479, Note Name: G4
Note ON: Time 36480, Note Name: C4, Velocity: 66
Note OFF: Time 36599, Note Name: C4
Note ON: Time 36600, Note Name: B3, Velocity: 48
Note OFF: Time 36719, Note Name: B3
Note ON: Time 36720, Note Name: G3, Velocity: 48
Note OFF: Time 36839, Note Name: G3
Note ON: Time 36840, Note Name: C3, Velocity: 48
Note OFF: Time 36959, Note Name: C3
Note ON: Time 36960, Note Name: B2, Velocity: 52
Note OFF: Time 37079, Note Name: B2
Note ON: Time 37080, Note Name: G2, Velocity: 40
Note OFF: Time 37199, Note Name: G2
Note ON: Time 37200, Note Name: C2, Velocity: 40
Note OFF: Time 37319, Note Name: C2
Note ON: Time 37320, Note Name: G2, Velocity: 40
Note OFF: Time 37439, Note Name: G2
Note ON: Time 37440, Note Name: A2, Velocity: 56
Note OFF: Time 37559, Note Name: A2
Note ON: Time 37560, Note Name: F2, Velocity: 40
Note OFF: Time 37679, Note Name: F2
Note ON: Time 37680, Note Name: C2, Velocity: 40
Note OFF: Time 37799, Note Name: C2
Note ON: Time 37800, Note Name: F2, Velocity: 40
Note OFF: Time 37919, Note Name: F2
Note ON: Time 37920, Note Name: A2, Velocity: 53
Note OFF: Time 38039, Note Name: A2
Note ON: Time 38040, Note Name: F2, Velocity: 37
Note OFF: Time 38159, Note Name: F2
Note ON: Time 38160, Note Name: C2, Velocity: 37
Note OFF: Time 38279, Note Name: C2
Note ON: Time 38280, Note Name: F2, Velocity: 37
Note OFF: Time 38399, Note Name: F2
Note ON: Time 38400, Note Name: C2, Velocity: 58
Note OFF: Time 38519, Note Name: C2
Note ON: Time 38520, Note Name: G#2, Velocity: 41
Note OFF: Time 38639, Note Name: G#2
Note ON: Time 38640, Note Name: C3, Velocity: 41
Note OFF: Time 38759, Note Name: C3
Note ON: Time 38760, Note Name: C3, Velocity: 41
Note OFF: Time 38879, Note Name: C3
Note ON: Time 38880, Note Name: G#3, Velocity: 52
Note OFF: Time 38999, Note Name: G#3
Note ON: Time 39000, Note Name: C4, Velocity: 40
Note OFF: Time 39119, Note Name: C4
Note ON: Time 39120, Note Name: C4, Velocity: 40
Note OFF: Time 39239, Note Name: C4
Note ON: Time 39240, Note Name: G#4, Velocity: 40
Note OFF: Time 39359, Note Name: G#4
Note ON: Time 39360, Note Name: C5, Velocity: 51
Note OFF: Time 39479, Note Name: C5
Note ON: Time 39480, Note Name: G#4, Velocity: 40
Note OFF: Time 39599, Note Name: G#4
Note ON: Time 39600, Note Name: C4, Velocity: 40
Note OFF: Time 39719, Note Name: C4
Note ON: Time 39720, Note Name: C4, Velocity: 40
Note OFF: Time 39839, Note Name: C4
Note ON: Time 39840, Note Name: G#3, Velocity: 48
Note OFF: Time 39959, Note Name: G#3
Note ON: Time 39960, Note Name: C3, Velocity: 37
Note OFF: Time 40079, Note Name: C3
Note ON: Time 40080, Note Name: C3, Velocity: 37
Note OFF: Time 40199, Note Name: C3
Note ON: Time 40200, Note Name: G#2, Velocity: 37
Note OFF: Time 40319, Note Name: G#2
Note ON: Time 40320, Note Name: C2, Velocity: 58
Note OFF: Time 40439, Note Name: C2
Note ON: Time 40440, Note Name: G2, Velocity: 41
Note OFF: Time 40559, Note Name: G2
Note ON: Time 40560, Note Name: C3, Velocity: 41
Note OFF: Time 40679, Note Name: C3
Note ON: Time 40680, Note Name: C3, Velocity: 41
Note OFF: Time 40799, Note Name: C3
Note ON: Time 40800, Note Name: G3, Velocity: 52
Note OFF: Time 40919, Note Name: G3
Note ON: Time 40920, Note Name: C4, Velocity: 40
Note OFF: Time 41039, Note Name: C4
Note ON: Time 41040, Note Name: C4, Velocity: 40
Note OFF: Time 41159, Note Name: C4
Note ON: Time 41160, Note Name: G4, Velocity: 40
Note OFF: Time 41279, Note Name: G4
Note ON: Time 41280, Note Name: C5, Velocity: 51
Note OFF: Time 41399, Note Name: C5
Note ON: Time 41400, Note Name: G4, Velocity: 40
Note OFF: Time 41519, Note Name: G4
Note ON: Time 41520, Note Name: C4, Velocity: 40
Note OFF: Time 41639, Note Name: C4
Note ON: Time 41640, Note Name: C4, Velocity: 40
Note OFF: Time 41759, Note Name: C4
Note ON: Time 41760, Note Name: G3, Velocity: 48
Note OFF: Time 41879, Note Name: G3
Note ON: Time 41880, Note Name: C3, Velocity: 37
Note OFF: Time 41999, Note Name: C3
Note ON: Time 42000, Note Name: C3, Velocity: 37
Note OFF: Time 42119, Note Name: C3
Note ON: Time 42120, Note Name: G2, Velocity: 37
Note OFF: Time 42239, Note Name: G2
Note ON: Time 42240, Note Name: G#1, Velocity: 53
Note OFF: Time 42359, Note Name: G#1
Note ON: Time 42360, Note Name: D#2, Velocity: 38
Note OFF: Time 42479, Note Name: D#2
Note ON: Time 42480, Note Name: G#2, Velocity: 38
Note OFF: Time 42599, Note Name: G#2
Note ON: Time 42600, Note Name: G#2, Velocity: 38
Note OFF: Time 42719, Note Name: G#2
Note ON: Time 42720, Note Name: D#3, Velocity: 48
Note OFF: Time 42839, Note Name: D#3
Note ON: Time 42840, Note Name: G#3, Velocity: 37
Note OFF: Time 42959, Note Name: G#3
Note ON: Time 42960, Note Name: G#3, Velocity: 37
Note OFF: Time 43079, Note Name: G#3
Note ON: Time 43080, Note Name: D#4, Velocity: 37
Note OFF: Time 43199, Note Name: D#4
Note ON: Time 43200, Note Name: G#4, Velocity: 47
Note OFF: Time 43319, Note Name: G#4
Note ON: Time 43320, Note Name: G#4, Velocity: 37
Note OFF: Time 43439, Note Name: G#4
Note ON: Time 43440, Note Name: D#5, Velocity: 37
Note OFF: Time 43559, Note Name: D#5
Note ON: Time 43560, Note Name: G#5, Velocity: 37
Note OFF: Time 43679, Note Name: G#5
Note ON: Time 43680, Note Name: D#5, Velocity: 44
Note OFF: Time 43799, Note Name: D#5
Note ON: Time 43800, Note Name: G#4, Velocity: 34
Note OFF: Time 43919, Note Name: G#4
Note ON: Time 43920, Note Name: G#4, Velocity: 34
Note OFF: Time 44039, Note Name: G#4
Note ON: Time 44040, Note Name: D#4, Velocity: 34
Note OFF: Time 44159, Note Name: D#4
Note ON: Time 44160, Note Name: G#3, Velocity: 50
Note OFF: Time 44279, Note Name: G#3
Note ON: Time 44280, Note Name: G#3, Velocity: 38
Note OFF: Time 44399, Note Name: G#3
Note ON: Time 44400, Note Name: D#3, Velocity: 38
Note OFF: Time 44519, Note Name: D#3
Note ON: Time 44520, Note Name: G#2, Velocity: 38
Note OFF: Time 44639, Note Name: G#2
Note ON: Time 44640, Note Name: G#2, Velocity: 48
Note OFF: Time 44759, Note Name: G#2
Note ON: Time 44760, Note Name: D#2, Velocity: 37
Note OFF: Time 44879, Note Name: D#2
Note ON: Time 44880, Note Name: G#1, Velocity: 37
Note OFF: Time 44999, Note Name: G#1
Note ON: Time 45000, Note Name: D#2, Velocity: 37
Note OFF: Time 45119, Note Name: D#2
Note ON: Time 45120, Note Name: G2, Velocity: 47
Note OFF: Time 45239, Note Name: G2
Note ON: Time 45240, Note Name: D#2, Velocity: 37
Note OFF: Time 45359, Note Name: D#2
Note ON: Time 45360, Note Name: G#1, Velocity: 37
Note OFF: Time 45479, Note Name: G#1
Note ON: Time 45480, Note Name: D#2, Velocity: 37
Note OFF: Time 45599, Note Name: D#2
Note ON: Time 45600, Note Name: A#2, Velocity: 44
Note OFF: Time 45719, Note Name: A#2
Note ON: Time 45720, Note Name: D#2, Velocity: 34
Note OFF: Time 45839, Note Name: D#2
Note ON: Time 45840, Note Name: G#1, Velocity: 34
Note OFF: Time 45959, Note Name: G#1
Note ON: Time 45960, Note Name: D#2, Velocity: 34
Note OFF: Time 46079, Note Name: D#2
Note ON: Time 46080, Note Name: G#1, Velocity: 53
Note OFF: Time 46199, Note Name: G#1
Note ON: Time 46200, Note Name: D#2, Velocity: 38
Note OFF: Time 46319, Note Name: D#2
Note ON: Time 46320, Note Name: G#2, Velocity: 38
Note OFF: Time 46439, Note Name: G#2
Note ON: Time 46440, Note Name: G#2, Velocity: 38
Note OFF: Time 46559, Note Name: G#2
Note ON: Time 46560, Note Name: D#3, Velocity: 48
Note OFF: Time 46679, Note Name: D#3
Note ON: Time 46680, Note Name: G#3, Velocity: 37
Note OFF: Time 46799, Note Name: G#3
Note ON: Time 46800, Note Name: G#3, Velocity: 37
Note OFF: Time 46919, Note Name: G#3
Note ON: Time 46920, Note Name: D#4, Velocity: 37
Note OFF: Time 47039, Note Name: D#4
Note ON: Time 47040, Note Name: G#4, Velocity: 47
Note OFF: Time 47159, Note Name: G#4
Note ON: Time 47160, Note Name: G#4, Velocity: 37
Note OFF: Time 47279, Note Name: G#4
Note ON: Time 47280, Note Name: D#5, Velocity: 37
Note OFF: Time 47399, Note Name: D#5
Note ON: Time 47400, Note Name: G#5, Velocity: 37
Note OFF: Time 47519, Note Name: G#5
Note ON: Time 47520, Note Name: D#5, Velocity: 44
Note OFF: Time 47639, Note Name: D#5
Note ON: Time 47640, Note Name: G#4, Velocity: 34
Note OFF: Time 47759, Note Name: G#4
Note ON: Time 47760, Note Name: G#4, Velocity: 34
Note OFF: Time 47879, Note Name: G#4
Note ON: Time 47880, Note Name: D#4, Velocity: 34
Note OFF: Time 47999, Note Name: D#4
Note ON: Time 48000, Note Name: G#3, Velocity: 50
Note OFF: Time 48119, Note Name: G#3
Note ON: Time 48120, Note Name: G#3, Velocity: 38
Note OFF: Time 48239, Note Name: G#3
Note ON: Time 48240, Note Name: D#3, Velocity: 38
Note OFF: Time 48359, Note Name: D#3
Note ON: Time 48360, Note Name: G#2, Velocity: 38
Note OFF: Time 48479, Note Name: G#2
Note ON: Time 48480, Note Name: G#2, Velocity: 48
Note OFF: Time 48599, Note Name: G#2
Note ON: Time 48600, Note Name: D#2, Velocity: 37
Note OFF: Time 48719, Note Name: D#2
Note ON: Time 48720, Note Name: G#1, Velocity: 37
Note OFF: Time 48839, Note Name: G#1
Note ON: Time 48840, Note Name: D#2, Velocity: 37
Note OFF: Time 48959, Note Name: D#2
Note ON: Time 48960, Note Name: G2, Velocity: 47
Note OFF: Time 49079, Note Name: G2
Note ON: Time 49080, Note Name: D#2, Velocity: 37
Note OFF: Time 49199, Note Name: D#2
Note ON: Time 49200, Note Name: G#1, Velocity: 37
Note OFF: Time 49319, Note Name: G#1
Note ON: Time 49320, Note Name: D#2, Velocity: 37
Note OFF: Time 49439, Note Name: D#2
Note ON: Time 49440, Note Name: F2, Velocity: 44
Note OFF: Time 49559, Note Name: F2
Note ON: Time 49560, Note Name: D#2, Velocity: 34
Note OFF: Time 49679, Note Name: D#2
Note ON: Time 49680, Note Name: G#1, Velocity: 34
Note OFF: Time 49799, Note Name: G#1
Note ON: Time 49800, Note Name: D#2, Velocity: 34
Note OFF: Time 49919, Note Name: D#2
Note ON: Time 49920, Note Name: G#1, Velocity: 53
Note OFF: Time 50039, Note Name: G#1
Note ON: Time 50040, Note Name: D#2, Velocity: 38
Note OFF: Time 50159, Note Name: D#2
Note ON: Time 50160, Note Name: G2, Velocity: 38
Note OFF: Time 50279, Note Name: G2
Note ON: Time 50280, Note Name: G#2, Velocity: 38
Note OFF: Time 50399, Note Name: G#2
Note ON: Time 50400, Note Name: D#3, Velocity: 48
Note OFF: Time 50519, Note Name: D#3
Note ON: Time 50520, Note Name: G3, Velocity: 37
Note OFF: Time 50639, Note Name: G3
Note ON: Time 50640, Note Name: G#3, Velocity: 37
Note OFF: Time 50759, Note Name: G#3
Note ON: Time 50760, Note Name: D#4, Velocity: 37
Note OFF: Time 50879, Note Name: D#4
Note ON: Time 50880, Note Name: G4, Velocity: 47
Note OFF: Time 50999, Note Name: G4
Note ON: Time 51000, Note Name: G#4, Velocity: 37
Note OFF: Time 51119, Note Name: G#4
Note ON: Time 51120, Note Name: D#5, Velocity: 37
Note OFF: Time 51239, Note Name: D#5
Note ON: Time 51240, Note Name: G5, Velocity: 37
Note OFF: Time 51359, Note Name: G5
Note ON: Time 51360, Note Name: D#5, Velocity: 44
Note OFF: Time 51479, Note Name: D#5
Note ON: Time 51480, Note Name: G#4, Velocity: 34
Note OFF: Time 51599, Note Name: G#4
Note ON: Time 51600, Note Name: G4, Velocity: 34
Note OFF: Time 51719, Note Name: G4
Note ON: Time 51720, Note Name: D#4, Velocity: 34
Note OFF: Time 51839, Note Name: D#4
Note ON: Time 51840, Note Name: G#3, Velocity: 50
Note OFF: Time 51959, Note Name: G#3
Note ON: Time 51960, Note Name: G3, Velocity: 38
Note OFF: Time 52079, Note Name: G3
Note ON: Time 52080, Note Name: D#3, Velocity: 38
Note OFF: Time 52199, Note Name: D#3
Note ON: Time 52200, Note Name: G#2, Velocity: 38
Note OFF: Time 52319, Note Name: G#2
Note ON: Time 52320, Note Name: G2, Velocity: 45
Note OFF: Time 52439, Note Name: G2
Note ON: Time 52440, Note Name: D#2, Velocity: 35
Note OFF: Time 52559, Note Name: D#2
Note ON: Time 52560, Note Name: G#1, Velocity: 35
Note OFF: Time 52679, Note Name: G#1
Note ON: Time 52680, Note Name: D#2, Velocity: 35
Note OFF: Time 52799, Note Name: D#2
Note ON: Time 52800, Note Name: F2, Velocity: 44
Note OFF: Time 52919, Note Name: F2
Note ON: Time 52920, Note Name: C#2, Velocity: 35
Note OFF: Time 53039, Note Name: C#2
Note ON: Time 53040, Note Name: G#1, Velocity: 35
Note OFF: Time 53159, Note Name: G#1
Note ON: Time 53160, Note Name: C#2, Velocity: 35
Note OFF: Time 53279, Note Name: C#2
Note ON: Time 53280, Note Name: F2, Velocity: 41
Note OFF: Time 53399, Note Name: F2
Note ON: Time 53400, Note Name: C#2, Velocity: 31
Note OFF: Time 53519, Note Name: C#2
Note ON: Time 53520, Note Name: G#1, Velocity: 31
Note OFF: Time 53639, Note Name: G#1
Note ON: Time 53640, Note Name: C#2, Velocity: 31
Note OFF: Time 53759, Note Name: C#2
Note ON: Time 53760, Note Name: G#1, Velocity: 50
Note OFF: Time 53879, Note Name: G#1
Note ON: Time 53880, Note Name: E2, Velocity: 36
Note OFF: Time 53999, Note Name: E2
Note ON: Time 54000, Note Name: G#2, Velocity: 36
Note OFF: Time 54119, Note Name: G#2
Note ON: Time 54120, Note Name: G#2, Velocity: 35
Note OFF: Time 54239, Note Name: G#2
Note ON: Time 54240, Note Name: E3, Velocity: 45
Note OFF: Time 54359, Note Name: E3
Note ON: Time 54360, Note Name: G#3, Velocity: 34
Note OFF: Time 54479, Note Name: G#3
Note ON: Time 54480, Note Name: G#3, Velocity: 34
Note OFF: Time 54599, Note Name: G#3
Note ON: Time 54600, Note Name: E4, Velocity: 33
Note OFF: Time 54719, Note Name: E4
Note ON: Time 54720, Note Name: G#4, Velocity: 42
Note OFF: Time 54839, Note Name: G#4
Note ON: Time 54840, Note Name: E4, Velocity: 33
Note OFF: Time 54959, Note Name: E4
Note ON: Time 54960, Note Name: G#3, Velocity: 33
Note OFF: Time 55079, Note Name: G#3
Note ON: Time 55080, Note Name: G#3, Velocity: 33
Note OFF: Time 55199, Note Name: G#3
Note ON: Time 55200, Note Name: E3, Velocity: 39
Note OFF: Time 55319, Note Name: E3
Note ON: Time 55320, Note Name: G#2, Velocity: 30
Note OFF: Time 55439, Note Name: G#2
Note ON: Time 55440, Note Name: G#2, Velocity: 30
Note OFF: Time 55559, Note Name: G#2
Note ON: Time 55560, Note Name: E2, Velocity: 29
Note OFF: Time 55679, Note Name: E2
Note ON: Time 55680, Note Name: G#1, Velocity: 44
Note OFF: Time 55799, Note Name: G#1
Note ON: Time 55800, Note Name: D#2, Velocity: 33
Note OFF: Time 55919, Note Name: D#2
Note ON: Time 55920, Note Name: G#2, Velocity: 31
Note OFF: Time 56039, Note Name: G#2
Note ON: Time 56040, Note Name: G#2, Velocity: 31
Note OFF: Time 56159, Note Name: G#2
Note ON: Time 56160, Note Name: D#3, Velocity: 38
Note OFF: Time 56279, Note Name: D#3
Note ON: Time 56280, Note Name: G#3, Velocity: 29
Note OFF: Time 56399, Note Name: G#3
Note ON: Time 56400, Note Name: D#3, Velocity: 29
Note OFF: Time 56519, Note Name: D#3
Note ON: Time 56520, Note Name: G#2, Velocity: 29
Note OFF: Time 56639, Note Name: G#2
Note ON: Time 56640, Note Name: G#1, Velocity: 42
Note OFF: Time 56759, Note Name: G#1
Note ON: Time 56760, Note Name: D2, Velocity: 29
Note OFF: Time 56879, Note Name: D2
Note ON: Time 56880, Note Name: G#2, Velocity: 28
Note OFF: Time 56999, Note Name: G#2
Note ON: Time 57000, Note Name: G#2, Velocity: 28
Note OFF: Time 57119, Note Name: G#2
Note ON: Time 57120, Note Name: D3, Velocity: 33
Note OFF: Time 57239, Note Name: D3
Note ON: Time 57240, Note Name: G#3, Velocity: 25
Note OFF: Time 57359, Note Name: G#3
Note ON: Time 57360, Note Name: D3, Velocity: 25
Note OFF: Time 57479, Note Name: D3
Note ON: Time 57480, Note Name: G#2, Velocity: 25
Note OFF: Time 57599, Note Name: G#2
Note ON: Time 57600, Note Name: G1, Velocity: 42
Note OFF: Time 57719, Note Name: G1
Note ON: Time 57720, Note Name: D2, Velocity: 30
Note OFF: Time 57839, Note Name: D2
Note ON: Time 57840, Note Name: G2, Velocity: 30
Note OFF: Time 57959, Note Name: G2
Note ON: Time 57960, Note Name: G2, Velocity: 30
Note OFF: Time 58079, Note Name: G2
Note ON: Time 58080, Note Name: D3, Velocity: 36
Note OFF: Time 58199, Note Name: D3
Note ON: Time 58200, Note Name: G3, Velocity: 29
Note OFF: Time 58319, Note Name: G3
Note ON: Time 58320, Note Name: G3, Velocity: 29
Note OFF: Time 58439, Note Name: G3
Note ON: Time 58440, Note Name: D4, Velocity: 29
Note OFF: Time 58559, Note Name: D4
Note ON: Time 58560, Note Name: G4, Velocity: 41
Note OFF: Time 58679, Note Name: G4
Note ON: Time 58680, Note Name: D4, Velocity: 29
Note OFF: Time 58799, Note Name: D4
Note ON: Time 58800, Note Name: G3, Velocity: 30
Note OFF: Time 58919, Note Name: G3
Note ON: Time 58920, Note Name: G3, Velocity: 30
Note OFF: Time 59039, Note Name: G3
Note ON: Time 59040, Note Name: D3, Velocity: 36
Note OFF: Time 59159, Note Name: D3
Note ON: Time 59160, Note Name: G2, Velocity: 28
Note OFF: Time 59279, Note Name: G2
Note ON: Time 59280, Note Name: G2, Velocity: 28
Note OFF: Time 59399, Note Name: G2
Note ON: Time 59400, Note Name: D2, Velocity: 28
Note OFF: Time 59519, Note Name: D2
Note ON: Time 59520, Note Name: G1, Velocity: 46
Note OFF: Time 59639, Note Name: G1
Note ON: Time 59640, Note Name: D#2, Velocity: 31
Note OFF: Time 59759, Note Name: D#2
Note ON: Time 59760, Note Name: G2, Velocity: 31
Note OFF: Time 59879, Note Name: G2
Note ON: Time 59880, Note Name: G2, Velocity: 31
Note OFF: Time 59999, Note Name: G2
Note ON: Time 60000, Note Name: D#3, Velocity: 39
Note OFF: Time 60119, Note Name: D#3
Note ON: Time 60120, Note Name: G3, Velocity: 33
Note OFF: Time 60239, Note Name: G3
Note ON: Time 60240, Note Name: G3, Velocity: 33
Note OFF: Time 60359, Note Name: G3
Note ON: Time 60360, Note Name: D#4, Velocity: 33
Note OFF: Time 60479, Note Name: D#4
Note ON: Time 60480, Note Name: G4, Velocity: 45
Note OFF: Time 60599, Note Name: G4
Note ON: Time 60600, Note Name: D#4, Velocity: 33
Note OFF: Time 60719, Note Name: D#4
Note ON: Time 60720, Note Name: G3, Velocity: 33
Note OFF: Time 60839, Note Name: G3
Note ON: Time 60840, Note Name: G3, Velocity: 33
Note OFF: Time 60959, Note Name: G3
Note ON: Time 60960, Note Name: D#3, Velocity: 39
Note OFF: Time 61079, Note Name: D#3
Note ON: Time 61080, Note Name: G2, Velocity: 31
Note OFF: Time 61199, Note Name: G2
Note ON: Time 61200, Note Name: G2, Velocity: 31
Note OFF: Time 61319, Note Name: G2
Note ON: Time 61320, Note Name: D#2, Velocity: 31
Note OFF: Time 61439, Note Name: D#2
Note ON: Time 61440, Note Name: G1, Velocity: 50
Note OFF: Time 61559, Note Name: G1
Note ON: Time 61560, Note Name: D2, Velocity: 36
Note OFF: Time 61679, Note Name: D2
Note ON: Time 61680, Note Name: G#2, Velocity: 36
Note OFF: Time 61799, Note Name: G#2
Note ON: Time 61800, Note Name: G#2, Velocity: 36
Note OFF: Time 61919, Note Name: G#2
Note ON: Time 61920, Note Name: D3, Velocity: 42
Note OFF: Time 62039, Note Name: D3
Note ON: Time 62040, Note Name: G#3, Velocity: 34
Note OFF: Time 62159, Note Name: G#3
Note ON: Time 62160, Note Name: G#3, Velocity: 34
Note OFF: Time 62279, Note Name: G#3
Note ON: Time 62280, Note Name: D4, Velocity: 34
Note OFF: Time 62399, Note Name: D4
Note ON: Time 62400, Note Name: G#4, Velocity: 46
Note OFF: Time 62519, Note Name: G#4
Note ON: Time 62520, Note Name: D4, Velocity: 34
Note OFF: Time 62639, Note Name: D4
Note ON: Time 62640, Note Name: G#3, Velocity: 34
Note OFF: Time 62759, Note Name: G#3
Note ON: Time 62760, Note Name: G#3, Velocity: 34
Note OFF: Time 62879, Note Name: G#3
Note ON: Time 62880, Note Name: D3, Velocity: 39
Note OFF: Time 62999, Note Name: D3
Note ON: Time 63000, Note Name: G#2, Velocity: 31
Note OFF: Time 63119, Note Name: G#2
Note ON: Time 63120, Note Name: G#2, Velocity: 31
Note OFF: Time 63239, Note Name: G#2
Note ON: Time 63240, Note Name: D2, Velocity: 31
Note OFF: Time 63359, Note Name: D2
Note ON: Time 63360, Note Name: G1, Velocity: 49
Note OFF: Time 63479, Note Name: G1
Note ON: Time 63480, Note Name: D2, Velocity: 34
Note OFF: Time 63599, Note Name: D2
Note ON: Time 63600, Note Name: G2, Velocity: 34
Note OFF: Time 63719, Note Name: G2
Note ON: Time 63720, Note Name: G2, Velocity: 34
Note OFF: Time 63839, Note Name: G2
Note ON: Time 63840, Note Name: D3, Velocity: 42
Note OFF: Time 63959, Note Name: D3
Note ON: Time 63960, Note Name: G3, Velocity: 34
Note OFF: Time 64079, Note Name: G3
Note ON: Time 64080, Note Name: G3, Velocity: 34
Note OFF: Time 64199, Note Name: G3
Note ON: Time 64200, Note Name: D4, Velocity: 33
Note OFF: Time 64319, Note Name: D4
Note ON: Time 64320, Note Name: G4, Velocity: 45
Note OFF: Time 64439, Note Name: G4
Note ON: Time 64440, Note Name: D4, Velocity: 33
Note OFF: Time 64559, Note Name: D4
Note ON: Time 64560, Note Name: G3, Velocity: 33
Note OFF: Time 64679, Note Name: G3
Note ON: Time 64680, Note Name: G3, Velocity: 33
Note OFF: Time 64799, Note Name: G3
Note ON: Time 64800, Note Name: D3, Velocity: 39
Note OFF: Time 64919, Note Name: D3
Note ON: Time 64920, Note Name: G2, Velocity: 30
Note OFF: Time 65039, Note Name: G2
Note ON: Time 65040, Note Name: G2, Velocity: 30
Note OFF: Time 65159, Note Name: G2
Note ON: Time 65160, Note Name: D2, Velocity: 30
Note OFF: Time 65279, Note Name: D2
Note ON: Time 65280, Note Name: G1, Velocity: 48
Note OFF: Time 65399, Note Name: G1
Note ON: Time 65400, Note Name: D2, Velocity: 34
Note OFF: Time 65519, Note Name: D2
Note ON: Time 65520, Note Name: G2, Velocity: 34
Note OFF: Time 65639, Note Name: G2
Note ON: Time 65640, Note Name: G2, Velocity: 34
Note OFF: Time 65759, Note Name: G2
Note ON: Time 65760, Note Name: D3, Velocity: 41
Note OFF: Time 65879, Note Name: D3
Note ON: Time 65880, Note Name: G3, Velocity: 33
Note OFF: Time 65999, Note Name: G3
Note ON: Time 66000, Note Name: G3, Velocity: 33
Note OFF: Time 66119, Note Name: G3
Note ON: Time 66120, Note Name: D4, Velocity: 33
Note OFF: Time 66239, Note Name: D4
Note ON: Time 66240, Note Name: G4, Velocity: 46
Note OFF: Time 66359, Note Name: G4
Note ON: Time 66360, Note Name: D4, Velocity: 33
Note OFF: Time 66479, Note Name: D4
Note ON: Time 66480, Note Name: G3, Velocity: 33
Note OFF: Time 66599, Note Name: G3
Note ON: Time 66600, Note Name: G3, Velocity: 33
Note OFF: Time 66719, Note Name: G3
Note ON: Time 66720, Note Name: D3, Velocity: 39
Note OFF: Time 66839, Note Name: D3
Note ON: Time 66840, Note Name: G2, Velocity: 31
Note OFF: Time 66959, Note Name: G2
Note ON: Time 66960, Note Name: G2, Velocity: 31
Note OFF: Time 67079, Note Name: G2
Note ON: Time 67080, Note Name: D2, Velocity: 31
Note OFF: Time 67199, Note Name: D2
Note ON: Time 67200, Note Name: G#1, Velocity: 51
Note OFF: Time 67319, Note Name: G#1
Note ON: Time 67320, Note Name: F2, Velocity: 36
Note OFF: Time 67439, Note Name: F2
Note ON: Time 67440, Note Name: G#2, Velocity: 36
Note OFF: Time 67559, Note Name: G#2
Note ON: Time 67560, Note Name: G#2, Velocity: 36
Note OFF: Time 67679, Note Name: G#2
Note ON: Time 67680, Note Name: F3, Velocity: 46
Note OFF: Time 67799, Note Name: F3
Note ON: Time 67800, Note Name: G#3, Velocity: 36
Note OFF: Time 67919, Note Name: G#3
Note ON: Time 67920, Note Name: G#3, Velocity: 36
Note OFF: Time 68039, Note Name: G#3
Note ON: Time 68040, Note Name: F4, Velocity: 36
Note OFF: Time 68159, Note Name: F4
Note ON: Time 68160, Note Name: G#4, Velocity: 49
Note OFF: Time 68279, Note Name: G#4
Note ON: Time 68280, Note Name: F4, Velocity: 36
Note OFF: Time 68399, Note Name: F4
Note ON: Time 68400, Note Name: G#3, Velocity: 36
Note OFF: Time 68519, Note Name: G#3
Note ON: Time 68520, Note Name: G#3, Velocity: 36
Note OFF: Time 68639, Note Name: G#3
Note ON: Time 68640, Note Name: F3, Velocity: 45
Note OFF: Time 68759, Note Name: F3
Note ON: Time 68760, Note Name: G#2, Velocity: 34
Note OFF: Time 68879, Note Name: G#2
Note ON: Time 68880, Note Name: G#2, Velocity: 34
Note OFF: Time 68999, Note Name: G#2
Note ON: Time 69000, Note Name: F2, Velocity: 34
Note OFF: Time 69119, Note Name: F2
Note ON: Time 69120, Note Name: A1, Velocity: 56
Note OFF: Time 69239, Note Name: A1
Note ON: Time 69240, Note Name: F#2, Velocity: 39
Note OFF: Time 69359, Note Name: F#2
Note ON: Time 69360, Note Name: A2, Velocity: 39
Note OFF: Time 69479, Note Name: A2
Note ON: Time 69480, Note Name: A2, Velocity: 39
Note OFF: Time 69599, Note Name: A2
Note ON: Time 69600, Note Name: F#3, Velocity: 48
Note OFF: Time 69719, Note Name: F#3
Note ON: Time 69720, Note Name: A3, Velocity: 38
Note OFF: Time 69839, Note Name: A3
Note ON: Time 69840, Note Name: A3, Velocity: 38
Note OFF: Time 69959, Note Name: A3
Note ON: Time 69960, Note Name: F#4, Velocity: 39
Note OFF: Time 70079, Note Name: F#4
Note ON: Time 70080, Note Name: A4, Velocity: 52
Note OFF: Time 70199, Note Name: A4
Note ON: Time 70200, Note Name: F#4, Velocity: 39
Note OFF: Time 70319, Note Name: F#4
Note ON: Time 70320, Note Name: A3, Velocity: 39
Note OFF: Time 70439, Note Name: A3
Note ON: Time 70440, Note Name: A3, Velocity: 39
Note OFF: Time 70559, Note Name: A3
Note ON: Time 70560, Note Name: F#3, Velocity: 47
Note OFF: Time 70679, Note Name: F#3
Note ON: Time 70680, Note Name: A2, Velocity: 37
Note OFF: Time 70799, Note Name: A2
Note ON: Time 70800, Note Name: A2, Velocity: 37
Note OFF: Time 70919, Note Name: A2
Note ON: Time 70920, Note Name: F#2, Velocity: 37
Note OFF: Time 71039, Note Name: F#2
Note ON: Time 71040, Note Name: A#1, Velocity: 59
Note OFF: Time 71159, Note Name: A#1
Note ON: Time 71160, Note Name: G2, Velocity: 41
Note OFF: Time 71279, Note Name: G2
Note ON: Time 71280, Note Name: A#2, Velocity: 41
Note OFF: Time 71399, Note Name: A#2
Note ON: Time 71400, Note Name: A#2, Velocity: 41
Note OFF: Time 71519, Note Name: A#2
Note ON: Time 71520, Note Name: G3, Velocity: 51
Note OFF: Time 71639, Note Name: G3
Note ON: Time 71640, Note Name: A#3, Velocity: 42
Note OFF: Time 71759, Note Name: A#3
Note ON: Time 71760, Note Name: A#3, Velocity: 42
Note OFF: Time 71879, Note Name: A#3
Note ON: Time 71880, Note Name: G4, Velocity: 42
Note OFF: Time 71999, Note Name: G4
Note ON: Time 72000, Note Name: A#4, Velocity: 56
Note OFF: Time 72119, Note Name: A#4
Note ON: Time 72120, Note Name: G4, Velocity: 42
Note OFF: Time 72239, Note Name: G4
Note ON: Time 72240, Note Name: A#3, Velocity: 42
Note OFF: Time 72359, Note Name: A#3
Note ON: Time 72360, Note Name: A#3, Velocity: 42
Note OFF: Time 72479, Note Name: A#3
Note ON: Time 72480, Note Name: G3, Velocity: 50
Note OFF: Time 72599, Note Name: G3
Note ON: Time 72600, Note Name: A#2, Velocity: 38
Note OFF: Time 72719, Note Name: A#2
Note ON: Time 72720, Note Name: A#2, Velocity: 38
Note OFF: Time 72839, Note Name: A#2
Note ON: Time 72840, Note Name: G2, Velocity: 38
Note OFF: Time 72959, Note Name: G2
Note ON: Time 72960, Note Name: B1, Velocity: 62
Note OFF: Time 73079, Note Name: B1
Note ON: Time 73080, Note Name: F2, Velocity: 45
Note OFF: Time 73199, Note Name: F2
Note ON: Time 73200, Note Name: B2, Velocity: 45
Note OFF: Time 73319, Note Name: B2
Note ON: Time 73320, Note Name: B2, Velocity: 45
Note OFF: Time 73439, Note Name: B2
Note ON: Time 73440, Note Name: F3, Velocity: 55
Note OFF: Time 73559, Note Name: F3
Note ON: Time 73560, Note Name: B3, Velocity: 44
Note OFF: Time 73679, Note Name: B3
Note ON: Time 73680, Note Name: B3, Velocity: 44
Note OFF: Time 73799, Note Name: B3
Note ON: Time 73800, Note Name: F4, Velocity: 45
Note OFF: Time 73919, Note Name: F4
Note ON: Time 73920, Note Name: B4, Velocity: 59
Note OFF: Time 74039, Note Name: B4
Note ON: Time 74040, Note Name: F4, Velocity: 45
Note OFF: Time 74159, Note Name: F4
Note ON: Time 74160, Note Name: B3, Velocity: 45
Note OFF: Time 74279, Note Name: B3
Note ON: Time 74280, Note Name: B3, Velocity: 45
Note OFF: Time 74399, Note Name: B3
Note ON: Time 74400, Note Name: F3, Velocity: 52
Note OFF: Time 74519, Note Name: F3
Note ON: Time 74520, Note Name: B2, Velocity: 40
Note OFF: Time 74639, Note Name: B2
Note ON: Time 74640, Note Name: B2, Velocity: 40
Note OFF: Time 74759, Note Name: B2
Note ON: Time 74760, Note Name: F2, Velocity: 40
Note OFF: Time 74879, Note Name: F2
Note ON: Time 74880, Note Name: C2, Velocity: 67
Note OFF: Time 74999, Note Name: C2
Note ON: Time 75000, Note Name: F2, Velocity: 46
Note OFF: Time 75119, Note Name: F2
Note ON: Time 75120, Note Name: C3, Velocity: 46
Note OFF: Time 75239, Note Name: C3
Note ON: Time 75240, Note Name: C3, Velocity: 46
Note OFF: Time 75359, Note Name: C3
Note ON: Time 75360, Note Name: F3, Velocity: 57
Note OFF: Time 75479, Note Name: F3
Note ON: Time 75480, Note Name: C4, Velocity: 48
Note OFF: Time 75599, Note Name: C4
Note ON: Time 75600, Note Name: C4, Velocity: 48
Note OFF: Time 75719, Note Name: C4
Note ON: Time 75720, Note Name: F4, Velocity: 48
Note OFF: Time 75839, Note Name: F4
Note ON: Time 75840, Note Name: C5, Velocity: 62
Note OFF: Time 75959, Note Name: C5
Note ON: Time 75960, Note Name: F4, Velocity: 48
Note OFF: Time 76079, Note Name: F4
Note ON: Time 76080, Note Name: C4, Velocity: 48
Note OFF: Time 76199, Note Name: C4
Note ON: Time 76200, Note Name: C4, Velocity: 48
Note OFF: Time 76319, Note Name: C4
Note ON: Time 76320, Note Name: F3, Velocity: 56
Note OFF: Time 76439, Note Name: F3
Note ON: Time 76440, Note Name: C3, Velocity: 42
Note OFF: Time 76559, Note Name: C3
Note ON: Time 76560, Note Name: C3, Velocity: 42
Note OFF: Time 76679, Note Name: C3
Note ON: Time 76680, Note Name: F2, Velocity: 42
Note OFF: Time 76799, Note Name: F2
Note ON: Time 76800, Note Name: D#2, Velocity: 71
Note OFF: Time 76919, Note Name: D#2
Note ON: Time 76920, Note Name: G#2, Velocity: 51
Note OFF: Time 77039, Note Name: G#2
Note ON: Time 77040, Note Name: D#3, Velocity: 51
Note OFF: Time 77159, Note Name: D#3
Note ON: Time 77160, Note Name: D#3, Velocity: 51
Note OFF: Time 77279, Note Name: D#3
Note ON: Time 77280, Note Name: G#3, Velocity: 61
Note OFF: Time 77399, Note Name: G#3
Note ON: Time 77400, Note Name: D#4, Velocity: 49
Note OFF: Time 77519, Note Name: D#4
Note ON: Time 77520, Note Name: D#4, Velocity: 49
Note OFF: Time 77639, Note Name: D#4
Note ON: Time 77640, Note Name: G#4, Velocity: 50
Note OFF: Time 77759, Note Name: G#4
Note ON: Time 77760, Note Name: D#5, Velocity: 67
Note OFF: Time 77879, Note Name: D#5
Note ON: Time 77880, Note Name: G#4, Velocity: 50
Note OFF: Time 77999, Note Name: G#4
Note ON: Time 78000, Note Name: D#4, Velocity: 50
Note OFF: Time 78119, Note Name: D#4
Note ON: Time 78120, Note Name: D#4, Velocity: 50
Note OFF: Time 78239, Note Name: D#4
Note ON: Time 78240, Note Name: G#3, Velocity: 59
Note OFF: Time 78359, Note Name: G#3
Note ON: Time 78360, Note Name: D#3, Velocity: 47
Note OFF: Time 78479, Note Name: D#3
Note ON: Time 78480, Note Name: D#3, Velocity: 47
Note OFF: Time 78599, Note Name: D#3
Note ON: Time 78600, Note Name: G#2, Velocity: 47
Note OFF: Time 78719, Note Name: G#2
Note ON: Time 78720, Note Name: D2, Velocity: 71
Note OFF: Time 78839, Note Name: D2
Note ON: Time 78840, Note Name: G#2, Velocity: 51
Note OFF: Time 78959, Note Name: G#2
Note ON: Time 78960, Note Name: D3, Velocity: 51
Note OFF: Time 79079, Note Name: D3
Note ON: Time 79080, Note Name: D3, Velocity: 51
Note OFF: Time 79199, Note Name: D3
Note ON: Time 79200, Note Name: G#3, Velocity: 63
Note OFF: Time 79319, Note Name: G#3
Note ON: Time 79320, Note Name: D4, Velocity: 52
Note OFF: Time 79439, Note Name: D4
Note ON: Time 79440, Note Name: D4, Velocity: 52
Note OFF: Time 79559, Note Name: D4
Note ON: Time 79560, Note Name: G#4, Velocity: 52
Note OFF: Time 79679, Note Name: G#4
Note ON: Time 79680, Note Name: D5, Velocity: 71
Note OFF: Time 79799, Note Name: D5
Note ON: Time 79800, Note Name: G#4, Velocity: 52
Note OFF: Time 79919, Note Name: G#4
Note ON: Time 79920, Note Name: D4, Velocity: 52
Note OFF: Time 80039, Note Name: D4
Note ON: Time 80040, Note Name: D4, Velocity: 52
Note OFF: Time 80159, Note Name: D4
Note ON: Time 80160, Note Name: G#3, Velocity: 63
Note OFF: Time 80279, Note Name: G#3
Note ON: Time 80280, Note Name: D3, Velocity: 49
Note OFF: Time 80399, Note Name: D3
Note ON: Time 80400, Note Name: D3, Velocity: 49
Note OFF: Time 80519, Note Name: D3
Note ON: Time 80520, Note Name: G#2, Velocity: 49
Note OFF: Time 80639, Note Name: G#2
Note ON: Time 80640, Note Name: G2, Velocity: 77
Note OFF: Time 80759, Note Name: G2
Note ON: Time 80760, Note Name: D3, Velocity: 53
Note OFF: Time 80879, Note Name: D3
Note ON: Time 80880, Note Name: F3, Velocity: 53
Note OFF: Time 80999, Note Name: F3
Note ON: Time 81000, Note Name: G3, Velocity: 53
Note OFF: Time 81119, Note Name: G3
Note ON: Time 81120, Note Name: D4, Velocity: 64
Note OFF: Time 81239, Note Name: D4
Note ON: Time 81240, Note Name: F4, Velocity: 50
Note OFF: Time 81359, Note Name: F4
Note ON: Time 81360, Note Name: G4, Velocity: 51
Note OFF: Time 81479, Note Name: G4
Note ON: Time 81480, Note Name: D5, Velocity: 51
Note OFF: Time 81599, Note Name: D5
Note ON: Time 81600, Note Name: F5, Velocity: 73
Note OFF: Time 81719, Note Name: F5
Note ON: Time 81720, Note Name: D5, Velocity: 53
Note OFF: Time 81839, Note Name: D5
Note ON: Time 81840, Note Name: G4, Velocity: 53
Note OFF: Time 81959, Note Name: G4
Note ON: Time 81960, Note Name: F4, Velocity: 53
Note OFF: Time 82079, Note Name: F4
Note ON: Time 82080, Note Name: D4, Velocity: 63
Note OFF: Time 82199, Note Name: D4
Note ON: Time 82200, Note Name: G3, Velocity: 50
Note OFF: Time 82319, Note Name: G3
Note ON: Time 82320, Note Name: F3, Velocity: 50
Note OFF: Time 82439, Note Name: F3
Note ON: Time 82440, Note Name: D3, Velocity: 50
Note OFF: Time 82559, Note Name: D3
Note ON: Time 82560, Note Name: G2, Velocity: 77
Note OFF: Time 82679, Note Name: G2
Note ON: Time 82680, Note Name: D3, Velocity: 53
Note OFF: Time 82799, Note Name: D3
Note ON: Time 82800, Note Name: F3, Velocity: 53
Note OFF: Time 82919, Note Name: F3
Note ON: Time 82920, Note Name: G3, Velocity: 53
Note OFF: Time 83039, Note Name: G3
Note ON: Time 83040, Note Name: D4, Velocity: 64
Note OFF: Time 83159, Note Name: D4
Note ON: Time 83160, Note Name: F4, Velocity: 50
Note OFF: Time 83279, Note Name: F4
Note ON: Time 83280, Note Name: G4, Velocity: 51
Note OFF: Time 83399, Note Name: G4
Note ON: Time 83400, Note Name: D5, Velocity: 51
Note OFF: Time 83519, Note Name: D5
Note ON: Time 83520, Note Name: F5, Velocity: 73
Note OFF: Time 83639, Note Name: F5
Note ON: Time 83640, Note Name: D5, Velocity: 53
Note OFF: Time 83759, Note Name: D5
Note ON: Time 83760, Note Name: G4, Velocity: 53
Note OFF: Time 83879, Note Name: G4
Note ON: Time 83880, Note Name: F4, Velocity: 53
Note OFF: Time 83999, Note Name: F4
Note ON: Time 84000, Note Name: D4, Velocity: 63
Note OFF: Time 84119, Note Name: D4
Note ON: Time 84120, Note Name: G3, Velocity: 50
Note OFF: Time 84239, Note Name: G3
Note ON: Time 84240, Note Name: F3, Velocity: 50
Note OFF: Time 84359, Note Name: F3
Note ON: Time 84360, Note Name: D3, Velocity: 50
Note OFF: Time 84479, Note Name: D3
Note ON: Time 84480, Note Name: G1, Velocity: 74
Note OFF: Time 84599, Note Name: G1
Note ON: Time 84600, Note Name: D2, Velocity: 44
Note OFF: Time 84719, Note Name: D2
Note ON: Time 84720, Note Name: G2, Velocity: 44
Note OFF: Time 84839, Note Name: G2
Note ON: Time 84840, Note Name: G2, Velocity: 44
Note OFF: Time 84959, Note Name: G2
Note ON: Time 84960, Note Name: D3, Velocity: 58
Note OFF: Time 85079, Note Name: D3
Note ON: Time 85080, Note Name: G3, Velocity: 40
Note OFF: Time 85199, Note Name: G3
Note ON: Time 85200, Note Name: D3, Velocity: 40
Note OFF: Time 85319, Note Name: D3
Note ON: Time 85320, Note Name: G2, Velocity: 41
Note OFF: Time 85439, Note Name: G2
Note ON: Time 85440, Note Name: G#1, Velocity: 63
Note OFF: Time 85559, Note Name: G#1
Note ON: Time 85560, Note Name: C2, Velocity: 44
Note OFF: Time 85679, Note Name: C2
Note ON: Time 85680, Note Name: G#2, Velocity: 44
Note OFF: Time 85799, Note Name: G#2
Note ON: Time 85800, Note Name: G#2, Velocity: 44
Note OFF: Time 85919, Note Name: G#2
Note ON: Time 85920, Note Name: C3, Velocity: 58
Note OFF: Time 86039, Note Name: C3
Note ON: Time 86040, Note Name: G#3, Velocity: 41
Note OFF: Time 86159, Note Name: G#3
Note ON: Time 86160, Note Name: C3, Velocity: 41
Note OFF: Time 86279, Note Name: C3
Note ON: Time 86280, Note Name: G#2, Velocity: 41
Note OFF: Time 86399, Note Name: G#2
Note ON: Time 86400, Note Name: A1, Velocity: 71
Note OFF: Time 86519, Note Name: A1
Note ON: Time 86520, Note Name: C#2, Velocity: 43
Note OFF: Time 86639, Note Name: C#2
Note ON: Time 86640, Note Name: A2, Velocity: 44
Note OFF: Time 86759, Note Name: A2
Note ON: Time 86760, Note Name: A2, Velocity: 45
Note OFF: Time 86879, Note Name: A2
Note ON: Time 86880, Note Name: C#3, Velocity: 61
Note OFF: Time 86999, Note Name: C#3
Note ON: Time 87000, Note Name: A3, Velocity: 46
Note OFF: Time 87119, Note Name: A3
Note ON: Time 87120, Note Name: C#3, Velocity: 47
Note OFF: Time 87239, Note Name: C#3
Note ON: Time 87240, Note Name: A2, Velocity: 48
Note OFF: Time 87359, Note Name: A2
Note ON: Time 87360, Note Name: A#1, Velocity: 70
Note OFF: Time 87479, Note Name: A#1
Note ON: Time 87480, Note Name: C#2, Velocity: 50
Note OFF: Time 87599, Note Name: C#2
Note ON: Time 87600, Note Name: A#2, Velocity: 51
Note OFF: Time 87719, Note Name: A#2
Note ON: Time 87720, Note Name: C#2, Velocity: 50
Note OFF: Time 87839, Note Name: C#2
Note ON: Time 87840, Note Name: B1, Velocity: 69
Note OFF: Time 87959, Note Name: B1
Note ON: Time 87960, Note Name: D2, Velocity: 50
Note OFF: Time 88079, Note Name: D2
Note ON: Time 88080, Note Name: B2, Velocity: 50
Note OFF: Time 88199, Note Name: B2
Note ON: Time 88200, Note Name: D2, Velocity: 51
Note OFF: Time 88319, Note Name: D2
Note ON: Time 88320, Note Name: C2, Velocity: 82
Note OFF: Time 88439, Note Name: C2
Note ON: Time 88440, Note Name: G2, Velocity: 56
Note OFF: Time 88559, Note Name: G2
Note ON: Time 88560, Note Name: C3, Velocity: 56
Note OFF: Time 88679, Note Name: C3
Note ON: Time 88680, Note Name: C3, Velocity: 56
Note OFF: Time 88799, Note Name: C3
Note ON: Time 88800, Note Name: G3, Velocity: 70
Note OFF: Time 88919, Note Name: G3
Note ON: Time 88920, Note Name: C4, Velocity: 57
Note OFF: Time 89039, Note Name: C4
Note ON: Time 89040, Note Name: C4, Velocity: 56
Note OFF: Time 89159, Note Name: C4
Note ON: Time 89160, Note Name: G4, Velocity: 56
Note OFF: Time 89279, Note Name: G4
Note ON: Time 89280, Note Name: C5, Velocity: 67
Note OFF: Time 89399, Note Name: C5
Note ON: Time 89400, Note Name: G4, Velocity: 56
Note OFF: Time 89519, Note Name: G4
Note ON: Time 89520, Note Name: C4, Velocity: 56
Note OFF: Time 89639, Note Name: C4
Note ON: Time 89640, Note Name: C4, Velocity: 56
Note OFF: Time 89759, Note Name: C4
Note ON: Time 89760, Note Name: G3, Velocity: 63
Note OFF: Time 89879, Note Name: G3
Note ON: Time 89880, Note Name: C3, Velocity: 55
Note OFF: Time 89999, Note Name: C3
Note ON: Time 90000, Note Name: C3, Velocity: 55
Note OFF: Time 90119, Note Name: C3
Note ON: Time 90120, Note Name: G2, Velocity: 55
Note OFF: Time 90239, Note Name: G2
Note ON: Time 90240, Note Name: C2, Velocity: 75
Note OFF: Time 90359, Note Name: C2
Note ON: Time 90360, Note Name: F2, Velocity: 57
Note OFF: Time 90479, Note Name: F2
Note ON: Time 90480, Note Name: C3, Velocity: 51
Note OFF: Time 90599, Note Name: C3
Note ON: Time 90600, Note Name: C3, Velocity: 51
Note OFF: Time 90719, Note Name: C3
Note ON: Time 90720, Note Name: F3, Velocity: 70
Note OFF: Time 90839, Note Name: F3
Note ON: Time 90840, Note Name: C4, Velocity: 51
Note OFF: Time 90959, Note Name: C4
Note ON: Time 90960, Note Name: C4, Velocity: 51
Note OFF: Time 91079, Note Name: C4
Note ON: Time 91080, Note Name: F4, Velocity: 51
Note OFF: Time 91199, Note Name: F4
Note ON: Time 91200, Note Name: C5, Velocity: 69
Note OFF: Time 91319, Note Name: C5
Note ON: Time 91320, Note Name: F4, Velocity: 56
Note OFF: Time 91439, Note Name: F4
Note ON: Time 91440, Note Name: C4, Velocity: 56
Note OFF: Time 91559, Note Name: C4
Note ON: Time 91560, Note Name: C4, Velocity: 56
Note OFF: Time 91679, Note Name: C4
Note ON: Time 91680, Note Name: F3, Velocity: 63
Note OFF: Time 91799, Note Name: F3
Note ON: Time 91800, Note Name: C3, Velocity: 51
Note OFF: Time 91919, Note Name: C3
Note ON: Time 91920, Note Name: C3, Velocity: 51
Note OFF: Time 92039, Note Name: C3
Note ON: Time 92040, Note Name: F2, Velocity: 51
Note OFF: Time 92159, Note Name: F2
Note ON: Time 92160, Note Name: C2, Velocity: 78
Note OFF: Time 92279, Note Name: C2
Note ON: Time 92280, Note Name: G#2, Velocity: 57
Note OFF: Time 92399, Note Name: G#2
Note ON: Time 92400, Note Name: C3, Velocity: 57
Note OFF: Time 92519, Note Name: C3
Note ON: Time 92520, Note Name: C3, Velocity: 57
Note OFF: Time 92639, Note Name: C3
Note ON: Time 92640, Note Name: G#3, Velocity: 70
Note OFF: Time 92759, Note Name: G#3
Note ON: Time 92760, Note Name: C4, Velocity: 56
Note OFF: Time 92879, Note Name: C4
Note ON: Time 92880, Note Name: C4, Velocity: 56
Note OFF: Time 92999, Note Name: C4
Note ON: Time 93000, Note Name: G#4, Velocity: 56
Note OFF: Time 93119, Note Name: G#4
Note ON: Time 93120, Note Name: C5, Velocity: 67
Note OFF: Time 93239, Note Name: C5
Note ON: Time 93240, Note Name: G#4, Velocity: 56
Note OFF: Time 93359, Note Name: G#4
Note ON: Time 93360, Note Name: C4, Velocity: 56
Note OFF: Time 93479, Note Name: C4
Note ON: Time 93480, Note Name: C4, Velocity: 56
Note OFF: Time 93599, Note Name: C4
Note ON: Time 93600, Note Name: G#3, Velocity: 63
Note OFF: Time 93719, Note Name: G#3
Note ON: Time 93720, Note Name: C3, Velocity: 50
Note OFF: Time 93839, Note Name: C3
Note ON: Time 93840, Note Name: C3, Velocity: 50
Note OFF: Time 93959, Note Name: C3
Note ON: Time 93960, Note Name: G#2, Velocity: 50
Note OFF: Time 94079, Note Name: G#2
Note ON: Time 94080, Note Name: C2, Velocity: 82
Note OFF: Time 94199, Note Name: C2
Note ON: Time 94200, Note Name: G2, Velocity: 56
Note OFF: Time 94319, Note Name: G2
Note ON: Time 94320, Note Name: C3, Velocity: 56
Note OFF: Time 94439, Note Name: C3
Note ON: Time 94440, Note Name: C3, Velocity: 56
Note OFF: Time 94559, Note Name: C3
Note ON: Time 94560, Note Name: G3, Velocity: 70
Note OFF: Time 94679, Note Name: G3
Note ON: Time 94680, Note Name: C4, Velocity: 57
Note OFF: Time 94799, Note Name: C4
Note ON: Time 94800, Note Name: C4, Velocity: 56
Note OFF: Time 94919, Note Name: C4
Note ON: Time 94920, Note Name: G4, Velocity: 56
Note OFF: Time 95039, Note Name: G4
Note ON: Time 95040, Note Name: C5, Velocity: 67
Note OFF: Time 95159, Note Name: C5
Note ON: Time 95160, Note Name: G4, Velocity: 56
Note OFF: Time 95279, Note Name: G4
Note ON: Time 95280, Note Name: C4, Velocity: 56
Note OFF: Time 95399, Note Name: C4
Note ON: Time 95400, Note Name: C4, Velocity: 56
Note OFF: Time 95519, Note Name: C4
Note ON: Time 95520, Note Name: G3, Velocity: 63
Note OFF: Time 95639, Note Name: G3
Note ON: Time 95640, Note Name: C3, Velocity: 55
Note OFF: Time 95759, Note Name: C3
Note ON: Time 95760, Note Name: C3, Velocity: 55
Note OFF: Time 95879, Note Name: C3
Note ON: Time 95880, Note Name: G2, Velocity: 55
Note OFF: Time 95999, Note Name: G2
Note ON: Time 96000, Note Name: C2, Velocity: 75
Note OFF: Time 96119, Note Name: C2
Note ON: Time 96120, Note Name: F2, Velocity: 57
Note OFF: Time 96239, Note Name: F2
Note ON: Time 96240, Note Name: C3, Velocity: 51
Note OFF: Time 96359, Note Name: C3
Note ON: Time 96360, Note Name: C3, Velocity: 51
Note OFF: Time 96479, Note Name: C3
Note ON: Time 96480, Note Name: F3, Velocity: 70
Note OFF: Time 96599, Note Name: F3
Note ON: Time 96600, Note Name: C4, Velocity: 51
Note OFF: Time 96719, Note Name: C4
Note ON: Time 96720, Note Name: C4, Velocity: 51
Note OFF: Time 96839, Note Name: C4
Note ON: Time 96840, Note Name: F4, Velocity: 51
Note OFF: Time 96959, Note Name: F4
Note ON: Time 96960, Note Name: C5, Velocity: 69
Note OFF: Time 97079, Note Name: C5
Note ON: Time 97080, Note Name: F4, Velocity: 56
Note OFF: Time 97199, Note Name: F4
Note ON: Time 97200, Note Name: C4, Velocity: 56
Note OFF: Time 97319, Note Name: C4
Note ON: Time 97320, Note Name: C4, Velocity: 56
Note OFF: Time 97439, Note Name: C4
Note ON: Time 97440, Note Name: F3, Velocity: 63
Note OFF: Time 97559, Note Name: F3
Note ON: Time 97560, Note Name: C3, Velocity: 51
Note OFF: Time 97679, Note Name: C3
Note ON: Time 97680, Note Name: C3, Velocity: 51
Note OFF: Time 97799, Note Name: C3
Note ON: Time 97800, Note Name: F2, Velocity: 51
Note OFF: Time 97919, Note Name: F2
Note ON: Time 97920, Note Name: C2, Velocity: 78
Note OFF: Time 98039, Note Name: C2
Note ON: Time 98040, Note Name: F2, Velocity: 57
Note OFF: Time 98159, Note Name: F2
Note ON: Time 98160, Note Name: B2, Velocity: 57
Note OFF: Time 98279, Note Name: B2
Note ON: Time 98280, Note Name: C3, Velocity: 57
Note OFF: Time 98399, Note Name: C3
Note ON: Time 98400, Note Name: G#3, Velocity: 70
Note OFF: Time 98519, Note Name: G#3
Note ON: Time 98520, Note Name: B3, Velocity: 56
Note OFF: Time 98639, Note Name: B3
Note ON: Time 98640, Note Name: C4, Velocity: 56
Note OFF: Time 98759, Note Name: C4
Note ON: Time 98760, Note Name: F4, Velocity: 56
Note OFF: Time 98879, Note Name: F4
Note ON: Time 98880, Note Name: B4, Velocity: 67
Note OFF: Time 98999, Note Name: B4
Note ON: Time 99000, Note Name: F4, Velocity: 56
Note OFF: Time 99119, Note Name: F4
Note ON: Time 99120, Note Name: C4, Velocity: 56
Note OFF: Time 99239, Note Name: C4
Note ON: Time 99240, Note Name: B3, Velocity: 56
Note OFF: Time 99359, Note Name: B3
Note ON: Time 99360, Note Name: F3, Velocity: 63
Note OFF: Time 99479, Note Name: F3
Note ON: Time 99480, Note Name: C3, Velocity: 50
Note OFF: Time 99599, Note Name: C3
Note ON: Time 99600, Note Name: B2, Velocity: 50
Note OFF: Time 99719, Note Name: B2
Note ON: Time 99720, Note Name: F2, Velocity: 50
Note OFF: Time 99839, Note Name: F2
Note ON: Time 99840, Note Name: C2, Velocity: 78
Note OFF: Time 99959, Note Name: C2
Note ON: Time 99960, Note Name: G2, Velocity: 57
Note OFF: Time 100079, Note Name: G2
Note ON: Time 100080, Note Name: C3, Velocity: 57
Note OFF: Time 100199, Note Name: C3
Note ON: Time 100200, Note Name: C3, Velocity: 57
Note OFF: Time 100319, Note Name: C3
Note ON: Time 100320, Note Name: G3, Velocity: 66
Note OFF: Time 100439, Note Name: G3
Note ON: Time 100440, Note Name: C4, Velocity: 51
Note OFF: Time 100559, Note Name: C4
Note ON: Time 100560, Note Name: G3, Velocity: 51
Note OFF: Time 100679, Note Name: G3
Note ON: Time 100680, Note Name: C3, Velocity: 50
Note OFF: Time 100799, Note Name: C3
Note ON: Time 100800, Note Name: G3, Velocity: 61
Note OFF: Time 100919, Note Name: G3
Note ON: Time 100920, Note Name: C4, Velocity: 49
Note OFF: Time 101039, Note Name: C4
Note ON: Time 101040, Note Name: G3, Velocity: 49
Note OFF: Time 101159, Note Name: G3
Note ON: Time 101160, Note Name: C3, Velocity: 48
Note OFF: Time 101279, Note Name: C3
Note ON: Time 101280, Note Name: G3, Velocity: 55
Note OFF: Time 101399, Note Name: G3
Note ON: Time 101400, Note Name: C4, Velocity: 41
Note OFF: Time 101519, Note Name: C4
Note ON: Time 101520, Note Name: G3, Velocity: 41
Note OFF: Time 101639, Note Name: G3
Note ON: Time 101640, Note Name: C3, Velocity: 41
Note OFF: Time 101759, Note Name: C3
Note ON: Time 101760, Note Name: G3, Velocity: 58
Note OFF: Time 101879, Note Name: G3
Note ON: Time 101880, Note Name: B3, Velocity: 47
Note OFF: Time 101999, Note Name: B3
Note ON: Time 102000, Note Name: G3, Velocity: 46
Note OFF: Time 102119, Note Name: G3
Note ON: Time 102120, Note Name: C3, Velocity: 46
Note OFF: Time 102239, Note Name: C3
Note ON: Time 102240, Note Name: G3, Velocity: 53
Note OFF: Time 102359, Note Name: G3
Note ON: Time 102360, Note Name: A#3, Velocity: 44
Note OFF: Time 102479, Note Name: A#3
Note ON: Time 102480, Note Name: G3, Velocity: 44
Note OFF: Time 102599, Note Name: G3
Note ON: Time 102600, Note Name: C3, Velocity: 41
Note OFF: Time 102719, Note Name: C3
Note ON: Time 102720, Note Name: F3, Velocity: 49
Note OFF: Time 102839, Note Name: F3
Note ON: Time 102840, Note Name: A3, Velocity: 37
Note OFF: Time 102959, Note Name: A3
Note ON: Time 102960, Note Name: F3, Velocity: 37
Note OFF: Time 103079, Note Name: F3
Note ON: Time 103080, Note Name: C3, Velocity: 37
Note OFF: Time 103199, Note Name: C3
Note ON: Time 103200, Note Name: F3, Velocity: 48
Note OFF: Time 103319, Note Name: F3
Note ON: Time 103320, Note Name: G#3, Velocity: 36
Note OFF: Time 103439, Note Name: G#3
Note ON: Time 103440, Note Name: F3, Velocity: 36
Note OFF: Time 103559, Note Name: F3
Note ON: Time 103560, Note Name: C3, Velocity: 35
Note OFF: Time 103679, Note Name: C3
Note ON: Time 103680, Note Name: C2, Velocity: 62
Note OFF: Time 103799, Note Name: C2
Note ON: Time 103800, Note Name: G2, Velocity: 42
Note OFF: Time 103919, Note Name: G2
Note ON: Time 103920, Note Name: C3, Velocity: 42
Note OFF: Time 104039, Note Name: C3
Note ON: Time 104040, Note Name: C3, Velocity: 42
Note OFF: Time 104159, Note Name: C3
Note ON: Time 104160, Note Name: G3, Velocity: 53
Note OFF: Time 104279, Note Name: G3
Note ON: Time 104280, Note Name: C4, Velocity: 45
Note OFF: Time 104399, Note Name: C4
Note ON: Time 104400, Note Name: C4, Velocity: 44
Note OFF: Time 104519, Note Name: C4
Note ON: Time 104520, Note Name: G4, Velocity: 44
Note OFF: Time 104639, Note Name: G4
Note ON: Time 104640, Note Name: C5, Velocity: 52
Note OFF: Time 104759, Note Name: C5
Note ON: Time 104760, Note Name: G4, Velocity: 44
Note OFF: Time 104879, Note Name: G4
Note ON: Time 104880, Note Name: C4, Velocity: 45
Note OFF: Time 104999, Note Name: C4
Note ON: Time 105000, Note Name: C4, Velocity: 45
Note OFF: Time 105119, Note Name: C4
Note ON: Time 105120, Note Name: G3, Velocity: 51
Note OFF: Time 105239, Note Name: G3
Note ON: Time 105240, Note Name: C3, Velocity: 44
Note OFF: Time 105359, Note Name: C3
Note ON: Time 105360, Note Name: C3, Velocity: 44
Note OFF: Time 105479, Note Name: C3
Note ON: Time 105480, Note Name: G2, Velocity: 45
Note OFF: Time 105599, Note Name: G2
Note ON: Time 105600, Note Name: C2, Velocity: 61
Note OFF: Time 105719, Note Name: C2
Note ON: Time 105720, Note Name: F2, Velocity: 47
Note OFF: Time 105839, Note Name: F2
Note ON: Time 105840, Note Name: C3, Velocity: 42
Note OFF: Time 105959, Note Name: C3
Note ON: Time 105960, Note Name: C3, Velocity: 42
Note OFF: Time 106079, Note Name: C3
Note ON: Time 106080, Note Name: F3, Velocity: 58
Note OFF: Time 106199, Note Name: F3
Note ON: Time 106200, Note Name: C4, Velocity: 42
Note OFF: Time 106319, Note Name: C4
Note ON: Time 106320, Note Name: C4, Velocity: 44
Note OFF: Time 106439, Note Name: C4
Note ON: Time 106440, Note Name: F4, Velocity: 44
Note OFF: Time 106559, Note Name: F4
Note ON: Time 106560, Note Name: C5, Velocity: 59
Note OFF: Time 106679, Note Name: C5
Note ON: Time 106680, Note Name: F4, Velocity: 48
Note OFF: Time 106799, Note Name: F4
Note ON: Time 106800, Note Name: C4, Velocity: 48
Note OFF: Time 106919, Note Name: C4
Note ON: Time 106920, Note Name: C4, Velocity: 48
Note OFF: Time 107039, Note Name: C4
Note ON: Time 107040, Note Name: F3, Velocity: 55
Note OFF: Time 107159, Note Name: F3
Note ON: Time 107160, Note Name: C3, Velocity: 45
Note OFF: Time 107279, Note Name: C3
Note ON: Time 107280, Note Name: C3, Velocity: 45
Note OFF: Time 107399, Note Name: C3
Note ON: Time 107400, Note Name: F2, Velocity: 45
Note OFF: Time 107519, Note Name: F2
Note ON: Time 107520, Note Name: C2, Velocity: 67
Note OFF: Time 107639, Note Name: C2
Note ON: Time 107640, Note Name: G2, Velocity: 50
Note OFF: Time 107759, Note Name: G2
Note ON: Time 107760, Note Name: C3, Velocity: 46
Note OFF: Time 107879, Note Name: C3
Note ON: Time 107880, Note Name: C3, Velocity: 46
Note OFF: Time 107999, Note Name: C3
Note ON: Time 108000, Note Name: G3, Velocity: 62
Note OFF: Time 108119, Note Name: G3
Note ON: Time 108120, Note Name: C4, Velocity: 46
Note OFF: Time 108239, Note Name: C4
Note ON: Time 108240, Note Name: C4, Velocity: 46
Note OFF: Time 108359, Note Name: C4
Note ON: Time 108360, Note Name: G4, Velocity: 47
Note OFF: Time 108479, Note Name: G4
Note ON: Time 108480, Note Name: C5, Velocity: 62
Note OFF: Time 108599, Note Name: C5
Note ON: Time 108600, Note Name: G4, Velocity: 49
Note OFF: Time 108719, Note Name: G4
Note ON: Time 108720, Note Name: C4, Velocity: 49
Note OFF: Time 108839, Note Name: C4
Note ON: Time 108840, Note Name: C4, Velocity: 49
Note OFF: Time 108959, Note Name: C4
Note ON: Time 108960, Note Name: G3, Velocity: 59
Note OFF: Time 109079, Note Name: G3
Note ON: Time 109080, Note Name: C3, Velocity: 48
Note OFF: Time 109199, Note Name: C3
Note ON: Time 109200, Note Name: C3, Velocity: 48
Note OFF: Time 109319, Note Name: C3
Note ON: Time 109320, Note Name: G2, Velocity: 48
Note ON: Time 109440, Note Name: C#2, Velocity: 68
Note OFF: Time 109559, Note Name: C#2
Note OFF: Time 109560, Note Name: G2
Note ON: Time 109560, Note Name: G#2, Velocity: 51
Note OFF: Time 109679, Note Name: G#2
Note ON: Time 109680, Note Name: C#3, Velocity: 46
Note OFF: Time 109799, Note Name: C#3
Note ON: Time 109800, Note Name: C#3, Velocity: 46
Note OFF: Time 109919, Note Name: C#3
Note ON: Time 109920, Note Name: G#3, Velocity: 62
Note OFF: Time 110039, Note Name: G#3
Note ON: Time 110040, Note Name: C#4, Velocity: 46
Note OFF: Time 110159, Note Name: C#4
Note ON: Time 110160, Note Name: C#4, Velocity: 46
Note OFF: Time 110279, Note Name: C#4
Note ON: Time 110280, Note Name: G#4, Velocity: 46
Note OFF: Time 110399, Note Name: G#4
Note ON: Time 110400, Note Name: C#5, Velocity: 62
Note OFF: Time 110519, Note Name: C#5
Note ON: Time 110520, Note Name: G#4, Velocity: 48
Note OFF: Time 110639, Note Name: G#4
Note ON: Time 110640, Note Name: C#4, Velocity: 48
Note OFF: Time 110759, Note Name: C#4
Note ON: Time 110760, Note Name: C#4, Velocity: 48
Note OFF: Time 110879, Note Name: C#4
Note ON: Time 110880, Note Name: G#3, Velocity: 58
Note OFF: Time 110999, Note Name: G#3
Note ON: Time 111000, Note Name: C#3, Velocity: 46
Note OFF: Time 111119, Note Name: C#3
Note ON: Time 111120, Note Name: C#3, Velocity: 46
Note OFF: Time 111239, Note Name: C#3
Note ON: Time 111240, Note Name: G#2, Velocity: 46
Note OFF: Time 111359, Note Name: G#2
Note ON: Time 111360, Note Name: C#2, Velocity: 66
Note OFF: Time 111479, Note Name: C#2
Note ON: Time 111480, Note Name: G#2, Velocity: 49
Note OFF: Time 111599, Note Name: G#2
Note ON: Time 111600, Note Name: C#3, Velocity: 44
Note OFF: Time 111719, Note Name: C#3
Note ON: Time 111720, Note Name: C#3, Velocity: 44
Note OFF: Time 111839, Note Name: C#3
Note ON: Time 111840, Note Name: G#3, Velocity: 61
Note OFF: Time 111959, Note Name: G#3
Note ON: Time 111960, Note Name: C#4, Velocity: 44
Note OFF: Time 112079, Note Name: C#4
Note ON: Time 112080, Note Name: C#4, Velocity: 44
Note OFF: Time 112199, Note Name: C#4
Note ON: Time 112200, Note Name: G#4, Velocity: 44
Note OFF: Time 112319, Note Name: G#4
Note ON: Time 112320, Note Name: C#5, Velocity: 60
Note OFF: Time 112439, Note Name: C#5
Note ON: Time 112440, Note Name: G#4, Velocity: 44
Note OFF: Time 112559, Note Name: G#4
Note ON: Time 112560, Note Name: C#4, Velocity: 44
Note OFF: Time 112679, Note Name: C#4
Note ON: Time 112680, Note Name: C#4, Velocity: 44
Note OFF: Time 112799, Note Name: C#4
Note ON: Time 112800, Note Name: G#3, Velocity: 56
Note OFF: Time 112919, Note Name: G#3
Note ON: Time 112920, Note Name: C#3, Velocity: 44
Note OFF: Time 113039, Note Name: C#3
Note ON: Time 113040, Note Name: C#3, Velocity: 44
Note OFF: Time 113159, Note Name: C#3
Note ON: Time 113160, Note Name: G#2, Velocity: 44
Note OFF: Time 113279, Note Name: G#2
Note ON: Time 113280, Note Name: C#2, Velocity: 67
Note OFF: Time 113399, Note Name: C#2
Note ON: Time 113400, Note Name: G2, Velocity: 50
Note OFF: Time 113519, Note Name: G2
Note ON: Time 113520, Note Name: C#3, Velocity: 46
Note OFF: Time 113639, Note Name: C#3
Note ON: Time 113640, Note Name: C#3, Velocity: 46
Note OFF: Time 113759, Note Name: C#3
Note ON: Time 113760, Note Name: G3, Velocity: 62
Note OFF: Time 113879, Note Name: G3
Note ON: Time 113880, Note Name: C#4, Velocity: 46
Note OFF: Time 113999, Note Name: C#4
Note ON: Time 114000, Note Name: C#4, Velocity: 46
Note OFF: Time 114119, Note Name: C#4
Note ON: Time 114120, Note Name: G4, Velocity: 46
Note OFF: Time 114239, Note Name: G4
Note ON: Time 114240, Note Name: C#5, Velocity: 61
Note OFF: Time 114359, Note Name: C#5
Note ON: Time 114360, Note Name: G4, Velocity: 48
Note OFF: Time 114479, Note Name: G4
Note ON: Time 114480, Note Name: C#4, Velocity: 48
Note OFF: Time 114599, Note Name: C#4
Note ON: Time 114600, Note Name: C#4, Velocity: 47
Note OFF: Time 114719, Note Name: C#4
Note ON: Time 114720, Note Name: G3, Velocity: 58
Note OFF: Time 114839, Note Name: G3
Note ON: Time 114840, Note Name: C#3, Velocity: 46
Note OFF: Time 114959, Note Name: C#3
Note ON: Time 114960, Note Name: C#3, Velocity: 46
Note OFF: Time 115079, Note Name: C#3
Note ON: Time 115080, Note Name: G2, Velocity: 46
Note OFF: Time 115199, Note Name: G2
Note ON: Time 115200, Note Name: C#2, Velocity: 69
Note OFF: Time 115319, Note Name: C#2
Note ON: Time 115320, Note Name: G#2, Velocity: 51
Note OFF: Time 115439, Note Name: G#2
Note ON: Time 115440, Note Name: C#3, Velocity: 47
Note OFF: Time 115559, Note Name: C#3
Note ON: Time 115560, Note Name: C#3, Velocity: 47
Note OFF: Time 115679, Note Name: C#3
Note ON: Time 115680, Note Name: G#3, Velocity: 66
Note OFF: Time 115799, Note Name: G#3
Note ON: Time 115800, Note Name: C#4, Velocity: 47
Note OFF: Time 115919, Note Name: C#4
Note ON: Time 115920, Note Name: C#4, Velocity: 47
Note OFF: Time 116039, Note Name: C#4
Note ON: Time 116040, Note Name: G#4, Velocity: 47
Note OFF: Time 116159, Note Name: G#4
Note ON: Time 116160, Note Name: C#5, Velocity: 64
Note OFF: Time 116279, Note Name: C#5
Note ON: Time 116280, Note Name: G#4, Velocity: 47
Note OFF: Time 116399, Note Name: G#4
Note ON: Time 116400, Note Name: C#4, Velocity: 47
Note OFF: Time 116519, Note Name: C#4
Note ON: Time 116520, Note Name: C#4, Velocity: 47
Note OFF: Time 116639, Note Name: C#4
Note ON: Time 116640, Note Name: G#3, Velocity: 60
Note OFF: Time 116759, Note Name: G#3
Note ON: Time 116760, Note Name: C#3, Velocity: 47
Note OFF: Time 116879, Note Name: C#3
Note ON: Time 116880, Note Name: C#3, Velocity: 47
Note OFF: Time 116999, Note Name: C#3
Note ON: Time 117000, Note Name: G#2, Velocity: 47
Note ON: Time 117120, Note Name: D2, Velocity: 72
Note OFF: Time 117239, Note Name: D2
Note OFF: Time 117240, Note Name: G#2
Note ON: Time 117240, Note Name: G2, Velocity: 51
Note OFF: Time 117359, Note Name: G2
Note ON: Time 117360, Note Name: D3, Velocity: 49
Note OFF: Time 117479, Note Name: D3
Note ON: Time 117480, Note Name: D3, Velocity: 49
Note OFF: Time 117599, Note Name: D3
Note ON: Time 117600, Note Name: G3, Velocity: 67
Note OFF: Time 117719, Note Name: G3
Note ON: Time 117720, Note Name: D4, Velocity: 49
Note OFF: Time 117839, Note Name: D4
Note ON: Time 117840, Note Name: G3, Velocity: 49
Note OFF: Time 117959, Note Name: G3
Note ON: Time 117960, Note Name: D3, Velocity: 49
Note OFF: Time 118079, Note Name: D3
Note ON: Time 118080, Note Name: D2, Velocity: 67
Note OFF: Time 118199, Note Name: D2
Note ON: Time 118200, Note Name: F2, Velocity: 50
Note OFF: Time 118319, Note Name: F2
Note ON: Time 118320, Note Name: D3, Velocity: 50
Note OFF: Time 118439, Note Name: D3
Note ON: Time 118440, Note Name: D3, Velocity: 50
Note OFF: Time 118559, Note Name: D3
Note ON: Time 118560, Note Name: F3, Velocity: 61
Note OFF: Time 118679, Note Name: F3
Note ON: Time 118680, Note Name: D4, Velocity: 49
Note OFF: Time 118799, Note Name: D4
Note ON: Time 118800, Note Name: F3, Velocity: 49
Note OFF: Time 118919, Note Name: F3
Note ON: Time 118920, Note Name: D3, Velocity: 49
Note OFF: Time 119039, Note Name: D3
Note ON: Time 119040, Note Name: D#2, Velocity: 73
Note OFF: Time 119159, Note Name: D#2
Note ON: Time 119160, Note Name: C3, Velocity: 55
Note OFF: Time 119279, Note Name: C3
Note ON: Time 119280, Note Name: D#3, Velocity: 50
Note OFF: Time 119399, Note Name: D#3
Note ON: Time 119400, Note Name: D#3, Velocity: 50
Note OFF: Time 119519, Note Name: D#3
Note ON: Time 119520, Note Name: C4, Velocity: 69
Note OFF: Time 119639, Note Name: C4
Note ON: Time 119640, Note Name: D#4, Velocity: 50
Note OFF: Time 119759, Note Name: D#4
Note ON: Time 119760, Note Name: D#4, Velocity: 50
Note OFF: Time 119879, Note Name: D#4
Note ON: Time 119880, Note Name: C5, Velocity: 50
Note OFF: Time 119999, Note Name: C5
Note ON: Time 120000, Note Name: D#5, Velocity: 69
Note OFF: Time 120119, Note Name: D#5
Note ON: Time 120120, Note Name: C5, Velocity: 50
Note OFF: Time 120239, Note Name: C5
Note ON: Time 120240, Note Name: D#4, Velocity: 50
Note OFF: Time 120359, Note Name: D#4
Note ON: Time 120360, Note Name: D#4, Velocity: 50
Note OFF: Time 120479, Note Name: D#4
Note ON: Time 120480, Note Name: C4, Velocity: 63
Note OFF: Time 120599, Note Name: C4
Note ON: Time 120600, Note Name: D#3, Velocity: 50
Note OFF: Time 120719, Note Name: D#3
Note ON: Time 120720, Note Name: D#3, Velocity: 50
Note OFF: Time 120839, Note Name: D#3
Note ON: Time 120840, Note Name: C3, Velocity: 50
Note OFF: Time 120959, Note Name: C3
Note ON: Time 120960, Note Name: E2, Velocity: 77
Note OFF: Time 121079, Note Name: E2
Note ON: Time 121080, Note Name: C3, Velocity: 58
Note OFF: Time 121199, Note Name: C3
Note ON: Time 121200, Note Name: E3, Velocity: 52
Note OFF: Time 121319, Note Name: E3
Note ON: Time 121320, Note Name: E3, Velocity: 52
Note OFF: Time 121439, Note Name: E3
Note ON: Time 121440, Note Name: C4, Velocity: 72
Note OFF: Time 121559, Note Name: C4
Note ON: Time 121560, Note Name: E4, Velocity: 52
Note OFF: Time 121679, Note Name: E4
Note ON: Time 121680, Note Name: E4, Velocity: 52
Note OFF: Time 121799, Note Name: E4
Note ON: Time 121800, Note Name: C5, Velocity: 52
Note OFF: Time 121919, Note Name: C5
Note ON: Time 121920, Note Name: E5, Velocity: 71
Note OFF: Time 122039, Note Name: E5
Note ON: Time 122040, Note Name: C5, Velocity: 52
Note OFF: Time 122159, Note Name: C5
Note ON: Time 122160, Note Name: E4, Velocity: 52
Note OFF: Time 122279, Note Name: E4
Note ON: Time 122280, Note Name: E4, Velocity: 52
Note OFF: Time 122399, Note Name: E4
Note ON: Time 122400, Note Name: C4, Velocity: 64
Note OFF: Time 122519, Note Name: C4
Note ON: Time 122520, Note Name: E3, Velocity: 52
Note OFF: Time 122639, Note Name: E3
Note ON: Time 122640, Note Name: E3, Velocity: 52
Note OFF: Time 122759, Note Name: E3
Note ON: Time 122760, Note Name: C3, Velocity: 52
Note OFF: Time 122879, Note Name: C3
Note ON: Time 122880, Note Name: F2, Velocity: 72
Note OFF: Time 122999, Note Name: F2
Note ON: Time 123000, Note Name: C3, Velocity: 51
Note OFF: Time 123119, Note Name: C3
Note ON: Time 123120, Note Name: F3, Velocity: 49
Note OFF: Time 123239, Note Name: F3
Note ON: Time 123240, Note Name: F3, Velocity: 49
Note OFF: Time 123359, Note Name: F3
Note ON: Time 123360, Note Name: C4, Velocity: 67
Note OFF: Time 123479, Note Name: C4
Note ON: Time 123480, Note Name: F4, Velocity: 49
Note OFF: Time 123599, Note Name: F4
Note ON: Time 123600, Note Name: C4, Velocity: 49
Note OFF: Time 123719, Note Name: C4
Note ON: Time 123720, Note Name: F3, Velocity: 49
Note OFF: Time 123839, Note Name: F3
Note ON: Time 123840, Note Name: F2, Velocity: 66
Note OFF: Time 123959, Note Name: F2
Note ON: Time 123960, Note Name: C3, Velocity: 50
Note OFF: Time 124079, Note Name: C3
Note ON: Time 124080, Note Name: F3, Velocity: 50
Note OFF: Time 124199, Note Name: F3
Note ON: Time 124200, Note Name: F3, Velocity: 50
Note OFF: Time 124319, Note Name: F3
Note ON: Time 124320, Note Name: C4, Velocity: 62
Note OFF: Time 124439, Note Name: C4
Note ON: Time 124440, Note Name: F4, Velocity: 49
Note OFF: Time 124559, Note Name: F4
Note ON: Time 124560, Note Name: C4, Velocity: 49
Note OFF: Time 124679, Note Name: C4
Note ON: Time 124680, Note Name: F3, Velocity: 49
Note OFF: Time 124798, Note Name: F3
Note ON: Time 124800, Note Name: F2, Velocity: 73
Note OFF: Time 124919, Note Name: F2
Note ON: Time 124920, Note Name: C3, Velocity: 52
Note OFF: Time 125039, Note Name: C3
Note ON: Time 125040, Note Name: F3, Velocity: 49
Note OFF: Time 125159, Note Name: F3
Note ON: Time 125160, Note Name: F3, Velocity: 49
Note OFF: Time 125279, Note Name: F3
Note ON: Time 125280, Note Name: C4, Velocity: 69
Note OFF: Time 125399, Note Name: C4
Note ON: Time 125400, Note Name: F4, Velocity: 49
Note OFF: Time 125519, Note Name: F4
Note ON: Time 125520, Note Name: C4, Velocity: 49
Note OFF: Time 125639, Note Name: C4
Note ON: Time 125640, Note Name: F3, Velocity: 49
Note OFF: Time 125759, Note Name: F3
Note ON: Time 125760, Note Name: F2, Velocity: 67
Note OFF: Time 125879, Note Name: F2
Note ON: Time 125880, Note Name: C3, Velocity: 50
Note OFF: Time 125999, Note Name: C3
Note ON: Time 126000, Note Name: F3, Velocity: 50
Note OFF: Time 126119, Note Name: F3
Note ON: Time 126120, Note Name: F3, Velocity: 50
Note OFF: Time 126239, Note Name: F3
Note ON: Time 126240, Note Name: C4, Velocity: 62
Note OFF: Time 126359, Note Name: C4
Note ON: Time 126360, Note Name: F4, Velocity: 49
Note OFF: Time 126479, Note Name: F4
Note ON: Time 126480, Note Name: C4, Velocity: 49
Note OFF: Time 126599, Note Name: C4
Note ON: Time 126600, Note Name: F3, Velocity: 49
Note OFF: Time 126719, Note Name: F3
Note ON: Time 126720, Note Name: G2, Velocity: 74
Note OFF: Time 126839, Note Name: G2
Note ON: Time 126840, Note Name: D#3, Velocity: 56
Note OFF: Time 126959, Note Name: D#3
Note ON: Time 126960, Note Name: G3, Velocity: 56
Note OFF: Time 127079, Note Name: G3
Note ON: Time 127080, Note Name: G3, Velocity: 53
Note OFF: Time 127199, Note Name: G3
Note ON: Time 127200, Note Name: D#4, Velocity: 66
Note OFF: Time 127319, Note Name: D#4
Note ON: Time 127320, Note Name: G4, Velocity: 53
Note OFF: Time 127439, Note Name: G4
Note ON: Time 127440, Note Name: G4, Velocity: 53
Note OFF: Time 127559, Note Name: G4
Note ON: Time 127560, Note Name: D#5, Velocity: 53
Note OFF: Time 127679, Note Name: D#5
Note ON: Time 127680, Note Name: G5, Velocity: 72
Note OFF: Time 127799, Note Name: G5
Note ON: Time 127800, Note Name: D#5, Velocity: 53
Note OFF: Time 127919, Note Name: D#5
Note ON: Time 127920, Note Name: G4, Velocity: 53
Note OFF: Time 128039, Note Name: G4
Note ON: Time 128040, Note Name: G4, Velocity: 53
Note OFF: Time 128159, Note Name: G4
Note ON: Time 128160, Note Name: D#4, Velocity: 67
Note OFF: Time 128279, Note Name: D#4
Note ON: Time 128280, Note Name: G3, Velocity: 53
Note OFF: Time 128399, Note Name: G3
Note ON: Time 128400, Note Name: G3, Velocity: 53
Note OFF: Time 128519, Note Name: G3
Note ON: Time 128520, Note Name: D#3, Velocity: 53
Note OFF: Time 128639, Note Name: D#3
Note ON: Time 128640, Note Name: G2, Velocity: 74
Note OFF: Time 128759, Note Name: G2
Note ON: Time 128760, Note Name: D#3, Velocity: 56
Note OFF: Time 128879, Note Name: D#3
Note ON: Time 128880, Note Name: G3, Velocity: 56
Note OFF: Time 128999, Note Name: G3
Note ON: Time 129000, Note Name: G3, Velocity: 53
Note OFF: Time 129119, Note Name: G3
Note ON: Time 129120, Note Name: D#4, Velocity: 66
Note OFF: Time 129239, Note Name: D#4
Note ON: Time 129240, Note Name: G4, Velocity: 53
Note OFF: Time 129359, Note Name: G4
Note ON: Time 129360, Note Name: G4, Velocity: 53
Note OFF: Time 129479, Note Name: G4
Note ON: Time 129480, Note Name: D#5, Velocity: 53
Note OFF: Time 129599, Note Name: D#5
Note ON: Time 129600, Note Name: G5, Velocity: 72
Note OFF: Time 129719, Note Name: G5
Note ON: Time 129720, Note Name: D#5, Velocity: 53
Note OFF: Time 129839, Note Name: D#5
Note ON: Time 129840, Note Name: G4, Velocity: 53
Note OFF: Time 129959, Note Name: G4
Note ON: Time 129960, Note Name: G4, Velocity: 53
Note OFF: Time 130079, Note Name: G4
Note ON: Time 130080, Note Name: D#4, Velocity: 67
Note OFF: Time 130199, Note Name: D#4
Note ON: Time 130200, Note Name: G3, Velocity: 53
Note OFF: Time 130319, Note Name: G3
Note ON: Time 130320, Note Name: G3, Velocity: 53
Note OFF: Time 130439, Note Name: G3
Note ON: Time 130440, Note Name: D#3, Velocity: 53
Note OFF: Time 130559, Note Name: D#3
Note ON: Time 130560, Note Name: G2, Velocity: 74
Note OFF: Time 130679, Note Name: G2
Note ON: Time 130680, Note Name: D3, Velocity: 56
Note OFF: Time 130799, Note Name: D3
Note ON: Time 130800, Note Name: F3, Velocity: 56
Note OFF: Time 130919, Note Name: F3
Note ON: Time 130920, Note Name: G3, Velocity: 53
Note OFF: Time 131039, Note Name: G3
Note ON: Time 131040, Note Name: D4, Velocity: 66
Note OFF: Time 131159, Note Name: D4
Note ON: Time 131160, Note Name: F4, Velocity: 53
Note OFF: Time 131279, Note Name: F4
Note ON: Time 131280, Note Name: G4, Velocity: 53
Note OFF: Time 131399, Note Name: G4
Note ON: Time 131400, Note Name: D5, Velocity: 53
Note OFF: Time 131519, Note Name: D5
Note ON: Time 131520, Note Name: F5, Velocity: 72
Note OFF: Time 131639, Note Name: F5
Note ON: Time 131640, Note Name: D5, Velocity: 53
Note OFF: Time 131759, Note Name: D5
Note ON: Time 131760, Note Name: G4, Velocity: 53
Note OFF: Time 131879, Note Name: G4
Note ON: Time 131880, Note Name: F4, Velocity: 53
Note OFF: Time 131999, Note Name: F4
Note ON: Time 132000, Note Name: D4, Velocity: 67
Note OFF: Time 132119, Note Name: D4
Note ON: Time 132120, Note Name: G3, Velocity: 53
Note OFF: Time 132239, Note Name: G3
Note ON: Time 132240, Note Name: F3, Velocity: 53
Note OFF: Time 132359, Note Name: F3
Note ON: Time 132360, Note Name: D3, Velocity: 53
Note OFF: Time 132479, Note Name: D3
Note ON: Time 132480, Note Name: G2, Velocity: 74
Note OFF: Time 132599, Note Name: G2
Note ON: Time 132600, Note Name: D3, Velocity: 56
Note OFF: Time 132719, Note Name: D3
Note ON: Time 132720, Note Name: F3, Velocity: 56
Note OFF: Time 132839, Note Name: F3
Note ON: Time 132840, Note Name: G3, Velocity: 53
Note OFF: Time 132959, Note Name: G3
Note ON: Time 132960, Note Name: D4, Velocity: 66
Note OFF: Time 133079, Note Name: D4
Note ON: Time 133080, Note Name: F4, Velocity: 53
Note OFF: Time 133199, Note Name: F4
Note ON: Time 133200, Note Name: G4, Velocity: 53
Note OFF: Time 133319, Note Name: G4
Note ON: Time 133320, Note Name: D5, Velocity: 53
Note OFF: Time 133439, Note Name: D5
Note ON: Time 133440, Note Name: F5, Velocity: 72
Note OFF: Time 133559, Note Name: F5
Note ON: Time 133560, Note Name: D5, Velocity: 53
Note OFF: Time 133679, Note Name: D5
Note ON: Time 133680, Note Name: G4, Velocity: 53
Note OFF: Time 133799, Note Name: G4
Note ON: Time 133800, Note Name: F4, Velocity: 53
Note OFF: Time 133919, Note Name: F4
Note ON: Time 133920, Note Name: D4, Velocity: 67
Note OFF: Time 134039, Note Name: D4
Note ON: Time 134040, Note Name: G3, Velocity: 53
Note OFF: Time 134159, Note Name: G3
Note ON: Time 134160, Note Name: D3, Velocity: 53
Note OFF: Time 134279, Note Name: D3
Note ON: Time 134280, Note Name: G2, Velocity: 53
Note OFF: Time 134399, Note Name: G2
Note ON: Time 134400, Note Name: C2, Velocity: 74
Note OFF: Time 134519, Note Name: C2
Note ON: Time 134520, Note Name: G2, Velocity: 56
Note OFF: Time 134639, Note Name: G2
Note ON: Time 134640, Note Name: C3, Velocity: 56
Note OFF: Time 134759, Note Name: C3
Note ON: Time 134760, Note Name: C3, Velocity: 53
Note OFF: Time 134879, Note Name: C3
Note ON: Time 134880, Note Name: G3, Velocity: 66
Note OFF: Time 134999, Note Name: G3
Note ON: Time 135000, Note Name: C4, Velocity: 53
Note OFF: Time 135119, Note Name: C4
Note ON: Time 135120, Note Name: C4, Velocity: 53
Note OFF: Time 135239, Note Name: C4
Note ON: Time 135240, Note Name: G4, Velocity: 53
Note OFF: Time 135359, Note Name: G4
Note ON: Time 135360, Note Name: C5, Velocity: 72
Note OFF: Time 135479, Note Name: C5
Note ON: Time 135480, Note Name: C5, Velocity: 53
Note OFF: Time 135599, Note Name: C5
Note ON: Time 135600, Note Name: G5, Velocity: 53
Note OFF: Time 135719, Note Name: G5
Note ON: Time 135720, Note Name: C6, Velocity: 53
Note OFF: Time 135839, Note Name: C6
Note ON: Time 135840, Note Name: G5, Velocity: 67
Note OFF: Time 135959, Note Name: G5
Note ON: Time 135960, Note Name: C5, Velocity: 53
Note OFF: Time 136079, Note Name: C5
Note ON: Time 136080, Note Name: C5, Velocity: 53
Note OFF: Time 136199, Note Name: C5
Note ON: Time 136200, Note Name: G4, Velocity: 53
Note OFF: Time 136319, Note Name: G4
Note ON: Time 136320, Note Name: C4, Velocity: 69
Note OFF: Time 136439, Note Name: C4
Note ON: Time 136440, Note Name: C4, Velocity: 52
Note OFF: Time 136559, Note Name: C4
Note ON: Time 136560, Note Name: G3, Velocity: 52
Note OFF: Time 136679, Note Name: G3
Note ON: Time 136680, Note Name: C3, Velocity: 52
Note OFF: Time 136799, Note Name: C3
Note ON: Time 136800, Note Name: C3, Velocity: 61
Note OFF: Time 136919, Note Name: C3
Note ON: Time 136920, Note Name: G2, Velocity: 50
Note OFF: Time 137039, Note Name: G2
Note ON: Time 137040, Note Name: C2, Velocity: 50
Note OFF: Time 137159, Note Name: C2
Note ON: Time 137160, Note Name: G2, Velocity: 50
Note OFF: Time 137279, Note Name: G2
Note ON: Time 137280, Note Name: B2, Velocity: 59
Note OFF: Time 137399, Note Name: B2
Note ON: Time 137400, Note Name: G2, Velocity: 50
Note OFF: Time 137519, Note Name: G2
Note ON: Time 137520, Note Name: C2, Velocity: 50
Note OFF: Time 137639, Note Name: C2
Note ON: Time 137640, Note Name: G2, Velocity: 50
Note OFF: Time 137759, Note Name: G2
Note ON: Time 137760, Note Name: D3, Velocity: 56
Note OFF: Time 137879, Note Name: D3
Note ON: Time 137880, Note Name: G2, Velocity: 49
Note OFF: Time 137999, Note Name: G2
Note ON: Time 138000, Note Name: C2, Velocity: 49
Note OFF: Time 138119, Note Name: C2
Note ON: Time 138120, Note Name: G2, Velocity: 49
Note OFF: Time 138239, Note Name: G2
Note ON: Time 138240, Note Name: C2, Velocity: 74
Note OFF: Time 138359, Note Name: C2
Note ON: Time 138360, Note Name: G2, Velocity: 56
Note OFF: Time 138479, Note Name: G2
Note ON: Time 138480, Note Name: C3, Velocity: 56
Note OFF: Time 138599, Note Name: C3
Note ON: Time 138600, Note Name: C3, Velocity: 53
Note OFF: Time 138719, Note Name: C3
Note ON: Time 138720, Note Name: G3, Velocity: 66
Note OFF: Time 138839, Note Name: G3
Note ON: Time 138840, Note Name: C4, Velocity: 53
Note OFF: Time 138959, Note Name: C4
Note ON: Time 138960, Note Name: C4, Velocity: 53
Note OFF: Time 139079, Note Name: C4
Note ON: Time 139080, Note Name: G4, Velocity: 53
Note OFF: Time 139199, Note Name: G4
Note ON: Time 139200, Note Name: C5, Velocity: 72
Note OFF: Time 139319, Note Name: C5
Note ON: Time 139320, Note Name: C5, Velocity: 53
Note OFF: Time 139439, Note Name: C5
Note ON: Time 139440, Note Name: G5, Velocity: 53
Note OFF: Time 139559, Note Name: G5
Note ON: Time 139560, Note Name: C6, Velocity: 53
Note OFF: Time 139679, Note Name: C6
Note ON: Time 139680, Note Name: G5, Velocity: 67
Note OFF: Time 139799, Note Name: G5
Note ON: Time 139800, Note Name: C5, Velocity: 53
Note OFF: Time 139919, Note Name: C5
Note ON: Time 139920, Note Name: C5, Velocity: 53
Note OFF: Time 140039, Note Name: C5
Note ON: Time 140040, Note Name: G4, Velocity: 53
Note OFF: Time 140159, Note Name: G4
Note ON: Time 140160, Note Name: C4, Velocity: 69
Note OFF: Time 140279, Note Name: C4
Note ON: Time 140280, Note Name: C4, Velocity: 52
Note OFF: Time 140399, Note Name: C4
Note ON: Time 140400, Note Name: G3, Velocity: 52
Note OFF: Time 140519, Note Name: G3
Note ON: Time 140520, Note Name: C3, Velocity: 52
Note OFF: Time 140639, Note Name: C3
Note ON: Time 140640, Note Name: C3, Velocity: 61
Note OFF: Time 140759, Note Name: C3
Note ON: Time 140760, Note Name: G2, Velocity: 50
Note OFF: Time 140879, Note Name: G2
Note ON: Time 140880, Note Name: C2, Velocity: 50
Note OFF: Time 140999, Note Name: C2
Note ON: Time 141000, Note Name: G2, Velocity: 50
Note OFF: Time 141119, Note Name: G2
Note ON: Time 141120, Note Name: B2, Velocity: 59
Note OFF: Time 141239, Note Name: B2
Note ON: Time 141240, Note Name: G2, Velocity: 50
Note OFF: Time 141359, Note Name: G2
Note ON: Time 141360, Note Name: C2, Velocity: 50
Note OFF: Time 141479, Note Name: C2
Note ON: Time 141480, Note Name: G2, Velocity: 50
Note OFF: Time 141599, Note Name: G2
Note ON: Time 141600, Note Name: A2, Velocity: 56
Note OFF: Time 141719, Note Name: A2
Note ON: Time 141720, Note Name: G2, Velocity: 49
Note OFF: Time 141839, Note Name: G2
Note ON: Time 141840, Note Name: C2, Velocity: 49
Note OFF: Time 141959, Note Name: C2
Note ON: Time 141960, Note Name: G2, Velocity: 49
Note OFF: Time 142079, Note Name: G2
Note ON: Time 142080, Note Name: C2, Velocity: 74
Note OFF: Time 142199, Note Name: C2
Note ON: Time 142200, Note Name: G2, Velocity: 56
Note OFF: Time 142319, Note Name: G2
Note ON: Time 142320, Note Name: B2, Velocity: 56
Note OFF: Time 142439, Note Name: B2
Note ON: Time 142440, Note Name: C3, Velocity: 53
Note OFF: Time 142559, Note Name: C3
Note ON: Time 142560, Note Name: G3, Velocity: 66
Note OFF: Time 142679, Note Name: G3
Note ON: Time 142680, Note Name: B3, Velocity: 53
Note OFF: Time 142799, Note Name: B3
Note ON: Time 142800, Note Name: C4, Velocity: 53
Note OFF: Time 142919, Note Name: C4
Note ON: Time 142920, Note Name: G4, Velocity: 53
Note OFF: Time 143039, Note Name: G4
Note ON: Time 143040, Note Name: B4, Velocity: 72
Note OFF: Time 143159, Note Name: B4
Note ON: Time 143160, Note Name: C5, Velocity: 53
Note OFF: Time 143279, Note Name: C5
Note ON: Time 143280, Note Name: G5, Velocity: 53
Note OFF: Time 143399, Note Name: G5
Note ON: Time 143400, Note Name: B5, Velocity: 53
Note OFF: Time 143519, Note Name: B5
Note ON: Time 143520, Note Name: G5, Velocity: 67
Note OFF: Time 143639, Note Name: G5
Note ON: Time 143640, Note Name: C5, Velocity: 53
Note OFF: Time 143759, Note Name: C5
Note ON: Time 143760, Note Name: B4, Velocity: 53
Note OFF: Time 143879, Note Name: B4
Note ON: Time 143880, Note Name: G4, Velocity: 53
Note OFF: Time 143999, Note Name: G4
Note ON: Time 144000, Note Name: C4, Velocity: 69
Note OFF: Time 144119, Note Name: C4
Note ON: Time 144120, Note Name: B3, Velocity: 52
Note OFF: Time 144239, Note Name: B3
Note ON: Time 144240, Note Name: G3, Velocity: 52
Note OFF: Time 144359, Note Name: G3
Note ON: Time 144360, Note Name: C3, Velocity: 52
Note OFF: Time 144479, Note Name: C3
Note ON: Time 144480, Note Name: B2, Velocity: 61
Note OFF: Time 144599, Note Name: B2
Note ON: Time 144600, Note Name: G2, Velocity: 50
Note OFF: Time 144719, Note Name: G2
Note ON: Time 144720, Note Name: C2, Velocity: 50
Note OFF: Time 144839, Note Name: C2
Note ON: Time 144840, Note Name: G2, Velocity: 50
Note OFF: Time 144959, Note Name: G2
Note ON: Time 144960, Note Name: A2, Velocity: 59
Note OFF: Time 145079, Note Name: A2
Note ON: Time 145080, Note Name: F2, Velocity: 50
Note OFF: Time 145199, Note Name: F2
Note ON: Time 145200, Note Name: C2, Velocity: 50
Note OFF: Time 145319, Note Name: C2
Note ON: Time 145320, Note Name: F2, Velocity: 50
Note OFF: Time 145439, Note Name: F2
Note ON: Time 145440, Note Name: A2, Velocity: 56
Note OFF: Time 145559, Note Name: A2
Note ON: Time 145560, Note Name: F2, Velocity: 49
Note OFF: Time 145679, Note Name: F2
Note ON: Time 145680, Note Name: C2, Velocity: 49
Note OFF: Time 145799, Note Name: C2
Note ON: Time 145800, Note Name: F2, Velocity: 49
Note OFF: Time 145919, Note Name: F2
Note ON: Time 145920, Note Name: C2, Velocity: 69
Note OFF: Time 146039, Note Name: C2
Note ON: Time 146040, Note Name: G#2, Velocity: 55
Note OFF: Time 146159, Note Name: G#2
Note ON: Time 146160, Note Name: C3, Velocity: 55
Note OFF: Time 146279, Note Name: C3
Note ON: Time 146280, Note Name: C3, Velocity: 55
Note OFF: Time 146399, Note Name: C3
Note ON: Time 146400, Note Name: G#3, Velocity: 63
Note OFF: Time 146519, Note Name: G#3
Note ON: Time 146520, Note Name: C4, Velocity: 53
Note OFF: Time 146639, Note Name: C4
Note ON: Time 146640, Note Name: C4, Velocity: 53
Note OFF: Time 146759, Note Name: C4
Note ON: Time 146760, Note Name: G#4, Velocity: 53
Note OFF: Time 146879, Note Name: G#4
Note ON: Time 146880, Note Name: C5, Velocity: 67
Note OFF: Time 146999, Note Name: C5
Note ON: Time 147000, Note Name: C5, Velocity: 53
Note OFF: Time 147119, Note Name: C5
Note ON: Time 147120, Note Name: G#5, Velocity: 53
Note OFF: Time 147239, Note Name: G#5
Note ON: Time 147240, Note Name: C6, Velocity: 53
Note OFF: Time 147359, Note Name: C6
Note ON: Time 147360, Note Name: G#5, Velocity: 67
Note OFF: Time 147479, Note Name: G#5
Note ON: Time 147480, Note Name: C5, Velocity: 53
Note OFF: Time 147599, Note Name: C5
Note ON: Time 147600, Note Name: C5, Velocity: 53
Note OFF: Time 147719, Note Name: C5
Note ON: Time 147720, Note Name: G#4, Velocity: 53
Note OFF: Time 147839, Note Name: G#4
Note ON: Time 147840, Note Name: C4, Velocity: 69
Note OFF: Time 147959, Note Name: C4
Note ON: Time 147960, Note Name: C4, Velocity: 52
Note OFF: Time 148079, Note Name: C4
Note ON: Time 148080, Note Name: G#3, Velocity: 52
Note OFF: Time 148199, Note Name: G#3
Note ON: Time 148200, Note Name: C3, Velocity: 52
Note OFF: Time 148319, Note Name: C3
Note ON: Time 148320, Note Name: C3, Velocity: 61
Note OFF: Time 148439, Note Name: C3
Note ON: Time 148440, Note Name: G#2, Velocity: 50
Note OFF: Time 148559, Note Name: G#2
Note ON: Time 148560, Note Name: C2, Velocity: 50
Note OFF: Time 148679, Note Name: C2
Note ON: Time 148680, Note Name: G#2, Velocity: 50
Note OFF: Time 148799, Note Name: G#2
Note ON: Time 148800, Note Name: C2, Velocity: 59
Note OFF: Time 148919, Note Name: C2
Note ON: Time 148920, Note Name: G#2, Velocity: 50
Note OFF: Time 149039, Note Name: G#2
Note ON: Time 149040, Note Name: C3, Velocity: 50
Note OFF: Time 149159, Note Name: C3
Note ON: Time 149160, Note Name: G#2, Velocity: 50
Note OFF: Time 149279, Note Name: G#2
Note ON: Time 149280, Note Name: C2, Velocity: 56
Note OFF: Time 149399, Note Name: C2
Note ON: Time 149400, Note Name: G#2, Velocity: 49
Note OFF: Time 149519, Note Name: G#2
Note ON: Time 149520, Note Name: C3, Velocity: 49
Note OFF: Time 149639, Note Name: C3
Note ON: Time 149640, Note Name: G#2, Velocity: 49
Note OFF: Time 149759, Note Name: G#2
Note ON: Time 149760, Note Name: C2, Velocity: 74
Note OFF: Time 149879, Note Name: C2
Note ON: Time 149880, Note Name: G#2, Velocity: 56
Note OFF: Time 149999, Note Name: G#2
Note ON: Time 150000, Note Name: C3, Velocity: 56
Note OFF: Time 150119, Note Name: C3
Note ON: Time 150120, Note Name: C3, Velocity: 53
Note OFF: Time 150239, Note Name: C3
Note ON: Time 150240, Note Name: G#3, Velocity: 66
Note OFF: Time 150359, Note Name: G#3
Note ON: Time 150360, Note Name: C4, Velocity: 53
Note OFF: Time 150479, Note Name: C4
Note ON: Time 150480, Note Name: C4, Velocity: 53
Note OFF: Time 150599, Note Name: C4
Note ON: Time 150600, Note Name: G#4, Velocity: 53
Note OFF: Time 150719, Note Name: G#4
Note ON: Time 150720, Note Name: C5, Velocity: 72
Note OFF: Time 150839, Note Name: C5
Note ON: Time 150840, Note Name: C5, Velocity: 53
Note OFF: Time 150959, Note Name: C5
Note ON: Time 150960, Note Name: G#5, Velocity: 53
Note OFF: Time 151079, Note Name: G#5
Note ON: Time 151080, Note Name: C6, Velocity: 53
Note OFF: Time 151199, Note Name: C6
Note ON: Time 151200, Note Name: G#5, Velocity: 67
Note OFF: Time 151319, Note Name: G#5
Note ON: Time 151320, Note Name: C5, Velocity: 53
Note OFF: Time 151439, Note Name: C5
Note ON: Time 151440, Note Name: C5, Velocity: 53
Note OFF: Time 151559, Note Name: C5
Note ON: Time 151560, Note Name: G#4, Velocity: 53
Note OFF: Time 151679, Note Name: G#4
Note ON: Time 151680, Note Name: C4, Velocity: 69
Note OFF: Time 151799, Note Name: C4
Note ON: Time 151800, Note Name: C4, Velocity: 52
Note OFF: Time 151919, Note Name: C4
Note ON: Time 151920, Note Name: G#3, Velocity: 52
Note OFF: Time 152039, Note Name: G#3
Note ON: Time 152040, Note Name: C3, Velocity: 52
Note OFF: Time 152159, Note Name: C3
Note ON: Time 152160, Note Name: C3, Velocity: 72
Note OFF: Time 152279, Note Name: C3
Note ON: Time 152280, Note Name: G#2, Velocity: 50
Note OFF: Time 152399, Note Name: G#2
Note ON: Time 152400, Note Name: C2, Velocity: 50
Note OFF: Time 152519, Note Name: C2
Note ON: Time 152520, Note Name: G#2, Velocity: 50
Note OFF: Time 152639, Note Name: G#2
Note ON: Time 152640, Note Name: C2, Velocity: 69
Note OFF: Time 152759, Note Name: C2
Note ON: Time 152760, Note Name: G#2, Velocity: 50
Note OFF: Time 152879, Note Name: G#2
Note ON: Time 152880, Note Name: C3, Velocity: 50
Note OFF: Time 152999, Note Name: C3
Note ON: Time 153000, Note Name: G#2, Velocity: 50
Note OFF: Time 153119, Note Name: G#2
Note ON: Time 153120, Note Name: C2, Velocity: 71
Note OFF: Time 153239, Note Name: C2
Note ON: Time 153240, Note Name: G#2, Velocity: 49
Note OFF: Time 153359, Note Name: G#2
Note ON: Time 153360, Note Name: C3, Velocity: 49
Note OFF: Time 153479, Note Name: C3
Note ON: Time 153480, Note Name: G#2, Velocity: 49
Note OFF: Time 153599, Note Name: G#2
Note ON: Time 153600, Note Name: C2, Velocity: 101
Note OFF: Time 153719, Note Name: C2
Note ON: Time 153720, Note Name: G2, Velocity: 57
Note OFF: Time 153839, Note Name: G2
Note ON: Time 153840, Note Name: C3, Velocity: 57
Note OFF: Time 153959, Note Name: C3
Note ON: Time 153960, Note Name: G2, Velocity: 57
Note OFF: Time 154079, Note Name: G2
Note ON: Time 154080, Note Name: G1, Velocity: 96
Note OFF: Time 154199, Note Name: G1
Note ON: Time 154200, Note Name: G2, Velocity: 55
Note OFF: Time 154319, Note Name: G2
Note ON: Time 154320, Note Name: C3, Velocity: 55
Note OFF: Time 154439, Note Name: C3
Note ON: Time 154440, Note Name: G2, Velocity: 55
Note OFF: Time 154559, Note Name: G2
Note ON: Time 154560, Note Name: C2, Velocity: 104
Note OFF: Time 154679, Note Name: C2
Note ON: Time 154680, Note Name: G2, Velocity: 54
Note OFF: Time 154799, Note Name: G2
Note ON: Time 154800, Note Name: C3, Velocity: 57
Note OFF: Time 154919, Note Name: C3
Note ON: Time 154920, Note Name: G2, Velocity: 60
Note OFF: Time 155039, Note Name: G2
Note ON: Time 155040, Note Name: G1, Velocity: 97
Note OFF: Time 155159, Note Name: G1
Note ON: Time 155160, Note Name: G2, Velocity: 59
Note OFF: Time 155279, Note Name: G2
Note ON: Time 155280, Note Name: C3, Velocity: 59
Note OFF: Time 155399, Note Name: C3
Note ON: Time 155400, Note Name: G2, Velocity: 59
Note OFF: Time 155519, Note Name: G2
Note ON: Time 155520, Note Name: C2, Velocity: 107
Note OFF: Time 155639, Note Name: C2
Note ON: Time 155640, Note Name: G2, Velocity: 65
Note OFF: Time 155759, Note Name: G2
Note ON: Time 155760, Note Name: C3, Velocity: 65
Note OFF: Time 155879, Note Name: C3
Note ON: Time 155880, Note Name: G2, Velocity: 64
Note OFF: Time 155999, Note Name: G2
Note ON: Time 156000, Note Name: G1, Velocity: 104
Note OFF: Time 156119, Note Name: G1
Note ON: Time 156120, Note Name: G2, Velocity: 58
Note OFF: Time 156239, Note Name: G2
Note ON: Time 156240, Note Name: C3, Velocity: 58
Note OFF: Time 156359, Note Name: C3
Note ON: Time 156360, Note Name: G2, Velocity: 58
Note OFF: Time 156479, Note Name: G2
Note ON: Time 156480, Note Name: C2, Velocity: 113
Note OFF: Time 156599, Note Name: C2
Note ON: Time 156600, Note Name: G2, Velocity: 57
Note OFF: Time 156719, Note Name: G2
Note ON: Time 156720, Note Name: C3, Velocity: 57
Note OFF: Time 156839, Note Name: C3
Note ON: Time 156840, Note Name: G2, Velocity: 57
Note OFF: Time 156959, Note Name: G2
Note ON: Time 156960, Note Name: G1, Velocity: 108
Note OFF: Time 157079, Note Name: G1
Note ON: Time 157080, Note Name: G2, Velocity: 57
Note OFF: Time 157199, Note Name: G2
Note ON: Time 157200, Note Name: C3, Velocity: 57
Note OFF: Time 157319, Note Name: C3
Note ON: Time 157320, Note Name: G2, Velocity: 57
Note OFF: Time 157439, Note Name: G2
Note ON: Time 157440, Note Name: C1, Velocity: 97
Note ON: Time 157440, Note Name: C2, Velocity: 111
Note OFF: Time 157920, Note Name: C2
Note OFF: Time 157920, Note Name: C1
Note ON: Time 158400, Note Name: C3, Velocity: 70
Note ON: Time 158400, Note Name: G3, Velocity: 77
Note ON: Time 158400, Note Name: C4, Velocity: 82
Note OFF: Time 159360, Note Name: C4
Note OFF: Time 159360, Note Name: G3
Note OFF: Time 159360, Note Name: C3
Track 3: Chopin: Etude No.12 in C Minor Op. 25
Track 4: Copyright  2003 by Bernd Krueger
Track 5: http://www.piano-midi.de
Track 6: Edition: 31.3.2003
Track 7: Spur 7
