Processing chpn_op35_1.mid...

Track 0: Sonate opus 35, 1. Satz
Track 1: Piano right
Note ON: Time 11520, Note Name: C#5, Velocity: 54
Note OFF: Time 11640, Note Name: C#5
Note ON: Time 11640, Note Name: A#4, Velocity: 51
Note OFF: Time 11700, Note Name: A#4
Note ON: Time 11880, Note Name: C5, Velocity: 51
Note OFF: Time 12000, Note Name: C5
Note ON: Time 12000, Note Name: C#5, Velocity: 54
Note OFF: Time 12120, Note Name: C#5
Note ON: Time 12120, Note Name: A#4, Velocity: 51
Note OFF: Time 12180, Note Name: A#4
Note ON: Time 12480, Note Name: C#5, Velocity: 54
Note OFF: Time 12600, Note Name: C#5
Note ON: Time 12600, Note Name: A#4, Velocity: 51
Note OFF: Time 12660, Note Name: A#4
Note ON: Time 12840, Note Name: C5, Velocity: 51
Note OFF: Time 12960, Note Name: C5
Note ON: Time 12960, Note Name: C#5, Velocity: 54
Note OFF: Time 13080, Note Name: C#5
Note ON: Time 13080, Note Name: A#4, Velocity: 51
Note OFF: Time 13140, Note Name: A#4
Note ON: Time 13440, Note Name: C#5, Velocity: 54
Note OFF: Time 13560, Note Name: C#5
Note ON: Time 13560, Note Name: A#4, Velocity: 51
Note OFF: Time 13620, Note Name: A#4
Note ON: Time 13800, Note Name: C5, Velocity: 61
Note OFF: Time 13920, Note Name: C5
Note ON: Time 13920, Note Name: C#5, Velocity: 66
Note OFF: Time 14040, Note Name: C#5
Note ON: Time 14040, Note Name: A#5, Velocity: 64
Note OFF: Time 14100, Note Name: A#5
Note ON: Time 14400, Note Name: A5, Velocity: 61
Note OFF: Time 14520, Note Name: A5
Note ON: Time 14520, Note Name: C5, Velocity: 57
Note OFF: Time 14580, Note Name: C5
Note ON: Time 14760, Note Name: C#5, Velocity: 49
Note OFF: Time 14880, Note Name: C#5
Note ON: Time 14880, Note Name: D#5, Velocity: 52
Note OFF: Time 15000, Note Name: D#5
Note ON: Time 15000, Note Name: C5, Velocity: 49
Note OFF: Time 15060, Note Name: C5
Note ON: Time 15360, Note Name: F#5, Velocity: 55
Note OFF: Time 15480, Note Name: F#5
Note ON: Time 15480, Note Name: C5, Velocity: 49
Note OFF: Time 15540, Note Name: C5
Note ON: Time 15720, Note Name: C#5, Velocity: 49
Note OFF: Time 15840, Note Name: C#5
Note ON: Time 15840, Note Name: D#5, Velocity: 52
Note OFF: Time 15960, Note Name: D#5
Note ON: Time 15960, Note Name: C5, Velocity: 49
Note OFF: Time 16020, Note Name: C5
Note ON: Time 16320, Note Name: F#5, Velocity: 55
Note OFF: Time 16440, Note Name: F#5
Note ON: Time 16440, Note Name: C5, Velocity: 49
Note OFF: Time 16500, Note Name: C5
Note ON: Time 16680, Note Name: C#5, Velocity: 49
Note OFF: Time 16800, Note Name: C#5
Note ON: Time 16800, Note Name: D#5, Velocity: 52
Note OFF: Time 16920, Note Name: D#5
Note ON: Time 16920, Note Name: C5, Velocity: 49
Note OFF: Time 16980, Note Name: C5
Note ON: Time 17280, Note Name: F#5, Velocity: 58
Note OFF: Time 17400, Note Name: F#5
Note ON: Time 17400, Note Name: C5, Velocity: 51
Note OFF: Time 17460, Note Name: C5
Note ON: Time 17640, Note Name: C#5, Velocity: 65
Note OFF: Time 17760, Note Name: C#5
Note ON: Time 17760, Note Name: D#5, Velocity: 71
Note OFF: Time 17880, Note Name: D#5
Note ON: Time 17880, Note Name: C6, Velocity: 64
Note OFF: Time 17940, Note Name: C6
Note ON: Time 18240, Note Name: C6, Velocity: 61
Note ON: Time 18360, Note Name: C#5, Velocity: 57
Note OFF: Time 18420, Note Name: C#5
Note OFF: Time 18480, Note Name: C6
Note ON: Time 18600, Note Name: D#5, Velocity: 49
Note OFF: Time 18720, Note Name: D#5
Note ON: Time 18720, Note Name: A#5, Velocity: 52
Note ON: Time 18720, Note Name: F5, Velocity: 52
Note OFF: Time 18840, Note Name: F5
Note ON: Time 18840, Note Name: C#5, Velocity: 49
Note OFF: Time 18900, Note Name: C#5
Note OFF: Time 18960, Note Name: A#5
Note ON: Time 19200, Note Name: C#6, Velocity: 82
Note ON: Time 19200, Note Name: C#5, Velocity: 69
Note OFF: Time 19320, Note Name: C#5
Note OFF: Time 19320, Note Name: C#6
Note ON: Time 19320, Note Name: C6, Velocity: 75
Note ON: Time 19320, Note Name: G5, Velocity: 63
Note OFF: Time 19380, Note Name: G5
Note OFF: Time 19380, Note Name: C6
Note ON: Time 19560, Note Name: C#5, Velocity: 61
Note ON: Time 19560, Note Name: A#5, Velocity: 72
Note OFF: Time 19680, Note Name: A#5
Note OFF: Time 19680, Note Name: C#5
Note ON: Time 19680, Note Name: A5, Velocity: 78
Note ON: Time 19680, Note Name: F5, Velocity: 64
Note OFF: Time 19800, Note Name: F5
Note OFF: Time 19800, Note Name: A5
Note ON: Time 19800, Note Name: C5, Velocity: 57
Note ON: Time 19800, Note Name: C6, Velocity: 68
Note OFF: Time 19860, Note Name: C6
Note OFF: Time 19860, Note Name: C5
Note ON: Time 20160, Note Name: F#4, Velocity: 46
Note ON: Time 20160, Note Name: F#5, Velocity: 55
Note OFF: Time 20280, Note Name: F#5
Note OFF: Time 20280, Note Name: F#4
Note ON: Time 20280, Note Name: C5, Velocity: 42
Note ON: Time 20280, Note Name: F5, Velocity: 50
Note OFF: Time 20340, Note Name: F5
Note OFF: Time 20340, Note Name: C5
Note ON: Time 20520, Note Name: F#4, Velocity: 40
Note ON: Time 20520, Note Name: D#5, Velocity: 49
Note OFF: Time 20640, Note Name: D#5
Note OFF: Time 20640, Note Name: F#4
Note ON: Time 20640, Note Name: C#5, Velocity: 52
Note ON: Time 20640, Note Name: A#4, Velocity: 44
Note OFF: Time 20760, Note Name: A#4
Note OFF: Time 20760, Note Name: C#5
Note ON: Time 20760, Note Name: F4, Velocity: 40
Note ON: Time 20760, Note Name: F5, Velocity: 49
Note OFF: Time 20820, Note Name: F5
Note OFF: Time 20820, Note Name: F4
Note ON: Time 21120, Note Name: C#5, Velocity: 69
Note ON: Time 21120, Note Name: C#6, Velocity: 82
Note OFF: Time 21240, Note Name: C#6
Note OFF: Time 21240, Note Name: C#5
Note ON: Time 21240, Note Name: C6, Velocity: 75
Note ON: Time 21240, Note Name: G5, Velocity: 63
Note OFF: Time 21300, Note Name: G5
Note OFF: Time 21300, Note Name: C6
Note ON: Time 21480, Note Name: C#5, Velocity: 61
Note ON: Time 21480, Note Name: A#5, Velocity: 72
Note OFF: Time 21600, Note Name: A#5
Note OFF: Time 21600, Note Name: C#5
Note ON: Time 21600, Note Name: F5, Velocity: 64
Note ON: Time 21600, Note Name: A5, Velocity: 78
Note OFF: Time 21720, Note Name: A5
Note OFF: Time 21720, Note Name: F5
Note ON: Time 21720, Note Name: C5, Velocity: 57
Note ON: Time 21720, Note Name: C6, Velocity: 68
Note OFF: Time 21780, Note Name: C6
Note OFF: Time 21780, Note Name: C5
Note ON: Time 22080, Note Name: F#4, Velocity: 46
Note ON: Time 22080, Note Name: F#5, Velocity: 55
Note OFF: Time 22200, Note Name: F#5
Note OFF: Time 22200, Note Name: F#4
Note ON: Time 22200, Note Name: F5, Velocity: 50
Note ON: Time 22200, Note Name: C5, Velocity: 42
Note OFF: Time 22260, Note Name: C5
Note OFF: Time 22260, Note Name: F5
Note ON: Time 22440, Note Name: F#4, Velocity: 40
Note ON: Time 22440, Note Name: D#5, Velocity: 49
Note OFF: Time 22560, Note Name: D#5
Note OFF: Time 22560, Note Name: F#4
Note ON: Time 22560, Note Name: D5, Velocity: 52
Note ON: Time 22560, Note Name: A#4, Velocity: 44
Note OFF: Time 22680, Note Name: A#4
Note OFF: Time 22680, Note Name: D5
Note ON: Time 22680, Note Name: F5, Velocity: 49
Note ON: Time 22680, Note Name: C#5, Velocity: 40
Note ON: Time 22680, Note Name: F4, Velocity: 40
Note OFF: Time 22740, Note Name: F4
Note OFF: Time 22740, Note Name: C#5
Note OFF: Time 22740, Note Name: F5
Note ON: Time 23040, Note Name: A#5, Velocity: 75
Note ON: Time 23040, Note Name: F5, Velocity: 75
Note ON: Time 23040, Note Name: F6, Velocity: 89
Note OFF: Time 23160, Note Name: F6
Note OFF: Time 23160, Note Name: F5
Note OFF: Time 23160, Note Name: A#5
Note ON: Time 23160, Note Name: E6, Velocity: 83
Note ON: Time 23160, Note Name: E5, Velocity: 70
Note OFF: Time 23220, Note Name: E5
Note OFF: Time 23220, Note Name: E6
Note ON: Time 23400, Note Name: C#5, Velocity: 62
Note ON: Time 23400, Note Name: C#6, Velocity: 72
Note OFF: Time 23520, Note Name: C#6
Note OFF: Time 23520, Note Name: C#5
Note ON: Time 23520, Note Name: E5, Velocity: 68
Note ON: Time 23520, Note Name: C6, Velocity: 80
Note ON: Time 23520, Note Name: C5, Velocity: 68
Note OFF: Time 23640, Note Name: C5
Note OFF: Time 23640, Note Name: C6
Note OFF: Time 23640, Note Name: E5
Note ON: Time 23640, Note Name: A#5, Velocity: 75
Note ON: Time 23640, Note Name: A#4, Velocity: 62
Note OFF: Time 23700, Note Name: A#4
Note OFF: Time 23700, Note Name: A#5
Note ON: Time 24000, Note Name: A#4, Velocity: 68
Note ON: Time 24000, Note Name: A#5, Velocity: 80
Note OFF: Time 24120, Note Name: A#5
Note OFF: Time 24120, Note Name: A#4
Note ON: Time 24120, Note Name: G#5, Velocity: 73
Note ON: Time 24120, Note Name: E5, Velocity: 61
Note OFF: Time 24180, Note Name: E5
Note OFF: Time 24180, Note Name: G#5
Note ON: Time 24360, Note Name: G4, Velocity: 57
Note ON: Time 24360, Note Name: G5, Velocity: 68
Note OFF: Time 24480, Note Name: G5
Note OFF: Time 24480, Note Name: G4
Note ON: Time 24480, Note Name: D#5, Velocity: 59
Note ON: Time 24480, Note Name: F#5, Velocity: 69
Note OFF: Time 24600, Note Name: F#5
Note OFF: Time 24600, Note Name: D#5
Note ON: Time 24600, Note Name: F#4, Velocity: 55
Note ON: Time 24600, Note Name: C5, Velocity: 64
Note OFF: Time 24660, Note Name: C5
Note OFF: Time 24660, Note Name: F#4
Note ON: Time 24960, Note Name: G#4, Velocity: 57
Note ON: Time 24960, Note Name: G#5, Velocity: 68
Note OFF: Time 25080, Note Name: G#5
Note OFF: Time 25080, Note Name: G#4
Note ON: Time 25080, Note Name: D5, Velocity: 52
Note ON: Time 25080, Note Name: G5, Velocity: 62
Note OFF: Time 25140, Note Name: G5
Note OFF: Time 25140, Note Name: D5
Note ON: Time 25320, Note Name: F4, Velocity: 51
Note ON: Time 25320, Note Name: F5, Velocity: 61
Note OFF: Time 25440, Note Name: F5
Note OFF: Time 25440, Note Name: F4
Note ON: Time 25440, Note Name: C5, Velocity: 53
Note ON: Time 25440, Note Name: D#5, Velocity: 63
Note OFF: Time 25560, Note Name: D#5
Note OFF: Time 25560, Note Name: C5
Note ON: Time 25560, Note Name: D#4, Velocity: 44
Note ON: Time 25560, Note Name: G4, Velocity: 52
Note OFF: Time 25620, Note Name: G4
Note OFF: Time 25620, Note Name: D#4
Note ON: Time 25920, Note Name: C5, Velocity: 57
Note ON: Time 25920, Note Name: D#5, Velocity: 67
Note OFF: Time 26040, Note Name: D#5
Note OFF: Time 26040, Note Name: C5
Note ON: Time 26040, Note Name: F#4, Velocity: 59
Note ON: Time 26040, Note Name: D#4, Velocity: 49
Note OFF: Time 26100, Note Name: D#4
Note OFF: Time 26100, Note Name: F#4
Note ON: Time 26400, Note Name: D#5, Velocity: 62
Note ON: Time 26400, Note Name: C5, Velocity: 53
Note OFF: Time 26520, Note Name: C5
Note OFF: Time 26520, Note Name: D#5
Note ON: Time 26520, Note Name: D#4, Velocity: 46
Note ON: Time 26520, Note Name: F4, Velocity: 56
Note OFF: Time 26580, Note Name: F4
Note OFF: Time 26580, Note Name: D#4
Note ON: Time 26880, Note Name: C#5, Velocity: 68
Note OFF: Time 27000, Note Name: C#5
Note ON: Time 27000, Note Name: C#4, Velocity: 40
Note ON: Time 27000, Note Name: F4, Velocity: 40
Note ON: Time 27000, Note Name: A#4, Velocity: 59
Note OFF: Time 27120, Note Name: A#4
Note OFF: Time 27120, Note Name: F4
Note OFF: Time 27120, Note Name: C#4
Note ON: Time 27240, Note Name: C5, Velocity: 67
Note OFF: Time 27360, Note Name: C5
Note ON: Time 27360, Note Name: C#5, Velocity: 68
Note OFF: Time 27480, Note Name: C#5
Note ON: Time 27480, Note Name: C#4, Velocity: 40
Note ON: Time 27480, Note Name: F4, Velocity: 40
Note ON: Time 27480, Note Name: A#4, Velocity: 60
Note OFF: Time 27600, Note Name: A#4
Note OFF: Time 27600, Note Name: F4
Note OFF: Time 27600, Note Name: C#4
Note ON: Time 27840, Note Name: C#5, Velocity: 68
Note OFF: Time 27960, Note Name: C#5
Note ON: Time 27960, Note Name: F4, Velocity: 40
Note ON: Time 27960, Note Name: C#4, Velocity: 40
Note ON: Time 27960, Note Name: A#4, Velocity: 60
Note OFF: Time 28080, Note Name: A#4
Note OFF: Time 28080, Note Name: C#4
Note OFF: Time 28080, Note Name: F4
Note ON: Time 28200, Note Name: C5, Velocity: 68
Note OFF: Time 28320, Note Name: C5
Note ON: Time 28320, Note Name: C#5, Velocity: 68
Note OFF: Time 28440, Note Name: C#5
Note ON: Time 28440, Note Name: C#4, Velocity: 40
Note ON: Time 28440, Note Name: F4, Velocity: 40
Note ON: Time 28440, Note Name: A#4, Velocity: 60
Note OFF: Time 28560, Note Name: A#4
Note OFF: Time 28560, Note Name: F4
Note OFF: Time 28560, Note Name: C#4
Note ON: Time 28800, Note Name: C#5, Velocity: 68
Note OFF: Time 28920, Note Name: C#5
Note ON: Time 28920, Note Name: C#4, Velocity: 46
Note ON: Time 28920, Note Name: F4, Velocity: 46
Note ON: Time 28920, Note Name: A#4, Velocity: 67
Note OFF: Time 29040, Note Name: A#4
Note OFF: Time 29040, Note Name: F4
Note OFF: Time 29040, Note Name: C#4
Note ON: Time 29160, Note Name: C5, Velocity: 73
Note OFF: Time 29280, Note Name: C5
Note ON: Time 29280, Note Name: C#5, Velocity: 84
Note OFF: Time 29400, Note Name: C#5
Note ON: Time 29400, Note Name: A#4, Velocity: 52
Note ON: Time 29400, Note Name: F5, Velocity: 52
Note ON: Time 29400, Note Name: A#5, Velocity: 76
Note OFF: Time 29520, Note Name: A#5
Note OFF: Time 29520, Note Name: F5
Note OFF: Time 29520, Note Name: A#4
Note ON: Time 29760, Note Name: A5, Velocity: 76
Note OFF: Time 29880, Note Name: A5
Note ON: Time 29880, Note Name: A4, Velocity: 46
Note ON: Time 29880, Note Name: C5, Velocity: 67
Note OFF: Time 30000, Note Name: C5
Note OFF: Time 30000, Note Name: A4
Note ON: Time 30120, Note Name: C#5, Velocity: 67
Note OFF: Time 30240, Note Name: C#5
Note ON: Time 30240, Note Name: D#5, Velocity: 68
Note OFF: Time 30360, Note Name: D#5
Note ON: Time 30360, Note Name: F#4, Velocity: 40
Note ON: Time 30360, Note Name: A4, Velocity: 40
Note ON: Time 30360, Note Name: C5, Velocity: 60
Note OFF: Time 30480, Note Name: C5
Note OFF: Time 30480, Note Name: A4
Note OFF: Time 30480, Note Name: F#4
Note ON: Time 30720, Note Name: F#5, Velocity: 71
Note OFF: Time 30840, Note Name: F#5
Note ON: Time 30840, Note Name: A4, Velocity: 40
Note ON: Time 30840, Note Name: F#4, Velocity: 40
Note ON: Time 30840, Note Name: C5, Velocity: 59
Note OFF: Time 30960, Note Name: C5
Note OFF: Time 30960, Note Name: F#4
Note OFF: Time 30960, Note Name: A4
Note ON: Time 31080, Note Name: C#5, Velocity: 67
Note OFF: Time 31200, Note Name: C#5
Note ON: Time 31200, Note Name: D#5, Velocity: 68
Note OFF: Time 31320, Note Name: D#5
Note ON: Time 31320, Note Name: F#4, Velocity: 40
Note ON: Time 31320, Note Name: A4, Velocity: 40
Note ON: Time 31320, Note Name: C5, Velocity: 60
Note OFF: Time 31440, Note Name: C5
Note OFF: Time 31440, Note Name: A4
Note OFF: Time 31440, Note Name: F#4
Note ON: Time 31680, Note Name: F#5, Velocity: 71
Note OFF: Time 31800, Note Name: F#5
Note ON: Time 31800, Note Name: F#4, Velocity: 40
Note ON: Time 31800, Note Name: A4, Velocity: 40
Note ON: Time 31800, Note Name: C5, Velocity: 59
Note OFF: Time 31920, Note Name: C5
Note OFF: Time 31920, Note Name: A4
Note OFF: Time 31920, Note Name: F#4
Note ON: Time 32040, Note Name: C#5, Velocity: 67
Note OFF: Time 32160, Note Name: C#5
Note ON: Time 32160, Note Name: D#5, Velocity: 68
Note OFF: Time 32280, Note Name: D#5
Note ON: Time 32280, Note Name: F#4, Velocity: 40
Note ON: Time 32280, Note Name: A4, Velocity: 40
Note ON: Time 32280, Note Name: C5, Velocity: 60
Note OFF: Time 32400, Note Name: C5
Note OFF: Time 32400, Note Name: A4
Note OFF: Time 32400, Note Name: F#4
Note ON: Time 32640, Note Name: F#5, Velocity: 74
Note OFF: Time 32760, Note Name: F#5
Note ON: Time 32760, Note Name: F#4, Velocity: 42
Note ON: Time 32760, Note Name: A4, Velocity: 42
Note ON: Time 32760, Note Name: C5, Velocity: 63
Note OFF: Time 32880, Note Name: C5
Note OFF: Time 32880, Note Name: A4
Note OFF: Time 32880, Note Name: F#4
Note ON: Time 33000, Note Name: C#5, Velocity: 78
Note OFF: Time 33120, Note Name: C#5
Note ON: Time 33120, Note Name: D#5, Velocity: 88
Note OFF: Time 33240, Note Name: D#5
Note ON: Time 33240, Note Name: C5, Velocity: 54
Note ON: Time 33240, Note Name: F#5, Velocity: 54
Note ON: Time 33240, Note Name: C6, Velocity: 78
Note OFF: Time 33360, Note Name: C6
Note OFF: Time 33360, Note Name: F#5
Note OFF: Time 33360, Note Name: C5
Note ON: Time 33600, Note Name: C6, Velocity: 73
Note OFF: Time 33720, Note Name: C6
Note ON: Time 33720, Note Name: C5, Velocity: 50
Note ON: Time 33720, Note Name: C#5, Velocity: 72
Note OFF: Time 33840, Note Name: C#5
Note OFF: Time 33840, Note Name: C5
Note ON: Time 33960, Note Name: D#5, Velocity: 64
Note OFF: Time 34080, Note Name: D#5
Note ON: Time 34080, Note Name: F5, Velocity: 69
Note OFF: Time 34200, Note Name: F5
Note ON: Time 34200, Note Name: A#4, Velocity: 44
Note ON: Time 34200, Note Name: A#5, Velocity: 69
Note ON: Time 34200, Note Name: C#5, Velocity: 44
Note OFF: Time 34320, Note Name: C#5
Note OFF: Time 34320, Note Name: A#5
Note OFF: Time 34320, Note Name: A#4
Note ON: Time 34560, Note Name: C#6, Velocity: 85
Note OFF: Time 34680, Note Name: C#6
Note ON: Time 34680, Note Name: C#5, Velocity: 71
Note ON: Time 34680, Note Name: C6, Velocity: 84
Note ON: Time 34680, Note Name: G5, Velocity: 71
Note OFF: Time 34800, Note Name: G5
Note OFF: Time 34800, Note Name: C6
Note OFF: Time 34800, Note Name: C#5
Note ON: Time 34920, Note Name: A#5, Velocity: 80
Note OFF: Time 35040, Note Name: A#5
Note ON: Time 35040, Note Name: A5, Velocity: 86
Note OFF: Time 35160, Note Name: A5
Note ON: Time 35160, Note Name: F5, Velocity: 67
Note ON: Time 35160, Note Name: C5, Velocity: 67
Note ON: Time 35160, Note Name: C6, Velocity: 80
Note OFF: Time 35280, Note Name: C6
Note OFF: Time 35280, Note Name: C5
Note OFF: Time 35280, Note Name: F5
Note ON: Time 35520, Note Name: F#5, Velocity: 67
Note OFF: Time 35640, Note Name: F#5
Note ON: Time 35640, Note Name: F#4, Velocity: 55
Note ON: Time 35640, Note Name: F5, Velocity: 66
Note ON: Time 35640, Note Name: C5, Velocity: 55
Note OFF: Time 35760, Note Name: C5
Note OFF: Time 35760, Note Name: F5
Note OFF: Time 35760, Note Name: F#4
Note ON: Time 35880, Note Name: D#5, Velocity: 64
Note OFF: Time 36000, Note Name: D#5
Note ON: Time 36000, Note Name: D5, Velocity: 69
Note OFF: Time 36120, Note Name: D5
Note ON: Time 36120, Note Name: A#4, Velocity: 53
Note ON: Time 36120, Note Name: F5, Velocity: 64
Note ON: Time 36120, Note Name: C#5, Velocity: 53
Note ON: Time 36120, Note Name: F4, Velocity: 53
Note OFF: Time 36240, Note Name: F4
Note OFF: Time 36240, Note Name: A#4
Note OFF: Time 36240, Note Name: F5
Note OFF: Time 36240, Note Name: C#5
Note ON: Time 36480, Note Name: C#6, Velocity: 85
Note OFF: Time 36600, Note Name: C#6
Note ON: Time 36600, Note Name: C#5, Velocity: 71
Note ON: Time 36600, Note Name: C6, Velocity: 84
Note ON: Time 36600, Note Name: G5, Velocity: 71
Note OFF: Time 36720, Note Name: G5
Note OFF: Time 36720, Note Name: C6
Note OFF: Time 36720, Note Name: C#5
Note ON: Time 36840, Note Name: A#5, Velocity: 80
Note OFF: Time 36960, Note Name: A#5
Note ON: Time 36960, Note Name: A5, Velocity: 86
Note OFF: Time 37080, Note Name: A5
Note ON: Time 37080, Note Name: F5, Velocity: 67
Note ON: Time 37080, Note Name: C5, Velocity: 67
Note ON: Time 37080, Note Name: C6, Velocity: 80
Note OFF: Time 37200, Note Name: C6
Note OFF: Time 37200, Note Name: C5
Note OFF: Time 37200, Note Name: F5
Note ON: Time 37440, Note Name: B5, Velocity: 84
Note OFF: Time 37560, Note Name: B5
Note ON: Time 37560, Note Name: B4, Velocity: 65
Note ON: Time 37560, Note Name: A#5, Velocity: 77
Note ON: Time 37560, Note Name: F5, Velocity: 65
Note OFF: Time 37680, Note Name: F5
Note OFF: Time 37680, Note Name: A#5
Note OFF: Time 37680, Note Name: B4
Note ON: Time 37800, Note Name: G#5, Velocity: 80
Note OFF: Time 37920, Note Name: G#5
Note ON: Time 37920, Note Name: G5, Velocity: 86
Note OFF: Time 38040, Note Name: G5
Note ON: Time 38040, Note Name: F#5, Velocity: 63
Note ON: Time 38040, Note Name: A#4, Velocity: 63
Note ON: Time 38040, Note Name: A#5, Velocity: 75
Note OFF: Time 38160, Note Name: A#5
Note OFF: Time 38160, Note Name: A#4
Note OFF: Time 38160, Note Name: F#5
Note ON: Time 38400, Note Name: F#5, Velocity: 83
Note ON: Time 38400, Note Name: A4, Velocity: 83
Note ON: Time 38400, Note Name: A5, Velocity: 99
Note OFF: Time 38640, Note Name: A5
Note OFF: Time 38640, Note Name: A4
Note ON: Time 38640, Note Name: A#4, Velocity: 66
Note ON: Time 38640, Note Name: A#5, Velocity: 79
Note OFF: Time 38880, Note Name: A#5
Note OFF: Time 38880, Note Name: A#4
Note ON: Time 38880, Note Name: A4, Velocity: 75
Note ON: Time 38880, Note Name: A5, Velocity: 89
Note OFF: Time 39120, Note Name: A5
Note OFF: Time 39120, Note Name: A4
Note OFF: Time 39120, Note Name: F#5
Note ON: Time 39120, Note Name: A#5, Velocity: 79
Note ON: Time 39120, Note Name: A#4, Velocity: 66
Note ON: Time 39120, Note Name: F5, Velocity: 66
Note OFF: Time 39360, Note Name: F5
Note OFF: Time 39360, Note Name: A#4
Note OFF: Time 39360, Note Name: A#5
Note ON: Time 39360, Note Name: A4, Velocity: 78
Note ON: Time 39360, Note Name: F5, Velocity: 78
Note ON: Time 39360, Note Name: A5, Velocity: 92
Note OFF: Time 39600, Note Name: A5
Note OFF: Time 39600, Note Name: F5
Note OFF: Time 39600, Note Name: A4
Note ON: Time 39600, Note Name: D#5, Velocity: 67
Note ON: Time 39600, Note Name: A#4, Velocity: 67
Note ON: Time 39600, Note Name: A#5, Velocity: 80
Note OFF: Time 39840, Note Name: A#5
Note OFF: Time 39840, Note Name: A#4
Note ON: Time 39840, Note Name: A4, Velocity: 74
Note ON: Time 39840, Note Name: A5, Velocity: 89
Note OFF: Time 40080, Note Name: A5
Note OFF: Time 40080, Note Name: A4
Note OFF: Time 40080, Note Name: D#5
Note ON: Time 40080, Note Name: A#4, Velocity: 67
Note ON: Time 40080, Note Name: C#5, Velocity: 67
Note ON: Time 40080, Note Name: A#5, Velocity: 80
Note OFF: Time 40320, Note Name: A#5
Note OFF: Time 40320, Note Name: C#5
Note OFF: Time 40320, Note Name: A#4
Note ON: Time 40320, Note Name: F#4, Velocity: 84
Note ON: Time 40320, Note Name: C#4, Velocity: 79
Note ON: Time 40320, Note Name: C#5, Velocity: 100
Note OFF: Time 40440, Note Name: C#5
Note OFF: Time 40440, Note Name: C#4
Note OFF: Time 40440, Note Name: F#4
Note ON: Time 40560, Note Name: C4, Velocity: 65
Note ON: Time 40560, Note Name: F#4, Velocity: 73
Note ON: Time 40560, Note Name: C5, Velocity: 86
Note OFF: Time 40680, Note Name: C5
Note OFF: Time 40680, Note Name: F#4
Note OFF: Time 40680, Note Name: C4
Note ON: Time 41040, Note Name: A#4, Velocity: 66
Note ON: Time 41040, Note Name: C#4, Velocity: 56
Note ON: Time 41040, Note Name: F#4, Velocity: 58
Note ON: Time 41040, Note Name: G#3, Velocity: 56
Note OFF: Time 41280, Note Name: G#3
Note OFF: Time 41280, Note Name: A#4
Note OFF: Time 41280, Note Name: C#4
Note OFF: Time 41280, Note Name: F#4
Note ON: Time 41280, Note Name: G#3, Velocity: 58
Note ON: Time 41280, Note Name: A#4, Velocity: 68
Note ON: Time 41280, Note Name: D4, Velocity: 58
Note ON: Time 41280, Note Name: F#4, Velocity: 56
Note OFF: Time 41760, Note Name: F#4
Note OFF: Time 41760, Note Name: G#3
Note OFF: Time 41760, Note Name: A#4
Note OFF: Time 41760, Note Name: D4
Note ON: Time 41760, Note Name: G#4, Velocity: 62
Note ON: Time 41760, Note Name: D#4, Velocity: 53
Note ON: Time 41760, Note Name: F#4, Velocity: 62
Note ON: Time 41760, Note Name: G#3, Velocity: 53
Note OFF: Time 42120, Note Name: G#3
Note OFF: Time 42120, Note Name: G#4
Note OFF: Time 42120, Note Name: D#4
Note OFF: Time 42120, Note Name: F#4
Note ON: Time 42120, Note Name: F3, Velocity: 49
Note OFF: Time 42240, Note Name: F3
Note ON: Time 42240, Note Name: F3, Velocity: 41
Note ON: Time 42240, Note Name: C#4, Velocity: 41
Note ON: Time 42240, Note Name: G#4, Velocity: 49
Note OFF: Time 43200, Note Name: G#4
Note OFF: Time 43200, Note Name: C#4
Note OFF: Time 43200, Note Name: F3
Note ON: Time 43200, Note Name: G#3, Velocity: 41
Note ON: Time 43200, Note Name: C#4, Velocity: 41
Note ON: Time 43200, Note Name: F4, Velocity: 49
Note OFF: Time 43680, Note Name: F4
Note OFF: Time 43680, Note Name: C#4
Note OFF: Time 43680, Note Name: G#3
Note ON: Time 43680, Note Name: F#4, Velocity: 44
Note ON: Time 43680, Note Name: A#3, Velocity: 37
Note ON: Time 43680, Note Name: D#4, Velocity: 37
Note OFF: Time 44160, Note Name: D#4
Note OFF: Time 44160, Note Name: A#3
Note OFF: Time 44160, Note Name: F#4
Note ON: Time 44160, Note Name: F#3, Velocity: 31
Note ON: Time 44160, Note Name: C4, Velocity: 37
Note ON: Time 44160, Note Name: F4, Velocity: 46
Note OFF: Time 45120, Note Name: F4
Note ON: Time 45120, Note Name: D#4, Velocity: 41
Note ON: Time 45960, Note Name: F3, Velocity: 41
Note ON: Time 46020, Note Name: C#4, Velocity: 41
Note OFF: Time 46080, Note Name: D#4
Note OFF: Time 46080, Note Name: F#3
Note OFF: Time 46080, Note Name: C4
Note ON: Time 46080, Note Name: G#4, Velocity: 49
Note OFF: Time 46560, Note Name: G#4
Note OFF: Time 46560, Note Name: F3
Note ON: Time 46560, Note Name: G#3, Velocity: 41
Note ON: Time 46560, Note Name: F4, Velocity: 49
Note OFF: Time 47040, Note Name: F4
Note OFF: Time 47040, Note Name: G#3
Note OFF: Time 47040, Note Name: C#4
Note ON: Time 47040, Note Name: F#4, Velocity: 49
Note ON: Time 47040, Note Name: A#3, Velocity: 41
Note ON: Time 47040, Note Name: C#4, Velocity: 41
Note OFF: Time 47280, Note Name: A#3
Note OFF: Time 47280, Note Name: F#4
Note ON: Time 47280, Note Name: G#3, Velocity: 39
Note ON: Time 47280, Note Name: F4, Velocity: 47
Note OFF: Time 47520, Note Name: F4
Note OFF: Time 47520, Note Name: G#3
Note OFF: Time 47520, Note Name: C#4
Note ON: Time 47520, Note Name: D#4, Velocity: 41
Note ON: Time 47520, Note Name: C4, Velocity: 37
Note ON: Time 47520, Note Name: G#4, Velocity: 44
Note OFF: Time 47760, Note Name: G#4
Note OFF: Time 47760, Note Name: C4
Note ON: Time 47760, Note Name: A#3, Velocity: 35
Note ON: Time 47760, Note Name: F#4, Velocity: 41
Note OFF: Time 48000, Note Name: F#4
Note OFF: Time 48000, Note Name: A#3
Note OFF: Time 48000, Note Name: D#4
Note ON: Time 48000, Note Name: F#3, Velocity: 29
Note ON: Time 48000, Note Name: C4, Velocity: 36
Note ON: Time 48000, Note Name: F4, Velocity: 45
Note OFF: Time 48960, Note Name: F4
Note ON: Time 48960, Note Name: D#4, Velocity: 41
Note OFF: Time 49920, Note Name: D#4
Note OFF: Time 49920, Note Name: C4
Note OFF: Time 49920, Note Name: F#3
Note ON: Time 49920, Note Name: G#4, Velocity: 52
Note ON: Time 49920, Note Name: C#4, Velocity: 40
Note ON: Time 49920, Note Name: F3, Velocity: 41
Note OFF: Time 50400, Note Name: F3
Note OFF: Time 50400, Note Name: G#4
Note ON: Time 50400, Note Name: E4, Velocity: 44
Note ON: Time 50400, Note Name: A#4, Velocity: 51
Note OFF: Time 50880, Note Name: A#4
Note OFF: Time 50880, Note Name: E4
Note OFF: Time 50880, Note Name: C#4
Note ON: Time 50880, Note Name: D#4, Velocity: 44
Note ON: Time 50880, Note Name: C5, Velocity: 52
Note OFF: Time 51360, Note Name: C5
Note OFF: Time 51360, Note Name: D#4
Note ON: Time 51360, Note Name: C#5, Velocity: 58
Note ON: Time 51360, Note Name: F#4, Velocity: 49
Note OFF: Time 51720, Note Name: C#5
Note ON: Time 51720, Note Name: C5, Velocity: 53
Note ON: Time 51720, Note Name: D#5, Velocity: 60
Note OFF: Time 51840, Note Name: D#5
Note OFF: Time 51840, Note Name: C5
Note OFF: Time 51840, Note Name: F#4
Note ON: Time 51840, Note Name: F4, Velocity: 42
Note ON: Time 51840, Note Name: C#5, Velocity: 47
Note ON: Time 51840, Note Name: F5, Velocity: 61
Note OFF: Time 52320, Note Name: F5
Note OFF: Time 52320, Note Name: C#5
Note OFF: Time 52320, Note Name: F4
Note ON: Time 52320, Note Name: E4, Velocity: 44
Note ON: Time 52320, Note Name: C#4, Velocity: 44
Note ON: Time 52320, Note Name: A#4, Velocity: 51
Note OFF: Time 52800, Note Name: A#4
Note OFF: Time 52800, Note Name: C#4
Note OFF: Time 52800, Note Name: E4
Note ON: Time 52800, Note Name: C4, Velocity: 44
Note ON: Time 52800, Note Name: D#4, Velocity: 44
Note ON: Time 52800, Note Name: C5, Velocity: 52
Note OFF: Time 53220, Note Name: C5
Note OFF: Time 53220, Note Name: C4
Note ON: Time 53220, Note Name: A#3, Velocity: 56
Note ON: Time 53280, Note Name: C#5, Velocity: 58
Note OFF: Time 53640, Note Name: C#5
Note ON: Time 53640, Note Name: D#5, Velocity: 60
Note OFF: Time 53760, Note Name: D#5
Note OFF: Time 53760, Note Name: A#3
Note OFF: Time 53760, Note Name: D#4
Note ON: Time 53760, Note Name: F4, Velocity: 53
Note ON: Time 53760, Note Name: C5, Velocity: 53
Note ON: Time 53760, Note Name: F5, Velocity: 63
Note OFF: Time 54240, Note Name: F5
Note OFF: Time 54240, Note Name: F4
Note ON: Time 54240, Note Name: D#5, Velocity: 60
Note ON: Time 54240, Note Name: F4, Velocity: 53
Note OFF: Time 54720, Note Name: D#5
Note OFF: Time 54720, Note Name: C5
Note ON: Time 54720, Note Name: C#4, Velocity: 53
Note ON: Time 54720, Note Name: A#4, Velocity: 63
Note ON: Time 54720, Note Name: C#5, Velocity: 63
Note OFF: Time 55200, Note Name: C#5
Note OFF: Time 55200, Note Name: F4
Note OFF: Time 55200, Note Name: C#4
Note OFF: Time 55200, Note Name: A#4
Note ON: Time 55200, Note Name: E4, Velocity: 53
Note ON: Time 55200, Note Name: G#4, Velocity: 53
Note ON: Time 55200, Note Name: C5, Velocity: 63
Note OFF: Time 55560, Note Name: C5
Note OFF: Time 55560, Note Name: G#4
Note OFF: Time 55560, Note Name: E4
Note ON: Time 55560, Note Name: F4, Velocity: 57
Note ON: Time 55560, Note Name: A#4, Velocity: 57
Note OFF: Time 55680, Note Name: A#4
Note OFF: Time 55680, Note Name: F4
Note ON: Time 55680, Note Name: B3, Velocity: 51
Note ON: Time 55680, Note Name: F4, Velocity: 56
Note ON: Time 55680, Note Name: G#4, Velocity: 61
Note OFF: Time 56160, Note Name: G#4
Note OFF: Time 56160, Note Name: F4
Note OFF: Time 56160, Note Name: B3
Note ON: Time 56160, Note Name: D#4, Velocity: 59
Note ON: Time 56160, Note Name: F#3, Velocity: 47
Note ON: Time 56160, Note Name: A#3, Velocity: 49
Note ON: Time 56160, Note Name: F#4, Velocity: 59
Note OFF: Time 56520, Note Name: F#4
Note OFF: Time 56520, Note Name: D#4
Note OFF: Time 56520, Note Name: F#3
Note OFF: Time 56520, Note Name: A#3
Note ON: Time 56520, Note Name: G#3, Velocity: 47
Note ON: Time 56520, Note Name: C#4, Velocity: 56
Note ON: Time 56520, Note Name: F4, Velocity: 56
Note OFF: Time 56640, Note Name: F4
Note OFF: Time 56640, Note Name: C#4
Note OFF: Time 56640, Note Name: G#3
Note ON: Time 56640, Note Name: D#4, Velocity: 59
Note ON: Time 56640, Note Name: A#3, Velocity: 49
Note ON: Time 56640, Note Name: C#4, Velocity: 59
Note OFF: Time 57120, Note Name: C#4
Note OFF: Time 57120, Note Name: A#3
Note ON: Time 57120, Note Name: F#3, Velocity: 47
Note ON: Time 57120, Note Name: C4, Velocity: 53
Note OFF: Time 57360, Note Name: D#4
Note ON: Time 57360, Note Name: E4, Velocity: 60
Note OFF: Time 57480, Note Name: E4
Note OFF: Time 57480, Note Name: C4
Note OFF: Time 57480, Note Name: F#3
Note ON: Time 57480, Note Name: F4, Velocity: 55
Note ON: Time 57540, Note Name: C#5, Velocity: 60
Note ON: Time 57600, Note Name: G#5, Velocity: 72
Note OFF: Time 58560, Note Name: G#5
Note OFF: Time 58560, Note Name: C#5
Note OFF: Time 58560, Note Name: F4
Note ON: Time 58560, Note Name: G#4, Velocity: 49
Note ON: Time 58560, Note Name: C#5, Velocity: 49
Note ON: Time 58560, Note Name: F5, Velocity: 60
Note OFF: Time 59040, Note Name: F5
Note OFF: Time 59040, Note Name: C#5
Note OFF: Time 59040, Note Name: G#4
Note ON: Time 59040, Note Name: F4, Velocity: 34
Note ON: Time 59040, Note Name: G#4, Velocity: 39
Note OFF: Time 59280, Note Name: G#4
Note OFF: Time 59280, Note Name: F4
Note ON: Time 59280, Note Name: A#4, Velocity: 41
Note ON: Time 59280, Note Name: D#5, Velocity: 41
Note ON: Time 59280, Note Name: F#5, Velocity: 55
Note OFF: Time 59520, Note Name: F#5
Note OFF: Time 59520, Note Name: D#5
Note OFF: Time 59520, Note Name: A#4
Note ON: Time 59520, Note Name: F5, Velocity: 65
Note ON: Time 59520, Note Name: F#4, Velocity: 38
Note ON: Time 59520, Note Name: C5, Velocity: 45
Note OFF: Time 60240, Note Name: F5
Note ON: Time 60240, Note Name: D#5, Velocity: 55
Note OFF: Time 60480, Note Name: D#5
Note OFF: Time 60480, Note Name: C5
Note OFF: Time 60480, Note Name: F#4
Note ON: Time 60480, Note Name: A#4, Velocity: 58
Note OFF: Time 60720, Note Name: A#4
Note ON: Time 60720, Note Name: G#4, Velocity: 52
Note OFF: Time 60960, Note Name: G#4
Note ON: Time 60960, Note Name: C#4, Velocity: 61
Note OFF: Time 61200, Note Name: C#4
Note ON: Time 61200, Note Name: D#4, Velocity: 55
Note OFF: Time 61320, Note Name: D#4
Note ON: Time 61320, Note Name: F4, Velocity: 62
Note OFF: Time 61440, Note Name: F4
Note ON: Time 61440, Note Name: F4, Velocity: 55
Note ON: Time 61440, Note Name: C#5, Velocity: 57
Note ON: Time 61440, Note Name: G#5, Velocity: 68
Note OFF: Time 61920, Note Name: G#5
Note OFF: Time 61920, Note Name: F4
Note ON: Time 61920, Note Name: G#4, Velocity: 49
Note ON: Time 61920, Note Name: F5, Velocity: 62
Note OFF: Time 62400, Note Name: F5
Note OFF: Time 62400, Note Name: G#4
Note OFF: Time 62400, Note Name: C#5
Note ON: Time 62400, Note Name: F#5, Velocity: 66
Note ON: Time 62400, Note Name: C#5, Velocity: 57
Note ON: Time 62400, Note Name: A#4, Velocity: 55
Note OFF: Time 62640, Note Name: A#4
Note OFF: Time 62640, Note Name: F#5
Note ON: Time 62640, Note Name: G#4, Velocity: 46
Note ON: Time 62640, Note Name: F5, Velocity: 55
Note OFF: Time 62880, Note Name: F5
Note OFF: Time 62880, Note Name: G#4
Note OFF: Time 62880, Note Name: C#5
Note ON: Time 62880, Note Name: G#4, Velocity: 48
Note ON: Time 62880, Note Name: F5, Velocity: 57
Note OFF: Time 63040, Note Name: F5
Note OFF: Time 63040, Note Name: G#4
Note ON: Time 63040, Note Name: C5, Velocity: 46
Note ON: Time 63040, Note Name: G#5, Velocity: 55
Note OFF: Time 63200, Note Name: G#5
Note OFF: Time 63200, Note Name: C5
Note ON: Time 63200, Note Name: A#4, Velocity: 46
Note ON: Time 63200, Note Name: F#5, Velocity: 55
Note OFF: Time 63360, Note Name: F#5
Note OFF: Time 63360, Note Name: A#4
Note ON: Time 63360, Note Name: F5, Velocity: 61
Note ON: Time 63360, Note Name: F#4, Velocity: 32
Note ON: Time 63360, Note Name: C5, Velocity: 38
Note OFF: Time 64080, Note Name: F5
Note ON: Time 64080, Note Name: D#5, Velocity: 60
Note OFF: Time 64320, Note Name: D#5
Note OFF: Time 64320, Note Name: C5
Note OFF: Time 64320, Note Name: F#4
Note ON: Time 64320, Note Name: A#4, Velocity: 60
Note OFF: Time 64480, Note Name: A#4
Note ON: Time 64480, Note Name: G#4, Velocity: 51
Note OFF: Time 64640, Note Name: G#4
Note ON: Time 64640, Note Name: A#4, Velocity: 51
Note OFF: Time 64800, Note Name: A#4
Note ON: Time 64800, Note Name: G#4, Velocity: 58
Note OFF: Time 64960, Note Name: G#4
Note ON: Time 64960, Note Name: C#4, Velocity: 53
Note OFF: Time 65120, Note Name: C#4
Note ON: Time 65120, Note Name: D#4, Velocity: 53
Note OFF: Time 65280, Note Name: D#4
Note ON: Time 65280, Note Name: G#4, Velocity: 59
Note ON: Time 65280, Note Name: C#5, Velocity: 58
Note ON: Time 65280, Note Name: G#5, Velocity: 73
Note OFF: Time 65760, Note Name: G#4
Note ON: Time 65760, Note Name: A#4, Velocity: 57
Note ON: Time 65760, Note Name: A#5, Velocity: 68
Note OFF: Time 66240, Note Name: A#5
Note OFF: Time 66240, Note Name: C#5
Note OFF: Time 66240, Note Name: G#5
Note OFF: Time 66240, Note Name: A#4
Note ON: Time 66240, Note Name: C6, Velocity: 73
Note ON: Time 66240, Note Name: G#5, Velocity: 61
Note ON: Time 66240, Note Name: F#5, Velocity: 61
Note ON: Time 66240, Note Name: C5, Velocity: 61
Note OFF: Time 66720, Note Name: C5
Note OFF: Time 66720, Note Name: C6
Note ON: Time 66720, Note Name: C#5, Velocity: 68
Note ON: Time 66720, Note Name: C#6, Velocity: 75
Note OFF: Time 67080, Note Name: C#6
Note OFF: Time 67080, Note Name: C#5
Note ON: Time 67080, Note Name: D#5, Velocity: 70
Note ON: Time 67080, Note Name: D#6, Velocity: 73
Note OFF: Time 67200, Note Name: D#6
Note OFF: Time 67200, Note Name: G#5
Note OFF: Time 67200, Note Name: F#5
Note OFF: Time 67200, Note Name: D#5
Note ON: Time 67200, Note Name: G#5, Velocity: 66
Note ON: Time 67200, Note Name: F5, Velocity: 66
Note ON: Time 67200, Note Name: F6, Velocity: 78
Note OFF: Time 67680, Note Name: F6
Note ON: Time 67680, Note Name: A#5, Velocity: 73
Note ON: Time 67680, Note Name: A#4, Velocity: 61
Note OFF: Time 68160, Note Name: A#4
Note OFF: Time 68160, Note Name: G#5
Note OFF: Time 68160, Note Name: F5
Note OFF: Time 68160, Note Name: A#5
Note ON: Time 68160, Note Name: F#5, Velocity: 66
Note ON: Time 68160, Note Name: G#5, Velocity: 66
Note ON: Time 68160, Note Name: C5, Velocity: 66
Note ON: Time 68160, Note Name: C6, Velocity: 78
Note OFF: Time 68640, Note Name: C6
Note OFF: Time 68640, Note Name: F#5
Note OFF: Time 68640, Note Name: G#5
Note OFF: Time 68640, Note Name: C5
Note ON: Time 68640, Note Name: C#5, Velocity: 66
Note ON: Time 68640, Note Name: C#6, Velocity: 79
Note OFF: Time 69000, Note Name: C#6
Note OFF: Time 69000, Note Name: C#5
Note ON: Time 69000, Note Name: D#5, Velocity: 64
Note ON: Time 69000, Note Name: D#6, Velocity: 77
Note OFF: Time 69120, Note Name: D#6
Note OFF: Time 69120, Note Name: D#5
Note ON: Time 69120, Note Name: C6, Velocity: 66
Note ON: Time 69120, Note Name: D#6, Velocity: 74
Note ON: Time 69120, Note Name: F5, Velocity: 70
Note ON: Time 69120, Note Name: F6, Velocity: 81
Note OFF: Time 69600, Note Name: F6
Note OFF: Time 69600, Note Name: F5
Note ON: Time 69600, Note Name: F#5, Velocity: 66
Note ON: Time 69600, Note Name: F#6, Velocity: 78
Note OFF: Time 70080, Note Name: D#6
Note OFF: Time 70080, Note Name: C6
Note ON: Time 70080, Note Name: A#5, Velocity: 74
Note ON: Time 70080, Note Name: C#6, Velocity: 74
Note OFF: Time 70320, Note Name: F#5
Note OFF: Time 70320, Note Name: F#6
Note ON: Time 70320, Note Name: F6, Velocity: 77
Note ON: Time 70320, Note Name: F5, Velocity: 64
Note OFF: Time 70560, Note Name: F5
Note OFF: Time 70560, Note Name: F6
Note ON: Time 70560, Note Name: E5, Velocity: 63
Note ON: Time 70560, Note Name: E6, Velocity: 75
Note OFF: Time 70800, Note Name: E6
Note OFF: Time 70800, Note Name: E5
Note ON: Time 70800, Note Name: F5, Velocity: 63
Note ON: Time 70800, Note Name: F6, Velocity: 75
Note OFF: Time 71040, Note Name: F6
Note OFF: Time 71040, Note Name: C#6
Note OFF: Time 71040, Note Name: A#5
Note OFF: Time 71040, Note Name: F5
Note ON: Time 71040, Note Name: G#5, Velocity: 72
Note ON: Time 71040, Note Name: F#6, Velocity: 71
Note ON: Time 71040, Note Name: G#6, Velocity: 85
Note ON: Time 71040, Note Name: D#6, Velocity: 57
Note OFF: Time 71520, Note Name: G#6
Note OFF: Time 71520, Note Name: G#5
Note ON: Time 71520, Note Name: A#5, Velocity: 70
Note ON: Time 71520, Note Name: A#6, Velocity: 84
Note OFF: Time 72000, Note Name: F#6
Note OFF: Time 72000, Note Name: D#6
Note ON: Time 72000, Note Name: F6, Velocity: 81
Note OFF: Time 72240, Note Name: A#5
Note OFF: Time 72240, Note Name: A#6
Note ON: Time 72240, Note Name: G#6, Velocity: 80
Note ON: Time 72240, Note Name: G#5, Velocity: 67
Note OFF: Time 72480, Note Name: G#5
Note OFF: Time 72480, Note Name: G#6
Note OFF: Time 72480, Note Name: F6
Note ON: Time 72480, Note Name: F#5, Velocity: 70
Note ON: Time 72480, Note Name: F#6, Velocity: 84
Note ON: Time 72480, Note Name: A#5, Velocity: 62
Note OFF: Time 72840, Note Name: F#6
Note OFF: Time 72840, Note Name: F#5
Note ON: Time 72840, Note Name: F6, Velocity: 78
Note ON: Time 72840, Note Name: F5, Velocity: 66
Note OFF: Time 72960, Note Name: F5
Note OFF: Time 72960, Note Name: F6
Note OFF: Time 72960, Note Name: A#5
Note ON: Time 72960, Note Name: A#5, Velocity: 73
Note ON: Time 72960, Note Name: G#5, Velocity: 73
Note ON: Time 72960, Note Name: G#6, Velocity: 86
Note OFF: Time 73200, Note Name: G#6
Note OFF: Time 73200, Note Name: G#5
Note ON: Time 73200, Note Name: F#5, Velocity: 60
Note ON: Time 73200, Note Name: F#6, Velocity: 72
Note OFF: Time 73440, Note Name: F#6
Note OFF: Time 73440, Note Name: F#5
Note OFF: Time 73440, Note Name: A#5
Note ON: Time 73440, Note Name: F6, Velocity: 72
Note ON: Time 73440, Note Name: A#5, Velocity: 54
Note ON: Time 73440, Note Name: F5, Velocity: 57
Note OFF: Time 73680, Note Name: F5
Note OFF: Time 73680, Note Name: F6
Note ON: Time 73680, Note Name: D5, Velocity: 60
Note ON: Time 73680, Note Name: D6, Velocity: 72
Note OFF: Time 73920, Note Name: D6
Note OFF: Time 73920, Note Name: D5
Note OFF: Time 73920, Note Name: A#5
Note ON: Time 73920, Note Name: A#5, Velocity: 54
Note ON: Time 73920, Note Name: F6, Velocity: 81
Note ON: Time 73920, Note Name: F5, Velocity: 69
Note OFF: Time 74160, Note Name: F5
Note OFF: Time 74160, Note Name: F6
Note ON: Time 74160, Note Name: D#6, Velocity: 71
Note ON: Time 74160, Note Name: D#5, Velocity: 60
Note OFF: Time 74400, Note Name: D#5
Note OFF: Time 74400, Note Name: D#6
Note OFF: Time 74400, Note Name: A#5
Note ON: Time 74400, Note Name: E5, Velocity: 55
Note ON: Time 74400, Note Name: A#5, Velocity: 72
Note ON: Time 74400, Note Name: A#4, Velocity: 61
Note OFF: Time 74640, Note Name: A#4
Note OFF: Time 74640, Note Name: A#5
Note ON: Time 74640, Note Name: C#6, Velocity: 67
Note ON: Time 74640, Note Name: C#5, Velocity: 56
Note OFF: Time 74880, Note Name: C#5
Note OFF: Time 74880, Note Name: C#6
Note OFF: Time 74880, Note Name: E5
Note ON: Time 74880, Note Name: A#4, Velocity: 66
Note ON: Time 74880, Note Name: F5, Velocity: 61
Note ON: Time 74880, Note Name: A#5, Velocity: 80
Note OFF: Time 75120, Note Name: A#5
Note OFF: Time 75120, Note Name: A#4
Note ON: Time 75120, Note Name: G#5, Velocity: 73
Note ON: Time 75120, Note Name: G#4, Velocity: 61
Note OFF: Time 75360, Note Name: G#4
Note OFF: Time 75360, Note Name: G#5
Note OFF: Time 75360, Note Name: F5
Note ON: Time 75360, Note Name: C#5, Velocity: 73
Note ON: Time 75360, Note Name: F#4, Velocity: 61
Note ON: Time 75360, Note Name: C#4, Velocity: 61
Note OFF: Time 75600, Note Name: C#4
Note OFF: Time 75600, Note Name: F#4
Note ON: Time 75600, Note Name: F#4, Velocity: 62
Note ON: Time 75600, Note Name: F#5, Velocity: 74
Note OFF: Time 75840, Note Name: F#5
Note OFF: Time 75840, Note Name: F#4
Note OFF: Time 75840, Note Name: C#5
Note ON: Time 75840, Note Name: C#4, Velocity: 67
Note ON: Time 75840, Note Name: D#5, Velocity: 80
Note ON: Time 75840, Note Name: F#4, Velocity: 67
Note ON: Time 75840, Note Name: C#5, Velocity: 67
Note OFF: Time 76320, Note Name: C#5
Note OFF: Time 76320, Note Name: C#4
Note OFF: Time 76320, Note Name: D#5
Note OFF: Time 76320, Note Name: F#4
Note ON: Time 76320, Note Name: F4, Velocity: 63
Note ON: Time 76320, Note Name: F5, Velocity: 75
Note ON: Time 76320, Note Name: C5, Velocity: 51
Note OFF: Time 76560, Note Name: F5
Note OFF: Time 76560, Note Name: F4
Note ON: Time 76560, Note Name: F#4, Velocity: 60
Note ON: Time 76560, Note Name: F#5, Velocity: 70
Note OFF: Time 76800, Note Name: F#5
Note OFF: Time 76800, Note Name: F#4
Note OFF: Time 76800, Note Name: C5
Note ON: Time 76800, Note Name: C#5, Velocity: 47
Note ON: Time 76800, Note Name: A#4, Velocity: 62
Note ON: Time 76800, Note Name: A#5, Velocity: 77
Note OFF: Time 77040, Note Name: A#5
Note OFF: Time 77040, Note Name: A#4
Note ON: Time 77040, Note Name: A4, Velocity: 51
Note ON: Time 77040, Note Name: A5, Velocity: 68
Note OFF: Time 77280, Note Name: A5
Note OFF: Time 77280, Note Name: A4
Note OFF: Time 77280, Note Name: C#5
Note ON: Time 77280, Note Name: G#5, Velocity: 77
Note ON: Time 77280, Note Name: C#5, Velocity: 53
Note ON: Time 77280, Note Name: G#4, Velocity: 64
Note OFF: Time 77440, Note Name: G#4
Note OFF: Time 77440, Note Name: C#5
Note OFF: Time 77440, Note Name: G#5
Note ON: Time 77440, Note Name: C#5, Velocity: 70
Note ON: Time 77440, Note Name: C#4, Velocity: 60
Note OFF: Time 77600, Note Name: C#4
Note ON: Time 77600, Note Name: F#4, Velocity: 60
Note ON: Time 77600, Note Name: F#5, Velocity: 70
Note OFF: Time 77760, Note Name: F#5
Note OFF: Time 77760, Note Name: F#4
Note OFF: Time 77760, Note Name: C#5
Note ON: Time 77760, Note Name: C#5, Velocity: 66
Note ON: Time 77760, Note Name: D#5, Velocity: 80
Note ON: Time 77760, Note Name: F#4, Velocity: 66
Note ON: Time 77760, Note Name: D#4, Velocity: 66
Note OFF: Time 78000, Note Name: D#4
Note OFF: Time 78000, Note Name: D#5
Note ON: Time 78000, Note Name: F4, Velocity: 57
Note ON: Time 78000, Note Name: F5, Velocity: 68
Note OFF: Time 78120, Note Name: F5
Note OFF: Time 78120, Note Name: F4
Note ON: Time 78120, Note Name: D#4, Velocity: 53
Note ON: Time 78120, Note Name: D#5, Velocity: 63
Note OFF: Time 78240, Note Name: D#5
Note OFF: Time 78240, Note Name: C#5
Note OFF: Time 78240, Note Name: F#4
Note OFF: Time 78240, Note Name: D#4
Note ON: Time 78240, Note Name: D4, Velocity: 61
Note ON: Time 78240, Note Name: C5, Velocity: 61
Note ON: Time 78240, Note Name: D5, Velocity: 73
Note OFF: Time 78360, Note Name: D5
Note OFF: Time 78360, Note Name: D4
Note ON: Time 78360, Note Name: D#4, Velocity: 57
Note ON: Time 78360, Note Name: D#5, Velocity: 68
Note OFF: Time 78480, Note Name: D#5
Note OFF: Time 78480, Note Name: D#4
Note ON: Time 78480, Note Name: F4, Velocity: 61
Note ON: Time 78480, Note Name: F5, Velocity: 73
Note OFF: Time 78600, Note Name: F5
Note OFF: Time 78600, Note Name: F4
Note ON: Time 78600, Note Name: F#4, Velocity: 58
Note ON: Time 78600, Note Name: F#5, Velocity: 69
Note OFF: Time 78720, Note Name: F#5
Note OFF: Time 78720, Note Name: F#4
Note OFF: Time 78720, Note Name: C5
Note ON: Time 78720, Note Name: C#5, Velocity: 67
Note ON: Time 78720, Note Name: G4, Velocity: 70
Note ON: Time 78720, Note Name: G5, Velocity: 83
Note OFF: Time 78880, Note Name: G5
Note OFF: Time 78880, Note Name: G4
Note ON: Time 78880, Note Name: G#5, Velocity: 79
Note ON: Time 78880, Note Name: G#4, Velocity: 66
Note OFF: Time 79040, Note Name: G#4
Note OFF: Time 79040, Note Name: G#5
Note OFF: Time 79040, Note Name: C#5
Note ON: Time 79040, Note Name: F5, Velocity: 69
Note ON: Time 79040, Note Name: F6, Velocity: 77
Note OFF: Time 79200, Note Name: F6
Note OFF: Time 79200, Note Name: F5
Note ON: Time 79200, Note Name: F#5, Velocity: 70
Note ON: Time 79200, Note Name: D#5, Velocity: 70
Note ON: Time 79200, Note Name: D#6, Velocity: 82
Note OFF: Time 79360, Note Name: D#6
Note OFF: Time 79360, Note Name: D#5
Note ON: Time 79360, Note Name: C#5, Velocity: 62
Note ON: Time 79360, Note Name: C#6, Velocity: 73
Note OFF: Time 79520, Note Name: C#6
Note OFF: Time 79520, Note Name: C#5
Note OFF: Time 79520, Note Name: F#5
Note ON: Time 79520, Note Name: C#5, Velocity: 64
Note ON: Time 79520, Note Name: F#5, Velocity: 80
Note ON: Time 79520, Note Name: F#4, Velocity: 68
Note OFF: Time 79680, Note Name: F#4
Note OFF: Time 79680, Note Name: F#5
Note OFF: Time 79680, Note Name: C#5
Note ON: Time 79680, Note Name: C#5, Velocity: 69
Note ON: Time 79680, Note Name: D#5, Velocity: 82
Note ON: Time 79680, Note Name: D#4, Velocity: 69
Note ON: Time 79680, Note Name: G#4, Velocity: 69
Note OFF: Time 80160, Note Name: D#4
Note OFF: Time 80160, Note Name: C#5
Note ON: Time 80160, Note Name: F#4, Velocity: 61
Note ON: Time 80160, Note Name: C5, Velocity: 61
Note OFF: Time 80400, Note Name: C5
Note OFF: Time 80400, Note Name: F#4
Note OFF: Time 80400, Note Name: G#4
Note OFF: Time 80580, Note Name: D#5
Note ON: Time 80580, Note Name: C#5, Velocity: 73
Note OFF: Time 80640, Note Name: C#5
Note ON: Time 80640, Note Name: F4, Velocity: 72
Note ON: Time 80640, Note Name: C#5, Velocity: 85
Note OFF: Time 80800, Note Name: C#5
Note OFF: Time 80800, Note Name: F4
Note ON: Time 80800, Note Name: D#4, Velocity: 62
Note ON: Time 80800, Note Name: A#4, Velocity: 73
Note OFF: Time 80880, Note Name: A#4
Note OFF: Time 80880, Note Name: D#4
Note ON: Time 80960, Note Name: D#4, Velocity: 62
Note ON: Time 80960, Note Name: A#4, Velocity: 73
Note OFF: Time 81040, Note Name: A#4
Note OFF: Time 81040, Note Name: D#4
Note ON: Time 81120, Note Name: D#4, Velocity: 62
Note ON: Time 81120, Note Name: A#4, Velocity: 75
Note OFF: Time 81280, Note Name: A#4
Note OFF: Time 81280, Note Name: D#4
Note ON: Time 81280, Note Name: G#4, Velocity: 71
Note OFF: Time 81360, Note Name: G#4
Note ON: Time 81440, Note Name: C5, Velocity: 62
Note ON: Time 81440, Note Name: F#5, Velocity: 74
Note OFF: Time 81520, Note Name: F#5
Note OFF: Time 81520, Note Name: C5
Note ON: Time 81600, Note Name: C5, Velocity: 63
Note ON: Time 81600, Note Name: F#5, Velocity: 75
Note OFF: Time 81760, Note Name: F#5
Note OFF: Time 81760, Note Name: C5
Note ON: Time 81760, Note Name: C#5, Velocity: 62
Note ON: Time 81760, Note Name: F5, Velocity: 74
Note OFF: Time 81840, Note Name: F5
Note OFF: Time 81840, Note Name: C#5
Note ON: Time 81920, Note Name: D#5, Velocity: 62
Note ON: Time 81920, Note Name: A#5, Velocity: 74
Note OFF: Time 82000, Note Name: A#5
Note OFF: Time 82000, Note Name: D#5
Note ON: Time 82080, Note Name: D#5, Velocity: 64
Note ON: Time 82080, Note Name: A#5, Velocity: 78
Note OFF: Time 82240, Note Name: A#5
Note OFF: Time 82240, Note Name: D#5
Note ON: Time 82240, Note Name: G#5, Velocity: 73
Note OFF: Time 82320, Note Name: G#5
Note ON: Time 82400, Note Name: F#6, Velocity: 73
Note ON: Time 82400, Note Name: C6, Velocity: 62
Note OFF: Time 82480, Note Name: C6
Note OFF: Time 82480, Note Name: F#6
Note ON: Time 82560, Note Name: C6, Velocity: 64
Note ON: Time 82560, Note Name: F#6, Velocity: 78
Note OFF: Time 82720, Note Name: F#6
Note OFF: Time 82720, Note Name: C6
Note ON: Time 82720, Note Name: C#6, Velocity: 62
Note ON: Time 82720, Note Name: F6, Velocity: 73
Note OFF: Time 82800, Note Name: F6
Note OFF: Time 82800, Note Name: C#6
Note ON: Time 82880, Note Name: A#5, Velocity: 73
Note ON: Time 82880, Note Name: D#5, Velocity: 62
Note OFF: Time 82960, Note Name: D#5
Note OFF: Time 82960, Note Name: A#5
Note ON: Time 83040, Note Name: D#5, Velocity: 62
Note ON: Time 83040, Note Name: A#5, Velocity: 75
Note OFF: Time 83200, Note Name: A#5
Note OFF: Time 83200, Note Name: D#5
Note ON: Time 83200, Note Name: G#5, Velocity: 72
Note OFF: Time 83280, Note Name: G#5
Note ON: Time 83360, Note Name: C5, Velocity: 62
Note ON: Time 83360, Note Name: F#5, Velocity: 74
Note OFF: Time 83440, Note Name: F#5
Note OFF: Time 83440, Note Name: C5
Note ON: Time 83520, Note Name: F#5, Velocity: 75
Note ON: Time 83520, Note Name: C5, Velocity: 62
Note OFF: Time 83680, Note Name: C5
Note OFF: Time 83680, Note Name: F#5
Note ON: Time 83680, Note Name: C#5, Velocity: 60
Note ON: Time 83680, Note Name: F5, Velocity: 71
Note OFF: Time 83760, Note Name: F5
Note OFF: Time 83760, Note Name: C#5
Note ON: Time 83840, Note Name: A#4, Velocity: 74
Note ON: Time 83840, Note Name: D#4, Velocity: 62
Note OFF: Time 83920, Note Name: D#4
Note OFF: Time 83920, Note Name: A#4
Note ON: Time 84000, Note Name: D#4, Velocity: 64
Note ON: Time 84000, Note Name: A#4, Velocity: 78
Note OFF: Time 84160, Note Name: A#4
Note OFF: Time 84160, Note Name: D#4
Note ON: Time 84160, Note Name: G#4, Velocity: 74
Note OFF: Time 84240, Note Name: G#4
Note ON: Time 84320, Note Name: C4, Velocity: 62
Note ON: Time 84320, Note Name: F#4, Velocity: 74
Note OFF: Time 84400, Note Name: F#4
Note OFF: Time 84400, Note Name: C4
Note ON: Time 84480, Note Name: C4, Velocity: 64
Note ON: Time 84480, Note Name: F#4, Velocity: 78
Note OFF: Time 84640, Note Name: F#4
Note OFF: Time 84640, Note Name: C4
Note ON: Time 84640, Note Name: F4, Velocity: 67
Note ON: Time 84640, Note Name: C#4, Velocity: 56
Note OFF: Time 84720, Note Name: C#4
Note OFF: Time 84720, Note Name: F4
Note ON: Time 84800, Note Name: E4, Velocity: 49
Note ON: Time 84800, Note Name: A4, Velocity: 59
Note OFF: Time 84880, Note Name: A4
Note OFF: Time 84880, Note Name: E4
Note ON: Time 84960, Note Name: E4, Velocity: 51
Note ON: Time 84960, Note Name: A4, Velocity: 62
Note OFF: Time 85120, Note Name: A4
Note OFF: Time 85120, Note Name: E4
Note ON: Time 85120, Note Name: D#4, Velocity: 49
Note ON: Time 85120, Note Name: G#4, Velocity: 58
Note OFF: Time 85200, Note Name: G#4
Note OFF: Time 85200, Note Name: D#4
Note ON: Time 85280, Note Name: C5, Velocity: 44
Note ON: Time 85280, Note Name: F#5, Velocity: 52
Note OFF: Time 85360, Note Name: F#5
Note OFF: Time 85360, Note Name: C5
Note ON: Time 85440, Note Name: C5, Velocity: 46
Note ON: Time 85440, Note Name: F#5, Velocity: 55
Note OFF: Time 85600, Note Name: F#5
Note OFF: Time 85600, Note Name: C5
Note ON: Time 85600, Note Name: C#5, Velocity: 44
Note ON: Time 85600, Note Name: F5, Velocity: 52
Note OFF: Time 85680, Note Name: F5
Note OFF: Time 85680, Note Name: C#5
Note ON: Time 85760, Note Name: A5, Velocity: 52
Note ON: Time 85760, Note Name: E5, Velocity: 44
Note OFF: Time 85840, Note Name: E5
Note OFF: Time 85840, Note Name: A5
Note ON: Time 85920, Note Name: E5, Velocity: 46
Note ON: Time 85920, Note Name: A5, Velocity: 55
Note OFF: Time 86080, Note Name: A5
Note OFF: Time 86080, Note Name: E5
Note ON: Time 86080, Note Name: D#5, Velocity: 41
Note ON: Time 86080, Note Name: G#5, Velocity: 51
Note OFF: Time 86160, Note Name: G#5
Note OFF: Time 86160, Note Name: D#5
Note ON: Time 86240, Note Name: C6, Velocity: 39
Note ON: Time 86240, Note Name: F#6, Velocity: 46
Note OFF: Time 86320, Note Name: F#6
Note OFF: Time 86320, Note Name: C6
Note ON: Time 86400, Note Name: C6, Velocity: 40
Note ON: Time 86400, Note Name: F#6, Velocity: 49
Note OFF: Time 86560, Note Name: F#6
Note OFF: Time 86560, Note Name: C6
Note ON: Time 86560, Note Name: C#6, Velocity: 39
Note ON: Time 86560, Note Name: F6, Velocity: 46
Note OFF: Time 86640, Note Name: F6
Note OFF: Time 86640, Note Name: C#6
Note ON: Time 86720, Note Name: E5, Velocity: 47
Note ON: Time 86720, Note Name: A5, Velocity: 55
Note OFF: Time 86800, Note Name: A5
Note OFF: Time 86800, Note Name: E5
Note ON: Time 86880, Note Name: E5, Velocity: 49
Note ON: Time 86880, Note Name: A5, Velocity: 59
Note OFF: Time 87040, Note Name: A5
Note OFF: Time 87040, Note Name: E5
Note ON: Time 87040, Note Name: D#5, Velocity: 45
Note ON: Time 87040, Note Name: G#5, Velocity: 56
Note OFF: Time 87120, Note Name: G#5
Note OFF: Time 87120, Note Name: D#5
Note ON: Time 87200, Note Name: C5, Velocity: 47
Note ON: Time 87200, Note Name: F#5, Velocity: 56
Note OFF: Time 87280, Note Name: F#5
Note OFF: Time 87280, Note Name: C5
Note ON: Time 87360, Note Name: C5, Velocity: 49
Note ON: Time 87360, Note Name: F#5, Velocity: 59
Note OFF: Time 87520, Note Name: F#5
Note OFF: Time 87520, Note Name: C5
Note ON: Time 87520, Note Name: C#5, Velocity: 47
Note ON: Time 87520, Note Name: F5, Velocity: 55
Note OFF: Time 87600, Note Name: F5
Note OFF: Time 87600, Note Name: C#5
Note ON: Time 87680, Note Name: E4, Velocity: 45
Note ON: Time 87680, Note Name: A4, Velocity: 54
Note OFF: Time 87760, Note Name: A4
Note OFF: Time 87760, Note Name: E4
Note ON: Time 87840, Note Name: E4, Velocity: 49
Note ON: Time 87840, Note Name: A4, Velocity: 59
Note OFF: Time 88000, Note Name: A4
Note OFF: Time 88000, Note Name: E4
Note ON: Time 88000, Note Name: D#4, Velocity: 45
Note ON: Time 88000, Note Name: G#4, Velocity: 56
Note OFF: Time 88080, Note Name: G#4
Note OFF: Time 88080, Note Name: D#4
Note ON: Time 88160, Note Name: D#4, Velocity: 52
Note ON: Time 88160, Note Name: C4, Velocity: 52
Note ON: Time 88160, Note Name: F#4, Velocity: 62
Note OFF: Time 88240, Note Name: F#4
Note OFF: Time 88240, Note Name: C4
Note OFF: Time 88240, Note Name: D#4
Note ON: Time 88320, Note Name: D#4, Velocity: 49
Note ON: Time 88320, Note Name: C4, Velocity: 49
Note ON: Time 88320, Note Name: F#4, Velocity: 59
Note OFF: Time 88480, Note Name: F#4
Note OFF: Time 88480, Note Name: C4
Note OFF: Time 88480, Note Name: D#4
Note ON: Time 88480, Note Name: E4, Velocity: 42
Note ON: Time 88480, Note Name: C4, Velocity: 41
Note ON: Time 88480, Note Name: G4, Velocity: 49
Note OFF: Time 88560, Note Name: G4
Note OFF: Time 88560, Note Name: C4
Note OFF: Time 88560, Note Name: E4
Note ON: Time 88640, Note Name: C5, Velocity: 56
Note ON: Time 88640, Note Name: D4, Velocity: 49
Note ON: Time 88640, Note Name: F#4, Velocity: 47
Note OFF: Time 88720, Note Name: F#4
Note OFF: Time 88720, Note Name: D4
Note OFF: Time 88720, Note Name: C5
Note ON: Time 88800, Note Name: D4, Velocity: 49
Note ON: Time 88800, Note Name: F#4, Velocity: 49
Note ON: Time 88800, Note Name: C5, Velocity: 59
Note OFF: Time 88960, Note Name: C5
Note OFF: Time 88960, Note Name: F#4
Note OFF: Time 88960, Note Name: D4
Note ON: Time 88960, Note Name: D4, Velocity: 42
Note ON: Time 88960, Note Name: G4, Velocity: 41
Note ON: Time 88960, Note Name: B4, Velocity: 48
Note OFF: Time 89040, Note Name: B4
Note OFF: Time 89040, Note Name: G4
Note OFF: Time 89040, Note Name: D4
Note ON: Time 89120, Note Name: F4, Velocity: 47
Note ON: Time 89120, Note Name: G4, Velocity: 47
Note ON: Time 89120, Note Name: B4, Velocity: 47
Note ON: Time 89120, Note Name: F5, Velocity: 56
Note OFF: Time 89200, Note Name: F5
Note OFF: Time 89200, Note Name: F4
Note OFF: Time 89200, Note Name: G4
Note OFF: Time 89200, Note Name: B4
Note ON: Time 89280, Note Name: B4, Velocity: 49
Note ON: Time 89280, Note Name: F4, Velocity: 49
Note ON: Time 89280, Note Name: G4, Velocity: 49
Note ON: Time 89280, Note Name: F5, Velocity: 59
Note OFF: Time 89440, Note Name: F5
Note OFF: Time 89440, Note Name: B4
Note OFF: Time 89440, Note Name: F4
Note OFF: Time 89440, Note Name: G4
Note ON: Time 89440, Note Name: G4, Velocity: 46
Note ON: Time 89440, Note Name: C5, Velocity: 44
Note ON: Time 89440, Note Name: E5, Velocity: 52
Note OFF: Time 89520, Note Name: E5
Note OFF: Time 89520, Note Name: C5
Note OFF: Time 89520, Note Name: G4
Note ON: Time 89600, Note Name: C6, Velocity: 56
Note ON: Time 89600, Note Name: D5, Velocity: 49
Note ON: Time 89600, Note Name: F#5, Velocity: 47
Note ON: Time 89600, Note Name: C5, Velocity: 49
Note OFF: Time 89680, Note Name: C5
Note OFF: Time 89680, Note Name: C6
Note OFF: Time 89680, Note Name: D5
Note OFF: Time 89680, Note Name: F#5
Note ON: Time 89760, Note Name: C5, Velocity: 49
Note ON: Time 89760, Note Name: C6, Velocity: 59
Note ON: Time 89760, Note Name: D5, Velocity: 49
Note ON: Time 89760, Note Name: F#5, Velocity: 49
Note OFF: Time 89920, Note Name: F#5
Note OFF: Time 89920, Note Name: C5
Note OFF: Time 89920, Note Name: C6
Note OFF: Time 89920, Note Name: D5
Note ON: Time 89920, Note Name: B4, Velocity: 46
Note ON: Time 89920, Note Name: G5, Velocity: 41
Note ON: Time 89920, Note Name: B5, Velocity: 51
Note OFF: Time 90000, Note Name: B5
Note OFF: Time 90000, Note Name: G5
Note OFF: Time 90000, Note Name: B4
Note ON: Time 90080, Note Name: F5, Velocity: 49
Note ON: Time 90080, Note Name: G5, Velocity: 49
Note ON: Time 90080, Note Name: B5, Velocity: 47
Note ON: Time 90080, Note Name: F6, Velocity: 55
Note OFF: Time 90160, Note Name: F6
Note OFF: Time 90160, Note Name: F5
Note OFF: Time 90160, Note Name: G5
Note OFF: Time 90160, Note Name: B5
Note ON: Time 90240, Note Name: F5, Velocity: 49
Note ON: Time 90240, Note Name: G5, Velocity: 49
Note ON: Time 90240, Note Name: B5, Velocity: 49
Note ON: Time 90240, Note Name: F6, Velocity: 59
Note OFF: Time 90400, Note Name: F6
Note OFF: Time 90400, Note Name: F5
Note OFF: Time 90400, Note Name: G5
Note OFF: Time 90400, Note Name: B5
Note ON: Time 90400, Note Name: D5, Velocity: 63
Note ON: Time 90400, Note Name: A#4, Velocity: 45
Note OFF: Time 90560, Note Name: A#4
Note OFF: Time 90560, Note Name: D5
Note ON: Time 90560, Note Name: B4, Velocity: 66
Note ON: Time 90560, Note Name: G#5, Velocity: 80
Note OFF: Time 90720, Note Name: G#5
Note OFF: Time 90720, Note Name: B4
Note ON: Time 90720, Note Name: C#5, Velocity: 68
Note ON: Time 90720, Note Name: F5, Velocity: 74
Note OFF: Time 90880, Note Name: F5
Note OFF: Time 90880, Note Name: C#5
Note ON: Time 90880, Note Name: D5, Velocity: 71
Note ON: Time 90880, Note Name: B5, Velocity: 84
Note OFF: Time 91040, Note Name: B5
Note OFF: Time 91040, Note Name: D5
Note ON: Time 91040, Note Name: E5, Velocity: 66
Note ON: Time 91040, Note Name: G#5, Velocity: 79
Note OFF: Time 91200, Note Name: G#5
Note OFF: Time 91200, Note Name: E5
Note ON: Time 91200, Note Name: F5, Velocity: 74
Note ON: Time 91200, Note Name: D6, Velocity: 89
Note OFF: Time 91360, Note Name: D6
Note OFF: Time 91360, Note Name: F5
Note ON: Time 91360, Note Name: B5, Velocity: 85
Note ON: Time 91360, Note Name: G5, Velocity: 72
Note OFF: Time 91520, Note Name: G5
Note OFF: Time 91520, Note Name: B5
Note ON: Time 91520, Note Name: F6, Velocity: 92
Note ON: Time 91520, Note Name: G#5, Velocity: 78
Note OFF: Time 91680, Note Name: G#5
Note OFF: Time 91680, Note Name: F6
Note ON: Time 91680, Note Name: A#5, Velocity: 73
Note ON: Time 91680, Note Name: D6, Velocity: 86
Note OFF: Time 91840, Note Name: D6
Note OFF: Time 91840, Note Name: A#5
Note ON: Time 91840, Note Name: B5, Velocity: 79
Note ON: Time 91840, Note Name: G#6, Velocity: 94
Note OFF: Time 92000, Note Name: G#6
Note OFF: Time 92000, Note Name: B5
Note ON: Time 92000, Note Name: B5, Velocity: 77
Note ON: Time 92000, Note Name: B6, Velocity: 90
Note OFF: Time 92160, Note Name: B6
Note OFF: Time 92160, Note Name: B5
Note ON: Time 92160, Note Name: C6, Velocity: 85
Note ON: Time 92160, Note Name: C7, Velocity: 101
Note OFF: Time 92320, Note Name: C7
Note OFF: Time 92320, Note Name: C6
Note ON: Time 92320, Note Name: C4, Velocity: 64
Note ON: Time 92320, Note Name: G4, Velocity: 64
Note ON: Time 92320, Note Name: C5, Velocity: 77
Note OFF: Time 92480, Note Name: C5
Note OFF: Time 92480, Note Name: G4
Note OFF: Time 92480, Note Name: C4
Note ON: Time 92480, Note Name: G4, Velocity: 64
Note ON: Time 92480, Note Name: C4, Velocity: 64
Note ON: Time 92480, Note Name: C5, Velocity: 77
Note OFF: Time 92640, Note Name: C5
Note OFF: Time 92640, Note Name: C4
Note OFF: Time 92640, Note Name: G4
Note ON: Time 92640, Note Name: C4, Velocity: 55
Note ON: Time 92640, Note Name: G#4, Velocity: 55
Note ON: Time 92640, Note Name: C5, Velocity: 77
Note OFF: Time 92800, Note Name: C5
Note OFF: Time 92800, Note Name: G#4
Note OFF: Time 92800, Note Name: C4
Note ON: Time 92800, Note Name: C4, Velocity: 63
Note ON: Time 92800, Note Name: G#4, Velocity: 63
Note ON: Time 92800, Note Name: C5, Velocity: 75
Note OFF: Time 92960, Note Name: C5
Note OFF: Time 92960, Note Name: G#4
Note OFF: Time 92960, Note Name: C4
Note ON: Time 92960, Note Name: C4, Velocity: 63
Note ON: Time 92960, Note Name: G#4, Velocity: 63
Note ON: Time 92960, Note Name: C5, Velocity: 75
Note OFF: Time 93120, Note Name: C5
Note OFF: Time 93120, Note Name: G#4
Note OFF: Time 93120, Note Name: C4
Note ON: Time 93120, Note Name: C5, Velocity: 80
Note ON: Time 93120, Note Name: C4, Velocity: 57
Note ON: Time 93120, Note Name: G#4, Velocity: 57
Note OFF: Time 93280, Note Name: G#4
Note OFF: Time 93280, Note Name: C4
Note OFF: Time 93280, Note Name: C5
Note ON: Time 93280, Note Name: C4, Velocity: 64
Note ON: Time 93280, Note Name: G#4, Velocity: 64
Note ON: Time 93280, Note Name: C5, Velocity: 77
Note OFF: Time 93440, Note Name: C5
Note OFF: Time 93440, Note Name: G#4
Note OFF: Time 93440, Note Name: C4
Note ON: Time 93440, Note Name: C4, Velocity: 64
Note ON: Time 93440, Note Name: G#4, Velocity: 64
Note ON: Time 93440, Note Name: C5, Velocity: 77
Note OFF: Time 93600, Note Name: C5
Note OFF: Time 93600, Note Name: G#4
Note OFF: Time 93600, Note Name: C4
Note ON: Time 93600, Note Name: C4, Velocity: 68
Note ON: Time 93600, Note Name: G#4, Velocity: 68
Note ON: Time 93600, Note Name: C5, Velocity: 81
Note OFF: Time 93760, Note Name: C5
Note OFF: Time 93760, Note Name: G#4
Note OFF: Time 93760, Note Name: C4
Note ON: Time 93760, Note Name: C5, Velocity: 79
Note ON: Time 93760, Note Name: C4, Velocity: 67
Note ON: Time 93760, Note Name: G#4, Velocity: 67
Note OFF: Time 93920, Note Name: G#4
Note OFF: Time 93920, Note Name: C4
Note OFF: Time 93920, Note Name: C5
Note ON: Time 93920, Note Name: C4, Velocity: 67
Note ON: Time 93920, Note Name: G#4, Velocity: 67
Note ON: Time 93920, Note Name: C5, Velocity: 79
Note OFF: Time 94080, Note Name: C5
Note OFF: Time 94080, Note Name: G#4
Note OFF: Time 94080, Note Name: C4
Note ON: Time 94080, Note Name: C4, Velocity: 67
Note ON: Time 94080, Note Name: G#4, Velocity: 67
Note ON: Time 94080, Note Name: C5, Velocity: 80
Note OFF: Time 94160, Note Name: C5
Note OFF: Time 94160, Note Name: G#4
Note OFF: Time 94160, Note Name: C4
Note ON: Time 94240, Note Name: C4, Velocity: 68
Note ON: Time 94240, Note Name: A4, Velocity: 68
Note ON: Time 94240, Note Name: C5, Velocity: 81
Note OFF: Time 94320, Note Name: C5
Note OFF: Time 94320, Note Name: A4
Note OFF: Time 94320, Note Name: C4
Note ON: Time 94400, Note Name: C4, Velocity: 69
Note ON: Time 94400, Note Name: A4, Velocity: 69
Note ON: Time 94400, Note Name: C5, Velocity: 82
Note OFF: Time 94480, Note Name: C5
Note OFF: Time 94480, Note Name: A4
Note OFF: Time 94480, Note Name: C4
Note ON: Time 94560, Note Name: A4, Velocity: 71
Note ON: Time 94560, Note Name: C4, Velocity: 71
Note ON: Time 94560, Note Name: C5, Velocity: 83
Note OFF: Time 94640, Note Name: C5
Note OFF: Time 94640, Note Name: C4
Note OFF: Time 94640, Note Name: A4
Note ON: Time 94720, Note Name: C#4, Velocity: 71
Note ON: Time 94720, Note Name: A4, Velocity: 71
Note ON: Time 94720, Note Name: C#5, Velocity: 84
Note OFF: Time 94800, Note Name: C#5
Note OFF: Time 94800, Note Name: A4
Note OFF: Time 94800, Note Name: C#4
Note ON: Time 94880, Note Name: C#4, Velocity: 71
Note ON: Time 94880, Note Name: A4, Velocity: 71
Note ON: Time 94880, Note Name: C#5, Velocity: 85
Note OFF: Time 94960, Note Name: C#5
Note OFF: Time 94960, Note Name: A4
Note OFF: Time 94960, Note Name: C#4
Note ON: Time 95040, Note Name: C#4, Velocity: 72
Note ON: Time 95040, Note Name: A4, Velocity: 72
Note ON: Time 95040, Note Name: C#5, Velocity: 86
Note OFF: Time 95120, Note Name: C#5
Note OFF: Time 95120, Note Name: A4
Note OFF: Time 95120, Note Name: C#4
Note ON: Time 95200, Note Name: C#5, Velocity: 88
Note ON: Time 95200, Note Name: C#4, Velocity: 73
Note ON: Time 95200, Note Name: A4, Velocity: 73
Note OFF: Time 95280, Note Name: A4
Note OFF: Time 95280, Note Name: C#4
Note OFF: Time 95280, Note Name: C#5
Note ON: Time 95360, Note Name: C#4, Velocity: 75
Note ON: Time 95360, Note Name: A4, Velocity: 75
Note ON: Time 95360, Note Name: C#5, Velocity: 90
Note OFF: Time 95440, Note Name: C#5
Note OFF: Time 95440, Note Name: A4
Note OFF: Time 95440, Note Name: C#4
Note ON: Time 95520, Note Name: C#4, Velocity: 77
Note ON: Time 95520, Note Name: A4, Velocity: 77
Note ON: Time 95520, Note Name: C#5, Velocity: 91
Note OFF: Time 95600, Note Name: C#5
Note OFF: Time 95600, Note Name: A4
Note OFF: Time 95600, Note Name: C#4
Note ON: Time 95680, Note Name: C#4, Velocity: 78
Note ON: Time 95680, Note Name: G#4, Velocity: 78
Note ON: Time 95680, Note Name: C#5, Velocity: 92
Note OFF: Time 95760, Note Name: C#5
Note OFF: Time 95760, Note Name: G#4
Note OFF: Time 95760, Note Name: C#4
Note ON: Time 95840, Note Name: C#5, Velocity: 93
Note ON: Time 95840, Note Name: C#4, Velocity: 79
Note ON: Time 95840, Note Name: G4, Velocity: 79
Note OFF: Time 95920, Note Name: G4
Note OFF: Time 95920, Note Name: C#4
Note OFF: Time 95920, Note Name: C#5
Note ON: Time 96000, Note Name: C#4, Velocity: 73
Note ON: Time 96000, Note Name: G#4, Velocity: 86
Note ON: Time 96000, Note Name: C#5, Velocity: 102
Note OFF: Time 96080, Note Name: C#5
Note OFF: Time 96080, Note Name: G#4
Note OFF: Time 96080, Note Name: C#4
Note ON: Time 96160, Note Name: F4, Velocity: 68
Note ON: Time 96160, Note Name: G#4, Velocity: 80
Note ON: Time 96160, Note Name: F5, Velocity: 95
Note OFF: Time 96320, Note Name: F5
Note OFF: Time 96320, Note Name: G#4
Note OFF: Time 96320, Note Name: F4
Note ON: Time 96320, Note Name: F4, Velocity: 68
Note ON: Time 96320, Note Name: G#4, Velocity: 80
Note ON: Time 96320, Note Name: F5, Velocity: 95
Note OFF: Time 96480, Note Name: F5
Note OFF: Time 96480, Note Name: G#4
Note OFF: Time 96480, Note Name: F4
Note ON: Time 96480, Note Name: F4, Velocity: 72
Note ON: Time 96480, Note Name: G#4, Velocity: 85
Note ON: Time 96480, Note Name: F5, Velocity: 101
Note OFF: Time 96640, Note Name: F5
Note OFF: Time 96640, Note Name: G#4
Note OFF: Time 96640, Note Name: F4
Note ON: Time 96640, Note Name: D#5, Velocity: 95
Note ON: Time 96640, Note Name: D#4, Velocity: 68
Note OFF: Time 96800, Note Name: D#4
Note OFF: Time 96800, Note Name: D#5
Note ON: Time 96800, Note Name: C#4, Velocity: 68
Note ON: Time 96800, Note Name: C#5, Velocity: 95
Note OFF: Time 96960, Note Name: C#5
Note OFF: Time 96960, Note Name: C#4
Note ON: Time 97120, Note Name: F4, Velocity: 68
Note ON: Time 97120, Note Name: A#4, Velocity: 80
Note ON: Time 97120, Note Name: F5, Velocity: 95
Note OFF: Time 97280, Note Name: F5
Note OFF: Time 97280, Note Name: A#4
Note OFF: Time 97280, Note Name: F4
Note ON: Time 97280, Note Name: F4, Velocity: 68
Note ON: Time 97280, Note Name: A#4, Velocity: 80
Note ON: Time 97280, Note Name: F5, Velocity: 95
Note OFF: Time 97440, Note Name: F5
Note OFF: Time 97440, Note Name: A#4
Note OFF: Time 97440, Note Name: F4
Note ON: Time 97440, Note Name: F4, Velocity: 72
Note ON: Time 97440, Note Name: A#4, Velocity: 85
Note ON: Time 97440, Note Name: F5, Velocity: 101
Note OFF: Time 97600, Note Name: F5
Note OFF: Time 97600, Note Name: A#4
Note OFF: Time 97600, Note Name: F4
Note ON: Time 97600, Note Name: D#5, Velocity: 95
Note ON: Time 97600, Note Name: D#4, Velocity: 68
Note OFF: Time 97760, Note Name: D#4
Note OFF: Time 97760, Note Name: D#5
Note ON: Time 97760, Note Name: C#4, Velocity: 68
Note ON: Time 97760, Note Name: C#5, Velocity: 95
Note OFF: Time 97920, Note Name: C#5
Note OFF: Time 97920, Note Name: C#4
Note ON: Time 98080, Note Name: F4, Velocity: 68
Note ON: Time 98080, Note Name: G#4, Velocity: 80
Note ON: Time 98080, Note Name: F5, Velocity: 95
Note OFF: Time 98240, Note Name: F5
Note OFF: Time 98240, Note Name: G#4
Note OFF: Time 98240, Note Name: F4
Note ON: Time 98240, Note Name: F4, Velocity: 68
Note ON: Time 98240, Note Name: G#4, Velocity: 80
Note ON: Time 98240, Note Name: F5, Velocity: 95
Note OFF: Time 98400, Note Name: F5
Note OFF: Time 98400, Note Name: G#4
Note OFF: Time 98400, Note Name: F4
Note ON: Time 98400, Note Name: F4, Velocity: 72
Note ON: Time 98400, Note Name: G#4, Velocity: 85
Note ON: Time 98400, Note Name: F5, Velocity: 101
Note OFF: Time 98560, Note Name: F5
Note OFF: Time 98560, Note Name: G#4
Note OFF: Time 98560, Note Name: F4
Note ON: Time 98560, Note Name: D#5, Velocity: 95
Note ON: Time 98560, Note Name: D#4, Velocity: 68
Note OFF: Time 98720, Note Name: D#4
Note OFF: Time 98720, Note Name: D#5
Note ON: Time 98720, Note Name: C#4, Velocity: 68
Note ON: Time 98720, Note Name: C#5, Velocity: 95
Note OFF: Time 98880, Note Name: C#5
Note OFF: Time 98880, Note Name: C#4
Note ON: Time 99040, Note Name: F4, Velocity: 68
Note ON: Time 99040, Note Name: G4, Velocity: 80
Note ON: Time 99040, Note Name: F5, Velocity: 95
Note OFF: Time 99200, Note Name: F5
Note OFF: Time 99200, Note Name: G4
Note OFF: Time 99200, Note Name: F4
Note ON: Time 99200, Note Name: F4, Velocity: 68
Note ON: Time 99200, Note Name: G4, Velocity: 80
Note ON: Time 99200, Note Name: F5, Velocity: 95
Note OFF: Time 99360, Note Name: F5
Note OFF: Time 99360, Note Name: G4
Note OFF: Time 99360, Note Name: F4
Note ON: Time 99360, Note Name: F4, Velocity: 72
Note ON: Time 99360, Note Name: G4, Velocity: 85
Note ON: Time 99360, Note Name: F5, Velocity: 101
Note OFF: Time 99520, Note Name: F5
Note OFF: Time 99520, Note Name: G4
Note OFF: Time 99520, Note Name: F4
Note ON: Time 99520, Note Name: D#5, Velocity: 95
Note ON: Time 99520, Note Name: D#4, Velocity: 68
Note OFF: Time 99680, Note Name: D#4
Note OFF: Time 99680, Note Name: D#5
Note ON: Time 99680, Note Name: C#4, Velocity: 68
Note ON: Time 99680, Note Name: C#5, Velocity: 95
Note OFF: Time 99840, Note Name: C#5
Note OFF: Time 99840, Note Name: C#4
Note ON: Time 99840, Note Name: D#3, Velocity: 84
Note ON: Time 99840, Note Name: G3, Velocity: 84
Note ON: Time 99840, Note Name: C#4, Velocity: 95
Note ON: Time 99840, Note Name: D#4, Velocity: 101
Note OFF: Time 101760, Note Name: D#4
Note OFF: Time 101760, Note Name: D#3
Note OFF: Time 101760, Note Name: G3
Note OFF: Time 101760, Note Name: C#4
Note ON: Time 101760, Note Name: F#3, Velocity: 80
Note ON: Time 101760, Note Name: C4, Velocity: 80
Note ON: Time 101760, Note Name: F4, Velocity: 95
Note OFF: Time 103680, Note Name: F4
Note OFF: Time 103680, Note Name: C4
Note OFF: Time 103680, Note Name: F#3
Note ON: Time 107520, Note Name: C#5, Velocity: 54
Note OFF: Time 107640, Note Name: C#5
Note ON: Time 107640, Note Name: A#4, Velocity: 51
Note OFF: Time 107700, Note Name: A#4
Note ON: Time 107880, Note Name: C5, Velocity: 51
Note OFF: Time 108000, Note Name: C5
Note ON: Time 108000, Note Name: C#5, Velocity: 54
Note OFF: Time 108120, Note Name: C#5
Note ON: Time 108120, Note Name: A#4, Velocity: 51
Note OFF: Time 108180, Note Name: A#4
Note ON: Time 108480, Note Name: C#5, Velocity: 54
Note OFF: Time 108600, Note Name: C#5
Note ON: Time 108600, Note Name: A#4, Velocity: 51
Note OFF: Time 108660, Note Name: A#4
Note ON: Time 108840, Note Name: C5, Velocity: 51
Note OFF: Time 108960, Note Name: C5
Note ON: Time 108960, Note Name: C#5, Velocity: 54
Note OFF: Time 109080, Note Name: C#5
Note ON: Time 109080, Note Name: A#4, Velocity: 51
Note OFF: Time 109140, Note Name: A#4
Note ON: Time 109440, Note Name: C#5, Velocity: 54
Note OFF: Time 109560, Note Name: C#5
Note ON: Time 109560, Note Name: A#4, Velocity: 51
Note OFF: Time 109620, Note Name: A#4
Note ON: Time 109800, Note Name: C5, Velocity: 61
Note OFF: Time 109920, Note Name: C5
Note ON: Time 109920, Note Name: C#5, Velocity: 66
Note OFF: Time 110040, Note Name: C#5
Note ON: Time 110040, Note Name: A#5, Velocity: 64
Note OFF: Time 110100, Note Name: A#5
Note ON: Time 110400, Note Name: A5, Velocity: 64
Note OFF: Time 110520, Note Name: A5
Note ON: Time 110520, Note Name: C5, Velocity: 59
Note OFF: Time 110580, Note Name: C5
Note ON: Time 110760, Note Name: C#5, Velocity: 51
Note OFF: Time 110880, Note Name: C#5
Note ON: Time 110880, Note Name: D#5, Velocity: 54
Note OFF: Time 111000, Note Name: D#5
Note ON: Time 111000, Note Name: C5, Velocity: 51
Note OFF: Time 111060, Note Name: C5
Note ON: Time 111360, Note Name: F#5, Velocity: 57
Note OFF: Time 111480, Note Name: F#5
Note ON: Time 111480, Note Name: C5, Velocity: 51
Note OFF: Time 111540, Note Name: C5
Note ON: Time 111720, Note Name: C#5, Velocity: 51
Note OFF: Time 111840, Note Name: C#5
Note ON: Time 111840, Note Name: D#5, Velocity: 54
Note OFF: Time 111960, Note Name: D#5
Note ON: Time 111960, Note Name: C5, Velocity: 51
Note OFF: Time 112020, Note Name: C5
Note ON: Time 112320, Note Name: F#5, Velocity: 57
Note OFF: Time 112440, Note Name: F#5
Note ON: Time 112440, Note Name: C5, Velocity: 51
Note OFF: Time 112500, Note Name: C5
Note ON: Time 112680, Note Name: C#5, Velocity: 51
Note OFF: Time 112800, Note Name: C#5
Note ON: Time 112800, Note Name: D#5, Velocity: 54
Note OFF: Time 112920, Note Name: D#5
Note ON: Time 112920, Note Name: C5, Velocity: 51
Note OFF: Time 112980, Note Name: C5
Note ON: Time 113280, Note Name: F#5, Velocity: 60
Note OFF: Time 113400, Note Name: F#5
Note ON: Time 113400, Note Name: C5, Velocity: 53
Note OFF: Time 113460, Note Name: C5
Note ON: Time 113640, Note Name: C#5, Velocity: 65
Note OFF: Time 113760, Note Name: C#5
Note ON: Time 113760, Note Name: D#5, Velocity: 71
Note OFF: Time 113880, Note Name: D#5
Note ON: Time 113880, Note Name: C6, Velocity: 64
Note OFF: Time 113940, Note Name: C6
Note ON: Time 114240, Note Name: C6, Velocity: 61
Note ON: Time 114360, Note Name: C#5, Velocity: 57
Note OFF: Time 114420, Note Name: C#5
Note OFF: Time 114480, Note Name: C6
Note ON: Time 114600, Note Name: D#5, Velocity: 49
Note OFF: Time 114720, Note Name: D#5
Note ON: Time 114720, Note Name: A#5, Velocity: 52
Note ON: Time 114720, Note Name: F5, Velocity: 52
Note OFF: Time 114840, Note Name: F5
Note ON: Time 114840, Note Name: C#5, Velocity: 49
Note OFF: Time 114900, Note Name: C#5
Note OFF: Time 114960, Note Name: A#5
Note ON: Time 115200, Note Name: C#5, Velocity: 69
Note ON: Time 115200, Note Name: C#6, Velocity: 82
Note OFF: Time 115320, Note Name: C#6
Note OFF: Time 115320, Note Name: C#5
Note ON: Time 115320, Note Name: C6, Velocity: 75
Note ON: Time 115320, Note Name: G5, Velocity: 63
Note OFF: Time 115380, Note Name: G5
Note OFF: Time 115380, Note Name: C6
Note ON: Time 115560, Note Name: C#5, Velocity: 61
Note ON: Time 115560, Note Name: A#5, Velocity: 72
Note OFF: Time 115680, Note Name: A#5
Note OFF: Time 115680, Note Name: C#5
Note ON: Time 115680, Note Name: A5, Velocity: 78
Note ON: Time 115680, Note Name: F5, Velocity: 64
Note OFF: Time 115800, Note Name: F5
Note OFF: Time 115800, Note Name: A5
Note ON: Time 115800, Note Name: C5, Velocity: 57
Note ON: Time 115800, Note Name: C6, Velocity: 68
Note OFF: Time 115860, Note Name: C6
Note OFF: Time 115860, Note Name: C5
Note ON: Time 116160, Note Name: F#4, Velocity: 46
Note ON: Time 116160, Note Name: F#5, Velocity: 55
Note OFF: Time 116280, Note Name: F#5
Note OFF: Time 116280, Note Name: F#4
Note ON: Time 116280, Note Name: F5, Velocity: 50
Note ON: Time 116280, Note Name: C5, Velocity: 42
Note OFF: Time 116340, Note Name: C5
Note OFF: Time 116340, Note Name: F5
Note ON: Time 116520, Note Name: F#4, Velocity: 40
Note ON: Time 116520, Note Name: D#5, Velocity: 49
Note OFF: Time 116640, Note Name: D#5
Note OFF: Time 116640, Note Name: F#4
Note ON: Time 116640, Note Name: C#5, Velocity: 52
Note ON: Time 116640, Note Name: A#4, Velocity: 44
Note OFF: Time 116760, Note Name: A#4
Note OFF: Time 116760, Note Name: C#5
Note ON: Time 116760, Note Name: F4, Velocity: 40
Note ON: Time 116760, Note Name: F5, Velocity: 49
Note OFF: Time 116820, Note Name: F5
Note OFF: Time 116820, Note Name: F4
Note ON: Time 117120, Note Name: C#5, Velocity: 69
Note ON: Time 117120, Note Name: C#6, Velocity: 82
Note OFF: Time 117240, Note Name: C#6
Note OFF: Time 117240, Note Name: C#5
Note ON: Time 117240, Note Name: C6, Velocity: 75
Note ON: Time 117240, Note Name: G5, Velocity: 63
Note OFF: Time 117300, Note Name: G5
Note OFF: Time 117300, Note Name: C6
Note ON: Time 117480, Note Name: C#5, Velocity: 61
Note ON: Time 117480, Note Name: A#5, Velocity: 72
Note OFF: Time 117600, Note Name: A#5
Note OFF: Time 117600, Note Name: C#5
Note ON: Time 117600, Note Name: A5, Velocity: 78
Note ON: Time 117600, Note Name: F5, Velocity: 64
Note OFF: Time 117720, Note Name: F5
Note OFF: Time 117720, Note Name: A5
Note ON: Time 117720, Note Name: C5, Velocity: 57
Note ON: Time 117720, Note Name: C6, Velocity: 68
Note OFF: Time 117780, Note Name: C6
Note OFF: Time 117780, Note Name: C5
Note ON: Time 118080, Note Name: F#4, Velocity: 46
Note ON: Time 118080, Note Name: F#5, Velocity: 55
Note OFF: Time 118200, Note Name: F#5
Note OFF: Time 118200, Note Name: F#4
Note ON: Time 118200, Note Name: F5, Velocity: 50
Note ON: Time 118200, Note Name: C5, Velocity: 42
Note OFF: Time 118260, Note Name: C5
Note OFF: Time 118260, Note Name: F5
Note ON: Time 118440, Note Name: F#4, Velocity: 40
Note ON: Time 118440, Note Name: D#5, Velocity: 49
Note OFF: Time 118560, Note Name: D#5
Note OFF: Time 118560, Note Name: F#4
Note ON: Time 118560, Note Name: D5, Velocity: 52
Note ON: Time 118560, Note Name: A#4, Velocity: 44
Note OFF: Time 118680, Note Name: A#4
Note OFF: Time 118680, Note Name: D5
Note ON: Time 118680, Note Name: C#5, Velocity: 40
Note ON: Time 118680, Note Name: F4, Velocity: 40
Note ON: Time 118680, Note Name: F5, Velocity: 49
Note OFF: Time 118740, Note Name: F5
Note OFF: Time 118740, Note Name: F4
Note OFF: Time 118740, Note Name: C#5
Note ON: Time 119040, Note Name: A#5, Velocity: 75
Note ON: Time 119040, Note Name: F5, Velocity: 75
Note ON: Time 119040, Note Name: F6, Velocity: 89
Note OFF: Time 119160, Note Name: F6
Note OFF: Time 119160, Note Name: F5
Note OFF: Time 119160, Note Name: A#5
Note ON: Time 119160, Note Name: E6, Velocity: 83
Note ON: Time 119160, Note Name: E5, Velocity: 70
Note OFF: Time 119220, Note Name: E5
Note OFF: Time 119220, Note Name: E6
Note ON: Time 119400, Note Name: C#5, Velocity: 62
Note ON: Time 119400, Note Name: C#6, Velocity: 75
Note OFF: Time 119520, Note Name: C#6
Note OFF: Time 119520, Note Name: C#5
Note ON: Time 119520, Note Name: D#5, Velocity: 68
Note ON: Time 119520, Note Name: C6, Velocity: 80
Note ON: Time 119520, Note Name: C5, Velocity: 68
Note OFF: Time 119640, Note Name: C5
Note OFF: Time 119640, Note Name: C6
Note OFF: Time 119640, Note Name: D#5
Note ON: Time 119640, Note Name: A#4, Velocity: 62
Note ON: Time 119640, Note Name: A#5, Velocity: 75
Note OFF: Time 119700, Note Name: A#5
Note OFF: Time 119700, Note Name: A#4
Note ON: Time 120000, Note Name: A#4, Velocity: 68
Note ON: Time 120000, Note Name: A#5, Velocity: 80
Note OFF: Time 120120, Note Name: A#5
Note OFF: Time 120120, Note Name: A#4
Note ON: Time 120120, Note Name: G#5, Velocity: 73
Note ON: Time 120120, Note Name: E5, Velocity: 61
Note OFF: Time 120180, Note Name: E5
Note OFF: Time 120180, Note Name: G#5
Note ON: Time 120360, Note Name: G4, Velocity: 57
Note ON: Time 120360, Note Name: G5, Velocity: 68
Note OFF: Time 120480, Note Name: G5
Note OFF: Time 120480, Note Name: G4
Note ON: Time 120480, Note Name: D#5, Velocity: 59
Note ON: Time 120480, Note Name: F#5, Velocity: 69
Note OFF: Time 120600, Note Name: F#5
Note OFF: Time 120600, Note Name: D#5
Note ON: Time 120600, Note Name: F#4, Velocity: 53
Note ON: Time 120600, Note Name: C5, Velocity: 62
Note OFF: Time 120660, Note Name: C5
Note OFF: Time 120660, Note Name: F#4
Note ON: Time 120960, Note Name: G#4, Velocity: 57
Note ON: Time 120960, Note Name: G#5, Velocity: 68
Note OFF: Time 121080, Note Name: G#5
Note OFF: Time 121080, Note Name: G#4
Note ON: Time 121080, Note Name: G5, Velocity: 62
Note ON: Time 121080, Note Name: D5, Velocity: 52
Note OFF: Time 121140, Note Name: D5
Note OFF: Time 121140, Note Name: G5
Note ON: Time 121320, Note Name: F4, Velocity: 51
Note ON: Time 121320, Note Name: F5, Velocity: 61
Note OFF: Time 121440, Note Name: F5
Note OFF: Time 121440, Note Name: F4
Note ON: Time 121440, Note Name: C5, Velocity: 53
Note ON: Time 121440, Note Name: D#5, Velocity: 63
Note OFF: Time 121560, Note Name: D#5
Note OFF: Time 121560, Note Name: C5
Note ON: Time 121560, Note Name: D#4, Velocity: 44
Note ON: Time 121560, Note Name: G4, Velocity: 52
Note OFF: Time 121620, Note Name: G4
Note OFF: Time 121620, Note Name: D#4
Note ON: Time 121920, Note Name: C5, Velocity: 57
Note ON: Time 121920, Note Name: D#5, Velocity: 67
Note OFF: Time 122040, Note Name: D#5
Note OFF: Time 122040, Note Name: C5
Note ON: Time 122040, Note Name: F#4, Velocity: 59
Note ON: Time 122040, Note Name: D#4, Velocity: 49
Note OFF: Time 122100, Note Name: D#4
Note OFF: Time 122100, Note Name: F#4
Note ON: Time 122400, Note Name: C5, Velocity: 53
Note ON: Time 122400, Note Name: D#5, Velocity: 62
Note OFF: Time 122520, Note Name: D#5
Note OFF: Time 122520, Note Name: C5
Note ON: Time 122520, Note Name: D#4, Velocity: 46
Note ON: Time 122520, Note Name: F4, Velocity: 56
Note OFF: Time 122580, Note Name: F4
Note OFF: Time 122580, Note Name: D#4
Note ON: Time 122880, Note Name: C#5, Velocity: 68
Note OFF: Time 123000, Note Name: C#5
Note ON: Time 123000, Note Name: C#4, Velocity: 40
Note ON: Time 123000, Note Name: F4, Velocity: 40
Note ON: Time 123000, Note Name: A#4, Velocity: 59
Note OFF: Time 123120, Note Name: A#4
Note OFF: Time 123120, Note Name: F4
Note OFF: Time 123120, Note Name: C#4
Note ON: Time 123240, Note Name: C5, Velocity: 67
Note OFF: Time 123360, Note Name: C5
Note ON: Time 123360, Note Name: C#5, Velocity: 68
Note OFF: Time 123480, Note Name: C#5
Note ON: Time 123480, Note Name: C#4, Velocity: 40
Note ON: Time 123480, Note Name: F4, Velocity: 40
Note ON: Time 123480, Note Name: A#4, Velocity: 60
Note OFF: Time 123600, Note Name: A#4
Note OFF: Time 123600, Note Name: F4
Note OFF: Time 123600, Note Name: C#4
Note ON: Time 123840, Note Name: C#5, Velocity: 68
Note OFF: Time 123960, Note Name: C#5
Note ON: Time 123960, Note Name: C#4, Velocity: 40
Note ON: Time 123960, Note Name: F4, Velocity: 40
Note ON: Time 123960, Note Name: A#4, Velocity: 60
Note OFF: Time 124080, Note Name: A#4
Note OFF: Time 124080, Note Name: F4
Note OFF: Time 124080, Note Name: C#4
Note ON: Time 124200, Note Name: C5, Velocity: 68
Note OFF: Time 124320, Note Name: C5
Note ON: Time 124320, Note Name: C#5, Velocity: 68
Note OFF: Time 124440, Note Name: C#5
Note ON: Time 124440, Note Name: C#4, Velocity: 40
Note ON: Time 124440, Note Name: F4, Velocity: 40
Note ON: Time 124440, Note Name: A#4, Velocity: 60
Note OFF: Time 124560, Note Name: A#4
Note OFF: Time 124560, Note Name: F4
Note OFF: Time 124560, Note Name: C#4
Note ON: Time 124800, Note Name: C#5, Velocity: 68
Note OFF: Time 124920, Note Name: C#5
Note ON: Time 124920, Note Name: C#4, Velocity: 46
Note ON: Time 124920, Note Name: F4, Velocity: 46
Note ON: Time 124920, Note Name: A#4, Velocity: 67
Note OFF: Time 125040, Note Name: A#4
Note OFF: Time 125040, Note Name: F4
Note OFF: Time 125040, Note Name: C#4
Note ON: Time 125160, Note Name: C5, Velocity: 73
Note OFF: Time 125280, Note Name: C5
Note ON: Time 125280, Note Name: C#5, Velocity: 84
Note OFF: Time 125400, Note Name: C#5
Note ON: Time 125400, Note Name: A#4, Velocity: 52
Note ON: Time 125400, Note Name: F5, Velocity: 52
Note ON: Time 125400, Note Name: A#5, Velocity: 76
Note OFF: Time 125520, Note Name: A#5
Note OFF: Time 125520, Note Name: F5
Note OFF: Time 125520, Note Name: A#4
Note ON: Time 125760, Note Name: A5, Velocity: 76
Note OFF: Time 125880, Note Name: A5
Note ON: Time 125880, Note Name: A4, Velocity: 46
Note ON: Time 125880, Note Name: C5, Velocity: 67
Note OFF: Time 126000, Note Name: C5
Note OFF: Time 126000, Note Name: A4
Note ON: Time 126120, Note Name: C#5, Velocity: 67
Note OFF: Time 126240, Note Name: C#5
Note ON: Time 126240, Note Name: D#5, Velocity: 68
Note OFF: Time 126360, Note Name: D#5
Note ON: Time 126360, Note Name: F#4, Velocity: 40
Note ON: Time 126360, Note Name: A4, Velocity: 40
Note ON: Time 126360, Note Name: C5, Velocity: 60
Note OFF: Time 126480, Note Name: C5
Note OFF: Time 126480, Note Name: A4
Note OFF: Time 126480, Note Name: F#4
Note ON: Time 126720, Note Name: F#5, Velocity: 71
Note OFF: Time 126840, Note Name: F#5
Note ON: Time 126840, Note Name: F#4, Velocity: 40
Note ON: Time 126840, Note Name: A4, Velocity: 40
Note ON: Time 126840, Note Name: C5, Velocity: 59
Note OFF: Time 126960, Note Name: C5
Note OFF: Time 126960, Note Name: A4
Note OFF: Time 126960, Note Name: F#4
Note ON: Time 127080, Note Name: C#5, Velocity: 67
Note OFF: Time 127200, Note Name: C#5
Note ON: Time 127200, Note Name: D#5, Velocity: 68
Note OFF: Time 127320, Note Name: D#5
Note ON: Time 127320, Note Name: F#4, Velocity: 40
Note ON: Time 127320, Note Name: A4, Velocity: 40
Note ON: Time 127320, Note Name: C5, Velocity: 60
Note OFF: Time 127440, Note Name: C5
Note OFF: Time 127440, Note Name: A4
Note OFF: Time 127440, Note Name: F#4
Note ON: Time 127680, Note Name: F#5, Velocity: 71
Note OFF: Time 127800, Note Name: F#5
Note ON: Time 127800, Note Name: F#4, Velocity: 40
Note ON: Time 127800, Note Name: A4, Velocity: 40
Note ON: Time 127800, Note Name: C5, Velocity: 59
Note OFF: Time 127920, Note Name: C5
Note OFF: Time 127920, Note Name: A4
Note OFF: Time 127920, Note Name: F#4
Note ON: Time 128040, Note Name: C#5, Velocity: 67
Note OFF: Time 128160, Note Name: C#5
Note ON: Time 128160, Note Name: D#5, Velocity: 68
Note OFF: Time 128280, Note Name: D#5
Note ON: Time 128280, Note Name: F#4, Velocity: 40
Note ON: Time 128280, Note Name: A4, Velocity: 40
Note ON: Time 128280, Note Name: C5, Velocity: 60
Note OFF: Time 128400, Note Name: C5
Note OFF: Time 128400, Note Name: A4
Note OFF: Time 128400, Note Name: F#4
Note ON: Time 128640, Note Name: F#5, Velocity: 74
Note OFF: Time 128760, Note Name: F#5
Note ON: Time 128760, Note Name: F#4, Velocity: 42
Note ON: Time 128760, Note Name: A4, Velocity: 42
Note ON: Time 128760, Note Name: C5, Velocity: 63
Note OFF: Time 128880, Note Name: C5
Note OFF: Time 128880, Note Name: A4
Note OFF: Time 128880, Note Name: F#4
Note ON: Time 129000, Note Name: C#5, Velocity: 82
Note OFF: Time 129120, Note Name: C#5
Note ON: Time 129120, Note Name: D#5, Velocity: 88
Note OFF: Time 129240, Note Name: D#5
Note ON: Time 129240, Note Name: C5, Velocity: 54
Note ON: Time 129240, Note Name: F#5, Velocity: 54
Note ON: Time 129240, Note Name: C6, Velocity: 78
Note OFF: Time 129360, Note Name: C6
Note OFF: Time 129360, Note Name: F#5
Note OFF: Time 129360, Note Name: C5
Note ON: Time 129600, Note Name: C6, Velocity: 73
Note OFF: Time 129720, Note Name: C6
Note ON: Time 129720, Note Name: C5, Velocity: 50
Note ON: Time 129720, Note Name: C#5, Velocity: 72
Note OFF: Time 129840, Note Name: C#5
Note OFF: Time 129840, Note Name: C5
Note ON: Time 129960, Note Name: D#5, Velocity: 64
Note OFF: Time 130080, Note Name: D#5
Note ON: Time 130080, Note Name: F5, Velocity: 69
Note OFF: Time 130200, Note Name: F5
Note ON: Time 130200, Note Name: A#4, Velocity: 44
Note ON: Time 130200, Note Name: A#5, Velocity: 69
Note ON: Time 130200, Note Name: C#5, Velocity: 44
Note OFF: Time 130320, Note Name: C#5
Note OFF: Time 130320, Note Name: A#5
Note OFF: Time 130320, Note Name: A#4
Note ON: Time 130560, Note Name: C#6, Velocity: 85
Note OFF: Time 130680, Note Name: C#6
Note ON: Time 130680, Note Name: C#5, Velocity: 71
Note ON: Time 130680, Note Name: C6, Velocity: 84
Note ON: Time 130680, Note Name: G5, Velocity: 71
Note OFF: Time 130800, Note Name: G5
Note OFF: Time 130800, Note Name: C6
Note OFF: Time 130800, Note Name: C#5
Note ON: Time 130920, Note Name: A#5, Velocity: 80
Note OFF: Time 131040, Note Name: A#5
Note ON: Time 131040, Note Name: A5, Velocity: 86
Note OFF: Time 131160, Note Name: A5
Note ON: Time 131160, Note Name: F5, Velocity: 67
Note ON: Time 131160, Note Name: C5, Velocity: 67
Note ON: Time 131160, Note Name: C6, Velocity: 80
Note OFF: Time 131280, Note Name: C6
Note OFF: Time 131280, Note Name: C5
Note OFF: Time 131280, Note Name: F5
Note ON: Time 131520, Note Name: F#5, Velocity: 67
Note OFF: Time 131640, Note Name: F#5
Note ON: Time 131640, Note Name: F#4, Velocity: 55
Note ON: Time 131640, Note Name: F5, Velocity: 66
Note ON: Time 131640, Note Name: C5, Velocity: 55
Note OFF: Time 131760, Note Name: C5
Note OFF: Time 131760, Note Name: F5
Note OFF: Time 131760, Note Name: F#4
Note ON: Time 131880, Note Name: D#5, Velocity: 64
Note OFF: Time 132000, Note Name: D#5
Note ON: Time 132000, Note Name: D5, Velocity: 69
Note OFF: Time 132120, Note Name: D5
Note ON: Time 132120, Note Name: A#4, Velocity: 53
Note ON: Time 132120, Note Name: C#5, Velocity: 53
Note ON: Time 132120, Note Name: F4, Velocity: 53
Note ON: Time 132120, Note Name: F5, Velocity: 64
Note OFF: Time 132240, Note Name: F5
Note OFF: Time 132240, Note Name: A#4
Note OFF: Time 132240, Note Name: C#5
Note OFF: Time 132240, Note Name: F4
Note ON: Time 132480, Note Name: C#6, Velocity: 85
Note OFF: Time 132600, Note Name: C#6
Note ON: Time 132600, Note Name: C#5, Velocity: 71
Note ON: Time 132600, Note Name: C6, Velocity: 84
Note ON: Time 132600, Note Name: G5, Velocity: 71
Note OFF: Time 132720, Note Name: G5
Note OFF: Time 132720, Note Name: C6
Note OFF: Time 132720, Note Name: C#5
Note ON: Time 132840, Note Name: A#5, Velocity: 80
Note OFF: Time 132960, Note Name: A#5
Note ON: Time 132960, Note Name: A5, Velocity: 86
Note OFF: Time 133080, Note Name: A5
Note ON: Time 133080, Note Name: F5, Velocity: 67
Note ON: Time 133080, Note Name: C5, Velocity: 67
Note ON: Time 133080, Note Name: C6, Velocity: 80
Note OFF: Time 133200, Note Name: C6
Note OFF: Time 133200, Note Name: C5
Note OFF: Time 133200, Note Name: F5
Note ON: Time 133440, Note Name: B5, Velocity: 84
Note OFF: Time 133560, Note Name: B5
Note ON: Time 133560, Note Name: B4, Velocity: 65
Note ON: Time 133560, Note Name: A#5, Velocity: 77
Note ON: Time 133560, Note Name: F5, Velocity: 65
Note OFF: Time 133680, Note Name: F5
Note OFF: Time 133680, Note Name: A#5
Note OFF: Time 133680, Note Name: B4
Note ON: Time 133800, Note Name: G#5, Velocity: 80
Note OFF: Time 133920, Note Name: G#5
Note ON: Time 133920, Note Name: G5, Velocity: 86
Note OFF: Time 134040, Note Name: G5
Note ON: Time 134040, Note Name: F#5, Velocity: 63
Note ON: Time 134040, Note Name: A#4, Velocity: 63
Note ON: Time 134040, Note Name: A#5, Velocity: 75
Note OFF: Time 134160, Note Name: A#5
Note OFF: Time 134160, Note Name: A#4
Note OFF: Time 134160, Note Name: F#5
Note ON: Time 134400, Note Name: F#5, Velocity: 83
Note ON: Time 134400, Note Name: A4, Velocity: 83
Note ON: Time 134400, Note Name: A5, Velocity: 99
Note OFF: Time 134640, Note Name: A5
Note OFF: Time 134640, Note Name: A4
Note ON: Time 134640, Note Name: A#4, Velocity: 66
Note ON: Time 134640, Note Name: A#5, Velocity: 79
Note OFF: Time 134880, Note Name: A#5
Note OFF: Time 134880, Note Name: A#4
Note ON: Time 134880, Note Name: A4, Velocity: 75
Note ON: Time 134880, Note Name: A5, Velocity: 89
Note OFF: Time 135120, Note Name: A5
Note OFF: Time 135120, Note Name: A4
Note OFF: Time 135120, Note Name: F#5
Note ON: Time 135120, Note Name: A#4, Velocity: 66
Note ON: Time 135120, Note Name: F5, Velocity: 66
Note ON: Time 135120, Note Name: A#5, Velocity: 79
Note OFF: Time 135360, Note Name: A#5
Note OFF: Time 135360, Note Name: F5
Note OFF: Time 135360, Note Name: A#4
Note ON: Time 135360, Note Name: A4, Velocity: 78
Note ON: Time 135360, Note Name: F5, Velocity: 78
Note ON: Time 135360, Note Name: A5, Velocity: 92
Note OFF: Time 135600, Note Name: A5
Note OFF: Time 135600, Note Name: F5
Note OFF: Time 135600, Note Name: A4
Note ON: Time 135600, Note Name: D#5, Velocity: 67
Note ON: Time 135600, Note Name: A#4, Velocity: 67
Note ON: Time 135600, Note Name: A#5, Velocity: 80
Note OFF: Time 135840, Note Name: A#5
Note OFF: Time 135840, Note Name: A#4
Note ON: Time 135840, Note Name: A4, Velocity: 74
Note ON: Time 135840, Note Name: A5, Velocity: 89
Note OFF: Time 136080, Note Name: A5
Note OFF: Time 136080, Note Name: A4
Note OFF: Time 136080, Note Name: D#5
Note ON: Time 136080, Note Name: A#4, Velocity: 67
Note ON: Time 136080, Note Name: C#5, Velocity: 67
Note ON: Time 136080, Note Name: A#5, Velocity: 80
Note OFF: Time 136320, Note Name: A#5
Note OFF: Time 136320, Note Name: C#5
Note OFF: Time 136320, Note Name: A#4
Note ON: Time 136320, Note Name: C#4, Velocity: 79
Note ON: Time 136320, Note Name: F#4, Velocity: 84
Note ON: Time 136320, Note Name: C#5, Velocity: 100
Note OFF: Time 136440, Note Name: C#5
Note OFF: Time 136440, Note Name: F#4
Note OFF: Time 136440, Note Name: C#4
Note ON: Time 136560, Note Name: C4, Velocity: 66
Note ON: Time 136560, Note Name: F#4, Velocity: 73
Note ON: Time 136560, Note Name: C5, Velocity: 86
Note OFF: Time 136680, Note Name: C5
Note OFF: Time 136680, Note Name: F#4
Note OFF: Time 136680, Note Name: C4
Note ON: Time 137040, Note Name: G#3, Velocity: 56
Note ON: Time 137040, Note Name: C#4, Velocity: 56
Note ON: Time 137040, Note Name: F#4, Velocity: 58
Note ON: Time 137040, Note Name: A#4, Velocity: 66
Note OFF: Time 137280, Note Name: A#4
Note OFF: Time 137280, Note Name: G#3
Note OFF: Time 137280, Note Name: C#4
Note OFF: Time 137280, Note Name: F#4
Note ON: Time 137280, Note Name: G#3, Velocity: 58
Note ON: Time 137280, Note Name: D4, Velocity: 58
Note ON: Time 137280, Note Name: F#4, Velocity: 56
Note ON: Time 137280, Note Name: A#4, Velocity: 68
Note OFF: Time 137760, Note Name: A#4
Note OFF: Time 137760, Note Name: G#3
Note OFF: Time 137760, Note Name: D4
Note OFF: Time 137760, Note Name: F#4
Note ON: Time 137760, Note Name: G#3, Velocity: 53
Note ON: Time 137760, Note Name: D#4, Velocity: 53
Note ON: Time 137760, Note Name: F#4, Velocity: 62
Note ON: Time 137760, Note Name: G#4, Velocity: 62
Note OFF: Time 138120, Note Name: G#4
Note OFF: Time 138120, Note Name: G#3
Note OFF: Time 138120, Note Name: D#4
Note OFF: Time 138120, Note Name: F#4
Note ON: Time 138120, Note Name: F3, Velocity: 49
Note OFF: Time 138240, Note Name: F3
Note ON: Time 138240, Note Name: F3, Velocity: 41
Note ON: Time 138240, Note Name: C#4, Velocity: 41
Note ON: Time 138240, Note Name: G#4, Velocity: 49
Note OFF: Time 139200, Note Name: G#4
Note OFF: Time 139200, Note Name: C#4
Note OFF: Time 139200, Note Name: F3
Note ON: Time 139200, Note Name: G#3, Velocity: 41
Note ON: Time 139200, Note Name: C#4, Velocity: 41
Note ON: Time 139200, Note Name: F4, Velocity: 49
Note OFF: Time 139680, Note Name: F4
Note OFF: Time 139680, Note Name: C#4
Note OFF: Time 139680, Note Name: G#3
Note ON: Time 139680, Note Name: A#3, Velocity: 37
Note ON: Time 139680, Note Name: D#4, Velocity: 37
Note ON: Time 139680, Note Name: F#4, Velocity: 44
Note OFF: Time 140160, Note Name: F#4
Note OFF: Time 140160, Note Name: D#4
Note OFF: Time 140160, Note Name: A#3
Note ON: Time 140160, Note Name: F#3, Velocity: 34
Note ON: Time 140160, Note Name: C4, Velocity: 36
Note ON: Time 140160, Note Name: F4, Velocity: 47
Note OFF: Time 141120, Note Name: F4
Note ON: Time 141120, Note Name: D#4, Velocity: 41
Note ON: Time 141960, Note Name: F3, Velocity: 41
Note ON: Time 142020, Note Name: C#4, Velocity: 41
Note OFF: Time 142080, Note Name: D#4
Note OFF: Time 142080, Note Name: F#3
Note OFF: Time 142080, Note Name: C4
Note ON: Time 142080, Note Name: G#4, Velocity: 49
Note OFF: Time 142560, Note Name: G#4
Note OFF: Time 142560, Note Name: F3
Note ON: Time 142560, Note Name: G#3, Velocity: 41
Note ON: Time 142560, Note Name: F4, Velocity: 49
Note OFF: Time 143040, Note Name: F4
Note OFF: Time 143040, Note Name: G#3
Note OFF: Time 143040, Note Name: C#4
Note ON: Time 143040, Note Name: A#3, Velocity: 41
Note ON: Time 143040, Note Name: C#4, Velocity: 41
Note ON: Time 143040, Note Name: F#4, Velocity: 49
Note OFF: Time 143280, Note Name: F#4
Note OFF: Time 143280, Note Name: A#3
Note ON: Time 143280, Note Name: G#3, Velocity: 39
Note ON: Time 143280, Note Name: F4, Velocity: 47
Note OFF: Time 143520, Note Name: F4
Note OFF: Time 143520, Note Name: G#3
Note OFF: Time 143520, Note Name: C#4
Note ON: Time 143520, Note Name: D#4, Velocity: 41
Note ON: Time 143520, Note Name: C4, Velocity: 37
Note ON: Time 143520, Note Name: G#4, Velocity: 44
Note OFF: Time 143760, Note Name: G#4
Note OFF: Time 143760, Note Name: C4
Note ON: Time 143760, Note Name: A#3, Velocity: 35
Note ON: Time 143760, Note Name: F#4, Velocity: 41
Note OFF: Time 144000, Note Name: F#4
Note OFF: Time 144000, Note Name: A#3
Note OFF: Time 144000, Note Name: D#4
Note ON: Time 144000, Note Name: F#3, Velocity: 31
Note ON: Time 144000, Note Name: C4, Velocity: 36
Note ON: Time 144000, Note Name: F4, Velocity: 45
Note OFF: Time 144960, Note Name: F4
Note ON: Time 144960, Note Name: D#4, Velocity: 41
Note OFF: Time 145920, Note Name: D#4
Note OFF: Time 145920, Note Name: C4
Note OFF: Time 145920, Note Name: F#3
Note ON: Time 145920, Note Name: C#4, Velocity: 40
Note ON: Time 145920, Note Name: F3, Velocity: 41
Note ON: Time 145920, Note Name: G#4, Velocity: 53
Note OFF: Time 146400, Note Name: G#4
Note OFF: Time 146400, Note Name: F3
Note ON: Time 146400, Note Name: E4, Velocity: 44
Note ON: Time 146400, Note Name: A#4, Velocity: 51
Note OFF: Time 146880, Note Name: A#4
Note OFF: Time 146880, Note Name: E4
Note OFF: Time 146880, Note Name: C#4
Note ON: Time 146880, Note Name: D#4, Velocity: 44
Note ON: Time 146880, Note Name: C5, Velocity: 52
Note OFF: Time 147360, Note Name: C5
Note OFF: Time 147360, Note Name: D#4
Note ON: Time 147360, Note Name: C#5, Velocity: 58
Note ON: Time 147360, Note Name: F#4, Velocity: 49
Note OFF: Time 147720, Note Name: C#5
Note ON: Time 147720, Note Name: C5, Velocity: 53
Note ON: Time 147720, Note Name: D#5, Velocity: 60
Note OFF: Time 147840, Note Name: D#5
Note OFF: Time 147840, Note Name: C5
Note OFF: Time 147840, Note Name: F#4
Note ON: Time 147840, Note Name: F4, Velocity: 43
Note ON: Time 147840, Note Name: C#5, Velocity: 46
Note ON: Time 147840, Note Name: F5, Velocity: 61
Note OFF: Time 148320, Note Name: F5
Note OFF: Time 148320, Note Name: C#5
Note OFF: Time 148320, Note Name: F4
Note ON: Time 148320, Note Name: C#4, Velocity: 44
Note ON: Time 148320, Note Name: E4, Velocity: 44
Note ON: Time 148320, Note Name: A#4, Velocity: 51
Note OFF: Time 148800, Note Name: A#4
Note OFF: Time 148800, Note Name: E4
Note OFF: Time 148800, Note Name: C#4
Note ON: Time 148800, Note Name: C4, Velocity: 44
Note ON: Time 148800, Note Name: D#4, Velocity: 44
Note ON: Time 148800, Note Name: C5, Velocity: 52
Note OFF: Time 149220, Note Name: C5
Note OFF: Time 149220, Note Name: C4
Note ON: Time 149220, Note Name: A#3, Velocity: 56
Note ON: Time 149280, Note Name: C#5, Velocity: 58
Note OFF: Time 149640, Note Name: C#5
Note ON: Time 149640, Note Name: D#5, Velocity: 60
Note OFF: Time 149760, Note Name: D#5
Note OFF: Time 149760, Note Name: A#3
Note OFF: Time 149760, Note Name: D#4
Note ON: Time 149760, Note Name: F4, Velocity: 53
Note ON: Time 149760, Note Name: C5, Velocity: 53
Note ON: Time 149760, Note Name: F5, Velocity: 63
Note OFF: Time 150240, Note Name: F5
Note OFF: Time 150240, Note Name: F4
Note ON: Time 150240, Note Name: F4, Velocity: 53
Note ON: Time 150240, Note Name: D#5, Velocity: 60
Note OFF: Time 150720, Note Name: D#5
Note OFF: Time 150720, Note Name: C5
Note ON: Time 150720, Note Name: C#4, Velocity: 53
Note ON: Time 150720, Note Name: A#4, Velocity: 63
Note ON: Time 150720, Note Name: C#5, Velocity: 63
Note OFF: Time 151200, Note Name: C#5
Note OFF: Time 151200, Note Name: F4
Note OFF: Time 151200, Note Name: C#4
Note OFF: Time 151200, Note Name: A#4
Note ON: Time 151200, Note Name: E4, Velocity: 53
Note ON: Time 151200, Note Name: G#4, Velocity: 53
Note ON: Time 151200, Note Name: C5, Velocity: 63
Note OFF: Time 151560, Note Name: C5
Note OFF: Time 151560, Note Name: G#4
Note OFF: Time 151560, Note Name: E4
Note ON: Time 151560, Note Name: F4, Velocity: 57
Note ON: Time 151560, Note Name: A#4, Velocity: 57
Note OFF: Time 151680, Note Name: A#4
Note OFF: Time 151680, Note Name: F4
Note ON: Time 151680, Note Name: B3, Velocity: 51
Note ON: Time 151680, Note Name: F4, Velocity: 56
Note ON: Time 151680, Note Name: G#4, Velocity: 61
Note OFF: Time 152160, Note Name: G#4
Note OFF: Time 152160, Note Name: F4
Note OFF: Time 152160, Note Name: B3
Note ON: Time 152160, Note Name: F#3, Velocity: 49
Note ON: Time 152160, Note Name: A#3, Velocity: 49
Note ON: Time 152160, Note Name: D#4, Velocity: 59
Note ON: Time 152160, Note Name: F#4, Velocity: 59
Note OFF: Time 152520, Note Name: F#4
Note OFF: Time 152520, Note Name: F#3
Note OFF: Time 152520, Note Name: A#3
Note OFF: Time 152520, Note Name: D#4
Note ON: Time 152520, Note Name: G#3, Velocity: 47
Note ON: Time 152520, Note Name: C#4, Velocity: 56
Note ON: Time 152520, Note Name: F4, Velocity: 56
Note OFF: Time 152640, Note Name: F4
Note OFF: Time 152640, Note Name: C#4
Note OFF: Time 152640, Note Name: G#3
Note ON: Time 152640, Note Name: D#4, Velocity: 59
Note ON: Time 152640, Note Name: A#3, Velocity: 49
Note ON: Time 152640, Note Name: C#4, Velocity: 59
Note OFF: Time 153120, Note Name: C#4
Note OFF: Time 153120, Note Name: A#3
Note ON: Time 153120, Note Name: F#3, Velocity: 47
Note ON: Time 153120, Note Name: C4, Velocity: 53
Note OFF: Time 153360, Note Name: D#4
Note ON: Time 153360, Note Name: E4, Velocity: 60
Note OFF: Time 153480, Note Name: E4
Note OFF: Time 153480, Note Name: C4
Note OFF: Time 153480, Note Name: F#3
Note ON: Time 153480, Note Name: F4, Velocity: 55
Note ON: Time 153540, Note Name: C#5, Velocity: 60
Note ON: Time 153600, Note Name: G#5, Velocity: 72
Note OFF: Time 154560, Note Name: G#5
Note OFF: Time 154560, Note Name: C#5
Note OFF: Time 154560, Note Name: F4
Note ON: Time 154560, Note Name: G#4, Velocity: 49
Note ON: Time 154560, Note Name: C#5, Velocity: 49
Note ON: Time 154560, Note Name: F5, Velocity: 60
Note OFF: Time 155040, Note Name: F5
Note OFF: Time 155040, Note Name: C#5
Note OFF: Time 155040, Note Name: G#4
Note ON: Time 155040, Note Name: F4, Velocity: 34
Note ON: Time 155040, Note Name: G#4, Velocity: 39
Note OFF: Time 155280, Note Name: G#4
Note OFF: Time 155280, Note Name: F4
Note ON: Time 155280, Note Name: A#4, Velocity: 41
Note ON: Time 155280, Note Name: D#5, Velocity: 41
Note ON: Time 155280, Note Name: F#5, Velocity: 55
Note OFF: Time 155520, Note Name: F#5
Note OFF: Time 155520, Note Name: D#5
Note OFF: Time 155520, Note Name: A#4
Note ON: Time 155520, Note Name: F5, Velocity: 68
Note ON: Time 155520, Note Name: F#4, Velocity: 33
Note ON: Time 155520, Note Name: C5, Velocity: 42
Note OFF: Time 156240, Note Name: F5
Note ON: Time 156240, Note Name: D#5, Velocity: 55
Note OFF: Time 156480, Note Name: D#5
Note OFF: Time 156480, Note Name: C5
Note OFF: Time 156480, Note Name: F#4
Note ON: Time 156480, Note Name: A#4, Velocity: 58
Note OFF: Time 156720, Note Name: A#4
Note ON: Time 156720, Note Name: G#4, Velocity: 52
Note OFF: Time 156960, Note Name: G#4
Note ON: Time 156960, Note Name: C#4, Velocity: 61
Note OFF: Time 157200, Note Name: C#4
Note ON: Time 157200, Note Name: D#4, Velocity: 55
Note OFF: Time 157320, Note Name: D#4
Note ON: Time 157320, Note Name: F4, Velocity: 62
Note OFF: Time 157440, Note Name: F4
Note ON: Time 157440, Note Name: F4, Velocity: 55
Note ON: Time 157440, Note Name: C#5, Velocity: 57
Note ON: Time 157440, Note Name: G#5, Velocity: 68
Note OFF: Time 157920, Note Name: G#5
Note OFF: Time 157920, Note Name: F4
Note ON: Time 157920, Note Name: G#4, Velocity: 49
Note ON: Time 157920, Note Name: F5, Velocity: 62
Note OFF: Time 158400, Note Name: F5
Note OFF: Time 158400, Note Name: G#4
Note OFF: Time 158400, Note Name: C#5
Note ON: Time 158400, Note Name: C#5, Velocity: 57
Note ON: Time 158400, Note Name: A#4, Velocity: 55
Note ON: Time 158400, Note Name: F#5, Velocity: 66
Note OFF: Time 158640, Note Name: F#5
Note OFF: Time 158640, Note Name: A#4
Note ON: Time 158640, Note Name: G#4, Velocity: 46
Note ON: Time 158640, Note Name: F5, Velocity: 55
Note OFF: Time 158880, Note Name: F5
Note OFF: Time 158880, Note Name: G#4
Note OFF: Time 158880, Note Name: C#5
Note ON: Time 158880, Note Name: G#4, Velocity: 48
Note ON: Time 158880, Note Name: F5, Velocity: 57
Note OFF: Time 159040, Note Name: F5
Note OFF: Time 159040, Note Name: G#4
Note ON: Time 159040, Note Name: C5, Velocity: 46
Note ON: Time 159040, Note Name: G#5, Velocity: 55
Note OFF: Time 159200, Note Name: G#5
Note OFF: Time 159200, Note Name: C5
Note ON: Time 159200, Note Name: A#4, Velocity: 46
Note ON: Time 159200, Note Name: F#5, Velocity: 55
Note OFF: Time 159360, Note Name: F#5
Note OFF: Time 159360, Note Name: A#4
Note ON: Time 159360, Note Name: F5, Velocity: 61
Note ON: Time 159360, Note Name: F#4, Velocity: 32
Note ON: Time 159360, Note Name: C5, Velocity: 36
Note OFF: Time 160080, Note Name: F5
Note ON: Time 160080, Note Name: D#5, Velocity: 60
Note OFF: Time 160320, Note Name: D#5
Note OFF: Time 160320, Note Name: C5
Note OFF: Time 160320, Note Name: F#4
Note ON: Time 160320, Note Name: A#4, Velocity: 60
Note OFF: Time 160480, Note Name: A#4
Note ON: Time 160480, Note Name: G#4, Velocity: 51
Note OFF: Time 160640, Note Name: G#4
Note ON: Time 160640, Note Name: A#4, Velocity: 51
Note OFF: Time 160800, Note Name: A#4
Note ON: Time 160800, Note Name: G#4, Velocity: 58
Note OFF: Time 160960, Note Name: G#4
Note ON: Time 160960, Note Name: C#4, Velocity: 53
Note OFF: Time 161120, Note Name: C#4
Note ON: Time 161120, Note Name: D#4, Velocity: 53
Note OFF: Time 161280, Note Name: D#4
Note ON: Time 161280, Note Name: G#4, Velocity: 61
Note ON: Time 161280, Note Name: C#5, Velocity: 58
Note ON: Time 161280, Note Name: G#5, Velocity: 73
Note OFF: Time 161760, Note Name: G#4
Note ON: Time 161760, Note Name: A#4, Velocity: 57
Note ON: Time 161760, Note Name: A#5, Velocity: 68
Note OFF: Time 162240, Note Name: A#5
Note OFF: Time 162240, Note Name: C#5
Note OFF: Time 162240, Note Name: G#5
Note OFF: Time 162240, Note Name: A#4
Note ON: Time 162240, Note Name: G#5, Velocity: 61
Note ON: Time 162240, Note Name: F#5, Velocity: 61
Note ON: Time 162240, Note Name: C5, Velocity: 61
Note ON: Time 162240, Note Name: C6, Velocity: 73
Note OFF: Time 162720, Note Name: C6
Note OFF: Time 162720, Note Name: C5
Note ON: Time 162720, Note Name: C#5, Velocity: 68
Note ON: Time 162720, Note Name: C#6, Velocity: 75
Note OFF: Time 163080, Note Name: C#6
Note OFF: Time 163080, Note Name: C#5
Note ON: Time 163080, Note Name: D#5, Velocity: 70
Note ON: Time 163080, Note Name: D#6, Velocity: 73
Note OFF: Time 163200, Note Name: D#6
Note OFF: Time 163200, Note Name: G#5
Note OFF: Time 163200, Note Name: F#5
Note OFF: Time 163200, Note Name: D#5
Note ON: Time 163200, Note Name: G#5, Velocity: 66
Note ON: Time 163200, Note Name: F5, Velocity: 66
Note ON: Time 163200, Note Name: F6, Velocity: 78
Note OFF: Time 163680, Note Name: F6
Note ON: Time 163680, Note Name: A#5, Velocity: 73
Note ON: Time 163680, Note Name: A#4, Velocity: 61
Note OFF: Time 164160, Note Name: A#4
Note OFF: Time 164160, Note Name: G#5
Note OFF: Time 164160, Note Name: F5
Note OFF: Time 164160, Note Name: A#5
Note ON: Time 164160, Note Name: C5, Velocity: 66
Note ON: Time 164160, Note Name: C6, Velocity: 78
Note ON: Time 164160, Note Name: G#5, Velocity: 66
Note ON: Time 164160, Note Name: F#5, Velocity: 66
Note OFF: Time 164640, Note Name: F#5
Note OFF: Time 164640, Note Name: C5
Note OFF: Time 164640, Note Name: C6
Note OFF: Time 164640, Note Name: G#5
Note ON: Time 164640, Note Name: C#6, Velocity: 79
Note ON: Time 164640, Note Name: C#5, Velocity: 66
Note OFF: Time 165000, Note Name: C#5
Note OFF: Time 165000, Note Name: C#6
Note ON: Time 165000, Note Name: D#5, Velocity: 64
Note ON: Time 165000, Note Name: D#6, Velocity: 77
Note OFF: Time 165120, Note Name: D#6
Note OFF: Time 165120, Note Name: D#5
Note ON: Time 165120, Note Name: C6, Velocity: 66
Note ON: Time 165120, Note Name: D#6, Velocity: 74
Note ON: Time 165120, Note Name: F5, Velocity: 70
Note ON: Time 165120, Note Name: F6, Velocity: 81
Note OFF: Time 165600, Note Name: F6
Note OFF: Time 165600, Note Name: F5
Note ON: Time 165600, Note Name: F#5, Velocity: 66
Note ON: Time 165600, Note Name: F#6, Velocity: 78
Note OFF: Time 166080, Note Name: D#6
Note OFF: Time 166080, Note Name: C6
Note ON: Time 166080, Note Name: A#5, Velocity: 74
Note ON: Time 166080, Note Name: C#6, Velocity: 74
Note OFF: Time 166320, Note Name: F#5
Note OFF: Time 166320, Note Name: F#6
Note ON: Time 166320, Note Name: F5, Velocity: 64
Note ON: Time 166320, Note Name: F6, Velocity: 77
Note OFF: Time 166560, Note Name: F6
Note OFF: Time 166560, Note Name: F5
Note ON: Time 166560, Note Name: E5, Velocity: 63
Note ON: Time 166560, Note Name: E6, Velocity: 75
Note OFF: Time 166800, Note Name: E6
Note OFF: Time 166800, Note Name: E5
Note ON: Time 166800, Note Name: F5, Velocity: 63
Note ON: Time 166800, Note Name: F6, Velocity: 75
Note OFF: Time 167040, Note Name: F6
Note OFF: Time 167040, Note Name: C#6
Note OFF: Time 167040, Note Name: A#5
Note OFF: Time 167040, Note Name: F5
Note ON: Time 167040, Note Name: D#6, Velocity: 57
Note ON: Time 167040, Note Name: F#6, Velocity: 71
Note ON: Time 167040, Note Name: G#6, Velocity: 85
Note ON: Time 167040, Note Name: G#5, Velocity: 72
Note OFF: Time 167520, Note Name: G#5
Note OFF: Time 167520, Note Name: G#6
Note ON: Time 167520, Note Name: A#5, Velocity: 70
Note ON: Time 167520, Note Name: A#6, Velocity: 84
Note OFF: Time 168000, Note Name: F#6
Note OFF: Time 168000, Note Name: D#6
Note ON: Time 168000, Note Name: F6, Velocity: 81
Note OFF: Time 168240, Note Name: A#5
Note OFF: Time 168240, Note Name: A#6
Note ON: Time 168240, Note Name: G#5, Velocity: 67
Note ON: Time 168240, Note Name: G#6, Velocity: 80
Note OFF: Time 168480, Note Name: G#6
Note OFF: Time 168480, Note Name: G#5
Note OFF: Time 168480, Note Name: F6
Note ON: Time 168480, Note Name: F#5, Velocity: 70
Note ON: Time 168480, Note Name: F#6, Velocity: 84
Note ON: Time 168480, Note Name: A#5, Velocity: 62
Note OFF: Time 168840, Note Name: F#6
Note OFF: Time 168840, Note Name: F#5
Note ON: Time 168840, Note Name: F6, Velocity: 78
Note ON: Time 168840, Note Name: F5, Velocity: 66
Note OFF: Time 168960, Note Name: F5
Note OFF: Time 168960, Note Name: F6
Note OFF: Time 168960, Note Name: A#5
Note ON: Time 168960, Note Name: A#5, Velocity: 73
Note ON: Time 168960, Note Name: G#5, Velocity: 73
Note ON: Time 168960, Note Name: G#6, Velocity: 86
Note OFF: Time 169200, Note Name: G#6
Note OFF: Time 169200, Note Name: G#5
Note ON: Time 169200, Note Name: F#5, Velocity: 60
Note ON: Time 169200, Note Name: F#6, Velocity: 72
Note OFF: Time 169440, Note Name: F#6
Note OFF: Time 169440, Note Name: F#5
Note OFF: Time 169440, Note Name: A#5
Note ON: Time 169440, Note Name: A#5, Velocity: 53
Note ON: Time 169440, Note Name: F5, Velocity: 59
Note ON: Time 169440, Note Name: F6, Velocity: 72
Note OFF: Time 169680, Note Name: F6
Note OFF: Time 169680, Note Name: F5
Note ON: Time 169680, Note Name: D5, Velocity: 60
Note ON: Time 169680, Note Name: D6, Velocity: 72
Note OFF: Time 169920, Note Name: D6
Note OFF: Time 169920, Note Name: D5
Note OFF: Time 169920, Note Name: A#5
Note ON: Time 169920, Note Name: A#5, Velocity: 61
Note ON: Time 169920, Note Name: F6, Velocity: 81
Note ON: Time 169920, Note Name: F5, Velocity: 69
Note OFF: Time 170160, Note Name: F5
Note OFF: Time 170160, Note Name: F6
Note ON: Time 170160, Note Name: D#6, Velocity: 71
Note ON: Time 170160, Note Name: D#5, Velocity: 60
Note OFF: Time 170400, Note Name: D#5
Note OFF: Time 170400, Note Name: D#6
Note OFF: Time 170400, Note Name: A#5
Note ON: Time 170400, Note Name: E5, Velocity: 53
Note ON: Time 170400, Note Name: A#5, Velocity: 72
Note ON: Time 170400, Note Name: A#4, Velocity: 61
Note OFF: Time 170640, Note Name: A#4
Note OFF: Time 170640, Note Name: A#5
Note ON: Time 170640, Note Name: C#6, Velocity: 67
Note ON: Time 170640, Note Name: C#5, Velocity: 56
Note OFF: Time 170880, Note Name: C#5
Note OFF: Time 170880, Note Name: C#6
Note OFF: Time 170880, Note Name: E5
Note ON: Time 170880, Note Name: F5, Velocity: 64
Note ON: Time 170880, Note Name: A#4, Velocity: 66
Note ON: Time 170880, Note Name: A#5, Velocity: 80
Note OFF: Time 171120, Note Name: A#5
Note OFF: Time 171120, Note Name: A#4
Note ON: Time 171120, Note Name: G#5, Velocity: 73
Note ON: Time 171120, Note Name: G#4, Velocity: 61
Note OFF: Time 171360, Note Name: G#4
Note OFF: Time 171360, Note Name: G#5
Note OFF: Time 171360, Note Name: F5
Note ON: Time 171360, Note Name: C#5, Velocity: 73
Note ON: Time 171360, Note Name: F#4, Velocity: 61
Note ON: Time 171360, Note Name: C#4, Velocity: 61
Note OFF: Time 171600, Note Name: C#4
Note OFF: Time 171600, Note Name: F#4
Note ON: Time 171600, Note Name: F#4, Velocity: 62
Note ON: Time 171600, Note Name: F#5, Velocity: 74
Note OFF: Time 171840, Note Name: F#5
Note OFF: Time 171840, Note Name: F#4
Note OFF: Time 171840, Note Name: C#5
Note ON: Time 171840, Note Name: C#4, Velocity: 67
Note ON: Time 171840, Note Name: F#4, Velocity: 67
Note ON: Time 171840, Note Name: C#5, Velocity: 67
Note ON: Time 171840, Note Name: D#5, Velocity: 80
Note OFF: Time 172320, Note Name: D#5
Note OFF: Time 172320, Note Name: C#4
Note OFF: Time 172320, Note Name: F#4
Note OFF: Time 172320, Note Name: C#5
Note ON: Time 172320, Note Name: F4, Velocity: 59
Note ON: Time 172320, Note Name: F5, Velocity: 75
Note ON: Time 172320, Note Name: C5, Velocity: 51
Note OFF: Time 172560, Note Name: F5
Note OFF: Time 172560, Note Name: F4
Note ON: Time 172560, Note Name: F#4, Velocity: 60
Note ON: Time 172560, Note Name: F#5, Velocity: 70
Note OFF: Time 172800, Note Name: F#5
Note OFF: Time 172800, Note Name: F#4
Note OFF: Time 172800, Note Name: C5
Note ON: Time 172800, Note Name: C#5, Velocity: 46
Note ON: Time 172800, Note Name: A#4, Velocity: 60
Note ON: Time 172800, Note Name: A#5, Velocity: 77
Note OFF: Time 173040, Note Name: A#5
Note OFF: Time 173040, Note Name: A#4
Note ON: Time 173040, Note Name: A4, Velocity: 50
Note ON: Time 173040, Note Name: A5, Velocity: 70
Note OFF: Time 173280, Note Name: A5
Note OFF: Time 173280, Note Name: A4
Note OFF: Time 173280, Note Name: C#5
Note ON: Time 173280, Note Name: C#5, Velocity: 53
Note ON: Time 173280, Note Name: G#4, Velocity: 64
Note ON: Time 173280, Note Name: G#5, Velocity: 77
Note OFF: Time 173440, Note Name: G#5
Note OFF: Time 173440, Note Name: G#4
Note OFF: Time 173440, Note Name: C#5
Note ON: Time 173440, Note Name: C#5, Velocity: 70
Note ON: Time 173440, Note Name: C#4, Velocity: 60
Note OFF: Time 173600, Note Name: C#4
Note ON: Time 173600, Note Name: F#4, Velocity: 60
Note ON: Time 173600, Note Name: F#5, Velocity: 70
Note OFF: Time 173760, Note Name: F#5
Note OFF: Time 173760, Note Name: F#4
Note OFF: Time 173760, Note Name: C#5
Note ON: Time 173760, Note Name: D#4, Velocity: 66
Note ON: Time 173760, Note Name: D#5, Velocity: 80
Note ON: Time 173760, Note Name: F#4, Velocity: 66
Note ON: Time 173760, Note Name: C#5, Velocity: 66
Note OFF: Time 174000, Note Name: D#5
Note OFF: Time 174000, Note Name: D#4
Note ON: Time 174000, Note Name: F4, Velocity: 57
Note ON: Time 174000, Note Name: F5, Velocity: 68
Note OFF: Time 174120, Note Name: F5
Note OFF: Time 174120, Note Name: F4
Note ON: Time 174120, Note Name: D#4, Velocity: 53
Note ON: Time 174120, Note Name: D#5, Velocity: 63
Note OFF: Time 174240, Note Name: D#5
Note OFF: Time 174240, Note Name: C#5
Note OFF: Time 174240, Note Name: F#4
Note OFF: Time 174240, Note Name: D#4
Note ON: Time 174240, Note Name: C5, Velocity: 61
Note ON: Time 174240, Note Name: D4, Velocity: 61
Note ON: Time 174240, Note Name: D5, Velocity: 73
Note OFF: Time 174360, Note Name: D5
Note OFF: Time 174360, Note Name: D4
Note ON: Time 174360, Note Name: D#4, Velocity: 57
Note ON: Time 174360, Note Name: D#5, Velocity: 68
Note OFF: Time 174480, Note Name: D#5
Note OFF: Time 174480, Note Name: D#4
Note ON: Time 174480, Note Name: F4, Velocity: 61
Note ON: Time 174480, Note Name: F5, Velocity: 73
Note OFF: Time 174600, Note Name: F5
Note OFF: Time 174600, Note Name: F4
Note ON: Time 174600, Note Name: F#4, Velocity: 58
Note ON: Time 174600, Note Name: F#5, Velocity: 69
Note OFF: Time 174720, Note Name: F#5
Note OFF: Time 174720, Note Name: F#4
Note OFF: Time 174720, Note Name: C5
Note ON: Time 174720, Note Name: C#5, Velocity: 70
Note ON: Time 174720, Note Name: G4, Velocity: 70
Note ON: Time 174720, Note Name: G5, Velocity: 83
Note OFF: Time 174880, Note Name: G5
Note OFF: Time 174880, Note Name: G4
Note ON: Time 174880, Note Name: G#4, Velocity: 66
Note ON: Time 174880, Note Name: G#5, Velocity: 79
Note OFF: Time 175040, Note Name: G#5
Note OFF: Time 175040, Note Name: G#4
Note OFF: Time 175040, Note Name: C#5
Note ON: Time 175040, Note Name: F5, Velocity: 69
Note ON: Time 175040, Note Name: F6, Velocity: 77
Note OFF: Time 175200, Note Name: F6
Note OFF: Time 175200, Note Name: F5
Note ON: Time 175200, Note Name: F#5, Velocity: 70
Note ON: Time 175200, Note Name: D#5, Velocity: 70
Note ON: Time 175200, Note Name: D#6, Velocity: 82
Note OFF: Time 175360, Note Name: D#6
Note OFF: Time 175360, Note Name: D#5
Note ON: Time 175360, Note Name: C#5, Velocity: 62
Note ON: Time 175360, Note Name: C#6, Velocity: 73
Note OFF: Time 175520, Note Name: C#6
Note OFF: Time 175520, Note Name: C#5
Note OFF: Time 175520, Note Name: F#5
Note ON: Time 175520, Note Name: C#5, Velocity: 64
Note ON: Time 175520, Note Name: F#5, Velocity: 80
Note ON: Time 175520, Note Name: F#4, Velocity: 68
Note OFF: Time 175680, Note Name: F#4
Note OFF: Time 175680, Note Name: F#5
Note OFF: Time 175680, Note Name: C#5
Note ON: Time 175680, Note Name: D#5, Velocity: 82
Note ON: Time 175680, Note Name: D#4, Velocity: 69
Note ON: Time 175680, Note Name: G#4, Velocity: 69
Note ON: Time 175680, Note Name: C#5, Velocity: 69
Note OFF: Time 176160, Note Name: C#5
Note OFF: Time 176160, Note Name: D#4
Note ON: Time 176160, Note Name: F#4, Velocity: 61
Note ON: Time 176160, Note Name: C5, Velocity: 61
Note OFF: Time 176400, Note Name: C5
Note OFF: Time 176400, Note Name: F#4
Note OFF: Time 176400, Note Name: G#4
Note OFF: Time 176580, Note Name: D#5
Note ON: Time 176580, Note Name: C#5, Velocity: 73
Note OFF: Time 176640, Note Name: C#5
Note ON: Time 176640, Note Name: F4, Velocity: 72
Note ON: Time 176640, Note Name: C#5, Velocity: 85
Note OFF: Time 176800, Note Name: C#5
Note OFF: Time 176800, Note Name: F4
Note ON: Time 176800, Note Name: D#4, Velocity: 62
Note ON: Time 176800, Note Name: A#4, Velocity: 73
Note OFF: Time 176880, Note Name: A#4
Note OFF: Time 176880, Note Name: D#4
Note ON: Time 176960, Note Name: A#4, Velocity: 73
Note ON: Time 176960, Note Name: D#4, Velocity: 62
Note OFF: Time 177040, Note Name: D#4
Note OFF: Time 177040, Note Name: A#4
Note ON: Time 177120, Note Name: D#4, Velocity: 62
Note ON: Time 177120, Note Name: A#4, Velocity: 75
Note OFF: Time 177280, Note Name: A#4
Note OFF: Time 177280, Note Name: D#4
Note ON: Time 177280, Note Name: G#4, Velocity: 71
Note OFF: Time 177360, Note Name: G#4
Note ON: Time 177440, Note Name: C5, Velocity: 62
Note ON: Time 177440, Note Name: F#5, Velocity: 74
Note OFF: Time 177520, Note Name: F#5
Note OFF: Time 177520, Note Name: C5
Note ON: Time 177600, Note Name: C5, Velocity: 63
Note ON: Time 177600, Note Name: F#5, Velocity: 75
Note OFF: Time 177760, Note Name: F#5
Note OFF: Time 177760, Note Name: C5
Note ON: Time 177760, Note Name: C#5, Velocity: 62
Note ON: Time 177760, Note Name: F5, Velocity: 74
Note OFF: Time 177840, Note Name: F5
Note OFF: Time 177840, Note Name: C#5
Note ON: Time 177920, Note Name: D#5, Velocity: 62
Note ON: Time 177920, Note Name: A#5, Velocity: 74
Note OFF: Time 178000, Note Name: A#5
Note OFF: Time 178000, Note Name: D#5
Note ON: Time 178080, Note Name: A#5, Velocity: 78
Note ON: Time 178080, Note Name: D#5, Velocity: 64
Note OFF: Time 178240, Note Name: D#5
Note OFF: Time 178240, Note Name: A#5
Note ON: Time 178240, Note Name: G#5, Velocity: 73
Note OFF: Time 178320, Note Name: G#5
Note ON: Time 178400, Note Name: F#6, Velocity: 73
Note ON: Time 178400, Note Name: C6, Velocity: 62
Note OFF: Time 178480, Note Name: C6
Note OFF: Time 178480, Note Name: F#6
Note ON: Time 178560, Note Name: C6, Velocity: 64
Note ON: Time 178560, Note Name: F#6, Velocity: 78
Note OFF: Time 178720, Note Name: F#6
Note OFF: Time 178720, Note Name: C6
Note ON: Time 178720, Note Name: C#6, Velocity: 62
Note ON: Time 178720, Note Name: F6, Velocity: 73
Note OFF: Time 178800, Note Name: F6
Note OFF: Time 178800, Note Name: C#6
Note ON: Time 178880, Note Name: A#5, Velocity: 73
Note ON: Time 178880, Note Name: D#5, Velocity: 62
Note OFF: Time 178960, Note Name: D#5
Note OFF: Time 178960, Note Name: A#5
Note ON: Time 179040, Note Name: D#5, Velocity: 62
Note ON: Time 179040, Note Name: A#5, Velocity: 75
Note OFF: Time 179200, Note Name: A#5
Note OFF: Time 179200, Note Name: D#5
Note ON: Time 179200, Note Name: G#5, Velocity: 72
Note OFF: Time 179280, Note Name: G#5
Note ON: Time 179360, Note Name: C5, Velocity: 62
Note ON: Time 179360, Note Name: F#5, Velocity: 74
Note OFF: Time 179440, Note Name: F#5
Note OFF: Time 179440, Note Name: C5
Note ON: Time 179520, Note Name: F#5, Velocity: 75
Note ON: Time 179520, Note Name: C5, Velocity: 62
Note OFF: Time 179680, Note Name: C5
Note OFF: Time 179680, Note Name: F#5
Note ON: Time 179680, Note Name: C#5, Velocity: 60
Note ON: Time 179680, Note Name: F5, Velocity: 71
Note OFF: Time 179760, Note Name: F5
Note OFF: Time 179760, Note Name: C#5
Note ON: Time 179840, Note Name: A#4, Velocity: 74
Note ON: Time 179840, Note Name: D#4, Velocity: 62
Note OFF: Time 179920, Note Name: D#4
Note OFF: Time 179920, Note Name: A#4
Note ON: Time 180000, Note Name: D#4, Velocity: 64
Note ON: Time 180000, Note Name: A#4, Velocity: 78
Note OFF: Time 180160, Note Name: A#4
Note OFF: Time 180160, Note Name: D#4
Note ON: Time 180160, Note Name: G#4, Velocity: 74
Note OFF: Time 180240, Note Name: G#4
Note ON: Time 180320, Note Name: C4, Velocity: 62
Note ON: Time 180320, Note Name: F#4, Velocity: 74
Note OFF: Time 180400, Note Name: F#4
Note OFF: Time 180400, Note Name: C4
Note ON: Time 180480, Note Name: C4, Velocity: 64
Note ON: Time 180480, Note Name: F#4, Velocity: 78
Note OFF: Time 180640, Note Name: F#4
Note OFF: Time 180640, Note Name: C4
Note ON: Time 180640, Note Name: F4, Velocity: 67
Note ON: Time 180640, Note Name: C#4, Velocity: 56
Note OFF: Time 180720, Note Name: C#4
Note OFF: Time 180720, Note Name: F4
Note ON: Time 180800, Note Name: A4, Velocity: 59
Note ON: Time 180800, Note Name: E4, Velocity: 49
Note OFF: Time 180880, Note Name: E4
Note OFF: Time 180880, Note Name: A4
Note ON: Time 180960, Note Name: A4, Velocity: 62
Note ON: Time 180960, Note Name: E4, Velocity: 51
Note OFF: Time 181120, Note Name: E4
Note OFF: Time 181120, Note Name: A4
Note ON: Time 181120, Note Name: D#4, Velocity: 49
Note ON: Time 181120, Note Name: G#4, Velocity: 58
Note OFF: Time 181200, Note Name: G#4
Note OFF: Time 181200, Note Name: D#4
Note ON: Time 181280, Note Name: C5, Velocity: 44
Note ON: Time 181280, Note Name: F#5, Velocity: 52
Note OFF: Time 181360, Note Name: F#5
Note OFF: Time 181360, Note Name: C5
Note ON: Time 181440, Note Name: C5, Velocity: 46
Note ON: Time 181440, Note Name: F#5, Velocity: 55
Note OFF: Time 181600, Note Name: F#5
Note OFF: Time 181600, Note Name: C5
Note ON: Time 181600, Note Name: C#5, Velocity: 44
Note ON: Time 181600, Note Name: F5, Velocity: 52
Note OFF: Time 181680, Note Name: F5
Note OFF: Time 181680, Note Name: C#5
Note ON: Time 181760, Note Name: E5, Velocity: 44
Note ON: Time 181760, Note Name: A5, Velocity: 52
Note OFF: Time 181840, Note Name: A5
Note OFF: Time 181840, Note Name: E5
Note ON: Time 181920, Note Name: A5, Velocity: 55
Note ON: Time 181920, Note Name: E5, Velocity: 46
Note OFF: Time 182080, Note Name: E5
Note OFF: Time 182080, Note Name: A5
Note ON: Time 182080, Note Name: D#5, Velocity: 41
Note ON: Time 182080, Note Name: G#5, Velocity: 51
Note OFF: Time 182160, Note Name: G#5
Note OFF: Time 182160, Note Name: D#5
Note ON: Time 182240, Note Name: C6, Velocity: 39
Note ON: Time 182240, Note Name: F#6, Velocity: 46
Note OFF: Time 182320, Note Name: F#6
Note OFF: Time 182320, Note Name: C6
Note ON: Time 182400, Note Name: C6, Velocity: 40
Note ON: Time 182400, Note Name: F#6, Velocity: 49
Note OFF: Time 182560, Note Name: F#6
Note OFF: Time 182560, Note Name: C6
Note ON: Time 182560, Note Name: C#6, Velocity: 39
Note ON: Time 182560, Note Name: F6, Velocity: 46
Note OFF: Time 182640, Note Name: F6
Note OFF: Time 182640, Note Name: C#6
Note ON: Time 182720, Note Name: A5, Velocity: 55
Note ON: Time 182720, Note Name: E5, Velocity: 47
Note OFF: Time 182800, Note Name: E5
Note OFF: Time 182800, Note Name: A5
Note ON: Time 182880, Note Name: E5, Velocity: 49
Note ON: Time 182880, Note Name: A5, Velocity: 59
Note OFF: Time 183040, Note Name: A5
Note OFF: Time 183040, Note Name: E5
Note ON: Time 183040, Note Name: G#5, Velocity: 56
Note ON: Time 183040, Note Name: D#5, Velocity: 45
Note OFF: Time 183120, Note Name: D#5
Note OFF: Time 183120, Note Name: G#5
Note ON: Time 183200, Note Name: C5, Velocity: 47
Note ON: Time 183200, Note Name: F#5, Velocity: 56
Note OFF: Time 183280, Note Name: F#5
Note OFF: Time 183280, Note Name: C5
Note ON: Time 183360, Note Name: C5, Velocity: 49
Note ON: Time 183360, Note Name: F#5, Velocity: 59
Note OFF: Time 183520, Note Name: F#5
Note OFF: Time 183520, Note Name: C5
Note ON: Time 183520, Note Name: C#5, Velocity: 47
Note ON: Time 183520, Note Name: F5, Velocity: 55
Note OFF: Time 183600, Note Name: F5
Note OFF: Time 183600, Note Name: C#5
Note ON: Time 183680, Note Name: A4, Velocity: 56
Note ON: Time 183680, Note Name: E4, Velocity: 47
Note OFF: Time 183760, Note Name: E4
Note OFF: Time 183760, Note Name: A4
Note ON: Time 183840, Note Name: E4, Velocity: 49
Note ON: Time 183840, Note Name: A4, Velocity: 59
Note OFF: Time 184000, Note Name: A4
Note OFF: Time 184000, Note Name: E4
Note ON: Time 184000, Note Name: G#4, Velocity: 56
Note ON: Time 184000, Note Name: D#4, Velocity: 45
Note OFF: Time 184080, Note Name: D#4
Note OFF: Time 184080, Note Name: G#4
Note ON: Time 184160, Note Name: D#4, Velocity: 52
Note ON: Time 184160, Note Name: C4, Velocity: 52
Note ON: Time 184160, Note Name: F#4, Velocity: 62
Note OFF: Time 184240, Note Name: F#4
Note OFF: Time 184240, Note Name: C4
Note OFF: Time 184240, Note Name: D#4
Note ON: Time 184320, Note Name: D#4, Velocity: 49
Note ON: Time 184320, Note Name: C4, Velocity: 49
Note ON: Time 184320, Note Name: F#4, Velocity: 59
Note OFF: Time 184480, Note Name: F#4
Note OFF: Time 184480, Note Name: C4
Note OFF: Time 184480, Note Name: D#4
Note ON: Time 184480, Note Name: E4, Velocity: 42
Note ON: Time 184480, Note Name: C4, Velocity: 41
Note ON: Time 184480, Note Name: G4, Velocity: 49
Note OFF: Time 184560, Note Name: G4
Note OFF: Time 184560, Note Name: C4
Note OFF: Time 184560, Note Name: E4
Note ON: Time 184640, Note Name: D4, Velocity: 49
Note ON: Time 184640, Note Name: F#4, Velocity: 47
Note ON: Time 184640, Note Name: C5, Velocity: 56
Note OFF: Time 184720, Note Name: C5
Note OFF: Time 184720, Note Name: F#4
Note OFF: Time 184720, Note Name: D4
Note ON: Time 184800, Note Name: F#4, Velocity: 49
Note ON: Time 184800, Note Name: C5, Velocity: 59
Note ON: Time 184800, Note Name: D4, Velocity: 49
Note OFF: Time 184960, Note Name: D4
Note OFF: Time 184960, Note Name: C5
Note OFF: Time 184960, Note Name: F#4
Note ON: Time 184960, Note Name: D4, Velocity: 42
Note ON: Time 184960, Note Name: G4, Velocity: 41
Note ON: Time 184960, Note Name: B4, Velocity: 48
Note OFF: Time 185040, Note Name: B4
Note OFF: Time 185040, Note Name: G4
Note OFF: Time 185040, Note Name: D4
Note ON: Time 185120, Note Name: F4, Velocity: 47
Note ON: Time 185120, Note Name: G4, Velocity: 47
Note ON: Time 185120, Note Name: B4, Velocity: 47
Note ON: Time 185120, Note Name: F5, Velocity: 56
Note OFF: Time 185200, Note Name: F5
Note OFF: Time 185200, Note Name: F4
Note OFF: Time 185200, Note Name: G4
Note OFF: Time 185200, Note Name: B4
Note ON: Time 185280, Note Name: F4, Velocity: 49
Note ON: Time 185280, Note Name: G4, Velocity: 49
Note ON: Time 185280, Note Name: F5, Velocity: 59
Note ON: Time 185280, Note Name: B4, Velocity: 49
Note OFF: Time 185440, Note Name: B4
Note OFF: Time 185440, Note Name: F4
Note OFF: Time 185440, Note Name: G4
Note OFF: Time 185440, Note Name: F5
Note ON: Time 185440, Note Name: G4, Velocity: 46
Note ON: Time 185440, Note Name: C5, Velocity: 44
Note ON: Time 185440, Note Name: E5, Velocity: 52
Note OFF: Time 185520, Note Name: E5
Note OFF: Time 185520, Note Name: C5
Note OFF: Time 185520, Note Name: G4
Note ON: Time 185600, Note Name: C6, Velocity: 56
Note ON: Time 185600, Note Name: D5, Velocity: 49
Note ON: Time 185600, Note Name: F#5, Velocity: 47
Note ON: Time 185600, Note Name: C5, Velocity: 49
Note OFF: Time 185680, Note Name: C5
Note OFF: Time 185680, Note Name: C6
Note OFF: Time 185680, Note Name: D5
Note OFF: Time 185680, Note Name: F#5
Note ON: Time 185760, Note Name: C5, Velocity: 49
Note ON: Time 185760, Note Name: D5, Velocity: 49
Note ON: Time 185760, Note Name: F#5, Velocity: 49
Note ON: Time 185760, Note Name: C6, Velocity: 59
Note OFF: Time 185920, Note Name: C6
Note OFF: Time 185920, Note Name: C5
Note OFF: Time 185920, Note Name: D5
Note OFF: Time 185920, Note Name: F#5
Note ON: Time 185920, Note Name: G5, Velocity: 41
Note ON: Time 185920, Note Name: B5, Velocity: 51
Note ON: Time 185920, Note Name: B4, Velocity: 46
Note OFF: Time 186000, Note Name: B4
Note OFF: Time 186000, Note Name: B5
Note OFF: Time 186000, Note Name: G5
Note ON: Time 186080, Note Name: F5, Velocity: 49
Note ON: Time 186080, Note Name: G5, Velocity: 49
Note ON: Time 186080, Note Name: B5, Velocity: 47
Note ON: Time 186080, Note Name: F6, Velocity: 55
Note OFF: Time 186160, Note Name: F6
Note OFF: Time 186160, Note Name: F5
Note OFF: Time 186160, Note Name: G5
Note OFF: Time 186160, Note Name: B5
Note ON: Time 186240, Note Name: F5, Velocity: 49
Note ON: Time 186240, Note Name: G5, Velocity: 49
Note ON: Time 186240, Note Name: B5, Velocity: 49
Note ON: Time 186240, Note Name: F6, Velocity: 59
Note OFF: Time 186400, Note Name: F6
Note OFF: Time 186400, Note Name: F5
Note OFF: Time 186400, Note Name: G5
Note OFF: Time 186400, Note Name: B5
Note ON: Time 186400, Note Name: D5, Velocity: 63
Note ON: Time 186400, Note Name: A#4, Velocity: 45
Note OFF: Time 186560, Note Name: A#4
Note OFF: Time 186560, Note Name: D5
Note ON: Time 186560, Note Name: B4, Velocity: 66
Note ON: Time 186560, Note Name: G#5, Velocity: 80
Note OFF: Time 186720, Note Name: G#5
Note OFF: Time 186720, Note Name: B4
Note ON: Time 186720, Note Name: C#5, Velocity: 68
Note ON: Time 186720, Note Name: F5, Velocity: 74
Note OFF: Time 186880, Note Name: F5
Note OFF: Time 186880, Note Name: C#5
Note ON: Time 186880, Note Name: D5, Velocity: 71
Note ON: Time 186880, Note Name: B5, Velocity: 84
Note OFF: Time 187040, Note Name: B5
Note OFF: Time 187040, Note Name: D5
Note ON: Time 187040, Note Name: E5, Velocity: 66
Note ON: Time 187040, Note Name: G#5, Velocity: 79
Note OFF: Time 187200, Note Name: G#5
Note OFF: Time 187200, Note Name: E5
Note ON: Time 187200, Note Name: F5, Velocity: 74
Note ON: Time 187200, Note Name: D6, Velocity: 89
Note OFF: Time 187360, Note Name: D6
Note OFF: Time 187360, Note Name: F5
Note ON: Time 187360, Note Name: B5, Velocity: 85
Note ON: Time 187360, Note Name: G5, Velocity: 72
Note OFF: Time 187520, Note Name: G5
Note OFF: Time 187520, Note Name: B5
Note ON: Time 187520, Note Name: F6, Velocity: 92
Note ON: Time 187520, Note Name: G#5, Velocity: 78
Note OFF: Time 187680, Note Name: G#5
Note OFF: Time 187680, Note Name: F6
Note ON: Time 187680, Note Name: A#5, Velocity: 73
Note ON: Time 187680, Note Name: D6, Velocity: 86
Note OFF: Time 187840, Note Name: D6
Note OFF: Time 187840, Note Name: A#5
Note ON: Time 187840, Note Name: B5, Velocity: 79
Note ON: Time 187840, Note Name: G#6, Velocity: 94
Note OFF: Time 188000, Note Name: G#6
Note OFF: Time 188000, Note Name: B5
Note ON: Time 188000, Note Name: B5, Velocity: 77
Note ON: Time 188000, Note Name: B6, Velocity: 90
Note OFF: Time 188160, Note Name: B6
Note OFF: Time 188160, Note Name: B5
Note ON: Time 188160, Note Name: C6, Velocity: 85
Note ON: Time 188160, Note Name: C7, Velocity: 101
Note OFF: Time 188320, Note Name: C7
Note OFF: Time 188320, Note Name: C6
Note ON: Time 188320, Note Name: C4, Velocity: 64
Note ON: Time 188320, Note Name: G4, Velocity: 64
Note ON: Time 188320, Note Name: C5, Velocity: 77
Note OFF: Time 188480, Note Name: C5
Note OFF: Time 188480, Note Name: G4
Note OFF: Time 188480, Note Name: C4
Note ON: Time 188480, Note Name: G4, Velocity: 64
Note ON: Time 188480, Note Name: C4, Velocity: 64
Note ON: Time 188480, Note Name: C5, Velocity: 77
Note OFF: Time 188640, Note Name: C5
Note OFF: Time 188640, Note Name: C4
Note OFF: Time 188640, Note Name: G4
Note ON: Time 188640, Note Name: C4, Velocity: 55
Note ON: Time 188640, Note Name: G#4, Velocity: 55
Note ON: Time 188640, Note Name: C5, Velocity: 77
Note OFF: Time 188800, Note Name: C5
Note OFF: Time 188800, Note Name: G#4
Note OFF: Time 188800, Note Name: C4
Note ON: Time 188800, Note Name: C4, Velocity: 63
Note ON: Time 188800, Note Name: G#4, Velocity: 63
Note ON: Time 188800, Note Name: C5, Velocity: 75
Note OFF: Time 188960, Note Name: C5
Note OFF: Time 188960, Note Name: G#4
Note OFF: Time 188960, Note Name: C4
Note ON: Time 188960, Note Name: C4, Velocity: 63
Note ON: Time 188960, Note Name: G#4, Velocity: 63
Note ON: Time 188960, Note Name: C5, Velocity: 75
Note OFF: Time 189120, Note Name: C5
Note OFF: Time 189120, Note Name: G#4
Note OFF: Time 189120, Note Name: C4
Note ON: Time 189120, Note Name: C5, Velocity: 80
Note ON: Time 189120, Note Name: C4, Velocity: 57
Note ON: Time 189120, Note Name: G#4, Velocity: 57
Note OFF: Time 189280, Note Name: G#4
Note OFF: Time 189280, Note Name: C4
Note OFF: Time 189280, Note Name: C5
Note ON: Time 189280, Note Name: C4, Velocity: 64
Note ON: Time 189280, Note Name: G#4, Velocity: 64
Note ON: Time 189280, Note Name: C5, Velocity: 77
Note OFF: Time 189440, Note Name: C5
Note OFF: Time 189440, Note Name: G#4
Note OFF: Time 189440, Note Name: C4
Note ON: Time 189440, Note Name: C4, Velocity: 64
Note ON: Time 189440, Note Name: G#4, Velocity: 64
Note ON: Time 189440, Note Name: C5, Velocity: 77
Note OFF: Time 189600, Note Name: C5
Note OFF: Time 189600, Note Name: G#4
Note OFF: Time 189600, Note Name: C4
Note ON: Time 189600, Note Name: C4, Velocity: 68
Note ON: Time 189600, Note Name: G#4, Velocity: 68
Note ON: Time 189600, Note Name: C5, Velocity: 81
Note OFF: Time 189760, Note Name: C5
Note OFF: Time 189760, Note Name: G#4
Note OFF: Time 189760, Note Name: C4
Note ON: Time 189760, Note Name: C5, Velocity: 79
Note ON: Time 189760, Note Name: C4, Velocity: 67
Note ON: Time 189760, Note Name: G#4, Velocity: 67
Note OFF: Time 189920, Note Name: G#4
Note OFF: Time 189920, Note Name: C4
Note OFF: Time 189920, Note Name: C5
Note ON: Time 189920, Note Name: C4, Velocity: 67
Note ON: Time 189920, Note Name: G#4, Velocity: 67
Note ON: Time 189920, Note Name: C5, Velocity: 79
Note OFF: Time 190080, Note Name: C5
Note OFF: Time 190080, Note Name: G#4
Note OFF: Time 190080, Note Name: C4
Note ON: Time 190080, Note Name: C4, Velocity: 67
Note ON: Time 190080, Note Name: G#4, Velocity: 67
Note ON: Time 190080, Note Name: C5, Velocity: 80
Note OFF: Time 190160, Note Name: C5
Note OFF: Time 190160, Note Name: G#4
Note OFF: Time 190160, Note Name: C4
Note ON: Time 190240, Note Name: C4, Velocity: 68
Note ON: Time 190240, Note Name: A4, Velocity: 68
Note ON: Time 190240, Note Name: C5, Velocity: 81
Note OFF: Time 190320, Note Name: C5
Note OFF: Time 190320, Note Name: A4
Note OFF: Time 190320, Note Name: C4
Note ON: Time 190400, Note Name: C4, Velocity: 69
Note ON: Time 190400, Note Name: A4, Velocity: 69
Note ON: Time 190400, Note Name: C5, Velocity: 82
Note OFF: Time 190480, Note Name: C5
Note OFF: Time 190480, Note Name: A4
Note OFF: Time 190480, Note Name: C4
Note ON: Time 190560, Note Name: A4, Velocity: 71
Note ON: Time 190560, Note Name: C4, Velocity: 71
Note ON: Time 190560, Note Name: C5, Velocity: 83
Note OFF: Time 190640, Note Name: C5
Note OFF: Time 190640, Note Name: C4
Note OFF: Time 190640, Note Name: A4
Note ON: Time 190720, Note Name: C#4, Velocity: 71
Note ON: Time 190720, Note Name: A4, Velocity: 71
Note ON: Time 190720, Note Name: C#5, Velocity: 84
Note OFF: Time 190800, Note Name: C#5
Note OFF: Time 190800, Note Name: A4
Note OFF: Time 190800, Note Name: C#4
Note ON: Time 190880, Note Name: C#4, Velocity: 71
Note ON: Time 190880, Note Name: A4, Velocity: 71
Note ON: Time 190880, Note Name: C#5, Velocity: 85
Note OFF: Time 190960, Note Name: C#5
Note OFF: Time 190960, Note Name: A4
Note OFF: Time 190960, Note Name: C#4
Note ON: Time 191040, Note Name: C#4, Velocity: 72
Note ON: Time 191040, Note Name: A4, Velocity: 72
Note ON: Time 191040, Note Name: C#5, Velocity: 86
Note OFF: Time 191120, Note Name: C#5
Note OFF: Time 191120, Note Name: A4
Note OFF: Time 191120, Note Name: C#4
Note ON: Time 191200, Note Name: C#5, Velocity: 88
Note ON: Time 191200, Note Name: C#4, Velocity: 73
Note ON: Time 191200, Note Name: A4, Velocity: 73
Note OFF: Time 191280, Note Name: A4
Note OFF: Time 191280, Note Name: C#4
Note OFF: Time 191280, Note Name: C#5
Note ON: Time 191360, Note Name: A4, Velocity: 75
Note ON: Time 191360, Note Name: C#5, Velocity: 90
Note ON: Time 191360, Note Name: C#4, Velocity: 75
Note OFF: Time 191440, Note Name: C#4
Note OFF: Time 191440, Note Name: C#5
Note OFF: Time 191440, Note Name: A4
Note ON: Time 191520, Note Name: C#4, Velocity: 77
Note ON: Time 191520, Note Name: C#5, Velocity: 91
Note ON: Time 191520, Note Name: A4, Velocity: 77
Note OFF: Time 191600, Note Name: A4
Note OFF: Time 191600, Note Name: C#5
Note OFF: Time 191600, Note Name: C#4
Note ON: Time 191680, Note Name: C#4, Velocity: 78
Note ON: Time 191680, Note Name: C#5, Velocity: 92
Note ON: Time 191680, Note Name: G#4, Velocity: 78
Note OFF: Time 191760, Note Name: G#4
Note OFF: Time 191760, Note Name: C#5
Note OFF: Time 191760, Note Name: C#4
Note ON: Time 191840, Note Name: C#4, Velocity: 79
Note ON: Time 191840, Note Name: G4, Velocity: 79
Note ON: Time 191840, Note Name: C#5, Velocity: 93
Note OFF: Time 191920, Note Name: C#5
Note OFF: Time 191920, Note Name: G4
Note OFF: Time 191920, Note Name: C#4
Note ON: Time 192000, Note Name: C#4, Velocity: 73
Note ON: Time 192000, Note Name: C#5, Velocity: 102
Note ON: Time 192000, Note Name: G#4, Velocity: 86
Note OFF: Time 192080, Note Name: G#4
Note OFF: Time 192080, Note Name: C#5
Note OFF: Time 192080, Note Name: C#4
Note ON: Time 192160, Note Name: F4, Velocity: 68
Note ON: Time 192160, Note Name: G#4, Velocity: 80
Note ON: Time 192160, Note Name: F5, Velocity: 95
Note OFF: Time 192320, Note Name: F5
Note OFF: Time 192320, Note Name: G#4
Note OFF: Time 192320, Note Name: F4
Note ON: Time 192320, Note Name: F4, Velocity: 68
Note ON: Time 192320, Note Name: G#4, Velocity: 80
Note ON: Time 192320, Note Name: F5, Velocity: 95
Note OFF: Time 192480, Note Name: F5
Note OFF: Time 192480, Note Name: G#4
Note OFF: Time 192480, Note Name: F4
Note ON: Time 192480, Note Name: F4, Velocity: 72
Note ON: Time 192480, Note Name: G#4, Velocity: 85
Note ON: Time 192480, Note Name: F5, Velocity: 101
Note OFF: Time 192640, Note Name: F5
Note OFF: Time 192640, Note Name: G#4
Note OFF: Time 192640, Note Name: F4
Note ON: Time 192640, Note Name: D#4, Velocity: 68
Note ON: Time 192640, Note Name: D#5, Velocity: 95
Note OFF: Time 192800, Note Name: D#5
Note OFF: Time 192800, Note Name: D#4
Note ON: Time 192800, Note Name: C#5, Velocity: 95
Note ON: Time 192800, Note Name: C#4, Velocity: 68
Note OFF: Time 192960, Note Name: C#4
Note OFF: Time 192960, Note Name: C#5
Note ON: Time 193120, Note Name: F4, Velocity: 68
Note ON: Time 193120, Note Name: A#4, Velocity: 80
Note ON: Time 193120, Note Name: F5, Velocity: 95
Note OFF: Time 193280, Note Name: F5
Note OFF: Time 193280, Note Name: A#4
Note OFF: Time 193280, Note Name: F4
Note ON: Time 193280, Note Name: F4, Velocity: 68
Note ON: Time 193280, Note Name: A#4, Velocity: 80
Note ON: Time 193280, Note Name: F5, Velocity: 95
Note OFF: Time 193440, Note Name: F5
Note OFF: Time 193440, Note Name: A#4
Note OFF: Time 193440, Note Name: F4
Note ON: Time 193440, Note Name: F4, Velocity: 72
Note ON: Time 193440, Note Name: A#4, Velocity: 85
Note ON: Time 193440, Note Name: F5, Velocity: 101
Note OFF: Time 193600, Note Name: F5
Note OFF: Time 193600, Note Name: A#4
Note OFF: Time 193600, Note Name: F4
Note ON: Time 193600, Note Name: D#4, Velocity: 68
Note ON: Time 193600, Note Name: D#5, Velocity: 95
Note OFF: Time 193760, Note Name: D#5
Note OFF: Time 193760, Note Name: D#4
Note ON: Time 193760, Note Name: C#5, Velocity: 95
Note ON: Time 193760, Note Name: C#4, Velocity: 68
Note OFF: Time 193920, Note Name: C#4
Note OFF: Time 193920, Note Name: C#5
Note ON: Time 194080, Note Name: F4, Velocity: 68
Note ON: Time 194080, Note Name: G#4, Velocity: 80
Note ON: Time 194080, Note Name: F5, Velocity: 95
Note OFF: Time 194240, Note Name: F5
Note OFF: Time 194240, Note Name: G#4
Note OFF: Time 194240, Note Name: F4
Note ON: Time 194240, Note Name: F4, Velocity: 68
Note ON: Time 194240, Note Name: G#4, Velocity: 80
Note ON: Time 194240, Note Name: F5, Velocity: 95
Note OFF: Time 194400, Note Name: F5
Note OFF: Time 194400, Note Name: G#4
Note OFF: Time 194400, Note Name: F4
Note ON: Time 194400, Note Name: F4, Velocity: 72
Note ON: Time 194400, Note Name: G#4, Velocity: 85
Note ON: Time 194400, Note Name: F5, Velocity: 101
Note OFF: Time 194560, Note Name: F5
Note OFF: Time 194560, Note Name: G#4
Note OFF: Time 194560, Note Name: F4
Note ON: Time 194560, Note Name: D#4, Velocity: 68
Note ON: Time 194560, Note Name: D#5, Velocity: 95
Note OFF: Time 194720, Note Name: D#5
Note OFF: Time 194720, Note Name: D#4
Note ON: Time 194720, Note Name: C#5, Velocity: 95
Note ON: Time 194720, Note Name: C#4, Velocity: 68
Note OFF: Time 194880, Note Name: C#4
Note OFF: Time 194880, Note Name: C#5
Note ON: Time 195040, Note Name: F4, Velocity: 68
Note ON: Time 195040, Note Name: G4, Velocity: 80
Note ON: Time 195040, Note Name: F5, Velocity: 95
Note OFF: Time 195200, Note Name: F5
Note OFF: Time 195200, Note Name: G4
Note OFF: Time 195200, Note Name: F4
Note ON: Time 195200, Note Name: F4, Velocity: 68
Note ON: Time 195200, Note Name: G4, Velocity: 80
Note ON: Time 195200, Note Name: F5, Velocity: 95
Note OFF: Time 195360, Note Name: F5
Note OFF: Time 195360, Note Name: G4
Note OFF: Time 195360, Note Name: F4
Note ON: Time 195360, Note Name: F4, Velocity: 72
Note ON: Time 195360, Note Name: G4, Velocity: 85
Note ON: Time 195360, Note Name: F5, Velocity: 101
Note OFF: Time 195520, Note Name: F5
Note OFF: Time 195520, Note Name: G4
Note OFF: Time 195520, Note Name: F4
Note ON: Time 195520, Note Name: D#4, Velocity: 68
Note ON: Time 195520, Note Name: D#5, Velocity: 95
Note OFF: Time 195680, Note Name: D#5
Note OFF: Time 195680, Note Name: D#4
Note ON: Time 195680, Note Name: C#5, Velocity: 95
Note ON: Time 195680, Note Name: C#4, Velocity: 68
Note OFF: Time 195840, Note Name: C#4
Note OFF: Time 195840, Note Name: C#5
Note ON: Time 195840, Note Name: D#3, Velocity: 84
Note ON: Time 195840, Note Name: G3, Velocity: 84
Note ON: Time 195840, Note Name: D#4, Velocity: 101
Note ON: Time 195840, Note Name: C#4, Velocity: 95
Note OFF: Time 197760, Note Name: C#4
Note OFF: Time 197760, Note Name: D#3
Note OFF: Time 197760, Note Name: G3
Note OFF: Time 197760, Note Name: D#4
Note ON: Time 197760, Note Name: F#3, Velocity: 80
Note ON: Time 197760, Note Name: F4, Velocity: 95
Note ON: Time 197760, Note Name: C4, Velocity: 80
Note OFF: Time 199620, Note Name: F4
Note ON: Time 199620, Note Name: F#4, Velocity: 86
Note OFF: Time 199680, Note Name: F#4
Note OFF: Time 199680, Note Name: C4
Note OFF: Time 199680, Note Name: F#3
Note ON: Time 199680, Note Name: F#3, Velocity: 79
Note ON: Time 199680, Note Name: C#4, Velocity: 79
Note ON: Time 199680, Note Name: F#4, Velocity: 93
Note OFF: Time 200640, Note Name: F#4
Note OFF: Time 200640, Note Name: C#4
Note OFF: Time 200640, Note Name: F#3
Note ON: Time 202560, Note Name: C4, Velocity: 31
Note ON: Time 202560, Note Name: D4, Velocity: 32
Note ON: Time 202560, Note Name: A4, Velocity: 47
Note OFF: Time 203040, Note Name: A4
Note ON: Time 203040, Note Name: A#4, Velocity: 44
Note OFF: Time 203520, Note Name: A#4
Note OFF: Time 203520, Note Name: C4
Note ON: Time 203520, Note Name: B3, Velocity: 39
Note ON: Time 203520, Note Name: B4, Velocity: 47
Note OFF: Time 203880, Note Name: B4
Note OFF: Time 203880, Note Name: D4
Note ON: Time 203880, Note Name: D4, Velocity: 40
Note OFF: Time 204000, Note Name: D4
Note ON: Time 204000, Note Name: D4, Velocity: 44
Note OFF: Time 204480, Note Name: D4
Note OFF: Time 204480, Note Name: B3
Note ON: Time 210240, Note Name: D4, Velocity: 41
Note ON: Time 210240, Note Name: E4, Velocity: 41
Note ON: Time 210240, Note Name: B4, Velocity: 49
Note OFF: Time 210720, Note Name: B4
Note ON: Time 210720, Note Name: C5, Velocity: 47
Note OFF: Time 211200, Note Name: C5
Note OFF: Time 211200, Note Name: D4
Note ON: Time 211200, Note Name: C#4, Velocity: 41
Note ON: Time 211200, Note Name: C#5, Velocity: 49
Note OFF: Time 211560, Note Name: C#5
Note OFF: Time 211560, Note Name: E4
Note ON: Time 211560, Note Name: F4, Velocity: 44
Note OFF: Time 211680, Note Name: F4
Note ON: Time 211680, Note Name: F4, Velocity: 47
Note OFF: Time 213120, Note Name: F4
Note OFF: Time 213120, Note Name: C#4
Note ON: Time 213120, Note Name: F4, Velocity: 40
Note ON: Time 213120, Note Name: C#4, Velocity: 39
Note ON: Time 213120, Note Name: C#5, Velocity: 56
Note OFF: Time 213480, Note Name: C#5
Note OFF: Time 213480, Note Name: F4
Note ON: Time 213480, Note Name: F#4, Velocity: 55
Note OFF: Time 213600, Note Name: F#4
Note ON: Time 213600, Note Name: F#4, Velocity: 58
Note OFF: Time 214080, Note Name: F#4
Note OFF: Time 214080, Note Name: C#4
Note ON: Time 214080, Note Name: F#4, Velocity: 51
Note ON: Time 214080, Note Name: D4, Velocity: 51
Note ON: Time 214080, Note Name: D5, Velocity: 61
Note OFF: Time 214440, Note Name: D5
Note OFF: Time 214440, Note Name: F#4
Note ON: Time 214440, Note Name: G4, Velocity: 57
Note OFF: Time 214560, Note Name: G4
Note ON: Time 214560, Note Name: G4, Velocity: 60
Note OFF: Time 215040, Note Name: G4
Note OFF: Time 215040, Note Name: D4
Note ON: Time 215040, Note Name: F4, Velocity: 58
Note ON: Time 215040, Note Name: G4, Velocity: 58
Note ON: Time 215040, Note Name: D#5, Velocity: 75
Note ON: Time 215760, Note Name: D5, Velocity: 68
Note OFF: Time 215770, Note Name: D#5
Note OFF: Time 216000, Note Name: F4
Note OFF: Time 216000, Note Name: G4
Note OFF: Time 216000, Note Name: D5
Note ON: Time 216000, Note Name: D#4, Velocity: 54
Note ON: Time 216000, Note Name: G4, Velocity: 58
Note ON: Time 216000, Note Name: D5, Velocity: 73
Note ON: Time 216360, Note Name: C5, Velocity: 51
Note OFF: Time 216370, Note Name: D5
Note OFF: Time 216480, Note Name: D#4
Note OFF: Time 216480, Note Name: G4
Note ON: Time 216480, Note Name: F4, Velocity: 44
Note OFF: Time 216840, Note Name: C5
Note ON: Time 216840, Note Name: A#4, Velocity: 61
Note OFF: Time 216960, Note Name: A#4
Note OFF: Time 216960, Note Name: F4
Note ON: Time 216960, Note Name: C4, Velocity: 50
Note ON: Time 216960, Note Name: D#4, Velocity: 58
Note ON: Time 216960, Note Name: A#4, Velocity: 68
Note ON: Time 217320, Note Name: G#4, Velocity: 55
Note OFF: Time 217330, Note Name: A#4
Note OFF: Time 217440, Note Name: G#4
Note ON: Time 217440, Note Name: G#4, Velocity: 61
Note ON: Time 217600, Note Name: C5, Velocity: 62
Note OFF: Time 217610, Note Name: G#4
Note ON: Time 217760, Note Name: A#4, Velocity: 61
Note OFF: Time 217770, Note Name: C5
Note OFF: Time 217920, Note Name: C4
Note OFF: Time 217920, Note Name: D#4
Note ON: Time 217920, Note Name: B3, Velocity: 49
Note ON: Time 217920, Note Name: G#4, Velocity: 64
Note OFF: Time 217930, Note Name: A#4
Note ON: Time 218400, Note Name: G4, Velocity: 58
Note OFF: Time 218410, Note Name: G#4
Note OFF: Time 218640, Note Name: G4
Note ON: Time 218640, Note Name: G4, Velocity: 67
Note ON: Time 218640, Note Name: G5, Velocity: 70
Note OFF: Time 218880, Note Name: G5
Note OFF: Time 218880, Note Name: G4
Note OFF: Time 218880, Note Name: B3
Note ON: Time 218880, Note Name: A#3, Velocity: 55
Note ON: Time 218880, Note Name: A#4, Velocity: 64
Note OFF: Time 219000, Note Name: A#4
Note OFF: Time 219000, Note Name: A#3
Note ON: Time 219000, Note Name: C#4, Velocity: 49
Note ON: Time 219000, Note Name: A4, Velocity: 58
Note OFF: Time 219120, Note Name: A4
Note OFF: Time 219120, Note Name: C#4
Note ON: Time 219240, Note Name: A3, Velocity: 51
Note ON: Time 219240, Note Name: G4, Velocity: 61
Note OFF: Time 219360, Note Name: G4
Note OFF: Time 219360, Note Name: A3
Note ON: Time 219360, Note Name: D4, Velocity: 56
Note ON: Time 219360, Note Name: F#4, Velocity: 67
Note OFF: Time 219480, Note Name: F#4
Note OFF: Time 219480, Note Name: D4
Note ON: Time 219480, Note Name: A3, Velocity: 51
Note ON: Time 219480, Note Name: A4, Velocity: 61
Note OFF: Time 219600, Note Name: A4
Note OFF: Time 219600, Note Name: A3
Note ON: Time 219720, Note Name: C4, Velocity: 52
Note ON: Time 219720, Note Name: C5, Velocity: 63
Note OFF: Time 219840, Note Name: C5
Note OFF: Time 219840, Note Name: C4
Note ON: Time 219840, Note Name: C4, Velocity: 57
Note ON: Time 219840, Note Name: C5, Velocity: 68
Note OFF: Time 219960, Note Name: C5
Note OFF: Time 219960, Note Name: C4
Note ON: Time 219960, Note Name: D#4, Velocity: 52
Note ON: Time 219960, Note Name: B4, Velocity: 63
Note OFF: Time 220080, Note Name: B4
Note OFF: Time 220080, Note Name: D#4
Note ON: Time 220200, Note Name: B3, Velocity: 52
Note ON: Time 220200, Note Name: A4, Velocity: 62
Note OFF: Time 220320, Note Name: A4
Note OFF: Time 220320, Note Name: B3
Note ON: Time 220320, Note Name: E4, Velocity: 57
Note ON: Time 220320, Note Name: G#4, Velocity: 68
Note OFF: Time 220440, Note Name: G#4
Note OFF: Time 220440, Note Name: E4
Note ON: Time 220440, Note Name: B3, Velocity: 52
Note ON: Time 220440, Note Name: B4, Velocity: 62
Note OFF: Time 220560, Note Name: B4
Note OFF: Time 220560, Note Name: B3
Note ON: Time 220680, Note Name: D4, Velocity: 53
Note ON: Time 220680, Note Name: D5, Velocity: 64
Note OFF: Time 220800, Note Name: D5
Note OFF: Time 220800, Note Name: D4
Note ON: Time 220800, Note Name: D4, Velocity: 59
Note ON: Time 220800, Note Name: D5, Velocity: 70
Note OFF: Time 220920, Note Name: D5
Note OFF: Time 220920, Note Name: D4
Note ON: Time 220920, Note Name: F4, Velocity: 55
Note ON: Time 220920, Note Name: C#5, Velocity: 64
Note OFF: Time 221040, Note Name: C#5
Note OFF: Time 221040, Note Name: F4
Note ON: Time 221160, Note Name: C#4, Velocity: 52
Note ON: Time 221160, Note Name: B4, Velocity: 62
Note OFF: Time 221280, Note Name: B4
Note OFF: Time 221280, Note Name: C#4
Note ON: Time 221280, Note Name: F#4, Velocity: 55
Note ON: Time 221280, Note Name: A#4, Velocity: 64
Note OFF: Time 221440, Note Name: A#4
Note OFF: Time 221440, Note Name: F#4
Note ON: Time 221440, Note Name: C#4, Velocity: 58
Note ON: Time 221440, Note Name: C#5, Velocity: 68
Note OFF: Time 221600, Note Name: C#5
Note OFF: Time 221600, Note Name: C#4
Note ON: Time 221600, Note Name: A#4, Velocity: 61
Note ON: Time 221600, Note Name: C#5, Velocity: 72
Note OFF: Time 221760, Note Name: C#5
Note OFF: Time 221760, Note Name: A#4
Note ON: Time 221760, Note Name: E4, Velocity: 62
Note ON: Time 221760, Note Name: E5, Velocity: 75
Note OFF: Time 221920, Note Name: E5
Note OFF: Time 221920, Note Name: E4
Note ON: Time 221920, Note Name: C#5, Velocity: 66
Note ON: Time 221920, Note Name: E5, Velocity: 78
Note OFF: Time 222080, Note Name: E5
Note OFF: Time 222080, Note Name: C#5
Note ON: Time 222080, Note Name: A#4, Velocity: 67
Note ON: Time 222080, Note Name: A#5, Velocity: 81
Note OFF: Time 222240, Note Name: A#5
Note OFF: Time 222240, Note Name: A#4
Note ON: Time 222240, Note Name: G#5, Velocity: 72
Note ON: Time 222240, Note Name: C#6, Velocity: 86
Note OFF: Time 222400, Note Name: C#6
Note OFF: Time 222400, Note Name: G#5
Note ON: Time 222400, Note Name: E5, Velocity: 75
Note ON: Time 222400, Note Name: E6, Velocity: 84
Note OFF: Time 222560, Note Name: E6
Note OFF: Time 222560, Note Name: E5
Note ON: Time 222560, Note Name: E6, Velocity: 77
Note ON: Time 222560, Note Name: E7, Velocity: 86
Note OFF: Time 222720, Note Name: E7
Note OFF: Time 222720, Note Name: E6
Note ON: Time 222720, Note Name: C4, Velocity: 61
Note ON: Time 222720, Note Name: E4, Velocity: 69
Note ON: Time 222720, Note Name: C5, Velocity: 82
Note ON: Time 223440, Note Name: A#3, Velocity: 52
Note ON: Time 223440, Note Name: A#4, Velocity: 72
Note OFF: Time 223450, Note Name: C5
Note OFF: Time 223680, Note Name: A#3
Note OFF: Time 223680, Note Name: C4
Note OFF: Time 223680, Note Name: E4
Note OFF: Time 223680, Note Name: A#4
Note ON: Time 223680, Note Name: A#3, Velocity: 64
Note ON: Time 223680, Note Name: C4, Velocity: 53
Note ON: Time 223680, Note Name: F4, Velocity: 56
Note ON: Time 223680, Note Name: A#4, Velocity: 77
Note OFF: Time 224160, Note Name: A#4
Note OFF: Time 224160, Note Name: A#3
Note ON: Time 224160, Note Name: G#3, Velocity: 55
Note ON: Time 224160, Note Name: G#4, Velocity: 73
Note OFF: Time 224520, Note Name: G#4
Note OFF: Time 224520, Note Name: G#3
Note ON: Time 224520, Note Name: G#3, Velocity: 49
Note ON: Time 224520, Note Name: G#4, Velocity: 67
Note OFF: Time 224640, Note Name: G#4
Note OFF: Time 224640, Note Name: C4
Note OFF: Time 224640, Note Name: F4
Note OFF: Time 224640, Note Name: G#3
Note ON: Time 224640, Note Name: C#4, Velocity: 58
Note ON: Time 224640, Note Name: G#3, Velocity: 52
Note ON: Time 224640, Note Name: E4, Velocity: 61
Note ON: Time 224640, Note Name: G#4, Velocity: 70
Note OFF: Time 225000, Note Name: G#4
Note OFF: Time 225000, Note Name: G#3
Note ON: Time 225000, Note Name: G3, Velocity: 58
Note ON: Time 225000, Note Name: G4, Velocity: 60
Note OFF: Time 225120, Note Name: G4
Note OFF: Time 225120, Note Name: G3
Note OFF: Time 225120, Note Name: C#4
Note ON: Time 225120, Note Name: G3, Velocity: 58
Note ON: Time 225120, Note Name: G4, Velocity: 68
Note OFF: Time 225237, Note Name: G3
Note ON: Time 225280, Note Name: F3, Velocity: 44
Note ON: Time 225280, Note Name: F4, Velocity: 63
Note OFF: Time 225290, Note Name: G4
Note OFF: Time 225440, Note Name: E4
Note OFF: Time 225440, Note Name: F3
Note ON: Time 225440, Note Name: E3, Velocity: 30
Note ON: Time 225440, Note Name: E4, Velocity: 60
Note OFF: Time 225450, Note Name: F4
Note OFF: Time 225600, Note Name: E4
Note OFF: Time 225600, Note Name: E3
Note ON: Time 225600, Note Name: G3, Velocity: 45
Note ON: Time 225600, Note Name: D#4, Velocity: 58
Note ON: Time 225600, Note Name: G4, Velocity: 71
Note OFF: Time 226080, Note Name: G3
Note ON: Time 226080, Note Name: F#3, Velocity: 42
Note ON: Time 226080, Note Name: F#4, Velocity: 62
Note OFF: Time 226090, Note Name: G4
Note OFF: Time 226320, Note Name: F#4
Note OFF: Time 226320, Note Name: F#3
Note ON: Time 226320, Note Name: A4, Velocity: 59
Note ON: Time 226320, Note Name: A5, Velocity: 68
Note OFF: Time 226560, Note Name: A5
Note OFF: Time 226560, Note Name: A4
Note OFF: Time 226560, Note Name: D#4
Note ON: Time 226560, Note Name: C4, Velocity: 60
Note ON: Time 226560, Note Name: C5, Velocity: 70
Note OFF: Time 226680, Note Name: C5
Note OFF: Time 226680, Note Name: C4
Note ON: Time 226680, Note Name: F#4, Velocity: 53
Note ON: Time 226680, Note Name: B4, Velocity: 63
Note OFF: Time 226800, Note Name: B4
Note OFF: Time 226800, Note Name: F#4
Note ON: Time 226920, Note Name: B3, Velocity: 56
Note ON: Time 226920, Note Name: A4, Velocity: 67
Note OFF: Time 227040, Note Name: A4
Note OFF: Time 227040, Note Name: B3
Note ON: Time 227040, Note Name: E4, Velocity: 61
Note ON: Time 227040, Note Name: G#4, Velocity: 73
Note OFF: Time 227160, Note Name: G#4
Note OFF: Time 227160, Note Name: E4
Note ON: Time 227160, Note Name: B3, Velocity: 56
Note ON: Time 227160, Note Name: B4, Velocity: 67
Note OFF: Time 227280, Note Name: B4
Note OFF: Time 227280, Note Name: B3
Note ON: Time 227400, Note Name: D4, Velocity: 57
Note ON: Time 227400, Note Name: D5, Velocity: 69
Note OFF: Time 227520, Note Name: D5
Note OFF: Time 227520, Note Name: D4
Note ON: Time 227520, Note Name: D4, Velocity: 62
Note ON: Time 227520, Note Name: D5, Velocity: 74
Note OFF: Time 227640, Note Name: D5
Note OFF: Time 227640, Note Name: D4
Note ON: Time 227640, Note Name: G#4, Velocity: 57
Note ON: Time 227640, Note Name: C#5, Velocity: 69
Note OFF: Time 227760, Note Name: C#5
Note OFF: Time 227760, Note Name: G#4
Note ON: Time 227880, Note Name: C#4, Velocity: 57
Note ON: Time 227880, Note Name: B4, Velocity: 68
Note OFF: Time 228000, Note Name: B4
Note OFF: Time 228000, Note Name: C#4
Note ON: Time 228000, Note Name: F#4, Velocity: 62
Note ON: Time 228000, Note Name: A#4, Velocity: 74
Note OFF: Time 228120, Note Name: A#4
Note OFF: Time 228120, Note Name: F#4
Note ON: Time 228120, Note Name: C#4, Velocity: 57
Note ON: Time 228120, Note Name: C#5, Velocity: 68
Note OFF: Time 228240, Note Name: C#5
Note OFF: Time 228240, Note Name: C#4
Note ON: Time 228360, Note Name: E4, Velocity: 58
Note ON: Time 228360, Note Name: E5, Velocity: 70
Note OFF: Time 228480, Note Name: E5
Note OFF: Time 228480, Note Name: E4
Note ON: Time 228480, Note Name: E4, Velocity: 64
Note ON: Time 228480, Note Name: E5, Velocity: 77
Note OFF: Time 228600, Note Name: E5
Note OFF: Time 228600, Note Name: E4
Note ON: Time 228600, Note Name: A#4, Velocity: 60
Note ON: Time 228600, Note Name: D#5, Velocity: 70
Note OFF: Time 228720, Note Name: D#5
Note OFF: Time 228720, Note Name: A#4
Note ON: Time 228840, Note Name: D#4, Velocity: 57
Note ON: Time 228840, Note Name: C#5, Velocity: 68
Note OFF: Time 228960, Note Name: C#5
Note OFF: Time 228960, Note Name: D#4
Note ON: Time 228960, Note Name: G#4, Velocity: 60
Note ON: Time 228960, Note Name: C5, Velocity: 70
Note OFF: Time 229120, Note Name: C5
Note OFF: Time 229120, Note Name: G#4
Note ON: Time 229120, Note Name: D#4, Velocity: 63
Note ON: Time 229120, Note Name: D#5, Velocity: 74
Note OFF: Time 229280, Note Name: D#5
Note OFF: Time 229280, Note Name: D#4
Note ON: Time 229280, Note Name: C5, Velocity: 67
Note ON: Time 229280, Note Name: D#5, Velocity: 79
Note OFF: Time 229440, Note Name: D#5
Note OFF: Time 229440, Note Name: C5
Note ON: Time 229440, Note Name: F#4, Velocity: 68
Note ON: Time 229440, Note Name: F#5, Velocity: 82
Note OFF: Time 229600, Note Name: F#5
Note OFF: Time 229600, Note Name: F#4
Note ON: Time 229600, Note Name: D#5, Velocity: 71
Note ON: Time 229600, Note Name: F#5, Velocity: 85
Note OFF: Time 229760, Note Name: F#5
Note OFF: Time 229760, Note Name: D#5
Note ON: Time 229760, Note Name: A4, Velocity: 73
Note ON: Time 229760, Note Name: A5, Velocity: 89
Note OFF: Time 229920, Note Name: A5
Note OFF: Time 229920, Note Name: A4
Note ON: Time 229920, Note Name: F#5, Velocity: 80
Note ON: Time 229920, Note Name: A5, Velocity: 94
Note OFF: Time 230080, Note Name: A5
Note OFF: Time 230080, Note Name: F#5
Note ON: Time 230080, Note Name: D5, Velocity: 82
Note ON: Time 230080, Note Name: D6, Velocity: 97
Note OFF: Time 230240, Note Name: D6
Note OFF: Time 230240, Note Name: D5
Note ON: Time 230240, Note Name: F#5, Velocity: 85
Note ON: Time 230240, Note Name: F#6, Velocity: 104
Note OFF: Time 230400, Note Name: F#6
Note OFF: Time 230400, Note Name: F#5
Note ON: Time 230400, Note Name: D6, Velocity: 88
Note ON: Time 230400, Note Name: G6, Velocity: 104
Note OFF: Time 230520, Note Name: G6
Note OFF: Time 230520, Note Name: D6
Note ON: Time 230520, Note Name: G5, Velocity: 79
Note ON: Time 230520, Note Name: A#5, Velocity: 93
Note OFF: Time 230640, Note Name: A#5
Note OFF: Time 230640, Note Name: G5
Note ON: Time 230760, Note Name: C6, Velocity: 94
Note ON: Time 230760, Note Name: A5, Velocity: 80
Note OFF: Time 230880, Note Name: A5
Note OFF: Time 230880, Note Name: C6
Note ON: Time 230880, Note Name: A#5, Velocity: 84
Note ON: Time 230880, Note Name: D6, Velocity: 100
Note OFF: Time 231000, Note Name: D6
Note OFF: Time 231000, Note Name: A#5
Note ON: Time 231000, Note Name: D5, Velocity: 80
Note ON: Time 231000, Note Name: G5, Velocity: 94
Note OFF: Time 231120, Note Name: G5
Note OFF: Time 231120, Note Name: D5
Note ON: Time 231360, Note Name: A#5, Velocity: 88
Note ON: Time 231360, Note Name: D6, Velocity: 104
Note OFF: Time 231480, Note Name: D6
Note OFF: Time 231480, Note Name: A#5
Note ON: Time 231480, Note Name: D5, Velocity: 79
Note ON: Time 231480, Note Name: G5, Velocity: 93
Note OFF: Time 231600, Note Name: G5
Note OFF: Time 231600, Note Name: D5
Note ON: Time 231720, Note Name: A5, Velocity: 89
Note ON: Time 231720, Note Name: F#5, Velocity: 75
Note OFF: Time 231840, Note Name: F#5
Note OFF: Time 231840, Note Name: A5
Note ON: Time 231840, Note Name: G5, Velocity: 80
Note ON: Time 231840, Note Name: A#5, Velocity: 94
Note OFF: Time 231960, Note Name: A#5
Note OFF: Time 231960, Note Name: G5
Note ON: Time 231960, Note Name: D6, Velocity: 75
Note ON: Time 231960, Note Name: G6, Velocity: 89
Note OFF: Time 232080, Note Name: G6
Note OFF: Time 232080, Note Name: D6
Note ON: Time 232320, Note Name: C#6, Velocity: 84
Note ON: Time 232320, Note Name: F6, Velocity: 101
Note OFF: Time 232440, Note Name: F6
Note OFF: Time 232440, Note Name: C#6
Note ON: Time 232440, Note Name: F5, Velocity: 75
Note ON: Time 232440, Note Name: A#5, Velocity: 90
Note OFF: Time 232560, Note Name: A#5
Note OFF: Time 232560, Note Name: F5
Note ON: Time 232680, Note Name: C6, Velocity: 91
Note ON: Time 232680, Note Name: A5, Velocity: 77
Note OFF: Time 232800, Note Name: A5
Note OFF: Time 232800, Note Name: C6
Note ON: Time 232800, Note Name: A#5, Velocity: 81
Note ON: Time 232800, Note Name: C#6, Velocity: 96
Note OFF: Time 232920, Note Name: C#6
Note OFF: Time 232920, Note Name: A#5
Note ON: Time 232920, Note Name: C#5, Velocity: 77
Note ON: Time 232920, Note Name: F5, Velocity: 91
Note OFF: Time 233040, Note Name: F5
Note OFF: Time 233040, Note Name: C#5
Note ON: Time 233280, Note Name: C#6, Velocity: 82
Note ON: Time 233280, Note Name: F6, Velocity: 99
Note OFF: Time 233400, Note Name: F6
Note OFF: Time 233400, Note Name: C#6
Note ON: Time 233400, Note Name: F5, Velocity: 75
Note ON: Time 233400, Note Name: A#5, Velocity: 90
Note OFF: Time 233520, Note Name: A#5
Note OFF: Time 233520, Note Name: F5
Note ON: Time 233640, Note Name: C6, Velocity: 85
Note ON: Time 233640, Note Name: A5, Velocity: 72
Note OFF: Time 233760, Note Name: A5
Note OFF: Time 233760, Note Name: C6
Note ON: Time 233760, Note Name: A#5, Velocity: 77
Note ON: Time 233760, Note Name: C#6, Velocity: 91
Note OFF: Time 233880, Note Name: C#6
Note OFF: Time 233880, Note Name: A#5
Note ON: Time 233880, Note Name: F6, Velocity: 72
Note ON: Time 233880, Note Name: A#6, Velocity: 85
Note OFF: Time 234000, Note Name: A#6
Note OFF: Time 234000, Note Name: F6
Note ON: Time 234240, Note Name: C6, Velocity: 88
Note ON: Time 234240, Note Name: F6, Velocity: 104
Note OFF: Time 234360, Note Name: F6
Note OFF: Time 234360, Note Name: C6
Note ON: Time 234360, Note Name: F5, Velocity: 79
Note ON: Time 234360, Note Name: G#5, Velocity: 93
Note OFF: Time 234480, Note Name: G#5
Note OFF: Time 234480, Note Name: F5
Note ON: Time 234600, Note Name: A#5, Velocity: 91
Note ON: Time 234600, Note Name: G5, Velocity: 77
Note OFF: Time 234720, Note Name: G5
Note OFF: Time 234720, Note Name: A#5
Note ON: Time 234720, Note Name: G#5, Velocity: 77
Note ON: Time 234720, Note Name: C6, Velocity: 96
Note OFF: Time 234840, Note Name: C6
Note OFF: Time 234840, Note Name: G#5
Note ON: Time 234840, Note Name: C5, Velocity: 77
Note ON: Time 234840, Note Name: F5, Velocity: 91
Note OFF: Time 234960, Note Name: F5
Note OFF: Time 234960, Note Name: C5
Note ON: Time 235200, Note Name: G#5, Velocity: 88
Note ON: Time 235200, Note Name: C6, Velocity: 104
Note OFF: Time 235320, Note Name: C6
Note OFF: Time 235320, Note Name: G#5
Note ON: Time 235320, Note Name: C5, Velocity: 79
Note ON: Time 235320, Note Name: F5, Velocity: 93
Note OFF: Time 235440, Note Name: F5
Note OFF: Time 235440, Note Name: C5
Note ON: Time 235560, Note Name: G5, Velocity: 89
Note ON: Time 235560, Note Name: E5, Velocity: 75
Note OFF: Time 235680, Note Name: E5
Note OFF: Time 235680, Note Name: G5
Note ON: Time 235680, Note Name: F5, Velocity: 80
Note ON: Time 235680, Note Name: G#5, Velocity: 94
Note OFF: Time 235800, Note Name: G#5
Note OFF: Time 235800, Note Name: F5
Note ON: Time 235800, Note Name: C6, Velocity: 75
Note ON: Time 235800, Note Name: F6, Velocity: 89
Note OFF: Time 235920, Note Name: F6
Note OFF: Time 235920, Note Name: C6
Note ON: Time 236160, Note Name: C6, Velocity: 90
Note ON: Time 236160, Note Name: E6, Velocity: 107
Note OFF: Time 236280, Note Name: E6
Note OFF: Time 236280, Note Name: C6
Note ON: Time 236280, Note Name: E5, Velocity: 79
Note ON: Time 236280, Note Name: G#5, Velocity: 93
Note OFF: Time 236400, Note Name: G#5
Note OFF: Time 236400, Note Name: E5
Note ON: Time 236520, Note Name: A#5, Velocity: 91
Note ON: Time 236520, Note Name: G5, Velocity: 77
Note OFF: Time 236640, Note Name: G5
Note OFF: Time 236640, Note Name: A#5
Note ON: Time 236640, Note Name: G#5, Velocity: 78
Note ON: Time 236640, Note Name: C6, Velocity: 94
Note OFF: Time 236760, Note Name: C6
Note OFF: Time 236760, Note Name: G#5
Note ON: Time 236760, Note Name: C5, Velocity: 77
Note ON: Time 236760, Note Name: E5, Velocity: 91
Note OFF: Time 236880, Note Name: E5
Note OFF: Time 236880, Note Name: C5
Note ON: Time 237120, Note Name: G#5, Velocity: 88
Note ON: Time 237120, Note Name: C6, Velocity: 104
Note OFF: Time 237240, Note Name: C6
Note OFF: Time 237240, Note Name: G#5
Note ON: Time 237240, Note Name: C5, Velocity: 79
Note ON: Time 237240, Note Name: E5, Velocity: 93
Note OFF: Time 237360, Note Name: E5
Note OFF: Time 237360, Note Name: C5
Note ON: Time 237480, Note Name: G5, Velocity: 89
Note ON: Time 237480, Note Name: E5, Velocity: 75
Note OFF: Time 237600, Note Name: E5
Note OFF: Time 237600, Note Name: G5
Note ON: Time 237600, Note Name: E5, Velocity: 80
Note ON: Time 237600, Note Name: G#5, Velocity: 94
Note OFF: Time 237720, Note Name: G#5
Note OFF: Time 237720, Note Name: E5
Note ON: Time 237720, Note Name: C6, Velocity: 75
Note ON: Time 237720, Note Name: E6, Velocity: 89
Note OFF: Time 237840, Note Name: E6
Note OFF: Time 237840, Note Name: C6
Note ON: Time 238080, Note Name: B5, Velocity: 88
Note ON: Time 238080, Note Name: E6, Velocity: 104
Note OFF: Time 238200, Note Name: E6
Note OFF: Time 238200, Note Name: B5
Note ON: Time 238200, Note Name: E5, Velocity: 79
Note ON: Time 238200, Note Name: G5, Velocity: 93
Note OFF: Time 238320, Note Name: G5
Note OFF: Time 238320, Note Name: E5
Note ON: Time 238440, Note Name: A5, Velocity: 91
Note ON: Time 238440, Note Name: F#5, Velocity: 77
Note OFF: Time 238560, Note Name: F#5
Note OFF: Time 238560, Note Name: A5
Note ON: Time 238560, Note Name: G5, Velocity: 81
Note ON: Time 238560, Note Name: B5, Velocity: 96
Note OFF: Time 238680, Note Name: B5
Note OFF: Time 238680, Note Name: G5
Note ON: Time 238680, Note Name: B4, Velocity: 77
Note ON: Time 238680, Note Name: E5, Velocity: 91
Note OFF: Time 238800, Note Name: E5
Note OFF: Time 238800, Note Name: B4
Note ON: Time 239040, Note Name: G5, Velocity: 88
Note ON: Time 239040, Note Name: B5, Velocity: 104
Note OFF: Time 239160, Note Name: B5
Note OFF: Time 239160, Note Name: G5
Note ON: Time 239160, Note Name: B4, Velocity: 79
Note ON: Time 239160, Note Name: E5, Velocity: 93
Note OFF: Time 239280, Note Name: E5
Note OFF: Time 239280, Note Name: B4
Note ON: Time 239400, Note Name: F#5, Velocity: 89
Note ON: Time 239400, Note Name: D#5, Velocity: 75
Note OFF: Time 239520, Note Name: D#5
Note OFF: Time 239520, Note Name: F#5
Note ON: Time 239520, Note Name: E5, Velocity: 80
Note ON: Time 239520, Note Name: G5, Velocity: 94
Note OFF: Time 239640, Note Name: G5
Note OFF: Time 239640, Note Name: E5
Note ON: Time 239640, Note Name: B5, Velocity: 75
Note ON: Time 239640, Note Name: E6, Velocity: 89
Note OFF: Time 239760, Note Name: E6
Note OFF: Time 239760, Note Name: B5
Note ON: Time 240000, Note Name: B5, Velocity: 88
Note ON: Time 240000, Note Name: D6, Velocity: 104
Note OFF: Time 240120, Note Name: D6
Note OFF: Time 240120, Note Name: B5
Note ON: Time 240120, Note Name: D5, Velocity: 79
Note ON: Time 240120, Note Name: G5, Velocity: 93
Note OFF: Time 240240, Note Name: G5
Note OFF: Time 240240, Note Name: D5
Note ON: Time 240360, Note Name: A5, Velocity: 91
Note ON: Time 240360, Note Name: F#5, Velocity: 77
Note OFF: Time 240480, Note Name: F#5
Note OFF: Time 240480, Note Name: A5
Note ON: Time 240480, Note Name: G5, Velocity: 81
Note ON: Time 240480, Note Name: B5, Velocity: 96
Note OFF: Time 240600, Note Name: B5
Note OFF: Time 240600, Note Name: G5
Note ON: Time 240600, Note Name: B4, Velocity: 77
Note ON: Time 240600, Note Name: D5, Velocity: 91
Note OFF: Time 240720, Note Name: D5
Note OFF: Time 240720, Note Name: B4
Note ON: Time 240960, Note Name: B5, Velocity: 88
Note ON: Time 240960, Note Name: D6, Velocity: 104
Note OFF: Time 241080, Note Name: D6
Note OFF: Time 241080, Note Name: B5
Note ON: Time 241080, Note Name: D5, Velocity: 79
Note ON: Time 241080, Note Name: G5, Velocity: 93
Note OFF: Time 241200, Note Name: G5
Note OFF: Time 241200, Note Name: D5
Note ON: Time 241320, Note Name: A5, Velocity: 89
Note ON: Time 241320, Note Name: F#5, Velocity: 75
Note OFF: Time 241440, Note Name: F#5
Note OFF: Time 241440, Note Name: A5
Note ON: Time 241440, Note Name: G5, Velocity: 80
Note ON: Time 241440, Note Name: B5, Velocity: 94
Note OFF: Time 241560, Note Name: B5
Note OFF: Time 241560, Note Name: G5
Note ON: Time 241560, Note Name: D6, Velocity: 75
Note ON: Time 241560, Note Name: G6, Velocity: 89
Note OFF: Time 241680, Note Name: G6
Note OFF: Time 241680, Note Name: D6
Note ON: Time 241920, Note Name: A5, Velocity: 88
Note ON: Time 241920, Note Name: D6, Velocity: 104
Note OFF: Time 242040, Note Name: D6
Note OFF: Time 242040, Note Name: A5
Note ON: Time 242040, Note Name: D5, Velocity: 79
Note ON: Time 242040, Note Name: F#5, Velocity: 93
Note OFF: Time 242160, Note Name: F#5
Note OFF: Time 242160, Note Name: D5
Note ON: Time 242280, Note Name: G5, Velocity: 91
Note ON: Time 242280, Note Name: E5, Velocity: 77
Note OFF: Time 242400, Note Name: E5
Note OFF: Time 242400, Note Name: G5
Note ON: Time 242400, Note Name: F#5, Velocity: 81
Note ON: Time 242400, Note Name: A5, Velocity: 96
Note OFF: Time 242520, Note Name: A5
Note OFF: Time 242520, Note Name: F#5
Note ON: Time 242520, Note Name: A4, Velocity: 77
Note ON: Time 242520, Note Name: D5, Velocity: 91
Note OFF: Time 242640, Note Name: D5
Note OFF: Time 242640, Note Name: A4
Note ON: Time 242880, Note Name: F5, Velocity: 88
Note ON: Time 242880, Note Name: A5, Velocity: 104
Note OFF: Time 243000, Note Name: A5
Note OFF: Time 243000, Note Name: F5
Note ON: Time 243000, Note Name: A4, Velocity: 79
Note ON: Time 243000, Note Name: D5, Velocity: 93
Note OFF: Time 243120, Note Name: D5
Note OFF: Time 243120, Note Name: A4
Note ON: Time 243240, Note Name: E5, Velocity: 89
Note ON: Time 243240, Note Name: C#5, Velocity: 75
Note OFF: Time 243360, Note Name: C#5
Note OFF: Time 243360, Note Name: E5
Note ON: Time 243360, Note Name: D5, Velocity: 80
Note ON: Time 243360, Note Name: F5, Velocity: 94
Note OFF: Time 243480, Note Name: F5
Note OFF: Time 243480, Note Name: D5
Note ON: Time 243480, Note Name: A5, Velocity: 75
Note ON: Time 243480, Note Name: D6, Velocity: 89
Note OFF: Time 243600, Note Name: D6
Note OFF: Time 243600, Note Name: A5
Note ON: Time 243840, Note Name: A5, Velocity: 78
Note ON: Time 243840, Note Name: C6, Velocity: 78
Note ON: Time 243840, Note Name: F6, Velocity: 92
Note OFF: Time 244000, Note Name: F6
Note OFF: Time 244000, Note Name: C6
Note OFF: Time 244000, Note Name: A5
Note ON: Time 244000, Note Name: F#5, Velocity: 86
Note OFF: Time 244160, Note Name: F#5
Note ON: Time 244160, Note Name: A5, Velocity: 75
Note ON: Time 244160, Note Name: C6, Velocity: 90
Note ON: Time 244160, Note Name: F5, Velocity: 75
Note OFF: Time 244320, Note Name: F5
Note OFF: Time 244320, Note Name: C6
Note OFF: Time 244320, Note Name: A5
Note ON: Time 244320, Note Name: F5, Velocity: 83
Note ON: Time 244320, Note Name: C5, Velocity: 77
Note OFF: Time 244480, Note Name: C5
Note OFF: Time 244480, Note Name: F5
Note ON: Time 244480, Note Name: C5, Velocity: 77
Note ON: Time 244480, Note Name: F5, Velocity: 77
Note ON: Time 244480, Note Name: A5, Velocity: 91
Note OFF: Time 244640, Note Name: A5
Note OFF: Time 244640, Note Name: F5
Note OFF: Time 244640, Note Name: C5
Note ON: Time 244640, Note Name: A4, Velocity: 82
Note OFF: Time 244800, Note Name: A4
Note ON: Time 244800, Note Name: A4, Velocity: 78
Note ON: Time 244800, Note Name: C5, Velocity: 78
Note ON: Time 244800, Note Name: F5, Velocity: 92
Note OFF: Time 244960, Note Name: F5
Note OFF: Time 244960, Note Name: C5
Note OFF: Time 244960, Note Name: A4
Note ON: Time 244960, Note Name: F#4, Velocity: 86
Note OFF: Time 245120, Note Name: F#4
Note ON: Time 245120, Note Name: A4, Velocity: 71
Note ON: Time 245120, Note Name: C5, Velocity: 85
Note ON: Time 245120, Note Name: F4, Velocity: 71
Note OFF: Time 245280, Note Name: F4
Note OFF: Time 245280, Note Name: C5
Note OFF: Time 245280, Note Name: A4
Note ON: Time 245280, Note Name: C4, Velocity: 78
Note OFF: Time 245440, Note Name: C4
Note ON: Time 245440, Note Name: A3, Velocity: 69
Note ON: Time 245440, Note Name: C4, Velocity: 69
Note ON: Time 245440, Note Name: F4, Velocity: 81
Note OFF: Time 245600, Note Name: F4
Note OFF: Time 245600, Note Name: C4
Note OFF: Time 245600, Note Name: A3
Note ON: Time 245600, Note Name: F4, Velocity: 73
Note ON: Time 245600, Note Name: F3, Velocity: 73
Note OFF: Time 245760, Note Name: F3
Note OFF: Time 245760, Note Name: F4
Note ON: Time 245760, Note Name: F#3, Velocity: 73
Note ON: Time 245760, Note Name: F#4, Velocity: 86
Note OFF: Time 245880, Note Name: F#4
Note OFF: Time 245880, Note Name: F#3
Note ON: Time 245880, Note Name: D#4, Velocity: 69
Note OFF: Time 246000, Note Name: D#4
Note ON: Time 246000, Note Name: C#4, Velocity: 68
Note OFF: Time 246120, Note Name: C#4
Note ON: Time 246120, Note Name: B3, Velocity: 59
Note OFF: Time 246240, Note Name: B3
Note ON: Time 246240, Note Name: F#4, Velocity: 57
Note ON: Time 246240, Note Name: B4, Velocity: 68
Note OFF: Time 246360, Note Name: B4
Note OFF: Time 246360, Note Name: F#4
Note ON: Time 246360, Note Name: B3, Velocity: 52
Note ON: Time 246360, Note Name: D#4, Velocity: 62
Note OFF: Time 246480, Note Name: D#4
Note OFF: Time 246480, Note Name: B3
Note ON: Time 246600, Note Name: C#4, Velocity: 55
Note ON: Time 246600, Note Name: E4, Velocity: 66
Note OFF: Time 246720, Note Name: E4
Note OFF: Time 246720, Note Name: C#4
Note ON: Time 246720, Note Name: F#4, Velocity: 69
Note ON: Time 246720, Note Name: D#4, Velocity: 58
Note OFF: Time 246840, Note Name: D#4
Note OFF: Time 246840, Note Name: F#4
Note ON: Time 246840, Note Name: D#5, Velocity: 67
Note ON: Time 246840, Note Name: B4, Velocity: 56
Note OFF: Time 246960, Note Name: B4
Note OFF: Time 246960, Note Name: D#5
Note ON: Time 247200, Note Name: D#5, Velocity: 60
Note ON: Time 247200, Note Name: F#5, Velocity: 72
Note OFF: Time 247320, Note Name: F#5
Note OFF: Time 247320, Note Name: D#5
Note ON: Time 247320, Note Name: F#4, Velocity: 55
Note ON: Time 247320, Note Name: B4, Velocity: 66
Note OFF: Time 247440, Note Name: B4
Note OFF: Time 247440, Note Name: F#4
Note ON: Time 247560, Note Name: A#4, Velocity: 59
Note ON: Time 247560, Note Name: C#5, Velocity: 70
Note OFF: Time 247680, Note Name: C#5
Note OFF: Time 247680, Note Name: A#4
Note ON: Time 247680, Note Name: B4, Velocity: 62
Note ON: Time 247680, Note Name: D#5, Velocity: 74
Note OFF: Time 247800, Note Name: D#5
Note OFF: Time 247800, Note Name: B4
Note ON: Time 247800, Note Name: B5, Velocity: 70
Note ON: Time 247800, Note Name: F#5, Velocity: 58
Note OFF: Time 247920, Note Name: F#5
Note OFF: Time 247920, Note Name: B5
Note ON: Time 248160, Note Name: B5, Velocity: 66
Note ON: Time 248160, Note Name: D#6, Velocity: 79
Note OFF: Time 248280, Note Name: D#6
Note OFF: Time 248280, Note Name: B5
Note ON: Time 248280, Note Name: D#5, Velocity: 62
Note ON: Time 248280, Note Name: F#5, Velocity: 74
Note OFF: Time 248400, Note Name: F#5
Note OFF: Time 248400, Note Name: D#5
Note ON: Time 248520, Note Name: E5, Velocity: 64
Note ON: Time 248520, Note Name: A#5, Velocity: 75
Note OFF: Time 248640, Note Name: A#5
Note OFF: Time 248640, Note Name: E5
Note ON: Time 248640, Note Name: F#5, Velocity: 68
Note ON: Time 248640, Note Name: B5, Velocity: 80
Note OFF: Time 248760, Note Name: B5
Note OFF: Time 248760, Note Name: F#5
Note ON: Time 248760, Note Name: F#6, Velocity: 75
Note ON: Time 248760, Note Name: D#6, Velocity: 63
Note OFF: Time 248880, Note Name: D#6
Note OFF: Time 248880, Note Name: F#6
Note ON: Time 249120, Note Name: G5, Velocity: 74
Note ON: Time 249120, Note Name: A#5, Velocity: 89
Note OFF: Time 249280, Note Name: A#5
Note OFF: Time 249280, Note Name: G5
Note ON: Time 249280, Note Name: G5, Velocity: 67
Note ON: Time 249280, Note Name: C#6, Velocity: 67
Note ON: Time 249280, Note Name: G6, Velocity: 79
Note OFF: Time 249440, Note Name: G6
Note OFF: Time 249440, Note Name: C#6
Note OFF: Time 249440, Note Name: G5
Note ON: Time 249440, Note Name: G5, Velocity: 67
Note ON: Time 249440, Note Name: C#6, Velocity: 67
Note ON: Time 249440, Note Name: G6, Velocity: 79
Note OFF: Time 249600, Note Name: G6
Note OFF: Time 249600, Note Name: C#6
Note OFF: Time 249600, Note Name: G5
Note ON: Time 249600, Note Name: G5, Velocity: 72
Note ON: Time 249600, Note Name: B5, Velocity: 72
Note ON: Time 249600, Note Name: G6, Velocity: 85
Note OFF: Time 249720, Note Name: G6
Note OFF: Time 249720, Note Name: B5
Note OFF: Time 249720, Note Name: G5
Note ON: Time 249720, Note Name: F#5, Velocity: 67
Note ON: Time 249720, Note Name: F#6, Velocity: 79
Note OFF: Time 249840, Note Name: F#6
Note OFF: Time 249840, Note Name: F#5
Note ON: Time 250080, Note Name: F#4, Velocity: 57
Note ON: Time 250080, Note Name: B4, Velocity: 68
Note OFF: Time 250200, Note Name: B4
Note OFF: Time 250200, Note Name: F#4
Note ON: Time 250200, Note Name: B3, Velocity: 52
Note ON: Time 250200, Note Name: D#4, Velocity: 62
Note OFF: Time 250320, Note Name: D#4
Note OFF: Time 250320, Note Name: B3
Note ON: Time 250440, Note Name: C#4, Velocity: 55
Note ON: Time 250440, Note Name: E4, Velocity: 66
Note OFF: Time 250560, Note Name: E4
Note OFF: Time 250560, Note Name: C#4
Note ON: Time 250560, Note Name: F#4, Velocity: 69
Note ON: Time 250560, Note Name: D#4, Velocity: 58
Note OFF: Time 250680, Note Name: D#4
Note OFF: Time 250680, Note Name: F#4
Note ON: Time 250680, Note Name: D#5, Velocity: 67
Note ON: Time 250680, Note Name: B4, Velocity: 56
Note OFF: Time 250800, Note Name: B4
Note OFF: Time 250800, Note Name: D#5
Note ON: Time 251040, Note Name: D#5, Velocity: 60
Note ON: Time 251040, Note Name: F#5, Velocity: 72
Note OFF: Time 251160, Note Name: F#5
Note OFF: Time 251160, Note Name: D#5
Note ON: Time 251160, Note Name: F#4, Velocity: 55
Note ON: Time 251160, Note Name: B4, Velocity: 66
Note OFF: Time 251280, Note Name: B4
Note OFF: Time 251280, Note Name: F#4
Note ON: Time 251400, Note Name: A#4, Velocity: 59
Note ON: Time 251400, Note Name: C#5, Velocity: 70
Note OFF: Time 251520, Note Name: C#5
Note OFF: Time 251520, Note Name: A#4
Note ON: Time 251520, Note Name: B4, Velocity: 62
Note ON: Time 251520, Note Name: D#5, Velocity: 74
Note OFF: Time 251640, Note Name: D#5
Note OFF: Time 251640, Note Name: B4
Note ON: Time 251640, Note Name: B5, Velocity: 70
Note ON: Time 251640, Note Name: F#5, Velocity: 58
Note OFF: Time 251760, Note Name: F#5
Note OFF: Time 251760, Note Name: B5
Note ON: Time 252000, Note Name: B5, Velocity: 66
Note ON: Time 252000, Note Name: D#6, Velocity: 79
Note OFF: Time 252120, Note Name: D#6
Note OFF: Time 252120, Note Name: B5
Note ON: Time 252120, Note Name: D#5, Velocity: 62
Note ON: Time 252120, Note Name: F#5, Velocity: 74
Note OFF: Time 252240, Note Name: F#5
Note OFF: Time 252240, Note Name: D#5
Note ON: Time 252360, Note Name: E5, Velocity: 64
Note ON: Time 252360, Note Name: A#5, Velocity: 75
Note OFF: Time 252480, Note Name: A#5
Note OFF: Time 252480, Note Name: E5
Note ON: Time 252480, Note Name: F#5, Velocity: 68
Note ON: Time 252480, Note Name: B5, Velocity: 80
Note OFF: Time 252600, Note Name: B5
Note OFF: Time 252600, Note Name: F#5
Note ON: Time 252600, Note Name: F#6, Velocity: 75
Note ON: Time 252600, Note Name: D#6, Velocity: 63
Note OFF: Time 252720, Note Name: D#6
Note OFF: Time 252720, Note Name: F#6
Note ON: Time 252960, Note Name: G5, Velocity: 74
Note ON: Time 252960, Note Name: A#5, Velocity: 89
Note OFF: Time 253120, Note Name: A#5
Note OFF: Time 253120, Note Name: G5
Note ON: Time 253120, Note Name: G5, Velocity: 67
Note ON: Time 253120, Note Name: C#6, Velocity: 67
Note ON: Time 253120, Note Name: G6, Velocity: 79
Note OFF: Time 253280, Note Name: G6
Note OFF: Time 253280, Note Name: C#6
Note OFF: Time 253280, Note Name: G5
Note ON: Time 253280, Note Name: G5, Velocity: 67
Note ON: Time 253280, Note Name: C#6, Velocity: 67
Note ON: Time 253280, Note Name: G6, Velocity: 79
Note OFF: Time 253440, Note Name: G6
Note OFF: Time 253440, Note Name: C#6
Note OFF: Time 253440, Note Name: G5
Note ON: Time 253440, Note Name: G#5, Velocity: 85
Note ON: Time 253440, Note Name: C6, Velocity: 85
Note ON: Time 253440, Note Name: G#6, Velocity: 85
Note OFF: Time 253600, Note Name: G#6
Note OFF: Time 253600, Note Name: C6
Note OFF: Time 253600, Note Name: G#5
Note ON: Time 253600, Note Name: A5, Velocity: 80
Note ON: Time 253600, Note Name: D#6, Velocity: 80
Note ON: Time 253600, Note Name: A6, Velocity: 80
Note OFF: Time 253760, Note Name: A6
Note OFF: Time 253760, Note Name: D#6
Note OFF: Time 253760, Note Name: A5
Note ON: Time 253760, Note Name: A#3, Velocity: 56
Note ON: Time 253760, Note Name: A#4, Velocity: 66
Note OFF: Time 253920, Note Name: A#4
Note OFF: Time 253920, Note Name: A#3
Note ON: Time 253920, Note Name: A3, Velocity: 49
Note ON: Time 253920, Note Name: A4, Velocity: 58
Note OFF: Time 254080, Note Name: A4
Note OFF: Time 254080, Note Name: A3
Note ON: Time 254080, Note Name: D#4, Velocity: 52
Note ON: Time 254080, Note Name: F#4, Velocity: 61
Note OFF: Time 254240, Note Name: F#4
Note OFF: Time 254240, Note Name: D#4
Note ON: Time 254240, Note Name: C#4, Velocity: 58
Note ON: Time 254240, Note Name: C#5, Velocity: 70
Note OFF: Time 254400, Note Name: C#5
Note OFF: Time 254400, Note Name: C#4
Note ON: Time 254400, Note Name: C4, Velocity: 53
Note ON: Time 254400, Note Name: C5, Velocity: 63
Note OFF: Time 254560, Note Name: C5
Note OFF: Time 254560, Note Name: C4
Note ON: Time 254560, Note Name: D#4, Velocity: 53
Note ON: Time 254560, Note Name: F#4, Velocity: 63
Note OFF: Time 254720, Note Name: F#4
Note OFF: Time 254720, Note Name: D#4
Note ON: Time 254720, Note Name: A#3, Velocity: 60
Note ON: Time 254720, Note Name: A#4, Velocity: 72
Note OFF: Time 254880, Note Name: A#4
Note OFF: Time 254880, Note Name: A#3
Note ON: Time 254880, Note Name: A3, Velocity: 55
Note ON: Time 254880, Note Name: A4, Velocity: 64
Note OFF: Time 255040, Note Name: A4
Note OFF: Time 255040, Note Name: A3
Note ON: Time 255040, Note Name: D#4, Velocity: 57
Note ON: Time 255040, Note Name: F#4, Velocity: 68
Note OFF: Time 255200, Note Name: F#4
Note OFF: Time 255200, Note Name: D#4
Note ON: Time 255200, Note Name: C#4, Velocity: 62
Note ON: Time 255200, Note Name: C#5, Velocity: 74
Note OFF: Time 255360, Note Name: C#5
Note OFF: Time 255360, Note Name: C#4
Note ON: Time 255360, Note Name: C4, Velocity: 57
Note ON: Time 255360, Note Name: C5, Velocity: 68
Note OFF: Time 255520, Note Name: C5
Note OFF: Time 255520, Note Name: C4
Note ON: Time 255520, Note Name: D#4, Velocity: 60
Note ON: Time 255520, Note Name: F#4, Velocity: 71
Note OFF: Time 255680, Note Name: F#4
Note OFF: Time 255680, Note Name: D#4
Note ON: Time 255680, Note Name: F#4, Velocity: 66
Note ON: Time 255680, Note Name: F#5, Velocity: 79
Note OFF: Time 255840, Note Name: F#5
Note OFF: Time 255840, Note Name: F#4
Note ON: Time 255840, Note Name: F4, Velocity: 58
Note ON: Time 255840, Note Name: F5, Velocity: 70
Note OFF: Time 256000, Note Name: F5
Note OFF: Time 256000, Note Name: F4
Note ON: Time 256000, Note Name: C5, Velocity: 61
Note ON: Time 256000, Note Name: D#5, Velocity: 72
Note OFF: Time 256160, Note Name: D#5
Note OFF: Time 256160, Note Name: C5
Note ON: Time 256160, Note Name: A#4, Velocity: 67
Note ON: Time 256160, Note Name: A#5, Velocity: 80
Note OFF: Time 256320, Note Name: A#5
Note OFF: Time 256320, Note Name: A#4
Note ON: Time 256320, Note Name: A4, Velocity: 61
Note ON: Time 256320, Note Name: A5, Velocity: 73
Note OFF: Time 256480, Note Name: A5
Note OFF: Time 256480, Note Name: A4
Note ON: Time 256480, Note Name: D#5, Velocity: 63
Note ON: Time 256480, Note Name: F#5, Velocity: 75
Note OFF: Time 256640, Note Name: F#5
Note OFF: Time 256640, Note Name: D#5
Note ON: Time 256640, Note Name: C#5, Velocity: 72
Note ON: Time 256640, Note Name: C#6, Velocity: 85
Note OFF: Time 256800, Note Name: C#6
Note OFF: Time 256800, Note Name: C#5
Note ON: Time 256800, Note Name: C6, Velocity: 75
Note ON: Time 256800, Note Name: C5, Velocity: 63
Note OFF: Time 256960, Note Name: C5
Note OFF: Time 256960, Note Name: C6
Note ON: Time 256960, Note Name: F#5, Velocity: 81
Note ON: Time 256960, Note Name: D#5, Velocity: 68
Note OFF: Time 257120, Note Name: D#5
Note OFF: Time 257120, Note Name: F#5
Note ON: Time 257120, Note Name: F#6, Velocity: 89
Note ON: Time 257120, Note Name: F#5, Velocity: 74
Note OFF: Time 257440, Note Name: F#5
Note OFF: Time 257440, Note Name: F#6
Note ON: Time 257440, Note Name: C6, Velocity: 63
Note ON: Time 257440, Note Name: F6, Velocity: 75
Note OFF: Time 257600, Note Name: F6
Note OFF: Time 257600, Note Name: C6
Note ON: Time 257600, Note Name: F#5, Velocity: 62
Note ON: Time 257600, Note Name: E6, Velocity: 74
Note OFF: Time 257760, Note Name: E6
Note OFF: Time 257760, Note Name: F#5
Note ON: Time 257760, Note Name: C6, Velocity: 64
Note ON: Time 257760, Note Name: D#6, Velocity: 77
Note OFF: Time 257920, Note Name: D#6
Note OFF: Time 257920, Note Name: C6
Note ON: Time 257920, Note Name: F#5, Velocity: 62
Note ON: Time 257920, Note Name: D6, Velocity: 73
Note OFF: Time 258080, Note Name: D6
Note OFF: Time 258080, Note Name: F#5
Note ON: Time 258080, Note Name: A5, Velocity: 58
Note ON: Time 258080, Note Name: C#6, Velocity: 70
Note OFF: Time 258240, Note Name: C#6
Note OFF: Time 258240, Note Name: A5
Note ON: Time 258240, Note Name: D#5, Velocity: 62
Note ON: Time 258240, Note Name: C6, Velocity: 73
Note OFF: Time 258400, Note Name: C6
Note OFF: Time 258400, Note Name: D#5
Note ON: Time 258400, Note Name: F#5, Velocity: 58
Note ON: Time 258400, Note Name: B5, Velocity: 68
Note OFF: Time 258560, Note Name: B5
Note OFF: Time 258560, Note Name: F#5
Note ON: Time 258560, Note Name: D#5, Velocity: 55
Note ON: Time 258560, Note Name: A#5, Velocity: 66
Note OFF: Time 258720, Note Name: A#5
Note OFF: Time 258720, Note Name: D#5
Note ON: Time 258720, Note Name: F#5, Velocity: 58
Note ON: Time 258720, Note Name: A5, Velocity: 69
Note OFF: Time 258880, Note Name: A5
Note OFF: Time 258880, Note Name: F#5
Note ON: Time 258880, Note Name: C5, Velocity: 53
Note ON: Time 258880, Note Name: G#5, Velocity: 63
Note OFF: Time 259040, Note Name: G#5
Note OFF: Time 259040, Note Name: C5
Note ON: Time 259040, Note Name: G5, Velocity: 63
Note ON: Time 259040, Note Name: D#5, Velocity: 53
Note OFF: Time 259200, Note Name: D#5
Note OFF: Time 259200, Note Name: G5
Note ON: Time 259200, Note Name: A4, Velocity: 52
Note ON: Time 259200, Note Name: F#5, Velocity: 62
Note OFF: Time 259360, Note Name: F#5
Note OFF: Time 259360, Note Name: A4
Note ON: Time 259360, Note Name: C5, Velocity: 49
Note ON: Time 259360, Note Name: F5, Velocity: 59
Note OFF: Time 259520, Note Name: F5
Note OFF: Time 259520, Note Name: C5
Note ON: Time 259520, Note Name: A4, Velocity: 49
Note ON: Time 259520, Note Name: E5, Velocity: 59
Note OFF: Time 259680, Note Name: E5
Note OFF: Time 259680, Note Name: A4
Note ON: Time 259680, Note Name: C5, Velocity: 49
Note ON: Time 259680, Note Name: D#5, Velocity: 59
Note OFF: Time 259840, Note Name: D#5
Note OFF: Time 259840, Note Name: C5
Note ON: Time 259840, Note Name: D#4, Velocity: 45
Note ON: Time 259840, Note Name: D5, Velocity: 53
Note OFF: Time 260000, Note Name: D5
Note OFF: Time 260000, Note Name: D#4
Note ON: Time 260000, Note Name: A4, Velocity: 46
Note ON: Time 260000, Note Name: C#5, Velocity: 53
Note OFF: Time 260160, Note Name: C#5
Note OFF: Time 260160, Note Name: A4
Note ON: Time 260160, Note Name: D#4, Velocity: 53
Note ON: Time 260160, Note Name: C5, Velocity: 53
Note OFF: Time 260320, Note Name: C5
Note OFF: Time 260320, Note Name: D#4
Note ON: Time 260320, Note Name: A4, Velocity: 49
Note ON: Time 260320, Note Name: B4, Velocity: 49
Note OFF: Time 260480, Note Name: B4
Note OFF: Time 260480, Note Name: A4
Note ON: Time 260480, Note Name: D#4, Velocity: 49
Note ON: Time 260480, Note Name: D5, Velocity: 49
Note OFF: Time 260640, Note Name: D5
Note OFF: Time 260640, Note Name: D#4
Note ON: Time 260640, Note Name: A4, Velocity: 52
Note ON: Time 260640, Note Name: C5, Velocity: 52
Note OFF: Time 260800, Note Name: C5
Note OFF: Time 260800, Note Name: A4
Note ON: Time 260800, Note Name: A4, Velocity: 53
Note ON: Time 260800, Note Name: G5, Velocity: 53
Note OFF: Time 260960, Note Name: G5
Note OFF: Time 260960, Note Name: A4
Note ON: Time 260960, Note Name: D#5, Velocity: 49
Note ON: Time 260960, Note Name: F5, Velocity: 49
Note OFF: Time 261060, Note Name: F5
Note OFF: Time 261060, Note Name: D#5
Note ON: Time 261060, Note Name: D4, Velocity: 39
Note OFF: Time 261120, Note Name: D4
Note ON: Time 261120, Note Name: D4, Velocity: 41
Note ON: Time 261120, Note Name: A#4, Velocity: 41
Note ON: Time 261120, Note Name: F5, Velocity: 49
Note OFF: Time 262080, Note Name: F5
Note OFF: Time 262080, Note Name: A#4
Note OFF: Time 262080, Note Name: D4
Note ON: Time 262080, Note Name: F4, Velocity: 41
Note ON: Time 262080, Note Name: A#4, Velocity: 41
Note ON: Time 262080, Note Name: D5, Velocity: 49
Note OFF: Time 262560, Note Name: D5
Note OFF: Time 262560, Note Name: A#4
Note OFF: Time 262560, Note Name: F4
Note ON: Time 262560, Note Name: G4, Velocity: 37
Note ON: Time 262560, Note Name: C5, Velocity: 37
Note ON: Time 262560, Note Name: D#5, Velocity: 44
Note OFF: Time 263040, Note Name: D#5
Note OFF: Time 263040, Note Name: C5
Note OFF: Time 263040, Note Name: G4
Note ON: Time 263040, Note Name: D#4, Velocity: 39
Note ON: Time 263040, Note Name: D5, Velocity: 47
Note OFF: Time 264000, Note Name: D5
Note ON: Time 264000, Note Name: C5, Velocity: 41
Note OFF: Time 264960, Note Name: C5
Note OFF: Time 264960, Note Name: D#4
Note ON: Time 264960, Note Name: D4, Velocity: 41
Note ON: Time 264960, Note Name: A#4, Velocity: 41
Note ON: Time 264960, Note Name: F5, Velocity: 49
Note OFF: Time 265440, Note Name: F5
Note OFF: Time 265440, Note Name: A#4
Note OFF: Time 265440, Note Name: D4
Note ON: Time 265440, Note Name: A#4, Velocity: 41
Note ON: Time 265440, Note Name: F4, Velocity: 41
Note ON: Time 265440, Note Name: D5, Velocity: 49
Note OFF: Time 265920, Note Name: D5
Note OFF: Time 265920, Note Name: F4
Note OFF: Time 265920, Note Name: A#4
Note ON: Time 265920, Note Name: G4, Velocity: 41
Note ON: Time 265920, Note Name: A#4, Velocity: 41
Note ON: Time 265920, Note Name: D#5, Velocity: 49
Note OFF: Time 266160, Note Name: D#5
Note OFF: Time 266160, Note Name: G4
Note ON: Time 266160, Note Name: F4, Velocity: 39
Note ON: Time 266160, Note Name: D5, Velocity: 47
Note OFF: Time 266400, Note Name: D5
Note OFF: Time 266400, Note Name: F4
Note OFF: Time 266400, Note Name: A#4
Note ON: Time 266400, Note Name: B4, Velocity: 37
Note ON: Time 266400, Note Name: G#4, Velocity: 37
Note ON: Time 266400, Note Name: F5, Velocity: 44
Note OFF: Time 266640, Note Name: F5
Note OFF: Time 266640, Note Name: G#4
Note OFF: Time 266640, Note Name: B4
Note ON: Time 266640, Note Name: C5, Velocity: 35
Note ON: Time 266640, Note Name: G4, Velocity: 35
Note ON: Time 266640, Note Name: D#5, Velocity: 41
Note OFF: Time 266880, Note Name: D#5
Note OFF: Time 266880, Note Name: G4
Note OFF: Time 266880, Note Name: C5
Note ON: Time 266880, Note Name: D#4, Velocity: 31
Note ON: Time 266880, Note Name: A4, Velocity: 36
Note ON: Time 266880, Note Name: D5, Velocity: 45
Note OFF: Time 267840, Note Name: D5
Note ON: Time 267840, Note Name: C5, Velocity: 41
Note OFF: Time 268800, Note Name: C5
Note OFF: Time 268800, Note Name: A4
Note OFF: Time 268800, Note Name: D#4
Note ON: Time 268800, Note Name: A#4, Velocity: 40
Note ON: Time 268800, Note Name: D4, Velocity: 42
Note ON: Time 268800, Note Name: F5, Velocity: 53
Note OFF: Time 269280, Note Name: F5
Note OFF: Time 269280, Note Name: D4
Note OFF: Time 269280, Note Name: A#4
Note ON: Time 269280, Note Name: G4, Velocity: 37
Note ON: Time 269280, Note Name: A#4, Velocity: 40
Note ON: Time 269280, Note Name: G5, Velocity: 51
Note OFF: Time 269760, Note Name: G5
Note OFF: Time 269760, Note Name: A#4
Note OFF: Time 269760, Note Name: G4
Note ON: Time 269760, Note Name: A4, Velocity: 44
Note ON: Time 269760, Note Name: D#5, Velocity: 44
Note ON: Time 269760, Note Name: A5, Velocity: 52
Note OFF: Time 270240, Note Name: A5
Note OFF: Time 270240, Note Name: A4
Note ON: Time 270240, Note Name: A#4, Velocity: 51
Note ON: Time 270240, Note Name: A#5, Velocity: 58
Note OFF: Time 270600, Note Name: A#5
Note OFF: Time 270600, Note Name: A#4
Note ON: Time 270600, Note Name: C5, Velocity: 53
Note ON: Time 270600, Note Name: A5, Velocity: 53
Note ON: Time 270600, Note Name: C6, Velocity: 60
Note OFF: Time 270720, Note Name: C6
Note OFF: Time 270720, Note Name: D#5
Note OFF: Time 270720, Note Name: C5
Note OFF: Time 270720, Note Name: A5
Note ON: Time 270720, Note Name: D5, Velocity: 48
Note ON: Time 270720, Note Name: A#5, Velocity: 51
Note ON: Time 270720, Note Name: D6, Velocity: 61
Note OFF: Time 271200, Note Name: D6
Note OFF: Time 271200, Note Name: A#5
Note OFF: Time 271200, Note Name: D5
Note ON: Time 271200, Note Name: G4, Velocity: 44
Note ON: Time 271200, Note Name: A#4, Velocity: 44
Note ON: Time 271200, Note Name: C#5, Velocity: 44
Note ON: Time 271200, Note Name: G5, Velocity: 51
Note OFF: Time 271680, Note Name: G5
Note OFF: Time 271680, Note Name: G4
Note OFF: Time 271680, Note Name: A#4
Note OFF: Time 271680, Note Name: C#5
Note ON: Time 271680, Note Name: A4, Velocity: 44
Note ON: Time 271680, Note Name: C5, Velocity: 44
Note ON: Time 271680, Note Name: A5, Velocity: 52
Note OFF: Time 272100, Note Name: A5
Note OFF: Time 272100, Note Name: A4
Note ON: Time 272100, Note Name: G4, Velocity: 56
Note ON: Time 272130, Note Name: C5, Velocity: 56
Note OFF: Time 272160, Note Name: C5
Note ON: Time 272160, Note Name: A#5, Velocity: 58
Note OFF: Time 272520, Note Name: A#5
Note ON: Time 272520, Note Name: C6, Velocity: 60
Note OFF: Time 272640, Note Name: C6
Note OFF: Time 272640, Note Name: C5
Note OFF: Time 272640, Note Name: G4
Note ON: Time 272640, Note Name: D5, Velocity: 53
Note ON: Time 272640, Note Name: A5, Velocity: 53
Note ON: Time 272640, Note Name: D6, Velocity: 63
Note OFF: Time 273120, Note Name: D6
Note OFF: Time 273120, Note Name: A5
Note OFF: Time 273120, Note Name: D5
Note ON: Time 273120, Note Name: C5, Velocity: 50
Note ON: Time 273120, Note Name: A5, Velocity: 53
Note ON: Time 273120, Note Name: D5, Velocity: 53
Note ON: Time 273120, Note Name: C6, Velocity: 60
Note OFF: Time 273600, Note Name: C6
Note OFF: Time 273600, Note Name: C5
Note OFF: Time 273600, Note Name: A5
Note OFF: Time 273600, Note Name: D5
Note ON: Time 273600, Note Name: D5, Velocity: 53
Note ON: Time 273600, Note Name: A#4, Velocity: 53
Note ON: Time 273600, Note Name: G5, Velocity: 63
Note ON: Time 273600, Note Name: A#5, Velocity: 63
Note OFF: Time 274080, Note Name: A#5
Note OFF: Time 274080, Note Name: D5
Note OFF: Time 274080, Note Name: A#4
Note OFF: Time 274080, Note Name: G5
Note ON: Time 274080, Note Name: C#5, Velocity: 53
Note ON: Time 274080, Note Name: F5, Velocity: 53
Note ON: Time 274080, Note Name: A5, Velocity: 63
Note OFF: Time 274440, Note Name: A5
Note OFF: Time 274440, Note Name: F5
Note OFF: Time 274440, Note Name: C#5
Note ON: Time 274440, Note Name: G4, Velocity: 54
Note ON: Time 274440, Note Name: D5, Velocity: 57
Note ON: Time 274440, Note Name: G5, Velocity: 57
Note OFF: Time 274560, Note Name: G5
Note OFF: Time 274560, Note Name: D5
Note OFF: Time 274560, Note Name: G4
Note ON: Time 274560, Note Name: F4, Velocity: 51
Note ON: Time 274560, Note Name: G4, Velocity: 51
Note ON: Time 274560, Note Name: D5, Velocity: 56
Note ON: Time 274560, Note Name: F5, Velocity: 61
Note OFF: Time 275040, Note Name: F5
Note OFF: Time 275040, Note Name: F4
Note OFF: Time 275040, Note Name: G4
Note OFF: Time 275040, Note Name: D5
Note ON: Time 275040, Note Name: D#4, Velocity: 49
Note ON: Time 275040, Note Name: G4, Velocity: 49
Note ON: Time 275040, Note Name: C5, Velocity: 59
Note ON: Time 275040, Note Name: D#5, Velocity: 59
Note OFF: Time 275400, Note Name: D#5
Note OFF: Time 275400, Note Name: D#4
Note OFF: Time 275400, Note Name: G4
Note OFF: Time 275400, Note Name: C5
Note ON: Time 275400, Note Name: F#4, Velocity: 47
Note ON: Time 275400, Note Name: A#4, Velocity: 56
Note ON: Time 275400, Note Name: D5, Velocity: 56
Note OFF: Time 275520, Note Name: D5
Note OFF: Time 275520, Note Name: A#4
Note OFF: Time 275520, Note Name: F#4
Note ON: Time 275520, Note Name: C4, Velocity: 52
Note ON: Time 275520, Note Name: C5, Velocity: 59
Note ON: Time 275520, Note Name: G4, Velocity: 49
Note ON: Time 275520, Note Name: A#4, Velocity: 59
Note OFF: Time 276000, Note Name: A#4
Note OFF: Time 276000, Note Name: G4
Note ON: Time 276000, Note Name: F4, Velocity: 45
Note ON: Time 276000, Note Name: A4, Velocity: 49
Note OFF: Time 276240, Note Name: A4
Note OFF: Time 276240, Note Name: F4
Note ON: Time 276240, Note Name: D#4, Velocity: 43
Note ON: Time 276240, Note Name: G4, Velocity: 50
Note OFF: Time 276480, Note Name: G4
Note OFF: Time 276480, Note Name: C4
Note OFF: Time 276480, Note Name: C5
Note OFF: Time 276480, Note Name: D#4
Note ON: Time 276480, Note Name: D4, Velocity: 45
Note ON: Time 276480, Note Name: A#4, Velocity: 49
Note ON: Time 276480, Note Name: F5, Velocity: 64
Note OFF: Time 277440, Note Name: F5
Note OFF: Time 277440, Note Name: A#4
Note OFF: Time 277440, Note Name: D4
Note ON: Time 277440, Note Name: F4, Velocity: 49
Note ON: Time 277440, Note Name: A#4, Velocity: 49
Note ON: Time 277440, Note Name: D5, Velocity: 60
Note OFF: Time 277920, Note Name: D5
Note OFF: Time 277920, Note Name: A#4
Note OFF: Time 277920, Note Name: F4
Note ON: Time 277920, Note Name: D4, Velocity: 34
Note ON: Time 277920, Note Name: F4, Velocity: 39
Note OFF: Time 278160, Note Name: F4
Note OFF: Time 278160, Note Name: D4
Note ON: Time 278160, Note Name: G4, Velocity: 41
Note ON: Time 278160, Note Name: C5, Velocity: 41
Note ON: Time 278160, Note Name: D#5, Velocity: 55
Note OFF: Time 278400, Note Name: D#5
Note OFF: Time 278400, Note Name: C5
Note OFF: Time 278400, Note Name: G4
Note ON: Time 278400, Note Name: D5, Velocity: 68
Note ON: Time 278400, Note Name: D#4, Velocity: 35
Note ON: Time 278400, Note Name: A4, Velocity: 42
Note OFF: Time 279120, Note Name: D5
Note ON: Time 279120, Note Name: C5, Velocity: 55
Note OFF: Time 279360, Note Name: C5
Note OFF: Time 279360, Note Name: A4
Note OFF: Time 279360, Note Name: D#4
Note ON: Time 279360, Note Name: G4, Velocity: 58
Note OFF: Time 279600, Note Name: G4
Note ON: Time 279600, Note Name: F4, Velocity: 52
Note OFF: Time 279840, Note Name: F4
Note ON: Time 279840, Note Name: A#3, Velocity: 61
Note OFF: Time 280080, Note Name: A#3
Note ON: Time 280080, Note Name: C4, Velocity: 55
Note OFF: Time 280320, Note Name: C4
Note ON: Time 280320, Note Name: D4, Velocity: 55
Note ON: Time 280320, Note Name: A#4, Velocity: 54
Note ON: Time 280320, Note Name: F5, Velocity: 68
Note OFF: Time 280800, Note Name: F5
Note OFF: Time 280800, Note Name: D4
Note ON: Time 280800, Note Name: F4, Velocity: 49
Note ON: Time 280800, Note Name: D5, Velocity: 62
Note OFF: Time 281280, Note Name: D5
Note OFF: Time 281280, Note Name: F4
Note OFF: Time 281280, Note Name: A#4
Note ON: Time 281280, Note Name: A#4, Velocity: 57
Note ON: Time 281280, Note Name: G4, Velocity: 55
Note ON: Time 281280, Note Name: D#5, Velocity: 66
Note OFF: Time 281520, Note Name: D#5
Note OFF: Time 281520, Note Name: G4
Note ON: Time 281520, Note Name: F4, Velocity: 46
Note ON: Time 281520, Note Name: D5, Velocity: 55
Note OFF: Time 281760, Note Name: D5
Note OFF: Time 281760, Note Name: F4
Note ON: Time 281760, Note Name: F4, Velocity: 48
Note ON: Time 281760, Note Name: D5, Velocity: 57
Note OFF: Time 281920, Note Name: D5
Note OFF: Time 281920, Note Name: F4
Note ON: Time 281920, Note Name: A4, Velocity: 46
Note ON: Time 281920, Note Name: F5, Velocity: 55
Note OFF: Time 282080, Note Name: F5
Note OFF: Time 282080, Note Name: A4
Note ON: Time 282080, Note Name: G4, Velocity: 46
Note ON: Time 282080, Note Name: D#5, Velocity: 55
Note OFF: Time 282240, Note Name: D#5
Note OFF: Time 282240, Note Name: G4
Note OFF: Time 282240, Note Name: A#4
Note ON: Time 282240, Note Name: D5, Velocity: 64
Note ON: Time 282240, Note Name: D#4, Velocity: 42
Note ON: Time 282240, Note Name: A4, Velocity: 41
Note OFF: Time 282960, Note Name: D5
Note ON: Time 282960, Note Name: C5, Velocity: 58
Note OFF: Time 283200, Note Name: C5
Note OFF: Time 283200, Note Name: A4
Note OFF: Time 283200, Note Name: D#4
Note ON: Time 283200, Note Name: G4, Velocity: 60
Note OFF: Time 283360, Note Name: G4
Note ON: Time 283360, Note Name: F4, Velocity: 51
Note OFF: Time 283520, Note Name: F4
Note ON: Time 283520, Note Name: G4, Velocity: 51
Note OFF: Time 283680, Note Name: G4
Note ON: Time 283680, Note Name: F4, Velocity: 58
Note OFF: Time 283840, Note Name: F4
Note ON: Time 283840, Note Name: A#3, Velocity: 53
Note OFF: Time 284000, Note Name: A#3
Note ON: Time 284000, Note Name: C4, Velocity: 53
Note OFF: Time 284100, Note Name: C4
Note ON: Time 284100, Note Name: D4, Velocity: 51
Note ON: Time 284130, Note Name: A#4, Velocity: 61
Note ON: Time 284160, Note Name: F5, Velocity: 73
Note OFF: Time 284640, Note Name: F5
Note OFF: Time 284640, Note Name: D4
Note ON: Time 284640, Note Name: G4, Velocity: 57
Note ON: Time 284640, Note Name: G5, Velocity: 68
Note OFF: Time 285120, Note Name: G5
Note OFF: Time 285120, Note Name: G4
Note OFF: Time 285120, Note Name: A#4
Note ON: Time 285120, Note Name: F5, Velocity: 61
Note ON: Time 285120, Note Name: F5, Velocity: 56
Note ON: Time 285120, Note Name: D#5, Velocity: 56
Note ON: Time 285120, Note Name: A4, Velocity: 57
Note ON: Time 285120, Note Name: A5, Velocity: 73
Note OFF: Time 285600, Note Name: A5
Note OFF: Time 285600, Note Name: A4
Note ON: Time 285600, Note Name: A#4, Velocity: 72
Note ON: Time 285600, Note Name: A#5, Velocity: 75
Note OFF: Time 285960, Note Name: A#5
Note OFF: Time 285960, Note Name: A#4
Note ON: Time 285960, Note Name: C5, Velocity: 70
Note ON: Time 285960, Note Name: C6, Velocity: 73
Note OFF: Time 286080, Note Name: C6
Note OFF: Time 286080, Note Name: D#5
Note OFF: Time 286080, Note Name: F5
Note OFF: Time 286080, Note Name: F5
Note OFF: Time 286080, Note Name: C5
Note ON: Time 286080, Note Name: F5, Velocity: 68
Note ON: Time 286080, Note Name: D5, Velocity: 66
Note ON: Time 286080, Note Name: D6, Velocity: 80
Note OFF: Time 286560, Note Name: D6
Note OFF: Time 286560, Note Name: F5
Note ON: Time 286560, Note Name: G5, Velocity: 73
Note ON: Time 286560, Note Name: G4, Velocity: 61
Note OFF: Time 287040, Note Name: G4
Note OFF: Time 287040, Note Name: G5
Note OFF: Time 287040, Note Name: D5
Note ON: Time 287040, Note Name: A4, Velocity: 66
Note ON: Time 287040, Note Name: A5, Velocity: 78
Note ON: Time 287040, Note Name: F5, Velocity: 66
Note ON: Time 287040, Note Name: D#5, Velocity: 66
Note OFF: Time 287520, Note Name: A5
Note OFF: Time 287520, Note Name: A4
Note ON: Time 287520, Note Name: A#5, Velocity: 81
Note ON: Time 287520, Note Name: A#4, Velocity: 68
Note OFF: Time 287880, Note Name: A#4
Note OFF: Time 287880, Note Name: A#5
Note ON: Time 287880, Note Name: C5, Velocity: 64
Note ON: Time 287880, Note Name: C6, Velocity: 77
Note OFF: Time 288000, Note Name: C6
Note OFF: Time 288000, Note Name: D#5
Note OFF: Time 288000, Note Name: F5
Note OFF: Time 288000, Note Name: C5
Note ON: Time 288000, Note Name: A5, Velocity: 66
Note ON: Time 288000, Note Name: C6, Velocity: 74
Note ON: Time 288000, Note Name: D5, Velocity: 73
Note ON: Time 288000, Note Name: D6, Velocity: 88
Note OFF: Time 288480, Note Name: D6
Note OFF: Time 288480, Note Name: D5
Note ON: Time 288480, Note Name: D#5, Velocity: 78
Note ON: Time 288480, Note Name: D#6, Velocity: 91
Note OFF: Time 288960, Note Name: C6
Note OFF: Time 288960, Note Name: A5
Note ON: Time 288960, Note Name: G5, Velocity: 74
Note ON: Time 288960, Note Name: A#5, Velocity: 74
Note OFF: Time 289200, Note Name: D#5
Note OFF: Time 289200, Note Name: D#6
Note ON: Time 289200, Note Name: D5, Velocity: 67
Note ON: Time 289200, Note Name: D6, Velocity: 80
Note OFF: Time 289440, Note Name: D6
Note OFF: Time 289440, Note Name: D5
Note ON: Time 289440, Note Name: C#5, Velocity: 66
Note ON: Time 289440, Note Name: C#6, Velocity: 79
Note OFF: Time 289680, Note Name: C#6
Note OFF: Time 289680, Note Name: C#5
Note ON: Time 289680, Note Name: D5, Velocity: 66
Note ON: Time 289680, Note Name: D6, Velocity: 79
Note OFF: Time 289920, Note Name: D6
Note OFF: Time 289920, Note Name: A#5
Note OFF: Time 289920, Note Name: G5
Note OFF: Time 289920, Note Name: D5
Note ON: Time 289920, Note Name: A5, Velocity: 57
Note ON: Time 289920, Note Name: C6, Velocity: 57
Note ON: Time 289920, Note Name: D#6, Velocity: 71
Note ON: Time 289920, Note Name: F6, Velocity: 90
Note ON: Time 289920, Note Name: F5, Velocity: 72
Note OFF: Time 290400, Note Name: F5
Note OFF: Time 290400, Note Name: F6
Note ON: Time 290400, Note Name: G5, Velocity: 70
Note ON: Time 290400, Note Name: G6, Velocity: 84
Note OFF: Time 290880, Note Name: A5
Note OFF: Time 290880, Note Name: D#6
Note OFF: Time 290880, Note Name: C6
Note ON: Time 290880, Note Name: D6, Velocity: 85
Note OFF: Time 291120, Note Name: G5
Note OFF: Time 291120, Note Name: G6
Note ON: Time 291120, Note Name: F5, Velocity: 64
Note ON: Time 291120, Note Name: F6, Velocity: 77
Note OFF: Time 291360, Note Name: F6
Note OFF: Time 291360, Note Name: F5
Note OFF: Time 291360, Note Name: D6
Note ON: Time 291360, Note Name: D#5, Velocity: 70
Note ON: Time 291360, Note Name: D#6, Velocity: 84
Note ON: Time 291360, Note Name: G5, Velocity: 62
Note OFF: Time 291720, Note Name: D#6
Note OFF: Time 291720, Note Name: D#5
Note ON: Time 291720, Note Name: D6, Velocity: 78
Note ON: Time 291720, Note Name: D5, Velocity: 66
Note OFF: Time 291840, Note Name: D5
Note OFF: Time 291840, Note Name: D6
Note OFF: Time 291840, Note Name: G5
Note ON: Time 291840, Note Name: G5, Velocity: 67
Note ON: Time 291840, Note Name: F5, Velocity: 74
Note ON: Time 291840, Note Name: F6, Velocity: 88
Note OFF: Time 292080, Note Name: F6
Note OFF: Time 292080, Note Name: F5
Note ON: Time 292080, Note Name: D#5, Velocity: 62
Note ON: Time 292080, Note Name: D#6, Velocity: 76
Note OFF: Time 292320, Note Name: D#6
Note OFF: Time 292320, Note Name: D#5
Note OFF: Time 292320, Note Name: G5
Note ON: Time 292320, Note Name: G5, Velocity: 59
Note ON: Time 292320, Note Name: D5, Velocity: 61
Note ON: Time 292320, Note Name: D6, Velocity: 73
Note OFF: Time 292560, Note Name: D6
Note OFF: Time 292560, Note Name: D5
Note ON: Time 292560, Note Name: B4, Velocity: 55
Note ON: Time 292560, Note Name: B5, Velocity: 68
Note OFF: Time 292800, Note Name: B5
Note OFF: Time 292800, Note Name: B4
Note OFF: Time 292800, Note Name: G5
Note ON: Time 292800, Note Name: G5, Velocity: 59
Note ON: Time 292800, Note Name: D6, Velocity: 79
Note ON: Time 292800, Note Name: D5, Velocity: 67
Note OFF: Time 293040, Note Name: D5
Note OFF: Time 293040, Note Name: D6
Note ON: Time 293040, Note Name: C6, Velocity: 69
Note ON: Time 293040, Note Name: C5, Velocity: 58
Note OFF: Time 293280, Note Name: C5
Note OFF: Time 293280, Note Name: C6
Note OFF: Time 293280, Note Name: G5
Note ON: Time 293280, Note Name: C#5, Velocity: 57
Note ON: Time 293280, Note Name: G5, Velocity: 72
Note ON: Time 293280, Note Name: G4, Velocity: 61
Note OFF: Time 293520, Note Name: G4
Note OFF: Time 293520, Note Name: G5
Note ON: Time 293520, Note Name: A#5, Velocity: 67
Note ON: Time 293520, Note Name: A#4, Velocity: 56
Note OFF: Time 293760, Note Name: C#5
Note ON: Time 293760, Note Name: C5, Velocity: 64
Note ON: Time 293760, Note Name: D#5, Velocity: 64
Note OFF: Time 294000, Note Name: A#4
Note OFF: Time 294000, Note Name: A#5
Note ON: Time 294000, Note Name: A5, Velocity: 71
Note ON: Time 294000, Note Name: A4, Velocity: 57
Note OFF: Time 294240, Note Name: C5
Note OFF: Time 294240, Note Name: D#5
Note ON: Time 294240, Note Name: D#5, Velocity: 73
Note ON: Time 294240, Note Name: A#4, Velocity: 61
Note OFF: Time 294480, Note Name: A5
Note OFF: Time 294480, Note Name: A4
Note ON: Time 294480, Note Name: G4, Velocity: 57
Note ON: Time 294480, Note Name: G5, Velocity: 72
Note OFF: Time 294720, Note Name: D#5
Note OFF: Time 294720, Note Name: A#4
Note ON: Time 294720, Note Name: C5, Velocity: 67
Note ON: Time 294720, Note Name: D#5, Velocity: 80
Note OFF: Time 294960, Note Name: G4
Note OFF: Time 294960, Note Name: G5
Note ON: Time 294960, Note Name: F#4, Velocity: 57
Note ON: Time 294960, Note Name: F#5, Velocity: 71
Note OFF: Time 295200, Note Name: C5
Note OFF: Time 295200, Note Name: D#5
Note ON: Time 295200, Note Name: D#5, Velocity: 73
Note ON: Time 295200, Note Name: A4, Velocity: 59
Note OFF: Time 295440, Note Name: F#4
Note OFF: Time 295440, Note Name: F#5
Note ON: Time 295440, Note Name: F4, Velocity: 60
Note ON: Time 295440, Note Name: F5, Velocity: 70
Note OFF: Time 295680, Note Name: D#5
Note OFF: Time 295680, Note Name: A4
Note ON: Time 295680, Note Name: A#4, Velocity: 53
Note OFF: Time 295920, Note Name: A#4
Note OFF: Time 295920, Note Name: F4
Note OFF: Time 295920, Note Name: F5
Note ON: Time 295920, Note Name: A#4, Velocity: 56
Note ON: Time 295920, Note Name: F#4, Velocity: 56
Note ON: Time 295920, Note Name: F#5, Velocity: 72
Note OFF: Time 296160, Note Name: F#5
Note OFF: Time 296160, Note Name: F#4
Note OFF: Time 296160, Note Name: A#4
Note ON: Time 296160, Note Name: A#4, Velocity: 53
Note ON: Time 296160, Note Name: G4, Velocity: 64
Note ON: Time 296160, Note Name: G5, Velocity: 77
Note OFF: Time 296400, Note Name: G5
Note OFF: Time 296400, Note Name: G4
Note OFF: Time 296400, Note Name: A#4
Note ON: Time 296400, Note Name: F4, Velocity: 56
Note ON: Time 296400, Note Name: A#4, Velocity: 56
Note ON: Time 296400, Note Name: F5, Velocity: 72
Note OFF: Time 296640, Note Name: F5
Note OFF: Time 296640, Note Name: A#4
Note OFF: Time 296640, Note Name: F4
Note ON: Time 296640, Note Name: A4, Velocity: 60
Note ON: Time 296640, Note Name: C5, Velocity: 69
Note OFF: Time 296880, Note Name: C5
Note OFF: Time 296880, Note Name: A4
Note ON: Time 296880, Note Name: F4, Velocity: 52
Note ON: Time 296880, Note Name: G#4, Velocity: 55
Note ON: Time 296880, Note Name: D5, Velocity: 68
Note OFF: Time 297120, Note Name: D5
Note OFF: Time 297120, Note Name: G#4
Note OFF: Time 297120, Note Name: F4
Note ON: Time 297120, Note Name: D#4, Velocity: 59
Note ON: Time 297120, Note Name: G4, Velocity: 62
Note ON: Time 297120, Note Name: D#5, Velocity: 70
Note OFF: Time 297360, Note Name: D#5
Note OFF: Time 297360, Note Name: G4
Note OFF: Time 297360, Note Name: D#4
Note ON: Time 297360, Note Name: F#4, Velocity: 57
Note ON: Time 297360, Note Name: A4, Velocity: 68
Note OFF: Time 297600, Note Name: A4
Note OFF: Time 297600, Note Name: F#4
Note ON: Time 297600, Note Name: F4, Velocity: 60
Note ON: Time 297600, Note Name: A#4, Velocity: 69
Note OFF: Time 297840, Note Name: A#4
Note OFF: Time 297840, Note Name: F4
Note ON: Time 297840, Note Name: D#4, Velocity: 56
Note ON: Time 297840, Note Name: F#4, Velocity: 56
Note ON: Time 297840, Note Name: C5, Velocity: 67
Note OFF: Time 298080, Note Name: C5
Note OFF: Time 298080, Note Name: F#4
Note OFF: Time 298080, Note Name: D#4
Note ON: Time 298080, Note Name: D4, Velocity: 54
Note ON: Time 298080, Note Name: F4, Velocity: 58
Note ON: Time 298080, Note Name: D5, Velocity: 70
Note OFF: Time 298320, Note Name: D5
Note OFF: Time 298320, Note Name: F4
Note OFF: Time 298320, Note Name: D4
Note ON: Time 298320, Note Name: A#3, Velocity: 58
Note ON: Time 298320, Note Name: C#4, Velocity: 58
Note ON: Time 298320, Note Name: G4, Velocity: 69
Note OFF: Time 298500, Note Name: G4
Note OFF: Time 298500, Note Name: C#4
Note OFF: Time 298500, Note Name: A#3
Note ON: Time 298500, Note Name: A#3, Velocity: 50
Note OFF: Time 298560, Note Name: A#3
Note ON: Time 298560, Note Name: C4, Velocity: 58
Note ON: Time 298560, Note Name: A#3, Velocity: 58
Note ON: Time 298560, Note Name: D#4, Velocity: 58
Note ON: Time 298560, Note Name: A#4, Velocity: 69
Note OFF: Time 299040, Note Name: A#4
Note OFF: Time 299040, Note Name: A#3
Note ON: Time 299040, Note Name: A3, Velocity: 51
Note ON: Time 299040, Note Name: A4, Velocity: 61
Note OFF: Time 299520, Note Name: A4
Note OFF: Time 299520, Note Name: C4
Note OFF: Time 299520, Note Name: D#4
Note OFF: Time 299520, Note Name: A3
Note ON: Time 299520, Note Name: D4, Velocity: 65
Note ON: Time 299520, Note Name: A#4, Velocity: 77
Note ON: Time 299526, Note Name: A#3, Velocity: 65
Note OFF: Time 299680, Note Name: A#4
Note OFF: Time 299680, Note Name: D4
Note ON: Time 299680, Note Name: C#4, Velocity: 62
Note ON: Time 299680, Note Name: F#4, Velocity: 73
Note OFF: Time 299686, Note Name: A#3
Note OFF: Time 299760, Note Name: F#4
Note OFF: Time 299760, Note Name: C#4
Note ON: Time 299840, Note Name: C#4, Velocity: 62
Note ON: Time 299840, Note Name: F#4, Velocity: 73
Note OFF: Time 299920, Note Name: F#4
Note OFF: Time 299920, Note Name: C#4
Note ON: Time 300000, Note Name: C#4, Velocity: 62
Note ON: Time 300000, Note Name: F#4, Velocity: 75
Note OFF: Time 300160, Note Name: F#4
Note OFF: Time 300160, Note Name: C#4
Note ON: Time 300160, Note Name: C4, Velocity: 61
Note ON: Time 300160, Note Name: F4, Velocity: 66
Note OFF: Time 300240, Note Name: F4
Note OFF: Time 300240, Note Name: C4
Note ON: Time 300320, Note Name: A4, Velocity: 62
Note ON: Time 300320, Note Name: D#5, Velocity: 74
Note OFF: Time 300400, Note Name: D#5
Note OFF: Time 300400, Note Name: A4
Note ON: Time 300480, Note Name: A4, Velocity: 62
Note ON: Time 300480, Note Name: D#5, Velocity: 75
Note OFF: Time 300640, Note Name: D#5
Note OFF: Time 300640, Note Name: A4
Note ON: Time 300640, Note Name: A#4, Velocity: 62
Note ON: Time 300640, Note Name: D5, Velocity: 74
Note OFF: Time 300720, Note Name: D5
Note OFF: Time 300720, Note Name: A#4
Note ON: Time 300800, Note Name: C#5, Velocity: 62
Note ON: Time 300800, Note Name: F#5, Velocity: 74
Note OFF: Time 300880, Note Name: F#5
Note OFF: Time 300880, Note Name: C#5
Note ON: Time 300960, Note Name: C#5, Velocity: 62
Note ON: Time 300960, Note Name: F#5, Velocity: 75
Note OFF: Time 301120, Note Name: F#5
Note OFF: Time 301120, Note Name: C#5
Note ON: Time 301120, Note Name: C5, Velocity: 63
Note ON: Time 301120, Note Name: F5, Velocity: 69
Note OFF: Time 301200, Note Name: F5
Note OFF: Time 301200, Note Name: C5
Note ON: Time 301280, Note Name: A5, Velocity: 62
Note ON: Time 301280, Note Name: D#6, Velocity: 73
Note OFF: Time 301360, Note Name: D#6
Note OFF: Time 301360, Note Name: A5
Note ON: Time 301440, Note Name: A5, Velocity: 64
Note ON: Time 301440, Note Name: D#6, Velocity: 78
Note OFF: Time 301600, Note Name: D#6
Note OFF: Time 301600, Note Name: A5
Note ON: Time 301600, Note Name: A#5, Velocity: 62
Note ON: Time 301600, Note Name: D6, Velocity: 73
Note OFF: Time 301680, Note Name: D6
Note OFF: Time 301680, Note Name: A#5
Note ON: Time 301760, Note Name: F#5, Velocity: 73
Note ON: Time 301760, Note Name: C#5, Velocity: 62
Note OFF: Time 301840, Note Name: C#5
Note OFF: Time 301840, Note Name: F#5
Note ON: Time 301920, Note Name: C#5, Velocity: 64
Note ON: Time 301920, Note Name: F#5, Velocity: 78
Note OFF: Time 302080, Note Name: F#5
Note OFF: Time 302080, Note Name: C#5
Note ON: Time 302080, Note Name: C5, Velocity: 62
Note ON: Time 302080, Note Name: F5, Velocity: 70
Note OFF: Time 302160, Note Name: F5
Note OFF: Time 302160, Note Name: C5
Note ON: Time 302240, Note Name: A4, Velocity: 62
Note ON: Time 302240, Note Name: D#5, Velocity: 74
Note OFF: Time 302320, Note Name: D#5
Note OFF: Time 302320, Note Name: A4
Note ON: Time 302400, Note Name: A4, Velocity: 64
Note ON: Time 302400, Note Name: D#5, Velocity: 78
Note OFF: Time 302560, Note Name: D#5
Note OFF: Time 302560, Note Name: A4
Note ON: Time 302560, Note Name: A#4, Velocity: 59
Note ON: Time 302560, Note Name: D5, Velocity: 69
Note OFF: Time 302640, Note Name: D5
Note OFF: Time 302640, Note Name: A#4
Note ON: Time 302720, Note Name: F#4, Velocity: 74
Note ON: Time 302720, Note Name: C#4, Velocity: 62
Note OFF: Time 302800, Note Name: C#4
Note OFF: Time 302800, Note Name: F#4
Note ON: Time 302880, Note Name: C#4, Velocity: 62
Note ON: Time 302880, Note Name: F#4, Velocity: 75
Note OFF: Time 303040, Note Name: F#4
Note OFF: Time 303040, Note Name: C#4
Note ON: Time 303040, Note Name: C4, Velocity: 59
Note ON: Time 303040, Note Name: F4, Velocity: 66
Note OFF: Time 303120, Note Name: F4
Note OFF: Time 303120, Note Name: C4
Note ON: Time 303200, Note Name: A3, Velocity: 62
Note ON: Time 303200, Note Name: D#4, Velocity: 74
Note OFF: Time 303280, Note Name: D#4
Note OFF: Time 303280, Note Name: A3
Note ON: Time 303360, Note Name: A3, Velocity: 62
Note ON: Time 303360, Note Name: D#4, Velocity: 75
Note OFF: Time 303520, Note Name: D#4
Note OFF: Time 303520, Note Name: A3
Note ON: Time 303520, Note Name: A#3, Velocity: 53
Note ON: Time 303520, Note Name: D4, Velocity: 63
Note OFF: Time 303600, Note Name: D4
Note OFF: Time 303600, Note Name: A#3
Note ON: Time 303680, Note Name: C4, Velocity: 49
Note ON: Time 303680, Note Name: G4, Velocity: 59
Note OFF: Time 303760, Note Name: G4
Note OFF: Time 303760, Note Name: C4
Note ON: Time 303840, Note Name: C4, Velocity: 51
Note ON: Time 303840, Note Name: G4, Velocity: 62
Note OFF: Time 304000, Note Name: G4
Note OFF: Time 304000, Note Name: C4
Note ON: Time 304000, Note Name: F4, Velocity: 58
Note OFF: Time 304080, Note Name: F4
Note ON: Time 304160, Note Name: A4, Velocity: 44
Note ON: Time 304160, Note Name: D#5, Velocity: 52
Note OFF: Time 304240, Note Name: D#5
Note OFF: Time 304240, Note Name: A4
Note ON: Time 304320, Note Name: A4, Velocity: 46
Note ON: Time 304320, Note Name: D#5, Velocity: 55
Note OFF: Time 304480, Note Name: D#5
Note OFF: Time 304480, Note Name: A4
Note ON: Time 304480, Note Name: A#4, Velocity: 44
Note ON: Time 304480, Note Name: D5, Velocity: 52
Note OFF: Time 304560, Note Name: D5
Note OFF: Time 304560, Note Name: A#4
Note ON: Time 304640, Note Name: C5, Velocity: 44
Note ON: Time 304640, Note Name: G5, Velocity: 52
Note OFF: Time 304720, Note Name: G5
Note OFF: Time 304720, Note Name: C5
Note ON: Time 304800, Note Name: C5, Velocity: 46
Note ON: Time 304800, Note Name: G5, Velocity: 55
Note OFF: Time 304960, Note Name: G5
Note OFF: Time 304960, Note Name: C5
Note ON: Time 304960, Note Name: F5, Velocity: 51
Note OFF: Time 305040, Note Name: F5
Note ON: Time 305120, Note Name: A5, Velocity: 39
Note ON: Time 305120, Note Name: D#6, Velocity: 46
Note OFF: Time 305200, Note Name: D#6
Note OFF: Time 305200, Note Name: A5
Note ON: Time 305280, Note Name: A5, Velocity: 40
Note ON: Time 305280, Note Name: D#6, Velocity: 49
Note OFF: Time 305440, Note Name: D#6
Note OFF: Time 305440, Note Name: A5
Note ON: Time 305440, Note Name: A#5, Velocity: 39
Note ON: Time 305440, Note Name: D6, Velocity: 46
Note OFF: Time 305520, Note Name: D6
Note OFF: Time 305520, Note Name: A#5
Note ON: Time 305600, Note Name: G5, Velocity: 55
Note ON: Time 305600, Note Name: C5, Velocity: 47
Note OFF: Time 305680, Note Name: C5
Note OFF: Time 305680, Note Name: G5
Note ON: Time 305760, Note Name: C5, Velocity: 49
Note ON: Time 305760, Note Name: G5, Velocity: 59
Note OFF: Time 305920, Note Name: G5
Note OFF: Time 305920, Note Name: C5
Note ON: Time 305920, Note Name: F5, Velocity: 56
Note OFF: Time 306000, Note Name: F5
Note ON: Time 306080, Note Name: A4, Velocity: 47
Note ON: Time 306080, Note Name: D#5, Velocity: 56
Note OFF: Time 306160, Note Name: D#5
Note OFF: Time 306160, Note Name: A4
Note ON: Time 306240, Note Name: A4, Velocity: 49
Note ON: Time 306240, Note Name: D#5, Velocity: 59
Note OFF: Time 306400, Note Name: D#5
Note OFF: Time 306400, Note Name: A4
Note ON: Time 306400, Note Name: A#4, Velocity: 47
Note ON: Time 306400, Note Name: D5, Velocity: 55
Note OFF: Time 306480, Note Name: D5
Note OFF: Time 306480, Note Name: A#4
Note ON: Time 306560, Note Name: G4, Velocity: 56
Note ON: Time 306560, Note Name: C4, Velocity: 47
Note OFF: Time 306640, Note Name: C4
Note OFF: Time 306640, Note Name: G4
Note ON: Time 306720, Note Name: C4, Velocity: 49
Note ON: Time 306720, Note Name: G4, Velocity: 59
Note OFF: Time 306880, Note Name: G4
Note OFF: Time 306880, Note Name: C4
Note ON: Time 306880, Note Name: F4, Velocity: 56
Note OFF: Time 306960, Note Name: F4
Note ON: Time 307040, Note Name: C4, Velocity: 52
Note ON: Time 307040, Note Name: A3, Velocity: 52
Note ON: Time 307040, Note Name: D#4, Velocity: 62
Note OFF: Time 307120, Note Name: D#4
Note OFF: Time 307120, Note Name: A3
Note OFF: Time 307120, Note Name: C4
Note ON: Time 307200, Note Name: C4, Velocity: 49
Note ON: Time 307200, Note Name: A3, Velocity: 49
Note ON: Time 307200, Note Name: D#4, Velocity: 59
Note OFF: Time 307360, Note Name: D#4
Note OFF: Time 307360, Note Name: A3
Note OFF: Time 307360, Note Name: C4
Note ON: Time 307360, Note Name: C#4, Velocity: 46
Note ON: Time 307360, Note Name: A3, Velocity: 44
Note ON: Time 307360, Note Name: E4, Velocity: 52
Note OFF: Time 307440, Note Name: E4
Note OFF: Time 307440, Note Name: A3
Note OFF: Time 307440, Note Name: C#4
Note ON: Time 307520, Note Name: A3, Velocity: 49
Note ON: Time 307520, Note Name: B3, Velocity: 49
Note ON: Time 307520, Note Name: D#4, Velocity: 47
Note ON: Time 307520, Note Name: A4, Velocity: 56
Note OFF: Time 307600, Note Name: A4
Note OFF: Time 307600, Note Name: A3
Note OFF: Time 307600, Note Name: B3
Note OFF: Time 307600, Note Name: D#4
Note ON: Time 307680, Note Name: A3, Velocity: 49
Note ON: Time 307680, Note Name: B3, Velocity: 49
Note ON: Time 307680, Note Name: D#4, Velocity: 49
Note ON: Time 307680, Note Name: A4, Velocity: 59
Note OFF: Time 307840, Note Name: A4
Note OFF: Time 307840, Note Name: A3
Note OFF: Time 307840, Note Name: B3
Note OFF: Time 307840, Note Name: D#4
Note ON: Time 307840, Note Name: G#3, Velocity: 46
Note ON: Time 307840, Note Name: E4, Velocity: 44
Note ON: Time 307840, Note Name: G#4, Velocity: 51
Note OFF: Time 307920, Note Name: G#4
Note OFF: Time 307920, Note Name: E4
Note OFF: Time 307920, Note Name: G#3
Note ON: Time 308000, Note Name: D4, Velocity: 47
Note ON: Time 308000, Note Name: E4, Velocity: 47
Note ON: Time 308000, Note Name: G#4, Velocity: 47
Note ON: Time 308000, Note Name: D5, Velocity: 56
Note OFF: Time 308080, Note Name: D5
Note OFF: Time 308080, Note Name: D4
Note OFF: Time 308080, Note Name: E4
Note OFF: Time 308080, Note Name: G#4
Note ON: Time 308160, Note Name: D4, Velocity: 49
Note ON: Time 308160, Note Name: E4, Velocity: 49
Note ON: Time 308160, Note Name: G#4, Velocity: 49
Note ON: Time 308160, Note Name: D5, Velocity: 59
Note OFF: Time 308320, Note Name: D5
Note OFF: Time 308320, Note Name: D4
Note OFF: Time 308320, Note Name: E4
Note OFF: Time 308320, Note Name: G#4
Note ON: Time 308320, Note Name: C#4, Velocity: 46
Note ON: Time 308320, Note Name: A4, Velocity: 44
Note ON: Time 308320, Note Name: C#5, Velocity: 52
Note OFF: Time 308400, Note Name: C#5
Note OFF: Time 308400, Note Name: A4
Note OFF: Time 308400, Note Name: C#4
Note ON: Time 308480, Note Name: A4, Velocity: 49
Note ON: Time 308480, Note Name: B4, Velocity: 49
Note ON: Time 308480, Note Name: D#5, Velocity: 47
Note ON: Time 308480, Note Name: A5, Velocity: 56
Note OFF: Time 308560, Note Name: A5
Note OFF: Time 308560, Note Name: A4
Note OFF: Time 308560, Note Name: B4
Note OFF: Time 308560, Note Name: D#5
Note ON: Time 308640, Note Name: A4, Velocity: 49
Note ON: Time 308640, Note Name: B4, Velocity: 49
Note ON: Time 308640, Note Name: D#5, Velocity: 49
Note ON: Time 308640, Note Name: A5, Velocity: 59
Note OFF: Time 308800, Note Name: A5
Note OFF: Time 308800, Note Name: A4
Note OFF: Time 308800, Note Name: B4
Note OFF: Time 308800, Note Name: D#5
Note ON: Time 308800, Note Name: G#4, Velocity: 46
Note ON: Time 308800, Note Name: E5, Velocity: 41
Note ON: Time 308800, Note Name: G#5, Velocity: 51
Note OFF: Time 308880, Note Name: G#5
Note OFF: Time 308880, Note Name: E5
Note OFF: Time 308880, Note Name: G#4
Note ON: Time 308960, Note Name: D5, Velocity: 49
Note ON: Time 308960, Note Name: E5, Velocity: 49
Note ON: Time 308960, Note Name: G#5, Velocity: 47
Note ON: Time 308960, Note Name: D6, Velocity: 55
Note OFF: Time 309040, Note Name: D6
Note OFF: Time 309040, Note Name: D5
Note OFF: Time 309040, Note Name: E5
Note OFF: Time 309040, Note Name: G#5
Note ON: Time 309120, Note Name: D5, Velocity: 49
Note ON: Time 309120, Note Name: E5, Velocity: 49
Note ON: Time 309120, Note Name: G#5, Velocity: 49
Note ON: Time 309120, Note Name: D6, Velocity: 59
Note OFF: Time 309280, Note Name: D6
Note OFF: Time 309280, Note Name: D5
Note OFF: Time 309280, Note Name: E5
Note OFF: Time 309280, Note Name: G#5
Note ON: Time 309280, Note Name: G4, Velocity: 45
Note ON: Time 309280, Note Name: B4, Velocity: 63
Note OFF: Time 309440, Note Name: B4
Note OFF: Time 309440, Note Name: G4
Note ON: Time 309440, Note Name: G#4, Velocity: 66
Note ON: Time 309440, Note Name: F5, Velocity: 80
Note OFF: Time 309600, Note Name: F5
Note OFF: Time 309600, Note Name: G#4
Note ON: Time 309600, Note Name: A#4, Velocity: 68
Note ON: Time 309600, Note Name: D5, Velocity: 74
Note OFF: Time 309760, Note Name: D5
Note OFF: Time 309760, Note Name: A#4
Note ON: Time 309760, Note Name: B4, Velocity: 71
Note ON: Time 309760, Note Name: G#5, Velocity: 84
Note OFF: Time 309920, Note Name: G#5
Note OFF: Time 309920, Note Name: B4
Note ON: Time 309920, Note Name: C#5, Velocity: 66
Note ON: Time 309920, Note Name: F5, Velocity: 79
Note OFF: Time 310080, Note Name: F5
Note OFF: Time 310080, Note Name: C#5
Note ON: Time 310080, Note Name: D5, Velocity: 74
Note ON: Time 310080, Note Name: B5, Velocity: 89
Note OFF: Time 310240, Note Name: B5
Note OFF: Time 310240, Note Name: D5
Note ON: Time 310240, Note Name: G#5, Velocity: 85
Note ON: Time 310240, Note Name: E5, Velocity: 72
Note OFF: Time 310400, Note Name: E5
Note OFF: Time 310400, Note Name: G#5
Note ON: Time 310400, Note Name: F5, Velocity: 78
Note ON: Time 310400, Note Name: D6, Velocity: 92
Note OFF: Time 310560, Note Name: D6
Note OFF: Time 310560, Note Name: F5
Note ON: Time 310560, Note Name: G5, Velocity: 73
Note ON: Time 310560, Note Name: B5, Velocity: 86
Note OFF: Time 310720, Note Name: B5
Note OFF: Time 310720, Note Name: G5
Note ON: Time 310720, Note Name: G#5, Velocity: 79
Note ON: Time 310720, Note Name: F6, Velocity: 94
Note OFF: Time 310880, Note Name: F6
Note OFF: Time 310880, Note Name: G#5
Note ON: Time 310880, Note Name: G#5, Velocity: 77
Note ON: Time 310880, Note Name: G#6, Velocity: 90
Note OFF: Time 311040, Note Name: G#6
Note OFF: Time 311040, Note Name: G#5
Note ON: Time 311040, Note Name: E6, Velocity: 85
Note ON: Time 311040, Note Name: A5, Velocity: 85
Note ON: Time 311040, Note Name: A6, Velocity: 101
Note OFF: Time 311200, Note Name: A6
Note OFF: Time 311200, Note Name: A5
Note OFF: Time 311200, Note Name: E6
Note ON: Time 311200, Note Name: A3, Velocity: 64
Note ON: Time 311200, Note Name: E4, Velocity: 64
Note ON: Time 311200, Note Name: A4, Velocity: 77
Note OFF: Time 311360, Note Name: A4
Note OFF: Time 311360, Note Name: E4
Note OFF: Time 311360, Note Name: A3
Note ON: Time 311360, Note Name: A3, Velocity: 64
Note ON: Time 311360, Note Name: E4, Velocity: 64
Note ON: Time 311360, Note Name: A4, Velocity: 77
Note OFF: Time 311520, Note Name: A4
Note OFF: Time 311520, Note Name: E4
Note OFF: Time 311520, Note Name: A3
Note ON: Time 311520, Note Name: A3, Velocity: 55
Note ON: Time 311520, Note Name: E4, Velocity: 55
Note ON: Time 311520, Note Name: A4, Velocity: 77
Note OFF: Time 311680, Note Name: A4
Note OFF: Time 311680, Note Name: E4
Note OFF: Time 311680, Note Name: A3
Note ON: Time 311680, Note Name: A3, Velocity: 63
Note ON: Time 311680, Note Name: E4, Velocity: 63
Note ON: Time 311680, Note Name: A4, Velocity: 75
Note OFF: Time 311840, Note Name: A4
Note OFF: Time 311840, Note Name: E4
Note OFF: Time 311840, Note Name: A3
Note ON: Time 311840, Note Name: A3, Velocity: 63
Note ON: Time 311840, Note Name: E4, Velocity: 63
Note ON: Time 311840, Note Name: A4, Velocity: 75
Note OFF: Time 312000, Note Name: A4
Note OFF: Time 312000, Note Name: E4
Note OFF: Time 312000, Note Name: A3
Note ON: Time 312000, Note Name: A3, Velocity: 57
Note ON: Time 312000, Note Name: F4, Velocity: 57
Note ON: Time 312000, Note Name: A4, Velocity: 80
Note OFF: Time 312160, Note Name: A4
Note OFF: Time 312160, Note Name: F4
Note OFF: Time 312160, Note Name: A3
Note ON: Time 312160, Note Name: A3, Velocity: 64
Note ON: Time 312160, Note Name: F4, Velocity: 64
Note ON: Time 312160, Note Name: A4, Velocity: 77
Note OFF: Time 312320, Note Name: A4
Note OFF: Time 312320, Note Name: F4
Note OFF: Time 312320, Note Name: A3
Note ON: Time 312320, Note Name: A3, Velocity: 64
Note ON: Time 312320, Note Name: F4, Velocity: 64
Note ON: Time 312320, Note Name: A4, Velocity: 77
Note OFF: Time 312480, Note Name: A4
Note OFF: Time 312480, Note Name: F4
Note OFF: Time 312480, Note Name: A3
Note ON: Time 312480, Note Name: A3, Velocity: 68
Note ON: Time 312480, Note Name: F4, Velocity: 68
Note ON: Time 312480, Note Name: A4, Velocity: 81
Note OFF: Time 312640, Note Name: A4
Note OFF: Time 312640, Note Name: F4
Note OFF: Time 312640, Note Name: A3
Note ON: Time 312640, Note Name: A3, Velocity: 67
Note ON: Time 312640, Note Name: F4, Velocity: 67
Note ON: Time 312640, Note Name: A4, Velocity: 79
Note OFF: Time 312800, Note Name: A4
Note OFF: Time 312800, Note Name: F4
Note OFF: Time 312800, Note Name: A3
Note ON: Time 312800, Note Name: A3, Velocity: 67
Note ON: Time 312800, Note Name: F4, Velocity: 67
Note ON: Time 312800, Note Name: A4, Velocity: 79
Note OFF: Time 312960, Note Name: A4
Note OFF: Time 312960, Note Name: F4
Note OFF: Time 312960, Note Name: A3
Note ON: Time 312960, Note Name: A3, Velocity: 67
Note ON: Time 312960, Note Name: F4, Velocity: 67
Note ON: Time 312960, Note Name: A4, Velocity: 80
Note OFF: Time 313040, Note Name: A4
Note OFF: Time 313040, Note Name: F4
Note OFF: Time 313040, Note Name: A3
Note ON: Time 313120, Note Name: A#3, Velocity: 68
Note ON: Time 313120, Note Name: F4, Velocity: 68
Note ON: Time 313120, Note Name: A#4, Velocity: 81
Note OFF: Time 313200, Note Name: A#4
Note OFF: Time 313200, Note Name: F4
Note OFF: Time 313200, Note Name: A#3
Note ON: Time 313280, Note Name: A#3, Velocity: 69
Note ON: Time 313280, Note Name: F4, Velocity: 69
Note ON: Time 313280, Note Name: A#4, Velocity: 82
Note OFF: Time 313360, Note Name: A#4
Note OFF: Time 313360, Note Name: F4
Note OFF: Time 313360, Note Name: A#3
Note ON: Time 313440, Note Name: A#3, Velocity: 71
Note ON: Time 313440, Note Name: F4, Velocity: 71
Note ON: Time 313440, Note Name: A#4, Velocity: 83
Note OFF: Time 313520, Note Name: A#4
Note OFF: Time 313520, Note Name: F4
Note OFF: Time 313520, Note Name: A#3
Note ON: Time 313600, Note Name: A#3, Velocity: 71
Note ON: Time 313600, Note Name: F#4, Velocity: 71
Note ON: Time 313600, Note Name: A#4, Velocity: 84
Note OFF: Time 313680, Note Name: A#4
Note OFF: Time 313680, Note Name: F#4
Note OFF: Time 313680, Note Name: A#3
Note ON: Time 313760, Note Name: A#3, Velocity: 71
Note ON: Time 313760, Note Name: F#4, Velocity: 71
Note ON: Time 313760, Note Name: A#4, Velocity: 85
Note OFF: Time 313840, Note Name: A#4
Note OFF: Time 313840, Note Name: F#4
Note OFF: Time 313840, Note Name: A#3
Note ON: Time 313920, Note Name: A#3, Velocity: 72
Note ON: Time 313920, Note Name: F#4, Velocity: 72
Note ON: Time 313920, Note Name: A#4, Velocity: 86
Note OFF: Time 314000, Note Name: A#4
Note OFF: Time 314000, Note Name: F#4
Note OFF: Time 314000, Note Name: A#3
Note ON: Time 314080, Note Name: A#3, Velocity: 73
Note ON: Time 314080, Note Name: F#4, Velocity: 73
Note ON: Time 314080, Note Name: A#4, Velocity: 88
Note OFF: Time 314160, Note Name: A#4
Note OFF: Time 314160, Note Name: F#4
Note OFF: Time 314160, Note Name: A#3
Note ON: Time 314240, Note Name: A#3, Velocity: 75
Note ON: Time 314240, Note Name: F#4, Velocity: 75
Note ON: Time 314240, Note Name: A#4, Velocity: 90
Note OFF: Time 314320, Note Name: A#4
Note OFF: Time 314320, Note Name: F#4
Note OFF: Time 314320, Note Name: A#3
Note ON: Time 314400, Note Name: A#3, Velocity: 77
Note ON: Time 314400, Note Name: F#4, Velocity: 77
Note ON: Time 314400, Note Name: A#4, Velocity: 91
Note OFF: Time 314480, Note Name: A#4
Note OFF: Time 314480, Note Name: F#4
Note OFF: Time 314480, Note Name: A#3
Note ON: Time 314560, Note Name: A#3, Velocity: 78
Note ON: Time 314560, Note Name: F4, Velocity: 78
Note ON: Time 314560, Note Name: A#4, Velocity: 92
Note OFF: Time 314640, Note Name: A#4
Note OFF: Time 314640, Note Name: F4
Note OFF: Time 314640, Note Name: A#3
Note ON: Time 314720, Note Name: A#3, Velocity: 79
Note ON: Time 314720, Note Name: E4, Velocity: 79
Note ON: Time 314720, Note Name: A#4, Velocity: 93
Note OFF: Time 314800, Note Name: A#4
Note OFF: Time 314800, Note Name: E4
Note OFF: Time 314800, Note Name: A#3
Note ON: Time 314880, Note Name: A#3, Velocity: 73
Note ON: Time 314880, Note Name: F4, Velocity: 86
Note ON: Time 314880, Note Name: A#4, Velocity: 102
Note OFF: Time 314960, Note Name: A#4
Note OFF: Time 314960, Note Name: F4
Note OFF: Time 314960, Note Name: A#3
Note ON: Time 315040, Note Name: D4, Velocity: 68
Note ON: Time 315040, Note Name: F4, Velocity: 80
Note ON: Time 315040, Note Name: D5, Velocity: 95
Note OFF: Time 315200, Note Name: D5
Note OFF: Time 315200, Note Name: F4
Note OFF: Time 315200, Note Name: D4
Note ON: Time 315200, Note Name: D4, Velocity: 68
Note ON: Time 315200, Note Name: F4, Velocity: 80
Note ON: Time 315200, Note Name: D5, Velocity: 95
Note OFF: Time 315360, Note Name: D5
Note OFF: Time 315360, Note Name: F4
Note OFF: Time 315360, Note Name: D4
Note ON: Time 315360, Note Name: D4, Velocity: 72
Note ON: Time 315360, Note Name: F4, Velocity: 85
Note ON: Time 315360, Note Name: D5, Velocity: 101
Note OFF: Time 315520, Note Name: D5
Note OFF: Time 315520, Note Name: F4
Note OFF: Time 315520, Note Name: D4
Note ON: Time 315520, Note Name: C4, Velocity: 68
Note ON: Time 315520, Note Name: C5, Velocity: 95
Note OFF: Time 315680, Note Name: C5
Note OFF: Time 315680, Note Name: C4
Note ON: Time 315680, Note Name: A#3, Velocity: 68
Note ON: Time 315680, Note Name: A#4, Velocity: 95
Note OFF: Time 315840, Note Name: A#4
Note OFF: Time 315840, Note Name: A#3
Note ON: Time 316000, Note Name: D4, Velocity: 68
Note ON: Time 316000, Note Name: F#4, Velocity: 80
Note ON: Time 316000, Note Name: D5, Velocity: 95
Note OFF: Time 316160, Note Name: D5
Note OFF: Time 316160, Note Name: F#4
Note OFF: Time 316160, Note Name: D4
Note ON: Time 316160, Note Name: D4, Velocity: 68
Note ON: Time 316160, Note Name: F#4, Velocity: 80
Note ON: Time 316160, Note Name: D5, Velocity: 95
Note OFF: Time 316320, Note Name: D5
Note OFF: Time 316320, Note Name: F#4
Note OFF: Time 316320, Note Name: D4
Note ON: Time 316320, Note Name: D4, Velocity: 72
Note ON: Time 316320, Note Name: F#4, Velocity: 85
Note ON: Time 316320, Note Name: D5, Velocity: 101
Note OFF: Time 316480, Note Name: D5
Note OFF: Time 316480, Note Name: F#4
Note OFF: Time 316480, Note Name: D4
Note ON: Time 316480, Note Name: C4, Velocity: 68
Note ON: Time 316480, Note Name: C5, Velocity: 95
Note OFF: Time 316640, Note Name: C5
Note OFF: Time 316640, Note Name: C4
Note ON: Time 316640, Note Name: A#3, Velocity: 68
Note ON: Time 316640, Note Name: A#4, Velocity: 95
Note OFF: Time 316800, Note Name: A#4
Note OFF: Time 316800, Note Name: A#3
Note ON: Time 316960, Note Name: D4, Velocity: 68
Note ON: Time 316960, Note Name: F4, Velocity: 80
Note ON: Time 316960, Note Name: D5, Velocity: 95
Note OFF: Time 317120, Note Name: D5
Note OFF: Time 317120, Note Name: F4
Note OFF: Time 317120, Note Name: D4
Note ON: Time 317120, Note Name: D4, Velocity: 68
Note ON: Time 317120, Note Name: F4, Velocity: 80
Note ON: Time 317120, Note Name: D5, Velocity: 95
Note OFF: Time 317280, Note Name: D5
Note OFF: Time 317280, Note Name: F4
Note OFF: Time 317280, Note Name: D4
Note ON: Time 317280, Note Name: D4, Velocity: 72
Note ON: Time 317280, Note Name: F4, Velocity: 85
Note ON: Time 317280, Note Name: D5, Velocity: 101
Note OFF: Time 317440, Note Name: D5
Note OFF: Time 317440, Note Name: F4
Note OFF: Time 317440, Note Name: D4
Note ON: Time 317440, Note Name: C4, Velocity: 68
Note ON: Time 317440, Note Name: C5, Velocity: 95
Note OFF: Time 317600, Note Name: C5
Note OFF: Time 317600, Note Name: C4
Note ON: Time 317600, Note Name: A#3, Velocity: 68
Note ON: Time 317600, Note Name: A#4, Velocity: 95
Note OFF: Time 317760, Note Name: A#4
Note OFF: Time 317760, Note Name: A#3
Note ON: Time 317920, Note Name: D#4, Velocity: 80
Note ON: Time 317920, Note Name: D5, Velocity: 95
Note OFF: Time 318080, Note Name: D5
Note OFF: Time 318080, Note Name: D#4
Note ON: Time 318080, Note Name: D#4, Velocity: 80
Note ON: Time 318080, Note Name: D5, Velocity: 95
Note OFF: Time 318240, Note Name: D5
Note OFF: Time 318240, Note Name: D#4
Note ON: Time 318240, Note Name: D#4, Velocity: 85
Note ON: Time 318240, Note Name: D5, Velocity: 101
Note OFF: Time 318400, Note Name: D5
Note ON: Time 318400, Note Name: C5, Velocity: 95
Note OFF: Time 318560, Note Name: C5
Note ON: Time 318560, Note Name: A#4, Velocity: 95
Note OFF: Time 318720, Note Name: A#4
Note OFF: Time 318720, Note Name: D#4
Note ON: Time 318720, Note Name: D4, Velocity: 84
Note ON: Time 318720, Note Name: F4, Velocity: 84
Note ON: Time 318720, Note Name: A#4, Velocity: 101
Note ON: Time 318720, Note Name: D5, Velocity: 101
Note OFF: Time 319680, Note Name: D5
Note OFF: Time 319680, Note Name: D4
Note OFF: Time 319680, Note Name: F4
Note OFF: Time 319680, Note Name: A#4
Note ON: Time 319680, Note Name: D4, Velocity: 71
Note ON: Time 319680, Note Name: F4, Velocity: 71
Note ON: Time 319680, Note Name: A#4, Velocity: 84
Note ON: Time 319680, Note Name: D5, Velocity: 84
Note OFF: Time 320160, Note Name: D5
Note OFF: Time 320160, Note Name: D4
Note OFF: Time 320160, Note Name: F4
Note OFF: Time 320160, Note Name: A#4
Note ON: Time 320160, Note Name: D4, Velocity: 69
Note ON: Time 320160, Note Name: F4, Velocity: 69
Note ON: Time 320160, Note Name: B4, Velocity: 83
Note ON: Time 320160, Note Name: D5, Velocity: 83
Note OFF: Time 320640, Note Name: D5
Note OFF: Time 320640, Note Name: D4
Note OFF: Time 320640, Note Name: F4
Note OFF: Time 320640, Note Name: B4
Note ON: Time 320640, Note Name: D4, Velocity: 69
Note ON: Time 320640, Note Name: F4, Velocity: 69
Note ON: Time 320640, Note Name: A#4, Velocity: 82
Note ON: Time 320640, Note Name: D5, Velocity: 82
Note OFF: Time 321120, Note Name: D5
Note OFF: Time 321120, Note Name: D4
Note OFF: Time 321120, Note Name: F4
Note OFF: Time 321120, Note Name: A#4
Note ON: Time 321120, Note Name: D4, Velocity: 68
Note ON: Time 321120, Note Name: F4, Velocity: 68
Note ON: Time 321120, Note Name: B4, Velocity: 82
Note ON: Time 321120, Note Name: D5, Velocity: 82
Note OFF: Time 321600, Note Name: D5
Note OFF: Time 321600, Note Name: D4
Note OFF: Time 321600, Note Name: F4
Note OFF: Time 321600, Note Name: B4
Note ON: Time 321600, Note Name: D#4, Velocity: 74
Note ON: Time 321600, Note Name: F#4, Velocity: 74
Note ON: Time 321600, Note Name: B4, Velocity: 88
Note ON: Time 321600, Note Name: D#5, Velocity: 88
Note OFF: Time 322080, Note Name: D#5
Note OFF: Time 322080, Note Name: D#4
Note OFF: Time 322080, Note Name: F#4
Note OFF: Time 322080, Note Name: B4
Note ON: Time 322080, Note Name: D#4, Velocity: 72
Note ON: Time 322080, Note Name: F#4, Velocity: 72
Note ON: Time 322080, Note Name: C5, Velocity: 88
Note ON: Time 322080, Note Name: D#5, Velocity: 88
Note OFF: Time 322560, Note Name: D#5
Note OFF: Time 322560, Note Name: D#4
Note OFF: Time 322560, Note Name: F#4
Note OFF: Time 322560, Note Name: C5
Note ON: Time 322560, Note Name: E4, Velocity: 74
Note ON: Time 322560, Note Name: G4, Velocity: 74
Note ON: Time 322560, Note Name: C5, Velocity: 88
Note ON: Time 322560, Note Name: E5, Velocity: 88
Note OFF: Time 323040, Note Name: E5
Note OFF: Time 323040, Note Name: E4
Note OFF: Time 323040, Note Name: G4
Note OFF: Time 323040, Note Name: C5
Note ON: Time 323040, Note Name: E4, Velocity: 73
Note ON: Time 323040, Note Name: G4, Velocity: 73
Note ON: Time 323040, Note Name: C#5, Velocity: 87
Note ON: Time 323040, Note Name: E5, Velocity: 87
Note OFF: Time 323520, Note Name: E5
Note OFF: Time 323520, Note Name: E4
Note OFF: Time 323520, Note Name: G4
Note OFF: Time 323520, Note Name: C#5
Note ON: Time 323520, Note Name: F4, Velocity: 76
Note ON: Time 323520, Note Name: G#4, Velocity: 76
Note ON: Time 323520, Note Name: C#5, Velocity: 93
Note ON: Time 323520, Note Name: F5, Velocity: 93
Note OFF: Time 324000, Note Name: F5
Note OFF: Time 324000, Note Name: F4
Note OFF: Time 324000, Note Name: G#4
Note OFF: Time 324000, Note Name: C#5
Note ON: Time 324000, Note Name: F4, Velocity: 76
Note ON: Time 324000, Note Name: A4, Velocity: 76
Note ON: Time 324000, Note Name: D#5, Velocity: 92
Note ON: Time 324000, Note Name: F5, Velocity: 92
Note OFF: Time 324480, Note Name: F5
Note OFF: Time 324480, Note Name: F4
Note OFF: Time 324480, Note Name: A4
Note OFF: Time 324480, Note Name: D#5
Note ON: Time 324480, Note Name: F4, Velocity: 78
Note ON: Time 324480, Note Name: A#4, Velocity: 93
Note ON: Time 324480, Note Name: F5, Velocity: 93
Note OFF: Time 324960, Note Name: F5
Note OFF: Time 324960, Note Name: A#4
Note OFF: Time 324960, Note Name: F4
Note ON: Time 324960, Note Name: F#4, Velocity: 79
Note ON: Time 324960, Note Name: A#4, Velocity: 94
Note ON: Time 324960, Note Name: F#5, Velocity: 94
Note OFF: Time 325440, Note Name: F#5
Note OFF: Time 325440, Note Name: A#4
Note OFF: Time 325440, Note Name: F#4
Note ON: Time 325440, Note Name: A#4, Velocity: 79
Note ON: Time 325440, Note Name: C5, Velocity: 79
Note ON: Time 325440, Note Name: D#5, Velocity: 95
Note ON: Time 325440, Note Name: A#5, Velocity: 95
Note OFF: Time 325920, Note Name: A#5
Note OFF: Time 325920, Note Name: A#4
Note OFF: Time 325920, Note Name: C5
Note OFF: Time 325920, Note Name: D#5
Note ON: Time 325920, Note Name: A4, Velocity: 77
Note ON: Time 325920, Note Name: C5, Velocity: 77
Note ON: Time 325920, Note Name: D#5, Velocity: 93
Note ON: Time 325920, Note Name: A5, Velocity: 93
Note OFF: Time 326400, Note Name: A5
Note OFF: Time 326400, Note Name: A4
Note OFF: Time 326400, Note Name: C5
Note OFF: Time 326400, Note Name: D#5
Note ON: Time 326400, Note Name: A#4, Velocity: 85
Note ON: Time 326400, Note Name: D5, Velocity: 102
Note ON: Time 326400, Note Name: A#5, Velocity: 102
Note OFF: Time 326880, Note Name: A#5
Note OFF: Time 326880, Note Name: D5
Note OFF: Time 326880, Note Name: A#4
Note ON: Time 326880, Note Name: A#4, Velocity: 84
Note ON: Time 326880, Note Name: D#5, Velocity: 84
Note ON: Time 326880, Note Name: F#5, Velocity: 101
Note ON: Time 326880, Note Name: A#5, Velocity: 101
Note OFF: Time 327360, Note Name: A#5
Note OFF: Time 327360, Note Name: A#4
Note OFF: Time 327360, Note Name: D#5
Note OFF: Time 327360, Note Name: F#5
Note ON: Time 327360, Note Name: A#4, Velocity: 85
Note ON: Time 327360, Note Name: D5, Velocity: 85
Note ON: Time 327360, Note Name: F5, Velocity: 101
Note ON: Time 327360, Note Name: A#5, Velocity: 101
Note OFF: Time 327840, Note Name: A#5
Note OFF: Time 327840, Note Name: A#4
Note OFF: Time 327840, Note Name: D5
Note OFF: Time 327840, Note Name: F5
Note ON: Time 327840, Note Name: A#4, Velocity: 85
Note ON: Time 327840, Note Name: D#5, Velocity: 85
Note ON: Time 327840, Note Name: F#5, Velocity: 101
Note ON: Time 327840, Note Name: A#5, Velocity: 101
Note OFF: Time 328320, Note Name: A#5
Note OFF: Time 328320, Note Name: A#4
Note OFF: Time 328320, Note Name: D#5
Note OFF: Time 328320, Note Name: F#5
Note ON: Time 328320, Note Name: A#4, Velocity: 91
Note ON: Time 328320, Note Name: D5, Velocity: 91
Note ON: Time 328320, Note Name: F5, Velocity: 108
Note ON: Time 328320, Note Name: A#5, Velocity: 108
Note OFF: Time 329280, Note Name: A#5
Note OFF: Time 329280, Note Name: A#4
Note OFF: Time 329280, Note Name: D5
Note OFF: Time 329280, Note Name: F5
Note ON: Time 329280, Note Name: A#5, Velocity: 100
Note ON: Time 329280, Note Name: A#6, Velocity: 117
Note OFF: Time 330240, Note Name: A#6
Note OFF: Time 330240, Note Name: A#5
Note ON: Time 330240, Note Name: D4, Velocity: 105
Note OFF: Time 331200, Note Name: D4
Track 2: Piano left
Note ON: Time 0, Note Name: C#2, Velocity: 76
Note ON: Time 0, Note Name: C#3, Velocity: 90
Note OFF: Time 1680, Note Name: C#3
Note OFF: Time 1680, Note Name: C#2
Note ON: Time 1680, Note Name: E1, Velocity: 76
Note ON: Time 1680, Note Name: E2, Velocity: 90
Note OFF: Time 1920, Note Name: E2
Note OFF: Time 1920, Note Name: E1
Note ON: Time 1920, Note Name: E1, Velocity: 76
Note ON: Time 1920, Note Name: E2, Velocity: 90
Note ON: Time 2880, Note Name: C#3, Velocity: 76
Note ON: Time 2880, Note Name: C#4, Velocity: 90
Note ON: Time 2880, Note Name: G#3, Velocity: 76
Note OFF: Time 3840, Note Name: G#3
Note OFF: Time 3840, Note Name: C#3
Note OFF: Time 3840, Note Name: E1
Note OFF: Time 3840, Note Name: E2
Note OFF: Time 3840, Note Name: C#4
Note ON: Time 3840, Note Name: C#3, Velocity: 72
Note OFF: Time 3960, Note Name: C#3
Note ON: Time 3960, Note Name: C#3, Velocity: 65
Note ON: Time 4080, Note Name: D#3, Velocity: 79
Note ON: Time 4200, Note Name: A3, Velocity: 81
Note ON: Time 4320, Note Name: F1, Velocity: 85
Note ON: Time 4320, Note Name: F2, Velocity: 85
Note ON: Time 4320, Note Name: C#4, Velocity: 85
Note OFF: Time 5760, Note Name: C#4
Note OFF: Time 5760, Note Name: C#3
Note ON: Time 5760, Note Name: C3, Velocity: 64
Note ON: Time 5760, Note Name: C4, Velocity: 64
Note OFF: Time 7680, Note Name: C4
Note OFF: Time 7680, Note Name: A3
Note OFF: Time 7680, Note Name: F2
Note OFF: Time 7680, Note Name: D#3
Note OFF: Time 7680, Note Name: C3
Note OFF: Time 7680, Note Name: F1
Note ON: Time 7680, Note Name: A#1, Velocity: 44
Note ON: Time 7680, Note Name: A#2, Velocity: 52
Note OFF: Time 7800, Note Name: A#2
Note OFF: Time 7800, Note Name: A#1
Note ON: Time 7800, Note Name: F3, Velocity: 29
Note OFF: Time 7920, Note Name: F3
Note ON: Time 7920, Note Name: C#3, Velocity: 22
Note ON: Time 7920, Note Name: C#4, Velocity: 26
Note ON: Time 7920, Note Name: A#3, Velocity: 22
Note OFF: Time 8040, Note Name: A#3
Note OFF: Time 8040, Note Name: C#4
Note OFF: Time 8040, Note Name: C#3
Note ON: Time 8040, Note Name: F2, Velocity: 33
Note OFF: Time 8160, Note Name: F2
Note ON: Time 8160, Note Name: A#1, Velocity: 25
Note ON: Time 8160, Note Name: A#2, Velocity: 29
Note OFF: Time 8280, Note Name: A#2
Note OFF: Time 8280, Note Name: A#1
Note ON: Time 8280, Note Name: F3, Velocity: 29
Note OFF: Time 8400, Note Name: F3
Note ON: Time 8400, Note Name: C#3, Velocity: 23
Note ON: Time 8400, Note Name: C#4, Velocity: 27
Note ON: Time 8400, Note Name: A#3, Velocity: 23
Note OFF: Time 8520, Note Name: A#3
Note OFF: Time 8520, Note Name: C#4
Note OFF: Time 8520, Note Name: C#3
Note ON: Time 8520, Note Name: F2, Velocity: 35
Note OFF: Time 8640, Note Name: F2
Note ON: Time 8640, Note Name: A#1, Velocity: 27
Note ON: Time 8640, Note Name: A#2, Velocity: 33
Note OFF: Time 8760, Note Name: A#2
Note OFF: Time 8760, Note Name: A#1
Note ON: Time 8760, Note Name: F3, Velocity: 30
Note OFF: Time 8880, Note Name: F3
Note ON: Time 8880, Note Name: C#3, Velocity: 24
Note ON: Time 8880, Note Name: C#4, Velocity: 29
Note ON: Time 8880, Note Name: A#3, Velocity: 24
Note OFF: Time 9000, Note Name: A#3
Note OFF: Time 9000, Note Name: C#4
Note OFF: Time 9000, Note Name: C#3
Note ON: Time 9000, Note Name: F2, Velocity: 35
Note OFF: Time 9120, Note Name: F2
Note ON: Time 9120, Note Name: A#1, Velocity: 28
Note ON: Time 9120, Note Name: A#2, Velocity: 34
Note OFF: Time 9240, Note Name: A#2
Note OFF: Time 9240, Note Name: A#1
Note ON: Time 9240, Note Name: F3, Velocity: 35
Note OFF: Time 9360, Note Name: F3
Note ON: Time 9360, Note Name: C#3, Velocity: 26
Note ON: Time 9360, Note Name: C#4, Velocity: 31
Note ON: Time 9360, Note Name: A#3, Velocity: 26
Note OFF: Time 9480, Note Name: A#3
Note OFF: Time 9480, Note Name: C#4
Note OFF: Time 9480, Note Name: C#3
Note ON: Time 9480, Note Name: F2, Velocity: 39
Note OFF: Time 9600, Note Name: F2
Note ON: Time 9600, Note Name: A#1, Velocity: 30
Note ON: Time 9600, Note Name: A#2, Velocity: 38
Note OFF: Time 9720, Note Name: A#2
Note OFF: Time 9720, Note Name: A#1
Note ON: Time 9720, Note Name: F3, Velocity: 35
Note OFF: Time 9840, Note Name: F3
Note ON: Time 9840, Note Name: C#3, Velocity: 28
Note ON: Time 9840, Note Name: C#4, Velocity: 34
Note ON: Time 9840, Note Name: A#3, Velocity: 28
Note OFF: Time 9960, Note Name: A#3
Note OFF: Time 9960, Note Name: C#4
Note OFF: Time 9960, Note Name: C#3
Note ON: Time 9960, Note Name: F2, Velocity: 39
Note OFF: Time 10080, Note Name: F2
Note ON: Time 10080, Note Name: A#1, Velocity: 29
Note ON: Time 10080, Note Name: A#2, Velocity: 35
Note OFF: Time 10200, Note Name: A#2
Note OFF: Time 10200, Note Name: A#1
Note ON: Time 10200, Note Name: F3, Velocity: 34
Note OFF: Time 10320, Note Name: F3
Note ON: Time 10320, Note Name: C#3, Velocity: 25
Note ON: Time 10320, Note Name: C#4, Velocity: 30
Note ON: Time 10320, Note Name: A#3, Velocity: 25
Note OFF: Time 10440, Note Name: A#3
Note OFF: Time 10440, Note Name: C#4
Note OFF: Time 10440, Note Name: C#3
Note ON: Time 10440, Note Name: F2, Velocity: 36
Note OFF: Time 10560, Note Name: F2
Note ON: Time 10560, Note Name: A#1, Velocity: 27
Note ON: Time 10560, Note Name: A#2, Velocity: 33
Note OFF: Time 10680, Note Name: A#2
Note OFF: Time 10680, Note Name: A#1
Note ON: Time 10680, Note Name: F3, Velocity: 30
Note OFF: Time 10800, Note Name: F3
Note ON: Time 10800, Note Name: C#3, Velocity: 24
Note ON: Time 10800, Note Name: C#4, Velocity: 29
Note ON: Time 10800, Note Name: A#3, Velocity: 24
Note OFF: Time 10920, Note Name: A#3
Note OFF: Time 10920, Note Name: C#4
Note OFF: Time 10920, Note Name: C#3
Note ON: Time 10920, Note Name: F2, Velocity: 35
Note OFF: Time 11040, Note Name: F2
Note ON: Time 11040, Note Name: A#1, Velocity: 25
Note ON: Time 11040, Note Name: A#2, Velocity: 29
Note OFF: Time 11160, Note Name: A#2
Note OFF: Time 11160, Note Name: A#1
Note ON: Time 11160, Note Name: F3, Velocity: 29
Note OFF: Time 11280, Note Name: F3
Note ON: Time 11280, Note Name: C#3, Velocity: 24
Note ON: Time 11280, Note Name: C#4, Velocity: 28
Note ON: Time 11280, Note Name: A#3, Velocity: 24
Note OFF: Time 11400, Note Name: A#3
Note OFF: Time 11400, Note Name: C#4
Note OFF: Time 11400, Note Name: C#3
Note ON: Time 11400, Note Name: F3, Velocity: 33
Note OFF: Time 11520, Note Name: F3
Note ON: Time 11520, Note Name: A#2, Velocity: 35
Note OFF: Time 11640, Note Name: A#2
Note ON: Time 11640, Note Name: F3, Velocity: 34
Note OFF: Time 11760, Note Name: F3
Note ON: Time 11760, Note Name: C#4, Velocity: 30
Note ON: Time 11760, Note Name: A#3, Velocity: 30
Note OFF: Time 11880, Note Name: A#3
Note OFF: Time 11880, Note Name: C#4
Note ON: Time 11880, Note Name: F3, Velocity: 31
Note OFF: Time 12000, Note Name: F3
Note ON: Time 12000, Note Name: A#2, Velocity: 35
Note OFF: Time 12120, Note Name: A#2
Note ON: Time 12120, Note Name: F3, Velocity: 33
Note OFF: Time 12240, Note Name: F3
Note ON: Time 12240, Note Name: C#4, Velocity: 31
Note ON: Time 12240, Note Name: A#3, Velocity: 31
Note OFF: Time 12360, Note Name: A#3
Note OFF: Time 12360, Note Name: C#4
Note ON: Time 12360, Note Name: F3, Velocity: 31
Note OFF: Time 12480, Note Name: F3
Note ON: Time 12480, Note Name: A#2, Velocity: 35
Note OFF: Time 12600, Note Name: A#2
Note ON: Time 12600, Note Name: F3, Velocity: 34
Note OFF: Time 12720, Note Name: F3
Note ON: Time 12720, Note Name: C#4, Velocity: 31
Note ON: Time 12720, Note Name: A#3, Velocity: 31
Note OFF: Time 12840, Note Name: A#3
Note OFF: Time 12840, Note Name: C#4
Note ON: Time 12840, Note Name: F3, Velocity: 31
Note OFF: Time 12960, Note Name: F3
Note ON: Time 12960, Note Name: A#2, Velocity: 35
Note OFF: Time 13080, Note Name: A#2
Note ON: Time 13080, Note Name: F3, Velocity: 33
Note OFF: Time 13200, Note Name: F3
Note ON: Time 13200, Note Name: C#4, Velocity: 31
Note ON: Time 13200, Note Name: A#3, Velocity: 31
Note OFF: Time 13320, Note Name: A#3
Note OFF: Time 13320, Note Name: C#4
Note ON: Time 13320, Note Name: F3, Velocity: 31
Note OFF: Time 13440, Note Name: F3
Note ON: Time 13440, Note Name: A#2, Velocity: 35
Note OFF: Time 13560, Note Name: A#2
Note ON: Time 13560, Note Name: F3, Velocity: 33
Note OFF: Time 13680, Note Name: F3
Note ON: Time 13680, Note Name: C#4, Velocity: 31
Note ON: Time 13680, Note Name: A#3, Velocity: 31
Note OFF: Time 13800, Note Name: A#3
Note OFF: Time 13800, Note Name: C#4
Note ON: Time 13800, Note Name: F3, Velocity: 33
Note OFF: Time 13920, Note Name: F3
Note ON: Time 13920, Note Name: A#2, Velocity: 37
Note OFF: Time 14040, Note Name: A#2
Note ON: Time 14040, Note Name: F3, Velocity: 35
Note OFF: Time 14160, Note Name: F3
Note ON: Time 14160, Note Name: C#4, Velocity: 34
Note ON: Time 14160, Note Name: A#3, Velocity: 34
Note OFF: Time 14280, Note Name: A#3
Note OFF: Time 14280, Note Name: C#4
Note ON: Time 14280, Note Name: F3, Velocity: 34
Note OFF: Time 14400, Note Name: F3
Note ON: Time 14400, Note Name: C3, Velocity: 35
Note OFF: Time 14520, Note Name: C3
Note ON: Time 14520, Note Name: F#3, Velocity: 34
Note OFF: Time 14640, Note Name: F#3
Note ON: Time 14640, Note Name: D#4, Velocity: 30
Note ON: Time 14640, Note Name: A3, Velocity: 30
Note OFF: Time 14760, Note Name: A3
Note OFF: Time 14760, Note Name: D#4
Note ON: Time 14760, Note Name: F#3, Velocity: 31
Note OFF: Time 14880, Note Name: F#3
Note ON: Time 14880, Note Name: C3, Velocity: 35
Note OFF: Time 15000, Note Name: C3
Note ON: Time 15000, Note Name: F#3, Velocity: 33
Note OFF: Time 15120, Note Name: F#3
Note ON: Time 15120, Note Name: D#4, Velocity: 31
Note ON: Time 15120, Note Name: A3, Velocity: 31
Note OFF: Time 15240, Note Name: A3
Note OFF: Time 15240, Note Name: D#4
Note ON: Time 15240, Note Name: F#3, Velocity: 31
Note OFF: Time 15360, Note Name: F#3
Note ON: Time 15360, Note Name: C3, Velocity: 35
Note OFF: Time 15480, Note Name: C3
Note ON: Time 15480, Note Name: D#3, Velocity: 34
Note OFF: Time 15600, Note Name: D#3
Note ON: Time 15600, Note Name: D#4, Velocity: 30
Note ON: Time 15600, Note Name: A3, Velocity: 30
Note OFF: Time 15720, Note Name: A3
Note OFF: Time 15720, Note Name: D#4
Note ON: Time 15720, Note Name: D#3, Velocity: 31
Note OFF: Time 15840, Note Name: D#3
Note ON: Time 15840, Note Name: C3, Velocity: 35
Note OFF: Time 15960, Note Name: C3
Note ON: Time 15960, Note Name: F#3, Velocity: 33
Note OFF: Time 16080, Note Name: F#3
Note ON: Time 16080, Note Name: D#4, Velocity: 31
Note ON: Time 16080, Note Name: A3, Velocity: 31
Note OFF: Time 16200, Note Name: A3
Note OFF: Time 16200, Note Name: D#4
Note ON: Time 16200, Note Name: F#3, Velocity: 31
Note OFF: Time 16320, Note Name: F#3
Note ON: Time 16320, Note Name: C3, Velocity: 35
Note OFF: Time 16440, Note Name: C3
Note ON: Time 16440, Note Name: D#3, Velocity: 34
Note OFF: Time 16560, Note Name: D#3
Note ON: Time 16560, Note Name: D#4, Velocity: 30
Note ON: Time 16560, Note Name: A3, Velocity: 30
Note OFF: Time 16680, Note Name: A3
Note OFF: Time 16680, Note Name: D#4
Note ON: Time 16680, Note Name: D#3, Velocity: 31
Note OFF: Time 16800, Note Name: D#3
Note ON: Time 16800, Note Name: C3, Velocity: 35
Note OFF: Time 16920, Note Name: C3
Note ON: Time 16920, Note Name: F#3, Velocity: 33
Note OFF: Time 17040, Note Name: F#3
Note ON: Time 17040, Note Name: D#4, Velocity: 31
Note ON: Time 17040, Note Name: A3, Velocity: 31
Note OFF: Time 17160, Note Name: A3
Note OFF: Time 17160, Note Name: D#4
Note ON: Time 17160, Note Name: F#3, Velocity: 31
Note OFF: Time 17280, Note Name: F#3
Note ON: Time 17280, Note Name: C3, Velocity: 35
Note OFF: Time 17400, Note Name: C3
Note ON: Time 17400, Note Name: D#3, Velocity: 35
Note OFF: Time 17520, Note Name: D#3
Note ON: Time 17520, Note Name: D#4, Velocity: 34
Note ON: Time 17520, Note Name: A3, Velocity: 34
Note OFF: Time 17640, Note Name: A3
Note OFF: Time 17640, Note Name: D#4
Note ON: Time 17640, Note Name: D#3, Velocity: 35
Note OFF: Time 17760, Note Name: D#3
Note ON: Time 17760, Note Name: C3, Velocity: 39
Note OFF: Time 17880, Note Name: C3
Note ON: Time 17880, Note Name: F#3, Velocity: 37
Note OFF: Time 18000, Note Name: F#3
Note ON: Time 18000, Note Name: D#4, Velocity: 37
Note ON: Time 18000, Note Name: A3, Velocity: 37
Note OFF: Time 18120, Note Name: A3
Note OFF: Time 18120, Note Name: D#4
Note ON: Time 18120, Note Name: F#3, Velocity: 38
Note OFF: Time 18240, Note Name: F#3
Note ON: Time 18240, Note Name: C#3, Velocity: 35
Note OFF: Time 18360, Note Name: C#3
Note ON: Time 18360, Note Name: F3, Velocity: 34
Note OFF: Time 18480, Note Name: F3
Note ON: Time 18480, Note Name: F4, Velocity: 30
Note ON: Time 18480, Note Name: A3, Velocity: 30
Note OFF: Time 18600, Note Name: A3
Note OFF: Time 18600, Note Name: F4
Note ON: Time 18600, Note Name: F3, Velocity: 31
Note OFF: Time 18720, Note Name: F3
Note ON: Time 18720, Note Name: C#3, Velocity: 35
Note OFF: Time 18840, Note Name: C#3
Note ON: Time 18840, Note Name: F3, Velocity: 33
Note OFF: Time 18960, Note Name: F3
Note ON: Time 18960, Note Name: F4, Velocity: 31
Note ON: Time 18960, Note Name: A#3, Velocity: 31
Note OFF: Time 19080, Note Name: A#3
Note OFF: Time 19080, Note Name: F4
Note ON: Time 19080, Note Name: F3, Velocity: 31
Note OFF: Time 19200, Note Name: F3
Note ON: Time 19200, Note Name: E3, Velocity: 56
Note OFF: Time 19320, Note Name: E3
Note ON: Time 19320, Note Name: C#4, Velocity: 53
Note OFF: Time 19440, Note Name: C#4
Note ON: Time 19440, Note Name: G4, Velocity: 50
Note OFF: Time 19560, Note Name: G4
Note ON: Time 19560, Note Name: E3, Velocity: 51
Note OFF: Time 19680, Note Name: E3
Note ON: Time 19680, Note Name: F3, Velocity: 56
Note OFF: Time 19800, Note Name: F3
Note ON: Time 19800, Note Name: C4, Velocity: 52
Note OFF: Time 19920, Note Name: C4
Note ON: Time 19920, Note Name: A4, Velocity: 58
Note OFF: Time 20040, Note Name: A4
Note ON: Time 20040, Note Name: F3, Velocity: 51
Note OFF: Time 20160, Note Name: F3
Note ON: Time 20160, Note Name: A2, Velocity: 33
Note OFF: Time 20280, Note Name: A2
Note ON: Time 20280, Note Name: F#3, Velocity: 30
Note OFF: Time 20400, Note Name: F#3
Note ON: Time 20400, Note Name: D#4, Velocity: 29
Note OFF: Time 20520, Note Name: D#4
Note ON: Time 20520, Note Name: A2, Velocity: 29
Note OFF: Time 20640, Note Name: A2
Note ON: Time 20640, Note Name: A#2, Velocity: 33
Note OFF: Time 20760, Note Name: A#2
Note ON: Time 20760, Note Name: F3, Velocity: 30
Note OFF: Time 20880, Note Name: F3
Note ON: Time 20880, Note Name: C#4, Velocity: 29
Note OFF: Time 21000, Note Name: C#4
Note ON: Time 21000, Note Name: A#2, Velocity: 29
Note OFF: Time 21120, Note Name: A#2
Note ON: Time 21120, Note Name: E3, Velocity: 56
Note OFF: Time 21240, Note Name: E3
Note ON: Time 21240, Note Name: C#4, Velocity: 53
Note OFF: Time 21360, Note Name: C#4
Note ON: Time 21360, Note Name: G4, Velocity: 50
Note OFF: Time 21480, Note Name: G4
Note ON: Time 21480, Note Name: E3, Velocity: 51
Note OFF: Time 21600, Note Name: E3
Note ON: Time 21600, Note Name: F3, Velocity: 56
Note OFF: Time 21720, Note Name: F3
Note ON: Time 21720, Note Name: C4, Velocity: 52
Note OFF: Time 21840, Note Name: C4
Note ON: Time 21840, Note Name: A4, Velocity: 58
Note OFF: Time 21960, Note Name: A4
Note ON: Time 21960, Note Name: F3, Velocity: 51
Note OFF: Time 22080, Note Name: F3
Note ON: Time 22080, Note Name: A2, Velocity: 33
Note OFF: Time 22200, Note Name: A2
Note ON: Time 22200, Note Name: F#3, Velocity: 30
Note OFF: Time 22320, Note Name: F#3
Note ON: Time 22320, Note Name: D#4, Velocity: 29
Note OFF: Time 22440, Note Name: D#4
Note ON: Time 22440, Note Name: A2, Velocity: 29
Note OFF: Time 22560, Note Name: A2
Note ON: Time 22560, Note Name: A#2, Velocity: 33
Note OFF: Time 22680, Note Name: A#2
Note ON: Time 22680, Note Name: F3, Velocity: 30
Note OFF: Time 22800, Note Name: F3
Note ON: Time 22800, Note Name: C#4, Velocity: 29
Note OFF: Time 22920, Note Name: C#4
Note ON: Time 22920, Note Name: A#2, Velocity: 29
Note OFF: Time 23040, Note Name: A#2
Note ON: Time 23040, Note Name: G2, Velocity: 56
Note OFF: Time 23160, Note Name: G2
Note ON: Time 23160, Note Name: C3, Velocity: 53
Note OFF: Time 23280, Note Name: C3
Note ON: Time 23280, Note Name: C#3, Velocity: 50
Note OFF: Time 23400, Note Name: C#3
Note ON: Time 23400, Note Name: A#3, Velocity: 49
Note OFF: Time 23520, Note Name: A#3
Note ON: Time 23520, Note Name: G2, Velocity: 52
Note OFF: Time 23640, Note Name: G2
Note ON: Time 23640, Note Name: C3, Velocity: 49
Note OFF: Time 23760, Note Name: C3
Note ON: Time 23760, Note Name: C#3, Velocity: 49
Note OFF: Time 23880, Note Name: C#3
Note ON: Time 23880, Note Name: A#3, Velocity: 49
Note OFF: Time 24000, Note Name: A#3
Note ON: Time 24000, Note Name: G2, Velocity: 47
Note OFF: Time 24120, Note Name: G2
Note ON: Time 24120, Note Name: C3, Velocity: 45
Note OFF: Time 24240, Note Name: C3
Note ON: Time 24240, Note Name: C#3, Velocity: 42
Note OFF: Time 24360, Note Name: C#3
Note ON: Time 24360, Note Name: A#3, Velocity: 44
Note OFF: Time 24480, Note Name: A#3
Note ON: Time 24480, Note Name: A2, Velocity: 49
Note OFF: Time 24600, Note Name: A2
Note ON: Time 24600, Note Name: D3, Velocity: 44
Note OFF: Time 24720, Note Name: D3
Note ON: Time 24720, Note Name: D#3, Velocity: 46
Note OFF: Time 24840, Note Name: D#3
Note ON: Time 24840, Note Name: C4, Velocity: 44
Note OFF: Time 24960, Note Name: C4
Note ON: Time 24960, Note Name: B2, Velocity: 47
Note OFF: Time 25080, Note Name: B2
Note ON: Time 25080, Note Name: E3, Velocity: 45
Note OFF: Time 25200, Note Name: E3
Note ON: Time 25200, Note Name: F3, Velocity: 42
Note OFF: Time 25320, Note Name: F3
Note ON: Time 25320, Note Name: D4, Velocity: 44
Note OFF: Time 25440, Note Name: D4
Note ON: Time 25440, Note Name: C3, Velocity: 49
Note OFF: Time 25560, Note Name: C3
Note ON: Time 25560, Note Name: F#3, Velocity: 39
Note OFF: Time 25680, Note Name: F#3
Note ON: Time 25680, Note Name: G3, Velocity: 40
Note OFF: Time 25800, Note Name: G3
Note ON: Time 25800, Note Name: D#4, Velocity: 39
Note OFF: Time 25920, Note Name: D#4
Note ON: Time 25920, Note Name: A#2, Velocity: 52
Note OFF: Time 26040, Note Name: A#2
Note ON: Time 26040, Note Name: F3, Velocity: 45
Note OFF: Time 26160, Note Name: F3
Note ON: Time 26160, Note Name: F#3, Velocity: 41
Note OFF: Time 26280, Note Name: F#3
Note ON: Time 26280, Note Name: D#4, Velocity: 42
Note OFF: Time 26400, Note Name: D#4
Note ON: Time 26400, Note Name: A2, Velocity: 52
Note OFF: Time 26520, Note Name: A2
Note ON: Time 26520, Note Name: E3, Velocity: 41
Note OFF: Time 26640, Note Name: E3
Note ON: Time 26640, Note Name: F3, Velocity: 42
Note OFF: Time 26760, Note Name: F3
Note ON: Time 26760, Note Name: D#4, Velocity: 41
Note OFF: Time 26880, Note Name: D#4
Note ON: Time 26880, Note Name: A#2, Velocity: 51
Note OFF: Time 27000, Note Name: A#2
Note ON: Time 27000, Note Name: F3, Velocity: 44
Note OFF: Time 27120, Note Name: F3
Note ON: Time 27120, Note Name: A#3, Velocity: 47
Note OFF: Time 27240, Note Name: A#3
Note ON: Time 27240, Note Name: F2, Velocity: 48
Note OFF: Time 27360, Note Name: F2
Note ON: Time 27360, Note Name: A#2, Velocity: 51
Note OFF: Time 27480, Note Name: A#2
Note ON: Time 27480, Note Name: F3, Velocity: 43
Note OFF: Time 27600, Note Name: F3
Note ON: Time 27600, Note Name: A#3, Velocity: 48
Note OFF: Time 27720, Note Name: A#3
Note ON: Time 27720, Note Name: F2, Velocity: 48
Note OFF: Time 27840, Note Name: F2
Note ON: Time 27840, Note Name: A#2, Velocity: 51
Note OFF: Time 27960, Note Name: A#2
Note ON: Time 27960, Note Name: F3, Velocity: 44
Note OFF: Time 28080, Note Name: F3
Note ON: Time 28080, Note Name: A#3, Velocity: 48
Note OFF: Time 28200, Note Name: A#3
Note ON: Time 28200, Note Name: F2, Velocity: 48
Note OFF: Time 28320, Note Name: F2
Note ON: Time 28320, Note Name: A#2, Velocity: 51
Note OFF: Time 28440, Note Name: A#2
Note ON: Time 28440, Note Name: F3, Velocity: 43
Note OFF: Time 28560, Note Name: F3
Note ON: Time 28560, Note Name: A#3, Velocity: 48
Note OFF: Time 28680, Note Name: A#3
Note ON: Time 28680, Note Name: F2, Velocity: 48
Note OFF: Time 28800, Note Name: F2
Note ON: Time 28800, Note Name: A#2, Velocity: 51
Note OFF: Time 28920, Note Name: A#2
Note ON: Time 28920, Note Name: F3, Velocity: 49
Note OFF: Time 29040, Note Name: F3
Note ON: Time 29040, Note Name: A#3, Velocity: 48
Note OFF: Time 29160, Note Name: A#3
Note ON: Time 29160, Note Name: F2, Velocity: 49
Note OFF: Time 29280, Note Name: F2
Note ON: Time 29280, Note Name: A#2, Velocity: 54
Note OFF: Time 29400, Note Name: A#2
Note ON: Time 29400, Note Name: F3, Velocity: 51
Note OFF: Time 29520, Note Name: F3
Note ON: Time 29520, Note Name: C#4, Velocity: 50
Note OFF: Time 29640, Note Name: C#4
Note ON: Time 29640, Note Name: C#3, Velocity: 50
Note OFF: Time 29760, Note Name: C#3
Note ON: Time 29760, Note Name: C3, Velocity: 51
Note OFF: Time 29880, Note Name: C3
Note ON: Time 29880, Note Name: F#3, Velocity: 44
Note OFF: Time 30000, Note Name: F#3
Note ON: Time 30000, Note Name: D#4, Velocity: 47
Note OFF: Time 30120, Note Name: D#4
Note ON: Time 30120, Note Name: C3, Velocity: 48
Note OFF: Time 30240, Note Name: C3
Note ON: Time 30240, Note Name: F#3, Velocity: 51
Note OFF: Time 30360, Note Name: F#3
Note ON: Time 30360, Note Name: A3, Velocity: 43
Note OFF: Time 30480, Note Name: A3
Note ON: Time 30480, Note Name: D#4, Velocity: 48
Note OFF: Time 30600, Note Name: D#4
Note ON: Time 30600, Note Name: C3, Velocity: 48
Note OFF: Time 30720, Note Name: C3
Note ON: Time 30720, Note Name: D#3, Velocity: 51
Note OFF: Time 30840, Note Name: D#3
Note ON: Time 30840, Note Name: A3, Velocity: 44
Note OFF: Time 30960, Note Name: A3
Note ON: Time 30960, Note Name: D#4, Velocity: 47
Note OFF: Time 31080, Note Name: D#4
Note ON: Time 31080, Note Name: C3, Velocity: 48
Note OFF: Time 31200, Note Name: C3
Note ON: Time 31200, Note Name: F#3, Velocity: 51
Note OFF: Time 31320, Note Name: F#3
Note ON: Time 31320, Note Name: A3, Velocity: 43
Note OFF: Time 31440, Note Name: A3
Note ON: Time 31440, Note Name: D#4, Velocity: 48
Note OFF: Time 31560, Note Name: D#4
Note ON: Time 31560, Note Name: C3, Velocity: 48
Note OFF: Time 31680, Note Name: C3
Note ON: Time 31680, Note Name: D#3, Velocity: 51
Note OFF: Time 31800, Note Name: D#3
Note ON: Time 31800, Note Name: A3, Velocity: 44
Note OFF: Time 31920, Note Name: A3
Note ON: Time 31920, Note Name: D#4, Velocity: 47
Note OFF: Time 32040, Note Name: D#4
Note ON: Time 32040, Note Name: C3, Velocity: 48
Note OFF: Time 32160, Note Name: C3
Note ON: Time 32160, Note Name: F#3, Velocity: 51
Note OFF: Time 32280, Note Name: F#3
Note ON: Time 32280, Note Name: A3, Velocity: 43
Note OFF: Time 32400, Note Name: A3
Note ON: Time 32400, Note Name: D#4, Velocity: 48
Note OFF: Time 32520, Note Name: D#4
Note ON: Time 32520, Note Name: C3, Velocity: 48
Note OFF: Time 32640, Note Name: C3
Note ON: Time 32640, Note Name: D#3, Velocity: 52
Note OFF: Time 32760, Note Name: D#3
Note ON: Time 32760, Note Name: A3, Velocity: 46
Note OFF: Time 32880, Note Name: A3
Note ON: Time 32880, Note Name: D#4, Velocity: 50
Note OFF: Time 33000, Note Name: D#4
Note ON: Time 33000, Note Name: C3, Velocity: 51
Note OFF: Time 33120, Note Name: C3
Note ON: Time 33120, Note Name: F#3, Velocity: 57
Note OFF: Time 33240, Note Name: F#3
Note ON: Time 33240, Note Name: A3, Velocity: 54
Note OFF: Time 33360, Note Name: A3
Note ON: Time 33360, Note Name: D#4, Velocity: 54
Note OFF: Time 33480, Note Name: D#4
Note ON: Time 33480, Note Name: C3, Velocity: 55
Note OFF: Time 33600, Note Name: C3
Note ON: Time 33600, Note Name: C#3, Velocity: 51
Note OFF: Time 33720, Note Name: C#3
Note ON: Time 33720, Note Name: A3, Velocity: 50
Note OFF: Time 33840, Note Name: A3
Note ON: Time 33840, Note Name: F4, Velocity: 47
Note OFF: Time 33960, Note Name: F4
Note ON: Time 33960, Note Name: F3, Velocity: 48
Note OFF: Time 34080, Note Name: F3
Note ON: Time 34080, Note Name: A#3, Velocity: 51
Note OFF: Time 34200, Note Name: A#3
Note ON: Time 34200, Note Name: C#4, Velocity: 49
Note OFF: Time 34320, Note Name: C#4
Note ON: Time 34320, Note Name: F4, Velocity: 48
Note OFF: Time 34440, Note Name: F4
Note ON: Time 34440, Note Name: C#3, Velocity: 48
Note OFF: Time 34560, Note Name: C#3
Note ON: Time 34560, Note Name: E3, Velocity: 61
Note OFF: Time 34680, Note Name: E3
Note ON: Time 34680, Note Name: C#4, Velocity: 59
Note OFF: Time 34800, Note Name: C#4
Note ON: Time 34800, Note Name: G4, Velocity: 55
Note OFF: Time 34920, Note Name: G4
Note ON: Time 34920, Note Name: E3, Velocity: 57
Note OFF: Time 35040, Note Name: E3
Note ON: Time 35040, Note Name: F3, Velocity: 61
Note OFF: Time 35160, Note Name: F3
Note ON: Time 35160, Note Name: C4, Velocity: 58
Note OFF: Time 35280, Note Name: C4
Note ON: Time 35280, Note Name: A4, Velocity: 57
Note OFF: Time 35400, Note Name: A4
Note ON: Time 35400, Note Name: F3, Velocity: 57
Note OFF: Time 35520, Note Name: F3
Note ON: Time 35520, Note Name: A2, Velocity: 48
Note OFF: Time 35640, Note Name: A2
Note ON: Time 35640, Note Name: F#3, Velocity: 44
Note OFF: Time 35760, Note Name: F#3
Note ON: Time 35760, Note Name: D#4, Velocity: 44
Note OFF: Time 35880, Note Name: D#4
Note ON: Time 35880, Note Name: A2, Velocity: 44
Note OFF: Time 36000, Note Name: A2
Note ON: Time 36000, Note Name: A#2, Velocity: 48
Note OFF: Time 36120, Note Name: A#2
Note ON: Time 36120, Note Name: F3, Velocity: 44
Note OFF: Time 36240, Note Name: F3
Note ON: Time 36240, Note Name: C#4, Velocity: 44
Note OFF: Time 36360, Note Name: C#4
Note ON: Time 36360, Note Name: A#2, Velocity: 44
Note OFF: Time 36480, Note Name: A#2
Note ON: Time 36480, Note Name: E3, Velocity: 61
Note OFF: Time 36600, Note Name: E3
Note ON: Time 36600, Note Name: C#4, Velocity: 59
Note OFF: Time 36720, Note Name: C#4
Note ON: Time 36720, Note Name: G4, Velocity: 55
Note OFF: Time 36840, Note Name: G4
Note ON: Time 36840, Note Name: E3, Velocity: 57
Note OFF: Time 36960, Note Name: E3
Note ON: Time 36960, Note Name: F3, Velocity: 61
Note OFF: Time 37080, Note Name: F3
Note ON: Time 37080, Note Name: C4, Velocity: 58
Note OFF: Time 37200, Note Name: C4
Note ON: Time 37200, Note Name: A4, Velocity: 57
Note OFF: Time 37320, Note Name: A4
Note ON: Time 37320, Note Name: F3, Velocity: 57
Note OFF: Time 37440, Note Name: F3
Note ON: Time 37440, Note Name: D3, Velocity: 61
Note OFF: Time 37560, Note Name: D3
Note ON: Time 37560, Note Name: B3, Velocity: 58
Note OFF: Time 37680, Note Name: B3
Note ON: Time 37680, Note Name: F4, Velocity: 55
Note OFF: Time 37800, Note Name: F4
Note ON: Time 37800, Note Name: D3, Velocity: 55
Note OFF: Time 37920, Note Name: D3
Note ON: Time 37920, Note Name: D#3, Velocity: 61
Note OFF: Time 38040, Note Name: D#3
Note ON: Time 38040, Note Name: A#3, Velocity: 57
Note OFF: Time 38160, Note Name: A#3
Note ON: Time 38160, Note Name: F#4, Velocity: 55
Note OFF: Time 38280, Note Name: F#4
Note ON: Time 38280, Note Name: D#3, Velocity: 55
Note OFF: Time 38400, Note Name: D#3
Note ON: Time 38400, Note Name: D#2, Velocity: 69
Note OFF: Time 38520, Note Name: D#2
Note ON: Time 38520, Note Name: A#2, Velocity: 59
Note OFF: Time 38640, Note Name: A#2
Note ON: Time 38640, Note Name: A#3, Velocity: 71
Note OFF: Time 38760, Note Name: A#3
Note ON: Time 38760, Note Name: A#2, Velocity: 59
Note OFF: Time 38880, Note Name: A#2
Note ON: Time 38880, Note Name: F2, Velocity: 69
Note OFF: Time 39000, Note Name: F2
Note ON: Time 39000, Note Name: A#2, Velocity: 59
Note OFF: Time 39120, Note Name: A#2
Note ON: Time 39120, Note Name: A#3, Velocity: 69
Note OFF: Time 39240, Note Name: A#3
Note ON: Time 39240, Note Name: A#2, Velocity: 59
Note OFF: Time 39360, Note Name: A#2
Note ON: Time 39360, Note Name: F#2, Velocity: 69
Note OFF: Time 39480, Note Name: F#2
Note ON: Time 39480, Note Name: A#2, Velocity: 59
Note OFF: Time 39600, Note Name: A#2
Note ON: Time 39600, Note Name: A#3, Velocity: 68
Note OFF: Time 39720, Note Name: A#3
Note ON: Time 39720, Note Name: A#2, Velocity: 59
Note OFF: Time 39840, Note Name: A#2
Note ON: Time 39840, Note Name: G2, Velocity: 68
Note OFF: Time 39960, Note Name: G2
Note ON: Time 39960, Note Name: D#3, Velocity: 59
Note OFF: Time 40080, Note Name: D#3
Note ON: Time 40080, Note Name: D#4, Velocity: 68
Note OFF: Time 40200, Note Name: D#4
Note ON: Time 40200, Note Name: D#3, Velocity: 59
Note OFF: Time 40320, Note Name: D#3
Note ON: Time 40320, Note Name: G#2, Velocity: 52
Note ON: Time 40320, Note Name: D#3, Velocity: 57
Note ON: Time 40320, Note Name: A#3, Velocity: 68
Note OFF: Time 40440, Note Name: A#3
Note OFF: Time 40440, Note Name: D#3
Note OFF: Time 40440, Note Name: G#2
Note ON: Time 40560, Note Name: G#2, Velocity: 39
Note ON: Time 40560, Note Name: D#3, Velocity: 46
Note ON: Time 40560, Note Name: G#3, Velocity: 56
Note OFF: Time 40680, Note Name: G#3
Note OFF: Time 40680, Note Name: D#3
Note OFF: Time 40680, Note Name: G#2
Note ON: Time 41040, Note Name: A#1, Velocity: 38
Note ON: Time 41040, Note Name: A#2, Velocity: 46
Note OFF: Time 41280, Note Name: A#2
Note OFF: Time 41280, Note Name: A#1
Note ON: Time 41280, Note Name: B1, Velocity: 41
Note ON: Time 41280, Note Name: B2, Velocity: 49
Note OFF: Time 41760, Note Name: B2
Note OFF: Time 41760, Note Name: B1
Note ON: Time 41760, Note Name: C2, Velocity: 39
Note ON: Time 41760, Note Name: C3, Velocity: 46
Note OFF: Time 42120, Note Name: C3
Note OFF: Time 42120, Note Name: C2
Note ON: Time 42240, Note Name: C#2, Velocity: 31
Note ON: Time 42240, Note Name: C#3, Velocity: 37
Note OFF: Time 43200, Note Name: C#2
Note OFF: Time 43680, Note Name: C#3
Note ON: Time 43680, Note Name: F#2, Velocity: 39
Note OFF: Time 44160, Note Name: F#2
Note ON: Time 44160, Note Name: G#2, Velocity: 36
Note OFF: Time 45360, Note Name: G#2
Note ON: Time 45360, Note Name: A2, Velocity: 37
Note OFF: Time 45600, Note Name: A2
Note ON: Time 45600, Note Name: A#2, Velocity: 39
Note OFF: Time 45840, Note Name: A#2
Note ON: Time 45840, Note Name: G#2, Velocity: 37
Note OFF: Time 46080, Note Name: G#2
Note ON: Time 46080, Note Name: C#2, Velocity: 33
Note OFF: Time 47040, Note Name: C#2
Note ON: Time 47040, Note Name: C#3, Velocity: 39
Note OFF: Time 47520, Note Name: C#3
Note ON: Time 47520, Note Name: F#2, Velocity: 39
Note OFF: Time 48000, Note Name: F#2
Note ON: Time 48000, Note Name: G#2, Velocity: 29
Note OFF: Time 49200, Note Name: G#2
Note ON: Time 49200, Note Name: A2, Velocity: 37
Note OFF: Time 49440, Note Name: A2
Note ON: Time 49440, Note Name: C3, Velocity: 35
Note OFF: Time 49600, Note Name: C3
Note ON: Time 49600, Note Name: A#2, Velocity: 34
Note OFF: Time 49760, Note Name: A#2
Note ON: Time 49760, Note Name: G#2, Velocity: 34
Note OFF: Time 49920, Note Name: G#2
Note ON: Time 49920, Note Name: C#2, Velocity: 41
Note OFF: Time 50400, Note Name: C#2
Note ON: Time 50400, Note Name: G3, Velocity: 44
Note OFF: Time 50880, Note Name: G3
Note ON: Time 50880, Note Name: G#2, Velocity: 37
Note ON: Time 50880, Note Name: F#3, Velocity: 44
Note OFF: Time 51360, Note Name: F#3
Note ON: Time 51360, Note Name: A#3, Velocity: 44
Note OFF: Time 51720, Note Name: A#3
Note ON: Time 51720, Note Name: G#3, Velocity: 49
Note OFF: Time 51840, Note Name: G#3
Note OFF: Time 51840, Note Name: G#2
Note ON: Time 51840, Note Name: C#3, Velocity: 39
Note ON: Time 51840, Note Name: G#3, Velocity: 42
Note OFF: Time 52320, Note Name: G#3
Note OFF: Time 52320, Note Name: C#3
Note ON: Time 52320, Note Name: G3, Velocity: 44
Note OFF: Time 52800, Note Name: G3
Note ON: Time 52800, Note Name: G#2, Velocity: 37
Note ON: Time 52800, Note Name: F#3, Velocity: 44
Note OFF: Time 53280, Note Name: G#2
Note ON: Time 53280, Note Name: F#2, Velocity: 37
Note OFF: Time 53700, Note Name: F#2
Note ON: Time 53700, Note Name: F2, Velocity: 41
Note OFF: Time 53760, Note Name: F#3
Note ON: Time 53760, Note Name: A3, Velocity: 49
Note OFF: Time 54240, Note Name: A3
Note OFF: Time 54240, Note Name: F2
Note ON: Time 54240, Note Name: A1, Velocity: 40
Note ON: Time 54240, Note Name: A2, Velocity: 48
Note OFF: Time 54720, Note Name: A2
Note OFF: Time 54720, Note Name: A1
Note ON: Time 54720, Note Name: A#1, Velocity: 41
Note ON: Time 54720, Note Name: A#2, Velocity: 49
Note OFF: Time 55200, Note Name: A#2
Note OFF: Time 55200, Note Name: A#1
Note ON: Time 55200, Note Name: C2, Velocity: 41
Note ON: Time 55200, Note Name: C3, Velocity: 49
Note OFF: Time 55560, Note Name: C3
Note OFF: Time 55560, Note Name: C2
Note ON: Time 55560, Note Name: C#2, Velocity: 37
Note ON: Time 55560, Note Name: C#3, Velocity: 45
Note OFF: Time 55680, Note Name: C#3
Note OFF: Time 55680, Note Name: C#2
Note ON: Time 55680, Note Name: D2, Velocity: 41
Note ON: Time 55680, Note Name: D3, Velocity: 49
Note OFF: Time 56160, Note Name: D3
Note OFF: Time 56160, Note Name: D2
Note ON: Time 56160, Note Name: D#2, Velocity: 41
Note ON: Time 56160, Note Name: D#3, Velocity: 49
Note OFF: Time 56520, Note Name: D#3
Note OFF: Time 56520, Note Name: D#2
Note ON: Time 56520, Note Name: F2, Velocity: 37
Note ON: Time 56520, Note Name: F3, Velocity: 45
Note OFF: Time 56640, Note Name: F3
Note OFF: Time 56640, Note Name: F2
Note ON: Time 56640, Note Name: F#2, Velocity: 41
Note ON: Time 56640, Note Name: F#3, Velocity: 49
Note OFF: Time 57120, Note Name: F#3
Note OFF: Time 57120, Note Name: F#2
Note ON: Time 57120, Note Name: G#2, Velocity: 45
Note OFF: Time 57600, Note Name: G#2
Note ON: Time 57600, Note Name: C#2, Velocity: 39
Note OFF: Time 57760, Note Name: C#2
Note ON: Time 57760, Note Name: G3, Velocity: 33
Note OFF: Time 57920, Note Name: G3
Note ON: Time 57920, Note Name: G#3, Velocity: 31
Note OFF: Time 58080, Note Name: G#3
Note ON: Time 58080, Note Name: A#3, Velocity: 37
Note OFF: Time 58240, Note Name: A#3
Note ON: Time 58240, Note Name: G#3, Velocity: 31
Note OFF: Time 58400, Note Name: G#3
Note ON: Time 58400, Note Name: G#2, Velocity: 31
Note OFF: Time 58560, Note Name: G#2
Note ON: Time 58560, Note Name: C#3, Velocity: 39
Note OFF: Time 58720, Note Name: C#3
Note ON: Time 58720, Note Name: G3, Velocity: 35
Note OFF: Time 58880, Note Name: G3
Note ON: Time 58880, Note Name: G#3, Velocity: 35
Note OFF: Time 59040, Note Name: G#3
Note ON: Time 59040, Note Name: A#3, Velocity: 37
Note OFF: Time 59200, Note Name: A#3
Note ON: Time 59200, Note Name: G#3, Velocity: 33
Note OFF: Time 59360, Note Name: G#3
Note ON: Time 59360, Note Name: G#2, Velocity: 33
Note OFF: Time 59520, Note Name: G#2
Note ON: Time 59520, Note Name: D#3, Velocity: 39
Note OFF: Time 59680, Note Name: D#3
Note ON: Time 59680, Note Name: G3, Velocity: 35
Note OFF: Time 59840, Note Name: G3
Note ON: Time 59840, Note Name: G#3, Velocity: 35
Note OFF: Time 60000, Note Name: G#3
Note ON: Time 60000, Note Name: A#3, Velocity: 37
Note OFF: Time 60160, Note Name: A#3
Note ON: Time 60160, Note Name: G#3, Velocity: 33
Note OFF: Time 60320, Note Name: G#3
Note ON: Time 60320, Note Name: G#2, Velocity: 33
Note OFF: Time 60480, Note Name: G#2
Note ON: Time 60480, Note Name: F#3, Velocity: 39
Note OFF: Time 60640, Note Name: F#3
Note ON: Time 60640, Note Name: G3, Velocity: 35
Note OFF: Time 60800, Note Name: G3
Note ON: Time 60800, Note Name: G#3, Velocity: 35
Note OFF: Time 60960, Note Name: G#3
Note ON: Time 60960, Note Name: A#3, Velocity: 37
Note OFF: Time 61120, Note Name: A#3
Note ON: Time 61120, Note Name: G#3, Velocity: 33
Note OFF: Time 61280, Note Name: G#3
Note ON: Time 61280, Note Name: G#2, Velocity: 33
Note OFF: Time 61440, Note Name: G#2
Note ON: Time 61440, Note Name: C#3, Velocity: 39
Note OFF: Time 61560, Note Name: C#3
Note ON: Time 61680, Note Name: G3, Velocity: 34
Note OFF: Time 61800, Note Name: G3
Note ON: Time 61800, Note Name: G#3, Velocity: 33
Note OFF: Time 61920, Note Name: G#3
Note ON: Time 61920, Note Name: A#3, Velocity: 37
Note OFF: Time 62040, Note Name: A#3
Note ON: Time 62040, Note Name: G#3, Velocity: 31
Note OFF: Time 62148, Note Name: G#3
Note ON: Time 62160, Note Name: G#3, Velocity: 37
Note OFF: Time 62280, Note Name: G#3
Note ON: Time 62280, Note Name: G#2, Velocity: 37
Note OFF: Time 62400, Note Name: G#2
Note ON: Time 62400, Note Name: C#3, Velocity: 39
Note OFF: Time 62520, Note Name: C#3
Note ON: Time 62640, Note Name: G3, Velocity: 35
Note OFF: Time 62760, Note Name: G3
Note ON: Time 62760, Note Name: G#3, Velocity: 35
Note OFF: Time 62880, Note Name: G#3
Note ON: Time 62880, Note Name: A#3, Velocity: 37
Note OFF: Time 63000, Note Name: A#3
Note ON: Time 63000, Note Name: G#3, Velocity: 33
Note OFF: Time 63108, Note Name: G#3
Note ON: Time 63120, Note Name: G#3, Velocity: 37
Note OFF: Time 63240, Note Name: G#3
Note ON: Time 63240, Note Name: G#2, Velocity: 31
Note OFF: Time 63360, Note Name: G#2
Note ON: Time 63360, Note Name: D#3, Velocity: 39
Note OFF: Time 63480, Note Name: D#3
Note ON: Time 63600, Note Name: G3, Velocity: 35
Note OFF: Time 63720, Note Name: G3
Note ON: Time 63720, Note Name: G#3, Velocity: 35
Note OFF: Time 63840, Note Name: G#3
Note ON: Time 63840, Note Name: A#3, Velocity: 37
Note OFF: Time 63960, Note Name: A#3
Note ON: Time 63960, Note Name: G#3, Velocity: 33
Note OFF: Time 64068, Note Name: G#3
Note ON: Time 64080, Note Name: G#3, Velocity: 37
Note OFF: Time 64200, Note Name: G#3
Note ON: Time 64200, Note Name: G#2, Velocity: 33
Note OFF: Time 64320, Note Name: G#2
Note ON: Time 64320, Note Name: F#3, Velocity: 39
Note OFF: Time 64560, Note Name: F#3
Note ON: Time 64560, Note Name: G3, Velocity: 35
Note OFF: Time 64680, Note Name: G3
Note ON: Time 64680, Note Name: G#3, Velocity: 35
Note OFF: Time 64800, Note Name: G#3
Note ON: Time 64800, Note Name: A#3, Velocity: 39
Note OFF: Time 64920, Note Name: A#3
Note ON: Time 64920, Note Name: G#3, Velocity: 35
Note OFF: Time 65028, Note Name: G#3
Note ON: Time 65040, Note Name: G#3, Velocity: 39
Note OFF: Time 65160, Note Name: G#3
Note ON: Time 65160, Note Name: G#2, Velocity: 35
Note OFF: Time 65280, Note Name: G#2
Note ON: Time 65280, Note Name: C#3, Velocity: 44
Note OFF: Time 65400, Note Name: C#3
Note ON: Time 65400, Note Name: G#3, Velocity: 39
Note OFF: Time 65520, Note Name: G#3
Note ON: Time 65520, Note Name: A#3, Velocity: 39
Note OFF: Time 65640, Note Name: A#3
Note ON: Time 65640, Note Name: G#3, Velocity: 39
Note OFF: Time 65760, Note Name: G#3
Note ON: Time 65760, Note Name: F4, Velocity: 44
Note OFF: Time 65880, Note Name: F4
Note ON: Time 65880, Note Name: G#3, Velocity: 40
Note OFF: Time 66000, Note Name: G#3
Note ON: Time 66000, Note Name: A#3, Velocity: 40
Note OFF: Time 66120, Note Name: A#3
Note ON: Time 66120, Note Name: G#3, Velocity: 41
Note OFF: Time 66240, Note Name: G#3
Note ON: Time 66240, Note Name: G#2, Velocity: 45
Note OFF: Time 66360, Note Name: G#2
Note ON: Time 66360, Note Name: G#3, Velocity: 40
Note OFF: Time 66480, Note Name: G#3
Note ON: Time 66480, Note Name: A#3, Velocity: 41
Note OFF: Time 66600, Note Name: A#3
Note ON: Time 66600, Note Name: G#3, Velocity: 41
Note OFF: Time 66720, Note Name: G#3
Note ON: Time 66720, Note Name: F#4, Velocity: 47
Note OFF: Time 66840, Note Name: F#4
Note ON: Time 66840, Note Name: G#3, Velocity: 44
Note OFF: Time 66960, Note Name: G#3
Note ON: Time 66960, Note Name: A#3, Velocity: 44
Note OFF: Time 67080, Note Name: A#3
Note ON: Time 67080, Note Name: G#3, Velocity: 44
Note OFF: Time 67200, Note Name: G#3
Note ON: Time 67200, Note Name: C#3, Velocity: 48
Note OFF: Time 67320, Note Name: C#3
Note ON: Time 67320, Note Name: G#3, Velocity: 42
Note OFF: Time 67440, Note Name: G#3
Note ON: Time 67440, Note Name: A#3, Velocity: 42
Note OFF: Time 67560, Note Name: A#3
Note ON: Time 67560, Note Name: G#3, Velocity: 42
Note OFF: Time 67680, Note Name: G#3
Note ON: Time 67680, Note Name: F4, Velocity: 49
Note OFF: Time 67800, Note Name: F4
Note ON: Time 67800, Note Name: G#3, Velocity: 46
Note OFF: Time 67920, Note Name: G#3
Note ON: Time 67920, Note Name: A#3, Velocity: 46
Note OFF: Time 68040, Note Name: A#3
Note ON: Time 68040, Note Name: G#3, Velocity: 46
Note OFF: Time 68160, Note Name: G#3
Note ON: Time 68160, Note Name: G#2, Velocity: 50
Note OFF: Time 68280, Note Name: G#2
Note ON: Time 68280, Note Name: G#3, Velocity: 46
Note OFF: Time 68400, Note Name: G#3
Note ON: Time 68400, Note Name: A#3, Velocity: 46
Note OFF: Time 68520, Note Name: A#3
Note ON: Time 68520, Note Name: G#3, Velocity: 46
Note OFF: Time 68640, Note Name: G#3
Note ON: Time 68640, Note Name: F#4, Velocity: 52
Note OFF: Time 68760, Note Name: F#4
Note ON: Time 68760, Note Name: G#3, Velocity: 49
Note OFF: Time 68880, Note Name: G#3
Note ON: Time 68880, Note Name: A#3, Velocity: 49
Note OFF: Time 69000, Note Name: A#3
Note ON: Time 69000, Note Name: G#3, Velocity: 49
Note OFF: Time 69120, Note Name: G#3
Note ON: Time 69120, Note Name: A2, Velocity: 57
Note OFF: Time 69240, Note Name: A2
Note ON: Time 69240, Note Name: E3, Velocity: 51
Note OFF: Time 69360, Note Name: E3
Note ON: Time 69360, Note Name: F3, Velocity: 51
Note OFF: Time 69480, Note Name: F3
Note ON: Time 69480, Note Name: C4, Velocity: 51
Note OFF: Time 69600, Note Name: C4
Note ON: Time 69600, Note Name: A3, Velocity: 58
Note OFF: Time 69720, Note Name: A3
Note ON: Time 69720, Note Name: E4, Velocity: 53
Note OFF: Time 69840, Note Name: E4
Note ON: Time 69840, Note Name: F4, Velocity: 53
Note OFF: Time 69960, Note Name: F4
Note ON: Time 69960, Note Name: C5, Velocity: 53
Note OFF: Time 70080, Note Name: C5
Note ON: Time 70080, Note Name: A#2, Velocity: 59
Note OFF: Time 70200, Note Name: A#2
Note ON: Time 70200, Note Name: E3, Velocity: 52
Note OFF: Time 70320, Note Name: E3
Note ON: Time 70320, Note Name: F3, Velocity: 52
Note OFF: Time 70440, Note Name: F3
Note ON: Time 70440, Note Name: C#4, Velocity: 53
Note OFF: Time 70560, Note Name: C#4
Note ON: Time 70560, Note Name: A#3, Velocity: 60
Note OFF: Time 70680, Note Name: A#3
Note ON: Time 70680, Note Name: E4, Velocity: 55
Note OFF: Time 70800, Note Name: E4
Note ON: Time 70800, Note Name: F4, Velocity: 55
Note OFF: Time 70920, Note Name: F4
Note ON: Time 70920, Note Name: C#5, Velocity: 56
Note OFF: Time 71040, Note Name: C#5
Note ON: Time 71040, Note Name: C3, Velocity: 61
Note OFF: Time 71160, Note Name: C3
Note ON: Time 71160, Note Name: G3, Velocity: 55
Note OFF: Time 71280, Note Name: G3
Note ON: Time 71280, Note Name: G#3, Velocity: 55
Note OFF: Time 71400, Note Name: G#3
Note ON: Time 71400, Note Name: D#4, Velocity: 55
Note OFF: Time 71520, Note Name: D#4
Note ON: Time 71520, Note Name: C4, Velocity: 62
Note OFF: Time 71640, Note Name: C4
Note ON: Time 71640, Note Name: G4, Velocity: 57
Note OFF: Time 71760, Note Name: G4
Note ON: Time 71760, Note Name: G#4, Velocity: 57
Note OFF: Time 71880, Note Name: G#4
Note ON: Time 71880, Note Name: D#5, Velocity: 57
Note OFF: Time 72000, Note Name: D#5
Note ON: Time 72000, Note Name: D3, Velocity: 62
Note OFF: Time 72120, Note Name: D3
Note ON: Time 72120, Note Name: A3, Velocity: 56
Note OFF: Time 72240, Note Name: A3
Note ON: Time 72240, Note Name: A#3, Velocity: 57
Note OFF: Time 72360, Note Name: A#3
Note ON: Time 72360, Note Name: F4, Velocity: 57
Note OFF: Time 72480, Note Name: F4
Note ON: Time 72480, Note Name: D4, Velocity: 63
Note OFF: Time 72600, Note Name: D4
Note ON: Time 72600, Note Name: A4, Velocity: 58
Note OFF: Time 72720, Note Name: A4
Note ON: Time 72720, Note Name: A#4, Velocity: 59
Note OFF: Time 72840, Note Name: A#4
Note ON: Time 72960, Note Name: D#2, Velocity: 59
Note OFF: Time 73080, Note Name: D#2
Note ON: Time 73080, Note Name: A#2, Velocity: 52
Note OFF: Time 73200, Note Name: A#2
Note ON: Time 73200, Note Name: D#3, Velocity: 52
Note OFF: Time 73320, Note Name: D#3
Note ON: Time 73320, Note Name: A#3, Velocity: 52
Note OFF: Time 73440, Note Name: A#3
Note ON: Time 73440, Note Name: F2, Velocity: 59
Note OFF: Time 73560, Note Name: F2
Note ON: Time 73560, Note Name: A#2, Velocity: 52
Note OFF: Time 73680, Note Name: A#2
Note ON: Time 73680, Note Name: D3, Velocity: 52
Note OFF: Time 73800, Note Name: D3
Note ON: Time 73800, Note Name: G#3, Velocity: 52
Note OFF: Time 73920, Note Name: G#3
Note ON: Time 73920, Note Name: F#2, Velocity: 62
Note OFF: Time 74040, Note Name: F#2
Note ON: Time 74040, Note Name: A#2, Velocity: 52
Note OFF: Time 74160, Note Name: A#2
Note ON: Time 74160, Note Name: D#3, Velocity: 52
Note OFF: Time 74280, Note Name: D#3
Note ON: Time 74280, Note Name: A#3, Velocity: 52
Note OFF: Time 74400, Note Name: A#3
Note ON: Time 74400, Note Name: G2, Velocity: 61
Note OFF: Time 74520, Note Name: G2
Note ON: Time 74520, Note Name: C#3, Velocity: 52
Note OFF: Time 74640, Note Name: C#3
Note ON: Time 74640, Note Name: E3, Velocity: 52
Note OFF: Time 74760, Note Name: E3
Note ON: Time 74760, Note Name: A#3, Velocity: 52
Note OFF: Time 74880, Note Name: A#3
Note ON: Time 74880, Note Name: G#2, Velocity: 59
Note OFF: Time 75000, Note Name: G#2
Note ON: Time 75000, Note Name: C#3, Velocity: 52
Note OFF: Time 75120, Note Name: C#3
Note ON: Time 75120, Note Name: F3, Velocity: 52
Note OFF: Time 75240, Note Name: F3
Note ON: Time 75240, Note Name: C#4, Velocity: 52
Note OFF: Time 75360, Note Name: C#4
Note ON: Time 75360, Note Name: A#2, Velocity: 58
Note OFF: Time 75480, Note Name: A#2
Note ON: Time 75480, Note Name: C#3, Velocity: 52
Note OFF: Time 75600, Note Name: C#3
Note ON: Time 75600, Note Name: F#3, Velocity: 52
Note OFF: Time 75720, Note Name: F#3
Note ON: Time 75720, Note Name: C#4, Velocity: 52
Note OFF: Time 75840, Note Name: C#4
Note ON: Time 75840, Note Name: G#2, Velocity: 52
Note OFF: Time 75960, Note Name: G#2
Note ON: Time 75960, Note Name: D#3, Velocity: 47
Note OFF: Time 76080, Note Name: D#3
Note ON: Time 76080, Note Name: G#3, Velocity: 47
Note OFF: Time 76200, Note Name: G#3
Note ON: Time 76200, Note Name: C#4, Velocity: 47
Note OFF: Time 76320, Note Name: C#4
Note ON: Time 76320, Note Name: F#2, Velocity: 55
Note OFF: Time 76440, Note Name: F#2
Note ON: Time 76440, Note Name: C3, Velocity: 47
Note OFF: Time 76560, Note Name: C3
Note ON: Time 76560, Note Name: D#3, Velocity: 47
Note OFF: Time 76680, Note Name: D#3
Note ON: Time 76680, Note Name: G#3, Velocity: 47
Note OFF: Time 76800, Note Name: G#3
Note ON: Time 76800, Note Name: F2, Velocity: 55
Note OFF: Time 76920, Note Name: F2
Note ON: Time 76920, Note Name: G#2, Velocity: 47
Note OFF: Time 77040, Note Name: G#2
Note ON: Time 77040, Note Name: C#3, Velocity: 47
Note OFF: Time 77160, Note Name: C#3
Note ON: Time 77160, Note Name: G#3, Velocity: 47
Note OFF: Time 77280, Note Name: G#3
Note ON: Time 77280, Note Name: A#2, Velocity: 56
Note OFF: Time 77400, Note Name: A#2
Note ON: Time 77400, Note Name: C#3, Velocity: 47
Note OFF: Time 77520, Note Name: C#3
Note ON: Time 77520, Note Name: F#3, Velocity: 47
Note OFF: Time 77640, Note Name: F#3
Note ON: Time 77640, Note Name: C#4, Velocity: 47
Note OFF: Time 77760, Note Name: C#4
Note ON: Time 77760, Note Name: A2, Velocity: 55
Note OFF: Time 77880, Note Name: A2
Note ON: Time 77880, Note Name: C#3, Velocity: 47
Note OFF: Time 78000, Note Name: C#3
Note ON: Time 78000, Note Name: F#3, Velocity: 47
Note OFF: Time 78120, Note Name: F#3
Note ON: Time 78120, Note Name: C#4, Velocity: 47
Note OFF: Time 78240, Note Name: C#4
Note ON: Time 78240, Note Name: G#2, Velocity: 51
Note OFF: Time 78360, Note Name: G#2
Note ON: Time 78360, Note Name: D#3, Velocity: 47
Note OFF: Time 78480, Note Name: D#3
Note ON: Time 78480, Note Name: C4, Velocity: 47
Note OFF: Time 78600, Note Name: C4
Note ON: Time 78600, Note Name: F#2, Velocity: 47
Note OFF: Time 78720, Note Name: F#2
Note ON: Time 78720, Note Name: F2, Velocity: 56
Note OFF: Time 78840, Note Name: F2
Note ON: Time 78840, Note Name: G#2, Velocity: 47
Note OFF: Time 78960, Note Name: G#2
Note ON: Time 78960, Note Name: C#3, Velocity: 46
Note OFF: Time 79080, Note Name: C#3
Note ON: Time 79080, Note Name: G#3, Velocity: 46
Note OFF: Time 79200, Note Name: G#3
Note ON: Time 79200, Note Name: A#2, Velocity: 53
Note OFF: Time 79320, Note Name: A#2
Note ON: Time 79320, Note Name: C#3, Velocity: 45
Note OFF: Time 79440, Note Name: C#3
Note ON: Time 79440, Note Name: F#3, Velocity: 44
Note OFF: Time 79560, Note Name: F#3
Note ON: Time 79560, Note Name: C#4, Velocity: 44
Note OFF: Time 79680, Note Name: C#4
Note ON: Time 79680, Note Name: G#2, Velocity: 50
Note OFF: Time 79800, Note Name: G#2
Note ON: Time 79800, Note Name: D#3, Velocity: 42
Note OFF: Time 79920, Note Name: D#3
Note ON: Time 79920, Note Name: G#3, Velocity: 42
Note OFF: Time 80040, Note Name: G#3
Note ON: Time 80040, Note Name: C#4, Velocity: 41
Note OFF: Time 80160, Note Name: C#4
Note ON: Time 80160, Note Name: G#2, Velocity: 49
Note OFF: Time 80280, Note Name: G#2
Note ON: Time 80280, Note Name: D#3, Velocity: 41
Note OFF: Time 80400, Note Name: D#3
Note ON: Time 80400, Note Name: G#3, Velocity: 40
Note OFF: Time 80520, Note Name: G#3
Note ON: Time 80520, Note Name: C4, Velocity: 40
Note OFF: Time 80640, Note Name: C4
Note ON: Time 80640, Note Name: C#3, Velocity: 56
Note ON: Time 80640, Note Name: G#3, Velocity: 56
Note ON: Time 80640, Note Name: C#4, Velocity: 66
Note OFF: Time 80800, Note Name: C#4
Note OFF: Time 80800, Note Name: G#3
Note OFF: Time 80800, Note Name: C#3
Note ON: Time 80800, Note Name: D#3, Velocity: 42
Note ON: Time 80800, Note Name: G3, Velocity: 42
Note ON: Time 80800, Note Name: C#4, Velocity: 51
Note OFF: Time 80880, Note Name: C#4
Note OFF: Time 80880, Note Name: G3
Note OFF: Time 80880, Note Name: D#3
Note ON: Time 80960, Note Name: D#3, Velocity: 42
Note ON: Time 80960, Note Name: G3, Velocity: 42
Note ON: Time 80960, Note Name: C#4, Velocity: 51
Note OFF: Time 81040, Note Name: C#4
Note OFF: Time 81040, Note Name: G3
Note OFF: Time 81040, Note Name: D#3
Note ON: Time 81120, Note Name: D#3, Velocity: 46
Note ON: Time 81120, Note Name: G3, Velocity: 46
Note ON: Time 81120, Note Name: C#4, Velocity: 56
Note OFF: Time 81280, Note Name: C#4
Note OFF: Time 81280, Note Name: G3
Note OFF: Time 81280, Note Name: D#3
Note ON: Time 81280, Note Name: G#3, Velocity: 42
Note ON: Time 81280, Note Name: C4, Velocity: 51
Note OFF: Time 81360, Note Name: C4
Note OFF: Time 81360, Note Name: G#3
Note ON: Time 81440, Note Name: G#3, Velocity: 42
Note ON: Time 81440, Note Name: G#4, Velocity: 51
Note ON: Time 81440, Note Name: D#4, Velocity: 42
Note OFF: Time 81520, Note Name: D#4
Note OFF: Time 81520, Note Name: G#4
Note OFF: Time 81520, Note Name: G#3
Note ON: Time 81600, Note Name: G#3, Velocity: 46
Note ON: Time 81600, Note Name: D#4, Velocity: 46
Note ON: Time 81600, Note Name: G#4, Velocity: 56
Note OFF: Time 81760, Note Name: G#4
Note OFF: Time 81760, Note Name: D#4
Note OFF: Time 81760, Note Name: G#3
Note ON: Time 81760, Note Name: C#4, Velocity: 42
Note ON: Time 81760, Note Name: G#4, Velocity: 51
Note OFF: Time 81840, Note Name: G#4
Note OFF: Time 81840, Note Name: C#4
Note ON: Time 81920, Note Name: G4, Velocity: 51
Note ON: Time 81920, Note Name: D#4, Velocity: 42
Note ON: Time 81920, Note Name: C#5, Velocity: 51
Note OFF: Time 82000, Note Name: C#5
Note OFF: Time 82000, Note Name: D#4
Note OFF: Time 82000, Note Name: G4
Note ON: Time 82080, Note Name: D#4, Velocity: 46
Note ON: Time 82080, Note Name: G4, Velocity: 56
Note ON: Time 82080, Note Name: C#5, Velocity: 56
Note OFF: Time 82240, Note Name: C#5
Note OFF: Time 82240, Note Name: G4
Note OFF: Time 82240, Note Name: D#4
Note ON: Time 82240, Note Name: G#4, Velocity: 42
Note ON: Time 82240, Note Name: C5, Velocity: 51
Note OFF: Time 82320, Note Name: C5
Note OFF: Time 82320, Note Name: G#4
Note ON: Time 82400, Note Name: G#4, Velocity: 42
Note ON: Time 82400, Note Name: D#5, Velocity: 42
Note ON: Time 82400, Note Name: G#5, Velocity: 51
Note OFF: Time 82480, Note Name: G#5
Note OFF: Time 82480, Note Name: D#5
Note OFF: Time 82480, Note Name: G#4
Note ON: Time 82560, Note Name: G#4, Velocity: 46
Note ON: Time 82560, Note Name: D#5, Velocity: 46
Note ON: Time 82560, Note Name: G#5, Velocity: 56
Note OFF: Time 82720, Note Name: G#5
Note OFF: Time 82720, Note Name: D#5
Note OFF: Time 82720, Note Name: G#4
Note ON: Time 82720, Note Name: C#5, Velocity: 42
Note ON: Time 82720, Note Name: G#5, Velocity: 51
Note OFF: Time 82800, Note Name: G#5
Note OFF: Time 82800, Note Name: C#5
Note ON: Time 82880, Note Name: D#4, Velocity: 44
Note ON: Time 82880, Note Name: C#5, Velocity: 52
Note ON: Time 82880, Note Name: G4, Velocity: 44
Note OFF: Time 82960, Note Name: G4
Note OFF: Time 82960, Note Name: C#5
Note OFF: Time 82960, Note Name: D#4
Note ON: Time 83040, Note Name: D#4, Velocity: 46
Note ON: Time 83040, Note Name: G4, Velocity: 46
Note ON: Time 83040, Note Name: C#5, Velocity: 56
Note OFF: Time 83200, Note Name: C#5
Note OFF: Time 83200, Note Name: G4
Note OFF: Time 83200, Note Name: D#4
Note ON: Time 83200, Note Name: G#4, Velocity: 44
Note ON: Time 83200, Note Name: C5, Velocity: 52
Note OFF: Time 83280, Note Name: C5
Note OFF: Time 83280, Note Name: G#4
Note ON: Time 83360, Note Name: G#3, Velocity: 44
Note ON: Time 83360, Note Name: D#4, Velocity: 44
Note ON: Time 83360, Note Name: G#4, Velocity: 52
Note OFF: Time 83440, Note Name: G#4
Note OFF: Time 83440, Note Name: D#4
Note OFF: Time 83440, Note Name: G#3
Note ON: Time 83520, Note Name: G#3, Velocity: 46
Note ON: Time 83520, Note Name: D#4, Velocity: 46
Note ON: Time 83520, Note Name: G#4, Velocity: 56
Note OFF: Time 83680, Note Name: G#4
Note OFF: Time 83680, Note Name: D#4
Note OFF: Time 83680, Note Name: G#3
Note ON: Time 83680, Note Name: C#4, Velocity: 44
Note ON: Time 83680, Note Name: G#4, Velocity: 52
Note OFF: Time 83760, Note Name: G#4
Note OFF: Time 83760, Note Name: C#4
Note ON: Time 83840, Note Name: G3, Velocity: 44
Note ON: Time 83840, Note Name: D#3, Velocity: 44
Note ON: Time 83840, Note Name: C#4, Velocity: 52
Note OFF: Time 83920, Note Name: C#4
Note OFF: Time 83920, Note Name: D#3
Note OFF: Time 83920, Note Name: G3
Note ON: Time 84000, Note Name: D#3, Velocity: 46
Note ON: Time 84000, Note Name: G3, Velocity: 46
Note ON: Time 84000, Note Name: C#4, Velocity: 56
Note OFF: Time 84160, Note Name: C#4
Note OFF: Time 84160, Note Name: G3
Note OFF: Time 84160, Note Name: D#3
Note ON: Time 84160, Note Name: G#3, Velocity: 44
Note ON: Time 84160, Note Name: C4, Velocity: 52
Note OFF: Time 84240, Note Name: C4
Note OFF: Time 84240, Note Name: G#3
Note ON: Time 84320, Note Name: D#3, Velocity: 44
Note ON: Time 84320, Note Name: G#2, Velocity: 44
Note ON: Time 84320, Note Name: G#3, Velocity: 52
Note OFF: Time 84400, Note Name: G#3
Note OFF: Time 84400, Note Name: G#2
Note OFF: Time 84400, Note Name: D#3
Note ON: Time 84480, Note Name: G#2, Velocity: 46
Note ON: Time 84480, Note Name: D#3, Velocity: 46
Note ON: Time 84480, Note Name: G#3, Velocity: 56
Note OFF: Time 84640, Note Name: G#3
Note OFF: Time 84640, Note Name: D#3
Note OFF: Time 84640, Note Name: G#2
Note ON: Time 84640, Note Name: C#3, Velocity: 39
Note ON: Time 84640, Note Name: G#3, Velocity: 47
Note OFF: Time 84720, Note Name: G#3
Note OFF: Time 84720, Note Name: C#3
Note ON: Time 84800, Note Name: G3, Velocity: 36
Note ON: Time 84800, Note Name: C#4, Velocity: 41
Note OFF: Time 84880, Note Name: C#4
Note OFF: Time 84880, Note Name: G3
Note ON: Time 84960, Note Name: G3, Velocity: 37
Note ON: Time 84960, Note Name: C#4, Velocity: 44
Note OFF: Time 85120, Note Name: C#4
Note OFF: Time 85120, Note Name: G3
Note ON: Time 85120, Note Name: G#3, Velocity: 34
Note ON: Time 85120, Note Name: C4, Velocity: 41
Note OFF: Time 85200, Note Name: C4
Note OFF: Time 85200, Note Name: G#3
Note ON: Time 85280, Note Name: G#3, Velocity: 29
Note ON: Time 85280, Note Name: G#4, Velocity: 36
Note ON: Time 85280, Note Name: D#4, Velocity: 29
Note OFF: Time 85360, Note Name: D#4
Note OFF: Time 85360, Note Name: G#4
Note OFF: Time 85360, Note Name: G#3
Note ON: Time 85440, Note Name: G#3, Velocity: 33
Note ON: Time 85440, Note Name: D#4, Velocity: 33
Note ON: Time 85440, Note Name: G#4, Velocity: 39
Note OFF: Time 85600, Note Name: G#4
Note OFF: Time 85600, Note Name: D#4
Note OFF: Time 85600, Note Name: G#3
Note ON: Time 85600, Note Name: C#4, Velocity: 29
Note ON: Time 85600, Note Name: G#4, Velocity: 36
Note OFF: Time 85680, Note Name: G#4
Note OFF: Time 85680, Note Name: C#4
Note ON: Time 85760, Note Name: G4, Velocity: 36
Note ON: Time 85760, Note Name: C#5, Velocity: 36
Note OFF: Time 85840, Note Name: C#5
Note OFF: Time 85840, Note Name: G4
Note ON: Time 85920, Note Name: G4, Velocity: 39
Note ON: Time 85920, Note Name: C#5, Velocity: 39
Note OFF: Time 86080, Note Name: C#5
Note OFF: Time 86080, Note Name: G4
Note ON: Time 86080, Note Name: G#4, Velocity: 29
Note ON: Time 86080, Note Name: C5, Velocity: 36
Note OFF: Time 86160, Note Name: C5
Note OFF: Time 86160, Note Name: G#4
Note ON: Time 86240, Note Name: G#4, Velocity: 26
Note ON: Time 86240, Note Name: D#5, Velocity: 26
Note ON: Time 86240, Note Name: G#5, Velocity: 31
Note OFF: Time 86320, Note Name: G#5
Note OFF: Time 86320, Note Name: D#5
Note OFF: Time 86320, Note Name: G#4
Note ON: Time 86400, Note Name: G#4, Velocity: 29
Note ON: Time 86400, Note Name: D#5, Velocity: 29
Note ON: Time 86400, Note Name: G#5, Velocity: 35
Note OFF: Time 86560, Note Name: G#5
Note OFF: Time 86560, Note Name: D#5
Note OFF: Time 86560, Note Name: G#4
Note ON: Time 86560, Note Name: C#5, Velocity: 26
Note ON: Time 86560, Note Name: G#5, Velocity: 31
Note OFF: Time 86640, Note Name: G#5
Note OFF: Time 86640, Note Name: C#5
Note ON: Time 86720, Note Name: C#5, Velocity: 39
Note ON: Time 86720, Note Name: G4, Velocity: 33
Note OFF: Time 86800, Note Name: G4
Note OFF: Time 86800, Note Name: C#5
Note ON: Time 86880, Note Name: G4, Velocity: 35
Note ON: Time 86880, Note Name: C#5, Velocity: 41
Note OFF: Time 87040, Note Name: C#5
Note OFF: Time 87040, Note Name: G4
Note ON: Time 87040, Note Name: G#4, Velocity: 33
Note ON: Time 87040, Note Name: C5, Velocity: 39
Note OFF: Time 87120, Note Name: C5
Note OFF: Time 87120, Note Name: G#4
Note ON: Time 87200, Note Name: G#3, Velocity: 33
Note ON: Time 87200, Note Name: D#4, Velocity: 33
Note ON: Time 87200, Note Name: G#4, Velocity: 39
Note OFF: Time 87280, Note Name: G#4
Note OFF: Time 87280, Note Name: D#4
Note OFF: Time 87280, Note Name: G#3
Note ON: Time 87360, Note Name: G#3, Velocity: 35
Note ON: Time 87360, Note Name: D#4, Velocity: 35
Note ON: Time 87360, Note Name: G#4, Velocity: 41
Note OFF: Time 87520, Note Name: G#4
Note OFF: Time 87520, Note Name: D#4
Note OFF: Time 87520, Note Name: G#3
Note ON: Time 87520, Note Name: C#4, Velocity: 33
Note ON: Time 87520, Note Name: G#4, Velocity: 39
Note OFF: Time 87600, Note Name: G#4
Note OFF: Time 87600, Note Name: C#4
Note ON: Time 87680, Note Name: G3, Velocity: 33
Note ON: Time 87680, Note Name: C#4, Velocity: 39
Note OFF: Time 87760, Note Name: C#4
Note OFF: Time 87760, Note Name: G3
Note ON: Time 87840, Note Name: G3, Velocity: 35
Note ON: Time 87840, Note Name: C#4, Velocity: 41
Note OFF: Time 88000, Note Name: C#4
Note OFF: Time 88000, Note Name: G3
Note ON: Time 88000, Note Name: G#3, Velocity: 33
Note ON: Time 88000, Note Name: C4, Velocity: 39
Note OFF: Time 88080, Note Name: C4
Note OFF: Time 88080, Note Name: G#3
Note ON: Time 88160, Note Name: G#2, Velocity: 41
Note ON: Time 88160, Note Name: G#3, Velocity: 49
Note OFF: Time 88240, Note Name: G#3
Note OFF: Time 88240, Note Name: G#2
Note ON: Time 88320, Note Name: G#2, Velocity: 39
Note ON: Time 88320, Note Name: G#3, Velocity: 47
Note OFF: Time 88480, Note Name: G#3
Note OFF: Time 88480, Note Name: G#2
Note ON: Time 88480, Note Name: G2, Velocity: 33
Note ON: Time 88480, Note Name: G3, Velocity: 39
Note OFF: Time 88560, Note Name: G3
Note OFF: Time 88560, Note Name: G2
Note ON: Time 88640, Note Name: G3, Velocity: 38
Note ON: Time 88640, Note Name: A3, Velocity: 45
Note OFF: Time 88720, Note Name: A3
Note OFF: Time 88720, Note Name: G3
Note ON: Time 88800, Note Name: G3, Velocity: 39
Note ON: Time 88800, Note Name: A3, Velocity: 47
Note OFF: Time 88960, Note Name: A3
Note OFF: Time 88960, Note Name: G3
Note ON: Time 88960, Note Name: G3, Velocity: 31
Note ON: Time 88960, Note Name: B3, Velocity: 39
Note OFF: Time 89040, Note Name: B3
Note OFF: Time 89040, Note Name: G3
Note ON: Time 89120, Note Name: G3, Velocity: 36
Note ON: Time 89120, Note Name: D4, Velocity: 44
Note OFF: Time 89200, Note Name: D4
Note OFF: Time 89200, Note Name: G3
Note ON: Time 89280, Note Name: G3, Velocity: 39
Note ON: Time 89280, Note Name: D4, Velocity: 47
Note OFF: Time 89440, Note Name: D4
Note OFF: Time 89440, Note Name: G3
Note ON: Time 89440, Note Name: C4, Velocity: 34
Note ON: Time 89440, Note Name: G3, Velocity: 34
Note ON: Time 89440, Note Name: E4, Velocity: 41
Note OFF: Time 89520, Note Name: E4
Note OFF: Time 89520, Note Name: G3
Note OFF: Time 89520, Note Name: C4
Note ON: Time 89600, Note Name: G3, Velocity: 44
Note ON: Time 89600, Note Name: D4, Velocity: 44
Note ON: Time 89600, Note Name: A4, Velocity: 44
Note OFF: Time 89680, Note Name: A4
Note OFF: Time 89680, Note Name: D4
Note OFF: Time 89680, Note Name: G3
Note ON: Time 89760, Note Name: G3, Velocity: 47
Note ON: Time 89760, Note Name: D4, Velocity: 47
Note ON: Time 89760, Note Name: A4, Velocity: 47
Note OFF: Time 89920, Note Name: A4
Note OFF: Time 89920, Note Name: D4
Note OFF: Time 89920, Note Name: G3
Note ON: Time 89920, Note Name: G3, Velocity: 44
Note ON: Time 89920, Note Name: D4, Velocity: 34
Note ON: Time 89920, Note Name: G4, Velocity: 41
Note OFF: Time 90000, Note Name: G4
Note OFF: Time 90000, Note Name: D4
Note OFF: Time 90000, Note Name: G3
Note ON: Time 90080, Note Name: G3, Velocity: 47
Note ON: Time 90080, Note Name: D4, Velocity: 36
Note ON: Time 90080, Note Name: G4, Velocity: 44
Note OFF: Time 90160, Note Name: G4
Note OFF: Time 90160, Note Name: D4
Note OFF: Time 90160, Note Name: G3
Note ON: Time 90240, Note Name: G3, Velocity: 39
Note ON: Time 90240, Note Name: D4, Velocity: 39
Note ON: Time 90240, Note Name: G4, Velocity: 47
Note OFF: Time 90400, Note Name: G4
Note OFF: Time 90400, Note Name: D4
Note OFF: Time 90400, Note Name: G3
Note ON: Time 90400, Note Name: D4, Velocity: 34
Note ON: Time 90400, Note Name: G#4, Velocity: 49
Note OFF: Time 90560, Note Name: G#4
Note OFF: Time 90560, Note Name: D4
Note ON: Time 90560, Note Name: F3, Velocity: 61
Note OFF: Time 90720, Note Name: F3
Note ON: Time 90720, Note Name: G#3, Velocity: 47
Note ON: Time 90720, Note Name: F4, Velocity: 56
Note OFF: Time 90880, Note Name: F4
Note OFF: Time 90880, Note Name: G#3
Note ON: Time 90880, Note Name: D3, Velocity: 62
Note OFF: Time 91040, Note Name: D3
Note ON: Time 91040, Note Name: G#3, Velocity: 49
Note ON: Time 91040, Note Name: D4, Velocity: 59
Note OFF: Time 91200, Note Name: D4
Note OFF: Time 91200, Note Name: G#3
Note ON: Time 91200, Note Name: B2, Velocity: 64
Note OFF: Time 91360, Note Name: B2
Note ON: Time 91360, Note Name: F3, Velocity: 50
Note ON: Time 91360, Note Name: B3, Velocity: 60
Note OFF: Time 91520, Note Name: B3
Note OFF: Time 91520, Note Name: F3
Note ON: Time 91520, Note Name: G#2, Velocity: 69
Note OFF: Time 91680, Note Name: G#2
Note ON: Time 91680, Note Name: D3, Velocity: 53
Note ON: Time 91680, Note Name: G#3, Velocity: 64
Note OFF: Time 91840, Note Name: G#3
Note OFF: Time 91840, Note Name: D3
Note ON: Time 91840, Note Name: F2, Velocity: 77
Note OFF: Time 92000, Note Name: F2
Note ON: Time 92000, Note Name: F1, Velocity: 69
Note ON: Time 92000, Note Name: F2, Velocity: 69
Note OFF: Time 92160, Note Name: F2
Note OFF: Time 92160, Note Name: F1
Note ON: Time 92160, Note Name: E2, Velocity: 42
Note ON: Time 92160, Note Name: E1, Velocity: 42
Note OFF: Time 92320, Note Name: E1
Note OFF: Time 92320, Note Name: E2
Note ON: Time 92320, Note Name: E2, Velocity: 36
Note ON: Time 92320, Note Name: E3, Velocity: 50
Note OFF: Time 92480, Note Name: E3
Note OFF: Time 92480, Note Name: E2
Note ON: Time 92480, Note Name: E2, Velocity: 40
Note ON: Time 92480, Note Name: E3, Velocity: 48
Note OFF: Time 92640, Note Name: E3
Note OFF: Time 92640, Note Name: E2
Note ON: Time 92640, Note Name: E2, Velocity: 40
Note ON: Time 92640, Note Name: E3, Velocity: 48
Note OFF: Time 92800, Note Name: E3
Note OFF: Time 92800, Note Name: E2
Note ON: Time 92800, Note Name: E2, Velocity: 40
Note ON: Time 92800, Note Name: E3, Velocity: 48
Note OFF: Time 92960, Note Name: E3
Note OFF: Time 92960, Note Name: E2
Note ON: Time 92960, Note Name: E2, Velocity: 41
Note ON: Time 92960, Note Name: E3, Velocity: 49
Note OFF: Time 93120, Note Name: E3
Note OFF: Time 93120, Note Name: E2
Note ON: Time 93120, Note Name: E2, Velocity: 38
Note ON: Time 93120, Note Name: E3, Velocity: 55
Note OFF: Time 93280, Note Name: E3
Note OFF: Time 93280, Note Name: E2
Note ON: Time 93280, Note Name: D#2, Velocity: 44
Note ON: Time 93280, Note Name: D#3, Velocity: 52
Note OFF: Time 93440, Note Name: D#3
Note OFF: Time 93440, Note Name: D#2
Note ON: Time 93440, Note Name: D#2, Velocity: 44
Note ON: Time 93440, Note Name: D#3, Velocity: 52
Note OFF: Time 93600, Note Name: D#3
Note OFF: Time 93600, Note Name: D#2
Note ON: Time 93600, Note Name: D#2, Velocity: 47
Note ON: Time 93600, Note Name: D#3, Velocity: 56
Note OFF: Time 93760, Note Name: D#3
Note OFF: Time 93760, Note Name: D#2
Note ON: Time 93760, Note Name: E2, Velocity: 44
Note ON: Time 93760, Note Name: E3, Velocity: 52
Note OFF: Time 93920, Note Name: E3
Note OFF: Time 93920, Note Name: E2
Note ON: Time 93920, Note Name: E2, Velocity: 44
Note ON: Time 93920, Note Name: E3, Velocity: 52
Note OFF: Time 94080, Note Name: E3
Note OFF: Time 94080, Note Name: E2
Note ON: Time 94080, Note Name: E2, Velocity: 46
Note ON: Time 94080, Note Name: E3, Velocity: 56
Note OFF: Time 94160, Note Name: E3
Note OFF: Time 94160, Note Name: E2
Note ON: Time 94240, Note Name: E2, Velocity: 47
Note ON: Time 94240, Note Name: E3, Velocity: 57
Note OFF: Time 94320, Note Name: E3
Note OFF: Time 94320, Note Name: E2
Note ON: Time 94400, Note Name: E2, Velocity: 48
Note ON: Time 94400, Note Name: E3, Velocity: 58
Note OFF: Time 94480, Note Name: E3
Note OFF: Time 94480, Note Name: E2
Note ON: Time 94560, Note Name: E2, Velocity: 49
Note ON: Time 94560, Note Name: E3, Velocity: 58
Note OFF: Time 94640, Note Name: E3
Note OFF: Time 94640, Note Name: E2
Note ON: Time 94720, Note Name: E2, Velocity: 50
Note ON: Time 94720, Note Name: E3, Velocity: 59
Note OFF: Time 94800, Note Name: E3
Note OFF: Time 94800, Note Name: E2
Note ON: Time 94880, Note Name: E2, Velocity: 51
Note ON: Time 94880, Note Name: E3, Velocity: 61
Note OFF: Time 94960, Note Name: E3
Note OFF: Time 94960, Note Name: E2
Note ON: Time 95040, Note Name: E2, Velocity: 52
Note ON: Time 95040, Note Name: E3, Velocity: 62
Note OFF: Time 95120, Note Name: E3
Note OFF: Time 95120, Note Name: E2
Note ON: Time 95200, Note Name: D#2, Velocity: 52
Note ON: Time 95200, Note Name: D#3, Velocity: 62
Note OFF: Time 95280, Note Name: D#3
Note OFF: Time 95280, Note Name: D#2
Note ON: Time 95360, Note Name: D#2, Velocity: 53
Note ON: Time 95360, Note Name: D#3, Velocity: 63
Note OFF: Time 95440, Note Name: D#3
Note OFF: Time 95440, Note Name: D#2
Note ON: Time 95520, Note Name: D#2, Velocity: 53
Note ON: Time 95520, Note Name: D#3, Velocity: 64
Note OFF: Time 95600, Note Name: D#3
Note OFF: Time 95600, Note Name: D#2
Note ON: Time 95680, Note Name: E2, Velocity: 55
Note ON: Time 95680, Note Name: E3, Velocity: 66
Note OFF: Time 95760, Note Name: E3
Note OFF: Time 95760, Note Name: E2
Note ON: Time 95840, Note Name: E2, Velocity: 56
Note ON: Time 95840, Note Name: E3, Velocity: 67
Note OFF: Time 95920, Note Name: E3
Note OFF: Time 95920, Note Name: E2
Note ON: Time 96000, Note Name: F2, Velocity: 52
Note ON: Time 96000, Note Name: F3, Velocity: 74
Note OFF: Time 96080, Note Name: F3
Note OFF: Time 96080, Note Name: F2
Note ON: Time 96160, Note Name: G#3, Velocity: 50
Note ON: Time 96160, Note Name: C#3, Velocity: 50
Note ON: Time 96160, Note Name: C#4, Velocity: 71
Note OFF: Time 96320, Note Name: C#4
Note OFF: Time 96320, Note Name: C#3
Note OFF: Time 96320, Note Name: G#3
Note ON: Time 96320, Note Name: G#3, Velocity: 51
Note ON: Time 96320, Note Name: C#3, Velocity: 51
Note ON: Time 96320, Note Name: C#4, Velocity: 72
Note OFF: Time 96480, Note Name: C#4
Note OFF: Time 96480, Note Name: C#3
Note OFF: Time 96480, Note Name: G#3
Note ON: Time 96480, Note Name: C#3, Velocity: 53
Note ON: Time 96480, Note Name: G#3, Velocity: 53
Note ON: Time 96480, Note Name: C#4, Velocity: 75
Note OFF: Time 96640, Note Name: C#4
Note OFF: Time 96640, Note Name: G#3
Note OFF: Time 96640, Note Name: C#3
Note ON: Time 96960, Note Name: F#1, Velocity: 68
Note ON: Time 96960, Note Name: F#2, Velocity: 96
Note OFF: Time 97120, Note Name: F#2
Note OFF: Time 97120, Note Name: F#1
Note ON: Time 97120, Note Name: F#3, Velocity: 50
Note ON: Time 97120, Note Name: C#3, Velocity: 50
Note ON: Time 97120, Note Name: C#4, Velocity: 71
Note OFF: Time 97280, Note Name: C#4
Note OFF: Time 97280, Note Name: C#3
Note OFF: Time 97280, Note Name: F#3
Note ON: Time 97280, Note Name: F#3, Velocity: 51
Note ON: Time 97280, Note Name: C#3, Velocity: 51
Note ON: Time 97280, Note Name: C#4, Velocity: 72
Note OFF: Time 97440, Note Name: C#4
Note OFF: Time 97440, Note Name: C#3
Note OFF: Time 97440, Note Name: F#3
Note ON: Time 97440, Note Name: C#3, Velocity: 53
Note ON: Time 97440, Note Name: F#3, Velocity: 53
Note ON: Time 97440, Note Name: C#4, Velocity: 75
Note OFF: Time 97600, Note Name: C#4
Note OFF: Time 97600, Note Name: F#3
Note OFF: Time 97600, Note Name: C#3
Note ON: Time 97920, Note Name: G#1, Velocity: 68
Note ON: Time 97920, Note Name: G#2, Velocity: 96
Note OFF: Time 98080, Note Name: G#2
Note OFF: Time 98080, Note Name: G#1
Note ON: Time 98080, Note Name: G#3, Velocity: 50
Note ON: Time 98080, Note Name: C#3, Velocity: 50
Note ON: Time 98080, Note Name: C#4, Velocity: 71
Note OFF: Time 98240, Note Name: C#4
Note OFF: Time 98240, Note Name: C#3
Note OFF: Time 98240, Note Name: G#3
Note ON: Time 98240, Note Name: G#3, Velocity: 51
Note ON: Time 98240, Note Name: C#3, Velocity: 51
Note ON: Time 98240, Note Name: C#4, Velocity: 72
Note OFF: Time 98400, Note Name: C#4
Note OFF: Time 98400, Note Name: C#3
Note OFF: Time 98400, Note Name: G#3
Note ON: Time 98400, Note Name: C#3, Velocity: 53
Note ON: Time 98400, Note Name: G#3, Velocity: 53
Note ON: Time 98400, Note Name: C#4, Velocity: 75
Note OFF: Time 98560, Note Name: C#4
Note OFF: Time 98560, Note Name: G#3
Note OFF: Time 98560, Note Name: C#3
Note ON: Time 98880, Note Name: A#1, Velocity: 68
Note ON: Time 98880, Note Name: A#2, Velocity: 96
Note OFF: Time 99040, Note Name: A#2
Note OFF: Time 99040, Note Name: A#1
Note ON: Time 99040, Note Name: A#3, Velocity: 50
Note ON: Time 99040, Note Name: D#3, Velocity: 50
Note ON: Time 99040, Note Name: C#4, Velocity: 71
Note OFF: Time 99200, Note Name: C#4
Note OFF: Time 99200, Note Name: D#3
Note OFF: Time 99200, Note Name: A#3
Note ON: Time 99200, Note Name: A#3, Velocity: 51
Note ON: Time 99200, Note Name: D#3, Velocity: 51
Note ON: Time 99200, Note Name: C#4, Velocity: 72
Note OFF: Time 99360, Note Name: C#4
Note OFF: Time 99360, Note Name: D#3
Note OFF: Time 99360, Note Name: A#3
Note ON: Time 99360, Note Name: D#3, Velocity: 53
Note ON: Time 99360, Note Name: A#3, Velocity: 53
Note ON: Time 99360, Note Name: C#4, Velocity: 75
Note OFF: Time 99520, Note Name: C#4
Note OFF: Time 99520, Note Name: A#3
Note OFF: Time 99520, Note Name: D#3
Note ON: Time 99840, Note Name: D#1, Velocity: 59
Note ON: Time 99840, Note Name: D#2, Velocity: 70
Note OFF: Time 101760, Note Name: D#2
Note OFF: Time 101760, Note Name: D#1
Note ON: Time 101760, Note Name: G#1, Velocity: 56
Note ON: Time 101760, Note Name: G#2, Velocity: 66
Note OFF: Time 103680, Note Name: G#2
Note OFF: Time 103680, Note Name: G#1
Note ON: Time 103680, Note Name: A#1, Velocity: 44
Note ON: Time 103680, Note Name: A#2, Velocity: 52
Note OFF: Time 103800, Note Name: A#2
Note OFF: Time 103800, Note Name: A#1
Note ON: Time 103800, Note Name: F3, Velocity: 29
Note OFF: Time 103920, Note Name: F3
Note ON: Time 103920, Note Name: C#3, Velocity: 22
Note ON: Time 103920, Note Name: C#4, Velocity: 26
Note ON: Time 103920, Note Name: A#3, Velocity: 22
Note OFF: Time 104040, Note Name: A#3
Note OFF: Time 104040, Note Name: C#4
Note OFF: Time 104040, Note Name: C#3
Note ON: Time 104040, Note Name: F2, Velocity: 33
Note OFF: Time 104160, Note Name: F2
Note ON: Time 104160, Note Name: A#1, Velocity: 25
Note ON: Time 104160, Note Name: A#2, Velocity: 29
Note OFF: Time 104280, Note Name: A#2
Note OFF: Time 104280, Note Name: A#1
Note ON: Time 104280, Note Name: F3, Velocity: 29
Note OFF: Time 104400, Note Name: F3
Note ON: Time 104400, Note Name: C#3, Velocity: 23
Note ON: Time 104400, Note Name: C#4, Velocity: 27
Note ON: Time 104400, Note Name: A#3, Velocity: 23
Note OFF: Time 104520, Note Name: A#3
Note OFF: Time 104520, Note Name: C#4
Note OFF: Time 104520, Note Name: C#3
Note ON: Time 104520, Note Name: F2, Velocity: 35
Note OFF: Time 104640, Note Name: F2
Note ON: Time 104640, Note Name: A#1, Velocity: 27
Note ON: Time 104640, Note Name: A#2, Velocity: 33
Note OFF: Time 104760, Note Name: A#2
Note OFF: Time 104760, Note Name: A#1
Note ON: Time 104760, Note Name: F3, Velocity: 30
Note OFF: Time 104880, Note Name: F3
Note ON: Time 104880, Note Name: C#3, Velocity: 24
Note ON: Time 104880, Note Name: C#4, Velocity: 29
Note ON: Time 104880, Note Name: A#3, Velocity: 24
Note OFF: Time 105000, Note Name: A#3
Note OFF: Time 105000, Note Name: C#4
Note OFF: Time 105000, Note Name: C#3
Note ON: Time 105000, Note Name: F2, Velocity: 35
Note OFF: Time 105120, Note Name: F2
Note ON: Time 105120, Note Name: A#1, Velocity: 28
Note ON: Time 105120, Note Name: A#2, Velocity: 34
Note OFF: Time 105240, Note Name: A#2
Note OFF: Time 105240, Note Name: A#1
Note ON: Time 105240, Note Name: F3, Velocity: 35
Note OFF: Time 105360, Note Name: F3
Note ON: Time 105360, Note Name: C#3, Velocity: 26
Note ON: Time 105360, Note Name: C#4, Velocity: 31
Note ON: Time 105360, Note Name: A#3, Velocity: 26
Note OFF: Time 105480, Note Name: A#3
Note OFF: Time 105480, Note Name: C#4
Note OFF: Time 105480, Note Name: C#3
Note ON: Time 105480, Note Name: F2, Velocity: 39
Note OFF: Time 105600, Note Name: F2
Note ON: Time 105600, Note Name: A#1, Velocity: 30
Note ON: Time 105600, Note Name: A#2, Velocity: 38
Note OFF: Time 105720, Note Name: A#2
Note OFF: Time 105720, Note Name: A#1
Note ON: Time 105720, Note Name: F3, Velocity: 35
Note OFF: Time 105840, Note Name: F3
Note ON: Time 105840, Note Name: C#3, Velocity: 28
Note ON: Time 105840, Note Name: C#4, Velocity: 34
Note ON: Time 105840, Note Name: A#3, Velocity: 28
Note OFF: Time 105960, Note Name: A#3
Note OFF: Time 105960, Note Name: C#4
Note OFF: Time 105960, Note Name: C#3
Note ON: Time 105960, Note Name: F2, Velocity: 39
Note OFF: Time 106080, Note Name: F2
Note ON: Time 106080, Note Name: A#1, Velocity: 29
Note ON: Time 106080, Note Name: A#2, Velocity: 35
Note OFF: Time 106200, Note Name: A#2
Note OFF: Time 106200, Note Name: A#1
Note ON: Time 106200, Note Name: F3, Velocity: 34
Note OFF: Time 106320, Note Name: F3
Note ON: Time 106320, Note Name: C#3, Velocity: 25
Note ON: Time 106320, Note Name: C#4, Velocity: 30
Note ON: Time 106320, Note Name: A#3, Velocity: 25
Note OFF: Time 106440, Note Name: A#3
Note OFF: Time 106440, Note Name: C#4
Note OFF: Time 106440, Note Name: C#3
Note ON: Time 106440, Note Name: F2, Velocity: 36
Note OFF: Time 106560, Note Name: F2
Note ON: Time 106560, Note Name: A#1, Velocity: 27
Note ON: Time 106560, Note Name: A#2, Velocity: 33
Note OFF: Time 106680, Note Name: A#2
Note OFF: Time 106680, Note Name: A#1
Note ON: Time 106680, Note Name: F3, Velocity: 30
Note OFF: Time 106800, Note Name: F3
Note ON: Time 106800, Note Name: C#3, Velocity: 24
Note ON: Time 106800, Note Name: C#4, Velocity: 29
Note ON: Time 106800, Note Name: A#3, Velocity: 24
Note OFF: Time 106920, Note Name: A#3
Note OFF: Time 106920, Note Name: C#4
Note OFF: Time 106920, Note Name: C#3
Note ON: Time 106920, Note Name: F2, Velocity: 35
Note OFF: Time 107040, Note Name: F2
Note ON: Time 107040, Note Name: A#1, Velocity: 25
Note ON: Time 107040, Note Name: A#2, Velocity: 29
Note OFF: Time 107160, Note Name: A#2
Note OFF: Time 107160, Note Name: A#1
Note ON: Time 107160, Note Name: F3, Velocity: 29
Note OFF: Time 107280, Note Name: F3
Note ON: Time 107280, Note Name: C#3, Velocity: 24
Note ON: Time 107280, Note Name: C#4, Velocity: 28
Note ON: Time 107280, Note Name: A#3, Velocity: 24
Note OFF: Time 107400, Note Name: A#3
Note OFF: Time 107400, Note Name: C#4
Note OFF: Time 107400, Note Name: C#3
Note ON: Time 107400, Note Name: F3, Velocity: 33
Note OFF: Time 107520, Note Name: F3
Note ON: Time 107520, Note Name: A#2, Velocity: 35
Note OFF: Time 107640, Note Name: A#2
Note ON: Time 107640, Note Name: F3, Velocity: 34
Note OFF: Time 107760, Note Name: F3
Note ON: Time 107760, Note Name: C#4, Velocity: 30
Note ON: Time 107760, Note Name: A#3, Velocity: 30
Note OFF: Time 107880, Note Name: A#3
Note OFF: Time 107880, Note Name: C#4
Note ON: Time 107880, Note Name: F3, Velocity: 31
Note OFF: Time 108000, Note Name: F3
Note ON: Time 108000, Note Name: A#2, Velocity: 35
Note OFF: Time 108120, Note Name: A#2
Note ON: Time 108120, Note Name: F3, Velocity: 33
Note OFF: Time 108240, Note Name: F3
Note ON: Time 108240, Note Name: C#4, Velocity: 31
Note ON: Time 108240, Note Name: A#3, Velocity: 31
Note OFF: Time 108360, Note Name: A#3
Note OFF: Time 108360, Note Name: C#4
Note ON: Time 108360, Note Name: F3, Velocity: 31
Note OFF: Time 108480, Note Name: F3
Note ON: Time 108480, Note Name: A#2, Velocity: 35
Note OFF: Time 108600, Note Name: A#2
Note ON: Time 108600, Note Name: F3, Velocity: 34
Note OFF: Time 108720, Note Name: F3
Note ON: Time 108720, Note Name: C#4, Velocity: 31
Note ON: Time 108720, Note Name: A#3, Velocity: 31
Note OFF: Time 108840, Note Name: A#3
Note OFF: Time 108840, Note Name: C#4
Note ON: Time 108840, Note Name: F3, Velocity: 31
Note OFF: Time 108960, Note Name: F3
Note ON: Time 108960, Note Name: A#2, Velocity: 35
Note OFF: Time 109080, Note Name: A#2
Note ON: Time 109080, Note Name: F3, Velocity: 33
Note OFF: Time 109200, Note Name: F3
Note ON: Time 109200, Note Name: C#4, Velocity: 31
Note ON: Time 109200, Note Name: A#3, Velocity: 31
Note OFF: Time 109320, Note Name: A#3
Note OFF: Time 109320, Note Name: C#4
Note ON: Time 109320, Note Name: F3, Velocity: 31
Note OFF: Time 109440, Note Name: F3
Note ON: Time 109440, Note Name: A#2, Velocity: 35
Note OFF: Time 109560, Note Name: A#2
Note ON: Time 109560, Note Name: F3, Velocity: 33
Note OFF: Time 109680, Note Name: F3
Note ON: Time 109680, Note Name: C#4, Velocity: 31
Note ON: Time 109680, Note Name: A#3, Velocity: 31
Note OFF: Time 109800, Note Name: A#3
Note OFF: Time 109800, Note Name: C#4
Note ON: Time 109800, Note Name: F3, Velocity: 33
Note OFF: Time 109920, Note Name: F3
Note ON: Time 109920, Note Name: A#2, Velocity: 37
Note OFF: Time 110040, Note Name: A#2
Note ON: Time 110040, Note Name: F3, Velocity: 35
Note OFF: Time 110160, Note Name: F3
Note ON: Time 110160, Note Name: C#4, Velocity: 34
Note ON: Time 110160, Note Name: A#3, Velocity: 34
Note OFF: Time 110280, Note Name: A#3
Note OFF: Time 110280, Note Name: C#4
Note ON: Time 110280, Note Name: F3, Velocity: 34
Note OFF: Time 110400, Note Name: F3
Note ON: Time 110400, Note Name: C3, Velocity: 35
Note OFF: Time 110520, Note Name: C3
Note ON: Time 110520, Note Name: F#3, Velocity: 34
Note OFF: Time 110640, Note Name: F#3
Note ON: Time 110640, Note Name: D#4, Velocity: 30
Note ON: Time 110640, Note Name: A3, Velocity: 30
Note OFF: Time 110760, Note Name: A3
Note OFF: Time 110760, Note Name: D#4
Note ON: Time 110760, Note Name: F#3, Velocity: 31
Note OFF: Time 110880, Note Name: F#3
Note ON: Time 110880, Note Name: C3, Velocity: 35
Note OFF: Time 111000, Note Name: C3
Note ON: Time 111000, Note Name: F#3, Velocity: 33
Note OFF: Time 111120, Note Name: F#3
Note ON: Time 111120, Note Name: D#4, Velocity: 31
Note ON: Time 111120, Note Name: A3, Velocity: 31
Note OFF: Time 111240, Note Name: A3
Note OFF: Time 111240, Note Name: D#4
Note ON: Time 111240, Note Name: F#3, Velocity: 31
Note OFF: Time 111360, Note Name: F#3
Note ON: Time 111360, Note Name: C3, Velocity: 35
Note OFF: Time 111480, Note Name: C3
Note ON: Time 111480, Note Name: D#3, Velocity: 34
Note OFF: Time 111600, Note Name: D#3
Note ON: Time 111600, Note Name: D#4, Velocity: 30
Note ON: Time 111600, Note Name: A3, Velocity: 30
Note OFF: Time 111720, Note Name: A3
Note OFF: Time 111720, Note Name: D#4
Note ON: Time 111720, Note Name: D#3, Velocity: 31
Note OFF: Time 111840, Note Name: D#3
Note ON: Time 111840, Note Name: C3, Velocity: 35
Note OFF: Time 111960, Note Name: C3
Note ON: Time 111960, Note Name: F#3, Velocity: 33
Note OFF: Time 112080, Note Name: F#3
Note ON: Time 112080, Note Name: D#4, Velocity: 31
Note ON: Time 112080, Note Name: A3, Velocity: 31
Note OFF: Time 112200, Note Name: A3
Note OFF: Time 112200, Note Name: D#4
Note ON: Time 112200, Note Name: F#3, Velocity: 31
Note OFF: Time 112320, Note Name: F#3
Note ON: Time 112320, Note Name: C3, Velocity: 35
Note OFF: Time 112440, Note Name: C3
Note ON: Time 112440, Note Name: D#3, Velocity: 34
Note OFF: Time 112560, Note Name: D#3
Note ON: Time 112560, Note Name: D#4, Velocity: 30
Note ON: Time 112560, Note Name: A3, Velocity: 30
Note OFF: Time 112680, Note Name: A3
Note OFF: Time 112680, Note Name: D#4
Note ON: Time 112680, Note Name: D#3, Velocity: 31
Note OFF: Time 112800, Note Name: D#3
Note ON: Time 112800, Note Name: C3, Velocity: 35
Note OFF: Time 112920, Note Name: C3
Note ON: Time 112920, Note Name: F#3, Velocity: 33
Note OFF: Time 113040, Note Name: F#3
Note ON: Time 113040, Note Name: D#4, Velocity: 31
Note ON: Time 113040, Note Name: A3, Velocity: 31
Note OFF: Time 113160, Note Name: A3
Note OFF: Time 113160, Note Name: D#4
Note ON: Time 113160, Note Name: F#3, Velocity: 31
Note OFF: Time 113280, Note Name: F#3
Note ON: Time 113280, Note Name: C3, Velocity: 35
Note OFF: Time 113400, Note Name: C3
Note ON: Time 113400, Note Name: D#3, Velocity: 35
Note OFF: Time 113520, Note Name: D#3
Note ON: Time 113520, Note Name: D#4, Velocity: 34
Note ON: Time 113520, Note Name: A3, Velocity: 34
Note OFF: Time 113640, Note Name: A3
Note OFF: Time 113640, Note Name: D#4
Note ON: Time 113640, Note Name: D#3, Velocity: 35
Note OFF: Time 113760, Note Name: D#3
Note ON: Time 113760, Note Name: C3, Velocity: 39
Note OFF: Time 113880, Note Name: C3
Note ON: Time 113880, Note Name: F#3, Velocity: 37
Note OFF: Time 114000, Note Name: F#3
Note ON: Time 114000, Note Name: D#4, Velocity: 37
Note ON: Time 114000, Note Name: A3, Velocity: 37
Note OFF: Time 114120, Note Name: A3
Note OFF: Time 114120, Note Name: D#4
Note ON: Time 114120, Note Name: F#3, Velocity: 38
Note OFF: Time 114240, Note Name: F#3
Note ON: Time 114240, Note Name: C#3, Velocity: 35
Note OFF: Time 114360, Note Name: C#3
Note ON: Time 114360, Note Name: F3, Velocity: 34
Note OFF: Time 114480, Note Name: F3
Note ON: Time 114480, Note Name: F4, Velocity: 30
Note ON: Time 114480, Note Name: A3, Velocity: 30
Note OFF: Time 114600, Note Name: A3
Note OFF: Time 114600, Note Name: F4
Note ON: Time 114600, Note Name: F3, Velocity: 31
Note OFF: Time 114720, Note Name: F3
Note ON: Time 114720, Note Name: C#3, Velocity: 35
Note OFF: Time 114840, Note Name: C#3
Note ON: Time 114840, Note Name: F3, Velocity: 33
Note OFF: Time 114960, Note Name: F3
Note ON: Time 114960, Note Name: F4, Velocity: 31
Note ON: Time 114960, Note Name: A#3, Velocity: 31
Note OFF: Time 115080, Note Name: A#3
Note OFF: Time 115080, Note Name: F4
Note ON: Time 115080, Note Name: F3, Velocity: 31
Note OFF: Time 115200, Note Name: F3
Note ON: Time 115200, Note Name: E3, Velocity: 56
Note OFF: Time 115320, Note Name: E3
Note ON: Time 115320, Note Name: C#4, Velocity: 53
Note OFF: Time 115440, Note Name: C#4
Note ON: Time 115440, Note Name: G4, Velocity: 50
Note OFF: Time 115560, Note Name: G4
Note ON: Time 115560, Note Name: E3, Velocity: 51
Note OFF: Time 115680, Note Name: E3
Note ON: Time 115680, Note Name: F3, Velocity: 56
Note OFF: Time 115800, Note Name: F3
Note ON: Time 115800, Note Name: C4, Velocity: 52
Note OFF: Time 115920, Note Name: C4
Note ON: Time 115920, Note Name: A4, Velocity: 58
Note OFF: Time 116040, Note Name: A4
Note ON: Time 116040, Note Name: F3, Velocity: 51
Note OFF: Time 116160, Note Name: F3
Note ON: Time 116160, Note Name: A2, Velocity: 33
Note OFF: Time 116280, Note Name: A2
Note ON: Time 116280, Note Name: F#3, Velocity: 30
Note OFF: Time 116400, Note Name: F#3
Note ON: Time 116400, Note Name: D#4, Velocity: 29
Note OFF: Time 116520, Note Name: D#4
Note ON: Time 116520, Note Name: A2, Velocity: 29
Note OFF: Time 116640, Note Name: A2
Note ON: Time 116640, Note Name: A#2, Velocity: 33
Note OFF: Time 116760, Note Name: A#2
Note ON: Time 116760, Note Name: F3, Velocity: 30
Note OFF: Time 116880, Note Name: F3
Note ON: Time 116880, Note Name: C#4, Velocity: 29
Note OFF: Time 117000, Note Name: C#4
Note ON: Time 117000, Note Name: A#2, Velocity: 29
Note OFF: Time 117120, Note Name: A#2
Note ON: Time 117120, Note Name: E3, Velocity: 56
Note OFF: Time 117240, Note Name: E3
Note ON: Time 117240, Note Name: C#4, Velocity: 53
Note OFF: Time 117360, Note Name: C#4
Note ON: Time 117360, Note Name: G4, Velocity: 50
Note OFF: Time 117480, Note Name: G4
Note ON: Time 117480, Note Name: E3, Velocity: 51
Note OFF: Time 117600, Note Name: E3
Note ON: Time 117600, Note Name: F3, Velocity: 56
Note OFF: Time 117720, Note Name: F3
Note ON: Time 117720, Note Name: C4, Velocity: 52
Note OFF: Time 117840, Note Name: C4
Note ON: Time 117840, Note Name: A4, Velocity: 58
Note OFF: Time 117960, Note Name: A4
Note ON: Time 117960, Note Name: F3, Velocity: 51
Note OFF: Time 118080, Note Name: F3
Note ON: Time 118080, Note Name: A2, Velocity: 33
Note OFF: Time 118200, Note Name: A2
Note ON: Time 118200, Note Name: F#3, Velocity: 30
Note OFF: Time 118320, Note Name: F#3
Note ON: Time 118320, Note Name: D#4, Velocity: 29
Note OFF: Time 118440, Note Name: D#4
Note ON: Time 118440, Note Name: A2, Velocity: 29
Note OFF: Time 118560, Note Name: A2
Note ON: Time 118560, Note Name: A#2, Velocity: 33
Note OFF: Time 118680, Note Name: A#2
Note ON: Time 118680, Note Name: F3, Velocity: 30
Note OFF: Time 118800, Note Name: F3
Note ON: Time 118800, Note Name: C#4, Velocity: 29
Note OFF: Time 118920, Note Name: C#4
Note ON: Time 118920, Note Name: A#2, Velocity: 29
Note OFF: Time 119040, Note Name: A#2
Note ON: Time 119040, Note Name: G2, Velocity: 56
Note OFF: Time 119160, Note Name: G2
Note ON: Time 119160, Note Name: C3, Velocity: 53
Note OFF: Time 119280, Note Name: C3
Note ON: Time 119280, Note Name: C#3, Velocity: 50
Note OFF: Time 119400, Note Name: C#3
Note ON: Time 119400, Note Name: A#3, Velocity: 49
Note OFF: Time 119520, Note Name: A#3
Note ON: Time 119520, Note Name: G2, Velocity: 52
Note OFF: Time 119640, Note Name: G2
Note ON: Time 119640, Note Name: C3, Velocity: 49
Note OFF: Time 119760, Note Name: C3
Note ON: Time 119760, Note Name: C#3, Velocity: 49
Note OFF: Time 119880, Note Name: C#3
Note ON: Time 119880, Note Name: A#3, Velocity: 49
Note OFF: Time 120000, Note Name: A#3
Note ON: Time 120000, Note Name: G2, Velocity: 47
Note OFF: Time 120120, Note Name: G2
Note ON: Time 120120, Note Name: C3, Velocity: 45
Note OFF: Time 120240, Note Name: C3
Note ON: Time 120240, Note Name: C#3, Velocity: 42
Note OFF: Time 120360, Note Name: C#3
Note ON: Time 120360, Note Name: A#3, Velocity: 44
Note OFF: Time 120480, Note Name: A#3
Note ON: Time 120480, Note Name: A2, Velocity: 49
Note OFF: Time 120600, Note Name: A2
Note ON: Time 120600, Note Name: D3, Velocity: 44
Note OFF: Time 120720, Note Name: D3
Note ON: Time 120720, Note Name: D#3, Velocity: 46
Note OFF: Time 120840, Note Name: D#3
Note ON: Time 120840, Note Name: C4, Velocity: 44
Note OFF: Time 120960, Note Name: C4
Note ON: Time 120960, Note Name: B2, Velocity: 47
Note OFF: Time 121080, Note Name: B2
Note ON: Time 121080, Note Name: E3, Velocity: 45
Note OFF: Time 121200, Note Name: E3
Note ON: Time 121200, Note Name: F3, Velocity: 42
Note OFF: Time 121320, Note Name: F3
Note ON: Time 121320, Note Name: D4, Velocity: 44
Note OFF: Time 121440, Note Name: D4
Note ON: Time 121440, Note Name: C3, Velocity: 49
Note OFF: Time 121560, Note Name: C3
Note ON: Time 121560, Note Name: F#3, Velocity: 39
Note OFF: Time 121680, Note Name: F#3
Note ON: Time 121680, Note Name: G3, Velocity: 40
Note OFF: Time 121800, Note Name: G3
Note ON: Time 121800, Note Name: D#4, Velocity: 39
Note OFF: Time 121920, Note Name: D#4
Note ON: Time 121920, Note Name: A#2, Velocity: 52
Note OFF: Time 122040, Note Name: A#2
Note ON: Time 122040, Note Name: F3, Velocity: 45
Note OFF: Time 122160, Note Name: F3
Note ON: Time 122160, Note Name: F#3, Velocity: 41
Note OFF: Time 122280, Note Name: F#3
Note ON: Time 122280, Note Name: D#4, Velocity: 42
Note OFF: Time 122400, Note Name: D#4
Note ON: Time 122400, Note Name: A2, Velocity: 52
Note OFF: Time 122520, Note Name: A2
Note ON: Time 122520, Note Name: E3, Velocity: 41
Note OFF: Time 122640, Note Name: E3
Note ON: Time 122640, Note Name: F3, Velocity: 42
Note OFF: Time 122760, Note Name: F3
Note ON: Time 122760, Note Name: D#4, Velocity: 41
Note OFF: Time 122880, Note Name: D#4
Note ON: Time 122880, Note Name: A#2, Velocity: 51
Note OFF: Time 123000, Note Name: A#2
Note ON: Time 123000, Note Name: F3, Velocity: 44
Note OFF: Time 123120, Note Name: F3
Note ON: Time 123120, Note Name: A#3, Velocity: 47
Note OFF: Time 123240, Note Name: A#3
Note ON: Time 123240, Note Name: F2, Velocity: 48
Note OFF: Time 123360, Note Name: F2
Note ON: Time 123360, Note Name: A#2, Velocity: 51
Note OFF: Time 123480, Note Name: A#2
Note ON: Time 123480, Note Name: F3, Velocity: 43
Note OFF: Time 123600, Note Name: F3
Note ON: Time 123600, Note Name: A#3, Velocity: 48
Note OFF: Time 123720, Note Name: A#3
Note ON: Time 123720, Note Name: F2, Velocity: 48
Note OFF: Time 123840, Note Name: F2
Note ON: Time 123840, Note Name: A#2, Velocity: 51
Note OFF: Time 123960, Note Name: A#2
Note ON: Time 123960, Note Name: F3, Velocity: 44
Note OFF: Time 124080, Note Name: F3
Note ON: Time 124080, Note Name: A#3, Velocity: 48
Note OFF: Time 124200, Note Name: A#3
Note ON: Time 124200, Note Name: F2, Velocity: 48
Note OFF: Time 124320, Note Name: F2
Note ON: Time 124320, Note Name: A#2, Velocity: 51
Note OFF: Time 124440, Note Name: A#2
Note ON: Time 124440, Note Name: F3, Velocity: 43
Note OFF: Time 124560, Note Name: F3
Note ON: Time 124560, Note Name: A#3, Velocity: 48
Note OFF: Time 124680, Note Name: A#3
Note ON: Time 124680, Note Name: F2, Velocity: 48
Note OFF: Time 124800, Note Name: F2
Note ON: Time 124800, Note Name: A#2, Velocity: 51
Note OFF: Time 124920, Note Name: A#2
Note ON: Time 124920, Note Name: F3, Velocity: 49
Note OFF: Time 125040, Note Name: F3
Note ON: Time 125040, Note Name: A#3, Velocity: 48
Note OFF: Time 125160, Note Name: A#3
Note ON: Time 125160, Note Name: F2, Velocity: 49
Note OFF: Time 125280, Note Name: F2
Note ON: Time 125280, Note Name: A#2, Velocity: 54
Note OFF: Time 125400, Note Name: A#2
Note ON: Time 125400, Note Name: F3, Velocity: 51
Note OFF: Time 125520, Note Name: F3
Note ON: Time 125520, Note Name: C#4, Velocity: 50
Note OFF: Time 125640, Note Name: C#4
Note ON: Time 125640, Note Name: C#3, Velocity: 50
Note OFF: Time 125760, Note Name: C#3
Note ON: Time 125760, Note Name: C3, Velocity: 51
Note OFF: Time 125880, Note Name: C3
Note ON: Time 125880, Note Name: F#3, Velocity: 44
Note OFF: Time 126000, Note Name: F#3
Note ON: Time 126000, Note Name: D#4, Velocity: 47
Note OFF: Time 126120, Note Name: D#4
Note ON: Time 126120, Note Name: C3, Velocity: 48
Note OFF: Time 126240, Note Name: C3
Note ON: Time 126240, Note Name: F#3, Velocity: 51
Note OFF: Time 126360, Note Name: F#3
Note ON: Time 126360, Note Name: A3, Velocity: 43
Note OFF: Time 126480, Note Name: A3
Note ON: Time 126480, Note Name: D#4, Velocity: 48
Note OFF: Time 126600, Note Name: D#4
Note ON: Time 126600, Note Name: C3, Velocity: 48
Note OFF: Time 126720, Note Name: C3
Note ON: Time 126720, Note Name: D#3, Velocity: 51
Note OFF: Time 126840, Note Name: D#3
Note ON: Time 126840, Note Name: A3, Velocity: 44
Note OFF: Time 126960, Note Name: A3
Note ON: Time 126960, Note Name: D#4, Velocity: 47
Note OFF: Time 127080, Note Name: D#4
Note ON: Time 127080, Note Name: C3, Velocity: 48
Note OFF: Time 127200, Note Name: C3
Note ON: Time 127200, Note Name: F#3, Velocity: 51
Note OFF: Time 127320, Note Name: F#3
Note ON: Time 127320, Note Name: A3, Velocity: 43
Note OFF: Time 127440, Note Name: A3
Note ON: Time 127440, Note Name: D#4, Velocity: 48
Note OFF: Time 127560, Note Name: D#4
Note ON: Time 127560, Note Name: C3, Velocity: 48
Note OFF: Time 127680, Note Name: C3
Note ON: Time 127680, Note Name: D#3, Velocity: 51
Note OFF: Time 127800, Note Name: D#3
Note ON: Time 127800, Note Name: A3, Velocity: 44
Note OFF: Time 127920, Note Name: A3
Note ON: Time 127920, Note Name: D#4, Velocity: 47
Note OFF: Time 128040, Note Name: D#4
Note ON: Time 128040, Note Name: C3, Velocity: 48
Note OFF: Time 128160, Note Name: C3
Note ON: Time 128160, Note Name: F#3, Velocity: 51
Note OFF: Time 128280, Note Name: F#3
Note ON: Time 128280, Note Name: A3, Velocity: 43
Note OFF: Time 128400, Note Name: A3
Note ON: Time 128400, Note Name: D#4, Velocity: 48
Note OFF: Time 128520, Note Name: D#4
Note ON: Time 128520, Note Name: C3, Velocity: 48
Note OFF: Time 128640, Note Name: C3
Note ON: Time 128640, Note Name: D#3, Velocity: 52
Note OFF: Time 128760, Note Name: D#3
Note ON: Time 128760, Note Name: A3, Velocity: 46
Note OFF: Time 128880, Note Name: A3
Note ON: Time 128880, Note Name: D#4, Velocity: 50
Note OFF: Time 129000, Note Name: D#4
Note ON: Time 129000, Note Name: C3, Velocity: 51
Note OFF: Time 129120, Note Name: C3
Note ON: Time 129120, Note Name: F#3, Velocity: 57
Note OFF: Time 129240, Note Name: F#3
Note ON: Time 129240, Note Name: A3, Velocity: 54
Note OFF: Time 129360, Note Name: A3
Note ON: Time 129360, Note Name: D#4, Velocity: 54
Note OFF: Time 129480, Note Name: D#4
Note ON: Time 129480, Note Name: C3, Velocity: 55
Note OFF: Time 129600, Note Name: C3
Note ON: Time 129600, Note Name: C#3, Velocity: 51
Note OFF: Time 129720, Note Name: C#3
Note ON: Time 129720, Note Name: A3, Velocity: 50
Note OFF: Time 129840, Note Name: A3
Note ON: Time 129840, Note Name: F4, Velocity: 47
Note OFF: Time 129960, Note Name: F4
Note ON: Time 129960, Note Name: F3, Velocity: 48
Note OFF: Time 130080, Note Name: F3
Note ON: Time 130080, Note Name: A#3, Velocity: 51
Note OFF: Time 130200, Note Name: A#3
Note ON: Time 130200, Note Name: C#4, Velocity: 49
Note OFF: Time 130320, Note Name: C#4
Note ON: Time 130320, Note Name: F4, Velocity: 48
Note OFF: Time 130440, Note Name: F4
Note ON: Time 130440, Note Name: C#3, Velocity: 48
Note OFF: Time 130560, Note Name: C#3
Note ON: Time 130560, Note Name: E3, Velocity: 61
Note OFF: Time 130680, Note Name: E3
Note ON: Time 130680, Note Name: C#4, Velocity: 59
Note OFF: Time 130800, Note Name: C#4
Note ON: Time 130800, Note Name: G4, Velocity: 55
Note OFF: Time 130920, Note Name: G4
Note ON: Time 130920, Note Name: E3, Velocity: 57
Note OFF: Time 131040, Note Name: E3
Note ON: Time 131040, Note Name: F3, Velocity: 61
Note OFF: Time 131160, Note Name: F3
Note ON: Time 131160, Note Name: C4, Velocity: 58
Note OFF: Time 131280, Note Name: C4
Note ON: Time 131280, Note Name: A4, Velocity: 57
Note OFF: Time 131400, Note Name: A4
Note ON: Time 131400, Note Name: F3, Velocity: 57
Note OFF: Time 131520, Note Name: F3
Note ON: Time 131520, Note Name: A2, Velocity: 48
Note OFF: Time 131640, Note Name: A2
Note ON: Time 131640, Note Name: F#3, Velocity: 44
Note OFF: Time 131760, Note Name: F#3
Note ON: Time 131760, Note Name: D#4, Velocity: 44
Note OFF: Time 131880, Note Name: D#4
Note ON: Time 131880, Note Name: A2, Velocity: 44
Note OFF: Time 132000, Note Name: A2
Note ON: Time 132000, Note Name: A#2, Velocity: 48
Note OFF: Time 132120, Note Name: A#2
Note ON: Time 132120, Note Name: F3, Velocity: 44
Note OFF: Time 132240, Note Name: F3
Note ON: Time 132240, Note Name: C#4, Velocity: 44
Note OFF: Time 132360, Note Name: C#4
Note ON: Time 132360, Note Name: A#2, Velocity: 44
Note OFF: Time 132480, Note Name: A#2
Note ON: Time 132480, Note Name: E3, Velocity: 61
Note OFF: Time 132600, Note Name: E3
Note ON: Time 132600, Note Name: C#4, Velocity: 59
Note OFF: Time 132720, Note Name: C#4
Note ON: Time 132720, Note Name: G4, Velocity: 55
Note OFF: Time 132840, Note Name: G4
Note ON: Time 132840, Note Name: E3, Velocity: 57
Note OFF: Time 132960, Note Name: E3
Note ON: Time 132960, Note Name: F3, Velocity: 61
Note OFF: Time 133080, Note Name: F3
Note ON: Time 133080, Note Name: C4, Velocity: 58
Note OFF: Time 133200, Note Name: C4
Note ON: Time 133200, Note Name: A4, Velocity: 57
Note OFF: Time 133320, Note Name: A4
Note ON: Time 133320, Note Name: F3, Velocity: 57
Note OFF: Time 133440, Note Name: F3
Note ON: Time 133440, Note Name: D3, Velocity: 61
Note OFF: Time 133560, Note Name: D3
Note ON: Time 133560, Note Name: B3, Velocity: 58
Note OFF: Time 133680, Note Name: B3
Note ON: Time 133680, Note Name: F4, Velocity: 55
Note OFF: Time 133800, Note Name: F4
Note ON: Time 133800, Note Name: D3, Velocity: 55
Note OFF: Time 133920, Note Name: D3
Note ON: Time 133920, Note Name: D#3, Velocity: 61
Note OFF: Time 134040, Note Name: D#3
Note ON: Time 134040, Note Name: A#3, Velocity: 57
Note OFF: Time 134160, Note Name: A#3
Note ON: Time 134160, Note Name: F#4, Velocity: 55
Note OFF: Time 134280, Note Name: F#4
Note ON: Time 134280, Note Name: D#3, Velocity: 55
Note OFF: Time 134400, Note Name: D#3
Note ON: Time 134400, Note Name: D#2, Velocity: 69
Note OFF: Time 134520, Note Name: D#2
Note ON: Time 134520, Note Name: A#2, Velocity: 59
Note OFF: Time 134640, Note Name: A#2
Note ON: Time 134640, Note Name: A#3, Velocity: 71
Note OFF: Time 134760, Note Name: A#3
Note ON: Time 134760, Note Name: A#2, Velocity: 59
Note OFF: Time 134880, Note Name: A#2
Note ON: Time 134880, Note Name: F2, Velocity: 69
Note OFF: Time 135000, Note Name: F2
Note ON: Time 135000, Note Name: A#2, Velocity: 59
Note OFF: Time 135120, Note Name: A#2
Note ON: Time 135120, Note Name: A#3, Velocity: 69
Note OFF: Time 135240, Note Name: A#3
Note ON: Time 135240, Note Name: A#2, Velocity: 59
Note OFF: Time 135360, Note Name: A#2
Note ON: Time 135360, Note Name: F#2, Velocity: 69
Note OFF: Time 135480, Note Name: F#2
Note ON: Time 135480, Note Name: A#2, Velocity: 59
Note OFF: Time 135600, Note Name: A#2
Note ON: Time 135600, Note Name: A#3, Velocity: 68
Note OFF: Time 135720, Note Name: A#3
Note ON: Time 135720, Note Name: A#2, Velocity: 59
Note OFF: Time 135840, Note Name: A#2
Note ON: Time 135840, Note Name: G2, Velocity: 68
Note OFF: Time 135960, Note Name: G2
Note ON: Time 135960, Note Name: D#3, Velocity: 59
Note OFF: Time 136080, Note Name: D#3
Note ON: Time 136080, Note Name: D#4, Velocity: 68
Note OFF: Time 136200, Note Name: D#4
Note ON: Time 136200, Note Name: D#3, Velocity: 59
Note OFF: Time 136320, Note Name: D#3
Note ON: Time 136320, Note Name: G#2, Velocity: 51
Note ON: Time 136320, Note Name: D#3, Velocity: 57
Note ON: Time 136320, Note Name: A#3, Velocity: 68
Note OFF: Time 136440, Note Name: A#3
Note OFF: Time 136440, Note Name: D#3
Note OFF: Time 136440, Note Name: G#2
Note ON: Time 136560, Note Name: G#2, Velocity: 39
Note ON: Time 136560, Note Name: D#3, Velocity: 46
Note ON: Time 136560, Note Name: G#3, Velocity: 56
Note OFF: Time 136680, Note Name: G#3
Note OFF: Time 136680, Note Name: D#3
Note OFF: Time 136680, Note Name: G#2
Note ON: Time 137040, Note Name: A#1, Velocity: 38
Note ON: Time 137040, Note Name: A#2, Velocity: 46
Note OFF: Time 137280, Note Name: A#2
Note OFF: Time 137280, Note Name: A#1
Note ON: Time 137280, Note Name: B1, Velocity: 41
Note ON: Time 137280, Note Name: B2, Velocity: 49
Note OFF: Time 137760, Note Name: B2
Note OFF: Time 137760, Note Name: B1
Note ON: Time 137760, Note Name: C2, Velocity: 39
Note ON: Time 137760, Note Name: C3, Velocity: 46
Note OFF: Time 138120, Note Name: C3
Note OFF: Time 138120, Note Name: C2
Note ON: Time 138240, Note Name: C#2, Velocity: 31
Note ON: Time 138240, Note Name: C#3, Velocity: 37
Note OFF: Time 139200, Note Name: C#2
Note OFF: Time 139680, Note Name: C#3
Note ON: Time 139680, Note Name: F#2, Velocity: 39
Note OFF: Time 140160, Note Name: F#2
Note ON: Time 140160, Note Name: G#2, Velocity: 39
Note OFF: Time 141360, Note Name: G#2
Note ON: Time 141360, Note Name: A2, Velocity: 37
Note OFF: Time 141600, Note Name: A2
Note ON: Time 141600, Note Name: A#2, Velocity: 39
Note OFF: Time 141840, Note Name: A#2
Note ON: Time 141840, Note Name: G#2, Velocity: 37
Note OFF: Time 142080, Note Name: G#2
Note ON: Time 142080, Note Name: C#2, Velocity: 33
Note ON: Time 142080, Note Name: C#3, Velocity: 39
Note OFF: Time 143040, Note Name: C#2
Note OFF: Time 143520, Note Name: C#3
Note ON: Time 143520, Note Name: F#2, Velocity: 39
Note OFF: Time 144000, Note Name: F#2
Note ON: Time 144000, Note Name: G#2, Velocity: 29
Note OFF: Time 145200, Note Name: G#2
Note ON: Time 145200, Note Name: A2, Velocity: 37
Note OFF: Time 145440, Note Name: A2
Note ON: Time 145440, Note Name: C3, Velocity: 35
Note OFF: Time 145600, Note Name: C3
Note ON: Time 145600, Note Name: A#2, Velocity: 34
Note OFF: Time 145760, Note Name: A#2
Note ON: Time 145760, Note Name: G#2, Velocity: 34
Note OFF: Time 145920, Note Name: G#2
Note ON: Time 145920, Note Name: C#2, Velocity: 41
Note OFF: Time 146400, Note Name: C#2
Note ON: Time 146400, Note Name: G3, Velocity: 44
Note OFF: Time 146880, Note Name: G3
Note ON: Time 146880, Note Name: G#2, Velocity: 37
Note ON: Time 146880, Note Name: F#3, Velocity: 44
Note OFF: Time 147360, Note Name: F#3
Note ON: Time 147360, Note Name: A#3, Velocity: 44
Note OFF: Time 147720, Note Name: A#3
Note ON: Time 147720, Note Name: G#3, Velocity: 49
Note OFF: Time 147840, Note Name: G#3
Note OFF: Time 147840, Note Name: G#2
Note ON: Time 147840, Note Name: C#3, Velocity: 39
Note ON: Time 147840, Note Name: G#3, Velocity: 45
Note OFF: Time 148320, Note Name: G#3
Note OFF: Time 148320, Note Name: C#3
Note ON: Time 148320, Note Name: G3, Velocity: 44
Note OFF: Time 148800, Note Name: G3
Note ON: Time 148800, Note Name: G#2, Velocity: 37
Note ON: Time 148800, Note Name: F#3, Velocity: 44
Note OFF: Time 149280, Note Name: G#2
Note ON: Time 149280, Note Name: F#2, Velocity: 37
Note OFF: Time 149700, Note Name: F#2
Note ON: Time 149700, Note Name: F2, Velocity: 41
Note OFF: Time 149760, Note Name: F#3
Note ON: Time 149760, Note Name: A3, Velocity: 49
Note OFF: Time 150240, Note Name: A3
Note OFF: Time 150240, Note Name: F2
Note ON: Time 150240, Note Name: A1, Velocity: 40
Note ON: Time 150240, Note Name: A2, Velocity: 48
Note OFF: Time 150720, Note Name: A2
Note OFF: Time 150720, Note Name: A1
Note ON: Time 150720, Note Name: A#1, Velocity: 41
Note ON: Time 150720, Note Name: A#2, Velocity: 49
Note OFF: Time 151200, Note Name: A#2
Note OFF: Time 151200, Note Name: A#1
Note ON: Time 151200, Note Name: C2, Velocity: 41
Note ON: Time 151200, Note Name: C3, Velocity: 49
Note OFF: Time 151560, Note Name: C3
Note OFF: Time 151560, Note Name: C2
Note ON: Time 151560, Note Name: C#2, Velocity: 37
Note ON: Time 151560, Note Name: C#3, Velocity: 45
Note OFF: Time 151680, Note Name: C#3
Note OFF: Time 151680, Note Name: C#2
Note ON: Time 151680, Note Name: D2, Velocity: 41
Note ON: Time 151680, Note Name: D3, Velocity: 49
Note OFF: Time 152160, Note Name: D3
Note OFF: Time 152160, Note Name: D2
Note ON: Time 152160, Note Name: D#2, Velocity: 41
Note ON: Time 152160, Note Name: D#3, Velocity: 49
Note OFF: Time 152520, Note Name: D#3
Note OFF: Time 152520, Note Name: D#2
Note ON: Time 152520, Note Name: F2, Velocity: 37
Note ON: Time 152520, Note Name: F3, Velocity: 45
Note OFF: Time 152640, Note Name: F3
Note OFF: Time 152640, Note Name: F2
Note ON: Time 152640, Note Name: F#2, Velocity: 41
Note ON: Time 152640, Note Name: F#3, Velocity: 49
Note OFF: Time 153120, Note Name: F#3
Note OFF: Time 153120, Note Name: F#2
Note ON: Time 153120, Note Name: G#2, Velocity: 45
Note OFF: Time 153600, Note Name: G#2
Note ON: Time 153600, Note Name: C#2, Velocity: 39
Note OFF: Time 153760, Note Name: C#2
Note ON: Time 153760, Note Name: G3, Velocity: 33
Note OFF: Time 153920, Note Name: G3
Note ON: Time 153920, Note Name: G#3, Velocity: 31
Note OFF: Time 154080, Note Name: G#3
Note ON: Time 154080, Note Name: A#3, Velocity: 37
Note OFF: Time 154240, Note Name: A#3
Note ON: Time 154240, Note Name: G#3, Velocity: 31
Note OFF: Time 154400, Note Name: G#3
Note ON: Time 154400, Note Name: G#2, Velocity: 31
Note OFF: Time 154560, Note Name: G#2
Note ON: Time 154560, Note Name: C#3, Velocity: 39
Note OFF: Time 154720, Note Name: C#3
Note ON: Time 154720, Note Name: G3, Velocity: 35
Note OFF: Time 154880, Note Name: G3
Note ON: Time 154880, Note Name: G#3, Velocity: 35
Note OFF: Time 155040, Note Name: G#3
Note ON: Time 155040, Note Name: A#3, Velocity: 37
Note OFF: Time 155200, Note Name: A#3
Note ON: Time 155200, Note Name: G#3, Velocity: 33
Note OFF: Time 155360, Note Name: G#3
Note ON: Time 155360, Note Name: G#2, Velocity: 33
Note OFF: Time 155520, Note Name: G#2
Note ON: Time 155520, Note Name: D#3, Velocity: 39
Note OFF: Time 155680, Note Name: D#3
Note ON: Time 155680, Note Name: G3, Velocity: 35
Note OFF: Time 155840, Note Name: G3
Note ON: Time 155840, Note Name: G#3, Velocity: 35
Note OFF: Time 156000, Note Name: G#3
Note ON: Time 156000, Note Name: A#3, Velocity: 37
Note OFF: Time 156160, Note Name: A#3
Note ON: Time 156160, Note Name: G#3, Velocity: 33
Note OFF: Time 156320, Note Name: G#3
Note ON: Time 156320, Note Name: G#2, Velocity: 33
Note OFF: Time 156480, Note Name: G#2
Note ON: Time 156480, Note Name: F#3, Velocity: 39
Note OFF: Time 156640, Note Name: F#3
Note ON: Time 156640, Note Name: G3, Velocity: 35
Note OFF: Time 156800, Note Name: G3
Note ON: Time 156800, Note Name: G#3, Velocity: 35
Note OFF: Time 156960, Note Name: G#3
Note ON: Time 156960, Note Name: A#3, Velocity: 37
Note OFF: Time 157120, Note Name: A#3
Note ON: Time 157120, Note Name: G#3, Velocity: 33
Note OFF: Time 157280, Note Name: G#3
Note ON: Time 157280, Note Name: G#2, Velocity: 33
Note OFF: Time 157440, Note Name: G#2
Note ON: Time 157440, Note Name: C#3, Velocity: 39
Note OFF: Time 157560, Note Name: C#3
Note ON: Time 157680, Note Name: G3, Velocity: 34
Note OFF: Time 157800, Note Name: G3
Note ON: Time 157800, Note Name: G#3, Velocity: 33
Note OFF: Time 157920, Note Name: G#3
Note ON: Time 157920, Note Name: A#3, Velocity: 37
Note OFF: Time 158040, Note Name: A#3
Note ON: Time 158040, Note Name: G#3, Velocity: 31
Note OFF: Time 158148, Note Name: G#3
Note ON: Time 158160, Note Name: G#3, Velocity: 37
Note OFF: Time 158280, Note Name: G#3
Note ON: Time 158280, Note Name: G#2, Velocity: 37
Note OFF: Time 158400, Note Name: G#2
Note ON: Time 158400, Note Name: C#3, Velocity: 39
Note OFF: Time 158520, Note Name: C#3
Note ON: Time 158640, Note Name: G3, Velocity: 35
Note OFF: Time 158760, Note Name: G3
Note ON: Time 158760, Note Name: G#3, Velocity: 35
Note OFF: Time 158880, Note Name: G#3
Note ON: Time 158880, Note Name: A#3, Velocity: 37
Note OFF: Time 159000, Note Name: A#3
Note ON: Time 159000, Note Name: G#3, Velocity: 33
Note OFF: Time 159108, Note Name: G#3
Note ON: Time 159120, Note Name: G#3, Velocity: 37
Note OFF: Time 159240, Note Name: G#3
Note ON: Time 159240, Note Name: G#2, Velocity: 31
Note OFF: Time 159360, Note Name: G#2
Note ON: Time 159360, Note Name: D#3, Velocity: 39
Note OFF: Time 159480, Note Name: D#3
Note ON: Time 159600, Note Name: G3, Velocity: 35
Note OFF: Time 159720, Note Name: G3
Note ON: Time 159720, Note Name: G#3, Velocity: 35
Note OFF: Time 159840, Note Name: G#3
Note ON: Time 159840, Note Name: A#3, Velocity: 37
Note OFF: Time 159960, Note Name: A#3
Note ON: Time 159960, Note Name: G#3, Velocity: 33
Note OFF: Time 160068, Note Name: G#3
Note ON: Time 160080, Note Name: G#3, Velocity: 37
Note OFF: Time 160200, Note Name: G#3
Note ON: Time 160200, Note Name: G#2, Velocity: 33
Note OFF: Time 160320, Note Name: G#2
Note ON: Time 160320, Note Name: F#3, Velocity: 39
Note OFF: Time 160560, Note Name: F#3
Note ON: Time 160560, Note Name: G3, Velocity: 35
Note OFF: Time 160680, Note Name: G3
Note ON: Time 160680, Note Name: G#3, Velocity: 35
Note OFF: Time 160800, Note Name: G#3
Note ON: Time 160800, Note Name: A#3, Velocity: 39
Note OFF: Time 160920, Note Name: A#3
Note ON: Time 160920, Note Name: G#3, Velocity: 35
Note OFF: Time 161028, Note Name: G#3
Note ON: Time 161040, Note Name: G#3, Velocity: 39
Note OFF: Time 161160, Note Name: G#3
Note ON: Time 161160, Note Name: G#2, Velocity: 35
Note OFF: Time 161280, Note Name: G#2
Note ON: Time 161280, Note Name: C#3, Velocity: 44
Note OFF: Time 161400, Note Name: C#3
Note ON: Time 161400, Note Name: G#3, Velocity: 39
Note OFF: Time 161520, Note Name: G#3
Note ON: Time 161520, Note Name: A#3, Velocity: 39
Note OFF: Time 161640, Note Name: A#3
Note ON: Time 161640, Note Name: G#3, Velocity: 39
Note OFF: Time 161760, Note Name: G#3
Note ON: Time 161760, Note Name: F4, Velocity: 44
Note OFF: Time 161880, Note Name: F4
Note ON: Time 161880, Note Name: G#3, Velocity: 40
Note OFF: Time 162000, Note Name: G#3
Note ON: Time 162000, Note Name: A#3, Velocity: 40
Note OFF: Time 162120, Note Name: A#3
Note ON: Time 162120, Note Name: G#3, Velocity: 41
Note OFF: Time 162240, Note Name: G#3
Note ON: Time 162240, Note Name: G#2, Velocity: 45
Note OFF: Time 162360, Note Name: G#2
Note ON: Time 162360, Note Name: G#3, Velocity: 40
Note OFF: Time 162480, Note Name: G#3
Note ON: Time 162480, Note Name: A#3, Velocity: 41
Note OFF: Time 162600, Note Name: A#3
Note ON: Time 162600, Note Name: G#3, Velocity: 41
Note OFF: Time 162720, Note Name: G#3
Note ON: Time 162720, Note Name: F#4, Velocity: 47
Note OFF: Time 162840, Note Name: F#4
Note ON: Time 162840, Note Name: G#3, Velocity: 44
Note OFF: Time 162960, Note Name: G#3
Note ON: Time 162960, Note Name: A#3, Velocity: 44
Note OFF: Time 163080, Note Name: A#3
Note ON: Time 163080, Note Name: G#3, Velocity: 44
Note OFF: Time 163200, Note Name: G#3
Note ON: Time 163200, Note Name: C#3, Velocity: 48
Note OFF: Time 163320, Note Name: C#3
Note ON: Time 163320, Note Name: G#3, Velocity: 42
Note OFF: Time 163440, Note Name: G#3
Note ON: Time 163440, Note Name: A#3, Velocity: 42
Note OFF: Time 163560, Note Name: A#3
Note ON: Time 163560, Note Name: G#3, Velocity: 42
Note OFF: Time 163680, Note Name: G#3
Note ON: Time 163680, Note Name: F4, Velocity: 49
Note OFF: Time 163800, Note Name: F4
Note ON: Time 163800, Note Name: G#3, Velocity: 46
Note OFF: Time 163920, Note Name: G#3
Note ON: Time 163920, Note Name: A#3, Velocity: 46
Note OFF: Time 164040, Note Name: A#3
Note ON: Time 164040, Note Name: G#3, Velocity: 46
Note OFF: Time 164160, Note Name: G#3
Note ON: Time 164160, Note Name: G#2, Velocity: 50
Note OFF: Time 164280, Note Name: G#2
Note ON: Time 164280, Note Name: G#3, Velocity: 46
Note OFF: Time 164400, Note Name: G#3
Note ON: Time 164400, Note Name: A#3, Velocity: 46
Note OFF: Time 164520, Note Name: A#3
Note ON: Time 164520, Note Name: G#3, Velocity: 46
Note OFF: Time 164640, Note Name: G#3
Note ON: Time 164640, Note Name: F#4, Velocity: 52
Note OFF: Time 164760, Note Name: F#4
Note ON: Time 164760, Note Name: G#3, Velocity: 49
Note OFF: Time 164880, Note Name: G#3
Note ON: Time 164880, Note Name: A#3, Velocity: 49
Note OFF: Time 165000, Note Name: A#3
Note ON: Time 165000, Note Name: G#3, Velocity: 49
Note OFF: Time 165120, Note Name: G#3
Note ON: Time 165120, Note Name: A2, Velocity: 57
Note OFF: Time 165240, Note Name: A2
Note ON: Time 165240, Note Name: E3, Velocity: 51
Note OFF: Time 165360, Note Name: E3
Note ON: Time 165360, Note Name: F3, Velocity: 51
Note OFF: Time 165480, Note Name: F3
Note ON: Time 165480, Note Name: C4, Velocity: 51
Note OFF: Time 165600, Note Name: C4
Note ON: Time 165600, Note Name: A3, Velocity: 58
Note OFF: Time 165720, Note Name: A3
Note ON: Time 165720, Note Name: E4, Velocity: 53
Note OFF: Time 165840, Note Name: E4
Note ON: Time 165840, Note Name: F4, Velocity: 53
Note OFF: Time 165960, Note Name: F4
Note ON: Time 165960, Note Name: C5, Velocity: 53
Note OFF: Time 166080, Note Name: C5
Note ON: Time 166080, Note Name: A#2, Velocity: 59
Note OFF: Time 166200, Note Name: A#2
Note ON: Time 166200, Note Name: E3, Velocity: 52
Note OFF: Time 166320, Note Name: E3
Note ON: Time 166320, Note Name: F3, Velocity: 52
Note OFF: Time 166440, Note Name: F3
Note ON: Time 166440, Note Name: C#4, Velocity: 53
Note OFF: Time 166560, Note Name: C#4
Note ON: Time 166560, Note Name: A#3, Velocity: 60
Note OFF: Time 166680, Note Name: A#3
Note ON: Time 166680, Note Name: E4, Velocity: 55
Note OFF: Time 166800, Note Name: E4
Note ON: Time 166800, Note Name: F4, Velocity: 55
Note OFF: Time 166920, Note Name: F4
Note ON: Time 166920, Note Name: C#5, Velocity: 56
Note OFF: Time 167040, Note Name: C#5
Note ON: Time 167040, Note Name: C3, Velocity: 61
Note OFF: Time 167160, Note Name: C3
Note ON: Time 167160, Note Name: G3, Velocity: 55
Note OFF: Time 167280, Note Name: G3
Note ON: Time 167280, Note Name: G#3, Velocity: 55
Note OFF: Time 167400, Note Name: G#3
Note ON: Time 167400, Note Name: D#4, Velocity: 55
Note OFF: Time 167520, Note Name: D#4
Note ON: Time 167520, Note Name: C4, Velocity: 62
Note OFF: Time 167640, Note Name: C4
Note ON: Time 167640, Note Name: G4, Velocity: 57
Note OFF: Time 167760, Note Name: G4
Note ON: Time 167760, Note Name: G#4, Velocity: 57
Note OFF: Time 167880, Note Name: G#4
Note ON: Time 167880, Note Name: D#5, Velocity: 57
Note OFF: Time 168000, Note Name: D#5
Note ON: Time 168000, Note Name: D3, Velocity: 62
Note OFF: Time 168120, Note Name: D3
Note ON: Time 168120, Note Name: A3, Velocity: 56
Note OFF: Time 168240, Note Name: A3
Note ON: Time 168240, Note Name: A#3, Velocity: 57
Note OFF: Time 168360, Note Name: A#3
Note ON: Time 168360, Note Name: F4, Velocity: 57
Note OFF: Time 168480, Note Name: F4
Note ON: Time 168480, Note Name: D4, Velocity: 63
Note OFF: Time 168600, Note Name: D4
Note ON: Time 168600, Note Name: A4, Velocity: 58
Note OFF: Time 168720, Note Name: A4
Note ON: Time 168720, Note Name: A#4, Velocity: 59
Note OFF: Time 168840, Note Name: A#4
Note ON: Time 168960, Note Name: D#2, Velocity: 59
Note OFF: Time 169080, Note Name: D#2
Note ON: Time 169080, Note Name: A#2, Velocity: 52
Note OFF: Time 169200, Note Name: A#2
Note ON: Time 169200, Note Name: D#3, Velocity: 52
Note OFF: Time 169320, Note Name: D#3
Note ON: Time 169320, Note Name: A#3, Velocity: 52
Note OFF: Time 169440, Note Name: A#3
Note ON: Time 169440, Note Name: F2, Velocity: 59
Note OFF: Time 169560, Note Name: F2
Note ON: Time 169560, Note Name: A#2, Velocity: 52
Note OFF: Time 169680, Note Name: A#2
Note ON: Time 169680, Note Name: D3, Velocity: 52
Note OFF: Time 169800, Note Name: D3
Note ON: Time 169800, Note Name: G#3, Velocity: 52
Note OFF: Time 169920, Note Name: G#3
Note ON: Time 169920, Note Name: F#2, Velocity: 62
Note OFF: Time 170040, Note Name: F#2
Note ON: Time 170040, Note Name: A#2, Velocity: 52
Note OFF: Time 170160, Note Name: A#2
Note ON: Time 170160, Note Name: D#3, Velocity: 52
Note OFF: Time 170280, Note Name: D#3
Note ON: Time 170280, Note Name: A#3, Velocity: 52
Note OFF: Time 170400, Note Name: A#3
Note ON: Time 170400, Note Name: G2, Velocity: 61
Note OFF: Time 170520, Note Name: G2
Note ON: Time 170520, Note Name: C#3, Velocity: 52
Note OFF: Time 170640, Note Name: C#3
Note ON: Time 170640, Note Name: E3, Velocity: 52
Note OFF: Time 170760, Note Name: E3
Note ON: Time 170760, Note Name: A#3, Velocity: 52
Note OFF: Time 170880, Note Name: A#3
Note ON: Time 170880, Note Name: G#2, Velocity: 59
Note OFF: Time 171000, Note Name: G#2
Note ON: Time 171000, Note Name: C#3, Velocity: 52
Note OFF: Time 171120, Note Name: C#3
Note ON: Time 171120, Note Name: F3, Velocity: 52
Note OFF: Time 171240, Note Name: F3
Note ON: Time 171240, Note Name: C#4, Velocity: 52
Note OFF: Time 171360, Note Name: C#4
Note ON: Time 171360, Note Name: A#2, Velocity: 58
Note OFF: Time 171480, Note Name: A#2
Note ON: Time 171480, Note Name: C#3, Velocity: 52
Note OFF: Time 171600, Note Name: C#3
Note ON: Time 171600, Note Name: F#3, Velocity: 52
Note OFF: Time 171720, Note Name: F#3
Note ON: Time 171720, Note Name: C#4, Velocity: 52
Note OFF: Time 171840, Note Name: C#4
Note ON: Time 171840, Note Name: G#2, Velocity: 52
Note OFF: Time 171960, Note Name: G#2
Note ON: Time 171960, Note Name: D#3, Velocity: 47
Note OFF: Time 172080, Note Name: D#3
Note ON: Time 172080, Note Name: G#3, Velocity: 47
Note OFF: Time 172200, Note Name: G#3
Note ON: Time 172200, Note Name: C#4, Velocity: 47
Note OFF: Time 172320, Note Name: C#4
Note ON: Time 172320, Note Name: F#2, Velocity: 55
Note OFF: Time 172440, Note Name: F#2
Note ON: Time 172440, Note Name: C3, Velocity: 47
Note OFF: Time 172560, Note Name: C3
Note ON: Time 172560, Note Name: D#3, Velocity: 47
Note OFF: Time 172680, Note Name: D#3
Note ON: Time 172680, Note Name: G#3, Velocity: 47
Note OFF: Time 172800, Note Name: G#3
Note ON: Time 172800, Note Name: F2, Velocity: 55
Note OFF: Time 172920, Note Name: F2
Note ON: Time 172920, Note Name: G#2, Velocity: 47
Note OFF: Time 173040, Note Name: G#2
Note ON: Time 173040, Note Name: C#3, Velocity: 47
Note OFF: Time 173160, Note Name: C#3
Note ON: Time 173160, Note Name: G#3, Velocity: 47
Note OFF: Time 173280, Note Name: G#3
Note ON: Time 173280, Note Name: A#2, Velocity: 56
Note OFF: Time 173400, Note Name: A#2
Note ON: Time 173400, Note Name: C#3, Velocity: 47
Note OFF: Time 173520, Note Name: C#3
Note ON: Time 173520, Note Name: F#3, Velocity: 47
Note OFF: Time 173640, Note Name: F#3
Note ON: Time 173640, Note Name: C#4, Velocity: 47
Note OFF: Time 173760, Note Name: C#4
Note ON: Time 173760, Note Name: A2, Velocity: 55
Note OFF: Time 173880, Note Name: A2
Note ON: Time 173880, Note Name: C#3, Velocity: 47
Note OFF: Time 174000, Note Name: C#3
Note ON: Time 174000, Note Name: F#3, Velocity: 47
Note OFF: Time 174120, Note Name: F#3
Note ON: Time 174120, Note Name: C#4, Velocity: 47
Note OFF: Time 174240, Note Name: C#4
Note ON: Time 174240, Note Name: G#2, Velocity: 51
Note OFF: Time 174360, Note Name: G#2
Note ON: Time 174360, Note Name: D#3, Velocity: 47
Note OFF: Time 174480, Note Name: D#3
Note ON: Time 174480, Note Name: C4, Velocity: 47
Note OFF: Time 174600, Note Name: C4
Note ON: Time 174600, Note Name: F#2, Velocity: 47
Note OFF: Time 174720, Note Name: F#2
Note ON: Time 174720, Note Name: F2, Velocity: 56
Note OFF: Time 174840, Note Name: F2
Note ON: Time 174840, Note Name: G#2, Velocity: 47
Note OFF: Time 174960, Note Name: G#2
Note ON: Time 174960, Note Name: C#3, Velocity: 46
Note OFF: Time 175080, Note Name: C#3
Note ON: Time 175080, Note Name: G#3, Velocity: 46
Note OFF: Time 175200, Note Name: G#3
Note ON: Time 175200, Note Name: A#2, Velocity: 53
Note OFF: Time 175320, Note Name: A#2
Note ON: Time 175320, Note Name: C#3, Velocity: 45
Note OFF: Time 175440, Note Name: C#3
Note ON: Time 175440, Note Name: F#3, Velocity: 44
Note OFF: Time 175560, Note Name: F#3
Note ON: Time 175560, Note Name: C#4, Velocity: 44
Note OFF: Time 175680, Note Name: C#4
Note ON: Time 175680, Note Name: G#2, Velocity: 50
Note OFF: Time 175800, Note Name: G#2
Note ON: Time 175800, Note Name: D#3, Velocity: 42
Note OFF: Time 175920, Note Name: D#3
Note ON: Time 175920, Note Name: G#3, Velocity: 42
Note OFF: Time 176040, Note Name: G#3
Note ON: Time 176040, Note Name: C#4, Velocity: 41
Note OFF: Time 176160, Note Name: C#4
Note ON: Time 176160, Note Name: G#2, Velocity: 49
Note OFF: Time 176280, Note Name: G#2
Note ON: Time 176280, Note Name: D#3, Velocity: 41
Note OFF: Time 176400, Note Name: D#3
Note ON: Time 176400, Note Name: G#3, Velocity: 40
Note OFF: Time 176520, Note Name: G#3
Note ON: Time 176520, Note Name: C4, Velocity: 40
Note OFF: Time 176640, Note Name: C4
Note ON: Time 176640, Note Name: C#4, Velocity: 66
Note ON: Time 176640, Note Name: C#3, Velocity: 56
Note ON: Time 176640, Note Name: G#3, Velocity: 56
Note OFF: Time 176800, Note Name: G#3
Note OFF: Time 176800, Note Name: C#3
Note OFF: Time 176800, Note Name: C#4
Note ON: Time 176800, Note Name: D#3, Velocity: 42
Note ON: Time 176800, Note Name: G3, Velocity: 42
Note ON: Time 176800, Note Name: C#4, Velocity: 51
Note OFF: Time 176880, Note Name: C#4
Note OFF: Time 176880, Note Name: G3
Note OFF: Time 176880, Note Name: D#3
Note ON: Time 176960, Note Name: C#4, Velocity: 51
Note ON: Time 176960, Note Name: G3, Velocity: 42
Note ON: Time 176960, Note Name: D#3, Velocity: 42
Note OFF: Time 177040, Note Name: D#3
Note OFF: Time 177040, Note Name: G3
Note OFF: Time 177040, Note Name: C#4
Note ON: Time 177120, Note Name: C#4, Velocity: 56
Note ON: Time 177120, Note Name: G3, Velocity: 46
Note ON: Time 177120, Note Name: D#3, Velocity: 46
Note OFF: Time 177280, Note Name: D#3
Note OFF: Time 177280, Note Name: G3
Note OFF: Time 177280, Note Name: C#4
Note ON: Time 177280, Note Name: G#3, Velocity: 42
Note ON: Time 177280, Note Name: C4, Velocity: 51
Note OFF: Time 177360, Note Name: C4
Note OFF: Time 177360, Note Name: G#3
Note ON: Time 177440, Note Name: D#4, Velocity: 42
Note ON: Time 177440, Note Name: G#4, Velocity: 51
Note ON: Time 177440, Note Name: G#3, Velocity: 42
Note OFF: Time 177520, Note Name: G#3
Note OFF: Time 177520, Note Name: G#4
Note OFF: Time 177520, Note Name: D#4
Note ON: Time 177600, Note Name: G#4, Velocity: 56
Note ON: Time 177600, Note Name: G#3, Velocity: 46
Note ON: Time 177600, Note Name: D#4, Velocity: 46
Note OFF: Time 177760, Note Name: D#4
Note OFF: Time 177760, Note Name: G#3
Note OFF: Time 177760, Note Name: G#4
Note ON: Time 177760, Note Name: C#4, Velocity: 42
Note ON: Time 177760, Note Name: G#4, Velocity: 51
Note OFF: Time 177840, Note Name: G#4
Note OFF: Time 177840, Note Name: C#4
Note ON: Time 177920, Note Name: C#5, Velocity: 51
Note ON: Time 177920, Note Name: D#4, Velocity: 42
Note ON: Time 177920, Note Name: G4, Velocity: 51
Note OFF: Time 178000, Note Name: G4
Note OFF: Time 178000, Note Name: D#4
Note OFF: Time 178000, Note Name: C#5
Note ON: Time 178080, Note Name: D#4, Velocity: 46
Note ON: Time 178080, Note Name: G4, Velocity: 56
Note ON: Time 178080, Note Name: C#5, Velocity: 56
Note OFF: Time 178240, Note Name: C#5
Note OFF: Time 178240, Note Name: G4
Note OFF: Time 178240, Note Name: D#4
Note ON: Time 178240, Note Name: G#4, Velocity: 42
Note ON: Time 178240, Note Name: C5, Velocity: 51
Note OFF: Time 178320, Note Name: C5
Note OFF: Time 178320, Note Name: G#4
Note ON: Time 178400, Note Name: G#5, Velocity: 51
Note ON: Time 178400, Note Name: D#5, Velocity: 42
Note ON: Time 178400, Note Name: G#4, Velocity: 42
Note OFF: Time 178480, Note Name: G#4
Note OFF: Time 178480, Note Name: D#5
Note OFF: Time 178480, Note Name: G#5
Note ON: Time 178560, Note Name: G#4, Velocity: 46
Note ON: Time 178560, Note Name: G#5, Velocity: 56
Note ON: Time 178560, Note Name: D#5, Velocity: 46
Note OFF: Time 178720, Note Name: D#5
Note OFF: Time 178720, Note Name: G#5
Note OFF: Time 178720, Note Name: G#4
Note ON: Time 178720, Note Name: G#5, Velocity: 51
Note ON: Time 178720, Note Name: C#5, Velocity: 42
Note OFF: Time 178800, Note Name: C#5
Note OFF: Time 178800, Note Name: G#5
Note ON: Time 178880, Note Name: D#4, Velocity: 44
Note ON: Time 178880, Note Name: C#5, Velocity: 52
Note ON: Time 178880, Note Name: G4, Velocity: 44
Note OFF: Time 178960, Note Name: G4
Note OFF: Time 178960, Note Name: C#5
Note OFF: Time 178960, Note Name: D#4
Note ON: Time 179040, Note Name: C#5, Velocity: 56
Note ON: Time 179040, Note Name: G4, Velocity: 46
Note ON: Time 179040, Note Name: D#4, Velocity: 46
Note OFF: Time 179200, Note Name: D#4
Note OFF: Time 179200, Note Name: G4
Note OFF: Time 179200, Note Name: C#5
Note ON: Time 179200, Note Name: G#4, Velocity: 44
Note ON: Time 179200, Note Name: C5, Velocity: 52
Note OFF: Time 179280, Note Name: C5
Note OFF: Time 179280, Note Name: G#4
Note ON: Time 179360, Note Name: G#3, Velocity: 44
Note ON: Time 179360, Note Name: D#4, Velocity: 44
Note ON: Time 179360, Note Name: G#4, Velocity: 52
Note OFF: Time 179440, Note Name: G#4
Note OFF: Time 179440, Note Name: D#4
Note OFF: Time 179440, Note Name: G#3
Note ON: Time 179520, Note Name: G#4, Velocity: 56
Note ON: Time 179520, Note Name: D#4, Velocity: 46
Note ON: Time 179520, Note Name: G#3, Velocity: 46
Note OFF: Time 179680, Note Name: G#3
Note OFF: Time 179680, Note Name: D#4
Note OFF: Time 179680, Note Name: G#4
Note ON: Time 179680, Note Name: G#4, Velocity: 52
Note ON: Time 179680, Note Name: C#4, Velocity: 44
Note OFF: Time 179760, Note Name: C#4
Note OFF: Time 179760, Note Name: G#4
Note ON: Time 179840, Note Name: C#4, Velocity: 52
Note ON: Time 179840, Note Name: D#3, Velocity: 44
Note ON: Time 179840, Note Name: G3, Velocity: 44
Note OFF: Time 179920, Note Name: G3
Note OFF: Time 179920, Note Name: D#3
Note OFF: Time 179920, Note Name: C#4
Note ON: Time 180000, Note Name: C#4, Velocity: 56
Note ON: Time 180000, Note Name: G3, Velocity: 46
Note ON: Time 180000, Note Name: D#3, Velocity: 46
Note OFF: Time 180160, Note Name: D#3
Note OFF: Time 180160, Note Name: G3
Note OFF: Time 180160, Note Name: C#4
Note ON: Time 180160, Note Name: G#3, Velocity: 44
Note ON: Time 180160, Note Name: C4, Velocity: 52
Note OFF: Time 180240, Note Name: C4
Note OFF: Time 180240, Note Name: G#3
Note ON: Time 180320, Note Name: G#3, Velocity: 52
Note ON: Time 180320, Note Name: G#2, Velocity: 44
Note ON: Time 180320, Note Name: D#3, Velocity: 44
Note OFF: Time 180400, Note Name: D#3
Note OFF: Time 180400, Note Name: G#2
Note OFF: Time 180400, Note Name: G#3
Note ON: Time 180480, Note Name: G#3, Velocity: 56
Note ON: Time 180480, Note Name: D#3, Velocity: 46
Note ON: Time 180480, Note Name: G#2, Velocity: 46
Note OFF: Time 180640, Note Name: G#2
Note OFF: Time 180640, Note Name: D#3
Note OFF: Time 180640, Note Name: G#3
Note ON: Time 180640, Note Name: C#3, Velocity: 39
Note ON: Time 180640, Note Name: G#3, Velocity: 47
Note OFF: Time 180720, Note Name: G#3
Note OFF: Time 180720, Note Name: C#3
Note ON: Time 180800, Note Name: G3, Velocity: 36
Note ON: Time 180800, Note Name: C#4, Velocity: 41
Note OFF: Time 180880, Note Name: C#4
Note OFF: Time 180880, Note Name: G3
Note ON: Time 180960, Note Name: G3, Velocity: 37
Note ON: Time 180960, Note Name: C#4, Velocity: 44
Note OFF: Time 181120, Note Name: C#4
Note OFF: Time 181120, Note Name: G3
Note ON: Time 181120, Note Name: G#3, Velocity: 34
Note ON: Time 181120, Note Name: C4, Velocity: 41
Note OFF: Time 181200, Note Name: C4
Note OFF: Time 181200, Note Name: G#3
Note ON: Time 181280, Note Name: D#4, Velocity: 29
Note ON: Time 181280, Note Name: G#4, Velocity: 36
Note ON: Time 181280, Note Name: G#3, Velocity: 29
Note OFF: Time 181360, Note Name: G#3
Note OFF: Time 181360, Note Name: G#4
Note OFF: Time 181360, Note Name: D#4
Note ON: Time 181440, Note Name: G#4, Velocity: 39
Note ON: Time 181440, Note Name: D#4, Velocity: 33
Note ON: Time 181440, Note Name: G#3, Velocity: 33
Note OFF: Time 181600, Note Name: G#3
Note OFF: Time 181600, Note Name: D#4
Note OFF: Time 181600, Note Name: G#4
Note ON: Time 181600, Note Name: C#4, Velocity: 29
Note ON: Time 181600, Note Name: G#4, Velocity: 36
Note OFF: Time 181680, Note Name: G#4
Note OFF: Time 181680, Note Name: C#4
Note ON: Time 181760, Note Name: G4, Velocity: 36
Note ON: Time 181760, Note Name: C#5, Velocity: 36
Note OFF: Time 181840, Note Name: C#5
Note OFF: Time 181840, Note Name: G4
Note ON: Time 181920, Note Name: G4, Velocity: 39
Note ON: Time 181920, Note Name: C#5, Velocity: 39
Note OFF: Time 182080, Note Name: C#5
Note OFF: Time 182080, Note Name: G4
Note ON: Time 182080, Note Name: C5, Velocity: 36
Note ON: Time 182080, Note Name: G#4, Velocity: 29
Note OFF: Time 182160, Note Name: G#4
Note OFF: Time 182160, Note Name: C5
Note ON: Time 182240, Note Name: G#4, Velocity: 26
Note ON: Time 182240, Note Name: D#5, Velocity: 26
Note ON: Time 182240, Note Name: G#5, Velocity: 31
Note OFF: Time 182320, Note Name: G#5
Note OFF: Time 182320, Note Name: D#5
Note OFF: Time 182320, Note Name: G#4
Note ON: Time 182400, Note Name: G#5, Velocity: 35
Note ON: Time 182400, Note Name: D#5, Velocity: 29
Note ON: Time 182400, Note Name: G#4, Velocity: 29
Note OFF: Time 182560, Note Name: G#4
Note OFF: Time 182560, Note Name: D#5
Note OFF: Time 182560, Note Name: G#5
Note ON: Time 182560, Note Name: C#5, Velocity: 26
Note ON: Time 182560, Note Name: G#5, Velocity: 31
Note OFF: Time 182640, Note Name: G#5
Note OFF: Time 182640, Note Name: C#5
Note ON: Time 182720, Note Name: C#5, Velocity: 39
Note ON: Time 182720, Note Name: G4, Velocity: 33
Note OFF: Time 182800, Note Name: G4
Note OFF: Time 182800, Note Name: C#5
Note ON: Time 182880, Note Name: G4, Velocity: 35
Note ON: Time 182880, Note Name: C#5, Velocity: 41
Note OFF: Time 183040, Note Name: C#5
Note OFF: Time 183040, Note Name: G4
Note ON: Time 183040, Note Name: G#4, Velocity: 33
Note ON: Time 183040, Note Name: C5, Velocity: 39
Note OFF: Time 183120, Note Name: C5
Note OFF: Time 183120, Note Name: G#4
Note ON: Time 183200, Note Name: G#4, Velocity: 39
Note ON: Time 183200, Note Name: D#4, Velocity: 33
Note ON: Time 183200, Note Name: G#3, Velocity: 33
Note OFF: Time 183280, Note Name: G#3
Note OFF: Time 183280, Note Name: D#4
Note OFF: Time 183280, Note Name: G#4
Note ON: Time 183360, Note Name: D#4, Velocity: 35
Note ON: Time 183360, Note Name: G#4, Velocity: 41
Note ON: Time 183360, Note Name: G#3, Velocity: 35
Note OFF: Time 183520, Note Name: G#3
Note OFF: Time 183520, Note Name: G#4
Note OFF: Time 183520, Note Name: D#4
Note ON: Time 183520, Note Name: C#4, Velocity: 33
Note ON: Time 183520, Note Name: G#4, Velocity: 39
Note OFF: Time 183600, Note Name: G#4
Note OFF: Time 183600, Note Name: C#4
Note ON: Time 183680, Note Name: G3, Velocity: 33
Note ON: Time 183680, Note Name: C#4, Velocity: 39
Note OFF: Time 183760, Note Name: C#4
Note OFF: Time 183760, Note Name: G3
Note ON: Time 183840, Note Name: G3, Velocity: 35
Note ON: Time 183840, Note Name: C#4, Velocity: 41
Note OFF: Time 184000, Note Name: C#4
Note OFF: Time 184000, Note Name: G3
Note ON: Time 184000, Note Name: G#3, Velocity: 33
Note ON: Time 184000, Note Name: C4, Velocity: 39
Note OFF: Time 184080, Note Name: C4
Note OFF: Time 184080, Note Name: G#3
Note ON: Time 184160, Note Name: G#2, Velocity: 41
Note ON: Time 184160, Note Name: G#3, Velocity: 49
Note OFF: Time 184240, Note Name: G#3
Note OFF: Time 184240, Note Name: G#2
Note ON: Time 184320, Note Name: G#2, Velocity: 39
Note ON: Time 184320, Note Name: G#3, Velocity: 47
Note OFF: Time 184480, Note Name: G#3
Note OFF: Time 184480, Note Name: G#2
Note ON: Time 184480, Note Name: G2, Velocity: 33
Note ON: Time 184480, Note Name: G3, Velocity: 39
Note OFF: Time 184560, Note Name: G3
Note OFF: Time 184560, Note Name: G2
Note ON: Time 184640, Note Name: G3, Velocity: 38
Note ON: Time 184640, Note Name: A3, Velocity: 45
Note OFF: Time 184720, Note Name: A3
Note OFF: Time 184720, Note Name: G3
Note ON: Time 184800, Note Name: A3, Velocity: 47
Note ON: Time 184800, Note Name: G3, Velocity: 39
Note OFF: Time 184960, Note Name: G3
Note OFF: Time 184960, Note Name: A3
Note ON: Time 184960, Note Name: B3, Velocity: 39
Note ON: Time 184960, Note Name: G3, Velocity: 31
Note OFF: Time 185040, Note Name: G3
Note OFF: Time 185040, Note Name: B3
Note ON: Time 185120, Note Name: D4, Velocity: 44
Note ON: Time 185120, Note Name: G3, Velocity: 36
Note OFF: Time 185200, Note Name: G3
Note OFF: Time 185200, Note Name: D4
Note ON: Time 185280, Note Name: D4, Velocity: 47
Note ON: Time 185280, Note Name: G3, Velocity: 39
Note OFF: Time 185440, Note Name: G3
Note OFF: Time 185440, Note Name: D4
Note ON: Time 185440, Note Name: G3, Velocity: 34
Note ON: Time 185440, Note Name: C4, Velocity: 34
Note ON: Time 185440, Note Name: E4, Velocity: 41
Note OFF: Time 185520, Note Name: E4
Note OFF: Time 185520, Note Name: C4
Note OFF: Time 185520, Note Name: G3
Note ON: Time 185600, Note Name: A4, Velocity: 44
Note ON: Time 185600, Note Name: G3, Velocity: 44
Note ON: Time 185600, Note Name: D4, Velocity: 44
Note OFF: Time 185680, Note Name: D4
Note OFF: Time 185680, Note Name: G3
Note OFF: Time 185680, Note Name: A4
Note ON: Time 185760, Note Name: A4, Velocity: 47
Note ON: Time 185760, Note Name: G3, Velocity: 47
Note ON: Time 185760, Note Name: D4, Velocity: 47
Note OFF: Time 185920, Note Name: D4
Note OFF: Time 185920, Note Name: G3
Note OFF: Time 185920, Note Name: A4
Note ON: Time 185920, Note Name: D4, Velocity: 34
Note ON: Time 185920, Note Name: G4, Velocity: 41
Note ON: Time 185920, Note Name: G3, Velocity: 44
Note OFF: Time 186000, Note Name: G3
Note OFF: Time 186000, Note Name: G4
Note OFF: Time 186000, Note Name: D4
Note ON: Time 186080, Note Name: D4, Velocity: 36
Note ON: Time 186080, Note Name: G3, Velocity: 47
Note ON: Time 186080, Note Name: G4, Velocity: 44
Note OFF: Time 186160, Note Name: G4
Note OFF: Time 186160, Note Name: G3
Note OFF: Time 186160, Note Name: D4
Note ON: Time 186240, Note Name: G3, Velocity: 39
Note ON: Time 186240, Note Name: G4, Velocity: 47
Note ON: Time 186240, Note Name: D4, Velocity: 39
Note OFF: Time 186400, Note Name: D4
Note OFF: Time 186400, Note Name: G4
Note OFF: Time 186400, Note Name: G3
Note ON: Time 186400, Note Name: G#4, Velocity: 49
Note ON: Time 186400, Note Name: D4, Velocity: 34
Note OFF: Time 186560, Note Name: D4
Note OFF: Time 186560, Note Name: G#4
Note ON: Time 186560, Note Name: F3, Velocity: 61
Note OFF: Time 186720, Note Name: F3
Note ON: Time 186720, Note Name: F4, Velocity: 56
Note ON: Time 186720, Note Name: G#3, Velocity: 47
Note OFF: Time 186880, Note Name: G#3
Note OFF: Time 186880, Note Name: F4
Note ON: Time 186880, Note Name: D3, Velocity: 62
Note OFF: Time 187040, Note Name: D3
Note ON: Time 187040, Note Name: G#3, Velocity: 49
Note ON: Time 187040, Note Name: D4, Velocity: 59
Note OFF: Time 187200, Note Name: D4
Note OFF: Time 187200, Note Name: G#3
Note ON: Time 187200, Note Name: B2, Velocity: 64
Note OFF: Time 187360, Note Name: B2
Note ON: Time 187360, Note Name: F3, Velocity: 50
Note ON: Time 187360, Note Name: B3, Velocity: 60
Note OFF: Time 187520, Note Name: B3
Note OFF: Time 187520, Note Name: F3
Note ON: Time 187520, Note Name: G#2, Velocity: 69
Note OFF: Time 187680, Note Name: G#2
Note ON: Time 187680, Note Name: D3, Velocity: 53
Note ON: Time 187680, Note Name: G#3, Velocity: 64
Note OFF: Time 187840, Note Name: G#3
Note OFF: Time 187840, Note Name: D3
Note ON: Time 187840, Note Name: F2, Velocity: 77
Note OFF: Time 188000, Note Name: F2
Note ON: Time 188000, Note Name: F1, Velocity: 69
Note ON: Time 188000, Note Name: F2, Velocity: 69
Note OFF: Time 188160, Note Name: F2
Note OFF: Time 188160, Note Name: F1
Note ON: Time 188160, Note Name: E2, Velocity: 42
Note ON: Time 188160, Note Name: E1, Velocity: 42
Note OFF: Time 188320, Note Name: E1
Note OFF: Time 188320, Note Name: E2
Note ON: Time 188320, Note Name: E3, Velocity: 50
Note ON: Time 188320, Note Name: E2, Velocity: 36
Note OFF: Time 188480, Note Name: E2
Note OFF: Time 188480, Note Name: E3
Note ON: Time 188480, Note Name: E3, Velocity: 48
Note ON: Time 188480, Note Name: E2, Velocity: 40
Note OFF: Time 188640, Note Name: E2
Note OFF: Time 188640, Note Name: E3
Note ON: Time 188640, Note Name: E3, Velocity: 48
Note ON: Time 188640, Note Name: E2, Velocity: 40
Note OFF: Time 188800, Note Name: E2
Note OFF: Time 188800, Note Name: E3
Note ON: Time 188800, Note Name: E2, Velocity: 40
Note ON: Time 188800, Note Name: E3, Velocity: 48
Note OFF: Time 188960, Note Name: E3
Note OFF: Time 188960, Note Name: E2
Note ON: Time 188960, Note Name: E2, Velocity: 41
Note ON: Time 188960, Note Name: E3, Velocity: 49
Note OFF: Time 189120, Note Name: E3
Note OFF: Time 189120, Note Name: E2
Note ON: Time 189120, Note Name: E2, Velocity: 38
Note ON: Time 189120, Note Name: E3, Velocity: 55
Note OFF: Time 189280, Note Name: E3
Note OFF: Time 189280, Note Name: E2
Note ON: Time 189280, Note Name: D#2, Velocity: 44
Note ON: Time 189280, Note Name: D#3, Velocity: 52
Note OFF: Time 189440, Note Name: D#3
Note OFF: Time 189440, Note Name: D#2
Note ON: Time 189440, Note Name: D#2, Velocity: 44
Note ON: Time 189440, Note Name: D#3, Velocity: 52
Note OFF: Time 189600, Note Name: D#3
Note OFF: Time 189600, Note Name: D#2
Note ON: Time 189600, Note Name: D#2, Velocity: 47
Note ON: Time 189600, Note Name: D#3, Velocity: 56
Note OFF: Time 189760, Note Name: D#3
Note OFF: Time 189760, Note Name: D#2
Note ON: Time 189760, Note Name: E2, Velocity: 44
Note ON: Time 189760, Note Name: E3, Velocity: 52
Note OFF: Time 189920, Note Name: E3
Note OFF: Time 189920, Note Name: E2
Note ON: Time 189920, Note Name: E3, Velocity: 52
Note ON: Time 189920, Note Name: E2, Velocity: 44
Note OFF: Time 190080, Note Name: E2
Note OFF: Time 190080, Note Name: E3
Note ON: Time 190080, Note Name: E2, Velocity: 46
Note ON: Time 190080, Note Name: E3, Velocity: 56
Note OFF: Time 190160, Note Name: E3
Note OFF: Time 190160, Note Name: E2
Note ON: Time 190240, Note Name: E2, Velocity: 47
Note ON: Time 190240, Note Name: E3, Velocity: 57
Note OFF: Time 190320, Note Name: E3
Note OFF: Time 190320, Note Name: E2
Note ON: Time 190400, Note Name: E2, Velocity: 48
Note ON: Time 190400, Note Name: E3, Velocity: 58
Note OFF: Time 190480, Note Name: E3
Note OFF: Time 190480, Note Name: E2
Note ON: Time 190560, Note Name: E2, Velocity: 49
Note ON: Time 190560, Note Name: E3, Velocity: 58
Note OFF: Time 190640, Note Name: E3
Note OFF: Time 190640, Note Name: E2
Note ON: Time 190720, Note Name: E2, Velocity: 50
Note ON: Time 190720, Note Name: E3, Velocity: 59
Note OFF: Time 190800, Note Name: E3
Note OFF: Time 190800, Note Name: E2
Note ON: Time 190880, Note Name: E3, Velocity: 61
Note ON: Time 190880, Note Name: E2, Velocity: 51
Note OFF: Time 190960, Note Name: E2
Note OFF: Time 190960, Note Name: E3
Note ON: Time 191040, Note Name: E2, Velocity: 52
Note ON: Time 191040, Note Name: E3, Velocity: 62
Note OFF: Time 191120, Note Name: E3
Note OFF: Time 191120, Note Name: E2
Note ON: Time 191200, Note Name: D#2, Velocity: 52
Note ON: Time 191200, Note Name: D#3, Velocity: 62
Note OFF: Time 191280, Note Name: D#3
Note OFF: Time 191280, Note Name: D#2
Note ON: Time 191360, Note Name: D#2, Velocity: 53
Note ON: Time 191360, Note Name: D#3, Velocity: 63
Note OFF: Time 191440, Note Name: D#3
Note OFF: Time 191440, Note Name: D#2
Note ON: Time 191520, Note Name: D#3, Velocity: 64
Note ON: Time 191520, Note Name: D#2, Velocity: 53
Note OFF: Time 191600, Note Name: D#2
Note OFF: Time 191600, Note Name: D#3
Note ON: Time 191680, Note Name: E3, Velocity: 66
Note ON: Time 191680, Note Name: E2, Velocity: 55
Note OFF: Time 191760, Note Name: E2
Note OFF: Time 191760, Note Name: E3
Note ON: Time 191840, Note Name: E3, Velocity: 67
Note ON: Time 191840, Note Name: E2, Velocity: 56
Note OFF: Time 191920, Note Name: E2
Note OFF: Time 191920, Note Name: E3
Note ON: Time 192000, Note Name: F3, Velocity: 74
Note ON: Time 192000, Note Name: F2, Velocity: 52
Note OFF: Time 192080, Note Name: F2
Note OFF: Time 192080, Note Name: F3
Note ON: Time 192160, Note Name: G#3, Velocity: 50
Note ON: Time 192160, Note Name: C#3, Velocity: 50
Note ON: Time 192160, Note Name: C#4, Velocity: 71
Note OFF: Time 192320, Note Name: C#4
Note OFF: Time 192320, Note Name: C#3
Note OFF: Time 192320, Note Name: G#3
Note ON: Time 192320, Note Name: G#3, Velocity: 51
Note ON: Time 192320, Note Name: C#3, Velocity: 51
Note ON: Time 192320, Note Name: C#4, Velocity: 72
Note OFF: Time 192480, Note Name: C#4
Note OFF: Time 192480, Note Name: C#3
Note OFF: Time 192480, Note Name: G#3
Note ON: Time 192480, Note Name: C#3, Velocity: 53
Note ON: Time 192480, Note Name: G#3, Velocity: 53
Note ON: Time 192480, Note Name: C#4, Velocity: 75
Note OFF: Time 192640, Note Name: C#4
Note OFF: Time 192640, Note Name: G#3
Note OFF: Time 192640, Note Name: C#3
Note ON: Time 192960, Note Name: F#1, Velocity: 68
Note ON: Time 192960, Note Name: F#2, Velocity: 96
Note OFF: Time 193120, Note Name: F#2
Note OFF: Time 193120, Note Name: F#1
Note ON: Time 193120, Note Name: C#3, Velocity: 50
Note ON: Time 193120, Note Name: F#3, Velocity: 50
Note ON: Time 193120, Note Name: C#4, Velocity: 71
Note OFF: Time 193280, Note Name: C#4
Note OFF: Time 193280, Note Name: F#3
Note OFF: Time 193280, Note Name: C#3
Note ON: Time 193280, Note Name: F#3, Velocity: 51
Note ON: Time 193280, Note Name: C#3, Velocity: 51
Note ON: Time 193280, Note Name: C#4, Velocity: 72
Note OFF: Time 193440, Note Name: C#4
Note OFF: Time 193440, Note Name: C#3
Note OFF: Time 193440, Note Name: F#3
Note ON: Time 193440, Note Name: C#3, Velocity: 53
Note ON: Time 193440, Note Name: F#3, Velocity: 53
Note ON: Time 193440, Note Name: C#4, Velocity: 75
Note OFF: Time 193600, Note Name: C#4
Note OFF: Time 193600, Note Name: F#3
Note OFF: Time 193600, Note Name: C#3
Note ON: Time 193920, Note Name: G#1, Velocity: 68
Note ON: Time 193920, Note Name: G#2, Velocity: 96
Note OFF: Time 194080, Note Name: G#2
Note OFF: Time 194080, Note Name: G#1
Note ON: Time 194080, Note Name: G#3, Velocity: 50
Note ON: Time 194080, Note Name: C#4, Velocity: 71
Note ON: Time 194080, Note Name: C#3, Velocity: 50
Note OFF: Time 194240, Note Name: C#3
Note OFF: Time 194240, Note Name: C#4
Note OFF: Time 194240, Note Name: G#3
Note ON: Time 194240, Note Name: C#4, Velocity: 72
Note ON: Time 194240, Note Name: C#3, Velocity: 51
Note ON: Time 194240, Note Name: G#3, Velocity: 51
Note OFF: Time 194400, Note Name: G#3
Note OFF: Time 194400, Note Name: C#3
Note OFF: Time 194400, Note Name: C#4
Note ON: Time 194400, Note Name: C#4, Velocity: 75
Note ON: Time 194400, Note Name: G#3, Velocity: 53
Note ON: Time 194400, Note Name: C#3, Velocity: 53
Note OFF: Time 194560, Note Name: C#3
Note OFF: Time 194560, Note Name: G#3
Note OFF: Time 194560, Note Name: C#4
Note ON: Time 194880, Note Name: A#1, Velocity: 68
Note ON: Time 194880, Note Name: A#2, Velocity: 96
Note OFF: Time 195040, Note Name: A#2
Note OFF: Time 195040, Note Name: A#1
Note ON: Time 195040, Note Name: A#3, Velocity: 50
Note ON: Time 195040, Note Name: D#3, Velocity: 50
Note ON: Time 195040, Note Name: C#4, Velocity: 71
Note OFF: Time 195200, Note Name: C#4
Note OFF: Time 195200, Note Name: D#3
Note OFF: Time 195200, Note Name: A#3
Note ON: Time 195200, Note Name: C#4, Velocity: 72
Note ON: Time 195200, Note Name: D#3, Velocity: 51
Note ON: Time 195200, Note Name: A#3, Velocity: 51
Note OFF: Time 195360, Note Name: A#3
Note OFF: Time 195360, Note Name: D#3
Note OFF: Time 195360, Note Name: C#4
Note ON: Time 195360, Note Name: C#4, Velocity: 75
Note ON: Time 195360, Note Name: A#3, Velocity: 53
Note ON: Time 195360, Note Name: D#3, Velocity: 53
Note OFF: Time 195520, Note Name: D#3
Note OFF: Time 195520, Note Name: A#3
Note OFF: Time 195520, Note Name: C#4
Note ON: Time 195840, Note Name: D#1, Velocity: 59
Note ON: Time 195840, Note Name: D#2, Velocity: 70
Note OFF: Time 197760, Note Name: D#2
Note OFF: Time 197760, Note Name: D#1
Note ON: Time 197760, Note Name: G#1, Velocity: 56
Note ON: Time 197760, Note Name: G#2, Velocity: 66
Note OFF: Time 199680, Note Name: G#2
Note OFF: Time 199680, Note Name: G#1
Note ON: Time 199680, Note Name: A2, Velocity: 66
Note ON: Time 199680, Note Name: A1, Velocity: 56
Note OFF: Time 199800, Note Name: A1
Note OFF: Time 199800, Note Name: A2
Note ON: Time 199800, Note Name: F#2, Velocity: 60
Note ON: Time 199800, Note Name: F#1, Velocity: 50
Note OFF: Time 199920, Note Name: F#1
Note OFF: Time 199920, Note Name: F#2
Note ON: Time 200040, Note Name: G#1, Velocity: 56
Note ON: Time 200040, Note Name: G#2, Velocity: 66
Note OFF: Time 200160, Note Name: G#2
Note OFF: Time 200160, Note Name: G#1
Note ON: Time 200160, Note Name: A1, Velocity: 52
Note ON: Time 200160, Note Name: A2, Velocity: 62
Note OFF: Time 200280, Note Name: A2
Note OFF: Time 200280, Note Name: A1
Note ON: Time 200280, Note Name: F#1, Velocity: 52
Note ON: Time 200280, Note Name: F#2, Velocity: 62
Note OFF: Time 200400, Note Name: F#2
Note OFF: Time 200400, Note Name: F#1
Note ON: Time 200640, Note Name: A1, Velocity: 37
Note ON: Time 200640, Note Name: A2, Velocity: 44
Note OFF: Time 200760, Note Name: A2
Note OFF: Time 200760, Note Name: A1
Note ON: Time 200760, Note Name: F#1, Velocity: 33
Note ON: Time 200760, Note Name: F#2, Velocity: 39
Note OFF: Time 200880, Note Name: F#2
Note OFF: Time 200880, Note Name: F#1
Note ON: Time 201000, Note Name: G#1, Velocity: 37
Note ON: Time 201000, Note Name: G#2, Velocity: 44
Note OFF: Time 201120, Note Name: G#2
Note OFF: Time 201120, Note Name: G#1
Note ON: Time 201120, Note Name: A1, Velocity: 33
Note ON: Time 201120, Note Name: A2, Velocity: 39
Note OFF: Time 201240, Note Name: A2
Note OFF: Time 201240, Note Name: A1
Note ON: Time 201240, Note Name: F#1, Velocity: 33
Note ON: Time 201240, Note Name: F#2, Velocity: 39
Note OFF: Time 201360, Note Name: F#2
Note OFF: Time 201360, Note Name: F#1
Note ON: Time 201600, Note Name: A1, Velocity: 37
Note ON: Time 201600, Note Name: A2, Velocity: 44
Note OFF: Time 201720, Note Name: A2
Note OFF: Time 201720, Note Name: A1
Note ON: Time 201720, Note Name: F#1, Velocity: 34
Note ON: Time 201720, Note Name: F#2, Velocity: 39
Note OFF: Time 201840, Note Name: F#2
Note OFF: Time 201840, Note Name: F#1
Note ON: Time 201960, Note Name: G#1, Velocity: 37
Note ON: Time 201960, Note Name: G#2, Velocity: 44
Note OFF: Time 202080, Note Name: G#2
Note OFF: Time 202080, Note Name: G#1
Note ON: Time 202080, Note Name: A1, Velocity: 34
Note ON: Time 202080, Note Name: A2, Velocity: 39
Note OFF: Time 202200, Note Name: A2
Note OFF: Time 202200, Note Name: A1
Note ON: Time 202200, Note Name: F#2, Velocity: 34
Note ON: Time 202200, Note Name: F#3, Velocity: 39
Note OFF: Time 202320, Note Name: F#3
Note OFF: Time 202320, Note Name: F#2
Note ON: Time 202560, Note Name: F#3, Velocity: 41
Note OFF: Time 203040, Note Name: F#3
Note ON: Time 203040, Note Name: D2, Velocity: 34
Note OFF: Time 203520, Note Name: D2
Note ON: Time 203520, Note Name: G2, Velocity: 30
Note ON: Time 203520, Note Name: D3, Velocity: 30
Note ON: Time 203520, Note Name: G3, Velocity: 37
Note OFF: Time 204480, Note Name: G3
Note OFF: Time 204480, Note Name: D3
Note OFF: Time 204480, Note Name: G2
Note ON: Time 204480, Note Name: D2, Velocity: 33
Note ON: Time 204480, Note Name: D3, Velocity: 39
Note OFF: Time 204840, Note Name: D3
Note OFF: Time 204840, Note Name: D2
Note ON: Time 204840, Note Name: G1, Velocity: 29
Note ON: Time 204840, Note Name: G2, Velocity: 35
Note OFF: Time 204960, Note Name: G2
Note OFF: Time 204960, Note Name: G1
Note ON: Time 204960, Note Name: G1, Velocity: 30
Note ON: Time 204960, Note Name: G2, Velocity: 37
Note OFF: Time 205440, Note Name: G2
Note OFF: Time 205440, Note Name: G1
Note ON: Time 205440, Note Name: D2, Velocity: 39
Note OFF: Time 205560, Note Name: D2
Note ON: Time 205560, Note Name: G1, Velocity: 36
Note OFF: Time 205680, Note Name: G1
Note ON: Time 205800, Note Name: A1, Velocity: 39
Note OFF: Time 205920, Note Name: A1
Note ON: Time 205920, Note Name: B1, Velocity: 36
Note OFF: Time 206040, Note Name: B1
Note ON: Time 206040, Note Name: G1, Velocity: 36
Note OFF: Time 206160, Note Name: G1
Note ON: Time 206400, Note Name: D3, Velocity: 41
Note ON: Time 206400, Note Name: D2, Velocity: 35
Note OFF: Time 206520, Note Name: D2
Note OFF: Time 206520, Note Name: D3
Note ON: Time 206520, Note Name: G2, Velocity: 39
Note ON: Time 206520, Note Name: G1, Velocity: 31
Note OFF: Time 206640, Note Name: G1
Note OFF: Time 206640, Note Name: G2
Note ON: Time 206760, Note Name: A2, Velocity: 42
Note ON: Time 206760, Note Name: A1, Velocity: 36
Note OFF: Time 206880, Note Name: A1
Note OFF: Time 206880, Note Name: A2
Note ON: Time 206880, Note Name: B2, Velocity: 39
Note ON: Time 206880, Note Name: B1, Velocity: 33
Note OFF: Time 207000, Note Name: B1
Note OFF: Time 207000, Note Name: B2
Note ON: Time 207000, Note Name: G2, Velocity: 39
Note ON: Time 207000, Note Name: G1, Velocity: 33
Note OFF: Time 207120, Note Name: G1
Note OFF: Time 207120, Note Name: G2
Note ON: Time 207360, Note Name: D3, Velocity: 46
Note ON: Time 207360, Note Name: D2, Velocity: 38
Note OFF: Time 207480, Note Name: D2
Note OFF: Time 207480, Note Name: D3
Note ON: Time 207480, Note Name: G#2, Velocity: 42
Note ON: Time 207480, Note Name: G#1, Velocity: 36
Note OFF: Time 207600, Note Name: G#1
Note OFF: Time 207600, Note Name: G#2
Note ON: Time 207720, Note Name: A2, Velocity: 47
Note ON: Time 207720, Note Name: A1, Velocity: 40
Note OFF: Time 207840, Note Name: A1
Note OFF: Time 207840, Note Name: A2
Note ON: Time 207840, Note Name: B2, Velocity: 42
Note ON: Time 207840, Note Name: B1, Velocity: 36
Note OFF: Time 207960, Note Name: B1
Note OFF: Time 207960, Note Name: B2
Note ON: Time 207960, Note Name: G#2, Velocity: 45
Note ON: Time 207960, Note Name: G#1, Velocity: 37
Note OFF: Time 208080, Note Name: G#1
Note OFF: Time 208080, Note Name: G#2
Note ON: Time 208320, Note Name: D3, Velocity: 58
Note ON: Time 208320, Note Name: D2, Velocity: 48
Note OFF: Time 208440, Note Name: D2
Note OFF: Time 208440, Note Name: D3
Note ON: Time 208440, Note Name: G#2, Velocity: 53
Note ON: Time 208440, Note Name: G#1, Velocity: 45
Note OFF: Time 208560, Note Name: G#1
Note OFF: Time 208560, Note Name: G#2
Note ON: Time 208680, Note Name: A2, Velocity: 60
Note ON: Time 208680, Note Name: A1, Velocity: 49
Note OFF: Time 208800, Note Name: A1
Note OFF: Time 208800, Note Name: A2
Note ON: Time 208800, Note Name: B2, Velocity: 53
Note ON: Time 208800, Note Name: B1, Velocity: 46
Note OFF: Time 208920, Note Name: B1
Note OFF: Time 208920, Note Name: B2
Note ON: Time 208920, Note Name: G#2, Velocity: 56
Note ON: Time 208920, Note Name: G#1, Velocity: 47
Note OFF: Time 209040, Note Name: G#1
Note OFF: Time 209040, Note Name: G#2
Note ON: Time 209280, Note Name: D3, Velocity: 63
Note ON: Time 209280, Note Name: D2, Velocity: 52
Note OFF: Time 209400, Note Name: D2
Note OFF: Time 209400, Note Name: D3
Note ON: Time 209400, Note Name: B2, Velocity: 58
Note ON: Time 209400, Note Name: B1, Velocity: 49
Note OFF: Time 209520, Note Name: B1
Note OFF: Time 209520, Note Name: B2
Note ON: Time 209640, Note Name: C#3, Velocity: 67
Note ON: Time 209640, Note Name: C#2, Velocity: 57
Note OFF: Time 209760, Note Name: C#2
Note OFF: Time 209760, Note Name: C#3
Note ON: Time 209760, Note Name: D3, Velocity: 60
Note ON: Time 209760, Note Name: D2, Velocity: 51
Note OFF: Time 209880, Note Name: D2
Note OFF: Time 209880, Note Name: D3
Note ON: Time 209880, Note Name: B3, Velocity: 62
Note ON: Time 209880, Note Name: B2, Velocity: 52
Note OFF: Time 210000, Note Name: B2
Note OFF: Time 210000, Note Name: B3
Note ON: Time 210240, Note Name: G#3, Velocity: 40
Note OFF: Time 210720, Note Name: G#3
Note ON: Time 210720, Note Name: E2, Velocity: 36
Note OFF: Time 211200, Note Name: E2
Note ON: Time 211200, Note Name: A2, Velocity: 33
Note ON: Time 211200, Note Name: E3, Velocity: 33
Note ON: Time 211200, Note Name: A3, Velocity: 39
Note OFF: Time 211680, Note Name: E3
Note ON: Time 211680, Note Name: F3, Velocity: 33
Note OFF: Time 212160, Note Name: A3
Note OFF: Time 212160, Note Name: A2
Note ON: Time 212160, Note Name: A1, Velocity: 33
Note ON: Time 212160, Note Name: A2, Velocity: 39
Note OFF: Time 212280, Note Name: A2
Note OFF: Time 212280, Note Name: A1
Note ON: Time 212280, Note Name: F1, Velocity: 29
Note ON: Time 212280, Note Name: F2, Velocity: 36
Note OFF: Time 212400, Note Name: F2
Note OFF: Time 212400, Note Name: F1
Note ON: Time 212520, Note Name: G1, Velocity: 33
Note ON: Time 212520, Note Name: G2, Velocity: 39
Note OFF: Time 212640, Note Name: G2
Note OFF: Time 212640, Note Name: G1
Note ON: Time 212640, Note Name: A1, Velocity: 29
Note ON: Time 212640, Note Name: A2, Velocity: 35
Note OFF: Time 212760, Note Name: A2
Note OFF: Time 212760, Note Name: A1
Note ON: Time 212760, Note Name: F1, Velocity: 29
Note ON: Time 212760, Note Name: F2, Velocity: 35
Note OFF: Time 212880, Note Name: F2
Note OFF: Time 212880, Note Name: F1
Note OFF: Time 213120, Note Name: F3
Note ON: Time 213120, Note Name: A2, Velocity: 31
Note ON: Time 213120, Note Name: F3, Velocity: 38
Note OFF: Time 213600, Note Name: F3
Note ON: Time 213600, Note Name: F#3, Velocity: 39
Note OFF: Time 214080, Note Name: F#3
Note OFF: Time 214080, Note Name: A2
Note ON: Time 214080, Note Name: B2, Velocity: 35
Note ON: Time 214080, Note Name: F#3, Velocity: 41
Note OFF: Time 214560, Note Name: F#3
Note ON: Time 214560, Note Name: G3, Velocity: 42
Note OFF: Time 215040, Note Name: G3
Note OFF: Time 215040, Note Name: B2
Note ON: Time 215040, Note Name: B1, Velocity: 35
Note ON: Time 215040, Note Name: B2, Velocity: 41
Note OFF: Time 215160, Note Name: B2
Note OFF: Time 215160, Note Name: B1
Note ON: Time 215160, Note Name: G1, Velocity: 31
Note ON: Time 215160, Note Name: G2, Velocity: 38
Note OFF: Time 215280, Note Name: G2
Note OFF: Time 215280, Note Name: G1
Note ON: Time 215400, Note Name: A1, Velocity: 38
Note ON: Time 215400, Note Name: A2, Velocity: 46
Note OFF: Time 215520, Note Name: A2
Note OFF: Time 215520, Note Name: A1
Note ON: Time 215520, Note Name: B1, Velocity: 35
Note ON: Time 215520, Note Name: B2, Velocity: 41
Note OFF: Time 215640, Note Name: B2
Note OFF: Time 215640, Note Name: B1
Note ON: Time 215640, Note Name: G1, Velocity: 36
Note ON: Time 215640, Note Name: G2, Velocity: 42
Note OFF: Time 215760, Note Name: G2
Note OFF: Time 215760, Note Name: G1
Note ON: Time 216000, Note Name: C2, Velocity: 35
Note ON: Time 216000, Note Name: C3, Velocity: 41
Note OFF: Time 216120, Note Name: C3
Note OFF: Time 216120, Note Name: C2
Note ON: Time 216120, Note Name: G1, Velocity: 31
Note ON: Time 216120, Note Name: G2, Velocity: 38
Note OFF: Time 216240, Note Name: G2
Note OFF: Time 216240, Note Name: G1
Note ON: Time 216360, Note Name: C2, Velocity: 38
Note ON: Time 216360, Note Name: C3, Velocity: 46
Note OFF: Time 216480, Note Name: C3
Note OFF: Time 216480, Note Name: C2
Note ON: Time 216480, Note Name: D2, Velocity: 35
Note ON: Time 216480, Note Name: D3, Velocity: 41
Note OFF: Time 216600, Note Name: D3
Note OFF: Time 216600, Note Name: D2
Note ON: Time 216600, Note Name: G1, Velocity: 36
Note ON: Time 216600, Note Name: G2, Velocity: 42
Note OFF: Time 216720, Note Name: G2
Note OFF: Time 216720, Note Name: G1
Note ON: Time 216960, Note Name: D#2, Velocity: 29
Note ON: Time 216960, Note Name: D#3, Velocity: 35
Note OFF: Time 217080, Note Name: D#3
Note OFF: Time 217080, Note Name: D#2
Note ON: Time 217080, Note Name: G1, Velocity: 26
Note ON: Time 217080, Note Name: G2, Velocity: 31
Note OFF: Time 217200, Note Name: G2
Note OFF: Time 217200, Note Name: G1
Note ON: Time 217320, Note Name: D2, Velocity: 29
Note ON: Time 217320, Note Name: D3, Velocity: 35
Note OFF: Time 217440, Note Name: D3
Note OFF: Time 217440, Note Name: D2
Note ON: Time 217440, Note Name: D#2, Velocity: 26
Note ON: Time 217440, Note Name: D#3, Velocity: 30
Note OFF: Time 217560, Note Name: D#3
Note OFF: Time 217560, Note Name: D#2
Note ON: Time 217560, Note Name: G#2, Velocity: 26
Note ON: Time 217560, Note Name: G#3, Velocity: 30
Note OFF: Time 217680, Note Name: G#3
Note OFF: Time 217680, Note Name: G#2
Note ON: Time 217920, Note Name: F2, Velocity: 29
Note ON: Time 217920, Note Name: F3, Velocity: 35
Note OFF: Time 218040, Note Name: F3
Note OFF: Time 218040, Note Name: F2
Note ON: Time 218040, Note Name: D2, Velocity: 26
Note ON: Time 218040, Note Name: D3, Velocity: 31
Note OFF: Time 218160, Note Name: D3
Note OFF: Time 218160, Note Name: D2
Note ON: Time 218280, Note Name: D#2, Velocity: 29
Note ON: Time 218280, Note Name: D#3, Velocity: 35
Note OFF: Time 218400, Note Name: D#3
Note OFF: Time 218400, Note Name: D#2
Note ON: Time 218400, Note Name: F2, Velocity: 26
Note ON: Time 218400, Note Name: F3, Velocity: 30
Note OFF: Time 218520, Note Name: F3
Note OFF: Time 218520, Note Name: F2
Note ON: Time 218520, Note Name: D3, Velocity: 26
Note ON: Time 218520, Note Name: D4, Velocity: 30
Note OFF: Time 218640, Note Name: D4
Note OFF: Time 218640, Note Name: D3
Note ON: Time 218880, Note Name: E2, Velocity: 42
Note OFF: Time 219040, Note Name: E2
Note ON: Time 219040, Note Name: A2, Velocity: 39
Note ON: Time 219200, Note Name: G3, Velocity: 39
Note OFF: Time 219360, Note Name: G3
Note OFF: Time 219360, Note Name: A2
Note ON: Time 219360, Note Name: F#3, Velocity: 44
Note OFF: Time 219520, Note Name: F#3
Note ON: Time 219520, Note Name: A2, Velocity: 40
Note OFF: Time 219680, Note Name: A2
Note ON: Time 219680, Note Name: D2, Velocity: 40
Note OFF: Time 219840, Note Name: D2
Note ON: Time 219840, Note Name: F2, Velocity: 44
Note OFF: Time 220000, Note Name: F2
Note ON: Time 220000, Note Name: B2, Velocity: 38
Note ON: Time 220160, Note Name: A3, Velocity: 39
Note OFF: Time 220320, Note Name: A3
Note OFF: Time 220320, Note Name: B2
Note ON: Time 220320, Note Name: G#3, Velocity: 44
Note OFF: Time 220480, Note Name: G#3
Note ON: Time 220480, Note Name: B2, Velocity: 39
Note OFF: Time 220640, Note Name: B2
Note ON: Time 220640, Note Name: E2, Velocity: 39
Note OFF: Time 220800, Note Name: E2
Note ON: Time 220800, Note Name: G2, Velocity: 46
Note OFF: Time 220960, Note Name: G2
Note ON: Time 220960, Note Name: C#3, Velocity: 40
Note OFF: Time 221120, Note Name: C#3
Note ON: Time 221120, Note Name: B3, Velocity: 40
Note OFF: Time 221280, Note Name: B3
Note ON: Time 221280, Note Name: F#2, Velocity: 49
Note OFF: Time 221440, Note Name: F#2
Note ON: Time 221440, Note Name: C#3, Velocity: 42
Note OFF: Time 221600, Note Name: C#3
Note ON: Time 221600, Note Name: A#3, Velocity: 42
Note OFF: Time 221760, Note Name: A#3
Note ON: Time 221760, Note Name: G2, Velocity: 53
Note OFF: Time 221920, Note Name: G2
Note ON: Time 221920, Note Name: E3, Velocity: 58
Note OFF: Time 222080, Note Name: E3
Note ON: Time 222080, Note Name: C#4, Velocity: 60
Note OFF: Time 222240, Note Name: C#4
Note ON: Time 222240, Note Name: G#2, Velocity: 66
Note OFF: Time 222400, Note Name: G#2
Note ON: Time 222400, Note Name: E3, Velocity: 69
Note OFF: Time 222560, Note Name: E3
Note ON: Time 222560, Note Name: C#4, Velocity: 74
Note OFF: Time 222720, Note Name: C#4
Note ON: Time 222720, Note Name: G#1, Velocity: 49
Note ON: Time 222720, Note Name: G#2, Velocity: 59
Note OFF: Time 222840, Note Name: G#2
Note OFF: Time 222840, Note Name: G#1
Note ON: Time 222840, Note Name: E1, Velocity: 44
Note ON: Time 222840, Note Name: E2, Velocity: 53
Note OFF: Time 222960, Note Name: E2
Note OFF: Time 222960, Note Name: E1
Note ON: Time 223080, Note Name: F#1, Velocity: 51
Note ON: Time 223080, Note Name: F#2, Velocity: 62
Note OFF: Time 223200, Note Name: F#2
Note OFF: Time 223200, Note Name: F#1
Note ON: Time 223200, Note Name: G#1, Velocity: 46
Note ON: Time 223200, Note Name: G#2, Velocity: 56
Note OFF: Time 223320, Note Name: G#2
Note OFF: Time 223320, Note Name: G#1
Note ON: Time 223320, Note Name: E1, Velocity: 47
Note ON: Time 223320, Note Name: E2, Velocity: 57
Note OFF: Time 223440, Note Name: E2
Note OFF: Time 223440, Note Name: E1
Note ON: Time 223680, Note Name: G#1, Velocity: 49
Note ON: Time 223680, Note Name: G#2, Velocity: 59
Note OFF: Time 223800, Note Name: G#2
Note OFF: Time 223800, Note Name: G#1
Note ON: Time 223800, Note Name: F1, Velocity: 44
Note ON: Time 223800, Note Name: F2, Velocity: 53
Note OFF: Time 223920, Note Name: F2
Note OFF: Time 223920, Note Name: F1
Note ON: Time 224040, Note Name: G1, Velocity: 51
Note ON: Time 224040, Note Name: G2, Velocity: 62
Note OFF: Time 224160, Note Name: G2
Note OFF: Time 224160, Note Name: G1
Note ON: Time 224160, Note Name: G#1, Velocity: 46
Note ON: Time 224160, Note Name: G#2, Velocity: 56
Note OFF: Time 224280, Note Name: G#2
Note OFF: Time 224280, Note Name: G#1
Note ON: Time 224280, Note Name: F1, Velocity: 47
Note ON: Time 224280, Note Name: F2, Velocity: 57
Note OFF: Time 224400, Note Name: F2
Note OFF: Time 224400, Note Name: F1
Note ON: Time 224640, Note Name: A#1, Velocity: 38
Note ON: Time 224640, Note Name: A#2, Velocity: 46
Note OFF: Time 224760, Note Name: A#2
Note OFF: Time 224760, Note Name: A#1
Note ON: Time 224760, Note Name: G1, Velocity: 35
Note ON: Time 224760, Note Name: G2, Velocity: 42
Note OFF: Time 224880, Note Name: G2
Note OFF: Time 224880, Note Name: G1
Note ON: Time 225000, Note Name: G#1, Velocity: 41
Note ON: Time 225000, Note Name: G#2, Velocity: 51
Note OFF: Time 225120, Note Name: G#2
Note OFF: Time 225120, Note Name: G#1
Note ON: Time 225120, Note Name: A#1, Velocity: 39
Note ON: Time 225120, Note Name: A#2, Velocity: 46
Note OFF: Time 225240, Note Name: A#2
Note OFF: Time 225240, Note Name: A#1
Note ON: Time 225240, Note Name: G2, Velocity: 40
Note ON: Time 225240, Note Name: G3, Velocity: 47
Note OFF: Time 225360, Note Name: G3
Note OFF: Time 225360, Note Name: G2
Note ON: Time 225600, Note Name: C2, Velocity: 36
Note ON: Time 225600, Note Name: C3, Velocity: 44
Note OFF: Time 225720, Note Name: C3
Note OFF: Time 225720, Note Name: C2
Note ON: Time 225720, Note Name: A1, Velocity: 31
Note ON: Time 225720, Note Name: A2, Velocity: 39
Note OFF: Time 225840, Note Name: A2
Note OFF: Time 225840, Note Name: A1
Note ON: Time 225960, Note Name: A#1, Velocity: 36
Note ON: Time 225960, Note Name: A#2, Velocity: 44
Note OFF: Time 226080, Note Name: A#2
Note OFF: Time 226080, Note Name: A#1
Note ON: Time 226080, Note Name: C2, Velocity: 31
Note ON: Time 226080, Note Name: C3, Velocity: 38
Note OFF: Time 226200, Note Name: C3
Note OFF: Time 226200, Note Name: C2
Note ON: Time 226200, Note Name: C3, Velocity: 31
Note ON: Time 226200, Note Name: C4, Velocity: 38
Note OFF: Time 226320, Note Name: C4
Note OFF: Time 226320, Note Name: C3
Note ON: Time 226560, Note Name: D#2, Velocity: 55
Note OFF: Time 226720, Note Name: D#2
Note ON: Time 226720, Note Name: B2, Velocity: 42
Note ON: Time 226880, Note Name: A3, Velocity: 42
Note OFF: Time 227040, Note Name: A3
Note OFF: Time 227040, Note Name: B2
Note ON: Time 227040, Note Name: G#3, Velocity: 48
Note OFF: Time 227200, Note Name: G#3
Note ON: Time 227200, Note Name: B2, Velocity: 44
Note OFF: Time 227360, Note Name: B2
Note ON: Time 227360, Note Name: E2, Velocity: 44
Note OFF: Time 227520, Note Name: E2
Note ON: Time 227520, Note Name: F2, Velocity: 48
Note OFF: Time 227680, Note Name: F2
Note ON: Time 227680, Note Name: C#3, Velocity: 41
Note ON: Time 227840, Note Name: B3, Velocity: 42
Note OFF: Time 228000, Note Name: B3
Note OFF: Time 228000, Note Name: C#3
Note ON: Time 228000, Note Name: A#3, Velocity: 48
Note OFF: Time 228160, Note Name: A#3
Note ON: Time 228160, Note Name: C#3, Velocity: 42
Note OFF: Time 228320, Note Name: C#3
Note ON: Time 228320, Note Name: F#2, Velocity: 42
Note OFF: Time 228480, Note Name: F#2
Note ON: Time 228480, Note Name: G2, Velocity: 50
Note OFF: Time 228640, Note Name: G2
Note ON: Time 228640, Note Name: D#3, Velocity: 44
Note ON: Time 228800, Note Name: C#4, Velocity: 44
Note OFF: Time 228960, Note Name: C#4
Note OFF: Time 228960, Note Name: D#3
Note ON: Time 228960, Note Name: G#2, Velocity: 53
Note OFF: Time 229120, Note Name: G#2
Note ON: Time 229120, Note Name: D#3, Velocity: 46
Note OFF: Time 229280, Note Name: D#3
Note ON: Time 229280, Note Name: C4, Velocity: 46
Note OFF: Time 229440, Note Name: C4
Note ON: Time 229440, Note Name: A2, Velocity: 58
Note OFF: Time 229600, Note Name: A2
Note ON: Time 229600, Note Name: F#3, Velocity: 63
Note OFF: Time 229760, Note Name: F#3
Note ON: Time 229760, Note Name: D#4, Velocity: 66
Note OFF: Time 229920, Note Name: D#4
Note ON: Time 229920, Note Name: C3, Velocity: 71
Note OFF: Time 230080, Note Name: C3
Note ON: Time 230080, Note Name: F#3, Velocity: 74
Note OFF: Time 230240, Note Name: F#3
Note ON: Time 230240, Note Name: D4, Velocity: 81
Note OFF: Time 230400, Note Name: D4
Note ON: Time 230400, Note Name: A#1, Velocity: 73
Note ON: Time 230400, Note Name: A#2, Velocity: 86
Note OFF: Time 230560, Note Name: A#2
Note OFF: Time 230560, Note Name: A#1
Note ON: Time 230560, Note Name: D3, Velocity: 61
Note ON: Time 230560, Note Name: A#3, Velocity: 72
Note OFF: Time 230720, Note Name: A#3
Note OFF: Time 230720, Note Name: D3
Note ON: Time 230720, Note Name: G3, Velocity: 68
Note ON: Time 230720, Note Name: D4, Velocity: 80
Note OFF: Time 230880, Note Name: D4
Note OFF: Time 230880, Note Name: G3
Note ON: Time 230880, Note Name: A#3, Velocity: 68
Note ON: Time 230880, Note Name: G4, Velocity: 80
Note OFF: Time 231040, Note Name: G4
Note OFF: Time 231040, Note Name: A#3
Note ON: Time 231040, Note Name: G3, Velocity: 63
Note ON: Time 231040, Note Name: D4, Velocity: 75
Note OFF: Time 231200, Note Name: D4
Note OFF: Time 231200, Note Name: G3
Note ON: Time 231280, Note Name: D1, Velocity: 56
Note ON: Time 231280, Note Name: D2, Velocity: 66
Note OFF: Time 231360, Note Name: D2
Note OFF: Time 231360, Note Name: D1
Note ON: Time 231360, Note Name: D1, Velocity: 73
Note ON: Time 231360, Note Name: D2, Velocity: 86
Note OFF: Time 231520, Note Name: D2
Note OFF: Time 231520, Note Name: D1
Note ON: Time 231520, Note Name: D3, Velocity: 61
Note ON: Time 231520, Note Name: A#3, Velocity: 72
Note OFF: Time 231680, Note Name: A#3
Note OFF: Time 231680, Note Name: D3
Note ON: Time 231680, Note Name: G3, Velocity: 63
Note ON: Time 231680, Note Name: D4, Velocity: 75
Note OFF: Time 231840, Note Name: D4
Note OFF: Time 231840, Note Name: G3
Note ON: Time 231840, Note Name: A#3, Velocity: 63
Note ON: Time 231840, Note Name: G4, Velocity: 75
Note OFF: Time 232000, Note Name: G4
Note OFF: Time 232000, Note Name: A#3
Note ON: Time 232000, Note Name: G3, Velocity: 60
Note ON: Time 232000, Note Name: D4, Velocity: 71
Note OFF: Time 232160, Note Name: D4
Note OFF: Time 232160, Note Name: G3
Note ON: Time 232160, Note Name: D3, Velocity: 52
Note ON: Time 232160, Note Name: A#3, Velocity: 62
Note OFF: Time 232320, Note Name: A#3
Note OFF: Time 232320, Note Name: D3
Note ON: Time 232320, Note Name: A#2, Velocity: 70
Note ON: Time 232320, Note Name: A#3, Velocity: 82
Note OFF: Time 232480, Note Name: A#3
Note OFF: Time 232480, Note Name: A#2
Note ON: Time 232480, Note Name: F3, Velocity: 59
Note ON: Time 232480, Note Name: C#4, Velocity: 70
Note OFF: Time 232640, Note Name: C#4
Note OFF: Time 232640, Note Name: F3
Note ON: Time 232640, Note Name: A#3, Velocity: 66
Note ON: Time 232640, Note Name: F4, Velocity: 77
Note OFF: Time 232800, Note Name: F4
Note OFF: Time 232800, Note Name: A#3
Note ON: Time 232800, Note Name: C#4, Velocity: 66
Note ON: Time 232800, Note Name: A#4, Velocity: 77
Note OFF: Time 232960, Note Name: A#4
Note OFF: Time 232960, Note Name: C#4
Note ON: Time 232960, Note Name: A#3, Velocity: 61
Note ON: Time 232960, Note Name: F4, Velocity: 72
Note OFF: Time 233120, Note Name: F4
Note OFF: Time 233120, Note Name: A#3
Note ON: Time 233200, Note Name: C#2, Velocity: 53
Note ON: Time 233200, Note Name: C#3, Velocity: 63
Note OFF: Time 233280, Note Name: C#3
Note OFF: Time 233280, Note Name: C#2
Note ON: Time 233280, Note Name: C#2, Velocity: 70
Note ON: Time 233280, Note Name: C#3, Velocity: 82
Note OFF: Time 233440, Note Name: C#3
Note OFF: Time 233440, Note Name: C#2
Note ON: Time 233440, Note Name: F3, Velocity: 59
Note ON: Time 233440, Note Name: C#4, Velocity: 70
Note OFF: Time 233600, Note Name: C#4
Note OFF: Time 233600, Note Name: F3
Note ON: Time 233600, Note Name: A#3, Velocity: 61
Note ON: Time 233600, Note Name: F4, Velocity: 72
Note OFF: Time 233760, Note Name: F4
Note OFF: Time 233760, Note Name: A#3
Note ON: Time 233760, Note Name: C#4, Velocity: 61
Note ON: Time 233760, Note Name: A#4, Velocity: 72
Note OFF: Time 233920, Note Name: A#4
Note OFF: Time 233920, Note Name: C#4
Note ON: Time 233920, Note Name: A#3, Velocity: 58
Note ON: Time 233920, Note Name: F4, Velocity: 69
Note OFF: Time 234080, Note Name: F4
Note OFF: Time 234080, Note Name: A#3
Note ON: Time 234080, Note Name: F3, Velocity: 50
Note ON: Time 234080, Note Name: C#4, Velocity: 60
Note OFF: Time 234240, Note Name: C#4
Note OFF: Time 234240, Note Name: F3
Note ON: Time 234240, Note Name: G#1, Velocity: 73
Note ON: Time 234240, Note Name: G#2, Velocity: 86
Note OFF: Time 234400, Note Name: G#2
Note OFF: Time 234400, Note Name: G#1
Note ON: Time 234400, Note Name: F3, Velocity: 61
Note ON: Time 234400, Note Name: C4, Velocity: 72
Note OFF: Time 234560, Note Name: C4
Note OFF: Time 234560, Note Name: F3
Note ON: Time 234560, Note Name: G#3, Velocity: 68
Note ON: Time 234560, Note Name: F4, Velocity: 80
Note OFF: Time 234720, Note Name: F4
Note OFF: Time 234720, Note Name: G#3
Note ON: Time 234720, Note Name: C4, Velocity: 68
Note ON: Time 234720, Note Name: G#4, Velocity: 80
Note OFF: Time 234880, Note Name: G#4
Note OFF: Time 234880, Note Name: C4
Note ON: Time 234880, Note Name: G#3, Velocity: 63
Note ON: Time 234880, Note Name: F4, Velocity: 75
Note OFF: Time 235040, Note Name: F4
Note OFF: Time 235040, Note Name: G#3
Note ON: Time 235140, Note Name: C2, Velocity: 66
Note ON: Time 235140, Note Name: C1, Velocity: 56
Note ON: Time 235200, Note Name: C1, Velocity: 73
Note ON: Time 235200, Note Name: C2, Velocity: 86
Note OFF: Time 235220, Note Name: C1
Note OFF: Time 235220, Note Name: C2
Note OFF: Time 235360, Note Name: C1
Note OFF: Time 235360, Note Name: C2
Note ON: Time 235360, Note Name: F3, Velocity: 61
Note ON: Time 235360, Note Name: C4, Velocity: 72
Note OFF: Time 235520, Note Name: C4
Note OFF: Time 235520, Note Name: F3
Note ON: Time 235520, Note Name: G#3, Velocity: 63
Note ON: Time 235520, Note Name: F4, Velocity: 75
Note OFF: Time 235680, Note Name: F4
Note OFF: Time 235680, Note Name: G#3
Note ON: Time 235680, Note Name: C4, Velocity: 63
Note ON: Time 235680, Note Name: G#4, Velocity: 75
Note OFF: Time 235840, Note Name: G#4
Note OFF: Time 235840, Note Name: C4
Note ON: Time 235840, Note Name: G#3, Velocity: 60
Note ON: Time 235840, Note Name: F4, Velocity: 71
Note OFF: Time 236000, Note Name: F4
Note OFF: Time 236000, Note Name: G#3
Note ON: Time 236000, Note Name: F3, Velocity: 52
Note ON: Time 236000, Note Name: C4, Velocity: 62
Note OFF: Time 236160, Note Name: C4
Note OFF: Time 236160, Note Name: F3
Note ON: Time 236160, Note Name: G#2, Velocity: 73
Note ON: Time 236160, Note Name: G#3, Velocity: 86
Note OFF: Time 236320, Note Name: G#3
Note OFF: Time 236320, Note Name: G#2
Note ON: Time 236320, Note Name: E3, Velocity: 61
Note ON: Time 236320, Note Name: C4, Velocity: 72
Note OFF: Time 236480, Note Name: C4
Note OFF: Time 236480, Note Name: E3
Note ON: Time 236480, Note Name: G#3, Velocity: 68
Note ON: Time 236480, Note Name: E4, Velocity: 80
Note OFF: Time 236640, Note Name: E4
Note OFF: Time 236640, Note Name: G#3
Note ON: Time 236640, Note Name: C4, Velocity: 68
Note ON: Time 236640, Note Name: G#4, Velocity: 80
Note OFF: Time 236800, Note Name: G#4
Note OFF: Time 236800, Note Name: C4
Note ON: Time 236800, Note Name: G#3, Velocity: 63
Note ON: Time 236800, Note Name: E4, Velocity: 75
Note OFF: Time 236960, Note Name: E4
Note OFF: Time 236960, Note Name: G#3
Note ON: Time 237060, Note Name: C3, Velocity: 66
Note ON: Time 237060, Note Name: C2, Velocity: 56
Note ON: Time 237120, Note Name: C2, Velocity: 73
Note ON: Time 237120, Note Name: C3, Velocity: 86
Note OFF: Time 237140, Note Name: C2
Note OFF: Time 237140, Note Name: C3
Note OFF: Time 237280, Note Name: C2
Note OFF: Time 237280, Note Name: C3
Note ON: Time 237280, Note Name: E3, Velocity: 61
Note ON: Time 237280, Note Name: C4, Velocity: 72
Note OFF: Time 237440, Note Name: C4
Note OFF: Time 237440, Note Name: E3
Note ON: Time 237440, Note Name: G#3, Velocity: 63
Note ON: Time 237440, Note Name: E4, Velocity: 75
Note OFF: Time 237600, Note Name: E4
Note OFF: Time 237600, Note Name: G#3
Note ON: Time 237600, Note Name: C4, Velocity: 63
Note ON: Time 237600, Note Name: G#4, Velocity: 75
Note OFF: Time 237760, Note Name: G#4
Note OFF: Time 237760, Note Name: C4
Note ON: Time 237760, Note Name: G#3, Velocity: 60
Note ON: Time 237760, Note Name: E4, Velocity: 71
Note OFF: Time 237920, Note Name: E4
Note OFF: Time 237920, Note Name: G#3
Note ON: Time 237920, Note Name: E3, Velocity: 52
Note ON: Time 237920, Note Name: C4, Velocity: 62
Note OFF: Time 238080, Note Name: C4
Note OFF: Time 238080, Note Name: E3
Note ON: Time 238080, Note Name: G2, Velocity: 73
Note ON: Time 238080, Note Name: G3, Velocity: 86
Note OFF: Time 238240, Note Name: G3
Note OFF: Time 238240, Note Name: G2
Note ON: Time 238240, Note Name: G3, Velocity: 61
Note ON: Time 238240, Note Name: E4, Velocity: 72
Note OFF: Time 238400, Note Name: E4
Note OFF: Time 238400, Note Name: G3
Note ON: Time 238400, Note Name: B3, Velocity: 68
Note ON: Time 238400, Note Name: G4, Velocity: 80
Note OFF: Time 238560, Note Name: G4
Note OFF: Time 238560, Note Name: B3
Note ON: Time 238560, Note Name: E4, Velocity: 68
Note ON: Time 238560, Note Name: B4, Velocity: 80
Note OFF: Time 238720, Note Name: B4
Note OFF: Time 238720, Note Name: E4
Note ON: Time 238720, Note Name: B3, Velocity: 63
Note ON: Time 238720, Note Name: G4, Velocity: 75
Note OFF: Time 238880, Note Name: G4
Note OFF: Time 238880, Note Name: B3
Note ON: Time 238980, Note Name: B2, Velocity: 66
Note ON: Time 238980, Note Name: B1, Velocity: 56
Note ON: Time 239040, Note Name: B1, Velocity: 73
Note ON: Time 239040, Note Name: B2, Velocity: 86
Note OFF: Time 239060, Note Name: B1
Note OFF: Time 239060, Note Name: B2
Note OFF: Time 239200, Note Name: B1
Note OFF: Time 239200, Note Name: B2
Note ON: Time 239200, Note Name: G3, Velocity: 61
Note ON: Time 239200, Note Name: E4, Velocity: 72
Note OFF: Time 239360, Note Name: E4
Note OFF: Time 239360, Note Name: G3
Note ON: Time 239360, Note Name: B3, Velocity: 63
Note ON: Time 239360, Note Name: G4, Velocity: 75
Note OFF: Time 239520, Note Name: G4
Note OFF: Time 239520, Note Name: B3
Note ON: Time 239520, Note Name: E4, Velocity: 63
Note ON: Time 239520, Note Name: B4, Velocity: 75
Note OFF: Time 239680, Note Name: B4
Note OFF: Time 239680, Note Name: E4
Note ON: Time 239680, Note Name: B3, Velocity: 60
Note ON: Time 239680, Note Name: G4, Velocity: 71
Note OFF: Time 239840, Note Name: G4
Note OFF: Time 239840, Note Name: B3
Note ON: Time 239840, Note Name: G3, Velocity: 52
Note ON: Time 239840, Note Name: E4, Velocity: 62
Note OFF: Time 240000, Note Name: E4
Note OFF: Time 240000, Note Name: G3
Note ON: Time 240000, Note Name: G2, Velocity: 73
Note ON: Time 240000, Note Name: G3, Velocity: 86
Note OFF: Time 240160, Note Name: G3
Note OFF: Time 240160, Note Name: G2
Note ON: Time 240160, Note Name: D3, Velocity: 61
Note ON: Time 240160, Note Name: B3, Velocity: 72
Note OFF: Time 240320, Note Name: B3
Note OFF: Time 240320, Note Name: D3
Note ON: Time 240320, Note Name: G3, Velocity: 68
Note ON: Time 240320, Note Name: D4, Velocity: 80
Note OFF: Time 240480, Note Name: D4
Note OFF: Time 240480, Note Name: G3
Note ON: Time 240480, Note Name: B3, Velocity: 68
Note ON: Time 240480, Note Name: G4, Velocity: 80
Note OFF: Time 240640, Note Name: G4
Note OFF: Time 240640, Note Name: B3
Note ON: Time 240640, Note Name: G3, Velocity: 63
Note ON: Time 240640, Note Name: D4, Velocity: 75
Note OFF: Time 240800, Note Name: D4
Note OFF: Time 240800, Note Name: G3
Note ON: Time 240900, Note Name: G2, Velocity: 66
Note ON: Time 240900, Note Name: G1, Velocity: 56
Note ON: Time 240960, Note Name: G1, Velocity: 73
Note ON: Time 240960, Note Name: G2, Velocity: 86
Note OFF: Time 240980, Note Name: G1
Note OFF: Time 240980, Note Name: G2
Note OFF: Time 241120, Note Name: G1
Note OFF: Time 241120, Note Name: G2
Note ON: Time 241120, Note Name: D3, Velocity: 61
Note ON: Time 241120, Note Name: B3, Velocity: 72
Note OFF: Time 241280, Note Name: B3
Note OFF: Time 241280, Note Name: D3
Note ON: Time 241280, Note Name: G3, Velocity: 63
Note ON: Time 241280, Note Name: D4, Velocity: 75
Note OFF: Time 241440, Note Name: D4
Note OFF: Time 241440, Note Name: G3
Note ON: Time 241440, Note Name: B3, Velocity: 63
Note ON: Time 241440, Note Name: G4, Velocity: 75
Note OFF: Time 241600, Note Name: G4
Note OFF: Time 241600, Note Name: B3
Note ON: Time 241600, Note Name: G3, Velocity: 60
Note ON: Time 241600, Note Name: D4, Velocity: 71
Note OFF: Time 241760, Note Name: D4
Note OFF: Time 241760, Note Name: G3
Note ON: Time 241760, Note Name: D3, Velocity: 52
Note ON: Time 241760, Note Name: B3, Velocity: 62
Note OFF: Time 241920, Note Name: B3
Note OFF: Time 241920, Note Name: D3
Note ON: Time 241920, Note Name: F#2, Velocity: 73
Note ON: Time 241920, Note Name: F#3, Velocity: 86
Note OFF: Time 242080, Note Name: F#3
Note OFF: Time 242080, Note Name: F#2
Note ON: Time 242080, Note Name: D3, Velocity: 61
Note ON: Time 242080, Note Name: A3, Velocity: 72
Note OFF: Time 242240, Note Name: A3
Note OFF: Time 242240, Note Name: D3
Note ON: Time 242240, Note Name: F#3, Velocity: 68
Note ON: Time 242240, Note Name: D4, Velocity: 80
Note OFF: Time 242400, Note Name: D4
Note OFF: Time 242400, Note Name: F#3
Note ON: Time 242400, Note Name: A3, Velocity: 68
Note ON: Time 242400, Note Name: F#4, Velocity: 80
Note OFF: Time 242560, Note Name: F#4
Note OFF: Time 242560, Note Name: A3
Note ON: Time 242560, Note Name: F#3, Velocity: 63
Note ON: Time 242560, Note Name: D4, Velocity: 75
Note OFF: Time 242720, Note Name: D4
Note OFF: Time 242720, Note Name: F#3
Note ON: Time 242720, Note Name: D3, Velocity: 56
Note ON: Time 242720, Note Name: A3, Velocity: 66
Note OFF: Time 242880, Note Name: A3
Note OFF: Time 242880, Note Name: D3
Note ON: Time 242880, Note Name: F2, Velocity: 73
Note ON: Time 242880, Note Name: F3, Velocity: 86
Note OFF: Time 243040, Note Name: F3
Note OFF: Time 243040, Note Name: F2
Note ON: Time 243040, Note Name: D3, Velocity: 61
Note ON: Time 243040, Note Name: A3, Velocity: 72
Note OFF: Time 243200, Note Name: A3
Note OFF: Time 243200, Note Name: D3
Note ON: Time 243200, Note Name: F3, Velocity: 63
Note ON: Time 243200, Note Name: D4, Velocity: 75
Note OFF: Time 243360, Note Name: D4
Note OFF: Time 243360, Note Name: F3
Note ON: Time 243360, Note Name: A3, Velocity: 63
Note ON: Time 243360, Note Name: F4, Velocity: 75
Note OFF: Time 243520, Note Name: F4
Note OFF: Time 243520, Note Name: A3
Note ON: Time 243520, Note Name: F3, Velocity: 60
Note ON: Time 243520, Note Name: D4, Velocity: 71
Note OFF: Time 243680, Note Name: D4
Note OFF: Time 243680, Note Name: F3
Note ON: Time 243680, Note Name: D3, Velocity: 52
Note ON: Time 243680, Note Name: A3, Velocity: 62
Note OFF: Time 243840, Note Name: A3
Note OFF: Time 243840, Note Name: D3
Note ON: Time 243840, Note Name: F2, Velocity: 64
Note ON: Time 243840, Note Name: F3, Velocity: 77
Note OFF: Time 244000, Note Name: F3
Note OFF: Time 244000, Note Name: F2
Note ON: Time 244000, Note Name: C3, Velocity: 55
Note ON: Time 244000, Note Name: A3, Velocity: 64
Note OFF: Time 244160, Note Name: A3
Note OFF: Time 244160, Note Name: C3
Note ON: Time 244160, Note Name: F3, Velocity: 60
Note ON: Time 244160, Note Name: C4, Velocity: 71
Note OFF: Time 244320, Note Name: C4
Note OFF: Time 244320, Note Name: F3
Note ON: Time 244320, Note Name: A3, Velocity: 60
Note ON: Time 244320, Note Name: F4, Velocity: 71
Note OFF: Time 244480, Note Name: F4
Note OFF: Time 244480, Note Name: A3
Note ON: Time 244480, Note Name: F3, Velocity: 57
Note ON: Time 244480, Note Name: C4, Velocity: 68
Note OFF: Time 244640, Note Name: C4
Note OFF: Time 244640, Note Name: F3
Note ON: Time 244720, Note Name: F1, Velocity: 49
Note ON: Time 244720, Note Name: F2, Velocity: 59
Note OFF: Time 244800, Note Name: F2
Note OFF: Time 244800, Note Name: F1
Note ON: Time 244800, Note Name: F1, Velocity: 64
Note ON: Time 244800, Note Name: F2, Velocity: 77
Note OFF: Time 244960, Note Name: F2
Note OFF: Time 244960, Note Name: F1
Note ON: Time 244960, Note Name: C3, Velocity: 55
Note ON: Time 244960, Note Name: A3, Velocity: 64
Note OFF: Time 245120, Note Name: A3
Note OFF: Time 245120, Note Name: C3
Note ON: Time 245120, Note Name: F3, Velocity: 57
Note ON: Time 245120, Note Name: C4, Velocity: 67
Note OFF: Time 245280, Note Name: C4
Note OFF: Time 245280, Note Name: F3
Note ON: Time 245280, Note Name: A3, Velocity: 57
Note OFF: Time 245437, Note Name: A3
Note ON: Time 245440, Note Name: F2, Velocity: 51
Note OFF: Time 245600, Note Name: F2
Note ON: Time 245600, Note Name: F1, Velocity: 53
Note OFF: Time 245760, Note Name: F1
Note ON: Time 245760, Note Name: D#1, Velocity: 57
Note ON: Time 245760, Note Name: D#2, Velocity: 57
Note OFF: Time 246000, Note Name: D#2
Note OFF: Time 246000, Note Name: D#1
Note ON: Time 246240, Note Name: D#2, Velocity: 46
Note OFF: Time 246360, Note Name: D#2
Note ON: Time 246360, Note Name: F#2, Velocity: 39
Note OFF: Time 246480, Note Name: F#2
Note ON: Time 246480, Note Name: F#3, Velocity: 39
Note OFF: Time 246600, Note Name: F#3
Note ON: Time 246600, Note Name: B2, Velocity: 39
Note OFF: Time 246720, Note Name: B2
Note ON: Time 246720, Note Name: F#2, Velocity: 47
Note OFF: Time 246840, Note Name: F#2
Note ON: Time 246840, Note Name: B2, Velocity: 42
Note OFF: Time 246960, Note Name: B2
Note ON: Time 246960, Note Name: B3, Velocity: 42
Note OFF: Time 247080, Note Name: B3
Note ON: Time 247080, Note Name: D#3, Velocity: 44
Note OFF: Time 247200, Note Name: D#3
Note ON: Time 247200, Note Name: B2, Velocity: 49
Note OFF: Time 247320, Note Name: B2
Note ON: Time 247320, Note Name: D#3, Velocity: 42
Note OFF: Time 247440, Note Name: D#3
Note ON: Time 247440, Note Name: D#4, Velocity: 44
Note OFF: Time 247560, Note Name: D#4
Note ON: Time 247560, Note Name: F#3, Velocity: 44
Note OFF: Time 247680, Note Name: F#3
Note ON: Time 247680, Note Name: D#3, Velocity: 50
Note OFF: Time 247800, Note Name: D#3
Note ON: Time 247800, Note Name: F#3, Velocity: 42
Note OFF: Time 247920, Note Name: F#3
Note ON: Time 247920, Note Name: F#4, Velocity: 44
Note OFF: Time 248040, Note Name: F#4
Note ON: Time 248040, Note Name: B3, Velocity: 44
Note OFF: Time 248160, Note Name: B3
Note ON: Time 248160, Note Name: F#3, Velocity: 56
Note OFF: Time 248280, Note Name: F#3
Note ON: Time 248280, Note Name: B3, Velocity: 48
Note OFF: Time 248400, Note Name: B3
Note ON: Time 248400, Note Name: B4, Velocity: 48
Note OFF: Time 248520, Note Name: B4
Note ON: Time 248520, Note Name: D#4, Velocity: 48
Note OFF: Time 248640, Note Name: D#4
Note ON: Time 248640, Note Name: B3, Velocity: 56
Note OFF: Time 248760, Note Name: B3
Note ON: Time 248760, Note Name: D#4, Velocity: 51
Note OFF: Time 248880, Note Name: D#4
Note ON: Time 248880, Note Name: D#5, Velocity: 51
Note OFF: Time 249000, Note Name: D#5
Note ON: Time 249000, Note Name: F#4, Velocity: 52
Note OFF: Time 249120, Note Name: F#4
Note ON: Time 249120, Note Name: E3, Velocity: 62
Note OFF: Time 249240, Note Name: E3
Note ON: Time 249240, Note Name: A#3, Velocity: 56
Note OFF: Time 249360, Note Name: A#3
Note ON: Time 249360, Note Name: G4, Velocity: 56
Note OFF: Time 249480, Note Name: G4
Note ON: Time 249480, Note Name: C#4, Velocity: 56
Note OFF: Time 249600, Note Name: C#4
Note ON: Time 249600, Note Name: D#3, Velocity: 62
Note OFF: Time 249720, Note Name: D#3
Note ON: Time 249720, Note Name: F#3, Velocity: 53
Note OFF: Time 249840, Note Name: F#3
Note ON: Time 249840, Note Name: F#4, Velocity: 53
Note OFF: Time 249960, Note Name: F#4
Note ON: Time 249960, Note Name: B3, Velocity: 53
Note OFF: Time 250080, Note Name: B3
Note ON: Time 250080, Note Name: D#2, Velocity: 46
Note OFF: Time 250200, Note Name: D#2
Note ON: Time 250200, Note Name: F#2, Velocity: 39
Note OFF: Time 250320, Note Name: F#2
Note ON: Time 250320, Note Name: F#3, Velocity: 39
Note OFF: Time 250440, Note Name: F#3
Note ON: Time 250440, Note Name: B2, Velocity: 39
Note OFF: Time 250560, Note Name: B2
Note ON: Time 250560, Note Name: F#2, Velocity: 47
Note OFF: Time 250680, Note Name: F#2
Note ON: Time 250680, Note Name: B2, Velocity: 42
Note OFF: Time 250800, Note Name: B2
Note ON: Time 250800, Note Name: B3, Velocity: 42
Note OFF: Time 250920, Note Name: B3
Note ON: Time 250920, Note Name: D#3, Velocity: 44
Note OFF: Time 251040, Note Name: D#3
Note ON: Time 251040, Note Name: B2, Velocity: 49
Note OFF: Time 251160, Note Name: B2
Note ON: Time 251160, Note Name: D#3, Velocity: 42
Note OFF: Time 251280, Note Name: D#3
Note ON: Time 251280, Note Name: D#4, Velocity: 44
Note OFF: Time 251400, Note Name: D#4
Note ON: Time 251400, Note Name: F#3, Velocity: 44
Note OFF: Time 251520, Note Name: F#3
Note ON: Time 251520, Note Name: D#3, Velocity: 50
Note OFF: Time 251640, Note Name: D#3
Note ON: Time 251640, Note Name: F#3, Velocity: 42
Note OFF: Time 251760, Note Name: F#3
Note ON: Time 251760, Note Name: F#4, Velocity: 44
Note OFF: Time 251880, Note Name: F#4
Note ON: Time 251880, Note Name: B3, Velocity: 44
Note OFF: Time 252000, Note Name: B3
Note ON: Time 252000, Note Name: F#3, Velocity: 56
Note OFF: Time 252120, Note Name: F#3
Note ON: Time 252120, Note Name: B3, Velocity: 48
Note OFF: Time 252240, Note Name: B3
Note ON: Time 252240, Note Name: B4, Velocity: 48
Note OFF: Time 252360, Note Name: B4
Note ON: Time 252360, Note Name: D#4, Velocity: 48
Note OFF: Time 252480, Note Name: D#4
Note ON: Time 252480, Note Name: B3, Velocity: 56
Note OFF: Time 252600, Note Name: B3
Note ON: Time 252600, Note Name: D#4, Velocity: 51
Note OFF: Time 252720, Note Name: D#4
Note ON: Time 252720, Note Name: D#5, Velocity: 51
Note OFF: Time 252840, Note Name: D#5
Note ON: Time 252840, Note Name: F#4, Velocity: 52
Note OFF: Time 252960, Note Name: F#4
Note ON: Time 252960, Note Name: E3, Velocity: 62
Note OFF: Time 253080, Note Name: E3
Note ON: Time 253080, Note Name: A#3, Velocity: 56
Note OFF: Time 253200, Note Name: A#3
Note ON: Time 253200, Note Name: G4, Velocity: 56
Note OFF: Time 253320, Note Name: G4
Note ON: Time 253320, Note Name: C#4, Velocity: 56
Note OFF: Time 253440, Note Name: C#4
Note ON: Time 253440, Note Name: F2, Velocity: 62
Note OFF: Time 253600, Note Name: F2
Note ON: Time 253600, Note Name: C3, Velocity: 52
Note OFF: Time 253760, Note Name: C3
Note ON: Time 253760, Note Name: C#3, Velocity: 41
Note ON: Time 253760, Note Name: F#3, Velocity: 34
Note OFF: Time 253920, Note Name: C#3
Note ON: Time 253920, Note Name: C3, Velocity: 38
Note OFF: Time 254080, Note Name: C3
Note OFF: Time 254080, Note Name: F#3
Note ON: Time 254080, Note Name: F2, Velocity: 39
Note OFF: Time 254240, Note Name: F2
Note ON: Time 254240, Note Name: D#3, Velocity: 36
Note ON: Time 254240, Note Name: A#3, Velocity: 42
Note OFF: Time 254400, Note Name: A#3
Note ON: Time 254400, Note Name: A3, Velocity: 39
Note OFF: Time 254560, Note Name: A3
Note OFF: Time 254560, Note Name: D#3
Note ON: Time 254560, Note Name: F2, Velocity: 41
Note OFF: Time 254720, Note Name: F2
Note ON: Time 254720, Note Name: C#3, Velocity: 46
Note ON: Time 254720, Note Name: F#3, Velocity: 39
Note OFF: Time 254880, Note Name: C#3
Note ON: Time 254880, Note Name: C3, Velocity: 44
Note OFF: Time 255040, Note Name: C3
Note OFF: Time 255040, Note Name: F#3
Note ON: Time 255040, Note Name: F2, Velocity: 44
Note OFF: Time 255200, Note Name: F2
Note ON: Time 255200, Note Name: D#3, Velocity: 41
Note ON: Time 255200, Note Name: A#3, Velocity: 48
Note OFF: Time 255360, Note Name: A#3
Note ON: Time 255360, Note Name: A3, Velocity: 46
Note OFF: Time 255520, Note Name: A3
Note OFF: Time 255520, Note Name: D#3
Note ON: Time 255520, Note Name: F2, Velocity: 46
Note OFF: Time 255680, Note Name: F2
Note ON: Time 255680, Note Name: A#3, Velocity: 51
Note ON: Time 255680, Note Name: D#4, Velocity: 42
Note OFF: Time 255840, Note Name: A#3
Note ON: Time 255840, Note Name: A3, Velocity: 47
Note OFF: Time 256000, Note Name: A3
Note OFF: Time 256000, Note Name: D#4
Note ON: Time 256000, Note Name: F3, Velocity: 47
Note OFF: Time 256160, Note Name: F3
Note ON: Time 256160, Note Name: F#4, Velocity: 46
Note ON: Time 256160, Note Name: C#4, Velocity: 53
Note OFF: Time 256320, Note Name: C#4
Note ON: Time 256320, Note Name: C4, Velocity: 49
Note OFF: Time 256480, Note Name: C4
Note OFF: Time 256480, Note Name: F#4
Note ON: Time 256480, Note Name: F3, Velocity: 50
Note OFF: Time 256640, Note Name: F3
Note ON: Time 256640, Note Name: D#4, Velocity: 48
Note ON: Time 256640, Note Name: A#4, Velocity: 56
Note OFF: Time 256800, Note Name: A#4
Note ON: Time 256800, Note Name: A4, Velocity: 50
Note OFF: Time 256960, Note Name: A4
Note OFF: Time 256960, Note Name: D#4
Note ON: Time 256960, Note Name: F3, Velocity: 51
Note OFF: Time 257120, Note Name: F3
Note ON: Time 257120, Note Name: A#4, Velocity: 49
Note ON: Time 257120, Note Name: D#5, Velocity: 59
Note OFF: Time 257280, Note Name: A#4
Note ON: Time 257280, Note Name: A4, Velocity: 58
Note OFF: Time 257440, Note Name: A4
Note OFF: Time 257440, Note Name: D#5
Note ON: Time 258240, Note Name: F4, Velocity: 56
Note OFF: Time 258720, Note Name: F4
Note ON: Time 258720, Note Name: F4, Velocity: 55
Note OFF: Time 259200, Note Name: F4
Note ON: Time 259200, Note Name: F4, Velocity: 49
Note OFF: Time 260160, Note Name: F4
Note ON: Time 260160, Note Name: F3, Velocity: 40
Note OFF: Time 260640, Note Name: F3
Note ON: Time 260640, Note Name: F3, Velocity: 34
Note OFF: Time 261060, Note Name: F3
Note ON: Time 261060, Note Name: A#1, Velocity: 39
Note OFF: Time 261120, Note Name: A#1
Note ON: Time 261120, Note Name: A#2, Velocity: 31
Note ON: Time 261120, Note Name: F3, Velocity: 37
Note OFF: Time 262080, Note Name: F3
Note ON: Time 262080, Note Name: A#3, Velocity: 37
Note OFF: Time 262560, Note Name: A#2
Note ON: Time 262560, Note Name: D#3, Velocity: 39
Note ON: Time 262980, Note Name: F2, Velocity: 29
Note OFF: Time 263040, Note Name: D#3
Note OFF: Time 263040, Note Name: A#3
Note ON: Time 263040, Note Name: F3, Velocity: 39
Note OFF: Time 264240, Note Name: F3
Note ON: Time 264240, Note Name: F#3, Velocity: 33
Note OFF: Time 264480, Note Name: F#3
Note ON: Time 264480, Note Name: G3, Velocity: 35
Note OFF: Time 264720, Note Name: G3
Note ON: Time 264720, Note Name: F3, Velocity: 33
Note OFF: Time 264960, Note Name: F3
Note OFF: Time 264960, Note Name: F2
Note ON: Time 264960, Note Name: A#2, Velocity: 33
Note OFF: Time 265920, Note Name: A#2
Note ON: Time 265920, Note Name: A#3, Velocity: 39
Note OFF: Time 266400, Note Name: A#3
Note ON: Time 266400, Note Name: D#3, Velocity: 39
Note OFF: Time 266880, Note Name: D#3
Note ON: Time 266880, Note Name: F3, Velocity: 29
Note OFF: Time 267120, Note Name: F3
Note ON: Time 267120, Note Name: F#3, Velocity: 37
Note OFF: Time 267360, Note Name: F#3
Note ON: Time 267360, Note Name: A3, Velocity: 35
Note OFF: Time 267520, Note Name: A3
Note ON: Time 267520, Note Name: G3, Velocity: 34
Note OFF: Time 267680, Note Name: G3
Note ON: Time 267680, Note Name: F3, Velocity: 34
Note OFF: Time 267840, Note Name: F3
Note ON: Time 267840, Note Name: F2, Velocity: 29
Note OFF: Time 268080, Note Name: F2
Note ON: Time 268080, Note Name: F#2, Velocity: 37
Note OFF: Time 268320, Note Name: F#2
Note ON: Time 268320, Note Name: A2, Velocity: 35
Note OFF: Time 268480, Note Name: A2
Note ON: Time 268480, Note Name: G2, Velocity: 34
Note OFF: Time 268640, Note Name: G2
Note ON: Time 268640, Note Name: F2, Velocity: 34
Note OFF: Time 268800, Note Name: F2
Note ON: Time 268800, Note Name: A#1, Velocity: 39
Note OFF: Time 269040, Note Name: A#1
Note ON: Time 269280, Note Name: C#4, Velocity: 36
Note ON: Time 269280, Note Name: E4, Velocity: 44
Note OFF: Time 269760, Note Name: E4
Note OFF: Time 269760, Note Name: C#4
Note ON: Time 269760, Note Name: C4, Velocity: 37
Note ON: Time 269760, Note Name: F3, Velocity: 37
Note ON: Time 269760, Note Name: D#4, Velocity: 44
Note OFF: Time 270240, Note Name: D#4
Note ON: Time 270240, Note Name: G4, Velocity: 44
Note OFF: Time 270600, Note Name: G4
Note ON: Time 270600, Note Name: F4, Velocity: 40
Note OFF: Time 270660, Note Name: F4
Note ON: Time 270660, Note Name: A#2, Velocity: 39
Note ON: Time 270690, Note Name: F3, Velocity: 39
Note OFF: Time 270720, Note Name: F3
Note OFF: Time 270720, Note Name: C4
Note ON: Time 270720, Note Name: F4, Velocity: 46
Note OFF: Time 271200, Note Name: F4
Note OFF: Time 271200, Note Name: A#2
Note OFF: Time 271200, Note Name: F3
Note ON: Time 271200, Note Name: E4, Velocity: 44
Note OFF: Time 271680, Note Name: E4
Note ON: Time 271680, Note Name: D#4, Velocity: 37
Note ON: Time 271680, Note Name: C4, Velocity: 37
Note ON: Time 271680, Note Name: F3, Velocity: 37
Note ON: Time 271680, Note Name: F4, Velocity: 44
Note OFF: Time 272160, Note Name: F4
Note OFF: Time 272160, Note Name: D#4
Note OFF: Time 272160, Note Name: C4
Note OFF: Time 272160, Note Name: F3
Note ON: Time 272160, Note Name: D#3, Velocity: 37
Note ON: Time 272160, Note Name: G3, Velocity: 37
Note ON: Time 272160, Note Name: C4, Velocity: 37
Note ON: Time 272160, Note Name: D#4, Velocity: 37
Note OFF: Time 272640, Note Name: D#4
Note OFF: Time 272640, Note Name: D#3
Note OFF: Time 272640, Note Name: G3
Note OFF: Time 272640, Note Name: C4
Note ON: Time 272640, Note Name: C4, Velocity: 41
Note ON: Time 272640, Note Name: A3, Velocity: 41
Note ON: Time 272640, Note Name: D3, Velocity: 41
Note ON: Time 272640, Note Name: F#4, Velocity: 49
Note OFF: Time 273120, Note Name: F#4
Note OFF: Time 273120, Note Name: C4
Note OFF: Time 273120, Note Name: A3
Note OFF: Time 273120, Note Name: D3
Note ON: Time 273120, Note Name: F#1, Velocity: 36
Note ON: Time 273120, Note Name: F#2, Velocity: 42
Note OFF: Time 273600, Note Name: F#2
Note OFF: Time 273600, Note Name: F#1
Note ON: Time 273600, Note Name: G1, Velocity: 41
Note ON: Time 273600, Note Name: G2, Velocity: 49
Note OFF: Time 274080, Note Name: G2
Note OFF: Time 274080, Note Name: G1
Note ON: Time 274080, Note Name: A1, Velocity: 41
Note ON: Time 274080, Note Name: A2, Velocity: 49
Note OFF: Time 274440, Note Name: A2
Note OFF: Time 274440, Note Name: A1
Note ON: Time 274440, Note Name: A#1, Velocity: 37
Note ON: Time 274440, Note Name: A#2, Velocity: 45
Note OFF: Time 274560, Note Name: A#2
Note OFF: Time 274560, Note Name: A#1
Note ON: Time 274560, Note Name: B1, Velocity: 41
Note ON: Time 274560, Note Name: B2, Velocity: 49
Note OFF: Time 275040, Note Name: B2
Note OFF: Time 275040, Note Name: B1
Note ON: Time 275040, Note Name: C2, Velocity: 41
Note ON: Time 275040, Note Name: C3, Velocity: 49
Note OFF: Time 275400, Note Name: C3
Note OFF: Time 275400, Note Name: C2
Note ON: Time 275400, Note Name: D2, Velocity: 37
Note ON: Time 275400, Note Name: D3, Velocity: 45
Note OFF: Time 275520, Note Name: D3
Note OFF: Time 275520, Note Name: D2
Note ON: Time 275520, Note Name: D#2, Velocity: 41
Note ON: Time 275520, Note Name: D#3, Velocity: 49
Note OFF: Time 276000, Note Name: D#3
Note OFF: Time 276000, Note Name: D#2
Note ON: Time 276000, Note Name: F2, Velocity: 41
Note ON: Time 276000, Note Name: F3, Velocity: 46
Note OFF: Time 276480, Note Name: F3
Note OFF: Time 276480, Note Name: F2
Note ON: Time 276480, Note Name: A#1, Velocity: 39
Note OFF: Time 276640, Note Name: A#1
Note ON: Time 276640, Note Name: E3, Velocity: 33
Note OFF: Time 276800, Note Name: E3
Note ON: Time 276800, Note Name: F3, Velocity: 31
Note OFF: Time 276960, Note Name: F3
Note ON: Time 276960, Note Name: G3, Velocity: 37
Note OFF: Time 277120, Note Name: G3
Note ON: Time 277120, Note Name: F3, Velocity: 31
Note OFF: Time 277280, Note Name: F3
Note ON: Time 277280, Note Name: F2, Velocity: 31
Note OFF: Time 277440, Note Name: F2
Note ON: Time 277440, Note Name: A#2, Velocity: 39
Note OFF: Time 277600, Note Name: A#2
Note ON: Time 277600, Note Name: E3, Velocity: 35
Note OFF: Time 277760, Note Name: E3
Note ON: Time 277760, Note Name: F3, Velocity: 35
Note OFF: Time 277920, Note Name: F3
Note ON: Time 277920, Note Name: G3, Velocity: 37
Note OFF: Time 278080, Note Name: G3
Note ON: Time 278080, Note Name: F3, Velocity: 33
Note OFF: Time 278240, Note Name: F3
Note ON: Time 278240, Note Name: F2, Velocity: 33
Note OFF: Time 278400, Note Name: F2
Note ON: Time 278400, Note Name: C3, Velocity: 39
Note OFF: Time 278560, Note Name: C3
Note ON: Time 278560, Note Name: E3, Velocity: 35
Note OFF: Time 278720, Note Name: E3
Note ON: Time 278720, Note Name: F3, Velocity: 35
Note OFF: Time 278880, Note Name: F3
Note ON: Time 278880, Note Name: G3, Velocity: 37
Note OFF: Time 279040, Note Name: G3
Note ON: Time 279040, Note Name: F3, Velocity: 33
Note OFF: Time 279200, Note Name: F3
Note ON: Time 279200, Note Name: F2, Velocity: 33
Note OFF: Time 279360, Note Name: F2
Note ON: Time 279360, Note Name: D#3, Velocity: 39
Note OFF: Time 279520, Note Name: D#3
Note ON: Time 279520, Note Name: E3, Velocity: 35
Note OFF: Time 279680, Note Name: E3
Note ON: Time 279680, Note Name: F3, Velocity: 35
Note OFF: Time 279840, Note Name: F3
Note ON: Time 279840, Note Name: G3, Velocity: 37
Note OFF: Time 280000, Note Name: G3
Note ON: Time 280000, Note Name: F3, Velocity: 33
Note OFF: Time 280160, Note Name: F3
Note ON: Time 280160, Note Name: F2, Velocity: 33
Note OFF: Time 280320, Note Name: F2
Note ON: Time 280320, Note Name: A#1, Velocity: 39
Note OFF: Time 280560, Note Name: A#1
Note ON: Time 280560, Note Name: E3, Velocity: 34
Note OFF: Time 280680, Note Name: E3
Note ON: Time 280680, Note Name: F3, Velocity: 33
Note OFF: Time 280800, Note Name: F3
Note ON: Time 280800, Note Name: G3, Velocity: 37
Note OFF: Time 280920, Note Name: G3
Note ON: Time 280920, Note Name: F3, Velocity: 31
Note OFF: Time 281028, Note Name: F3
Note ON: Time 281040, Note Name: F3, Velocity: 37
Note OFF: Time 281160, Note Name: F3
Note ON: Time 281160, Note Name: F2, Velocity: 37
Note OFF: Time 281280, Note Name: F2
Note ON: Time 281280, Note Name: A#2, Velocity: 39
Note OFF: Time 281520, Note Name: A#2
Note ON: Time 281520, Note Name: E3, Velocity: 35
Note OFF: Time 281640, Note Name: E3
Note ON: Time 281640, Note Name: F3, Velocity: 35
Note OFF: Time 281760, Note Name: F3
Note ON: Time 281760, Note Name: G3, Velocity: 37
Note OFF: Time 281880, Note Name: G3
Note ON: Time 281880, Note Name: F3, Velocity: 33
Note OFF: Time 281988, Note Name: F3
Note ON: Time 282000, Note Name: F3, Velocity: 37
Note OFF: Time 282120, Note Name: F3
Note ON: Time 282120, Note Name: F2, Velocity: 31
Note OFF: Time 282240, Note Name: F2
Note ON: Time 282240, Note Name: F1, Velocity: 39
Note OFF: Time 282480, Note Name: F1
Note ON: Time 282480, Note Name: E3, Velocity: 35
Note OFF: Time 282600, Note Name: E3
Note ON: Time 282600, Note Name: F3, Velocity: 35
Note OFF: Time 282720, Note Name: F3
Note ON: Time 282720, Note Name: G3, Velocity: 37
Note OFF: Time 282840, Note Name: G3
Note ON: Time 282840, Note Name: F3, Velocity: 33
Note OFF: Time 282948, Note Name: F3
Note ON: Time 282960, Note Name: F3, Velocity: 37
Note OFF: Time 283080, Note Name: F3
Note ON: Time 283080, Note Name: F2, Velocity: 33
Note OFF: Time 283200, Note Name: F2
Note ON: Time 283200, Note Name: D#3, Velocity: 39
Note OFF: Time 283440, Note Name: D#3
Note ON: Time 283440, Note Name: E3, Velocity: 35
Note OFF: Time 283560, Note Name: E3
Note ON: Time 283560, Note Name: F3, Velocity: 35
Note OFF: Time 283680, Note Name: F3
Note ON: Time 283680, Note Name: G3, Velocity: 39
Note OFF: Time 283800, Note Name: G3
Note ON: Time 283800, Note Name: F3, Velocity: 35
Note OFF: Time 283908, Note Name: F3
Note ON: Time 283920, Note Name: F3, Velocity: 39
Note OFF: Time 284040, Note Name: F3
Note ON: Time 284040, Note Name: F2, Velocity: 35
Note OFF: Time 284160, Note Name: F2
Note ON: Time 284160, Note Name: A#2, Velocity: 44
Note OFF: Time 284280, Note Name: A#2
Note ON: Time 284280, Note Name: F3, Velocity: 39
Note OFF: Time 284400, Note Name: F3
Note ON: Time 284400, Note Name: G3, Velocity: 39
Note OFF: Time 284520, Note Name: G3
Note ON: Time 284520, Note Name: F3, Velocity: 39
Note OFF: Time 284640, Note Name: F3
Note ON: Time 284640, Note Name: D4, Velocity: 44
Note OFF: Time 284760, Note Name: D4
Note ON: Time 284760, Note Name: F3, Velocity: 40
Note OFF: Time 284880, Note Name: F3
Note ON: Time 284880, Note Name: G3, Velocity: 40
Note OFF: Time 285000, Note Name: G3
Note ON: Time 285000, Note Name: F3, Velocity: 41
Note OFF: Time 285120, Note Name: F3
Note ON: Time 285120, Note Name: F2, Velocity: 45
Note OFF: Time 285240, Note Name: F2
Note ON: Time 285240, Note Name: F3, Velocity: 40
Note OFF: Time 285360, Note Name: F3
Note ON: Time 285360, Note Name: G3, Velocity: 41
Note OFF: Time 285480, Note Name: G3
Note ON: Time 285480, Note Name: F3, Velocity: 41
Note OFF: Time 285600, Note Name: F3
Note ON: Time 285600, Note Name: D#4, Velocity: 47
Note OFF: Time 285720, Note Name: D#4
Note ON: Time 285720, Note Name: F3, Velocity: 44
Note OFF: Time 285840, Note Name: F3
Note ON: Time 285840, Note Name: G3, Velocity: 44
Note OFF: Time 285960, Note Name: G3
Note ON: Time 285960, Note Name: F3, Velocity: 44
Note OFF: Time 286080, Note Name: F3
Note ON: Time 286080, Note Name: A#2, Velocity: 48
Note OFF: Time 286200, Note Name: A#2
Note ON: Time 286200, Note Name: F3, Velocity: 42
Note OFF: Time 286320, Note Name: F3
Note ON: Time 286320, Note Name: G3, Velocity: 42
Note OFF: Time 286440, Note Name: G3
Note ON: Time 286440, Note Name: F3, Velocity: 42
Note OFF: Time 286560, Note Name: F3
Note ON: Time 286560, Note Name: D4, Velocity: 49
Note OFF: Time 286680, Note Name: D4
Note ON: Time 286680, Note Name: F3, Velocity: 46
Note OFF: Time 286800, Note Name: F3
Note ON: Time 286800, Note Name: G3, Velocity: 46
Note OFF: Time 286920, Note Name: G3
Note ON: Time 286920, Note Name: F3, Velocity: 46
Note OFF: Time 287040, Note Name: F3
Note ON: Time 287040, Note Name: F2, Velocity: 50
Note OFF: Time 287160, Note Name: F2
Note ON: Time 287160, Note Name: F3, Velocity: 46
Note OFF: Time 287280, Note Name: F3
Note ON: Time 287280, Note Name: G3, Velocity: 46
Note OFF: Time 287400, Note Name: G3
Note ON: Time 287400, Note Name: F3, Velocity: 46
Note OFF: Time 287520, Note Name: F3
Note ON: Time 287520, Note Name: D#4, Velocity: 52
Note OFF: Time 287640, Note Name: D#4
Note ON: Time 287640, Note Name: F3, Velocity: 49
Note OFF: Time 287760, Note Name: F3
Note ON: Time 287760, Note Name: G3, Velocity: 49
Note OFF: Time 287880, Note Name: G3
Note ON: Time 287880, Note Name: F3, Velocity: 49
Note OFF: Time 288000, Note Name: F3
Note ON: Time 288000, Note Name: F#2, Velocity: 57
Note OFF: Time 288120, Note Name: F#2
Note ON: Time 288120, Note Name: C#3, Velocity: 51
Note OFF: Time 288240, Note Name: C#3
Note ON: Time 288240, Note Name: D3, Velocity: 51
Note OFF: Time 288360, Note Name: D3
Note ON: Time 288360, Note Name: A3, Velocity: 51
Note OFF: Time 288480, Note Name: A3
Note ON: Time 288480, Note Name: F#3, Velocity: 58
Note OFF: Time 288600, Note Name: F#3
Note ON: Time 288600, Note Name: C#4, Velocity: 53
Note OFF: Time 288720, Note Name: C#4
Note ON: Time 288720, Note Name: D4, Velocity: 53
Note OFF: Time 288840, Note Name: D4
Note ON: Time 288840, Note Name: A4, Velocity: 53
Note OFF: Time 288960, Note Name: A4
Note ON: Time 288960, Note Name: G2, Velocity: 59
Note OFF: Time 289080, Note Name: G2
Note ON: Time 289080, Note Name: C#3, Velocity: 52
Note OFF: Time 289200, Note Name: C#3
Note ON: Time 289200, Note Name: D3, Velocity: 52
Note OFF: Time 289320, Note Name: D3
Note ON: Time 289320, Note Name: A#3, Velocity: 53
Note OFF: Time 289440, Note Name: A#3
Note ON: Time 289440, Note Name: G3, Velocity: 60
Note OFF: Time 289560, Note Name: G3
Note ON: Time 289560, Note Name: C#4, Velocity: 55
Note OFF: Time 289680, Note Name: C#4
Note ON: Time 289680, Note Name: D4, Velocity: 55
Note OFF: Time 289800, Note Name: D4
Note ON: Time 289800, Note Name: A#4, Velocity: 56
Note OFF: Time 289920, Note Name: A#4
Note ON: Time 289920, Note Name: A2, Velocity: 61
Note OFF: Time 290040, Note Name: A2
Note ON: Time 290040, Note Name: E3, Velocity: 55
Note OFF: Time 290160, Note Name: E3
Note ON: Time 290160, Note Name: F3, Velocity: 55
Note OFF: Time 290280, Note Name: F3
Note ON: Time 290280, Note Name: C4, Velocity: 55
Note OFF: Time 290400, Note Name: C4
Note ON: Time 290400, Note Name: A3, Velocity: 62
Note OFF: Time 290520, Note Name: A3
Note ON: Time 290520, Note Name: E4, Velocity: 57
Note OFF: Time 290640, Note Name: E4
Note ON: Time 290640, Note Name: F4, Velocity: 57
Note OFF: Time 290760, Note Name: F4
Note ON: Time 290760, Note Name: C5, Velocity: 57
Note OFF: Time 290880, Note Name: C5
Note ON: Time 290880, Note Name: B2, Velocity: 62
Note OFF: Time 291000, Note Name: B2
Note ON: Time 291000, Note Name: F#3, Velocity: 56
Note OFF: Time 291120, Note Name: F#3
Note ON: Time 291120, Note Name: G3, Velocity: 57
Note OFF: Time 291240, Note Name: G3
Note ON: Time 291240, Note Name: D4, Velocity: 57
Note OFF: Time 291360, Note Name: D4
Note ON: Time 291360, Note Name: B3, Velocity: 63
Note OFF: Time 291480, Note Name: B3
Note ON: Time 291480, Note Name: F#4, Velocity: 58
Note OFF: Time 291600, Note Name: F#4
Note ON: Time 291600, Note Name: G4, Velocity: 59
Note OFF: Time 291720, Note Name: G4
Note ON: Time 291840, Note Name: C2, Velocity: 59
Note OFF: Time 291960, Note Name: C2
Note ON: Time 291960, Note Name: G2, Velocity: 52
Note OFF: Time 292080, Note Name: G2
Note ON: Time 292080, Note Name: C3, Velocity: 52
Note OFF: Time 292200, Note Name: C3
Note ON: Time 292200, Note Name: G3, Velocity: 52
Note OFF: Time 292320, Note Name: G3
Note ON: Time 292320, Note Name: D2, Velocity: 59
Note OFF: Time 292440, Note Name: D2
Note ON: Time 292440, Note Name: G2, Velocity: 52
Note OFF: Time 292560, Note Name: G2
Note ON: Time 292560, Note Name: D3, Velocity: 52
Note OFF: Time 292680, Note Name: D3
Note ON: Time 292680, Note Name: G3, Velocity: 52
Note OFF: Time 292800, Note Name: G3
Note ON: Time 292800, Note Name: D#2, Velocity: 62
Note OFF: Time 292920, Note Name: D#2
Note ON: Time 292920, Note Name: G2, Velocity: 52
Note OFF: Time 293040, Note Name: G2
Note ON: Time 293040, Note Name: C3, Velocity: 52
Note OFF: Time 293160, Note Name: C3
Note ON: Time 293160, Note Name: G3, Velocity: 52
Note OFF: Time 293280, Note Name: G3
Note ON: Time 293280, Note Name: E2, Velocity: 61
Note OFF: Time 293400, Note Name: E2
Note ON: Time 293400, Note Name: A#2, Velocity: 52
Note OFF: Time 293520, Note Name: A#2
Note ON: Time 293520, Note Name: C#3, Velocity: 52
Note OFF: Time 293640, Note Name: C#3
Note ON: Time 293640, Note Name: G3, Velocity: 52
Note OFF: Time 293760, Note Name: G3
Note ON: Time 293760, Note Name: F2, Velocity: 59
Note OFF: Time 293880, Note Name: F2
Note ON: Time 293880, Note Name: C3, Velocity: 52
Note OFF: Time 294000, Note Name: C3
Note ON: Time 294000, Note Name: D#3, Velocity: 52
Note OFF: Time 294120, Note Name: D#3
Note ON: Time 294120, Note Name: A3, Velocity: 52
Note OFF: Time 294240, Note Name: A3
Note ON: Time 294240, Note Name: G2, Velocity: 58
Note OFF: Time 294360, Note Name: G2
Note ON: Time 294360, Note Name: A#2, Velocity: 52
Note OFF: Time 294480, Note Name: A#2
Note ON: Time 294480, Note Name: D#3, Velocity: 52
Note OFF: Time 294600, Note Name: D#3
Note ON: Time 294600, Note Name: A#3, Velocity: 52
Note OFF: Time 294720, Note Name: A#3
Note ON: Time 294720, Note Name: A2, Velocity: 52
Note OFF: Time 294840, Note Name: A2
Note ON: Time 294840, Note Name: C3, Velocity: 47
Note OFF: Time 294960, Note Name: C3
Note ON: Time 294960, Note Name: D#3, Velocity: 47
Note OFF: Time 295080, Note Name: D#3
Note ON: Time 295080, Note Name: C4, Velocity: 47
Note OFF: Time 295200, Note Name: C4
Note ON: Time 295200, Note Name: C3, Velocity: 55
Note OFF: Time 295320, Note Name: C3
Note ON: Time 295320, Note Name: D#3, Velocity: 47
Note OFF: Time 295440, Note Name: D#3
Note ON: Time 295440, Note Name: A3, Velocity: 47
Note OFF: Time 295560, Note Name: A3
Note ON: Time 295560, Note Name: D#4, Velocity: 47
Note OFF: Time 295680, Note Name: D#4
Note ON: Time 295680, Note Name: D3, Velocity: 46
Note ON: Time 295680, Note Name: D4, Velocity: 55
Note ON: Time 295680, Note Name: A#3, Velocity: 46
Note OFF: Time 295920, Note Name: A#3
Note OFF: Time 295920, Note Name: D4
Note OFF: Time 295920, Note Name: D3
Note ON: Time 295920, Note Name: D4, Velocity: 46
Note ON: Time 295920, Note Name: A#3, Velocity: 38
Note ON: Time 295920, Note Name: D3, Velocity: 38
Note OFF: Time 296160, Note Name: D3
Note OFF: Time 296160, Note Name: A#3
Note OFF: Time 296160, Note Name: D4
Note ON: Time 296160, Note Name: D#3, Velocity: 42
Note ON: Time 296160, Note Name: A#3, Velocity: 42
Note ON: Time 296160, Note Name: D#4, Velocity: 51
Note OFF: Time 296400, Note Name: D#4
Note OFF: Time 296400, Note Name: A#3
Note OFF: Time 296400, Note Name: D#3
Note ON: Time 296400, Note Name: F3, Velocity: 38
Note ON: Time 296400, Note Name: A#3, Velocity: 38
Note ON: Time 296400, Note Name: D4, Velocity: 46
Note OFF: Time 296640, Note Name: D4
Note OFF: Time 296640, Note Name: A#3
Note OFF: Time 296640, Note Name: F3
Note ON: Time 296640, Note Name: D#4, Velocity: 50
Note ON: Time 296640, Note Name: F#3, Velocity: 42
Note OFF: Time 296880, Note Name: F#3
Note OFF: Time 296880, Note Name: D#4
Note ON: Time 296880, Note Name: B2, Velocity: 39
Note ON: Time 296880, Note Name: B3, Velocity: 47
Note OFF: Time 297120, Note Name: B3
Note OFF: Time 297120, Note Name: B2
Note ON: Time 297120, Note Name: C3, Velocity: 44
Note ON: Time 297120, Note Name: C4, Velocity: 52
Note OFF: Time 297360, Note Name: C4
Note OFF: Time 297360, Note Name: C3
Note ON: Time 297360, Note Name: D#3, Velocity: 40
Note ON: Time 297360, Note Name: D#4, Velocity: 47
Note OFF: Time 297600, Note Name: D#4
Note OFF: Time 297600, Note Name: D#3
Note ON: Time 297600, Note Name: D3, Velocity: 36
Note ON: Time 297600, Note Name: F3, Velocity: 39
Note ON: Time 297600, Note Name: D4, Velocity: 50
Note ON: Time 297600, Note Name: A#3, Velocity: 38
Note OFF: Time 297840, Note Name: A#3
Note OFF: Time 297840, Note Name: D3
Note OFF: Time 297840, Note Name: F3
Note OFF: Time 297840, Note Name: D4
Note ON: Time 297840, Note Name: A2, Velocity: 36
Note ON: Time 297840, Note Name: A3, Velocity: 42
Note OFF: Time 298080, Note Name: A3
Note OFF: Time 298080, Note Name: A2
Note ON: Time 298080, Note Name: A#2, Velocity: 49
Note ON: Time 298080, Note Name: A#3, Velocity: 49
Note OFF: Time 298320, Note Name: A#3
Note OFF: Time 298320, Note Name: A#2
Note ON: Time 298320, Note Name: E2, Velocity: 37
Note ON: Time 298320, Note Name: E3, Velocity: 45
Note OFF: Time 298500, Note Name: E3
Note OFF: Time 298500, Note Name: E2
Note ON: Time 298560, Note Name: E1, Velocity: 44
Note ON: Time 298560, Note Name: E2, Velocity: 52
Note OFF: Time 298800, Note Name: E2
Note OFF: Time 298800, Note Name: E1
Note ON: Time 298800, Note Name: F2, Velocity: 48
Note ON: Time 298800, Note Name: F1, Velocity: 40
Note ON: Time 299040, Note Name: G3, Velocity: 55
Note OFF: Time 299280, Note Name: G3
Note OFF: Time 299280, Note Name: F1
Note ON: Time 299280, Note Name: F3, Velocity: 51
Note OFF: Time 299520, Note Name: F2
Note ON: Time 299520, Note Name: A#2, Velocity: 53
Note OFF: Time 299680, Note Name: A#2
Note OFF: Time 299680, Note Name: F3
Note ON: Time 299680, Note Name: E3, Velocity: 42
Note ON: Time 299680, Note Name: A#3, Velocity: 51
Note OFF: Time 299760, Note Name: A#3
Note OFF: Time 299760, Note Name: E3
Note ON: Time 299840, Note Name: E3, Velocity: 42
Note ON: Time 299840, Note Name: A#3, Velocity: 51
Note OFF: Time 299920, Note Name: A#3
Note OFF: Time 299920, Note Name: E3
Note ON: Time 300000, Note Name: E3, Velocity: 46
Note ON: Time 300000, Note Name: A#3, Velocity: 56
Note OFF: Time 300160, Note Name: A#3
Note OFF: Time 300160, Note Name: E3
Note ON: Time 300160, Note Name: F3, Velocity: 38
Note ON: Time 300160, Note Name: A3, Velocity: 45
Note OFF: Time 300240, Note Name: A3
Note OFF: Time 300240, Note Name: F3
Note ON: Time 300320, Note Name: F3, Velocity: 42
Note ON: Time 300320, Note Name: F4, Velocity: 51
Note ON: Time 300320, Note Name: C4, Velocity: 42
Note OFF: Time 300400, Note Name: C4
Note OFF: Time 300400, Note Name: F4
Note OFF: Time 300400, Note Name: F3
Note ON: Time 300480, Note Name: F3, Velocity: 46
Note ON: Time 300480, Note Name: C4, Velocity: 46
Note ON: Time 300480, Note Name: F4, Velocity: 56
Note OFF: Time 300640, Note Name: F4
Note OFF: Time 300640, Note Name: C4
Note OFF: Time 300640, Note Name: F3
Note ON: Time 300640, Note Name: A#3, Velocity: 42
Note ON: Time 300640, Note Name: F4, Velocity: 51
Note OFF: Time 300720, Note Name: F4
Note OFF: Time 300720, Note Name: A#3
Note ON: Time 300800, Note Name: E4, Velocity: 51
Note ON: Time 300800, Note Name: A#4, Velocity: 51
Note OFF: Time 300880, Note Name: A#4
Note OFF: Time 300880, Note Name: E4
Note ON: Time 300960, Note Name: E4, Velocity: 56
Note ON: Time 300960, Note Name: A#4, Velocity: 56
Note OFF: Time 301120, Note Name: A#4
Note OFF: Time 301120, Note Name: E4
Note ON: Time 301120, Note Name: F4, Velocity: 40
Note ON: Time 301120, Note Name: A4, Velocity: 48
Note OFF: Time 301200, Note Name: A4
Note OFF: Time 301200, Note Name: F4
Note ON: Time 301280, Note Name: F4, Velocity: 42
Note ON: Time 301280, Note Name: C5, Velocity: 42
Note ON: Time 301280, Note Name: F5, Velocity: 51
Note OFF: Time 301360, Note Name: F5
Note OFF: Time 301360, Note Name: C5
Note OFF: Time 301360, Note Name: F4
Note ON: Time 301440, Note Name: F4, Velocity: 46
Note ON: Time 301440, Note Name: C5, Velocity: 46
Note ON: Time 301440, Note Name: F5, Velocity: 56
Note OFF: Time 301600, Note Name: F5
Note OFF: Time 301600, Note Name: C5
Note OFF: Time 301600, Note Name: F4
Note ON: Time 301600, Note Name: A#4, Velocity: 42
Note ON: Time 301600, Note Name: F5, Velocity: 51
Note OFF: Time 301680, Note Name: F5
Note OFF: Time 301680, Note Name: A#4
Note ON: Time 301760, Note Name: A#4, Velocity: 52
Note ON: Time 301760, Note Name: E4, Velocity: 44
Note OFF: Time 301840, Note Name: E4
Note OFF: Time 301840, Note Name: A#4
Note ON: Time 301920, Note Name: E4, Velocity: 46
Note ON: Time 301920, Note Name: A#4, Velocity: 56
Note OFF: Time 302080, Note Name: A#4
Note OFF: Time 302080, Note Name: E4
Note ON: Time 302080, Note Name: F4, Velocity: 41
Note ON: Time 302080, Note Name: A4, Velocity: 49
Note OFF: Time 302160, Note Name: A4
Note OFF: Time 302160, Note Name: F4
Note ON: Time 302240, Note Name: F3, Velocity: 44
Note ON: Time 302240, Note Name: C4, Velocity: 44
Note ON: Time 302240, Note Name: F4, Velocity: 52
Note OFF: Time 302320, Note Name: F4
Note OFF: Time 302320, Note Name: C4
Note OFF: Time 302320, Note Name: F3
Note ON: Time 302400, Note Name: F3, Velocity: 46
Note ON: Time 302400, Note Name: C4, Velocity: 46
Note ON: Time 302400, Note Name: F4, Velocity: 56
Note OFF: Time 302560, Note Name: F4
Note OFF: Time 302560, Note Name: C4
Note OFF: Time 302560, Note Name: F3
Note ON: Time 302560, Note Name: A#3, Velocity: 41
Note ON: Time 302560, Note Name: F4, Velocity: 49
Note OFF: Time 302640, Note Name: F4
Note OFF: Time 302640, Note Name: A#3
Note ON: Time 302720, Note Name: E3, Velocity: 44
Note ON: Time 302720, Note Name: A#3, Velocity: 52
Note OFF: Time 302800, Note Name: A#3
Note OFF: Time 302800, Note Name: E3
Note ON: Time 302880, Note Name: E3, Velocity: 46
Note ON: Time 302880, Note Name: A#3, Velocity: 56
Note OFF: Time 303040, Note Name: A#3
Note OFF: Time 303040, Note Name: E3
Note ON: Time 303040, Note Name: F3, Velocity: 39
Note ON: Time 303040, Note Name: A3, Velocity: 46
Note OFF: Time 303120, Note Name: A3
Note OFF: Time 303120, Note Name: F3
Note ON: Time 303200, Note Name: C3, Velocity: 44
Note ON: Time 303200, Note Name: F2, Velocity: 44
Note ON: Time 303200, Note Name: F3, Velocity: 52
Note OFF: Time 303280, Note Name: F3
Note OFF: Time 303280, Note Name: F2
Note OFF: Time 303280, Note Name: C3
Note ON: Time 303360, Note Name: F2, Velocity: 46
Note ON: Time 303360, Note Name: F3, Velocity: 56
Note ON: Time 303360, Note Name: C3, Velocity: 46
Note OFF: Time 303520, Note Name: C3
Note OFF: Time 303520, Note Name: F3
Note OFF: Time 303520, Note Name: F2
Note ON: Time 303520, Note Name: F3, Velocity: 46
Note ON: Time 303520, Note Name: A#2, Velocity: 39
Note OFF: Time 303600, Note Name: A#2
Note OFF: Time 303600, Note Name: F3
Note ON: Time 303680, Note Name: C3, Velocity: 36
Note ON: Time 303680, Note Name: E3, Velocity: 36
Note ON: Time 303680, Note Name: A#3, Velocity: 41
Note OFF: Time 303760, Note Name: A#3
Note OFF: Time 303760, Note Name: E3
Note OFF: Time 303760, Note Name: C3
Note ON: Time 303840, Note Name: C3, Velocity: 37
Note ON: Time 303840, Note Name: E3, Velocity: 37
Note ON: Time 303840, Note Name: A#3, Velocity: 44
Note OFF: Time 304000, Note Name: A#3
Note OFF: Time 304000, Note Name: E3
Note OFF: Time 304000, Note Name: C3
Note ON: Time 304000, Note Name: F3, Velocity: 34
Note ON: Time 304000, Note Name: A3, Velocity: 41
Note OFF: Time 304080, Note Name: A3
Note OFF: Time 304080, Note Name: F3
Note ON: Time 304160, Note Name: F3, Velocity: 29
Note ON: Time 304160, Note Name: F4, Velocity: 36
Note ON: Time 304160, Note Name: C4, Velocity: 29
Note OFF: Time 304240, Note Name: C4
Note OFF: Time 304240, Note Name: F4
Note OFF: Time 304240, Note Name: F3
Note ON: Time 304320, Note Name: F3, Velocity: 33
Note ON: Time 304320, Note Name: C4, Velocity: 33
Note ON: Time 304320, Note Name: F4, Velocity: 39
Note OFF: Time 304480, Note Name: F4
Note OFF: Time 304480, Note Name: C4
Note OFF: Time 304480, Note Name: F3
Note ON: Time 304480, Note Name: A#3, Velocity: 29
Note ON: Time 304480, Note Name: F4, Velocity: 36
Note OFF: Time 304560, Note Name: F4
Note OFF: Time 304560, Note Name: A#3
Note ON: Time 304640, Note Name: C4, Velocity: 36
Note ON: Time 304640, Note Name: E4, Velocity: 36
Note ON: Time 304640, Note Name: A#4, Velocity: 36
Note OFF: Time 304720, Note Name: A#4
Note OFF: Time 304720, Note Name: E4
Note OFF: Time 304720, Note Name: C4
Note ON: Time 304800, Note Name: C4, Velocity: 39
Note ON: Time 304800, Note Name: E4, Velocity: 39
Note ON: Time 304800, Note Name: A#4, Velocity: 39
Note OFF: Time 304960, Note Name: A#4
Note OFF: Time 304960, Note Name: E4
Note OFF: Time 304960, Note Name: C4
Note ON: Time 304960, Note Name: F4, Velocity: 29
Note ON: Time 304960, Note Name: A4, Velocity: 36
Note OFF: Time 305040, Note Name: A4
Note OFF: Time 305040, Note Name: F4
Note ON: Time 305120, Note Name: F4, Velocity: 26
Note ON: Time 305120, Note Name: C5, Velocity: 26
Note ON: Time 305120, Note Name: F5, Velocity: 31
Note OFF: Time 305200, Note Name: F5
Note OFF: Time 305200, Note Name: C5
Note OFF: Time 305200, Note Name: F4
Note ON: Time 305280, Note Name: F4, Velocity: 29
Note ON: Time 305280, Note Name: C5, Velocity: 29
Note ON: Time 305280, Note Name: F5, Velocity: 35
Note OFF: Time 305440, Note Name: F5
Note OFF: Time 305440, Note Name: C5
Note OFF: Time 305440, Note Name: F4
Note ON: Time 305440, Note Name: A#4, Velocity: 26
Note ON: Time 305440, Note Name: F5, Velocity: 31
Note OFF: Time 305520, Note Name: F5
Note OFF: Time 305520, Note Name: A#4
Note ON: Time 305600, Note Name: C4, Velocity: 33
Note ON: Time 305600, Note Name: A#4, Velocity: 39
Note ON: Time 305600, Note Name: E4, Velocity: 33
Note OFF: Time 305680, Note Name: E4
Note OFF: Time 305680, Note Name: A#4
Note OFF: Time 305680, Note Name: C4
Note ON: Time 305760, Note Name: C4, Velocity: 35
Note ON: Time 305760, Note Name: E4, Velocity: 35
Note ON: Time 305760, Note Name: A#4, Velocity: 41
Note OFF: Time 305920, Note Name: A#4
Note OFF: Time 305920, Note Name: E4
Note OFF: Time 305920, Note Name: C4
Note ON: Time 305920, Note Name: F4, Velocity: 33
Note ON: Time 305920, Note Name: A4, Velocity: 39
Note OFF: Time 306000, Note Name: A4
Note OFF: Time 306000, Note Name: F4
Note ON: Time 306080, Note Name: F3, Velocity: 33
Note ON: Time 306080, Note Name: C4, Velocity: 33
Note ON: Time 306080, Note Name: F4, Velocity: 39
Note OFF: Time 306160, Note Name: F4
Note OFF: Time 306160, Note Name: C4
Note OFF: Time 306160, Note Name: F3
Note ON: Time 306240, Note Name: F3, Velocity: 35
Note ON: Time 306240, Note Name: C4, Velocity: 35
Note ON: Time 306240, Note Name: F4, Velocity: 41
Note OFF: Time 306400, Note Name: F4
Note OFF: Time 306400, Note Name: C4
Note OFF: Time 306400, Note Name: F3
Note ON: Time 306400, Note Name: A#3, Velocity: 33
Note ON: Time 306400, Note Name: F4, Velocity: 39
Note OFF: Time 306480, Note Name: F4
Note OFF: Time 306480, Note Name: A#3
Note ON: Time 306560, Note Name: C3, Velocity: 33
Note ON: Time 306560, Note Name: E3, Velocity: 33
Note ON: Time 306560, Note Name: A#3, Velocity: 39
Note OFF: Time 306640, Note Name: A#3
Note OFF: Time 306640, Note Name: E3
Note OFF: Time 306640, Note Name: C3
Note ON: Time 306720, Note Name: C3, Velocity: 35
Note ON: Time 306720, Note Name: E3, Velocity: 35
Note ON: Time 306720, Note Name: A#3, Velocity: 41
Note OFF: Time 306880, Note Name: A#3
Note OFF: Time 306880, Note Name: E3
Note OFF: Time 306880, Note Name: C3
Note ON: Time 306880, Note Name: F3, Velocity: 33
Note ON: Time 306880, Note Name: A3, Velocity: 39
Note OFF: Time 306960, Note Name: A3
Note OFF: Time 306960, Note Name: F3
Note ON: Time 307040, Note Name: F2, Velocity: 41
Note ON: Time 307040, Note Name: F3, Velocity: 49
Note OFF: Time 307120, Note Name: F3
Note OFF: Time 307120, Note Name: F2
Note ON: Time 307200, Note Name: F2, Velocity: 39
Note ON: Time 307200, Note Name: F3, Velocity: 47
Note OFF: Time 307360, Note Name: F3
Note OFF: Time 307360, Note Name: F2
Note ON: Time 307360, Note Name: E2, Velocity: 35
Note ON: Time 307360, Note Name: E3, Velocity: 41
Note OFF: Time 307440, Note Name: E3
Note OFF: Time 307440, Note Name: E2
Note ON: Time 307520, Note Name: E3, Velocity: 38
Note ON: Time 307520, Note Name: F#3, Velocity: 45
Note OFF: Time 307600, Note Name: F#3
Note OFF: Time 307600, Note Name: E3
Note ON: Time 307680, Note Name: E3, Velocity: 39
Note ON: Time 307680, Note Name: F#3, Velocity: 47
Note OFF: Time 307840, Note Name: F#3
Note OFF: Time 307840, Note Name: E3
Note ON: Time 307840, Note Name: E3, Velocity: 34
Note ON: Time 307840, Note Name: B3, Velocity: 41
Note OFF: Time 307920, Note Name: B3
Note OFF: Time 307920, Note Name: E3
Note ON: Time 308000, Note Name: E3, Velocity: 36
Note ON: Time 308000, Note Name: B3, Velocity: 44
Note OFF: Time 308080, Note Name: B3
Note OFF: Time 308080, Note Name: E3
Note ON: Time 308160, Note Name: E3, Velocity: 39
Note ON: Time 308160, Note Name: B3, Velocity: 47
Note OFF: Time 308320, Note Name: B3
Note OFF: Time 308320, Note Name: E3
Note ON: Time 308320, Note Name: A3, Velocity: 34
Note ON: Time 308320, Note Name: E3, Velocity: 34
Note ON: Time 308320, Note Name: E4, Velocity: 41
Note OFF: Time 308400, Note Name: E4
Note OFF: Time 308400, Note Name: E3
Note OFF: Time 308400, Note Name: A3
Note ON: Time 308480, Note Name: E3, Velocity: 44
Note ON: Time 308480, Note Name: B3, Velocity: 44
Note ON: Time 308480, Note Name: F#4, Velocity: 44
Note OFF: Time 308560, Note Name: F#4
Note OFF: Time 308560, Note Name: B3
Note OFF: Time 308560, Note Name: E3
Note ON: Time 308640, Note Name: E3, Velocity: 47
Note ON: Time 308640, Note Name: B3, Velocity: 47
Note ON: Time 308640, Note Name: F#4, Velocity: 47
Note OFF: Time 308800, Note Name: F#4
Note OFF: Time 308800, Note Name: B3
Note OFF: Time 308800, Note Name: E3
Note ON: Time 308800, Note Name: E3, Velocity: 44
Note ON: Time 308800, Note Name: B3, Velocity: 34
Note ON: Time 308800, Note Name: E4, Velocity: 41
Note OFF: Time 308880, Note Name: E4
Note OFF: Time 308880, Note Name: B3
Note OFF: Time 308880, Note Name: E3
Note ON: Time 308960, Note Name: D4, Velocity: 36
Note ON: Time 308960, Note Name: E3, Velocity: 47
Note ON: Time 308960, Note Name: E4, Velocity: 44
Note ON: Time 308960, Note Name: B3, Velocity: 36
Note OFF: Time 309040, Note Name: B3
Note OFF: Time 309040, Note Name: D4
Note OFF: Time 309040, Note Name: E3
Note OFF: Time 309040, Note Name: E4
Note ON: Time 309120, Note Name: D4, Velocity: 39
Note ON: Time 309120, Note Name: B3, Velocity: 39
Note ON: Time 309120, Note Name: E3, Velocity: 39
Note ON: Time 309120, Note Name: E4, Velocity: 47
Note OFF: Time 309280, Note Name: E4
Note OFF: Time 309280, Note Name: D4
Note OFF: Time 309280, Note Name: B3
Note OFF: Time 309280, Note Name: E3
Note ON: Time 309280, Note Name: B3, Velocity: 34
Note ON: Time 309280, Note Name: F4, Velocity: 49
Note OFF: Time 309440, Note Name: F4
Note OFF: Time 309440, Note Name: B3
Note ON: Time 309440, Note Name: D3, Velocity: 61
Note OFF: Time 309600, Note Name: D3
Note ON: Time 309600, Note Name: F3, Velocity: 47
Note ON: Time 309600, Note Name: D4, Velocity: 56
Note OFF: Time 309760, Note Name: D4
Note OFF: Time 309760, Note Name: F3
Note ON: Time 309760, Note Name: B2, Velocity: 62
Note OFF: Time 309920, Note Name: B2
Note ON: Time 309920, Note Name: F3, Velocity: 49
Note ON: Time 309920, Note Name: B3, Velocity: 59
Note OFF: Time 310080, Note Name: B3
Note OFF: Time 310080, Note Name: F3
Note ON: Time 310080, Note Name: G#2, Velocity: 64
Note OFF: Time 310240, Note Name: G#2
Note ON: Time 310240, Note Name: B2, Velocity: 50
Note ON: Time 310240, Note Name: G#3, Velocity: 60
Note OFF: Time 310400, Note Name: G#3
Note OFF: Time 310400, Note Name: B2
Note ON: Time 310400, Note Name: F2, Velocity: 69
Note OFF: Time 310560, Note Name: F2
Note ON: Time 310560, Note Name: B2, Velocity: 53
Note ON: Time 310560, Note Name: F3, Velocity: 64
Note OFF: Time 310720, Note Name: F3
Note OFF: Time 310720, Note Name: B2
Note ON: Time 310720, Note Name: D2, Velocity: 77
Note OFF: Time 310880, Note Name: D2
Note ON: Time 310880, Note Name: D1, Velocity: 69
Note ON: Time 310880, Note Name: D2, Velocity: 69
Note OFF: Time 311040, Note Name: D2
Note OFF: Time 311040, Note Name: D1
Note ON: Time 311040, Note Name: C#2, Velocity: 42
Note ON: Time 311040, Note Name: C#1, Velocity: 42
Note OFF: Time 311200, Note Name: C#1
Note OFF: Time 311200, Note Name: C#2
Note ON: Time 311200, Note Name: C#2, Velocity: 36
Note ON: Time 311200, Note Name: C#3, Velocity: 50
Note OFF: Time 311360, Note Name: C#3
Note OFF: Time 311360, Note Name: C#2
Note ON: Time 311360, Note Name: C#2, Velocity: 40
Note ON: Time 311360, Note Name: C#3, Velocity: 48
Note OFF: Time 311520, Note Name: C#3
Note OFF: Time 311520, Note Name: C#2
Note ON: Time 311520, Note Name: C#2, Velocity: 40
Note ON: Time 311520, Note Name: C#3, Velocity: 48
Note OFF: Time 311680, Note Name: C#3
Note OFF: Time 311680, Note Name: C#2
Note ON: Time 311680, Note Name: C#2, Velocity: 40
Note ON: Time 311680, Note Name: C#3, Velocity: 48
Note OFF: Time 311840, Note Name: C#3
Note OFF: Time 311840, Note Name: C#2
Note ON: Time 311840, Note Name: C#2, Velocity: 41
Note ON: Time 311840, Note Name: C#3, Velocity: 49
Note OFF: Time 312000, Note Name: C#3
Note OFF: Time 312000, Note Name: C#2
Note ON: Time 312000, Note Name: C#2, Velocity: 38
Note ON: Time 312000, Note Name: C#3, Velocity: 55
Note OFF: Time 312160, Note Name: C#3
Note OFF: Time 312160, Note Name: C#2
Note ON: Time 312160, Note Name: C2, Velocity: 44
Note ON: Time 312160, Note Name: C3, Velocity: 52
Note OFF: Time 312320, Note Name: C3
Note OFF: Time 312320, Note Name: C2
Note ON: Time 312320, Note Name: C2, Velocity: 44
Note ON: Time 312320, Note Name: C3, Velocity: 52
Note OFF: Time 312480, Note Name: C3
Note OFF: Time 312480, Note Name: C2
Note ON: Time 312480, Note Name: C2, Velocity: 47
Note ON: Time 312480, Note Name: C3, Velocity: 56
Note OFF: Time 312640, Note Name: C3
Note OFF: Time 312640, Note Name: C2
Note ON: Time 312640, Note Name: C#2, Velocity: 44
Note ON: Time 312640, Note Name: C#3, Velocity: 52
Note OFF: Time 312800, Note Name: C#3
Note OFF: Time 312800, Note Name: C#2
Note ON: Time 312800, Note Name: C#2, Velocity: 44
Note ON: Time 312800, Note Name: C#3, Velocity: 52
Note OFF: Time 312960, Note Name: C#3
Note OFF: Time 312960, Note Name: C#2
Note ON: Time 312960, Note Name: C#2, Velocity: 46
Note ON: Time 312960, Note Name: C#3, Velocity: 56
Note OFF: Time 313040, Note Name: C#3
Note OFF: Time 313040, Note Name: C#2
Note ON: Time 313120, Note Name: C#2, Velocity: 47
Note ON: Time 313120, Note Name: C#3, Velocity: 57
Note OFF: Time 313200, Note Name: C#3
Note OFF: Time 313200, Note Name: C#2
Note ON: Time 313280, Note Name: C#2, Velocity: 48
Note ON: Time 313280, Note Name: C#3, Velocity: 58
Note OFF: Time 313360, Note Name: C#3
Note OFF: Time 313360, Note Name: C#2
Note ON: Time 313440, Note Name: C#2, Velocity: 49
Note ON: Time 313440, Note Name: C#3, Velocity: 58
Note OFF: Time 313520, Note Name: C#3
Note OFF: Time 313520, Note Name: C#2
Note ON: Time 313600, Note Name: C#2, Velocity: 50
Note ON: Time 313600, Note Name: C#3, Velocity: 59
Note OFF: Time 313680, Note Name: C#3
Note OFF: Time 313680, Note Name: C#2
Note ON: Time 313760, Note Name: C#2, Velocity: 51
Note ON: Time 313760, Note Name: C#3, Velocity: 61
Note OFF: Time 313840, Note Name: C#3
Note OFF: Time 313840, Note Name: C#2
Note ON: Time 313920, Note Name: C#3, Velocity: 62
Note ON: Time 313920, Note Name: C#2, Velocity: 52
Note OFF: Time 314000, Note Name: C#2
Note OFF: Time 314000, Note Name: C#3
Note ON: Time 314080, Note Name: C2, Velocity: 52
Note ON: Time 314080, Note Name: C3, Velocity: 62
Note OFF: Time 314160, Note Name: C3
Note OFF: Time 314160, Note Name: C2
Note ON: Time 314240, Note Name: C2, Velocity: 53
Note ON: Time 314240, Note Name: C3, Velocity: 63
Note OFF: Time 314320, Note Name: C3
Note OFF: Time 314320, Note Name: C2
Note ON: Time 314400, Note Name: C2, Velocity: 53
Note ON: Time 314400, Note Name: C3, Velocity: 64
Note OFF: Time 314480, Note Name: C3
Note OFF: Time 314480, Note Name: C2
Note ON: Time 314560, Note Name: C#2, Velocity: 55
Note ON: Time 314560, Note Name: C#3, Velocity: 66
Note OFF: Time 314640, Note Name: C#3
Note OFF: Time 314640, Note Name: C#2
Note ON: Time 314720, Note Name: C#2, Velocity: 56
Note ON: Time 314720, Note Name: C#3, Velocity: 67
Note OFF: Time 314800, Note Name: C#3
Note OFF: Time 314800, Note Name: C#2
Note ON: Time 314880, Note Name: D2, Velocity: 52
Note ON: Time 314880, Note Name: D3, Velocity: 74
Note OFF: Time 314960, Note Name: D3
Note OFF: Time 314960, Note Name: D2
Note ON: Time 315040, Note Name: F3, Velocity: 50
Note ON: Time 315040, Note Name: A#2, Velocity: 50
Note ON: Time 315040, Note Name: A#3, Velocity: 71
Note OFF: Time 315200, Note Name: A#3
Note OFF: Time 315200, Note Name: A#2
Note OFF: Time 315200, Note Name: F3
Note ON: Time 315200, Note Name: F3, Velocity: 51
Note ON: Time 315200, Note Name: A#2, Velocity: 51
Note ON: Time 315200, Note Name: A#3, Velocity: 72
Note OFF: Time 315360, Note Name: A#3
Note OFF: Time 315360, Note Name: A#2
Note OFF: Time 315360, Note Name: F3
Note ON: Time 315360, Note Name: A#2, Velocity: 53
Note ON: Time 315360, Note Name: F3, Velocity: 53
Note ON: Time 315360, Note Name: A#3, Velocity: 75
Note OFF: Time 315520, Note Name: A#3
Note OFF: Time 315520, Note Name: F3
Note OFF: Time 315520, Note Name: A#2
Note ON: Time 315840, Note Name: D#1, Velocity: 68
Note ON: Time 315840, Note Name: D#2, Velocity: 96
Note OFF: Time 316000, Note Name: D#2
Note OFF: Time 316000, Note Name: D#1
Note ON: Time 316000, Note Name: D#3, Velocity: 50
Note ON: Time 316000, Note Name: A#2, Velocity: 50
Note ON: Time 316000, Note Name: A#3, Velocity: 71
Note OFF: Time 316160, Note Name: A#3
Note OFF: Time 316160, Note Name: A#2
Note OFF: Time 316160, Note Name: D#3
Note ON: Time 316160, Note Name: D#3, Velocity: 51
Note ON: Time 316160, Note Name: A#2, Velocity: 51
Note ON: Time 316160, Note Name: A#3, Velocity: 72
Note OFF: Time 316320, Note Name: A#3
Note OFF: Time 316320, Note Name: A#2
Note OFF: Time 316320, Note Name: D#3
Note ON: Time 316320, Note Name: A#2, Velocity: 53
Note ON: Time 316320, Note Name: D#3, Velocity: 53
Note ON: Time 316320, Note Name: A#3, Velocity: 75
Note OFF: Time 316480, Note Name: A#3
Note OFF: Time 316480, Note Name: D#3
Note OFF: Time 316480, Note Name: A#2
Note ON: Time 316800, Note Name: F1, Velocity: 68
Note ON: Time 316800, Note Name: F2, Velocity: 96
Note OFF: Time 316960, Note Name: F2
Note OFF: Time 316960, Note Name: F1
Note ON: Time 316960, Note Name: F3, Velocity: 50
Note ON: Time 316960, Note Name: A#2, Velocity: 50
Note ON: Time 316960, Note Name: A#3, Velocity: 71
Note OFF: Time 317120, Note Name: A#3
Note OFF: Time 317120, Note Name: A#2
Note OFF: Time 317120, Note Name: F3
Note ON: Time 317120, Note Name: F3, Velocity: 51
Note ON: Time 317120, Note Name: A#2, Velocity: 51
Note ON: Time 317120, Note Name: A#3, Velocity: 72
Note OFF: Time 317280, Note Name: A#3
Note OFF: Time 317280, Note Name: A#2
Note OFF: Time 317280, Note Name: F3
Note ON: Time 317280, Note Name: A#2, Velocity: 53
Note ON: Time 317280, Note Name: F3, Velocity: 53
Note ON: Time 317280, Note Name: A#3, Velocity: 75
Note OFF: Time 317440, Note Name: A#3
Note OFF: Time 317440, Note Name: F3
Note OFF: Time 317440, Note Name: A#2
Note ON: Time 317760, Note Name: F#1, Velocity: 68
Note ON: Time 317760, Note Name: F#2, Velocity: 96
Note OFF: Time 317920, Note Name: F#2
Note OFF: Time 317920, Note Name: F#1
Note ON: Time 317920, Note Name: D#3, Velocity: 50
Note ON: Time 317920, Note Name: A#2, Velocity: 50
Note ON: Time 317920, Note Name: A#3, Velocity: 71
Note OFF: Time 318080, Note Name: A#3
Note OFF: Time 318080, Note Name: A#2
Note OFF: Time 318080, Note Name: D#3
Note ON: Time 318080, Note Name: D#3, Velocity: 51
Note ON: Time 318080, Note Name: A#2, Velocity: 51
Note ON: Time 318080, Note Name: A#3, Velocity: 72
Note OFF: Time 318240, Note Name: A#3
Note OFF: Time 318240, Note Name: A#2
Note OFF: Time 318240, Note Name: D#3
Note ON: Time 318240, Note Name: A#2, Velocity: 53
Note ON: Time 318240, Note Name: D#3, Velocity: 53
Note ON: Time 318240, Note Name: A#3, Velocity: 75
Note OFF: Time 318400, Note Name: A#3
Note OFF: Time 318400, Note Name: D#3
Note OFF: Time 318400, Note Name: A#2
Note ON: Time 318600, Note Name: G1, Velocity: 60
Note ON: Time 318600, Note Name: G2, Velocity: 72
Note OFF: Time 318720, Note Name: G2
Note OFF: Time 318720, Note Name: G1
Note ON: Time 318720, Note Name: G#1, Velocity: 73
Note ON: Time 318720, Note Name: G#2, Velocity: 86
Note OFF: Time 318780, Note Name: G#2
Note OFF: Time 318780, Note Name: G#1
Note ON: Time 318840, Note Name: F1, Velocity: 66
Note ON: Time 318840, Note Name: F2, Velocity: 79
Note OFF: Time 318900, Note Name: F2
Note OFF: Time 318900, Note Name: F1
Note ON: Time 319080, Note Name: G1, Velocity: 73
Note ON: Time 319080, Note Name: G2, Velocity: 86
Note OFF: Time 319140, Note Name: G2
Note OFF: Time 319140, Note Name: G1
Note ON: Time 319200, Note Name: G#1, Velocity: 68
Note ON: Time 319200, Note Name: G#2, Velocity: 81
Note OFF: Time 319260, Note Name: G#2
Note OFF: Time 319260, Note Name: G#1
Note ON: Time 319320, Note Name: F1, Velocity: 68
Note ON: Time 319320, Note Name: F2, Velocity: 81
Note OFF: Time 319380, Note Name: F2
Note OFF: Time 319380, Note Name: F1
Note ON: Time 319680, Note Name: G#1, Velocity: 56
Note ON: Time 319680, Note Name: G#2, Velocity: 67
Note OFF: Time 319800, Note Name: G#2
Note OFF: Time 319800, Note Name: G#1
Note ON: Time 319800, Note Name: F1, Velocity: 49
Note ON: Time 319800, Note Name: F2, Velocity: 60
Note OFF: Time 319860, Note Name: F2
Note OFF: Time 319860, Note Name: F1
Note ON: Time 320040, Note Name: G1, Velocity: 52
Note ON: Time 320040, Note Name: G2, Velocity: 62
Note OFF: Time 320160, Note Name: G2
Note OFF: Time 320160, Note Name: G1
Note ON: Time 320160, Note Name: G#1, Velocity: 51
Note ON: Time 320160, Note Name: G#2, Velocity: 61
Note OFF: Time 320280, Note Name: G#2
Note OFF: Time 320280, Note Name: G#1
Note ON: Time 320280, Note Name: F1, Velocity: 51
Note ON: Time 320280, Note Name: F2, Velocity: 61
Note OFF: Time 320340, Note Name: F2
Note OFF: Time 320340, Note Name: F1
Note ON: Time 320640, Note Name: G#1, Velocity: 56
Note ON: Time 320640, Note Name: G#2, Velocity: 67
Note OFF: Time 320760, Note Name: G#2
Note OFF: Time 320760, Note Name: G#1
Note ON: Time 320760, Note Name: F1, Velocity: 50
Note ON: Time 320760, Note Name: F2, Velocity: 60
Note OFF: Time 320820, Note Name: F2
Note OFF: Time 320820, Note Name: F1
Note ON: Time 321000, Note Name: G1, Velocity: 52
Note ON: Time 321000, Note Name: G2, Velocity: 66
Note OFF: Time 321120, Note Name: G2
Note OFF: Time 321120, Note Name: G1
Note ON: Time 321120, Note Name: G#1, Velocity: 51
Note ON: Time 321120, Note Name: G#2, Velocity: 62
Note OFF: Time 321240, Note Name: G#2
Note OFF: Time 321240, Note Name: G#1
Note ON: Time 321240, Note Name: F1, Velocity: 52
Note ON: Time 321240, Note Name: F2, Velocity: 63
Note OFF: Time 321300, Note Name: F2
Note OFF: Time 321300, Note Name: F1
Note ON: Time 321600, Note Name: A1, Velocity: 60
Note ON: Time 321600, Note Name: A2, Velocity: 74
Note OFF: Time 321720, Note Name: A2
Note OFF: Time 321720, Note Name: A1
Note ON: Time 321720, Note Name: F#1, Velocity: 56
Note ON: Time 321720, Note Name: F#2, Velocity: 63
Note OFF: Time 321780, Note Name: F#2
Note OFF: Time 321780, Note Name: F#1
Note ON: Time 321960, Note Name: G1, Velocity: 59
Note ON: Time 321960, Note Name: G2, Velocity: 71
Note OFF: Time 322080, Note Name: G2
Note OFF: Time 322080, Note Name: G1
Note ON: Time 322080, Note Name: A1, Velocity: 57
Note ON: Time 322080, Note Name: A2, Velocity: 69
Note OFF: Time 322200, Note Name: A2
Note OFF: Time 322200, Note Name: A1
Note ON: Time 322200, Note Name: F#2, Velocity: 57
Note ON: Time 322200, Note Name: F#3, Velocity: 69
Note OFF: Time 322260, Note Name: F#3
Note OFF: Time 322260, Note Name: F#2
Note ON: Time 322560, Note Name: A#1, Velocity: 63
Note ON: Time 322560, Note Name: A#2, Velocity: 75
Note OFF: Time 322680, Note Name: A#2
Note OFF: Time 322680, Note Name: A#1
Note ON: Time 322680, Note Name: G1, Velocity: 56
Note ON: Time 322680, Note Name: G2, Velocity: 67
Note OFF: Time 322740, Note Name: G2
Note OFF: Time 322740, Note Name: G1
Note ON: Time 322920, Note Name: A1, Velocity: 61
Note ON: Time 322920, Note Name: A2, Velocity: 71
Note OFF: Time 323040, Note Name: A2
Note OFF: Time 323040, Note Name: A1
Note ON: Time 323040, Note Name: A#1, Velocity: 59
Note ON: Time 323040, Note Name: A#2, Velocity: 71
Note OFF: Time 323160, Note Name: A#2
Note OFF: Time 323160, Note Name: A#1
Note ON: Time 323160, Note Name: G2, Velocity: 60
Note ON: Time 323160, Note Name: G3, Velocity: 71
Note OFF: Time 323220, Note Name: G3
Note OFF: Time 323220, Note Name: G2
Note ON: Time 323520, Note Name: B1, Velocity: 68
Note ON: Time 323520, Note Name: B2, Velocity: 79
Note OFF: Time 323640, Note Name: B2
Note OFF: Time 323640, Note Name: B1
Note ON: Time 323640, Note Name: B2, Velocity: 60
Note ON: Time 323640, Note Name: B3, Velocity: 73
Note OFF: Time 323700, Note Name: B3
Note OFF: Time 323700, Note Name: B2
Note ON: Time 324000, Note Name: C2, Velocity: 68
Note ON: Time 324000, Note Name: C3, Velocity: 68
Note OFF: Time 324160, Note Name: C3
Note OFF: Time 324160, Note Name: C2
Note ON: Time 324160, Note Name: C3, Velocity: 74
Note ON: Time 324160, Note Name: C4, Velocity: 74
Note OFF: Time 324320, Note Name: C4
Note OFF: Time 324320, Note Name: C3
Note ON: Time 324320, Note Name: C#3, Velocity: 78
Note ON: Time 324320, Note Name: C#4, Velocity: 78
Note OFF: Time 324480, Note Name: C#4
Note OFF: Time 324480, Note Name: C#3
Note ON: Time 324480, Note Name: D3, Velocity: 66
Note ON: Time 324480, Note Name: A#3, Velocity: 66
Note ON: Time 324480, Note Name: D4, Velocity: 79
Note OFF: Time 324960, Note Name: D4
Note OFF: Time 324960, Note Name: A#3
Note OFF: Time 324960, Note Name: D3
Note ON: Time 324960, Note Name: D#3, Velocity: 67
Note ON: Time 324960, Note Name: A#3, Velocity: 67
Note ON: Time 324960, Note Name: D#4, Velocity: 80
Note OFF: Time 325440, Note Name: D#4
Note OFF: Time 325440, Note Name: A#3
Note OFF: Time 325440, Note Name: D#3
Note ON: Time 325440, Note Name: F#3, Velocity: 67
Note ON: Time 325440, Note Name: A#3, Velocity: 67
Note ON: Time 325440, Note Name: C4, Velocity: 67
Note ON: Time 325440, Note Name: D#4, Velocity: 67
Note ON: Time 325440, Note Name: F#4, Velocity: 80
Note OFF: Time 325920, Note Name: F#4
Note OFF: Time 325920, Note Name: C4
Note OFF: Time 325920, Note Name: F#3
Note OFF: Time 325920, Note Name: A#3
Note OFF: Time 325920, Note Name: D#4
Note ON: Time 325920, Note Name: F3, Velocity: 65
Note ON: Time 325920, Note Name: C4, Velocity: 65
Note ON: Time 325920, Note Name: D#4, Velocity: 65
Note ON: Time 325920, Note Name: F4, Velocity: 78
Note OFF: Time 326400, Note Name: F4
Note OFF: Time 326400, Note Name: F3
Note OFF: Time 326400, Note Name: C4
Note OFF: Time 326400, Note Name: D#4
Note ON: Time 326400, Note Name: A#2, Velocity: 72
Note ON: Time 326400, Note Name: A#3, Velocity: 86
Note OFF: Time 326880, Note Name: A#3
Note OFF: Time 326880, Note Name: A#2
Note ON: Time 326880, Note Name: D#2, Velocity: 70
Note ON: Time 326880, Note Name: D#3, Velocity: 86
Note OFF: Time 327360, Note Name: D#3
Note OFF: Time 327360, Note Name: D#2
Note ON: Time 327360, Note Name: A#1, Velocity: 72
Note ON: Time 327360, Note Name: A#2, Velocity: 87
Note OFF: Time 327840, Note Name: A#2
Note OFF: Time 327840, Note Name: A#1
Note ON: Time 327840, Note Name: D#1, Velocity: 70
Note ON: Time 327840, Note Name: D#2, Velocity: 86
Note OFF: Time 328320, Note Name: D#2
Note OFF: Time 328320, Note Name: D#1
Note ON: Time 328320, Note Name: A#1, Velocity: 74
Note ON: Time 328320, Note Name: A#2, Velocity: 92
Note OFF: Time 329280, Note Name: A#2
Note OFF: Time 329280, Note Name: A#1
Note ON: Time 329280, Note Name: D4, Velocity: 74
Note ON: Time 329280, Note Name: F4, Velocity: 74
Note ON: Time 329280, Note Name: A#4, Velocity: 77
Note ON: Time 329280, Note Name: D5, Velocity: 95
Note OFF: Time 330240, Note Name: D5
Note OFF: Time 330240, Note Name: D4
Note OFF: Time 330240, Note Name: F4
Note OFF: Time 330240, Note Name: A#4
Note ON: Time 330240, Note Name: A#2, Velocity: 65
Note ON: Time 330240, Note Name: A#1, Velocity: 59
Note ON: Time 330240, Note Name: F2, Velocity: 60
Note ON: Time 330240, Note Name: D3, Velocity: 67
Note ON: Time 330240, Note Name: F3, Velocity: 71
Note ON: Time 330240, Note Name: A#3, Velocity: 91
Note OFF: Time 331200, Note Name: A#3
Note OFF: Time 331200, Note Name: A#1
Note OFF: Time 331200, Note Name: F2
Note OFF: Time 331200, Note Name: A#2
Note OFF: Time 331200, Note Name: F3
Note OFF: Time 331200, Note Name: D3
Track 3: Pedal
Track 4: Chopin Sonate Op. 35  1. Satz
Track 5: Copyright  2002 by Bernd Krger
Track 6: http://www.piano-midi.de
Track 7: Edition: 2014-02-26
Track 8: Spur 8
Track 9: Spur 9
Track 10: Spur 10
