Processing chpn_op53.mid...

Track 0: Chopin Polonaise in Ab major Opus 53
Track 1: Piano right
Note ON: Time 0, Note Name: D#3, Velocity: 74
Note ON: Time 0, Note Name: D#4, Velocity: 88
Note OFF: Time 480, Note Name: D#4
Note OFF: Time 480, Note Name: D#3
Note ON: Time 1440, Note Name: A#3, Velocity: 57
Note ON: Time 1440, Note Name: D#4, Velocity: 68
Note OFF: Time 1560, Note Name: D#4
Note OFF: Time 1560, Note Name: A#3
Note ON: Time 1920, Note Name: G3, Velocity: 51
Note ON: Time 1920, Note Name: A#3, Velocity: 61
Note OFF: Time 2040, Note Name: A#3
Note OFF: Time 2040, Note Name: G3
Note ON: Time 2400, Note Name: G#3, Velocity: 31
Note ON: Time 2400, Note Name: E4, Velocity: 31
Note ON: Time 2400, Note Name: G#4, Velocity: 37
Note OFF: Time 2880, Note Name: G#4
Note OFF: Time 2880, Note Name: E4
Note OFF: Time 2880, Note Name: G#3
Note ON: Time 2880, Note Name: G3, Velocity: 28
Note ON: Time 2880, Note Name: D#4, Velocity: 28
Note ON: Time 2880, Note Name: G4, Velocity: 32
Note OFF: Time 3120, Note Name: G4
Note OFF: Time 3120, Note Name: D#4
Note OFF: Time 3120, Note Name: G3
Note ON: Time 5760, Note Name: B3, Velocity: 74
Note ON: Time 5760, Note Name: G#3, Velocity: 74
Note ON: Time 5760, Note Name: E3, Velocity: 74
Note ON: Time 5760, Note Name: E4, Velocity: 88
Note OFF: Time 6240, Note Name: E4
Note OFF: Time 6240, Note Name: B3
Note OFF: Time 6240, Note Name: G#3
Note OFF: Time 6240, Note Name: E3
Note ON: Time 7200, Note Name: B3, Velocity: 57
Note ON: Time 7200, Note Name: E4, Velocity: 68
Note OFF: Time 7320, Note Name: E4
Note OFF: Time 7320, Note Name: B3
Note ON: Time 7680, Note Name: E3, Velocity: 45
Note ON: Time 7680, Note Name: G#3, Velocity: 45
Note ON: Time 7680, Note Name: B3, Velocity: 54
Note OFF: Time 7800, Note Name: B3
Note OFF: Time 7800, Note Name: G#3
Note OFF: Time 7800, Note Name: E3
Note ON: Time 8160, Note Name: C#4, Velocity: 31
Note ON: Time 8160, Note Name: A#4, Velocity: 31
Note ON: Time 8160, Note Name: C#5, Velocity: 37
Note OFF: Time 8640, Note Name: C#5
Note OFF: Time 8640, Note Name: A#4
Note OFF: Time 8640, Note Name: C#4
Note ON: Time 8640, Note Name: G#4, Velocity: 28
Note ON: Time 8640, Note Name: B4, Velocity: 32
Note OFF: Time 8880, Note Name: B4
Note OFF: Time 8880, Note Name: G#4
Note ON: Time 11520, Note Name: C4, Velocity: 74
Note ON: Time 11520, Note Name: A3, Velocity: 74
Note ON: Time 11520, Note Name: F3, Velocity: 74
Note ON: Time 11520, Note Name: F4, Velocity: 88
Note OFF: Time 12000, Note Name: F4
Note OFF: Time 12000, Note Name: C4
Note OFF: Time 12000, Note Name: A3
Note OFF: Time 12000, Note Name: F3
Note ON: Time 12240, Note Name: A3, Velocity: 45
Note ON: Time 12240, Note Name: D4, Velocity: 53
Note OFF: Time 12360, Note Name: D4
Note OFF: Time 12360, Note Name: A3
Note ON: Time 12360, Note Name: A#3, Velocity: 47
Note ON: Time 12360, Note Name: D#4, Velocity: 56
Note OFF: Time 12480, Note Name: D#4
Note OFF: Time 12480, Note Name: A#3
Note ON: Time 12480, Note Name: B3, Velocity: 50
Note ON: Time 12480, Note Name: E4, Velocity: 59
Note OFF: Time 12600, Note Name: E4
Note OFF: Time 12600, Note Name: B3
Note ON: Time 12600, Note Name: C4, Velocity: 52
Note ON: Time 12600, Note Name: F4, Velocity: 59
Note OFF: Time 12720, Note Name: F4
Note OFF: Time 12720, Note Name: C4
Note ON: Time 12720, Note Name: C#4, Velocity: 55
Note ON: Time 12720, Note Name: G4, Velocity: 65
Note OFF: Time 12840, Note Name: G4
Note OFF: Time 12840, Note Name: C#4
Note ON: Time 12840, Note Name: D4, Velocity: 68
Note ON: Time 12840, Note Name: G#4, Velocity: 68
Note OFF: Time 12960, Note Name: G#4
Note OFF: Time 12960, Note Name: D4
Note ON: Time 12960, Note Name: D#4, Velocity: 64
Note ON: Time 12960, Note Name: A4, Velocity: 76
Note OFF: Time 13080, Note Name: A4
Note OFF: Time 13080, Note Name: D#4
Note ON: Time 13440, Note Name: A3, Velocity: 62
Note ON: Time 13440, Note Name: F3, Velocity: 62
Note ON: Time 13440, Note Name: C4, Velocity: 62
Note ON: Time 13440, Note Name: F4, Velocity: 74
Note OFF: Time 13560, Note Name: F4
Note OFF: Time 13560, Note Name: A3
Note OFF: Time 13560, Note Name: F3
Note OFF: Time 13560, Note Name: C4
Note ON: Time 13920, Note Name: C4, Velocity: 66
Note ON: Time 13920, Note Name: F4, Velocity: 66
Note ON: Time 13920, Note Name: C5, Velocity: 78
Note OFF: Time 14400, Note Name: C5
Note OFF: Time 14400, Note Name: F4
Note OFF: Time 14400, Note Name: C4
Note ON: Time 14400, Note Name: G#3, Velocity: 62
Note ON: Time 14400, Note Name: A#3, Velocity: 62
Note ON: Time 14400, Note Name: D4, Velocity: 62
Note ON: Time 14400, Note Name: F4, Velocity: 62
Note ON: Time 14400, Note Name: A#4, Velocity: 73
Note OFF: Time 14640, Note Name: A#4
Note OFF: Time 14640, Note Name: D4
Note OFF: Time 14640, Note Name: G#3
Note OFF: Time 14640, Note Name: A#3
Note OFF: Time 14640, Note Name: F4
Note ON: Time 15120, Note Name: B3, Velocity: 49
Note ON: Time 15120, Note Name: E4, Velocity: 58
Note OFF: Time 15240, Note Name: E4
Note OFF: Time 15240, Note Name: B3
Note ON: Time 15240, Note Name: C4, Velocity: 51
Note ON: Time 15240, Note Name: F4, Velocity: 61
Note OFF: Time 15360, Note Name: F4
Note OFF: Time 15360, Note Name: C4
Note ON: Time 15360, Note Name: C#4, Velocity: 55
Note ON: Time 15360, Note Name: F#4, Velocity: 64
Note OFF: Time 15480, Note Name: F#4
Note OFF: Time 15480, Note Name: C#4
Note ON: Time 15480, Note Name: D4, Velocity: 57
Note ON: Time 15480, Note Name: G4, Velocity: 64
Note OFF: Time 15600, Note Name: G4
Note OFF: Time 15600, Note Name: D4
Note ON: Time 15600, Note Name: D#4, Velocity: 60
Note ON: Time 15600, Note Name: G#4, Velocity: 71
Note OFF: Time 15720, Note Name: G#4
Note OFF: Time 15720, Note Name: D#4
Note ON: Time 15720, Note Name: E4, Velocity: 74
Note ON: Time 15720, Note Name: A4, Velocity: 74
Note OFF: Time 15840, Note Name: A4
Note OFF: Time 15840, Note Name: E4
Note ON: Time 15840, Note Name: F4, Velocity: 64
Note ON: Time 15840, Note Name: A#4, Velocity: 76
Note OFF: Time 15960, Note Name: A#4
Note OFF: Time 15960, Note Name: F4
Note ON: Time 16320, Note Name: A#3, Velocity: 63
Note ON: Time 16320, Note Name: F3, Velocity: 63
Note ON: Time 16320, Note Name: D4, Velocity: 75
Note ON: Time 16320, Note Name: F4, Velocity: 75
Note OFF: Time 16440, Note Name: F4
Note OFF: Time 16440, Note Name: A#3
Note OFF: Time 16440, Note Name: F3
Note OFF: Time 16440, Note Name: D4
Note ON: Time 16800, Note Name: F4, Velocity: 70
Note ON: Time 16800, Note Name: A#4, Velocity: 70
Note ON: Time 16800, Note Name: F5, Velocity: 82
Note OFF: Time 17280, Note Name: F5
Note OFF: Time 17280, Note Name: A#4
Note OFF: Time 17280, Note Name: F4
Note ON: Time 17280, Note Name: C#4, Velocity: 65
Note ON: Time 17280, Note Name: D#4, Velocity: 65
Note ON: Time 17280, Note Name: G4, Velocity: 65
Note ON: Time 17280, Note Name: A#4, Velocity: 65
Note ON: Time 17280, Note Name: D#5, Velocity: 77
Note OFF: Time 17520, Note Name: D#5
Note OFF: Time 17520, Note Name: G4
Note OFF: Time 17520, Note Name: C#4
Note OFF: Time 17520, Note Name: D#4
Note OFF: Time 17520, Note Name: A#4
Note ON: Time 17760, Note Name: C#5, Velocity: 77
Note ON: Time 17760, Note Name: F5, Velocity: 77
Note OFF: Time 17880, Note Name: F5
Note OFF: Time 17880, Note Name: C#5
Note ON: Time 17880, Note Name: G#4, Velocity: 72
Note OFF: Time 18000, Note Name: G#4
Note ON: Time 18000, Note Name: G4, Velocity: 72
Note OFF: Time 18120, Note Name: G4
Note ON: Time 18120, Note Name: D#5, Velocity: 72
Note OFF: Time 18240, Note Name: D#5
Note ON: Time 18240, Note Name: C#5, Velocity: 77
Note ON: Time 18240, Note Name: F5, Velocity: 77
Note OFF: Time 18360, Note Name: F5
Note OFF: Time 18360, Note Name: C#5
Note ON: Time 18360, Note Name: G#4, Velocity: 70
Note OFF: Time 18480, Note Name: G#4
Note ON: Time 18480, Note Name: G4, Velocity: 70
Note OFF: Time 18600, Note Name: G4
Note ON: Time 18600, Note Name: D#5, Velocity: 70
Note OFF: Time 18720, Note Name: D#5
Note ON: Time 18720, Note Name: A#4, Velocity: 77
Note ON: Time 18720, Note Name: F5, Velocity: 77
Note OFF: Time 18840, Note Name: F5
Note OFF: Time 18840, Note Name: A#4
Note ON: Time 18840, Note Name: G4, Velocity: 71
Note OFF: Time 18960, Note Name: G4
Note ON: Time 18960, Note Name: D#4, Velocity: 71
Note OFF: Time 19080, Note Name: D#4
Note ON: Time 19080, Note Name: D#5, Velocity: 71
Note OFF: Time 19200, Note Name: D#5
Note ON: Time 19200, Note Name: C5, Velocity: 77
Note ON: Time 19200, Note Name: F5, Velocity: 77
Note OFF: Time 19320, Note Name: F5
Note OFF: Time 19320, Note Name: C5
Note ON: Time 19320, Note Name: G4, Velocity: 72
Note OFF: Time 19440, Note Name: G4
Note ON: Time 19440, Note Name: D#4, Velocity: 72
Note OFF: Time 19560, Note Name: D#4
Note ON: Time 19560, Note Name: D#5, Velocity: 72
Note OFF: Time 19680, Note Name: D#5
Note ON: Time 19680, Note Name: C#5, Velocity: 77
Note ON: Time 19680, Note Name: F5, Velocity: 77
Note OFF: Time 19800, Note Name: F5
Note OFF: Time 19800, Note Name: C#5
Note ON: Time 19800, Note Name: A#4, Velocity: 71
Note OFF: Time 19920, Note Name: A#4
Note ON: Time 19920, Note Name: D#4, Velocity: 71
Note OFF: Time 20040, Note Name: D#4
Note ON: Time 20040, Note Name: D#5, Velocity: 71
Note OFF: Time 20160, Note Name: D#5
Note ON: Time 20160, Note Name: C#5, Velocity: 73
Note ON: Time 20160, Note Name: F5, Velocity: 73
Note OFF: Time 20280, Note Name: F5
Note OFF: Time 20280, Note Name: C#5
Note ON: Time 20280, Note Name: A#4, Velocity: 67
Note OFF: Time 20400, Note Name: A#4
Note ON: Time 20400, Note Name: D#4, Velocity: 68
Note OFF: Time 20520, Note Name: D#4
Note ON: Time 20520, Note Name: D#5, Velocity: 68
Note OFF: Time 20640, Note Name: D#5
Note ON: Time 20640, Note Name: C#5, Velocity: 75
Note ON: Time 20640, Note Name: F5, Velocity: 75
Note OFF: Time 20760, Note Name: F5
Note OFF: Time 20760, Note Name: C#5
Note ON: Time 20760, Note Name: A#4, Velocity: 70
Note OFF: Time 20880, Note Name: A#4
Note ON: Time 20880, Note Name: D#4, Velocity: 71
Note OFF: Time 21000, Note Name: D#4
Note ON: Time 21000, Note Name: D#5, Velocity: 71
Note OFF: Time 21120, Note Name: D#5
Note ON: Time 21120, Note Name: C#5, Velocity: 77
Note ON: Time 21120, Note Name: F5, Velocity: 77
Note OFF: Time 21240, Note Name: F5
Note OFF: Time 21240, Note Name: C#5
Note ON: Time 21240, Note Name: A#4, Velocity: 72
Note OFF: Time 21360, Note Name: A#4
Note ON: Time 21360, Note Name: D#4, Velocity: 73
Note OFF: Time 21480, Note Name: D#4
Note ON: Time 21480, Note Name: D#5, Velocity: 73
Note OFF: Time 21600, Note Name: D#5
Note ON: Time 21600, Note Name: C#5, Velocity: 80
Note ON: Time 21600, Note Name: F5, Velocity: 80
Note OFF: Time 21720, Note Name: F5
Note OFF: Time 21720, Note Name: C#5
Note ON: Time 21720, Note Name: A#4, Velocity: 74
Note OFF: Time 21840, Note Name: A#4
Note ON: Time 21840, Note Name: D#4, Velocity: 75
Note OFF: Time 21960, Note Name: D#4
Note ON: Time 21960, Note Name: D#5, Velocity: 77
Note OFF: Time 22080, Note Name: D#5
Note ON: Time 22080, Note Name: C#5, Velocity: 83
Note ON: Time 22080, Note Name: F5, Velocity: 83
Note OFF: Time 22200, Note Name: F5
Note OFF: Time 22200, Note Name: C#5
Note ON: Time 22200, Note Name: A#4, Velocity: 78
Note OFF: Time 22320, Note Name: A#4
Note ON: Time 22320, Note Name: D#4, Velocity: 79
Note OFF: Time 22440, Note Name: D#4
Note ON: Time 22440, Note Name: D#5, Velocity: 79
Note OFF: Time 22560, Note Name: D#5
Note ON: Time 22560, Note Name: C#5, Velocity: 85
Note ON: Time 22560, Note Name: F5, Velocity: 85
Note OFF: Time 22680, Note Name: F5
Note OFF: Time 22680, Note Name: C#5
Note ON: Time 22680, Note Name: A#4, Velocity: 80
Note OFF: Time 22800, Note Name: A#4
Note ON: Time 22800, Note Name: D#4, Velocity: 81
Note OFF: Time 22920, Note Name: D#4
Note ON: Time 22920, Note Name: D#5, Velocity: 82
Note OFF: Time 23040, Note Name: D#5
Note ON: Time 23040, Note Name: C#5, Velocity: 75
Note ON: Time 23040, Note Name: F5, Velocity: 89
Note OFF: Time 23400, Note Name: F5
Note OFF: Time 23400, Note Name: C#5
Note ON: Time 23400, Note Name: C5, Velocity: 72
Note ON: Time 23400, Note Name: D#5, Velocity: 85
Note OFF: Time 23508, Note Name: D#5
Note OFF: Time 23508, Note Name: C5
Note ON: Time 23520, Note Name: C5, Velocity: 72
Note ON: Time 23520, Note Name: D#5, Velocity: 85
Note OFF: Time 24000, Note Name: D#5
Note OFF: Time 24000, Note Name: C5
Note ON: Time 24240, Note Name: G#4, Velocity: 68
Note ON: Time 24240, Note Name: C5, Velocity: 80
Note OFF: Time 24360, Note Name: C5
Note OFF: Time 24360, Note Name: G#4
Note ON: Time 24360, Note Name: A#4, Velocity: 67
Note ON: Time 24360, Note Name: C#5, Velocity: 79
Note OFF: Time 24480, Note Name: C#5
Note OFF: Time 24480, Note Name: A#4
Note ON: Time 24480, Note Name: C#5, Velocity: 72
Note ON: Time 24480, Note Name: F5, Velocity: 85
Note OFF: Time 24600, Note Name: F5
Note OFF: Time 24600, Note Name: C#5
Note ON: Time 24600, Note Name: C5, Velocity: 68
Note ON: Time 24600, Note Name: D#5, Velocity: 80
Note OFF: Time 24660, Note Name: D#5
Note ON: Time 24660, Note Name: F5, Velocity: 74
Note OFF: Time 24720, Note Name: F5
Note ON: Time 24720, Note Name: D#5, Velocity: 85
Note OFF: Time 24840, Note Name: D#5
Note OFF: Time 24840, Note Name: C5
Note ON: Time 24840, Note Name: B4, Velocity: 68
Note ON: Time 24840, Note Name: D5, Velocity: 80
Note OFF: Time 24960, Note Name: D5
Note OFF: Time 24960, Note Name: B4
Note ON: Time 24960, Note Name: C5, Velocity: 68
Note ON: Time 24960, Note Name: D#5, Velocity: 80
Note OFF: Time 25440, Note Name: D#5
Note OFF: Time 25440, Note Name: C5
Note ON: Time 25680, Note Name: G#4, Velocity: 68
Note ON: Time 25680, Note Name: C5, Velocity: 80
Note OFF: Time 25800, Note Name: C5
Note OFF: Time 25800, Note Name: G#4
Note ON: Time 25800, Note Name: A#4, Velocity: 67
Note ON: Time 25800, Note Name: C#5, Velocity: 79
Note OFF: Time 25920, Note Name: C#5
Note OFF: Time 25920, Note Name: A#4
Note ON: Time 25920, Note Name: C#5, Velocity: 72
Note ON: Time 25920, Note Name: F5, Velocity: 85
Note OFF: Time 26040, Note Name: F5
Note OFF: Time 26040, Note Name: C#5
Note ON: Time 26040, Note Name: C5, Velocity: 68
Note ON: Time 26040, Note Name: D#5, Velocity: 80
Note OFF: Time 26100, Note Name: D#5
Note ON: Time 26100, Note Name: F5, Velocity: 74
Note OFF: Time 26160, Note Name: F5
Note ON: Time 26160, Note Name: D#5, Velocity: 85
Note OFF: Time 26280, Note Name: D#5
Note OFF: Time 26280, Note Name: C5
Note ON: Time 26280, Note Name: B4, Velocity: 68
Note ON: Time 26280, Note Name: D5, Velocity: 80
Note OFF: Time 26400, Note Name: D5
Note OFF: Time 26400, Note Name: B4
Note ON: Time 26400, Note Name: C#5, Velocity: 72
Note ON: Time 26400, Note Name: F5, Velocity: 85
Note OFF: Time 26460, Note Name: F5
Note OFF: Time 26520, Note Name: C#5
Note ON: Time 26520, Note Name: C5, Velocity: 68
Note ON: Time 26520, Note Name: D#5, Velocity: 80
Note ON: Time 26580, Note Name: F5, Velocity: 74
Note OFF: Time 26640, Note Name: F5
Note OFF: Time 26640, Note Name: D#5
Note ON: Time 26640, Note Name: D#5, Velocity: 85
Note OFF: Time 26760, Note Name: D#5
Note OFF: Time 26760, Note Name: C5
Note ON: Time 26760, Note Name: B4, Velocity: 68
Note ON: Time 26760, Note Name: D5, Velocity: 80
Note OFF: Time 26880, Note Name: D5
Note OFF: Time 26880, Note Name: B4
Note ON: Time 26880, Note Name: C5, Velocity: 68
Note ON: Time 26880, Note Name: D#5, Velocity: 80
Note OFF: Time 27060, Note Name: D#5
Note OFF: Time 27060, Note Name: C5
Note ON: Time 27060, Note Name: D#4, Velocity: 66
Note ON: Time 27090, Note Name: A#4, Velocity: 66
Note ON: Time 27120, Note Name: F#5, Velocity: 78
Note OFF: Time 27360, Note Name: F#5
Note OFF: Time 27360, Note Name: A#4
Note OFF: Time 27360, Note Name: D#4
Note ON: Time 27360, Note Name: D#4, Velocity: 64
Note ON: Time 27360, Note Name: A4, Velocity: 64
Note ON: Time 27360, Note Name: F5, Velocity: 76
Note OFF: Time 27600, Note Name: F5
Note OFF: Time 27600, Note Name: A4
Note OFF: Time 27600, Note Name: D#4
Note ON: Time 27600, Note Name: F4, Velocity: 64
Note ON: Time 27600, Note Name: A4, Velocity: 64
Note ON: Time 27600, Note Name: C5, Velocity: 76
Note OFF: Time 27840, Note Name: C5
Note OFF: Time 27840, Note Name: A4
Note OFF: Time 27840, Note Name: F4
Note ON: Time 27840, Note Name: F4, Velocity: 64
Note ON: Time 27840, Note Name: A#4, Velocity: 64
Note ON: Time 27840, Note Name: C#5, Velocity: 76
Note OFF: Time 28080, Note Name: C#5
Note OFF: Time 28080, Note Name: A#4
Note OFF: Time 28080, Note Name: F4
Note ON: Time 28080, Note Name: F#4, Velocity: 73
Note OFF: Time 28160, Note Name: F#4
Note ON: Time 28160, Note Name: F#3, Velocity: 73
Note OFF: Time 28240, Note Name: F#3
Note ON: Time 28240, Note Name: F#4, Velocity: 73
Note OFF: Time 28320, Note Name: F#4
Note ON: Time 28320, Note Name: F3, Velocity: 65
Note ON: Time 28320, Note Name: F4, Velocity: 77
Note OFF: Time 28560, Note Name: F4
Note OFF: Time 28560, Note Name: F3
Note ON: Time 28560, Note Name: C#4, Velocity: 72
Note OFF: Time 28740, Note Name: C#4
Note ON: Time 28740, Note Name: F#4, Velocity: 78
Note OFF: Time 28800, Note Name: F#4
Note ON: Time 28800, Note Name: D#5, Velocity: 75
Note ON: Time 28800, Note Name: F#5, Velocity: 89
Note OFF: Time 29160, Note Name: F#5
Note OFF: Time 29160, Note Name: D#5
Note ON: Time 29160, Note Name: C#5, Velocity: 72
Note ON: Time 29160, Note Name: F5, Velocity: 85
Note OFF: Time 29268, Note Name: F5
Note OFF: Time 29268, Note Name: C#5
Note ON: Time 29280, Note Name: C#5, Velocity: 72
Note ON: Time 29280, Note Name: F5, Velocity: 85
Note OFF: Time 29760, Note Name: F5
Note OFF: Time 29760, Note Name: C#5
Note ON: Time 30000, Note Name: A#4, Velocity: 68
Note ON: Time 30000, Note Name: C#5, Velocity: 80
Note OFF: Time 30120, Note Name: C#5
Note OFF: Time 30120, Note Name: A#4
Note ON: Time 30120, Note Name: C5, Velocity: 67
Note ON: Time 30120, Note Name: D#5, Velocity: 79
Note OFF: Time 30240, Note Name: D#5
Note OFF: Time 30240, Note Name: C5
Note ON: Time 30240, Note Name: D#5, Velocity: 72
Note ON: Time 30240, Note Name: F#5, Velocity: 85
Note OFF: Time 30360, Note Name: F#5
Note OFF: Time 30360, Note Name: D#5
Note ON: Time 30360, Note Name: C#5, Velocity: 68
Note ON: Time 30360, Note Name: F5, Velocity: 80
Note OFF: Time 30420, Note Name: F5
Note ON: Time 30420, Note Name: F#5, Velocity: 74
Note OFF: Time 30480, Note Name: F#5
Note ON: Time 30480, Note Name: F5, Velocity: 85
Note OFF: Time 30600, Note Name: F5
Note OFF: Time 30600, Note Name: C#5
Note ON: Time 30600, Note Name: C5, Velocity: 68
Note ON: Time 30600, Note Name: E5, Velocity: 80
Note OFF: Time 30720, Note Name: E5
Note OFF: Time 30720, Note Name: C5
Note ON: Time 30720, Note Name: C#5, Velocity: 68
Note ON: Time 30720, Note Name: F5, Velocity: 80
Note OFF: Time 31200, Note Name: F5
Note OFF: Time 31200, Note Name: C#5
Note ON: Time 31440, Note Name: G4, Velocity: 68
Note ON: Time 31440, Note Name: C#5, Velocity: 68
Note ON: Time 31440, Note Name: G5, Velocity: 80
Note OFF: Time 31560, Note Name: G5
Note OFF: Time 31560, Note Name: C#5
Note OFF: Time 31560, Note Name: G4
Note ON: Time 31560, Note Name: G#4, Velocity: 67
Note ON: Time 31560, Note Name: G#5, Velocity: 79
Note OFF: Time 31680, Note Name: G#5
Note OFF: Time 31680, Note Name: G#4
Note ON: Time 31680, Note Name: C5, Velocity: 71
Note ON: Time 31680, Note Name: C6, Velocity: 84
Note OFF: Time 31800, Note Name: C6
Note OFF: Time 31800, Note Name: C5
Note ON: Time 31800, Note Name: G5, Velocity: 73
Note ON: Time 31800, Note Name: D#5, Velocity: 62
Note OFF: Time 31920, Note Name: D#5
Note OFF: Time 31920, Note Name: G5
Note ON: Time 31920, Note Name: C5, Velocity: 66
Note ON: Time 31920, Note Name: C6, Velocity: 78
Note OFF: Time 32040, Note Name: C6
Note OFF: Time 32040, Note Name: C5
Note ON: Time 32100, Note Name: A#4, Velocity: 65
Note ON: Time 32100, Note Name: A#5, Velocity: 77
Note OFF: Time 32154, Note Name: A#5
Note OFF: Time 32154, Note Name: A#4
Note ON: Time 32160, Note Name: A#4, Velocity: 68
Note ON: Time 32160, Note Name: A#5, Velocity: 81
Note OFF: Time 32280, Note Name: A#5
Note OFF: Time 32280, Note Name: A#4
Note ON: Time 32280, Note Name: D#5, Velocity: 70
Note ON: Time 32280, Note Name: C5, Velocity: 59
Note OFF: Time 32400, Note Name: C5
Note OFF: Time 32400, Note Name: D#5
Note ON: Time 32400, Note Name: A#4, Velocity: 63
Note ON: Time 32400, Note Name: A#5, Velocity: 75
Note OFF: Time 32520, Note Name: A#5
Note OFF: Time 32520, Note Name: A#4
Note ON: Time 32580, Note Name: G#4, Velocity: 57
Note ON: Time 32580, Note Name: G#5, Velocity: 67
Note OFF: Time 32634, Note Name: G#5
Note OFF: Time 32634, Note Name: G#4
Note ON: Time 32640, Note Name: G#4, Velocity: 66
Note ON: Time 32640, Note Name: G#5, Velocity: 78
Note OFF: Time 32760, Note Name: G#5
Note OFF: Time 32760, Note Name: G#4
Note ON: Time 32760, Note Name: D#5, Velocity: 66
Note ON: Time 32760, Note Name: A#4, Velocity: 56
Note OFF: Time 32880, Note Name: A#4
Note OFF: Time 32880, Note Name: D#5
Note ON: Time 32880, Note Name: G#4, Velocity: 62
Note ON: Time 32880, Note Name: G#5, Velocity: 73
Note OFF: Time 33000, Note Name: G#5
Note OFF: Time 33000, Note Name: G#4
Note ON: Time 33060, Note Name: G4, Velocity: 56
Note ON: Time 33060, Note Name: G5, Velocity: 66
Note OFF: Time 33114, Note Name: G5
Note OFF: Time 33114, Note Name: G4
Note ON: Time 33120, Note Name: G4, Velocity: 63
Note ON: Time 33120, Note Name: G5, Velocity: 75
Note OFF: Time 33240, Note Name: G5
Note OFF: Time 33240, Note Name: G4
Note ON: Time 33240, Note Name: D5, Velocity: 65
Note ON: Time 33240, Note Name: A#4, Velocity: 55
Note OFF: Time 33360, Note Name: A#4
Note OFF: Time 33360, Note Name: D5
Note ON: Time 33360, Note Name: G4, Velocity: 60
Note ON: Time 33360, Note Name: G5, Velocity: 71
Note OFF: Time 33480, Note Name: G5
Note OFF: Time 33480, Note Name: G4
Note ON: Time 33540, Note Name: F4, Velocity: 57
Note ON: Time 33540, Note Name: F5, Velocity: 68
Note OFF: Time 33594, Note Name: F5
Note OFF: Time 33594, Note Name: F4
Note ON: Time 33600, Note Name: F4, Velocity: 61
Note ON: Time 33600, Note Name: F5, Velocity: 73
Note OFF: Time 33720, Note Name: F5
Note OFF: Time 33720, Note Name: F4
Note ON: Time 33720, Note Name: A#4, Velocity: 63
Note ON: Time 33720, Note Name: G4, Velocity: 54
Note OFF: Time 33840, Note Name: G4
Note OFF: Time 33840, Note Name: A#4
Note ON: Time 33840, Note Name: F4, Velocity: 58
Note ON: Time 33840, Note Name: F5, Velocity: 69
Note OFF: Time 33960, Note Name: F5
Note OFF: Time 33960, Note Name: F4
Note ON: Time 34020, Note Name: D#4, Velocity: 54
Note ON: Time 34020, Note Name: D#5, Velocity: 63
Note OFF: Time 34080, Note Name: D#5
Note OFF: Time 34080, Note Name: D#4
Note ON: Time 34080, Note Name: C#4, Velocity: 63
Note ON: Time 34080, Note Name: C#5, Velocity: 75
Note OFF: Time 34200, Note Name: C#5
Note OFF: Time 34200, Note Name: C#4
Note ON: Time 34200, Note Name: G#4, Velocity: 63
Note ON: Time 34200, Note Name: F4, Velocity: 54
Note OFF: Time 34320, Note Name: F4
Note OFF: Time 34320, Note Name: G#4
Note ON: Time 34320, Note Name: C#4, Velocity: 59
Note ON: Time 34320, Note Name: C#5, Velocity: 70
Note OFF: Time 34440, Note Name: C#5
Note OFF: Time 34440, Note Name: C#4
Note ON: Time 34500, Note Name: C4, Velocity: 53
Note ON: Time 34500, Note Name: C5, Velocity: 62
Note OFF: Time 34560, Note Name: C5
Note OFF: Time 34560, Note Name: C4
Note ON: Time 34560, Note Name: F4, Velocity: 63
Note OFF: Time 35040, Note Name: F4
Note ON: Time 35040, Note Name: G4, Velocity: 54
Note OFF: Time 35100, Note Name: G4
Note ON: Time 35100, Note Name: G#4, Velocity: 55
Note OFF: Time 35160, Note Name: G#4
Note ON: Time 35160, Note Name: G4, Velocity: 55
Note OFF: Time 35220, Note Name: G4
Note ON: Time 35220, Note Name: G#4, Velocity: 56
Note OFF: Time 35280, Note Name: G#4
Note ON: Time 35280, Note Name: F4, Velocity: 56
Note OFF: Time 35400, Note Name: F4
Note ON: Time 35400, Note Name: G4, Velocity: 57
Note OFF: Time 35520, Note Name: G4
Note ON: Time 35520, Note Name: G#4, Velocity: 58
Note OFF: Time 35580, Note Name: G#4
Note ON: Time 35580, Note Name: A#4, Velocity: 59
Note OFF: Time 35640, Note Name: A#4
Note ON: Time 35640, Note Name: G#4, Velocity: 59
Note OFF: Time 35700, Note Name: G#4
Note ON: Time 35700, Note Name: A#4, Velocity: 60
Note OFF: Time 35760, Note Name: A#4
Note ON: Time 35760, Note Name: G4, Velocity: 60
Note OFF: Time 35880, Note Name: G4
Note ON: Time 35880, Note Name: G#4, Velocity: 61
Note OFF: Time 36000, Note Name: G#4
Note ON: Time 36000, Note Name: C#4, Velocity: 42
Note ON: Time 36000, Note Name: G4, Velocity: 42
Note ON: Time 36000, Note Name: A4, Velocity: 60
Note OFF: Time 36120, Note Name: A4
Note ON: Time 36120, Note Name: A#4, Velocity: 56
Note OFF: Time 36240, Note Name: A#4
Note OFF: Time 36240, Note Name: G4
Note OFF: Time 36240, Note Name: C#4
Note ON: Time 36240, Note Name: C#4, Velocity: 39
Note ON: Time 36240, Note Name: G4, Velocity: 39
Note ON: Time 36240, Note Name: C5, Velocity: 56
Note OFF: Time 36360, Note Name: C5
Note ON: Time 36360, Note Name: C#5, Velocity: 56
Note OFF: Time 36480, Note Name: C#5
Note OFF: Time 36480, Note Name: G4
Note OFF: Time 36480, Note Name: C#4
Note ON: Time 36480, Note Name: C4, Velocity: 50
Note ON: Time 36480, Note Name: G#4, Velocity: 50
Note ON: Time 36480, Note Name: C5, Velocity: 60
Note OFF: Time 36720, Note Name: C5
Note OFF: Time 36720, Note Name: G#4
Note OFF: Time 36720, Note Name: C4
Note ON: Time 36720, Note Name: B3, Velocity: 57
Note ON: Time 36720, Note Name: D4, Velocity: 57
Note ON: Time 36720, Note Name: F4, Velocity: 57
Note ON: Time 36720, Note Name: G#4, Velocity: 57
Note ON: Time 36720, Note Name: F5, Velocity: 68
Note OFF: Time 36900, Note Name: F5
Note OFF: Time 36900, Note Name: F4
Note OFF: Time 36900, Note Name: B3
Note OFF: Time 36900, Note Name: D4
Note OFF: Time 36900, Note Name: G#4
Note ON: Time 36900, Note Name: C4, Velocity: 52
Note ON: Time 36900, Note Name: D#4, Velocity: 52
Note ON: Time 36900, Note Name: G#4, Velocity: 52
Note ON: Time 36900, Note Name: D#5, Velocity: 62
Note OFF: Time 36954, Note Name: D#5
Note OFF: Time 36954, Note Name: C4
Note OFF: Time 36954, Note Name: D#4
Note OFF: Time 36954, Note Name: G#4
Note ON: Time 36960, Note Name: C4, Velocity: 58
Note ON: Time 36960, Note Name: D#4, Velocity: 58
Note ON: Time 36960, Note Name: G#4, Velocity: 58
Note ON: Time 36960, Note Name: D#5, Velocity: 69
Note OFF: Time 37080, Note Name: D#5
Note OFF: Time 37080, Note Name: C4
Note OFF: Time 37080, Note Name: D#4
Note OFF: Time 37080, Note Name: G#4
Note ON: Time 37080, Note Name: G#4, Velocity: 64
Note ON: Time 37200, Note Name: G#5, Velocity: 76
Note OFF: Time 37320, Note Name: G#5
Note OFF: Time 37320, Note Name: G#4
Note ON: Time 37380, Note Name: G4, Velocity: 59
Note ON: Time 37380, Note Name: G5, Velocity: 70
Note OFF: Time 37440, Note Name: G5
Note OFF: Time 37440, Note Name: G4
Note ON: Time 37440, Note Name: F4, Velocity: 59
Note ON: Time 37440, Note Name: F5, Velocity: 70
Note OFF: Time 37920, Note Name: F5
Note OFF: Time 37920, Note Name: F4
Note ON: Time 37920, Note Name: G4, Velocity: 64
Note OFF: Time 38040, Note Name: G4
Note ON: Time 38040, Note Name: G5, Velocity: 65
Note OFF: Time 38080, Note Name: G5
Note ON: Time 38080, Note Name: G#5, Velocity: 66
Note OFF: Time 38120, Note Name: G#5
Note ON: Time 38120, Note Name: G5, Velocity: 65
Note OFF: Time 38160, Note Name: G5
Note ON: Time 38160, Note Name: F4, Velocity: 56
Note ON: Time 38160, Note Name: F5, Velocity: 66
Note OFF: Time 38280, Note Name: F5
Note OFF: Time 38280, Note Name: F4
Note ON: Time 38280, Note Name: G4, Velocity: 56
Note ON: Time 38280, Note Name: G5, Velocity: 67
Note OFF: Time 38400, Note Name: G5
Note OFF: Time 38400, Note Name: G4
Note ON: Time 38400, Note Name: G#4, Velocity: 64
Note OFF: Time 38520, Note Name: G#4
Note ON: Time 38520, Note Name: G#5, Velocity: 65
Note OFF: Time 38560, Note Name: G#5
Note ON: Time 38560, Note Name: A#5, Velocity: 65
Note OFF: Time 38600, Note Name: A#5
Note ON: Time 38600, Note Name: G#5, Velocity: 65
Note OFF: Time 38640, Note Name: G#5
Note ON: Time 38640, Note Name: G4, Velocity: 60
Note ON: Time 38640, Note Name: G5, Velocity: 71
Note OFF: Time 38760, Note Name: G5
Note OFF: Time 38760, Note Name: G4
Note ON: Time 38760, Note Name: G#4, Velocity: 61
Note ON: Time 38760, Note Name: G#5, Velocity: 72
Note OFF: Time 38880, Note Name: G#5
Note OFF: Time 38880, Note Name: G#4
Note ON: Time 38880, Note Name: A4, Velocity: 57
Note ON: Time 38880, Note Name: D#5, Velocity: 63
Note ON: Time 38880, Note Name: A5, Velocity: 75
Note OFF: Time 39000, Note Name: A5
Note OFF: Time 39000, Note Name: D#5
Note OFF: Time 39000, Note Name: A4
Note ON: Time 39000, Note Name: A#4, Velocity: 63
Note ON: Time 39000, Note Name: A#5, Velocity: 70
Note OFF: Time 39120, Note Name: A#5
Note OFF: Time 39120, Note Name: A#4
Note ON: Time 39120, Note Name: C5, Velocity: 59
Note ON: Time 39120, Note Name: G5, Velocity: 59
Note ON: Time 39120, Note Name: C6, Velocity: 70
Note OFF: Time 39240, Note Name: C6
Note OFF: Time 39240, Note Name: G5
Note OFF: Time 39240, Note Name: C5
Note ON: Time 39240, Note Name: C#5, Velocity: 59
Note ON: Time 39240, Note Name: C#6, Velocity: 70
Note OFF: Time 39360, Note Name: C#6
Note OFF: Time 39360, Note Name: C#5
Note ON: Time 39360, Note Name: C5, Velocity: 63
Note ON: Time 39360, Note Name: G#5, Velocity: 63
Note ON: Time 39360, Note Name: C6, Velocity: 75
Note OFF: Time 39480, Note Name: C6
Note OFF: Time 39480, Note Name: G#5
Note OFF: Time 39480, Note Name: C5
Note ON: Time 39600, Note Name: F5, Velocity: 64
Note ON: Time 39600, Note Name: G#5, Velocity: 64
Note ON: Time 39600, Note Name: F6, Velocity: 76
Note OFF: Time 39780, Note Name: F6
Note OFF: Time 39780, Note Name: G#5
Note OFF: Time 39780, Note Name: F5
Note ON: Time 39780, Note Name: D#5, Velocity: 58
Note ON: Time 39780, Note Name: G#5, Velocity: 58
Note ON: Time 39780, Note Name: D#6, Velocity: 69
Note OFF: Time 39834, Note Name: D#6
Note OFF: Time 39834, Note Name: G#5
Note OFF: Time 39834, Note Name: D#5
Note ON: Time 39840, Note Name: D#5, Velocity: 65
Note ON: Time 39840, Note Name: G#5, Velocity: 65
Note ON: Time 39840, Note Name: D#6, Velocity: 77
Note OFF: Time 39960, Note Name: D#6
Note OFF: Time 39960, Note Name: G#5
Note OFF: Time 39960, Note Name: D#5
Note ON: Time 40020, Note Name: D#6, Velocity: 60
Note ON: Time 40020, Note Name: D#5, Velocity: 60
Note OFF: Time 40080, Note Name: D#5
Note OFF: Time 40080, Note Name: D#6
Note ON: Time 40080, Note Name: C#5, Velocity: 64
Note ON: Time 40080, Note Name: A5, Velocity: 64
Note ON: Time 40080, Note Name: C#6, Velocity: 76
Note OFF: Time 40260, Note Name: C#6
Note OFF: Time 40260, Note Name: A5
Note OFF: Time 40260, Note Name: C#5
Note ON: Time 40260, Note Name: C5, Velocity: 59
Note ON: Time 40260, Note Name: C6, Velocity: 70
Note OFF: Time 40320, Note Name: C6
Note OFF: Time 40320, Note Name: C5
Note ON: Time 40320, Note Name: A#4, Velocity: 64
Note ON: Time 40320, Note Name: A#5, Velocity: 76
Note OFF: Time 40440, Note Name: A#5
Note OFF: Time 40440, Note Name: A#4
Note ON: Time 40560, Note Name: A#3, Velocity: 59
Note ON: Time 40560, Note Name: F#4, Velocity: 59
Note ON: Time 40560, Note Name: A#4, Velocity: 70
Note OFF: Time 40740, Note Name: A#4
Note OFF: Time 40740, Note Name: F#4
Note OFF: Time 40740, Note Name: A#3
Note ON: Time 40740, Note Name: C4, Velocity: 59
Note ON: Time 40740, Note Name: C5, Velocity: 70
Note OFF: Time 40800, Note Name: C5
Note OFF: Time 40800, Note Name: C4
Note ON: Time 40800, Note Name: C#4, Velocity: 62
Note ON: Time 40800, Note Name: F4, Velocity: 62
Note ON: Time 40800, Note Name: C#5, Velocity: 74
Note OFF: Time 41040, Note Name: C#5
Note OFF: Time 41040, Note Name: F4
Note OFF: Time 41040, Note Name: C#4
Note ON: Time 41040, Note Name: C#4, Velocity: 61
Note ON: Time 41040, Note Name: D#4, Velocity: 61
Note ON: Time 41040, Note Name: F#4, Velocity: 61
Note ON: Time 41040, Note Name: C#5, Velocity: 72
Note OFF: Time 41220, Note Name: C#5
Note OFF: Time 41220, Note Name: C#4
Note OFF: Time 41220, Note Name: D#4
Note OFF: Time 41220, Note Name: F#4
Note ON: Time 41220, Note Name: C4, Velocity: 58
Note ON: Time 41220, Note Name: C5, Velocity: 69
Note OFF: Time 41280, Note Name: C5
Note OFF: Time 41280, Note Name: C4
Note ON: Time 41280, Note Name: A#3, Velocity: 63
Note ON: Time 41280, Note Name: F4, Velocity: 63
Note ON: Time 41280, Note Name: A#4, Velocity: 75
Note OFF: Time 41520, Note Name: A#4
Note OFF: Time 41520, Note Name: F4
Note OFF: Time 41520, Note Name: A#3
Note ON: Time 41520, Note Name: G#3, Velocity: 61
Note ON: Time 41520, Note Name: A#3, Velocity: 61
Note ON: Time 41520, Note Name: D#4, Velocity: 61
Note ON: Time 41520, Note Name: G#4, Velocity: 72
Note OFF: Time 41700, Note Name: G#4
Note OFF: Time 41700, Note Name: G#3
Note OFF: Time 41700, Note Name: A#3
Note OFF: Time 41700, Note Name: D#4
Note ON: Time 41700, Note Name: F#3, Velocity: 57
Note ON: Time 41700, Note Name: F#4, Velocity: 68
Note OFF: Time 41760, Note Name: F#4
Note OFF: Time 41760, Note Name: F#3
Note ON: Time 41760, Note Name: F3, Velocity: 60
Note ON: Time 41760, Note Name: C#4, Velocity: 60
Note ON: Time 41760, Note Name: F4, Velocity: 71
Note OFF: Time 41880, Note Name: F4
Note OFF: Time 41880, Note Name: C#4
Note OFF: Time 41880, Note Name: F3
Note ON: Time 42000, Note Name: A2, Velocity: 59
Note OFF: Time 42060, Note Name: A2
Note ON: Time 42060, Note Name: A#2, Velocity: 59
Note OFF: Time 42120, Note Name: A#2
Note ON: Time 42120, Note Name: C3, Velocity: 60
Note OFF: Time 42180, Note Name: C3
Note ON: Time 42180, Note Name: C#3, Velocity: 61
Note OFF: Time 42240, Note Name: C#3
Note ON: Time 42240, Note Name: D#3, Velocity: 61
Note OFF: Time 42300, Note Name: D#3
Note ON: Time 42300, Note Name: F3, Velocity: 62
Note OFF: Time 42360, Note Name: F3
Note ON: Time 42360, Note Name: G3, Velocity: 63
Note OFF: Time 42420, Note Name: G3
Note ON: Time 42420, Note Name: A3, Velocity: 63
Note OFF: Time 42480, Note Name: A3
Note ON: Time 42480, Note Name: A#3, Velocity: 64
Note OFF: Time 42540, Note Name: A#3
Note ON: Time 42540, Note Name: C4, Velocity: 65
Note OFF: Time 42600, Note Name: C4
Note ON: Time 42600, Note Name: C#4, Velocity: 65
Note OFF: Time 42660, Note Name: C#4
Note ON: Time 42660, Note Name: D#4, Velocity: 66
Note OFF: Time 42720, Note Name: D#4
Note ON: Time 42720, Note Name: F4, Velocity: 67
Note OFF: Time 42780, Note Name: F4
Note ON: Time 42780, Note Name: G4, Velocity: 67
Note OFF: Time 42840, Note Name: G4
Note ON: Time 42840, Note Name: A4, Velocity: 68
Note OFF: Time 42900, Note Name: A4
Note ON: Time 42900, Note Name: A#4, Velocity: 68
Note OFF: Time 42960, Note Name: A#4
Note ON: Time 42960, Note Name: C5, Velocity: 69
Note OFF: Time 43020, Note Name: C5
Note ON: Time 43020, Note Name: C#5, Velocity: 70
Note OFF: Time 43080, Note Name: C#5
Note ON: Time 43080, Note Name: D#5, Velocity: 70
Note OFF: Time 43140, Note Name: D#5
Note ON: Time 43140, Note Name: F5, Velocity: 71
Note OFF: Time 43200, Note Name: F5
Note ON: Time 43200, Note Name: G5, Velocity: 72
Note OFF: Time 43260, Note Name: G5
Note ON: Time 43260, Note Name: A5, Velocity: 72
Note OFF: Time 43320, Note Name: A5
Note ON: Time 43320, Note Name: A#5, Velocity: 77
Note ON: Time 43320, Note Name: A#4, Velocity: 77
Note OFF: Time 43440, Note Name: A#4
Note OFF: Time 43440, Note Name: A#5
Note ON: Time 43500, Note Name: C6, Velocity: 71
Note OFF: Time 43560, Note Name: C6
Note ON: Time 43560, Note Name: C#5, Velocity: 64
Note ON: Time 43560, Note Name: A#5, Velocity: 76
Note ON: Time 43560, Note Name: G5, Velocity: 76
Note OFF: Time 43680, Note Name: G5
Note OFF: Time 43680, Note Name: A#5
Note OFF: Time 43680, Note Name: C#5
Note ON: Time 43680, Note Name: A5, Velocity: 71
Note ON: Time 43680, Note Name: F#5, Velocity: 71
Note ON: Time 43680, Note Name: C5, Velocity: 60
Note OFF: Time 43800, Note Name: C5
Note OFF: Time 43800, Note Name: F#5
Note OFF: Time 43800, Note Name: A5
Note ON: Time 43800, Note Name: C#5, Velocity: 63
Note ON: Time 43800, Note Name: G5, Velocity: 75
Note ON: Time 43800, Note Name: A#5, Velocity: 75
Note OFF: Time 44040, Note Name: A#5
Note OFF: Time 44040, Note Name: G5
Note OFF: Time 44040, Note Name: C#5
Note ON: Time 44040, Note Name: C5, Velocity: 60
Note ON: Time 44040, Note Name: G5, Velocity: 71
Note ON: Time 44040, Note Name: C6, Velocity: 71
Note OFF: Time 44280, Note Name: C6
Note OFF: Time 44280, Note Name: G5
Note OFF: Time 44280, Note Name: C5
Note ON: Time 44280, Note Name: G#4, Velocity: 62
Note ON: Time 44280, Note Name: C5, Velocity: 62
Note ON: Time 44280, Note Name: G#5, Velocity: 73
Note OFF: Time 44520, Note Name: G#5
Note OFF: Time 44520, Note Name: C5
Note OFF: Time 44520, Note Name: G#4
Note ON: Time 44520, Note Name: D#4, Velocity: 60
Note ON: Time 44520, Note Name: G#4, Velocity: 60
Note ON: Time 44520, Note Name: D#5, Velocity: 71
Note OFF: Time 44760, Note Name: D#5
Note OFF: Time 44760, Note Name: G#4
Note OFF: Time 44760, Note Name: D#4
Note ON: Time 44760, Note Name: F4, Velocity: 65
Note ON: Time 44760, Note Name: G#4, Velocity: 65
Note ON: Time 44760, Note Name: F5, Velocity: 77
Note OFF: Time 45000, Note Name: F5
Note OFF: Time 45000, Note Name: G#4
Note OFF: Time 45000, Note Name: F4
Note ON: Time 45000, Note Name: G#4, Velocity: 61
Note ON: Time 45000, Note Name: C5, Velocity: 61
Note ON: Time 45000, Note Name: G#5, Velocity: 72
Note OFF: Time 45240, Note Name: G#5
Note OFF: Time 45240, Note Name: C5
Note OFF: Time 45240, Note Name: G#4
Note ON: Time 45240, Note Name: C#4, Velocity: 69
Note ON: Time 45240, Note Name: F4, Velocity: 69
Note ON: Time 45240, Note Name: A#4, Velocity: 81
Note ON: Time 45240, Note Name: C#5, Velocity: 81
Note OFF: Time 45480, Note Name: C#5
Note OFF: Time 45480, Note Name: C#4
Note OFF: Time 45480, Note Name: F4
Note OFF: Time 45480, Note Name: A#4
Note ON: Time 45480, Note Name: F4, Velocity: 66
Note ON: Time 45480, Note Name: G#4, Velocity: 66
Note ON: Time 45480, Note Name: C#5, Velocity: 78
Note ON: Time 45480, Note Name: F5, Velocity: 78
Note OFF: Time 45720, Note Name: F5
Note OFF: Time 45720, Note Name: F4
Note OFF: Time 45720, Note Name: G#4
Note OFF: Time 45720, Note Name: C#5
Note ON: Time 45720, Note Name: A#3, Velocity: 74
Note ON: Time 45720, Note Name: D#4, Velocity: 74
Note ON: Time 45720, Note Name: G#4, Velocity: 87
Note ON: Time 45720, Note Name: A#4, Velocity: 87
Note OFF: Time 45960, Note Name: A#4
Note OFF: Time 45960, Note Name: A#3
Note OFF: Time 45960, Note Name: D#4
Note OFF: Time 45960, Note Name: G#4
Note ON: Time 45960, Note Name: C#4, Velocity: 69
Note ON: Time 45960, Note Name: D#4, Velocity: 69
Note ON: Time 45960, Note Name: G4, Velocity: 69
Note ON: Time 45960, Note Name: A#4, Velocity: 82
Note ON: Time 45960, Note Name: D#5, Velocity: 82
Note OFF: Time 46200, Note Name: D#5
Note OFF: Time 46200, Note Name: G4
Note OFF: Time 46200, Note Name: C#4
Note OFF: Time 46200, Note Name: D#4
Note OFF: Time 46200, Note Name: A#4
Note ON: Time 46200, Note Name: F5, Velocity: 82
Note ON: Time 46200, Note Name: C#6, Velocity: 82
Note ON: Time 46200, Note Name: F6, Velocity: 97
Note OFF: Time 46560, Note Name: F6
Note OFF: Time 46560, Note Name: C#6
Note OFF: Time 46560, Note Name: F5
Note ON: Time 46560, Note Name: D#5, Velocity: 79
Note ON: Time 46560, Note Name: C6, Velocity: 79
Note ON: Time 46560, Note Name: D#6, Velocity: 93
Note OFF: Time 46668, Note Name: D#6
Note OFF: Time 46668, Note Name: C6
Note OFF: Time 46668, Note Name: D#5
Note ON: Time 46680, Note Name: D#5, Velocity: 79
Note ON: Time 46680, Note Name: C6, Velocity: 79
Note ON: Time 46680, Note Name: D#6, Velocity: 93
Note ON: Time 46860, Note Name: D#4, Velocity: 71
Note OFF: Time 46920, Note Name: D#4
Note OFF: Time 46920, Note Name: D#5
Note OFF: Time 46920, Note Name: C6
Note OFF: Time 46920, Note Name: D#6
Note ON: Time 46920, Note Name: D#4, Velocity: 71
Note OFF: Time 46968, Note Name: D#4
Note ON: Time 46968, Note Name: F4, Velocity: 71
Note OFF: Time 47016, Note Name: F4
Note ON: Time 47016, Note Name: D#4, Velocity: 71
Note OFF: Time 47064, Note Name: D#4
Note ON: Time 47064, Note Name: D4, Velocity: 71
Note OFF: Time 47112, Note Name: D4
Note ON: Time 47112, Note Name: D#4, Velocity: 71
Note OFF: Time 47160, Note Name: D#4
Note ON: Time 47160, Note Name: G#4, Velocity: 87
Note OFF: Time 47280, Note Name: G#4
Note ON: Time 47400, Note Name: C5, Velocity: 74
Note ON: Time 47400, Note Name: G#5, Velocity: 74
Note ON: Time 47400, Note Name: C6, Velocity: 88
Note OFF: Time 47520, Note Name: C6
Note OFF: Time 47520, Note Name: G#5
Note OFF: Time 47520, Note Name: C5
Note ON: Time 47520, Note Name: C#5, Velocity: 73
Note ON: Time 47520, Note Name: A#5, Velocity: 73
Note ON: Time 47520, Note Name: C#6, Velocity: 86
Note OFF: Time 47640, Note Name: C#6
Note OFF: Time 47640, Note Name: A#5
Note OFF: Time 47640, Note Name: C#5
Note ON: Time 47640, Note Name: F5, Velocity: 79
Note ON: Time 47640, Note Name: C#6, Velocity: 79
Note ON: Time 47640, Note Name: F6, Velocity: 93
Note OFF: Time 47760, Note Name: F6
Note OFF: Time 47760, Note Name: C#6
Note OFF: Time 47760, Note Name: F5
Note ON: Time 47820, Note Name: D#5, Velocity: 74
Note ON: Time 47820, Note Name: C6, Velocity: 74
Note ON: Time 47820, Note Name: D#6, Velocity: 88
Note OFF: Time 47874, Note Name: D#6
Note OFF: Time 47874, Note Name: C6
Note OFF: Time 47874, Note Name: D#5
Note ON: Time 47880, Note Name: D#5, Velocity: 74
Note ON: Time 47880, Note Name: C6, Velocity: 74
Note ON: Time 47880, Note Name: D#6, Velocity: 93
Note OFF: Time 48000, Note Name: D#6
Note OFF: Time 48000, Note Name: C6
Note OFF: Time 48000, Note Name: D#5
Note ON: Time 48000, Note Name: D5, Velocity: 74
Note ON: Time 48000, Note Name: B5, Velocity: 74
Note ON: Time 48000, Note Name: D6, Velocity: 88
Note OFF: Time 48120, Note Name: D6
Note OFF: Time 48120, Note Name: B5
Note OFF: Time 48120, Note Name: D5
Note ON: Time 48120, Note Name: D#5, Velocity: 74
Note ON: Time 48120, Note Name: C6, Velocity: 74
Note ON: Time 48120, Note Name: D#6, Velocity: 88
Note ON: Time 48300, Note Name: D#4, Velocity: 70
Note OFF: Time 48360, Note Name: D#4
Note OFF: Time 48360, Note Name: D#5
Note OFF: Time 48360, Note Name: C6
Note OFF: Time 48360, Note Name: D#6
Note ON: Time 48360, Note Name: D#4, Velocity: 70
Note OFF: Time 48408, Note Name: D#4
Note ON: Time 48408, Note Name: F4, Velocity: 70
Note OFF: Time 48456, Note Name: F4
Note ON: Time 48456, Note Name: D#4, Velocity: 70
Note OFF: Time 48504, Note Name: D#4
Note ON: Time 48504, Note Name: D4, Velocity: 70
Note OFF: Time 48552, Note Name: D4
Note ON: Time 48552, Note Name: D#4, Velocity: 70
Note OFF: Time 48600, Note Name: D#4
Note ON: Time 48600, Note Name: G#4, Velocity: 87
Note OFF: Time 48720, Note Name: G#4
Note ON: Time 48840, Note Name: C6, Velocity: 88
Note ON: Time 48840, Note Name: C5, Velocity: 74
Note ON: Time 48840, Note Name: G#5, Velocity: 74
Note OFF: Time 48960, Note Name: G#5
Note OFF: Time 48960, Note Name: C5
Note OFF: Time 48960, Note Name: C6
Note ON: Time 48960, Note Name: C#6, Velocity: 86
Note ON: Time 48960, Note Name: C#5, Velocity: 73
Note ON: Time 48960, Note Name: A#5, Velocity: 73
Note OFF: Time 49080, Note Name: A#5
Note OFF: Time 49080, Note Name: C#5
Note OFF: Time 49080, Note Name: C#6
Note ON: Time 49080, Note Name: C#6, Velocity: 79
Note ON: Time 49080, Note Name: F6, Velocity: 93
Note ON: Time 49080, Note Name: F5, Velocity: 79
Note OFF: Time 49200, Note Name: F5
Note OFF: Time 49200, Note Name: F6
Note OFF: Time 49200, Note Name: C#6
Note ON: Time 49200, Note Name: D#5, Velocity: 74
Note ON: Time 49200, Note Name: C6, Velocity: 74
Note ON: Time 49200, Note Name: D#6, Velocity: 88
Note OFF: Time 49260, Note Name: D#6
Note ON: Time 49260, Note Name: F6, Velocity: 81
Note OFF: Time 49320, Note Name: F6
Note ON: Time 49320, Note Name: D#6, Velocity: 93
Note OFF: Time 49440, Note Name: D#6
Note OFF: Time 49440, Note Name: C6
Note OFF: Time 49440, Note Name: D#5
Note ON: Time 49440, Note Name: B5, Velocity: 74
Note ON: Time 49440, Note Name: D6, Velocity: 88
Note ON: Time 49440, Note Name: D5, Velocity: 74
Note OFF: Time 49560, Note Name: D5
Note OFF: Time 49560, Note Name: D6
Note OFF: Time 49560, Note Name: B5
Note ON: Time 49560, Note Name: C#6, Velocity: 79
Note ON: Time 49560, Note Name: F6, Velocity: 93
Note ON: Time 49560, Note Name: F5, Velocity: 79
Note OFF: Time 49680, Note Name: F5
Note OFF: Time 49680, Note Name: F6
Note OFF: Time 49680, Note Name: C#6
Note ON: Time 49680, Note Name: C6, Velocity: 74
Note ON: Time 49680, Note Name: D#6, Velocity: 88
Note ON: Time 49680, Note Name: D#5, Velocity: 74
Note OFF: Time 49740, Note Name: D#6
Note ON: Time 49740, Note Name: F6, Velocity: 81
Note OFF: Time 49800, Note Name: F6
Note ON: Time 49800, Note Name: D#6, Velocity: 93
Note OFF: Time 49920, Note Name: D#6
Note OFF: Time 49920, Note Name: D#5
Note OFF: Time 49920, Note Name: C6
Note ON: Time 49920, Note Name: D5, Velocity: 74
Note ON: Time 49920, Note Name: B5, Velocity: 74
Note ON: Time 49920, Note Name: D6, Velocity: 88
Note OFF: Time 50040, Note Name: D6
Note OFF: Time 50040, Note Name: B5
Note OFF: Time 50040, Note Name: D5
Note ON: Time 50040, Note Name: D#5, Velocity: 74
Note ON: Time 50040, Note Name: C6, Velocity: 74
Note ON: Time 50040, Note Name: D#6, Velocity: 88
Note OFF: Time 50220, Note Name: D#6
Note OFF: Time 50220, Note Name: C6
Note OFF: Time 50220, Note Name: D#5
Note ON: Time 50220, Note Name: D#5, Velocity: 72
Note ON: Time 50250, Note Name: A#5, Velocity: 72
Note ON: Time 50280, Note Name: F#6, Velocity: 85
Note OFF: Time 50460, Note Name: F#6
Note OFF: Time 50460, Note Name: A#5
Note OFF: Time 50460, Note Name: D#5
Note ON: Time 50460, Note Name: D#5, Velocity: 70
Note ON: Time 50490, Note Name: A5, Velocity: 70
Note ON: Time 50520, Note Name: F6, Velocity: 83
Note ON: Time 50670, Note Name: C5, Velocity: 70
Note OFF: Time 50700, Note Name: F6
Note OFF: Time 50700, Note Name: D#5
Note OFF: Time 50700, Note Name: A5
Note ON: Time 50700, Note Name: D#5, Velocity: 70
Note ON: Time 50730, Note Name: F5, Velocity: 70
Note ON: Time 50760, Note Name: C6, Velocity: 83
Note OFF: Time 50940, Note Name: C6
Note OFF: Time 50940, Note Name: C5
Note OFF: Time 50940, Note Name: D#5
Note OFF: Time 50940, Note Name: F5
Note ON: Time 50940, Note Name: A#4, Velocity: 70
Note ON: Time 50970, Note Name: F5, Velocity: 70
Note ON: Time 51000, Note Name: C#6, Velocity: 83
Note OFF: Time 51180, Note Name: C#6
Note OFF: Time 51180, Note Name: F5
Note OFF: Time 51180, Note Name: A#4
Note ON: Time 51240, Note Name: F#5, Velocity: 80
Note OFF: Time 51320, Note Name: F#5
Note ON: Time 51320, Note Name: F#4, Velocity: 80
Note OFF: Time 51400, Note Name: F#4
Note ON: Time 51400, Note Name: F#5, Velocity: 80
Note OFF: Time 51480, Note Name: F#5
Note ON: Time 51480, Note Name: F4, Velocity: 71
Note ON: Time 51480, Note Name: F5, Velocity: 84
Note OFF: Time 51720, Note Name: F5
Note OFF: Time 51720, Note Name: F4
Note ON: Time 51720, Note Name: C#4, Velocity: 74
Note ON: Time 51720, Note Name: C#5, Velocity: 79
Note OFF: Time 51960, Note Name: C#5
Note OFF: Time 51960, Note Name: C#4
Note ON: Time 51960, Note Name: F#5, Velocity: 82
Note ON: Time 51960, Note Name: D#6, Velocity: 82
Note ON: Time 51960, Note Name: F#6, Velocity: 97
Note OFF: Time 52320, Note Name: F#6
Note OFF: Time 52320, Note Name: D#6
Note OFF: Time 52320, Note Name: F#5
Note ON: Time 52320, Note Name: F5, Velocity: 79
Note ON: Time 52320, Note Name: C#6, Velocity: 79
Note ON: Time 52320, Note Name: F6, Velocity: 93
Note OFF: Time 52428, Note Name: F6
Note OFF: Time 52428, Note Name: C#6
Note OFF: Time 52428, Note Name: F5
Note ON: Time 52440, Note Name: F5, Velocity: 79
Note ON: Time 52440, Note Name: C#6, Velocity: 79
Note ON: Time 52440, Note Name: F6, Velocity: 93
Note ON: Time 52620, Note Name: F4, Velocity: 71
Note OFF: Time 52680, Note Name: F4
Note OFF: Time 52680, Note Name: F5
Note OFF: Time 52680, Note Name: C#6
Note OFF: Time 52680, Note Name: F6
Note ON: Time 52680, Note Name: F4, Velocity: 71
Note OFF: Time 52728, Note Name: F4
Note ON: Time 52728, Note Name: F#4, Velocity: 71
Note OFF: Time 52776, Note Name: F#4
Note ON: Time 52776, Note Name: F4, Velocity: 71
Note OFF: Time 52824, Note Name: F4
Note ON: Time 52824, Note Name: E4, Velocity: 71
Note OFF: Time 52872, Note Name: E4
Note ON: Time 52872, Note Name: F4, Velocity: 71
Note OFF: Time 52920, Note Name: F4
Note ON: Time 52920, Note Name: A#4, Velocity: 87
Note OFF: Time 53040, Note Name: A#4
Note ON: Time 53160, Note Name: C#5, Velocity: 74
Note ON: Time 53160, Note Name: C#6, Velocity: 88
Note ON: Time 53160, Note Name: A#5, Velocity: 74
Note OFF: Time 53280, Note Name: A#5
Note OFF: Time 53280, Note Name: C#6
Note OFF: Time 53280, Note Name: C#5
Note ON: Time 53280, Note Name: D#5, Velocity: 73
Note ON: Time 53280, Note Name: C6, Velocity: 73
Note ON: Time 53280, Note Name: D#6, Velocity: 86
Note OFF: Time 53400, Note Name: D#6
Note OFF: Time 53400, Note Name: C6
Note OFF: Time 53400, Note Name: D#5
Note ON: Time 53400, Note Name: F#6, Velocity: 93
Note ON: Time 53400, Note Name: F#5, Velocity: 79
Note ON: Time 53400, Note Name: D#6, Velocity: 79
Note OFF: Time 53520, Note Name: D#6
Note OFF: Time 53520, Note Name: F#5
Note OFF: Time 53520, Note Name: F#6
Note ON: Time 53580, Note Name: F5, Velocity: 74
Note ON: Time 53580, Note Name: C#6, Velocity: 74
Note ON: Time 53580, Note Name: F6, Velocity: 88
Note OFF: Time 53634, Note Name: F6
Note OFF: Time 53634, Note Name: C#6
Note OFF: Time 53634, Note Name: F5
Note ON: Time 53640, Note Name: C#6, Velocity: 74
Note ON: Time 53640, Note Name: F5, Velocity: 74
Note ON: Time 53640, Note Name: F6, Velocity: 93
Note OFF: Time 53760, Note Name: F6
Note OFF: Time 53760, Note Name: F5
Note OFF: Time 53760, Note Name: C#6
Note ON: Time 53760, Note Name: E5, Velocity: 74
Note ON: Time 53760, Note Name: E6, Velocity: 88
Note ON: Time 53760, Note Name: C6, Velocity: 74
Note OFF: Time 53880, Note Name: C6
Note OFF: Time 53880, Note Name: E6
Note OFF: Time 53880, Note Name: E5
Note ON: Time 53880, Note Name: F5, Velocity: 88
Note ON: Time 53880, Note Name: C#6, Velocity: 74
Note ON: Time 53880, Note Name: F6, Velocity: 88
Note ON: Time 54060, Note Name: F4, Velocity: 71
Note OFF: Time 54120, Note Name: F4
Note OFF: Time 54120, Note Name: F5
Note OFF: Time 54120, Note Name: C#6
Note OFF: Time 54120, Note Name: F6
Note ON: Time 54120, Note Name: F4, Velocity: 71
Note OFF: Time 54168, Note Name: F4
Note ON: Time 54168, Note Name: F#4, Velocity: 71
Note OFF: Time 54216, Note Name: F#4
Note ON: Time 54216, Note Name: F4, Velocity: 71
Note OFF: Time 54264, Note Name: F4
Note ON: Time 54264, Note Name: E4, Velocity: 71
Note OFF: Time 54312, Note Name: E4
Note ON: Time 54312, Note Name: F4, Velocity: 71
Note OFF: Time 54360, Note Name: F4
Note ON: Time 54360, Note Name: A#4, Velocity: 87
Note OFF: Time 54600, Note Name: A#4
Note ON: Time 54600, Note Name: G5, Velocity: 81
Note ON: Time 54600, Note Name: G6, Velocity: 96
Note ON: Time 54600, Note Name: C#6, Velocity: 81
Note OFF: Time 54720, Note Name: C#6
Note OFF: Time 54720, Note Name: G6
Note OFF: Time 54720, Note Name: G5
Note ON: Time 54720, Note Name: G#5, Velocity: 80
Note ON: Time 54720, Note Name: G#6, Velocity: 94
Note OFF: Time 54840, Note Name: G#6
Note OFF: Time 54840, Note Name: G#5
Note ON: Time 54840, Note Name: C6, Velocity: 85
Note ON: Time 54840, Note Name: C7, Velocity: 101
Note OFF: Time 54960, Note Name: C7
Note OFF: Time 54960, Note Name: C6
Note ON: Time 54960, Note Name: D#6, Velocity: 74
Note ON: Time 54960, Note Name: G6, Velocity: 88
Note OFF: Time 55080, Note Name: G6
Note OFF: Time 55080, Note Name: D#6
Note ON: Time 55080, Note Name: C7, Velocity: 93
Note ON: Time 55080, Note Name: C6, Velocity: 79
Note OFF: Time 55200, Note Name: C6
Note OFF: Time 55200, Note Name: C7
Note ON: Time 55260, Note Name: A#6, Velocity: 92
Note ON: Time 55260, Note Name: A#5, Velocity: 78
Note OFF: Time 55314, Note Name: A#5
Note OFF: Time 55314, Note Name: A#6
Note ON: Time 55320, Note Name: A#5, Velocity: 81
Note ON: Time 55320, Note Name: A#6, Velocity: 97
Note OFF: Time 55440, Note Name: A#6
Note OFF: Time 55440, Note Name: A#5
Note ON: Time 55440, Note Name: C6, Velocity: 70
Note ON: Time 55440, Note Name: D#6, Velocity: 84
Note OFF: Time 55560, Note Name: D#6
Note OFF: Time 55560, Note Name: C6
Note ON: Time 55560, Note Name: A#6, Velocity: 90
Note ON: Time 55560, Note Name: A#5, Velocity: 75
Note OFF: Time 55680, Note Name: A#5
Note OFF: Time 55680, Note Name: A#6
Note ON: Time 55740, Note Name: G#5, Velocity: 68
Note ON: Time 55740, Note Name: G#6, Velocity: 80
Note OFF: Time 55794, Note Name: G#6
Note OFF: Time 55794, Note Name: G#5
Note ON: Time 55800, Note Name: G#5, Velocity: 79
Note ON: Time 55800, Note Name: G#6, Velocity: 93
Note OFF: Time 55920, Note Name: G#6
Note OFF: Time 55920, Note Name: G#5
Note ON: Time 55920, Note Name: D#6, Velocity: 79
Note ON: Time 55920, Note Name: A#5, Velocity: 67
Note OFF: Time 56040, Note Name: A#5
Note OFF: Time 56040, Note Name: D#6
Note ON: Time 56040, Note Name: G#6, Velocity: 88
Note ON: Time 56040, Note Name: G#5, Velocity: 74
Note OFF: Time 56160, Note Name: G#5
Note OFF: Time 56160, Note Name: G#6
Note ON: Time 56220, Note Name: G6, Velocity: 79
Note ON: Time 56220, Note Name: G5, Velocity: 67
Note OFF: Time 56274, Note Name: G5
Note OFF: Time 56274, Note Name: G6
Note ON: Time 56280, Note Name: G5, Velocity: 75
Note ON: Time 56280, Note Name: G6, Velocity: 90
Note OFF: Time 56400, Note Name: G6
Note OFF: Time 56400, Note Name: G5
Note ON: Time 56400, Note Name: D6, Velocity: 78
Note ON: Time 56400, Note Name: A#5, Velocity: 66
Note OFF: Time 56520, Note Name: A#5
Note OFF: Time 56520, Note Name: D6
Note ON: Time 56520, Note Name: G5, Velocity: 72
Note ON: Time 56520, Note Name: G6, Velocity: 85
Note OFF: Time 56640, Note Name: G6
Note OFF: Time 56640, Note Name: G5
Note ON: Time 56700, Note Name: F6, Velocity: 81
Note ON: Time 56700, Note Name: F5, Velocity: 68
Note OFF: Time 56754, Note Name: F5
Note OFF: Time 56754, Note Name: F6
Note ON: Time 56760, Note Name: F6, Velocity: 88
Note ON: Time 56760, Note Name: F5, Velocity: 73
Note OFF: Time 56880, Note Name: F5
Note OFF: Time 56880, Note Name: F6
Note ON: Time 56880, Note Name: A#5, Velocity: 75
Note ON: Time 56880, Note Name: G5, Velocity: 64
Note OFF: Time 57000, Note Name: G5
Note OFF: Time 57000, Note Name: A#5
Note ON: Time 57000, Note Name: F5, Velocity: 69
Note ON: Time 57000, Note Name: F6, Velocity: 82
Note OFF: Time 57120, Note Name: F6
Note OFF: Time 57120, Note Name: F5
Note ON: Time 57180, Note Name: D#5, Velocity: 64
Note ON: Time 57180, Note Name: D#6, Velocity: 75
Note OFF: Time 57240, Note Name: D#6
Note OFF: Time 57240, Note Name: D#5
Note ON: Time 57240, Note Name: C#5, Velocity: 75
Note ON: Time 57240, Note Name: C#6, Velocity: 90
Note OFF: Time 57360, Note Name: C#6
Note OFF: Time 57360, Note Name: C#5
Note ON: Time 57360, Note Name: F5, Velocity: 64
Note ON: Time 57360, Note Name: G#5, Velocity: 75
Note OFF: Time 57480, Note Name: G#5
Note OFF: Time 57480, Note Name: F5
Note ON: Time 57480, Note Name: C#6, Velocity: 84
Note ON: Time 57480, Note Name: C#5, Velocity: 70
Note OFF: Time 57600, Note Name: C#5
Note OFF: Time 57600, Note Name: C#6
Note ON: Time 57660, Note Name: C6, Velocity: 74
Note ON: Time 57660, Note Name: C5, Velocity: 63
Note OFF: Time 57720, Note Name: C5
Note OFF: Time 57720, Note Name: C6
Note ON: Time 57720, Note Name: F4, Velocity: 92
Note OFF: Time 58200, Note Name: F4
Note ON: Time 58200, Note Name: G4, Velocity: 70
Note OFF: Time 58260, Note Name: G4
Note ON: Time 58260, Note Name: G#4, Velocity: 71
Note OFF: Time 58320, Note Name: G#4
Note ON: Time 58320, Note Name: G4, Velocity: 71
Note OFF: Time 58380, Note Name: G4
Note ON: Time 58380, Note Name: G#4, Velocity: 72
Note OFF: Time 58440, Note Name: G#4
Note ON: Time 58440, Note Name: F4, Velocity: 72
Note OFF: Time 58560, Note Name: F4
Note ON: Time 58560, Note Name: G4, Velocity: 73
Note OFF: Time 58680, Note Name: G4
Note ON: Time 58680, Note Name: G#4, Velocity: 75
Note OFF: Time 58740, Note Name: G#4
Note ON: Time 58740, Note Name: A#4, Velocity: 75
Note OFF: Time 58800, Note Name: A#4
Note ON: Time 58800, Note Name: G#4, Velocity: 77
Note OFF: Time 58860, Note Name: G#4
Note ON: Time 58860, Note Name: A#4, Velocity: 77
Note OFF: Time 58920, Note Name: A#4
Note ON: Time 58920, Note Name: G4, Velocity: 78
Note OFF: Time 59040, Note Name: G4
Note ON: Time 59040, Note Name: G#4, Velocity: 79
Note OFF: Time 59160, Note Name: G#4
Note ON: Time 59160, Note Name: C#4, Velocity: 48
Note ON: Time 59160, Note Name: G4, Velocity: 48
Note ON: Time 59160, Note Name: A4, Velocity: 82
Note OFF: Time 59280, Note Name: A4
Note ON: Time 59280, Note Name: A#4, Velocity: 77
Note OFF: Time 59400, Note Name: A#4
Note OFF: Time 59400, Note Name: G4
Note OFF: Time 59400, Note Name: C#4
Note ON: Time 59400, Note Name: C#4, Velocity: 44
Note ON: Time 59400, Note Name: G4, Velocity: 44
Note ON: Time 59400, Note Name: C5, Velocity: 77
Note OFF: Time 59520, Note Name: C5
Note ON: Time 59520, Note Name: C#5, Velocity: 77
Note OFF: Time 59640, Note Name: C#5
Note OFF: Time 59640, Note Name: G4
Note OFF: Time 59640, Note Name: C#4
Note ON: Time 59640, Note Name: C4, Velocity: 69
Note ON: Time 59640, Note Name: G#4, Velocity: 69
Note ON: Time 59640, Note Name: C5, Velocity: 82
Note OFF: Time 59880, Note Name: C5
Note OFF: Time 59880, Note Name: G#4
Note OFF: Time 59880, Note Name: C4
Note ON: Time 59880, Note Name: F5, Velocity: 83
Note ON: Time 59880, Note Name: B3, Velocity: 70
Note ON: Time 59880, Note Name: D4, Velocity: 70
Note ON: Time 59880, Note Name: F4, Velocity: 70
Note ON: Time 59880, Note Name: G#4, Velocity: 70
Note OFF: Time 60060, Note Name: G#4
Note OFF: Time 60060, Note Name: D4
Note OFF: Time 60060, Note Name: F5
Note OFF: Time 60060, Note Name: B3
Note OFF: Time 60060, Note Name: F4
Note ON: Time 60060, Note Name: D#4, Velocity: 63
Note ON: Time 60060, Note Name: C4, Velocity: 63
Note ON: Time 60060, Note Name: D#5, Velocity: 75
Note ON: Time 60060, Note Name: G#4, Velocity: 63
Note OFF: Time 60114, Note Name: G#4
Note OFF: Time 60114, Note Name: D#4
Note OFF: Time 60114, Note Name: C4
Note OFF: Time 60114, Note Name: D#5
Note ON: Time 60120, Note Name: C4, Velocity: 71
Note ON: Time 60120, Note Name: D#5, Velocity: 84
Note ON: Time 60120, Note Name: D#4, Velocity: 71
Note ON: Time 60120, Note Name: G#4, Velocity: 71
Note OFF: Time 60240, Note Name: G#4
Note OFF: Time 60240, Note Name: C4
Note OFF: Time 60240, Note Name: D#5
Note OFF: Time 60240, Note Name: D#4
Note ON: Time 60240, Note Name: G#4, Velocity: 79
Note ON: Time 60360, Note Name: G#5, Velocity: 83
Note OFF: Time 60480, Note Name: G#5
Note OFF: Time 60480, Note Name: G#4
Note ON: Time 60540, Note Name: G4, Velocity: 64
Note ON: Time 60540, Note Name: G5, Velocity: 77
Note OFF: Time 60600, Note Name: G5
Note OFF: Time 60600, Note Name: G4
Note ON: Time 60600, Note Name: F4, Velocity: 64
Note ON: Time 60600, Note Name: F5, Velocity: 77
Note OFF: Time 61080, Note Name: F5
Note OFF: Time 61080, Note Name: F4
Note ON: Time 61080, Note Name: G4, Velocity: 70
Note OFF: Time 61200, Note Name: G4
Note ON: Time 61200, Note Name: G5, Velocity: 71
Note OFF: Time 61240, Note Name: G5
Note ON: Time 61240, Note Name: G#5, Velocity: 72
Note OFF: Time 61280, Note Name: G#5
Note ON: Time 61280, Note Name: G5, Velocity: 71
Note OFF: Time 61320, Note Name: G5
Note ON: Time 61320, Note Name: F4, Velocity: 61
Note ON: Time 61320, Note Name: F5, Velocity: 72
Note OFF: Time 61440, Note Name: F5
Note OFF: Time 61440, Note Name: F4
Note ON: Time 61440, Note Name: G4, Velocity: 61
Note ON: Time 61440, Note Name: G5, Velocity: 73
Note OFF: Time 61560, Note Name: G5
Note OFF: Time 61560, Note Name: G4
Note ON: Time 61560, Note Name: G#4, Velocity: 70
Note OFF: Time 61680, Note Name: G#4
Note ON: Time 61680, Note Name: G#5, Velocity: 71
Note OFF: Time 61720, Note Name: G#5
Note ON: Time 61720, Note Name: A#5, Velocity: 71
Note OFF: Time 61760, Note Name: A#5
Note ON: Time 61760, Note Name: G#5, Velocity: 71
Note OFF: Time 61800, Note Name: G#5
Note ON: Time 61800, Note Name: G4, Velocity: 66
Note ON: Time 61800, Note Name: G5, Velocity: 78
Note OFF: Time 61920, Note Name: G5
Note OFF: Time 61920, Note Name: G4
Note ON: Time 61920, Note Name: G#4, Velocity: 67
Note ON: Time 61920, Note Name: G#5, Velocity: 79
Note OFF: Time 62040, Note Name: G#5
Note OFF: Time 62040, Note Name: G#4
Note ON: Time 62040, Note Name: A4, Velocity: 69
Note ON: Time 62040, Note Name: D#5, Velocity: 69
Note ON: Time 62040, Note Name: A5, Velocity: 82
Note OFF: Time 62160, Note Name: A5
Note OFF: Time 62160, Note Name: D#5
Note OFF: Time 62160, Note Name: A4
Note ON: Time 62160, Note Name: A#4, Velocity: 69
Note ON: Time 62160, Note Name: A#5, Velocity: 77
Note OFF: Time 62280, Note Name: A#5
Note OFF: Time 62280, Note Name: A#4
Note ON: Time 62280, Note Name: C5, Velocity: 64
Note ON: Time 62280, Note Name: G5, Velocity: 64
Note ON: Time 62280, Note Name: C6, Velocity: 77
Note OFF: Time 62400, Note Name: C6
Note OFF: Time 62400, Note Name: G5
Note OFF: Time 62400, Note Name: C5
Note ON: Time 62400, Note Name: C#5, Velocity: 64
Note ON: Time 62400, Note Name: C#6, Velocity: 77
Note OFF: Time 62520, Note Name: C#6
Note OFF: Time 62520, Note Name: C#5
Note ON: Time 62520, Note Name: C5, Velocity: 69
Note ON: Time 62520, Note Name: G#5, Velocity: 69
Note ON: Time 62520, Note Name: C6, Velocity: 82
Note OFF: Time 62640, Note Name: C6
Note OFF: Time 62640, Note Name: G#5
Note OFF: Time 62640, Note Name: C5
Note ON: Time 62760, Note Name: F5, Velocity: 70
Note ON: Time 62760, Note Name: G#5, Velocity: 70
Note ON: Time 62760, Note Name: F6, Velocity: 83
Note OFF: Time 62940, Note Name: F6
Note OFF: Time 62940, Note Name: G#5
Note OFF: Time 62940, Note Name: F5
Note ON: Time 62940, Note Name: D#5, Velocity: 63
Note ON: Time 62940, Note Name: G#5, Velocity: 63
Note ON: Time 62940, Note Name: D#6, Velocity: 75
Note OFF: Time 62994, Note Name: D#6
Note OFF: Time 62994, Note Name: G#5
Note OFF: Time 62994, Note Name: D#5
Note ON: Time 63000, Note Name: D#5, Velocity: 71
Note ON: Time 63000, Note Name: G#5, Velocity: 71
Note ON: Time 63000, Note Name: D#6, Velocity: 84
Note OFF: Time 63120, Note Name: D#6
Note OFF: Time 63120, Note Name: G#5
Note OFF: Time 63120, Note Name: D#5
Note ON: Time 63180, Note Name: D#6, Velocity: 66
Note ON: Time 63180, Note Name: D#5, Velocity: 66
Note OFF: Time 63240, Note Name: D#5
Note OFF: Time 63240, Note Name: D#6
Note ON: Time 63240, Note Name: C#5, Velocity: 70
Note ON: Time 63240, Note Name: A5, Velocity: 70
Note ON: Time 63240, Note Name: C#6, Velocity: 83
Note OFF: Time 63420, Note Name: C#6
Note OFF: Time 63420, Note Name: A5
Note OFF: Time 63420, Note Name: C#5
Note ON: Time 63420, Note Name: C5, Velocity: 64
Note ON: Time 63420, Note Name: C6, Velocity: 77
Note OFF: Time 63480, Note Name: C6
Note OFF: Time 63480, Note Name: C5
Note ON: Time 63480, Note Name: A#4, Velocity: 70
Note ON: Time 63480, Note Name: A#5, Velocity: 83
Note OFF: Time 63600, Note Name: A#5
Note OFF: Time 63600, Note Name: A#4
Note ON: Time 63720, Note Name: A#4, Velocity: 64
Note ON: Time 63720, Note Name: F#5, Velocity: 64
Note ON: Time 63720, Note Name: A#5, Velocity: 77
Note OFF: Time 63900, Note Name: A#5
Note OFF: Time 63900, Note Name: F#5
Note OFF: Time 63900, Note Name: A#4
Note ON: Time 63900, Note Name: C5, Velocity: 64
Note ON: Time 63900, Note Name: C6, Velocity: 77
Note OFF: Time 63960, Note Name: C6
Note OFF: Time 63960, Note Name: C5
Note ON: Time 63960, Note Name: C#5, Velocity: 68
Note ON: Time 63960, Note Name: F5, Velocity: 68
Note ON: Time 63960, Note Name: C#6, Velocity: 81
Note OFF: Time 64200, Note Name: C#6
Note OFF: Time 64200, Note Name: F5
Note OFF: Time 64200, Note Name: C#5
Note ON: Time 64200, Note Name: D#5, Velocity: 67
Note ON: Time 64200, Note Name: C#5, Velocity: 67
Note ON: Time 64200, Note Name: C#6, Velocity: 79
Note ON: Time 64200, Note Name: F#5, Velocity: 67
Note OFF: Time 64380, Note Name: F#5
Note OFF: Time 64380, Note Name: D#5
Note OFF: Time 64380, Note Name: C#5
Note OFF: Time 64380, Note Name: C#6
Note ON: Time 64380, Note Name: C5, Velocity: 63
Note ON: Time 64380, Note Name: C6, Velocity: 75
Note OFF: Time 64440, Note Name: C6
Note OFF: Time 64440, Note Name: C5
Note ON: Time 64440, Note Name: A#4, Velocity: 69
Note ON: Time 64440, Note Name: F5, Velocity: 69
Note ON: Time 64440, Note Name: A#5, Velocity: 82
Note OFF: Time 64680, Note Name: A#5
Note OFF: Time 64680, Note Name: F5
Note OFF: Time 64680, Note Name: A#4
Note ON: Time 64680, Note Name: G#4, Velocity: 67
Note ON: Time 64680, Note Name: D#5, Velocity: 67
Note ON: Time 64680, Note Name: G#5, Velocity: 79
Note ON: Time 64680, Note Name: A#4, Velocity: 67
Note OFF: Time 64860, Note Name: A#4
Note OFF: Time 64860, Note Name: G#4
Note OFF: Time 64860, Note Name: D#5
Note OFF: Time 64860, Note Name: G#5
Note ON: Time 64860, Note Name: F#4, Velocity: 62
Note ON: Time 64860, Note Name: F#5, Velocity: 74
Note OFF: Time 64920, Note Name: F#5
Note OFF: Time 64920, Note Name: F#4
Note ON: Time 64920, Note Name: C#5, Velocity: 66
Note ON: Time 64920, Note Name: F5, Velocity: 78
Note ON: Time 64920, Note Name: F4, Velocity: 66
Note OFF: Time 65040, Note Name: F4
Note OFF: Time 65040, Note Name: F5
Note OFF: Time 65040, Note Name: C#5
Note ON: Time 65160, Note Name: A2, Velocity: 64
Note OFF: Time 65220, Note Name: A2
Note ON: Time 65220, Note Name: A#2, Velocity: 64
Note OFF: Time 65280, Note Name: A#2
Note ON: Time 65280, Note Name: C3, Velocity: 66
Note OFF: Time 65340, Note Name: C3
Note ON: Time 65340, Note Name: C#3, Velocity: 67
Note OFF: Time 65400, Note Name: C#3
Note ON: Time 65400, Note Name: D#3, Velocity: 67
Note OFF: Time 65460, Note Name: D#3
Note ON: Time 65460, Note Name: F3, Velocity: 68
Note OFF: Time 65520, Note Name: F3
Note ON: Time 65520, Note Name: G3, Velocity: 69
Note OFF: Time 65580, Note Name: G3
Note ON: Time 65580, Note Name: A3, Velocity: 69
Note OFF: Time 65640, Note Name: A3
Note ON: Time 65640, Note Name: A#3, Velocity: 70
Note OFF: Time 65700, Note Name: A#3
Note ON: Time 65700, Note Name: C4, Velocity: 71
Note OFF: Time 65760, Note Name: C4
Note ON: Time 65760, Note Name: C#4, Velocity: 71
Note OFF: Time 65820, Note Name: C#4
Note ON: Time 65820, Note Name: D#4, Velocity: 72
Note OFF: Time 65880, Note Name: D#4
Note ON: Time 65880, Note Name: F4, Velocity: 73
Note OFF: Time 65940, Note Name: F4
Note ON: Time 65940, Note Name: G4, Velocity: 73
Note OFF: Time 66000, Note Name: G4
Note ON: Time 66000, Note Name: A4, Velocity: 74
Note OFF: Time 66060, Note Name: A4
Note ON: Time 66060, Note Name: A#4, Velocity: 74
Note OFF: Time 66120, Note Name: A#4
Note ON: Time 66120, Note Name: C5, Velocity: 75
Note OFF: Time 66180, Note Name: C5
Note ON: Time 66180, Note Name: C#5, Velocity: 77
Note OFF: Time 66240, Note Name: C#5
Note ON: Time 66240, Note Name: D#5, Velocity: 77
Note OFF: Time 66300, Note Name: D#5
Note ON: Time 66300, Note Name: F5, Velocity: 78
Note OFF: Time 66360, Note Name: F5
Note ON: Time 66360, Note Name: G5, Velocity: 77
Note OFF: Time 66420, Note Name: G5
Note ON: Time 66420, Note Name: A5, Velocity: 77
Note OFF: Time 66480, Note Name: A5
Note ON: Time 66480, Note Name: A#5, Velocity: 78
Note OFF: Time 66540, Note Name: A#5
Note ON: Time 66540, Note Name: C6, Velocity: 79
Note OFF: Time 66600, Note Name: C6
Note ON: Time 66600, Note Name: C#6, Velocity: 80
Note OFF: Time 66660, Note Name: C#6
Note ON: Time 66660, Note Name: D#6, Velocity: 80
Note OFF: Time 66720, Note Name: D#6
Note ON: Time 66720, Note Name: F6, Velocity: 81
Note OFF: Time 66780, Note Name: F6
Note ON: Time 66780, Note Name: G6, Velocity: 82
Note OFF: Time 66870, Note Name: G6
Note ON: Time 66870, Note Name: A6, Velocity: 83
Note OFF: Time 66960, Note Name: A6
Note ON: Time 66960, Note Name: A#6, Velocity: 92
Note ON: Time 66960, Note Name: A#5, Velocity: 92
Note OFF: Time 67080, Note Name: A#5
Note OFF: Time 67080, Note Name: A#6
Note ON: Time 67140, Note Name: C7, Velocity: 85
Note OFF: Time 67200, Note Name: C7
Note ON: Time 67200, Note Name: C#6, Velocity: 77
Note ON: Time 67200, Note Name: A#6, Velocity: 91
Note ON: Time 67200, Note Name: G6, Velocity: 91
Note OFF: Time 67320, Note Name: G6
Note OFF: Time 67320, Note Name: A#6
Note OFF: Time 67320, Note Name: C#6
Note ON: Time 67320, Note Name: F#6, Velocity: 85
Note ON: Time 67320, Note Name: C6, Velocity: 72
Note ON: Time 67320, Note Name: A6, Velocity: 85
Note OFF: Time 67440, Note Name: A6
Note OFF: Time 67440, Note Name: C6
Note OFF: Time 67440, Note Name: F#6
Note ON: Time 67440, Note Name: C#6, Velocity: 75
Note ON: Time 67440, Note Name: G6, Velocity: 90
Note ON: Time 67440, Note Name: A#6, Velocity: 90
Note OFF: Time 67680, Note Name: A#6
Note OFF: Time 67680, Note Name: G6
Note OFF: Time 67680, Note Name: C#6
Note ON: Time 67680, Note Name: C6, Velocity: 72
Note ON: Time 67680, Note Name: G6, Velocity: 85
Note ON: Time 67680, Note Name: C7, Velocity: 85
Note OFF: Time 67920, Note Name: C7
Note OFF: Time 67920, Note Name: G6
Note OFF: Time 67920, Note Name: C6
Note ON: Time 67920, Note Name: G#5, Velocity: 74
Note ON: Time 67920, Note Name: C6, Velocity: 74
Note ON: Time 67920, Note Name: G#6, Velocity: 88
Note OFF: Time 68160, Note Name: G#6
Note OFF: Time 68160, Note Name: C6
Note OFF: Time 68160, Note Name: G#5
Note ON: Time 68160, Note Name: D#5, Velocity: 72
Note ON: Time 68160, Note Name: G#5, Velocity: 72
Note ON: Time 68160, Note Name: D#6, Velocity: 85
Note OFF: Time 68400, Note Name: D#6
Note OFF: Time 68400, Note Name: G#5
Note OFF: Time 68400, Note Name: D#5
Note ON: Time 68400, Note Name: F5, Velocity: 72
Note ON: Time 68400, Note Name: G#5, Velocity: 72
Note ON: Time 68400, Note Name: F6, Velocity: 85
Note OFF: Time 68520, Note Name: F6
Note OFF: Time 68520, Note Name: G#5
Note OFF: Time 68520, Note Name: F5
Note ON: Time 68640, Note Name: C#4, Velocity: 67
Note ON: Time 68640, Note Name: G3, Velocity: 56
Note ON: Time 68640, Note Name: D#4, Velocity: 67
Note OFF: Time 68820, Note Name: G3
Note OFF: Time 68820, Note Name: C#4
Note ON: Time 68820, Note Name: G3, Velocity: 56
Note ON: Time 68820, Note Name: C#4, Velocity: 67
Note OFF: Time 68874, Note Name: C#4
Note OFF: Time 68874, Note Name: G3
Note ON: Time 68880, Note Name: G3, Velocity: 61
Note ON: Time 68880, Note Name: C#4, Velocity: 72
Note ON: Time 68880, Note Name: A#4, Velocity: 72
Note OFF: Time 69120, Note Name: D#4
Note OFF: Time 69360, Note Name: G3
Note OFF: Time 69360, Note Name: C#4
Note OFF: Time 69360, Note Name: A#4
Note ON: Time 69360, Note Name: G#3, Velocity: 56
Note ON: Time 69360, Note Name: C4, Velocity: 56
Note ON: Time 69360, Note Name: G#4, Velocity: 67
Note OFF: Time 69480, Note Name: G#4
Note OFF: Time 69480, Note Name: C4
Note OFF: Time 69480, Note Name: G#3
Note ON: Time 69840, Note Name: C5, Velocity: 66
Note ON: Time 69840, Note Name: C6, Velocity: 78
Note OFF: Time 69960, Note Name: C6
Note OFF: Time 69960, Note Name: C5
Note ON: Time 70080, Note Name: C4, Velocity: 42
Note ON: Time 70080, Note Name: C5, Velocity: 51
Note OFF: Time 70200, Note Name: C5
Note OFF: Time 70200, Note Name: C4
Note ON: Time 70260, Note Name: C4, Velocity: 40
Note ON: Time 70260, Note Name: C5, Velocity: 47
Note OFF: Time 70320, Note Name: C5
Note OFF: Time 70320, Note Name: C4
Note ON: Time 70320, Note Name: C#4, Velocity: 45
Note ON: Time 70320, Note Name: C5, Velocity: 55
Note OFF: Time 70560, Note Name: C5
Note OFF: Time 70560, Note Name: C#4
Note ON: Time 70560, Note Name: C4, Velocity: 41
Note ON: Time 70560, Note Name: C5, Velocity: 51
Note OFF: Time 70680, Note Name: C5
Note OFF: Time 70680, Note Name: C4
Note ON: Time 70740, Note Name: C4, Velocity: 39
Note ON: Time 70740, Note Name: C5, Velocity: 47
Note OFF: Time 70800, Note Name: C5
Note OFF: Time 70800, Note Name: C4
Note ON: Time 70800, Note Name: D#4, Velocity: 49
Note ON: Time 70800, Note Name: C5, Velocity: 58
Note OFF: Time 71040, Note Name: C5
Note OFF: Time 71040, Note Name: D#4
Note ON: Time 71040, Note Name: C4, Velocity: 46
Note ON: Time 71040, Note Name: C5, Velocity: 55
Note OFF: Time 71160, Note Name: C5
Note OFF: Time 71160, Note Name: C4
Note ON: Time 71220, Note Name: C#4, Velocity: 44
Note ON: Time 71220, Note Name: C5, Velocity: 52
Note OFF: Time 71280, Note Name: C5
Note OFF: Time 71280, Note Name: C#4
Note ON: Time 71280, Note Name: F4, Velocity: 51
Note ON: Time 71280, Note Name: C5, Velocity: 62
Note OFF: Time 71520, Note Name: C5
Note OFF: Time 71520, Note Name: F4
Note ON: Time 71520, Note Name: C4, Velocity: 49
Note ON: Time 71520, Note Name: C5, Velocity: 58
Note OFF: Time 71640, Note Name: C5
Note OFF: Time 71640, Note Name: C4
Note ON: Time 71700, Note Name: E4, Velocity: 47
Note ON: Time 71700, Note Name: C5, Velocity: 55
Note OFF: Time 71760, Note Name: C5
Note OFF: Time 71760, Note Name: E4
Note ON: Time 71760, Note Name: G4, Velocity: 55
Note ON: Time 71760, Note Name: C5, Velocity: 67
Note OFF: Time 72000, Note Name: C5
Note OFF: Time 72000, Note Name: G4
Note ON: Time 72000, Note Name: C4, Velocity: 51
Note ON: Time 72000, Note Name: C5, Velocity: 61
Note OFF: Time 72120, Note Name: C5
Note OFF: Time 72120, Note Name: C4
Note ON: Time 72180, Note Name: F4, Velocity: 48
Note ON: Time 72180, Note Name: C5, Velocity: 56
Note OFF: Time 72240, Note Name: C5
Note OFF: Time 72240, Note Name: F4
Note ON: Time 72240, Note Name: G#4, Velocity: 56
Note ON: Time 72240, Note Name: C5, Velocity: 68
Note OFF: Time 72480, Note Name: C5
Note OFF: Time 72480, Note Name: G#4
Note ON: Time 72480, Note Name: C4, Velocity: 55
Note ON: Time 72480, Note Name: C5, Velocity: 66
Note OFF: Time 72600, Note Name: C5
Note OFF: Time 72600, Note Name: C4
Note ON: Time 72660, Note Name: F#4, Velocity: 51
Note ON: Time 72660, Note Name: C5, Velocity: 61
Note OFF: Time 72720, Note Name: C5
Note OFF: Time 72720, Note Name: F#4
Note ON: Time 72720, Note Name: G4, Velocity: 55
Note ON: Time 72720, Note Name: C5, Velocity: 68
Note ON: Time 72720, Note Name: E4, Velocity: 55
Note ON: Time 72720, Note Name: E5, Velocity: 68
Note OFF: Time 72960, Note Name: E5
Note OFF: Time 72960, Note Name: G4
Note OFF: Time 72960, Note Name: C5
Note OFF: Time 72960, Note Name: E4
Note ON: Time 72960, Note Name: C6, Velocity: 71
Note ON: Time 72960, Note Name: E6, Velocity: 71
Note ON: Time 72960, Note Name: E5, Velocity: 71
Note OFF: Time 73440, Note Name: E5
Note OFF: Time 73440, Note Name: E6
Note OFF: Time 73440, Note Name: C6
Note ON: Time 73440, Note Name: D5, Velocity: 66
Note ON: Time 73440, Note Name: B5, Velocity: 66
Note ON: Time 73440, Note Name: D6, Velocity: 66
Note OFF: Time 73560, Note Name: D6
Note OFF: Time 73560, Note Name: B5
Note OFF: Time 73560, Note Name: D5
Note ON: Time 73560, Note Name: E5, Velocity: 69
Note ON: Time 73560, Note Name: C6, Velocity: 69
Note ON: Time 73560, Note Name: E6, Velocity: 69
Note OFF: Time 73680, Note Name: E6
Note OFF: Time 73680, Note Name: C6
Note OFF: Time 73680, Note Name: E5
Note ON: Time 73680, Note Name: F6, Velocity: 71
Note ON: Time 73680, Note Name: D6, Velocity: 71
Note ON: Time 73680, Note Name: F5, Velocity: 71
Note OFF: Time 73920, Note Name: F5
Note OFF: Time 73920, Note Name: D6
Note OFF: Time 73920, Note Name: F6
Note ON: Time 73920, Note Name: E5, Velocity: 71
Note ON: Time 73920, Note Name: G5, Velocity: 71
Note ON: Time 73920, Note Name: E6, Velocity: 71
Note OFF: Time 74100, Note Name: E6
Note OFF: Time 74100, Note Name: G5
Note OFF: Time 74100, Note Name: E5
Note ON: Time 74100, Note Name: D5, Velocity: 68
Note ON: Time 74100, Note Name: D6, Velocity: 68
Note OFF: Time 74160, Note Name: D6
Note OFF: Time 74160, Note Name: D5
Note ON: Time 74160, Note Name: E5, Velocity: 68
Note ON: Time 74160, Note Name: C6, Velocity: 68
Note ON: Time 74160, Note Name: E6, Velocity: 68
Note OFF: Time 74400, Note Name: E6
Note OFF: Time 74400, Note Name: C6
Note OFF: Time 74400, Note Name: E5
Note ON: Time 74400, Note Name: C4, Velocity: 59
Note OFF: Time 74460, Note Name: C4
Note ON: Time 74460, Note Name: E4, Velocity: 61
Note OFF: Time 74520, Note Name: E4
Note ON: Time 74520, Note Name: G4, Velocity: 62
Note OFF: Time 74580, Note Name: G4
Note ON: Time 74580, Note Name: B4, Velocity: 63
Note OFF: Time 74640, Note Name: B4
Note ON: Time 74640, Note Name: C5, Velocity: 64
Note OFF: Time 74700, Note Name: C5
Note ON: Time 74700, Note Name: E5, Velocity: 66
Note OFF: Time 74760, Note Name: E5
Note ON: Time 74760, Note Name: G5, Velocity: 68
Note OFF: Time 74820, Note Name: G5
Note ON: Time 74820, Note Name: B5, Velocity: 68
Note OFF: Time 74880, Note Name: B5
Note ON: Time 74880, Note Name: C6, Velocity: 70
Note OFF: Time 74940, Note Name: C6
Note ON: Time 74940, Note Name: E6, Velocity: 72
Note OFF: Time 75000, Note Name: E6
Note ON: Time 75000, Note Name: G6, Velocity: 73
Note OFF: Time 75060, Note Name: G6
Note ON: Time 75060, Note Name: C7, Velocity: 74
Note OFF: Time 75120, Note Name: C7
Note ON: Time 75120, Note Name: C#6, Velocity: 63
Note ON: Time 75120, Note Name: C#7, Velocity: 75
Note OFF: Time 75360, Note Name: C#7
Note OFF: Time 75360, Note Name: C#6
Note ON: Time 75360, Note Name: D6, Velocity: 67
Note ON: Time 75360, Note Name: D7, Velocity: 79
Note OFF: Time 75600, Note Name: D7
Note OFF: Time 75600, Note Name: D6
Note ON: Time 75600, Note Name: D#6, Velocity: 69
Note ON: Time 75600, Note Name: D#7, Velocity: 82
Note OFF: Time 75720, Note Name: D#7
Note OFF: Time 75720, Note Name: D#6
Note ON: Time 75840, Note Name: D#4, Velocity: 42
Note ON: Time 75840, Note Name: D#5, Velocity: 51
Note OFF: Time 75960, Note Name: D#5
Note OFF: Time 75960, Note Name: D#4
Note ON: Time 76020, Note Name: D#4, Velocity: 40
Note ON: Time 76020, Note Name: D#5, Velocity: 47
Note OFF: Time 76080, Note Name: D#5
Note OFF: Time 76080, Note Name: D#4
Note ON: Time 76080, Note Name: E4, Velocity: 45
Note ON: Time 76080, Note Name: D#5, Velocity: 55
Note OFF: Time 76320, Note Name: D#5
Note OFF: Time 76320, Note Name: E4
Note ON: Time 76320, Note Name: D#4, Velocity: 41
Note ON: Time 76320, Note Name: D#5, Velocity: 51
Note OFF: Time 76440, Note Name: D#5
Note OFF: Time 76440, Note Name: D#4
Note ON: Time 76500, Note Name: D#4, Velocity: 39
Note ON: Time 76500, Note Name: D#5, Velocity: 47
Note OFF: Time 76560, Note Name: D#5
Note OFF: Time 76560, Note Name: D#4
Note ON: Time 76560, Note Name: F#4, Velocity: 49
Note ON: Time 76560, Note Name: D#5, Velocity: 58
Note OFF: Time 76800, Note Name: D#5
Note OFF: Time 76800, Note Name: F#4
Note ON: Time 76800, Note Name: D#4, Velocity: 46
Note ON: Time 76800, Note Name: D#5, Velocity: 55
Note OFF: Time 76920, Note Name: D#5
Note OFF: Time 76920, Note Name: D#4
Note ON: Time 76980, Note Name: E4, Velocity: 44
Note ON: Time 76980, Note Name: D#5, Velocity: 52
Note OFF: Time 77040, Note Name: D#5
Note OFF: Time 77040, Note Name: E4
Note ON: Time 77040, Note Name: G#4, Velocity: 51
Note ON: Time 77040, Note Name: D#5, Velocity: 62
Note OFF: Time 77280, Note Name: D#5
Note OFF: Time 77280, Note Name: G#4
Note ON: Time 77280, Note Name: D#4, Velocity: 49
Note ON: Time 77280, Note Name: D#5, Velocity: 58
Note OFF: Time 77400, Note Name: D#5
Note OFF: Time 77400, Note Name: D#4
Note ON: Time 77460, Note Name: G4, Velocity: 47
Note ON: Time 77460, Note Name: D#5, Velocity: 55
Note OFF: Time 77520, Note Name: D#5
Note OFF: Time 77520, Note Name: G4
Note ON: Time 77520, Note Name: A#4, Velocity: 55
Note ON: Time 77520, Note Name: D#5, Velocity: 67
Note OFF: Time 77760, Note Name: D#5
Note OFF: Time 77760, Note Name: A#4
Note ON: Time 77760, Note Name: D#4, Velocity: 51
Note ON: Time 77760, Note Name: D#5, Velocity: 61
Note OFF: Time 77880, Note Name: D#5
Note OFF: Time 77880, Note Name: D#4
Note ON: Time 77940, Note Name: G#4, Velocity: 48
Note ON: Time 77940, Note Name: D#5, Velocity: 56
Note OFF: Time 78000, Note Name: D#5
Note OFF: Time 78000, Note Name: G#4
Note ON: Time 78000, Note Name: B4, Velocity: 56
Note ON: Time 78000, Note Name: D#5, Velocity: 68
Note OFF: Time 78240, Note Name: D#5
Note OFF: Time 78240, Note Name: B4
Note ON: Time 78240, Note Name: D#4, Velocity: 55
Note ON: Time 78240, Note Name: D#5, Velocity: 66
Note OFF: Time 78360, Note Name: D#5
Note OFF: Time 78360, Note Name: D#4
Note ON: Time 78420, Note Name: A4, Velocity: 51
Note ON: Time 78420, Note Name: D#5, Velocity: 61
Note OFF: Time 78480, Note Name: D#5
Note OFF: Time 78480, Note Name: A4
Note ON: Time 78480, Note Name: A#4, Velocity: 55
Note ON: Time 78480, Note Name: D#5, Velocity: 68
Note ON: Time 78480, Note Name: G4, Velocity: 55
Note ON: Time 78480, Note Name: G5, Velocity: 68
Note OFF: Time 78720, Note Name: G5
Note OFF: Time 78720, Note Name: A#4
Note OFF: Time 78720, Note Name: D#5
Note OFF: Time 78720, Note Name: G4
Note ON: Time 78720, Note Name: D#6, Velocity: 71
Note ON: Time 78720, Note Name: G6, Velocity: 71
Note ON: Time 78720, Note Name: G5, Velocity: 71
Note OFF: Time 79200, Note Name: G5
Note OFF: Time 79200, Note Name: G6
Note OFF: Time 79200, Note Name: D#6
Note ON: Time 79200, Note Name: F#5, Velocity: 66
Note ON: Time 79200, Note Name: D6, Velocity: 66
Note ON: Time 79200, Note Name: F#6, Velocity: 66
Note OFF: Time 79320, Note Name: F#6
Note OFF: Time 79320, Note Name: D6
Note OFF: Time 79320, Note Name: F#5
Note ON: Time 79320, Note Name: G5, Velocity: 69
Note ON: Time 79320, Note Name: D#6, Velocity: 69
Note ON: Time 79320, Note Name: G6, Velocity: 69
Note OFF: Time 79440, Note Name: G6
Note OFF: Time 79440, Note Name: D#6
Note OFF: Time 79440, Note Name: G5
Note ON: Time 79440, Note Name: G#6, Velocity: 71
Note ON: Time 79440, Note Name: D6, Velocity: 71
Note ON: Time 79440, Note Name: G#5, Velocity: 71
Note OFF: Time 79680, Note Name: G#5
Note OFF: Time 79680, Note Name: D6
Note OFF: Time 79680, Note Name: G#6
Note ON: Time 79680, Note Name: G5, Velocity: 71
Note ON: Time 79680, Note Name: D6, Velocity: 71
Note ON: Time 79680, Note Name: G6, Velocity: 71
Note OFF: Time 79860, Note Name: G6
Note OFF: Time 79860, Note Name: D6
Note OFF: Time 79860, Note Name: G5
Note ON: Time 79860, Note Name: F5, Velocity: 68
Note ON: Time 79860, Note Name: F6, Velocity: 68
Note OFF: Time 79920, Note Name: F6
Note OFF: Time 79920, Note Name: F5
Note ON: Time 79920, Note Name: G5, Velocity: 68
Note ON: Time 79920, Note Name: D#6, Velocity: 68
Note ON: Time 79920, Note Name: G6, Velocity: 68
Note OFF: Time 80160, Note Name: G6
Note OFF: Time 80160, Note Name: D#6
Note OFF: Time 80160, Note Name: G5
Note ON: Time 80160, Note Name: G#4, Velocity: 56
Note ON: Time 80160, Note Name: G5, Velocity: 67
Note OFF: Time 80340, Note Name: G5
Note ON: Time 80340, Note Name: F5, Velocity: 63
Note OFF: Time 80400, Note Name: F5
Note OFF: Time 80400, Note Name: G#4
Note ON: Time 80400, Note Name: G4, Velocity: 50
Note ON: Time 80400, Note Name: D#5, Velocity: 59
Note OFF: Time 80640, Note Name: D#5
Note OFF: Time 80640, Note Name: G4
Note ON: Time 80640, Note Name: G#3, Velocity: 56
Note ON: Time 80640, Note Name: G4, Velocity: 67
Note OFF: Time 80820, Note Name: G4
Note ON: Time 80820, Note Name: F4, Velocity: 63
Note OFF: Time 80880, Note Name: F4
Note OFF: Time 80880, Note Name: G#3
Note ON: Time 80880, Note Name: G3, Velocity: 50
Note ON: Time 80880, Note Name: D#4, Velocity: 59
Note OFF: Time 81120, Note Name: D#4
Note OFF: Time 81120, Note Name: G3
Note ON: Time 81360, Note Name: F4, Velocity: 68
Note OFF: Time 82320, Note Name: F4
Note ON: Time 82320, Note Name: A#3, Velocity: 63
Note OFF: Time 82800, Note Name: A#3
Note ON: Time 82800, Note Name: C4, Velocity: 67
Note OFF: Time 83520, Note Name: C4
Note ON: Time 83520, Note Name: C4, Velocity: 64
Note OFF: Time 83700, Note Name: C4
Note ON: Time 83700, Note Name: C#4, Velocity: 62
Note OFF: Time 83760, Note Name: C#4
Note ON: Time 83760, Note Name: C#4, Velocity: 53
Note OFF: Time 83820, Note Name: C#4
Note ON: Time 83820, Note Name: D#4, Velocity: 54
Note OFF: Time 83880, Note Name: D#4
Note ON: Time 83880, Note Name: C#4, Velocity: 56
Note OFF: Time 83940, Note Name: C#4
Note ON: Time 83940, Note Name: D#4, Velocity: 56
Note OFF: Time 84000, Note Name: D#4
Note ON: Time 84000, Note Name: C#4, Velocity: 57
Note OFF: Time 84048, Note Name: C#4
Note ON: Time 84048, Note Name: D#4, Velocity: 57
Note OFF: Time 84096, Note Name: D#4
Note ON: Time 84096, Note Name: C#4, Velocity: 56
Note OFF: Time 84144, Note Name: C#4
Note ON: Time 84144, Note Name: C4, Velocity: 56
Note OFF: Time 84192, Note Name: C4
Note ON: Time 84192, Note Name: C#4, Velocity: 55
Note OFF: Time 84240, Note Name: C#4
Note ON: Time 84240, Note Name: C4, Velocity: 67
Note OFF: Time 84960, Note Name: C4
Note ON: Time 84960, Note Name: C4, Velocity: 64
Note OFF: Time 85140, Note Name: C4
Note ON: Time 85140, Note Name: C#4, Velocity: 62
Note OFF: Time 85200, Note Name: C#4
Note ON: Time 85200, Note Name: C#4, Velocity: 53
Note OFF: Time 85260, Note Name: C#4
Note ON: Time 85260, Note Name: D#4, Velocity: 54
Note OFF: Time 85320, Note Name: D#4
Note ON: Time 85320, Note Name: C#4, Velocity: 56
Note OFF: Time 85380, Note Name: C#4
Note ON: Time 85380, Note Name: D#4, Velocity: 56
Note OFF: Time 85440, Note Name: D#4
Note ON: Time 85440, Note Name: C#4, Velocity: 57
Note OFF: Time 85488, Note Name: C#4
Note ON: Time 85488, Note Name: D#4, Velocity: 57
Note OFF: Time 85536, Note Name: D#4
Note ON: Time 85536, Note Name: C#4, Velocity: 56
Note OFF: Time 85584, Note Name: C#4
Note ON: Time 85584, Note Name: C4, Velocity: 56
Note OFF: Time 85632, Note Name: C4
Note ON: Time 85632, Note Name: C#4, Velocity: 55
Note OFF: Time 85680, Note Name: C#4
Note ON: Time 85680, Note Name: C4, Velocity: 64
Note OFF: Time 85920, Note Name: C4
Note ON: Time 85920, Note Name: D4, Velocity: 56
Note OFF: Time 86040, Note Name: D4
Note ON: Time 86040, Note Name: E4, Velocity: 58
Note OFF: Time 86160, Note Name: E4
Note ON: Time 86160, Note Name: F4, Velocity: 61
Note OFF: Time 86400, Note Name: F4
Note ON: Time 86400, Note Name: G4, Velocity: 64
Note OFF: Time 86640, Note Name: G4
Note ON: Time 86640, Note Name: A#4, Velocity: 63
Note OFF: Time 86760, Note Name: A#4
Note ON: Time 86760, Note Name: G#4, Velocity: 62
Note OFF: Time 86880, Note Name: G#4
Note ON: Time 86880, Note Name: G4, Velocity: 61
Note OFF: Time 87000, Note Name: G4
Note ON: Time 87000, Note Name: F4, Velocity: 59
Note OFF: Time 87060, Note Name: F4
Note ON: Time 87060, Note Name: F4, Velocity: 49
Note OFF: Time 87090, Note Name: F4
Note ON: Time 87090, Note Name: F4, Velocity: 48
Note OFF: Time 87120, Note Name: F4
Note ON: Time 87120, Note Name: F5, Velocity: 68
Note OFF: Time 88080, Note Name: F5
Note ON: Time 88080, Note Name: A#3, Velocity: 53
Note ON: Time 88080, Note Name: A#4, Velocity: 63
Note OFF: Time 88560, Note Name: A#4
Note OFF: Time 88560, Note Name: A#3
Note ON: Time 88560, Note Name: C4, Velocity: 56
Note ON: Time 88560, Note Name: C5, Velocity: 67
Note OFF: Time 89280, Note Name: C5
Note OFF: Time 89280, Note Name: C4
Note ON: Time 89280, Note Name: C5, Velocity: 64
Note OFF: Time 89460, Note Name: C5
Note ON: Time 89460, Note Name: C#5, Velocity: 62
Note OFF: Time 89490, Note Name: C#5
Note ON: Time 89490, Note Name: C#4, Velocity: 49
Note OFF: Time 89520, Note Name: C#4
Note ON: Time 89520, Note Name: C#5, Velocity: 53
Note OFF: Time 89580, Note Name: C#5
Note ON: Time 89580, Note Name: D#5, Velocity: 54
Note OFF: Time 89640, Note Name: D#5
Note ON: Time 89640, Note Name: C#5, Velocity: 56
Note OFF: Time 89700, Note Name: C#5
Note ON: Time 89700, Note Name: D#5, Velocity: 56
Note OFF: Time 89760, Note Name: D#5
Note ON: Time 89760, Note Name: C#5, Velocity: 57
Note OFF: Time 89808, Note Name: C#5
Note ON: Time 89808, Note Name: D#5, Velocity: 57
Note OFF: Time 89856, Note Name: D#5
Note ON: Time 89856, Note Name: C#5, Velocity: 56
Note OFF: Time 89904, Note Name: C#5
Note ON: Time 89904, Note Name: C5, Velocity: 56
Note OFF: Time 89952, Note Name: C5
Note ON: Time 89952, Note Name: C#5, Velocity: 55
Note OFF: Time 90000, Note Name: C#5
Note ON: Time 90000, Note Name: C4, Velocity: 56
Note ON: Time 90000, Note Name: C5, Velocity: 67
Note OFF: Time 90720, Note Name: C5
Note OFF: Time 90720, Note Name: C4
Note ON: Time 90720, Note Name: C5, Velocity: 66
Note OFF: Time 90900, Note Name: C5
Note ON: Time 90900, Note Name: C#5, Velocity: 64
Note OFF: Time 90930, Note Name: C#5
Note ON: Time 90930, Note Name: C#4, Velocity: 51
Note OFF: Time 90960, Note Name: C#4
Note ON: Time 90960, Note Name: C#5, Velocity: 55
Note OFF: Time 91020, Note Name: C#5
Note ON: Time 91020, Note Name: D#5, Velocity: 56
Note OFF: Time 91080, Note Name: D#5
Note ON: Time 91080, Note Name: C#5, Velocity: 58
Note OFF: Time 91140, Note Name: C#5
Note ON: Time 91140, Note Name: D#5, Velocity: 58
Note OFF: Time 91200, Note Name: D#5
Note ON: Time 91200, Note Name: C#5, Velocity: 60
Note OFF: Time 91248, Note Name: C#5
Note ON: Time 91248, Note Name: D#5, Velocity: 60
Note OFF: Time 91296, Note Name: D#5
Note ON: Time 91296, Note Name: C#5, Velocity: 59
Note OFF: Time 91344, Note Name: C#5
Note ON: Time 91344, Note Name: C5, Velocity: 58
Note OFF: Time 91392, Note Name: C5
Note ON: Time 91392, Note Name: C#5, Velocity: 57
Note OFF: Time 91440, Note Name: C#5
Note ON: Time 91440, Note Name: D5, Velocity: 56
Note OFF: Time 91500, Note Name: D5
Note ON: Time 91500, Note Name: D#5, Velocity: 57
Note OFF: Time 91560, Note Name: D#5
Note ON: Time 91560, Note Name: D5, Velocity: 59
Note OFF: Time 91620, Note Name: D5
Note ON: Time 91620, Note Name: D#5, Velocity: 60
Note OFF: Time 91680, Note Name: D#5
Note ON: Time 91680, Note Name: D5, Velocity: 61
Note OFF: Time 91728, Note Name: D5
Note ON: Time 91728, Note Name: D#5, Velocity: 61
Note OFF: Time 91776, Note Name: D#5
Note ON: Time 91776, Note Name: D5, Velocity: 61
Note OFF: Time 91824, Note Name: D5
Note ON: Time 91824, Note Name: C#5, Velocity: 60
Note OFF: Time 91872, Note Name: C#5
Note ON: Time 91872, Note Name: D5, Velocity: 59
Note OFF: Time 91920, Note Name: D5
Note ON: Time 91920, Note Name: D#5, Velocity: 58
Note OFF: Time 91980, Note Name: D#5
Note ON: Time 91980, Note Name: F5, Velocity: 59
Note OFF: Time 92040, Note Name: F5
Note ON: Time 92040, Note Name: D#5, Velocity: 60
Note OFF: Time 92100, Note Name: D#5
Note ON: Time 92100, Note Name: F5, Velocity: 62
Note OFF: Time 92160, Note Name: F5
Note ON: Time 92160, Note Name: D#5, Velocity: 62
Note OFF: Time 92220, Note Name: D#5
Note ON: Time 92220, Note Name: F5, Velocity: 63
Note OFF: Time 92280, Note Name: F5
Note ON: Time 92280, Note Name: D#5, Velocity: 64
Note OFF: Time 92340, Note Name: D#5
Note ON: Time 92340, Note Name: F5, Velocity: 65
Note OFF: Time 92400, Note Name: F5
Note ON: Time 92400, Note Name: D#5, Velocity: 66
Note OFF: Time 92460, Note Name: D#5
Note ON: Time 92460, Note Name: F5, Velocity: 68
Note OFF: Time 92520, Note Name: F5
Note ON: Time 92520, Note Name: D#5, Velocity: 69
Note OFF: Time 92580, Note Name: D#5
Note ON: Time 92580, Note Name: D5, Velocity: 69
Note OFF: Time 92640, Note Name: D5
Note ON: Time 92640, Note Name: D#5, Velocity: 67
Note OFF: Time 92700, Note Name: D#5
Note ON: Time 92700, Note Name: F5, Velocity: 68
Note OFF: Time 92760, Note Name: F5
Note ON: Time 92760, Note Name: G5, Velocity: 70
Note OFF: Time 92820, Note Name: G5
Note ON: Time 92820, Note Name: G#5, Velocity: 71
Note OFF: Time 92880, Note Name: G#5
Note ON: Time 92880, Note Name: A#5, Velocity: 72
Note OFF: Time 92940, Note Name: A#5
Note ON: Time 92940, Note Name: C6, Velocity: 74
Note OFF: Time 93000, Note Name: C6
Note ON: Time 93000, Note Name: C#6, Velocity: 75
Note OFF: Time 93060, Note Name: C#6
Note ON: Time 93060, Note Name: D#6, Velocity: 76
Note OFF: Time 93120, Note Name: D#6
Note ON: Time 93120, Note Name: F5, Velocity: 82
Note ON: Time 93120, Note Name: C#6, Velocity: 82
Note ON: Time 93120, Note Name: F6, Velocity: 97
Note OFF: Time 93480, Note Name: F6
Note OFF: Time 93480, Note Name: C#6
Note OFF: Time 93480, Note Name: F5
Note ON: Time 93480, Note Name: D#5, Velocity: 79
Note ON: Time 93480, Note Name: C6, Velocity: 79
Note ON: Time 93480, Note Name: D#6, Velocity: 93
Note OFF: Time 93588, Note Name: D#6
Note OFF: Time 93588, Note Name: C6
Note OFF: Time 93588, Note Name: D#5
Note ON: Time 93600, Note Name: D#5, Velocity: 79
Note ON: Time 93600, Note Name: C6, Velocity: 79
Note ON: Time 93600, Note Name: D#6, Velocity: 93
Note ON: Time 93780, Note Name: D#4, Velocity: 71
Note OFF: Time 93840, Note Name: D#4
Note OFF: Time 93840, Note Name: D#5
Note OFF: Time 93840, Note Name: C6
Note OFF: Time 93840, Note Name: D#6
Note ON: Time 93840, Note Name: D#4, Velocity: 71
Note OFF: Time 93888, Note Name: D#4
Note ON: Time 93888, Note Name: F4, Velocity: 71
Note OFF: Time 93936, Note Name: F4
Note ON: Time 93936, Note Name: D#4, Velocity: 71
Note OFF: Time 93984, Note Name: D#4
Note ON: Time 93984, Note Name: D4, Velocity: 71
Note OFF: Time 94032, Note Name: D4
Note ON: Time 94032, Note Name: D#4, Velocity: 71
Note OFF: Time 94080, Note Name: D#4
Note ON: Time 94080, Note Name: G#4, Velocity: 87
Note OFF: Time 94200, Note Name: G#4
Note ON: Time 94320, Note Name: C5, Velocity: 74
Note ON: Time 94320, Note Name: G#5, Velocity: 74
Note ON: Time 94320, Note Name: C6, Velocity: 88
Note OFF: Time 94440, Note Name: C6
Note OFF: Time 94440, Note Name: G#5
Note OFF: Time 94440, Note Name: C5
Note ON: Time 94440, Note Name: C#5, Velocity: 73
Note ON: Time 94440, Note Name: A#5, Velocity: 73
Note ON: Time 94440, Note Name: C#6, Velocity: 86
Note OFF: Time 94560, Note Name: C#6
Note OFF: Time 94560, Note Name: A#5
Note OFF: Time 94560, Note Name: C#5
Note ON: Time 94560, Note Name: F5, Velocity: 79
Note ON: Time 94560, Note Name: C#6, Velocity: 79
Note ON: Time 94560, Note Name: F6, Velocity: 93
Note OFF: Time 94680, Note Name: F6
Note OFF: Time 94680, Note Name: C#6
Note OFF: Time 94680, Note Name: F5
Note ON: Time 94740, Note Name: D#5, Velocity: 74
Note ON: Time 94740, Note Name: C6, Velocity: 74
Note ON: Time 94740, Note Name: D#6, Velocity: 88
Note OFF: Time 94794, Note Name: D#6
Note OFF: Time 94794, Note Name: C6
Note OFF: Time 94794, Note Name: D#5
Note ON: Time 94800, Note Name: D#5, Velocity: 74
Note ON: Time 94800, Note Name: C6, Velocity: 74
Note ON: Time 94800, Note Name: D#6, Velocity: 93
Note OFF: Time 94920, Note Name: D#6
Note OFF: Time 94920, Note Name: C6
Note OFF: Time 94920, Note Name: D#5
Note ON: Time 94920, Note Name: D5, Velocity: 74
Note ON: Time 94920, Note Name: B5, Velocity: 74
Note ON: Time 94920, Note Name: D6, Velocity: 88
Note OFF: Time 95040, Note Name: D6
Note OFF: Time 95040, Note Name: B5
Note OFF: Time 95040, Note Name: D5
Note ON: Time 95040, Note Name: D#5, Velocity: 74
Note ON: Time 95040, Note Name: C6, Velocity: 74
Note ON: Time 95040, Note Name: D#6, Velocity: 88
Note ON: Time 95220, Note Name: D#4, Velocity: 70
Note OFF: Time 95280, Note Name: D#4
Note OFF: Time 95280, Note Name: D#5
Note OFF: Time 95280, Note Name: C6
Note OFF: Time 95280, Note Name: D#6
Note ON: Time 95280, Note Name: D#4, Velocity: 70
Note OFF: Time 95328, Note Name: D#4
Note ON: Time 95328, Note Name: F4, Velocity: 70
Note OFF: Time 95376, Note Name: F4
Note ON: Time 95376, Note Name: D#4, Velocity: 70
Note OFF: Time 95424, Note Name: D#4
Note ON: Time 95424, Note Name: D4, Velocity: 70
Note OFF: Time 95472, Note Name: D4
Note ON: Time 95472, Note Name: D#4, Velocity: 70
Note OFF: Time 95520, Note Name: D#4
Note ON: Time 95520, Note Name: G#4, Velocity: 87
Note OFF: Time 95640, Note Name: G#4
Note ON: Time 95760, Note Name: C6, Velocity: 88
Note ON: Time 95760, Note Name: C5, Velocity: 74
Note ON: Time 95760, Note Name: G#5, Velocity: 74
Note OFF: Time 95880, Note Name: G#5
Note OFF: Time 95880, Note Name: C5
Note OFF: Time 95880, Note Name: C6
Note ON: Time 95880, Note Name: C#6, Velocity: 86
Note ON: Time 95880, Note Name: C#5, Velocity: 73
Note ON: Time 95880, Note Name: A#5, Velocity: 73
Note OFF: Time 96000, Note Name: A#5
Note OFF: Time 96000, Note Name: C#5
Note OFF: Time 96000, Note Name: C#6
Note ON: Time 96000, Note Name: C#6, Velocity: 79
Note ON: Time 96000, Note Name: F6, Velocity: 93
Note ON: Time 96000, Note Name: F5, Velocity: 79
Note OFF: Time 96120, Note Name: F5
Note OFF: Time 96120, Note Name: F6
Note OFF: Time 96120, Note Name: C#6
Note ON: Time 96120, Note Name: D#5, Velocity: 74
Note ON: Time 96120, Note Name: C6, Velocity: 74
Note ON: Time 96120, Note Name: D#6, Velocity: 88
Note OFF: Time 96180, Note Name: D#6
Note ON: Time 96180, Note Name: F6, Velocity: 81
Note OFF: Time 96240, Note Name: F6
Note ON: Time 96240, Note Name: D#6, Velocity: 93
Note OFF: Time 96360, Note Name: D#6
Note OFF: Time 96360, Note Name: C6
Note OFF: Time 96360, Note Name: D#5
Note ON: Time 96360, Note Name: B5, Velocity: 74
Note ON: Time 96360, Note Name: D6, Velocity: 88
Note ON: Time 96360, Note Name: D5, Velocity: 74
Note OFF: Time 96480, Note Name: D5
Note OFF: Time 96480, Note Name: D6
Note OFF: Time 96480, Note Name: B5
Note ON: Time 96480, Note Name: C#6, Velocity: 79
Note ON: Time 96480, Note Name: F6, Velocity: 93
Note ON: Time 96480, Note Name: F5, Velocity: 79
Note OFF: Time 96600, Note Name: F5
Note OFF: Time 96600, Note Name: F6
Note OFF: Time 96600, Note Name: C#6
Note ON: Time 96600, Note Name: C6, Velocity: 74
Note ON: Time 96600, Note Name: D#6, Velocity: 88
Note ON: Time 96600, Note Name: D#5, Velocity: 74
Note OFF: Time 96660, Note Name: D#6
Note ON: Time 96660, Note Name: F6, Velocity: 81
Note OFF: Time 96720, Note Name: F6
Note ON: Time 96720, Note Name: D#6, Velocity: 93
Note OFF: Time 96840, Note Name: D#6
Note OFF: Time 96840, Note Name: D#5
Note OFF: Time 96840, Note Name: C6
Note ON: Time 96840, Note Name: D5, Velocity: 74
Note ON: Time 96840, Note Name: B5, Velocity: 74
Note ON: Time 96840, Note Name: D6, Velocity: 88
Note OFF: Time 96960, Note Name: D6
Note OFF: Time 96960, Note Name: B5
Note OFF: Time 96960, Note Name: D5
Note ON: Time 96960, Note Name: D#5, Velocity: 74
Note ON: Time 96960, Note Name: C6, Velocity: 74
Note ON: Time 96960, Note Name: D#6, Velocity: 88
Note OFF: Time 97140, Note Name: D#6
Note OFF: Time 97140, Note Name: C6
Note OFF: Time 97140, Note Name: D#5
Note ON: Time 97140, Note Name: D#5, Velocity: 72
Note ON: Time 97170, Note Name: A#5, Velocity: 72
Note ON: Time 97200, Note Name: F#6, Velocity: 85
Note OFF: Time 97380, Note Name: F#6
Note OFF: Time 97380, Note Name: A#5
Note OFF: Time 97380, Note Name: D#5
Note ON: Time 97380, Note Name: D#5, Velocity: 70
Note ON: Time 97410, Note Name: A5, Velocity: 70
Note ON: Time 97440, Note Name: F6, Velocity: 83
Note ON: Time 97590, Note Name: C5, Velocity: 70
Note OFF: Time 97620, Note Name: F6
Note OFF: Time 97620, Note Name: D#5
Note OFF: Time 97620, Note Name: A5
Note ON: Time 97620, Note Name: D#5, Velocity: 70
Note ON: Time 97650, Note Name: F5, Velocity: 70
Note ON: Time 97680, Note Name: C6, Velocity: 83
Note OFF: Time 97860, Note Name: C6
Note OFF: Time 97860, Note Name: C5
Note OFF: Time 97860, Note Name: D#5
Note OFF: Time 97860, Note Name: F5
Note ON: Time 97860, Note Name: A#4, Velocity: 70
Note ON: Time 97890, Note Name: F5, Velocity: 70
Note ON: Time 97920, Note Name: C#6, Velocity: 83
Note OFF: Time 98100, Note Name: C#6
Note OFF: Time 98100, Note Name: F5
Note OFF: Time 98100, Note Name: A#4
Note ON: Time 98160, Note Name: F#5, Velocity: 80
Note OFF: Time 98240, Note Name: F#5
Note ON: Time 98240, Note Name: F#4, Velocity: 80
Note OFF: Time 98320, Note Name: F#4
Note ON: Time 98320, Note Name: F#5, Velocity: 80
Note OFF: Time 98400, Note Name: F#5
Note ON: Time 98400, Note Name: F4, Velocity: 71
Note ON: Time 98400, Note Name: F5, Velocity: 84
Note OFF: Time 98640, Note Name: F5
Note OFF: Time 98640, Note Name: F4
Note ON: Time 98640, Note Name: C#4, Velocity: 74
Note ON: Time 98640, Note Name: C#5, Velocity: 79
Note OFF: Time 98880, Note Name: C#5
Note OFF: Time 98880, Note Name: C#4
Note ON: Time 98880, Note Name: F#5, Velocity: 82
Note ON: Time 98880, Note Name: D#6, Velocity: 82
Note ON: Time 98880, Note Name: F#6, Velocity: 97
Note OFF: Time 99240, Note Name: F#6
Note OFF: Time 99240, Note Name: D#6
Note OFF: Time 99240, Note Name: F#5
Note ON: Time 99240, Note Name: F5, Velocity: 79
Note ON: Time 99240, Note Name: C#6, Velocity: 79
Note ON: Time 99240, Note Name: F6, Velocity: 93
Note OFF: Time 99348, Note Name: F6
Note OFF: Time 99348, Note Name: C#6
Note OFF: Time 99348, Note Name: F5
Note ON: Time 99360, Note Name: F5, Velocity: 79
Note ON: Time 99360, Note Name: C#6, Velocity: 79
Note ON: Time 99360, Note Name: F6, Velocity: 93
Note ON: Time 99540, Note Name: F4, Velocity: 71
Note OFF: Time 99600, Note Name: F4
Note OFF: Time 99600, Note Name: F5
Note OFF: Time 99600, Note Name: C#6
Note OFF: Time 99600, Note Name: F6
Note ON: Time 99600, Note Name: F4, Velocity: 71
Note OFF: Time 99648, Note Name: F4
Note ON: Time 99648, Note Name: F#4, Velocity: 71
Note OFF: Time 99696, Note Name: F#4
Note ON: Time 99696, Note Name: F4, Velocity: 71
Note OFF: Time 99744, Note Name: F4
Note ON: Time 99744, Note Name: E4, Velocity: 71
Note OFF: Time 99792, Note Name: E4
Note ON: Time 99792, Note Name: F4, Velocity: 71
Note OFF: Time 99840, Note Name: F4
Note ON: Time 99840, Note Name: A#4, Velocity: 87
Note OFF: Time 100080, Note Name: A#4
Note ON: Time 100080, Note Name: C#5, Velocity: 74
Note ON: Time 100080, Note Name: C#6, Velocity: 88
Note ON: Time 100080, Note Name: A#5, Velocity: 74
Note OFF: Time 100200, Note Name: A#5
Note OFF: Time 100200, Note Name: C#6
Note OFF: Time 100200, Note Name: C#5
Note ON: Time 100200, Note Name: D#5, Velocity: 73
Note ON: Time 100200, Note Name: C6, Velocity: 73
Note ON: Time 100200, Note Name: D#6, Velocity: 86
Note OFF: Time 100320, Note Name: D#6
Note OFF: Time 100320, Note Name: C6
Note OFF: Time 100320, Note Name: D#5
Note ON: Time 100320, Note Name: F#6, Velocity: 93
Note ON: Time 100320, Note Name: F#5, Velocity: 79
Note ON: Time 100320, Note Name: D#6, Velocity: 79
Note OFF: Time 100440, Note Name: D#6
Note OFF: Time 100440, Note Name: F#5
Note OFF: Time 100440, Note Name: F#6
Note ON: Time 100500, Note Name: F5, Velocity: 74
Note ON: Time 100500, Note Name: C#6, Velocity: 74
Note ON: Time 100500, Note Name: F6, Velocity: 88
Note OFF: Time 100560, Note Name: F6
Note OFF: Time 100560, Note Name: C#6
Note OFF: Time 100560, Note Name: F5
Note ON: Time 100560, Note Name: C#6, Velocity: 74
Note ON: Time 100560, Note Name: F5, Velocity: 74
Note ON: Time 100560, Note Name: F6, Velocity: 93
Note OFF: Time 100680, Note Name: F6
Note OFF: Time 100680, Note Name: F5
Note OFF: Time 100680, Note Name: C#6
Note ON: Time 100680, Note Name: E5, Velocity: 74
Note ON: Time 100680, Note Name: E6, Velocity: 88
Note ON: Time 100680, Note Name: C6, Velocity: 74
Note OFF: Time 100800, Note Name: C6
Note OFF: Time 100800, Note Name: E6
Note OFF: Time 100800, Note Name: E5
Note ON: Time 100800, Note Name: F5, Velocity: 88
Note ON: Time 100800, Note Name: C#6, Velocity: 74
Note ON: Time 100800, Note Name: F6, Velocity: 88
Note ON: Time 100980, Note Name: F4, Velocity: 71
Note OFF: Time 101040, Note Name: F4
Note OFF: Time 101040, Note Name: F5
Note OFF: Time 101040, Note Name: C#6
Note OFF: Time 101040, Note Name: F6
Note ON: Time 101040, Note Name: F4, Velocity: 71
Note OFF: Time 101088, Note Name: F4
Note ON: Time 101088, Note Name: F#4, Velocity: 71
Note OFF: Time 101136, Note Name: F#4
Note ON: Time 101136, Note Name: F4, Velocity: 71
Note OFF: Time 101184, Note Name: F4
Note ON: Time 101184, Note Name: E4, Velocity: 71
Note OFF: Time 101232, Note Name: E4
Note ON: Time 101232, Note Name: F4, Velocity: 71
Note OFF: Time 101280, Note Name: F4
Note ON: Time 101280, Note Name: A#4, Velocity: 87
Note OFF: Time 101520, Note Name: A#4
Note ON: Time 101520, Note Name: G5, Velocity: 81
Note ON: Time 101520, Note Name: G6, Velocity: 96
Note ON: Time 101520, Note Name: C#6, Velocity: 81
Note OFF: Time 101640, Note Name: C#6
Note OFF: Time 101640, Note Name: G6
Note OFF: Time 101640, Note Name: G5
Note ON: Time 101640, Note Name: G#5, Velocity: 80
Note ON: Time 101640, Note Name: G#6, Velocity: 94
Note OFF: Time 101760, Note Name: G#6
Note OFF: Time 101760, Note Name: G#5
Note ON: Time 101760, Note Name: C6, Velocity: 85
Note ON: Time 101760, Note Name: C7, Velocity: 101
Note OFF: Time 101880, Note Name: C7
Note OFF: Time 101880, Note Name: C6
Note ON: Time 101880, Note Name: D#6, Velocity: 74
Note ON: Time 101880, Note Name: G6, Velocity: 88
Note OFF: Time 102000, Note Name: G6
Note OFF: Time 102000, Note Name: D#6
Note ON: Time 102000, Note Name: C7, Velocity: 93
Note ON: Time 102000, Note Name: C6, Velocity: 79
Note OFF: Time 102120, Note Name: C6
Note OFF: Time 102120, Note Name: C7
Note ON: Time 102180, Note Name: A#6, Velocity: 92
Note ON: Time 102180, Note Name: A#5, Velocity: 78
Note OFF: Time 102234, Note Name: A#5
Note OFF: Time 102234, Note Name: A#6
Note ON: Time 102240, Note Name: A#5, Velocity: 81
Note ON: Time 102240, Note Name: A#6, Velocity: 97
Note OFF: Time 102360, Note Name: A#6
Note OFF: Time 102360, Note Name: A#5
Note ON: Time 102360, Note Name: C6, Velocity: 70
Note ON: Time 102360, Note Name: D#6, Velocity: 84
Note OFF: Time 102480, Note Name: D#6
Note OFF: Time 102480, Note Name: C6
Note ON: Time 102480, Note Name: A#6, Velocity: 90
Note ON: Time 102480, Note Name: A#5, Velocity: 75
Note OFF: Time 102600, Note Name: A#5
Note OFF: Time 102600, Note Name: A#6
Note ON: Time 102660, Note Name: G#5, Velocity: 68
Note ON: Time 102660, Note Name: G#6, Velocity: 80
Note OFF: Time 102714, Note Name: G#6
Note OFF: Time 102714, Note Name: G#5
Note ON: Time 102720, Note Name: G#5, Velocity: 79
Note ON: Time 102720, Note Name: G#6, Velocity: 93
Note OFF: Time 102840, Note Name: G#6
Note OFF: Time 102840, Note Name: G#5
Note ON: Time 102840, Note Name: D#6, Velocity: 79
Note ON: Time 102840, Note Name: A#5, Velocity: 67
Note OFF: Time 102960, Note Name: A#5
Note OFF: Time 102960, Note Name: D#6
Note ON: Time 102960, Note Name: G#6, Velocity: 88
Note ON: Time 102960, Note Name: G#5, Velocity: 74
Note OFF: Time 103080, Note Name: G#5
Note OFF: Time 103080, Note Name: G#6
Note ON: Time 103140, Note Name: G6, Velocity: 79
Note ON: Time 103140, Note Name: G5, Velocity: 67
Note OFF: Time 103194, Note Name: G5
Note OFF: Time 103194, Note Name: G6
Note ON: Time 103200, Note Name: G5, Velocity: 75
Note ON: Time 103200, Note Name: G6, Velocity: 90
Note OFF: Time 103320, Note Name: G6
Note OFF: Time 103320, Note Name: G5
Note ON: Time 103320, Note Name: D6, Velocity: 78
Note ON: Time 103320, Note Name: A#5, Velocity: 66
Note OFF: Time 103440, Note Name: A#5
Note OFF: Time 103440, Note Name: D6
Note ON: Time 103440, Note Name: G5, Velocity: 72
Note ON: Time 103440, Note Name: G6, Velocity: 85
Note OFF: Time 103560, Note Name: G6
Note OFF: Time 103560, Note Name: G5
Note ON: Time 103620, Note Name: F6, Velocity: 81
Note ON: Time 103620, Note Name: F5, Velocity: 68
Note OFF: Time 103674, Note Name: F5
Note OFF: Time 103674, Note Name: F6
Note ON: Time 103680, Note Name: F6, Velocity: 88
Note ON: Time 103680, Note Name: F5, Velocity: 73
Note OFF: Time 103800, Note Name: F5
Note OFF: Time 103800, Note Name: F6
Note ON: Time 103800, Note Name: A#5, Velocity: 75
Note ON: Time 103800, Note Name: G5, Velocity: 64
Note OFF: Time 103920, Note Name: G5
Note OFF: Time 103920, Note Name: A#5
Note ON: Time 103920, Note Name: F5, Velocity: 69
Note ON: Time 103920, Note Name: F6, Velocity: 82
Note OFF: Time 104040, Note Name: F6
Note OFF: Time 104040, Note Name: F5
Note ON: Time 104100, Note Name: D#5, Velocity: 64
Note ON: Time 104100, Note Name: D#6, Velocity: 75
Note OFF: Time 104160, Note Name: D#6
Note OFF: Time 104160, Note Name: D#5
Note ON: Time 104160, Note Name: C#5, Velocity: 75
Note ON: Time 104160, Note Name: C#6, Velocity: 90
Note OFF: Time 104280, Note Name: C#6
Note OFF: Time 104280, Note Name: C#5
Note ON: Time 104280, Note Name: F5, Velocity: 64
Note ON: Time 104280, Note Name: G#5, Velocity: 75
Note OFF: Time 104400, Note Name: G#5
Note OFF: Time 104400, Note Name: F5
Note ON: Time 104400, Note Name: C#6, Velocity: 84
Note ON: Time 104400, Note Name: C#5, Velocity: 70
Note OFF: Time 104520, Note Name: C#5
Note OFF: Time 104520, Note Name: C#6
Note ON: Time 104580, Note Name: C6, Velocity: 74
Note ON: Time 104580, Note Name: C5, Velocity: 63
Note OFF: Time 104640, Note Name: C5
Note OFF: Time 104640, Note Name: C6
Note ON: Time 104640, Note Name: F4, Velocity: 92
Note OFF: Time 105120, Note Name: F4
Note ON: Time 105120, Note Name: G4, Velocity: 56
Note OFF: Time 105180, Note Name: G4
Note ON: Time 105180, Note Name: G#4, Velocity: 56
Note OFF: Time 105240, Note Name: G#4
Note ON: Time 105240, Note Name: G4, Velocity: 56
Note OFF: Time 105300, Note Name: G4
Note ON: Time 105300, Note Name: G#4, Velocity: 57
Note OFF: Time 105360, Note Name: G#4
Note ON: Time 105360, Note Name: F4, Velocity: 57
Note OFF: Time 105480, Note Name: F4
Note ON: Time 105480, Note Name: G4, Velocity: 58
Note OFF: Time 105600, Note Name: G4
Note ON: Time 105600, Note Name: G#4, Velocity: 60
Note OFF: Time 105660, Note Name: G#4
Note ON: Time 105660, Note Name: A#4, Velocity: 60
Note OFF: Time 105720, Note Name: A#4
Note ON: Time 105720, Note Name: G#4, Velocity: 61
Note OFF: Time 105780, Note Name: G#4
Note ON: Time 105780, Note Name: A#4, Velocity: 61
Note OFF: Time 105840, Note Name: A#4
Note ON: Time 105840, Note Name: G4, Velocity: 62
Note OFF: Time 105960, Note Name: G4
Note ON: Time 105960, Note Name: G#4, Velocity: 63
Note OFF: Time 106080, Note Name: G#4
Note ON: Time 106080, Note Name: C#4, Velocity: 46
Note ON: Time 106080, Note Name: G4, Velocity: 46
Note ON: Time 106080, Note Name: A4, Velocity: 65
Note OFF: Time 106200, Note Name: A4
Note ON: Time 106200, Note Name: A#4, Velocity: 61
Note OFF: Time 106320, Note Name: A#4
Note OFF: Time 106320, Note Name: G4
Note OFF: Time 106320, Note Name: C#4
Note ON: Time 106320, Note Name: C#4, Velocity: 43
Note ON: Time 106320, Note Name: G4, Velocity: 43
Note ON: Time 106320, Note Name: C5, Velocity: 61
Note OFF: Time 106440, Note Name: C5
Note ON: Time 106440, Note Name: C#5, Velocity: 61
Note OFF: Time 106560, Note Name: C#5
Note OFF: Time 106560, Note Name: G4
Note OFF: Time 106560, Note Name: C#4
Note ON: Time 106560, Note Name: C4, Velocity: 46
Note ON: Time 106560, Note Name: G#4, Velocity: 55
Note ON: Time 106560, Note Name: C5, Velocity: 65
Note OFF: Time 106800, Note Name: C5
Note OFF: Time 106800, Note Name: G#4
Note OFF: Time 106800, Note Name: C4
Note ON: Time 106800, Note Name: F5, Velocity: 66
Note ON: Time 106800, Note Name: B3, Velocity: 56
Note ON: Time 106800, Note Name: D4, Velocity: 56
Note ON: Time 106800, Note Name: F4, Velocity: 56
Note ON: Time 106800, Note Name: G#4, Velocity: 56
Note OFF: Time 106980, Note Name: G#4
Note OFF: Time 106980, Note Name: D4
Note OFF: Time 106980, Note Name: F5
Note OFF: Time 106980, Note Name: B3
Note OFF: Time 106980, Note Name: F4
Note ON: Time 106980, Note Name: D#4, Velocity: 50
Note ON: Time 106980, Note Name: C4, Velocity: 50
Note ON: Time 106980, Note Name: D#5, Velocity: 60
Note ON: Time 106980, Note Name: G#4, Velocity: 50
Note OFF: Time 107034, Note Name: G#4
Note OFF: Time 107034, Note Name: D#4
Note OFF: Time 107034, Note Name: C4
Note OFF: Time 107034, Note Name: D#5
Note ON: Time 107040, Note Name: C4, Velocity: 56
Note ON: Time 107040, Note Name: D#5, Velocity: 67
Note ON: Time 107040, Note Name: D#4, Velocity: 56
Note ON: Time 107040, Note Name: G#4, Velocity: 56
Note OFF: Time 107160, Note Name: G#4
Note OFF: Time 107160, Note Name: C4
Note OFF: Time 107160, Note Name: D#5
Note OFF: Time 107160, Note Name: D#4
Note ON: Time 107160, Note Name: G#4, Velocity: 63
Note ON: Time 107280, Note Name: G#5, Velocity: 75
Note OFF: Time 107400, Note Name: G#5
Note OFF: Time 107400, Note Name: G#4
Note ON: Time 107460, Note Name: G4, Velocity: 58
Note ON: Time 107460, Note Name: G5, Velocity: 70
Note OFF: Time 107520, Note Name: G5
Note OFF: Time 107520, Note Name: G4
Note ON: Time 107520, Note Name: F4, Velocity: 58
Note ON: Time 107520, Note Name: F5, Velocity: 70
Note OFF: Time 108000, Note Name: F5
Note OFF: Time 108000, Note Name: F4
Note ON: Time 108000, Note Name: G4, Velocity: 64
Note OFF: Time 108120, Note Name: G4
Note ON: Time 108120, Note Name: G5, Velocity: 64
Note OFF: Time 108160, Note Name: G5
Note ON: Time 108160, Note Name: G#5, Velocity: 65
Note OFF: Time 108200, Note Name: G#5
Note ON: Time 108200, Note Name: G5, Velocity: 64
Note OFF: Time 108240, Note Name: G5
Note ON: Time 108240, Note Name: F4, Velocity: 55
Note ON: Time 108240, Note Name: F5, Velocity: 65
Note OFF: Time 108360, Note Name: F5
Note OFF: Time 108360, Note Name: F4
Note ON: Time 108360, Note Name: G4, Velocity: 55
Note ON: Time 108360, Note Name: G5, Velocity: 66
Note OFF: Time 108480, Note Name: G5
Note OFF: Time 108480, Note Name: G4
Note ON: Time 108480, Note Name: G#4, Velocity: 64
Note OFF: Time 108600, Note Name: G#4
Note ON: Time 108600, Note Name: G#5, Velocity: 64
Note OFF: Time 108640, Note Name: G#5
Note ON: Time 108640, Note Name: A#5, Velocity: 64
Note OFF: Time 108680, Note Name: A#5
Note ON: Time 108680, Note Name: G#5, Velocity: 64
Note OFF: Time 108720, Note Name: G#5
Note ON: Time 108720, Note Name: G4, Velocity: 59
Note ON: Time 108720, Note Name: G5, Velocity: 71
Note OFF: Time 108840, Note Name: G5
Note OFF: Time 108840, Note Name: G4
Note ON: Time 108840, Note Name: G#4, Velocity: 60
Note ON: Time 108840, Note Name: G#5, Velocity: 72
Note OFF: Time 108960, Note Name: G#5
Note OFF: Time 108960, Note Name: G#4
Note ON: Time 108960, Note Name: A4, Velocity: 52
Note ON: Time 108960, Note Name: D#5, Velocity: 52
Note ON: Time 108960, Note Name: A5, Velocity: 74
Note OFF: Time 109080, Note Name: A5
Note OFF: Time 109080, Note Name: D#5
Note OFF: Time 109080, Note Name: A4
Note ON: Time 109080, Note Name: A#4, Velocity: 63
Note ON: Time 109080, Note Name: A#5, Velocity: 70
Note OFF: Time 109200, Note Name: A#5
Note OFF: Time 109200, Note Name: A#4
Note ON: Time 109200, Note Name: C5, Velocity: 49
Note ON: Time 109200, Note Name: G5, Velocity: 58
Note ON: Time 109200, Note Name: C6, Velocity: 70
Note OFF: Time 109320, Note Name: C6
Note OFF: Time 109320, Note Name: G5
Note OFF: Time 109320, Note Name: C5
Note ON: Time 109320, Note Name: C#5, Velocity: 58
Note ON: Time 109320, Note Name: C#6, Velocity: 70
Note OFF: Time 109440, Note Name: C#6
Note OFF: Time 109440, Note Name: C#5
Note ON: Time 109440, Note Name: C5, Velocity: 63
Note ON: Time 109440, Note Name: G#5, Velocity: 63
Note ON: Time 109440, Note Name: C6, Velocity: 74
Note OFF: Time 109560, Note Name: C6
Note OFF: Time 109560, Note Name: G#5
Note OFF: Time 109560, Note Name: C5
Note ON: Time 109680, Note Name: F5, Velocity: 64
Note ON: Time 109680, Note Name: G#5, Velocity: 64
Note ON: Time 109680, Note Name: F6, Velocity: 75
Note OFF: Time 109860, Note Name: F6
Note OFF: Time 109860, Note Name: G#5
Note OFF: Time 109860, Note Name: F5
Note ON: Time 109860, Note Name: D#5, Velocity: 57
Note ON: Time 109860, Note Name: G#5, Velocity: 57
Note ON: Time 109860, Note Name: D#6, Velocity: 69
Note OFF: Time 109914, Note Name: D#6
Note OFF: Time 109914, Note Name: G#5
Note OFF: Time 109914, Note Name: D#5
Note ON: Time 109920, Note Name: D#5, Velocity: 64
Note ON: Time 109920, Note Name: G#5, Velocity: 64
Note ON: Time 109920, Note Name: D#6, Velocity: 77
Note OFF: Time 110040, Note Name: D#6
Note OFF: Time 110040, Note Name: G#5
Note OFF: Time 110040, Note Name: D#5
Note ON: Time 110100, Note Name: D#6, Velocity: 59
Note ON: Time 110100, Note Name: D#5, Velocity: 59
Note OFF: Time 110160, Note Name: D#5
Note OFF: Time 110160, Note Name: D#6
Note ON: Time 110160, Note Name: C#5, Velocity: 64
Note ON: Time 110160, Note Name: A5, Velocity: 64
Note ON: Time 110160, Note Name: C#6, Velocity: 75
Note OFF: Time 110340, Note Name: C#6
Note OFF: Time 110340, Note Name: A5
Note OFF: Time 110340, Note Name: C#5
Note ON: Time 110340, Note Name: C5, Velocity: 58
Note ON: Time 110340, Note Name: C6, Velocity: 70
Note OFF: Time 110400, Note Name: C6
Note OFF: Time 110400, Note Name: C5
Note ON: Time 110400, Note Name: A#4, Velocity: 64
Note ON: Time 110400, Note Name: A#5, Velocity: 75
Note OFF: Time 110520, Note Name: A#5
Note OFF: Time 110520, Note Name: A#4
Note ON: Time 110640, Note Name: A#4, Velocity: 58
Note ON: Time 110640, Note Name: F#5, Velocity: 58
Note ON: Time 110640, Note Name: A#5, Velocity: 70
Note OFF: Time 110820, Note Name: A#5
Note OFF: Time 110820, Note Name: F#5
Note OFF: Time 110820, Note Name: A#4
Note ON: Time 110820, Note Name: C5, Velocity: 58
Note ON: Time 110820, Note Name: C6, Velocity: 70
Note OFF: Time 110880, Note Name: C6
Note OFF: Time 110880, Note Name: C5
Note ON: Time 110880, Note Name: C#5, Velocity: 62
Note ON: Time 110880, Note Name: F5, Velocity: 62
Note ON: Time 110880, Note Name: C#6, Velocity: 73
Note OFF: Time 111120, Note Name: C#6
Note OFF: Time 111120, Note Name: F5
Note OFF: Time 111120, Note Name: C#5
Note ON: Time 111120, Note Name: D#5, Velocity: 60
Note ON: Time 111120, Note Name: C#5, Velocity: 60
Note ON: Time 111120, Note Name: C#6, Velocity: 72
Note ON: Time 111120, Note Name: F#5, Velocity: 60
Note OFF: Time 111300, Note Name: F#5
Note OFF: Time 111300, Note Name: D#5
Note OFF: Time 111300, Note Name: C#5
Note OFF: Time 111300, Note Name: C#6
Note ON: Time 111300, Note Name: C5, Velocity: 57
Note ON: Time 111300, Note Name: C6, Velocity: 69
Note OFF: Time 111360, Note Name: C6
Note OFF: Time 111360, Note Name: C5
Note ON: Time 111360, Note Name: A#4, Velocity: 63
Note ON: Time 111360, Note Name: F5, Velocity: 63
Note ON: Time 111360, Note Name: A#5, Velocity: 74
Note OFF: Time 111600, Note Name: A#5
Note OFF: Time 111600, Note Name: F5
Note OFF: Time 111600, Note Name: A#4
Note ON: Time 111600, Note Name: G#4, Velocity: 60
Note ON: Time 111600, Note Name: D#5, Velocity: 60
Note ON: Time 111600, Note Name: G#5, Velocity: 72
Note ON: Time 111600, Note Name: A#4, Velocity: 60
Note OFF: Time 111780, Note Name: A#4
Note OFF: Time 111780, Note Name: G#4
Note OFF: Time 111780, Note Name: D#5
Note OFF: Time 111780, Note Name: G#5
Note ON: Time 111780, Note Name: F#4, Velocity: 56
Note ON: Time 111780, Note Name: F#5, Velocity: 67
Note OFF: Time 111840, Note Name: F#5
Note OFF: Time 111840, Note Name: F#4
Note ON: Time 111840, Note Name: C#5, Velocity: 59
Note ON: Time 111840, Note Name: F5, Velocity: 71
Note ON: Time 111840, Note Name: F4, Velocity: 59
Note OFF: Time 111960, Note Name: F4
Note OFF: Time 111960, Note Name: F5
Note OFF: Time 111960, Note Name: C#5
Note ON: Time 112080, Note Name: A2, Velocity: 64
Note OFF: Time 112140, Note Name: A2
Note ON: Time 112140, Note Name: A#2, Velocity: 64
Note OFF: Time 112200, Note Name: A#2
Note ON: Time 112200, Note Name: C3, Velocity: 66
Note OFF: Time 112260, Note Name: C3
Note ON: Time 112260, Note Name: C#3, Velocity: 67
Note OFF: Time 112320, Note Name: C#3
Note ON: Time 112320, Note Name: D#3, Velocity: 67
Note OFF: Time 112380, Note Name: D#3
Note ON: Time 112380, Note Name: F3, Velocity: 68
Note OFF: Time 112440, Note Name: F3
Note ON: Time 112440, Note Name: G3, Velocity: 69
Note OFF: Time 112500, Note Name: G3
Note ON: Time 112500, Note Name: A3, Velocity: 69
Note OFF: Time 112560, Note Name: A3
Note ON: Time 112560, Note Name: A#3, Velocity: 70
Note OFF: Time 112620, Note Name: A#3
Note ON: Time 112620, Note Name: C4, Velocity: 71
Note OFF: Time 112680, Note Name: C4
Note ON: Time 112680, Note Name: C#4, Velocity: 71
Note OFF: Time 112740, Note Name: C#4
Note ON: Time 112740, Note Name: D#4, Velocity: 72
Note OFF: Time 112800, Note Name: D#4
Note ON: Time 112800, Note Name: F4, Velocity: 73
Note OFF: Time 112860, Note Name: F4
Note ON: Time 112860, Note Name: G4, Velocity: 73
Note OFF: Time 112920, Note Name: G4
Note ON: Time 112920, Note Name: A4, Velocity: 74
Note OFF: Time 112980, Note Name: A4
Note ON: Time 112980, Note Name: A#4, Velocity: 74
Note OFF: Time 113040, Note Name: A#4
Note ON: Time 113040, Note Name: C5, Velocity: 75
Note OFF: Time 113100, Note Name: C5
Note ON: Time 113100, Note Name: C#5, Velocity: 77
Note OFF: Time 113160, Note Name: C#5
Note ON: Time 113160, Note Name: D#5, Velocity: 77
Note OFF: Time 113220, Note Name: D#5
Note ON: Time 113220, Note Name: F5, Velocity: 78
Note OFF: Time 113280, Note Name: F5
Note ON: Time 113280, Note Name: G5, Velocity: 77
Note OFF: Time 113340, Note Name: G5
Note ON: Time 113340, Note Name: A5, Velocity: 77
Note OFF: Time 113400, Note Name: A5
Note ON: Time 113400, Note Name: A#5, Velocity: 78
Note OFF: Time 113460, Note Name: A#5
Note ON: Time 113460, Note Name: C6, Velocity: 79
Note OFF: Time 113520, Note Name: C6
Note ON: Time 113520, Note Name: C#6, Velocity: 80
Note OFF: Time 113580, Note Name: C#6
Note ON: Time 113580, Note Name: D#6, Velocity: 80
Note OFF: Time 113640, Note Name: D#6
Note ON: Time 113640, Note Name: F6, Velocity: 81
Note OFF: Time 113700, Note Name: F6
Note ON: Time 113700, Note Name: G6, Velocity: 82
Note OFF: Time 113790, Note Name: G6
Note ON: Time 113790, Note Name: A6, Velocity: 83
Note OFF: Time 113880, Note Name: A6
Note ON: Time 113880, Note Name: A#6, Velocity: 92
Note ON: Time 113880, Note Name: A#5, Velocity: 92
Note OFF: Time 114000, Note Name: A#5
Note OFF: Time 114000, Note Name: A#6
Note ON: Time 114060, Note Name: C7, Velocity: 85
Note OFF: Time 114120, Note Name: C7
Note ON: Time 114120, Note Name: C#6, Velocity: 77
Note ON: Time 114120, Note Name: A#6, Velocity: 91
Note ON: Time 114120, Note Name: G6, Velocity: 91
Note OFF: Time 114240, Note Name: G6
Note OFF: Time 114240, Note Name: A#6
Note OFF: Time 114240, Note Name: C#6
Note ON: Time 114240, Note Name: F#6, Velocity: 85
Note ON: Time 114240, Note Name: C6, Velocity: 72
Note ON: Time 114240, Note Name: A6, Velocity: 85
Note OFF: Time 114360, Note Name: A6
Note OFF: Time 114360, Note Name: C6
Note OFF: Time 114360, Note Name: F#6
Note ON: Time 114360, Note Name: C#6, Velocity: 75
Note ON: Time 114360, Note Name: G6, Velocity: 90
Note ON: Time 114360, Note Name: A#6, Velocity: 90
Note OFF: Time 114600, Note Name: A#6
Note OFF: Time 114600, Note Name: G6
Note OFF: Time 114600, Note Name: C#6
Note ON: Time 114600, Note Name: C6, Velocity: 72
Note ON: Time 114600, Note Name: G6, Velocity: 85
Note ON: Time 114600, Note Name: C7, Velocity: 85
Note OFF: Time 114840, Note Name: C7
Note OFF: Time 114840, Note Name: G6
Note OFF: Time 114840, Note Name: C6
Note ON: Time 114840, Note Name: G#5, Velocity: 74
Note ON: Time 114840, Note Name: C6, Velocity: 74
Note ON: Time 114840, Note Name: G#6, Velocity: 88
Note OFF: Time 115080, Note Name: G#6
Note OFF: Time 115080, Note Name: C6
Note OFF: Time 115080, Note Name: G#5
Note ON: Time 115080, Note Name: D#5, Velocity: 72
Note ON: Time 115080, Note Name: G#5, Velocity: 72
Note ON: Time 115080, Note Name: D#6, Velocity: 85
Note OFF: Time 115320, Note Name: D#6
Note OFF: Time 115320, Note Name: G#5
Note OFF: Time 115320, Note Name: D#5
Note ON: Time 115320, Note Name: F5, Velocity: 72
Note ON: Time 115320, Note Name: G#5, Velocity: 72
Note ON: Time 115320, Note Name: F6, Velocity: 85
Note OFF: Time 115440, Note Name: F6
Note OFF: Time 115440, Note Name: G#5
Note OFF: Time 115440, Note Name: F5
Note ON: Time 115560, Note Name: C#4, Velocity: 67
Note ON: Time 115560, Note Name: G3, Velocity: 56
Note ON: Time 115560, Note Name: D#4, Velocity: 67
Note OFF: Time 115740, Note Name: G3
Note OFF: Time 115740, Note Name: C#4
Note ON: Time 115740, Note Name: G3, Velocity: 56
Note ON: Time 115740, Note Name: C#4, Velocity: 67
Note OFF: Time 115794, Note Name: C#4
Note OFF: Time 115794, Note Name: G3
Note ON: Time 115800, Note Name: G3, Velocity: 61
Note ON: Time 115800, Note Name: C#4, Velocity: 72
Note ON: Time 115800, Note Name: A#4, Velocity: 72
Note OFF: Time 116040, Note Name: D#4
Note OFF: Time 116280, Note Name: G3
Note OFF: Time 116280, Note Name: C#4
Note OFF: Time 116280, Note Name: A#4
Note ON: Time 116280, Note Name: G#3, Velocity: 56
Note ON: Time 116280, Note Name: C4, Velocity: 56
Note ON: Time 116280, Note Name: G#4, Velocity: 67
Note OFF: Time 116400, Note Name: G#4
Note OFF: Time 116400, Note Name: C4
Note OFF: Time 116400, Note Name: G#3
Note ON: Time 116670, Note Name: G#3, Velocity: 67
Note ON: Time 116700, Note Name: B3, Velocity: 70
Note ON: Time 116730, Note Name: E4, Velocity: 74
Note ON: Time 116760, Note Name: G#4, Velocity: 80
Note OFF: Time 117150, Note Name: G#4
Note OFF: Time 117150, Note Name: G#3
Note OFF: Time 117150, Note Name: B3
Note OFF: Time 117150, Note Name: E4
Note ON: Time 117150, Note Name: G#3, Velocity: 67
Note ON: Time 117180, Note Name: B3, Velocity: 70
Note ON: Time 117210, Note Name: E4, Velocity: 74
Note ON: Time 117240, Note Name: G#4, Velocity: 79
Note OFF: Time 117630, Note Name: G#4
Note OFF: Time 117630, Note Name: G#3
Note OFF: Time 117630, Note Name: B3
Note OFF: Time 117630, Note Name: E4
Note ON: Time 117630, Note Name: G#3, Velocity: 66
Note ON: Time 117660, Note Name: B3, Velocity: 69
Note ON: Time 117690, Note Name: E4, Velocity: 72
Note ON: Time 117720, Note Name: G#4, Velocity: 78
Note OFF: Time 118110, Note Name: G#4
Note OFF: Time 118110, Note Name: G#3
Note OFF: Time 118110, Note Name: B3
Note OFF: Time 118110, Note Name: E4
Note ON: Time 118110, Note Name: G#3, Velocity: 67
Note ON: Time 118140, Note Name: B3, Velocity: 70
Note ON: Time 118170, Note Name: E4, Velocity: 74
Note ON: Time 118200, Note Name: G#4, Velocity: 79
Note OFF: Time 118590, Note Name: G#4
Note OFF: Time 118590, Note Name: G#3
Note OFF: Time 118590, Note Name: B3
Note OFF: Time 118590, Note Name: E4
Note ON: Time 118590, Note Name: G#3, Velocity: 67
Note ON: Time 118620, Note Name: B3, Velocity: 70
Note ON: Time 118650, Note Name: E4, Velocity: 74
Note ON: Time 118680, Note Name: G#4, Velocity: 79
Note OFF: Time 119070, Note Name: G#4
Note OFF: Time 119070, Note Name: G#3
Note OFF: Time 119070, Note Name: B3
Note OFF: Time 119070, Note Name: E4
Note ON: Time 119070, Note Name: G#3, Velocity: 67
Note ON: Time 119100, Note Name: B3, Velocity: 70
Note ON: Time 119130, Note Name: E4, Velocity: 75
Note ON: Time 119160, Note Name: G#4, Velocity: 81
Note OFF: Time 119640, Note Name: G#4
Note OFF: Time 119640, Note Name: G#3
Note OFF: Time 119640, Note Name: B3
Note OFF: Time 119640, Note Name: E4
Note ON: Time 119640, Note Name: G#3, Velocity: 65
Note ON: Time 119640, Note Name: B3, Velocity: 65
Note ON: Time 119640, Note Name: E4, Velocity: 74
Note ON: Time 119640, Note Name: G#4, Velocity: 80
Note OFF: Time 119700, Note Name: G#4
Note OFF: Time 119700, Note Name: G#3
Note OFF: Time 119700, Note Name: B3
Note OFF: Time 119700, Note Name: E4
Note ON: Time 122520, Note Name: G#3, Velocity: 36
Note ON: Time 122520, Note Name: B3, Velocity: 44
Note OFF: Time 123480, Note Name: B3
Note OFF: Time 123480, Note Name: G#3
Note ON: Time 123480, Note Name: A3, Velocity: 34
Note ON: Time 123480, Note Name: B3, Velocity: 41
Note OFF: Time 123840, Note Name: B3
Note OFF: Time 123840, Note Name: A3
Note ON: Time 123840, Note Name: A3, Velocity: 36
Note ON: Time 123840, Note Name: B3, Velocity: 43
Note OFF: Time 123960, Note Name: B3
Note OFF: Time 123960, Note Name: A3
Note ON: Time 123960, Note Name: G#3, Velocity: 36
Note ON: Time 123960, Note Name: B3, Velocity: 43
Note OFF: Time 124320, Note Name: B3
Note OFF: Time 124320, Note Name: G#3
Note ON: Time 124320, Note Name: G#3, Velocity: 35
Note ON: Time 124320, Note Name: E4, Velocity: 41
Note OFF: Time 124440, Note Name: E4
Note OFF: Time 124440, Note Name: G#3
Note ON: Time 124440, Note Name: G#3, Velocity: 39
Note ON: Time 124440, Note Name: B3, Velocity: 39
Note ON: Time 124440, Note Name: G#4, Velocity: 46
Note OFF: Time 124920, Note Name: G#4
Note OFF: Time 124920, Note Name: B3
Note OFF: Time 124920, Note Name: G#3
Note ON: Time 124920, Note Name: A3, Velocity: 33
Note ON: Time 124920, Note Name: B3, Velocity: 33
Note ON: Time 124920, Note Name: F#4, Velocity: 40
Note OFF: Time 125400, Note Name: F#4
Note OFF: Time 125400, Note Name: B3
Note OFF: Time 125400, Note Name: A3
Note ON: Time 125400, Note Name: G#3, Velocity: 35
Note ON: Time 125400, Note Name: B3, Velocity: 42
Note OFF: Time 125760, Note Name: B3
Note OFF: Time 125760, Note Name: G#3
Note ON: Time 125760, Note Name: G#3, Velocity: 34
Note ON: Time 125760, Note Name: E4, Velocity: 41
Note OFF: Time 125880, Note Name: E4
Note OFF: Time 125880, Note Name: G#3
Note ON: Time 125880, Note Name: G#3, Velocity: 36
Note ON: Time 125880, Note Name: B3, Velocity: 36
Note ON: Time 125880, Note Name: G#4, Velocity: 44
Note OFF: Time 126120, Note Name: G#4
Note OFF: Time 126120, Note Name: B3
Note OFF: Time 126120, Note Name: G#3
Note ON: Time 126240, Note Name: A3, Velocity: 34
Note ON: Time 126240, Note Name: D#4, Velocity: 40
Note OFF: Time 126360, Note Name: D#4
Note OFF: Time 126360, Note Name: A3
Note ON: Time 126360, Note Name: G#3, Velocity: 34
Note ON: Time 126360, Note Name: E4, Velocity: 41
Note OFF: Time 126600, Note Name: E4
Note OFF: Time 126600, Note Name: G#3
Note ON: Time 126600, Note Name: G#3, Velocity: 35
Note ON: Time 126600, Note Name: E4, Velocity: 35
Note ON: Time 126600, Note Name: G#4, Velocity: 41
Note OFF: Time 126840, Note Name: G#4
Note OFF: Time 126840, Note Name: E4
Note OFF: Time 126840, Note Name: G#3
Note ON: Time 126840, Note Name: B3, Velocity: 39
Note ON: Time 126840, Note Name: G#4, Velocity: 39
Note ON: Time 126840, Note Name: B4, Velocity: 46
Note OFF: Time 127080, Note Name: B4
Note OFF: Time 127080, Note Name: G#4
Note OFF: Time 127080, Note Name: B3
Note ON: Time 127080, Note Name: C#4, Velocity: 39
Note ON: Time 127080, Note Name: G#4, Velocity: 39
Note ON: Time 127080, Note Name: C#5, Velocity: 47
Note OFF: Time 127140, Note Name: C#5
Note OFF: Time 127140, Note Name: G#4
Note OFF: Time 127140, Note Name: C#4
Note ON: Time 127200, Note Name: D#4, Velocity: 40
Note ON: Time 127200, Note Name: G#4, Velocity: 40
Note ON: Time 127200, Note Name: D#5, Velocity: 48
Note OFF: Time 127260, Note Name: D#5
Note OFF: Time 127260, Note Name: G#4
Note OFF: Time 127260, Note Name: D#4
Note ON: Time 127320, Note Name: E4, Velocity: 42
Note ON: Time 127320, Note Name: G#4, Velocity: 42
Note ON: Time 127320, Note Name: E5, Velocity: 50
Note OFF: Time 127440, Note Name: E5
Note OFF: Time 127440, Note Name: G#4
Note OFF: Time 127440, Note Name: E4
Note ON: Time 127560, Note Name: B3, Velocity: 38
Note ON: Time 127560, Note Name: G#4, Velocity: 38
Note ON: Time 127560, Note Name: B4, Velocity: 45
Note OFF: Time 127680, Note Name: B4
Note OFF: Time 127680, Note Name: G#4
Note OFF: Time 127680, Note Name: B3
Note ON: Time 127800, Note Name: G#4, Velocity: 45
Note ON: Time 127800, Note Name: B4, Velocity: 45
Note ON: Time 127800, Note Name: G#5, Velocity: 53
Note OFF: Time 128280, Note Name: G#5
Note OFF: Time 128280, Note Name: B4
Note OFF: Time 128280, Note Name: G#4
Note ON: Time 128280, Note Name: B3, Velocity: 40
Note ON: Time 128280, Note Name: F#4, Velocity: 40
Note ON: Time 128280, Note Name: A4, Velocity: 40
Note ON: Time 128280, Note Name: B4, Velocity: 48
Note OFF: Time 129000, Note Name: B4
Note OFF: Time 129000, Note Name: B3
Note OFF: Time 129000, Note Name: F#4
Note OFF: Time 129000, Note Name: A4
Note ON: Time 129000, Note Name: B3, Velocity: 41
Note ON: Time 129000, Note Name: A4, Velocity: 41
Note ON: Time 129000, Note Name: B4, Velocity: 49
Note OFF: Time 129060, Note Name: B4
Note OFF: Time 129060, Note Name: A4
Note OFF: Time 129060, Note Name: B3
Note ON: Time 129120, Note Name: B3, Velocity: 41
Note ON: Time 129120, Note Name: A4, Velocity: 41
Note ON: Time 129120, Note Name: B4, Velocity: 49
Note OFF: Time 129180, Note Name: B4
Note OFF: Time 129180, Note Name: A4
Note OFF: Time 129180, Note Name: B3
Note ON: Time 129240, Note Name: B3, Velocity: 43
Note ON: Time 129240, Note Name: A4, Velocity: 43
Note ON: Time 129240, Note Name: B4, Velocity: 51
Note OFF: Time 129360, Note Name: B4
Note OFF: Time 129360, Note Name: A4
Note OFF: Time 129360, Note Name: B3
Note ON: Time 129480, Note Name: B3, Velocity: 40
Note ON: Time 129480, Note Name: A4, Velocity: 40
Note ON: Time 129480, Note Name: B4, Velocity: 48
Note OFF: Time 129600, Note Name: B4
Note OFF: Time 129600, Note Name: A4
Note OFF: Time 129600, Note Name: B3
Note ON: Time 129720, Note Name: B3, Velocity: 44
Note ON: Time 129720, Note Name: G#4, Velocity: 44
Note ON: Time 129720, Note Name: B4, Velocity: 52
Note OFF: Time 130080, Note Name: B4
Note OFF: Time 130080, Note Name: G#4
Note OFF: Time 130080, Note Name: B3
Note ON: Time 130080, Note Name: E4, Velocity: 41
Note ON: Time 130080, Note Name: G#4, Velocity: 41
Note ON: Time 130080, Note Name: E5, Velocity: 50
Note OFF: Time 130188, Note Name: E5
Note OFF: Time 130188, Note Name: G#4
Note OFF: Time 130188, Note Name: E4
Note ON: Time 130200, Note Name: E4, Velocity: 44
Note ON: Time 130200, Note Name: G#4, Velocity: 44
Note ON: Time 130200, Note Name: E5, Velocity: 52
Note OFF: Time 130680, Note Name: E5
Note OFF: Time 130680, Note Name: G#4
Note OFF: Time 130680, Note Name: E4
Note ON: Time 130680, Note Name: B3, Velocity: 40
Note ON: Time 130680, Note Name: E4, Velocity: 40
Note ON: Time 130680, Note Name: G#4, Velocity: 48
Note OFF: Time 131160, Note Name: G#4
Note OFF: Time 131160, Note Name: E4
Note OFF: Time 131160, Note Name: B3
Note ON: Time 131160, Note Name: A3, Velocity: 45
Note ON: Time 131160, Note Name: B3, Velocity: 45
Note ON: Time 131160, Note Name: F#4, Velocity: 53
Note OFF: Time 131400, Note Name: B3
Note OFF: Time 131400, Note Name: A3
Note ON: Time 131400, Note Name: A3, Velocity: 43
Note ON: Time 131400, Note Name: B3, Velocity: 51
Note OFF: Time 131460, Note Name: B3
Note OFF: Time 131460, Note Name: A3
Note ON: Time 131520, Note Name: B3, Velocity: 51
Note ON: Time 131520, Note Name: A3, Velocity: 43
Note OFF: Time 131580, Note Name: A3
Note OFF: Time 131580, Note Name: B3
Note ON: Time 131640, Note Name: A3, Velocity: 45
Note ON: Time 131640, Note Name: B3, Velocity: 54
Note OFF: Time 131760, Note Name: B3
Note OFF: Time 131760, Note Name: A3
Note OFF: Time 131880, Note Name: F#4
Note ON: Time 131880, Note Name: A3, Velocity: 44
Note ON: Time 131880, Note Name: B3, Velocity: 44
Note ON: Time 131880, Note Name: F#4, Velocity: 52
Note OFF: Time 132120, Note Name: F#4
Note OFF: Time 132120, Note Name: B3
Note OFF: Time 132120, Note Name: A3
Note ON: Time 132120, Note Name: A3, Velocity: 44
Note ON: Time 132120, Note Name: B3, Velocity: 44
Note ON: Time 132120, Note Name: G#4, Velocity: 52
Note OFF: Time 132180, Note Name: G#4
Note OFF: Time 132180, Note Name: B3
Note OFF: Time 132180, Note Name: A3
Note ON: Time 132240, Note Name: A3, Velocity: 43
Note ON: Time 132240, Note Name: B3, Velocity: 43
Note ON: Time 132240, Note Name: F#4, Velocity: 51
Note OFF: Time 132300, Note Name: F#4
Note OFF: Time 132300, Note Name: B3
Note OFF: Time 132300, Note Name: A3
Note ON: Time 132360, Note Name: A3, Velocity: 42
Note ON: Time 132360, Note Name: B3, Velocity: 42
Note ON: Time 132360, Note Name: E4, Velocity: 50
Note OFF: Time 132420, Note Name: E4
Note OFF: Time 132420, Note Name: B3
Note OFF: Time 132420, Note Name: A3
Note ON: Time 132480, Note Name: D#4, Velocity: 40
Note ON: Time 132480, Note Name: A3, Velocity: 40
Note ON: Time 132480, Note Name: B3, Velocity: 40
Note ON: Time 132480, Note Name: F#4, Velocity: 48
Note OFF: Time 132540, Note Name: F#4
Note OFF: Time 132540, Note Name: D#4
Note OFF: Time 132540, Note Name: A3
Note OFF: Time 132540, Note Name: B3
Note ON: Time 132600, Note Name: G#3, Velocity: 52
Note ON: Time 132600, Note Name: E4, Velocity: 44
Note ON: Time 132600, Note Name: G#4, Velocity: 52
Note OFF: Time 132960, Note Name: G#3
Note ON: Time 132960, Note Name: C#4, Velocity: 50
Note OFF: Time 133080, Note Name: C#4
Note ON: Time 133080, Note Name: B3, Velocity: 52
Note OFF: Time 133440, Note Name: G#4
Note OFF: Time 133440, Note Name: E4
Note ON: Time 133440, Note Name: G#4, Velocity: 42
Note ON: Time 133440, Note Name: B4, Velocity: 51
Note OFF: Time 133548, Note Name: B4
Note OFF: Time 133548, Note Name: G#4
Note ON: Time 133560, Note Name: G#4, Velocity: 42
Note ON: Time 133560, Note Name: B4, Velocity: 51
Note OFF: Time 134040, Note Name: B4
Note OFF: Time 134040, Note Name: G#4
Note OFF: Time 134040, Note Name: B3
Note ON: Time 134040, Note Name: G#3, Velocity: 45
Note ON: Time 134040, Note Name: B3, Velocity: 53
Note OFF: Time 134760, Note Name: B3
Note OFF: Time 134760, Note Name: G#3
Note ON: Time 134760, Note Name: G3, Velocity: 45
Note ON: Time 134760, Note Name: B3, Velocity: 54
Note OFF: Time 134820, Note Name: B3
Note OFF: Time 134820, Note Name: G3
Note ON: Time 134880, Note Name: G#3, Velocity: 46
Note ON: Time 134880, Note Name: B3, Velocity: 54
Note OFF: Time 134940, Note Name: B3
Note OFF: Time 134940, Note Name: G#3
Note ON: Time 135000, Note Name: A3, Velocity: 48
Note ON: Time 135000, Note Name: B3, Velocity: 57
Note OFF: Time 135120, Note Name: B3
Note OFF: Time 135120, Note Name: A3
Note ON: Time 135240, Note Name: A3, Velocity: 47
Note ON: Time 135240, Note Name: C#4, Velocity: 55
Note OFF: Time 135300, Note Name: C#4
Note OFF: Time 135300, Note Name: A3
Note ON: Time 135360, Note Name: A3, Velocity: 48
Note ON: Time 135360, Note Name: D#4, Velocity: 57
Note OFF: Time 135420, Note Name: D#4
Note OFF: Time 135420, Note Name: A3
Note ON: Time 135480, Note Name: G#3, Velocity: 51
Note ON: Time 135480, Note Name: E4, Velocity: 61
Note OFF: Time 135840, Note Name: E4
Note OFF: Time 135840, Note Name: G#3
Note ON: Time 135840, Note Name: G#3, Velocity: 49
Note ON: Time 135840, Note Name: B3, Velocity: 49
Note OFF: Time 135948, Note Name: B3
Note OFF: Time 135948, Note Name: G#3
Note ON: Time 135960, Note Name: G#3, Velocity: 51
Note ON: Time 135960, Note Name: B3, Velocity: 51
Note ON: Time 135960, Note Name: G#4, Velocity: 61
Note OFF: Time 136440, Note Name: G#4
Note OFF: Time 136440, Note Name: B3
Note OFF: Time 136440, Note Name: G#3
Note ON: Time 136440, Note Name: A3, Velocity: 53
Note ON: Time 136440, Note Name: B3, Velocity: 53
Note ON: Time 136440, Note Name: F#4, Velocity: 63
Note OFF: Time 136920, Note Name: F#4
Note OFF: Time 136920, Note Name: B3
Note OFF: Time 136920, Note Name: A3
Note ON: Time 136920, Note Name: G#3, Velocity: 57
Note ON: Time 136920, Note Name: B3, Velocity: 67
Note OFF: Time 137280, Note Name: B3
Note OFF: Time 137280, Note Name: G#3
Note ON: Time 137280, Note Name: G#3, Velocity: 60
Note ON: Time 137280, Note Name: E4, Velocity: 71
Note OFF: Time 137388, Note Name: E4
Note OFF: Time 137388, Note Name: G#3
Note ON: Time 137400, Note Name: G#3, Velocity: 61
Note ON: Time 137400, Note Name: B3, Velocity: 61
Note ON: Time 137400, Note Name: G#4, Velocity: 72
Note OFF: Time 137640, Note Name: G#4
Note OFF: Time 137640, Note Name: B3
Note OFF: Time 137640, Note Name: G#3
Note ON: Time 137760, Note Name: A3, Velocity: 59
Note ON: Time 137760, Note Name: D#4, Velocity: 71
Note OFF: Time 137880, Note Name: D#4
Note OFF: Time 137880, Note Name: A3
Note ON: Time 137880, Note Name: G#3, Velocity: 61
Note ON: Time 137880, Note Name: E4, Velocity: 73
Note OFF: Time 138120, Note Name: E4
Note OFF: Time 138120, Note Name: G#3
Note ON: Time 138120, Note Name: G#3, Velocity: 63
Note ON: Time 138120, Note Name: E4, Velocity: 63
Note ON: Time 138120, Note Name: G#4, Velocity: 76
Note OFF: Time 138360, Note Name: G#4
Note OFF: Time 138360, Note Name: E4
Note OFF: Time 138360, Note Name: G#3
Note ON: Time 138360, Note Name: B3, Velocity: 66
Note ON: Time 138360, Note Name: G#4, Velocity: 66
Note ON: Time 138360, Note Name: B4, Velocity: 78
Note OFF: Time 138840, Note Name: B4
Note OFF: Time 138840, Note Name: G#4
Note OFF: Time 138840, Note Name: B3
Note ON: Time 138840, Note Name: C#4, Velocity: 61
Note ON: Time 138840, Note Name: G#4, Velocity: 61
Note ON: Time 138840, Note Name: C#5, Velocity: 72
Note OFF: Time 138960, Note Name: C#5
Note OFF: Time 138960, Note Name: G#4
Note OFF: Time 138960, Note Name: C#4
Note ON: Time 138960, Note Name: D#4, Velocity: 64
Note ON: Time 138960, Note Name: G#4, Velocity: 64
Note ON: Time 138960, Note Name: D#5, Velocity: 75
Note OFF: Time 139080, Note Name: D#5
Note OFF: Time 139080, Note Name: G#4
Note OFF: Time 139080, Note Name: D#4
Note ON: Time 139080, Note Name: E4, Velocity: 64
Note ON: Time 139080, Note Name: G#4, Velocity: 64
Note ON: Time 139080, Note Name: E5, Velocity: 77
Note OFF: Time 139200, Note Name: E5
Note OFF: Time 139200, Note Name: G#4
Note OFF: Time 139200, Note Name: E4
Note ON: Time 139200, Note Name: F#4, Velocity: 68
Note ON: Time 139200, Note Name: B4, Velocity: 68
Note ON: Time 139200, Note Name: F#5, Velocity: 82
Note OFF: Time 139320, Note Name: F#5
Note OFF: Time 139320, Note Name: B4
Note OFF: Time 139320, Note Name: F#4
Note ON: Time 139320, Note Name: B4, Velocity: 85
Note ON: Time 139320, Note Name: G#4, Velocity: 71
Note ON: Time 139320, Note Name: E5, Velocity: 71
Note ON: Time 139320, Note Name: G#5, Velocity: 85
Note OFF: Time 139680, Note Name: B4
Note ON: Time 139680, Note Name: A#4, Velocity: 81
Note OFF: Time 139800, Note Name: G#4
Note OFF: Time 139800, Note Name: G#5
Note OFF: Time 139800, Note Name: E5
Note ON: Time 139800, Note Name: G4, Velocity: 74
Note ON: Time 139800, Note Name: D#5, Velocity: 74
Note ON: Time 139800, Note Name: G5, Velocity: 88
Note OFF: Time 140520, Note Name: G5
Note OFF: Time 140520, Note Name: A#4
Note OFF: Time 140520, Note Name: G4
Note OFF: Time 140520, Note Name: D#5
Note ON: Time 140520, Note Name: A#3, Velocity: 72
Note ON: Time 140520, Note Name: G4, Velocity: 72
Note ON: Time 140520, Note Name: A#4, Velocity: 86
Note OFF: Time 140760, Note Name: G4
Note OFF: Time 140760, Note Name: A#3
Note ON: Time 140760, Note Name: D#4, Velocity: 76
Note ON: Time 140760, Note Name: G4, Velocity: 76
Note ON: Time 140760, Note Name: D#5, Velocity: 90
Note OFF: Time 141000, Note Name: G4
Note OFF: Time 141000, Note Name: A#4
Note OFF: Time 141000, Note Name: D#4
Note ON: Time 141000, Note Name: G4, Velocity: 81
Note ON: Time 141000, Note Name: A#4, Velocity: 81
Note ON: Time 141000, Note Name: G5, Velocity: 96
Note OFF: Time 141240, Note Name: G5
Note OFF: Time 141240, Note Name: D#5
Note OFF: Time 141240, Note Name: G4
Note OFF: Time 141240, Note Name: A#4
Note ON: Time 141240, Note Name: A#4, Velocity: 85
Note ON: Time 141240, Note Name: G5, Velocity: 85
Note ON: Time 141240, Note Name: A#5, Velocity: 101
Note OFF: Time 141600, Note Name: A#5
Note OFF: Time 141600, Note Name: G5
Note OFF: Time 141600, Note Name: A#4
Note ON: Time 141600, Note Name: D#5, Velocity: 83
Note ON: Time 141600, Note Name: G5, Velocity: 83
Note ON: Time 141600, Note Name: D#6, Velocity: 99
Note OFF: Time 141720, Note Name: G5
Note OFF: Time 141720, Note Name: D#5
Note ON: Time 141720, Note Name: D#5, Velocity: 84
Note ON: Time 141720, Note Name: G5, Velocity: 100
Note OFF: Time 142080, Note Name: G5
Note OFF: Time 142080, Note Name: D#5
Note ON: Time 142080, Note Name: D#5, Velocity: 81
Note ON: Time 142080, Note Name: G4, Velocity: 81
Note ON: Time 142080, Note Name: G5, Velocity: 96
Note OFF: Time 142200, Note Name: G4
Note OFF: Time 142200, Note Name: D#5
Note ON: Time 142200, Note Name: G4, Velocity: 81
Note ON: Time 142200, Note Name: D#5, Velocity: 81
Note OFF: Time 142440, Note Name: D#5
Note OFF: Time 142440, Note Name: G5
Note OFF: Time 142440, Note Name: D#6
Note OFF: Time 142440, Note Name: G4
Note ON: Time 142440, Note Name: C5, Velocity: 78
Note ON: Time 142440, Note Name: C6, Velocity: 92
Note ON: Time 142440, Note Name: G5, Velocity: 78
Note OFF: Time 142560, Note Name: G5
Note OFF: Time 142560, Note Name: C6
Note OFF: Time 142560, Note Name: C5
Note ON: Time 142680, Note Name: A#4, Velocity: 85
Note ON: Time 142680, Note Name: G5, Velocity: 85
Note ON: Time 142680, Note Name: A#5, Velocity: 102
Note OFF: Time 143160, Note Name: A#5
Note OFF: Time 143160, Note Name: G5
Note OFF: Time 143160, Note Name: A#4
Note ON: Time 143400, Note Name: A#3, Velocity: 83
Note ON: Time 143400, Note Name: A#4, Velocity: 98
Note OFF: Time 143460, Note Name: A#4
Note OFF: Time 143460, Note Name: A#3
Note ON: Time 143520, Note Name: A#3, Velocity: 83
Note ON: Time 143520, Note Name: A#4, Velocity: 98
Note OFF: Time 143580, Note Name: A#4
Note OFF: Time 143580, Note Name: A#3
Note ON: Time 143640, Note Name: A#3, Velocity: 89
Note ON: Time 143640, Note Name: A#4, Velocity: 106
Note ON: Time 143640, Note Name: G#4, Velocity: 89
Note OFF: Time 143760, Note Name: G#4
Note OFF: Time 143760, Note Name: A#4
Note OFF: Time 143760, Note Name: A#3
Note ON: Time 143880, Note Name: F4, Velocity: 86
Note ON: Time 143880, Note Name: G#4, Velocity: 86
Note ON: Time 143880, Note Name: A#4, Velocity: 86
Note ON: Time 143880, Note Name: F5, Velocity: 101
Note OFF: Time 144000, Note Name: F5
Note OFF: Time 144000, Note Name: F4
Note OFF: Time 144000, Note Name: G#4
Note OFF: Time 144000, Note Name: A#4
Note ON: Time 144120, Note Name: D#4, Velocity: 94
Note ON: Time 144120, Note Name: G4, Velocity: 94
Note ON: Time 144120, Note Name: D#5, Velocity: 111
Note OFF: Time 144240, Note Name: D#5
Note OFF: Time 144240, Note Name: G4
Note OFF: Time 144240, Note Name: D#4
Note ON: Time 144270, Note Name: D#3, Velocity: 70
Note ON: Time 144300, Note Name: A3, Velocity: 72
Note ON: Time 144330, Note Name: B3, Velocity: 74
Note ON: Time 144360, Note Name: D#4, Velocity: 77
Note OFF: Time 144510, Note Name: D#4
Note OFF: Time 144510, Note Name: D#3
Note OFF: Time 144510, Note Name: A3
Note OFF: Time 144510, Note Name: B3
Note ON: Time 144510, Note Name: D#3, Velocity: 72
Note ON: Time 144540, Note Name: A3, Velocity: 75
Note ON: Time 144570, Note Name: B3, Velocity: 78
Note ON: Time 144600, Note Name: D#4, Velocity: 81
Note OFF: Time 144750, Note Name: D#4
Note OFF: Time 144750, Note Name: D#3
Note OFF: Time 144750, Note Name: A3
Note OFF: Time 144750, Note Name: B3
Note ON: Time 144750, Note Name: D#3, Velocity: 74
Note ON: Time 144780, Note Name: A3, Velocity: 78
Note ON: Time 144810, Note Name: B3, Velocity: 80
Note ON: Time 144840, Note Name: D#4, Velocity: 83
Note OFF: Time 144990, Note Name: D#4
Note OFF: Time 144990, Note Name: D#3
Note OFF: Time 144990, Note Name: A3
Note OFF: Time 144990, Note Name: B3
Note ON: Time 144990, Note Name: D#3, Velocity: 77
Note ON: Time 145020, Note Name: A3, Velocity: 80
Note ON: Time 145050, Note Name: B3, Velocity: 82
Note ON: Time 145080, Note Name: D#4, Velocity: 86
Note OFF: Time 145230, Note Name: D#4
Note OFF: Time 145230, Note Name: D#3
Note OFF: Time 145230, Note Name: A3
Note OFF: Time 145230, Note Name: B3
Note ON: Time 145230, Note Name: D#3, Velocity: 80
Note ON: Time 145260, Note Name: A3, Velocity: 83
Note ON: Time 145290, Note Name: B3, Velocity: 85
Note ON: Time 145320, Note Name: D#4, Velocity: 89
Note OFF: Time 145560, Note Name: D#4
Note OFF: Time 145560, Note Name: D#3
Note OFF: Time 145560, Note Name: A3
Note OFF: Time 145560, Note Name: B3
Note ON: Time 145560, Note Name: E3, Velocity: 84
Note ON: Time 145560, Note Name: G#3, Velocity: 84
Note ON: Time 145560, Note Name: E4, Velocity: 99
Note OFF: Time 145680, Note Name: E4
Note OFF: Time 145680, Note Name: G#3
Note OFF: Time 145680, Note Name: E3
Note ON: Time 145950, Note Name: G#3, Velocity: 79
Note ON: Time 145980, Note Name: B3, Velocity: 80
Note ON: Time 146010, Note Name: E4, Velocity: 80
Note ON: Time 146040, Note Name: G#4, Velocity: 80
Note OFF: Time 146430, Note Name: G#4
Note OFF: Time 146430, Note Name: G#3
Note OFF: Time 146430, Note Name: B3
Note OFF: Time 146430, Note Name: E4
Note ON: Time 146430, Note Name: G#3, Velocity: 78
Note ON: Time 146460, Note Name: B3, Velocity: 78
Note ON: Time 146490, Note Name: E4, Velocity: 77
Note ON: Time 146520, Note Name: G#4, Velocity: 77
Note OFF: Time 146910, Note Name: G#4
Note OFF: Time 146910, Note Name: G#3
Note OFF: Time 146910, Note Name: B3
Note OFF: Time 146910, Note Name: E4
Note ON: Time 146910, Note Name: G#3, Velocity: 75
Note ON: Time 146940, Note Name: B3, Velocity: 75
Note ON: Time 146970, Note Name: E4, Velocity: 75
Note ON: Time 147000, Note Name: G#4, Velocity: 74
Note OFF: Time 147390, Note Name: G#4
Note OFF: Time 147390, Note Name: G#3
Note OFF: Time 147390, Note Name: B3
Note OFF: Time 147390, Note Name: E4
Note ON: Time 147390, Note Name: G#3, Velocity: 72
Note ON: Time 147420, Note Name: B3, Velocity: 72
Note ON: Time 147450, Note Name: E4, Velocity: 72
Note ON: Time 147480, Note Name: G#4, Velocity: 72
Note OFF: Time 147870, Note Name: G#4
Note OFF: Time 147870, Note Name: G#3
Note OFF: Time 147870, Note Name: B3
Note OFF: Time 147870, Note Name: E4
Note ON: Time 147870, Note Name: G#3, Velocity: 69
Note ON: Time 147900, Note Name: B3, Velocity: 69
Note ON: Time 147930, Note Name: E4, Velocity: 69
Note ON: Time 147960, Note Name: G#4, Velocity: 69
Note OFF: Time 148440, Note Name: G#4
Note OFF: Time 148440, Note Name: G#3
Note OFF: Time 148440, Note Name: B3
Note OFF: Time 148440, Note Name: E4
Note ON: Time 148440, Note Name: G#3, Velocity: 66
Note ON: Time 148440, Note Name: B3, Velocity: 66
Note ON: Time 148440, Note Name: E4, Velocity: 66
Note ON: Time 148440, Note Name: G#4, Velocity: 66
Note OFF: Time 148500, Note Name: G#4
Note OFF: Time 148500, Note Name: G#3
Note OFF: Time 148500, Note Name: B3
Note OFF: Time 148500, Note Name: E4
Note ON: Time 151320, Note Name: G#3, Velocity: 37
Note ON: Time 151320, Note Name: B3, Velocity: 44
Note OFF: Time 152280, Note Name: B3
Note OFF: Time 152280, Note Name: G#3
Note ON: Time 152280, Note Name: A3, Velocity: 35
Note ON: Time 152280, Note Name: B3, Velocity: 42
Note OFF: Time 152640, Note Name: B3
Note OFF: Time 152640, Note Name: A3
Note ON: Time 152640, Note Name: A3, Velocity: 36
Note ON: Time 152640, Note Name: B3, Velocity: 44
Note OFF: Time 152760, Note Name: B3
Note OFF: Time 152760, Note Name: A3
Note ON: Time 152760, Note Name: G#3, Velocity: 36
Note ON: Time 152760, Note Name: B3, Velocity: 44
Note OFF: Time 153120, Note Name: B3
Note OFF: Time 153120, Note Name: G#3
Note ON: Time 153120, Note Name: G#3, Velocity: 35
Note ON: Time 153120, Note Name: E4, Velocity: 41
Note OFF: Time 153228, Note Name: E4
Note OFF: Time 153228, Note Name: G#3
Note ON: Time 153240, Note Name: G#3, Velocity: 39
Note ON: Time 153240, Note Name: B3, Velocity: 39
Note ON: Time 153240, Note Name: G#4, Velocity: 46
Note OFF: Time 153720, Note Name: G#4
Note OFF: Time 153720, Note Name: B3
Note OFF: Time 153720, Note Name: G#3
Note ON: Time 153720, Note Name: A3, Velocity: 33
Note ON: Time 153720, Note Name: B3, Velocity: 33
Note ON: Time 153720, Note Name: F#4, Velocity: 40
Note OFF: Time 154200, Note Name: F#4
Note OFF: Time 154200, Note Name: B3
Note OFF: Time 154200, Note Name: A3
Note ON: Time 154200, Note Name: G#3, Velocity: 35
Note ON: Time 154200, Note Name: B3, Velocity: 42
Note OFF: Time 154560, Note Name: B3
Note OFF: Time 154560, Note Name: G#3
Note ON: Time 154560, Note Name: G#3, Velocity: 35
Note ON: Time 154560, Note Name: E4, Velocity: 42
Note OFF: Time 154668, Note Name: E4
Note OFF: Time 154668, Note Name: G#3
Note ON: Time 154680, Note Name: G#3, Velocity: 36
Note ON: Time 154680, Note Name: B3, Velocity: 36
Note ON: Time 154680, Note Name: G#4, Velocity: 44
Note OFF: Time 154920, Note Name: G#4
Note OFF: Time 154920, Note Name: B3
Note OFF: Time 154920, Note Name: G#3
Note ON: Time 155040, Note Name: A3, Velocity: 34
Note ON: Time 155040, Note Name: D#4, Velocity: 41
Note OFF: Time 155160, Note Name: D#4
Note OFF: Time 155160, Note Name: A3
Note ON: Time 155160, Note Name: G#3, Velocity: 35
Note ON: Time 155160, Note Name: E4, Velocity: 42
Note OFF: Time 155400, Note Name: E4
Note OFF: Time 155400, Note Name: G#3
Note ON: Time 155400, Note Name: G#3, Velocity: 36
Note ON: Time 155400, Note Name: E4, Velocity: 36
Note ON: Time 155400, Note Name: G#4, Velocity: 42
Note OFF: Time 155640, Note Name: G#4
Note OFF: Time 155640, Note Name: E4
Note OFF: Time 155640, Note Name: G#3
Note ON: Time 155640, Note Name: B3, Velocity: 39
Note ON: Time 155640, Note Name: G#4, Velocity: 39
Note ON: Time 155640, Note Name: B4, Velocity: 47
Note OFF: Time 155880, Note Name: B4
Note OFF: Time 155880, Note Name: G#4
Note OFF: Time 155880, Note Name: B3
Note ON: Time 155880, Note Name: C#4, Velocity: 39
Note ON: Time 155880, Note Name: G#4, Velocity: 39
Note ON: Time 155880, Note Name: C#5, Velocity: 47
Note OFF: Time 155940, Note Name: C#5
Note OFF: Time 155940, Note Name: G#4
Note OFF: Time 155940, Note Name: C#4
Note ON: Time 156000, Note Name: D#4, Velocity: 40
Note ON: Time 156000, Note Name: G#4, Velocity: 40
Note ON: Time 156000, Note Name: D#5, Velocity: 49
Note OFF: Time 156060, Note Name: D#5
Note OFF: Time 156060, Note Name: G#4
Note OFF: Time 156060, Note Name: D#4
Note ON: Time 156120, Note Name: E4, Velocity: 43
Note ON: Time 156120, Note Name: G#4, Velocity: 43
Note ON: Time 156120, Note Name: E5, Velocity: 51
Note OFF: Time 156240, Note Name: E5
Note OFF: Time 156240, Note Name: G#4
Note OFF: Time 156240, Note Name: E4
Note ON: Time 156360, Note Name: B3, Velocity: 39
Note ON: Time 156360, Note Name: G#4, Velocity: 39
Note ON: Time 156360, Note Name: B4, Velocity: 45
Note OFF: Time 156480, Note Name: B4
Note OFF: Time 156480, Note Name: G#4
Note OFF: Time 156480, Note Name: B3
Note ON: Time 156600, Note Name: G#4, Velocity: 45
Note ON: Time 156600, Note Name: B4, Velocity: 45
Note ON: Time 156600, Note Name: G#5, Velocity: 54
Note OFF: Time 157080, Note Name: G#5
Note OFF: Time 157080, Note Name: B4
Note OFF: Time 157080, Note Name: G#4
Note ON: Time 157080, Note Name: B3, Velocity: 34
Note ON: Time 157080, Note Name: F#4, Velocity: 34
Note ON: Time 157080, Note Name: A4, Velocity: 41
Note ON: Time 157080, Note Name: B4, Velocity: 49
Note OFF: Time 157800, Note Name: B4
Note OFF: Time 157800, Note Name: B3
Note OFF: Time 157800, Note Name: F#4
Note OFF: Time 157800, Note Name: A4
Note ON: Time 157800, Note Name: B3, Velocity: 42
Note ON: Time 157800, Note Name: A4, Velocity: 42
Note ON: Time 157800, Note Name: B4, Velocity: 50
Note OFF: Time 157860, Note Name: B4
Note OFF: Time 157860, Note Name: A4
Note OFF: Time 157860, Note Name: B3
Note ON: Time 157920, Note Name: B3, Velocity: 42
Note ON: Time 157920, Note Name: A4, Velocity: 42
Note ON: Time 157920, Note Name: B4, Velocity: 50
Note OFF: Time 157980, Note Name: B4
Note OFF: Time 157980, Note Name: A4
Note OFF: Time 157980, Note Name: B3
Note ON: Time 158040, Note Name: B3, Velocity: 43
Note ON: Time 158040, Note Name: A4, Velocity: 43
Note ON: Time 158040, Note Name: B4, Velocity: 52
Note OFF: Time 158160, Note Name: B4
Note OFF: Time 158160, Note Name: A4
Note OFF: Time 158160, Note Name: B3
Note ON: Time 158280, Note Name: B3, Velocity: 41
Note ON: Time 158280, Note Name: A4, Velocity: 41
Note ON: Time 158280, Note Name: B4, Velocity: 49
Note OFF: Time 158400, Note Name: B4
Note OFF: Time 158400, Note Name: A4
Note OFF: Time 158400, Note Name: B3
Note ON: Time 158520, Note Name: B3, Velocity: 45
Note ON: Time 158520, Note Name: G#4, Velocity: 45
Note ON: Time 158520, Note Name: B4, Velocity: 53
Note OFF: Time 158880, Note Name: B4
Note OFF: Time 158880, Note Name: G#4
Note OFF: Time 158880, Note Name: B3
Note ON: Time 158880, Note Name: E4, Velocity: 42
Note ON: Time 158880, Note Name: G#4, Velocity: 42
Note ON: Time 158880, Note Name: E5, Velocity: 50
Note OFF: Time 158988, Note Name: E5
Note OFF: Time 158988, Note Name: G#4
Note OFF: Time 158988, Note Name: E4
Note ON: Time 159000, Note Name: E4, Velocity: 44
Note ON: Time 159000, Note Name: G#4, Velocity: 44
Note ON: Time 159000, Note Name: E5, Velocity: 53
Note OFF: Time 159480, Note Name: E5
Note OFF: Time 159480, Note Name: G#4
Note OFF: Time 159480, Note Name: E4
Note ON: Time 159480, Note Name: B3, Velocity: 41
Note ON: Time 159480, Note Name: E4, Velocity: 41
Note ON: Time 159480, Note Name: G#4, Velocity: 49
Note OFF: Time 159960, Note Name: G#4
Note OFF: Time 159960, Note Name: E4
Note OFF: Time 159960, Note Name: B3
Note ON: Time 159960, Note Name: A3, Velocity: 46
Note ON: Time 159960, Note Name: B3, Velocity: 46
Note ON: Time 159960, Note Name: F#4, Velocity: 54
Note OFF: Time 160200, Note Name: B3
Note OFF: Time 160200, Note Name: A3
Note ON: Time 160200, Note Name: A3, Velocity: 44
Note ON: Time 160200, Note Name: B3, Velocity: 52
Note OFF: Time 160260, Note Name: B3
Note OFF: Time 160260, Note Name: A3
Note ON: Time 160320, Note Name: B3, Velocity: 52
Note ON: Time 160320, Note Name: A3, Velocity: 44
Note OFF: Time 160380, Note Name: A3
Note OFF: Time 160380, Note Name: B3
Note ON: Time 160440, Note Name: A3, Velocity: 45
Note ON: Time 160440, Note Name: B3, Velocity: 54
Note OFF: Time 160560, Note Name: B3
Note OFF: Time 160560, Note Name: A3
Note OFF: Time 160680, Note Name: F#4
Note ON: Time 160680, Note Name: A3, Velocity: 45
Note ON: Time 160680, Note Name: B3, Velocity: 45
Note ON: Time 160680, Note Name: F#4, Velocity: 54
Note OFF: Time 160920, Note Name: F#4
Note OFF: Time 160920, Note Name: B3
Note OFF: Time 160920, Note Name: A3
Note ON: Time 160920, Note Name: A3, Velocity: 45
Note ON: Time 160920, Note Name: B3, Velocity: 45
Note ON: Time 160920, Note Name: G#4, Velocity: 53
Note OFF: Time 160980, Note Name: G#4
Note OFF: Time 160980, Note Name: B3
Note OFF: Time 160980, Note Name: A3
Note ON: Time 161040, Note Name: A3, Velocity: 44
Note ON: Time 161040, Note Name: B3, Velocity: 44
Note ON: Time 161040, Note Name: F#4, Velocity: 52
Note OFF: Time 161100, Note Name: F#4
Note OFF: Time 161100, Note Name: B3
Note OFF: Time 161100, Note Name: A3
Note ON: Time 161160, Note Name: A3, Velocity: 43
Note ON: Time 161160, Note Name: B3, Velocity: 43
Note ON: Time 161160, Note Name: E4, Velocity: 51
Note OFF: Time 161220, Note Name: E4
Note OFF: Time 161220, Note Name: B3
Note OFF: Time 161220, Note Name: A3
Note ON: Time 161280, Note Name: D#4, Velocity: 41
Note ON: Time 161280, Note Name: A3, Velocity: 41
Note ON: Time 161280, Note Name: B3, Velocity: 41
Note ON: Time 161280, Note Name: F#4, Velocity: 50
Note OFF: Time 161340, Note Name: F#4
Note OFF: Time 161340, Note Name: D#4
Note OFF: Time 161340, Note Name: A3
Note OFF: Time 161340, Note Name: B3
Note ON: Time 161400, Note Name: G#3, Velocity: 53
Note ON: Time 161400, Note Name: E4, Velocity: 45
Note ON: Time 161400, Note Name: G#4, Velocity: 53
Note OFF: Time 161760, Note Name: G#3
Note ON: Time 161760, Note Name: C#4, Velocity: 51
Note OFF: Time 161880, Note Name: C#4
Note ON: Time 161880, Note Name: B3, Velocity: 54
Note OFF: Time 162240, Note Name: G#4
Note OFF: Time 162240, Note Name: E4
Note ON: Time 162240, Note Name: G#4, Velocity: 43
Note ON: Time 162240, Note Name: B4, Velocity: 52
Note OFF: Time 162348, Note Name: B4
Note OFF: Time 162348, Note Name: G#4
Note ON: Time 162360, Note Name: G#4, Velocity: 43
Note ON: Time 162360, Note Name: B4, Velocity: 52
Note OFF: Time 162840, Note Name: B4
Note OFF: Time 162840, Note Name: G#4
Note OFF: Time 162840, Note Name: B3
Note ON: Time 162840, Note Name: G#3, Velocity: 45
Note ON: Time 162840, Note Name: B3, Velocity: 53
Note OFF: Time 163560, Note Name: B3
Note OFF: Time 163560, Note Name: G#3
Note ON: Time 163560, Note Name: G3, Velocity: 45
Note ON: Time 163560, Note Name: B3, Velocity: 54
Note OFF: Time 163620, Note Name: B3
Note OFF: Time 163620, Note Name: G3
Note ON: Time 163680, Note Name: G#3, Velocity: 46
Note ON: Time 163680, Note Name: B3, Velocity: 54
Note OFF: Time 163740, Note Name: B3
Note OFF: Time 163740, Note Name: G#3
Note ON: Time 163800, Note Name: A3, Velocity: 48
Note ON: Time 163800, Note Name: B3, Velocity: 57
Note OFF: Time 163920, Note Name: B3
Note OFF: Time 163920, Note Name: A3
Note ON: Time 164040, Note Name: A3, Velocity: 47
Note ON: Time 164040, Note Name: C#4, Velocity: 55
Note OFF: Time 164100, Note Name: C#4
Note OFF: Time 164100, Note Name: A3
Note ON: Time 164160, Note Name: A3, Velocity: 48
Note ON: Time 164160, Note Name: D#4, Velocity: 57
Note OFF: Time 164220, Note Name: D#4
Note OFF: Time 164220, Note Name: A3
Note ON: Time 164280, Note Name: G#3, Velocity: 51
Note ON: Time 164280, Note Name: E4, Velocity: 61
Note OFF: Time 164640, Note Name: E4
Note OFF: Time 164640, Note Name: G#3
Note ON: Time 164640, Note Name: G#3, Velocity: 49
Note ON: Time 164640, Note Name: B3, Velocity: 49
Note OFF: Time 164748, Note Name: B3
Note OFF: Time 164748, Note Name: G#3
Note ON: Time 164760, Note Name: G#3, Velocity: 51
Note ON: Time 164760, Note Name: B3, Velocity: 51
Note ON: Time 164760, Note Name: G#4, Velocity: 61
Note OFF: Time 165240, Note Name: G#4
Note OFF: Time 165240, Note Name: B3
Note OFF: Time 165240, Note Name: G#3
Note ON: Time 165240, Note Name: A3, Velocity: 53
Note ON: Time 165240, Note Name: B3, Velocity: 53
Note ON: Time 165240, Note Name: F#4, Velocity: 63
Note OFF: Time 165720, Note Name: F#4
Note OFF: Time 165720, Note Name: B3
Note OFF: Time 165720, Note Name: A3
Note ON: Time 165720, Note Name: G#3, Velocity: 57
Note ON: Time 165720, Note Name: B3, Velocity: 67
Note OFF: Time 166080, Note Name: B3
Note OFF: Time 166080, Note Name: G#3
Note ON: Time 166080, Note Name: G#3, Velocity: 60
Note ON: Time 166080, Note Name: E4, Velocity: 71
Note OFF: Time 166188, Note Name: E4
Note OFF: Time 166188, Note Name: G#3
Note ON: Time 166200, Note Name: G#3, Velocity: 61
Note ON: Time 166200, Note Name: B3, Velocity: 61
Note ON: Time 166200, Note Name: G#4, Velocity: 72
Note OFF: Time 166440, Note Name: G#4
Note OFF: Time 166440, Note Name: B3
Note OFF: Time 166440, Note Name: G#3
Note ON: Time 166560, Note Name: A3, Velocity: 58
Note ON: Time 166560, Note Name: D#4, Velocity: 70
Note OFF: Time 166680, Note Name: D#4
Note OFF: Time 166680, Note Name: A3
Note ON: Time 166680, Note Name: G#3, Velocity: 61
Note ON: Time 166680, Note Name: E4, Velocity: 73
Note OFF: Time 166920, Note Name: E4
Note OFF: Time 166920, Note Name: G#3
Note ON: Time 166920, Note Name: G#3, Velocity: 63
Note ON: Time 166920, Note Name: E4, Velocity: 63
Note ON: Time 166920, Note Name: G#4, Velocity: 76
Note OFF: Time 167160, Note Name: G#4
Note OFF: Time 167160, Note Name: E4
Note OFF: Time 167160, Note Name: G#3
Note ON: Time 167160, Note Name: B3, Velocity: 66
Note ON: Time 167160, Note Name: G#4, Velocity: 66
Note ON: Time 167160, Note Name: B4, Velocity: 78
Note OFF: Time 167640, Note Name: B4
Note OFF: Time 167640, Note Name: G#4
Note OFF: Time 167640, Note Name: B3
Note ON: Time 167640, Note Name: C#4, Velocity: 61
Note ON: Time 167640, Note Name: G#4, Velocity: 61
Note ON: Time 167640, Note Name: C#5, Velocity: 72
Note OFF: Time 167760, Note Name: C#5
Note OFF: Time 167760, Note Name: G#4
Note OFF: Time 167760, Note Name: C#4
Note ON: Time 167760, Note Name: D#4, Velocity: 64
Note ON: Time 167760, Note Name: G#4, Velocity: 64
Note ON: Time 167760, Note Name: D#5, Velocity: 75
Note OFF: Time 167880, Note Name: D#5
Note OFF: Time 167880, Note Name: G#4
Note OFF: Time 167880, Note Name: D#4
Note ON: Time 167880, Note Name: E4, Velocity: 64
Note ON: Time 167880, Note Name: G#4, Velocity: 64
Note ON: Time 167880, Note Name: E5, Velocity: 77
Note OFF: Time 168000, Note Name: E5
Note OFF: Time 168000, Note Name: G#4
Note OFF: Time 168000, Note Name: E4
Note ON: Time 168000, Note Name: F#4, Velocity: 67
Note ON: Time 168000, Note Name: B4, Velocity: 67
Note ON: Time 168000, Note Name: F#5, Velocity: 81
Note OFF: Time 168120, Note Name: F#5
Note OFF: Time 168120, Note Name: B4
Note OFF: Time 168120, Note Name: F#4
Note ON: Time 168120, Note Name: B4, Velocity: 85
Note ON: Time 168120, Note Name: G#4, Velocity: 71
Note ON: Time 168120, Note Name: E5, Velocity: 71
Note ON: Time 168120, Note Name: G#5, Velocity: 85
Note OFF: Time 168480, Note Name: B4
Note ON: Time 168480, Note Name: A#4, Velocity: 81
Note OFF: Time 168600, Note Name: G#4
Note OFF: Time 168600, Note Name: G#5
Note OFF: Time 168600, Note Name: E5
Note ON: Time 168600, Note Name: G4, Velocity: 74
Note ON: Time 168600, Note Name: D#5, Velocity: 74
Note ON: Time 168600, Note Name: G5, Velocity: 88
Note OFF: Time 169320, Note Name: G5
Note OFF: Time 169320, Note Name: A#4
Note OFF: Time 169320, Note Name: G4
Note OFF: Time 169320, Note Name: D#5
Note ON: Time 169320, Note Name: A#3, Velocity: 72
Note ON: Time 169320, Note Name: G4, Velocity: 72
Note ON: Time 169320, Note Name: A#4, Velocity: 86
Note OFF: Time 169560, Note Name: G4
Note OFF: Time 169560, Note Name: A#3
Note ON: Time 169560, Note Name: D#4, Velocity: 76
Note ON: Time 169560, Note Name: G4, Velocity: 76
Note ON: Time 169560, Note Name: D#5, Velocity: 90
Note OFF: Time 169800, Note Name: G4
Note OFF: Time 169800, Note Name: A#4
Note OFF: Time 169800, Note Name: D#4
Note ON: Time 169800, Note Name: G4, Velocity: 81
Note ON: Time 169800, Note Name: A#4, Velocity: 81
Note ON: Time 169800, Note Name: G5, Velocity: 96
Note OFF: Time 170040, Note Name: G5
Note OFF: Time 170040, Note Name: D#5
Note OFF: Time 170040, Note Name: G4
Note OFF: Time 170040, Note Name: A#4
Note ON: Time 170040, Note Name: A#4, Velocity: 85
Note ON: Time 170040, Note Name: G5, Velocity: 85
Note ON: Time 170040, Note Name: A#5, Velocity: 101
Note OFF: Time 170400, Note Name: A#5
Note OFF: Time 170400, Note Name: G5
Note OFF: Time 170400, Note Name: A#4
Note ON: Time 170400, Note Name: D#5, Velocity: 83
Note ON: Time 170400, Note Name: G5, Velocity: 83
Note ON: Time 170400, Note Name: D#6, Velocity: 99
Note OFF: Time 170520, Note Name: G5
Note OFF: Time 170520, Note Name: D#5
Note ON: Time 170520, Note Name: D#5, Velocity: 84
Note ON: Time 170520, Note Name: G5, Velocity: 100
Note OFF: Time 170880, Note Name: G5
Note OFF: Time 170880, Note Name: D#5
Note ON: Time 170880, Note Name: D#5, Velocity: 81
Note ON: Time 170880, Note Name: G4, Velocity: 81
Note ON: Time 170880, Note Name: G5, Velocity: 96
Note OFF: Time 171000, Note Name: G4
Note OFF: Time 171000, Note Name: D#5
Note ON: Time 171000, Note Name: G4, Velocity: 81
Note ON: Time 171000, Note Name: D#5, Velocity: 81
Note OFF: Time 171240, Note Name: D#5
Note OFF: Time 171240, Note Name: G5
Note OFF: Time 171240, Note Name: D#6
Note OFF: Time 171240, Note Name: G4
Note ON: Time 171240, Note Name: C5, Velocity: 78
Note ON: Time 171240, Note Name: C6, Velocity: 92
Note ON: Time 171240, Note Name: G5, Velocity: 78
Note OFF: Time 171360, Note Name: G5
Note OFF: Time 171360, Note Name: C6
Note OFF: Time 171360, Note Name: C5
Note ON: Time 171480, Note Name: A#4, Velocity: 85
Note ON: Time 171480, Note Name: G5, Velocity: 85
Note ON: Time 171480, Note Name: A#5, Velocity: 102
Note OFF: Time 171960, Note Name: A#5
Note OFF: Time 171960, Note Name: G5
Note OFF: Time 171960, Note Name: A#4
Note ON: Time 172200, Note Name: A#3, Velocity: 83
Note ON: Time 172200, Note Name: A#4, Velocity: 98
Note OFF: Time 172260, Note Name: A#4
Note OFF: Time 172260, Note Name: A#3
Note ON: Time 172320, Note Name: A#3, Velocity: 83
Note ON: Time 172320, Note Name: A#4, Velocity: 98
Note OFF: Time 172380, Note Name: A#4
Note OFF: Time 172380, Note Name: A#3
Note ON: Time 172440, Note Name: A#3, Velocity: 89
Note ON: Time 172440, Note Name: A#4, Velocity: 106
Note ON: Time 172440, Note Name: G#4, Velocity: 89
Note OFF: Time 172560, Note Name: G#4
Note OFF: Time 172560, Note Name: A#4
Note OFF: Time 172560, Note Name: A#3
Note ON: Time 172680, Note Name: F4, Velocity: 86
Note ON: Time 172680, Note Name: G#4, Velocity: 86
Note ON: Time 172680, Note Name: A#4, Velocity: 86
Note ON: Time 172680, Note Name: F5, Velocity: 101
Note OFF: Time 172800, Note Name: F5
Note OFF: Time 172800, Note Name: F4
Note OFF: Time 172800, Note Name: G#4
Note OFF: Time 172800, Note Name: A#4
Note ON: Time 172920, Note Name: D#4, Velocity: 83
Note ON: Time 172920, Note Name: G4, Velocity: 94
Note ON: Time 172920, Note Name: D#5, Velocity: 111
Note OFF: Time 173040, Note Name: D#5
Note OFF: Time 173040, Note Name: G4
Note OFF: Time 173040, Note Name: D#4
Note ON: Time 173160, Note Name: D#4, Velocity: 67
Note ON: Time 173160, Note Name: D#5, Velocity: 79
Note OFF: Time 173220, Note Name: D#5
Note OFF: Time 173220, Note Name: D#4
Note ON: Time 173280, Note Name: D#4, Velocity: 63
Note ON: Time 173280, Note Name: D#5, Velocity: 75
Note OFF: Time 173340, Note Name: D#5
Note OFF: Time 173340, Note Name: D#4
Note ON: Time 173400, Note Name: D#4, Velocity: 68
Note ON: Time 173400, Note Name: D#5, Velocity: 81
Note OFF: Time 173640, Note Name: D#5
Note OFF: Time 173640, Note Name: D#4
Note ON: Time 173640, Note Name: D#4, Velocity: 66
Note ON: Time 173640, Note Name: D#5, Velocity: 78
Note OFF: Time 173700, Note Name: D#5
Note OFF: Time 173700, Note Name: D#4
Note ON: Time 173760, Note Name: D#4, Velocity: 62
Note ON: Time 173760, Note Name: D#5, Velocity: 73
Note OFF: Time 173820, Note Name: D#5
Note OFF: Time 173820, Note Name: D#4
Note ON: Time 173880, Note Name: D#4, Velocity: 67
Note ON: Time 173880, Note Name: D#5, Velocity: 79
Note OFF: Time 174120, Note Name: D#5
Note OFF: Time 174120, Note Name: D#4
Note ON: Time 174120, Note Name: D#4, Velocity: 62
Note ON: Time 174120, Note Name: D#5, Velocity: 74
Note OFF: Time 174180, Note Name: D#5
Note OFF: Time 174180, Note Name: D#4
Note ON: Time 174240, Note Name: D#4, Velocity: 60
Note ON: Time 174240, Note Name: D#5, Velocity: 71
Note OFF: Time 174300, Note Name: D#5
Note OFF: Time 174300, Note Name: D#4
Note ON: Time 174360, Note Name: C#4, Velocity: 51
Note ON: Time 174360, Note Name: D#4, Velocity: 51
Note ON: Time 174360, Note Name: D#5, Velocity: 81
Note OFF: Time 174600, Note Name: D#4
Note OFF: Time 174600, Note Name: C#4
Note ON: Time 174600, Note Name: D#4, Velocity: 55
Note OFF: Time 174660, Note Name: D#4
Note ON: Time 174720, Note Name: D#4, Velocity: 54
Note OFF: Time 174780, Note Name: D#4
Note OFF: Time 174840, Note Name: D#5
Note ON: Time 174840, Note Name: D#4, Velocity: 54
Note ON: Time 174840, Note Name: A#4, Velocity: 71
Note OFF: Time 175080, Note Name: D#4
Note ON: Time 175080, Note Name: D#4, Velocity: 54
Note OFF: Time 175140, Note Name: D#4
Note ON: Time 175200, Note Name: D#4, Velocity: 53
Note OFF: Time 175260, Note Name: D#4
Note OFF: Time 175320, Note Name: A#4
Note ON: Time 175320, Note Name: C4, Velocity: 58
Note ON: Time 175320, Note Name: F#4, Velocity: 58
Note ON: Time 175320, Note Name: C5, Velocity: 68
Note OFF: Time 175560, Note Name: C5
Note OFF: Time 175560, Note Name: F#4
Note OFF: Time 175560, Note Name: C4
Note ON: Time 175560, Note Name: F#4, Velocity: 56
Note ON: Time 175560, Note Name: F5, Velocity: 66
Note OFF: Time 175680, Note Name: F5
Note OFF: Time 175680, Note Name: F#4
Note ON: Time 175680, Note Name: F#4, Velocity: 54
Note ON: Time 175680, Note Name: D#5, Velocity: 64
Note OFF: Time 175800, Note Name: D#5
Note OFF: Time 175800, Note Name: F#4
Note ON: Time 175800, Note Name: F4, Velocity: 57
Note ON: Time 175800, Note Name: D#5, Velocity: 68
Note OFF: Time 175920, Note Name: D#5
Note ON: Time 175920, Note Name: C#5, Velocity: 64
Note OFF: Time 176040, Note Name: C#5
Note OFF: Time 176040, Note Name: F4
Note ON: Time 176040, Note Name: F4, Velocity: 54
Note ON: Time 176040, Note Name: C#5, Velocity: 64
Note OFF: Time 176100, Note Name: C#5
Note OFF: Time 176100, Note Name: F4
Note ON: Time 176160, Note Name: F4, Velocity: 49
Note ON: Time 176160, Note Name: C5, Velocity: 59
Note OFF: Time 176220, Note Name: C5
Note OFF: Time 176220, Note Name: F4
Note ON: Time 176280, Note Name: F4, Velocity: 52
Note ON: Time 176280, Note Name: A#4, Velocity: 62
Note OFF: Time 176520, Note Name: F4
Note ON: Time 176520, Note Name: F4, Velocity: 53
Note OFF: Time 176628, Note Name: F4
Note ON: Time 176640, Note Name: F4, Velocity: 53
Note OFF: Time 176748, Note Name: F4
Note OFF: Time 176760, Note Name: A#4
Note ON: Time 176760, Note Name: C4, Velocity: 54
Note ON: Time 176760, Note Name: E4, Velocity: 54
Note ON: Time 176760, Note Name: C5, Velocity: 64
Note OFF: Time 177000, Note Name: E4
Note OFF: Time 177000, Note Name: C4
Note ON: Time 177000, Note Name: C4, Velocity: 54
Note ON: Time 177000, Note Name: E4, Velocity: 54
Note OFF: Time 177108, Note Name: E4
Note OFF: Time 177108, Note Name: C4
Note ON: Time 177120, Note Name: C4, Velocity: 53
Note ON: Time 177120, Note Name: E4, Velocity: 53
Note OFF: Time 177228, Note Name: E4
Note OFF: Time 177228, Note Name: C4
Note OFF: Time 177240, Note Name: C5
Note ON: Time 177240, Note Name: F4, Velocity: 57
Note ON: Time 177240, Note Name: C4, Velocity: 57
Note ON: Time 177240, Note Name: A#4, Velocity: 68
Note OFF: Time 177360, Note Name: A#4
Note ON: Time 177360, Note Name: G#4, Velocity: 64
Note OFF: Time 177480, Note Name: G#4
Note OFF: Time 177480, Note Name: C4
Note OFF: Time 177480, Note Name: F4
Note ON: Time 177480, Note Name: C4, Velocity: 54
Note ON: Time 177480, Note Name: G#4, Velocity: 64
Note OFF: Time 177540, Note Name: G#4
Note OFF: Time 177540, Note Name: C4
Note ON: Time 177600, Note Name: C4, Velocity: 49
Note ON: Time 177600, Note Name: G4, Velocity: 59
Note OFF: Time 177660, Note Name: G4
Note OFF: Time 177660, Note Name: C4
Note ON: Time 177720, Note Name: C4, Velocity: 52
Note ON: Time 177720, Note Name: F4, Velocity: 62
Note OFF: Time 177960, Note Name: C4
Note ON: Time 177960, Note Name: C4, Velocity: 50
Note ON: Time 177960, Note Name: D4, Velocity: 50
Note OFF: Time 178068, Note Name: D4
Note OFF: Time 178068, Note Name: C4
Note ON: Time 178080, Note Name: C4, Velocity: 50
Note ON: Time 178080, Note Name: D4, Velocity: 50
Note OFF: Time 178188, Note Name: D4
Note OFF: Time 178188, Note Name: C4
Note OFF: Time 178200, Note Name: F4
Note ON: Time 178200, Note Name: B3, Velocity: 54
Note ON: Time 178200, Note Name: D4, Velocity: 54
Note ON: Time 178200, Note Name: G4, Velocity: 64
Note OFF: Time 178440, Note Name: D4
Note OFF: Time 178440, Note Name: B3
Note ON: Time 178440, Note Name: B3, Velocity: 51
Note ON: Time 178440, Note Name: D4, Velocity: 51
Note OFF: Time 178548, Note Name: D4
Note OFF: Time 178548, Note Name: B3
Note ON: Time 178560, Note Name: B3, Velocity: 50
Note ON: Time 178560, Note Name: D4, Velocity: 50
Note OFF: Time 178668, Note Name: D4
Note OFF: Time 178668, Note Name: B3
Note OFF: Time 178680, Note Name: G4
Note ON: Time 178680, Note Name: C4, Velocity: 47
Note ON: Time 178680, Note Name: D#4, Velocity: 56
Note OFF: Time 178740, Note Name: D#4
Note ON: Time 178740, Note Name: F4, Velocity: 56
Note OFF: Time 178800, Note Name: F4
Note ON: Time 178800, Note Name: D#4, Velocity: 62
Note OFF: Time 178920, Note Name: D#4
Note OFF: Time 178920, Note Name: C4
Note ON: Time 178920, Note Name: B3, Velocity: 49
Note ON: Time 178920, Note Name: D4, Velocity: 58
Note OFF: Time 179040, Note Name: D4
Note OFF: Time 179040, Note Name: B3
Note ON: Time 179040, Note Name: C4, Velocity: 49
Note ON: Time 179040, Note Name: D#4, Velocity: 59
Note OFF: Time 179160, Note Name: D#4
Note OFF: Time 179160, Note Name: C4
Note ON: Time 179160, Note Name: F4, Velocity: 56
Note ON: Time 179160, Note Name: D4, Velocity: 47
Note OFF: Time 179220, Note Name: F4
Note ON: Time 179220, Note Name: G4, Velocity: 56
Note OFF: Time 179280, Note Name: G4
Note ON: Time 179280, Note Name: F4, Velocity: 62
Note OFF: Time 179400, Note Name: F4
Note OFF: Time 179400, Note Name: D4
Note ON: Time 179400, Note Name: C4, Velocity: 49
Note ON: Time 179400, Note Name: D#4, Velocity: 58
Note OFF: Time 179520, Note Name: D#4
Note OFF: Time 179520, Note Name: C4
Note ON: Time 179520, Note Name: D4, Velocity: 59
Note ON: Time 179520, Note Name: F4, Velocity: 59
Note OFF: Time 179640, Note Name: F4
Note OFF: Time 179640, Note Name: D4
Note ON: Time 179640, Note Name: G3, Velocity: 54
Note ON: Time 179640, Note Name: G4, Velocity: 64
Note ON: Time 179640, Note Name: D#4, Velocity: 54
Note OFF: Time 179880, Note Name: D#4
Note OFF: Time 179880, Note Name: G3
Note ON: Time 179880, Note Name: D#4, Velocity: 51
Note ON: Time 179880, Note Name: G3, Velocity: 51
Note OFF: Time 179988, Note Name: G3
Note OFF: Time 179988, Note Name: D#4
Note ON: Time 180000, Note Name: D#4, Velocity: 50
Note ON: Time 180000, Note Name: G3, Velocity: 50
Note OFF: Time 180108, Note Name: G3
Note OFF: Time 180108, Note Name: D#4
Note OFF: Time 180120, Note Name: G4
Note ON: Time 180120, Note Name: D5, Velocity: 51
Note ON: Time 180120, Note Name: F4, Velocity: 51
Note ON: Time 180120, Note Name: G4, Velocity: 51
Note ON: Time 180120, Note Name: G5, Velocity: 81
Note OFF: Time 180360, Note Name: G4
Note OFF: Time 180360, Note Name: D5
Note OFF: Time 180360, Note Name: F4
Note ON: Time 180360, Note Name: G4, Velocity: 55
Note ON: Time 180360, Note Name: F4, Velocity: 55
Note OFF: Time 180468, Note Name: F4
Note OFF: Time 180468, Note Name: G4
Note ON: Time 180480, Note Name: G4, Velocity: 54
Note ON: Time 180480, Note Name: F4, Velocity: 54
Note OFF: Time 180588, Note Name: F4
Note OFF: Time 180588, Note Name: G4
Note OFF: Time 180600, Note Name: G5
Note ON: Time 180600, Note Name: G4, Velocity: 54
Note ON: Time 180600, Note Name: F4, Velocity: 54
Note ON: Time 180600, Note Name: D5, Velocity: 71
Note OFF: Time 180840, Note Name: F4
Note OFF: Time 180840, Note Name: G4
Note ON: Time 180840, Note Name: G4, Velocity: 54
Note ON: Time 180840, Note Name: F4, Velocity: 54
Note OFF: Time 180948, Note Name: F4
Note OFF: Time 180948, Note Name: G4
Note ON: Time 180960, Note Name: G4, Velocity: 53
Note ON: Time 180960, Note Name: F4, Velocity: 53
Note OFF: Time 181068, Note Name: F4
Note OFF: Time 181068, Note Name: G4
Note OFF: Time 181080, Note Name: D5
Note ON: Time 181080, Note Name: A#4, Velocity: 58
Note ON: Time 181080, Note Name: E4, Velocity: 58
Note ON: Time 181080, Note Name: C5, Velocity: 58
Note ON: Time 181080, Note Name: E5, Velocity: 68
Note OFF: Time 181320, Note Name: C5
Note OFF: Time 181320, Note Name: A#4
Note OFF: Time 181320, Note Name: E4
Note ON: Time 181320, Note Name: A#4, Velocity: 56
Note ON: Time 181320, Note Name: E4, Velocity: 56
Note ON: Time 181320, Note Name: C5, Velocity: 56
Note OFF: Time 181428, Note Name: C5
Note OFF: Time 181428, Note Name: E4
Note OFF: Time 181428, Note Name: A#4
Note ON: Time 181440, Note Name: A#4, Velocity: 57
Note ON: Time 181440, Note Name: E4, Velocity: 54
Note ON: Time 181440, Note Name: C5, Velocity: 57
Note OFF: Time 181548, Note Name: C5
Note OFF: Time 181548, Note Name: E4
Note OFF: Time 181548, Note Name: A#4
Note OFF: Time 181560, Note Name: E5
Note ON: Time 181560, Note Name: G#4, Velocity: 57
Note ON: Time 181560, Note Name: C5, Velocity: 57
Note ON: Time 181560, Note Name: G5, Velocity: 68
Note OFF: Time 181680, Note Name: G5
Note ON: Time 181680, Note Name: F5, Velocity: 64
Note OFF: Time 181800, Note Name: F5
Note OFF: Time 181800, Note Name: C5
Note OFF: Time 181800, Note Name: G#4
Note ON: Time 181800, Note Name: G#4, Velocity: 54
Note ON: Time 181800, Note Name: C5, Velocity: 54
Note ON: Time 181800, Note Name: F5, Velocity: 64
Note OFF: Time 181860, Note Name: F5
Note OFF: Time 181860, Note Name: C5
Note OFF: Time 181860, Note Name: G#4
Note ON: Time 181920, Note Name: G#4, Velocity: 49
Note ON: Time 181920, Note Name: C5, Velocity: 49
Note ON: Time 181920, Note Name: D#5, Velocity: 59
Note OFF: Time 181980, Note Name: D#5
Note OFF: Time 181980, Note Name: C5
Note OFF: Time 181980, Note Name: G#4
Note ON: Time 182040, Note Name: C5, Velocity: 52
Note ON: Time 182040, Note Name: G#4, Velocity: 44
Note ON: Time 182040, Note Name: F4, Velocity: 44
Note ON: Time 182040, Note Name: D5, Velocity: 62
Note OFF: Time 182280, Note Name: F4
Note OFF: Time 182280, Note Name: C5
Note OFF: Time 182280, Note Name: G#4
Note ON: Time 182280, Note Name: C5, Velocity: 53
Note ON: Time 182280, Note Name: G#4, Velocity: 53
Note ON: Time 182280, Note Name: F4, Velocity: 53
Note OFF: Time 182388, Note Name: F4
Note OFF: Time 182388, Note Name: G#4
Note OFF: Time 182388, Note Name: C5
Note ON: Time 182400, Note Name: C5, Velocity: 53
Note ON: Time 182400, Note Name: G#4, Velocity: 53
Note ON: Time 182400, Note Name: F4, Velocity: 53
Note OFF: Time 182508, Note Name: F4
Note OFF: Time 182508, Note Name: G#4
Note OFF: Time 182508, Note Name: C5
Note OFF: Time 182520, Note Name: D5
Note ON: Time 182520, Note Name: A#4, Velocity: 54
Note ON: Time 182520, Note Name: C5, Velocity: 54
Note ON: Time 182520, Note Name: E5, Velocity: 64
Note OFF: Time 182760, Note Name: C5
Note OFF: Time 182760, Note Name: A#4
Note ON: Time 182760, Note Name: A#4, Velocity: 54
Note ON: Time 182760, Note Name: C5, Velocity: 54
Note OFF: Time 182868, Note Name: C5
Note OFF: Time 182868, Note Name: A#4
Note ON: Time 182880, Note Name: A#4, Velocity: 53
Note ON: Time 182880, Note Name: C5, Velocity: 53
Note OFF: Time 182988, Note Name: C5
Note OFF: Time 182988, Note Name: A#4
Note OFF: Time 183000, Note Name: E5
Note ON: Time 183000, Note Name: G#4, Velocity: 54
Note ON: Time 183000, Note Name: C5, Velocity: 54
Note ON: Time 183000, Note Name: G5, Velocity: 64
Note OFF: Time 183120, Note Name: G5
Note ON: Time 183120, Note Name: F5, Velocity: 61
Note OFF: Time 183240, Note Name: F5
Note OFF: Time 183240, Note Name: C5
Note OFF: Time 183240, Note Name: G#4
Note ON: Time 183240, Note Name: G#4, Velocity: 51
Note ON: Time 183240, Note Name: C5, Velocity: 51
Note ON: Time 183240, Note Name: F5, Velocity: 60
Note OFF: Time 183300, Note Name: F5
Note OFF: Time 183300, Note Name: C5
Note OFF: Time 183300, Note Name: G#4
Note ON: Time 183360, Note Name: G#4, Velocity: 44
Note ON: Time 183360, Note Name: C5, Velocity: 44
Note ON: Time 183360, Note Name: D#5, Velocity: 54
Note OFF: Time 183420, Note Name: D#5
Note OFF: Time 183420, Note Name: C5
Note OFF: Time 183420, Note Name: G#4
Note ON: Time 183480, Note Name: G#4, Velocity: 51
Note ON: Time 183480, Note Name: D#5, Velocity: 61
Note OFF: Time 183600, Note Name: D#5
Note ON: Time 183600, Note Name: D5, Velocity: 56
Note OFF: Time 183720, Note Name: D5
Note OFF: Time 183720, Note Name: G#4
Note ON: Time 183720, Note Name: F4, Velocity: 46
Note ON: Time 183720, Note Name: G#4, Velocity: 46
Note ON: Time 183720, Note Name: D5, Velocity: 56
Note OFF: Time 183780, Note Name: D5
Note OFF: Time 183780, Note Name: G#4
Note OFF: Time 183780, Note Name: F4
Note ON: Time 183840, Note Name: F4, Velocity: 42
Note ON: Time 183840, Note Name: G#4, Velocity: 42
Note ON: Time 183840, Note Name: C5, Velocity: 51
Note OFF: Time 183900, Note Name: C5
Note OFF: Time 183900, Note Name: G#4
Note OFF: Time 183900, Note Name: F4
Note ON: Time 183960, Note Name: F4, Velocity: 49
Note ON: Time 183960, Note Name: C5, Velocity: 57
Note OFF: Time 184080, Note Name: C5
Note ON: Time 184080, Note Name: A#4, Velocity: 53
Note OFF: Time 184200, Note Name: A#4
Note OFF: Time 184200, Note Name: F4
Note ON: Time 184200, Note Name: D4, Velocity: 42
Note ON: Time 184200, Note Name: F4, Velocity: 42
Note ON: Time 184200, Note Name: A#4, Velocity: 51
Note OFF: Time 184260, Note Name: A#4
Note OFF: Time 184260, Note Name: F4
Note OFF: Time 184260, Note Name: D4
Note ON: Time 184320, Note Name: D4, Velocity: 38
Note ON: Time 184320, Note Name: F4, Velocity: 38
Note ON: Time 184320, Note Name: G#4, Velocity: 45
Note OFF: Time 184380, Note Name: G#4
Note OFF: Time 184380, Note Name: F4
Note OFF: Time 184380, Note Name: D4
Note ON: Time 184440, Note Name: B3, Velocity: 39
Note ON: Time 184440, Note Name: D4, Velocity: 39
Note ON: Time 184440, Note Name: G4, Velocity: 47
Note OFF: Time 184560, Note Name: G4
Note OFF: Time 184560, Note Name: D4
Note OFF: Time 184560, Note Name: B3
Note ON: Time 184680, Note Name: D#4, Velocity: 33
Note ON: Time 184680, Note Name: C4, Velocity: 33
Note ON: Time 184680, Note Name: G4, Velocity: 39
Note OFF: Time 184800, Note Name: G4
Note OFF: Time 184800, Note Name: C4
Note OFF: Time 184800, Note Name: D#4
Note ON: Time 184800, Note Name: C4, Velocity: 32
Note ON: Time 184800, Note Name: A3, Velocity: 32
Note ON: Time 184800, Note Name: G4, Velocity: 38
Note OFF: Time 184920, Note Name: G4
Note OFF: Time 184920, Note Name: A3
Note OFF: Time 184920, Note Name: C4
Note ON: Time 184920, Note Name: B3, Velocity: 31
Note ON: Time 184920, Note Name: D4, Velocity: 31
Note ON: Time 184920, Note Name: G4, Velocity: 44
Note OFF: Time 185040, Note Name: G4
Note OFF: Time 185040, Note Name: D4
Note OFF: Time 185040, Note Name: B3
Note ON: Time 185160, Note Name: D#4, Velocity: 30
Note ON: Time 185160, Note Name: C4, Velocity: 30
Note ON: Time 185160, Note Name: G4, Velocity: 36
Note OFF: Time 185280, Note Name: G4
Note OFF: Time 185280, Note Name: C4
Note OFF: Time 185280, Note Name: D#4
Note ON: Time 185280, Note Name: C4, Velocity: 29
Note ON: Time 185280, Note Name: A3, Velocity: 29
Note ON: Time 185280, Note Name: G4, Velocity: 35
Note OFF: Time 185400, Note Name: G4
Note OFF: Time 185400, Note Name: A3
Note OFF: Time 185400, Note Name: C4
Note ON: Time 185400, Note Name: D4, Velocity: 34
Note ON: Time 185400, Note Name: G4, Velocity: 34
Note ON: Time 185400, Note Name: B3, Velocity: 28
Note OFF: Time 185520, Note Name: B3
Note OFF: Time 185520, Note Name: G4
Note OFF: Time 185520, Note Name: D4
Note ON: Time 185640, Note Name: D5, Velocity: 50
Note OFF: Time 186000, Note Name: D5
Note ON: Time 186000, Note Name: C5, Velocity: 39
Note OFF: Time 186120, Note Name: C5
Note ON: Time 186120, Note Name: B4, Velocity: 38
Note OFF: Time 186240, Note Name: B4
Note ON: Time 186240, Note Name: A4, Velocity: 37
Note OFF: Time 186360, Note Name: A4
Note ON: Time 186360, Note Name: G#4, Velocity: 36
Note OFF: Time 186480, Note Name: G#4
Note ON: Time 186480, Note Name: A4, Velocity: 36
Note OFF: Time 186600, Note Name: A4
Note ON: Time 186600, Note Name: B4, Velocity: 36
Note OFF: Time 186720, Note Name: B4
Note ON: Time 186720, Note Name: C5, Velocity: 36
Note OFF: Time 186840, Note Name: C5
Note ON: Time 186840, Note Name: C#5, Velocity: 36
Note OFF: Time 186960, Note Name: C#5
Note ON: Time 186960, Note Name: D5, Velocity: 36
Note OFF: Time 187080, Note Name: D5
Note ON: Time 187080, Note Name: G5, Velocity: 40
Note OFF: Time 187200, Note Name: G5
Note ON: Time 187200, Note Name: E5, Velocity: 36
Note OFF: Time 187320, Note Name: E5
Note ON: Time 187320, Note Name: C#5, Velocity: 36
Note OFF: Time 187440, Note Name: C#5
Note ON: Time 187440, Note Name: D5, Velocity: 38
Note OFF: Time 187560, Note Name: D5
Note ON: Time 187560, Note Name: F#5, Velocity: 40
Note OFF: Time 187680, Note Name: F#5
Note ON: Time 187680, Note Name: E5, Velocity: 38
Note OFF: Time 187800, Note Name: E5
Note ON: Time 187800, Note Name: D5, Velocity: 36
Note OFF: Time 187920, Note Name: D5
Note ON: Time 187920, Note Name: C5, Velocity: 36
Note OFF: Time 188040, Note Name: C5
Note ON: Time 188040, Note Name: E4, Velocity: 36
Note OFF: Time 188160, Note Name: E4
Note ON: Time 188160, Note Name: F#4, Velocity: 36
Note OFF: Time 188280, Note Name: F#4
Note ON: Time 188280, Note Name: G4, Velocity: 32
Note OFF: Time 188310, Note Name: G4
Note ON: Time 188310, Note Name: A4, Velocity: 32
Note OFF: Time 188340, Note Name: A4
Note ON: Time 188340, Note Name: G4, Velocity: 36
Note OFF: Time 188400, Note Name: G4
Note ON: Time 188400, Note Name: F#4, Velocity: 36
Note OFF: Time 188520, Note Name: F#4
Note ON: Time 188520, Note Name: G4, Velocity: 35
Note OFF: Time 188640, Note Name: G4
Note ON: Time 188640, Note Name: G#4, Velocity: 36
Note OFF: Time 188760, Note Name: G#4
Note ON: Time 188760, Note Name: A4, Velocity: 36
Note OFF: Time 188880, Note Name: A4
Note ON: Time 188880, Note Name: F#5, Velocity: 40
Note OFF: Time 189000, Note Name: F#5
Note ON: Time 189000, Note Name: E5, Velocity: 37
Note OFF: Time 189120, Note Name: E5
Note ON: Time 189120, Note Name: D5, Velocity: 36
Note OFF: Time 189240, Note Name: D5
Note ON: Time 189240, Note Name: C#5, Velocity: 38
Note OFF: Time 189360, Note Name: C#5
Note ON: Time 189360, Note Name: F#5, Velocity: 37
Note OFF: Time 189480, Note Name: F#5
Note ON: Time 189480, Note Name: G5, Velocity: 39
Note OFF: Time 189600, Note Name: G5
Note ON: Time 189600, Note Name: A5, Velocity: 40
Note OFF: Time 189720, Note Name: A5
Note ON: Time 189720, Note Name: C6, Velocity: 42
Note OFF: Time 189840, Note Name: C6
Note ON: Time 189840, Note Name: A#5, Velocity: 40
Note OFF: Time 189960, Note Name: A#5
Note ON: Time 189960, Note Name: G5, Velocity: 38
Note OFF: Time 190080, Note Name: G5
Note ON: Time 190080, Note Name: C#5, Velocity: 36
Note OFF: Time 190200, Note Name: C#5
Note ON: Time 190200, Note Name: D5, Velocity: 44
Note OFF: Time 190380, Note Name: D5
Note ON: Time 190380, Note Name: E5, Velocity: 36
Note OFF: Time 190440, Note Name: E5
Note ON: Time 190440, Note Name: D5, Velocity: 44
Note OFF: Time 190620, Note Name: D5
Note ON: Time 190620, Note Name: D#5, Velocity: 36
Note OFF: Time 190680, Note Name: D#5
Note ON: Time 190680, Note Name: D5, Velocity: 44
Note OFF: Time 190860, Note Name: D5
Note ON: Time 190860, Note Name: E5, Velocity: 36
Note OFF: Time 190920, Note Name: E5
Note ON: Time 190920, Note Name: D5, Velocity: 44
Note OFF: Time 191100, Note Name: D5
Note ON: Time 191100, Note Name: D#5, Velocity: 36
Note OFF: Time 191160, Note Name: D#5
Note ON: Time 191160, Note Name: D5, Velocity: 44
Note OFF: Time 191340, Note Name: D5
Note ON: Time 191340, Note Name: E5, Velocity: 36
Note OFF: Time 191400, Note Name: E5
Note ON: Time 191400, Note Name: D5, Velocity: 44
Note OFF: Time 191580, Note Name: D5
Note ON: Time 191580, Note Name: D#5, Velocity: 36
Note OFF: Time 191640, Note Name: D#5
Note ON: Time 191640, Note Name: D5, Velocity: 40
Note OFF: Time 191760, Note Name: D5
Note ON: Time 191760, Note Name: C5, Velocity: 39
Note OFF: Time 191880, Note Name: C5
Note ON: Time 191880, Note Name: A#4, Velocity: 38
Note OFF: Time 192000, Note Name: A#4
Note ON: Time 192000, Note Name: A4, Velocity: 36
Note OFF: Time 192120, Note Name: A4
Note ON: Time 192120, Note Name: G#4, Velocity: 36
Note OFF: Time 192240, Note Name: G#4
Note ON: Time 192240, Note Name: A4, Velocity: 36
Note OFF: Time 192360, Note Name: A4
Note ON: Time 192360, Note Name: A#4, Velocity: 36
Note OFF: Time 192480, Note Name: A#4
Note ON: Time 192480, Note Name: C5, Velocity: 36
Note OFF: Time 192600, Note Name: C5
Note ON: Time 192600, Note Name: C#5, Velocity: 36
Note OFF: Time 192720, Note Name: C#5
Note ON: Time 192720, Note Name: D5, Velocity: 39
Note OFF: Time 192840, Note Name: D5
Note ON: Time 192840, Note Name: G5, Velocity: 47
Note OFF: Time 192900, Note Name: G5
Note ON: Time 192960, Note Name: F#5, Velocity: 40
Note OFF: Time 193020, Note Name: F#5
Note ON: Time 193080, Note Name: F5, Velocity: 47
Note OFF: Time 193140, Note Name: F5
Note ON: Time 193200, Note Name: E5, Velocity: 40
Note OFF: Time 193260, Note Name: E5
Note ON: Time 193320, Note Name: D#5, Velocity: 39
Note OFF: Time 193380, Note Name: D#5
Note ON: Time 193440, Note Name: D5, Velocity: 38
Note OFF: Time 193500, Note Name: D5
Note ON: Time 193560, Note Name: C#5, Velocity: 36
Note OFF: Time 193680, Note Name: C#5
Note ON: Time 193680, Note Name: C5, Velocity: 36
Note OFF: Time 193800, Note Name: C5
Note ON: Time 193800, Note Name: A4, Velocity: 36
Note OFF: Time 193920, Note Name: A4
Note ON: Time 193920, Note Name: A#4, Velocity: 36
Note OFF: Time 194040, Note Name: A#4
Note ON: Time 194040, Note Name: G4, Velocity: 32
Note OFF: Time 194070, Note Name: G4
Note ON: Time 194070, Note Name: A4, Velocity: 32
Note OFF: Time 194100, Note Name: A4
Note ON: Time 194100, Note Name: G4, Velocity: 36
Note OFF: Time 194160, Note Name: G4
Note ON: Time 194160, Note Name: F#4, Velocity: 41
Note OFF: Time 194280, Note Name: F#4
Note ON: Time 194280, Note Name: G4, Velocity: 35
Note OFF: Time 194400, Note Name: G4
Note ON: Time 194400, Note Name: A4, Velocity: 40
Note OFF: Time 194520, Note Name: A4
Note ON: Time 194520, Note Name: A#4, Velocity: 50
Note OFF: Time 194640, Note Name: A#4
Note ON: Time 194640, Note Name: A#5, Velocity: 54
Note OFF: Time 194760, Note Name: A#5
Note ON: Time 194760, Note Name: A5, Velocity: 51
Note OFF: Time 194880, Note Name: A5
Note ON: Time 194880, Note Name: G5, Velocity: 49
Note OFF: Time 195000, Note Name: G5
Note ON: Time 195000, Note Name: A5, Velocity: 56
Note OFF: Time 195120, Note Name: A5
Note ON: Time 195120, Note Name: G5, Velocity: 55
Note OFF: Time 195240, Note Name: G5
Note ON: Time 195240, Note Name: F5, Velocity: 53
Note OFF: Time 195360, Note Name: F5
Note ON: Time 195360, Note Name: D#5, Velocity: 51
Note OFF: Time 195480, Note Name: D#5
Note ON: Time 195480, Note Name: F5, Velocity: 53
Note OFF: Time 195600, Note Name: F5
Note ON: Time 195600, Note Name: D#5, Velocity: 51
Note OFF: Time 195720, Note Name: D#5
Note ON: Time 195720, Note Name: A#4, Velocity: 48
Note OFF: Time 195840, Note Name: A#4
Note ON: Time 195840, Note Name: C5, Velocity: 45
Note OFF: Time 195960, Note Name: C5
Note ON: Time 195960, Note Name: D5, Velocity: 46
Note OFF: Time 196020, Note Name: D5
Note ON: Time 196020, Note Name: D#5, Velocity: 43
Note OFF: Time 196080, Note Name: D#5
Note ON: Time 196080, Note Name: D5, Velocity: 46
Note OFF: Time 196140, Note Name: D5
Note ON: Time 196140, Note Name: D#5, Velocity: 44
Note OFF: Time 196200, Note Name: D#5
Note ON: Time 196200, Note Name: D5, Velocity: 46
Note OFF: Time 196260, Note Name: D5
Note ON: Time 196260, Note Name: D#5, Velocity: 46
Note OFF: Time 196320, Note Name: D#5
Note ON: Time 196320, Note Name: D5, Velocity: 47
Note OFF: Time 196360, Note Name: D5
Note ON: Time 196360, Note Name: C#5, Velocity: 46
Note OFF: Time 196400, Note Name: C#5
Note ON: Time 196400, Note Name: D5, Velocity: 46
Note OFF: Time 196440, Note Name: D5
Note ON: Time 196440, Note Name: D#5, Velocity: 50
Note OFF: Time 196500, Note Name: D#5
Note ON: Time 196500, Note Name: F5, Velocity: 47
Note OFF: Time 196560, Note Name: F5
Note ON: Time 196560, Note Name: D#5, Velocity: 51
Note OFF: Time 196620, Note Name: D#5
Note ON: Time 196620, Note Name: F5, Velocity: 47
Note OFF: Time 196680, Note Name: F5
Note ON: Time 196680, Note Name: D#5, Velocity: 52
Note OFF: Time 196740, Note Name: D#5
Note ON: Time 196740, Note Name: F5, Velocity: 49
Note OFF: Time 196800, Note Name: F5
Note ON: Time 196800, Note Name: D#5, Velocity: 54
Note OFF: Time 196840, Note Name: D#5
Note ON: Time 196840, Note Name: D5, Velocity: 51
Note OFF: Time 196880, Note Name: D5
Note ON: Time 196880, Note Name: D#5, Velocity: 51
Note OFF: Time 196920, Note Name: D#5
Note ON: Time 196920, Note Name: E5, Velocity: 58
Note OFF: Time 196980, Note Name: E5
Note ON: Time 196980, Note Name: F5, Velocity: 52
Note OFF: Time 197040, Note Name: F5
Note ON: Time 197040, Note Name: E5, Velocity: 56
Note OFF: Time 197100, Note Name: E5
Note ON: Time 197100, Note Name: F5, Velocity: 53
Note OFF: Time 197160, Note Name: F5
Note ON: Time 197160, Note Name: E5, Velocity: 60
Note OFF: Time 197220, Note Name: E5
Note ON: Time 197220, Note Name: F5, Velocity: 55
Note OFF: Time 197280, Note Name: F5
Note ON: Time 197280, Note Name: E5, Velocity: 61
Note OFF: Time 197320, Note Name: E5
Note ON: Time 197320, Note Name: D#5, Velocity: 57
Note OFF: Time 197360, Note Name: D#5
Note ON: Time 197360, Note Name: E5, Velocity: 57
Note OFF: Time 197400, Note Name: E5
Note ON: Time 197400, Note Name: F5, Velocity: 64
Note OFF: Time 197520, Note Name: F5
Note ON: Time 197520, Note Name: D#5, Velocity: 51
Note OFF: Time 197640, Note Name: D#5
Note ON: Time 197640, Note Name: C#5, Velocity: 51
Note OFF: Time 197760, Note Name: C#5
Note ON: Time 197760, Note Name: C5, Velocity: 54
Note OFF: Time 197880, Note Name: C5
Note ON: Time 197880, Note Name: B4, Velocity: 45
Note OFF: Time 198000, Note Name: B4
Note ON: Time 198000, Note Name: C5, Velocity: 48
Note OFF: Time 198120, Note Name: C5
Note ON: Time 198120, Note Name: C#5, Velocity: 45
Note OFF: Time 198240, Note Name: C#5
Note ON: Time 198240, Note Name: D#5, Velocity: 46
Note OFF: Time 198360, Note Name: D#5
Note ON: Time 198360, Note Name: E5, Velocity: 54
Note OFF: Time 198480, Note Name: E5
Note ON: Time 198480, Note Name: F5, Velocity: 49
Note OFF: Time 198600, Note Name: F5
Note ON: Time 198600, Note Name: A#5, Velocity: 59
Note OFF: Time 198720, Note Name: A#5
Note ON: Time 198720, Note Name: A5, Velocity: 55
Note OFF: Time 198840, Note Name: A5
Note ON: Time 198840, Note Name: G#5, Velocity: 59
Note OFF: Time 198960, Note Name: G#5
Note ON: Time 198960, Note Name: G5, Velocity: 48
Note OFF: Time 199080, Note Name: G5
Note ON: Time 199080, Note Name: F#5, Velocity: 51
Note OFF: Time 199200, Note Name: F#5
Note ON: Time 199200, Note Name: F5, Velocity: 54
Note OFF: Time 199320, Note Name: F5
Note ON: Time 199320, Note Name: E5, Velocity: 50
Note OFF: Time 199440, Note Name: E5
Note ON: Time 199440, Note Name: D#5, Velocity: 47
Note OFF: Time 199560, Note Name: D#5
Note ON: Time 199560, Note Name: C#5, Velocity: 51
Note OFF: Time 199680, Note Name: C#5
Note ON: Time 199680, Note Name: C5, Velocity: 49
Note OFF: Time 199800, Note Name: C5
Note ON: Time 199800, Note Name: A#4, Velocity: 41
Note OFF: Time 199830, Note Name: A#4
Note ON: Time 199830, Note Name: C5, Velocity: 41
Note OFF: Time 199860, Note Name: C5
Note ON: Time 199860, Note Name: A#4, Velocity: 50
Note OFF: Time 199920, Note Name: A#4
Note ON: Time 199920, Note Name: A4, Velocity: 45
Note OFF: Time 200040, Note Name: A4
Note ON: Time 200040, Note Name: A#4, Velocity: 50
Note OFF: Time 200160, Note Name: A#4
Note ON: Time 200160, Note Name: C5, Velocity: 45
Note OFF: Time 200280, Note Name: C5
Note ON: Time 200280, Note Name: C#5, Velocity: 49
Note OFF: Time 200400, Note Name: C#5
Note ON: Time 200400, Note Name: C#6, Velocity: 57
Note OFF: Time 200520, Note Name: C#6
Note ON: Time 200520, Note Name: C6, Velocity: 53
Note OFF: Time 200640, Note Name: C6
Note ON: Time 200640, Note Name: A#5, Velocity: 51
Note OFF: Time 200760, Note Name: A#5
Note ON: Time 200760, Note Name: C6, Velocity: 56
Note OFF: Time 200880, Note Name: C6
Note ON: Time 200880, Note Name: A#5, Velocity: 55
Note OFF: Time 201000, Note Name: A#5
Note ON: Time 201000, Note Name: G#5, Velocity: 53
Note OFF: Time 201120, Note Name: G#5
Note ON: Time 201120, Note Name: F#5, Velocity: 51
Note OFF: Time 201240, Note Name: F#5
Note ON: Time 201240, Note Name: G#5, Velocity: 53
Note OFF: Time 201360, Note Name: G#5
Note ON: Time 201360, Note Name: F#5, Velocity: 51
Note OFF: Time 201480, Note Name: F#5
Note ON: Time 201480, Note Name: C#5, Velocity: 48
Note OFF: Time 201600, Note Name: C#5
Note ON: Time 201600, Note Name: D#5, Velocity: 45
Note OFF: Time 201720, Note Name: D#5
Note ON: Time 201720, Note Name: F5, Velocity: 46
Note OFF: Time 201800, Note Name: F5
Note ON: Time 201800, Note Name: F#5, Velocity: 44
Note OFF: Time 201880, Note Name: F#5
Note ON: Time 201880, Note Name: F5, Velocity: 43
Note OFF: Time 201960, Note Name: F5
Note ON: Time 201960, Note Name: E5, Velocity: 45
Note OFF: Time 202040, Note Name: E5
Note ON: Time 202040, Note Name: F5, Velocity: 42
Note OFF: Time 202120, Note Name: F5
Note ON: Time 202120, Note Name: F#5, Velocity: 43
Note OFF: Time 202200, Note Name: F#5
Note ON: Time 202200, Note Name: F5, Velocity: 43
Note OFF: Time 202280, Note Name: F5
Note ON: Time 202280, Note Name: F#5, Velocity: 43
Note OFF: Time 202360, Note Name: F#5
Note ON: Time 202360, Note Name: F5, Velocity: 41
Note OFF: Time 202440, Note Name: F5
Note ON: Time 202440, Note Name: E5, Velocity: 43
Note OFF: Time 202520, Note Name: E5
Note ON: Time 202520, Note Name: F5, Velocity: 40
Note OFF: Time 202600, Note Name: F5
Note ON: Time 202600, Note Name: F#5, Velocity: 40
Note OFF: Time 202680, Note Name: F#5
Note ON: Time 202680, Note Name: F5, Velocity: 42
Note OFF: Time 202760, Note Name: F5
Note ON: Time 202760, Note Name: F#5, Velocity: 39
Note OFF: Time 202840, Note Name: F#5
Note ON: Time 202840, Note Name: F5, Velocity: 38
Note OFF: Time 202920, Note Name: F5
Note ON: Time 202920, Note Name: E5, Velocity: 41
Note OFF: Time 203000, Note Name: E5
Note ON: Time 203000, Note Name: F5, Velocity: 39
Note OFF: Time 203080, Note Name: F5
Note ON: Time 203080, Note Name: F#5, Velocity: 38
Note OFF: Time 203160, Note Name: F#5
Note ON: Time 203160, Note Name: F5, Velocity: 43
Note OFF: Time 203280, Note Name: F5
Note ON: Time 203280, Note Name: D#5, Velocity: 41
Note OFF: Time 203400, Note Name: D#5
Note ON: Time 203400, Note Name: C#5, Velocity: 40
Note OFF: Time 203520, Note Name: C#5
Note ON: Time 203520, Note Name: C5, Velocity: 39
Note OFF: Time 203640, Note Name: C5
Note ON: Time 203640, Note Name: B4, Velocity: 38
Note OFF: Time 203760, Note Name: B4
Note ON: Time 203760, Note Name: C5, Velocity: 38
Note OFF: Time 203880, Note Name: C5
Note ON: Time 203880, Note Name: C#5, Velocity: 38
Note OFF: Time 204000, Note Name: C#5
Note ON: Time 204000, Note Name: D#5, Velocity: 39
Note OFF: Time 204120, Note Name: D#5
Note ON: Time 204120, Note Name: E5, Velocity: 39
Note OFF: Time 204240, Note Name: E5
Note ON: Time 204240, Note Name: F5, Velocity: 39
Note OFF: Time 204360, Note Name: F5
Note ON: Time 204360, Note Name: A#5, Velocity: 43
Note OFF: Time 204420, Note Name: A#5
Note ON: Time 204540, Note Name: A5, Velocity: 42
Note OFF: Time 204600, Note Name: A5
Note ON: Time 204600, Note Name: G#5, Velocity: 49
Note OFF: Time 204660, Note Name: G#5
Note ON: Time 204720, Note Name: G5, Velocity: 43
Note OFF: Time 204780, Note Name: G5
Note ON: Time 204840, Note Name: F#5, Velocity: 41
Note OFF: Time 204900, Note Name: F#5
Note ON: Time 204960, Note Name: F5, Velocity: 40
Note OFF: Time 205020, Note Name: F5
Note ON: Time 205080, Note Name: E5, Velocity: 39
Note OFF: Time 205200, Note Name: E5
Note ON: Time 205200, Note Name: D#5, Velocity: 39
Note OFF: Time 205320, Note Name: D#5
Note ON: Time 205320, Note Name: C5, Velocity: 38
Note OFF: Time 205440, Note Name: C5
Note ON: Time 205440, Note Name: C#5, Velocity: 38
Note OFF: Time 205560, Note Name: C#5
Note ON: Time 205560, Note Name: A#4, Velocity: 34
Note OFF: Time 205590, Note Name: A#4
Note ON: Time 205590, Note Name: C5, Velocity: 34
Note OFF: Time 205620, Note Name: C5
Note ON: Time 205620, Note Name: A#4, Velocity: 38
Note OFF: Time 205680, Note Name: A#4
Note ON: Time 205680, Note Name: A4, Velocity: 38
Note OFF: Time 205800, Note Name: A4
Note ON: Time 205800, Note Name: A#4, Velocity: 37
Note OFF: Time 205920, Note Name: A#4
Note ON: Time 205920, Note Name: C#5, Velocity: 38
Note OFF: Time 206040, Note Name: C#5
Note ON: Time 206040, Note Name: C5, Velocity: 47
Note OFF: Time 206160, Note Name: C5
Note ON: Time 206160, Note Name: A#4, Velocity: 41
Note OFF: Time 206280, Note Name: A#4
Note ON: Time 206280, Note Name: G#4, Velocity: 40
Note OFF: Time 206400, Note Name: G#4
Note ON: Time 206400, Note Name: G4, Velocity: 39
Note OFF: Time 206520, Note Name: G4
Note ON: Time 206520, Note Name: F#4, Velocity: 38
Note OFF: Time 206640, Note Name: F#4
Note ON: Time 206640, Note Name: G4, Velocity: 38
Note OFF: Time 206760, Note Name: G4
Note ON: Time 206760, Note Name: G#4, Velocity: 38
Note OFF: Time 206880, Note Name: G#4
Note ON: Time 206880, Note Name: A#4, Velocity: 39
Note OFF: Time 207000, Note Name: A#4
Note ON: Time 207000, Note Name: B4, Velocity: 39
Note OFF: Time 207120, Note Name: B4
Note ON: Time 207120, Note Name: C5, Velocity: 47
Note OFF: Time 207240, Note Name: C5
Note ON: Time 207240, Note Name: F5, Velocity: 43
Note OFF: Time 207360, Note Name: F5
Note ON: Time 207360, Note Name: C#5, Velocity: 42
Note OFF: Time 207480, Note Name: C#5
Note ON: Time 207480, Note Name: C5, Velocity: 47
Note OFF: Time 207600, Note Name: C5
Note ON: Time 207600, Note Name: A#4, Velocity: 41
Note OFF: Time 207720, Note Name: A#4
Note ON: Time 207720, Note Name: G#4, Velocity: 40
Note OFF: Time 207840, Note Name: G#4
Note ON: Time 207840, Note Name: G4, Velocity: 39
Note OFF: Time 207960, Note Name: G4
Note ON: Time 207960, Note Name: F#4, Velocity: 38
Note OFF: Time 208080, Note Name: F#4
Note ON: Time 208080, Note Name: G4, Velocity: 45
Note OFF: Time 208200, Note Name: G4
Note ON: Time 208200, Note Name: C5, Velocity: 47
Note OFF: Time 208320, Note Name: C5
Note ON: Time 208320, Note Name: B4, Velocity: 39
Note OFF: Time 208440, Note Name: B4
Note ON: Time 208440, Note Name: A#4, Velocity: 39
Note OFF: Time 208560, Note Name: A#4
Note ON: Time 208560, Note Name: G#4, Velocity: 39
Note OFF: Time 208680, Note Name: G#4
Note ON: Time 208680, Note Name: G4, Velocity: 39
Note OFF: Time 208800, Note Name: G4
Note ON: Time 208800, Note Name: F4, Velocity: 38
Note OFF: Time 208920, Note Name: F4
Note ON: Time 208920, Note Name: E4, Velocity: 43
Note OFF: Time 209040, Note Name: E4
Note ON: Time 209040, Note Name: C5, Velocity: 49
Note OFF: Time 209160, Note Name: C5
Note ON: Time 209160, Note Name: A#4, Velocity: 40
Note OFF: Time 209280, Note Name: A#4
Note ON: Time 209280, Note Name: G#4, Velocity: 39
Note OFF: Time 209400, Note Name: G#4
Note ON: Time 209400, Note Name: F#4, Velocity: 38
Note OFF: Time 209520, Note Name: F#4
Note ON: Time 209520, Note Name: G4, Velocity: 38
Note OFF: Time 209640, Note Name: G4
Note ON: Time 209640, Note Name: G#4, Velocity: 38
Note OFF: Time 209760, Note Name: G#4
Note ON: Time 209760, Note Name: A#4, Velocity: 39
Note OFF: Time 209880, Note Name: A#4
Note ON: Time 209880, Note Name: B4, Velocity: 39
Note OFF: Time 210000, Note Name: B4
Note ON: Time 210000, Note Name: C5, Velocity: 49
Note OFF: Time 210120, Note Name: C5
Note ON: Time 210120, Note Name: F5, Velocity: 43
Note OFF: Time 210240, Note Name: F5
Note ON: Time 210240, Note Name: C#5, Velocity: 42
Note OFF: Time 210360, Note Name: C#5
Note ON: Time 210360, Note Name: C5, Velocity: 48
Note OFF: Time 210480, Note Name: C5
Note ON: Time 210480, Note Name: A#4, Velocity: 41
Note OFF: Time 210600, Note Name: A#4
Note ON: Time 210600, Note Name: G#4, Velocity: 40
Note OFF: Time 210720, Note Name: G#4
Note ON: Time 210720, Note Name: G4, Velocity: 39
Note OFF: Time 210840, Note Name: G4
Note ON: Time 210840, Note Name: F#4, Velocity: 38
Note OFF: Time 210960, Note Name: F#4
Note ON: Time 210960, Note Name: G4, Velocity: 38
Note OFF: Time 211080, Note Name: G4
Note ON: Time 211080, Note Name: C5, Velocity: 45
Note OFF: Time 211200, Note Name: C5
Note ON: Time 211200, Note Name: B4, Velocity: 39
Note OFF: Time 211320, Note Name: B4
Note ON: Time 211320, Note Name: A#4, Velocity: 39
Note OFF: Time 211440, Note Name: A#4
Note ON: Time 211440, Note Name: G#4, Velocity: 39
Note OFF: Time 211560, Note Name: G#4
Note ON: Time 211560, Note Name: G4, Velocity: 39
Note OFF: Time 211680, Note Name: G4
Note ON: Time 211680, Note Name: F4, Velocity: 38
Note OFF: Time 211800, Note Name: F4
Note ON: Time 211800, Note Name: E4, Velocity: 43
Note OFF: Time 211920, Note Name: E4
Note ON: Time 211920, Note Name: C5, Velocity: 46
Note OFF: Time 212040, Note Name: C5
Note ON: Time 212040, Note Name: A#4, Velocity: 40
Note OFF: Time 212160, Note Name: A#4
Note ON: Time 212160, Note Name: G#4, Velocity: 39
Note OFF: Time 212280, Note Name: G#4
Note ON: Time 212280, Note Name: F#4, Velocity: 38
Note OFF: Time 212400, Note Name: F#4
Note ON: Time 212400, Note Name: G4, Velocity: 38
Note OFF: Time 212520, Note Name: G4
Note ON: Time 212520, Note Name: G#4, Velocity: 38
Note OFF: Time 212640, Note Name: G#4
Note ON: Time 212640, Note Name: A#4, Velocity: 39
Note OFF: Time 212760, Note Name: A#4
Note ON: Time 212760, Note Name: B4, Velocity: 39
Note OFF: Time 212880, Note Name: B4
Note ON: Time 212880, Note Name: C5, Velocity: 49
Note OFF: Time 213000, Note Name: C5
Note ON: Time 213000, Note Name: D#5, Velocity: 43
Note OFF: Time 213120, Note Name: D#5
Note ON: Time 213120, Note Name: C#5, Velocity: 42
Note OFF: Time 213240, Note Name: C#5
Note ON: Time 213240, Note Name: C5, Velocity: 50
Note OFF: Time 213360, Note Name: C5
Note ON: Time 213360, Note Name: A#4, Velocity: 41
Note OFF: Time 213480, Note Name: A#4
Note ON: Time 213480, Note Name: G#4, Velocity: 40
Note OFF: Time 213600, Note Name: G#4
Note ON: Time 213600, Note Name: G4, Velocity: 39
Note OFF: Time 213720, Note Name: G4
Note ON: Time 213720, Note Name: F#4, Velocity: 36
Note OFF: Time 213840, Note Name: F#4
Note ON: Time 213840, Note Name: G4, Velocity: 37
Note OFF: Time 213960, Note Name: G4
Note ON: Time 213960, Note Name: G#4, Velocity: 38
Note OFF: Time 214080, Note Name: G#4
Note ON: Time 214080, Note Name: A#4, Velocity: 39
Note OFF: Time 214200, Note Name: A#4
Note ON: Time 214200, Note Name: B4, Velocity: 39
Note OFF: Time 214320, Note Name: B4
Note ON: Time 214320, Note Name: C5, Velocity: 48
Note OFF: Time 214440, Note Name: C5
Note ON: Time 214440, Note Name: C#5, Velocity: 40
Note OFF: Time 214560, Note Name: C#5
Note ON: Time 214560, Note Name: B4, Velocity: 38
Note OFF: Time 214680, Note Name: B4
Note ON: Time 214680, Note Name: C5, Velocity: 49
Note OFF: Time 214800, Note Name: C5
Note ON: Time 214800, Note Name: A#4, Velocity: 41
Note OFF: Time 214920, Note Name: A#4
Note ON: Time 214920, Note Name: G#4, Velocity: 40
Note OFF: Time 215040, Note Name: G#4
Note ON: Time 215040, Note Name: G4, Velocity: 39
Note OFF: Time 215160, Note Name: G4
Note ON: Time 215160, Note Name: F#4, Velocity: 36
Note OFF: Time 215280, Note Name: F#4
Note ON: Time 215280, Note Name: G4, Velocity: 37
Note OFF: Time 215400, Note Name: G4
Note ON: Time 215400, Note Name: G#4, Velocity: 38
Note OFF: Time 215520, Note Name: G#4
Note ON: Time 215520, Note Name: A#4, Velocity: 39
Note OFF: Time 215640, Note Name: A#4
Note ON: Time 215640, Note Name: B4, Velocity: 39
Note OFF: Time 215760, Note Name: B4
Note ON: Time 215760, Note Name: C5, Velocity: 50
Note OFF: Time 215880, Note Name: C5
Note ON: Time 215880, Note Name: D#5, Velocity: 40
Note OFF: Time 216000, Note Name: D#5
Note ON: Time 216000, Note Name: C#5, Velocity: 38
Note OFF: Time 216120, Note Name: C#5
Note ON: Time 216120, Note Name: C5, Velocity: 49
Note OFF: Time 216240, Note Name: C5
Note ON: Time 216240, Note Name: A#4, Velocity: 41
Note OFF: Time 216360, Note Name: A#4
Note ON: Time 216360, Note Name: G#4, Velocity: 40
Note OFF: Time 216480, Note Name: G#4
Note ON: Time 216480, Note Name: G4, Velocity: 39
Note OFF: Time 216600, Note Name: G4
Note ON: Time 216600, Note Name: F#4, Velocity: 36
Note OFF: Time 216720, Note Name: F#4
Note ON: Time 216720, Note Name: G4, Velocity: 37
Note OFF: Time 216840, Note Name: G4
Note ON: Time 216840, Note Name: G#4, Velocity: 38
Note OFF: Time 216960, Note Name: G#4
Note ON: Time 216960, Note Name: A#4, Velocity: 39
Note OFF: Time 217080, Note Name: A#4
Note ON: Time 217080, Note Name: B4, Velocity: 39
Note OFF: Time 217200, Note Name: B4
Note ON: Time 217200, Note Name: C5, Velocity: 50
Note OFF: Time 217320, Note Name: C5
Note ON: Time 217320, Note Name: C#5, Velocity: 40
Note OFF: Time 217440, Note Name: C#5
Note ON: Time 217440, Note Name: B4, Velocity: 38
Note OFF: Time 217560, Note Name: B4
Note ON: Time 217560, Note Name: C5, Velocity: 50
Note OFF: Time 217680, Note Name: C5
Note ON: Time 217680, Note Name: A#4, Velocity: 44
Note OFF: Time 217800, Note Name: A#4
Note ON: Time 217800, Note Name: G#4, Velocity: 43
Note OFF: Time 217920, Note Name: G#4
Note ON: Time 217920, Note Name: G4, Velocity: 42
Note OFF: Time 218040, Note Name: G4
Note ON: Time 218040, Note Name: F#4, Velocity: 45
Note OFF: Time 218160, Note Name: F#4
Note ON: Time 218160, Note Name: G4, Velocity: 46
Note OFF: Time 218280, Note Name: G4
Note ON: Time 218280, Note Name: G#4, Velocity: 50
Note OFF: Time 218400, Note Name: G#4
Note ON: Time 218400, Note Name: A#4, Velocity: 55
Note OFF: Time 218520, Note Name: A#4
Note ON: Time 218520, Note Name: G#4, Velocity: 57
Note OFF: Time 218640, Note Name: G#4
Note ON: Time 218640, Note Name: G4, Velocity: 57
Note OFF: Time 218760, Note Name: G4
Note ON: Time 218760, Note Name: F4, Velocity: 57
Note OFF: Time 218880, Note Name: F4
Note ON: Time 218880, Note Name: E4, Velocity: 59
Note OFF: Time 219000, Note Name: E4
Note ON: Time 219000, Note Name: D#4, Velocity: 58
Note OFF: Time 219120, Note Name: D#4
Note ON: Time 219120, Note Name: E4, Velocity: 61
Note OFF: Time 219240, Note Name: E4
Note ON: Time 219240, Note Name: F4, Velocity: 63
Note OFF: Time 219360, Note Name: F4
Note ON: Time 219360, Note Name: G4, Velocity: 65
Note OFF: Time 219480, Note Name: G4
Note ON: Time 219480, Note Name: C#4, Velocity: 74
Note ON: Time 219600, Note Name: G4, Velocity: 66
Note OFF: Time 219720, Note Name: G4
Note OFF: Time 219720, Note Name: C#4
Note ON: Time 219720, Note Name: C4, Velocity: 71
Note ON: Time 219840, Note Name: G4, Velocity: 63
Note OFF: Time 219960, Note Name: G4
Note OFF: Time 219960, Note Name: C4
Note ON: Time 219960, Note Name: B3, Velocity: 60
Note OFF: Time 220080, Note Name: B3
Note ON: Time 220080, Note Name: C4, Velocity: 63
Note OFF: Time 220200, Note Name: C4
Note ON: Time 220200, Note Name: C#4, Velocity: 65
Note OFF: Time 220320, Note Name: C#4
Note ON: Time 220320, Note Name: D#4, Velocity: 68
Note OFF: Time 220440, Note Name: D#4
Note ON: Time 220440, Note Name: C#4, Velocity: 70
Note OFF: Time 220560, Note Name: C#4
Note ON: Time 220560, Note Name: C4, Velocity: 68
Note OFF: Time 220680, Note Name: C4
Note ON: Time 220680, Note Name: A#3, Velocity: 67
Note OFF: Time 220800, Note Name: A#3
Note ON: Time 220800, Note Name: G#3, Velocity: 65
Note OFF: Time 220920, Note Name: G#3
Note ON: Time 220920, Note Name: G3, Velocity: 76
Note ON: Time 221040, Note Name: C4, Velocity: 69
Note OFF: Time 221160, Note Name: C4
Note ON: Time 221160, Note Name: A#3, Velocity: 70
Note OFF: Time 221280, Note Name: A#3
Note OFF: Time 221280, Note Name: G3
Note ON: Time 221280, Note Name: F#3, Velocity: 70
Note OFF: Time 221400, Note Name: F#3
Note ON: Time 221400, Note Name: F3, Velocity: 73
Note ON: Time 221520, Note Name: C4, Velocity: 70
Note OFF: Time 221640, Note Name: C4
Note ON: Time 221640, Note Name: A#3, Velocity: 70
Note OFF: Time 221760, Note Name: A#3
Note OFF: Time 221760, Note Name: F3
Note ON: Time 221760, Note Name: E3, Velocity: 70
Note OFF: Time 221880, Note Name: E3
Note ON: Time 221880, Note Name: D#3, Velocity: 79
Note ON: Time 222000, Note Name: G#3, Velocity: 72
Note OFF: Time 222120, Note Name: G#3
Note ON: Time 222120, Note Name: G3, Velocity: 74
Note OFF: Time 222240, Note Name: G3
Note OFF: Time 222240, Note Name: D#3
Note ON: Time 222240, Note Name: D#3, Velocity: 75
Note OFF: Time 222360, Note Name: D#3
Note ON: Time 222360, Note Name: C#3, Velocity: 82
Note ON: Time 222480, Note Name: G3, Velocity: 78
Note OFF: Time 222600, Note Name: G3
Note ON: Time 222600, Note Name: F3, Velocity: 81
Note OFF: Time 222720, Note Name: F3
Note OFF: Time 222720, Note Name: C#3
Note ON: Time 222720, Note Name: C#3, Velocity: 82
Note OFF: Time 222840, Note Name: C#3
Note ON: Time 222840, Note Name: C3, Velocity: 88
Note ON: Time 222960, Note Name: D#3, Velocity: 82
Note OFF: Time 223080, Note Name: D#3
Note OFF: Time 223080, Note Name: C3
Note ON: Time 223080, Note Name: A#2, Velocity: 84
Note ON: Time 223200, Note Name: D#3, Velocity: 86
Note OFF: Time 223320, Note Name: D#3
Note OFF: Time 223320, Note Name: A#2
Note ON: Time 223320, Note Name: F5, Velocity: 82
Note ON: Time 223320, Note Name: C#6, Velocity: 88
Note ON: Time 223320, Note Name: F6, Velocity: 102
Note OFF: Time 223680, Note Name: F6
Note OFF: Time 223680, Note Name: C#6
Note OFF: Time 223680, Note Name: F5
Note ON: Time 223680, Note Name: D#5, Velocity: 79
Note ON: Time 223680, Note Name: C6, Velocity: 79
Note ON: Time 223680, Note Name: D#6, Velocity: 93
Note OFF: Time 223788, Note Name: D#6
Note OFF: Time 223788, Note Name: C6
Note OFF: Time 223788, Note Name: D#5
Note ON: Time 223800, Note Name: D#5, Velocity: 79
Note ON: Time 223800, Note Name: C6, Velocity: 79
Note ON: Time 223800, Note Name: D#6, Velocity: 93
Note ON: Time 223980, Note Name: D#4, Velocity: 71
Note OFF: Time 224040, Note Name: D#4
Note OFF: Time 224040, Note Name: D#5
Note OFF: Time 224040, Note Name: C6
Note OFF: Time 224040, Note Name: D#6
Note ON: Time 224040, Note Name: D#4, Velocity: 71
Note OFF: Time 224088, Note Name: D#4
Note ON: Time 224088, Note Name: F4, Velocity: 71
Note OFF: Time 224136, Note Name: F4
Note ON: Time 224136, Note Name: D#4, Velocity: 71
Note OFF: Time 224184, Note Name: D#4
Note ON: Time 224184, Note Name: D4, Velocity: 71
Note OFF: Time 224232, Note Name: D4
Note ON: Time 224232, Note Name: D#4, Velocity: 71
Note OFF: Time 224280, Note Name: D#4
Note ON: Time 224280, Note Name: G#4, Velocity: 87
Note OFF: Time 224400, Note Name: G#4
Note ON: Time 224520, Note Name: C5, Velocity: 74
Note ON: Time 224520, Note Name: G#5, Velocity: 74
Note ON: Time 224520, Note Name: C6, Velocity: 88
Note OFF: Time 224640, Note Name: C6
Note OFF: Time 224640, Note Name: G#5
Note OFF: Time 224640, Note Name: C5
Note ON: Time 224640, Note Name: C#5, Velocity: 73
Note ON: Time 224640, Note Name: A#5, Velocity: 73
Note ON: Time 224640, Note Name: C#6, Velocity: 86
Note OFF: Time 224760, Note Name: C#6
Note OFF: Time 224760, Note Name: A#5
Note OFF: Time 224760, Note Name: C#5
Note ON: Time 224760, Note Name: F5, Velocity: 79
Note ON: Time 224760, Note Name: C#6, Velocity: 79
Note ON: Time 224760, Note Name: F6, Velocity: 93
Note OFF: Time 224880, Note Name: F6
Note OFF: Time 224880, Note Name: C#6
Note OFF: Time 224880, Note Name: F5
Note ON: Time 224940, Note Name: D#5, Velocity: 74
Note ON: Time 224940, Note Name: C6, Velocity: 74
Note ON: Time 224940, Note Name: D#6, Velocity: 88
Note OFF: Time 224994, Note Name: D#6
Note OFF: Time 224994, Note Name: C6
Note OFF: Time 224994, Note Name: D#5
Note ON: Time 225000, Note Name: D#5, Velocity: 74
Note ON: Time 225000, Note Name: C6, Velocity: 74
Note ON: Time 225000, Note Name: D#6, Velocity: 93
Note OFF: Time 225120, Note Name: D#6
Note OFF: Time 225120, Note Name: C6
Note OFF: Time 225120, Note Name: D#5
Note ON: Time 225120, Note Name: D5, Velocity: 74
Note ON: Time 225120, Note Name: B5, Velocity: 74
Note ON: Time 225120, Note Name: D6, Velocity: 88
Note OFF: Time 225240, Note Name: D6
Note OFF: Time 225240, Note Name: B5
Note OFF: Time 225240, Note Name: D5
Note ON: Time 225240, Note Name: D#5, Velocity: 74
Note ON: Time 225240, Note Name: C6, Velocity: 74
Note ON: Time 225240, Note Name: D#6, Velocity: 88
Note ON: Time 225420, Note Name: D#4, Velocity: 70
Note OFF: Time 225480, Note Name: D#4
Note OFF: Time 225480, Note Name: D#5
Note OFF: Time 225480, Note Name: C6
Note OFF: Time 225480, Note Name: D#6
Note ON: Time 225480, Note Name: D#4, Velocity: 70
Note OFF: Time 225528, Note Name: D#4
Note ON: Time 225528, Note Name: F4, Velocity: 70
Note OFF: Time 225576, Note Name: F4
Note ON: Time 225576, Note Name: D#4, Velocity: 70
Note OFF: Time 225624, Note Name: D#4
Note ON: Time 225624, Note Name: D4, Velocity: 70
Note OFF: Time 225672, Note Name: D4
Note ON: Time 225672, Note Name: D#4, Velocity: 70
Note OFF: Time 225720, Note Name: D#4
Note ON: Time 225720, Note Name: G#4, Velocity: 87
Note OFF: Time 225840, Note Name: G#4
Note ON: Time 225960, Note Name: C6, Velocity: 88
Note ON: Time 225960, Note Name: C5, Velocity: 74
Note ON: Time 225960, Note Name: G#5, Velocity: 74
Note OFF: Time 226080, Note Name: G#5
Note OFF: Time 226080, Note Name: C5
Note OFF: Time 226080, Note Name: C6
Note ON: Time 226080, Note Name: C#6, Velocity: 86
Note ON: Time 226080, Note Name: C#5, Velocity: 73
Note ON: Time 226080, Note Name: A#5, Velocity: 73
Note OFF: Time 226200, Note Name: A#5
Note OFF: Time 226200, Note Name: C#5
Note OFF: Time 226200, Note Name: C#6
Note ON: Time 226200, Note Name: C#6, Velocity: 79
Note ON: Time 226200, Note Name: F6, Velocity: 93
Note ON: Time 226200, Note Name: F5, Velocity: 79
Note OFF: Time 226320, Note Name: F5
Note OFF: Time 226320, Note Name: F6
Note OFF: Time 226320, Note Name: C#6
Note ON: Time 226320, Note Name: D#5, Velocity: 74
Note ON: Time 226320, Note Name: C6, Velocity: 74
Note ON: Time 226320, Note Name: D#6, Velocity: 88
Note OFF: Time 226380, Note Name: D#6
Note ON: Time 226380, Note Name: F6, Velocity: 81
Note OFF: Time 226440, Note Name: F6
Note ON: Time 226440, Note Name: D#6, Velocity: 93
Note OFF: Time 226560, Note Name: D#6
Note OFF: Time 226560, Note Name: C6
Note OFF: Time 226560, Note Name: D#5
Note ON: Time 226560, Note Name: B5, Velocity: 74
Note ON: Time 226560, Note Name: D6, Velocity: 88
Note ON: Time 226560, Note Name: D5, Velocity: 74
Note OFF: Time 226680, Note Name: D5
Note OFF: Time 226680, Note Name: D6
Note OFF: Time 226680, Note Name: B5
Note ON: Time 226680, Note Name: C#6, Velocity: 79
Note ON: Time 226680, Note Name: F6, Velocity: 93
Note ON: Time 226680, Note Name: F5, Velocity: 79
Note OFF: Time 226800, Note Name: F5
Note OFF: Time 226800, Note Name: F6
Note OFF: Time 226800, Note Name: C#6
Note ON: Time 226800, Note Name: C6, Velocity: 74
Note ON: Time 226800, Note Name: D#6, Velocity: 88
Note ON: Time 226800, Note Name: D#5, Velocity: 74
Note OFF: Time 226860, Note Name: D#6
Note ON: Time 226860, Note Name: F6, Velocity: 81
Note OFF: Time 226920, Note Name: F6
Note ON: Time 226920, Note Name: D#6, Velocity: 93
Note OFF: Time 227040, Note Name: D#6
Note OFF: Time 227040, Note Name: D#5
Note OFF: Time 227040, Note Name: C6
Note ON: Time 227040, Note Name: D5, Velocity: 74
Note ON: Time 227040, Note Name: B5, Velocity: 74
Note ON: Time 227040, Note Name: D6, Velocity: 88
Note OFF: Time 227160, Note Name: D6
Note OFF: Time 227160, Note Name: B5
Note OFF: Time 227160, Note Name: D5
Note ON: Time 227160, Note Name: D#5, Velocity: 74
Note ON: Time 227160, Note Name: C6, Velocity: 74
Note ON: Time 227160, Note Name: D#6, Velocity: 88
Note OFF: Time 227340, Note Name: D#6
Note OFF: Time 227340, Note Name: C6
Note OFF: Time 227340, Note Name: D#5
Note ON: Time 227340, Note Name: D#5, Velocity: 72
Note ON: Time 227370, Note Name: A#5, Velocity: 72
Note ON: Time 227400, Note Name: F#6, Velocity: 85
Note OFF: Time 227580, Note Name: F#6
Note OFF: Time 227580, Note Name: A#5
Note OFF: Time 227580, Note Name: D#5
Note ON: Time 227580, Note Name: D#5, Velocity: 70
Note ON: Time 227610, Note Name: A5, Velocity: 70
Note ON: Time 227640, Note Name: F6, Velocity: 83
Note ON: Time 227790, Note Name: C5, Velocity: 70
Note OFF: Time 227820, Note Name: F6
Note OFF: Time 227820, Note Name: D#5
Note OFF: Time 227820, Note Name: A5
Note ON: Time 227820, Note Name: D#5, Velocity: 70
Note ON: Time 227850, Note Name: F5, Velocity: 70
Note ON: Time 227880, Note Name: C6, Velocity: 83
Note OFF: Time 228060, Note Name: C6
Note OFF: Time 228060, Note Name: C5
Note OFF: Time 228060, Note Name: D#5
Note OFF: Time 228060, Note Name: F5
Note ON: Time 228060, Note Name: A#4, Velocity: 70
Note ON: Time 228090, Note Name: F5, Velocity: 70
Note ON: Time 228120, Note Name: C#6, Velocity: 83
Note OFF: Time 228300, Note Name: C#6
Note OFF: Time 228300, Note Name: F5
Note OFF: Time 228300, Note Name: A#4
Note ON: Time 228360, Note Name: F#5, Velocity: 80
Note OFF: Time 228440, Note Name: F#5
Note ON: Time 228440, Note Name: F#4, Velocity: 80
Note OFF: Time 228520, Note Name: F#4
Note ON: Time 228520, Note Name: F#5, Velocity: 80
Note OFF: Time 228600, Note Name: F#5
Note ON: Time 228600, Note Name: F4, Velocity: 71
Note ON: Time 228600, Note Name: F5, Velocity: 84
Note OFF: Time 228840, Note Name: F5
Note OFF: Time 228840, Note Name: F4
Note ON: Time 228840, Note Name: C#4, Velocity: 74
Note ON: Time 228840, Note Name: C#5, Velocity: 79
Note OFF: Time 229080, Note Name: C#5
Note OFF: Time 229080, Note Name: C#4
Note ON: Time 229080, Note Name: F#5, Velocity: 82
Note ON: Time 229080, Note Name: D#6, Velocity: 82
Note ON: Time 229080, Note Name: F#6, Velocity: 97
Note OFF: Time 229440, Note Name: F#6
Note OFF: Time 229440, Note Name: D#6
Note OFF: Time 229440, Note Name: F#5
Note ON: Time 229440, Note Name: F5, Velocity: 79
Note ON: Time 229440, Note Name: C#6, Velocity: 79
Note ON: Time 229440, Note Name: F6, Velocity: 93
Note OFF: Time 229548, Note Name: F6
Note OFF: Time 229548, Note Name: C#6
Note OFF: Time 229548, Note Name: F5
Note ON: Time 229560, Note Name: F5, Velocity: 79
Note ON: Time 229560, Note Name: C#6, Velocity: 79
Note ON: Time 229560, Note Name: F6, Velocity: 93
Note ON: Time 229740, Note Name: F4, Velocity: 71
Note OFF: Time 229800, Note Name: F4
Note OFF: Time 229800, Note Name: F5
Note OFF: Time 229800, Note Name: C#6
Note OFF: Time 229800, Note Name: F6
Note ON: Time 229800, Note Name: F4, Velocity: 71
Note OFF: Time 229848, Note Name: F4
Note ON: Time 229848, Note Name: F#4, Velocity: 71
Note OFF: Time 229896, Note Name: F#4
Note ON: Time 229896, Note Name: F4, Velocity: 71
Note OFF: Time 229944, Note Name: F4
Note ON: Time 229944, Note Name: E4, Velocity: 71
Note OFF: Time 229992, Note Name: E4
Note ON: Time 229992, Note Name: F4, Velocity: 71
Note OFF: Time 230040, Note Name: F4
Note ON: Time 230040, Note Name: A#4, Velocity: 87
Note OFF: Time 230160, Note Name: A#4
Note ON: Time 230280, Note Name: C#5, Velocity: 74
Note ON: Time 230280, Note Name: C#6, Velocity: 88
Note ON: Time 230280, Note Name: A#5, Velocity: 74
Note OFF: Time 230400, Note Name: A#5
Note OFF: Time 230400, Note Name: C#6
Note OFF: Time 230400, Note Name: C#5
Note ON: Time 230400, Note Name: D#5, Velocity: 73
Note ON: Time 230400, Note Name: C6, Velocity: 73
Note ON: Time 230400, Note Name: D#6, Velocity: 86
Note OFF: Time 230520, Note Name: D#6
Note OFF: Time 230520, Note Name: C6
Note OFF: Time 230520, Note Name: D#5
Note ON: Time 230520, Note Name: F#6, Velocity: 93
Note ON: Time 230520, Note Name: F#5, Velocity: 79
Note ON: Time 230520, Note Name: D#6, Velocity: 79
Note OFF: Time 230640, Note Name: D#6
Note OFF: Time 230640, Note Name: F#5
Note OFF: Time 230640, Note Name: F#6
Note ON: Time 230700, Note Name: F5, Velocity: 74
Note ON: Time 230700, Note Name: C#6, Velocity: 74
Note ON: Time 230700, Note Name: F6, Velocity: 88
Note OFF: Time 230754, Note Name: F6
Note OFF: Time 230754, Note Name: C#6
Note OFF: Time 230754, Note Name: F5
Note ON: Time 230760, Note Name: C#6, Velocity: 74
Note ON: Time 230760, Note Name: F5, Velocity: 74
Note ON: Time 230760, Note Name: F6, Velocity: 93
Note OFF: Time 230880, Note Name: F6
Note OFF: Time 230880, Note Name: F5
Note OFF: Time 230880, Note Name: C#6
Note ON: Time 230880, Note Name: E5, Velocity: 74
Note ON: Time 230880, Note Name: E6, Velocity: 88
Note ON: Time 230880, Note Name: C6, Velocity: 74
Note OFF: Time 231000, Note Name: C6
Note OFF: Time 231000, Note Name: E6
Note OFF: Time 231000, Note Name: E5
Note ON: Time 231000, Note Name: F5, Velocity: 88
Note ON: Time 231000, Note Name: C#6, Velocity: 74
Note ON: Time 231000, Note Name: F6, Velocity: 88
Note ON: Time 231180, Note Name: F4, Velocity: 71
Note OFF: Time 231240, Note Name: F4
Note OFF: Time 231240, Note Name: F5
Note OFF: Time 231240, Note Name: C#6
Note OFF: Time 231240, Note Name: F6
Note ON: Time 231240, Note Name: F4, Velocity: 71
Note OFF: Time 231288, Note Name: F4
Note ON: Time 231288, Note Name: F#4, Velocity: 71
Note OFF: Time 231336, Note Name: F#4
Note ON: Time 231336, Note Name: F4, Velocity: 71
Note OFF: Time 231384, Note Name: F4
Note ON: Time 231384, Note Name: E4, Velocity: 71
Note OFF: Time 231432, Note Name: E4
Note ON: Time 231432, Note Name: F4, Velocity: 71
Note OFF: Time 231480, Note Name: F4
Note ON: Time 231480, Note Name: A#4, Velocity: 87
Note OFF: Time 231720, Note Name: A#4
Note ON: Time 231720, Note Name: G5, Velocity: 81
Note ON: Time 231720, Note Name: G6, Velocity: 96
Note ON: Time 231720, Note Name: C#6, Velocity: 81
Note OFF: Time 231840, Note Name: C#6
Note OFF: Time 231840, Note Name: G6
Note OFF: Time 231840, Note Name: G5
Note ON: Time 231840, Note Name: G#5, Velocity: 80
Note ON: Time 231840, Note Name: G#6, Velocity: 94
Note OFF: Time 231960, Note Name: G#6
Note OFF: Time 231960, Note Name: G#5
Note ON: Time 231960, Note Name: C6, Velocity: 85
Note ON: Time 231960, Note Name: C7, Velocity: 101
Note OFF: Time 232080, Note Name: C7
Note OFF: Time 232080, Note Name: C6
Note ON: Time 232080, Note Name: D#6, Velocity: 74
Note ON: Time 232080, Note Name: G6, Velocity: 88
Note OFF: Time 232200, Note Name: G6
Note OFF: Time 232200, Note Name: D#6
Note ON: Time 232200, Note Name: C7, Velocity: 93
Note ON: Time 232200, Note Name: C6, Velocity: 79
Note OFF: Time 232320, Note Name: C6
Note OFF: Time 232320, Note Name: C7
Note ON: Time 232380, Note Name: A#6, Velocity: 92
Note ON: Time 232380, Note Name: A#5, Velocity: 78
Note OFF: Time 232434, Note Name: A#5
Note OFF: Time 232434, Note Name: A#6
Note ON: Time 232440, Note Name: A#5, Velocity: 81
Note ON: Time 232440, Note Name: A#6, Velocity: 97
Note OFF: Time 232560, Note Name: A#6
Note OFF: Time 232560, Note Name: A#5
Note ON: Time 232560, Note Name: C6, Velocity: 70
Note ON: Time 232560, Note Name: D#6, Velocity: 84
Note OFF: Time 232680, Note Name: D#6
Note OFF: Time 232680, Note Name: C6
Note ON: Time 232680, Note Name: A#6, Velocity: 90
Note ON: Time 232680, Note Name: A#5, Velocity: 75
Note OFF: Time 232800, Note Name: A#5
Note OFF: Time 232800, Note Name: A#6
Note ON: Time 232860, Note Name: G#5, Velocity: 68
Note ON: Time 232860, Note Name: G#6, Velocity: 80
Note OFF: Time 232914, Note Name: G#6
Note OFF: Time 232914, Note Name: G#5
Note ON: Time 232920, Note Name: G#5, Velocity: 79
Note ON: Time 232920, Note Name: G#6, Velocity: 93
Note OFF: Time 233040, Note Name: G#6
Note OFF: Time 233040, Note Name: G#5
Note ON: Time 233040, Note Name: D#6, Velocity: 79
Note ON: Time 233040, Note Name: A#5, Velocity: 67
Note OFF: Time 233160, Note Name: A#5
Note OFF: Time 233160, Note Name: D#6
Note ON: Time 233160, Note Name: G#6, Velocity: 88
Note ON: Time 233160, Note Name: G#5, Velocity: 74
Note OFF: Time 233280, Note Name: G#5
Note OFF: Time 233280, Note Name: G#6
Note ON: Time 233340, Note Name: G6, Velocity: 79
Note ON: Time 233340, Note Name: G5, Velocity: 67
Note OFF: Time 233394, Note Name: G5
Note OFF: Time 233394, Note Name: G6
Note ON: Time 233400, Note Name: G5, Velocity: 75
Note ON: Time 233400, Note Name: G6, Velocity: 90
Note OFF: Time 233520, Note Name: G6
Note OFF: Time 233520, Note Name: G5
Note ON: Time 233520, Note Name: D6, Velocity: 78
Note ON: Time 233520, Note Name: A#5, Velocity: 66
Note OFF: Time 233640, Note Name: A#5
Note OFF: Time 233640, Note Name: D6
Note ON: Time 233640, Note Name: G5, Velocity: 72
Note ON: Time 233640, Note Name: G6, Velocity: 85
Note OFF: Time 233760, Note Name: G6
Note OFF: Time 233760, Note Name: G5
Note ON: Time 233820, Note Name: F6, Velocity: 81
Note ON: Time 233820, Note Name: F5, Velocity: 68
Note OFF: Time 233874, Note Name: F5
Note OFF: Time 233874, Note Name: F6
Note ON: Time 233880, Note Name: F6, Velocity: 88
Note ON: Time 233880, Note Name: F5, Velocity: 73
Note OFF: Time 234000, Note Name: F5
Note OFF: Time 234000, Note Name: F6
Note ON: Time 234000, Note Name: A#5, Velocity: 75
Note ON: Time 234000, Note Name: G5, Velocity: 64
Note OFF: Time 234120, Note Name: G5
Note OFF: Time 234120, Note Name: A#5
Note ON: Time 234120, Note Name: F5, Velocity: 69
Note ON: Time 234120, Note Name: F6, Velocity: 82
Note OFF: Time 234240, Note Name: F6
Note OFF: Time 234240, Note Name: F5
Note ON: Time 234300, Note Name: D#5, Velocity: 64
Note ON: Time 234300, Note Name: D#6, Velocity: 75
Note OFF: Time 234360, Note Name: D#6
Note OFF: Time 234360, Note Name: D#5
Note ON: Time 234360, Note Name: C#5, Velocity: 75
Note ON: Time 234360, Note Name: C#6, Velocity: 90
Note OFF: Time 234480, Note Name: C#6
Note OFF: Time 234480, Note Name: C#5
Note ON: Time 234480, Note Name: F5, Velocity: 64
Note ON: Time 234480, Note Name: G#5, Velocity: 75
Note OFF: Time 234600, Note Name: G#5
Note OFF: Time 234600, Note Name: F5
Note ON: Time 234600, Note Name: C#6, Velocity: 84
Note ON: Time 234600, Note Name: C#5, Velocity: 70
Note OFF: Time 234720, Note Name: C#5
Note OFF: Time 234720, Note Name: C#6
Note ON: Time 234780, Note Name: C6, Velocity: 71
Note ON: Time 234780, Note Name: C5, Velocity: 61
Note OFF: Time 234840, Note Name: C5
Note OFF: Time 234840, Note Name: C6
Note ON: Time 234840, Note Name: F4, Velocity: 88
Note OFF: Time 235320, Note Name: F4
Note ON: Time 235320, Note Name: G4, Velocity: 59
Note OFF: Time 235380, Note Name: G4
Note ON: Time 235380, Note Name: G#4, Velocity: 60
Note OFF: Time 235440, Note Name: G#4
Note ON: Time 235440, Note Name: G4, Velocity: 61
Note OFF: Time 235500, Note Name: G4
Note ON: Time 235500, Note Name: G#4, Velocity: 61
Note OFF: Time 235560, Note Name: G#4
Note ON: Time 235560, Note Name: F4, Velocity: 62
Note OFF: Time 235680, Note Name: F4
Note ON: Time 235680, Note Name: G4, Velocity: 64
Note OFF: Time 235800, Note Name: G4
Note ON: Time 235800, Note Name: G#4, Velocity: 66
Note OFF: Time 235860, Note Name: G#4
Note ON: Time 235860, Note Name: A#4, Velocity: 67
Note OFF: Time 235920, Note Name: A#4
Note ON: Time 235920, Note Name: G#4, Velocity: 69
Note OFF: Time 235980, Note Name: G#4
Note ON: Time 235980, Note Name: A#4, Velocity: 70
Note OFF: Time 236040, Note Name: A#4
Note ON: Time 236040, Note Name: G4, Velocity: 71
Note OFF: Time 236160, Note Name: G4
Note ON: Time 236160, Note Name: G#4, Velocity: 73
Note OFF: Time 236280, Note Name: G#4
Note ON: Time 236280, Note Name: C#4, Velocity: 45
Note ON: Time 236280, Note Name: G4, Velocity: 54
Note ON: Time 236280, Note Name: A4, Velocity: 77
Note OFF: Time 236400, Note Name: A4
Note ON: Time 236400, Note Name: A#4, Velocity: 73
Note OFF: Time 236520, Note Name: A#4
Note OFF: Time 236520, Note Name: G4
Note OFF: Time 236520, Note Name: C#4
Note ON: Time 236520, Note Name: C#4, Velocity: 43
Note ON: Time 236520, Note Name: G4, Velocity: 51
Note ON: Time 236520, Note Name: C5, Velocity: 73
Note OFF: Time 236640, Note Name: C5
Note ON: Time 236640, Note Name: C#5, Velocity: 74
Note OFF: Time 236760, Note Name: C#5
Note OFF: Time 236760, Note Name: G4
Note OFF: Time 236760, Note Name: C#4
Note ON: Time 236760, Note Name: C4, Velocity: 57
Note ON: Time 236760, Note Name: G#4, Velocity: 68
Note ON: Time 236760, Note Name: C5, Velocity: 81
Note OFF: Time 237000, Note Name: C5
Note OFF: Time 237000, Note Name: G#4
Note OFF: Time 237000, Note Name: C4
Note ON: Time 237000, Note Name: F5, Velocity: 83
Note ON: Time 237000, Note Name: B3, Velocity: 70
Note ON: Time 237000, Note Name: D4, Velocity: 70
Note ON: Time 237000, Note Name: F4, Velocity: 70
Note ON: Time 237000, Note Name: G#4, Velocity: 70
Note OFF: Time 237180, Note Name: G#4
Note OFF: Time 237180, Note Name: D4
Note OFF: Time 237180, Note Name: F5
Note OFF: Time 237180, Note Name: B3
Note OFF: Time 237180, Note Name: F4
Note ON: Time 237180, Note Name: D#4, Velocity: 63
Note ON: Time 237180, Note Name: C4, Velocity: 63
Note ON: Time 237180, Note Name: D#5, Velocity: 75
Note ON: Time 237180, Note Name: G#4, Velocity: 63
Note OFF: Time 237234, Note Name: G#4
Note OFF: Time 237234, Note Name: D#4
Note OFF: Time 237234, Note Name: C4
Note OFF: Time 237234, Note Name: D#5
Note ON: Time 237240, Note Name: C4, Velocity: 71
Note ON: Time 237240, Note Name: D#5, Velocity: 84
Note ON: Time 237240, Note Name: D#4, Velocity: 71
Note ON: Time 237240, Note Name: G#4, Velocity: 71
Note OFF: Time 237360, Note Name: G#4
Note OFF: Time 237360, Note Name: C4
Note OFF: Time 237360, Note Name: D#5
Note OFF: Time 237360, Note Name: D#4
Note ON: Time 237360, Note Name: G#4, Velocity: 79
Note ON: Time 237480, Note Name: G#5, Velocity: 83
Note OFF: Time 237600, Note Name: G#5
Note OFF: Time 237600, Note Name: G#4
Note ON: Time 237660, Note Name: G4, Velocity: 64
Note ON: Time 237660, Note Name: G5, Velocity: 77
Note OFF: Time 237720, Note Name: G5
Note OFF: Time 237720, Note Name: G4
Note ON: Time 237720, Note Name: F4, Velocity: 64
Note ON: Time 237720, Note Name: F5, Velocity: 77
Note OFF: Time 238200, Note Name: F5
Note OFF: Time 238200, Note Name: F4
Note ON: Time 238200, Note Name: G4, Velocity: 70
Note OFF: Time 238320, Note Name: G4
Note ON: Time 238320, Note Name: G5, Velocity: 71
Note OFF: Time 238360, Note Name: G5
Note ON: Time 238360, Note Name: G#5, Velocity: 72
Note OFF: Time 238400, Note Name: G#5
Note ON: Time 238400, Note Name: G5, Velocity: 71
Note OFF: Time 238440, Note Name: G5
Note ON: Time 238440, Note Name: F4, Velocity: 61
Note ON: Time 238440, Note Name: F5, Velocity: 72
Note OFF: Time 238560, Note Name: F5
Note OFF: Time 238560, Note Name: F4
Note ON: Time 238560, Note Name: G4, Velocity: 61
Note ON: Time 238560, Note Name: G5, Velocity: 73
Note OFF: Time 238680, Note Name: G5
Note OFF: Time 238680, Note Name: G4
Note ON: Time 238680, Note Name: G#4, Velocity: 70
Note OFF: Time 238800, Note Name: G#4
Note ON: Time 238800, Note Name: G#5, Velocity: 71
Note OFF: Time 238840, Note Name: G#5
Note ON: Time 238840, Note Name: A#5, Velocity: 71
Note OFF: Time 238880, Note Name: A#5
Note ON: Time 238880, Note Name: G#5, Velocity: 71
Note OFF: Time 238920, Note Name: G#5
Note ON: Time 238920, Note Name: G4, Velocity: 66
Note ON: Time 238920, Note Name: G5, Velocity: 78
Note OFF: Time 239040, Note Name: G5
Note OFF: Time 239040, Note Name: G4
Note ON: Time 239040, Note Name: G#4, Velocity: 67
Note ON: Time 239040, Note Name: G#5, Velocity: 79
Note OFF: Time 239160, Note Name: G#5
Note OFF: Time 239160, Note Name: G#4
Note ON: Time 239160, Note Name: A4, Velocity: 49
Note ON: Time 239160, Note Name: D#5, Velocity: 69
Note ON: Time 239160, Note Name: A5, Velocity: 82
Note OFF: Time 239280, Note Name: A5
Note OFF: Time 239280, Note Name: D#5
Note OFF: Time 239280, Note Name: A4
Note ON: Time 239280, Note Name: A#4, Velocity: 69
Note ON: Time 239280, Note Name: A#5, Velocity: 77
Note OFF: Time 239400, Note Name: A#5
Note OFF: Time 239400, Note Name: A#4
Note ON: Time 239400, Note Name: C5, Velocity: 45
Note ON: Time 239400, Note Name: G5, Velocity: 64
Note ON: Time 239400, Note Name: C6, Velocity: 77
Note OFF: Time 239520, Note Name: C6
Note OFF: Time 239520, Note Name: G5
Note OFF: Time 239520, Note Name: C5
Note ON: Time 239520, Note Name: C#5, Velocity: 64
Note ON: Time 239520, Note Name: C#6, Velocity: 77
Note OFF: Time 239640, Note Name: C#6
Note OFF: Time 239640, Note Name: C#5
Note ON: Time 239640, Note Name: C5, Velocity: 69
Note ON: Time 239640, Note Name: G#5, Velocity: 69
Note ON: Time 239640, Note Name: C6, Velocity: 82
Note OFF: Time 239760, Note Name: C6
Note OFF: Time 239760, Note Name: G#5
Note OFF: Time 239760, Note Name: C5
Note ON: Time 239880, Note Name: F5, Velocity: 70
Note ON: Time 239880, Note Name: G#5, Velocity: 70
Note ON: Time 239880, Note Name: F6, Velocity: 83
Note OFF: Time 240060, Note Name: F6
Note OFF: Time 240060, Note Name: G#5
Note OFF: Time 240060, Note Name: F5
Note ON: Time 240060, Note Name: D#5, Velocity: 63
Note ON: Time 240060, Note Name: G#5, Velocity: 63
Note ON: Time 240060, Note Name: D#6, Velocity: 75
Note OFF: Time 240114, Note Name: D#6
Note OFF: Time 240114, Note Name: G#5
Note OFF: Time 240114, Note Name: D#5
Note ON: Time 240120, Note Name: D#5, Velocity: 71
Note ON: Time 240120, Note Name: G#5, Velocity: 71
Note ON: Time 240120, Note Name: D#6, Velocity: 84
Note OFF: Time 240240, Note Name: D#6
Note OFF: Time 240240, Note Name: G#5
Note OFF: Time 240240, Note Name: D#5
Note ON: Time 240300, Note Name: D#6, Velocity: 66
Note ON: Time 240300, Note Name: D#5, Velocity: 66
Note OFF: Time 240360, Note Name: D#5
Note OFF: Time 240360, Note Name: D#6
Note ON: Time 240360, Note Name: C#5, Velocity: 70
Note ON: Time 240360, Note Name: A5, Velocity: 70
Note ON: Time 240360, Note Name: C#6, Velocity: 83
Note OFF: Time 240540, Note Name: C#6
Note OFF: Time 240540, Note Name: A5
Note OFF: Time 240540, Note Name: C#5
Note ON: Time 240540, Note Name: C5, Velocity: 64
Note ON: Time 240540, Note Name: C6, Velocity: 77
Note OFF: Time 240600, Note Name: C6
Note OFF: Time 240600, Note Name: C5
Note ON: Time 240600, Note Name: A#4, Velocity: 70
Note ON: Time 240600, Note Name: A#5, Velocity: 83
Note OFF: Time 240720, Note Name: A#5
Note OFF: Time 240720, Note Name: A#4
Note ON: Time 240840, Note Name: A#4, Velocity: 64
Note ON: Time 240840, Note Name: F#5, Velocity: 64
Note ON: Time 240840, Note Name: A#5, Velocity: 77
Note OFF: Time 241020, Note Name: A#5
Note OFF: Time 241020, Note Name: F#5
Note OFF: Time 241020, Note Name: A#4
Note ON: Time 241020, Note Name: C5, Velocity: 64
Note ON: Time 241020, Note Name: C6, Velocity: 77
Note OFF: Time 241080, Note Name: C6
Note OFF: Time 241080, Note Name: C5
Note ON: Time 241080, Note Name: C#5, Velocity: 68
Note ON: Time 241080, Note Name: F5, Velocity: 68
Note ON: Time 241080, Note Name: C#6, Velocity: 81
Note OFF: Time 241320, Note Name: C#6
Note OFF: Time 241320, Note Name: F5
Note OFF: Time 241320, Note Name: C#5
Note ON: Time 241320, Note Name: D#5, Velocity: 67
Note ON: Time 241320, Note Name: C#5, Velocity: 67
Note ON: Time 241320, Note Name: C#6, Velocity: 79
Note ON: Time 241320, Note Name: F#5, Velocity: 67
Note OFF: Time 241500, Note Name: F#5
Note OFF: Time 241500, Note Name: D#5
Note OFF: Time 241500, Note Name: C#5
Note OFF: Time 241500, Note Name: C#6
Note ON: Time 241500, Note Name: C5, Velocity: 63
Note ON: Time 241500, Note Name: C6, Velocity: 75
Note OFF: Time 241560, Note Name: C6
Note OFF: Time 241560, Note Name: C5
Note ON: Time 241560, Note Name: A#4, Velocity: 69
Note ON: Time 241560, Note Name: F5, Velocity: 69
Note ON: Time 241560, Note Name: A#5, Velocity: 82
Note OFF: Time 241800, Note Name: A#5
Note OFF: Time 241800, Note Name: F5
Note OFF: Time 241800, Note Name: A#4
Note ON: Time 241800, Note Name: G#4, Velocity: 67
Note ON: Time 241800, Note Name: D#5, Velocity: 67
Note ON: Time 241800, Note Name: G#5, Velocity: 79
Note ON: Time 241800, Note Name: A#4, Velocity: 67
Note OFF: Time 241980, Note Name: A#4
Note OFF: Time 241980, Note Name: G#4
Note OFF: Time 241980, Note Name: D#5
Note OFF: Time 241980, Note Name: G#5
Note ON: Time 241980, Note Name: F#4, Velocity: 62
Note ON: Time 241980, Note Name: F#5, Velocity: 74
Note OFF: Time 242040, Note Name: F#5
Note OFF: Time 242040, Note Name: F#4
Note ON: Time 242040, Note Name: C#5, Velocity: 66
Note ON: Time 242040, Note Name: F5, Velocity: 78
Note ON: Time 242040, Note Name: F4, Velocity: 66
Note OFF: Time 242160, Note Name: F4
Note OFF: Time 242160, Note Name: F5
Note OFF: Time 242160, Note Name: C#5
Note ON: Time 242280, Note Name: A2, Velocity: 64
Note OFF: Time 242340, Note Name: A2
Note ON: Time 242340, Note Name: A#2, Velocity: 64
Note OFF: Time 242400, Note Name: A#2
Note ON: Time 242400, Note Name: C3, Velocity: 66
Note OFF: Time 242460, Note Name: C3
Note ON: Time 242460, Note Name: C#3, Velocity: 67
Note OFF: Time 242520, Note Name: C#3
Note ON: Time 242520, Note Name: D#3, Velocity: 67
Note OFF: Time 242580, Note Name: D#3
Note ON: Time 242580, Note Name: F3, Velocity: 68
Note OFF: Time 242640, Note Name: F3
Note ON: Time 242640, Note Name: G3, Velocity: 69
Note OFF: Time 242700, Note Name: G3
Note ON: Time 242700, Note Name: A3, Velocity: 69
Note OFF: Time 242760, Note Name: A3
Note ON: Time 242760, Note Name: A#3, Velocity: 70
Note OFF: Time 242820, Note Name: A#3
Note ON: Time 242820, Note Name: C4, Velocity: 71
Note OFF: Time 242880, Note Name: C4
Note ON: Time 242880, Note Name: C#4, Velocity: 71
Note OFF: Time 242940, Note Name: C#4
Note ON: Time 242940, Note Name: D#4, Velocity: 72
Note OFF: Time 243000, Note Name: D#4
Note ON: Time 243000, Note Name: F4, Velocity: 73
Note OFF: Time 243060, Note Name: F4
Note ON: Time 243060, Note Name: G4, Velocity: 73
Note OFF: Time 243120, Note Name: G4
Note ON: Time 243120, Note Name: A4, Velocity: 74
Note OFF: Time 243180, Note Name: A4
Note ON: Time 243180, Note Name: A#4, Velocity: 74
Note OFF: Time 243240, Note Name: A#4
Note ON: Time 243240, Note Name: C5, Velocity: 75
Note OFF: Time 243300, Note Name: C5
Note ON: Time 243300, Note Name: C#5, Velocity: 77
Note OFF: Time 243360, Note Name: C#5
Note ON: Time 243360, Note Name: D#5, Velocity: 77
Note OFF: Time 243420, Note Name: D#5
Note ON: Time 243420, Note Name: F5, Velocity: 78
Note OFF: Time 243480, Note Name: F5
Note ON: Time 243480, Note Name: G5, Velocity: 77
Note OFF: Time 243540, Note Name: G5
Note ON: Time 243540, Note Name: A5, Velocity: 77
Note OFF: Time 243600, Note Name: A5
Note ON: Time 243600, Note Name: A#5, Velocity: 78
Note OFF: Time 243660, Note Name: A#5
Note ON: Time 243660, Note Name: C6, Velocity: 79
Note OFF: Time 243720, Note Name: C6
Note ON: Time 243720, Note Name: C#6, Velocity: 80
Note OFF: Time 243780, Note Name: C#6
Note ON: Time 243780, Note Name: D#6, Velocity: 80
Note OFF: Time 243840, Note Name: D#6
Note ON: Time 243840, Note Name: F6, Velocity: 81
Note OFF: Time 243900, Note Name: F6
Note ON: Time 243900, Note Name: G6, Velocity: 82
Note OFF: Time 243990, Note Name: G6
Note ON: Time 243990, Note Name: A6, Velocity: 83
Note OFF: Time 244080, Note Name: A6
Note ON: Time 244080, Note Name: A#6, Velocity: 92
Note ON: Time 244080, Note Name: A#5, Velocity: 92
Note OFF: Time 244200, Note Name: A#5
Note OFF: Time 244200, Note Name: A#6
Note ON: Time 244260, Note Name: C7, Velocity: 85
Note OFF: Time 244320, Note Name: C7
Note ON: Time 244320, Note Name: C#6, Velocity: 77
Note ON: Time 244320, Note Name: A#6, Velocity: 91
Note ON: Time 244320, Note Name: G6, Velocity: 91
Note OFF: Time 244440, Note Name: G6
Note OFF: Time 244440, Note Name: A#6
Note OFF: Time 244440, Note Name: C#6
Note ON: Time 244440, Note Name: F#6, Velocity: 85
Note ON: Time 244440, Note Name: C6, Velocity: 72
Note ON: Time 244440, Note Name: A6, Velocity: 85
Note OFF: Time 244560, Note Name: A6
Note OFF: Time 244560, Note Name: C6
Note OFF: Time 244560, Note Name: F#6
Note ON: Time 244560, Note Name: C#6, Velocity: 75
Note ON: Time 244560, Note Name: G6, Velocity: 90
Note ON: Time 244560, Note Name: A#6, Velocity: 90
Note OFF: Time 244800, Note Name: A#6
Note OFF: Time 244800, Note Name: G6
Note OFF: Time 244800, Note Name: C#6
Note ON: Time 244800, Note Name: C6, Velocity: 72
Note ON: Time 244800, Note Name: G6, Velocity: 85
Note ON: Time 244800, Note Name: C7, Velocity: 85
Note OFF: Time 245040, Note Name: C7
Note OFF: Time 245040, Note Name: G6
Note OFF: Time 245040, Note Name: C6
Note ON: Time 245040, Note Name: G#5, Velocity: 74
Note ON: Time 245040, Note Name: C6, Velocity: 74
Note ON: Time 245040, Note Name: G#6, Velocity: 88
Note OFF: Time 245280, Note Name: G#6
Note OFF: Time 245280, Note Name: C6
Note OFF: Time 245280, Note Name: G#5
Note ON: Time 245280, Note Name: D#5, Velocity: 72
Note ON: Time 245280, Note Name: G#5, Velocity: 72
Note ON: Time 245280, Note Name: D#6, Velocity: 85
Note OFF: Time 245520, Note Name: D#6
Note OFF: Time 245520, Note Name: G#5
Note OFF: Time 245520, Note Name: D#5
Note ON: Time 245520, Note Name: F5, Velocity: 74
Note ON: Time 245520, Note Name: G#5, Velocity: 74
Note ON: Time 245520, Note Name: F6, Velocity: 88
Note OFF: Time 245760, Note Name: F6
Note OFF: Time 245760, Note Name: G#5
Note OFF: Time 245760, Note Name: F5
Note ON: Time 245760, Note Name: D#5, Velocity: 72
Note ON: Time 245760, Note Name: G#5, Velocity: 72
Note ON: Time 245760, Note Name: D#6, Velocity: 85
Note OFF: Time 246000, Note Name: D#6
Note OFF: Time 246000, Note Name: G#5
Note OFF: Time 246000, Note Name: D#5
Note ON: Time 246000, Note Name: C5, Velocity: 70
Note ON: Time 246000, Note Name: D#5, Velocity: 70
Note ON: Time 246000, Note Name: C6, Velocity: 83
Note OFF: Time 246240, Note Name: C6
Note OFF: Time 246240, Note Name: D#5
Note OFF: Time 246240, Note Name: C5
Note ON: Time 246240, Note Name: G#4, Velocity: 68
Note ON: Time 246240, Note Name: C5, Velocity: 68
Note ON: Time 246240, Note Name: G#5, Velocity: 80
Note OFF: Time 246480, Note Name: G#5
Note OFF: Time 246480, Note Name: C5
Note OFF: Time 246480, Note Name: G#4
Note ON: Time 246480, Note Name: F4, Velocity: 70
Note ON: Time 246480, Note Name: G#4, Velocity: 70
Note ON: Time 246480, Note Name: F5, Velocity: 83
Note OFF: Time 246720, Note Name: F5
Note OFF: Time 246720, Note Name: G#4
Note OFF: Time 246720, Note Name: F4
Note ON: Time 246720, Note Name: D#4, Velocity: 68
Note ON: Time 246720, Note Name: G4, Velocity: 68
Note ON: Time 246720, Note Name: D#5, Velocity: 80
Note OFF: Time 246960, Note Name: D#5
Note OFF: Time 246960, Note Name: G4
Note OFF: Time 246960, Note Name: D#4
Note ON: Time 246960, Note Name: C4, Velocity: 68
Note ON: Time 246960, Note Name: G#4, Velocity: 68
Note ON: Time 246960, Note Name: C5, Velocity: 80
Note OFF: Time 247080, Note Name: C5
Note OFF: Time 247080, Note Name: G#4
Note OFF: Time 247080, Note Name: C4
Note ON: Time 247200, Note Name: D#4, Velocity: 66
Note OFF: Time 247260, Note Name: D#4
Note ON: Time 247260, Note Name: F4, Velocity: 61
Note OFF: Time 247320, Note Name: F4
Note ON: Time 247320, Note Name: D#4, Velocity: 65
Note OFF: Time 247380, Note Name: D#4
Note ON: Time 247380, Note Name: F4, Velocity: 61
Note OFF: Time 247440, Note Name: F4
Note ON: Time 247440, Note Name: D4, Velocity: 81
Note OFF: Time 247680, Note Name: D4
Note ON: Time 247680, Note Name: F4, Velocity: 71
Note OFF: Time 247760, Note Name: F4
Note ON: Time 247760, Note Name: G#4, Velocity: 73
Note OFF: Time 247840, Note Name: G#4
Note ON: Time 247840, Note Name: B4, Velocity: 75
Note OFF: Time 247920, Note Name: B4
Note ON: Time 247920, Note Name: D5, Velocity: 77
Note OFF: Time 248000, Note Name: D5
Note ON: Time 248000, Note Name: F5, Velocity: 79
Note OFF: Time 248080, Note Name: F5
Note ON: Time 248080, Note Name: G#5, Velocity: 81
Note OFF: Time 248160, Note Name: G#5
Note ON: Time 248160, Note Name: B5, Velocity: 83
Note OFF: Time 248240, Note Name: B5
Note ON: Time 248240, Note Name: D6, Velocity: 85
Note OFF: Time 248320, Note Name: D6
Note ON: Time 248320, Note Name: D7, Velocity: 87
Note OFF: Time 248400, Note Name: D7
Note ON: Time 248400, Note Name: D#6, Velocity: 89
Note ON: Time 248400, Note Name: D#7, Velocity: 89
Note OFF: Time 248520, Note Name: D#7
Note OFF: Time 248520, Note Name: D#6
Note ON: Time 248640, Note Name: A#4, Velocity: 75
Note ON: Time 248640, Note Name: A#5, Velocity: 89
Note ON: Time 248640, Note Name: D#5, Velocity: 75
Note OFF: Time 248700, Note Name: D#5
Note OFF: Time 248700, Note Name: A#5
Note OFF: Time 248700, Note Name: A#4
Note ON: Time 248760, Note Name: A#4, Velocity: 70
Note ON: Time 248760, Note Name: A#5, Velocity: 83
Note ON: Time 248760, Note Name: D#5, Velocity: 70
Note OFF: Time 248820, Note Name: D#5
Note OFF: Time 248820, Note Name: A#5
Note OFF: Time 248820, Note Name: A#4
Note ON: Time 248880, Note Name: A#4, Velocity: 75
Note ON: Time 248880, Note Name: D#5, Velocity: 75
Note ON: Time 248880, Note Name: A#5, Velocity: 89
Note OFF: Time 249000, Note Name: A#5
Note OFF: Time 249000, Note Name: D#5
Note OFF: Time 249000, Note Name: A#4
Note ON: Time 249120, Note Name: A4, Velocity: 70
Note ON: Time 249120, Note Name: D#5, Velocity: 70
Note ON: Time 249120, Note Name: A5, Velocity: 83
Note OFF: Time 249240, Note Name: A5
Note OFF: Time 249240, Note Name: D#5
Note OFF: Time 249240, Note Name: A4
Note ON: Time 249240, Note Name: A#4, Velocity: 73
Note ON: Time 249240, Note Name: D#5, Velocity: 73
Note ON: Time 249240, Note Name: A#5, Velocity: 87
Note OFF: Time 249360, Note Name: A#5
Note OFF: Time 249360, Note Name: D#5
Note OFF: Time 249360, Note Name: A#4
Note ON: Time 249360, Note Name: C5, Velocity: 77
Note ON: Time 249360, Note Name: D#5, Velocity: 77
Note ON: Time 249360, Note Name: C6, Velocity: 91
Note OFF: Time 249600, Note Name: C6
Note OFF: Time 249600, Note Name: D#5
Note OFF: Time 249600, Note Name: C5
Note ON: Time 249600, Note Name: G4, Velocity: 75
Note ON: Time 249600, Note Name: C#5, Velocity: 75
Note ON: Time 249600, Note Name: D#5, Velocity: 75
Note ON: Time 249600, Note Name: G5, Velocity: 89
Note OFF: Time 249840, Note Name: G5
Note OFF: Time 249840, Note Name: G4
Note OFF: Time 249840, Note Name: C#5
Note OFF: Time 249840, Note Name: D#5
Note ON: Time 249840, Note Name: G#4, Velocity: 74
Note ON: Time 249840, Note Name: C5, Velocity: 74
Note ON: Time 249840, Note Name: G#5, Velocity: 88
Note OFF: Time 249960, Note Name: G#5
Note OFF: Time 249960, Note Name: C5
Note OFF: Time 249960, Note Name: G#4
Note ON: Time 250080, Note Name: D#4, Velocity: 66
Note OFF: Time 250140, Note Name: D#4
Note ON: Time 250140, Note Name: F4, Velocity: 61
Note OFF: Time 250200, Note Name: F4
Note ON: Time 250200, Note Name: D#4, Velocity: 65
Note OFF: Time 250260, Note Name: D#4
Note ON: Time 250260, Note Name: F4, Velocity: 61
Note OFF: Time 250320, Note Name: F4
Note ON: Time 250320, Note Name: D4, Velocity: 81
Note OFF: Time 250560, Note Name: D4
Note ON: Time 250560, Note Name: F4, Velocity: 71
Note OFF: Time 250640, Note Name: F4
Note ON: Time 250640, Note Name: G#4, Velocity: 73
Note OFF: Time 250720, Note Name: G#4
Note ON: Time 250720, Note Name: B4, Velocity: 75
Note OFF: Time 250800, Note Name: B4
Note ON: Time 250800, Note Name: D5, Velocity: 77
Note OFF: Time 250880, Note Name: D5
Note ON: Time 250880, Note Name: F5, Velocity: 79
Note OFF: Time 250960, Note Name: F5
Note ON: Time 250960, Note Name: G#5, Velocity: 81
Note OFF: Time 251040, Note Name: G#5
Note ON: Time 251040, Note Name: B5, Velocity: 83
Note OFF: Time 251120, Note Name: B5
Note ON: Time 251120, Note Name: D6, Velocity: 85
Note OFF: Time 251200, Note Name: D6
Note ON: Time 251200, Note Name: D7, Velocity: 87
Note OFF: Time 251280, Note Name: D7
Note ON: Time 251280, Note Name: D#6, Velocity: 89
Note ON: Time 251280, Note Name: D#7, Velocity: 89
Note OFF: Time 251400, Note Name: D#7
Note OFF: Time 251400, Note Name: D#6
Note ON: Time 251520, Note Name: A#4, Velocity: 75
Note ON: Time 251520, Note Name: A#5, Velocity: 89
Note ON: Time 251520, Note Name: D#5, Velocity: 75
Note OFF: Time 251580, Note Name: D#5
Note OFF: Time 251580, Note Name: A#5
Note OFF: Time 251580, Note Name: A#4
Note ON: Time 251640, Note Name: A#4, Velocity: 70
Note ON: Time 251640, Note Name: A#5, Velocity: 83
Note ON: Time 251640, Note Name: D#5, Velocity: 70
Note OFF: Time 251700, Note Name: D#5
Note OFF: Time 251700, Note Name: A#5
Note OFF: Time 251700, Note Name: A#4
Note ON: Time 251760, Note Name: A#4, Velocity: 75
Note ON: Time 251760, Note Name: D#5, Velocity: 75
Note ON: Time 251760, Note Name: A#5, Velocity: 89
Note OFF: Time 251880, Note Name: A#5
Note OFF: Time 251880, Note Name: D#5
Note OFF: Time 251880, Note Name: A#4
Note ON: Time 251880, Note Name: C5, Velocity: 63
Note ON: Time 251880, Note Name: D#5, Velocity: 63
Note ON: Time 251880, Note Name: C6, Velocity: 75
Note OFF: Time 252000, Note Name: C6
Note OFF: Time 252000, Note Name: D#5
Note OFF: Time 252000, Note Name: C5
Note ON: Time 252000, Note Name: A4, Velocity: 70
Note ON: Time 252000, Note Name: D#5, Velocity: 70
Note ON: Time 252000, Note Name: A5, Velocity: 83
Note OFF: Time 252120, Note Name: A5
Note OFF: Time 252120, Note Name: D#5
Note OFF: Time 252120, Note Name: A4
Note ON: Time 252120, Note Name: A#4, Velocity: 73
Note ON: Time 252120, Note Name: D#5, Velocity: 73
Note ON: Time 252120, Note Name: A#5, Velocity: 87
Note OFF: Time 252240, Note Name: A#5
Note OFF: Time 252240, Note Name: D#5
Note OFF: Time 252240, Note Name: A#4
Note ON: Time 252240, Note Name: C5, Velocity: 77
Note ON: Time 252240, Note Name: D#5, Velocity: 77
Note ON: Time 252240, Note Name: C6, Velocity: 91
Note OFF: Time 252480, Note Name: C6
Note OFF: Time 252480, Note Name: D#5
Note OFF: Time 252480, Note Name: C5
Note ON: Time 252480, Note Name: G4, Velocity: 75
Note ON: Time 252480, Note Name: C#5, Velocity: 75
Note ON: Time 252480, Note Name: D#5, Velocity: 75
Note ON: Time 252480, Note Name: G5, Velocity: 89
Note OFF: Time 252720, Note Name: G5
Note OFF: Time 252720, Note Name: G4
Note OFF: Time 252720, Note Name: C#5
Note OFF: Time 252720, Note Name: D#5
Note ON: Time 252720, Note Name: F5, Velocity: 85
Note ON: Time 252720, Note Name: G#4, Velocity: 78
Note ON: Time 252720, Note Name: C5, Velocity: 84
Note ON: Time 252720, Note Name: G#5, Velocity: 102
Note OFF: Time 253080, Note Name: G#5
Note OFF: Time 253080, Note Name: F5
Note OFF: Time 253080, Note Name: G#4
Note OFF: Time 253080, Note Name: C5
Note ON: Time 253080, Note Name: D#5, Velocity: 93
Note OFF: Time 253188, Note Name: D#5
Note ON: Time 253200, Note Name: D#4, Velocity: 79
Note ON: Time 253200, Note Name: C5, Velocity: 79
Note ON: Time 253200, Note Name: D#5, Velocity: 93
Note OFF: Time 253680, Note Name: D#5
Note OFF: Time 253680, Note Name: C5
Note OFF: Time 253680, Note Name: D#4
Note ON: Time 253920, Note Name: C5, Velocity: 74
Note ON: Time 253920, Note Name: G#5, Velocity: 74
Note ON: Time 253920, Note Name: C6, Velocity: 88
Note OFF: Time 254040, Note Name: C6
Note OFF: Time 254040, Note Name: G#5
Note OFF: Time 254040, Note Name: C5
Note ON: Time 254040, Note Name: C#5, Velocity: 73
Note ON: Time 254040, Note Name: A#5, Velocity: 73
Note ON: Time 254040, Note Name: C#6, Velocity: 86
Note OFF: Time 254160, Note Name: C#6
Note OFF: Time 254160, Note Name: A#5
Note OFF: Time 254160, Note Name: C#5
Note ON: Time 254160, Note Name: F5, Velocity: 82
Note ON: Time 254160, Note Name: C#6, Velocity: 88
Note ON: Time 254160, Note Name: F6, Velocity: 102
Note OFF: Time 254520, Note Name: F6
Note OFF: Time 254520, Note Name: C#6
Note OFF: Time 254520, Note Name: F5
Note ON: Time 254520, Note Name: D#5, Velocity: 79
Note ON: Time 254520, Note Name: C6, Velocity: 79
Note ON: Time 254520, Note Name: D#6, Velocity: 93
Note OFF: Time 254628, Note Name: D#6
Note OFF: Time 254628, Note Name: C6
Note OFF: Time 254628, Note Name: D#5
Note ON: Time 254640, Note Name: D#5, Velocity: 79
Note ON: Time 254640, Note Name: C6, Velocity: 79
Note ON: Time 254640, Note Name: D#6, Velocity: 93
Note OFF: Time 255120, Note Name: D#6
Note OFF: Time 255120, Note Name: C6
Note OFF: Time 255120, Note Name: D#5
Note ON: Time 255360, Note Name: C5, Velocity: 74
Note ON: Time 255360, Note Name: G#5, Velocity: 74
Note ON: Time 255360, Note Name: C6, Velocity: 88
Note OFF: Time 255480, Note Name: C6
Note OFF: Time 255480, Note Name: G#5
Note OFF: Time 255480, Note Name: C5
Note ON: Time 255480, Note Name: C#5, Velocity: 73
Note ON: Time 255480, Note Name: A#5, Velocity: 73
Note ON: Time 255480, Note Name: C#6, Velocity: 86
Note OFF: Time 255600, Note Name: C#6
Note OFF: Time 255600, Note Name: A#5
Note OFF: Time 255600, Note Name: C#5
Note ON: Time 255600, Note Name: F5, Velocity: 82
Note ON: Time 255600, Note Name: C#6, Velocity: 88
Note ON: Time 255600, Note Name: F6, Velocity: 102
Note OFF: Time 255960, Note Name: F6
Note OFF: Time 255960, Note Name: C#6
Note OFF: Time 255960, Note Name: F5
Note ON: Time 255960, Note Name: D#5, Velocity: 79
Note ON: Time 255960, Note Name: C6, Velocity: 79
Note ON: Time 255960, Note Name: D#6, Velocity: 93
Note OFF: Time 256080, Note Name: D#6
Note OFF: Time 256080, Note Name: C6
Note OFF: Time 256080, Note Name: D#5
Note ON: Time 256080, Note Name: F5, Velocity: 82
Note ON: Time 256080, Note Name: C#6, Velocity: 88
Note ON: Time 256080, Note Name: F6, Velocity: 102
Note OFF: Time 256440, Note Name: F6
Note OFF: Time 256440, Note Name: C#6
Note OFF: Time 256440, Note Name: F5
Note ON: Time 256440, Note Name: D#5, Velocity: 79
Note ON: Time 256440, Note Name: C6, Velocity: 79
Note ON: Time 256440, Note Name: D#6, Velocity: 93
Note OFF: Time 256560, Note Name: D#6
Note OFF: Time 256560, Note Name: C6
Note OFF: Time 256560, Note Name: D#5
Note ON: Time 256560, Note Name: F5, Velocity: 82
Note ON: Time 256560, Note Name: C#6, Velocity: 88
Note ON: Time 256560, Note Name: F6, Velocity: 102
Note OFF: Time 256920, Note Name: F6
Note OFF: Time 256920, Note Name: C#6
Note OFF: Time 256920, Note Name: F5
Note ON: Time 256920, Note Name: D#5, Velocity: 79
Note ON: Time 256920, Note Name: C6, Velocity: 79
Note ON: Time 256920, Note Name: D#6, Velocity: 93
Note OFF: Time 257040, Note Name: D#6
Note OFF: Time 257040, Note Name: C6
Note OFF: Time 257040, Note Name: D#5
Note ON: Time 257040, Note Name: F5, Velocity: 82
Note ON: Time 257040, Note Name: C#6, Velocity: 88
Note ON: Time 257040, Note Name: F6, Velocity: 102
Note OFF: Time 257400, Note Name: F6
Note OFF: Time 257400, Note Name: C#6
Note OFF: Time 257400, Note Name: F5
Note ON: Time 257400, Note Name: D#5, Velocity: 79
Note ON: Time 257400, Note Name: C6, Velocity: 79
Note ON: Time 257400, Note Name: D#6, Velocity: 93
Note OFF: Time 257508, Note Name: D#6
Note OFF: Time 257508, Note Name: C6
Note OFF: Time 257508, Note Name: D#5
Note ON: Time 257520, Note Name: D#5, Velocity: 79
Note ON: Time 257520, Note Name: C6, Velocity: 79
Note ON: Time 257520, Note Name: D#6, Velocity: 93
Note OFF: Time 258000, Note Name: D#6
Note OFF: Time 258000, Note Name: C6
Note OFF: Time 258000, Note Name: D#5
Note ON: Time 258000, Note Name: F6, Velocity: 93
Note ON: Time 258000, Note Name: C6, Velocity: 79
Note ON: Time 258000, Note Name: F5, Velocity: 79
Note OFF: Time 258060, Note Name: F5
Note OFF: Time 258060, Note Name: C6
Note OFF: Time 258060, Note Name: F6
Note ON: Time 258120, Note Name: G5, Velocity: 81
Note ON: Time 258120, Note Name: C6, Velocity: 81
Note ON: Time 258120, Note Name: G6, Velocity: 96
Note OFF: Time 258240, Note Name: G6
Note OFF: Time 258240, Note Name: C6
Note OFF: Time 258240, Note Name: G5
Note ON: Time 258240, Note Name: G#5, Velocity: 85
Note ON: Time 258240, Note Name: C6, Velocity: 85
Note ON: Time 258240, Note Name: G#6, Velocity: 100
Note OFF: Time 258360, Note Name: G#6
Note OFF: Time 258360, Note Name: C6
Note OFF: Time 258360, Note Name: G#5
Note ON: Time 258360, Note Name: A#5, Velocity: 89
Note ON: Time 258360, Note Name: D#6, Velocity: 89
Note ON: Time 258360, Note Name: A#6, Velocity: 105
Note OFF: Time 258480, Note Name: A#6
Note OFF: Time 258480, Note Name: A#5
Note ON: Time 258480, Note Name: C7, Velocity: 110
Note ON: Time 258480, Note Name: G#6, Velocity: 110
Note ON: Time 258480, Note Name: C6, Velocity: 93
Note OFF: Time 258600, Note Name: D#6
Note OFF: Time 258720, Note Name: C7
Note OFF: Time 258720, Note Name: G#6
Note OFF: Time 258720, Note Name: C6
Note ON: Time 259200, Note Name: E3, Velocity: 79
Note ON: Time 259200, Note Name: G3, Velocity: 79
Note ON: Time 259200, Note Name: C4, Velocity: 93
Note ON: Time 259200, Note Name: E4, Velocity: 93
Note OFF: Time 259260, Note Name: E4
Note OFF: Time 259260, Note Name: E3
Note OFF: Time 259260, Note Name: G3
Note OFF: Time 259260, Note Name: C4
Note ON: Time 259320, Note Name: E3, Velocity: 75
Note ON: Time 259320, Note Name: G3, Velocity: 75
Note ON: Time 259320, Note Name: C4, Velocity: 89
Note ON: Time 259320, Note Name: E4, Velocity: 89
Note OFF: Time 259380, Note Name: E4
Note OFF: Time 259380, Note Name: E3
Note OFF: Time 259380, Note Name: G3
Note OFF: Time 259380, Note Name: C4
Note ON: Time 259440, Note Name: E3, Velocity: 79
Note ON: Time 259440, Note Name: G3, Velocity: 79
Note ON: Time 259440, Note Name: C4, Velocity: 93
Note ON: Time 259440, Note Name: E4, Velocity: 93
Note OFF: Time 259560, Note Name: E4
Note OFF: Time 259560, Note Name: E3
Note OFF: Time 259560, Note Name: G3
Note OFF: Time 259560, Note Name: C4
Note ON: Time 259680, Note Name: E3, Velocity: 74
Note ON: Time 259680, Note Name: G3, Velocity: 74
Note ON: Time 259680, Note Name: C4, Velocity: 88
Note ON: Time 259680, Note Name: E4, Velocity: 88
Note OFF: Time 259800, Note Name: E4
Note OFF: Time 259800, Note Name: E3
Note OFF: Time 259800, Note Name: G3
Note OFF: Time 259800, Note Name: C4
Note ON: Time 259830, Note Name: E3, Velocity: 78
Note ON: Time 259860, Note Name: G3, Velocity: 78
Note ON: Time 259890, Note Name: C4, Velocity: 92
Note ON: Time 259920, Note Name: E4, Velocity: 92
Note OFF: Time 260160, Note Name: E4
Note OFF: Time 260160, Note Name: E3
Note OFF: Time 260160, Note Name: G3
Note OFF: Time 260160, Note Name: C4
Note ON: Time 260310, Note Name: E3, Velocity: 79
Note ON: Time 260340, Note Name: G3, Velocity: 79
Note ON: Time 260370, Note Name: C4, Velocity: 93
Note ON: Time 260400, Note Name: E4, Velocity: 93
Note OFF: Time 260640, Note Name: E4
Note OFF: Time 260640, Note Name: E3
Note OFF: Time 260640, Note Name: G3
Note OFF: Time 260640, Note Name: C4
Note ON: Time 260790, Note Name: D#3, Velocity: 79
Note ON: Time 260820, Note Name: G3, Velocity: 79
Note ON: Time 260850, Note Name: C#4, Velocity: 93
Note ON: Time 260880, Note Name: D#4, Velocity: 93
Note OFF: Time 261120, Note Name: D#4
Note OFF: Time 261120, Note Name: D#3
Note OFF: Time 261120, Note Name: G3
Note OFF: Time 261120, Note Name: C#4
Note ON: Time 261360, Note Name: G#3, Velocity: 86
Note ON: Time 261360, Note Name: C4, Velocity: 86
Note ON: Time 261360, Note Name: G#4, Velocity: 102
Note OFF: Time 261600, Note Name: G#4
Note OFF: Time 261600, Note Name: C4
Note OFF: Time 261600, Note Name: G#3
Track 2: Piano left
Note ON: Time 0, Note Name: D#1, Velocity: 63
Note ON: Time 0, Note Name: D#2, Velocity: 75
Note OFF: Time 480, Note Name: D#2
Note OFF: Time 480, Note Name: D#1
Note ON: Time 720, Note Name: C#3, Velocity: 40
Note ON: Time 720, Note Name: E3, Velocity: 40
Note ON: Time 720, Note Name: A3, Velocity: 47
Note OFF: Time 840, Note Name: A3
Note OFF: Time 840, Note Name: E3
Note OFF: Time 840, Note Name: C#3
Note ON: Time 840, Note Name: D3, Velocity: 42
Note ON: Time 840, Note Name: F3, Velocity: 42
Note ON: Time 840, Note Name: A#3, Velocity: 50
Note OFF: Time 960, Note Name: A#3
Note OFF: Time 960, Note Name: F3
Note OFF: Time 960, Note Name: D3
Note ON: Time 960, Note Name: D#3, Velocity: 45
Note ON: Time 960, Note Name: F#3, Velocity: 45
Note ON: Time 960, Note Name: B3, Velocity: 53
Note OFF: Time 1080, Note Name: B3
Note OFF: Time 1080, Note Name: F#3
Note OFF: Time 1080, Note Name: D#3
Note ON: Time 1080, Note Name: E3, Velocity: 46
Note ON: Time 1080, Note Name: G3, Velocity: 46
Note ON: Time 1080, Note Name: C4, Velocity: 55
Note OFF: Time 1200, Note Name: C4
Note OFF: Time 1200, Note Name: G3
Note OFF: Time 1200, Note Name: E3
Note ON: Time 1200, Note Name: F3, Velocity: 49
Note ON: Time 1200, Note Name: G#3, Velocity: 49
Note ON: Time 1200, Note Name: C#4, Velocity: 58
Note OFF: Time 1320, Note Name: C#4
Note OFF: Time 1320, Note Name: G#3
Note OFF: Time 1320, Note Name: F3
Note ON: Time 1320, Note Name: F3, Velocity: 51
Note ON: Time 1320, Note Name: A3, Velocity: 61
Note ON: Time 1320, Note Name: D4, Velocity: 61
Note OFF: Time 1440, Note Name: D4
Note OFF: Time 1440, Note Name: A3
Note OFF: Time 1440, Note Name: F3
Note ON: Time 1440, Note Name: G3, Velocity: 63
Note OFF: Time 1560, Note Name: G3
Note ON: Time 1920, Note Name: D#2, Velocity: 42
Note ON: Time 1920, Note Name: A#2, Velocity: 50
Note OFF: Time 2040, Note Name: A#2
Note OFF: Time 2040, Note Name: D#2
Note ON: Time 2400, Note Name: D3, Velocity: 28
Note ON: Time 2400, Note Name: B3, Velocity: 32
Note OFF: Time 2880, Note Name: B3
Note OFF: Time 2880, Note Name: D3
Note ON: Time 2880, Note Name: D#3, Velocity: 23
Note ON: Time 2880, Note Name: A#3, Velocity: 28
Note OFF: Time 3120, Note Name: A#3
Note OFF: Time 3120, Note Name: D#3
Note ON: Time 3360, Note Name: G#2, Velocity: 36
Note ON: Time 3360, Note Name: B3, Velocity: 42
Note ON: Time 3480, Note Name: G2, Velocity: 33
Note ON: Time 3480, Note Name: A#3, Velocity: 39
Note OFF: Time 3490, Note Name: B3
Note OFF: Time 3490, Note Name: G#2
Note ON: Time 3600, Note Name: D2, Velocity: 33
Note ON: Time 3600, Note Name: E3, Velocity: 40
Note OFF: Time 3610, Note Name: G2
Note OFF: Time 3610, Note Name: A#3
Note ON: Time 3720, Note Name: D#2, Velocity: 35
Note ON: Time 3720, Note Name: D#3, Velocity: 42
Note OFF: Time 3730, Note Name: D2
Note OFF: Time 3730, Note Name: E3
Note ON: Time 3840, Note Name: G#2, Velocity: 39
Note ON: Time 3840, Note Name: B3, Velocity: 47
Note OFF: Time 3850, Note Name: D#2
Note OFF: Time 3850, Note Name: D#3
Note ON: Time 3960, Note Name: G2, Velocity: 38
Note ON: Time 3960, Note Name: A#3, Velocity: 45
Note OFF: Time 3970, Note Name: G#2
Note OFF: Time 3970, Note Name: B3
Note ON: Time 4080, Note Name: D2, Velocity: 39
Note ON: Time 4080, Note Name: E3, Velocity: 47
Note OFF: Time 4090, Note Name: G2
Note OFF: Time 4090, Note Name: A#3
Note ON: Time 4200, Note Name: D#2, Velocity: 40
Note ON: Time 4200, Note Name: D#3, Velocity: 47
Note OFF: Time 4210, Note Name: D2
Note OFF: Time 4210, Note Name: E3
Note ON: Time 4320, Note Name: G#2, Velocity: 44
Note ON: Time 4320, Note Name: B3, Velocity: 53
Note OFF: Time 4330, Note Name: D#2
Note OFF: Time 4330, Note Name: D#3
Note ON: Time 4440, Note Name: G2, Velocity: 43
Note ON: Time 4440, Note Name: A#3, Velocity: 50
Note OFF: Time 4450, Note Name: G#2
Note OFF: Time 4450, Note Name: B3
Note ON: Time 4560, Note Name: D2, Velocity: 44
Note ON: Time 4560, Note Name: E3, Velocity: 53
Note OFF: Time 4570, Note Name: G2
Note OFF: Time 4570, Note Name: A#3
Note ON: Time 4680, Note Name: D#2, Velocity: 46
Note ON: Time 4680, Note Name: D#3, Velocity: 55
Note OFF: Time 4690, Note Name: D2
Note OFF: Time 4690, Note Name: E3
Note ON: Time 4800, Note Name: G#2, Velocity: 52
Note ON: Time 4800, Note Name: B3, Velocity: 61
Note OFF: Time 4810, Note Name: D#2
Note OFF: Time 4810, Note Name: D#3
Note ON: Time 4920, Note Name: G2, Velocity: 49
Note ON: Time 4920, Note Name: A#3, Velocity: 58
Note OFF: Time 4930, Note Name: G#2
Note OFF: Time 4930, Note Name: B3
Note ON: Time 5040, Note Name: D2, Velocity: 49
Note ON: Time 5040, Note Name: E3, Velocity: 59
Note OFF: Time 5050, Note Name: G2
Note OFF: Time 5050, Note Name: A#3
Note ON: Time 5160, Note Name: D#2, Velocity: 52
Note ON: Time 5160, Note Name: D#3, Velocity: 61
Note OFF: Time 5170, Note Name: D2
Note OFF: Time 5170, Note Name: E3
Note ON: Time 5280, Note Name: G#2, Velocity: 58
Note ON: Time 5280, Note Name: B3, Velocity: 70
Note OFF: Time 5290, Note Name: D#2
Note OFF: Time 5290, Note Name: D#3
Note ON: Time 5400, Note Name: G2, Velocity: 55
Note ON: Time 5400, Note Name: A#3, Velocity: 64
Note OFF: Time 5410, Note Name: G#2
Note OFF: Time 5410, Note Name: B3
Note ON: Time 5520, Note Name: D2, Velocity: 55
Note ON: Time 5520, Note Name: E3, Velocity: 66
Note OFF: Time 5530, Note Name: G2
Note OFF: Time 5530, Note Name: A#3
Note ON: Time 5640, Note Name: D#2, Velocity: 57
Note ON: Time 5640, Note Name: D#3, Velocity: 68
Note OFF: Time 5650, Note Name: D2
Note OFF: Time 5650, Note Name: E3
Note OFF: Time 5760, Note Name: D#2
Note OFF: Time 5760, Note Name: D#3
Note ON: Time 5760, Note Name: G#2, Velocity: 63
Note ON: Time 5760, Note Name: D#2, Velocity: 63
Note ON: Time 5760, Note Name: D#3, Velocity: 75
Note OFF: Time 6240, Note Name: D#3
Note OFF: Time 6240, Note Name: D#2
Note OFF: Time 6240, Note Name: G#2
Note ON: Time 6480, Note Name: D3, Velocity: 40
Note ON: Time 6480, Note Name: F3, Velocity: 40
Note ON: Time 6480, Note Name: A#3, Velocity: 47
Note OFF: Time 6600, Note Name: A#3
Note OFF: Time 6600, Note Name: F3
Note OFF: Time 6600, Note Name: D3
Note ON: Time 6600, Note Name: D#3, Velocity: 42
Note ON: Time 6600, Note Name: F#3, Velocity: 42
Note ON: Time 6600, Note Name: B3, Velocity: 50
Note OFF: Time 6720, Note Name: B3
Note OFF: Time 6720, Note Name: F#3
Note OFF: Time 6720, Note Name: D#3
Note ON: Time 6720, Note Name: E3, Velocity: 45
Note ON: Time 6720, Note Name: G3, Velocity: 45
Note ON: Time 6720, Note Name: C4, Velocity: 53
Note OFF: Time 6840, Note Name: C4
Note OFF: Time 6840, Note Name: G3
Note OFF: Time 6840, Note Name: E3
Note ON: Time 6840, Note Name: F3, Velocity: 46
Note ON: Time 6840, Note Name: G#3, Velocity: 46
Note ON: Time 6840, Note Name: C#4, Velocity: 55
Note OFF: Time 6960, Note Name: C#4
Note OFF: Time 6960, Note Name: G#3
Note OFF: Time 6960, Note Name: F3
Note ON: Time 6960, Note Name: F#3, Velocity: 49
Note ON: Time 6960, Note Name: A3, Velocity: 49
Note ON: Time 6960, Note Name: D4, Velocity: 58
Note OFF: Time 7080, Note Name: D4
Note OFF: Time 7080, Note Name: A3
Note OFF: Time 7080, Note Name: F#3
Note ON: Time 7080, Note Name: F#3, Velocity: 51
Note ON: Time 7080, Note Name: A#3, Velocity: 61
Note ON: Time 7080, Note Name: D#4, Velocity: 61
Note OFF: Time 7200, Note Name: D#4
Note OFF: Time 7200, Note Name: A#3
Note OFF: Time 7200, Note Name: F#3
Note ON: Time 7200, Note Name: G#3, Velocity: 63
Note OFF: Time 7320, Note Name: G#3
Note ON: Time 7680, Note Name: D#2, Velocity: 37
Note ON: Time 7680, Note Name: B2, Velocity: 45
Note OFF: Time 7800, Note Name: B2
Note OFF: Time 7800, Note Name: D#2
Note ON: Time 8160, Note Name: A#3, Velocity: 28
Note ON: Time 8160, Note Name: G3, Velocity: 28
Note ON: Time 8160, Note Name: E4, Velocity: 32
Note OFF: Time 8640, Note Name: E4
Note OFF: Time 8640, Note Name: G3
Note OFF: Time 8640, Note Name: A#3
Note ON: Time 8640, Note Name: G#3, Velocity: 23
Note ON: Time 8640, Note Name: B3, Velocity: 23
Note ON: Time 8640, Note Name: E4, Velocity: 28
Note OFF: Time 8880, Note Name: E4
Note OFF: Time 8880, Note Name: B3
Note OFF: Time 8880, Note Name: G#3
Note ON: Time 9120, Note Name: A#2, Velocity: 36
Note ON: Time 9120, Note Name: C#4, Velocity: 42
Note ON: Time 9240, Note Name: G#2, Velocity: 33
Note ON: Time 9240, Note Name: B3, Velocity: 39
Note OFF: Time 9250, Note Name: C#4
Note OFF: Time 9250, Note Name: A#2
Note ON: Time 9360, Note Name: D#2, Velocity: 33
Note ON: Time 9360, Note Name: F#3, Velocity: 40
Note OFF: Time 9370, Note Name: G#2
Note OFF: Time 9370, Note Name: B3
Note ON: Time 9480, Note Name: G#2, Velocity: 35
Note ON: Time 9480, Note Name: E3, Velocity: 42
Note OFF: Time 9490, Note Name: D#2
Note OFF: Time 9490, Note Name: F#3
Note ON: Time 9600, Note Name: A#2, Velocity: 39
Note ON: Time 9600, Note Name: C#4, Velocity: 47
Note OFF: Time 9610, Note Name: G#2
Note OFF: Time 9610, Note Name: E3
Note ON: Time 9720, Note Name: G#2, Velocity: 38
Note ON: Time 9720, Note Name: B3, Velocity: 45
Note OFF: Time 9730, Note Name: A#2
Note OFF: Time 9730, Note Name: C#4
Note ON: Time 9840, Note Name: D#2, Velocity: 39
Note ON: Time 9840, Note Name: F#3, Velocity: 47
Note OFF: Time 9850, Note Name: G#2
Note OFF: Time 9850, Note Name: B3
Note ON: Time 9960, Note Name: G#2, Velocity: 40
Note ON: Time 9960, Note Name: E3, Velocity: 47
Note OFF: Time 9970, Note Name: D#2
Note OFF: Time 9970, Note Name: F#3
Note ON: Time 10080, Note Name: A#2, Velocity: 44
Note ON: Time 10080, Note Name: C#4, Velocity: 53
Note OFF: Time 10090, Note Name: G#2
Note OFF: Time 10090, Note Name: E3
Note ON: Time 10200, Note Name: G#2, Velocity: 43
Note ON: Time 10200, Note Name: B3, Velocity: 50
Note OFF: Time 10210, Note Name: A#2
Note OFF: Time 10210, Note Name: C#4
Note ON: Time 10320, Note Name: D#2, Velocity: 44
Note ON: Time 10320, Note Name: F#3, Velocity: 53
Note OFF: Time 10330, Note Name: G#2
Note OFF: Time 10330, Note Name: B3
Note ON: Time 10440, Note Name: G#2, Velocity: 46
Note ON: Time 10440, Note Name: E3, Velocity: 55
Note OFF: Time 10450, Note Name: D#2
Note OFF: Time 10450, Note Name: F#3
Note ON: Time 10560, Note Name: A#2, Velocity: 52
Note ON: Time 10560, Note Name: C#4, Velocity: 61
Note OFF: Time 10570, Note Name: G#2
Note OFF: Time 10570, Note Name: E3
Note ON: Time 10680, Note Name: G#2, Velocity: 49
Note ON: Time 10680, Note Name: B3, Velocity: 58
Note OFF: Time 10690, Note Name: A#2
Note OFF: Time 10690, Note Name: C#4
Note ON: Time 10800, Note Name: D#2, Velocity: 49
Note ON: Time 10800, Note Name: F#3, Velocity: 59
Note OFF: Time 10810, Note Name: G#2
Note OFF: Time 10810, Note Name: B3
Note ON: Time 10920, Note Name: G#2, Velocity: 52
Note ON: Time 10920, Note Name: E3, Velocity: 61
Note OFF: Time 10930, Note Name: D#2
Note OFF: Time 10930, Note Name: F#3
Note ON: Time 11040, Note Name: A#2, Velocity: 58
Note ON: Time 11040, Note Name: C#4, Velocity: 70
Note OFF: Time 11050, Note Name: G#2
Note OFF: Time 11050, Note Name: E3
Note ON: Time 11160, Note Name: G#2, Velocity: 55
Note ON: Time 11160, Note Name: B3, Velocity: 64
Note OFF: Time 11170, Note Name: A#2
Note OFF: Time 11170, Note Name: C#4
Note ON: Time 11280, Note Name: D#2, Velocity: 55
Note ON: Time 11280, Note Name: F#3, Velocity: 66
Note OFF: Time 11290, Note Name: G#2
Note OFF: Time 11290, Note Name: B3
Note ON: Time 11400, Note Name: G#2, Velocity: 57
Note ON: Time 11400, Note Name: E3, Velocity: 68
Note OFF: Time 11410, Note Name: D#2
Note OFF: Time 11410, Note Name: F#3
Note OFF: Time 11520, Note Name: G#2
Note OFF: Time 11520, Note Name: E3
Note ON: Time 11520, Note Name: A2, Velocity: 63
Note ON: Time 11520, Note Name: D#2, Velocity: 63
Note ON: Time 11520, Note Name: D#3, Velocity: 75
Note OFF: Time 12000, Note Name: D#3
Note OFF: Time 12000, Note Name: D#2
Note OFF: Time 12000, Note Name: A2
Note ON: Time 12240, Note Name: F#3, Velocity: 45
Note OFF: Time 12360, Note Name: F#3
Note ON: Time 12360, Note Name: G3, Velocity: 47
Note OFF: Time 12480, Note Name: G3
Note ON: Time 12480, Note Name: G#3, Velocity: 50
Note OFF: Time 12600, Note Name: G#3
Note ON: Time 12600, Note Name: A3, Velocity: 52
Note OFF: Time 12720, Note Name: A3
Note ON: Time 12720, Note Name: A#3, Velocity: 55
Note OFF: Time 12840, Note Name: A#3
Note ON: Time 12840, Note Name: B3, Velocity: 57
Note OFF: Time 12960, Note Name: B3
Note ON: Time 12960, Note Name: C4, Velocity: 71
Note OFF: Time 13080, Note Name: C4
Note ON: Time 13440, Note Name: D#2, Velocity: 54
Note ON: Time 13440, Note Name: D#3, Velocity: 64
Note OFF: Time 13560, Note Name: D#3
Note OFF: Time 13560, Note Name: D#2
Note ON: Time 13920, Note Name: A3, Velocity: 67
Note ON: Time 13920, Note Name: D#3, Velocity: 56
Note ON: Time 13920, Note Name: D#4, Velocity: 67
Note OFF: Time 14400, Note Name: D#4
Note OFF: Time 14400, Note Name: D#3
Note OFF: Time 14400, Note Name: A3
Note ON: Time 14400, Note Name: D#1, Velocity: 52
Note ON: Time 14400, Note Name: D#2, Velocity: 62
Note OFF: Time 14640, Note Name: D#2
Note OFF: Time 14640, Note Name: D#1
Note ON: Time 15120, Note Name: G#3, Velocity: 49
Note OFF: Time 15240, Note Name: G#3
Note ON: Time 15240, Note Name: A3, Velocity: 51
Note OFF: Time 15360, Note Name: A3
Note ON: Time 15360, Note Name: A#3, Velocity: 55
Note OFF: Time 15480, Note Name: A#3
Note ON: Time 15480, Note Name: B3, Velocity: 57
Note OFF: Time 15600, Note Name: B3
Note ON: Time 15600, Note Name: C4, Velocity: 60
Note OFF: Time 15720, Note Name: C4
Note ON: Time 15720, Note Name: C#4, Velocity: 62
Note OFF: Time 15840, Note Name: C#4
Note ON: Time 15840, Note Name: D4, Velocity: 71
Note OFF: Time 15960, Note Name: D4
Note ON: Time 16320, Note Name: D#2, Velocity: 54
Note ON: Time 16320, Note Name: D#3, Velocity: 64
Note OFF: Time 16440, Note Name: D#3
Note OFF: Time 16440, Note Name: D#2
Note ON: Time 16800, Note Name: A#3, Velocity: 58
Note ON: Time 16800, Note Name: D4, Velocity: 70
Note ON: Time 16800, Note Name: G#3, Velocity: 58
Note ON: Time 16800, Note Name: G#4, Velocity: 70
Note OFF: Time 17280, Note Name: G#4
Note OFF: Time 17280, Note Name: A#3
Note OFF: Time 17280, Note Name: D4
Note OFF: Time 17280, Note Name: G#3
Note ON: Time 17280, Note Name: D#1, Velocity: 54
Note ON: Time 17280, Note Name: D#2, Velocity: 65
Note OFF: Time 17520, Note Name: D#2
Note OFF: Time 17520, Note Name: D#1
Note ON: Time 17760, Note Name: A#1, Velocity: 54
Note ON: Time 17760, Note Name: A#2, Velocity: 64
Note OFF: Time 17880, Note Name: A#2
Note OFF: Time 17880, Note Name: A#1
Note ON: Time 18000, Note Name: D#2, Velocity: 46
Note ON: Time 18000, Note Name: D#3, Velocity: 55
Note OFF: Time 18060, Note Name: D#3
Note OFF: Time 18060, Note Name: D#2
Note ON: Time 18120, Note Name: F2, Velocity: 49
Note ON: Time 18120, Note Name: F3, Velocity: 58
Note OFF: Time 18180, Note Name: F3
Note OFF: Time 18180, Note Name: F2
Note ON: Time 18240, Note Name: G2, Velocity: 51
Note ON: Time 18240, Note Name: G3, Velocity: 60
Note OFF: Time 18300, Note Name: G3
Note OFF: Time 18300, Note Name: G2
Note ON: Time 18360, Note Name: G#2, Velocity: 52
Note ON: Time 18360, Note Name: G#3, Velocity: 62
Note OFF: Time 18420, Note Name: G#3
Note OFF: Time 18420, Note Name: G#2
Note ON: Time 18480, Note Name: A#2, Velocity: 55
Note ON: Time 18480, Note Name: A#3, Velocity: 65
Note OFF: Time 18540, Note Name: A#3
Note OFF: Time 18540, Note Name: A#2
Note ON: Time 18600, Note Name: C3, Velocity: 56
Note ON: Time 18600, Note Name: C4, Velocity: 67
Note OFF: Time 18660, Note Name: C4
Note OFF: Time 18660, Note Name: C3
Note ON: Time 18720, Note Name: C#3, Velocity: 59
Note ON: Time 18720, Note Name: C#4, Velocity: 70
Note OFF: Time 18780, Note Name: C#4
Note OFF: Time 18780, Note Name: C#3
Note ON: Time 19200, Note Name: D#2, Velocity: 54
Note ON: Time 19200, Note Name: D#3, Velocity: 64
Note OFF: Time 19260, Note Name: D#3
Note OFF: Time 19260, Note Name: D#2
Note ON: Time 19680, Note Name: G3, Velocity: 59
Note ON: Time 19680, Note Name: G4, Velocity: 70
Note OFF: Time 20160, Note Name: G3
Note OFF: Time 20280, Note Name: G4
Note ON: Time 20280, Note Name: C#4, Velocity: 53
Note OFF: Time 20400, Note Name: C#4
Note ON: Time 20400, Note Name: A#3, Velocity: 53
Note OFF: Time 20520, Note Name: A#3
Note ON: Time 20520, Note Name: D#3, Velocity: 54
Note OFF: Time 20640, Note Name: D#3
Note ON: Time 20640, Note Name: G4, Velocity: 63
Note OFF: Time 20760, Note Name: G4
Note ON: Time 20760, Note Name: C#4, Velocity: 58
Note OFF: Time 20880, Note Name: C#4
Note ON: Time 20880, Note Name: A#3, Velocity: 58
Note OFF: Time 21000, Note Name: A#3
Note ON: Time 21000, Note Name: D#3, Velocity: 58
Note OFF: Time 21120, Note Name: D#3
Note ON: Time 21120, Note Name: G4, Velocity: 63
Note OFF: Time 21240, Note Name: G4
Note ON: Time 21240, Note Name: C#4, Velocity: 58
Note OFF: Time 21360, Note Name: C#4
Note ON: Time 21360, Note Name: A#3, Velocity: 58
Note OFF: Time 21480, Note Name: A#3
Note ON: Time 21480, Note Name: D#3, Velocity: 59
Note OFF: Time 21600, Note Name: D#3
Note ON: Time 21600, Note Name: G4, Velocity: 68
Note OFF: Time 21720, Note Name: G4
Note ON: Time 21720, Note Name: C#4, Velocity: 60
Note OFF: Time 21840, Note Name: C#4
Note ON: Time 21840, Note Name: A#3, Velocity: 61
Note OFF: Time 21960, Note Name: A#3
Note ON: Time 21960, Note Name: D#3, Velocity: 62
Note OFF: Time 22080, Note Name: D#3
Note ON: Time 22080, Note Name: C#4, Velocity: 70
Note OFF: Time 22200, Note Name: C#4
Note ON: Time 22200, Note Name: G3, Velocity: 63
Note OFF: Time 22320, Note Name: G3
Note ON: Time 22320, Note Name: D#3, Velocity: 63
Note OFF: Time 22440, Note Name: D#3
Note ON: Time 22440, Note Name: A#2, Velocity: 63
Note OFF: Time 22560, Note Name: A#2
Note ON: Time 22560, Note Name: G3, Velocity: 72
Note OFF: Time 22680, Note Name: G3
Note ON: Time 22680, Note Name: C#3, Velocity: 66
Note OFF: Time 22800, Note Name: C#3
Note ON: Time 22800, Note Name: A#2, Velocity: 65
Note OFF: Time 22920, Note Name: A#2
Note ON: Time 22920, Note Name: D#2, Velocity: 66
Note OFF: Time 23040, Note Name: D#2
Note ON: Time 23040, Note Name: G#1, Velocity: 61
Note ON: Time 23040, Note Name: G#2, Velocity: 72
Note OFF: Time 23160, Note Name: G#2
Note OFF: Time 23160, Note Name: G#1
Note ON: Time 23280, Note Name: D#3, Velocity: 61
Note ON: Time 23280, Note Name: D#4, Velocity: 72
Note OFF: Time 23520, Note Name: D#4
Note OFF: Time 23520, Note Name: D#3
Note ON: Time 23520, Note Name: G#4, Velocity: 70
Note ON: Time 23520, Note Name: C4, Velocity: 70
Note ON: Time 23520, Note Name: G#3, Velocity: 59
Note OFF: Time 23760, Note Name: G#3
Note OFF: Time 23760, Note Name: C4
Note OFF: Time 23760, Note Name: G#4
Note ON: Time 23760, Note Name: D#2, Velocity: 66
Note ON: Time 23760, Note Name: D#3, Velocity: 78
Note OFF: Time 23820, Note Name: D#3
Note OFF: Time 23820, Note Name: D#2
Note ON: Time 24000, Note Name: G#2, Velocity: 67
Note ON: Time 24000, Note Name: G#3, Velocity: 79
Note OFF: Time 24120, Note Name: G#3
Note OFF: Time 24120, Note Name: G#2
Note ON: Time 24240, Note Name: D#1, Velocity: 56
Note ON: Time 24240, Note Name: D#2, Velocity: 67
Note OFF: Time 24480, Note Name: D#2
Note OFF: Time 24480, Note Name: D#1
Note ON: Time 24480, Note Name: G#1, Velocity: 61
Note ON: Time 24480, Note Name: G#2, Velocity: 72
Note OFF: Time 24720, Note Name: G#2
Note OFF: Time 24720, Note Name: G#1
Note ON: Time 24720, Note Name: D#4, Velocity: 67
Note ON: Time 24720, Note Name: D#3, Velocity: 56
Note OFF: Time 24960, Note Name: D#3
Note OFF: Time 24960, Note Name: D#4
Note ON: Time 24960, Note Name: G#4, Velocity: 69
Note ON: Time 24960, Note Name: C4, Velocity: 69
Note ON: Time 24960, Note Name: G#3, Velocity: 58
Note OFF: Time 25200, Note Name: G#3
Note OFF: Time 25200, Note Name: C4
Note OFF: Time 25200, Note Name: G#4
Note ON: Time 25200, Note Name: D#2, Velocity: 61
Note ON: Time 25200, Note Name: D#3, Velocity: 73
Note OFF: Time 25260, Note Name: D#3
Note OFF: Time 25260, Note Name: D#2
Note ON: Time 25440, Note Name: G#2, Velocity: 67
Note ON: Time 25440, Note Name: G#3, Velocity: 79
Note OFF: Time 25560, Note Name: G#3
Note OFF: Time 25560, Note Name: G#2
Note ON: Time 25680, Note Name: D#1, Velocity: 56
Note ON: Time 25680, Note Name: D#2, Velocity: 67
Note OFF: Time 25920, Note Name: D#2
Note OFF: Time 25920, Note Name: D#1
Note ON: Time 25920, Note Name: G#1, Velocity: 61
Note ON: Time 25920, Note Name: G#2, Velocity: 72
Note OFF: Time 26160, Note Name: G#2
Note OFF: Time 26160, Note Name: G#1
Note ON: Time 26160, Note Name: D#4, Velocity: 67
Note ON: Time 26160, Note Name: D#3, Velocity: 56
Note OFF: Time 26400, Note Name: D#3
Note OFF: Time 26400, Note Name: D#4
Note ON: Time 26400, Note Name: G#4, Velocity: 69
Note ON: Time 26400, Note Name: C4, Velocity: 69
Note ON: Time 26400, Note Name: G#3, Velocity: 58
Note OFF: Time 26640, Note Name: G#3
Note OFF: Time 26640, Note Name: C4
Note OFF: Time 26640, Note Name: G#4
Note ON: Time 26640, Note Name: D#2, Velocity: 56
Note ON: Time 26640, Note Name: D#3, Velocity: 67
Note OFF: Time 26760, Note Name: D#3
Note OFF: Time 26760, Note Name: D#2
Note ON: Time 26880, Note Name: G#2, Velocity: 59
Note ON: Time 26880, Note Name: G#3, Velocity: 70
Note OFF: Time 27000, Note Name: G#3
Note OFF: Time 27000, Note Name: G#2
Note ON: Time 27060, Note Name: D#2, Velocity: 57
Note ON: Time 27090, Note Name: A#2, Velocity: 57
Note ON: Time 27120, Note Name: F#3, Velocity: 68
Note OFF: Time 27270, Note Name: F#3
Note OFF: Time 27270, Note Name: A#2
Note OFF: Time 27270, Note Name: D#2
Note ON: Time 27270, Note Name: F2, Velocity: 57
Note ON: Time 27300, Note Name: C3, Velocity: 57
Note ON: Time 27330, Note Name: D#3, Velocity: 68
Note ON: Time 27360, Note Name: A3, Velocity: 68
Note OFF: Time 27510, Note Name: A3
Note OFF: Time 27510, Note Name: D#3
Note OFF: Time 27510, Note Name: F2
Note ON: Time 27510, Note Name: C3, Velocity: 56
Note ON: Time 27540, Note Name: F3, Velocity: 56
Note ON: Time 27570, Note Name: A3, Velocity: 67
Note OFF: Time 27600, Note Name: C3
Note ON: Time 27600, Note Name: D#4, Velocity: 67
Note OFF: Time 27750, Note Name: D#4
Note OFF: Time 27750, Note Name: A3
Note OFF: Time 27750, Note Name: F3
Note OFF: Time 27750, Note Name: C3
Note ON: Time 27750, Note Name: A#2, Velocity: 58
Note ON: Time 27780, Note Name: F3, Velocity: 58
Note ON: Time 27810, Note Name: A#3, Velocity: 69
Note ON: Time 27840, Note Name: C#4, Velocity: 69
Note OFF: Time 28080, Note Name: C#4
Note OFF: Time 28080, Note Name: A#2
Note OFF: Time 28080, Note Name: F3
Note OFF: Time 28080, Note Name: A#3
Note ON: Time 28080, Note Name: F#1, Velocity: 55
Note ON: Time 28080, Note Name: F#2, Velocity: 65
Note OFF: Time 28320, Note Name: F#2
Note OFF: Time 28320, Note Name: F#1
Note ON: Time 28320, Note Name: F1, Velocity: 55
Note ON: Time 28320, Note Name: F2, Velocity: 65
Note OFF: Time 28560, Note Name: F2
Note OFF: Time 28560, Note Name: F1
Note ON: Time 28560, Note Name: C#2, Velocity: 53
Note ON: Time 28560, Note Name: C#3, Velocity: 63
Note OFF: Time 28800, Note Name: C#3
Note OFF: Time 28800, Note Name: C#2
Note ON: Time 28800, Note Name: A#1, Velocity: 61
Note ON: Time 28800, Note Name: A#2, Velocity: 72
Note OFF: Time 28920, Note Name: A#2
Note OFF: Time 28920, Note Name: A#1
Note ON: Time 29040, Note Name: F3, Velocity: 61
Note ON: Time 29040, Note Name: F4, Velocity: 72
Note OFF: Time 29280, Note Name: F4
Note OFF: Time 29280, Note Name: F3
Note ON: Time 29280, Note Name: A#4, Velocity: 70
Note ON: Time 29280, Note Name: C#4, Velocity: 70
Note ON: Time 29280, Note Name: A#3, Velocity: 59
Note OFF: Time 29520, Note Name: A#3
Note OFF: Time 29520, Note Name: C#4
Note OFF: Time 29520, Note Name: A#4
Note ON: Time 29520, Note Name: F2, Velocity: 66
Note ON: Time 29520, Note Name: F3, Velocity: 78
Note OFF: Time 29580, Note Name: F3
Note OFF: Time 29580, Note Name: F2
Note ON: Time 29760, Note Name: A#2, Velocity: 67
Note ON: Time 29760, Note Name: A#3, Velocity: 79
Note OFF: Time 29880, Note Name: A#3
Note OFF: Time 29880, Note Name: A#2
Note ON: Time 30000, Note Name: F1, Velocity: 56
Note ON: Time 30000, Note Name: F2, Velocity: 67
Note OFF: Time 30240, Note Name: F2
Note OFF: Time 30240, Note Name: F1
Note ON: Time 30240, Note Name: A#1, Velocity: 61
Note ON: Time 30240, Note Name: A#2, Velocity: 72
Note OFF: Time 30480, Note Name: A#2
Note OFF: Time 30480, Note Name: A#1
Note ON: Time 30480, Note Name: F4, Velocity: 67
Note ON: Time 30480, Note Name: F3, Velocity: 56
Note OFF: Time 30720, Note Name: F3
Note OFF: Time 30720, Note Name: F4
Note ON: Time 30720, Note Name: A#4, Velocity: 69
Note ON: Time 30720, Note Name: C#4, Velocity: 69
Note ON: Time 30720, Note Name: A#3, Velocity: 58
Note OFF: Time 30960, Note Name: A#3
Note OFF: Time 30960, Note Name: C#4
Note OFF: Time 30960, Note Name: A#4
Note ON: Time 30960, Note Name: F2, Velocity: 61
Note ON: Time 30960, Note Name: F3, Velocity: 73
Note OFF: Time 31020, Note Name: F3
Note OFF: Time 31020, Note Name: F2
Note ON: Time 31200, Note Name: A#2, Velocity: 67
Note ON: Time 31200, Note Name: A#3, Velocity: 79
Note OFF: Time 31320, Note Name: A#3
Note OFF: Time 31320, Note Name: A#2
Note ON: Time 31440, Note Name: A#1, Velocity: 56
Note ON: Time 31440, Note Name: A#2, Velocity: 67
Note OFF: Time 31680, Note Name: A#2
Note OFF: Time 31680, Note Name: A#1
Note ON: Time 31680, Note Name: D#1, Velocity: 61
Note ON: Time 31680, Note Name: D#2, Velocity: 72
Note OFF: Time 31800, Note Name: D#2
Note OFF: Time 31800, Note Name: D#1
Note ON: Time 31920, Note Name: C#4, Velocity: 55
Note ON: Time 31920, Note Name: G4, Velocity: 66
Note ON: Time 31920, Note Name: D#4, Velocity: 55
Note OFF: Time 32040, Note Name: D#4
Note OFF: Time 32040, Note Name: G4
Note OFF: Time 32040, Note Name: C#4
Note ON: Time 32160, Note Name: D#2, Velocity: 59
Note ON: Time 32160, Note Name: D#3, Velocity: 69
Note OFF: Time 32280, Note Name: D#3
Note OFF: Time 32280, Note Name: D#2
Note ON: Time 32400, Note Name: C4, Velocity: 53
Note ON: Time 32400, Note Name: D#4, Velocity: 63
Note OFF: Time 32520, Note Name: D#4
Note OFF: Time 32520, Note Name: C4
Note ON: Time 32640, Note Name: D#2, Velocity: 57
Note ON: Time 32640, Note Name: D#3, Velocity: 67
Note OFF: Time 32760, Note Name: D#3
Note OFF: Time 32760, Note Name: D#2
Note ON: Time 32880, Note Name: A#3, Velocity: 51
Note ON: Time 32880, Note Name: D#4, Velocity: 61
Note OFF: Time 33000, Note Name: D#4
Note OFF: Time 33000, Note Name: A#3
Note ON: Time 33120, Note Name: A#1, Velocity: 54
Note ON: Time 33120, Note Name: A#2, Velocity: 64
Note OFF: Time 33240, Note Name: A#2
Note OFF: Time 33240, Note Name: A#1
Note ON: Time 33360, Note Name: G#3, Velocity: 50
Note ON: Time 33360, Note Name: D4, Velocity: 60
Note ON: Time 33360, Note Name: A#3, Velocity: 50
Note OFF: Time 33480, Note Name: A#3
Note OFF: Time 33480, Note Name: D4
Note OFF: Time 33480, Note Name: G#3
Note ON: Time 33600, Note Name: D#2, Velocity: 56
Note ON: Time 33600, Note Name: D#3, Velocity: 66
Note OFF: Time 33720, Note Name: D#3
Note OFF: Time 33720, Note Name: D#2
Note ON: Time 33840, Note Name: G3, Velocity: 52
Note ON: Time 33840, Note Name: A#3, Velocity: 62
Note OFF: Time 33960, Note Name: A#3
Note OFF: Time 33960, Note Name: G3
Note ON: Time 34080, Note Name: F2, Velocity: 57
Note ON: Time 34080, Note Name: F3, Velocity: 68
Note OFF: Time 34320, Note Name: F2
Note ON: Time 34320, Note Name: G#3, Velocity: 62
Note OFF: Time 34560, Note Name: G#3
Note OFF: Time 34560, Note Name: F3
Note ON: Time 34560, Note Name: C#2, Velocity: 51
Note ON: Time 34560, Note Name: C#3, Velocity: 61
Note OFF: Time 34800, Note Name: C#3
Note OFF: Time 34800, Note Name: C#2
Note ON: Time 34800, Note Name: F3, Velocity: 45
Note ON: Time 34800, Note Name: A#3, Velocity: 53
Note OFF: Time 35040, Note Name: A#3
Note OFF: Time 35040, Note Name: F3
Note ON: Time 35040, Note Name: C2, Velocity: 45
Note ON: Time 35040, Note Name: C3, Velocity: 54
Note OFF: Time 35280, Note Name: C3
Note OFF: Time 35280, Note Name: C2
Note ON: Time 35280, Note Name: E3, Velocity: 40
Note ON: Time 35280, Note Name: C4, Velocity: 48
Note ON: Time 35280, Note Name: A#3, Velocity: 40
Note OFF: Time 35520, Note Name: A#3
Note OFF: Time 35520, Note Name: C4
Note OFF: Time 35520, Note Name: E3
Note ON: Time 35520, Note Name: F1, Velocity: 49
Note ON: Time 35520, Note Name: F2, Velocity: 58
Note OFF: Time 35760, Note Name: F2
Note OFF: Time 35760, Note Name: F1
Note ON: Time 35760, Note Name: F3, Velocity: 46
Note ON: Time 35760, Note Name: G#3, Velocity: 46
Note ON: Time 35760, Note Name: C4, Velocity: 55
Note OFF: Time 36000, Note Name: C4
Note OFF: Time 36000, Note Name: G#3
Note OFF: Time 36000, Note Name: F3
Note ON: Time 36000, Note Name: D#2, Velocity: 47
Note ON: Time 36000, Note Name: D#3, Velocity: 56
Note OFF: Time 36120, Note Name: D#3
Note OFF: Time 36120, Note Name: D#2
Note ON: Time 36240, Note Name: D#3, Velocity: 44
Note ON: Time 36240, Note Name: A#3, Velocity: 52
Note OFF: Time 36480, Note Name: A#3
Note OFF: Time 36480, Note Name: D#3
Note ON: Time 36480, Note Name: G#2, Velocity: 44
Note ON: Time 36480, Note Name: D#3, Velocity: 44
Note ON: Time 36480, Note Name: G#3, Velocity: 52
Note OFF: Time 36720, Note Name: G#3
Note OFF: Time 36720, Note Name: D#3
Note OFF: Time 36720, Note Name: G#2
Note ON: Time 37200, Note Name: G#2, Velocity: 56
Note ON: Time 37200, Note Name: G#3, Velocity: 66
Note OFF: Time 37440, Note Name: G#3
Note OFF: Time 37440, Note Name: G#2
Note ON: Time 37440, Note Name: C#2, Velocity: 57
Note ON: Time 37440, Note Name: C#3, Velocity: 68
Note OFF: Time 37680, Note Name: C#3
Note OFF: Time 37680, Note Name: C#2
Note ON: Time 37680, Note Name: F3, Velocity: 50
Note ON: Time 37680, Note Name: A#3, Velocity: 59
Note OFF: Time 37920, Note Name: A#3
Note OFF: Time 37920, Note Name: F3
Note ON: Time 37920, Note Name: C2, Velocity: 58
Note ON: Time 37920, Note Name: C3, Velocity: 69
Note OFF: Time 38160, Note Name: C3
Note OFF: Time 38160, Note Name: C2
Note ON: Time 38160, Note Name: A#3, Velocity: 52
Note ON: Time 38160, Note Name: E4, Velocity: 62
Note ON: Time 38160, Note Name: C4, Velocity: 52
Note OFF: Time 38400, Note Name: C4
Note OFF: Time 38400, Note Name: E4
Note OFF: Time 38400, Note Name: A#3
Note ON: Time 38400, Note Name: F1, Velocity: 60
Note ON: Time 38400, Note Name: F2, Velocity: 71
Note OFF: Time 38640, Note Name: F2
Note OFF: Time 38640, Note Name: F1
Note ON: Time 38640, Note Name: G#3, Velocity: 67
Note ON: Time 38640, Note Name: C4, Velocity: 67
Note ON: Time 38640, Note Name: F4, Velocity: 67
Note OFF: Time 38880, Note Name: F4
Note OFF: Time 38880, Note Name: C4
Note OFF: Time 38880, Note Name: G#3
Note ON: Time 38880, Note Name: D#2, Velocity: 59
Note ON: Time 38880, Note Name: D#3, Velocity: 70
Note OFF: Time 39000, Note Name: D#3
Note OFF: Time 39000, Note Name: D#2
Note ON: Time 39120, Note Name: A#3, Velocity: 55
Note ON: Time 39120, Note Name: C#4, Velocity: 55
Note ON: Time 39120, Note Name: D#4, Velocity: 55
Note ON: Time 39120, Note Name: G4, Velocity: 65
Note OFF: Time 39360, Note Name: G4
Note OFF: Time 39360, Note Name: A#3
Note OFF: Time 39360, Note Name: C#4
Note OFF: Time 39360, Note Name: D#4
Note ON: Time 39360, Note Name: G#3, Velocity: 55
Note ON: Time 39360, Note Name: D#4, Velocity: 55
Note ON: Time 39360, Note Name: G#4, Velocity: 65
Note OFF: Time 39480, Note Name: G#4
Note OFF: Time 39480, Note Name: D#4
Note OFF: Time 39480, Note Name: G#3
Note ON: Time 39600, Note Name: G#4, Velocity: 64
Note ON: Time 39600, Note Name: B3, Velocity: 64
Note ON: Time 39600, Note Name: D4, Velocity: 64
Note ON: Time 39600, Note Name: B4, Velocity: 64
Note OFF: Time 39780, Note Name: B4
Note OFF: Time 39780, Note Name: G#4
Note OFF: Time 39780, Note Name: B3
Note OFF: Time 39780, Note Name: D4
Note ON: Time 39780, Note Name: G#4, Velocity: 58
Note ON: Time 39780, Note Name: C4, Velocity: 58
Note ON: Time 39780, Note Name: C5, Velocity: 58
Note ON: Time 39780, Note Name: D#4, Velocity: 58
Note OFF: Time 39834, Note Name: D#4
Note OFF: Time 39834, Note Name: G#4
Note OFF: Time 39834, Note Name: C4
Note OFF: Time 39834, Note Name: C5
Note ON: Time 39840, Note Name: G#4, Velocity: 65
Note ON: Time 39840, Note Name: C5, Velocity: 65
Note ON: Time 39840, Note Name: C4, Velocity: 65
Note ON: Time 39840, Note Name: D#4, Velocity: 65
Note OFF: Time 39960, Note Name: D#4
Note OFF: Time 39960, Note Name: G#4
Note OFF: Time 39960, Note Name: C5
Note OFF: Time 39960, Note Name: C4
Note ON: Time 40020, Note Name: F3, Velocity: 56
Note ON: Time 40050, Note Name: D#4, Velocity: 56
Note ON: Time 40080, Note Name: A4, Velocity: 66
Note OFF: Time 40260, Note Name: A4
Note OFF: Time 40260, Note Name: D#4
Note OFF: Time 40260, Note Name: F3
Note ON: Time 40260, Note Name: A#2, Velocity: 60
Note ON: Time 40290, Note Name: F3, Velocity: 60
Note ON: Time 40320, Note Name: C#4, Velocity: 71
Note OFF: Time 40500, Note Name: C#4
Note OFF: Time 40500, Note Name: F3
Note OFF: Time 40500, Note Name: A#2
Note ON: Time 40500, Note Name: D#2, Velocity: 56
Note ON: Time 40530, Note Name: A#2, Velocity: 56
Note ON: Time 40560, Note Name: F#3, Velocity: 66
Note OFF: Time 40740, Note Name: F#3
Note OFF: Time 40740, Note Name: A#2
Note OFF: Time 40740, Note Name: D#2
Note ON: Time 40740, Note Name: A#1, Velocity: 52
Note ON: Time 40770, Note Name: F2, Velocity: 52
Note ON: Time 40800, Note Name: C#3, Velocity: 62
Note OFF: Time 40980, Note Name: C#3
Note OFF: Time 40980, Note Name: A#1
Note OFF: Time 41010, Note Name: F2
Note ON: Time 41040, Note Name: D#1, Velocity: 52
Note ON: Time 41040, Note Name: D#2, Velocity: 62
Note OFF: Time 41220, Note Name: D#2
Note OFF: Time 41220, Note Name: D#1
Note ON: Time 41220, Note Name: A#1, Velocity: 52
Note ON: Time 41250, Note Name: F2, Velocity: 52
Note ON: Time 41280, Note Name: C#3, Velocity: 62
Note OFF: Time 41460, Note Name: C#3
Note OFF: Time 41460, Note Name: F2
Note OFF: Time 41460, Note Name: A#1
Note ON: Time 41460, Note Name: D#2, Velocity: 51
Note ON: Time 41490, Note Name: A#2, Velocity: 51
Note ON: Time 41520, Note Name: D#3, Velocity: 61
Note OFF: Time 41700, Note Name: D#3
Note OFF: Time 41700, Note Name: A#2
Note OFF: Time 41700, Note Name: D#2
Note ON: Time 41700, Note Name: A#1, Velocity: 56
Note ON: Time 41730, Note Name: F2, Velocity: 56
Note ON: Time 41760, Note Name: C#3, Velocity: 66
Note OFF: Time 41940, Note Name: C#3
Note OFF: Time 41940, Note Name: F2
Note OFF: Time 41940, Note Name: A#1
Note ON: Time 42000, Note Name: A1, Velocity: 50
Note OFF: Time 42060, Note Name: A1
Note ON: Time 42060, Note Name: A#1, Velocity: 50
Note OFF: Time 42120, Note Name: A#1
Note ON: Time 42120, Note Name: C2, Velocity: 51
Note OFF: Time 42180, Note Name: C2
Note ON: Time 42180, Note Name: C#2, Velocity: 51
Note OFF: Time 42240, Note Name: C#2
Note ON: Time 42240, Note Name: D#2, Velocity: 51
Note OFF: Time 42300, Note Name: D#2
Note ON: Time 42300, Note Name: F2, Velocity: 52
Note OFF: Time 42360, Note Name: F2
Note ON: Time 42360, Note Name: G2, Velocity: 53
Note OFF: Time 42420, Note Name: G2
Note ON: Time 42420, Note Name: A2, Velocity: 53
Note OFF: Time 42480, Note Name: A2
Note ON: Time 42480, Note Name: A#2, Velocity: 54
Note OFF: Time 42540, Note Name: A#2
Note ON: Time 42540, Note Name: C3, Velocity: 55
Note OFF: Time 42600, Note Name: C3
Note ON: Time 42600, Note Name: C#3, Velocity: 55
Note OFF: Time 42660, Note Name: C#3
Note ON: Time 42660, Note Name: D#3, Velocity: 56
Note OFF: Time 42720, Note Name: D#3
Note ON: Time 42720, Note Name: F3, Velocity: 56
Note OFF: Time 42780, Note Name: F3
Note ON: Time 42780, Note Name: G3, Velocity: 56
Note OFF: Time 42840, Note Name: G3
Note ON: Time 42840, Note Name: A3, Velocity: 57
Note OFF: Time 42900, Note Name: A3
Note ON: Time 42900, Note Name: A#3, Velocity: 57
Note OFF: Time 42960, Note Name: A#3
Note ON: Time 42960, Note Name: C4, Velocity: 58
Note OFF: Time 43020, Note Name: C4
Note ON: Time 43020, Note Name: C#4, Velocity: 59
Note OFF: Time 43080, Note Name: C#4
Note ON: Time 43080, Note Name: D#4, Velocity: 59
Note OFF: Time 43140, Note Name: D#4
Note ON: Time 43140, Note Name: F4, Velocity: 60
Note OFF: Time 43200, Note Name: F4
Note ON: Time 43200, Note Name: G4, Velocity: 61
Note OFF: Time 43260, Note Name: G4
Note ON: Time 43260, Note Name: A4, Velocity: 61
Note OFF: Time 43320, Note Name: A4
Note ON: Time 43560, Note Name: D#1, Velocity: 62
Note ON: Time 43560, Note Name: D#2, Velocity: 73
Note OFF: Time 43680, Note Name: D#2
Note OFF: Time 43680, Note Name: D#1
Note ON: Time 43800, Note Name: D#2, Velocity: 56
Note ON: Time 43800, Note Name: D#3, Velocity: 66
Note OFF: Time 43920, Note Name: D#3
Note OFF: Time 43920, Note Name: D#2
Note ON: Time 44040, Note Name: D#3, Velocity: 61
Note ON: Time 44040, Note Name: D#4, Velocity: 72
Note OFF: Time 44280, Note Name: D#4
Note OFF: Time 44280, Note Name: D#3
Note ON: Time 44280, Note Name: F4, Velocity: 70
Note ON: Time 44280, Note Name: C4, Velocity: 59
Note ON: Time 44280, Note Name: F3, Velocity: 59
Note OFF: Time 44520, Note Name: F3
Note OFF: Time 44520, Note Name: C4
Note OFF: Time 44520, Note Name: F4
Note ON: Time 44520, Note Name: C3, Velocity: 56
Note ON: Time 44520, Note Name: G#3, Velocity: 56
Note ON: Time 44520, Note Name: C4, Velocity: 66
Note OFF: Time 44760, Note Name: C4
Note OFF: Time 44760, Note Name: G#3
Note OFF: Time 44760, Note Name: C3
Note ON: Time 44760, Note Name: C#3, Velocity: 61
Note ON: Time 44760, Note Name: G#3, Velocity: 72
Note ON: Time 44760, Note Name: C#4, Velocity: 72
Note OFF: Time 45000, Note Name: C#4
Note OFF: Time 45000, Note Name: G#3
Note OFF: Time 45000, Note Name: C#3
Note ON: Time 45000, Note Name: F2, Velocity: 56
Note ON: Time 45000, Note Name: F3, Velocity: 66
Note OFF: Time 45240, Note Name: F3
Note OFF: Time 45240, Note Name: F2
Note ON: Time 45240, Note Name: A#2, Velocity: 60
Note ON: Time 45240, Note Name: F3, Velocity: 72
Note ON: Time 45240, Note Name: A#3, Velocity: 72
Note OFF: Time 45480, Note Name: A#3
Note OFF: Time 45480, Note Name: F3
Note OFF: Time 45480, Note Name: A#2
Note ON: Time 45480, Note Name: A#1, Velocity: 58
Note ON: Time 45480, Note Name: A#2, Velocity: 69
Note OFF: Time 45720, Note Name: A#2
Note OFF: Time 45720, Note Name: A#1
Note ON: Time 45720, Note Name: D#2, Velocity: 65
Note ON: Time 45720, Note Name: D#3, Velocity: 77
Note OFF: Time 45960, Note Name: D#3
Note OFF: Time 45960, Note Name: D#2
Note ON: Time 45960, Note Name: D#1, Velocity: 60
Note ON: Time 45960, Note Name: D#2, Velocity: 71
Note OFF: Time 46200, Note Name: D#2
Note OFF: Time 46200, Note Name: D#1
Note ON: Time 46200, Note Name: G#1, Velocity: 67
Note ON: Time 46200, Note Name: G#2, Velocity: 79
Note OFF: Time 46320, Note Name: G#2
Note OFF: Time 46320, Note Name: G#1
Note ON: Time 46440, Note Name: C4, Velocity: 67
Note ON: Time 46440, Note Name: D#3, Velocity: 67
Note ON: Time 46440, Note Name: D#4, Velocity: 79
Note OFF: Time 46680, Note Name: D#4
Note OFF: Time 46680, Note Name: D#3
Note OFF: Time 46680, Note Name: C4
Note ON: Time 46680, Note Name: G#4, Velocity: 77
Note ON: Time 46680, Note Name: C4, Velocity: 77
Note ON: Time 46680, Note Name: G#3, Velocity: 64
Note OFF: Time 46920, Note Name: G#3
Note OFF: Time 46920, Note Name: C4
Note OFF: Time 46920, Note Name: G#4
Note ON: Time 46920, Note Name: D#2, Velocity: 72
Note ON: Time 46920, Note Name: D#3, Velocity: 85
Note OFF: Time 46980, Note Name: D#3
Note OFF: Time 46980, Note Name: D#2
Note ON: Time 47160, Note Name: G#2, Velocity: 73
Note ON: Time 47160, Note Name: G#3, Velocity: 86
Note OFF: Time 47280, Note Name: G#3
Note OFF: Time 47280, Note Name: G#2
Note ON: Time 47400, Note Name: D#1, Velocity: 61
Note ON: Time 47400, Note Name: D#2, Velocity: 73
Note OFF: Time 47640, Note Name: D#2
Note OFF: Time 47640, Note Name: D#1
Note ON: Time 47640, Note Name: G#1, Velocity: 67
Note ON: Time 47640, Note Name: G#2, Velocity: 79
Note OFF: Time 47880, Note Name: G#2
Note OFF: Time 47880, Note Name: G#1
Note ON: Time 47880, Note Name: C4, Velocity: 61
Note ON: Time 47880, Note Name: D#4, Velocity: 73
Note ON: Time 47880, Note Name: D#3, Velocity: 61
Note OFF: Time 48120, Note Name: D#3
Note OFF: Time 48120, Note Name: D#4
Note OFF: Time 48120, Note Name: C4
Note ON: Time 48120, Note Name: G#4, Velocity: 75
Note ON: Time 48120, Note Name: C4, Velocity: 75
Note ON: Time 48120, Note Name: G#3, Velocity: 63
Note OFF: Time 48360, Note Name: G#3
Note OFF: Time 48360, Note Name: C4
Note OFF: Time 48360, Note Name: G#4
Note ON: Time 48360, Note Name: D#2, Velocity: 67
Note ON: Time 48360, Note Name: D#3, Velocity: 80
Note OFF: Time 48420, Note Name: D#3
Note OFF: Time 48420, Note Name: D#2
Note ON: Time 48600, Note Name: G#2, Velocity: 73
Note ON: Time 48600, Note Name: G#3, Velocity: 86
Note OFF: Time 48720, Note Name: G#3
Note OFF: Time 48720, Note Name: G#2
Note ON: Time 48840, Note Name: D#1, Velocity: 61
Note ON: Time 48840, Note Name: D#2, Velocity: 73
Note OFF: Time 49080, Note Name: D#2
Note OFF: Time 49080, Note Name: D#1
Note ON: Time 49080, Note Name: G#1, Velocity: 67
Note ON: Time 49080, Note Name: G#2, Velocity: 79
Note OFF: Time 49320, Note Name: G#2
Note OFF: Time 49320, Note Name: G#1
Note ON: Time 49320, Note Name: C4, Velocity: 61
Note ON: Time 49320, Note Name: D#4, Velocity: 73
Note ON: Time 49320, Note Name: D#3, Velocity: 61
Note OFF: Time 49560, Note Name: D#3
Note OFF: Time 49560, Note Name: D#4
Note OFF: Time 49560, Note Name: C4
Note ON: Time 49560, Note Name: G#4, Velocity: 75
Note ON: Time 49560, Note Name: C4, Velocity: 75
Note ON: Time 49560, Note Name: G#3, Velocity: 63
Note OFF: Time 49800, Note Name: G#3
Note OFF: Time 49800, Note Name: C4
Note OFF: Time 49800, Note Name: G#4
Note ON: Time 49800, Note Name: D#2, Velocity: 61
Note ON: Time 49800, Note Name: D#3, Velocity: 73
Note OFF: Time 49920, Note Name: D#3
Note OFF: Time 49920, Note Name: D#2
Note ON: Time 50040, Note Name: G#2, Velocity: 64
Note ON: Time 50040, Note Name: G#3, Velocity: 77
Note OFF: Time 50160, Note Name: G#3
Note OFF: Time 50160, Note Name: G#2
Note ON: Time 50220, Note Name: D#2, Velocity: 62
Note ON: Time 50250, Note Name: A#2, Velocity: 62
Note ON: Time 50280, Note Name: F#3, Velocity: 74
Note OFF: Time 50430, Note Name: F#3
Note OFF: Time 50430, Note Name: A#2
Note OFF: Time 50430, Note Name: D#2
Note ON: Time 50430, Note Name: F2, Velocity: 62
Note ON: Time 50460, Note Name: C3, Velocity: 62
Note ON: Time 50490, Note Name: D#3, Velocity: 74
Note ON: Time 50520, Note Name: A3, Velocity: 74
Note OFF: Time 50670, Note Name: A3
Note OFF: Time 50670, Note Name: D#3
Note OFF: Time 50670, Note Name: F2
Note ON: Time 50670, Note Name: F3, Velocity: 61
Note ON: Time 50700, Note Name: C4, Velocity: 61
Note ON: Time 50730, Note Name: D#4, Velocity: 73
Note OFF: Time 50760, Note Name: C3
Note ON: Time 50760, Note Name: A4, Velocity: 73
Note OFF: Time 50910, Note Name: A4
Note OFF: Time 50910, Note Name: D#4
Note OFF: Time 50910, Note Name: C4
Note OFF: Time 50910, Note Name: F3
Note ON: Time 50940, Note Name: A#2, Velocity: 63
Note ON: Time 50970, Note Name: F3, Velocity: 75
Note ON: Time 51000, Note Name: C#4, Velocity: 75
Note OFF: Time 51240, Note Name: C#4
Note OFF: Time 51240, Note Name: F3
Note OFF: Time 51240, Note Name: A#2
Note ON: Time 51240, Note Name: F#2, Velocity: 60
Note ON: Time 51240, Note Name: F#3, Velocity: 71
Note OFF: Time 51480, Note Name: F#3
Note OFF: Time 51480, Note Name: F#2
Note ON: Time 51480, Note Name: F2, Velocity: 60
Note ON: Time 51480, Note Name: F3, Velocity: 71
Note OFF: Time 51720, Note Name: F3
Note OFF: Time 51720, Note Name: F2
Note ON: Time 51720, Note Name: C#2, Velocity: 58
Note ON: Time 51720, Note Name: C#3, Velocity: 69
Note OFF: Time 51960, Note Name: C#3
Note OFF: Time 51960, Note Name: C#2
Note ON: Time 51960, Note Name: A#1, Velocity: 67
Note ON: Time 51960, Note Name: A#2, Velocity: 79
Note OFF: Time 52080, Note Name: A#2
Note OFF: Time 52080, Note Name: A#1
Note ON: Time 52200, Note Name: C#4, Velocity: 79
Note ON: Time 52200, Note Name: F3, Velocity: 67
Note ON: Time 52200, Note Name: F4, Velocity: 79
Note OFF: Time 52440, Note Name: F4
Note OFF: Time 52440, Note Name: F3
Note OFF: Time 52440, Note Name: C#4
Note ON: Time 52440, Note Name: A#4, Velocity: 77
Note ON: Time 52440, Note Name: C#4, Velocity: 77
Note ON: Time 52440, Note Name: A#3, Velocity: 64
Note OFF: Time 52680, Note Name: A#3
Note OFF: Time 52680, Note Name: C#4
Note OFF: Time 52680, Note Name: A#4
Note ON: Time 52680, Note Name: F2, Velocity: 72
Note ON: Time 52680, Note Name: F3, Velocity: 85
Note OFF: Time 52740, Note Name: F3
Note OFF: Time 52740, Note Name: F2
Note ON: Time 52920, Note Name: A#2, Velocity: 73
Note ON: Time 52920, Note Name: A#3, Velocity: 86
Note OFF: Time 53040, Note Name: A#3
Note OFF: Time 53040, Note Name: A#2
Note ON: Time 53160, Note Name: F1, Velocity: 61
Note ON: Time 53160, Note Name: F2, Velocity: 73
Note OFF: Time 53400, Note Name: F2
Note OFF: Time 53400, Note Name: F1
Note ON: Time 53400, Note Name: A#1, Velocity: 67
Note ON: Time 53400, Note Name: A#2, Velocity: 79
Note OFF: Time 53640, Note Name: A#2
Note OFF: Time 53640, Note Name: A#1
Note ON: Time 53640, Note Name: C#4, Velocity: 61
Note ON: Time 53640, Note Name: F4, Velocity: 73
Note ON: Time 53640, Note Name: F3, Velocity: 61
Note OFF: Time 53880, Note Name: F3
Note OFF: Time 53880, Note Name: F4
Note OFF: Time 53880, Note Name: C#4
Note ON: Time 53880, Note Name: A#4, Velocity: 75
Note ON: Time 53880, Note Name: C#4, Velocity: 75
Note ON: Time 53880, Note Name: A#3, Velocity: 63
Note OFF: Time 54120, Note Name: A#3
Note OFF: Time 54120, Note Name: C#4
Note OFF: Time 54120, Note Name: A#4
Note ON: Time 54120, Note Name: F2, Velocity: 67
Note ON: Time 54120, Note Name: F3, Velocity: 80
Note OFF: Time 54180, Note Name: F3
Note OFF: Time 54180, Note Name: F2
Note ON: Time 54360, Note Name: A#2, Velocity: 73
Note ON: Time 54360, Note Name: A#3, Velocity: 86
Note OFF: Time 54480, Note Name: A#3
Note OFF: Time 54480, Note Name: A#2
Note ON: Time 54600, Note Name: A#1, Velocity: 61
Note ON: Time 54600, Note Name: A#2, Velocity: 73
Note OFF: Time 54840, Note Name: A#2
Note OFF: Time 54840, Note Name: A#1
Note ON: Time 54840, Note Name: D#1, Velocity: 67
Note ON: Time 54840, Note Name: D#2, Velocity: 79
Note OFF: Time 54960, Note Name: D#2
Note OFF: Time 54960, Note Name: D#1
Note ON: Time 55080, Note Name: G4, Velocity: 60
Note ON: Time 55080, Note Name: C#4, Velocity: 60
Note ON: Time 55080, Note Name: C5, Velocity: 72
Note ON: Time 55080, Note Name: D#4, Velocity: 60
Note OFF: Time 55200, Note Name: C5
Note ON: Time 55200, Note Name: A#4, Velocity: 70
Note OFF: Time 55320, Note Name: A#4
Note OFF: Time 55320, Note Name: D#4
Note OFF: Time 55320, Note Name: C#4
Note OFF: Time 55320, Note Name: G4
Note ON: Time 55320, Note Name: D#3, Velocity: 75
Note OFF: Time 55440, Note Name: D#3
Note ON: Time 55560, Note Name: A#4, Velocity: 72
Note ON: Time 55560, Note Name: C4, Velocity: 58
Note ON: Time 55560, Note Name: D#4, Velocity: 69
Note OFF: Time 55680, Note Name: A#4
Note ON: Time 55680, Note Name: G#4, Velocity: 70
Note OFF: Time 55800, Note Name: G#4
Note OFF: Time 55800, Note Name: D#4
Note OFF: Time 55800, Note Name: C4
Note ON: Time 55800, Note Name: D#3, Velocity: 73
Note OFF: Time 55920, Note Name: D#3
Note ON: Time 56040, Note Name: G#4, Velocity: 72
Note ON: Time 56040, Note Name: A#3, Velocity: 56
Note ON: Time 56040, Note Name: D#4, Velocity: 67
Note OFF: Time 56160, Note Name: G#4
Note ON: Time 56160, Note Name: G4, Velocity: 70
Note OFF: Time 56280, Note Name: G4
Note OFF: Time 56280, Note Name: D#4
Note OFF: Time 56280, Note Name: A#3
Note ON: Time 56280, Note Name: A#2, Velocity: 70
Note OFF: Time 56400, Note Name: A#2
Note ON: Time 56520, Note Name: G4, Velocity: 72
Note ON: Time 56520, Note Name: G#3, Velocity: 55
Note ON: Time 56520, Note Name: D4, Velocity: 66
Note ON: Time 56520, Note Name: A#3, Velocity: 55
Note OFF: Time 56640, Note Name: G4
Note ON: Time 56640, Note Name: F4, Velocity: 70
Note OFF: Time 56760, Note Name: F4
Note OFF: Time 56760, Note Name: A#3
Note OFF: Time 56760, Note Name: D4
Note OFF: Time 56760, Note Name: G#3
Note ON: Time 56760, Note Name: D#3, Velocity: 72
Note OFF: Time 56880, Note Name: D#3
Note ON: Time 57000, Note Name: F4, Velocity: 72
Note ON: Time 57000, Note Name: G3, Velocity: 57
Note ON: Time 57000, Note Name: A#3, Velocity: 68
Note OFF: Time 57120, Note Name: F4
Note ON: Time 57120, Note Name: D#4, Velocity: 70
Note OFF: Time 57240, Note Name: D#4
Note OFF: Time 57240, Note Name: A#3
Note OFF: Time 57240, Note Name: G3
Note ON: Time 57240, Note Name: F2, Velocity: 62
Note ON: Time 57240, Note Name: F3, Velocity: 74
Note OFF: Time 57480, Note Name: F2
Note ON: Time 57480, Note Name: C#4, Velocity: 72
Note ON: Time 57480, Note Name: G#3, Velocity: 68
Note OFF: Time 57600, Note Name: C#4
Note ON: Time 57600, Note Name: C4, Velocity: 70
Note OFF: Time 57720, Note Name: C4
Note OFF: Time 57720, Note Name: G#3
Note OFF: Time 57720, Note Name: F3
Note ON: Time 57720, Note Name: C#2, Velocity: 62
Note ON: Time 57720, Note Name: C#3, Velocity: 74
Note OFF: Time 57960, Note Name: C#3
Note OFF: Time 57960, Note Name: C#2
Note ON: Time 57960, Note Name: F3, Velocity: 55
Note ON: Time 57960, Note Name: A#3, Velocity: 64
Note OFF: Time 58200, Note Name: A#3
Note OFF: Time 58200, Note Name: F3
Note ON: Time 58200, Note Name: C2, Velocity: 63
Note ON: Time 58200, Note Name: C3, Velocity: 75
Note OFF: Time 58440, Note Name: C3
Note OFF: Time 58440, Note Name: C2
Note ON: Time 58440, Note Name: E3, Velocity: 57
Note ON: Time 58440, Note Name: C4, Velocity: 68
Note ON: Time 58440, Note Name: A#3, Velocity: 57
Note OFF: Time 58680, Note Name: A#3
Note OFF: Time 58680, Note Name: C4
Note OFF: Time 58680, Note Name: E3
Note ON: Time 58680, Note Name: F1, Velocity: 66
Note ON: Time 58680, Note Name: F2, Velocity: 78
Note OFF: Time 58920, Note Name: F2
Note OFF: Time 58920, Note Name: F1
Note ON: Time 58920, Note Name: F3, Velocity: 73
Note ON: Time 58920, Note Name: G#3, Velocity: 73
Note ON: Time 58920, Note Name: C4, Velocity: 73
Note OFF: Time 59160, Note Name: C4
Note OFF: Time 59160, Note Name: G#3
Note OFF: Time 59160, Note Name: F3
Note ON: Time 59160, Note Name: D#2, Velocity: 57
Note ON: Time 59160, Note Name: D#3, Velocity: 69
Note OFF: Time 59280, Note Name: D#3
Note OFF: Time 59280, Note Name: D#2
Note ON: Time 59400, Note Name: D#3, Velocity: 54
Note ON: Time 59400, Note Name: A#3, Velocity: 63
Note OFF: Time 59640, Note Name: A#3
Note OFF: Time 59640, Note Name: D#3
Note ON: Time 59640, Note Name: G#2, Velocity: 60
Note ON: Time 59640, Note Name: D#3, Velocity: 60
Note ON: Time 59640, Note Name: G#3, Velocity: 71
Note OFF: Time 59880, Note Name: G#3
Note OFF: Time 59880, Note Name: D#3
Note OFF: Time 59880, Note Name: G#2
Note ON: Time 60360, Note Name: G#2, Velocity: 61
Note ON: Time 60360, Note Name: G#3, Velocity: 72
Note OFF: Time 60600, Note Name: G#3
Note OFF: Time 60600, Note Name: G#2
Note ON: Time 60600, Note Name: C#2, Velocity: 62
Note ON: Time 60600, Note Name: C#3, Velocity: 74
Note OFF: Time 60840, Note Name: C#3
Note OFF: Time 60840, Note Name: C#2
Note ON: Time 60840, Note Name: F3, Velocity: 55
Note ON: Time 60840, Note Name: A#3, Velocity: 64
Note OFF: Time 61080, Note Name: A#3
Note OFF: Time 61080, Note Name: F3
Note ON: Time 61080, Note Name: C2, Velocity: 63
Note ON: Time 61080, Note Name: C3, Velocity: 75
Note OFF: Time 61320, Note Name: C3
Note OFF: Time 61320, Note Name: C2
Note ON: Time 61320, Note Name: A#3, Velocity: 57
Note ON: Time 61320, Note Name: E4, Velocity: 68
Note ON: Time 61320, Note Name: C4, Velocity: 57
Note OFF: Time 61560, Note Name: C4
Note OFF: Time 61560, Note Name: E4
Note OFF: Time 61560, Note Name: A#3
Note ON: Time 61560, Note Name: F1, Velocity: 66
Note ON: Time 61560, Note Name: F2, Velocity: 78
Note OFF: Time 61800, Note Name: F2
Note OFF: Time 61800, Note Name: F1
Note ON: Time 61800, Note Name: G#3, Velocity: 73
Note ON: Time 61800, Note Name: C4, Velocity: 73
Note ON: Time 61800, Note Name: F4, Velocity: 73
Note OFF: Time 62040, Note Name: F4
Note OFF: Time 62040, Note Name: C4
Note OFF: Time 62040, Note Name: G#3
Note ON: Time 62040, Note Name: D#2, Velocity: 64
Note ON: Time 62040, Note Name: D#3, Velocity: 77
Note OFF: Time 62160, Note Name: D#3
Note OFF: Time 62160, Note Name: D#2
Note ON: Time 62280, Note Name: A#3, Velocity: 60
Note ON: Time 62280, Note Name: C#4, Velocity: 60
Note ON: Time 62280, Note Name: D#4, Velocity: 60
Note ON: Time 62280, Note Name: G4, Velocity: 71
Note OFF: Time 62520, Note Name: G4
Note OFF: Time 62520, Note Name: A#3
Note OFF: Time 62520, Note Name: C#4
Note OFF: Time 62520, Note Name: D#4
Note ON: Time 62520, Note Name: G#3, Velocity: 60
Note ON: Time 62520, Note Name: D#4, Velocity: 60
Note ON: Time 62520, Note Name: G#4, Velocity: 71
Note OFF: Time 62640, Note Name: G#4
Note OFF: Time 62640, Note Name: D#4
Note OFF: Time 62640, Note Name: G#3
Note ON: Time 62760, Note Name: G#4, Velocity: 70
Note ON: Time 62760, Note Name: B3, Velocity: 70
Note ON: Time 62760, Note Name: D4, Velocity: 70
Note ON: Time 62760, Note Name: B4, Velocity: 70
Note OFF: Time 62940, Note Name: B4
Note OFF: Time 62940, Note Name: G#4
Note OFF: Time 62940, Note Name: B3
Note OFF: Time 62940, Note Name: D4
Note ON: Time 62940, Note Name: G#4, Velocity: 63
Note ON: Time 62940, Note Name: C4, Velocity: 63
Note ON: Time 62940, Note Name: C5, Velocity: 63
Note ON: Time 62940, Note Name: D#4, Velocity: 63
Note OFF: Time 62994, Note Name: D#4
Note OFF: Time 62994, Note Name: G#4
Note OFF: Time 62994, Note Name: C4
Note OFF: Time 62994, Note Name: C5
Note ON: Time 63000, Note Name: G#4, Velocity: 71
Note ON: Time 63000, Note Name: C5, Velocity: 71
Note ON: Time 63000, Note Name: C4, Velocity: 71
Note ON: Time 63000, Note Name: D#4, Velocity: 71
Note OFF: Time 63120, Note Name: D#4
Note OFF: Time 63120, Note Name: G#4
Note OFF: Time 63120, Note Name: C5
Note OFF: Time 63120, Note Name: C4
Note ON: Time 63150, Note Name: F3, Velocity: 61
Note ON: Time 63180, Note Name: C4, Velocity: 61
Note ON: Time 63210, Note Name: D#4, Velocity: 61
Note ON: Time 63240, Note Name: A4, Velocity: 72
Note OFF: Time 63420, Note Name: A4
Note OFF: Time 63420, Note Name: F3
Note OFF: Time 63420, Note Name: C4
Note OFF: Time 63420, Note Name: D#4
Note ON: Time 63420, Note Name: A#2, Velocity: 66
Note ON: Time 63450, Note Name: F3, Velocity: 66
Note ON: Time 63480, Note Name: C#4, Velocity: 78
Note OFF: Time 63660, Note Name: C#4
Note OFF: Time 63660, Note Name: F3
Note OFF: Time 63660, Note Name: A#2
Note ON: Time 63660, Note Name: D#3, Velocity: 61
Note ON: Time 63690, Note Name: A#3, Velocity: 61
Note ON: Time 63720, Note Name: F#4, Velocity: 72
Note OFF: Time 63900, Note Name: F#4
Note OFF: Time 63900, Note Name: A#3
Note OFF: Time 63900, Note Name: D#3
Note ON: Time 63900, Note Name: A#2, Velocity: 57
Note ON: Time 63930, Note Name: F3, Velocity: 57
Note ON: Time 63960, Note Name: C#4, Velocity: 68
Note OFF: Time 64140, Note Name: C#4
Note OFF: Time 64140, Note Name: F3
Note OFF: Time 64140, Note Name: A#2
Note ON: Time 64140, Note Name: D#2, Velocity: 57
Note ON: Time 64170, Note Name: A#2, Velocity: 57
Note ON: Time 64200, Note Name: F#3, Velocity: 68
Note OFF: Time 64380, Note Name: F#3
Note OFF: Time 64380, Note Name: A#2
Note OFF: Time 64380, Note Name: D#2
Note ON: Time 64380, Note Name: A#1, Velocity: 57
Note ON: Time 64410, Note Name: F2, Velocity: 57
Note ON: Time 64440, Note Name: C#3, Velocity: 68
Note OFF: Time 64620, Note Name: C#3
Note OFF: Time 64620, Note Name: F2
Note OFF: Time 64620, Note Name: A#1
Note ON: Time 64620, Note Name: D#2, Velocity: 56
Note ON: Time 64650, Note Name: A#2, Velocity: 56
Note ON: Time 64680, Note Name: F#3, Velocity: 67
Note OFF: Time 64860, Note Name: F#3
Note OFF: Time 64860, Note Name: A#2
Note OFF: Time 64860, Note Name: D#2
Note ON: Time 64860, Note Name: A#2, Velocity: 61
Note ON: Time 64890, Note Name: F3, Velocity: 61
Note ON: Time 64920, Note Name: C#4, Velocity: 72
Note OFF: Time 65100, Note Name: C#4
Note OFF: Time 65100, Note Name: F3
Note OFF: Time 65100, Note Name: A#2
Note ON: Time 65160, Note Name: A1, Velocity: 55
Note OFF: Time 65220, Note Name: A1
Note ON: Time 65220, Note Name: A#1, Velocity: 55
Note OFF: Time 65280, Note Name: A#1
Note ON: Time 65280, Note Name: C2, Velocity: 56
Note OFF: Time 65340, Note Name: C2
Note ON: Time 65340, Note Name: C#2, Velocity: 56
Note OFF: Time 65400, Note Name: C#2
Note ON: Time 65400, Note Name: D#2, Velocity: 56
Note OFF: Time 65460, Note Name: D#2
Note ON: Time 65460, Note Name: F2, Velocity: 57
Note OFF: Time 65520, Note Name: F2
Note ON: Time 65520, Note Name: G2, Velocity: 58
Note OFF: Time 65580, Note Name: G2
Note ON: Time 65580, Note Name: A2, Velocity: 58
Note OFF: Time 65640, Note Name: A2
Note ON: Time 65640, Note Name: A#2, Velocity: 59
Note OFF: Time 65700, Note Name: A#2
Note ON: Time 65700, Note Name: C3, Velocity: 60
Note OFF: Time 65760, Note Name: C3
Note ON: Time 65760, Note Name: C#3, Velocity: 60
Note OFF: Time 65820, Note Name: C#3
Note ON: Time 65820, Note Name: D#3, Velocity: 61
Note OFF: Time 65880, Note Name: D#3
Note ON: Time 65880, Note Name: F3, Velocity: 61
Note OFF: Time 65940, Note Name: F3
Note ON: Time 65940, Note Name: G3, Velocity: 61
Note OFF: Time 66000, Note Name: G3
Note ON: Time 66000, Note Name: A3, Velocity: 62
Note OFF: Time 66060, Note Name: A3
Note ON: Time 66060, Note Name: A#3, Velocity: 62
Note OFF: Time 66120, Note Name: A#3
Note ON: Time 66120, Note Name: C4, Velocity: 63
Note OFF: Time 66180, Note Name: C4
Note ON: Time 66180, Note Name: C#4, Velocity: 64
Note OFF: Time 66240, Note Name: C#4
Note ON: Time 66240, Note Name: D#4, Velocity: 64
Note OFF: Time 66300, Note Name: D#4
Note ON: Time 66300, Note Name: F4, Velocity: 66
Note OFF: Time 66360, Note Name: F4
Note ON: Time 66360, Note Name: G4, Velocity: 67
Note OFF: Time 66420, Note Name: G4
Note ON: Time 66420, Note Name: A4, Velocity: 65
Note OFF: Time 66480, Note Name: A4
Note ON: Time 66480, Note Name: A#4, Velocity: 66
Note OFF: Time 66540, Note Name: A#4
Note ON: Time 66540, Note Name: C5, Velocity: 67
Note OFF: Time 66600, Note Name: C5
Note ON: Time 66600, Note Name: C#5, Velocity: 68
Note OFF: Time 66660, Note Name: C#5
Note ON: Time 66660, Note Name: D#5, Velocity: 69
Note OFF: Time 66720, Note Name: D#5
Note ON: Time 66720, Note Name: F5, Velocity: 70
Note OFF: Time 66780, Note Name: F5
Note ON: Time 66780, Note Name: G5, Velocity: 71
Note OFF: Time 66870, Note Name: G5
Note ON: Time 66870, Note Name: A5, Velocity: 72
Note OFF: Time 66930, Note Name: A5
Note ON: Time 67200, Note Name: D#1, Velocity: 68
Note ON: Time 67200, Note Name: D#2, Velocity: 80
Note OFF: Time 67320, Note Name: D#2
Note OFF: Time 67320, Note Name: D#1
Note ON: Time 67440, Note Name: D#3, Velocity: 61
Note ON: Time 67440, Note Name: D#4, Velocity: 72
Note OFF: Time 67560, Note Name: D#4
Note OFF: Time 67560, Note Name: D#3
Note ON: Time 67680, Note Name: C5, Velocity: 67
Note ON: Time 67680, Note Name: G4, Velocity: 67
Note ON: Time 67680, Note Name: D#4, Velocity: 67
Note ON: Time 67680, Note Name: D#5, Velocity: 79
Note OFF: Time 67920, Note Name: D#5
Note OFF: Time 67920, Note Name: C5
Note OFF: Time 67920, Note Name: G4
Note OFF: Time 67920, Note Name: D#4
Note ON: Time 67920, Note Name: F5, Velocity: 77
Note ON: Time 67920, Note Name: C5, Velocity: 64
Note ON: Time 67920, Note Name: F4, Velocity: 64
Note OFF: Time 68160, Note Name: F4
Note OFF: Time 68160, Note Name: C5
Note OFF: Time 68160, Note Name: F5
Note ON: Time 68160, Note Name: C4, Velocity: 61
Note ON: Time 68160, Note Name: G#4, Velocity: 61
Note ON: Time 68160, Note Name: C5, Velocity: 72
Note OFF: Time 68400, Note Name: C5
Note OFF: Time 68400, Note Name: G#4
Note OFF: Time 68400, Note Name: C4
Note ON: Time 68400, Note Name: C#4, Velocity: 61
Note ON: Time 68400, Note Name: G#4, Velocity: 61
Note ON: Time 68400, Note Name: C#5, Velocity: 72
Note OFF: Time 68520, Note Name: C#5
Note OFF: Time 68520, Note Name: G#4
Note OFF: Time 68520, Note Name: C#4
Note ON: Time 68640, Note Name: D#2, Velocity: 58
Note ON: Time 68640, Note Name: D#3, Velocity: 69
Note OFF: Time 69120, Note Name: D#3
Note OFF: Time 69120, Note Name: D#2
Note ON: Time 69120, Note Name: D#1, Velocity: 51
Note ON: Time 69120, Note Name: D#2, Velocity: 61
Note OFF: Time 69240, Note Name: D#2
Note OFF: Time 69240, Note Name: D#1
Note ON: Time 69360, Note Name: G#1, Velocity: 51
Note ON: Time 69360, Note Name: G#2, Velocity: 61
Note OFF: Time 69480, Note Name: G#2
Note OFF: Time 69480, Note Name: G#1
Note ON: Time 69840, Note Name: C1, Velocity: 47
Note ON: Time 69840, Note Name: C2, Velocity: 55
Note OFF: Time 69960, Note Name: C2
Note OFF: Time 69960, Note Name: C1
Note ON: Time 70080, Note Name: C2, Velocity: 34
Note ON: Time 70080, Note Name: C3, Velocity: 41
Note OFF: Time 70200, Note Name: C3
Note OFF: Time 70200, Note Name: C2
Note ON: Time 70260, Note Name: C2, Velocity: 33
Note ON: Time 70260, Note Name: C3, Velocity: 39
Note OFF: Time 70320, Note Name: C3
Note OFF: Time 70320, Note Name: C2
Note ON: Time 70320, Note Name: E2, Velocity: 44
Note ON: Time 70320, Note Name: C#3, Velocity: 44
Note OFF: Time 70560, Note Name: C#3
Note OFF: Time 70560, Note Name: E2
Note ON: Time 70560, Note Name: E1, Velocity: 35
Note ON: Time 70560, Note Name: E2, Velocity: 42
Note OFF: Time 70680, Note Name: E2
Note OFF: Time 70680, Note Name: E1
Note ON: Time 70740, Note Name: E2, Velocity: 36
Note ON: Time 70740, Note Name: C3, Velocity: 44
Note OFF: Time 70800, Note Name: C3
Note OFF: Time 70800, Note Name: E2
Note ON: Time 70800, Note Name: F2, Velocity: 40
Note ON: Time 70800, Note Name: D#3, Velocity: 49
Note OFF: Time 71040, Note Name: D#3
Note OFF: Time 71040, Note Name: F2
Note ON: Time 71040, Note Name: F1, Velocity: 39
Note ON: Time 71040, Note Name: F2, Velocity: 47
Note OFF: Time 71160, Note Name: F2
Note OFF: Time 71160, Note Name: F1
Note ON: Time 71220, Note Name: F2, Velocity: 37
Note ON: Time 71220, Note Name: C#3, Velocity: 45
Note OFF: Time 71280, Note Name: C#3
Note OFF: Time 71280, Note Name: F2
Note ON: Time 71280, Note Name: G2, Velocity: 44
Note ON: Time 71280, Note Name: F3, Velocity: 51
Note OFF: Time 71520, Note Name: F3
Note OFF: Time 71520, Note Name: G2
Note ON: Time 71520, Note Name: G1, Velocity: 39
Note ON: Time 71520, Note Name: G2, Velocity: 48
Note OFF: Time 71640, Note Name: G2
Note OFF: Time 71640, Note Name: G1
Note ON: Time 71700, Note Name: G2, Velocity: 39
Note ON: Time 71700, Note Name: E3, Velocity: 45
Note OFF: Time 71760, Note Name: E3
Note OFF: Time 71760, Note Name: G2
Note ON: Time 71760, Note Name: G#2, Velocity: 51
Note ON: Time 71760, Note Name: G3, Velocity: 51
Note OFF: Time 72000, Note Name: G3
Note OFF: Time 72000, Note Name: G#2
Note ON: Time 72000, Note Name: G#1, Velocity: 42
Note ON: Time 72000, Note Name: G#2, Velocity: 51
Note OFF: Time 72120, Note Name: G#2
Note OFF: Time 72120, Note Name: G#1
Note ON: Time 72180, Note Name: G#2, Velocity: 43
Note ON: Time 72180, Note Name: F3, Velocity: 51
Note OFF: Time 72240, Note Name: F3
Note OFF: Time 72240, Note Name: G#2
Note ON: Time 72240, Note Name: G#2, Velocity: 48
Note ON: Time 72240, Note Name: G#3, Velocity: 56
Note OFF: Time 72480, Note Name: G#3
Note OFF: Time 72480, Note Name: G#2
Note ON: Time 72480, Note Name: G#1, Velocity: 47
Note ON: Time 72480, Note Name: G#2, Velocity: 56
Note OFF: Time 72600, Note Name: G#2
Note OFF: Time 72600, Note Name: G#1
Note ON: Time 72660, Note Name: G#2, Velocity: 45
Note ON: Time 72660, Note Name: F#3, Velocity: 52
Note OFF: Time 72720, Note Name: F#3
Note OFF: Time 72720, Note Name: G#2
Note ON: Time 72720, Note Name: G2, Velocity: 46
Note ON: Time 72720, Note Name: G3, Velocity: 55
Note OFF: Time 72960, Note Name: G3
Note OFF: Time 72960, Note Name: G2
Note ON: Time 72960, Note Name: G3, Velocity: 52
Note ON: Time 72960, Note Name: G4, Velocity: 52
Note OFF: Time 73020, Note Name: G4
Note OFF: Time 73020, Note Name: G3
Note ON: Time 73080, Note Name: G3, Velocity: 54
Note ON: Time 73080, Note Name: G4, Velocity: 54
Note OFF: Time 73140, Note Name: G4
Note OFF: Time 73140, Note Name: G3
Note ON: Time 73200, Note Name: A3, Velocity: 60
Note ON: Time 73200, Note Name: A4, Velocity: 60
Note OFF: Time 73320, Note Name: A4
Note OFF: Time 73320, Note Name: A3
Note ON: Time 73320, Note Name: G3, Velocity: 56
Note ON: Time 73320, Note Name: G4, Velocity: 56
Note OFF: Time 73440, Note Name: G4
Note OFF: Time 73440, Note Name: G3
Note ON: Time 73440, Note Name: G3, Velocity: 56
Note ON: Time 73440, Note Name: G4, Velocity: 56
Note OFF: Time 73500, Note Name: G4
Note OFF: Time 73500, Note Name: G3
Note ON: Time 73560, Note Name: G3, Velocity: 56
Note ON: Time 73560, Note Name: G4, Velocity: 56
Note OFF: Time 73620, Note Name: G4
Note OFF: Time 73620, Note Name: G3
Note ON: Time 73680, Note Name: G3, Velocity: 65
Note ON: Time 73680, Note Name: G4, Velocity: 65
Note OFF: Time 73800, Note Name: G4
Note OFF: Time 73800, Note Name: G3
Note ON: Time 73920, Note Name: D4, Velocity: 53
Note ON: Time 73920, Note Name: F4, Velocity: 53
Note ON: Time 73920, Note Name: G4, Velocity: 53
Note ON: Time 73920, Note Name: B4, Velocity: 53
Note OFF: Time 74160, Note Name: B4
Note OFF: Time 74160, Note Name: D4
Note OFF: Time 74160, Note Name: F4
Note OFF: Time 74160, Note Name: G4
Note ON: Time 74160, Note Name: C4, Velocity: 49
Note ON: Time 74160, Note Name: G4, Velocity: 49
Note ON: Time 74160, Note Name: C5, Velocity: 49
Note OFF: Time 74400, Note Name: C5
Note OFF: Time 74400, Note Name: G4
Note OFF: Time 74400, Note Name: C4
Note ON: Time 74400, Note Name: C3, Velocity: 50
Note OFF: Time 74460, Note Name: C3
Note ON: Time 74460, Note Name: E3, Velocity: 51
Note OFF: Time 74520, Note Name: E3
Note ON: Time 74520, Note Name: G3, Velocity: 52
Note OFF: Time 74580, Note Name: G3
Note ON: Time 74580, Note Name: B3, Velocity: 53
Note OFF: Time 74640, Note Name: B3
Note ON: Time 74640, Note Name: C4, Velocity: 54
Note OFF: Time 74700, Note Name: C4
Note ON: Time 74700, Note Name: E4, Velocity: 56
Note OFF: Time 74760, Note Name: E4
Note ON: Time 74760, Note Name: G4, Velocity: 57
Note OFF: Time 74820, Note Name: G4
Note ON: Time 74820, Note Name: B4, Velocity: 57
Note OFF: Time 74880, Note Name: B4
Note ON: Time 74880, Note Name: C5, Velocity: 62
Note OFF: Time 75000, Note Name: C5
Note ON: Time 75000, Note Name: C4, Velocity: 56
Note OFF: Time 75120, Note Name: C4
Note ON: Time 75120, Note Name: C#4, Velocity: 49
Note ON: Time 75120, Note Name: C#5, Velocity: 58
Note OFF: Time 75360, Note Name: C#5
Note OFF: Time 75360, Note Name: C#4
Note ON: Time 75360, Note Name: D4, Velocity: 52
Note ON: Time 75360, Note Name: D5, Velocity: 62
Note OFF: Time 75600, Note Name: D5
Note OFF: Time 75600, Note Name: D4
Note ON: Time 75600, Note Name: D#4, Velocity: 55
Note ON: Time 75600, Note Name: D#5, Velocity: 65
Note OFF: Time 75720, Note Name: D#5
Note OFF: Time 75720, Note Name: D#4
Note ON: Time 75840, Note Name: D#2, Velocity: 34
Note ON: Time 75840, Note Name: D#3, Velocity: 41
Note OFF: Time 75960, Note Name: D#3
Note OFF: Time 75960, Note Name: D#2
Note ON: Time 76020, Note Name: D#2, Velocity: 33
Note ON: Time 76020, Note Name: D#3, Velocity: 39
Note OFF: Time 76080, Note Name: D#3
Note OFF: Time 76080, Note Name: D#2
Note ON: Time 76080, Note Name: G2, Velocity: 44
Note ON: Time 76080, Note Name: E3, Velocity: 44
Note OFF: Time 76320, Note Name: E3
Note OFF: Time 76320, Note Name: G2
Note ON: Time 76320, Note Name: G1, Velocity: 35
Note ON: Time 76320, Note Name: G2, Velocity: 42
Note OFF: Time 76440, Note Name: G2
Note OFF: Time 76440, Note Name: G1
Note ON: Time 76500, Note Name: G2, Velocity: 36
Note ON: Time 76500, Note Name: D#3, Velocity: 44
Note OFF: Time 76560, Note Name: D#3
Note OFF: Time 76560, Note Name: G2
Note ON: Time 76560, Note Name: G#2, Velocity: 40
Note ON: Time 76560, Note Name: F#3, Velocity: 49
Note OFF: Time 76800, Note Name: F#3
Note OFF: Time 76800, Note Name: G#2
Note ON: Time 76800, Note Name: G#1, Velocity: 39
Note ON: Time 76800, Note Name: G#2, Velocity: 47
Note OFF: Time 76920, Note Name: G#2
Note OFF: Time 76920, Note Name: G#1
Note ON: Time 76980, Note Name: G#2, Velocity: 37
Note ON: Time 76980, Note Name: E3, Velocity: 45
Note OFF: Time 77040, Note Name: E3
Note OFF: Time 77040, Note Name: G#2
Note ON: Time 77040, Note Name: A#2, Velocity: 44
Note ON: Time 77040, Note Name: G#3, Velocity: 51
Note OFF: Time 77280, Note Name: G#3
Note OFF: Time 77280, Note Name: A#2
Note ON: Time 77280, Note Name: A#1, Velocity: 39
Note ON: Time 77280, Note Name: A#2, Velocity: 48
Note OFF: Time 77400, Note Name: A#2
Note OFF: Time 77400, Note Name: A#1
Note ON: Time 77460, Note Name: A#2, Velocity: 38
Note ON: Time 77460, Note Name: G3, Velocity: 45
Note OFF: Time 77520, Note Name: G3
Note OFF: Time 77520, Note Name: A#2
Note ON: Time 77520, Note Name: B2, Velocity: 51
Note ON: Time 77520, Note Name: A#3, Velocity: 51
Note OFF: Time 77760, Note Name: A#3
Note OFF: Time 77760, Note Name: B2
Note ON: Time 77760, Note Name: B1, Velocity: 42
Note ON: Time 77760, Note Name: B2, Velocity: 51
Note OFF: Time 77880, Note Name: B2
Note OFF: Time 77880, Note Name: B1
Note ON: Time 77940, Note Name: B2, Velocity: 43
Note ON: Time 77940, Note Name: G#3, Velocity: 51
Note OFF: Time 78000, Note Name: G#3
Note OFF: Time 78000, Note Name: B2
Note ON: Time 78000, Note Name: B2, Velocity: 48
Note ON: Time 78000, Note Name: B3, Velocity: 56
Note OFF: Time 78240, Note Name: B3
Note OFF: Time 78240, Note Name: B2
Note ON: Time 78240, Note Name: B1, Velocity: 47
Note ON: Time 78240, Note Name: B2, Velocity: 56
Note OFF: Time 78360, Note Name: B2
Note OFF: Time 78360, Note Name: B1
Note ON: Time 78420, Note Name: B2, Velocity: 45
Note ON: Time 78420, Note Name: A3, Velocity: 52
Note OFF: Time 78480, Note Name: A3
Note OFF: Time 78480, Note Name: B2
Note ON: Time 78480, Note Name: A#2, Velocity: 46
Note ON: Time 78480, Note Name: A#3, Velocity: 55
Note OFF: Time 78720, Note Name: A#3
Note OFF: Time 78720, Note Name: A#2
Note ON: Time 78720, Note Name: A#3, Velocity: 52
Note ON: Time 78720, Note Name: A#4, Velocity: 52
Note OFF: Time 78780, Note Name: A#4
Note OFF: Time 78780, Note Name: A#3
Note ON: Time 78840, Note Name: A#3, Velocity: 54
Note ON: Time 78840, Note Name: A#4, Velocity: 54
Note OFF: Time 78900, Note Name: A#4
Note OFF: Time 78900, Note Name: A#3
Note ON: Time 78960, Note Name: C4, Velocity: 60
Note ON: Time 78960, Note Name: C5, Velocity: 60
Note OFF: Time 79080, Note Name: C5
Note OFF: Time 79080, Note Name: C4
Note ON: Time 79080, Note Name: A#3, Velocity: 56
Note ON: Time 79080, Note Name: A#4, Velocity: 56
Note OFF: Time 79200, Note Name: A#4
Note OFF: Time 79200, Note Name: A#3
Note ON: Time 79200, Note Name: A#3, Velocity: 56
Note ON: Time 79200, Note Name: A#4, Velocity: 56
Note OFF: Time 79260, Note Name: A#4
Note OFF: Time 79260, Note Name: A#3
Note ON: Time 79320, Note Name: A#3, Velocity: 56
Note ON: Time 79320, Note Name: A#4, Velocity: 56
Note OFF: Time 79380, Note Name: A#4
Note OFF: Time 79380, Note Name: A#3
Note ON: Time 79440, Note Name: A#3, Velocity: 65
Note ON: Time 79440, Note Name: A#4, Velocity: 65
Note OFF: Time 79560, Note Name: A#4
Note OFF: Time 79560, Note Name: A#3
Note ON: Time 79590, Note Name: A#3, Velocity: 53
Note ON: Time 79620, Note Name: F4, Velocity: 53
Note ON: Time 79650, Note Name: G#4, Velocity: 53
Note ON: Time 79680, Note Name: D5, Velocity: 53
Note OFF: Time 79920, Note Name: D5
Note OFF: Time 79920, Note Name: A#3
Note OFF: Time 79920, Note Name: F4
Note OFF: Time 79920, Note Name: G#4
Note ON: Time 79920, Note Name: D#4, Velocity: 49
Note ON: Time 79920, Note Name: G4, Velocity: 49
Note ON: Time 79920, Note Name: D#5, Velocity: 49
Note OFF: Time 80160, Note Name: D#5
Note OFF: Time 80160, Note Name: G4
Note OFF: Time 80160, Note Name: D#4
Note ON: Time 80160, Note Name: D#3, Velocity: 40
Note ON: Time 80160, Note Name: B3, Velocity: 40
Note ON: Time 80160, Note Name: D#4, Velocity: 48
Note OFF: Time 80400, Note Name: D#4
Note OFF: Time 80400, Note Name: B3
Note OFF: Time 80400, Note Name: D#3
Note ON: Time 80400, Note Name: D#3, Velocity: 38
Note ON: Time 80400, Note Name: A#3, Velocity: 38
Note ON: Time 80400, Note Name: D#4, Velocity: 45
Note OFF: Time 80640, Note Name: D#4
Note OFF: Time 80640, Note Name: A#3
Note OFF: Time 80640, Note Name: D#3
Note ON: Time 80640, Note Name: D#2, Velocity: 40
Note ON: Time 80640, Note Name: B2, Velocity: 40
Note ON: Time 80640, Note Name: D#3, Velocity: 48
Note OFF: Time 80880, Note Name: D#3
Note OFF: Time 80880, Note Name: B2
Note OFF: Time 80880, Note Name: D#2
Note ON: Time 80880, Note Name: D#2, Velocity: 38
Note ON: Time 80880, Note Name: A#2, Velocity: 38
Note ON: Time 80880, Note Name: D#3, Velocity: 45
Note OFF: Time 81120, Note Name: D#3
Note OFF: Time 81120, Note Name: A#2
Note OFF: Time 81120, Note Name: D#2
Note ON: Time 81120, Note Name: D#1, Velocity: 45
Note ON: Time 81120, Note Name: D#2, Velocity: 45
Note OFF: Time 81240, Note Name: D#2
Note OFF: Time 81240, Note Name: D#1
Note ON: Time 81360, Note Name: C#1, Velocity: 49
Note ON: Time 81360, Note Name: C#2, Velocity: 58
Note OFF: Time 81480, Note Name: C#2
Note OFF: Time 81480, Note Name: C#1
Note ON: Time 81600, Note Name: F3, Velocity: 38
Note ON: Time 81600, Note Name: G3, Velocity: 45
Note OFF: Time 81690, Note Name: G3
Note OFF: Time 81690, Note Name: F3
Note ON: Time 81720, Note Name: F3, Velocity: 39
Note ON: Time 81720, Note Name: G3, Velocity: 47
Note OFF: Time 81810, Note Name: G3
Note OFF: Time 81810, Note Name: F3
Note ON: Time 81840, Note Name: F3, Velocity: 41
Note ON: Time 81840, Note Name: G3, Velocity: 49
Note OFF: Time 82020, Note Name: G3
Note OFF: Time 82020, Note Name: F3
Note ON: Time 82080, Note Name: F3, Velocity: 38
Note ON: Time 82080, Note Name: G3, Velocity: 45
Note OFF: Time 82260, Note Name: G3
Note OFF: Time 82260, Note Name: F3
Note ON: Time 82320, Note Name: F3, Velocity: 38
Note ON: Time 82320, Note Name: G3, Velocity: 45
Note OFF: Time 82500, Note Name: G3
Note OFF: Time 82500, Note Name: F3
Note ON: Time 82560, Note Name: F3, Velocity: 38
Note ON: Time 82560, Note Name: G3, Velocity: 45
Note OFF: Time 82740, Note Name: G3
Note OFF: Time 82740, Note Name: F3
Note ON: Time 82800, Note Name: C2, Velocity: 45
Note ON: Time 82800, Note Name: C3, Velocity: 53
Note OFF: Time 83040, Note Name: C2
Note ON: Time 83040, Note Name: E3, Velocity: 39
Note ON: Time 83040, Note Name: G3, Velocity: 47
Note OFF: Time 83130, Note Name: G3
Note OFF: Time 83130, Note Name: E3
Note ON: Time 83160, Note Name: E3, Velocity: 39
Note ON: Time 83160, Note Name: G3, Velocity: 47
Note OFF: Time 83250, Note Name: G3
Note OFF: Time 83250, Note Name: E3
Note ON: Time 83280, Note Name: E3, Velocity: 42
Note ON: Time 83280, Note Name: G3, Velocity: 50
Note OFF: Time 83460, Note Name: G3
Note OFF: Time 83460, Note Name: E3
Note ON: Time 83520, Note Name: E3, Velocity: 38
Note ON: Time 83520, Note Name: G3, Velocity: 45
Note OFF: Time 83700, Note Name: G3
Note OFF: Time 83700, Note Name: E3
Note OFF: Time 83760, Note Name: C3
Note ON: Time 83760, Note Name: A#1, Velocity: 46
Note ON: Time 83760, Note Name: A#2, Velocity: 55
Note OFF: Time 84000, Note Name: A#2
Note OFF: Time 84000, Note Name: A#1
Note ON: Time 84000, Note Name: G3, Velocity: 45
Note ON: Time 84000, Note Name: F3, Velocity: 38
Note OFF: Time 84240, Note Name: F3
Note OFF: Time 84240, Note Name: G3
Note ON: Time 84240, Note Name: C2, Velocity: 45
Note ON: Time 84240, Note Name: C3, Velocity: 53
Note OFF: Time 84480, Note Name: C2
Note ON: Time 84480, Note Name: E3, Velocity: 39
Note ON: Time 84480, Note Name: G3, Velocity: 47
Note OFF: Time 84570, Note Name: G3
Note OFF: Time 84570, Note Name: E3
Note ON: Time 84600, Note Name: E3, Velocity: 39
Note ON: Time 84600, Note Name: G3, Velocity: 47
Note OFF: Time 84690, Note Name: G3
Note OFF: Time 84690, Note Name: E3
Note ON: Time 84720, Note Name: G3, Velocity: 50
Note ON: Time 84720, Note Name: E3, Velocity: 42
Note OFF: Time 84900, Note Name: E3
Note OFF: Time 84900, Note Name: G3
Note ON: Time 84960, Note Name: E3, Velocity: 38
Note ON: Time 84960, Note Name: G3, Velocity: 45
Note OFF: Time 85140, Note Name: G3
Note OFF: Time 85140, Note Name: E3
Note OFF: Time 85200, Note Name: C3
Note ON: Time 85200, Note Name: A#1, Velocity: 46
Note ON: Time 85200, Note Name: A#2, Velocity: 55
Note OFF: Time 85440, Note Name: A#2
Note OFF: Time 85440, Note Name: A#1
Note ON: Time 85440, Note Name: F3, Velocity: 38
Note ON: Time 85440, Note Name: G3, Velocity: 45
Note OFF: Time 85680, Note Name: G3
Note OFF: Time 85680, Note Name: F3
Note ON: Time 85680, Note Name: C3, Velocity: 53
Note ON: Time 85680, Note Name: C2, Velocity: 45
Note OFF: Time 85920, Note Name: C2
Note OFF: Time 85920, Note Name: C3
Note ON: Time 85920, Note Name: C4, Velocity: 47
Note ON: Time 85920, Note Name: G3, Velocity: 39
Note ON: Time 85920, Note Name: A#3, Velocity: 39
Note OFF: Time 86010, Note Name: A#3
Note OFF: Time 86010, Note Name: G3
Note OFF: Time 86010, Note Name: C4
Note ON: Time 86040, Note Name: G3, Velocity: 39
Note ON: Time 86040, Note Name: A#3, Velocity: 39
Note ON: Time 86040, Note Name: C4, Velocity: 47
Note OFF: Time 86130, Note Name: C4
Note OFF: Time 86130, Note Name: A#3
Note OFF: Time 86130, Note Name: G3
Note ON: Time 86160, Note Name: G3, Velocity: 42
Note ON: Time 86160, Note Name: A#3, Velocity: 42
Note ON: Time 86160, Note Name: C4, Velocity: 50
Note OFF: Time 86340, Note Name: C4
Note OFF: Time 86340, Note Name: A#3
Note OFF: Time 86340, Note Name: G3
Note ON: Time 86400, Note Name: A#3, Velocity: 38
Note ON: Time 86400, Note Name: G3, Velocity: 38
Note ON: Time 86400, Note Name: C4, Velocity: 45
Note OFF: Time 86580, Note Name: C4
Note OFF: Time 86580, Note Name: G3
Note OFF: Time 86580, Note Name: A#3
Note ON: Time 86640, Note Name: F2, Velocity: 46
Note ON: Time 86640, Note Name: F3, Velocity: 55
Note OFF: Time 86880, Note Name: F2
Note ON: Time 86880, Note Name: G#3, Velocity: 38
Note ON: Time 86880, Note Name: C4, Velocity: 45
Note OFF: Time 87120, Note Name: C4
Note OFF: Time 87120, Note Name: G#3
Note OFF: Time 87120, Note Name: F3
Note ON: Time 87120, Note Name: C#2, Velocity: 49
Note ON: Time 87120, Note Name: C#3, Velocity: 58
Note OFF: Time 87360, Note Name: C#3
Note OFF: Time 87360, Note Name: C#2
Note ON: Time 87360, Note Name: A#3, Velocity: 38
Note ON: Time 87360, Note Name: G3, Velocity: 38
Note ON: Time 87360, Note Name: F4, Velocity: 45
Note OFF: Time 87450, Note Name: F4
Note OFF: Time 87450, Note Name: G3
Note OFF: Time 87450, Note Name: A#3
Note ON: Time 87480, Note Name: G3, Velocity: 39
Note ON: Time 87480, Note Name: F4, Velocity: 47
Note ON: Time 87480, Note Name: A#3, Velocity: 39
Note OFF: Time 87570, Note Name: A#3
Note OFF: Time 87570, Note Name: F4
Note OFF: Time 87570, Note Name: G3
Note ON: Time 87600, Note Name: A#3, Velocity: 41
Note ON: Time 87600, Note Name: G3, Velocity: 41
Note ON: Time 87600, Note Name: F4, Velocity: 49
Note OFF: Time 87780, Note Name: F4
Note OFF: Time 87780, Note Name: G3
Note OFF: Time 87780, Note Name: A#3
Note ON: Time 87840, Note Name: G3, Velocity: 38
Note ON: Time 87840, Note Name: A#3, Velocity: 38
Note ON: Time 87840, Note Name: F4, Velocity: 45
Note OFF: Time 88020, Note Name: F4
Note OFF: Time 88020, Note Name: A#3
Note OFF: Time 88020, Note Name: G3
Note ON: Time 88080, Note Name: G3, Velocity: 38
Note ON: Time 88080, Note Name: F4, Velocity: 45
Note OFF: Time 88260, Note Name: F4
Note OFF: Time 88260, Note Name: G3
Note ON: Time 88320, Note Name: F4, Velocity: 45
Note ON: Time 88320, Note Name: G3, Velocity: 38
Note OFF: Time 88500, Note Name: G3
Note OFF: Time 88500, Note Name: F4
Note ON: Time 88560, Note Name: C2, Velocity: 45
Note ON: Time 88560, Note Name: C3, Velocity: 53
Note OFF: Time 88800, Note Name: C3
Note OFF: Time 88800, Note Name: C2
Note ON: Time 88800, Note Name: E4, Velocity: 47
Note ON: Time 88800, Note Name: G3, Velocity: 39
Note OFF: Time 88890, Note Name: G3
Note OFF: Time 88890, Note Name: E4
Note ON: Time 88920, Note Name: E4, Velocity: 47
Note ON: Time 88920, Note Name: G3, Velocity: 39
Note OFF: Time 89010, Note Name: G3
Note OFF: Time 89010, Note Name: E4
Note ON: Time 89040, Note Name: E4, Velocity: 50
Note ON: Time 89040, Note Name: G3, Velocity: 42
Note OFF: Time 89220, Note Name: G3
Note OFF: Time 89220, Note Name: E4
Note ON: Time 89280, Note Name: G3, Velocity: 38
Note ON: Time 89280, Note Name: E4, Velocity: 45
Note OFF: Time 89460, Note Name: E4
Note OFF: Time 89460, Note Name: G3
Note ON: Time 89520, Note Name: A#1, Velocity: 46
Note ON: Time 89520, Note Name: A#2, Velocity: 55
Note OFF: Time 89760, Note Name: A#2
Note OFF: Time 89760, Note Name: A#1
Note ON: Time 89760, Note Name: G#3, Velocity: 38
Note ON: Time 89760, Note Name: F3, Velocity: 38
Note ON: Time 89760, Note Name: F4, Velocity: 45
Note OFF: Time 90000, Note Name: F4
Note OFF: Time 90000, Note Name: F3
Note OFF: Time 90000, Note Name: G#3
Note ON: Time 90000, Note Name: C2, Velocity: 45
Note ON: Time 90000, Note Name: C3, Velocity: 53
Note OFF: Time 90240, Note Name: C3
Note OFF: Time 90240, Note Name: C2
Note ON: Time 90240, Note Name: E4, Velocity: 47
Note ON: Time 90240, Note Name: G3, Velocity: 39
Note OFF: Time 90330, Note Name: G3
Note OFF: Time 90330, Note Name: E4
Note ON: Time 90360, Note Name: E4, Velocity: 48
Note ON: Time 90360, Note Name: G3, Velocity: 40
Note OFF: Time 90450, Note Name: G3
Note OFF: Time 90450, Note Name: E4
Note ON: Time 90480, Note Name: E4, Velocity: 50
Note ON: Time 90480, Note Name: G3, Velocity: 43
Note OFF: Time 90660, Note Name: G3
Note OFF: Time 90660, Note Name: E4
Note ON: Time 90720, Note Name: G3, Velocity: 39
Note ON: Time 90720, Note Name: E4, Velocity: 46
Note OFF: Time 90900, Note Name: E4
Note OFF: Time 90900, Note Name: G3
Note ON: Time 90960, Note Name: A#1, Velocity: 48
Note ON: Time 90960, Note Name: A#2, Velocity: 57
Note OFF: Time 91200, Note Name: A#2
Note OFF: Time 91200, Note Name: A#1
Note ON: Time 91200, Note Name: G#3, Velocity: 40
Note ON: Time 91200, Note Name: F4, Velocity: 48
Note ON: Time 91200, Note Name: F3, Velocity: 40
Note OFF: Time 91440, Note Name: F3
Note OFF: Time 91440, Note Name: F4
Note OFF: Time 91440, Note Name: G#3
Note ON: Time 91440, Note Name: A#1, Velocity: 49
Note ON: Time 91440, Note Name: A#2, Velocity: 58
Note OFF: Time 91680, Note Name: A#2
Note OFF: Time 91680, Note Name: A#1
Note ON: Time 91680, Note Name: G#3, Velocity: 41
Note ON: Time 91680, Note Name: D4, Velocity: 41
Note ON: Time 91680, Note Name: G#4, Velocity: 50
Note ON: Time 91680, Note Name: A#3, Velocity: 41
Note OFF: Time 91920, Note Name: A#3
Note OFF: Time 91920, Note Name: G#3
Note OFF: Time 91920, Note Name: D4
Note OFF: Time 91920, Note Name: G#4
Note ON: Time 91920, Note Name: D#2, Velocity: 62
Note ON: Time 91920, Note Name: D#1, Velocity: 53
Note OFF: Time 92160, Note Name: D#1
Note OFF: Time 92160, Note Name: D#2
Note ON: Time 92160, Note Name: C#4, Velocity: 46
Note ON: Time 92160, Note Name: A#3, Velocity: 46
Note ON: Time 92160, Note Name: D#4, Velocity: 54
Note ON: Time 92160, Note Name: G3, Velocity: 46
Note OFF: Time 92400, Note Name: G3
Note OFF: Time 92400, Note Name: C#4
Note OFF: Time 92400, Note Name: A#3
Note OFF: Time 92400, Note Name: D#4
Note ON: Time 92400, Note Name: A#3, Velocity: 57
Note ON: Time 92400, Note Name: C#4, Velocity: 57
Note ON: Time 92400, Note Name: D#4, Velocity: 57
Note ON: Time 92400, Note Name: G4, Velocity: 68
Note OFF: Time 92640, Note Name: G4
Note OFF: Time 92640, Note Name: A#3
Note OFF: Time 92640, Note Name: C#4
Note OFF: Time 92640, Note Name: D#4
Note ON: Time 92640, Note Name: C#4, Velocity: 49
Note ON: Time 92640, Note Name: D#4, Velocity: 49
Note ON: Time 92640, Note Name: G4, Velocity: 49
Note ON: Time 92640, Note Name: C#5, Velocity: 59
Note OFF: Time 93120, Note Name: C#5
Note OFF: Time 93120, Note Name: C#4
Note OFF: Time 93120, Note Name: D#4
Note OFF: Time 93120, Note Name: G4
Note ON: Time 93120, Note Name: G#1, Velocity: 67
Note ON: Time 93120, Note Name: G#2, Velocity: 79
Note OFF: Time 93240, Note Name: G#2
Note OFF: Time 93240, Note Name: G#1
Note ON: Time 93360, Note Name: C4, Velocity: 67
Note ON: Time 93360, Note Name: D#3, Velocity: 67
Note ON: Time 93360, Note Name: D#4, Velocity: 79
Note OFF: Time 93600, Note Name: D#4
Note OFF: Time 93600, Note Name: D#3
Note OFF: Time 93600, Note Name: C4
Note ON: Time 93600, Note Name: G#4, Velocity: 77
Note ON: Time 93600, Note Name: C4, Velocity: 77
Note ON: Time 93600, Note Name: G#3, Velocity: 64
Note OFF: Time 93840, Note Name: G#3
Note OFF: Time 93840, Note Name: C4
Note OFF: Time 93840, Note Name: G#4
Note ON: Time 93840, Note Name: D#2, Velocity: 72
Note ON: Time 93840, Note Name: D#3, Velocity: 85
Note OFF: Time 93900, Note Name: D#3
Note OFF: Time 93900, Note Name: D#2
Note ON: Time 94080, Note Name: G#2, Velocity: 73
Note ON: Time 94080, Note Name: G#3, Velocity: 86
Note OFF: Time 94200, Note Name: G#3
Note OFF: Time 94200, Note Name: G#2
Note ON: Time 94320, Note Name: D#1, Velocity: 61
Note ON: Time 94320, Note Name: D#2, Velocity: 73
Note OFF: Time 94560, Note Name: D#2
Note OFF: Time 94560, Note Name: D#1
Note ON: Time 94560, Note Name: G#1, Velocity: 67
Note ON: Time 94560, Note Name: G#2, Velocity: 79
Note OFF: Time 94800, Note Name: G#2
Note OFF: Time 94800, Note Name: G#1
Note ON: Time 94800, Note Name: C4, Velocity: 61
Note ON: Time 94800, Note Name: D#4, Velocity: 73
Note ON: Time 94800, Note Name: D#3, Velocity: 61
Note OFF: Time 95040, Note Name: D#3
Note OFF: Time 95040, Note Name: D#4
Note OFF: Time 95040, Note Name: C4
Note ON: Time 95040, Note Name: G#4, Velocity: 75
Note ON: Time 95040, Note Name: C4, Velocity: 75
Note ON: Time 95040, Note Name: G#3, Velocity: 63
Note OFF: Time 95280, Note Name: G#3
Note OFF: Time 95280, Note Name: C4
Note OFF: Time 95280, Note Name: G#4
Note ON: Time 95280, Note Name: D#2, Velocity: 67
Note ON: Time 95280, Note Name: D#3, Velocity: 80
Note OFF: Time 95340, Note Name: D#3
Note OFF: Time 95340, Note Name: D#2
Note ON: Time 95520, Note Name: G#2, Velocity: 73
Note ON: Time 95520, Note Name: G#3, Velocity: 86
Note OFF: Time 95640, Note Name: G#3
Note OFF: Time 95640, Note Name: G#2
Note ON: Time 95760, Note Name: D#1, Velocity: 61
Note ON: Time 95760, Note Name: D#2, Velocity: 73
Note OFF: Time 96000, Note Name: D#2
Note OFF: Time 96000, Note Name: D#1
Note ON: Time 96000, Note Name: G#1, Velocity: 67
Note ON: Time 96000, Note Name: G#2, Velocity: 79
Note OFF: Time 96240, Note Name: G#2
Note OFF: Time 96240, Note Name: G#1
Note ON: Time 96240, Note Name: C4, Velocity: 61
Note ON: Time 96240, Note Name: D#4, Velocity: 73
Note ON: Time 96240, Note Name: D#3, Velocity: 61
Note OFF: Time 96480, Note Name: D#3
Note OFF: Time 96480, Note Name: D#4
Note OFF: Time 96480, Note Name: C4
Note ON: Time 96480, Note Name: G#4, Velocity: 75
Note ON: Time 96480, Note Name: C4, Velocity: 75
Note ON: Time 96480, Note Name: G#3, Velocity: 63
Note OFF: Time 96720, Note Name: G#3
Note OFF: Time 96720, Note Name: C4
Note OFF: Time 96720, Note Name: G#4
Note ON: Time 96720, Note Name: D#2, Velocity: 61
Note ON: Time 96720, Note Name: D#3, Velocity: 73
Note OFF: Time 96840, Note Name: D#3
Note OFF: Time 96840, Note Name: D#2
Note ON: Time 96960, Note Name: G#2, Velocity: 64
Note ON: Time 96960, Note Name: G#3, Velocity: 77
Note OFF: Time 97080, Note Name: G#3
Note OFF: Time 97080, Note Name: G#2
Note ON: Time 97140, Note Name: D#2, Velocity: 62
Note ON: Time 97170, Note Name: A#2, Velocity: 62
Note ON: Time 97200, Note Name: F#3, Velocity: 74
Note OFF: Time 97350, Note Name: F#3
Note OFF: Time 97350, Note Name: A#2
Note OFF: Time 97350, Note Name: D#2
Note ON: Time 97350, Note Name: F2, Velocity: 62
Note ON: Time 97380, Note Name: C3, Velocity: 62
Note ON: Time 97410, Note Name: D#3, Velocity: 74
Note ON: Time 97440, Note Name: A3, Velocity: 74
Note OFF: Time 97590, Note Name: A3
Note OFF: Time 97590, Note Name: D#3
Note OFF: Time 97590, Note Name: F2
Note ON: Time 97590, Note Name: F3, Velocity: 61
Note ON: Time 97620, Note Name: C4, Velocity: 61
Note ON: Time 97650, Note Name: D#4, Velocity: 73
Note OFF: Time 97680, Note Name: C3
Note ON: Time 97680, Note Name: A4, Velocity: 73
Note OFF: Time 97830, Note Name: A4
Note OFF: Time 97830, Note Name: D#4
Note OFF: Time 97830, Note Name: C4
Note OFF: Time 97830, Note Name: F3
Note ON: Time 97860, Note Name: A#2, Velocity: 63
Note ON: Time 97890, Note Name: F3, Velocity: 75
Note ON: Time 97920, Note Name: C#4, Velocity: 75
Note OFF: Time 98160, Note Name: C#4
Note OFF: Time 98160, Note Name: F3
Note OFF: Time 98160, Note Name: A#2
Note ON: Time 98160, Note Name: F#2, Velocity: 60
Note ON: Time 98160, Note Name: F#3, Velocity: 71
Note OFF: Time 98400, Note Name: F#3
Note OFF: Time 98400, Note Name: F#2
Note ON: Time 98400, Note Name: F2, Velocity: 60
Note ON: Time 98400, Note Name: F3, Velocity: 71
Note OFF: Time 98640, Note Name: F3
Note OFF: Time 98640, Note Name: F2
Note ON: Time 98640, Note Name: C#2, Velocity: 58
Note ON: Time 98640, Note Name: C#3, Velocity: 69
Note OFF: Time 98880, Note Name: C#3
Note OFF: Time 98880, Note Name: C#2
Note ON: Time 98880, Note Name: A#1, Velocity: 67
Note ON: Time 98880, Note Name: A#2, Velocity: 79
Note OFF: Time 99000, Note Name: A#2
Note OFF: Time 99000, Note Name: A#1
Note ON: Time 99120, Note Name: C#4, Velocity: 79
Note ON: Time 99120, Note Name: F3, Velocity: 67
Note ON: Time 99120, Note Name: F4, Velocity: 79
Note OFF: Time 99360, Note Name: F4
Note OFF: Time 99360, Note Name: F3
Note OFF: Time 99360, Note Name: C#4
Note ON: Time 99360, Note Name: A#4, Velocity: 77
Note ON: Time 99360, Note Name: C#4, Velocity: 77
Note ON: Time 99360, Note Name: A#3, Velocity: 64
Note OFF: Time 99600, Note Name: A#3
Note OFF: Time 99600, Note Name: C#4
Note OFF: Time 99600, Note Name: A#4
Note ON: Time 99600, Note Name: F2, Velocity: 72
Note ON: Time 99600, Note Name: F3, Velocity: 85
Note OFF: Time 99660, Note Name: F3
Note OFF: Time 99660, Note Name: F2
Note ON: Time 99840, Note Name: A#2, Velocity: 73
Note ON: Time 99840, Note Name: A#3, Velocity: 86
Note OFF: Time 99960, Note Name: A#3
Note OFF: Time 99960, Note Name: A#2
Note ON: Time 100080, Note Name: F1, Velocity: 61
Note ON: Time 100080, Note Name: F2, Velocity: 73
Note OFF: Time 100320, Note Name: F2
Note OFF: Time 100320, Note Name: F1
Note ON: Time 100320, Note Name: A#1, Velocity: 67
Note ON: Time 100320, Note Name: A#2, Velocity: 79
Note OFF: Time 100560, Note Name: A#2
Note OFF: Time 100560, Note Name: A#1
Note ON: Time 100560, Note Name: C#4, Velocity: 61
Note ON: Time 100560, Note Name: F4, Velocity: 73
Note ON: Time 100560, Note Name: F3, Velocity: 61
Note OFF: Time 100800, Note Name: F3
Note OFF: Time 100800, Note Name: F4
Note OFF: Time 100800, Note Name: C#4
Note ON: Time 100800, Note Name: A#4, Velocity: 75
Note ON: Time 100800, Note Name: C#4, Velocity: 75
Note ON: Time 100800, Note Name: A#3, Velocity: 63
Note OFF: Time 101040, Note Name: A#3
Note OFF: Time 101040, Note Name: C#4
Note OFF: Time 101040, Note Name: A#4
Note ON: Time 101040, Note Name: F2, Velocity: 67
Note ON: Time 101040, Note Name: F3, Velocity: 80
Note OFF: Time 101100, Note Name: F3
Note OFF: Time 101100, Note Name: F2
Note ON: Time 101280, Note Name: A#2, Velocity: 73
Note ON: Time 101280, Note Name: A#3, Velocity: 86
Note OFF: Time 101400, Note Name: A#3
Note OFF: Time 101400, Note Name: A#2
Note ON: Time 101520, Note Name: A#1, Velocity: 61
Note ON: Time 101520, Note Name: A#2, Velocity: 73
Note OFF: Time 101760, Note Name: A#2
Note OFF: Time 101760, Note Name: A#1
Note ON: Time 101760, Note Name: D#1, Velocity: 67
Note ON: Time 101760, Note Name: D#2, Velocity: 79
Note OFF: Time 101880, Note Name: D#2
Note OFF: Time 101880, Note Name: D#1
Note ON: Time 102000, Note Name: G4, Velocity: 60
Note ON: Time 102000, Note Name: C#4, Velocity: 60
Note ON: Time 102000, Note Name: C5, Velocity: 72
Note ON: Time 102000, Note Name: D#4, Velocity: 60
Note OFF: Time 102120, Note Name: C5
Note ON: Time 102120, Note Name: A#4, Velocity: 70
Note OFF: Time 102240, Note Name: A#4
Note OFF: Time 102240, Note Name: D#4
Note OFF: Time 102240, Note Name: C#4
Note OFF: Time 102240, Note Name: G4
Note ON: Time 102240, Note Name: D#3, Velocity: 75
Note OFF: Time 102360, Note Name: D#3
Note ON: Time 102480, Note Name: A#4, Velocity: 72
Note ON: Time 102480, Note Name: C4, Velocity: 58
Note ON: Time 102480, Note Name: D#4, Velocity: 69
Note OFF: Time 102600, Note Name: A#4
Note ON: Time 102600, Note Name: G#4, Velocity: 70
Note OFF: Time 102720, Note Name: G#4
Note OFF: Time 102720, Note Name: D#4
Note OFF: Time 102720, Note Name: C4
Note ON: Time 102720, Note Name: D#3, Velocity: 73
Note OFF: Time 102840, Note Name: D#3
Note ON: Time 102960, Note Name: G#4, Velocity: 72
Note ON: Time 102960, Note Name: A#3, Velocity: 56
Note ON: Time 102960, Note Name: D#4, Velocity: 67
Note OFF: Time 103080, Note Name: G#4
Note ON: Time 103080, Note Name: G4, Velocity: 70
Note OFF: Time 103200, Note Name: G4
Note OFF: Time 103200, Note Name: D#4
Note OFF: Time 103200, Note Name: A#3
Note ON: Time 103200, Note Name: A#2, Velocity: 70
Note OFF: Time 103320, Note Name: A#2
Note ON: Time 103440, Note Name: G4, Velocity: 72
Note ON: Time 103440, Note Name: G#3, Velocity: 55
Note ON: Time 103440, Note Name: D4, Velocity: 66
Note ON: Time 103440, Note Name: A#3, Velocity: 55
Note OFF: Time 103560, Note Name: G4
Note ON: Time 103560, Note Name: F4, Velocity: 70
Note OFF: Time 103680, Note Name: F4
Note OFF: Time 103680, Note Name: A#3
Note OFF: Time 103680, Note Name: D4
Note OFF: Time 103680, Note Name: G#3
Note ON: Time 103680, Note Name: D#3, Velocity: 72
Note OFF: Time 103800, Note Name: D#3
Note ON: Time 103920, Note Name: F4, Velocity: 72
Note ON: Time 103920, Note Name: G3, Velocity: 57
Note ON: Time 103920, Note Name: A#3, Velocity: 68
Note OFF: Time 104040, Note Name: F4
Note ON: Time 104040, Note Name: D#4, Velocity: 70
Note OFF: Time 104160, Note Name: D#4
Note OFF: Time 104160, Note Name: A#3
Note OFF: Time 104160, Note Name: G3
Note ON: Time 104160, Note Name: F2, Velocity: 62
Note ON: Time 104160, Note Name: F3, Velocity: 74
Note OFF: Time 104400, Note Name: F2
Note ON: Time 104400, Note Name: C#4, Velocity: 72
Note ON: Time 104400, Note Name: G#3, Velocity: 68
Note OFF: Time 104520, Note Name: C#4
Note ON: Time 104520, Note Name: C4, Velocity: 70
Note OFF: Time 104640, Note Name: C4
Note OFF: Time 104640, Note Name: G#3
Note OFF: Time 104640, Note Name: F3
Note ON: Time 104640, Note Name: C#2, Velocity: 62
Note ON: Time 104640, Note Name: C#3, Velocity: 74
Note OFF: Time 104880, Note Name: C#3
Note OFF: Time 104880, Note Name: C#2
Note ON: Time 104880, Note Name: F3, Velocity: 55
Note ON: Time 104880, Note Name: A#3, Velocity: 64
Note OFF: Time 105120, Note Name: A#3
Note OFF: Time 105120, Note Name: F3
Note ON: Time 105120, Note Name: C2, Velocity: 50
Note ON: Time 105120, Note Name: C3, Velocity: 60
Note OFF: Time 105360, Note Name: C3
Note OFF: Time 105360, Note Name: C2
Note ON: Time 105360, Note Name: E3, Velocity: 45
Note ON: Time 105360, Note Name: C4, Velocity: 54
Note ON: Time 105360, Note Name: A#3, Velocity: 45
Note OFF: Time 105600, Note Name: A#3
Note OFF: Time 105600, Note Name: C4
Note OFF: Time 105600, Note Name: E3
Note ON: Time 105600, Note Name: F1, Velocity: 52
Note ON: Time 105600, Note Name: F2, Velocity: 62
Note OFF: Time 105840, Note Name: F2
Note OFF: Time 105840, Note Name: F1
Note ON: Time 105840, Note Name: F3, Velocity: 58
Note ON: Time 105840, Note Name: G#3, Velocity: 58
Note ON: Time 105840, Note Name: C4, Velocity: 58
Note OFF: Time 106080, Note Name: C4
Note OFF: Time 106080, Note Name: G#3
Note OFF: Time 106080, Note Name: F3
Note ON: Time 106080, Note Name: D#2, Velocity: 43
Note ON: Time 106080, Note Name: D#3, Velocity: 51
Note OFF: Time 106200, Note Name: D#3
Note OFF: Time 106200, Note Name: D#2
Note ON: Time 106320, Note Name: D#3, Velocity: 40
Note ON: Time 106320, Note Name: A#3, Velocity: 47
Note OFF: Time 106560, Note Name: A#3
Note OFF: Time 106560, Note Name: D#3
Note ON: Time 106560, Note Name: G#2, Velocity: 40
Note ON: Time 106560, Note Name: D#3, Velocity: 48
Note ON: Time 106560, Note Name: G#3, Velocity: 56
Note OFF: Time 106800, Note Name: G#3
Note OFF: Time 106800, Note Name: D#3
Note OFF: Time 106800, Note Name: G#2
Note ON: Time 107280, Note Name: G#2, Velocity: 55
Note ON: Time 107280, Note Name: G#3, Velocity: 65
Note OFF: Time 107520, Note Name: G#3
Note OFF: Time 107520, Note Name: G#2
Note ON: Time 107520, Note Name: C#2, Velocity: 56
Note ON: Time 107520, Note Name: C#3, Velocity: 67
Note OFF: Time 107760, Note Name: C#3
Note OFF: Time 107760, Note Name: C#2
Note ON: Time 107760, Note Name: F3, Velocity: 50
Note ON: Time 107760, Note Name: A#3, Velocity: 58
Note OFF: Time 108000, Note Name: A#3
Note OFF: Time 108000, Note Name: F3
Note ON: Time 108000, Note Name: C2, Velocity: 57
Note ON: Time 108000, Note Name: C3, Velocity: 69
Note OFF: Time 108240, Note Name: C3
Note OFF: Time 108240, Note Name: C2
Note ON: Time 108240, Note Name: A#3, Velocity: 51
Note ON: Time 108240, Note Name: E4, Velocity: 62
Note ON: Time 108240, Note Name: C4, Velocity: 51
Note OFF: Time 108480, Note Name: C4
Note OFF: Time 108480, Note Name: E4
Note OFF: Time 108480, Note Name: A#3
Note ON: Time 108480, Note Name: F1, Velocity: 59
Note ON: Time 108480, Note Name: F2, Velocity: 71
Note OFF: Time 108720, Note Name: F2
Note OFF: Time 108720, Note Name: F1
Note ON: Time 108720, Note Name: G#3, Velocity: 66
Note ON: Time 108720, Note Name: C4, Velocity: 66
Note ON: Time 108720, Note Name: F4, Velocity: 66
Note OFF: Time 108960, Note Name: F4
Note OFF: Time 108960, Note Name: C4
Note OFF: Time 108960, Note Name: G#3
Note ON: Time 108960, Note Name: D#2, Velocity: 58
Note ON: Time 108960, Note Name: D#3, Velocity: 70
Note OFF: Time 109080, Note Name: D#3
Note OFF: Time 109080, Note Name: D#2
Note ON: Time 109200, Note Name: A#3, Velocity: 46
Note ON: Time 109200, Note Name: C#4, Velocity: 46
Note ON: Time 109200, Note Name: D#4, Velocity: 55
Note ON: Time 109200, Note Name: G4, Velocity: 64
Note OFF: Time 109440, Note Name: G4
Note OFF: Time 109440, Note Name: A#3
Note OFF: Time 109440, Note Name: C#4
Note OFF: Time 109440, Note Name: D#4
Note ON: Time 109440, Note Name: G#3, Velocity: 55
Note ON: Time 109440, Note Name: D#4, Velocity: 55
Note ON: Time 109440, Note Name: G#4, Velocity: 64
Note OFF: Time 109560, Note Name: G#4
Note OFF: Time 109560, Note Name: D#4
Note OFF: Time 109560, Note Name: G#3
Note ON: Time 109680, Note Name: G#4, Velocity: 64
Note ON: Time 109680, Note Name: B3, Velocity: 64
Note ON: Time 109680, Note Name: D4, Velocity: 64
Note ON: Time 109680, Note Name: B4, Velocity: 64
Note OFF: Time 109860, Note Name: B4
Note OFF: Time 109860, Note Name: G#4
Note OFF: Time 109860, Note Name: B3
Note OFF: Time 109860, Note Name: D4
Note ON: Time 109860, Note Name: G#4, Velocity: 57
Note ON: Time 109860, Note Name: C4, Velocity: 57
Note ON: Time 109860, Note Name: C5, Velocity: 57
Note ON: Time 109860, Note Name: D#4, Velocity: 57
Note OFF: Time 109914, Note Name: D#4
Note OFF: Time 109914, Note Name: G#4
Note OFF: Time 109914, Note Name: C4
Note OFF: Time 109914, Note Name: C5
Note ON: Time 109920, Note Name: G#4, Velocity: 64
Note ON: Time 109920, Note Name: C5, Velocity: 64
Note ON: Time 109920, Note Name: C4, Velocity: 64
Note ON: Time 109920, Note Name: D#4, Velocity: 64
Note OFF: Time 110040, Note Name: D#4
Note OFF: Time 110040, Note Name: G#4
Note OFF: Time 110040, Note Name: C5
Note OFF: Time 110040, Note Name: C4
Note ON: Time 110070, Note Name: F3, Velocity: 55
Note ON: Time 110100, Note Name: C4, Velocity: 55
Note ON: Time 110130, Note Name: D#4, Velocity: 55
Note ON: Time 110160, Note Name: A4, Velocity: 65
Note OFF: Time 110340, Note Name: A4
Note OFF: Time 110340, Note Name: F3
Note OFF: Time 110340, Note Name: C4
Note OFF: Time 110340, Note Name: D#4
Note ON: Time 110340, Note Name: A#2, Velocity: 59
Note ON: Time 110370, Note Name: F3, Velocity: 59
Note ON: Time 110400, Note Name: C#4, Velocity: 71
Note OFF: Time 110580, Note Name: C#4
Note OFF: Time 110580, Note Name: F3
Note OFF: Time 110580, Note Name: A#2
Note ON: Time 110580, Note Name: D#3, Velocity: 55
Note ON: Time 110610, Note Name: A#3, Velocity: 55
Note ON: Time 110640, Note Name: F#4, Velocity: 65
Note OFF: Time 110820, Note Name: F#4
Note OFF: Time 110820, Note Name: A#3
Note OFF: Time 110820, Note Name: D#3
Note ON: Time 110820, Note Name: A#2, Velocity: 51
Note ON: Time 110850, Note Name: F3, Velocity: 51
Note ON: Time 110880, Note Name: C#4, Velocity: 62
Note OFF: Time 111060, Note Name: C#4
Note OFF: Time 111060, Note Name: F3
Note OFF: Time 111060, Note Name: A#2
Note ON: Time 111060, Note Name: D#2, Velocity: 51
Note ON: Time 111090, Note Name: A#2, Velocity: 51
Note ON: Time 111120, Note Name: F#3, Velocity: 62
Note OFF: Time 111300, Note Name: F#3
Note OFF: Time 111300, Note Name: A#2
Note OFF: Time 111300, Note Name: D#2
Note ON: Time 111300, Note Name: A#1, Velocity: 51
Note ON: Time 111330, Note Name: F2, Velocity: 51
Note ON: Time 111360, Note Name: C#3, Velocity: 62
Note OFF: Time 111540, Note Name: C#3
Note OFF: Time 111540, Note Name: F2
Note OFF: Time 111540, Note Name: A#1
Note ON: Time 111540, Note Name: D#2, Velocity: 50
Note ON: Time 111570, Note Name: A#2, Velocity: 50
Note ON: Time 111600, Note Name: F#3, Velocity: 60
Note OFF: Time 111780, Note Name: F#3
Note OFF: Time 111780, Note Name: A#2
Note OFF: Time 111780, Note Name: D#2
Note ON: Time 111780, Note Name: A#2, Velocity: 55
Note ON: Time 111810, Note Name: F3, Velocity: 55
Note ON: Time 111840, Note Name: C#4, Velocity: 65
Note OFF: Time 112020, Note Name: C#4
Note OFF: Time 112020, Note Name: F3
Note OFF: Time 112020, Note Name: A#2
Note ON: Time 112080, Note Name: A1, Velocity: 55
Note OFF: Time 112140, Note Name: A1
Note ON: Time 112140, Note Name: A#1, Velocity: 55
Note OFF: Time 112200, Note Name: A#1
Note ON: Time 112200, Note Name: C2, Velocity: 56
Note OFF: Time 112260, Note Name: C2
Note ON: Time 112260, Note Name: C#2, Velocity: 56
Note OFF: Time 112320, Note Name: C#2
Note ON: Time 112320, Note Name: D#2, Velocity: 56
Note OFF: Time 112380, Note Name: D#2
Note ON: Time 112380, Note Name: F2, Velocity: 57
Note OFF: Time 112440, Note Name: F2
Note ON: Time 112440, Note Name: G2, Velocity: 58
Note OFF: Time 112500, Note Name: G2
Note ON: Time 112500, Note Name: A2, Velocity: 58
Note OFF: Time 112560, Note Name: A2
Note ON: Time 112560, Note Name: A#2, Velocity: 59
Note OFF: Time 112620, Note Name: A#2
Note ON: Time 112620, Note Name: C3, Velocity: 60
Note OFF: Time 112680, Note Name: C3
Note ON: Time 112680, Note Name: C#3, Velocity: 60
Note OFF: Time 112740, Note Name: C#3
Note ON: Time 112740, Note Name: D#3, Velocity: 61
Note OFF: Time 112800, Note Name: D#3
Note ON: Time 112800, Note Name: F3, Velocity: 61
Note OFF: Time 112860, Note Name: F3
Note ON: Time 112860, Note Name: G3, Velocity: 61
Note OFF: Time 112920, Note Name: G3
Note ON: Time 112920, Note Name: A3, Velocity: 62
Note OFF: Time 112980, Note Name: A3
Note ON: Time 112980, Note Name: A#3, Velocity: 62
Note OFF: Time 113040, Note Name: A#3
Note ON: Time 113040, Note Name: C4, Velocity: 63
Note OFF: Time 113100, Note Name: C4
Note ON: Time 113100, Note Name: C#4, Velocity: 64
Note OFF: Time 113160, Note Name: C#4
Note ON: Time 113160, Note Name: D#4, Velocity: 64
Note OFF: Time 113220, Note Name: D#4
Note ON: Time 113220, Note Name: F4, Velocity: 66
Note OFF: Time 113280, Note Name: F4
Note ON: Time 113280, Note Name: G4, Velocity: 67
Note OFF: Time 113340, Note Name: G4
Note ON: Time 113340, Note Name: A4, Velocity: 65
Note OFF: Time 113400, Note Name: A4
Note ON: Time 113400, Note Name: A#4, Velocity: 66
Note OFF: Time 113460, Note Name: A#4
Note ON: Time 113460, Note Name: C5, Velocity: 67
Note OFF: Time 113520, Note Name: C5
Note ON: Time 113520, Note Name: C#5, Velocity: 68
Note OFF: Time 113580, Note Name: C#5
Note ON: Time 113580, Note Name: D#5, Velocity: 69
Note OFF: Time 113640, Note Name: D#5
Note ON: Time 113640, Note Name: F5, Velocity: 70
Note OFF: Time 113700, Note Name: F5
Note ON: Time 113700, Note Name: G5, Velocity: 71
Note OFF: Time 113790, Note Name: G5
Note ON: Time 113790, Note Name: A5, Velocity: 72
Note OFF: Time 113850, Note Name: A5
Note ON: Time 114120, Note Name: D#1, Velocity: 68
Note ON: Time 114120, Note Name: D#2, Velocity: 80
Note OFF: Time 114240, Note Name: D#2
Note OFF: Time 114240, Note Name: D#1
Note ON: Time 114360, Note Name: D#3, Velocity: 61
Note ON: Time 114360, Note Name: D#4, Velocity: 72
Note OFF: Time 114480, Note Name: D#4
Note OFF: Time 114480, Note Name: D#3
Note ON: Time 114600, Note Name: C5, Velocity: 67
Note ON: Time 114600, Note Name: G4, Velocity: 67
Note ON: Time 114600, Note Name: D#4, Velocity: 67
Note ON: Time 114600, Note Name: D#5, Velocity: 79
Note OFF: Time 114840, Note Name: D#5
Note OFF: Time 114840, Note Name: C5
Note OFF: Time 114840, Note Name: G4
Note OFF: Time 114840, Note Name: D#4
Note ON: Time 114840, Note Name: F5, Velocity: 77
Note ON: Time 114840, Note Name: C5, Velocity: 64
Note ON: Time 114840, Note Name: F4, Velocity: 64
Note OFF: Time 115080, Note Name: F4
Note OFF: Time 115080, Note Name: C5
Note OFF: Time 115080, Note Name: F5
Note ON: Time 115080, Note Name: C4, Velocity: 61
Note ON: Time 115080, Note Name: G#4, Velocity: 61
Note ON: Time 115080, Note Name: C5, Velocity: 72
Note OFF: Time 115320, Note Name: C5
Note OFF: Time 115320, Note Name: G#4
Note OFF: Time 115320, Note Name: C4
Note ON: Time 115320, Note Name: C#4, Velocity: 61
Note ON: Time 115320, Note Name: G#4, Velocity: 61
Note ON: Time 115320, Note Name: C#5, Velocity: 72
Note OFF: Time 115440, Note Name: C#5
Note OFF: Time 115440, Note Name: G#4
Note OFF: Time 115440, Note Name: C#4
Note ON: Time 115560, Note Name: D#2, Velocity: 58
Note ON: Time 115560, Note Name: D#3, Velocity: 69
Note OFF: Time 116040, Note Name: D#3
Note OFF: Time 116040, Note Name: D#2
Note ON: Time 116040, Note Name: D#1, Velocity: 51
Note ON: Time 116040, Note Name: D#2, Velocity: 61
Note OFF: Time 116160, Note Name: D#2
Note OFF: Time 116160, Note Name: D#1
Note ON: Time 116280, Note Name: G#1, Velocity: 51
Note ON: Time 116280, Note Name: G#2, Velocity: 61
Note OFF: Time 116400, Note Name: G#2
Note OFF: Time 116400, Note Name: G#1
Note ON: Time 116700, Note Name: E2, Velocity: 53
Note ON: Time 116730, Note Name: B2, Velocity: 56
Note ON: Time 116760, Note Name: E3, Velocity: 60
Note OFF: Time 117150, Note Name: E3
Note OFF: Time 117150, Note Name: B2
Note OFF: Time 117150, Note Name: E2
Note ON: Time 117180, Note Name: E2, Velocity: 53
Note ON: Time 117210, Note Name: B2, Velocity: 56
Note ON: Time 117240, Note Name: E3, Velocity: 60
Note OFF: Time 117630, Note Name: E3
Note OFF: Time 117630, Note Name: B2
Note OFF: Time 117630, Note Name: E2
Note ON: Time 117660, Note Name: E2, Velocity: 53
Note ON: Time 117690, Note Name: B2, Velocity: 56
Note ON: Time 117720, Note Name: E3, Velocity: 60
Note OFF: Time 118110, Note Name: E3
Note OFF: Time 118110, Note Name: B2
Note OFF: Time 118110, Note Name: E2
Note ON: Time 118140, Note Name: E2, Velocity: 53
Note ON: Time 118170, Note Name: B2, Velocity: 56
Note ON: Time 118200, Note Name: E3, Velocity: 60
Note OFF: Time 118590, Note Name: E3
Note OFF: Time 118590, Note Name: B2
Note OFF: Time 118590, Note Name: E2
Note ON: Time 118620, Note Name: E2, Velocity: 53
Note ON: Time 118650, Note Name: B2, Velocity: 56
Note ON: Time 118680, Note Name: E3, Velocity: 60
Note OFF: Time 119070, Note Name: E3
Note OFF: Time 119070, Note Name: B2
Note OFF: Time 119070, Note Name: E2
Note ON: Time 119100, Note Name: E2, Velocity: 53
Note ON: Time 119130, Note Name: B2, Velocity: 56
Note ON: Time 119160, Note Name: E3, Velocity: 60
Note OFF: Time 119640, Note Name: E3
Note OFF: Time 119640, Note Name: B2
Note OFF: Time 119640, Note Name: E2
Note ON: Time 119640, Note Name: E2, Velocity: 53
Note ON: Time 119640, Note Name: B2, Velocity: 53
Note ON: Time 119640, Note Name: E3, Velocity: 63
Note OFF: Time 119700, Note Name: E3
Note OFF: Time 119700, Note Name: B2
Note OFF: Time 119700, Note Name: E2
Note ON: Time 119760, Note Name: D#2, Velocity: 24
Note ON: Time 119760, Note Name: D#3, Velocity: 28
Note OFF: Time 119820, Note Name: D#3
Note OFF: Time 119820, Note Name: D#2
Note ON: Time 119880, Note Name: C#2, Velocity: 24
Note ON: Time 119880, Note Name: C#3, Velocity: 28
Note OFF: Time 119940, Note Name: C#3
Note OFF: Time 119940, Note Name: C#2
Note ON: Time 120000, Note Name: B1, Velocity: 24
Note ON: Time 120000, Note Name: B2, Velocity: 28
Note OFF: Time 120060, Note Name: B2
Note OFF: Time 120060, Note Name: B1
Note ON: Time 120120, Note Name: E2, Velocity: 28
Note ON: Time 120120, Note Name: E3, Velocity: 35
Note OFF: Time 120180, Note Name: E3
Note OFF: Time 120180, Note Name: E2
Note ON: Time 120240, Note Name: D#2, Velocity: 27
Note ON: Time 120240, Note Name: D#3, Velocity: 32
Note OFF: Time 120300, Note Name: D#3
Note OFF: Time 120300, Note Name: D#2
Note ON: Time 120360, Note Name: C#2, Velocity: 24
Note ON: Time 120360, Note Name: C#3, Velocity: 28
Note OFF: Time 120420, Note Name: C#3
Note OFF: Time 120420, Note Name: C#2
Note ON: Time 120480, Note Name: B1, Velocity: 24
Note ON: Time 120480, Note Name: B2, Velocity: 28
Note OFF: Time 120540, Note Name: B2
Note OFF: Time 120540, Note Name: B1
Note ON: Time 120600, Note Name: E2, Velocity: 28
Note ON: Time 120600, Note Name: E3, Velocity: 35
Note OFF: Time 120660, Note Name: E3
Note OFF: Time 120660, Note Name: E2
Note ON: Time 120720, Note Name: D#2, Velocity: 24
Note ON: Time 120720, Note Name: D#3, Velocity: 28
Note OFF: Time 120780, Note Name: D#3
Note OFF: Time 120780, Note Name: D#2
Note ON: Time 120840, Note Name: C#2, Velocity: 24
Note ON: Time 120840, Note Name: C#3, Velocity: 28
Note OFF: Time 120900, Note Name: C#3
Note OFF: Time 120900, Note Name: C#2
Note ON: Time 120960, Note Name: B1, Velocity: 24
Note ON: Time 120960, Note Name: B2, Velocity: 28
Note OFF: Time 121020, Note Name: B2
Note OFF: Time 121020, Note Name: B1
Note ON: Time 121080, Note Name: E2, Velocity: 29
Note ON: Time 121080, Note Name: E3, Velocity: 34
Note OFF: Time 121140, Note Name: E3
Note OFF: Time 121140, Note Name: E2
Note ON: Time 121200, Note Name: D#2, Velocity: 24
Note ON: Time 121200, Note Name: D#3, Velocity: 28
Note OFF: Time 121260, Note Name: D#3
Note OFF: Time 121260, Note Name: D#2
Note ON: Time 121320, Note Name: C#2, Velocity: 24
Note ON: Time 121320, Note Name: C#3, Velocity: 28
Note OFF: Time 121380, Note Name: C#3
Note OFF: Time 121380, Note Name: C#2
Note ON: Time 121440, Note Name: B1, Velocity: 24
Note ON: Time 121440, Note Name: B2, Velocity: 28
Note OFF: Time 121500, Note Name: B2
Note OFF: Time 121500, Note Name: B1
Note ON: Time 121560, Note Name: E2, Velocity: 29
Note ON: Time 121560, Note Name: E3, Velocity: 34
Note OFF: Time 121620, Note Name: E3
Note OFF: Time 121620, Note Name: E2
Note ON: Time 121680, Note Name: D#2, Velocity: 26
Note ON: Time 121680, Note Name: D#3, Velocity: 32
Note OFF: Time 121740, Note Name: D#3
Note OFF: Time 121740, Note Name: D#2
Note ON: Time 121800, Note Name: C#2, Velocity: 24
Note ON: Time 121800, Note Name: C#3, Velocity: 29
Note OFF: Time 121860, Note Name: C#3
Note OFF: Time 121860, Note Name: C#2
Note ON: Time 121920, Note Name: B1, Velocity: 24
Note ON: Time 121920, Note Name: B2, Velocity: 29
Note OFF: Time 121980, Note Name: B2
Note OFF: Time 121980, Note Name: B1
Note ON: Time 122040, Note Name: E2, Velocity: 29
Note ON: Time 122040, Note Name: E3, Velocity: 35
Note OFF: Time 122100, Note Name: E3
Note OFF: Time 122100, Note Name: E2
Note ON: Time 122160, Note Name: D#2, Velocity: 23
Note ON: Time 122160, Note Name: D#3, Velocity: 28
Note OFF: Time 122220, Note Name: D#3
Note OFF: Time 122220, Note Name: D#2
Note ON: Time 122280, Note Name: C#2, Velocity: 23
Note ON: Time 122280, Note Name: C#3, Velocity: 28
Note OFF: Time 122340, Note Name: C#3
Note OFF: Time 122340, Note Name: C#2
Note ON: Time 122400, Note Name: B1, Velocity: 23
Note ON: Time 122400, Note Name: B2, Velocity: 28
Note OFF: Time 122460, Note Name: B2
Note OFF: Time 122460, Note Name: B1
Note ON: Time 122520, Note Name: E2, Velocity: 30
Note ON: Time 122520, Note Name: E3, Velocity: 36
Note OFF: Time 122580, Note Name: E3
Note OFF: Time 122580, Note Name: E2
Note ON: Time 122640, Note Name: D#2, Velocity: 24
Note ON: Time 122640, Note Name: D#3, Velocity: 29
Note OFF: Time 122700, Note Name: D#3
Note OFF: Time 122700, Note Name: D#2
Note ON: Time 122760, Note Name: C#2, Velocity: 25
Note ON: Time 122760, Note Name: C#3, Velocity: 29
Note OFF: Time 122820, Note Name: C#3
Note OFF: Time 122820, Note Name: C#2
Note ON: Time 122880, Note Name: B1, Velocity: 25
Note ON: Time 122880, Note Name: B2, Velocity: 29
Note OFF: Time 122940, Note Name: B2
Note OFF: Time 122940, Note Name: B1
Note ON: Time 123000, Note Name: E2, Velocity: 30
Note ON: Time 123000, Note Name: E3, Velocity: 36
Note OFF: Time 123060, Note Name: E3
Note OFF: Time 123060, Note Name: E2
Note ON: Time 123120, Note Name: D#2, Velocity: 28
Note ON: Time 123120, Note Name: D#3, Velocity: 34
Note OFF: Time 123180, Note Name: D#3
Note OFF: Time 123180, Note Name: D#2
Note ON: Time 123240, Note Name: C#2, Velocity: 25
Note ON: Time 123240, Note Name: C#3, Velocity: 30
Note OFF: Time 123300, Note Name: C#3
Note OFF: Time 123300, Note Name: C#2
Note ON: Time 123360, Note Name: B1, Velocity: 25
Note ON: Time 123360, Note Name: B2, Velocity: 30
Note OFF: Time 123420, Note Name: B2
Note OFF: Time 123420, Note Name: B1
Note ON: Time 123480, Note Name: E2, Velocity: 30
Note ON: Time 123480, Note Name: E3, Velocity: 36
Note OFF: Time 123540, Note Name: E3
Note OFF: Time 123540, Note Name: E2
Note ON: Time 123600, Note Name: D#2, Velocity: 25
Note ON: Time 123600, Note Name: D#3, Velocity: 29
Note OFF: Time 123660, Note Name: D#3
Note OFF: Time 123660, Note Name: D#2
Note ON: Time 123720, Note Name: C#2, Velocity: 25
Note ON: Time 123720, Note Name: C#3, Velocity: 29
Note OFF: Time 123780, Note Name: C#3
Note OFF: Time 123780, Note Name: C#2
Note ON: Time 123840, Note Name: B1, Velocity: 26
Note ON: Time 123840, Note Name: B2, Velocity: 30
Note OFF: Time 123900, Note Name: B2
Note OFF: Time 123900, Note Name: B1
Note ON: Time 123960, Note Name: E2, Velocity: 31
Note ON: Time 123960, Note Name: E3, Velocity: 36
Note OFF: Time 124020, Note Name: E3
Note OFF: Time 124020, Note Name: E2
Note ON: Time 124080, Note Name: D#2, Velocity: 26
Note ON: Time 124080, Note Name: D#3, Velocity: 30
Note OFF: Time 124140, Note Name: D#3
Note OFF: Time 124140, Note Name: D#2
Note ON: Time 124200, Note Name: C#2, Velocity: 26
Note ON: Time 124200, Note Name: C#3, Velocity: 30
Note OFF: Time 124260, Note Name: C#3
Note OFF: Time 124260, Note Name: C#2
Note ON: Time 124320, Note Name: B1, Velocity: 26
Note ON: Time 124320, Note Name: B2, Velocity: 30
Note OFF: Time 124380, Note Name: B2
Note OFF: Time 124380, Note Name: B1
Note ON: Time 124440, Note Name: E2, Velocity: 31
Note ON: Time 124440, Note Name: E3, Velocity: 36
Note OFF: Time 124500, Note Name: E3
Note OFF: Time 124500, Note Name: E2
Note ON: Time 124560, Note Name: D#2, Velocity: 28
Note ON: Time 124560, Note Name: D#3, Velocity: 33
Note OFF: Time 124620, Note Name: D#3
Note OFF: Time 124620, Note Name: D#2
Note ON: Time 124680, Note Name: C#2, Velocity: 25
Note ON: Time 124680, Note Name: C#3, Velocity: 30
Note OFF: Time 124740, Note Name: C#3
Note OFF: Time 124740, Note Name: C#2
Note ON: Time 124800, Note Name: B1, Velocity: 25
Note ON: Time 124800, Note Name: B2, Velocity: 30
Note OFF: Time 124860, Note Name: B2
Note OFF: Time 124860, Note Name: B1
Note ON: Time 124920, Note Name: E2, Velocity: 30
Note ON: Time 124920, Note Name: E3, Velocity: 37
Note OFF: Time 124980, Note Name: E3
Note OFF: Time 124980, Note Name: E2
Note ON: Time 125040, Note Name: D#2, Velocity: 25
Note ON: Time 125040, Note Name: D#3, Velocity: 30
Note OFF: Time 125100, Note Name: D#3
Note OFF: Time 125100, Note Name: D#2
Note ON: Time 125160, Note Name: C#2, Velocity: 25
Note ON: Time 125160, Note Name: C#3, Velocity: 30
Note OFF: Time 125220, Note Name: C#3
Note OFF: Time 125220, Note Name: C#2
Note ON: Time 125280, Note Name: B1, Velocity: 25
Note ON: Time 125280, Note Name: B2, Velocity: 30
Note OFF: Time 125340, Note Name: B2
Note OFF: Time 125340, Note Name: B1
Note ON: Time 125400, Note Name: E2, Velocity: 30
Note ON: Time 125400, Note Name: E3, Velocity: 37
Note OFF: Time 125460, Note Name: E3
Note OFF: Time 125460, Note Name: E2
Note ON: Time 125520, Note Name: D#2, Velocity: 25
Note ON: Time 125520, Note Name: D#3, Velocity: 30
Note OFF: Time 125580, Note Name: D#3
Note OFF: Time 125580, Note Name: D#2
Note ON: Time 125640, Note Name: C#2, Velocity: 25
Note ON: Time 125640, Note Name: C#3, Velocity: 30
Note OFF: Time 125700, Note Name: C#3
Note OFF: Time 125700, Note Name: C#2
Note ON: Time 125760, Note Name: B1, Velocity: 25
Note ON: Time 125760, Note Name: B2, Velocity: 30
Note OFF: Time 125820, Note Name: B2
Note OFF: Time 125820, Note Name: B1
Note ON: Time 125880, Note Name: E2, Velocity: 31
Note ON: Time 125880, Note Name: E3, Velocity: 38
Note OFF: Time 125940, Note Name: E3
Note OFF: Time 125940, Note Name: E2
Note ON: Time 126000, Note Name: D#2, Velocity: 30
Note ON: Time 126000, Note Name: D#3, Velocity: 35
Note OFF: Time 126060, Note Name: D#3
Note OFF: Time 126060, Note Name: D#2
Note ON: Time 126120, Note Name: C#2, Velocity: 26
Note ON: Time 126120, Note Name: C#3, Velocity: 33
Note OFF: Time 126180, Note Name: C#3
Note OFF: Time 126180, Note Name: C#2
Note ON: Time 126240, Note Name: B1, Velocity: 26
Note ON: Time 126240, Note Name: B2, Velocity: 33
Note OFF: Time 126300, Note Name: B2
Note OFF: Time 126300, Note Name: B1
Note ON: Time 126360, Note Name: E2, Velocity: 33
Note ON: Time 126360, Note Name: E3, Velocity: 39
Note OFF: Time 126420, Note Name: E3
Note OFF: Time 126420, Note Name: E2
Note ON: Time 126480, Note Name: D#2, Velocity: 27
Note ON: Time 126480, Note Name: D#3, Velocity: 32
Note OFF: Time 126540, Note Name: D#3
Note OFF: Time 126540, Note Name: D#2
Note ON: Time 126600, Note Name: C#2, Velocity: 27
Note ON: Time 126600, Note Name: C#3, Velocity: 33
Note OFF: Time 126660, Note Name: C#3
Note OFF: Time 126660, Note Name: C#2
Note ON: Time 126720, Note Name: B1, Velocity: 28
Note ON: Time 126720, Note Name: B2, Velocity: 33
Note OFF: Time 126780, Note Name: B2
Note OFF: Time 126780, Note Name: B1
Note ON: Time 126840, Note Name: E2, Velocity: 34
Note ON: Time 126840, Note Name: E3, Velocity: 41
Note OFF: Time 126900, Note Name: E3
Note OFF: Time 126900, Note Name: E2
Note ON: Time 126960, Note Name: D#2, Velocity: 27
Note ON: Time 126960, Note Name: D#3, Velocity: 33
Note OFF: Time 127020, Note Name: D#3
Note OFF: Time 127020, Note Name: D#2
Note ON: Time 127080, Note Name: C#2, Velocity: 27
Note ON: Time 127080, Note Name: C#3, Velocity: 33
Note OFF: Time 127140, Note Name: C#3
Note OFF: Time 127140, Note Name: C#2
Note ON: Time 127200, Note Name: B1, Velocity: 28
Note ON: Time 127200, Note Name: B2, Velocity: 33
Note OFF: Time 127260, Note Name: B2
Note OFF: Time 127260, Note Name: B1
Note ON: Time 127320, Note Name: E2, Velocity: 35
Note ON: Time 127320, Note Name: E3, Velocity: 41
Note OFF: Time 127380, Note Name: E3
Note OFF: Time 127380, Note Name: E2
Note ON: Time 127440, Note Name: D#2, Velocity: 31
Note ON: Time 127440, Note Name: D#3, Velocity: 38
Note OFF: Time 127500, Note Name: D#3
Note OFF: Time 127500, Note Name: D#2
Note ON: Time 127560, Note Name: C#2, Velocity: 28
Note ON: Time 127560, Note Name: C#3, Velocity: 35
Note OFF: Time 127620, Note Name: C#3
Note OFF: Time 127620, Note Name: C#2
Note ON: Time 127680, Note Name: B1, Velocity: 28
Note ON: Time 127680, Note Name: B2, Velocity: 35
Note OFF: Time 127740, Note Name: B2
Note OFF: Time 127740, Note Name: B1
Note ON: Time 127800, Note Name: E2, Velocity: 36
Note ON: Time 127800, Note Name: E3, Velocity: 42
Note OFF: Time 127860, Note Name: E3
Note OFF: Time 127860, Note Name: E2
Note ON: Time 127920, Note Name: D#2, Velocity: 29
Note ON: Time 127920, Note Name: D#3, Velocity: 34
Note OFF: Time 127980, Note Name: D#3
Note OFF: Time 127980, Note Name: D#2
Note ON: Time 128040, Note Name: C#2, Velocity: 29
Note ON: Time 128040, Note Name: C#3, Velocity: 34
Note OFF: Time 128100, Note Name: C#3
Note OFF: Time 128100, Note Name: C#2
Note ON: Time 128160, Note Name: B1, Velocity: 29
Note ON: Time 128160, Note Name: B2, Velocity: 34
Note OFF: Time 128220, Note Name: B2
Note OFF: Time 128220, Note Name: B1
Note ON: Time 128280, Note Name: E2, Velocity: 35
Note ON: Time 128280, Note Name: E3, Velocity: 41
Note OFF: Time 128340, Note Name: E3
Note OFF: Time 128340, Note Name: E2
Note ON: Time 128400, Note Name: D#2, Velocity: 29
Note ON: Time 128400, Note Name: D#3, Velocity: 34
Note OFF: Time 128460, Note Name: D#3
Note OFF: Time 128460, Note Name: D#2
Note ON: Time 128520, Note Name: C#2, Velocity: 29
Note ON: Time 128520, Note Name: C#3, Velocity: 34
Note OFF: Time 128580, Note Name: C#3
Note OFF: Time 128580, Note Name: C#2
Note ON: Time 128640, Note Name: B1, Velocity: 29
Note ON: Time 128640, Note Name: B2, Velocity: 34
Note OFF: Time 128700, Note Name: B2
Note OFF: Time 128700, Note Name: B1
Note ON: Time 128760, Note Name: E2, Velocity: 35
Note ON: Time 128760, Note Name: E3, Velocity: 42
Note OFF: Time 128820, Note Name: E3
Note OFF: Time 128820, Note Name: E2
Note ON: Time 128880, Note Name: D#2, Velocity: 33
Note ON: Time 128880, Note Name: D#3, Velocity: 39
Note OFF: Time 128940, Note Name: D#3
Note OFF: Time 128940, Note Name: D#2
Note ON: Time 129000, Note Name: C#2, Velocity: 29
Note ON: Time 129000, Note Name: C#3, Velocity: 35
Note OFF: Time 129060, Note Name: C#3
Note OFF: Time 129060, Note Name: C#2
Note ON: Time 129120, Note Name: B1, Velocity: 29
Note ON: Time 129120, Note Name: B2, Velocity: 35
Note OFF: Time 129180, Note Name: B2
Note OFF: Time 129180, Note Name: B1
Note ON: Time 129240, Note Name: E2, Velocity: 35
Note ON: Time 129240, Note Name: E3, Velocity: 42
Note OFF: Time 129300, Note Name: E3
Note OFF: Time 129300, Note Name: E2
Note ON: Time 129360, Note Name: D#2, Velocity: 28
Note ON: Time 129360, Note Name: D#3, Velocity: 34
Note OFF: Time 129420, Note Name: D#3
Note OFF: Time 129420, Note Name: D#2
Note ON: Time 129480, Note Name: C#2, Velocity: 29
Note ON: Time 129480, Note Name: C#3, Velocity: 34
Note OFF: Time 129540, Note Name: C#3
Note OFF: Time 129540, Note Name: C#2
Note ON: Time 129600, Note Name: B1, Velocity: 29
Note ON: Time 129600, Note Name: B2, Velocity: 34
Note OFF: Time 129660, Note Name: B2
Note OFF: Time 129660, Note Name: B1
Note ON: Time 129720, Note Name: E2, Velocity: 35
Note ON: Time 129720, Note Name: E3, Velocity: 41
Note OFF: Time 129780, Note Name: E3
Note OFF: Time 129780, Note Name: E2
Note ON: Time 129840, Note Name: D#2, Velocity: 29
Note ON: Time 129840, Note Name: D#3, Velocity: 35
Note OFF: Time 129900, Note Name: D#3
Note OFF: Time 129900, Note Name: D#2
Note ON: Time 129960, Note Name: C#2, Velocity: 29
Note ON: Time 129960, Note Name: C#3, Velocity: 35
Note OFF: Time 130020, Note Name: C#3
Note OFF: Time 130020, Note Name: C#2
Note ON: Time 130080, Note Name: B1, Velocity: 29
Note ON: Time 130080, Note Name: B2, Velocity: 35
Note OFF: Time 130140, Note Name: B2
Note OFF: Time 130140, Note Name: B1
Note ON: Time 130200, Note Name: E2, Velocity: 36
Note ON: Time 130200, Note Name: E3, Velocity: 42
Note OFF: Time 130260, Note Name: E3
Note OFF: Time 130260, Note Name: E2
Note ON: Time 130320, Note Name: D#2, Velocity: 32
Note ON: Time 130320, Note Name: D#3, Velocity: 39
Note OFF: Time 130380, Note Name: D#3
Note OFF: Time 130380, Note Name: D#2
Note ON: Time 130440, Note Name: C#2, Velocity: 29
Note ON: Time 130440, Note Name: C#3, Velocity: 36
Note OFF: Time 130500, Note Name: C#3
Note OFF: Time 130500, Note Name: C#2
Note ON: Time 130560, Note Name: B1, Velocity: 29
Note ON: Time 130560, Note Name: B2, Velocity: 35
Note OFF: Time 130620, Note Name: B2
Note OFF: Time 130620, Note Name: B1
Note ON: Time 130680, Note Name: E2, Velocity: 36
Note ON: Time 130680, Note Name: E3, Velocity: 42
Note OFF: Time 130740, Note Name: E3
Note OFF: Time 130740, Note Name: E2
Note ON: Time 130800, Note Name: D#2, Velocity: 29
Note ON: Time 130800, Note Name: D#3, Velocity: 35
Note OFF: Time 130860, Note Name: D#3
Note OFF: Time 130860, Note Name: D#2
Note ON: Time 130920, Note Name: C#2, Velocity: 29
Note ON: Time 130920, Note Name: C#3, Velocity: 35
Note OFF: Time 130980, Note Name: C#3
Note OFF: Time 130980, Note Name: C#2
Note ON: Time 131040, Note Name: B1, Velocity: 29
Note ON: Time 131040, Note Name: B2, Velocity: 35
Note OFF: Time 131100, Note Name: B2
Note OFF: Time 131100, Note Name: B1
Note ON: Time 131160, Note Name: E2, Velocity: 36
Note ON: Time 131160, Note Name: E3, Velocity: 42
Note OFF: Time 131220, Note Name: E3
Note OFF: Time 131220, Note Name: E2
Note ON: Time 131280, Note Name: D#2, Velocity: 29
Note ON: Time 131280, Note Name: D#3, Velocity: 35
Note OFF: Time 131340, Note Name: D#3
Note OFF: Time 131340, Note Name: D#2
Note ON: Time 131400, Note Name: C#2, Velocity: 29
Note ON: Time 131400, Note Name: C#3, Velocity: 35
Note OFF: Time 131460, Note Name: C#3
Note OFF: Time 131460, Note Name: C#2
Note ON: Time 131520, Note Name: B1, Velocity: 29
Note ON: Time 131520, Note Name: B2, Velocity: 35
Note OFF: Time 131580, Note Name: B2
Note OFF: Time 131580, Note Name: B1
Note ON: Time 131640, Note Name: E2, Velocity: 36
Note ON: Time 131640, Note Name: E3, Velocity: 42
Note OFF: Time 131700, Note Name: E3
Note OFF: Time 131700, Note Name: E2
Note ON: Time 131760, Note Name: D#2, Velocity: 32
Note ON: Time 131760, Note Name: D#3, Velocity: 39
Note OFF: Time 131820, Note Name: D#3
Note OFF: Time 131820, Note Name: D#2
Note ON: Time 131880, Note Name: C#2, Velocity: 29
Note ON: Time 131880, Note Name: C#3, Velocity: 36
Note OFF: Time 131940, Note Name: C#3
Note OFF: Time 131940, Note Name: C#2
Note ON: Time 132000, Note Name: B1, Velocity: 29
Note ON: Time 132000, Note Name: B2, Velocity: 36
Note OFF: Time 132060, Note Name: B2
Note OFF: Time 132060, Note Name: B1
Note ON: Time 132120, Note Name: E2, Velocity: 36
Note ON: Time 132120, Note Name: E3, Velocity: 43
Note OFF: Time 132180, Note Name: E3
Note OFF: Time 132180, Note Name: E2
Note ON: Time 132240, Note Name: D#2, Velocity: 29
Note ON: Time 132240, Note Name: D#3, Velocity: 36
Note OFF: Time 132300, Note Name: D#3
Note OFF: Time 132300, Note Name: D#2
Note ON: Time 132360, Note Name: C#2, Velocity: 29
Note ON: Time 132360, Note Name: C#3, Velocity: 36
Note OFF: Time 132420, Note Name: C#3
Note OFF: Time 132420, Note Name: C#2
Note ON: Time 132480, Note Name: B1, Velocity: 29
Note ON: Time 132480, Note Name: B2, Velocity: 36
Note OFF: Time 132540, Note Name: B2
Note OFF: Time 132540, Note Name: B1
Note ON: Time 132600, Note Name: E2, Velocity: 36
Note ON: Time 132600, Note Name: E3, Velocity: 43
Note OFF: Time 132660, Note Name: E3
Note OFF: Time 132660, Note Name: E2
Note ON: Time 132720, Note Name: D#2, Velocity: 29
Note ON: Time 132720, Note Name: D#3, Velocity: 36
Note OFF: Time 132780, Note Name: D#3
Note OFF: Time 132780, Note Name: D#2
Note ON: Time 132840, Note Name: C#2, Velocity: 30
Note ON: Time 132840, Note Name: C#3, Velocity: 36
Note OFF: Time 132900, Note Name: C#3
Note OFF: Time 132900, Note Name: C#2
Note ON: Time 132960, Note Name: B1, Velocity: 30
Note ON: Time 132960, Note Name: B2, Velocity: 35
Note OFF: Time 133020, Note Name: B2
Note OFF: Time 133020, Note Name: B1
Note ON: Time 133080, Note Name: E2, Velocity: 37
Note ON: Time 133080, Note Name: E3, Velocity: 43
Note OFF: Time 133140, Note Name: E3
Note OFF: Time 133140, Note Name: E2
Note ON: Time 133200, Note Name: D#2, Velocity: 33
Note ON: Time 133200, Note Name: D#3, Velocity: 40
Note OFF: Time 133260, Note Name: D#3
Note OFF: Time 133260, Note Name: D#2
Note ON: Time 133320, Note Name: C#2, Velocity: 30
Note ON: Time 133320, Note Name: C#3, Velocity: 37
Note OFF: Time 133380, Note Name: C#3
Note OFF: Time 133380, Note Name: C#2
Note ON: Time 133440, Note Name: B1, Velocity: 30
Note ON: Time 133440, Note Name: B2, Velocity: 37
Note OFF: Time 133500, Note Name: B2
Note OFF: Time 133500, Note Name: B1
Note ON: Time 133560, Note Name: E2, Velocity: 37
Note ON: Time 133560, Note Name: E3, Velocity: 43
Note OFF: Time 133620, Note Name: E3
Note OFF: Time 133620, Note Name: E2
Note ON: Time 133680, Note Name: D#2, Velocity: 30
Note ON: Time 133680, Note Name: D#3, Velocity: 36
Note OFF: Time 133740, Note Name: D#3
Note OFF: Time 133740, Note Name: D#2
Note ON: Time 133800, Note Name: C#2, Velocity: 30
Note ON: Time 133800, Note Name: C#3, Velocity: 37
Note OFF: Time 133860, Note Name: C#3
Note OFF: Time 133860, Note Name: C#2
Note ON: Time 133920, Note Name: B1, Velocity: 30
Note ON: Time 133920, Note Name: B2, Velocity: 37
Note OFF: Time 133980, Note Name: B2
Note OFF: Time 133980, Note Name: B1
Note ON: Time 134040, Note Name: E2, Velocity: 37
Note ON: Time 134040, Note Name: E3, Velocity: 44
Note OFF: Time 134100, Note Name: E3
Note OFF: Time 134100, Note Name: E2
Note ON: Time 134160, Note Name: D#2, Velocity: 31
Note ON: Time 134160, Note Name: D#3, Velocity: 37
Note OFF: Time 134220, Note Name: D#3
Note OFF: Time 134220, Note Name: D#2
Note ON: Time 134280, Note Name: C#2, Velocity: 31
Note ON: Time 134280, Note Name: C#3, Velocity: 37
Note OFF: Time 134340, Note Name: C#3
Note OFF: Time 134340, Note Name: C#2
Note ON: Time 134400, Note Name: B1, Velocity: 31
Note ON: Time 134400, Note Name: B2, Velocity: 38
Note OFF: Time 134460, Note Name: B2
Note OFF: Time 134460, Note Name: B1
Note ON: Time 134520, Note Name: E2, Velocity: 38
Note ON: Time 134520, Note Name: E3, Velocity: 45
Note OFF: Time 134580, Note Name: E3
Note OFF: Time 134580, Note Name: E2
Note ON: Time 134640, Note Name: D#2, Velocity: 36
Note ON: Time 134640, Note Name: D#3, Velocity: 42
Note OFF: Time 134700, Note Name: D#3
Note OFF: Time 134700, Note Name: D#2
Note ON: Time 134760, Note Name: C#2, Velocity: 31
Note ON: Time 134760, Note Name: C#3, Velocity: 38
Note OFF: Time 134820, Note Name: C#3
Note OFF: Time 134820, Note Name: C#2
Note ON: Time 134880, Note Name: B1, Velocity: 31
Note ON: Time 134880, Note Name: B2, Velocity: 39
Note OFF: Time 134940, Note Name: B2
Note OFF: Time 134940, Note Name: B1
Note ON: Time 135000, Note Name: E2, Velocity: 40
Note ON: Time 135000, Note Name: E3, Velocity: 48
Note OFF: Time 135060, Note Name: E3
Note OFF: Time 135060, Note Name: E2
Note ON: Time 135120, Note Name: D#2, Velocity: 33
Note ON: Time 135120, Note Name: D#3, Velocity: 40
Note OFF: Time 135180, Note Name: D#3
Note OFF: Time 135180, Note Name: D#2
Note ON: Time 135240, Note Name: C#2, Velocity: 33
Note ON: Time 135240, Note Name: C#3, Velocity: 41
Note OFF: Time 135300, Note Name: C#3
Note OFF: Time 135300, Note Name: C#2
Note ON: Time 135360, Note Name: B1, Velocity: 34
Note ON: Time 135360, Note Name: B2, Velocity: 42
Note OFF: Time 135420, Note Name: B2
Note OFF: Time 135420, Note Name: B1
Note ON: Time 135480, Note Name: E2, Velocity: 43
Note ON: Time 135480, Note Name: E3, Velocity: 51
Note OFF: Time 135540, Note Name: E3
Note OFF: Time 135540, Note Name: E2
Note ON: Time 135600, Note Name: D#2, Velocity: 34
Note ON: Time 135600, Note Name: D#3, Velocity: 43
Note OFF: Time 135660, Note Name: D#3
Note OFF: Time 135660, Note Name: D#2
Note ON: Time 135720, Note Name: C#2, Velocity: 35
Note ON: Time 135720, Note Name: C#3, Velocity: 43
Note OFF: Time 135780, Note Name: C#3
Note OFF: Time 135780, Note Name: C#2
Note ON: Time 135840, Note Name: B1, Velocity: 37
Note ON: Time 135840, Note Name: B2, Velocity: 43
Note OFF: Time 135900, Note Name: B2
Note OFF: Time 135900, Note Name: B1
Note ON: Time 135960, Note Name: E2, Velocity: 44
Note ON: Time 135960, Note Name: E3, Velocity: 53
Note OFF: Time 136020, Note Name: E3
Note OFF: Time 136020, Note Name: E2
Note ON: Time 136080, Note Name: D#2, Velocity: 41
Note ON: Time 136080, Note Name: D#3, Velocity: 49
Note OFF: Time 136140, Note Name: D#3
Note OFF: Time 136140, Note Name: D#2
Note ON: Time 136200, Note Name: C#2, Velocity: 38
Note ON: Time 136200, Note Name: C#3, Velocity: 46
Note OFF: Time 136260, Note Name: C#3
Note OFF: Time 136260, Note Name: C#2
Note ON: Time 136320, Note Name: B1, Velocity: 38
Note ON: Time 136320, Note Name: B2, Velocity: 46
Note OFF: Time 136380, Note Name: B2
Note OFF: Time 136380, Note Name: B1
Note ON: Time 136440, Note Name: E2, Velocity: 47
Note ON: Time 136440, Note Name: E3, Velocity: 57
Note OFF: Time 136500, Note Name: E3
Note OFF: Time 136500, Note Name: E2
Note ON: Time 136560, Note Name: D#2, Velocity: 38
Note ON: Time 136560, Note Name: D#3, Velocity: 46
Note OFF: Time 136620, Note Name: D#3
Note OFF: Time 136620, Note Name: D#2
Note ON: Time 136680, Note Name: C#2, Velocity: 40
Note ON: Time 136680, Note Name: C#3, Velocity: 47
Note OFF: Time 136740, Note Name: C#3
Note OFF: Time 136740, Note Name: C#2
Note ON: Time 136800, Note Name: B1, Velocity: 40
Note ON: Time 136800, Note Name: B2, Velocity: 48
Note OFF: Time 136860, Note Name: B2
Note OFF: Time 136860, Note Name: B1
Note ON: Time 136920, Note Name: E2, Velocity: 51
Note ON: Time 136920, Note Name: E3, Velocity: 59
Note OFF: Time 136980, Note Name: E3
Note OFF: Time 136980, Note Name: E2
Note ON: Time 137040, Note Name: D#2, Velocity: 41
Note ON: Time 137040, Note Name: D#3, Velocity: 50
Note OFF: Time 137100, Note Name: D#3
Note OFF: Time 137100, Note Name: D#2
Note ON: Time 137160, Note Name: C#2, Velocity: 41
Note ON: Time 137160, Note Name: C#3, Velocity: 50
Note OFF: Time 137220, Note Name: C#3
Note OFF: Time 137220, Note Name: C#2
Note ON: Time 137280, Note Name: B1, Velocity: 42
Note ON: Time 137280, Note Name: B2, Velocity: 51
Note OFF: Time 137340, Note Name: B2
Note OFF: Time 137340, Note Name: B1
Note ON: Time 137400, Note Name: E2, Velocity: 52
Note ON: Time 137400, Note Name: E3, Velocity: 61
Note OFF: Time 137460, Note Name: E3
Note OFF: Time 137460, Note Name: E2
Note ON: Time 137520, Note Name: D#2, Velocity: 48
Note ON: Time 137520, Note Name: D#3, Velocity: 58
Note OFF: Time 137580, Note Name: D#3
Note OFF: Time 137580, Note Name: D#2
Note ON: Time 137640, Note Name: C#2, Velocity: 44
Note ON: Time 137640, Note Name: C#3, Velocity: 55
Note OFF: Time 137700, Note Name: C#3
Note OFF: Time 137700, Note Name: C#2
Note ON: Time 137760, Note Name: B1, Velocity: 45
Note ON: Time 137760, Note Name: B2, Velocity: 56
Note OFF: Time 137820, Note Name: B2
Note OFF: Time 137820, Note Name: B1
Note ON: Time 137880, Note Name: E2, Velocity: 56
Note ON: Time 137880, Note Name: E3, Velocity: 66
Note OFF: Time 137940, Note Name: E3
Note OFF: Time 137940, Note Name: E2
Note ON: Time 138000, Note Name: D#2, Velocity: 45
Note ON: Time 138000, Note Name: D#3, Velocity: 53
Note OFF: Time 138060, Note Name: D#3
Note OFF: Time 138060, Note Name: D#2
Note ON: Time 138120, Note Name: C#2, Velocity: 46
Note ON: Time 138120, Note Name: C#3, Velocity: 54
Note OFF: Time 138180, Note Name: C#3
Note OFF: Time 138180, Note Name: C#2
Note ON: Time 138240, Note Name: B1, Velocity: 47
Note ON: Time 138240, Note Name: B2, Velocity: 57
Note OFF: Time 138300, Note Name: B2
Note OFF: Time 138300, Note Name: B1
Note ON: Time 138360, Note Name: E2, Velocity: 58
Note ON: Time 138360, Note Name: E3, Velocity: 69
Note OFF: Time 138420, Note Name: E3
Note OFF: Time 138420, Note Name: E2
Note ON: Time 138480, Note Name: D#2, Velocity: 47
Note ON: Time 138480, Note Name: D#3, Velocity: 57
Note OFF: Time 138540, Note Name: D#3
Note OFF: Time 138540, Note Name: D#2
Note ON: Time 138600, Note Name: C#2, Velocity: 47
Note ON: Time 138600, Note Name: C#3, Velocity: 57
Note OFF: Time 138660, Note Name: C#3
Note OFF: Time 138660, Note Name: C#2
Note ON: Time 138720, Note Name: B1, Velocity: 48
Note ON: Time 138720, Note Name: B2, Velocity: 58
Note OFF: Time 138780, Note Name: B2
Note OFF: Time 138780, Note Name: B1
Note ON: Time 138840, Note Name: E2, Velocity: 62
Note ON: Time 138840, Note Name: E3, Velocity: 73
Note OFF: Time 138900, Note Name: E3
Note OFF: Time 138900, Note Name: E2
Note ON: Time 138960, Note Name: D#2, Velocity: 56
Note ON: Time 138960, Note Name: D#3, Velocity: 67
Note OFF: Time 139020, Note Name: D#3
Note OFF: Time 139020, Note Name: D#2
Note ON: Time 139080, Note Name: C#2, Velocity: 52
Note ON: Time 139080, Note Name: C#3, Velocity: 63
Note OFF: Time 139140, Note Name: C#3
Note OFF: Time 139140, Note Name: C#2
Note ON: Time 139200, Note Name: B1, Velocity: 52
Note ON: Time 139200, Note Name: B2, Velocity: 63
Note OFF: Time 139260, Note Name: B2
Note OFF: Time 139260, Note Name: B1
Note ON: Time 139320, Note Name: E2, Velocity: 64
Note ON: Time 139320, Note Name: E3, Velocity: 77
Note OFF: Time 139380, Note Name: E3
Note OFF: Time 139380, Note Name: E2
Note ON: Time 139440, Note Name: D#2, Velocity: 53
Note ON: Time 139440, Note Name: D#3, Velocity: 63
Note OFF: Time 139500, Note Name: D#3
Note OFF: Time 139500, Note Name: D#2
Note ON: Time 139560, Note Name: E2, Velocity: 54
Note ON: Time 139560, Note Name: E3, Velocity: 64
Note OFF: Time 139620, Note Name: E3
Note OFF: Time 139620, Note Name: E2
Note ON: Time 139680, Note Name: D2, Velocity: 55
Note ON: Time 139680, Note Name: D3, Velocity: 65
Note OFF: Time 139740, Note Name: D3
Note OFF: Time 139740, Note Name: D2
Note ON: Time 139800, Note Name: D#2, Velocity: 66
Note ON: Time 139800, Note Name: D#3, Velocity: 77
Note OFF: Time 139860, Note Name: D#3
Note OFF: Time 139860, Note Name: D#2
Note ON: Time 139920, Note Name: D2, Velocity: 54
Note ON: Time 139920, Note Name: D3, Velocity: 65
Note OFF: Time 139980, Note Name: D3
Note OFF: Time 139980, Note Name: D2
Note ON: Time 140040, Note Name: C2, Velocity: 54
Note ON: Time 140040, Note Name: C3, Velocity: 65
Note OFF: Time 140100, Note Name: C3
Note OFF: Time 140100, Note Name: C2
Note ON: Time 140160, Note Name: A#1, Velocity: 54
Note ON: Time 140160, Note Name: A#2, Velocity: 65
Note OFF: Time 140220, Note Name: A#2
Note OFF: Time 140220, Note Name: A#1
Note ON: Time 140280, Note Name: D#2, Velocity: 67
Note ON: Time 140280, Note Name: D#3, Velocity: 79
Note OFF: Time 140340, Note Name: D#3
Note OFF: Time 140340, Note Name: D#2
Note ON: Time 140400, Note Name: D2, Velocity: 62
Note ON: Time 140400, Note Name: D3, Velocity: 75
Note OFF: Time 140460, Note Name: D3
Note OFF: Time 140460, Note Name: D2
Note ON: Time 140520, Note Name: C2, Velocity: 58
Note ON: Time 140520, Note Name: C3, Velocity: 69
Note OFF: Time 140580, Note Name: C3
Note OFF: Time 140580, Note Name: C2
Note ON: Time 140640, Note Name: A#1, Velocity: 58
Note ON: Time 140640, Note Name: A#2, Velocity: 69
Note OFF: Time 140700, Note Name: A#2
Note OFF: Time 140700, Note Name: A#1
Note ON: Time 140760, Note Name: D#2, Velocity: 69
Note ON: Time 140760, Note Name: D#3, Velocity: 84
Note OFF: Time 140820, Note Name: D#3
Note OFF: Time 140820, Note Name: D#2
Note ON: Time 140880, Note Name: D2, Velocity: 58
Note ON: Time 140880, Note Name: D3, Velocity: 68
Note OFF: Time 140940, Note Name: D3
Note OFF: Time 140940, Note Name: D2
Note ON: Time 141000, Note Name: C2, Velocity: 59
Note ON: Time 141000, Note Name: C3, Velocity: 70
Note OFF: Time 141060, Note Name: C3
Note OFF: Time 141060, Note Name: C2
Note ON: Time 141120, Note Name: A#1, Velocity: 61
Note ON: Time 141120, Note Name: A#2, Velocity: 71
Note OFF: Time 141180, Note Name: A#2
Note OFF: Time 141180, Note Name: A#1
Note ON: Time 141240, Note Name: D#2, Velocity: 71
Note ON: Time 141240, Note Name: D#3, Velocity: 82
Note OFF: Time 141300, Note Name: D#3
Note OFF: Time 141300, Note Name: D#2
Note ON: Time 141360, Note Name: D2, Velocity: 57
Note ON: Time 141360, Note Name: D3, Velocity: 68
Note OFF: Time 141420, Note Name: D3
Note OFF: Time 141420, Note Name: D2
Note ON: Time 141480, Note Name: C2, Velocity: 58
Note ON: Time 141480, Note Name: C3, Velocity: 69
Note OFF: Time 141540, Note Name: C3
Note OFF: Time 141540, Note Name: C2
Note ON: Time 141600, Note Name: A#1, Velocity: 58
Note ON: Time 141600, Note Name: A#2, Velocity: 69
Note OFF: Time 141660, Note Name: A#2
Note OFF: Time 141660, Note Name: A#1
Note ON: Time 141720, Note Name: D#2, Velocity: 72
Note ON: Time 141720, Note Name: D#3, Velocity: 85
Note OFF: Time 141780, Note Name: D#3
Note OFF: Time 141780, Note Name: D#2
Note ON: Time 141840, Note Name: D2, Velocity: 64
Note ON: Time 141840, Note Name: D3, Velocity: 78
Note OFF: Time 141900, Note Name: D3
Note OFF: Time 141900, Note Name: D2
Note ON: Time 141960, Note Name: C2, Velocity: 60
Note ON: Time 141960, Note Name: C3, Velocity: 73
Note OFF: Time 142020, Note Name: C3
Note OFF: Time 142020, Note Name: C2
Note ON: Time 142080, Note Name: A#1, Velocity: 60
Note ON: Time 142080, Note Name: A#2, Velocity: 73
Note OFF: Time 142140, Note Name: A#2
Note OFF: Time 142140, Note Name: A#1
Note ON: Time 142200, Note Name: D#2, Velocity: 73
Note ON: Time 142200, Note Name: D#3, Velocity: 87
Note OFF: Time 142260, Note Name: D#3
Note OFF: Time 142260, Note Name: D#2
Note ON: Time 142320, Note Name: D2, Velocity: 60
Note ON: Time 142320, Note Name: D3, Velocity: 72
Note OFF: Time 142380, Note Name: D3
Note OFF: Time 142380, Note Name: D2
Note ON: Time 142440, Note Name: C2, Velocity: 60
Note ON: Time 142440, Note Name: C3, Velocity: 72
Note OFF: Time 142500, Note Name: C3
Note OFF: Time 142500, Note Name: C2
Note ON: Time 142560, Note Name: A#1, Velocity: 62
Note ON: Time 142560, Note Name: A#2, Velocity: 74
Note OFF: Time 142620, Note Name: A#2
Note OFF: Time 142620, Note Name: A#1
Note ON: Time 142680, Note Name: D#2, Velocity: 73
Note ON: Time 142680, Note Name: D#3, Velocity: 84
Note OFF: Time 142740, Note Name: D#3
Note OFF: Time 142740, Note Name: D#2
Note ON: Time 142800, Note Name: D2, Velocity: 59
Note ON: Time 142800, Note Name: D3, Velocity: 70
Note OFF: Time 142860, Note Name: D3
Note OFF: Time 142860, Note Name: D2
Note ON: Time 142920, Note Name: C2, Velocity: 59
Note ON: Time 142920, Note Name: C3, Velocity: 70
Note OFF: Time 142980, Note Name: C3
Note OFF: Time 142980, Note Name: C2
Note ON: Time 143040, Note Name: A#1, Velocity: 59
Note ON: Time 143040, Note Name: A#2, Velocity: 71
Note OFF: Time 143100, Note Name: A#2
Note OFF: Time 143100, Note Name: A#1
Note ON: Time 143160, Note Name: D#2, Velocity: 74
Note ON: Time 143160, Note Name: D#3, Velocity: 87
Note OFF: Time 143220, Note Name: D#3
Note OFF: Time 143220, Note Name: D#2
Note ON: Time 143280, Note Name: D2, Velocity: 66
Note ON: Time 143280, Note Name: D3, Velocity: 80
Note OFF: Time 143340, Note Name: D3
Note OFF: Time 143340, Note Name: D2
Note ON: Time 143400, Note Name: C2, Velocity: 62
Note ON: Time 143400, Note Name: C3, Velocity: 74
Note OFF: Time 143460, Note Name: C3
Note OFF: Time 143460, Note Name: C2
Note ON: Time 143520, Note Name: A#1, Velocity: 62
Note ON: Time 143520, Note Name: A#2, Velocity: 74
Note OFF: Time 143580, Note Name: A#2
Note OFF: Time 143580, Note Name: A#1
Note ON: Time 143640, Note Name: D#2, Velocity: 75
Note ON: Time 143640, Note Name: D#3, Velocity: 89
Note OFF: Time 143700, Note Name: D#3
Note OFF: Time 143700, Note Name: D#2
Note ON: Time 143760, Note Name: D2, Velocity: 62
Note ON: Time 143760, Note Name: D3, Velocity: 74
Note OFF: Time 143820, Note Name: D3
Note OFF: Time 143820, Note Name: D2
Note ON: Time 143880, Note Name: C2, Velocity: 62
Note ON: Time 143880, Note Name: C3, Velocity: 74
Note OFF: Time 143940, Note Name: C3
Note OFF: Time 143940, Note Name: C2
Note ON: Time 144000, Note Name: A#1, Velocity: 63
Note ON: Time 144000, Note Name: A#2, Velocity: 75
Note OFF: Time 144060, Note Name: A#2
Note OFF: Time 144060, Note Name: A#1
Note ON: Time 144120, Note Name: D#2, Velocity: 76
Note ON: Time 144120, Note Name: D#3, Velocity: 90
Note OFF: Time 144180, Note Name: D#3
Note OFF: Time 144180, Note Name: D#2
Note ON: Time 144300, Note Name: B1, Velocity: 58
Note ON: Time 144330, Note Name: F#2, Velocity: 61
Note ON: Time 144360, Note Name: B2, Velocity: 63
Note OFF: Time 144540, Note Name: B2
Note OFF: Time 144540, Note Name: F#2
Note OFF: Time 144540, Note Name: B1
Note ON: Time 144540, Note Name: B1, Velocity: 60
Note ON: Time 144570, Note Name: F#2, Velocity: 63
Note ON: Time 144600, Note Name: B2, Velocity: 66
Note OFF: Time 144780, Note Name: B2
Note OFF: Time 144780, Note Name: F#2
Note OFF: Time 144780, Note Name: B1
Note ON: Time 144780, Note Name: B1, Velocity: 63
Note ON: Time 144810, Note Name: F#2, Velocity: 65
Note ON: Time 144840, Note Name: B2, Velocity: 69
Note OFF: Time 145020, Note Name: B2
Note OFF: Time 145020, Note Name: F#2
Note OFF: Time 145020, Note Name: B1
Note ON: Time 145020, Note Name: B1, Velocity: 64
Note ON: Time 145050, Note Name: F#2, Velocity: 68
Note ON: Time 145080, Note Name: B2, Velocity: 71
Note OFF: Time 145260, Note Name: B2
Note OFF: Time 145260, Note Name: F#2
Note OFF: Time 145260, Note Name: B1
Note ON: Time 145260, Note Name: B1, Velocity: 66
Note ON: Time 145290, Note Name: F#2, Velocity: 70
Note ON: Time 145320, Note Name: B2, Velocity: 73
Note OFF: Time 145560, Note Name: B2
Note OFF: Time 145560, Note Name: F#2
Note OFF: Time 145560, Note Name: B1
Note ON: Time 145560, Note Name: E1, Velocity: 59
Note ON: Time 145560, Note Name: E2, Velocity: 70
Note OFF: Time 145680, Note Name: E2
Note OFF: Time 145680, Note Name: E1
Note ON: Time 145980, Note Name: E2, Velocity: 80
Note ON: Time 146010, Note Name: B2, Velocity: 80
Note ON: Time 146040, Note Name: E3, Velocity: 80
Note OFF: Time 146430, Note Name: E3
Note OFF: Time 146430, Note Name: B2
Note OFF: Time 146430, Note Name: E2
Note ON: Time 146460, Note Name: E2, Velocity: 78
Note ON: Time 146490, Note Name: B2, Velocity: 77
Note ON: Time 146520, Note Name: E3, Velocity: 77
Note OFF: Time 146910, Note Name: E3
Note OFF: Time 146910, Note Name: B2
Note OFF: Time 146910, Note Name: E2
Note ON: Time 146940, Note Name: E2, Velocity: 75
Note ON: Time 146970, Note Name: B2, Velocity: 75
Note ON: Time 147000, Note Name: E3, Velocity: 74
Note OFF: Time 147390, Note Name: E3
Note OFF: Time 147390, Note Name: B2
Note OFF: Time 147390, Note Name: E2
Note ON: Time 147420, Note Name: E2, Velocity: 72
Note ON: Time 147450, Note Name: B2, Velocity: 72
Note ON: Time 147480, Note Name: E3, Velocity: 72
Note OFF: Time 147870, Note Name: E3
Note OFF: Time 147870, Note Name: B2
Note OFF: Time 147870, Note Name: E2
Note ON: Time 147900, Note Name: E2, Velocity: 69
Note ON: Time 147930, Note Name: B2, Velocity: 69
Note ON: Time 147960, Note Name: E3, Velocity: 69
Note OFF: Time 148440, Note Name: E3
Note OFF: Time 148440, Note Name: B2
Note OFF: Time 148440, Note Name: E2
Note ON: Time 148440, Note Name: E2, Velocity: 66
Note ON: Time 148440, Note Name: B2, Velocity: 66
Note ON: Time 148440, Note Name: E3, Velocity: 66
Note OFF: Time 148500, Note Name: E3
Note OFF: Time 148500, Note Name: B2
Note OFF: Time 148500, Note Name: E2
Note ON: Time 148560, Note Name: D#2, Velocity: 24
Note ON: Time 148560, Note Name: D#3, Velocity: 28
Note OFF: Time 148620, Note Name: D#3
Note OFF: Time 148620, Note Name: D#2
Note ON: Time 148680, Note Name: C#2, Velocity: 24
Note ON: Time 148680, Note Name: C#3, Velocity: 28
Note OFF: Time 148740, Note Name: C#3
Note OFF: Time 148740, Note Name: C#2
Note ON: Time 148800, Note Name: B1, Velocity: 24
Note ON: Time 148800, Note Name: B2, Velocity: 28
Note OFF: Time 148860, Note Name: B2
Note OFF: Time 148860, Note Name: B1
Note ON: Time 148920, Note Name: E2, Velocity: 28
Note ON: Time 148920, Note Name: E3, Velocity: 35
Note OFF: Time 148980, Note Name: E3
Note OFF: Time 148980, Note Name: E2
Note ON: Time 149040, Note Name: D#2, Velocity: 27
Note ON: Time 149040, Note Name: D#3, Velocity: 32
Note OFF: Time 149100, Note Name: D#3
Note OFF: Time 149100, Note Name: D#2
Note ON: Time 149160, Note Name: C#2, Velocity: 24
Note ON: Time 149160, Note Name: C#3, Velocity: 28
Note OFF: Time 149220, Note Name: C#3
Note OFF: Time 149220, Note Name: C#2
Note ON: Time 149280, Note Name: B1, Velocity: 24
Note ON: Time 149280, Note Name: B2, Velocity: 28
Note OFF: Time 149340, Note Name: B2
Note OFF: Time 149340, Note Name: B1
Note ON: Time 149400, Note Name: E2, Velocity: 28
Note ON: Time 149400, Note Name: E3, Velocity: 35
Note OFF: Time 149460, Note Name: E3
Note OFF: Time 149460, Note Name: E2
Note ON: Time 149520, Note Name: D#2, Velocity: 24
Note ON: Time 149520, Note Name: D#3, Velocity: 28
Note OFF: Time 149580, Note Name: D#3
Note OFF: Time 149580, Note Name: D#2
Note ON: Time 149640, Note Name: C#2, Velocity: 24
Note ON: Time 149640, Note Name: C#3, Velocity: 28
Note OFF: Time 149700, Note Name: C#3
Note OFF: Time 149700, Note Name: C#2
Note ON: Time 149760, Note Name: B1, Velocity: 24
Note ON: Time 149760, Note Name: B2, Velocity: 28
Note OFF: Time 149820, Note Name: B2
Note OFF: Time 149820, Note Name: B1
Note ON: Time 149880, Note Name: E2, Velocity: 29
Note ON: Time 149880, Note Name: E3, Velocity: 35
Note OFF: Time 149940, Note Name: E3
Note OFF: Time 149940, Note Name: E2
Note ON: Time 150000, Note Name: D#2, Velocity: 24
Note ON: Time 150000, Note Name: D#3, Velocity: 28
Note OFF: Time 150060, Note Name: D#3
Note OFF: Time 150060, Note Name: D#2
Note ON: Time 150120, Note Name: C#2, Velocity: 24
Note ON: Time 150120, Note Name: C#3, Velocity: 28
Note OFF: Time 150180, Note Name: C#3
Note OFF: Time 150180, Note Name: C#2
Note ON: Time 150240, Note Name: B1, Velocity: 24
Note ON: Time 150240, Note Name: B2, Velocity: 28
Note OFF: Time 150300, Note Name: B2
Note OFF: Time 150300, Note Name: B1
Note ON: Time 150360, Note Name: E2, Velocity: 29
Note ON: Time 150360, Note Name: E3, Velocity: 34
Note OFF: Time 150420, Note Name: E3
Note OFF: Time 150420, Note Name: E2
Note ON: Time 150480, Note Name: D#2, Velocity: 26
Note ON: Time 150480, Note Name: D#3, Velocity: 32
Note OFF: Time 150540, Note Name: D#3
Note OFF: Time 150540, Note Name: D#2
Note ON: Time 150600, Note Name: C#2, Velocity: 24
Note ON: Time 150600, Note Name: C#3, Velocity: 29
Note OFF: Time 150660, Note Name: C#3
Note OFF: Time 150660, Note Name: C#2
Note ON: Time 150720, Note Name: B1, Velocity: 24
Note ON: Time 150720, Note Name: B2, Velocity: 29
Note OFF: Time 150780, Note Name: B2
Note OFF: Time 150780, Note Name: B1
Note ON: Time 150840, Note Name: E2, Velocity: 29
Note ON: Time 150840, Note Name: E3, Velocity: 35
Note OFF: Time 150900, Note Name: E3
Note OFF: Time 150900, Note Name: E2
Note ON: Time 150960, Note Name: D#2, Velocity: 24
Note ON: Time 150960, Note Name: D#3, Velocity: 28
Note OFF: Time 151020, Note Name: D#3
Note OFF: Time 151020, Note Name: D#2
Note ON: Time 151080, Note Name: C#2, Velocity: 24
Note ON: Time 151080, Note Name: C#3, Velocity: 28
Note OFF: Time 151140, Note Name: C#3
Note OFF: Time 151140, Note Name: C#2
Note ON: Time 151200, Note Name: B1, Velocity: 24
Note ON: Time 151200, Note Name: B2, Velocity: 28
Note OFF: Time 151260, Note Name: B2
Note OFF: Time 151260, Note Name: B1
Note ON: Time 151320, Note Name: E2, Velocity: 31
Note ON: Time 151320, Note Name: E3, Velocity: 36
Note OFF: Time 151380, Note Name: E3
Note OFF: Time 151380, Note Name: E2
Note ON: Time 151440, Note Name: D#2, Velocity: 24
Note ON: Time 151440, Note Name: D#3, Velocity: 29
Note OFF: Time 151500, Note Name: D#3
Note OFF: Time 151500, Note Name: D#2
Note ON: Time 151560, Note Name: C#2, Velocity: 25
Note ON: Time 151560, Note Name: C#3, Velocity: 29
Note OFF: Time 151620, Note Name: C#3
Note OFF: Time 151620, Note Name: C#2
Note ON: Time 151680, Note Name: B1, Velocity: 25
Note ON: Time 151680, Note Name: B2, Velocity: 29
Note OFF: Time 151740, Note Name: B2
Note OFF: Time 151740, Note Name: B1
Note ON: Time 151800, Note Name: E2, Velocity: 30
Note ON: Time 151800, Note Name: E3, Velocity: 36
Note OFF: Time 151860, Note Name: E3
Note OFF: Time 151860, Note Name: E2
Note ON: Time 151920, Note Name: D#2, Velocity: 28
Note ON: Time 151920, Note Name: D#3, Velocity: 34
Note OFF: Time 151980, Note Name: D#3
Note OFF: Time 151980, Note Name: D#2
Note ON: Time 152040, Note Name: C#2, Velocity: 25
Note ON: Time 152040, Note Name: C#3, Velocity: 30
Note OFF: Time 152100, Note Name: C#3
Note OFF: Time 152100, Note Name: C#2
Note ON: Time 152160, Note Name: B1, Velocity: 25
Note ON: Time 152160, Note Name: B2, Velocity: 30
Note OFF: Time 152220, Note Name: B2
Note OFF: Time 152220, Note Name: B1
Note ON: Time 152280, Note Name: E2, Velocity: 30
Note ON: Time 152280, Note Name: E3, Velocity: 36
Note OFF: Time 152340, Note Name: E3
Note OFF: Time 152340, Note Name: E2
Note ON: Time 152400, Note Name: D#2, Velocity: 25
Note ON: Time 152400, Note Name: D#3, Velocity: 29
Note OFF: Time 152460, Note Name: D#3
Note OFF: Time 152460, Note Name: D#2
Note ON: Time 152520, Note Name: C#2, Velocity: 25
Note ON: Time 152520, Note Name: C#3, Velocity: 29
Note OFF: Time 152580, Note Name: C#3
Note OFF: Time 152580, Note Name: C#2
Note ON: Time 152640, Note Name: B1, Velocity: 26
Note ON: Time 152640, Note Name: B2, Velocity: 30
Note OFF: Time 152700, Note Name: B2
Note OFF: Time 152700, Note Name: B1
Note ON: Time 152760, Note Name: E2, Velocity: 31
Note ON: Time 152760, Note Name: E3, Velocity: 36
Note OFF: Time 152820, Note Name: E3
Note OFF: Time 152820, Note Name: E2
Note ON: Time 152880, Note Name: D#2, Velocity: 26
Note ON: Time 152880, Note Name: D#3, Velocity: 30
Note OFF: Time 152940, Note Name: D#3
Note OFF: Time 152940, Note Name: D#2
Note ON: Time 153000, Note Name: C#2, Velocity: 26
Note ON: Time 153000, Note Name: C#3, Velocity: 30
Note OFF: Time 153060, Note Name: C#3
Note OFF: Time 153060, Note Name: C#2
Note ON: Time 153120, Note Name: B1, Velocity: 26
Note ON: Time 153120, Note Name: B2, Velocity: 30
Note OFF: Time 153180, Note Name: B2
Note OFF: Time 153180, Note Name: B1
Note ON: Time 153240, Note Name: E2, Velocity: 31
Note ON: Time 153240, Note Name: E3, Velocity: 36
Note OFF: Time 153300, Note Name: E3
Note OFF: Time 153300, Note Name: E2
Note ON: Time 153360, Note Name: D#2, Velocity: 28
Note ON: Time 153360, Note Name: D#3, Velocity: 33
Note OFF: Time 153420, Note Name: D#3
Note OFF: Time 153420, Note Name: D#2
Note ON: Time 153480, Note Name: C#2, Velocity: 26
Note ON: Time 153480, Note Name: C#3, Velocity: 31
Note OFF: Time 153540, Note Name: C#3
Note OFF: Time 153540, Note Name: C#2
Note ON: Time 153600, Note Name: B1, Velocity: 26
Note ON: Time 153600, Note Name: B2, Velocity: 31
Note OFF: Time 153660, Note Name: B2
Note OFF: Time 153660, Note Name: B1
Note ON: Time 153720, Note Name: E2, Velocity: 31
Note ON: Time 153720, Note Name: E3, Velocity: 38
Note OFF: Time 153780, Note Name: E3
Note OFF: Time 153780, Note Name: E2
Note ON: Time 153840, Note Name: D#2, Velocity: 26
Note ON: Time 153840, Note Name: D#3, Velocity: 30
Note OFF: Time 153900, Note Name: D#3
Note OFF: Time 153900, Note Name: D#2
Note ON: Time 153960, Note Name: C#2, Velocity: 26
Note ON: Time 153960, Note Name: C#3, Velocity: 30
Note OFF: Time 154020, Note Name: C#3
Note OFF: Time 154020, Note Name: C#2
Note ON: Time 154080, Note Name: B1, Velocity: 26
Note ON: Time 154080, Note Name: B2, Velocity: 30
Note OFF: Time 154140, Note Name: B2
Note OFF: Time 154140, Note Name: B1
Note ON: Time 154200, Note Name: E2, Velocity: 31
Note ON: Time 154200, Note Name: E3, Velocity: 38
Note OFF: Time 154260, Note Name: E3
Note OFF: Time 154260, Note Name: E2
Note ON: Time 154320, Note Name: D#2, Velocity: 25
Note ON: Time 154320, Note Name: D#3, Velocity: 30
Note OFF: Time 154380, Note Name: D#3
Note OFF: Time 154380, Note Name: D#2
Note ON: Time 154440, Note Name: C#2, Velocity: 25
Note ON: Time 154440, Note Name: C#3, Velocity: 30
Note OFF: Time 154500, Note Name: C#3
Note OFF: Time 154500, Note Name: C#2
Note ON: Time 154560, Note Name: B1, Velocity: 25
Note ON: Time 154560, Note Name: B2, Velocity: 30
Note OFF: Time 154620, Note Name: B2
Note OFF: Time 154620, Note Name: B1
Note ON: Time 154680, Note Name: E2, Velocity: 31
Note ON: Time 154680, Note Name: E3, Velocity: 38
Note OFF: Time 154740, Note Name: E3
Note OFF: Time 154740, Note Name: E2
Note ON: Time 154800, Note Name: D#2, Velocity: 30
Note ON: Time 154800, Note Name: D#3, Velocity: 36
Note OFF: Time 154860, Note Name: D#3
Note OFF: Time 154860, Note Name: D#2
Note ON: Time 154920, Note Name: C#2, Velocity: 26
Note ON: Time 154920, Note Name: C#3, Velocity: 33
Note OFF: Time 154980, Note Name: C#3
Note OFF: Time 154980, Note Name: C#2
Note ON: Time 155040, Note Name: B1, Velocity: 26
Note ON: Time 155040, Note Name: B2, Velocity: 33
Note OFF: Time 155100, Note Name: B2
Note OFF: Time 155100, Note Name: B1
Note ON: Time 155160, Note Name: E2, Velocity: 33
Note ON: Time 155160, Note Name: E3, Velocity: 40
Note OFF: Time 155220, Note Name: E3
Note OFF: Time 155220, Note Name: E2
Note ON: Time 155280, Note Name: D#2, Velocity: 27
Note ON: Time 155280, Note Name: D#3, Velocity: 32
Note OFF: Time 155340, Note Name: D#3
Note OFF: Time 155340, Note Name: D#2
Note ON: Time 155400, Note Name: C#2, Velocity: 27
Note ON: Time 155400, Note Name: C#3, Velocity: 33
Note OFF: Time 155460, Note Name: C#3
Note OFF: Time 155460, Note Name: C#2
Note ON: Time 155520, Note Name: B1, Velocity: 28
Note ON: Time 155520, Note Name: B2, Velocity: 33
Note OFF: Time 155580, Note Name: B2
Note OFF: Time 155580, Note Name: B1
Note ON: Time 155640, Note Name: E2, Velocity: 35
Note ON: Time 155640, Note Name: E3, Velocity: 42
Note OFF: Time 155700, Note Name: E3
Note OFF: Time 155700, Note Name: E2
Note ON: Time 155760, Note Name: D#2, Velocity: 28
Note ON: Time 155760, Note Name: D#3, Velocity: 34
Note OFF: Time 155820, Note Name: D#3
Note OFF: Time 155820, Note Name: D#2
Note ON: Time 155880, Note Name: C#2, Velocity: 28
Note ON: Time 155880, Note Name: C#3, Velocity: 34
Note OFF: Time 155940, Note Name: C#3
Note OFF: Time 155940, Note Name: C#2
Note ON: Time 156000, Note Name: B1, Velocity: 28
Note ON: Time 156000, Note Name: B2, Velocity: 34
Note OFF: Time 156060, Note Name: B2
Note OFF: Time 156060, Note Name: B1
Note ON: Time 156120, Note Name: E2, Velocity: 35
Note ON: Time 156120, Note Name: E3, Velocity: 41
Note OFF: Time 156180, Note Name: E3
Note OFF: Time 156180, Note Name: E2
Note ON: Time 156240, Note Name: D#2, Velocity: 32
Note ON: Time 156240, Note Name: D#3, Velocity: 39
Note OFF: Time 156300, Note Name: D#3
Note OFF: Time 156300, Note Name: D#2
Note ON: Time 156360, Note Name: C#2, Velocity: 28
Note ON: Time 156360, Note Name: C#3, Velocity: 35
Note OFF: Time 156420, Note Name: C#3
Note OFF: Time 156420, Note Name: C#2
Note ON: Time 156480, Note Name: B1, Velocity: 28
Note ON: Time 156480, Note Name: B2, Velocity: 35
Note OFF: Time 156540, Note Name: B2
Note OFF: Time 156540, Note Name: B1
Note ON: Time 156600, Note Name: E2, Velocity: 36
Note ON: Time 156600, Note Name: E3, Velocity: 42
Note OFF: Time 156660, Note Name: E3
Note OFF: Time 156660, Note Name: E2
Note ON: Time 156720, Note Name: D#2, Velocity: 29
Note ON: Time 156720, Note Name: D#3, Velocity: 34
Note OFF: Time 156780, Note Name: D#3
Note OFF: Time 156780, Note Name: D#2
Note ON: Time 156840, Note Name: C#2, Velocity: 29
Note ON: Time 156840, Note Name: C#3, Velocity: 34
Note OFF: Time 156900, Note Name: C#3
Note OFF: Time 156900, Note Name: C#2
Note ON: Time 156960, Note Name: B1, Velocity: 29
Note ON: Time 156960, Note Name: B2, Velocity: 34
Note OFF: Time 157020, Note Name: B2
Note OFF: Time 157020, Note Name: B1
Note ON: Time 157080, Note Name: E2, Velocity: 36
Note ON: Time 157080, Note Name: E3, Velocity: 42
Note OFF: Time 157140, Note Name: E3
Note OFF: Time 157140, Note Name: E2
Note ON: Time 157200, Note Name: D#2, Velocity: 29
Note ON: Time 157200, Note Name: D#3, Velocity: 35
Note OFF: Time 157260, Note Name: D#3
Note OFF: Time 157260, Note Name: D#2
Note ON: Time 157320, Note Name: C#2, Velocity: 29
Note ON: Time 157320, Note Name: C#3, Velocity: 35
Note OFF: Time 157380, Note Name: C#3
Note OFF: Time 157380, Note Name: C#2
Note ON: Time 157440, Note Name: B1, Velocity: 29
Note ON: Time 157440, Note Name: B2, Velocity: 35
Note OFF: Time 157500, Note Name: B2
Note OFF: Time 157500, Note Name: B1
Note ON: Time 157560, Note Name: E2, Velocity: 36
Note ON: Time 157560, Note Name: E3, Velocity: 42
Note OFF: Time 157620, Note Name: E3
Note OFF: Time 157620, Note Name: E2
Note ON: Time 157680, Note Name: D#2, Velocity: 33
Note ON: Time 157680, Note Name: D#3, Velocity: 39
Note OFF: Time 157740, Note Name: D#3
Note OFF: Time 157740, Note Name: D#2
Note ON: Time 157800, Note Name: C#2, Velocity: 29
Note ON: Time 157800, Note Name: C#3, Velocity: 36
Note OFF: Time 157860, Note Name: C#3
Note OFF: Time 157860, Note Name: C#2
Note ON: Time 157920, Note Name: B1, Velocity: 29
Note ON: Time 157920, Note Name: B2, Velocity: 36
Note OFF: Time 157980, Note Name: B2
Note OFF: Time 157980, Note Name: B1
Note ON: Time 158040, Note Name: E2, Velocity: 36
Note ON: Time 158040, Note Name: E3, Velocity: 42
Note OFF: Time 158100, Note Name: E3
Note OFF: Time 158100, Note Name: E2
Note ON: Time 158160, Note Name: D#2, Velocity: 29
Note ON: Time 158160, Note Name: D#3, Velocity: 35
Note OFF: Time 158220, Note Name: D#3
Note OFF: Time 158220, Note Name: D#2
Note ON: Time 158280, Note Name: C#2, Velocity: 30
Note ON: Time 158280, Note Name: C#3, Velocity: 35
Note OFF: Time 158340, Note Name: C#3
Note OFF: Time 158340, Note Name: C#2
Note ON: Time 158400, Note Name: B1, Velocity: 30
Note ON: Time 158400, Note Name: B2, Velocity: 35
Note OFF: Time 158460, Note Name: B2
Note OFF: Time 158460, Note Name: B1
Note ON: Time 158520, Note Name: E2, Velocity: 36
Note ON: Time 158520, Note Name: E3, Velocity: 42
Note OFF: Time 158580, Note Name: E3
Note OFF: Time 158580, Note Name: E2
Note ON: Time 158640, Note Name: D#2, Velocity: 29
Note ON: Time 158640, Note Name: D#3, Velocity: 35
Note OFF: Time 158700, Note Name: D#3
Note OFF: Time 158700, Note Name: D#2
Note ON: Time 158760, Note Name: C#2, Velocity: 29
Note ON: Time 158760, Note Name: C#3, Velocity: 35
Note OFF: Time 158820, Note Name: C#3
Note OFF: Time 158820, Note Name: C#2
Note ON: Time 158880, Note Name: B1, Velocity: 29
Note ON: Time 158880, Note Name: B2, Velocity: 35
Note OFF: Time 158940, Note Name: B2
Note OFF: Time 158940, Note Name: B1
Note ON: Time 159000, Note Name: E2, Velocity: 36
Note ON: Time 159000, Note Name: E3, Velocity: 43
Note OFF: Time 159060, Note Name: E3
Note OFF: Time 159060, Note Name: E2
Note ON: Time 159120, Note Name: D#2, Velocity: 33
Note ON: Time 159120, Note Name: D#3, Velocity: 39
Note OFF: Time 159180, Note Name: D#3
Note OFF: Time 159180, Note Name: D#2
Note ON: Time 159240, Note Name: C#2, Velocity: 29
Note ON: Time 159240, Note Name: C#3, Velocity: 36
Note OFF: Time 159300, Note Name: C#3
Note OFF: Time 159300, Note Name: C#2
Note ON: Time 159360, Note Name: B1, Velocity: 29
Note ON: Time 159360, Note Name: B2, Velocity: 36
Note OFF: Time 159420, Note Name: B2
Note OFF: Time 159420, Note Name: B1
Note ON: Time 159480, Note Name: E2, Velocity: 37
Note ON: Time 159480, Note Name: E3, Velocity: 43
Note OFF: Time 159540, Note Name: E3
Note OFF: Time 159540, Note Name: E2
Note ON: Time 159600, Note Name: D#2, Velocity: 30
Note ON: Time 159600, Note Name: D#3, Velocity: 36
Note OFF: Time 159660, Note Name: D#3
Note OFF: Time 159660, Note Name: D#2
Note ON: Time 159720, Note Name: C#2, Velocity: 30
Note ON: Time 159720, Note Name: C#3, Velocity: 36
Note OFF: Time 159780, Note Name: C#3
Note OFF: Time 159780, Note Name: C#2
Note ON: Time 159840, Note Name: B1, Velocity: 30
Note ON: Time 159840, Note Name: B2, Velocity: 36
Note OFF: Time 159900, Note Name: B2
Note OFF: Time 159900, Note Name: B1
Note ON: Time 159960, Note Name: E2, Velocity: 37
Note ON: Time 159960, Note Name: E3, Velocity: 43
Note OFF: Time 160020, Note Name: E3
Note OFF: Time 160020, Note Name: E2
Note ON: Time 160080, Note Name: D#2, Velocity: 30
Note ON: Time 160080, Note Name: D#3, Velocity: 36
Note OFF: Time 160140, Note Name: D#3
Note OFF: Time 160140, Note Name: D#2
Note ON: Time 160200, Note Name: C#2, Velocity: 30
Note ON: Time 160200, Note Name: C#3, Velocity: 36
Note OFF: Time 160260, Note Name: C#3
Note OFF: Time 160260, Note Name: C#2
Note ON: Time 160320, Note Name: B1, Velocity: 30
Note ON: Time 160320, Note Name: B2, Velocity: 36
Note OFF: Time 160380, Note Name: B2
Note OFF: Time 160380, Note Name: B1
Note ON: Time 160440, Note Name: E2, Velocity: 36
Note ON: Time 160440, Note Name: E3, Velocity: 43
Note OFF: Time 160500, Note Name: E3
Note OFF: Time 160500, Note Name: E2
Note ON: Time 160560, Note Name: D#2, Velocity: 32
Note ON: Time 160560, Note Name: D#3, Velocity: 40
Note OFF: Time 160620, Note Name: D#3
Note OFF: Time 160620, Note Name: D#2
Note ON: Time 160680, Note Name: C#2, Velocity: 30
Note ON: Time 160680, Note Name: C#3, Velocity: 37
Note OFF: Time 160740, Note Name: C#3
Note OFF: Time 160740, Note Name: C#2
Note ON: Time 160800, Note Name: B1, Velocity: 30
Note ON: Time 160800, Note Name: B2, Velocity: 37
Note OFF: Time 160860, Note Name: B2
Note OFF: Time 160860, Note Name: B1
Note ON: Time 160920, Note Name: E2, Velocity: 37
Note ON: Time 160920, Note Name: E3, Velocity: 44
Note OFF: Time 160980, Note Name: E3
Note OFF: Time 160980, Note Name: E2
Note ON: Time 161040, Note Name: D#2, Velocity: 30
Note ON: Time 161040, Note Name: D#3, Velocity: 36
Note OFF: Time 161100, Note Name: D#3
Note OFF: Time 161100, Note Name: D#2
Note ON: Time 161160, Note Name: C#2, Velocity: 30
Note ON: Time 161160, Note Name: C#3, Velocity: 36
Note OFF: Time 161220, Note Name: C#3
Note OFF: Time 161220, Note Name: C#2
Note ON: Time 161280, Note Name: B1, Velocity: 30
Note ON: Time 161280, Note Name: B2, Velocity: 36
Note OFF: Time 161340, Note Name: B2
Note OFF: Time 161340, Note Name: B1
Note ON: Time 161400, Note Name: E2, Velocity: 37
Note ON: Time 161400, Note Name: E3, Velocity: 44
Note OFF: Time 161460, Note Name: E3
Note OFF: Time 161460, Note Name: E2
Note ON: Time 161520, Note Name: D#2, Velocity: 29
Note ON: Time 161520, Note Name: D#3, Velocity: 36
Note OFF: Time 161580, Note Name: D#3
Note OFF: Time 161580, Note Name: D#2
Note ON: Time 161640, Note Name: C#2, Velocity: 30
Note ON: Time 161640, Note Name: C#3, Velocity: 36
Note OFF: Time 161700, Note Name: C#3
Note OFF: Time 161700, Note Name: C#2
Note ON: Time 161760, Note Name: B1, Velocity: 30
Note ON: Time 161760, Note Name: B2, Velocity: 36
Note OFF: Time 161820, Note Name: B2
Note OFF: Time 161820, Note Name: B1
Note ON: Time 161880, Note Name: E2, Velocity: 38
Note ON: Time 161880, Note Name: E3, Velocity: 44
Note OFF: Time 161940, Note Name: E3
Note OFF: Time 161940, Note Name: E2
Note ON: Time 162000, Note Name: D#2, Velocity: 34
Note ON: Time 162000, Note Name: D#3, Velocity: 41
Note OFF: Time 162060, Note Name: D#3
Note OFF: Time 162060, Note Name: D#2
Note ON: Time 162120, Note Name: C#2, Velocity: 31
Note ON: Time 162120, Note Name: C#3, Velocity: 38
Note OFF: Time 162180, Note Name: C#3
Note OFF: Time 162180, Note Name: C#2
Note ON: Time 162240, Note Name: B1, Velocity: 31
Note ON: Time 162240, Note Name: B2, Velocity: 38
Note OFF: Time 162300, Note Name: B2
Note OFF: Time 162300, Note Name: B1
Note ON: Time 162360, Note Name: E2, Velocity: 38
Note ON: Time 162360, Note Name: E3, Velocity: 44
Note OFF: Time 162420, Note Name: E3
Note OFF: Time 162420, Note Name: E2
Note ON: Time 162480, Note Name: D#2, Velocity: 31
Note ON: Time 162480, Note Name: D#3, Velocity: 37
Note OFF: Time 162540, Note Name: D#3
Note OFF: Time 162540, Note Name: D#2
Note ON: Time 162600, Note Name: C#2, Velocity: 31
Note ON: Time 162600, Note Name: C#3, Velocity: 38
Note OFF: Time 162660, Note Name: C#3
Note OFF: Time 162660, Note Name: C#2
Note ON: Time 162720, Note Name: B1, Velocity: 31
Note ON: Time 162720, Note Name: B2, Velocity: 38
Note OFF: Time 162780, Note Name: B2
Note OFF: Time 162780, Note Name: B1
Note ON: Time 162840, Note Name: E2, Velocity: 37
Note ON: Time 162840, Note Name: E3, Velocity: 44
Note OFF: Time 162900, Note Name: E3
Note OFF: Time 162900, Note Name: E2
Note ON: Time 162960, Note Name: D#2, Velocity: 31
Note ON: Time 162960, Note Name: D#3, Velocity: 37
Note OFF: Time 163020, Note Name: D#3
Note OFF: Time 163020, Note Name: D#2
Note ON: Time 163080, Note Name: C#2, Velocity: 31
Note ON: Time 163080, Note Name: C#3, Velocity: 37
Note OFF: Time 163140, Note Name: C#3
Note OFF: Time 163140, Note Name: C#2
Note ON: Time 163200, Note Name: B1, Velocity: 31
Note ON: Time 163200, Note Name: B2, Velocity: 38
Note OFF: Time 163260, Note Name: B2
Note OFF: Time 163260, Note Name: B1
Note ON: Time 163320, Note Name: E2, Velocity: 38
Note ON: Time 163320, Note Name: E3, Velocity: 45
Note OFF: Time 163380, Note Name: E3
Note OFF: Time 163380, Note Name: E2
Note ON: Time 163440, Note Name: D#2, Velocity: 36
Note ON: Time 163440, Note Name: D#3, Velocity: 42
Note OFF: Time 163500, Note Name: D#3
Note OFF: Time 163500, Note Name: D#2
Note ON: Time 163560, Note Name: C#2, Velocity: 31
Note ON: Time 163560, Note Name: C#3, Velocity: 38
Note OFF: Time 163620, Note Name: C#3
Note OFF: Time 163620, Note Name: C#2
Note ON: Time 163680, Note Name: B1, Velocity: 31
Note ON: Time 163680, Note Name: B2, Velocity: 39
Note OFF: Time 163740, Note Name: B2
Note OFF: Time 163740, Note Name: B1
Note ON: Time 163800, Note Name: E2, Velocity: 40
Note ON: Time 163800, Note Name: E3, Velocity: 48
Note OFF: Time 163860, Note Name: E3
Note OFF: Time 163860, Note Name: E2
Note ON: Time 163920, Note Name: D#2, Velocity: 33
Note ON: Time 163920, Note Name: D#3, Velocity: 40
Note OFF: Time 163980, Note Name: D#3
Note OFF: Time 163980, Note Name: D#2
Note ON: Time 164040, Note Name: C#2, Velocity: 33
Note ON: Time 164040, Note Name: C#3, Velocity: 41
Note OFF: Time 164100, Note Name: C#3
Note OFF: Time 164100, Note Name: C#2
Note ON: Time 164160, Note Name: B1, Velocity: 34
Note ON: Time 164160, Note Name: B2, Velocity: 42
Note OFF: Time 164220, Note Name: B2
Note OFF: Time 164220, Note Name: B1
Note ON: Time 164280, Note Name: E2, Velocity: 43
Note ON: Time 164280, Note Name: E3, Velocity: 51
Note OFF: Time 164340, Note Name: E3
Note OFF: Time 164340, Note Name: E2
Note ON: Time 164400, Note Name: D#2, Velocity: 34
Note ON: Time 164400, Note Name: D#3, Velocity: 43
Note OFF: Time 164460, Note Name: D#3
Note OFF: Time 164460, Note Name: D#2
Note ON: Time 164520, Note Name: C#2, Velocity: 35
Note ON: Time 164520, Note Name: C#3, Velocity: 43
Note OFF: Time 164580, Note Name: C#3
Note OFF: Time 164580, Note Name: C#2
Note ON: Time 164640, Note Name: B1, Velocity: 37
Note ON: Time 164640, Note Name: B2, Velocity: 43
Note OFF: Time 164700, Note Name: B2
Note OFF: Time 164700, Note Name: B1
Note ON: Time 164760, Note Name: E2, Velocity: 44
Note ON: Time 164760, Note Name: E3, Velocity: 53
Note OFF: Time 164820, Note Name: E3
Note OFF: Time 164820, Note Name: E2
Note ON: Time 164880, Note Name: D#2, Velocity: 41
Note ON: Time 164880, Note Name: D#3, Velocity: 49
Note OFF: Time 164940, Note Name: D#3
Note OFF: Time 164940, Note Name: D#2
Note ON: Time 165000, Note Name: C#2, Velocity: 38
Note ON: Time 165000, Note Name: C#3, Velocity: 46
Note OFF: Time 165060, Note Name: C#3
Note OFF: Time 165060, Note Name: C#2
Note ON: Time 165120, Note Name: B1, Velocity: 38
Note ON: Time 165120, Note Name: B2, Velocity: 46
Note OFF: Time 165180, Note Name: B2
Note OFF: Time 165180, Note Name: B1
Note ON: Time 165240, Note Name: E2, Velocity: 47
Note ON: Time 165240, Note Name: E3, Velocity: 57
Note OFF: Time 165300, Note Name: E3
Note OFF: Time 165300, Note Name: E2
Note ON: Time 165360, Note Name: D#2, Velocity: 38
Note ON: Time 165360, Note Name: D#3, Velocity: 46
Note OFF: Time 165420, Note Name: D#3
Note OFF: Time 165420, Note Name: D#2
Note ON: Time 165480, Note Name: C#2, Velocity: 40
Note ON: Time 165480, Note Name: C#3, Velocity: 47
Note OFF: Time 165540, Note Name: C#3
Note OFF: Time 165540, Note Name: C#2
Note ON: Time 165600, Note Name: B1, Velocity: 40
Note ON: Time 165600, Note Name: B2, Velocity: 48
Note OFF: Time 165660, Note Name: B2
Note OFF: Time 165660, Note Name: B1
Note ON: Time 165720, Note Name: E2, Velocity: 51
Note ON: Time 165720, Note Name: E3, Velocity: 59
Note OFF: Time 165780, Note Name: E3
Note OFF: Time 165780, Note Name: E2
Note ON: Time 165840, Note Name: D#2, Velocity: 41
Note ON: Time 165840, Note Name: D#3, Velocity: 50
Note OFF: Time 165900, Note Name: D#3
Note OFF: Time 165900, Note Name: D#2
Note ON: Time 165960, Note Name: C#2, Velocity: 41
Note ON: Time 165960, Note Name: C#3, Velocity: 50
Note OFF: Time 166020, Note Name: C#3
Note OFF: Time 166020, Note Name: C#2
Note ON: Time 166080, Note Name: B1, Velocity: 42
Note ON: Time 166080, Note Name: B2, Velocity: 51
Note OFF: Time 166140, Note Name: B2
Note OFF: Time 166140, Note Name: B1
Note ON: Time 166200, Note Name: E2, Velocity: 52
Note ON: Time 166200, Note Name: E3, Velocity: 61
Note OFF: Time 166260, Note Name: E3
Note OFF: Time 166260, Note Name: E2
Note ON: Time 166320, Note Name: D#2, Velocity: 48
Note ON: Time 166320, Note Name: D#3, Velocity: 58
Note OFF: Time 166380, Note Name: D#3
Note OFF: Time 166380, Note Name: D#2
Note ON: Time 166440, Note Name: C#2, Velocity: 44
Note ON: Time 166440, Note Name: C#3, Velocity: 55
Note OFF: Time 166500, Note Name: C#3
Note OFF: Time 166500, Note Name: C#2
Note ON: Time 166560, Note Name: B1, Velocity: 45
Note ON: Time 166560, Note Name: B2, Velocity: 56
Note OFF: Time 166620, Note Name: B2
Note OFF: Time 166620, Note Name: B1
Note ON: Time 166680, Note Name: E2, Velocity: 56
Note ON: Time 166680, Note Name: E3, Velocity: 66
Note OFF: Time 166740, Note Name: E3
Note OFF: Time 166740, Note Name: E2
Note ON: Time 166800, Note Name: D#2, Velocity: 45
Note ON: Time 166800, Note Name: D#3, Velocity: 53
Note OFF: Time 166860, Note Name: D#3
Note OFF: Time 166860, Note Name: D#2
Note ON: Time 166920, Note Name: C#2, Velocity: 46
Note ON: Time 166920, Note Name: C#3, Velocity: 54
Note OFF: Time 166980, Note Name: C#3
Note OFF: Time 166980, Note Name: C#2
Note ON: Time 167040, Note Name: B1, Velocity: 47
Note ON: Time 167040, Note Name: B2, Velocity: 57
Note OFF: Time 167100, Note Name: B2
Note OFF: Time 167100, Note Name: B1
Note ON: Time 167160, Note Name: E2, Velocity: 58
Note ON: Time 167160, Note Name: E3, Velocity: 69
Note OFF: Time 167220, Note Name: E3
Note OFF: Time 167220, Note Name: E2
Note ON: Time 167280, Note Name: D#2, Velocity: 47
Note ON: Time 167280, Note Name: D#3, Velocity: 57
Note OFF: Time 167340, Note Name: D#3
Note OFF: Time 167340, Note Name: D#2
Note ON: Time 167400, Note Name: C#2, Velocity: 47
Note ON: Time 167400, Note Name: C#3, Velocity: 57
Note OFF: Time 167460, Note Name: C#3
Note OFF: Time 167460, Note Name: C#2
Note ON: Time 167520, Note Name: B1, Velocity: 48
Note ON: Time 167520, Note Name: B2, Velocity: 58
Note OFF: Time 167580, Note Name: B2
Note OFF: Time 167580, Note Name: B1
Note ON: Time 167640, Note Name: E2, Velocity: 62
Note ON: Time 167640, Note Name: E3, Velocity: 73
Note OFF: Time 167700, Note Name: E3
Note OFF: Time 167700, Note Name: E2
Note ON: Time 167760, Note Name: D#2, Velocity: 56
Note ON: Time 167760, Note Name: D#3, Velocity: 67
Note OFF: Time 167820, Note Name: D#3
Note OFF: Time 167820, Note Name: D#2
Note ON: Time 167880, Note Name: C#2, Velocity: 52
Note ON: Time 167880, Note Name: C#3, Velocity: 63
Note OFF: Time 167940, Note Name: C#3
Note OFF: Time 167940, Note Name: C#2
Note ON: Time 168000, Note Name: B1, Velocity: 52
Note ON: Time 168000, Note Name: B2, Velocity: 63
Note OFF: Time 168060, Note Name: B2
Note OFF: Time 168060, Note Name: B1
Note ON: Time 168120, Note Name: E2, Velocity: 64
Note ON: Time 168120, Note Name: E3, Velocity: 77
Note OFF: Time 168180, Note Name: E3
Note OFF: Time 168180, Note Name: E2
Note ON: Time 168240, Note Name: D#2, Velocity: 53
Note ON: Time 168240, Note Name: D#3, Velocity: 63
Note OFF: Time 168300, Note Name: D#3
Note OFF: Time 168300, Note Name: D#2
Note ON: Time 168360, Note Name: E2, Velocity: 54
Note ON: Time 168360, Note Name: E3, Velocity: 64
Note OFF: Time 168420, Note Name: E3
Note OFF: Time 168420, Note Name: E2
Note ON: Time 168480, Note Name: D2, Velocity: 55
Note ON: Time 168480, Note Name: D3, Velocity: 65
Note OFF: Time 168540, Note Name: D3
Note OFF: Time 168540, Note Name: D2
Note ON: Time 168600, Note Name: D#2, Velocity: 66
Note ON: Time 168600, Note Name: D#3, Velocity: 77
Note OFF: Time 168660, Note Name: D#3
Note OFF: Time 168660, Note Name: D#2
Note ON: Time 168720, Note Name: D2, Velocity: 54
Note ON: Time 168720, Note Name: D3, Velocity: 65
Note OFF: Time 168780, Note Name: D3
Note OFF: Time 168780, Note Name: D2
Note ON: Time 168840, Note Name: C2, Velocity: 54
Note ON: Time 168840, Note Name: C3, Velocity: 65
Note OFF: Time 168900, Note Name: C3
Note OFF: Time 168900, Note Name: C2
Note ON: Time 168960, Note Name: A#1, Velocity: 54
Note ON: Time 168960, Note Name: A#2, Velocity: 65
Note OFF: Time 169020, Note Name: A#2
Note OFF: Time 169020, Note Name: A#1
Note ON: Time 169080, Note Name: D#2, Velocity: 67
Note ON: Time 169080, Note Name: D#3, Velocity: 79
Note OFF: Time 169140, Note Name: D#3
Note OFF: Time 169140, Note Name: D#2
Note ON: Time 169200, Note Name: D2, Velocity: 62
Note ON: Time 169200, Note Name: D3, Velocity: 75
Note OFF: Time 169260, Note Name: D3
Note OFF: Time 169260, Note Name: D2
Note ON: Time 169320, Note Name: C2, Velocity: 58
Note ON: Time 169320, Note Name: C3, Velocity: 69
Note OFF: Time 169380, Note Name: C3
Note OFF: Time 169380, Note Name: C2
Note ON: Time 169440, Note Name: A#1, Velocity: 58
Note ON: Time 169440, Note Name: A#2, Velocity: 69
Note OFF: Time 169500, Note Name: A#2
Note OFF: Time 169500, Note Name: A#1
Note ON: Time 169560, Note Name: D#2, Velocity: 69
Note ON: Time 169560, Note Name: D#3, Velocity: 84
Note OFF: Time 169620, Note Name: D#3
Note OFF: Time 169620, Note Name: D#2
Note ON: Time 169680, Note Name: D2, Velocity: 58
Note ON: Time 169680, Note Name: D3, Velocity: 68
Note OFF: Time 169740, Note Name: D3
Note OFF: Time 169740, Note Name: D2
Note ON: Time 169800, Note Name: C2, Velocity: 59
Note ON: Time 169800, Note Name: C3, Velocity: 70
Note OFF: Time 169860, Note Name: C3
Note OFF: Time 169860, Note Name: C2
Note ON: Time 169920, Note Name: A#1, Velocity: 61
Note ON: Time 169920, Note Name: A#2, Velocity: 71
Note OFF: Time 169980, Note Name: A#2
Note OFF: Time 169980, Note Name: A#1
Note ON: Time 170040, Note Name: D#2, Velocity: 71
Note ON: Time 170040, Note Name: D#3, Velocity: 82
Note OFF: Time 170100, Note Name: D#3
Note OFF: Time 170100, Note Name: D#2
Note ON: Time 170160, Note Name: D2, Velocity: 57
Note ON: Time 170160, Note Name: D3, Velocity: 68
Note OFF: Time 170220, Note Name: D3
Note OFF: Time 170220, Note Name: D2
Note ON: Time 170280, Note Name: C2, Velocity: 58
Note ON: Time 170280, Note Name: C3, Velocity: 69
Note OFF: Time 170340, Note Name: C3
Note OFF: Time 170340, Note Name: C2
Note ON: Time 170400, Note Name: A#1, Velocity: 58
Note ON: Time 170400, Note Name: A#2, Velocity: 69
Note OFF: Time 170460, Note Name: A#2
Note OFF: Time 170460, Note Name: A#1
Note ON: Time 170520, Note Name: D#2, Velocity: 72
Note ON: Time 170520, Note Name: D#3, Velocity: 85
Note OFF: Time 170580, Note Name: D#3
Note OFF: Time 170580, Note Name: D#2
Note ON: Time 170640, Note Name: D2, Velocity: 64
Note ON: Time 170640, Note Name: D3, Velocity: 78
Note OFF: Time 170700, Note Name: D3
Note OFF: Time 170700, Note Name: D2
Note ON: Time 170760, Note Name: C2, Velocity: 60
Note ON: Time 170760, Note Name: C3, Velocity: 73
Note OFF: Time 170820, Note Name: C3
Note OFF: Time 170820, Note Name: C2
Note ON: Time 170880, Note Name: A#1, Velocity: 60
Note ON: Time 170880, Note Name: A#2, Velocity: 73
Note OFF: Time 170940, Note Name: A#2
Note OFF: Time 170940, Note Name: A#1
Note ON: Time 171000, Note Name: D#2, Velocity: 73
Note ON: Time 171000, Note Name: D#3, Velocity: 87
Note OFF: Time 171060, Note Name: D#3
Note OFF: Time 171060, Note Name: D#2
Note ON: Time 171120, Note Name: D2, Velocity: 60
Note ON: Time 171120, Note Name: D3, Velocity: 72
Note OFF: Time 171180, Note Name: D3
Note OFF: Time 171180, Note Name: D2
Note ON: Time 171240, Note Name: C2, Velocity: 60
Note ON: Time 171240, Note Name: C3, Velocity: 72
Note OFF: Time 171300, Note Name: C3
Note OFF: Time 171300, Note Name: C2
Note ON: Time 171360, Note Name: A#1, Velocity: 62
Note ON: Time 171360, Note Name: A#2, Velocity: 74
Note OFF: Time 171420, Note Name: A#2
Note OFF: Time 171420, Note Name: A#1
Note ON: Time 171480, Note Name: D#2, Velocity: 73
Note ON: Time 171480, Note Name: D#3, Velocity: 84
Note OFF: Time 171540, Note Name: D#3
Note OFF: Time 171540, Note Name: D#2
Note ON: Time 171600, Note Name: D2, Velocity: 59
Note ON: Time 171600, Note Name: D3, Velocity: 70
Note OFF: Time 171660, Note Name: D3
Note OFF: Time 171660, Note Name: D2
Note ON: Time 171720, Note Name: C2, Velocity: 59
Note ON: Time 171720, Note Name: C3, Velocity: 70
Note OFF: Time 171780, Note Name: C3
Note OFF: Time 171780, Note Name: C2
Note ON: Time 171840, Note Name: A#1, Velocity: 59
Note ON: Time 171840, Note Name: A#2, Velocity: 71
Note OFF: Time 171900, Note Name: A#2
Note OFF: Time 171900, Note Name: A#1
Note ON: Time 171960, Note Name: D#2, Velocity: 74
Note ON: Time 171960, Note Name: D#3, Velocity: 87
Note OFF: Time 172020, Note Name: D#3
Note OFF: Time 172020, Note Name: D#2
Note ON: Time 172080, Note Name: D2, Velocity: 66
Note ON: Time 172080, Note Name: D3, Velocity: 80
Note OFF: Time 172140, Note Name: D3
Note OFF: Time 172140, Note Name: D2
Note ON: Time 172200, Note Name: C2, Velocity: 62
Note ON: Time 172200, Note Name: C3, Velocity: 74
Note OFF: Time 172260, Note Name: C3
Note OFF: Time 172260, Note Name: C2
Note ON: Time 172320, Note Name: A#1, Velocity: 62
Note ON: Time 172320, Note Name: A#2, Velocity: 74
Note OFF: Time 172380, Note Name: A#2
Note OFF: Time 172380, Note Name: A#1
Note ON: Time 172440, Note Name: D#2, Velocity: 75
Note ON: Time 172440, Note Name: D#3, Velocity: 89
Note OFF: Time 172500, Note Name: D#3
Note OFF: Time 172500, Note Name: D#2
Note ON: Time 172560, Note Name: D2, Velocity: 62
Note ON: Time 172560, Note Name: D3, Velocity: 74
Note OFF: Time 172620, Note Name: D3
Note OFF: Time 172620, Note Name: D2
Note ON: Time 172680, Note Name: C2, Velocity: 62
Note ON: Time 172680, Note Name: C3, Velocity: 74
Note OFF: Time 172740, Note Name: C3
Note OFF: Time 172740, Note Name: C2
Note ON: Time 172800, Note Name: A#1, Velocity: 63
Note ON: Time 172800, Note Name: A#2, Velocity: 75
Note OFF: Time 172860, Note Name: A#2
Note OFF: Time 172860, Note Name: A#1
Note ON: Time 172920, Note Name: D#2, Velocity: 64
Note ON: Time 172920, Note Name: D#3, Velocity: 71
Note OFF: Time 172980, Note Name: D#3
Note OFF: Time 172980, Note Name: D#2
Note ON: Time 173160, Note Name: D#2, Velocity: 54
Note ON: Time 173160, Note Name: D#3, Velocity: 64
Note OFF: Time 173220, Note Name: D#3
Note OFF: Time 173220, Note Name: D#2
Note ON: Time 173280, Note Name: D#2, Velocity: 49
Note ON: Time 173280, Note Name: D#3, Velocity: 58
Note OFF: Time 173340, Note Name: D#3
Note OFF: Time 173340, Note Name: D#2
Note ON: Time 173400, Note Name: E2, Velocity: 53
Note ON: Time 173400, Note Name: E3, Velocity: 63
Note OFF: Time 173640, Note Name: E3
Note OFF: Time 173640, Note Name: E2
Note ON: Time 173640, Note Name: E2, Velocity: 51
Note ON: Time 173640, Note Name: E3, Velocity: 61
Note OFF: Time 173700, Note Name: E3
Note OFF: Time 173700, Note Name: E2
Note ON: Time 173760, Note Name: E2, Velocity: 50
Note ON: Time 173760, Note Name: E3, Velocity: 59
Note OFF: Time 173820, Note Name: E3
Note OFF: Time 173820, Note Name: E2
Note ON: Time 173880, Note Name: F2, Velocity: 55
Note ON: Time 173880, Note Name: F3, Velocity: 65
Note OFF: Time 174120, Note Name: F3
Note OFF: Time 174120, Note Name: F2
Note ON: Time 174120, Note Name: F2, Velocity: 52
Note ON: Time 174120, Note Name: F3, Velocity: 62
Note OFF: Time 174180, Note Name: F3
Note OFF: Time 174180, Note Name: F2
Note ON: Time 174240, Note Name: F2, Velocity: 51
Note ON: Time 174240, Note Name: F3, Velocity: 60
Note OFF: Time 174300, Note Name: F3
Note OFF: Time 174300, Note Name: F2
Note ON: Time 174360, Note Name: F#2, Velocity: 43
Note ON: Time 174360, Note Name: F#3, Velocity: 51
Note OFF: Time 174600, Note Name: F#3
Note OFF: Time 174600, Note Name: F#2
Note ON: Time 174600, Note Name: C#4, Velocity: 51
Note ON: Time 174600, Note Name: F#3, Velocity: 43
Note OFF: Time 174660, Note Name: F#3
Note OFF: Time 174660, Note Name: C#4
Note ON: Time 174720, Note Name: C#4, Velocity: 51
Note ON: Time 174720, Note Name: F#3, Velocity: 43
Note OFF: Time 174780, Note Name: F#3
Note OFF: Time 174780, Note Name: C#4
Note ON: Time 174840, Note Name: C#4, Velocity: 51
Note ON: Time 174840, Note Name: F#3, Velocity: 43
Note OFF: Time 175080, Note Name: F#3
Note OFF: Time 175080, Note Name: C#4
Note ON: Time 175080, Note Name: F#3, Velocity: 43
Note ON: Time 175080, Note Name: C#4, Velocity: 51
Note OFF: Time 175140, Note Name: C#4
Note OFF: Time 175140, Note Name: F#3
Note ON: Time 175200, Note Name: F#3, Velocity: 43
Note ON: Time 175200, Note Name: C#4, Velocity: 51
Note OFF: Time 175260, Note Name: C#4
Note OFF: Time 175260, Note Name: F#3
Note ON: Time 175320, Note Name: G#2, Velocity: 40
Note ON: Time 175320, Note Name: D#3, Velocity: 40
Note ON: Time 175320, Note Name: G#3, Velocity: 48
Note OFF: Time 175560, Note Name: G#3
Note OFF: Time 175560, Note Name: D#3
Note OFF: Time 175560, Note Name: G#2
Note ON: Time 175560, Note Name: D#3, Velocity: 40
Note ON: Time 175560, Note Name: G#3, Velocity: 40
Note ON: Time 175560, Note Name: C4, Velocity: 48
Note OFF: Time 175620, Note Name: C4
Note OFF: Time 175620, Note Name: G#3
Note OFF: Time 175620, Note Name: D#3
Note ON: Time 175680, Note Name: D#3, Velocity: 40
Note ON: Time 175680, Note Name: G#3, Velocity: 40
Note ON: Time 175680, Note Name: C4, Velocity: 48
Note OFF: Time 175740, Note Name: C4
Note OFF: Time 175740, Note Name: G#3
Note OFF: Time 175740, Note Name: D#3
Note ON: Time 175800, Note Name: C#3, Velocity: 45
Note ON: Time 175800, Note Name: G#3, Velocity: 45
Note ON: Time 175800, Note Name: C4, Velocity: 52
Note OFF: Time 176040, Note Name: C4
Note OFF: Time 176040, Note Name: G#3
Note OFF: Time 176040, Note Name: C#3
Note ON: Time 176040, Note Name: C#3, Velocity: 40
Note ON: Time 176040, Note Name: G#3, Velocity: 40
Note ON: Time 176040, Note Name: C#4, Velocity: 48
Note OFF: Time 176100, Note Name: C#4
Note OFF: Time 176100, Note Name: G#3
Note OFF: Time 176100, Note Name: C#3
Note ON: Time 176160, Note Name: C#3, Velocity: 40
Note ON: Time 176160, Note Name: G#3, Velocity: 40
Note ON: Time 176160, Note Name: C#4, Velocity: 48
Note OFF: Time 176220, Note Name: C#4
Note OFF: Time 176220, Note Name: G#3
Note OFF: Time 176220, Note Name: C#3
Note ON: Time 176280, Note Name: C#3, Velocity: 45
Note ON: Time 176280, Note Name: G3, Velocity: 45
Note ON: Time 176280, Note Name: C#4, Velocity: 54
Note OFF: Time 176520, Note Name: C#4
Note OFF: Time 176520, Note Name: G3
Note OFF: Time 176520, Note Name: C#3
Note ON: Time 176520, Note Name: C#3, Velocity: 43
Note ON: Time 176520, Note Name: G3, Velocity: 43
Note ON: Time 176520, Note Name: C#4, Velocity: 51
Note OFF: Time 176628, Note Name: C#4
Note OFF: Time 176628, Note Name: G3
Note OFF: Time 176628, Note Name: C#3
Note ON: Time 176640, Note Name: C#3, Velocity: 43
Note ON: Time 176640, Note Name: G3, Velocity: 43
Note ON: Time 176640, Note Name: C#4, Velocity: 51
Note OFF: Time 176748, Note Name: C#4
Note OFF: Time 176748, Note Name: G3
Note OFF: Time 176748, Note Name: C#3
Note ON: Time 176760, Note Name: C3, Velocity: 45
Note ON: Time 176760, Note Name: G3, Velocity: 45
Note ON: Time 176760, Note Name: A#3, Velocity: 54
Note OFF: Time 177000, Note Name: A#3
Note OFF: Time 177000, Note Name: G3
Note OFF: Time 177000, Note Name: C3
Note ON: Time 177000, Note Name: C3, Velocity: 43
Note ON: Time 177000, Note Name: G3, Velocity: 43
Note ON: Time 177000, Note Name: A#3, Velocity: 51
Note OFF: Time 177108, Note Name: A#3
Note OFF: Time 177108, Note Name: G3
Note OFF: Time 177108, Note Name: C3
Note ON: Time 177120, Note Name: C3, Velocity: 43
Note ON: Time 177120, Note Name: G3, Velocity: 43
Note ON: Time 177120, Note Name: A#3, Velocity: 51
Note OFF: Time 177228, Note Name: A#3
Note OFF: Time 177228, Note Name: G3
Note OFF: Time 177228, Note Name: C3
Note ON: Time 177240, Note Name: F3, Velocity: 45
Note ON: Time 177240, Note Name: G#3, Velocity: 52
Note OFF: Time 177480, Note Name: G#3
Note OFF: Time 177480, Note Name: F3
Note ON: Time 177480, Note Name: F3, Velocity: 40
Note ON: Time 177480, Note Name: G#3, Velocity: 48
Note OFF: Time 177540, Note Name: G#3
Note OFF: Time 177540, Note Name: F3
Note ON: Time 177600, Note Name: D#3, Velocity: 40
Note ON: Time 177600, Note Name: G#3, Velocity: 48
Note OFF: Time 177660, Note Name: G#3
Note OFF: Time 177660, Note Name: D#3
Note ON: Time 177720, Note Name: D3, Velocity: 45
Note ON: Time 177720, Note Name: G#3, Velocity: 54
Note OFF: Time 177960, Note Name: G#3
Note OFF: Time 177960, Note Name: D3
Note ON: Time 177960, Note Name: D3, Velocity: 40
Note ON: Time 177960, Note Name: G#3, Velocity: 48
Note OFF: Time 178068, Note Name: G#3
Note OFF: Time 178068, Note Name: D3
Note ON: Time 178080, Note Name: D3, Velocity: 40
Note ON: Time 178080, Note Name: G#3, Velocity: 48
Note OFF: Time 178188, Note Name: G#3
Note OFF: Time 178188, Note Name: D3
Note ON: Time 178200, Note Name: G2, Velocity: 45
Note ON: Time 178200, Note Name: D3, Velocity: 45
Note ON: Time 178200, Note Name: G3, Velocity: 54
Note OFF: Time 178440, Note Name: G3
Note OFF: Time 178440, Note Name: D3
Note OFF: Time 178440, Note Name: G2
Note ON: Time 178440, Note Name: G2, Velocity: 40
Note ON: Time 178440, Note Name: D3, Velocity: 40
Note ON: Time 178440, Note Name: G3, Velocity: 48
Note OFF: Time 178548, Note Name: G3
Note OFF: Time 178548, Note Name: D3
Note OFF: Time 178548, Note Name: G2
Note ON: Time 178560, Note Name: G2, Velocity: 40
Note ON: Time 178560, Note Name: D3, Velocity: 40
Note ON: Time 178560, Note Name: G3, Velocity: 48
Note OFF: Time 178668, Note Name: G3
Note OFF: Time 178668, Note Name: D3
Note OFF: Time 178668, Note Name: G2
Note ON: Time 178680, Note Name: C3, Velocity: 42
Note ON: Time 178680, Note Name: G3, Velocity: 49
Note OFF: Time 178920, Note Name: G3
Note OFF: Time 178920, Note Name: C3
Note ON: Time 178920, Note Name: C3, Velocity: 38
Note ON: Time 178920, Note Name: G3, Velocity: 45
Note OFF: Time 179028, Note Name: G3
Note OFF: Time 179028, Note Name: C3
Note ON: Time 179040, Note Name: C3, Velocity: 38
Note ON: Time 179040, Note Name: G3, Velocity: 45
Note OFF: Time 179148, Note Name: G3
Note OFF: Time 179148, Note Name: C3
Note ON: Time 179160, Note Name: G#3, Velocity: 49
Note ON: Time 179160, Note Name: A#2, Velocity: 42
Note OFF: Time 179400, Note Name: A#2
Note OFF: Time 179400, Note Name: G#3
Note ON: Time 179400, Note Name: G#3, Velocity: 45
Note ON: Time 179400, Note Name: A#2, Velocity: 38
Note OFF: Time 179508, Note Name: A#2
Note OFF: Time 179508, Note Name: G#3
Note ON: Time 179520, Note Name: A#2, Velocity: 38
Note ON: Time 179520, Note Name: G#3, Velocity: 45
Note OFF: Time 179628, Note Name: G#3
Note OFF: Time 179628, Note Name: A#2
Note ON: Time 179640, Note Name: D#2, Velocity: 45
Note ON: Time 179640, Note Name: A#2, Velocity: 45
Note ON: Time 179640, Note Name: D#3, Velocity: 54
Note OFF: Time 179880, Note Name: D#3
Note OFF: Time 179880, Note Name: A#2
Note OFF: Time 179880, Note Name: D#2
Note ON: Time 179880, Note Name: A#2, Velocity: 40
Note ON: Time 179880, Note Name: D#3, Velocity: 48
Note ON: Time 179880, Note Name: D#2, Velocity: 40
Note OFF: Time 179988, Note Name: D#2
Note OFF: Time 179988, Note Name: D#3
Note OFF: Time 179988, Note Name: A#2
Note ON: Time 180000, Note Name: A#2, Velocity: 40
Note ON: Time 180000, Note Name: D#3, Velocity: 48
Note ON: Time 180000, Note Name: D#2, Velocity: 40
Note OFF: Time 180108, Note Name: D#2
Note OFF: Time 180108, Note Name: D#3
Note OFF: Time 180108, Note Name: A#2
Note ON: Time 180120, Note Name: B1, Velocity: 43
Note ON: Time 180120, Note Name: B2, Velocity: 51
Note OFF: Time 180360, Note Name: B2
Note OFF: Time 180360, Note Name: B1
Note ON: Time 180360, Note Name: B2, Velocity: 43
Note ON: Time 180360, Note Name: B3, Velocity: 51
Note ON: Time 180360, Note Name: G3, Velocity: 43
Note OFF: Time 180468, Note Name: G3
Note OFF: Time 180468, Note Name: B3
Note OFF: Time 180468, Note Name: B2
Note ON: Time 180480, Note Name: B2, Velocity: 43
Note ON: Time 180480, Note Name: B3, Velocity: 51
Note ON: Time 180480, Note Name: G3, Velocity: 43
Note OFF: Time 180588, Note Name: G3
Note OFF: Time 180588, Note Name: B3
Note OFF: Time 180588, Note Name: B2
Note ON: Time 180600, Note Name: B2, Velocity: 43
Note ON: Time 180600, Note Name: B3, Velocity: 51
Note ON: Time 180600, Note Name: G3, Velocity: 43
Note OFF: Time 180840, Note Name: G3
Note OFF: Time 180840, Note Name: B3
Note OFF: Time 180840, Note Name: B2
Note ON: Time 180840, Note Name: B2, Velocity: 43
Note ON: Time 180840, Note Name: G3, Velocity: 43
Note ON: Time 180840, Note Name: B3, Velocity: 51
Note OFF: Time 180948, Note Name: B3
Note OFF: Time 180948, Note Name: G3
Note OFF: Time 180948, Note Name: B2
Note ON: Time 180960, Note Name: B2, Velocity: 43
Note ON: Time 180960, Note Name: G3, Velocity: 43
Note ON: Time 180960, Note Name: B3, Velocity: 51
Note OFF: Time 181068, Note Name: B3
Note OFF: Time 181068, Note Name: G3
Note OFF: Time 181068, Note Name: B2
Note ON: Time 181080, Note Name: C3, Velocity: 40
Note ON: Time 181080, Note Name: G3, Velocity: 40
Note ON: Time 181080, Note Name: C4, Velocity: 48
Note OFF: Time 181320, Note Name: C4
Note OFF: Time 181320, Note Name: G3
Note OFF: Time 181320, Note Name: C3
Note ON: Time 181320, Note Name: C3, Velocity: 40
Note ON: Time 181320, Note Name: G3, Velocity: 40
Note ON: Time 181320, Note Name: C4, Velocity: 48
Note OFF: Time 181428, Note Name: C4
Note OFF: Time 181428, Note Name: G3
Note OFF: Time 181428, Note Name: C3
Note ON: Time 181440, Note Name: C3, Velocity: 40
Note ON: Time 181440, Note Name: G3, Velocity: 40
Note ON: Time 181440, Note Name: C4, Velocity: 48
Note OFF: Time 181548, Note Name: C4
Note OFF: Time 181548, Note Name: G3
Note OFF: Time 181548, Note Name: C3
Note ON: Time 181560, Note Name: F3, Velocity: 45
Note ON: Time 181560, Note Name: C4, Velocity: 45
Note ON: Time 181560, Note Name: E4, Velocity: 52
Note OFF: Time 181800, Note Name: E4
Note OFF: Time 181800, Note Name: C4
Note OFF: Time 181800, Note Name: F3
Note ON: Time 181800, Note Name: F3, Velocity: 40
Note ON: Time 181800, Note Name: C4, Velocity: 40
Note ON: Time 181800, Note Name: F4, Velocity: 48
Note OFF: Time 181860, Note Name: F4
Note OFF: Time 181860, Note Name: C4
Note OFF: Time 181860, Note Name: F3
Note ON: Time 181920, Note Name: F3, Velocity: 40
Note ON: Time 181920, Note Name: C4, Velocity: 40
Note ON: Time 181920, Note Name: F4, Velocity: 48
Note OFF: Time 181980, Note Name: F4
Note OFF: Time 181980, Note Name: C4
Note OFF: Time 181980, Note Name: F3
Note ON: Time 182040, Note Name: F3, Velocity: 45
Note ON: Time 182040, Note Name: C4, Velocity: 45
Note ON: Time 182040, Note Name: D4, Velocity: 54
Note OFF: Time 182280, Note Name: D4
Note OFF: Time 182280, Note Name: C4
Note OFF: Time 182280, Note Name: F3
Note ON: Time 182280, Note Name: F3, Velocity: 43
Note ON: Time 182280, Note Name: C4, Velocity: 43
Note ON: Time 182280, Note Name: D4, Velocity: 51
Note OFF: Time 182388, Note Name: D4
Note OFF: Time 182388, Note Name: C4
Note OFF: Time 182388, Note Name: F3
Note ON: Time 182400, Note Name: F3, Velocity: 43
Note ON: Time 182400, Note Name: C4, Velocity: 43
Note ON: Time 182400, Note Name: D4, Velocity: 51
Note OFF: Time 182508, Note Name: D4
Note OFF: Time 182508, Note Name: C4
Note OFF: Time 182508, Note Name: F3
Note ON: Time 182520, Note Name: G3, Velocity: 45
Note ON: Time 182520, Note Name: C4, Velocity: 45
Note ON: Time 182520, Note Name: E4, Velocity: 54
Note OFF: Time 182760, Note Name: E4
Note OFF: Time 182760, Note Name: C4
Note OFF: Time 182760, Note Name: G3
Note ON: Time 182760, Note Name: G3, Velocity: 43
Note ON: Time 182760, Note Name: C4, Velocity: 43
Note ON: Time 182760, Note Name: E4, Velocity: 51
Note OFF: Time 182868, Note Name: E4
Note OFF: Time 182868, Note Name: C4
Note OFF: Time 182868, Note Name: G3
Note ON: Time 182880, Note Name: G3, Velocity: 43
Note ON: Time 182880, Note Name: C4, Velocity: 43
Note ON: Time 182880, Note Name: E4, Velocity: 51
Note OFF: Time 182988, Note Name: E4
Note OFF: Time 182988, Note Name: C4
Note OFF: Time 182988, Note Name: G3
Note ON: Time 183000, Note Name: G#3, Velocity: 42
Note ON: Time 183000, Note Name: C4, Velocity: 42
Note ON: Time 183000, Note Name: E4, Velocity: 49
Note OFF: Time 183240, Note Name: E4
Note OFF: Time 183240, Note Name: C4
Note OFF: Time 183240, Note Name: G#3
Note ON: Time 183240, Note Name: G#3, Velocity: 38
Note ON: Time 183240, Note Name: C4, Velocity: 38
Note ON: Time 183240, Note Name: F4, Velocity: 45
Note OFF: Time 183300, Note Name: F4
Note OFF: Time 183300, Note Name: C4
Note OFF: Time 183300, Note Name: G#3
Note ON: Time 183360, Note Name: G#3, Velocity: 36
Note ON: Time 183360, Note Name: C4, Velocity: 36
Note ON: Time 183360, Note Name: F4, Velocity: 44
Note OFF: Time 183420, Note Name: F4
Note OFF: Time 183420, Note Name: C4
Note OFF: Time 183420, Note Name: G#3
Note ON: Time 183480, Note Name: F3, Velocity: 39
Note ON: Time 183480, Note Name: C4, Velocity: 39
Note ON: Time 183480, Note Name: F4, Velocity: 47
Note OFF: Time 183720, Note Name: F4
Note OFF: Time 183720, Note Name: C4
Note OFF: Time 183720, Note Name: F3
Note ON: Time 183720, Note Name: F3, Velocity: 35
Note ON: Time 183720, Note Name: C4, Velocity: 41
Note OFF: Time 183780, Note Name: C4
Note OFF: Time 183780, Note Name: F3
Note ON: Time 183840, Note Name: F3, Velocity: 35
Note ON: Time 183840, Note Name: C4, Velocity: 41
Note OFF: Time 183900, Note Name: C4
Note OFF: Time 183900, Note Name: F3
Note ON: Time 183960, Note Name: D3, Velocity: 38
Note ON: Time 183960, Note Name: G#3, Velocity: 38
Note ON: Time 183960, Note Name: C4, Velocity: 45
Note OFF: Time 184200, Note Name: C4
Note OFF: Time 184200, Note Name: G#3
Note OFF: Time 184200, Note Name: D3
Note ON: Time 184200, Note Name: D3, Velocity: 31
Note ON: Time 184200, Note Name: G3, Velocity: 31
Note ON: Time 184200, Note Name: C4, Velocity: 38
Note OFF: Time 184260, Note Name: C4
Note OFF: Time 184260, Note Name: G3
Note OFF: Time 184260, Note Name: D3
Note ON: Time 184320, Note Name: D3, Velocity: 31
Note ON: Time 184320, Note Name: F3, Velocity: 31
Note ON: Time 184320, Note Name: C4, Velocity: 38
Note OFF: Time 184380, Note Name: C4
Note OFF: Time 184380, Note Name: F3
Note OFF: Time 184380, Note Name: D3
Note ON: Time 184440, Note Name: G2, Velocity: 34
Note ON: Time 184440, Note Name: D3, Velocity: 34
Note ON: Time 184440, Note Name: G3, Velocity: 39
Note OFF: Time 184560, Note Name: G3
Note OFF: Time 184560, Note Name: D3
Note OFF: Time 184560, Note Name: G2
Note ON: Time 184680, Note Name: G2, Velocity: 30
Note ON: Time 184680, Note Name: C3, Velocity: 30
Note ON: Time 184680, Note Name: G3, Velocity: 36
Note OFF: Time 184800, Note Name: G3
Note OFF: Time 184800, Note Name: C3
Note OFF: Time 184800, Note Name: G2
Note ON: Time 184800, Note Name: G2, Velocity: 30
Note ON: Time 184800, Note Name: D#3, Velocity: 30
Note ON: Time 184800, Note Name: G3, Velocity: 36
Note OFF: Time 184920, Note Name: G3
Note OFF: Time 184920, Note Name: D#3
Note OFF: Time 184920, Note Name: G2
Note ON: Time 184920, Note Name: G2, Velocity: 31
Note ON: Time 184920, Note Name: D3, Velocity: 31
Note ON: Time 184920, Note Name: G3, Velocity: 37
Note OFF: Time 185040, Note Name: G3
Note OFF: Time 185040, Note Name: D3
Note OFF: Time 185040, Note Name: G2
Note ON: Time 185160, Note Name: G2, Velocity: 28
Note ON: Time 185160, Note Name: C3, Velocity: 28
Note ON: Time 185160, Note Name: G3, Velocity: 34
Note OFF: Time 185280, Note Name: G3
Note OFF: Time 185280, Note Name: C3
Note OFF: Time 185280, Note Name: G2
Note ON: Time 185280, Note Name: G2, Velocity: 28
Note ON: Time 185280, Note Name: D#3, Velocity: 28
Note ON: Time 185280, Note Name: G3, Velocity: 34
Note OFF: Time 185400, Note Name: G3
Note OFF: Time 185400, Note Name: D#3
Note OFF: Time 185400, Note Name: G2
Note ON: Time 185400, Note Name: G2, Velocity: 27
Note ON: Time 185400, Note Name: D3, Velocity: 27
Note ON: Time 185400, Note Name: G3, Velocity: 33
Note OFF: Time 185520, Note Name: G3
Note OFF: Time 185520, Note Name: D3
Note OFF: Time 185520, Note Name: G2
Note ON: Time 185640, Note Name: D4, Velocity: 38
Note OFF: Time 186120, Note Name: D4
Note ON: Time 186120, Note Name: D4, Velocity: 32
Note ON: Time 186360, Note Name: F#3, Velocity: 27
Note ON: Time 186360, Note Name: C4, Velocity: 32
Note OFF: Time 186600, Note Name: C4
Note OFF: Time 186600, Note Name: F#3
Note OFF: Time 186600, Note Name: D4
Note ON: Time 186600, Note Name: D3, Velocity: 24
Note ON: Time 186600, Note Name: D4, Velocity: 29
Note OFF: Time 186840, Note Name: D4
Note OFF: Time 186840, Note Name: D3
Note ON: Time 186840, Note Name: G3, Velocity: 27
Note ON: Time 186840, Note Name: B3, Velocity: 32
Note OFF: Time 187080, Note Name: B3
Note OFF: Time 187080, Note Name: G3
Note ON: Time 187080, Note Name: D3, Velocity: 24
Note ON: Time 187080, Note Name: D4, Velocity: 28
Note OFF: Time 187320, Note Name: D4
Note OFF: Time 187320, Note Name: D3
Note ON: Time 187320, Note Name: D2, Velocity: 47
Note OFF: Time 187440, Note Name: D2
Note ON: Time 187560, Note Name: D3, Velocity: 24
Note ON: Time 187560, Note Name: D4, Velocity: 28
Note OFF: Time 187800, Note Name: D4
Note OFF: Time 187800, Note Name: D3
Note ON: Time 187800, Note Name: A3, Velocity: 27
Note ON: Time 187800, Note Name: C4, Velocity: 32
Note OFF: Time 188040, Note Name: C4
Note OFF: Time 188040, Note Name: A3
Note ON: Time 188040, Note Name: D3, Velocity: 24
Note ON: Time 188040, Note Name: D4, Velocity: 28
Note OFF: Time 188280, Note Name: D4
Note OFF: Time 188280, Note Name: D3
Note ON: Time 188280, Note Name: G3, Velocity: 27
Note ON: Time 188280, Note Name: B3, Velocity: 32
Note OFF: Time 188520, Note Name: B3
Note OFF: Time 188520, Note Name: G3
Note ON: Time 188520, Note Name: D3, Velocity: 24
Note ON: Time 188520, Note Name: D4, Velocity: 29
Note OFF: Time 188760, Note Name: D4
Note OFF: Time 188760, Note Name: D3
Note ON: Time 188760, Note Name: F#3, Velocity: 27
Note ON: Time 188760, Note Name: A3, Velocity: 32
Note OFF: Time 189000, Note Name: A3
Note OFF: Time 189000, Note Name: F#3
Note ON: Time 189000, Note Name: D3, Velocity: 24
Note ON: Time 189000, Note Name: D4, Velocity: 28
Note OFF: Time 189240, Note Name: D4
Note OFF: Time 189240, Note Name: D3
Note ON: Time 189240, Note Name: G3, Velocity: 27
Note ON: Time 189240, Note Name: A#3, Velocity: 32
Note OFF: Time 189480, Note Name: A#3
Note OFF: Time 189480, Note Name: G3
Note ON: Time 189480, Note Name: D3, Velocity: 27
Note ON: Time 189480, Note Name: D4, Velocity: 32
Note OFF: Time 189960, Note Name: D4
Note OFF: Time 189960, Note Name: D3
Note ON: Time 189960, Note Name: D3, Velocity: 26
Note ON: Time 189960, Note Name: D4, Velocity: 31
Note OFF: Time 190200, Note Name: D4
Note OFF: Time 190200, Note Name: D3
Note ON: Time 190200, Note Name: F#3, Velocity: 27
Note ON: Time 190200, Note Name: A3, Velocity: 32
Note OFF: Time 190440, Note Name: A3
Note OFF: Time 190440, Note Name: F#3
Note ON: Time 190440, Note Name: D3, Velocity: 24
Note ON: Time 190440, Note Name: D4, Velocity: 28
Note OFF: Time 190680, Note Name: D4
Note OFF: Time 190680, Note Name: D3
Note ON: Time 190680, Note Name: G3, Velocity: 27
Note ON: Time 190680, Note Name: A#3, Velocity: 32
Note OFF: Time 190920, Note Name: A#3
Note OFF: Time 190920, Note Name: G3
Note ON: Time 190920, Note Name: D3, Velocity: 24
Note ON: Time 190920, Note Name: D4, Velocity: 28
Note OFF: Time 191160, Note Name: D4
Note OFF: Time 191160, Note Name: D3
Note ON: Time 191160, Note Name: G#3, Velocity: 27
Note ON: Time 191160, Note Name: B3, Velocity: 32
Note OFF: Time 191400, Note Name: B3
Note OFF: Time 191400, Note Name: G#3
Note ON: Time 191400, Note Name: D3, Velocity: 24
Note ON: Time 191400, Note Name: D4, Velocity: 28
Note OFF: Time 191640, Note Name: D4
Note OFF: Time 191640, Note Name: D3
Note ON: Time 191640, Note Name: A3, Velocity: 27
Note ON: Time 191640, Note Name: C4, Velocity: 29
Note OFF: Time 191880, Note Name: C4
Note OFF: Time 191880, Note Name: A3
Note ON: Time 191880, Note Name: D3, Velocity: 24
Note ON: Time 191880, Note Name: D4, Velocity: 32
Note OFF: Time 192360, Note Name: D4
Note OFF: Time 192360, Note Name: D3
Note ON: Time 192360, Note Name: D3, Velocity: 24
Note ON: Time 192360, Note Name: D4, Velocity: 29
Note OFF: Time 192600, Note Name: D4
Note OFF: Time 192600, Note Name: D3
Note ON: Time 192600, Note Name: G3, Velocity: 27
Note ON: Time 192600, Note Name: A#3, Velocity: 32
Note OFF: Time 192840, Note Name: A#3
Note OFF: Time 192840, Note Name: G3
Note ON: Time 192840, Note Name: D3, Velocity: 24
Note ON: Time 192840, Note Name: D4, Velocity: 28
Note OFF: Time 193080, Note Name: D4
Note OFF: Time 193080, Note Name: D3
Note ON: Time 193080, Note Name: D2, Velocity: 47
Note OFF: Time 193200, Note Name: D2
Note ON: Time 193320, Note Name: D3, Velocity: 24
Note ON: Time 193320, Note Name: D4, Velocity: 28
Note OFF: Time 193560, Note Name: D4
Note OFF: Time 193560, Note Name: D3
Note ON: Time 193560, Note Name: F#3, Velocity: 27
Note ON: Time 193560, Note Name: C4, Velocity: 32
Note OFF: Time 193800, Note Name: C4
Note OFF: Time 193800, Note Name: F#3
Note ON: Time 193800, Note Name: D3, Velocity: 24
Note ON: Time 193800, Note Name: D4, Velocity: 28
Note OFF: Time 194040, Note Name: D4
Note OFF: Time 194040, Note Name: D3
Note ON: Time 194040, Note Name: G3, Velocity: 27
Note ON: Time 194040, Note Name: A#3, Velocity: 32
Note OFF: Time 194280, Note Name: A#3
Note OFF: Time 194280, Note Name: G3
Note ON: Time 194280, Note Name: D3, Velocity: 24
Note ON: Time 194280, Note Name: D4, Velocity: 29
Note OFF: Time 194520, Note Name: D4
Note OFF: Time 194520, Note Name: D3
Note ON: Time 194520, Note Name: G3, Velocity: 34
Note ON: Time 194520, Note Name: A#3, Velocity: 40
Note OFF: Time 194760, Note Name: A#3
Note OFF: Time 194760, Note Name: G3
Note ON: Time 194760, Note Name: D3, Velocity: 30
Note ON: Time 194760, Note Name: D#4, Velocity: 36
Note OFF: Time 195240, Note Name: D#4
Note OFF: Time 195240, Note Name: D3
Note ON: Time 195240, Note Name: D3, Velocity: 34
Note ON: Time 195240, Note Name: D#4, Velocity: 40
Note OFF: Time 195480, Note Name: D#4
Note OFF: Time 195480, Note Name: D3
Note ON: Time 195480, Note Name: G3, Velocity: 33
Note ON: Time 195480, Note Name: A#3, Velocity: 39
Note OFF: Time 195720, Note Name: A#3
Note OFF: Time 195720, Note Name: G3
Note ON: Time 195720, Note Name: D3, Velocity: 33
Note ON: Time 195720, Note Name: D#4, Velocity: 39
Note OFF: Time 195960, Note Name: D#4
Note OFF: Time 195960, Note Name: D3
Note ON: Time 195960, Note Name: F#3, Velocity: 29
Note ON: Time 195960, Note Name: A3, Velocity: 29
Note ON: Time 195960, Note Name: D4, Velocity: 35
Note OFF: Time 196200, Note Name: D4
Note OFF: Time 196200, Note Name: A3
Note OFF: Time 196200, Note Name: F#3
Note ON: Time 196200, Note Name: D3, Velocity: 36
Note OFF: Time 196440, Note Name: D3
Note ON: Time 196440, Note Name: G3, Velocity: 32
Note ON: Time 196440, Note Name: A#3, Velocity: 32
Note ON: Time 196440, Note Name: D#4, Velocity: 38
Note OFF: Time 196680, Note Name: D#4
Note OFF: Time 196680, Note Name: A#3
Note OFF: Time 196680, Note Name: G3
Note ON: Time 196680, Note Name: C#3, Velocity: 40
Note OFF: Time 196920, Note Name: C#3
Note ON: Time 196920, Note Name: G3, Velocity: 36
Note ON: Time 196920, Note Name: A#3, Velocity: 36
Note ON: Time 196920, Note Name: E4, Velocity: 42
Note OFF: Time 197160, Note Name: E4
Note OFF: Time 197160, Note Name: A#3
Note OFF: Time 197160, Note Name: G3
Note ON: Time 197160, Note Name: C3, Velocity: 43
Note OFF: Time 197400, Note Name: C3
Note ON: Time 197400, Note Name: F2, Velocity: 52
Note OFF: Time 197520, Note Name: F2
Note ON: Time 197640, Note Name: F3, Velocity: 34
Note ON: Time 197640, Note Name: F4, Velocity: 44
Note OFF: Time 198120, Note Name: F4
Note OFF: Time 198120, Note Name: F3
Note ON: Time 198120, Note Name: F3, Velocity: 34
Note ON: Time 198120, Note Name: F4, Velocity: 40
Note OFF: Time 198360, Note Name: F4
Note OFF: Time 198360, Note Name: F3
Note ON: Time 198360, Note Name: A#3, Velocity: 37
Note ON: Time 198360, Note Name: C#4, Velocity: 44
Note OFF: Time 198600, Note Name: C#4
Note OFF: Time 198600, Note Name: A#3
Note ON: Time 198600, Note Name: F3, Velocity: 33
Note ON: Time 198600, Note Name: F4, Velocity: 39
Note OFF: Time 198840, Note Name: F4
Note OFF: Time 198840, Note Name: F3
Note ON: Time 198840, Note Name: F1, Velocity: 56
Note OFF: Time 198960, Note Name: F1
Note ON: Time 199080, Note Name: F3, Velocity: 33
Note ON: Time 199080, Note Name: F4, Velocity: 39
Note OFF: Time 199320, Note Name: F4
Note OFF: Time 199320, Note Name: F3
Note ON: Time 199320, Note Name: A3, Velocity: 37
Note ON: Time 199320, Note Name: D#4, Velocity: 44
Note OFF: Time 199560, Note Name: D#4
Note OFF: Time 199560, Note Name: A3
Note ON: Time 199560, Note Name: F3, Velocity: 33
Note ON: Time 199560, Note Name: F4, Velocity: 39
Note OFF: Time 199800, Note Name: F4
Note OFF: Time 199800, Note Name: F3
Note ON: Time 199800, Note Name: A#3, Velocity: 37
Note ON: Time 199800, Note Name: C#4, Velocity: 44
Note OFF: Time 200040, Note Name: C#4
Note OFF: Time 200040, Note Name: A#3
Note ON: Time 200040, Note Name: F3, Velocity: 34
Note ON: Time 200040, Note Name: F4, Velocity: 40
Note OFF: Time 200280, Note Name: F4
Note OFF: Time 200280, Note Name: F3
Note ON: Time 200280, Note Name: A#3, Velocity: 37
Note ON: Time 200280, Note Name: C#4, Velocity: 44
Note OFF: Time 200520, Note Name: C#4
Note OFF: Time 200520, Note Name: A#3
Note ON: Time 200520, Note Name: F3, Velocity: 33
Note ON: Time 200520, Note Name: F#4, Velocity: 39
Note OFF: Time 201000, Note Name: F#4
Note OFF: Time 201000, Note Name: F3
Note ON: Time 201000, Note Name: F3, Velocity: 37
Note ON: Time 201000, Note Name: F#4, Velocity: 44
Note OFF: Time 201240, Note Name: F#4
Note OFF: Time 201240, Note Name: F3
Note ON: Time 201240, Note Name: A#3, Velocity: 36
Note ON: Time 201240, Note Name: C#4, Velocity: 42
Note OFF: Time 201480, Note Name: C#4
Note OFF: Time 201480, Note Name: A#3
Note ON: Time 201480, Note Name: F3, Velocity: 36
Note ON: Time 201480, Note Name: F#4, Velocity: 42
Note OFF: Time 201720, Note Name: F#4
Note OFF: Time 201720, Note Name: F3
Note ON: Time 201720, Note Name: A3, Velocity: 31
Note ON: Time 201720, Note Name: C4, Velocity: 38
Note OFF: Time 201960, Note Name: C4
Note OFF: Time 201960, Note Name: A3
Note ON: Time 201960, Note Name: F3, Velocity: 33
Note ON: Time 201960, Note Name: F4, Velocity: 38
Note OFF: Time 202200, Note Name: F4
Note OFF: Time 202200, Note Name: F3
Note ON: Time 202200, Note Name: A#3, Velocity: 32
Note ON: Time 202200, Note Name: C#4, Velocity: 38
Note OFF: Time 202440, Note Name: C#4
Note OFF: Time 202440, Note Name: A#3
Note ON: Time 202440, Note Name: F3, Velocity: 31
Note ON: Time 202440, Note Name: F4, Velocity: 38
Note OFF: Time 202680, Note Name: F4
Note OFF: Time 202680, Note Name: F3
Note ON: Time 202680, Note Name: B3, Velocity: 32
Note ON: Time 202680, Note Name: D4, Velocity: 37
Note OFF: Time 202920, Note Name: D4
Note OFF: Time 202920, Note Name: B3
Note ON: Time 202920, Note Name: F3, Velocity: 29
Note ON: Time 202920, Note Name: F4, Velocity: 36
Note OFF: Time 203160, Note Name: F4
Note OFF: Time 203160, Note Name: F3
Note ON: Time 203160, Note Name: C4, Velocity: 28
Note ON: Time 203160, Note Name: D#4, Velocity: 31
Note OFF: Time 203400, Note Name: D#4
Note OFF: Time 203400, Note Name: C4
Note ON: Time 203400, Note Name: F3, Velocity: 26
Note ON: Time 203400, Note Name: F4, Velocity: 34
Note OFF: Time 203880, Note Name: F4
Note OFF: Time 203880, Note Name: F3
Note ON: Time 203880, Note Name: F3, Velocity: 26
Note ON: Time 203880, Note Name: F4, Velocity: 31
Note OFF: Time 204120, Note Name: F4
Note OFF: Time 204120, Note Name: F3
Note ON: Time 204120, Note Name: A#3, Velocity: 28
Note ON: Time 204120, Note Name: C#4, Velocity: 34
Note OFF: Time 204360, Note Name: C#4
Note OFF: Time 204360, Note Name: A#3
Note ON: Time 204360, Note Name: F3, Velocity: 25
Note ON: Time 204360, Note Name: F4, Velocity: 30
Note OFF: Time 204600, Note Name: F4
Note OFF: Time 204600, Note Name: F3
Note ON: Time 204600, Note Name: F1, Velocity: 43
Note OFF: Time 204720, Note Name: F1
Note ON: Time 204840, Note Name: F3, Velocity: 25
Note ON: Time 204840, Note Name: F4, Velocity: 30
Note OFF: Time 205080, Note Name: F4
Note OFF: Time 205080, Note Name: F3
Note ON: Time 205080, Note Name: A3, Velocity: 28
Note ON: Time 205080, Note Name: D#4, Velocity: 34
Note OFF: Time 205320, Note Name: D#4
Note OFF: Time 205320, Note Name: A3
Note ON: Time 205320, Note Name: F3, Velocity: 25
Note ON: Time 205320, Note Name: F4, Velocity: 30
Note OFF: Time 205560, Note Name: F4
Note OFF: Time 205560, Note Name: F3
Note ON: Time 205560, Note Name: A#3, Velocity: 28
Note ON: Time 205560, Note Name: C#4, Velocity: 34
Note OFF: Time 205800, Note Name: C#4
Note OFF: Time 205800, Note Name: A#3
Note ON: Time 205800, Note Name: F3, Velocity: 26
Note ON: Time 205800, Note Name: F4, Velocity: 31
Note OFF: Time 206040, Note Name: F4
Note OFF: Time 206040, Note Name: F3
Note ON: Time 206040, Note Name: F2, Velocity: 51
Note OFF: Time 206160, Note Name: F2
Note ON: Time 206280, Note Name: C3, Velocity: 26
Note ON: Time 206280, Note Name: C4, Velocity: 34
Note OFF: Time 206760, Note Name: C4
Note OFF: Time 206760, Note Name: C3
Note ON: Time 206760, Note Name: C3, Velocity: 26
Note ON: Time 206760, Note Name: C4, Velocity: 31
Note OFF: Time 207000, Note Name: C4
Note OFF: Time 207000, Note Name: C3
Note ON: Time 207000, Note Name: F3, Velocity: 28
Note ON: Time 207000, Note Name: G#3, Velocity: 34
Note OFF: Time 207240, Note Name: G#3
Note OFF: Time 207240, Note Name: F3
Note ON: Time 207240, Note Name: C3, Velocity: 25
Note ON: Time 207240, Note Name: C4, Velocity: 30
Note OFF: Time 207480, Note Name: C4
Note OFF: Time 207480, Note Name: C3
Note ON: Time 207480, Note Name: D#2, Velocity: 47
Note OFF: Time 207600, Note Name: D#2
Note ON: Time 207720, Note Name: C3, Velocity: 26
Note ON: Time 207720, Note Name: C4, Velocity: 34
Note OFF: Time 208200, Note Name: C4
Note OFF: Time 208200, Note Name: C3
Note ON: Time 208200, Note Name: C3, Velocity: 26
Note ON: Time 208200, Note Name: C4, Velocity: 31
Note OFF: Time 208440, Note Name: C4
Note OFF: Time 208440, Note Name: C3
Note ON: Time 208440, Note Name: C#2, Velocity: 48
Note OFF: Time 208560, Note Name: C#2
Note ON: Time 208680, Note Name: C#3, Velocity: 25
Note ON: Time 208680, Note Name: C4, Velocity: 30
Note OFF: Time 208920, Note Name: C4
Note OFF: Time 208920, Note Name: C#3
Note ON: Time 208920, Note Name: C2, Velocity: 49
Note OFF: Time 209040, Note Name: C2
Note ON: Time 209160, Note Name: C3, Velocity: 26
Note ON: Time 209160, Note Name: C4, Velocity: 34
Note OFF: Time 209640, Note Name: C4
Note OFF: Time 209640, Note Name: C3
Note ON: Time 209640, Note Name: C3, Velocity: 26
Note ON: Time 209640, Note Name: C4, Velocity: 31
Note OFF: Time 209880, Note Name: C4
Note OFF: Time 209880, Note Name: C3
Note ON: Time 209880, Note Name: F3, Velocity: 28
Note ON: Time 209880, Note Name: G#3, Velocity: 34
Note OFF: Time 210120, Note Name: G#3
Note OFF: Time 210120, Note Name: F3
Note ON: Time 210120, Note Name: C3, Velocity: 25
Note ON: Time 210120, Note Name: C4, Velocity: 30
Note OFF: Time 210360, Note Name: C4
Note OFF: Time 210360, Note Name: C3
Note ON: Time 210360, Note Name: D#2, Velocity: 50
Note OFF: Time 210480, Note Name: D#2
Note ON: Time 210600, Note Name: C3, Velocity: 26
Note ON: Time 210600, Note Name: C4, Velocity: 34
Note OFF: Time 211080, Note Name: C4
Note OFF: Time 211080, Note Name: C3
Note ON: Time 211080, Note Name: C3, Velocity: 26
Note ON: Time 211080, Note Name: C4, Velocity: 31
Note OFF: Time 211320, Note Name: C4
Note OFF: Time 211320, Note Name: C3
Note ON: Time 211320, Note Name: C#2, Velocity: 51
Note OFF: Time 211440, Note Name: C#2
Note ON: Time 211560, Note Name: C#3, Velocity: 25
Note ON: Time 211560, Note Name: C4, Velocity: 30
Note OFF: Time 211800, Note Name: C4
Note OFF: Time 211800, Note Name: C#3
Note ON: Time 211800, Note Name: C2, Velocity: 49
Note OFF: Time 211920, Note Name: C2
Note ON: Time 212040, Note Name: C3, Velocity: 26
Note ON: Time 212040, Note Name: C4, Velocity: 34
Note OFF: Time 212520, Note Name: C4
Note OFF: Time 212520, Note Name: C3
Note ON: Time 212520, Note Name: C3, Velocity: 26
Note ON: Time 212520, Note Name: C4, Velocity: 31
Note OFF: Time 212760, Note Name: C4
Note OFF: Time 212760, Note Name: C3
Note ON: Time 212760, Note Name: F3, Velocity: 28
Note ON: Time 212760, Note Name: G#3, Velocity: 34
Note OFF: Time 213000, Note Name: G#3
Note OFF: Time 213000, Note Name: F3
Note ON: Time 213000, Note Name: C3, Velocity: 25
Note ON: Time 213000, Note Name: C4, Velocity: 30
Note OFF: Time 213240, Note Name: C4
Note OFF: Time 213240, Note Name: C3
Note ON: Time 213240, Note Name: D#3, Velocity: 28
Note ON: Time 213240, Note Name: G3, Velocity: 39
Note OFF: Time 213480, Note Name: G3
Note OFF: Time 213480, Note Name: D#3
Note ON: Time 213480, Note Name: C3, Velocity: 26
Note ON: Time 213480, Note Name: C4, Velocity: 34
Note OFF: Time 213960, Note Name: C4
Note OFF: Time 213960, Note Name: C3
Note ON: Time 213960, Note Name: C3, Velocity: 26
Note ON: Time 213960, Note Name: C4, Velocity: 31
Note OFF: Time 214200, Note Name: C4
Note OFF: Time 214200, Note Name: C3
Note ON: Time 214200, Note Name: C#3, Velocity: 28
Note ON: Time 214200, Note Name: F3, Velocity: 34
Note OFF: Time 214440, Note Name: F3
Note OFF: Time 214440, Note Name: C#3
Note ON: Time 214440, Note Name: C3, Velocity: 25
Note ON: Time 214440, Note Name: C4, Velocity: 30
Note OFF: Time 214680, Note Name: C4
Note OFF: Time 214680, Note Name: C3
Note ON: Time 214680, Note Name: E3, Velocity: 39
Note OFF: Time 214920, Note Name: E3
Note ON: Time 214920, Note Name: C3, Velocity: 26
Note ON: Time 214920, Note Name: C4, Velocity: 34
Note OFF: Time 215400, Note Name: C4
Note OFF: Time 215400, Note Name: C3
Note ON: Time 215400, Note Name: C3, Velocity: 26
Note ON: Time 215400, Note Name: C4, Velocity: 31
Note OFF: Time 215640, Note Name: C4
Note OFF: Time 215640, Note Name: C3
Note ON: Time 215640, Note Name: F3, Velocity: 28
Note ON: Time 215640, Note Name: G#3, Velocity: 34
Note OFF: Time 215880, Note Name: G#3
Note OFF: Time 215880, Note Name: F3
Note ON: Time 215880, Note Name: C3, Velocity: 25
Note ON: Time 215880, Note Name: C4, Velocity: 30
Note OFF: Time 216120, Note Name: C4
Note OFF: Time 216120, Note Name: C3
Note ON: Time 216120, Note Name: D#3, Velocity: 28
Note ON: Time 216120, Note Name: G3, Velocity: 39
Note OFF: Time 216360, Note Name: G3
Note OFF: Time 216360, Note Name: D#3
Note ON: Time 216360, Note Name: C3, Velocity: 26
Note ON: Time 216360, Note Name: C4, Velocity: 34
Note OFF: Time 216840, Note Name: C4
Note OFF: Time 216840, Note Name: C3
Note ON: Time 216840, Note Name: C3, Velocity: 26
Note ON: Time 216840, Note Name: C4, Velocity: 31
Note OFF: Time 217080, Note Name: C4
Note OFF: Time 217080, Note Name: C3
Note ON: Time 217080, Note Name: C#3, Velocity: 28
Note ON: Time 217080, Note Name: F3, Velocity: 34
Note OFF: Time 217320, Note Name: F3
Note OFF: Time 217320, Note Name: C#3
Note ON: Time 217320, Note Name: C3, Velocity: 25
Note ON: Time 217320, Note Name: C4, Velocity: 30
Note ON: Time 217560, Note Name: E3, Velocity: 34
Note OFF: Time 217800, Note Name: E3
Note OFF: Time 217800, Note Name: C4
Note OFF: Time 217800, Note Name: C3
Note ON: Time 218040, Note Name: F#3, Velocity: 37
Note OFF: Time 218160, Note Name: F#3
Note ON: Time 218160, Note Name: G3, Velocity: 39
Note OFF: Time 218280, Note Name: G3
Note ON: Time 218280, Note Name: G#3, Velocity: 43
Note OFF: Time 218400, Note Name: G#3
Note ON: Time 218400, Note Name: A#3, Velocity: 46
Note OFF: Time 218520, Note Name: A#3
Note ON: Time 218520, Note Name: G#3, Velocity: 48
Note OFF: Time 218640, Note Name: G#3
Note ON: Time 218640, Note Name: G3, Velocity: 48
Note OFF: Time 218760, Note Name: G3
Note ON: Time 218760, Note Name: F3, Velocity: 48
Note OFF: Time 218880, Note Name: F3
Note ON: Time 218880, Note Name: E3, Velocity: 49
Note OFF: Time 219000, Note Name: E3
Note ON: Time 219000, Note Name: D#3, Velocity: 48
Note OFF: Time 219120, Note Name: D#3
Note ON: Time 219120, Note Name: E3, Velocity: 51
Note OFF: Time 219240, Note Name: E3
Note ON: Time 219240, Note Name: F3, Velocity: 53
Note OFF: Time 219360, Note Name: F3
Note ON: Time 219360, Note Name: G3, Velocity: 55
Note OFF: Time 219480, Note Name: G3
Note ON: Time 219480, Note Name: C#3, Velocity: 62
Note ON: Time 219600, Note Name: G3, Velocity: 56
Note OFF: Time 219720, Note Name: G3
Note OFF: Time 219720, Note Name: C#3
Note ON: Time 219720, Note Name: C3, Velocity: 60
Note ON: Time 219840, Note Name: G3, Velocity: 53
Note OFF: Time 219960, Note Name: G3
Note OFF: Time 219960, Note Name: C3
Note ON: Time 219960, Note Name: B2, Velocity: 51
Note OFF: Time 220080, Note Name: B2
Note ON: Time 220080, Note Name: C3, Velocity: 53
Note OFF: Time 220200, Note Name: C3
Note ON: Time 220200, Note Name: C#3, Velocity: 54
Note OFF: Time 220320, Note Name: C#3
Note ON: Time 220320, Note Name: D#3, Velocity: 57
Note OFF: Time 220440, Note Name: D#3
Note ON: Time 220440, Note Name: C#3, Velocity: 60
Note OFF: Time 220560, Note Name: C#3
Note ON: Time 220560, Note Name: C3, Velocity: 58
Note OFF: Time 220680, Note Name: C3
Note ON: Time 220680, Note Name: A#2, Velocity: 56
Note OFF: Time 220800, Note Name: A#2
Note ON: Time 220800, Note Name: G#2, Velocity: 55
Note OFF: Time 220920, Note Name: G#2
Note ON: Time 220920, Note Name: G2, Velocity: 64
Note ON: Time 221040, Note Name: C3, Velocity: 58
Note OFF: Time 221160, Note Name: C3
Note ON: Time 221160, Note Name: A#2, Velocity: 58
Note OFF: Time 221280, Note Name: A#2
Note OFF: Time 221280, Note Name: G2
Note ON: Time 221280, Note Name: F#2, Velocity: 59
Note OFF: Time 221400, Note Name: F#2
Note ON: Time 221400, Note Name: F2, Velocity: 62
Note ON: Time 221520, Note Name: C3, Velocity: 58
Note OFF: Time 221640, Note Name: C3
Note ON: Time 221640, Note Name: A#2, Velocity: 58
Note OFF: Time 221760, Note Name: A#2
Note OFF: Time 221760, Note Name: F2
Note ON: Time 221760, Note Name: E2, Velocity: 59
Note OFF: Time 221880, Note Name: E2
Note ON: Time 221880, Note Name: D#2, Velocity: 66
Note ON: Time 222000, Note Name: G#2, Velocity: 60
Note OFF: Time 222120, Note Name: G#2
Note ON: Time 222120, Note Name: G2, Velocity: 61
Note OFF: Time 222240, Note Name: G2
Note OFF: Time 222240, Note Name: D#2
Note ON: Time 222240, Note Name: D#2, Velocity: 63
Note OFF: Time 222360, Note Name: D#2
Note ON: Time 222360, Note Name: C#2, Velocity: 69
Note ON: Time 222480, Note Name: G2, Velocity: 65
Note OFF: Time 222600, Note Name: G2
Note ON: Time 222600, Note Name: F2, Velocity: 68
Note OFF: Time 222720, Note Name: F2
Note OFF: Time 222720, Note Name: C#2
Note ON: Time 222720, Note Name: C#2, Velocity: 68
Note OFF: Time 222840, Note Name: C#2
Note ON: Time 222840, Note Name: C2, Velocity: 74
Note ON: Time 222960, Note Name: D#2, Velocity: 70
Note OFF: Time 223080, Note Name: D#2
Note OFF: Time 223080, Note Name: C2
Note ON: Time 223080, Note Name: A#1, Velocity: 71
Note ON: Time 223200, Note Name: D#2, Velocity: 73
Note OFF: Time 223320, Note Name: D#2
Note OFF: Time 223320, Note Name: A#1
Note ON: Time 223320, Note Name: G#1, Velocity: 70
Note ON: Time 223320, Note Name: G#2, Velocity: 84
Note OFF: Time 223440, Note Name: G#2
Note OFF: Time 223440, Note Name: G#1
Note ON: Time 223560, Note Name: C4, Velocity: 67
Note ON: Time 223560, Note Name: D#3, Velocity: 67
Note ON: Time 223560, Note Name: D#4, Velocity: 79
Note OFF: Time 223800, Note Name: D#4
Note OFF: Time 223800, Note Name: D#3
Note OFF: Time 223800, Note Name: C4
Note ON: Time 223800, Note Name: G#4, Velocity: 77
Note ON: Time 223800, Note Name: C4, Velocity: 77
Note ON: Time 223800, Note Name: G#3, Velocity: 64
Note OFF: Time 224040, Note Name: G#3
Note OFF: Time 224040, Note Name: C4
Note OFF: Time 224040, Note Name: G#4
Note ON: Time 224040, Note Name: D#2, Velocity: 72
Note ON: Time 224040, Note Name: D#3, Velocity: 85
Note OFF: Time 224100, Note Name: D#3
Note OFF: Time 224100, Note Name: D#2
Note ON: Time 224280, Note Name: G#2, Velocity: 73
Note ON: Time 224280, Note Name: G#3, Velocity: 86
Note OFF: Time 224400, Note Name: G#3
Note OFF: Time 224400, Note Name: G#2
Note ON: Time 224520, Note Name: D#1, Velocity: 61
Note ON: Time 224520, Note Name: D#2, Velocity: 73
Note OFF: Time 224760, Note Name: D#2
Note OFF: Time 224760, Note Name: D#1
Note ON: Time 224760, Note Name: G#1, Velocity: 67
Note ON: Time 224760, Note Name: G#2, Velocity: 79
Note OFF: Time 225000, Note Name: G#2
Note OFF: Time 225000, Note Name: G#1
Note ON: Time 225000, Note Name: C4, Velocity: 61
Note ON: Time 225000, Note Name: D#4, Velocity: 73
Note ON: Time 225000, Note Name: D#3, Velocity: 61
Note OFF: Time 225240, Note Name: D#3
Note OFF: Time 225240, Note Name: D#4
Note OFF: Time 225240, Note Name: C4
Note ON: Time 225240, Note Name: G#4, Velocity: 75
Note ON: Time 225240, Note Name: C4, Velocity: 75
Note ON: Time 225240, Note Name: G#3, Velocity: 63
Note OFF: Time 225480, Note Name: G#3
Note OFF: Time 225480, Note Name: C4
Note OFF: Time 225480, Note Name: G#4
Note ON: Time 225480, Note Name: D#2, Velocity: 67
Note ON: Time 225480, Note Name: D#3, Velocity: 80
Note OFF: Time 225540, Note Name: D#3
Note OFF: Time 225540, Note Name: D#2
Note ON: Time 225720, Note Name: G#2, Velocity: 73
Note ON: Time 225720, Note Name: G#3, Velocity: 86
Note OFF: Time 225840, Note Name: G#3
Note OFF: Time 225840, Note Name: G#2
Note ON: Time 225960, Note Name: D#1, Velocity: 61
Note ON: Time 225960, Note Name: D#2, Velocity: 73
Note OFF: Time 226200, Note Name: D#2
Note OFF: Time 226200, Note Name: D#1
Note ON: Time 226200, Note Name: G#1, Velocity: 67
Note ON: Time 226200, Note Name: G#2, Velocity: 79
Note OFF: Time 226440, Note Name: G#2
Note OFF: Time 226440, Note Name: G#1
Note ON: Time 226440, Note Name: C4, Velocity: 61
Note ON: Time 226440, Note Name: D#4, Velocity: 73
Note ON: Time 226440, Note Name: D#3, Velocity: 61
Note OFF: Time 226680, Note Name: D#3
Note OFF: Time 226680, Note Name: D#4
Note OFF: Time 226680, Note Name: C4
Note ON: Time 226680, Note Name: G#4, Velocity: 75
Note ON: Time 226680, Note Name: C4, Velocity: 75
Note ON: Time 226680, Note Name: G#3, Velocity: 63
Note OFF: Time 226920, Note Name: G#3
Note OFF: Time 226920, Note Name: C4
Note OFF: Time 226920, Note Name: G#4
Note ON: Time 226920, Note Name: D#2, Velocity: 61
Note ON: Time 226920, Note Name: D#3, Velocity: 73
Note OFF: Time 227040, Note Name: D#3
Note OFF: Time 227040, Note Name: D#2
Note ON: Time 227160, Note Name: G#2, Velocity: 64
Note ON: Time 227160, Note Name: G#3, Velocity: 77
Note OFF: Time 227280, Note Name: G#3
Note OFF: Time 227280, Note Name: G#2
Note ON: Time 227340, Note Name: D#2, Velocity: 62
Note ON: Time 227370, Note Name: A#2, Velocity: 62
Note ON: Time 227400, Note Name: F#3, Velocity: 74
Note OFF: Time 227550, Note Name: F#3
Note OFF: Time 227550, Note Name: A#2
Note OFF: Time 227550, Note Name: D#2
Note ON: Time 227550, Note Name: F2, Velocity: 62
Note ON: Time 227580, Note Name: C3, Velocity: 62
Note ON: Time 227610, Note Name: D#3, Velocity: 74
Note ON: Time 227640, Note Name: A3, Velocity: 74
Note OFF: Time 227790, Note Name: A3
Note OFF: Time 227790, Note Name: D#3
Note OFF: Time 227790, Note Name: F2
Note ON: Time 227790, Note Name: F3, Velocity: 61
Note ON: Time 227820, Note Name: C4, Velocity: 61
Note ON: Time 227850, Note Name: D#4, Velocity: 73
Note OFF: Time 227880, Note Name: C3
Note ON: Time 227880, Note Name: A4, Velocity: 73
Note OFF: Time 228030, Note Name: A4
Note OFF: Time 228030, Note Name: D#4
Note OFF: Time 228030, Note Name: C4
Note OFF: Time 228030, Note Name: F3
Note ON: Time 228060, Note Name: A#2, Velocity: 63
Note ON: Time 228090, Note Name: F3, Velocity: 75
Note ON: Time 228120, Note Name: C#4, Velocity: 75
Note OFF: Time 228360, Note Name: C#4
Note OFF: Time 228360, Note Name: F3
Note OFF: Time 228360, Note Name: A#2
Note ON: Time 228360, Note Name: F#2, Velocity: 60
Note ON: Time 228360, Note Name: F#3, Velocity: 71
Note OFF: Time 228600, Note Name: F#3
Note OFF: Time 228600, Note Name: F#2
Note ON: Time 228600, Note Name: F2, Velocity: 60
Note ON: Time 228600, Note Name: F3, Velocity: 71
Note OFF: Time 228840, Note Name: F3
Note OFF: Time 228840, Note Name: F2
Note ON: Time 228840, Note Name: C#2, Velocity: 58
Note ON: Time 228840, Note Name: C#3, Velocity: 69
Note OFF: Time 229080, Note Name: C#3
Note OFF: Time 229080, Note Name: C#2
Note ON: Time 229080, Note Name: A#1, Velocity: 67
Note ON: Time 229080, Note Name: A#2, Velocity: 79
Note OFF: Time 229200, Note Name: A#2
Note OFF: Time 229200, Note Name: A#1
Note ON: Time 229320, Note Name: C#4, Velocity: 79
Note ON: Time 229320, Note Name: F3, Velocity: 67
Note ON: Time 229320, Note Name: F4, Velocity: 79
Note OFF: Time 229560, Note Name: F4
Note OFF: Time 229560, Note Name: F3
Note OFF: Time 229560, Note Name: C#4
Note ON: Time 229560, Note Name: A#4, Velocity: 77
Note ON: Time 229560, Note Name: C#4, Velocity: 77
Note ON: Time 229560, Note Name: A#3, Velocity: 64
Note OFF: Time 229800, Note Name: A#3
Note OFF: Time 229800, Note Name: C#4
Note OFF: Time 229800, Note Name: A#4
Note ON: Time 229800, Note Name: F2, Velocity: 72
Note ON: Time 229800, Note Name: F3, Velocity: 85
Note OFF: Time 229860, Note Name: F3
Note OFF: Time 229860, Note Name: F2
Note ON: Time 230040, Note Name: A#2, Velocity: 73
Note ON: Time 230040, Note Name: A#3, Velocity: 86
Note OFF: Time 230160, Note Name: A#3
Note OFF: Time 230160, Note Name: A#2
Note ON: Time 230280, Note Name: F1, Velocity: 61
Note ON: Time 230280, Note Name: F2, Velocity: 73
Note OFF: Time 230520, Note Name: F2
Note OFF: Time 230520, Note Name: F1
Note ON: Time 230520, Note Name: A#1, Velocity: 67
Note ON: Time 230520, Note Name: A#2, Velocity: 79
Note OFF: Time 230760, Note Name: A#2
Note OFF: Time 230760, Note Name: A#1
Note ON: Time 230760, Note Name: C#4, Velocity: 61
Note ON: Time 230760, Note Name: F4, Velocity: 73
Note ON: Time 230760, Note Name: F3, Velocity: 61
Note OFF: Time 231000, Note Name: F3
Note OFF: Time 231000, Note Name: F4
Note OFF: Time 231000, Note Name: C#4
Note ON: Time 231000, Note Name: A#4, Velocity: 75
Note ON: Time 231000, Note Name: C#4, Velocity: 75
Note ON: Time 231000, Note Name: A#3, Velocity: 63
Note OFF: Time 231240, Note Name: A#3
Note OFF: Time 231240, Note Name: C#4
Note OFF: Time 231240, Note Name: A#4
Note ON: Time 231240, Note Name: F2, Velocity: 67
Note ON: Time 231240, Note Name: F3, Velocity: 80
Note OFF: Time 231300, Note Name: F3
Note OFF: Time 231300, Note Name: F2
Note ON: Time 231480, Note Name: A#2, Velocity: 73
Note ON: Time 231480, Note Name: A#3, Velocity: 86
Note OFF: Time 231600, Note Name: A#3
Note OFF: Time 231600, Note Name: A#2
Note ON: Time 231720, Note Name: A#1, Velocity: 61
Note ON: Time 231720, Note Name: A#2, Velocity: 73
Note OFF: Time 231960, Note Name: A#2
Note OFF: Time 231960, Note Name: A#1
Note ON: Time 231960, Note Name: D#1, Velocity: 67
Note ON: Time 231960, Note Name: D#2, Velocity: 79
Note OFF: Time 232080, Note Name: D#2
Note OFF: Time 232080, Note Name: D#1
Note ON: Time 232200, Note Name: G4, Velocity: 60
Note ON: Time 232200, Note Name: C#4, Velocity: 60
Note ON: Time 232200, Note Name: C5, Velocity: 72
Note ON: Time 232200, Note Name: D#4, Velocity: 60
Note OFF: Time 232320, Note Name: C5
Note ON: Time 232320, Note Name: A#4, Velocity: 70
Note OFF: Time 232440, Note Name: A#4
Note OFF: Time 232440, Note Name: D#4
Note OFF: Time 232440, Note Name: C#4
Note OFF: Time 232440, Note Name: G4
Note ON: Time 232440, Note Name: D#3, Velocity: 75
Note OFF: Time 232560, Note Name: D#3
Note ON: Time 232680, Note Name: A#4, Velocity: 72
Note ON: Time 232680, Note Name: C4, Velocity: 58
Note ON: Time 232680, Note Name: D#4, Velocity: 69
Note OFF: Time 232800, Note Name: A#4
Note ON: Time 232800, Note Name: G#4, Velocity: 70
Note OFF: Time 232920, Note Name: G#4
Note OFF: Time 232920, Note Name: D#4
Note OFF: Time 232920, Note Name: C4
Note ON: Time 232920, Note Name: D#3, Velocity: 73
Note OFF: Time 233040, Note Name: D#3
Note ON: Time 233160, Note Name: G#4, Velocity: 72
Note ON: Time 233160, Note Name: A#3, Velocity: 56
Note ON: Time 233160, Note Name: D#4, Velocity: 67
Note OFF: Time 233280, Note Name: G#4
Note ON: Time 233280, Note Name: G4, Velocity: 70
Note OFF: Time 233400, Note Name: G4
Note OFF: Time 233400, Note Name: D#4
Note OFF: Time 233400, Note Name: A#3
Note ON: Time 233400, Note Name: A#2, Velocity: 70
Note OFF: Time 233520, Note Name: A#2
Note ON: Time 233640, Note Name: G4, Velocity: 72
Note ON: Time 233640, Note Name: G#3, Velocity: 55
Note ON: Time 233640, Note Name: D4, Velocity: 66
Note ON: Time 233640, Note Name: A#3, Velocity: 55
Note OFF: Time 233760, Note Name: G4
Note ON: Time 233760, Note Name: F4, Velocity: 70
Note OFF: Time 233880, Note Name: F4
Note OFF: Time 233880, Note Name: A#3
Note OFF: Time 233880, Note Name: D4
Note OFF: Time 233880, Note Name: G#3
Note ON: Time 233880, Note Name: D#3, Velocity: 72
Note OFF: Time 234000, Note Name: D#3
Note ON: Time 234120, Note Name: F4, Velocity: 72
Note ON: Time 234120, Note Name: G3, Velocity: 57
Note ON: Time 234120, Note Name: A#3, Velocity: 68
Note OFF: Time 234240, Note Name: F4
Note ON: Time 234240, Note Name: D#4, Velocity: 70
Note OFF: Time 234360, Note Name: D#4
Note OFF: Time 234360, Note Name: A#3
Note OFF: Time 234360, Note Name: G3
Note ON: Time 234360, Note Name: F2, Velocity: 62
Note ON: Time 234360, Note Name: F3, Velocity: 74
Note OFF: Time 234600, Note Name: F2
Note ON: Time 234600, Note Name: C#4, Velocity: 72
Note ON: Time 234600, Note Name: G#3, Velocity: 68
Note OFF: Time 234720, Note Name: C#4
Note ON: Time 234720, Note Name: C4, Velocity: 68
Note OFF: Time 234840, Note Name: C4
Note OFF: Time 234840, Note Name: G#3
Note OFF: Time 234840, Note Name: F3
Note ON: Time 234840, Note Name: C#2, Velocity: 59
Note ON: Time 234840, Note Name: C#3, Velocity: 71
Note OFF: Time 235080, Note Name: C#3
Note OFF: Time 235080, Note Name: C#2
Note ON: Time 235080, Note Name: F3, Velocity: 51
Note ON: Time 235080, Note Name: A#3, Velocity: 59
Note OFF: Time 235320, Note Name: A#3
Note OFF: Time 235320, Note Name: F3
Note ON: Time 235320, Note Name: C2, Velocity: 53
Note ON: Time 235320, Note Name: C3, Velocity: 63
Note OFF: Time 235560, Note Name: C3
Note OFF: Time 235560, Note Name: C2
Note ON: Time 235560, Note Name: E3, Velocity: 49
Note ON: Time 235560, Note Name: C4, Velocity: 59
Note ON: Time 235560, Note Name: A#3, Velocity: 49
Note OFF: Time 235800, Note Name: A#3
Note OFF: Time 235800, Note Name: C4
Note OFF: Time 235800, Note Name: E3
Note ON: Time 235800, Note Name: F1, Velocity: 58
Note ON: Time 235800, Note Name: F2, Velocity: 69
Note OFF: Time 236040, Note Name: F2
Note OFF: Time 236040, Note Name: F1
Note ON: Time 236040, Note Name: F3, Velocity: 67
Note ON: Time 236040, Note Name: G#3, Velocity: 67
Note ON: Time 236040, Note Name: C4, Velocity: 67
Note OFF: Time 236280, Note Name: C4
Note OFF: Time 236280, Note Name: G#3
Note OFF: Time 236280, Note Name: F3
Note ON: Time 236280, Note Name: D#2, Velocity: 51
Note ON: Time 236280, Note Name: D#3, Velocity: 72
Note OFF: Time 236400, Note Name: D#3
Note OFF: Time 236400, Note Name: D#2
Note ON: Time 236520, Note Name: D#3, Velocity: 48
Note ON: Time 236520, Note Name: A#3, Velocity: 68
Note OFF: Time 236760, Note Name: A#3
Note OFF: Time 236760, Note Name: D#3
Note ON: Time 236760, Note Name: G#2, Velocity: 50
Note ON: Time 236760, Note Name: D#3, Velocity: 50
Note ON: Time 236760, Note Name: G#3, Velocity: 70
Note OFF: Time 237000, Note Name: G#3
Note OFF: Time 237000, Note Name: D#3
Note OFF: Time 237000, Note Name: G#2
Note ON: Time 237480, Note Name: G#2, Velocity: 61
Note ON: Time 237480, Note Name: G#3, Velocity: 72
Note OFF: Time 237720, Note Name: G#3
Note OFF: Time 237720, Note Name: G#2
Note ON: Time 237720, Note Name: C#2, Velocity: 62
Note ON: Time 237720, Note Name: C#3, Velocity: 74
Note OFF: Time 237960, Note Name: C#3
Note OFF: Time 237960, Note Name: C#2
Note ON: Time 237960, Note Name: F3, Velocity: 55
Note ON: Time 237960, Note Name: A#3, Velocity: 64
Note OFF: Time 238200, Note Name: A#3
Note OFF: Time 238200, Note Name: F3
Note ON: Time 238200, Note Name: C2, Velocity: 63
Note ON: Time 238200, Note Name: C3, Velocity: 75
Note OFF: Time 238440, Note Name: C3
Note OFF: Time 238440, Note Name: C2
Note ON: Time 238440, Note Name: A#3, Velocity: 57
Note ON: Time 238440, Note Name: E4, Velocity: 68
Note ON: Time 238440, Note Name: C4, Velocity: 57
Note OFF: Time 238680, Note Name: C4
Note OFF: Time 238680, Note Name: E4
Note OFF: Time 238680, Note Name: A#3
Note ON: Time 238680, Note Name: F1, Velocity: 66
Note ON: Time 238680, Note Name: F2, Velocity: 78
Note OFF: Time 238920, Note Name: F2
Note OFF: Time 238920, Note Name: F1
Note ON: Time 238920, Note Name: F3, Velocity: 68
Note ON: Time 238920, Note Name: G#3, Velocity: 70
Note ON: Time 238920, Note Name: C4, Velocity: 73
Note ON: Time 238920, Note Name: F4, Velocity: 73
Note OFF: Time 239160, Note Name: F4
Note OFF: Time 239160, Note Name: F3
Note OFF: Time 239160, Note Name: G#3
Note OFF: Time 239160, Note Name: C4
Note ON: Time 239160, Note Name: D#2, Velocity: 64
Note ON: Time 239160, Note Name: D#3, Velocity: 77
Note OFF: Time 239280, Note Name: D#3
Note OFF: Time 239280, Note Name: D#2
Note ON: Time 239400, Note Name: A#3, Velocity: 43
Note ON: Time 239400, Note Name: C#4, Velocity: 43
Note ON: Time 239400, Note Name: D#4, Velocity: 60
Note ON: Time 239400, Note Name: G4, Velocity: 71
Note OFF: Time 239640, Note Name: G4
Note OFF: Time 239640, Note Name: A#3
Note OFF: Time 239640, Note Name: C#4
Note OFF: Time 239640, Note Name: D#4
Note ON: Time 239640, Note Name: G#3, Velocity: 60
Note ON: Time 239640, Note Name: D#4, Velocity: 60
Note ON: Time 239640, Note Name: G#4, Velocity: 71
Note OFF: Time 239760, Note Name: G#4
Note OFF: Time 239760, Note Name: D#4
Note OFF: Time 239760, Note Name: G#3
Note ON: Time 239880, Note Name: G#4, Velocity: 70
Note ON: Time 239880, Note Name: B3, Velocity: 70
Note ON: Time 239880, Note Name: D4, Velocity: 70
Note ON: Time 239880, Note Name: B4, Velocity: 70
Note OFF: Time 240060, Note Name: B4
Note OFF: Time 240060, Note Name: G#4
Note OFF: Time 240060, Note Name: B3
Note OFF: Time 240060, Note Name: D4
Note ON: Time 240060, Note Name: G#4, Velocity: 63
Note ON: Time 240060, Note Name: C4, Velocity: 63
Note ON: Time 240060, Note Name: C5, Velocity: 63
Note ON: Time 240060, Note Name: D#4, Velocity: 63
Note OFF: Time 240114, Note Name: D#4
Note OFF: Time 240114, Note Name: G#4
Note OFF: Time 240114, Note Name: C4
Note OFF: Time 240114, Note Name: C5
Note ON: Time 240120, Note Name: G#4, Velocity: 71
Note ON: Time 240120, Note Name: C5, Velocity: 71
Note ON: Time 240120, Note Name: C4, Velocity: 71
Note ON: Time 240120, Note Name: D#4, Velocity: 71
Note OFF: Time 240240, Note Name: D#4
Note OFF: Time 240240, Note Name: G#4
Note OFF: Time 240240, Note Name: C5
Note OFF: Time 240240, Note Name: C4
Note ON: Time 240270, Note Name: F3, Velocity: 61
Note ON: Time 240300, Note Name: C4, Velocity: 61
Note ON: Time 240330, Note Name: D#4, Velocity: 61
Note ON: Time 240360, Note Name: A4, Velocity: 72
Note OFF: Time 240540, Note Name: A4
Note OFF: Time 240540, Note Name: F3
Note OFF: Time 240540, Note Name: C4
Note OFF: Time 240540, Note Name: D#4
Note ON: Time 240540, Note Name: A#2, Velocity: 66
Note ON: Time 240570, Note Name: F3, Velocity: 66
Note ON: Time 240600, Note Name: C#4, Velocity: 78
Note OFF: Time 240780, Note Name: C#4
Note OFF: Time 240780, Note Name: F3
Note OFF: Time 240780, Note Name: A#2
Note ON: Time 240780, Note Name: D#3, Velocity: 61
Note ON: Time 240810, Note Name: A#3, Velocity: 61
Note ON: Time 240840, Note Name: F#4, Velocity: 72
Note OFF: Time 241020, Note Name: F#4
Note OFF: Time 241020, Note Name: A#3
Note OFF: Time 241020, Note Name: D#3
Note ON: Time 241020, Note Name: A#2, Velocity: 57
Note ON: Time 241050, Note Name: F3, Velocity: 57
Note ON: Time 241080, Note Name: C#4, Velocity: 68
Note OFF: Time 241260, Note Name: C#4
Note OFF: Time 241260, Note Name: F3
Note OFF: Time 241260, Note Name: A#2
Note ON: Time 241260, Note Name: D#2, Velocity: 57
Note ON: Time 241290, Note Name: A#2, Velocity: 57
Note ON: Time 241320, Note Name: F#3, Velocity: 68
Note OFF: Time 241500, Note Name: F#3
Note OFF: Time 241500, Note Name: A#2
Note OFF: Time 241500, Note Name: D#2
Note ON: Time 241500, Note Name: A#1, Velocity: 57
Note ON: Time 241530, Note Name: F2, Velocity: 57
Note ON: Time 241560, Note Name: C#3, Velocity: 68
Note OFF: Time 241740, Note Name: C#3
Note OFF: Time 241740, Note Name: F2
Note OFF: Time 241740, Note Name: A#1
Note ON: Time 241740, Note Name: D#2, Velocity: 56
Note ON: Time 241770, Note Name: A#2, Velocity: 56
Note ON: Time 241800, Note Name: F#3, Velocity: 67
Note OFF: Time 241980, Note Name: F#3
Note OFF: Time 241980, Note Name: A#2
Note OFF: Time 241980, Note Name: D#2
Note ON: Time 241980, Note Name: A#2, Velocity: 61
Note ON: Time 242010, Note Name: F3, Velocity: 61
Note ON: Time 242040, Note Name: C#4, Velocity: 72
Note OFF: Time 242220, Note Name: C#4
Note OFF: Time 242220, Note Name: F3
Note OFF: Time 242220, Note Name: A#2
Note ON: Time 242280, Note Name: A1, Velocity: 55
Note OFF: Time 242340, Note Name: A1
Note ON: Time 242340, Note Name: A#1, Velocity: 55
Note OFF: Time 242400, Note Name: A#1
Note ON: Time 242400, Note Name: C2, Velocity: 56
Note OFF: Time 242460, Note Name: C2
Note ON: Time 242460, Note Name: C#2, Velocity: 56
Note OFF: Time 242520, Note Name: C#2
Note ON: Time 242520, Note Name: D#2, Velocity: 56
Note OFF: Time 242580, Note Name: D#2
Note ON: Time 242580, Note Name: F2, Velocity: 57
Note OFF: Time 242640, Note Name: F2
Note ON: Time 242640, Note Name: G2, Velocity: 58
Note OFF: Time 242700, Note Name: G2
Note ON: Time 242700, Note Name: A2, Velocity: 58
Note OFF: Time 242760, Note Name: A2
Note ON: Time 242760, Note Name: A#2, Velocity: 59
Note OFF: Time 242820, Note Name: A#2
Note ON: Time 242820, Note Name: C3, Velocity: 60
Note OFF: Time 242880, Note Name: C3
Note ON: Time 242880, Note Name: C#3, Velocity: 60
Note OFF: Time 242940, Note Name: C#3
Note ON: Time 242940, Note Name: D#3, Velocity: 61
Note OFF: Time 243000, Note Name: D#3
Note ON: Time 243000, Note Name: F3, Velocity: 61
Note OFF: Time 243060, Note Name: F3
Note ON: Time 243060, Note Name: G3, Velocity: 61
Note OFF: Time 243120, Note Name: G3
Note ON: Time 243120, Note Name: A3, Velocity: 62
Note OFF: Time 243180, Note Name: A3
Note ON: Time 243180, Note Name: A#3, Velocity: 62
Note OFF: Time 243240, Note Name: A#3
Note ON: Time 243240, Note Name: C4, Velocity: 63
Note OFF: Time 243300, Note Name: C4
Note ON: Time 243300, Note Name: C#4, Velocity: 64
Note OFF: Time 243360, Note Name: C#4
Note ON: Time 243360, Note Name: D#4, Velocity: 64
Note OFF: Time 243420, Note Name: D#4
Note ON: Time 243420, Note Name: F4, Velocity: 66
Note OFF: Time 243480, Note Name: F4
Note ON: Time 243480, Note Name: G4, Velocity: 67
Note OFF: Time 243540, Note Name: G4
Note ON: Time 243540, Note Name: A4, Velocity: 65
Note OFF: Time 243600, Note Name: A4
Note ON: Time 243600, Note Name: A#4, Velocity: 66
Note OFF: Time 243660, Note Name: A#4
Note ON: Time 243660, Note Name: C5, Velocity: 67
Note OFF: Time 243720, Note Name: C5
Note ON: Time 243720, Note Name: C#5, Velocity: 68
Note OFF: Time 243780, Note Name: C#5
Note ON: Time 243780, Note Name: D#5, Velocity: 69
Note OFF: Time 243840, Note Name: D#5
Note ON: Time 243840, Note Name: F5, Velocity: 70
Note OFF: Time 243900, Note Name: F5
Note ON: Time 243900, Note Name: G5, Velocity: 71
Note OFF: Time 243990, Note Name: G5
Note ON: Time 243990, Note Name: A5, Velocity: 72
Note OFF: Time 244050, Note Name: A5
Note ON: Time 244320, Note Name: D#1, Velocity: 68
Note ON: Time 244320, Note Name: D#2, Velocity: 80
Note OFF: Time 244440, Note Name: D#2
Note OFF: Time 244440, Note Name: D#1
Note ON: Time 244560, Note Name: D#3, Velocity: 61
Note ON: Time 244560, Note Name: D#4, Velocity: 72
Note OFF: Time 244680, Note Name: D#4
Note OFF: Time 244680, Note Name: D#3
Note ON: Time 244800, Note Name: C5, Velocity: 67
Note ON: Time 244800, Note Name: G4, Velocity: 67
Note ON: Time 244800, Note Name: D#4, Velocity: 67
Note ON: Time 244800, Note Name: D#5, Velocity: 79
Note OFF: Time 245040, Note Name: D#5
Note OFF: Time 245040, Note Name: C5
Note OFF: Time 245040, Note Name: G4
Note OFF: Time 245040, Note Name: D#4
Note ON: Time 245040, Note Name: F5, Velocity: 77
Note ON: Time 245040, Note Name: C5, Velocity: 64
Note ON: Time 245040, Note Name: F4, Velocity: 64
Note OFF: Time 245280, Note Name: F4
Note OFF: Time 245280, Note Name: C5
Note OFF: Time 245280, Note Name: F5
Note ON: Time 245280, Note Name: C4, Velocity: 61
Note ON: Time 245280, Note Name: G#4, Velocity: 61
Note ON: Time 245280, Note Name: C5, Velocity: 72
Note OFF: Time 245520, Note Name: C5
Note OFF: Time 245520, Note Name: G#4
Note OFF: Time 245520, Note Name: C4
Note ON: Time 245520, Note Name: C#5, Velocity: 77
Note ON: Time 245520, Note Name: G#4, Velocity: 64
Note ON: Time 245520, Note Name: C#4, Velocity: 64
Note OFF: Time 245760, Note Name: C#4
Note OFF: Time 245760, Note Name: G#4
Note OFF: Time 245760, Note Name: C#5
Note ON: Time 245760, Note Name: C4, Velocity: 61
Note ON: Time 245760, Note Name: G#4, Velocity: 61
Note ON: Time 245760, Note Name: C5, Velocity: 72
Note OFF: Time 246000, Note Name: C5
Note OFF: Time 246000, Note Name: G#4
Note OFF: Time 246000, Note Name: C4
Note ON: Time 246000, Note Name: G#4, Velocity: 73
Note ON: Time 246000, Note Name: D#4, Velocity: 60
Note ON: Time 246000, Note Name: G#3, Velocity: 60
Note OFF: Time 246240, Note Name: G#3
Note OFF: Time 246240, Note Name: D#4
Note OFF: Time 246240, Note Name: G#4
Note ON: Time 246240, Note Name: F3, Velocity: 57
Note ON: Time 246240, Note Name: F4, Velocity: 68
Note OFF: Time 246480, Note Name: F4
Note OFF: Time 246480, Note Name: F3
Note ON: Time 246480, Note Name: C#4, Velocity: 73
Note ON: Time 246480, Note Name: G#3, Velocity: 60
Note ON: Time 246480, Note Name: C#3, Velocity: 60
Note OFF: Time 246720, Note Name: C#3
Note OFF: Time 246720, Note Name: G#3
Note OFF: Time 246720, Note Name: C#4
Note ON: Time 246720, Note Name: D#3, Velocity: 57
Note ON: Time 246720, Note Name: A#3, Velocity: 57
Note ON: Time 246720, Note Name: C#4, Velocity: 68
Note OFF: Time 246960, Note Name: C#4
Note OFF: Time 246960, Note Name: A#3
Note OFF: Time 246960, Note Name: D#3
Note ON: Time 246960, Note Name: G#1, Velocity: 57
Note ON: Time 246960, Note Name: G#2, Velocity: 68
Note OFF: Time 247080, Note Name: G#2
Note OFF: Time 247080, Note Name: G#1
Note ON: Time 247200, Note Name: D#3, Velocity: 57
Note ON: Time 247200, Note Name: G#3, Velocity: 57
Note ON: Time 247200, Note Name: C4, Velocity: 68
Note OFF: Time 247440, Note Name: C4
Note OFF: Time 247440, Note Name: G#3
Note OFF: Time 247440, Note Name: D#3
Note ON: Time 247440, Note Name: F3, Velocity: 62
Note ON: Time 247440, Note Name: G#3, Velocity: 62
Note ON: Time 247440, Note Name: B3, Velocity: 73
Note OFF: Time 247680, Note Name: B3
Note OFF: Time 247680, Note Name: G#3
Note OFF: Time 247680, Note Name: F3
Note ON: Time 247680, Note Name: F2, Velocity: 57
Note ON: Time 247680, Note Name: F3, Velocity: 68
Note OFF: Time 247800, Note Name: F3
Note OFF: Time 247800, Note Name: F2
Note ON: Time 247920, Note Name: F1, Velocity: 62
Note ON: Time 247920, Note Name: F2, Velocity: 73
Note OFF: Time 248040, Note Name: F2
Note OFF: Time 248040, Note Name: F1
Note ON: Time 248160, Note Name: E1, Velocity: 63
Note ON: Time 248160, Note Name: E2, Velocity: 75
Note OFF: Time 248400, Note Name: E2
Note OFF: Time 248400, Note Name: E1
Note ON: Time 248400, Note Name: D#1, Velocity: 64
Note ON: Time 248400, Note Name: D#2, Velocity: 76
Note OFF: Time 248520, Note Name: D#2
Note OFF: Time 248520, Note Name: D#1
Note ON: Time 248640, Note Name: A#3, Velocity: 60
Note ON: Time 248640, Note Name: C#4, Velocity: 60
Note ON: Time 248640, Note Name: D#4, Velocity: 60
Note ON: Time 248640, Note Name: G4, Velocity: 71
Note OFF: Time 248700, Note Name: G4
Note OFF: Time 248700, Note Name: A#3
Note OFF: Time 248700, Note Name: C#4
Note OFF: Time 248700, Note Name: D#4
Note ON: Time 248760, Note Name: A#3, Velocity: 56
Note ON: Time 248760, Note Name: C#4, Velocity: 56
Note ON: Time 248760, Note Name: D#4, Velocity: 56
Note ON: Time 248760, Note Name: G4, Velocity: 67
Note OFF: Time 248820, Note Name: G4
Note OFF: Time 248820, Note Name: A#3
Note OFF: Time 248820, Note Name: C#4
Note OFF: Time 248820, Note Name: D#4
Note ON: Time 248880, Note Name: A#3, Velocity: 60
Note ON: Time 248880, Note Name: C#4, Velocity: 60
Note ON: Time 248880, Note Name: D#4, Velocity: 60
Note ON: Time 248880, Note Name: G4, Velocity: 71
Note OFF: Time 249000, Note Name: G4
Note OFF: Time 249000, Note Name: A#3
Note OFF: Time 249000, Note Name: C#4
Note OFF: Time 249000, Note Name: D#4
Note ON: Time 249120, Note Name: A#3, Velocity: 55
Note ON: Time 249120, Note Name: C#4, Velocity: 55
Note ON: Time 249120, Note Name: D#4, Velocity: 55
Note ON: Time 249120, Note Name: F#4, Velocity: 65
Note OFF: Time 249240, Note Name: F#4
Note OFF: Time 249240, Note Name: A#3
Note OFF: Time 249240, Note Name: C#4
Note OFF: Time 249240, Note Name: D#4
Note ON: Time 249240, Note Name: A#3, Velocity: 58
Note ON: Time 249240, Note Name: C#4, Velocity: 58
Note ON: Time 249240, Note Name: D#4, Velocity: 58
Note ON: Time 249240, Note Name: G4, Velocity: 69
Note OFF: Time 249360, Note Name: G4
Note OFF: Time 249360, Note Name: A#3
Note OFF: Time 249360, Note Name: C#4
Note OFF: Time 249360, Note Name: D#4
Note ON: Time 249360, Note Name: A#3, Velocity: 61
Note ON: Time 249360, Note Name: C#4, Velocity: 61
Note ON: Time 249360, Note Name: D#4, Velocity: 61
Note ON: Time 249360, Note Name: G#4, Velocity: 72
Note OFF: Time 249600, Note Name: G#4
Note OFF: Time 249600, Note Name: A#3
Note OFF: Time 249600, Note Name: C#4
Note OFF: Time 249600, Note Name: D#4
Note ON: Time 249600, Note Name: A#3, Velocity: 59
Note ON: Time 249600, Note Name: C#4, Velocity: 59
Note ON: Time 249600, Note Name: D#4, Velocity: 59
Note ON: Time 249600, Note Name: A#4, Velocity: 70
Note OFF: Time 249840, Note Name: A#4
Note OFF: Time 249840, Note Name: A#3
Note OFF: Time 249840, Note Name: C#4
Note OFF: Time 249840, Note Name: D#4
Note ON: Time 249840, Note Name: G#2, Velocity: 62
Note ON: Time 249840, Note Name: G#3, Velocity: 74
Note OFF: Time 249960, Note Name: G#3
Note OFF: Time 249960, Note Name: G#2
Note ON: Time 250080, Note Name: D#3, Velocity: 57
Note ON: Time 250080, Note Name: G#3, Velocity: 57
Note ON: Time 250080, Note Name: C4, Velocity: 68
Note OFF: Time 250320, Note Name: C4
Note OFF: Time 250320, Note Name: G#3
Note OFF: Time 250320, Note Name: D#3
Note ON: Time 250320, Note Name: F3, Velocity: 62
Note ON: Time 250320, Note Name: G#3, Velocity: 62
Note ON: Time 250320, Note Name: B3, Velocity: 73
Note OFF: Time 250560, Note Name: B3
Note OFF: Time 250560, Note Name: G#3
Note OFF: Time 250560, Note Name: F3
Note ON: Time 250560, Note Name: F2, Velocity: 57
Note ON: Time 250560, Note Name: F3, Velocity: 68
Note OFF: Time 250680, Note Name: F3
Note OFF: Time 250680, Note Name: F2
Note ON: Time 250800, Note Name: F1, Velocity: 62
Note ON: Time 250800, Note Name: F2, Velocity: 73
Note OFF: Time 250920, Note Name: F2
Note OFF: Time 250920, Note Name: F1
Note ON: Time 251040, Note Name: E1, Velocity: 63
Note ON: Time 251040, Note Name: E2, Velocity: 75
Note OFF: Time 251280, Note Name: E2
Note OFF: Time 251280, Note Name: E1
Note ON: Time 251280, Note Name: D#1, Velocity: 64
Note ON: Time 251280, Note Name: D#2, Velocity: 76
Note OFF: Time 251400, Note Name: D#2
Note OFF: Time 251400, Note Name: D#1
Note ON: Time 251520, Note Name: A#3, Velocity: 60
Note ON: Time 251520, Note Name: C#4, Velocity: 60
Note ON: Time 251520, Note Name: D#4, Velocity: 60
Note ON: Time 251520, Note Name: G4, Velocity: 71
Note OFF: Time 251580, Note Name: G4
Note OFF: Time 251580, Note Name: A#3
Note OFF: Time 251580, Note Name: C#4
Note OFF: Time 251580, Note Name: D#4
Note ON: Time 251640, Note Name: A#3, Velocity: 56
Note ON: Time 251640, Note Name: C#4, Velocity: 56
Note ON: Time 251640, Note Name: D#4, Velocity: 56
Note ON: Time 251640, Note Name: G4, Velocity: 67
Note OFF: Time 251700, Note Name: G4
Note OFF: Time 251700, Note Name: A#3
Note OFF: Time 251700, Note Name: C#4
Note OFF: Time 251700, Note Name: D#4
Note ON: Time 251760, Note Name: A#3, Velocity: 60
Note ON: Time 251760, Note Name: C#4, Velocity: 60
Note ON: Time 251760, Note Name: D#4, Velocity: 60
Note ON: Time 251760, Note Name: G4, Velocity: 71
Note OFF: Time 251880, Note Name: G4
Note OFF: Time 251880, Note Name: A#3
Note OFF: Time 251880, Note Name: C#4
Note OFF: Time 251880, Note Name: D#4
Note ON: Time 251880, Note Name: A#3, Velocity: 51
Note ON: Time 251880, Note Name: C#4, Velocity: 51
Note ON: Time 251880, Note Name: D#4, Velocity: 51
Note ON: Time 251880, Note Name: G#4, Velocity: 60
Note OFF: Time 252000, Note Name: G#4
Note OFF: Time 252000, Note Name: A#3
Note OFF: Time 252000, Note Name: C#4
Note OFF: Time 252000, Note Name: D#4
Note ON: Time 252000, Note Name: A#3, Velocity: 55
Note ON: Time 252000, Note Name: C#4, Velocity: 55
Note ON: Time 252000, Note Name: D#4, Velocity: 55
Note ON: Time 252000, Note Name: F#4, Velocity: 65
Note OFF: Time 252120, Note Name: F#4
Note OFF: Time 252120, Note Name: A#3
Note OFF: Time 252120, Note Name: C#4
Note OFF: Time 252120, Note Name: D#4
Note ON: Time 252120, Note Name: A#3, Velocity: 58
Note ON: Time 252120, Note Name: C#4, Velocity: 58
Note ON: Time 252120, Note Name: D#4, Velocity: 58
Note ON: Time 252120, Note Name: G4, Velocity: 69
Note OFF: Time 252240, Note Name: G4
Note OFF: Time 252240, Note Name: A#3
Note OFF: Time 252240, Note Name: C#4
Note OFF: Time 252240, Note Name: D#4
Note ON: Time 252240, Note Name: A#3, Velocity: 61
Note ON: Time 252240, Note Name: C#4, Velocity: 61
Note ON: Time 252240, Note Name: D#4, Velocity: 61
Note ON: Time 252240, Note Name: G#4, Velocity: 72
Note OFF: Time 252480, Note Name: G#4
Note OFF: Time 252480, Note Name: A#3
Note OFF: Time 252480, Note Name: C#4
Note OFF: Time 252480, Note Name: D#4
Note ON: Time 252480, Note Name: A#3, Velocity: 59
Note ON: Time 252480, Note Name: C#4, Velocity: 59
Note ON: Time 252480, Note Name: D#4, Velocity: 59
Note ON: Time 252480, Note Name: A#4, Velocity: 70
Note OFF: Time 252720, Note Name: A#4
Note OFF: Time 252720, Note Name: A#3
Note OFF: Time 252720, Note Name: C#4
Note OFF: Time 252720, Note Name: D#4
Note ON: Time 252720, Note Name: G#1, Velocity: 70
Note ON: Time 252720, Note Name: G#2, Velocity: 84
Note OFF: Time 252840, Note Name: G#2
Note OFF: Time 252840, Note Name: G#1
Note ON: Time 252960, Note Name: D#2, Velocity: 67
Note ON: Time 252960, Note Name: D#3, Velocity: 79
Note OFF: Time 253080, Note Name: D#3
Note OFF: Time 253080, Note Name: D#2
Note ON: Time 253200, Note Name: G#3, Velocity: 77
Note ON: Time 253200, Note Name: G#2, Velocity: 64
Note OFF: Time 253320, Note Name: G#2
Note OFF: Time 253320, Note Name: G#3
Note ON: Time 253440, Note Name: D#3, Velocity: 72
Note ON: Time 253440, Note Name: D#4, Velocity: 85
Note OFF: Time 253500, Note Name: D#4
Note OFF: Time 253500, Note Name: D#3
Note ON: Time 253680, Note Name: G#3, Velocity: 73
Note ON: Time 253680, Note Name: G#4, Velocity: 86
Note OFF: Time 253800, Note Name: G#4
Note OFF: Time 253800, Note Name: G#3
Note ON: Time 253920, Note Name: D#4, Velocity: 61
Note ON: Time 253920, Note Name: D#5, Velocity: 73
Note OFF: Time 254040, Note Name: D#5
Note OFF: Time 254040, Note Name: D#4
Note ON: Time 254160, Note Name: G#1, Velocity: 70
Note ON: Time 254160, Note Name: G#2, Velocity: 84
Note OFF: Time 254280, Note Name: G#2
Note OFF: Time 254280, Note Name: G#1
Note ON: Time 254400, Note Name: D#2, Velocity: 67
Note ON: Time 254400, Note Name: D#3, Velocity: 79
Note OFF: Time 254520, Note Name: D#3
Note OFF: Time 254520, Note Name: D#2
Note ON: Time 254640, Note Name: G#3, Velocity: 77
Note ON: Time 254640, Note Name: G#2, Velocity: 64
Note OFF: Time 254760, Note Name: G#2
Note OFF: Time 254760, Note Name: G#3
Note ON: Time 254880, Note Name: D#3, Velocity: 72
Note ON: Time 254880, Note Name: D#4, Velocity: 85
Note OFF: Time 254940, Note Name: D#4
Note OFF: Time 254940, Note Name: D#3
Note ON: Time 255120, Note Name: G#3, Velocity: 73
Note ON: Time 255120, Note Name: G#4, Velocity: 86
Note OFF: Time 255240, Note Name: G#4
Note OFF: Time 255240, Note Name: G#3
Note ON: Time 255360, Note Name: D#4, Velocity: 61
Note ON: Time 255360, Note Name: D#5, Velocity: 73
Note OFF: Time 255480, Note Name: D#5
Note OFF: Time 255480, Note Name: D#4
Note ON: Time 255600, Note Name: G#1, Velocity: 70
Note ON: Time 255600, Note Name: G#2, Velocity: 84
Note OFF: Time 255720, Note Name: G#2
Note OFF: Time 255720, Note Name: G#1
Note ON: Time 255840, Note Name: D#2, Velocity: 67
Note ON: Time 255840, Note Name: D#3, Velocity: 79
Note OFF: Time 255960, Note Name: D#3
Note OFF: Time 255960, Note Name: D#2
Note ON: Time 256080, Note Name: G#3, Velocity: 77
Note ON: Time 256080, Note Name: G#2, Velocity: 64
Note OFF: Time 256200, Note Name: G#2
Note OFF: Time 256200, Note Name: G#3
Note ON: Time 256320, Note Name: D#3, Velocity: 72
Note ON: Time 256320, Note Name: D#4, Velocity: 85
Note OFF: Time 256380, Note Name: D#4
Note OFF: Time 256380, Note Name: D#3
Note ON: Time 256560, Note Name: G#3, Velocity: 73
Note ON: Time 256560, Note Name: G#4, Velocity: 86
Note OFF: Time 256680, Note Name: G#4
Note OFF: Time 256680, Note Name: G#3
Note ON: Time 256800, Note Name: D#3, Velocity: 61
Note ON: Time 256800, Note Name: D#4, Velocity: 73
Note OFF: Time 256920, Note Name: D#4
Note OFF: Time 256920, Note Name: D#3
Note ON: Time 257040, Note Name: G#2, Velocity: 70
Note ON: Time 257040, Note Name: G#3, Velocity: 84
Note OFF: Time 257160, Note Name: G#3
Note OFF: Time 257160, Note Name: G#2
Note ON: Time 257280, Note Name: D#2, Velocity: 67
Note ON: Time 257280, Note Name: D#3, Velocity: 79
Note OFF: Time 257400, Note Name: D#3
Note OFF: Time 257400, Note Name: D#2
Note ON: Time 257520, Note Name: G#1, Velocity: 71
Note ON: Time 257520, Note Name: G#2, Velocity: 84
Note OFF: Time 257580, Note Name: G#2
Note OFF: Time 257580, Note Name: G#1
Note ON: Time 257640, Note Name: G1, Velocity: 68
Note ON: Time 257640, Note Name: G2, Velocity: 80
Note OFF: Time 257700, Note Name: G2
Note OFF: Time 257700, Note Name: G1
Note ON: Time 257760, Note Name: F1, Velocity: 68
Note ON: Time 257760, Note Name: F2, Velocity: 81
Note OFF: Time 257820, Note Name: F2
Note OFF: Time 257820, Note Name: F1
Note ON: Time 257880, Note Name: D#1, Velocity: 68
Note ON: Time 257880, Note Name: D#2, Velocity: 81
Note OFF: Time 257940, Note Name: D#2
Note OFF: Time 257940, Note Name: D#1
Note ON: Time 258000, Note Name: G#1, Velocity: 64
Note ON: Time 258000, Note Name: G#2, Velocity: 77
Note OFF: Time 258060, Note Name: G#2
Note OFF: Time 258060, Note Name: G#1
Note ON: Time 258120, Note Name: G1, Velocity: 68
Note ON: Time 258120, Note Name: G2, Velocity: 80
Note OFF: Time 258180, Note Name: G2
Note OFF: Time 258180, Note Name: G1
Note ON: Time 258240, Note Name: F1, Velocity: 70
Note ON: Time 258240, Note Name: F2, Velocity: 83
Note OFF: Time 258300, Note Name: F2
Note OFF: Time 258300, Note Name: F1
Note ON: Time 258360, Note Name: D#1, Velocity: 73
Note ON: Time 258360, Note Name: D#2, Velocity: 86
Note OFF: Time 258420, Note Name: D#2
Note OFF: Time 258420, Note Name: D#1
Note ON: Time 258480, Note Name: G#1, Velocity: 74
Note ON: Time 258480, Note Name: G#2, Velocity: 89
Note OFF: Time 258720, Note Name: G#2
Note OFF: Time 258720, Note Name: G#1
Note ON: Time 259200, Note Name: C2, Velocity: 65
Note ON: Time 259200, Note Name: G2, Velocity: 65
Note ON: Time 259200, Note Name: C3, Velocity: 77
Note OFF: Time 259260, Note Name: C3
Note OFF: Time 259260, Note Name: G2
Note OFF: Time 259260, Note Name: C2
Note ON: Time 259320, Note Name: C2, Velocity: 61
Note ON: Time 259320, Note Name: G2, Velocity: 61
Note ON: Time 259320, Note Name: C3, Velocity: 72
Note OFF: Time 259380, Note Name: C3
Note OFF: Time 259380, Note Name: G2
Note OFF: Time 259380, Note Name: C2
Note ON: Time 259440, Note Name: C2, Velocity: 65
Note ON: Time 259440, Note Name: G2, Velocity: 65
Note ON: Time 259440, Note Name: C3, Velocity: 77
Note OFF: Time 259560, Note Name: C3
Note OFF: Time 259560, Note Name: G2
Note OFF: Time 259560, Note Name: C2
Note ON: Time 259680, Note Name: C2, Velocity: 60
Note ON: Time 259680, Note Name: G2, Velocity: 60
Note ON: Time 259680, Note Name: C3, Velocity: 71
Note OFF: Time 259800, Note Name: C3
Note OFF: Time 259800, Note Name: G2
Note OFF: Time 259800, Note Name: C2
Note ON: Time 259860, Note Name: C2, Velocity: 60
Note ON: Time 259890, Note Name: G2, Velocity: 60
Note ON: Time 259920, Note Name: C3, Velocity: 71
Note OFF: Time 260160, Note Name: C3
Note OFF: Time 260160, Note Name: G2
Note OFF: Time 260160, Note Name: C2
Note ON: Time 260340, Note Name: C2, Velocity: 60
Note ON: Time 260370, Note Name: G2, Velocity: 60
Note ON: Time 260400, Note Name: C3, Velocity: 71
Note OFF: Time 260640, Note Name: C3
Note OFF: Time 260640, Note Name: G2
Note OFF: Time 260640, Note Name: C2
Note ON: Time 260820, Note Name: D#2, Velocity: 60
Note ON: Time 260880, Note Name: A#2, Velocity: 71
Note OFF: Time 261120, Note Name: A#2
Note OFF: Time 261120, Note Name: D#2
Note ON: Time 261360, Note Name: G#1, Velocity: 67
Note ON: Time 261360, Note Name: G#2, Velocity: 79
Note OFF: Time 261600, Note Name: G#2
Note OFF: Time 261600, Note Name: G#1
Track 3: Chopin: Ballade in Ab major Op. 53
Track 4: Copyright  2003 by Bernd Krueger
Track 5: http://www.piano-midi.de
Track 6: Edition: 2014-02-27
Track 7: Spur 7
