Processing chpn_op25_e11.mid...

Track 0: Etüde Opus 25, No. 11
Track 1: Piano right
Note ON: Time 0, Note Name: E4, Velocity: 60
Note OFF: Time 480, Note Name: E4
Note ON: Time 480, Note Name: E4, Velocity: 60
Note OFF: Time 840, Note Name: E4
Note ON: Time 840, Note Name: E4, Velocity: 57
Note OFF: Time 960, Note Name: E4
Note ON: Time 960, Note Name: E4, Velocity: 60
Note OFF: Time 1440, Note Name: E4
Note ON: Time 1440, Note Name: F4, Velocity: 58
Note OFF: Time 1920, Note Name: F4
Note ON: Time 1920, Note Name: E4, Velocity: 60
Note OFF: Time 2400, Note Name: E4
Note ON: Time 2400, Note Name: C4, Velocity: 58
Note OFF: Time 2880, Note Name: C4
Note ON: Time 2880, Note Name: E4, Velocity: 60
Note OFF: Time 3840, Note Name: E4
Note ON: Time 3840, Note Name: E4, Velocity: 38
Note ON: Time 3840, Note Name: G3, Velocity: 28
Note ON: Time 3840, Note Name: C4, Velocity: 28
Note OFF: Time 4320, Note Name: C4
Note OFF: Time 4320, Note Name: G3
Note OFF: Time 4320, Note Name: E4
Note ON: Time 4320, Note Name: E4, Velocity: 38
Note ON: Time 4320, Note Name: G3, Velocity: 28
Note ON: Time 4320, Note Name: C4, Velocity: 28
Note OFF: Time 4680, Note Name: C4
Note OFF: Time 4680, Note Name: G3
Note OFF: Time 4680, Note Name: E4
Note ON: Time 4680, Note Name: G3, Velocity: 26
Note ON: Time 4680, Note Name: E4, Velocity: 36
Note ON: Time 4680, Note Name: C4, Velocity: 26
Note OFF: Time 4800, Note Name: C4
Note OFF: Time 4800, Note Name: E4
Note OFF: Time 4800, Note Name: G3
Note ON: Time 4800, Note Name: C4, Velocity: 28
Note ON: Time 4800, Note Name: G3, Velocity: 28
Note ON: Time 4800, Note Name: E4, Velocity: 38
Note OFF: Time 5280, Note Name: E4
Note OFF: Time 5280, Note Name: G3
Note OFF: Time 5280, Note Name: C4
Note ON: Time 5280, Note Name: F4, Velocity: 36
Note ON: Time 5280, Note Name: A3, Velocity: 26
Note ON: Time 5280, Note Name: C4, Velocity: 26
Note OFF: Time 5760, Note Name: C4
Note OFF: Time 5760, Note Name: A3
Note OFF: Time 5760, Note Name: F4
Note ON: Time 5760, Note Name: C4, Velocity: 26
Note ON: Time 5760, Note Name: G3, Velocity: 26
Note ON: Time 5760, Note Name: E4, Velocity: 36
Note OFF: Time 6240, Note Name: E4
Note OFF: Time 6240, Note Name: G3
Note OFF: Time 6240, Note Name: C4
Note ON: Time 6240, Note Name: A3, Velocity: 25
Note ON: Time 6240, Note Name: C4, Velocity: 34
Note OFF: Time 6720, Note Name: C4
Note OFF: Time 6720, Note Name: A3
Note ON: Time 6720, Note Name: C4, Velocity: 22
Note ON: Time 6720, Note Name: E4, Velocity: 31
Note ON: Time 6720, Note Name: G3, Velocity: 22
Note OFF: Time 7200, Note Name: G3
Note OFF: Time 7200, Note Name: C4
Note ON: Time 7200, Note Name: D4, Velocity: 19
Note ON: Time 7200, Note Name: G#3, Velocity: 19
Note ON: Time 7678, Note Name: F7, Velocity: 96
Note OFF: Time 7680, Note Name: G#3
Note OFF: Time 7680, Note Name: E4
Note OFF: Time 7680, Note Name: D4
Note OFF: Time 7758, Note Name: F7
Note ON: Time 7761, Note Name: C7, Velocity: 71
Note ON: Time 7839, Note Name: E7, Velocity: 91
Note OFF: Time 7841, Note Name: C7
Note OFF: Time 7919, Note Name: E7
Note ON: Time 7922, Note Name: A6, Velocity: 71
Note ON: Time 8001, Note Name: D#7, Velocity: 84
Note OFF: Time 8002, Note Name: A6
Note ON: Time 8080, Note Name: C7, Velocity: 71
Note OFF: Time 8081, Note Name: D#7
Note OFF: Time 8160, Note Name: C7
Note ON: Time 8160, Note Name: D7, Velocity: 82
Note OFF: Time 8240, Note Name: D7
Note ON: Time 8243, Note Name: A6, Velocity: 69
Note ON: Time 8322, Note Name: C#7, Velocity: 79
Note OFF: Time 8323, Note Name: A6
Note OFF: Time 8402, Note Name: C#7
Note ON: Time 8402, Note Name: A6, Velocity: 69
Note ON: Time 8479, Note Name: C7, Velocity: 79
Note OFF: Time 8482, Note Name: A6
Note OFF: Time 8559, Note Name: C7
Note ON: Time 8563, Note Name: E6, Velocity: 69
Note ON: Time 8642, Note Name: B6, Velocity: 78
Note OFF: Time 8643, Note Name: E6
Note ON: Time 8721, Note Name: E6, Velocity: 71
Note OFF: Time 8722, Note Name: B6
Note ON: Time 8799, Note Name: A#6, Velocity: 78
Note OFF: Time 8801, Note Name: E6
Note ON: Time 8878, Note Name: C6, Velocity: 71
Note OFF: Time 8879, Note Name: A#6
Note OFF: Time 8958, Note Name: C6
Note ON: Time 8958, Note Name: A6, Velocity: 78
Note OFF: Time 9038, Note Name: A6
Note ON: Time 9040, Note Name: E6, Velocity: 71
Note ON: Time 9118, Note Name: G#6, Velocity: 78
Note OFF: Time 9120, Note Name: E6
Note OFF: Time 9198, Note Name: G#6
Note ON: Time 9198, Note Name: C6, Velocity: 69
Note OFF: Time 9278, Note Name: C6
Note ON: Time 9283, Note Name: G6, Velocity: 71
Note ON: Time 9360, Note Name: C6, Velocity: 69
Note OFF: Time 9363, Note Name: G6
Note ON: Time 9438, Note Name: F#6, Velocity: 71
Note OFF: Time 9440, Note Name: C6
Note OFF: Time 9518, Note Name: F#6
Note ON: Time 9518, Note Name: A5, Velocity: 69
Note OFF: Time 9598, Note Name: A5
Note ON: Time 9598, Note Name: F6, Velocity: 78
Note OFF: Time 9678, Note Name: F6
Note ON: Time 9680, Note Name: C6, Velocity: 71
Note OFF: Time 9760, Note Name: C6
Note ON: Time 9761, Note Name: E6, Velocity: 78
Note OFF: Time 9841, Note Name: E6
Note ON: Time 9841, Note Name: A5, Velocity: 71
Note OFF: Time 9921, Note Name: A5
Note ON: Time 9921, Note Name: D#6, Velocity: 78
Note OFF: Time 10001, Note Name: D#6
Note ON: Time 10001, Note Name: C6, Velocity: 71
Note ON: Time 10078, Note Name: D6, Velocity: 78
Note OFF: Time 10081, Note Name: C6
Note OFF: Time 10158, Note Name: D6
Note ON: Time 10161, Note Name: A5, Velocity: 69
Note ON: Time 10240, Note Name: C#6, Velocity: 71
Note OFF: Time 10241, Note Name: A5
Note OFF: Time 10320, Note Name: C#6
Note ON: Time 10320, Note Name: A5, Velocity: 69
Note ON: Time 10398, Note Name: C6, Velocity: 71
Note OFF: Time 10400, Note Name: A5
Note OFF: Time 10478, Note Name: C6
Note ON: Time 10481, Note Name: E5, Velocity: 69
Note OFF: Time 10561, Note Name: E5
Note ON: Time 10562, Note Name: B5, Velocity: 71
Note OFF: Time 10642, Note Name: B5
Note ON: Time 10642, Note Name: E5, Velocity: 69
Note ON: Time 10721, Note Name: A#5, Velocity: 71
Note OFF: Time 10722, Note Name: E5
Note ON: Time 10799, Note Name: C5, Velocity: 69
Note OFF: Time 10801, Note Name: A#5
Note OFF: Time 10879, Note Name: C5
Note ON: Time 10883, Note Name: A5, Velocity: 71
Note ON: Time 10962, Note Name: E5, Velocity: 69
Note OFF: Time 10963, Note Name: A5
Note OFF: Time 11042, Note Name: E5
Note ON: Time 11043, Note Name: G#5, Velocity: 71
Note OFF: Time 11123, Note Name: G#5
Note ON: Time 11123, Note Name: C5, Velocity: 69
Note ON: Time 11201, Note Name: G5, Velocity: 71
Note OFF: Time 11203, Note Name: C5
Note ON: Time 11278, Note Name: C5, Velocity: 69
Note OFF: Time 11281, Note Name: G5
Note OFF: Time 11358, Note Name: C5
Note ON: Time 11360, Note Name: F#5, Velocity: 71
Note ON: Time 11439, Note Name: A4, Velocity: 69
Note OFF: Time 11440, Note Name: F#5
Note OFF: Time 11519, Note Name: A4
Note ON: Time 11523, Note Name: F5, Velocity: 56
Note ON: Time 11599, Note Name: C5, Velocity: 51
Note OFF: Time 11603, Note Name: F5
Note OFF: Time 11679, Note Name: C5
Note ON: Time 11682, Note Name: E5, Velocity: 56
Note OFF: Time 11762, Note Name: E5
Note ON: Time 11763, Note Name: A4, Velocity: 56
Note OFF: Time 11843, Note Name: A4
Note ON: Time 11843, Note Name: D#5, Velocity: 56
Note OFF: Time 11923, Note Name: D#5
Note ON: Time 11923, Note Name: C5, Velocity: 51
Note ON: Time 12001, Note Name: D5, Velocity: 56
Note OFF: Time 12003, Note Name: C5
Note ON: Time 12080, Note Name: A4, Velocity: 51
Note OFF: Time 12081, Note Name: D5
Note ON: Time 12159, Note Name: C#5, Velocity: 56
Note OFF: Time 12160, Note Name: A4
Note OFF: Time 12239, Note Name: C#5
Note ON: Time 12239, Note Name: A4, Velocity: 51
Note OFF: Time 12319, Note Name: A4
Note ON: Time 12323, Note Name: C5, Velocity: 56
Note ON: Time 12398, Note Name: E4, Velocity: 51
Note OFF: Time 12403, Note Name: C5
Note OFF: Time 12478, Note Name: E4
Note ON: Time 12480, Note Name: B4, Velocity: 56
Note ON: Time 12558, Note Name: E4, Velocity: 50
Note OFF: Time 12560, Note Name: B4
Note OFF: Time 12638, Note Name: E4
Note ON: Time 12642, Note Name: A#4, Velocity: 55
Note ON: Time 12718, Note Name: C4, Velocity: 49
Note OFF: Time 12722, Note Name: A#4
Note OFF: Time 12798, Note Name: C4
Note ON: Time 12798, Note Name: A4, Velocity: 53
Note OFF: Time 12878, Note Name: A4
Note ON: Time 12883, Note Name: E4, Velocity: 47
Note ON: Time 12959, Note Name: G#4, Velocity: 50
Note OFF: Time 12963, Note Name: E4
Note OFF: Time 13039, Note Name: G#4
Note ON: Time 13039, Note Name: C4, Velocity: 46
Note OFF: Time 13119, Note Name: C4
Note ON: Time 13121, Note Name: G4, Velocity: 49
Note OFF: Time 13201, Note Name: G4
Note ON: Time 13202, Note Name: C4, Velocity: 46
Note OFF: Time 13282, Note Name: C4
Note ON: Time 13283, Note Name: F#4, Velocity: 47
Note ON: Time 13362, Note Name: A3, Velocity: 45
Note OFF: Time 13363, Note Name: F#4
Note ON: Time 13440, Note Name: F4, Velocity: 47
Note OFF: Time 13442, Note Name: A3
Note ON: Time 13519, Note Name: C4, Velocity: 45
Note OFF: Time 13520, Note Name: F4
Note OFF: Time 13599, Note Name: C4
Note ON: Time 13602, Note Name: E4, Velocity: 47
Note ON: Time 13680, Note Name: A3, Velocity: 45
Note OFF: Time 13682, Note Name: E4
Note OFF: Time 13760, Note Name: A3
Note ON: Time 13760, Note Name: D#4, Velocity: 46
Note OFF: Time 13840, Note Name: D#4
Note ON: Time 13843, Note Name: C4, Velocity: 44
Note ON: Time 13922, Note Name: D4, Velocity: 45
Note OFF: Time 13923, Note Name: C4
Note ON: Time 13998, Note Name: A3, Velocity: 42
Note OFF: Time 14002, Note Name: D4
Note OFF: Time 14078, Note Name: A3
Note ON: Time 14081, Note Name: C#4, Velocity: 45
Note ON: Time 14160, Note Name: A3, Velocity: 40
Note OFF: Time 14161, Note Name: C#4
Note OFF: Time 14240, Note Name: A3
Note ON: Time 14242, Note Name: C4, Velocity: 44
Note ON: Time 14321, Note Name: E3, Velocity: 42
Note OFF: Time 14322, Note Name: C4
Note OFF: Time 14401, Note Name: E3
Note ON: Time 14401, Note Name: B3, Velocity: 44
Note ON: Time 14480, Note Name: E3, Velocity: 42
Note OFF: Time 14481, Note Name: B3
Note ON: Time 14558, Note Name: A#3, Velocity: 47
Note OFF: Time 14560, Note Name: E3
Note OFF: Time 14638, Note Name: A#3
Note ON: Time 14639, Note Name: C3, Velocity: 45
Note OFF: Time 14719, Note Name: C3
Note ON: Time 14720, Note Name: A3, Velocity: 49
Note OFF: Time 14800, Note Name: A3
Note ON: Time 14802, Note Name: E3, Velocity: 47
Note ON: Time 14881, Note Name: G#3, Velocity: 53
Note OFF: Time 14882, Note Name: E3
Note OFF: Time 14961, Note Name: G#3
Note ON: Time 14963, Note Name: C3, Velocity: 49
Note ON: Time 15042, Note Name: A3, Velocity: 56
Note OFF: Time 15043, Note Name: C3
Note ON: Time 15120, Note Name: E3, Velocity: 53
Note OFF: Time 15122, Note Name: A3
Note ON: Time 15199, Note Name: C4, Velocity: 59
Note OFF: Time 15200, Note Name: E3
Note OFF: Time 15279, Note Name: C4
Note ON: Time 15281, Note Name: F3, Velocity: 59
Note ON: Time 15360, Note Name: E4, Velocity: 59
Note OFF: Time 15361, Note Name: F3
Note ON: Time 15438, Note Name: B3, Velocity: 59
Note OFF: Time 15440, Note Name: E4
Note OFF: Time 15518, Note Name: B3
Note ON: Time 15522, Note Name: D4, Velocity: 59
Note ON: Time 15601, Note Name: F4, Velocity: 59
Note OFF: Time 15602, Note Name: D4
Note ON: Time 15678, Note Name: E5, Velocity: 59
Note OFF: Time 15681, Note Name: F4
Note OFF: Time 15758, Note Name: E5
Note ON: Time 15763, Note Name: B4, Velocity: 59
Note ON: Time 15838, Note Name: D5, Velocity: 62
Note OFF: Time 15843, Note Name: B4
Note OFF: Time 15918, Note Name: D5
Note ON: Time 15923, Note Name: F5, Velocity: 64
Note ON: Time 16002, Note Name: E6, Velocity: 67
Note OFF: Time 16003, Note Name: F5
Note ON: Time 16079, Note Name: B5, Velocity: 68
Note OFF: Time 16082, Note Name: E6
Note OFF: Time 16159, Note Name: B5
Note ON: Time 16160, Note Name: D6, Velocity: 69
Note ON: Time 16238, Note Name: F5, Velocity: 70
Note OFF: Time 16240, Note Name: D6
Note OFF: Time 16318, Note Name: F5
Note ON: Time 16323, Note Name: D6, Velocity: 69
Note ON: Time 16402, Note Name: A5, Velocity: 68
Note OFF: Time 16403, Note Name: D6
Note ON: Time 16478, Note Name: C6, Velocity: 67
Note OFF: Time 16482, Note Name: A5
Note OFF: Time 16558, Note Name: C6
Note ON: Time 16563, Note Name: F5, Velocity: 66
Note ON: Time 16642, Note Name: D5, Velocity: 64
Note OFF: Time 16643, Note Name: F5
Note ON: Time 16721, Note Name: A4, Velocity: 62
Note OFF: Time 16722, Note Name: D5
Note ON: Time 16799, Note Name: C5, Velocity: 58
Note OFF: Time 16801, Note Name: A4
Note OFF: Time 16879, Note Name: C5
Note ON: Time 16879, Note Name: F4, Velocity: 58
Note OFF: Time 16959, Note Name: F4
Note ON: Time 16962, Note Name: D4, Velocity: 58
Note ON: Time 17040, Note Name: A3, Velocity: 58
Note OFF: Time 17042, Note Name: D4
Note ON: Time 17118, Note Name: C4, Velocity: 58
Note OFF: Time 17120, Note Name: A3
Note OFF: Time 17198, Note Name: C4
Note ON: Time 17201, Note Name: F3, Velocity: 58
Note OFF: Time 17281, Note Name: F3
Note ON: Time 17282, Note Name: E4, Velocity: 59
Note ON: Time 17360, Note Name: B3, Velocity: 59
Note OFF: Time 17362, Note Name: E4
Note ON: Time 17439, Note Name: D4, Velocity: 59
Note OFF: Time 17440, Note Name: B3
Note OFF: Time 17519, Note Name: D4
Note ON: Time 17521, Note Name: F4, Velocity: 59
Note OFF: Time 17601, Note Name: F4
Note ON: Time 17602, Note Name: E5, Velocity: 59
Note OFF: Time 17682, Note Name: E5
Note ON: Time 17682, Note Name: B4, Velocity: 59
Note OFF: Time 17762, Note Name: B4
Note ON: Time 17762, Note Name: D5, Velocity: 64
Note ON: Time 17840, Note Name: F5, Velocity: 64
Note OFF: Time 17842, Note Name: D5
Note ON: Time 17918, Note Name: E6, Velocity: 66
Note OFF: Time 17920, Note Name: F5
Note OFF: Time 17998, Note Name: E6
Note ON: Time 18000, Note Name: B5, Velocity: 67
Note OFF: Time 18080, Note Name: B5
Note ON: Time 18083, Note Name: D6, Velocity: 69
Note ON: Time 18158, Note Name: E5, Velocity: 69
Note OFF: Time 18163, Note Name: D6
Note OFF: Time 18238, Note Name: E5
Note ON: Time 18241, Note Name: D6, Velocity: 67
Note OFF: Time 18321, Note Name: D6
Note ON: Time 18321, Note Name: A5, Velocity: 66
Note ON: Time 18400, Note Name: C6, Velocity: 64
Note OFF: Time 18401, Note Name: A5
Note ON: Time 18478, Note Name: E5, Velocity: 62
Note OFF: Time 18480, Note Name: C6
Note OFF: Time 18558, Note Name: E5
Note ON: Time 18563, Note Name: D5, Velocity: 61
Note OFF: Time 18643, Note Name: D5
Note ON: Time 18643, Note Name: A4, Velocity: 60
Note ON: Time 18721, Note Name: C5, Velocity: 59
Note OFF: Time 18723, Note Name: A4
Note ON: Time 18800, Note Name: E4, Velocity: 59
Note OFF: Time 18801, Note Name: C5
Note OFF: Time 18880, Note Name: E4
Note ON: Time 18880, Note Name: D4, Velocity: 59
Note OFF: Time 18960, Note Name: D4
Note ON: Time 18960, Note Name: A3, Velocity: 59
Note OFF: Time 19040, Note Name: A3
Note ON: Time 19043, Note Name: C4, Velocity: 59
Note ON: Time 19119, Note Name: B3, Velocity: 59
Note OFF: Time 19123, Note Name: C4
Note OFF: Time 19199, Note Name: B3
Note ON: Time 19200, Note Name: A4, Velocity: 59
Note ON: Time 19279, Note Name: E4, Velocity: 58
Note OFF: Time 19280, Note Name: A4
Note OFF: Time 19359, Note Name: E4
Note ON: Time 19363, Note Name: G#4, Velocity: 58
Note ON: Time 19439, Note Name: B4, Velocity: 58
Note OFF: Time 19443, Note Name: G#4
Note OFF: Time 19519, Note Name: B4
Note ON: Time 19522, Note Name: A5, Velocity: 58
Note ON: Time 19601, Note Name: E5, Velocity: 58
Note OFF: Time 19602, Note Name: A5
Note ON: Time 19679, Note Name: G#5, Velocity: 58
Note OFF: Time 19681, Note Name: E5
Note OFF: Time 19759, Note Name: G#5
Note ON: Time 19762, Note Name: B5, Velocity: 57
Note OFF: Time 19842, Note Name: B5
Note ON: Time 19843, Note Name: A6, Velocity: 58
Note ON: Time 19920, Note Name: E6, Velocity: 59
Note OFF: Time 19923, Note Name: A6
Note OFF: Time 20000, Note Name: E6
Note ON: Time 20001, Note Name: G#6, Velocity: 59
Note OFF: Time 20081, Note Name: G#6
Note ON: Time 20083, Note Name: B5, Velocity: 59
Note ON: Time 20158, Note Name: G#6, Velocity: 60
Note OFF: Time 20163, Note Name: B5
Note OFF: Time 20238, Note Name: G#6
Note ON: Time 20243, Note Name: D#6, Velocity: 60
Note ON: Time 20321, Note Name: F#6, Velocity: 59
Note OFF: Time 20323, Note Name: D#6
Note ON: Time 20398, Note Name: B5, Velocity: 59
Note OFF: Time 20401, Note Name: F#6
Note OFF: Time 20478, Note Name: B5
Note ON: Time 20481, Note Name: G#5, Velocity: 59
Note ON: Time 20559, Note Name: D#5, Velocity: 58
Note OFF: Time 20561, Note Name: G#5
Note OFF: Time 20639, Note Name: D#5
Note ON: Time 20643, Note Name: F#5, Velocity: 55
Note ON: Time 20721, Note Name: B4, Velocity: 55
Note OFF: Time 20723, Note Name: F#5
Note OFF: Time 20801, Note Name: B4
Note ON: Time 20801, Note Name: G#4, Velocity: 55
Note ON: Time 20879, Note Name: D#4, Velocity: 55
Note OFF: Time 20881, Note Name: G#4
Note OFF: Time 20959, Note Name: D#4
Note ON: Time 20963, Note Name: F#4, Velocity: 55
Note ON: Time 21038, Note Name: B3, Velocity: 55
Note OFF: Time 21043, Note Name: F#4
Note OFF: Time 21118, Note Name: B3
Note ON: Time 21118, Note Name: A4, Velocity: 55
Note OFF: Time 21198, Note Name: A4
Note ON: Time 21202, Note Name: E4, Velocity: 55
Note ON: Time 21279, Note Name: G#4, Velocity: 55
Note OFF: Time 21282, Note Name: E4
Note OFF: Time 21359, Note Name: G#4
Note ON: Time 21363, Note Name: B4, Velocity: 55
Note ON: Time 21439, Note Name: A5, Velocity: 55
Note OFF: Time 21443, Note Name: B4
Note OFF: Time 21519, Note Name: A5
Note ON: Time 21520, Note Name: E5, Velocity: 55
Note ON: Time 21598, Note Name: G#5, Velocity: 55
Note OFF: Time 21600, Note Name: E5
Note OFF: Time 21678, Note Name: G#5
Note ON: Time 21682, Note Name: B5, Velocity: 59
Note OFF: Time 21762, Note Name: B5
Note ON: Time 21763, Note Name: A6, Velocity: 59
Note ON: Time 21842, Note Name: E6, Velocity: 59
Note OFF: Time 21843, Note Name: A6
Note ON: Time 21921, Note Name: G#6, Velocity: 59
Note OFF: Time 21922, Note Name: E6
Note OFF: Time 22001, Note Name: G#6
Note ON: Time 22002, Note Name: B5, Velocity: 59
Note ON: Time 22080, Note Name: E7, Velocity: 81
Note OFF: Time 22082, Note Name: B5
Note OFF: Time 22320, Note Name: E7
Note ON: Time 23039, Note Name: F7, Velocity: 94
Note ON: Time 23118, Note Name: C7, Velocity: 69
Note OFF: Time 23119, Note Name: F7
Note OFF: Time 23198, Note Name: C7
Note ON: Time 23198, Note Name: E7, Velocity: 90
Note OFF: Time 23278, Note Name: E7
Note ON: Time 23278, Note Name: A6, Velocity: 69
Note OFF: Time 23358, Note Name: A6
Note ON: Time 23362, Note Name: D#7, Velocity: 84
Note OFF: Time 23442, Note Name: D#7
Note ON: Time 23443, Note Name: C7, Velocity: 69
Note ON: Time 23519, Note Name: D7, Velocity: 82
Note OFF: Time 23523, Note Name: C7
Note ON: Time 23598, Note Name: A6, Velocity: 67
Note OFF: Time 23599, Note Name: D7
Note OFF: Time 23678, Note Name: A6
Note ON: Time 23681, Note Name: C#7, Velocity: 79
Note ON: Time 23758, Note Name: A6, Velocity: 67
Note OFF: Time 23761, Note Name: C#7
Note OFF: Time 23838, Note Name: A6
Note ON: Time 23838, Note Name: C7, Velocity: 78
Note OFF: Time 23918, Note Name: C7
Note ON: Time 23920, Note Name: E6, Velocity: 67
Note OFF: Time 24000, Note Name: E6
Note ON: Time 24002, Note Name: B6, Velocity: 77
Note OFF: Time 24082, Note Name: B6
Note ON: Time 24082, Note Name: E6, Velocity: 69
Note ON: Time 24161, Note Name: A#6, Velocity: 75
Note OFF: Time 24162, Note Name: E6
Note ON: Time 24238, Note Name: C6, Velocity: 69
Note OFF: Time 24241, Note Name: A#6
Note OFF: Time 24318, Note Name: C6
Note ON: Time 24320, Note Name: A6, Velocity: 73
Note ON: Time 24399, Note Name: E6, Velocity: 69
Note OFF: Time 24400, Note Name: A6
Note OFF: Time 24479, Note Name: E6
Note ON: Time 24482, Note Name: G#6, Velocity: 73
Note ON: Time 24559, Note Name: C6, Velocity: 67
Note OFF: Time 24562, Note Name: G#6
Note OFF: Time 24639, Note Name: C6
Note ON: Time 24640, Note Name: G6, Velocity: 69
Note ON: Time 24719, Note Name: C6, Velocity: 67
Note OFF: Time 24720, Note Name: G6
Note OFF: Time 24799, Note Name: C6
Note ON: Time 24801, Note Name: F#6, Velocity: 69
Note OFF: Time 24881, Note Name: F#6
Note ON: Time 24881, Note Name: A5, Velocity: 67
Note OFF: Time 24961, Note Name: A5
Note ON: Time 24961, Note Name: F6, Velocity: 73
Note ON: Time 25038, Note Name: C6, Velocity: 69
Note OFF: Time 25041, Note Name: F6
Note OFF: Time 25118, Note Name: C6
Note ON: Time 25121, Note Name: E6, Velocity: 73
Note OFF: Time 25201, Note Name: E6
Note ON: Time 25203, Note Name: A5, Velocity: 69
Note ON: Time 25282, Note Name: D#6, Velocity: 73
Note OFF: Time 25283, Note Name: A5
Note OFF: Time 25362, Note Name: D#6
Note ON: Time 25363, Note Name: C6, Velocity: 69
Note ON: Time 25439, Note Name: D6, Velocity: 73
Note OFF: Time 25443, Note Name: C6
Note OFF: Time 25519, Note Name: D6
Note ON: Time 25520, Note Name: A5, Velocity: 67
Note ON: Time 25599, Note Name: C#6, Velocity: 69
Note OFF: Time 25600, Note Name: A5
Note OFF: Time 25679, Note Name: C#6
Note ON: Time 25683, Note Name: A5, Velocity: 67
Note ON: Time 25760, Note Name: C6, Velocity: 69
Note OFF: Time 25763, Note Name: A5
Note OFF: Time 25840, Note Name: C6
Note ON: Time 25843, Note Name: E5, Velocity: 67
Note ON: Time 25918, Note Name: B5, Velocity: 69
Note OFF: Time 25923, Note Name: E5
Note OFF: Time 25998, Note Name: B5
Note ON: Time 26001, Note Name: E5, Velocity: 67
Note ON: Time 26078, Note Name: A#5, Velocity: 69
Note OFF: Time 26081, Note Name: E5
Note OFF: Time 26158, Note Name: A#5
Note ON: Time 26160, Note Name: C5, Velocity: 67
Note OFF: Time 26240, Note Name: C5
Note ON: Time 26243, Note Name: A5, Velocity: 69
Note ON: Time 26318, Note Name: E5, Velocity: 67
Note OFF: Time 26323, Note Name: A5
Note OFF: Time 26398, Note Name: E5
Note ON: Time 26403, Note Name: G#5, Velocity: 69
Note ON: Time 26479, Note Name: C5, Velocity: 67
Note OFF: Time 26483, Note Name: G#5
Note OFF: Time 26559, Note Name: C5
Note ON: Time 26559, Note Name: G5, Velocity: 69
Note OFF: Time 26639, Note Name: G5
Note ON: Time 26642, Note Name: C5, Velocity: 67
Note ON: Time 26720, Note Name: F#5, Velocity: 69
Note OFF: Time 26722, Note Name: C5
Note ON: Time 26799, Note Name: A4, Velocity: 67
Note OFF: Time 26800, Note Name: F#5
Note OFF: Time 26879, Note Name: A4
Note ON: Time 26881, Note Name: F5, Velocity: 56
Note OFF: Time 26961, Note Name: F5
Note ON: Time 26961, Note Name: A#4, Velocity: 56
Note ON: Time 27040, Note Name: E5, Velocity: 56
Note OFF: Time 27041, Note Name: A#4
Note OFF: Time 27120, Note Name: E5
Note ON: Time 27120, Note Name: G4, Velocity: 51
Note OFF: Time 27200, Note Name: G4
Note ON: Time 27201, Note Name: D#5, Velocity: 56
Note OFF: Time 27281, Note Name: D#5
Note ON: Time 27281, Note Name: A#4, Velocity: 51
Note OFF: Time 27361, Note Name: A#4
Note ON: Time 27363, Note Name: D5, Velocity: 56
Note ON: Time 27442, Note Name: G4, Velocity: 51
Note OFF: Time 27443, Note Name: D5
Note ON: Time 27521, Note Name: C#5, Velocity: 56
Note OFF: Time 27522, Note Name: G4
Note OFF: Time 27601, Note Name: C#5
Note ON: Time 27602, Note Name: A#4, Velocity: 51
Note ON: Time 27681, Note Name: C5, Velocity: 56
Note OFF: Time 27682, Note Name: A#4
Note ON: Time 27760, Note Name: G4, Velocity: 51
Note OFF: Time 27761, Note Name: C5
Note ON: Time 27839, Note Name: B4, Velocity: 56
Note OFF: Time 27840, Note Name: G4
Note OFF: Time 27919, Note Name: B4
Note ON: Time 27922, Note Name: G4, Velocity: 50
Note ON: Time 28001, Note Name: A#4, Velocity: 55
Note OFF: Time 28002, Note Name: G4
Note OFF: Time 28081, Note Name: A#4
Note ON: Time 28083, Note Name: E4, Velocity: 49
Note ON: Time 28159, Note Name: A4, Velocity: 53
Note OFF: Time 28163, Note Name: E4
Note OFF: Time 28239, Note Name: A4
Note ON: Time 28239, Note Name: C4, Velocity: 47
Note OFF: Time 28319, Note Name: C4
Note ON: Time 28321, Note Name: G#4, Velocity: 50
Note OFF: Time 28401, Note Name: G#4
Note ON: Time 28402, Note Name: A#3, Velocity: 46
Note ON: Time 28481, Note Name: G4, Velocity: 49
Note OFF: Time 28482, Note Name: A#3
Note ON: Time 28560, Note Name: C4, Velocity: 46
Note OFF: Time 28561, Note Name: G4
Note OFF: Time 28640, Note Name: C4
Note ON: Time 28640, Note Name: F#4, Velocity: 47
Note ON: Time 28718, Note Name: A#3, Velocity: 45
Note OFF: Time 28720, Note Name: F#4
Note OFF: Time 28798, Note Name: A#3
Note ON: Time 28802, Note Name: F4, Velocity: 47
Note ON: Time 28881, Note Name: C4, Velocity: 45
Note OFF: Time 28882, Note Name: F4
Note OFF: Time 28961, Note Name: C4
Note ON: Time 28961, Note Name: E4, Velocity: 47
Note OFF: Time 29041, Note Name: E4
Note ON: Time 29042, Note Name: A#3, Velocity: 45
Note OFF: Time 29122, Note Name: A#3
Note ON: Time 29122, Note Name: D#4, Velocity: 46
Note ON: Time 29198, Note Name: C4, Velocity: 44
Note OFF: Time 29202, Note Name: D#4
Note OFF: Time 29278, Note Name: C4
Note ON: Time 29281, Note Name: D4, Velocity: 45
Note OFF: Time 29361, Note Name: D4
Note ON: Time 29363, Note Name: G3, Velocity: 42
Note OFF: Time 29443, Note Name: G3
Note ON: Time 29443, Note Name: C#4, Velocity: 45
Note ON: Time 29521, Note Name: A#3, Velocity: 40
Note OFF: Time 29523, Note Name: C#4
Note OFF: Time 29601, Note Name: A#3
Note ON: Time 29602, Note Name: C4, Velocity: 44
Note ON: Time 29678, Note Name: G3, Velocity: 39
Note OFF: Time 29682, Note Name: C4
Note OFF: Time 29758, Note Name: G3
Note ON: Time 29762, Note Name: B3, Velocity: 44
Note OFF: Time 29842, Note Name: B3
Note ON: Time 29843, Note Name: G3, Velocity: 42
Note ON: Time 29919, Note Name: C4, Velocity: 47
Note OFF: Time 29923, Note Name: G3
Note OFF: Time 29999, Note Name: C4
Note ON: Time 30001, Note Name: A#3, Velocity: 45
Note ON: Time 30079, Note Name: C#4, Velocity: 49
Note OFF: Time 30081, Note Name: A#3
Note OFF: Time 30159, Note Name: C#4
Note ON: Time 30159, Note Name: G3, Velocity: 47
Note ON: Time 30238, Note Name: D4, Velocity: 53
Note OFF: Time 30239, Note Name: G3
Note OFF: Time 30318, Note Name: D4
Note ON: Time 30323, Note Name: A#3, Velocity: 49
Note OFF: Time 30403, Note Name: A#3
Note ON: Time 30403, Note Name: D#4, Velocity: 56
Note ON: Time 30482, Note Name: G3, Velocity: 53
Note OFF: Time 30483, Note Name: D#4
Note ON: Time 30558, Note Name: E4, Velocity: 59
Note OFF: Time 30562, Note Name: G3
Note OFF: Time 30638, Note Name: E4
Note ON: Time 30639, Note Name: A#3, Velocity: 56
Note ON: Time 30718, Note Name: A4, Velocity: 59
Note OFF: Time 30719, Note Name: A#3
Note OFF: Time 30798, Note Name: A4
Note ON: Time 30798, Note Name: E4, Velocity: 59
Note OFF: Time 30878, Note Name: E4
Note ON: Time 30881, Note Name: G4, Velocity: 59
Note OFF: Time 30961, Note Name: G4
Note ON: Time 30962, Note Name: A#4, Velocity: 59
Note ON: Time 31041, Note Name: A5, Velocity: 59
Note OFF: Time 31042, Note Name: A#4
Note ON: Time 31120, Note Name: E5, Velocity: 59
Note OFF: Time 31121, Note Name: A5
Note OFF: Time 31200, Note Name: E5
Note ON: Time 31200, Note Name: G5, Velocity: 59
Note ON: Time 31279, Note Name: A#5, Velocity: 59
Note OFF: Time 31280, Note Name: G5
Note OFF: Time 31359, Note Name: A#5
Note ON: Time 31360, Note Name: A6, Velocity: 60
Note OFF: Time 31440, Note Name: A6
Note ON: Time 31441, Note Name: E6, Velocity: 62
Note ON: Time 31518, Note Name: G6, Velocity: 64
Note OFF: Time 31521, Note Name: E6
Note OFF: Time 31598, Note Name: G6
Note ON: Time 31599, Note Name: A#5, Velocity: 66
Note OFF: Time 31679, Note Name: A#5
Note ON: Time 31682, Note Name: A6, Velocity: 67
Note ON: Time 31759, Note Name: D#6, Velocity: 67
Note OFF: Time 31762, Note Name: A6
Note OFF: Time 31839, Note Name: D#6
Note ON: Time 31842, Note Name: G6, Velocity: 66
Note OFF: Time 31922, Note Name: G6
Note ON: Time 31923, Note Name: A#5, Velocity: 64
Note OFF: Time 32003, Note Name: A#5
Note ON: Time 32003, Note Name: A5, Velocity: 64
Note ON: Time 32082, Note Name: D#5, Velocity: 62
Note OFF: Time 32083, Note Name: A5
Note ON: Time 32159, Note Name: G5, Velocity: 62
Note OFF: Time 32162, Note Name: D#5
Note OFF: Time 32239, Note Name: G5
Note ON: Time 32243, Note Name: A#4, Velocity: 59
Note ON: Time 32318, Note Name: A4, Velocity: 59
Note OFF: Time 32323, Note Name: A#4
Note OFF: Time 32398, Note Name: A4
Note ON: Time 32398, Note Name: D#4, Velocity: 59
Note OFF: Time 32478, Note Name: D#4
Note ON: Time 32482, Note Name: G4, Velocity: 59
Note ON: Time 32561, Note Name: A#3, Velocity: 59
Note OFF: Time 32562, Note Name: G4
Note OFF: Time 32641, Note Name: A#3
Note ON: Time 32641, Note Name: A4, Velocity: 59
Note OFF: Time 32721, Note Name: A4
Note ON: Time 32723, Note Name: D4, Velocity: 59
Note ON: Time 32798, Note Name: G4, Velocity: 59
Note OFF: Time 32803, Note Name: D4
Note OFF: Time 32878, Note Name: G4
Note ON: Time 32883, Note Name: A#4, Velocity: 59
Note ON: Time 32961, Note Name: A5, Velocity: 59
Note OFF: Time 32963, Note Name: A#4
Note ON: Time 33039, Note Name: D5, Velocity: 59
Note OFF: Time 33041, Note Name: A5
Note ON: Time 33118, Note Name: G5, Velocity: 59
Note OFF: Time 33119, Note Name: D5
Note OFF: Time 33198, Note Name: G5
Note ON: Time 33201, Note Name: A#5, Velocity: 59
Note ON: Time 33279, Note Name: A6, Velocity: 60
Note OFF: Time 33281, Note Name: A#5
Note OFF: Time 33359, Note Name: A6
Note ON: Time 33359, Note Name: D6, Velocity: 62
Note OFF: Time 33439, Note Name: D6
Note ON: Time 33443, Note Name: G6, Velocity: 66
Note ON: Time 33521, Note Name: A#5, Velocity: 68
Note OFF: Time 33523, Note Name: G6
Note OFF: Time 33601, Note Name: A#5
Note ON: Time 33601, Note Name: A6, Velocity: 69
Note ON: Time 33678, Note Name: C#6, Velocity: 69
Note OFF: Time 33681, Note Name: A6
Note OFF: Time 33758, Note Name: C#6
Note ON: Time 33760, Note Name: G6, Velocity: 68
Note OFF: Time 33840, Note Name: G6
Note ON: Time 33840, Note Name: A#5, Velocity: 67
Note OFF: Time 33920, Note Name: A#5
Note ON: Time 33920, Note Name: A5, Velocity: 66
Note OFF: Time 34000, Note Name: A5
Note ON: Time 34002, Note Name: C#5, Velocity: 64
Note ON: Time 34081, Note Name: G5, Velocity: 59
Note OFF: Time 34082, Note Name: C#5
Note ON: Time 34160, Note Name: A#4, Velocity: 59
Note OFF: Time 34161, Note Name: G5
Note OFF: Time 34240, Note Name: A#4
Note ON: Time 34242, Note Name: A4, Velocity: 59
Note ON: Time 34321, Note Name: C#4, Velocity: 59
Note OFF: Time 34322, Note Name: A4
Note OFF: Time 34401, Note Name: C#4
Note ON: Time 34401, Note Name: G4, Velocity: 59
Note ON: Time 34480, Note Name: A#3, Velocity: 59
Note OFF: Time 34481, Note Name: G4
Note ON: Time 34558, Note Name: A4, Velocity: 59
Note OFF: Time 34560, Note Name: A#3
Note OFF: Time 34638, Note Name: A4
Note ON: Time 34642, Note Name: C4, Velocity: 59
Note ON: Time 34718, Note Name: G4, Velocity: 59
Note OFF: Time 34722, Note Name: C4
Note OFF: Time 34798, Note Name: G4
Note ON: Time 34801, Note Name: A#3, Velocity: 59
Note OFF: Time 34881, Note Name: A#3
Note ON: Time 34883, Note Name: C5, Velocity: 59
Note ON: Time 34960, Note Name: A4, Velocity: 59
Note OFF: Time 34963, Note Name: C5
Note OFF: Time 35040, Note Name: A4
Note ON: Time 35042, Note Name: A#4, Velocity: 61
Note ON: Time 35120, Note Name: G4, Velocity: 62
Note OFF: Time 35122, Note Name: A#4
Note OFF: Time 35200, Note Name: G4
Note ON: Time 35200, Note Name: A5, Velocity: 64
Note OFF: Time 35280, Note Name: A5
Note ON: Time 35282, Note Name: C5, Velocity: 64
Note ON: Time 35361, Note Name: G5, Velocity: 64
Note OFF: Time 35362, Note Name: C5
Note ON: Time 35440, Note Name: A#4, Velocity: 64
Note OFF: Time 35441, Note Name: G5
Note OFF: Time 35520, Note Name: A#4
Note ON: Time 35523, Note Name: C6, Velocity: 64
Note ON: Time 35601, Note Name: A5, Velocity: 64
Note OFF: Time 35603, Note Name: C6
Note ON: Time 35679, Note Name: A#5, Velocity: 62
Note OFF: Time 35681, Note Name: A5
Note OFF: Time 35759, Note Name: A#5
Note ON: Time 35760, Note Name: G5, Velocity: 61
Note ON: Time 35838, Note Name: A6, Velocity: 61
Note OFF: Time 35840, Note Name: G5
Note OFF: Time 35918, Note Name: A6
Note ON: Time 35922, Note Name: C6, Velocity: 60
Note OFF: Time 36002, Note Name: C6
Note ON: Time 36003, Note Name: G6, Velocity: 59
Note ON: Time 36081, Note Name: A#5, Velocity: 59
Note OFF: Time 36083, Note Name: G6
Note ON: Time 36158, Note Name: C7, Velocity: 59
Note OFF: Time 36161, Note Name: A#5
Note OFF: Time 36238, Note Name: C7
Note ON: Time 36239, Note Name: A6, Velocity: 59
Note ON: Time 36318, Note Name: A#6, Velocity: 59
Note OFF: Time 36319, Note Name: A6
Note OFF: Time 36398, Note Name: A#6
Note ON: Time 36401, Note Name: G6, Velocity: 59
Note ON: Time 36478, Note Name: D7, Velocity: 59
Note OFF: Time 36481, Note Name: G6
Note OFF: Time 36558, Note Name: D7
Note ON: Time 36563, Note Name: A6, Velocity: 59
Note OFF: Time 36643, Note Name: A6
Note ON: Time 36643, Note Name: C7, Velocity: 59
Note ON: Time 36721, Note Name: F6, Velocity: 59
Note OFF: Time 36723, Note Name: C7
Note OFF: Time 36801, Note Name: F6
Note ON: Time 36802, Note Name: G#6, Velocity: 59
Note OFF: Time 36882, Note Name: G#6
Note ON: Time 36883, Note Name: F6, Velocity: 59
Note ON: Time 36958, Note Name: A6, Velocity: 59
Note OFF: Time 36963, Note Name: F6
Note OFF: Time 37038, Note Name: A6
Note ON: Time 37038, Note Name: C6, Velocity: 59
Note OFF: Time 37118, Note Name: C6
Note ON: Time 37122, Note Name: E6, Velocity: 59
Note ON: Time 37201, Note Name: C6, Velocity: 59
Note OFF: Time 37202, Note Name: E6
Note ON: Time 37279, Note Name: F6, Velocity: 59
Note OFF: Time 37281, Note Name: C6
Note ON: Time 37358, Note Name: A5, Velocity: 59
Note OFF: Time 37359, Note Name: F6
Note OFF: Time 37438, Note Name: A5
Note ON: Time 37439, Note Name: C#6, Velocity: 59
Note OFF: Time 37519, Note Name: C#6
Note ON: Time 37521, Note Name: A5, Velocity: 59
Note ON: Time 37600, Note Name: D6, Velocity: 59
Note OFF: Time 37601, Note Name: A5
Note ON: Time 37679, Note Name: F5, Velocity: 59
Note OFF: Time 37680, Note Name: D6
Note OFF: Time 37759, Note Name: F5
Note ON: Time 37760, Note Name: G#5, Velocity: 59
Note OFF: Time 37840, Note Name: G#5
Note ON: Time 37841, Note Name: F5, Velocity: 59
Note OFF: Time 37921, Note Name: F5
Note ON: Time 37922, Note Name: A5, Velocity: 59
Note OFF: Time 38002, Note Name: A5
Note ON: Time 38002, Note Name: D5, Velocity: 59
Note ON: Time 38081, Note Name: E5, Velocity: 59
Note OFF: Time 38082, Note Name: D5
Note OFF: Time 38161, Note Name: E5
Note ON: Time 38161, Note Name: D5, Velocity: 59
Note OFF: Time 38241, Note Name: D5
Note ON: Time 38242, Note Name: F5, Velocity: 59
Note OFF: Time 38322, Note Name: F5
Note ON: Time 38323, Note Name: A4, Velocity: 59
Note ON: Time 38398, Note Name: E5, Velocity: 59
Note OFF: Time 38403, Note Name: A4
Note OFF: Time 38478, Note Name: E5
Note ON: Time 38481, Note Name: B4, Velocity: 59
Note ON: Time 38560, Note Name: D5, Velocity: 59
Note OFF: Time 38561, Note Name: B4
Note ON: Time 38639, Note Name: F5, Velocity: 59
Note OFF: Time 38640, Note Name: D5
Note ON: Time 38718, Note Name: E6, Velocity: 59
Note OFF: Time 38719, Note Name: F5
Note OFF: Time 38798, Note Name: E6
Note ON: Time 38803, Note Name: B5, Velocity: 59
Note ON: Time 38878, Note Name: D6, Velocity: 55
Note OFF: Time 38883, Note Name: B5
Note OFF: Time 38958, Note Name: D6
Note ON: Time 38960, Note Name: F6, Velocity: 53
Note OFF: Time 39040, Note Name: F6
Note ON: Time 39041, Note Name: E7, Velocity: 55
Note ON: Time 39119, Note Name: B6, Velocity: 56
Note OFF: Time 39121, Note Name: E7
Note OFF: Time 39199, Note Name: B6
Note ON: Time 39201, Note Name: D7, Velocity: 57
Note ON: Time 39279, Note Name: F6, Velocity: 58
Note OFF: Time 39281, Note Name: D7
Note OFF: Time 39359, Note Name: F6
Note ON: Time 39359, Note Name: A6, Velocity: 57
Note ON: Time 39438, Note Name: F6, Velocity: 57
Note OFF: Time 39439, Note Name: A6
Note OFF: Time 39518, Note Name: F6
Note ON: Time 39522, Note Name: G6, Velocity: 56
Note ON: Time 39598, Note Name: B5, Velocity: 56
Note OFF: Time 39602, Note Name: G6
Note OFF: Time 39678, Note Name: B5
Note ON: Time 39679, Note Name: A5, Velocity: 55
Note OFF: Time 39759, Note Name: A5
Note ON: Time 39762, Note Name: F5, Velocity: 55
Note OFF: Time 39842, Note Name: F5
Note ON: Time 39843, Note Name: G5, Velocity: 55
Note ON: Time 39922, Note Name: B4, Velocity: 59
Note OFF: Time 39923, Note Name: G5
Note OFF: Time 40002, Note Name: B4
Note ON: Time 40002, Note Name: E6, Velocity: 59
Note ON: Time 40081, Note Name: G5, Velocity: 59
Note OFF: Time 40082, Note Name: E6
Note ON: Time 40160, Note Name: D6, Velocity: 59
Note OFF: Time 40161, Note Name: G5
Note OFF: Time 40240, Note Name: D6
Note ON: Time 40243, Note Name: F5, Velocity: 59
Note ON: Time 40319, Note Name: B5, Velocity: 59
Note OFF: Time 40323, Note Name: F5
Note OFF: Time 40399, Note Name: B5
Note ON: Time 40403, Note Name: G5, Velocity: 59
Note ON: Time 40479, Note Name: C6, Velocity: 59
Note OFF: Time 40483, Note Name: G5
Note OFF: Time 40559, Note Name: C6
Note ON: Time 40559, Note Name: E5, Velocity: 59
Note OFF: Time 40639, Note Name: E5
Note ON: Time 40641, Note Name: D#6, Velocity: 59
Note OFF: Time 40721, Note Name: D#6
Note ON: Time 40723, Note Name: C6, Velocity: 59
Note ON: Time 40798, Note Name: E6, Velocity: 59
Note OFF: Time 40803, Note Name: C6
Note OFF: Time 40878, Note Name: E6
Note ON: Time 40878, Note Name: G5, Velocity: 59
Note OFF: Time 40958, Note Name: G5
Note ON: Time 40961, Note Name: F#6, Velocity: 59
Note ON: Time 41040, Note Name: E6, Velocity: 55
Note OFF: Time 41041, Note Name: F#6
Note ON: Time 41118, Note Name: G6, Velocity: 59
Note OFF: Time 41120, Note Name: E6
Note OFF: Time 41198, Note Name: G6
Note ON: Time 41199, Note Name: C6, Velocity: 55
Note OFF: Time 41279, Note Name: C6
Note ON: Time 41283, Note Name: A#6, Velocity: 59
Note ON: Time 41359, Note Name: G6, Velocity: 51
Note OFF: Time 41363, Note Name: A#6
Note ON: Time 41438, Note Name: B6, Velocity: 58
Note OFF: Time 41439, Note Name: G6
Note OFF: Time 41518, Note Name: B6
Note ON: Time 41518, Note Name: E6, Velocity: 55
Note OFF: Time 41598, Note Name: E6
Note ON: Time 41603, Note Name: C7, Velocity: 59
Note ON: Time 41678, Note Name: G6, Velocity: 58
Note OFF: Time 41683, Note Name: C7
Note OFF: Time 41758, Note Name: G6
Note ON: Time 41758, Note Name: C#7, Velocity: 61
Note OFF: Time 41838, Note Name: C#7
Note ON: Time 41838, Note Name: E6, Velocity: 59
Note OFF: Time 41918, Note Name: E6
Note ON: Time 41920, Note Name: D7, Velocity: 64
Note OFF: Time 42000, Note Name: D7
Note ON: Time 42003, Note Name: G6, Velocity: 62
Note ON: Time 42080, Note Name: D#7, Velocity: 69
Note OFF: Time 42083, Note Name: G6
Note OFF: Time 42160, Note Name: D#7
Note ON: Time 42160, Note Name: E6, Velocity: 67
Note OFF: Time 42240, Note Name: E6
Note ON: Time 42243, Note Name: E7, Velocity: 89
Note OFF: Time 42323, Note Name: E7
Note ON: Time 42323, Note Name: B6, Velocity: 64
Note ON: Time 42401, Note Name: D#7, Velocity: 75
Note OFF: Time 42403, Note Name: B6
Note OFF: Time 42481, Note Name: D#7
Note ON: Time 42483, Note Name: G6, Velocity: 64
Note ON: Time 42562, Note Name: D7, Velocity: 73
Note OFF: Time 42563, Note Name: G6
Note ON: Time 42640, Note Name: B6, Velocity: 64
Note OFF: Time 42642, Note Name: D7
Note ON: Time 42719, Note Name: C#7, Velocity: 61
Note OFF: Time 42720, Note Name: B6
Note ON: Time 42798, Note Name: G6, Velocity: 59
Note OFF: Time 42799, Note Name: C#7
Note OFF: Time 42878, Note Name: G6
Note ON: Time 42881, Note Name: C7, Velocity: 61
Note OFF: Time 42961, Note Name: C7
Note ON: Time 42963, Note Name: G6, Velocity: 59
Note ON: Time 43040, Note Name: B6, Velocity: 61
Note OFF: Time 43043, Note Name: G6
Note ON: Time 43119, Note Name: E6, Velocity: 59
Note OFF: Time 43120, Note Name: B6
Note OFF: Time 43199, Note Name: E6
Note ON: Time 43201, Note Name: A#6, Velocity: 69
Note ON: Time 43279, Note Name: G6, Velocity: 64
Note OFF: Time 43281, Note Name: A#6
Note OFF: Time 43359, Note Name: G6
Note ON: Time 43362, Note Name: A6, Velocity: 69
Note OFF: Time 43442, Note Name: A6
Note ON: Time 43443, Note Name: E6, Velocity: 64
Note ON: Time 43520, Note Name: G#6, Velocity: 69
Note OFF: Time 43523, Note Name: E6
Note OFF: Time 43600, Note Name: G#6
Note ON: Time 43603, Note Name: E6, Velocity: 64
Note ON: Time 43678, Note Name: G6, Velocity: 69
Note OFF: Time 43683, Note Name: E6
Note OFF: Time 43758, Note Name: G6
Note ON: Time 43763, Note Name: C6, Velocity: 59
Note ON: Time 43841, Note Name: F#6, Velocity: 61
Note OFF: Time 43843, Note Name: C6
Note OFF: Time 43921, Note Name: F#6
Note ON: Time 43922, Note Name: C6, Velocity: 59
Note ON: Time 44001, Note Name: F6, Velocity: 61
Note OFF: Time 44002, Note Name: C6
Note ON: Time 44078, Note Name: G5, Velocity: 59
Note OFF: Time 44081, Note Name: F6
Note OFF: Time 44158, Note Name: G5
Note ON: Time 44159, Note Name: E6, Velocity: 69
Note OFF: Time 44239, Note Name: E6
Note ON: Time 44240, Note Name: B5, Velocity: 64
Note ON: Time 44318, Note Name: D#6, Velocity: 69
Note OFF: Time 44320, Note Name: B5
Note OFF: Time 44398, Note Name: D#6
Note ON: Time 44400, Note Name: G5, Velocity: 64
Note ON: Time 44478, Note Name: D6, Velocity: 69
Note OFF: Time 44480, Note Name: G5
Note OFF: Time 44558, Note Name: D6
Note ON: Time 44561, Note Name: B5, Velocity: 64
Note OFF: Time 44641, Note Name: B5
Note ON: Time 44643, Note Name: C#6, Velocity: 61
Note ON: Time 44718, Note Name: G5, Velocity: 59
Note OFF: Time 44723, Note Name: C#6
Note OFF: Time 44798, Note Name: G5
Note ON: Time 44802, Note Name: C6, Velocity: 61
Note ON: Time 44881, Note Name: G5, Velocity: 59
Note OFF: Time 44882, Note Name: C6
Note OFF: Time 44961, Note Name: G5
Note ON: Time 44962, Note Name: B5, Velocity: 61
Note OFF: Time 45042, Note Name: B5
Note ON: Time 45042, Note Name: E5, Velocity: 59
Note ON: Time 45121, Note Name: A#5, Velocity: 69
Note OFF: Time 45122, Note Name: E5
Note OFF: Time 45201, Note Name: A#5
Note ON: Time 45202, Note Name: G5, Velocity: 64
Note ON: Time 45278, Note Name: A5, Velocity: 69
Note OFF: Time 45282, Note Name: G5
Note OFF: Time 45358, Note Name: A5
Note ON: Time 45362, Note Name: E5, Velocity: 64
Note OFF: Time 45442, Note Name: E5
Note ON: Time 45442, Note Name: G#5, Velocity: 69
Note OFF: Time 45522, Note Name: G#5
Note ON: Time 45522, Note Name: E5, Velocity: 64
Note ON: Time 45598, Note Name: G5, Velocity: 69
Note OFF: Time 45602, Note Name: E5
Note OFF: Time 45678, Note Name: G5
Note ON: Time 45683, Note Name: B4, Velocity: 59
Note ON: Time 45761, Note Name: F#5, Velocity: 61
Note OFF: Time 45763, Note Name: B4
Note OFF: Time 45841, Note Name: F#5
Note ON: Time 45842, Note Name: B4, Velocity: 59
Note ON: Time 45918, Note Name: F5, Velocity: 61
Note OFF: Time 45922, Note Name: B4
Note OFF: Time 45998, Note Name: F5
Note ON: Time 46001, Note Name: G4, Velocity: 59
Note OFF: Time 46081, Note Name: G4
Note ON: Time 46083, Note Name: E5, Velocity: 59
Note ON: Time 46158, Note Name: B4, Velocity: 55
Note OFF: Time 46163, Note Name: E5
Note OFF: Time 46238, Note Name: B4
Note ON: Time 46239, Note Name: D#5, Velocity: 59
Note ON: Time 46318, Note Name: G4, Velocity: 55
Note OFF: Time 46319, Note Name: D#5
Note OFF: Time 46398, Note Name: G4
Note ON: Time 46403, Note Name: D5, Velocity: 59
Note ON: Time 46481, Note Name: B4, Velocity: 55
Note OFF: Time 46483, Note Name: D5
Note ON: Time 46559, Note Name: C#5, Velocity: 59
Note OFF: Time 46561, Note Name: B4
Note OFF: Time 46639, Note Name: C#5
Note ON: Time 46643, Note Name: G4, Velocity: 55
Note ON: Time 46720, Note Name: C5, Velocity: 59
Note OFF: Time 46723, Note Name: G4
Note OFF: Time 46800, Note Name: C5
Note ON: Time 46802, Note Name: G4, Velocity: 55
Note ON: Time 46879, Note Name: B4, Velocity: 59
Note OFF: Time 46882, Note Name: G4
Note ON: Time 46958, Note Name: E4, Velocity: 55
Note OFF: Time 46959, Note Name: B4
Note OFF: Time 47038, Note Name: E4
Note ON: Time 47039, Note Name: A#4, Velocity: 59
Note OFF: Time 47119, Note Name: A#4
Note ON: Time 47121, Note Name: G4, Velocity: 55
Note OFF: Time 47201, Note Name: G4
Note ON: Time 47203, Note Name: A4, Velocity: 59
Note ON: Time 47278, Note Name: E4, Velocity: 55
Note OFF: Time 47283, Note Name: A4
Note OFF: Time 47358, Note Name: E4
Note ON: Time 47363, Note Name: G#4, Velocity: 59
Note ON: Time 47440, Note Name: E4, Velocity: 55
Note OFF: Time 47443, Note Name: G#4
Note ON: Time 47518, Note Name: G4, Velocity: 59
Note OFF: Time 47520, Note Name: E4
Note OFF: Time 47598, Note Name: G4
Note ON: Time 47602, Note Name: C4, Velocity: 55
Note ON: Time 47679, Note Name: F#4, Velocity: 59
Note OFF: Time 47682, Note Name: C4
Note OFF: Time 47759, Note Name: F#4
Note ON: Time 47763, Note Name: C4, Velocity: 55
Note ON: Time 47842, Note Name: F4, Velocity: 59
Note OFF: Time 47843, Note Name: C4
Note OFF: Time 47922, Note Name: F4
Note ON: Time 47923, Note Name: G3, Velocity: 55
Note ON: Time 47999, Note Name: E4, Velocity: 55
Note OFF: Time 48003, Note Name: G3
Note OFF: Time 48079, Note Name: E4
Note ON: Time 48080, Note Name: B3, Velocity: 50
Note ON: Time 48158, Note Name: D#4, Velocity: 53
Note OFF: Time 48160, Note Name: B3
Note OFF: Time 48238, Note Name: D#4
Note ON: Time 48242, Note Name: G3, Velocity: 47
Note ON: Time 48318, Note Name: D4, Velocity: 50
Note OFF: Time 48322, Note Name: G3
Note OFF: Time 48398, Note Name: D4
Note ON: Time 48400, Note Name: B3, Velocity: 46
Note ON: Time 48479, Note Name: C#4, Velocity: 49
Note OFF: Time 48480, Note Name: B3
Note OFF: Time 48559, Note Name: C#4
Note ON: Time 48563, Note Name: G3, Velocity: 45
Note ON: Time 48638, Note Name: C4, Velocity: 47
Note OFF: Time 48643, Note Name: G3
Note OFF: Time 48718, Note Name: C4
Note ON: Time 48719, Note Name: G3, Velocity: 45
Note OFF: Time 48799, Note Name: G3
Note ON: Time 48799, Note Name: B3, Velocity: 46
Note OFF: Time 48879, Note Name: B3
Note ON: Time 48879, Note Name: E3, Velocity: 42
Note ON: Time 48958, Note Name: A#3, Velocity: 45
Note OFF: Time 48959, Note Name: E3
Note OFF: Time 49038, Note Name: A#3
Note ON: Time 49041, Note Name: G3, Velocity: 45
Note OFF: Time 49121, Note Name: G3
Note ON: Time 49123, Note Name: A3, Velocity: 47
Note OFF: Time 49203, Note Name: A3
Note ON: Time 49203, Note Name: B2, Velocity: 45
Note ON: Time 49279, Note Name: G#3, Velocity: 47
Note OFF: Time 49283, Note Name: B2
Note OFF: Time 49359, Note Name: G#3
Note ON: Time 49362, Note Name: E3, Velocity: 46
Note ON: Time 49441, Note Name: G3, Velocity: 49
Note OFF: Time 49442, Note Name: E3
Note OFF: Time 49521, Note Name: G3
Note ON: Time 49521, Note Name: B2, Velocity: 46
Note OFF: Time 49601, Note Name: B2
Note ON: Time 49603, Note Name: F#3, Velocity: 49
Note ON: Time 49680, Note Name: E3, Velocity: 46
Note OFF: Time 49683, Note Name: F#3
Note OFF: Time 49760, Note Name: E3
Note ON: Time 49763, Note Name: G3, Velocity: 50
Note ON: Time 49841, Note Name: C3, Velocity: 50
Note OFF: Time 49843, Note Name: G3
Note ON: Time 49918, Note Name: B3, Velocity: 59
Note OFF: Time 49921, Note Name: C3
Note OFF: Time 49998, Note Name: B3
Note ON: Time 50001, Note Name: F#3, Velocity: 59
Note OFF: Time 50081, Note Name: F#3
Note ON: Time 50081, Note Name: A3, Velocity: 59
Note ON: Time 50160, Note Name: C4, Velocity: 59
Note OFF: Time 50161, Note Name: A3
Note OFF: Time 50240, Note Name: C4
Note ON: Time 50243, Note Name: B4, Velocity: 59
Note ON: Time 50321, Note Name: F#4, Velocity: 59
Note OFF: Time 50323, Note Name: B4
Note OFF: Time 50401, Note Name: F#4
Note ON: Time 50401, Note Name: A4, Velocity: 62
Note OFF: Time 50481, Note Name: A4
Note ON: Time 50481, Note Name: C5, Velocity: 66
Note ON: Time 50559, Note Name: B5, Velocity: 67
Note OFF: Time 50561, Note Name: C5
Note OFF: Time 50639, Note Name: B5
Note ON: Time 50640, Note Name: F#5, Velocity: 69
Note OFF: Time 50720, Note Name: F#5
Note ON: Time 50720, Note Name: A5, Velocity: 69
Note ON: Time 50798, Note Name: C5, Velocity: 69
Note OFF: Time 50800, Note Name: A5
Note OFF: Time 50878, Note Name: C5
Note ON: Time 50882, Note Name: A5, Velocity: 68
Note ON: Time 50959, Note Name: E5, Velocity: 67
Note OFF: Time 50962, Note Name: A5
Note ON: Time 51038, Note Name: G5, Velocity: 66
Note OFF: Time 51039, Note Name: E5
Note OFF: Time 51118, Note Name: G5
Note ON: Time 51120, Note Name: C5, Velocity: 62
Note OFF: Time 51200, Note Name: C5
Note ON: Time 51201, Note Name: A4, Velocity: 61
Note ON: Time 51278, Note Name: E4, Velocity: 60
Note OFF: Time 51281, Note Name: A4
Note OFF: Time 51358, Note Name: E4
Note ON: Time 51359, Note Name: G4, Velocity: 58
Note ON: Time 51438, Note Name: C4, Velocity: 58
Note OFF: Time 51439, Note Name: G4
Note OFF: Time 51518, Note Name: C4
Note ON: Time 51521, Note Name: A3, Velocity: 58
Note ON: Time 51600, Note Name: E3, Velocity: 58
Note OFF: Time 51601, Note Name: A3
Note OFF: Time 51680, Note Name: E3
Note ON: Time 51681, Note Name: G3, Velocity: 58
Note OFF: Time 51761, Note Name: G3
Note ON: Time 51762, Note Name: C3, Velocity: 58
Note ON: Time 51840, Note Name: B3, Velocity: 59
Note OFF: Time 51842, Note Name: C3
Note OFF: Time 51920, Note Name: B3
Note ON: Time 51922, Note Name: F#3, Velocity: 59
Note ON: Time 52000, Note Name: A3, Velocity: 59
Note OFF: Time 52002, Note Name: F#3
Note OFF: Time 52080, Note Name: A3
Note ON: Time 52083, Note Name: C4, Velocity: 59
Note ON: Time 52161, Note Name: B4, Velocity: 59
Note OFF: Time 52163, Note Name: C4
Note ON: Time 52239, Note Name: F#4, Velocity: 59
Note OFF: Time 52241, Note Name: B4
Note OFF: Time 52319, Note Name: F#4
Note ON: Time 52323, Note Name: A4, Velocity: 64
Note OFF: Time 52403, Note Name: A4
Note ON: Time 52403, Note Name: C5, Velocity: 66
Note ON: Time 52480, Note Name: B5, Velocity: 67
Note OFF: Time 52483, Note Name: C5
Note OFF: Time 52560, Note Name: B5
Note ON: Time 52563, Note Name: F#5, Velocity: 68
Note ON: Time 52639, Note Name: A5, Velocity: 69
Note OFF: Time 52643, Note Name: F#5
Note OFF: Time 52719, Note Name: A5
Note ON: Time 52723, Note Name: B4, Velocity: 70
Note ON: Time 52801, Note Name: A5, Velocity: 70
Note OFF: Time 52803, Note Name: B4
Note ON: Time 52880, Note Name: E5, Velocity: 69
Note OFF: Time 52881, Note Name: A5
Note OFF: Time 52960, Note Name: E5
Note ON: Time 52961, Note Name: G5, Velocity: 68
Note OFF: Time 53041, Note Name: G5
Note ON: Time 53042, Note Name: B4, Velocity: 67
Note ON: Time 53118, Note Name: A4, Velocity: 66
Note OFF: Time 53122, Note Name: B4
Note OFF: Time 53198, Note Name: A4
Note ON: Time 53199, Note Name: E4, Velocity: 64
Note OFF: Time 53279, Note Name: E4
Note ON: Time 53279, Note Name: G4, Velocity: 59
Note OFF: Time 53359, Note Name: G4
Note ON: Time 53360, Note Name: B3, Velocity: 59
Note OFF: Time 53440, Note Name: B3
Note ON: Time 53443, Note Name: A3, Velocity: 59
Note ON: Time 53522, Note Name: E3, Velocity: 59
Note OFF: Time 53523, Note Name: A3
Note OFF: Time 53602, Note Name: E3
Note ON: Time 53602, Note Name: G3, Velocity: 59
Note OFF: Time 53682, Note Name: G3
Note ON: Time 53683, Note Name: F#3, Velocity: 59
Note ON: Time 53760, Note Name: E4, Velocity: 59
Note OFF: Time 53763, Note Name: F#3
Note OFF: Time 53840, Note Name: E4
Note ON: Time 53840, Note Name: B3, Velocity: 58
Note OFF: Time 53920, Note Name: B3
Note ON: Time 53923, Note Name: D#4, Velocity: 58
Note ON: Time 53999, Note Name: F#4, Velocity: 58
Note OFF: Time 54003, Note Name: D#4
Note OFF: Time 54079, Note Name: F#4
Note ON: Time 54080, Note Name: E5, Velocity: 58
Note OFF: Time 54160, Note Name: E5
Note ON: Time 54161, Note Name: B4, Velocity: 58
Note ON: Time 54240, Note Name: D#5, Velocity: 58
Note OFF: Time 54241, Note Name: B4
Note OFF: Time 54320, Note Name: D#5
Note ON: Time 54322, Note Name: F#5, Velocity: 58
Note OFF: Time 54402, Note Name: F#5
Note ON: Time 54402, Note Name: E6, Velocity: 59
Note OFF: Time 54482, Note Name: E6
Note ON: Time 54482, Note Name: B5, Velocity: 59
Note OFF: Time 54562, Note Name: B5
Note ON: Time 54562, Note Name: D#6, Velocity: 61
Note ON: Time 54638, Note Name: F#5, Velocity: 62
Note OFF: Time 54642, Note Name: D#6
Note OFF: Time 54718, Note Name: F#5
Note ON: Time 54719, Note Name: D#6, Velocity: 64
Note OFF: Time 54799, Note Name: D#6
Note ON: Time 54799, Note Name: A#5, Velocity: 64
Note OFF: Time 54879, Note Name: A#5
Note ON: Time 54882, Note Name: C#6, Velocity: 61
Note OFF: Time 54962, Note Name: C#6
Note ON: Time 54963, Note Name: F#5, Velocity: 60
Note ON: Time 55040, Note Name: D#5, Velocity: 59
Note OFF: Time 55043, Note Name: F#5
Note OFF: Time 55120, Note Name: D#5
Note ON: Time 55121, Note Name: A#4, Velocity: 59
Note ON: Time 55198, Note Name: C#5, Velocity: 55
Note OFF: Time 55201, Note Name: A#4
Note OFF: Time 55278, Note Name: C#5
Note ON: Time 55283, Note Name: F#4, Velocity: 55
Note ON: Time 55359, Note Name: D#4, Velocity: 55
Note OFF: Time 55363, Note Name: F#4
Note OFF: Time 55439, Note Name: D#4
Note ON: Time 55441, Note Name: A#3, Velocity: 55
Note OFF: Time 55521, Note Name: A#3
Note ON: Time 55521, Note Name: C#4, Velocity: 55
Note ON: Time 55600, Note Name: F#3, Velocity: 55
Note OFF: Time 55601, Note Name: C#4
Note OFF: Time 55680, Note Name: F#3
Note ON: Time 55682, Note Name: D#4, Velocity: 55
Note ON: Time 55758, Note Name: B3, Velocity: 55
Note OFF: Time 55762, Note Name: D#4
Note OFF: Time 55838, Note Name: B3
Note ON: Time 55838, Note Name: D#4, Velocity: 55
Note OFF: Time 55918, Note Name: D#4
Note ON: Time 55918, Note Name: F#4, Velocity: 55
Note OFF: Time 55998, Note Name: F#4
Note ON: Time 55998, Note Name: E5, Velocity: 55
Note OFF: Time 56078, Note Name: E5
Note ON: Time 56080, Note Name: B4, Velocity: 55
Note ON: Time 56159, Note Name: D#5, Velocity: 55
Note OFF: Time 56160, Note Name: B4
Note OFF: Time 56239, Note Name: D#5
Note ON: Time 56242, Note Name: F#5, Velocity: 59
Note ON: Time 56318, Note Name: E6, Velocity: 59
Note OFF: Time 56322, Note Name: F#5
Note OFF: Time 56398, Note Name: E6
Note ON: Time 56400, Note Name: B5, Velocity: 59
Note ON: Time 56478, Note Name: D#6, Velocity: 59
Note OFF: Time 56480, Note Name: B5
Note OFF: Time 56558, Note Name: D#6
Note ON: Time 56562, Note Name: F#5, Velocity: 59
Note ON: Time 56640, Note Name: B6, Velocity: 83
Note OFF: Time 56642, Note Name: F#5
Note OFF: Time 56880, Note Name: B6
Note ON: Time 57602, Note Name: C7, Velocity: 94
Note ON: Time 57679, Note Name: G6, Velocity: 70
Note OFF: Time 57682, Note Name: C7
Note OFF: Time 57759, Note Name: G6
Note ON: Time 57762, Note Name: B6, Velocity: 90
Note ON: Time 57841, Note Name: E6, Velocity: 70
Note OFF: Time 57842, Note Name: B6
Note OFF: Time 57921, Note Name: E6
Note ON: Time 57921, Note Name: A#6, Velocity: 88
Note OFF: Time 58001, Note Name: A#6
Note ON: Time 58001, Note Name: G6, Velocity: 70
Note ON: Time 58078, Note Name: A6, Velocity: 85
Note OFF: Time 58081, Note Name: G6
Note OFF: Time 58158, Note Name: A6
Note ON: Time 58161, Note Name: E6, Velocity: 68
Note ON: Time 58238, Note Name: G#6, Velocity: 84
Note OFF: Time 58241, Note Name: E6
Note OFF: Time 58318, Note Name: G#6
Note ON: Time 58323, Note Name: E6, Velocity: 68
Note ON: Time 58400, Note Name: G6, Velocity: 80
Note OFF: Time 58403, Note Name: E6
Note OFF: Time 58480, Note Name: G6
Note ON: Time 58483, Note Name: B5, Velocity: 68
Note ON: Time 58562, Note Name: F#6, Velocity: 81
Note OFF: Time 58563, Note Name: B5
Note ON: Time 58641, Note Name: B5, Velocity: 70
Note OFF: Time 58642, Note Name: F#6
Note OFF: Time 58721, Note Name: B5
Note ON: Time 58722, Note Name: F6, Velocity: 77
Note OFF: Time 58802, Note Name: F6
Note ON: Time 58802, Note Name: G5, Velocity: 70
Note ON: Time 58880, Note Name: E6, Velocity: 77
Note OFF: Time 58882, Note Name: G5
Note OFF: Time 58960, Note Name: E6
Note ON: Time 58960, Note Name: B5, Velocity: 70
Note ON: Time 59038, Note Name: D#6, Velocity: 77
Note OFF: Time 59040, Note Name: B5
Note OFF: Time 59118, Note Name: D#6
Note ON: Time 59122, Note Name: G5, Velocity: 68
Note ON: Time 59199, Note Name: D6, Velocity: 73
Note OFF: Time 59202, Note Name: G5
Note ON: Time 59278, Note Name: G5, Velocity: 68
Note OFF: Time 59279, Note Name: D6
Note OFF: Time 59358, Note Name: G5
Note ON: Time 59359, Note Name: C#6, Velocity: 70
Note OFF: Time 59439, Note Name: C#6
Note ON: Time 59442, Note Name: E5, Velocity: 68
Note ON: Time 59519, Note Name: C6, Velocity: 77
Note OFF: Time 59522, Note Name: E5
Note OFF: Time 59599, Note Name: C6
Note ON: Time 59599, Note Name: G5, Velocity: 70
Note OFF: Time 59679, Note Name: G5
Note ON: Time 59680, Note Name: B5, Velocity: 77
Note ON: Time 59758, Note Name: E5, Velocity: 70
Note OFF: Time 59760, Note Name: B5
Note OFF: Time 59838, Note Name: E5
Note ON: Time 59840, Note Name: A#5, Velocity: 77
Note OFF: Time 59920, Note Name: A#5
Note ON: Time 59921, Note Name: G5, Velocity: 70
Note OFF: Time 60001, Note Name: G5
Note ON: Time 60001, Note Name: A5, Velocity: 77
Note OFF: Time 60081, Note Name: A5
Note ON: Time 60082, Note Name: E5, Velocity: 68
Note ON: Time 60160, Note Name: G#5, Velocity: 70
Note OFF: Time 60162, Note Name: E5
Note OFF: Time 60240, Note Name: G#5
Note ON: Time 60240, Note Name: E5, Velocity: 68
Note OFF: Time 60320, Note Name: E5
Note ON: Time 60323, Note Name: G5, Velocity: 70
Note OFF: Time 60403, Note Name: G5
Note ON: Time 60403, Note Name: B4, Velocity: 70
Note ON: Time 60481, Note Name: F#5, Velocity: 70
Note OFF: Time 60483, Note Name: B4
Note OFF: Time 60561, Note Name: F#5
Note ON: Time 60563, Note Name: B4, Velocity: 68
Note ON: Time 60638, Note Name: F5, Velocity: 70
Note OFF: Time 60643, Note Name: B4
Note OFF: Time 60718, Note Name: F5
Note ON: Time 60721, Note Name: G4, Velocity: 68
Note OFF: Time 60801, Note Name: G4
Note ON: Time 60803, Note Name: E5, Velocity: 70
Note ON: Time 60880, Note Name: B4, Velocity: 68
Note OFF: Time 60883, Note Name: E5
Note ON: Time 60959, Note Name: D#5, Velocity: 70
Note OFF: Time 60960, Note Name: B4
Note OFF: Time 61039, Note Name: D#5
Note ON: Time 61039, Note Name: G4, Velocity: 68
Note ON: Time 61118, Note Name: D5, Velocity: 70
Note OFF: Time 61119, Note Name: G4
Note OFF: Time 61198, Note Name: D5
Note ON: Time 61201, Note Name: G4, Velocity: 68
Note ON: Time 61280, Note Name: C#5, Velocity: 70
Note OFF: Time 61281, Note Name: G4
Note ON: Time 61358, Note Name: E4, Velocity: 68
Note OFF: Time 61360, Note Name: C#5
Note OFF: Time 61438, Note Name: E4
Note ON: Time 61438, Note Name: C5, Velocity: 61
Note OFF: Time 61518, Note Name: C5
Note ON: Time 61520, Note Name: G4, Velocity: 59
Note OFF: Time 61600, Note Name: G4
Note ON: Time 61603, Note Name: B4, Velocity: 61
Note OFF: Time 61683, Note Name: B4
Note ON: Time 61683, Note Name: E4, Velocity: 59
Note ON: Time 61760, Note Name: A#4, Velocity: 61
Note OFF: Time 61763, Note Name: E4
Note OFF: Time 61840, Note Name: A#4
Note ON: Time 61842, Note Name: G4, Velocity: 59
Note ON: Time 61921, Note Name: A4, Velocity: 61
Note OFF: Time 61922, Note Name: G4
Note OFF: Time 62001, Note Name: A4
Note ON: Time 62002, Note Name: E4, Velocity: 59
Note OFF: Time 62082, Note Name: E4
Note ON: Time 62083, Note Name: G#4, Velocity: 61
Note ON: Time 62161, Note Name: E4, Velocity: 59
Note OFF: Time 62163, Note Name: G#4
Note OFF: Time 62241, Note Name: E4
Note ON: Time 62241, Note Name: G4, Velocity: 61
Note ON: Time 62318, Note Name: B3, Velocity: 59
Note OFF: Time 62321, Note Name: G4
Note OFF: Time 62398, Note Name: B3
Note ON: Time 62402, Note Name: F#4, Velocity: 61
Note ON: Time 62480, Note Name: B3, Velocity: 58
Note OFF: Time 62482, Note Name: F#4
Note OFF: Time 62560, Note Name: B3
Note ON: Time 62561, Note Name: F4, Velocity: 60
Note OFF: Time 62641, Note Name: F4
Note ON: Time 62641, Note Name: G3, Velocity: 56
Note OFF: Time 62721, Note Name: G3
Note ON: Time 62721, Note Name: E4, Velocity: 59
Note OFF: Time 62801, Note Name: E4
Note ON: Time 62802, Note Name: B3, Velocity: 55
Note OFF: Time 62882, Note Name: B3
Note ON: Time 62882, Note Name: D#4, Velocity: 59
Note ON: Time 62960, Note Name: F#3, Velocity: 53
Note OFF: Time 62962, Note Name: D#4
Note ON: Time 63038, Note Name: D4, Velocity: 56
Note OFF: Time 63040, Note Name: F#3
Note OFF: Time 63118, Note Name: D4
Note ON: Time 63119, Note Name: G3, Velocity: 51
Note OFF: Time 63199, Note Name: G3
Note ON: Time 63200, Note Name: C#4, Velocity: 55
Note ON: Time 63279, Note Name: F3, Velocity: 49
Note OFF: Time 63280, Note Name: C#4
Note OFF: Time 63359, Note Name: F3
Note ON: Time 63362, Note Name: C4, Velocity: 55
Note ON: Time 63440, Note Name: G3, Velocity: 50
Note OFF: Time 63442, Note Name: C4
Note OFF: Time 63520, Note Name: G3
Note ON: Time 63523, Note Name: B3, Velocity: 53
Note ON: Time 63598, Note Name: F3, Velocity: 49
Note OFF: Time 63603, Note Name: B3
Note OFF: Time 63678, Note Name: F3
Note ON: Time 63682, Note Name: A#3, Velocity: 50
Note ON: Time 63761, Note Name: G3, Velocity: 47
Note OFF: Time 63762, Note Name: A#3
Note OFF: Time 63841, Note Name: G3
Note ON: Time 63843, Note Name: A3, Velocity: 49
Note ON: Time 63919, Note Name: D3, Velocity: 46
Note OFF: Time 63923, Note Name: A3
Note OFF: Time 63999, Note Name: D3
Note ON: Time 64001, Note Name: G#3, Velocity: 49
Note OFF: Time 64081, Note Name: G#3
Note ON: Time 64083, Note Name: F3, Velocity: 46
Note ON: Time 64162, Note Name: G3, Velocity: 49
Note OFF: Time 64163, Note Name: F3
Note OFF: Time 64242, Note Name: G3
Note ON: Time 64243, Note Name: B2, Velocity: 45
Note ON: Time 64319, Note Name: F#3, Velocity: 49
Note OFF: Time 64323, Note Name: B2
Note OFF: Time 64399, Note Name: F#3
Note ON: Time 64403, Note Name: F3, Velocity: 46
Note ON: Time 64482, Note Name: G3, Velocity: 53
Note OFF: Time 64483, Note Name: F3
Note OFF: Time 64562, Note Name: G3
Note ON: Time 64563, Note Name: B2, Velocity: 50
Note OFF: Time 64643, Note Name: B2
Note ON: Time 64643, Note Name: G#3, Velocity: 56
Note OFF: Time 64723, Note Name: G#3
Note ON: Time 64723, Note Name: F3, Velocity: 55
Note ON: Time 64801, Note Name: A3, Velocity: 59
Note OFF: Time 64803, Note Name: F3
Note ON: Time 64879, Note Name: D3, Velocity: 56
Note OFF: Time 64881, Note Name: A3
Note OFF: Time 64959, Note Name: D3
Note ON: Time 64961, Note Name: A#3, Velocity: 61
Note ON: Time 65039, Note Name: G3, Velocity: 59
Note OFF: Time 65041, Note Name: A#3
Note OFF: Time 65119, Note Name: G3
Note ON: Time 65119, Note Name: B3, Velocity: 64
Note OFF: Time 65199, Note Name: B3
Note ON: Time 65202, Note Name: F3, Velocity: 64
Note OFF: Time 65282, Note Name: F3
Note ON: Time 65282, Note Name: E4, Velocity: 69
Note ON: Time 65359, Note Name: B3, Velocity: 69
Note OFF: Time 65362, Note Name: E4
Note OFF: Time 65439, Note Name: B3
Note ON: Time 65442, Note Name: D4, Velocity: 69
Note ON: Time 65520, Note Name: F4, Velocity: 69
Note OFF: Time 65522, Note Name: D4
Note ON: Time 65598, Note Name: E5, Velocity: 69
Note OFF: Time 65600, Note Name: F4
Note OFF: Time 65678, Note Name: E5
Note ON: Time 65682, Note Name: B4, Velocity: 69
Note OFF: Time 65762, Note Name: B4
Note ON: Time 65763, Note Name: D5, Velocity: 66
Note ON: Time 65838, Note Name: F5, Velocity: 67
Note OFF: Time 65843, Note Name: D5
Note OFF: Time 65918, Note Name: F5
Note ON: Time 65919, Note Name: E6, Velocity: 69
Note OFF: Time 65999, Note Name: E6
Note ON: Time 66001, Note Name: B5, Velocity: 70
Note ON: Time 66080, Note Name: D6, Velocity: 72
Note OFF: Time 66081, Note Name: B5
Note OFF: Time 66160, Note Name: D6
Note ON: Time 66162, Note Name: F5, Velocity: 73
Note ON: Time 66239, Note Name: E6, Velocity: 77
Note OFF: Time 66242, Note Name: F5
Note OFF: Time 66319, Note Name: E6
Note ON: Time 66322, Note Name: A#5, Velocity: 73
Note OFF: Time 66402, Note Name: A#5
Note ON: Time 66403, Note Name: D6, Velocity: 72
Note ON: Time 66478, Note Name: F5, Velocity: 71
Note OFF: Time 66483, Note Name: D6
Note OFF: Time 66558, Note Name: F5
Note ON: Time 66561, Note Name: E5, Velocity: 69
Note OFF: Time 66641, Note Name: E5
Note ON: Time 66642, Note Name: A#4, Velocity: 69
Note ON: Time 66719, Note Name: D5, Velocity: 64
Note OFF: Time 66722, Note Name: A#4
Note ON: Time 66798, Note Name: F4, Velocity: 64
Note OFF: Time 66799, Note Name: D5
Note OFF: Time 66878, Note Name: F4
Note ON: Time 66879, Note Name: E4, Velocity: 64
Note OFF: Time 66959, Note Name: E4
Note ON: Time 66962, Note Name: A#3, Velocity: 64
Note OFF: Time 67042, Note Name: A#3
Note ON: Time 67043, Note Name: D4, Velocity: 64
Note ON: Time 67121, Note Name: F3, Velocity: 64
Note OFF: Time 67123, Note Name: D4
Note ON: Time 67200, Note Name: E4, Velocity: 69
Note OFF: Time 67201, Note Name: F3
Note OFF: Time 67280, Note Name: E4
Note ON: Time 67282, Note Name: A3, Velocity: 69
Note ON: Time 67359, Note Name: D4, Velocity: 69
Note OFF: Time 67362, Note Name: A3
Note OFF: Time 67439, Note Name: D4
Note ON: Time 67441, Note Name: F4, Velocity: 69
Note ON: Time 67519, Note Name: E5, Velocity: 69
Note OFF: Time 67521, Note Name: F4
Note OFF: Time 67599, Note Name: E5
Note ON: Time 67599, Note Name: A4, Velocity: 69
Note OFF: Time 67679, Note Name: A4
Note ON: Time 67683, Note Name: D5, Velocity: 68
Note ON: Time 67759, Note Name: F5, Velocity: 68
Note OFF: Time 67763, Note Name: D5
Note ON: Time 67838, Note Name: E6, Velocity: 69
Note OFF: Time 67839, Note Name: F5
Note OFF: Time 67918, Note Name: E6
Note ON: Time 67922, Note Name: A5, Velocity: 70
Note ON: Time 67998, Note Name: D6, Velocity: 71
Note OFF: Time 68002, Note Name: A5
Note OFF: Time 68078, Note Name: D6
Note ON: Time 68078, Note Name: F5, Velocity: 72
Note OFF: Time 68158, Note Name: F5
Note ON: Time 68158, Note Name: E6, Velocity: 73
Note OFF: Time 68238, Note Name: E6
Note ON: Time 68240, Note Name: G#5, Velocity: 72
Note OFF: Time 68320, Note Name: G#5
Note ON: Time 68321, Note Name: D6, Velocity: 71
Note ON: Time 68400, Note Name: F5, Velocity: 70
Note OFF: Time 68401, Note Name: D6
Note OFF: Time 68480, Note Name: F5
Note ON: Time 68480, Note Name: E5, Velocity: 69
Note OFF: Time 68560, Note Name: E5
Note ON: Time 68560, Note Name: G#4, Velocity: 69
Note ON: Time 68638, Note Name: D5, Velocity: 64
Note OFF: Time 68640, Note Name: G#4
Note OFF: Time 68718, Note Name: D5
Note ON: Time 68721, Note Name: F4, Velocity: 64
Note OFF: Time 68801, Note Name: F4
Note ON: Time 68802, Note Name: E4, Velocity: 64
Note ON: Time 68880, Note Name: G#3, Velocity: 64
Note OFF: Time 68882, Note Name: E4
Note OFF: Time 68960, Note Name: G#3
Note ON: Time 68961, Note Name: D4, Velocity: 64
Note OFF: Time 69041, Note Name: D4
Note ON: Time 69043, Note Name: F3, Velocity: 64
Note ON: Time 69121, Note Name: E4, Velocity: 69
Note OFF: Time 69123, Note Name: F3
Note OFF: Time 69201, Note Name: E4
Note ON: Time 69201, Note Name: G3, Velocity: 69
Note ON: Time 69278, Note Name: D4, Velocity: 69
Note OFF: Time 69281, Note Name: G3
Note OFF: Time 69358, Note Name: D4
Note ON: Time 69360, Note Name: F3, Velocity: 69
Note ON: Time 69439, Note Name: G4, Velocity: 69
Note OFF: Time 69440, Note Name: F3
Note OFF: Time 69519, Note Name: G4
Note ON: Time 69520, Note Name: E4, Velocity: 69
Note OFF: Time 69600, Note Name: E4
Note ON: Time 69603, Note Name: F4, Velocity: 70
Note ON: Time 69680, Note Name: D4, Velocity: 70
Note OFF: Time 69683, Note Name: F4
Note ON: Time 69758, Note Name: E5, Velocity: 70
Note OFF: Time 69760, Note Name: D4
Note OFF: Time 69838, Note Name: E5
Note ON: Time 69841, Note Name: G4, Velocity: 70
Note OFF: Time 69921, Note Name: G4
Note ON: Time 69922, Note Name: D5, Velocity: 70
Note OFF: Time 70002, Note Name: D5
Note ON: Time 70002, Note Name: F4, Velocity: 70
Note OFF: Time 70082, Note Name: F4
Note ON: Time 70083, Note Name: G5, Velocity: 69
Note OFF: Time 70163, Note Name: G5
Note ON: Time 70163, Note Name: E5, Velocity: 69
Note ON: Time 70239, Note Name: F5, Velocity: 69
Note OFF: Time 70243, Note Name: E5
Note OFF: Time 70319, Note Name: F5
Note ON: Time 70323, Note Name: D5, Velocity: 69
Note ON: Time 70401, Note Name: E6, Velocity: 69
Note OFF: Time 70403, Note Name: D5
Note OFF: Time 70481, Note Name: E6
Note ON: Time 70482, Note Name: G5, Velocity: 69
Note OFF: Time 70562, Note Name: G5
Note ON: Time 70562, Note Name: D6, Velocity: 64
Note OFF: Time 70642, Note Name: D6
Note ON: Time 70642, Note Name: F5, Velocity: 59
Note OFF: Time 70722, Note Name: F5
Note ON: Time 70723, Note Name: G6, Velocity: 59
Note OFF: Time 70803, Note Name: G6
Note ON: Time 70803, Note Name: E6, Velocity: 59
Note OFF: Time 70883, Note Name: E6
Note ON: Time 70883, Note Name: F6, Velocity: 59
Note ON: Time 70961, Note Name: D6, Velocity: 59
Note OFF: Time 70963, Note Name: F6
Note ON: Time 71040, Note Name: A6, Velocity: 62
Note OFF: Time 71041, Note Name: D6
Note ON: Time 71118, Note Name: E6, Velocity: 62
Note OFF: Time 71120, Note Name: A6
Note OFF: Time 71198, Note Name: E6
Note ON: Time 71200, Note Name: G6, Velocity: 62
Note OFF: Time 71280, Note Name: G6
Note ON: Time 71282, Note Name: C6, Velocity: 62
Note ON: Time 71360, Note Name: E7, Velocity: 68
Note OFF: Time 71362, Note Name: C6
Note ON: Time 71439, Note Name: G6, Velocity: 62
Note OFF: Time 71440, Note Name: E7
Note ON: Time 71518, Note Name: D7, Velocity: 66
Note OFF: Time 71519, Note Name: G6
Note OFF: Time 71598, Note Name: D7
Note ON: Time 71601, Note Name: E6, Velocity: 59
Note OFF: Time 71681, Note Name: E6
Note ON: Time 71682, Note Name: C7, Velocity: 63
Note ON: Time 71758, Note Name: G#6, Velocity: 59
Note OFF: Time 71762, Note Name: C7
Note OFF: Time 71838, Note Name: G#6
Note ON: Time 71838, Note Name: B6, Velocity: 63
Note OFF: Time 71918, Note Name: B6
Note ON: Time 71920, Note Name: E6, Velocity: 59
Note OFF: Time 72000, Note Name: E6
Note ON: Time 72002, Note Name: A#6, Velocity: 62
Note OFF: Time 72082, Note Name: A#6
Note ON: Time 72082, Note Name: F6, Velocity: 59
Note ON: Time 72158, Note Name: G#6, Velocity: 62
Note OFF: Time 72162, Note Name: F6
Note OFF: Time 72238, Note Name: G#6
Note ON: Time 72238, Note Name: C#6, Velocity: 59
Note OFF: Time 72318, Note Name: C#6
Note ON: Time 72318, Note Name: F#6, Velocity: 62
Note OFF: Time 72398, Note Name: F#6
Note ON: Time 72400, Note Name: C#6, Velocity: 59
Note ON: Time 72478, Note Name: F6, Velocity: 62
Note OFF: Time 72480, Note Name: C#6
Note OFF: Time 72558, Note Name: F6
Note ON: Time 72563, Note Name: G#5, Velocity: 59
Note ON: Time 72641, Note Name: D#6, Velocity: 62
Note OFF: Time 72643, Note Name: G#5
Note ON: Time 72718, Note Name: G#5, Velocity: 59
Note OFF: Time 72721, Note Name: D#6
Note OFF: Time 72798, Note Name: G#5
Note ON: Time 72803, Note Name: C#6, Velocity: 62
Note ON: Time 72881, Note Name: F5, Velocity: 59
Note OFF: Time 72883, Note Name: C#6
Note ON: Time 72960, Note Name: C#6, Velocity: 59
Note OFF: Time 72961, Note Name: F5
Note ON: Time 73038, Note Name: F#5, Velocity: 59
Note OFF: Time 73040, Note Name: C#6
Note OFF: Time 73118, Note Name: F#5
Note ON: Time 73119, Note Name: C6, Velocity: 59
Note OFF: Time 73199, Note Name: C6
Note ON: Time 73200, Note Name: E5, Velocity: 59
Note OFF: Time 73280, Note Name: E5
Note ON: Time 73281, Note Name: G5, Velocity: 59
Note OFF: Time 73361, Note Name: G5
Note ON: Time 73362, Note Name: C5, Velocity: 59
Note ON: Time 73438, Note Name: G#5, Velocity: 55
Note OFF: Time 73442, Note Name: C5
Note OFF: Time 73518, Note Name: G#5
Note ON: Time 73522, Note Name: E5, Velocity: 55
Note ON: Time 73598, Note Name: F#5, Velocity: 55
Note OFF: Time 73602, Note Name: E5
Note OFF: Time 73678, Note Name: F#5
Note ON: Time 73681, Note Name: C5, Velocity: 55
Note OFF: Time 73761, Note Name: C5
Note ON: Time 73761, Note Name: G5, Velocity: 55
Note OFF: Time 73841, Note Name: G5
Note ON: Time 73843, Note Name: E5, Velocity: 55
Note ON: Time 73920, Note Name: A5, Velocity: 55
Note OFF: Time 73923, Note Name: E5
Note ON: Time 73999, Note Name: B4, Velocity: 55
Note OFF: Time 74000, Note Name: A5
Note OFF: Time 74079, Note Name: B4
Note ON: Time 74079, Note Name: F#5, Velocity: 55
Note OFF: Time 74159, Note Name: F#5
Note ON: Time 74162, Note Name: F5, Velocity: 55
Note ON: Time 74240, Note Name: G5, Velocity: 55
Note OFF: Time 74242, Note Name: F5
Note OFF: Time 74320, Note Name: G5
Note ON: Time 74320, Note Name: B4, Velocity: 55
Note OFF: Time 74400, Note Name: B4
Note ON: Time 74401, Note Name: B5, Velocity: 55
Note ON: Time 74478, Note Name: F5, Velocity: 53
Note OFF: Time 74481, Note Name: B5
Note OFF: Time 74558, Note Name: F5
Note ON: Time 74563, Note Name: E6, Velocity: 53
Note ON: Time 74642, Note Name: G5, Velocity: 53
Note OFF: Time 74643, Note Name: E6
Note ON: Time 74718, Note Name: D6, Velocity: 53
Note OFF: Time 74722, Note Name: G5
Note OFF: Time 74798, Note Name: D6
Note ON: Time 74800, Note Name: F5, Velocity: 53
Note OFF: Time 74880, Note Name: F5
Note ON: Time 74882, Note Name: D6, Velocity: 55
Note OFF: Time 74962, Note Name: D6
Note ON: Time 74963, Note Name: G5, Velocity: 46
Note ON: Time 75042, Note Name: C6, Velocity: 55
Note OFF: Time 75043, Note Name: G5
Note ON: Time 75121, Note Name: E5, Velocity: 46
Note OFF: Time 75122, Note Name: C6
Note OFF: Time 75201, Note Name: E5
Note ON: Time 75201, Note Name: A5, Velocity: 55
Note OFF: Time 75281, Note Name: A5
Note ON: Time 75283, Note Name: E5, Velocity: 47
Note ON: Time 75362, Note Name: G5, Velocity: 55
Note OFF: Time 75363, Note Name: E5
Note ON: Time 75439, Note Name: C5, Velocity: 47
Note OFF: Time 75442, Note Name: G5
Note OFF: Time 75519, Note Name: C5
Note ON: Time 75521, Note Name: F5, Velocity: 55
Note ON: Time 75599, Note Name: C5, Velocity: 47
Note OFF: Time 75601, Note Name: F5
Note OFF: Time 75679, Note Name: C5
Note ON: Time 75681, Note Name: E5, Velocity: 55
Note OFF: Time 75761, Note Name: E5
Note ON: Time 75762, Note Name: G4, Velocity: 47
Note ON: Time 75839, Note Name: A5, Velocity: 55
Note OFF: Time 75842, Note Name: G4
Note OFF: Time 75919, Note Name: A5
Note ON: Time 75921, Note Name: E5, Velocity: 49
Note ON: Time 76000, Note Name: G5, Velocity: 55
Note OFF: Time 76001, Note Name: E5
Note OFF: Time 76080, Note Name: G5
Note ON: Time 76083, Note Name: C5, Velocity: 49
Note ON: Time 76162, Note Name: F5, Velocity: 55
Note OFF: Time 76163, Note Name: C5
Note OFF: Time 76242, Note Name: F5
Note ON: Time 76242, Note Name: C5, Velocity: 47
Note ON: Time 76321, Note Name: E5, Velocity: 55
Note OFF: Time 76322, Note Name: C5
Note ON: Time 76400, Note Name: G4, Velocity: 49
Note OFF: Time 76401, Note Name: E5
Note OFF: Time 76480, Note Name: G4
Note ON: Time 76482, Note Name: A5, Velocity: 55
Note OFF: Time 76562, Note Name: A5
Note ON: Time 76562, Note Name: E5, Velocity: 47
Note OFF: Time 76642, Note Name: E5
Note ON: Time 76643, Note Name: G5, Velocity: 55
Note ON: Time 76719, Note Name: C5, Velocity: 47
Note OFF: Time 76723, Note Name: G5
Note OFF: Time 76799, Note Name: C5
Note ON: Time 76800, Note Name: E5, Velocity: 69
Note ON: Time 76800, Note Name: G5, Velocity: 82
Note OFF: Time 77280, Note Name: G5
Note OFF: Time 77280, Note Name: E5
Note ON: Time 77280, Note Name: E5, Velocity: 69
Note ON: Time 77280, Note Name: G5, Velocity: 82
Note ON: Time 77280, Note Name: G4, Velocity: 69
Note OFF: Time 77640, Note Name: G4
Note OFF: Time 77640, Note Name: G5
Note OFF: Time 77640, Note Name: E5
Note ON: Time 77640, Note Name: E5, Velocity: 63
Note ON: Time 77640, Note Name: G4, Velocity: 63
Note ON: Time 77640, Note Name: G5, Velocity: 77
Note OFF: Time 77760, Note Name: G5
Note OFF: Time 77760, Note Name: G4
Note OFF: Time 77760, Note Name: E5
Note ON: Time 77760, Note Name: G4, Velocity: 69
Note ON: Time 77760, Note Name: G5, Velocity: 82
Note ON: Time 77760, Note Name: E5, Velocity: 69
Note OFF: Time 78240, Note Name: E5
Note OFF: Time 78240, Note Name: G5
Note OFF: Time 78240, Note Name: G4
Note ON: Time 78240, Note Name: E5, Velocity: 72
Note ON: Time 78240, Note Name: A4, Velocity: 72
Note ON: Time 78240, Note Name: A5, Velocity: 85
Note OFF: Time 78720, Note Name: A5
Note OFF: Time 78720, Note Name: A4
Note OFF: Time 78720, Note Name: E5
Note ON: Time 78720, Note Name: G5, Velocity: 82
Note ON: Time 78720, Note Name: G4, Velocity: 69
Note ON: Time 78720, Note Name: E5, Velocity: 69
Note OFF: Time 79200, Note Name: E5
Note OFF: Time 79200, Note Name: G4
Note OFF: Time 79200, Note Name: G5
Note ON: Time 79200, Note Name: C#5, Velocity: 63
Note ON: Time 79200, Note Name: G4, Velocity: 63
Note ON: Time 79200, Note Name: E5, Velocity: 77
Note OFF: Time 79680, Note Name: E5
Note OFF: Time 79680, Note Name: G4
Note OFF: Time 79680, Note Name: C#5
Note ON: Time 79680, Note Name: G4, Velocity: 63
Note ON: Time 79680, Note Name: G5, Velocity: 77
Note ON: Time 79680, Note Name: E5, Velocity: 63
Note OFF: Time 80640, Note Name: E5
Note OFF: Time 80640, Note Name: G5
Note OFF: Time 80640, Note Name: G4
Note ON: Time 80640, Note Name: G5, Velocity: 69
Note ON: Time 80640, Note Name: A#5, Velocity: 82
Note OFF: Time 81120, Note Name: A#5
Note OFF: Time 81120, Note Name: G5
Note ON: Time 81120, Note Name: A#4, Velocity: 69
Note ON: Time 81120, Note Name: G5, Velocity: 69
Note ON: Time 81120, Note Name: A#5, Velocity: 82
Note OFF: Time 81480, Note Name: A#5
Note OFF: Time 81480, Note Name: G5
Note OFF: Time 81480, Note Name: A#4
Note ON: Time 81480, Note Name: A#4, Velocity: 63
Note ON: Time 81480, Note Name: G5, Velocity: 63
Note ON: Time 81480, Note Name: A#5, Velocity: 77
Note OFF: Time 81600, Note Name: A#5
Note OFF: Time 81600, Note Name: G5
Note OFF: Time 81600, Note Name: A#4
Note ON: Time 81600, Note Name: A#5, Velocity: 82
Note ON: Time 81600, Note Name: A#4, Velocity: 69
Note ON: Time 81600, Note Name: G5, Velocity: 69
Note OFF: Time 82080, Note Name: G5
Note OFF: Time 82080, Note Name: A#4
Note OFF: Time 82080, Note Name: A#5
Note ON: Time 82080, Note Name: C5, Velocity: 72
Note ON: Time 82080, Note Name: C6, Velocity: 85
Note ON: Time 82080, Note Name: G5, Velocity: 72
Note OFF: Time 82560, Note Name: G5
Note OFF: Time 82560, Note Name: C6
Note OFF: Time 82560, Note Name: C5
Note ON: Time 82560, Note Name: A#4, Velocity: 69
Note ON: Time 82560, Note Name: G5, Velocity: 69
Note ON: Time 82560, Note Name: A#5, Velocity: 82
Note OFF: Time 83040, Note Name: A#5
Note OFF: Time 83040, Note Name: G5
Note OFF: Time 83040, Note Name: A#4
Note ON: Time 83040, Note Name: G5, Velocity: 81
Note ON: Time 83040, Note Name: A#4, Velocity: 68
Note ON: Time 83040, Note Name: E5, Velocity: 68
Note OFF: Time 83520, Note Name: E5
Note OFF: Time 83520, Note Name: A#4
Note OFF: Time 83520, Note Name: G5
Note ON: Time 83520, Note Name: G5, Velocity: 70
Note ON: Time 83520, Note Name: A#4, Velocity: 70
Note ON: Time 83520, Note Name: A#5, Velocity: 84
Note OFF: Time 84480, Note Name: A#5
Note OFF: Time 84480, Note Name: A#4
Note OFF: Time 84480, Note Name: G5
Note ON: Time 84482, Note Name: C7, Velocity: 67
Note OFF: Time 84562, Note Name: C7
Note ON: Time 84563, Note Name: D#6, Velocity: 58
Note ON: Time 84638, Note Name: A#6, Velocity: 61
Note OFF: Time 84643, Note Name: D#6
Note OFF: Time 84718, Note Name: A#6
Note ON: Time 84720, Note Name: C#6, Velocity: 58
Note OFF: Time 84800, Note Name: C#6
Note ON: Time 84800, Note Name: G#6, Velocity: 61
Note OFF: Time 84880, Note Name: G#6
Note ON: Time 84882, Note Name: D#6, Velocity: 58
Note ON: Time 84960, Note Name: G6, Velocity: 56
Note OFF: Time 84962, Note Name: D#6
Note OFF: Time 85040, Note Name: G6
Note ON: Time 85040, Note Name: C#6, Velocity: 52
Note OFF: Time 85120, Note Name: C#6
Note ON: Time 85122, Note Name: F6, Velocity: 56
Note ON: Time 85199, Note Name: C#6, Velocity: 52
Note OFF: Time 85202, Note Name: F6
Note OFF: Time 85279, Note Name: C#6
Note ON: Time 85281, Note Name: D#6, Velocity: 56
Note ON: Time 85358, Note Name: G5, Velocity: 52
Note OFF: Time 85361, Note Name: D#6
Note OFF: Time 85438, Note Name: G5
Note ON: Time 85443, Note Name: F6, Velocity: 61
Note OFF: Time 85523, Note Name: F6
Note ON: Time 85523, Note Name: C6, Velocity: 58
Note OFF: Time 85603, Note Name: C6
Note ON: Time 85603, Note Name: D#6, Velocity: 61
Note ON: Time 85678, Note Name: G#5, Velocity: 58
Note OFF: Time 85683, Note Name: D#6
Note OFF: Time 85758, Note Name: G#5
Note ON: Time 85760, Note Name: C#6, Velocity: 61
Note OFF: Time 85840, Note Name: C#6
Note ON: Time 85841, Note Name: G#5, Velocity: 58
Note OFF: Time 85921, Note Name: G#5
Note ON: Time 85922, Note Name: C6, Velocity: 61
Note OFF: Time 86002, Note Name: C6
Note ON: Time 86002, Note Name: D#5, Velocity: 52
Note ON: Time 86079, Note Name: A#5, Velocity: 56
Note OFF: Time 86082, Note Name: D#5
Note OFF: Time 86159, Note Name: A#5
Note ON: Time 86163, Note Name: D#5, Velocity: 52
Note ON: Time 86242, Note Name: G#5, Velocity: 56
Note OFF: Time 86243, Note Name: D#5
Note ON: Time 86319, Note Name: C5, Velocity: 52
Note OFF: Time 86322, Note Name: G#5
Note OFF: Time 86399, Note Name: C5
Note ON: Time 86401, Note Name: C6, Velocity: 61
Note ON: Time 86478, Note Name: D#5, Velocity: 58
Note OFF: Time 86481, Note Name: C6
Note OFF: Time 86558, Note Name: D#5
Note ON: Time 86561, Note Name: A#5, Velocity: 61
Note OFF: Time 86641, Note Name: A#5
Note ON: Time 86642, Note Name: C#5, Velocity: 58
Note OFF: Time 86722, Note Name: C#5
Note ON: Time 86722, Note Name: A5, Velocity: 61
Note ON: Time 86798, Note Name: D#5, Velocity: 58
Note OFF: Time 86802, Note Name: A5
Note OFF: Time 86878, Note Name: D#5
Note ON: Time 86882, Note Name: A#5, Velocity: 56
Note ON: Time 86961, Note Name: C#5, Velocity: 52
Note OFF: Time 86962, Note Name: A#5
Note OFF: Time 87041, Note Name: C#5
Note ON: Time 87043, Note Name: C#6, Velocity: 56
Note OFF: Time 87123, Note Name: C#6
Note ON: Time 87123, Note Name: D#5, Velocity: 52
Note ON: Time 87202, Note Name: G5, Velocity: 56
Note OFF: Time 87203, Note Name: D#5
Note ON: Time 87279, Note Name: C#5, Velocity: 52
Note OFF: Time 87282, Note Name: G5
Note OFF: Time 87359, Note Name: C#5
Note ON: Time 87360, Note Name: A#5, Velocity: 61
Note OFF: Time 87440, Note Name: A#5
Note ON: Time 87440, Note Name: D#5, Velocity: 58
Note ON: Time 87518, Note Name: G#5, Velocity: 61
Note OFF: Time 87520, Note Name: D#5
Note OFF: Time 87598, Note Name: G#5
Note ON: Time 87601, Note Name: C5, Velocity: 58
Note ON: Time 87678, Note Name: G5, Velocity: 61
Note OFF: Time 87681, Note Name: C5
Note OFF: Time 87758, Note Name: G5
Note ON: Time 87762, Note Name: D#5, Velocity: 58
Note OFF: Time 87842, Note Name: D#5
Note ON: Time 87842, Note Name: G#5, Velocity: 61
Note ON: Time 87919, Note Name: C5, Velocity: 52
Note OFF: Time 87922, Note Name: G#5
Note ON: Time 87998, Note Name: A#5, Velocity: 56
Note OFF: Time 87999, Note Name: C5
Note OFF: Time 88078, Note Name: A#5
Note ON: Time 88078, Note Name: D#5, Velocity: 52
Note OFF: Time 88158, Note Name: D#5
Note ON: Time 88162, Note Name: G#5, Velocity: 56
Note ON: Time 88238, Note Name: C5, Velocity: 52
Note OFF: Time 88242, Note Name: G#5
Note OFF: Time 88318, Note Name: C5
Note ON: Time 88320, Note Name: G#6, Velocity: 50
Note OFF: Time 88400, Note Name: G#6
Note ON: Time 88402, Note Name: B5, Velocity: 48
Note OFF: Time 88482, Note Name: B5
Note ON: Time 88482, Note Name: F#6, Velocity: 50
Note ON: Time 88560, Note Name: A5, Velocity: 48
Note OFF: Time 88562, Note Name: F#6
Note OFF: Time 88640, Note Name: A5
Note ON: Time 88643, Note Name: E6, Velocity: 50
Note ON: Time 88721, Note Name: B5, Velocity: 48
Note OFF: Time 88723, Note Name: E6
Note ON: Time 88799, Note Name: D#6, Velocity: 48
Note OFF: Time 88801, Note Name: B5
Note OFF: Time 88879, Note Name: D#6
Note ON: Time 88880, Note Name: A5, Velocity: 44
Note OFF: Time 88960, Note Name: A5
Note ON: Time 88963, Note Name: C#6, Velocity: 48
Note ON: Time 89038, Note Name: A5, Velocity: 44
Note OFF: Time 89043, Note Name: C#6
Note OFF: Time 89118, Note Name: A5
Note ON: Time 89118, Note Name: B5, Velocity: 48
Note OFF: Time 89198, Note Name: B5
Note ON: Time 89198, Note Name: F#5, Velocity: 44
Note OFF: Time 89278, Note Name: F#5
Note ON: Time 89278, Note Name: E6, Velocity: 50
Note OFF: Time 89358, Note Name: E6
Note ON: Time 89363, Note Name: G#5, Velocity: 48
Note ON: Time 89439, Note Name: D#6, Velocity: 50
Note OFF: Time 89443, Note Name: G#5
Note OFF: Time 89519, Note Name: D#6
Note ON: Time 89520, Note Name: E5, Velocity: 48
Note OFF: Time 89600, Note Name: E5
Note ON: Time 89602, Note Name: C#6, Velocity: 50
Note ON: Time 89678, Note Name: G#5, Velocity: 48
Note OFF: Time 89682, Note Name: C#6
Note OFF: Time 89758, Note Name: G#5
Note ON: Time 89762, Note Name: B5, Velocity: 50
Note ON: Time 89839, Note Name: E5, Velocity: 44
Note OFF: Time 89842, Note Name: B5
Note OFF: Time 89919, Note Name: E5
Note ON: Time 89923, Note Name: A5, Velocity: 48
Note ON: Time 89999, Note Name: E5, Velocity: 44
Note OFF: Time 90003, Note Name: A5
Note OFF: Time 90079, Note Name: E5
Note ON: Time 90079, Note Name: G#5, Velocity: 48
Note OFF: Time 90159, Note Name: G#5
Note ON: Time 90159, Note Name: B4, Velocity: 44
Note OFF: Time 90239, Note Name: B4
Note ON: Time 90239, Note Name: G#5, Velocity: 50
Note OFF: Time 90319, Note Name: G#5
Note ON: Time 90323, Note Name: D#5, Velocity: 48
Note OFF: Time 90403, Note Name: D#5
Note ON: Time 90403, Note Name: F#5, Velocity: 50
Note OFF: Time 90483, Note Name: F#5
Note ON: Time 90483, Note Name: A4, Velocity: 48
Note OFF: Time 90563, Note Name: A4
Note ON: Time 90563, Note Name: F5, Velocity: 50
Note ON: Time 90641, Note Name: D#5, Velocity: 48
Note OFF: Time 90643, Note Name: F5
Note ON: Time 90718, Note Name: F#5, Velocity: 48
Note OFF: Time 90721, Note Name: D#5
Note OFF: Time 90798, Note Name: F#5
Note ON: Time 90799, Note Name: A4, Velocity: 44
Note OFF: Time 90879, Note Name: A4
Note ON: Time 90879, Note Name: A5, Velocity: 48
Note OFF: Time 90959, Note Name: A5
Note ON: Time 90960, Note Name: B4, Velocity: 44
Note OFF: Time 91040, Note Name: B4
Note ON: Time 91040, Note Name: D#5, Velocity: 48
Note ON: Time 91119, Note Name: A4, Velocity: 44
Note OFF: Time 91120, Note Name: D#5
Note OFF: Time 91199, Note Name: A4
Note ON: Time 91203, Note Name: F#5, Velocity: 48
Note ON: Time 91281, Note Name: B4, Velocity: 44
Note OFF: Time 91283, Note Name: F#5
Note OFF: Time 91361, Note Name: B4
Note ON: Time 91361, Note Name: F5, Velocity: 45
Note OFF: Time 91441, Note Name: F5
Note ON: Time 91443, Note Name: G#4, Velocity: 42
Note ON: Time 91521, Note Name: E5, Velocity: 44
Note OFF: Time 91523, Note Name: G#4
Note OFF: Time 91601, Note Name: E5
Note ON: Time 91602, Note Name: B4, Velocity: 41
Note OFF: Time 91682, Note Name: B4
Note ON: Time 91683, Note Name: D#5, Velocity: 44
Note OFF: Time 91763, Note Name: D#5
Note ON: Time 91763, Note Name: G#4, Velocity: 41
Note OFF: Time 91843, Note Name: G#4
Note ON: Time 91843, Note Name: D5, Velocity: 42
Note OFF: Time 91923, Note Name: D5
Note ON: Time 91923, Note Name: B4, Velocity: 40
Note ON: Time 91998, Note Name: C#5, Velocity: 42
Note OFF: Time 92003, Note Name: B4
Note OFF: Time 92078, Note Name: C#5
Note ON: Time 92080, Note Name: G#4, Velocity: 40
Note ON: Time 92159, Note Name: C#5, Velocity: 62
Note OFF: Time 92160, Note Name: G#4
Note OFF: Time 92239, Note Name: C#5
Note ON: Time 92239, Note Name: G#4, Velocity: 59
Note OFF: Time 92319, Note Name: G#4
Note ON: Time 92323, Note Name: B4, Velocity: 59
Note ON: Time 92402, Note Name: D4, Velocity: 59
Note OFF: Time 92403, Note Name: B4
Note OFF: Time 92482, Note Name: D4
Note ON: Time 92482, Note Name: C#5, Velocity: 60
Note ON: Time 92558, Note Name: G#4, Velocity: 61
Note OFF: Time 92562, Note Name: C#5
Note OFF: Time 92638, Note Name: G#4
Note ON: Time 92641, Note Name: B4, Velocity: 62
Note OFF: Time 92721, Note Name: B4
Note ON: Time 92722, Note Name: D5, Velocity: 64
Note OFF: Time 92802, Note Name: D5
Note ON: Time 92802, Note Name: C#6, Velocity: 67
Note OFF: Time 92882, Note Name: C#6
Note ON: Time 92882, Note Name: G#5, Velocity: 68
Note ON: Time 92958, Note Name: B5, Velocity: 69
Note OFF: Time 92962, Note Name: G#5
Note OFF: Time 93038, Note Name: B5
Note ON: Time 93042, Note Name: D6, Velocity: 70
Note ON: Time 93120, Note Name: C#7, Velocity: 72
Note OFF: Time 93122, Note Name: D6
Note OFF: Time 93200, Note Name: C#7
Note ON: Time 93201, Note Name: G#6, Velocity: 73
Note OFF: Time 93281, Note Name: G#6
Note ON: Time 93283, Note Name: B6, Velocity: 71
Note OFF: Time 93363, Note Name: B6
Note ON: Time 93363, Note Name: D6, Velocity: 71
Note ON: Time 93438, Note Name: C#6, Velocity: 71
Note OFF: Time 93443, Note Name: D6
Note OFF: Time 93518, Note Name: C#6
Note ON: Time 93522, Note Name: G#5, Velocity: 71
Note ON: Time 93600, Note Name: B5, Velocity: 71
Note OFF: Time 93602, Note Name: G#5
Note ON: Time 93678, Note Name: D5, Velocity: 69
Note OFF: Time 93680, Note Name: B5
Note OFF: Time 93758, Note Name: D5
Note ON: Time 93759, Note Name: C#5, Velocity: 69
Note OFF: Time 93839, Note Name: C#5
Note ON: Time 93840, Note Name: G#4, Velocity: 69
Note ON: Time 93918, Note Name: B4, Velocity: 69
Note OFF: Time 93920, Note Name: G#4
Note OFF: Time 93998, Note Name: B4
Note ON: Time 94003, Note Name: D4, Velocity: 69
Note ON: Time 94081, Note Name: D5, Velocity: 69
Note OFF: Time 94083, Note Name: D4
Note ON: Time 94159, Note Name: G4, Velocity: 69
Note OFF: Time 94161, Note Name: D5
Note OFF: Time 94239, Note Name: G4
Note ON: Time 94242, Note Name: C5, Velocity: 69
Note OFF: Time 94322, Note Name: C5
Note ON: Time 94323, Note Name: C4, Velocity: 69
Note ON: Time 94399, Note Name: F5, Velocity: 69
Note OFF: Time 94403, Note Name: C4
Note ON: Time 94478, Note Name: C5, Velocity: 69
Note OFF: Time 94479, Note Name: F5
Note OFF: Time 94558, Note Name: C5
Note ON: Time 94562, Note Name: D#5, Velocity: 69
Note ON: Time 94639, Note Name: G4, Velocity: 61
Note OFF: Time 94642, Note Name: D#5
Note OFF: Time 94719, Note Name: G4
Note ON: Time 94721, Note Name: G#5, Velocity: 61
Note OFF: Time 94801, Note Name: G#5
Note ON: Time 94802, Note Name: D#5, Velocity: 61
Note OFF: Time 94882, Note Name: D#5
Note ON: Time 94883, Note Name: G5, Velocity: 61
Note ON: Time 94959, Note Name: C5, Velocity: 61
Note OFF: Time 94963, Note Name: G5
Note OFF: Time 95039, Note Name: C5
Note ON: Time 95041, Note Name: C6, Velocity: 61
Note OFF: Time 95121, Note Name: C6
Note ON: Time 95123, Note Name: G5, Velocity: 61
Note OFF: Time 95203, Note Name: G5
Note ON: Time 95203, Note Name: B5, Velocity: 61
Note ON: Time 95281, Note Name: D#5, Velocity: 61
Note OFF: Time 95283, Note Name: B5
Note ON: Time 95359, Note Name: A#5, Velocity: 61
Note OFF: Time 95361, Note Name: D#5
Note OFF: Time 95439, Note Name: A#5
Note ON: Time 95442, Note Name: G5, Velocity: 61
Note ON: Time 95520, Note Name: A5, Velocity: 61
Note OFF: Time 95522, Note Name: G5
Note OFF: Time 95600, Note Name: A5
Note ON: Time 95600, Note Name: E5, Velocity: 62
Note ON: Time 95678, Note Name: G#5, Velocity: 64
Note OFF: Time 95680, Note Name: E5
Note OFF: Time 95758, Note Name: G#5
Note ON: Time 95761, Note Name: E5, Velocity: 67
Note ON: Time 95840, Note Name: G5, Velocity: 68
Note OFF: Time 95841, Note Name: E5
Note ON: Time 95918, Note Name: C5, Velocity: 69
Note OFF: Time 95920, Note Name: G5
Note OFF: Time 95998, Note Name: C5
Note ON: Time 95999, Note Name: F5, Velocity: 66
Note OFF: Time 96079, Note Name: F5
Note ON: Time 96083, Note Name: C5, Velocity: 59
Note ON: Time 96159, Note Name: D#5, Velocity: 59
Note OFF: Time 96163, Note Name: C5
Note OFF: Time 96239, Note Name: D#5
Note ON: Time 96243, Note Name: F#4, Velocity: 59
Note ON: Time 96318, Note Name: F5, Velocity: 60
Note OFF: Time 96323, Note Name: F#4
Note OFF: Time 96398, Note Name: F5
Note ON: Time 96403, Note Name: C5, Velocity: 61
Note OFF: Time 96483, Note Name: C5
Note ON: Time 96483, Note Name: D#5, Velocity: 62
Note ON: Time 96560, Note Name: F#5, Velocity: 64
Note OFF: Time 96563, Note Name: D#5
Note ON: Time 96639, Note Name: F6, Velocity: 67
Note OFF: Time 96640, Note Name: F#5
Note OFF: Time 96719, Note Name: F6
Note ON: Time 96721, Note Name: C6, Velocity: 69
Note OFF: Time 96801, Note Name: C6
Note ON: Time 96801, Note Name: D#6, Velocity: 70
Note OFF: Time 96881, Note Name: D#6
Note ON: Time 96881, Note Name: F#6, Velocity: 72
Note ON: Time 96960, Note Name: F7, Velocity: 70
Note OFF: Time 96961, Note Name: F#6
Note ON: Time 97038, Note Name: C7, Velocity: 61
Note OFF: Time 97040, Note Name: F7
Note OFF: Time 97118, Note Name: C7
Note ON: Time 97123, Note Name: D#7, Velocity: 69
Note ON: Time 97198, Note Name: F#6, Velocity: 69
Note OFF: Time 97203, Note Name: D#7
Note OFF: Time 97278, Note Name: F#6
Note ON: Time 97279, Note Name: F6, Velocity: 69
Note OFF: Time 97359, Note Name: F6
Note ON: Time 97359, Note Name: C6, Velocity: 69
Note OFF: Time 97439, Note Name: C6
Note ON: Time 97442, Note Name: D#6, Velocity: 69
Note ON: Time 97521, Note Name: F#5, Velocity: 69
Note OFF: Time 97522, Note Name: D#6
Note OFF: Time 97601, Note Name: F#5
Note ON: Time 97603, Note Name: F5, Velocity: 69
Note ON: Time 97681, Note Name: C5, Velocity: 69
Note OFF: Time 97683, Note Name: F5
Note OFF: Time 97761, Note Name: C5
Note ON: Time 97762, Note Name: D#5, Velocity: 69
Note ON: Time 97840, Note Name: F#4, Velocity: 69
Note OFF: Time 97842, Note Name: D#5
Note OFF: Time 97920, Note Name: F#4
Note ON: Time 97922, Note Name: F#5, Velocity: 69
Note OFF: Time 98002, Note Name: F#5
Note ON: Time 98002, Note Name: B4, Velocity: 69
Note ON: Time 98078, Note Name: E5, Velocity: 69
Note OFF: Time 98082, Note Name: B4
Note OFF: Time 98158, Note Name: E5
Note ON: Time 98161, Note Name: E4, Velocity: 69
Note ON: Time 98238, Note Name: A5, Velocity: 69
Note OFF: Time 98241, Note Name: E4
Note OFF: Time 98318, Note Name: A5
Note ON: Time 98318, Note Name: E5, Velocity: 69
Note OFF: Time 98398, Note Name: E5
Note ON: Time 98402, Note Name: G5, Velocity: 69
Note ON: Time 98480, Note Name: B4, Velocity: 61
Note OFF: Time 98482, Note Name: G5
Note OFF: Time 98560, Note Name: B4
Note ON: Time 98563, Note Name: C6, Velocity: 61
Note ON: Time 98640, Note Name: G5, Velocity: 61
Note OFF: Time 98643, Note Name: C6
Note OFF: Time 98720, Note Name: G5
Note ON: Time 98722, Note Name: B5, Velocity: 61
Note ON: Time 98798, Note Name: E5, Velocity: 61
Note OFF: Time 98802, Note Name: B5
Note OFF: Time 98878, Note Name: E5
Note ON: Time 98881, Note Name: E6, Velocity: 66
Note ON: Time 98958, Note Name: B5, Velocity: 66
Note OFF: Time 98961, Note Name: E6
Note OFF: Time 99038, Note Name: B5
Note ON: Time 99042, Note Name: D#6, Velocity: 67
Note OFF: Time 99122, Note Name: D#6
Note ON: Time 99123, Note Name: G5, Velocity: 68
Note ON: Time 99201, Note Name: D6, Velocity: 69
Note OFF: Time 99203, Note Name: G5
Note OFF: Time 99281, Note Name: D6
Note ON: Time 99282, Note Name: B5, Velocity: 69
Note ON: Time 99359, Note Name: C#6, Velocity: 70
Note OFF: Time 99362, Note Name: B5
Note OFF: Time 99439, Note Name: C#6
Note ON: Time 99442, Note Name: G5, Velocity: 71
Note ON: Time 99521, Note Name: C6, Velocity: 72
Note OFF: Time 99522, Note Name: G5
Note OFF: Time 99601, Note Name: C6
Note ON: Time 99601, Note Name: G5, Velocity: 73
Note ON: Time 99679, Note Name: B5, Velocity: 73
Note OFF: Time 99681, Note Name: G5
Note OFF: Time 99759, Note Name: B5
Note ON: Time 99763, Note Name: E5, Velocity: 75
Note ON: Time 99840, Note Name: A#5, Velocity: 68
Note OFF: Time 99843, Note Name: E5
Note OFF: Time 99920, Note Name: A#5
Note ON: Time 99922, Note Name: E5, Velocity: 64
Note ON: Time 100000, Note Name: A5, Velocity: 69
Note OFF: Time 100002, Note Name: E5
Note ON: Time 100078, Note Name: A#4, Velocity: 64
Note OFF: Time 100080, Note Name: A5
Note OFF: Time 100158, Note Name: A#4
Note ON: Time 100160, Note Name: G#5, Velocity: 69
Note OFF: Time 100240, Note Name: G#5
Note ON: Time 100241, Note Name: E5, Velocity: 64
Note ON: Time 100320, Note Name: G5, Velocity: 69
Note OFF: Time 100321, Note Name: E5
Note OFF: Time 100400, Note Name: G5
Note ON: Time 100400, Note Name: A#4, Velocity: 64
Note ON: Time 100478, Note Name: A5, Velocity: 69
Note OFF: Time 100480, Note Name: A#4
Note OFF: Time 100558, Note Name: A5
Note ON: Time 100559, Note Name: E5, Velocity: 64
Note OFF: Time 100639, Note Name: E5
Note ON: Time 100641, Note Name: G5, Velocity: 69
Note OFF: Time 100721, Note Name: G5
Note ON: Time 100723, Note Name: A#4, Velocity: 64
Note ON: Time 100800, Note Name: G5, Velocity: 69
Note OFF: Time 100803, Note Name: A#4
Note OFF: Time 100880, Note Name: G5
Note ON: Time 100883, Note Name: C5, Velocity: 64
Note ON: Time 100960, Note Name: F#5, Velocity: 69
Note OFF: Time 100963, Note Name: C5
Note OFF: Time 101040, Note Name: F#5
Note ON: Time 101041, Note Name: A4, Velocity: 64
Note ON: Time 101118, Note Name: F5, Velocity: 69
Note OFF: Time 101121, Note Name: A4
Note OFF: Time 101198, Note Name: F5
Note ON: Time 101203, Note Name: C5, Velocity: 64
Note OFF: Time 101283, Note Name: C5
Note ON: Time 101283, Note Name: F#5, Velocity: 69
Note ON: Time 101360, Note Name: A4, Velocity: 64
Note OFF: Time 101363, Note Name: F#5
Note OFF: Time 101440, Note Name: A4
Note ON: Time 101442, Note Name: G5, Velocity: 69
Note ON: Time 101519, Note Name: B4, Velocity: 64
Note OFF: Time 101522, Note Name: G5
Note OFF: Time 101599, Note Name: B4
Note ON: Time 101601, Note Name: F#5, Velocity: 69
Note ON: Time 101680, Note Name: A4, Velocity: 64
Note OFF: Time 101681, Note Name: F#5
Note OFF: Time 101760, Note Name: A4
Note ON: Time 101761, Note Name: F#5, Velocity: 69
Note ON: Time 101838, Note Name: B4, Velocity: 64
Note OFF: Time 101841, Note Name: F#5
Note OFF: Time 101918, Note Name: B4
Note ON: Time 101920, Note Name: F5, Velocity: 69
Note ON: Time 101999, Note Name: G4, Velocity: 64
Note OFF: Time 102000, Note Name: F5
Note OFF: Time 102079, Note Name: G4
Note ON: Time 102083, Note Name: E5, Velocity: 69
Note OFF: Time 102163, Note Name: E5
Note ON: Time 102163, Note Name: B4, Velocity: 64
Note OFF: Time 102243, Note Name: B4
Note ON: Time 102243, Note Name: E5, Velocity: 69
Note ON: Time 102321, Note Name: G4, Velocity: 64
Note OFF: Time 102323, Note Name: E5
Note OFF: Time 102401, Note Name: G4
Note ON: Time 102401, Note Name: F5, Velocity: 69
Note ON: Time 102478, Note Name: A4, Velocity: 64
Note OFF: Time 102481, Note Name: F5
Note OFF: Time 102558, Note Name: A4
Note ON: Time 102560, Note Name: E5, Velocity: 69
Note ON: Time 102639, Note Name: G4, Velocity: 64
Note OFF: Time 102640, Note Name: E5
Note OFF: Time 102719, Note Name: G4
Note ON: Time 102720, Note Name: E5, Velocity: 69
Note ON: Time 102798, Note Name: A4, Velocity: 64
Note OFF: Time 102800, Note Name: E5
Note OFF: Time 102878, Note Name: A4
Note ON: Time 102883, Note Name: C#5, Velocity: 69
Note ON: Time 102959, Note Name: F4, Velocity: 64
Note OFF: Time 102963, Note Name: C#5
Note OFF: Time 103039, Note Name: F4
Note ON: Time 103042, Note Name: D5, Velocity: 69
Note OFF: Time 103122, Note Name: D5
Note ON: Time 103123, Note Name: A4, Velocity: 64
Note ON: Time 103201, Note Name: D5, Velocity: 69
Note OFF: Time 103203, Note Name: A4
Note ON: Time 103279, Note Name: E4, Velocity: 64
Note OFF: Time 103281, Note Name: D5
Note OFF: Time 103359, Note Name: E4
Note ON: Time 103359, Note Name: B4, Velocity: 69
Note OFF: Time 103439, Note Name: B4
Note ON: Time 103441, Note Name: A4, Velocity: 64
Note OFF: Time 103521, Note Name: A4
Note ON: Time 103523, Note Name: C5, Velocity: 69
Note ON: Time 103599, Note Name: E4, Velocity: 64
Note OFF: Time 103603, Note Name: C5
Note OFF: Time 103679, Note Name: E4
Note ON: Time 103679, Note Name: C5, Velocity: 70
Note OFF: Time 103759, Note Name: C5
Note ON: Time 103762, Note Name: A4, Velocity: 70
Note OFF: Time 103842, Note Name: A4
Note ON: Time 103843, Note Name: B4, Velocity: 70
Note ON: Time 103919, Note Name: F4, Velocity: 70
Note OFF: Time 103923, Note Name: B4
Note OFF: Time 103999, Note Name: F4
Note ON: Time 103999, Note Name: C5, Velocity: 70
Note OFF: Time 104079, Note Name: C5
Note ON: Time 104080, Note Name: A4, Velocity: 70
Note OFF: Time 104160, Note Name: A4
Note ON: Time 104163, Note Name: B4, Velocity: 70
Note ON: Time 104241, Note Name: F5, Velocity: 71
Note OFF: Time 104243, Note Name: B4
Note ON: Time 104318, Note Name: C6, Velocity: 72
Note OFF: Time 104321, Note Name: F5
Note OFF: Time 104398, Note Name: C6
Note ON: Time 104403, Note Name: A5, Velocity: 73
Note ON: Time 104478, Note Name: B5, Velocity: 75
Note OFF: Time 104483, Note Name: A5
Note OFF: Time 104558, Note Name: B5
Note ON: Time 104561, Note Name: F6, Velocity: 77
Note ON: Time 104639, Note Name: C7, Velocity: 77
Note OFF: Time 104641, Note Name: F6
Note OFF: Time 104719, Note Name: C7
Note ON: Time 104719, Note Name: A6, Velocity: 77
Note ON: Time 104798, Note Name: B6, Velocity: 75
Note OFF: Time 104799, Note Name: A6
Note OFF: Time 104878, Note Name: B6
Note ON: Time 104879, Note Name: F6, Velocity: 73
Note OFF: Time 104959, Note Name: F6
Note ON: Time 104960, Note Name: C6, Velocity: 73
Note OFF: Time 105040, Note Name: C6
Note ON: Time 105043, Note Name: A5, Velocity: 72
Note ON: Time 105118, Note Name: B5, Velocity: 70
Note OFF: Time 105123, Note Name: A5
Note OFF: Time 105198, Note Name: B5
Note ON: Time 105198, Note Name: F5, Velocity: 70
Note OFF: Time 105278, Note Name: F5
Note ON: Time 105280, Note Name: C5, Velocity: 70
Note ON: Time 105359, Note Name: A4, Velocity: 70
Note OFF: Time 105360, Note Name: C5
Note OFF: Time 105439, Note Name: A4
Note ON: Time 105441, Note Name: B4, Velocity: 70
Note ON: Time 105520, Note Name: F4, Velocity: 70
Note OFF: Time 105521, Note Name: B4
Note OFF: Time 105600, Note Name: F4
Note ON: Time 105600, Note Name: B4, Velocity: 70
Note OFF: Time 105680, Note Name: B4
Note ON: Time 105683, Note Name: F#4, Velocity: 70
Note ON: Time 105761, Note Name: A4, Velocity: 70
Note OFF: Time 105763, Note Name: F#4
Note ON: Time 105839, Note Name: C4, Velocity: 70
Note OFF: Time 105841, Note Name: A4
Note OFF: Time 105919, Note Name: C4
Note ON: Time 105920, Note Name: B4, Velocity: 70
Note OFF: Time 106000, Note Name: B4
Note ON: Time 106000, Note Name: F#4, Velocity: 70
Note OFF: Time 106080, Note Name: F#4
Note ON: Time 106083, Note Name: A4, Velocity: 70
Note ON: Time 106161, Note Name: C5, Velocity: 71
Note OFF: Time 106163, Note Name: A4
Note OFF: Time 106241, Note Name: C5
Note ON: Time 106243, Note Name: B5, Velocity: 72
Note ON: Time 106322, Note Name: F#5, Velocity: 73
Note OFF: Time 106323, Note Name: B5
Note OFF: Time 106402, Note Name: F#5
Note ON: Time 106402, Note Name: A5, Velocity: 75
Note ON: Time 106481, Note Name: C6, Velocity: 77
Note OFF: Time 106482, Note Name: A5
Note OFF: Time 106561, Note Name: C6
Note ON: Time 106563, Note Name: B6, Velocity: 79
Note ON: Time 106639, Note Name: F#6, Velocity: 78
Note OFF: Time 106643, Note Name: B6
Note OFF: Time 106719, Note Name: F#6
Note ON: Time 106723, Note Name: A6, Velocity: 77
Note ON: Time 106799, Note Name: C6, Velocity: 75
Note OFF: Time 106803, Note Name: A6
Note OFF: Time 106879, Note Name: C6
Note ON: Time 106883, Note Name: B5, Velocity: 72
Note ON: Time 106962, Note Name: F#5, Velocity: 71
Note OFF: Time 106963, Note Name: B5
Note ON: Time 107038, Note Name: A5, Velocity: 70
Note OFF: Time 107042, Note Name: F#5
Note OFF: Time 107118, Note Name: A5
Note ON: Time 107122, Note Name: C5, Velocity: 70
Note ON: Time 107200, Note Name: B4, Velocity: 70
Note OFF: Time 107202, Note Name: C5
Note ON: Time 107279, Note Name: F#4, Velocity: 70
Note OFF: Time 107280, Note Name: B4
Note ON: Time 107358, Note Name: A4, Velocity: 70
Note OFF: Time 107359, Note Name: F#4
Note OFF: Time 107438, Note Name: A4
Note ON: Time 107438, Note Name: C4, Velocity: 70
Note OFF: Time 107518, Note Name: C4
Note ON: Time 107520, Note Name: A4, Velocity: 59
Note OFF: Time 107600, Note Name: A4
Note ON: Time 107603, Note Name: E4, Velocity: 59
Note ON: Time 107678, Note Name: G#4, Velocity: 59
Note OFF: Time 107683, Note Name: E4
Note OFF: Time 107758, Note Name: G#4
Note ON: Time 107758, Note Name: B4, Velocity: 60
Note OFF: Time 107838, Note Name: B4
Note ON: Time 107839, Note Name: A5, Velocity: 60
Note OFF: Time 107919, Note Name: A5
Note ON: Time 107922, Note Name: E5, Velocity: 61
Note OFF: Time 108002, Note Name: E5
Note ON: Time 108002, Note Name: G#5, Velocity: 62
Note OFF: Time 108082, Note Name: G#5
Note ON: Time 108082, Note Name: B5, Velocity: 62
Note ON: Time 108161, Note Name: A6, Velocity: 63
Note OFF: Time 108162, Note Name: B5
Note ON: Time 108239, Note Name: E6, Velocity: 63
Note OFF: Time 108241, Note Name: A6
Note OFF: Time 108319, Note Name: E6
Note ON: Time 108322, Note Name: G#6, Velocity: 64
Note OFF: Time 108402, Note Name: G#6
Note ON: Time 108403, Note Name: B5, Velocity: 63
Note OFF: Time 108483, Note Name: B5
Note ON: Time 108483, Note Name: G#6, Velocity: 63
Note ON: Time 108559, Note Name: D6, Velocity: 63
Note OFF: Time 108563, Note Name: G#6
Note OFF: Time 108639, Note Name: D6
Note ON: Time 108640, Note Name: F#6, Velocity: 63
Note ON: Time 108718, Note Name: B5, Velocity: 63
Note OFF: Time 108720, Note Name: F#6
Note OFF: Time 108798, Note Name: B5
Note ON: Time 108798, Note Name: G#5, Velocity: 62
Note OFF: Time 108878, Note Name: G#5
Note ON: Time 108878, Note Name: D5, Velocity: 62
Note OFF: Time 108958, Note Name: D5
Note ON: Time 108960, Note Name: F#5, Velocity: 62
Note OFF: Time 109040, Note Name: F#5
Note ON: Time 109042, Note Name: B4, Velocity: 61
Note ON: Time 109120, Note Name: G#4, Velocity: 61
Note OFF: Time 109122, Note Name: B4
Note ON: Time 109199, Note Name: D4, Velocity: 61
Note OFF: Time 109200, Note Name: G#4
Note OFF: Time 109279, Note Name: D4
Note ON: Time 109279, Note Name: F#4, Velocity: 61
Note OFF: Time 109359, Note Name: F#4
Note ON: Time 109359, Note Name: B3, Velocity: 61
Note OFF: Time 109439, Note Name: B3
Note ON: Time 109442, Note Name: F#4, Velocity: 60
Note ON: Time 109518, Note Name: C#4, Velocity: 59
Note OFF: Time 109522, Note Name: F#4
Note OFF: Time 109598, Note Name: C#4
Note ON: Time 109598, Note Name: E4, Velocity: 59
Note OFF: Time 109678, Note Name: E4
Note ON: Time 109681, Note Name: G#4, Velocity: 60
Note ON: Time 109760, Note Name: F#5, Velocity: 60
Note OFF: Time 109761, Note Name: G#4
Note OFF: Time 109840, Note Name: F#5
Note ON: Time 109842, Note Name: C#5, Velocity: 61
Note ON: Time 109918, Note Name: E5, Velocity: 62
Note OFF: Time 109922, Note Name: C#5
Note OFF: Time 109998, Note Name: E5
Note ON: Time 110003, Note Name: G#5, Velocity: 66
Note ON: Time 110078, Note Name: F#6, Velocity: 66
Note OFF: Time 110083, Note Name: G#5
Note OFF: Time 110158, Note Name: F#6
Note ON: Time 110158, Note Name: C#6, Velocity: 66
Note OFF: Time 110238, Note Name: C#6
Note ON: Time 110239, Note Name: E6, Velocity: 66
Note OFF: Time 110319, Note Name: E6
Note ON: Time 110322, Note Name: G#5, Velocity: 66
Note ON: Time 110399, Note Name: E6, Velocity: 66
Note OFF: Time 110402, Note Name: G#5
Note OFF: Time 110479, Note Name: E6
Note ON: Time 110481, Note Name: B5, Velocity: 64
Note ON: Time 110560, Note Name: D6, Velocity: 64
Note OFF: Time 110561, Note Name: B5
Note OFF: Time 110640, Note Name: D6
Note ON: Time 110641, Note Name: F#5, Velocity: 63
Note OFF: Time 110721, Note Name: F#5
Note ON: Time 110721, Note Name: E5, Velocity: 63
Note OFF: Time 110801, Note Name: E5
Note ON: Time 110803, Note Name: B4, Velocity: 62
Note OFF: Time 110883, Note Name: B4
Note ON: Time 110883, Note Name: D5, Velocity: 62
Note OFF: Time 110963, Note Name: D5
Note ON: Time 110963, Note Name: F#4, Velocity: 67
Note ON: Time 111038, Note Name: E4, Velocity: 64
Note OFF: Time 111043, Note Name: F#4
Note OFF: Time 111118, Note Name: E4
Note ON: Time 111118, Note Name: B3, Velocity: 62
Note OFF: Time 111198, Note Name: B3
Note ON: Time 111201, Note Name: D4, Velocity: 62
Note OFF: Time 111281, Note Name: D4
Note ON: Time 111282, Note Name: F#3, Velocity: 61
Note OFF: Time 111362, Note Name: F#3
Note ON: Time 111363, Note Name: C#4, Velocity: 71
Note ON: Time 111438, Note Name: G#3, Velocity: 66
Note OFF: Time 111443, Note Name: C#4
Note OFF: Time 111518, Note Name: G#3
Note ON: Time 111523, Note Name: B3, Velocity: 71
Note ON: Time 111602, Note Name: F3, Velocity: 67
Note OFF: Time 111603, Note Name: B3
Note ON: Time 111680, Note Name: E4, Velocity: 71
Note OFF: Time 111682, Note Name: F3
Note OFF: Time 111760, Note Name: E4
Note ON: Time 111761, Note Name: B3, Velocity: 68
Note OFF: Time 111841, Note Name: B3
Note ON: Time 111842, Note Name: D4, Velocity: 71
Note ON: Time 111920, Note Name: G#3, Velocity: 66
Note OFF: Time 111922, Note Name: D4
Note ON: Time 111999, Note Name: G4, Velocity: 71
Note OFF: Time 112000, Note Name: G#3
Note OFF: Time 112079, Note Name: G4
Note ON: Time 112083, Note Name: D4, Velocity: 68
Note OFF: Time 112163, Note Name: D4
Note ON: Time 112163, Note Name: F4, Velocity: 71
Note ON: Time 112242, Note Name: B3, Velocity: 68
Note OFF: Time 112243, Note Name: F4
Note ON: Time 112321, Note Name: A4, Velocity: 71
Note OFF: Time 112322, Note Name: B3
Note ON: Time 112399, Note Name: F4, Velocity: 71
Note OFF: Time 112401, Note Name: A4
Note ON: Time 112478, Note Name: G#4, Velocity: 71
Note OFF: Time 112479, Note Name: F4
Note OFF: Time 112558, Note Name: G#4
Note ON: Time 112559, Note Name: D4, Velocity: 71
Note OFF: Time 112639, Note Name: D4
Note ON: Time 112641, Note Name: C5, Velocity: 71
Note ON: Time 112720, Note Name: G#4, Velocity: 71
Note OFF: Time 112721, Note Name: C5
Note OFF: Time 112800, Note Name: G#4
Note ON: Time 112800, Note Name: B4, Velocity: 71
Note ON: Time 112879, Note Name: F4, Velocity: 71
Note OFF: Time 112880, Note Name: B4
Note OFF: Time 112959, Note Name: F4
Note ON: Time 112960, Note Name: E5, Velocity: 71
Note OFF: Time 113040, Note Name: E5
Note ON: Time 113042, Note Name: B4, Velocity: 71
Note OFF: Time 113122, Note Name: B4
Note ON: Time 113123, Note Name: D5, Velocity: 71
Note ON: Time 113202, Note Name: G#4, Velocity: 71
Note OFF: Time 113203, Note Name: D5
Note OFF: Time 113282, Note Name: G#4
Note ON: Time 113283, Note Name: G5, Velocity: 71
Note ON: Time 113359, Note Name: D5, Velocity: 71
Note OFF: Time 113363, Note Name: G5
Note OFF: Time 113439, Note Name: D5
Note ON: Time 113441, Note Name: F5, Velocity: 73
Note ON: Time 113519, Note Name: B4, Velocity: 75
Note OFF: Time 113521, Note Name: F5
Note OFF: Time 113599, Note Name: B4
Note ON: Time 113603, Note Name: A5, Velocity: 77
Note ON: Time 113680, Note Name: F5, Velocity: 77
Note OFF: Time 113683, Note Name: A5
Note ON: Time 113759, Note Name: G#5, Velocity: 77
Note OFF: Time 113760, Note Name: F5
Note OFF: Time 113839, Note Name: G#5
Note ON: Time 113841, Note Name: D5, Velocity: 78
Note OFF: Time 113921, Note Name: D5
Note ON: Time 113921, Note Name: C6, Velocity: 78
Note ON: Time 114000, Note Name: G#5, Velocity: 78
Note OFF: Time 114001, Note Name: C6
Note OFF: Time 114080, Note Name: G#5
Note ON: Time 114080, Note Name: B5, Velocity: 79
Note ON: Time 114159, Note Name: F5, Velocity: 79
Note OFF: Time 114160, Note Name: B5
Note OFF: Time 114239, Note Name: F5
Note ON: Time 114239, Note Name: E6, Velocity: 77
Note OFF: Time 114319, Note Name: E6
Note ON: Time 114319, Note Name: B5, Velocity: 77
Note OFF: Time 114399, Note Name: B5
Note ON: Time 114403, Note Name: D6, Velocity: 77
Note ON: Time 114482, Note Name: G#5, Velocity: 77
Note OFF: Time 114483, Note Name: D6
Note OFF: Time 114562, Note Name: G#5
Note ON: Time 114562, Note Name: G6, Velocity: 77
Note ON: Time 114641, Note Name: D6, Velocity: 77
Note OFF: Time 114642, Note Name: G6
Note OFF: Time 114721, Note Name: D6
Note ON: Time 114722, Note Name: F6, Velocity: 75
Note ON: Time 114799, Note Name: B5, Velocity: 77
Note OFF: Time 114802, Note Name: F6
Note OFF: Time 114879, Note Name: B5
Note ON: Time 114882, Note Name: A6, Velocity: 79
Note ON: Time 114958, Note Name: F6, Velocity: 80
Note OFF: Time 114962, Note Name: A6
Note OFF: Time 115038, Note Name: F6
Note ON: Time 115042, Note Name: G#6, Velocity: 82
Note OFF: Time 115122, Note Name: G#6
Note ON: Time 115123, Note Name: D6, Velocity: 84
Note ON: Time 115200, Note Name: F7, Velocity: 97
Note OFF: Time 115203, Note Name: D6
Note ON: Time 115278, Note Name: B6, Velocity: 88
Note OFF: Time 115296, Note Name: F7
Note ON: Time 115360, Note Name: E7, Velocity: 94
Note OFF: Time 115374, Note Name: B6
Note ON: Time 115438, Note Name: G#6, Velocity: 85
Note OFF: Time 115456, Note Name: E7
Note ON: Time 115523, Note Name: D#7, Velocity: 94
Note OFF: Time 115534, Note Name: G#6
Note ON: Time 115601, Note Name: B6, Velocity: 85
Note OFF: Time 115619, Note Name: D#7
Note ON: Time 115681, Note Name: D7, Velocity: 90
Note OFF: Time 115697, Note Name: B6
Note ON: Time 115761, Note Name: G#6, Velocity: 85
Note OFF: Time 115777, Note Name: D7
Note ON: Time 115841, Note Name: C#7, Velocity: 89
Note OFF: Time 115857, Note Name: G#6
Note ON: Time 115922, Note Name: G#6, Velocity: 84
Note OFF: Time 115937, Note Name: C#7
Note ON: Time 116001, Note Name: C7, Velocity: 89
Note OFF: Time 116018, Note Name: G#6
Note ON: Time 116082, Note Name: F6, Velocity: 84
Note OFF: Time 116097, Note Name: C7
Note ON: Time 116162, Note Name: B6, Velocity: 89
Note OFF: Time 116178, Note Name: F6
Note ON: Time 116243, Note Name: F6, Velocity: 84
Note OFF: Time 116258, Note Name: B6
Note ON: Time 116318, Note Name: A#6, Velocity: 89
Note OFF: Time 116339, Note Name: F6
Note ON: Time 116400, Note Name: D6, Velocity: 84
Note OFF: Time 116414, Note Name: A#6
Note ON: Time 116482, Note Name: A6, Velocity: 89
Note OFF: Time 116496, Note Name: D6
Note ON: Time 116558, Note Name: F6, Velocity: 82
Note OFF: Time 116578, Note Name: A6
Note ON: Time 116640, Note Name: G#6, Velocity: 88
Note OFF: Time 116654, Note Name: F6
Note ON: Time 116718, Note Name: B5, Velocity: 82
Note OFF: Time 116736, Note Name: G#6
Note ON: Time 116801, Note Name: G6, Velocity: 88
Note OFF: Time 116814, Note Name: B5
Note ON: Time 116879, Note Name: D6, Velocity: 82
Note OFF: Time 116897, Note Name: G6
Note ON: Time 116958, Note Name: F#6, Velocity: 88
Note OFF: Time 116975, Note Name: D6
Note ON: Time 117039, Note Name: G#5, Velocity: 82
Note OFF: Time 117054, Note Name: F#6
Note ON: Time 117123, Note Name: F6, Velocity: 88
Note OFF: Time 117135, Note Name: G#5
Note ON: Time 117201, Note Name: B5, Velocity: 82
Note OFF: Time 117219, Note Name: F6
Note ON: Time 117281, Note Name: E6, Velocity: 88
Note OFF: Time 117297, Note Name: B5
Note ON: Time 117358, Note Name: G#5, Velocity: 82
Note OFF: Time 117377, Note Name: E6
Note ON: Time 117440, Note Name: D#6, Velocity: 88
Note OFF: Time 117454, Note Name: G#5
Note ON: Time 117523, Note Name: B5, Velocity: 82
Note OFF: Time 117536, Note Name: D#6
Note ON: Time 117603, Note Name: D6, Velocity: 88
Note OFF: Time 117619, Note Name: B5
Note ON: Time 117680, Note Name: G5, Velocity: 82
Note OFF: Time 117699, Note Name: D6
Note ON: Time 117759, Note Name: C#6, Velocity: 88
Note OFF: Time 117776, Note Name: G5
Note ON: Time 117839, Note Name: G5, Velocity: 82
Note OFF: Time 117855, Note Name: C#6
Note ON: Time 117918, Note Name: C6, Velocity: 88
Note OFF: Time 117935, Note Name: G5
Note ON: Time 118003, Note Name: F5, Velocity: 81
Note OFF: Time 118014, Note Name: C6
Note ON: Time 118080, Note Name: B5, Velocity: 103
Note OFF: Time 118200, Note Name: B5
Note OFF: Time 118243, Note Name: F5
Note ON: Time 119042, Note Name: B6, Velocity: 103
Note ON: Time 119123, Note Name: F6, Velocity: 85
Note OFF: Time 119138, Note Name: B6
Note ON: Time 119199, Note Name: A#6, Velocity: 99
Note OFF: Time 119219, Note Name: F6
Note ON: Time 119283, Note Name: D6, Velocity: 85
Note OFF: Time 119295, Note Name: A#6
Note ON: Time 119360, Note Name: A6, Velocity: 90
Note OFF: Time 119379, Note Name: D6
Note ON: Time 119443, Note Name: F6, Velocity: 85
Note OFF: Time 119456, Note Name: A6
Note ON: Time 119521, Note Name: G#6, Velocity: 90
Note OFF: Time 119539, Note Name: F6
Note ON: Time 119599, Note Name: D6, Velocity: 85
Note OFF: Time 119617, Note Name: G#6
Note ON: Time 119679, Note Name: G6, Velocity: 89
Note OFF: Time 119695, Note Name: D6
Note ON: Time 119760, Note Name: D6, Velocity: 85
Note OFF: Time 119775, Note Name: G6
Note ON: Time 119841, Note Name: F#6, Velocity: 89
Note OFF: Time 119856, Note Name: D6
Note ON: Time 119919, Note Name: B5, Velocity: 84
Note OFF: Time 119937, Note Name: F#6
Note ON: Time 119999, Note Name: F6, Velocity: 89
Note OFF: Time 120015, Note Name: B5
Note ON: Time 120078, Note Name: B5, Velocity: 84
Note OFF: Time 120095, Note Name: F6
Note ON: Time 120158, Note Name: E6, Velocity: 89
Note OFF: Time 120174, Note Name: B5
Note ON: Time 120242, Note Name: G#5, Velocity: 84
Note OFF: Time 120254, Note Name: E6
Note ON: Time 120323, Note Name: D#6, Velocity: 89
Note OFF: Time 120338, Note Name: G#5
Note ON: Time 120402, Note Name: B5, Velocity: 82
Note OFF: Time 120419, Note Name: D#6
Note ON: Time 120482, Note Name: D6, Velocity: 88
Note OFF: Time 120498, Note Name: B5
Note ON: Time 120558, Note Name: F5, Velocity: 82
Note OFF: Time 120578, Note Name: D6
Note ON: Time 120640, Note Name: C#6, Velocity: 88
Note OFF: Time 120654, Note Name: F5
Note ON: Time 120721, Note Name: G#5, Velocity: 82
Note OFF: Time 120736, Note Name: C#6
Note ON: Time 120803, Note Name: C6, Velocity: 88
Note OFF: Time 120817, Note Name: G#5
Note ON: Time 120879, Note Name: D5, Velocity: 84
Note OFF: Time 120899, Note Name: C6
Note ON: Time 120961, Note Name: B5, Velocity: 88
Note OFF: Time 120975, Note Name: D5
Note ON: Time 121042, Note Name: F5, Velocity: 84
Note OFF: Time 121057, Note Name: B5
Note ON: Time 121123, Note Name: A#5, Velocity: 88
Note OFF: Time 121138, Note Name: F5
Note ON: Time 121203, Note Name: D5, Velocity: 82
Note OFF: Time 121219, Note Name: A#5
Note ON: Time 121282, Note Name: A5, Velocity: 88
Note OFF: Time 121299, Note Name: D5
Note ON: Time 121361, Note Name: F5, Velocity: 84
Note OFF: Time 121378, Note Name: A5
Note ON: Time 121439, Note Name: G#5, Velocity: 86
Note OFF: Time 121457, Note Name: F5
Note ON: Time 121522, Note Name: D5, Velocity: 82
Note OFF: Time 121535, Note Name: G#5
Note ON: Time 121598, Note Name: G5, Velocity: 85
Note OFF: Time 121618, Note Name: D5
Note ON: Time 121681, Note Name: D5, Velocity: 81
Note OFF: Time 121694, Note Name: G5
Note ON: Time 121762, Note Name: F#5, Velocity: 85
Note OFF: Time 121777, Note Name: D5
Note ON: Time 121840, Note Name: B4, Velocity: 81
Note OFF: Time 121858, Note Name: F#5
Note OFF: Time 121918, Note Name: B4
Note ON: Time 121918, Note Name: F5, Velocity: 100
Note ON: Time 121920, Note Name: D5, Velocity: 90
Note ON: Time 121923, Note Name: G#4, Velocity: 90
Note OFF: Time 122040, Note Name: D5
Note OFF: Time 122043, Note Name: G#4
Note OFF: Time 122062, Note Name: F5
Note ON: Time 122880, Note Name: F5, Velocity: 60
Note OFF: Time 122960, Note Name: F5
Note ON: Time 122960, Note Name: D5, Velocity: 55
Note OFF: Time 123040, Note Name: D5
Note ON: Time 123040, Note Name: E5, Velocity: 60
Note OFF: Time 123120, Note Name: E5
Note ON: Time 123120, Note Name: G#4, Velocity: 60
Note OFF: Time 123360, Note Name: G#4
Note ON: Time 123840, Note Name: F5, Velocity: 60
Note OFF: Time 123920, Note Name: F5
Note ON: Time 123920, Note Name: D5, Velocity: 53
Note OFF: Time 124000, Note Name: D5
Note ON: Time 124000, Note Name: E5, Velocity: 60
Note OFF: Time 124080, Note Name: E5
Note ON: Time 124080, Note Name: G#4, Velocity: 60
Note OFF: Time 124320, Note Name: G#4
Note ON: Time 124800, Note Name: F5, Velocity: 51
Note OFF: Time 124880, Note Name: F5
Note ON: Time 124880, Note Name: D5, Velocity: 51
Note OFF: Time 124960, Note Name: D5
Note ON: Time 124960, Note Name: E5, Velocity: 51
Note OFF: Time 125040, Note Name: E5
Note ON: Time 125041, Note Name: G#4, Velocity: 52
Note OFF: Time 125121, Note Name: G#4
Note ON: Time 125123, Note Name: F5, Velocity: 52
Note ON: Time 125200, Note Name: D5, Velocity: 53
Note OFF: Time 125203, Note Name: F5
Note OFF: Time 125280, Note Name: D5
Note ON: Time 125280, Note Name: E5, Velocity: 53
Note OFF: Time 125360, Note Name: E5
Note ON: Time 125363, Note Name: G#4, Velocity: 53
Note ON: Time 125441, Note Name: F5, Velocity: 55
Note OFF: Time 125443, Note Name: G#4
Note ON: Time 125520, Note Name: D5, Velocity: 55
Note OFF: Time 125521, Note Name: F5
Note OFF: Time 125600, Note Name: D5
Note ON: Time 125601, Note Name: E5, Velocity: 56
Note OFF: Time 125681, Note Name: E5
Note ON: Time 125682, Note Name: G#4, Velocity: 56
Note ON: Time 125758, Note Name: F5, Velocity: 57
Note OFF: Time 125762, Note Name: G#4
Note OFF: Time 125838, Note Name: F5
Note ON: Time 125838, Note Name: D5, Velocity: 57
Note OFF: Time 125918, Note Name: D5
Note ON: Time 125919, Note Name: E5, Velocity: 57
Note ON: Time 125998, Note Name: G#4, Velocity: 58
Note OFF: Time 125999, Note Name: E5
Note OFF: Time 126078, Note Name: G#4
Note ON: Time 126079, Note Name: F5, Velocity: 58
Note OFF: Time 126159, Note Name: F5
Note ON: Time 126160, Note Name: D5, Velocity: 59
Note OFF: Time 126240, Note Name: D5
Note ON: Time 126241, Note Name: E5, Velocity: 59
Note ON: Time 126319, Note Name: G#4, Velocity: 60
Note OFF: Time 126321, Note Name: E5
Note ON: Time 126398, Note Name: F5, Velocity: 60
Note OFF: Time 126399, Note Name: G#4
Note OFF: Time 126478, Note Name: F5
Note ON: Time 126481, Note Name: D5, Velocity: 60
Note ON: Time 126558, Note Name: E5, Velocity: 61
Note OFF: Time 126561, Note Name: D5
Note OFF: Time 126638, Note Name: E5
Note ON: Time 126639, Note Name: G#4, Velocity: 61
Note OFF: Time 126719, Note Name: G#4
Note ON: Time 126722, Note Name: F5, Velocity: 62
Note ON: Time 126800, Note Name: D5, Velocity: 62
Note OFF: Time 126802, Note Name: F5
Note OFF: Time 126880, Note Name: D5
Note ON: Time 126883, Note Name: E5, Velocity: 62
Note ON: Time 126959, Note Name: G#4, Velocity: 63
Note OFF: Time 126963, Note Name: E5
Note ON: Time 127038, Note Name: F5, Velocity: 63
Note OFF: Time 127039, Note Name: G#4
Note OFF: Time 127118, Note Name: F5
Note ON: Time 127121, Note Name: D5, Velocity: 64
Note ON: Time 127199, Note Name: E5, Velocity: 64
Note OFF: Time 127201, Note Name: D5
Note ON: Time 127278, Note Name: G#4, Velocity: 66
Note OFF: Time 127279, Note Name: E5
Note OFF: Time 127358, Note Name: G#4
Note ON: Time 127361, Note Name: F5, Velocity: 66
Note OFF: Time 127441, Note Name: F5
Note ON: Time 127442, Note Name: D5, Velocity: 66
Note ON: Time 127518, Note Name: E5, Velocity: 67
Note OFF: Time 127522, Note Name: D5
Note OFF: Time 127598, Note Name: E5
Note ON: Time 127603, Note Name: G#4, Velocity: 67
Note ON: Time 127680, Note Name: F5, Velocity: 68
Note OFF: Time 127683, Note Name: G#4
Note OFF: Time 127760, Note Name: F5
Note ON: Time 127763, Note Name: D5, Velocity: 68
Note ON: Time 127841, Note Name: E5, Velocity: 69
Note OFF: Time 127843, Note Name: D5
Note ON: Time 127919, Note Name: G#4, Velocity: 69
Note OFF: Time 127921, Note Name: E5
Note OFF: Time 127999, Note Name: G#4
Note ON: Time 127999, Note Name: F5, Velocity: 69
Note OFF: Time 128079, Note Name: F5
Note ON: Time 128080, Note Name: D5, Velocity: 70
Note ON: Time 128159, Note Name: E5, Velocity: 70
Note OFF: Time 128160, Note Name: D5
Note OFF: Time 128239, Note Name: E5
Note ON: Time 128240, Note Name: G#4, Velocity: 71
Note OFF: Time 128320, Note Name: G#4
Note ON: Time 128322, Note Name: F5, Velocity: 71
Note OFF: Time 128402, Note Name: F5
Note ON: Time 128403, Note Name: D5, Velocity: 72
Note ON: Time 128480, Note Name: E5, Velocity: 72
Note OFF: Time 128483, Note Name: D5
Note OFF: Time 128560, Note Name: E5
Note ON: Time 128560, Note Name: G#4, Velocity: 72
Note OFF: Time 128640, Note Name: G#4
Note ON: Time 128642, Note Name: F5, Velocity: 73
Note OFF: Time 128722, Note Name: F5
Note ON: Time 128722, Note Name: D5, Velocity: 73
Note ON: Time 128798, Note Name: E5, Velocity: 74
Note OFF: Time 128802, Note Name: D5
Note OFF: Time 128878, Note Name: E5
Note ON: Time 128878, Note Name: G#4, Velocity: 74
Note OFF: Time 128958, Note Name: G#4
Note ON: Time 128962, Note Name: F5, Velocity: 74
Note OFF: Time 129042, Note Name: F5
Note ON: Time 129043, Note Name: D5, Velocity: 75
Note ON: Time 129121, Note Name: E5, Velocity: 75
Note OFF: Time 129123, Note Name: D5
Note ON: Time 129200, Note Name: G#5, Velocity: 77
Note OFF: Time 129201, Note Name: E5
Note OFF: Time 129280, Note Name: G#5
Note ON: Time 129280, Note Name: F6, Velocity: 77
Note ON: Time 129358, Note Name: D6, Velocity: 78
Note OFF: Time 129360, Note Name: F6
Note OFF: Time 129438, Note Name: D6
Note ON: Time 129440, Note Name: E6, Velocity: 78
Note ON: Time 129519, Note Name: G#6, Velocity: 78
Note OFF: Time 129520, Note Name: E6
Note OFF: Time 129599, Note Name: G#6
Note ON: Time 129600, Note Name: F7, Velocity: 79
Note OFF: Time 129680, Note Name: F7
Note ON: Time 129683, Note Name: D7, Velocity: 79
Note ON: Time 129759, Note Name: E7, Velocity: 80
Note OFF: Time 129763, Note Name: D7
Note OFF: Time 129839, Note Name: E7
Note ON: Time 129839, Note Name: G#6, Velocity: 80
Note ON: Time 129918, Note Name: F7, Velocity: 81
Note OFF: Time 129919, Note Name: G#6
Note OFF: Time 129998, Note Name: F7
Note ON: Time 130000, Note Name: D7, Velocity: 81
Note ON: Time 130079, Note Name: E7, Velocity: 81
Note OFF: Time 130080, Note Name: D7
Note OFF: Time 130159, Note Name: E7
Note ON: Time 130159, Note Name: G#6, Velocity: 82
Note OFF: Time 130239, Note Name: G#6
Note ON: Time 130239, Note Name: F7, Velocity: 82
Note OFF: Time 130319, Note Name: F7
Note ON: Time 130319, Note Name: D7, Velocity: 83
Note OFF: Time 130399, Note Name: D7
Note ON: Time 130400, Note Name: E7, Velocity: 83
Note ON: Time 130478, Note Name: G#6, Velocity: 84
Note OFF: Time 130480, Note Name: E7
Note OFF: Time 130558, Note Name: G#6
Note ON: Time 130558, Note Name: F7, Velocity: 97
Note OFF: Time 130638, Note Name: F7
Note ON: Time 130643, Note Name: C7, Velocity: 81
Note ON: Time 130718, Note Name: E7, Velocity: 90
Note OFF: Time 130723, Note Name: C7
Note OFF: Time 130798, Note Name: E7
Note ON: Time 130803, Note Name: A6, Velocity: 73
Note ON: Time 130880, Note Name: D#7, Velocity: 93
Note OFF: Time 130883, Note Name: A6
Note OFF: Time 130960, Note Name: D#7
Note ON: Time 130963, Note Name: C7, Velocity: 73
Note ON: Time 131040, Note Name: D7, Velocity: 83
Note OFF: Time 131043, Note Name: C7
Note ON: Time 131119, Note Name: A6, Velocity: 67
Note OFF: Time 131120, Note Name: D7
Note OFF: Time 131199, Note Name: A6
Note ON: Time 131202, Note Name: C#7, Velocity: 79
Note OFF: Time 131282, Note Name: C#7
Note ON: Time 131283, Note Name: A6, Velocity: 67
Note ON: Time 131360, Note Name: C7, Velocity: 78
Note OFF: Time 131363, Note Name: A6
Note OFF: Time 131440, Note Name: C7
Note ON: Time 131440, Note Name: E6, Velocity: 67
Note OFF: Time 131520, Note Name: E6
Note ON: Time 131522, Note Name: B6, Velocity: 79
Note ON: Time 131599, Note Name: E6, Velocity: 73
Note OFF: Time 131602, Note Name: B6
Note OFF: Time 131679, Note Name: E6
Note ON: Time 131680, Note Name: A#6, Velocity: 79
Note OFF: Time 131760, Note Name: A#6
Note ON: Time 131761, Note Name: C6, Velocity: 73
Note OFF: Time 131841, Note Name: C6
Note ON: Time 131842, Note Name: A6, Velocity: 79
Note OFF: Time 131922, Note Name: A6
Note ON: Time 131922, Note Name: E6, Velocity: 73
Note OFF: Time 132002, Note Name: E6
Note ON: Time 132002, Note Name: G#6, Velocity: 79
Note ON: Time 132080, Note Name: C6, Velocity: 67
Note OFF: Time 132082, Note Name: G#6
Note OFF: Time 132160, Note Name: C6
Note ON: Time 132162, Note Name: G6, Velocity: 71
Note ON: Time 132241, Note Name: C6, Velocity: 67
Note OFF: Time 132242, Note Name: G6
Note ON: Time 132319, Note Name: F#6, Velocity: 71
Note OFF: Time 132321, Note Name: C6
Note OFF: Time 132399, Note Name: F#6
Note ON: Time 132400, Note Name: A5, Velocity: 67
Note ON: Time 132478, Note Name: F6, Velocity: 79
Note OFF: Time 132480, Note Name: A5
Note OFF: Time 132558, Note Name: F6
Note ON: Time 132563, Note Name: C6, Velocity: 73
Note ON: Time 132642, Note Name: E6, Velocity: 79
Note OFF: Time 132643, Note Name: C6
Note ON: Time 132720, Note Name: A5, Velocity: 73
Note OFF: Time 132722, Note Name: E6
Note ON: Time 132799, Note Name: D#6, Velocity: 79
Note OFF: Time 132800, Note Name: A5
Note OFF: Time 132879, Note Name: D#6
Note ON: Time 132879, Note Name: C6, Velocity: 73
Note OFF: Time 132959, Note Name: C6
Note ON: Time 132959, Note Name: D6, Velocity: 79
Note ON: Time 133038, Note Name: A5, Velocity: 67
Note OFF: Time 133039, Note Name: D6
Note OFF: Time 133118, Note Name: A5
Note ON: Time 133123, Note Name: C#6, Velocity: 71
Note ON: Time 133199, Note Name: A5, Velocity: 67
Note OFF: Time 133203, Note Name: C#6
Note OFF: Time 133279, Note Name: A5
Note ON: Time 133280, Note Name: C6, Velocity: 71
Note ON: Time 133358, Note Name: E5, Velocity: 67
Note OFF: Time 133360, Note Name: C6
Note OFF: Time 133438, Note Name: E5
Note ON: Time 133443, Note Name: B5, Velocity: 71
Note ON: Time 133521, Note Name: E5, Velocity: 67
Note OFF: Time 133523, Note Name: B5
Note OFF: Time 133601, Note Name: E5
Note ON: Time 133602, Note Name: A#5, Velocity: 71
Note ON: Time 133679, Note Name: C5, Velocity: 67
Note OFF: Time 133682, Note Name: A#5
Note OFF: Time 133759, Note Name: C5
Note ON: Time 133760, Note Name: A5, Velocity: 71
Note OFF: Time 133840, Note Name: A5
Note ON: Time 133842, Note Name: E5, Velocity: 67
Note ON: Time 133920, Note Name: G#5, Velocity: 71
Note OFF: Time 133922, Note Name: E5
Note OFF: Time 134000, Note Name: G#5
Note ON: Time 134001, Note Name: C5, Velocity: 67
Note OFF: Time 134081, Note Name: C5
Note ON: Time 134082, Note Name: G5, Velocity: 71
Note ON: Time 134159, Note Name: C5, Velocity: 67
Note OFF: Time 134162, Note Name: G5
Note OFF: Time 134239, Note Name: C5
Note ON: Time 134239, Note Name: F#5, Velocity: 71
Note OFF: Time 134319, Note Name: F#5
Note ON: Time 134323, Note Name: A4, Velocity: 67
Note ON: Time 134402, Note Name: F5, Velocity: 53
Note OFF: Time 134403, Note Name: A4
Note ON: Time 134479, Note Name: C5, Velocity: 49
Note OFF: Time 134482, Note Name: F5
Note OFF: Time 134559, Note Name: C5
Note ON: Time 134563, Note Name: E5, Velocity: 53
Note ON: Time 134638, Note Name: A4, Velocity: 49
Note OFF: Time 134643, Note Name: E5
Note OFF: Time 134718, Note Name: A4
Note ON: Time 134722, Note Name: D#5, Velocity: 53
Note ON: Time 134798, Note Name: C5, Velocity: 49
Note OFF: Time 134802, Note Name: D#5
Note OFF: Time 134878, Note Name: C5
Note ON: Time 134878, Note Name: D5, Velocity: 53
Note OFF: Time 134958, Note Name: D5
Note ON: Time 134958, Note Name: A4, Velocity: 49
Note OFF: Time 135038, Note Name: A4
Note ON: Time 135041, Note Name: C#5, Velocity: 53
Note OFF: Time 135121, Note Name: C#5
Note ON: Time 135121, Note Name: A4, Velocity: 49
Note OFF: Time 135201, Note Name: A4
Note ON: Time 135201, Note Name: C5, Velocity: 53
Note ON: Time 135279, Note Name: E4, Velocity: 49
Note OFF: Time 135281, Note Name: C5
Note ON: Time 135358, Note Name: B4, Velocity: 53
Note OFF: Time 135359, Note Name: E4
Note OFF: Time 135438, Note Name: B4
Note ON: Time 135439, Note Name: E4, Velocity: 49
Note ON: Time 135518, Note Name: A#4, Velocity: 51
Note OFF: Time 135519, Note Name: E4
Note OFF: Time 135598, Note Name: A#4
Note ON: Time 135600, Note Name: C4, Velocity: 48
Note ON: Time 135678, Note Name: A4, Velocity: 50
Note OFF: Time 135680, Note Name: C4
Note OFF: Time 135758, Note Name: A4
Note ON: Time 135759, Note Name: E4, Velocity: 45
Note OFF: Time 135839, Note Name: E4
Note ON: Time 135842, Note Name: G#4, Velocity: 49
Note ON: Time 135921, Note Name: C4, Velocity: 44
Note OFF: Time 135922, Note Name: G#4
Note ON: Time 135999, Note Name: G4, Velocity: 47
Note OFF: Time 136001, Note Name: C4
Note OFF: Time 136079, Note Name: G4
Note ON: Time 136083, Note Name: C4, Velocity: 44
Note OFF: Time 136163, Note Name: C4
Note ON: Time 136163, Note Name: F#4, Velocity: 45
Note ON: Time 136238, Note Name: A3, Velocity: 45
Note OFF: Time 136243, Note Name: F#4
Note OFF: Time 136318, Note Name: A3
Note ON: Time 136319, Note Name: F4, Velocity: 45
Note OFF: Time 136399, Note Name: F4
Note ON: Time 136402, Note Name: C4, Velocity: 42
Note ON: Time 136480, Note Name: E4, Velocity: 45
Note OFF: Time 136482, Note Name: C4
Note ON: Time 136559, Note Name: A3, Velocity: 42
Note OFF: Time 136560, Note Name: E4
Note OFF: Time 136639, Note Name: A3
Note ON: Time 136640, Note Name: D#4, Velocity: 44
Note OFF: Time 136720, Note Name: D#4
Note ON: Time 136721, Note Name: C4, Velocity: 40
Note OFF: Time 136801, Note Name: C4
Note ON: Time 136802, Note Name: D4, Velocity: 42
Note ON: Time 136881, Note Name: A3, Velocity: 39
Note OFF: Time 136882, Note Name: D4
Note ON: Time 136958, Note Name: C#4, Velocity: 42
Note OFF: Time 136961, Note Name: A3
Note OFF: Time 137038, Note Name: C#4
Note ON: Time 137042, Note Name: A3, Velocity: 39
Note ON: Time 137121, Note Name: C4, Velocity: 40
Note OFF: Time 137122, Note Name: A3
Note ON: Time 137198, Note Name: E3, Velocity: 38
Note OFF: Time 137201, Note Name: C4
Note OFF: Time 137278, Note Name: E3
Note ON: Time 137281, Note Name: B3, Velocity: 40
Note OFF: Time 137361, Note Name: B3
Note ON: Time 137363, Note Name: E3, Velocity: 39
Note ON: Time 137442, Note Name: A#3, Velocity: 45
Note OFF: Time 137443, Note Name: E3
Note ON: Time 137520, Note Name: C3, Velocity: 42
Note OFF: Time 137522, Note Name: A#3
Note OFF: Time 137600, Note Name: C3
Note ON: Time 137600, Note Name: A3, Velocity: 47
Note OFF: Time 137680, Note Name: A3
Note ON: Time 137683, Note Name: E3, Velocity: 45
Note ON: Time 137761, Note Name: G#3, Velocity: 50
Note OFF: Time 137763, Note Name: E3
Note ON: Time 137840, Note Name: C3, Velocity: 48
Note OFF: Time 137841, Note Name: G#3
Note OFF: Time 137920, Note Name: C3
Note ON: Time 137923, Note Name: A3, Velocity: 53
Note ON: Time 138001, Note Name: E3, Velocity: 50
Note OFF: Time 138003, Note Name: A3
Note ON: Time 138078, Note Name: C4, Velocity: 56
Note OFF: Time 138081, Note Name: E3
Note OFF: Time 138158, Note Name: C4
Note ON: Time 138161, Note Name: F3, Velocity: 53
Note ON: Time 138238, Note Name: E4, Velocity: 57
Note OFF: Time 138241, Note Name: F3
Note OFF: Time 138318, Note Name: E4
Note ON: Time 138319, Note Name: B3, Velocity: 57
Note OFF: Time 138399, Note Name: B3
Note ON: Time 138401, Note Name: D4, Velocity: 57
Note OFF: Time 138481, Note Name: D4
Note ON: Time 138482, Note Name: F4, Velocity: 57
Note ON: Time 138560, Note Name: E5, Velocity: 57
Note OFF: Time 138562, Note Name: F4
Note OFF: Time 138640, Note Name: E5
Note ON: Time 138643, Note Name: B4, Velocity: 57
Note ON: Time 138722, Note Name: D5, Velocity: 59
Note OFF: Time 138723, Note Name: B4
Note ON: Time 138800, Note Name: F5, Velocity: 60
Note OFF: Time 138802, Note Name: D5
Note OFF: Time 138880, Note Name: F5
Note ON: Time 138880, Note Name: E6, Velocity: 61
Note OFF: Time 138960, Note Name: E6
Note ON: Time 138960, Note Name: B5, Velocity: 62
Note OFF: Time 139040, Note Name: B5
Note ON: Time 139041, Note Name: D6, Velocity: 64
Note ON: Time 139120, Note Name: F5, Velocity: 66
Note OFF: Time 139121, Note Name: D6
Note OFF: Time 139200, Note Name: F5
Note ON: Time 139201, Note Name: D6, Velocity: 67
Note OFF: Time 139281, Note Name: D6
Note ON: Time 139281, Note Name: A5, Velocity: 64
Note ON: Time 139360, Note Name: C6, Velocity: 61
Note OFF: Time 139361, Note Name: A5
Note OFF: Time 139440, Note Name: C6
Note ON: Time 139443, Note Name: F5, Velocity: 59
Note ON: Time 139519, Note Name: D5, Velocity: 59
Note OFF: Time 139523, Note Name: F5
Note ON: Time 139598, Note Name: A4, Velocity: 57
Note OFF: Time 139599, Note Name: D5
Note OFF: Time 139678, Note Name: A4
Note ON: Time 139678, Note Name: C5, Velocity: 55
Note OFF: Time 139758, Note Name: C5
Note ON: Time 139758, Note Name: F4, Velocity: 55
Note OFF: Time 139838, Note Name: F4
Note ON: Time 139839, Note Name: D4, Velocity: 55
Note OFF: Time 139919, Note Name: D4
Note ON: Time 139919, Note Name: A3, Velocity: 55
Note OFF: Time 139999, Note Name: A3
Note ON: Time 140000, Note Name: C4, Velocity: 55
Note OFF: Time 140080, Note Name: C4
Note ON: Time 140082, Note Name: F3, Velocity: 55
Note ON: Time 140160, Note Name: E4, Velocity: 57
Note OFF: Time 140162, Note Name: F3
Note ON: Time 140238, Note Name: B3, Velocity: 57
Note OFF: Time 140240, Note Name: E4
Note OFF: Time 140318, Note Name: B3
Note ON: Time 140321, Note Name: D4, Velocity: 57
Note OFF: Time 140401, Note Name: D4
Note ON: Time 140403, Note Name: F4, Velocity: 57
Note ON: Time 140482, Note Name: E5, Velocity: 57
Note OFF: Time 140483, Note Name: F4
Note ON: Time 140559, Note Name: B4, Velocity: 57
Note OFF: Time 140562, Note Name: E5
Note OFF: Time 140639, Note Name: B4
Note ON: Time 140643, Note Name: D5, Velocity: 60
Note ON: Time 140719, Note Name: F5, Velocity: 60
Note OFF: Time 140723, Note Name: D5
Note ON: Time 140798, Note Name: E6, Velocity: 61
Note OFF: Time 140799, Note Name: F5
Note OFF: Time 140878, Note Name: E6
Note ON: Time 140881, Note Name: B5, Velocity: 64
Note ON: Time 140958, Note Name: D6, Velocity: 64
Note OFF: Time 140961, Note Name: B5
Note OFF: Time 141038, Note Name: D6
Note ON: Time 141043, Note Name: E5, Velocity: 66
Note ON: Time 141121, Note Name: D6, Velocity: 66
Note OFF: Time 141123, Note Name: E5
Note ON: Time 141200, Note Name: A5, Velocity: 64
Note OFF: Time 141201, Note Name: D6
Note ON: Time 141278, Note Name: C6, Velocity: 61
Note OFF: Time 141280, Note Name: A5
Note OFF: Time 141358, Note Name: C6
Note ON: Time 141359, Note Name: E5, Velocity: 59
Note OFF: Time 141439, Note Name: E5
Note ON: Time 141443, Note Name: D5, Velocity: 58
Note ON: Time 141521, Note Name: A4, Velocity: 56
Note OFF: Time 141523, Note Name: D5
Note ON: Time 141598, Note Name: C5, Velocity: 56
Note OFF: Time 141601, Note Name: A4
Note OFF: Time 141678, Note Name: C5
Note ON: Time 141678, Note Name: E4, Velocity: 56
Note OFF: Time 141758, Note Name: E4
Note ON: Time 141761, Note Name: D4, Velocity: 56
Note OFF: Time 141841, Note Name: D4
Note ON: Time 141843, Note Name: A3, Velocity: 56
Note ON: Time 141921, Note Name: C4, Velocity: 56
Note OFF: Time 141923, Note Name: A3
Note ON: Time 141999, Note Name: B3, Velocity: 56
Note OFF: Time 142001, Note Name: C4
Note OFF: Time 142079, Note Name: B3
Note ON: Time 142080, Note Name: A4, Velocity: 57
Note OFF: Time 142160, Note Name: A4
Note ON: Time 142163, Note Name: E4, Velocity: 55
Note ON: Time 142238, Note Name: G#4, Velocity: 55
Note OFF: Time 142243, Note Name: E4
Note OFF: Time 142318, Note Name: G#4
Note ON: Time 142320, Note Name: B4, Velocity: 55
Note OFF: Time 142400, Note Name: B4
Note ON: Time 142401, Note Name: A5, Velocity: 55
Note ON: Time 142480, Note Name: E5, Velocity: 55
Note OFF: Time 142481, Note Name: A5
Note ON: Time 142559, Note Name: G#5, Velocity: 55
Note OFF: Time 142560, Note Name: E5
Note OFF: Time 142639, Note Name: G#5
Note ON: Time 142641, Note Name: B5, Velocity: 55
Note ON: Time 142719, Note Name: A6, Velocity: 56
Note OFF: Time 142721, Note Name: B5
Note OFF: Time 142799, Note Name: A6
Note ON: Time 142799, Note Name: E6, Velocity: 57
Note OFF: Time 142879, Note Name: E6
Note ON: Time 142881, Note Name: G#6, Velocity: 59
Note OFF: Time 142961, Note Name: G#6
Note ON: Time 142963, Note Name: B5, Velocity: 59
Note ON: Time 143040, Note Name: G#6, Velocity: 59
Note OFF: Time 143043, Note Name: B5
Note ON: Time 143119, Note Name: D#6, Velocity: 59
Note OFF: Time 143120, Note Name: G#6
Note OFF: Time 143199, Note Name: D#6
Note ON: Time 143202, Note Name: F#6, Velocity: 59
Note ON: Time 143280, Note Name: B5, Velocity: 58
Note OFF: Time 143282, Note Name: F#6
Note OFF: Time 143360, Note Name: B5
Note ON: Time 143361, Note Name: G#5, Velocity: 57
Note ON: Time 143440, Note Name: D#5, Velocity: 56
Note OFF: Time 143441, Note Name: G#5
Note OFF: Time 143520, Note Name: D#5
Note ON: Time 143523, Note Name: F#5, Velocity: 51
Note ON: Time 143598, Note Name: B4, Velocity: 51
Note OFF: Time 143603, Note Name: F#5
Note OFF: Time 143678, Note Name: B4
Note ON: Time 143681, Note Name: G#4, Velocity: 51
Note ON: Time 143758, Note Name: D#4, Velocity: 51
Note OFF: Time 143761, Note Name: G#4
Note OFF: Time 143838, Note Name: D#4
Note ON: Time 143839, Note Name: F#4, Velocity: 51
Note ON: Time 143918, Note Name: B3, Velocity: 51
Note OFF: Time 143919, Note Name: F#4
Note OFF: Time 143998, Note Name: B3
Note ON: Time 143998, Note Name: A4, Velocity: 51
Note OFF: Time 144078, Note Name: A4
Note ON: Time 144082, Note Name: E4, Velocity: 51
Note OFF: Time 144162, Note Name: E4
Note ON: Time 144162, Note Name: G#4, Velocity: 51
Note ON: Time 144240, Note Name: B4, Velocity: 51
Note OFF: Time 144242, Note Name: G#4
Note OFF: Time 144320, Note Name: B4
Note ON: Time 144320, Note Name: A5, Velocity: 51
Note OFF: Time 144400, Note Name: A5
Note ON: Time 144401, Note Name: E5, Velocity: 51
Note ON: Time 144480, Note Name: G#5, Velocity: 51
Note OFF: Time 144481, Note Name: E5
Note OFF: Time 144560, Note Name: G#5
Note ON: Time 144561, Note Name: B5, Velocity: 57
Note ON: Time 144638, Note Name: A6, Velocity: 57
Note OFF: Time 144641, Note Name: B5
Note OFF: Time 144718, Note Name: A6
Note ON: Time 144722, Note Name: E6, Velocity: 57
Note ON: Time 144800, Note Name: G#6, Velocity: 57
Note OFF: Time 144802, Note Name: E6
Note OFF: Time 144880, Note Name: G#6
Note ON: Time 144883, Note Name: B5, Velocity: 57
Note ON: Time 144960, Note Name: E7, Velocity: 76
Note OFF: Time 144963, Note Name: B5
Note OFF: Time 145200, Note Name: E7
Note ON: Time 145921, Note Name: F7, Velocity: 99
Note OFF: Time 146001, Note Name: F7
Note ON: Time 146003, Note Name: C7, Velocity: 67
Note ON: Time 146080, Note Name: E7, Velocity: 89
Note OFF: Time 146083, Note Name: C7
Note OFF: Time 146160, Note Name: E7
Note ON: Time 146162, Note Name: A6, Velocity: 67
Note ON: Time 146241, Note Name: D#7, Velocity: 82
Note OFF: Time 146242, Note Name: A6
Note ON: Time 146320, Note Name: C7, Velocity: 67
Note OFF: Time 146321, Note Name: D#7
Note OFF: Time 146400, Note Name: C7
Note ON: Time 146402, Note Name: D7, Velocity: 79
Note OFF: Time 146482, Note Name: D7
Note ON: Time 146483, Note Name: A6, Velocity: 62
Note ON: Time 146558, Note Name: C#7, Velocity: 77
Note OFF: Time 146563, Note Name: A6
Note OFF: Time 146638, Note Name: C#7
Note ON: Time 146642, Note Name: A6, Velocity: 62
Note ON: Time 146720, Note Name: C7, Velocity: 77
Note OFF: Time 146722, Note Name: A6
Note ON: Time 146799, Note Name: E6, Velocity: 62
Note OFF: Time 146800, Note Name: C7
Note OFF: Time 146879, Note Name: E6
Note ON: Time 146882, Note Name: B6, Velocity: 74
Note OFF: Time 146962, Note Name: B6
Note ON: Time 146962, Note Name: E6, Velocity: 67
Note ON: Time 147039, Note Name: A#6, Velocity: 75
Note OFF: Time 147042, Note Name: E6
Note OFF: Time 147119, Note Name: A#6
Note ON: Time 147121, Note Name: C6, Velocity: 67
Note ON: Time 147199, Note Name: A6, Velocity: 75
Note OFF: Time 147201, Note Name: C6
Note ON: Time 147278, Note Name: E6, Velocity: 67
Note OFF: Time 147279, Note Name: A6
Note OFF: Time 147358, Note Name: E6
Note ON: Time 147362, Note Name: G#6, Velocity: 73
Note ON: Time 147440, Note Name: C6, Velocity: 62
Note OFF: Time 147442, Note Name: G#6
Note ON: Time 147519, Note Name: G6, Velocity: 70
Note OFF: Time 147520, Note Name: C6
Note OFF: Time 147599, Note Name: G6
Note ON: Time 147599, Note Name: C6, Velocity: 62
Note OFF: Time 147679, Note Name: C6
Note ON: Time 147681, Note Name: F#6, Velocity: 67
Note ON: Time 147759, Note Name: A5, Velocity: 62
Note OFF: Time 147761, Note Name: F#6
Note OFF: Time 147839, Note Name: A5
Note ON: Time 147839, Note Name: F6, Velocity: 70
Note OFF: Time 147919, Note Name: F6
Note ON: Time 147919, Note Name: C6, Velocity: 67
Note OFF: Time 147999, Note Name: C6
Note ON: Time 148001, Note Name: E6, Velocity: 70
Note OFF: Time 148081, Note Name: E6
Note ON: Time 148082, Note Name: A5, Velocity: 67
Note OFF: Time 148162, Note Name: A5
Note ON: Time 148162, Note Name: D#6, Velocity: 70
Note ON: Time 148241, Note Name: C6, Velocity: 67
Note OFF: Time 148242, Note Name: D#6
Note ON: Time 148318, Note Name: D6, Velocity: 70
Note OFF: Time 148321, Note Name: C6
Note OFF: Time 148398, Note Name: D6
Note ON: Time 148399, Note Name: A5, Velocity: 62
Note OFF: Time 148479, Note Name: A5
Note ON: Time 148483, Note Name: C#6, Velocity: 67
Note ON: Time 148559, Note Name: A5, Velocity: 62
Note OFF: Time 148563, Note Name: C#6
Note OFF: Time 148639, Note Name: A5
Note ON: Time 148639, Note Name: C6, Velocity: 67
Note ON: Time 148718, Note Name: E5, Velocity: 62
Note OFF: Time 148719, Note Name: C6
Note OFF: Time 148798, Note Name: E5
Note ON: Time 148800, Note Name: B5, Velocity: 67
Note ON: Time 148879, Note Name: E5, Velocity: 62
Note OFF: Time 148880, Note Name: B5
Note OFF: Time 148959, Note Name: E5
Note ON: Time 148963, Note Name: A#5, Velocity: 67
Note ON: Time 149039, Note Name: C5, Velocity: 62
Note OFF: Time 149043, Note Name: A#5
Note OFF: Time 149119, Note Name: C5
Note ON: Time 149119, Note Name: A5, Velocity: 67
Note OFF: Time 149199, Note Name: A5
Note ON: Time 149201, Note Name: E5, Velocity: 62
Note OFF: Time 149281, Note Name: E5
Note ON: Time 149282, Note Name: G#5, Velocity: 67
Note ON: Time 149361, Note Name: C5, Velocity: 62
Note OFF: Time 149362, Note Name: G#5
Note ON: Time 149439, Note Name: G5, Velocity: 67
Note OFF: Time 149441, Note Name: C5
Note OFF: Time 149519, Note Name: G5
Note ON: Time 149522, Note Name: C5, Velocity: 62
Note ON: Time 149600, Note Name: F#5, Velocity: 67
Note OFF: Time 149602, Note Name: C5
Note OFF: Time 149680, Note Name: F#5
Note ON: Time 149682, Note Name: A4, Velocity: 62
Note ON: Time 149758, Note Name: F5, Velocity: 53
Note OFF: Time 149762, Note Name: A4
Note OFF: Time 149838, Note Name: F5
Note ON: Time 149842, Note Name: C5, Velocity: 49
Note ON: Time 149921, Note Name: E5, Velocity: 53
Note OFF: Time 149922, Note Name: C5
Note ON: Time 149998, Note Name: A4, Velocity: 49
Note OFF: Time 150001, Note Name: E5
Note OFF: Time 150078, Note Name: A4
Note ON: Time 150082, Note Name: D#5, Velocity: 53
Note ON: Time 150160, Note Name: C5, Velocity: 49
Note OFF: Time 150162, Note Name: D#5
Note OFF: Time 150240, Note Name: C5
Note ON: Time 150241, Note Name: D5, Velocity: 53
Note OFF: Time 150321, Note Name: D5
Note ON: Time 150323, Note Name: A4, Velocity: 49
Note ON: Time 150401, Note Name: C#5, Velocity: 53
Note OFF: Time 150403, Note Name: A4
Note ON: Time 150480, Note Name: A4, Velocity: 49
Note OFF: Time 150481, Note Name: C#5
Note ON: Time 150558, Note Name: C5, Velocity: 53
Note OFF: Time 150560, Note Name: A4
Note OFF: Time 150638, Note Name: C5
Note ON: Time 150642, Note Name: E4, Velocity: 49
Note ON: Time 150721, Note Name: B4, Velocity: 53
Note OFF: Time 150722, Note Name: E4
Note ON: Time 150800, Note Name: E4, Velocity: 49
Note OFF: Time 150801, Note Name: B4
Note OFF: Time 150880, Note Name: E4
Note ON: Time 150881, Note Name: A#4, Velocity: 51
Note OFF: Time 150961, Note Name: A#4
Note ON: Time 150962, Note Name: C4, Velocity: 48
Note ON: Time 151038, Note Name: A4, Velocity: 50
Note OFF: Time 151042, Note Name: C4
Note OFF: Time 151118, Note Name: A4
Note ON: Time 151118, Note Name: E4, Velocity: 45
Note OFF: Time 151198, Note Name: E4
Note ON: Time 151201, Note Name: G#4, Velocity: 49
Note OFF: Time 151281, Note Name: G#4
Note ON: Time 151282, Note Name: C4, Velocity: 44
Note ON: Time 151359, Note Name: G4, Velocity: 47
Note OFF: Time 151362, Note Name: C4
Note OFF: Time 151439, Note Name: G4
Note ON: Time 151442, Note Name: C4, Velocity: 44
Note OFF: Time 151522, Note Name: C4
Note ON: Time 151523, Note Name: F#4, Velocity: 45
Note ON: Time 151602, Note Name: A3, Velocity: 42
Note OFF: Time 151603, Note Name: F#4
Note ON: Time 151679, Note Name: F4, Velocity: 45
Note OFF: Time 151682, Note Name: A3
Note OFF: Time 151759, Note Name: F4
Note ON: Time 151761, Note Name: C4, Velocity: 42
Note ON: Time 151840, Note Name: E4, Velocity: 45
Note OFF: Time 151841, Note Name: C4
Note ON: Time 151918, Note Name: A3, Velocity: 42
Note OFF: Time 151920, Note Name: E4
Note OFF: Time 151998, Note Name: A3
Note ON: Time 152000, Note Name: D#4, Velocity: 44
Note ON: Time 152078, Note Name: C4, Velocity: 40
Note OFF: Time 152080, Note Name: D#4
Note OFF: Time 152158, Note Name: C4
Note ON: Time 152162, Note Name: D4, Velocity: 42
Note ON: Time 152238, Note Name: A3, Velocity: 39
Note OFF: Time 152242, Note Name: D4
Note OFF: Time 152318, Note Name: A3
Note ON: Time 152322, Note Name: C#4, Velocity: 42
Note OFF: Time 152402, Note Name: C#4
Note ON: Time 152402, Note Name: A3, Velocity: 39
Note OFF: Time 152482, Note Name: A3
Note ON: Time 152482, Note Name: C4, Velocity: 40
Note OFF: Time 152562, Note Name: C4
Note ON: Time 152563, Note Name: E3, Velocity: 38
Note ON: Time 152642, Note Name: B3, Velocity: 40
Note OFF: Time 152643, Note Name: E3
Note ON: Time 152721, Note Name: F3, Velocity: 39
Note OFF: Time 152722, Note Name: B3
Note ON: Time 152799, Note Name: A3, Velocity: 45
Note OFF: Time 152801, Note Name: F3
Note ON: Time 152878, Note Name: C3, Velocity: 42
Note OFF: Time 152879, Note Name: A3
Note OFF: Time 152958, Note Name: C3
Note ON: Time 152959, Note Name: G#3, Velocity: 47
Note OFF: Time 153039, Note Name: G#3
Note ON: Time 153042, Note Name: F3, Velocity: 45
Note OFF: Time 153122, Note Name: F3
Note ON: Time 153123, Note Name: A3, Velocity: 50
Note ON: Time 153200, Note Name: C3, Velocity: 48
Note OFF: Time 153203, Note Name: A3
Note ON: Time 153279, Note Name: B3, Velocity: 53
Note OFF: Time 153280, Note Name: C3
Note OFF: Time 153359, Note Name: B3
Note ON: Time 153362, Note Name: E3, Velocity: 50
Note ON: Time 153441, Note Name: C4, Velocity: 56
Note OFF: Time 153442, Note Name: E3
Note ON: Time 153520, Note Name: C3, Velocity: 53
Note OFF: Time 153521, Note Name: C4
Note OFF: Time 153600, Note Name: C3
Note ON: Time 153600, Note Name: C4, Velocity: 57
Note OFF: Time 153680, Note Name: C4
Note ON: Time 153683, Note Name: F3, Velocity: 57
Note ON: Time 153760, Note Name: B3, Velocity: 57
Note OFF: Time 153763, Note Name: F3
Note OFF: Time 153836, Note Name: B3
Note ON: Time 153843, Note Name: B3, Velocity: 57
Note ON: Time 153919, Note Name: C5, Velocity: 57
Note OFF: Time 153923, Note Name: B3
Note OFF: Time 153999, Note Name: C5
Note ON: Time 154001, Note Name: F4, Velocity: 57
Note ON: Time 154080, Note Name: B4, Velocity: 56
Note OFF: Time 154081, Note Name: F4
Note OFF: Time 154155, Note Name: B4
Note ON: Time 154160, Note Name: B4, Velocity: 57
Note OFF: Time 154240, Note Name: B4
Note ON: Time 154243, Note Name: C6, Velocity: 58
Note ON: Time 154320, Note Name: F5, Velocity: 59
Note OFF: Time 154323, Note Name: C6
Note OFF: Time 154400, Note Name: F5
Note ON: Time 154400, Note Name: B5, Velocity: 59
Note OFF: Time 154475, Note Name: B5
Note ON: Time 154480, Note Name: B5, Velocity: 60
Note OFF: Time 154560, Note Name: B5
Note ON: Time 154561, Note Name: C7, Velocity: 61
Note OFF: Time 154641, Note Name: C7
Note ON: Time 154642, Note Name: F#6, Velocity: 61
Note ON: Time 154718, Note Name: B6, Velocity: 60
Note OFF: Time 154722, Note Name: F#6
Note OFF: Time 154798, Note Name: B6
Note ON: Time 154801, Note Name: B5, Velocity: 59
Note ON: Time 154879, Note Name: C6, Velocity: 59
Note OFF: Time 154881, Note Name: B5
Note OFF: Time 154959, Note Name: C6
Note ON: Time 154959, Note Name: F#5, Velocity: 58
Note OFF: Time 155039, Note Name: F#5
Note ON: Time 155042, Note Name: B5, Velocity: 56
Note OFF: Time 155122, Note Name: B5
Note ON: Time 155123, Note Name: B4, Velocity: 56
Note ON: Time 155202, Note Name: C5, Velocity: 56
Note OFF: Time 155203, Note Name: B4
Note OFF: Time 155282, Note Name: C5
Note ON: Time 155283, Note Name: F#4, Velocity: 56
Note ON: Time 155361, Note Name: B4, Velocity: 56
Note OFF: Time 155363, Note Name: F#4
Note OFF: Time 155441, Note Name: B4
Note ON: Time 155443, Note Name: B3, Velocity: 56
Note OFF: Time 155523, Note Name: B3
Note ON: Time 155523, Note Name: D5, Velocity: 59
Note ON: Time 155601, Note Name: G4, Velocity: 59
Note OFF: Time 155603, Note Name: D5
Note ON: Time 155680, Note Name: C#5, Velocity: 60
Note OFF: Time 155681, Note Name: G4
Note OFF: Time 155755, Note Name: C#5
Note ON: Time 155760, Note Name: C#5, Velocity: 61
Note ON: Time 155838, Note Name: D6, Velocity: 61
Note OFF: Time 155840, Note Name: C#5
Note OFF: Time 155918, Note Name: D6
Note ON: Time 155922, Note Name: F5, Velocity: 64
Note ON: Time 156000, Note Name: C#6, Velocity: 66
Note OFF: Time 156002, Note Name: F5
Note OFF: Time 156075, Note Name: C#6
Note ON: Time 156080, Note Name: C#6, Velocity: 66
Note OFF: Time 156160, Note Name: C#6
Note ON: Time 156161, Note Name: D7, Velocity: 67
Note OFF: Time 156241, Note Name: D7
Note ON: Time 156242, Note Name: G6, Velocity: 68
Note OFF: Time 156322, Note Name: G6
Note ON: Time 156322, Note Name: C#7, Velocity: 68
Note OFF: Time 156402, Note Name: C#7
Note ON: Time 156403, Note Name: C#6, Velocity: 69
Note ON: Time 156478, Note Name: D#7, Velocity: 69
Note OFF: Time 156483, Note Name: C#6
Note OFF: Time 156558, Note Name: D#7
Note ON: Time 156560, Note Name: A#6, Velocity: 69
Note OFF: Time 156640, Note Name: A#6
Note ON: Time 156641, Note Name: D7, Velocity: 70
Note ON: Time 156720, Note Name: D6, Velocity: 71
Note OFF: Time 156721, Note Name: D7
Note OFF: Time 156800, Note Name: D6
Note ON: Time 156800, Note Name: D#6, Velocity: 71
Note OFF: Time 156880, Note Name: D#6
Note ON: Time 156882, Note Name: A#5, Velocity: 72
Note ON: Time 156961, Note Name: D6, Velocity: 73
Note OFF: Time 156962, Note Name: A#5
Note ON: Time 157040, Note Name: D5, Velocity: 73
Note OFF: Time 157041, Note Name: D6
Note OFF: Time 157120, Note Name: D5
Note ON: Time 157121, Note Name: D#5, Velocity: 75
Note ON: Time 157200, Note Name: A#4, Velocity: 78
Note OFF: Time 157201, Note Name: D#5
Note OFF: Time 157280, Note Name: A#4
Note ON: Time 157282, Note Name: D5, Velocity: 78
Note ON: Time 157358, Note Name: D4, Velocity: 79
Note OFF: Time 157362, Note Name: D5
Note OFF: Time 157438, Note Name: D4
Note ON: Time 157438, Note Name: E5, Velocity: 78
Note OFF: Time 157518, Note Name: E5
Note ON: Time 157523, Note Name: A4, Velocity: 72
Note ON: Time 157598, Note Name: D#5, Velocity: 78
Note OFF: Time 157603, Note Name: A4
Note OFF: Time 157678, Note Name: D#5
Note ON: Time 157680, Note Name: D#4, Velocity: 72
Note ON: Time 157758, Note Name: E5, Velocity: 78
Note OFF: Time 157760, Note Name: D#4
Note OFF: Time 157838, Note Name: E5
Note ON: Time 157840, Note Name: A4, Velocity: 72
Note OFF: Time 157920, Note Name: A4
Note ON: Time 157920, Note Name: D#5, Velocity: 81
Note OFF: Time 158000, Note Name: D#5
Note ON: Time 158000, Note Name: D#5, Velocity: 75
Note OFF: Time 158080, Note Name: D#5
Note ON: Time 158080, Note Name: E6, Velocity: 86
Note ON: Time 158159, Note Name: A5, Velocity: 79
Note OFF: Time 158160, Note Name: E6
Note OFF: Time 158239, Note Name: A5
Note ON: Time 158240, Note Name: D#6, Velocity: 86
Note OFF: Time 158320, Note Name: D#6
Note ON: Time 158320, Note Name: D#6, Velocity: 80
Note OFF: Time 158400, Note Name: D#6
Note ON: Time 158403, Note Name: E7, Velocity: 86
Note OFF: Time 158483, Note Name: E7
Note ON: Time 158483, Note Name: A6, Velocity: 80
Note ON: Time 158560, Note Name: D#7, Velocity: 86
Note OFF: Time 158563, Note Name: A6
Note OFF: Time 158640, Note Name: D#7
Note ON: Time 158640, Note Name: D#6, Velocity: 81
Note ON: Time 158719, Note Name: E6, Velocity: 86
Note OFF: Time 158720, Note Name: D#6
Note OFF: Time 158799, Note Name: E6
Note ON: Time 158803, Note Name: A5, Velocity: 81
Note ON: Time 158882, Note Name: D#6, Velocity: 86
Note OFF: Time 158883, Note Name: A5
Note ON: Time 158960, Note Name: D#5, Velocity: 80
Note OFF: Time 158962, Note Name: D#6
Note OFF: Time 159040, Note Name: D#5
Note ON: Time 159042, Note Name: E6, Velocity: 86
Note ON: Time 159121, Note Name: A5, Velocity: 86
Note OFF: Time 159122, Note Name: E6
Note ON: Time 159200, Note Name: D#6, Velocity: 86
Note OFF: Time 159201, Note Name: A5
Note OFF: Time 159273, Note Name: D#6
Note ON: Time 159280, Note Name: D#6, Velocity: 80
Note OFF: Time 159360, Note Name: D#6
Note ON: Time 159362, Note Name: E7, Velocity: 86
Note ON: Time 159439, Note Name: A6, Velocity: 80
Note OFF: Time 159442, Note Name: E7
Note ON: Time 159518, Note Name: D#7, Velocity: 86
Note OFF: Time 159519, Note Name: A6
Note OFF: Time 159598, Note Name: D#7
Note ON: Time 159601, Note Name: D#6, Velocity: 86
Note OFF: Time 159681, Note Name: D#6
Note ON: Time 159682, Note Name: E6, Velocity: 86
Note ON: Time 159761, Note Name: A5, Velocity: 80
Note OFF: Time 159762, Note Name: E6
Note ON: Time 159838, Note Name: D#6, Velocity: 82
Note OFF: Time 159841, Note Name: A5
Note OFF: Time 159918, Note Name: D#6
Note ON: Time 159921, Note Name: D#5, Velocity: 78
Note ON: Time 160000, Note Name: E6, Velocity: 82
Note OFF: Time 160001, Note Name: D#5
Note OFF: Time 160080, Note Name: E6
Note ON: Time 160083, Note Name: A5, Velocity: 82
Note ON: Time 160160, Note Name: D#6, Velocity: 82
Note OFF: Time 160163, Note Name: A5
Note OFF: Time 160234, Note Name: D#6
Note ON: Time 160240, Note Name: D#6, Velocity: 78
Note ON: Time 160319, Note Name: E7, Velocity: 80
Note OFF: Time 160320, Note Name: D#6
Note ON: Time 160398, Note Name: A6, Velocity: 68
Note OFF: Time 160399, Note Name: E7
Note OFF: Time 160478, Note Name: A6
Note ON: Time 160479, Note Name: D#7, Velocity: 70
Note OFF: Time 160559, Note Name: D#7
Note ON: Time 160560, Note Name: D#6, Velocity: 62
Note OFF: Time 160640, Note Name: D#6
Note ON: Time 160641, Note Name: E7, Velocity: 66
Note ON: Time 160718, Note Name: A6, Velocity: 60
Note OFF: Time 160721, Note Name: E7
Note OFF: Time 160798, Note Name: A6
Note ON: Time 160800, Note Name: D#7, Velocity: 62
Note ON: Time 160878, Note Name: D#6, Velocity: 58
Note OFF: Time 160880, Note Name: D#7
Note OFF: Time 160958, Note Name: D#6
Note ON: Time 160963, Note Name: E7, Velocity: 59
Note ON: Time 161042, Note Name: A6, Velocity: 53
Note OFF: Time 161043, Note Name: E7
Note ON: Time 161118, Note Name: D#7, Velocity: 55
Note OFF: Time 161122, Note Name: A6
Note OFF: Time 161198, Note Name: D#7
Note ON: Time 161198, Note Name: D#6, Velocity: 49
Note OFF: Time 161278, Note Name: D#6
Note ON: Time 161282, Note Name: E7, Velocity: 60
Note OFF: Time 161362, Note Name: E7
Note ON: Time 161363, Note Name: B6, Velocity: 55
Note ON: Time 161442, Note Name: D#7, Velocity: 61
Note OFF: Time 161443, Note Name: B6
Note OFF: Time 161522, Note Name: D#7
Note ON: Time 161522, Note Name: A6, Velocity: 56
Note ON: Time 161598, Note Name: E7, Velocity: 62
Note OFF: Time 161602, Note Name: A6
Note OFF: Time 161678, Note Name: E7
Note ON: Time 161682, Note Name: B6, Velocity: 56
Note ON: Time 161761, Note Name: D#7, Velocity: 63
Note OFF: Time 161762, Note Name: B6
Note OFF: Time 161841, Note Name: D#7
Note ON: Time 161841, Note Name: A6, Velocity: 57
Note OFF: Time 161921, Note Name: A6
Note ON: Time 161923, Note Name: E7, Velocity: 64
Note ON: Time 161998, Note Name: B6, Velocity: 60
Note OFF: Time 162003, Note Name: E7
Note OFF: Time 162078, Note Name: B6
Note ON: Time 162083, Note Name: D#7, Velocity: 66
Note OFF: Time 162163, Note Name: D#7
Note ON: Time 162163, Note Name: A6, Velocity: 60
Note ON: Time 162241, Note Name: E7, Velocity: 67
Note OFF: Time 162243, Note Name: A6
Note OFF: Time 162321, Note Name: E7
Note ON: Time 162323, Note Name: B6, Velocity: 60
Note ON: Time 162401, Note Name: D#7, Velocity: 68
Note OFF: Time 162403, Note Name: B6
Note ON: Time 162478, Note Name: A6, Velocity: 62
Note OFF: Time 162481, Note Name: D#7
Note OFF: Time 162558, Note Name: A6
Note ON: Time 162563, Note Name: E7, Velocity: 69
Note ON: Time 162641, Note Name: B6, Velocity: 63
Note OFF: Time 162643, Note Name: E7
Note ON: Time 162719, Note Name: D#7, Velocity: 70
Note OFF: Time 162721, Note Name: B6
Note OFF: Time 162799, Note Name: D#7
Note ON: Time 162799, Note Name: A6, Velocity: 64
Note OFF: Time 162879, Note Name: A6
Note ON: Time 162881, Note Name: E7, Velocity: 72
Note OFF: Time 162961, Note Name: E7
Note ON: Time 162963, Note Name: B6, Velocity: 66
Note ON: Time 163042, Note Name: D#7, Velocity: 73
Note OFF: Time 163043, Note Name: B6
Note OFF: Time 163122, Note Name: D#7
Note ON: Time 163123, Note Name: A6, Velocity: 67
Note ON: Time 163200, Note Name: E7, Velocity: 74
Note OFF: Time 163203, Note Name: A6
Note OFF: Time 163280, Note Name: E7
Note ON: Time 163283, Note Name: B6, Velocity: 67
Note ON: Time 163361, Note Name: D#7, Velocity: 75
Note OFF: Time 163363, Note Name: B6
Note OFF: Time 163441, Note Name: D#7
Note ON: Time 163442, Note Name: A6, Velocity: 67
Note ON: Time 163518, Note Name: E7, Velocity: 77
Note OFF: Time 163522, Note Name: A6
Note OFF: Time 163598, Note Name: E7
Note ON: Time 163602, Note Name: B6, Velocity: 69
Note OFF: Time 163682, Note Name: B6
Note ON: Time 163682, Note Name: D#7, Velocity: 78
Note OFF: Time 163762, Note Name: D#7
Note ON: Time 163763, Note Name: A6, Velocity: 69
Note OFF: Time 163843, Note Name: A6
Note ON: Time 163843, Note Name: E7, Velocity: 79
Note ON: Time 163919, Note Name: B6, Velocity: 69
Note OFF: Time 163923, Note Name: E7
Note ON: Time 163998, Note Name: D#7, Velocity: 80
Note OFF: Time 163999, Note Name: B6
Note OFF: Time 164078, Note Name: D#7
Note ON: Time 164079, Note Name: A6, Velocity: 69
Note OFF: Time 164159, Note Name: A6
Note ON: Time 164159, Note Name: E7, Velocity: 81
Note OFF: Time 164239, Note Name: E7
Note ON: Time 164243, Note Name: B6, Velocity: 70
Note OFF: Time 164323, Note Name: B6
Note ON: Time 164323, Note Name: D#7, Velocity: 82
Note ON: Time 164399, Note Name: A6, Velocity: 74
Note OFF: Time 164403, Note Name: D#7
Note OFF: Time 164479, Note Name: A6
Note ON: Time 164479, Note Name: E7, Velocity: 84
Note OFF: Time 164559, Note Name: E7
Note ON: Time 164563, Note Name: B6, Velocity: 78
Note ON: Time 164640, Note Name: D#7, Velocity: 86
Note OFF: Time 164643, Note Name: B6
Note ON: Time 164719, Note Name: A6, Velocity: 78
Note OFF: Time 164720, Note Name: D#7
Note OFF: Time 164799, Note Name: A6
Note ON: Time 164803, Note Name: E7, Velocity: 88
Note ON: Time 164882, Note Name: B6, Velocity: 80
Note OFF: Time 164883, Note Name: E7
Note ON: Time 164960, Note Name: D#7, Velocity: 89
Note OFF: Time 164962, Note Name: B6
Note OFF: Time 165040, Note Name: D#7
Note ON: Time 165040, Note Name: A6, Velocity: 81
Note OFF: Time 165120, Note Name: A6
Note ON: Time 165121, Note Name: F7, Velocity: 89
Note OFF: Time 165201, Note Name: F7
Note ON: Time 165201, Note Name: C7, Velocity: 82
Note OFF: Time 165281, Note Name: C7
Note ON: Time 165283, Note Name: E7, Velocity: 89
Note ON: Time 165362, Note Name: A6, Velocity: 82
Note OFF: Time 165363, Note Name: E7
Note OFF: Time 165442, Note Name: A6
Note ON: Time 165442, Note Name: D7, Velocity: 79
Note ON: Time 165520, Note Name: A6, Velocity: 72
Note OFF: Time 165522, Note Name: D7
Note OFF: Time 165600, Note Name: A6
Note ON: Time 165601, Note Name: C7, Velocity: 79
Note OFF: Time 165681, Note Name: C7
Note ON: Time 165683, Note Name: E6, Velocity: 75
Note ON: Time 165761, Note Name: B6, Velocity: 79
Note OFF: Time 165763, Note Name: E6
Note ON: Time 165839, Note Name: E6, Velocity: 75
Note OFF: Time 165841, Note Name: B6
Note OFF: Time 165919, Note Name: E6
Note ON: Time 165920, Note Name: A6, Velocity: 79
Note OFF: Time 166000, Note Name: A6
Note ON: Time 166001, Note Name: C6, Velocity: 72
Note OFF: Time 166081, Note Name: C6
Note ON: Time 166082, Note Name: F6, Velocity: 79
Note ON: Time 166160, Note Name: C6, Velocity: 73
Note OFF: Time 166162, Note Name: F6
Note OFF: Time 166240, Note Name: C6
Note ON: Time 166242, Note Name: E6, Velocity: 79
Note ON: Time 166319, Note Name: A5, Velocity: 72
Note OFF: Time 166322, Note Name: E6
Note ON: Time 166398, Note Name: D6, Velocity: 79
Note OFF: Time 166399, Note Name: A5
Note OFF: Time 166478, Note Name: D6
Note ON: Time 166478, Note Name: A5, Velocity: 73
Note OFF: Time 166558, Note Name: A5
Note ON: Time 166558, Note Name: C6, Velocity: 79
Note OFF: Time 166638, Note Name: C6
Note ON: Time 166640, Note Name: E5, Velocity: 72
Note ON: Time 166719, Note Name: B5, Velocity: 79
Note OFF: Time 166720, Note Name: E5
Note OFF: Time 166799, Note Name: B5
Note ON: Time 166801, Note Name: E5, Velocity: 72
Note OFF: Time 166881, Note Name: E5
Note ON: Time 166883, Note Name: A5, Velocity: 79
Note ON: Time 166959, Note Name: C5, Velocity: 72
Note OFF: Time 166963, Note Name: A5
Note OFF: Time 167039, Note Name: C5
Note ON: Time 167042, Note Name: F5, Velocity: 79
Note ON: Time 167121, Note Name: C5, Velocity: 72
Note OFF: Time 167122, Note Name: F5
Note OFF: Time 167201, Note Name: C5
Note ON: Time 167203, Note Name: E5, Velocity: 79
Note ON: Time 167278, Note Name: A4, Velocity: 72
Note OFF: Time 167283, Note Name: E5
Note OFF: Time 167358, Note Name: A4
Note ON: Time 167359, Note Name: D5, Velocity: 79
Note OFF: Time 167439, Note Name: D5
Note ON: Time 167440, Note Name: A4, Velocity: 72
Note OFF: Time 167520, Note Name: A4
Note ON: Time 167522, Note Name: C5, Velocity: 79
Note OFF: Time 167602, Note Name: C5
Note ON: Time 167602, Note Name: E4, Velocity: 73
Note ON: Time 167678, Note Name: B4, Velocity: 79
Note OFF: Time 167682, Note Name: E4
Note OFF: Time 167758, Note Name: B4
Note ON: Time 167760, Note Name: E4, Velocity: 72
Note OFF: Time 167840, Note Name: E4
Note ON: Time 167840, Note Name: A4, Velocity: 79
Note OFF: Time 167920, Note Name: A4
Note ON: Time 167923, Note Name: C4, Velocity: 72
Note ON: Time 168000, Note Name: B3, Velocity: 81
Note ON: Time 168000, Note Name: B4, Velocity: 96
Note ON: Time 168000, Note Name: E4, Velocity: 81
Note ON: Time 168000, Note Name: A4, Velocity: 96
Note OFF: Time 168003, Note Name: C4
Note OFF: Time 168480, Note Name: E4
Note OFF: Time 168480, Note Name: B3
Note OFF: Time 168480, Note Name: B4
Note OFF: Time 168480, Note Name: A4
Note ON: Time 168480, Note Name: E4, Velocity: 81
Note ON: Time 168480, Note Name: E5, Velocity: 96
Note ON: Time 168480, Note Name: D4, Velocity: 81
Note ON: Time 168480, Note Name: G#4, Velocity: 96
Note ON: Time 168480, Note Name: B4, Velocity: 96
Note ON: Time 168958, Note Name: A6, Velocity: 100
Note OFF: Time 168960, Note Name: B4
Note OFF: Time 168960, Note Name: G#4
Note OFF: Time 168960, Note Name: D4
Note OFF: Time 168960, Note Name: E4
Note OFF: Time 168960, Note Name: E5
Note OFF: Time 169032, Note Name: A6
Note ON: Time 169042, Note Name: E6, Velocity: 82
Note OFF: Time 169122, Note Name: E6
Note ON: Time 169122, Note Name: G#6, Velocity: 93
Note ON: Time 169201, Note Name: C6, Velocity: 84
Note OFF: Time 169202, Note Name: G#6
Note OFF: Time 169281, Note Name: C6
Note ON: Time 169281, Note Name: G6, Velocity: 93
Note ON: Time 169360, Note Name: E6, Velocity: 82
Note OFF: Time 169361, Note Name: G6
Note ON: Time 169438, Note Name: F#6, Velocity: 93
Note OFF: Time 169440, Note Name: E6
Note OFF: Time 169518, Note Name: F#6
Note ON: Time 169518, Note Name: C6, Velocity: 83
Note OFF: Time 169598, Note Name: C6
Note ON: Time 169602, Note Name: F6, Velocity: 93
Note ON: Time 169678, Note Name: C6, Velocity: 83
Note OFF: Time 169682, Note Name: F6
Note OFF: Time 169758, Note Name: C6
Note ON: Time 169759, Note Name: E6, Velocity: 93
Note OFF: Time 169839, Note Name: E6
Note ON: Time 169839, Note Name: A5, Velocity: 83
Note ON: Time 169918, Note Name: D#6, Velocity: 93
Note OFF: Time 169919, Note Name: A5
Note OFF: Time 169998, Note Name: D#6
Note ON: Time 170001, Note Name: C6, Velocity: 82
Note ON: Time 170079, Note Name: D6, Velocity: 93
Note OFF: Time 170081, Note Name: C6
Note OFF: Time 170159, Note Name: D6
Note ON: Time 170162, Note Name: A5, Velocity: 82
Note ON: Time 170241, Note Name: C#6, Velocity: 93
Note OFF: Time 170242, Note Name: A5
Note OFF: Time 170321, Note Name: C#6
Note ON: Time 170321, Note Name: A5, Velocity: 82
Note OFF: Time 170401, Note Name: A5
Note ON: Time 170403, Note Name: C6, Velocity: 93
Note ON: Time 170481, Note Name: E5, Velocity: 82
Note OFF: Time 170483, Note Name: C6
Note OFF: Time 170561, Note Name: E5
Note ON: Time 170562, Note Name: B5, Velocity: 93
Note ON: Time 170641, Note Name: E5, Velocity: 82
Note OFF: Time 170642, Note Name: B5
Note ON: Time 170718, Note Name: A#5, Velocity: 93
Note OFF: Time 170721, Note Name: E5
Note OFF: Time 170798, Note Name: A#5
Note ON: Time 170799, Note Name: C5, Velocity: 82
Note ON: Time 170878, Note Name: A5, Velocity: 93
Note OFF: Time 170879, Note Name: C5
Note OFF: Time 170958, Note Name: A5
Note ON: Time 170962, Note Name: E5, Velocity: 81
Note OFF: Time 171042, Note Name: E5
Note ON: Time 171043, Note Name: G#5, Velocity: 93
Note ON: Time 171121, Note Name: C5, Velocity: 82
Note OFF: Time 171123, Note Name: G#5
Note ON: Time 171199, Note Name: G5, Velocity: 93
Note OFF: Time 171201, Note Name: C5
Note OFF: Time 171279, Note Name: G5
Note ON: Time 171280, Note Name: E5, Velocity: 82
Note ON: Time 171358, Note Name: F#5, Velocity: 93
Note OFF: Time 171360, Note Name: E5
Note OFF: Time 171438, Note Name: F#5
Note ON: Time 171441, Note Name: C5, Velocity: 82
Note ON: Time 171519, Note Name: F5, Velocity: 93
Note OFF: Time 171521, Note Name: C5
Note OFF: Time 171599, Note Name: F5
Note ON: Time 171601, Note Name: C5, Velocity: 82
Note ON: Time 171680, Note Name: E5, Velocity: 93
Note OFF: Time 171681, Note Name: C5
Note OFF: Time 171760, Note Name: E5
Note ON: Time 171761, Note Name: A4, Velocity: 82
Note OFF: Time 171841, Note Name: A4
Note ON: Time 171842, Note Name: D#5, Velocity: 93
Note OFF: Time 171922, Note Name: D#5
Note ON: Time 171922, Note Name: C5, Velocity: 82
Note OFF: Time 172002, Note Name: C5
Note ON: Time 172002, Note Name: D5, Velocity: 93
Note ON: Time 172081, Note Name: A4, Velocity: 82
Note OFF: Time 172082, Note Name: D5
Note ON: Time 172158, Note Name: C#5, Velocity: 93
Note OFF: Time 172161, Note Name: A4
Note OFF: Time 172238, Note Name: C#5
Note ON: Time 172243, Note Name: A4, Velocity: 82
Note ON: Time 172322, Note Name: C5, Velocity: 93
Note OFF: Time 172323, Note Name: A4
Note ON: Time 172398, Note Name: E4, Velocity: 80
Note OFF: Time 172402, Note Name: C5
Note OFF: Time 172478, Note Name: E4
Note ON: Time 172479, Note Name: B4, Velocity: 92
Note OFF: Time 172559, Note Name: B4
Note ON: Time 172560, Note Name: E4, Velocity: 79
Note ON: Time 172638, Note Name: A#4, Velocity: 90
Note OFF: Time 172640, Note Name: E4
Note OFF: Time 172718, Note Name: A#4
Note ON: Time 172723, Note Name: C4, Velocity: 79
Note ON: Time 172800, Note Name: A4, Velocity: 89
Note OFF: Time 172803, Note Name: C4
Note OFF: Time 172880, Note Name: A4
Note ON: Time 172882, Note Name: E4, Velocity: 77
Note ON: Time 172961, Note Name: G#4, Velocity: 88
Note OFF: Time 172962, Note Name: E4
Note OFF: Time 173041, Note Name: G#4
Note ON: Time 173042, Note Name: C4, Velocity: 77
Note ON: Time 173121, Note Name: G4, Velocity: 86
Note OFF: Time 173122, Note Name: C4
Note OFF: Time 173201, Note Name: G4
Note ON: Time 173203, Note Name: E4, Velocity: 75
Note ON: Time 173279, Note Name: F#4, Velocity: 85
Note OFF: Time 173283, Note Name: E4
Note OFF: Time 173359, Note Name: F#4
Note ON: Time 173363, Note Name: C4, Velocity: 74
Note OFF: Time 173443, Note Name: C4
Note ON: Time 173443, Note Name: F4, Velocity: 84
Note ON: Time 173520, Note Name: C4, Velocity: 73
Note OFF: Time 173523, Note Name: F4
Note ON: Time 173598, Note Name: E4, Velocity: 81
Note OFF: Time 173600, Note Name: C4
Note OFF: Time 173678, Note Name: E4
Note ON: Time 173678, Note Name: A3, Velocity: 72
Note OFF: Time 173758, Note Name: A3
Note ON: Time 173763, Note Name: D#4, Velocity: 79
Note OFF: Time 173843, Note Name: D#4
Note ON: Time 173843, Note Name: C4, Velocity: 70
Note ON: Time 173921, Note Name: D4, Velocity: 78
Note OFF: Time 173923, Note Name: C4
Note ON: Time 173998, Note Name: A3, Velocity: 68
Note OFF: Time 174001, Note Name: D4
Note OFF: Time 174078, Note Name: A3
Note ON: Time 174078, Note Name: C#4, Velocity: 75
Note OFF: Time 174158, Note Name: C#4
Note ON: Time 174159, Note Name: A3, Velocity: 67
Note OFF: Time 174239, Note Name: A3
Note ON: Time 174240, Note Name: C4, Velocity: 74
Note OFF: Time 174320, Note Name: C4
Note ON: Time 174320, Note Name: E3, Velocity: 63
Note OFF: Time 174400, Note Name: E3
Note ON: Time 174402, Note Name: B3, Velocity: 72
Note OFF: Time 174482, Note Name: B3
Note ON: Time 174482, Note Name: E3, Velocity: 60
Note ON: Time 174561, Note Name: A#3, Velocity: 68
Note OFF: Time 174562, Note Name: E3
Note OFF: Time 174641, Note Name: A#3
Note ON: Time 174643, Note Name: C3, Velocity: 58
Note ON: Time 174721, Note Name: A3, Velocity: 100
Note OFF: Time 174723, Note Name: C3
Note OFF: Time 174801, Note Name: A3
Note ON: Time 174803, Note Name: E3, Velocity: 89
Note ON: Time 174879, Note Name: G#3, Velocity: 100
Note OFF: Time 174883, Note Name: E3
Note OFF: Time 174959, Note Name: G#3
Note ON: Time 174959, Note Name: C3, Velocity: 91
Note OFF: Time 175039, Note Name: C3
Note ON: Time 175039, Note Name: G3, Velocity: 100
Note OFF: Time 175119, Note Name: G3
Note ON: Time 175120, Note Name: E3, Velocity: 89
Note ON: Time 175199, Note Name: F#3, Velocity: 100
Note OFF: Time 175200, Note Name: E3
Note OFF: Time 175279, Note Name: F#3
Note ON: Time 175279, Note Name: C3, Velocity: 90
Note OFF: Time 175359, Note Name: C3
Note ON: Time 175363, Note Name: F3, Velocity: 100
Note ON: Time 175442, Note Name: C3, Velocity: 90
Note OFF: Time 175443, Note Name: F3
Note OFF: Time 175522, Note Name: C3
Note ON: Time 175523, Note Name: E3, Velocity: 100
Note ON: Time 175600, Note Name: A2, Velocity: 90
Note OFF: Time 175603, Note Name: E3
Note OFF: Time 175680, Note Name: A2
Note ON: Time 175680, Note Name: D#3, Velocity: 100
Note OFF: Time 175760, Note Name: D#3
Note ON: Time 175763, Note Name: C3, Velocity: 88
Note ON: Time 175838, Note Name: D3, Velocity: 100
Note OFF: Time 175843, Note Name: C3
Note OFF: Time 175918, Note Name: D3
Note ON: Time 175922, Note Name: A2, Velocity: 88
Note ON: Time 175999, Note Name: C#3, Velocity: 100
Note OFF: Time 176002, Note Name: A2
Note OFF: Time 176079, Note Name: C#3
Note ON: Time 176081, Note Name: A2, Velocity: 88
Note ON: Time 176159, Note Name: C3, Velocity: 100
Note OFF: Time 176161, Note Name: A2
Note OFF: Time 176239, Note Name: C3
Note ON: Time 176242, Note Name: E2, Velocity: 88
Note ON: Time 176319, Note Name: B2, Velocity: 100
Note OFF: Time 176322, Note Name: E2
Note OFF: Time 176399, Note Name: B2
Note ON: Time 176399, Note Name: E2, Velocity: 88
Note OFF: Time 176479, Note Name: E2
Note ON: Time 176483, Note Name: A#2, Velocity: 100
Note ON: Time 176560, Note Name: E2, Velocity: 88
Note OFF: Time 176563, Note Name: A#2
Note OFF: Time 176640, Note Name: E2
Note ON: Time 176640, Note Name: A2, Velocity: 121
Note OFF: Time 177120, Note Name: A2
Note ON: Time 177120, Note Name: A3, Velocity: 85
Note ON: Time 177120, Note Name: C4, Velocity: 85
Note ON: Time 177120, Note Name: A4, Velocity: 101
Note ON: Time 177120, Note Name: E4, Velocity: 101
Note OFF: Time 177480, Note Name: E4
Note OFF: Time 177480, Note Name: A3
Note OFF: Time 177480, Note Name: C4
Note OFF: Time 177480, Note Name: A4
Note ON: Time 177480, Note Name: A3, Velocity: 81
Note ON: Time 177480, Note Name: E4, Velocity: 96
Note ON: Time 177480, Note Name: C4, Velocity: 81
Note ON: Time 177480, Note Name: A4, Velocity: 96
Note OFF: Time 177600, Note Name: A4
Note OFF: Time 177600, Note Name: A3
Note OFF: Time 177600, Note Name: E4
Note OFF: Time 177600, Note Name: C4
Note ON: Time 177600, Note Name: A3, Velocity: 85
Note ON: Time 177600, Note Name: E4, Velocity: 101
Note ON: Time 177600, Note Name: C4, Velocity: 85
Note ON: Time 177600, Note Name: A4, Velocity: 101
Note OFF: Time 178080, Note Name: A4
Note OFF: Time 178080, Note Name: A3
Note OFF: Time 178080, Note Name: E4
Note OFF: Time 178080, Note Name: C4
Note ON: Time 178080, Note Name: A3, Velocity: 82
Note ON: Time 178080, Note Name: F4, Velocity: 97
Note ON: Time 178080, Note Name: D4, Velocity: 82
Note ON: Time 178080, Note Name: A4, Velocity: 97
Note OFF: Time 178560, Note Name: A4
Note OFF: Time 178560, Note Name: A3
Note OFF: Time 178560, Note Name: F4
Note OFF: Time 178560, Note Name: D4
Note ON: Time 178560, Note Name: A3, Velocity: 85
Note ON: Time 178560, Note Name: E4, Velocity: 101
Note ON: Time 178560, Note Name: C4, Velocity: 85
Note ON: Time 178560, Note Name: A4, Velocity: 101
Note OFF: Time 179520, Note Name: A4
Note OFF: Time 179520, Note Name: A3
Note OFF: Time 179520, Note Name: E4
Note OFF: Time 179520, Note Name: C4
Note ON: Time 179520, Note Name: A3, Velocity: 84
Note ON: Time 179520, Note Name: D4, Velocity: 99
Note ON: Time 179520, Note Name: B3, Velocity: 84
Note ON: Time 179520, Note Name: A4, Velocity: 99
Note OFF: Time 180480, Note Name: A4
Note OFF: Time 180480, Note Name: A3
Note OFF: Time 180480, Note Name: D4
Note OFF: Time 180480, Note Name: B3
Note ON: Time 180480, Note Name: A3, Velocity: 85
Note ON: Time 180480, Note Name: E4, Velocity: 101
Note ON: Time 180480, Note Name: C4, Velocity: 85
Note ON: Time 180480, Note Name: A4, Velocity: 101
Note ON: Time 181439, Note Name: A2, Velocity: 70
Note ON: Time 181558, Note Name: B2, Velocity: 72
Note OFF: Time 181583, Note Name: A2
Note ON: Time 181682, Note Name: C3, Velocity: 72
Note OFF: Time 181702, Note Name: B2
Note ON: Time 181802, Note Name: D3, Velocity: 73
Note OFF: Time 181826, Note Name: C3
Note ON: Time 181921, Note Name: E3, Velocity: 74
Note OFF: Time 181946, Note Name: D3
Note ON: Time 182041, Note Name: F#3, Velocity: 74
Note OFF: Time 182065, Note Name: E3
Note ON: Time 182163, Note Name: G#3, Velocity: 74
Note OFF: Time 182185, Note Name: F#3
Note ON: Time 182283, Note Name: A3, Velocity: 74
Note OFF: Time 182307, Note Name: G#3
Note ON: Time 182401, Note Name: B3, Velocity: 75
Note OFF: Time 182427, Note Name: A3
Note ON: Time 182521, Note Name: C4, Velocity: 78
Note OFF: Time 182545, Note Name: B3
Note ON: Time 182641, Note Name: D4, Velocity: 78
Note OFF: Time 182665, Note Name: C4
Note ON: Time 182758, Note Name: E4, Velocity: 79
Note OFF: Time 182785, Note Name: D4
Note ON: Time 182882, Note Name: F#4, Velocity: 80
Note OFF: Time 182902, Note Name: E4
Note ON: Time 183003, Note Name: G#4, Velocity: 80
Note OFF: Time 183026, Note Name: F#4
Note ON: Time 183121, Note Name: A4, Velocity: 81
Note OFF: Time 183147, Note Name: G#4
Note ON: Time 183239, Note Name: B4, Velocity: 81
Note OFF: Time 183265, Note Name: A4
Note ON: Time 183358, Note Name: C5, Velocity: 81
Note OFF: Time 183383, Note Name: B4
Note ON: Time 183483, Note Name: D5, Velocity: 82
Note OFF: Time 183502, Note Name: C5
Note ON: Time 183602, Note Name: E5, Velocity: 84
Note OFF: Time 183627, Note Name: D5
Note ON: Time 183718, Note Name: F#5, Velocity: 84
Note OFF: Time 183746, Note Name: E5
Note ON: Time 183838, Note Name: G#5, Velocity: 85
Note OFF: Time 183862, Note Name: F#5
Note ON: Time 183963, Note Name: A5, Velocity: 85
Note OFF: Time 183982, Note Name: G#5
Note ON: Time 184080, Note Name: B5, Velocity: 86
Note OFF: Time 184107, Note Name: A5
Note ON: Time 184202, Note Name: C6, Velocity: 88
Note OFF: Time 184224, Note Name: B5
Note ON: Time 184318, Note Name: D6, Velocity: 88
Note OFF: Time 184346, Note Name: C6
Note ON: Time 184439, Note Name: E6, Velocity: 89
Note OFF: Time 184462, Note Name: D6
Note ON: Time 184558, Note Name: F#6, Velocity: 90
Note OFF: Time 184583, Note Name: E6
Note ON: Time 184678, Note Name: G#6, Velocity: 90
Note OFF: Time 184702, Note Name: F#6
Note OFF: Time 184800, Note Name: A4
Note OFF: Time 184800, Note Name: C4
Note OFF: Time 184800, Note Name: A3
Note OFF: Time 184800, Note Name: E4
Note ON: Time 184800, Note Name: A6, Velocity: 97
Note OFF: Time 184822, Note Name: G#6
Note OFF: Time 185040, Note Name: A6
Track 2: Piano left
Note ON: Time 3840, Note Name: C3, Velocity: 24
Note OFF: Time 4320, Note Name: C3
Note ON: Time 4320, Note Name: C3, Velocity: 24
Note OFF: Time 4680, Note Name: C3
Note ON: Time 4680, Note Name: C3, Velocity: 22
Note OFF: Time 4800, Note Name: C3
Note ON: Time 4800, Note Name: C3, Velocity: 25
Note OFF: Time 5280, Note Name: C3
Note ON: Time 5280, Note Name: F2, Velocity: 24
Note OFF: Time 5760, Note Name: F2
Note ON: Time 5760, Note Name: C2, Velocity: 24
Note OFF: Time 6240, Note Name: C2
Note ON: Time 6240, Note Name: F2, Velocity: 22
Note OFF: Time 6720, Note Name: F2
Note ON: Time 6720, Note Name: C2, Velocity: 20
Note OFF: Time 7200, Note Name: C2
Note ON: Time 7200, Note Name: B1, Velocity: 18
Note OFF: Time 7680, Note Name: B1
Note ON: Time 7680, Note Name: A1, Velocity: 112
Note OFF: Time 7920, Note Name: A1
Note ON: Time 8160, Note Name: E4, Velocity: 88
Note ON: Time 8160, Note Name: C4, Velocity: 74
Note ON: Time 8160, Note Name: A3, Velocity: 74
Note OFF: Time 8520, Note Name: A3
Note OFF: Time 8520, Note Name: C4
Note OFF: Time 8520, Note Name: E4
Note ON: Time 8520, Note Name: A3, Velocity: 70
Note ON: Time 8520, Note Name: C4, Velocity: 70
Note ON: Time 8520, Note Name: E4, Velocity: 82
Note OFF: Time 8640, Note Name: E4
Note OFF: Time 8640, Note Name: C4
Note OFF: Time 8640, Note Name: A3
Note ON: Time 8640, Note Name: E4, Velocity: 88
Note ON: Time 8640, Note Name: C4, Velocity: 74
Note ON: Time 8640, Note Name: A3, Velocity: 74
Note OFF: Time 9120, Note Name: A3
Note OFF: Time 9120, Note Name: C4
Note OFF: Time 9120, Note Name: E4
Note ON: Time 9120, Note Name: A3, Velocity: 77
Note ON: Time 9120, Note Name: C4, Velocity: 77
Note ON: Time 9120, Note Name: F4, Velocity: 92
Note OFF: Time 9600, Note Name: F4
Note OFF: Time 9600, Note Name: C4
Note OFF: Time 9600, Note Name: A3
Note ON: Time 9600, Note Name: A3, Velocity: 74
Note ON: Time 9600, Note Name: C4, Velocity: 74
Note ON: Time 9600, Note Name: E4, Velocity: 88
Note OFF: Time 10080, Note Name: E4
Note OFF: Time 10080, Note Name: C4
Note OFF: Time 10080, Note Name: A3
Note ON: Time 10080, Note Name: E3, Velocity: 70
Note ON: Time 10080, Note Name: A3, Velocity: 70
Note ON: Time 10080, Note Name: C4, Velocity: 82
Note OFF: Time 10560, Note Name: C4
Note OFF: Time 10560, Note Name: A3
Note OFF: Time 10560, Note Name: E3
Note ON: Time 10560, Note Name: A3, Velocity: 70
Note ON: Time 10560, Note Name: C4, Velocity: 70
Note ON: Time 10560, Note Name: E4, Velocity: 82
Note OFF: Time 11520, Note Name: E4
Note OFF: Time 11520, Note Name: C4
Note OFF: Time 11520, Note Name: A3
Note ON: Time 11520, Note Name: A1, Velocity: 99
Note OFF: Time 11760, Note Name: A1
Note ON: Time 12000, Note Name: A2, Velocity: 58
Note ON: Time 12000, Note Name: E3, Velocity: 69
Note OFF: Time 12360, Note Name: E3
Note OFF: Time 12360, Note Name: A2
Note ON: Time 12360, Note Name: A2, Velocity: 50
Note ON: Time 12360, Note Name: E3, Velocity: 61
Note OFF: Time 12480, Note Name: E3
Note OFF: Time 12480, Note Name: A2
Note ON: Time 12480, Note Name: A2, Velocity: 60
Note ON: Time 12480, Note Name: E3, Velocity: 70
Note OFF: Time 12960, Note Name: E3
Note OFF: Time 12960, Note Name: A2
Note ON: Time 12960, Note Name: A2, Velocity: 52
Note ON: Time 12960, Note Name: F3, Velocity: 62
Note OFF: Time 13440, Note Name: F3
Note OFF: Time 13440, Note Name: A2
Note ON: Time 13440, Note Name: A2, Velocity: 55
Note ON: Time 13440, Note Name: E3, Velocity: 63
Note OFF: Time 13920, Note Name: E3
Note OFF: Time 13920, Note Name: A2
Note ON: Time 13920, Note Name: A1, Velocity: 60
Note ON: Time 14400, Note Name: E2, Velocity: 68
Note OFF: Time 15360, Note Name: E2
Note OFF: Time 15360, Note Name: A1
Note ON: Time 15360, Note Name: G#1, Velocity: 99
Note OFF: Time 15600, Note Name: G#1
Note ON: Time 15840, Note Name: F3, Velocity: 66
Note ON: Time 15840, Note Name: D4, Velocity: 77
Note OFF: Time 16200, Note Name: D4
Note OFF: Time 16200, Note Name: F3
Note ON: Time 16200, Note Name: F3, Velocity: 61
Note ON: Time 16200, Note Name: D4, Velocity: 73
Note OFF: Time 16320, Note Name: D4
Note OFF: Time 16320, Note Name: F3
Note ON: Time 16320, Note Name: F3, Velocity: 66
Note ON: Time 16320, Note Name: C4, Velocity: 77
Note OFF: Time 16800, Note Name: C4
Note OFF: Time 16800, Note Name: F3
Note ON: Time 16800, Note Name: A1, Velocity: 70
Note ON: Time 16800, Note Name: A2, Velocity: 84
Note OFF: Time 17280, Note Name: A2
Note OFF: Time 17280, Note Name: A1
Note ON: Time 17280, Note Name: G#1, Velocity: 73
Note ON: Time 17280, Note Name: G#2, Velocity: 86
Note OFF: Time 17520, Note Name: G#2
Note OFF: Time 17520, Note Name: G#1
Note ON: Time 17760, Note Name: G3, Velocity: 77
Note ON: Time 17760, Note Name: D4, Velocity: 66
Note OFF: Time 17920, Note Name: D4
Note OFF: Time 17920, Note Name: G3
Note ON: Time 17920, Note Name: F3, Velocity: 72
Note ON: Time 17920, Note Name: D4, Velocity: 60
Note OFF: Time 18080, Note Name: D4
Note OFF: Time 18080, Note Name: F3
Note ON: Time 18080, Note Name: E3, Velocity: 73
Note ON: Time 18080, Note Name: D4, Velocity: 61
Note OFF: Time 18240, Note Name: D4
Note OFF: Time 18240, Note Name: E3
Note ON: Time 18240, Note Name: E3, Velocity: 77
Note ON: Time 18240, Note Name: C4, Velocity: 66
Note OFF: Time 18720, Note Name: C4
Note OFF: Time 18720, Note Name: E3
Note ON: Time 18720, Note Name: A1, Velocity: 68
Note ON: Time 18720, Note Name: A2, Velocity: 81
Note OFF: Time 19200, Note Name: A2
Note OFF: Time 19200, Note Name: A1
Note ON: Time 19200, Note Name: B1, Velocity: 66
Note ON: Time 19200, Note Name: B2, Velocity: 77
Note OFF: Time 19440, Note Name: B2
Note OFF: Time 19440, Note Name: B1
Note ON: Time 19680, Note Name: G#3, Velocity: 60
Note ON: Time 19680, Note Name: B3, Velocity: 60
Note ON: Time 19680, Note Name: E4, Velocity: 70
Note OFF: Time 19840, Note Name: E4
Note ON: Time 19840, Note Name: G#4, Velocity: 66
Note OFF: Time 20000, Note Name: G#4
Note ON: Time 20000, Note Name: C#5, Velocity: 70
Note OFF: Time 20160, Note Name: C#5
Note OFF: Time 20160, Note Name: B3
Note OFF: Time 20160, Note Name: G#3
Note ON: Time 20160, Note Name: B3, Velocity: 60
Note ON: Time 20160, Note Name: D#4, Velocity: 60
Note ON: Time 20160, Note Name: B4, Velocity: 70
Note ON: Time 20160, Note Name: A4, Velocity: 70
Note OFF: Time 20640, Note Name: A4
Note OFF: Time 20640, Note Name: B3
Note OFF: Time 20640, Note Name: D#4
Note OFF: Time 20640, Note Name: B4
Note ON: Time 20640, Note Name: B2, Velocity: 66
Note ON: Time 20640, Note Name: B3, Velocity: 77
Note OFF: Time 21120, Note Name: B3
Note OFF: Time 21120, Note Name: B2
Note ON: Time 21120, Note Name: E2, Velocity: 66
Note ON: Time 21120, Note Name: E3, Velocity: 77
Note OFF: Time 21360, Note Name: E3
Note OFF: Time 21360, Note Name: E2
Note ON: Time 21600, Note Name: G#4, Velocity: 67
Note ON: Time 21600, Note Name: B3, Velocity: 56
Note OFF: Time 21760, Note Name: B3
Note OFF: Time 21760, Note Name: G#4
Note ON: Time 21760, Note Name: G4, Velocity: 58
Note ON: Time 21760, Note Name: A#3, Velocity: 49
Note OFF: Time 21920, Note Name: A#3
Note OFF: Time 21920, Note Name: G4
Note ON: Time 21920, Note Name: G#4, Velocity: 63
Note ON: Time 21920, Note Name: B3, Velocity: 55
Note OFF: Time 22080, Note Name: B3
Note OFF: Time 22080, Note Name: G#4
Note ON: Time 22080, Note Name: E3, Velocity: 63
Note ON: Time 22080, Note Name: G#3, Velocity: 63
Note ON: Time 22080, Note Name: E4, Velocity: 72
Note OFF: Time 22320, Note Name: E4
Note OFF: Time 22320, Note Name: G#3
Note OFF: Time 22320, Note Name: E3
Note ON: Time 23040, Note Name: A1, Velocity: 100
Note OFF: Time 23280, Note Name: A1
Note ON: Time 23520, Note Name: E4, Velocity: 84
Note ON: Time 23520, Note Name: C4, Velocity: 70
Note ON: Time 23520, Note Name: A3, Velocity: 70
Note OFF: Time 23880, Note Name: A3
Note OFF: Time 23880, Note Name: C4
Note OFF: Time 23880, Note Name: E4
Note ON: Time 23880, Note Name: A3, Velocity: 67
Note ON: Time 23880, Note Name: C4, Velocity: 67
Note ON: Time 23880, Note Name: E4, Velocity: 79
Note OFF: Time 24000, Note Name: E4
Note OFF: Time 24000, Note Name: C4
Note OFF: Time 24000, Note Name: A3
Note ON: Time 24000, Note Name: E4, Velocity: 84
Note ON: Time 24000, Note Name: C4, Velocity: 70
Note ON: Time 24000, Note Name: A3, Velocity: 70
Note OFF: Time 24480, Note Name: A3
Note OFF: Time 24480, Note Name: C4
Note OFF: Time 24480, Note Name: E4
Note ON: Time 24480, Note Name: A3, Velocity: 74
Note ON: Time 24480, Note Name: C4, Velocity: 74
Note ON: Time 24480, Note Name: F4, Velocity: 88
Note OFF: Time 24960, Note Name: F4
Note OFF: Time 24960, Note Name: C4
Note OFF: Time 24960, Note Name: A3
Note ON: Time 24960, Note Name: A3, Velocity: 70
Note ON: Time 24960, Note Name: C4, Velocity: 70
Note ON: Time 24960, Note Name: E4, Velocity: 84
Note OFF: Time 25440, Note Name: E4
Note OFF: Time 25440, Note Name: C4
Note OFF: Time 25440, Note Name: A3
Note ON: Time 25440, Note Name: E3, Velocity: 67
Note ON: Time 25440, Note Name: A3, Velocity: 67
Note ON: Time 25440, Note Name: C4, Velocity: 79
Note OFF: Time 25920, Note Name: C4
Note OFF: Time 25920, Note Name: A3
Note OFF: Time 25920, Note Name: E3
Note ON: Time 25920, Note Name: A3, Velocity: 67
Note ON: Time 25920, Note Name: C4, Velocity: 67
Note ON: Time 25920, Note Name: E4, Velocity: 79
Note OFF: Time 26880, Note Name: E4
Note OFF: Time 26880, Note Name: C4
Note OFF: Time 26880, Note Name: A3
Note ON: Time 26880, Note Name: C1, Velocity: 70
Note ON: Time 26880, Note Name: C2, Velocity: 80
Note OFF: Time 27120, Note Name: C2
Note OFF: Time 27120, Note Name: C1
Note ON: Time 27360, Note Name: G2, Velocity: 58
Note ON: Time 27360, Note Name: E3, Velocity: 69
Note OFF: Time 27720, Note Name: E3
Note OFF: Time 27720, Note Name: G2
Note ON: Time 27720, Note Name: G2, Velocity: 50
Note ON: Time 27720, Note Name: E3, Velocity: 61
Note OFF: Time 27840, Note Name: E3
Note OFF: Time 27840, Note Name: G2
Note ON: Time 27840, Note Name: G2, Velocity: 60
Note ON: Time 27840, Note Name: E3, Velocity: 70
Note OFF: Time 28320, Note Name: E3
Note OFF: Time 28320, Note Name: G2
Note ON: Time 28320, Note Name: G2, Velocity: 52
Note ON: Time 28320, Note Name: F3, Velocity: 62
Note OFF: Time 28800, Note Name: F3
Note OFF: Time 28800, Note Name: G2
Note ON: Time 28800, Note Name: G2, Velocity: 49
Note ON: Time 28800, Note Name: E3, Velocity: 58
Note OFF: Time 29280, Note Name: E3
Note OFF: Time 29280, Note Name: G2
Note ON: Time 29280, Note Name: C3, Velocity: 58
Note ON: Time 29280, Note Name: C2, Velocity: 55
Note OFF: Time 29760, Note Name: C3
Note ON: Time 29760, Note Name: E3, Velocity: 58
Note ON: Time 29760, Note Name: G2, Velocity: 49
Note OFF: Time 30720, Note Name: G2
Note OFF: Time 30720, Note Name: E3
Note OFF: Time 30720, Note Name: C2
Note ON: Time 30720, Note Name: C2, Velocity: 74
Note OFF: Time 30960, Note Name: C2
Note ON: Time 31200, Note Name: E4, Velocity: 55
Note ON: Time 31200, Note Name: A#3, Velocity: 55
Note ON: Time 31200, Note Name: G3, Velocity: 61
Note OFF: Time 31360, Note Name: G3
Note OFF: Time 31360, Note Name: A#3
Note OFF: Time 31360, Note Name: E4
Note ON: Time 31360, Note Name: B2, Velocity: 62
Note OFF: Time 31520, Note Name: B2
Note ON: Time 31520, Note Name: C3, Velocity: 63
Note OFF: Time 31680, Note Name: C3
Note ON: Time 31680, Note Name: C#3, Velocity: 69
Note ON: Time 31680, Note Name: D#4, Velocity: 58
Note ON: Time 31680, Note Name: A#3, Velocity: 58
Note ON: Time 31680, Note Name: G3, Velocity: 58
Note OFF: Time 32160, Note Name: G3
Note OFF: Time 32160, Note Name: C#3
Note OFF: Time 32160, Note Name: D#4
Note OFF: Time 32160, Note Name: A#3
Note ON: Time 32160, Note Name: C#2, Velocity: 60
Note ON: Time 32160, Note Name: C#3, Velocity: 72
Note OFF: Time 32640, Note Name: C#3
Note OFF: Time 32640, Note Name: C#2
Note ON: Time 32640, Note Name: D2, Velocity: 66
Note ON: Time 32640, Note Name: D3, Velocity: 77
Note OFF: Time 32880, Note Name: D3
Note OFF: Time 32880, Note Name: D2
Note ON: Time 33120, Note Name: E4, Velocity: 55
Note ON: Time 33120, Note Name: A#3, Velocity: 55
Note ON: Time 33120, Note Name: G3, Velocity: 63
Note OFF: Time 33280, Note Name: G3
Note OFF: Time 33280, Note Name: A#3
Note OFF: Time 33280, Note Name: E4
Note ON: Time 33280, Note Name: B2, Velocity: 63
Note OFF: Time 33440, Note Name: B2
Note ON: Time 33440, Note Name: C#3, Velocity: 63
Note ON: Time 33555, Note Name: D#3, Velocity: 70
Note OFF: Time 33560, Note Name: C#3
Note ON: Time 33570, Note Name: G3, Velocity: 70
Note ON: Time 33585, Note Name: A#3, Velocity: 58
Note ON: Time 33600, Note Name: D#4, Velocity: 58
Note OFF: Time 34080, Note Name: D#4
Note OFF: Time 34080, Note Name: D#3
Note OFF: Time 34080, Note Name: G3
Note OFF: Time 34080, Note Name: A#3
Note ON: Time 34080, Note Name: D#2, Velocity: 60
Note ON: Time 34080, Note Name: D#3, Velocity: 72
Note OFF: Time 34560, Note Name: D#3
Note OFF: Time 34560, Note Name: D#2
Note ON: Time 34560, Note Name: E2, Velocity: 80
Note ON: Time 34560, Note Name: E3, Velocity: 80
Note OFF: Time 34800, Note Name: E3
Note OFF: Time 34800, Note Name: E2
Note ON: Time 35040, Note Name: C4, Velocity: 88
Note OFF: Time 35400, Note Name: C4
Note ON: Time 35400, Note Name: C4, Velocity: 79
Note OFF: Time 35520, Note Name: C4
Note ON: Time 35520, Note Name: C4, Velocity: 88
Note OFF: Time 36000, Note Name: C4
Note ON: Time 36000, Note Name: C2, Velocity: 55
Note ON: Time 36000, Note Name: C3, Velocity: 63
Note OFF: Time 36480, Note Name: C3
Note OFF: Time 36480, Note Name: C2
Note ON: Time 36480, Note Name: F2, Velocity: 58
Note ON: Time 36480, Note Name: F3, Velocity: 70
Note OFF: Time 36720, Note Name: F3
Note OFF: Time 36720, Note Name: F2
Note ON: Time 36960, Note Name: A4, Velocity: 74
Note OFF: Time 37320, Note Name: A4
Note ON: Time 37320, Note Name: A3, Velocity: 67
Note ON: Time 37440, Note Name: D4, Velocity: 70
Note ON: Time 37440, Note Name: F3, Velocity: 70
Note OFF: Time 37800, Note Name: D4
Note ON: Time 37800, Note Name: E4, Velocity: 67
Note OFF: Time 37920, Note Name: E4
Note ON: Time 37920, Note Name: F4, Velocity: 70
Note OFF: Time 38400, Note Name: F4
Note OFF: Time 38400, Note Name: F3
Note OFF: Time 38400, Note Name: A3
Note ON: Time 38400, Note Name: G1, Velocity: 77
Note ON: Time 38400, Note Name: G2, Velocity: 77
Note OFF: Time 38640, Note Name: G2
Note OFF: Time 38640, Note Name: G1
Note ON: Time 38880, Note Name: G3, Velocity: 70
Note ON: Time 38880, Note Name: B3, Velocity: 70
Note OFF: Time 39040, Note Name: B3
Note ON: Time 39040, Note Name: F4, Velocity: 63
Note OFF: Time 39200, Note Name: F4
Note ON: Time 39200, Note Name: A4, Velocity: 63
Note OFF: Time 39360, Note Name: A4
Note OFF: Time 39360, Note Name: G3
Note ON: Time 39360, Note Name: G4, Velocity: 70
Note OFF: Time 39840, Note Name: G4
Note ON: Time 39840, Note Name: G3, Velocity: 68
Note ON: Time 39840, Note Name: B3, Velocity: 68
Note ON: Time 39840, Note Name: F4, Velocity: 68
Note OFF: Time 40320, Note Name: F4
Note OFF: Time 40320, Note Name: B3
Note OFF: Time 40320, Note Name: G3
Note ON: Time 40320, Note Name: C2, Velocity: 72
Note ON: Time 40320, Note Name: C3, Velocity: 72
Note OFF: Time 40560, Note Name: C3
Note OFF: Time 40560, Note Name: C2
Note ON: Time 40680, Note Name: C3, Velocity: 55
Note ON: Time 40740, Note Name: G3, Velocity: 55
Note ON: Time 40800, Note Name: E4, Velocity: 63
Note OFF: Time 41280, Note Name: E4
Note OFF: Time 41280, Note Name: G3
Note OFF: Time 41280, Note Name: C3
Note ON: Time 42240, Note Name: E2, Velocity: 90
Note ON: Time 42240, Note Name: E1, Velocity: 90
Note OFF: Time 42480, Note Name: E1
Note OFF: Time 42480, Note Name: E2
Note ON: Time 42720, Note Name: B3, Velocity: 77
Note ON: Time 42720, Note Name: G3, Velocity: 66
Note ON: Time 42720, Note Name: E3, Velocity: 66
Note OFF: Time 43080, Note Name: E3
Note OFF: Time 43080, Note Name: G3
Note OFF: Time 43080, Note Name: B3
Note ON: Time 43080, Note Name: E3, Velocity: 60
Note ON: Time 43080, Note Name: G3, Velocity: 60
Note ON: Time 43080, Note Name: B3, Velocity: 72
Note OFF: Time 43200, Note Name: B3
Note OFF: Time 43200, Note Name: G3
Note OFF: Time 43200, Note Name: E3
Note ON: Time 43200, Note Name: B3, Velocity: 77
Note ON: Time 43200, Note Name: G3, Velocity: 66
Note ON: Time 43200, Note Name: E3, Velocity: 66
Note OFF: Time 43680, Note Name: E3
Note OFF: Time 43680, Note Name: G3
Note OFF: Time 43680, Note Name: B3
Note ON: Time 43680, Note Name: E3, Velocity: 67
Note ON: Time 43680, Note Name: G3, Velocity: 67
Note ON: Time 43680, Note Name: C4, Velocity: 80
Note OFF: Time 44160, Note Name: C4
Note OFF: Time 44160, Note Name: G3
Note OFF: Time 44160, Note Name: E3
Note ON: Time 44160, Note Name: E3, Velocity: 66
Note ON: Time 44160, Note Name: G3, Velocity: 66
Note ON: Time 44160, Note Name: B3, Velocity: 77
Note OFF: Time 44640, Note Name: B3
Note OFF: Time 44640, Note Name: G3
Note OFF: Time 44640, Note Name: E3
Note ON: Time 44640, Note Name: E3, Velocity: 60
Note ON: Time 44640, Note Name: G3, Velocity: 72
Note ON: Time 44640, Note Name: B2, Velocity: 60
Note OFF: Time 45120, Note Name: B2
Note OFF: Time 45120, Note Name: G3
Note OFF: Time 45120, Note Name: E3
Note ON: Time 45120, Note Name: E3, Velocity: 60
Note ON: Time 45120, Note Name: B3, Velocity: 72
Note ON: Time 45120, Note Name: G3, Velocity: 60
Note OFF: Time 46080, Note Name: G3
Note OFF: Time 46080, Note Name: B3
Note OFF: Time 46080, Note Name: E3
Note ON: Time 46080, Note Name: E1, Velocity: 74
Note OFF: Time 46320, Note Name: E1
Note ON: Time 46560, Note Name: E2, Velocity: 58
Note ON: Time 46560, Note Name: B2, Velocity: 69
Note OFF: Time 46920, Note Name: B2
Note OFF: Time 46920, Note Name: E2
Note ON: Time 46920, Note Name: B2, Velocity: 61
Note ON: Time 46920, Note Name: E2, Velocity: 50
Note OFF: Time 47040, Note Name: E2
Note OFF: Time 47040, Note Name: B2
Note ON: Time 47040, Note Name: E2, Velocity: 60
Note ON: Time 47040, Note Name: B2, Velocity: 70
Note OFF: Time 47520, Note Name: B2
Note OFF: Time 47520, Note Name: E2
Note ON: Time 47520, Note Name: E2, Velocity: 52
Note ON: Time 47520, Note Name: C3, Velocity: 62
Note OFF: Time 48000, Note Name: C3
Note OFF: Time 48000, Note Name: E2
Note ON: Time 48000, Note Name: E2, Velocity: 55
Note ON: Time 48000, Note Name: B2, Velocity: 63
Note OFF: Time 48480, Note Name: B2
Note OFF: Time 48480, Note Name: E2
Note ON: Time 48480, Note Name: E1, Velocity: 55
Note ON: Time 48960, Note Name: B1, Velocity: 58
Note OFF: Time 49920, Note Name: B1
Note OFF: Time 49920, Note Name: E1
Note ON: Time 49920, Note Name: D#1, Velocity: 70
Note OFF: Time 50160, Note Name: D#1
Note ON: Time 50400, Note Name: C4, Velocity: 77
Note ON: Time 50400, Note Name: D#3, Velocity: 77
Note OFF: Time 50760, Note Name: D#3
Note OFF: Time 50760, Note Name: C4
Note ON: Time 50760, Note Name: C4, Velocity: 73
Note ON: Time 50760, Note Name: D#3, Velocity: 73
Note OFF: Time 50880, Note Name: D#3
Note OFF: Time 50880, Note Name: C4
Note ON: Time 50880, Note Name: E3, Velocity: 77
Note ON: Time 50880, Note Name: C4, Velocity: 77
Note OFF: Time 51360, Note Name: C4
Note OFF: Time 51360, Note Name: E3
Note ON: Time 51360, Note Name: E1, Velocity: 66
Note ON: Time 51360, Note Name: E2, Velocity: 77
Note OFF: Time 51840, Note Name: E2
Note OFF: Time 51840, Note Name: E1
Note ON: Time 51840, Note Name: D#1, Velocity: 67
Note ON: Time 51840, Note Name: D#2, Velocity: 67
Note OFF: Time 52080, Note Name: D#2
Note OFF: Time 52080, Note Name: D#1
Note ON: Time 52320, Note Name: D4, Velocity: 77
Note ON: Time 52320, Note Name: D#3, Velocity: 77
Note OFF: Time 52480, Note Name: D#3
Note OFF: Time 52480, Note Name: D4
Note ON: Time 52480, Note Name: C4, Velocity: 72
Note ON: Time 52480, Note Name: D#3, Velocity: 72
Note OFF: Time 52720, Note Name: D#3
Note OFF: Time 52720, Note Name: C4
Note ON: Time 52720, Note Name: D#3, Velocity: 73
Note ON: Time 52720, Note Name: B3, Velocity: 73
Note OFF: Time 52800, Note Name: B3
Note OFF: Time 52800, Note Name: D#3
Note ON: Time 52800, Note Name: B3, Velocity: 77
Note ON: Time 52800, Note Name: E3, Velocity: 77
Note OFF: Time 53280, Note Name: E3
Note OFF: Time 53280, Note Name: B3
Note ON: Time 53280, Note Name: E1, Velocity: 67
Note ON: Time 53280, Note Name: E2, Velocity: 79
Note OFF: Time 53760, Note Name: E2
Note OFF: Time 53760, Note Name: E1
Note ON: Time 53760, Note Name: F#2, Velocity: 69
Note ON: Time 53760, Note Name: F#1, Velocity: 69
Note OFF: Time 54000, Note Name: F#1
Note OFF: Time 54000, Note Name: F#2
Note ON: Time 54240, Note Name: B3, Velocity: 70
Note ON: Time 54240, Note Name: F#3, Velocity: 60
Note OFF: Time 54400, Note Name: B3
Note ON: Time 54400, Note Name: D#4, Velocity: 66
Note OFF: Time 54560, Note Name: D#4
Note ON: Time 54560, Note Name: G#4, Velocity: 70
Note OFF: Time 54720, Note Name: G#4
Note OFF: Time 54720, Note Name: F#3
Note ON: Time 54720, Note Name: A#3, Velocity: 60
Note ON: Time 54720, Note Name: F#4, Velocity: 70
Note ON: Time 54720, Note Name: E4, Velocity: 70
Note ON: Time 54720, Note Name: F#3, Velocity: 60
Note OFF: Time 55200, Note Name: F#3
Note OFF: Time 55200, Note Name: A#3
Note OFF: Time 55200, Note Name: F#4
Note OFF: Time 55200, Note Name: E4
Note ON: Time 55200, Note Name: F#2, Velocity: 77
Note ON: Time 55200, Note Name: F#1, Velocity: 66
Note OFF: Time 55680, Note Name: F#1
Note OFF: Time 55680, Note Name: F#2
Note ON: Time 55680, Note Name: B1, Velocity: 66
Note ON: Time 55680, Note Name: B2, Velocity: 77
Note OFF: Time 55920, Note Name: B2
Note OFF: Time 55920, Note Name: B1
Note ON: Time 56160, Note Name: F#3, Velocity: 56
Note ON: Time 56160, Note Name: D#4, Velocity: 67
Note OFF: Time 56320, Note Name: D#4
Note OFF: Time 56320, Note Name: F#3
Note ON: Time 56320, Note Name: F3, Velocity: 49
Note ON: Time 56320, Note Name: D4, Velocity: 58
Note OFF: Time 56480, Note Name: D4
Note OFF: Time 56480, Note Name: F3
Note ON: Time 56480, Note Name: D#4, Velocity: 63
Note ON: Time 56480, Note Name: F#3, Velocity: 55
Note OFF: Time 56640, Note Name: F#3
Note OFF: Time 56640, Note Name: D#4
Note ON: Time 56640, Note Name: D#3, Velocity: 65
Note ON: Time 56640, Note Name: B3, Velocity: 76
Note ON: Time 56640, Note Name: B2, Velocity: 65
Note OFF: Time 56880, Note Name: B2
Note OFF: Time 56880, Note Name: B3
Note OFF: Time 56880, Note Name: D#3
Note ON: Time 57600, Note Name: E2, Velocity: 90
Note OFF: Time 57840, Note Name: E2
Note ON: Time 58080, Note Name: B3, Velocity: 77
Note ON: Time 58080, Note Name: G3, Velocity: 66
Note ON: Time 58080, Note Name: E3, Velocity: 66
Note OFF: Time 58440, Note Name: E3
Note OFF: Time 58440, Note Name: G3
Note OFF: Time 58440, Note Name: B3
Note ON: Time 58440, Note Name: E3, Velocity: 60
Note ON: Time 58440, Note Name: G3, Velocity: 60
Note ON: Time 58440, Note Name: B3, Velocity: 72
Note OFF: Time 58560, Note Name: B3
Note OFF: Time 58560, Note Name: G3
Note OFF: Time 58560, Note Name: E3
Note ON: Time 58560, Note Name: B3, Velocity: 77
Note ON: Time 58560, Note Name: G3, Velocity: 66
Note ON: Time 58560, Note Name: E3, Velocity: 66
Note OFF: Time 59040, Note Name: E3
Note OFF: Time 59040, Note Name: G3
Note OFF: Time 59040, Note Name: B3
Note ON: Time 59040, Note Name: E3, Velocity: 67
Note ON: Time 59040, Note Name: G3, Velocity: 67
Note ON: Time 59040, Note Name: C4, Velocity: 80
Note OFF: Time 59520, Note Name: C4
Note OFF: Time 59520, Note Name: G3
Note OFF: Time 59520, Note Name: E3
Note ON: Time 59520, Note Name: E3, Velocity: 66
Note ON: Time 59520, Note Name: G3, Velocity: 66
Note ON: Time 59520, Note Name: B3, Velocity: 77
Note OFF: Time 60000, Note Name: B3
Note OFF: Time 60000, Note Name: G3
Note OFF: Time 60000, Note Name: E3
Note ON: Time 60000, Note Name: B2, Velocity: 60
Note ON: Time 60000, Note Name: E3, Velocity: 60
Note ON: Time 60000, Note Name: G3, Velocity: 72
Note OFF: Time 60480, Note Name: G3
Note OFF: Time 60480, Note Name: E3
Note OFF: Time 60480, Note Name: B2
Note ON: Time 60480, Note Name: E3, Velocity: 60
Note ON: Time 60480, Note Name: G3, Velocity: 60
Note ON: Time 60480, Note Name: B3, Velocity: 72
Note OFF: Time 61440, Note Name: B3
Note OFF: Time 61440, Note Name: G3
Note OFF: Time 61440, Note Name: E3
Note ON: Time 61440, Note Name: G1, Velocity: 62
Note OFF: Time 61680, Note Name: G1
Note ON: Time 61920, Note Name: D2, Velocity: 58
Note ON: Time 61920, Note Name: B2, Velocity: 69
Note OFF: Time 62280, Note Name: B2
Note ON: Time 62280, Note Name: B2, Velocity: 61
Note OFF: Time 62400, Note Name: B2
Note ON: Time 62400, Note Name: B2, Velocity: 70
Note OFF: Time 62880, Note Name: B2
Note ON: Time 62880, Note Name: C3, Velocity: 62
Note OFF: Time 63360, Note Name: C3
Note ON: Time 63360, Note Name: B2, Velocity: 73
Note OFF: Time 63840, Note Name: B2
Note OFF: Time 63840, Note Name: D2
Note ON: Time 63840, Note Name: G1, Velocity: 69
Note ON: Time 64320, Note Name: D2, Velocity: 66
Note OFF: Time 65280, Note Name: D2
Note OFF: Time 65280, Note Name: G1
Note ON: Time 65280, Note Name: G1, Velocity: 75
Note OFF: Time 65520, Note Name: G1
Note ON: Time 65760, Note Name: B3, Velocity: 82
Note ON: Time 65760, Note Name: D3, Velocity: 70
Note OFF: Time 65920, Note Name: D3
Note OFF: Time 65920, Note Name: B3
Note ON: Time 65920, Note Name: F#2, Velocity: 73
Note OFF: Time 66080, Note Name: F#2
Note ON: Time 66080, Note Name: G2, Velocity: 79
Note OFF: Time 66240, Note Name: G2
Note ON: Time 66240, Note Name: G#2, Velocity: 82
Note ON: Time 66240, Note Name: A#3, Velocity: 82
Note ON: Time 66240, Note Name: D3, Velocity: 70
Note OFF: Time 66720, Note Name: D3
Note OFF: Time 66720, Note Name: A#3
Note OFF: Time 66720, Note Name: G#2
Note ON: Time 66720, Note Name: G#1, Velocity: 86
Note OFF: Time 67200, Note Name: G#1
Note ON: Time 67200, Note Name: A1, Velocity: 81
Note OFF: Time 67440, Note Name: A1
Note ON: Time 67680, Note Name: D4, Velocity: 80
Note ON: Time 67680, Note Name: F3, Velocity: 67
Note OFF: Time 67840, Note Name: F3
Note OFF: Time 67840, Note Name: D4
Note ON: Time 67840, Note Name: G#2, Velocity: 73
Note OFF: Time 68000, Note Name: G#2
Note ON: Time 68000, Note Name: A2, Velocity: 79
Note OFF: Time 68160, Note Name: A2
Note ON: Time 68160, Note Name: A#2, Velocity: 82
Note ON: Time 68160, Note Name: D4, Velocity: 82
Note ON: Time 68160, Note Name: G#3, Velocity: 70
Note ON: Time 68160, Note Name: F3, Velocity: 70
Note OFF: Time 68640, Note Name: F3
Note OFF: Time 68640, Note Name: A#2
Note OFF: Time 68640, Note Name: D4
Note OFF: Time 68640, Note Name: G#3
Note ON: Time 68640, Note Name: A#1, Velocity: 94
Note OFF: Time 69120, Note Name: A#1
Note ON: Time 69120, Note Name: B1, Velocity: 90
Note OFF: Time 69360, Note Name: B1
Note ON: Time 69600, Note Name: G3, Velocity: 96
Note OFF: Time 69960, Note Name: G3
Note ON: Time 69960, Note Name: G3, Velocity: 86
Note OFF: Time 70080, Note Name: G3
Note ON: Time 70080, Note Name: G3, Velocity: 96
Note OFF: Time 70560, Note Name: G3
Note ON: Time 70560, Note Name: G1, Velocity: 55
Note ON: Time 70560, Note Name: G2, Velocity: 55
Note OFF: Time 71040, Note Name: G2
Note OFF: Time 71040, Note Name: G1
Note ON: Time 71040, Note Name: C2, Velocity: 60
Note ON: Time 71040, Note Name: C3, Velocity: 60
Note OFF: Time 71280, Note Name: C3
Note OFF: Time 71280, Note Name: C2
Note ON: Time 71520, Note Name: E3, Velocity: 57
Note OFF: Time 71680, Note Name: E3
Note ON: Time 71680, Note Name: C4, Velocity: 57
Note OFF: Time 71840, Note Name: C4
Note ON: Time 71840, Note Name: G#4, Velocity: 57
Note OFF: Time 72000, Note Name: G#4
Note ON: Time 72000, Note Name: F2, Velocity: 57
Note OFF: Time 72240, Note Name: F2
Note ON: Time 72480, Note Name: F3, Velocity: 48
Note ON: Time 72480, Note Name: G#3, Velocity: 57
Note OFF: Time 72640, Note Name: G#3
Note OFF: Time 72640, Note Name: F3
Note ON: Time 72640, Note Name: C#4, Velocity: 57
Note OFF: Time 72800, Note Name: C#4
Note ON: Time 72800, Note Name: G#4, Velocity: 57
Note OFF: Time 72960, Note Name: G#4
Note ON: Time 72960, Note Name: G2, Velocity: 68
Note OFF: Time 73200, Note Name: G2
Note ON: Time 73440, Note Name: G3, Velocity: 52
Note ON: Time 73440, Note Name: C4, Velocity: 62
Note OFF: Time 73600, Note Name: C4
Note OFF: Time 73600, Note Name: G3
Note ON: Time 73600, Note Name: E4, Velocity: 57
Note OFF: Time 73760, Note Name: E4
Note ON: Time 73760, Note Name: G4, Velocity: 57
Note OFF: Time 73920, Note Name: G4
Note ON: Time 73920, Note Name: G2, Velocity: 62
Note OFF: Time 74160, Note Name: G2
Note ON: Time 74400, Note Name: F4, Velocity: 57
Note ON: Time 74400, Note Name: G3, Velocity: 57
Note ON: Time 74400, Note Name: D4, Velocity: 57
Note ON: Time 74400, Note Name: G4, Velocity: 57
Note ON: Time 74850, Note Name: C3, Velocity: 60
Note ON: Time 74865, Note Name: G3, Velocity: 60
Note OFF: Time 74880, Note Name: G4
Note OFF: Time 74880, Note Name: D4
Note OFF: Time 74880, Note Name: F4
Note OFF: Time 74880, Note Name: G3
Note ON: Time 74880, Note Name: E4, Velocity: 60
Note OFF: Time 75360, Note Name: E4
Note OFF: Time 75360, Note Name: G3
Note OFF: Time 75360, Note Name: C3
Note ON: Time 76801, Note Name: A4, Velocity: 66
Note OFF: Time 76881, Note Name: A4
Note ON: Time 76883, Note Name: E4, Velocity: 61
Note ON: Time 76961, Note Name: G4, Velocity: 66
Note OFF: Time 76963, Note Name: E4
Note OFF: Time 77041, Note Name: G4
Note ON: Time 77043, Note Name: C#4, Velocity: 61
Note ON: Time 77121, Note Name: F4, Velocity: 66
Note OFF: Time 77123, Note Name: C#4
Note ON: Time 77200, Note Name: C#4, Velocity: 61
Note OFF: Time 77201, Note Name: F4
Note OFF: Time 77280, Note Name: C#4
Note ON: Time 77280, Note Name: E4, Velocity: 66
Note OFF: Time 77360, Note Name: E4
Note ON: Time 77363, Note Name: A#3, Velocity: 61
Note OFF: Time 77443, Note Name: A#3
Note ON: Time 77443, Note Name: D4, Velocity: 66
Note ON: Time 77519, Note Name: A#3, Velocity: 61
Note OFF: Time 77523, Note Name: D4
Note OFF: Time 77599, Note Name: A#3
Note ON: Time 77599, Note Name: C#4, Velocity: 66
Note OFF: Time 77679, Note Name: C#4
Note ON: Time 77679, Note Name: G3, Velocity: 61
Note OFF: Time 77759, Note Name: G3
Note ON: Time 77762, Note Name: C4, Velocity: 66
Note OFF: Time 77842, Note Name: C4
Note ON: Time 77843, Note Name: G3, Velocity: 61
Note ON: Time 77921, Note Name: A#3, Velocity: 66
Note OFF: Time 77923, Note Name: G3
Note ON: Time 77998, Note Name: E3, Velocity: 61
Note OFF: Time 78001, Note Name: A#3
Note OFF: Time 78078, Note Name: E3
Note ON: Time 78081, Note Name: A3, Velocity: 66
Note ON: Time 78158, Note Name: E3, Velocity: 61
Note OFF: Time 78161, Note Name: A3
Note OFF: Time 78238, Note Name: E3
Note ON: Time 78241, Note Name: G3, Velocity: 66
Note OFF: Time 78321, Note Name: G3
Note ON: Time 78321, Note Name: C#3, Velocity: 61
Note ON: Time 78400, Note Name: F3, Velocity: 61
Note OFF: Time 78401, Note Name: C#3
Note ON: Time 78478, Note Name: C#3, Velocity: 57
Note OFF: Time 78480, Note Name: F3
Note OFF: Time 78558, Note Name: C#3
Note ON: Time 78563, Note Name: E3, Velocity: 61
Note ON: Time 78638, Note Name: A#2, Velocity: 57
Note OFF: Time 78643, Note Name: E3
Note OFF: Time 78718, Note Name: A#2
Note ON: Time 78721, Note Name: D3, Velocity: 61
Note ON: Time 78798, Note Name: A#2, Velocity: 61
Note OFF: Time 78801, Note Name: D3
Note OFF: Time 78878, Note Name: A#2
Note ON: Time 78879, Note Name: C#3, Velocity: 66
Note OFF: Time 78959, Note Name: C#3
Note ON: Time 78961, Note Name: G2, Velocity: 61
Note ON: Time 79039, Note Name: C3, Velocity: 66
Note OFF: Time 79041, Note Name: G2
Note OFF: Time 79119, Note Name: C3
Note ON: Time 79119, Note Name: G2, Velocity: 61
Note OFF: Time 79199, Note Name: G2
Note ON: Time 79201, Note Name: A#2, Velocity: 66
Note ON: Time 79280, Note Name: E2, Velocity: 57
Note OFF: Time 79281, Note Name: A#2
Note OFF: Time 79360, Note Name: E2
Note ON: Time 79360, Note Name: A2, Velocity: 61
Note ON: Time 79439, Note Name: E2, Velocity: 57
Note OFF: Time 79440, Note Name: A2
Note OFF: Time 79519, Note Name: E2
Note ON: Time 79522, Note Name: G2, Velocity: 61
Note ON: Time 79598, Note Name: C#2, Velocity: 57
Note OFF: Time 79602, Note Name: G2
Note OFF: Time 79678, Note Name: C#2
Note ON: Time 79680, Note Name: F2, Velocity: 61
Note OFF: Time 79760, Note Name: F2
Note ON: Time 79761, Note Name: C#2, Velocity: 57
Note OFF: Time 79841, Note Name: C#2
Note ON: Time 79842, Note Name: E2, Velocity: 61
Note ON: Time 79920, Note Name: A#1, Velocity: 57
Note OFF: Time 79922, Note Name: E2
Note ON: Time 79998, Note Name: D2, Velocity: 61
Note OFF: Time 80000, Note Name: A#1
Note OFF: Time 80078, Note Name: D2
Note ON: Time 80080, Note Name: A#1, Velocity: 57
Note OFF: Time 80160, Note Name: A#1
Note ON: Time 80160, Note Name: C#2, Velocity: 61
Note ON: Time 80238, Note Name: G1, Velocity: 57
Note OFF: Time 80240, Note Name: C#2
Note OFF: Time 80318, Note Name: G1
Note ON: Time 80322, Note Name: C2, Velocity: 61
Note OFF: Time 80402, Note Name: C2
Note ON: Time 80402, Note Name: G1, Velocity: 57
Note OFF: Time 80482, Note Name: G1
Note ON: Time 80483, Note Name: A#1, Velocity: 61
Note ON: Time 80561, Note Name: E1, Velocity: 57
Note OFF: Time 80563, Note Name: A#1
Note OFF: Time 80641, Note Name: E1
Note ON: Time 80641, Note Name: C5, Velocity: 66
Note OFF: Time 80721, Note Name: C5
Note ON: Time 80721, Note Name: G4, Velocity: 61
Note OFF: Time 80801, Note Name: G4
Note ON: Time 80802, Note Name: A#4, Velocity: 66
Note OFF: Time 80882, Note Name: A#4
Note ON: Time 80882, Note Name: E4, Velocity: 61
Note OFF: Time 80962, Note Name: E4
Note ON: Time 80963, Note Name: A4, Velocity: 66
Note ON: Time 81040, Note Name: E4, Velocity: 61
Note OFF: Time 81043, Note Name: A4
Note OFF: Time 81120, Note Name: E4
Note ON: Time 81120, Note Name: G4, Velocity: 66
Note ON: Time 81198, Note Name: C#4, Velocity: 61
Note OFF: Time 81200, Note Name: G4
Note OFF: Time 81278, Note Name: C#4
Note ON: Time 81283, Note Name: F4, Velocity: 66
Note ON: Time 81362, Note Name: C#4, Velocity: 61
Note OFF: Time 81363, Note Name: F4
Note ON: Time 81440, Note Name: E4, Velocity: 66
Note OFF: Time 81442, Note Name: C#4
Note ON: Time 81518, Note Name: A#3, Velocity: 61
Note OFF: Time 81520, Note Name: E4
Note OFF: Time 81598, Note Name: A#3
Note ON: Time 81603, Note Name: D4, Velocity: 66
Note ON: Time 81682, Note Name: A#3, Velocity: 61
Note OFF: Time 81683, Note Name: D4
Note ON: Time 81758, Note Name: C#4, Velocity: 66
Note OFF: Time 81762, Note Name: A#3
Note OFF: Time 81838, Note Name: C#4
Note ON: Time 81840, Note Name: G3, Velocity: 61
Note OFF: Time 81920, Note Name: G3
Note ON: Time 81923, Note Name: C4, Velocity: 66
Note ON: Time 81998, Note Name: G3, Velocity: 61
Note OFF: Time 82003, Note Name: C4
Note OFF: Time 82078, Note Name: G3
Note ON: Time 82078, Note Name: A#3, Velocity: 66
Note OFF: Time 82158, Note Name: A#3
Note ON: Time 82159, Note Name: E3, Velocity: 57
Note ON: Time 82238, Note Name: A3, Velocity: 61
Note OFF: Time 82239, Note Name: E3
Note OFF: Time 82318, Note Name: A3
Note ON: Time 82321, Note Name: E3, Velocity: 57
Note ON: Time 82398, Note Name: G3, Velocity: 61
Note OFF: Time 82401, Note Name: E3
Note OFF: Time 82478, Note Name: G3
Note ON: Time 82481, Note Name: C#3, Velocity: 57
Note OFF: Time 82561, Note Name: C#3
Note ON: Time 82561, Note Name: F3, Velocity: 61
Note OFF: Time 82641, Note Name: F3
Note ON: Time 82642, Note Name: C#3, Velocity: 61
Note OFF: Time 82722, Note Name: C#3
Note ON: Time 82722, Note Name: E3, Velocity: 66
Note OFF: Time 82802, Note Name: E3
Note ON: Time 82803, Note Name: A#2, Velocity: 61
Note ON: Time 82882, Note Name: D3, Velocity: 66
Note OFF: Time 82883, Note Name: A#2
Note ON: Time 82959, Note Name: A#2, Velocity: 61
Note OFF: Time 82962, Note Name: D3
Note OFF: Time 83039, Note Name: A#2
Note ON: Time 83042, Note Name: C#3, Velocity: 66
Note ON: Time 83120, Note Name: G2, Velocity: 57
Note OFF: Time 83122, Note Name: C#3
Note OFF: Time 83200, Note Name: G2
Note ON: Time 83203, Note Name: C3, Velocity: 61
Note ON: Time 83282, Note Name: G2, Velocity: 57
Note OFF: Time 83283, Note Name: C3
Note ON: Time 83359, Note Name: A#2, Velocity: 61
Note OFF: Time 83362, Note Name: G2
Note OFF: Time 83439, Note Name: A#2
Note ON: Time 83439, Note Name: E2, Velocity: 57
Note OFF: Time 83519, Note Name: E2
Note ON: Time 83520, Note Name: A2, Velocity: 61
Note ON: Time 83599, Note Name: E2, Velocity: 57
Note OFF: Time 83600, Note Name: A2
Note OFF: Time 83679, Note Name: E2
Note ON: Time 83681, Note Name: G2, Velocity: 61
Note ON: Time 83759, Note Name: C#2, Velocity: 57
Note OFF: Time 83761, Note Name: G2
Note OFF: Time 83839, Note Name: C#2
Note ON: Time 83843, Note Name: F2, Velocity: 61
Note ON: Time 83919, Note Name: C#2, Velocity: 57
Note OFF: Time 83923, Note Name: F2
Note OFF: Time 83999, Note Name: C#2
Note ON: Time 84000, Note Name: E2, Velocity: 61
Note ON: Time 84079, Note Name: A#1, Velocity: 57
Note OFF: Time 84080, Note Name: E2
Note ON: Time 84158, Note Name: D2, Velocity: 61
Note OFF: Time 84159, Note Name: A#1
Note OFF: Time 84238, Note Name: D2
Note ON: Time 84239, Note Name: A#1, Velocity: 57
Note ON: Time 84318, Note Name: C#2, Velocity: 61
Note OFF: Time 84319, Note Name: A#1
Note OFF: Time 84398, Note Name: C#2
Note ON: Time 84402, Note Name: G1, Velocity: 57
Note ON: Time 84480, Note Name: D#2, Velocity: 74
Note OFF: Time 84482, Note Name: G1
Note ON: Time 84487, Note Name: D#1, Velocity: 74
Note OFF: Time 84720, Note Name: D#2
Note OFF: Time 84727, Note Name: D#1
Note ON: Time 84960, Note Name: D#4, Velocity: 64
Note OFF: Time 85320, Note Name: D#4
Note ON: Time 85320, Note Name: D#4, Velocity: 61
Note OFF: Time 85440, Note Name: D#4
Note ON: Time 85440, Note Name: D#3, Velocity: 55
Note ON: Time 85440, Note Name: C4, Velocity: 55
Note ON: Time 85440, Note Name: D#4, Velocity: 66
Note OFF: Time 85920, Note Name: D#4
Note OFF: Time 85920, Note Name: C4
Note OFF: Time 85920, Note Name: D#3
Note ON: Time 85920, Note Name: G#4, Velocity: 64
Note OFF: Time 86280, Note Name: G#4
Note ON: Time 86280, Note Name: C4, Velocity: 61
Note OFF: Time 86400, Note Name: C4
Note ON: Time 86400, Note Name: D#3, Velocity: 50
Note ON: Time 86400, Note Name: D#4, Velocity: 61
Note OFF: Time 86880, Note Name: D#4
Note ON: Time 86880, Note Name: A#3, Velocity: 64
Note OFF: Time 87240, Note Name: A#3
Note ON: Time 87240, Note Name: D#4, Velocity: 61
Note OFF: Time 87360, Note Name: D#4
Note ON: Time 87360, Note Name: G#2, Velocity: 50
Note ON: Time 87360, Note Name: C4, Velocity: 61
Note OFF: Time 87840, Note Name: C4
Note OFF: Time 87840, Note Name: G#2
Note OFF: Time 87840, Note Name: D#3
Note ON: Time 88320, Note Name: B1, Velocity: 48
Note ON: Time 88320, Note Name: B2, Velocity: 48
Note OFF: Time 88560, Note Name: B2
Note OFF: Time 88560, Note Name: B1
Note ON: Time 88800, Note Name: B3, Velocity: 53
Note OFF: Time 89160, Note Name: B3
Note ON: Time 89160, Note Name: B3, Velocity: 50
Note OFF: Time 89280, Note Name: B3
Note ON: Time 89280, Note Name: B2, Velocity: 46
Note ON: Time 89280, Note Name: G#3, Velocity: 46
Note ON: Time 89280, Note Name: B3, Velocity: 55
Note OFF: Time 89760, Note Name: B3
Note OFF: Time 89760, Note Name: G#3
Note OFF: Time 89760, Note Name: B2
Note ON: Time 89760, Note Name: E4, Velocity: 53
Note OFF: Time 90000, Note Name: E4
Note ON: Time 90120, Note Name: G#3, Velocity: 50
Note OFF: Time 90240, Note Name: G#3
Note ON: Time 90240, Note Name: B2, Velocity: 42
Note ON: Time 90240, Note Name: B3, Velocity: 50
Note OFF: Time 90720, Note Name: B3
Note ON: Time 90720, Note Name: F#3, Velocity: 50
Note OFF: Time 90880, Note Name: F#3
Note ON: Time 90880, Note Name: G#3, Velocity: 42
Note OFF: Time 91040, Note Name: G#3
Note ON: Time 91040, Note Name: A3, Velocity: 48
Note OFF: Time 91170, Note Name: A3
Note ON: Time 91170, Note Name: E2, Velocity: 38
Note ON: Time 91185, Note Name: B2, Velocity: 38
Note OFF: Time 91200, Note Name: B2
Note ON: Time 91200, Note Name: G#3, Velocity: 45
Note OFF: Time 91680, Note Name: G#3
Note OFF: Time 91680, Note Name: B2
Note OFF: Time 91680, Note Name: E2
Note ON: Time 92160, Note Name: E2, Velocity: 70
Note ON: Time 92160, Note Name: E3, Velocity: 70
Note OFF: Time 92640, Note Name: E3
Note OFF: Time 92640, Note Name: E2
Note ON: Time 92640, Note Name: B1, Velocity: 58
Note ON: Time 92640, Note Name: B2, Velocity: 70
Note OFF: Time 92800, Note Name: B2
Note OFF: Time 92800, Note Name: B1
Note ON: Time 92800, Note Name: G#1, Velocity: 55
Note ON: Time 92800, Note Name: G#2, Velocity: 66
Note OFF: Time 92960, Note Name: G#2
Note OFF: Time 92960, Note Name: G#1
Note ON: Time 92960, Note Name: B1, Velocity: 62
Note ON: Time 92960, Note Name: B2, Velocity: 74
Note OFF: Time 93120, Note Name: B2
Note OFF: Time 93120, Note Name: B1
Note ON: Time 93120, Note Name: E1, Velocity: 67
Note ON: Time 93120, Note Name: E2, Velocity: 79
Note OFF: Time 93300, Note Name: E2
Note OFF: Time 93300, Note Name: E1
Note ON: Time 93480, Note Name: E2, Velocity: 66
Note ON: Time 93480, Note Name: E3, Velocity: 77
Note OFF: Time 93600, Note Name: E3
Note OFF: Time 93600, Note Name: E2
Note ON: Time 93600, Note Name: F#2, Velocity: 70
Note ON: Time 93600, Note Name: F#3, Velocity: 84
Note OFF: Time 93960, Note Name: F#3
Note OFF: Time 93960, Note Name: F#2
Note ON: Time 93960, Note Name: E2, Velocity: 67
Note ON: Time 93960, Note Name: E3, Velocity: 79
Note OFF: Time 94080, Note Name: E3
Note OFF: Time 94080, Note Name: E2
Note ON: Time 94080, Note Name: D#2, Velocity: 73
Note ON: Time 94080, Note Name: D#3, Velocity: 86
Note OFF: Time 94560, Note Name: D#3
Note OFF: Time 94560, Note Name: D#2
Note ON: Time 94560, Note Name: C2, Velocity: 62
Note ON: Time 94560, Note Name: C3, Velocity: 74
Note OFF: Time 95040, Note Name: C3
Note OFF: Time 95040, Note Name: C2
Note ON: Time 95040, Note Name: D#2, Velocity: 69
Note ON: Time 95040, Note Name: D#3, Velocity: 82
Note OFF: Time 95520, Note Name: D#3
Note OFF: Time 95520, Note Name: D#2
Note ON: Time 95520, Note Name: F2, Velocity: 66
Note ON: Time 95520, Note Name: F3, Velocity: 77
Note OFF: Time 95680, Note Name: F3
Note OFF: Time 95680, Note Name: F2
Note ON: Time 95680, Note Name: F#2, Velocity: 58
Note ON: Time 95680, Note Name: F#3, Velocity: 70
Note OFF: Time 95840, Note Name: F#3
Note OFF: Time 95840, Note Name: F#2
Note ON: Time 95840, Note Name: G2, Velocity: 62
Note ON: Time 95840, Note Name: G3, Velocity: 74
Note OFF: Time 96000, Note Name: G3
Note OFF: Time 96000, Note Name: G2
Note ON: Time 96000, Note Name: G#2, Velocity: 66
Note ON: Time 96000, Note Name: G#3, Velocity: 77
Note OFF: Time 96480, Note Name: G#3
Note OFF: Time 96480, Note Name: G#2
Note ON: Time 96480, Note Name: D#2, Velocity: 67
Note ON: Time 96480, Note Name: D#3, Velocity: 79
Note OFF: Time 96640, Note Name: D#3
Note OFF: Time 96640, Note Name: D#2
Note ON: Time 96640, Note Name: C2, Velocity: 58
Note ON: Time 96640, Note Name: C3, Velocity: 70
Note OFF: Time 96800, Note Name: C3
Note OFF: Time 96800, Note Name: C2
Note ON: Time 96800, Note Name: D#2, Velocity: 62
Note ON: Time 96800, Note Name: D#3, Velocity: 74
Note OFF: Time 96960, Note Name: D#3
Note OFF: Time 96960, Note Name: D#2
Note ON: Time 96960, Note Name: G#1, Velocity: 67
Note ON: Time 96960, Note Name: G#2, Velocity: 79
Note OFF: Time 97140, Note Name: G#2
Note OFF: Time 97140, Note Name: G#1
Note ON: Time 97320, Note Name: G#2, Velocity: 66
Note ON: Time 97320, Note Name: G#3, Velocity: 77
Note OFF: Time 97440, Note Name: G#3
Note OFF: Time 97440, Note Name: G#2
Note ON: Time 97440, Note Name: A#2, Velocity: 70
Note ON: Time 97440, Note Name: A#3, Velocity: 84
Note OFF: Time 97800, Note Name: A#3
Note OFF: Time 97800, Note Name: A#2
Note ON: Time 97800, Note Name: G#2, Velocity: 67
Note ON: Time 97800, Note Name: G#3, Velocity: 79
Note OFF: Time 97920, Note Name: G#3
Note OFF: Time 97920, Note Name: G#2
Note ON: Time 97920, Note Name: G2, Velocity: 73
Note ON: Time 97920, Note Name: G3, Velocity: 86
Note OFF: Time 98400, Note Name: G3
Note OFF: Time 98400, Note Name: G2
Note ON: Time 98400, Note Name: E2, Velocity: 62
Note ON: Time 98400, Note Name: E3, Velocity: 74
Note OFF: Time 98880, Note Name: E3
Note OFF: Time 98880, Note Name: E2
Note ON: Time 98880, Note Name: G2, Velocity: 69
Note ON: Time 98880, Note Name: G3, Velocity: 82
Note OFF: Time 99360, Note Name: G3
Note OFF: Time 99360, Note Name: G2
Note ON: Time 99360, Note Name: A2, Velocity: 66
Note ON: Time 99360, Note Name: A3, Velocity: 77
Note OFF: Time 99520, Note Name: A3
Note OFF: Time 99520, Note Name: A2
Note ON: Time 99520, Note Name: A#2, Velocity: 67
Note ON: Time 99520, Note Name: A#3, Velocity: 79
Note OFF: Time 99680, Note Name: A#3
Note OFF: Time 99680, Note Name: A#2
Note ON: Time 99680, Note Name: B2, Velocity: 69
Note ON: Time 99680, Note Name: B3, Velocity: 82
Note OFF: Time 99840, Note Name: B3
Note OFF: Time 99840, Note Name: B2
Note ON: Time 99840, Note Name: C3, Velocity: 75
Note ON: Time 99840, Note Name: C4, Velocity: 90
Note ON: Time 100290, Note Name: C2, Velocity: 63
Note ON: Time 100305, Note Name: G2, Velocity: 63
Note OFF: Time 100320, Note Name: C4
Note OFF: Time 100320, Note Name: C3
Note ON: Time 100320, Note Name: E3, Velocity: 82
Note ON: Time 100770, Note Name: F2, Velocity: 67
Note ON: Time 100785, Note Name: C3, Velocity: 68
Note OFF: Time 100800, Note Name: E3
Note OFF: Time 100800, Note Name: G2
Note OFF: Time 100800, Note Name: C2
Note ON: Time 100800, Note Name: A3, Velocity: 89
Note ON: Time 101265, Note Name: B1, Velocity: 60
Note OFF: Time 101280, Note Name: A3
Note OFF: Time 101280, Note Name: C3
Note OFF: Time 101280, Note Name: F2
Note ON: Time 101280, Note Name: F#3, Velocity: 82
Note ON: Time 101730, Note Name: E2, Velocity: 62
Note ON: Time 101745, Note Name: B2, Velocity: 63
Note OFF: Time 101760, Note Name: F#3
Note OFF: Time 101760, Note Name: B1
Note ON: Time 101760, Note Name: G3, Velocity: 90
Note ON: Time 102210, Note Name: A2, Velocity: 55
Note ON: Time 102225, Note Name: E3, Velocity: 56
Note OFF: Time 102240, Note Name: G3
Note OFF: Time 102240, Note Name: B2
Note OFF: Time 102240, Note Name: E2
Note ON: Time 102240, Note Name: C#4, Velocity: 82
Note ON: Time 102690, Note Name: D3, Velocity: 62
Note ON: Time 102705, Note Name: A3, Velocity: 66
Note OFF: Time 102720, Note Name: C#4
Note OFF: Time 102720, Note Name: E3
Note OFF: Time 102720, Note Name: A2
Note ON: Time 102720, Note Name: D4, Velocity: 89
Note ON: Time 103170, Note Name: A2, Velocity: 55
Note ON: Time 103185, Note Name: E3, Velocity: 55
Note OFF: Time 103200, Note Name: D4
Note OFF: Time 103200, Note Name: A3
Note OFF: Time 103200, Note Name: D3
Note ON: Time 103200, Note Name: C4, Velocity: 82
Note OFF: Time 103680, Note Name: C4
Note OFF: Time 103680, Note Name: A2
Note OFF: Time 103680, Note Name: E3
Note ON: Time 103680, Note Name: D2, Velocity: 80
Note ON: Time 103680, Note Name: D3, Velocity: 94
Note OFF: Time 103920, Note Name: D3
Note OFF: Time 103920, Note Name: D2
Note ON: Time 104160, Note Name: F3, Velocity: 77
Note ON: Time 104160, Note Name: F4, Velocity: 90
Note OFF: Time 104640, Note Name: F4
Note OFF: Time 104640, Note Name: F3
Note ON: Time 104640, Note Name: A#2, Velocity: 74
Note ON: Time 104640, Note Name: A#3, Velocity: 88
Note OFF: Time 104880, Note Name: A#3
Note OFF: Time 104880, Note Name: A#2
Note ON: Time 105000, Note Name: C3, Velocity: 79
Note ON: Time 105000, Note Name: C4, Velocity: 93
Note OFF: Time 105120, Note Name: C4
Note OFF: Time 105120, Note Name: C3
Note ON: Time 105120, Note Name: B2, Velocity: 74
Note ON: Time 105120, Note Name: B3, Velocity: 89
Note OFF: Time 105600, Note Name: B3
Note OFF: Time 105600, Note Name: B2
Note ON: Time 105600, Note Name: D#2, Velocity: 80
Note ON: Time 105600, Note Name: D#3, Velocity: 94
Note OFF: Time 105840, Note Name: D#3
Note OFF: Time 105840, Note Name: D#2
Note ON: Time 106080, Note Name: F#3, Velocity: 77
Note ON: Time 106080, Note Name: F#4, Velocity: 90
Note OFF: Time 106560, Note Name: F#4
Note OFF: Time 106560, Note Name: F#3
Note ON: Time 106560, Note Name: A2, Velocity: 74
Note ON: Time 106560, Note Name: A3, Velocity: 88
Note OFF: Time 106800, Note Name: A3
Note OFF: Time 106800, Note Name: A2
Note ON: Time 106920, Note Name: D3, Velocity: 79
Note ON: Time 106920, Note Name: D4, Velocity: 93
Note OFF: Time 107040, Note Name: D4
Note OFF: Time 107040, Note Name: D3
Note ON: Time 107040, Note Name: C3, Velocity: 74
Note ON: Time 107040, Note Name: C4, Velocity: 89
Note OFF: Time 107520, Note Name: C4
Note OFF: Time 107520, Note Name: C3
Note ON: Time 107520, Note Name: E3, Velocity: 62
Note ON: Time 107520, Note Name: E2, Velocity: 62
Note OFF: Time 107760, Note Name: E2
Note ON: Time 108000, Note Name: B3, Velocity: 80
Note OFF: Time 108360, Note Name: B3
Note ON: Time 108360, Note Name: E4, Velocity: 77
Note OFF: Time 108480, Note Name: E4
Note ON: Time 108480, Note Name: D4, Velocity: 77
Note OFF: Time 109440, Note Name: D4
Note OFF: Time 109440, Note Name: E3
Note ON: Time 109440, Note Name: E1, Velocity: 61
Note ON: Time 109440, Note Name: E2, Velocity: 61
Note OFF: Time 109680, Note Name: E2
Note OFF: Time 109680, Note Name: E1
Note ON: Time 109920, Note Name: G#3, Velocity: 80
Note OFF: Time 110280, Note Name: G#3
Note ON: Time 110280, Note Name: C#4, Velocity: 77
Note OFF: Time 110400, Note Name: C#4
Note ON: Time 110400, Note Name: B3, Velocity: 77
Note OFF: Time 111360, Note Name: B3
Note ON: Time 111360, Note Name: E2, Velocity: 74
Note ON: Time 111840, Note Name: F3, Velocity: 79
Note OFF: Time 112200, Note Name: F3
Note ON: Time 112200, Note Name: F3, Velocity: 77
Note OFF: Time 112320, Note Name: F3
Note ON: Time 112320, Note Name: F3, Velocity: 77
Note OFF: Time 112800, Note Name: F3
Note ON: Time 112800, Note Name: G3, Velocity: 80
Note OFF: Time 113280, Note Name: G3
Note ON: Time 113280, Note Name: F3, Velocity: 79
Note OFF: Time 113760, Note Name: F3
Note ON: Time 113760, Note Name: D3, Velocity: 79
Note OFF: Time 114240, Note Name: D3
Note ON: Time 114240, Note Name: F3, Velocity: 77
Note ON: Time 115199, Note Name: E2, Velocity: 82
Note OFF: Time 115200, Note Name: F3
Note OFF: Time 115200, Note Name: E2
Note OFF: Time 115279, Note Name: E2
Note ON: Time 115279, Note Name: B2, Velocity: 70
Note ON: Time 115359, Note Name: G#2, Velocity: 79
Note OFF: Time 115375, Note Name: B2
Note ON: Time 115442, Note Name: D3, Velocity: 68
Note OFF: Time 115455, Note Name: G#2
Note ON: Time 115521, Note Name: G#2, Velocity: 74
Note OFF: Time 115538, Note Name: D3
Note ON: Time 115598, Note Name: D3, Velocity: 68
Note OFF: Time 115617, Note Name: G#2
Note ON: Time 115679, Note Name: B2, Velocity: 74
Note OFF: Time 115694, Note Name: D3
Note ON: Time 115761, Note Name: F3, Velocity: 66
Note OFF: Time 115775, Note Name: B2
Note ON: Time 115839, Note Name: B2, Velocity: 74
Note OFF: Time 115857, Note Name: F3
Note ON: Time 115921, Note Name: F3, Velocity: 67
Note OFF: Time 115935, Note Name: B2
Note ON: Time 115998, Note Name: D3, Velocity: 74
Note OFF: Time 116017, Note Name: F3
Note ON: Time 116080, Note Name: G#3, Velocity: 66
Note OFF: Time 116094, Note Name: D3
Note ON: Time 116160, Note Name: D3, Velocity: 74
Note OFF: Time 116176, Note Name: G#3
Note ON: Time 116239, Note Name: G#3, Velocity: 66
Note OFF: Time 116256, Note Name: D3
Note ON: Time 116322, Note Name: F3, Velocity: 74
Note OFF: Time 116335, Note Name: G#3
Note ON: Time 116403, Note Name: B3, Velocity: 66
Note OFF: Time 116418, Note Name: F3
Note ON: Time 116481, Note Name: F3, Velocity: 73
Note OFF: Time 116499, Note Name: B3
Note ON: Time 116563, Note Name: B3, Velocity: 63
Note OFF: Time 116577, Note Name: F3
Note ON: Time 116642, Note Name: G#3, Velocity: 73
Note OFF: Time 116659, Note Name: B3
Note ON: Time 116721, Note Name: D4, Velocity: 63
Note OFF: Time 116738, Note Name: G#3
Note ON: Time 116801, Note Name: G#3, Velocity: 72
Note OFF: Time 116817, Note Name: D4
Note ON: Time 116881, Note Name: D4, Velocity: 63
Note OFF: Time 116897, Note Name: G#3
Note ON: Time 116961, Note Name: B3, Velocity: 72
Note OFF: Time 116977, Note Name: D4
Note ON: Time 117039, Note Name: F4, Velocity: 63
Note OFF: Time 117057, Note Name: B3
Note ON: Time 117119, Note Name: B3, Velocity: 72
Note OFF: Time 117135, Note Name: F4
Note ON: Time 117199, Note Name: F4, Velocity: 64
Note OFF: Time 117215, Note Name: B3
Note ON: Time 117279, Note Name: D4, Velocity: 72
Note OFF: Time 117295, Note Name: F4
Note ON: Time 117360, Note Name: G#4, Velocity: 63
Note OFF: Time 117375, Note Name: D4
Note ON: Time 117442, Note Name: D4, Velocity: 72
Note OFF: Time 117456, Note Name: G#4
Note ON: Time 117519, Note Name: G#4, Velocity: 63
Note OFF: Time 117538, Note Name: D4
Note ON: Time 117602, Note Name: F4, Velocity: 72
Note OFF: Time 117615, Note Name: G#4
Note ON: Time 117679, Note Name: B4, Velocity: 63
Note OFF: Time 117698, Note Name: F4
Note ON: Time 117758, Note Name: F4, Velocity: 72
Note OFF: Time 117775, Note Name: B4
Note ON: Time 117841, Note Name: B4, Velocity: 63
Note OFF: Time 117854, Note Name: F4
Note ON: Time 117920, Note Name: G#4, Velocity: 72
Note OFF: Time 117937, Note Name: B4
Note ON: Time 118000, Note Name: D5, Velocity: 63
Note OFF: Time 118016, Note Name: G#4
Note ON: Time 118080, Note Name: G#5, Velocity: 88
Note OFF: Time 118200, Note Name: G#5
Note OFF: Time 118240, Note Name: D5
Note ON: Time 119040, Note Name: B1, Velocity: 82
Note ON: Time 119122, Note Name: F2, Velocity: 67
Note OFF: Time 119136, Note Name: B1
Note ON: Time 119199, Note Name: D2, Velocity: 79
Note OFF: Time 119218, Note Name: F2
Note ON: Time 119279, Note Name: G#2, Velocity: 67
Note OFF: Time 119295, Note Name: D2
Note ON: Time 119359, Note Name: D2, Velocity: 79
Note OFF: Time 119375, Note Name: G#2
Note ON: Time 119439, Note Name: G#2, Velocity: 67
Note OFF: Time 119455, Note Name: D2
Note ON: Time 119522, Note Name: F2, Velocity: 74
Note OFF: Time 119535, Note Name: G#2
Note ON: Time 119600, Note Name: B2, Velocity: 67
Note OFF: Time 119618, Note Name: F2
Note ON: Time 119678, Note Name: F2, Velocity: 74
Note OFF: Time 119696, Note Name: B2
Note ON: Time 119763, Note Name: B2, Velocity: 68
Note OFF: Time 119774, Note Name: F2
Note ON: Time 119838, Note Name: G#2, Velocity: 74
Note OFF: Time 119859, Note Name: B2
Note ON: Time 119921, Note Name: D3, Velocity: 67
Note OFF: Time 119934, Note Name: G#2
Note ON: Time 120001, Note Name: G#2, Velocity: 74
Note OFF: Time 120017, Note Name: D3
Note ON: Time 120080, Note Name: D3, Velocity: 66
Note OFF: Time 120097, Note Name: G#2
Note ON: Time 120160, Note Name: B2, Velocity: 74
Note OFF: Time 120176, Note Name: D3
Note ON: Time 120240, Note Name: F3, Velocity: 64
Note OFF: Time 120256, Note Name: B2
Note ON: Time 120321, Note Name: B2, Velocity: 73
Note OFF: Time 120336, Note Name: F3
Note ON: Time 120402, Note Name: F3, Velocity: 66
Note OFF: Time 120417, Note Name: B2
Note ON: Time 120479, Note Name: D3, Velocity: 73
Note OFF: Time 120498, Note Name: F3
Note ON: Time 120561, Note Name: G#3, Velocity: 64
Note OFF: Time 120575, Note Name: D3
Note ON: Time 120638, Note Name: D3, Velocity: 72
Note OFF: Time 120657, Note Name: G#3
Note ON: Time 120721, Note Name: G#3, Velocity: 64
Note OFF: Time 120734, Note Name: D3
Note ON: Time 120800, Note Name: F3, Velocity: 72
Note OFF: Time 120817, Note Name: G#3
Note ON: Time 120883, Note Name: B3, Velocity: 64
Note OFF: Time 120896, Note Name: F3
Note ON: Time 120960, Note Name: F3, Velocity: 73
Note OFF: Time 120979, Note Name: B3
Note ON: Time 121040, Note Name: B3, Velocity: 64
Note OFF: Time 121056, Note Name: F3
Note ON: Time 121121, Note Name: G#3, Velocity: 72
Note OFF: Time 121136, Note Name: B3
Note ON: Time 121202, Note Name: D4, Velocity: 64
Note OFF: Time 121217, Note Name: G#3
Note ON: Time 121278, Note Name: G#3, Velocity: 72
Note OFF: Time 121298, Note Name: D4
Note ON: Time 121358, Note Name: D4, Velocity: 63
Note OFF: Time 121374, Note Name: G#3
Note ON: Time 121439, Note Name: B3, Velocity: 72
Note OFF: Time 121454, Note Name: D4
Note ON: Time 121522, Note Name: F4, Velocity: 63
Note OFF: Time 121535, Note Name: B3
Note ON: Time 121603, Note Name: B3, Velocity: 72
Note OFF: Time 121618, Note Name: F4
Note ON: Time 121679, Note Name: F4, Velocity: 63
Note OFF: Time 121699, Note Name: B3
Note ON: Time 121759, Note Name: D4, Velocity: 72
Note OFF: Time 121775, Note Name: F4
Note ON: Time 121841, Note Name: G#4, Velocity: 63
Note ON: Time 121920, Note Name: F4, Velocity: 71
Note ON: Time 121920, Note Name: B4, Velocity: 81
Note OFF: Time 121921, Note Name: G#4
Note OFF: Time 122040, Note Name: B4
Note OFF: Time 122040, Note Name: F4
Note OFF: Time 122095, Note Name: D4
Note ON: Time 122880, Note Name: F4, Velocity: 60
Note OFF: Time 122960, Note Name: F4
Note ON: Time 122960, Note Name: D4, Velocity: 53
Note OFF: Time 123040, Note Name: D4
Note ON: Time 123040, Note Name: E4, Velocity: 60
Note OFF: Time 123120, Note Name: E4
Note ON: Time 123120, Note Name: B3, Velocity: 60
Note OFF: Time 123360, Note Name: B3
Note ON: Time 123840, Note Name: F4, Velocity: 60
Note OFF: Time 123920, Note Name: F4
Note ON: Time 123920, Note Name: D4, Velocity: 52
Note OFF: Time 124000, Note Name: D4
Note ON: Time 124000, Note Name: E4, Velocity: 60
Note OFF: Time 124080, Note Name: E4
Note ON: Time 124080, Note Name: B3, Velocity: 60
Note OFF: Time 124320, Note Name: B3
Note ON: Time 124801, Note Name: F4, Velocity: 48
Note OFF: Time 124881, Note Name: F4
Note ON: Time 124883, Note Name: D4, Velocity: 48
Note ON: Time 124962, Note Name: E4, Velocity: 48
Note OFF: Time 124963, Note Name: D4
Note ON: Time 125040, Note Name: B3, Velocity: 49
Note OFF: Time 125042, Note Name: E4
Note OFF: Time 125120, Note Name: B3
Note ON: Time 125123, Note Name: F4, Velocity: 49
Note ON: Time 125199, Note Name: D4, Velocity: 50
Note OFF: Time 125203, Note Name: F4
Note OFF: Time 125279, Note Name: D4
Note ON: Time 125280, Note Name: E4, Velocity: 50
Note OFF: Time 125360, Note Name: E4
Note ON: Time 125360, Note Name: B3, Velocity: 50
Note OFF: Time 125440, Note Name: B3
Note ON: Time 125442, Note Name: F4, Velocity: 51
Note ON: Time 125519, Note Name: D4, Velocity: 51
Note OFF: Time 125522, Note Name: F4
Note OFF: Time 125599, Note Name: D4
Note ON: Time 125603, Note Name: E4, Velocity: 52
Note ON: Time 125679, Note Name: B3, Velocity: 52
Note OFF: Time 125683, Note Name: E4
Note OFF: Time 125759, Note Name: B3
Note ON: Time 125759, Note Name: F4, Velocity: 53
Note OFF: Time 125839, Note Name: F4
Note ON: Time 125842, Note Name: D4, Velocity: 53
Note OFF: Time 125922, Note Name: D4
Note ON: Time 125922, Note Name: E4, Velocity: 53
Note ON: Time 126001, Note Name: B3, Velocity: 55
Note OFF: Time 126002, Note Name: E4
Note OFF: Time 126081, Note Name: B3
Note ON: Time 126082, Note Name: F4, Velocity: 55
Note ON: Time 126158, Note Name: D4, Velocity: 56
Note OFF: Time 126162, Note Name: F4
Note OFF: Time 126238, Note Name: D4
Note ON: Time 126239, Note Name: E4, Velocity: 56
Note OFF: Time 126319, Note Name: E4
Note ON: Time 126319, Note Name: B3, Velocity: 56
Note OFF: Time 126399, Note Name: B3
Note ON: Time 126403, Note Name: F4, Velocity: 57
Note OFF: Time 126483, Note Name: F4
Note ON: Time 126483, Note Name: D4, Velocity: 57
Note ON: Time 126561, Note Name: E4, Velocity: 58
Note OFF: Time 126563, Note Name: D4
Note OFF: Time 126641, Note Name: E4
Note ON: Time 126642, Note Name: B3, Velocity: 58
Note ON: Time 126719, Note Name: F4, Velocity: 59
Note OFF: Time 126722, Note Name: B3
Note ON: Time 126803, Note Name: E4, Velocity: 59
Note OFF: Time 126815, Note Name: F4
Note ON: Time 126880, Note Name: D#4, Velocity: 59
Note OFF: Time 126899, Note Name: E4
Note ON: Time 126958, Note Name: D4, Velocity: 60
Note OFF: Time 126976, Note Name: D#4
Note ON: Time 127042, Note Name: C#4, Velocity: 60
Note OFF: Time 127054, Note Name: D4
Note ON: Time 127118, Note Name: C4, Velocity: 61
Note OFF: Time 127138, Note Name: C#4
Note ON: Time 127199, Note Name: B3, Velocity: 61
Note OFF: Time 127214, Note Name: C4
Note ON: Time 127280, Note Name: A#3, Velocity: 62
Note OFF: Time 127295, Note Name: B3
Note ON: Time 127361, Note Name: A3, Velocity: 62
Note OFF: Time 127376, Note Name: A#3
Note ON: Time 127441, Note Name: G#3, Velocity: 62
Note OFF: Time 127457, Note Name: A3
Note ON: Time 127520, Note Name: G3, Velocity: 63
Note OFF: Time 127537, Note Name: G#3
Note ON: Time 127598, Note Name: F#3, Velocity: 63
Note OFF: Time 127616, Note Name: G3
Note ON: Time 127683, Note Name: F3, Velocity: 64
Note OFF: Time 127694, Note Name: F#3
Note ON: Time 127758, Note Name: E3, Velocity: 64
Note OFF: Time 127779, Note Name: F3
Note ON: Time 127838, Note Name: D#3, Velocity: 64
Note OFF: Time 127854, Note Name: E3
Note ON: Time 127923, Note Name: D3, Velocity: 66
Note OFF: Time 127934, Note Name: D#3
Note ON: Time 128000, Note Name: C#3, Velocity: 66
Note OFF: Time 128019, Note Name: D3
Note ON: Time 128082, Note Name: C3, Velocity: 67
Note OFF: Time 128096, Note Name: C#3
Note ON: Time 128159, Note Name: B2, Velocity: 67
Note OFF: Time 128178, Note Name: C3
Note ON: Time 128238, Note Name: A#2, Velocity: 68
Note OFF: Time 128255, Note Name: B2
Note ON: Time 128320, Note Name: A2, Velocity: 68
Note OFF: Time 128334, Note Name: A#2
Note ON: Time 128402, Note Name: G#2, Velocity: 68
Note OFF: Time 128416, Note Name: A2
Note ON: Time 128481, Note Name: G2, Velocity: 69
Note OFF: Time 128498, Note Name: G#2
Note ON: Time 128562, Note Name: F#2, Velocity: 69
Note OFF: Time 128577, Note Name: G2
Note ON: Time 128643, Note Name: F2, Velocity: 70
Note OFF: Time 128658, Note Name: F#2
Note ON: Time 128719, Note Name: E2, Velocity: 70
Note OFF: Time 128723, Note Name: F2
Note OFF: Time 128799, Note Name: E2
Note ON: Time 128800, Note Name: D#2, Velocity: 70
Note OFF: Time 128880, Note Name: D#2
Note ON: Time 128883, Note Name: E2, Velocity: 71
Note ON: Time 128958, Note Name: F2, Velocity: 71
Note OFF: Time 128963, Note Name: E2
Note OFF: Time 129038, Note Name: F2
Note ON: Time 129043, Note Name: E2, Velocity: 72
Note ON: Time 129121, Note Name: D#2, Velocity: 72
Note OFF: Time 129123, Note Name: E2
Note ON: Time 129199, Note Name: E2, Velocity: 73
Note OFF: Time 129201, Note Name: D#2
Note ON: Time 129278, Note Name: F2, Velocity: 73
Note OFF: Time 129279, Note Name: E2
Note OFF: Time 129358, Note Name: F2
Note ON: Time 129359, Note Name: E2, Velocity: 73
Note OFF: Time 129439, Note Name: E2
Note ON: Time 129439, Note Name: D#2, Velocity: 74
Note OFF: Time 129519, Note Name: D#2
Note ON: Time 129519, Note Name: E2, Velocity: 74
Note OFF: Time 129599, Note Name: E2
Note ON: Time 129599, Note Name: F2, Velocity: 75
Note OFF: Time 129679, Note Name: F2
Note ON: Time 129683, Note Name: E2, Velocity: 75
Note ON: Time 129761, Note Name: D#2, Velocity: 77
Note OFF: Time 129763, Note Name: E2
Note OFF: Time 129841, Note Name: D#2
Note ON: Time 129842, Note Name: E2, Velocity: 77
Note ON: Time 129919, Note Name: F2, Velocity: 77
Note OFF: Time 129922, Note Name: E2
Note OFF: Time 129999, Note Name: F2
Note ON: Time 130002, Note Name: E2, Velocity: 78
Note OFF: Time 130082, Note Name: E2
Note ON: Time 130082, Note Name: D#2, Velocity: 78
Note OFF: Time 130162, Note Name: D#2
Note ON: Time 130163, Note Name: E2, Velocity: 79
Note OFF: Time 130243, Note Name: E2
Note ON: Time 130243, Note Name: F2, Velocity: 79
Note OFF: Time 130323, Note Name: F2
Note ON: Time 130323, Note Name: E2, Velocity: 79
Note ON: Time 130399, Note Name: D#2, Velocity: 80
Note OFF: Time 130403, Note Name: E2
Note ON: Time 130478, Note Name: E2, Velocity: 80
Note OFF: Time 130479, Note Name: D#2
Note OFF: Time 130558, Note Name: E2
Note ON: Time 130560, Note Name: A1, Velocity: 119
Note OFF: Time 130800, Note Name: A1
Note ON: Time 131040, Note Name: E4, Velocity: 92
Note ON: Time 131040, Note Name: C4, Velocity: 77
Note ON: Time 131040, Note Name: A3, Velocity: 77
Note OFF: Time 131400, Note Name: A3
Note OFF: Time 131400, Note Name: C4
Note OFF: Time 131400, Note Name: E4
Note ON: Time 131400, Note Name: A3, Velocity: 73
Note ON: Time 131400, Note Name: C4, Velocity: 73
Note ON: Time 131400, Note Name: E4, Velocity: 86
Note OFF: Time 131520, Note Name: E4
Note OFF: Time 131520, Note Name: C4
Note OFF: Time 131520, Note Name: A3
Note ON: Time 131520, Note Name: E4, Velocity: 92
Note ON: Time 131520, Note Name: C4, Velocity: 77
Note ON: Time 131520, Note Name: A3, Velocity: 77
Note OFF: Time 132000, Note Name: A3
Note OFF: Time 132000, Note Name: C4
Note OFF: Time 132000, Note Name: E4
Note ON: Time 132000, Note Name: A3, Velocity: 82
Note ON: Time 132000, Note Name: C4, Velocity: 82
Note ON: Time 132000, Note Name: F4, Velocity: 97
Note OFF: Time 132480, Note Name: F4
Note OFF: Time 132480, Note Name: C4
Note OFF: Time 132480, Note Name: A3
Note ON: Time 132480, Note Name: A3, Velocity: 77
Note ON: Time 132480, Note Name: C4, Velocity: 77
Note ON: Time 132480, Note Name: E4, Velocity: 92
Note OFF: Time 132960, Note Name: E4
Note OFF: Time 132960, Note Name: C4
Note OFF: Time 132960, Note Name: A3
Note ON: Time 132960, Note Name: E3, Velocity: 73
Note ON: Time 132960, Note Name: A3, Velocity: 73
Note ON: Time 132960, Note Name: C4, Velocity: 86
Note OFF: Time 133440, Note Name: C4
Note OFF: Time 133440, Note Name: A3
Note OFF: Time 133440, Note Name: E3
Note ON: Time 133440, Note Name: A3, Velocity: 73
Note ON: Time 133440, Note Name: C4, Velocity: 73
Note ON: Time 133440, Note Name: E4, Velocity: 86
Note OFF: Time 134400, Note Name: E4
Note OFF: Time 134400, Note Name: C4
Note OFF: Time 134400, Note Name: A3
Note ON: Time 134400, Note Name: A1, Velocity: 72
Note OFF: Time 134640, Note Name: A1
Note ON: Time 134880, Note Name: A2, Velocity: 49
Note ON: Time 134880, Note Name: E3, Velocity: 69
Note OFF: Time 135240, Note Name: E3
Note OFF: Time 135240, Note Name: A2
Note ON: Time 135240, Note Name: A2, Velocity: 42
Note ON: Time 135240, Note Name: E3, Velocity: 61
Note OFF: Time 135360, Note Name: E3
Note OFF: Time 135360, Note Name: A2
Note ON: Time 135360, Note Name: A2, Velocity: 50
Note ON: Time 135360, Note Name: E3, Velocity: 70
Note OFF: Time 135840, Note Name: E3
Note OFF: Time 135840, Note Name: A2
Note ON: Time 135840, Note Name: A2, Velocity: 42
Note ON: Time 135840, Note Name: F3, Velocity: 62
Note OFF: Time 136320, Note Name: F3
Note OFF: Time 136320, Note Name: A2
Note ON: Time 136320, Note Name: A2, Velocity: 41
Note ON: Time 136320, Note Name: E3, Velocity: 58
Note OFF: Time 136800, Note Name: E3
Note OFF: Time 136800, Note Name: A2
Note ON: Time 136800, Note Name: A1, Velocity: 55
Note ON: Time 137280, Note Name: E2, Velocity: 58
Note OFF: Time 138240, Note Name: E2
Note OFF: Time 138240, Note Name: A1
Note ON: Time 138240, Note Name: G#1, Velocity: 69
Note OFF: Time 138480, Note Name: G#1
Note ON: Time 138720, Note Name: F3, Velocity: 66
Note ON: Time 138720, Note Name: D4, Velocity: 77
Note OFF: Time 139080, Note Name: D4
Note OFF: Time 139080, Note Name: F3
Note ON: Time 139080, Note Name: F3, Velocity: 61
Note ON: Time 139080, Note Name: D4, Velocity: 73
Note OFF: Time 139200, Note Name: D4
Note OFF: Time 139200, Note Name: F3
Note ON: Time 139200, Note Name: F3, Velocity: 66
Note ON: Time 139200, Note Name: C4, Velocity: 77
Note OFF: Time 139680, Note Name: C4
Note OFF: Time 139680, Note Name: F3
Note ON: Time 139680, Note Name: A1, Velocity: 77
Note ON: Time 139680, Note Name: A2, Velocity: 77
Note OFF: Time 140160, Note Name: A2
Note OFF: Time 140160, Note Name: A1
Note ON: Time 140160, Note Name: G#1, Velocity: 66
Note ON: Time 140160, Note Name: G#2, Velocity: 66
Note OFF: Time 140400, Note Name: G#2
Note OFF: Time 140400, Note Name: G#1
Note ON: Time 140640, Note Name: G3, Velocity: 73
Note ON: Time 140640, Note Name: D4, Velocity: 66
Note OFF: Time 140800, Note Name: D4
Note OFF: Time 140800, Note Name: G3
Note ON: Time 140800, Note Name: F3, Velocity: 72
Note ON: Time 140800, Note Name: D4, Velocity: 60
Note OFF: Time 140960, Note Name: D4
Note OFF: Time 140960, Note Name: F3
Note ON: Time 140960, Note Name: E3, Velocity: 73
Note ON: Time 140960, Note Name: D4, Velocity: 61
Note OFF: Time 141120, Note Name: D4
Note OFF: Time 141120, Note Name: E3
Note ON: Time 141120, Note Name: E3, Velocity: 77
Note ON: Time 141120, Note Name: C4, Velocity: 66
Note OFF: Time 141600, Note Name: C4
Note OFF: Time 141600, Note Name: E3
Note ON: Time 141600, Note Name: A1, Velocity: 67
Note ON: Time 141600, Note Name: A2, Velocity: 79
Note OFF: Time 142080, Note Name: A2
Note OFF: Time 142080, Note Name: A1
Note ON: Time 142080, Note Name: B1, Velocity: 68
Note ON: Time 142080, Note Name: B2, Velocity: 68
Note OFF: Time 142320, Note Name: B2
Note OFF: Time 142320, Note Name: B1
Note ON: Time 142560, Note Name: G#3, Velocity: 60
Note ON: Time 142560, Note Name: B3, Velocity: 60
Note ON: Time 142560, Note Name: E4, Velocity: 70
Note OFF: Time 142720, Note Name: E4
Note ON: Time 142720, Note Name: G#4, Velocity: 66
Note OFF: Time 142880, Note Name: G#4
Note ON: Time 142880, Note Name: C#5, Velocity: 70
Note OFF: Time 143040, Note Name: C#5
Note OFF: Time 143040, Note Name: B3
Note OFF: Time 143040, Note Name: G#3
Note ON: Time 143040, Note Name: B3, Velocity: 60
Note ON: Time 143040, Note Name: D#4, Velocity: 60
Note ON: Time 143040, Note Name: B4, Velocity: 70
Note ON: Time 143040, Note Name: A4, Velocity: 70
Note OFF: Time 143520, Note Name: A4
Note OFF: Time 143520, Note Name: B3
Note OFF: Time 143520, Note Name: D#4
Note OFF: Time 143520, Note Name: B4
Note ON: Time 143520, Note Name: B2, Velocity: 66
Note ON: Time 143520, Note Name: B3, Velocity: 77
Note OFF: Time 144000, Note Name: B3
Note OFF: Time 144000, Note Name: B2
Note ON: Time 144000, Note Name: E2, Velocity: 66
Note ON: Time 144000, Note Name: E3, Velocity: 77
Note OFF: Time 144240, Note Name: E3
Note OFF: Time 144240, Note Name: E2
Note ON: Time 144480, Note Name: G#4, Velocity: 67
Note ON: Time 144480, Note Name: B3, Velocity: 56
Note OFF: Time 144640, Note Name: B3
Note OFF: Time 144640, Note Name: G#4
Note ON: Time 144640, Note Name: G4, Velocity: 58
Note ON: Time 144640, Note Name: A#3, Velocity: 49
Note OFF: Time 144800, Note Name: A#3
Note OFF: Time 144800, Note Name: G4
Note ON: Time 144800, Note Name: G#4, Velocity: 63
Note ON: Time 144800, Note Name: B3, Velocity: 55
Note OFF: Time 144960, Note Name: B3
Note OFF: Time 144960, Note Name: G#4
Note ON: Time 144960, Note Name: E3, Velocity: 65
Note ON: Time 144960, Note Name: G#3, Velocity: 65
Note ON: Time 144960, Note Name: E4, Velocity: 74
Note OFF: Time 145200, Note Name: E4
Note OFF: Time 145200, Note Name: G#3
Note OFF: Time 145200, Note Name: E3
Note ON: Time 145920, Note Name: A1, Velocity: 99
Note OFF: Time 146160, Note Name: A1
Note ON: Time 146400, Note Name: E4, Velocity: 84
Note ON: Time 146400, Note Name: C4, Velocity: 70
Note ON: Time 146400, Note Name: A3, Velocity: 70
Note OFF: Time 146760, Note Name: A3
Note OFF: Time 146760, Note Name: C4
Note OFF: Time 146760, Note Name: E4
Note ON: Time 146760, Note Name: A3, Velocity: 67
Note ON: Time 146760, Note Name: C4, Velocity: 67
Note ON: Time 146760, Note Name: E4, Velocity: 79
Note OFF: Time 146880, Note Name: E4
Note OFF: Time 146880, Note Name: C4
Note OFF: Time 146880, Note Name: A3
Note ON: Time 146880, Note Name: E4, Velocity: 84
Note ON: Time 146880, Note Name: C4, Velocity: 70
Note ON: Time 146880, Note Name: A3, Velocity: 70
Note OFF: Time 147360, Note Name: A3
Note OFF: Time 147360, Note Name: C4
Note OFF: Time 147360, Note Name: E4
Note ON: Time 147360, Note Name: A3, Velocity: 74
Note ON: Time 147360, Note Name: C4, Velocity: 74
Note ON: Time 147360, Note Name: F4, Velocity: 88
Note OFF: Time 147840, Note Name: F4
Note OFF: Time 147840, Note Name: C4
Note OFF: Time 147840, Note Name: A3
Note ON: Time 147840, Note Name: A3, Velocity: 70
Note ON: Time 147840, Note Name: C4, Velocity: 70
Note ON: Time 147840, Note Name: E4, Velocity: 84
Note OFF: Time 148320, Note Name: E4
Note OFF: Time 148320, Note Name: C4
Note OFF: Time 148320, Note Name: A3
Note ON: Time 148320, Note Name: E3, Velocity: 67
Note ON: Time 148320, Note Name: A3, Velocity: 67
Note ON: Time 148320, Note Name: C4, Velocity: 79
Note OFF: Time 148800, Note Name: C4
Note OFF: Time 148800, Note Name: A3
Note OFF: Time 148800, Note Name: E3
Note ON: Time 148800, Note Name: A3, Velocity: 67
Note ON: Time 148800, Note Name: C4, Velocity: 67
Note ON: Time 148800, Note Name: E4, Velocity: 79
Note OFF: Time 149760, Note Name: E4
Note OFF: Time 149760, Note Name: C4
Note OFF: Time 149760, Note Name: A3
Note ON: Time 149760, Note Name: G1, Velocity: 69
Note OFF: Time 150000, Note Name: G1
Note ON: Time 150240, Note Name: G2, Velocity: 58
Note ON: Time 150240, Note Name: E3, Velocity: 69
Note OFF: Time 150600, Note Name: E3
Note OFF: Time 150600, Note Name: G2
Note ON: Time 150600, Note Name: G2, Velocity: 50
Note ON: Time 150600, Note Name: E3, Velocity: 61
Note OFF: Time 150720, Note Name: E3
Note OFF: Time 150720, Note Name: G2
Note ON: Time 150720, Note Name: G2, Velocity: 60
Note ON: Time 150720, Note Name: E3, Velocity: 70
Note OFF: Time 151200, Note Name: E3
Note ON: Time 151200, Note Name: F3, Velocity: 62
Note OFF: Time 151680, Note Name: F3
Note ON: Time 151680, Note Name: G2, Velocity: 58
Note ON: Time 151680, Note Name: E3, Velocity: 58
Note OFF: Time 152160, Note Name: E3
Note OFF: Time 152160, Note Name: G2
Note ON: Time 152160, Note Name: C3, Velocity: 58
Note OFF: Time 152640, Note Name: C3
Note OFF: Time 152640, Note Name: G2
Note ON: Time 152640, Note Name: F2, Velocity: 58
Note OFF: Time 153120, Note Name: F2
Note ON: Time 153120, Note Name: E2, Velocity: 58
Note OFF: Time 153600, Note Name: E2
Note ON: Time 153600, Note Name: D2, Velocity: 63
Note OFF: Time 153840, Note Name: D2
Note ON: Time 154080, Note Name: F4, Velocity: 63
Note ON: Time 154080, Note Name: A3, Velocity: 63
Note OFF: Time 154240, Note Name: A3
Note OFF: Time 154240, Note Name: F4
Note ON: Time 154240, Note Name: C#3, Velocity: 62
Note OFF: Time 154400, Note Name: C#3
Note ON: Time 154400, Note Name: D3, Velocity: 63
Note OFF: Time 154560, Note Name: D3
Note ON: Time 154560, Note Name: D#3, Velocity: 69
Note ON: Time 154560, Note Name: F#4, Velocity: 58
Note ON: Time 154560, Note Name: A3, Velocity: 58
Note OFF: Time 155040, Note Name: A3
Note OFF: Time 155040, Note Name: F#4
Note OFF: Time 155040, Note Name: D#3
Note ON: Time 155040, Note Name: D#2, Velocity: 72
Note OFF: Time 155520, Note Name: D#2
Note ON: Time 155520, Note Name: E2, Velocity: 73
Note OFF: Time 155760, Note Name: E2
Note ON: Time 156000, Note Name: G4, Velocity: 67
Note ON: Time 156000, Note Name: A#3, Velocity: 79
Note OFF: Time 156160, Note Name: A#3
Note OFF: Time 156160, Note Name: G4
Note ON: Time 156160, Note Name: D#3, Velocity: 79
Note OFF: Time 156320, Note Name: D#3
Note ON: Time 156320, Note Name: E3, Velocity: 79
Note OFF: Time 156480, Note Name: E3
Note ON: Time 156480, Note Name: F3, Velocity: 81
Note ON: Time 156480, Note Name: A#4, Velocity: 68
Note ON: Time 156480, Note Name: A#3, Velocity: 68
Note ON: Time 156480, Note Name: D4, Velocity: 68
Note OFF: Time 156960, Note Name: D4
Note OFF: Time 156960, Note Name: F3
Note OFF: Time 156960, Note Name: A#4
Note OFF: Time 156960, Note Name: A#3
Note ON: Time 156960, Note Name: F2, Velocity: 70
Note ON: Time 156960, Note Name: F3, Velocity: 82
Note OFF: Time 157440, Note Name: F3
Note OFF: Time 157440, Note Name: F2
Note ON: Time 157440, Note Name: F1, Velocity: 80
Note ON: Time 157440, Note Name: F2, Velocity: 96
Note OFF: Time 157680, Note Name: F2
Note OFF: Time 157680, Note Name: F1
Note ON: Time 157920, Note Name: F3, Velocity: 89
Note ON: Time 157920, Note Name: F4, Velocity: 89
Note OFF: Time 158280, Note Name: F4
Note OFF: Time 158280, Note Name: F3
Note ON: Time 158280, Note Name: F3, Velocity: 89
Note ON: Time 158280, Note Name: F4, Velocity: 89
Note OFF: Time 158400, Note Name: F4
Note OFF: Time 158400, Note Name: F3
Note ON: Time 158400, Note Name: F3, Velocity: 89
Note ON: Time 158400, Note Name: F4, Velocity: 89
Note OFF: Time 158880, Note Name: F4
Note OFF: Time 158880, Note Name: F3
Note ON: Time 158880, Note Name: F3, Velocity: 75
Note ON: Time 158880, Note Name: C4, Velocity: 75
Note ON: Time 158880, Note Name: G4, Velocity: 90
Note OFF: Time 159360, Note Name: G4
Note OFF: Time 159360, Note Name: C4
Note OFF: Time 159360, Note Name: F3
Note ON: Time 159360, Note Name: F3, Velocity: 94
Note ON: Time 159360, Note Name: F4, Velocity: 94
Note OFF: Time 159840, Note Name: F4
Note OFF: Time 159840, Note Name: F3
Note ON: Time 159840, Note Name: C3, Velocity: 90
Note ON: Time 159840, Note Name: C4, Velocity: 90
Note OFF: Time 160320, Note Name: C4
Note OFF: Time 160320, Note Name: C3
Note ON: Time 160320, Note Name: F3, Velocity: 92
Note ON: Time 160320, Note Name: F4, Velocity: 92
Note ON: Time 161278, Note Name: F2, Velocity: 58
Note OFF: Time 161280, Note Name: F4
Note OFF: Time 161280, Note Name: F3
Note OFF: Time 161358, Note Name: F2
Note ON: Time 161358, Note Name: B2, Velocity: 45
Note OFF: Time 161438, Note Name: B2
Note ON: Time 161441, Note Name: A2, Velocity: 53
Note ON: Time 161519, Note Name: D#3, Velocity: 46
Note OFF: Time 161521, Note Name: A2
Note OFF: Time 161599, Note Name: D#3
Note ON: Time 161602, Note Name: A2, Velocity: 55
Note OFF: Time 161682, Note Name: A2
Note ON: Time 161682, Note Name: D#3, Velocity: 49
Note OFF: Time 161762, Note Name: D#3
Note ON: Time 161762, Note Name: B2, Velocity: 56
Note ON: Time 161841, Note Name: F3, Velocity: 49
Note OFF: Time 161842, Note Name: B2
Note ON: Time 161918, Note Name: B2, Velocity: 56
Note OFF: Time 161921, Note Name: F3
Note OFF: Time 161998, Note Name: B2
Note ON: Time 161999, Note Name: F3, Velocity: 50
Note OFF: Time 162079, Note Name: F3
Note ON: Time 162083, Note Name: D#3, Velocity: 57
Note ON: Time 162160, Note Name: A3, Velocity: 50
Note OFF: Time 162163, Note Name: D#3
Note OFF: Time 162240, Note Name: A3
Note ON: Time 162242, Note Name: D#3, Velocity: 58
Note OFF: Time 162322, Note Name: D#3
Note ON: Time 162323, Note Name: A3, Velocity: 50
Note OFF: Time 162403, Note Name: A3
Note ON: Time 162403, Note Name: F3, Velocity: 58
Note ON: Time 162480, Note Name: B3, Velocity: 51
Note OFF: Time 162483, Note Name: F3
Note OFF: Time 162560, Note Name: B3
Note ON: Time 162560, Note Name: F3, Velocity: 60
Note OFF: Time 162640, Note Name: F3
Note ON: Time 162642, Note Name: B3, Velocity: 51
Note OFF: Time 162722, Note Name: B3
Note ON: Time 162722, Note Name: A3, Velocity: 61
Note ON: Time 162800, Note Name: D#4, Velocity: 52
Note OFF: Time 162802, Note Name: A3
Note OFF: Time 162880, Note Name: D#4
Note ON: Time 162882, Note Name: A3, Velocity: 61
Note ON: Time 162959, Note Name: D#4, Velocity: 55
Note OFF: Time 162962, Note Name: A3
Note OFF: Time 163039, Note Name: D#4
Note ON: Time 163040, Note Name: B3, Velocity: 62
Note ON: Time 163118, Note Name: F4, Velocity: 53
Note OFF: Time 163120, Note Name: B3
Note OFF: Time 163198, Note Name: F4
Note ON: Time 163202, Note Name: B3, Velocity: 62
Note ON: Time 163279, Note Name: F4, Velocity: 56
Note OFF: Time 163282, Note Name: B3
Note ON: Time 163358, Note Name: D#4, Velocity: 63
Note OFF: Time 163359, Note Name: F4
Note OFF: Time 163438, Note Name: D#4
Note ON: Time 163439, Note Name: A4, Velocity: 56
Note OFF: Time 163519, Note Name: A4
Note ON: Time 163521, Note Name: D#4, Velocity: 64
Note OFF: Time 163601, Note Name: D#4
Note ON: Time 163602, Note Name: A4, Velocity: 57
Note ON: Time 163679, Note Name: F4, Velocity: 64
Note OFF: Time 163682, Note Name: A4
Note OFF: Time 163759, Note Name: F4
Note ON: Time 163759, Note Name: B4, Velocity: 58
Note OFF: Time 163839, Note Name: B4
Note ON: Time 163840, Note Name: F4, Velocity: 66
Note OFF: Time 163920, Note Name: F4
Note ON: Time 163922, Note Name: B4, Velocity: 58
Note ON: Time 164001, Note Name: A4, Velocity: 67
Note OFF: Time 164002, Note Name: B4
Note ON: Time 164080, Note Name: D#5, Velocity: 58
Note OFF: Time 164081, Note Name: A4
Note OFF: Time 164160, Note Name: D#5
Note ON: Time 164163, Note Name: A4, Velocity: 67
Note ON: Time 164239, Note Name: D#5, Velocity: 58
Note OFF: Time 164243, Note Name: A4
Note OFF: Time 164319, Note Name: D#5
Note ON: Time 164323, Note Name: B4, Velocity: 68
Note ON: Time 164401, Note Name: F5, Velocity: 60
Note OFF: Time 164403, Note Name: B4
Note OFF: Time 164481, Note Name: F5
Note ON: Time 164481, Note Name: B4, Velocity: 69
Note ON: Time 164560, Note Name: F5, Velocity: 62
Note OFF: Time 164561, Note Name: B4
Note OFF: Time 164640, Note Name: F5
Note ON: Time 164642, Note Name: D#5, Velocity: 69
Note OFF: Time 164722, Note Name: D#5
Note ON: Time 164722, Note Name: A5, Velocity: 62
Note OFF: Time 164802, Note Name: A5
Note ON: Time 164802, Note Name: D#5, Velocity: 70
Note ON: Time 164880, Note Name: A5, Velocity: 63
Note OFF: Time 164882, Note Name: D#5
Note ON: Time 164958, Note Name: F5, Velocity: 72
Note OFF: Time 164960, Note Name: A5
Note OFF: Time 165038, Note Name: F5
Note ON: Time 165041, Note Name: B5, Velocity: 63
Note ON: Time 165119, Note Name: A4, Velocity: 89
Note ON: Time 165119, Note Name: E5, Velocity: 89
Note ON: Time 165120, Note Name: E4, Velocity: 89
Note OFF: Time 165121, Note Name: B5
Note ON: Time 165121, Note Name: C5, Velocity: 89
Note OFF: Time 165359, Note Name: A4
Note OFF: Time 165359, Note Name: E5
Note OFF: Time 165360, Note Name: E4
Note OFF: Time 165361, Note Name: C5
Note ON: Time 165443, Note Name: D6, Velocity: 79
Note ON: Time 165522, Note Name: A5, Velocity: 69
Note OFF: Time 165523, Note Name: D6
Note ON: Time 165600, Note Name: C6, Velocity: 79
Note OFF: Time 165602, Note Name: A5
Note ON: Time 165679, Note Name: E5, Velocity: 70
Note OFF: Time 165680, Note Name: C6
Note OFF: Time 165759, Note Name: E5
Note ON: Time 165760, Note Name: B5, Velocity: 79
Note OFF: Time 165840, Note Name: B5
Note ON: Time 165841, Note Name: E5, Velocity: 71
Note OFF: Time 165921, Note Name: E5
Note ON: Time 165923, Note Name: A5, Velocity: 79
Note OFF: Time 166003, Note Name: A5
Note ON: Time 166003, Note Name: C5, Velocity: 70
Note ON: Time 166082, Note Name: F5, Velocity: 79
Note OFF: Time 166083, Note Name: C5
Note OFF: Time 166162, Note Name: F5
Note ON: Time 166163, Note Name: C5, Velocity: 70
Note OFF: Time 166243, Note Name: C5
Note ON: Time 166243, Note Name: E5, Velocity: 79
Note ON: Time 166321, Note Name: A4, Velocity: 70
Note OFF: Time 166323, Note Name: E5
Note ON: Time 166398, Note Name: D5, Velocity: 79
Note OFF: Time 166401, Note Name: A4
Note OFF: Time 166478, Note Name: D5
Note ON: Time 166479, Note Name: A4, Velocity: 72
Note OFF: Time 166559, Note Name: A4
Note ON: Time 166559, Note Name: C5, Velocity: 79
Note OFF: Time 166639, Note Name: C5
Note ON: Time 166642, Note Name: E4, Velocity: 70
Note ON: Time 166719, Note Name: B4, Velocity: 79
Note OFF: Time 166722, Note Name: E4
Note OFF: Time 166799, Note Name: B4
Note ON: Time 166799, Note Name: E4, Velocity: 71
Note OFF: Time 166879, Note Name: E4
Note ON: Time 166880, Note Name: A4, Velocity: 79
Note OFF: Time 166960, Note Name: A4
Note ON: Time 166963, Note Name: C4, Velocity: 71
Note ON: Time 167039, Note Name: F4, Velocity: 79
Note OFF: Time 167043, Note Name: C4
Note OFF: Time 167119, Note Name: F4
Note ON: Time 167119, Note Name: C4, Velocity: 71
Note OFF: Time 167199, Note Name: C4
Note ON: Time 167203, Note Name: E4, Velocity: 79
Note ON: Time 167279, Note Name: A3, Velocity: 71
Note OFF: Time 167283, Note Name: E4
Note OFF: Time 167359, Note Name: A3
Note ON: Time 167363, Note Name: D4, Velocity: 79
Note ON: Time 167442, Note Name: A3, Velocity: 71
Note OFF: Time 167443, Note Name: D4
Note ON: Time 167518, Note Name: C4, Velocity: 79
Note OFF: Time 167522, Note Name: A3
Note OFF: Time 167598, Note Name: C4
Note ON: Time 167601, Note Name: E3, Velocity: 71
Note ON: Time 167679, Note Name: B3, Velocity: 79
Note OFF: Time 167681, Note Name: E3
Note OFF: Time 167759, Note Name: B3
Note ON: Time 167760, Note Name: E3, Velocity: 70
Note ON: Time 167839, Note Name: A3, Velocity: 79
Note OFF: Time 167840, Note Name: E3
Note OFF: Time 167919, Note Name: A3
Note ON: Time 167922, Note Name: C3, Velocity: 70
Note ON: Time 168000, Note Name: E2, Velocity: 73
Note ON: Time 168000, Note Name: E3, Velocity: 86
Note OFF: Time 168002, Note Name: C3
Note OFF: Time 168480, Note Name: E3
Note OFF: Time 168480, Note Name: E2
Note ON: Time 168480, Note Name: E1, Velocity: 73
Note ON: Time 168480, Note Name: E2, Velocity: 86
Note OFF: Time 168960, Note Name: E2
Note OFF: Time 168960, Note Name: E1
Note ON: Time 168963, Note Name: A1, Velocity: 101
Note ON: Time 169081, Note Name: E2, Velocity: 77
Note OFF: Time 169083, Note Name: A1
Note ON: Time 169198, Note Name: C3, Velocity: 77
Note OFF: Time 169201, Note Name: E2
Note OFF: Time 169318, Note Name: C3
Note ON: Time 169320, Note Name: E2, Velocity: 77
Note OFF: Time 169440, Note Name: E2
Note ON: Time 169442, Note Name: A1, Velocity: 88
Note OFF: Time 169562, Note Name: A1
Note ON: Time 169562, Note Name: E2, Velocity: 77
Note OFF: Time 169682, Note Name: E2
Note ON: Time 169683, Note Name: C3, Velocity: 77
Note OFF: Time 169803, Note Name: C3
Note ON: Time 169803, Note Name: E2, Velocity: 77
Note ON: Time 169918, Note Name: A1, Velocity: 97
Note OFF: Time 169923, Note Name: E2
Note OFF: Time 170038, Note Name: A1
Note ON: Time 170041, Note Name: E2, Velocity: 77
Note OFF: Time 170161, Note Name: E2
Note ON: Time 170163, Note Name: C3, Velocity: 77
Note ON: Time 170281, Note Name: E2, Velocity: 77
Note OFF: Time 170283, Note Name: C3
Note OFF: Time 170401, Note Name: E2
Note ON: Time 170401, Note Name: A1, Velocity: 89
Note OFF: Time 170521, Note Name: A1
Note ON: Time 170521, Note Name: E2, Velocity: 77
Note ON: Time 170639, Note Name: C3, Velocity: 77
Note OFF: Time 170641, Note Name: E2
Note OFF: Time 170759, Note Name: C3
Note ON: Time 170762, Note Name: E2, Velocity: 77
Note OFF: Time 170882, Note Name: E2
Note ON: Time 170883, Note Name: A1, Velocity: 101
Note OFF: Time 171003, Note Name: A1
Note ON: Time 171003, Note Name: E2, Velocity: 77
Note ON: Time 171118, Note Name: C3, Velocity: 77
Note OFF: Time 171123, Note Name: E2
Note OFF: Time 171238, Note Name: C3
Note ON: Time 171240, Note Name: E2, Velocity: 77
Note OFF: Time 171360, Note Name: E2
Note ON: Time 171360, Note Name: E1, Velocity: 101
Note OFF: Time 171480, Note Name: E1
Note ON: Time 171480, Note Name: E2, Velocity: 77
Note ON: Time 171598, Note Name: C3, Velocity: 77
Note OFF: Time 171600, Note Name: E2
Note OFF: Time 171718, Note Name: C3
Note ON: Time 171719, Note Name: E2, Velocity: 77
Note OFF: Time 171839, Note Name: E2
Note ON: Time 171842, Note Name: A1, Velocity: 96
Note ON: Time 171958, Note Name: E2, Velocity: 77
Note OFF: Time 171962, Note Name: A1
Note OFF: Time 172078, Note Name: E2
Note ON: Time 172083, Note Name: C3, Velocity: 77
Note ON: Time 172200, Note Name: E2, Velocity: 77
Note OFF: Time 172203, Note Name: C3
Note OFF: Time 172320, Note Name: E2
Note ON: Time 172321, Note Name: C3, Velocity: 83
Note ON: Time 172440, Note Name: E2, Velocity: 73
Note OFF: Time 172441, Note Name: C3
Note OFF: Time 172560, Note Name: E2
Note ON: Time 172562, Note Name: C3, Velocity: 71
Note ON: Time 172681, Note Name: E2, Velocity: 70
Note OFF: Time 172682, Note Name: C3
Note OFF: Time 172801, Note Name: E2
Note ON: Time 172801, Note Name: A1, Velocity: 78
Note ON: Time 172920, Note Name: E2, Velocity: 68
Note OFF: Time 172921, Note Name: A1
Note OFF: Time 173040, Note Name: E2
Note ON: Time 173042, Note Name: C3, Velocity: 67
Note OFF: Time 173162, Note Name: C3
Note ON: Time 173163, Note Name: E2, Velocity: 66
Note ON: Time 173281, Note Name: A1, Velocity: 72
Note OFF: Time 173283, Note Name: E2
Note OFF: Time 173401, Note Name: A1
Note ON: Time 173402, Note Name: E2, Velocity: 63
Note OFF: Time 173522, Note Name: E2
Note ON: Time 173522, Note Name: C3, Velocity: 62
Note OFF: Time 173642, Note Name: C3
Note ON: Time 173643, Note Name: E2, Velocity: 61
Note ON: Time 173759, Note Name: A1, Velocity: 69
Note OFF: Time 173763, Note Name: E2
Note OFF: Time 173879, Note Name: A1
Note ON: Time 173881, Note Name: E2, Velocity: 60
Note OFF: Time 174001, Note Name: E2
Note ON: Time 174003, Note Name: C3, Velocity: 59
Note ON: Time 174122, Note Name: E2, Velocity: 58
Note OFF: Time 174123, Note Name: C3
Note ON: Time 174240, Note Name: A1, Velocity: 63
Note OFF: Time 174242, Note Name: E2
Note OFF: Time 174360, Note Name: A1
Note ON: Time 174362, Note Name: E2, Velocity: 52
Note ON: Time 174481, Note Name: C3, Velocity: 51
Note OFF: Time 174482, Note Name: E2
Note ON: Time 174600, Note Name: E2, Velocity: 50
Note OFF: Time 174601, Note Name: C3
Note OFF: Time 174720, Note Name: E2
Note ON: Time 174723, Note Name: A2, Velocity: 89
Note OFF: Time 174835, Note Name: A2
Note ON: Time 174881, Note Name: G#2, Velocity: 84
Note OFF: Time 174993, Note Name: G#2
Note ON: Time 175039, Note Name: G2, Velocity: 88
Note OFF: Time 175151, Note Name: G2
Note ON: Time 175201, Note Name: F#2, Velocity: 89
Note OFF: Time 175313, Note Name: F#2
Note ON: Time 175362, Note Name: F2, Velocity: 83
Note OFF: Time 175474, Note Name: F2
Note ON: Time 175521, Note Name: E2, Velocity: 84
Note OFF: Time 175633, Note Name: E2
Note ON: Time 175683, Note Name: D#2, Velocity: 89
Note OFF: Time 175795, Note Name: D#2
Note ON: Time 175841, Note Name: D2, Velocity: 84
Note OFF: Time 175953, Note Name: D2
Note ON: Time 175999, Note Name: C#2, Velocity: 84
Note OFF: Time 176111, Note Name: C#2
Note ON: Time 176161, Note Name: C2, Velocity: 89
Note OFF: Time 176273, Note Name: C2
Note ON: Time 176319, Note Name: B1, Velocity: 83
Note OFF: Time 176431, Note Name: B1
Note ON: Time 176483, Note Name: A#1, Velocity: 83
Note OFF: Time 176595, Note Name: A#1
Note ON: Time 176640, Note Name: A1, Velocity: 104
Note OFF: Time 177120, Note Name: A1
Note ON: Time 177120, Note Name: A1, Velocity: 76
Note ON: Time 177120, Note Name: E2, Velocity: 90
Note ON: Time 177120, Note Name: A2, Velocity: 90
Note OFF: Time 177480, Note Name: A2
Note OFF: Time 177480, Note Name: E2
Note OFF: Time 177480, Note Name: A1
Note ON: Time 177480, Note Name: A1, Velocity: 73
Note ON: Time 177480, Note Name: E2, Velocity: 86
Note ON: Time 177480, Note Name: A2, Velocity: 86
Note OFF: Time 177600, Note Name: A2
Note OFF: Time 177600, Note Name: E2
Note OFF: Time 177600, Note Name: A1
Note ON: Time 177600, Note Name: A1, Velocity: 76
Note ON: Time 177600, Note Name: E2, Velocity: 90
Note ON: Time 177600, Note Name: A2, Velocity: 90
Note OFF: Time 178080, Note Name: A2
Note OFF: Time 178080, Note Name: E2
Note OFF: Time 178080, Note Name: A1
Note ON: Time 178080, Note Name: A1, Velocity: 74
Note ON: Time 178080, Note Name: D2, Velocity: 88
Note ON: Time 178080, Note Name: A2, Velocity: 88
Note OFF: Time 178560, Note Name: A2
Note OFF: Time 178560, Note Name: D2
Note OFF: Time 178560, Note Name: A1
Note ON: Time 178560, Note Name: A1, Velocity: 76
Note ON: Time 178560, Note Name: E2, Velocity: 90
Note ON: Time 178560, Note Name: A2, Velocity: 90
Note OFF: Time 179520, Note Name: A2
Note OFF: Time 179520, Note Name: E2
Note OFF: Time 179520, Note Name: A1
Note ON: Time 179520, Note Name: A1, Velocity: 74
Note ON: Time 179520, Note Name: F2, Velocity: 88
Note ON: Time 179520, Note Name: A2, Velocity: 88
Note OFF: Time 180480, Note Name: A2
Note OFF: Time 180480, Note Name: F2
Note OFF: Time 180480, Note Name: A1
Note ON: Time 180480, Note Name: A1, Velocity: 76
Note ON: Time 180480, Note Name: E2, Velocity: 90
Note ON: Time 180480, Note Name: A2, Velocity: 90
Note ON: Time 181440, Note Name: A1, Velocity: 68
Note ON: Time 181558, Note Name: B1, Velocity: 68
Note OFF: Time 181584, Note Name: A1
Note ON: Time 181679, Note Name: C2, Velocity: 69
Note OFF: Time 181702, Note Name: B1
Note ON: Time 181801, Note Name: D2, Velocity: 69
Note OFF: Time 181823, Note Name: C2
Note ON: Time 181922, Note Name: E2, Velocity: 70
Note OFF: Time 181945, Note Name: D2
Note ON: Time 182040, Note Name: F#2, Velocity: 72
Note OFF: Time 182066, Note Name: E2
Note ON: Time 182160, Note Name: G#2, Velocity: 72
Note OFF: Time 182184, Note Name: F#2
Note ON: Time 182278, Note Name: A2, Velocity: 73
Note OFF: Time 182304, Note Name: G#2
Note ON: Time 182402, Note Name: B2, Velocity: 73
Note OFF: Time 182422, Note Name: A2
Note ON: Time 182520, Note Name: C3, Velocity: 74
Note OFF: Time 182546, Note Name: B2
Note ON: Time 182639, Note Name: D3, Velocity: 74
Note OFF: Time 182664, Note Name: C3
Note ON: Time 182763, Note Name: E3, Velocity: 74
Note OFF: Time 182783, Note Name: D3
Note ON: Time 182881, Note Name: F#3, Velocity: 75
Note OFF: Time 182907, Note Name: E3
Note ON: Time 183001, Note Name: G#3, Velocity: 75
Note OFF: Time 183025, Note Name: F#3
Note ON: Time 183123, Note Name: A3, Velocity: 78
Note OFF: Time 183145, Note Name: G#3
Note ON: Time 183241, Note Name: B3, Velocity: 78
Note OFF: Time 183267, Note Name: A3
Note ON: Time 183359, Note Name: C4, Velocity: 79
Note OFF: Time 183385, Note Name: B3
Note ON: Time 183479, Note Name: D4, Velocity: 80
Note OFF: Time 183503, Note Name: C4
Note ON: Time 183599, Note Name: E4, Velocity: 80
Note OFF: Time 183623, Note Name: D4
Note ON: Time 183721, Note Name: F#4, Velocity: 81
Note OFF: Time 183743, Note Name: E4
Note ON: Time 183841, Note Name: G#4, Velocity: 81
Note OFF: Time 183865, Note Name: F#4
Note ON: Time 183961, Note Name: A4, Velocity: 81
Note OFF: Time 183985, Note Name: G#4
Note ON: Time 184082, Note Name: B4, Velocity: 81
Note OFF: Time 184105, Note Name: A4
Note ON: Time 184200, Note Name: C5, Velocity: 82
Note OFF: Time 184226, Note Name: B4
Note ON: Time 184321, Note Name: D5, Velocity: 84
Note OFF: Time 184344, Note Name: C5
Note ON: Time 184439, Note Name: E5, Velocity: 84
Note OFF: Time 184465, Note Name: D5
Note ON: Time 184560, Note Name: F#5, Velocity: 85
Note OFF: Time 184583, Note Name: E5
Note ON: Time 184680, Note Name: G#5, Velocity: 85
Note OFF: Time 184704, Note Name: F#5
Note OFF: Time 184800, Note Name: A2
Note OFF: Time 184800, Note Name: A1
Note OFF: Time 184800, Note Name: E2
Note ON: Time 184800, Note Name: A5, Velocity: 93
Note OFF: Time 184824, Note Name: G#5
Note OFF: Time 185040, Note Name: A5
Track 3: Chopin: Etude Op, 25, No. 11
Track 4: Copyright © 1999 by Bernd Krüger
Track 5: http://www.piano-midi.de
Track 6: Edition: 2014-02-18
Track 7: Spur 7
