Processing chpn-p19.mid...

Track 0: Chopin Prelude  No. 19, Opus 28
Track 1: Piano right
Note ON: Time 960, Note Name: A#4, Velocity: 49
Note OFF: Time 1440, Note Name: A#4
Note ON: Time 1440, Note Name: A#4, Velocity: 48
Note OFF: Time 1600, Note Name: A#4
Note ON: Time 1600, Note Name: A#3, Velocity: 37
Note OFF: Time 1760, Note Name: A#3
Note ON: Time 1760, Note Name: G4, Velocity: 37
Note OFF: Time 1920, Note Name: G4
Note ON: Time 1920, Note Name: D#5, Velocity: 52
Note OFF: Time 2080, Note Name: D#5
Note ON: Time 2080, Note Name: D#4, Velocity: 39
Note OFF: Time 2240, Note Name: D#4
Note ON: Time 2240, Note Name: A#4, Velocity: 40
Note OFF: Time 2400, Note Name: A#4
Note ON: Time 2400, Note Name: G5, Velocity: 56
Note OFF: Time 2560, Note Name: G5
Note ON: Time 2560, Note Name: G4, Velocity: 41
Note OFF: Time 2720, Note Name: G4
Note ON: Time 2720, Note Name: D#5, Velocity: 44
Note OFF: Time 2880, Note Name: D#5
Note ON: Time 2880, Note Name: A#5, Velocity: 63
Note OFF: Time 3040, Note Name: A#5
Note ON: Time 3040, Note Name: A#4, Velocity: 49
Note OFF: Time 3200, Note Name: A#4
Note ON: Time 3200, Note Name: G5, Velocity: 50
Note OFF: Time 3360, Note Name: G5
Note ON: Time 3360, Note Name: D#6, Velocity: 68
Note OFF: Time 3520, Note Name: D#6
Note ON: Time 3520, Note Name: D#5, Velocity: 52
Note OFF: Time 3680, Note Name: D#5
Note ON: Time 3680, Note Name: A#5, Velocity: 55
Note OFF: Time 3840, Note Name: A#5
Note ON: Time 3840, Note Name: G6, Velocity: 71
Note OFF: Time 4000, Note Name: G6
Note ON: Time 4000, Note Name: G5, Velocity: 54
Note OFF: Time 4160, Note Name: G5
Note ON: Time 4160, Note Name: A#5, Velocity: 57
Note OFF: Time 4320, Note Name: A#5
Note ON: Time 4320, Note Name: F6, Velocity: 75
Note OFF: Time 4480, Note Name: F6
Note ON: Time 4480, Note Name: D5, Velocity: 58
Note OFF: Time 4640, Note Name: D5
Note ON: Time 4640, Note Name: G#5, Velocity: 56
Note OFF: Time 4800, Note Name: G#5
Note ON: Time 4800, Note Name: D#6, Velocity: 72
Note OFF: Time 4960, Note Name: D#6
Note ON: Time 4960, Note Name: D#5, Velocity: 56
Note OFF: Time 5120, Note Name: D#5
Note ON: Time 5120, Note Name: G#5, Velocity: 55
Note OFF: Time 5280, Note Name: G#5
Note ON: Time 5280, Note Name: C6, Velocity: 68
Note OFF: Time 5440, Note Name: C6
Note ON: Time 5440, Note Name: C5, Velocity: 51
Note OFF: Time 5600, Note Name: C5
Note ON: Time 5600, Note Name: G#5, Velocity: 49
Note OFF: Time 5760, Note Name: G#5
Note ON: Time 5760, Note Name: C6, Velocity: 70
Note OFF: Time 5920, Note Name: C6
Note ON: Time 5920, Note Name: C5, Velocity: 51
Note OFF: Time 6080, Note Name: C5
Note ON: Time 6080, Note Name: G5, Velocity: 46
Note OFF: Time 6240, Note Name: G5
Note ON: Time 6240, Note Name: A#5, Velocity: 62
Note OFF: Time 6400, Note Name: A#5
Note ON: Time 6400, Note Name: A#4, Velocity: 43
Note OFF: Time 6560, Note Name: A#4
Note ON: Time 6560, Note Name: D#5, Velocity: 43
Note OFF: Time 6720, Note Name: D#5
Note ON: Time 6720, Note Name: G5, Velocity: 60
Note OFF: Time 6880, Note Name: G5
Note ON: Time 6880, Note Name: G4, Velocity: 43
Note OFF: Time 7040, Note Name: G4
Note ON: Time 7040, Note Name: A#4, Velocity: 41
Note OFF: Time 7200, Note Name: A#4
Note ON: Time 7200, Note Name: D#5, Velocity: 53
Note OFF: Time 7360, Note Name: D#5
Note ON: Time 7360, Note Name: D#4, Velocity: 38
Note OFF: Time 7520, Note Name: D#4
Note ON: Time 7520, Note Name: A4, Velocity: 38
Note OFF: Time 7680, Note Name: A4
Note ON: Time 7680, Note Name: D5, Velocity: 54
Note OFF: Time 7840, Note Name: D5
Note ON: Time 7840, Note Name: D4, Velocity: 44
Note OFF: Time 8000, Note Name: D4
Note ON: Time 8000, Note Name: A4, Velocity: 48
Note OFF: Time 8160, Note Name: A4
Note ON: Time 8160, Note Name: D#5, Velocity: 64
Note OFF: Time 8320, Note Name: D#5
Note ON: Time 8320, Note Name: D#4, Velocity: 51
Note OFF: Time 8480, Note Name: D#4
Note ON: Time 8480, Note Name: A4, Velocity: 55
Note OFF: Time 8640, Note Name: A4
Note ON: Time 8640, Note Name: G5, Velocity: 70
Note OFF: Time 8800, Note Name: G5
Note ON: Time 8800, Note Name: G4, Velocity: 55
Note OFF: Time 8960, Note Name: G4
Note ON: Time 8960, Note Name: A#4, Velocity: 53
Note OFF: Time 9120, Note Name: A#4
Note ON: Time 9120, Note Name: F5, Velocity: 65
Note OFF: Time 9280, Note Name: F5
Note ON: Time 9280, Note Name: F4, Velocity: 49
Note OFF: Time 9440, Note Name: F4
Note ON: Time 9440, Note Name: A#4, Velocity: 47
Note OFF: Time 9600, Note Name: A#4
Note ON: Time 9600, Note Name: D5, Velocity: 63
Note OFF: Time 9760, Note Name: D5
Note ON: Time 9760, Note Name: D4, Velocity: 42
Note OFF: Time 9920, Note Name: D4
Note ON: Time 9920, Note Name: F4, Velocity: 41
Note OFF: Time 10080, Note Name: F4
Note ON: Time 10080, Note Name: D#5, Velocity: 53
Note OFF: Time 10240, Note Name: D#5
Note ON: Time 10240, Note Name: D#4, Velocity: 38
Note OFF: Time 10400, Note Name: D#4
Note ON: Time 10400, Note Name: A4, Velocity: 38
Note OFF: Time 10560, Note Name: A4
Note ON: Time 10560, Note Name: D5, Velocity: 54
Note OFF: Time 10720, Note Name: D5
Note ON: Time 10720, Note Name: D4, Velocity: 44
Note OFF: Time 10880, Note Name: D4
Note ON: Time 10880, Note Name: A4, Velocity: 47
Note OFF: Time 11040, Note Name: A4
Note ON: Time 11040, Note Name: D#5, Velocity: 59
Note OFF: Time 11200, Note Name: D#5
Note ON: Time 11200, Note Name: D#4, Velocity: 50
Note OFF: Time 11360, Note Name: D#4
Note ON: Time 11360, Note Name: A4, Velocity: 54
Note OFF: Time 11520, Note Name: A4
Note ON: Time 11520, Note Name: G5, Velocity: 67
Note OFF: Time 11680, Note Name: G5
Note ON: Time 11680, Note Name: G4, Velocity: 49
Note OFF: Time 11840, Note Name: G4
Note ON: Time 11840, Note Name: C5, Velocity: 48
Note OFF: Time 12000, Note Name: C5
Note ON: Time 12000, Note Name: F5, Velocity: 60
Note OFF: Time 12160, Note Name: F5
Note ON: Time 12160, Note Name: F4, Velocity: 43
Note OFF: Time 12320, Note Name: F4
Note ON: Time 12320, Note Name: G#4, Velocity: 42
Note OFF: Time 12480, Note Name: G#4
Note ON: Time 12480, Note Name: C5, Velocity: 58
Note OFF: Time 12640, Note Name: C5
Note ON: Time 12640, Note Name: C4, Velocity: 42
Note OFF: Time 12800, Note Name: C4
Note ON: Time 12800, Note Name: F4, Velocity: 41
Note OFF: Time 12960, Note Name: F4
Note ON: Time 12960, Note Name: A#4, Velocity: 53
Note OFF: Time 13120, Note Name: A#4
Note ON: Time 13120, Note Name: A#3, Velocity: 38
Note OFF: Time 13280, Note Name: A#3
Note ON: Time 13280, Note Name: G4, Velocity: 37
Note OFF: Time 13440, Note Name: G4
Note ON: Time 13440, Note Name: D#5, Velocity: 52
Note OFF: Time 13600, Note Name: D#5
Note ON: Time 13600, Note Name: D#4, Velocity: 39
Note OFF: Time 13760, Note Name: D#4
Note ON: Time 13760, Note Name: A#4, Velocity: 40
Note OFF: Time 13920, Note Name: A#4
Note ON: Time 13920, Note Name: G5, Velocity: 56
Note OFF: Time 14080, Note Name: G5
Note ON: Time 14080, Note Name: G4, Velocity: 41
Note OFF: Time 14240, Note Name: G4
Note ON: Time 14240, Note Name: D#5, Velocity: 44
Note OFF: Time 14400, Note Name: D#5
Note ON: Time 14400, Note Name: A#5, Velocity: 69
Note OFF: Time 14560, Note Name: A#5
Note ON: Time 14560, Note Name: A#4, Velocity: 49
Note OFF: Time 14720, Note Name: A#4
Note ON: Time 14720, Note Name: G5, Velocity: 50
Note OFF: Time 14880, Note Name: G5
Note ON: Time 14880, Note Name: D#6, Velocity: 74
Note OFF: Time 15040, Note Name: D#6
Note ON: Time 15040, Note Name: D#5, Velocity: 52
Note OFF: Time 15200, Note Name: D#5
Note ON: Time 15200, Note Name: A#5, Velocity: 55
Note OFF: Time 15360, Note Name: A#5
Note ON: Time 15360, Note Name: G6, Velocity: 77
Note OFF: Time 15520, Note Name: G6
Note ON: Time 15520, Note Name: G5, Velocity: 63
Note OFF: Time 15680, Note Name: G5
Note ON: Time 15680, Note Name: A#5, Velocity: 68
Note OFF: Time 15840, Note Name: A#5
Note ON: Time 15840, Note Name: F6, Velocity: 81
Note OFF: Time 16000, Note Name: F6
Note ON: Time 16000, Note Name: D5, Velocity: 64
Note OFF: Time 16160, Note Name: D5
Note ON: Time 16160, Note Name: G#5, Velocity: 61
Note OFF: Time 16320, Note Name: G#5
Note ON: Time 16320, Note Name: D#6, Velocity: 75
Note OFF: Time 16480, Note Name: D#6
Note ON: Time 16480, Note Name: D#5, Velocity: 56
Note OFF: Time 16640, Note Name: D#5
Note ON: Time 16640, Note Name: G#5, Velocity: 55
Note OFF: Time 16800, Note Name: G#5
Note ON: Time 16800, Note Name: C6, Velocity: 67
Note OFF: Time 16960, Note Name: C6
Note ON: Time 16960, Note Name: C5, Velocity: 51
Note OFF: Time 17120, Note Name: C5
Note ON: Time 17120, Note Name: G#5, Velocity: 49
Note OFF: Time 17280, Note Name: G#5
Note ON: Time 17280, Note Name: C6, Velocity: 70
Note OFF: Time 17440, Note Name: C6
Note ON: Time 17440, Note Name: C5, Velocity: 42
Note OFF: Time 17600, Note Name: C5
Note ON: Time 17600, Note Name: G5, Velocity: 43
Note OFF: Time 17760, Note Name: G5
Note ON: Time 17760, Note Name: A#5, Velocity: 62
Note OFF: Time 17920, Note Name: A#5
Note ON: Time 17920, Note Name: A#4, Velocity: 43
Note OFF: Time 18080, Note Name: A#4
Note ON: Time 18080, Note Name: D#5, Velocity: 43
Note OFF: Time 18240, Note Name: D#5
Note ON: Time 18240, Note Name: G5, Velocity: 60
Note OFF: Time 18400, Note Name: G5
Note ON: Time 18400, Note Name: G4, Velocity: 43
Note OFF: Time 18560, Note Name: G4
Note ON: Time 18560, Note Name: D#5, Velocity: 41
Note OFF: Time 18720, Note Name: D#5
Note ON: Time 18720, Note Name: F#5, Velocity: 57
Note OFF: Time 18880, Note Name: F#5
Note ON: Time 18880, Note Name: F#4, Velocity: 38
Note OFF: Time 19040, Note Name: F#4
Note ON: Time 19040, Note Name: D#5, Velocity: 37
Note OFF: Time 19200, Note Name: D#5
Note ON: Time 19200, Note Name: F5, Velocity: 53
Note OFF: Time 19360, Note Name: F5
Note ON: Time 19360, Note Name: F4, Velocity: 39
Note OFF: Time 19520, Note Name: F4
Note ON: Time 19520, Note Name: D#5, Velocity: 40
Note OFF: Time 19680, Note Name: D#5
Note ON: Time 19680, Note Name: F#5, Velocity: 59
Note OFF: Time 19840, Note Name: F#5
Note ON: Time 19840, Note Name: F#4, Velocity: 41
Note OFF: Time 20000, Note Name: F#4
Note ON: Time 20000, Note Name: D#5, Velocity: 44
Note OFF: Time 20160, Note Name: D#5
Note ON: Time 20160, Note Name: G5, Velocity: 63
Note OFF: Time 20320, Note Name: G5
Note ON: Time 20320, Note Name: G4, Velocity: 42
Note OFF: Time 20480, Note Name: G4
Note ON: Time 20480, Note Name: D5, Velocity: 42
Note OFF: Time 20640, Note Name: D5
Note ON: Time 20640, Note Name: A5, Velocity: 67
Note OFF: Time 20800, Note Name: A5
Note ON: Time 20800, Note Name: A4, Velocity: 47
Note OFF: Time 20960, Note Name: A4
Note ON: Time 20960, Note Name: D5, Velocity: 52
Note OFF: Time 21120, Note Name: D5
Note ON: Time 21120, Note Name: A#5, Velocity: 70
Note OFF: Time 21280, Note Name: A#5
Note ON: Time 21280, Note Name: A#4, Velocity: 51
Note OFF: Time 21440, Note Name: A#4
Note ON: Time 21440, Note Name: D5, Velocity: 55
Note OFF: Time 21600, Note Name: D5
Note ON: Time 21600, Note Name: C6, Velocity: 75
Note OFF: Time 21760, Note Name: C6
Note ON: Time 21760, Note Name: C5, Velocity: 55
Note OFF: Time 21920, Note Name: C5
Note ON: Time 21920, Note Name: F5, Velocity: 55
Note OFF: Time 22080, Note Name: F5
Note ON: Time 22080, Note Name: D6, Velocity: 72
Note OFF: Time 22240, Note Name: D6
Note ON: Time 22240, Note Name: D5, Velocity: 54
Note OFF: Time 22400, Note Name: D5
Note ON: Time 22400, Note Name: F5, Velocity: 48
Note OFF: Time 22560, Note Name: F5
Note ON: Time 22560, Note Name: A5, Velocity: 67
Note OFF: Time 22720, Note Name: A5
Note ON: Time 22720, Note Name: A4, Velocity: 48
Note OFF: Time 22880, Note Name: A4
Note ON: Time 22880, Note Name: F5, Velocity: 50
Note OFF: Time 23040, Note Name: F5
Note ON: Time 23040, Note Name: C6, Velocity: 68
Note OFF: Time 23200, Note Name: C6
Note ON: Time 23200, Note Name: C5, Velocity: 52
Note OFF: Time 23360, Note Name: C5
Note ON: Time 23360, Note Name: F5, Velocity: 48
Note OFF: Time 23520, Note Name: F5
Note ON: Time 23520, Note Name: A#5, Velocity: 67
Note OFF: Time 23680, Note Name: A#5
Note ON: Time 23680, Note Name: A#4, Velocity: 43
Note OFF: Time 23840, Note Name: A#4
Note ON: Time 23840, Note Name: F5, Velocity: 42
Note OFF: Time 24000, Note Name: F5
Note ON: Time 24000, Note Name: F5, Velocity: 65
Note OFF: Time 24160, Note Name: F5
Note ON: Time 24160, Note Name: F4, Velocity: 42
Note OFF: Time 24320, Note Name: F4
Note ON: Time 24320, Note Name: A#4, Velocity: 41
Note OFF: Time 24480, Note Name: A#4
Note ON: Time 24480, Note Name: F5, Velocity: 59
Note OFF: Time 24640, Note Name: F5
Note ON: Time 24640, Note Name: F4, Velocity: 47
Note OFF: Time 24800, Note Name: F4
Note ON: Time 24800, Note Name: B4, Velocity: 41
Note OFF: Time 24960, Note Name: B4
Note ON: Time 24960, Note Name: D#5, Velocity: 54
Note OFF: Time 25120, Note Name: D#5
Note ON: Time 25120, Note Name: D#4, Velocity: 41
Note OFF: Time 25280, Note Name: D#4
Note ON: Time 25280, Note Name: A#4, Velocity: 43
Note OFF: Time 25440, Note Name: A#4
Note ON: Time 25440, Note Name: F5, Velocity: 64
Note OFF: Time 25600, Note Name: F5
Note ON: Time 25600, Note Name: C#4, Velocity: 44
Note OFF: Time 25760, Note Name: C#4
Note ON: Time 25760, Note Name: G#4, Velocity: 47
Note OFF: Time 25920, Note Name: G#4
Note ON: Time 25920, Note Name: G#5, Velocity: 70
Note OFF: Time 26080, Note Name: G#5
Note ON: Time 26080, Note Name: C#4, Velocity: 53
Note OFF: Time 26240, Note Name: C#4
Note ON: Time 26240, Note Name: A#4, Velocity: 52
Note OFF: Time 26400, Note Name: A#4
Note ON: Time 26400, Note Name: F#5, Velocity: 67
Note OFF: Time 26560, Note Name: F#5
Note ON: Time 26560, Note Name: C#4, Velocity: 43
Note OFF: Time 26720, Note Name: C#4
Note ON: Time 26720, Note Name: A#4, Velocity: 42
Note OFF: Time 26880, Note Name: A#4
Note ON: Time 26880, Note Name: C#5, Velocity: 62
Note OFF: Time 27040, Note Name: C#5
Note ON: Time 27040, Note Name: C#4, Velocity: 42
Note OFF: Time 27200, Note Name: C#4
Note ON: Time 27200, Note Name: A#4, Velocity: 41
Note OFF: Time 27360, Note Name: A#4
Note ON: Time 27360, Note Name: F5, Velocity: 53
Note OFF: Time 27520, Note Name: F5
Note ON: Time 27520, Note Name: C#4, Velocity: 38
Note OFF: Time 27680, Note Name: C#4
Note ON: Time 27680, Note Name: B4, Velocity: 38
Note OFF: Time 27840, Note Name: B4
Note ON: Time 27840, Note Name: D#5, Velocity: 54
Note OFF: Time 28000, Note Name: D#5
Note ON: Time 28000, Note Name: C#4, Velocity: 41
Note OFF: Time 28160, Note Name: C#4
Note ON: Time 28160, Note Name: A#4, Velocity: 43
Note OFF: Time 28320, Note Name: A#4
Note ON: Time 28320, Note Name: F5, Velocity: 59
Note OFF: Time 28480, Note Name: F5
Note ON: Time 28480, Note Name: C#4, Velocity: 49
Note OFF: Time 28640, Note Name: C#4
Note ON: Time 28640, Note Name: G#4, Velocity: 47
Note OFF: Time 28800, Note Name: G#4
Note ON: Time 28800, Note Name: G#5, Velocity: 69
Note OFF: Time 28960, Note Name: G#5
Note ON: Time 28960, Note Name: C#4, Velocity: 51
Note OFF: Time 29120, Note Name: C#4
Note ON: Time 29120, Note Name: A#4, Velocity: 50
Note OFF: Time 29280, Note Name: A#4
Note ON: Time 29280, Note Name: F#5, Velocity: 67
Note OFF: Time 29440, Note Name: F#5
Note ON: Time 29440, Note Name: C#4, Velocity: 43
Note OFF: Time 29600, Note Name: C#4
Note ON: Time 29600, Note Name: A#4, Velocity: 42
Note OFF: Time 29760, Note Name: A#4
Note ON: Time 29760, Note Name: C#5, Velocity: 62
Note OFF: Time 29920, Note Name: C#5
Note ON: Time 29920, Note Name: C#4, Velocity: 42
Note OFF: Time 30080, Note Name: C#4
Note ON: Time 30080, Note Name: A#4, Velocity: 41
Note OFF: Time 30240, Note Name: A#4
Note ON: Time 30240, Note Name: E5, Velocity: 58
Note OFF: Time 30400, Note Name: E5
Note ON: Time 30400, Note Name: E4, Velocity: 38
Note OFF: Time 30560, Note Name: E4
Note ON: Time 30560, Note Name: A#4, Velocity: 38
Note OFF: Time 30720, Note Name: A#4
Note ON: Time 30720, Note Name: A#5, Velocity: 63
Note OFF: Time 30880, Note Name: A#5
Note ON: Time 30880, Note Name: E4, Velocity: 44
Note OFF: Time 31040, Note Name: E4
Note ON: Time 31040, Note Name: C#5, Velocity: 45
Note OFF: Time 31200, Note Name: C#5
Note ON: Time 31200, Note Name: C#6, Velocity: 68
Note OFF: Time 31360, Note Name: C#6
Note ON: Time 31360, Note Name: A#4, Velocity: 48
Note OFF: Time 31520, Note Name: A#4
Note ON: Time 31520, Note Name: E5, Velocity: 51
Note OFF: Time 31680, Note Name: E5
Note ON: Time 31680, Note Name: D6, Velocity: 76
Note OFF: Time 31840, Note Name: D6
Note ON: Time 31840, Note Name: A#4, Velocity: 53
Note OFF: Time 32000, Note Name: A#4
Note ON: Time 32000, Note Name: F5, Velocity: 52
Note OFF: Time 32160, Note Name: F5
Note ON: Time 32160, Note Name: D#6, Velocity: 72
Note OFF: Time 32320, Note Name: D#6
Note ON: Time 32320, Note Name: A#4, Velocity: 43
Note OFF: Time 32480, Note Name: A#4
Note ON: Time 32480, Note Name: G5, Velocity: 43
Note OFF: Time 32640, Note Name: G5
Note ON: Time 32640, Note Name: B5, Velocity: 66
Note OFF: Time 32800, Note Name: B5
Note ON: Time 32800, Note Name: G#4, Velocity: 53
Note OFF: Time 32960, Note Name: G#4
Note ON: Time 32960, Note Name: D5, Velocity: 54
Note OFF: Time 33120, Note Name: D5
Note ON: Time 33120, Note Name: C6, Velocity: 71
Note OFF: Time 33280, Note Name: C6
Note ON: Time 33280, Note Name: A4, Velocity: 55
Note OFF: Time 33440, Note Name: A4
Note ON: Time 33440, Note Name: D#5, Velocity: 52
Note OFF: Time 33600, Note Name: D#5
Note ON: Time 33600, Note Name: D6, Velocity: 70
Note OFF: Time 33760, Note Name: D6
Note ON: Time 33760, Note Name: A4, Velocity: 51
Note OFF: Time 33920, Note Name: A4
Note ON: Time 33920, Note Name: F5, Velocity: 47
Note OFF: Time 34080, Note Name: F5
Note ON: Time 34080, Note Name: A5, Velocity: 62
Note OFF: Time 34240, Note Name: A5
Note ON: Time 34240, Note Name: A4, Velocity: 42
Note OFF: Time 34400, Note Name: A4
Note ON: Time 34400, Note Name: C5, Velocity: 43
Note OFF: Time 34560, Note Name: C5
Note ON: Time 34560, Note Name: C6, Velocity: 70
Note OFF: Time 34720, Note Name: C6
Note ON: Time 34720, Note Name: F4, Velocity: 48
Note OFF: Time 34880, Note Name: F4
Note ON: Time 34880, Note Name: D#5, Velocity: 47
Note OFF: Time 35040, Note Name: D#5
Note ON: Time 35040, Note Name: A#5, Velocity: 65
Note OFF: Time 35200, Note Name: A#5
Note ON: Time 35200, Note Name: F4, Velocity: 43
Note OFF: Time 35360, Note Name: F4
Note ON: Time 35360, Note Name: D5, Velocity: 42
Note OFF: Time 35520, Note Name: D5
Note ON: Time 35520, Note Name: F5, Velocity: 59
Note OFF: Time 35680, Note Name: F5
Note ON: Time 35680, Note Name: F4, Velocity: 42
Note OFF: Time 35840, Note Name: F4
Note ON: Time 35840, Note Name: A#4, Velocity: 41
Note OFF: Time 36000, Note Name: A#4
Note ON: Time 36000, Note Name: F5, Velocity: 57
Note OFF: Time 36160, Note Name: F5
Note ON: Time 36160, Note Name: F4, Velocity: 38
Note OFF: Time 36320, Note Name: F4
Note ON: Time 36320, Note Name: B4, Velocity: 38
Note OFF: Time 36480, Note Name: B4
Note ON: Time 36480, Note Name: D#5, Velocity: 59
Note OFF: Time 36640, Note Name: D#5
Note ON: Time 36640, Note Name: D#4, Velocity: 45
Note OFF: Time 36800, Note Name: D#4
Note ON: Time 36800, Note Name: A#4, Velocity: 47
Note OFF: Time 36960, Note Name: A#4
Note ON: Time 36960, Note Name: F5, Velocity: 66
Note OFF: Time 37120, Note Name: F5
Note ON: Time 37120, Note Name: C#4, Velocity: 53
Note OFF: Time 37280, Note Name: C#4
Note ON: Time 37280, Note Name: G#4, Velocity: 56
Note OFF: Time 37440, Note Name: G#4
Note ON: Time 37440, Note Name: G#5, Velocity: 71
Note OFF: Time 37600, Note Name: G#5
Note ON: Time 37600, Note Name: C#4, Velocity: 53
Note OFF: Time 37760, Note Name: C#4
Note ON: Time 37760, Note Name: A#4, Velocity: 52
Note OFF: Time 37920, Note Name: A#4
Note ON: Time 37920, Note Name: F#5, Velocity: 66
Note OFF: Time 38080, Note Name: F#5
Note ON: Time 38080, Note Name: C#4, Velocity: 49
Note OFF: Time 38240, Note Name: C#4
Note ON: Time 38240, Note Name: A#4, Velocity: 46
Note OFF: Time 38400, Note Name: A#4
Note ON: Time 38400, Note Name: C#5, Velocity: 59
Note OFF: Time 38560, Note Name: C#5
Note ON: Time 38560, Note Name: C#4, Velocity: 42
Note OFF: Time 38720, Note Name: C#4
Note ON: Time 38720, Note Name: A#4, Velocity: 41
Note OFF: Time 38880, Note Name: A#4
Note ON: Time 38880, Note Name: F5, Velocity: 56
Note OFF: Time 39040, Note Name: F5
Note ON: Time 39040, Note Name: C#4, Velocity: 38
Note OFF: Time 39200, Note Name: C#4
Note ON: Time 39200, Note Name: B4, Velocity: 38
Note OFF: Time 39360, Note Name: B4
Note ON: Time 39360, Note Name: D#5, Velocity: 56
Note OFF: Time 39520, Note Name: D#5
Note ON: Time 39520, Note Name: C#4, Velocity: 43
Note OFF: Time 39680, Note Name: C#4
Note ON: Time 39680, Note Name: A#4, Velocity: 47
Note OFF: Time 39840, Note Name: A#4
Note ON: Time 39840, Note Name: F5, Velocity: 66
Note OFF: Time 40000, Note Name: F5
Note ON: Time 40000, Note Name: C#4, Velocity: 49
Note OFF: Time 40160, Note Name: C#4
Note ON: Time 40160, Note Name: G#4, Velocity: 54
Note OFF: Time 40320, Note Name: G#4
Note ON: Time 40320, Note Name: G#5, Velocity: 72
Note OFF: Time 40480, Note Name: G#5
Note ON: Time 40480, Note Name: C#4, Velocity: 53
Note OFF: Time 40640, Note Name: C#4
Note ON: Time 40640, Note Name: A#4, Velocity: 52
Note OFF: Time 40800, Note Name: A#4
Note ON: Time 40800, Note Name: F#5, Velocity: 68
Note OFF: Time 40960, Note Name: F#5
Note ON: Time 40960, Note Name: C#4, Velocity: 43
Note OFF: Time 41120, Note Name: C#4
Note ON: Time 41120, Note Name: A#4, Velocity: 42
Note OFF: Time 41280, Note Name: A#4
Note ON: Time 41280, Note Name: F5, Velocity: 63
Note OFF: Time 41440, Note Name: F5
Note ON: Time 41440, Note Name: C#4, Velocity: 42
Note OFF: Time 41600, Note Name: C#4
Note ON: Time 41600, Note Name: A#4, Velocity: 41
Note OFF: Time 41760, Note Name: A#4
Note ON: Time 41760, Note Name: E5, Velocity: 60
Note OFF: Time 41920, Note Name: E5
Note ON: Time 41920, Note Name: C#4, Velocity: 43
Note OFF: Time 42080, Note Name: C#4
Note ON: Time 42080, Note Name: A#4, Velocity: 43
Note OFF: Time 42240, Note Name: A#4
Note ON: Time 42240, Note Name: G5, Velocity: 67
Note OFF: Time 42400, Note Name: G5
Note ON: Time 42400, Note Name: E4, Velocity: 44
Note OFF: Time 42560, Note Name: E4
Note ON: Time 42560, Note Name: C#5, Velocity: 46
Note OFF: Time 42720, Note Name: C#5
Note ON: Time 42720, Note Name: F#5, Velocity: 63
Note OFF: Time 42880, Note Name: F#5
Note ON: Time 42880, Note Name: D#4, Velocity: 46
Note OFF: Time 43040, Note Name: D#4
Note ON: Time 43040, Note Name: C5, Velocity: 49
Note OFF: Time 43200, Note Name: C5
Note ON: Time 43200, Note Name: A5, Velocity: 72
Note OFF: Time 43360, Note Name: A5
Note ON: Time 43360, Note Name: F#4, Velocity: 47
Note OFF: Time 43520, Note Name: F#4
Note ON: Time 43520, Note Name: D#5, Velocity: 46
Note OFF: Time 43680, Note Name: D#5
Note ON: Time 43680, Note Name: G#5, Velocity: 71
Note OFF: Time 43840, Note Name: G#5
Note ON: Time 43840, Note Name: F4, Velocity: 48
Note OFF: Time 44000, Note Name: F4
Note ON: Time 44000, Note Name: D5, Velocity: 49
Note OFF: Time 44160, Note Name: D5
Note ON: Time 44160, Note Name: B5, Velocity: 77
Note OFF: Time 44320, Note Name: B5
Note ON: Time 44320, Note Name: G#4, Velocity: 51
Note OFF: Time 44480, Note Name: G#4
Note ON: Time 44480, Note Name: F5, Velocity: 53
Note OFF: Time 44640, Note Name: F5
Note ON: Time 44640, Note Name: A#5, Velocity: 74
Note OFF: Time 44800, Note Name: A#5
Note ON: Time 44800, Note Name: G4, Velocity: 58
Note OFF: Time 44960, Note Name: G4
Note ON: Time 44960, Note Name: E5, Velocity: 63
Note OFF: Time 45120, Note Name: E5
Note ON: Time 45120, Note Name: C#6, Velocity: 88
Note OFF: Time 45280, Note Name: C#6
Note ON: Time 45280, Note Name: A#4, Velocity: 66
Note OFF: Time 45440, Note Name: A#4
Note ON: Time 45440, Note Name: G5, Velocity: 68
Note OFF: Time 45600, Note Name: G5
Note ON: Time 45600, Note Name: C6, Velocity: 84
Note OFF: Time 45760, Note Name: C6
Note ON: Time 45760, Note Name: A4, Velocity: 68
Note OFF: Time 45920, Note Name: A4
Note ON: Time 45920, Note Name: F#5, Velocity: 66
Note OFF: Time 46080, Note Name: F#5
Note ON: Time 46080, Note Name: D#6, Velocity: 94
Note OFF: Time 46240, Note Name: D#6
Note ON: Time 46240, Note Name: C5, Velocity: 69
Note OFF: Time 46400, Note Name: C5
Note ON: Time 46400, Note Name: A5, Velocity: 70
Note OFF: Time 46560, Note Name: A5
Note ON: Time 46560, Note Name: D6, Velocity: 88
Note OFF: Time 46720, Note Name: D6
Note ON: Time 46720, Note Name: B4, Velocity: 63
Note OFF: Time 46880, Note Name: B4
Note ON: Time 46880, Note Name: G#5, Velocity: 64
Note OFF: Time 47040, Note Name: G#5
Note ON: Time 47040, Note Name: F6, Velocity: 85
Note OFF: Time 47280, Note Name: F6
Note ON: Time 47520, Note Name: A#4, Velocity: 48
Note OFF: Time 47680, Note Name: A#4
Note ON: Time 47680, Note Name: A#3, Velocity: 37
Note OFF: Time 47840, Note Name: A#3
Note ON: Time 47840, Note Name: G4, Velocity: 37
Note OFF: Time 48000, Note Name: G4
Note ON: Time 48000, Note Name: D#5, Velocity: 52
Note OFF: Time 48160, Note Name: D#5
Note ON: Time 48160, Note Name: D#4, Velocity: 42
Note OFF: Time 48320, Note Name: D#4
Note ON: Time 48320, Note Name: A#4, Velocity: 44
Note OFF: Time 48480, Note Name: A#4
Note ON: Time 48480, Note Name: G5, Velocity: 61
Note OFF: Time 48640, Note Name: G5
Note ON: Time 48640, Note Name: G4, Velocity: 51
Note OFF: Time 48800, Note Name: G4
Note ON: Time 48800, Note Name: D#5, Velocity: 54
Note OFF: Time 48960, Note Name: D#5
Note ON: Time 48960, Note Name: A#5, Velocity: 66
Note OFF: Time 49120, Note Name: A#5
Note ON: Time 49120, Note Name: A#4, Velocity: 57
Note OFF: Time 49280, Note Name: A#4
Note ON: Time 49280, Note Name: G5, Velocity: 57
Note OFF: Time 49440, Note Name: G5
Note ON: Time 49440, Note Name: D#6, Velocity: 74
Note OFF: Time 49600, Note Name: D#6
Note ON: Time 49600, Note Name: D#5, Velocity: 59
Note OFF: Time 49760, Note Name: D#5
Note ON: Time 49760, Note Name: A#5, Velocity: 62
Note OFF: Time 49920, Note Name: A#5
Note ON: Time 49920, Note Name: G6, Velocity: 73
Note OFF: Time 50080, Note Name: G6
Note ON: Time 50080, Note Name: G5, Velocity: 60
Note OFF: Time 50240, Note Name: G5
Note ON: Time 50240, Note Name: A#5, Velocity: 65
Note OFF: Time 50400, Note Name: A#5
Note ON: Time 50400, Note Name: F6, Velocity: 79
Note OFF: Time 50560, Note Name: F6
Note ON: Time 50560, Note Name: D5, Velocity: 58
Note OFF: Time 50720, Note Name: D5
Note ON: Time 50720, Note Name: G#5, Velocity: 52
Note OFF: Time 50880, Note Name: G#5
Note ON: Time 50880, Note Name: D#6, Velocity: 76
Note OFF: Time 51040, Note Name: D#6
Note ON: Time 51040, Note Name: D#5, Velocity: 56
Note OFF: Time 51200, Note Name: D#5
Note ON: Time 51200, Note Name: G#5, Velocity: 51
Note OFF: Time 51360, Note Name: G#5
Note ON: Time 51360, Note Name: C6, Velocity: 70
Note OFF: Time 51520, Note Name: C6
Note ON: Time 51520, Note Name: C5, Velocity: 51
Note OFF: Time 51680, Note Name: C5
Note ON: Time 51680, Note Name: G#5, Velocity: 49
Note OFF: Time 51840, Note Name: G#5
Note ON: Time 51840, Note Name: C6, Velocity: 70
Note OFF: Time 52000, Note Name: C6
Note ON: Time 52000, Note Name: C5, Velocity: 42
Note OFF: Time 52160, Note Name: C5
Note ON: Time 52160, Note Name: G5, Velocity: 43
Note OFF: Time 52320, Note Name: G5
Note ON: Time 52320, Note Name: A#5, Velocity: 62
Note OFF: Time 52480, Note Name: A#5
Note ON: Time 52480, Note Name: A#4, Velocity: 43
Note OFF: Time 52640, Note Name: A#4
Note ON: Time 52640, Note Name: D#5, Velocity: 43
Note OFF: Time 52800, Note Name: D#5
Note ON: Time 52800, Note Name: G5, Velocity: 60
Note OFF: Time 52960, Note Name: G5
Note ON: Time 52960, Note Name: G4, Velocity: 43
Note OFF: Time 53120, Note Name: G4
Note ON: Time 53120, Note Name: A#4, Velocity: 41
Note OFF: Time 53280, Note Name: A#4
Note ON: Time 53280, Note Name: D#5, Velocity: 53
Note OFF: Time 53440, Note Name: D#5
Note ON: Time 53440, Note Name: D#4, Velocity: 38
Note OFF: Time 53600, Note Name: D#4
Note ON: Time 53600, Note Name: A4, Velocity: 38
Note OFF: Time 53760, Note Name: A4
Note ON: Time 53760, Note Name: D5, Velocity: 54
Note OFF: Time 53920, Note Name: D5
Note ON: Time 53920, Note Name: D4, Velocity: 41
Note OFF: Time 54080, Note Name: D4
Note ON: Time 54080, Note Name: A4, Velocity: 43
Note OFF: Time 54240, Note Name: A4
Note ON: Time 54240, Note Name: D#5, Velocity: 64
Note OFF: Time 54400, Note Name: D#5
Note ON: Time 54400, Note Name: D#4, Velocity: 51
Note OFF: Time 54560, Note Name: D#4
Note ON: Time 54560, Note Name: A4, Velocity: 57
Note OFF: Time 54720, Note Name: A4
Note ON: Time 54720, Note Name: G5, Velocity: 71
Note OFF: Time 54880, Note Name: G5
Note ON: Time 54880, Note Name: G4, Velocity: 51
Note OFF: Time 55040, Note Name: G4
Note ON: Time 55040, Note Name: A#4, Velocity: 51
Note OFF: Time 55200, Note Name: A#4
Note ON: Time 55200, Note Name: F5, Velocity: 67
Note OFF: Time 55360, Note Name: F5
Note ON: Time 55360, Note Name: F4, Velocity: 43
Note OFF: Time 55520, Note Name: F4
Note ON: Time 55520, Note Name: A#4, Velocity: 42
Note OFF: Time 55680, Note Name: A#4
Note ON: Time 55680, Note Name: D5, Velocity: 63
Note OFF: Time 55840, Note Name: D5
Note ON: Time 55840, Note Name: D4, Velocity: 42
Note OFF: Time 56000, Note Name: D4
Note ON: Time 56000, Note Name: F4, Velocity: 41
Note OFF: Time 56160, Note Name: F4
Note ON: Time 56160, Note Name: D#5, Velocity: 53
Note OFF: Time 56320, Note Name: D#5
Note ON: Time 56320, Note Name: D#4, Velocity: 38
Note OFF: Time 56480, Note Name: D#4
Note ON: Time 56480, Note Name: A4, Velocity: 38
Note OFF: Time 56640, Note Name: A4
Note ON: Time 56640, Note Name: D5, Velocity: 54
Note OFF: Time 56800, Note Name: D5
Note ON: Time 56800, Note Name: D4, Velocity: 41
Note OFF: Time 56960, Note Name: D4
Note ON: Time 56960, Note Name: A4, Velocity: 43
Note OFF: Time 57120, Note Name: A4
Note ON: Time 57120, Note Name: D#5, Velocity: 65
Note OFF: Time 57280, Note Name: D#5
Note ON: Time 57280, Note Name: D#4, Velocity: 51
Note OFF: Time 57440, Note Name: D#4
Note ON: Time 57440, Note Name: A4, Velocity: 58
Note OFF: Time 57600, Note Name: A4
Note ON: Time 57600, Note Name: G5, Velocity: 71
Note OFF: Time 57760, Note Name: G5
Note ON: Time 57760, Note Name: G4, Velocity: 54
Note OFF: Time 57920, Note Name: G4
Note ON: Time 57920, Note Name: C5, Velocity: 51
Note OFF: Time 58080, Note Name: C5
Note ON: Time 58080, Note Name: F5, Velocity: 60
Note OFF: Time 58240, Note Name: F5
Note ON: Time 58240, Note Name: F4, Velocity: 43
Note OFF: Time 58400, Note Name: F4
Note ON: Time 58400, Note Name: G#4, Velocity: 42
Note OFF: Time 58560, Note Name: G#4
Note ON: Time 58560, Note Name: C5, Velocity: 58
Note OFF: Time 58720, Note Name: C5
Note ON: Time 58720, Note Name: C4, Velocity: 42
Note OFF: Time 58880, Note Name: C4
Note ON: Time 58880, Note Name: F4, Velocity: 41
Note OFF: Time 59040, Note Name: F4
Note ON: Time 59040, Note Name: A#4, Velocity: 53
Note OFF: Time 59200, Note Name: A#4
Note ON: Time 59200, Note Name: A#3, Velocity: 38
Note OFF: Time 59360, Note Name: A#3
Note ON: Time 59360, Note Name: G4, Velocity: 37
Note OFF: Time 59520, Note Name: G4
Note ON: Time 59520, Note Name: D#5, Velocity: 51
Note OFF: Time 59680, Note Name: D#5
Note ON: Time 59680, Note Name: D#4, Velocity: 38
Note OFF: Time 59840, Note Name: D#4
Note ON: Time 59840, Note Name: A#4, Velocity: 40
Note OFF: Time 60000, Note Name: A#4
Note ON: Time 60000, Note Name: G5, Velocity: 54
Note OFF: Time 60160, Note Name: G5
Note ON: Time 60160, Note Name: G4, Velocity: 40
Note OFF: Time 60320, Note Name: G4
Note ON: Time 60320, Note Name: D#5, Velocity: 43
Note OFF: Time 60480, Note Name: D#5
Note ON: Time 60480, Note Name: A#5, Velocity: 65
Note OFF: Time 60640, Note Name: A#5
Note ON: Time 60640, Note Name: A#4, Velocity: 47
Note OFF: Time 60800, Note Name: A#4
Note ON: Time 60800, Note Name: G5, Velocity: 47
Note OFF: Time 60960, Note Name: G5
Note ON: Time 60960, Note Name: D#6, Velocity: 70
Note OFF: Time 61120, Note Name: D#6
Note ON: Time 61120, Note Name: D#5, Velocity: 49
Note OFF: Time 61280, Note Name: D#5
Note ON: Time 61280, Note Name: A#5, Velocity: 51
Note OFF: Time 61440, Note Name: A#5
Note ON: Time 61440, Note Name: G6, Velocity: 73
Note OFF: Time 61600, Note Name: G6
Note ON: Time 61600, Note Name: G5, Velocity: 51
Note OFF: Time 61760, Note Name: G5
Note ON: Time 61760, Note Name: A#5, Velocity: 53
Note OFF: Time 61920, Note Name: A#5
Note ON: Time 61920, Note Name: F#6, Velocity: 81
Note OFF: Time 62080, Note Name: F#6
Note ON: Time 62080, Note Name: D#5, Velocity: 57
Note OFF: Time 62240, Note Name: D#5
Note ON: Time 62240, Note Name: A5, Velocity: 59
Note OFF: Time 62400, Note Name: A5
Note ON: Time 62400, Note Name: F6, Velocity: 77
Note OFF: Time 62560, Note Name: F6
Note ON: Time 62560, Note Name: D5, Velocity: 57
Note OFF: Time 62720, Note Name: D5
Note ON: Time 62720, Note Name: G#5, Velocity: 58
Note OFF: Time 62880, Note Name: G#5
Note ON: Time 62880, Note Name: E6, Velocity: 76
Note OFF: Time 63040, Note Name: E6
Note ON: Time 63040, Note Name: C#5, Velocity: 52
Note OFF: Time 63200, Note Name: C#5
Note ON: Time 63200, Note Name: G5, Velocity: 51
Note OFF: Time 63360, Note Name: G5
Note ON: Time 63360, Note Name: D#6, Velocity: 84
Note OFF: Time 63520, Note Name: D#6
Note ON: Time 63520, Note Name: C5, Velocity: 53
Note OFF: Time 63680, Note Name: C5
Note ON: Time 63680, Note Name: F#5, Velocity: 53
Note OFF: Time 63840, Note Name: F#5
Note ON: Time 63840, Note Name: D6, Velocity: 75
Note OFF: Time 64000, Note Name: D6
Note ON: Time 64000, Note Name: B4, Velocity: 52
Note OFF: Time 64160, Note Name: B4
Note ON: Time 64160, Note Name: F5, Velocity: 48
Note OFF: Time 64320, Note Name: F5
Note ON: Time 64320, Note Name: C#6, Velocity: 70
Note OFF: Time 64480, Note Name: C#6
Note ON: Time 64480, Note Name: C#5, Velocity: 52
Note OFF: Time 64640, Note Name: C#5
Note ON: Time 64640, Note Name: G5, Velocity: 51
Note OFF: Time 64800, Note Name: G5
Note ON: Time 64800, Note Name: C6, Velocity: 74
Note OFF: Time 64960, Note Name: C6
Note ON: Time 64960, Note Name: C5, Velocity: 50
Note OFF: Time 65120, Note Name: C5
Note ON: Time 65120, Note Name: F5, Velocity: 49
Note OFF: Time 65280, Note Name: F5
Note ON: Time 65280, Note Name: D6, Velocity: 79
Note OFF: Time 65440, Note Name: D6
Note ON: Time 65440, Note Name: C5, Velocity: 56
Note OFF: Time 65600, Note Name: C5
Note ON: Time 65600, Note Name: F5, Velocity: 58
Note OFF: Time 65760, Note Name: F5
Note ON: Time 65760, Note Name: D#6, Velocity: 86
Note OFF: Time 65920, Note Name: D#6
Note ON: Time 65920, Note Name: C5, Velocity: 61
Note OFF: Time 66080, Note Name: C5
Note ON: Time 66080, Note Name: F5, Velocity: 65
Note OFF: Time 66240, Note Name: F5
Note ON: Time 66240, Note Name: F6, Velocity: 89
Note OFF: Time 66400, Note Name: F6
Note ON: Time 66400, Note Name: F5, Velocity: 62
Note OFF: Time 66560, Note Name: F5
Note ON: Time 66560, Note Name: C6, Velocity: 63
Note OFF: Time 66720, Note Name: C6
Note ON: Time 66720, Note Name: G6, Velocity: 80
Note OFF: Time 66880, Note Name: G6
Note ON: Time 66880, Note Name: G5, Velocity: 50
Note OFF: Time 67040, Note Name: G5
Note ON: Time 67040, Note Name: C6, Velocity: 51
Note OFF: Time 67200, Note Name: C6
Note ON: Time 67200, Note Name: F6, Velocity: 75
Note OFF: Time 67360, Note Name: F6
Note ON: Time 67360, Note Name: F5, Velocity: 47
Note OFF: Time 67520, Note Name: F5
Note ON: Time 67520, Note Name: G#5, Velocity: 48
Note OFF: Time 67680, Note Name: G#5
Note ON: Time 67680, Note Name: C6, Velocity: 70
Note OFF: Time 67840, Note Name: C6
Note ON: Time 67840, Note Name: C5, Velocity: 51
Note OFF: Time 68000, Note Name: C5
Note ON: Time 68000, Note Name: F5, Velocity: 50
Note OFF: Time 68160, Note Name: F5
Note ON: Time 68160, Note Name: D6, Velocity: 68
Note OFF: Time 68320, Note Name: D6
Note ON: Time 68320, Note Name: D5, Velocity: 53
Note OFF: Time 68480, Note Name: D5
Note ON: Time 68480, Note Name: F5, Velocity: 49
Note OFF: Time 68640, Note Name: F5
Note ON: Time 68640, Note Name: C6, Velocity: 61
Note OFF: Time 68800, Note Name: C6
Note ON: Time 68800, Note Name: C5, Velocity: 44
Note OFF: Time 68960, Note Name: C5
Note ON: Time 68960, Note Name: F5, Velocity: 46
Note OFF: Time 69120, Note Name: F5
Note ON: Time 69120, Note Name: F5, Velocity: 57
Note OFF: Time 69280, Note Name: F5
Note ON: Time 69280, Note Name: F4, Velocity: 42
Note OFF: Time 69440, Note Name: F4
Note ON: Time 69440, Note Name: C5, Velocity: 41
Note OFF: Time 69600, Note Name: C5
Note ON: Time 69600, Note Name: G5, Velocity: 55
Note OFF: Time 69760, Note Name: G5
Note ON: Time 69760, Note Name: F4, Velocity: 44
Note OFF: Time 69920, Note Name: F4
Note ON: Time 69920, Note Name: C5, Velocity: 44
Note OFF: Time 70080, Note Name: C5
Note ON: Time 70080, Note Name: D5, Velocity: 50
Note OFF: Time 70240, Note Name: D5
Note ON: Time 70240, Note Name: D4, Velocity: 36
Note OFF: Time 70400, Note Name: D4
Note ON: Time 70400, Note Name: A#4, Velocity: 37
Note OFF: Time 70560, Note Name: A#4
Note ON: Time 70560, Note Name: D#5, Velocity: 52
Note OFF: Time 70720, Note Name: D#5
Note ON: Time 70720, Note Name: D#4, Velocity: 40
Note OFF: Time 70880, Note Name: D#4
Note ON: Time 70880, Note Name: A#4, Velocity: 41
Note OFF: Time 71040, Note Name: A#4
Note ON: Time 71040, Note Name: A#5, Velocity: 61
Note OFF: Time 71200, Note Name: A#5
Note ON: Time 71200, Note Name: G4, Velocity: 44
Note OFF: Time 71360, Note Name: G4
Note ON: Time 71360, Note Name: D#5, Velocity: 47
Note OFF: Time 71520, Note Name: D#5
Note ON: Time 71520, Note Name: B5, Velocity: 68
Note OFF: Time 71680, Note Name: B5
Note ON: Time 71680, Note Name: G4, Velocity: 48
Note OFF: Time 71840, Note Name: G4
Note ON: Time 71840, Note Name: D#5, Velocity: 51
Note OFF: Time 72000, Note Name: D#5
Note ON: Time 72000, Note Name: A#5, Velocity: 68
Note OFF: Time 72160, Note Name: A#5
Note ON: Time 72160, Note Name: G#4, Velocity: 51
Note OFF: Time 72320, Note Name: G#4
Note ON: Time 72320, Note Name: D5, Velocity: 49
Note OFF: Time 72480, Note Name: D5
Note ON: Time 72480, Note Name: A5, Velocity: 69
Note OFF: Time 72640, Note Name: A5
Note ON: Time 72640, Note Name: G#4, Velocity: 49
Note OFF: Time 72800, Note Name: G#4
Note ON: Time 72800, Note Name: D5, Velocity: 46
Note OFF: Time 72960, Note Name: D5
Note ON: Time 72960, Note Name: G#5, Velocity: 63
Note OFF: Time 73120, Note Name: G#5
Note ON: Time 73120, Note Name: G#4, Velocity: 45
Note OFF: Time 73280, Note Name: G#4
Note ON: Time 73280, Note Name: D5, Velocity: 40
Note OFF: Time 73440, Note Name: D5
Note ON: Time 73440, Note Name: G5, Velocity: 52
Note OFF: Time 73600, Note Name: G5
Note ON: Time 73600, Note Name: G4, Velocity: 40
Note OFF: Time 73760, Note Name: G4
Note ON: Time 73760, Note Name: D#5, Velocity: 41
Note OFF: Time 73920, Note Name: D#5
Note ON: Time 73920, Note Name: A#5, Velocity: 61
Note OFF: Time 74080, Note Name: A#5
Note ON: Time 74080, Note Name: G4, Velocity: 44
Note OFF: Time 74240, Note Name: G4
Note ON: Time 74240, Note Name: D#5, Velocity: 47
Note OFF: Time 74400, Note Name: D#5
Note ON: Time 74400, Note Name: C6, Velocity: 67
Note OFF: Time 74560, Note Name: C6
Note ON: Time 74560, Note Name: G4, Velocity: 48
Note OFF: Time 74720, Note Name: G4
Note ON: Time 74720, Note Name: D#5, Velocity: 51
Note OFF: Time 74880, Note Name: D#5
Note ON: Time 74880, Note Name: A#5, Velocity: 69
Note OFF: Time 75040, Note Name: A#5
Note ON: Time 75040, Note Name: G#4, Velocity: 51
Note OFF: Time 75200, Note Name: G#4
Note ON: Time 75200, Note Name: D5, Velocity: 49
Note OFF: Time 75360, Note Name: D5
Note ON: Time 75360, Note Name: A5, Velocity: 62
Note OFF: Time 75520, Note Name: A5
Note ON: Time 75520, Note Name: G#4, Velocity: 49
Note OFF: Time 75680, Note Name: G#4
Note ON: Time 75680, Note Name: D5, Velocity: 46
Note OFF: Time 75840, Note Name: D5
Note ON: Time 75840, Note Name: G#5, Velocity: 55
Note OFF: Time 76000, Note Name: G#5
Note ON: Time 76000, Note Name: G#4, Velocity: 45
Note OFF: Time 76160, Note Name: G#4
Note ON: Time 76160, Note Name: D5, Velocity: 40
Note OFF: Time 76320, Note Name: D5
Note ON: Time 76320, Note Name: G5, Velocity: 52
Note OFF: Time 76480, Note Name: G5
Note ON: Time 76480, Note Name: G4, Velocity: 40
Note OFF: Time 76640, Note Name: G4
Note ON: Time 76640, Note Name: D#5, Velocity: 42
Note OFF: Time 76800, Note Name: D#5
Note ON: Time 76800, Note Name: A#5, Velocity: 65
Note OFF: Time 76960, Note Name: A#5
Note ON: Time 76960, Note Name: G4, Velocity: 48
Note OFF: Time 77120, Note Name: G4
Note ON: Time 77120, Note Name: G5, Velocity: 50
Note OFF: Time 77280, Note Name: G5
Note ON: Time 77280, Note Name: D#6, Velocity: 75
Note OFF: Time 77440, Note Name: D#6
Note ON: Time 77440, Note Name: D#5, Velocity: 54
Note OFF: Time 77600, Note Name: D#5
Note ON: Time 77600, Note Name: A#5, Velocity: 58
Note OFF: Time 77760, Note Name: A#5
Note ON: Time 77760, Note Name: G6, Velocity: 82
Note OFF: Time 77920, Note Name: G6
Note ON: Time 77920, Note Name: D5, Velocity: 59
Note OFF: Time 78080, Note Name: D5
Note ON: Time 78080, Note Name: B5, Velocity: 56
Note OFF: Time 78240, Note Name: B5
Note ON: Time 78240, Note Name: F6, Velocity: 74
Note OFF: Time 78400, Note Name: F6
Note ON: Time 78400, Note Name: D5, Velocity: 55
Note OFF: Time 78560, Note Name: D5
Note ON: Time 78560, Note Name: G5, Velocity: 53
Note OFF: Time 78720, Note Name: G5
Note ON: Time 78720, Note Name: D#6, Velocity: 71
Note OFF: Time 78880, Note Name: D#6
Note ON: Time 78880, Note Name: C5, Velocity: 52
Note OFF: Time 79040, Note Name: C5
Note ON: Time 79040, Note Name: G5, Velocity: 51
Note OFF: Time 79200, Note Name: G5
Note ON: Time 79200, Note Name: D#6, Velocity: 75
Note OFF: Time 79360, Note Name: D#6
Note ON: Time 79360, Note Name: C5, Velocity: 57
Note OFF: Time 79520, Note Name: C5
Note ON: Time 79520, Note Name: F#5, Velocity: 51
Note OFF: Time 79680, Note Name: F#5
Note ON: Time 79680, Note Name: D6, Velocity: 70
Note OFF: Time 79840, Note Name: D6
Note ON: Time 79840, Note Name: B4, Velocity: 51
Note OFF: Time 80000, Note Name: B4
Note ON: Time 80000, Note Name: F#5, Velocity: 50
Note OFF: Time 80160, Note Name: F#5
Note ON: Time 80160, Note Name: C6, Velocity: 65
Note OFF: Time 80320, Note Name: C6
Note ON: Time 80320, Note Name: C5, Velocity: 45
Note OFF: Time 80480, Note Name: C5
Note ON: Time 80480, Note Name: F#5, Velocity: 44
Note OFF: Time 80640, Note Name: F#5
Note ON: Time 80640, Note Name: C6, Velocity: 61
Note OFF: Time 80800, Note Name: C6
Note ON: Time 80800, Note Name: G#4, Velocity: 46
Note OFF: Time 80960, Note Name: G#4
Note ON: Time 80960, Note Name: F5, Velocity: 45
Note OFF: Time 81120, Note Name: F5
Note ON: Time 81120, Note Name: A#5, Velocity: 58
Note OFF: Time 81280, Note Name: A#5
Note ON: Time 81280, Note Name: G4, Velocity: 44
Note OFF: Time 81440, Note Name: G4
Note ON: Time 81440, Note Name: C5, Velocity: 43
Note OFF: Time 81600, Note Name: C5
Note ON: Time 81600, Note Name: G#5, Velocity: 55
Note OFF: Time 81760, Note Name: G#5
Note ON: Time 81760, Note Name: F4, Velocity: 43
Note OFF: Time 81920, Note Name: F4
Note ON: Time 81920, Note Name: D5, Velocity: 39
Note OFF: Time 82080, Note Name: D5
Note ON: Time 82080, Note Name: G5, Velocity: 52
Note OFF: Time 82240, Note Name: G5
Note ON: Time 82240, Note Name: D#4, Velocity: 40
Note OFF: Time 82400, Note Name: D#4
Note ON: Time 82400, Note Name: D#5, Velocity: 41
Note OFF: Time 82560, Note Name: D#5
Note ON: Time 82560, Note Name: A#5, Velocity: 61
Note OFF: Time 82720, Note Name: A#5
Note ON: Time 82720, Note Name: G4, Velocity: 49
Note OFF: Time 82880, Note Name: G4
Note ON: Time 82880, Note Name: D#5, Velocity: 51
Note OFF: Time 83040, Note Name: D#5
Note ON: Time 83040, Note Name: B5, Velocity: 69
Note OFF: Time 83200, Note Name: B5
Note ON: Time 83200, Note Name: G4, Velocity: 55
Note OFF: Time 83360, Note Name: G4
Note ON: Time 83360, Note Name: D#5, Velocity: 52
Note OFF: Time 83520, Note Name: D#5
Note ON: Time 83520, Note Name: A#5, Velocity: 68
Note OFF: Time 83680, Note Name: A#5
Note ON: Time 83680, Note Name: G#4, Velocity: 51
Note OFF: Time 83840, Note Name: G#4
Note ON: Time 83840, Note Name: D5, Velocity: 49
Note OFF: Time 84000, Note Name: D5
Note ON: Time 84000, Note Name: A5, Velocity: 65
Note OFF: Time 84160, Note Name: A5
Note ON: Time 84160, Note Name: G#4, Velocity: 49
Note OFF: Time 84320, Note Name: G#4
Note ON: Time 84320, Note Name: D5, Velocity: 46
Note OFF: Time 84480, Note Name: D5
Note ON: Time 84480, Note Name: G#5, Velocity: 63
Note OFF: Time 84640, Note Name: G#5
Note ON: Time 84640, Note Name: G#4, Velocity: 45
Note OFF: Time 84800, Note Name: G#4
Note ON: Time 84800, Note Name: D5, Velocity: 40
Note OFF: Time 84960, Note Name: D5
Note ON: Time 84960, Note Name: G5, Velocity: 52
Note OFF: Time 85120, Note Name: G5
Note ON: Time 85120, Note Name: G4, Velocity: 40
Note OFF: Time 85280, Note Name: G4
Note ON: Time 85280, Note Name: D#5, Velocity: 41
Note OFF: Time 85440, Note Name: D#5
Note ON: Time 85440, Note Name: A#5, Velocity: 61
Note OFF: Time 85600, Note Name: A#5
Note ON: Time 85600, Note Name: G4, Velocity: 44
Note OFF: Time 85760, Note Name: G4
Note ON: Time 85760, Note Name: D#5, Velocity: 47
Note OFF: Time 85920, Note Name: D#5
Note ON: Time 85920, Note Name: C6, Velocity: 67
Note OFF: Time 86080, Note Name: C6
Note ON: Time 86080, Note Name: G4, Velocity: 48
Note OFF: Time 86240, Note Name: G4
Note ON: Time 86240, Note Name: D#5, Velocity: 51
Note OFF: Time 86400, Note Name: D#5
Note ON: Time 86400, Note Name: A#5, Velocity: 66
Note OFF: Time 86560, Note Name: A#5
Note ON: Time 86560, Note Name: G#4, Velocity: 51
Note OFF: Time 86720, Note Name: G#4
Note ON: Time 86720, Note Name: D5, Velocity: 49
Note OFF: Time 86880, Note Name: D5
Note ON: Time 86880, Note Name: A5, Velocity: 62
Note OFF: Time 87040, Note Name: A5
Note ON: Time 87040, Note Name: G#4, Velocity: 49
Note OFF: Time 87200, Note Name: G#4
Note ON: Time 87200, Note Name: D5, Velocity: 46
Note OFF: Time 87360, Note Name: D5
Note ON: Time 87360, Note Name: G#5, Velocity: 55
Note OFF: Time 87520, Note Name: G#5
Note ON: Time 87520, Note Name: G#4, Velocity: 45
Note OFF: Time 87680, Note Name: G#4
Note ON: Time 87680, Note Name: D5, Velocity: 40
Note OFF: Time 87840, Note Name: D5
Note ON: Time 87840, Note Name: G5, Velocity: 52
Note OFF: Time 88000, Note Name: G5
Note ON: Time 88000, Note Name: G4, Velocity: 40
Note OFF: Time 88160, Note Name: G4
Note ON: Time 88160, Note Name: D#5, Velocity: 42
Note OFF: Time 88320, Note Name: D#5
Note ON: Time 88320, Note Name: A#5, Velocity: 65
Note OFF: Time 88480, Note Name: A#5
Note ON: Time 88480, Note Name: A#4, Velocity: 48
Note OFF: Time 88640, Note Name: A#4
Note ON: Time 88640, Note Name: G5, Velocity: 50
Note OFF: Time 88800, Note Name: G5
Note ON: Time 88800, Note Name: D#6, Velocity: 75
Note OFF: Time 88960, Note Name: D#6
Note ON: Time 88960, Note Name: D#5, Velocity: 54
Note OFF: Time 89120, Note Name: D#5
Note ON: Time 89120, Note Name: A#5, Velocity: 58
Note OFF: Time 89280, Note Name: A#5
Note ON: Time 89280, Note Name: G6, Velocity: 69
Note OFF: Time 89440, Note Name: G6
Note ON: Time 89440, Note Name: D5, Velocity: 54
Note OFF: Time 89600, Note Name: D5
Note ON: Time 89600, Note Name: B5, Velocity: 53
Note OFF: Time 89760, Note Name: B5
Note ON: Time 89760, Note Name: F6, Velocity: 68
Note OFF: Time 89920, Note Name: F6
Note ON: Time 89920, Note Name: D5, Velocity: 55
Note OFF: Time 90080, Note Name: D5
Note ON: Time 90080, Note Name: B5, Velocity: 56
Note OFF: Time 90240, Note Name: B5
Note ON: Time 90240, Note Name: E6, Velocity: 73
Note OFF: Time 90400, Note Name: E6
Note ON: Time 90400, Note Name: D5, Velocity: 59
Note OFF: Time 90560, Note Name: D5
Note ON: Time 90560, Note Name: B5, Velocity: 58
Note OFF: Time 90720, Note Name: B5
Note ON: Time 90720, Note Name: E6, Velocity: 76
Note OFF: Time 90880, Note Name: E6
Note ON: Time 90880, Note Name: C#5, Velocity: 54
Note OFF: Time 91040, Note Name: C#5
Note ON: Time 91040, Note Name: A5, Velocity: 51
Note OFF: Time 91200, Note Name: A5
Note ON: Time 91200, Note Name: D#6, Velocity: 70
Note OFF: Time 91360, Note Name: D#6
Note ON: Time 91360, Note Name: C5, Velocity: 53
Note OFF: Time 91520, Note Name: C5
Note ON: Time 91520, Note Name: A5, Velocity: 53
Note OFF: Time 91680, Note Name: A5
Note ON: Time 91680, Note Name: C6, Velocity: 66
Note OFF: Time 91840, Note Name: C6
Note ON: Time 91840, Note Name: A4, Velocity: 47
Note OFF: Time 92000, Note Name: A4
Note ON: Time 92000, Note Name: D#5, Velocity: 47
Note OFF: Time 92160, Note Name: D#5
Note ON: Time 92160, Note Name: C6, Velocity: 65
Note OFF: Time 92320, Note Name: C6
Note ON: Time 92320, Note Name: A4, Velocity: 48
Note OFF: Time 92480, Note Name: A4
Note ON: Time 92480, Note Name: D#5, Velocity: 47
Note OFF: Time 92640, Note Name: D#5
Note ON: Time 92640, Note Name: A#5, Velocity: 60
Note OFF: Time 92800, Note Name: A#5
Note ON: Time 92800, Note Name: A#4, Velocity: 45
Note OFF: Time 92960, Note Name: A#4
Note ON: Time 92960, Note Name: D#5, Velocity: 43
Note OFF: Time 93120, Note Name: D#5
Note ON: Time 93120, Note Name: D5, Velocity: 55
Note OFF: Time 93280, Note Name: D5
Note ON: Time 93280, Note Name: D4, Velocity: 43
Note OFF: Time 93440, Note Name: D4
Note ON: Time 93440, Note Name: A#4, Velocity: 39
Note OFF: Time 93600, Note Name: A#4
Note ON: Time 93600, Note Name: D#5, Velocity: 52
Note OFF: Time 93760, Note Name: D#5
Note ON: Time 93760, Note Name: D#4, Velocity: 40
Note OFF: Time 93920, Note Name: D#4
Note ON: Time 93920, Note Name: A#4, Velocity: 40
Note OFF: Time 94080, Note Name: A#4
Note ON: Time 94080, Note Name: A#5, Velocity: 66
Note OFF: Time 94240, Note Name: A#5
Note ON: Time 94240, Note Name: D#4, Velocity: 45
Note OFF: Time 94400, Note Name: D#4
Note ON: Time 94400, Note Name: A#4, Velocity: 45
Note OFF: Time 94560, Note Name: A#4
Note ON: Time 94560, Note Name: D#5, Velocity: 62
Note OFF: Time 94720, Note Name: D#5
Note ON: Time 94720, Note Name: D#4, Velocity: 44
Note OFF: Time 94880, Note Name: D#4
Note ON: Time 94880, Note Name: A#4, Velocity: 46
Note OFF: Time 95040, Note Name: A#4
Note ON: Time 95040, Note Name: A5, Velocity: 71
Note OFF: Time 95200, Note Name: A5
Note ON: Time 95200, Note Name: D#4, Velocity: 52
Note OFF: Time 95360, Note Name: D#4
Note ON: Time 95360, Note Name: A#4, Velocity: 52
Note OFF: Time 95520, Note Name: A#4
Note ON: Time 95520, Note Name: D#5, Velocity: 67
Note OFF: Time 95680, Note Name: D#5
Note ON: Time 95680, Note Name: D#4, Velocity: 49
Note OFF: Time 95840, Note Name: D#4
Note ON: Time 95840, Note Name: A#4, Velocity: 48
Note OFF: Time 96000, Note Name: A#4
Note ON: Time 96000, Note Name: G#5, Velocity: 75
Note OFF: Time 96160, Note Name: G#5
Note ON: Time 96160, Note Name: D#4, Velocity: 55
Note OFF: Time 96320, Note Name: D#4
Note ON: Time 96320, Note Name: A#4, Velocity: 52
Note OFF: Time 96480, Note Name: A#4
Note ON: Time 96480, Note Name: D#5, Velocity: 69
Note OFF: Time 96640, Note Name: D#5
Note ON: Time 96640, Note Name: D#4, Velocity: 49
Note OFF: Time 96800, Note Name: D#4
Note ON: Time 96800, Note Name: A#4, Velocity: 49
Note OFF: Time 96960, Note Name: A#4
Note ON: Time 96960, Note Name: G5, Velocity: 76
Note OFF: Time 97120, Note Name: G5
Note ON: Time 97120, Note Name: D#4, Velocity: 52
Note OFF: Time 97280, Note Name: D#4
Note ON: Time 97280, Note Name: A#4, Velocity: 52
Note OFF: Time 97440, Note Name: A#4
Note ON: Time 97440, Note Name: D#5, Velocity: 65
Note OFF: Time 97600, Note Name: D#5
Note ON: Time 97600, Note Name: D#4, Velocity: 49
Note OFF: Time 97760, Note Name: D#4
Note ON: Time 97760, Note Name: A#4, Velocity: 52
Note OFF: Time 97920, Note Name: A#4
Note ON: Time 97920, Note Name: F#5, Velocity: 71
Note OFF: Time 98080, Note Name: F#5
Note ON: Time 98080, Note Name: D#4, Velocity: 53
Note OFF: Time 98240, Note Name: D#4
Note ON: Time 98240, Note Name: A#4, Velocity: 52
Note OFF: Time 98400, Note Name: A#4
Note ON: Time 98400, Note Name: D#5, Velocity: 64
Note OFF: Time 98560, Note Name: D#5
Note ON: Time 98560, Note Name: D#4, Velocity: 45
Note OFF: Time 98720, Note Name: D#4
Note ON: Time 98720, Note Name: A#4, Velocity: 43
Note OFF: Time 98880, Note Name: A#4
Note ON: Time 98880, Note Name: G5, Velocity: 63
Note OFF: Time 99040, Note Name: G5
Note ON: Time 99040, Note Name: D#4, Velocity: 46
Note OFF: Time 99200, Note Name: D#4
Note ON: Time 99200, Note Name: A#4, Velocity: 41
Note OFF: Time 99360, Note Name: A#4
Note ON: Time 99360, Note Name: D#5, Velocity: 54
Note OFF: Time 99840, Note Name: D#5
Note ON: Time 100800, Note Name: A#6, Velocity: 87
Note ON: Time 100800, Note Name: D#7, Velocity: 102
Note ON: Time 100800, Note Name: D#6, Velocity: 87
Note OFF: Time 101280, Note Name: D#6
Note OFF: Time 101280, Note Name: D#7
Note OFF: Time 101280, Note Name: A#6
Note ON: Time 102240, Note Name: G4, Velocity: 98
Note ON: Time 102240, Note Name: G3, Velocity: 81
Note ON: Time 102240, Note Name: A#3, Velocity: 81
Note ON: Time 102240, Note Name: D#4, Velocity: 98
Note OFF: Time 103680, Note Name: D#4
Note OFF: Time 103680, Note Name: G4
Note OFF: Time 103680, Note Name: G3
Note OFF: Time 103680, Note Name: A#3
Track 2: Piano left
Note ON: Time 1440, Note Name: D#2, Velocity: 36
Note OFF: Time 1600, Note Name: D#2
Note ON: Time 1600, Note Name: G3, Velocity: 28
Note OFF: Time 1760, Note Name: G3
Note ON: Time 1760, Note Name: A#2, Velocity: 28
Note OFF: Time 1920, Note Name: A#2
Note ON: Time 1920, Note Name: D#2, Velocity: 33
Note OFF: Time 2080, Note Name: D#2
Note ON: Time 2080, Note Name: G3, Velocity: 29
Note OFF: Time 2240, Note Name: G3
Note ON: Time 2240, Note Name: A#2, Velocity: 30
Note OFF: Time 2400, Note Name: A#2
Note ON: Time 2400, Note Name: D#2, Velocity: 36
Note OFF: Time 2560, Note Name: D#2
Note ON: Time 2560, Note Name: A#3, Velocity: 32
Note OFF: Time 2720, Note Name: A#3
Note ON: Time 2720, Note Name: A#2, Velocity: 32
Note OFF: Time 2880, Note Name: A#2
Note ON: Time 2880, Note Name: D#2, Velocity: 41
Note OFF: Time 3040, Note Name: D#2
Note ON: Time 3040, Note Name: D#4, Velocity: 33
Note OFF: Time 3200, Note Name: D#4
Note ON: Time 3200, Note Name: G3, Velocity: 34
Note OFF: Time 3360, Note Name: G3
Note ON: Time 3360, Note Name: A#2, Velocity: 42
Note OFF: Time 3520, Note Name: A#2
Note ON: Time 3520, Note Name: G4, Velocity: 35
Note OFF: Time 3680, Note Name: G4
Note ON: Time 3680, Note Name: A#3, Velocity: 37
Note OFF: Time 3840, Note Name: A#3
Note ON: Time 3840, Note Name: D#3, Velocity: 47
Note OFF: Time 4000, Note Name: D#3
Note ON: Time 4000, Note Name: A#4, Velocity: 39
Note OFF: Time 4160, Note Name: A#4
Note ON: Time 4160, Note Name: A#3, Velocity: 45
Note OFF: Time 4320, Note Name: A#3
Note ON: Time 4320, Note Name: D#3, Velocity: 55
Note OFF: Time 4480, Note Name: D#3
Note ON: Time 4480, Note Name: B4, Velocity: 39
Note OFF: Time 4640, Note Name: B4
Note ON: Time 4640, Note Name: B3, Velocity: 38
Note OFF: Time 4800, Note Name: B3
Note ON: Time 4800, Note Name: D#3, Velocity: 49
Note OFF: Time 4960, Note Name: D#3
Note ON: Time 4960, Note Name: C5, Velocity: 38
Note OFF: Time 5120, Note Name: C5
Note ON: Time 5120, Note Name: C4, Velocity: 36
Note OFF: Time 5280, Note Name: C4
Note ON: Time 5280, Note Name: D#3, Velocity: 41
Note OFF: Time 5440, Note Name: D#3
Note ON: Time 5440, Note Name: G#4, Velocity: 33
Note OFF: Time 5600, Note Name: G#4
Note ON: Time 5600, Note Name: D4, Velocity: 32
Note OFF: Time 5760, Note Name: D4
Note ON: Time 5760, Note Name: D#3, Velocity: 46
Note OFF: Time 5920, Note Name: D#3
Note ON: Time 5920, Note Name: G4, Velocity: 36
Note OFF: Time 6080, Note Name: G4
Note ON: Time 6080, Note Name: D#4, Velocity: 32
Note OFF: Time 6240, Note Name: D#4
Note ON: Time 6240, Note Name: A#3, Velocity: 39
Note OFF: Time 6400, Note Name: A#3
Note ON: Time 6400, Note Name: G4, Velocity: 30
Note OFF: Time 6560, Note Name: G4
Note ON: Time 6560, Note Name: D#4, Velocity: 30
Note OFF: Time 6720, Note Name: D#4
Note ON: Time 6720, Note Name: D#3, Velocity: 35
Note OFF: Time 6880, Note Name: D#3
Note ON: Time 6880, Note Name: D#4, Velocity: 29
Note OFF: Time 7040, Note Name: D#4
Note ON: Time 7040, Note Name: G3, Velocity: 29
Note OFF: Time 7200, Note Name: G3
Note ON: Time 7200, Note Name: F2, Velocity: 36
Note OFF: Time 7360, Note Name: F2
Note ON: Time 7360, Note Name: C4, Velocity: 28
Note OFF: Time 7520, Note Name: C4
Note ON: Time 7520, Note Name: F3, Velocity: 29
Note OFF: Time 7680, Note Name: F3
Note ON: Time 7680, Note Name: C3, Velocity: 34
Note OFF: Time 7840, Note Name: C3
Note ON: Time 7840, Note Name: C4, Velocity: 30
Note OFF: Time 8000, Note Name: C4
Note ON: Time 8000, Note Name: F3, Velocity: 32
Note OFF: Time 8160, Note Name: F3
Note ON: Time 8160, Note Name: F2, Velocity: 41
Note OFF: Time 8320, Note Name: F2
Note ON: Time 8320, Note Name: C4, Velocity: 37
Note OFF: Time 8480, Note Name: C4
Note ON: Time 8480, Note Name: F3, Velocity: 42
Note OFF: Time 8640, Note Name: F3
Note ON: Time 8640, Note Name: A#2, Velocity: 50
Note OFF: Time 8800, Note Name: A#2
Note ON: Time 8800, Note Name: D#4, Velocity: 35
Note OFF: Time 8960, Note Name: D#4
Note ON: Time 8960, Note Name: F3, Velocity: 35
Note OFF: Time 9120, Note Name: F3
Note ON: Time 9120, Note Name: D3, Velocity: 43
Note OFF: Time 9280, Note Name: D3
Note ON: Time 9280, Note Name: D4, Velocity: 36
Note OFF: Time 9440, Note Name: D4
Note ON: Time 9440, Note Name: F3, Velocity: 34
Note OFF: Time 9600, Note Name: F3
Note ON: Time 9600, Note Name: A#2, Velocity: 39
Note OFF: Time 9760, Note Name: A#2
Note ON: Time 9760, Note Name: A#3, Velocity: 34
Note OFF: Time 9920, Note Name: A#3
Note ON: Time 9920, Note Name: F3, Velocity: 33
Note OFF: Time 10080, Note Name: F3
Note ON: Time 10080, Note Name: F2, Velocity: 36
Note OFF: Time 10240, Note Name: F2
Note ON: Time 10240, Note Name: C4, Velocity: 28
Note OFF: Time 10400, Note Name: C4
Note ON: Time 10400, Note Name: F3, Velocity: 29
Note OFF: Time 10560, Note Name: F3
Note ON: Time 10560, Note Name: C3, Velocity: 34
Note OFF: Time 10720, Note Name: C3
Note ON: Time 10720, Note Name: B3, Velocity: 30
Note OFF: Time 10880, Note Name: B3
Note ON: Time 10880, Note Name: F3, Velocity: 32
Note OFF: Time 11040, Note Name: F3
Note ON: Time 11040, Note Name: F2, Velocity: 38
Note OFF: Time 11200, Note Name: F2
Note ON: Time 11200, Note Name: C4, Velocity: 34
Note OFF: Time 11360, Note Name: C4
Note ON: Time 11360, Note Name: F3, Velocity: 35
Note OFF: Time 11520, Note Name: F3
Note ON: Time 11520, Note Name: A#2, Velocity: 49
Note OFF: Time 11680, Note Name: A#2
Note ON: Time 11680, Note Name: D#4, Velocity: 35
Note OFF: Time 11840, Note Name: D#4
Note ON: Time 11840, Note Name: G#3, Velocity: 35
Note OFF: Time 12000, Note Name: G#3
Note ON: Time 12000, Note Name: F3, Velocity: 43
Note OFF: Time 12160, Note Name: F3
Note ON: Time 12160, Note Name: D4, Velocity: 35
Note OFF: Time 12320, Note Name: D4
Note ON: Time 12320, Note Name: F3, Velocity: 34
Note OFF: Time 12480, Note Name: F3
Note ON: Time 12480, Note Name: A#2, Velocity: 39
Note OFF: Time 12640, Note Name: A#2
Note ON: Time 12640, Note Name: G#3, Velocity: 33
Note OFF: Time 12800, Note Name: G#3
Note ON: Time 12800, Note Name: D3, Velocity: 32
Note OFF: Time 12960, Note Name: D3
Note ON: Time 12960, Note Name: D#2, Velocity: 36
Note OFF: Time 13120, Note Name: D#2
Note ON: Time 13120, Note Name: G3, Velocity: 28
Note OFF: Time 13280, Note Name: G3
Note ON: Time 13280, Note Name: A#2, Velocity: 28
Note OFF: Time 13440, Note Name: A#2
Note ON: Time 13440, Note Name: D#2, Velocity: 33
Note OFF: Time 13600, Note Name: D#2
Note ON: Time 13600, Note Name: G3, Velocity: 29
Note OFF: Time 13760, Note Name: G3
Note ON: Time 13760, Note Name: A#2, Velocity: 30
Note OFF: Time 13920, Note Name: A#2
Note ON: Time 13920, Note Name: D#2, Velocity: 36
Note OFF: Time 14080, Note Name: D#2
Note ON: Time 14080, Note Name: A#3, Velocity: 32
Note OFF: Time 14240, Note Name: A#3
Note ON: Time 14240, Note Name: A#2, Velocity: 32
Note OFF: Time 14400, Note Name: A#2
Note ON: Time 14400, Note Name: D#2, Velocity: 40
Note OFF: Time 14560, Note Name: D#2
Note ON: Time 14560, Note Name: D#4, Velocity: 33
Note OFF: Time 14720, Note Name: D#4
Note ON: Time 14720, Note Name: G3, Velocity: 34
Note OFF: Time 14880, Note Name: G3
Note ON: Time 14880, Note Name: A#2, Velocity: 42
Note OFF: Time 15040, Note Name: A#2
Note ON: Time 15040, Note Name: G4, Velocity: 35
Note OFF: Time 15200, Note Name: G4
Note ON: Time 15200, Note Name: A#3, Velocity: 37
Note OFF: Time 15360, Note Name: A#3
Note ON: Time 15360, Note Name: D#3, Velocity: 50
Note OFF: Time 15520, Note Name: D#3
Note ON: Time 15520, Note Name: A#4, Velocity: 39
Note OFF: Time 15680, Note Name: A#4
Note ON: Time 15680, Note Name: A#3, Velocity: 44
Note OFF: Time 15840, Note Name: A#3
Note ON: Time 15840, Note Name: D#3, Velocity: 54
Note OFF: Time 16000, Note Name: D#3
Note ON: Time 16000, Note Name: B4, Velocity: 39
Note OFF: Time 16160, Note Name: B4
Note ON: Time 16160, Note Name: B3, Velocity: 38
Note OFF: Time 16320, Note Name: B3
Note ON: Time 16320, Note Name: D#3, Velocity: 49
Note OFF: Time 16480, Note Name: D#3
Note ON: Time 16480, Note Name: C5, Velocity: 38
Note OFF: Time 16640, Note Name: C5
Note ON: Time 16640, Note Name: C4, Velocity: 36
Note OFF: Time 16800, Note Name: C4
Note ON: Time 16800, Note Name: D#3, Velocity: 41
Note OFF: Time 16960, Note Name: D#3
Note ON: Time 16960, Note Name: G#4, Velocity: 33
Note OFF: Time 17120, Note Name: G#4
Note ON: Time 17120, Note Name: D4, Velocity: 32
Note OFF: Time 17280, Note Name: D4
Note ON: Time 17280, Note Name: D#3, Velocity: 46
Note OFF: Time 17440, Note Name: D#3
Note ON: Time 17440, Note Name: G4, Velocity: 30
Note OFF: Time 17600, Note Name: G4
Note ON: Time 17600, Note Name: D#4, Velocity: 31
Note OFF: Time 17760, Note Name: D#4
Note ON: Time 17760, Note Name: A#3, Velocity: 39
Note OFF: Time 17920, Note Name: A#3
Note ON: Time 17920, Note Name: G4, Velocity: 30
Note OFF: Time 18080, Note Name: G4
Note ON: Time 18080, Note Name: D#4, Velocity: 30
Note OFF: Time 18240, Note Name: D#4
Note ON: Time 18240, Note Name: D#3, Velocity: 35
Note OFF: Time 18400, Note Name: D#3
Note ON: Time 18400, Note Name: D#4, Velocity: 29
Note OFF: Time 18560, Note Name: D#4
Note ON: Time 18560, Note Name: G3, Velocity: 29
Note OFF: Time 18720, Note Name: G3
Note ON: Time 18720, Note Name: B2, Velocity: 36
Note OFF: Time 18880, Note Name: B2
Note ON: Time 18880, Note Name: D#4, Velocity: 28
Note OFF: Time 19040, Note Name: D#4
Note ON: Time 19040, Note Name: A3, Velocity: 28
Note OFF: Time 19200, Note Name: A3
Note ON: Time 19200, Note Name: D#3, Velocity: 33
Note OFF: Time 19360, Note Name: D#3
Note ON: Time 19360, Note Name: D#4, Velocity: 29
Note OFF: Time 19520, Note Name: D#4
Note ON: Time 19520, Note Name: A3, Velocity: 30
Note OFF: Time 19680, Note Name: A3
Note ON: Time 19680, Note Name: B2, Velocity: 36
Note OFF: Time 19840, Note Name: B2
Note ON: Time 19840, Note Name: D#4, Velocity: 32
Note OFF: Time 20000, Note Name: D#4
Note ON: Time 20000, Note Name: A3, Velocity: 32
Note OFF: Time 20160, Note Name: A3
Note ON: Time 20160, Note Name: A#2, Velocity: 40
Note OFF: Time 20320, Note Name: A#2
Note ON: Time 20320, Note Name: D4, Velocity: 31
Note OFF: Time 20480, Note Name: D4
Note ON: Time 20480, Note Name: G3, Velocity: 32
Note OFF: Time 20640, Note Name: G3
Note ON: Time 20640, Note Name: A2, Velocity: 38
Note OFF: Time 20800, Note Name: A2
Note ON: Time 20800, Note Name: D4, Velocity: 32
Note OFF: Time 20960, Note Name: D4
Note ON: Time 20960, Note Name: F#3, Velocity: 34
Note OFF: Time 21120, Note Name: F#3
Note ON: Time 21120, Note Name: G2, Velocity: 45
Note OFF: Time 21280, Note Name: G2
Note ON: Time 21280, Note Name: D4, Velocity: 36
Note OFF: Time 21440, Note Name: D4
Note ON: Time 21440, Note Name: G3, Velocity: 40
Note OFF: Time 21600, Note Name: G3
Note ON: Time 21600, Note Name: F2, Velocity: 54
Note OFF: Time 21760, Note Name: F2
Note ON: Time 21760, Note Name: A#4, Velocity: 42
Note OFF: Time 21920, Note Name: A#4
Note ON: Time 21920, Note Name: D#4, Velocity: 45
Note OFF: Time 22080, Note Name: D#4
Note ON: Time 22080, Note Name: F3, Velocity: 52
Note OFF: Time 22240, Note Name: F3
Note ON: Time 22240, Note Name: A#4, Velocity: 42
Note OFF: Time 22400, Note Name: A#4
Note ON: Time 22400, Note Name: D#4, Velocity: 35
Note OFF: Time 22560, Note Name: D#4
Note ON: Time 22560, Note Name: C4, Velocity: 42
Note OFF: Time 22720, Note Name: C4
Note ON: Time 22720, Note Name: F4, Velocity: 37
Note OFF: Time 22880, Note Name: F4
Note ON: Time 22880, Note Name: D#4, Velocity: 37
Note OFF: Time 23040, Note Name: D#4
Note ON: Time 23040, Note Name: A#2, Velocity: 50
Note OFF: Time 23200, Note Name: A#2
Note ON: Time 23200, Note Name: D#4, Velocity: 36
Note OFF: Time 23360, Note Name: D#4
Note ON: Time 23360, Note Name: F3, Velocity: 37
Note OFF: Time 23520, Note Name: F3
Note ON: Time 23520, Note Name: A#2, Velocity: 43
Note OFF: Time 23680, Note Name: A#2
Note ON: Time 23680, Note Name: D4, Velocity: 36
Note OFF: Time 23840, Note Name: D4
Note ON: Time 23840, Note Name: F3, Velocity: 34
Note OFF: Time 24000, Note Name: F3
Note ON: Time 24000, Note Name: A#2, Velocity: 39
Note OFF: Time 24160, Note Name: A#2
Note ON: Time 24160, Note Name: C#4, Velocity: 34
Note OFF: Time 24320, Note Name: C#4
Note ON: Time 24320, Note Name: F3, Velocity: 33
Note OFF: Time 24480, Note Name: F3
Note ON: Time 24480, Note Name: G#2, Velocity: 36
Note OFF: Time 24640, Note Name: G#2
Note ON: Time 24640, Note Name: B3, Velocity: 28
Note OFF: Time 24800, Note Name: B3
Note ON: Time 24800, Note Name: F3, Velocity: 29
Note OFF: Time 24960, Note Name: F3
Note ON: Time 24960, Note Name: C#3, Velocity: 34
Note OFF: Time 25120, Note Name: C#3
Note ON: Time 25120, Note Name: B3, Velocity: 30
Note OFF: Time 25280, Note Name: B3
Note ON: Time 25280, Note Name: F3, Velocity: 32
Note OFF: Time 25440, Note Name: F3
Note ON: Time 25440, Note Name: C#2, Velocity: 38
Note OFF: Time 25600, Note Name: C#2
Note ON: Time 25600, Note Name: B3, Velocity: 34
Note OFF: Time 25760, Note Name: B3
Note ON: Time 25760, Note Name: F3, Velocity: 35
Note OFF: Time 25920, Note Name: F3
Note ON: Time 25920, Note Name: F#2, Velocity: 49
Note OFF: Time 26080, Note Name: F#2
Note ON: Time 26080, Note Name: A#3, Velocity: 35
Note OFF: Time 26240, Note Name: A#3
Note ON: Time 26240, Note Name: F#3, Velocity: 35
Note OFF: Time 26400, Note Name: F#3
Note ON: Time 26400, Note Name: C#3, Velocity: 43
Note OFF: Time 26560, Note Name: C#3
Note ON: Time 26560, Note Name: A#3, Velocity: 36
Note OFF: Time 26720, Note Name: A#3
Note ON: Time 26720, Note Name: F#3, Velocity: 34
Note OFF: Time 26880, Note Name: F#3
Note ON: Time 26880, Note Name: F#2, Velocity: 39
Note OFF: Time 27040, Note Name: F#2
Note ON: Time 27040, Note Name: A#3, Velocity: 34
Note OFF: Time 27200, Note Name: A#3
Note ON: Time 27200, Note Name: C#3, Velocity: 33
Note OFF: Time 27360, Note Name: C#3
Note ON: Time 27360, Note Name: C#2, Velocity: 36
Note OFF: Time 27520, Note Name: C#2
Note ON: Time 27520, Note Name: B3, Velocity: 28
Note OFF: Time 27680, Note Name: B3
Note ON: Time 27680, Note Name: F3, Velocity: 29
Note OFF: Time 27840, Note Name: F3
Note ON: Time 27840, Note Name: G#2, Velocity: 34
Note OFF: Time 28000, Note Name: G#2
Note ON: Time 28000, Note Name: B3, Velocity: 30
Note OFF: Time 28160, Note Name: B3
Note ON: Time 28160, Note Name: F3, Velocity: 32
Note OFF: Time 28320, Note Name: F3
Note ON: Time 28320, Note Name: C#2, Velocity: 38
Note OFF: Time 28480, Note Name: C#2
Note ON: Time 28480, Note Name: B3, Velocity: 34
Note OFF: Time 28640, Note Name: B3
Note ON: Time 28640, Note Name: F3, Velocity: 35
Note OFF: Time 28800, Note Name: F3
Note ON: Time 28800, Note Name: F#2, Velocity: 50
Note OFF: Time 28960, Note Name: F#2
Note ON: Time 28960, Note Name: A#3, Velocity: 35
Note OFF: Time 29120, Note Name: A#3
Note ON: Time 29120, Note Name: F#3, Velocity: 35
Note OFF: Time 29280, Note Name: F#3
Note ON: Time 29280, Note Name: C#3, Velocity: 43
Note OFF: Time 29440, Note Name: C#3
Note ON: Time 29440, Note Name: A#3, Velocity: 36
Note OFF: Time 29600, Note Name: A#3
Note ON: Time 29600, Note Name: F#3, Velocity: 34
Note OFF: Time 29760, Note Name: F#3
Note ON: Time 29760, Note Name: F#2, Velocity: 39
Note OFF: Time 29920, Note Name: F#2
Note ON: Time 29920, Note Name: A#3, Velocity: 34
Note OFF: Time 30080, Note Name: A#3
Note ON: Time 30080, Note Name: C#3, Velocity: 33
Note OFF: Time 30240, Note Name: C#3
Note ON: Time 30240, Note Name: F#2, Velocity: 36
Note OFF: Time 30400, Note Name: F#2
Note ON: Time 30400, Note Name: A#3, Velocity: 28
Note OFF: Time 30560, Note Name: A#3
Note ON: Time 30560, Note Name: C#3, Velocity: 29
Note OFF: Time 30720, Note Name: C#3
Note ON: Time 30720, Note Name: F#2, Velocity: 38
Note OFF: Time 30880, Note Name: F#2
Note ON: Time 30880, Note Name: C#4, Velocity: 30
Note OFF: Time 31040, Note Name: C#4
Note ON: Time 31040, Note Name: F#3, Velocity: 32
Note OFF: Time 31200, Note Name: F#3
Note ON: Time 31200, Note Name: F#2, Velocity: 42
Note OFF: Time 31360, Note Name: F#2
Note ON: Time 31360, Note Name: E4, Velocity: 34
Note OFF: Time 31520, Note Name: E4
Note ON: Time 31520, Note Name: A#3, Velocity: 36
Note OFF: Time 31680, Note Name: A#3
Note ON: Time 31680, Note Name: F2, Velocity: 49
Note OFF: Time 31840, Note Name: F2
Note ON: Time 31840, Note Name: F4, Velocity: 36
Note OFF: Time 32000, Note Name: F4
Note ON: Time 32000, Note Name: A#3, Velocity: 35
Note OFF: Time 32160, Note Name: A#3
Note ON: Time 32160, Note Name: F3, Velocity: 38
Note OFF: Time 32320, Note Name: F3
Note ON: Time 32320, Note Name: G4, Velocity: 32
Note OFF: Time 32480, Note Name: G4
Note ON: Time 32480, Note Name: A#3, Velocity: 32
Note OFF: Time 32640, Note Name: A#3
Note ON: Time 32640, Note Name: F3, Velocity: 39
Note OFF: Time 32800, Note Name: F3
Note ON: Time 32800, Note Name: F4, Velocity: 33
Note OFF: Time 32960, Note Name: F4
Note ON: Time 32960, Note Name: B3, Velocity: 33
Note OFF: Time 33120, Note Name: B3
Note ON: Time 33120, Note Name: F3, Velocity: 48
Note OFF: Time 33280, Note Name: F3
Note ON: Time 33280, Note Name: F4, Velocity: 35
Note OFF: Time 33440, Note Name: F4
Note ON: Time 33440, Note Name: C4, Velocity: 37
Note OFF: Time 33600, Note Name: C4
Note ON: Time 33600, Note Name: F3, Velocity: 45
Note OFF: Time 33760, Note Name: F3
Note ON: Time 33760, Note Name: F4, Velocity: 38
Note OFF: Time 33920, Note Name: F4
Note ON: Time 33920, Note Name: D#4, Velocity: 30
Note OFF: Time 34080, Note Name: D#4
Note ON: Time 34080, Note Name: F3, Velocity: 37
Note OFF: Time 34240, Note Name: F3
Note ON: Time 34240, Note Name: D#4, Velocity: 32
Note OFF: Time 34400, Note Name: D#4
Note ON: Time 34400, Note Name: A3, Velocity: 31
Note OFF: Time 34560, Note Name: A3
Note ON: Time 34560, Note Name: A#2, Velocity: 50
Note OFF: Time 34720, Note Name: A#2
Note ON: Time 34720, Note Name: D#4, Velocity: 36
Note OFF: Time 34880, Note Name: D#4
Note ON: Time 34880, Note Name: F3, Velocity: 37
Note OFF: Time 35040, Note Name: F3
Note ON: Time 35040, Note Name: A#2, Velocity: 43
Note OFF: Time 35200, Note Name: A#2
Note ON: Time 35200, Note Name: D4, Velocity: 36
Note OFF: Time 35360, Note Name: D4
Note ON: Time 35360, Note Name: F3, Velocity: 34
Note OFF: Time 35520, Note Name: F3
Note ON: Time 35520, Note Name: A#2, Velocity: 39
Note OFF: Time 35680, Note Name: A#2
Note ON: Time 35680, Note Name: C#4, Velocity: 34
Note OFF: Time 35840, Note Name: C#4
Note ON: Time 35840, Note Name: F3, Velocity: 33
Note OFF: Time 36000, Note Name: F3
Note ON: Time 36000, Note Name: G#2, Velocity: 43
Note OFF: Time 36160, Note Name: G#2
Note ON: Time 36160, Note Name: B3, Velocity: 28
Note OFF: Time 36320, Note Name: B3
Note ON: Time 36320, Note Name: F3, Velocity: 29
Note OFF: Time 36480, Note Name: F3
Note ON: Time 36480, Note Name: C#3, Velocity: 40
Note OFF: Time 36640, Note Name: C#3
Note ON: Time 36640, Note Name: B3, Velocity: 30
Note OFF: Time 36800, Note Name: B3
Note ON: Time 36800, Note Name: F3, Velocity: 32
Note OFF: Time 36960, Note Name: F3
Note ON: Time 36960, Note Name: C#2, Velocity: 42
Note OFF: Time 37120, Note Name: C#2
Note ON: Time 37120, Note Name: B3, Velocity: 34
Note OFF: Time 37280, Note Name: B3
Note ON: Time 37280, Note Name: F3, Velocity: 35
Note OFF: Time 37440, Note Name: F3
Note ON: Time 37440, Note Name: F#2, Velocity: 47
Note OFF: Time 37600, Note Name: F#2
Note ON: Time 37600, Note Name: A#3, Velocity: 35
Note OFF: Time 37760, Note Name: A#3
Note ON: Time 37760, Note Name: F#3, Velocity: 35
Note OFF: Time 37920, Note Name: F#3
Note ON: Time 37920, Note Name: C#3, Velocity: 43
Note OFF: Time 38080, Note Name: C#3
Note ON: Time 38080, Note Name: A#3, Velocity: 36
Note OFF: Time 38240, Note Name: A#3
Note ON: Time 38240, Note Name: F#3, Velocity: 31
Note OFF: Time 38400, Note Name: F#3
Note ON: Time 38400, Note Name: F#2, Velocity: 39
Note OFF: Time 38560, Note Name: F#2
Note ON: Time 38560, Note Name: A#3, Velocity: 34
Note OFF: Time 38720, Note Name: A#3
Note ON: Time 38720, Note Name: C#3, Velocity: 33
Note OFF: Time 38880, Note Name: C#3
Note ON: Time 38880, Note Name: C#2, Velocity: 36
Note OFF: Time 39040, Note Name: C#2
Note ON: Time 39040, Note Name: B3, Velocity: 28
Note OFF: Time 39200, Note Name: B3
Note ON: Time 39200, Note Name: F3, Velocity: 29
Note OFF: Time 39360, Note Name: F3
Note ON: Time 39360, Note Name: G#2, Velocity: 34
Note OFF: Time 39520, Note Name: G#2
Note ON: Time 39520, Note Name: B3, Velocity: 30
Note OFF: Time 39680, Note Name: B3
Note ON: Time 39680, Note Name: F3, Velocity: 32
Note OFF: Time 39840, Note Name: F3
Note ON: Time 39840, Note Name: C#2, Velocity: 38
Note OFF: Time 40000, Note Name: C#2
Note ON: Time 40000, Note Name: B3, Velocity: 35
Note OFF: Time 40160, Note Name: B3
Note ON: Time 40160, Note Name: F3, Velocity: 38
Note OFF: Time 40320, Note Name: F3
Note ON: Time 40320, Note Name: F#2, Velocity: 47
Note OFF: Time 40480, Note Name: F#2
Note ON: Time 40480, Note Name: A#3, Velocity: 35
Note OFF: Time 40640, Note Name: A#3
Note ON: Time 40640, Note Name: F#3, Velocity: 35
Note OFF: Time 40800, Note Name: F#3
Note ON: Time 40800, Note Name: C#3, Velocity: 43
Note OFF: Time 40960, Note Name: C#3
Note ON: Time 40960, Note Name: A#3, Velocity: 36
Note OFF: Time 41120, Note Name: A#3
Note ON: Time 41120, Note Name: F#3, Velocity: 34
Note OFF: Time 41280, Note Name: F#3
Note ON: Time 41280, Note Name: F#2, Velocity: 39
Note OFF: Time 41440, Note Name: F#2
Note ON: Time 41440, Note Name: A#3, Velocity: 34
Note OFF: Time 41600, Note Name: A#3
Note ON: Time 41600, Note Name: C#3, Velocity: 33
Note OFF: Time 41760, Note Name: C#3
Note ON: Time 41760, Note Name: G2, Velocity: 40
Note OFF: Time 41920, Note Name: G2
Note ON: Time 41920, Note Name: A#3, Velocity: 31
Note OFF: Time 42080, Note Name: A#3
Note ON: Time 42080, Note Name: E3, Velocity: 32
Note OFF: Time 42240, Note Name: E3
Note ON: Time 42240, Note Name: A#2, Velocity: 43
Note OFF: Time 42400, Note Name: A#2
Note ON: Time 42400, Note Name: C#4, Velocity: 35
Note OFF: Time 42560, Note Name: C#4
Note ON: Time 42560, Note Name: E3, Velocity: 34
Note OFF: Time 42720, Note Name: E3
Note ON: Time 42720, Note Name: A2, Velocity: 39
Note OFF: Time 42880, Note Name: A2
Note ON: Time 42880, Note Name: C4, Velocity: 35
Note OFF: Time 43040, Note Name: C4
Note ON: Time 43040, Note Name: D#3, Velocity: 36
Note OFF: Time 43200, Note Name: D#3
Note ON: Time 43200, Note Name: C3, Velocity: 48
Note OFF: Time 43360, Note Name: C3
Note ON: Time 43360, Note Name: D#4, Velocity: 39
Note OFF: Time 43520, Note Name: D#4
Note ON: Time 43520, Note Name: F#3, Velocity: 40
Note OFF: Time 43680, Note Name: F#3
Note ON: Time 43680, Note Name: B2, Velocity: 44
Note OFF: Time 43840, Note Name: B2
Note ON: Time 43840, Note Name: D4, Velocity: 36
Note OFF: Time 44000, Note Name: D4
Note ON: Time 44000, Note Name: F3, Velocity: 40
Note OFF: Time 44160, Note Name: F3
Note ON: Time 44160, Note Name: D3, Velocity: 55
Note OFF: Time 44320, Note Name: D3
Note ON: Time 44320, Note Name: F4, Velocity: 43
Note OFF: Time 44480, Note Name: F4
Note ON: Time 44480, Note Name: G#3, Velocity: 43
Note OFF: Time 44640, Note Name: G#3
Note ON: Time 44640, Note Name: C#3, Velocity: 54
Note OFF: Time 44800, Note Name: C#3
Note ON: Time 44800, Note Name: E4, Velocity: 41
Note OFF: Time 44960, Note Name: E4
Note ON: Time 44960, Note Name: G3, Velocity: 46
Note OFF: Time 45120, Note Name: G3
Note ON: Time 45120, Note Name: E3, Velocity: 60
Note OFF: Time 45280, Note Name: E3
Note ON: Time 45280, Note Name: G4, Velocity: 48
Note OFF: Time 45440, Note Name: G4
Note ON: Time 45440, Note Name: A#3, Velocity: 48
Note OFF: Time 45600, Note Name: A#3
Note ON: Time 45600, Note Name: D#3, Velocity: 58
Note OFF: Time 45760, Note Name: D#3
Note ON: Time 45760, Note Name: F#4, Velocity: 44
Note OFF: Time 45920, Note Name: F#4
Note ON: Time 45920, Note Name: A3, Velocity: 49
Note OFF: Time 46080, Note Name: A3
Note ON: Time 46080, Note Name: F#3, Velocity: 69
Note OFF: Time 46240, Note Name: F#3
Note ON: Time 46240, Note Name: A4, Velocity: 49
Note OFF: Time 46400, Note Name: A4
Note ON: Time 46400, Note Name: C4, Velocity: 50
Note OFF: Time 46560, Note Name: C4
Note ON: Time 46560, Note Name: F3, Velocity: 62
Note OFF: Time 46720, Note Name: F3
Note ON: Time 46720, Note Name: G#4, Velocity: 51
Note OFF: Time 46880, Note Name: G#4
Note ON: Time 46880, Note Name: B3, Velocity: 51
Note OFF: Time 47040, Note Name: B3
Note ON: Time 47040, Note Name: A#3, Velocity: 67
Note OFF: Time 47280, Note Name: A#3
Note ON: Time 47520, Note Name: D#2, Velocity: 36
Note OFF: Time 47680, Note Name: D#2
Note ON: Time 47680, Note Name: G3, Velocity: 28
Note OFF: Time 47840, Note Name: G3
Note ON: Time 47840, Note Name: A#2, Velocity: 31
Note OFF: Time 48000, Note Name: A#2
Note ON: Time 48000, Note Name: D#2, Velocity: 39
Note OFF: Time 48160, Note Name: D#2
Note ON: Time 48160, Note Name: G3, Velocity: 33
Note OFF: Time 48320, Note Name: G3
Note ON: Time 48320, Note Name: A#2, Velocity: 36
Note OFF: Time 48480, Note Name: A#2
Note ON: Time 48480, Note Name: D#2, Velocity: 36
Note OFF: Time 48640, Note Name: D#2
Note ON: Time 48640, Note Name: A#3, Velocity: 32
Note OFF: Time 48800, Note Name: A#3
Note ON: Time 48800, Note Name: A#2, Velocity: 32
Note OFF: Time 48960, Note Name: A#2
Note ON: Time 48960, Note Name: D#2, Velocity: 42
Note OFF: Time 49120, Note Name: D#2
Note ON: Time 49120, Note Name: D#4, Velocity: 33
Note OFF: Time 49280, Note Name: D#4
Note ON: Time 49280, Note Name: G3, Velocity: 34
Note OFF: Time 49440, Note Name: G3
Note ON: Time 49440, Note Name: A#2, Velocity: 42
Note OFF: Time 49600, Note Name: A#2
Note ON: Time 49600, Note Name: G4, Velocity: 35
Note OFF: Time 49760, Note Name: G4
Note ON: Time 49760, Note Name: A#3, Velocity: 37
Note OFF: Time 49920, Note Name: A#3
Note ON: Time 49920, Note Name: D#3, Velocity: 47
Note OFF: Time 50080, Note Name: D#3
Note ON: Time 50080, Note Name: A#4, Velocity: 39
Note OFF: Time 50240, Note Name: A#4
Note ON: Time 50240, Note Name: A#3, Velocity: 41
Note OFF: Time 50400, Note Name: A#3
Note ON: Time 50400, Note Name: D#3, Velocity: 54
Note OFF: Time 50560, Note Name: D#3
Note ON: Time 50560, Note Name: B4, Velocity: 39
Note OFF: Time 50720, Note Name: B4
Note ON: Time 50720, Note Name: B3, Velocity: 36
Note OFF: Time 50880, Note Name: B3
Note ON: Time 50880, Note Name: D#3, Velocity: 49
Note OFF: Time 51040, Note Name: D#3
Note ON: Time 51040, Note Name: C5, Velocity: 38
Note OFF: Time 51200, Note Name: C5
Note ON: Time 51200, Note Name: C4, Velocity: 33
Note OFF: Time 51360, Note Name: C4
Note ON: Time 51360, Note Name: D#3, Velocity: 41
Note OFF: Time 51520, Note Name: D#3
Note ON: Time 51520, Note Name: G#4, Velocity: 33
Note OFF: Time 51680, Note Name: G#4
Note ON: Time 51680, Note Name: D4, Velocity: 32
Note OFF: Time 51840, Note Name: D4
Note ON: Time 51840, Note Name: D#3, Velocity: 46
Note OFF: Time 52000, Note Name: D#3
Note ON: Time 52000, Note Name: G4, Velocity: 30
Note OFF: Time 52160, Note Name: G4
Note ON: Time 52160, Note Name: D#4, Velocity: 31
Note OFF: Time 52320, Note Name: D#4
Note ON: Time 52320, Note Name: A#3, Velocity: 39
Note OFF: Time 52480, Note Name: A#3
Note ON: Time 52480, Note Name: G4, Velocity: 30
Note OFF: Time 52640, Note Name: G4
Note ON: Time 52640, Note Name: D#4, Velocity: 30
Note OFF: Time 52800, Note Name: D#4
Note ON: Time 52800, Note Name: D#3, Velocity: 35
Note OFF: Time 52960, Note Name: D#3
Note ON: Time 52960, Note Name: D#4, Velocity: 29
Note OFF: Time 53120, Note Name: D#4
Note ON: Time 53120, Note Name: G3, Velocity: 29
Note OFF: Time 53280, Note Name: G3
Note ON: Time 53280, Note Name: F2, Velocity: 36
Note OFF: Time 53440, Note Name: F2
Note ON: Time 53440, Note Name: C4, Velocity: 28
Note OFF: Time 53600, Note Name: C4
Note ON: Time 53600, Note Name: F3, Velocity: 29
Note OFF: Time 53760, Note Name: F3
Note ON: Time 53760, Note Name: C3, Velocity: 34
Note OFF: Time 53920, Note Name: C3
Note ON: Time 53920, Note Name: C4, Velocity: 30
Note OFF: Time 54080, Note Name: C4
Note ON: Time 54080, Note Name: F3, Velocity: 32
Note OFF: Time 54240, Note Name: F3
Note ON: Time 54240, Note Name: F2, Velocity: 45
Note OFF: Time 54400, Note Name: F2
Note ON: Time 54400, Note Name: C4, Velocity: 34
Note OFF: Time 54560, Note Name: C4
Note ON: Time 54560, Note Name: F3, Velocity: 40
Note OFF: Time 54720, Note Name: F3
Note ON: Time 54720, Note Name: A#2, Velocity: 50
Note OFF: Time 54880, Note Name: A#2
Note ON: Time 54880, Note Name: D#4, Velocity: 35
Note OFF: Time 55040, Note Name: D#4
Note ON: Time 55040, Note Name: F3, Velocity: 35
Note OFF: Time 55200, Note Name: F3
Note ON: Time 55200, Note Name: D3, Velocity: 43
Note OFF: Time 55360, Note Name: D3
Note ON: Time 55360, Note Name: D4, Velocity: 36
Note OFF: Time 55520, Note Name: D4
Note ON: Time 55520, Note Name: F3, Velocity: 34
Note OFF: Time 55680, Note Name: F3
Note ON: Time 55680, Note Name: A#2, Velocity: 39
Note OFF: Time 55840, Note Name: A#2
Note ON: Time 55840, Note Name: A#3, Velocity: 34
Note OFF: Time 56000, Note Name: A#3
Note ON: Time 56000, Note Name: F3, Velocity: 33
Note OFF: Time 56160, Note Name: F3
Note ON: Time 56160, Note Name: F2, Velocity: 36
Note OFF: Time 56320, Note Name: F2
Note ON: Time 56320, Note Name: C4, Velocity: 28
Note OFF: Time 56480, Note Name: C4
Note ON: Time 56480, Note Name: F3, Velocity: 29
Note OFF: Time 56640, Note Name: F3
Note ON: Time 56640, Note Name: C3, Velocity: 34
Note OFF: Time 56800, Note Name: C3
Note ON: Time 56800, Note Name: B3, Velocity: 30
Note OFF: Time 56960, Note Name: B3
Note ON: Time 56960, Note Name: F3, Velocity: 32
Note OFF: Time 57120, Note Name: F3
Note ON: Time 57120, Note Name: F2, Velocity: 38
Note OFF: Time 57280, Note Name: F2
Note ON: Time 57280, Note Name: C4, Velocity: 36
Note OFF: Time 57440, Note Name: C4
Note ON: Time 57440, Note Name: F3, Velocity: 35
Note OFF: Time 57600, Note Name: F3
Note ON: Time 57600, Note Name: A#2, Velocity: 51
Note OFF: Time 57760, Note Name: A#2
Note ON: Time 57760, Note Name: D#4, Velocity: 35
Note OFF: Time 57920, Note Name: D#4
Note ON: Time 57920, Note Name: G#3, Velocity: 35
Note OFF: Time 58080, Note Name: G#3
Note ON: Time 58080, Note Name: F3, Velocity: 43
Note OFF: Time 58240, Note Name: F3
Note ON: Time 58240, Note Name: D4, Velocity: 35
Note OFF: Time 58400, Note Name: D4
Note ON: Time 58400, Note Name: F3, Velocity: 34
Note OFF: Time 58560, Note Name: F3
Note ON: Time 58560, Note Name: A#2, Velocity: 39
Note OFF: Time 58720, Note Name: A#2
Note ON: Time 58720, Note Name: G#3, Velocity: 33
Note OFF: Time 58880, Note Name: G#3
Note ON: Time 58880, Note Name: D3, Velocity: 32
Note OFF: Time 59040, Note Name: D3
Note ON: Time 59040, Note Name: D#2, Velocity: 36
Note OFF: Time 59200, Note Name: D#2
Note ON: Time 59200, Note Name: G3, Velocity: 28
Note OFF: Time 59360, Note Name: G3
Note ON: Time 59360, Note Name: A#2, Velocity: 28
Note OFF: Time 59520, Note Name: A#2
Note ON: Time 59520, Note Name: D#2, Velocity: 33
Note OFF: Time 59680, Note Name: D#2
Note ON: Time 59680, Note Name: G3, Velocity: 28
Note OFF: Time 59840, Note Name: G3
Note ON: Time 59840, Note Name: A#2, Velocity: 29
Note OFF: Time 60000, Note Name: A#2
Note ON: Time 60000, Note Name: D#2, Velocity: 35
Note OFF: Time 60160, Note Name: D#2
Note ON: Time 60160, Note Name: A#3, Velocity: 31
Note OFF: Time 60320, Note Name: A#3
Note ON: Time 60320, Note Name: A#2, Velocity: 31
Note OFF: Time 60480, Note Name: A#2
Note ON: Time 60480, Note Name: D#2, Velocity: 39
Note OFF: Time 60640, Note Name: D#2
Note ON: Time 60640, Note Name: D#4, Velocity: 31
Note OFF: Time 60800, Note Name: D#4
Note ON: Time 60800, Note Name: G3, Velocity: 32
Note OFF: Time 60960, Note Name: G3
Note ON: Time 60960, Note Name: A#2, Velocity: 40
Note OFF: Time 61120, Note Name: A#2
Note ON: Time 61120, Note Name: G4, Velocity: 33
Note OFF: Time 61280, Note Name: G4
Note ON: Time 61280, Note Name: A#3, Velocity: 35
Note OFF: Time 61440, Note Name: A#3
Note ON: Time 61440, Note Name: D#3, Velocity: 44
Note OFF: Time 61600, Note Name: D#3
Note ON: Time 61600, Note Name: A#4, Velocity: 37
Note OFF: Time 61760, Note Name: A#4
Note ON: Time 61760, Note Name: A#3, Velocity: 38
Note OFF: Time 61920, Note Name: A#3
Note ON: Time 61920, Note Name: A2, Velocity: 55
Note OFF: Time 62080, Note Name: A2
Note ON: Time 62080, Note Name: C4, Velocity: 36
Note OFF: Time 62240, Note Name: C4
Note ON: Time 62240, Note Name: F#3, Velocity: 36
Note OFF: Time 62400, Note Name: F#3
Note ON: Time 62400, Note Name: B2, Velocity: 49
Note OFF: Time 62560, Note Name: B2
Note ON: Time 62560, Note Name: D4, Velocity: 37
Note OFF: Time 62720, Note Name: D4
Note ON: Time 62720, Note Name: G#3, Velocity: 36
Note OFF: Time 62880, Note Name: G#3
Note ON: Time 62880, Note Name: C#3, Velocity: 47
Note OFF: Time 63040, Note Name: C#3
Note ON: Time 63040, Note Name: E4, Velocity: 34
Note OFF: Time 63200, Note Name: E4
Note ON: Time 63200, Note Name: A#3, Velocity: 33
Note OFF: Time 63360, Note Name: A#3
Note ON: Time 63360, Note Name: D#3, Velocity: 54
Note OFF: Time 63520, Note Name: D#3
Note ON: Time 63520, Note Name: F#4, Velocity: 38
Note OFF: Time 63680, Note Name: F#4
Note ON: Time 63680, Note Name: C4, Velocity: 35
Note OFF: Time 63840, Note Name: C4
Note ON: Time 63840, Note Name: F3, Velocity: 46
Note OFF: Time 64000, Note Name: F3
Note ON: Time 64000, Note Name: G#4, Velocity: 34
Note OFF: Time 64160, Note Name: G#4
Note ON: Time 64160, Note Name: D4, Velocity: 34
Note OFF: Time 64320, Note Name: D4
Note ON: Time 64320, Note Name: G3, Velocity: 42
Note OFF: Time 64480, Note Name: G3
Note ON: Time 64480, Note Name: A#4, Velocity: 35
Note OFF: Time 64640, Note Name: A#4
Note ON: Time 64640, Note Name: E4, Velocity: 35
Note OFF: Time 64800, Note Name: E4
Note ON: Time 64800, Note Name: G#3, Velocity: 47
Note OFF: Time 64960, Note Name: G#3
Note ON: Time 64960, Note Name: G#4, Velocity: 36
Note OFF: Time 65120, Note Name: G#4
Note ON: Time 65120, Note Name: F4, Velocity: 43
Note OFF: Time 65280, Note Name: F4
Note ON: Time 65280, Note Name: C4, Velocity: 54
Note OFF: Time 65440, Note Name: C4
Note ON: Time 65440, Note Name: G#4, Velocity: 42
Note OFF: Time 65600, Note Name: G#4
Note ON: Time 65600, Note Name: F4, Velocity: 42
Note OFF: Time 65760, Note Name: F4
Note ON: Time 65760, Note Name: G#3, Velocity: 60
Note OFF: Time 65920, Note Name: G#3
Note ON: Time 65920, Note Name: G#4, Velocity: 46
Note OFF: Time 66080, Note Name: G#4
Note ON: Time 66080, Note Name: F4, Velocity: 49
Note OFF: Time 66240, Note Name: F4
Note ON: Time 66240, Note Name: F3, Velocity: 62
Note OFF: Time 66400, Note Name: F3
Note ON: Time 66400, Note Name: D#5, Velocity: 46
Note OFF: Time 66560, Note Name: D#5
Note ON: Time 66560, Note Name: G#4, Velocity: 46
Note OFF: Time 66720, Note Name: G#4
Note ON: Time 66720, Note Name: D#4, Velocity: 50
Note OFF: Time 66880, Note Name: D#4
Note ON: Time 66880, Note Name: D#5, Velocity: 37
Note OFF: Time 67040, Note Name: D#5
Note ON: Time 67040, Note Name: G#4, Velocity: 38
Note OFF: Time 67200, Note Name: G#4
Note ON: Time 67200, Note Name: G#3, Velocity: 46
Note OFF: Time 67360, Note Name: G#3
Note ON: Time 67360, Note Name: D#5, Velocity: 37
Note OFF: Time 67520, Note Name: D#5
Note ON: Time 67520, Note Name: G#4, Velocity: 35
Note OFF: Time 67680, Note Name: G#4
Note ON: Time 67680, Note Name: G#2, Velocity: 46
Note OFF: Time 67840, Note Name: G#2
Note ON: Time 67840, Note Name: G#4, Velocity: 35
Note OFF: Time 68000, Note Name: G#4
Note ON: Time 68000, Note Name: F4, Velocity: 38
Note OFF: Time 68160, Note Name: F4
Note ON: Time 68160, Note Name: C4, Velocity: 47
Note OFF: Time 68320, Note Name: C4
Note ON: Time 68320, Note Name: G#4, Velocity: 38
Note OFF: Time 68480, Note Name: G#4
Note ON: Time 68480, Note Name: F4, Velocity: 32
Note OFF: Time 68640, Note Name: F4
Note ON: Time 68640, Note Name: F3, Velocity: 38
Note OFF: Time 68800, Note Name: F3
Note ON: Time 68800, Note Name: G#4, Velocity: 34
Note OFF: Time 68960, Note Name: G#4
Note ON: Time 68960, Note Name: D#4, Velocity: 34
Note OFF: Time 69120, Note Name: D#4
Note ON: Time 69120, Note Name: A#2, Velocity: 37
Note OFF: Time 69280, Note Name: A#2
Note ON: Time 69280, Note Name: D#4, Velocity: 28
Note OFF: Time 69440, Note Name: D#4
Note ON: Time 69440, Note Name: G#3, Velocity: 31
Note OFF: Time 69600, Note Name: G#3
Note ON: Time 69600, Note Name: F3, Velocity: 38
Note OFF: Time 69760, Note Name: F3
Note ON: Time 69760, Note Name: D4, Velocity: 31
Note OFF: Time 69920, Note Name: D4
Note ON: Time 69920, Note Name: G#3, Velocity: 32
Note OFF: Time 70080, Note Name: G#3
Note ON: Time 70080, Note Name: A#2, Velocity: 31
Note OFF: Time 70240, Note Name: A#2
Note ON: Time 70240, Note Name: A#3, Velocity: 27
Note OFF: Time 70400, Note Name: A#3
Note ON: Time 70400, Note Name: G#3, Velocity: 27
Note OFF: Time 70560, Note Name: G#3
Note ON: Time 70560, Note Name: D#2, Velocity: 32
Note OFF: Time 70720, Note Name: D#2
Note ON: Time 70720, Note Name: G3, Velocity: 27
Note OFF: Time 70880, Note Name: G3
Note ON: Time 70880, Note Name: A#2, Velocity: 28
Note OFF: Time 71040, Note Name: A#2
Note ON: Time 71040, Note Name: D#2, Velocity: 36
Note OFF: Time 71200, Note Name: D#2
Note ON: Time 71200, Note Name: A#3, Velocity: 29
Note OFF: Time 71360, Note Name: A#3
Note ON: Time 71360, Note Name: A#2, Velocity: 32
Note OFF: Time 71520, Note Name: A#2
Note ON: Time 71520, Note Name: D#2, Velocity: 40
Note OFF: Time 71680, Note Name: D#2
Note ON: Time 71680, Note Name: A#3, Velocity: 34
Note OFF: Time 71840, Note Name: A#3
Note ON: Time 71840, Note Name: A#2, Velocity: 36
Note OFF: Time 72000, Note Name: A#2
Note ON: Time 72000, Note Name: D#2, Velocity: 46
Note OFF: Time 72160, Note Name: D#2
Note ON: Time 72160, Note Name: G#3, Velocity: 54
Note OFF: Time 72320, Note Name: G#3
Note ON: Time 72320, Note Name: A#2, Velocity: 33
Note OFF: Time 72480, Note Name: A#2
Note ON: Time 72480, Note Name: D#2, Velocity: 42
Note OFF: Time 72640, Note Name: D#2
Note ON: Time 72640, Note Name: A#3, Velocity: 32
Note OFF: Time 72800, Note Name: A#3
Note ON: Time 72800, Note Name: A#2, Velocity: 30
Note OFF: Time 72960, Note Name: A#2
Note ON: Time 72960, Note Name: D#2, Velocity: 34
Note OFF: Time 73120, Note Name: D#2
Note ON: Time 73120, Note Name: A#3, Velocity: 28
Note OFF: Time 73280, Note Name: A#3
Note ON: Time 73280, Note Name: A#2, Velocity: 26
Note OFF: Time 73440, Note Name: A#2
Note ON: Time 73440, Note Name: D#2, Velocity: 32
Note OFF: Time 73600, Note Name: D#2
Note ON: Time 73600, Note Name: A#3, Velocity: 27
Note OFF: Time 73760, Note Name: A#3
Note ON: Time 73760, Note Name: A#2, Velocity: 28
Note OFF: Time 73920, Note Name: A#2
Note ON: Time 73920, Note Name: D#2, Velocity: 36
Note OFF: Time 74080, Note Name: D#2
Note ON: Time 74080, Note Name: A#3, Velocity: 29
Note OFF: Time 74240, Note Name: A#3
Note ON: Time 74240, Note Name: A#2, Velocity: 32
Note OFF: Time 74400, Note Name: A#2
Note ON: Time 74400, Note Name: D#2, Velocity: 40
Note OFF: Time 74560, Note Name: D#2
Note ON: Time 74560, Note Name: A#3, Velocity: 34
Note OFF: Time 74720, Note Name: A#3
Note ON: Time 74720, Note Name: A#2, Velocity: 36
Note OFF: Time 74880, Note Name: A#2
Note ON: Time 74880, Note Name: D#2, Velocity: 40
Note OFF: Time 75040, Note Name: D#2
Note ON: Time 75040, Note Name: G#3, Velocity: 42
Note OFF: Time 75200, Note Name: G#3
Note ON: Time 75200, Note Name: A#2, Velocity: 33
Note OFF: Time 75360, Note Name: A#2
Note ON: Time 75360, Note Name: D#2, Velocity: 42
Note OFF: Time 75520, Note Name: D#2
Note ON: Time 75520, Note Name: A#3, Velocity: 32
Note OFF: Time 75680, Note Name: A#3
Note ON: Time 75680, Note Name: A#2, Velocity: 30
Note OFF: Time 75840, Note Name: A#2
Note ON: Time 75840, Note Name: D#2, Velocity: 34
Note OFF: Time 76000, Note Name: D#2
Note ON: Time 76000, Note Name: A#3, Velocity: 28
Note OFF: Time 76160, Note Name: A#3
Note ON: Time 76160, Note Name: A#2, Velocity: 26
Note OFF: Time 76320, Note Name: A#2
Note ON: Time 76320, Note Name: D#2, Velocity: 32
Note OFF: Time 76480, Note Name: D#2
Note ON: Time 76480, Note Name: A#3, Velocity: 27
Note OFF: Time 76640, Note Name: A#3
Note ON: Time 76640, Note Name: A#2, Velocity: 28
Note OFF: Time 76800, Note Name: A#2
Note ON: Time 76800, Note Name: D#2, Velocity: 39
Note OFF: Time 76960, Note Name: D#2
Note ON: Time 76960, Note Name: A#3, Velocity: 29
Note OFF: Time 77120, Note Name: A#3
Note ON: Time 77120, Note Name: A#2, Velocity: 32
Note OFF: Time 77280, Note Name: A#2
Note ON: Time 77280, Note Name: G2, Velocity: 45
Note OFF: Time 77440, Note Name: G2
Note ON: Time 77440, Note Name: A#3, Velocity: 35
Note OFF: Time 77600, Note Name: A#3
Note ON: Time 77600, Note Name: D#3, Velocity: 37
Note OFF: Time 77760, Note Name: D#3
Note ON: Time 77760, Note Name: G2, Velocity: 53
Note OFF: Time 77920, Note Name: G2
Note ON: Time 77920, Note Name: F4, Velocity: 35
Note OFF: Time 78080, Note Name: F4
Note ON: Time 78080, Note Name: B3, Velocity: 35
Note OFF: Time 78240, Note Name: B3
Note ON: Time 78240, Note Name: D3, Velocity: 47
Note OFF: Time 78400, Note Name: D3
Note ON: Time 78400, Note Name: F4, Velocity: 34
Note OFF: Time 78560, Note Name: F4
Note ON: Time 78560, Note Name: B3, Velocity: 33
Note OFF: Time 78720, Note Name: B3
Note ON: Time 78720, Note Name: C3, Velocity: 45
Note OFF: Time 78880, Note Name: C3
Note ON: Time 78880, Note Name: D#4, Velocity: 31
Note OFF: Time 79040, Note Name: D#4
Note ON: Time 79040, Note Name: G3, Velocity: 29
Note OFF: Time 79200, Note Name: G3
Note ON: Time 79200, Note Name: A2, Velocity: 44
Note OFF: Time 79360, Note Name: A2
Note ON: Time 79360, Note Name: D#4, Velocity: 33
Note OFF: Time 79520, Note Name: D#4
Note ON: Time 79520, Note Name: F#3, Velocity: 33
Note OFF: Time 79680, Note Name: F#3
Note ON: Time 79680, Note Name: D#3, Velocity: 40
Note OFF: Time 79840, Note Name: D#3
Note ON: Time 79840, Note Name: D#4, Velocity: 31
Note OFF: Time 80000, Note Name: D#4
Note ON: Time 80000, Note Name: F#3, Velocity: 29
Note OFF: Time 80160, Note Name: F#3
Note ON: Time 80160, Note Name: G#2, Velocity: 33
Note OFF: Time 80320, Note Name: G#2
Note ON: Time 80320, Note Name: D#4, Velocity: 27
Note OFF: Time 80480, Note Name: D#4
Note ON: Time 80480, Note Name: F#3, Velocity: 26
Note OFF: Time 80640, Note Name: F#3
Note ON: Time 80640, Note Name: A#2, Velocity: 35
Note OFF: Time 80800, Note Name: A#2
Note ON: Time 80800, Note Name: D4, Velocity: 29
Note OFF: Time 80960, Note Name: D4
Note ON: Time 80960, Note Name: G#3, Velocity: 29
Note OFF: Time 81120, Note Name: G#3
Note ON: Time 81120, Note Name: F3, Velocity: 33
Note OFF: Time 81280, Note Name: F3
Note ON: Time 81280, Note Name: D4, Velocity: 28
Note OFF: Time 81440, Note Name: D4
Note ON: Time 81440, Note Name: G#3, Velocity: 28
Note OFF: Time 81600, Note Name: G#3
Note ON: Time 81600, Note Name: A#2, Velocity: 32
Note OFF: Time 81760, Note Name: A#2
Note ON: Time 81760, Note Name: A#3, Velocity: 27
Note OFF: Time 81920, Note Name: A#3
Note ON: Time 81920, Note Name: G#3, Velocity: 26
Note OFF: Time 82080, Note Name: G#3
Note ON: Time 82080, Note Name: D#2, Velocity: 32
Note OFF: Time 82240, Note Name: D#2
Note ON: Time 82240, Note Name: G3, Velocity: 27
Note OFF: Time 82400, Note Name: G3
Note ON: Time 82400, Note Name: A#2, Velocity: 28
Note OFF: Time 82560, Note Name: A#2
Note ON: Time 82560, Note Name: D#2, Velocity: 36
Note OFF: Time 82720, Note Name: D#2
Note ON: Time 82720, Note Name: A#3, Velocity: 29
Note OFF: Time 82880, Note Name: A#3
Note ON: Time 82880, Note Name: A#2, Velocity: 32
Note OFF: Time 83040, Note Name: A#2
Note ON: Time 83040, Note Name: D#2, Velocity: 40
Note OFF: Time 83200, Note Name: D#2
Note ON: Time 83200, Note Name: A#3, Velocity: 34
Note OFF: Time 83360, Note Name: A#3
Note ON: Time 83360, Note Name: A#2, Velocity: 33
Note OFF: Time 83520, Note Name: A#2
Note ON: Time 83520, Note Name: D#2, Velocity: 46
Note OFF: Time 83680, Note Name: D#2
Note ON: Time 83680, Note Name: G#3, Velocity: 34
Note OFF: Time 83840, Note Name: G#3
Note ON: Time 83840, Note Name: A#2, Velocity: 33
Note OFF: Time 84000, Note Name: A#2
Note ON: Time 84000, Note Name: D#2, Velocity: 42
Note OFF: Time 84160, Note Name: D#2
Note ON: Time 84160, Note Name: A#3, Velocity: 32
Note OFF: Time 84320, Note Name: A#3
Note ON: Time 84320, Note Name: A#2, Velocity: 30
Note OFF: Time 84480, Note Name: A#2
Note ON: Time 84480, Note Name: D#2, Velocity: 34
Note OFF: Time 84640, Note Name: D#2
Note ON: Time 84640, Note Name: A#3, Velocity: 28
Note OFF: Time 84800, Note Name: A#3
Note ON: Time 84800, Note Name: A#2, Velocity: 26
Note OFF: Time 84960, Note Name: A#2
Note ON: Time 84960, Note Name: D#2, Velocity: 32
Note OFF: Time 85120, Note Name: D#2
Note ON: Time 85120, Note Name: A#3, Velocity: 27
Note OFF: Time 85280, Note Name: A#3
Note ON: Time 85280, Note Name: A#2, Velocity: 28
Note OFF: Time 85440, Note Name: A#2
Note ON: Time 85440, Note Name: D#2, Velocity: 36
Note OFF: Time 85600, Note Name: D#2
Note ON: Time 85600, Note Name: A#3, Velocity: 29
Note OFF: Time 85760, Note Name: A#3
Note ON: Time 85760, Note Name: A#2, Velocity: 32
Note OFF: Time 85920, Note Name: A#2
Note ON: Time 85920, Note Name: D#2, Velocity: 40
Note OFF: Time 86080, Note Name: D#2
Note ON: Time 86080, Note Name: A#3, Velocity: 34
Note OFF: Time 86240, Note Name: A#3
Note ON: Time 86240, Note Name: A#2, Velocity: 36
Note OFF: Time 86400, Note Name: A#2
Note ON: Time 86400, Note Name: D#2, Velocity: 40
Note OFF: Time 86560, Note Name: D#2
Note ON: Time 86560, Note Name: G#3, Velocity: 40
Note OFF: Time 86720, Note Name: G#3
Note ON: Time 86720, Note Name: A#2, Velocity: 33
Note OFF: Time 86880, Note Name: A#2
Note ON: Time 86880, Note Name: D#2, Velocity: 42
Note OFF: Time 87040, Note Name: D#2
Note ON: Time 87040, Note Name: A#3, Velocity: 32
Note OFF: Time 87200, Note Name: A#3
Note ON: Time 87200, Note Name: A#2, Velocity: 30
Note OFF: Time 87360, Note Name: A#2
Note ON: Time 87360, Note Name: D#2, Velocity: 34
Note OFF: Time 87520, Note Name: D#2
Note ON: Time 87520, Note Name: A#3, Velocity: 28
Note OFF: Time 87680, Note Name: A#3
Note ON: Time 87680, Note Name: A#2, Velocity: 26
Note OFF: Time 87840, Note Name: A#2
Note ON: Time 87840, Note Name: D#2, Velocity: 32
Note OFF: Time 88000, Note Name: D#2
Note ON: Time 88000, Note Name: A#3, Velocity: 27
Note OFF: Time 88160, Note Name: A#3
Note ON: Time 88160, Note Name: A#2, Velocity: 28
Note OFF: Time 88320, Note Name: A#2
Note ON: Time 88320, Note Name: D#2, Velocity: 39
Note OFF: Time 88480, Note Name: D#2
Note ON: Time 88480, Note Name: A#3, Velocity: 29
Note OFF: Time 88640, Note Name: A#3
Note ON: Time 88640, Note Name: A#2, Velocity: 32
Note OFF: Time 88800, Note Name: A#2
Note ON: Time 88800, Note Name: D#2, Velocity: 45
Note OFF: Time 88960, Note Name: D#2
Note ON: Time 88960, Note Name: A#3, Velocity: 35
Note OFF: Time 89120, Note Name: A#3
Note ON: Time 89120, Note Name: D#3, Velocity: 37
Note OFF: Time 89280, Note Name: D#3
Note ON: Time 89280, Note Name: G1, Velocity: 43
Note OFF: Time 89440, Note Name: G1
Note ON: Time 89440, Note Name: B3, Velocity: 30
Note OFF: Time 89600, Note Name: B3
Note ON: Time 89600, Note Name: F3, Velocity: 30
Note OFF: Time 89760, Note Name: F3
Note ON: Time 89760, Note Name: G2, Velocity: 45
Note OFF: Time 89920, Note Name: G2
Note ON: Time 89920, Note Name: B3, Velocity: 35
Note OFF: Time 90080, Note Name: B3
Note ON: Time 90080, Note Name: F3, Velocity: 33
Note OFF: Time 90240, Note Name: F3
Note ON: Time 90240, Note Name: G#2, Velocity: 45
Note OFF: Time 90400, Note Name: G#2
Note ON: Time 90400, Note Name: B3, Velocity: 31
Note OFF: Time 90560, Note Name: B3
Note ON: Time 90560, Note Name: E3, Velocity: 30
Note ON: Time 90720, Note Name: A2, Velocity: 45
Note OFF: Time 90880, Note Name: A2
Note ON: Time 90880, Note Name: C#4, Velocity: 34
Note OFF: Time 91033, Note Name: E3
Note OFF: Time 91040, Note Name: C#4
Note ON: Time 91040, Note Name: E3, Velocity: 34
Note ON: Time 91200, Note Name: A2, Velocity: 41
Note OFF: Time 91360, Note Name: A2
Note ON: Time 91360, Note Name: C4, Velocity: 32
Note OFF: Time 91520, Note Name: C4
Note OFF: Time 91520, Note Name: E3
Note ON: Time 91520, Note Name: F3, Velocity: 31
Note ON: Time 91680, Note Name: A2, Velocity: 35
Note OFF: Time 91840, Note Name: A2
Note ON: Time 91840, Note Name: D#4, Velocity: 29
Note OFF: Time 92000, Note Name: D#4
Note OFF: Time 92000, Note Name: F3
Note ON: Time 92000, Note Name: F#3, Velocity: 28
Note ON: Time 92160, Note Name: A#2, Velocity: 37
Note OFF: Time 92320, Note Name: A#2
Note ON: Time 92320, Note Name: D#4, Velocity: 30
Note OFF: Time 92480, Note Name: D#4
Note OFF: Time 92480, Note Name: F#3
Note ON: Time 92480, Note Name: F#3, Velocity: 30
Note OFF: Time 92640, Note Name: F#3
Note ON: Time 92640, Note Name: A#2, Velocity: 34
Note OFF: Time 92800, Note Name: A#2
Note ON: Time 92800, Note Name: D#4, Velocity: 28
Note OFF: Time 92960, Note Name: D#4
Note ON: Time 92960, Note Name: G3, Velocity: 28
Note OFF: Time 93120, Note Name: G3
Note ON: Time 93120, Note Name: A#1, Velocity: 32
Note OFF: Time 93280, Note Name: A#1
Note ON: Time 93280, Note Name: G#3, Velocity: 27
Note OFF: Time 93440, Note Name: G#3
Note ON: Time 93440, Note Name: A#2, Velocity: 26
Note OFF: Time 93600, Note Name: A#2
Note ON: Time 93600, Note Name: D#2, Velocity: 32
Note OFF: Time 93760, Note Name: D#2
Note ON: Time 93760, Note Name: G3, Velocity: 27
Note OFF: Time 93920, Note Name: G3
Note ON: Time 93920, Note Name: A#2, Velocity: 27
Note OFF: Time 94080, Note Name: A#2
Note ON: Time 94080, Note Name: D#2, Velocity: 45
Note OFF: Time 94240, Note Name: D#2
Note ON: Time 94240, Note Name: A#3, Velocity: 27
Note OFF: Time 94400, Note Name: A#3
Note ON: Time 94400, Note Name: A#2, Velocity: 29
Note OFF: Time 94560, Note Name: A#2
Note ON: Time 94560, Note Name: D#2, Velocity: 39
Note OFF: Time 94720, Note Name: D#2
Note ON: Time 94720, Note Name: G3, Velocity: 28
Note OFF: Time 94880, Note Name: G3
Note ON: Time 94880, Note Name: A#2, Velocity: 28
Note OFF: Time 95040, Note Name: A#2
Note ON: Time 95040, Note Name: D#2, Velocity: 48
Note OFF: Time 95200, Note Name: D#2
Note ON: Time 95200, Note Name: A#3, Velocity: 31
Note OFF: Time 95360, Note Name: A#3
Note ON: Time 95360, Note Name: A#2, Velocity: 31
Note OFF: Time 95520, Note Name: A#2
Note ON: Time 95520, Note Name: D#2, Velocity: 43
Note OFF: Time 95680, Note Name: D#2
Note ON: Time 95680, Note Name: G3, Velocity: 31
Note OFF: Time 95840, Note Name: G3
Note ON: Time 95840, Note Name: A#2, Velocity: 30
Note OFF: Time 96000, Note Name: A#2
Note ON: Time 96000, Note Name: D#2, Velocity: 52
Note OFF: Time 96160, Note Name: D#2
Note ON: Time 96160, Note Name: A#3, Velocity: 31
Note OFF: Time 96320, Note Name: A#3
Note ON: Time 96320, Note Name: A#2, Velocity: 30
Note OFF: Time 96480, Note Name: A#2
Note ON: Time 96480, Note Name: D#2, Velocity: 44
Note OFF: Time 96640, Note Name: D#2
Note ON: Time 96640, Note Name: G3, Velocity: 32
Note OFF: Time 96800, Note Name: G3
Note ON: Time 96800, Note Name: A#2, Velocity: 32
Note OFF: Time 96960, Note Name: A#2
Note ON: Time 96960, Note Name: D#2, Velocity: 48
Note OFF: Time 97120, Note Name: D#2
Note ON: Time 97120, Note Name: A#3, Velocity: 31
Note OFF: Time 97280, Note Name: A#3
Note ON: Time 97280, Note Name: A#2, Velocity: 33
Note OFF: Time 97440, Note Name: A#2
Note ON: Time 97440, Note Name: D#2, Velocity: 44
Note OFF: Time 97600, Note Name: D#2
Note ON: Time 97600, Note Name: G3, Velocity: 31
Note OFF: Time 97760, Note Name: G3
Note ON: Time 97760, Note Name: A#2, Velocity: 36
Note OFF: Time 97920, Note Name: A#2
Note ON: Time 97920, Note Name: D#2, Velocity: 52
Note OFF: Time 98080, Note Name: D#2
Note ON: Time 98080, Note Name: A#3, Velocity: 34
Note OFF: Time 98240, Note Name: A#3
Note ON: Time 98240, Note Name: A#2, Velocity: 33
Note OFF: Time 98400, Note Name: A#2
Note ON: Time 98400, Note Name: D#2, Velocity: 42
Note OFF: Time 98560, Note Name: D#2
Note ON: Time 98560, Note Name: G3, Velocity: 29
Note OFF: Time 98720, Note Name: G3
Note ON: Time 98720, Note Name: A#2, Velocity: 29
Note OFF: Time 98880, Note Name: A#2
Note ON: Time 98880, Note Name: D#2, Velocity: 38
Note OFF: Time 99040, Note Name: D#2
Note ON: Time 99040, Note Name: A#3, Velocity: 29
Note OFF: Time 99200, Note Name: A#3
Note ON: Time 99200, Note Name: A#2, Velocity: 27
Note OFF: Time 99360, Note Name: A#2
Note ON: Time 99360, Note Name: D#2, Velocity: 33
Note OFF: Time 99840, Note Name: D#2
Note ON: Time 100800, Note Name: G4, Velocity: 69
Note ON: Time 100800, Note Name: A#4, Velocity: 73
Note ON: Time 100800, Note Name: D#5, Velocity: 73
Note ON: Time 100800, Note Name: G5, Velocity: 88
Note OFF: Time 101280, Note Name: G5
Note OFF: Time 101280, Note Name: G4
Note OFF: Time 101280, Note Name: A#4
Note OFF: Time 101280, Note Name: D#5
Note ON: Time 102240, Note Name: D#2, Velocity: 67
Note ON: Time 102240, Note Name: A#2, Velocity: 67
Note ON: Time 102240, Note Name: D#3, Velocity: 79
Note OFF: Time 103680, Note Name: D#3
Note OFF: Time 103680, Note Name: A#2
Note OFF: Time 103680, Note Name: D#2
Track 3: Chopin: Prelude No.19 in Eb Major Op. 28
Track 4: Copyright  2002 by Bernd Krueger
Track 5: http://www.piano-midi.de
Track 6: Edition: 2014-02-22
Track 7: Spur 7
