Processing chpn-p15.mid...

Track 0: Chopin Prelude  No. 15, Opus 28
Track 1: Piano right
Note ON: Time 0, Note Name: F5, Velocity: 49
Note OFF: Time 360, Note Name: F5
Note ON: Time 360, Note Name: C#5, Velocity: 44
Note OFF: Time 480, Note Name: C#5
Note ON: Time 480, Note Name: G#4, Velocity: 47
Note OFF: Time 1440, Note Name: G#4
Note ON: Time 1440, Note Name: A#4, Velocity: 50
Note OFF: Time 1920, Note Name: A#4
Note ON: Time 1920, Note Name: C5, Velocity: 49
Note OFF: Time 3360, Note Name: C5
Note ON: Time 3360, Note Name: C#5, Velocity: 51
Note OFF: Time 3840, Note Name: C#5
Note ON: Time 3840, Note Name: F#4, Velocity: 45
Note ON: Time 3840, Note Name: D#5, Velocity: 54
Note ON: Time 3840, Note Name: C4, Velocity: 45
Note OFF: Time 4200, Note Name: D#5
Note OFF: Time 4200, Note Name: F#4
Note ON: Time 4200, Note Name: G#4, Velocity: 47
Note ON: Time 4200, Note Name: F5, Velocity: 56
Note OFF: Time 4320, Note Name: F5
Note OFF: Time 4320, Note Name: G#4
Note ON: Time 4320, Note Name: F#5, Velocity: 57
Note ON: Time 4320, Note Name: A#4, Velocity: 49
Note OFF: Time 5280, Note Name: A#4
Note OFF: Time 5280, Note Name: F#5
Note OFF: Time 5280, Note Name: C4
Note ON: Time 5280, Note Name: C#4, Velocity: 44
Note ON: Time 5280, Note Name: G#4, Velocity: 44
Note ON: Time 5280, Note Name: F5, Velocity: 53
Note OFF: Time 5520, Note Name: G#4
Note OFF: Time 5520, Note Name: C#4
Note OFF: Time 5760, Note Name: F5
Note ON: Time 5760, Note Name: G#4, Velocity: 44
Note ON: Time 5760, Note Name: F5, Velocity: 53
Note ON: Time 5760, Note Name: C4, Velocity: 42
Note OFF: Time 6000, Note Name: G#4
Note ON: Time 6240, Note Name: F#4, Velocity: 34
Note OFF: Time 6480, Note Name: F#4
Note OFF: Time 6480, Note Name: F5
Note ON: Time 6480, Note Name: D#5, Velocity: 49
Note OFF: Time 6720, Note Name: D#5
Note OFF: Time 6720, Note Name: C4
Note ON: Time 6720, Note Name: C#5, Velocity: 46
Note OFF: Time 7140, Note Name: C#5
Note ON: Time 7140, Note Name: D#5, Velocity: 45
Note OFF: Time 7200, Note Name: D#5
Note ON: Time 7200, Note Name: D#5, Velocity: 51
Note OFF: Time 7268, Note Name: D#5
Note ON: Time 7268, Note Name: F5, Velocity: 46
Note OFF: Time 7336, Note Name: F5
Note ON: Time 7336, Note Name: D#5, Velocity: 46
Note OFF: Time 7404, Note Name: D#5
Note ON: Time 7404, Note Name: D5, Velocity: 51
Note OFF: Time 7472, Note Name: D5
Note ON: Time 7472, Note Name: D#5, Velocity: 46
Note OFF: Time 7540, Note Name: D#5
Note ON: Time 7540, Note Name: F5, Velocity: 46
Note OFF: Time 7608, Note Name: F5
Note ON: Time 7608, Note Name: F#5, Velocity: 46
Note OFF: Time 7680, Note Name: F#5
Note ON: Time 7680, Note Name: F5, Velocity: 49
Note OFF: Time 8040, Note Name: F5
Note ON: Time 8040, Note Name: C#5, Velocity: 44
Note OFF: Time 8160, Note Name: C#5
Note ON: Time 8160, Note Name: G#4, Velocity: 46
Note OFF: Time 9120, Note Name: G#4
Note ON: Time 9120, Note Name: A#4, Velocity: 50
Note OFF: Time 9600, Note Name: A#4
Note ON: Time 9600, Note Name: C5, Velocity: 49
Note OFF: Time 11040, Note Name: C5
Note ON: Time 11040, Note Name: C#5, Velocity: 51
Note OFF: Time 11520, Note Name: C#5
Note ON: Time 11520, Note Name: F#4, Velocity: 45
Note ON: Time 11520, Note Name: D#5, Velocity: 54
Note ON: Time 11520, Note Name: C4, Velocity: 45
Note OFF: Time 11880, Note Name: D#5
Note OFF: Time 11880, Note Name: F#4
Note ON: Time 11880, Note Name: G#4, Velocity: 47
Note ON: Time 11880, Note Name: F5, Velocity: 56
Note OFF: Time 12000, Note Name: F5
Note OFF: Time 12000, Note Name: G#4
Note ON: Time 12000, Note Name: F#5, Velocity: 57
Note ON: Time 12000, Note Name: A#4, Velocity: 49
Note OFF: Time 12960, Note Name: A#4
Note OFF: Time 12960, Note Name: F#5
Note OFF: Time 12960, Note Name: C4
Note ON: Time 12960, Note Name: C#4, Velocity: 40
Note ON: Time 12960, Note Name: G#4, Velocity: 44
Note ON: Time 12960, Note Name: F5, Velocity: 53
Note OFF: Time 13200, Note Name: G#4
Note OFF: Time 13200, Note Name: C#4
Note OFF: Time 13440, Note Name: F5
Note ON: Time 13440, Note Name: G#4, Velocity: 44
Note ON: Time 13440, Note Name: F5, Velocity: 53
Note ON: Time 13440, Note Name: C4, Velocity: 44
Note OFF: Time 13680, Note Name: G#4
Note ON: Time 13920, Note Name: F#4, Velocity: 34
Note OFF: Time 14160, Note Name: F#4
Note OFF: Time 14160, Note Name: F5
Note ON: Time 14160, Note Name: D#5, Velocity: 49
Note OFF: Time 14400, Note Name: D#5
Note OFF: Time 14400, Note Name: C4
Note ON: Time 14400, Note Name: C#5, Velocity: 46
Note OFF: Time 14880, Note Name: C#5
Note ON: Time 14880, Note Name: C5, Velocity: 51
Note OFF: Time 15120, Note Name: C5
Note ON: Time 15120, Note Name: C#5, Velocity: 49
Note OFF: Time 15360, Note Name: C#5
Note ON: Time 15360, Note Name: D#5, Velocity: 54
Note OFF: Time 15840, Note Name: D#5
Note ON: Time 15840, Note Name: D#5, Velocity: 54
Note OFF: Time 16800, Note Name: D#5
Note ON: Time 16800, Note Name: F5, Velocity: 54
Note OFF: Time 17280, Note Name: F5
Note ON: Time 17280, Note Name: F#5, Velocity: 57
Note OFF: Time 17520, Note Name: F#5
Note ON: Time 17520, Note Name: F5, Velocity: 53
Note OFF: Time 17760, Note Name: F5
Note ON: Time 17760, Note Name: D#5, Velocity: 53
Note OFF: Time 18000, Note Name: D#5
Note ON: Time 18000, Note Name: C#5, Velocity: 53
Note OFF: Time 18240, Note Name: C#5
Note ON: Time 18240, Note Name: F5, Velocity: 55
Note OFF: Time 19200, Note Name: F5
Note ON: Time 19200, Note Name: D#5, Velocity: 57
Note OFF: Time 19440, Note Name: D#5
Note ON: Time 19440, Note Name: B4, Velocity: 51
Note OFF: Time 19680, Note Name: B4
Note ON: Time 19680, Note Name: A#4, Velocity: 54
Note OFF: Time 19920, Note Name: A#4
Note ON: Time 19920, Note Name: G#4, Velocity: 54
Note OFF: Time 20160, Note Name: G#4
Note ON: Time 20160, Note Name: A#4, Velocity: 59
Note ON: Time 20520, Note Name: B4, Velocity: 51
Note OFF: Time 20560, Note Name: B4
Note ON: Time 20560, Note Name: A#4, Velocity: 51
Note OFF: Time 20580, Note Name: A#4
Note OFF: Time 20600, Note Name: A#4
Note ON: Time 20600, Note Name: G#4, Velocity: 51
Note OFF: Time 20640, Note Name: G#4
Note ON: Time 20640, Note Name: A#4, Velocity: 54
Note OFF: Time 21000, Note Name: A#4
Note ON: Time 21000, Note Name: B4, Velocity: 47
Note OFF: Time 21120, Note Name: B4
Note ON: Time 21120, Note Name: G#4, Velocity: 51
Note OFF: Time 21600, Note Name: G#4
Note ON: Time 21600, Note Name: D#5, Velocity: 62
Note OFF: Time 22080, Note Name: D#5
Note ON: Time 22080, Note Name: C#5, Velocity: 65
Note OFF: Time 22560, Note Name: C#5
Note ON: Time 22560, Note Name: E5, Velocity: 59
Note OFF: Time 23040, Note Name: E5
Note ON: Time 23040, Note Name: D#5, Velocity: 63
Note OFF: Time 23520, Note Name: D#5
Note ON: Time 23520, Note Name: D#5, Velocity: 56
Note OFF: Time 24480, Note Name: D#5
Note ON: Time 24480, Note Name: F5, Velocity: 57
Note OFF: Time 24960, Note Name: F5
Note ON: Time 24960, Note Name: F#5, Velocity: 63
Note OFF: Time 25200, Note Name: F#5
Note ON: Time 25200, Note Name: F5, Velocity: 54
Note OFF: Time 25440, Note Name: F5
Note ON: Time 25440, Note Name: D#5, Velocity: 54
Note OFF: Time 25680, Note Name: D#5
Note ON: Time 25680, Note Name: C#5, Velocity: 54
Note OFF: Time 25920, Note Name: C#5
Note ON: Time 25920, Note Name: F5, Velocity: 51
Note OFF: Time 27120, Note Name: F5
Note ON: Time 27120, Note Name: C#5, Velocity: 54
Note OFF: Time 27360, Note Name: C#5
Note ON: Time 27360, Note Name: C5, Velocity: 54
Note OFF: Time 27600, Note Name: C5
Note ON: Time 27600, Note Name: A#4, Velocity: 54
Note OFF: Time 27840, Note Name: A#4
Note ON: Time 27840, Note Name: C5, Velocity: 59
Note ON: Time 28200, Note Name: C#5, Velocity: 52
Note OFF: Time 28240, Note Name: C#5
Note ON: Time 28240, Note Name: C5, Velocity: 52
Note OFF: Time 28260, Note Name: C5
Note OFF: Time 28280, Note Name: C5
Note ON: Time 28280, Note Name: A#4, Velocity: 53
Note OFF: Time 28320, Note Name: A#4
Note ON: Time 28320, Note Name: C5, Velocity: 55
Note OFF: Time 28560, Note Name: C5
Note ON: Time 28560, Note Name: C#5, Velocity: 51
Note OFF: Time 28800, Note Name: C#5
Note ON: Time 28800, Note Name: A#4, Velocity: 51
Note OFF: Time 29280, Note Name: A#4
Note ON: Time 29280, Note Name: F5, Velocity: 59
Note OFF: Time 29760, Note Name: F5
Note ON: Time 29760, Note Name: D#5, Velocity: 59
Note OFF: Time 30240, Note Name: D#5
Note ON: Time 30240, Note Name: F#5, Velocity: 63
Note OFF: Time 30720, Note Name: F#5
Note ON: Time 30720, Note Name: F5, Velocity: 57
Note OFF: Time 30960, Note Name: F5
Note ON: Time 30960, Note Name: C#5, Velocity: 53
Note OFF: Time 31200, Note Name: C#5
Note ON: Time 31200, Note Name: C5, Velocity: 53
Note OFF: Time 31440, Note Name: C5
Note ON: Time 31440, Note Name: A#4, Velocity: 53
Note OFF: Time 31680, Note Name: A#4
Note ON: Time 31680, Note Name: C5, Velocity: 59
Note ON: Time 32040, Note Name: C#5, Velocity: 55
Note OFF: Time 32080, Note Name: C#5
Note ON: Time 32080, Note Name: C5, Velocity: 55
Note OFF: Time 32100, Note Name: C5
Note OFF: Time 32120, Note Name: C5
Note ON: Time 32120, Note Name: A#4, Velocity: 55
Note OFF: Time 32160, Note Name: A#4
Note ON: Time 32160, Note Name: C5, Velocity: 55
Note OFF: Time 32520, Note Name: C5
Note ON: Time 32520, Note Name: C#5, Velocity: 51
Note OFF: Time 32640, Note Name: C#5
Note ON: Time 32640, Note Name: A#4, Velocity: 51
Note OFF: Time 33120, Note Name: A#4
Note ON: Time 33120, Note Name: D#5, Velocity: 62
Note OFF: Time 33600, Note Name: D#5
Note ON: Time 33600, Note Name: F5, Velocity: 65
Note OFF: Time 34080, Note Name: F5
Note ON: Time 34080, Note Name: D#5, Velocity: 62
Note OFF: Time 34560, Note Name: D#5
Note ON: Time 34560, Note Name: F5, Velocity: 66
Note OFF: Time 36000, Note Name: F5
Note ON: Time 36000, Note Name: D#5, Velocity: 51
Note OFF: Time 36480, Note Name: D#5
Note ON: Time 36480, Note Name: F5, Velocity: 49
Note OFF: Time 36840, Note Name: F5
Note ON: Time 36840, Note Name: C#5, Velocity: 45
Note OFF: Time 36960, Note Name: C#5
Note ON: Time 36960, Note Name: G#4, Velocity: 49
Note OFF: Time 37920, Note Name: G#4
Note ON: Time 37920, Note Name: A#4, Velocity: 49
Note OFF: Time 38400, Note Name: A#4
Note ON: Time 38400, Note Name: C5, Velocity: 49
Note OFF: Time 39840, Note Name: C5
Note ON: Time 39840, Note Name: C#5, Velocity: 51
Note OFF: Time 40320, Note Name: C#5
Note ON: Time 40320, Note Name: C4, Velocity: 45
Note ON: Time 40320, Note Name: F#4, Velocity: 45
Note ON: Time 40320, Note Name: D#5, Velocity: 54
Note OFF: Time 40680, Note Name: D#5
Note OFF: Time 40680, Note Name: F#4
Note ON: Time 40680, Note Name: F5, Velocity: 56
Note ON: Time 40680, Note Name: G#4, Velocity: 47
Note OFF: Time 40800, Note Name: G#4
Note OFF: Time 40800, Note Name: F5
Note ON: Time 40800, Note Name: A#4, Velocity: 49
Note ON: Time 40800, Note Name: F#5, Velocity: 57
Note OFF: Time 41760, Note Name: F#5
Note OFF: Time 41760, Note Name: A#4
Note OFF: Time 41760, Note Name: C4
Note ON: Time 41760, Note Name: C#4, Velocity: 44
Note ON: Time 41760, Note Name: F5, Velocity: 53
Note ON: Time 41760, Note Name: G#4, Velocity: 44
Note OFF: Time 42000, Note Name: G#4
Note OFF: Time 42000, Note Name: C#4
Note OFF: Time 42240, Note Name: F5
Note ON: Time 42240, Note Name: C4, Velocity: 44
Note ON: Time 42240, Note Name: G#4, Velocity: 44
Note ON: Time 42240, Note Name: F5, Velocity: 53
Note OFF: Time 42480, Note Name: G#4
Note OFF: Time 42480, Note Name: C4
Note ON: Time 42720, Note Name: F#4, Velocity: 34
Note ON: Time 42720, Note Name: C4, Velocity: 40
Note OFF: Time 42960, Note Name: C4
Note OFF: Time 42960, Note Name: F#4
Note OFF: Time 42960, Note Name: F5
Note ON: Time 42960, Note Name: D#5, Velocity: 49
Note OFF: Time 43200, Note Name: D#5
Note ON: Time 43200, Note Name: C#5, Velocity: 46
Note OFF: Time 43680, Note Name: C#5
Note ON: Time 43680, Note Name: D5, Velocity: 51
Note OFF: Time 43748, Note Name: D5
Note ON: Time 43748, Note Name: D#5, Velocity: 50
Note OFF: Time 43816, Note Name: D#5
Note ON: Time 43816, Note Name: E5, Velocity: 52
Note OFF: Time 43884, Note Name: E5
Note ON: Time 43884, Note Name: F5, Velocity: 56
Note OFF: Time 43952, Note Name: F5
Note ON: Time 43952, Note Name: G#5, Velocity: 54
Note OFF: Time 44020, Note Name: G#5
Note ON: Time 44020, Note Name: G5, Velocity: 53
Note OFF: Time 44088, Note Name: G5
Note ON: Time 44088, Note Name: F#5, Velocity: 52
Note OFF: Time 44160, Note Name: F#5
Note ON: Time 44160, Note Name: F5, Velocity: 49
Note OFF: Time 44520, Note Name: F5
Note ON: Time 44520, Note Name: C#5, Velocity: 44
Note OFF: Time 44640, Note Name: C#5
Note ON: Time 44640, Note Name: G#4, Velocity: 46
Note OFF: Time 45600, Note Name: G#4
Note ON: Time 45600, Note Name: A#4, Velocity: 48
Note OFF: Time 46080, Note Name: A#4
Note ON: Time 46080, Note Name: C5, Velocity: 49
Note OFF: Time 47520, Note Name: C5
Note ON: Time 47520, Note Name: C#5, Velocity: 51
Note OFF: Time 48000, Note Name: C#5
Note ON: Time 48000, Note Name: C4, Velocity: 45
Note ON: Time 48000, Note Name: F#4, Velocity: 45
Note ON: Time 48000, Note Name: D#5, Velocity: 54
Note OFF: Time 48360, Note Name: D#5
Note OFF: Time 48360, Note Name: F#4
Note ON: Time 48360, Note Name: F5, Velocity: 56
Note ON: Time 48360, Note Name: G#4, Velocity: 47
Note OFF: Time 48480, Note Name: G#4
Note OFF: Time 48480, Note Name: F5
Note ON: Time 48480, Note Name: A#4, Velocity: 49
Note ON: Time 48480, Note Name: F#5, Velocity: 57
Note OFF: Time 49440, Note Name: F#5
Note OFF: Time 49440, Note Name: A#4
Note OFF: Time 49440, Note Name: C4
Note ON: Time 49440, Note Name: D#4, Velocity: 39
Note ON: Time 49440, Note Name: C5, Velocity: 46
Note OFF: Time 49680, Note Name: D#4
Note OFF: Time 49920, Note Name: C5
Note ON: Time 49920, Note Name: D#5, Velocity: 46
Note ON: Time 49920, Note Name: F#4, Velocity: 39
Note OFF: Time 50880, Note Name: F#4
Note OFF: Time 50880, Note Name: D#5
Note ON: Time 51840, Note Name: G#3, Velocity: 31
Note OFF: Time 52068, Note Name: G#3
Note ON: Time 52080, Note Name: G#3, Velocity: 30
Note OFF: Time 52308, Note Name: G#3
Note ON: Time 52320, Note Name: G#3, Velocity: 31
Note OFF: Time 52548, Note Name: G#3
Note ON: Time 52560, Note Name: G#3, Velocity: 32
Note OFF: Time 52788, Note Name: G#3
Note ON: Time 52800, Note Name: G#3, Velocity: 35
Note OFF: Time 53028, Note Name: G#3
Note ON: Time 53040, Note Name: G#3, Velocity: 33
Note OFF: Time 53268, Note Name: G#3
Note ON: Time 53280, Note Name: G#3, Velocity: 31
Note OFF: Time 53508, Note Name: G#3
Note ON: Time 53520, Note Name: G#3, Velocity: 31
Note OFF: Time 53748, Note Name: G#3
Note ON: Time 53760, Note Name: G#3, Velocity: 39
Note OFF: Time 53988, Note Name: G#3
Note ON: Time 54000, Note Name: G#3, Velocity: 36
Note OFF: Time 54228, Note Name: G#3
Note ON: Time 54240, Note Name: G#3, Velocity: 37
Note OFF: Time 54468, Note Name: G#3
Note ON: Time 54480, Note Name: G#3, Velocity: 37
Note OFF: Time 54708, Note Name: G#3
Note ON: Time 54720, Note Name: G#3, Velocity: 45
Note OFF: Time 54948, Note Name: G#3
Note ON: Time 54960, Note Name: G#3, Velocity: 38
Note OFF: Time 55188, Note Name: G#3
Note ON: Time 55200, Note Name: G#3, Velocity: 35
Note OFF: Time 55428, Note Name: G#3
Note ON: Time 55440, Note Name: G#3, Velocity: 36
Note OFF: Time 55668, Note Name: G#3
Note ON: Time 55680, Note Name: G#3, Velocity: 49
Note OFF: Time 55908, Note Name: G#3
Note ON: Time 55920, Note Name: G#3, Velocity: 42
Note OFF: Time 56148, Note Name: G#3
Note ON: Time 56160, Note Name: G#3, Velocity: 42
Note OFF: Time 56388, Note Name: G#3
Note ON: Time 56400, Note Name: G#3, Velocity: 42
Note OFF: Time 56628, Note Name: G#3
Note ON: Time 56640, Note Name: G#3, Velocity: 49
Note OFF: Time 56868, Note Name: G#3
Note ON: Time 56880, Note Name: G#3, Velocity: 40
Note OFF: Time 57108, Note Name: G#3
Note ON: Time 57120, Note Name: G#3, Velocity: 39
Note OFF: Time 57348, Note Name: G#3
Note ON: Time 57360, Note Name: G#3, Velocity: 39
Note OFF: Time 57588, Note Name: G#3
Note ON: Time 57600, Note Name: G#3, Velocity: 49
Note OFF: Time 57828, Note Name: G#3
Note ON: Time 57840, Note Name: G#3, Velocity: 40
Note OFF: Time 58068, Note Name: G#3
Note ON: Time 58080, Note Name: G#3, Velocity: 42
Note OFF: Time 58308, Note Name: G#3
Note ON: Time 58320, Note Name: G#3, Velocity: 41
Note OFF: Time 58548, Note Name: G#3
Note ON: Time 58560, Note Name: G#3, Velocity: 42
Note OFF: Time 58788, Note Name: G#3
Note ON: Time 58800, Note Name: G#3, Velocity: 41
Note OFF: Time 59028, Note Name: G#3
Note ON: Time 59040, Note Name: G#3, Velocity: 40
Note OFF: Time 59268, Note Name: G#3
Note ON: Time 59280, Note Name: G#3, Velocity: 40
Note OFF: Time 59508, Note Name: G#3
Note ON: Time 59520, Note Name: G#3, Velocity: 44
Note OFF: Time 59748, Note Name: G#3
Note ON: Time 59760, Note Name: G#3, Velocity: 39
Note OFF: Time 59988, Note Name: G#3
Note ON: Time 60000, Note Name: G#3, Velocity: 39
Note OFF: Time 60228, Note Name: G#3
Note ON: Time 60240, Note Name: G#3, Velocity: 37
Note OFF: Time 60468, Note Name: G#3
Note ON: Time 60480, Note Name: G#3, Velocity: 41
Note OFF: Time 60708, Note Name: G#3
Note ON: Time 60720, Note Name: G#3, Velocity: 37
Note OFF: Time 60948, Note Name: G#3
Note ON: Time 60960, Note Name: G#3, Velocity: 35
Note OFF: Time 61188, Note Name: G#3
Note ON: Time 61200, Note Name: G#3, Velocity: 35
Note OFF: Time 61428, Note Name: G#3
Note ON: Time 61440, Note Name: G#3, Velocity: 40
Note OFF: Time 61668, Note Name: G#3
Note ON: Time 61680, Note Name: G#3, Velocity: 35
Note OFF: Time 61908, Note Name: G#3
Note ON: Time 61920, Note Name: G#3, Velocity: 35
Note OFF: Time 62148, Note Name: G#3
Note ON: Time 62160, Note Name: G#3, Velocity: 31
Note OFF: Time 62388, Note Name: G#3
Note ON: Time 62400, Note Name: G#3, Velocity: 38
Note OFF: Time 62628, Note Name: G#3
Note ON: Time 62640, Note Name: G#3, Velocity: 35
Note OFF: Time 62868, Note Name: G#3
Note ON: Time 62880, Note Name: G#3, Velocity: 35
Note OFF: Time 63108, Note Name: G#3
Note ON: Time 63120, Note Name: G#3, Velocity: 33
Note OFF: Time 63348, Note Name: G#3
Note ON: Time 63360, Note Name: G#3, Velocity: 38
Note OFF: Time 63588, Note Name: G#3
Note ON: Time 63600, Note Name: G#3, Velocity: 40
Note OFF: Time 63828, Note Name: G#3
Note ON: Time 63840, Note Name: G#3, Velocity: 41
Note OFF: Time 64068, Note Name: G#3
Note ON: Time 64080, Note Name: G#3, Velocity: 44
Note OFF: Time 64308, Note Name: G#3
Note ON: Time 64320, Note Name: G#3, Velocity: 46
Note OFF: Time 64548, Note Name: G#3
Note ON: Time 64560, Note Name: G#3, Velocity: 48
Note OFF: Time 64788, Note Name: G#3
Note ON: Time 64800, Note Name: G#3, Velocity: 49
Note OFF: Time 65028, Note Name: G#3
Note ON: Time 65040, Note Name: G#3, Velocity: 51
Note OFF: Time 65268, Note Name: G#3
Note ON: Time 65280, Note Name: G#3, Velocity: 53
Note OFF: Time 65508, Note Name: G#3
Note ON: Time 65520, Note Name: G#4, Velocity: 53
Note ON: Time 65520, Note Name: G#3, Velocity: 45
Note OFF: Time 65748, Note Name: G#3
Note OFF: Time 65748, Note Name: G#4
Note ON: Time 65760, Note Name: G#4, Velocity: 55
Note ON: Time 65760, Note Name: G#3, Velocity: 46
Note OFF: Time 65988, Note Name: G#3
Note OFF: Time 65988, Note Name: G#4
Note ON: Time 66000, Note Name: G#4, Velocity: 56
Note ON: Time 66000, Note Name: G#3, Velocity: 47
Note OFF: Time 66228, Note Name: G#3
Note OFF: Time 66228, Note Name: G#4
Note ON: Time 66240, Note Name: G#4, Velocity: 57
Note ON: Time 66240, Note Name: G#3, Velocity: 48
Note OFF: Time 66468, Note Name: G#3
Note OFF: Time 66468, Note Name: G#4
Note ON: Time 66480, Note Name: G#4, Velocity: 59
Note ON: Time 66480, Note Name: G#3, Velocity: 49
Note OFF: Time 66708, Note Name: G#3
Note OFF: Time 66708, Note Name: G#4
Note ON: Time 66720, Note Name: G#4, Velocity: 60
Note ON: Time 66720, Note Name: G#3, Velocity: 50
Note OFF: Time 66948, Note Name: G#3
Note OFF: Time 66948, Note Name: G#4
Note ON: Time 66960, Note Name: G#4, Velocity: 61
Note ON: Time 66960, Note Name: G#3, Velocity: 51
Note OFF: Time 67188, Note Name: G#3
Note OFF: Time 67188, Note Name: G#4
Note ON: Time 67200, Note Name: G#4, Velocity: 61
Note ON: Time 67200, Note Name: G#3, Velocity: 51
Note OFF: Time 67428, Note Name: G#3
Note OFF: Time 67428, Note Name: G#4
Note ON: Time 67440, Note Name: G#4, Velocity: 59
Note ON: Time 67440, Note Name: G#3, Velocity: 49
Note OFF: Time 67668, Note Name: G#3
Note OFF: Time 67668, Note Name: G#4
Note ON: Time 67680, Note Name: G#4, Velocity: 59
Note ON: Time 67680, Note Name: G#3, Velocity: 49
Note OFF: Time 67908, Note Name: G#3
Note OFF: Time 67908, Note Name: G#4
Note ON: Time 67920, Note Name: G#4, Velocity: 59
Note ON: Time 67920, Note Name: G#3, Velocity: 49
Note OFF: Time 68148, Note Name: G#3
Note OFF: Time 68148, Note Name: G#4
Note ON: Time 68160, Note Name: C#4, Velocity: 67
Note ON: Time 68160, Note Name: G#4, Velocity: 61
Note ON: Time 68160, Note Name: G#3, Velocity: 52
Note OFF: Time 68388, Note Name: G#3
Note OFF: Time 68388, Note Name: G#4
Note ON: Time 68400, Note Name: G#4, Velocity: 60
Note ON: Time 68400, Note Name: G#3, Velocity: 50
Note OFF: Time 68628, Note Name: G#3
Note OFF: Time 68628, Note Name: G#4
Note OFF: Time 68640, Note Name: C#4
Note ON: Time 68640, Note Name: C4, Velocity: 59
Note ON: Time 68640, Note Name: G#4, Velocity: 58
Note ON: Time 68640, Note Name: G#3, Velocity: 48
Note OFF: Time 68868, Note Name: G#3
Note OFF: Time 68868, Note Name: G#4
Note ON: Time 68880, Note Name: G#4, Velocity: 58
Note ON: Time 68880, Note Name: G#3, Velocity: 48
Note OFF: Time 69108, Note Name: G#3
Note OFF: Time 69108, Note Name: G#4
Note OFF: Time 69120, Note Name: C4
Note ON: Time 69120, Note Name: G#4, Velocity: 64
Note ON: Time 69120, Note Name: G#3, Velocity: 55
Note OFF: Time 69348, Note Name: G#3
Note OFF: Time 69348, Note Name: G#4
Note ON: Time 69360, Note Name: G#4, Velocity: 61
Note ON: Time 69360, Note Name: G#3, Velocity: 51
Note OFF: Time 69588, Note Name: G#3
Note OFF: Time 69588, Note Name: G#4
Note ON: Time 69600, Note Name: G#4, Velocity: 61
Note ON: Time 69600, Note Name: G#3, Velocity: 51
Note OFF: Time 69828, Note Name: G#3
Note OFF: Time 69828, Note Name: G#4
Note ON: Time 69840, Note Name: G#4, Velocity: 61
Note ON: Time 69840, Note Name: G#3, Velocity: 51
Note OFF: Time 70068, Note Name: G#3
Note OFF: Time 70068, Note Name: G#4
Note ON: Time 70080, Note Name: D#4, Velocity: 71
Note ON: Time 70080, Note Name: G#4, Velocity: 66
Note ON: Time 70080, Note Name: G#3, Velocity: 56
Note OFF: Time 70308, Note Name: G#3
Note OFF: Time 70308, Note Name: G#4
Note ON: Time 70320, Note Name: G#4, Velocity: 61
Note ON: Time 70320, Note Name: G#3, Velocity: 51
Note OFF: Time 70548, Note Name: G#3
Note OFF: Time 70548, Note Name: G#4
Note OFF: Time 70560, Note Name: D#4
Note ON: Time 70560, Note Name: C#4, Velocity: 68
Note ON: Time 70560, Note Name: G#4, Velocity: 61
Note ON: Time 70560, Note Name: G#3, Velocity: 51
Note OFF: Time 70788, Note Name: G#3
Note OFF: Time 70788, Note Name: G#4
Note ON: Time 70800, Note Name: G#4, Velocity: 61
Note ON: Time 70800, Note Name: G#3, Velocity: 51
Note OFF: Time 71028, Note Name: G#3
Note OFF: Time 71028, Note Name: G#4
Note ON: Time 71040, Note Name: G#4, Velocity: 74
Note ON: Time 71040, Note Name: G#3, Velocity: 62
Note OFF: Time 71268, Note Name: G#3
Note OFF: Time 71268, Note Name: G#4
Note ON: Time 71280, Note Name: G#4, Velocity: 68
Note ON: Time 71280, Note Name: G#3, Velocity: 57
Note OFF: Time 71508, Note Name: G#3
Note OFF: Time 71508, Note Name: G#4
Note OFF: Time 71520, Note Name: C#4
Note ON: Time 71520, Note Name: D#4, Velocity: 73
Note ON: Time 71520, Note Name: G#4, Velocity: 68
Note ON: Time 71520, Note Name: G#3, Velocity: 57
Note OFF: Time 71748, Note Name: G#3
Note OFF: Time 71748, Note Name: G#4
Note ON: Time 71760, Note Name: G#4, Velocity: 68
Note ON: Time 71760, Note Name: G#3, Velocity: 57
Note OFF: Time 71988, Note Name: G#3
Note OFF: Time 71988, Note Name: G#4
Note OFF: Time 72000, Note Name: D#4
Note ON: Time 72000, Note Name: E4, Velocity: 78
Note ON: Time 72000, Note Name: G#4, Velocity: 69
Note ON: Time 72000, Note Name: G#3, Velocity: 58
Note OFF: Time 72228, Note Name: G#3
Note OFF: Time 72228, Note Name: G#4
Note ON: Time 72240, Note Name: G#4, Velocity: 68
Note ON: Time 72240, Note Name: G#3, Velocity: 57
Note OFF: Time 72468, Note Name: G#3
Note OFF: Time 72468, Note Name: G#4
Note OFF: Time 72480, Note Name: E4
Note ON: Time 72480, Note Name: D#4, Velocity: 73
Note ON: Time 72480, Note Name: G#4, Velocity: 68
Note ON: Time 72480, Note Name: G#3, Velocity: 57
Note OFF: Time 72708, Note Name: G#3
Note OFF: Time 72708, Note Name: G#4
Note ON: Time 72720, Note Name: G#4, Velocity: 68
Note ON: Time 72720, Note Name: G#3, Velocity: 57
Note OFF: Time 72948, Note Name: G#3
Note OFF: Time 72948, Note Name: G#4
Note OFF: Time 72960, Note Name: D#4
Note ON: Time 72960, Note Name: D#4, Velocity: 74
Note ON: Time 72960, Note Name: G#4, Velocity: 79
Note ON: Time 72960, Note Name: G#3, Velocity: 67
Note OFF: Time 73188, Note Name: G#3
Note OFF: Time 73188, Note Name: G#4
Note ON: Time 73200, Note Name: G#4, Velocity: 74
Note ON: Time 73200, Note Name: G#3, Velocity: 62
Note OFF: Time 73428, Note Name: G#3
Note OFF: Time 73428, Note Name: G#4
Note ON: Time 73440, Note Name: G#4, Velocity: 77
Note ON: Time 73440, Note Name: G#3, Velocity: 63
Note OFF: Time 73668, Note Name: G#3
Note OFF: Time 73668, Note Name: G#4
Note ON: Time 73680, Note Name: G#4, Velocity: 78
Note ON: Time 73680, Note Name: G#3, Velocity: 64
Note OFF: Time 73908, Note Name: G#3
Note OFF: Time 73908, Note Name: G#4
Note ON: Time 73920, Note Name: G#4, Velocity: 79
Note ON: Time 73920, Note Name: G#3, Velocity: 66
Note OFF: Time 74148, Note Name: G#3
Note OFF: Time 74148, Note Name: G#4
Note ON: Time 74160, Note Name: G#4, Velocity: 78
Note ON: Time 74160, Note Name: G#3, Velocity: 66
Note OFF: Time 74388, Note Name: G#3
Note OFF: Time 74388, Note Name: G#4
Note ON: Time 74400, Note Name: G#4, Velocity: 79
Note ON: Time 74400, Note Name: G#3, Velocity: 67
Note OFF: Time 74628, Note Name: G#3
Note OFF: Time 74628, Note Name: G#4
Note ON: Time 74640, Note Name: G#4, Velocity: 80
Note ON: Time 74640, Note Name: G#3, Velocity: 68
Note OFF: Time 74868, Note Name: G#3
Note OFF: Time 74868, Note Name: G#4
Note OFF: Time 74880, Note Name: D#4
Note ON: Time 74880, Note Name: E4, Velocity: 88
Note ON: Time 74880, Note Name: G#4, Velocity: 92
Note ON: Time 74880, Note Name: B3, Velocity: 74
Note ON: Time 74880, Note Name: B4, Velocity: 88
Note OFF: Time 75108, Note Name: B4
Note OFF: Time 75108, Note Name: B3
Note ON: Time 75120, Note Name: B3, Velocity: 70
Note ON: Time 75120, Note Name: B4, Velocity: 83
Note OFF: Time 75348, Note Name: B4
Note OFF: Time 75348, Note Name: B3
Note ON: Time 75360, Note Name: B3, Velocity: 70
Note ON: Time 75360, Note Name: B4, Velocity: 83
Note OFF: Time 75588, Note Name: B4
Note OFF: Time 75588, Note Name: B3
Note ON: Time 75600, Note Name: B3, Velocity: 66
Note ON: Time 75600, Note Name: B4, Velocity: 79
Note OFF: Time 75828, Note Name: B4
Note OFF: Time 75828, Note Name: B3
Note OFF: Time 75840, Note Name: G#4
Note OFF: Time 75840, Note Name: E4
Note ON: Time 75840, Note Name: D#4, Velocity: 88
Note ON: Time 75840, Note Name: G#4, Velocity: 92
Note ON: Time 75840, Note Name: B3, Velocity: 74
Note ON: Time 75840, Note Name: B4, Velocity: 88
Note OFF: Time 76068, Note Name: B4
Note OFF: Time 76068, Note Name: B3
Note ON: Time 76080, Note Name: B3, Velocity: 70
Note ON: Time 76080, Note Name: B4, Velocity: 83
Note OFF: Time 76308, Note Name: B4
Note OFF: Time 76308, Note Name: B3
Note ON: Time 76320, Note Name: B3, Velocity: 70
Note ON: Time 76320, Note Name: B4, Velocity: 83
Note OFF: Time 76548, Note Name: B4
Note OFF: Time 76548, Note Name: B3
Note ON: Time 76560, Note Name: B3, Velocity: 66
Note ON: Time 76560, Note Name: B4, Velocity: 79
Note OFF: Time 76788, Note Name: B4
Note OFF: Time 76788, Note Name: B3
Note OFF: Time 76800, Note Name: G#4
Note OFF: Time 76800, Note Name: D#4
Note ON: Time 76800, Note Name: E4, Velocity: 88
Note ON: Time 76800, Note Name: G#4, Velocity: 92
Note ON: Time 76800, Note Name: B3, Velocity: 74
Note ON: Time 76800, Note Name: B4, Velocity: 88
Note OFF: Time 77028, Note Name: B4
Note OFF: Time 77028, Note Name: B3
Note ON: Time 77040, Note Name: B3, Velocity: 70
Note ON: Time 77040, Note Name: B4, Velocity: 83
Note OFF: Time 77268, Note Name: B4
Note OFF: Time 77268, Note Name: B3
Note ON: Time 77280, Note Name: B3, Velocity: 70
Note ON: Time 77280, Note Name: B4, Velocity: 83
Note OFF: Time 77508, Note Name: B4
Note OFF: Time 77508, Note Name: B3
Note ON: Time 77520, Note Name: B3, Velocity: 66
Note ON: Time 77520, Note Name: B4, Velocity: 79
Note OFF: Time 77748, Note Name: B4
Note OFF: Time 77748, Note Name: B3
Note OFF: Time 77760, Note Name: G#4
Note OFF: Time 77760, Note Name: E4
Note ON: Time 77760, Note Name: D#4, Velocity: 88
Note ON: Time 77760, Note Name: G#4, Velocity: 92
Note ON: Time 77760, Note Name: B3, Velocity: 74
Note ON: Time 77760, Note Name: B4, Velocity: 88
Note OFF: Time 77988, Note Name: B4
Note OFF: Time 77988, Note Name: B3
Note ON: Time 78000, Note Name: B3, Velocity: 70
Note ON: Time 78000, Note Name: B4, Velocity: 83
Note OFF: Time 78228, Note Name: B4
Note OFF: Time 78228, Note Name: B3
Note ON: Time 78240, Note Name: B3, Velocity: 70
Note ON: Time 78240, Note Name: B4, Velocity: 83
Note OFF: Time 78468, Note Name: B4
Note OFF: Time 78468, Note Name: B3
Note ON: Time 78480, Note Name: B3, Velocity: 70
Note ON: Time 78480, Note Name: B4, Velocity: 83
Note OFF: Time 78708, Note Name: B4
Note OFF: Time 78708, Note Name: B3
Note OFF: Time 78720, Note Name: G#4
Note OFF: Time 78720, Note Name: D#4
Note ON: Time 78720, Note Name: D#4, Velocity: 88
Note ON: Time 78720, Note Name: G#4, Velocity: 92
Note ON: Time 78720, Note Name: B3, Velocity: 74
Note ON: Time 78720, Note Name: B4, Velocity: 88
Note OFF: Time 78948, Note Name: B4
Note OFF: Time 78948, Note Name: B3
Note ON: Time 78960, Note Name: B3, Velocity: 70
Note ON: Time 78960, Note Name: B4, Velocity: 83
Note OFF: Time 79188, Note Name: B4
Note OFF: Time 79188, Note Name: B3
Note ON: Time 79200, Note Name: B3, Velocity: 70
Note ON: Time 79200, Note Name: B4, Velocity: 83
Note OFF: Time 79428, Note Name: B4
Note OFF: Time 79428, Note Name: B3
Note ON: Time 79440, Note Name: B3, Velocity: 66
Note ON: Time 79440, Note Name: B4, Velocity: 79
Note OFF: Time 79668, Note Name: B4
Note OFF: Time 79668, Note Name: B3
Note OFF: Time 79680, Note Name: G#4
Note OFF: Time 79680, Note Name: D#4
Note ON: Time 79680, Note Name: D#4, Velocity: 88
Note ON: Time 79680, Note Name: G4, Velocity: 92
Note ON: Time 79680, Note Name: B3, Velocity: 74
Note ON: Time 79680, Note Name: B4, Velocity: 88
Note OFF: Time 79908, Note Name: B4
Note OFF: Time 79908, Note Name: B3
Note ON: Time 79920, Note Name: B3, Velocity: 70
Note ON: Time 79920, Note Name: B4, Velocity: 83
Note OFF: Time 80148, Note Name: B4
Note OFF: Time 80148, Note Name: B3
Note ON: Time 80160, Note Name: B3, Velocity: 70
Note ON: Time 80160, Note Name: B4, Velocity: 83
Note OFF: Time 80388, Note Name: B4
Note OFF: Time 80388, Note Name: B3
Note ON: Time 80400, Note Name: B3, Velocity: 66
Note ON: Time 80400, Note Name: B4, Velocity: 79
Note OFF: Time 80628, Note Name: B4
Note OFF: Time 80628, Note Name: B3
Note OFF: Time 80640, Note Name: G4
Note OFF: Time 80640, Note Name: D#4
Note ON: Time 80640, Note Name: D#4, Velocity: 74
Note ON: Time 80640, Note Name: G#4, Velocity: 74
Note ON: Time 80640, Note Name: B3, Velocity: 62
Note ON: Time 80640, Note Name: B4, Velocity: 88
Note OFF: Time 80880, Note Name: B4
Note OFF: Time 80880, Note Name: D#4
Note OFF: Time 80880, Note Name: G#4
Note OFF: Time 80880, Note Name: B3
Note ON: Time 80880, Note Name: G#3, Velocity: 63
Note OFF: Time 81108, Note Name: G#3
Note ON: Time 81120, Note Name: G#3, Velocity: 57
Note OFF: Time 81348, Note Name: G#3
Note ON: Time 81360, Note Name: G#3, Velocity: 49
Note OFF: Time 81588, Note Name: G#3
Note ON: Time 81600, Note Name: G#3, Velocity: 46
Note OFF: Time 81828, Note Name: G#3
Note ON: Time 81840, Note Name: G#3, Velocity: 42
Note OFF: Time 82068, Note Name: G#3
Note ON: Time 82080, Note Name: G#3, Velocity: 39
Note OFF: Time 82308, Note Name: G#3
Note ON: Time 82320, Note Name: G#3, Velocity: 36
Note OFF: Time 82548, Note Name: G#3
Note ON: Time 82560, Note Name: G#3, Velocity: 35
Note OFF: Time 82788, Note Name: G#3
Note ON: Time 82800, Note Name: G#3, Velocity: 33
Note OFF: Time 83028, Note Name: G#3
Note ON: Time 83040, Note Name: G#3, Velocity: 33
Note OFF: Time 83268, Note Name: G#3
Note ON: Time 83280, Note Name: G#3, Velocity: 33
Note OFF: Time 83508, Note Name: G#3
Note ON: Time 83520, Note Name: G#3, Velocity: 35
Note OFF: Time 83748, Note Name: G#3
Note ON: Time 83760, Note Name: G#3, Velocity: 33
Note OFF: Time 83988, Note Name: G#3
Note ON: Time 84000, Note Name: G#3, Velocity: 31
Note OFF: Time 84228, Note Name: G#3
Note ON: Time 84240, Note Name: G#3, Velocity: 31
Note OFF: Time 84468, Note Name: G#3
Note ON: Time 84480, Note Name: G#3, Velocity: 39
Note OFF: Time 84708, Note Name: G#3
Note ON: Time 84720, Note Name: G#3, Velocity: 36
Note OFF: Time 84948, Note Name: G#3
Note ON: Time 84960, Note Name: G#3, Velocity: 37
Note OFF: Time 85188, Note Name: G#3
Note ON: Time 85200, Note Name: G#3, Velocity: 37
Note OFF: Time 85428, Note Name: G#3
Note ON: Time 85440, Note Name: G#3, Velocity: 45
Note OFF: Time 85668, Note Name: G#3
Note ON: Time 85680, Note Name: G#3, Velocity: 38
Note OFF: Time 85908, Note Name: G#3
Note ON: Time 85920, Note Name: G#3, Velocity: 35
Note OFF: Time 86148, Note Name: G#3
Note ON: Time 86160, Note Name: G#3, Velocity: 36
Note OFF: Time 86388, Note Name: G#3
Note ON: Time 86400, Note Name: G#3, Velocity: 49
Note OFF: Time 86628, Note Name: G#3
Note ON: Time 86640, Note Name: G#3, Velocity: 42
Note OFF: Time 86868, Note Name: G#3
Note ON: Time 86880, Note Name: G#3, Velocity: 42
Note OFF: Time 87108, Note Name: G#3
Note ON: Time 87120, Note Name: G#3, Velocity: 42
Note OFF: Time 87348, Note Name: G#3
Note ON: Time 87360, Note Name: G#3, Velocity: 49
Note OFF: Time 87588, Note Name: G#3
Note ON: Time 87600, Note Name: G#3, Velocity: 40
Note OFF: Time 87828, Note Name: G#3
Note ON: Time 87840, Note Name: G#3, Velocity: 39
Note OFF: Time 88068, Note Name: G#3
Note ON: Time 88080, Note Name: G#3, Velocity: 39
Note OFF: Time 88308, Note Name: G#3
Note ON: Time 88320, Note Name: G#3, Velocity: 49
Note OFF: Time 88548, Note Name: G#3
Note ON: Time 88560, Note Name: G#3, Velocity: 40
Note OFF: Time 88788, Note Name: G#3
Note ON: Time 88800, Note Name: G#3, Velocity: 42
Note OFF: Time 89028, Note Name: G#3
Note ON: Time 89040, Note Name: G#3, Velocity: 41
Note OFF: Time 89268, Note Name: G#3
Note ON: Time 89280, Note Name: G#3, Velocity: 42
Note OFF: Time 89508, Note Name: G#3
Note ON: Time 89520, Note Name: G#3, Velocity: 41
Note OFF: Time 89748, Note Name: G#3
Note ON: Time 89760, Note Name: G#3, Velocity: 40
Note OFF: Time 89988, Note Name: G#3
Note ON: Time 90000, Note Name: G#3, Velocity: 40
Note OFF: Time 90228, Note Name: G#3
Note ON: Time 90240, Note Name: G#3, Velocity: 44
Note OFF: Time 90468, Note Name: G#3
Note ON: Time 90480, Note Name: G#3, Velocity: 39
Note OFF: Time 90708, Note Name: G#3
Note ON: Time 90720, Note Name: G#3, Velocity: 39
Note OFF: Time 90948, Note Name: G#3
Note ON: Time 90960, Note Name: G#3, Velocity: 37
Note OFF: Time 91188, Note Name: G#3
Note ON: Time 91200, Note Name: G#3, Velocity: 41
Note OFF: Time 91428, Note Name: G#3
Note ON: Time 91440, Note Name: G#3, Velocity: 37
Note OFF: Time 91668, Note Name: G#3
Note ON: Time 91680, Note Name: G#3, Velocity: 35
Note OFF: Time 91908, Note Name: G#3
Note ON: Time 91920, Note Name: G#3, Velocity: 35
Note OFF: Time 92148, Note Name: G#3
Note ON: Time 92160, Note Name: G#3, Velocity: 40
Note OFF: Time 92388, Note Name: G#3
Note ON: Time 92400, Note Name: G#3, Velocity: 35
Note OFF: Time 92628, Note Name: G#3
Note ON: Time 92640, Note Name: G#3, Velocity: 35
Note OFF: Time 92868, Note Name: G#3
Note ON: Time 92880, Note Name: G#3, Velocity: 31
Note OFF: Time 93108, Note Name: G#3
Note ON: Time 93120, Note Name: G#3, Velocity: 38
Note OFF: Time 93348, Note Name: G#3
Note ON: Time 93360, Note Name: G#3, Velocity: 35
Note OFF: Time 93588, Note Name: G#3
Note ON: Time 93600, Note Name: G#3, Velocity: 35
Note OFF: Time 93828, Note Name: G#3
Note ON: Time 93840, Note Name: G#3, Velocity: 33
Note OFF: Time 94068, Note Name: G#3
Note ON: Time 94080, Note Name: G#3, Velocity: 38
Note OFF: Time 94308, Note Name: G#3
Note ON: Time 94320, Note Name: G#3, Velocity: 40
Note OFF: Time 94548, Note Name: G#3
Note ON: Time 94560, Note Name: G#3, Velocity: 41
Note OFF: Time 94788, Note Name: G#3
Note ON: Time 94800, Note Name: G#3, Velocity: 44
Note OFF: Time 95028, Note Name: G#3
Note ON: Time 95040, Note Name: G#3, Velocity: 46
Note OFF: Time 95268, Note Name: G#3
Note ON: Time 95280, Note Name: G#3, Velocity: 48
Note OFF: Time 95508, Note Name: G#3
Note ON: Time 95520, Note Name: G#3, Velocity: 49
Note OFF: Time 95748, Note Name: G#3
Note ON: Time 95760, Note Name: G#3, Velocity: 51
Note OFF: Time 95988, Note Name: G#3
Note ON: Time 96000, Note Name: G#3, Velocity: 53
Note OFF: Time 96228, Note Name: G#3
Note ON: Time 96240, Note Name: G#4, Velocity: 53
Note ON: Time 96240, Note Name: G#3, Velocity: 45
Note OFF: Time 96468, Note Name: G#3
Note OFF: Time 96468, Note Name: G#4
Note ON: Time 96480, Note Name: G#4, Velocity: 55
Note ON: Time 96480, Note Name: G#3, Velocity: 46
Note OFF: Time 96708, Note Name: G#3
Note OFF: Time 96708, Note Name: G#4
Note ON: Time 96720, Note Name: G#4, Velocity: 56
Note ON: Time 96720, Note Name: G#3, Velocity: 47
Note OFF: Time 96948, Note Name: G#3
Note OFF: Time 96948, Note Name: G#4
Note ON: Time 96960, Note Name: G#4, Velocity: 57
Note ON: Time 96960, Note Name: G#3, Velocity: 48
Note OFF: Time 97188, Note Name: G#3
Note OFF: Time 97188, Note Name: G#4
Note ON: Time 97200, Note Name: G#4, Velocity: 59
Note ON: Time 97200, Note Name: G#3, Velocity: 49
Note OFF: Time 97428, Note Name: G#3
Note OFF: Time 97428, Note Name: G#4
Note ON: Time 97440, Note Name: G#4, Velocity: 60
Note ON: Time 97440, Note Name: G#3, Velocity: 50
Note OFF: Time 97668, Note Name: G#3
Note OFF: Time 97668, Note Name: G#4
Note ON: Time 97680, Note Name: G#4, Velocity: 61
Note ON: Time 97680, Note Name: G#3, Velocity: 51
Note OFF: Time 97908, Note Name: G#3
Note OFF: Time 97908, Note Name: G#4
Note ON: Time 97920, Note Name: G#4, Velocity: 61
Note ON: Time 97920, Note Name: G#3, Velocity: 51
Note OFF: Time 98148, Note Name: G#3
Note OFF: Time 98148, Note Name: G#4
Note ON: Time 98160, Note Name: G#4, Velocity: 59
Note ON: Time 98160, Note Name: G#3, Velocity: 49
Note OFF: Time 98388, Note Name: G#3
Note OFF: Time 98388, Note Name: G#4
Note ON: Time 98400, Note Name: G#4, Velocity: 59
Note ON: Time 98400, Note Name: G#3, Velocity: 49
Note OFF: Time 98628, Note Name: G#3
Note OFF: Time 98628, Note Name: G#4
Note ON: Time 98640, Note Name: G#4, Velocity: 59
Note ON: Time 98640, Note Name: G#3, Velocity: 49
Note OFF: Time 98868, Note Name: G#3
Note OFF: Time 98868, Note Name: G#4
Note ON: Time 98880, Note Name: C#4, Velocity: 67
Note ON: Time 98880, Note Name: G#4, Velocity: 61
Note ON: Time 98880, Note Name: G#3, Velocity: 52
Note OFF: Time 99108, Note Name: G#3
Note OFF: Time 99108, Note Name: G#4
Note ON: Time 99120, Note Name: G#4, Velocity: 60
Note ON: Time 99120, Note Name: G#3, Velocity: 50
Note OFF: Time 99348, Note Name: G#3
Note OFF: Time 99348, Note Name: G#4
Note OFF: Time 99360, Note Name: C#4
Note ON: Time 99360, Note Name: C4, Velocity: 59
Note ON: Time 99360, Note Name: G#4, Velocity: 58
Note ON: Time 99360, Note Name: G#3, Velocity: 48
Note OFF: Time 99588, Note Name: G#3
Note OFF: Time 99588, Note Name: G#4
Note ON: Time 99600, Note Name: G#4, Velocity: 58
Note ON: Time 99600, Note Name: G#3, Velocity: 48
Note OFF: Time 99828, Note Name: G#3
Note OFF: Time 99828, Note Name: G#4
Note OFF: Time 99840, Note Name: C4
Note ON: Time 99840, Note Name: G#4, Velocity: 64
Note ON: Time 99840, Note Name: G#3, Velocity: 55
Note OFF: Time 100068, Note Name: G#3
Note OFF: Time 100068, Note Name: G#4
Note ON: Time 100080, Note Name: G#4, Velocity: 61
Note ON: Time 100080, Note Name: G#3, Velocity: 51
Note OFF: Time 100308, Note Name: G#3
Note OFF: Time 100308, Note Name: G#4
Note ON: Time 100320, Note Name: G#4, Velocity: 61
Note ON: Time 100320, Note Name: G#3, Velocity: 51
Note OFF: Time 100548, Note Name: G#3
Note OFF: Time 100548, Note Name: G#4
Note ON: Time 100560, Note Name: G#4, Velocity: 61
Note ON: Time 100560, Note Name: G#3, Velocity: 51
Note OFF: Time 100788, Note Name: G#3
Note OFF: Time 100788, Note Name: G#4
Note ON: Time 100800, Note Name: D#4, Velocity: 71
Note ON: Time 100800, Note Name: G#4, Velocity: 66
Note ON: Time 100800, Note Name: G#3, Velocity: 56
Note OFF: Time 101028, Note Name: G#3
Note OFF: Time 101028, Note Name: G#4
Note ON: Time 101040, Note Name: G#4, Velocity: 61
Note ON: Time 101040, Note Name: G#3, Velocity: 51
Note OFF: Time 101268, Note Name: G#3
Note OFF: Time 101268, Note Name: G#4
Note OFF: Time 101280, Note Name: D#4
Note ON: Time 101280, Note Name: C#4, Velocity: 68
Note ON: Time 101280, Note Name: G#4, Velocity: 61
Note ON: Time 101280, Note Name: G#3, Velocity: 51
Note OFF: Time 101508, Note Name: G#3
Note OFF: Time 101508, Note Name: G#4
Note ON: Time 101520, Note Name: G#4, Velocity: 61
Note ON: Time 101520, Note Name: G#3, Velocity: 51
Note OFF: Time 101748, Note Name: G#3
Note OFF: Time 101748, Note Name: G#4
Note ON: Time 101760, Note Name: G#4, Velocity: 74
Note ON: Time 101760, Note Name: G#3, Velocity: 62
Note OFF: Time 101988, Note Name: G#3
Note OFF: Time 101988, Note Name: G#4
Note ON: Time 102000, Note Name: G#4, Velocity: 68
Note ON: Time 102000, Note Name: G#3, Velocity: 57
Note OFF: Time 102228, Note Name: G#3
Note OFF: Time 102228, Note Name: G#4
Note OFF: Time 102240, Note Name: C#4
Note ON: Time 102240, Note Name: D#4, Velocity: 73
Note ON: Time 102240, Note Name: G#4, Velocity: 68
Note ON: Time 102240, Note Name: G#3, Velocity: 57
Note OFF: Time 102468, Note Name: G#3
Note OFF: Time 102468, Note Name: G#4
Note ON: Time 102480, Note Name: G#4, Velocity: 68
Note ON: Time 102480, Note Name: G#3, Velocity: 57
Note OFF: Time 102708, Note Name: G#3
Note OFF: Time 102708, Note Name: G#4
Note OFF: Time 102720, Note Name: D#4
Note ON: Time 102720, Note Name: E4, Velocity: 78
Note ON: Time 102720, Note Name: G#4, Velocity: 69
Note ON: Time 102720, Note Name: G#3, Velocity: 58
Note OFF: Time 102948, Note Name: G#3
Note OFF: Time 102948, Note Name: G#4
Note ON: Time 102960, Note Name: G#4, Velocity: 68
Note ON: Time 102960, Note Name: G#3, Velocity: 57
Note OFF: Time 103188, Note Name: G#3
Note OFF: Time 103188, Note Name: G#4
Note OFF: Time 103200, Note Name: E4
Note ON: Time 103200, Note Name: D#4, Velocity: 73
Note ON: Time 103200, Note Name: G#4, Velocity: 68
Note ON: Time 103200, Note Name: G#3, Velocity: 57
Note OFF: Time 103428, Note Name: G#3
Note OFF: Time 103428, Note Name: G#4
Note ON: Time 103440, Note Name: G#4, Velocity: 68
Note ON: Time 103440, Note Name: G#3, Velocity: 57
Note OFF: Time 103668, Note Name: G#3
Note OFF: Time 103668, Note Name: G#4
Note OFF: Time 103680, Note Name: D#4
Note ON: Time 103680, Note Name: D#4, Velocity: 74
Note ON: Time 103680, Note Name: G#4, Velocity: 79
Note ON: Time 103680, Note Name: G#3, Velocity: 67
Note OFF: Time 103908, Note Name: G#3
Note OFF: Time 103908, Note Name: G#4
Note ON: Time 103920, Note Name: G#4, Velocity: 74
Note ON: Time 103920, Note Name: G#3, Velocity: 62
Note OFF: Time 104148, Note Name: G#3
Note OFF: Time 104148, Note Name: G#4
Note ON: Time 104160, Note Name: G#4, Velocity: 77
Note ON: Time 104160, Note Name: G#3, Velocity: 63
Note OFF: Time 104388, Note Name: G#3
Note OFF: Time 104388, Note Name: G#4
Note ON: Time 104400, Note Name: G#4, Velocity: 78
Note ON: Time 104400, Note Name: G#3, Velocity: 64
Note OFF: Time 104628, Note Name: G#3
Note OFF: Time 104628, Note Name: G#4
Note ON: Time 104640, Note Name: G#4, Velocity: 79
Note ON: Time 104640, Note Name: G#3, Velocity: 66
Note OFF: Time 104868, Note Name: G#3
Note OFF: Time 104868, Note Name: G#4
Note ON: Time 104880, Note Name: G#4, Velocity: 78
Note ON: Time 104880, Note Name: G#3, Velocity: 66
Note OFF: Time 105108, Note Name: G#3
Note OFF: Time 105108, Note Name: G#4
Note ON: Time 105120, Note Name: G#4, Velocity: 79
Note ON: Time 105120, Note Name: G#3, Velocity: 67
Note OFF: Time 105348, Note Name: G#3
Note OFF: Time 105348, Note Name: G#4
Note ON: Time 105360, Note Name: G#4, Velocity: 80
Note ON: Time 105360, Note Name: G#3, Velocity: 68
Note OFF: Time 105588, Note Name: G#3
Note OFF: Time 105588, Note Name: G#4
Note OFF: Time 105600, Note Name: D#4
Note ON: Time 105600, Note Name: E4, Velocity: 88
Note ON: Time 105600, Note Name: G#4, Velocity: 92
Note ON: Time 105600, Note Name: B3, Velocity: 74
Note ON: Time 105600, Note Name: B4, Velocity: 88
Note OFF: Time 105828, Note Name: B4
Note OFF: Time 105828, Note Name: B3
Note ON: Time 105840, Note Name: B3, Velocity: 70
Note ON: Time 105840, Note Name: B4, Velocity: 83
Note OFF: Time 106068, Note Name: B4
Note OFF: Time 106068, Note Name: B3
Note ON: Time 106080, Note Name: B3, Velocity: 70
Note ON: Time 106080, Note Name: B4, Velocity: 83
Note OFF: Time 106308, Note Name: B4
Note OFF: Time 106308, Note Name: B3
Note ON: Time 106320, Note Name: B3, Velocity: 66
Note ON: Time 106320, Note Name: B4, Velocity: 79
Note OFF: Time 106548, Note Name: B4
Note OFF: Time 106548, Note Name: B3
Note OFF: Time 106560, Note Name: G#4
Note OFF: Time 106560, Note Name: E4
Note ON: Time 106560, Note Name: D#4, Velocity: 88
Note ON: Time 106560, Note Name: G#4, Velocity: 92
Note ON: Time 106560, Note Name: B3, Velocity: 74
Note ON: Time 106560, Note Name: B4, Velocity: 88
Note OFF: Time 106788, Note Name: B4
Note OFF: Time 106788, Note Name: B3
Note ON: Time 106800, Note Name: B3, Velocity: 70
Note ON: Time 106800, Note Name: B4, Velocity: 83
Note OFF: Time 107028, Note Name: B4
Note OFF: Time 107028, Note Name: B3
Note ON: Time 107040, Note Name: B3, Velocity: 70
Note ON: Time 107040, Note Name: B4, Velocity: 83
Note OFF: Time 107268, Note Name: B4
Note OFF: Time 107268, Note Name: B3
Note ON: Time 107280, Note Name: B3, Velocity: 66
Note ON: Time 107280, Note Name: B4, Velocity: 79
Note OFF: Time 107508, Note Name: B4
Note OFF: Time 107508, Note Name: B3
Note OFF: Time 107520, Note Name: G#4
Note OFF: Time 107520, Note Name: D#4
Note ON: Time 107520, Note Name: E4, Velocity: 88
Note ON: Time 107520, Note Name: G#4, Velocity: 92
Note ON: Time 107520, Note Name: B3, Velocity: 74
Note ON: Time 107520, Note Name: B4, Velocity: 88
Note OFF: Time 107748, Note Name: B4
Note OFF: Time 107748, Note Name: B3
Note ON: Time 107760, Note Name: B3, Velocity: 70
Note ON: Time 107760, Note Name: B4, Velocity: 83
Note OFF: Time 107988, Note Name: B4
Note OFF: Time 107988, Note Name: B3
Note ON: Time 108000, Note Name: B3, Velocity: 70
Note ON: Time 108000, Note Name: B4, Velocity: 83
Note OFF: Time 108228, Note Name: B4
Note OFF: Time 108228, Note Name: B3
Note ON: Time 108240, Note Name: B3, Velocity: 66
Note ON: Time 108240, Note Name: B4, Velocity: 79
Note OFF: Time 108468, Note Name: B4
Note OFF: Time 108468, Note Name: B3
Note OFF: Time 108480, Note Name: G#4
Note OFF: Time 108480, Note Name: E4
Note ON: Time 108480, Note Name: D#4, Velocity: 88
Note ON: Time 108480, Note Name: G#4, Velocity: 92
Note ON: Time 108480, Note Name: B3, Velocity: 74
Note ON: Time 108480, Note Name: B4, Velocity: 88
Note OFF: Time 108708, Note Name: B4
Note OFF: Time 108708, Note Name: B3
Note ON: Time 108720, Note Name: B3, Velocity: 70
Note ON: Time 108720, Note Name: B4, Velocity: 83
Note OFF: Time 108948, Note Name: B4
Note OFF: Time 108948, Note Name: B3
Note ON: Time 108960, Note Name: B3, Velocity: 70
Note ON: Time 108960, Note Name: B4, Velocity: 83
Note OFF: Time 109188, Note Name: B4
Note OFF: Time 109188, Note Name: B3
Note ON: Time 109200, Note Name: B3, Velocity: 70
Note ON: Time 109200, Note Name: B4, Velocity: 83
Note OFF: Time 109428, Note Name: B4
Note OFF: Time 109428, Note Name: B3
Note OFF: Time 109440, Note Name: G#4
Note OFF: Time 109440, Note Name: D#4
Note ON: Time 109440, Note Name: D#4, Velocity: 88
Note ON: Time 109440, Note Name: G#4, Velocity: 92
Note ON: Time 109440, Note Name: B3, Velocity: 74
Note ON: Time 109440, Note Name: B4, Velocity: 88
Note OFF: Time 109668, Note Name: B4
Note OFF: Time 109668, Note Name: B3
Note ON: Time 109680, Note Name: B3, Velocity: 70
Note ON: Time 109680, Note Name: B4, Velocity: 83
Note OFF: Time 109908, Note Name: B4
Note OFF: Time 109908, Note Name: B3
Note ON: Time 109920, Note Name: B3, Velocity: 70
Note ON: Time 109920, Note Name: B4, Velocity: 83
Note OFF: Time 110148, Note Name: B4
Note OFF: Time 110148, Note Name: B3
Note ON: Time 110160, Note Name: B3, Velocity: 66
Note ON: Time 110160, Note Name: B4, Velocity: 79
Note OFF: Time 110388, Note Name: B4
Note OFF: Time 110388, Note Name: B3
Note OFF: Time 110400, Note Name: G#4
Note OFF: Time 110400, Note Name: D#4
Note ON: Time 110400, Note Name: D#4, Velocity: 88
Note ON: Time 110400, Note Name: G4, Velocity: 92
Note ON: Time 110400, Note Name: B3, Velocity: 74
Note ON: Time 110400, Note Name: B4, Velocity: 88
Note OFF: Time 110628, Note Name: B4
Note OFF: Time 110628, Note Name: B3
Note ON: Time 110640, Note Name: B3, Velocity: 70
Note ON: Time 110640, Note Name: B4, Velocity: 83
Note OFF: Time 110868, Note Name: B4
Note OFF: Time 110868, Note Name: B3
Note ON: Time 110880, Note Name: B3, Velocity: 70
Note ON: Time 110880, Note Name: B4, Velocity: 83
Note OFF: Time 111108, Note Name: B4
Note OFF: Time 111108, Note Name: B3
Note ON: Time 111120, Note Name: B3, Velocity: 66
Note ON: Time 111120, Note Name: B4, Velocity: 79
Note OFF: Time 111348, Note Name: B4
Note OFF: Time 111348, Note Name: B3
Note OFF: Time 111360, Note Name: G4
Note OFF: Time 111360, Note Name: D#4
Note ON: Time 111360, Note Name: D#4, Velocity: 74
Note ON: Time 111360, Note Name: G#4, Velocity: 74
Note ON: Time 111360, Note Name: B3, Velocity: 62
Note ON: Time 111360, Note Name: B4, Velocity: 88
Note OFF: Time 111600, Note Name: B4
Note OFF: Time 111600, Note Name: D#4
Note OFF: Time 111600, Note Name: G#4
Note OFF: Time 111600, Note Name: B3
Note ON: Time 111600, Note Name: G#4, Velocity: 63
Note OFF: Time 111828, Note Name: G#4
Note ON: Time 111840, Note Name: G#4, Velocity: 57
Note OFF: Time 112068, Note Name: G#4
Note ON: Time 112080, Note Name: G#4, Velocity: 55
Note OFF: Time 112308, Note Name: G#4
Note ON: Time 112320, Note Name: G#4, Velocity: 52
Note OFF: Time 112548, Note Name: G#4
Note ON: Time 112560, Note Name: G#4, Velocity: 50
Note OFF: Time 112788, Note Name: G#4
Note ON: Time 112800, Note Name: G#4, Velocity: 48
Note OFF: Time 113028, Note Name: G#4
Note ON: Time 113040, Note Name: G#4, Velocity: 48
Note OFF: Time 113268, Note Name: G#4
Note ON: Time 113280, Note Name: G#4, Velocity: 44
Note ON: Time 113280, Note Name: C4, Velocity: 47
Note ON: Time 113280, Note Name: C5, Velocity: 56
Note OFF: Time 113508, Note Name: G#4
Note ON: Time 113520, Note Name: G#4, Velocity: 44
Note OFF: Time 113748, Note Name: G#4
Note ON: Time 113760, Note Name: G#4, Velocity: 44
Note OFF: Time 113988, Note Name: G#4
Note ON: Time 114000, Note Name: G#4, Velocity: 44
Note OFF: Time 114228, Note Name: G#4
Note OFF: Time 114240, Note Name: C5
Note OFF: Time 114240, Note Name: C4
Note ON: Time 114240, Note Name: G#4, Velocity: 46
Note ON: Time 114240, Note Name: C#4, Velocity: 50
Note ON: Time 114240, Note Name: C#5, Velocity: 59
Note OFF: Time 114468, Note Name: G#4
Note ON: Time 114480, Note Name: G#4, Velocity: 46
Note OFF: Time 114708, Note Name: G#4
Note ON: Time 114720, Note Name: G#4, Velocity: 46
Note OFF: Time 114948, Note Name: G#4
Note ON: Time 114960, Note Name: G#4, Velocity: 46
Note OFF: Time 115188, Note Name: G#4
Note OFF: Time 115200, Note Name: C#5
Note OFF: Time 115200, Note Name: C#4
Note ON: Time 115200, Note Name: G#4, Velocity: 46
Note ON: Time 115200, Note Name: D#4, Velocity: 51
Note ON: Time 115200, Note Name: C#5, Velocity: 61
Note ON: Time 115200, Note Name: D#5, Velocity: 61
Note OFF: Time 115428, Note Name: G#4
Note ON: Time 115440, Note Name: G#4, Velocity: 46
Note OFF: Time 115668, Note Name: G#4
Note ON: Time 115680, Note Name: G#4, Velocity: 46
Note OFF: Time 115908, Note Name: G#4
Note ON: Time 115920, Note Name: G#4, Velocity: 46
Note OFF: Time 116148, Note Name: G#4
Note ON: Time 116160, Note Name: G#4, Velocity: 46
Note OFF: Time 116388, Note Name: G#4
Note ON: Time 116400, Note Name: G#4, Velocity: 47
Note OFF: Time 116628, Note Name: G#4
Note OFF: Time 116640, Note Name: D#5
Note OFF: Time 116640, Note Name: C#5
Note OFF: Time 116640, Note Name: D#4
Note ON: Time 116640, Note Name: G#4, Velocity: 47
Note ON: Time 116640, Note Name: D#4, Velocity: 51
Note ON: Time 116640, Note Name: C5, Velocity: 60
Note ON: Time 116640, Note Name: D#5, Velocity: 60
Note OFF: Time 116868, Note Name: G#4
Note ON: Time 116880, Note Name: G#4, Velocity: 48
Note OFF: Time 117108, Note Name: G#4
Note OFF: Time 117120, Note Name: D#5
Note OFF: Time 117120, Note Name: C5
Note OFF: Time 117120, Note Name: D#4
Note ON: Time 117120, Note Name: G#4, Velocity: 48
Note ON: Time 117120, Note Name: E4, Velocity: 53
Note ON: Time 117120, Note Name: D#5, Velocity: 63
Note ON: Time 117120, Note Name: E5, Velocity: 63
Note OFF: Time 117348, Note Name: G#4
Note ON: Time 117360, Note Name: G#4, Velocity: 48
Note OFF: Time 117588, Note Name: G#4
Note OFF: Time 117600, Note Name: E5
Note OFF: Time 117600, Note Name: D#5
Note OFF: Time 117600, Note Name: E4
Note ON: Time 117600, Note Name: G#4, Velocity: 48
Note ON: Time 117600, Note Name: E4, Velocity: 49
Note ON: Time 117600, Note Name: C#5, Velocity: 59
Note ON: Time 117600, Note Name: E5, Velocity: 59
Note OFF: Time 117828, Note Name: G#4
Note ON: Time 117840, Note Name: G#4, Velocity: 48
Note OFF: Time 118068, Note Name: G#4
Note OFF: Time 118080, Note Name: E5
Note OFF: Time 118080, Note Name: C#5
Note OFF: Time 118080, Note Name: E4
Note ON: Time 118080, Note Name: G#4, Velocity: 46
Note ON: Time 118080, Note Name: D#4, Velocity: 51
Note ON: Time 118080, Note Name: C#5, Velocity: 61
Note ON: Time 118080, Note Name: D#5, Velocity: 61
Note OFF: Time 118308, Note Name: G#4
Note ON: Time 118320, Note Name: G#4, Velocity: 46
Note OFF: Time 118548, Note Name: G#4
Note OFF: Time 118560, Note Name: D#5
Note OFF: Time 118560, Note Name: C#5
Note OFF: Time 118560, Note Name: D#4
Note ON: Time 118560, Note Name: G#4, Velocity: 46
Note ON: Time 118560, Note Name: D#4, Velocity: 46
Note ON: Time 118560, Note Name: C5, Velocity: 55
Note ON: Time 118560, Note Name: D#5, Velocity: 55
Note OFF: Time 118788, Note Name: G#4
Note ON: Time 118800, Note Name: G#4, Velocity: 46
Note OFF: Time 119028, Note Name: G#4
Note OFF: Time 119040, Note Name: D#5
Note OFF: Time 119040, Note Name: C5
Note OFF: Time 119040, Note Name: D#4
Note ON: Time 119040, Note Name: G#4, Velocity: 46
Note ON: Time 119040, Note Name: C#4, Velocity: 51
Note ON: Time 119040, Note Name: C#5, Velocity: 59
Note OFF: Time 119268, Note Name: G#4
Note ON: Time 119280, Note Name: G#4, Velocity: 46
Note OFF: Time 119508, Note Name: G#4
Note ON: Time 119520, Note Name: F#4, Velocity: 45
Note OFF: Time 119748, Note Name: F#4
Note ON: Time 119760, Note Name: F#4, Velocity: 41
Note OFF: Time 119988, Note Name: F#4
Note ON: Time 120000, Note Name: G#4, Velocity: 45
Note OFF: Time 120228, Note Name: G#4
Note ON: Time 120240, Note Name: G#4, Velocity: 41
Note OFF: Time 120468, Note Name: G#4
Note ON: Time 120480, Note Name: A4, Velocity: 44
Note OFF: Time 120708, Note Name: A4
Note ON: Time 120720, Note Name: A4, Velocity: 40
Note OFF: Time 120948, Note Name: A4
Note OFF: Time 120960, Note Name: C#5
Note OFF: Time 120960, Note Name: C#4
Note ON: Time 120960, Note Name: G#3, Velocity: 39
Note ON: Time 120960, Note Name: C4, Velocity: 47
Note ON: Time 120960, Note Name: D#4, Velocity: 56
Note ON: Time 120960, Note Name: G#4, Velocity: 47
Note OFF: Time 121188, Note Name: G#3
Note ON: Time 121200, Note Name: G#3, Velocity: 39
Note OFF: Time 121428, Note Name: G#3
Note ON: Time 121440, Note Name: G#3, Velocity: 39
Note OFF: Time 121668, Note Name: G#3
Note ON: Time 121680, Note Name: G#3, Velocity: 39
Note OFF: Time 121908, Note Name: G#3
Note OFF: Time 121920, Note Name: G#4
Note OFF: Time 121920, Note Name: D#4
Note OFF: Time 121920, Note Name: C4
Note ON: Time 121920, Note Name: G#3, Velocity: 38
Note ON: Time 121920, Note Name: C#4, Velocity: 46
Note ON: Time 121920, Note Name: E4, Velocity: 55
Note ON: Time 121920, Note Name: G#4, Velocity: 46
Note OFF: Time 122148, Note Name: G#3
Note ON: Time 122160, Note Name: G#3, Velocity: 38
Note OFF: Time 122388, Note Name: G#3
Note OFF: Time 122400, Note Name: G#4
Note OFF: Time 122400, Note Name: E4
Note OFF: Time 122400, Note Name: C#4
Note ON: Time 122400, Note Name: G#3, Velocity: 38
Note ON: Time 122400, Note Name: A#3, Velocity: 46
Note ON: Time 122400, Note Name: C#4, Velocity: 55
Note ON: Time 122400, Note Name: G#4, Velocity: 46
Note OFF: Time 122628, Note Name: G#3
Note ON: Time 122640, Note Name: G#3, Velocity: 38
Note OFF: Time 122868, Note Name: G#3
Note OFF: Time 122880, Note Name: G#4
Note OFF: Time 122880, Note Name: C#4
Note OFF: Time 122880, Note Name: A#3
Note ON: Time 122880, Note Name: G#3, Velocity: 39
Note ON: Time 122880, Note Name: C4, Velocity: 47
Note ON: Time 122880, Note Name: D#4, Velocity: 56
Note ON: Time 122880, Note Name: G#4, Velocity: 47
Note OFF: Time 123108, Note Name: G#3
Note ON: Time 123120, Note Name: G#3, Velocity: 39
Note OFF: Time 123348, Note Name: G#3
Note OFF: Time 123360, Note Name: G#4
Note OFF: Time 123360, Note Name: D#4
Note OFF: Time 123360, Note Name: C4
Note ON: Time 123360, Note Name: G#3, Velocity: 38
Note ON: Time 123360, Note Name: C#4, Velocity: 46
Note ON: Time 123360, Note Name: E4, Velocity: 55
Note ON: Time 123360, Note Name: G#4, Velocity: 46
Note OFF: Time 123588, Note Name: G#3
Note ON: Time 123600, Note Name: G#3, Velocity: 38
Note OFF: Time 123828, Note Name: G#3
Note OFF: Time 123840, Note Name: G#4
Note OFF: Time 123840, Note Name: E4
Note OFF: Time 123840, Note Name: C#4
Note ON: Time 123840, Note Name: G#3, Velocity: 38
Note ON: Time 123840, Note Name: A#3, Velocity: 46
Note ON: Time 123840, Note Name: C#4, Velocity: 55
Note ON: Time 123840, Note Name: G#4, Velocity: 46
Note OFF: Time 124068, Note Name: G#3
Note ON: Time 124080, Note Name: G#3, Velocity: 38
Note OFF: Time 124308, Note Name: G#3
Note OFF: Time 124320, Note Name: G#4
Note OFF: Time 124320, Note Name: C#4
Note OFF: Time 124320, Note Name: A#3
Note ON: Time 124320, Note Name: G#3, Velocity: 38
Note ON: Time 124320, Note Name: C#4, Velocity: 46
Note ON: Time 124320, Note Name: E4, Velocity: 55
Note ON: Time 124320, Note Name: G#4, Velocity: 46
Note OFF: Time 124548, Note Name: G#3
Note ON: Time 124560, Note Name: G#3, Velocity: 38
Note OFF: Time 124788, Note Name: G#3
Note OFF: Time 124800, Note Name: G#4
Note OFF: Time 124800, Note Name: E4
Note OFF: Time 124800, Note Name: C#4
Note ON: Time 124800, Note Name: G#3, Velocity: 42
Note ON: Time 124800, Note Name: C#4, Velocity: 50
Note ON: Time 124800, Note Name: E4, Velocity: 60
Note ON: Time 124800, Note Name: G#4, Velocity: 50
Note OFF: Time 125028, Note Name: G#3
Note ON: Time 125040, Note Name: G#3, Velocity: 42
Note OFF: Time 125268, Note Name: G#3
Note OFF: Time 125280, Note Name: G#4
Note OFF: Time 125280, Note Name: E4
Note OFF: Time 125280, Note Name: C#4
Note ON: Time 125280, Note Name: G#3, Velocity: 39
Note ON: Time 125280, Note Name: C4, Velocity: 47
Note ON: Time 125280, Note Name: D#4, Velocity: 56
Note ON: Time 125280, Note Name: G#4, Velocity: 47
Note OFF: Time 125508, Note Name: G#3
Note ON: Time 125520, Note Name: G#3, Velocity: 39
Note OFF: Time 125748, Note Name: G#3
Note OFF: Time 125760, Note Name: G#4
Note OFF: Time 125760, Note Name: D#4
Note OFF: Time 125760, Note Name: C4
Note ON: Time 125760, Note Name: G#3, Velocity: 41
Note ON: Time 125760, Note Name: D#4, Velocity: 49
Note ON: Time 125760, Note Name: F#4, Velocity: 58
Note ON: Time 125760, Note Name: G#4, Velocity: 49
Note OFF: Time 125988, Note Name: G#3
Note ON: Time 126000, Note Name: G#3, Velocity: 41
Note OFF: Time 126228, Note Name: G#3
Note OFF: Time 126240, Note Name: G#4
Note OFF: Time 126240, Note Name: F#4
Note OFF: Time 126240, Note Name: D#4
Note ON: Time 126240, Note Name: G#3, Velocity: 39
Note ON: Time 126240, Note Name: C#4, Velocity: 47
Note ON: Time 126240, Note Name: E4, Velocity: 56
Note ON: Time 126240, Note Name: G#4, Velocity: 47
Note OFF: Time 126468, Note Name: G#3
Note ON: Time 126480, Note Name: G#3, Velocity: 39
Note OFF: Time 126708, Note Name: G#3
Note OFF: Time 126720, Note Name: G#4
Note OFF: Time 126720, Note Name: E4
Note OFF: Time 126720, Note Name: C#4
Note ON: Time 126720, Note Name: G#3, Velocity: 39
Note ON: Time 126720, Note Name: C4, Velocity: 47
Note ON: Time 126720, Note Name: D#4, Velocity: 56
Note ON: Time 126720, Note Name: G#4, Velocity: 47
Note OFF: Time 126948, Note Name: G#3
Note ON: Time 126960, Note Name: G#3, Velocity: 39
Note OFF: Time 127188, Note Name: G#3
Note ON: Time 127200, Note Name: G#3, Velocity: 39
Note OFF: Time 127428, Note Name: G#3
Note ON: Time 127440, Note Name: G#3, Velocity: 39
Note OFF: Time 127668, Note Name: G#3
Note ON: Time 127680, Note Name: G#3, Velocity: 39
Note OFF: Time 127908, Note Name: G#3
Note ON: Time 127920, Note Name: G#3, Velocity: 39
Note OFF: Time 128148, Note Name: G#3
Note ON: Time 128160, Note Name: G#3, Velocity: 39
Note OFF: Time 128388, Note Name: G#3
Note ON: Time 128400, Note Name: G#3, Velocity: 39
Note OFF: Time 128628, Note Name: G#3
Note OFF: Time 128640, Note Name: G#4
Note OFF: Time 128640, Note Name: D#4
Note OFF: Time 128640, Note Name: C4
Note ON: Time 128640, Note Name: D#4, Velocity: 51
Note ON: Time 128640, Note Name: G#4, Velocity: 48
Note ON: Time 128640, Note Name: C4, Velocity: 51
Note ON: Time 128640, Note Name: C5, Velocity: 61
Note OFF: Time 128868, Note Name: G#4
Note ON: Time 128880, Note Name: G#4, Velocity: 53
Note OFF: Time 129108, Note Name: G#4
Note ON: Time 129120, Note Name: G#4, Velocity: 57
Note OFF: Time 129348, Note Name: G#4
Note ON: Time 129360, Note Name: G#4, Velocity: 57
Note OFF: Time 129588, Note Name: G#4
Note OFF: Time 129600, Note Name: C5
Note OFF: Time 129600, Note Name: C4
Note OFF: Time 129600, Note Name: D#4
Note ON: Time 129600, Note Name: G#4, Velocity: 53
Note ON: Time 129600, Note Name: C#4, Velocity: 58
Note ON: Time 129600, Note Name: C#5, Velocity: 69
Note OFF: Time 129828, Note Name: G#4
Note ON: Time 129840, Note Name: G#4, Velocity: 58
Note OFF: Time 130068, Note Name: G#4
Note ON: Time 130080, Note Name: G#4, Velocity: 59
Note OFF: Time 130308, Note Name: G#4
Note ON: Time 130320, Note Name: G#4, Velocity: 61
Note OFF: Time 130548, Note Name: G#4
Note OFF: Time 130560, Note Name: C#5
Note OFF: Time 130560, Note Name: C#4
Note ON: Time 130560, Note Name: G#4, Velocity: 57
Note ON: Time 130560, Note Name: D#4, Velocity: 63
Note ON: Time 130560, Note Name: C#5, Velocity: 77
Note ON: Time 130560, Note Name: D#5, Velocity: 77
Note OFF: Time 130788, Note Name: G#4
Note ON: Time 130800, Note Name: G#4, Velocity: 66
Note OFF: Time 131028, Note Name: G#4
Note ON: Time 131040, Note Name: G#4, Velocity: 68
Note OFF: Time 131268, Note Name: G#4
Note ON: Time 131280, Note Name: G#4, Velocity: 69
Note OFF: Time 131508, Note Name: G#4
Note ON: Time 131520, Note Name: G#4, Velocity: 71
Note OFF: Time 131748, Note Name: G#4
Note ON: Time 131760, Note Name: G#4, Velocity: 73
Note OFF: Time 131988, Note Name: G#4
Note OFF: Time 132000, Note Name: D#5
Note OFF: Time 132000, Note Name: C#5
Note OFF: Time 132000, Note Name: D#4
Note ON: Time 132000, Note Name: G#4, Velocity: 63
Note ON: Time 132000, Note Name: D#4, Velocity: 69
Note ON: Time 132000, Note Name: C5, Velocity: 81
Note ON: Time 132000, Note Name: D#5, Velocity: 81
Note OFF: Time 132228, Note Name: G#4
Note ON: Time 132240, Note Name: G#4, Velocity: 73
Note OFF: Time 132468, Note Name: G#4
Note OFF: Time 132480, Note Name: D#5
Note OFF: Time 132480, Note Name: C5
Note OFF: Time 132480, Note Name: D#4
Note ON: Time 132480, Note Name: G#4, Velocity: 67
Note ON: Time 132480, Note Name: E4, Velocity: 74
Note ON: Time 132480, Note Name: D#5, Velocity: 89
Note ON: Time 132480, Note Name: E5, Velocity: 89
Note OFF: Time 132708, Note Name: G#4
Note ON: Time 132720, Note Name: G#4, Velocity: 67
Note OFF: Time 132948, Note Name: G#4
Note OFF: Time 132960, Note Name: E5
Note OFF: Time 132960, Note Name: D#5
Note OFF: Time 132960, Note Name: E4
Note ON: Time 132960, Note Name: G#4, Velocity: 67
Note ON: Time 132960, Note Name: E4, Velocity: 69
Note ON: Time 132960, Note Name: C#5, Velocity: 82
Note ON: Time 132960, Note Name: E5, Velocity: 82
Note OFF: Time 133188, Note Name: G#4
Note ON: Time 133200, Note Name: G#4, Velocity: 67
Note OFF: Time 133428, Note Name: G#4
Note OFF: Time 133440, Note Name: E5
Note OFF: Time 133440, Note Name: C#5
Note OFF: Time 133440, Note Name: E4
Note ON: Time 133440, Note Name: G#4, Velocity: 63
Note ON: Time 133440, Note Name: D#4, Velocity: 71
Note ON: Time 133440, Note Name: C#5, Velocity: 85
Note ON: Time 133440, Note Name: D#5, Velocity: 85
Note OFF: Time 133668, Note Name: G#4
Note ON: Time 133680, Note Name: G#4, Velocity: 63
Note OFF: Time 133908, Note Name: G#4
Note OFF: Time 133920, Note Name: D#5
Note OFF: Time 133920, Note Name: C#5
Note OFF: Time 133920, Note Name: D#4
Note ON: Time 133920, Note Name: G#4, Velocity: 63
Note ON: Time 133920, Note Name: D#4, Velocity: 63
Note ON: Time 133920, Note Name: C5, Velocity: 77
Note ON: Time 133920, Note Name: D#5, Velocity: 77
Note OFF: Time 134148, Note Name: G#4
Note ON: Time 134160, Note Name: G#4, Velocity: 63
Note OFF: Time 134388, Note Name: G#4
Note OFF: Time 134400, Note Name: D#5
Note OFF: Time 134400, Note Name: C5
Note OFF: Time 134400, Note Name: D#4
Note ON: Time 134400, Note Name: B4, Velocity: 67
Note ON: Time 134400, Note Name: G#4, Velocity: 67
Note ON: Time 134400, Note Name: C#4, Velocity: 59
Note ON: Time 134400, Note Name: C#5, Velocity: 77
Note OFF: Time 134628, Note Name: C#4
Note ON: Time 134640, Note Name: C#4, Velocity: 59
Note OFF: Time 134868, Note Name: C#4
Note ON: Time 134880, Note Name: C#4, Velocity: 58
Note OFF: Time 135108, Note Name: C#4
Note ON: Time 135120, Note Name: C#4, Velocity: 58
Note OFF: Time 135348, Note Name: C#4
Note OFF: Time 135360, Note Name: C#5
Note OFF: Time 135360, Note Name: G#4
Note OFF: Time 135360, Note Name: B4
Note ON: Time 135360, Note Name: G#4, Velocity: 62
Note ON: Time 135360, Note Name: A4, Velocity: 62
Note ON: Time 135360, Note Name: C#5, Velocity: 72
Note ON: Time 135360, Note Name: C#4, Velocity: 55
Note OFF: Time 135588, Note Name: C#4
Note ON: Time 135600, Note Name: C#4, Velocity: 53
Note OFF: Time 135828, Note Name: C#4
Note OFF: Time 135840, Note Name: C#5
Note OFF: Time 135840, Note Name: A4
Note OFF: Time 135840, Note Name: G#4
Note ON: Time 135840, Note Name: F#4, Velocity: 62
Note ON: Time 135840, Note Name: A4, Velocity: 62
Note ON: Time 135840, Note Name: C#5, Velocity: 72
Note ON: Time 135840, Note Name: C#4, Velocity: 53
Note OFF: Time 136068, Note Name: C#4
Note ON: Time 136080, Note Name: C#4, Velocity: 53
Note OFF: Time 136308, Note Name: C#4
Note OFF: Time 136320, Note Name: C#5
Note OFF: Time 136320, Note Name: A4
Note OFF: Time 136320, Note Name: F#4
Note ON: Time 136320, Note Name: G#3, Velocity: 47
Note ON: Time 136320, Note Name: D#4, Velocity: 56
Note ON: Time 136320, Note Name: F#4, Velocity: 56
Note ON: Time 136320, Note Name: G#4, Velocity: 67
Note OFF: Time 136548, Note Name: G#3
Note ON: Time 136560, Note Name: G#3, Velocity: 47
Note OFF: Time 136788, Note Name: G#3
Note ON: Time 136800, Note Name: G#3, Velocity: 47
Note OFF: Time 137028, Note Name: G#3
Note ON: Time 137040, Note Name: G#3, Velocity: 48
Note OFF: Time 137268, Note Name: G#3
Note OFF: Time 137280, Note Name: G#4
Note OFF: Time 137280, Note Name: F#4
Note OFF: Time 137280, Note Name: D#4
Note ON: Time 137280, Note Name: G#3, Velocity: 47
Note ON: Time 137280, Note Name: C#4, Velocity: 48
Note ON: Time 137280, Note Name: F#4, Velocity: 57
Note ON: Time 137280, Note Name: G#4, Velocity: 68
Note OFF: Time 137508, Note Name: G#3
Note ON: Time 137520, Note Name: G#3, Velocity: 48
Note OFF: Time 137748, Note Name: G#3
Note OFF: Time 137760, Note Name: G#4
Note OFF: Time 137760, Note Name: F#4
Note OFF: Time 137760, Note Name: C#4
Note ON: Time 137760, Note Name: G#3, Velocity: 48
Note ON: Time 137760, Note Name: C#4, Velocity: 49
Note ON: Time 137760, Note Name: E4, Velocity: 58
Note ON: Time 137760, Note Name: A#4, Velocity: 69
Note OFF: Time 137988, Note Name: G#3
Note ON: Time 138000, Note Name: G#3, Velocity: 48
Note OFF: Time 138228, Note Name: G#3
Note OFF: Time 138240, Note Name: A#4
Note OFF: Time 138240, Note Name: E4
Note OFF: Time 138240, Note Name: C#4
Note ON: Time 138240, Note Name: G#3, Velocity: 50
Note ON: Time 138240, Note Name: C#4, Velocity: 51
Note ON: Time 138240, Note Name: E4, Velocity: 60
Note ON: Time 138240, Note Name: A#4, Velocity: 69
Note OFF: Time 138468, Note Name: G#3
Note ON: Time 138480, Note Name: G#3, Velocity: 50
Note OFF: Time 138708, Note Name: G#3
Note ON: Time 138720, Note Name: G#3, Velocity: 48
Note OFF: Time 138948, Note Name: G#3
Note ON: Time 138960, Note Name: G#3, Velocity: 48
Note OFF: Time 139188, Note Name: G#3
Note OFF: Time 139200, Note Name: A#4
Note OFF: Time 139200, Note Name: E4
Note OFF: Time 139200, Note Name: C#4
Note ON: Time 139200, Note Name: G#3, Velocity: 47
Note ON: Time 139200, Note Name: C4, Velocity: 50
Note ON: Time 139200, Note Name: D#4, Velocity: 57
Note ON: Time 139200, Note Name: G#4, Velocity: 68
Note OFF: Time 139428, Note Name: G#3
Note ON: Time 139440, Note Name: G#3, Velocity: 47
Note OFF: Time 139668, Note Name: G#3
Note OFF: Time 139680, Note Name: G#4
Note OFF: Time 139680, Note Name: D#4
Note OFF: Time 139680, Note Name: C4
Note ON: Time 139680, Note Name: G#3, Velocity: 47
Note ON: Time 139680, Note Name: C#4, Velocity: 47
Note ON: Time 139680, Note Name: E4, Velocity: 56
Note ON: Time 139680, Note Name: A#4, Velocity: 67
Note OFF: Time 139908, Note Name: G#3
Note ON: Time 139920, Note Name: G#3, Velocity: 46
Note OFF: Time 140148, Note Name: G#3
Note OFF: Time 140160, Note Name: A#4
Note OFF: Time 140160, Note Name: E4
Note OFF: Time 140160, Note Name: C#4
Note ON: Time 140160, Note Name: G#3, Velocity: 47
Note ON: Time 140160, Note Name: C#4, Velocity: 47
Note ON: Time 140160, Note Name: E4, Velocity: 56
Note ON: Time 140160, Note Name: A#4, Velocity: 67
Note OFF: Time 140388, Note Name: G#3
Note ON: Time 140400, Note Name: G#3, Velocity: 46
Note OFF: Time 140628, Note Name: G#3
Note ON: Time 140640, Note Name: G#3, Velocity: 44
Note OFF: Time 140868, Note Name: G#3
Note ON: Time 140880, Note Name: G#3, Velocity: 42
Note OFF: Time 141108, Note Name: G#3
Note OFF: Time 141120, Note Name: A#4
Note OFF: Time 141120, Note Name: E4
Note OFF: Time 141120, Note Name: C#4
Note ON: Time 141120, Note Name: G#3, Velocity: 41
Note ON: Time 141120, Note Name: C4, Velocity: 44
Note ON: Time 141120, Note Name: D#4, Velocity: 50
Note ON: Time 141120, Note Name: G#4, Velocity: 60
Note OFF: Time 141348, Note Name: G#3
Note ON: Time 141360, Note Name: G#3, Velocity: 40
Note OFF: Time 141588, Note Name: G#3
Note OFF: Time 141600, Note Name: G#4
Note OFF: Time 141600, Note Name: D#4
Note OFF: Time 141600, Note Name: C4
Note ON: Time 141600, Note Name: G#3, Velocity: 39
Note ON: Time 141600, Note Name: C#4, Velocity: 48
Note ON: Time 141600, Note Name: E4, Velocity: 48
Note ON: Time 141600, Note Name: A#4, Velocity: 57
Note OFF: Time 141828, Note Name: G#3
Note ON: Time 141840, Note Name: G#3, Velocity: 39
Note OFF: Time 142068, Note Name: G#3
Note OFF: Time 142080, Note Name: A#4
Note OFF: Time 142080, Note Name: E4
Note OFF: Time 142080, Note Name: C#4
Note ON: Time 142080, Note Name: G#3, Velocity: 38
Note ON: Time 142080, Note Name: C#4, Velocity: 46
Note ON: Time 142080, Note Name: E4, Velocity: 46
Note ON: Time 142080, Note Name: A#4, Velocity: 55
Note OFF: Time 142308, Note Name: G#3
Note ON: Time 142320, Note Name: G#3, Velocity: 38
Note OFF: Time 142548, Note Name: G#3
Note OFF: Time 142560, Note Name: A#4
Note OFF: Time 142560, Note Name: E4
Note OFF: Time 142560, Note Name: C#4
Note ON: Time 142560, Note Name: G#3, Velocity: 34
Note ON: Time 142560, Note Name: C4, Velocity: 40
Note ON: Time 142560, Note Name: D#4, Velocity: 40
Note ON: Time 142560, Note Name: G#4, Velocity: 49
Note OFF: Time 142788, Note Name: G#3
Note ON: Time 142800, Note Name: G#3, Velocity: 34
Note OFF: Time 143028, Note Name: G#3
Note OFF: Time 143040, Note Name: G#4
Note OFF: Time 143040, Note Name: D#4
Note OFF: Time 143040, Note Name: C4
Note ON: Time 143040, Note Name: G#3, Velocity: 37
Note OFF: Time 143268, Note Name: G#3
Note ON: Time 143280, Note Name: G#3, Velocity: 37
Note OFF: Time 143508, Note Name: G#3
Note ON: Time 143520, Note Name: G#3, Velocity: 40
Note OFF: Time 143748, Note Name: G#3
Note ON: Time 143760, Note Name: G#3, Velocity: 37
Note OFF: Time 143988, Note Name: G#3
Note ON: Time 144000, Note Name: F5, Velocity: 53
Note OFF: Time 144360, Note Name: F5
Note ON: Time 144360, Note Name: C#5, Velocity: 45
Note OFF: Time 144480, Note Name: C#5
Note ON: Time 144480, Note Name: G#4, Velocity: 51
Note OFF: Time 145440, Note Name: G#4
Note ON: Time 145440, Note Name: A#4, Velocity: 50
Note OFF: Time 145920, Note Name: A#4
Note ON: Time 145920, Note Name: C5, Velocity: 51
Note OFF: Time 147360, Note Name: C5
Note ON: Time 147360, Note Name: C#5, Velocity: 51
Note OFF: Time 147840, Note Name: C#5
Note ON: Time 147840, Note Name: C4, Velocity: 45
Note ON: Time 147840, Note Name: F#4, Velocity: 45
Note ON: Time 147840, Note Name: D#5, Velocity: 54
Note OFF: Time 148200, Note Name: D#5
Note OFF: Time 148200, Note Name: F#4
Note ON: Time 148200, Note Name: G#4, Velocity: 47
Note ON: Time 148200, Note Name: F5, Velocity: 56
Note OFF: Time 148320, Note Name: F5
Note OFF: Time 148320, Note Name: G#4
Note ON: Time 148320, Note Name: A#4, Velocity: 49
Note ON: Time 148320, Note Name: F#5, Velocity: 57
Note OFF: Time 149280, Note Name: F#5
Note OFF: Time 149280, Note Name: A#4
Note OFF: Time 149280, Note Name: C4
Note ON: Time 149280, Note Name: C#4, Velocity: 44
Note ON: Time 149280, Note Name: G#4, Velocity: 44
Note ON: Time 149280, Note Name: F5, Velocity: 53
Note OFF: Time 149520, Note Name: G#4
Note OFF: Time 149520, Note Name: C#4
Note OFF: Time 149760, Note Name: F5
Note ON: Time 149760, Note Name: C4, Velocity: 44
Note ON: Time 149760, Note Name: G#4, Velocity: 44
Note ON: Time 149760, Note Name: F5, Velocity: 53
Note OFF: Time 150000, Note Name: G#4
Note ON: Time 150240, Note Name: F#4, Velocity: 34
Note OFF: Time 150480, Note Name: F#4
Note OFF: Time 150480, Note Name: F5
Note ON: Time 150480, Note Name: D#5, Velocity: 49
Note OFF: Time 150720, Note Name: D#5
Note OFF: Time 150720, Note Name: C4
Note ON: Time 150720, Note Name: C#5, Velocity: 46
Note OFF: Time 151080, Note Name: C#5
Note ON: Time 151080, Note Name: D5, Velocity: 45
Note OFF: Time 151200, Note Name: D5
Note ON: Time 151200, Note Name: D#5, Velocity: 51
Note OFF: Time 151248, Note Name: D#5
Note ON: Time 151248, Note Name: F5, Velocity: 45
Note OFF: Time 151296, Note Name: F5
Note ON: Time 151296, Note Name: D#5, Velocity: 46
Note OFF: Time 151344, Note Name: D#5
Note ON: Time 151344, Note Name: D5, Velocity: 44
Note OFF: Time 151392, Note Name: D5
Note ON: Time 151392, Note Name: D#5, Velocity: 45
Note OFF: Time 151440, Note Name: D#5
Note ON: Time 151440, Note Name: E5, Velocity: 46
Note OFF: Time 151488, Note Name: E5
Note ON: Time 151488, Note Name: F5, Velocity: 51
Note OFF: Time 151536, Note Name: F5
Note ON: Time 151536, Note Name: G#5, Velocity: 55
Note OFF: Time 151584, Note Name: G#5
Note ON: Time 151584, Note Name: G5, Velocity: 53
Note OFF: Time 151632, Note Name: G5
Note ON: Time 151632, Note Name: F#5, Velocity: 51
Note OFF: Time 151680, Note Name: F#5
Note ON: Time 151680, Note Name: F5, Velocity: 49
Note OFF: Time 152040, Note Name: F5
Note ON: Time 152040, Note Name: C#5, Velocity: 44
Note OFF: Time 152160, Note Name: C#5
Note ON: Time 152160, Note Name: G#4, Velocity: 46
Note OFF: Time 153120, Note Name: G#4
Note ON: Time 153120, Note Name: A#4, Velocity: 51
Note OFF: Time 153600, Note Name: A#4
Note ON: Time 153600, Note Name: C5, Velocity: 49
Note OFF: Time 155040, Note Name: C5
Note ON: Time 155040, Note Name: A#5, Velocity: 63
Note OFF: Time 156000, Note Name: A#5
Note ON: Time 156000, Note Name: G#5, Velocity: 55
Note OFF: Time 156480, Note Name: G#5
Note ON: Time 156480, Note Name: F#5, Velocity: 54
Note OFF: Time 156960, Note Name: F#5
Note ON: Time 156960, Note Name: C5, Velocity: 47
Note OFF: Time 157440, Note Name: C5
Note ON: Time 157440, Note Name: F5, Velocity: 53
Note OFF: Time 157920, Note Name: F5
Note ON: Time 157920, Note Name: D#5, Velocity: 50
Note OFF: Time 158400, Note Name: D#5
Note ON: Time 158400, Note Name: C#5, Velocity: 46
Note OFF: Time 158880, Note Name: C#5
Note ON: Time 158880, Note Name: A#4, Velocity: 44
Note OFF: Time 159360, Note Name: A#4
Note ON: Time 159360, Note Name: A#3, Velocity: 37
Note ON: Time 159360, Note Name: D#4, Velocity: 37
Note ON: Time 159360, Note Name: F#4, Velocity: 37
Note OFF: Time 160320, Note Name: A#3
Note ON: Time 160320, Note Name: C4, Velocity: 37
Note OFF: Time 161280, Note Name: C4
Note OFF: Time 161280, Note Name: F#4
Note OFF: Time 161280, Note Name: D#4
Note ON: Time 161280, Note Name: C#4, Velocity: 37
Note ON: Time 161280, Note Name: F4, Velocity: 37
Note OFF: Time 162480, Note Name: C#4
Note ON: Time 162480, Note Name: C#4, Velocity: 41
Note OFF: Time 162720, Note Name: C#4
Note ON: Time 162720, Note Name: D#4, Velocity: 44
Note OFF: Time 163080, Note Name: D#4
Note ON: Time 163080, Note Name: C#4, Velocity: 41
Note OFF: Time 163200, Note Name: C#4
Note OFF: Time 163200, Note Name: F4
Note ON: Time 163200, Note Name: C#4, Velocity: 45
Note ON: Time 163200, Note Name: D#4, Velocity: 34
Note ON: Time 163200, Note Name: F#4, Velocity: 39
Note OFF: Time 163680, Note Name: C#4
Note ON: Time 163680, Note Name: C4, Velocity: 44
Note OFF: Time 164160, Note Name: C4
Note ON: Time 164160, Note Name: A#4, Velocity: 46
Note OFF: Time 164640, Note Name: A#4
Note ON: Time 164640, Note Name: C4, Velocity: 40
Note OFF: Time 165120, Note Name: C4
Note OFF: Time 165120, Note Name: F#4
Note OFF: Time 165120, Note Name: D#4
Note ON: Time 165120, Note Name: C4, Velocity: 31
Note ON: Time 165120, Note Name: D#4, Velocity: 31
Note ON: Time 165120, Note Name: F#4, Velocity: 37
Note OFF: Time 167040, Note Name: F#4
Note OFF: Time 167040, Note Name: D#4
Note OFF: Time 167040, Note Name: C4
Note ON: Time 167040, Note Name: C#4, Velocity: 27
Note ON: Time 167040, Note Name: F4, Velocity: 34
Note OFF: Time 168960, Note Name: F4
Note OFF: Time 168960, Note Name: C#4
Note ON: Time 168960, Note Name: G#3, Velocity: 23
Note ON: Time 168960, Note Name: C#4, Velocity: 23
Note ON: Time 168960, Note Name: F4, Velocity: 27
Note OFF: Time 170880, Note Name: F4
Note OFF: Time 170880, Note Name: C#4
Note OFF: Time 170880, Note Name: G#3
Track 2: Piano left
Note ON: Time 0, Note Name: C#3, Velocity: 35
Note OFF: Time 240, Note Name: C#3
Note ON: Time 240, Note Name: G#3, Velocity: 24
Note OFF: Time 480, Note Name: G#3
Note ON: Time 480, Note Name: F4, Velocity: 22
Note ON: Time 480, Note Name: C#4, Velocity: 17
Note ON: Time 720, Note Name: G#3, Velocity: 21
Note OFF: Time 948, Note Name: G#3
Note ON: Time 960, Note Name: G#3, Velocity: 23
Note OFF: Time 1188, Note Name: G#3
Note ON: Time 1200, Note Name: G#3, Velocity: 19
Note OFF: Time 1428, Note Name: G#3
Note OFF: Time 1440, Note Name: C#4
Note OFF: Time 1440, Note Name: F4
Note ON: Time 1440, Note Name: F4, Velocity: 27
Note ON: Time 1440, Note Name: C#4, Velocity: 21
Note OFF: Time 1680, Note Name: C#4
Note OFF: Time 1680, Note Name: F4
Note ON: Time 1680, Note Name: G#3, Velocity: 24
Note OFF: Time 1920, Note Name: G#3
Note ON: Time 1920, Note Name: F#4, Velocity: 35
Note ON: Time 1920, Note Name: D#4, Velocity: 35
Note ON: Time 2160, Note Name: G#3, Velocity: 26
Note OFF: Time 2388, Note Name: G#3
Note ON: Time 2400, Note Name: G#3, Velocity: 28
Note OFF: Time 2628, Note Name: G#3
Note ON: Time 2640, Note Name: G#3, Velocity: 32
Note OFF: Time 2868, Note Name: G#3
Note ON: Time 2880, Note Name: A#3, Velocity: 35
Note OFF: Time 3120, Note Name: A#3
Note ON: Time 3120, Note Name: G#3, Velocity: 32
Note OFF: Time 3360, Note Name: G#3
Note OFF: Time 3360, Note Name: D#4
Note OFF: Time 3360, Note Name: F#4
Note ON: Time 3360, Note Name: F4, Velocity: 35
Note ON: Time 3360, Note Name: C#4, Velocity: 35
Note OFF: Time 3600, Note Name: C#4
Note OFF: Time 3600, Note Name: F4
Note ON: Time 3600, Note Name: G#3, Velocity: 31
Note OFF: Time 3840, Note Name: G#3
Note ON: Time 4080, Note Name: G#3, Velocity: 32
Note OFF: Time 4560, Note Name: G#3
Note ON: Time 4560, Note Name: G#3, Velocity: 35
Note OFF: Time 4788, Note Name: G#3
Note ON: Time 4800, Note Name: G#3, Velocity: 32
Note OFF: Time 5028, Note Name: G#3
Note ON: Time 5040, Note Name: G#3, Velocity: 32
Note OFF: Time 5520, Note Name: G#3
Note ON: Time 5520, Note Name: G#3, Velocity: 29
Note OFF: Time 5760, Note Name: G#3
Note ON: Time 6000, Note Name: G#3, Velocity: 26
Note OFF: Time 6240, Note Name: G#3
Note ON: Time 6480, Note Name: G#3, Velocity: 27
Note OFF: Time 6720, Note Name: G#3
Note ON: Time 6720, Note Name: F4, Velocity: 31
Note ON: Time 6720, Note Name: C#4, Velocity: 26
Note OFF: Time 6960, Note Name: C#4
Note OFF: Time 6960, Note Name: F4
Note ON: Time 6960, Note Name: G#3, Velocity: 27
Note OFF: Time 7200, Note Name: G#3
Note ON: Time 7200, Note Name: F#4, Velocity: 32
Note ON: Time 7200, Note Name: C4, Velocity: 27
Note OFF: Time 7440, Note Name: C4
Note OFF: Time 7440, Note Name: F#4
Note ON: Time 7440, Note Name: G#3, Velocity: 31
Note OFF: Time 7680, Note Name: G#3
Note ON: Time 7680, Note Name: C#3, Velocity: 35
Note OFF: Time 7920, Note Name: C#3
Note ON: Time 7920, Note Name: G#3, Velocity: 30
Note OFF: Time 8160, Note Name: G#3
Note ON: Time 8160, Note Name: F4, Velocity: 22
Note ON: Time 8160, Note Name: C#4, Velocity: 18
Note ON: Time 8400, Note Name: G#3, Velocity: 21
Note OFF: Time 8628, Note Name: G#3
Note ON: Time 8640, Note Name: G#3, Velocity: 24
Note OFF: Time 8868, Note Name: G#3
Note ON: Time 8880, Note Name: G#3, Velocity: 21
Note OFF: Time 9108, Note Name: G#3
Note ON: Time 9120, Note Name: G#3, Velocity: 32
Note OFF: Time 9348, Note Name: G#3
Note ON: Time 9360, Note Name: G#3, Velocity: 28
Note OFF: Time 9588, Note Name: G#3
Note OFF: Time 9600, Note Name: C#4
Note OFF: Time 9600, Note Name: F4
Note ON: Time 9600, Note Name: F#4, Velocity: 35
Note ON: Time 9600, Note Name: D#4, Velocity: 35
Note ON: Time 9840, Note Name: G#3, Velocity: 31
Note OFF: Time 10068, Note Name: G#3
Note ON: Time 10080, Note Name: G#3, Velocity: 29
Note OFF: Time 10308, Note Name: G#3
Note ON: Time 10320, Note Name: G#3, Velocity: 32
Note OFF: Time 10548, Note Name: G#3
Note ON: Time 10560, Note Name: A#3, Velocity: 35
Note OFF: Time 10800, Note Name: A#3
Note ON: Time 10800, Note Name: G#3, Velocity: 32
Note OFF: Time 11040, Note Name: G#3
Note OFF: Time 11040, Note Name: D#4
Note OFF: Time 11040, Note Name: F#4
Note ON: Time 11040, Note Name: F4, Velocity: 35
Note ON: Time 11040, Note Name: C#4, Velocity: 35
Note OFF: Time 11280, Note Name: C#4
Note OFF: Time 11280, Note Name: F4
Note ON: Time 11280, Note Name: G#3, Velocity: 31
Note OFF: Time 11520, Note Name: G#3
Note ON: Time 11760, Note Name: G#3, Velocity: 32
Note OFF: Time 12240, Note Name: G#3
Note ON: Time 12240, Note Name: G#3, Velocity: 35
Note OFF: Time 12468, Note Name: G#3
Note ON: Time 12480, Note Name: G#3, Velocity: 32
Note OFF: Time 12708, Note Name: G#3
Note ON: Time 12720, Note Name: G#3, Velocity: 32
Note OFF: Time 13200, Note Name: G#3
Note ON: Time 13200, Note Name: G#3, Velocity: 29
Note OFF: Time 13440, Note Name: G#3
Note ON: Time 13680, Note Name: G#3, Velocity: 31
Note OFF: Time 13920, Note Name: G#3
Note ON: Time 14160, Note Name: G#3, Velocity: 31
Note OFF: Time 14400, Note Name: G#3
Note ON: Time 14400, Note Name: F4, Velocity: 35
Note ON: Time 14400, Note Name: C#4, Velocity: 29
Note OFF: Time 14640, Note Name: C#4
Note OFF: Time 14640, Note Name: F4
Note ON: Time 14640, Note Name: G#3, Velocity: 24
Note OFF: Time 14880, Note Name: G#3
Note ON: Time 14880, Note Name: F4, Velocity: 33
Note ON: Time 14880, Note Name: C#4, Velocity: 27
Note OFF: Time 15120, Note Name: C#4
Note OFF: Time 15120, Note Name: F4
Note ON: Time 15120, Note Name: G#3, Velocity: 30
Note OFF: Time 15360, Note Name: G#3
Note ON: Time 15360, Note Name: G#2, Velocity: 39
Note OFF: Time 15600, Note Name: G#2
Note ON: Time 15600, Note Name: G#3, Velocity: 32
Note OFF: Time 15840, Note Name: G#3
Note ON: Time 15840, Note Name: D#4, Velocity: 30
Note ON: Time 15840, Note Name: C4, Velocity: 30
Note OFF: Time 16080, Note Name: C4
Note OFF: Time 16080, Note Name: D#4
Note ON: Time 16080, Note Name: G#3, Velocity: 25
Note OFF: Time 16320, Note Name: G#3
Note ON: Time 16320, Note Name: B3, Velocity: 30
Note ON: Time 16320, Note Name: D#4, Velocity: 30
Note OFF: Time 16560, Note Name: D#4
Note OFF: Time 16560, Note Name: B3
Note ON: Time 16560, Note Name: G#3, Velocity: 32
Note OFF: Time 16800, Note Name: G#3
Note ON: Time 16800, Note Name: C#3, Velocity: 31
Note ON: Time 16800, Note Name: B3, Velocity: 36
Note ON: Time 16800, Note Name: F4, Velocity: 36
Note OFF: Time 17040, Note Name: F4
Note OFF: Time 17040, Note Name: B3
Note OFF: Time 17040, Note Name: C#3
Note ON: Time 17040, Note Name: C#4, Velocity: 33
Note OFF: Time 17280, Note Name: C#4
Note ON: Time 17280, Note Name: F#3, Velocity: 33
Note ON: Time 17280, Note Name: A#3, Velocity: 39
Note OFF: Time 17520, Note Name: A#3
Note OFF: Time 17520, Note Name: F#3
Note ON: Time 17520, Note Name: C#4, Velocity: 33
Note OFF: Time 17760, Note Name: C#4
Note ON: Time 17760, Note Name: A#3, Velocity: 26
Note ON: Time 17760, Note Name: F#4, Velocity: 31
Note OFF: Time 18000, Note Name: F#4
Note OFF: Time 18000, Note Name: A#3
Note ON: Time 18000, Note Name: C#4, Velocity: 25
Note OFF: Time 18240, Note Name: C#4
Note ON: Time 18240, Note Name: C#3, Velocity: 36
Note OFF: Time 18480, Note Name: C#3
Note ON: Time 18480, Note Name: G#3, Velocity: 32
Note OFF: Time 18720, Note Name: G#3
Note ON: Time 18720, Note Name: F4, Velocity: 34
Note ON: Time 18720, Note Name: C#4, Velocity: 27
Note OFF: Time 18960, Note Name: C#4
Note OFF: Time 18960, Note Name: F4
Note ON: Time 18960, Note Name: G#3, Velocity: 27
Note OFF: Time 19200, Note Name: G#3
Note ON: Time 19200, Note Name: D#3, Velocity: 39
Note OFF: Time 19440, Note Name: D#3
Note ON: Time 19440, Note Name: G#3, Velocity: 30
Note OFF: Time 19680, Note Name: G#3
Note ON: Time 19680, Note Name: D#4, Velocity: 31
Note ON: Time 19680, Note Name: B3, Velocity: 31
Note OFF: Time 19920, Note Name: B3
Note OFF: Time 19920, Note Name: D#4
Note ON: Time 19920, Note Name: G#3, Velocity: 31
Note OFF: Time 20160, Note Name: G#3
Note ON: Time 20160, Note Name: D#3, Velocity: 39
Note OFF: Time 20400, Note Name: D#3
Note ON: Time 20400, Note Name: G3, Velocity: 34
Note OFF: Time 20640, Note Name: G3
Note ON: Time 20640, Note Name: D#4, Velocity: 34
Note ON: Time 20640, Note Name: C#4, Velocity: 27
Note OFF: Time 20880, Note Name: C#4
Note OFF: Time 20880, Note Name: D#4
Note ON: Time 20880, Note Name: G3, Velocity: 29
Note OFF: Time 21120, Note Name: G3
Note ON: Time 21120, Note Name: G#2, Velocity: 39
Note OFF: Time 21360, Note Name: G#2
Note ON: Time 21360, Note Name: G#3, Velocity: 30
Note OFF: Time 21600, Note Name: G#3
Note ON: Time 21600, Note Name: D#4, Velocity: 37
Note ON: Time 21600, Note Name: B3, Velocity: 32
Note OFF: Time 21840, Note Name: B3
Note OFF: Time 21840, Note Name: D#4
Note ON: Time 21840, Note Name: G#3, Velocity: 31
Note OFF: Time 22080, Note Name: G#3
Note ON: Time 22080, Note Name: C#4, Velocity: 36
Note ON: Time 22080, Note Name: A#3, Velocity: 30
Note OFF: Time 22320, Note Name: A#3
Note OFF: Time 22320, Note Name: C#4
Note ON: Time 22320, Note Name: G#3, Velocity: 29
Note OFF: Time 22560, Note Name: G#3
Note ON: Time 22560, Note Name: E4, Velocity: 36
Note ON: Time 22560, Note Name: C#4, Velocity: 30
Note OFF: Time 22800, Note Name: C#4
Note OFF: Time 22800, Note Name: E4
Note ON: Time 22800, Note Name: G#3, Velocity: 34
Note OFF: Time 23040, Note Name: G#3
Note ON: Time 23040, Note Name: G#2, Velocity: 43
Note OFF: Time 23280, Note Name: G#2
Note ON: Time 23280, Note Name: G#3, Velocity: 37
Note OFF: Time 23520, Note Name: G#3
Note ON: Time 23520, Note Name: D#4, Velocity: 37
Note ON: Time 23520, Note Name: B3, Velocity: 32
Note ON: Time 23760, Note Name: G#3, Velocity: 39
Note OFF: Time 23988, Note Name: G#3
Note ON: Time 24000, Note Name: G#3, Velocity: 43
Note OFF: Time 24228, Note Name: G#3
Note ON: Time 24240, Note Name: G#3, Velocity: 40
Note OFF: Time 24468, Note Name: G#3
Note OFF: Time 24480, Note Name: B3
Note OFF: Time 24480, Note Name: D#4
Note ON: Time 24480, Note Name: F4, Velocity: 46
Note ON: Time 24480, Note Name: B3, Velocity: 39
Note OFF: Time 24720, Note Name: B3
Note OFF: Time 24720, Note Name: F4
Note ON: Time 24720, Note Name: G#3, Velocity: 44
Note OFF: Time 24960, Note Name: G#3
Note ON: Time 24960, Note Name: D#3, Velocity: 50
Note OFF: Time 25200, Note Name: D#3
Note ON: Time 25200, Note Name: F#3, Velocity: 36
Note OFF: Time 25440, Note Name: F#3
Note ON: Time 25440, Note Name: F#4, Velocity: 43
Note ON: Time 25440, Note Name: A#3, Velocity: 36
Note OFF: Time 25680, Note Name: A#3
Note OFF: Time 25680, Note Name: F#4
Note ON: Time 25680, Note Name: F#3, Velocity: 32
Note OFF: Time 25920, Note Name: F#3
Note ON: Time 25920, Note Name: A#2, Velocity: 47
Note OFF: Time 26160, Note Name: A#2
Note ON: Time 26160, Note Name: F3, Velocity: 36
Note OFF: Time 26400, Note Name: F3
Note ON: Time 26400, Note Name: F4, Velocity: 36
Note ON: Time 26400, Note Name: C#4, Velocity: 30
Note ON: Time 26400, Note Name: A#3, Velocity: 30
Note OFF: Time 26640, Note Name: A#3
Note OFF: Time 26640, Note Name: C#4
Note OFF: Time 26640, Note Name: F4
Note ON: Time 26640, Note Name: F3, Velocity: 31
Note OFF: Time 26880, Note Name: F3
Note ON: Time 26880, Note Name: F2, Velocity: 43
Note OFF: Time 27120, Note Name: F2
Note ON: Time 27120, Note Name: F3, Velocity: 35
Note OFF: Time 27360, Note Name: F3
Note ON: Time 27360, Note Name: F4, Velocity: 36
Note ON: Time 27360, Note Name: C#4, Velocity: 30
Note ON: Time 27360, Note Name: A#3, Velocity: 30
Note OFF: Time 27600, Note Name: A#3
Note OFF: Time 27600, Note Name: C#4
Note OFF: Time 27600, Note Name: F4
Note ON: Time 27600, Note Name: F3, Velocity: 29
Note OFF: Time 27840, Note Name: F3
Note ON: Time 27840, Note Name: F2, Velocity: 43
Note OFF: Time 28080, Note Name: F2
Note ON: Time 28080, Note Name: F3, Velocity: 33
Note OFF: Time 28320, Note Name: F3
Note ON: Time 28320, Note Name: F4, Velocity: 37
Note ON: Time 28320, Note Name: D#4, Velocity: 29
Note ON: Time 28320, Note Name: A3, Velocity: 27
Note OFF: Time 28560, Note Name: A3
Note OFF: Time 28560, Note Name: D#4
Note OFF: Time 28560, Note Name: F4
Note ON: Time 28560, Note Name: F3, Velocity: 30
Note OFF: Time 28800, Note Name: F3
Note ON: Time 28800, Note Name: A#2, Velocity: 43
Note OFF: Time 29040, Note Name: A#2
Note ON: Time 29040, Note Name: F3, Velocity: 37
Note OFF: Time 29280, Note Name: F3
Note ON: Time 29280, Note Name: F4, Velocity: 44
Note ON: Time 29280, Note Name: C#4, Velocity: 36
Note OFF: Time 29520, Note Name: C#4
Note OFF: Time 29520, Note Name: F4
Note ON: Time 29520, Note Name: F3, Velocity: 39
Note OFF: Time 29760, Note Name: F3
Note ON: Time 29760, Note Name: D#4, Velocity: 43
Note ON: Time 29760, Note Name: C4, Velocity: 36
Note OFF: Time 30000, Note Name: C4
Note OFF: Time 30000, Note Name: D#4
Note ON: Time 30000, Note Name: F3, Velocity: 37
Note OFF: Time 30240, Note Name: F3
Note ON: Time 30240, Note Name: F#4, Velocity: 43
Note ON: Time 30240, Note Name: D#4, Velocity: 36
Note OFF: Time 30480, Note Name: D#4
Note OFF: Time 30480, Note Name: F#4
Note ON: Time 30480, Note Name: F3, Velocity: 36
Note OFF: Time 30720, Note Name: F3
Note ON: Time 30720, Note Name: F4, Velocity: 43
Note ON: Time 30720, Note Name: C#4, Velocity: 36
Note OFF: Time 30960, Note Name: C#4
Note OFF: Time 30960, Note Name: F4
Note ON: Time 30960, Note Name: F3, Velocity: 34
Note OFF: Time 31200, Note Name: F3
Note ON: Time 31200, Note Name: F4, Velocity: 36
Note ON: Time 31200, Note Name: C#4, Velocity: 25
Note ON: Time 31200, Note Name: A#3, Velocity: 25
Note OFF: Time 31440, Note Name: A#3
Note OFF: Time 31440, Note Name: C#4
Note OFF: Time 31440, Note Name: F4
Note ON: Time 31440, Note Name: F3, Velocity: 31
Note OFF: Time 31680, Note Name: F3
Note ON: Time 31680, Note Name: D#4, Velocity: 43
Note ON: Time 31680, Note Name: A3, Velocity: 36
Note OFF: Time 31920, Note Name: A3
Note OFF: Time 31920, Note Name: D#4
Note ON: Time 31920, Note Name: F3, Velocity: 37
Note OFF: Time 32160, Note Name: F3
Note ON: Time 32160, Note Name: D#4, Velocity: 30
Note ON: Time 32160, Note Name: F4, Velocity: 37
Note OFF: Time 32400, Note Name: F4
Note OFF: Time 32400, Note Name: D#4
Note ON: Time 32400, Note Name: F3, Velocity: 39
Note OFF: Time 32640, Note Name: F3
Note ON: Time 32640, Note Name: A#2, Velocity: 43
Note OFF: Time 32880, Note Name: A#2
Note ON: Time 32880, Note Name: F3, Velocity: 37
Note OFF: Time 33120, Note Name: F3
Note ON: Time 33120, Note Name: D#4, Velocity: 45
Note ON: Time 33120, Note Name: C4, Velocity: 37
Note OFF: Time 33360, Note Name: C4
Note OFF: Time 33360, Note Name: D#4
Note ON: Time 33360, Note Name: F3, Velocity: 39
Note OFF: Time 33600, Note Name: F3
Note ON: Time 33600, Note Name: F4, Velocity: 50
Note ON: Time 33600, Note Name: C#4, Velocity: 41
Note OFF: Time 33840, Note Name: C#4
Note OFF: Time 33840, Note Name: F4
Note ON: Time 33840, Note Name: F3, Velocity: 43
Note OFF: Time 34080, Note Name: F3
Note ON: Time 34080, Note Name: D#4, Velocity: 51
Note ON: Time 34080, Note Name: C4, Velocity: 43
Note OFF: Time 34320, Note Name: C4
Note OFF: Time 34320, Note Name: D#4
Note ON: Time 34320, Note Name: F3, Velocity: 43
Note OFF: Time 34560, Note Name: F3
Note ON: Time 34560, Note Name: F4, Velocity: 53
Note ON: Time 34560, Note Name: C#4, Velocity: 44
Note ON: Time 34800, Note Name: F3, Velocity: 39
Note OFF: Time 35040, Note Name: F3
Note ON: Time 35040, Note Name: F3, Velocity: 39
Note OFF: Time 35280, Note Name: F3
Note ON: Time 35280, Note Name: F3, Velocity: 39
Note OFF: Time 35520, Note Name: F3
Note OFF: Time 35520, Note Name: C#4
Note OFF: Time 35520, Note Name: F4
Note ON: Time 35520, Note Name: F4, Velocity: 43
Note ON: Time 35520, Note Name: C#4, Velocity: 35
Note OFF: Time 35760, Note Name: C#4
Note OFF: Time 35760, Note Name: F4
Note ON: Time 35760, Note Name: F#3, Velocity: 36
Note ON: Time 36000, Note Name: D#4, Velocity: 37
Note ON: Time 36000, Note Name: C4, Velocity: 32
Note OFF: Time 36240, Note Name: C4
Note OFF: Time 36240, Note Name: D#4
Note OFF: Time 36240, Note Name: F#3
Note ON: Time 36240, Note Name: G#3, Velocity: 27
Note OFF: Time 36480, Note Name: G#3
Note ON: Time 36480, Note Name: C#3, Velocity: 35
Note OFF: Time 36720, Note Name: C#3
Note ON: Time 36720, Note Name: G#3, Velocity: 30
Note OFF: Time 36960, Note Name: G#3
Note ON: Time 36960, Note Name: F4, Velocity: 27
Note ON: Time 36960, Note Name: C#4, Velocity: 17
Note ON: Time 37200, Note Name: G#3, Velocity: 23
Note OFF: Time 37440, Note Name: G#3
Note ON: Time 37440, Note Name: G#3, Velocity: 23
Note OFF: Time 37680, Note Name: G#3
Note ON: Time 37680, Note Name: G#3, Velocity: 19
Note OFF: Time 37920, Note Name: G#3
Note OFF: Time 37920, Note Name: C#4
Note OFF: Time 37920, Note Name: F4
Note ON: Time 37920, Note Name: F4, Velocity: 30
Note ON: Time 37920, Note Name: C#4, Velocity: 19
Note OFF: Time 38160, Note Name: C#4
Note OFF: Time 38160, Note Name: F4
Note ON: Time 38160, Note Name: G#3, Velocity: 28
Note OFF: Time 38400, Note Name: G#3
Note ON: Time 38400, Note Name: F#4, Velocity: 35
Note ON: Time 38400, Note Name: D#4, Velocity: 35
Note ON: Time 38640, Note Name: G#3, Velocity: 26
Note OFF: Time 38880, Note Name: G#3
Note ON: Time 38880, Note Name: G#3, Velocity: 28
Note OFF: Time 39120, Note Name: G#3
Note ON: Time 39120, Note Name: G#3, Velocity: 32
Note OFF: Time 39360, Note Name: G#3
Note ON: Time 39360, Note Name: A#3, Velocity: 35
Note OFF: Time 39600, Note Name: A#3
Note ON: Time 39600, Note Name: G#3, Velocity: 32
Note OFF: Time 39840, Note Name: G#3
Note OFF: Time 39840, Note Name: D#4
Note OFF: Time 39840, Note Name: F#4
Note ON: Time 39840, Note Name: F4, Velocity: 35
Note ON: Time 39840, Note Name: C#4, Velocity: 35
Note OFF: Time 40080, Note Name: C#4
Note OFF: Time 40080, Note Name: F4
Note ON: Time 40080, Note Name: G#3, Velocity: 29
Note OFF: Time 40320, Note Name: G#3
Note ON: Time 40560, Note Name: G#3, Velocity: 32
Note OFF: Time 41040, Note Name: G#3
Note ON: Time 41040, Note Name: G#3, Velocity: 35
Note OFF: Time 41268, Note Name: G#3
Note ON: Time 41280, Note Name: G#3, Velocity: 32
Note OFF: Time 41508, Note Name: G#3
Note ON: Time 41520, Note Name: G#3, Velocity: 32
Note OFF: Time 42000, Note Name: G#3
Note ON: Time 42000, Note Name: G#3, Velocity: 29
Note OFF: Time 42240, Note Name: G#3
Note ON: Time 42480, Note Name: G#3, Velocity: 31
Note OFF: Time 42720, Note Name: G#3
Note ON: Time 42960, Note Name: G#3, Velocity: 27
Note OFF: Time 43200, Note Name: G#3
Note ON: Time 43200, Note Name: F4, Velocity: 35
Note ON: Time 43200, Note Name: C#4, Velocity: 29
Note OFF: Time 43440, Note Name: C#4
Note OFF: Time 43440, Note Name: F4
Note ON: Time 43440, Note Name: G#3, Velocity: 27
Note OFF: Time 43680, Note Name: G#3
Note ON: Time 43680, Note Name: F#4, Velocity: 32
Note ON: Time 43680, Note Name: C4, Velocity: 27
Note OFF: Time 43920, Note Name: C4
Note OFF: Time 43920, Note Name: F#4
Note ON: Time 43920, Note Name: G#3, Velocity: 31
Note OFF: Time 44160, Note Name: G#3
Note ON: Time 44160, Note Name: C#3, Velocity: 35
Note OFF: Time 44400, Note Name: C#3
Note ON: Time 44400, Note Name: G#3, Velocity: 30
Note OFF: Time 44640, Note Name: G#3
Note ON: Time 44640, Note Name: F4, Velocity: 26
Note ON: Time 44640, Note Name: C#4, Velocity: 18
Note ON: Time 44880, Note Name: G#3, Velocity: 23
Note OFF: Time 45108, Note Name: G#3
Note ON: Time 45120, Note Name: G#3, Velocity: 24
Note OFF: Time 45348, Note Name: G#3
Note ON: Time 45360, Note Name: G#3, Velocity: 21
Note OFF: Time 45588, Note Name: G#3
Note ON: Time 45600, Note Name: G#3, Velocity: 30
Note OFF: Time 45828, Note Name: G#3
Note ON: Time 45840, Note Name: G#3, Velocity: 28
Note OFF: Time 46068, Note Name: G#3
Note OFF: Time 46080, Note Name: C#4
Note OFF: Time 46080, Note Name: F4
Note ON: Time 46080, Note Name: F#4, Velocity: 35
Note ON: Time 46080, Note Name: D#4, Velocity: 35
Note ON: Time 46320, Note Name: G#3, Velocity: 31
Note OFF: Time 46548, Note Name: G#3
Note ON: Time 46560, Note Name: G#3, Velocity: 29
Note OFF: Time 46788, Note Name: G#3
Note ON: Time 46800, Note Name: G#3, Velocity: 32
Note OFF: Time 47028, Note Name: G#3
Note ON: Time 47040, Note Name: A#3, Velocity: 35
Note OFF: Time 47280, Note Name: A#3
Note ON: Time 47280, Note Name: G#3, Velocity: 32
Note OFF: Time 47520, Note Name: G#3
Note OFF: Time 47520, Note Name: D#4
Note OFF: Time 47520, Note Name: F#4
Note ON: Time 47520, Note Name: F4, Velocity: 35
Note ON: Time 47520, Note Name: C#4, Velocity: 35
Note OFF: Time 47760, Note Name: C#4
Note OFF: Time 47760, Note Name: F4
Note ON: Time 47760, Note Name: G#3, Velocity: 31
Note OFF: Time 48000, Note Name: G#3
Note ON: Time 48240, Note Name: G#3, Velocity: 32
Note OFF: Time 48720, Note Name: G#3
Note ON: Time 48720, Note Name: G#3, Velocity: 35
Note OFF: Time 48960, Note Name: G#3
Note ON: Time 48960, Note Name: G#3, Velocity: 32
Note OFF: Time 49200, Note Name: G#3
Note ON: Time 49200, Note Name: G#3, Velocity: 32
Note OFF: Time 49680, Note Name: G#3
Note ON: Time 49680, Note Name: G#3, Velocity: 29
Note OFF: Time 49920, Note Name: G#3
Note ON: Time 50160, Note Name: G#3, Velocity: 26
Note OFF: Time 50388, Note Name: G#3
Note ON: Time 50400, Note Name: G#3, Velocity: 29
Note OFF: Time 50628, Note Name: G#3
Note ON: Time 50640, Note Name: G#3, Velocity: 27
Note OFF: Time 50868, Note Name: G#3
Note ON: Time 50880, Note Name: G#3, Velocity: 30
Note OFF: Time 51108, Note Name: G#3
Note ON: Time 51120, Note Name: G#3, Velocity: 27
Note OFF: Time 51348, Note Name: G#3
Note ON: Time 51360, Note Name: G#3, Velocity: 30
Note OFF: Time 51588, Note Name: G#3
Note ON: Time 51600, Note Name: G#3, Velocity: 26
Note OFF: Time 51828, Note Name: G#3
Note ON: Time 51840, Note Name: C#2, Velocity: 26
Note ON: Time 51840, Note Name: G#2, Velocity: 31
Note OFF: Time 52320, Note Name: G#2
Note OFF: Time 52320, Note Name: C#2
Note ON: Time 52320, Note Name: D#2, Velocity: 24
Note ON: Time 52320, Note Name: G#2, Velocity: 29
Note OFF: Time 52800, Note Name: G#2
Note OFF: Time 52800, Note Name: D#2
Note ON: Time 52800, Note Name: E2, Velocity: 29
Note ON: Time 52800, Note Name: C#3, Velocity: 35
Note OFF: Time 53280, Note Name: C#3
Note OFF: Time 53280, Note Name: E2
Note ON: Time 53280, Note Name: D#2, Velocity: 27
Note ON: Time 53280, Note Name: C3, Velocity: 33
Note OFF: Time 53760, Note Name: C3
Note OFF: Time 53760, Note Name: D#2
Note ON: Time 53760, Note Name: D#2, Velocity: 33
Note ON: Time 53760, Note Name: G#2, Velocity: 39
Note OFF: Time 54240, Note Name: G#2
Note OFF: Time 54240, Note Name: D#2
Note ON: Time 54240, Note Name: E2, Velocity: 29
Note ON: Time 54240, Note Name: G#2, Velocity: 35
Note OFF: Time 54720, Note Name: G#2
Note OFF: Time 54720, Note Name: E2
Note ON: Time 54720, Note Name: F#2, Velocity: 35
Note ON: Time 54720, Note Name: D#3, Velocity: 41
Note OFF: Time 55200, Note Name: D#3
Note OFF: Time 55200, Note Name: F#2
Note ON: Time 55200, Note Name: E2, Velocity: 31
Note ON: Time 55200, Note Name: C#3, Velocity: 38
Note OFF: Time 55680, Note Name: C#3
Note OFF: Time 55680, Note Name: E2
Note ON: Time 55680, Note Name: E2, Velocity: 38
Note ON: Time 55680, Note Name: C#3, Velocity: 46
Note OFF: Time 56160, Note Name: C#3
Note OFF: Time 56160, Note Name: E2
Note ON: Time 56160, Note Name: G#2, Velocity: 38
Note ON: Time 56160, Note Name: D#3, Velocity: 46
Note OFF: Time 56640, Note Name: D#3
Note OFF: Time 56640, Note Name: G#2
Note ON: Time 56640, Note Name: C#3, Velocity: 41
Note ON: Time 56640, Note Name: E3, Velocity: 49
Note OFF: Time 57120, Note Name: E3
Note OFF: Time 57120, Note Name: C#3
Note ON: Time 57120, Note Name: G#2, Velocity: 38
Note ON: Time 57120, Note Name: D#3, Velocity: 46
Note OFF: Time 57600, Note Name: D#3
Note OFF: Time 57600, Note Name: G#2
Note ON: Time 57600, Note Name: G#2, Velocity: 39
Note ON: Time 57600, Note Name: D#3, Velocity: 47
Note OFF: Time 60000, Note Name: D#3
Note OFF: Time 60000, Note Name: G#2
Note ON: Time 60000, Note Name: C#3, Velocity: 33
Note ON: Time 60000, Note Name: E3, Velocity: 39
Note OFF: Time 60480, Note Name: E3
Note OFF: Time 60480, Note Name: C#3
Note ON: Time 60480, Note Name: G#2, Velocity: 35
Note ON: Time 60480, Note Name: D#3, Velocity: 41
Note OFF: Time 60960, Note Name: D#3
Note OFF: Time 60960, Note Name: G#2
Note ON: Time 60960, Note Name: E2, Velocity: 30
Note ON: Time 60960, Note Name: C#3, Velocity: 37
Note OFF: Time 61440, Note Name: C#3
Note OFF: Time 61440, Note Name: E2
Note ON: Time 61440, Note Name: G#2, Velocity: 35
Note ON: Time 61440, Note Name: D#3, Velocity: 41
Note OFF: Time 61920, Note Name: D#3
Note OFF: Time 61920, Note Name: G#2
Note ON: Time 61920, Note Name: E2, Velocity: 30
Note ON: Time 61920, Note Name: C#3, Velocity: 37
Note OFF: Time 62400, Note Name: C#3
Note OFF: Time 62400, Note Name: E2
Note ON: Time 62400, Note Name: D#2, Velocity: 31
Note ON: Time 62400, Note Name: C3, Velocity: 38
Note OFF: Time 62880, Note Name: C3
Note OFF: Time 62880, Note Name: D#2
Note ON: Time 62880, Note Name: E2, Velocity: 29
Note ON: Time 62880, Note Name: C#3, Velocity: 35
Note OFF: Time 63360, Note Name: C#3
Note OFF: Time 63360, Note Name: E2
Note ON: Time 63360, Note Name: D#2, Velocity: 33
Note ON: Time 63360, Note Name: C3, Velocity: 39
Note OFF: Time 63840, Note Name: C3
Note OFF: Time 63840, Note Name: D#2
Note ON: Time 63840, Note Name: E2, Velocity: 30
Note ON: Time 63840, Note Name: C#3, Velocity: 37
Note OFF: Time 64320, Note Name: C#3
Note OFF: Time 64320, Note Name: E2
Note ON: Time 64320, Note Name: D#2, Velocity: 34
Note ON: Time 64320, Note Name: D#3, Velocity: 40
Note OFF: Time 64800, Note Name: D#3
Note OFF: Time 64800, Note Name: D#2
Note ON: Time 64800, Note Name: C#2, Velocity: 37
Note ON: Time 64800, Note Name: E3, Velocity: 45
Note OFF: Time 65280, Note Name: E3
Note OFF: Time 65280, Note Name: C#2
Note ON: Time 65280, Note Name: G#2, Velocity: 40
Note ON: Time 65280, Note Name: D#3, Velocity: 48
Note OFF: Time 67200, Note Name: D#3
Note OFF: Time 67200, Note Name: G#2
Note ON: Time 67200, Note Name: C#2, Velocity: 52
Note ON: Time 67200, Note Name: G#2, Velocity: 62
Note OFF: Time 67680, Note Name: G#2
Note OFF: Time 67680, Note Name: C#2
Note ON: Time 67680, Note Name: D#2, Velocity: 51
Note ON: Time 67680, Note Name: G#2, Velocity: 61
Note OFF: Time 68160, Note Name: G#2
Note OFF: Time 68160, Note Name: D#2
Note ON: Time 68160, Note Name: E2, Velocity: 56
Note ON: Time 68160, Note Name: C#3, Velocity: 67
Note OFF: Time 68640, Note Name: C#3
Note OFF: Time 68640, Note Name: E2
Note ON: Time 68640, Note Name: D#2, Velocity: 52
Note ON: Time 68640, Note Name: C3, Velocity: 62
Note OFF: Time 69120, Note Name: C3
Note OFF: Time 69120, Note Name: D#2
Note ON: Time 69120, Note Name: D#2, Velocity: 57
Note ON: Time 69120, Note Name: G#2, Velocity: 67
Note OFF: Time 69600, Note Name: G#2
Note OFF: Time 69600, Note Name: D#2
Note ON: Time 69600, Note Name: E2, Velocity: 56
Note ON: Time 69600, Note Name: G#2, Velocity: 66
Note OFF: Time 70080, Note Name: G#2
Note OFF: Time 70080, Note Name: E2
Note ON: Time 70080, Note Name: F#2, Velocity: 60
Note ON: Time 70080, Note Name: D#3, Velocity: 71
Note OFF: Time 70560, Note Name: D#3
Note OFF: Time 70560, Note Name: F#2
Note ON: Time 70560, Note Name: E2, Velocity: 57
Note ON: Time 70560, Note Name: C#3, Velocity: 68
Note OFF: Time 71040, Note Name: C#3
Note OFF: Time 71040, Note Name: E2
Note ON: Time 71040, Note Name: E2, Velocity: 59
Note ON: Time 71040, Note Name: C#3, Velocity: 70
Note OFF: Time 71520, Note Name: C#3
Note OFF: Time 71520, Note Name: E2
Note ON: Time 71520, Note Name: G#2, Velocity: 61
Note ON: Time 71520, Note Name: D#3, Velocity: 73
Note OFF: Time 72000, Note Name: D#3
Note OFF: Time 72000, Note Name: G#2
Note ON: Time 72000, Note Name: C#3, Velocity: 66
Note ON: Time 72000, Note Name: E3, Velocity: 78
Note OFF: Time 72480, Note Name: E3
Note OFF: Time 72480, Note Name: C#3
Note ON: Time 72480, Note Name: G#2, Velocity: 61
Note ON: Time 72480, Note Name: D#3, Velocity: 73
Note OFF: Time 72840, Note Name: D#3
Note OFF: Time 72840, Note Name: G#2
Note ON: Time 72840, Note Name: G#1, Velocity: 82
Note OFF: Time 72960, Note Name: G#1
Note ON: Time 72960, Note Name: G#2, Velocity: 62
Note ON: Time 72960, Note Name: D#3, Velocity: 74
Note OFF: Time 74880, Note Name: D#3
Note OFF: Time 74880, Note Name: G#2
Note ON: Time 74880, Note Name: E1, Velocity: 74
Note ON: Time 74880, Note Name: E2, Velocity: 88
Note OFF: Time 75840, Note Name: E2
Note OFF: Time 75840, Note Name: E1
Note ON: Time 75840, Note Name: B1, Velocity: 70
Note ON: Time 75840, Note Name: B2, Velocity: 83
Note OFF: Time 76800, Note Name: B2
Note OFF: Time 76800, Note Name: B1
Note ON: Time 76800, Note Name: E1, Velocity: 74
Note ON: Time 76800, Note Name: E2, Velocity: 88
Note OFF: Time 77760, Note Name: E2
Note OFF: Time 77760, Note Name: E1
Note ON: Time 77760, Note Name: B1, Velocity: 72
Note ON: Time 77760, Note Name: B2, Velocity: 85
Note OFF: Time 78480, Note Name: B2
Note OFF: Time 78480, Note Name: B1
Note ON: Time 78480, Note Name: A#1, Velocity: 74
Note ON: Time 78480, Note Name: A#2, Velocity: 88
Note OFF: Time 78720, Note Name: A#2
Note OFF: Time 78720, Note Name: A#1
Note ON: Time 78720, Note Name: G#1, Velocity: 74
Note ON: Time 78720, Note Name: G#2, Velocity: 88
Note OFF: Time 79680, Note Name: G#2
Note OFF: Time 79680, Note Name: G#1
Note ON: Time 79680, Note Name: D#2, Velocity: 71
Note ON: Time 79680, Note Name: D#3, Velocity: 84
Note OFF: Time 80640, Note Name: D#3
Note OFF: Time 80640, Note Name: D#2
Note ON: Time 80640, Note Name: G#1, Velocity: 67
Note ON: Time 80640, Note Name: G#2, Velocity: 79
Note OFF: Time 81600, Note Name: G#2
Note OFF: Time 81600, Note Name: G#1
Note ON: Time 82560, Note Name: C#2, Velocity: 29
Note ON: Time 82560, Note Name: G#2, Velocity: 35
Note OFF: Time 83040, Note Name: G#2
Note OFF: Time 83040, Note Name: C#2
Note ON: Time 83040, Note Name: D#2, Velocity: 26
Note ON: Time 83040, Note Name: G#2, Velocity: 31
Note OFF: Time 83520, Note Name: G#2
Note OFF: Time 83520, Note Name: D#2
Note ON: Time 83520, Note Name: E2, Velocity: 29
Note ON: Time 83520, Note Name: C#3, Velocity: 35
Note OFF: Time 84000, Note Name: C#3
Note OFF: Time 84000, Note Name: E2
Note ON: Time 84000, Note Name: D#2, Velocity: 27
Note ON: Time 84000, Note Name: C3, Velocity: 33
Note OFF: Time 84480, Note Name: C3
Note OFF: Time 84480, Note Name: D#2
Note ON: Time 84480, Note Name: D#2, Velocity: 33
Note ON: Time 84480, Note Name: G#2, Velocity: 39
Note OFF: Time 84960, Note Name: G#2
Note OFF: Time 84960, Note Name: D#2
Note ON: Time 84960, Note Name: E2, Velocity: 29
Note ON: Time 84960, Note Name: G#2, Velocity: 35
Note OFF: Time 85440, Note Name: G#2
Note OFF: Time 85440, Note Name: E2
Note ON: Time 85440, Note Name: F#2, Velocity: 35
Note ON: Time 85440, Note Name: D#3, Velocity: 41
Note OFF: Time 85920, Note Name: D#3
Note OFF: Time 85920, Note Name: F#2
Note ON: Time 85920, Note Name: E2, Velocity: 31
Note ON: Time 85920, Note Name: C#3, Velocity: 38
Note OFF: Time 86400, Note Name: C#3
Note OFF: Time 86400, Note Name: E2
Note ON: Time 86400, Note Name: E2, Velocity: 38
Note ON: Time 86400, Note Name: C#3, Velocity: 46
Note OFF: Time 86880, Note Name: C#3
Note OFF: Time 86880, Note Name: E2
Note ON: Time 86880, Note Name: G#2, Velocity: 38
Note ON: Time 86880, Note Name: D#3, Velocity: 46
Note OFF: Time 87360, Note Name: D#3
Note OFF: Time 87360, Note Name: G#2
Note ON: Time 87360, Note Name: C#3, Velocity: 41
Note ON: Time 87360, Note Name: E3, Velocity: 49
Note OFF: Time 87840, Note Name: E3
Note OFF: Time 87840, Note Name: C#3
Note ON: Time 87840, Note Name: G#2, Velocity: 38
Note ON: Time 87840, Note Name: D#3, Velocity: 46
Note OFF: Time 88320, Note Name: D#3
Note OFF: Time 88320, Note Name: G#2
Note ON: Time 88320, Note Name: G#2, Velocity: 39
Note ON: Time 88320, Note Name: D#3, Velocity: 47
Note OFF: Time 90720, Note Name: D#3
Note OFF: Time 90720, Note Name: G#2
Note ON: Time 90720, Note Name: C#3, Velocity: 33
Note ON: Time 90720, Note Name: E3, Velocity: 39
Note OFF: Time 91200, Note Name: E3
Note OFF: Time 91200, Note Name: C#3
Note ON: Time 91200, Note Name: G#2, Velocity: 35
Note ON: Time 91200, Note Name: D#3, Velocity: 41
Note OFF: Time 91680, Note Name: D#3
Note OFF: Time 91680, Note Name: G#2
Note ON: Time 91680, Note Name: E2, Velocity: 30
Note ON: Time 91680, Note Name: C#3, Velocity: 37
Note OFF: Time 92160, Note Name: C#3
Note OFF: Time 92160, Note Name: E2
Note ON: Time 92160, Note Name: G#2, Velocity: 35
Note ON: Time 92160, Note Name: D#3, Velocity: 41
Note OFF: Time 92640, Note Name: D#3
Note OFF: Time 92640, Note Name: G#2
Note ON: Time 92640, Note Name: E2, Velocity: 30
Note ON: Time 92640, Note Name: C#3, Velocity: 37
Note OFF: Time 93120, Note Name: C#3
Note OFF: Time 93120, Note Name: E2
Note ON: Time 93120, Note Name: D#2, Velocity: 31
Note ON: Time 93120, Note Name: C3, Velocity: 38
Note OFF: Time 93600, Note Name: C3
Note OFF: Time 93600, Note Name: D#2
Note ON: Time 93600, Note Name: E2, Velocity: 29
Note ON: Time 93600, Note Name: C#3, Velocity: 35
Note OFF: Time 94080, Note Name: C#3
Note OFF: Time 94080, Note Name: E2
Note ON: Time 94080, Note Name: D#2, Velocity: 33
Note ON: Time 94080, Note Name: C3, Velocity: 39
Note OFF: Time 94560, Note Name: C3
Note OFF: Time 94560, Note Name: D#2
Note ON: Time 94560, Note Name: E2, Velocity: 30
Note ON: Time 94560, Note Name: C#3, Velocity: 37
Note OFF: Time 95040, Note Name: C#3
Note OFF: Time 95040, Note Name: E2
Note ON: Time 95040, Note Name: D#2, Velocity: 34
Note ON: Time 95040, Note Name: D#3, Velocity: 40
Note OFF: Time 95520, Note Name: D#3
Note OFF: Time 95520, Note Name: D#2
Note ON: Time 95520, Note Name: C#2, Velocity: 37
Note ON: Time 95520, Note Name: E3, Velocity: 45
Note OFF: Time 96000, Note Name: E3
Note OFF: Time 96000, Note Name: C#2
Note ON: Time 96000, Note Name: G#2, Velocity: 40
Note ON: Time 96000, Note Name: D#3, Velocity: 48
Note OFF: Time 97920, Note Name: D#3
Note OFF: Time 97920, Note Name: G#2
Note ON: Time 97920, Note Name: C#2, Velocity: 52
Note ON: Time 97920, Note Name: G#2, Velocity: 62
Note OFF: Time 98400, Note Name: G#2
Note OFF: Time 98400, Note Name: C#2
Note ON: Time 98400, Note Name: D#2, Velocity: 51
Note ON: Time 98400, Note Name: G#2, Velocity: 61
Note OFF: Time 98880, Note Name: G#2
Note OFF: Time 98880, Note Name: D#2
Note ON: Time 98880, Note Name: E2, Velocity: 56
Note ON: Time 98880, Note Name: C#3, Velocity: 67
Note OFF: Time 99360, Note Name: C#3
Note OFF: Time 99360, Note Name: E2
Note ON: Time 99360, Note Name: D#2, Velocity: 52
Note ON: Time 99360, Note Name: C3, Velocity: 62
Note OFF: Time 99840, Note Name: C3
Note OFF: Time 99840, Note Name: D#2
Note ON: Time 99840, Note Name: D#2, Velocity: 57
Note ON: Time 99840, Note Name: G#2, Velocity: 67
Note OFF: Time 100320, Note Name: G#2
Note OFF: Time 100320, Note Name: D#2
Note ON: Time 100320, Note Name: E2, Velocity: 56
Note ON: Time 100320, Note Name: G#2, Velocity: 66
Note OFF: Time 100800, Note Name: G#2
Note OFF: Time 100800, Note Name: E2
Note ON: Time 100800, Note Name: F#2, Velocity: 60
Note ON: Time 100800, Note Name: D#3, Velocity: 71
Note OFF: Time 101280, Note Name: D#3
Note OFF: Time 101280, Note Name: F#2
Note ON: Time 101280, Note Name: E2, Velocity: 57
Note ON: Time 101280, Note Name: C#3, Velocity: 68
Note OFF: Time 101760, Note Name: C#3
Note OFF: Time 101760, Note Name: E2
Note ON: Time 101760, Note Name: E2, Velocity: 59
Note ON: Time 101760, Note Name: C#3, Velocity: 70
Note OFF: Time 102240, Note Name: C#3
Note OFF: Time 102240, Note Name: E2
Note ON: Time 102240, Note Name: G#2, Velocity: 61
Note ON: Time 102240, Note Name: D#3, Velocity: 73
Note OFF: Time 102720, Note Name: D#3
Note OFF: Time 102720, Note Name: G#2
Note ON: Time 102720, Note Name: C#3, Velocity: 66
Note ON: Time 102720, Note Name: E3, Velocity: 78
Note OFF: Time 103200, Note Name: E3
Note OFF: Time 103200, Note Name: C#3
Note ON: Time 103200, Note Name: G#2, Velocity: 61
Note ON: Time 103200, Note Name: D#3, Velocity: 73
Note OFF: Time 103560, Note Name: D#3
Note OFF: Time 103560, Note Name: G#2
Note ON: Time 103560, Note Name: G#1, Velocity: 82
Note OFF: Time 103680, Note Name: G#1
Note ON: Time 103680, Note Name: G#2, Velocity: 62
Note ON: Time 103680, Note Name: D#3, Velocity: 74
Note OFF: Time 105600, Note Name: D#3
Note OFF: Time 105600, Note Name: G#2
Note ON: Time 105600, Note Name: E1, Velocity: 74
Note ON: Time 105600, Note Name: E2, Velocity: 88
Note OFF: Time 106560, Note Name: E2
Note OFF: Time 106560, Note Name: E1
Note ON: Time 106560, Note Name: B1, Velocity: 70
Note ON: Time 106560, Note Name: B2, Velocity: 83
Note OFF: Time 107520, Note Name: B2
Note OFF: Time 107520, Note Name: B1
Note ON: Time 107520, Note Name: E1, Velocity: 74
Note ON: Time 107520, Note Name: E2, Velocity: 88
Note OFF: Time 108480, Note Name: E2
Note OFF: Time 108480, Note Name: E1
Note ON: Time 108480, Note Name: B1, Velocity: 72
Note ON: Time 108480, Note Name: B2, Velocity: 85
Note OFF: Time 109200, Note Name: B2
Note OFF: Time 109200, Note Name: B1
Note ON: Time 109200, Note Name: A#1, Velocity: 74
Note ON: Time 109200, Note Name: A#2, Velocity: 88
Note OFF: Time 109440, Note Name: A#2
Note OFF: Time 109440, Note Name: A#1
Note ON: Time 109440, Note Name: G#1, Velocity: 74
Note ON: Time 109440, Note Name: G#2, Velocity: 88
Note OFF: Time 110400, Note Name: G#2
Note OFF: Time 110400, Note Name: G#1
Note ON: Time 110400, Note Name: D#2, Velocity: 71
Note ON: Time 110400, Note Name: D#3, Velocity: 84
Note OFF: Time 111360, Note Name: D#3
Note OFF: Time 111360, Note Name: D#2
Note ON: Time 111360, Note Name: G#1, Velocity: 67
Note ON: Time 111360, Note Name: G#2, Velocity: 79
Note OFF: Time 112320, Note Name: G#2
Note OFF: Time 112320, Note Name: G#1
Note ON: Time 113280, Note Name: G#2, Velocity: 37
Note ON: Time 113280, Note Name: F#2, Velocity: 37
Note ON: Time 113280, Note Name: F#3, Velocity: 44
Note OFF: Time 114240, Note Name: F#3
Note OFF: Time 114240, Note Name: F#2
Note OFF: Time 114240, Note Name: G#2
Note ON: Time 114240, Note Name: E2, Velocity: 33
Note ON: Time 114240, Note Name: E3, Velocity: 39
Note ON: Time 114240, Note Name: G#2, Velocity: 33
Note OFF: Time 114720, Note Name: E3
Note OFF: Time 114720, Note Name: E2
Note ON: Time 114720, Note Name: C#2, Velocity: 31
Note ON: Time 114720, Note Name: C#3, Velocity: 38
Note OFF: Time 115200, Note Name: C#3
Note OFF: Time 115200, Note Name: C#2
Note OFF: Time 115200, Note Name: G#2
Note ON: Time 115200, Note Name: G#1, Velocity: 37
Note ON: Time 115200, Note Name: G#2, Velocity: 44
Note OFF: Time 116640, Note Name: G#2
Note OFF: Time 116640, Note Name: G#1
Note ON: Time 116640, Note Name: G#2, Velocity: 37
Note ON: Time 116640, Note Name: G#3, Velocity: 44
Note OFF: Time 117120, Note Name: G#3
Note OFF: Time 117120, Note Name: G#2
Note ON: Time 117120, Note Name: C#3, Velocity: 41
Note ON: Time 117120, Note Name: G#3, Velocity: 49
Note OFF: Time 118080, Note Name: G#3
Note OFF: Time 118080, Note Name: C#3
Note ON: Time 118080, Note Name: G#2, Velocity: 37
Note ON: Time 118080, Note Name: G#3, Velocity: 44
Note OFF: Time 119040, Note Name: G#3
Note OFF: Time 119040, Note Name: G#2
Note ON: Time 119040, Note Name: A2, Velocity: 45
Note ON: Time 119040, Note Name: A3, Velocity: 53
Note OFF: Time 120000, Note Name: A3
Note OFF: Time 120000, Note Name: A2
Note ON: Time 120000, Note Name: G#2, Velocity: 42
Note ON: Time 120000, Note Name: G#3, Velocity: 51
Note OFF: Time 120480, Note Name: G#3
Note OFF: Time 120480, Note Name: G#2
Note ON: Time 120480, Note Name: F#2, Velocity: 37
Note ON: Time 120480, Note Name: F#3, Velocity: 44
Note OFF: Time 120960, Note Name: F#3
Note OFF: Time 120960, Note Name: F#2
Note ON: Time 120960, Note Name: G#2, Velocity: 49
Note OFF: Time 121920, Note Name: G#2
Note ON: Time 121920, Note Name: C#2, Velocity: 37
Note ON: Time 121920, Note Name: G#2, Velocity: 44
Note OFF: Time 122880, Note Name: G#2
Note OFF: Time 122880, Note Name: C#2
Note ON: Time 122880, Note Name: G#1, Velocity: 36
Note ON: Time 122880, Note Name: G#2, Velocity: 42
Note OFF: Time 123360, Note Name: G#2
Note OFF: Time 123360, Note Name: G#1
Note ON: Time 123360, Note Name: C#2, Velocity: 41
Note ON: Time 123360, Note Name: G#2, Velocity: 49
Note OFF: Time 124800, Note Name: G#2
Note OFF: Time 124800, Note Name: C#2
Note ON: Time 124800, Note Name: C#2, Velocity: 37
Note ON: Time 124800, Note Name: G#2, Velocity: 45
Note OFF: Time 125280, Note Name: G#2
Note OFF: Time 125280, Note Name: C#2
Note ON: Time 125280, Note Name: G#1, Velocity: 33
Note ON: Time 125280, Note Name: G#2, Velocity: 39
Note OFF: Time 126240, Note Name: G#2
Note OFF: Time 126240, Note Name: G#1
Note ON: Time 126240, Note Name: C#2, Velocity: 35
Note ON: Time 126240, Note Name: G#2, Velocity: 41
Note OFF: Time 126720, Note Name: G#2
Note OFF: Time 126720, Note Name: C#2
Note ON: Time 126720, Note Name: G#1, Velocity: 35
Note ON: Time 126720, Note Name: G#2, Velocity: 41
Note OFF: Time 128640, Note Name: G#2
Note OFF: Time 128640, Note Name: G#1
Note ON: Time 128640, Note Name: G#2, Velocity: 40
Note ON: Time 128640, Note Name: F#2, Velocity: 40
Note ON: Time 128640, Note Name: F#3, Velocity: 48
Note OFF: Time 128868, Note Name: G#2
Note ON: Time 128880, Note Name: G#2, Velocity: 40
Note OFF: Time 129108, Note Name: G#2
Note ON: Time 129120, Note Name: G#2, Velocity: 40
Note OFF: Time 129348, Note Name: G#2
Note ON: Time 129360, Note Name: G#2, Velocity: 40
Note OFF: Time 129588, Note Name: G#2
Note OFF: Time 129600, Note Name: F#3
Note OFF: Time 129600, Note Name: F#2
Note ON: Time 129600, Note Name: E2, Velocity: 41
Note ON: Time 129600, Note Name: E3, Velocity: 50
Note ON: Time 129600, Note Name: G#2, Velocity: 41
Note OFF: Time 130080, Note Name: E3
Note OFF: Time 130080, Note Name: E2
Note ON: Time 130080, Note Name: C#2, Velocity: 41
Note ON: Time 130080, Note Name: C#3, Velocity: 50
Note OFF: Time 130560, Note Name: C#3
Note OFF: Time 130560, Note Name: C#2
Note OFF: Time 130560, Note Name: G#2
Note ON: Time 130560, Note Name: G#1, Velocity: 50
Note ON: Time 130560, Note Name: G#2, Velocity: 60
Note OFF: Time 132480, Note Name: G#2
Note OFF: Time 132480, Note Name: G#1
Note ON: Time 132480, Note Name: C#2, Velocity: 58
Note ON: Time 132480, Note Name: G#2, Velocity: 69
Note OFF: Time 133440, Note Name: G#2
Note OFF: Time 133440, Note Name: C#2
Note ON: Time 133440, Note Name: G#2, Velocity: 51
Note ON: Time 133440, Note Name: G#3, Velocity: 61
Note OFF: Time 134400, Note Name: G#3
Note OFF: Time 134400, Note Name: G#2
Note ON: Time 134400, Note Name: F2, Velocity: 58
Note ON: Time 134400, Note Name: F3, Velocity: 69
Note OFF: Time 135360, Note Name: F3
Note OFF: Time 135360, Note Name: F2
Note ON: Time 135360, Note Name: F#2, Velocity: 51
Note ON: Time 135360, Note Name: F#3, Velocity: 62
Note OFF: Time 136320, Note Name: F#3
Note OFF: Time 136320, Note Name: F#2
Note ON: Time 136320, Note Name: C2, Velocity: 52
Note ON: Time 136320, Note Name: C3, Velocity: 59
Note OFF: Time 137280, Note Name: C3
Note OFF: Time 137280, Note Name: C2
Note ON: Time 137280, Note Name: C#2, Velocity: 44
Note ON: Time 137280, Note Name: C#3, Velocity: 52
Note OFF: Time 138240, Note Name: C#3
Note OFF: Time 138240, Note Name: C#2
Note ON: Time 138240, Note Name: G#1, Velocity: 42
Note ON: Time 138240, Note Name: G#2, Velocity: 55
Note OFF: Time 139680, Note Name: G#2
Note OFF: Time 139680, Note Name: G#1
Note ON: Time 139680, Note Name: C#2, Velocity: 46
Note ON: Time 139680, Note Name: G#2, Velocity: 60
Note OFF: Time 140160, Note Name: G#2
Note OFF: Time 140160, Note Name: C#2
Note ON: Time 140160, Note Name: G#1, Velocity: 42
Note ON: Time 140160, Note Name: G#2, Velocity: 50
Note OFF: Time 141600, Note Name: G#2
Note OFF: Time 141600, Note Name: G#1
Note ON: Time 141600, Note Name: C#2, Velocity: 42
Note ON: Time 141600, Note Name: G#2, Velocity: 51
Note OFF: Time 142080, Note Name: G#2
Note OFF: Time 142080, Note Name: C#2
Note ON: Time 142080, Note Name: G#1, Velocity: 41
Note ON: Time 142080, Note Name: G#2, Velocity: 49
Note OFF: Time 142560, Note Name: G#2
Note ON: Time 142560, Note Name: G#2, Velocity: 44
Note OFF: Time 143040, Note Name: G#2
Note ON: Time 143280, Note Name: F3, Velocity: 33
Note OFF: Time 143520, Note Name: F3
Note OFF: Time 143520, Note Name: G#1
Note ON: Time 143520, Note Name: F#3, Velocity: 37
Note OFF: Time 143760, Note Name: F#3
Note ON: Time 143760, Note Name: D#3, Velocity: 34
Note OFF: Time 144000, Note Name: D#3
Note ON: Time 144000, Note Name: C#3, Velocity: 35
Note OFF: Time 144240, Note Name: C#3
Note ON: Time 144240, Note Name: G#3, Velocity: 30
Note OFF: Time 144480, Note Name: G#3
Note ON: Time 144480, Note Name: F4, Velocity: 26
Note ON: Time 144480, Note Name: C#4, Velocity: 17
Note ON: Time 144720, Note Name: G#3, Velocity: 19
Note OFF: Time 144948, Note Name: G#3
Note ON: Time 144960, Note Name: G#3, Velocity: 23
Note OFF: Time 145188, Note Name: G#3
Note ON: Time 145200, Note Name: G#3, Velocity: 19
Note OFF: Time 145428, Note Name: G#3
Note ON: Time 145440, Note Name: G#3, Velocity: 27
Note OFF: Time 145668, Note Name: G#3
Note ON: Time 145680, Note Name: G#3, Velocity: 28
Note OFF: Time 145908, Note Name: G#3
Note OFF: Time 145920, Note Name: C#4
Note OFF: Time 145920, Note Name: F4
Note ON: Time 145920, Note Name: F#4, Velocity: 35
Note ON: Time 145920, Note Name: D#4, Velocity: 35
Note ON: Time 146160, Note Name: G#3, Velocity: 26
Note OFF: Time 146388, Note Name: G#3
Note ON: Time 146400, Note Name: G#3, Velocity: 28
Note OFF: Time 146628, Note Name: G#3
Note ON: Time 146640, Note Name: G#3, Velocity: 32
Note OFF: Time 146868, Note Name: G#3
Note ON: Time 146880, Note Name: A#3, Velocity: 35
Note OFF: Time 147120, Note Name: A#3
Note ON: Time 147120, Note Name: G#3, Velocity: 32
Note OFF: Time 147360, Note Name: G#3
Note OFF: Time 147360, Note Name: D#4
Note OFF: Time 147360, Note Name: F#4
Note ON: Time 147360, Note Name: F4, Velocity: 35
Note ON: Time 147360, Note Name: C#4, Velocity: 35
Note OFF: Time 147600, Note Name: C#4
Note OFF: Time 147600, Note Name: F4
Note ON: Time 147600, Note Name: G#3, Velocity: 31
Note OFF: Time 147840, Note Name: G#3
Note ON: Time 148080, Note Name: G#3, Velocity: 32
Note OFF: Time 148560, Note Name: G#3
Note ON: Time 148560, Note Name: G#3, Velocity: 35
Note OFF: Time 148788, Note Name: G#3
Note ON: Time 148800, Note Name: G#3, Velocity: 32
Note OFF: Time 149028, Note Name: G#3
Note ON: Time 149040, Note Name: G#3, Velocity: 32
Note OFF: Time 149520, Note Name: G#3
Note ON: Time 149520, Note Name: G#3, Velocity: 29
Note OFF: Time 149760, Note Name: G#3
Note ON: Time 150000, Note Name: G#3, Velocity: 31
Note OFF: Time 150240, Note Name: G#3
Note ON: Time 150480, Note Name: G#3, Velocity: 31
Note OFF: Time 150720, Note Name: G#3
Note ON: Time 150720, Note Name: F4, Velocity: 35
Note ON: Time 150720, Note Name: C#4, Velocity: 29
Note OFF: Time 150960, Note Name: C#4
Note OFF: Time 150960, Note Name: F4
Note ON: Time 150960, Note Name: G#3, Velocity: 31
Note OFF: Time 151200, Note Name: G#3
Note ON: Time 151200, Note Name: F#4, Velocity: 32
Note ON: Time 151200, Note Name: C4, Velocity: 27
Note OFF: Time 151440, Note Name: C4
Note OFF: Time 151440, Note Name: F#4
Note ON: Time 151440, Note Name: G#3, Velocity: 31
Note OFF: Time 151680, Note Name: G#3
Note ON: Time 151680, Note Name: C#3, Velocity: 35
Note OFF: Time 151920, Note Name: C#3
Note ON: Time 151920, Note Name: G#3, Velocity: 30
Note OFF: Time 152160, Note Name: G#3
Note ON: Time 152160, Note Name: F4, Velocity: 26
Note ON: Time 152160, Note Name: C#4, Velocity: 18
Note ON: Time 152400, Note Name: G#3, Velocity: 20
Note OFF: Time 152628, Note Name: G#3
Note ON: Time 152640, Note Name: G#3, Velocity: 24
Note OFF: Time 152868, Note Name: G#3
Note ON: Time 152880, Note Name: G#3, Velocity: 21
Note OFF: Time 153108, Note Name: G#3
Note ON: Time 153120, Note Name: G#3, Velocity: 30
Note OFF: Time 153348, Note Name: G#3
Note ON: Time 153360, Note Name: G#3, Velocity: 28
Note OFF: Time 153588, Note Name: G#3
Note OFF: Time 153600, Note Name: C#4
Note OFF: Time 153600, Note Name: F4
Note ON: Time 153600, Note Name: F#4, Velocity: 35
Note ON: Time 153600, Note Name: D#4, Velocity: 35
Note OFF: Time 153840, Note Name: D#4
Note OFF: Time 153840, Note Name: F#4
Note ON: Time 153840, Note Name: G#3, Velocity: 31
Note OFF: Time 154068, Note Name: G#3
Note ON: Time 154080, Note Name: G#3, Velocity: 29
Note OFF: Time 154308, Note Name: G#3
Note ON: Time 154320, Note Name: G#3, Velocity: 33
Note OFF: Time 154548, Note Name: G#3
Note ON: Time 154560, Note Name: A#3, Velocity: 38
Note OFF: Time 154800, Note Name: A#3
Note ON: Time 154800, Note Name: G#3, Velocity: 35
Note OFF: Time 155040, Note Name: G#3
Note ON: Time 159360, Note Name: G#2, Velocity: 36
Note ON: Time 159600, Note Name: G#3, Velocity: 29
Note OFF: Time 159828, Note Name: G#3
Note ON: Time 159840, Note Name: G#3, Velocity: 29
Note OFF: Time 160068, Note Name: G#3
Note ON: Time 160080, Note Name: G#3, Velocity: 29
Note OFF: Time 160308, Note Name: G#3
Note ON: Time 160320, Note Name: G#3, Velocity: 29
Note OFF: Time 160548, Note Name: G#3
Note ON: Time 160560, Note Name: G#3, Velocity: 29
Note OFF: Time 160788, Note Name: G#3
Note ON: Time 160800, Note Name: G#3, Velocity: 29
Note OFF: Time 161028, Note Name: G#3
Note ON: Time 161040, Note Name: G#3, Velocity: 29
Note OFF: Time 161268, Note Name: G#3
Note OFF: Time 161280, Note Name: G#2
Note ON: Time 161280, Note Name: G#3, Velocity: 36
Note ON: Time 161280, Note Name: C#3, Velocity: 36
Note OFF: Time 161508, Note Name: G#3
Note ON: Time 161520, Note Name: G#3, Velocity: 29
Note OFF: Time 161748, Note Name: G#3
Note ON: Time 161760, Note Name: G#3, Velocity: 29
Note OFF: Time 161988, Note Name: G#3
Note ON: Time 162000, Note Name: G#3, Velocity: 29
Note OFF: Time 162228, Note Name: G#3
Note ON: Time 162240, Note Name: G#3, Velocity: 29
Note OFF: Time 162468, Note Name: G#3
Note ON: Time 162480, Note Name: G#3, Velocity: 29
Note OFF: Time 162708, Note Name: G#3
Note ON: Time 162720, Note Name: G#3, Velocity: 29
Note OFF: Time 162948, Note Name: G#3
Note ON: Time 162960, Note Name: G#3, Velocity: 29
Note OFF: Time 163188, Note Name: G#3
Note OFF: Time 163200, Note Name: C#3
Note ON: Time 163200, Note Name: G#3, Velocity: 36
Note ON: Time 163200, Note Name: G#2, Velocity: 36
Note OFF: Time 163428, Note Name: G#3
Note ON: Time 163440, Note Name: G#3, Velocity: 29
Note OFF: Time 163668, Note Name: G#3
Note ON: Time 163680, Note Name: G#3, Velocity: 29
Note OFF: Time 163908, Note Name: G#3
Note ON: Time 163920, Note Name: G#3, Velocity: 29
Note OFF: Time 164148, Note Name: G#3
Note ON: Time 164160, Note Name: G#3, Velocity: 27
Note OFF: Time 164388, Note Name: G#3
Note ON: Time 164400, Note Name: G#3, Velocity: 27
Note OFF: Time 164628, Note Name: G#3
Note ON: Time 164640, Note Name: G#3, Velocity: 26
Note OFF: Time 164868, Note Name: G#3
Note ON: Time 164880, Note Name: G#3, Velocity: 26
Note OFF: Time 165108, Note Name: G#3
Note OFF: Time 165120, Note Name: G#2
Note ON: Time 165120, Note Name: G#3, Velocity: 26
Note ON: Time 165120, Note Name: G#2, Velocity: 29
Note OFF: Time 165348, Note Name: G#3
Note ON: Time 165360, Note Name: G#3, Velocity: 26
Note OFF: Time 165588, Note Name: G#3
Note ON: Time 165600, Note Name: G#3, Velocity: 26
Note OFF: Time 165828, Note Name: G#3
Note ON: Time 165840, Note Name: G#3, Velocity: 26
Note OFF: Time 166068, Note Name: G#3
Note ON: Time 166080, Note Name: G#3, Velocity: 26
Note OFF: Time 166308, Note Name: G#3
Note ON: Time 166320, Note Name: G#3, Velocity: 26
Note OFF: Time 166548, Note Name: G#3
Note ON: Time 166560, Note Name: G#3, Velocity: 26
Note OFF: Time 166788, Note Name: G#3
Note ON: Time 166800, Note Name: G#3, Velocity: 26
Note OFF: Time 167028, Note Name: G#3
Note OFF: Time 167040, Note Name: G#2
Note ON: Time 167040, Note Name: G#3, Velocity: 26
Note ON: Time 167040, Note Name: C#3, Velocity: 30
Note OFF: Time 167268, Note Name: G#3
Note ON: Time 167280, Note Name: G#3, Velocity: 26
Note OFF: Time 167508, Note Name: G#3
Note ON: Time 167520, Note Name: G#3, Velocity: 26
Note OFF: Time 167748, Note Name: G#3
Note ON: Time 167760, Note Name: G#3, Velocity: 26
Note OFF: Time 167988, Note Name: G#3
Note OFF: Time 168000, Note Name: C#3
Note ON: Time 168000, Note Name: G#3, Velocity: 26
Note ON: Time 168000, Note Name: G#2, Velocity: 26
Note OFF: Time 168228, Note Name: G#3
Note ON: Time 168240, Note Name: G#3, Velocity: 26
Note OFF: Time 168468, Note Name: G#3
Note ON: Time 168480, Note Name: G#3, Velocity: 26
Note OFF: Time 168708, Note Name: G#3
Note ON: Time 168720, Note Name: G#3, Velocity: 26
Note OFF: Time 168946, Note Name: G#3
Note OFF: Time 168960, Note Name: G#2
Note ON: Time 168960, Note Name: C#2, Velocity: 24
Note OFF: Time 170880, Note Name: C#2
Track 3: Chopin: Prelude No.15 in Db Major Op. 28
Track 4: Copyright  2002 by Bernd Krueger
Track 5: http://www.piano-midi.de
Track 6: Edition: 2014-02-21
Track 7: Spur 7
Track 8: Spur 8
