Processing chpn-p16.mid...

Track 0: Chopin Prelude  No. 16, Opus 28
Track 1: Piano right
Note ON: Time 1, Note Name: D#4, Velocity: 81
Note ON: Time 60, Note Name: A4, Velocity: 81
Note ON: Time 120, Note Name: F#5, Velocity: 96
Note OFF: Time 320, Note Name: A4
Note OFF: Time 320, Note Name: D#4
Note ON: Time 320, Note Name: A4, Velocity: 68
Note ON: Time 320, Note Name: F5, Velocity: 80
Note ON: Time 320, Note Name: D#4, Velocity: 62
Note OFF: Time 340, Note Name: F#5
Note OFF: Time 640, Note Name: A4
Note OFF: Time 640, Note Name: D#4
Note ON: Time 640, Note Name: D#4, Velocity: 64
Note ON: Time 640, Note Name: A4, Velocity: 67
Note ON: Time 640, Note Name: E5, Velocity: 80
Note OFF: Time 660, Note Name: F5
Note OFF: Time 960, Note Name: D#4
Note OFF: Time 960, Note Name: A4
Note ON: Time 960, Note Name: A4, Velocity: 69
Note ON: Time 960, Note Name: D#4, Velocity: 63
Note ON: Time 960, Note Name: D#5, Velocity: 81
Note OFF: Time 980, Note Name: E5
Note OFF: Time 1280, Note Name: A4
Note OFF: Time 1280, Note Name: D#4
Note ON: Time 1280, Note Name: C#5, Velocity: 83
Note ON: Time 1280, Note Name: D#4, Velocity: 62
Note ON: Time 1280, Note Name: A4, Velocity: 69
Note OFF: Time 1300, Note Name: D#5
Note OFF: Time 1600, Note Name: A4
Note OFF: Time 1600, Note Name: D#4
Note ON: Time 1600, Note Name: A4, Velocity: 65
Note ON: Time 1600, Note Name: D#4, Velocity: 58
Note ON: Time 1600, Note Name: C5, Velocity: 78
Note OFF: Time 1620, Note Name: C#5
Note OFF: Time 1900, Note Name: A4
Note OFF: Time 1900, Note Name: D#4
Note OFF: Time 1900, Note Name: C5
Note ON: Time 1920, Note Name: F5, Velocity: 39
Note ON: Time 2040, Note Name: D#5, Velocity: 40
Note OFF: Time 2060, Note Name: F5
Note ON: Time 2160, Note Name: C5, Velocity: 41
Note OFF: Time 2180, Note Name: D#5
Note ON: Time 2280, Note Name: C#5, Velocity: 42
Note OFF: Time 2300, Note Name: C5
Note ON: Time 2400, Note Name: F4, Velocity: 43
Note OFF: Time 2420, Note Name: C#5
Note ON: Time 2520, Note Name: A4, Velocity: 45
Note OFF: Time 2540, Note Name: F4
Note ON: Time 2640, Note Name: A#4, Velocity: 45
Note OFF: Time 2660, Note Name: A4
Note ON: Time 2760, Note Name: C5, Velocity: 46
Note OFF: Time 2780, Note Name: A#4
Note ON: Time 2880, Note Name: C#5, Velocity: 48
Note OFF: Time 2900, Note Name: C5
Note ON: Time 3000, Note Name: D#5, Velocity: 49
Note OFF: Time 3020, Note Name: C#5
Note ON: Time 3120, Note Name: F5, Velocity: 51
Note OFF: Time 3140, Note Name: D#5
Note ON: Time 3240, Note Name: G5, Velocity: 51
Note OFF: Time 3260, Note Name: F5
Note ON: Time 3360, Note Name: A5, Velocity: 52
Note OFF: Time 3380, Note Name: G5
Note ON: Time 3480, Note Name: A#5, Velocity: 53
Note OFF: Time 3500, Note Name: A5
Note ON: Time 3600, Note Name: C6, Velocity: 54
Note OFF: Time 3620, Note Name: A#5
Note ON: Time 3720, Note Name: C#6, Velocity: 56
Note OFF: Time 3740, Note Name: C6
Note ON: Time 3840, Note Name: D#6, Velocity: 56
Note OFF: Time 3860, Note Name: C#6
Note ON: Time 3960, Note Name: F6, Velocity: 57
Note OFF: Time 3980, Note Name: D#6
Note ON: Time 4080, Note Name: G6, Velocity: 58
Note OFF: Time 4100, Note Name: F6
Note ON: Time 4200, Note Name: A6, Velocity: 59
Note OFF: Time 4220, Note Name: G6
Note ON: Time 4320, Note Name: A#6, Velocity: 61
Note OFF: Time 4340, Note Name: A6
Note ON: Time 4440, Note Name: C7, Velocity: 62
Note OFF: Time 4460, Note Name: A#6
Note ON: Time 4560, Note Name: C#7, Velocity: 64
Note OFF: Time 4580, Note Name: C7
Note ON: Time 4680, Note Name: D#7, Velocity: 65
Note OFF: Time 4700, Note Name: C#7
Note ON: Time 4800, Note Name: E7, Velocity: 67
Note OFF: Time 4820, Note Name: D#7
Note ON: Time 4920, Note Name: F7, Velocity: 65
Note OFF: Time 4940, Note Name: E7
Note ON: Time 5040, Note Name: D#7, Velocity: 65
Note OFF: Time 5060, Note Name: F7
Note ON: Time 5160, Note Name: C#7, Velocity: 63
Note OFF: Time 5180, Note Name: D#7
Note ON: Time 5280, Note Name: C7, Velocity: 62
Note OFF: Time 5300, Note Name: C#7
Note ON: Time 5400, Note Name: A#6, Velocity: 61
Note OFF: Time 5420, Note Name: C7
Note ON: Time 5520, Note Name: A6, Velocity: 60
Note OFF: Time 5540, Note Name: A#6
Note ON: Time 5640, Note Name: A#6, Velocity: 59
Note OFF: Time 5660, Note Name: A6
Note OFF: Time 5760, Note Name: A#6
Note ON: Time 5760, Note Name: G#6, Velocity: 58
Note ON: Time 5880, Note Name: F#6, Velocity: 57
Note OFF: Time 5900, Note Name: G#6
Note ON: Time 6000, Note Name: F6, Velocity: 56
Note OFF: Time 6020, Note Name: F#6
Note ON: Time 6120, Note Name: E6, Velocity: 56
Note OFF: Time 6140, Note Name: F6
Note ON: Time 6240, Note Name: F6, Velocity: 55
Note OFF: Time 6260, Note Name: E6
Note ON: Time 6360, Note Name: D#6, Velocity: 54
Note OFF: Time 6380, Note Name: F6
Note ON: Time 6480, Note Name: C#6, Velocity: 53
Note OFF: Time 6500, Note Name: D#6
Note ON: Time 6600, Note Name: C6, Velocity: 52
Note OFF: Time 6620, Note Name: C#6
Note ON: Time 6720, Note Name: A#5, Velocity: 51
Note OFF: Time 6740, Note Name: C6
Note ON: Time 6840, Note Name: A5, Velocity: 50
Note OFF: Time 6860, Note Name: A#5
Note ON: Time 6960, Note Name: A#5, Velocity: 49
Note OFF: Time 6980, Note Name: A5
Note ON: Time 7080, Note Name: G#5, Velocity: 49
Note OFF: Time 7100, Note Name: A#5
Note ON: Time 7200, Note Name: F#5, Velocity: 48
Note OFF: Time 7220, Note Name: G#5
Note ON: Time 7320, Note Name: F5, Velocity: 48
Note OFF: Time 7340, Note Name: F#5
Note ON: Time 7440, Note Name: D#5, Velocity: 46
Note OFF: Time 7460, Note Name: F5
Note ON: Time 7560, Note Name: C#5, Velocity: 45
Note OFF: Time 7580, Note Name: D#5
Note ON: Time 7680, Note Name: C5, Velocity: 45
Note OFF: Time 7700, Note Name: C#5
Note ON: Time 7800, Note Name: C#5, Velocity: 45
Note OFF: Time 7820, Note Name: C5
Note ON: Time 7920, Note Name: D#5, Velocity: 45
Note OFF: Time 7940, Note Name: C#5
Note ON: Time 8040, Note Name: F5, Velocity: 46
Note OFF: Time 8060, Note Name: D#5
Note ON: Time 8160, Note Name: F#5, Velocity: 47
Note OFF: Time 8180, Note Name: F5
Note ON: Time 8280, Note Name: G#5, Velocity: 47
Note OFF: Time 8300, Note Name: F#5
Note ON: Time 8400, Note Name: A#5, Velocity: 48
Note OFF: Time 8420, Note Name: G#5
Note ON: Time 8520, Note Name: C6, Velocity: 49
Note OFF: Time 8540, Note Name: A#5
Note ON: Time 8640, Note Name: A#5, Velocity: 48
Note OFF: Time 8660, Note Name: C6
Note ON: Time 8760, Note Name: G#5, Velocity: 48
Note OFF: Time 8780, Note Name: A#5
Note ON: Time 8880, Note Name: F#5, Velocity: 49
Note OFF: Time 8900, Note Name: G#5
Note ON: Time 9000, Note Name: F5, Velocity: 49
Note OFF: Time 9020, Note Name: F#5
Note ON: Time 9120, Note Name: D#5, Velocity: 50
Note OFF: Time 9140, Note Name: F5
Note ON: Time 9240, Note Name: C#5, Velocity: 51
Note OFF: Time 9260, Note Name: D#5
Note ON: Time 9360, Note Name: C5, Velocity: 51
Note OFF: Time 9380, Note Name: C#5
Note ON: Time 9480, Note Name: D#5, Velocity: 51
Note OFF: Time 9500, Note Name: C5
Note ON: Time 9600, Note Name: F#5, Velocity: 51
Note OFF: Time 9620, Note Name: D#5
Note ON: Time 9720, Note Name: D5, Velocity: 48
Note OFF: Time 9740, Note Name: F#5
Note ON: Time 9840, Note Name: F5, Velocity: 51
Note OFF: Time 9860, Note Name: D5
Note ON: Time 9960, Note Name: D#5, Velocity: 45
Note OFF: Time 9980, Note Name: F5
Note ON: Time 10080, Note Name: C5, Velocity: 45
Note OFF: Time 10100, Note Name: D#5
Note ON: Time 10200, Note Name: F#4, Velocity: 43
Note OFF: Time 10220, Note Name: C5
Note ON: Time 10320, Note Name: B4, Velocity: 44
Note OFF: Time 10340, Note Name: F#4
Note ON: Time 10440, Note Name: C5, Velocity: 45
Note OFF: Time 10460, Note Name: B4
Note ON: Time 10560, Note Name: C#5, Velocity: 45
Note OFF: Time 10580, Note Name: C5
Note ON: Time 10680, Note Name: C5, Velocity: 46
Note OFF: Time 10700, Note Name: C#5
Note ON: Time 10800, Note Name: D5, Velocity: 48
Note OFF: Time 10820, Note Name: C5
Note ON: Time 10920, Note Name: D#5, Velocity: 48
Note OFF: Time 10940, Note Name: D5
Note ON: Time 11040, Note Name: F5, Velocity: 48
Note OFF: Time 11060, Note Name: D#5
Note ON: Time 11160, Note Name: D#5, Velocity: 50
Note OFF: Time 11180, Note Name: F5
Note ON: Time 11280, Note Name: E5, Velocity: 51
Note OFF: Time 11300, Note Name: D#5
Note ON: Time 11400, Note Name: F5, Velocity: 51
Note OFF: Time 11420, Note Name: E5
Note OFF: Time 11520, Note Name: F5
Note ON: Time 11520, Note Name: G#5, Velocity: 52
Note ON: Time 11640, Note Name: F#5, Velocity: 53
Note OFF: Time 11660, Note Name: G#5
Note ON: Time 11760, Note Name: A5, Velocity: 55
Note OFF: Time 11780, Note Name: F#5
Note ON: Time 11880, Note Name: A#5, Velocity: 56
Note OFF: Time 11900, Note Name: A5
Note ON: Time 12000, Note Name: C#6, Velocity: 56
Note OFF: Time 12020, Note Name: A#5
Note ON: Time 12120, Note Name: C6, Velocity: 58
Note OFF: Time 12140, Note Name: C#6
Note ON: Time 12240, Note Name: C#6, Velocity: 59
Note OFF: Time 12260, Note Name: C6
Note ON: Time 12360, Note Name: D6, Velocity: 60
Note OFF: Time 12380, Note Name: C#6
Note ON: Time 12480, Note Name: F6, Velocity: 61
Note OFF: Time 12500, Note Name: D6
Note ON: Time 12600, Note Name: D#6, Velocity: 62
Note OFF: Time 12620, Note Name: F6
Note ON: Time 12720, Note Name: E6, Velocity: 62
Note OFF: Time 12740, Note Name: D#6
Note ON: Time 12840, Note Name: F6, Velocity: 63
Note OFF: Time 12860, Note Name: E6
Note ON: Time 12960, Note Name: A6, Velocity: 64
Note OFF: Time 12980, Note Name: F6
Note ON: Time 13080, Note Name: A#6, Velocity: 65
Note OFF: Time 13100, Note Name: A6
Note ON: Time 13200, Note Name: G#6, Velocity: 67
Note OFF: Time 13220, Note Name: A#6
Note ON: Time 13320, Note Name: G6, Velocity: 68
Note OFF: Time 13340, Note Name: G#6
Note ON: Time 13440, Note Name: F#6, Velocity: 67
Note OFF: Time 13460, Note Name: G6
Note ON: Time 13560, Note Name: F7, Velocity: 66
Note OFF: Time 13580, Note Name: F#6
Note ON: Time 13680, Note Name: D#7, Velocity: 66
Note OFF: Time 13700, Note Name: F7
Note ON: Time 13800, Note Name: D#6, Velocity: 65
Note OFF: Time 13820, Note Name: D#7
Note ON: Time 13920, Note Name: C#7, Velocity: 63
Note OFF: Time 13940, Note Name: D#6
Note ON: Time 14040, Note Name: C7, Velocity: 62
Note OFF: Time 14060, Note Name: C#7
Note ON: Time 14160, Note Name: C6, Velocity: 62
Note OFF: Time 14180, Note Name: C7
Note ON: Time 14280, Note Name: A#6, Velocity: 61
Note OFF: Time 14300, Note Name: C6
Note ON: Time 14400, Note Name: A6, Velocity: 60
Note OFF: Time 14420, Note Name: A#6
Note ON: Time 14520, Note Name: A5, Velocity: 59
Note OFF: Time 14540, Note Name: A6
Note ON: Time 14640, Note Name: G#6, Velocity: 57
Note OFF: Time 14660, Note Name: A5
Note ON: Time 14760, Note Name: F#6, Velocity: 57
Note OFF: Time 14780, Note Name: G#6
Note ON: Time 14880, Note Name: F#5, Velocity: 56
Note OFF: Time 14900, Note Name: F#6
Note ON: Time 15000, Note Name: F6, Velocity: 56
Note OFF: Time 15020, Note Name: F#5
Note ON: Time 15120, Note Name: D#6, Velocity: 55
Note OFF: Time 15140, Note Name: F6
Note ON: Time 15240, Note Name: F#5, Velocity: 54
Note OFF: Time 15260, Note Name: D#6
Note ON: Time 15360, Note Name: F5, Velocity: 54
Note OFF: Time 15380, Note Name: F#5
Note ON: Time 15480, Note Name: D#6, Velocity: 52
Note OFF: Time 15500, Note Name: F5
Note ON: Time 15600, Note Name: C#6, Velocity: 51
Note OFF: Time 15620, Note Name: D#6
Note ON: Time 15720, Note Name: F5, Velocity: 51
Note OFF: Time 15740, Note Name: C#6
Note ON: Time 15840, Note Name: C#6, Velocity: 50
Note OFF: Time 15860, Note Name: F5
Note ON: Time 15960, Note Name: C6, Velocity: 50
Note OFF: Time 15980, Note Name: C#6
Note ON: Time 16080, Note Name: D#5, Velocity: 49
Note OFF: Time 16100, Note Name: C6
Note ON: Time 16200, Note Name: C6, Velocity: 47
Note OFF: Time 16220, Note Name: D#5
Note ON: Time 16320, Note Name: C#5, Velocity: 46
Note OFF: Time 16340, Note Name: C6
Note ON: Time 16440, Note Name: A#5, Velocity: 46
Note OFF: Time 16460, Note Name: C#5
Note ON: Time 16560, Note Name: G#5, Velocity: 45
Note OFF: Time 16580, Note Name: A#5
Note ON: Time 16680, Note Name: C5, Velocity: 45
Note OFF: Time 16700, Note Name: G#5
Note ON: Time 16800, Note Name: G#5, Velocity: 44
Note OFF: Time 16820, Note Name: C5
Note ON: Time 16920, Note Name: F#5, Velocity: 42
Note OFF: Time 16940, Note Name: G#5
Note ON: Time 17040, Note Name: A#4, Velocity: 42
Note OFF: Time 17060, Note Name: F#5
Note ON: Time 17160, Note Name: F#5, Velocity: 42
Note OFF: Time 17180, Note Name: A#4
Note OFF: Time 17280, Note Name: F#5
Note ON: Time 17280, Note Name: A4, Velocity: 40
Note ON: Time 17400, Note Name: A#4, Velocity: 42
Note OFF: Time 17420, Note Name: A4
Note ON: Time 17520, Note Name: C5, Velocity: 42
Note OFF: Time 17540, Note Name: A#4
Note ON: Time 17640, Note Name: C#5, Velocity: 44
Note OFF: Time 17660, Note Name: C5
Note ON: Time 17760, Note Name: D#5, Velocity: 45
Note OFF: Time 17780, Note Name: C#5
Note ON: Time 17880, Note Name: E5, Velocity: 46
Note OFF: Time 17900, Note Name: D#5
Note ON: Time 18000, Note Name: F5, Velocity: 47
Note OFF: Time 18020, Note Name: E5
Note ON: Time 18120, Note Name: F#5, Velocity: 48
Note OFF: Time 18140, Note Name: F5
Note ON: Time 18240, Note Name: E5, Velocity: 51
Note OFF: Time 18260, Note Name: F#5
Note ON: Time 18360, Note Name: F5, Velocity: 49
Note OFF: Time 18380, Note Name: E5
Note ON: Time 18480, Note Name: D5, Velocity: 47
Note OFF: Time 18500, Note Name: F5
Note ON: Time 18600, Note Name: D#5, Velocity: 46
Note OFF: Time 18620, Note Name: D5
Note ON: Time 18720, Note Name: C5, Velocity: 45
Note OFF: Time 18740, Note Name: D#5
Note ON: Time 18840, Note Name: C#5, Velocity: 44
Note OFF: Time 18860, Note Name: C5
Note ON: Time 18960, Note Name: C5, Velocity: 43
Note OFF: Time 18980, Note Name: C#5
Note ON: Time 19080, Note Name: A#4, Velocity: 41
Note OFF: Time 19100, Note Name: C5
Note OFF: Time 19200, Note Name: A#4
Note ON: Time 19200, Note Name: A4, Velocity: 39
Note ON: Time 19320, Note Name: A#4, Velocity: 41
Note OFF: Time 19340, Note Name: A4
Note ON: Time 19440, Note Name: C5, Velocity: 42
Note OFF: Time 19460, Note Name: A#4
Note ON: Time 19560, Note Name: C#5, Velocity: 44
Note OFF: Time 19580, Note Name: C5
Note ON: Time 19680, Note Name: D#5, Velocity: 45
Note OFF: Time 19700, Note Name: C#5
Note ON: Time 19800, Note Name: E5, Velocity: 47
Note OFF: Time 19820, Note Name: D#5
Note ON: Time 19920, Note Name: F5, Velocity: 49
Note OFF: Time 19940, Note Name: E5
Note ON: Time 20040, Note Name: F#5, Velocity: 50
Note OFF: Time 20060, Note Name: F5
Note ON: Time 20160, Note Name: E5, Velocity: 51
Note OFF: Time 20180, Note Name: F#5
Note ON: Time 20280, Note Name: F5, Velocity: 50
Note OFF: Time 20300, Note Name: E5
Note ON: Time 20400, Note Name: D5, Velocity: 48
Note OFF: Time 20420, Note Name: F5
Note ON: Time 20520, Note Name: D#5, Velocity: 48
Note OFF: Time 20540, Note Name: D5
Note ON: Time 20640, Note Name: C5, Velocity: 46
Note OFF: Time 20660, Note Name: D#5
Note ON: Time 20760, Note Name: C#5, Velocity: 45
Note OFF: Time 20780, Note Name: C5
Note ON: Time 20880, Note Name: C5, Velocity: 45
Note OFF: Time 20900, Note Name: C#5
Note ON: Time 21000, Note Name: A#4, Velocity: 43
Note OFF: Time 21020, Note Name: C5
Note OFF: Time 21120, Note Name: A#4
Note ON: Time 21120, Note Name: B4, Velocity: 41
Note ON: Time 21240, Note Name: C5, Velocity: 42
Note OFF: Time 21260, Note Name: B4
Note ON: Time 21360, Note Name: D5, Velocity: 44
Note OFF: Time 21380, Note Name: C5
Note ON: Time 21480, Note Name: D#5, Velocity: 45
Note OFF: Time 21500, Note Name: D5
Note ON: Time 21600, Note Name: E5, Velocity: 48
Note OFF: Time 21620, Note Name: D#5
Note ON: Time 21720, Note Name: F5, Velocity: 50
Note OFF: Time 21740, Note Name: E5
Note ON: Time 21840, Note Name: G5, Velocity: 51
Note OFF: Time 21860, Note Name: F5
Note ON: Time 21960, Note Name: G#5, Velocity: 53
Note OFF: Time 21980, Note Name: G5
Note ON: Time 22080, Note Name: F#5, Velocity: 54
Note OFF: Time 22100, Note Name: G#5
Note ON: Time 22200, Note Name: G5, Velocity: 52
Note OFF: Time 22220, Note Name: F#5
Note ON: Time 22320, Note Name: E5, Velocity: 51
Note OFF: Time 22340, Note Name: G5
Note ON: Time 22440, Note Name: F5, Velocity: 48
Note OFF: Time 22460, Note Name: E5
Note ON: Time 22560, Note Name: D5, Velocity: 48
Note OFF: Time 22580, Note Name: F5
Note ON: Time 22680, Note Name: D#5, Velocity: 48
Note OFF: Time 22700, Note Name: D5
Note ON: Time 22800, Note Name: D5, Velocity: 46
Note OFF: Time 22820, Note Name: D#5
Note ON: Time 22920, Note Name: C5, Velocity: 45
Note OFF: Time 22940, Note Name: D5
Note OFF: Time 23040, Note Name: C5
Note ON: Time 23040, Note Name: B4, Velocity: 43
Note ON: Time 23160, Note Name: C5, Velocity: 44
Note OFF: Time 23180, Note Name: B4
Note ON: Time 23280, Note Name: D5, Velocity: 45
Note OFF: Time 23300, Note Name: C5
Note ON: Time 23400, Note Name: D#5, Velocity: 47
Note OFF: Time 23420, Note Name: D5
Note ON: Time 23520, Note Name: E5, Velocity: 49
Note OFF: Time 23540, Note Name: D#5
Note ON: Time 23640, Note Name: F5, Velocity: 51
Note OFF: Time 23660, Note Name: E5
Note ON: Time 23760, Note Name: G5, Velocity: 53
Note OFF: Time 23780, Note Name: F5
Note ON: Time 23880, Note Name: G#5, Velocity: 54
Note OFF: Time 23900, Note Name: G5
Note ON: Time 24000, Note Name: F#5, Velocity: 57
Note OFF: Time 24020, Note Name: G#5
Note ON: Time 24120, Note Name: G5, Velocity: 56
Note OFF: Time 24140, Note Name: F#5
Note ON: Time 24240, Note Name: E5, Velocity: 54
Note OFF: Time 24260, Note Name: G5
Note ON: Time 24360, Note Name: F5, Velocity: 51
Note OFF: Time 24380, Note Name: E5
Note ON: Time 24480, Note Name: D5, Velocity: 51
Note OFF: Time 24500, Note Name: F5
Note ON: Time 24600, Note Name: D#5, Velocity: 51
Note OFF: Time 24620, Note Name: D5
Note ON: Time 24720, Note Name: D5, Velocity: 49
Note OFF: Time 24740, Note Name: D#5
Note ON: Time 24840, Note Name: C5, Velocity: 48
Note OFF: Time 24860, Note Name: D5
Note OFF: Time 24960, Note Name: C5
Note ON: Time 24960, Note Name: C#5, Velocity: 46
Note ON: Time 25080, Note Name: D#5, Velocity: 45
Note OFF: Time 25100, Note Name: C#5
Note ON: Time 25200, Note Name: F5, Velocity: 47
Note OFF: Time 25220, Note Name: D#5
Note ON: Time 25320, Note Name: F#5, Velocity: 49
Note OFF: Time 25340, Note Name: F5
Note ON: Time 25440, Note Name: G#5, Velocity: 50
Note OFF: Time 25460, Note Name: F#5
Note ON: Time 25560, Note Name: A#5, Velocity: 51
Note OFF: Time 25580, Note Name: G#5
Note ON: Time 25680, Note Name: B5, Velocity: 53
Note OFF: Time 25700, Note Name: A#5
Note ON: Time 25800, Note Name: C6, Velocity: 55
Note OFF: Time 25820, Note Name: B5
Note ON: Time 25920, Note Name: C#6, Velocity: 56
Note OFF: Time 25940, Note Name: C6
Note ON: Time 26040, Note Name: D6, Velocity: 57
Note OFF: Time 26060, Note Name: C#6
Note ON: Time 26160, Note Name: F6, Velocity: 58
Note OFF: Time 26180, Note Name: D6
Note ON: Time 26280, Note Name: D#6, Velocity: 56
Note OFF: Time 26300, Note Name: F6
Note ON: Time 26400, Note Name: C6, Velocity: 56
Note OFF: Time 26420, Note Name: D#6
Note ON: Time 26520, Note Name: A5, Velocity: 54
Note OFF: Time 26540, Note Name: C6
Note ON: Time 26640, Note Name: F#5, Velocity: 53
Note OFF: Time 26660, Note Name: A5
Note ON: Time 26760, Note Name: D#5, Velocity: 51
Note OFF: Time 26780, Note Name: F#5
Note OFF: Time 26880, Note Name: D#5
Note ON: Time 26880, Note Name: C#5, Velocity: 48
Note ON: Time 27000, Note Name: D#5, Velocity: 51
Note OFF: Time 27020, Note Name: C#5
Note ON: Time 27120, Note Name: F5, Velocity: 51
Note OFF: Time 27140, Note Name: D#5
Note ON: Time 27240, Note Name: F#5, Velocity: 53
Note OFF: Time 27260, Note Name: F5
Note ON: Time 27360, Note Name: G#5, Velocity: 55
Note OFF: Time 27380, Note Name: F#5
Note ON: Time 27480, Note Name: A#5, Velocity: 56
Note OFF: Time 27500, Note Name: G#5
Note ON: Time 27600, Note Name: B5, Velocity: 58
Note OFF: Time 27620, Note Name: A#5
Note ON: Time 27720, Note Name: C6, Velocity: 58
Note OFF: Time 27740, Note Name: B5
Note ON: Time 27840, Note Name: C#6, Velocity: 60
Note OFF: Time 27860, Note Name: C6
Note ON: Time 27960, Note Name: C6, Velocity: 62
Note OFF: Time 27980, Note Name: C#6
Note ON: Time 28080, Note Name: D#6, Velocity: 63
Note OFF: Time 28100, Note Name: C6
Note ON: Time 28200, Note Name: C#6, Velocity: 60
Note OFF: Time 28220, Note Name: D#6
Note ON: Time 28320, Note Name: A#5, Velocity: 58
Note OFF: Time 28340, Note Name: C#6
Note ON: Time 28440, Note Name: G5, Velocity: 56
Note OFF: Time 28460, Note Name: A#5
Note ON: Time 28560, Note Name: E5, Velocity: 55
Note OFF: Time 28580, Note Name: G5
Note ON: Time 28680, Note Name: C#5, Velocity: 52
Note OFF: Time 28700, Note Name: E5
Note OFF: Time 28800, Note Name: C#5
Note ON: Time 28800, Note Name: C5, Velocity: 56
Note ON: Time 28920, Note Name: C#5, Velocity: 56
Note OFF: Time 28940, Note Name: C5
Note ON: Time 29040, Note Name: D5, Velocity: 57
Note OFF: Time 29060, Note Name: C#5
Note ON: Time 29160, Note Name: D#5, Velocity: 59
Note OFF: Time 29180, Note Name: D5
Note ON: Time 29280, Note Name: E5, Velocity: 60
Note OFF: Time 29300, Note Name: D#5
Note ON: Time 29400, Note Name: F5, Velocity: 61
Note OFF: Time 29420, Note Name: E5
Note ON: Time 29520, Note Name: F#5, Velocity: 61
Note OFF: Time 29540, Note Name: F5
Note ON: Time 29640, Note Name: G5, Velocity: 62
Note OFF: Time 29660, Note Name: F#5
Note ON: Time 29760, Note Name: G#5, Velocity: 62
Note OFF: Time 29780, Note Name: G5
Note ON: Time 29880, Note Name: A5, Velocity: 62
Note OFF: Time 29900, Note Name: G#5
Note ON: Time 30000, Note Name: C6, Velocity: 61
Note OFF: Time 30020, Note Name: A5
Note ON: Time 30120, Note Name: A#5, Velocity: 61
Note OFF: Time 30140, Note Name: C6
Note ON: Time 30240, Note Name: F#5, Velocity: 59
Note OFF: Time 30260, Note Name: A#5
Note ON: Time 30360, Note Name: F5, Velocity: 58
Note OFF: Time 30380, Note Name: F#5
Note ON: Time 30480, Note Name: D#5, Velocity: 57
Note OFF: Time 30500, Note Name: F5
Note ON: Time 30600, Note Name: C#5, Velocity: 56
Note OFF: Time 30620, Note Name: D#5
Note OFF: Time 30720, Note Name: C#5
Note ON: Time 30720, Note Name: C5, Velocity: 66
Note ON: Time 30840, Note Name: A#4, Velocity: 65
Note OFF: Time 30860, Note Name: C5
Note ON: Time 30960, Note Name: A4, Velocity: 65
Note OFF: Time 30980, Note Name: A#4
Note ON: Time 31080, Note Name: C5, Velocity: 65
Note OFF: Time 31100, Note Name: A4
Note ON: Time 31200, Note Name: F#4, Velocity: 64
Note OFF: Time 31220, Note Name: C5
Note ON: Time 31320, Note Name: F4, Velocity: 65
Note OFF: Time 31340, Note Name: F#4
Note ON: Time 31440, Note Name: E4, Velocity: 67
Note OFF: Time 31460, Note Name: F4
Note ON: Time 31560, Note Name: F4, Velocity: 69
Note OFF: Time 31580, Note Name: E4
Note ON: Time 31680, Note Name: F#4, Velocity: 70
Note OFF: Time 31700, Note Name: F4
Note ON: Time 31800, Note Name: F4, Velocity: 68
Note OFF: Time 31820, Note Name: F#4
Note ON: Time 31920, Note Name: A#4, Velocity: 72
Note OFF: Time 31940, Note Name: F4
Note ON: Time 32040, Note Name: A4, Velocity: 71
Note OFF: Time 32060, Note Name: A#4
Note ON: Time 32160, Note Name: C#5, Velocity: 74
Note OFF: Time 32180, Note Name: A4
Note ON: Time 32280, Note Name: C5, Velocity: 71
Note OFF: Time 32300, Note Name: C#5
Note ON: Time 32400, Note Name: G#5, Velocity: 74
Note OFF: Time 32420, Note Name: C5
Note ON: Time 32520, Note Name: F#5, Velocity: 75
Note OFF: Time 32540, Note Name: G#5
Note OFF: Time 32640, Note Name: F#5
Note ON: Time 32640, Note Name: F5, Velocity: 77
Note ON: Time 32760, Note Name: C5, Velocity: 77
Note OFF: Time 32780, Note Name: F5
Note ON: Time 32880, Note Name: D#5, Velocity: 78
Note OFF: Time 32900, Note Name: C5
Note ON: Time 33000, Note Name: C#5, Velocity: 79
Note OFF: Time 33020, Note Name: D#5
Note ON: Time 33120, Note Name: F4, Velocity: 79
Note OFF: Time 33140, Note Name: C#5
Note ON: Time 33240, Note Name: A4, Velocity: 80
Note OFF: Time 33260, Note Name: F4
Note ON: Time 33360, Note Name: A#4, Velocity: 81
Note OFF: Time 33380, Note Name: A4
Note ON: Time 33480, Note Name: C5, Velocity: 81
Note OFF: Time 33500, Note Name: A#4
Note ON: Time 33600, Note Name: C#5, Velocity: 82
Note OFF: Time 33620, Note Name: C5
Note ON: Time 33720, Note Name: D#5, Velocity: 83
Note OFF: Time 33740, Note Name: C#5
Note ON: Time 33840, Note Name: F5, Velocity: 84
Note OFF: Time 33860, Note Name: D#5
Note ON: Time 33960, Note Name: G5, Velocity: 84
Note OFF: Time 33980, Note Name: F5
Note ON: Time 34080, Note Name: A5, Velocity: 85
Note OFF: Time 34100, Note Name: G5
Note ON: Time 34200, Note Name: A#5, Velocity: 86
Note OFF: Time 34220, Note Name: A5
Note ON: Time 34320, Note Name: C6, Velocity: 86
Note OFF: Time 34340, Note Name: A#5
Note ON: Time 34440, Note Name: C#6, Velocity: 87
Note OFF: Time 34460, Note Name: C6
Note ON: Time 34560, Note Name: D#6, Velocity: 88
Note OFF: Time 34580, Note Name: C#6
Note ON: Time 34680, Note Name: F6, Velocity: 89
Note OFF: Time 34700, Note Name: D#6
Note ON: Time 34800, Note Name: G6, Velocity: 89
Note OFF: Time 34820, Note Name: F6
Note ON: Time 34920, Note Name: A6, Velocity: 90
Note OFF: Time 34940, Note Name: G6
Note ON: Time 35040, Note Name: A#6, Velocity: 91
Note OFF: Time 35060, Note Name: A6
Note ON: Time 35160, Note Name: C7, Velocity: 91
Note OFF: Time 35180, Note Name: A#6
Note ON: Time 35280, Note Name: C#7, Velocity: 92
Note OFF: Time 35300, Note Name: C7
Note ON: Time 35400, Note Name: D#7, Velocity: 93
Note OFF: Time 35420, Note Name: C#7
Note ON: Time 35520, Note Name: E7, Velocity: 94
Note OFF: Time 35540, Note Name: D#7
Note ON: Time 35640, Note Name: F7, Velocity: 92
Note OFF: Time 35660, Note Name: E7
Note ON: Time 35760, Note Name: D#7, Velocity: 92
Note OFF: Time 35780, Note Name: F7
Note ON: Time 35880, Note Name: C#7, Velocity: 91
Note OFF: Time 35900, Note Name: D#7
Note ON: Time 36000, Note Name: C7, Velocity: 90
Note OFF: Time 36020, Note Name: C#7
Note ON: Time 36120, Note Name: A#6, Velocity: 88
Note OFF: Time 36140, Note Name: C7
Note ON: Time 36240, Note Name: A6, Velocity: 87
Note OFF: Time 36260, Note Name: A#6
Note ON: Time 36360, Note Name: A#6, Velocity: 86
Note OFF: Time 36380, Note Name: A6
Note ON: Time 36480, Note Name: G#6, Velocity: 86
Note OFF: Time 36500, Note Name: A#6
Note ON: Time 36600, Note Name: F#6, Velocity: 85
Note OFF: Time 36620, Note Name: G#6
Note ON: Time 36720, Note Name: F6, Velocity: 83
Note OFF: Time 36740, Note Name: F#6
Note ON: Time 36840, Note Name: E6, Velocity: 82
Note OFF: Time 36860, Note Name: F6
Note ON: Time 36960, Note Name: F6, Velocity: 79
Note OFF: Time 36980, Note Name: E6
Note ON: Time 37080, Note Name: D#6, Velocity: 77
Note OFF: Time 37100, Note Name: F6
Note ON: Time 37200, Note Name: C#6, Velocity: 76
Note OFF: Time 37220, Note Name: D#6
Note ON: Time 37320, Note Name: C6, Velocity: 74
Note OFF: Time 37340, Note Name: C#6
Note ON: Time 37440, Note Name: A#5, Velocity: 72
Note OFF: Time 37460, Note Name: C6
Note ON: Time 37560, Note Name: A5, Velocity: 69
Note OFF: Time 37580, Note Name: A#5
Note ON: Time 37680, Note Name: A#5, Velocity: 68
Note OFF: Time 37700, Note Name: A5
Note ON: Time 37800, Note Name: G#5, Velocity: 67
Note OFF: Time 37820, Note Name: A#5
Note ON: Time 37920, Note Name: F#5, Velocity: 66
Note OFF: Time 37940, Note Name: G#5
Note ON: Time 38040, Note Name: F5, Velocity: 65
Note OFF: Time 38060, Note Name: F#5
Note ON: Time 38160, Note Name: D#5, Velocity: 63
Note OFF: Time 38180, Note Name: F5
Note ON: Time 38280, Note Name: C#5, Velocity: 61
Note OFF: Time 38300, Note Name: D#5
Note OFF: Time 38400, Note Name: C#5
Note ON: Time 38400, Note Name: C5, Velocity: 61
Note ON: Time 38520, Note Name: C#5, Velocity: 61
Note OFF: Time 38540, Note Name: C5
Note ON: Time 38640, Note Name: D#5, Velocity: 62
Note OFF: Time 38660, Note Name: C#5
Note ON: Time 38760, Note Name: F5, Velocity: 64
Note OFF: Time 38780, Note Name: D#5
Note ON: Time 38880, Note Name: F#5, Velocity: 66
Note OFF: Time 38900, Note Name: F5
Note ON: Time 39000, Note Name: G#5, Velocity: 66
Note OFF: Time 39020, Note Name: F#5
Note ON: Time 39120, Note Name: A#5, Velocity: 68
Note OFF: Time 39140, Note Name: G#5
Note ON: Time 39240, Note Name: C6, Velocity: 70
Note OFF: Time 39260, Note Name: A#5
Note ON: Time 39360, Note Name: A#5, Velocity: 70
Note OFF: Time 39380, Note Name: C6
Note ON: Time 39480, Note Name: G#5, Velocity: 71
Note OFF: Time 39500, Note Name: A#5
Note ON: Time 39600, Note Name: F#5, Velocity: 73
Note OFF: Time 39620, Note Name: G#5
Note ON: Time 39720, Note Name: F5, Velocity: 75
Note OFF: Time 39740, Note Name: F#5
Note ON: Time 39840, Note Name: D#5, Velocity: 75
Note OFF: Time 39860, Note Name: F5
Note ON: Time 39960, Note Name: C#5, Velocity: 73
Note OFF: Time 39980, Note Name: D#5
Note ON: Time 40080, Note Name: C5, Velocity: 72
Note OFF: Time 40100, Note Name: C#5
Note ON: Time 40200, Note Name: D#5, Velocity: 73
Note OFF: Time 40220, Note Name: C5
Note ON: Time 40320, Note Name: F#5, Velocity: 77
Note OFF: Time 40340, Note Name: D#5
Note ON: Time 40440, Note Name: D5, Velocity: 68
Note OFF: Time 40460, Note Name: F#5
Note ON: Time 40560, Note Name: E5, Velocity: 74
Note OFF: Time 40580, Note Name: D5
Note ON: Time 40680, Note Name: D#5, Velocity: 66
Note OFF: Time 40700, Note Name: E5
Note ON: Time 40800, Note Name: C5, Velocity: 72
Note OFF: Time 40820, Note Name: D#5
Note ON: Time 40920, Note Name: F#4, Velocity: 68
Note OFF: Time 40940, Note Name: C5
Note ON: Time 41040, Note Name: B4, Velocity: 69
Note OFF: Time 41060, Note Name: F#4
Note ON: Time 41160, Note Name: C5, Velocity: 70
Note OFF: Time 41180, Note Name: B4
Note ON: Time 41280, Note Name: C#5, Velocity: 72
Note OFF: Time 41300, Note Name: C5
Note ON: Time 41400, Note Name: C5, Velocity: 73
Note OFF: Time 41420, Note Name: C#5
Note ON: Time 41520, Note Name: D5, Velocity: 74
Note OFF: Time 41540, Note Name: C5
Note ON: Time 41640, Note Name: D#5, Velocity: 74
Note OFF: Time 41660, Note Name: D5
Note ON: Time 41760, Note Name: E5, Velocity: 75
Note OFF: Time 41780, Note Name: D#5
Note ON: Time 41880, Note Name: D#5, Velocity: 76
Note OFF: Time 41900, Note Name: E5
Note ON: Time 42000, Note Name: E5, Velocity: 78
Note OFF: Time 42020, Note Name: D#5
Note ON: Time 42120, Note Name: F5, Velocity: 79
Note OFF: Time 42140, Note Name: E5
Note OFF: Time 42240, Note Name: F5
Note ON: Time 42240, Note Name: G#5, Velocity: 80
Note ON: Time 42360, Note Name: F#5, Velocity: 81
Note OFF: Time 42380, Note Name: G#5
Note ON: Time 42480, Note Name: B5, Velocity: 82
Note OFF: Time 42500, Note Name: F#5
Note ON: Time 42600, Note Name: C6, Velocity: 84
Note OFF: Time 42620, Note Name: B5
Note ON: Time 42720, Note Name: C#6, Velocity: 85
Note OFF: Time 42740, Note Name: C6
Note ON: Time 42840, Note Name: C6, Velocity: 86
Note OFF: Time 42860, Note Name: C#6
Note ON: Time 42960, Note Name: D6, Velocity: 87
Note OFF: Time 42980, Note Name: C6
Note ON: Time 43080, Note Name: D#6, Velocity: 88
Note OFF: Time 43100, Note Name: D6
Note ON: Time 43200, Note Name: E6, Velocity: 90
Note OFF: Time 43220, Note Name: D#6
Note ON: Time 43320, Note Name: D#6, Velocity: 91
Note OFF: Time 43340, Note Name: E6
Note ON: Time 43440, Note Name: E6, Velocity: 92
Note OFF: Time 43460, Note Name: D#6
Note ON: Time 43560, Note Name: F6, Velocity: 92
Note OFF: Time 43580, Note Name: E6
Note ON: Time 43680, Note Name: G#6, Velocity: 93
Note OFF: Time 43700, Note Name: F6
Note ON: Time 43800, Note Name: A#6, Velocity: 94
Note OFF: Time 43820, Note Name: G#6
Note ON: Time 43920, Note Name: G#6, Velocity: 96
Note OFF: Time 43940, Note Name: A#6
Note ON: Time 44040, Note Name: G6, Velocity: 97
Note OFF: Time 44060, Note Name: G#6
Note ON: Time 44160, Note Name: F#6, Velocity: 95
Note OFF: Time 44180, Note Name: G6
Note ON: Time 44280, Note Name: F7, Velocity: 95
Note OFF: Time 44300, Note Name: F#6
Note ON: Time 44400, Note Name: D#7, Velocity: 93
Note OFF: Time 44420, Note Name: F7
Note ON: Time 44520, Note Name: F#6, Velocity: 91
Note OFF: Time 44540, Note Name: D#7
Note ON: Time 44640, Note Name: D#7, Velocity: 89
Note OFF: Time 44660, Note Name: F#6
Note ON: Time 44760, Note Name: C#7, Velocity: 87
Note OFF: Time 44780, Note Name: D#7
Note ON: Time 44880, Note Name: F6, Velocity: 85
Note OFF: Time 44900, Note Name: C#7
Note ON: Time 45000, Note Name: C#7, Velocity: 83
Note OFF: Time 45020, Note Name: F6
Note ON: Time 45120, Note Name: C7, Velocity: 81
Note OFF: Time 45140, Note Name: C#7
Note ON: Time 45240, Note Name: D#6, Velocity: 80
Note OFF: Time 45260, Note Name: C7
Note ON: Time 45360, Note Name: C7, Velocity: 78
Note OFF: Time 45380, Note Name: D#6
Note ON: Time 45480, Note Name: A#6, Velocity: 76
Note OFF: Time 45500, Note Name: C7
Note ON: Time 45600, Note Name: C#6, Velocity: 74
Note OFF: Time 45620, Note Name: A#6
Note ON: Time 45720, Note Name: A#6, Velocity: 73
Note OFF: Time 45740, Note Name: C#6
Note ON: Time 45840, Note Name: G#6, Velocity: 71
Note OFF: Time 45860, Note Name: A#6
Note ON: Time 45960, Note Name: C6, Velocity: 69
Note OFF: Time 45980, Note Name: G#6
Note OFF: Time 46080, Note Name: C6
Note ON: Time 46080, Note Name: G#6, Velocity: 68
Note ON: Time 46200, Note Name: F#6, Velocity: 67
Note OFF: Time 46220, Note Name: G#6
Note ON: Time 46320, Note Name: A#5, Velocity: 65
Note OFF: Time 46340, Note Name: F#6
Note ON: Time 46440, Note Name: F#6, Velocity: 64
Note OFF: Time 46460, Note Name: A#5
Note ON: Time 46560, Note Name: F6, Velocity: 62
Note OFF: Time 46580, Note Name: F#6
Note ON: Time 46680, Note Name: G#5, Velocity: 61
Note OFF: Time 46700, Note Name: F6
Note ON: Time 46800, Note Name: F6, Velocity: 60
Note OFF: Time 46820, Note Name: G#5
Note ON: Time 46920, Note Name: D#6, Velocity: 59
Note OFF: Time 46940, Note Name: F6
Note ON: Time 47040, Note Name: F#5, Velocity: 57
Note OFF: Time 47060, Note Name: D#6
Note ON: Time 47160, Note Name: D#6, Velocity: 56
Note OFF: Time 47180, Note Name: F#5
Note ON: Time 47280, Note Name: C#6, Velocity: 55
Note OFF: Time 47300, Note Name: D#6
Note ON: Time 47400, Note Name: F5, Velocity: 54
Note OFF: Time 47420, Note Name: C#6
Note ON: Time 47520, Note Name: A#5, Velocity: 53
Note OFF: Time 47540, Note Name: F5
Note ON: Time 47640, Note Name: G#5, Velocity: 51
Note OFF: Time 47660, Note Name: A#5
Note ON: Time 47760, Note Name: F5, Velocity: 51
Note OFF: Time 47780, Note Name: G#5
Note ON: Time 47880, Note Name: C#5, Velocity: 50
Note OFF: Time 47900, Note Name: F5
Note OFF: Time 48000, Note Name: C#5
Note ON: Time 48000, Note Name: C5, Velocity: 48
Note ON: Time 48120, Note Name: C#5, Velocity: 49
Note OFF: Time 48140, Note Name: C5
Note ON: Time 48240, Note Name: D#5, Velocity: 50
Note OFF: Time 48260, Note Name: C#5
Note ON: Time 48360, Note Name: E5, Velocity: 51
Note OFF: Time 48380, Note Name: D#5
Note ON: Time 48480, Note Name: F5, Velocity: 52
Note OFF: Time 48500, Note Name: E5
Note ON: Time 48600, Note Name: F#5, Velocity: 53
Note OFF: Time 48620, Note Name: F5
Note ON: Time 48720, Note Name: G#5, Velocity: 53
Note OFF: Time 48740, Note Name: F#5
Note ON: Time 48840, Note Name: A5, Velocity: 55
Note OFF: Time 48860, Note Name: G#5
Note ON: Time 48960, Note Name: G5, Velocity: 54
Note OFF: Time 48980, Note Name: A5
Note ON: Time 49080, Note Name: G#5, Velocity: 53
Note OFF: Time 49100, Note Name: G5
Note ON: Time 49200, Note Name: D#5, Velocity: 53
Note OFF: Time 49220, Note Name: G#5
Note ON: Time 49320, Note Name: E5, Velocity: 51
Note OFF: Time 49340, Note Name: D#5
Note ON: Time 49440, Note Name: G#4, Velocity: 51
Note OFF: Time 49460, Note Name: E5
Note ON: Time 49560, Note Name: E5, Velocity: 50
Note OFF: Time 49580, Note Name: G#4
Note ON: Time 49680, Note Name: D#5, Velocity: 48
Note OFF: Time 49700, Note Name: E5
Note ON: Time 49800, Note Name: C#5, Velocity: 47
Note OFF: Time 49820, Note Name: D#5
Note OFF: Time 49920, Note Name: C#5
Note ON: Time 49920, Note Name: C5, Velocity: 45
Note ON: Time 50040, Note Name: C#5, Velocity: 47
Note OFF: Time 50060, Note Name: C5
Note ON: Time 50160, Note Name: D#5, Velocity: 48
Note OFF: Time 50180, Note Name: C#5
Note ON: Time 50280, Note Name: E5, Velocity: 50
Note OFF: Time 50300, Note Name: D#5
Note ON: Time 50400, Note Name: F5, Velocity: 51
Note OFF: Time 50420, Note Name: E5
Note ON: Time 50520, Note Name: F#5, Velocity: 52
Note OFF: Time 50540, Note Name: F5
Note ON: Time 50640, Note Name: G#5, Velocity: 53
Note OFF: Time 50660, Note Name: F#5
Note ON: Time 50760, Note Name: A5, Velocity: 53
Note OFF: Time 50780, Note Name: G#5
Note ON: Time 50880, Note Name: G5, Velocity: 55
Note OFF: Time 50900, Note Name: A5
Note ON: Time 51000, Note Name: G#5, Velocity: 53
Note OFF: Time 51020, Note Name: G5
Note ON: Time 51120, Note Name: D#5, Velocity: 53
Note OFF: Time 51140, Note Name: G#5
Note ON: Time 51240, Note Name: E5, Velocity: 52
Note OFF: Time 51260, Note Name: D#5
Note ON: Time 51360, Note Name: G#4, Velocity: 51
Note OFF: Time 51380, Note Name: E5
Note ON: Time 51480, Note Name: E5, Velocity: 51
Note OFF: Time 51500, Note Name: G#4
Note ON: Time 51600, Note Name: C#5, Velocity: 50
Note OFF: Time 51620, Note Name: E5
Note ON: Time 51720, Note Name: B4, Velocity: 48
Note OFF: Time 51740, Note Name: C#5
Note OFF: Time 51840, Note Name: B4
Note ON: Time 51840, Note Name: A#4, Velocity: 47
Note ON: Time 51960, Note Name: B4, Velocity: 48
Note OFF: Time 51980, Note Name: A#4
Note ON: Time 52080, Note Name: C#5, Velocity: 50
Note OFF: Time 52100, Note Name: B4
Note ON: Time 52200, Note Name: D5, Velocity: 51
Note OFF: Time 52220, Note Name: C#5
Note ON: Time 52320, Note Name: D#5, Velocity: 51
Note OFF: Time 52340, Note Name: D5
Note ON: Time 52440, Note Name: E5, Velocity: 53
Note OFF: Time 52460, Note Name: D#5
Note ON: Time 52560, Note Name: F#5, Velocity: 53
Note OFF: Time 52580, Note Name: E5
Note ON: Time 52680, Note Name: G5, Velocity: 54
Note OFF: Time 52700, Note Name: F#5
Note ON: Time 52800, Note Name: F5, Velocity: 55
Note OFF: Time 52820, Note Name: G5
Note ON: Time 52920, Note Name: F#5, Velocity: 54
Note OFF: Time 52940, Note Name: F5
Note ON: Time 53040, Note Name: D#5, Velocity: 53
Note OFF: Time 53060, Note Name: F#5
Note ON: Time 53160, Note Name: E5, Velocity: 53
Note OFF: Time 53180, Note Name: D#5
Note ON: Time 53280, Note Name: C#5, Velocity: 52
Note OFF: Time 53300, Note Name: E5
Note ON: Time 53400, Note Name: D5, Velocity: 51
Note OFF: Time 53420, Note Name: C#5
Note ON: Time 53520, Note Name: B4, Velocity: 50
Note OFF: Time 53540, Note Name: D5
Note ON: Time 53640, Note Name: A4, Velocity: 49
Note OFF: Time 53660, Note Name: B4
Note OFF: Time 53760, Note Name: A4
Note ON: Time 53760, Note Name: G#4, Velocity: 48
Note ON: Time 53880, Note Name: A4, Velocity: 49
Note OFF: Time 53900, Note Name: G#4
Note ON: Time 54000, Note Name: B4, Velocity: 50
Note OFF: Time 54020, Note Name: A4
Note ON: Time 54120, Note Name: C5, Velocity: 51
Note OFF: Time 54140, Note Name: B4
Note ON: Time 54240, Note Name: C#5, Velocity: 52
Note OFF: Time 54260, Note Name: C5
Note ON: Time 54360, Note Name: D5, Velocity: 53
Note OFF: Time 54380, Note Name: C#5
Note ON: Time 54480, Note Name: E5, Velocity: 53
Note OFF: Time 54500, Note Name: D5
Note ON: Time 54600, Note Name: F5, Velocity: 55
Note OFF: Time 54620, Note Name: E5
Note ON: Time 54720, Note Name: D#5, Velocity: 56
Note OFF: Time 54740, Note Name: F5
Note ON: Time 54840, Note Name: E5, Velocity: 53
Note OFF: Time 54860, Note Name: D#5
Note ON: Time 54960, Note Name: C#5, Velocity: 54
Note OFF: Time 54980, Note Name: E5
Note ON: Time 55080, Note Name: D5, Velocity: 52
Note OFF: Time 55100, Note Name: C#5
Note ON: Time 55200, Note Name: B4, Velocity: 53
Note OFF: Time 55220, Note Name: D5
Note ON: Time 55320, Note Name: C5, Velocity: 51
Note OFF: Time 55340, Note Name: B4
Note ON: Time 55440, Note Name: B4, Velocity: 51
Note OFF: Time 55460, Note Name: C5
Note ON: Time 55560, Note Name: A4, Velocity: 50
Note OFF: Time 55580, Note Name: B4
Note OFF: Time 55680, Note Name: A4
Note ON: Time 55680, Note Name: G#4, Velocity: 59
Note ON: Time 55800, Note Name: A4, Velocity: 57
Note OFF: Time 55820, Note Name: G#4
Note ON: Time 55920, Note Name: C#5, Velocity: 63
Note OFF: Time 55940, Note Name: A4
Note ON: Time 56040, Note Name: C5, Velocity: 58
Note OFF: Time 56060, Note Name: C#5
Note ON: Time 56160, Note Name: A#4, Velocity: 61
Note OFF: Time 56180, Note Name: C5
Note ON: Time 56280, Note Name: A4, Velocity: 59
Note OFF: Time 56300, Note Name: A#4
Note ON: Time 56400, Note Name: F#5, Velocity: 63
Note OFF: Time 56420, Note Name: A4
Note ON: Time 56520, Note Name: F5, Velocity: 61
Note OFF: Time 56540, Note Name: F#5
Note ON: Time 56640, Note Name: D#5, Velocity: 61
Note OFF: Time 56660, Note Name: F5
Note ON: Time 56760, Note Name: C#5, Velocity: 63
Note OFF: Time 56780, Note Name: D#5
Note OFF: Time 56880, Note Name: C#5
Note ON: Time 56880, Note Name: C6, Velocity: 68
Note ON: Time 57000, Note Name: A#5, Velocity: 66
Note OFF: Time 57020, Note Name: C6
Note ON: Time 57120, Note Name: G#5, Velocity: 65
Note OFF: Time 57140, Note Name: A#5
Note ON: Time 57240, Note Name: F#5, Velocity: 64
Note OFF: Time 57260, Note Name: G#5
Note ON: Time 57360, Note Name: F5, Velocity: 63
Note OFF: Time 57380, Note Name: F#5
Note ON: Time 57480, Note Name: D#5, Velocity: 63
Note OFF: Time 57500, Note Name: F5
Note ON: Time 57600, Note Name: C#5, Velocity: 63
Note OFF: Time 57620, Note Name: D#5
Note ON: Time 57720, Note Name: C5, Velocity: 57
Note OFF: Time 57740, Note Name: C#5
Note OFF: Time 57840, Note Name: C5
Note ON: Time 57840, Note Name: A#5, Velocity: 61
Note ON: Time 57960, Note Name: G#5, Velocity: 60
Note OFF: Time 57980, Note Name: A#5
Note ON: Time 58080, Note Name: F#5, Velocity: 59
Note OFF: Time 58100, Note Name: G#5
Note ON: Time 58200, Note Name: F5, Velocity: 58
Note OFF: Time 58220, Note Name: F#5
Note ON: Time 58320, Note Name: D#5, Velocity: 57
Note OFF: Time 58340, Note Name: F5
Note ON: Time 58440, Note Name: C#5, Velocity: 61
Note OFF: Time 58460, Note Name: D#5
Note ON: Time 58560, Note Name: C5, Velocity: 61
Note OFF: Time 58580, Note Name: C#5
Note ON: Time 58680, Note Name: A#4, Velocity: 58
Note OFF: Time 58700, Note Name: C5
Note OFF: Time 58800, Note Name: A#4
Note ON: Time 58800, Note Name: G#5, Velocity: 62
Note ON: Time 58920, Note Name: F#5, Velocity: 61
Note OFF: Time 58940, Note Name: G#5
Note ON: Time 59040, Note Name: F5, Velocity: 60
Note OFF: Time 59060, Note Name: F#5
Note ON: Time 59160, Note Name: D#5, Velocity: 59
Note OFF: Time 59180, Note Name: F5
Note ON: Time 59280, Note Name: C#5, Velocity: 58
Note OFF: Time 59300, Note Name: D#5
Note ON: Time 59400, Note Name: C5, Velocity: 57
Note OFF: Time 59420, Note Name: C#5
Note ON: Time 59520, Note Name: A#4, Velocity: 64
Note OFF: Time 59540, Note Name: C5
Note ON: Time 59640, Note Name: A4, Velocity: 62
Note OFF: Time 59660, Note Name: A#4
Note ON: Time 59760, Note Name: G#4, Velocity: 59
Note OFF: Time 59780, Note Name: A4
Note ON: Time 59880, Note Name: G4, Velocity: 57
Note OFF: Time 59900, Note Name: G#4
Note OFF: Time 60000, Note Name: G4
Note ON: Time 60000, Note Name: G#4, Velocity: 64
Note ON: Time 60120, Note Name: G4, Velocity: 61
Note OFF: Time 60140, Note Name: G#4
Note ON: Time 60240, Note Name: F#4, Velocity: 58
Note OFF: Time 60260, Note Name: G4
Note ON: Time 60360, Note Name: F4, Velocity: 56
Note OFF: Time 60380, Note Name: F#4
Note OFF: Time 60480, Note Name: F4
Note ON: Time 60480, Note Name: G4, Velocity: 63
Note ON: Time 60600, Note Name: F#4, Velocity: 60
Note OFF: Time 60620, Note Name: G4
Note ON: Time 60720, Note Name: F4, Velocity: 58
Note OFF: Time 60740, Note Name: F#4
Note ON: Time 60840, Note Name: E4, Velocity: 55
Note OFF: Time 60860, Note Name: F4
Note OFF: Time 60960, Note Name: E4
Note ON: Time 60960, Note Name: F#4, Velocity: 63
Note ON: Time 61080, Note Name: F4, Velocity: 60
Note OFF: Time 61100, Note Name: F#4
Note ON: Time 61200, Note Name: E4, Velocity: 57
Note OFF: Time 61220, Note Name: F4
Note ON: Time 61320, Note Name: D#4, Velocity: 55
Note OFF: Time 61340, Note Name: E4
Note OFF: Time 61440, Note Name: D#4
Note ON: Time 61440, Note Name: F4, Velocity: 64
Note ON: Time 61560, Note Name: E4, Velocity: 62
Note OFF: Time 61580, Note Name: F4
Note ON: Time 61680, Note Name: D#4, Velocity: 58
Note OFF: Time 61700, Note Name: E4
Note ON: Time 61800, Note Name: D4, Velocity: 56
Note OFF: Time 61820, Note Name: D#4
Note OFF: Time 61920, Note Name: D4
Note ON: Time 61920, Note Name: E4, Velocity: 62
Note ON: Time 62040, Note Name: D#4, Velocity: 59
Note OFF: Time 62060, Note Name: E4
Note ON: Time 62160, Note Name: D4, Velocity: 56
Note OFF: Time 62180, Note Name: D#4
Note ON: Time 62280, Note Name: C#4, Velocity: 53
Note OFF: Time 62300, Note Name: D4
Note OFF: Time 62400, Note Name: C#4
Note ON: Time 62400, Note Name: D#4, Velocity: 59
Note ON: Time 62520, Note Name: D4, Velocity: 57
Note OFF: Time 62540, Note Name: D#4
Note ON: Time 62640, Note Name: C#4, Velocity: 54
Note OFF: Time 62660, Note Name: D4
Note ON: Time 62760, Note Name: C4, Velocity: 51
Note OFF: Time 62780, Note Name: C#4
Note OFF: Time 62880, Note Name: C4
Note ON: Time 62880, Note Name: D#4, Velocity: 58
Note ON: Time 63000, Note Name: C#4, Velocity: 55
Note OFF: Time 63020, Note Name: D#4
Note ON: Time 63120, Note Name: C4, Velocity: 52
Note OFF: Time 63140, Note Name: C#4
Note ON: Time 63240, Note Name: A#3, Velocity: 50
Note OFF: Time 63260, Note Name: C4
Note OFF: Time 63360, Note Name: A#3
Note ON: Time 63360, Note Name: A3, Velocity: 40
Note ON: Time 63480, Note Name: A#3, Velocity: 42
Note OFF: Time 63500, Note Name: A3
Note ON: Time 63600, Note Name: C4, Velocity: 42
Note OFF: Time 63620, Note Name: A#3
Note ON: Time 63720, Note Name: C#4, Velocity: 44
Note OFF: Time 63740, Note Name: C4
Note ON: Time 63840, Note Name: D#4, Velocity: 45
Note OFF: Time 63860, Note Name: C#4
Note ON: Time 63960, Note Name: E4, Velocity: 46
Note OFF: Time 63980, Note Name: D#4
Note ON: Time 64080, Note Name: F4, Velocity: 47
Note OFF: Time 64100, Note Name: E4
Note ON: Time 64200, Note Name: F#4, Velocity: 48
Note OFF: Time 64220, Note Name: F4
Note ON: Time 64320, Note Name: E4, Velocity: 51
Note OFF: Time 64340, Note Name: F#4
Note ON: Time 64440, Note Name: F4, Velocity: 49
Note OFF: Time 64460, Note Name: E4
Note ON: Time 64560, Note Name: D4, Velocity: 47
Note OFF: Time 64580, Note Name: F4
Note ON: Time 64680, Note Name: D#4, Velocity: 46
Note OFF: Time 64700, Note Name: D4
Note ON: Time 64800, Note Name: C4, Velocity: 45
Note OFF: Time 64820, Note Name: D#4
Note ON: Time 64920, Note Name: C#4, Velocity: 44
Note OFF: Time 64940, Note Name: C4
Note ON: Time 65040, Note Name: C4, Velocity: 43
Note OFF: Time 65060, Note Name: C#4
Note ON: Time 65160, Note Name: A#3, Velocity: 41
Note OFF: Time 65180, Note Name: C4
Note OFF: Time 65280, Note Name: A#3
Note ON: Time 65280, Note Name: A3, Velocity: 39
Note ON: Time 65400, Note Name: A#3, Velocity: 41
Note OFF: Time 65420, Note Name: A3
Note ON: Time 65520, Note Name: C4, Velocity: 42
Note OFF: Time 65540, Note Name: A#3
Note ON: Time 65640, Note Name: C#4, Velocity: 44
Note OFF: Time 65660, Note Name: C4
Note ON: Time 65760, Note Name: D#4, Velocity: 45
Note OFF: Time 65780, Note Name: C#4
Note ON: Time 65880, Note Name: E4, Velocity: 47
Note OFF: Time 65900, Note Name: D#4
Note ON: Time 66000, Note Name: F4, Velocity: 49
Note OFF: Time 66020, Note Name: E4
Note ON: Time 66120, Note Name: F#4, Velocity: 51
Note OFF: Time 66140, Note Name: F4
Note ON: Time 66240, Note Name: E4, Velocity: 51
Note OFF: Time 66260, Note Name: F#4
Note ON: Time 66360, Note Name: F4, Velocity: 50
Note OFF: Time 66380, Note Name: E4
Note ON: Time 66480, Note Name: D4, Velocity: 48
Note OFF: Time 66500, Note Name: F4
Note ON: Time 66600, Note Name: D#4, Velocity: 48
Note OFF: Time 66620, Note Name: D4
Note ON: Time 66720, Note Name: C4, Velocity: 46
Note OFF: Time 66740, Note Name: D#4
Note ON: Time 66840, Note Name: C#4, Velocity: 45
Note OFF: Time 66860, Note Name: C4
Note ON: Time 66960, Note Name: C4, Velocity: 45
Note OFF: Time 66980, Note Name: C#4
Note ON: Time 67080, Note Name: A#3, Velocity: 43
Note OFF: Time 67100, Note Name: C4
Note OFF: Time 67200, Note Name: A#3
Note ON: Time 67200, Note Name: C4, Velocity: 39
Note ON: Time 67320, Note Name: C#4, Velocity: 41
Note OFF: Time 67340, Note Name: C4
Note ON: Time 67440, Note Name: D#4, Velocity: 42
Note OFF: Time 67460, Note Name: C#4
Note ON: Time 67560, Note Name: F4, Velocity: 44
Note OFF: Time 67580, Note Name: D#4
Note ON: Time 67680, Note Name: F#4, Velocity: 45
Note OFF: Time 67700, Note Name: F4
Note ON: Time 67800, Note Name: C5, Velocity: 47
Note OFF: Time 67820, Note Name: F#4
Note ON: Time 67920, Note Name: A#4, Velocity: 45
Note OFF: Time 67940, Note Name: C5
Note ON: Time 68040, Note Name: C4, Velocity: 47
Note OFF: Time 68060, Note Name: A#4
Note ON: Time 68160, Note Name: A#3, Velocity: 39
Note OFF: Time 68180, Note Name: C4
Note ON: Time 68280, Note Name: C4, Velocity: 41
Note OFF: Time 68300, Note Name: A#3
Note ON: Time 68400, Note Name: C#4, Velocity: 43
Note OFF: Time 68420, Note Name: C4
Note ON: Time 68520, Note Name: D#4, Velocity: 45
Note OFF: Time 68540, Note Name: C#4
Note ON: Time 68640, Note Name: F4, Velocity: 47
Note OFF: Time 68660, Note Name: D#4
Note ON: Time 68760, Note Name: C5, Velocity: 49
Note OFF: Time 68780, Note Name: F4
Note ON: Time 68880, Note Name: A#4, Velocity: 47
Note OFF: Time 68900, Note Name: C5
Note ON: Time 69000, Note Name: F#4, Velocity: 48
Note OFF: Time 69020, Note Name: A#4
Note OFF: Time 69120, Note Name: F#4
Note ON: Time 69120, Note Name: E4, Velocity: 39
Note ON: Time 69240, Note Name: F4, Velocity: 41
Note OFF: Time 69260, Note Name: E4
Note ON: Time 69360, Note Name: F#4, Velocity: 42
Note OFF: Time 69380, Note Name: F4
Note ON: Time 69480, Note Name: F4, Velocity: 44
Note OFF: Time 69500, Note Name: F#4
Note ON: Time 69600, Note Name: A#4, Velocity: 47
Note OFF: Time 69620, Note Name: F4
Note ON: Time 69720, Note Name: A4, Velocity: 45
Note OFF: Time 69740, Note Name: A#4
Note ON: Time 69840, Note Name: F#5, Velocity: 54
Note OFF: Time 69860, Note Name: A4
Note ON: Time 69960, Note Name: F5, Velocity: 52
Note OFF: Time 69980, Note Name: F#5
Note ON: Time 70080, Note Name: D#5, Velocity: 56
Note OFF: Time 70100, Note Name: F5
Note ON: Time 70200, Note Name: C#5, Velocity: 53
Note OFF: Time 70220, Note Name: D#5
Note ON: Time 70320, Note Name: A#4, Velocity: 51
Note OFF: Time 70340, Note Name: C#5
Note ON: Time 70440, Note Name: F4, Velocity: 47
Note OFF: Time 70460, Note Name: A#4
Note ON: Time 70560, Note Name: D#4, Velocity: 47
Note OFF: Time 70580, Note Name: F4
Note ON: Time 70680, Note Name: C#4, Velocity: 45
Note OFF: Time 70700, Note Name: D#4
Note ON: Time 70800, Note Name: A#3, Velocity: 44
Note OFF: Time 70820, Note Name: C#4
Note ON: Time 70920, Note Name: F3, Velocity: 42
Note OFF: Time 70940, Note Name: A#3
Note OFF: Time 71040, Note Name: F3
Note ON: Time 71040, Note Name: A3, Velocity: 40
Note ON: Time 71160, Note Name: A#3, Velocity: 42
Note OFF: Time 71180, Note Name: A3
Note ON: Time 71280, Note Name: C4, Velocity: 42
Note OFF: Time 71300, Note Name: A#3
Note ON: Time 71400, Note Name: C#4, Velocity: 44
Note OFF: Time 71420, Note Name: C4
Note ON: Time 71520, Note Name: D#4, Velocity: 45
Note OFF: Time 71540, Note Name: C#4
Note ON: Time 71640, Note Name: E4, Velocity: 46
Note OFF: Time 71660, Note Name: D#4
Note ON: Time 71760, Note Name: F4, Velocity: 47
Note OFF: Time 71780, Note Name: E4
Note ON: Time 71880, Note Name: F#4, Velocity: 48
Note OFF: Time 71900, Note Name: F4
Note ON: Time 72000, Note Name: E4, Velocity: 51
Note OFF: Time 72020, Note Name: F#4
Note ON: Time 72120, Note Name: F4, Velocity: 49
Note OFF: Time 72140, Note Name: E4
Note ON: Time 72240, Note Name: D4, Velocity: 47
Note OFF: Time 72260, Note Name: F4
Note ON: Time 72360, Note Name: D#4, Velocity: 46
Note OFF: Time 72380, Note Name: D4
Note ON: Time 72480, Note Name: C4, Velocity: 45
Note OFF: Time 72500, Note Name: D#4
Note ON: Time 72600, Note Name: C#4, Velocity: 44
Note OFF: Time 72620, Note Name: C4
Note ON: Time 72720, Note Name: C4, Velocity: 43
Note OFF: Time 72740, Note Name: C#4
Note ON: Time 72840, Note Name: A#3, Velocity: 41
Note OFF: Time 72860, Note Name: C4
Note OFF: Time 72960, Note Name: A#3
Note ON: Time 72960, Note Name: A3, Velocity: 47
Note ON: Time 73080, Note Name: A#3, Velocity: 49
Note OFF: Time 73100, Note Name: A3
Note ON: Time 73200, Note Name: C4, Velocity: 50
Note OFF: Time 73220, Note Name: A#3
Note ON: Time 73320, Note Name: C#4, Velocity: 52
Note OFF: Time 73340, Note Name: C4
Note ON: Time 73440, Note Name: D#4, Velocity: 54
Note OFF: Time 73460, Note Name: C#4
Note ON: Time 73560, Note Name: E4, Velocity: 56
Note OFF: Time 73580, Note Name: D#4
Note ON: Time 73680, Note Name: F4, Velocity: 58
Note OFF: Time 73700, Note Name: E4
Note ON: Time 73800, Note Name: F#4, Velocity: 60
Note OFF: Time 73820, Note Name: F4
Note ON: Time 73920, Note Name: E4, Velocity: 60
Note OFF: Time 73940, Note Name: F#4
Note ON: Time 74040, Note Name: F4, Velocity: 59
Note OFF: Time 74060, Note Name: E4
Note ON: Time 74160, Note Name: D4, Velocity: 57
Note OFF: Time 74180, Note Name: F4
Note ON: Time 74280, Note Name: D#4, Velocity: 57
Note OFF: Time 74300, Note Name: D4
Note ON: Time 74400, Note Name: C4, Velocity: 55
Note OFF: Time 74420, Note Name: D#4
Note ON: Time 74520, Note Name: C#4, Velocity: 53
Note OFF: Time 74540, Note Name: C4
Note ON: Time 74640, Note Name: C4, Velocity: 53
Note OFF: Time 74660, Note Name: C#4
Note ON: Time 74760, Note Name: A#3, Velocity: 51
Note OFF: Time 74780, Note Name: C4
Note OFF: Time 74880, Note Name: A#3
Note ON: Time 74880, Note Name: B3, Velocity: 52
Note ON: Time 75000, Note Name: C#4, Velocity: 53
Note OFF: Time 75020, Note Name: B3
Note ON: Time 75120, Note Name: D#4, Velocity: 55
Note OFF: Time 75140, Note Name: C#4
Note ON: Time 75240, Note Name: E4, Velocity: 56
Note OFF: Time 75260, Note Name: D#4
Note ON: Time 75360, Note Name: F#4, Velocity: 58
Note OFF: Time 75380, Note Name: E4
Note ON: Time 75480, Note Name: G#4, Velocity: 60
Note OFF: Time 75500, Note Name: F#4
Note ON: Time 75600, Note Name: A#4, Velocity: 62
Note OFF: Time 75620, Note Name: G#4
Note ON: Time 75720, Note Name: B4, Velocity: 63
Note OFF: Time 75740, Note Name: A#4
Note ON: Time 75840, Note Name: C#5, Velocity: 66
Note OFF: Time 75860, Note Name: B4
Note ON: Time 75960, Note Name: D#5, Velocity: 68
Note OFF: Time 75980, Note Name: C#5
Note ON: Time 76080, Note Name: E5, Velocity: 70
Note OFF: Time 76100, Note Name: D#5
Note ON: Time 76200, Note Name: F#5, Velocity: 72
Note OFF: Time 76220, Note Name: E5
Note ON: Time 76320, Note Name: G#5, Velocity: 73
Note OFF: Time 76340, Note Name: F#5
Note ON: Time 76440, Note Name: A#5, Velocity: 76
Note OFF: Time 76460, Note Name: G#5
Note ON: Time 76560, Note Name: B5, Velocity: 77
Note OFF: Time 76580, Note Name: A#5
Note ON: Time 76680, Note Name: C#6, Velocity: 80
Note OFF: Time 76700, Note Name: B5
Note ON: Time 76800, Note Name: E6, Velocity: 81
Note OFF: Time 76820, Note Name: C#6
Note ON: Time 76920, Note Name: D#6, Velocity: 78
Note OFF: Time 76940, Note Name: E6
Note ON: Time 77040, Note Name: B5, Velocity: 78
Note OFF: Time 77060, Note Name: D#6
Note ON: Time 77160, Note Name: G#5, Velocity: 77
Note OFF: Time 77180, Note Name: B5
Note ON: Time 77280, Note Name: F#5, Velocity: 74
Note OFF: Time 77300, Note Name: G#5
Note ON: Time 77400, Note Name: D#5, Velocity: 72
Note OFF: Time 77420, Note Name: F#5
Note ON: Time 77520, Note Name: B4, Velocity: 72
Note OFF: Time 77540, Note Name: D#5
Note ON: Time 77640, Note Name: G#4, Velocity: 70
Note OFF: Time 77660, Note Name: B4
Note ON: Time 77760, Note Name: F#4, Velocity: 68
Note OFF: Time 77780, Note Name: G#4
Note ON: Time 77880, Note Name: D#4, Velocity: 64
Note OFF: Time 77900, Note Name: F#4
Note ON: Time 78000, Note Name: B3, Velocity: 61
Note OFF: Time 78020, Note Name: D#4
Note ON: Time 78120, Note Name: G#3, Velocity: 61
Note OFF: Time 78140, Note Name: B3
Note ON: Time 78240, Note Name: F#3, Velocity: 59
Note OFF: Time 78260, Note Name: G#3
Note ON: Time 78360, Note Name: D#3, Velocity: 59
Note OFF: Time 78380, Note Name: F#3
Note ON: Time 78480, Note Name: B2, Velocity: 57
Note OFF: Time 78500, Note Name: D#3
Note ON: Time 78600, Note Name: G#2, Velocity: 56
Note OFF: Time 78620, Note Name: B2
Note OFF: Time 78720, Note Name: G#2
Note ON: Time 78720, Note Name: E2, Velocity: 62
Note ON: Time 78840, Note Name: F2, Velocity: 63
Note OFF: Time 78860, Note Name: E2
Note ON: Time 78960, Note Name: A#2, Velocity: 64
Note OFF: Time 78980, Note Name: F2
Note ON: Time 79080, Note Name: A2, Velocity: 64
Note OFF: Time 79100, Note Name: A#2
Note ON: Time 79200, Note Name: F#2, Velocity: 65
Note OFF: Time 79220, Note Name: A2
Note ON: Time 79320, Note Name: F2, Velocity: 65
Note OFF: Time 79340, Note Name: F#2
Note ON: Time 79440, Note Name: C#3, Velocity: 65
Note OFF: Time 79460, Note Name: F2
Note ON: Time 79560, Note Name: C3, Velocity: 65
Note OFF: Time 79580, Note Name: C#3
Note ON: Time 79680, Note Name: A#2, Velocity: 67
Note OFF: Time 79700, Note Name: C3
Note ON: Time 79800, Note Name: A2, Velocity: 67
Note OFF: Time 79820, Note Name: A#2
Note ON: Time 79920, Note Name: F#3, Velocity: 69
Note OFF: Time 79940, Note Name: A2
Note ON: Time 80040, Note Name: F3, Velocity: 70
Note OFF: Time 80060, Note Name: F#3
Note ON: Time 80160, Note Name: C#3, Velocity: 70
Note OFF: Time 80180, Note Name: F3
Note ON: Time 80280, Note Name: C3, Velocity: 70
Note OFF: Time 80300, Note Name: C#3
Note ON: Time 80400, Note Name: A#3, Velocity: 71
Note OFF: Time 80420, Note Name: C3
Note ON: Time 80520, Note Name: A3, Velocity: 71
Note OFF: Time 80540, Note Name: A#3
Note ON: Time 80640, Note Name: F#3, Velocity: 71
Note OFF: Time 80660, Note Name: A3
Note ON: Time 80760, Note Name: F3, Velocity: 72
Note OFF: Time 80780, Note Name: F#3
Note ON: Time 80880, Note Name: C#4, Velocity: 72
Note OFF: Time 80900, Note Name: F3
Note ON: Time 81000, Note Name: C4, Velocity: 72
Note OFF: Time 81020, Note Name: C#4
Note ON: Time 81120, Note Name: A#3, Velocity: 73
Note OFF: Time 81140, Note Name: C4
Note ON: Time 81240, Note Name: A3, Velocity: 73
Note OFF: Time 81260, Note Name: A#3
Note ON: Time 81360, Note Name: F#4, Velocity: 73
Note OFF: Time 81380, Note Name: A3
Note ON: Time 81480, Note Name: F4, Velocity: 74
Note OFF: Time 81500, Note Name: F#4
Note ON: Time 81600, Note Name: C#4, Velocity: 74
Note OFF: Time 81620, Note Name: F4
Note ON: Time 81720, Note Name: C4, Velocity: 75
Note OFF: Time 81740, Note Name: C#4
Note ON: Time 81840, Note Name: A#4, Velocity: 75
Note OFF: Time 81860, Note Name: C4
Note ON: Time 81960, Note Name: A4, Velocity: 75
Note OFF: Time 81980, Note Name: A#4
Note ON: Time 82080, Note Name: F#4, Velocity: 76
Note OFF: Time 82100, Note Name: A4
Note ON: Time 82200, Note Name: F4, Velocity: 76
Note OFF: Time 82220, Note Name: F#4
Note ON: Time 82320, Note Name: C#5, Velocity: 76
Note OFF: Time 82340, Note Name: F4
Note ON: Time 82440, Note Name: C5, Velocity: 77
Note OFF: Time 82460, Note Name: C#5
Note OFF: Time 82560, Note Name: C5
Note ON: Time 82560, Note Name: A#4, Velocity: 77
Note ON: Time 82680, Note Name: A4, Velocity: 77
Note OFF: Time 82700, Note Name: A#4
Note ON: Time 82800, Note Name: F#5, Velocity: 78
Note OFF: Time 82820, Note Name: A4
Note ON: Time 82920, Note Name: F5, Velocity: 78
Note OFF: Time 82940, Note Name: F#5
Note ON: Time 83040, Note Name: C#5, Velocity: 79
Note OFF: Time 83060, Note Name: F5
Note ON: Time 83160, Note Name: C5, Velocity: 79
Note OFF: Time 83180, Note Name: C#5
Note ON: Time 83280, Note Name: A#5, Velocity: 79
Note OFF: Time 83300, Note Name: C5
Note ON: Time 83400, Note Name: A5, Velocity: 80
Note OFF: Time 83420, Note Name: A#5
Note ON: Time 83520, Note Name: F#5, Velocity: 80
Note OFF: Time 83540, Note Name: A5
Note ON: Time 83640, Note Name: F5, Velocity: 80
Note OFF: Time 83660, Note Name: F#5
Note ON: Time 83760, Note Name: C#6, Velocity: 81
Note OFF: Time 83780, Note Name: F5
Note ON: Time 83880, Note Name: C6, Velocity: 81
Note OFF: Time 83900, Note Name: C#6
Note ON: Time 84000, Note Name: A#5, Velocity: 81
Note OFF: Time 84020, Note Name: C6
Note ON: Time 84120, Note Name: A5, Velocity: 82
Note OFF: Time 84140, Note Name: A#5
Note ON: Time 84240, Note Name: F#6, Velocity: 82
Note OFF: Time 84260, Note Name: A5
Note ON: Time 84360, Note Name: F6, Velocity: 82
Note OFF: Time 84380, Note Name: F#6
Note ON: Time 84480, Note Name: C#6, Velocity: 83
Note OFF: Time 84500, Note Name: F6
Note ON: Time 84600, Note Name: C6, Velocity: 83
Note OFF: Time 84620, Note Name: C#6
Note ON: Time 84720, Note Name: A#6, Velocity: 84
Note OFF: Time 84740, Note Name: C6
Note ON: Time 84840, Note Name: A6, Velocity: 84
Note OFF: Time 84860, Note Name: A#6
Note ON: Time 84960, Note Name: F#6, Velocity: 84
Note OFF: Time 84980, Note Name: A6
Note ON: Time 85080, Note Name: F6, Velocity: 85
Note OFF: Time 85100, Note Name: F#6
Note ON: Time 85200, Note Name: C#7, Velocity: 85
Note OFF: Time 85220, Note Name: F6
Note ON: Time 85320, Note Name: C7, Velocity: 85
Note OFF: Time 85340, Note Name: C#7
Note ON: Time 85440, Note Name: F7, Velocity: 93
Note OFF: Time 85460, Note Name: C7
Note OFF: Time 85580, Note Name: F7
Note ON: Time 85920, Note Name: D#4, Velocity: 85
Note ON: Time 85920, Note Name: A4, Velocity: 85
Note ON: Time 85920, Note Name: F5, Velocity: 100
Note OFF: Time 86040, Note Name: F5
Note OFF: Time 86040, Note Name: A4
Note OFF: Time 86040, Note Name: D#4
Note ON: Time 86400, Note Name: A#5, Velocity: 113
Note ON: Time 86400, Note Name: A#4, Velocity: 100
Note OFF: Time 86880, Note Name: A#4
Note OFF: Time 86880, Note Name: A#5
Track 2: Piano left
Note ON: Time 120, Note Name: F1, Velocity: 70
Note ON: Time 120, Note Name: F2, Velocity: 84
Note OFF: Time 320, Note Name: F2
Note OFF: Time 320, Note Name: F1
Note ON: Time 320, Note Name: C3, Velocity: 47
Note ON: Time 320, Note Name: F3, Velocity: 53
Note ON: Time 320, Note Name: C4, Velocity: 71
Note OFF: Time 640, Note Name: C4
Note OFF: Time 640, Note Name: F3
Note OFF: Time 640, Note Name: C3
Note ON: Time 640, Note Name: C3, Velocity: 46
Note ON: Time 640, Note Name: F3, Velocity: 52
Note ON: Time 640, Note Name: C4, Velocity: 70
Note OFF: Time 960, Note Name: C4
Note OFF: Time 960, Note Name: F3
Note OFF: Time 960, Note Name: C3
Note ON: Time 960, Note Name: C3, Velocity: 47
Note ON: Time 960, Note Name: F3, Velocity: 53
Note ON: Time 960, Note Name: C4, Velocity: 72
Note OFF: Time 1280, Note Name: C4
Note OFF: Time 1280, Note Name: F3
Note OFF: Time 1280, Note Name: C3
Note ON: Time 1280, Note Name: C3, Velocity: 48
Note ON: Time 1280, Note Name: F3, Velocity: 55
Note ON: Time 1280, Note Name: C4, Velocity: 74
Note OFF: Time 1600, Note Name: C4
Note OFF: Time 1600, Note Name: F3
Note OFF: Time 1600, Note Name: C3
Note ON: Time 1600, Note Name: C3, Velocity: 46
Note ON: Time 1600, Note Name: F3, Velocity: 52
Note ON: Time 1600, Note Name: C4, Velocity: 70
Note OFF: Time 1900, Note Name: C4
Note OFF: Time 1900, Note Name: F3
Note OFF: Time 1900, Note Name: C3
Note ON: Time 1920, Note Name: A#2, Velocity: 53
Note OFF: Time 2160, Note Name: A#2
Note ON: Time 2160, Note Name: C#4, Velocity: 29
Note ON: Time 2160, Note Name: F3, Velocity: 23
Note OFF: Time 2280, Note Name: F3
Note OFF: Time 2280, Note Name: C#4
Note ON: Time 2640, Note Name: F2, Velocity: 40
Note OFF: Time 2880, Note Name: F2
Note ON: Time 2880, Note Name: A#2, Velocity: 57
Note OFF: Time 3120, Note Name: A#2
Note ON: Time 3120, Note Name: C#4, Velocity: 34
Note ON: Time 3120, Note Name: F3, Velocity: 27
Note OFF: Time 3240, Note Name: F3
Note OFF: Time 3240, Note Name: C#4
Note ON: Time 3600, Note Name: F2, Velocity: 47
Note OFF: Time 3840, Note Name: F2
Note ON: Time 3840, Note Name: A#2, Velocity: 65
Note OFF: Time 4080, Note Name: A#2
Note ON: Time 4080, Note Name: C#4, Velocity: 35
Note ON: Time 4080, Note Name: F3, Velocity: 28
Note OFF: Time 4200, Note Name: F3
Note OFF: Time 4200, Note Name: C#4
Note ON: Time 4560, Note Name: F2, Velocity: 50
Note OFF: Time 4800, Note Name: F2
Note ON: Time 4800, Note Name: A#2, Velocity: 68
Note OFF: Time 5040, Note Name: A#2
Note ON: Time 5040, Note Name: C#4, Velocity: 41
Note ON: Time 5040, Note Name: F3, Velocity: 34
Note OFF: Time 5160, Note Name: F3
Note OFF: Time 5160, Note Name: C#4
Note ON: Time 5520, Note Name: F2, Velocity: 46
Note OFF: Time 5760, Note Name: F2
Note ON: Time 5760, Note Name: A#2, Velocity: 60
Note OFF: Time 6000, Note Name: A#2
Note ON: Time 6000, Note Name: C#4, Velocity: 38
Note ON: Time 6000, Note Name: F3, Velocity: 32
Note OFF: Time 6120, Note Name: F3
Note OFF: Time 6120, Note Name: C#4
Note ON: Time 6480, Note Name: F2, Velocity: 42
Note OFF: Time 6720, Note Name: F2
Note ON: Time 6720, Note Name: A#2, Velocity: 54
Note OFF: Time 6960, Note Name: A#2
Note ON: Time 6960, Note Name: C#4, Velocity: 34
Note ON: Time 6960, Note Name: F3, Velocity: 28
Note OFF: Time 7080, Note Name: F3
Note OFF: Time 7080, Note Name: C#4
Note ON: Time 7440, Note Name: F2, Velocity: 39
Note OFF: Time 7680, Note Name: F2
Note ON: Time 7680, Note Name: A#2, Velocity: 51
Note OFF: Time 7920, Note Name: A#2
Note ON: Time 7920, Note Name: D#4, Velocity: 28
Note ON: Time 7920, Note Name: F#3, Velocity: 22
Note ON: Time 7920, Note Name: D#3, Velocity: 22
Note OFF: Time 8040, Note Name: D#3
Note OFF: Time 8040, Note Name: F#3
Note OFF: Time 8040, Note Name: D#4
Note ON: Time 8400, Note Name: A#1, Velocity: 43
Note OFF: Time 8640, Note Name: A#1
Note ON: Time 8640, Note Name: A#2, Velocity: 59
Note OFF: Time 8880, Note Name: A#2
Note ON: Time 8880, Note Name: D#4, Velocity: 35
Note ON: Time 8880, Note Name: F#3, Velocity: 29
Note ON: Time 8880, Note Name: D#3, Velocity: 29
Note OFF: Time 9000, Note Name: D#3
Note OFF: Time 9000, Note Name: F#3
Note OFF: Time 9000, Note Name: D#4
Note ON: Time 9360, Note Name: A#1, Velocity: 39
Note OFF: Time 9600, Note Name: A#1
Note ON: Time 9600, Note Name: A#2, Velocity: 56
Note OFF: Time 9840, Note Name: A#2
Note ON: Time 9840, Note Name: D#4, Velocity: 31
Note ON: Time 9840, Note Name: F#3, Velocity: 26
Note ON: Time 9840, Note Name: D#3, Velocity: 26
Note OFF: Time 9960, Note Name: D#3
Note OFF: Time 9960, Note Name: F#3
Note OFF: Time 9960, Note Name: D#4
Note ON: Time 10320, Note Name: A#1, Velocity: 37
Note OFF: Time 10560, Note Name: A#1
Note ON: Time 10560, Note Name: A#2, Velocity: 51
Note OFF: Time 10800, Note Name: A#2
Note ON: Time 10800, Note Name: D#4, Velocity: 29
Note ON: Time 10800, Note Name: F#3, Velocity: 24
Note ON: Time 10800, Note Name: D#3, Velocity: 24
Note OFF: Time 10920, Note Name: D#3
Note OFF: Time 10920, Note Name: F#3
Note OFF: Time 10920, Note Name: D#4
Note ON: Time 11280, Note Name: A#1, Velocity: 43
Note OFF: Time 11520, Note Name: A#1
Note ON: Time 11520, Note Name: A#2, Velocity: 59
Note OFF: Time 11760, Note Name: A#2
Note ON: Time 11760, Note Name: D#4, Velocity: 33
Note ON: Time 11760, Note Name: F#3, Velocity: 28
Note ON: Time 11760, Note Name: D#3, Velocity: 28
Note OFF: Time 11880, Note Name: D#3
Note OFF: Time 11880, Note Name: F#3
Note OFF: Time 11880, Note Name: D#4
Note ON: Time 12240, Note Name: A#1, Velocity: 56
Note OFF: Time 12480, Note Name: A#1
Note ON: Time 12480, Note Name: A#2, Velocity: 68
Note OFF: Time 12720, Note Name: A#2
Note ON: Time 12720, Note Name: D#4, Velocity: 36
Note ON: Time 12720, Note Name: F#3, Velocity: 29
Note ON: Time 12720, Note Name: D#3, Velocity: 29
Note OFF: Time 12840, Note Name: D#3
Note OFF: Time 12840, Note Name: F#3
Note OFF: Time 12840, Note Name: D#4
Note ON: Time 13200, Note Name: A#2, Velocity: 59
Note OFF: Time 13440, Note Name: A#2
Note ON: Time 13440, Note Name: A2, Velocity: 73
Note OFF: Time 13680, Note Name: A2
Note ON: Time 13680, Note Name: D#4, Velocity: 43
Note ON: Time 13680, Note Name: F#3, Velocity: 36
Note OFF: Time 13800, Note Name: F#3
Note OFF: Time 13800, Note Name: D#4
Note ON: Time 14160, Note Name: A1, Velocity: 46
Note OFF: Time 14400, Note Name: A1
Note ON: Time 14400, Note Name: A2, Velocity: 60
Note OFF: Time 14640, Note Name: A2
Note ON: Time 14640, Note Name: D#4, Velocity: 37
Note ON: Time 14640, Note Name: F#3, Velocity: 31
Note OFF: Time 14760, Note Name: F#3
Note OFF: Time 14760, Note Name: D#4
Note ON: Time 15120, Note Name: G#2, Velocity: 40
Note OFF: Time 15360, Note Name: G#2
Note ON: Time 15360, Note Name: A#2, Velocity: 55
Note OFF: Time 15600, Note Name: A#2
Note ON: Time 15600, Note Name: C#4, Velocity: 34
Note ON: Time 15600, Note Name: F3, Velocity: 28
Note OFF: Time 15720, Note Name: F3
Note OFF: Time 15720, Note Name: C#4
Note ON: Time 16080, Note Name: A#2, Velocity: 39
Note OFF: Time 16320, Note Name: A#2
Note ON: Time 16320, Note Name: C#3, Velocity: 49
Note OFF: Time 16560, Note Name: C#3
Note ON: Time 16560, Note Name: F4, Velocity: 29
Note ON: Time 16560, Note Name: A#3, Velocity: 25
Note ON: Time 16560, Note Name: F3, Velocity: 25
Note OFF: Time 16680, Note Name: F3
Note OFF: Time 16680, Note Name: A#3
Note OFF: Time 16680, Note Name: F4
Note ON: Time 17040, Note Name: C#3, Velocity: 33
Note OFF: Time 17280, Note Name: C#3
Note ON: Time 17280, Note Name: D#3, Velocity: 41
Note OFF: Time 17520, Note Name: D#3
Note ON: Time 17520, Note Name: F#4, Velocity: 25
Note ON: Time 17520, Note Name: A3, Velocity: 20
Note OFF: Time 17640, Note Name: A3
Note OFF: Time 17640, Note Name: F#4
Note ON: Time 18000, Note Name: D#3, Velocity: 35
Note OFF: Time 18240, Note Name: D#3
Note ON: Time 18240, Note Name: C#3, Velocity: 49
Note OFF: Time 18480, Note Name: C#3
Note ON: Time 18480, Note Name: F4, Velocity: 28
Note ON: Time 18480, Note Name: A#3, Velocity: 18
Note ON: Time 18480, Note Name: F3, Velocity: 18
Note OFF: Time 18600, Note Name: F3
Note OFF: Time 18600, Note Name: A#3
Note OFF: Time 18600, Note Name: F4
Note ON: Time 18960, Note Name: C#3, Velocity: 40
Note OFF: Time 19200, Note Name: C#3
Note ON: Time 19200, Note Name: D#3, Velocity: 50
Note OFF: Time 19440, Note Name: D#3
Note ON: Time 19440, Note Name: F#4, Velocity: 27
Note ON: Time 19440, Note Name: A3, Velocity: 22
Note OFF: Time 19560, Note Name: A3
Note OFF: Time 19560, Note Name: F#4
Note ON: Time 19920, Note Name: D#3, Velocity: 36
Note OFF: Time 20160, Note Name: D#3
Note ON: Time 20160, Note Name: C#3, Velocity: 51
Note OFF: Time 20400, Note Name: C#3
Note ON: Time 20400, Note Name: F4, Velocity: 29
Note ON: Time 20400, Note Name: A#3, Velocity: 24
Note ON: Time 20400, Note Name: F3, Velocity: 24
Note OFF: Time 20520, Note Name: F3
Note OFF: Time 20520, Note Name: A#3
Note OFF: Time 20520, Note Name: F4
Note ON: Time 20880, Note Name: C#3, Velocity: 36
Note OFF: Time 21120, Note Name: C#3
Note ON: Time 21120, Note Name: F3, Velocity: 42
Note OFF: Time 21360, Note Name: F3
Note ON: Time 21360, Note Name: G#4, Velocity: 28
Note ON: Time 21360, Note Name: B3, Velocity: 23
Note OFF: Time 21480, Note Name: B3
Note OFF: Time 21480, Note Name: G#4
Note ON: Time 21840, Note Name: F3, Velocity: 39
Note OFF: Time 22080, Note Name: F3
Note ON: Time 22080, Note Name: D#3, Velocity: 54
Note OFF: Time 22320, Note Name: D#3
Note ON: Time 22320, Note Name: G4, Velocity: 32
Note ON: Time 22320, Note Name: C4, Velocity: 26
Note ON: Time 22320, Note Name: G3, Velocity: 26
Note OFF: Time 22440, Note Name: G3
Note OFF: Time 22440, Note Name: C4
Note OFF: Time 22440, Note Name: G4
Note ON: Time 22800, Note Name: D#3, Velocity: 35
Note OFF: Time 23040, Note Name: D#3
Note ON: Time 23040, Note Name: F3, Velocity: 42
Note OFF: Time 23280, Note Name: F3
Note ON: Time 23280, Note Name: G#4, Velocity: 28
Note ON: Time 23280, Note Name: B3, Velocity: 23
Note OFF: Time 23400, Note Name: B3
Note OFF: Time 23400, Note Name: G#4
Note ON: Time 23760, Note Name: F3, Velocity: 38
Note OFF: Time 24000, Note Name: F3
Note ON: Time 24000, Note Name: D#3, Velocity: 52
Note OFF: Time 24240, Note Name: D#3
Note ON: Time 24240, Note Name: G4, Velocity: 32
Note ON: Time 24240, Note Name: C4, Velocity: 26
Note ON: Time 24240, Note Name: G3, Velocity: 26
Note OFF: Time 24360, Note Name: G3
Note OFF: Time 24360, Note Name: C4
Note OFF: Time 24360, Note Name: G4
Note ON: Time 24720, Note Name: D#3, Velocity: 45
Note OFF: Time 24960, Note Name: D#3
Note ON: Time 24960, Note Name: F3, Velocity: 55
Note OFF: Time 25200, Note Name: F3
Note ON: Time 25200, Note Name: G#4, Velocity: 28
Note ON: Time 25200, Note Name: C#4, Velocity: 23
Note ON: Time 25200, Note Name: G#3, Velocity: 23
Note OFF: Time 25320, Note Name: G#3
Note OFF: Time 25320, Note Name: C#4
Note OFF: Time 25320, Note Name: G#4
Note ON: Time 25680, Note Name: F3, Velocity: 40
Note OFF: Time 25920, Note Name: F3
Note ON: Time 25920, Note Name: F#3, Velocity: 55
Note OFF: Time 26160, Note Name: F#3
Note ON: Time 26160, Note Name: A4, Velocity: 34
Note ON: Time 26160, Note Name: C4, Velocity: 28
Note ON: Time 26160, Note Name: A3, Velocity: 28
Note OFF: Time 26280, Note Name: A3
Note OFF: Time 26280, Note Name: C4
Note OFF: Time 26280, Note Name: A4
Note ON: Time 26640, Note Name: F#3, Velocity: 39
Note OFF: Time 26880, Note Name: F#3
Note ON: Time 26880, Note Name: F3, Velocity: 51
Note OFF: Time 27120, Note Name: F3
Note ON: Time 27120, Note Name: G#4, Velocity: 30
Note ON: Time 27120, Note Name: C#4, Velocity: 27
Note ON: Time 27120, Note Name: G#3, Velocity: 27
Note OFF: Time 27240, Note Name: G#3
Note OFF: Time 27240, Note Name: C#4
Note OFF: Time 27240, Note Name: G#4
Note ON: Time 27600, Note Name: F3, Velocity: 45
Note OFF: Time 27840, Note Name: F3
Note ON: Time 27840, Note Name: E3, Velocity: 59
Note OFF: Time 28080, Note Name: E3
Note ON: Time 28080, Note Name: G4, Velocity: 34
Note ON: Time 28080, Note Name: C#4, Velocity: 29
Note ON: Time 28080, Note Name: A#3, Velocity: 29
Note OFF: Time 28200, Note Name: A#3
Note OFF: Time 28200, Note Name: C#4
Note OFF: Time 28200, Note Name: G4
Note ON: Time 28560, Note Name: E3, Velocity: 49
Note OFF: Time 28800, Note Name: E3
Note ON: Time 28800, Note Name: D#3, Velocity: 64
Note OFF: Time 29040, Note Name: D#3
Note ON: Time 29040, Note Name: C4, Velocity: 30
Note ON: Time 29040, Note Name: F#4, Velocity: 37
Note ON: Time 29040, Note Name: A3, Velocity: 30
Note OFF: Time 29160, Note Name: A3
Note OFF: Time 29160, Note Name: F#4
Note OFF: Time 29160, Note Name: C4
Note ON: Time 29520, Note Name: D#3, Velocity: 55
Note OFF: Time 29760, Note Name: D#3
Note ON: Time 29760, Note Name: C#3, Velocity: 66
Note OFF: Time 30000, Note Name: C#3
Note ON: Time 30000, Note Name: F4, Velocity: 37
Note ON: Time 30000, Note Name: A#3, Velocity: 30
Note ON: Time 30000, Note Name: F3, Velocity: 30
Note OFF: Time 30120, Note Name: F3
Note OFF: Time 30120, Note Name: A#3
Note OFF: Time 30120, Note Name: F4
Note ON: Time 30720, Note Name: F2, Velocity: 91
Note OFF: Time 30960, Note Name: F2
Note ON: Time 31110, Note Name: C3, Velocity: 68
Note ON: Time 31140, Note Name: F3, Velocity: 68
Note ON: Time 31170, Note Name: A3, Velocity: 68
Note ON: Time 31200, Note Name: D#4, Velocity: 81
Note OFF: Time 31680, Note Name: D#4
Note OFF: Time 31680, Note Name: C3
Note OFF: Time 31680, Note Name: F3
Note OFF: Time 31680, Note Name: A3
Note ON: Time 32640, Note Name: A#1, Velocity: 77
Note ON: Time 32640, Note Name: A#2, Velocity: 96
Note OFF: Time 32880, Note Name: A#2
Note OFF: Time 32880, Note Name: A#1
Note ON: Time 32880, Note Name: C#3, Velocity: 43
Note ON: Time 32880, Note Name: C#4, Velocity: 62
Note ON: Time 32880, Note Name: F3, Velocity: 51
Note OFF: Time 33000, Note Name: F3
Note OFF: Time 33000, Note Name: C#4
Note OFF: Time 33000, Note Name: C#3
Note ON: Time 33360, Note Name: F1, Velocity: 60
Note ON: Time 33360, Note Name: F2, Velocity: 79
Note OFF: Time 33600, Note Name: F2
Note OFF: Time 33600, Note Name: F1
Note ON: Time 33600, Note Name: A#1, Velocity: 78
Note ON: Time 33600, Note Name: A#2, Velocity: 98
Note OFF: Time 33840, Note Name: A#2
Note OFF: Time 33840, Note Name: A#1
Note ON: Time 33840, Note Name: C#3, Velocity: 42
Note ON: Time 33840, Note Name: C#4, Velocity: 62
Note ON: Time 33840, Note Name: F3, Velocity: 50
Note OFF: Time 33960, Note Name: F3
Note OFF: Time 33960, Note Name: C#4
Note OFF: Time 33960, Note Name: C#3
Note ON: Time 34320, Note Name: F1, Velocity: 61
Note ON: Time 34320, Note Name: F2, Velocity: 77
Note OFF: Time 34560, Note Name: F2
Note OFF: Time 34560, Note Name: F1
Note ON: Time 34560, Note Name: A#1, Velocity: 73
Note ON: Time 34560, Note Name: A#2, Velocity: 93
Note OFF: Time 34800, Note Name: A#2
Note OFF: Time 34800, Note Name: A#1
Note ON: Time 34800, Note Name: C#3, Velocity: 44
Note ON: Time 34800, Note Name: C#4, Velocity: 63
Note ON: Time 34800, Note Name: F3, Velocity: 52
Note OFF: Time 34920, Note Name: F3
Note OFF: Time 34920, Note Name: C#4
Note OFF: Time 34920, Note Name: C#3
Note ON: Time 35280, Note Name: F1, Velocity: 62
Note ON: Time 35280, Note Name: F2, Velocity: 79
Note OFF: Time 35520, Note Name: F2
Note OFF: Time 35520, Note Name: F1
Note ON: Time 35520, Note Name: A#1, Velocity: 79
Note ON: Time 35520, Note Name: A#2, Velocity: 96
Note OFF: Time 35760, Note Name: A#2
Note OFF: Time 35760, Note Name: A#1
Note ON: Time 35760, Note Name: C#3, Velocity: 51
Note ON: Time 35760, Note Name: C#4, Velocity: 72
Note ON: Time 35760, Note Name: F3, Velocity: 60
Note OFF: Time 35880, Note Name: F3
Note OFF: Time 35880, Note Name: C#4
Note OFF: Time 35880, Note Name: C#3
Note ON: Time 36240, Note Name: F1, Velocity: 56
Note ON: Time 36240, Note Name: F2, Velocity: 74
Note OFF: Time 36480, Note Name: F2
Note OFF: Time 36480, Note Name: F1
Note ON: Time 36480, Note Name: A#1, Velocity: 70
Note ON: Time 36480, Note Name: A#2, Velocity: 92
Note OFF: Time 36720, Note Name: A#2
Note OFF: Time 36720, Note Name: A#1
Note ON: Time 36720, Note Name: C#3, Velocity: 49
Note ON: Time 36720, Note Name: C#4, Velocity: 68
Note ON: Time 36720, Note Name: F3, Velocity: 58
Note OFF: Time 36840, Note Name: F3
Note OFF: Time 36840, Note Name: C#4
Note OFF: Time 36840, Note Name: C#3
Note ON: Time 37200, Note Name: F1, Velocity: 49
Note ON: Time 37200, Note Name: F2, Velocity: 65
Note OFF: Time 37440, Note Name: F2
Note OFF: Time 37440, Note Name: F1
Note ON: Time 37440, Note Name: A#1, Velocity: 62
Note ON: Time 37440, Note Name: A#2, Velocity: 77
Note OFF: Time 37680, Note Name: A#2
Note OFF: Time 37680, Note Name: A#1
Note ON: Time 37680, Note Name: C#3, Velocity: 40
Note ON: Time 37680, Note Name: C#4, Velocity: 57
Note ON: Time 37680, Note Name: F3, Velocity: 48
Note OFF: Time 37800, Note Name: F3
Note OFF: Time 37800, Note Name: C#4
Note OFF: Time 37800, Note Name: C#3
Note ON: Time 38160, Note Name: F1, Velocity: 45
Note ON: Time 38160, Note Name: F2, Velocity: 59
Note OFF: Time 38400, Note Name: F2
Note OFF: Time 38400, Note Name: F1
Note ON: Time 38400, Note Name: A#1, Velocity: 56
Note ON: Time 38400, Note Name: A#2, Velocity: 67
Note OFF: Time 38640, Note Name: A#2
Note OFF: Time 38640, Note Name: A#1
Note ON: Time 38640, Note Name: D#4, Velocity: 47
Note ON: Time 38640, Note Name: F#3, Velocity: 39
Note ON: Time 38640, Note Name: D#3, Velocity: 33
Note OFF: Time 38760, Note Name: D#3
Note OFF: Time 38760, Note Name: F#3
Note OFF: Time 38760, Note Name: D#4
Note ON: Time 39120, Note Name: F1, Velocity: 47
Note ON: Time 39120, Note Name: F2, Velocity: 62
Note OFF: Time 39360, Note Name: F2
Note OFF: Time 39360, Note Name: F1
Note ON: Time 39360, Note Name: A#1, Velocity: 64
Note ON: Time 39360, Note Name: A#2, Velocity: 76
Note OFF: Time 39600, Note Name: A#2
Note OFF: Time 39600, Note Name: A#1
Note ON: Time 39600, Note Name: D#4, Velocity: 57
Note ON: Time 39600, Note Name: F#3, Velocity: 47
Note ON: Time 39600, Note Name: D#3, Velocity: 39
Note OFF: Time 39720, Note Name: D#3
Note OFF: Time 39720, Note Name: F#3
Note OFF: Time 39720, Note Name: D#4
Note ON: Time 40080, Note Name: F1, Velocity: 51
Note ON: Time 40080, Note Name: F2, Velocity: 67
Note OFF: Time 40320, Note Name: F2
Note OFF: Time 40320, Note Name: F1
Note ON: Time 40320, Note Name: A1, Velocity: 69
Note ON: Time 40320, Note Name: A2, Velocity: 89
Note OFF: Time 40560, Note Name: A2
Note OFF: Time 40560, Note Name: A1
Note ON: Time 40560, Note Name: D#4, Velocity: 61
Note ON: Time 40560, Note Name: F#3, Velocity: 50
Note ON: Time 40560, Note Name: D#3, Velocity: 42
Note OFF: Time 40680, Note Name: D#3
Note OFF: Time 40680, Note Name: F#3
Note OFF: Time 40680, Note Name: D#4
Note ON: Time 41040, Note Name: D#1, Velocity: 48
Note ON: Time 41040, Note Name: D#2, Velocity: 63
Note OFF: Time 41280, Note Name: D#2
Note OFF: Time 41280, Note Name: D#1
Note ON: Time 41280, Note Name: A1, Velocity: 61
Note ON: Time 41280, Note Name: A2, Velocity: 81
Note OFF: Time 41520, Note Name: A2
Note OFF: Time 41520, Note Name: A1
Note ON: Time 41520, Note Name: D#4, Velocity: 57
Note ON: Time 41520, Note Name: F#3, Velocity: 47
Note ON: Time 41520, Note Name: D#3, Velocity: 39
Note OFF: Time 41640, Note Name: D#3
Note OFF: Time 41640, Note Name: F#3
Note OFF: Time 41640, Note Name: D#4
Note ON: Time 42000, Note Name: D#1, Velocity: 64
Note ON: Time 42000, Note Name: D#2, Velocity: 82
Note OFF: Time 42240, Note Name: D#2
Note OFF: Time 42240, Note Name: D#1
Note ON: Time 42240, Note Name: A1, Velocity: 78
Note ON: Time 42240, Note Name: A2, Velocity: 98
Note OFF: Time 42480, Note Name: A2
Note OFF: Time 42480, Note Name: A1
Note ON: Time 42480, Note Name: D#4, Velocity: 61
Note ON: Time 42480, Note Name: F#3, Velocity: 50
Note ON: Time 42480, Note Name: D#3, Velocity: 42
Note OFF: Time 42600, Note Name: D#3
Note OFF: Time 42600, Note Name: F#3
Note OFF: Time 42600, Note Name: D#4
Note ON: Time 42960, Note Name: D#1, Velocity: 57
Note ON: Time 42960, Note Name: D#2, Velocity: 77
Note OFF: Time 43200, Note Name: D#2
Note OFF: Time 43200, Note Name: D#1
Note ON: Time 43200, Note Name: A1, Velocity: 74
Note ON: Time 43200, Note Name: A2, Velocity: 93
Note OFF: Time 43440, Note Name: A2
Note OFF: Time 43440, Note Name: A1
Note ON: Time 43440, Note Name: D#4, Velocity: 66
Note ON: Time 43440, Note Name: F#3, Velocity: 55
Note ON: Time 43440, Note Name: D#3, Velocity: 46
Note OFF: Time 43560, Note Name: D#3
Note OFF: Time 43560, Note Name: F#3
Note OFF: Time 43560, Note Name: D#4
Note ON: Time 43920, Note Name: D#1, Velocity: 62
Note ON: Time 43920, Note Name: D#2, Velocity: 82
Note OFF: Time 44160, Note Name: D#2
Note OFF: Time 44160, Note Name: D#1
Note ON: Time 44160, Note Name: G#1, Velocity: 76
Note ON: Time 44160, Note Name: G#2, Velocity: 99
Note OFF: Time 44400, Note Name: G#2
Note OFF: Time 44400, Note Name: G#1
Note ON: Time 44400, Note Name: D#3, Velocity: 51
Note ON: Time 44400, Note Name: F#4, Velocity: 73
Note ON: Time 44400, Note Name: C4, Velocity: 61
Note OFF: Time 44520, Note Name: C4
Note OFF: Time 44520, Note Name: F#4
Note OFF: Time 44520, Note Name: D#3
Note ON: Time 44880, Note Name: D#1, Velocity: 53
Note ON: Time 44880, Note Name: D#2, Velocity: 69
Note OFF: Time 45120, Note Name: D#2
Note OFF: Time 45120, Note Name: D#1
Note ON: Time 45120, Note Name: G#1, Velocity: 63
Note ON: Time 45120, Note Name: G#2, Velocity: 82
Note OFF: Time 45360, Note Name: G#2
Note OFF: Time 45360, Note Name: G#1
Note ON: Time 45360, Note Name: D#3, Velocity: 43
Note ON: Time 45360, Note Name: F#4, Velocity: 61
Note ON: Time 45360, Note Name: C4, Velocity: 51
Note OFF: Time 45480, Note Name: C4
Note OFF: Time 45480, Note Name: F#4
Note OFF: Time 45480, Note Name: D#3
Note ON: Time 45840, Note Name: G#1, Velocity: 58
Note OFF: Time 46080, Note Name: G#1
Note ON: Time 46080, Note Name: G#2, Velocity: 73
Note OFF: Time 46320, Note Name: G#2
Note ON: Time 46320, Note Name: F3, Velocity: 43
Note ON: Time 46320, Note Name: F4, Velocity: 52
Note ON: Time 46320, Note Name: C#4, Velocity: 43
Note OFF: Time 46440, Note Name: C#4
Note OFF: Time 46440, Note Name: F4
Note OFF: Time 46440, Note Name: F3
Note ON: Time 46800, Note Name: G#1, Velocity: 51
Note OFF: Time 47040, Note Name: G#1
Note ON: Time 47040, Note Name: G#2, Velocity: 58
Note OFF: Time 47280, Note Name: G#2
Note ON: Time 47280, Note Name: C#4, Velocity: 45
Note ON: Time 47280, Note Name: F3, Velocity: 38
Note OFF: Time 47400, Note Name: F3
Note OFF: Time 47400, Note Name: C#4
Note ON: Time 47760, Note Name: G#1, Velocity: 42
Note OFF: Time 48000, Note Name: G#1
Note ON: Time 48000, Note Name: G#2, Velocity: 49
Note OFF: Time 48240, Note Name: G#2
Note ON: Time 48240, Note Name: D#3, Velocity: 30
Note ON: Time 48240, Note Name: C4, Velocity: 37
Note ON: Time 48240, Note Name: F#3, Velocity: 30
Note OFF: Time 48360, Note Name: F#3
Note OFF: Time 48360, Note Name: C4
Note OFF: Time 48360, Note Name: D#3
Note ON: Time 48720, Note Name: G#1, Velocity: 42
Note OFF: Time 48960, Note Name: G#1
Note ON: Time 48960, Note Name: G#2, Velocity: 51
Note OFF: Time 49200, Note Name: G#2
Note ON: Time 49200, Note Name: C#4, Velocity: 38
Note ON: Time 49200, Note Name: E3, Velocity: 24
Note OFF: Time 49320, Note Name: E3
Note OFF: Time 49320, Note Name: C#4
Note ON: Time 49680, Note Name: G#1, Velocity: 45
Note OFF: Time 49920, Note Name: G#1
Note ON: Time 49920, Note Name: G#2, Velocity: 49
Note OFF: Time 50160, Note Name: G#2
Note ON: Time 50160, Note Name: D#3, Velocity: 30
Note ON: Time 50160, Note Name: C4, Velocity: 37
Note ON: Time 50160, Note Name: F#3, Velocity: 30
Note OFF: Time 50280, Note Name: F#3
Note OFF: Time 50280, Note Name: C4
Note OFF: Time 50280, Note Name: D#3
Note ON: Time 50640, Note Name: G#2, Velocity: 42
Note OFF: Time 50880, Note Name: G#2
Note ON: Time 50880, Note Name: C#3, Velocity: 51
Note OFF: Time 51120, Note Name: C#3
Note ON: Time 51120, Note Name: C#4, Velocity: 38
Note ON: Time 51120, Note Name: E3, Velocity: 24
Note OFF: Time 51240, Note Name: E3
Note OFF: Time 51240, Note Name: C#4
Note ON: Time 51600, Note Name: G2, Velocity: 45
Note OFF: Time 51840, Note Name: G2
Note ON: Time 51840, Note Name: F#2, Velocity: 49
Note OFF: Time 52080, Note Name: F#2
Note ON: Time 52080, Note Name: F#3, Velocity: 30
Note ON: Time 52080, Note Name: E4, Velocity: 37
Note ON: Time 52080, Note Name: A#3, Velocity: 30
Note OFF: Time 52200, Note Name: A#3
Note OFF: Time 52200, Note Name: E4
Note OFF: Time 52200, Note Name: F#3
Note ON: Time 52560, Note Name: F#1, Velocity: 42
Note OFF: Time 52800, Note Name: F#1
Note ON: Time 52800, Note Name: F#2, Velocity: 51
Note OFF: Time 53040, Note Name: F#2
Note ON: Time 53040, Note Name: B3, Velocity: 24
Note ON: Time 53040, Note Name: D4, Velocity: 38
Note ON: Time 53040, Note Name: F#3, Velocity: 24
Note OFF: Time 53160, Note Name: F#3
Note OFF: Time 53160, Note Name: D4
Note OFF: Time 53160, Note Name: B3
Note ON: Time 53520, Note Name: F2, Velocity: 45
Note OFF: Time 53760, Note Name: F2
Note ON: Time 53760, Note Name: E2, Velocity: 49
Note OFF: Time 54000, Note Name: E2
Note ON: Time 54000, Note Name: E3, Velocity: 30
Note ON: Time 54000, Note Name: D4, Velocity: 37
Note ON: Time 54000, Note Name: G#3, Velocity: 30
Note OFF: Time 54120, Note Name: G#3
Note OFF: Time 54120, Note Name: D4
Note OFF: Time 54120, Note Name: E3
Note ON: Time 54480, Note Name: E1, Velocity: 42
Note OFF: Time 54720, Note Name: E1
Note ON: Time 54720, Note Name: E2, Velocity: 51
Note OFF: Time 54960, Note Name: E2
Note ON: Time 54960, Note Name: A3, Velocity: 24
Note ON: Time 54960, Note Name: C4, Velocity: 38
Note ON: Time 54960, Note Name: E3, Velocity: 24
Note OFF: Time 55080, Note Name: E3
Note OFF: Time 55080, Note Name: C4
Note OFF: Time 55080, Note Name: A3
Note ON: Time 55440, Note Name: E1, Velocity: 38
Note ON: Time 55440, Note Name: E2, Velocity: 45
Note OFF: Time 55680, Note Name: E2
Note OFF: Time 55680, Note Name: E1
Note ON: Time 55680, Note Name: F1, Velocity: 48
Note ON: Time 55680, Note Name: F2, Velocity: 57
Note OFF: Time 55920, Note Name: F2
Note OFF: Time 55920, Note Name: F1
Note ON: Time 56040, Note Name: C3, Velocity: 41
Note ON: Time 56100, Note Name: F3, Velocity: 41
Note ON: Time 56160, Note Name: D#4, Velocity: 49
Note OFF: Time 56520, Note Name: D#4
Note OFF: Time 56520, Note Name: F3
Note OFF: Time 56520, Note Name: C3
Note ON: Time 56520, Note Name: A#2, Velocity: 44
Note ON: Time 56580, Note Name: F3, Velocity: 44
Note ON: Time 56640, Note Name: C#4, Velocity: 52
Note OFF: Time 57000, Note Name: C#4
Note OFF: Time 57000, Note Name: F3
Note OFF: Time 57000, Note Name: A#2
Note ON: Time 57000, Note Name: D#3, Velocity: 40
Note ON: Time 57060, Note Name: A#3, Velocity: 40
Note ON: Time 57120, Note Name: F#4, Velocity: 47
Note OFF: Time 57480, Note Name: F#4
Note OFF: Time 57480, Note Name: A#3
Note OFF: Time 57480, Note Name: D#3
Note ON: Time 57480, Note Name: G#2, Velocity: 48
Note ON: Time 57540, Note Name: F#3, Velocity: 48
Note ON: Time 57600, Note Name: C4, Velocity: 57
Note OFF: Time 57960, Note Name: C4
Note OFF: Time 57960, Note Name: F#3
Note OFF: Time 57960, Note Name: G#2
Note ON: Time 57960, Note Name: C#3, Velocity: 41
Note ON: Time 58020, Note Name: G#3, Velocity: 41
Note ON: Time 58080, Note Name: F4, Velocity: 49
Note OFF: Time 58440, Note Name: F4
Note OFF: Time 58440, Note Name: G#3
Note OFF: Time 58440, Note Name: C#3
Note ON: Time 58440, Note Name: F#2, Velocity: 44
Note ON: Time 58500, Note Name: C#3, Velocity: 44
Note ON: Time 58560, Note Name: A#3, Velocity: 52
Note OFF: Time 58920, Note Name: A#3
Note OFF: Time 58920, Note Name: C#3
Note OFF: Time 58920, Note Name: F#2
Note ON: Time 58920, Note Name: C3, Velocity: 40
Note ON: Time 58980, Note Name: F#3, Velocity: 40
Note ON: Time 59040, Note Name: D#4, Velocity: 47
Note OFF: Time 59400, Note Name: D#4
Note OFF: Time 59400, Note Name: F#3
Note OFF: Time 59400, Note Name: C3
Note ON: Time 59520, Note Name: A#3, Velocity: 40
Note ON: Time 59520, Note Name: F3, Velocity: 40
Note ON: Time 59520, Note Name: C#3, Velocity: 40
Note ON: Time 59520, Note Name: C#4, Velocity: 47
Note OFF: Time 60000, Note Name: C#4
Note OFF: Time 60000, Note Name: A#3
Note OFF: Time 60000, Note Name: F3
Note OFF: Time 60000, Note Name: C#3
Note ON: Time 60000, Note Name: D#3, Velocity: 40
Note ON: Time 60000, Note Name: F#3, Velocity: 40
Note ON: Time 60000, Note Name: A#3, Velocity: 40
Note ON: Time 60000, Note Name: C4, Velocity: 47
Note OFF: Time 60480, Note Name: C4
Note OFF: Time 60480, Note Name: D#3
Note OFF: Time 60480, Note Name: F#3
Note OFF: Time 60480, Note Name: A#3
Note ON: Time 60960, Note Name: F#3, Velocity: 53
Note OFF: Time 61080, Note Name: F#3
Note ON: Time 61080, Note Name: F3, Velocity: 51
Note OFF: Time 61200, Note Name: F3
Note ON: Time 61200, Note Name: E3, Velocity: 48
Note OFF: Time 61320, Note Name: E3
Note ON: Time 61320, Note Name: D#3, Velocity: 46
Note OFF: Time 61440, Note Name: D#3
Note ON: Time 61440, Note Name: F3, Velocity: 54
Note OFF: Time 61560, Note Name: F3
Note ON: Time 61560, Note Name: E3, Velocity: 52
Note OFF: Time 61680, Note Name: E3
Note ON: Time 61680, Note Name: D#3, Velocity: 49
Note OFF: Time 61800, Note Name: D#3
Note ON: Time 61800, Note Name: D3, Velocity: 47
Note OFF: Time 61920, Note Name: D3
Note ON: Time 61920, Note Name: E3, Velocity: 52
Note OFF: Time 62040, Note Name: E3
Note ON: Time 62040, Note Name: D#3, Velocity: 49
Note OFF: Time 62160, Note Name: D#3
Note ON: Time 62160, Note Name: D3, Velocity: 47
Note OFF: Time 62280, Note Name: D3
Note ON: Time 62280, Note Name: C#3, Velocity: 45
Note OFF: Time 62400, Note Name: C#3
Note ON: Time 62400, Note Name: D#3, Velocity: 50
Note OFF: Time 62520, Note Name: D#3
Note ON: Time 62520, Note Name: D3, Velocity: 48
Note OFF: Time 62640, Note Name: D3
Note ON: Time 62640, Note Name: C#3, Velocity: 46
Note OFF: Time 62760, Note Name: C#3
Note ON: Time 62760, Note Name: C3, Velocity: 43
Note OFF: Time 62880, Note Name: C3
Note ON: Time 62880, Note Name: D#3, Velocity: 49
Note OFF: Time 63000, Note Name: D#3
Note ON: Time 63000, Note Name: C#3, Velocity: 46
Note OFF: Time 63120, Note Name: C#3
Note ON: Time 63120, Note Name: C3, Velocity: 44
Note OFF: Time 63240, Note Name: C3
Note ON: Time 63240, Note Name: A#2, Velocity: 41
Note OFF: Time 63360, Note Name: A#2
Note ON: Time 63360, Note Name: D#2, Velocity: 39
Note OFF: Time 63600, Note Name: D#2
Note ON: Time 63600, Note Name: F#3, Velocity: 28
Note ON: Time 63600, Note Name: A2, Velocity: 23
Note OFF: Time 63720, Note Name: A2
Note OFF: Time 63720, Note Name: F#3
Note ON: Time 64080, Note Name: D#2, Velocity: 42
Note OFF: Time 64320, Note Name: D#2
Note ON: Time 64320, Note Name: C#2, Velocity: 54
Note OFF: Time 64560, Note Name: C#2
Note ON: Time 64560, Note Name: F3, Velocity: 32
Note ON: Time 64560, Note Name: A#2, Velocity: 21
Note OFF: Time 64680, Note Name: A#2
Note OFF: Time 64680, Note Name: F3
Note ON: Time 65040, Note Name: C#2, Velocity: 34
Note OFF: Time 65280, Note Name: C#2
Note ON: Time 65280, Note Name: D#2, Velocity: 41
Note OFF: Time 65520, Note Name: D#2
Note ON: Time 65520, Note Name: F#3, Velocity: 29
Note ON: Time 65520, Note Name: A2, Velocity: 25
Note OFF: Time 65640, Note Name: A2
Note OFF: Time 65640, Note Name: F#3
Note ON: Time 66000, Note Name: D#2, Velocity: 42
Note OFF: Time 66240, Note Name: D#2
Note ON: Time 66240, Note Name: C#2, Velocity: 56
Note OFF: Time 66480, Note Name: C#2
Note ON: Time 66480, Note Name: F3, Velocity: 33
Note ON: Time 66480, Note Name: A#2, Velocity: 28
Note OFF: Time 66600, Note Name: A#2
Note OFF: Time 66600, Note Name: F3
Note ON: Time 66960, Note Name: C#2, Velocity: 36
Note OFF: Time 67200, Note Name: C#2
Note ON: Time 67200, Note Name: D#2, Velocity: 39
Note OFF: Time 67440, Note Name: D#2
Note ON: Time 67440, Note Name: F#3, Velocity: 29
Note ON: Time 67440, Note Name: A#2, Velocity: 25
Note OFF: Time 67560, Note Name: A#2
Note OFF: Time 67560, Note Name: F#3
Note ON: Time 67920, Note Name: D#2, Velocity: 41
Note OFF: Time 68160, Note Name: D#2
Note ON: Time 68160, Note Name: F2, Velocity: 49
Note OFF: Time 68400, Note Name: F2
Note ON: Time 68400, Note Name: A#3, Velocity: 30
Note ON: Time 68400, Note Name: C#3, Velocity: 26
Note OFF: Time 68520, Note Name: C#3
Note OFF: Time 68520, Note Name: A#3
Note ON: Time 68880, Note Name: F1, Velocity: 38
Note OFF: Time 69120, Note Name: F1
Note ON: Time 69120, Note Name: F2, Velocity: 39
Note OFF: Time 69360, Note Name: F2
Note ON: Time 69360, Note Name: A3, Velocity: 29
Note ON: Time 69360, Note Name: D#3, Velocity: 25
Note OFF: Time 69480, Note Name: D#3
Note OFF: Time 69480, Note Name: A3
Note ON: Time 69840, Note Name: F2, Velocity: 40
Note OFF: Time 70080, Note Name: F2
Note ON: Time 70080, Note Name: A#2, Velocity: 57
Note OFF: Time 70320, Note Name: A#2
Note ON: Time 70320, Note Name: C#4, Velocity: 33
Note ON: Time 70320, Note Name: F3, Velocity: 28
Note OFF: Time 70440, Note Name: F3
Note OFF: Time 70440, Note Name: C#4
Note ON: Time 70800, Note Name: C#2, Velocity: 36
Note OFF: Time 71040, Note Name: C#2
Note ON: Time 71040, Note Name: D#2, Velocity: 43
Note OFF: Time 71280, Note Name: D#2
Note ON: Time 71280, Note Name: F#3, Velocity: 28
Note ON: Time 71280, Note Name: A2, Velocity: 23
Note OFF: Time 71400, Note Name: A2
Note OFF: Time 71400, Note Name: F#3
Note ON: Time 71760, Note Name: D#2, Velocity: 42
Note OFF: Time 72000, Note Name: D#2
Note ON: Time 72000, Note Name: C#2, Velocity: 56
Note OFF: Time 72240, Note Name: C#2
Note ON: Time 72240, Note Name: F3, Velocity: 32
Note ON: Time 72240, Note Name: A#2, Velocity: 21
Note OFF: Time 72360, Note Name: A#2
Note OFF: Time 72360, Note Name: F3
Note ON: Time 72720, Note Name: C#2, Velocity: 34
Note OFF: Time 72960, Note Name: C#2
Note ON: Time 72960, Note Name: D#2, Velocity: 48
Note OFF: Time 73200, Note Name: D#2
Note ON: Time 73200, Note Name: F#3, Velocity: 35
Note ON: Time 73200, Note Name: A2, Velocity: 30
Note OFF: Time 73320, Note Name: A2
Note OFF: Time 73320, Note Name: F#3
Note ON: Time 73680, Note Name: D#2, Velocity: 43
Note OFF: Time 73920, Note Name: D#2
Note ON: Time 73920, Note Name: C#2, Velocity: 63
Note OFF: Time 74160, Note Name: C#2
Note ON: Time 74160, Note Name: F3, Velocity: 39
Note ON: Time 74160, Note Name: A#2, Velocity: 33
Note OFF: Time 74280, Note Name: A#2
Note OFF: Time 74280, Note Name: F3
Note ON: Time 74640, Note Name: C#2, Velocity: 43
Note OFF: Time 74880, Note Name: C#2
Note ON: Time 74880, Note Name: D#2, Velocity: 48
Note ON: Time 74880, Note Name: B2, Velocity: 48
Note ON: Time 74880, Note Name: F#3, Velocity: 57
Note OFF: Time 75360, Note Name: F#3
Note OFF: Time 75360, Note Name: B2
Note OFF: Time 75360, Note Name: D#2
Note ON: Time 75840, Note Name: D#3, Velocity: 52
Note ON: Time 75840, Note Name: F#3, Velocity: 52
Note ON: Time 75840, Note Name: B3, Velocity: 52
Note ON: Time 75840, Note Name: F#4, Velocity: 61
Note OFF: Time 76320, Note Name: F#4
Note OFF: Time 76320, Note Name: D#3
Note OFF: Time 76320, Note Name: F#3
Note OFF: Time 76320, Note Name: B3
Note ON: Time 76320, Note Name: C#3, Velocity: 46
Note ON: Time 76320, Note Name: F#3, Velocity: 46
Note ON: Time 76320, Note Name: A#3, Velocity: 46
Note ON: Time 76320, Note Name: E4, Velocity: 55
Note OFF: Time 76800, Note Name: E4
Note OFF: Time 76800, Note Name: C#3
Note OFF: Time 76800, Note Name: F#3
Note OFF: Time 76800, Note Name: A#3
Note ON: Time 76800, Note Name: D#4, Velocity: 65
Note ON: Time 76800, Note Name: B2, Velocity: 55
Note ON: Time 76800, Note Name: F#3, Velocity: 55
Note OFF: Time 77280, Note Name: F#3
Note OFF: Time 77280, Note Name: B2
Note OFF: Time 77760, Note Name: D#4
Note ON: Time 78720, Note Name: E1, Velocity: 52
Note ON: Time 78840, Note Name: F1, Velocity: 52
Note OFF: Time 78860, Note Name: E1
Note ON: Time 78960, Note Name: A#1, Velocity: 52
Note OFF: Time 78980, Note Name: F1
Note ON: Time 79080, Note Name: A1, Velocity: 53
Note OFF: Time 79100, Note Name: A#1
Note ON: Time 79200, Note Name: F#1, Velocity: 53
Note OFF: Time 79220, Note Name: A1
Note ON: Time 79320, Note Name: F1, Velocity: 53
Note OFF: Time 79340, Note Name: F#1
Note ON: Time 79440, Note Name: C#2, Velocity: 54
Note OFF: Time 79460, Note Name: F1
Note ON: Time 79560, Note Name: C2, Velocity: 54
Note OFF: Time 79580, Note Name: C#2
Note ON: Time 79680, Note Name: A#1, Velocity: 54
Note OFF: Time 79700, Note Name: C2
Note ON: Time 79800, Note Name: A1, Velocity: 55
Note OFF: Time 79820, Note Name: A#1
Note ON: Time 79920, Note Name: F#2, Velocity: 55
Note OFF: Time 79940, Note Name: A1
Note ON: Time 80040, Note Name: F2, Velocity: 56
Note OFF: Time 80060, Note Name: F#2
Note ON: Time 80160, Note Name: C#2, Velocity: 56
Note OFF: Time 80180, Note Name: F2
Note ON: Time 80280, Note Name: C2, Velocity: 56
Note OFF: Time 80300, Note Name: C#2
Note ON: Time 80400, Note Name: A#2, Velocity: 56
Note OFF: Time 80420, Note Name: C2
Note ON: Time 80520, Note Name: A2, Velocity: 56
Note OFF: Time 80540, Note Name: A#2
Note ON: Time 80640, Note Name: F#2, Velocity: 56
Note OFF: Time 80660, Note Name: A2
Note ON: Time 80760, Note Name: F2, Velocity: 57
Note OFF: Time 80780, Note Name: F#2
Note ON: Time 80880, Note Name: C#3, Velocity: 57
Note OFF: Time 80900, Note Name: F2
Note ON: Time 81000, Note Name: C3, Velocity: 57
Note OFF: Time 81020, Note Name: C#3
Note ON: Time 81120, Note Name: A#2, Velocity: 58
Note OFF: Time 81140, Note Name: C3
Note ON: Time 81240, Note Name: A2, Velocity: 58
Note OFF: Time 81260, Note Name: A#2
Note ON: Time 81360, Note Name: F#3, Velocity: 58
Note OFF: Time 81380, Note Name: A2
Note ON: Time 81480, Note Name: F3, Velocity: 59
Note OFF: Time 81500, Note Name: F#3
Note ON: Time 81600, Note Name: C#3, Velocity: 59
Note OFF: Time 81620, Note Name: F3
Note ON: Time 81720, Note Name: C3, Velocity: 60
Note OFF: Time 81740, Note Name: C#3
Note ON: Time 81840, Note Name: A#3, Velocity: 60
Note OFF: Time 81860, Note Name: C3
Note ON: Time 81960, Note Name: A3, Velocity: 60
Note OFF: Time 81980, Note Name: A#3
Note ON: Time 82080, Note Name: F#3, Velocity: 60
Note OFF: Time 82100, Note Name: A3
Note ON: Time 82200, Note Name: F3, Velocity: 60
Note OFF: Time 82220, Note Name: F#3
Note ON: Time 82320, Note Name: C#4, Velocity: 60
Note OFF: Time 82340, Note Name: F3
Note ON: Time 82440, Note Name: C4, Velocity: 61
Note OFF: Time 82460, Note Name: C#4
Note OFF: Time 82560, Note Name: C4
Note ON: Time 82560, Note Name: A#3, Velocity: 61
Note ON: Time 82680, Note Name: A3, Velocity: 61
Note OFF: Time 82700, Note Name: A#3
Note ON: Time 82800, Note Name: F#4, Velocity: 62
Note OFF: Time 82820, Note Name: A3
Note ON: Time 82920, Note Name: F4, Velocity: 62
Note OFF: Time 82940, Note Name: F#4
Note ON: Time 83040, Note Name: C#4, Velocity: 63
Note OFF: Time 83060, Note Name: F4
Note ON: Time 83160, Note Name: C4, Velocity: 63
Note OFF: Time 83180, Note Name: C#4
Note ON: Time 83280, Note Name: A#4, Velocity: 63
Note OFF: Time 83300, Note Name: C4
Note ON: Time 83400, Note Name: A4, Velocity: 64
Note OFF: Time 83420, Note Name: A#4
Note ON: Time 83520, Note Name: F#4, Velocity: 64
Note OFF: Time 83540, Note Name: A4
Note ON: Time 83640, Note Name: F4, Velocity: 64
Note OFF: Time 83660, Note Name: F#4
Note ON: Time 83760, Note Name: C#5, Velocity: 64
Note OFF: Time 83780, Note Name: F4
Note ON: Time 83880, Note Name: C5, Velocity: 64
Note OFF: Time 83900, Note Name: C#5
Note ON: Time 84000, Note Name: A#4, Velocity: 64
Note OFF: Time 84020, Note Name: C5
Note ON: Time 84120, Note Name: A4, Velocity: 65
Note OFF: Time 84140, Note Name: A#4
Note ON: Time 84240, Note Name: F#5, Velocity: 65
Note OFF: Time 84260, Note Name: A4
Note ON: Time 84360, Note Name: F5, Velocity: 65
Note OFF: Time 84380, Note Name: F#5
Note ON: Time 84480, Note Name: C#5, Velocity: 66
Note OFF: Time 84500, Note Name: F5
Note ON: Time 84600, Note Name: C5, Velocity: 66
Note OFF: Time 84620, Note Name: C#5
Note ON: Time 84720, Note Name: A#5, Velocity: 67
Note OFF: Time 84740, Note Name: C5
Note ON: Time 84840, Note Name: A5, Velocity: 67
Note OFF: Time 84860, Note Name: A#5
Note ON: Time 84960, Note Name: F#5, Velocity: 67
Note OFF: Time 84980, Note Name: A5
Note ON: Time 85080, Note Name: F5, Velocity: 68
Note OFF: Time 85100, Note Name: F#5
Note ON: Time 85200, Note Name: C#6, Velocity: 68
Note OFF: Time 85220, Note Name: F5
Note ON: Time 85320, Note Name: C6, Velocity: 68
Note OFF: Time 85340, Note Name: C#6
Note ON: Time 85440, Note Name: F6, Velocity: 74
Note OFF: Time 85460, Note Name: C6
Note OFF: Time 85580, Note Name: F6
Note ON: Time 85920, Note Name: F2, Velocity: 64
Note ON: Time 85920, Note Name: F3, Velocity: 75
Note OFF: Time 86040, Note Name: F3
Note OFF: Time 86040, Note Name: F2
Note ON: Time 86280, Note Name: A#1, Velocity: 91
Note OFF: Time 86400, Note Name: A#1
Note ON: Time 86400, Note Name: A#2, Velocity: 72
Note ON: Time 86400, Note Name: F3, Velocity: 72
Note ON: Time 86400, Note Name: C#4, Velocity: 86
Note OFF: Time 86880, Note Name: C#4
Note OFF: Time 86880, Note Name: F3
Note OFF: Time 86880, Note Name: A#2
Track 3: Chopin: Prelude No.16 in Bb Minor Op. 28
Track 4: Copyright  2002 by Bernd Krueger
Track 5: http://www.piano-midi.de
Track 6: Edition: 2014-02-14
Track 7: Spur 7
Track 8: Spur 8
