Processing chpn_op27_1.mid...

Track 0: Chopin Nocturne Opus 27 Nr. 1
Track 1: Piano right
Note ON: Time 3840, Note Name: E5, Velocity: 52
Note OFF: Time 4800, Note Name: E5
Note ON: Time 4800, Note Name: F5, Velocity: 51
Note OFF: Time 5280, Note Name: F5
Note ON: Time 5280, Note Name: F5, Velocity: 54
Note OFF: Time 5760, Note Name: F5
Note ON: Time 5760, Note Name: F5, Velocity: 56
Note OFF: Time 6720, Note Name: F5
Note ON: Time 6720, Note Name: F#5, Velocity: 55
Note OFF: Time 8160, Note Name: F#5
Note ON: Time 8160, Note Name: E5, Velocity: 55
Note OFF: Time 8520, Note Name: E5
Note ON: Time 8520, Note Name: D5, Velocity: 51
Note OFF: Time 8640, Note Name: D5
Note ON: Time 8640, Note Name: C#5, Velocity: 51
Note OFF: Time 9120, Note Name: C#5
Note ON: Time 9120, Note Name: C5, Velocity: 51
Note OFF: Time 9600, Note Name: C5
Note ON: Time 9600, Note Name: C#5, Velocity: 53
Note OFF: Time 10080, Note Name: C#5
Note ON: Time 10080, Note Name: G#5, Velocity: 56
Note OFF: Time 11040, Note Name: G#5
Note ON: Time 11040, Note Name: G#5, Velocity: 54
Note OFF: Time 11200, Note Name: G#5
Note ON: Time 11200, Note Name: F#5, Velocity: 51
Note OFF: Time 11440, Note Name: F#5
Note ON: Time 11440, Note Name: E5, Velocity: 49
Note OFF: Time 11520, Note Name: E5
Note ON: Time 11520, Note Name: E5, Velocity: 53
Note OFF: Time 12480, Note Name: E5
Note ON: Time 12480, Note Name: E5, Velocity: 52
Note OFF: Time 12960, Note Name: E5
Note ON: Time 12960, Note Name: E5, Velocity: 56
Note OFF: Time 13440, Note Name: E5
Note ON: Time 13440, Note Name: F5, Velocity: 63
Note OFF: Time 14400, Note Name: F5
Note ON: Time 14400, Note Name: F#5, Velocity: 63
Note OFF: Time 15840, Note Name: F#5
Note ON: Time 15840, Note Name: E5, Velocity: 48
Note OFF: Time 16200, Note Name: E5
Note ON: Time 16200, Note Name: D5, Velocity: 45
Note OFF: Time 16320, Note Name: D5
Note ON: Time 16320, Note Name: C#5, Velocity: 43
Note OFF: Time 16800, Note Name: C#5
Note ON: Time 16800, Note Name: C5, Velocity: 42
Note OFF: Time 17280, Note Name: C5
Note ON: Time 19200, Note Name: C#5, Velocity: 57
Note ON: Time 19200, Note Name: C#6, Velocity: 57
Note OFF: Time 19680, Note Name: C#6
Note OFF: Time 19680, Note Name: C#5
Note ON: Time 19680, Note Name: G#5, Velocity: 60
Note OFF: Time 20160, Note Name: G#5
Note ON: Time 20160, Note Name: F#5, Velocity: 59
Note OFF: Time 20320, Note Name: F#5
Note ON: Time 20320, Note Name: G#5, Velocity: 52
Note OFF: Time 20480, Note Name: G#5
Note ON: Time 20480, Note Name: F#5, Velocity: 52
Note OFF: Time 20640, Note Name: F#5
Note ON: Time 20640, Note Name: E5, Velocity: 56
Note OFF: Time 21000, Note Name: E5
Note ON: Time 21000, Note Name: D#5, Velocity: 54
Note OFF: Time 21120, Note Name: D#5
Note ON: Time 21120, Note Name: C#5, Velocity: 62
Note OFF: Time 22080, Note Name: C#5
Note ON: Time 22080, Note Name: D#5, Velocity: 57
Note OFF: Time 23040, Note Name: D#5
Note ON: Time 23040, Note Name: E5, Velocity: 62
Note OFF: Time 23400, Note Name: E5
Note ON: Time 23400, Note Name: F#5, Velocity: 63
Note OFF: Time 23520, Note Name: F#5
Note ON: Time 23520, Note Name: G#5, Velocity: 65
Note OFF: Time 24000, Note Name: G#5
Note ON: Time 24000, Note Name: F#5, Velocity: 58
Note OFF: Time 24480, Note Name: F#5
Note ON: Time 24480, Note Name: D5, Velocity: 56
Note OFF: Time 24960, Note Name: D5
Note ON: Time 24960, Note Name: C#5, Velocity: 59
Note OFF: Time 25920, Note Name: C#5
Note ON: Time 25920, Note Name: G#4, Velocity: 51
Note OFF: Time 26400, Note Name: G#4
Note ON: Time 26400, Note Name: G#5, Velocity: 59
Note OFF: Time 26880, Note Name: G#5
Note ON: Time 26880, Note Name: C#6, Velocity: 60
Note OFF: Time 27360, Note Name: C#6
Note ON: Time 27360, Note Name: G#5, Velocity: 59
Note OFF: Time 27840, Note Name: G#5
Note ON: Time 27840, Note Name: F#5, Velocity: 58
Note OFF: Time 28000, Note Name: F#5
Note ON: Time 28000, Note Name: G#5, Velocity: 52
Note OFF: Time 28160, Note Name: G#5
Note ON: Time 28160, Note Name: F#5, Velocity: 52
Note OFF: Time 28320, Note Name: F#5
Note ON: Time 28320, Note Name: E5, Velocity: 56
Note OFF: Time 28680, Note Name: E5
Note ON: Time 28680, Note Name: D#5, Velocity: 54
Note OFF: Time 28800, Note Name: D#5
Note ON: Time 28800, Note Name: C#5, Velocity: 62
Note OFF: Time 29760, Note Name: C#5
Note ON: Time 29760, Note Name: D#5, Velocity: 57
Note OFF: Time 30720, Note Name: D#5
Note ON: Time 30720, Note Name: E5, Velocity: 62
Note OFF: Time 31080, Note Name: E5
Note ON: Time 31080, Note Name: F#5, Velocity: 63
Note OFF: Time 31200, Note Name: F#5
Note ON: Time 31200, Note Name: G#5, Velocity: 65
Note OFF: Time 31680, Note Name: G#5
Note ON: Time 31680, Note Name: F#5, Velocity: 58
Note OFF: Time 32160, Note Name: F#5
Note ON: Time 32160, Note Name: D5, Velocity: 56
Note OFF: Time 32640, Note Name: D5
Note ON: Time 32640, Note Name: C#5, Velocity: 62
Note OFF: Time 34560, Note Name: C#5
Note ON: Time 34560, Note Name: E5, Velocity: 54
Note OFF: Time 35520, Note Name: E5
Note ON: Time 35520, Note Name: E5, Velocity: 51
Note OFF: Time 36000, Note Name: E5
Note ON: Time 36000, Note Name: E5, Velocity: 54
Note OFF: Time 36480, Note Name: E5
Note ON: Time 36480, Note Name: B4, Velocity: 48
Note ON: Time 36480, Note Name: F5, Velocity: 56
Note OFF: Time 36960, Note Name: B4
Note ON: Time 36960, Note Name: C#5, Velocity: 53
Note OFF: Time 37320, Note Name: C#5
Note ON: Time 37320, Note Name: B4, Velocity: 49
Note OFF: Time 37440, Note Name: B4
Note OFF: Time 37440, Note Name: F5
Note ON: Time 37440, Note Name: B4, Velocity: 50
Note ON: Time 37440, Note Name: F#5, Velocity: 55
Note OFF: Time 37920, Note Name: B4
Note ON: Time 37920, Note Name: A4, Velocity: 51
Note OFF: Time 38280, Note Name: A4
Note ON: Time 38280, Note Name: G#4, Velocity: 48
Note OFF: Time 38400, Note Name: G#4
Note ON: Time 38400, Note Name: F#4, Velocity: 50
Note OFF: Time 38880, Note Name: F#5
Note ON: Time 38880, Note Name: E5, Velocity: 56
Note OFF: Time 39240, Note Name: E5
Note ON: Time 39240, Note Name: D5, Velocity: 55
Note OFF: Time 39360, Note Name: D5
Note ON: Time 39360, Note Name: C#5, Velocity: 54
Note OFF: Time 39840, Note Name: C#5
Note ON: Time 39840, Note Name: C5, Velocity: 51
Note OFF: Time 40320, Note Name: C5
Note OFF: Time 40320, Note Name: F#4
Note ON: Time 40320, Note Name: E4, Velocity: 45
Note ON: Time 40320, Note Name: C#5, Velocity: 54
Note OFF: Time 40800, Note Name: C#5
Note OFF: Time 40800, Note Name: E4
Note ON: Time 40800, Note Name: G#5, Velocity: 60
Note ON: Time 41280, Note Name: A4, Velocity: 41
Note OFF: Time 41360, Note Name: A4
Note ON: Time 41376, Note Name: B4, Velocity: 39
Note OFF: Time 41456, Note Name: B4
Note ON: Time 41472, Note Name: A4, Velocity: 39
Note OFF: Time 41552, Note Name: A4
Note ON: Time 41568, Note Name: G#4, Velocity: 41
Note OFF: Time 41648, Note Name: G#4
Note ON: Time 41664, Note Name: A4, Velocity: 39
Note OFF: Time 41744, Note Name: A4
Note OFF: Time 41760, Note Name: G#5
Note ON: Time 41760, Note Name: F#5, Velocity: 54
Note ON: Time 41760, Note Name: B4, Velocity: 42
Note OFF: Time 42120, Note Name: B4
Note ON: Time 42120, Note Name: F#4, Velocity: 40
Note OFF: Time 42240, Note Name: F#4
Note OFF: Time 42240, Note Name: F#5
Note ON: Time 42240, Note Name: G#4, Velocity: 46
Note ON: Time 42240, Note Name: E5, Velocity: 54
Note OFF: Time 43200, Note Name: E5
Note ON: Time 43200, Note Name: E5, Velocity: 54
Note OFF: Time 43680, Note Name: E5
Note ON: Time 43680, Note Name: E5, Velocity: 58
Note OFF: Time 44160, Note Name: E5
Note OFF: Time 44160, Note Name: G#4
Note ON: Time 44160, Note Name: B4, Velocity: 55
Note ON: Time 44160, Note Name: F5, Velocity: 62
Note OFF: Time 44640, Note Name: B4
Note ON: Time 44640, Note Name: C#5, Velocity: 56
Note OFF: Time 45000, Note Name: C#5
Note ON: Time 45000, Note Name: B4, Velocity: 51
Note OFF: Time 45120, Note Name: B4
Note OFF: Time 45120, Note Name: F5
Note ON: Time 45120, Note Name: B4, Velocity: 54
Note ON: Time 45120, Note Name: F#5, Velocity: 60
Note OFF: Time 45600, Note Name: B4
Note ON: Time 45600, Note Name: A4, Velocity: 57
Note OFF: Time 45960, Note Name: A4
Note ON: Time 45960, Note Name: G#4, Velocity: 52
Note OFF: Time 46080, Note Name: G#4
Note ON: Time 46080, Note Name: F#4, Velocity: 53
Note OFF: Time 46560, Note Name: F#5
Note ON: Time 46560, Note Name: E5, Velocity: 56
Note OFF: Time 46920, Note Name: E5
Note ON: Time 46920, Note Name: D5, Velocity: 55
Note OFF: Time 47040, Note Name: D5
Note ON: Time 47040, Note Name: C#5, Velocity: 54
Note OFF: Time 47520, Note Name: C#5
Note ON: Time 47520, Note Name: C5, Velocity: 52
Note OFF: Time 48000, Note Name: F#4
Note ON: Time 48000, Note Name: F#4, Velocity: 41
Note OFF: Time 48480, Note Name: F#4
Note ON: Time 48480, Note Name: E4, Velocity: 45
Note OFF: Time 48840, Note Name: E4
Note ON: Time 48840, Note Name: D4, Velocity: 34
Note OFF: Time 48960, Note Name: D4
Note OFF: Time 48960, Note Name: C5
Note ON: Time 48960, Note Name: C#4, Velocity: 40
Note OFF: Time 49440, Note Name: C#4
Note ON: Time 49440, Note Name: C4, Velocity: 36
Note OFF: Time 49920, Note Name: C4
Note ON: Time 53760, Note Name: G#3, Velocity: 32
Note ON: Time 53760, Note Name: D#4, Velocity: 32
Note ON: Time 53760, Note Name: F#4, Velocity: 32
Note ON: Time 53760, Note Name: G#4, Velocity: 38
Note OFF: Time 54480, Note Name: G#4
Note OFF: Time 54480, Note Name: G#3
Note ON: Time 54480, Note Name: G#3, Velocity: 33
Note ON: Time 54480, Note Name: G#4, Velocity: 38
Note OFF: Time 54720, Note Name: G#4
Note OFF: Time 54720, Note Name: G#3
Note ON: Time 54720, Note Name: G#3, Velocity: 34
Note ON: Time 54720, Note Name: G#4, Velocity: 41
Note OFF: Time 55200, Note Name: G#4
Note OFF: Time 55200, Note Name: D#4
Note OFF: Time 55200, Note Name: F#4
Note OFF: Time 55200, Note Name: G#3
Note ON: Time 55200, Note Name: G#3, Velocity: 34
Note ON: Time 55200, Note Name: C#4, Velocity: 41
Note ON: Time 55200, Note Name: G#4, Velocity: 41
Note OFF: Time 55920, Note Name: C#4
Note ON: Time 55920, Note Name: E4, Velocity: 38
Note OFF: Time 56160, Note Name: E4
Note ON: Time 56160, Note Name: C#4, Velocity: 39
Note OFF: Time 56640, Note Name: C#4
Note OFF: Time 56640, Note Name: G#4
Note OFF: Time 56640, Note Name: G#3
Note ON: Time 56640, Note Name: G#3, Velocity: 39
Note ON: Time 56640, Note Name: C4, Velocity: 39
Note ON: Time 56640, Note Name: G#4, Velocity: 47
Note OFF: Time 57360, Note Name: G#4
Note OFF: Time 57360, Note Name: G#3
Note ON: Time 57360, Note Name: G#3, Velocity: 38
Note ON: Time 57360, Note Name: G#4, Velocity: 45
Note OFF: Time 57600, Note Name: G#4
Note OFF: Time 57600, Note Name: G#3
Note ON: Time 57600, Note Name: G#3, Velocity: 40
Note ON: Time 57600, Note Name: G#4, Velocity: 48
Note OFF: Time 58080, Note Name: G#4
Note OFF: Time 58080, Note Name: G#3
Note OFF: Time 58080, Note Name: C4
Note ON: Time 58080, Note Name: G#3, Velocity: 40
Note ON: Time 58080, Note Name: C#4, Velocity: 48
Note ON: Time 58080, Note Name: G#4, Velocity: 48
Note OFF: Time 58800, Note Name: C#4
Note ON: Time 58800, Note Name: E4, Velocity: 45
Note OFF: Time 59040, Note Name: E4
Note ON: Time 59040, Note Name: C#4, Velocity: 45
Note OFF: Time 59520, Note Name: C#4
Note OFF: Time 59520, Note Name: G#4
Note OFF: Time 59520, Note Name: G#3
Note ON: Time 59520, Note Name: C#4, Velocity: 45
Note ON: Time 59520, Note Name: G#4, Velocity: 45
Note ON: Time 59520, Note Name: B4, Velocity: 45
Note ON: Time 59520, Note Name: C#5, Velocity: 55
Note OFF: Time 60240, Note Name: C#5
Note OFF: Time 60240, Note Name: C#4
Note ON: Time 60240, Note Name: C#4, Velocity: 45
Note ON: Time 60240, Note Name: C#5, Velocity: 53
Note OFF: Time 60480, Note Name: C#5
Note OFF: Time 60480, Note Name: C#4
Note ON: Time 60480, Note Name: C#4, Velocity: 46
Note ON: Time 60480, Note Name: C#5, Velocity: 55
Note OFF: Time 60960, Note Name: C#5
Note OFF: Time 60960, Note Name: G#4
Note OFF: Time 60960, Note Name: B4
Note OFF: Time 60960, Note Name: C#4
Note ON: Time 60960, Note Name: C#4, Velocity: 46
Note ON: Time 60960, Note Name: F#4, Velocity: 57
Note ON: Time 60960, Note Name: C#5, Velocity: 57
Note OFF: Time 61680, Note Name: F#4
Note ON: Time 61680, Note Name: A4, Velocity: 56
Note OFF: Time 61920, Note Name: A4
Note ON: Time 61920, Note Name: F#4, Velocity: 57
Note OFF: Time 62400, Note Name: F#4
Note OFF: Time 62400, Note Name: C#5
Note OFF: Time 62400, Note Name: C#4
Note ON: Time 62400, Note Name: C#4, Velocity: 56
Note ON: Time 62400, Note Name: F4, Velocity: 56
Note ON: Time 62400, Note Name: C#5, Velocity: 66
Note OFF: Time 63120, Note Name: C#5
Note OFF: Time 63120, Note Name: C#4
Note ON: Time 63120, Note Name: C#4, Velocity: 54
Note ON: Time 63120, Note Name: C#5, Velocity: 65
Note OFF: Time 63360, Note Name: C#5
Note OFF: Time 63360, Note Name: C#4
Note ON: Time 63360, Note Name: C#4, Velocity: 57
Note ON: Time 63360, Note Name: C#5, Velocity: 67
Note OFF: Time 63840, Note Name: C#5
Note OFF: Time 63840, Note Name: C#4
Note OFF: Time 63840, Note Name: F4
Note ON: Time 63840, Note Name: C#4, Velocity: 58
Note ON: Time 63840, Note Name: F#4, Velocity: 69
Note ON: Time 63840, Note Name: C#5, Velocity: 69
Note OFF: Time 64560, Note Name: F#4
Note ON: Time 64560, Note Name: A4, Velocity: 71
Note OFF: Time 64800, Note Name: A4
Note ON: Time 64800, Note Name: F#4, Velocity: 73
Note OFF: Time 65280, Note Name: F#4
Note OFF: Time 65280, Note Name: C#5
Note OFF: Time 65280, Note Name: C#4
Note ON: Time 65280, Note Name: G#4, Velocity: 66
Note ON: Time 65280, Note Name: D#5, Velocity: 66
Note ON: Time 65280, Note Name: F#5, Velocity: 66
Note ON: Time 65280, Note Name: G#5, Velocity: 78
Note OFF: Time 66120, Note Name: G#5
Note OFF: Time 66120, Note Name: G#4
Note ON: Time 66120, Note Name: G#4, Velocity: 61
Note ON: Time 66120, Note Name: G#5, Velocity: 74
Note OFF: Time 66240, Note Name: G#5
Note OFF: Time 66240, Note Name: G#4
Note ON: Time 66240, Note Name: G#4, Velocity: 66
Note ON: Time 66240, Note Name: G#5, Velocity: 78
Note OFF: Time 66720, Note Name: G#5
Note OFF: Time 66720, Note Name: D#5
Note OFF: Time 66720, Note Name: F#5
Note OFF: Time 66720, Note Name: G#4
Note ON: Time 66720, Note Name: G#4, Velocity: 66
Note ON: Time 66720, Note Name: C#5, Velocity: 66
Note ON: Time 66720, Note Name: G#5, Velocity: 78
Note OFF: Time 67560, Note Name: C#5
Note ON: Time 67560, Note Name: E5, Velocity: 79
Note OFF: Time 67680, Note Name: E5
Note ON: Time 67680, Note Name: C#5, Velocity: 79
Note OFF: Time 68160, Note Name: C#5
Note OFF: Time 68160, Note Name: G#5
Note OFF: Time 68160, Note Name: G#4
Note ON: Time 68160, Note Name: G#4, Velocity: 66
Note ON: Time 68160, Note Name: C5, Velocity: 66
Note ON: Time 68160, Note Name: G#5, Velocity: 78
Note OFF: Time 69000, Note Name: G#5
Note OFF: Time 69000, Note Name: G#4
Note ON: Time 69000, Note Name: G#4, Velocity: 61
Note ON: Time 69000, Note Name: G#5, Velocity: 74
Note OFF: Time 69120, Note Name: G#5
Note OFF: Time 69120, Note Name: G#4
Note ON: Time 69120, Note Name: G#4, Velocity: 66
Note ON: Time 69120, Note Name: G#5, Velocity: 78
Note OFF: Time 69600, Note Name: G#5
Note OFF: Time 69600, Note Name: G#4
Note OFF: Time 69600, Note Name: C5
Note ON: Time 69600, Note Name: G#4, Velocity: 66
Note ON: Time 69600, Note Name: C#5, Velocity: 78
Note ON: Time 69600, Note Name: G#5, Velocity: 78
Note OFF: Time 70440, Note Name: C#5
Note ON: Time 70440, Note Name: E5, Velocity: 79
Note OFF: Time 70560, Note Name: E5
Note ON: Time 70560, Note Name: C#5, Velocity: 79
Note OFF: Time 71040, Note Name: C#5
Note OFF: Time 71040, Note Name: G#5
Note OFF: Time 71040, Note Name: G#4
Note ON: Time 71040, Note Name: C#5, Velocity: 69
Note ON: Time 71040, Note Name: G#5, Velocity: 69
Note ON: Time 71040, Note Name: B5, Velocity: 69
Note ON: Time 71040, Note Name: C#6, Velocity: 80
Note OFF: Time 71880, Note Name: C#6
Note OFF: Time 71880, Note Name: C#5
Note ON: Time 71880, Note Name: C#5, Velocity: 53
Note ON: Time 71880, Note Name: C#6, Velocity: 78
Note OFF: Time 72000, Note Name: C#6
Note OFF: Time 72000, Note Name: C#5
Note ON: Time 72000, Note Name: C#5, Velocity: 59
Note ON: Time 72000, Note Name: C#6, Velocity: 71
Note OFF: Time 72140, Note Name: C#6
Note OFF: Time 72140, Note Name: C#5
Note ON: Time 72160, Note Name: C#5, Velocity: 62
Note ON: Time 72160, Note Name: C#6, Velocity: 73
Note OFF: Time 72300, Note Name: C#6
Note OFF: Time 72300, Note Name: C#5
Note ON: Time 72320, Note Name: C#5, Velocity: 68
Note ON: Time 72320, Note Name: C#6, Velocity: 80
Note OFF: Time 72460, Note Name: C#6
Note OFF: Time 72460, Note Name: C#5
Note OFF: Time 72480, Note Name: B5
Note OFF: Time 72480, Note Name: G#5
Note ON: Time 72480, Note Name: C#5, Velocity: 71
Note ON: Time 72480, Note Name: F#5, Velocity: 75
Note ON: Time 72480, Note Name: C#6, Velocity: 82
Note OFF: Time 73320, Note Name: F#5
Note ON: Time 73320, Note Name: A5, Velocity: 84
Note OFF: Time 73440, Note Name: A5
Note ON: Time 73440, Note Name: F#5, Velocity: 84
Note OFF: Time 73920, Note Name: F#5
Note OFF: Time 73920, Note Name: C#6
Note OFF: Time 73920, Note Name: C#5
Note ON: Time 73920, Note Name: C#5, Velocity: 79
Note ON: Time 73920, Note Name: F5, Velocity: 79
Note ON: Time 73920, Note Name: C#6, Velocity: 93
Note OFF: Time 74560, Note Name: C#6
Note OFF: Time 74560, Note Name: C#5
Note ON: Time 74560, Note Name: C#5, Velocity: 59
Note ON: Time 74560, Note Name: C#6, Velocity: 71
Note OFF: Time 74640, Note Name: C#6
Note OFF: Time 74640, Note Name: C#5
Note ON: Time 74720, Note Name: C#5, Velocity: 61
Note ON: Time 74720, Note Name: C#6, Velocity: 71
Note OFF: Time 74800, Note Name: C#6
Note OFF: Time 74800, Note Name: C#5
Note ON: Time 74880, Note Name: C#5, Velocity: 63
Note ON: Time 74880, Note Name: C#6, Velocity: 73
Note OFF: Time 74960, Note Name: C#6
Note OFF: Time 74960, Note Name: C#5
Note ON: Time 75040, Note Name: C#5, Velocity: 63
Note ON: Time 75040, Note Name: C#6, Velocity: 75
Note OFF: Time 75120, Note Name: C#6
Note OFF: Time 75120, Note Name: C#5
Note ON: Time 75200, Note Name: C#5, Velocity: 64
Note ON: Time 75200, Note Name: C#6, Velocity: 78
Note OFF: Time 75280, Note Name: C#6
Note OFF: Time 75280, Note Name: C#5
Note OFF: Time 75360, Note Name: F5
Note ON: Time 75360, Note Name: C#5, Velocity: 79
Note ON: Time 75360, Note Name: F#5, Velocity: 93
Note ON: Time 75360, Note Name: C#6, Velocity: 93
Note OFF: Time 76200, Note Name: F#5
Note ON: Time 76200, Note Name: A5, Velocity: 90
Note OFF: Time 76320, Note Name: A5
Note ON: Time 76320, Note Name: F#5, Velocity: 90
Note OFF: Time 76800, Note Name: F#5
Note OFF: Time 76800, Note Name: C#6
Note OFF: Time 76800, Note Name: C#5
Note ON: Time 76800, Note Name: G5, Velocity: 88
Note ON: Time 76800, Note Name: E5, Velocity: 88
Note ON: Time 76800, Note Name: C#6, Velocity: 88
Note ON: Time 76800, Note Name: E6, Velocity: 103
Note OFF: Time 77640, Note Name: E6
Note OFF: Time 77640, Note Name: G5
Note OFF: Time 77640, Note Name: E5
Note OFF: Time 77640, Note Name: C#6
Note ON: Time 77640, Note Name: E5, Velocity: 81
Note ON: Time 77640, Note Name: G5, Velocity: 81
Note ON: Time 77640, Note Name: C#6, Velocity: 84
Note ON: Time 77640, Note Name: E6, Velocity: 99
Note OFF: Time 77760, Note Name: E6
Note OFF: Time 77760, Note Name: E5
Note OFF: Time 77760, Note Name: G5
Note OFF: Time 77760, Note Name: C#6
Note ON: Time 77760, Note Name: E5, Velocity: 87
Note ON: Time 77760, Note Name: G5, Velocity: 87
Note ON: Time 77760, Note Name: C#6, Velocity: 87
Note ON: Time 77760, Note Name: E6, Velocity: 102
Note OFF: Time 78240, Note Name: E6
Note OFF: Time 78240, Note Name: E5
Note OFF: Time 78240, Note Name: G5
Note OFF: Time 78240, Note Name: C#6
Note ON: Time 78240, Note Name: E5, Velocity: 80
Note ON: Time 78240, Note Name: G#5, Velocity: 95
Note ON: Time 78240, Note Name: E6, Velocity: 95
Note OFF: Time 78720, Note Name: E6
Note OFF: Time 78720, Note Name: G#5
Note OFF: Time 78720, Note Name: E5
Note ON: Time 78720, Note Name: B5, Velocity: 91
Note ON: Time 78720, Note Name: G#5, Velocity: 91
Note ON: Time 78720, Note Name: E5, Velocity: 76
Note OFF: Time 79200, Note Name: E5
Note OFF: Time 79200, Note Name: G#5
Note OFF: Time 79200, Note Name: B5
Note ON: Time 79200, Note Name: B4, Velocity: 73
Note ON: Time 79200, Note Name: E5, Velocity: 86
Note ON: Time 79200, Note Name: G#5, Velocity: 86
Note OFF: Time 79620, Note Name: G#5
Note OFF: Time 79620, Note Name: E5
Note OFF: Time 79620, Note Name: B4
Note ON: Time 79620, Note Name: G#5, Velocity: 79
Note OFF: Time 79680, Note Name: G#5
Note ON: Time 79680, Note Name: A4, Velocity: 74
Note ON: Time 79680, Note Name: B4, Velocity: 74
Note ON: Time 79680, Note Name: D#5, Velocity: 87
Note ON: Time 79680, Note Name: F#5, Velocity: 87
Note OFF: Time 80160, Note Name: F#5
Note OFF: Time 80160, Note Name: A4
Note OFF: Time 80160, Note Name: B4
Note OFF: Time 80160, Note Name: D#5
Note ON: Time 80160, Note Name: B4, Velocity: 75
Note ON: Time 80160, Note Name: A4, Velocity: 75
Note ON: Time 80160, Note Name: C#5, Velocity: 75
Note ON: Time 80160, Note Name: E5, Velocity: 88
Note OFF: Time 80640, Note Name: E5
Note OFF: Time 80640, Note Name: B4
Note OFF: Time 80640, Note Name: A4
Note OFF: Time 80640, Note Name: C#5
Note ON: Time 80640, Note Name: A4, Velocity: 75
Note ON: Time 80640, Note Name: B4, Velocity: 75
Note ON: Time 80640, Note Name: D#5, Velocity: 89
Note ON: Time 80640, Note Name: F#5, Velocity: 89
Note OFF: Time 81120, Note Name: F#5
Note OFF: Time 81120, Note Name: A4
Note OFF: Time 81120, Note Name: B4
Note OFF: Time 81120, Note Name: D#5
Note ON: Time 81120, Note Name: E5, Velocity: 90
Note ON: Time 81120, Note Name: G#4, Velocity: 75
Note ON: Time 81120, Note Name: G#5, Velocity: 90
Note OFF: Time 81840, Note Name: E5
Note ON: Time 81840, Note Name: D#5, Velocity: 91
Note OFF: Time 82080, Note Name: D#5
Note ON: Time 82080, Note Name: D5, Velocity: 94
Note OFF: Time 82560, Note Name: D5
Note OFF: Time 82560, Note Name: G#5
Note OFF: Time 82560, Note Name: G#4
Note ON: Time 82560, Note Name: C5, Velocity: 88
Note ON: Time 82560, Note Name: G#4, Velocity: 88
Note ON: Time 82560, Note Name: D#5, Velocity: 88
Note ON: Time 82560, Note Name: G#5, Velocity: 103
Note OFF: Time 83400, Note Name: G#5
Note OFF: Time 83400, Note Name: C5
Note OFF: Time 83400, Note Name: G#4
Note OFF: Time 83400, Note Name: D#5
Note ON: Time 83400, Note Name: G#4, Velocity: 81
Note ON: Time 83400, Note Name: C5, Velocity: 81
Note ON: Time 83400, Note Name: D#5, Velocity: 84
Note ON: Time 83400, Note Name: G#5, Velocity: 99
Note OFF: Time 83520, Note Name: G#5
Note OFF: Time 83520, Note Name: G#4
Note OFF: Time 83520, Note Name: C5
Note OFF: Time 83520, Note Name: D#5
Note ON: Time 83520, Note Name: G#4, Velocity: 87
Note ON: Time 83520, Note Name: C5, Velocity: 87
Note ON: Time 83520, Note Name: D#5, Velocity: 87
Note ON: Time 83520, Note Name: G#5, Velocity: 102
Note OFF: Time 84000, Note Name: G#5
Note OFF: Time 84000, Note Name: G#4
Note OFF: Time 84000, Note Name: C5
Note OFF: Time 84000, Note Name: D#5
Note ON: Time 84000, Note Name: C5, Velocity: 85
Note ON: Time 84000, Note Name: D#5, Velocity: 85
Note ON: Time 84000, Note Name: G#5, Velocity: 100
Note OFF: Time 84720, Note Name: G#5
Note OFF: Time 84720, Note Name: D#5
Note OFF: Time 84720, Note Name: C5
Note ON: Time 84720, Note Name: G#4, Velocity: 72
Note ON: Time 84720, Note Name: C5, Velocity: 86
Note ON: Time 84720, Note Name: D#5, Velocity: 86
Note OFF: Time 84960, Note Name: D#5
Note OFF: Time 84960, Note Name: C5
Note OFF: Time 84960, Note Name: G#4
Note ON: Time 84960, Note Name: D#4, Velocity: 69
Note ON: Time 84960, Note Name: G#4, Velocity: 81
Note ON: Time 84960, Note Name: C5, Velocity: 81
Note OFF: Time 85440, Note Name: C5
Note OFF: Time 85440, Note Name: G#4
Note OFF: Time 85440, Note Name: D#4
Note ON: Time 85440, Note Name: C5, Velocity: 85
Note ON: Time 85440, Note Name: C#4, Velocity: 72
Note ON: Time 85440, Note Name: D#4, Velocity: 72
Note ON: Time 85440, Note Name: G4, Velocity: 85
Note ON: Time 85440, Note Name: D#5, Velocity: 85
Note OFF: Time 86160, Note Name: C5
Note ON: Time 86160, Note Name: A#4, Velocity: 76
Note OFF: Time 86400, Note Name: A#4
Note OFF: Time 86400, Note Name: D#5
Note OFF: Time 86400, Note Name: C#4
Note OFF: Time 86400, Note Name: D#4
Note OFF: Time 86400, Note Name: G4
Note ON: Time 86400, Note Name: G4, Velocity: 63
Note ON: Time 86400, Note Name: C#4, Velocity: 63
Note ON: Time 86400, Note Name: C#5, Velocity: 75
Note OFF: Time 86760, Note Name: C#5
Note ON: Time 86760, Note Name: C5, Velocity: 71
Note OFF: Time 86880, Note Name: C5
Note OFF: Time 86880, Note Name: C#4
Note OFF: Time 86880, Note Name: G4
Note ON: Time 86880, Note Name: G#4, Velocity: 59
Note ON: Time 86880, Note Name: C4, Velocity: 50
Note OFF: Time 88320, Note Name: C4
Note OFF: Time 88320, Note Name: G#4
Note ON: Time 88320, Note Name: C#4, Velocity: 44
Note ON: Time 88320, Note Name: A4, Velocity: 54
Note OFF: Time 89040, Note Name: A4
Note ON: Time 89040, Note Name: A4, Velocity: 53
Note OFF: Time 89280, Note Name: A4
Note ON: Time 89280, Note Name: A4, Velocity: 53
Note OFF: Time 89760, Note Name: A4
Note OFF: Time 89760, Note Name: C#4
Note ON: Time 89760, Note Name: C4, Velocity: 45
Note ON: Time 89760, Note Name: A4, Velocity: 56
Note OFF: Time 90480, Note Name: A4
Note ON: Time 90480, Note Name: G#4, Velocity: 55
Note OFF: Time 90720, Note Name: G#4
Note ON: Time 90720, Note Name: D#4, Velocity: 56
Note OFF: Time 91200, Note Name: D#4
Note OFF: Time 91200, Note Name: C4
Note ON: Time 91200, Note Name: D4, Velocity: 48
Note ON: Time 91200, Note Name: B4, Velocity: 59
Note OFF: Time 91920, Note Name: B4
Note ON: Time 91920, Note Name: B4, Velocity: 58
Note OFF: Time 92160, Note Name: B4
Note ON: Time 92160, Note Name: B4, Velocity: 58
Note OFF: Time 92640, Note Name: B4
Note OFF: Time 92640, Note Name: D4
Note ON: Time 92640, Note Name: D#4, Velocity: 50
Note ON: Time 92640, Note Name: B4, Velocity: 61
Note OFF: Time 93360, Note Name: B4
Note ON: Time 93360, Note Name: A#4, Velocity: 60
Note OFF: Time 93600, Note Name: A#4
Note ON: Time 93600, Note Name: D#5, Velocity: 61
Note OFF: Time 94080, Note Name: D#5
Note OFF: Time 94080, Note Name: D#4
Note ON: Time 94080, Note Name: D4, Velocity: 52
Note ON: Time 94080, Note Name: B4, Velocity: 65
Note OFF: Time 94800, Note Name: B4
Note ON: Time 94800, Note Name: B4, Velocity: 63
Note OFF: Time 95040, Note Name: B4
Note ON: Time 95040, Note Name: B4, Velocity: 63
Note OFF: Time 95520, Note Name: B4
Note OFF: Time 95520, Note Name: D4
Note ON: Time 95520, Note Name: D#4, Velocity: 56
Note ON: Time 95520, Note Name: B4, Velocity: 69
Note OFF: Time 96240, Note Name: B4
Note ON: Time 96240, Note Name: A#4, Velocity: 67
Note OFF: Time 96480, Note Name: A#4
Note OFF: Time 96480, Note Name: D#4
Note ON: Time 96480, Note Name: D#4, Velocity: 67
Note OFF: Time 96960, Note Name: D#4
Note ON: Time 96960, Note Name: E4, Velocity: 57
Note ON: Time 96960, Note Name: C#5, Velocity: 71
Note OFF: Time 97680, Note Name: C#5
Note ON: Time 97680, Note Name: C#5, Velocity: 69
Note OFF: Time 97920, Note Name: C#5
Note ON: Time 97920, Note Name: C#5, Velocity: 70
Note OFF: Time 98400, Note Name: C#5
Note OFF: Time 98400, Note Name: E4
Note ON: Time 98400, Note Name: F4, Velocity: 60
Note ON: Time 98400, Note Name: C#5, Velocity: 74
Note OFF: Time 99120, Note Name: C#5
Note ON: Time 99120, Note Name: C5, Velocity: 73
Note OFF: Time 99360, Note Name: C5
Note ON: Time 99360, Note Name: F5, Velocity: 73
Note OFF: Time 99840, Note Name: F5
Note OFF: Time 99840, Note Name: F4
Note ON: Time 99840, Note Name: E4, Velocity: 62
Note ON: Time 99840, Note Name: C#5, Velocity: 77
Note OFF: Time 100560, Note Name: C#5
Note ON: Time 100560, Note Name: C#5, Velocity: 75
Note OFF: Time 100800, Note Name: C#5
Note ON: Time 100800, Note Name: C#5, Velocity: 76
Note OFF: Time 101280, Note Name: C#5
Note OFF: Time 101280, Note Name: E4
Note ON: Time 101280, Note Name: F4, Velocity: 64
Note ON: Time 101280, Note Name: C#5, Velocity: 80
Note OFF: Time 102000, Note Name: C#5
Note ON: Time 102000, Note Name: C5, Velocity: 78
Note OFF: Time 102240, Note Name: C5
Note OFF: Time 102240, Note Name: F4
Note ON: Time 102240, Note Name: F4, Velocity: 79
Note OFF: Time 102720, Note Name: F4
Note ON: Time 102720, Note Name: F#4, Velocity: 67
Note ON: Time 102720, Note Name: C5, Velocity: 67
Note ON: Time 102720, Note Name: D#5, Velocity: 80
Note OFF: Time 103200, Note Name: D#5
Note OFF: Time 103200, Note Name: C5
Note OFF: Time 103200, Note Name: F#4
Note ON: Time 103200, Note Name: F#4, Velocity: 67
Note ON: Time 103200, Note Name: C5, Velocity: 67
Note ON: Time 103200, Note Name: D#5, Velocity: 80
Note OFF: Time 103680, Note Name: D#5
Note OFF: Time 103680, Note Name: C5
Note OFF: Time 103680, Note Name: F#4
Note ON: Time 103680, Note Name: F#4, Velocity: 68
Note ON: Time 103680, Note Name: C5, Velocity: 68
Note ON: Time 103680, Note Name: D#5, Velocity: 82
Note OFF: Time 104160, Note Name: D#5
Note OFF: Time 104160, Note Name: C5
Note OFF: Time 104160, Note Name: F#4
Note ON: Time 104160, Note Name: F#4, Velocity: 70
Note ON: Time 104160, Note Name: C5, Velocity: 70
Note ON: Time 104160, Note Name: D#5, Velocity: 83
Note OFF: Time 104635, Note Name: D#5
Note OFF: Time 104635, Note Name: C5
Note OFF: Time 104635, Note Name: F#4
Note ON: Time 104640, Note Name: F#4, Velocity: 73
Note ON: Time 104640, Note Name: C5, Velocity: 73
Note ON: Time 104640, Note Name: D#5, Velocity: 86
Note OFF: Time 105115, Note Name: D#5
Note OFF: Time 105115, Note Name: C5
Note OFF: Time 105115, Note Name: F#4
Note ON: Time 105120, Note Name: F#4, Velocity: 76
Note ON: Time 105120, Note Name: C5, Velocity: 76
Note ON: Time 105120, Note Name: E5, Velocity: 91
Note OFF: Time 105600, Note Name: E5
Note OFF: Time 105600, Note Name: C5
Note OFF: Time 105600, Note Name: F#4
Note ON: Time 105600, Note Name: G#4, Velocity: 73
Note ON: Time 105600, Note Name: C#5, Velocity: 78
Note ON: Time 105600, Note Name: F5, Velocity: 92
Note OFF: Time 106075, Note Name: F5
Note OFF: Time 106075, Note Name: C#5
Note OFF: Time 106075, Note Name: G#4
Note ON: Time 106080, Note Name: F4, Velocity: 71
Note ON: Time 106080, Note Name: C#5, Velocity: 85
Note OFF: Time 106555, Note Name: C#5
Note OFF: Time 106555, Note Name: F4
Note ON: Time 106560, Note Name: F4, Velocity: 68
Note ON: Time 106560, Note Name: G#4, Velocity: 80
Note OFF: Time 107035, Note Name: G#4
Note OFF: Time 107035, Note Name: F4
Note ON: Time 107040, Note Name: F#4, Velocity: 71
Note ON: Time 107040, Note Name: A#4, Velocity: 85
Note OFF: Time 108480, Note Name: A#4
Note OFF: Time 108480, Note Name: F#4
Note ON: Time 108480, Note Name: F4, Velocity: 59
Note ON: Time 108480, Note Name: G#4, Velocity: 66
Note OFF: Time 108540, Note Name: G#4
Note ON: Time 108540, Note Name: A#4, Velocity: 66
Note OFF: Time 108600, Note Name: A#4
Note ON: Time 108600, Note Name: G#4, Velocity: 65
Note OFF: Time 108720, Note Name: G#4
Note ON: Time 108720, Note Name: G4, Velocity: 69
Note OFF: Time 108960, Note Name: G4
Note OFF: Time 108960, Note Name: F4
Note ON: Time 108960, Note Name: F4, Velocity: 58
Note ON: Time 108960, Note Name: G#4, Velocity: 70
Note OFF: Time 109080, Note Name: G#4
Note OFF: Time 109080, Note Name: F4
Note ON: Time 109200, Note Name: F4, Velocity: 60
Note ON: Time 109200, Note Name: A#4, Velocity: 73
Note OFF: Time 109320, Note Name: A#4
Note OFF: Time 109320, Note Name: F4
Note ON: Time 109440, Note Name: F4, Velocity: 62
Note ON: Time 109440, Note Name: C5, Velocity: 74
Note OFF: Time 109560, Note Name: C5
Note OFF: Time 109560, Note Name: F4
Note ON: Time 109680, Note Name: F4, Velocity: 64
Note ON: Time 109680, Note Name: C#5, Velocity: 76
Note OFF: Time 109800, Note Name: C#5
Note OFF: Time 109800, Note Name: F4
Note ON: Time 109920, Note Name: F#4, Velocity: 67
Note ON: Time 109920, Note Name: D5, Velocity: 80
Note OFF: Time 110400, Note Name: D5
Note OFF: Time 110400, Note Name: F#4
Note ON: Time 110400, Note Name: F#4, Velocity: 70
Note ON: Time 110400, Note Name: D#5, Velocity: 83
Note OFF: Time 110880, Note Name: D#5
Note OFF: Time 110880, Note Name: F#4
Note ON: Time 110880, Note Name: F#4, Velocity: 73
Note ON: Time 110880, Note Name: E5, Velocity: 87
Note OFF: Time 111360, Note Name: E5
Note OFF: Time 111360, Note Name: F#4
Note ON: Time 111360, Note Name: G#4, Velocity: 76
Note ON: Time 111360, Note Name: C#5, Velocity: 76
Note ON: Time 111360, Note Name: F5, Velocity: 89
Note OFF: Time 111835, Note Name: F5
Note OFF: Time 111835, Note Name: C#5
Note OFF: Time 111835, Note Name: G#4
Note ON: Time 111840, Note Name: F4, Velocity: 71
Note ON: Time 111840, Note Name: C#5, Velocity: 85
Note OFF: Time 112315, Note Name: C#5
Note OFF: Time 112315, Note Name: F4
Note ON: Time 112320, Note Name: F4, Velocity: 68
Note ON: Time 112320, Note Name: G#4, Velocity: 80
Note OFF: Time 112795, Note Name: G#4
Note OFF: Time 112795, Note Name: F4
Note ON: Time 112800, Note Name: F#4, Velocity: 71
Note ON: Time 112800, Note Name: A#4, Velocity: 85
Note OFF: Time 114240, Note Name: A#4
Note OFF: Time 114240, Note Name: F#4
Note ON: Time 114240, Note Name: F4, Velocity: 59
Note ON: Time 114240, Note Name: G#4, Velocity: 66
Note OFF: Time 114300, Note Name: G#4
Note ON: Time 114300, Note Name: A#4, Velocity: 66
Note OFF: Time 114360, Note Name: A#4
Note ON: Time 114360, Note Name: G#4, Velocity: 65
Note OFF: Time 114480, Note Name: G#4
Note ON: Time 114480, Note Name: G4, Velocity: 61
Note OFF: Time 114720, Note Name: G4
Note OFF: Time 114720, Note Name: F4
Note ON: Time 114720, Note Name: F4, Velocity: 58
Note ON: Time 114720, Note Name: G#4, Velocity: 70
Note OFF: Time 114840, Note Name: G#4
Note OFF: Time 114840, Note Name: F4
Note ON: Time 114960, Note Name: F4, Velocity: 60
Note ON: Time 114960, Note Name: A#4, Velocity: 73
Note OFF: Time 115080, Note Name: A#4
Note OFF: Time 115080, Note Name: F4
Note ON: Time 115200, Note Name: F4, Velocity: 62
Note ON: Time 115200, Note Name: C5, Velocity: 74
Note OFF: Time 115320, Note Name: C5
Note OFF: Time 115320, Note Name: F4
Note ON: Time 115440, Note Name: F4, Velocity: 64
Note ON: Time 115440, Note Name: C#5, Velocity: 76
Note OFF: Time 115560, Note Name: C#5
Note OFF: Time 115560, Note Name: F4
Note ON: Time 115680, Note Name: F4, Velocity: 55
Note ON: Time 115680, Note Name: B4, Velocity: 67
Note OFF: Time 116160, Note Name: B4
Note OFF: Time 116160, Note Name: F4
Note ON: Time 116160, Note Name: E4, Velocity: 58
Note ON: Time 116160, Note Name: C5, Velocity: 69
Note OFF: Time 116640, Note Name: C5
Note OFF: Time 116640, Note Name: E4
Note ON: Time 116640, Note Name: F4, Velocity: 53
Note ON: Time 116640, Note Name: D5, Velocity: 63
Note OFF: Time 117120, Note Name: D5
Note OFF: Time 117120, Note Name: F4
Note ON: Time 117120, Note Name: E4, Velocity: 35
Note ON: Time 117120, Note Name: E5, Velocity: 42
Note OFF: Time 117595, Note Name: E5
Note OFF: Time 117595, Note Name: E4
Note ON: Time 117600, Note Name: E4, Velocity: 33
Note ON: Time 117600, Note Name: C5, Velocity: 39
Note OFF: Time 118075, Note Name: C5
Note OFF: Time 118075, Note Name: E4
Note ON: Time 118080, Note Name: E4, Velocity: 31
Note ON: Time 118080, Note Name: G4, Velocity: 37
Note OFF: Time 118555, Note Name: G4
Note OFF: Time 118555, Note Name: E4
Note ON: Time 118560, Note Name: F4, Velocity: 33
Note ON: Time 118560, Note Name: A4, Velocity: 39
Note OFF: Time 120000, Note Name: A4
Note OFF: Time 120000, Note Name: F4
Note ON: Time 120000, Note Name: E4, Velocity: 35
Note ON: Time 120000, Note Name: G4, Velocity: 39
Note OFF: Time 120060, Note Name: G4
Note ON: Time 120060, Note Name: A4, Velocity: 39
Note OFF: Time 120120, Note Name: A4
Note ON: Time 120120, Note Name: G4, Velocity: 38
Note OFF: Time 120240, Note Name: G4
Note ON: Time 120240, Note Name: F#4, Velocity: 37
Note OFF: Time 120480, Note Name: F#4
Note OFF: Time 120480, Note Name: E4
Note ON: Time 120480, Note Name: E4, Velocity: 35
Note ON: Time 120480, Note Name: G4, Velocity: 42
Note OFF: Time 120600, Note Name: G4
Note OFF: Time 120600, Note Name: E4
Note ON: Time 120720, Note Name: E4, Velocity: 36
Note ON: Time 120720, Note Name: A4, Velocity: 44
Note OFF: Time 120840, Note Name: A4
Note OFF: Time 120840, Note Name: E4
Note ON: Time 120960, Note Name: E4, Velocity: 37
Note ON: Time 120960, Note Name: B4, Velocity: 44
Note OFF: Time 121080, Note Name: B4
Note OFF: Time 121080, Note Name: E4
Note ON: Time 121200, Note Name: E4, Velocity: 39
Note ON: Time 121200, Note Name: C5, Velocity: 46
Note OFF: Time 121320, Note Name: C5
Note OFF: Time 121320, Note Name: E4
Note ON: Time 121440, Note Name: F4, Velocity: 39
Note ON: Time 121440, Note Name: C#5, Velocity: 47
Note OFF: Time 121920, Note Name: C#5
Note OFF: Time 121920, Note Name: F4
Note ON: Time 121920, Note Name: F4, Velocity: 42
Note ON: Time 121920, Note Name: D5, Velocity: 50
Note OFF: Time 122400, Note Name: D5
Note OFF: Time 122400, Note Name: F4
Note ON: Time 122400, Note Name: F4, Velocity: 45
Note ON: Time 122400, Note Name: D#5, Velocity: 54
Note OFF: Time 122880, Note Name: D#5
Note OFF: Time 122880, Note Name: F4
Note ON: Time 122880, Note Name: E4, Velocity: 48
Note ON: Time 122880, Note Name: E5, Velocity: 57
Note OFF: Time 123355, Note Name: E5
Note OFF: Time 123355, Note Name: E4
Note ON: Time 123360, Note Name: E4, Velocity: 46
Note ON: Time 123360, Note Name: C5, Velocity: 55
Note OFF: Time 123835, Note Name: C5
Note OFF: Time 123835, Note Name: E4
Note ON: Time 123840, Note Name: E4, Velocity: 42
Note ON: Time 123840, Note Name: G4, Velocity: 51
Note OFF: Time 124315, Note Name: G4
Note OFF: Time 124315, Note Name: E4
Note ON: Time 124320, Note Name: F4, Velocity: 48
Note ON: Time 124320, Note Name: D5, Velocity: 59
Note OFF: Time 124800, Note Name: D5
Note OFF: Time 124800, Note Name: F4
Note ON: Time 124800, Note Name: F#4, Velocity: 52
Note ON: Time 124800, Note Name: D#5, Velocity: 63
Note OFF: Time 125280, Note Name: D#5
Note OFF: Time 125280, Note Name: F#4
Note ON: Time 125280, Note Name: G#4, Velocity: 57
Note ON: Time 125280, Note Name: F5, Velocity: 68
Note OFF: Time 125760, Note Name: F5
Note OFF: Time 125760, Note Name: G#4
Note ON: Time 125760, Note Name: A4, Velocity: 61
Note ON: Time 125760, Note Name: F#5, Velocity: 72
Note OFF: Time 126235, Note Name: F#5
Note OFF: Time 126235, Note Name: A4
Note ON: Time 126240, Note Name: A4, Velocity: 59
Note ON: Time 126240, Note Name: D#5, Velocity: 72
Note OFF: Time 126715, Note Name: D#5
Note OFF: Time 126715, Note Name: A4
Note ON: Time 126720, Note Name: A4, Velocity: 77
Note OFF: Time 127195, Note Name: A4
Note ON: Time 127200, Note Name: G#4, Velocity: 66
Note ON: Time 127200, Note Name: F5, Velocity: 78
Note OFF: Time 127680, Note Name: F5
Note OFF: Time 127680, Note Name: G#4
Note ON: Time 127680, Note Name: A4, Velocity: 69
Note ON: Time 127680, Note Name: F#5, Velocity: 82
Note OFF: Time 128160, Note Name: F#5
Note OFF: Time 128160, Note Name: A4
Note ON: Time 128160, Note Name: B4, Velocity: 73
Note ON: Time 128160, Note Name: G#5, Velocity: 86
Note OFF: Time 128640, Note Name: G#5
Note OFF: Time 128640, Note Name: B4
Note ON: Time 128640, Note Name: C5, Velocity: 74
Note ON: Time 128640, Note Name: A5, Velocity: 87
Note OFF: Time 129115, Note Name: A5
Note OFF: Time 129115, Note Name: C5
Note ON: Time 129120, Note Name: A4, Velocity: 75
Note ON: Time 129120, Note Name: C5, Velocity: 75
Note ON: Time 129120, Note Name: A5, Velocity: 89
Note OFF: Time 129595, Note Name: A5
Note OFF: Time 129595, Note Name: C5
Note OFF: Time 129595, Note Name: A4
Note ON: Time 129600, Note Name: A4, Velocity: 76
Note ON: Time 129600, Note Name: C5, Velocity: 76
Note ON: Time 129600, Note Name: A5, Velocity: 91
Note OFF: Time 130075, Note Name: A5
Note OFF: Time 130075, Note Name: C5
Note OFF: Time 130075, Note Name: A4
Note ON: Time 130080, Note Name: A4, Velocity: 78
Note ON: Time 130080, Note Name: C5, Velocity: 78
Note ON: Time 130080, Note Name: A5, Velocity: 93
Note OFF: Time 130555, Note Name: A5
Note OFF: Time 130555, Note Name: C5
Note OFF: Time 130555, Note Name: A4
Note ON: Time 130560, Note Name: A4, Velocity: 80
Note ON: Time 130560, Note Name: C5, Velocity: 80
Note ON: Time 130560, Note Name: A5, Velocity: 95
Note OFF: Time 131035, Note Name: A5
Note OFF: Time 131035, Note Name: C5
Note OFF: Time 131035, Note Name: A4
Note ON: Time 131040, Note Name: A4, Velocity: 81
Note ON: Time 131040, Note Name: C#5, Velocity: 81
Note ON: Time 131040, Note Name: A5, Velocity: 96
Note OFF: Time 131515, Note Name: A5
Note OFF: Time 131515, Note Name: C#5
Note OFF: Time 131515, Note Name: A4
Note ON: Time 131520, Note Name: E5, Velocity: 84
Note ON: Time 131520, Note Name: A4, Velocity: 84
Note ON: Time 131520, Note Name: A5, Velocity: 99
Note OFF: Time 132000, Note Name: E5
Note ON: Time 132000, Note Name: D#5, Velocity: 89
Note OFF: Time 132480, Note Name: A5
Note OFF: Time 132480, Note Name: A4
Note ON: Time 132480, Note Name: G#4, Velocity: 59
Note ON: Time 132480, Note Name: F#5, Velocity: 85
Note ON: Time 132480, Note Name: G#5, Velocity: 85
Note OFF: Time 132960, Note Name: G#5
Note OFF: Time 132960, Note Name: D#5
Note OFF: Time 132960, Note Name: G#4
Note OFF: Time 132960, Note Name: F#5
Note ON: Time 146640, Note Name: E5, Velocity: 52
Note OFF: Time 147600, Note Name: E5
Note ON: Time 147600, Note Name: F5, Velocity: 51
Note OFF: Time 148080, Note Name: F5
Note ON: Time 148080, Note Name: F5, Velocity: 54
Note OFF: Time 148560, Note Name: F5
Note ON: Time 148560, Note Name: F5, Velocity: 56
Note OFF: Time 149520, Note Name: F5
Note ON: Time 149520, Note Name: F#5, Velocity: 55
Note OFF: Time 150960, Note Name: F#5
Note ON: Time 150960, Note Name: E5, Velocity: 55
Note OFF: Time 151320, Note Name: E5
Note ON: Time 151320, Note Name: D5, Velocity: 51
Note OFF: Time 151440, Note Name: D5
Note ON: Time 151440, Note Name: C#5, Velocity: 51
Note OFF: Time 151920, Note Name: C#5
Note ON: Time 151920, Note Name: C5, Velocity: 51
Note OFF: Time 152400, Note Name: C5
Note ON: Time 152400, Note Name: C#5, Velocity: 54
Note OFF: Time 152880, Note Name: C#5
Note ON: Time 152880, Note Name: G#5, Velocity: 60
Note ON: Time 153240, Note Name: A4, Velocity: 36
Note OFF: Time 153360, Note Name: A4
Note ON: Time 153360, Note Name: A4, Velocity: 41
Note OFF: Time 153440, Note Name: A4
Note ON: Time 153456, Note Name: B4, Velocity: 39
Note OFF: Time 153536, Note Name: B4
Note ON: Time 153552, Note Name: A4, Velocity: 39
Note OFF: Time 153632, Note Name: A4
Note ON: Time 153648, Note Name: G#4, Velocity: 41
Note OFF: Time 153728, Note Name: G#4
Note ON: Time 153744, Note Name: A4, Velocity: 39
Note OFF: Time 153824, Note Name: A4
Note OFF: Time 153840, Note Name: G#5
Note ON: Time 153840, Note Name: F#5, Velocity: 54
Note ON: Time 153840, Note Name: B4, Velocity: 40
Note OFF: Time 154200, Note Name: B4
Note ON: Time 154200, Note Name: F#4, Velocity: 40
Note OFF: Time 154320, Note Name: F#4
Note OFF: Time 154320, Note Name: F#5
Note ON: Time 154320, Note Name: G#4, Velocity: 46
Note ON: Time 154320, Note Name: E5, Velocity: 54
Note OFF: Time 155280, Note Name: E5
Note ON: Time 155280, Note Name: E5, Velocity: 54
Note OFF: Time 155760, Note Name: E5
Note ON: Time 155760, Note Name: E5, Velocity: 58
Note OFF: Time 156240, Note Name: E5
Note OFF: Time 156240, Note Name: G#4
Note ON: Time 156240, Note Name: B4, Velocity: 55
Note ON: Time 156240, Note Name: F5, Velocity: 62
Note OFF: Time 156720, Note Name: B4
Note ON: Time 156720, Note Name: C#5, Velocity: 56
Note OFF: Time 157080, Note Name: C#5
Note ON: Time 157080, Note Name: B4, Velocity: 51
Note OFF: Time 157200, Note Name: B4
Note OFF: Time 157200, Note Name: F5
Note ON: Time 157200, Note Name: B4, Velocity: 55
Note ON: Time 157200, Note Name: F#5, Velocity: 60
Note OFF: Time 157680, Note Name: B4
Note ON: Time 157680, Note Name: A4, Velocity: 57
Note OFF: Time 158040, Note Name: A4
Note ON: Time 158040, Note Name: G#4, Velocity: 52
Note OFF: Time 158160, Note Name: G#4
Note ON: Time 158160, Note Name: F#4, Velocity: 53
Note OFF: Time 158640, Note Name: F#5
Note ON: Time 158640, Note Name: E5, Velocity: 56
Note OFF: Time 159000, Note Name: E5
Note ON: Time 159000, Note Name: D5, Velocity: 55
Note OFF: Time 159120, Note Name: D5
Note ON: Time 159120, Note Name: C#5, Velocity: 54
Note OFF: Time 159600, Note Name: C#5
Note ON: Time 159600, Note Name: C5, Velocity: 52
Note OFF: Time 160080, Note Name: F#4
Note ON: Time 160080, Note Name: F#4, Velocity: 60
Note OFF: Time 160560, Note Name: F#4
Note ON: Time 160560, Note Name: E4, Velocity: 58
Note OFF: Time 160920, Note Name: E4
Note ON: Time 160920, Note Name: D4, Velocity: 47
Note OFF: Time 161040, Note Name: D4
Note OFF: Time 161040, Note Name: C5
Note ON: Time 161040, Note Name: C#4, Velocity: 57
Note OFF: Time 161520, Note Name: C#4
Note ON: Time 161520, Note Name: C4, Velocity: 56
Note OFF: Time 162000, Note Name: C4
Note ON: Time 162000, Note Name: C#4, Velocity: 61
Note OFF: Time 162480, Note Name: C#4
Note ON: Time 162480, Note Name: C#5, Velocity: 45
Note ON: Time 162480, Note Name: F5, Velocity: 54
Note OFF: Time 162960, Note Name: F5
Note OFF: Time 162960, Note Name: C#5
Note ON: Time 162960, Note Name: F#4, Velocity: 40
Note ON: Time 162960, Note Name: A#4, Velocity: 48
Note OFF: Time 163440, Note Name: A#4
Note OFF: Time 163440, Note Name: F#4
Note ON: Time 163440, Note Name: C5, Velocity: 54
Note ON: Time 163440, Note Name: D#5, Velocity: 54
Note OFF: Time 163800, Note Name: C5
Note ON: Time 163800, Note Name: A#4, Velocity: 47
Note OFF: Time 163920, Note Name: A#4
Note OFF: Time 163920, Note Name: D#5
Note ON: Time 163920, Note Name: F4, Velocity: 42
Note ON: Time 163920, Note Name: G#4, Velocity: 50
Note OFF: Time 164400, Note Name: G#4
Note OFF: Time 164400, Note Name: F4
Note ON: Time 164400, Note Name: A#4, Velocity: 43
Note ON: Time 164400, Note Name: C#5, Velocity: 51
Note OFF: Time 164880, Note Name: C#5
Note OFF: Time 164880, Note Name: A#4
Note ON: Time 164880, Note Name: D#4, Velocity: 40
Note ON: Time 164880, Note Name: F#4, Velocity: 48
Note OFF: Time 165360, Note Name: F#4
Note OFF: Time 165360, Note Name: D#4
Note ON: Time 165360, Note Name: G#4, Velocity: 42
Note ON: Time 165360, Note Name: C5, Velocity: 50
Note OFF: Time 165720, Note Name: C5
Note OFF: Time 165720, Note Name: G#4
Note ON: Time 165720, Note Name: F#4, Velocity: 35
Note ON: Time 165720, Note Name: A#4, Velocity: 42
Note OFF: Time 165840, Note Name: A#4
Note OFF: Time 165840, Note Name: F#4
Note ON: Time 165840, Note Name: F4, Velocity: 40
Note ON: Time 165840, Note Name: G#4, Velocity: 47
Note ON: Time 166320, Note Name: C#5, Velocity: 40
Note ON: Time 166320, Note Name: F5, Velocity: 47
Note OFF: Time 166800, Note Name: G#4
Note OFF: Time 166800, Note Name: F4
Note ON: Time 166800, Note Name: F#4, Velocity: 36
Note ON: Time 166800, Note Name: A#4, Velocity: 44
Note OFF: Time 167280, Note Name: C#5
Note OFF: Time 167280, Note Name: F5
Note ON: Time 167280, Note Name: C5, Velocity: 38
Note ON: Time 167280, Note Name: D#5, Velocity: 45
Note OFF: Time 167760, Note Name: F#4
Note OFF: Time 167760, Note Name: A#4
Note ON: Time 167760, Note Name: F4, Velocity: 36
Note ON: Time 167760, Note Name: G#4, Velocity: 43
Note OFF: Time 168240, Note Name: C5
Note OFF: Time 168240, Note Name: D#5
Note ON: Time 168240, Note Name: A#4, Velocity: 37
Note ON: Time 168240, Note Name: C#5, Velocity: 45
Note OFF: Time 168720, Note Name: F4
Note OFF: Time 168720, Note Name: G#4
Note ON: Time 168720, Note Name: F#4, Velocity: 42
Note ON: Time 168720, Note Name: D#4, Velocity: 35
Note OFF: Time 169200, Note Name: F#4
Note OFF: Time 169200, Note Name: C#5
Note OFF: Time 169200, Note Name: A#4
Note ON: Time 169200, Note Name: G#4, Velocity: 36
Note ON: Time 169200, Note Name: C5, Velocity: 43
Note OFF: Time 169560, Note Name: C5
Note OFF: Time 169560, Note Name: G#4
Note ON: Time 169560, Note Name: F#4, Velocity: 34
Note ON: Time 169560, Note Name: A#4, Velocity: 40
Note OFF: Time 169680, Note Name: A#4
Note OFF: Time 169680, Note Name: F#4
Note OFF: Time 169680, Note Name: D#4
Note ON: Time 169680, Note Name: F4, Velocity: 35
Note ON: Time 169680, Note Name: G#4, Velocity: 42
Note OFF: Time 171600, Note Name: G#4
Note OFF: Time 171600, Note Name: F4
Note ON: Time 171600, Note Name: C#4, Velocity: 50
Note ON: Time 171600, Note Name: G#4, Velocity: 50
Note ON: Time 171600, Note Name: A#4, Velocity: 59
Note OFF: Time 172560, Note Name: A#4
Note OFF: Time 172560, Note Name: G#4
Note OFF: Time 172560, Note Name: C#4
Note ON: Time 172560, Note Name: C#4, Velocity: 56
Note ON: Time 172560, Note Name: F#4, Velocity: 56
Note ON: Time 172560, Note Name: A#4, Velocity: 66
Note OFF: Time 173520, Note Name: A#4
Note OFF: Time 173520, Note Name: F#4
Note OFF: Time 173520, Note Name: C#4
Note ON: Time 173520, Note Name: F#4, Velocity: 56
Note ON: Time 173520, Note Name: G#4, Velocity: 56
Note ON: Time 173520, Note Name: C#5, Velocity: 66
Note OFF: Time 174480, Note Name: F#4
Note ON: Time 174480, Note Name: F4, Velocity: 58
Note OFF: Time 174960, Note Name: F4
Note OFF: Time 174960, Note Name: C#5
Note OFF: Time 174960, Note Name: G#4
Note ON: Time 175440, Note Name: F4, Velocity: 33
Note ON: Time 175440, Note Name: C#4, Velocity: 27
Note OFF: Time 177360, Note Name: C#4
Note OFF: Time 177360, Note Name: F4
Track 2: Piano left
Note ON: Time 0, Note Name: C#2, Velocity: 20
Note OFF: Time 160, Note Name: C#2
Note ON: Time 160, Note Name: G#2, Velocity: 21
Note OFF: Time 320, Note Name: G#2
Note ON: Time 320, Note Name: G#3, Velocity: 22
Note OFF: Time 480, Note Name: G#3
Note ON: Time 480, Note Name: C#3, Velocity: 23
Note OFF: Time 640, Note Name: C#3
Note ON: Time 640, Note Name: G#2, Velocity: 24
Note OFF: Time 800, Note Name: G#2
Note ON: Time 800, Note Name: C#2, Velocity: 26
Note OFF: Time 960, Note Name: C#2
Note ON: Time 960, Note Name: G#2, Velocity: 27
Note OFF: Time 1120, Note Name: G#2
Note ON: Time 1120, Note Name: C#3, Velocity: 28
Note OFF: Time 1280, Note Name: C#3
Note ON: Time 1280, Note Name: G#3, Velocity: 29
Note OFF: Time 1440, Note Name: G#3
Note ON: Time 1440, Note Name: C#3, Velocity: 31
Note OFF: Time 1600, Note Name: C#3
Note ON: Time 1600, Note Name: G#2, Velocity: 32
Note OFF: Time 1760, Note Name: G#2
Note ON: Time 1760, Note Name: C#2, Velocity: 33
Note OFF: Time 1920, Note Name: C#2
Note ON: Time 1920, Note Name: G#2, Velocity: 34
Note OFF: Time 2080, Note Name: G#2
Note ON: Time 2080, Note Name: C#3, Velocity: 34
Note OFF: Time 2240, Note Name: C#3
Note ON: Time 2240, Note Name: G#3, Velocity: 33
Note OFF: Time 2400, Note Name: G#3
Note ON: Time 2400, Note Name: C#3, Velocity: 32
Note OFF: Time 2560, Note Name: C#3
Note ON: Time 2560, Note Name: G#2, Velocity: 31
Note OFF: Time 2720, Note Name: G#2
Note ON: Time 2720, Note Name: C#2, Velocity: 30
Note OFF: Time 2880, Note Name: C#2
Note ON: Time 2880, Note Name: G#2, Velocity: 30
Note OFF: Time 3040, Note Name: G#2
Note ON: Time 3040, Note Name: C#3, Velocity: 29
Note OFF: Time 3200, Note Name: C#3
Note ON: Time 3200, Note Name: G#3, Velocity: 28
Note OFF: Time 3360, Note Name: G#3
Note ON: Time 3360, Note Name: C#3, Velocity: 27
Note OFF: Time 3520, Note Name: C#3
Note ON: Time 3520, Note Name: G#2, Velocity: 26
Note OFF: Time 3680, Note Name: G#2
Note ON: Time 3680, Note Name: C#2, Velocity: 25
Note OFF: Time 3840, Note Name: C#2
Note ON: Time 3840, Note Name: G#2, Velocity: 26
Note OFF: Time 4000, Note Name: G#2
Note ON: Time 4000, Note Name: C#3, Velocity: 25
Note OFF: Time 4160, Note Name: C#3
Note ON: Time 4160, Note Name: G#3, Velocity: 26
Note OFF: Time 4320, Note Name: G#3
Note ON: Time 4320, Note Name: C#3, Velocity: 27
Note OFF: Time 4480, Note Name: C#3
Note ON: Time 4480, Note Name: G#2, Velocity: 28
Note OFF: Time 4640, Note Name: G#2
Note ON: Time 4640, Note Name: C#2, Velocity: 29
Note OFF: Time 4800, Note Name: C#2
Note ON: Time 4800, Note Name: G#2, Velocity: 28
Note OFF: Time 4960, Note Name: G#2
Note ON: Time 4960, Note Name: C#3, Velocity: 29
Note OFF: Time 5120, Note Name: C#3
Note ON: Time 5120, Note Name: B3, Velocity: 30
Note OFF: Time 5280, Note Name: B3
Note ON: Time 5280, Note Name: C#3, Velocity: 30
Note OFF: Time 5440, Note Name: C#3
Note ON: Time 5440, Note Name: G#2, Velocity: 31
Note OFF: Time 5600, Note Name: G#2
Note ON: Time 5600, Note Name: C#2, Velocity: 32
Note OFF: Time 5760, Note Name: C#2
Note ON: Time 5760, Note Name: G#2, Velocity: 33
Note OFF: Time 5920, Note Name: G#2
Note ON: Time 5920, Note Name: C#3, Velocity: 31
Note OFF: Time 6080, Note Name: C#3
Note ON: Time 6080, Note Name: B3, Velocity: 30
Note OFF: Time 6240, Note Name: B3
Note ON: Time 6240, Note Name: C#3, Velocity: 30
Note OFF: Time 6400, Note Name: C#3
Note ON: Time 6400, Note Name: G#2, Velocity: 29
Note OFF: Time 6560, Note Name: G#2
Note ON: Time 6560, Note Name: C#2, Velocity: 28
Note OFF: Time 6720, Note Name: C#2
Note ON: Time 6720, Note Name: A2, Velocity: 28
Note OFF: Time 6880, Note Name: A2
Note ON: Time 6880, Note Name: C#3, Velocity: 28
Note OFF: Time 7040, Note Name: C#3
Note ON: Time 7040, Note Name: A3, Velocity: 28
Note OFF: Time 7200, Note Name: A3
Note ON: Time 7200, Note Name: C#3, Velocity: 28
Note OFF: Time 7360, Note Name: C#3
Note ON: Time 7360, Note Name: A2, Velocity: 28
Note OFF: Time 7520, Note Name: A2
Note ON: Time 7520, Note Name: C#2, Velocity: 28
Note OFF: Time 7680, Note Name: C#2
Note ON: Time 7680, Note Name: A2, Velocity: 32
Note OFF: Time 7840, Note Name: A2
Note ON: Time 7840, Note Name: D3, Velocity: 29
Note OFF: Time 8000, Note Name: D3
Note ON: Time 8000, Note Name: A3, Velocity: 29
Note OFF: Time 8160, Note Name: A3
Note ON: Time 8160, Note Name: D3, Velocity: 28
Note OFF: Time 8320, Note Name: D3
Note ON: Time 8320, Note Name: A2, Velocity: 27
Note OFF: Time 8480, Note Name: A2
Note ON: Time 8480, Note Name: C#2, Velocity: 26
Note OFF: Time 8640, Note Name: C#2
Note ON: Time 8640, Note Name: A2, Velocity: 25
Note OFF: Time 8800, Note Name: A2
Note ON: Time 8800, Note Name: D3, Velocity: 24
Note OFF: Time 8960, Note Name: D3
Note ON: Time 8960, Note Name: A3, Velocity: 24
Note OFF: Time 9120, Note Name: A3
Note ON: Time 9120, Note Name: D3, Velocity: 24
Note OFF: Time 9280, Note Name: D3
Note ON: Time 9280, Note Name: A2, Velocity: 24
Note OFF: Time 9440, Note Name: A2
Note ON: Time 9440, Note Name: C#2, Velocity: 24
Note OFF: Time 9600, Note Name: C#2
Note ON: Time 9600, Note Name: G#2, Velocity: 26
Note OFF: Time 9760, Note Name: G#2
Note ON: Time 9760, Note Name: E3, Velocity: 24
Note OFF: Time 9920, Note Name: E3
Note ON: Time 9920, Note Name: C#4, Velocity: 23
Note OFF: Time 10080, Note Name: C#4
Note ON: Time 10080, Note Name: E3, Velocity: 23
Note OFF: Time 10240, Note Name: E3
Note ON: Time 10240, Note Name: G#2, Velocity: 23
Note OFF: Time 10400, Note Name: G#2
Note ON: Time 10400, Note Name: C#2, Velocity: 23
Note OFF: Time 10560, Note Name: C#2
Note ON: Time 10560, Note Name: B1, Velocity: 26
Note OFF: Time 10720, Note Name: B1
Note ON: Time 10720, Note Name: B2, Velocity: 24
Note OFF: Time 10880, Note Name: B2
Note ON: Time 10880, Note Name: D#4, Velocity: 24
Note OFF: Time 11040, Note Name: D#4
Note ON: Time 11040, Note Name: A3, Velocity: 24
Note OFF: Time 11200, Note Name: A3
Note ON: Time 11200, Note Name: B2, Velocity: 24
Note OFF: Time 11360, Note Name: B2
Note ON: Time 11360, Note Name: B1, Velocity: 24
Note OFF: Time 11520, Note Name: B1
Note ON: Time 11520, Note Name: E2, Velocity: 26
Note OFF: Time 11680, Note Name: E2
Note ON: Time 11680, Note Name: B2, Velocity: 27
Note OFF: Time 11840, Note Name: B2
Note ON: Time 11840, Note Name: E4, Velocity: 28
Note OFF: Time 12000, Note Name: E4
Note ON: Time 12000, Note Name: G#3, Velocity: 28
Note OFF: Time 12160, Note Name: G#3
Note ON: Time 12160, Note Name: B2, Velocity: 29
Note OFF: Time 12320, Note Name: B2
Note ON: Time 12320, Note Name: D#2, Velocity: 30
Note OFF: Time 12480, Note Name: D#2
Note ON: Time 12480, Note Name: C#2, Velocity: 31
Note OFF: Time 12640, Note Name: C#2
Note ON: Time 12640, Note Name: G#2, Velocity: 32
Note OFF: Time 12800, Note Name: G#2
Note ON: Time 12800, Note Name: G#3, Velocity: 33
Note OFF: Time 12960, Note Name: G#3
Note ON: Time 12960, Note Name: C#3, Velocity: 34
Note OFF: Time 13120, Note Name: C#3
Note ON: Time 13120, Note Name: G#2, Velocity: 35
Note OFF: Time 13280, Note Name: G#2
Note ON: Time 13280, Note Name: C#2, Velocity: 36
Note OFF: Time 13440, Note Name: C#2
Note ON: Time 13440, Note Name: G#2, Velocity: 39
Note OFF: Time 13600, Note Name: G#2
Note ON: Time 13600, Note Name: C#3, Velocity: 39
Note OFF: Time 13760, Note Name: C#3
Note ON: Time 13760, Note Name: B3, Velocity: 38
Note OFF: Time 13920, Note Name: B3
Note ON: Time 13920, Note Name: C#3, Velocity: 38
Note OFF: Time 14080, Note Name: C#3
Note ON: Time 14080, Note Name: G#2, Velocity: 37
Note OFF: Time 14240, Note Name: G#2
Note ON: Time 14240, Note Name: C#2, Velocity: 37
Note OFF: Time 14400, Note Name: C#2
Note ON: Time 14400, Note Name: A2, Velocity: 36
Note OFF: Time 14560, Note Name: A2
Note ON: Time 14560, Note Name: C#3, Velocity: 36
Note OFF: Time 14720, Note Name: C#3
Note ON: Time 14720, Note Name: A3, Velocity: 35
Note OFF: Time 14880, Note Name: A3
Note ON: Time 14880, Note Name: C#3, Velocity: 34
Note OFF: Time 15040, Note Name: C#3
Note ON: Time 15040, Note Name: A2, Velocity: 34
Note OFF: Time 15200, Note Name: A2
Note ON: Time 15200, Note Name: C#2, Velocity: 33
Note OFF: Time 15360, Note Name: C#2
Note ON: Time 15360, Note Name: A2, Velocity: 30
Note OFF: Time 15520, Note Name: A2
Note ON: Time 15520, Note Name: D3, Velocity: 28
Note OFF: Time 15680, Note Name: D3
Note ON: Time 15680, Note Name: A3, Velocity: 26
Note OFF: Time 15840, Note Name: A3
Note ON: Time 15840, Note Name: D3, Velocity: 27
Note OFF: Time 16000, Note Name: D3
Note ON: Time 16000, Note Name: A2, Velocity: 25
Note OFF: Time 16160, Note Name: A2
Note ON: Time 16160, Note Name: C#2, Velocity: 25
Note OFF: Time 16320, Note Name: C#2
Note ON: Time 16320, Note Name: A2, Velocity: 25
Note OFF: Time 16480, Note Name: A2
Note ON: Time 16480, Note Name: D3, Velocity: 24
Note OFF: Time 16640, Note Name: D3
Note ON: Time 16640, Note Name: A3, Velocity: 24
Note OFF: Time 16800, Note Name: A3
Note ON: Time 16800, Note Name: D3, Velocity: 24
Note OFF: Time 16960, Note Name: D3
Note ON: Time 16960, Note Name: A2, Velocity: 24
Note OFF: Time 17120, Note Name: A2
Note ON: Time 17120, Note Name: C#2, Velocity: 24
Note OFF: Time 17280, Note Name: C#2
Note ON: Time 17280, Note Name: A2, Velocity: 26
Note OFF: Time 17440, Note Name: A2
Note ON: Time 17440, Note Name: D3, Velocity: 24
Note OFF: Time 17600, Note Name: D3
Note ON: Time 17600, Note Name: A3, Velocity: 23
Note OFF: Time 17760, Note Name: A3
Note ON: Time 17760, Note Name: D3, Velocity: 23
Note OFF: Time 17920, Note Name: D3
Note ON: Time 17920, Note Name: A2, Velocity: 23
Note OFF: Time 18080, Note Name: A2
Note ON: Time 18080, Note Name: C#2, Velocity: 23
Note OFF: Time 18240, Note Name: C#2
Note ON: Time 18240, Note Name: A2, Velocity: 26
Note OFF: Time 18400, Note Name: A2
Note ON: Time 18400, Note Name: D3, Velocity: 24
Note OFF: Time 18560, Note Name: D3
Note ON: Time 18560, Note Name: A3, Velocity: 24
Note OFF: Time 18720, Note Name: A3
Note ON: Time 18720, Note Name: D3, Velocity: 24
Note OFF: Time 18880, Note Name: D3
Note ON: Time 18880, Note Name: A2, Velocity: 24
Note OFF: Time 19040, Note Name: A2
Note ON: Time 19040, Note Name: C#2, Velocity: 24
Note OFF: Time 19200, Note Name: C#2
Note ON: Time 19200, Note Name: G#2, Velocity: 34
Note OFF: Time 19360, Note Name: G#2
Note ON: Time 19360, Note Name: G#3, Velocity: 28
Note OFF: Time 19520, Note Name: G#3
Note ON: Time 19520, Note Name: C#4, Velocity: 28
Note OFF: Time 19680, Note Name: C#4
Note ON: Time 19680, Note Name: E3, Velocity: 28
Note OFF: Time 19840, Note Name: E3
Note ON: Time 19840, Note Name: G#2, Velocity: 29
Note OFF: Time 20000, Note Name: G#2
Note ON: Time 20000, Note Name: C#2, Velocity: 29
Note OFF: Time 20160, Note Name: C#2
Note ON: Time 20160, Note Name: C#2, Velocity: 31
Note OFF: Time 20320, Note Name: C#2
Note ON: Time 20320, Note Name: G#2, Velocity: 24
Note OFF: Time 20480, Note Name: G#2
Note ON: Time 20480, Note Name: C4, Velocity: 24
Note OFF: Time 20640, Note Name: C4
Note ON: Time 20640, Note Name: F#3, Velocity: 24
Note OFF: Time 20800, Note Name: F#3
Note ON: Time 20800, Note Name: G#2, Velocity: 24
Note OFF: Time 20960, Note Name: G#2
Note ON: Time 20960, Note Name: C#2, Velocity: 24
Note OFF: Time 21120, Note Name: C#2
Note ON: Time 21120, Note Name: C#2, Velocity: 27
Note OFF: Time 21280, Note Name: C#2
Note ON: Time 21280, Note Name: G#2, Velocity: 27
Note OFF: Time 21440, Note Name: G#2
Note ON: Time 21440, Note Name: C#4, Velocity: 28
Note OFF: Time 21600, Note Name: C#4
Note ON: Time 21600, Note Name: E3, Velocity: 29
Note OFF: Time 21760, Note Name: E3
Note ON: Time 21760, Note Name: G#2, Velocity: 29
Note OFF: Time 21920, Note Name: G#2
Note ON: Time 21920, Note Name: C#2, Velocity: 30
Note OFF: Time 22080, Note Name: C#2
Note ON: Time 22080, Note Name: C#2, Velocity: 30
Note OFF: Time 22240, Note Name: C#2
Note ON: Time 22240, Note Name: G#2, Velocity: 31
Note OFF: Time 22400, Note Name: G#2
Note ON: Time 22400, Note Name: C4, Velocity: 32
Note OFF: Time 22560, Note Name: C4
Note ON: Time 22560, Note Name: F#3, Velocity: 32
Note OFF: Time 22720, Note Name: F#3
Note ON: Time 22720, Note Name: G#2, Velocity: 33
Note OFF: Time 22880, Note Name: G#2
Note ON: Time 22880, Note Name: C#2, Velocity: 33
Note OFF: Time 23040, Note Name: C#2
Note ON: Time 23040, Note Name: C#2, Velocity: 34
Note OFF: Time 23200, Note Name: C#2
Note ON: Time 23200, Note Name: G#2, Velocity: 29
Note OFF: Time 23360, Note Name: G#2
Note ON: Time 23360, Note Name: C#4, Velocity: 30
Note OFF: Time 23520, Note Name: C#4
Note ON: Time 23520, Note Name: E3, Velocity: 30
Note OFF: Time 23680, Note Name: E3
Note ON: Time 23680, Note Name: G#2, Velocity: 30
Note OFF: Time 23840, Note Name: G#2
Note ON: Time 23840, Note Name: C#2, Velocity: 30
Note OFF: Time 24000, Note Name: C#2
Note ON: Time 24000, Note Name: G#1, Velocity: 26
Note OFF: Time 24160, Note Name: G#1
Note ON: Time 24160, Note Name: G#2, Velocity: 24
Note OFF: Time 24320, Note Name: G#2
Note ON: Time 24320, Note Name: C4, Velocity: 24
Note OFF: Time 24480, Note Name: C4
Note ON: Time 24480, Note Name: F#3, Velocity: 24
Note OFF: Time 24640, Note Name: F#3
Note ON: Time 24640, Note Name: G#2, Velocity: 24
Note OFF: Time 24800, Note Name: G#2
Note ON: Time 24800, Note Name: G#1, Velocity: 24
Note OFF: Time 24960, Note Name: G#1
Note ON: Time 24960, Note Name: C#2, Velocity: 26
Note OFF: Time 25120, Note Name: C#2
Note ON: Time 25120, Note Name: G#2, Velocity: 23
Note OFF: Time 25280, Note Name: G#2
Note ON: Time 25280, Note Name: C#4, Velocity: 24
Note OFF: Time 25440, Note Name: C#4
Note ON: Time 25440, Note Name: E3, Velocity: 24
Note OFF: Time 25600, Note Name: E3
Note ON: Time 25600, Note Name: G#2, Velocity: 24
Note OFF: Time 25760, Note Name: G#2
Note ON: Time 25760, Note Name: C#2, Velocity: 24
Note OFF: Time 25920, Note Name: C#2
Note ON: Time 25920, Note Name: C#2, Velocity: 26
Note OFF: Time 26080, Note Name: C#2
Note ON: Time 26080, Note Name: G#2, Velocity: 24
Note OFF: Time 26240, Note Name: G#2
Note ON: Time 26240, Note Name: C4, Velocity: 24
Note OFF: Time 26400, Note Name: C4
Note ON: Time 26400, Note Name: F#3, Velocity: 24
Note OFF: Time 26560, Note Name: F#3
Note ON: Time 26560, Note Name: G#2, Velocity: 24
Note OFF: Time 26720, Note Name: G#2
Note ON: Time 26720, Note Name: C#2, Velocity: 24
Note OFF: Time 26880, Note Name: C#2
Note ON: Time 26880, Note Name: C#2, Velocity: 34
Note OFF: Time 27040, Note Name: C#2
Note ON: Time 27040, Note Name: G#2, Velocity: 32
Note OFF: Time 27200, Note Name: G#2
Note ON: Time 27200, Note Name: C#4, Velocity: 32
Note OFF: Time 27360, Note Name: C#4
Note ON: Time 27360, Note Name: E3, Velocity: 32
Note OFF: Time 27520, Note Name: E3
Note ON: Time 27520, Note Name: G#2, Velocity: 31
Note OFF: Time 27680, Note Name: G#2
Note ON: Time 27680, Note Name: C#2, Velocity: 31
Note OFF: Time 27840, Note Name: C#2
Note ON: Time 27840, Note Name: C#2, Velocity: 26
Note OFF: Time 28000, Note Name: C#2
Note ON: Time 28000, Note Name: G#2, Velocity: 24
Note OFF: Time 28160, Note Name: G#2
Note ON: Time 28160, Note Name: C4, Velocity: 24
Note OFF: Time 28320, Note Name: C4
Note ON: Time 28320, Note Name: F#3, Velocity: 24
Note OFF: Time 28480, Note Name: F#3
Note ON: Time 28480, Note Name: G#2, Velocity: 24
Note OFF: Time 28640, Note Name: G#2
Note ON: Time 28640, Note Name: C#2, Velocity: 24
Note OFF: Time 28800, Note Name: C#2
Note ON: Time 28800, Note Name: C#2, Velocity: 26
Note OFF: Time 28960, Note Name: C#2
Note ON: Time 28960, Note Name: G#2, Velocity: 26
Note OFF: Time 29120, Note Name: G#2
Note ON: Time 29120, Note Name: C#4, Velocity: 27
Note OFF: Time 29280, Note Name: C#4
Note ON: Time 29280, Note Name: E3, Velocity: 27
Note OFF: Time 29440, Note Name: E3
Note ON: Time 29440, Note Name: G#2, Velocity: 28
Note OFF: Time 29600, Note Name: G#2
Note ON: Time 29600, Note Name: C#2, Velocity: 29
Note OFF: Time 29760, Note Name: C#2
Note ON: Time 29760, Note Name: G#1, Velocity: 29
Note OFF: Time 29920, Note Name: G#1
Note ON: Time 29920, Note Name: G#2, Velocity: 30
Note OFF: Time 30080, Note Name: G#2
Note ON: Time 30080, Note Name: C4, Velocity: 30
Note OFF: Time 30240, Note Name: C4
Note ON: Time 30240, Note Name: F#3, Velocity: 31
Note OFF: Time 30400, Note Name: F#3
Note ON: Time 30400, Note Name: G#2, Velocity: 32
Note OFF: Time 30560, Note Name: G#2
Note ON: Time 30560, Note Name: G#1, Velocity: 32
Note OFF: Time 30720, Note Name: G#1
Note ON: Time 30720, Note Name: C#2, Velocity: 35
Note OFF: Time 30880, Note Name: C#2
Note ON: Time 30880, Note Name: G#2, Velocity: 34
Note OFF: Time 31040, Note Name: G#2
Note ON: Time 31040, Note Name: C#4, Velocity: 33
Note OFF: Time 31200, Note Name: C#4
Note ON: Time 31200, Note Name: E3, Velocity: 32
Note OFF: Time 31360, Note Name: E3
Note ON: Time 31360, Note Name: G#2, Velocity: 31
Note OFF: Time 31520, Note Name: G#2
Note ON: Time 31520, Note Name: C#2, Velocity: 29
Note OFF: Time 31680, Note Name: C#2
Note ON: Time 31680, Note Name: F#2, Velocity: 26
Note OFF: Time 31840, Note Name: F#2
Note ON: Time 31840, Note Name: D3, Velocity: 24
Note OFF: Time 32000, Note Name: D3
Note ON: Time 32000, Note Name: A3, Velocity: 24
Note OFF: Time 32160, Note Name: A3
Note ON: Time 32160, Note Name: G#2, Velocity: 24
Note OFF: Time 32320, Note Name: G#2
Note ON: Time 32320, Note Name: F#3, Velocity: 24
Note OFF: Time 32480, Note Name: F#3
Note ON: Time 32480, Note Name: C4, Velocity: 24
Note OFF: Time 32640, Note Name: C4
Note ON: Time 32640, Note Name: C#2, Velocity: 26
Note OFF: Time 32800, Note Name: C#2
Note ON: Time 32800, Note Name: G#2, Velocity: 23
Note OFF: Time 32960, Note Name: G#2
Note ON: Time 32960, Note Name: C#4, Velocity: 24
Note OFF: Time 33120, Note Name: C#4
Note ON: Time 33120, Note Name: E3, Velocity: 24
Note OFF: Time 33280, Note Name: E3
Note ON: Time 33280, Note Name: G#2, Velocity: 24
Note OFF: Time 33440, Note Name: G#2
Note ON: Time 33440, Note Name: C#2, Velocity: 24
Note OFF: Time 33597, Note Name: C#2
Note ON: Time 33600, Note Name: C#2, Velocity: 26
Note OFF: Time 33760, Note Name: C#2
Note ON: Time 33760, Note Name: G#2, Velocity: 24
Note OFF: Time 33920, Note Name: G#2
Note ON: Time 33920, Note Name: G#3, Velocity: 24
Note OFF: Time 34080, Note Name: G#3
Note ON: Time 34080, Note Name: C#3, Velocity: 24
Note OFF: Time 34240, Note Name: C#3
Note ON: Time 34240, Note Name: G#2, Velocity: 24
Note OFF: Time 34400, Note Name: G#2
Note ON: Time 34400, Note Name: C#2, Velocity: 24
Note OFF: Time 34560, Note Name: C#2
Note ON: Time 34560, Note Name: G#2, Velocity: 26
Note OFF: Time 34720, Note Name: G#2
Note ON: Time 34720, Note Name: C#3, Velocity: 26
Note OFF: Time 34880, Note Name: C#3
Note ON: Time 34880, Note Name: G#3, Velocity: 26
Note OFF: Time 35040, Note Name: G#3
Note ON: Time 35040, Note Name: C#3, Velocity: 27
Note OFF: Time 35200, Note Name: C#3
Note ON: Time 35200, Note Name: G#2, Velocity: 28
Note OFF: Time 35360, Note Name: G#2
Note ON: Time 35360, Note Name: C#2, Velocity: 28
Note OFF: Time 35520, Note Name: C#2
Note ON: Time 35520, Note Name: G#2, Velocity: 29
Note OFF: Time 35680, Note Name: G#2
Note ON: Time 35680, Note Name: C#3, Velocity: 29
Note OFF: Time 35840, Note Name: C#3
Note ON: Time 35840, Note Name: G#3, Velocity: 30
Note OFF: Time 36000, Note Name: G#3
Note ON: Time 36000, Note Name: C#3, Velocity: 30
Note OFF: Time 36160, Note Name: C#3
Note ON: Time 36160, Note Name: G#2, Velocity: 31
Note OFF: Time 36320, Note Name: G#2
Note ON: Time 36320, Note Name: C#2, Velocity: 32
Note OFF: Time 36480, Note Name: C#2
Note ON: Time 36480, Note Name: G#2, Velocity: 32
Note OFF: Time 36640, Note Name: G#2
Note ON: Time 36640, Note Name: C#3, Velocity: 32
Note OFF: Time 36800, Note Name: C#3
Note ON: Time 36800, Note Name: G#3, Velocity: 31
Note OFF: Time 36960, Note Name: G#3
Note ON: Time 36960, Note Name: C#3, Velocity: 30
Note OFF: Time 37120, Note Name: C#3
Note ON: Time 37120, Note Name: G#2, Velocity: 30
Note OFF: Time 37280, Note Name: G#2
Note ON: Time 37280, Note Name: C#2, Velocity: 29
Note OFF: Time 37440, Note Name: C#2
Note ON: Time 37440, Note Name: F#2, Velocity: 28
Note OFF: Time 37600, Note Name: F#2
Note ON: Time 37600, Note Name: C#3, Velocity: 27
Note OFF: Time 37760, Note Name: C#3
Note ON: Time 37760, Note Name: C#4, Velocity: 27
Note OFF: Time 37920, Note Name: C#4
Note ON: Time 37920, Note Name: F#3, Velocity: 26
Note OFF: Time 38080, Note Name: F#3
Note ON: Time 38080, Note Name: C#3, Velocity: 25
Note OFF: Time 38240, Note Name: C#3
Note ON: Time 38240, Note Name: F#2, Velocity: 23
Note OFF: Time 38400, Note Name: F#2
Note ON: Time 38400, Note Name: F#1, Velocity: 26
Note OFF: Time 38560, Note Name: F#1
Note ON: Time 38560, Note Name: F#2, Velocity: 24
Note OFF: Time 38720, Note Name: F#2
Note ON: Time 38720, Note Name: A3, Velocity: 24
Note OFF: Time 38880, Note Name: A3
Note ON: Time 38880, Note Name: D3, Velocity: 24
Note OFF: Time 39040, Note Name: D3
Note ON: Time 39040, Note Name: F#2, Velocity: 24
Note OFF: Time 39200, Note Name: F#2
Note ON: Time 39200, Note Name: F#1, Velocity: 24
Note OFF: Time 39360, Note Name: F#1
Note ON: Time 39360, Note Name: G#1, Velocity: 26
Note OFF: Time 39520, Note Name: G#1
Note ON: Time 39520, Note Name: G#2, Velocity: 24
Note OFF: Time 39680, Note Name: G#2
Note ON: Time 39680, Note Name: G#3, Velocity: 24
Note OFF: Time 39840, Note Name: G#3
Note ON: Time 39840, Note Name: D#3, Velocity: 24
Note OFF: Time 40000, Note Name: D#3
Note ON: Time 40000, Note Name: G#2, Velocity: 24
Note OFF: Time 40160, Note Name: G#2
Note ON: Time 40160, Note Name: G#1, Velocity: 24
Note OFF: Time 40320, Note Name: G#1
Note ON: Time 40324, Note Name: C#2, Velocity: 26
Note ON: Time 40482, Note Name: G#2, Velocity: 24
Note OFF: Time 40484, Note Name: C#2
Note ON: Time 40640, Note Name: C#4, Velocity: 23
Note OFF: Time 40642, Note Name: G#2
Note OFF: Time 40800, Note Name: C#4
Note ON: Time 40800, Note Name: E3, Velocity: 23
Note OFF: Time 40960, Note Name: E3
Note ON: Time 40960, Note Name: G#2, Velocity: 23
Note OFF: Time 41120, Note Name: G#2
Note ON: Time 41120, Note Name: C#2, Velocity: 23
Note OFF: Time 41280, Note Name: C#2
Note ON: Time 41280, Note Name: B1, Velocity: 26
Note OFF: Time 41440, Note Name: B1
Note ON: Time 41440, Note Name: B2, Velocity: 24
Note OFF: Time 41600, Note Name: B2
Note ON: Time 41600, Note Name: D#4, Velocity: 24
Note OFF: Time 41760, Note Name: D#4
Note ON: Time 41760, Note Name: A3, Velocity: 24
Note OFF: Time 41920, Note Name: A3
Note ON: Time 41920, Note Name: B2, Velocity: 24
Note OFF: Time 42080, Note Name: B2
Note ON: Time 42080, Note Name: B1, Velocity: 24
Note OFF: Time 42240, Note Name: B1
Note ON: Time 42240, Note Name: E2, Velocity: 30
Note OFF: Time 42400, Note Name: E2
Note ON: Time 42400, Note Name: B2, Velocity: 31
Note OFF: Time 42560, Note Name: B2
Note ON: Time 42560, Note Name: E4, Velocity: 31
Note OFF: Time 42720, Note Name: E4
Note ON: Time 42720, Note Name: G#3, Velocity: 32
Note OFF: Time 42880, Note Name: G#3
Note ON: Time 42880, Note Name: B2, Velocity: 32
Note OFF: Time 43040, Note Name: B2
Note ON: Time 43040, Note Name: D#2, Velocity: 33
Note OFF: Time 43200, Note Name: D#2
Note ON: Time 43200, Note Name: C#2, Velocity: 34
Note OFF: Time 43360, Note Name: C#2
Note ON: Time 43360, Note Name: G#2, Velocity: 34
Note OFF: Time 43520, Note Name: G#2
Note ON: Time 43520, Note Name: G#3, Velocity: 35
Note OFF: Time 43680, Note Name: G#3
Note ON: Time 43680, Note Name: C#3, Velocity: 35
Note OFF: Time 43840, Note Name: C#3
Note ON: Time 43840, Note Name: G#2, Velocity: 36
Note OFF: Time 44000, Note Name: G#2
Note ON: Time 44000, Note Name: C#2, Velocity: 36
Note OFF: Time 44160, Note Name: C#2
Note ON: Time 44160, Note Name: C#2, Velocity: 37
Note OFF: Time 44320, Note Name: C#2
Note ON: Time 44320, Note Name: G#2, Velocity: 37
Note OFF: Time 44480, Note Name: G#2
Note ON: Time 44480, Note Name: C#4, Velocity: 36
Note OFF: Time 44640, Note Name: C#4
Note ON: Time 44640, Note Name: F3, Velocity: 35
Note OFF: Time 44800, Note Name: F3
Note ON: Time 44800, Note Name: G#2, Velocity: 34
Note OFF: Time 44960, Note Name: G#2
Note ON: Time 44960, Note Name: C#2, Velocity: 33
Note OFF: Time 45120, Note Name: C#2
Note ON: Time 45120, Note Name: C#2, Velocity: 32
Note OFF: Time 45280, Note Name: C#2
Note ON: Time 45280, Note Name: A2, Velocity: 31
Note OFF: Time 45440, Note Name: A2
Note ON: Time 45440, Note Name: C#4, Velocity: 30
Note OFF: Time 45600, Note Name: C#4
Note ON: Time 45600, Note Name: F#3, Velocity: 29
Note OFF: Time 45760, Note Name: F#3
Note ON: Time 45760, Note Name: A2, Velocity: 29
Note OFF: Time 45920, Note Name: A2
Note ON: Time 45920, Note Name: C#2, Velocity: 28
Note OFF: Time 46080, Note Name: C#2
Note ON: Time 46080, Note Name: C#2, Velocity: 26
Note OFF: Time 46240, Note Name: C#2
Note ON: Time 46240, Note Name: A2, Velocity: 24
Note OFF: Time 46400, Note Name: A2
Note ON: Time 46400, Note Name: A3, Velocity: 24
Note OFF: Time 46560, Note Name: A3
Note ON: Time 46560, Note Name: D3, Velocity: 24
Note OFF: Time 46720, Note Name: D3
Note ON: Time 46720, Note Name: A2, Velocity: 24
Note OFF: Time 46880, Note Name: A2
Note ON: Time 46880, Note Name: C#2, Velocity: 24
Note OFF: Time 47040, Note Name: C#2
Note ON: Time 47040, Note Name: C#2, Velocity: 26
Note OFF: Time 47200, Note Name: C#2
Note ON: Time 47200, Note Name: A2, Velocity: 24
Note OFF: Time 47360, Note Name: A2
Note ON: Time 47360, Note Name: A3, Velocity: 24
Note OFF: Time 47520, Note Name: A3
Note ON: Time 47520, Note Name: D3, Velocity: 24
Note OFF: Time 47680, Note Name: D3
Note ON: Time 47680, Note Name: A2, Velocity: 24
Note OFF: Time 47840, Note Name: A2
Note ON: Time 47840, Note Name: C#2, Velocity: 24
Note OFF: Time 48000, Note Name: C#2
Note ON: Time 48000, Note Name: C#2, Velocity: 26
Note OFF: Time 48160, Note Name: C#2
Note ON: Time 48160, Note Name: A2, Velocity: 22
Note OFF: Time 48320, Note Name: A2
Note ON: Time 48320, Note Name: A3, Velocity: 24
Note OFF: Time 48480, Note Name: A3
Note ON: Time 48480, Note Name: D3, Velocity: 27
Note OFF: Time 48640, Note Name: D3
Note ON: Time 48640, Note Name: A2, Velocity: 23
Note OFF: Time 48800, Note Name: A2
Note ON: Time 48800, Note Name: C#2, Velocity: 23
Note OFF: Time 48960, Note Name: C#2
Note ON: Time 48960, Note Name: C#2, Velocity: 26
Note OFF: Time 49120, Note Name: C#2
Note ON: Time 49120, Note Name: A2, Velocity: 24
Note OFF: Time 49280, Note Name: A2
Note ON: Time 49280, Note Name: A3, Velocity: 24
Note OFF: Time 49440, Note Name: A3
Note ON: Time 49440, Note Name: D3, Velocity: 24
Note OFF: Time 49600, Note Name: D3
Note ON: Time 49600, Note Name: A2, Velocity: 24
Note OFF: Time 49760, Note Name: A2
Note ON: Time 49760, Note Name: C#2, Velocity: 24
Note OFF: Time 49920, Note Name: C#2
Note ON: Time 49920, Note Name: A2, Velocity: 26
Note OFF: Time 50080, Note Name: A2
Note ON: Time 50080, Note Name: D3, Velocity: 22
Note OFF: Time 50240, Note Name: D3
Note ON: Time 50240, Note Name: A3, Velocity: 24
Note OFF: Time 50400, Note Name: A3
Note ON: Time 50400, Note Name: D4, Velocity: 27
Note OFF: Time 50560, Note Name: D4
Note ON: Time 50560, Note Name: A3, Velocity: 23
Note OFF: Time 50720, Note Name: A3
Note ON: Time 50720, Note Name: D3, Velocity: 23
Note OFF: Time 50880, Note Name: D3
Note ON: Time 50880, Note Name: A2, Velocity: 26
Note OFF: Time 51040, Note Name: A2
Note ON: Time 51040, Note Name: D3, Velocity: 24
Note OFF: Time 51200, Note Name: D3
Note ON: Time 51200, Note Name: A3, Velocity: 25
Note OFF: Time 51360, Note Name: A3
Note ON: Time 51360, Note Name: D3, Velocity: 24
Note OFF: Time 51520, Note Name: D3
Note ON: Time 51520, Note Name: A2, Velocity: 24
Note OFF: Time 51680, Note Name: A2
Note ON: Time 51680, Note Name: C#2, Velocity: 24
Note OFF: Time 51840, Note Name: C#2
Note ON: Time 51840, Note Name: D3, Velocity: 26
Note OFF: Time 52000, Note Name: D3
Note ON: Time 52000, Note Name: A3, Velocity: 23
Note OFF: Time 52160, Note Name: A3
Note ON: Time 52160, Note Name: D4, Velocity: 25
Note OFF: Time 52320, Note Name: D4
Note ON: Time 52320, Note Name: F#4, Velocity: 27
Note OFF: Time 52480, Note Name: F#4
Note ON: Time 52480, Note Name: D4, Velocity: 23
Note OFF: Time 52640, Note Name: D4
Note ON: Time 52640, Note Name: A3, Velocity: 23
Note OFF: Time 52800, Note Name: A3
Note ON: Time 52800, Note Name: A2, Velocity: 26
Note OFF: Time 52960, Note Name: A2
Note ON: Time 52960, Note Name: D3, Velocity: 24
Note OFF: Time 53120, Note Name: D3
Note ON: Time 53120, Note Name: A3, Velocity: 24
Note OFF: Time 53280, Note Name: A3
Note ON: Time 53280, Note Name: D3, Velocity: 26
Note OFF: Time 53440, Note Name: D3
Note ON: Time 53440, Note Name: A2, Velocity: 24
Note OFF: Time 53600, Note Name: A2
Note ON: Time 53600, Note Name: C#2, Velocity: 24
Note OFF: Time 53760, Note Name: C#2
Note ON: Time 53760, Note Name: C2, Velocity: 31
Note ON: Time 53920, Note Name: G2, Velocity: 26
Note ON: Time 54080, Note Name: G#2, Velocity: 26
Note OFF: Time 54090, Note Name: G2
Note ON: Time 54240, Note Name: A2, Velocity: 26
Note OFF: Time 54250, Note Name: G#2
Note ON: Time 54400, Note Name: G#2, Velocity: 26
Note OFF: Time 54410, Note Name: A2
Note ON: Time 54560, Note Name: A2, Velocity: 26
Note OFF: Time 54570, Note Name: G#2
Note ON: Time 54720, Note Name: G#2, Velocity: 26
Note OFF: Time 54730, Note Name: A2
Note ON: Time 54880, Note Name: A2, Velocity: 26
Note OFF: Time 54890, Note Name: G#2
Note ON: Time 55040, Note Name: G#2, Velocity: 26
Note OFF: Time 55050, Note Name: A2
Note OFF: Time 55200, Note Name: G#2
Note OFF: Time 55200, Note Name: C2
Note ON: Time 55200, Note Name: C#2, Velocity: 30
Note ON: Time 55360, Note Name: G2, Velocity: 26
Note ON: Time 55520, Note Name: G#2, Velocity: 27
Note OFF: Time 55530, Note Name: G2
Note ON: Time 55680, Note Name: A2, Velocity: 27
Note OFF: Time 55690, Note Name: G#2
Note ON: Time 55840, Note Name: G#2, Velocity: 27
Note OFF: Time 55850, Note Name: A2
Note ON: Time 56000, Note Name: A2, Velocity: 27
Note OFF: Time 56010, Note Name: G#2
Note ON: Time 56160, Note Name: G#2, Velocity: 27
Note OFF: Time 56170, Note Name: A2
Note ON: Time 56320, Note Name: A2, Velocity: 27
Note OFF: Time 56330, Note Name: G#2
Note ON: Time 56480, Note Name: G#2, Velocity: 27
Note OFF: Time 56490, Note Name: A2
Note OFF: Time 56640, Note Name: G#2
Note OFF: Time 56640, Note Name: C#2
Note ON: Time 56640, Note Name: D#2, Velocity: 33
Note ON: Time 56800, Note Name: G2, Velocity: 33
Note ON: Time 56960, Note Name: G#2, Velocity: 29
Note OFF: Time 56970, Note Name: G2
Note ON: Time 57120, Note Name: A2, Velocity: 29
Note OFF: Time 57130, Note Name: G#2
Note ON: Time 57280, Note Name: G#2, Velocity: 29
Note OFF: Time 57290, Note Name: A2
Note ON: Time 57440, Note Name: A2, Velocity: 29
Note OFF: Time 57450, Note Name: G#2
Note ON: Time 57600, Note Name: G#2, Velocity: 30
Note OFF: Time 57610, Note Name: A2
Note ON: Time 57760, Note Name: A2, Velocity: 30
Note OFF: Time 57770, Note Name: G#2
Note ON: Time 57920, Note Name: G#2, Velocity: 29
Note OFF: Time 57930, Note Name: A2
Note OFF: Time 58080, Note Name: G#2
Note OFF: Time 58080, Note Name: D#2
Note ON: Time 58080, Note Name: E2, Velocity: 34
Note ON: Time 58240, Note Name: G2, Velocity: 30
Note ON: Time 58400, Note Name: G#2, Velocity: 30
Note OFF: Time 58410, Note Name: G2
Note ON: Time 58560, Note Name: A2, Velocity: 30
Note OFF: Time 58570, Note Name: G#2
Note ON: Time 58720, Note Name: G#2, Velocity: 30
Note OFF: Time 58730, Note Name: A2
Note ON: Time 58880, Note Name: A2, Velocity: 30
Note OFF: Time 58890, Note Name: G#2
Note ON: Time 59040, Note Name: G#2, Velocity: 30
Note OFF: Time 59050, Note Name: A2
Note ON: Time 59200, Note Name: A2, Velocity: 30
Note OFF: Time 59210, Note Name: G#2
Note ON: Time 59360, Note Name: G#2, Velocity: 30
Note OFF: Time 59370, Note Name: A2
Note OFF: Time 59520, Note Name: G#2
Note OFF: Time 59520, Note Name: E2
Note ON: Time 59520, Note Name: F2, Velocity: 45
Note ON: Time 59680, Note Name: C3, Velocity: 45
Note ON: Time 59840, Note Name: C#3, Velocity: 40
Note OFF: Time 59850, Note Name: C3
Note ON: Time 60000, Note Name: D3, Velocity: 41
Note OFF: Time 60010, Note Name: C#3
Note ON: Time 60160, Note Name: C#3, Velocity: 41
Note OFF: Time 60170, Note Name: D3
Note ON: Time 60320, Note Name: D3, Velocity: 41
Note OFF: Time 60330, Note Name: C#3
Note ON: Time 60480, Note Name: C#3, Velocity: 41
Note OFF: Time 60490, Note Name: D3
Note ON: Time 60640, Note Name: D3, Velocity: 41
Note OFF: Time 60650, Note Name: C#3
Note ON: Time 60800, Note Name: C#3, Velocity: 40
Note OFF: Time 60810, Note Name: D3
Note OFF: Time 60960, Note Name: C#3
Note OFF: Time 60960, Note Name: F2
Note ON: Time 60960, Note Name: F#2, Velocity: 46
Note ON: Time 61120, Note Name: C3, Velocity: 41
Note ON: Time 61280, Note Name: C#3, Velocity: 43
Note OFF: Time 61290, Note Name: C3
Note ON: Time 61440, Note Name: D3, Velocity: 44
Note OFF: Time 61450, Note Name: C#3
Note ON: Time 61600, Note Name: C#3, Velocity: 44
Note OFF: Time 61610, Note Name: D3
Note ON: Time 61760, Note Name: D3, Velocity: 44
Note OFF: Time 61770, Note Name: C#3
Note ON: Time 61920, Note Name: C#3, Velocity: 44
Note OFF: Time 61930, Note Name: D3
Note ON: Time 62080, Note Name: D3, Velocity: 44
Note OFF: Time 62090, Note Name: C#3
Note ON: Time 62240, Note Name: C#3, Velocity: 44
Note OFF: Time 62250, Note Name: D3
Note OFF: Time 62400, Note Name: C#3
Note OFF: Time 62400, Note Name: F#2
Note ON: Time 62400, Note Name: G#2, Velocity: 55
Note ON: Time 62560, Note Name: C3, Velocity: 55
Note ON: Time 62720, Note Name: C#3, Velocity: 49
Note OFF: Time 62730, Note Name: C3
Note ON: Time 62880, Note Name: D3, Velocity: 49
Note OFF: Time 62890, Note Name: C#3
Note ON: Time 63040, Note Name: C#3, Velocity: 50
Note OFF: Time 63050, Note Name: D3
Note ON: Time 63200, Note Name: D3, Velocity: 50
Note OFF: Time 63210, Note Name: C#3
Note ON: Time 63360, Note Name: C#3, Velocity: 50
Note OFF: Time 63370, Note Name: D3
Note ON: Time 63520, Note Name: D3, Velocity: 50
Note OFF: Time 63530, Note Name: C#3
Note ON: Time 63680, Note Name: C#3, Velocity: 50
Note OFF: Time 63690, Note Name: D3
Note OFF: Time 63840, Note Name: C#3
Note OFF: Time 63840, Note Name: G#2
Note ON: Time 63840, Note Name: A2, Velocity: 58
Note ON: Time 64000, Note Name: C3, Velocity: 51
Note ON: Time 64160, Note Name: C#3, Velocity: 52
Note OFF: Time 64170, Note Name: C3
Note ON: Time 64320, Note Name: D3, Velocity: 52
Note OFF: Time 64330, Note Name: C#3
Note ON: Time 64480, Note Name: C#3, Velocity: 52
Note OFF: Time 64490, Note Name: D3
Note ON: Time 64640, Note Name: D3, Velocity: 53
Note OFF: Time 64650, Note Name: C#3
Note ON: Time 64800, Note Name: C#3, Velocity: 54
Note OFF: Time 64810, Note Name: D3
Note ON: Time 64960, Note Name: D3, Velocity: 54
Note OFF: Time 64970, Note Name: C#3
Note ON: Time 65120, Note Name: C#3, Velocity: 54
Note OFF: Time 65130, Note Name: D3
Note OFF: Time 65280, Note Name: C#3
Note OFF: Time 65280, Note Name: A2
Note ON: Time 65280, Note Name: C2, Velocity: 65
Note ON: Time 65280, Note Name: C3, Velocity: 65
Note OFF: Time 65440, Note Name: C3
Note OFF: Time 65440, Note Name: C2
Note ON: Time 65440, Note Name: G3, Velocity: 65
Note OFF: Time 65600, Note Name: G3
Note ON: Time 65600, Note Name: G#3, Velocity: 58
Note OFF: Time 65760, Note Name: G#3
Note ON: Time 65760, Note Name: A3, Velocity: 58
Note OFF: Time 65920, Note Name: A3
Note ON: Time 65920, Note Name: G#3, Velocity: 58
Note OFF: Time 66080, Note Name: G#3
Note ON: Time 66080, Note Name: A3, Velocity: 58
Note OFF: Time 66240, Note Name: A3
Note ON: Time 66240, Note Name: G#3, Velocity: 58
Note OFF: Time 66400, Note Name: G#3
Note ON: Time 66400, Note Name: D#4, Velocity: 58
Note OFF: Time 66560, Note Name: D#4
Note ON: Time 66560, Note Name: G#3, Velocity: 56
Note OFF: Time 66720, Note Name: G#3
Note ON: Time 66720, Note Name: C#2, Velocity: 66
Note ON: Time 66720, Note Name: C#3, Velocity: 66
Note OFF: Time 66880, Note Name: C#3
Note OFF: Time 66880, Note Name: C#2
Note ON: Time 66880, Note Name: G3, Velocity: 58
Note OFF: Time 67040, Note Name: G3
Note ON: Time 67040, Note Name: G#3, Velocity: 59
Note OFF: Time 67200, Note Name: G#3
Note ON: Time 67200, Note Name: A3, Velocity: 59
Note OFF: Time 67360, Note Name: A3
Note ON: Time 67360, Note Name: G#3, Velocity: 59
Note OFF: Time 67520, Note Name: G#3
Note ON: Time 67520, Note Name: A3, Velocity: 59
Note OFF: Time 67680, Note Name: A3
Note ON: Time 67680, Note Name: G#3, Velocity: 59
Note OFF: Time 67840, Note Name: G#3
Note ON: Time 67840, Note Name: E4, Velocity: 59
Note OFF: Time 68000, Note Name: E4
Note ON: Time 68000, Note Name: G#3, Velocity: 59
Note OFF: Time 68160, Note Name: G#3
Note ON: Time 68160, Note Name: D#2, Velocity: 65
Note ON: Time 68160, Note Name: D#3, Velocity: 65
Note OFF: Time 68320, Note Name: D#3
Note OFF: Time 68320, Note Name: D#2
Note ON: Time 68320, Note Name: G3, Velocity: 65
Note OFF: Time 68480, Note Name: G3
Note ON: Time 68480, Note Name: G#3, Velocity: 58
Note OFF: Time 68640, Note Name: G#3
Note ON: Time 68640, Note Name: A3, Velocity: 58
Note OFF: Time 68800, Note Name: A3
Note ON: Time 68800, Note Name: G#3, Velocity: 58
Note OFF: Time 68960, Note Name: G#3
Note ON: Time 68960, Note Name: A3, Velocity: 58
Note OFF: Time 69120, Note Name: A3
Note ON: Time 69120, Note Name: G#3, Velocity: 58
Note OFF: Time 69280, Note Name: G#3
Note ON: Time 69280, Note Name: F#4, Velocity: 58
Note OFF: Time 69440, Note Name: F#4
Note ON: Time 69440, Note Name: G#3, Velocity: 56
Note OFF: Time 69600, Note Name: G#3
Note ON: Time 69600, Note Name: E2, Velocity: 66
Note ON: Time 69600, Note Name: E3, Velocity: 66
Note OFF: Time 69760, Note Name: E3
Note OFF: Time 69760, Note Name: E2
Note ON: Time 69760, Note Name: G3, Velocity: 58
Note OFF: Time 69920, Note Name: G3
Note ON: Time 69920, Note Name: G#3, Velocity: 59
Note OFF: Time 70080, Note Name: G#3
Note ON: Time 70080, Note Name: A3, Velocity: 59
Note OFF: Time 70240, Note Name: A3
Note ON: Time 70240, Note Name: G#3, Velocity: 59
Note OFF: Time 70400, Note Name: G#3
Note ON: Time 70400, Note Name: A3, Velocity: 59
Note OFF: Time 70560, Note Name: A3
Note ON: Time 70560, Note Name: G#3, Velocity: 59
Note OFF: Time 70720, Note Name: G#3
Note ON: Time 70720, Note Name: G#4, Velocity: 59
Note OFF: Time 70880, Note Name: G#4
Note ON: Time 70880, Note Name: G#3, Velocity: 59
Note OFF: Time 71040, Note Name: G#3
Note ON: Time 71040, Note Name: F2, Velocity: 68
Note ON: Time 71040, Note Name: F3, Velocity: 68
Note OFF: Time 71200, Note Name: F3
Note OFF: Time 71200, Note Name: F2
Note ON: Time 71200, Note Name: C4, Velocity: 68
Note OFF: Time 71360, Note Name: C4
Note ON: Time 71360, Note Name: C#4, Velocity: 59
Note OFF: Time 71520, Note Name: C#4
Note ON: Time 71520, Note Name: D4, Velocity: 59
Note OFF: Time 71680, Note Name: D4
Note ON: Time 71680, Note Name: C#4, Velocity: 60
Note OFF: Time 71840, Note Name: C#4
Note ON: Time 71840, Note Name: D4, Velocity: 60
Note OFF: Time 72000, Note Name: D4
Note ON: Time 72000, Note Name: C#4, Velocity: 60
Note OFF: Time 72160, Note Name: C#4
Note ON: Time 72160, Note Name: B4, Velocity: 60
Note OFF: Time 72320, Note Name: B4
Note ON: Time 72320, Note Name: C#4, Velocity: 59
Note OFF: Time 72480, Note Name: C#4
Note ON: Time 72480, Note Name: F#2, Velocity: 72
Note ON: Time 72480, Note Name: F#3, Velocity: 72
Note OFF: Time 72640, Note Name: F#3
Note OFF: Time 72640, Note Name: F#2
Note ON: Time 72640, Note Name: C4, Velocity: 61
Note OFF: Time 72800, Note Name: C4
Note ON: Time 72800, Note Name: C#4, Velocity: 65
Note OFF: Time 72960, Note Name: C#4
Note ON: Time 72960, Note Name: D4, Velocity: 65
Note OFF: Time 73120, Note Name: D4
Note ON: Time 73120, Note Name: C#4, Velocity: 65
Note OFF: Time 73280, Note Name: C#4
Note ON: Time 73280, Note Name: D4, Velocity: 65
Note OFF: Time 73440, Note Name: D4
Note ON: Time 73440, Note Name: C#4, Velocity: 66
Note OFF: Time 73600, Note Name: C#4
Note ON: Time 73600, Note Name: A4, Velocity: 66
Note OFF: Time 73760, Note Name: A4
Note ON: Time 73760, Note Name: C#4, Velocity: 66
Note OFF: Time 73920, Note Name: C#4
Note ON: Time 73920, Note Name: G#2, Velocity: 74
Note ON: Time 73920, Note Name: G#3, Velocity: 74
Note OFF: Time 74080, Note Name: G#3
Note OFF: Time 74080, Note Name: G#2
Note ON: Time 74080, Note Name: C4, Velocity: 74
Note OFF: Time 74240, Note Name: C4
Note ON: Time 74240, Note Name: C#4, Velocity: 66
Note OFF: Time 74400, Note Name: C#4
Note ON: Time 74400, Note Name: D4, Velocity: 66
Note OFF: Time 74560, Note Name: D4
Note ON: Time 74560, Note Name: C#4, Velocity: 68
Note OFF: Time 74720, Note Name: C#4
Note ON: Time 74720, Note Name: D4, Velocity: 68
Note OFF: Time 74880, Note Name: D4
Note ON: Time 74880, Note Name: C#4, Velocity: 69
Note OFF: Time 75040, Note Name: C#4
Note ON: Time 75040, Note Name: G#4, Velocity: 69
Note OFF: Time 75200, Note Name: G#4
Note ON: Time 75200, Note Name: C#4, Velocity: 66
Note OFF: Time 75360, Note Name: C#4
Note ON: Time 75360, Note Name: A2, Velocity: 79
Note ON: Time 75360, Note Name: A3, Velocity: 79
Note OFF: Time 75520, Note Name: A3
Note OFF: Time 75520, Note Name: A2
Note ON: Time 75520, Note Name: C4, Velocity: 70
Note OFF: Time 75680, Note Name: C4
Note ON: Time 75680, Note Name: C#4, Velocity: 71
Note OFF: Time 75840, Note Name: C#4
Note ON: Time 75840, Note Name: D4, Velocity: 71
Note OFF: Time 76000, Note Name: D4
Note ON: Time 76000, Note Name: C#4, Velocity: 72
Note OFF: Time 76160, Note Name: C#4
Note ON: Time 76160, Note Name: D4, Velocity: 72
Note OFF: Time 76320, Note Name: D4
Note ON: Time 76320, Note Name: C#4, Velocity: 72
Note OFF: Time 76480, Note Name: C#4
Note ON: Time 76480, Note Name: C#5, Velocity: 72
Note OFF: Time 76640, Note Name: C#5
Note ON: Time 76640, Note Name: C#4, Velocity: 73
Note OFF: Time 76800, Note Name: C#4
Note ON: Time 76800, Note Name: A#1, Velocity: 79
Note OFF: Time 76880, Note Name: A#1
Note ON: Time 76960, Note Name: C#3, Velocity: 69
Note OFF: Time 77040, Note Name: C#3
Note ON: Time 77120, Note Name: C#2, Velocity: 69
Note OFF: Time 77200, Note Name: C#2
Note ON: Time 77280, Note Name: E3, Velocity: 69
Note OFF: Time 77360, Note Name: E3
Note ON: Time 77460, Note Name: E2, Velocity: 69
Note OFF: Time 77540, Note Name: E2
Note ON: Time 77600, Note Name: G3, Velocity: 69
Note OFF: Time 77680, Note Name: G3
Note ON: Time 77760, Note Name: G2, Velocity: 70
Note OFF: Time 77840, Note Name: G2
Note ON: Time 77920, Note Name: A#3, Velocity: 69
Note OFF: Time 78000, Note Name: A#3
Note ON: Time 78080, Note Name: A#2, Velocity: 69
Note OFF: Time 78160, Note Name: A#2
Note ON: Time 78240, Note Name: B2, Velocity: 72
Note OFF: Time 78320, Note Name: B2
Note ON: Time 78400, Note Name: B3, Velocity: 70
Note OFF: Time 78560, Note Name: B3
Note ON: Time 78560, Note Name: G#3, Velocity: 69
Note OFF: Time 78720, Note Name: G#3
Note ON: Time 78720, Note Name: E4, Velocity: 68
Note OFF: Time 78880, Note Name: E4
Note ON: Time 78880, Note Name: B3, Velocity: 66
Note OFF: Time 79040, Note Name: B3
Note ON: Time 79040, Note Name: G#4, Velocity: 65
Note OFF: Time 79200, Note Name: G#4
Note ON: Time 79200, Note Name: E4, Velocity: 63
Note OFF: Time 79360, Note Name: E4
Note ON: Time 79360, Note Name: B3, Velocity: 60
Note OFF: Time 79520, Note Name: B3
Note ON: Time 79520, Note Name: G#3, Velocity: 59
Note OFF: Time 79680, Note Name: G#3
Note ON: Time 79680, Note Name: B1, Velocity: 60
Note OFF: Time 79760, Note Name: B1
Note ON: Time 79840, Note Name: B2, Velocity: 61
Note OFF: Time 80000, Note Name: B2
Note ON: Time 80000, Note Name: F#3, Velocity: 63
Note OFF: Time 80160, Note Name: F#3
Note ON: Time 80160, Note Name: B3, Velocity: 65
Note OFF: Time 80320, Note Name: B3
Note ON: Time 80320, Note Name: F#3, Velocity: 66
Note OFF: Time 80480, Note Name: F#3
Note ON: Time 80480, Note Name: D#4, Velocity: 67
Note OFF: Time 80640, Note Name: D#4
Note ON: Time 80640, Note Name: B3, Velocity: 68
Note OFF: Time 80800, Note Name: B3
Note ON: Time 80800, Note Name: F#3, Velocity: 69
Note OFF: Time 80960, Note Name: F#3
Note ON: Time 80960, Note Name: B2, Velocity: 70
Note OFF: Time 81120, Note Name: B2
Note ON: Time 81120, Note Name: E2, Velocity: 71
Note OFF: Time 81280, Note Name: E2
Note ON: Time 81280, Note Name: E3, Velocity: 66
Note OFF: Time 81440, Note Name: E3
Note ON: Time 81440, Note Name: B2, Velocity: 66
Note OFF: Time 81600, Note Name: B2
Note ON: Time 81600, Note Name: E2, Velocity: 74
Note OFF: Time 81760, Note Name: E2
Note ON: Time 81760, Note Name: G#3, Velocity: 68
Note OFF: Time 81920, Note Name: G#3
Note ON: Time 81920, Note Name: B2, Velocity: 70
Note OFF: Time 82080, Note Name: B2
Note ON: Time 82080, Note Name: E2, Velocity: 78
Note OFF: Time 82240, Note Name: E2
Note ON: Time 82240, Note Name: B3, Velocity: 71
Note OFF: Time 82400, Note Name: B3
Note ON: Time 82400, Note Name: B2, Velocity: 73
Note OFF: Time 82560, Note Name: B2
Note ON: Time 82560, Note Name: D#2, Velocity: 79
Note OFF: Time 82640, Note Name: D#2
Note ON: Time 82720, Note Name: D#3, Velocity: 69
Note OFF: Time 82800, Note Name: D#3
Note ON: Time 82880, Note Name: D#2, Velocity: 69
Note OFF: Time 82960, Note Name: D#2
Note ON: Time 83040, Note Name: G#3, Velocity: 69
Note OFF: Time 83120, Note Name: G#3
Note ON: Time 83200, Note Name: D#2, Velocity: 69
Note OFF: Time 83280, Note Name: D#2
Note ON: Time 83360, Note Name: C4, Velocity: 69
Note OFF: Time 83440, Note Name: C4
Note ON: Time 83520, Note Name: D#2, Velocity: 70
Note OFF: Time 83600, Note Name: D#2
Note ON: Time 83680, Note Name: D#4, Velocity: 69
Note OFF: Time 83760, Note Name: D#4
Note ON: Time 83840, Note Name: D#2, Velocity: 69
Note OFF: Time 83920, Note Name: D#2
Note ON: Time 84000, Note Name: G#4, Velocity: 72
Note OFF: Time 84080, Note Name: G#4
Note ON: Time 84160, Note Name: D#4, Velocity: 70
Note OFF: Time 84240, Note Name: D#4
Note ON: Time 84320, Note Name: C5, Velocity: 69
Note OFF: Time 84400, Note Name: C5
Note ON: Time 84480, Note Name: G#4, Velocity: 68
Note OFF: Time 84560, Note Name: G#4
Note ON: Time 84640, Note Name: D#4, Velocity: 66
Note OFF: Time 84720, Note Name: D#4
Note ON: Time 84800, Note Name: C4, Velocity: 65
Note OFF: Time 84880, Note Name: C4
Note ON: Time 84960, Note Name: G#3, Velocity: 63
Note OFF: Time 85040, Note Name: G#3
Note ON: Time 85120, Note Name: D#3, Velocity: 60
Note OFF: Time 85200, Note Name: D#3
Note ON: Time 85280, Note Name: D#2, Velocity: 59
Note OFF: Time 85440, Note Name: D#2
Note ON: Time 85440, Note Name: D#1, Velocity: 57
Note OFF: Time 85600, Note Name: D#1
Note ON: Time 85600, Note Name: D#2, Velocity: 56
Note OFF: Time 85760, Note Name: D#2
Note ON: Time 85760, Note Name: A#2, Velocity: 56
Note OFF: Time 85920, Note Name: A#2
Note ON: Time 85920, Note Name: G3, Velocity: 56
Note OFF: Time 86080, Note Name: G3
Note ON: Time 86080, Note Name: D#3, Velocity: 56
Note OFF: Time 86240, Note Name: D#3
Note ON: Time 86240, Note Name: A#2, Velocity: 55
Note OFF: Time 86400, Note Name: A#2
Note ON: Time 86400, Note Name: D#2, Velocity: 54
Note OFF: Time 86560, Note Name: D#2
Note ON: Time 86560, Note Name: D#3, Velocity: 54
Note OFF: Time 86720, Note Name: D#3
Note ON: Time 86720, Note Name: D#4, Velocity: 53
Note OFF: Time 86880, Note Name: D#4
Note ON: Time 86880, Note Name: G#1, Velocity: 52
Note OFF: Time 87040, Note Name: G#1
Note ON: Time 87040, Note Name: D#3, Velocity: 47
Note OFF: Time 87200, Note Name: D#3
Note ON: Time 87200, Note Name: G#2, Velocity: 46
Note OFF: Time 87360, Note Name: G#2
Note ON: Time 87360, Note Name: D#3, Velocity: 45
Note OFF: Time 87520, Note Name: D#3
Note ON: Time 87520, Note Name: G#2, Velocity: 44
Note OFF: Time 87680, Note Name: G#2
Note ON: Time 87680, Note Name: D#3, Velocity: 42
Note OFF: Time 87840, Note Name: D#3
Note ON: Time 87840, Note Name: G#2, Velocity: 46
Note OFF: Time 88000, Note Name: G#2
Note ON: Time 88000, Note Name: D#3, Velocity: 40
Note OFF: Time 88160, Note Name: D#3
Note ON: Time 88160, Note Name: G#2, Velocity: 39
Note OFF: Time 88320, Note Name: G#2
Note ON: Time 88320, Note Name: E3, Velocity: 52
Note OFF: Time 88480, Note Name: E3
Note ON: Time 88480, Note Name: G#2, Velocity: 35
Note OFF: Time 88640, Note Name: G#2
Note ON: Time 88640, Note Name: E3, Velocity: 35
Note OFF: Time 88800, Note Name: E3
Note ON: Time 88800, Note Name: G#2, Velocity: 35
Note OFF: Time 88960, Note Name: G#2
Note ON: Time 88960, Note Name: E3, Velocity: 35
Note OFF: Time 89120, Note Name: E3
Note ON: Time 89120, Note Name: G#2, Velocity: 35
Note OFF: Time 89280, Note Name: G#2
Note ON: Time 89280, Note Name: E3, Velocity: 36
Note OFF: Time 89440, Note Name: E3
Note ON: Time 89440, Note Name: G#2, Velocity: 36
Note OFF: Time 89600, Note Name: G#2
Note ON: Time 89600, Note Name: E3, Velocity: 36
Note OFF: Time 89760, Note Name: E3
Note ON: Time 89760, Note Name: G#2, Velocity: 44
Note OFF: Time 89920, Note Name: G#2
Note ON: Time 89920, Note Name: D#3, Velocity: 48
Note OFF: Time 90080, Note Name: D#3
Note ON: Time 90080, Note Name: G#2, Velocity: 37
Note OFF: Time 90240, Note Name: G#2
Note ON: Time 90240, Note Name: D#3, Velocity: 37
Note OFF: Time 90400, Note Name: D#3
Note ON: Time 90400, Note Name: G#2, Velocity: 37
Note OFF: Time 90560, Note Name: G#2
Note ON: Time 90560, Note Name: D#3, Velocity: 37
Note OFF: Time 90720, Note Name: D#3
Note ON: Time 90720, Note Name: G#2, Velocity: 37
Note OFF: Time 90880, Note Name: G#2
Note ON: Time 90880, Note Name: D#3, Velocity: 37
Note OFF: Time 91040, Note Name: D#3
Note ON: Time 91040, Note Name: G#2, Velocity: 38
Note OFF: Time 91200, Note Name: G#2
Note ON: Time 91200, Note Name: F3, Velocity: 56
Note OFF: Time 91360, Note Name: F3
Note ON: Time 91360, Note Name: G#2, Velocity: 38
Note OFF: Time 91520, Note Name: G#2
Note ON: Time 91520, Note Name: F3, Velocity: 38
Note OFF: Time 91680, Note Name: F3
Note ON: Time 91680, Note Name: G#2, Velocity: 38
Note OFF: Time 91840, Note Name: G#2
Note ON: Time 91840, Note Name: F3, Velocity: 39
Note OFF: Time 92000, Note Name: F3
Note ON: Time 92000, Note Name: G#2, Velocity: 39
Note OFF: Time 92160, Note Name: G#2
Note ON: Time 92160, Note Name: F3, Velocity: 39
Note OFF: Time 92320, Note Name: F3
Note ON: Time 92320, Note Name: G#2, Velocity: 39
Note OFF: Time 92480, Note Name: G#2
Note ON: Time 92480, Note Name: F3, Velocity: 39
Note OFF: Time 92640, Note Name: F3
Note ON: Time 92640, Note Name: G#2, Velocity: 48
Note OFF: Time 92800, Note Name: G#2
Note ON: Time 92800, Note Name: F#3, Velocity: 50
Note OFF: Time 92960, Note Name: F#3
Note ON: Time 92960, Note Name: G#2, Velocity: 40
Note OFF: Time 93120, Note Name: G#2
Note ON: Time 93120, Note Name: F#3, Velocity: 40
Note OFF: Time 93280, Note Name: F#3
Note ON: Time 93280, Note Name: G#2, Velocity: 40
Note OFF: Time 93440, Note Name: G#2
Note ON: Time 93440, Note Name: F#3, Velocity: 40
Note OFF: Time 93600, Note Name: F#3
Note ON: Time 93600, Note Name: G#2, Velocity: 41
Note OFF: Time 93760, Note Name: G#2
Note ON: Time 93760, Note Name: F#3, Velocity: 41
Note OFF: Time 93920, Note Name: F#3
Note ON: Time 93920, Note Name: G#2, Velocity: 41
Note OFF: Time 94080, Note Name: G#2
Note ON: Time 94080, Note Name: F3, Velocity: 55
Note OFF: Time 94240, Note Name: F3
Note ON: Time 94240, Note Name: G#2, Velocity: 42
Note OFF: Time 94400, Note Name: G#2
Note ON: Time 94400, Note Name: F3, Velocity: 42
Note OFF: Time 94560, Note Name: F3
Note ON: Time 94560, Note Name: G#2, Velocity: 42
Note OFF: Time 94720, Note Name: G#2
Note ON: Time 94720, Note Name: F3, Velocity: 42
Note OFF: Time 94880, Note Name: F3
Note ON: Time 94880, Note Name: G#2, Velocity: 42
Note OFF: Time 95040, Note Name: G#2
Note ON: Time 95040, Note Name: F3, Velocity: 43
Note OFF: Time 95200, Note Name: F3
Note ON: Time 95200, Note Name: G#2, Velocity: 43
Note OFF: Time 95360, Note Name: G#2
Note ON: Time 95360, Note Name: F3, Velocity: 43
Note OFF: Time 95520, Note Name: F3
Note ON: Time 95520, Note Name: G#2, Velocity: 46
Note OFF: Time 95680, Note Name: G#2
Note ON: Time 95680, Note Name: F#3, Velocity: 55
Note OFF: Time 95840, Note Name: F#3
Note ON: Time 95840, Note Name: G#2, Velocity: 44
Note OFF: Time 96000, Note Name: G#2
Note ON: Time 96000, Note Name: F#3, Velocity: 44
Note OFF: Time 96160, Note Name: F#3
Note ON: Time 96160, Note Name: G#2, Velocity: 44
Note OFF: Time 96320, Note Name: G#2
Note ON: Time 96320, Note Name: F#3, Velocity: 44
Note OFF: Time 96480, Note Name: F#3
Note ON: Time 96480, Note Name: G#2, Velocity: 44
Note OFF: Time 96640, Note Name: G#2
Note ON: Time 96640, Note Name: F#3, Velocity: 44
Note OFF: Time 96800, Note Name: F#3
Note ON: Time 96800, Note Name: G#2, Velocity: 45
Note OFF: Time 96960, Note Name: G#2
Note ON: Time 96960, Note Name: G3, Velocity: 59
Note OFF: Time 97120, Note Name: G3
Note ON: Time 97120, Note Name: G#2, Velocity: 45
Note OFF: Time 97280, Note Name: G#2
Note ON: Time 97280, Note Name: G3, Velocity: 45
Note OFF: Time 97440, Note Name: G3
Note ON: Time 97440, Note Name: G#2, Velocity: 45
Note OFF: Time 97600, Note Name: G#2
Note ON: Time 97600, Note Name: G3, Velocity: 46
Note OFF: Time 97760, Note Name: G3
Note ON: Time 97760, Note Name: G#2, Velocity: 46
Note OFF: Time 97920, Note Name: G#2
Note ON: Time 97920, Note Name: G3, Velocity: 46
Note OFF: Time 98080, Note Name: G3
Note ON: Time 98080, Note Name: G#2, Velocity: 46
Note OFF: Time 98240, Note Name: G#2
Note ON: Time 98240, Note Name: G3, Velocity: 46
Note OFF: Time 98400, Note Name: G3
Note ON: Time 98400, Note Name: G#2, Velocity: 51
Note OFF: Time 98560, Note Name: G#2
Note ON: Time 98560, Note Name: G#3, Velocity: 62
Note OFF: Time 98720, Note Name: G#3
Note ON: Time 98720, Note Name: G#2, Velocity: 49
Note OFF: Time 98880, Note Name: G#2
Note ON: Time 98880, Note Name: G#3, Velocity: 48
Note OFF: Time 99040, Note Name: G#3
Note ON: Time 99040, Note Name: G#2, Velocity: 48
Note OFF: Time 99200, Note Name: G#2
Note ON: Time 99200, Note Name: G#3, Velocity: 48
Note OFF: Time 99360, Note Name: G#3
Note ON: Time 99360, Note Name: G#2, Velocity: 49
Note OFF: Time 99520, Note Name: G#2
Note ON: Time 99520, Note Name: G#3, Velocity: 49
Note OFF: Time 99680, Note Name: G#3
Note ON: Time 99680, Note Name: G#2, Velocity: 49
Note OFF: Time 99840, Note Name: G#2
Note ON: Time 99840, Note Name: G3, Velocity: 67
Note OFF: Time 100000, Note Name: G3
Note ON: Time 100000, Note Name: G#2, Velocity: 50
Note OFF: Time 100160, Note Name: G#2
Note ON: Time 100160, Note Name: G3, Velocity: 50
Note OFF: Time 100320, Note Name: G3
Note ON: Time 100320, Note Name: G#2, Velocity: 50
Note OFF: Time 100480, Note Name: G#2
Note ON: Time 100480, Note Name: G3, Velocity: 50
Note OFF: Time 100640, Note Name: G3
Note ON: Time 100640, Note Name: G#2, Velocity: 50
Note OFF: Time 100800, Note Name: G#2
Note ON: Time 100800, Note Name: G3, Velocity: 51
Note OFF: Time 100960, Note Name: G3
Note ON: Time 100960, Note Name: G#2, Velocity: 51
Note OFF: Time 101120, Note Name: G#2
Note ON: Time 101120, Note Name: G3, Velocity: 51
Note OFF: Time 101280, Note Name: G3
Note ON: Time 101280, Note Name: G#2, Velocity: 58
Note OFF: Time 101440, Note Name: G#2
Note ON: Time 101440, Note Name: G#3, Velocity: 69
Note OFF: Time 101600, Note Name: G#3
Note ON: Time 101600, Note Name: G#2, Velocity: 52
Note OFF: Time 101760, Note Name: G#2
Note ON: Time 101760, Note Name: G#3, Velocity: 52
Note OFF: Time 101920, Note Name: G#3
Note ON: Time 101920, Note Name: G#2, Velocity: 52
Note OFF: Time 102080, Note Name: G#2
Note ON: Time 102080, Note Name: G#3, Velocity: 52
Note OFF: Time 102240, Note Name: G#3
Note ON: Time 102240, Note Name: G#2, Velocity: 53
Note OFF: Time 102400, Note Name: G#2
Note ON: Time 102400, Note Name: G#3, Velocity: 53
Note OFF: Time 102560, Note Name: G#3
Note ON: Time 102560, Note Name: G#2, Velocity: 54
Note OFF: Time 102720, Note Name: G#2
Note ON: Time 102720, Note Name: A3, Velocity: 64
Note OFF: Time 102880, Note Name: A3
Note ON: Time 102880, Note Name: G#2, Velocity: 60
Note OFF: Time 103040, Note Name: G#2
Note ON: Time 103040, Note Name: A3, Velocity: 60
Note OFF: Time 103200, Note Name: A3
Note ON: Time 103200, Note Name: G#2, Velocity: 60
Note OFF: Time 103360, Note Name: G#2
Note ON: Time 103360, Note Name: A3, Velocity: 61
Note OFF: Time 103520, Note Name: A3
Note ON: Time 103520, Note Name: G#2, Velocity: 61
Note OFF: Time 103680, Note Name: G#2
Note ON: Time 103680, Note Name: A3, Velocity: 61
Note OFF: Time 103840, Note Name: A3
Note ON: Time 103840, Note Name: G#2, Velocity: 61
Note OFF: Time 104000, Note Name: G#2
Note ON: Time 104000, Note Name: A3, Velocity: 62
Note OFF: Time 104160, Note Name: A3
Note ON: Time 104160, Note Name: G#2, Velocity: 56
Note ON: Time 104160, Note Name: A3, Velocity: 67
Note OFF: Time 104635, Note Name: A3
Note OFF: Time 104635, Note Name: G#2
Note ON: Time 104640, Note Name: G#2, Velocity: 58
Note ON: Time 104640, Note Name: A3, Velocity: 68
Note OFF: Time 105115, Note Name: A3
Note OFF: Time 105115, Note Name: G#2
Note ON: Time 105120, Note Name: G#2, Velocity: 60
Note ON: Time 105120, Note Name: G#3, Velocity: 71
Note OFF: Time 105600, Note Name: G#3
Note OFF: Time 105600, Note Name: G#2
Note ON: Time 105600, Note Name: C#3, Velocity: 59
Note ON: Time 105600, Note Name: G#3, Velocity: 59
Note ON: Time 105600, Note Name: C#4, Velocity: 72
Note OFF: Time 106075, Note Name: C#4
Note OFF: Time 106075, Note Name: G#3
Note OFF: Time 106075, Note Name: C#3
Note ON: Time 106080, Note Name: C#3, Velocity: 47
Note ON: Time 106080, Note Name: G#3, Velocity: 47
Note ON: Time 106080, Note Name: C#4, Velocity: 57
Note OFF: Time 106555, Note Name: C#4
Note OFF: Time 106555, Note Name: G#3
Note OFF: Time 106555, Note Name: C#3
Note ON: Time 106560, Note Name: C#3, Velocity: 47
Note ON: Time 106560, Note Name: G#3, Velocity: 47
Note ON: Time 106560, Note Name: C#4, Velocity: 57
Note OFF: Time 107035, Note Name: C#4
Note OFF: Time 107035, Note Name: G#3
Note OFF: Time 107035, Note Name: C#3
Note ON: Time 107040, Note Name: F#3, Velocity: 54
Note ON: Time 107040, Note Name: C#4, Velocity: 64
Note ON: Time 107520, Note Name: F#2, Velocity: 62
Note OFF: Time 107760, Note Name: F#2
Note ON: Time 108000, Note Name: F#1, Velocity: 62
Note OFF: Time 108240, Note Name: F#1
Note OFF: Time 108480, Note Name: C#4
Note OFF: Time 108480, Note Name: F#3
Note ON: Time 108480, Note Name: C#2, Velocity: 62
Note OFF: Time 108720, Note Name: C#2
Note ON: Time 108960, Note Name: C#3, Velocity: 46
Note ON: Time 108960, Note Name: G#3, Velocity: 46
Note ON: Time 108960, Note Name: C#4, Velocity: 55
Note OFF: Time 109080, Note Name: C#4
Note OFF: Time 109080, Note Name: G#3
Note OFF: Time 109080, Note Name: C#3
Note ON: Time 109200, Note Name: C#3, Velocity: 46
Note ON: Time 109200, Note Name: G#3, Velocity: 46
Note ON: Time 109200, Note Name: C#4, Velocity: 55
Note OFF: Time 109320, Note Name: C#4
Note OFF: Time 109320, Note Name: G#3
Note OFF: Time 109320, Note Name: C#3
Note ON: Time 109440, Note Name: C#3, Velocity: 46
Note ON: Time 109440, Note Name: G#3, Velocity: 46
Note ON: Time 109440, Note Name: C#4, Velocity: 56
Note OFF: Time 109560, Note Name: C#4
Note OFF: Time 109560, Note Name: G#3
Note OFF: Time 109560, Note Name: C#3
Note ON: Time 109680, Note Name: C#3, Velocity: 47
Note ON: Time 109680, Note Name: G#3, Velocity: 47
Note ON: Time 109680, Note Name: C#4, Velocity: 57
Note OFF: Time 109800, Note Name: C#4
Note OFF: Time 109800, Note Name: G#3
Note OFF: Time 109800, Note Name: C#3
Note ON: Time 109920, Note Name: C#3, Velocity: 49
Note ON: Time 109920, Note Name: A3, Velocity: 49
Note ON: Time 109920, Note Name: C4, Velocity: 59
Note OFF: Time 110400, Note Name: C4
Note OFF: Time 110400, Note Name: A3
Note OFF: Time 110400, Note Name: C#3
Note ON: Time 110400, Note Name: C#3, Velocity: 51
Note ON: Time 110400, Note Name: A3, Velocity: 51
Note ON: Time 110400, Note Name: C4, Velocity: 61
Note OFF: Time 110880, Note Name: C4
Note OFF: Time 110880, Note Name: A3
Note OFF: Time 110880, Note Name: C#3
Note ON: Time 110880, Note Name: C#3, Velocity: 52
Note ON: Time 110880, Note Name: G#3, Velocity: 52
Note ON: Time 110880, Note Name: C4, Velocity: 62
Note OFF: Time 111360, Note Name: C4
Note OFF: Time 111360, Note Name: G#3
Note OFF: Time 111360, Note Name: C#3
Note ON: Time 111360, Note Name: C#3, Velocity: 57
Note ON: Time 111360, Note Name: G#3, Velocity: 57
Note ON: Time 111360, Note Name: C#4, Velocity: 69
Note OFF: Time 111835, Note Name: C#4
Note OFF: Time 111835, Note Name: G#3
Note OFF: Time 111835, Note Name: C#3
Note ON: Time 111840, Note Name: C#3, Velocity: 47
Note ON: Time 111840, Note Name: G#3, Velocity: 47
Note ON: Time 111840, Note Name: C#4, Velocity: 57
Note OFF: Time 112315, Note Name: C#4
Note OFF: Time 112315, Note Name: G#3
Note OFF: Time 112315, Note Name: C#3
Note ON: Time 112320, Note Name: C#3, Velocity: 47
Note ON: Time 112320, Note Name: G#3, Velocity: 47
Note ON: Time 112320, Note Name: C#4, Velocity: 57
Note OFF: Time 112795, Note Name: C#4
Note OFF: Time 112795, Note Name: G#3
Note OFF: Time 112795, Note Name: C#3
Note ON: Time 112800, Note Name: F#3, Velocity: 54
Note ON: Time 112800, Note Name: C#4, Velocity: 64
Note ON: Time 113280, Note Name: F#2, Velocity: 62
Note OFF: Time 113520, Note Name: F#2
Note ON: Time 113760, Note Name: F#1, Velocity: 62
Note OFF: Time 114000, Note Name: F#1
Note OFF: Time 114240, Note Name: C#4
Note OFF: Time 114240, Note Name: F#3
Note ON: Time 114240, Note Name: C#2, Velocity: 62
Note OFF: Time 114480, Note Name: C#2
Note ON: Time 114720, Note Name: C#3, Velocity: 46
Note ON: Time 114720, Note Name: G#3, Velocity: 46
Note ON: Time 114720, Note Name: C#4, Velocity: 55
Note OFF: Time 114840, Note Name: C#4
Note OFF: Time 114840, Note Name: G#3
Note OFF: Time 114840, Note Name: C#3
Note ON: Time 114960, Note Name: C#3, Velocity: 46
Note ON: Time 114960, Note Name: G#3, Velocity: 46
Note ON: Time 114960, Note Name: C#4, Velocity: 55
Note OFF: Time 115080, Note Name: C#4
Note OFF: Time 115080, Note Name: G#3
Note OFF: Time 115080, Note Name: C#3
Note ON: Time 115200, Note Name: C#3, Velocity: 46
Note ON: Time 115200, Note Name: G#3, Velocity: 46
Note ON: Time 115200, Note Name: C#4, Velocity: 56
Note OFF: Time 115320, Note Name: C#4
Note OFF: Time 115320, Note Name: G#3
Note OFF: Time 115320, Note Name: C#3
Note ON: Time 115440, Note Name: C#3, Velocity: 47
Note ON: Time 115440, Note Name: G#3, Velocity: 47
Note ON: Time 115440, Note Name: C#4, Velocity: 57
Note OFF: Time 115560, Note Name: C#4
Note OFF: Time 115560, Note Name: G#3
Note OFF: Time 115560, Note Name: C#3
Note ON: Time 115680, Note Name: C#3, Velocity: 39
Note ON: Time 115680, Note Name: G3, Velocity: 49
Note OFF: Time 116160, Note Name: G3
Note OFF: Time 116160, Note Name: C#3
Note ON: Time 116160, Note Name: C3, Velocity: 41
Note ON: Time 116160, Note Name: G3, Velocity: 50
Note OFF: Time 116640, Note Name: G3
Note OFF: Time 116640, Note Name: C3
Note ON: Time 116640, Note Name: C3, Velocity: 37
Note ON: Time 116640, Note Name: G3, Velocity: 37
Note ON: Time 116640, Note Name: B3, Velocity: 45
Note OFF: Time 117120, Note Name: B3
Note OFF: Time 117120, Note Name: G3
Note OFF: Time 117120, Note Name: C3
Note ON: Time 117120, Note Name: C3, Velocity: 26
Note ON: Time 117120, Note Name: G3, Velocity: 26
Note ON: Time 117120, Note Name: C4, Velocity: 32
Note OFF: Time 117595, Note Name: C4
Note OFF: Time 117595, Note Name: G3
Note OFF: Time 117595, Note Name: C3
Note ON: Time 117600, Note Name: C3, Velocity: 22
Note ON: Time 117600, Note Name: G3, Velocity: 22
Note ON: Time 117600, Note Name: C4, Velocity: 26
Note OFF: Time 118075, Note Name: C4
Note OFF: Time 118075, Note Name: G3
Note OFF: Time 118075, Note Name: C3
Note ON: Time 118080, Note Name: C3, Velocity: 22
Note ON: Time 118080, Note Name: G3, Velocity: 22
Note ON: Time 118080, Note Name: C4, Velocity: 26
Note OFF: Time 118555, Note Name: C4
Note OFF: Time 118555, Note Name: G3
Note OFF: Time 118555, Note Name: C3
Note ON: Time 118560, Note Name: F3, Velocity: 25
Note ON: Time 118560, Note Name: C4, Velocity: 30
Note ON: Time 119040, Note Name: F2, Velocity: 28
Note OFF: Time 119280, Note Name: F2
Note ON: Time 119520, Note Name: F1, Velocity: 28
Note OFF: Time 119760, Note Name: F1
Note OFF: Time 120000, Note Name: C4
Note OFF: Time 120000, Note Name: F3
Note ON: Time 120000, Note Name: C2, Velocity: 37
Note OFF: Time 120240, Note Name: C2
Note ON: Time 120480, Note Name: C3, Velocity: 27
Note ON: Time 120480, Note Name: G3, Velocity: 27
Note ON: Time 120480, Note Name: C4, Velocity: 32
Note OFF: Time 120600, Note Name: C4
Note OFF: Time 120600, Note Name: G3
Note OFF: Time 120600, Note Name: C3
Note ON: Time 120720, Note Name: C3, Velocity: 28
Note ON: Time 120720, Note Name: G3, Velocity: 28
Note ON: Time 120720, Note Name: C4, Velocity: 33
Note OFF: Time 120840, Note Name: C4
Note OFF: Time 120840, Note Name: G3
Note OFF: Time 120840, Note Name: C3
Note ON: Time 120960, Note Name: C3, Velocity: 28
Note ON: Time 120960, Note Name: G3, Velocity: 28
Note ON: Time 120960, Note Name: C4, Velocity: 33
Note OFF: Time 121080, Note Name: C4
Note OFF: Time 121080, Note Name: G3
Note OFF: Time 121080, Note Name: C3
Note ON: Time 121200, Note Name: C3, Velocity: 29
Note ON: Time 121200, Note Name: G3, Velocity: 29
Note ON: Time 121200, Note Name: C4, Velocity: 34
Note OFF: Time 121320, Note Name: C4
Note OFF: Time 121320, Note Name: G3
Note OFF: Time 121320, Note Name: C3
Note ON: Time 121440, Note Name: C3, Velocity: 28
Note ON: Time 121440, Note Name: G#3, Velocity: 28
Note ON: Time 121440, Note Name: B3, Velocity: 35
Note OFF: Time 121920, Note Name: B3
Note OFF: Time 121920, Note Name: G#3
Note OFF: Time 121920, Note Name: C3
Note ON: Time 121920, Note Name: C3, Velocity: 30
Note ON: Time 121920, Note Name: G#3, Velocity: 30
Note ON: Time 121920, Note Name: B3, Velocity: 37
Note OFF: Time 122400, Note Name: B3
Note OFF: Time 122400, Note Name: G#3
Note OFF: Time 122400, Note Name: C3
Note ON: Time 122400, Note Name: C3, Velocity: 31
Note ON: Time 122400, Note Name: G3, Velocity: 31
Note ON: Time 122400, Note Name: B3, Velocity: 39
Note OFF: Time 122880, Note Name: B3
Note OFF: Time 122880, Note Name: G3
Note OFF: Time 122880, Note Name: C3
Note ON: Time 122880, Note Name: C3, Velocity: 36
Note ON: Time 122880, Note Name: G3, Velocity: 36
Note ON: Time 122880, Note Name: C4, Velocity: 44
Note OFF: Time 123355, Note Name: C4
Note OFF: Time 123355, Note Name: G3
Note OFF: Time 123355, Note Name: C3
Note ON: Time 123360, Note Name: C3, Velocity: 30
Note ON: Time 123360, Note Name: G3, Velocity: 30
Note ON: Time 123360, Note Name: C4, Velocity: 36
Note OFF: Time 123835, Note Name: C4
Note OFF: Time 123835, Note Name: G3
Note OFF: Time 123835, Note Name: C3
Note ON: Time 123840, Note Name: C3, Velocity: 30
Note ON: Time 123840, Note Name: G3, Velocity: 30
Note ON: Time 123840, Note Name: C4, Velocity: 36
Note OFF: Time 124315, Note Name: C4
Note OFF: Time 124315, Note Name: G3
Note OFF: Time 124315, Note Name: C3
Note ON: Time 124320, Note Name: G#3, Velocity: 36
Note ON: Time 124320, Note Name: B3, Velocity: 44
Note OFF: Time 124800, Note Name: B3
Note OFF: Time 124800, Note Name: G#3
Note ON: Time 124800, Note Name: A3, Velocity: 38
Note ON: Time 124800, Note Name: C4, Velocity: 46
Note OFF: Time 125280, Note Name: C4
Note OFF: Time 125280, Note Name: A3
Note ON: Time 125280, Note Name: B3, Velocity: 40
Note ON: Time 125280, Note Name: D4, Velocity: 49
Note OFF: Time 125760, Note Name: D4
Note OFF: Time 125760, Note Name: B3
Note ON: Time 125760, Note Name: C4, Velocity: 45
Note ON: Time 125760, Note Name: D#4, Velocity: 55
Note OFF: Time 126235, Note Name: D#4
Note OFF: Time 126235, Note Name: C4
Note ON: Time 126240, Note Name: C4, Velocity: 39
Note ON: Time 126240, Note Name: D#4, Velocity: 47
Note OFF: Time 126715, Note Name: D#4
Note OFF: Time 126715, Note Name: C4
Note ON: Time 126720, Note Name: C4, Velocity: 41
Note ON: Time 126720, Note Name: D#4, Velocity: 49
Note OFF: Time 127195, Note Name: D#4
Note OFF: Time 127195, Note Name: C4
Note ON: Time 127200, Note Name: B3, Velocity: 46
Note ON: Time 127200, Note Name: D4, Velocity: 55
Note OFF: Time 127680, Note Name: D4
Note OFF: Time 127680, Note Name: B3
Note ON: Time 127680, Note Name: C4, Velocity: 48
Note ON: Time 127680, Note Name: D#4, Velocity: 57
Note OFF: Time 128160, Note Name: D#4
Note OFF: Time 128160, Note Name: C4
Note ON: Time 128160, Note Name: D4, Velocity: 51
Note ON: Time 128160, Note Name: F4, Velocity: 60
Note OFF: Time 128640, Note Name: F4
Note OFF: Time 128640, Note Name: D4
Note ON: Time 128640, Note Name: D#4, Velocity: 48
Note ON: Time 128640, Note Name: F#4, Velocity: 57
Note OFF: Time 129115, Note Name: F#4
Note OFF: Time 129115, Note Name: D#4
Note ON: Time 129120, Note Name: D#4, Velocity: 51
Note ON: Time 129120, Note Name: F#4, Velocity: 60
Note OFF: Time 129595, Note Name: F#4
Note OFF: Time 129595, Note Name: D#4
Note ON: Time 129600, Note Name: D#4, Velocity: 53
Note ON: Time 129600, Note Name: F#4, Velocity: 63
Note OFF: Time 130075, Note Name: F#4
Note OFF: Time 130075, Note Name: D#4
Note ON: Time 130080, Note Name: D#4, Velocity: 56
Note ON: Time 130080, Note Name: F#4, Velocity: 66
Note OFF: Time 130555, Note Name: F#4
Note OFF: Time 130555, Note Name: D#4
Note ON: Time 130560, Note Name: D#4, Velocity: 58
Note ON: Time 130560, Note Name: F#4, Velocity: 69
Note OFF: Time 131035, Note Name: F#4
Note OFF: Time 131035, Note Name: D#4
Note ON: Time 131040, Note Name: C#4, Velocity: 61
Note ON: Time 131040, Note Name: F#4, Velocity: 73
Note OFF: Time 131515, Note Name: F#4
Note OFF: Time 131515, Note Name: C#4
Note ON: Time 131520, Note Name: C4, Velocity: 64
Note ON: Time 131520, Note Name: F#4, Velocity: 76
Note OFF: Time 132960, Note Name: F#4
Note OFF: Time 132960, Note Name: C4
Note ON: Time 132960, Note Name: C3, Velocity: 73
Note ON: Time 132960, Note Name: C4, Velocity: 86
Note OFF: Time 133440, Note Name: C4
Note OFF: Time 133440, Note Name: C3
Note ON: Time 133440, Note Name: C#3, Velocity: 77
Note ON: Time 133440, Note Name: C#4, Velocity: 91
Note OFF: Time 133920, Note Name: C#4
Note OFF: Time 133920, Note Name: C#3
Note ON: Time 133920, Note Name: D3, Velocity: 81
Note ON: Time 133920, Note Name: D4, Velocity: 96
Note OFF: Time 134400, Note Name: D4
Note OFF: Time 134400, Note Name: D3
Note ON: Time 134400, Note Name: E3, Velocity: 84
Note ON: Time 134400, Note Name: E4, Velocity: 99
Note OFF: Time 135120, Note Name: E4
Note OFF: Time 135120, Note Name: E3
Note ON: Time 135120, Note Name: D#3, Velocity: 79
Note ON: Time 135120, Note Name: D#4, Velocity: 94
Note OFF: Time 135360, Note Name: D#4
Note OFF: Time 135360, Note Name: D#3
Note ON: Time 135360, Note Name: C#3, Velocity: 79
Note ON: Time 135360, Note Name: C#4, Velocity: 93
Note OFF: Time 135600, Note Name: C#4
Note OFF: Time 135600, Note Name: C#3
Note ON: Time 135600, Note Name: C3, Velocity: 78
Note ON: Time 135600, Note Name: C4, Velocity: 92
Note OFF: Time 135840, Note Name: C4
Note OFF: Time 135840, Note Name: C3
Note ON: Time 135840, Note Name: A2, Velocity: 77
Note ON: Time 135840, Note Name: A3, Velocity: 91
Note OFF: Time 136080, Note Name: A3
Note OFF: Time 136080, Note Name: A2
Note ON: Time 136080, Note Name: G#2, Velocity: 77
Note ON: Time 136080, Note Name: G#3, Velocity: 91
Note OFF: Time 136320, Note Name: G#3
Note OFF: Time 136320, Note Name: G#2
Note ON: Time 136320, Note Name: G2, Velocity: 76
Note ON: Time 136320, Note Name: G3, Velocity: 90
Note OFF: Time 136560, Note Name: G3
Note OFF: Time 136560, Note Name: G2
Note ON: Time 136560, Note Name: G#2, Velocity: 71
Note ON: Time 136560, Note Name: G#3, Velocity: 84
Note OFF: Time 136800, Note Name: G#3
Note OFF: Time 136800, Note Name: G#2
Note ON: Time 136800, Note Name: B2, Velocity: 74
Note ON: Time 136800, Note Name: B3, Velocity: 88
Note OFF: Time 136920, Note Name: B3
Note OFF: Time 136920, Note Name: B2
Note ON: Time 137040, Note Name: A2, Velocity: 74
Note ON: Time 137040, Note Name: A3, Velocity: 88
Note OFF: Time 137160, Note Name: A3
Note OFF: Time 137160, Note Name: A2
Note ON: Time 137280, Note Name: G#2, Velocity: 74
Note ON: Time 137280, Note Name: G#3, Velocity: 88
Note OFF: Time 137400, Note Name: G#3
Note OFF: Time 137400, Note Name: G#2
Note ON: Time 137520, Note Name: F#2, Velocity: 73
Note ON: Time 137520, Note Name: F#3, Velocity: 87
Note OFF: Time 137640, Note Name: F#3
Note OFF: Time 137640, Note Name: F#2
Note ON: Time 137760, Note Name: E2, Velocity: 73
Note ON: Time 137760, Note Name: E3, Velocity: 87
Note OFF: Time 137880, Note Name: E3
Note OFF: Time 137880, Note Name: E2
Note ON: Time 138000, Note Name: D#2, Velocity: 73
Note ON: Time 138000, Note Name: D#3, Velocity: 87
Note OFF: Time 138120, Note Name: D#3
Note OFF: Time 138120, Note Name: D#2
Note ON: Time 138240, Note Name: C#2, Velocity: 73
Note ON: Time 138240, Note Name: C#3, Velocity: 86
Note OFF: Time 138360, Note Name: C#3
Note OFF: Time 138360, Note Name: C#2
Note ON: Time 138480, Note Name: C2, Velocity: 73
Note ON: Time 138480, Note Name: C3, Velocity: 86
Note OFF: Time 138600, Note Name: C3
Note OFF: Time 138600, Note Name: C2
Note ON: Time 138720, Note Name: D#2, Velocity: 73
Note ON: Time 138720, Note Name: D#3, Velocity: 86
Note OFF: Time 138840, Note Name: D#3
Note OFF: Time 138840, Note Name: D#2
Note ON: Time 138960, Note Name: A1, Velocity: 86
Note ON: Time 138960, Note Name: A2, Velocity: 102
Note OFF: Time 139920, Note Name: A2
Note OFF: Time 139920, Note Name: A1
Note ON: Time 139920, Note Name: G#1, Velocity: 78
Note ON: Time 139920, Note Name: G#2, Velocity: 92
Note OFF: Time 140400, Note Name: G#2
Note OFF: Time 140400, Note Name: G#1
Note ON: Time 140400, Note Name: G1, Velocity: 82
Note ON: Time 140400, Note Name: G2, Velocity: 97
Note OFF: Time 140880, Note Name: G2
Note OFF: Time 140880, Note Name: G1
Note ON: Time 140880, Note Name: G#1, Velocity: 82
Note ON: Time 140880, Note Name: G#2, Velocity: 97
Note OFF: Time 141360, Note Name: G#2
Note OFF: Time 141360, Note Name: G#1
Note ON: Time 141360, Note Name: D#1, Velocity: 83
Note ON: Time 141360, Note Name: D#2, Velocity: 98
Note OFF: Time 141840, Note Name: D#2
Note OFF: Time 141840, Note Name: D#1
Note ON: Time 141840, Note Name: F#1, Velocity: 79
Note ON: Time 141840, Note Name: F#2, Velocity: 94
Note OFF: Time 142560, Note Name: F#2
Note OFF: Time 142560, Note Name: F#1
Note ON: Time 142560, Note Name: E1, Velocity: 76
Note ON: Time 142560, Note Name: E2, Velocity: 90
Note OFF: Time 142800, Note Name: E2
Note OFF: Time 142800, Note Name: E1
Note ON: Time 142800, Note Name: C#2, Velocity: 102
Note OFF: Time 142960, Note Name: C#2
Note ON: Time 142960, Note Name: G#2, Velocity: 38
Note OFF: Time 143120, Note Name: G#2
Note ON: Time 143120, Note Name: G#3, Velocity: 39
Note OFF: Time 143280, Note Name: G#3
Note ON: Time 143280, Note Name: C#3, Velocity: 41
Note OFF: Time 143440, Note Name: C#3
Note ON: Time 143440, Note Name: G#2, Velocity: 43
Note OFF: Time 143600, Note Name: G#2
Note ON: Time 143600, Note Name: C#2, Velocity: 45
Note OFF: Time 143760, Note Name: C#2
Note ON: Time 143760, Note Name: G#2, Velocity: 47
Note OFF: Time 143920, Note Name: G#2
Note ON: Time 143920, Note Name: C#3, Velocity: 46
Note OFF: Time 144080, Note Name: C#3
Note ON: Time 144080, Note Name: G#3, Velocity: 44
Note OFF: Time 144240, Note Name: G#3
Note ON: Time 144240, Note Name: C#3, Velocity: 43
Note OFF: Time 144400, Note Name: C#3
Note ON: Time 144400, Note Name: G#2, Velocity: 42
Note OFF: Time 144560, Note Name: G#2
Note ON: Time 144560, Note Name: C#2, Velocity: 40
Note OFF: Time 144720, Note Name: C#2
Note ON: Time 144720, Note Name: G#2, Velocity: 42
Note OFF: Time 144880, Note Name: G#2
Note ON: Time 144880, Note Name: C#3, Velocity: 40
Note OFF: Time 145040, Note Name: C#3
Note ON: Time 145040, Note Name: G#3, Velocity: 38
Note OFF: Time 145200, Note Name: G#3
Note ON: Time 145200, Note Name: C#3, Velocity: 36
Note OFF: Time 145360, Note Name: C#3
Note ON: Time 145360, Note Name: G#2, Velocity: 34
Note OFF: Time 145520, Note Name: G#2
Note ON: Time 145520, Note Name: C#2, Velocity: 31
Note OFF: Time 145680, Note Name: C#2
Note ON: Time 145680, Note Name: G#2, Velocity: 30
Note OFF: Time 145840, Note Name: G#2
Note ON: Time 145840, Note Name: C#3, Velocity: 29
Note OFF: Time 146000, Note Name: C#3
Note ON: Time 146000, Note Name: G#3, Velocity: 28
Note OFF: Time 146160, Note Name: G#3
Note ON: Time 146160, Note Name: C#3, Velocity: 27
Note OFF: Time 146320, Note Name: C#3
Note ON: Time 146320, Note Name: G#2, Velocity: 26
Note OFF: Time 146480, Note Name: G#2
Note ON: Time 146480, Note Name: C#2, Velocity: 25
Note OFF: Time 146640, Note Name: C#2
Note ON: Time 146640, Note Name: G#2, Velocity: 26
Note OFF: Time 146800, Note Name: G#2
Note ON: Time 146800, Note Name: C#3, Velocity: 25
Note OFF: Time 146960, Note Name: C#3
Note ON: Time 146960, Note Name: G#3, Velocity: 26
Note OFF: Time 147120, Note Name: G#3
Note ON: Time 147120, Note Name: C#3, Velocity: 27
Note OFF: Time 147280, Note Name: C#3
Note ON: Time 147280, Note Name: G#2, Velocity: 28
Note OFF: Time 147440, Note Name: G#2
Note ON: Time 147440, Note Name: C#2, Velocity: 29
Note OFF: Time 147600, Note Name: C#2
Note ON: Time 147600, Note Name: G#2, Velocity: 28
Note OFF: Time 147760, Note Name: G#2
Note ON: Time 147760, Note Name: C#3, Velocity: 29
Note OFF: Time 147920, Note Name: C#3
Note ON: Time 147920, Note Name: B3, Velocity: 30
Note OFF: Time 148080, Note Name: B3
Note ON: Time 148080, Note Name: C#3, Velocity: 30
Note OFF: Time 148240, Note Name: C#3
Note ON: Time 148240, Note Name: G#2, Velocity: 31
Note OFF: Time 148400, Note Name: G#2
Note ON: Time 148400, Note Name: C#2, Velocity: 32
Note OFF: Time 148560, Note Name: C#2
Note ON: Time 148560, Note Name: G#2, Velocity: 33
Note OFF: Time 148720, Note Name: G#2
Note ON: Time 148720, Note Name: C#3, Velocity: 31
Note OFF: Time 148880, Note Name: C#3
Note ON: Time 148880, Note Name: B3, Velocity: 30
Note OFF: Time 149040, Note Name: B3
Note ON: Time 149040, Note Name: C#3, Velocity: 30
Note OFF: Time 149200, Note Name: C#3
Note ON: Time 149200, Note Name: G#2, Velocity: 29
Note OFF: Time 149360, Note Name: G#2
Note ON: Time 149360, Note Name: C#2, Velocity: 28
Note OFF: Time 149520, Note Name: C#2
Note ON: Time 149520, Note Name: A2, Velocity: 28
Note OFF: Time 149680, Note Name: A2
Note ON: Time 149680, Note Name: C#3, Velocity: 28
Note OFF: Time 149840, Note Name: C#3
Note ON: Time 149840, Note Name: A3, Velocity: 28
Note OFF: Time 150000, Note Name: A3
Note ON: Time 150000, Note Name: C#3, Velocity: 28
Note OFF: Time 150160, Note Name: C#3
Note ON: Time 150160, Note Name: A2, Velocity: 28
Note OFF: Time 150320, Note Name: A2
Note ON: Time 150320, Note Name: C#2, Velocity: 28
Note OFF: Time 150480, Note Name: C#2
Note ON: Time 150480, Note Name: A2, Velocity: 32
Note OFF: Time 150640, Note Name: A2
Note ON: Time 150640, Note Name: D3, Velocity: 29
Note OFF: Time 150800, Note Name: D3
Note ON: Time 150800, Note Name: A3, Velocity: 29
Note OFF: Time 150960, Note Name: A3
Note ON: Time 150960, Note Name: D3, Velocity: 28
Note OFF: Time 151120, Note Name: D3
Note ON: Time 151120, Note Name: A2, Velocity: 27
Note OFF: Time 151280, Note Name: A2
Note ON: Time 151280, Note Name: C#2, Velocity: 26
Note OFF: Time 151440, Note Name: C#2
Note ON: Time 151440, Note Name: A2, Velocity: 25
Note OFF: Time 151600, Note Name: A2
Note ON: Time 151600, Note Name: D3, Velocity: 24
Note OFF: Time 151760, Note Name: D3
Note ON: Time 151760, Note Name: A3, Velocity: 24
Note OFF: Time 151920, Note Name: A3
Note ON: Time 151920, Note Name: D3, Velocity: 24
Note OFF: Time 152080, Note Name: D3
Note ON: Time 152080, Note Name: A2, Velocity: 24
Note OFF: Time 152240, Note Name: A2
Note ON: Time 152240, Note Name: C#2, Velocity: 24
Note OFF: Time 152400, Note Name: C#2
Note ON: Time 152400, Note Name: G#2, Velocity: 26
Note OFF: Time 152560, Note Name: G#2
Note ON: Time 152560, Note Name: E3, Velocity: 24
Note OFF: Time 152720, Note Name: E3
Note ON: Time 152720, Note Name: C#4, Velocity: 23
Note OFF: Time 152880, Note Name: C#4
Note ON: Time 152880, Note Name: E3, Velocity: 23
Note OFF: Time 153040, Note Name: E3
Note ON: Time 153040, Note Name: G#2, Velocity: 23
Note OFF: Time 153200, Note Name: G#2
Note ON: Time 153200, Note Name: C#2, Velocity: 23
Note OFF: Time 153360, Note Name: C#2
Note ON: Time 153360, Note Name: B1, Velocity: 26
Note OFF: Time 153520, Note Name: B1
Note ON: Time 153520, Note Name: B2, Velocity: 24
Note OFF: Time 153680, Note Name: B2
Note ON: Time 153680, Note Name: D#4, Velocity: 24
Note OFF: Time 153840, Note Name: D#4
Note ON: Time 153840, Note Name: A3, Velocity: 24
Note OFF: Time 154000, Note Name: A3
Note ON: Time 154000, Note Name: B2, Velocity: 24
Note OFF: Time 154160, Note Name: B2
Note ON: Time 154160, Note Name: B1, Velocity: 24
Note OFF: Time 154320, Note Name: B1
Note ON: Time 154320, Note Name: E2, Velocity: 30
Note OFF: Time 154480, Note Name: E2
Note ON: Time 154480, Note Name: B2, Velocity: 31
Note OFF: Time 154640, Note Name: B2
Note ON: Time 154640, Note Name: E4, Velocity: 31
Note OFF: Time 154800, Note Name: E4
Note ON: Time 154800, Note Name: G#3, Velocity: 32
Note OFF: Time 154960, Note Name: G#3
Note ON: Time 154960, Note Name: B2, Velocity: 32
Note OFF: Time 155120, Note Name: B2
Note ON: Time 155120, Note Name: D#2, Velocity: 33
Note OFF: Time 155280, Note Name: D#2
Note ON: Time 155280, Note Name: C#2, Velocity: 34
Note OFF: Time 155440, Note Name: C#2
Note ON: Time 155440, Note Name: G#2, Velocity: 34
Note OFF: Time 155600, Note Name: G#2
Note ON: Time 155600, Note Name: G#3, Velocity: 35
Note OFF: Time 155760, Note Name: G#3
Note ON: Time 155760, Note Name: C#3, Velocity: 35
Note OFF: Time 155920, Note Name: C#3
Note ON: Time 155920, Note Name: G#2, Velocity: 36
Note OFF: Time 156080, Note Name: G#2
Note ON: Time 156080, Note Name: C#2, Velocity: 36
Note OFF: Time 156240, Note Name: C#2
Note ON: Time 156240, Note Name: C#2, Velocity: 37
Note OFF: Time 156400, Note Name: C#2
Note ON: Time 156400, Note Name: G#2, Velocity: 37
Note OFF: Time 156560, Note Name: G#2
Note ON: Time 156560, Note Name: C#4, Velocity: 36
Note OFF: Time 156720, Note Name: C#4
Note ON: Time 156720, Note Name: F3, Velocity: 35
Note OFF: Time 156880, Note Name: F3
Note ON: Time 156880, Note Name: G#2, Velocity: 34
Note OFF: Time 157040, Note Name: G#2
Note ON: Time 157040, Note Name: C#2, Velocity: 33
Note OFF: Time 157200, Note Name: C#2
Note ON: Time 157200, Note Name: C#2, Velocity: 32
Note OFF: Time 157360, Note Name: C#2
Note ON: Time 157360, Note Name: A2, Velocity: 31
Note OFF: Time 157520, Note Name: A2
Note ON: Time 157520, Note Name: C#4, Velocity: 30
Note OFF: Time 157680, Note Name: C#4
Note ON: Time 157680, Note Name: F#3, Velocity: 29
Note OFF: Time 157840, Note Name: F#3
Note ON: Time 157840, Note Name: A2, Velocity: 29
Note OFF: Time 158000, Note Name: A2
Note ON: Time 158000, Note Name: C#2, Velocity: 28
Note OFF: Time 158160, Note Name: C#2
Note ON: Time 158160, Note Name: C#2, Velocity: 26
Note OFF: Time 158320, Note Name: C#2
Note ON: Time 158320, Note Name: A2, Velocity: 24
Note OFF: Time 158480, Note Name: A2
Note ON: Time 158480, Note Name: A3, Velocity: 24
Note OFF: Time 158640, Note Name: A3
Note ON: Time 158640, Note Name: D3, Velocity: 24
Note OFF: Time 158800, Note Name: D3
Note ON: Time 158800, Note Name: A2, Velocity: 24
Note OFF: Time 158960, Note Name: A2
Note ON: Time 158960, Note Name: C#2, Velocity: 24
Note OFF: Time 159120, Note Name: C#2
Note ON: Time 159120, Note Name: C#2, Velocity: 26
Note OFF: Time 159280, Note Name: C#2
Note ON: Time 159280, Note Name: A2, Velocity: 24
Note OFF: Time 159440, Note Name: A2
Note ON: Time 159440, Note Name: A3, Velocity: 24
Note OFF: Time 159600, Note Name: A3
Note ON: Time 159600, Note Name: D3, Velocity: 24
Note OFF: Time 159760, Note Name: D3
Note ON: Time 159760, Note Name: A2, Velocity: 24
Note OFF: Time 159920, Note Name: A2
Note ON: Time 159920, Note Name: C#2, Velocity: 24
Note OFF: Time 160080, Note Name: C#2
Note ON: Time 160080, Note Name: C#2, Velocity: 31
Note OFF: Time 160240, Note Name: C#2
Note ON: Time 160240, Note Name: A2, Velocity: 26
Note OFF: Time 160400, Note Name: A2
Note ON: Time 160400, Note Name: A3, Velocity: 28
Note OFF: Time 160560, Note Name: A3
Note ON: Time 160560, Note Name: D3, Velocity: 32
Note OFF: Time 160720, Note Name: D3
Note ON: Time 160720, Note Name: A2, Velocity: 27
Note OFF: Time 160880, Note Name: A2
Note ON: Time 160880, Note Name: C#2, Velocity: 27
Note OFF: Time 161040, Note Name: C#2
Note ON: Time 161040, Note Name: C#2, Velocity: 31
Note OFF: Time 161200, Note Name: C#2
Note ON: Time 161200, Note Name: A2, Velocity: 28
Note OFF: Time 161360, Note Name: A2
Note ON: Time 161360, Note Name: A3, Velocity: 28
Note OFF: Time 161520, Note Name: A3
Note ON: Time 161520, Note Name: D3, Velocity: 28
Note OFF: Time 161680, Note Name: D3
Note ON: Time 161680, Note Name: A2, Velocity: 28
Note OFF: Time 161840, Note Name: A2
Note ON: Time 161840, Note Name: C#2, Velocity: 28
Note OFF: Time 162000, Note Name: C#2
Note ON: Time 162000, Note Name: C#2, Velocity: 35
Note OFF: Time 162160, Note Name: C#2
Note ON: Time 162160, Note Name: G#2, Velocity: 25
Note OFF: Time 162320, Note Name: G#2
Note ON: Time 162320, Note Name: C#4, Velocity: 30
Note OFF: Time 162480, Note Name: C#4
Note ON: Time 162480, Note Name: F3, Velocity: 27
Note OFF: Time 162640, Note Name: F3
Note ON: Time 162640, Note Name: G#2, Velocity: 27
Note OFF: Time 162800, Note Name: G#2
Note ON: Time 162800, Note Name: C#2, Velocity: 27
Note OFF: Time 162960, Note Name: C#2
Note ON: Time 162960, Note Name: C#2, Velocity: 31
Note OFF: Time 163120, Note Name: C#2
Note ON: Time 163120, Note Name: G#2, Velocity: 28
Note OFF: Time 163280, Note Name: G#2
Note ON: Time 163280, Note Name: C4, Velocity: 32
Note OFF: Time 163440, Note Name: C4
Note ON: Time 163440, Note Name: D#3, Velocity: 28
Note OFF: Time 163600, Note Name: D#3
Note ON: Time 163600, Note Name: G#2, Velocity: 27
Note OFF: Time 163760, Note Name: G#2
Note ON: Time 163760, Note Name: C#2, Velocity: 27
Note OFF: Time 163920, Note Name: C#2
Note ON: Time 163920, Note Name: C#2, Velocity: 37
Note OFF: Time 164080, Note Name: C#2
Note ON: Time 164080, Note Name: G#2, Velocity: 26
Note OFF: Time 164240, Note Name: G#2
Note ON: Time 164240, Note Name: A#3, Velocity: 34
Note OFF: Time 164400, Note Name: A#3
Note ON: Time 164400, Note Name: C#3, Velocity: 26
Note OFF: Time 164560, Note Name: C#3
Note ON: Time 164560, Note Name: G#2, Velocity: 26
Note OFF: Time 164720, Note Name: G#2
Note ON: Time 164720, Note Name: C#2, Velocity: 26
Note OFF: Time 164880, Note Name: C#2
Note ON: Time 164880, Note Name: C#2, Velocity: 29
Note OFF: Time 165040, Note Name: C#2
Note ON: Time 165040, Note Name: G#2, Velocity: 26
Note OFF: Time 165200, Note Name: G#2
Note ON: Time 165200, Note Name: G#3, Velocity: 33
Note OFF: Time 165360, Note Name: G#3
Note ON: Time 165360, Note Name: C3, Velocity: 26
Note OFF: Time 165520, Note Name: C3
Note ON: Time 165520, Note Name: G#2, Velocity: 26
Note OFF: Time 165680, Note Name: G#2
Note ON: Time 165680, Note Name: C#2, Velocity: 26
Note OFF: Time 165840, Note Name: C#2
Note ON: Time 165840, Note Name: C#2, Velocity: 35
Note OFF: Time 166000, Note Name: C#2
Note ON: Time 166000, Note Name: G#2, Velocity: 25
Note OFF: Time 166160, Note Name: G#2
Note ON: Time 166160, Note Name: C#4, Velocity: 30
Note OFF: Time 166320, Note Name: C#4
Note ON: Time 166320, Note Name: F3, Velocity: 25
Note OFF: Time 166480, Note Name: F3
Note ON: Time 166480, Note Name: G#2, Velocity: 25
Note OFF: Time 166640, Note Name: G#2
Note ON: Time 166640, Note Name: C#2, Velocity: 25
Note OFF: Time 166800, Note Name: C#2
Note ON: Time 166800, Note Name: C#2, Velocity: 28
Note OFF: Time 166960, Note Name: C#2
Note ON: Time 166960, Note Name: G#2, Velocity: 25
Note OFF: Time 167120, Note Name: G#2
Note ON: Time 167120, Note Name: C4, Velocity: 31
Note OFF: Time 167280, Note Name: C4
Note ON: Time 167280, Note Name: D#3, Velocity: 25
Note OFF: Time 167440, Note Name: D#3
Note ON: Time 167440, Note Name: G#2, Velocity: 25
Note OFF: Time 167600, Note Name: G#2
Note ON: Time 167600, Note Name: C#2, Velocity: 25
Note OFF: Time 167760, Note Name: C#2
Note ON: Time 167760, Note Name: C#2, Velocity: 33
Note OFF: Time 167920, Note Name: C#2
Note ON: Time 167920, Note Name: G#2, Velocity: 24
Note OFF: Time 168080, Note Name: G#2
Note ON: Time 168080, Note Name: A#3, Velocity: 29
Note OFF: Time 168240, Note Name: A#3
Note ON: Time 168240, Note Name: C#3, Velocity: 23
Note OFF: Time 168400, Note Name: C#3
Note ON: Time 168400, Note Name: G#2, Velocity: 23
Note OFF: Time 168560, Note Name: G#2
Note ON: Time 168560, Note Name: C#2, Velocity: 23
Note OFF: Time 168720, Note Name: C#2
Note ON: Time 168720, Note Name: C#2, Velocity: 26
Note OFF: Time 168880, Note Name: C#2
Note ON: Time 168880, Note Name: G#2, Velocity: 24
Note OFF: Time 169040, Note Name: G#2
Note ON: Time 169040, Note Name: G#3, Velocity: 28
Note OFF: Time 169200, Note Name: G#3
Note ON: Time 169200, Note Name: C3, Velocity: 23
Note OFF: Time 169360, Note Name: C3
Note ON: Time 169360, Note Name: G#2, Velocity: 23
Note OFF: Time 169520, Note Name: G#2
Note ON: Time 169520, Note Name: C#2, Velocity: 23
Note OFF: Time 169680, Note Name: C#2
Note ON: Time 169680, Note Name: C#2, Velocity: 31
Note OFF: Time 169840, Note Name: C#2
Note ON: Time 169840, Note Name: G#2, Velocity: 22
Note OFF: Time 170000, Note Name: G#2
Note ON: Time 170000, Note Name: G#3, Velocity: 27
Note OFF: Time 170160, Note Name: G#3
Note ON: Time 170160, Note Name: C#3, Velocity: 22
Note OFF: Time 170320, Note Name: C#3
Note ON: Time 170320, Note Name: G#2, Velocity: 22
Note OFF: Time 170480, Note Name: G#2
Note ON: Time 170480, Note Name: C#2, Velocity: 22
Note OFF: Time 170640, Note Name: C#2
Note ON: Time 170640, Note Name: G#2, Velocity: 31
Note OFF: Time 170800, Note Name: G#2
Note ON: Time 170800, Note Name: C#3, Velocity: 26
Note OFF: Time 170960, Note Name: C#3
Note ON: Time 170960, Note Name: G#3, Velocity: 28
Note OFF: Time 171120, Note Name: G#3
Note ON: Time 171120, Note Name: C#3, Velocity: 30
Note OFF: Time 171280, Note Name: C#3
Note ON: Time 171280, Note Name: G#2, Velocity: 32
Note OFF: Time 171440, Note Name: G#2
Note ON: Time 171440, Note Name: C#2, Velocity: 35
Note OFF: Time 171600, Note Name: C#2
Note ON: Time 171600, Note Name: F#2, Velocity: 42
Note OFF: Time 171760, Note Name: F#2
Note ON: Time 171760, Note Name: C#3, Velocity: 30
Note OFF: Time 171920, Note Name: C#3
Note ON: Time 171920, Note Name: C#4, Velocity: 31
Note OFF: Time 172080, Note Name: C#4
Note ON: Time 172080, Note Name: F#3, Velocity: 33
Note OFF: Time 172240, Note Name: F#3
Note ON: Time 172240, Note Name: C#3, Velocity: 35
Note OFF: Time 172400, Note Name: C#3
Note ON: Time 172400, Note Name: F#2, Velocity: 36
Note OFF: Time 172560, Note Name: F#2
Note ON: Time 172560, Note Name: F#1, Velocity: 44
Note OFF: Time 172720, Note Name: F#1
Note ON: Time 172720, Note Name: C#3, Velocity: 37
Note OFF: Time 172880, Note Name: C#3
Note ON: Time 172880, Note Name: C#4, Velocity: 37
Note OFF: Time 173040, Note Name: C#4
Note ON: Time 173040, Note Name: F#3, Velocity: 37
Note OFF: Time 173200, Note Name: F#3
Note ON: Time 173200, Note Name: C#3, Velocity: 37
Note OFF: Time 173360, Note Name: C#3
Note ON: Time 173360, Note Name: F#2, Velocity: 37
Note OFF: Time 173520, Note Name: F#2
Note ON: Time 173520, Note Name: C#1, Velocity: 55
Note OFF: Time 173600, Note Name: C#1
Note ON: Time 173680, Note Name: C#2, Velocity: 44
Note OFF: Time 173760, Note Name: C#2
Note ON: Time 173840, Note Name: G#2, Velocity: 46
Note OFF: Time 173920, Note Name: G#2
Note ON: Time 174000, Note Name: C#3, Velocity: 48
Note OFF: Time 174080, Note Name: C#3
Note ON: Time 174160, Note Name: G#3, Velocity: 50
Note OFF: Time 174240, Note Name: G#3
Note ON: Time 174320, Note Name: C#4, Velocity: 51
Note OFF: Time 174400, Note Name: C#4
Note ON: Time 174960, Note Name: G#2, Velocity: 22
Note ON: Time 174960, Note Name: C#3, Velocity: 22
Note ON: Time 174960, Note Name: F3, Velocity: 22
Note ON: Time 174960, Note Name: G#3, Velocity: 27
Note ON: Time 175440, Note Name: C#2, Velocity: 25
Note OFF: Time 177360, Note Name: C#2
Note OFF: Time 177360, Note Name: F3
Note OFF: Time 177360, Note Name: G#2
Note OFF: Time 177360, Note Name: C#3
Note OFF: Time 177360, Note Name: G#3
Track 3: Chopin:  Nocturne Op. 27 Nr. 1
Track 4: Copyright  2003 by Bernd Krueger
Track 5: http://www.piano-midi.de
Track 6: Edition: 2014-02-19
Track 7: Spur 7
