Processing chpn_op25_e1.mid...

Track 0: Chopin Etude  No. 1, Opus 25
Track 1: Piano right
Note ON: Time 1440, Note Name: D#5, Velocity: 49
Note OFF: Time 1920, Note Name: D#5
Note ON: Time 1920, Note Name: D#5, Velocity: 40
Note OFF: Time 2400, Note Name: D#5
Note ON: Time 2400, Note Name: D#5, Velocity: 44
Note OFF: Time 2880, Note Name: D#5
Note ON: Time 2880, Note Name: D#5, Velocity: 49
Note OFF: Time 3360, Note Name: D#5
Note ON: Time 3360, Note Name: D#5, Velocity: 52
Note OFF: Time 3840, Note Name: D#5
Note ON: Time 3840, Note Name: F5, Velocity: 55
Note OFF: Time 4320, Note Name: F5
Note ON: Time 4320, Note Name: D#5, Velocity: 52
Note OFF: Time 4800, Note Name: D#5
Note ON: Time 4800, Note Name: D#5, Velocity: 50
Note OFF: Time 5280, Note Name: D#5
Note ON: Time 5280, Note Name: D#5, Velocity: 51
Note OFF: Time 5760, Note Name: D#5
Note ON: Time 5760, Note Name: D#5, Velocity: 55
Note OFF: Time 6240, Note Name: D#5
Note ON: Time 6240, Note Name: D#5, Velocity: 60
Note OFF: Time 6720, Note Name: D#5
Note ON: Time 6720, Note Name: F5, Velocity: 62
Note OFF: Time 7200, Note Name: F5
Note ON: Time 7200, Note Name: D#5, Velocity: 61
Note OFF: Time 7680, Note Name: D#5
Note ON: Time 7680, Note Name: A#5, Velocity: 66
Note OFF: Time 8160, Note Name: A#5
Note ON: Time 8160, Note Name: G#5, Velocity: 64
Note OFF: Time 8640, Note Name: G#5
Note ON: Time 8640, Note Name: G#5, Velocity: 70
Note OFF: Time 9120, Note Name: G#5
Note ON: Time 9120, Note Name: G#5, Velocity: 69
Note OFF: Time 9600, Note Name: G#5
Note ON: Time 9600, Note Name: G#5, Velocity: 73
Note OFF: Time 10080, Note Name: G#5
Note ON: Time 10080, Note Name: G#5, Velocity: 70
Note OFF: Time 10560, Note Name: G#5
Note ON: Time 10560, Note Name: G#5, Velocity: 77
Note OFF: Time 11040, Note Name: G#5
Note ON: Time 11040, Note Name: A#5, Velocity: 77
Note OFF: Time 11520, Note Name: A#5
Note ON: Time 11520, Note Name: C6, Velocity: 80
Note OFF: Time 12000, Note Name: C6
Note ON: Time 12000, Note Name: A#5, Velocity: 77
Note OFF: Time 12480, Note Name: A#5
Note ON: Time 12480, Note Name: G#5, Velocity: 77
Note OFF: Time 12960, Note Name: G#5
Note ON: Time 12960, Note Name: F5, Velocity: 70
Note OFF: Time 13440, Note Name: F5
Note ON: Time 13440, Note Name: F5, Velocity: 72
Note OFF: Time 13920, Note Name: F5
Note ON: Time 13920, Note Name: G5, Velocity: 72
Note OFF: Time 14400, Note Name: G5
Note ON: Time 14400, Note Name: G#5, Velocity: 75
Note OFF: Time 14880, Note Name: G#5
Note ON: Time 14890, Note Name: A#4, Velocity: 68
Note OFF: Time 15360, Note Name: A#4
Note ON: Time 15360, Note Name: A#4, Velocity: 70
Note OFF: Time 15840, Note Name: A#4
Note ON: Time 15840, Note Name: C5, Velocity: 62
Note OFF: Time 16320, Note Name: C5
Note ON: Time 16320, Note Name: C#5, Velocity: 63
Note OFF: Time 16800, Note Name: C#5
Note ON: Time 16800, Note Name: D#4, Velocity: 55
Note OFF: Time 17280, Note Name: D#4
Note ON: Time 17280, Note Name: D#5, Velocity: 51
Note OFF: Time 17760, Note Name: D#5
Note ON: Time 17760, Note Name: D#5, Velocity: 44
Note OFF: Time 18240, Note Name: D#5
Note ON: Time 18240, Note Name: D#5, Velocity: 49
Note OFF: Time 18720, Note Name: D#5
Note ON: Time 18720, Note Name: D#5, Velocity: 52
Note OFF: Time 19200, Note Name: D#5
Note ON: Time 19200, Note Name: F5, Velocity: 55
Note OFF: Time 19680, Note Name: F5
Note ON: Time 19680, Note Name: D#5, Velocity: 52
Note OFF: Time 20160, Note Name: D#5
Note ON: Time 20160, Note Name: D#5, Velocity: 50
Note OFF: Time 20640, Note Name: D#5
Note ON: Time 20640, Note Name: D#5, Velocity: 51
Note OFF: Time 21120, Note Name: D#5
Note ON: Time 21120, Note Name: D#5, Velocity: 59
Note OFF: Time 21600, Note Name: D#5
Note ON: Time 21600, Note Name: A#5, Velocity: 68
Note OFF: Time 22080, Note Name: A#5
Note ON: Time 22080, Note Name: C6, Velocity: 71
Note OFF: Time 22560, Note Name: C6
Note ON: Time 22560, Note Name: G5, Velocity: 66
Note OFF: Time 23040, Note Name: G5
Note ON: Time 23040, Note Name: A#5, Velocity: 72
Note OFF: Time 23520, Note Name: A#5
Note ON: Time 23520, Note Name: G#5, Velocity: 71
Note OFF: Time 24000, Note Name: G#5
Note ON: Time 24000, Note Name: G#5, Velocity: 80
Note OFF: Time 24480, Note Name: G#5
Note ON: Time 24480, Note Name: G#5, Velocity: 82
Note OFF: Time 24960, Note Name: G#5
Note ON: Time 24960, Note Name: G#5, Velocity: 80
Note OFF: Time 25440, Note Name: G#5
Note ON: Time 25440, Note Name: G#5, Velocity: 81
Note OFF: Time 25920, Note Name: G#5
Note ON: Time 25920, Note Name: G#5, Velocity: 84
Note OFF: Time 26400, Note Name: G#5
Note ON: Time 26400, Note Name: A#5, Velocity: 84
Note OFF: Time 26880, Note Name: A#5
Note ON: Time 26880, Note Name: C6, Velocity: 88
Note OFF: Time 27360, Note Name: C6
Note ON: Time 27360, Note Name: G5, Velocity: 82
Note OFF: Time 27840, Note Name: G5
Note ON: Time 27840, Note Name: G5, Velocity: 80
Note OFF: Time 28320, Note Name: G5
Note ON: Time 28320, Note Name: G5, Velocity: 71
Note OFF: Time 28800, Note Name: G5
Note ON: Time 28800, Note Name: G5, Velocity: 64
Note OFF: Time 29280, Note Name: G5
Note ON: Time 29280, Note Name: G5, Velocity: 66
Note OFF: Time 29760, Note Name: G5
Note ON: Time 29760, Note Name: G5, Velocity: 68
Note OFF: Time 30240, Note Name: G5
Note ON: Time 30240, Note Name: G5, Velocity: 60
Note OFF: Time 30720, Note Name: G5
Note ON: Time 30720, Note Name: D5, Velocity: 53
Note OFF: Time 31200, Note Name: D5
Note ON: Time 31200, Note Name: C5, Velocity: 52
Note OFF: Time 31680, Note Name: C5
Note ON: Time 31680, Note Name: C5, Velocity: 53
Note OFF: Time 32160, Note Name: C5
Note ON: Time 32160, Note Name: C5, Velocity: 47
Note OFF: Time 32640, Note Name: C5
Note ON: Time 32640, Note Name: C5, Velocity: 49
Note OFF: Time 33120, Note Name: C5
Note ON: Time 33120, Note Name: C5, Velocity: 44
Note OFF: Time 33600, Note Name: C5
Note ON: Time 33600, Note Name: C#5, Velocity: 51
Note OFF: Time 34080, Note Name: C#5
Note ON: Time 34080, Note Name: C5, Velocity: 49
Note OFF: Time 34560, Note Name: C5
Note ON: Time 34560, Note Name: C5, Velocity: 52
Note OFF: Time 35040, Note Name: C5
Note ON: Time 35040, Note Name: D5, Velocity: 55
Note OFF: Time 35520, Note Name: D5
Note ON: Time 35520, Note Name: E5, Velocity: 58
Note OFF: Time 36000, Note Name: E5
Note ON: Time 36000, Note Name: F5, Velocity: 60
Note OFF: Time 36480, Note Name: F5
Note ON: Time 36480, Note Name: D#5, Velocity: 59
Note OFF: Time 36960, Note Name: D#5
Note ON: Time 36960, Note Name: D#5, Velocity: 67
Note OFF: Time 37440, Note Name: D#5
Note ON: Time 37440, Note Name: F5, Velocity: 70
Note OFF: Time 37920, Note Name: F5
Note ON: Time 37920, Note Name: D#5, Velocity: 66
Note OFF: Time 38400, Note Name: D#5
Note ON: Time 38400, Note Name: D#5, Velocity: 72
Note OFF: Time 38880, Note Name: D#5
Note ON: Time 38880, Note Name: F5, Velocity: 75
Note OFF: Time 39360, Note Name: F5
Note ON: Time 39360, Note Name: G5, Velocity: 80
Note OFF: Time 39840, Note Name: G5
Note ON: Time 39840, Note Name: G#5, Velocity: 82
Note OFF: Time 40320, Note Name: G#5
Note ON: Time 40320, Note Name: G5, Velocity: 80
Note OFF: Time 40800, Note Name: G5
Note ON: Time 40800, Note Name: G5, Velocity: 81
Note OFF: Time 41280, Note Name: G5
Note ON: Time 41280, Note Name: G#5, Velocity: 84
Note OFF: Time 41760, Note Name: G#5
Note ON: Time 41760, Note Name: F5, Velocity: 75
Note OFF: Time 42240, Note Name: F5
Note ON: Time 42240, Note Name: E5, Velocity: 64
Note OFF: Time 42720, Note Name: E5
Note ON: Time 42720, Note Name: D5, Velocity: 58
Note OFF: Time 43200, Note Name: D5
Note ON: Time 43200, Note Name: F5, Velocity: 61
Note OFF: Time 43680, Note Name: F5
Note ON: Time 43680, Note Name: E5, Velocity: 57
Note OFF: Time 44160, Note Name: E5
Note ON: Time 44160, Note Name: E5, Velocity: 64
Note OFF: Time 44640, Note Name: E5
Note ON: Time 44640, Note Name: D5, Velocity: 58
Note OFF: Time 45120, Note Name: D5
Note ON: Time 45120, Note Name: F5, Velocity: 61
Note OFF: Time 45600, Note Name: F5
Note ON: Time 45600, Note Name: E5, Velocity: 57
Note OFF: Time 46080, Note Name: E5
Note ON: Time 46080, Note Name: E5, Velocity: 67
Note OFF: Time 46560, Note Name: E5
Note ON: Time 46560, Note Name: D5, Velocity: 62
Note OFF: Time 47040, Note Name: D5
Note ON: Time 47040, Note Name: F#5, Velocity: 69
Note OFF: Time 47520, Note Name: F#5
Note ON: Time 47520, Note Name: E5, Velocity: 67
Note OFF: Time 48000, Note Name: E5
Note ON: Time 48000, Note Name: E5, Velocity: 72
Note OFF: Time 48480, Note Name: E5
Note ON: Time 48480, Note Name: A5, Velocity: 74
Note OFF: Time 48960, Note Name: A5
Note ON: Time 48960, Note Name: B5, Velocity: 82
Note OFF: Time 49440, Note Name: B5
Note ON: Time 49440, Note Name: C6, Velocity: 79
Note OFF: Time 49920, Note Name: C6
Note ON: Time 49920, Note Name: C6, Velocity: 84
Note OFF: Time 50400, Note Name: C6
Note ON: Time 50400, Note Name: A#5, Velocity: 82
Note OFF: Time 50880, Note Name: A#5
Note ON: Time 50880, Note Name: C#6, Velocity: 86
Note OFF: Time 51360, Note Name: C#6
Note ON: Time 51360, Note Name: F5, Velocity: 79
Note OFF: Time 51840, Note Name: F5
Note ON: Time 51840, Note Name: A#5, Velocity: 84
Note OFF: Time 52320, Note Name: A#5
Note ON: Time 52320, Note Name: G#5, Velocity: 81
Note OFF: Time 52800, Note Name: G#5
Note ON: Time 52800, Note Name: C6, Velocity: 82
Note OFF: Time 53280, Note Name: C6
Note ON: Time 53280, Note Name: D#5, Velocity: 79
Note OFF: Time 53760, Note Name: D#5
Note ON: Time 53760, Note Name: D#5, Velocity: 84
Note OFF: Time 54240, Note Name: D#5
Note ON: Time 54240, Note Name: E5, Velocity: 81
Note OFF: Time 54720, Note Name: E5
Note ON: Time 54720, Note Name: F5, Velocity: 82
Note OFF: Time 55200, Note Name: F5
Note ON: Time 55200, Note Name: D#5, Velocity: 79
Note OFF: Time 55680, Note Name: D#5
Note ON: Time 55680, Note Name: C#5, Velocity: 84
Note OFF: Time 56160, Note Name: C#5
Note ON: Time 56160, Note Name: C5, Velocity: 77
Note OFF: Time 56640, Note Name: C5
Note ON: Time 56640, Note Name: C5, Velocity: 75
Note OFF: Time 57120, Note Name: C5
Note ON: Time 57120, Note Name: C6, Velocity: 82
Note OFF: Time 57600, Note Name: C6
Note ON: Time 57600, Note Name: C6, Velocity: 84
Note OFF: Time 58080, Note Name: C6
Note ON: Time 58080, Note Name: A#5, Velocity: 82
Note OFF: Time 58560, Note Name: A#5
Note ON: Time 58560, Note Name: C#6, Velocity: 86
Note OFF: Time 59040, Note Name: C#6
Note ON: Time 59040, Note Name: E5, Velocity: 79
Note OFF: Time 59520, Note Name: E5
Note ON: Time 59520, Note Name: A#5, Velocity: 74
Note OFF: Time 60000, Note Name: A#5
Note ON: Time 60000, Note Name: G#5, Velocity: 78
Note OFF: Time 60480, Note Name: G#5
Note ON: Time 60480, Note Name: C6, Velocity: 82
Note OFF: Time 60960, Note Name: C6
Note ON: Time 60960, Note Name: D#5, Velocity: 79
Note OFF: Time 61440, Note Name: D#5
Note ON: Time 61440, Note Name: D#5, Velocity: 69
Note OFF: Time 61920, Note Name: D#5
Note ON: Time 61920, Note Name: F5, Velocity: 64
Note OFF: Time 62400, Note Name: F5
Note ON: Time 62400, Note Name: F#5, Velocity: 73
Note OFF: Time 62880, Note Name: F#5
Note ON: Time 62880, Note Name: F5, Velocity: 69
Note OFF: Time 63360, Note Name: F5
Note ON: Time 63360, Note Name: F5, Velocity: 78
Note OFF: Time 63840, Note Name: F5
Note ON: Time 63840, Note Name: G5, Velocity: 79
Note OFF: Time 64320, Note Name: G5
Note ON: Time 64320, Note Name: G#5, Velocity: 82
Note OFF: Time 64800, Note Name: G#5
Note ON: Time 64800, Note Name: G5, Velocity: 78
Note OFF: Time 65280, Note Name: G5
Note ON: Time 65280, Note Name: G5, Velocity: 85
Note OFF: Time 65760, Note Name: G5
Note ON: Time 65760, Note Name: G#5, Velocity: 89
Note OFF: Time 66240, Note Name: G#5
Note ON: Time 66240, Note Name: A5, Velocity: 89
Note OFF: Time 66720, Note Name: A5
Note ON: Time 66720, Note Name: F#6, Velocity: 93
Note OFF: Time 67200, Note Name: F#6
Note ON: Time 67200, Note Name: F6, Velocity: 94
Note OFF: Time 67680, Note Name: F6
Note ON: Time 67680, Note Name: A#5, Velocity: 84
Note OFF: Time 68160, Note Name: A#5
Note ON: Time 68160, Note Name: C#6, Velocity: 86
Note OFF: Time 68640, Note Name: C#6
Note ON: Time 68640, Note Name: G5, Velocity: 79
Note OFF: Time 69120, Note Name: G5
Note ON: Time 69120, Note Name: G#5, Velocity: 81
Note OFF: Time 69600, Note Name: G#5
Note ON: Time 69600, Note Name: D#5, Velocity: 61
Note OFF: Time 70080, Note Name: D#5
Note ON: Time 70080, Note Name: D#5, Velocity: 64
Note OFF: Time 70560, Note Name: D#5
Note ON: Time 70560, Note Name: D#5, Velocity: 69
Note OFF: Time 71040, Note Name: D#5
Note ON: Time 71040, Note Name: F5, Velocity: 77
Note OFF: Time 71520, Note Name: F5
Note ON: Time 71520, Note Name: D#5, Velocity: 68
Note OFF: Time 72000, Note Name: D#5
Note ON: Time 72000, Note Name: C6, Velocity: 73
Note OFF: Time 72480, Note Name: C6
Note ON: Time 72480, Note Name: G5, Velocity: 69
Note OFF: Time 72960, Note Name: G5
Note ON: Time 72960, Note Name: G#5, Velocity: 72
Note OFF: Time 73440, Note Name: G#5
Note ON: Time 73440, Note Name: D#5, Velocity: 61
Note OFF: Time 73920, Note Name: D#5
Note ON: Time 73920, Note Name: D#5, Velocity: 64
Note OFF: Time 74400, Note Name: D#5
Note ON: Time 74400, Note Name: D#5, Velocity: 69
Note OFF: Time 74880, Note Name: D#5
Note ON: Time 74880, Note Name: F5, Velocity: 75
Note OFF: Time 75360, Note Name: F5
Note ON: Time 75360, Note Name: D#5, Velocity: 61
Note OFF: Time 75840, Note Name: D#5
Note ON: Time 75840, Note Name: F6, Velocity: 66
Note OFF: Time 76320, Note Name: F6
Note ON: Time 76320, Note Name: G5, Velocity: 61
Note OFF: Time 76800, Note Name: G5
Note ON: Time 76800, Note Name: G#5, Velocity: 64
Note OFF: Time 77280, Note Name: G#5
Note ON: Time 77280, Note Name: D#5, Velocity: 55
Note OFF: Time 77760, Note Name: D#5
Note ON: Time 77760, Note Name: F5, Velocity: 55
Note OFF: Time 78240, Note Name: F5
Note ON: Time 78240, Note Name: D#5, Velocity: 56
Note OFF: Time 78720, Note Name: D#5
Note ON: Time 78720, Note Name: C#5, Velocity: 60
Note OFF: Time 79200, Note Name: C#5
Note ON: Time 79200, Note Name: C5, Velocity: 51
Note OFF: Time 79680, Note Name: C5
Note ON: Time 79680, Note Name: C#5, Velocity: 57
Note OFF: Time 80160, Note Name: C#5
Note ON: Time 80160, Note Name: C5, Velocity: 51
Note OFF: Time 80640, Note Name: C5
Note ON: Time 80640, Note Name: A#4, Velocity: 61
Note OFF: Time 81120, Note Name: A#4
Note ON: Time 81120, Note Name: G#4, Velocity: 49
Note OFF: Time 81600, Note Name: G#4
Note ON: Time 81600, Note Name: A#4, Velocity: 52
Note OFF: Time 82080, Note Name: A#4
Note ON: Time 82080, Note Name: G#4, Velocity: 49
Note OFF: Time 82560, Note Name: G#4
Note ON: Time 82560, Note Name: A#4, Velocity: 55
Note OFF: Time 83040, Note Name: A#4
Note ON: Time 83040, Note Name: G#4, Velocity: 40
Note OFF: Time 83520, Note Name: G#4
Note ON: Time 83520, Note Name: A#4, Velocity: 50
Note OFF: Time 84000, Note Name: A#4
Note ON: Time 84000, Note Name: G#4, Velocity: 42
Note OFF: Time 84480, Note Name: G#4
Note ON: Time 92160, Note Name: G#4, Velocity: 39
Note OFF: Time 92400, Note Name: G#4
Note ON: Time 92640, Note Name: G#6, Velocity: 41
Note ON: Time 92640, Note Name: G#5, Velocity: 41
Note OFF: Time 92880, Note Name: G#5
Note OFF: Time 92880, Note Name: G#6
Note ON: Time 93600, Note Name: C5, Velocity: 26
Note ON: Time 93600, Note Name: D#4, Velocity: 26
Note OFF: Time 94080, Note Name: D#4
Note OFF: Time 94080, Note Name: C5
Note ON: Time 94440, Note Name: C4, Velocity: 33
Note ON: Time 94560, Note Name: G#4, Velocity: 37
Note OFF: Time 96000, Note Name: G#4
Note OFF: Time 96000, Note Name: C4
Track 2: Piano right 2
Note ON: Time 2000, Note Name: G#4, Velocity: 22
Note OFF: Time 2080, Note Name: G#4
Note ON: Time 2080, Note Name: C5, Velocity: 22
Note OFF: Time 2160, Note Name: C5
Note ON: Time 2160, Note Name: D#4, Velocity: 22
Note OFF: Time 2240, Note Name: D#4
Note ON: Time 2240, Note Name: G#4, Velocity: 22
Note OFF: Time 2320, Note Name: G#4
Note ON: Time 2320, Note Name: C5, Velocity: 23
Note OFF: Time 2400, Note Name: C5
Note ON: Time 2480, Note Name: G#4, Velocity: 23
Note OFF: Time 2560, Note Name: G#4
Note ON: Time 2560, Note Name: C5, Velocity: 24
Note OFF: Time 2640, Note Name: C5
Note ON: Time 2640, Note Name: D#4, Velocity: 24
Note OFF: Time 2720, Note Name: D#4
Note ON: Time 2720, Note Name: G#4, Velocity: 24
Note OFF: Time 2800, Note Name: G#4
Note ON: Time 2800, Note Name: C5, Velocity: 24
Note OFF: Time 2880, Note Name: C5
Note ON: Time 2960, Note Name: G#4, Velocity: 26
Note OFF: Time 3040, Note Name: G#4
Note ON: Time 3040, Note Name: C5, Velocity: 26
Note OFF: Time 3120, Note Name: C5
Note ON: Time 3120, Note Name: D#4, Velocity: 26
Note OFF: Time 3200, Note Name: D#4
Note ON: Time 3200, Note Name: G#4, Velocity: 27
Note OFF: Time 3280, Note Name: G#4
Note ON: Time 3280, Note Name: C5, Velocity: 27
Note OFF: Time 3360, Note Name: C5
Note ON: Time 3440, Note Name: G#4, Velocity: 27
Note OFF: Time 3520, Note Name: G#4
Note ON: Time 3520, Note Name: C5, Velocity: 28
Note OFF: Time 3600, Note Name: C5
Note ON: Time 3600, Note Name: D#4, Velocity: 28
Note OFF: Time 3680, Note Name: D#4
Note ON: Time 3680, Note Name: G#4, Velocity: 28
Note OFF: Time 3760, Note Name: G#4
Note ON: Time 3760, Note Name: C5, Velocity: 28
Note OFF: Time 3840, Note Name: C5
Note ON: Time 3920, Note Name: G#4, Velocity: 30
Note OFF: Time 4000, Note Name: G#4
Note ON: Time 4000, Note Name: C5, Velocity: 29
Note OFF: Time 4080, Note Name: C5
Note ON: Time 4080, Note Name: D#4, Velocity: 29
Note OFF: Time 4160, Note Name: D#4
Note ON: Time 4160, Note Name: G#4, Velocity: 29
Note OFF: Time 4240, Note Name: G#4
Note ON: Time 4240, Note Name: C5, Velocity: 29
Note OFF: Time 4320, Note Name: C5
Note ON: Time 4400, Note Name: G#4, Velocity: 29
Note OFF: Time 4480, Note Name: G#4
Note ON: Time 4480, Note Name: C5, Velocity: 29
Note OFF: Time 4560, Note Name: C5
Note ON: Time 4560, Note Name: D#4, Velocity: 29
Note OFF: Time 4640, Note Name: D#4
Note ON: Time 4640, Note Name: G#4, Velocity: 28
Note OFF: Time 4720, Note Name: G#4
Note ON: Time 4720, Note Name: C5, Velocity: 28
Note OFF: Time 4800, Note Name: C5
Note ON: Time 4880, Note Name: G#4, Velocity: 27
Note OFF: Time 4960, Note Name: G#4
Note ON: Time 4960, Note Name: C5, Velocity: 27
Note OFF: Time 5040, Note Name: C5
Note ON: Time 5040, Note Name: D#4, Velocity: 27
Note OFF: Time 5120, Note Name: D#4
Note ON: Time 5120, Note Name: G#4, Velocity: 27
Note OFF: Time 5200, Note Name: G#4
Note ON: Time 5200, Note Name: C5, Velocity: 27
Note OFF: Time 5280, Note Name: C5
Note ON: Time 5360, Note Name: G#4, Velocity: 26
Note OFF: Time 5440, Note Name: G#4
Note ON: Time 5440, Note Name: C5, Velocity: 26
Note OFF: Time 5520, Note Name: C5
Note ON: Time 5520, Note Name: D#4, Velocity: 26
Note OFF: Time 5600, Note Name: D#4
Note ON: Time 5600, Note Name: G#4, Velocity: 26
Note OFF: Time 5680, Note Name: G#4
Note ON: Time 5680, Note Name: C5, Velocity: 26
Note OFF: Time 5760, Note Name: C5
Note ON: Time 5840, Note Name: A#4, Velocity: 27
Note OFF: Time 5920, Note Name: A#4
Note ON: Time 5920, Note Name: C#5, Velocity: 27
Note OFF: Time 6000, Note Name: C#5
Note ON: Time 6000, Note Name: D#4, Velocity: 28
Note OFF: Time 6080, Note Name: D#4
Note ON: Time 6080, Note Name: A#4, Velocity: 29
Note OFF: Time 6160, Note Name: A#4
Note ON: Time 6160, Note Name: C#5, Velocity: 29
Note OFF: Time 6240, Note Name: C#5
Note ON: Time 6320, Note Name: A#4, Velocity: 30
Note OFF: Time 6400, Note Name: A#4
Note ON: Time 6400, Note Name: C#5, Velocity: 30
Note OFF: Time 6480, Note Name: C#5
Note ON: Time 6480, Note Name: D#4, Velocity: 31
Note OFF: Time 6560, Note Name: D#4
Note ON: Time 6560, Note Name: A#4, Velocity: 33
Note OFF: Time 6640, Note Name: A#4
Note ON: Time 6640, Note Name: C#5, Velocity: 33
Note OFF: Time 6720, Note Name: C#5
Note ON: Time 6800, Note Name: A#4, Velocity: 34
Note OFF: Time 6880, Note Name: A#4
Note ON: Time 6880, Note Name: C#5, Velocity: 35
Note OFF: Time 6960, Note Name: C#5
Note ON: Time 6960, Note Name: D#4, Velocity: 36
Note OFF: Time 7040, Note Name: D#4
Note ON: Time 7040, Note Name: A#4, Velocity: 36
Note OFF: Time 7120, Note Name: A#4
Note ON: Time 7120, Note Name: C#5, Velocity: 37
Note OFF: Time 7200, Note Name: C#5
Note ON: Time 7280, Note Name: A#4, Velocity: 37
Note OFF: Time 7360, Note Name: A#4
Note ON: Time 7360, Note Name: C#5, Velocity: 37
Note OFF: Time 7440, Note Name: C#5
Note ON: Time 7440, Note Name: D#4, Velocity: 37
Note OFF: Time 7520, Note Name: D#4
Note ON: Time 7520, Note Name: A#4, Velocity: 36
Note OFF: Time 7600, Note Name: A#4
Note ON: Time 7600, Note Name: C#5, Velocity: 34
Note OFF: Time 7680, Note Name: C#5
Note ON: Time 7760, Note Name: C5, Velocity: 41
Note OFF: Time 7840, Note Name: C5
Note ON: Time 7840, Note Name: D#5, Velocity: 40
Note OFF: Time 7920, Note Name: D#5
Note ON: Time 7920, Note Name: D#4, Velocity: 40
Note OFF: Time 8000, Note Name: D#4
Note ON: Time 8000, Note Name: C5, Velocity: 39
Note OFF: Time 8080, Note Name: C5
Note ON: Time 8080, Note Name: D#5, Velocity: 39
Note OFF: Time 8160, Note Name: D#5
Note ON: Time 8240, Note Name: C5, Velocity: 38
Note OFF: Time 8320, Note Name: C5
Note ON: Time 8320, Note Name: D#5, Velocity: 38
Note OFF: Time 8400, Note Name: D#5
Note ON: Time 8400, Note Name: D#4, Velocity: 37
Note OFF: Time 8480, Note Name: D#4
Note ON: Time 8480, Note Name: C5, Velocity: 37
Note OFF: Time 8560, Note Name: C5
Note ON: Time 8560, Note Name: D#5, Velocity: 36
Note OFF: Time 8640, Note Name: D#5
Note ON: Time 8720, Note Name: C5, Velocity: 36
Note OFF: Time 8800, Note Name: C5
Note ON: Time 8800, Note Name: E5, Velocity: 36
Note OFF: Time 8880, Note Name: E5
Note ON: Time 8880, Note Name: E4, Velocity: 37
Note OFF: Time 8960, Note Name: E4
Note ON: Time 8960, Note Name: C5, Velocity: 38
Note OFF: Time 9040, Note Name: C5
Note ON: Time 9040, Note Name: E5, Velocity: 38
Note OFF: Time 9120, Note Name: E5
Note ON: Time 9200, Note Name: C5, Velocity: 39
Note OFF: Time 9280, Note Name: C5
Note ON: Time 9280, Note Name: E5, Velocity: 39
Note OFF: Time 9360, Note Name: E5
Note ON: Time 9360, Note Name: E4, Velocity: 40
Note OFF: Time 9440, Note Name: E4
Note ON: Time 9440, Note Name: C5, Velocity: 41
Note OFF: Time 9520, Note Name: C5
Note ON: Time 9520, Note Name: E5, Velocity: 42
Note OFF: Time 9600, Note Name: E5
Note ON: Time 9680, Note Name: C#5, Velocity: 37
Note OFF: Time 9760, Note Name: C#5
Note ON: Time 9760, Note Name: F5, Velocity: 37
Note OFF: Time 9840, Note Name: F5
Note ON: Time 9840, Note Name: G#4, Velocity: 37
Note OFF: Time 9920, Note Name: G#4
Note ON: Time 9920, Note Name: C#5, Velocity: 37
Note OFF: Time 10000, Note Name: C#5
Note ON: Time 10000, Note Name: F5, Velocity: 38
Note OFF: Time 10080, Note Name: F5
Note ON: Time 10160, Note Name: C#5, Velocity: 38
Note OFF: Time 10240, Note Name: C#5
Note ON: Time 10240, Note Name: F5, Velocity: 38
Note OFF: Time 10320, Note Name: F5
Note ON: Time 10320, Note Name: G#4, Velocity: 39
Note OFF: Time 10400, Note Name: G#4
Note ON: Time 10400, Note Name: C#5, Velocity: 39
Note OFF: Time 10480, Note Name: C#5
Note ON: Time 10480, Note Name: F5, Velocity: 39
Note OFF: Time 10560, Note Name: F5
Note ON: Time 10640, Note Name: C#5, Velocity: 39
Note OFF: Time 10720, Note Name: C#5
Note ON: Time 10720, Note Name: F5, Velocity: 39
Note OFF: Time 10800, Note Name: F5
Note ON: Time 10800, Note Name: G#4, Velocity: 39
Note OFF: Time 10880, Note Name: G#4
Note ON: Time 10880, Note Name: C#5, Velocity: 39
Note OFF: Time 10960, Note Name: C#5
Note ON: Time 10960, Note Name: F5, Velocity: 40
Note OFF: Time 11040, Note Name: F5
Note ON: Time 11120, Note Name: C#5, Velocity: 40
Note OFF: Time 11200, Note Name: C#5
Note ON: Time 11200, Note Name: F5, Velocity: 40
Note OFF: Time 11280, Note Name: F5
Note ON: Time 11280, Note Name: G4, Velocity: 42
Note OFF: Time 11360, Note Name: G4
Note ON: Time 11360, Note Name: C#5, Velocity: 42
Note OFF: Time 11440, Note Name: C#5
Note ON: Time 11440, Note Name: F5, Velocity: 42
Note OFF: Time 11520, Note Name: F5
Note ON: Time 11600, Note Name: C5, Velocity: 40
Note OFF: Time 11680, Note Name: C5
Note ON: Time 11680, Note Name: F5, Velocity: 40
Note OFF: Time 11760, Note Name: F5
Note ON: Time 11760, Note Name: G4, Velocity: 39
Note OFF: Time 11840, Note Name: G4
Note ON: Time 11840, Note Name: C5, Velocity: 39
Note OFF: Time 11920, Note Name: C5
Note ON: Time 11920, Note Name: F5, Velocity: 39
Note OFF: Time 12000, Note Name: F5
Note ON: Time 12080, Note Name: C5, Velocity: 38
Note OFF: Time 12160, Note Name: C5
Note ON: Time 12160, Note Name: E5, Velocity: 38
Note OFF: Time 12240, Note Name: E5
Note ON: Time 12240, Note Name: G4, Velocity: 38
Note OFF: Time 12320, Note Name: G4
Note ON: Time 12320, Note Name: C5, Velocity: 37
Note OFF: Time 12400, Note Name: C5
Note ON: Time 12400, Note Name: E5, Velocity: 37
Note OFF: Time 12480, Note Name: E5
Note ON: Time 12560, Note Name: C5, Velocity: 36
Note OFF: Time 12640, Note Name: C5
Note ON: Time 12640, Note Name: F5, Velocity: 35
Note OFF: Time 12720, Note Name: F5
Note ON: Time 12720, Note Name: G#4, Velocity: 35
Note OFF: Time 12800, Note Name: G#4
Note ON: Time 12800, Note Name: C5, Velocity: 35
Note OFF: Time 12880, Note Name: C5
Note ON: Time 12880, Note Name: F5, Velocity: 34
Note OFF: Time 12958, Note Name: F5
Note ON: Time 13040, Note Name: B4, Velocity: 33
Note OFF: Time 13120, Note Name: B4
Note ON: Time 13120, Note Name: D#5, Velocity: 33
Note OFF: Time 13200, Note Name: D#5
Note ON: Time 13200, Note Name: F4, Velocity: 31
Note OFF: Time 13280, Note Name: F4
Note ON: Time 13280, Note Name: B4, Velocity: 31
Note OFF: Time 13360, Note Name: B4
Note ON: Time 13360, Note Name: D#5, Velocity: 31
Note OFF: Time 13440, Note Name: D#5
Note ON: Time 13520, Note Name: A#4, Velocity: 31
Note OFF: Time 13600, Note Name: A#4
Note ON: Time 13600, Note Name: D#5, Velocity: 31
Note OFF: Time 13680, Note Name: D#5
Note ON: Time 13680, Note Name: F4, Velocity: 33
Note OFF: Time 13760, Note Name: F4
Note ON: Time 13760, Note Name: A#4, Velocity: 33
Note OFF: Time 13840, Note Name: A#4
Note ON: Time 13840, Note Name: D#5, Velocity: 34
Note OFF: Time 13920, Note Name: D#5
Note ON: Time 14000, Note Name: A#4, Velocity: 35
Note OFF: Time 14080, Note Name: A#4
Note ON: Time 14080, Note Name: D#5, Velocity: 35
Note OFF: Time 14160, Note Name: D#5
Note ON: Time 14160, Note Name: F4, Velocity: 36
Note OFF: Time 14240, Note Name: F4
Note ON: Time 14240, Note Name: A#4, Velocity: 36
Note OFF: Time 14320, Note Name: A#4
Note ON: Time 14320, Note Name: D#5, Velocity: 37
Note OFF: Time 14400, Note Name: D#5
Note ON: Time 14480, Note Name: A#4, Velocity: 38
Note OFF: Time 14560, Note Name: A#4
Note ON: Time 14560, Note Name: D5, Velocity: 38
Note OFF: Time 14640, Note Name: D5
Note ON: Time 14640, Note Name: F4, Velocity: 37
Note OFF: Time 14720, Note Name: F4
Note ON: Time 14720, Note Name: G#4, Velocity: 37
Note OFF: Time 14800, Note Name: G#4
Note ON: Time 14800, Note Name: A#4, Velocity: 36
Note OFF: Time 14878, Note Name: A#4
Note ON: Time 14960, Note Name: F4, Velocity: 36
Note OFF: Time 15040, Note Name: F4
Note ON: Time 15040, Note Name: G#4, Velocity: 35
Note OFF: Time 15120, Note Name: G#4
Note ON: Time 15120, Note Name: A#3, Velocity: 35
Note OFF: Time 15200, Note Name: A#3
Note ON: Time 15200, Note Name: F4, Velocity: 35
Note OFF: Time 15280, Note Name: F4
Note ON: Time 15280, Note Name: G#4, Velocity: 37
Note OFF: Time 15360, Note Name: G#4
Note ON: Time 15440, Note Name: F4, Velocity: 39
Note OFF: Time 15520, Note Name: F4
Note ON: Time 15520, Note Name: G#4, Velocity: 39
Note OFF: Time 15600, Note Name: G#4
Note ON: Time 15600, Note Name: A#3, Velocity: 39
Note OFF: Time 15680, Note Name: A#3
Note ON: Time 15680, Note Name: F4, Velocity: 40
Note OFF: Time 15760, Note Name: F4
Note ON: Time 15760, Note Name: G#4, Velocity: 42
Note OFF: Time 15840, Note Name: G#4
Note ON: Time 15920, Note Name: D#4, Velocity: 35
Note OFF: Time 16000, Note Name: D#4
Note ON: Time 16000, Note Name: G#4, Velocity: 36
Note OFF: Time 16080, Note Name: G#4
Note ON: Time 16080, Note Name: A#3, Velocity: 36
Note OFF: Time 16160, Note Name: A#3
Note ON: Time 16160, Note Name: D#4, Velocity: 37
Note OFF: Time 16240, Note Name: D#4
Note ON: Time 16240, Note Name: G#4, Velocity: 37
Note OFF: Time 16320, Note Name: G#4
Note ON: Time 16400, Note Name: D#4, Velocity: 33
Note OFF: Time 16480, Note Name: D#4
Note ON: Time 16480, Note Name: G4, Velocity: 32
Note OFF: Time 16560, Note Name: G4
Note ON: Time 16560, Note Name: A#3, Velocity: 32
Note OFF: Time 16640, Note Name: A#3
Note ON: Time 16640, Note Name: C#4, Velocity: 31
Note OFF: Time 16720, Note Name: C#4
Note ON: Time 16720, Note Name: D#4, Velocity: 29
Note OFF: Time 16798, Note Name: D#4
Note ON: Time 16880, Note Name: A#3, Velocity: 35
Note OFF: Time 16960, Note Name: A#3
Note ON: Time 16960, Note Name: C#4, Velocity: 34
Note OFF: Time 17040, Note Name: C#4
Note ON: Time 17040, Note Name: D#3, Velocity: 31
Note OFF: Time 17120, Note Name: D#3
Note ON: Time 17120, Note Name: A#3, Velocity: 30
Note OFF: Time 17200, Note Name: A#3
Note ON: Time 17200, Note Name: C#4, Velocity: 29
Note OFF: Time 17280, Note Name: C#4
Note ON: Time 17360, Note Name: G#4, Velocity: 22
Note OFF: Time 17440, Note Name: G#4
Note ON: Time 17440, Note Name: C5, Velocity: 22
Note OFF: Time 17520, Note Name: C5
Note ON: Time 17520, Note Name: D#4, Velocity: 22
Note OFF: Time 17600, Note Name: D#4
Note ON: Time 17600, Note Name: G#4, Velocity: 22
Note OFF: Time 17680, Note Name: G#4
Note ON: Time 17680, Note Name: C5, Velocity: 23
Note OFF: Time 17760, Note Name: C5
Note ON: Time 17840, Note Name: G#4, Velocity: 23
Note OFF: Time 17920, Note Name: G#4
Note ON: Time 17920, Note Name: C5, Velocity: 24
Note OFF: Time 18000, Note Name: C5
Note ON: Time 18000, Note Name: D#4, Velocity: 24
Note OFF: Time 18080, Note Name: D#4
Note ON: Time 18080, Note Name: G#4, Velocity: 24
Note OFF: Time 18160, Note Name: G#4
Note ON: Time 18160, Note Name: C5, Velocity: 24
Note OFF: Time 18240, Note Name: C5
Note ON: Time 18320, Note Name: G#4, Velocity: 26
Note OFF: Time 18400, Note Name: G#4
Note ON: Time 18400, Note Name: C5, Velocity: 26
Note OFF: Time 18480, Note Name: C5
Note ON: Time 18480, Note Name: D#4, Velocity: 26
Note OFF: Time 18560, Note Name: D#4
Note ON: Time 18560, Note Name: G#4, Velocity: 27
Note OFF: Time 18640, Note Name: G#4
Note ON: Time 18640, Note Name: C5, Velocity: 27
Note OFF: Time 18720, Note Name: C5
Note ON: Time 18800, Note Name: G#4, Velocity: 27
Note OFF: Time 18880, Note Name: G#4
Note ON: Time 18880, Note Name: C5, Velocity: 28
Note OFF: Time 18960, Note Name: C5
Note ON: Time 18960, Note Name: D#4, Velocity: 28
Note OFF: Time 19040, Note Name: D#4
Note ON: Time 19040, Note Name: G#4, Velocity: 28
Note OFF: Time 19120, Note Name: G#4
Note ON: Time 19120, Note Name: C5, Velocity: 28
Note OFF: Time 19200, Note Name: C5
Note ON: Time 19280, Note Name: G#4, Velocity: 30
Note OFF: Time 19360, Note Name: G#4
Note ON: Time 19360, Note Name: C5, Velocity: 29
Note OFF: Time 19440, Note Name: C5
Note ON: Time 19440, Note Name: D#4, Velocity: 29
Note OFF: Time 19520, Note Name: D#4
Note ON: Time 19520, Note Name: G#4, Velocity: 29
Note OFF: Time 19600, Note Name: G#4
Note ON: Time 19600, Note Name: C5, Velocity: 29
Note OFF: Time 19680, Note Name: C5
Note ON: Time 19760, Note Name: G#4, Velocity: 29
Note OFF: Time 19840, Note Name: G#4
Note ON: Time 19840, Note Name: C5, Velocity: 29
Note OFF: Time 19920, Note Name: C5
Note ON: Time 19920, Note Name: D#4, Velocity: 29
Note OFF: Time 20000, Note Name: D#4
Note ON: Time 20000, Note Name: G#4, Velocity: 28
Note OFF: Time 20080, Note Name: G#4
Note ON: Time 20080, Note Name: C5, Velocity: 28
Note OFF: Time 20160, Note Name: C5
Note ON: Time 20240, Note Name: G#4, Velocity: 27
Note OFF: Time 20320, Note Name: G#4
Note ON: Time 20320, Note Name: C5, Velocity: 27
Note OFF: Time 20400, Note Name: C5
Note ON: Time 20400, Note Name: D#4, Velocity: 27
Note OFF: Time 20480, Note Name: D#4
Note ON: Time 20480, Note Name: G#4, Velocity: 27
Note OFF: Time 20560, Note Name: G#4
Note ON: Time 20560, Note Name: C5, Velocity: 27
Note OFF: Time 20640, Note Name: C5
Note ON: Time 20720, Note Name: G#4, Velocity: 26
Note OFF: Time 20800, Note Name: G#4
Note ON: Time 20800, Note Name: C5, Velocity: 26
Note OFF: Time 20880, Note Name: C5
Note ON: Time 20880, Note Name: D#4, Velocity: 26
Note OFF: Time 20960, Note Name: D#4
Note ON: Time 20960, Note Name: G#4, Velocity: 26
Note OFF: Time 21040, Note Name: G#4
Note ON: Time 21040, Note Name: C5, Velocity: 26
Note OFF: Time 21120, Note Name: C5
Note ON: Time 21200, Note Name: A#4, Velocity: 30
Note OFF: Time 21280, Note Name: A#4
Note ON: Time 21280, Note Name: C#5, Velocity: 31
Note OFF: Time 21360, Note Name: C#5
Note ON: Time 21360, Note Name: D#4, Velocity: 31
Note OFF: Time 21440, Note Name: D#4
Note ON: Time 21440, Note Name: A#4, Velocity: 33
Note OFF: Time 21520, Note Name: A#4
Note ON: Time 21520, Note Name: C#5, Velocity: 34
Note OFF: Time 21600, Note Name: C#5
Note ON: Time 21680, Note Name: A#4, Velocity: 35
Note OFF: Time 21760, Note Name: A#4
Note ON: Time 21760, Note Name: C#5, Velocity: 35
Note OFF: Time 21840, Note Name: C#5
Note ON: Time 21840, Note Name: D#4, Velocity: 36
Note OFF: Time 21920, Note Name: D#4
Note ON: Time 21920, Note Name: A#4, Velocity: 38
Note OFF: Time 22000, Note Name: A#4
Note ON: Time 22000, Note Name: C#5, Velocity: 38
Note OFF: Time 22080, Note Name: C#5
Note ON: Time 22160, Note Name: A#4, Velocity: 39
Note OFF: Time 22240, Note Name: A#4
Note ON: Time 22240, Note Name: C#5, Velocity: 40
Note OFF: Time 22320, Note Name: C#5
Note ON: Time 22320, Note Name: D#4, Velocity: 41
Note OFF: Time 22400, Note Name: D#4
Note ON: Time 22400, Note Name: A#4, Velocity: 41
Note OFF: Time 22480, Note Name: A#4
Note ON: Time 22480, Note Name: C#5, Velocity: 42
Note OFF: Time 22560, Note Name: C#5
Note ON: Time 22640, Note Name: A#4, Velocity: 41
Note OFF: Time 22720, Note Name: A#4
Note ON: Time 22720, Note Name: C#5, Velocity: 40
Note OFF: Time 22800, Note Name: C#5
Note ON: Time 22800, Note Name: D#4, Velocity: 38
Note OFF: Time 22880, Note Name: D#4
Note ON: Time 22880, Note Name: A#4, Velocity: 37
Note OFF: Time 22960, Note Name: A#4
Note ON: Time 22960, Note Name: C#5, Velocity: 36
Note OFF: Time 23040, Note Name: C#5
Note ON: Time 23120, Note Name: C5, Velocity: 45
Note OFF: Time 23200, Note Name: C5
Note ON: Time 23200, Note Name: D#5, Velocity: 44
Note OFF: Time 23280, Note Name: D#5
Note ON: Time 23280, Note Name: D#4, Velocity: 44
Note OFF: Time 23360, Note Name: D#4
Note ON: Time 23360, Note Name: C5, Velocity: 42
Note OFF: Time 23440, Note Name: C5
Note ON: Time 23440, Note Name: D#5, Velocity: 42
Note OFF: Time 23520, Note Name: D#5
Note ON: Time 23600, Note Name: C5, Velocity: 41
Note OFF: Time 23680, Note Name: C5
Note ON: Time 23680, Note Name: D#5, Velocity: 41
Note OFF: Time 23760, Note Name: D#5
Note ON: Time 23760, Note Name: D#4, Velocity: 40
Note OFF: Time 23840, Note Name: D#4
Note ON: Time 23840, Note Name: C5, Velocity: 41
Note OFF: Time 23920, Note Name: C5
Note ON: Time 23920, Note Name: D#5, Velocity: 39
Note OFF: Time 24000, Note Name: D#5
Note ON: Time 24080, Note Name: C5, Velocity: 38
Note OFF: Time 24160, Note Name: C5
Note ON: Time 24160, Note Name: E5, Velocity: 39
Note OFF: Time 24240, Note Name: E5
Note ON: Time 24240, Note Name: E4, Velocity: 40
Note OFF: Time 24320, Note Name: E4
Note ON: Time 24320, Note Name: C5, Velocity: 41
Note OFF: Time 24400, Note Name: C5
Note ON: Time 24400, Note Name: E5, Velocity: 42
Note OFF: Time 24480, Note Name: E5
Note ON: Time 24560, Note Name: C5, Velocity: 45
Note OFF: Time 24640, Note Name: C5
Note ON: Time 24640, Note Name: E5, Velocity: 46
Note OFF: Time 24720, Note Name: E5
Note ON: Time 24720, Note Name: E4, Velocity: 47
Note OFF: Time 24800, Note Name: E4
Note ON: Time 24800, Note Name: C5, Velocity: 48
Note OFF: Time 24880, Note Name: C5
Note ON: Time 24880, Note Name: E5, Velocity: 49
Note OFF: Time 24960, Note Name: E5
Note ON: Time 25040, Note Name: C#5, Velocity: 41
Note OFF: Time 25120, Note Name: C#5
Note ON: Time 25120, Note Name: F5, Velocity: 41
Note OFF: Time 25200, Note Name: F5
Note ON: Time 25200, Note Name: G#4, Velocity: 42
Note OFF: Time 25280, Note Name: G#4
Note ON: Time 25280, Note Name: C#5, Velocity: 42
Note OFF: Time 25360, Note Name: C#5
Note ON: Time 25360, Note Name: F5, Velocity: 42
Note OFF: Time 25440, Note Name: F5
Note ON: Time 25520, Note Name: C#5, Velocity: 44
Note OFF: Time 25600, Note Name: C#5
Note ON: Time 25600, Note Name: F5, Velocity: 44
Note OFF: Time 25680, Note Name: F5
Note ON: Time 25680, Note Name: G#4, Velocity: 45
Note OFF: Time 25760, Note Name: G#4
Note ON: Time 25760, Note Name: C#5, Velocity: 45
Note OFF: Time 25840, Note Name: C#5
Note ON: Time 25840, Note Name: F5, Velocity: 45
Note OFF: Time 25920, Note Name: F5
Note ON: Time 26000, Note Name: C#5, Velocity: 46
Note OFF: Time 26080, Note Name: C#5
Note ON: Time 26080, Note Name: F5, Velocity: 46
Note OFF: Time 26160, Note Name: F5
Note ON: Time 26160, Note Name: G#4, Velocity: 47
Note OFF: Time 26240, Note Name: G#4
Note ON: Time 26240, Note Name: C#5, Velocity: 47
Note OFF: Time 26320, Note Name: C#5
Note ON: Time 26320, Note Name: F5, Velocity: 47
Note OFF: Time 26400, Note Name: F5
Note ON: Time 26480, Note Name: C#5, Velocity: 48
Note OFF: Time 26560, Note Name: C#5
Note ON: Time 26560, Note Name: F5, Velocity: 48
Note OFF: Time 26640, Note Name: F5
Note ON: Time 26640, Note Name: G4, Velocity: 49
Note OFF: Time 26720, Note Name: G4
Note ON: Time 26720, Note Name: C#5, Velocity: 49
Note OFF: Time 26800, Note Name: C#5
Note ON: Time 26800, Note Name: F5, Velocity: 49
Note OFF: Time 26880, Note Name: F5
Note ON: Time 26960, Note Name: C5, Velocity: 44
Note OFF: Time 27040, Note Name: C5
Note ON: Time 27040, Note Name: F5, Velocity: 44
Note OFF: Time 27120, Note Name: F5
Note ON: Time 27120, Note Name: G4, Velocity: 42
Note OFF: Time 27200, Note Name: G4
Note ON: Time 27200, Note Name: C5, Velocity: 42
Note OFF: Time 27280, Note Name: C5
Note ON: Time 27280, Note Name: F5, Velocity: 41
Note OFF: Time 27360, Note Name: F5
Note ON: Time 27440, Note Name: C5, Velocity: 40
Note OFF: Time 27520, Note Name: C5
Note ON: Time 27520, Note Name: F5, Velocity: 40
Note OFF: Time 27600, Note Name: F5
Note ON: Time 27600, Note Name: G4, Velocity: 40
Note OFF: Time 27680, Note Name: G4
Note ON: Time 27680, Note Name: C5, Velocity: 39
Note OFF: Time 27760, Note Name: C5
Note ON: Time 27760, Note Name: F5, Velocity: 39
Note OFF: Time 27840, Note Name: F5
Note ON: Time 27920, Note Name: C5, Velocity: 37
Note OFF: Time 28000, Note Name: C5
Note ON: Time 28000, Note Name: E5, Velocity: 36
Note OFF: Time 28080, Note Name: E5
Note ON: Time 28080, Note Name: G4, Velocity: 36
Note OFF: Time 28160, Note Name: G4
Note ON: Time 28160, Note Name: C5, Velocity: 36
Note OFF: Time 28240, Note Name: C5
Note ON: Time 28240, Note Name: E5, Velocity: 34
Note OFF: Time 28320, Note Name: E5
Note ON: Time 28400, Note Name: C5, Velocity: 33
Note OFF: Time 28480, Note Name: C5
Note ON: Time 28480, Note Name: E5, Velocity: 33
Note OFF: Time 28560, Note Name: E5
Note ON: Time 28560, Note Name: G4, Velocity: 31
Note OFF: Time 28640, Note Name: G4
Note ON: Time 28640, Note Name: C5, Velocity: 31
Note OFF: Time 28720, Note Name: C5
Note ON: Time 28720, Note Name: E5, Velocity: 31
Note OFF: Time 28800, Note Name: E5
Note ON: Time 28880, Note Name: B4, Velocity: 28
Note OFF: Time 28960, Note Name: B4
Note ON: Time 28960, Note Name: E5, Velocity: 28
Note OFF: Time 29040, Note Name: E5
Note ON: Time 29040, Note Name: F4, Velocity: 33
Note OFF: Time 29120, Note Name: F4
Note ON: Time 29120, Note Name: B4, Velocity: 29
Note OFF: Time 29200, Note Name: B4
Note ON: Time 29200, Note Name: E5, Velocity: 29
Note OFF: Time 29280, Note Name: E5
Note ON: Time 29360, Note Name: B4, Velocity: 28
Note OFF: Time 29440, Note Name: B4
Note ON: Time 29440, Note Name: D5, Velocity: 28
Note OFF: Time 29520, Note Name: D5
Note ON: Time 29520, Note Name: F4, Velocity: 28
Note OFF: Time 29600, Note Name: F4
Note ON: Time 29600, Note Name: B4, Velocity: 28
Note OFF: Time 29680, Note Name: B4
Note ON: Time 29680, Note Name: D5, Velocity: 28
Note OFF: Time 29760, Note Name: D5
Note ON: Time 29840, Note Name: B4, Velocity: 29
Note OFF: Time 29920, Note Name: B4
Note ON: Time 29920, Note Name: F5, Velocity: 29
Note OFF: Time 30000, Note Name: F5
Note ON: Time 30000, Note Name: F4, Velocity: 29
Note OFF: Time 30080, Note Name: F4
Note ON: Time 30080, Note Name: B4, Velocity: 29
Note OFF: Time 30160, Note Name: B4
Note ON: Time 30160, Note Name: F5, Velocity: 28
Note OFF: Time 30240, Note Name: F5
Note ON: Time 30320, Note Name: B4, Velocity: 28
Note OFF: Time 30400, Note Name: B4
Note ON: Time 30400, Note Name: E5, Velocity: 28
Note OFF: Time 30480, Note Name: E5
Note ON: Time 30480, Note Name: F4, Velocity: 30
Note OFF: Time 30560, Note Name: F4
Note ON: Time 30560, Note Name: B4, Velocity: 30
Note OFF: Time 30640, Note Name: B4
Note ON: Time 30640, Note Name: E5, Velocity: 33
Note OFF: Time 30720, Note Name: E5
Note ON: Time 30800, Note Name: F4, Velocity: 25
Note OFF: Time 30880, Note Name: F4
Note ON: Time 30880, Note Name: G4, Velocity: 25
Note OFF: Time 30960, Note Name: G4
Note ON: Time 30960, Note Name: C4, Velocity: 25
Note OFF: Time 31040, Note Name: C4
Note ON: Time 31040, Note Name: F4, Velocity: 26
Note OFF: Time 31120, Note Name: F4
Note ON: Time 31120, Note Name: G4, Velocity: 27
Note OFF: Time 31200, Note Name: G4
Note ON: Time 31280, Note Name: E4, Velocity: 26
Note OFF: Time 31360, Note Name: E4
Note ON: Time 31360, Note Name: G4, Velocity: 26
Note OFF: Time 31440, Note Name: G4
Note ON: Time 31440, Note Name: C4, Velocity: 26
Note OFF: Time 31520, Note Name: C4
Note ON: Time 31520, Note Name: E4, Velocity: 26
Note OFF: Time 31600, Note Name: E4
Note ON: Time 31600, Note Name: G4, Velocity: 26
Note OFF: Time 31680, Note Name: G4
Note ON: Time 31760, Note Name: D4, Velocity: 26
Note OFF: Time 31840, Note Name: D4
Note ON: Time 31840, Note Name: G4, Velocity: 26
Note OFF: Time 31920, Note Name: G4
Note ON: Time 31920, Note Name: C4, Velocity: 26
Note OFF: Time 32000, Note Name: C4
Note ON: Time 32000, Note Name: D4, Velocity: 26
Note OFF: Time 32080, Note Name: D4
Note ON: Time 32080, Note Name: G4, Velocity: 25
Note OFF: Time 32160, Note Name: G4
Note ON: Time 32240, Note Name: E4, Velocity: 25
Note OFF: Time 32320, Note Name: E4
Note ON: Time 32320, Note Name: G4, Velocity: 25
Note OFF: Time 32400, Note Name: G4
Note ON: Time 32400, Note Name: C4, Velocity: 24
Note OFF: Time 32480, Note Name: C4
Note ON: Time 32480, Note Name: E4, Velocity: 22
Note OFF: Time 32560, Note Name: E4
Note ON: Time 32560, Note Name: G4, Velocity: 20
Note OFF: Time 32640, Note Name: G4
Note ON: Time 32720, Note Name: G4, Velocity: 22
Note OFF: Time 32800, Note Name: G4
Note ON: Time 32800, Note Name: A#4, Velocity: 22
Note OFF: Time 32880, Note Name: A#4
Note ON: Time 32880, Note Name: C4, Velocity: 22
Note OFF: Time 32960, Note Name: C4
Note ON: Time 32960, Note Name: G4, Velocity: 22
Note OFF: Time 33040, Note Name: G4
Note ON: Time 33040, Note Name: A#4, Velocity: 23
Note OFF: Time 33120, Note Name: A#4
Note ON: Time 33200, Note Name: G4, Velocity: 23
Note OFF: Time 33280, Note Name: G4
Note ON: Time 33280, Note Name: A#4, Velocity: 24
Note OFF: Time 33360, Note Name: A#4
Note ON: Time 33360, Note Name: C4, Velocity: 24
Note OFF: Time 33440, Note Name: C4
Note ON: Time 33440, Note Name: G4, Velocity: 24
Note OFF: Time 33520, Note Name: G4
Note ON: Time 33520, Note Name: A#4, Velocity: 24
Note OFF: Time 33600, Note Name: A#4
Note ON: Time 33680, Note Name: G4, Velocity: 26
Note OFF: Time 33760, Note Name: G4
Note ON: Time 33760, Note Name: A#4, Velocity: 26
Note OFF: Time 33840, Note Name: A#4
Note ON: Time 33840, Note Name: C4, Velocity: 26
Note OFF: Time 33920, Note Name: C4
Note ON: Time 33920, Note Name: G4, Velocity: 27
Note OFF: Time 34000, Note Name: G4
Note ON: Time 34000, Note Name: A#4, Velocity: 27
Note OFF: Time 34080, Note Name: A#4
Note ON: Time 34160, Note Name: G4, Velocity: 27
Note OFF: Time 34240, Note Name: G4
Note ON: Time 34240, Note Name: A#4, Velocity: 28
Note OFF: Time 34320, Note Name: A#4
Note ON: Time 34320, Note Name: C4, Velocity: 28
Note OFF: Time 34400, Note Name: C4
Note ON: Time 34400, Note Name: G4, Velocity: 28
Note OFF: Time 34480, Note Name: G4
Note ON: Time 34480, Note Name: A#4, Velocity: 28
Note OFF: Time 34560, Note Name: A#4
Note ON: Time 34640, Note Name: F4, Velocity: 28
Note OFF: Time 34720, Note Name: F4
Note ON: Time 34720, Note Name: A#4, Velocity: 28
Note OFF: Time 34800, Note Name: A#4
Note ON: Time 34800, Note Name: C4, Velocity: 29
Note OFF: Time 34880, Note Name: C4
Note ON: Time 34880, Note Name: F4, Velocity: 29
Note OFF: Time 34960, Note Name: F4
Note ON: Time 34960, Note Name: A#4, Velocity: 29
Note OFF: Time 35040, Note Name: A#4
Note ON: Time 35120, Note Name: F4, Velocity: 30
Note OFF: Time 35200, Note Name: F4
Note ON: Time 35200, Note Name: G#4, Velocity: 31
Note OFF: Time 35280, Note Name: G#4
Note ON: Time 35280, Note Name: C4, Velocity: 31
Note OFF: Time 35360, Note Name: C4
Note ON: Time 35360, Note Name: F4, Velocity: 31
Note OFF: Time 35440, Note Name: F4
Note ON: Time 35440, Note Name: G#4, Velocity: 33
Note OFF: Time 35520, Note Name: G#4
Note ON: Time 35600, Note Name: G4, Velocity: 34
Note OFF: Time 35680, Note Name: G4
Note ON: Time 35680, Note Name: C5, Velocity: 34
Note OFF: Time 35760, Note Name: C5
Note ON: Time 35760, Note Name: C4, Velocity: 34
Note OFF: Time 35840, Note Name: C4
Note ON: Time 35840, Note Name: G4, Velocity: 35
Note OFF: Time 35920, Note Name: G4
Note ON: Time 35920, Note Name: C5, Velocity: 35
Note OFF: Time 36000, Note Name: C5
Note ON: Time 36080, Note Name: G#4, Velocity: 36
Note OFF: Time 36160, Note Name: G#4
Note ON: Time 36160, Note Name: C5, Velocity: 36
Note OFF: Time 36240, Note Name: C5
Note ON: Time 36240, Note Name: C4, Velocity: 37
Note OFF: Time 36320, Note Name: C4
Note ON: Time 36320, Note Name: G#4, Velocity: 37
Note OFF: Time 36400, Note Name: G#4
Note ON: Time 36400, Note Name: C5, Velocity: 37
Note OFF: Time 36480, Note Name: C5
Note ON: Time 36560, Note Name: A#4, Velocity: 35
Note OFF: Time 36640, Note Name: A#4
Note ON: Time 36640, Note Name: C#5, Velocity: 35
Note OFF: Time 36720, Note Name: C#5
Note ON: Time 36720, Note Name: D#4, Velocity: 36
Note OFF: Time 36800, Note Name: D#4
Note ON: Time 36800, Note Name: A#4, Velocity: 36
Note OFF: Time 36880, Note Name: A#4
Note ON: Time 36880, Note Name: C#5, Velocity: 37
Note OFF: Time 36960, Note Name: C#5
Note ON: Time 37040, Note Name: A#4, Velocity: 38
Note OFF: Time 37120, Note Name: A#4
Note ON: Time 37120, Note Name: C#5, Velocity: 38
Note OFF: Time 37200, Note Name: C#5
Note ON: Time 37200, Note Name: D#4, Velocity: 38
Note OFF: Time 37280, Note Name: D#4
Note ON: Time 37280, Note Name: A#4, Velocity: 39
Note OFF: Time 37360, Note Name: A#4
Note ON: Time 37360, Note Name: C#5, Velocity: 39
Note OFF: Time 37440, Note Name: C#5
Note ON: Time 37520, Note Name: A#4, Velocity: 40
Note OFF: Time 37600, Note Name: A#4
Note ON: Time 37600, Note Name: C#5, Velocity: 41
Note OFF: Time 37680, Note Name: C#5
Note ON: Time 37680, Note Name: D#4, Velocity: 41
Note OFF: Time 37760, Note Name: D#4
Note ON: Time 37760, Note Name: A#4, Velocity: 42
Note OFF: Time 37840, Note Name: A#4
Note ON: Time 37840, Note Name: C#5, Velocity: 42
Note OFF: Time 37920, Note Name: C#5
Note ON: Time 38000, Note Name: A#4, Velocity: 44
Note OFF: Time 38080, Note Name: A#4
Note ON: Time 38080, Note Name: C#5, Velocity: 42
Note OFF: Time 38160, Note Name: C#5
Note ON: Time 38160, Note Name: D#4, Velocity: 41
Note OFF: Time 38240, Note Name: D#4
Note ON: Time 38240, Note Name: A#4, Velocity: 40
Note OFF: Time 38320, Note Name: A#4
Note ON: Time 38320, Note Name: C#5, Velocity: 39
Note OFF: Time 38400, Note Name: C#5
Note ON: Time 38480, Note Name: G#4, Velocity: 36
Note OFF: Time 38560, Note Name: G#4
Note ON: Time 38560, Note Name: C#5, Velocity: 36
Note OFF: Time 38640, Note Name: C#5
Note ON: Time 38640, Note Name: D#4, Velocity: 37
Note OFF: Time 38720, Note Name: D#4
Note ON: Time 38720, Note Name: G#4, Velocity: 37
Note OFF: Time 38800, Note Name: G#4
Note ON: Time 38800, Note Name: C#5, Velocity: 38
Note OFF: Time 38880, Note Name: C#5
Note ON: Time 38960, Note Name: G#4, Velocity: 39
Note OFF: Time 39040, Note Name: G#4
Note ON: Time 39040, Note Name: C5, Velocity: 39
Note OFF: Time 39120, Note Name: C5
Note ON: Time 39120, Note Name: D#4, Velocity: 39
Note OFF: Time 39200, Note Name: D#4
Note ON: Time 39200, Note Name: G#4, Velocity: 40
Note OFF: Time 39280, Note Name: G#4
Note ON: Time 39280, Note Name: C5, Velocity: 40
Note OFF: Time 39360, Note Name: C5
Note ON: Time 39440, Note Name: G#4, Velocity: 41
Note OFF: Time 39520, Note Name: G#4
Note ON: Time 39520, Note Name: C5, Velocity: 42
Note OFF: Time 39600, Note Name: C5
Note ON: Time 39600, Note Name: D#4, Velocity: 42
Note OFF: Time 39680, Note Name: D#4
Note ON: Time 39680, Note Name: G#4, Velocity: 44
Note OFF: Time 39760, Note Name: G#4
Note ON: Time 39760, Note Name: C5, Velocity: 44
Note OFF: Time 39840, Note Name: C5
Note ON: Time 39920, Note Name: G#4, Velocity: 44
Note OFF: Time 40000, Note Name: G#4
Note ON: Time 40000, Note Name: C5, Velocity: 45
Note OFF: Time 40080, Note Name: C5
Note ON: Time 40080, Note Name: D#4, Velocity: 46
Note OFF: Time 40160, Note Name: D#4
Note ON: Time 40160, Note Name: G#4, Velocity: 47
Note OFF: Time 40240, Note Name: G#4
Note ON: Time 40240, Note Name: C5, Velocity: 48
Note OFF: Time 40320, Note Name: C5
Note ON: Time 40400, Note Name: C5, Velocity: 46
Note OFF: Time 40480, Note Name: C5
Note ON: Time 40480, Note Name: D#5, Velocity: 47
Note OFF: Time 40560, Note Name: D#5
Note ON: Time 40560, Note Name: G4, Velocity: 48
Note OFF: Time 40640, Note Name: G4
Note ON: Time 40640, Note Name: C5, Velocity: 48
Note OFF: Time 40720, Note Name: C5
Note ON: Time 40720, Note Name: D#5, Velocity: 49
Note OFF: Time 40800, Note Name: D#5
Note ON: Time 40880, Note Name: C5, Velocity: 51
Note OFF: Time 40960, Note Name: C5
Note ON: Time 40960, Note Name: D#5, Velocity: 51
Note OFF: Time 41040, Note Name: D#5
Note ON: Time 41040, Note Name: G4, Velocity: 52
Note OFF: Time 41120, Note Name: G4
Note ON: Time 41120, Note Name: C5, Velocity: 53
Note OFF: Time 41200, Note Name: C5
Note ON: Time 41200, Note Name: D#5, Velocity: 53
Note OFF: Time 41280, Note Name: D#5
Note ON: Time 41360, Note Name: C5, Velocity: 50
Note OFF: Time 41440, Note Name: C5
Note ON: Time 41440, Note Name: D5, Velocity: 49
Note OFF: Time 41520, Note Name: D5
Note ON: Time 41520, Note Name: F4, Velocity: 48
Note OFF: Time 41600, Note Name: F4
Note ON: Time 41600, Note Name: C5, Velocity: 47
Note OFF: Time 41680, Note Name: C5
Note ON: Time 41680, Note Name: D5, Velocity: 46
Note OFF: Time 41760, Note Name: D5
Note ON: Time 41840, Note Name: B4, Velocity: 44
Note OFF: Time 41920, Note Name: B4
Note ON: Time 41920, Note Name: D5, Velocity: 42
Note OFF: Time 42000, Note Name: D5
Note ON: Time 42000, Note Name: F4, Velocity: 41
Note OFF: Time 42080, Note Name: F4
Note ON: Time 42080, Note Name: B4, Velocity: 40
Note OFF: Time 42160, Note Name: B4
Note ON: Time 42160, Note Name: D5, Velocity: 39
Note OFF: Time 42240, Note Name: D5
Note ON: Time 42320, Note Name: G4, Velocity: 28
Note OFF: Time 42400, Note Name: G4
Note ON: Time 42400, Note Name: C5, Velocity: 28
Note OFF: Time 42480, Note Name: C5
Note ON: Time 42480, Note Name: E4, Velocity: 28
Note OFF: Time 42560, Note Name: E4
Note ON: Time 42560, Note Name: G4, Velocity: 29
Note OFF: Time 42640, Note Name: G4
Note ON: Time 42640, Note Name: C5, Velocity: 29
Note OFF: Time 42720, Note Name: C5
Note ON: Time 42800, Note Name: G#4, Velocity: 30
Note OFF: Time 42880, Note Name: G#4
Note ON: Time 42880, Note Name: B4, Velocity: 30
Note OFF: Time 42960, Note Name: B4
Note ON: Time 42960, Note Name: D4, Velocity: 30
Note OFF: Time 43040, Note Name: D4
Note ON: Time 43040, Note Name: G#4, Velocity: 31
Note OFF: Time 43120, Note Name: G#4
Note ON: Time 43120, Note Name: B4, Velocity: 31
Note OFF: Time 43200, Note Name: B4
Note ON: Time 43280, Note Name: G#4, Velocity: 33
Note OFF: Time 43360, Note Name: G#4
Note ON: Time 43360, Note Name: B4, Velocity: 31
Note OFF: Time 43440, Note Name: B4
Note ON: Time 43440, Note Name: F4, Velocity: 31
Note OFF: Time 43520, Note Name: F4
Note ON: Time 43520, Note Name: G#4, Velocity: 31
Note OFF: Time 43600, Note Name: G#4
Note ON: Time 43600, Note Name: B4, Velocity: 30
Note OFF: Time 43680, Note Name: B4
Note ON: Time 43760, Note Name: G#4, Velocity: 29
Note OFF: Time 43840, Note Name: G#4
Note ON: Time 43840, Note Name: B4, Velocity: 29
Note OFF: Time 43920, Note Name: B4
Note ON: Time 43920, Note Name: E4, Velocity: 29
Note OFF: Time 44000, Note Name: E4
Note ON: Time 44000, Note Name: G#4, Velocity: 28
Note OFF: Time 44080, Note Name: G#4
Note ON: Time 44080, Note Name: B4, Velocity: 28
Note OFF: Time 44160, Note Name: B4
Note ON: Time 44240, Note Name: G4, Velocity: 29
Note OFF: Time 44320, Note Name: G4
Note ON: Time 44320, Note Name: C5, Velocity: 30
Note OFF: Time 44400, Note Name: C5
Note ON: Time 44400, Note Name: E4, Velocity: 31
Note OFF: Time 44480, Note Name: E4
Note ON: Time 44480, Note Name: G4, Velocity: 31
Note OFF: Time 44560, Note Name: G4
Note ON: Time 44560, Note Name: C5, Velocity: 33
Note OFF: Time 44640, Note Name: C5
Note ON: Time 44720, Note Name: G#4, Velocity: 34
Note OFF: Time 44800, Note Name: G#4
Note ON: Time 44800, Note Name: B4, Velocity: 35
Note OFF: Time 44880, Note Name: B4
Note ON: Time 44880, Note Name: D4, Velocity: 36
Note OFF: Time 44960, Note Name: D4
Note ON: Time 44960, Note Name: G#4, Velocity: 36
Note OFF: Time 45040, Note Name: G#4
Note ON: Time 45040, Note Name: B4, Velocity: 37
Note OFF: Time 45120, Note Name: B4
Note ON: Time 45200, Note Name: G#4, Velocity: 37
Note OFF: Time 45280, Note Name: G#4
Note ON: Time 45280, Note Name: B4, Velocity: 36
Note OFF: Time 45360, Note Name: B4
Note ON: Time 45360, Note Name: F4, Velocity: 36
Note OFF: Time 45440, Note Name: F4
Note ON: Time 45440, Note Name: G#4, Velocity: 36
Note OFF: Time 45520, Note Name: G#4
Note ON: Time 45520, Note Name: B4, Velocity: 34
Note OFF: Time 45600, Note Name: B4
Note ON: Time 45680, Note Name: G#4, Velocity: 33
Note OFF: Time 45760, Note Name: G#4
Note ON: Time 45760, Note Name: B4, Velocity: 33
Note OFF: Time 45840, Note Name: B4
Note ON: Time 45840, Note Name: E4, Velocity: 31
Note OFF: Time 45920, Note Name: E4
Note ON: Time 45920, Note Name: G#4, Velocity: 31
Note OFF: Time 46000, Note Name: G#4
Note ON: Time 46000, Note Name: B4, Velocity: 31
Note OFF: Time 46080, Note Name: B4
Note ON: Time 46160, Note Name: A4, Velocity: 29
Note OFF: Time 46240, Note Name: A4
Note ON: Time 46240, Note Name: C#5, Velocity: 30
Note OFF: Time 46320, Note Name: C#5
Note ON: Time 46320, Note Name: E4, Velocity: 31
Note OFF: Time 46400, Note Name: E4
Note ON: Time 46400, Note Name: A4, Velocity: 31
Note OFF: Time 46480, Note Name: A4
Note ON: Time 46480, Note Name: C#5, Velocity: 33
Note OFF: Time 46560, Note Name: C#5
Note ON: Time 46640, Note Name: A4, Velocity: 34
Note OFF: Time 46720, Note Name: A4
Note ON: Time 46720, Note Name: B4, Velocity: 35
Note OFF: Time 46800, Note Name: B4
Note ON: Time 46800, Note Name: D4, Velocity: 36
Note OFF: Time 46880, Note Name: D4
Note ON: Time 46880, Note Name: A4, Velocity: 36
Note OFF: Time 46960, Note Name: A4
Note ON: Time 46960, Note Name: B4, Velocity: 37
Note OFF: Time 47040, Note Name: B4
Note ON: Time 47120, Note Name: A4, Velocity: 37
Note OFF: Time 47200, Note Name: A4
Note ON: Time 47200, Note Name: B4, Velocity: 36
Note OFF: Time 47280, Note Name: B4
Note ON: Time 47280, Note Name: F#4, Velocity: 36
Note OFF: Time 47360, Note Name: F#4
Note ON: Time 47360, Note Name: A4, Velocity: 36
Note OFF: Time 47440, Note Name: A4
Note ON: Time 47440, Note Name: B4, Velocity: 34
Note OFF: Time 47520, Note Name: B4
Note ON: Time 47600, Note Name: G#4, Velocity: 33
Note OFF: Time 47680, Note Name: G#4
Note ON: Time 47680, Note Name: D5, Velocity: 33
Note OFF: Time 47760, Note Name: D5
Note ON: Time 47760, Note Name: E4, Velocity: 31
Note OFF: Time 47840, Note Name: E4
Note ON: Time 47840, Note Name: G#4, Velocity: 31
Note OFF: Time 47920, Note Name: G#4
Note ON: Time 47920, Note Name: D5, Velocity: 31
Note OFF: Time 48000, Note Name: D5
Note ON: Time 48080, Note Name: A4, Velocity: 36
Note OFF: Time 48160, Note Name: A4
Note ON: Time 48160, Note Name: C#5, Velocity: 36
Note OFF: Time 48240, Note Name: C#5
Note ON: Time 48240, Note Name: E4, Velocity: 38
Note OFF: Time 48320, Note Name: E4
Note ON: Time 48320, Note Name: A4, Velocity: 38
Note OFF: Time 48400, Note Name: A4
Note ON: Time 48400, Note Name: C#5, Velocity: 39
Note OFF: Time 48480, Note Name: C#5
Note ON: Time 48560, Note Name: C#5, Velocity: 40
Note OFF: Time 48640, Note Name: C#5
Note ON: Time 48640, Note Name: E5, Velocity: 40
Note OFF: Time 48720, Note Name: E5
Note ON: Time 48720, Note Name: A4, Velocity: 42
Note OFF: Time 48800, Note Name: A4
Note ON: Time 48800, Note Name: C#5, Velocity: 42
Note OFF: Time 48880, Note Name: C#5
Note ON: Time 48880, Note Name: E5, Velocity: 44
Note OFF: Time 48960, Note Name: E5
Note ON: Time 49040, Note Name: D#5, Velocity: 45
Note OFF: Time 49120, Note Name: D#5
Note ON: Time 49120, Note Name: F#5, Velocity: 45
Note OFF: Time 49200, Note Name: F#5
Note ON: Time 49200, Note Name: A4, Velocity: 46
Note OFF: Time 49280, Note Name: A4
Note ON: Time 49280, Note Name: D#5, Velocity: 46
Note OFF: Time 49360, Note Name: D#5
Note ON: Time 49360, Note Name: F#5, Velocity: 48
Note OFF: Time 49440, Note Name: F#5
Note ON: Time 49520, Note Name: D#5, Velocity: 49
Note OFF: Time 49600, Note Name: D#5
Note ON: Time 49600, Note Name: F#5, Velocity: 49
Note OFF: Time 49680, Note Name: F#5
Note ON: Time 49680, Note Name: G#4, Velocity: 50
Note OFF: Time 49760, Note Name: G#4
Note ON: Time 49760, Note Name: D#5, Velocity: 50
Note OFF: Time 49840, Note Name: D#5
Note ON: Time 49840, Note Name: F#5, Velocity: 52
Note OFF: Time 49920, Note Name: F#5
Note ON: Time 50000, Note Name: C#5, Velocity: 52
Note OFF: Time 50080, Note Name: C#5
Note ON: Time 50080, Note Name: F5, Velocity: 53
Note OFF: Time 50160, Note Name: F5
Note ON: Time 50160, Note Name: F4, Velocity: 53
Note OFF: Time 50240, Note Name: F4
Note ON: Time 50240, Note Name: C#5, Velocity: 53
Note OFF: Time 50320, Note Name: C#5
Note ON: Time 50320, Note Name: F5, Velocity: 55
Note OFF: Time 50400, Note Name: F5
Note ON: Time 50480, Note Name: C#5, Velocity: 57
Note OFF: Time 50560, Note Name: C#5
Note ON: Time 50560, Note Name: F5, Velocity: 57
Note OFF: Time 50640, Note Name: F5
Note ON: Time 50640, Note Name: F4, Velocity: 58
Note OFF: Time 50720, Note Name: F4
Note ON: Time 50720, Note Name: C#5, Velocity: 58
Note OFF: Time 50800, Note Name: C#5
Note ON: Time 50800, Note Name: F5, Velocity: 59
Note OFF: Time 50880, Note Name: F5
Note ON: Time 50960, Note Name: A#4, Velocity: 59
Note OFF: Time 51040, Note Name: A#4
Note ON: Time 51040, Note Name: C#5, Velocity: 60
Note OFF: Time 51120, Note Name: C#5
Note ON: Time 51120, Note Name: F4, Velocity: 60
Note OFF: Time 51200, Note Name: F4
Note ON: Time 51200, Note Name: A#4, Velocity: 62
Note OFF: Time 51280, Note Name: A#4
Note ON: Time 51280, Note Name: C#5, Velocity: 62
Note OFF: Time 51360, Note Name: C#5
Note ON: Time 51440, Note Name: A#4, Velocity: 53
Note OFF: Time 51520, Note Name: A#4
Note ON: Time 51520, Note Name: C#5, Velocity: 53
Note OFF: Time 51600, Note Name: C#5
Note ON: Time 51600, Note Name: F4, Velocity: 53
Note OFF: Time 51680, Note Name: F4
Note ON: Time 51680, Note Name: A#4, Velocity: 52
Note OFF: Time 51760, Note Name: A#4
Note ON: Time 51760, Note Name: C#5, Velocity: 53
Note OFF: Time 51840, Note Name: C#5
Note ON: Time 51920, Note Name: C5, Velocity: 52
Note OFF: Time 52000, Note Name: C5
Note ON: Time 52000, Note Name: D#5, Velocity: 53
Note OFF: Time 52080, Note Name: D#5
Note ON: Time 52080, Note Name: D#4, Velocity: 53
Note OFF: Time 52160, Note Name: D#4
Note ON: Time 52160, Note Name: C5, Velocity: 53
Note OFF: Time 52240, Note Name: C5
Note ON: Time 52240, Note Name: D#5, Velocity: 55
Note OFF: Time 52320, Note Name: D#5
Note ON: Time 52400, Note Name: C5, Velocity: 57
Note OFF: Time 52480, Note Name: C5
Note ON: Time 52480, Note Name: D#5, Velocity: 57
Note OFF: Time 52560, Note Name: D#5
Note ON: Time 52560, Note Name: D#4, Velocity: 58
Note OFF: Time 52640, Note Name: D#4
Note ON: Time 52640, Note Name: C5, Velocity: 58
Note OFF: Time 52720, Note Name: C5
Note ON: Time 52720, Note Name: D#5, Velocity: 59
Note OFF: Time 52800, Note Name: D#5
Note ON: Time 52880, Note Name: G#4, Velocity: 59
Note OFF: Time 52960, Note Name: G#4
Note ON: Time 52960, Note Name: C5, Velocity: 60
Note OFF: Time 53040, Note Name: C5
Note ON: Time 53040, Note Name: D#4, Velocity: 60
Note OFF: Time 53120, Note Name: D#4
Note ON: Time 53120, Note Name: G#4, Velocity: 62
Note OFF: Time 53200, Note Name: G#4
Note ON: Time 53200, Note Name: C5, Velocity: 62
Note OFF: Time 53280, Note Name: C5
Note ON: Time 53360, Note Name: G#4, Velocity: 57
Note OFF: Time 53440, Note Name: G#4
Note ON: Time 53440, Note Name: C5, Velocity: 57
Note OFF: Time 53520, Note Name: C5
Note ON: Time 53520, Note Name: D#4, Velocity: 57
Note OFF: Time 53600, Note Name: D#4
Note ON: Time 53600, Note Name: G#4, Velocity: 57
Note OFF: Time 53680, Note Name: G#4
Note ON: Time 53680, Note Name: C5, Velocity: 57
Note OFF: Time 53760, Note Name: C5
Note ON: Time 53840, Note Name: G4, Velocity: 52
Note OFF: Time 53920, Note Name: G4
Note ON: Time 53920, Note Name: A#4, Velocity: 53
Note OFF: Time 54000, Note Name: A#4
Note ON: Time 54000, Note Name: C#4, Velocity: 53
Note OFF: Time 54080, Note Name: C#4
Note ON: Time 54080, Note Name: G4, Velocity: 53
Note OFF: Time 54160, Note Name: G4
Note ON: Time 54160, Note Name: A#4, Velocity: 55
Note OFF: Time 54240, Note Name: A#4
Note ON: Time 54320, Note Name: G4, Velocity: 57
Note OFF: Time 54400, Note Name: G4
Note ON: Time 54400, Note Name: A#4, Velocity: 57
Note OFF: Time 54480, Note Name: A#4
Note ON: Time 54480, Note Name: C#4, Velocity: 58
Note OFF: Time 54560, Note Name: C#4
Note ON: Time 54560, Note Name: G4, Velocity: 58
Note OFF: Time 54640, Note Name: G4
Note ON: Time 54640, Note Name: A#4, Velocity: 59
Note OFF: Time 54720, Note Name: A#4
Note ON: Time 54800, Note Name: G4, Velocity: 59
Note OFF: Time 54880, Note Name: G4
Note ON: Time 54880, Note Name: A#4, Velocity: 60
Note OFF: Time 54960, Note Name: A#4
Note ON: Time 54960, Note Name: C#4, Velocity: 60
Note OFF: Time 55040, Note Name: C#4
Note ON: Time 55040, Note Name: G4, Velocity: 62
Note OFF: Time 55120, Note Name: G4
Note ON: Time 55120, Note Name: A#4, Velocity: 62
Note OFF: Time 55200, Note Name: A#4
Note ON: Time 55280, Note Name: G4, Velocity: 57
Note OFF: Time 55360, Note Name: G4
Note ON: Time 55360, Note Name: A#4, Velocity: 57
Note OFF: Time 55440, Note Name: A#4
Note ON: Time 55440, Note Name: C#4, Velocity: 57
Note OFF: Time 55520, Note Name: C#4
Note ON: Time 55520, Note Name: G4, Velocity: 57
Note OFF: Time 55600, Note Name: G4
Note ON: Time 55600, Note Name: A#4, Velocity: 57
Note OFF: Time 55680, Note Name: A#4
Note ON: Time 55760, Note Name: F4, Velocity: 50
Note OFF: Time 55840, Note Name: F4
Note ON: Time 55840, Note Name: G#4, Velocity: 50
Note OFF: Time 55920, Note Name: G#4
Note ON: Time 55920, Note Name: C#4, Velocity: 50
Note OFF: Time 56000, Note Name: C#4
Note ON: Time 56000, Note Name: F4, Velocity: 50
Note OFF: Time 56080, Note Name: F4
Note ON: Time 56080, Note Name: G#4, Velocity: 50
Note OFF: Time 56160, Note Name: G#4
Note ON: Time 56240, Note Name: F4, Velocity: 49
Note OFF: Time 56320, Note Name: F4
Note ON: Time 56320, Note Name: G#4, Velocity: 49
Note OFF: Time 56400, Note Name: G#4
Note ON: Time 56400, Note Name: C4, Velocity: 49
Note OFF: Time 56480, Note Name: C4
Note ON: Time 56480, Note Name: F4, Velocity: 49
Note OFF: Time 56560, Note Name: F4
Note ON: Time 56560, Note Name: G#4, Velocity: 49
Note OFF: Time 56640, Note Name: G#4
Note ON: Time 56720, Note Name: D#4, Velocity: 48
Note OFF: Time 56800, Note Name: D#4
Note ON: Time 56800, Note Name: F4, Velocity: 48
Note OFF: Time 56880, Note Name: F4
Note ON: Time 56880, Note Name: C4, Velocity: 48
Note OFF: Time 56960, Note Name: C4
Note ON: Time 56960, Note Name: D#4, Velocity: 48
Note OFF: Time 57040, Note Name: D#4
Note ON: Time 57040, Note Name: F4, Velocity: 48
Note OFF: Time 57120, Note Name: F4
Note ON: Time 57200, Note Name: D#5, Velocity: 49
Note OFF: Time 57280, Note Name: D#5
Note ON: Time 57280, Note Name: F5, Velocity: 49
Note OFF: Time 57360, Note Name: F5
Note ON: Time 57360, Note Name: C5, Velocity: 50
Note OFF: Time 57440, Note Name: C5
Note ON: Time 57440, Note Name: D#5, Velocity: 50
Note OFF: Time 57520, Note Name: D#5
Note ON: Time 57520, Note Name: F5, Velocity: 52
Note OFF: Time 57600, Note Name: F5
Note ON: Time 57680, Note Name: C#5, Velocity: 52
Note OFF: Time 57760, Note Name: C#5
Note ON: Time 57760, Note Name: F5, Velocity: 53
Note OFF: Time 57840, Note Name: F5
Note ON: Time 57840, Note Name: F4, Velocity: 53
Note OFF: Time 57920, Note Name: F4
Note ON: Time 57920, Note Name: C#5, Velocity: 53
Note OFF: Time 58000, Note Name: C#5
Note ON: Time 58000, Note Name: F5, Velocity: 55
Note OFF: Time 58080, Note Name: F5
Note ON: Time 58160, Note Name: C#5, Velocity: 57
Note OFF: Time 58240, Note Name: C#5
Note ON: Time 58240, Note Name: F5, Velocity: 57
Note OFF: Time 58320, Note Name: F5
Note ON: Time 58320, Note Name: F4, Velocity: 58
Note OFF: Time 58400, Note Name: F4
Note ON: Time 58400, Note Name: C#5, Velocity: 58
Note OFF: Time 58480, Note Name: C#5
Note ON: Time 58480, Note Name: F5, Velocity: 59
Note OFF: Time 58560, Note Name: F5
Note ON: Time 58640, Note Name: A#4, Velocity: 57
Note OFF: Time 58720, Note Name: A#4
Note ON: Time 58720, Note Name: C#5, Velocity: 57
Note OFF: Time 58800, Note Name: C#5
Note ON: Time 58800, Note Name: E4, Velocity: 55
Note OFF: Time 58880, Note Name: E4
Note ON: Time 58880, Note Name: A#4, Velocity: 55
Note OFF: Time 58960, Note Name: A#4
Note ON: Time 58960, Note Name: C#5, Velocity: 55
Note OFF: Time 59040, Note Name: C#5
Note ON: Time 59120, Note Name: A#4, Velocity: 53
Note OFF: Time 59200, Note Name: A#4
Note ON: Time 59200, Note Name: C#5, Velocity: 53
Note OFF: Time 59280, Note Name: C#5
Note ON: Time 59280, Note Name: E4, Velocity: 53
Note OFF: Time 59360, Note Name: E4
Note ON: Time 59360, Note Name: A#4, Velocity: 52
Note OFF: Time 59440, Note Name: A#4
Note ON: Time 59440, Note Name: C#5, Velocity: 53
Note OFF: Time 59520, Note Name: C#5
Note ON: Time 59600, Note Name: C5, Velocity: 52
Note OFF: Time 59680, Note Name: C5
Note ON: Time 59680, Note Name: D#5, Velocity: 53
Note OFF: Time 59760, Note Name: D#5
Note ON: Time 59760, Note Name: D#4, Velocity: 53
Note OFF: Time 59840, Note Name: D#4
Note ON: Time 59840, Note Name: C5, Velocity: 53
Note OFF: Time 59920, Note Name: C5
Note ON: Time 59920, Note Name: D#5, Velocity: 55
Note OFF: Time 60000, Note Name: D#5
Note ON: Time 60080, Note Name: C5, Velocity: 52
Note OFF: Time 60160, Note Name: C5
Note ON: Time 60160, Note Name: D#5, Velocity: 52
Note OFF: Time 60240, Note Name: D#5
Note ON: Time 60240, Note Name: D#4, Velocity: 53
Note OFF: Time 60320, Note Name: D#4
Note ON: Time 60320, Note Name: C5, Velocity: 53
Note OFF: Time 60400, Note Name: C5
Note ON: Time 60400, Note Name: D#5, Velocity: 53
Note OFF: Time 60480, Note Name: D#5
Note ON: Time 60560, Note Name: G#4, Velocity: 55
Note OFF: Time 60640, Note Name: G#4
Note ON: Time 60640, Note Name: C5, Velocity: 56
Note OFF: Time 60720, Note Name: C5
Note ON: Time 60720, Note Name: D#4, Velocity: 56
Note OFF: Time 60800, Note Name: D#4
Note ON: Time 60800, Note Name: G#4, Velocity: 56
Note OFF: Time 60880, Note Name: G#4
Note ON: Time 60880, Note Name: C5, Velocity: 57
Note OFF: Time 60960, Note Name: C5
Note ON: Time 61040, Note Name: G#4, Velocity: 58
Note OFF: Time 61120, Note Name: G#4
Note ON: Time 61120, Note Name: C5, Velocity: 57
Note OFF: Time 61200, Note Name: C5
Note ON: Time 61200, Note Name: D#4, Velocity: 57
Note OFF: Time 61280, Note Name: D#4
Note ON: Time 61280, Note Name: G#4, Velocity: 57
Note OFF: Time 61360, Note Name: G#4
Note ON: Time 61360, Note Name: C5, Velocity: 57
Note OFF: Time 61440, Note Name: C5
Note ON: Time 61520, Note Name: A4, Velocity: 40
Note OFF: Time 61600, Note Name: A4
Note ON: Time 61600, Note Name: C5, Velocity: 41
Note OFF: Time 61680, Note Name: C5
Note ON: Time 61680, Note Name: D#4, Velocity: 41
Note OFF: Time 61760, Note Name: D#4
Note ON: Time 61760, Note Name: A4, Velocity: 42
Note OFF: Time 61840, Note Name: A4
Note ON: Time 61840, Note Name: C5, Velocity: 42
Note OFF: Time 61920, Note Name: C5
Note ON: Time 62000, Note Name: A4, Velocity: 45
Note OFF: Time 62080, Note Name: A4
Note ON: Time 62080, Note Name: C5, Velocity: 45
Note OFF: Time 62160, Note Name: C5
Note ON: Time 62160, Note Name: D#4, Velocity: 46
Note OFF: Time 62240, Note Name: D#4
Note ON: Time 62240, Note Name: A4, Velocity: 46
Note OFF: Time 62320, Note Name: A4
Note ON: Time 62320, Note Name: C5, Velocity: 47
Note OFF: Time 62400, Note Name: C5
Note ON: Time 62480, Note Name: A4, Velocity: 48
Note OFF: Time 62560, Note Name: A4
Note ON: Time 62560, Note Name: C5, Velocity: 49
Note OFF: Time 62640, Note Name: C5
Note ON: Time 62640, Note Name: D#4, Velocity: 49
Note OFF: Time 62720, Note Name: D#4
Note ON: Time 62720, Note Name: A4, Velocity: 50
Note OFF: Time 62800, Note Name: A4
Note ON: Time 62800, Note Name: C5, Velocity: 51
Note OFF: Time 62880, Note Name: C5
Note ON: Time 62960, Note Name: A4, Velocity: 48
Note OFF: Time 63040, Note Name: A4
Note ON: Time 63040, Note Name: C5, Velocity: 47
Note OFF: Time 63120, Note Name: C5
Note ON: Time 63120, Note Name: D#4, Velocity: 45
Note OFF: Time 63200, Note Name: D#4
Note ON: Time 63200, Note Name: A4, Velocity: 44
Note OFF: Time 63280, Note Name: A4
Note ON: Time 63280, Note Name: C5, Velocity: 41
Note OFF: Time 63360, Note Name: C5
Note ON: Time 63440, Note Name: A#4, Velocity: 47
Note OFF: Time 63520, Note Name: A#4
Note ON: Time 63520, Note Name: C#5, Velocity: 47
Note OFF: Time 63600, Note Name: C#5
Note ON: Time 63600, Note Name: C#4, Velocity: 48
Note OFF: Time 63680, Note Name: C#4
Note ON: Time 63680, Note Name: A#4, Velocity: 48
Note OFF: Time 63760, Note Name: A#4
Note ON: Time 63760, Note Name: C#5, Velocity: 49
Note OFF: Time 63840, Note Name: C#5
Note ON: Time 63920, Note Name: A#4, Velocity: 50
Note OFF: Time 64000, Note Name: A#4
Note ON: Time 64000, Note Name: C#5, Velocity: 51
Note OFF: Time 64080, Note Name: C#5
Note ON: Time 64080, Note Name: F4, Velocity: 51
Note OFF: Time 64160, Note Name: F4
Note ON: Time 64160, Note Name: A#4, Velocity: 52
Note OFF: Time 64240, Note Name: A#4
Note ON: Time 64240, Note Name: C#5, Velocity: 52
Note OFF: Time 64320, Note Name: C#5
Note ON: Time 64400, Note Name: B4, Velocity: 53
Note OFF: Time 64480, Note Name: B4
Note ON: Time 64480, Note Name: C#5, Velocity: 55
Note OFF: Time 64560, Note Name: C#5
Note ON: Time 64560, Note Name: F4, Velocity: 56
Note OFF: Time 64640, Note Name: F4
Note ON: Time 64640, Note Name: B4, Velocity: 56
Note OFF: Time 64720, Note Name: B4
Note ON: Time 64720, Note Name: C#5, Velocity: 57
Note OFF: Time 64800, Note Name: C#5
Note ON: Time 64880, Note Name: B4, Velocity: 57
Note OFF: Time 64960, Note Name: B4
Note ON: Time 64960, Note Name: C#5, Velocity: 55
Note OFF: Time 65040, Note Name: C#5
Note ON: Time 65040, Note Name: F4, Velocity: 53
Note OFF: Time 65120, Note Name: F4
Note ON: Time 65120, Note Name: B4, Velocity: 52
Note OFF: Time 65200, Note Name: B4
Note ON: Time 65200, Note Name: C#5, Velocity: 51
Note OFF: Time 65280, Note Name: C#5
Note ON: Time 65360, Note Name: C5, Velocity: 52
Note OFF: Time 65440, Note Name: C5
Note ON: Time 65440, Note Name: D#5, Velocity: 52
Note OFF: Time 65520, Note Name: D#5
Note ON: Time 65520, Note Name: D#4, Velocity: 52
Note OFF: Time 65600, Note Name: D#4
Note ON: Time 65600, Note Name: C5, Velocity: 52
Note OFF: Time 65680, Note Name: C5
Note ON: Time 65680, Note Name: D#5, Velocity: 53
Note OFF: Time 65760, Note Name: D#5
Note ON: Time 65840, Note Name: C5, Velocity: 55
Note OFF: Time 65920, Note Name: C5
Note ON: Time 65920, Note Name: D#5, Velocity: 55
Note OFF: Time 66000, Note Name: D#5
Note ON: Time 66000, Note Name: G#4, Velocity: 56
Note OFF: Time 66080, Note Name: G#4
Note ON: Time 66080, Note Name: C5, Velocity: 56
Note OFF: Time 66160, Note Name: C5
Note ON: Time 66160, Note Name: D#5, Velocity: 56
Note OFF: Time 66240, Note Name: D#5
Note ON: Time 66320, Note Name: C5, Velocity: 58
Note OFF: Time 66400, Note Name: C5
Note ON: Time 66400, Note Name: D#5, Velocity: 59
Note OFF: Time 66480, Note Name: D#5
Note ON: Time 66480, Note Name: A4, Velocity: 60
Note OFF: Time 66560, Note Name: A4
Note ON: Time 66560, Note Name: C5, Velocity: 60
Note OFF: Time 66640, Note Name: C5
Note ON: Time 66640, Note Name: D#5, Velocity: 61
Note OFF: Time 66720, Note Name: D#5
Note ON: Time 66800, Note Name: A5, Velocity: 58
Note OFF: Time 66880, Note Name: A5
Note ON: Time 66880, Note Name: C6, Velocity: 59
Note OFF: Time 66960, Note Name: C6
Note ON: Time 66960, Note Name: D#5, Velocity: 59
Note OFF: Time 67040, Note Name: D#5
Note ON: Time 67040, Note Name: A5, Velocity: 59
Note OFF: Time 67120, Note Name: A5
Note ON: Time 67120, Note Name: C6, Velocity: 60
Note OFF: Time 67200, Note Name: C6
Note ON: Time 67280, Note Name: F5, Velocity: 58
Note OFF: Time 67360, Note Name: F5
Note ON: Time 67360, Note Name: G#5, Velocity: 58
Note OFF: Time 67440, Note Name: G#5
Note ON: Time 67440, Note Name: A#4, Velocity: 58
Note OFF: Time 67520, Note Name: A#4
Note ON: Time 67520, Note Name: F5, Velocity: 58
Note OFF: Time 67600, Note Name: F5
Note ON: Time 67600, Note Name: G#5, Velocity: 58
Note OFF: Time 67680, Note Name: G#5
Note ON: Time 67760, Note Name: F5, Velocity: 58
Note OFF: Time 67840, Note Name: F5
Note ON: Time 67840, Note Name: G#5, Velocity: 58
Note OFF: Time 67920, Note Name: G#5
Note ON: Time 67920, Note Name: A#4, Velocity: 58
Note OFF: Time 68000, Note Name: A#4
Note ON: Time 68000, Note Name: F5, Velocity: 58
Note OFF: Time 68080, Note Name: F5
Note ON: Time 68080, Note Name: G#5, Velocity: 58
Note OFF: Time 68160, Note Name: G#5
Note ON: Time 68240, Note Name: E5, Velocity: 60
Note OFF: Time 68320, Note Name: E5
Note ON: Time 68320, Note Name: G#5, Velocity: 61
Note OFF: Time 68400, Note Name: G#5
Note ON: Time 68400, Note Name: A#4, Velocity: 61
Note OFF: Time 68480, Note Name: A#4
Note ON: Time 68480, Note Name: E5, Velocity: 61
Note OFF: Time 68560, Note Name: E5
Note ON: Time 68560, Note Name: G#5, Velocity: 61
Note OFF: Time 68640, Note Name: G#5
Note ON: Time 68720, Note Name: C#5, Velocity: 58
Note OFF: Time 68800, Note Name: C#5
Note ON: Time 68800, Note Name: D#5, Velocity: 57
Note OFF: Time 68880, Note Name: D#5
Note ON: Time 68880, Note Name: G4, Velocity: 56
Note OFF: Time 68960, Note Name: G4
Note ON: Time 68960, Note Name: C#5, Velocity: 55
Note OFF: Time 69040, Note Name: C#5
Note ON: Time 69040, Note Name: D#5, Velocity: 55
Note OFF: Time 69120, Note Name: D#5
Note ON: Time 69200, Note Name: G#4, Velocity: 44
Note OFF: Time 69280, Note Name: G#4
Note ON: Time 69280, Note Name: C5, Velocity: 41
Note OFF: Time 69360, Note Name: C5
Note ON: Time 69360, Note Name: D#4, Velocity: 39
Note OFF: Time 69440, Note Name: D#4
Note ON: Time 69440, Note Name: G#4, Velocity: 38
Note OFF: Time 69520, Note Name: G#4
Note ON: Time 69520, Note Name: C5, Velocity: 36
Note OFF: Time 69600, Note Name: C5
Note ON: Time 69680, Note Name: G#4, Velocity: 33
Note OFF: Time 69760, Note Name: G#4
Note ON: Time 69760, Note Name: C5, Velocity: 34
Note OFF: Time 69840, Note Name: C5
Note ON: Time 69840, Note Name: D#4, Velocity: 34
Note OFF: Time 69920, Note Name: D#4
Note ON: Time 69920, Note Name: G#4, Velocity: 35
Note OFF: Time 70000, Note Name: G#4
Note ON: Time 70000, Note Name: C5, Velocity: 35
Note OFF: Time 70080, Note Name: C5
Note ON: Time 70160, Note Name: G#4, Velocity: 36
Note OFF: Time 70240, Note Name: G#4
Note ON: Time 70240, Note Name: C5, Velocity: 37
Note OFF: Time 70320, Note Name: C5
Note ON: Time 70320, Note Name: D#4, Velocity: 37
Note OFF: Time 70400, Note Name: D#4
Note ON: Time 70400, Note Name: G#4, Velocity: 38
Note OFF: Time 70480, Note Name: G#4
Note ON: Time 70480, Note Name: C5, Velocity: 38
Note OFF: Time 70560, Note Name: C5
Note ON: Time 70640, Note Name: G#4, Velocity: 39
Note OFF: Time 70720, Note Name: G#4
Note ON: Time 70720, Note Name: C5, Velocity: 40
Note OFF: Time 70800, Note Name: C5
Note ON: Time 70800, Note Name: D#4, Velocity: 40
Note OFF: Time 70880, Note Name: D#4
Note ON: Time 70880, Note Name: G#4, Velocity: 41
Note OFF: Time 70960, Note Name: G#4
Note ON: Time 70960, Note Name: C5, Velocity: 41
Note OFF: Time 71040, Note Name: C5
Note ON: Time 71120, Note Name: A#4, Velocity: 47
Note OFF: Time 71200, Note Name: A#4
Note ON: Time 71200, Note Name: C#5, Velocity: 41
Note OFF: Time 71280, Note Name: C#5
Note ON: Time 71280, Note Name: F4, Velocity: 41
Note OFF: Time 71360, Note Name: F4
Note ON: Time 71360, Note Name: A#4, Velocity: 42
Note OFF: Time 71440, Note Name: A#4
Note ON: Time 71440, Note Name: C#5, Velocity: 44
Note OFF: Time 71520, Note Name: C#5
Note ON: Time 71600, Note Name: A#4, Velocity: 44
Note OFF: Time 71680, Note Name: A#4
Note ON: Time 71680, Note Name: C#5, Velocity: 44
Note OFF: Time 71760, Note Name: C#5
Note ON: Time 71760, Note Name: D#4, Velocity: 44
Note OFF: Time 71840, Note Name: D#4
Note ON: Time 71840, Note Name: A#4, Velocity: 44
Note OFF: Time 71920, Note Name: A#4
Note ON: Time 71920, Note Name: C#5, Velocity: 44
Note OFF: Time 72000, Note Name: C#5
Note ON: Time 72080, Note Name: A#4, Velocity: 44
Note OFF: Time 72160, Note Name: A#4
Note ON: Time 72160, Note Name: C#5, Velocity: 44
Note OFF: Time 72240, Note Name: C#5
Note ON: Time 72240, Note Name: D#4, Velocity: 44
Note OFF: Time 72320, Note Name: D#4
Note ON: Time 72320, Note Name: A#4, Velocity: 44
Note OFF: Time 72400, Note Name: A#4
Note ON: Time 72400, Note Name: C#5, Velocity: 44
Note OFF: Time 72480, Note Name: C#5
Note ON: Time 72560, Note Name: A#4, Velocity: 42
Note OFF: Time 72640, Note Name: A#4
Note ON: Time 72640, Note Name: C#5, Velocity: 40
Note OFF: Time 72720, Note Name: C#5
Note ON: Time 72720, Note Name: D#4, Velocity: 39
Note OFF: Time 72800, Note Name: D#4
Note ON: Time 72800, Note Name: A#4, Velocity: 38
Note OFF: Time 72880, Note Name: A#4
Note ON: Time 72880, Note Name: C#5, Velocity: 37
Note OFF: Time 72960, Note Name: C#5
Note ON: Time 73040, Note Name: G#4, Velocity: 36
Note OFF: Time 73120, Note Name: G#4
Note ON: Time 73120, Note Name: C5, Velocity: 36
Note OFF: Time 73200, Note Name: C5
Note ON: Time 73200, Note Name: D#4, Velocity: 36
Note OFF: Time 73280, Note Name: D#4
Note ON: Time 73280, Note Name: G#4, Velocity: 36
Note OFF: Time 73360, Note Name: G#4
Note ON: Time 73360, Note Name: C5, Velocity: 37
Note OFF: Time 73440, Note Name: C5
Note ON: Time 73520, Note Name: G#4, Velocity: 33
Note OFF: Time 73600, Note Name: G#4
Note ON: Time 73600, Note Name: C5, Velocity: 34
Note OFF: Time 73680, Note Name: C5
Note ON: Time 73680, Note Name: D#4, Velocity: 34
Note OFF: Time 73760, Note Name: D#4
Note ON: Time 73760, Note Name: G#4, Velocity: 35
Note OFF: Time 73840, Note Name: G#4
Note ON: Time 73840, Note Name: C5, Velocity: 35
Note OFF: Time 73920, Note Name: C5
Note ON: Time 74000, Note Name: G#4, Velocity: 36
Note OFF: Time 74080, Note Name: G#4
Note ON: Time 74080, Note Name: C5, Velocity: 37
Note OFF: Time 74160, Note Name: C5
Note ON: Time 74160, Note Name: D#4, Velocity: 37
Note OFF: Time 74240, Note Name: D#4
Note ON: Time 74240, Note Name: G#4, Velocity: 38
Note OFF: Time 74320, Note Name: G#4
Note ON: Time 74320, Note Name: C5, Velocity: 38
Note OFF: Time 74400, Note Name: C5
Note ON: Time 74480, Note Name: G#4, Velocity: 39
Note OFF: Time 74560, Note Name: G#4
Note ON: Time 74560, Note Name: C5, Velocity: 40
Note OFF: Time 74640, Note Name: C5
Note ON: Time 74640, Note Name: D#4, Velocity: 40
Note OFF: Time 74720, Note Name: D#4
Note ON: Time 74720, Note Name: G#4, Velocity: 41
Note OFF: Time 74800, Note Name: G#4
Note ON: Time 74800, Note Name: C5, Velocity: 41
Note OFF: Time 74880, Note Name: C5
Note ON: Time 74960, Note Name: A#4, Velocity: 44
Note OFF: Time 75040, Note Name: A#4
Note ON: Time 75040, Note Name: C#5, Velocity: 42
Note OFF: Time 75120, Note Name: C#5
Note ON: Time 75120, Note Name: D#4, Velocity: 42
Note OFF: Time 75200, Note Name: D#4
Note ON: Time 75200, Note Name: A#4, Velocity: 41
Note OFF: Time 75280, Note Name: A#4
Note ON: Time 75280, Note Name: C#5, Velocity: 40
Note OFF: Time 75360, Note Name: C#5
Note ON: Time 75440, Note Name: A#4, Velocity: 39
Note OFF: Time 75520, Note Name: A#4
Note ON: Time 75520, Note Name: C#5, Velocity: 39
Note OFF: Time 75600, Note Name: C#5
Note ON: Time 75600, Note Name: D#4, Velocity: 38
Note OFF: Time 75680, Note Name: D#4
Note ON: Time 75680, Note Name: A#4, Velocity: 37
Note OFF: Time 75760, Note Name: A#4
Note ON: Time 75760, Note Name: C#5, Velocity: 37
Note OFF: Time 75840, Note Name: C#5
Note ON: Time 75920, Note Name: A#4, Velocity: 31
Note OFF: Time 76000, Note Name: A#4
Note ON: Time 76000, Note Name: C#5, Velocity: 31
Note OFF: Time 76080, Note Name: C#5
Note ON: Time 76080, Note Name: D#4, Velocity: 31
Note OFF: Time 76160, Note Name: D#4
Note ON: Time 76160, Note Name: A#4, Velocity: 31
Note OFF: Time 76240, Note Name: A#4
Note ON: Time 76240, Note Name: C#5, Velocity: 31
Note OFF: Time 76320, Note Name: C#5
Note ON: Time 76400, Note Name: A#4, Velocity: 34
Note OFF: Time 76480, Note Name: A#4
Note ON: Time 76480, Note Name: C#5, Velocity: 34
Note OFF: Time 76560, Note Name: C#5
Note ON: Time 76560, Note Name: D#4, Velocity: 34
Note OFF: Time 76640, Note Name: D#4
Note ON: Time 76640, Note Name: A#4, Velocity: 34
Note OFF: Time 76720, Note Name: A#4
Note ON: Time 76720, Note Name: C#5, Velocity: 34
Note OFF: Time 76800, Note Name: C#5
Note ON: Time 76880, Note Name: G#4, Velocity: 35
Note OFF: Time 76960, Note Name: G#4
Note ON: Time 76960, Note Name: C5, Velocity: 35
Note OFF: Time 77040, Note Name: C5
Note ON: Time 77040, Note Name: D#4, Velocity: 35
Note OFF: Time 77120, Note Name: D#4
Note ON: Time 77120, Note Name: G#4, Velocity: 35
Note OFF: Time 77200, Note Name: G#4
Note ON: Time 77200, Note Name: C5, Velocity: 34
Note OFF: Time 77280, Note Name: C5
Note ON: Time 77360, Note Name: G#4, Velocity: 34
Note OFF: Time 77440, Note Name: G#4
Note ON: Time 77440, Note Name: C5, Velocity: 34
Note OFF: Time 77520, Note Name: C5
Note ON: Time 77520, Note Name: D#4, Velocity: 34
Note OFF: Time 77600, Note Name: D#4
Note ON: Time 77600, Note Name: G#4, Velocity: 33
Note OFF: Time 77680, Note Name: G#4
Note ON: Time 77680, Note Name: C5, Velocity: 33
Note OFF: Time 77760, Note Name: C5
Note ON: Time 77840, Note Name: G#4, Velocity: 33
Note OFF: Time 77920, Note Name: G#4
Note ON: Time 77920, Note Name: C5, Velocity: 31
Note OFF: Time 78000, Note Name: C5
Note ON: Time 78000, Note Name: D#4, Velocity: 31
Note OFF: Time 78080, Note Name: D#4
Note ON: Time 78080, Note Name: G#4, Velocity: 31
Note OFF: Time 78160, Note Name: G#4
Note ON: Time 78160, Note Name: C5, Velocity: 31
Note OFF: Time 78240, Note Name: C5
Note ON: Time 78320, Note Name: G#4, Velocity: 33
Note OFF: Time 78400, Note Name: G#4
Note ON: Time 78400, Note Name: C5, Velocity: 33
Note OFF: Time 78480, Note Name: C5
Note ON: Time 78480, Note Name: D#4, Velocity: 33
Note OFF: Time 78560, Note Name: D#4
Note ON: Time 78560, Note Name: G#4, Velocity: 33
Note OFF: Time 78640, Note Name: G#4
Note ON: Time 78640, Note Name: C5, Velocity: 33
Note OFF: Time 78720, Note Name: C5
Note ON: Time 78800, Note Name: D#4, Velocity: 34
Note OFF: Time 78880, Note Name: D#4
Note ON: Time 78880, Note Name: G#4, Velocity: 34
Note OFF: Time 78960, Note Name: G#4
Note ON: Time 78960, Note Name: C#4, Velocity: 34
Note OFF: Time 79040, Note Name: C#4
Note ON: Time 79040, Note Name: D#4, Velocity: 34
Note OFF: Time 79120, Note Name: D#4
Note ON: Time 79120, Note Name: G#4, Velocity: 34
Note OFF: Time 79200, Note Name: G#4
Note ON: Time 79200, Note Name: C5, Velocity: 33
Note OFF: Time 79280, Note Name: C5
Note ON: Time 79280, Note Name: D#4, Velocity: 33
Note OFF: Time 79360, Note Name: D#4
Note ON: Time 79360, Note Name: G#4, Velocity: 33
Note OFF: Time 79440, Note Name: G#4
Note ON: Time 79440, Note Name: C4, Velocity: 33
Note OFF: Time 79520, Note Name: C4
Note ON: Time 79520, Note Name: D#4, Velocity: 33
Note OFF: Time 79600, Note Name: D#4
Note ON: Time 79600, Note Name: G#4, Velocity: 33
Note OFF: Time 79680, Note Name: G#4
Note ON: Time 79760, Note Name: D#4, Velocity: 31
Note OFF: Time 79840, Note Name: D#4
Note ON: Time 79840, Note Name: G#4, Velocity: 31
Note OFF: Time 79920, Note Name: G#4
Note ON: Time 79920, Note Name: C#4, Velocity: 30
Note OFF: Time 80000, Note Name: C#4
Note ON: Time 80000, Note Name: D#4, Velocity: 30
Note OFF: Time 80080, Note Name: D#4
Note ON: Time 80080, Note Name: G#4, Velocity: 30
Note OFF: Time 80160, Note Name: G#4
Note ON: Time 80240, Note Name: D#4, Velocity: 29
Note OFF: Time 80320, Note Name: D#4
Note ON: Time 80320, Note Name: G#4, Velocity: 29
Note OFF: Time 80400, Note Name: G#4
Note ON: Time 80400, Note Name: C4, Velocity: 29
Note OFF: Time 80480, Note Name: C4
Note ON: Time 80480, Note Name: D#4, Velocity: 29
Note OFF: Time 80560, Note Name: D#4
Note ON: Time 80560, Note Name: G#4, Velocity: 29
Note OFF: Time 80640, Note Name: G#4
Note ON: Time 80720, Note Name: C4, Velocity: 29
Note OFF: Time 80800, Note Name: C4
Note ON: Time 80800, Note Name: D#4, Velocity: 29
Note OFF: Time 80880, Note Name: D#4
Note ON: Time 80880, Note Name: A#3, Velocity: 29
Note OFF: Time 80960, Note Name: A#3
Note ON: Time 80960, Note Name: C4, Velocity: 29
Note OFF: Time 81040, Note Name: C4
Note ON: Time 81040, Note Name: D#4, Velocity: 29
Note OFF: Time 81120, Note Name: D#4
Note ON: Time 81200, Note Name: C4, Velocity: 29
Note OFF: Time 81280, Note Name: C4
Note ON: Time 81280, Note Name: D#4, Velocity: 29
Note OFF: Time 81360, Note Name: D#4
Note ON: Time 81360, Note Name: G#3, Velocity: 29
Note OFF: Time 81440, Note Name: G#3
Note ON: Time 81440, Note Name: C4, Velocity: 29
Note OFF: Time 81520, Note Name: C4
Note ON: Time 81520, Note Name: D#4, Velocity: 29
Note OFF: Time 81600, Note Name: D#4
Note ON: Time 81680, Note Name: C4, Velocity: 28
Note OFF: Time 81760, Note Name: C4
Note ON: Time 81760, Note Name: D#4, Velocity: 28
Note OFF: Time 81840, Note Name: D#4
Note ON: Time 81840, Note Name: A#3, Velocity: 28
Note OFF: Time 81920, Note Name: A#3
Note ON: Time 81920, Note Name: C4, Velocity: 28
Note OFF: Time 82000, Note Name: C4
Note ON: Time 82000, Note Name: D#4, Velocity: 28
Note OFF: Time 82080, Note Name: D#4
Note ON: Time 82160, Note Name: C4, Velocity: 28
Note OFF: Time 82240, Note Name: C4
Note ON: Time 82240, Note Name: D#4, Velocity: 28
Note OFF: Time 82320, Note Name: D#4
Note ON: Time 82320, Note Name: G#3, Velocity: 28
Note OFF: Time 82400, Note Name: G#3
Note ON: Time 82400, Note Name: C4, Velocity: 28
Note OFF: Time 82480, Note Name: C4
Note ON: Time 82480, Note Name: D#4, Velocity: 27
Note OFF: Time 82560, Note Name: D#4
Note ON: Time 82640, Note Name: C4, Velocity: 29
Note OFF: Time 82720, Note Name: C4
Note ON: Time 82720, Note Name: D#4, Velocity: 29
Note OFF: Time 82800, Note Name: D#4
Note ON: Time 82800, Note Name: A#3, Velocity: 29
Note OFF: Time 82880, Note Name: A#3
Note ON: Time 82880, Note Name: C4, Velocity: 29
Note OFF: Time 82960, Note Name: C4
Note ON: Time 82960, Note Name: D#4, Velocity: 29
Note OFF: Time 83040, Note Name: D#4
Note ON: Time 83120, Note Name: C4, Velocity: 28
Note OFF: Time 83200, Note Name: C4
Note ON: Time 83200, Note Name: D#4, Velocity: 28
Note OFF: Time 83280, Note Name: D#4
Note ON: Time 83280, Note Name: G#3, Velocity: 28
Note OFF: Time 83360, Note Name: G#3
Note ON: Time 83360, Note Name: C4, Velocity: 28
Note OFF: Time 83440, Note Name: C4
Note ON: Time 83440, Note Name: D#4, Velocity: 28
Note OFF: Time 83520, Note Name: D#4
Note ON: Time 83600, Note Name: C4, Velocity: 27
Note OFF: Time 83680, Note Name: C4
Note ON: Time 83680, Note Name: D#4, Velocity: 27
Note OFF: Time 83760, Note Name: D#4
Note ON: Time 83760, Note Name: A#3, Velocity: 27
Note OFF: Time 83840, Note Name: A#3
Note ON: Time 83840, Note Name: C4, Velocity: 27
Note OFF: Time 83920, Note Name: C4
Note ON: Time 83920, Note Name: D#4, Velocity: 26
Note OFF: Time 84000, Note Name: D#4
Note ON: Time 84080, Note Name: C4, Velocity: 26
Note OFF: Time 84160, Note Name: C4
Note ON: Time 84160, Note Name: D#4, Velocity: 26
Note OFF: Time 84240, Note Name: D#4
Note ON: Time 84240, Note Name: G#3, Velocity: 26
Note OFF: Time 84320, Note Name: G#3
Note ON: Time 84320, Note Name: C4, Velocity: 26
Note OFF: Time 84400, Note Name: C4
Note ON: Time 84400, Note Name: D#4, Velocity: 27
Note OFF: Time 84480, Note Name: D#4
Note ON: Time 84560, Note Name: C3, Velocity: 28
Note OFF: Time 84640, Note Name: C3
Note ON: Time 84640, Note Name: D#3, Velocity: 28
Note OFF: Time 84720, Note Name: D#3
Note ON: Time 84720, Note Name: G#3, Velocity: 29
Note OFF: Time 84800, Note Name: G#3
Note ON: Time 84800, Note Name: C4, Velocity: 30
Note OFF: Time 84880, Note Name: C4
Note ON: Time 84880, Note Name: D#4, Velocity: 30
Note OFF: Time 84960, Note Name: D#4
Note ON: Time 84960, Note Name: G#4, Velocity: 31
Note OFF: Time 85040, Note Name: G#4
Note ON: Time 85040, Note Name: C5, Velocity: 33
Note OFF: Time 85120, Note Name: C5
Note ON: Time 85120, Note Name: D#5, Velocity: 33
Note OFF: Time 85200, Note Name: D#5
Note ON: Time 85200, Note Name: G#5, Velocity: 34
Note OFF: Time 85280, Note Name: G#5
Note ON: Time 85280, Note Name: C6, Velocity: 35
Note OFF: Time 85360, Note Name: C6
Note ON: Time 85360, Note Name: D#6, Velocity: 36
Note OFF: Time 85440, Note Name: D#6
Note ON: Time 85440, Note Name: G#6, Velocity: 44
Note OFF: Time 85520, Note Name: G#6
Note ON: Time 85520, Note Name: D#6, Velocity: 36
Note OFF: Time 85600, Note Name: D#6
Note ON: Time 85600, Note Name: C6, Velocity: 35
Note OFF: Time 85680, Note Name: C6
Note ON: Time 85680, Note Name: G#5, Velocity: 34
Note OFF: Time 85760, Note Name: G#5
Note ON: Time 85760, Note Name: D#5, Velocity: 33
Note OFF: Time 85840, Note Name: D#5
Note ON: Time 85840, Note Name: C5, Velocity: 31
Note OFF: Time 85920, Note Name: C5
Note ON: Time 85920, Note Name: G#4, Velocity: 37
Note OFF: Time 86000, Note Name: G#4
Note ON: Time 86000, Note Name: C5, Velocity: 31
Note OFF: Time 86080, Note Name: C5
Note ON: Time 86080, Note Name: D#5, Velocity: 33
Note OFF: Time 86160, Note Name: D#5
Note ON: Time 86160, Note Name: G#5, Velocity: 34
Note OFF: Time 86240, Note Name: G#5
Note ON: Time 86240, Note Name: C6, Velocity: 35
Note OFF: Time 86320, Note Name: C6
Note ON: Time 86320, Note Name: D#6, Velocity: 36
Note OFF: Time 86400, Note Name: D#6
Note ON: Time 86400, Note Name: G#6, Velocity: 40
Note OFF: Time 86480, Note Name: G#6
Note ON: Time 86480, Note Name: D#6, Velocity: 35
Note OFF: Time 86560, Note Name: D#6
Note ON: Time 86560, Note Name: C6, Velocity: 34
Note OFF: Time 86640, Note Name: C6
Note ON: Time 86640, Note Name: G#5, Velocity: 33
Note OFF: Time 86720, Note Name: G#5
Note ON: Time 86720, Note Name: D#5, Velocity: 31
Note OFF: Time 86800, Note Name: D#5
Note ON: Time 86800, Note Name: C5, Velocity: 30
Note OFF: Time 86880, Note Name: C5
Note ON: Time 86880, Note Name: G#4, Velocity: 34
Note OFF: Time 86960, Note Name: G#4
Note ON: Time 86960, Note Name: C5, Velocity: 29
Note OFF: Time 87040, Note Name: C5
Note ON: Time 87040, Note Name: D#5, Velocity: 30
Note OFF: Time 87120, Note Name: D#5
Note ON: Time 87120, Note Name: G#5, Velocity: 31
Note OFF: Time 87200, Note Name: G#5
Note ON: Time 87200, Note Name: C6, Velocity: 33
Note OFF: Time 87280, Note Name: C6
Note ON: Time 87280, Note Name: D#6, Velocity: 35
Note OFF: Time 87360, Note Name: D#6
Note ON: Time 87360, Note Name: G#6, Velocity: 40
Note OFF: Time 87440, Note Name: G#6
Note ON: Time 87440, Note Name: D#6, Velocity: 35
Note OFF: Time 87520, Note Name: D#6
Note ON: Time 87520, Note Name: C6, Velocity: 34
Note OFF: Time 87600, Note Name: C6
Note ON: Time 87600, Note Name: G#5, Velocity: 33
Note OFF: Time 87680, Note Name: G#5
Note ON: Time 87680, Note Name: D#5, Velocity: 31
Note OFF: Time 87760, Note Name: D#5
Note ON: Time 87760, Note Name: C5, Velocity: 31
Note OFF: Time 87840, Note Name: C5
Note ON: Time 87840, Note Name: G#4, Velocity: 34
Note OFF: Time 87920, Note Name: G#4
Note ON: Time 87920, Note Name: C5, Velocity: 28
Note OFF: Time 88000, Note Name: C5
Note ON: Time 88000, Note Name: D#5, Velocity: 30
Note OFF: Time 88080, Note Name: D#5
Note ON: Time 88080, Note Name: G#5, Velocity: 31
Note OFF: Time 88160, Note Name: G#5
Note ON: Time 88160, Note Name: C6, Velocity: 33
Note OFF: Time 88240, Note Name: C6
Note ON: Time 88240, Note Name: D#6, Velocity: 34
Note OFF: Time 88320, Note Name: D#6
Note ON: Time 88320, Note Name: G#6, Velocity: 39
Note OFF: Time 88400, Note Name: G#6
Note ON: Time 88400, Note Name: D#6, Velocity: 33
Note OFF: Time 88480, Note Name: D#6
Note ON: Time 88480, Note Name: C6, Velocity: 33
Note OFF: Time 88560, Note Name: C6
Note ON: Time 88560, Note Name: G#5, Velocity: 33
Note OFF: Time 88640, Note Name: G#5
Note ON: Time 88640, Note Name: D#5, Velocity: 31
Note OFF: Time 88720, Note Name: D#5
Note ON: Time 88720, Note Name: C5, Velocity: 31
Note OFF: Time 88800, Note Name: C5
Note ON: Time 88800, Note Name: G#4, Velocity: 31
Note OFF: Time 88880, Note Name: G#4
Note ON: Time 88880, Note Name: C5, Velocity: 34
Note OFF: Time 88960, Note Name: C5
Note ON: Time 88960, Note Name: G#5, Velocity: 35
Note OFF: Time 89040, Note Name: G#5
Note ON: Time 89040, Note Name: C6, Velocity: 38
Note OFF: Time 89120, Note Name: C6
Note ON: Time 89120, Note Name: G#5, Velocity: 36
Note OFF: Time 89200, Note Name: G#5
Note ON: Time 89200, Note Name: C5, Velocity: 35
Note OFF: Time 89280, Note Name: C5
Note ON: Time 89280, Note Name: G#4, Velocity: 35
Note OFF: Time 89360, Note Name: G#4
Note ON: Time 89360, Note Name: C5, Velocity: 34
Note OFF: Time 89440, Note Name: C5
Note ON: Time 89440, Note Name: G#5, Velocity: 37
Note OFF: Time 89520, Note Name: G#5
Note ON: Time 89520, Note Name: C6, Velocity: 39
Note OFF: Time 89600, Note Name: C6
Note ON: Time 89600, Note Name: G#5, Velocity: 38
Note OFF: Time 89680, Note Name: G#5
Note ON: Time 89680, Note Name: C5, Velocity: 37
Note OFF: Time 89760, Note Name: C5
Note ON: Time 89760, Note Name: G#4, Velocity: 37
Note OFF: Time 89840, Note Name: G#4
Note ON: Time 89840, Note Name: C5, Velocity: 38
Note OFF: Time 89920, Note Name: C5
Note ON: Time 89920, Note Name: G#5, Velocity: 41
Note OFF: Time 90000, Note Name: G#5
Note ON: Time 90000, Note Name: C6, Velocity: 42
Note OFF: Time 90080, Note Name: C6
Note ON: Time 90080, Note Name: G#5, Velocity: 42
Note OFF: Time 90160, Note Name: G#5
Note ON: Time 90160, Note Name: C5, Velocity: 39
Note OFF: Time 90240, Note Name: C5
Note ON: Time 90240, Note Name: G#4, Velocity: 39
Note OFF: Time 90320, Note Name: G#4
Note ON: Time 90320, Note Name: C5, Velocity: 41
Note OFF: Time 90400, Note Name: C5
Note ON: Time 90400, Note Name: G#5, Velocity: 42
Note OFF: Time 90480, Note Name: G#5
Note ON: Time 90480, Note Name: C6, Velocity: 44
Note OFF: Time 90560, Note Name: C6
Note ON: Time 90560, Note Name: G#5, Velocity: 40
Note OFF: Time 90640, Note Name: G#5
Note ON: Time 90640, Note Name: C5, Velocity: 38
Note OFF: Time 90720, Note Name: C5
Note ON: Time 90720, Note Name: G#4, Velocity: 37
Note OFF: Time 90800, Note Name: G#4
Note ON: Time 90800, Note Name: C5, Velocity: 35
Note OFF: Time 90880, Note Name: C5
Note ON: Time 90880, Note Name: G#5, Velocity: 37
Note OFF: Time 90960, Note Name: G#5
Note ON: Time 90960, Note Name: C6, Velocity: 38
Note OFF: Time 91040, Note Name: C6
Note ON: Time 91040, Note Name: G#5, Velocity: 35
Note OFF: Time 91120, Note Name: G#5
Note ON: Time 91120, Note Name: C5, Velocity: 34
Note OFF: Time 91200, Note Name: C5
Note ON: Time 91200, Note Name: G#4, Velocity: 33
Note OFF: Time 91280, Note Name: G#4
Note ON: Time 91280, Note Name: C5, Velocity: 33
Note OFF: Time 91360, Note Name: C5
Note ON: Time 91360, Note Name: G#5, Velocity: 34
Note OFF: Time 91440, Note Name: G#5
Note ON: Time 91440, Note Name: C6, Velocity: 34
Note OFF: Time 91520, Note Name: C6
Note ON: Time 91520, Note Name: G#5, Velocity: 33
Note OFF: Time 91600, Note Name: G#5
Note ON: Time 91600, Note Name: C5, Velocity: 29
Note OFF: Time 91680, Note Name: C5
Note ON: Time 91680, Note Name: G#4, Velocity: 29
Note OFF: Time 91760, Note Name: G#4
Note ON: Time 91760, Note Name: C5, Velocity: 29
Note OFF: Time 91840, Note Name: C5
Note ON: Time 91840, Note Name: G#5, Velocity: 30
Note OFF: Time 91920, Note Name: G#5
Note ON: Time 91920, Note Name: C6, Velocity: 31
Note OFF: Time 92000, Note Name: C6
Note ON: Time 92000, Note Name: G#5, Velocity: 30
Note OFF: Time 92080, Note Name: G#5
Note ON: Time 92080, Note Name: C5, Velocity: 29
Note OFF: Time 92160, Note Name: C5
Track 3: Piano left
Note ON: Time 1920, Note Name: G#1, Velocity: 35
Note OFF: Time 2000, Note Name: G#1
Note ON: Time 2000, Note Name: D#3, Velocity: 17
Note OFF: Time 2080, Note Name: D#3
Note ON: Time 2080, Note Name: G#3, Velocity: 18
Note OFF: Time 2160, Note Name: G#3
Note ON: Time 2160, Note Name: C4, Velocity: 18
Note OFF: Time 2240, Note Name: C4
Note ON: Time 2240, Note Name: G#3, Velocity: 18
Note OFF: Time 2320, Note Name: G#3
Note ON: Time 2320, Note Name: D#3, Velocity: 18
Note OFF: Time 2400, Note Name: D#3
Note ON: Time 2400, Note Name: G#2, Velocity: 30
Note OFF: Time 2480, Note Name: G#2
Note ON: Time 2480, Note Name: D#3, Velocity: 19
Note OFF: Time 2560, Note Name: D#3
Note ON: Time 2560, Note Name: G#3, Velocity: 19
Note OFF: Time 2640, Note Name: G#3
Note ON: Time 2640, Note Name: C4, Velocity: 19
Note OFF: Time 2720, Note Name: C4
Note ON: Time 2720, Note Name: G#3, Velocity: 20
Note OFF: Time 2800, Note Name: G#3
Note ON: Time 2800, Note Name: D#3, Velocity: 20
Note OFF: Time 2880, Note Name: D#3
Note ON: Time 2880, Note Name: G#2, Velocity: 20
Note OFF: Time 2960, Note Name: G#2
Note ON: Time 2960, Note Name: D#3, Velocity: 20
Note OFF: Time 3040, Note Name: D#3
Note ON: Time 3040, Note Name: G#3, Velocity: 20
Note OFF: Time 3120, Note Name: G#3
Note ON: Time 3120, Note Name: C4, Velocity: 20
Note OFF: Time 3200, Note Name: C4
Note ON: Time 3200, Note Name: G#3, Velocity: 22
Note OFF: Time 3280, Note Name: G#3
Note ON: Time 3280, Note Name: D#3, Velocity: 22
Note OFF: Time 3360, Note Name: D#3
Note ON: Time 3360, Note Name: G#2, Velocity: 23
Note OFF: Time 3440, Note Name: G#2
Note ON: Time 3440, Note Name: D#3, Velocity: 23
Note OFF: Time 3520, Note Name: D#3
Note ON: Time 3520, Note Name: G#3, Velocity: 23
Note OFF: Time 3600, Note Name: G#3
Note ON: Time 3600, Note Name: C4, Velocity: 24
Note OFF: Time 3680, Note Name: C4
Note ON: Time 3680, Note Name: G#3, Velocity: 24
Note OFF: Time 3760, Note Name: G#3
Note ON: Time 3760, Note Name: D#3, Velocity: 24
Note OFF: Time 3840, Note Name: D#3
Note ON: Time 3840, Note Name: G#2, Velocity: 26
Note OFF: Time 3920, Note Name: G#2
Note ON: Time 3920, Note Name: D#3, Velocity: 26
Note OFF: Time 4000, Note Name: D#3
Note ON: Time 4000, Note Name: G#3, Velocity: 25
Note OFF: Time 4080, Note Name: G#3
Note ON: Time 4080, Note Name: C4, Velocity: 25
Note OFF: Time 4160, Note Name: C4
Note ON: Time 4160, Note Name: G#3, Velocity: 25
Note OFF: Time 4240, Note Name: G#3
Note ON: Time 4240, Note Name: D#3, Velocity: 24
Note OFF: Time 4320, Note Name: D#3
Note ON: Time 4320, Note Name: G#2, Velocity: 24
Note OFF: Time 4400, Note Name: G#2
Note ON: Time 4400, Note Name: D#3, Velocity: 24
Note OFF: Time 4480, Note Name: D#3
Note ON: Time 4480, Note Name: G#3, Velocity: 24
Note OFF: Time 4560, Note Name: G#3
Note ON: Time 4560, Note Name: C4, Velocity: 24
Note OFF: Time 4640, Note Name: C4
Note ON: Time 4640, Note Name: G#3, Velocity: 23
Note OFF: Time 4720, Note Name: G#3
Note ON: Time 4720, Note Name: D#3, Velocity: 23
Note OFF: Time 4800, Note Name: D#3
Note ON: Time 4800, Note Name: G#2, Velocity: 23
Note OFF: Time 4880, Note Name: G#2
Note ON: Time 4880, Note Name: D#3, Velocity: 23
Note OFF: Time 4960, Note Name: D#3
Note ON: Time 4960, Note Name: G#3, Velocity: 23
Note OFF: Time 5040, Note Name: G#3
Note ON: Time 5040, Note Name: C4, Velocity: 23
Note OFF: Time 5120, Note Name: C4
Note ON: Time 5120, Note Name: G#3, Velocity: 23
Note OFF: Time 5200, Note Name: G#3
Note ON: Time 5200, Note Name: D#3, Velocity: 23
Note OFF: Time 5280, Note Name: D#3
Note ON: Time 5280, Note Name: G#2, Velocity: 23
Note OFF: Time 5360, Note Name: G#2
Note ON: Time 5360, Note Name: D#3, Velocity: 23
Note OFF: Time 5440, Note Name: D#3
Note ON: Time 5440, Note Name: G#3, Velocity: 22
Note OFF: Time 5520, Note Name: G#3
Note ON: Time 5520, Note Name: C4, Velocity: 22
Note OFF: Time 5600, Note Name: C4
Note ON: Time 5600, Note Name: G#3, Velocity: 22
Note OFF: Time 5680, Note Name: G#3
Note ON: Time 5680, Note Name: D#3, Velocity: 22
Note OFF: Time 5760, Note Name: D#3
Note ON: Time 5760, Note Name: G#2, Velocity: 24
Note OFF: Time 5840, Note Name: G#2
Note ON: Time 5840, Note Name: D#3, Velocity: 24
Note OFF: Time 5920, Note Name: D#3
Note ON: Time 5920, Note Name: G3, Velocity: 24
Note OFF: Time 6000, Note Name: G3
Note ON: Time 6000, Note Name: C#4, Velocity: 25
Note OFF: Time 6080, Note Name: C#4
Note ON: Time 6080, Note Name: G3, Velocity: 25
Note OFF: Time 6160, Note Name: G3
Note ON: Time 6160, Note Name: D#3, Velocity: 26
Note OFF: Time 6240, Note Name: D#3
Note ON: Time 6240, Note Name: G#2, Velocity: 26
Note OFF: Time 6320, Note Name: G#2
Note ON: Time 6320, Note Name: D#3, Velocity: 27
Note OFF: Time 6400, Note Name: D#3
Note ON: Time 6400, Note Name: G3, Velocity: 27
Note OFF: Time 6480, Note Name: G3
Note ON: Time 6480, Note Name: C#4, Velocity: 27
Note OFF: Time 6560, Note Name: C#4
Note ON: Time 6560, Note Name: G3, Velocity: 28
Note OFF: Time 6640, Note Name: G3
Note ON: Time 6640, Note Name: D#3, Velocity: 28
Note OFF: Time 6720, Note Name: D#3
Note ON: Time 6720, Note Name: G#2, Velocity: 29
Note OFF: Time 6800, Note Name: G#2
Note ON: Time 6800, Note Name: D#3, Velocity: 29
Note OFF: Time 6880, Note Name: D#3
Note ON: Time 6880, Note Name: G3, Velocity: 29
Note OFF: Time 6960, Note Name: G3
Note ON: Time 6960, Note Name: C#4, Velocity: 29
Note OFF: Time 7040, Note Name: C#4
Note ON: Time 7040, Note Name: G3, Velocity: 30
Note OFF: Time 7120, Note Name: G3
Note ON: Time 7120, Note Name: D#3, Velocity: 30
Note OFF: Time 7200, Note Name: D#3
Note ON: Time 7200, Note Name: G#2, Velocity: 30
Note OFF: Time 7280, Note Name: G#2
Note ON: Time 7280, Note Name: D#3, Velocity: 30
Note OFF: Time 7360, Note Name: D#3
Note ON: Time 7360, Note Name: G3, Velocity: 29
Note OFF: Time 7440, Note Name: G3
Note ON: Time 7440, Note Name: C#4, Velocity: 29
Note OFF: Time 7520, Note Name: C#4
Note ON: Time 7520, Note Name: G3, Velocity: 29
Note OFF: Time 7600, Note Name: G3
Note ON: Time 7600, Note Name: D#3, Velocity: 28
Note OFF: Time 7680, Note Name: D#3
Note ON: Time 7680, Note Name: G#2, Velocity: 29
Note OFF: Time 7760, Note Name: G#2
Note ON: Time 7760, Note Name: D#3, Velocity: 29
Note OFF: Time 7840, Note Name: D#3
Note ON: Time 7840, Note Name: G#3, Velocity: 28
Note OFF: Time 7920, Note Name: G#3
Note ON: Time 7920, Note Name: C4, Velocity: 28
Note OFF: Time 8000, Note Name: C4
Note ON: Time 8000, Note Name: G#3, Velocity: 28
Note OFF: Time 8080, Note Name: G#3
Note ON: Time 8080, Note Name: D#3, Velocity: 27
Note OFF: Time 8160, Note Name: D#3
Note ON: Time 8160, Note Name: G#2, Velocity: 31
Note OFF: Time 8240, Note Name: G#2
Note ON: Time 8240, Note Name: D#3, Velocity: 31
Note OFF: Time 8320, Note Name: D#3
Note ON: Time 8320, Note Name: G#3, Velocity: 30
Note OFF: Time 8400, Note Name: G#3
Note ON: Time 8400, Note Name: C4, Velocity: 30
Note OFF: Time 8480, Note Name: C4
Note ON: Time 8480, Note Name: G#3, Velocity: 29
Note OFF: Time 8560, Note Name: G#3
Note ON: Time 8560, Note Name: D#3, Velocity: 29
Note OFF: Time 8640, Note Name: D#3
Note ON: Time 8640, Note Name: G#2, Velocity: 28
Note OFF: Time 8720, Note Name: G#2
Note ON: Time 8720, Note Name: E3, Velocity: 28
Note OFF: Time 8800, Note Name: E3
Note ON: Time 8800, Note Name: G#3, Velocity: 29
Note OFF: Time 8880, Note Name: G#3
Note ON: Time 8880, Note Name: C4, Velocity: 29
Note OFF: Time 8960, Note Name: C4
Note ON: Time 8960, Note Name: G#3, Velocity: 29
Note OFF: Time 9040, Note Name: G#3
Note ON: Time 9040, Note Name: E3, Velocity: 30
Note OFF: Time 9120, Note Name: E3
Note ON: Time 9120, Note Name: G#2, Velocity: 31
Note OFF: Time 9200, Note Name: G#2
Note ON: Time 9200, Note Name: E3, Velocity: 31
Note OFF: Time 9280, Note Name: E3
Note ON: Time 9280, Note Name: G#3, Velocity: 33
Note OFF: Time 9360, Note Name: G#3
Note ON: Time 9360, Note Name: C4, Velocity: 34
Note OFF: Time 9440, Note Name: C4
Note ON: Time 9440, Note Name: G#3, Velocity: 34
Note OFF: Time 9520, Note Name: G#3
Note ON: Time 9520, Note Name: E3, Velocity: 35
Note OFF: Time 9600, Note Name: E3
Note ON: Time 9600, Note Name: C#2, Velocity: 44
Note OFF: Time 9680, Note Name: C#2
Note ON: Time 9680, Note Name: G#3, Velocity: 31
Note OFF: Time 9760, Note Name: G#3
Note ON: Time 9760, Note Name: C#4, Velocity: 31
Note OFF: Time 9840, Note Name: C#4
Note ON: Time 9840, Note Name: F4, Velocity: 31
Note OFF: Time 9920, Note Name: F4
Note ON: Time 9920, Note Name: C#4, Velocity: 33
Note OFF: Time 10000, Note Name: C#4
Note ON: Time 10000, Note Name: G#3, Velocity: 33
Note OFF: Time 10080, Note Name: G#3
Note ON: Time 10080, Note Name: C#3, Velocity: 46
Note OFF: Time 10160, Note Name: C#3
Note ON: Time 10160, Note Name: G#3, Velocity: 34
Note OFF: Time 10240, Note Name: G#3
Note ON: Time 10240, Note Name: C#4, Velocity: 34
Note OFF: Time 10320, Note Name: C#4
Note ON: Time 10320, Note Name: F4, Velocity: 34
Note OFF: Time 10400, Note Name: F4
Note ON: Time 10400, Note Name: C#4, Velocity: 34
Note OFF: Time 10480, Note Name: C#4
Note ON: Time 10480, Note Name: G#3, Velocity: 35
Note OFF: Time 10560, Note Name: G#3
Note ON: Time 10560, Note Name: C#3, Velocity: 35
Note OFF: Time 10640, Note Name: C#3
Note ON: Time 10640, Note Name: G#3, Velocity: 35
Note OFF: Time 10720, Note Name: G#3
Note ON: Time 10720, Note Name: C#4, Velocity: 36
Note OFF: Time 10800, Note Name: C#4
Note ON: Time 10800, Note Name: F4, Velocity: 36
Note OFF: Time 10880, Note Name: F4
Note ON: Time 10880, Note Name: C#4, Velocity: 36
Note OFF: Time 10960, Note Name: C#4
Note ON: Time 10960, Note Name: G#3, Velocity: 36
Note OFF: Time 11040, Note Name: G#3
Note ON: Time 11040, Note Name: C#3, Velocity: 50
Note OFF: Time 11120, Note Name: C#3
Note ON: Time 11120, Note Name: G3, Velocity: 37
Note OFF: Time 11200, Note Name: G3
Note ON: Time 11200, Note Name: C#4, Velocity: 37
Note OFF: Time 11280, Note Name: C#4
Note ON: Time 11280, Note Name: F4, Velocity: 38
Note OFF: Time 11360, Note Name: F4
Note ON: Time 11360, Note Name: C#4, Velocity: 38
Note OFF: Time 11440, Note Name: C#4
Note ON: Time 11440, Note Name: G3, Velocity: 38
Note OFF: Time 11520, Note Name: G3
Note ON: Time 11520, Note Name: C3, Velocity: 50
Note OFF: Time 11600, Note Name: C3
Note ON: Time 11600, Note Name: G3, Velocity: 39
Note OFF: Time 11680, Note Name: G3
Note ON: Time 11680, Note Name: C4, Velocity: 39
Note OFF: Time 11760, Note Name: C4
Note ON: Time 11760, Note Name: F4, Velocity: 38
Note OFF: Time 11840, Note Name: F4
Note ON: Time 11840, Note Name: C4, Velocity: 38
Note OFF: Time 11920, Note Name: C4
Note ON: Time 11920, Note Name: G3, Velocity: 37
Note OFF: Time 12000, Note Name: G3
Note ON: Time 12000, Note Name: C3, Velocity: 37
Note OFF: Time 12080, Note Name: C3
Note ON: Time 12080, Note Name: G3, Velocity: 36
Note OFF: Time 12160, Note Name: G3
Note ON: Time 12160, Note Name: C4, Velocity: 36
Note OFF: Time 12240, Note Name: C4
Note ON: Time 12240, Note Name: E4, Velocity: 36
Note OFF: Time 12320, Note Name: E4
Note ON: Time 12320, Note Name: C4, Velocity: 35
Note OFF: Time 12400, Note Name: C4
Note ON: Time 12400, Note Name: G3, Velocity: 35
Note OFF: Time 12480, Note Name: G3
Note ON: Time 12480, Note Name: F3, Velocity: 34
Note OFF: Time 12560, Note Name: F3
Note ON: Time 12560, Note Name: G#3, Velocity: 34
Note OFF: Time 12640, Note Name: G#3
Note ON: Time 12640, Note Name: C4, Velocity: 33
Note OFF: Time 12720, Note Name: C4
Note ON: Time 12720, Note Name: F4, Velocity: 33
Note OFF: Time 12800, Note Name: F4
Note ON: Time 12800, Note Name: C4, Velocity: 31
Note OFF: Time 12880, Note Name: C4
Note ON: Time 12880, Note Name: G#3, Velocity: 31
Note OFF: Time 12960, Note Name: G#3
Note ON: Time 12960, Note Name: B2, Velocity: 41
Note OFF: Time 13040, Note Name: B2
Note ON: Time 13040, Note Name: F3, Velocity: 29
Note OFF: Time 13120, Note Name: F3
Note ON: Time 13120, Note Name: G#3, Velocity: 29
Note OFF: Time 13200, Note Name: G#3
Note ON: Time 13200, Note Name: D#4, Velocity: 29
Note OFF: Time 13280, Note Name: D#4
Note ON: Time 13280, Note Name: G#3, Velocity: 28
Note OFF: Time 13360, Note Name: G#3
Note ON: Time 13360, Note Name: F3, Velocity: 28
Note OFF: Time 13440, Note Name: F3
Note ON: Time 13440, Note Name: A#2, Velocity: 47
Note OFF: Time 13520, Note Name: A#2
Note ON: Time 13520, Note Name: F3, Velocity: 28
Note OFF: Time 13600, Note Name: F3
Note ON: Time 13600, Note Name: G#3, Velocity: 28
Note OFF: Time 13680, Note Name: G#3
Note ON: Time 13680, Note Name: D#4, Velocity: 29
Note OFF: Time 13760, Note Name: D#4
Note ON: Time 13760, Note Name: G#3, Velocity: 29
Note OFF: Time 13840, Note Name: G#3
Note ON: Time 13840, Note Name: F3, Velocity: 29
Note OFF: Time 13920, Note Name: F3
Note ON: Time 13920, Note Name: A#2, Velocity: 31
Note OFF: Time 14000, Note Name: A#2
Note ON: Time 14000, Note Name: F3, Velocity: 31
Note OFF: Time 14080, Note Name: F3
Note ON: Time 14080, Note Name: G#3, Velocity: 33
Note OFF: Time 14160, Note Name: G#3
Note ON: Time 14160, Note Name: D#4, Velocity: 33
Note OFF: Time 14240, Note Name: D#4
Note ON: Time 14240, Note Name: G#3, Velocity: 34
Note OFF: Time 14320, Note Name: G#3
Note ON: Time 14320, Note Name: F3, Velocity: 35
Note OFF: Time 14400, Note Name: F3
Note ON: Time 14400, Note Name: A#2, Velocity: 34
Note OFF: Time 14480, Note Name: A#2
Note ON: Time 14480, Note Name: F3, Velocity: 34
Note OFF: Time 14560, Note Name: F3
Note ON: Time 14560, Note Name: G#3, Velocity: 34
Note OFF: Time 14640, Note Name: G#3
Note ON: Time 14640, Note Name: D4, Velocity: 33
Note OFF: Time 14720, Note Name: D4
Note ON: Time 14720, Note Name: G#3, Velocity: 33
Note OFF: Time 14800, Note Name: G#3
Note ON: Time 14800, Note Name: F3, Velocity: 33
Note OFF: Time 14880, Note Name: F3
Note ON: Time 14880, Note Name: A#2, Velocity: 31
Note OFF: Time 14960, Note Name: A#2
Note ON: Time 14960, Note Name: F3, Velocity: 31
Note OFF: Time 15040, Note Name: F3
Note ON: Time 15040, Note Name: G#3, Velocity: 31
Note OFF: Time 15120, Note Name: G#3
Note ON: Time 15120, Note Name: D4, Velocity: 29
Note OFF: Time 15200, Note Name: D4
Note ON: Time 15200, Note Name: G#3, Velocity: 29
Note OFF: Time 15280, Note Name: G#3
Note ON: Time 15280, Note Name: F3, Velocity: 29
Note OFF: Time 15360, Note Name: F3
Note ON: Time 15360, Note Name: D#2, Velocity: 51
Note OFF: Time 15440, Note Name: D#2
Note ON: Time 15440, Note Name: A#2, Velocity: 29
Note OFF: Time 15520, Note Name: A#2
Note ON: Time 15520, Note Name: D#3, Velocity: 31
Note OFF: Time 15600, Note Name: D#3
Note ON: Time 15600, Note Name: C#4, Velocity: 31
Note OFF: Time 15680, Note Name: C#4
Note ON: Time 15680, Note Name: D#3, Velocity: 33
Note OFF: Time 15760, Note Name: D#3
Note ON: Time 15760, Note Name: A#2, Velocity: 33
Note OFF: Time 15840, Note Name: A#2
Note ON: Time 15840, Note Name: D#2, Velocity: 27
Note OFF: Time 15920, Note Name: D#2
Note ON: Time 15920, Note Name: A#2, Velocity: 27
Note OFF: Time 16000, Note Name: A#2
Note ON: Time 16000, Note Name: D#3, Velocity: 28
Note OFF: Time 16080, Note Name: D#3
Note ON: Time 16080, Note Name: G#3, Velocity: 28
Note OFF: Time 16160, Note Name: G#3
Note ON: Time 16160, Note Name: D#3, Velocity: 28
Note OFF: Time 16240, Note Name: D#3
Note ON: Time 16240, Note Name: A#2, Velocity: 28
Note OFF: Time 16320, Note Name: A#2
Note ON: Time 16320, Note Name: D#2, Velocity: 28
Note OFF: Time 16400, Note Name: D#2
Note ON: Time 16400, Note Name: A#2, Velocity: 27
Note OFF: Time 16480, Note Name: A#2
Note ON: Time 16480, Note Name: D#3, Velocity: 26
Note OFF: Time 16560, Note Name: D#3
Note ON: Time 16560, Note Name: G3, Velocity: 26
Note OFF: Time 16640, Note Name: G3
Note ON: Time 16640, Note Name: D#3, Velocity: 24
Note OFF: Time 16720, Note Name: D#3
Note ON: Time 16720, Note Name: A#2, Velocity: 24
Note OFF: Time 16800, Note Name: A#2
Note ON: Time 16800, Note Name: D#2, Velocity: 29
Note OFF: Time 16880, Note Name: D#2
Note ON: Time 16880, Note Name: A#2, Velocity: 28
Note OFF: Time 16960, Note Name: A#2
Note ON: Time 16960, Note Name: C#3, Velocity: 27
Note OFF: Time 17040, Note Name: C#3
Note ON: Time 17040, Note Name: G3, Velocity: 27
Note OFF: Time 17120, Note Name: G3
Note ON: Time 17120, Note Name: C#3, Velocity: 26
Note OFF: Time 17200, Note Name: C#3
Note ON: Time 17200, Note Name: A#2, Velocity: 25
Note OFF: Time 17280, Note Name: A#2
Note ON: Time 17280, Note Name: G#1, Velocity: 41
Note OFF: Time 17360, Note Name: G#1
Note ON: Time 17360, Note Name: D#3, Velocity: 17
Note OFF: Time 17440, Note Name: D#3
Note ON: Time 17440, Note Name: G#3, Velocity: 18
Note OFF: Time 17520, Note Name: G#3
Note ON: Time 17520, Note Name: C4, Velocity: 18
Note OFF: Time 17600, Note Name: C4
Note ON: Time 17600, Note Name: G#3, Velocity: 18
Note OFF: Time 17680, Note Name: G#3
Note ON: Time 17680, Note Name: D#3, Velocity: 18
Note OFF: Time 17760, Note Name: D#3
Note ON: Time 17760, Note Name: G#2, Velocity: 36
Note OFF: Time 17840, Note Name: G#2
Note ON: Time 17840, Note Name: D#3, Velocity: 19
Note OFF: Time 17920, Note Name: D#3
Note ON: Time 17920, Note Name: G#3, Velocity: 19
Note OFF: Time 18000, Note Name: G#3
Note ON: Time 18000, Note Name: C4, Velocity: 19
Note OFF: Time 18080, Note Name: C4
Note ON: Time 18080, Note Name: G#3, Velocity: 20
Note OFF: Time 18160, Note Name: G#3
Note ON: Time 18160, Note Name: D#3, Velocity: 20
Note OFF: Time 18240, Note Name: D#3
Note ON: Time 18240, Note Name: G#2, Velocity: 20
Note OFF: Time 18320, Note Name: G#2
Note ON: Time 18320, Note Name: D#3, Velocity: 20
Note OFF: Time 18400, Note Name: D#3
Note ON: Time 18400, Note Name: G#3, Velocity: 20
Note OFF: Time 18480, Note Name: G#3
Note ON: Time 18480, Note Name: C4, Velocity: 20
Note OFF: Time 18560, Note Name: C4
Note ON: Time 18560, Note Name: G#3, Velocity: 22
Note OFF: Time 18640, Note Name: G#3
Note ON: Time 18640, Note Name: D#3, Velocity: 22
Note OFF: Time 18720, Note Name: D#3
Note ON: Time 18720, Note Name: G#2, Velocity: 23
Note OFF: Time 18800, Note Name: G#2
Note ON: Time 18800, Note Name: D#3, Velocity: 23
Note OFF: Time 18880, Note Name: D#3
Note ON: Time 18880, Note Name: G#3, Velocity: 23
Note OFF: Time 18960, Note Name: G#3
Note ON: Time 18960, Note Name: C4, Velocity: 24
Note OFF: Time 19040, Note Name: C4
Note ON: Time 19040, Note Name: G#3, Velocity: 24
Note OFF: Time 19120, Note Name: G#3
Note ON: Time 19120, Note Name: D#3, Velocity: 24
Note OFF: Time 19200, Note Name: D#3
Note ON: Time 19200, Note Name: G#2, Velocity: 26
Note OFF: Time 19280, Note Name: G#2
Note ON: Time 19280, Note Name: D#3, Velocity: 26
Note OFF: Time 19360, Note Name: D#3
Note ON: Time 19360, Note Name: G#3, Velocity: 25
Note OFF: Time 19440, Note Name: G#3
Note ON: Time 19440, Note Name: C4, Velocity: 25
Note OFF: Time 19520, Note Name: C4
Note ON: Time 19520, Note Name: G#3, Velocity: 25
Note OFF: Time 19600, Note Name: G#3
Note ON: Time 19600, Note Name: D#3, Velocity: 24
Note OFF: Time 19680, Note Name: D#3
Note ON: Time 19680, Note Name: G#2, Velocity: 24
Note OFF: Time 19760, Note Name: G#2
Note ON: Time 19760, Note Name: D#3, Velocity: 24
Note OFF: Time 19840, Note Name: D#3
Note ON: Time 19840, Note Name: G#3, Velocity: 24
Note OFF: Time 19920, Note Name: G#3
Note ON: Time 19920, Note Name: C4, Velocity: 24
Note OFF: Time 20000, Note Name: C4
Note ON: Time 20000, Note Name: G#3, Velocity: 23
Note OFF: Time 20080, Note Name: G#3
Note ON: Time 20080, Note Name: D#3, Velocity: 23
Note OFF: Time 20160, Note Name: D#3
Note ON: Time 20160, Note Name: G#2, Velocity: 23
Note OFF: Time 20240, Note Name: G#2
Note ON: Time 20240, Note Name: D#3, Velocity: 23
Note OFF: Time 20320, Note Name: D#3
Note ON: Time 20320, Note Name: G#3, Velocity: 23
Note OFF: Time 20400, Note Name: G#3
Note ON: Time 20400, Note Name: C4, Velocity: 23
Note OFF: Time 20480, Note Name: C4
Note ON: Time 20480, Note Name: G#3, Velocity: 23
Note OFF: Time 20560, Note Name: G#3
Note ON: Time 20560, Note Name: D#3, Velocity: 23
Note OFF: Time 20640, Note Name: D#3
Note ON: Time 20640, Note Name: G#2, Velocity: 23
Note OFF: Time 20720, Note Name: G#2
Note ON: Time 20720, Note Name: D#3, Velocity: 23
Note OFF: Time 20800, Note Name: D#3
Note ON: Time 20800, Note Name: G#3, Velocity: 22
Note OFF: Time 20880, Note Name: G#3
Note ON: Time 20880, Note Name: C4, Velocity: 22
Note OFF: Time 20960, Note Name: C4
Note ON: Time 20960, Note Name: G#3, Velocity: 22
Note OFF: Time 21040, Note Name: G#3
Note ON: Time 21040, Note Name: D#3, Velocity: 22
Note OFF: Time 21120, Note Name: D#3
Note ON: Time 21120, Note Name: G#2, Velocity: 25
Note OFF: Time 21200, Note Name: G#2
Note ON: Time 21200, Note Name: D#3, Velocity: 25
Note OFF: Time 21280, Note Name: D#3
Note ON: Time 21280, Note Name: G3, Velocity: 26
Note OFF: Time 21360, Note Name: G3
Note ON: Time 21360, Note Name: C#4, Velocity: 26
Note OFF: Time 21440, Note Name: C#4
Note ON: Time 21440, Note Name: G3, Velocity: 27
Note OFF: Time 21520, Note Name: G3
Note ON: Time 21520, Note Name: D#3, Velocity: 27
Note OFF: Time 21600, Note Name: D#3
Note ON: Time 21600, Note Name: G#2, Velocity: 28
Note OFF: Time 21680, Note Name: G#2
Note ON: Time 21680, Note Name: D#3, Velocity: 28
Note OFF: Time 21760, Note Name: D#3
Note ON: Time 21760, Note Name: G3, Velocity: 29
Note OFF: Time 21840, Note Name: G3
Note ON: Time 21840, Note Name: C#4, Velocity: 29
Note OFF: Time 21920, Note Name: C#4
Note ON: Time 21920, Note Name: G3, Velocity: 30
Note OFF: Time 22000, Note Name: G3
Note ON: Time 22000, Note Name: D#3, Velocity: 30
Note OFF: Time 22080, Note Name: D#3
Note ON: Time 22080, Note Name: G#2, Velocity: 31
Note OFF: Time 22160, Note Name: G#2
Note ON: Time 22160, Note Name: D#3, Velocity: 31
Note OFF: Time 22240, Note Name: D#3
Note ON: Time 22240, Note Name: G3, Velocity: 34
Note OFF: Time 22320, Note Name: G3
Note ON: Time 22320, Note Name: C#4, Velocity: 34
Note OFF: Time 22400, Note Name: C#4
Note ON: Time 22400, Note Name: G3, Velocity: 35
Note OFF: Time 22480, Note Name: G3
Note ON: Time 22480, Note Name: D#3, Velocity: 35
Note OFF: Time 22560, Note Name: D#3
Note ON: Time 22560, Note Name: G#2, Velocity: 35
Note OFF: Time 22640, Note Name: G#2
Note ON: Time 22640, Note Name: D#3, Velocity: 35
Note OFF: Time 22720, Note Name: D#3
Note ON: Time 22720, Note Name: G3, Velocity: 34
Note OFF: Time 22800, Note Name: G3
Note ON: Time 22800, Note Name: C#4, Velocity: 33
Note OFF: Time 22880, Note Name: C#4
Note ON: Time 22880, Note Name: G3, Velocity: 33
Note OFF: Time 22960, Note Name: G3
Note ON: Time 22960, Note Name: D#3, Velocity: 31
Note OFF: Time 23040, Note Name: D#3
Note ON: Time 23040, Note Name: G#2, Velocity: 31
Note OFF: Time 23120, Note Name: G#2
Note ON: Time 23120, Note Name: D#3, Velocity: 31
Note OFF: Time 23200, Note Name: D#3
Note ON: Time 23200, Note Name: G#3, Velocity: 30
Note OFF: Time 23280, Note Name: G#3
Note ON: Time 23280, Note Name: C4, Velocity: 30
Note OFF: Time 23360, Note Name: C4
Note ON: Time 23360, Note Name: G#3, Velocity: 30
Note OFF: Time 23440, Note Name: G#3
Note ON: Time 23440, Note Name: D#3, Velocity: 29
Note OFF: Time 23520, Note Name: D#3
Note ON: Time 23520, Note Name: G#2, Velocity: 35
Note OFF: Time 23600, Note Name: G#2
Note ON: Time 23600, Note Name: D#3, Velocity: 35
Note OFF: Time 23680, Note Name: D#3
Note ON: Time 23680, Note Name: G#3, Velocity: 34
Note OFF: Time 23760, Note Name: G#3
Note ON: Time 23760, Note Name: C4, Velocity: 34
Note OFF: Time 23840, Note Name: C4
Note ON: Time 23840, Note Name: G#3, Velocity: 33
Note OFF: Time 23920, Note Name: G#3
Note ON: Time 23920, Note Name: D#3, Velocity: 33
Note OFF: Time 24000, Note Name: D#3
Note ON: Time 24000, Note Name: G#2, Velocity: 31
Note OFF: Time 24080, Note Name: G#2
Note ON: Time 24080, Note Name: E3, Velocity: 31
Note OFF: Time 24160, Note Name: E3
Note ON: Time 24160, Note Name: G#3, Velocity: 33
Note OFF: Time 24240, Note Name: G#3
Note ON: Time 24240, Note Name: C4, Velocity: 33
Note OFF: Time 24320, Note Name: C4
Note ON: Time 24320, Note Name: G#3, Velocity: 33
Note OFF: Time 24400, Note Name: G#3
Note ON: Time 24400, Note Name: E3, Velocity: 34
Note OFF: Time 24480, Note Name: E3
Note ON: Time 24480, Note Name: G#2, Velocity: 35
Note OFF: Time 24560, Note Name: G#2
Note ON: Time 24560, Note Name: E3, Velocity: 35
Note OFF: Time 24640, Note Name: E3
Note ON: Time 24640, Note Name: G#3, Velocity: 37
Note OFF: Time 24720, Note Name: G#3
Note ON: Time 24720, Note Name: C4, Velocity: 38
Note OFF: Time 24800, Note Name: C4
Note ON: Time 24800, Note Name: G#3, Velocity: 38
Note OFF: Time 24880, Note Name: G#3
Note ON: Time 24880, Note Name: E3, Velocity: 39
Note OFF: Time 24960, Note Name: E3
Note ON: Time 24960, Note Name: C#2, Velocity: 48
Note OFF: Time 25040, Note Name: C#2
Note ON: Time 25040, Note Name: G#3, Velocity: 34
Note OFF: Time 25120, Note Name: G#3
Note ON: Time 25120, Note Name: C#4, Velocity: 34
Note OFF: Time 25200, Note Name: C#4
Note ON: Time 25200, Note Name: F4, Velocity: 34
Note OFF: Time 25280, Note Name: F4
Note ON: Time 25280, Note Name: C#4, Velocity: 36
Note OFF: Time 25360, Note Name: C#4
Note ON: Time 25360, Note Name: G#3, Velocity: 36
Note OFF: Time 25440, Note Name: G#3
Note ON: Time 25440, Note Name: C#3, Velocity: 40
Note OFF: Time 25520, Note Name: C#3
Note ON: Time 25520, Note Name: G#3, Velocity: 37
Note OFF: Time 25600, Note Name: G#3
Note ON: Time 25600, Note Name: C#4, Velocity: 37
Note OFF: Time 25680, Note Name: C#4
Note ON: Time 25680, Note Name: F4, Velocity: 37
Note OFF: Time 25760, Note Name: F4
Note ON: Time 25760, Note Name: C#4, Velocity: 37
Note OFF: Time 25840, Note Name: C#4
Note ON: Time 25840, Note Name: G#3, Velocity: 38
Note OFF: Time 25920, Note Name: G#3
Note ON: Time 25920, Note Name: C#3, Velocity: 38
Note OFF: Time 26000, Note Name: C#3
Note ON: Time 26000, Note Name: G#3, Velocity: 38
Note OFF: Time 26080, Note Name: G#3
Note ON: Time 26080, Note Name: C#4, Velocity: 39
Note OFF: Time 26160, Note Name: C#4
Note ON: Time 26160, Note Name: F4, Velocity: 39
Note OFF: Time 26240, Note Name: F4
Note ON: Time 26240, Note Name: C#4, Velocity: 39
Note OFF: Time 26320, Note Name: C#4
Note ON: Time 26320, Note Name: G#3, Velocity: 39
Note OFF: Time 26400, Note Name: G#3
Note ON: Time 26400, Note Name: C#3, Velocity: 41
Note OFF: Time 26480, Note Name: C#3
Note ON: Time 26480, Note Name: G3, Velocity: 40
Note OFF: Time 26560, Note Name: G3
Note ON: Time 26560, Note Name: C#4, Velocity: 40
Note OFF: Time 26640, Note Name: C#4
Note ON: Time 26640, Note Name: F4, Velocity: 41
Note OFF: Time 26720, Note Name: F4
Note ON: Time 26720, Note Name: C#4, Velocity: 41
Note OFF: Time 26800, Note Name: C#4
Note ON: Time 26800, Note Name: G3, Velocity: 41
Note OFF: Time 26880, Note Name: G3
Note ON: Time 26880, Note Name: C3, Velocity: 55
Note OFF: Time 26960, Note Name: C3
Note ON: Time 26960, Note Name: G3, Velocity: 42
Note OFF: Time 27040, Note Name: G3
Note ON: Time 27040, Note Name: C4, Velocity: 42
Note OFF: Time 27120, Note Name: C4
Note ON: Time 27120, Note Name: F4, Velocity: 41
Note OFF: Time 27200, Note Name: F4
Note ON: Time 27200, Note Name: C4, Velocity: 41
Note OFF: Time 27280, Note Name: C4
Note ON: Time 27280, Note Name: G3, Velocity: 39
Note OFF: Time 27360, Note Name: G3
Note ON: Time 27360, Note Name: C3, Velocity: 39
Note OFF: Time 27440, Note Name: C3
Note ON: Time 27440, Note Name: G3, Velocity: 38
Note OFF: Time 27520, Note Name: G3
Note ON: Time 27520, Note Name: C4, Velocity: 38
Note OFF: Time 27600, Note Name: C4
Note ON: Time 27600, Note Name: F4, Velocity: 38
Note OFF: Time 27680, Note Name: F4
Note ON: Time 27680, Note Name: C4, Velocity: 36
Note OFF: Time 27760, Note Name: C4
Note ON: Time 27760, Note Name: G3, Velocity: 36
Note OFF: Time 27840, Note Name: G3
Note ON: Time 27840, Note Name: C3, Velocity: 35
Note OFF: Time 27920, Note Name: C3
Note ON: Time 27920, Note Name: G3, Velocity: 35
Note OFF: Time 28000, Note Name: G3
Note ON: Time 28000, Note Name: C4, Velocity: 34
Note OFF: Time 28080, Note Name: C4
Note ON: Time 28080, Note Name: E4, Velocity: 34
Note OFF: Time 28160, Note Name: E4
Note ON: Time 28160, Note Name: C4, Velocity: 33
Note OFF: Time 28240, Note Name: C4
Note ON: Time 28240, Note Name: G3, Velocity: 31
Note OFF: Time 28320, Note Name: G3
Note ON: Time 28320, Note Name: C3, Velocity: 36
Note OFF: Time 28400, Note Name: C3
Note ON: Time 28400, Note Name: G3, Velocity: 29
Note OFF: Time 28480, Note Name: G3
Note ON: Time 28480, Note Name: C4, Velocity: 29
Note OFF: Time 28560, Note Name: C4
Note ON: Time 28560, Note Name: E4, Velocity: 29
Note OFF: Time 28640, Note Name: E4
Note ON: Time 28640, Note Name: C4, Velocity: 28
Note OFF: Time 28720, Note Name: C4
Note ON: Time 28720, Note Name: G3, Velocity: 28
Note OFF: Time 28800, Note Name: G3
Note ON: Time 28800, Note Name: G2, Velocity: 41
Note OFF: Time 28880, Note Name: G2
Note ON: Time 28880, Note Name: D3, Velocity: 25
Note OFF: Time 28960, Note Name: D3
Note ON: Time 28960, Note Name: G3, Velocity: 25
Note OFF: Time 29040, Note Name: G3
Note ON: Time 29040, Note Name: B3, Velocity: 26
Note OFF: Time 29120, Note Name: B3
Note ON: Time 29120, Note Name: G3, Velocity: 26
Note OFF: Time 29200, Note Name: G3
Note ON: Time 29200, Note Name: D3, Velocity: 26
Note OFF: Time 29280, Note Name: D3
Note ON: Time 29280, Note Name: G2, Velocity: 28
Note OFF: Time 29360, Note Name: G2
Note ON: Time 29360, Note Name: D3, Velocity: 26
Note OFF: Time 29440, Note Name: D3
Note ON: Time 29440, Note Name: G3, Velocity: 26
Note OFF: Time 29520, Note Name: G3
Note ON: Time 29520, Note Name: B3, Velocity: 27
Note OFF: Time 29600, Note Name: B3
Note ON: Time 29600, Note Name: G3, Velocity: 27
Note OFF: Time 29680, Note Name: G3
Note ON: Time 29680, Note Name: D3, Velocity: 27
Note OFF: Time 29760, Note Name: D3
Note ON: Time 29760, Note Name: G2, Velocity: 27
Note OFF: Time 29840, Note Name: G2
Note ON: Time 29840, Note Name: D3, Velocity: 27
Note OFF: Time 29920, Note Name: D3
Note ON: Time 29920, Note Name: G3, Velocity: 27
Note OFF: Time 30000, Note Name: G3
Note ON: Time 30000, Note Name: D4, Velocity: 27
Note OFF: Time 30080, Note Name: D4
Note ON: Time 30080, Note Name: G3, Velocity: 27
Note OFF: Time 30160, Note Name: G3
Note ON: Time 30160, Note Name: D3, Velocity: 27
Note OFF: Time 30240, Note Name: D3
Note ON: Time 30240, Note Name: G2, Velocity: 27
Note OFF: Time 30320, Note Name: G2
Note ON: Time 30320, Note Name: D3, Velocity: 28
Note OFF: Time 30400, Note Name: D3
Note ON: Time 30400, Note Name: G3, Velocity: 28
Note OFF: Time 30480, Note Name: G3
Note ON: Time 30480, Note Name: D4, Velocity: 26
Note OFF: Time 30560, Note Name: D4
Note ON: Time 30560, Note Name: G3, Velocity: 26
Note OFF: Time 30640, Note Name: G3
Note ON: Time 30640, Note Name: D3, Velocity: 26
Note OFF: Time 30720, Note Name: D3
Note ON: Time 30720, Note Name: C2, Velocity: 44
Note OFF: Time 30800, Note Name: C2
Note ON: Time 30800, Note Name: G2, Velocity: 23
Note OFF: Time 30880, Note Name: G2
Note ON: Time 30880, Note Name: C3, Velocity: 25
Note OFF: Time 30960, Note Name: C3
Note ON: Time 30960, Note Name: G3, Velocity: 25
Note OFF: Time 31040, Note Name: G3
Note ON: Time 31040, Note Name: C3, Velocity: 26
Note OFF: Time 31120, Note Name: C3
Note ON: Time 31120, Note Name: G2, Velocity: 26
Note OFF: Time 31200, Note Name: G2
Note ON: Time 31200, Note Name: C2, Velocity: 24
Note OFF: Time 31280, Note Name: C2
Note ON: Time 31280, Note Name: G2, Velocity: 24
Note OFF: Time 31360, Note Name: G2
Note ON: Time 31360, Note Name: C3, Velocity: 24
Note OFF: Time 31440, Note Name: C3
Note ON: Time 31440, Note Name: G3, Velocity: 25
Note OFF: Time 31520, Note Name: G3
Note ON: Time 31520, Note Name: C3, Velocity: 25
Note OFF: Time 31600, Note Name: C3
Note ON: Time 31600, Note Name: G2, Velocity: 25
Note OFF: Time 31680, Note Name: G2
Note ON: Time 31680, Note Name: C2, Velocity: 26
Note OFF: Time 31760, Note Name: C2
Note ON: Time 31760, Note Name: G2, Velocity: 26
Note OFF: Time 31840, Note Name: G2
Note ON: Time 31840, Note Name: C3, Velocity: 26
Note OFF: Time 31920, Note Name: C3
Note ON: Time 31920, Note Name: G3, Velocity: 26
Note OFF: Time 32000, Note Name: G3
Note ON: Time 32000, Note Name: C3, Velocity: 25
Note OFF: Time 32080, Note Name: C3
Note ON: Time 32080, Note Name: G2, Velocity: 24
Note OFF: Time 32160, Note Name: G2
Note ON: Time 32160, Note Name: C2, Velocity: 24
Note OFF: Time 32240, Note Name: C2
Note ON: Time 32240, Note Name: G2, Velocity: 23
Note OFF: Time 32320, Note Name: G2
Note ON: Time 32320, Note Name: C3, Velocity: 25
Note OFF: Time 32400, Note Name: C3
Note ON: Time 32400, Note Name: G3, Velocity: 23
Note OFF: Time 32520, Note Name: G3
Note ON: Time 32520, Note Name: C3, Velocity: 19
Note OFF: Time 32640, Note Name: C3
Note ON: Time 32640, Note Name: E2, Velocity: 39
Note OFF: Time 32760, Note Name: E2
Note ON: Time 32760, Note Name: C3, Velocity: 24
Note OFF: Time 32880, Note Name: C3
Note ON: Time 32880, Note Name: A#3, Velocity: 33
Note OFF: Time 33000, Note Name: A#3
Note ON: Time 33000, Note Name: C3, Velocity: 24
Note OFF: Time 33120, Note Name: C3
Note ON: Time 33120, Note Name: E2, Velocity: 26
Note OFF: Time 33240, Note Name: E2
Note ON: Time 33240, Note Name: C3, Velocity: 24
Note OFF: Time 33360, Note Name: C3
Note ON: Time 33360, Note Name: A#3, Velocity: 33
Note OFF: Time 33480, Note Name: A#3
Note ON: Time 33480, Note Name: C3, Velocity: 24
Note OFF: Time 33600, Note Name: C3
Note ON: Time 33600, Note Name: E2, Velocity: 27
Note OFF: Time 33720, Note Name: E2
Note ON: Time 33720, Note Name: C3, Velocity: 24
Note OFF: Time 33840, Note Name: C3
Note ON: Time 33840, Note Name: A#3, Velocity: 33
Note OFF: Time 33960, Note Name: A#3
Note ON: Time 33960, Note Name: C3, Velocity: 24
Note OFF: Time 34080, Note Name: C3
Note ON: Time 34080, Note Name: E2, Velocity: 27
Note OFF: Time 34200, Note Name: E2
Note ON: Time 34200, Note Name: C3, Velocity: 24
Note OFF: Time 34320, Note Name: C3
Note ON: Time 34320, Note Name: A#3, Velocity: 35
Note OFF: Time 34440, Note Name: A#3
Note ON: Time 34440, Note Name: C3, Velocity: 24
Note OFF: Time 34560, Note Name: C3
Note ON: Time 34560, Note Name: F2, Velocity: 34
Note OFF: Time 34680, Note Name: F2
Note ON: Time 34680, Note Name: C3, Velocity: 27
Note OFF: Time 34800, Note Name: C3
Note ON: Time 34800, Note Name: A#3, Velocity: 36
Note OFF: Time 34920, Note Name: A#3
Note ON: Time 34920, Note Name: C3, Velocity: 27
Note OFF: Time 35040, Note Name: C3
Note ON: Time 35040, Note Name: F2, Velocity: 30
Note OFF: Time 35160, Note Name: F2
Note ON: Time 35160, Note Name: C3, Velocity: 28
Note OFF: Time 35280, Note Name: C3
Note ON: Time 35280, Note Name: G#3, Velocity: 37
Note OFF: Time 35400, Note Name: G#3
Note ON: Time 35400, Note Name: C3, Velocity: 28
Note OFF: Time 35520, Note Name: C3
Note ON: Time 35520, Note Name: F2, Velocity: 33
Note OFF: Time 35640, Note Name: F2
Note ON: Time 35640, Note Name: C3, Velocity: 29
Note OFF: Time 35760, Note Name: C3
Note ON: Time 35760, Note Name: G3, Velocity: 37
Note OFF: Time 35880, Note Name: G3
Note ON: Time 35880, Note Name: C3, Velocity: 29
Note OFF: Time 36000, Note Name: C3
Note ON: Time 36000, Note Name: F2, Velocity: 34
Note OFF: Time 36120, Note Name: F2
Note ON: Time 36120, Note Name: C3, Velocity: 30
Note OFF: Time 36240, Note Name: C3
Note ON: Time 36240, Note Name: F3, Velocity: 39
Note OFF: Time 36360, Note Name: F3
Note ON: Time 36360, Note Name: C3, Velocity: 30
Note OFF: Time 36480, Note Name: C3
Note ON: Time 36480, Note Name: G2, Velocity: 42
Note OFF: Time 36600, Note Name: G2
Note ON: Time 36600, Note Name: D#3, Velocity: 30
Note OFF: Time 36720, Note Name: D#3
Note ON: Time 36720, Note Name: C#4, Velocity: 40
Note OFF: Time 36840, Note Name: C#4
Note ON: Time 36840, Note Name: D#3, Velocity: 30
Note OFF: Time 36960, Note Name: D#3
Note ON: Time 36960, Note Name: G2, Velocity: 35
Note OFF: Time 37080, Note Name: G2
Note ON: Time 37080, Note Name: D#3, Velocity: 31
Note OFF: Time 37200, Note Name: D#3
Note ON: Time 37200, Note Name: C#4, Velocity: 42
Note OFF: Time 37320, Note Name: C#4
Note ON: Time 37320, Note Name: D#3, Velocity: 33
Note OFF: Time 37440, Note Name: D#3
Note ON: Time 37440, Note Name: G2, Velocity: 38
Note OFF: Time 37560, Note Name: G2
Note ON: Time 37560, Note Name: D#3, Velocity: 34
Note OFF: Time 37680, Note Name: D#3
Note ON: Time 37680, Note Name: C#4, Velocity: 44
Note OFF: Time 37800, Note Name: C#4
Note ON: Time 37800, Note Name: D#3, Velocity: 34
Note OFF: Time 37920, Note Name: D#3
Note ON: Time 37920, Note Name: G2, Velocity: 35
Note OFF: Time 38040, Note Name: G2
Note ON: Time 38040, Note Name: D#3, Velocity: 30
Note OFF: Time 38160, Note Name: D#3
Note ON: Time 38160, Note Name: C#4, Velocity: 39
Note OFF: Time 38280, Note Name: C#4
Note ON: Time 38280, Note Name: D#3, Velocity: 30
Note OFF: Time 38400, Note Name: D#3
Note ON: Time 38400, Note Name: G#2, Velocity: 38
Note OFF: Time 38520, Note Name: G#2
Note ON: Time 38520, Note Name: D#3, Velocity: 30
Note OFF: Time 38640, Note Name: D#3
Note ON: Time 38640, Note Name: C#4, Velocity: 40
Note OFF: Time 38760, Note Name: C#4
Note ON: Time 38760, Note Name: D#3, Velocity: 31
Note OFF: Time 38880, Note Name: D#3
Note ON: Time 38880, Note Name: G#2, Velocity: 35
Note OFF: Time 39000, Note Name: G#2
Note ON: Time 39000, Note Name: D#3, Velocity: 31
Note OFF: Time 39120, Note Name: D#3
Note ON: Time 39120, Note Name: C4, Velocity: 40
Note OFF: Time 39240, Note Name: C4
Note ON: Time 39240, Note Name: D#3, Velocity: 33
Note OFF: Time 39360, Note Name: D#3
Note ON: Time 39360, Note Name: G#2, Velocity: 38
Note OFF: Time 39480, Note Name: G#2
Note ON: Time 39480, Note Name: D#3, Velocity: 34
Note OFF: Time 39600, Note Name: D#3
Note ON: Time 39600, Note Name: A#3, Velocity: 42
Note OFF: Time 39720, Note Name: A#3
Note ON: Time 39720, Note Name: D#3, Velocity: 35
Note OFF: Time 39840, Note Name: D#3
Note ON: Time 39840, Note Name: G#2, Velocity: 40
Note OFF: Time 39960, Note Name: G#2
Note ON: Time 39960, Note Name: D#3, Velocity: 36
Note OFF: Time 40080, Note Name: D#3
Note ON: Time 40080, Note Name: G#3, Velocity: 45
Note OFF: Time 40200, Note Name: G#3
Note ON: Time 40200, Note Name: D#3, Velocity: 37
Note OFF: Time 40320, Note Name: D#3
Note ON: Time 40320, Note Name: D#2, Velocity: 47
Note OFF: Time 40440, Note Name: D#2
Note ON: Time 40440, Note Name: G3, Velocity: 38
Note OFF: Time 40560, Note Name: G3
Note ON: Time 40560, Note Name: C4, Velocity: 39
Note OFF: Time 40680, Note Name: C4
Note ON: Time 40680, Note Name: G3, Velocity: 38
Note OFF: Time 40800, Note Name: G3
Note ON: Time 40800, Note Name: C3, Velocity: 41
Note OFF: Time 40920, Note Name: C3
Note ON: Time 40920, Note Name: G3, Velocity: 38
Note OFF: Time 41040, Note Name: G3
Note ON: Time 41040, Note Name: C4, Velocity: 44
Note OFF: Time 41160, Note Name: C4
Note ON: Time 41160, Note Name: G3, Velocity: 38
Note OFF: Time 41280, Note Name: G3
Note ON: Time 41280, Note Name: F2, Velocity: 51
Note OFF: Time 41400, Note Name: F2
Note ON: Time 41400, Note Name: D3, Velocity: 34
Note OFF: Time 41520, Note Name: D3
Note ON: Time 41520, Note Name: C4, Velocity: 35
Note OFF: Time 41640, Note Name: C4
Note ON: Time 41640, Note Name: D3, Velocity: 30
Note OFF: Time 41760, Note Name: D3
Note ON: Time 41760, Note Name: G2, Velocity: 39
Note OFF: Time 41880, Note Name: G2
Note ON: Time 41880, Note Name: D3, Velocity: 30
Note OFF: Time 42000, Note Name: D3
Note ON: Time 42000, Note Name: B3, Velocity: 35
Note OFF: Time 42080, Note Name: B3
Note ON: Time 42080, Note Name: G3, Velocity: 30
Note OFF: Time 42160, Note Name: G3
Note ON: Time 42160, Note Name: D3, Velocity: 30
Note OFF: Time 42240, Note Name: D3
Note ON: Time 42240, Note Name: C3, Velocity: 37
Note OFF: Time 42320, Note Name: C3
Note ON: Time 42320, Note Name: E3, Velocity: 26
Note OFF: Time 42400, Note Name: E3
Note ON: Time 42400, Note Name: G3, Velocity: 25
Note OFF: Time 42480, Note Name: G3
Note ON: Time 42480, Note Name: C4, Velocity: 25
Note OFF: Time 42560, Note Name: C4
Note ON: Time 42560, Note Name: G3, Velocity: 26
Note OFF: Time 42640, Note Name: G3
Note ON: Time 42640, Note Name: E3, Velocity: 26
Note OFF: Time 42720, Note Name: E3
Note ON: Time 42720, Note Name: C3, Velocity: 27
Note OFF: Time 42800, Note Name: C3
Note ON: Time 42800, Note Name: F3, Velocity: 27
Note OFF: Time 42880, Note Name: F3
Note ON: Time 42880, Note Name: G#3, Velocity: 28
Note OFF: Time 42960, Note Name: G#3
Note ON: Time 42960, Note Name: B3, Velocity: 28
Note OFF: Time 43040, Note Name: B3
Note ON: Time 43040, Note Name: G#3, Velocity: 29
Note OFF: Time 43120, Note Name: G#3
Note ON: Time 43120, Note Name: F3, Velocity: 29
Note OFF: Time 43200, Note Name: F3
Note ON: Time 43200, Note Name: C3, Velocity: 31
Note OFF: Time 43280, Note Name: C3
Note ON: Time 43280, Note Name: F3, Velocity: 31
Note OFF: Time 43360, Note Name: F3
Note ON: Time 43360, Note Name: G#3, Velocity: 31
Note OFF: Time 43440, Note Name: G#3
Note ON: Time 43440, Note Name: D4, Velocity: 30
Note OFF: Time 43520, Note Name: D4
Note ON: Time 43520, Note Name: G#3, Velocity: 29
Note OFF: Time 43600, Note Name: G#3
Note ON: Time 43600, Note Name: F3, Velocity: 29
Note OFF: Time 43680, Note Name: F3
Note ON: Time 43680, Note Name: C3, Velocity: 27
Note OFF: Time 43760, Note Name: C3
Note ON: Time 43760, Note Name: E3, Velocity: 26
Note OFF: Time 43840, Note Name: E3
Note ON: Time 43840, Note Name: G#3, Velocity: 26
Note OFF: Time 43920, Note Name: G#3
Note ON: Time 43920, Note Name: D4, Velocity: 24
Note OFF: Time 44000, Note Name: D4
Note ON: Time 44000, Note Name: G#3, Velocity: 24
Note OFF: Time 44080, Note Name: G#3
Note ON: Time 44080, Note Name: E3, Velocity: 28
Note OFF: Time 44160, Note Name: E3
Note ON: Time 44160, Note Name: C3, Velocity: 33
Note OFF: Time 44240, Note Name: C3
Note ON: Time 44240, Note Name: E3, Velocity: 26
Note OFF: Time 44320, Note Name: E3
Note ON: Time 44320, Note Name: G3, Velocity: 27
Note OFF: Time 44400, Note Name: G3
Note ON: Time 44400, Note Name: C4, Velocity: 27
Note OFF: Time 44480, Note Name: C4
Note ON: Time 44480, Note Name: G3, Velocity: 28
Note OFF: Time 44560, Note Name: G3
Note ON: Time 44560, Note Name: E3, Velocity: 28
Note OFF: Time 44640, Note Name: E3
Note ON: Time 44640, Note Name: B2, Velocity: 36
Note OFF: Time 44720, Note Name: B2
Note ON: Time 44720, Note Name: F3, Velocity: 30
Note OFF: Time 44800, Note Name: F3
Note ON: Time 44800, Note Name: G#3, Velocity: 30
Note OFF: Time 44880, Note Name: G#3
Note ON: Time 44880, Note Name: B3, Velocity: 31
Note OFF: Time 44960, Note Name: B3
Note ON: Time 44960, Note Name: G#3, Velocity: 31
Note OFF: Time 45040, Note Name: G#3
Note ON: Time 45040, Note Name: F3, Velocity: 33
Note OFF: Time 45120, Note Name: F3
Note ON: Time 45120, Note Name: B2, Velocity: 34
Note OFF: Time 45200, Note Name: B2
Note ON: Time 45200, Note Name: F3, Velocity: 34
Note OFF: Time 45280, Note Name: F3
Note ON: Time 45280, Note Name: G#3, Velocity: 33
Note OFF: Time 45360, Note Name: G#3
Note ON: Time 45360, Note Name: D4, Velocity: 33
Note OFF: Time 45440, Note Name: D4
Note ON: Time 45440, Note Name: G#3, Velocity: 31
Note OFF: Time 45520, Note Name: G#3
Note ON: Time 45520, Note Name: F3, Velocity: 30
Note OFF: Time 45600, Note Name: F3
Note ON: Time 45600, Note Name: B2, Velocity: 30
Note OFF: Time 45680, Note Name: B2
Note ON: Time 45680, Note Name: E3, Velocity: 29
Note OFF: Time 45760, Note Name: E3
Note ON: Time 45760, Note Name: G#3, Velocity: 28
Note OFF: Time 45840, Note Name: G#3
Note ON: Time 45840, Note Name: D4, Velocity: 28
Note OFF: Time 45920, Note Name: D4
Note ON: Time 45920, Note Name: G#3, Velocity: 27
Note OFF: Time 46000, Note Name: G#3
Note ON: Time 46000, Note Name: E3, Velocity: 28
Note OFF: Time 46080, Note Name: E3
Note ON: Time 46080, Note Name: A2, Velocity: 35
Note OFF: Time 46160, Note Name: A2
Note ON: Time 46160, Note Name: E3, Velocity: 26
Note OFF: Time 46240, Note Name: E3
Note ON: Time 46240, Note Name: A3, Velocity: 27
Note OFF: Time 46320, Note Name: A3
Note ON: Time 46320, Note Name: C#4, Velocity: 27
Note OFF: Time 46400, Note Name: C#4
Note ON: Time 46400, Note Name: A3, Velocity: 28
Note OFF: Time 46480, Note Name: A3
Note ON: Time 46480, Note Name: E3, Velocity: 28
Note OFF: Time 46560, Note Name: E3
Note ON: Time 46560, Note Name: A2, Velocity: 29
Note OFF: Time 46640, Note Name: A2
Note ON: Time 46640, Note Name: F#3, Velocity: 30
Note OFF: Time 46720, Note Name: F#3
Note ON: Time 46720, Note Name: A3, Velocity: 30
Note OFF: Time 46800, Note Name: A3
Note ON: Time 46800, Note Name: B3, Velocity: 31
Note OFF: Time 46880, Note Name: B3
Note ON: Time 46880, Note Name: A3, Velocity: 31
Note OFF: Time 46960, Note Name: A3
Note ON: Time 46960, Note Name: F#3, Velocity: 33
Note OFF: Time 47040, Note Name: F#3
Note ON: Time 47040, Note Name: A2, Velocity: 34
Note OFF: Time 47120, Note Name: A2
Note ON: Time 47120, Note Name: F#3, Velocity: 34
Note OFF: Time 47200, Note Name: F#3
Note ON: Time 47200, Note Name: A3, Velocity: 33
Note OFF: Time 47280, Note Name: A3
Note ON: Time 47280, Note Name: D4, Velocity: 33
Note OFF: Time 47360, Note Name: D4
Note ON: Time 47360, Note Name: A3, Velocity: 31
Note OFF: Time 47440, Note Name: A3
Note ON: Time 47440, Note Name: F#3, Velocity: 30
Note OFF: Time 47520, Note Name: F#3
Note ON: Time 47520, Note Name: A2, Velocity: 30
Note OFF: Time 47600, Note Name: A2
Note ON: Time 47600, Note Name: E3, Velocity: 29
Note OFF: Time 47680, Note Name: E3
Note ON: Time 47680, Note Name: G#3, Velocity: 28
Note OFF: Time 47760, Note Name: G#3
Note ON: Time 47760, Note Name: D4, Velocity: 28
Note OFF: Time 47840, Note Name: D4
Note ON: Time 47840, Note Name: G#3, Velocity: 27
Note OFF: Time 47920, Note Name: G#3
Note ON: Time 47920, Note Name: E3, Velocity: 28
Note OFF: Time 48000, Note Name: E3
Note ON: Time 48000, Note Name: A2, Velocity: 37
Note OFF: Time 48080, Note Name: A2
Note ON: Time 48080, Note Name: E3, Velocity: 30
Note OFF: Time 48160, Note Name: E3
Note ON: Time 48160, Note Name: A3, Velocity: 31
Note OFF: Time 48240, Note Name: A3
Note ON: Time 48240, Note Name: C#4, Velocity: 31
Note OFF: Time 48320, Note Name: C#4
Note ON: Time 48320, Note Name: A3, Velocity: 34
Note OFF: Time 48400, Note Name: A3
Note ON: Time 48400, Note Name: E3, Velocity: 34
Note OFF: Time 48480, Note Name: E3
Note ON: Time 48480, Note Name: A2, Velocity: 35
Note OFF: Time 48560, Note Name: A2
Note ON: Time 48560, Note Name: E3, Velocity: 35
Note OFF: Time 48640, Note Name: E3
Note ON: Time 48640, Note Name: A3, Velocity: 36
Note OFF: Time 48720, Note Name: A3
Note ON: Time 48720, Note Name: C#4, Velocity: 36
Note OFF: Time 48800, Note Name: C#4
Note ON: Time 48800, Note Name: A3, Velocity: 38
Note OFF: Time 48880, Note Name: A3
Note ON: Time 48880, Note Name: E3, Velocity: 38
Note OFF: Time 48960, Note Name: E3
Note ON: Time 48960, Note Name: A2, Velocity: 39
Note OFF: Time 49040, Note Name: A2
Note ON: Time 49040, Note Name: D#3, Velocity: 39
Note OFF: Time 49120, Note Name: D#3
Note ON: Time 49120, Note Name: F#3, Velocity: 40
Note OFF: Time 49200, Note Name: F#3
Note ON: Time 49200, Note Name: C4, Velocity: 40
Note OFF: Time 49280, Note Name: C4
Note ON: Time 49280, Note Name: F#3, Velocity: 42
Note OFF: Time 49360, Note Name: F#3
Note ON: Time 49360, Note Name: D#3, Velocity: 42
Note OFF: Time 49440, Note Name: D#3
Note ON: Time 49440, Note Name: A2, Velocity: 44
Note OFF: Time 49520, Note Name: A2
Note ON: Time 49520, Note Name: D#3, Velocity: 44
Note OFF: Time 49600, Note Name: D#3
Note ON: Time 49600, Note Name: F#3, Velocity: 45
Note OFF: Time 49680, Note Name: F#3
Note ON: Time 49680, Note Name: C4, Velocity: 45
Note OFF: Time 49760, Note Name: C4
Note ON: Time 49760, Note Name: F#3, Velocity: 46
Note OFF: Time 49840, Note Name: F#3
Note ON: Time 49840, Note Name: D#3, Velocity: 46
Note OFF: Time 49920, Note Name: D#3
Note ON: Time 49920, Note Name: C#2, Velocity: 59
Note OFF: Time 50000, Note Name: C#2
Note ON: Time 50000, Note Name: G#3, Velocity: 44
Note OFF: Time 50080, Note Name: G#3
Note ON: Time 50080, Note Name: A#3, Velocity: 45
Note OFF: Time 50160, Note Name: A#3
Note ON: Time 50160, Note Name: C#4, Velocity: 45
Note OFF: Time 50240, Note Name: C#4
Note ON: Time 50240, Note Name: A#3, Velocity: 45
Note OFF: Time 50320, Note Name: A#3
Note ON: Time 50320, Note Name: G#3, Velocity: 46
Note OFF: Time 50400, Note Name: G#3
Note ON: Time 50400, Note Name: C#3, Velocity: 46
Note OFF: Time 50480, Note Name: C#3
Note ON: Time 50480, Note Name: G#3, Velocity: 48
Note OFF: Time 50560, Note Name: G#3
Note ON: Time 50560, Note Name: A#3, Velocity: 48
Note OFF: Time 50640, Note Name: A#3
Note ON: Time 50640, Note Name: C#4, Velocity: 49
Note OFF: Time 50720, Note Name: C#4
Note ON: Time 50720, Note Name: A#3, Velocity: 49
Note OFF: Time 50800, Note Name: A#3
Note ON: Time 50800, Note Name: G#3, Velocity: 49
Note OFF: Time 50880, Note Name: G#3
Note ON: Time 50880, Note Name: C#2, Velocity: 63
Note OFF: Time 50960, Note Name: C#2
Note ON: Time 50960, Note Name: G#3, Velocity: 50
Note OFF: Time 51040, Note Name: G#3
Note ON: Time 51040, Note Name: A#3, Velocity: 52
Note OFF: Time 51120, Note Name: A#3
Note ON: Time 51120, Note Name: C#4, Velocity: 52
Note OFF: Time 51200, Note Name: C#4
Note ON: Time 51200, Note Name: A#3, Velocity: 52
Note OFF: Time 51280, Note Name: A#3
Note ON: Time 51280, Note Name: G#3, Velocity: 53
Note OFF: Time 51360, Note Name: G#3
Note ON: Time 51360, Note Name: C#3, Velocity: 53
Note OFF: Time 51440, Note Name: C#3
Note ON: Time 51440, Note Name: G#3, Velocity: 49
Note OFF: Time 51520, Note Name: G#3
Note ON: Time 51520, Note Name: A#3, Velocity: 48
Note OFF: Time 51600, Note Name: A#3
Note ON: Time 51600, Note Name: C#4, Velocity: 46
Note OFF: Time 51680, Note Name: C#4
Note ON: Time 51680, Note Name: A#3, Velocity: 46
Note OFF: Time 51760, Note Name: A#3
Note ON: Time 51760, Note Name: G#3, Velocity: 46
Note OFF: Time 51840, Note Name: G#3
Note ON: Time 51840, Note Name: D#2, Velocity: 67
Note OFF: Time 51920, Note Name: D#2
Note ON: Time 51920, Note Name: D#3, Velocity: 44
Note OFF: Time 52000, Note Name: D#3
Note ON: Time 52000, Note Name: G#3, Velocity: 45
Note OFF: Time 52080, Note Name: G#3
Note ON: Time 52080, Note Name: C4, Velocity: 45
Note OFF: Time 52160, Note Name: C4
Note ON: Time 52160, Note Name: G#3, Velocity: 45
Note OFF: Time 52240, Note Name: G#3
Note ON: Time 52240, Note Name: D#3, Velocity: 46
Note OFF: Time 52320, Note Name: D#3
Note ON: Time 52320, Note Name: C3, Velocity: 46
Note OFF: Time 52400, Note Name: C3
Note ON: Time 52400, Note Name: D#3, Velocity: 48
Note OFF: Time 52480, Note Name: D#3
Note ON: Time 52480, Note Name: G#3, Velocity: 48
Note OFF: Time 52560, Note Name: G#3
Note ON: Time 52560, Note Name: C4, Velocity: 49
Note OFF: Time 52640, Note Name: C4
Note ON: Time 52640, Note Name: G#3, Velocity: 49
Note OFF: Time 52720, Note Name: G#3
Note ON: Time 52720, Note Name: D#3, Velocity: 49
Note OFF: Time 52800, Note Name: D#3
Note ON: Time 52800, Note Name: D#2, Velocity: 68
Note OFF: Time 52880, Note Name: D#2
Note ON: Time 52880, Note Name: D#3, Velocity: 50
Note OFF: Time 52960, Note Name: D#3
Note ON: Time 52960, Note Name: G#3, Velocity: 52
Note OFF: Time 53040, Note Name: G#3
Note ON: Time 53040, Note Name: C4, Velocity: 52
Note OFF: Time 53120, Note Name: C4
Note ON: Time 53120, Note Name: G#3, Velocity: 52
Note OFF: Time 53200, Note Name: G#3
Note ON: Time 53200, Note Name: D#3, Velocity: 53
Note OFF: Time 53280, Note Name: D#3
Note ON: Time 53280, Note Name: C3, Velocity: 53
Note OFF: Time 53360, Note Name: C3
Note ON: Time 53360, Note Name: D#3, Velocity: 50
Note OFF: Time 53440, Note Name: D#3
Note ON: Time 53440, Note Name: G#3, Velocity: 49
Note OFF: Time 53520, Note Name: G#3
Note ON: Time 53520, Note Name: C4, Velocity: 49
Note OFF: Time 53600, Note Name: C4
Note ON: Time 53600, Note Name: G#3, Velocity: 49
Note OFF: Time 53680, Note Name: G#3
Note ON: Time 53680, Note Name: D#3, Velocity: 49
Note OFF: Time 53760, Note Name: D#3
Note ON: Time 53760, Note Name: D#2, Velocity: 67
Note OFF: Time 53840, Note Name: D#2
Note ON: Time 53840, Note Name: D#3, Velocity: 44
Note OFF: Time 53920, Note Name: D#3
Note ON: Time 53920, Note Name: G3, Velocity: 45
Note OFF: Time 54000, Note Name: G3
Note ON: Time 54000, Note Name: D#4, Velocity: 45
Note OFF: Time 54080, Note Name: D#4
Note ON: Time 54080, Note Name: G3, Velocity: 45
Note OFF: Time 54160, Note Name: G3
Note ON: Time 54160, Note Name: D#3, Velocity: 46
Note OFF: Time 54240, Note Name: D#3
Note ON: Time 54240, Note Name: A#2, Velocity: 46
Note OFF: Time 54320, Note Name: A#2
Note ON: Time 54320, Note Name: D#3, Velocity: 48
Note OFF: Time 54400, Note Name: D#3
Note ON: Time 54400, Note Name: G3, Velocity: 48
Note OFF: Time 54480, Note Name: G3
Note ON: Time 54480, Note Name: D#4, Velocity: 49
Note OFF: Time 54560, Note Name: D#4
Note ON: Time 54560, Note Name: G3, Velocity: 49
Note OFF: Time 54640, Note Name: G3
Note ON: Time 54640, Note Name: D#3, Velocity: 49
Note OFF: Time 54720, Note Name: D#3
Note ON: Time 54720, Note Name: D#2, Velocity: 70
Note OFF: Time 54800, Note Name: D#2
Note ON: Time 54800, Note Name: D#3, Velocity: 50
Note OFF: Time 54880, Note Name: D#3
Note ON: Time 54880, Note Name: G3, Velocity: 52
Note OFF: Time 54960, Note Name: G3
Note ON: Time 54960, Note Name: D#4, Velocity: 52
Note OFF: Time 55040, Note Name: D#4
Note ON: Time 55040, Note Name: G3, Velocity: 52
Note OFF: Time 55120, Note Name: G3
Note ON: Time 55120, Note Name: D#3, Velocity: 53
Note OFF: Time 55200, Note Name: D#3
Note ON: Time 55200, Note Name: A#2, Velocity: 53
Note OFF: Time 55280, Note Name: A#2
Note ON: Time 55280, Note Name: D#3, Velocity: 50
Note OFF: Time 55360, Note Name: D#3
Note ON: Time 55360, Note Name: G3, Velocity: 49
Note OFF: Time 55440, Note Name: G3
Note ON: Time 55440, Note Name: D#4, Velocity: 49
Note OFF: Time 55520, Note Name: D#4
Note ON: Time 55520, Note Name: G3, Velocity: 49
Note OFF: Time 55600, Note Name: G3
Note ON: Time 55600, Note Name: D#3, Velocity: 49
Note OFF: Time 55680, Note Name: D#3
Note ON: Time 55680, Note Name: F2, Velocity: 69
Note OFF: Time 55800, Note Name: F2
Note ON: Time 55800, Note Name: F3, Velocity: 40
Note OFF: Time 55920, Note Name: F3
Note ON: Time 55920, Note Name: G#3, Velocity: 40
Note OFF: Time 56040, Note Name: G#3
Note ON: Time 56040, Note Name: F3, Velocity: 40
Note OFF: Time 56160, Note Name: F3
Note ON: Time 56160, Note Name: G#2, Velocity: 40
Note OFF: Time 56280, Note Name: G#2
Note ON: Time 56280, Note Name: F3, Velocity: 40
Note OFF: Time 56400, Note Name: F3
Note ON: Time 56400, Note Name: G#3, Velocity: 39
Note OFF: Time 56480, Note Name: G#3
Note ON: Time 56480, Note Name: F3, Velocity: 46
Note OFF: Time 56560, Note Name: F3
Note ON: Time 56560, Note Name: C3, Velocity: 39
Note OFF: Time 56640, Note Name: C3
Note ON: Time 56640, Note Name: F2, Velocity: 58
Note OFF: Time 56760, Note Name: F2
Note ON: Time 56760, Note Name: F3, Velocity: 39
Note OFF: Time 56880, Note Name: F3
Note ON: Time 56880, Note Name: A3, Velocity: 39
Note OFF: Time 57000, Note Name: A3
Note ON: Time 57000, Note Name: D#3, Velocity: 39
Note OFF: Time 57120, Note Name: D#3
Note ON: Time 57120, Note Name: C3, Velocity: 44
Note OFF: Time 57240, Note Name: C3
Note ON: Time 57240, Note Name: F3, Velocity: 44
Note OFF: Time 57360, Note Name: F3
Note ON: Time 57360, Note Name: A3, Velocity: 45
Note OFF: Time 57440, Note Name: A3
Note ON: Time 57440, Note Name: F3, Velocity: 46
Note OFF: Time 57520, Note Name: F3
Note ON: Time 57520, Note Name: C3, Velocity: 46
Note OFF: Time 57600, Note Name: C3
Note ON: Time 57600, Note Name: A#1, Velocity: 67
Note OFF: Time 57680, Note Name: A#1
Note ON: Time 57680, Note Name: F3, Velocity: 44
Note OFF: Time 57760, Note Name: F3
Note ON: Time 57760, Note Name: A#3, Velocity: 45
Note OFF: Time 57840, Note Name: A#3
Note ON: Time 57840, Note Name: C#4, Velocity: 45
Note OFF: Time 57920, Note Name: C#4
Note ON: Time 57920, Note Name: A#3, Velocity: 45
Note OFF: Time 58000, Note Name: A#3
Note ON: Time 58000, Note Name: F3, Velocity: 46
Note OFF: Time 58080, Note Name: F3
Note ON: Time 58080, Note Name: A#2, Velocity: 46
Note OFF: Time 58160, Note Name: A#2
Note ON: Time 58160, Note Name: F3, Velocity: 48
Note OFF: Time 58240, Note Name: F3
Note ON: Time 58240, Note Name: A#3, Velocity: 48
Note OFF: Time 58320, Note Name: A#3
Note ON: Time 58320, Note Name: C#4, Velocity: 49
Note OFF: Time 58400, Note Name: C#4
Note ON: Time 58400, Note Name: A#3, Velocity: 49
Note OFF: Time 58480, Note Name: A#3
Note ON: Time 58480, Note Name: F3, Velocity: 49
Note OFF: Time 58560, Note Name: F3
Note ON: Time 58560, Note Name: A#1, Velocity: 71
Note OFF: Time 58640, Note Name: A#1
Note ON: Time 58640, Note Name: E3, Velocity: 48
Note OFF: Time 58720, Note Name: E3
Note ON: Time 58720, Note Name: G#3, Velocity: 48
Note OFF: Time 58800, Note Name: G#3
Note ON: Time 58800, Note Name: C#4, Velocity: 46
Note OFF: Time 58880, Note Name: C#4
Note ON: Time 58880, Note Name: G#3, Velocity: 46
Note OFF: Time 58960, Note Name: G#3
Note ON: Time 58960, Note Name: E3, Velocity: 46
Note OFF: Time 59040, Note Name: E3
Note ON: Time 59040, Note Name: A#2, Velocity: 45
Note OFF: Time 59120, Note Name: A#2
Note ON: Time 59120, Note Name: E3, Velocity: 45
Note OFF: Time 59200, Note Name: E3
Note ON: Time 59200, Note Name: G#3, Velocity: 45
Note OFF: Time 59280, Note Name: G#3
Note ON: Time 59280, Note Name: C#4, Velocity: 44
Note OFF: Time 59360, Note Name: C#4
Note ON: Time 59360, Note Name: G#3, Velocity: 44
Note OFF: Time 59440, Note Name: G#3
Note ON: Time 59440, Note Name: E3, Velocity: 44
Note OFF: Time 59520, Note Name: E3
Note ON: Time 59520, Note Name: D#2, Velocity: 63
Note OFF: Time 59600, Note Name: D#2
Note ON: Time 59600, Note Name: D#3, Velocity: 44
Note OFF: Time 59680, Note Name: D#3
Note ON: Time 59680, Note Name: G#3, Velocity: 45
Note OFF: Time 59760, Note Name: G#3
Note ON: Time 59760, Note Name: C4, Velocity: 45
Note OFF: Time 59840, Note Name: C4
Note ON: Time 59840, Note Name: G#3, Velocity: 45
Note OFF: Time 59920, Note Name: G#3
Note ON: Time 59920, Note Name: D#3, Velocity: 46
Note OFF: Time 60000, Note Name: D#3
Note ON: Time 60000, Note Name: C3, Velocity: 46
Note OFF: Time 60080, Note Name: C3
Note ON: Time 60080, Note Name: D#3, Velocity: 48
Note OFF: Time 60160, Note Name: D#3
Note ON: Time 60160, Note Name: G#3, Velocity: 48
Note OFF: Time 60240, Note Name: G#3
Note ON: Time 60240, Note Name: C4, Velocity: 49
Note OFF: Time 60320, Note Name: C4
Note ON: Time 60320, Note Name: G#3, Velocity: 49
Note OFF: Time 60400, Note Name: G#3
Note ON: Time 60400, Note Name: D#3, Velocity: 49
Note OFF: Time 60480, Note Name: D#3
Note ON: Time 60480, Note Name: D#2, Velocity: 67
Note OFF: Time 60560, Note Name: D#2
Note ON: Time 60560, Note Name: D#3, Velocity: 50
Note OFF: Time 60640, Note Name: D#3
Note ON: Time 60640, Note Name: G#3, Velocity: 52
Note OFF: Time 60720, Note Name: G#3
Note ON: Time 60720, Note Name: C4, Velocity: 52
Note OFF: Time 60800, Note Name: C4
Note ON: Time 60800, Note Name: G#3, Velocity: 52
Note OFF: Time 60880, Note Name: G#3
Note ON: Time 60880, Note Name: D#3, Velocity: 53
Note OFF: Time 60960, Note Name: D#3
Note ON: Time 60960, Note Name: C3, Velocity: 53
Note OFF: Time 61040, Note Name: C3
Note ON: Time 61040, Note Name: D#3, Velocity: 50
Note OFF: Time 61120, Note Name: D#3
Note ON: Time 61120, Note Name: G#3, Velocity: 49
Note OFF: Time 61200, Note Name: G#3
Note ON: Time 61200, Note Name: C4, Velocity: 49
Note OFF: Time 61280, Note Name: C4
Note ON: Time 61280, Note Name: G#3, Velocity: 49
Note OFF: Time 61360, Note Name: G#3
Note ON: Time 61360, Note Name: D#3, Velocity: 49
Note OFF: Time 61440, Note Name: D#3
Note ON: Time 61440, Note Name: D#2, Velocity: 56
Note OFF: Time 61560, Note Name: D#2
Note ON: Time 61560, Note Name: A3, Velocity: 36
Note OFF: Time 61680, Note Name: A3
Note ON: Time 61680, Note Name: C4, Velocity: 37
Note OFF: Time 61800, Note Name: C4
Note ON: Time 61800, Note Name: A3, Velocity: 38
Note OFF: Time 61920, Note Name: A3
Note ON: Time 61920, Note Name: D#3, Velocity: 39
Note OFF: Time 62040, Note Name: D#3
Note ON: Time 62040, Note Name: A3, Velocity: 39
Note OFF: Time 62160, Note Name: A3
Note ON: Time 62160, Note Name: C4, Velocity: 40
Note OFF: Time 62240, Note Name: C4
Note ON: Time 62240, Note Name: A3, Velocity: 40
Note OFF: Time 62320, Note Name: A3
Note ON: Time 62320, Note Name: D#3, Velocity: 41
Note OFF: Time 62400, Note Name: D#3
Note ON: Time 62400, Note Name: D#2, Velocity: 58
Note OFF: Time 62520, Note Name: D#2
Note ON: Time 62520, Note Name: A3, Velocity: 42
Note OFF: Time 62640, Note Name: A3
Note ON: Time 62640, Note Name: C4, Velocity: 44
Note OFF: Time 62760, Note Name: C4
Note ON: Time 62760, Note Name: A3, Velocity: 44
Note OFF: Time 62880, Note Name: A3
Note ON: Time 62880, Note Name: D#3, Velocity: 46
Note OFF: Time 62976, Note Name: D#3
Note ON: Time 63000, Note Name: A3, Velocity: 45
Note OFF: Time 63096, Note Name: A3
Note ON: Time 63120, Note Name: F4, Velocity: 44
Note OFF: Time 63200, Note Name: F4
Note ON: Time 63200, Note Name: A3, Velocity: 42
Note OFF: Time 63280, Note Name: A3
Note ON: Time 63280, Note Name: D#3, Velocity: 41
Note OFF: Time 63360, Note Name: D#3
Note ON: Time 63360, Note Name: D#2, Velocity: 60
Note OFF: Time 63480, Note Name: D#2
Note ON: Time 63480, Note Name: A#3, Velocity: 40
Note OFF: Time 63600, Note Name: A#3
Note ON: Time 63600, Note Name: F4, Velocity: 41
Note OFF: Time 63720, Note Name: F4
Note ON: Time 63720, Note Name: A#3, Velocity: 42
Note OFF: Time 63840, Note Name: A#3
Note ON: Time 63840, Note Name: D#3, Velocity: 44
Note OFF: Time 63960, Note Name: D#3
Note ON: Time 63960, Note Name: A#3, Velocity: 45
Note OFF: Time 64080, Note Name: A#3
Note ON: Time 64080, Note Name: C#4, Velocity: 45
Note OFF: Time 64160, Note Name: C#4
Note ON: Time 64160, Note Name: A#3, Velocity: 46
Note OFF: Time 64240, Note Name: A#3
Note ON: Time 64240, Note Name: D#3, Velocity: 47
Note OFF: Time 64320, Note Name: D#3
Note ON: Time 64320, Note Name: D#2, Velocity: 64
Note OFF: Time 64440, Note Name: D#2
Note ON: Time 64440, Note Name: B3, Velocity: 48
Note OFF: Time 64560, Note Name: B3
Note ON: Time 64560, Note Name: D4, Velocity: 49
Note OFF: Time 64680, Note Name: D4
Note ON: Time 64680, Note Name: B3, Velocity: 50
Note OFF: Time 64800, Note Name: B3
Note ON: Time 64800, Note Name: D#3, Velocity: 48
Note OFF: Time 64920, Note Name: D#3
Note ON: Time 64920, Note Name: B3, Velocity: 47
Note OFF: Time 65040, Note Name: B3
Note ON: Time 65040, Note Name: G4, Velocity: 46
Note OFF: Time 65120, Note Name: G4
Note ON: Time 65120, Note Name: B3, Velocity: 46
Note OFF: Time 65200, Note Name: B3
Note ON: Time 65200, Note Name: D#3, Velocity: 45
Note OFF: Time 65280, Note Name: D#3
Note ON: Time 65280, Note Name: D#2, Velocity: 67
Note OFF: Time 65400, Note Name: D#2
Note ON: Time 65400, Note Name: C4, Velocity: 44
Note OFF: Time 65520, Note Name: C4
Note ON: Time 65520, Note Name: G4, Velocity: 45
Note OFF: Time 65640, Note Name: G4
Note ON: Time 65640, Note Name: C4, Velocity: 48
Note OFF: Time 65760, Note Name: C4
Note ON: Time 65760, Note Name: D#3, Velocity: 49
Note OFF: Time 65880, Note Name: D#3
Note ON: Time 65880, Note Name: C4, Velocity: 50
Note OFF: Time 66000, Note Name: C4
Note ON: Time 66000, Note Name: D#4, Velocity: 51
Note OFF: Time 66080, Note Name: D#4
Note ON: Time 66080, Note Name: C4, Velocity: 51
Note OFF: Time 66160, Note Name: C4
Note ON: Time 66160, Note Name: D#3, Velocity: 51
Note OFF: Time 66240, Note Name: D#3
Note ON: Time 66240, Note Name: D#2, Velocity: 64
Note OFF: Time 66360, Note Name: D#2
Note ON: Time 66360, Note Name: C4, Velocity: 52
Note OFF: Time 66480, Note Name: C4
Note ON: Time 66480, Note Name: F#4, Velocity: 52
Note OFF: Time 66600, Note Name: F#4
Note ON: Time 66600, Note Name: C4, Velocity: 53
Note OFF: Time 66720, Note Name: C4
Note ON: Time 66720, Note Name: D#3, Velocity: 46
Note OFF: Time 66800, Note Name: D#3
Note ON: Time 66800, Note Name: C4, Velocity: 46
Note OFF: Time 66880, Note Name: C4
Note ON: Time 66880, Note Name: D#4, Velocity: 46
Note OFF: Time 66960, Note Name: D#4
Note ON: Time 66960, Note Name: A4, Velocity: 46
Note OFF: Time 67040, Note Name: A4
Note ON: Time 67040, Note Name: D#4, Velocity: 46
Note OFF: Time 67120, Note Name: D#4
Note ON: Time 67120, Note Name: C4, Velocity: 46
Note OFF: Time 67200, Note Name: C4
Note ON: Time 67200, Note Name: D#3, Velocity: 70
Note OFF: Time 67280, Note Name: D#3
Note ON: Time 67280, Note Name: A#3, Velocity: 50
Note OFF: Time 67360, Note Name: A#3
Note ON: Time 67360, Note Name: D4, Velocity: 51
Note OFF: Time 67440, Note Name: D4
Note ON: Time 67440, Note Name: G#4, Velocity: 50
Note OFF: Time 67520, Note Name: G#4
Note ON: Time 67520, Note Name: D4, Velocity: 51
Note OFF: Time 67600, Note Name: D4
Note ON: Time 67600, Note Name: A#3, Velocity: 51
Note OFF: Time 67680, Note Name: A#3
Note ON: Time 67680, Note Name: D#3, Velocity: 51
Note OFF: Time 67760, Note Name: D#3
Note ON: Time 67760, Note Name: A#3, Velocity: 51
Note OFF: Time 67840, Note Name: A#3
Note ON: Time 67840, Note Name: D4, Velocity: 52
Note OFF: Time 67920, Note Name: D4
Note ON: Time 67920, Note Name: G#4, Velocity: 52
Note OFF: Time 68000, Note Name: G#4
Note ON: Time 68000, Note Name: D4, Velocity: 52
Note OFF: Time 68080, Note Name: D4
Note ON: Time 68080, Note Name: A#3, Velocity: 52
Note OFF: Time 68160, Note Name: A#3
Note ON: Time 68160, Note Name: D#3, Velocity: 52
Note OFF: Time 68240, Note Name: D#3
Note ON: Time 68240, Note Name: A#3, Velocity: 51
Note OFF: Time 68320, Note Name: A#3
Note ON: Time 68320, Note Name: C#4, Velocity: 51
Note OFF: Time 68400, Note Name: C#4
Note ON: Time 68400, Note Name: G#4, Velocity: 51
Note OFF: Time 68480, Note Name: G#4
Note ON: Time 68480, Note Name: C#4, Velocity: 51
Note OFF: Time 68560, Note Name: C#4
Note ON: Time 68560, Note Name: A#3, Velocity: 51
Note OFF: Time 68640, Note Name: A#3
Note ON: Time 68640, Note Name: D#3, Velocity: 51
Note OFF: Time 68720, Note Name: D#3
Note ON: Time 68720, Note Name: A#3, Velocity: 50
Note OFF: Time 68800, Note Name: A#3
Note ON: Time 68800, Note Name: C#4, Velocity: 50
Note OFF: Time 68880, Note Name: C#4
Note ON: Time 68880, Note Name: D#4, Velocity: 49
Note OFF: Time 68960, Note Name: D#4
Note ON: Time 68960, Note Name: C#4, Velocity: 49
Note OFF: Time 69040, Note Name: C#4
Note ON: Time 69040, Note Name: A#3, Velocity: 51
Note OFF: Time 69120, Note Name: A#3
Note ON: Time 69120, Note Name: G#2, Velocity: 68
Note OFF: Time 69200, Note Name: G#2
Note ON: Time 69200, Note Name: D#3, Velocity: 40
Note OFF: Time 69280, Note Name: D#3
Note ON: Time 69280, Note Name: G#3, Velocity: 40
Note OFF: Time 69360, Note Name: G#3
Note ON: Time 69360, Note Name: C4, Velocity: 40
Note OFF: Time 69440, Note Name: C4
Note ON: Time 69440, Note Name: G#3, Velocity: 39
Note OFF: Time 69520, Note Name: G#3
Note ON: Time 69520, Note Name: D#3, Velocity: 39
Note OFF: Time 69600, Note Name: D#3
Note ON: Time 69600, Note Name: G#2, Velocity: 39
Note OFF: Time 69680, Note Name: G#2
Note ON: Time 69680, Note Name: D#3, Velocity: 29
Note OFF: Time 69760, Note Name: D#3
Note ON: Time 69760, Note Name: G#3, Velocity: 29
Note OFF: Time 69840, Note Name: G#3
Note ON: Time 69840, Note Name: C4, Velocity: 29
Note OFF: Time 69920, Note Name: C4
Note ON: Time 69920, Note Name: G#3, Velocity: 30
Note OFF: Time 70000, Note Name: G#3
Note ON: Time 70000, Note Name: D#3, Velocity: 30
Note OFF: Time 70080, Note Name: D#3
Note ON: Time 70080, Note Name: G#2, Velocity: 31
Note OFF: Time 70160, Note Name: G#2
Note ON: Time 70160, Note Name: D#3, Velocity: 31
Note OFF: Time 70240, Note Name: D#3
Note ON: Time 70240, Note Name: G#3, Velocity: 33
Note OFF: Time 70320, Note Name: G#3
Note ON: Time 70320, Note Name: C4, Velocity: 33
Note OFF: Time 70400, Note Name: C4
Note ON: Time 70400, Note Name: G#3, Velocity: 33
Note OFF: Time 70480, Note Name: G#3
Note ON: Time 70480, Note Name: D#3, Velocity: 34
Note OFF: Time 70560, Note Name: D#3
Note ON: Time 70560, Note Name: G#2, Velocity: 34
Note OFF: Time 70640, Note Name: G#2
Note ON: Time 70640, Note Name: D#3, Velocity: 35
Note OFF: Time 70720, Note Name: D#3
Note ON: Time 70720, Note Name: G#3, Velocity: 35
Note OFF: Time 70800, Note Name: G#3
Note ON: Time 70800, Note Name: C4, Velocity: 35
Note OFF: Time 70880, Note Name: C4
Note ON: Time 70880, Note Name: G#3, Velocity: 36
Note OFF: Time 70960, Note Name: G#3
Note ON: Time 70960, Note Name: D#3, Velocity: 36
Note OFF: Time 71040, Note Name: D#3
Note ON: Time 71040, Note Name: G#2, Velocity: 39
Note OFF: Time 71120, Note Name: G#2
Note ON: Time 71120, Note Name: D#3, Velocity: 39
Note OFF: Time 71200, Note Name: D#3
Note ON: Time 71200, Note Name: G3, Velocity: 40
Note OFF: Time 71280, Note Name: G3
Note ON: Time 71280, Note Name: C#4, Velocity: 41
Note OFF: Time 71360, Note Name: C#4
Note ON: Time 71360, Note Name: G3, Velocity: 42
Note OFF: Time 71440, Note Name: G3
Note ON: Time 71440, Note Name: D#3, Velocity: 42
Note OFF: Time 71520, Note Name: D#3
Note ON: Time 71520, Note Name: G#2, Velocity: 44
Note OFF: Time 71600, Note Name: G#2
Note ON: Time 71600, Note Name: D#3, Velocity: 42
Note OFF: Time 71680, Note Name: D#3
Note ON: Time 71680, Note Name: G3, Velocity: 42
Note OFF: Time 71760, Note Name: G3
Note ON: Time 71760, Note Name: C#4, Velocity: 40
Note OFF: Time 71840, Note Name: C#4
Note ON: Time 71840, Note Name: G3, Velocity: 40
Note OFF: Time 71920, Note Name: G3
Note ON: Time 71920, Note Name: D#3, Velocity: 40
Note OFF: Time 72000, Note Name: D#3
Note ON: Time 72000, Note Name: G#2, Velocity: 40
Note OFF: Time 72080, Note Name: G#2
Note ON: Time 72080, Note Name: D#3, Velocity: 40
Note OFF: Time 72160, Note Name: D#3
Note ON: Time 72160, Note Name: G3, Velocity: 40
Note OFF: Time 72240, Note Name: G3
Note ON: Time 72240, Note Name: C#4, Velocity: 40
Note OFF: Time 72320, Note Name: C#4
Note ON: Time 72320, Note Name: G3, Velocity: 40
Note OFF: Time 72400, Note Name: G3
Note ON: Time 72400, Note Name: D#3, Velocity: 40
Note OFF: Time 72480, Note Name: D#3
Note ON: Time 72480, Note Name: G#2, Velocity: 40
Note OFF: Time 72560, Note Name: G#2
Note ON: Time 72560, Note Name: D#3, Velocity: 40
Note OFF: Time 72640, Note Name: D#3
Note ON: Time 72640, Note Name: G3, Velocity: 40
Note OFF: Time 72720, Note Name: G3
Note ON: Time 72720, Note Name: C#4, Velocity: 41
Note OFF: Time 72800, Note Name: C#4
Note ON: Time 72800, Note Name: G3, Velocity: 41
Note OFF: Time 72880, Note Name: G3
Note ON: Time 72880, Note Name: D#3, Velocity: 41
Note OFF: Time 72960, Note Name: D#3
Note ON: Time 72960, Note Name: G#2, Velocity: 49
Note OFF: Time 73040, Note Name: G#2
Note ON: Time 73040, Note Name: D#3, Velocity: 36
Note OFF: Time 73120, Note Name: D#3
Note ON: Time 73120, Note Name: G#3, Velocity: 36
Note OFF: Time 73200, Note Name: G#3
Note ON: Time 73200, Note Name: C4, Velocity: 36
Note OFF: Time 73280, Note Name: C4
Note ON: Time 73280, Note Name: G#3, Velocity: 36
Note OFF: Time 73360, Note Name: G#3
Note ON: Time 73360, Note Name: D#3, Velocity: 36
Note OFF: Time 73440, Note Name: D#3
Note ON: Time 73440, Note Name: G#2, Velocity: 36
Note OFF: Time 73520, Note Name: G#2
Note ON: Time 73520, Note Name: D#3, Velocity: 29
Note OFF: Time 73600, Note Name: D#3
Note ON: Time 73600, Note Name: G#3, Velocity: 29
Note OFF: Time 73680, Note Name: G#3
Note ON: Time 73680, Note Name: C4, Velocity: 29
Note OFF: Time 73760, Note Name: C4
Note ON: Time 73760, Note Name: G#3, Velocity: 30
Note OFF: Time 73840, Note Name: G#3
Note ON: Time 73840, Note Name: D#3, Velocity: 30
Note OFF: Time 73920, Note Name: D#3
Note ON: Time 73920, Note Name: G#2, Velocity: 31
Note OFF: Time 74000, Note Name: G#2
Note ON: Time 74000, Note Name: D#3, Velocity: 31
Note OFF: Time 74080, Note Name: D#3
Note ON: Time 74080, Note Name: G#3, Velocity: 33
Note OFF: Time 74160, Note Name: G#3
Note ON: Time 74160, Note Name: C4, Velocity: 33
Note OFF: Time 74240, Note Name: C4
Note ON: Time 74240, Note Name: G#3, Velocity: 33
Note OFF: Time 74320, Note Name: G#3
Note ON: Time 74320, Note Name: D#3, Velocity: 34
Note OFF: Time 74400, Note Name: D#3
Note ON: Time 74400, Note Name: G#2, Velocity: 34
Note OFF: Time 74480, Note Name: G#2
Note ON: Time 74480, Note Name: D#3, Velocity: 35
Note OFF: Time 74560, Note Name: D#3
Note ON: Time 74560, Note Name: G#3, Velocity: 35
Note OFF: Time 74640, Note Name: G#3
Note ON: Time 74640, Note Name: C4, Velocity: 35
Note OFF: Time 74720, Note Name: C4
Note ON: Time 74720, Note Name: G#3, Velocity: 36
Note OFF: Time 74800, Note Name: G#3
Note ON: Time 74800, Note Name: D#3, Velocity: 36
Note OFF: Time 74880, Note Name: D#3
Note ON: Time 74880, Note Name: G#2, Velocity: 39
Note OFF: Time 74960, Note Name: G#2
Note ON: Time 74960, Note Name: D#3, Velocity: 38
Note OFF: Time 75040, Note Name: D#3
Note ON: Time 75040, Note Name: G3, Velocity: 38
Note OFF: Time 75120, Note Name: G3
Note ON: Time 75120, Note Name: C#4, Velocity: 37
Note OFF: Time 75200, Note Name: C#4
Note ON: Time 75200, Note Name: G3, Velocity: 37
Note OFF: Time 75280, Note Name: G3
Note ON: Time 75280, Note Name: D#3, Velocity: 36
Note OFF: Time 75360, Note Name: D#3
Note ON: Time 75360, Note Name: G#2, Velocity: 36
Note OFF: Time 75440, Note Name: G#2
Note ON: Time 75440, Note Name: D#3, Velocity: 36
Note OFF: Time 75520, Note Name: D#3
Note ON: Time 75520, Note Name: G3, Velocity: 35
Note OFF: Time 75600, Note Name: G3
Note ON: Time 75600, Note Name: C#4, Velocity: 35
Note OFF: Time 75680, Note Name: C#4
Note ON: Time 75680, Note Name: G3, Velocity: 34
Note OFF: Time 75760, Note Name: G3
Note ON: Time 75760, Note Name: D#3, Velocity: 34
Note OFF: Time 75840, Note Name: D#3
Note ON: Time 75840, Note Name: G#2, Velocity: 26
Note OFF: Time 75920, Note Name: G#2
Note ON: Time 75920, Note Name: D#3, Velocity: 26
Note OFF: Time 76000, Note Name: D#3
Note ON: Time 76000, Note Name: G3, Velocity: 26
Note OFF: Time 76080, Note Name: G3
Note ON: Time 76080, Note Name: C#4, Velocity: 27
Note OFF: Time 76160, Note Name: C#4
Note ON: Time 76160, Note Name: G3, Velocity: 27
Note OFF: Time 76240, Note Name: G3
Note ON: Time 76240, Note Name: D#3, Velocity: 28
Note OFF: Time 76320, Note Name: D#3
Note ON: Time 76320, Note Name: G#2, Velocity: 28
Note OFF: Time 76400, Note Name: G#2
Note ON: Time 76400, Note Name: D#3, Velocity: 27
Note OFF: Time 76480, Note Name: D#3
Note ON: Time 76480, Note Name: G3, Velocity: 27
Note OFF: Time 76560, Note Name: G3
Note ON: Time 76560, Note Name: C#4, Velocity: 27
Note OFF: Time 76640, Note Name: C#4
Note ON: Time 76640, Note Name: G3, Velocity: 28
Note OFF: Time 76720, Note Name: G3
Note ON: Time 76720, Note Name: D#3, Velocity: 30
Note OFF: Time 76800, Note Name: D#3
Note ON: Time 76800, Note Name: G#2, Velocity: 37
Note OFF: Time 76880, Note Name: G#2
Note ON: Time 76880, Note Name: D#3, Velocity: 29
Note OFF: Time 76960, Note Name: D#3
Note ON: Time 76960, Note Name: G#3, Velocity: 29
Note OFF: Time 77040, Note Name: G#3
Note ON: Time 77040, Note Name: C4, Velocity: 29
Note OFF: Time 77120, Note Name: C4
Note ON: Time 77120, Note Name: G#3, Velocity: 29
Note OFF: Time 77200, Note Name: G#3
Note ON: Time 77200, Note Name: D#3, Velocity: 29
Note OFF: Time 77280, Note Name: D#3
Note ON: Time 77280, Note Name: G#2, Velocity: 29
Note OFF: Time 77360, Note Name: G#2
Note ON: Time 77360, Note Name: D#3, Velocity: 29
Note OFF: Time 77440, Note Name: D#3
Note ON: Time 77440, Note Name: G#3, Velocity: 29
Note OFF: Time 77520, Note Name: G#3
Note ON: Time 77520, Note Name: C4, Velocity: 29
Note OFF: Time 77600, Note Name: C4
Note ON: Time 77600, Note Name: G#3, Velocity: 29
Note OFF: Time 77680, Note Name: G#3
Note ON: Time 77680, Note Name: D#3, Velocity: 29
Note OFF: Time 77760, Note Name: D#3
Note ON: Time 77760, Note Name: G#2, Velocity: 28
Note OFF: Time 77840, Note Name: G#2
Note ON: Time 77840, Note Name: D#3, Velocity: 28
Note OFF: Time 77920, Note Name: D#3
Note ON: Time 77920, Note Name: G#3, Velocity: 28
Note OFF: Time 78000, Note Name: G#3
Note ON: Time 78000, Note Name: C4, Velocity: 28
Note OFF: Time 78080, Note Name: C4
Note ON: Time 78080, Note Name: G#3, Velocity: 28
Note OFF: Time 78160, Note Name: G#3
Note ON: Time 78160, Note Name: D#3, Velocity: 28
Note OFF: Time 78240, Note Name: D#3
Note ON: Time 78240, Note Name: G#2, Velocity: 28
Note OFF: Time 78320, Note Name: G#2
Note ON: Time 78320, Note Name: D#3, Velocity: 28
Note OFF: Time 78400, Note Name: D#3
Note ON: Time 78400, Note Name: G#3, Velocity: 28
Note OFF: Time 78480, Note Name: G#3
Note ON: Time 78480, Note Name: C4, Velocity: 28
Note OFF: Time 78560, Note Name: C4
Note ON: Time 78560, Note Name: G#3, Velocity: 28
Note OFF: Time 78640, Note Name: G#3
Note ON: Time 78640, Note Name: D#3, Velocity: 27
Note OFF: Time 78720, Note Name: D#3
Note ON: Time 78720, Note Name: D#2, Velocity: 37
Note OFF: Time 78800, Note Name: D#2
Note ON: Time 78800, Note Name: G#2, Velocity: 29
Note OFF: Time 78880, Note Name: G#2
Note ON: Time 78880, Note Name: D#3, Velocity: 29
Note OFF: Time 78960, Note Name: D#3
Note ON: Time 78960, Note Name: G#3, Velocity: 29
Note OFF: Time 79040, Note Name: G#3
Note ON: Time 79040, Note Name: D#3, Velocity: 29
Note OFF: Time 79120, Note Name: D#3
Note ON: Time 79120, Note Name: G#2, Velocity: 29
Note OFF: Time 79200, Note Name: G#2
Note ON: Time 79200, Note Name: D#2, Velocity: 29
Note OFF: Time 79280, Note Name: D#2
Note ON: Time 79280, Note Name: G#2, Velocity: 28
Note OFF: Time 79360, Note Name: G#2
Note ON: Time 79360, Note Name: D#3, Velocity: 28
Note OFF: Time 79440, Note Name: D#3
Note ON: Time 79440, Note Name: G#3, Velocity: 28
Note OFF: Time 79520, Note Name: G#3
Note ON: Time 79520, Note Name: D#3, Velocity: 28
Note OFF: Time 79600, Note Name: D#3
Note ON: Time 79600, Note Name: G#2, Velocity: 28
Note OFF: Time 79680, Note Name: G#2
Note ON: Time 79680, Note Name: D#2, Velocity: 28
Note OFF: Time 79760, Note Name: D#2
Note ON: Time 79760, Note Name: G#2, Velocity: 27
Note OFF: Time 79840, Note Name: G#2
Note ON: Time 79840, Note Name: D#3, Velocity: 27
Note OFF: Time 79920, Note Name: D#3
Note ON: Time 79920, Note Name: G#3, Velocity: 26
Note OFF: Time 80000, Note Name: G#3
Note ON: Time 80000, Note Name: D#3, Velocity: 26
Note OFF: Time 80080, Note Name: D#3
Note ON: Time 80080, Note Name: G#2, Velocity: 26
Note OFF: Time 80160, Note Name: G#2
Note ON: Time 80160, Note Name: D#2, Velocity: 25
Note OFF: Time 80240, Note Name: D#2
Note ON: Time 80240, Note Name: G#2, Velocity: 25
Note OFF: Time 80320, Note Name: G#2
Note ON: Time 80320, Note Name: D#3, Velocity: 25
Note OFF: Time 80400, Note Name: D#3
Note ON: Time 80400, Note Name: G#3, Velocity: 25
Note OFF: Time 80480, Note Name: G#3
Note ON: Time 80480, Note Name: D#3, Velocity: 25
Note OFF: Time 80560, Note Name: D#3
Note ON: Time 80560, Note Name: G#2, Velocity: 25
Note OFF: Time 80640, Note Name: G#2
Note ON: Time 80640, Note Name: G#1, Velocity: 39
Note OFF: Time 80720, Note Name: G#1
Note ON: Time 80720, Note Name: D#2, Velocity: 27
Note OFF: Time 80800, Note Name: D#2
Note ON: Time 80800, Note Name: G#2, Velocity: 27
Note OFF: Time 80880, Note Name: G#2
Note ON: Time 80880, Note Name: D#3, Velocity: 27
Note OFF: Time 80960, Note Name: D#3
Note ON: Time 80960, Note Name: G#2, Velocity: 27
Note OFF: Time 81040, Note Name: G#2
Note ON: Time 81040, Note Name: D#2, Velocity: 28
Note OFF: Time 81120, Note Name: D#2
Note ON: Time 81120, Note Name: G#1, Velocity: 28
Note OFF: Time 81200, Note Name: G#1
Note ON: Time 81200, Note Name: D#2, Velocity: 27
Note OFF: Time 81280, Note Name: D#2
Note ON: Time 81280, Note Name: G#2, Velocity: 27
Note OFF: Time 81360, Note Name: G#2
Note ON: Time 81360, Note Name: D#3, Velocity: 27
Note OFF: Time 81440, Note Name: D#3
Note ON: Time 81440, Note Name: G#2, Velocity: 27
Note OFF: Time 81520, Note Name: G#2
Note ON: Time 81520, Note Name: D#2, Velocity: 27
Note OFF: Time 81600, Note Name: D#2
Note ON: Time 81600, Note Name: G#1, Velocity: 26
Note OFF: Time 81680, Note Name: G#1
Note ON: Time 81680, Note Name: D#2, Velocity: 26
Note OFF: Time 81760, Note Name: D#2
Note ON: Time 81760, Note Name: G#2, Velocity: 26
Note OFF: Time 81840, Note Name: G#2
Note ON: Time 81840, Note Name: D#3, Velocity: 26
Note OFF: Time 81920, Note Name: D#3
Note ON: Time 81920, Note Name: G#2, Velocity: 26
Note OFF: Time 82000, Note Name: G#2
Note ON: Time 82000, Note Name: D#2, Velocity: 26
Note OFF: Time 82080, Note Name: D#2
Note ON: Time 82080, Note Name: G#1, Velocity: 25
Note OFF: Time 82160, Note Name: G#1
Note ON: Time 82160, Note Name: D#2, Velocity: 25
Note OFF: Time 82240, Note Name: D#2
Note ON: Time 82240, Note Name: G#2, Velocity: 24
Note OFF: Time 82320, Note Name: G#2
Note ON: Time 82320, Note Name: D#3, Velocity: 24
Note OFF: Time 82400, Note Name: D#3
Note ON: Time 82400, Note Name: G#2, Velocity: 24
Note OFF: Time 82480, Note Name: G#2
Note ON: Time 82480, Note Name: D#2, Velocity: 24
Note OFF: Time 82560, Note Name: D#2
Note ON: Time 82560, Note Name: G#1, Velocity: 34
Note OFF: Time 82640, Note Name: G#1
Note ON: Time 82640, Note Name: D#2, Velocity: 26
Note OFF: Time 82720, Note Name: D#2
Note ON: Time 82720, Note Name: G#2, Velocity: 26
Note OFF: Time 82800, Note Name: G#2
Note ON: Time 82800, Note Name: D#3, Velocity: 26
Note OFF: Time 82880, Note Name: D#3
Note ON: Time 82880, Note Name: G#2, Velocity: 26
Note OFF: Time 82960, Note Name: G#2
Note ON: Time 82960, Note Name: D#2, Velocity: 26
Note OFF: Time 83040, Note Name: D#2
Note ON: Time 83040, Note Name: G#1, Velocity: 26
Note OFF: Time 83120, Note Name: G#1
Note ON: Time 83120, Note Name: D#2, Velocity: 26
Note OFF: Time 83200, Note Name: D#2
Note ON: Time 83200, Note Name: G#2, Velocity: 26
Note OFF: Time 83280, Note Name: G#2
Note ON: Time 83280, Note Name: D#3, Velocity: 26
Note OFF: Time 83360, Note Name: D#3
Note ON: Time 83360, Note Name: G#2, Velocity: 25
Note OFF: Time 83440, Note Name: G#2
Note ON: Time 83440, Note Name: D#2, Velocity: 25
Note OFF: Time 83520, Note Name: D#2
Note ON: Time 83520, Note Name: G#1, Velocity: 25
Note OFF: Time 83600, Note Name: G#1
Note ON: Time 83600, Note Name: D#2, Velocity: 25
Note OFF: Time 83680, Note Name: D#2
Note ON: Time 83680, Note Name: G#2, Velocity: 25
Note OFF: Time 83760, Note Name: G#2
Note ON: Time 83760, Note Name: D#3, Velocity: 25
Note OFF: Time 83840, Note Name: D#3
Note ON: Time 83840, Note Name: G#2, Velocity: 25
Note OFF: Time 83920, Note Name: G#2
Note ON: Time 83920, Note Name: D#2, Velocity: 24
Note OFF: Time 84000, Note Name: D#2
Note ON: Time 84000, Note Name: G#1, Velocity: 23
Note OFF: Time 84080, Note Name: G#1
Note ON: Time 84080, Note Name: D#2, Velocity: 23
Note OFF: Time 84160, Note Name: D#2
Note ON: Time 84160, Note Name: G#2, Velocity: 23
Note OFF: Time 84240, Note Name: G#2
Note ON: Time 84240, Note Name: D#3, Velocity: 23
Note OFF: Time 84320, Note Name: D#3
Note ON: Time 84320, Note Name: G#2, Velocity: 23
Note OFF: Time 84400, Note Name: G#2
Note ON: Time 84400, Note Name: D#2, Velocity: 23
Note OFF: Time 84480, Note Name: D#2
Note ON: Time 84480, Note Name: G#1, Velocity: 35
Note OFF: Time 84560, Note Name: G#1
Note ON: Time 84560, Note Name: D#2, Velocity: 23
Note OFF: Time 84640, Note Name: D#2
Note ON: Time 84640, Note Name: G#2, Velocity: 24
Note OFF: Time 84720, Note Name: G#2
Note ON: Time 84720, Note Name: C3, Velocity: 24
Note OFF: Time 84800, Note Name: C3
Note ON: Time 84800, Note Name: D#3, Velocity: 25
Note OFF: Time 84880, Note Name: D#3
Note ON: Time 84880, Note Name: G#3, Velocity: 26
Note OFF: Time 84960, Note Name: G#3
Note ON: Time 84960, Note Name: C4, Velocity: 26
Note OFF: Time 85040, Note Name: C4
Note ON: Time 85040, Note Name: D#4, Velocity: 27
Note OFF: Time 85120, Note Name: D#4
Note ON: Time 85120, Note Name: G#4, Velocity: 28
Note OFF: Time 85200, Note Name: G#4
Note ON: Time 85200, Note Name: C5, Velocity: 28
Note OFF: Time 85280, Note Name: C5
Note ON: Time 85280, Note Name: D#5, Velocity: 29
Note OFF: Time 85360, Note Name: D#5
Note ON: Time 85360, Note Name: G#5, Velocity: 29
Note OFF: Time 85440, Note Name: G#5
Note ON: Time 85440, Note Name: C6, Velocity: 35
Note OFF: Time 85520, Note Name: C6
Note ON: Time 85520, Note Name: G#5, Velocity: 29
Note OFF: Time 85600, Note Name: G#5
Note ON: Time 85600, Note Name: D#5, Velocity: 28
Note OFF: Time 85680, Note Name: D#5
Note ON: Time 85680, Note Name: C5, Velocity: 28
Note OFF: Time 85760, Note Name: C5
Note ON: Time 85760, Note Name: G#4, Velocity: 27
Note OFF: Time 85840, Note Name: G#4
Note ON: Time 85840, Note Name: D#4, Velocity: 26
Note OFF: Time 85920, Note Name: D#4
Note ON: Time 85920, Note Name: G#3, Velocity: 30
Note OFF: Time 86000, Note Name: G#3
Note ON: Time 86000, Note Name: D#4, Velocity: 25
Note OFF: Time 86080, Note Name: D#4
Note ON: Time 86080, Note Name: G#4, Velocity: 26
Note OFF: Time 86160, Note Name: G#4
Note ON: Time 86160, Note Name: C5, Velocity: 27
Note OFF: Time 86240, Note Name: C5
Note ON: Time 86240, Note Name: D#5, Velocity: 28
Note OFF: Time 86320, Note Name: D#5
Note ON: Time 86320, Note Name: G#5, Velocity: 29
Note OFF: Time 86400, Note Name: G#5
Note ON: Time 86400, Note Name: C6, Velocity: 36
Note OFF: Time 86480, Note Name: C6
Note ON: Time 86480, Note Name: G#5, Velocity: 28
Note OFF: Time 86560, Note Name: G#5
Note ON: Time 86560, Note Name: D#5, Velocity: 27
Note OFF: Time 86640, Note Name: D#5
Note ON: Time 86640, Note Name: C5, Velocity: 26
Note OFF: Time 86720, Note Name: C5
Note ON: Time 86720, Note Name: G#4, Velocity: 25
Note OFF: Time 86800, Note Name: G#4
Note ON: Time 86800, Note Name: D#4, Velocity: 24
Note OFF: Time 86880, Note Name: D#4
Note ON: Time 86880, Note Name: G#3, Velocity: 29
Note OFF: Time 86960, Note Name: G#3
Note ON: Time 86960, Note Name: D#4, Velocity: 24
Note OFF: Time 87040, Note Name: D#4
Note ON: Time 87040, Note Name: G#4, Velocity: 25
Note OFF: Time 87120, Note Name: G#4
Note ON: Time 87120, Note Name: C5, Velocity: 27
Note OFF: Time 87200, Note Name: C5
Note ON: Time 87200, Note Name: D#5, Velocity: 28
Note OFF: Time 87280, Note Name: D#5
Note ON: Time 87280, Note Name: G#5, Velocity: 30
Note OFF: Time 87360, Note Name: G#5
Note ON: Time 87360, Note Name: C6, Velocity: 37
Note OFF: Time 87440, Note Name: C6
Note ON: Time 87440, Note Name: G#5, Velocity: 31
Note OFF: Time 87520, Note Name: G#5
Note ON: Time 87520, Note Name: D#5, Velocity: 30
Note OFF: Time 87600, Note Name: D#5
Note ON: Time 87600, Note Name: C5, Velocity: 29
Note OFF: Time 87680, Note Name: C5
Note ON: Time 87680, Note Name: G#4, Velocity: 28
Note OFF: Time 87760, Note Name: G#4
Note ON: Time 87760, Note Name: D#4, Velocity: 27
Note OFF: Time 87840, Note Name: D#4
Note ON: Time 87840, Note Name: G#3, Velocity: 30
Note OFF: Time 87920, Note Name: G#3
Note ON: Time 87920, Note Name: D#4, Velocity: 26
Note OFF: Time 88000, Note Name: D#4
Note ON: Time 88000, Note Name: G#4, Velocity: 27
Note OFF: Time 88080, Note Name: G#4
Note ON: Time 88080, Note Name: C5, Velocity: 28
Note OFF: Time 88160, Note Name: C5
Note ON: Time 88160, Note Name: D#5, Velocity: 29
Note OFF: Time 88240, Note Name: D#5
Note ON: Time 88240, Note Name: G#5, Velocity: 30
Note OFF: Time 88320, Note Name: G#5
Note ON: Time 88320, Note Name: C6, Velocity: 31
Note OFF: Time 88400, Note Name: C6
Note ON: Time 88400, Note Name: G#5, Velocity: 31
Note OFF: Time 88480, Note Name: G#5
Note ON: Time 88480, Note Name: D#5, Velocity: 30
Note OFF: Time 88560, Note Name: D#5
Note ON: Time 88560, Note Name: C5, Velocity: 29
Note OFF: Time 88640, Note Name: C5
Note ON: Time 88640, Note Name: G#4, Velocity: 28
Note OFF: Time 88720, Note Name: G#4
Note ON: Time 88720, Note Name: D#4, Velocity: 28
Note OFF: Time 88800, Note Name: D#4
Note ON: Time 88800, Note Name: G#3, Velocity: 35
Note OFF: Time 88880, Note Name: G#3
Note ON: Time 88880, Note Name: D#4, Velocity: 28
Note OFF: Time 88960, Note Name: D#4
Note ON: Time 88960, Note Name: G#4, Velocity: 30
Note OFF: Time 89040, Note Name: G#4
Note ON: Time 89040, Note Name: D#5, Velocity: 34
Note OFF: Time 89120, Note Name: D#5
Note ON: Time 89120, Note Name: G#4, Velocity: 31
Note OFF: Time 89200, Note Name: G#4
Note ON: Time 89200, Note Name: D#4, Velocity: 29
Note OFF: Time 89280, Note Name: D#4
Note ON: Time 89280, Note Name: G#3, Velocity: 30
Note OFF: Time 89360, Note Name: G#3
Note ON: Time 89360, Note Name: D#4, Velocity: 33
Note OFF: Time 89440, Note Name: D#4
Note ON: Time 89440, Note Name: G#4, Velocity: 36
Note OFF: Time 89520, Note Name: G#4
Note ON: Time 89520, Note Name: D#5, Velocity: 38
Note OFF: Time 89600, Note Name: D#5
Note ON: Time 89600, Note Name: G#4, Velocity: 36
Note OFF: Time 89680, Note Name: G#4
Note ON: Time 89680, Note Name: D#4, Velocity: 35
Note OFF: Time 89760, Note Name: D#4
Note ON: Time 89760, Note Name: G#3, Velocity: 34
Note OFF: Time 89840, Note Name: G#3
Note ON: Time 89840, Note Name: D#4, Velocity: 37
Note OFF: Time 89920, Note Name: D#4
Note ON: Time 89920, Note Name: G#4, Velocity: 38
Note OFF: Time 90000, Note Name: G#4
Note ON: Time 90000, Note Name: D#5, Velocity: 41
Note OFF: Time 90080, Note Name: D#5
Note ON: Time 90080, Note Name: G#4, Velocity: 40
Note OFF: Time 90160, Note Name: G#4
Note ON: Time 90160, Note Name: D#4, Velocity: 38
Note OFF: Time 90240, Note Name: D#4
Note ON: Time 90240, Note Name: G#3, Velocity: 33
Note OFF: Time 90320, Note Name: G#3
Note ON: Time 90320, Note Name: D#4, Velocity: 35
Note OFF: Time 90400, Note Name: D#4
Note ON: Time 90400, Note Name: G#4, Velocity: 37
Note OFF: Time 90480, Note Name: G#4
Note ON: Time 90480, Note Name: D#5, Velocity: 39
Note OFF: Time 90560, Note Name: D#5
Note ON: Time 90560, Note Name: G#4, Velocity: 36
Note OFF: Time 90640, Note Name: G#4
Note ON: Time 90640, Note Name: D#4, Velocity: 33
Note OFF: Time 90720, Note Name: D#4
Note ON: Time 90720, Note Name: G#3, Velocity: 31
Note OFF: Time 90800, Note Name: G#3
Note ON: Time 90800, Note Name: D#4, Velocity: 34
Note OFF: Time 90880, Note Name: D#4
Note ON: Time 90880, Note Name: G#4, Velocity: 36
Note OFF: Time 90960, Note Name: G#4
Note ON: Time 90960, Note Name: D#5, Velocity: 37
Note OFF: Time 91040, Note Name: D#5
Note ON: Time 91040, Note Name: G#4, Velocity: 34
Note OFF: Time 91120, Note Name: G#4
Note ON: Time 91120, Note Name: D#4, Velocity: 31
Note OFF: Time 91200, Note Name: D#4
Note ON: Time 91200, Note Name: G#3, Velocity: 29
Note OFF: Time 91280, Note Name: G#3
Note ON: Time 91280, Note Name: D#4, Velocity: 31
Note OFF: Time 91360, Note Name: D#4
Note ON: Time 91360, Note Name: G#4, Velocity: 31
Note OFF: Time 91440, Note Name: G#4
Note ON: Time 91440, Note Name: D#5, Velocity: 33
Note OFF: Time 91520, Note Name: D#5
Note ON: Time 91520, Note Name: G#4, Velocity: 31
Note OFF: Time 91600, Note Name: G#4
Note ON: Time 91600, Note Name: D#4, Velocity: 28
Note OFF: Time 91680, Note Name: D#4
Note ON: Time 91680, Note Name: G#3, Velocity: 26
Note OFF: Time 91760, Note Name: G#3
Note ON: Time 91760, Note Name: D#4, Velocity: 28
Note OFF: Time 91840, Note Name: D#4
Note ON: Time 91840, Note Name: G#4, Velocity: 29
Note OFF: Time 91920, Note Name: G#4
Note ON: Time 91920, Note Name: D#5, Velocity: 30
Note OFF: Time 92000, Note Name: D#5
Note ON: Time 92000, Note Name: G#4, Velocity: 29
Note OFF: Time 92080, Note Name: G#4
Note ON: Time 92080, Note Name: D#4, Velocity: 28
Note OFF: Time 92160, Note Name: D#4
Note ON: Time 92160, Note Name: G#3, Velocity: 34
Note OFF: Time 92400, Note Name: G#3
Note ON: Time 92640, Note Name: C4, Velocity: 33
Note ON: Time 92640, Note Name: D#3, Velocity: 33
Note ON: Time 92640, Note Name: G#2, Velocity: 33
Note OFF: Time 92880, Note Name: G#2
Note OFF: Time 92880, Note Name: D#3
Note OFF: Time 92880, Note Name: C4
Note ON: Time 93360, Note Name: D2, Velocity: 26
Note OFF: Time 93480, Note Name: D2
Note ON: Time 93480, Note Name: D#2, Velocity: 31
Note OFF: Time 93570, Note Name: D#2
Note ON: Time 93600, Note Name: D#2, Velocity: 33
Note OFF: Time 93640, Note Name: D#2
Note ON: Time 93640, Note Name: F2, Velocity: 27
Note OFF: Time 93680, Note Name: F2
Note ON: Time 93680, Note Name: D#2, Velocity: 33
Note OFF: Time 93720, Note Name: D#2
Note ON: Time 93720, Note Name: F2, Velocity: 27
Note OFF: Time 93760, Note Name: F2
Note ON: Time 93760, Note Name: D#2, Velocity: 33
Note OFF: Time 93800, Note Name: D#2
Note ON: Time 93800, Note Name: F2, Velocity: 27
Note OFF: Time 93840, Note Name: F2
Note ON: Time 93840, Note Name: D#2, Velocity: 30
Note OFF: Time 93880, Note Name: D#2
Note ON: Time 93880, Note Name: F2, Velocity: 24
Note OFF: Time 93920, Note Name: F2
Note ON: Time 93920, Note Name: D#2, Velocity: 30
Note OFF: Time 93960, Note Name: D#2
Note ON: Time 93960, Note Name: F2, Velocity: 26
Note OFF: Time 94000, Note Name: F2
Note ON: Time 94000, Note Name: D#2, Velocity: 30
Note OFF: Time 94040, Note Name: D#2
Note ON: Time 94040, Note Name: F2, Velocity: 26
Note OFF: Time 94080, Note Name: F2
Note ON: Time 94080, Note Name: G#1, Velocity: 28
Note ON: Time 94200, Note Name: G#2, Velocity: 31
Note ON: Time 94320, Note Name: D#3, Velocity: 35
Note OFF: Time 96000, Note Name: D#3
Note OFF: Time 96000, Note Name: G#2
Note OFF: Time 96000, Note Name: G#1
Track 4: Chopin: Etude No.1 in Bb Major Op. 25
Track 5: Copyright  2002 by Bernd Krueger
Track 6: http://www.piano-midi.de
Track 7: Edition: 2014-05-08
Track 8: Spur 8
